<?xml version="1.0" encoding="UTF-8" standalone="no"?>
<!-- Created with Inkscape (http://www.inkscape.org/) -->

<svg
   width="90.529984mm"
   height="8.4144125mm"
   viewBox="0 0 90.529984 8.4144125"
   version="1.1"
   id="svg5"
   inkscape:version="1.1 (c4e8f9ed74, 2021-05-24)"
   sodipodi:docname="artistic.svg"
   xmlns:inkscape="http://www.inkscape.org/namespaces/inkscape"
   xmlns:sodipodi="http://sodipodi.sourceforge.net/DTD/sodipodi-0.dtd"
   xmlns="http://www.w3.org/2000/svg"
   xmlns:svg="http://www.w3.org/2000/svg">
  <sodipodi:namedview
     id="namedview7"
     pagecolor="#ffffff"
     bordercolor="#666666"
     borderopacity="1.0"
     inkscape:pageshadow="2"
     inkscape:pageopacity="0.0"
     inkscape:pagecheckerboard="0"
     inkscape:document-units="mm"
     showgrid="false"
     inkscape:zoom="0.66903058"
     inkscape:cx="211.50005"
     inkscape:cy="241.39405"
     inkscape:window-width="2506"
     inkscape:window-height="1403"
     inkscape:window-x="1974"
     inkscape:window-y="0"
     inkscape:window-maximized="1"
     inkscape:current-layer="layer1" />
  <defs
     id="defs2" />
  <g
     inkscape:label="Layer 1"
     inkscape:groupmode="layer"
     id="layer1"
     transform="translate(-49.223588,-84.578555)">
    <path
       style="fill:#000000;stroke-width:0.264583"
       d="m 59.999814,92.855148 c 0,-0.13853 0.22929,-0.45938 0.50953,-0.71299 0.28024,-0.25362 1.25114,-1.5858 2.15755,-2.96042 l 1.64803,-2.4993 -0.70235,-0.73309 c -0.38629,-0.4032 -0.70234,-0.79176 -0.70234,-0.86346 0,-0.12 0.80833,-0.12379 3.14493,-0.0148 l 0.89598,0.0418 -0.70506,0.70506 c -0.38778,0.38778 -0.6719,0.77473 -0.63139,0.85989 0.62866,1.32147 3.14037,4.95451 3.70159,5.35413 0.40916,0.29135 0.69467,0.60991 0.63448,0.70793 -0.0602,0.098 -0.90706,0.13774 -1.88193,0.0883 l -1.77249,-0.0899 0.73332,-0.76543 c 0.68489,-0.71487 0.70475,-0.79702 0.30053,-1.24368 -0.33719,-0.37258 -0.87263,-0.48665 -2.42357,-0.51632 -1.75839,-0.0336 -2.03708,0.028 -2.38754,0.52839 -0.36606,0.52263 -0.34197,0.62368 0.31127,1.30552 l 0.70805,0.73904 h -1.35078 c -0.74293,0 -1.53911,0.0723 -1.76929,0.1606 -0.23019,0.0883 -0.41852,0.0472 -0.41852,-0.0913 z m 5.34757,-3.41247 c 0.96535,-0.15959 0.97574,-0.17407 0.61547,-0.85698 -0.20155,-0.38206 -0.5388,-0.92493 -0.74943,-1.20639 -0.36572,-0.4887 -0.41428,-0.46213 -1.07849,0.59006 -1.06974,1.69456 -0.9567,1.83192 1.21245,1.47331 z m 18.30586,3.3615 c -0.0621,-0.0627 0.1723,-0.41985 0.52091,-0.79375 0.54764,-0.58736 0.65156,-1.01259 0.76423,-3.12719 l 0.13041,-2.4474 h -2.11572 -2.11572 l 0.39783,-0.59531 c 0.38136,-0.57068 0.5531,-0.59531 4.15056,-0.59531 3.22016,0 3.81172,0.0649 4.16838,0.4575 0.53406,0.58786 0.25921,0.69592 -2.01686,0.79297 l -1.69902,0.0724 -0.0633,2.24896 c -0.0613,2.17913 -0.0384,2.27492 0.73562,3.085 l 0.79886,0.83605 -1.77165,0.09 c -0.97441,0.0495 -1.82247,0.0387 -1.88458,-0.024 z m -27.44432,-1.01053 c 0.14247,-0.97762 0.13813,-0.98345 -0.29622,-0.39687 -0.24245,0.32742 -0.61265,0.59531 -0.82268,0.59531 -0.53046,0 -0.47847,-0.79113 0.0811,-1.23476 0.40504,-0.32109 0.29737,-0.34528 -0.85989,-0.19325 -0.72761,0.0956 -1.64443,0.33694 -2.03738,0.53633 -0.93129,0.47253 -1.36389,0.45987 -1.17423,-0.0344 0.11217,-0.29232 -0.0372,-0.39794 -0.56701,-0.40093 -0.92507,-0.005 -1.50568,-0.37351 -1.24748,-0.7913 0.13666,-0.22111 0.59253,-0.27485 1.42296,-0.16775 0.90319,0.1165 1.10112,0.0867 0.75887,-0.11425 -0.52077,-0.30576 -0.62885,-1.03931 -0.15313,-1.03931 0.17045,0 0.51566,0.18621 0.76715,0.4138 0.50297,0.45518 3.03637,1.20542 3.27264,0.96915 0.2841,-0.2841 0.1453,-0.5892 -0.26804,-0.5892 -0.24639,0 -0.38136,-0.18002 -0.33073,-0.4411 0.12966,-0.66857 0.76244,-0.74766 0.92763,-0.11595 0.0801,0.30638 0.25887,0.55705 0.39723,0.55705 0.14071,0 0.16793,-0.26232 0.0618,-0.59532 -0.32056,-1.0056 -0.2627,-1.36467 0.23647,-1.46759 0.41498,-0.0856 0.45581,0.0261 0.30451,0.83259 -0.20815,1.10952 0.16455,1.99228 0.40719,0.96446 0.18241,-0.77273 0.98493,-1.02625 1.22967,-0.38845 0.1738,0.45291 -0.36685,0.99299 -0.75432,0.75353 -0.39177,-0.24213 -0.2147,0.78114 0.21789,1.25915 0.55249,0.61049 0.28859,1.5086 -0.2998,1.02028 -0.21656,-0.17973 -0.40211,-0.58009 -0.41234,-0.8897 -0.0181,-0.5479 -0.0244,-0.5488 -0.2353,-0.0337 -0.11919,0.29105 -0.15547,0.85659 -0.0806,1.25678 0.10123,0.5413 0.0302,0.7276 -0.27724,0.7276 -0.32692,0 -0.38309,-0.20739 -0.26872,-0.99219 z m 15.51535,0.25011 c 0.66676,-0.69595 0.71096,-0.89413 0.71096,-3.18769 0,-2.3363 -0.0325,-2.47424 -0.72761,-3.08602 l -0.7276,-0.6404 3.63802,-0.008 c 3.29161,-0.008 3.68841,0.042 4.16719,0.52081 0.6388,0.63881 0.71883,2.41837 0.13501,3.00219 -0.21678,0.21678 -0.78193,0.47932 -1.25588,0.58342 l -0.86173,0.18927 1.8512,1.68212 1.85119,1.68212 -1.96435,0.002 -1.96435,0.002 0.58277,-0.62033 c 0.70719,-0.75277 0.56235,-1.23589 -0.64709,-2.15837 -0.73247,-0.55868 -1.13989,-0.67446 -2.14371,-0.60919 -1.17105,0.0762 -1.24451,0.12617 -1.33253,0.90724 -0.0674,0.5978 0.0995,1.05557 0.60271,1.65364 l 0.69588,0.82703 h -1.66052 -1.66052 z m 6.74213,-3.82061 c 0.19007,-0.15774 0.30979,-0.59465 0.26606,-0.97091 -0.0762,-0.65549 -0.16394,-0.68964 -2.09758,-0.8164 -1.10993,-0.0728 -2.36009,-0.0714 -2.77813,0.003 -0.68935,0.12271 -0.75147,0.22118 -0.66772,1.05834 0.0508,0.50767 0.12834,0.98257 0.17235,1.05533 0.15298,0.25296 4.76163,-0.0444 5.10502,-0.32936 z m 12.65629,4.23196 c 0.10882,-0.1819 0.4135,-0.48631 0.67707,-0.67646 0.40589,-0.29283 0.47922,-0.73858 0.47922,-2.91292 0,-2.28064 -0.0591,-2.60407 -0.52917,-2.89765 -0.92446,-0.57734 -0.57715,-0.85516 1.06904,-0.85516 h 1.59821 l -0.67217,0.7249 c -0.61409,0.66227 -0.67216,0.92626 -0.67216,3.05535 0,2.14594 0.0524,2.37897 0.66146,2.94346 0.3638,0.33716 0.66146,0.68866 0.66146,0.78111 0,0.0925 -0.78094,0.1681 -1.73541,0.1681 -1.31746,0 -1.68776,-0.0796 -1.53755,-0.33073 z m 5.65421,-1.34805 c 0,-0.99748 0.11469,-1.7608 0.26458,-1.7608 0.14552,0 0.26458,0.184 0.26458,0.4089 0,0.22489 0.29225,0.70114 0.64943,1.05833 0.57128,0.57128 0.88261,0.64943 2.586966,0.64943 2.7365,0 3.96716,-0.95964 2.52556,-1.96937 -0.40233,-0.2818 -1.20027,-0.41188 -2.52668,-0.41188 -3.071706,0 -4.321396,-1.06592 -3.381216,-2.88401 0.67527,-1.30583 2.69132,-1.70283 4.655776,-0.9168 0.80619,0.32257 1.15728,0.3562 1.38119,0.13229 0.58258,-0.58259 0.76608,-0.28576 0.6418,1.03819 -0.15712,1.67375 -0.3033,1.82441 -0.81328,0.83821 -0.4451,-0.86072 -1.21663,-1.11829 -3.349726,-1.11829 -1.67322,0 -2.10523,0.19393 -2.10523,0.94504 0,0.88628 0.73376,1.17162 3.012856,1.17162 2.30926,0 3.18589,0.31903 3.59578,1.30859 0.3496,0.844 0.0689,1.7583 -0.77242,2.51629 -0.80813,0.72805 -3.582696,0.89422 -4.760576,0.28512 -0.80741,-0.41753 -0.88961,-0.41676 -1.36429,0.0128 -0.49228,0.44551 -0.5051,0.4124 -0.5051,-1.30368 z m 10.847906,1.39417 c 0,-0.0838 0.29766,-0.43195 0.66146,-0.77372 0.61385,-0.57668 0.66146,-0.79901 0.66146,-3.08883 v -2.46742 h -2.1768 -2.1768 l 0.65545,-0.64636 c 0.62189,-0.61327 0.8358,-0.6493 4.17899,-0.70378 3.49614,-0.057 3.52902,-0.0519 4.22732,0.64636 l 0.70377,0.70378 h -2.30909 -2.30909 v 2.4348 c 0,2.3385 0.0309,2.46669 0.78154,3.24114 l 0.78154,0.80635 h -1.83987 c -1.01193,0 -1.83988,-0.0685 -1.83988,-0.15232 z m 7.40817,0 c 9e-5,-0.0838 0.29782,-0.43195 0.66162,-0.77372 0.6101,-0.57316 0.66146,-0.80548 0.66146,-2.9919 0,-2.23104 -0.0409,-2.40562 -0.69495,-2.96765 -0.38223,-0.32844 -0.61333,-0.72925 -0.51356,-0.89068 0.18501,-0.29936 3.32518,-0.42522 3.32518,-0.13328 0,0.0881 -0.29766,0.51399 -0.66146,0.94634 -0.59525,0.70742 -0.66146,1.01779 -0.66146,3.10093 0,2.12705 0.0537,2.36524 0.66146,2.93624 0.3638,0.34177 0.66115,0.68995 0.66076,0.77372 -2.6e-4,0.0838 -0.77436,0.15232 -1.71996,0.15232 -0.94559,0 -1.71918,-0.0685 -1.71909,-0.15232 z m 6.13739,-0.50202 c -2.36775,-1.7152 -1.96028,-5.33576 0.77342,-6.87219 1.27688,-0.71764 2.22983,-0.68106 3.66775,0.14081 l 1.18569,0.6777 0.47457,-0.58608 c 0.26102,-0.32234 0.50611,-0.53944 0.54465,-0.48245 0.0385,0.057 0.025,0.84777 -0.0301,1.75728 -0.0999,1.64874 -0.39801,2.12214 -0.71246,1.13138 -0.34482,-1.08643 -1.40588,-1.5944 -3.33041,-1.5944 -2.30439,0 -3.13764,0.60042 -3.34135,2.40771 -0.114,1.01143 -0.0314,1.32033 0.52663,1.96906 0.60376,0.70192 0.83959,0.77841 2.68762,0.87173 l 2.02579,0.1023 1.04549,-1.09904 c 0.85377,-0.89749 1.0455,-1.00224 1.0455,-0.57119 0,1.68484 -1.71632,2.93401 -4.03123,2.93401 -1.18346,0 -1.64256,-0.14266 -2.53155,-0.78663 z m 10.91638,-1.87257 c 0,-0.64645 -0.1551,-1.17938 -0.39087,-1.34306 -0.29536,-0.20506 -0.31005,-0.30415 -0.0601,-0.40556 0.19441,-0.0789 0.33073,-0.61587 0.33073,-1.30277 0,-0.86886 0.10308,-1.16858 0.40191,-1.16858 0.2965,0 0.35841,0.17334 0.23606,0.66087 -0.0912,0.36348 -0.0771,0.86949 0.0314,1.12448 0.16931,0.39795 0.22184,0.37013 0.37087,-0.19646 0.22033,-0.83765 1.07646,-1.06461 1.07646,-0.28537 0,0.31123 -0.17171,0.54857 -0.39688,0.54857 -0.21828,0 -0.39687,0.11906 -0.39687,0.26458 0,0.45177 1.68844,0.29097 2.77812,-0.26458 1.50608,-0.76785 2.23359,-0.64239 1.38906,0.23954 -0.27032,0.28229 -0.17476,0.31252 0.52323,0.16549 0.46967,-0.0989 1.10101,-0.10147 1.40299,-0.006 0.84381,0.26782 0.13464,0.92351 -0.99882,0.92351 -0.76718,0 -0.87289,0.0641 -0.61622,0.37332 0.50433,0.60768 -0.0902,0.70129 -1.08107,0.17022 -0.5065,-0.27146 -1.58525,-0.57658 -2.39723,-0.67803 -1.33435,-0.16671 -1.49261,-0.13311 -1.64575,0.3494 -0.0932,0.29361 -0.0922,0.84162 0.002,1.2178 0.12266,0.48827 0.0672,0.68396 -0.19365,0.68396 -0.2507,0 -0.36542,-0.33646 -0.36542,-1.0717 z m -1.4489,-0.12581 c -0.30097,-0.36264 -0.29739,-0.46812 0.0227,-0.67069 0.50181,-0.31753 0.70856,-0.30825 0.92472,0.0415 0.0986,0.15948 0.006,0.46311 -0.20556,0.67473 -0.33662,0.33663 -0.42944,0.33093 -0.74189,-0.0456 z m 2.56886,0.23288 c -0.10004,-0.10004 -0.1819,-0.38903 -0.1819,-0.6422 0,-0.33366 0.14911,-0.4213 0.54198,-0.31857 0.30527,0.0798 0.5075,0.31945 0.46302,0.54862 -0.0889,0.45803 -0.54755,0.6877 -0.8231,0.41215 z m -2.56315,-2.73954 c 0,-0.3985 0.13816,-0.54136 0.46302,-0.47879 0.25467,0.049 0.46302,0.2645 0.46302,0.47879 0,0.2143 -0.20835,0.42976 -0.46302,0.4788 -0.32486,0.0626 -0.46302,-0.0803 -0.46302,-0.4788 z"
       id="path39" />
  </g>
</svg>
