<?xml version="1.0" encoding="UTF-8" standalone="no"?>
<!-- Created with Inkscape (http://www.inkscape.org/) -->

<svg
   width="53.678143mm"
   height="78.714981mm"
   viewBox="0 0 53.678143 78.714979"
   version="1.1"
   id="svg5"
   inkscape:version="1.1 (c4e8f9ed74, 2021-05-24)"
   sodipodi:docname="grenade.svg"
   xmlns:inkscape="http://www.inkscape.org/namespaces/inkscape"
   xmlns:sodipodi="http://sodipodi.sourceforge.net/DTD/sodipodi-0.dtd"
   xmlns="http://www.w3.org/2000/svg"
   xmlns:svg="http://www.w3.org/2000/svg">
  <sodipodi:namedview
     id="namedview7"
     pagecolor="#ffffff"
     bordercolor="#666666"
     borderopacity="1.0"
     inkscape:pageshadow="2"
     inkscape:pageopacity="0.0"
     inkscape:pagecheckerboard="0"
     inkscape:document-units="mm"
     showgrid="false"
     inkscape:zoom="1.3380612"
     inkscape:cx="-7.8471749"
     inkscape:cy="141.62282"
     inkscape:window-width="2506"
     inkscape:window-height="1403"
     inkscape:window-x="1974"
     inkscape:window-y="0"
     inkscape:window-maximized="1"
     inkscape:current-layer="layer1" />
  <defs
     id="defs2" />
  <g
     inkscape:label="Layer 1"
     inkscape:groupmode="layer"
     id="layer1"
     transform="translate(-129.67493,-74.087326)">
    <path
       style="fill:#000000;stroke-width:0.264583"
       d="m 156.74177,152.07471 c -0.25412,-0.40018 -1.06757,-1.50151 -1.80766,-2.4474 -1.233,-1.57584 -1.93305,-2.55 -2.6373,-3.66999 -0.14552,-0.23143 -0.80037,-1.13623 -1.45521,-2.01069 -1.47195,-1.96559 -2.38125,-3.29418 -2.38125,-3.47929 0,-0.15673 -2.38871,-3.33178 -2.6633,-3.54003 -0.0959,-0.0728 -0.7295,-0.96573 -1.40791,-1.98437 -0.67841,-1.01865 -1.75747,-2.56646 -2.39792,-3.43959 -0.64044,-0.87312 -1.17329,-1.72957 -1.18411,-1.90322 -0.0108,-0.17365 -0.22804,-0.47182 -0.4827,-0.66261 -0.48708,-0.3649 -1.0327,-1.09679 -2.91968,-3.91646 -0.63301,-0.94588 -1.42417,-2.01744 -1.75815,-2.38125 -0.68411,-0.7452 -3.32582,-4.73477 -3.32582,-5.02273 0,-0.10281 -0.25198,-0.41373 -0.55996,-0.69095 -0.75835,-0.6826 -2.08587,-2.63381 -2.08587,-3.06586 0,-0.1924 0.74414,-1.46075 1.65365,-2.81855 0.9095,-1.3578 1.89177,-2.85892 2.18281,-3.33583 0.29104,-0.4769 0.94588,-1.37154 1.45521,-1.98808 0.50932,-0.61654 1.03353,-1.34756 1.16491,-1.62449 0.13138,-0.27693 0.33974,-0.50351 0.46302,-0.50351 0.12328,0 0.22415,-0.16744 0.22415,-0.3721 0,-0.33986 0.50352,-1.1533 3.59791,-5.812402 0.56776,-0.854861 1.30844,-2.024299 1.64594,-2.598748 0.3375,-0.574449 0.85869,-1.326294 1.1582,-1.670765 0.58242,-0.669841 0.74564,-0.928933 1.85007,-2.936834 0.39132,-0.711437 1.08345,-1.710241 1.53808,-2.219563 0.45462,-0.509323 1.06392,-1.418499 1.354,-2.020392 0.29008,-0.601892 0.9199,-1.554392 1.3996,-2.116666 0.47969,-0.562275 1.08263,-1.439036 1.33984,-1.948359 0.25722,-0.509323 0.6511,-1.135221 0.8753,-1.390884 0.22419,-0.255664 0.53726,-0.686907 0.6957,-0.958318 0.55336,-0.947925 2.52692,-3.873927 3.05541,-4.529964 0.29307,-0.363803 0.53445,-0.771168 0.5364,-0.905258 0.004,-0.250455 1.34921,1.641249 3.10278,4.362121 0.32212,0.499819 1.0365,1.431843 1.5875,2.071165 0.551,0.639322 1.27314,1.639788 1.60476,2.223258 0.33162,0.583469 1.19482,1.814003 1.91823,2.73452 0.7234,0.920517 1.31528,1.734393 1.31528,1.808614 0,0.07422 0.1704,0.344667 0.37866,0.600992 1.23567,1.520852 3.32569,4.472423 3.32673,4.698087 8e-4,0.146231 0.35786,0.646371 0.79375,1.111422 0.43589,0.46505 0.79253,0.931312 0.79253,1.036137 0,0.104826 0.18361,0.379174 0.40802,0.609662 0.51458,0.528513 5.54686,7.485995 5.9233,8.189375 0.15389,0.28754 0.43025,0.68092 0.61413,0.87417 0.18388,0.19325 1.04774,1.42292 1.91968,2.73261 0.87194,1.30969 2.09149,3.00464 2.71011,3.76657 1.19001,1.46569 1.33627,1.93247 0.78286,2.49838 -0.18805,0.1923 -0.50015,0.73659 -0.69356,1.20953 -0.19341,0.47294 -0.43435,0.85989 -0.53542,0.85989 -0.10107,0 -0.46162,0.50602 -0.80123,1.12448 -0.65019,1.18408 -2.19541,3.61543 -4.2203,6.64049 -0.66704,0.99651 -1.33156,2.00854 -1.47672,2.24896 -0.14515,0.24041 -0.53211,0.81613 -0.85989,1.27936 -0.32779,0.46323 -0.59598,0.94697 -0.59598,1.07498 0,0.128 -0.35719,0.57494 -0.79375,0.99319 -0.43656,0.41825 -0.79375,0.86845 -0.79375,1.00043 0,0.19538 -2.2855,3.52984 -3.12548,4.55996 -0.12052,0.1478 -0.55793,0.86217 -0.97204,1.5875 -0.4141,0.72533 -0.95991,1.5569 -1.21292,1.84794 -0.54186,0.62332 -1.41996,2.05836 -1.94277,3.175 -0.2044,0.43657 -0.59637,1.09141 -0.87104,1.45521 -0.27468,0.36381 -1.14127,1.79256 -1.92577,3.175 -0.78449,1.38245 -1.88027,3.11968 -2.43504,3.8605 -0.55478,0.74083 -1.00869,1.46891 -1.00869,1.61797 0,0.3697 -1.03941,1.66528 -1.33602,1.66528 -0.13161,0 -0.4472,-0.32742 -0.70131,-0.7276 z m 2.25084,-2.42336 c 0.61017,-1.02297 1.10941,-1.94098 1.10941,-2.04002 0,-0.24362 -1.58594,1.95817 -1.59339,2.21213 -0.003,0.1104 -0.21449,0.47177 -0.46945,0.80305 l -0.46357,0.60233 -1.01421,-1.32993 c -1.08095,-1.41743 -1.6279,-1.84953 -0.71073,-0.56148 0.30095,0.42264 0.54718,0.86145 0.54718,0.97513 0,0.31897 1.11286,1.42895 1.31031,1.30692 0.0963,-0.0595 0.67428,-0.94516 1.28445,-1.96813 z m -1.12474,-0.92311 c -0.33987,-2.72027 -0.62859,-3.13155 -0.65353,-0.93096 -0.0125,1.10353 0.0566,2.0858 0.15365,2.18281 0.4931,0.49311 0.66433,0.0643 0.49988,-1.25185 z m -2.95107,-1.01916 c -0.10415,-0.1819 -1.51797,-2.17619 -3.14181,-4.43177 -6.13097,-8.51611 -6.90819,-9.60703 -7.72588,-10.84423 -0.75718,-1.14563 -1.84942,-2.26711 -1.26741,-1.30133 0.29188,0.48433 1.83579,2.6992 2.93331,4.20806 1.37205,1.88628 4.17476,5.84048 4.46513,6.29963 0.14552,0.2301 0.48053,0.66299 0.74446,0.96197 0.26393,0.29899 0.90924,1.19846 1.43401,1.99882 1.111,1.69444 2.44126,3.43958 2.62188,3.43958 0.0691,0 0.0405,-0.14883 -0.0637,-0.33073 z m 1.31483,-0.40812 c 0.1693,-0.27394 0.41724,-2.43615 0.27935,-2.43615 -0.16341,0 -0.90688,1.87021 -0.90688,2.28127 0,0.39381 0.41635,0.49656 0.62753,0.15488 z m 3.07664,-0.54306 c 0,-0.26848 -0.23813,-0.70366 -0.52917,-0.96705 -0.57998,-0.52487 -0.669,-0.26994 -0.27113,0.77653 0.29883,0.78599 0.8003,0.90537 0.8003,0.19052 z m -2.97657,-4.0608 c 0.89815,0.0316 1.12823,-0.0524 1.14308,-0.4177 0.0158,-0.38779 0.0494,-0.37866 0.22098,0.0601 0.20086,0.51352 0.20466,0.51352 0.50253,0 0.26607,-0.4587 0.30105,-0.46488 0.30818,-0.0544 0.004,0.25466 0.12375,0.46302 0.26518,0.46302 0.27386,0 0.19211,-2.0202 -0.0933,-2.30561 -0.0931,-0.0931 -0.34288,0.0601 -0.55503,0.34055 -0.35025,0.46296 -0.3865,0.46727 -0.39414,0.0468 -0.005,-0.25466 -0.18701,-0.46302 -0.40529,-0.46302 -0.27864,0 -0.40287,0.29558 -0.417,0.99218 l -0.0201,0.99219 -0.32883,-0.91007 c -0.47086,-1.30317 -0.90963,-1.31161 -1.11593,-0.0215 -0.12852,0.8037 -0.27588,1.05391 -0.55712,0.94599 -0.21031,-0.0807 -0.49171,-0.14675 -0.62533,-0.14675 -0.13362,0 -0.24294,-0.39082 -0.24294,-0.8685 0,-0.84875 -0.0278,-0.86971 -1.22376,-0.92176 l -1.22375,-0.0533 0.17753,1.11026 c 0.0976,0.61065 0.23162,1.16435 0.29772,1.23044 0.23594,0.23595 0.46051,-0.23259 0.48855,-1.01929 0.0418,-1.17241 0.65534,-0.97819 0.85504,0.27066 0.16652,1.04136 0.19449,1.06611 0.99531,0.88072 0.45319,-0.10491 1.33,-0.17293 1.94846,-0.15115 z m 6.36862,-0.707 c 0.0587,-0.39332 -0.10415,-0.6439 -0.52917,-0.81432 l -0.61393,-0.24618 0.59532,-0.0168 c 0.90203,-0.0254 0.71283,-0.54593 -0.19844,-0.54593 -0.98334,0 -1.09382,0.78447 -0.19844,1.40906 l 0.59531,0.41526 -0.59531,0.0139 c -0.32742,0.008 -0.59531,0.1131 -0.59531,0.23436 0,0.80128 1.41499,0.38839 1.53997,-0.44936 z m -2.06914,0.49346 c 0,-0.14552 -0.1318,-0.26458 -0.29289,-0.26458 -0.16109,0 -0.22992,-0.16409 -0.15297,-0.36463 0.077,-0.20055 0.006,-0.49821 -0.1569,-0.66146 -0.21938,-0.21938 -0.17946,-0.29683 0.15297,-0.29683 0.24739,0 0.44979,-0.11906 0.44979,-0.26458 0,-0.14552 -0.29765,-0.26458 -0.66146,-0.26458 -0.60756,0 -0.66145,0.097 -0.66145,1.19062 0,1.09361 0.0539,1.19063 0.66145,1.19063 0.36381,0 0.66146,-0.11907 0.66146,-0.26459 z m 5.04298,-3.57767 c 1.08266,-1.69367 2.31825,-3.63538 2.74574,-4.31492 0.42749,-0.67954 1.92203,-2.96194 3.32121,-5.07199 3.28865,-4.95952 3.75188,-5.82907 1.1728,-2.20153 -0.49811,0.70059 -0.90564,1.13924 -0.90564,0.97477 0,-0.16446 -0.23813,-0.36129 -0.52917,-0.4374 -0.42045,-0.10995 -0.52917,-0.3609 -0.52917,-1.22149 0,-0.80257 -0.10637,-1.0831 -0.4107,-1.0831 -0.32922,0 -0.39483,0.2756 -0.33073,1.38906 0.0767,1.33198 0.11422,1.3945 0.91327,1.52136 l 0.83329,0.13229 -2.2885,3.44585 c -2.63351,3.96534 -6.50753,10.28434 -6.18156,10.08288 0.12137,-0.075 1.1065,-1.52212 2.18916,-3.21578 z m -15.41265,-2.06262 0.0814,-1.27467 -0.87513,0.084 c -0.84879,0.0815 -0.87232,0.1159 -0.78199,1.14238 0.11811,1.34228 0.22445,1.50389 0.92402,1.4042 0.48009,-0.0684 0.58323,-0.28299 0.65172,-1.35595 z m -1.00741,-0.0482 c 0,-0.39442 0.11393,-0.62227 0.26458,-0.52917 0.14552,0.0899 0.26458,0.32807 0.26458,0.52917 0,0.20111 -0.11906,0.43923 -0.26458,0.52917 -0.15065,0.0931 -0.26458,-0.13475 -0.26458,-0.52917 z m 3.05929,-0.0184 c 0.21725,-1.44871 -0.0213,-1.83861 -0.37068,-0.60594 l -0.25197,0.88891 -0.19306,-0.85989 c -0.27362,-1.21873 -0.76033,-1.10166 -0.52975,0.12742 0.41228,2.19763 1.0513,2.41112 1.34546,0.4495 z m 2.37567,1.19121 c 0.096,-0.15532 -0.0557,-0.34261 -0.33716,-0.41621 -0.356,-0.0931 -0.51169,-0.36497 -0.51169,-0.89353 0,-0.41785 0.0694,-0.73657 0.15434,-0.70827 0.0849,0.0283 0.18411,-0.0676 0.22049,-0.21314 0.0364,-0.14552 -0.0529,-0.25268 -0.19844,-0.23813 -0.14552,0.0146 -0.44318,0.0443 -0.66146,0.0661 -0.28562,0.0286 -0.39688,0.3611 -0.39688,1.18621 0,0.6306 0.0794,1.22591 0.17639,1.32292 0.27903,0.27903 1.3621,0.20517 1.55441,-0.106 z m 1.52564,-0.41619 c 0.31255,0.8145 0.58002,0.43486 0.58002,-0.82327 0,-1.22394 -0.0221,-1.25841 -0.85989,-1.33918 -0.85233,-0.0822 -0.8599,-0.0727 -0.8599,1.08038 0,1.34229 0.212,1.68913 0.65889,1.07796 0.28985,-0.39639 0.32732,-0.39607 0.48088,0.004 z m 3.62273,-0.46374 c 0,-0.55391 0.152,-0.95606 0.39688,-1.05003 0.76762,-0.29456 0.38528,-0.69807 -0.66146,-0.69807 -0.76435,0 -1.05833,0.11025 -1.05833,0.39688 0,0.21828 0.11906,0.39687 0.26458,0.39687 0.14552,0 0.26458,0.33735 0.26458,0.74966 0,0.41231 0.0794,0.82902 0.17639,0.92604 0.39221,0.39221 0.61736,0.12913 0.61736,-0.72135 z m 1.85209,0.50086 c 0,-0.21828 0.11906,-0.39687 0.26458,-0.39687 0.14552,0 0.26458,0.17859 0.26458,0.39687 0,0.21828 0.11906,0.39688 0.26459,0.39688 0.14552,0 0.26458,-0.59532 0.26458,-1.32292 0,-1.3584 -0.44911,-1.81849 -0.72928,-0.74711 l -0.15058,0.5758 -0.22959,-0.62066 c -0.34204,-0.9246 -0.68182,-0.30485 -0.54299,0.99041 0.11132,1.03864 0.59411,1.62991 0.59411,0.7276 z m 3.30729,0.13229 c 0.0899,-0.14552 -0.0618,-0.26458 -0.33717,-0.26458 -0.37992,0 -0.50068,-0.19144 -0.50068,-0.79375 0,-0.48507 0.13719,-0.79375 0.35278,-0.79375 0.19403,0 0.35278,-0.11906 0.35278,-0.26458 0,-0.14552 -0.35719,-0.26459 -0.79375,-0.26459 -0.77611,0 -0.79375,0.0294 -0.79375,1.32292 0,1.28762 0.0208,1.32292 0.77813,1.32292 0.42797,0 0.85172,-0.11907 0.94166,-0.26459 z m -17.85388,-4.5068 c 0.0787,-0.12734 0.0971,-0.71321 0.041,-1.30194 -0.0973,-1.0206 -0.14389,-1.07042 -1.00033,-1.07042 -0.89738,0 -0.89825,0.001 -0.89825,1.27882 0,0.70335 0.0857,1.36453 0.19047,1.46928 0.22909,0.2291 1.46553,-0.0496 1.66711,-0.37574 z m 2.11117,0.009 c 0,-0.14552 -0.23813,-0.26459 -0.52917,-0.26459 -0.58569,0 -0.71674,-0.40896 -0.19844,-0.61926 0.24903,-0.10105 0.23269,-0.20454 -0.0661,-0.41893 -0.33602,-0.24108 -0.3056,-0.30975 0.19844,-0.44788 0.85718,-0.23491 0.73267,-0.63059 -0.19844,-0.63059 -0.77611,0 -0.79375,0.0294 -0.79375,1.32291 0,1.29352 0.0176,1.32292 0.79375,1.32292 0.43656,0 0.79375,-0.11906 0.79375,-0.26458 z m 3.175,-0.52917 c 0,-0.61736 -0.11759,-0.79375 -0.52917,-0.79375 -0.29104,0 -0.52917,-0.11906 -0.52917,-0.26458 0,-0.14552 0.23813,-0.26459 0.52917,-0.26459 0.29104,0 0.52917,-0.11906 0.52917,-0.26458 0,-0.14552 -0.41672,-0.26458 -0.92604,-0.26458 -0.85255,0 -0.92605,0.063 -0.92605,0.79375 0,0.60931 0.11933,0.79375 0.51356,0.79375 0.28245,0 0.58713,0.11906 0.67707,0.26458 0.0927,0.15006 -0.12955,0.26458 -0.51355,0.26458 -0.37239,0 -0.67708,0.11907 -0.67708,0.26459 0,0.14552 0.41672,0.26458 0.92605,0.26458 0.85254,0 0.92604,-0.063 0.92604,-0.79375 z m 2.11666,0.42165 c 0,-0.24185 -0.18524,-0.32367 -0.52916,-0.23373 -0.44723,0.11695 -0.52917,0.008 -0.52917,-0.70286 0,-0.65467 0.10269,-0.82384 0.46302,-0.7628 0.25466,0.0432 0.52255,-0.0387 0.59531,-0.1818 0.0728,-0.14314 -0.24153,-0.29658 -0.69842,-0.34098 -0.79213,-0.077 -0.83539,-0.0317 -0.93147,0.97587 -0.0554,0.58114 -0.0586,1.18301 -0.007,1.33751 0.14397,0.43191 1.63703,0.34872 1.63703,-0.0912 z m 1.12556,0.0414 c 0.0887,-0.26352 0.19221,-0.26398 0.50941,-0.002 0.21895,0.18064 0.45925,0.26729 0.53398,0.19255 0.19577,-0.19568 -0.60161,-2.50527 -0.86495,-2.50527 -0.12144,0 -0.34478,0.44648 -0.49633,0.99218 -0.34041,1.22574 -0.34971,1.65365 -0.036,1.65365 0.13339,0 0.29262,-0.14883 0.35385,-0.33073 z m 2.48421,-0.73662 c -0.0952,-0.47616 -0.0107,-0.85229 0.23792,-1.05864 0.62751,-0.52079 0.44589,-0.78443 -0.54039,-0.78443 -0.64676,0 -0.92604,0.1197 -0.92604,0.39688 0,0.21828 0.11906,0.39687 0.26458,0.39687 0.14552,0 0.26458,0.39688 0.26458,0.88195 0,0.95906 0.19506,1.30892 0.59273,1.06315 0.13988,-0.0865 0.18786,-0.48956 0.10662,-0.89578 z m 2.359,-0.13294 c -0.0936,-0.49899 -0.047,-0.94755 0.10853,-1.04365 0.52509,-0.32453 0.26577,-0.66648 -0.50543,-0.66648 -0.8754,0 -1.32592,0.44909 -0.69384,0.69164 0.25686,0.0986 0.41364,0.48227 0.41364,1.01236 0,0.9306 0.19809,1.27874 0.58983,1.03663 0.1383,-0.0855 0.17757,-0.54919 0.0873,-1.0305 z m 2.4979,0.67112 c 0,-0.14552 -0.23812,-0.26458 -0.52916,-0.26458 -0.5857,0 -0.71674,-0.40896 -0.19844,-0.61927 0.24903,-0.10104 0.23269,-0.20453 -0.0661,-0.41893 -0.33602,-0.24107 -0.30559,-0.30975 0.19844,-0.44787 0.85719,-0.23491 0.73267,-0.6306 -0.19844,-0.6306 -0.77611,0 -0.79375,0.0294 -0.79375,1.32292 0,1.29352 0.0177,1.32292 0.79375,1.32292 0.43656,0 0.79375,-0.11907 0.79375,-0.26459 z m 1.13864,-0.33073 0.1171,-0.59531 0.19674,0.59531 c 0.16422,0.4969 0.38847,0.59532 1.35651,0.59532 0.63787,0 1.15976,-0.11907 1.15976,-0.26459 0,-0.14552 -0.16466,-0.26458 -0.36591,-0.26458 -0.47597,0 -0.41846,-1.53084 0.0688,-1.83199 0.48509,-0.2998 -0.009,-0.55793 -0.71533,-0.37335 -0.47618,0.12453 -0.58328,0.36121 -0.62277,1.3763 l -0.0477,1.22591 -0.0991,-1.25677 c -0.0975,-1.23693 -0.11348,-1.25677 -1.01064,-1.25677 h -0.91154 v 1.32292 c 0,0.97095 0.10069,1.32292 0.37847,1.32292 0.20816,0 0.43117,-0.26789 0.49558,-0.59532 z m 4.5499,-0.85989 c 0,-1.23472 -0.0441,-1.32292 -0.66145,-1.32292 -0.6126,0 -0.66742,0.10402 -0.74209,1.40804 -0.0803,1.40259 -0.0778,1.4077 0.66145,1.32291 0.70277,-0.0806 0.74209,-0.15521 0.74209,-1.40803 z m -0.92604,-0.0156 c 0,-0.38401 0.11452,-0.60629 0.26459,-0.51355 0.14552,0.0899 0.26458,0.39462 0.26458,0.67707 0,0.28245 -0.11906,0.51355 -0.26458,0.51355 -0.14553,0 -0.26459,-0.30468 -0.26459,-0.67707 z m -26.62651,-3.35783 c -2.93737,-4.19742 -8.79934,-12.2438 -9.49317,-13.03073 l -0.69985,-0.79375 0.44237,0.80441 c 0.2433,0.44242 1.41371,2.12292 2.60091,3.73443 1.1872,1.61152 2.92544,3.98797 3.86275,5.28101 3.5733,4.92943 4.52196,6.18744 4.66591,6.18744 0.0817,0 -0.53877,-0.98226 -1.37892,-2.18281 z m 3.02654,0.095 c 0.0916,-0.27851 -0.0483,-0.32557 -0.57491,-0.1934 -0.65279,0.16385 -0.69595,0.11694 -0.69595,-0.7564 0,-0.82478 0.078,-0.93109 0.6835,-0.93109 0.42922,0 0.6425,-0.12304 0.57327,-0.33073 -0.0606,-0.1819 -0.51704,-0.33072 -1.01424,-0.33072 -0.87686,0 -0.90646,0.0343 -0.9863,1.14403 -0.0458,0.63599 0.0617,1.31753 0.24193,1.53473 0.39112,0.47127 1.60353,0.37797 1.7727,-0.13642 z m 2.30101,-1.08714 c 0,-1.4405 -0.008,-1.4552 -0.79375,-1.4552 -0.74804,0 -0.79852,0.0665 -0.87659,1.15474 -0.11372,1.58531 0.0678,1.94001 0.94123,1.83954 0.69722,-0.0802 0.72911,-0.14753 0.72911,-1.53908 z m -1.08851,0.41365 c -0.20846,-0.54324 0.0851,-1.28642 0.42519,-1.07626 0.14654,0.0906 0.26645,0.38875 0.26645,0.66261 0,0.65184 -0.48819,0.94381 -0.69164,0.41365 z m 2.40436,0.35784 c -0.0955,-0.30079 -0.036,-0.5069 0.1463,-0.5069 0.16895,0 0.36946,0.23812 0.44557,0.52916 0.0761,0.29105 0.30308,0.52917 0.50439,0.52917 0.26727,0 0.36602,-0.39261 0.36602,-1.45521 0,-1.44869 -0.3864,-1.99386 -0.60947,-0.85989 l -0.1171,0.59531 -0.20009,-0.60813 c -0.34297,-1.04236 -1.04615,-0.60658 -1.14055,0.70683 -0.0456,0.63385 -0.0166,1.32498 0.0643,1.53584 0.21762,0.56711 0.72874,0.1264 0.54066,-0.46618 z m 3.57894,-0.53082 c 0,-0.69017 0.13627,-1.10331 0.39688,-1.20332 0.7811,-0.29974 0.37624,-0.62485 -0.77813,-0.62485 -1.25403,0 -1.89269,0.46839 -0.96828,0.71013 0.4389,0.11477 0.55578,0.35216 0.55578,1.12872 0,0.54086 0.0761,1.05951 0.1692,1.15257 0.35355,0.35355 0.62455,-0.1512 0.62455,-1.16325 z m 3.11021,0.87977 c 0.0632,-0.1895 -0.12258,-0.32669 -0.44232,-0.32669 -0.60384,0 -0.74675,-0.40365 -0.22049,-0.62279 0.24121,-0.10044 0.20652,-0.23881 -0.12818,-0.51123 -0.51934,-0.42269 -0.35778,-0.71806 0.39276,-0.71806 0.27892,0 0.46446,-0.12799 0.41231,-0.28443 -0.0521,-0.15643 -0.18113,-0.27549 -0.28663,-0.26458 -0.1055,0.0109 -0.48948,0.0198 -0.85328,0.0198 -0.62287,0 -0.66146,0.0823 -0.66146,1.41111 0,0.77612 0.0713,1.48245 0.15852,1.56964 0.27564,0.27564 1.51515,0.068 1.62877,-0.27281 z m 1.17352,-0.61586 c -0.0794,-0.61755 -0.0616,-0.61279 0.5858,0.15688 l 0.66769,0.79375 0.01,-1.52135 c 0.005,-0.84419 -0.10826,-1.52136 -0.25508,-1.52136 -0.14552,0 -0.27083,0.26789 -0.27846,0.59532 l -0.0139,0.59531 -0.41527,-0.59531 c -0.65368,-0.93711 -0.87988,-0.71039 -0.87988,0.88194 0,1.06557 0.0922,1.44583 0.33073,1.36447 0.1819,-0.062 0.29388,-0.39938 0.24883,-0.74965 z m 3.38919,-0.22685 c 0,-0.7195 0.14428,-1.12659 0.46302,-1.30643 0.76788,-0.43327 0.0342,-0.89101 -1.09001,-0.6801 -0.93923,0.1762 -1.35018,0.65047 -0.56363,0.65047 0.29398,0 0.39687,0.30868 0.39687,1.19063 0,0.88194 0.1029,1.19062 0.39688,1.19062 0.2858,0 0.39687,-0.29252 0.39687,-1.04519 z m 3.04271,0.11915 c 0,-0.62171 -0.12903,-0.81208 -0.59531,-0.8783 -0.82171,-0.1167 -0.75136,-0.57691 0.0882,-0.57691 0.42922,0 0.64249,-0.12304 0.57327,-0.33073 -0.0606,-0.1819 -0.51704,-0.33073 -1.01424,-0.33073 -0.85675,0 -0.90399,0.0484 -0.90399,0.92604 0,0.76071 0.10698,0.94123 0.59923,1.01111 0.71548,0.10156 0.52305,0.57639 -0.23359,0.57639 -0.30422,0 -0.45574,0.11881 -0.35643,0.2795 0.095,0.15372 0.54852,0.24302 1.00781,0.19844 0.73344,-0.0712 0.83506,-0.17765 0.83506,-0.87481 z m 2.71979,0.33073 c 0.24254,-0.50291 0.28988,-0.52003 0.30501,-0.11025 0.0293,0.79499 0.5762,0.36614 0.96775,-0.75891 0.42629,-1.22486 0.46524,-1.71053 0.13718,-1.71053 -0.12975,0 -0.31858,0.32742 -0.41964,0.7276 l -0.18373,0.72761 -0.38668,-0.73546 c -0.4286,-0.81518 -0.8794,-0.73816 -0.91161,0.15576 -0.0184,0.5104 -0.0526,0.49272 -0.28663,-0.14791 -0.37321,-1.02184 -0.85352,-0.92789 -0.67636,0.1323 0.19637,1.17518 0.65768,2.3151 0.9369,2.3151 0.12688,0 0.3599,-0.26789 0.51781,-0.59531 z m 2.70417,-0.99219 c 0,-1.23472 -0.0882,-1.5875 -0.39688,-1.5875 -0.30316,0 -0.39687,0.33318 -0.39687,1.41111 0,0.77611 0.0794,1.49049 0.17639,1.5875 0.44648,0.44649 0.61736,0.0559 0.61736,-1.41111 z m 2.3097,0.99219 c -0.0636,-0.1819 -0.30463,-0.29736 -0.53561,-0.25657 -0.31887,0.0563 -0.43964,-0.1935 -0.50172,-1.03777 -0.12897,-1.75429 -0.7432,-1.63213 -0.7432,0.14781 v 1.47726 h 0.94809 c 0.64376,0 0.91097,-0.10616 0.83244,-0.33073 z m 3.64342,-2.84427 c 0.0899,-0.14552 0.0374,-0.26459 -0.11667,-0.26459 -0.15411,0 -0.2802,0.11907 -0.2802,0.26459 0,0.14552 0.0525,0.26458 0.11668,0.26458 0.0642,0 0.19026,-0.11906 0.28019,-0.26458 z m 2.73979,-2.35716 c 0.60317,-0.85988 1.09667,-1.67087 1.09667,-1.8022 0,-0.13133 0.20836,-0.46959 0.46302,-0.75169 0.25467,-0.2821 0.78513,-0.98916 1.17882,-1.57124 0.39368,-0.58209 1.19735,-1.74005 1.78594,-2.57325 0.58857,-0.8332 1.07014,-1.62229 1.07014,-1.75354 0,-0.13125 0.17859,-0.38685 0.39687,-0.56801 0.21829,-0.18115 0.39688,-0.49521 0.39688,-0.6979 0,-0.3737 -2.56961,-4.0646 -2.82978,-4.0646 -0.15543,0 0.40452,0.89573 1.55476,2.4871 0.83594,1.15652 0.93374,1.69075 0.3505,1.91456 -0.21745,0.0834 -0.33477,0.24975 -0.26071,0.36957 0.074,0.11982 -0.20662,0.73242 -0.62371,1.36134 -0.4171,0.62891 -1.33255,2.03644 -2.03434,3.12785 -0.70179,1.09141 -1.85055,2.85632 -2.55281,3.92203 -0.70226,1.0657 -1.27683,1.98844 -1.27683,2.05052 0,0.29954 0.27399,-0.01 1.28458,-1.45054 z m -34.48979,0.1082 c 0,-0.68633 -0.10742,-0.80546 -0.79375,-0.88026 -1.21668,-0.13259 -1.46096,-0.57495 -0.3175,-0.57495 0.6938,0 0.97896,-0.11561 0.97896,-0.39687 0,-0.29439 -0.3096,-0.39688 -1.19893,-0.39688 -1.36596,0 -1.70265,0.41886 -1.20849,1.50343 0.25941,0.56934 0.4318,0.65117 1.09312,0.51891 0.44098,-0.0882 0.78513,-0.0439 0.78513,0.10094 0,0.14188 -0.35016,0.25797 -0.77813,0.25797 -0.78862,0 -1.20952,0.3054 -0.87792,0.637 0.0999,0.0999 0.66222,0.14628 1.24958,0.10305 0.99274,-0.0731 1.06793,-0.13448 1.06793,-0.87234 z m 4.24779,0.30119 c 0.0862,-0.34366 0.11829,-1.02827 0.0712,-1.52135 l -0.0856,-0.89651 h -1.45521 -1.45521 l -0.0828,1.15475 c -0.1233,1.71886 0.0133,1.88796 1.5247,1.88796 1.17321,0 1.34427,-0.0721 1.48301,-0.62485 z m -2.26341,-0.96265 c 0,-0.70556 0.0882,-0.79375 0.79375,-0.79375 0.70555,0 0.79375,0.0882 0.79375,0.79375 0,0.70556 -0.0882,0.79375 -0.79375,0.79375 -0.70556,0 -0.79375,-0.0882 -0.79375,-0.79375 z m 6.03315,0.33739 c 0.0614,-0.82557 0.20671,-1.10981 0.62319,-1.21872 0.29874,-0.0781 0.49268,-0.29347 0.43099,-0.47854 -0.10765,-0.32296 -2.73756,-0.43226 -3.04334,-0.12648 -0.24697,0.24697 0.22537,0.6926 0.73412,0.6926 0.43365,0 0.51355,0.18868 0.51355,1.21267 0,1.54608 0.62563,1.47729 0.74149,-0.0815 z m 10.10643,0.0903 c 0,-0.93725 0.10153,-1.18631 0.52917,-1.29814 1.08056,-0.28258 0.51944,-0.71709 -0.92604,-0.71709 -1.11713,0 -1.45521,0.0922 -1.45521,0.39688 0,0.21921 0.23462,0.39687 0.52412,0.39687 0.48472,0 0.91264,0.80377 0.78383,1.47227 -0.0985,0.51124 0.0238,0.90898 0.27955,0.90898 0.14552,0 0.26458,-0.5219 0.26458,-1.15977 z m -7.67292,0.36602 c 0,-0.38806 0.17639,-0.52917 0.66146,-0.52917 0.49389,0 0.66146,0.13965 0.66146,0.55122 0,0.30317 0.12799,0.50855 0.28443,0.4564 0.15643,-0.0521 0.2755,-0.18112 0.26458,-0.28663 -0.0109,-0.1055 -0.0198,-0.78713 -0.0198,-1.51474 0,-0.99953 -0.097,-1.32291 -0.39688,-1.32291 -0.24694,0 -0.39687,0.24988 -0.39687,0.66146 0,0.83767 -0.97706,0.94527 -1.10608,0.12181 -0.17005,-1.0854 -0.61588,-0.48492 -0.69306,0.93348 -0.0639,1.17483 2.6e-4,1.45825 0.33073,1.45825 0.23369,0 0.41007,-0.22762 0.41007,-0.52917 z m 3.43959,0.26458 c 0,-0.36221 0.69191,-0.33266 1.31447,0.0561 0.82642,0.51611 0.8692,0.11046 0.15796,-1.49777 -0.7201,-1.62827 -1.03691,-1.69005 -1.60002,-0.31199 -0.67636,1.65516 -0.72801,2.01822 -0.28712,2.01822 0.22809,0 0.41471,-0.11907 0.41471,-0.26459 z m 9.525,-0.89518 c 0,-0.97755 0.0928,-1.18404 0.59075,-1.31425 1.03407,-0.27042 0.12402,-0.7402 -1.26076,-0.65084 -1.32433,0.0855 -1.9314,0.63842 -0.86659,0.78935 0.51248,0.0726 0.62362,0.26717 0.69192,1.21103 0.0554,0.76563 0.20315,1.12448 0.46302,1.12448 0.27444,0 0.38166,-0.3258 0.38166,-1.15977 z m 2.64583,0.49831 c 0,-0.48507 0.14111,-0.66146 0.52917,-0.66146 0.39207,0 0.52917,0.17639 0.52917,0.68086 0,0.50605 0.11887,0.65794 0.46302,0.5916 0.35836,-0.0691 0.45274,-0.32764 0.41753,-1.14388 -0.025,-0.58004 -0.0548,-1.31878 -0.0661,-1.64163 -0.0263,-0.74715 -0.74836,-0.53187 -0.86509,0.25793 -0.1209,0.81802 -0.70215,0.86804 -0.99948,0.086 -0.44508,-1.17064 -0.80193,-0.76813 -0.80193,0.90454 0,1.23472 0.0882,1.5875 0.39688,1.5875 0.24694,0 0.39687,-0.24989 0.39687,-0.66146 z m 5.75594,0.19844 c 0.0753,-0.22838 -0.22534,-0.33073 -0.97139,-0.33073 -1.11691,0 -1.42778,-0.33217 -0.61736,-0.65965 0.40324,-0.16295 0.37762,-0.22397 -0.19844,-0.47266 -0.64041,-0.27647 -0.62786,-0.29036 0.39432,-0.43652 0.69443,-0.0993 1.08439,-0.3015 1.13941,-0.59081 0.0704,-0.37048 -0.096,-0.4192 -1.05577,-0.30895 -0.62668,0.072 -1.28824,0.1769 -1.47015,0.23311 -0.35503,0.10971 -0.47547,2.5317 -0.14245,2.86472 0.3145,0.3145 2.80362,0.0602 2.92183,-0.29851 z m 0.0649,-0.8599 c 0,-0.14552 -0.18563,-0.26458 -0.41249,-0.26458 -0.22687,0 -0.33891,0.11906 -0.24897,0.26458 0.0899,0.14552 0.27556,0.26458 0.41249,0.26458 0.13693,0 0.24897,-0.11906 0.24897,-0.26458 z m -33.07292,-2.91042 c 0,-0.14552 -0.12609,-0.26458 -0.2802,-0.26458 -0.15411,0 -0.20661,0.11906 -0.11668,0.26458 0.0899,0.14552 0.21603,0.26459 0.2802,0.26459 0.0642,0 0.11668,-0.11907 0.11668,-0.26459 z m -1.20563,-1.38179 c 0.2639,-0.37677 0.41188,-1.17002 0.41188,-2.20795 0,-2.07444 -0.5021,-2.62249 -2.31511,-2.52702 -0.45025,0.0237 -0.59531,0.19253 -0.59531,0.69281 0,0.55856 0.12347,0.66145 0.79375,0.66145 0.85834,0 0.94311,0.24539 0.62839,1.81901 -0.15516,0.7758 -0.23726,0.82683 -1.33019,0.82683 h -1.16481 l 0.0734,-3.77032 0.0734,-3.77031 1.12448,-0.0814 c 1.09547,-0.0793 1.12448,-0.0605 1.12448,0.72761 0,0.6865 0.10013,0.80896 0.66146,0.80896 0.58208,0 0.66145,-0.11339 0.66145,-0.94494 0,-1.41247 -0.53909,-1.78763 -2.55782,-1.78 -2.55137,0.01 -2.59791,0.0923 -2.61867,4.65264 -0.0111,2.43951 0.10035,4.06296 0.31723,4.62074 l 0.33435,0.85989 h 1.98287 c 1.74911,0 2.03143,-0.0693 2.39475,-0.58804 z m 3.05771,-1.67768 v -2.26572 l 0.85169,0.0829 c 0.82746,0.0805 0.86416,0.13805 1.29024,2.02138 0.24121,1.06617 0.56432,2.06424 0.71803,2.21795 0.35924,0.35924 1.2031,0.0438 1.03878,-0.38834 -0.0687,-0.18067 -0.27622,-1.17769 -0.46114,-2.21559 -0.29787,-1.67189 -0.28676,-1.95771 0.0975,-2.50627 0.58066,-0.82902 0.58453,-3.46482 0.006,-4.3472 -0.40127,-0.6124 -0.57103,-0.65215 -2.78551,-0.65215 h -2.35821 l 0.11788,2.4474 c 0.0648,1.34607 0.12768,3.66779 0.13967,5.15937 0.0218,2.71058 0.0221,2.71198 0.68326,2.71198 0.65406,0 0.66146,-0.0253 0.66146,-2.26572 z m -0.0417,-5.27526 -0.0906,-1.45557 1.23013,2.6e-4 1.23013,2.7e-4 0.11416,1.25677 c 0.0628,0.69122 0.0677,1.34607 0.011,1.45521 -0.0567,0.10914 -0.62087,0.19843 -1.25366,0.19843 h -1.15052 l -0.0906,-1.45556 z m 10.36041,6.5955 c 0,-0.61379 -0.0756,-0.64202 -1.71979,-0.64202 h -1.71979 v -1.4552 c 0,-1.42149 0.0174,-1.45521 0.74965,-1.45521 0.94174,0 1.05687,-0.11907 0.90142,-0.93226 -0.0972,-0.50863 -0.28856,-0.65524 -0.85509,-0.65524 -0.78583,0 -1.04162,-0.59611 -0.96505,-2.24896 0.036,-0.77682 0.0678,-0.79448 1.49198,-0.82798 2.12796,-0.0501 2.11662,-0.0463 2.11726,-0.69338 5.3e-4,-0.58143 -0.0578,-0.59335 -2.50685,-0.51116 l -2.50745,0.0841 0.0414,4.81065 c 0.0228,2.64585 0.12824,4.92971 0.23439,5.07523 0.1116,0.153 1.15132,0.22849 2.46545,0.179 2.20572,-0.0831 2.27247,-0.10445 2.27247,-0.72761 z m 2.60184,-2.92224 -0.1053,-3.60314 1.7283,3.537 c 0.95055,1.94534 1.88742,3.53699 2.08192,3.53699 0.28353,0 0.34694,-0.96561 0.31991,-4.87141 -0.0186,-2.67927 -0.0954,-4.97123 -0.17081,-5.09323 -0.0754,-0.122 -0.37296,-0.22182 -0.66125,-0.22182 -0.49195,0 -0.52164,0.17153 -0.48327,2.79195 0.0225,1.53557 -0.013,2.84585 -0.0789,2.91173 -0.0659,0.0659 -0.63375,-1.1012 -1.26192,-2.59351 -0.62818,-1.49231 -1.21298,-2.79343 -1.29956,-2.89138 -0.0866,-0.0979 -0.48484,-0.11383 -0.88502,-0.0353 l -0.72761,0.14278 0.002,2.81343 c 8e-4,1.54738 0.078,3.79569 0.17151,4.99624 0.16335,2.09839 0.19517,2.18281 0.82281,2.18281 h 0.65289 l -0.10529,-3.60314 z m 6.60566,3.28564 c 0.17463,-0.17462 0.3175,-0.53181 0.3175,-0.79375 0,-0.38679 0.21971,-0.47625 1.1696,-0.47625 1.08443,0 1.1823,0.0578 1.34394,0.79375 0.13515,0.61532 0.31831,0.79375 0.81478,0.79375 0.35223,0 0.64043,-0.11018 0.64043,-0.24485 0,-0.13467 -0.47625,-2.21259 -1.05833,-4.61761 -0.58208,-2.40502 -1.05833,-4.61656 -1.05833,-4.91453 0,-0.75569 -0.99367,-0.71568 -1.32985,0.0536 -0.22123,0.50623 -2.37432,9.20242 -2.37432,9.58973 0,0.27059 1.22718,0.12362 1.53458,-0.18379 z m 0.66479,-2.95596 c 0.0766,-0.19968 0.22359,-0.94382 0.3266,-1.65365 0.27446,-1.89128 0.44293,-1.96375 0.81902,-0.35228 0.51466,2.20524 0.48267,2.36897 -0.46288,2.36897 -0.58798,0 -0.78239,-0.10337 -0.68274,-0.36304 z m 9.55295,2.84828 c 0.35782,-0.13731 0.41851,-0.78286 0.41851,-4.4518 0,-4.16826 -0.0179,-4.30801 -0.62491,-4.87827 -0.55452,-0.52094 -0.86002,-0.5783 -2.71198,-0.50914 l -2.08707,0.0779 0.0216,0.79375 c 0.0119,0.43656 0.0417,2.66899 0.0661,4.96094 l 0.0446,4.16719 h 2.22731 c 1.22503,0 2.41565,-0.0723 2.64584,-0.1606 z m -3.3614,-1.06167 c -0.10386,-0.10387 -0.18884,-1.83587 -0.18884,-3.84891 v -3.66007 h 1.18559 c 1.47707,0 1.50764,0.095 1.40458,4.36562 l -0.0766,3.175 -1.06793,0.0786 c -0.58736,0.0432 -1.15291,-0.006 -1.25677,-0.11024 z m 9.73045,0.446 c -0.002,-0.62042 -0.063,-0.64152 -1.65365,-0.5766 l -1.65105,0.0674 v -1.47392 c 0,-1.46131 0.007,-1.47393 0.79375,-1.47393 0.67027,0 0.79375,-0.10289 0.79375,-0.66145 0,-0.57957 -0.11466,-0.66146 -0.92605,-0.66146 h -0.92604 v -1.69462 -1.69461 l 1.04236,0.13981 c 1.46827,0.19693 2.39723,-0.0838 2.39723,-0.72437 0,-0.48423 -0.18415,-0.52413 -2.41876,-0.52413 h -2.41875 l 0.16514,3.9026 c 0.0908,2.14644 0.16723,4.41326 0.1698,5.03739 l 0.005,1.13478 2.31511,-0.0764 c 2.25618,-0.0745 2.31503,-0.0928 2.31251,-0.72042 z m 1.4578,-4.10291 c 0,-0.27926 -0.50777,-0.39659 -0.6588,-0.15222 -0.0914,0.14789 0.0194,0.2689 0.24631,0.2689 0.22687,0 0.41249,-0.0525 0.41249,-0.11668 z m -47.25619,-2.54797 c 0.27561,-0.46928 0.37689,-0.77647 0.22507,-0.68264 -0.15182,0.0938 -0.53513,0.60973 -0.85181,1.14645 -0.31667,0.53673 -0.41795,0.84392 -0.22507,0.68265 0.19289,-0.16127 0.5762,-0.67717 0.85181,-1.14646 z m 7.12232,-10.762957 c 5.94452,-8.977293 5.82954,-8.797395 5.62315,-8.797395 -0.14317,0 -5.00414,7.183045 -8.82841,13.045742 -2.19778,3.36926 -2.50675,3.88759 -2.31728,3.88759 0.0743,0 2.55947,-3.66117 5.52254,-8.135937 z m 15.45596,7.446917 c -0.0879,-0.0879 -0.31613,-0.0973 -0.50712,-0.0209 -0.21107,0.0845 -0.14837,0.14716 0.15985,0.15986 0.27892,0.0115 0.43519,-0.0511 0.34727,-0.13897 z m -11.7023,-3.6766 v -2.11667 l -1.52136,-0.0794 -1.52135,-0.0793 v 2.27537 2.27536 l 1.52135,-0.0794 1.52136,-0.0794 z m -1.78594,1.27282 c -0.79548,-0.20788 -0.54324,-0.87595 0.33073,-0.87595 0.61736,0 0.79375,0.11759 0.79375,0.52917 0,0.52107 -0.20987,0.58579 -1.12448,0.34678 z m -0.41647,-2.11291 c 0.0603,-0.31299 0.32439,-0.48283 0.75082,-0.48283 0.94146,0 0.86001,0.7706 -0.093,0.87971 -0.60711,0.0695 -0.73303,-0.006 -0.65784,-0.39688 z m 4.14058,2.22915 c -0.0759,-0.75841 -0.01,-0.8599 0.55855,-0.8599 0.50519,0 0.69284,0.18602 0.86746,0.8599 0.13299,0.51324 0.39133,0.85989 0.64081,0.85989 0.33093,0 0.3739,-0.15156 0.20631,-0.7276 -0.11643,-0.40018 -0.21863,-1.38245 -0.22712,-2.18281 l -0.0154,-1.45521 -1.49354,-0.0785 -1.49353,-0.0785 0.0383,2.26109 c 0.0339,1.9985 0.0944,2.26112 0.52128,2.26133 0.38619,2e-4 0.46571,-0.17206 0.39688,-0.85965 z m -0.10034,-2.07358 c -0.0978,-0.1582 -0.0579,-0.40749 0.0886,-0.55398 0.39072,-0.39071 1.22863,-0.15047 1.3311,0.38164 0.0652,0.33844 -0.0872,0.45998 -0.57666,0.45998 -0.36588,0 -0.74524,-0.12944 -0.84301,-0.28764 z m 6.44723,2.33816 c 0.0735,-0.38632 -0.11233,-0.46302 -1.12191,-0.46302 -0.89919,0 -1.21003,-0.10195 -1.21003,-0.39687 0,-0.22049 0.23519,-0.39688 0.52917,-0.39688 0.29398,0 0.52916,-0.17639 0.52916,-0.39687 0,-0.22049 -0.23518,-0.39688 -0.52916,-0.39688 -0.35278,0 -0.52917,-0.17639 -0.52917,-0.52917 0,-0.45077 0.17639,-0.52916 1.19063,-0.52916 0.88194,0 1.19062,-0.1029 1.19062,-0.39688 0,-0.30868 -0.35278,-0.39687 -1.5875,-0.39687 h -1.5875 v 2.26216 2.26216 l 1.51878,-0.0794 c 1.19806,-0.0626 1.53739,-0.17713 1.60691,-0.54237 z m 1.7691,0.0662 c 0.61754,-0.68237 1.1242,-0.66982 1.70068,0.0421 0.74692,0.9224 1.16206,0.37415 0.59373,-0.78411 -0.26388,-0.53778 -0.63924,-1.4838 -0.83413,-2.10226 -0.66548,-2.11182 -1.32028,-1.32263 -2.30505,2.77812 -0.17708,0.73739 0.20988,0.76769 0.84477,0.0662 z m 0.40093,-1.38907 c 0.005,-0.42901 0.51566,-1.22772 0.52106,-0.81539 0.002,0.17 0.0763,0.49743 0.16465,0.72761 0.10539,0.27463 0.0144,0.41851 -0.26458,0.41851 -0.23385,0 -0.42336,-0.14882 -0.42113,-0.33073 z m 3.52704,0.86541 c 0.20907,-1.04541 0.5039,-1.00967 1.04583,0.12678 0.4287,0.899 0.80953,1.15025 1.08005,0.71255 0.0726,-0.11743 -0.14417,-0.69962 -0.48165,-1.29377 l -0.6136,-1.08026 0.79482,-0.79482 c 0.47217,-0.47217 0.71519,-0.92367 0.59864,-1.11224 -0.13421,-0.21716 -0.56249,0.0421 -1.35588,0.82075 l -1.15972,1.13818 v -0.98113 c 0,-0.76488 -0.10396,-0.98113 -0.47167,-0.98113 -0.41753,0 -0.46118,0.22017 -0.38032,1.91823 0.0503,1.05502 0.1426,2.0746 0.20522,2.26572 0.17531,0.53502 0.56062,0.1494 0.73828,-0.73886 z m 6.78766,-0.94717 c 0,-1.6414 0.0244,-1.70417 0.66146,-1.70417 0.47281,0 0.66146,-0.14297 0.66146,-0.5013 0,-0.44382 -0.19722,-0.4977 -1.7198,-0.46991 -1.45933,0.0266 -1.71979,0.10255 -1.71979,0.50129 0,0.32486 0.20419,0.46992 0.66146,0.46992 0.63593,0 0.66146,0.0647 0.66146,1.67569 0,0.92163 0.0761,1.75183 0.16919,1.84489 0.40553,0.40553 0.62456,-0.23148 0.62456,-1.81641 z m 2.91042,0.80937 c 0,-0.81139 0.0819,-0.92604 0.66145,-0.92604 0.57957,0 0.66146,0.11465 0.66146,0.92604 0,0.64676 0.11969,0.92604 0.39688,0.92604 0.32165,0 0.39687,-0.42627 0.39687,-2.24896 0,-1.7786 -0.0795,-2.24896 -0.38011,-2.24896 -0.23545,0 -0.41166,0.32726 -0.46302,0.8599 -0.0635,0.65906 -0.22195,0.87964 -0.67822,0.94444 -0.52389,0.0744 -0.59531,-0.0311 -0.59531,-0.87929 0,-0.77561 -0.0904,-0.94639 -0.46303,-0.87447 -0.39991,0.0772 -0.45634,0.37733 -0.41404,2.20221 0.0269,1.16206 0.0567,2.1426 0.0661,2.17898 0.009,0.0364 0.19577,0.0661 0.41405,0.0661 0.27718,0 0.39688,-0.27928 0.39688,-0.92604 z m 5.95312,0.39687 c 0,-0.29766 -0.24804,-0.37516 -0.99219,-0.31003 -0.84033,0.0735 -0.99218,0.007 -0.99218,-0.43472 0,-0.28685 0.17859,-0.59008 0.39687,-0.67384 0.56958,-0.21857 0.48894,-0.61228 -0.16017,-0.78203 -0.86278,-0.22562 -0.44005,-0.83262 0.64364,-0.9242 1.2964,-0.10956 1.35616,-0.84393 0.0687,-0.84393 -0.89265,0 -0.89962,-0.009 -0.60485,-0.79005 0.44368,-1.175422 -0.1243,-1.643565 -0.77997,-0.642879 -0.51566,0.786999 -0.82802,4.017789 -0.51069,5.282149 0.15831,0.63073 0.26163,0.67046 1.55024,0.59609 1.01542,-0.0586 1.38062,-0.18466 1.38062,-0.47656 z m 2.85662,-1.42929 c -0.26145,-0.34955 -0.52425,-0.58841 -0.58399,-0.53079 -0.10886,0.10498 0.76085,1.16633 0.95573,1.16633 0.057,0 -0.11028,-0.28599 -0.37174,-0.63554 z m -1.39352,-1.99555 c -0.15143,-0.28294 -0.40609,-0.59526 -0.56592,-0.69404 -0.15984,-0.0988 -0.086,0.13271 0.16414,0.51443 0.52959,0.80827 0.80383,0.93086 0.40178,0.17961 z m -28.31831,-1.61786 c 0,-0.136928 -0.11906,-0.248963 -0.26458,-0.248963 -0.14552,0 -0.26459,0.185623 -0.26459,0.412493 0,0.22687 0.11907,0.3389 0.26459,0.24897 0.14552,-0.0899 0.26458,-0.27556 0.26458,-0.4125 z m 0.79375,0.0156 c 0,-0.14552 -0.11906,-0.264583 -0.26458,-0.264583 -0.14552,0 -0.26459,0.119063 -0.26459,0.264583 0,0.14552 0.11907,0.26458 0.26459,0.26458 0.14552,0 0.26458,-0.11906 0.26458,-0.26458 z m -1.05833,-2.362848 c 0,-1.37523 0.0667,-1.579543 0.53964,-1.653645 1.15013,-0.180192 0.44186,-0.613715 -1.00266,-0.613715 -1.17593,0 -1.52136,0.09011 -1.52136,0.396875 0,0.259713 0.20575,0.368266 0.59532,0.314098 0.561,-0.07801 0.59531,0.0097 0.59531,1.521354 0,1.249505 0.0877,1.604132 0.39687,1.604132 0.30817,0 0.39688,-0.350735 0.39688,-1.569099 z m 2.38125,0.621009 c 0,-1.082048 0.60289,-1.154009 0.75001,-0.08952 0.11619,0.840727 0.49188,1.224463 0.84909,0.867257 0.37496,-0.374965 0.02,-3.852437 -0.37985,-3.721391 -0.16127,0.05285 -0.33088,0.414332 -0.37693,0.803293 -0.11841,1.000265 -0.84232,0.925883 -0.84232,-0.08655 0,-0.529167 -0.13229,-0.79375 -0.39688,-0.79375 -0.31406,0 -0.39687,0.377277 -0.39687,1.807985 0,0.994394 0.0794,1.887363 0.17639,1.984375 0.39783,0.39783 0.61736,0.123415 0.61736,-0.771699 z m 3.2971,0.135687 c 0.0137,-0.865275 0.51781,-0.96387 0.62308,-0.121865 0.0529,0.423021 0.25049,0.669684 0.5365,0.669684 0.38325,0 0.45165,-0.273817 0.44544,-1.78326 -0.007,-1.770001 -0.0132,-1.78436 -0.80108,-1.93137 -1.55027,-0.289277 -1.71979,-0.106991 -1.71979,1.849307 0,0.977421 0.0819,1.858984 0.1819,1.959031 0.3396,0.339603 0.72372,0.0039 0.73395,-0.641527 z m 0.0598,-1.739723 c -0.34504,-0.345043 -0.18031,-0.622874 0.36931,-0.622874 0.30791,0 0.50499,0.138686 0.44649,0.314192 -0.12888,0.386647 -0.57067,0.55381 -0.8158,0.308682 z m 4.71289,0.435459 v -1.719792 l -1.0314,-0.08445 c -1.1925,-0.09765 -1.47384,0.196131 -1.47448,1.539664 -7.9e-4,1.851633 0.20551,2.152517 1.4158,2.064054 l 1.09008,-0.07968 z m -1.53789,1.152041 c -0.10004,-0.100047 -0.1819,-0.638307 -0.1819,-1.196139 0,-0.847294 0.0896,-1.014235 0.54438,-1.014235 0.47547,0 0.53408,0.139745 0.46302,1.103915 -0.077,1.044877 -0.42314,1.508816 -0.8255,1.106459 z m 4.18766,-0.02756 0.1936,-0.727604 0.25842,0.740833 c 0.39564,1.134219 0.82116,0.725858 1.32513,-1.271677 0.48626,-1.927366 0.46577,-2.140037 -0.18217,-1.891396 -0.2631,0.100957 -0.40829,0.494502 -0.40829,1.106634 0,1.101008 -0.40829,1.013052 -0.66213,-0.142637 -0.23482,-1.069129 -0.5548,-0.994845 -0.86786,0.201472 l -0.25964,0.992188 -0.20114,-0.882637 c -0.17796,-0.780923 -0.7507,-1.358886 -1.05,-1.059585 -0.0591,0.05914 0.13659,0.907285 0.43496,1.88477 0.5737,1.879558 1.0956,2.265569 1.41912,1.049639 z m 6.20472,0.21535 c 0.16837,-0.3146 0.19659,-1.054751 0.0732,-1.918229 -0.18383,-1.285904 -0.26431,-1.413257 -0.9423,-1.491239 -0.40771,-0.0469 -0.91269,0.05698 -1.12217,0.230835 -0.4461,0.370221 -0.51497,2.4168 -0.10699,3.179114 0.36964,0.690677 1.72858,0.690364 2.09831,-5.29e-4 z m -1.40206,-0.457885 c -0.26754,-0.267539 -0.21088,-2.152312 0.0699,-2.325852 0.34696,-0.214434 0.55621,0.214051 0.70423,1.442101 0.0945,0.783791 0.0332,1.06014 -0.23498,1.06014 -0.19953,0 -0.44215,-0.07937 -0.53916,-0.176389 z m 3.21462,0.08984 c 0.11172,-0.943716 0.5394,-0.896141 0.88616,0.09857 0.26829,0.769604 0.99604,0.975294 0.77657,0.219488 -0.0581,-0.200091 -0.11764,-1.018646 -0.13229,-1.819011 l -0.0267,-1.455208 -1.12448,-0.08136 -1.12447,-0.08136 v 2.021638 c 0,1.498838 0.0855,1.993551 0.33072,1.913036 0.18191,-0.05973 0.36841,-0.426837 0.41445,-0.815798 z m 0.0739,-1.485265 c -0.39985,-0.247126 -0.21569,-1.074018 0.23921,-1.074018 0.38739,0 0.65244,0.776309 0.36365,1.065101 -0.13269,0.132689 -0.39628,0.136589 -0.60286,0.0089 z m 4.58197,0.976503 c -0.5492,-0.763984 -1.65328,-2.341563 -2.45351,-3.505729 -1.50652,-2.191658 -3.75376,-5.159375 -3.90683,-5.159375 -0.155,0 1.44099,2.419112 3.00746,4.558548 3.02909,4.137036 4.06967,5.495618 4.20927,5.495618 0.0782,0 -0.30719,-0.625078 -0.85639,-1.389062 z M 146.0791,93.535647 c 0,-0.14552 -0.11906,-0.264583 -0.26459,-0.264583 -0.14552,0 -0.26458,0.119063 -0.26458,0.264583 0,0.145521 0.11906,0.264584 0.26458,0.264584 0.14553,0 0.26459,-0.119063 0.26459,-0.264584 z m 3.5374,-0.859895 c 0.56336,-2.102174 -0.1444,-3.526516 -1.56468,-3.148859 -0.72715,0.193352 -0.7878,0.306721 -0.86327,1.613799 -0.1107,1.917272 0.0126,2.130372 1.23264,2.130372 0.85048,0 1.06432,-0.106499 1.19531,-0.595312 z m -1.54974,-0.507165 c -0.0711,-0.194002 -0.16047,-0.650002 -0.19858,-1.013334 -0.0539,-0.514388 0.0663,-0.680004 0.54323,-0.74826 0.55872,-0.07996 0.60519,-5.03e-4 0.52916,0.904733 -0.0832,0.990221 -0.62882,1.525285 -0.87381,0.856861 z m 3.08562,0.330724 c -0.0608,-0.416683 0.0754,-0.632502 0.46302,-0.733869 0.70242,-0.183685 0.70737,-0.619199 0.009,-0.801794 -0.78372,-0.204947 -0.47296,-0.735292 0.43085,-0.735292 0.50858,0 0.77059,-0.134942 0.77059,-0.396875 0,-0.293982 -0.30868,-0.396875 -1.19062,-0.396875 h -1.19063 l -0.006,1.719792 c -0.003,0.945885 0.0373,1.815373 0.0904,1.932195 0.20324,0.447482 0.70528,-0.02551 0.62335,-0.587282 z m 4.7047,-0.04368 c -0.23963,-0.447745 -0.20423,-0.618016 0.18912,-0.909683 0.46705,-0.346309 0.466,-0.372126 -0.0303,-0.7398 -0.4906,-0.363475 -0.47541,-0.38949 0.33073,-0.566548 1.24887,-0.274299 1.12961,-0.992789 -0.14725,-0.887111 l -0.99219,0.08212 -0.0782,1.785937 c -0.0726,1.657751 -0.0387,1.785938 0.47233,1.785938 0.4758,0 0.51053,-0.0748 0.25576,-0.550851 z m 2.92202,-1.301232 c 0,-1.469908 -0.0819,-1.852084 -0.39688,-1.852084 -0.31498,0 -0.39687,0.382176 -0.39687,1.852084 0,1.469907 0.0819,1.852083 0.39687,1.852083 0.31498,0 0.39688,-0.382176 0.39688,-1.852083 z m 1.5875,1.190624 c 0,-0.834337 0.72431,-0.891271 0.84149,-0.06615 0.0465,0.327422 0.26314,0.595312 0.48143,0.595312 0.29706,0 0.40215,-0.332702 0.41785,-1.322917 0.0338,-2.130796 -0.0366,-2.248958 -1.34001,-2.248958 h -1.15109 l -0.0879,1.85268 c -0.0769,1.621712 -0.0301,1.852605 0.37517,1.852083 0.31734,-4.09e-4 0.46302,-0.20871 0.46302,-0.662055 z m -0.13345,-1.72166 c -0.19968,-0.323098 0.5262,-0.642839 0.91453,-0.402837 0.15249,0.09424 0.27725,0.283388 0.27725,0.420321 0,0.333677 -0.98367,0.319247 -1.19178,-0.01748 z m 4.89595,1.986244 c 0,-0.264584 -0.26458,-0.396875 -0.79375,-0.396875 -0.52917,0 -0.79375,-0.132292 -0.79375,-0.396875 0,-0.218281 0.17859,-0.396875 0.39687,-0.396875 0.21828,0 0.39688,-0.122799 0.39688,-0.272887 0,-0.150088 -0.1786,-0.34142 -0.39688,-0.425183 -0.67241,-0.258031 -0.43943,-0.624847 0.39688,-0.624847 0.52917,0 0.79375,-0.132291 0.79375,-0.396875 0,-0.293981 -0.30868,-0.396875 -1.19063,-0.396875 h -1.19062 v 1.852084 1.852083 h 1.19062 c 0.88195,0 1.19063,-0.102894 1.19063,-0.396875 z m -18.84588,-2.662195 c -0.0887,-0.08869 -0.30387,0.116837 -0.47818,0.456722 -0.30298,0.590776 -0.29588,0.597873 0.16126,0.161252 0.26299,-0.251197 0.40561,-0.529285 0.31692,-0.617974 z m 18.65388,-1.901868 c -0.25784,-0.400182 -1.52445,-2.215885 -2.81472,-4.034895 -1.29025,-1.819011 -2.41282,-3.485886 -2.49457,-3.704167 -0.0818,-0.218281 -0.22291,-0.456406 -0.31366,-0.529167 -0.0908,-0.07276 -0.85412,-1.055026 -1.69637,-2.182812 -0.84226,-1.127786 -1.61971,-2.050521 -1.72768,-2.050521 -0.31395,0 -1.8735,2.29353 -1.8735,2.755233 0,0.230872 -0.10324,0.419767 -0.22942,0.419767 -0.12619,0 -0.54901,0.506016 -0.93961,1.124479 -0.70726,1.119866 -0.70742,1.121223 -0.0376,0.330729 0.36989,-0.436562 0.88201,-0.794836 1.13804,-0.796165 0.31818,-0.0016 0.46649,-0.210974 0.46865,-0.661458 0.003,-0.643725 1.1373,-2.633639 1.50483,-2.640143 0.10179,-0.0018 0.74982,0.800397 1.44007,1.782662 6.06755,8.63446 7.72306,10.914063 7.92608,10.914063 0.065,0 -0.0927,-0.327422 -0.35051,-0.727605 z m -12.04132,-0.804737 c 0.0753,-0.225838 -0.16592,-0.306191 -0.7738,-0.257782 -0.74771,0.05954 -0.89656,-0.02394 -0.97041,-0.544223 -0.15202,-1.071003 0.11202,-1.397471 0.89079,-1.101384 0.59121,0.224779 0.67783,0.195828 0.60255,-0.201397 -0.0615,-0.324589 -0.38524,-0.488576 -1.07791,-0.546031 l -0.98999,-0.08212 v 1.581423 c 0,1.016231 0.11631,1.620193 0.32544,1.689901 0.53303,0.177677 1.87551,-0.18492 1.99333,-0.538389 z m 1.38899,0.410364 c 0.42113,-0.263001 0.63586,-0.259357 1.08051,0.01833 0.30521,0.190608 0.61286,0.288634 0.68366,0.217835 0.23323,-0.233233 -1.03773,-3.347524 -1.36614,-3.347524 -0.17668,0 -0.507,0.565547 -0.73404,1.256771 -0.22704,0.691224 -0.49599,1.46513 -0.59767,1.719792 -0.21866,0.547699 0.18029,0.605295 0.93368,0.134793 z m 3.89025,0.163756 c 1.2294,-0.329585 0.94784,-1.952195 -0.33875,-1.952195 -0.33739,0 -0.68173,-0.110491 -0.76519,-0.245534 -0.15951,-0.258101 0.66988,-0.620235 1.12499,-0.491203 0.14604,0.0414 0.27992,-0.04378 0.29751,-0.189305 0.0453,-0.374456 -1.87061,-0.49654 -2.09499,-0.133497 -0.10197,0.164999 -0.13124,0.583354 -0.065,0.929679 0.0918,0.480335 0.31767,0.64885 0.95222,0.7105 1.02489,0.09957 1.09701,0.579476 0.10426,0.693705 -0.71225,0.08195 -0.90379,0.313359 -0.55122,0.665933 0.21519,0.215191 0.56628,0.218322 1.3362,0.01192 z m -9.01604,-2.084487 c 0.62984,-1.198235 -0.19746,-0.275185 -0.94855,1.058334 -0.57168,1.014989 -0.57301,1.031243 -0.0324,0.396875 0.31004,-0.363802 0.75146,-1.018646 0.98094,-1.455209 z m 12.46366,1.653646 c -0.061,-0.181901 -0.27932,-0.346761 -0.48507,-0.366355 -0.20575,-0.01959 -0.47797,-0.04936 -0.60493,-0.06615 -0.12696,-0.01678 -0.0795,-0.212835 0.10541,-0.435665 0.27802,-0.334996 0.24927,-0.470972 -0.16605,-0.785335 -0.47689,-0.360973 -0.46629,-0.380616 0.20971,-0.388605 0.3916,-0.0046 0.79199,-0.137852 0.88976,-0.296052 0.30054,-0.486273 -0.2684,-0.786011 -1.15526,-0.608639 -0.83325,0.16665 -0.84336,0.187305 -0.84336,1.723099 v 1.554427 h 1.08038 c 0.7471,0 1.04615,-0.102024 0.96941,-0.330729 z m -10.9053,-4.101041 c 0.56212,-0.836745 1.13227,-1.670183 1.267,-1.852084 0.13473,-0.181901 0.18132,-0.330729 0.10352,-0.330729 -0.0778,0 -0.60566,0.684609 -1.17302,1.521354 -1.26018,1.858487 -1.45682,2.182813 -1.32346,2.182813 0.0572,0 0.56384,-0.68461 1.12596,-1.521354 z m 4.04287,-1.815171 c -0.0452,-0.711526 -0.20122,-1.293684 -0.34674,-1.293684 -0.30128,0 -0.5115,2.097785 -0.2726,2.720346 0.30634,0.798304 0.70265,-0.114618 0.61934,-1.426662 z m 1.63764,0.822983 c 0,-0.363802 0.0989,-0.661458 0.21987,-0.661458 0.12093,0 0.37918,0.297656 0.57388,0.661458 0.62028,1.159018 1.05833,0.821358 1.05833,-0.815798 0,-1.063507 -0.0926,-1.446752 -0.33073,-1.368339 -0.1819,0.05991 -0.36843,0.364891 -0.41452,0.677745 -0.0817,0.554402 -0.099,0.551125 -0.68427,-0.129267 -0.80624,-0.937319 -1.21631,-0.603614 -1.21631,0.989816 0,0.985657 0.0977,1.307301 0.39687,1.307301 0.24695,0 0.39688,-0.249884 0.39688,-0.661458 z m -1.05834,-3.96875 c 0,-0.218281 -0.11906,-0.396875 -0.26458,-0.396875 -0.14552,0 -0.26458,0.178594 -0.26458,0.396875 0,0.218281 0.11906,0.396875 0.26458,0.396875 0.14552,0 0.26458,-0.178594 0.26458,-0.396875 z m 1.05834,-0.513552 c 0,-0.355214 -0.11991,-0.719948 -0.26645,-0.810519 -0.33489,-0.206972 -0.63496,0.529602 -0.43162,1.059488 0.24022,0.626012 0.69807,0.46272 0.69807,-0.248969 z"
       id="path1825" />
  </g>
</svg>
