<?xml version="1.0" encoding="UTF-8" standalone="no"?>
<!-- Created with Inkscape (http://www.inkscape.org/) -->

<svg
   width="119.28277mm"
   height="45.496311mm"
   viewBox="0 0 119.28274 45.496312"
   version="1.1"
   id="svg5"
   inkscape:version="1.1 (c4e8f9ed74, 2021-05-24)"
   sodipodi:docname="marketgardenerssay.svg"
   xmlns:inkscape="http://www.inkscape.org/namespaces/inkscape"
   xmlns:sodipodi="http://sodipodi.sourceforge.net/DTD/sodipodi-0.dtd"
   xmlns="http://www.w3.org/2000/svg"
   xmlns:svg="http://www.w3.org/2000/svg">
  <sodipodi:namedview
     id="namedview7"
     pagecolor="#ffffff"
     bordercolor="#666666"
     borderopacity="1.0"
     inkscape:pageshadow="2"
     inkscape:pageopacity="0.0"
     inkscape:pagecheckerboard="0"
     inkscape:document-units="mm"
     showgrid="false"
     inkscape:zoom="0.94615212"
     inkscape:cx="471.91143"
     inkscape:cy="140.04091"
     inkscape:window-width="2506"
     inkscape:window-height="1403"
     inkscape:window-x="1974"
     inkscape:window-y="0"
     inkscape:window-maximized="1"
     inkscape:current-layer="layer1" />
  <defs
     id="defs2" />
  <g
     inkscape:label="Layer 1"
     inkscape:groupmode="layer"
     id="layer1"
     transform="translate(212.41598,-166.99355)">
    <path
       style="fill:#000000;stroke-width:0.264583"
       d="m -133.17189,212.32701 c -0.0962,-0.0962 -9.9089,-0.27092 -21.80607,-0.38832 -11.89717,-0.1174 -24.36966,-0.3594 -27.71664,-0.53778 -3.34698,-0.17837 -10.78839,-0.33489 -16.53646,-0.34782 -5.74807,-0.0129 -10.86776,-0.11785 -11.37708,-0.23316 -1.94564,-0.4405 -1.91944,-0.42035 -1.71725,-1.32077 0.10297,-0.45857 0.26358,-2.80408 0.35692,-5.21225 0.13963,-3.60255 0.25544,-4.50913 0.65348,-5.1156 l 0.48378,-0.73711 -0.41763,-0.46148 c -0.47379,-0.52353 -0.53391,-0.81669 -0.16749,-0.81669 0.13758,0 0.4063,0.32742 0.59715,0.7276 0.25553,0.53579 0.57322,0.74946 1.20506,0.81052 0.47194,0.0456 0.85806,-0.0407 0.85806,-0.19183 0,-0.16107 -0.31264,-0.2122 -0.75567,-0.12359 -0.85715,0.17143 -1.33021,-0.48989 -0.804,-1.12394 0.49078,-0.59136 1.07934,-0.42305 2.13897,0.61165 1.04985,1.02516 1.75293,1.03896 0.82243,0.0161 -0.29734,-0.32685 -0.50518,-0.74607 -0.46186,-0.93161 0.0433,-0.18554 0.018,-0.21458 -0.0563,-0.0645 -0.0846,0.17103 -0.42274,0.10286 -0.9062,-0.18273 -0.60283,-0.35609 -0.77116,-0.64521 -0.77116,-1.32452 0,-0.74018 -0.0939,-0.86899 -0.63315,-0.86899 -0.69629,0 -0.95435,0.43511 -0.95435,1.60914 0,0.50993 -0.13476,0.77211 -0.39687,0.77211 -0.50625,0 -0.50799,-0.80941 -0.004,-2.01485 l 0.39256,-0.93951 0.79807,0.17528 c 0.43894,0.0964 0.79807,0.0714 0.79807,-0.0556 0,-0.12699 -0.30451,-1.28126 -0.67669,-2.56504 -0.8874,-3.06094 -0.92647,-4.18973 -0.17281,-4.99197 l 0.58503,-0.62274 -0.9261,-0.44163 c -0.50935,-0.24289 -0.9261,-0.62214 -0.9261,-0.84278 0,-0.54467 0.15791,-0.50945 1.16711,0.2603 0.89492,0.6826 1.85372,0.86039 2.14019,0.39688 0.0947,-0.15323 -0.16041,-0.26458 -0.60615,-0.26458 -0.93831,0 -2.96902,-1.40916 -2.95737,-2.05218 0.007,-0.37061 0.132,-0.32095 0.63688,0.25242 0.61341,0.69662 2.22966,1.53517 2.95895,1.53517 0.62273,0 0.39949,-0.52818 -0.23075,-0.54593 l -0.59531,-0.0168 0.59531,-0.23928 c 0.8235,-0.33101 0.74422,-0.71076 -0.19129,-0.91623 -1.04705,-0.22997 -2.07892,-1.50565 -2.3185,-2.86631 l -0.19439,-1.10401 -0.14772,1.19063 -0.14771,1.19062 -0.32628,-0.66146 c -0.26367,-0.53453 -0.25324,-0.88992 0.0544,-1.85208 0.33786,-1.05677 0.40195,-1.1224 0.57012,-0.58375 l 0.18947,0.60687 0.6248,-0.91947 c 0.35789,-0.52668 1.02984,-1.06594 1.57296,-1.26233 0.97847,-0.35382 1.03622,-0.57415 0.50907,-1.94236 l -0.20388,-0.52917 0.47915,0.45104 c 0.42773,0.40263 0.50128,1.19665 0.68535,7.39877 0.1885,6.35109 0.0672,9.3978 -0.45728,11.48757 -0.13254,0.52806 -0.0874,0.6776 0.17771,0.58921 0.98458,-0.32819 1.20396,-3.8868 0.87105,-14.12935 l -0.17122,-5.26807 -1.04972,-0.97954 -1.04972,-0.97954 0.75792,-0.16161 c 0.41686,-0.0889 1.56729,-0.44667 2.55652,-0.79507 l 1.79859,-0.63345 0.14039,0.45169 c 0.58397,1.87876 4.03776,7.42751 4.76627,7.65732 0.32275,0.10181 3.27011,-5.42284 3.27011,-6.12964 0,-0.23194 -0.14432,-0.65281 -0.32071,-0.93526 -0.47361,-0.75838 -0.16555,-0.86999 1.53403,-0.55581 0.84134,0.15553 2.117,0.28278 2.83481,0.28278 h 1.30512 l -0.95683,1.0591 -0.95683,1.05909 0.0264,8.00289 c 0.0254,7.7191 0.12357,9.25821 0.58628,9.19548 0.11868,-0.0161 0.46043,0.28178 0.75946,0.66193 0.29902,0.38015 0.69898,0.63159 0.88878,0.55875 0.2468,-0.0947 0.33193,0.12309 0.29887,0.76457 l -0.0462,0.897 -0.92604,-0.87144 c -0.50933,-0.4793 -1.31081,-1.1348 -1.78109,-1.45667 -0.47027,-0.32188 -0.82746,-0.70715 -0.79375,-0.85615 0.0819,-0.36212 -3.68153,-2.42202 -6.15641,-3.36966 -2.51048,-0.96127 -3.43959,-1.18411 -3.43959,-0.82496 0,0.30982 0.0379,0.32592 2.20244,0.935 2.22873,0.62714 1.73092,0.69448 -0.74838,0.10124 -2.08319,-0.49847 -3.26423,-0.64481 -2.9899,-0.37048 0.0769,0.0769 0.66231,0.25188 1.30087,0.3888 l 1.16102,0.24895 -1.27979,-0.0943 c -1.87841,-0.13843 -1.16432,0.23149 1.38492,0.71742 1.222,0.23294 2.34026,0.54197 2.48502,0.68674 0.14477,0.14477 -0.37879,0.10267 -1.16347,-0.0935 -1.9193,-0.47994 -4.12162,-0.77024 -3.86408,-0.50935 0.11465,0.11613 0.47183,0.24942 0.79375,0.29621 0.32192,0.0468 1.24016,0.25754 2.04052,0.46834 1.50861,0.39735 1.26841,0.39195 -1.85208,-0.0416 -2.23097,-0.30995 -0.92977,0.13263 2.33334,0.79365 3.55678,0.72051 6.18149,1.80919 8.38228,3.47682 2.08521,1.58004 2.16253,1.62173 1.34058,0.72285 -0.98248,-1.07444 -3.91664,-2.85509 -6.04913,-3.67102 -1.06968,-0.40929 -1.31888,-0.56912 -0.71541,-0.45885 1.06605,0.1948 2.95131,1.10321 4.98984,2.40436 0.77988,0.49778 1.47907,0.84394 1.55376,0.76925 0.0747,-0.0747 -0.80152,-0.73635 -1.94713,-1.47037 -1.14561,-0.73401 -1.95985,-1.33459 -1.80942,-1.3346 0.57362,-8e-5 4.62129,2.85275 4.62129,3.25711 0,0.13598 -0.20836,0.089 -0.46302,-0.10438 -0.25467,-0.19338 -0.0527,0.0897 0.44877,0.62906 0.92646,0.99644 1.43646,1.34835 0.77425,0.53426 -0.31907,-0.39225 -0.30528,-0.42472 0.11364,-0.26762 0.28641,0.10741 0.41222,0.0744 0.31511,-0.0828 -0.0889,-0.14385 0.0212,-0.26155 0.24474,-0.26155 0.53724,0 1.31309,-1.2079 1.11217,-1.73149 -0.091,-0.23707 -0.0471,-0.34388 0.1032,-0.25102 0.14386,0.0889 0.26155,0.51181 0.26155,0.93979 0,0.42797 0.0893,0.77804 0.19844,0.77792 0.42465,-5.3e-4 0.17465,-2.35177 -0.30659,-2.88353 -0.61008,-0.67413 -0.4081,-1.2176 0.69716,-1.87593 1.16586,-0.69441 3.20379,-3.09182 2.82646,-3.32502 -0.15966,-0.0987 -0.23607,-0.46312 -0.16978,-0.80986 0.0994,-0.52024 0.0113,-0.63045 -0.50425,-0.63045 -0.70913,0 -0.78817,-0.42317 -0.21948,-1.17505 0.61192,-0.80903 0.48008,-1.9403 -0.31163,-2.67404 -0.38506,-0.35685 -0.56365,-0.64882 -0.39688,-0.64882 0.16677,0 0.54135,0.23812 0.83239,0.52916 0.64585,0.64586 0.70039,2.13855 0.11099,3.03808 l -0.41817,0.63821 1.10899,-0.0522 c 1.04922,-0.0494 1.29591,0.10402 1.74943,1.08794 0.0207,0.045 0.71551,-0.11524 1.54393,-0.35607 1.01104,-0.29392 2.30336,-0.41891 3.93104,-0.38021 2.96852,0.0706 3.79536,-10e-4 2.71738,-0.23673 -1.12151,-0.24477 -1.71595,-1.24153 -2.1972,-3.68432 l -0.42778,-2.17135 h -0.78807 -0.78806 l 0.1325,2.53323 0.13251,2.53323 -0.55948,-0.13159 c -0.30771,-0.0724 -1.47387,-0.2135 -2.59146,-0.31362 l -2.03199,-0.18203 0.0202,-0.70932 c 0.036,-1.26499 -0.5635,-2.63113 -1.19411,-2.72129 -0.33822,-0.0484 -0.61006,-0.30182 -0.65609,-0.61174 l -0.0786,-0.52917 0.28748,0.46303 c 0.39179,0.63103 0.79035,0.58283 0.79035,-0.0956 0,-0.502 -0.10034,-0.53979 -0.99017,-0.37285 -1.31012,0.24578 -1.2963,0.23248 -1.48805,1.43164 -0.0916,0.57259 -0.23299,1.21442 -0.3143,1.4263 -0.0918,0.23921 0.0519,0.43747 0.37918,0.52305 0.3842,0.10047 0.48744,0.28914 0.38098,0.69623 -0.19388,0.7414 0.35716,0.72237 0.59293,-0.0205 0.13465,-0.42425 0.0256,-0.70697 -0.40836,-1.05834 -0.38196,-0.30929 -0.45962,-0.47944 -0.21882,-0.47944 1.00946,0 1.42267,1.87627 0.51964,2.35955 -0.5315,0.28445 -1.09887,-0.0732 -1.09887,-0.69268 0,-0.83767 -0.45992,-0.22255 -0.78141,1.04511 -0.19376,0.76398 -0.39724,1.51089 -0.45218,1.65979 -0.0549,0.1489 0.25968,0.40645 0.69914,0.57233 0.63535,0.23981 0.79677,0.45536 0.78795,1.05218 l -0.0111,0.75059 -0.47865,-0.89842 c -0.29159,-0.54731 -0.55054,-0.7821 -0.66261,-0.60078 -0.10117,0.1637 -0.0539,0.54069 0.1051,0.83774 0.31099,0.58108 0.12487,1.16674 -0.28942,0.91069 -0.13907,-0.0859 -0.22106,-0.0581 -0.18221,0.0618 0.0389,0.11996 -0.14014,0.51576 -0.39778,0.87957 -0.39134,0.55261 -0.50892,0.59651 -0.71453,0.26679 -0.42879,-0.68762 -0.9296,0.15994 -0.9296,1.57325 0,0.70644 -0.0875,1.14697 -0.19438,0.97896 -0.3151,-0.49515 -0.22759,-1.8386 0.16931,-2.59934 0.33011,-0.63271 0.31521,-0.76362 -0.1429,-1.25534 l -0.51144,-0.54897 0.55317,-0.74821 c 0.30425,-0.41151 0.715,-1.21582 0.91279,-1.78736 l 0.35962,-1.03916 -0.51883,-0.84422 -0.51883,-0.84422 0.54106,-0.28957 c 0.74456,-0.39847 0.68174,-0.84551 -0.0915,-0.65142 -0.67889,0.17039 -1.01664,-0.15359 -1.10876,-1.06354 -0.0387,-0.38267 0.28458,-0.74973 1.10791,-1.25779 1.10562,-0.68225 1.61076,-0.64533 0.76574,0.056 -0.21828,0.18116 -0.39688,0.49803 -0.39688,0.70416 0,0.28684 0.1118,0.26372 0.47642,-0.0985 1.06311,-1.05623 1.37502,-1.85942 1.20468,-3.1022 -0.25946,-1.89291 -0.79722,-2.04244 -0.74218,-0.20637 0.0325,1.08537 0.0138,1.18073 -0.0665,0.33779 -0.0789,-0.82913 -0.35032,-1.44619 -0.92287,-2.0983 l -0.81108,-0.92376 0.62914,-0.23274 c 0.64124,-0.23721 1.16318,0.1691 1.98725,1.54698 0.38351,0.64124 0.6142,0.40861 0.91283,-0.92047 0.15343,-0.68289 0.14146,-1.32375 -0.0333,-1.78348 -0.35606,-0.93652 -0.045,-1.21728 1.23268,-1.11247 l 1.02641,0.0842 0.28442,1.5875 c 0.15643,0.87313 0.43479,1.86658 0.61858,2.20768 l 0.33416,0.62019 0.64607,-0.60696 c 0.41277,-0.38777 0.9717,-0.60695 1.54779,-0.60695 0.49595,0 0.84285,-0.0952 0.7709,-0.21167 -0.20258,-0.32778 -1.08011,-0.25127 -2.1249,0.18527 -0.78023,0.326 -0.89498,0.33065 -0.64215,0.026 0.16931,-0.20401 0.84228,-0.52872 1.49548,-0.72159 1.4074,-0.41556 1.4431,-0.86363 0.13884,-1.74257 l -0.89719,-0.60462 h 1.33847 c 0.73616,0 2.09322,0.23659 3.01569,0.52576 0.92247,0.28916 1.86482,0.52729 2.09412,0.52916 0.22929,0.002 0.69567,0.30016 1.0364,0.66284 0.75982,0.8088 1.04629,3.15144 0.50518,4.13128 -0.19234,0.34829 -0.32532,0.75679 -0.29551,0.90778 0.0298,0.15099 -0.19679,0.29343 -0.50356,0.31654 -0.79724,0.0601 -0.85156,0.18958 -0.51153,1.21989 0.24379,0.73867 0.71184,1.23175 1.16925,1.23175 0.0297,0 0.0402,-0.41887 0.0232,-0.93083 -0.0395,-1.18985 0.44901,-1.63753 1.34254,-1.23041 0.35949,0.1638 0.65362,0.19588 0.65362,0.0713 0,-0.38052 -0.61986,-0.76668 -1.45521,-0.90658 -0.50258,-0.0842 -0.36969,-0.11335 0.36226,-0.0796 l 1.15602,0.0534 -0.12899,-1.80275 c -0.0842,-1.17638 -0.28498,-1.97512 -0.57794,-2.29883 -0.59309,-0.65536 -0.15408,-0.9223 1.12405,-0.68346 1.35372,0.25295 1.66301,0.55975 1.36214,1.3511 -0.22694,0.59691 -0.10977,3.42864 0.17935,4.33448 0.0741,0.23204 0.50571,-0.35148 1.06023,-1.43324 0.67839,-1.3234 0.89413,-2.03051 0.7854,-2.57418 l -0.14992,-0.74957 h 0.89779 c 1.04385,0 1.73482,0.22179 1.73482,0.55686 0,0.12961 -0.41311,0.67363 -0.91802,1.20893 -0.94597,1.00291 -1.72782,2.38912 -1.72782,3.06343 0,0.9256 3.00884,5.75411 3.58562,5.75411 0.19753,0 0.43122,-0.38695 0.5193,-0.8599 0.17895,-0.96085 0.0663,-8.04555 -0.13773,-8.6651 -0.10431,-0.31669 0.13209,-0.39688 1.17005,-0.39688 0.74126,0 1.26821,-0.1138 1.22507,-0.26458 -0.0416,-0.14552 -0.17181,-0.51738 -0.28928,-0.82635 -0.4558,-1.19885 -0.39663,-1.88101 0.23433,-2.70122 0.38135,-0.49574 0.8001,-0.64322 2.12845,-0.74961 1.42635,-0.11423 1.77837,-0.0476 2.56053,0.48487 1.03992,0.7079 1.42543,1.97278 0.93162,3.05659 l -0.30938,0.679 1.50775,-0.17721 c 1.30369,-0.15322 3.35192,-0.71606 4.93149,-1.35514 0.40604,-0.16428 0.46302,-0.016 0.46302,1.2049 v 1.39223 l -0.48386,-0.43788 c -0.5155,-0.46653 -1.79761,-0.57688 -2.38403,-0.20519 -0.52272,0.33132 -0.54396,9.51157 -0.0228,9.8337 0.41566,0.25689 0.33152,0.29906 -1.56785,0.78585 -1.2665,0.32459 -1.60565,0.21075 -1.11901,-0.37561 0.35083,-0.42272 0.90264,-9.16148 0.59761,-9.4641 -0.46511,-0.46145 -1.68127,0.1545 -2.24109,1.13505 -0.59361,1.03977 -0.98111,1.30845 -0.98111,0.6803 0,-0.71915 -1.51144,-1.50497 -2.89466,-1.50497 -1.1575,0 -1.34767,0.0767 -1.47675,0.59531 -0.0815,0.32742 -0.047,1.07156 0.0766,1.65365 0.24026,1.13147 0.4945,1.22005 2.24433,0.78194 l 0.72761,-0.18217 v 0.94127 c 0,0.95027 -0.35233,1.47268 -0.65879,0.97682 -0.0914,-0.1479 -0.69495,-0.2689 -1.3412,-0.2689 h -1.17501 v 1.56586 c 0,0.86122 0.0723,1.75419 0.1606,1.98437 0.2306,0.60095 2.66623,0.57617 3.34045,-0.034 0.43134,-0.39036 0.53356,-0.39945 0.74438,-0.0662 0.13441,0.2125 0.24621,0.84558 0.24843,1.40685 0.003,0.83825 -0.0735,0.99074 -0.43015,0.85387 -0.80634,-0.30942 -5.24523,-0.66639 -5.4716,-0.44002 -0.12349,0.12349 0.35113,0.43651 1.0547,0.69559 1.86296,0.68602 1.95953,0.91277 0.38871,0.91277 -1.56058,0 -2.09048,-0.22084 -3.58769,-1.49519 -0.9338,-0.7948 -1.08277,-0.84407 -1.47604,-0.48816 -0.24058,0.21772 -0.55842,0.39585 -0.70631,0.39585 -0.37504,0 -1.14465,-0.893 -1.14465,-1.32817 0,-0.23969 0.14021,-0.18838 0.41848,0.15312 l 0.41847,0.51359 -0.15846,-0.49655 c -0.0872,-0.27311 -0.0114,-0.67371 0.16826,-0.89022 0.26718,-0.32193 0.2198,-0.48024 -0.26002,-0.86877 -0.3227,-0.26131 -0.58673,-0.65736 -0.58673,-0.88011 0,-0.22274 -0.11304,-0.47486 -0.25121,-0.56025 -0.33558,-0.2074 -0.64508,1.52958 -0.44806,2.51464 0.11273,0.56366 0.055,0.78439 -0.20508,0.78439 -0.19907,0 -0.44063,0.20502 -0.53678,0.45561 -0.14464,0.37691 -0.21462,0.39122 -0.40519,0.0829 -0.19041,-0.30808 -0.52065,-0.32217 -1.904,-0.0812 -0.9205,0.16034 -2.36092,0.22714 -3.20093,0.14845 -3.18464,-0.29832 -6.62199,0.93321 -8.25754,2.95851 -1.24832,1.54579 -1.49299,2.12512 -1.74493,4.13154 -0.188,1.49721 -0.13997,2.04934 0.28598,3.28736 0.65595,1.90657 1.80379,3.34795 3.14928,3.95468 l 1.06346,0.47956 -0.67053,0.52744 c -0.44495,0.34999 -0.58194,0.61605 -0.40719,0.7908 0.2438,0.24381 7.75484,0.68719 12.11059,0.7149 l 1.88515,0.012 0.1601,-0.80051 c 0.17151,-0.85752 1.24827,-2.11054 1.81225,-2.10892 0.7112,0.002 1.98937,1.0302 2.42687,1.95215 0.24984,0.52651 0.53797,0.96195 0.64028,0.96766 0.10231,0.006 3.04352,0.0607 6.53602,0.12226 3.4925,0.0615 8.13594,0.17689 10.31875,0.25635 2.18282,0.0795 8.31453,0.0215 13.62605,-0.12891 5.31151,-0.15036 14.59838,-0.37606 20.6375,-0.50157 7.33971,-0.15253 11.37496,-0.33838 12.17083,-0.56053 0.65484,-0.18279 2.104059,-0.34418 3.220479,-0.35864 l 2.029852,-0.0263 0.571182,0.65857 c 0.611886,0.70551 0.611709,0.75479 -0.01495,4.14475 -0.266369,1.44094 -0.28562,2.42617 -0.08013,4.10104 0.148754,1.21246 0.216352,2.35788 0.15022,2.54538 -0.08788,0.24916 -0.699006,0.32037 -2.27084,0.26458 l -2.150602,-0.0763 0.08583,-0.49823 0.08583,-0.49823 -7.097291,0.18286 c -3.90351,0.10058 -10.43104,0.35366 -14.50562,0.56243 -8.09072,0.41452 -11.85453,0.47928 -12.1252,0.20861 z m 35.796109,-0.6015 c 0.342511,-0.63999 0.344474,-0.81115 0.0093,-0.81115 -0.145521,0 -0.278395,0.20836 -0.295275,0.46302 l -0.03069,0.46302 -0.121002,-0.46302 c -0.06655,-0.25466 -0.235069,-0.46302 -0.374486,-0.46302 -0.435536,0 -0.59726,0.83532 -0.209288,1.08099 0.543354,0.34405 0.717513,0.29804 1.021435,-0.26984 z m 0.719214,-0.59617 c -0.08446,-0.21107 -0.147156,-0.14838 -0.159851,0.15985 -0.01148,0.27891 0.05105,0.43518 0.138965,0.34727 0.08792,-0.0879 0.09732,-0.31613 0.02087,-0.50712 z m 0.79375,0 c -0.08446,-0.21107 -0.147156,-0.14838 -0.159851,0.15985 -0.01148,0.27891 0.05105,0.43518 0.138965,0.34727 0.08792,-0.0879 0.09732,-0.31613 0.02088,-0.50712 z m -36.860233,0.10575 c 0.0709,-0.11465 -0.19001,-0.3539 -0.57969,-0.53168 -0.38969,-0.17777 -0.98038,-0.53396 -1.31265,-0.79153 l -0.60413,-0.4683 0.30393,-1.31669 c 0.39179,-1.69732 -0.10956,-3.05614 -1.36764,-3.70671 -1.21412,-0.62785 -3.00264,-0.39038 -3.91074,0.51925 -0.60076,0.60177 -0.69265,0.90802 -0.66872,2.22864 0.0484,2.6719 1.47995,3.80923 3.99692,3.17545 0.95916,-0.24152 1.2281,-0.2204 1.61147,0.12654 0.81808,0.74035 2.27446,1.18052 2.53125,0.76503 z m -5.82771,-1.77538 c -2.0169,-0.84804 -1.22759,-4.48656 0.95978,-4.42437 1.17292,0.0334 1.39784,0.32213 1.5321,1.96711 0.0895,1.09687 0.009,1.51643 -0.37434,1.9459 -0.6946,0.7786 -1.19473,0.89937 -2.11754,0.51136 z m 41.309784,0.67404 c 0.567282,-1.097 0.502766,-1.25876 -0.206621,-0.51807 -0.335661,0.35047 -0.561049,0.78605 -0.500859,0.96795 0.159319,0.48151 0.258437,0.41848 0.70748,-0.44988 z m -53.794944,-0.55345 c 0.8968,-0.94273 1.01736,-1.22345 1.01736,-2.36879 0,-2.3038 -0.8397,-3.17631 -3.05682,-3.17631 -1.36411,0 -2.32367,0.80718 -2.78332,2.34134 -0.42646,1.4234 0.0833,2.83721 1.3246,3.67372 1.36155,0.91755 2.29794,0.79175 3.49818,-0.46996 z m -3.10725,-1.17831 c -0.93013,-1.41957 0.39086,-3.76771 1.71955,-3.05662 1.67588,0.8969 1.28571,3.71691 -0.51426,3.71691 -0.53183,0 -0.90749,-0.2058 -1.20529,-0.66029 z m 11.56323,1.98321 c 0.66332,0 0.72175,-0.0663 0.52483,-0.59532 l -0.22158,-0.59531 -1.75427,0.0933 -1.75426,0.0933 v -0.68862 c 0,-0.57781 0.1192,-0.68861 0.74083,-0.68861 0.40746,0 0.88371,0.14287 1.05833,0.3175 0.24695,0.24694 0.3175,0.096 0.3175,-0.67929 0,-1.05728 0.0792,-1.02834 -1.53871,-0.56191 l -0.61268,0.17663 0.0835,-1.01553 0.0835,-1.01553 h 1.6396 c 0.94666,0 1.77787,-0.13791 1.96674,-0.32632 0.58707,-0.58561 0.20014,-0.67653 -2.68563,-0.63107 l -1.9897,0.0314 -0.0465,2.95891 c -0.0256,1.6274 0.0231,3.07139 0.10803,3.20887 0.0882,0.14276 0.83627,0.1787 1.74425,0.0838 0.87437,-0.0914 1.92564,-0.16616 2.33617,-0.16616 z m 13.69921,-0.0975 c 0.27363,-0.32972 1.47463,-3.91914 1.81201,-5.41559 0.11936,-0.52944 0.0489,-0.60551 -0.49021,-0.52917 -0.55548,0.0787 -0.7077,0.3851 -1.29296,2.60271 -0.55445,2.10089 -0.7552,2.52667 -1.22277,2.59351 -0.48276,0.069 -0.68105,-0.2483 -1.44731,-2.31606 -0.58973,-1.59139 -1.05242,-2.44825 -1.37781,-2.55152 -0.26945,-0.0855 -0.55197,-0.0934 -0.62783,-0.0176 -0.1419,0.1419 0.85234,2.87837 1.76988,4.87133 l 0.51771,1.12448 h 1.02938 c 0.56615,0 1.16461,-0.16296 1.32991,-0.36212 z m 3.69926,0.10115 c 0.52544,-0.003 0.5745,-0.0677 0.30113,-0.39712 -0.50768,-0.61171 -0.14383,-1.10187 0.94964,-1.27932 1.15878,-0.18804 1.69339,0.14148 1.69339,1.04376 0,0.55752 0.12037,0.62907 1.05834,0.62907 1.11915,0 1.32863,-0.31715 0.68527,-1.0375 -0.55418,-0.6205 -1.89604,-3.18556 -2.26009,-4.32032 -0.2536,-0.79048 -0.45029,-0.99218 -0.96755,-0.99218 -0.38514,0 -0.7099,0.18835 -0.79835,0.46302 -0.37428,1.16225 -2.08735,5.00365 -2.39889,5.37928 -0.42986,0.5183 -0.14049,0.85078 0.5735,0.65892 0.29475,-0.0792 0.81837,-0.14563 1.16361,-0.14761 z m 0.8275,-2.63222 c 0,-0.13605 0.1286,-0.58254 0.28578,-0.99219 l 0.28578,-0.74483 0.40206,0.76183 c 0.33427,0.63339 0.34185,0.79999 0.0449,0.98814 -0.47557,0.30137 -1.01857,0.29447 -1.01857,-0.0129 z m -51.49751,0.44579 -0.11831,-2.18281 0.47405,0.65497 c 0.26073,0.36023 0.98007,1.2274 1.59854,1.92706 0.61846,0.69965 1.12447,1.38718 1.12447,1.52784 0,0.14067 0.22912,0.25576 0.50914,0.25576 h 0.50913 l -0.0461,-3.30673 -0.0461,-3.30673 -0.75592,-5.2e-4 c -0.58317,-5.3e-4 -0.71892,0.0958 -0.59405,0.42122 0.21155,0.55128 0.50035,4.07613 0.33397,4.07613 -0.22116,0 -2.54064,-3.36507 -2.81269,-4.08059 -0.19342,-0.50878 -0.4474,-0.68195 -1.00009,-0.68195 h -0.74084 l 0.10366,2.80021 c 0.0681,1.8408 0.002,2.90143 -0.19176,3.09563 -0.48354,0.48354 -0.34409,0.67917 0.56449,0.79193 0.47294,0.0587 0.93793,0.12576 1.03331,0.14905 0.0954,0.0233 0.12018,-0.93992 0.0551,-2.14047 z m 17.50876,-0.50065 -0.19025,-2.68347 1.0822,0.17305 1.08221,0.17306 v -0.77526 -0.77525 l -2.90965,0.0445 c -3.17081,0.0485 -3.23393,0.0872 -2.64936,1.62476 l 0.26182,0.68865 0.77136,-0.57029 c 1.17676,-0.87002 1.40972,-0.50518 1.34281,2.10296 -0.0733,2.85779 -0.11979,2.68074 0.70356,2.68074 h 0.69555 z m 43.84447,2.43774 1.52136,-0.0189 v -0.61736 c 0,-0.88625 -0.15573,-0.94575 -1.37544,-0.52552 -0.60021,0.20679 -1.51854,0.34017 -2.04074,0.29641 l -0.94945,-0.0796 0.0265,-2.84427 0.0265,-2.84427 h -0.63008 c -0.34655,0 -0.69824,0.17761 -0.78154,0.39468 -0.17676,0.46064 0.30594,5.80084 0.56175,6.21475 0.0954,0.15437 0.6114,0.22716 1.14666,0.16177 0.53526,-0.0654 1.6578,-0.12738 2.49455,-0.13776 z m -50.60156,-1.32013 c 0,-0.71571 0.0723,-1.48961 0.1606,-1.7198 0.12385,-0.32274 -0.0162,-0.41851 -0.61194,-0.41851 h -0.77254 l 0.0166,1.25677 0.0166,1.25677 -0.82931,0.0806 c -1.78541,0.17358 -2.63334,-2.45651 -1.22122,-3.78796 0.62739,-0.59155 0.88249,-0.66368 1.85209,-0.52366 0.99691,0.14395 1.12448,0.10332 1.12448,-0.35818 0,-0.8075 -2.33544,-1.06374 -3.50508,-0.38457 -1.72261,1.00026 -1.96656,3.93313 -0.43438,5.22238 0.68093,0.57295 1.0671,0.6774 2.50455,0.6774 h 1.69949 v -1.30127 z m -17.36229,0.82401 c 0.0723,-0.11698 0.0145,-0.73328 -0.12849,-1.36956 -0.26173,-1.1649 -0.46518,-2.95822 -0.48836,-4.30474 -0.0108,-0.62822 -0.12025,-0.7276 -0.80121,-0.7276 h -0.78869 l 0.16319,1.19062 0.16319,1.19063 h -1.22659 -1.22658 v -1.32292 c 0,-0.7276 -0.10933,-1.32292 -0.24295,-1.32292 -0.13362,0 -0.44909,-0.0791 -0.70106,-0.17579 -0.38291,-0.14694 -0.43033,-0.0651 -0.28884,0.49863 0.16151,0.64351 -0.15001,3.92907 -0.50765,5.354 l -0.16895,0.67316 h 0.82243 0.82243 l 0.004,-0.85989 c 0.006,-1.33238 0.28044,-1.56404 1.74134,-1.47136 l 1.29732,0.0823 0.08,1.38907 0.08,1.38906 h 0.63201 c 0.34761,0 0.69117,-0.0957 0.76346,-0.21268 z m 3.00841,-2.96404 0.0659,-3.17328 -0.72736,-1.4e-4 -0.72737,-1.4e-4 v 3.17488 3.17488 l 0.66146,-0.002 0.66146,-0.002 0.0659,-3.17328 z m 71.17875,0.46474 c -0.0377,-1.49159 0.0276,-2.9784 0.14511,-3.30404 l 0.21362,-0.59205 -0.8767,0.16704 c -0.48218,0.0919 -0.87957,0.1797 -0.88308,0.19518 -0.004,0.0155 0.0365,1.42713 0.0889,3.13699 l 0.0953,3.10886 h 0.64266 0.64267 z m 5.50725,1.85208 c -0.0734,-0.47294 -0.20662,-1.65653 -0.29596,-2.6302 l -0.16243,-1.77031 0.94543,-0.17737 c 0.69496,-0.13037 0.94543,-0.31216 0.94543,-0.6862 v -0.50883 l -1.38907,0.20511 c -0.76398,0.11281 -1.83554,0.2062 -2.38125,0.20755 -0.86137,0.002 -0.99218,0.0836 -0.99218,0.6177 0,0.5354 0.1116,0.60407 0.85989,0.52916 l 0.8599,-0.0861 0.0757,2.57969 0.0757,2.57969 h 0.79616 0.79616 z m -103.51287,-0.39691 c 0.075,-0.40018 0.21078,-1.29315 0.30181,-1.98438 0.1812,-1.37576 0.47461,-1.57872 0.95624,-0.66145 0.51243,0.97591 2.40018,3.13684 2.66358,3.04904 0.13438,-0.0448 0.28231,-1.53794 0.32872,-3.31811 l 0.0844,-3.23666 h -0.46384 c -0.56426,0 -0.78176,0.72655 -0.78654,2.62747 l -0.004,1.43685 -1.05833,-1.41849 c -0.58209,-0.78017 -1.05834,-1.67083 -1.05834,-1.97925 0,-0.46447 -0.159,-0.56075 -0.92604,-0.56075 -0.9296,0 -1.11433,0.24563 -0.68931,0.9165 0.1355,0.21387 0.0812,0.91445 -0.1332,1.71979 -0.19901,0.7474 -0.36325,1.71938 -0.36497,2.15994 -0.002,0.44057 -0.18849,1.06564 -0.41502,1.38906 l -0.41188,0.58804 h 0.92002 c 0.79423,0 0.93866,-0.0995 1.05632,-0.7276 z m 15.40829,-1.21675 c -0.0649,-1.04066 -0.0511,-2.23069 0.0306,-2.64452 0.12952,-0.65634 0.24678,-0.73798 0.91829,-0.63942 0.90677,0.13308 1.11686,-0.0826 0.6719,-0.6897 -0.24467,-0.33383 -0.84782,-0.46074 -2.50507,-0.52709 l -2.18281,-0.0874 v 0.62041 c 0,0.47739 0.14545,0.62041 0.63097,0.62041 0.56338,0 0.64903,0.1488 0.79955,1.38906 0.0927,0.76398 0.0469,1.80499 -0.10181,2.31336 -0.40202,1.3743 -0.36001,1.45346 0.79446,1.49697 l 1.06184,0.04 z m 94.299547,1.01831 c 0,-0.21828 -0.115327,-0.39687 -0.256281,-0.39687 -0.140952,0 -0.187746,0.17859 -0.103984,0.39687 0.08376,0.21828 0.199088,0.39688 0.256281,0.39688 0.05719,0 0.103984,-0.1786 0.103984,-0.39688 z m -99.565717,-0.3841 c 1.15463,-0.70403 1.53093,-2.06934 0.96213,-3.49089 -1.04424,-2.60983 -4.73082,-2.32624 -5.64178,0.43399 -0.8249,2.49946 2.27398,4.52374 4.67965,3.0569 z m -3.18555,-1.18047 c -0.55052,-0.84019 -0.55554,-1.71923 -0.0142,-2.49207 0.33202,-0.47402 0.62825,-0.58532 1.38906,-0.52189 0.80838,0.0674 1.05308,0.24129 1.49139,1.05987 l 0.52433,0.97926 -0.55062,0.74053 c -0.77645,1.04426 -2.23063,1.16424 -2.83994,0.2343 z m 102.667423,0.32434 c -0.08446,-0.21107 -0.147156,-0.14838 -0.159851,0.15985 -0.01148,0.27891 0.05105,0.43518 0.138965,0.34727 0.08792,-0.0879 0.09732,-0.31613 0.02087,-0.50712 z m -2.090561,-2.35476 c 0.04398,-0.23099 -0.172233,-0.70724 -0.480475,-1.05833 -0.30824,-0.35109 -0.473644,-0.47145 -0.367564,-0.26748 0.116961,0.22491 0.0077,0.50627 -0.277612,0.71489 -0.634281,0.4638 -0.325341,1.22648 0.451898,1.11561 0.326586,-0.0466 0.629777,-0.27369 0.673753,-0.50469 z m 1.599245,-0.33034 c 0.09895,-0.51378 -0.64072,-1.50127 -1.119494,-1.49458 -0.159345,0.002 -0.128601,0.10615 0.06833,0.23094 0.256447,0.1625 0.285361,0.36782 0.101896,0.72355 -0.14088,0.27317 -0.200647,0.65191 -0.132813,0.84164 0.175774,0.49164 0.972066,0.26974 1.082085,-0.30155 z m 1.36891,-0.45591 c 0,-0.13693 -0.119063,-0.24897 -0.264584,-0.24897 -0.145521,0 -0.264583,0.18562 -0.264583,0.41249 0,0.22687 0.119062,0.33891 0.264583,0.24897 0.145521,-0.0899 0.264584,-0.27556 0.264584,-0.41249 z m -112.532877,-1.17382 c -0.0538,-1.05182 -0.29207,-1.17671 -0.71986,-0.37739 -0.34956,0.65316 -0.15974,1.30224 0.38083,1.30224 0.27411,0 0.37262,-0.26871 0.33903,-0.92485 z m -1.82973,-0.18218 c 0.36551,-0.96836 0.25089,-1.23069 -0.32788,-0.75036 -0.4135,0.34318 -0.56782,1.59281 -0.19669,1.59281 0.11362,0 0.34967,-0.3791 0.52457,-0.84245 z m 41.60219,-1.41218 c 0,-0.98768 1.06782,-1.41296 2.00535,-0.79866 0.38726,0.25374 0.76322,0.68735 0.83545,0.96357 0.0722,0.27622 0.23651,0.50222 0.36506,0.50222 0.37985,0 0.27178,-0.39424 -0.37004,-1.34994 -0.81552,-1.21434 -2.00772,-1.36252 -2.80523,-0.34865 -0.58448,0.74305 -0.75053,1.69859 -0.29518,1.69859 0.14553,0 0.26459,-0.30021 0.26459,-0.66713 z m 1.5875,0.40255 c 0,-0.14552 -0.12609,-0.26459 -0.2802,-0.26459 -0.15411,0 -0.20983,-0.11386 -0.12382,-0.25303 0.086,-0.13916 0.35069,-0.17846 0.58819,-0.0873 0.28864,0.11076 0.36837,0.0631 0.24049,-0.14385 -0.29871,-0.48332 -1.17084,-0.36364 -1.47369,0.20223 -0.39106,0.7307 -0.35262,0.81114 0.38757,0.81114 0.3638,0 0.66146,-0.11906 0.66146,-0.26458 z m -18.33896,-1.1064 c 0.47769,-0.46299 0.95961,-0.7504 1.07093,-0.63868 0.11132,0.11172 -0.0776,0.4301 -0.41975,0.70752 -0.55698,0.45155 -0.57422,0.52279 -0.16459,0.67998 0.30885,0.11852 0.61666,-0.0313 0.94701,-0.46102 0.56233,-0.73144 0.62408,-1.03349 0.21131,-1.03349 -0.15944,0 -0.64209,-0.25079 -1.07256,-0.55731 l -0.78266,-0.5573 -0.52487,0.47499 c -0.73982,0.66954 -3.68003,0.88889 -3.68003,0.27455 0,-0.44733 -0.46543,-0.55993 -0.93489,-0.22619 -0.15039,0.10691 -0.26547,0.37298 -0.25573,0.59126 0.0379,0.85075 -1.55907,1.1147 -2.11817,0.35008 -0.27902,-0.38158 -0.43578,-0.39754 -1.12023,-0.11403 -0.77612,0.32148 -2.52865,0.19056 -3.1116,-0.23245 -0.14553,-0.1056 -0.92453,-0.20021 -1.73113,-0.21024 -1.26479,-0.0157 -1.47182,0.0518 -1.50491,0.49107 -0.0326,0.43277 0.14806,0.51282 1.20196,0.53262 0.68218,0.0128 2.13329,0.081 3.2247,0.15154 1.09141,0.0705 3.65125,0.22082 5.68854,0.33395 2.03729,0.11314 3.81756,0.22353 3.95616,0.24533 0.13859,0.0218 0.64282,-0.33918 1.12051,-0.80218 z m -1.88844,-0.18678 c 0.13825,-0.12917 0.54901,-0.32008 0.91281,-0.42424 l 0.66146,-0.1894 -0.52916,0.41583 c -0.55747,0.43806 -1.49146,0.61484 -1.04511,0.19781 z m -19.65351,0.32588 c -0.17913,-0.0725 -0.53631,-0.0769 -0.79375,-0.01 -0.25743,0.0671 -0.11086,0.12638 0.3257,0.13177 0.43656,0.005 0.64719,-0.0495 0.46805,-0.12197 z m 4.42674,-0.88479 c 0.34202,-0.22103 0.33504,-0.25704 -0.0505,-0.26053 -0.24607,-0.002 -0.52099,0.11501 -0.61093,0.26053 -0.20695,0.33486 0.14331,0.33486 0.66146,0 z m 6.01376,-0.42443 c -0.0879,-0.0879 -0.31612,-0.0973 -0.50712,-0.0209 -0.21107,0.0845 -0.14837,0.14716 0.15985,0.15985 0.27892,0.0115 0.43519,-0.051 0.34727,-0.13896 z m 9.87438,-0.5084 c 0.42934,-0.22202 0.78061,-0.49983 0.78061,-0.61736 0,-0.46595 -0.37646,-0.54724 -0.79215,-0.17104 -0.24103,0.21812 -0.75384,0.42271 -1.13959,0.45463 -0.38575,0.0319 -0.76002,0.21091 -0.83172,0.39774 -0.18294,0.47674 1.01177,0.43819 1.98285,-0.064 z m -19.06314,-0.26851 c 0,-0.0787 -0.26749,-0.52513 -0.59442,-0.99218 -0.32693,-0.46705 -0.62458,-0.8988 -0.66146,-0.95943 -0.0369,-0.0606 -0.14015,-0.0371 -0.22951,0.0522 -0.20444,0.20444 0.91358,2.04239 1.24239,2.04239 0.13365,0 0.243,-0.0643 0.243,-0.14301 z m 11.84567,-0.9122 c 0.44132,-0.65487 0.52389,-0.95112 0.28712,-1.03004 -0.18281,-0.0609 -0.37948,0.0305 -0.43705,0.20325 -0.0576,0.17273 -0.41235,0.67969 -0.78839,1.12658 -0.59413,0.70609 -0.61803,0.79989 -0.18243,0.716 0.27569,-0.0531 0.78003,-0.5102 1.12075,-1.01579 z m 1.02871,0.26146 c 0.25788,-0.43656 0.57596,-0.79375 0.70685,-0.79375 0.13088,0 0.0362,0.30798 -0.21048,0.68441 -0.64343,0.98199 -0.23816,1.16153 0.52207,0.23129 0.35213,-0.43088 0.64452,-0.65839 0.64975,-0.5056 0.005,0.1528 -0.13336,0.42069 -0.30799,0.59532 -0.44589,0.44589 0.10539,0.3994 0.72995,-0.0616 0.67929,-0.50135 0.29972,-0.86639 -1.14005,-1.09641 -0.84332,-0.13474 -1.12448,-0.0928 -1.12448,0.16784 0,0.19112 -0.25888,0.62305 -0.57529,0.95985 -0.47297,0.50346 -0.49916,0.61237 -0.14725,0.61237 0.23542,0 0.63904,-0.35719 0.89692,-0.79375 z m -11.55146,0.2802 c 0,-0.13693 -0.12641,-0.3271 -0.28091,-0.42258 -0.15449,-0.0955 -0.38967,-0.4597 -0.52261,-0.80936 -0.13295,-0.34967 -0.37647,-0.63576 -0.54116,-0.63576 -0.30696,0 -0.27533,0.13212 0.33205,1.387 0.33366,0.68935 1.01263,1.01166 1.01263,0.4807 z m 9.34533,-0.75568 c 0.72289,-1.24256 0.30095,-1.40625 -0.69608,-0.27005 -0.46422,0.52903 -1.02264,1.02795 -1.24092,1.10872 -0.21828,0.0808 0.0141,0.12139 0.5163,0.0903 0.72471,-0.0449 1.01792,-0.23663 1.4207,-0.92894 z m -7.75783,0.62812 c 0,-0.26243 -1.67208,-1.75605 -1.88603,-1.68473 -0.39066,0.13022 0.92503,1.78718 1.42301,1.7921 0.25466,0.003 0.46302,-0.0458 0.46302,-0.10737 z m 4.86858,-0.1401 c 1.06299,-0.24657 2.25622,-1.17801 1.9287,-1.50554 -0.10163,-0.10163 -0.45221,0.0657 -0.77906,0.3719 -0.72998,0.68381 -1.83715,1.1211 -2.83851,1.1211 -0.84532,0 -3.02598,-0.86012 -3.29847,-1.30102 -0.21955,-0.35523 -0.67499,-0.37644 -0.67499,-0.0314 0,0.14028 0.44435,0.557 0.98746,0.92605 1.07101,0.72777 2.71024,0.87467 4.67487,0.41895 z m 11.04325,-0.26832 c 0.34354,-0.2862 0.5531,-0.52433 0.46567,-0.52917 -0.42088,-0.0233 -1.82542,0.60058 -1.82542,0.81083 0,0.40879 0.70668,0.2624 1.35975,-0.28166 z m -22.791,0.007 c 0,-0.13693 -0.11906,-0.32255 -0.26458,-0.41249 -0.14552,-0.0899 -0.26459,0.0221 -0.26459,0.24897 0,0.22687 0.11907,0.41249 0.26459,0.41249 0.14552,0 0.26458,-0.11204 0.26458,-0.24897 z m 11.60219,-0.57066 c 0.45827,-0.15976 0.83323,-0.39789 0.83323,-0.52917 0,-0.30486 -0.16987,-0.29878 -1.43039,0.0512 -1.08311,0.30073 -3.33211,0.10702 -3.33211,-0.287 0,-0.12609 0.65484,-0.16166 1.45521,-0.0791 l 1.4552,0.15019 v -0.86162 c 0,-0.76442 -0.0672,-0.84363 -0.59531,-0.70209 -0.32742,0.0877 -0.89297,0.16478 -1.25677,0.17119 -0.59417,0.0105 -0.61241,0.0402 -0.17927,0.29208 0.2652,0.15422 0.77122,0.20786 1.12448,0.1192 0.35326,-0.0887 0.64229,-0.0538 0.64229,0.0776 0,0.3804 -1.01145,0.54157 -1.86407,0.29704 -0.64262,-0.1843 -0.83195,-0.13258 -1.05749,0.28885 -0.22733,0.42478 -0.17019,0.55201 0.33123,0.73744 0.33327,0.12325 0.78455,0.29132 1.00283,0.37348 0.66946,0.252 1.99469,0.20617 2.87094,-0.0993 z m 11.0092,-0.33061 c 0.3378,-0.24701 0.39396,-0.41431 0.18286,-0.54478 -0.16757,-0.10356 -0.30467,-0.39033 -0.30467,-0.63726 0,-0.42346 -1.47627,-1.30673 -1.74121,-1.04179 -0.19219,0.1922 0.18055,0.99282 0.46222,0.99282 0.13854,0 0.17765,0.12013 0.0869,0.26695 -0.23924,0.3871 0.1127,1.32055 0.49789,1.32055 0.18066,0 0.54786,-0.16042 0.816,-0.35649 z m -0.91556,-0.43726 c 0.51816,-0.33486 0.86841,-0.33486 0.66146,0 -0.0899,0.14552 -0.36485,0.26276 -0.61093,0.26053 -0.38557,-0.003 -0.39255,-0.0395 -0.0505,-0.26053 z m -2.80764,-0.1138 c -0.22323,-0.58174 -1.60583,-0.97392 -4.00538,-1.13614 -1.20054,-0.0812 -2.18281,-0.25404 -2.18281,-0.38416 0,-0.13013 0.19169,-0.52915 0.42597,-0.88671 0.43108,-0.65791 0.34755,-1.44794 -0.15308,-1.44794 -0.15009,0 -0.27289,0.18775 -0.27289,0.41723 0,0.22947 -0.35719,0.77441 -0.79375,1.21098 -0.43656,0.43656 -0.79375,1.02271 -0.79375,1.30256 v 0.50881 l 2.4474,0.005 c 1.34606,0.003 3.0427,0.17075 3.77031,0.37322 1.72258,0.47932 1.72775,0.47944 1.55798,0.037 z m -13.9934,-0.38232 c 2.38106,0.0553 2.88018,-0.34166 1.44779,-1.15153 -1.4218,-0.80389 -1.59647,-1.68855 -1.77042,-8.96667 -0.0865,-3.62098 -0.0897,-6.5836 -0.007,-6.5836 0.33138,0 5.48894,7.21361 5.48894,7.6771 0,0.10928 0.20836,0.2586 0.46302,0.33182 0.25466,0.0732 0.70114,0.22219 0.99219,0.33104 l 0.52916,0.1979 -0.52916,-0.44707 -0.52917,-0.44706 0.57792,0.27918 c 0.31785,0.15355 0.76434,0.27918 0.99218,0.27918 0.7511,0 0.43171,-0.39423 -0.57455,-0.70919 -0.74209,-0.23227 -1.03559,-0.23383 -1.17624,-0.006 -0.10308,0.16678 -0.25675,0.2339 -0.34149,0.14916 -0.2622,-0.2622 0.38031,-1.62097 1.42122,-3.0056 1.22889,-1.63468 1.48627,-2.48779 0.88354,-2.92852 l -0.44102,-0.32248 0.50515,-0.938 c 0.27783,-0.5159 0.6116,-0.87221 0.74171,-0.7918 0.13642,0.0843 0.15574,2.20569 0.0457,5.0109 l -0.19092,4.86469 h 0.44406 0.44405 l -0.0387,-6.08541 c -0.0213,-3.34698 -0.11922,-6.08542 -0.2176,-6.08542 -0.0984,0 -0.67853,1.00747 -1.28922,2.23883 l -1.11035,2.23882 0.56001,0.39224 0.56001,0.39225 -1.22842,1.36629 c -0.67563,0.75147 -1.22842,1.48241 -1.22842,1.62432 0,0.59578 -0.60008,-0.079 -2.51579,-2.82879 -2.05517,-2.95003 -3.22872,-4.36563 -3.61913,-4.36563 -0.28137,0 -0.25757,13.57281 0.0262,14.94896 0.12004,0.58208 0.30297,1.37226 0.40651,1.75595 l 0.18826,0.69762 -1.98772,0.10037 c -2.1521,0.10868 -2.53512,0.26898 -2.04726,0.85683 0.24184,0.29139 0.51481,0.32207 1.16219,0.13062 0.46536,-0.13763 1.79861,-0.2281 2.96277,-0.20105 z m 3.09988,-1.62407 c -0.48548,-0.45229 -0.52688,-0.63123 -0.27432,-1.18554 0.38713,-0.84966 1.20909,-1.10739 1.76352,-0.55296 0.70272,0.70272 -0.17105,1.7526 -1.01499,1.21957 -0.32119,-0.20286 -0.33145,-0.31247 -0.0551,-0.5888 0.27632,-0.27632 0.38599,-0.26606 0.58905,0.0551 0.21747,0.34398 0.25003,0.34086 0.25357,-0.0243 0.006,-0.62197 -0.26978,-0.78537 -0.82449,-0.4885 -0.727,0.38908 -0.62761,1.26078 0.16649,1.46008 0.36347,0.0912 0.83972,0.0972 1.05833,0.0133 0.47645,-0.18282 0.53068,-1.51758 0.08,-1.96829 -0.52627,-0.52627 -1.72728,-0.37729 -2.18104,0.27054 -0.56395,0.80515 -0.53572,1.98663 0.0511,2.13999 0.89337,0.23347 0.95488,0.17792 0.3879,-0.3503 z m -1.22134,-0.68303 c 0,-1.15325 0.87108,-1.94458 2.15026,-1.9534 1.07728,-0.007 1.76248,0.90277 1.51812,2.01662 -0.12671,0.57762 -0.0993,0.66213 0.11617,0.35875 0.38615,-0.54358 0.36111,-1.65375 -0.05,-2.21594 -0.1881,-0.25725 -0.83906,-0.53193 -1.45702,-0.61482 l -1.11702,-0.14982 -0.92422,0.97996 c -0.93012,0.98622 -1.21211,2.10494 -0.59349,2.35456 0.1819,0.0734 0.33668,0.14285 0.34395,0.15434 0.007,0.0115 0.0132,-0.40713 0.0132,-0.93025 z m 4.71129,-0.0411 c 0.18265,-0.88849 0.0623,-1.72931 -0.26295,-1.83774 -0.1328,-0.0443 -0.24146,0.51482 -0.24146,1.24243 0,1.44013 0.26616,1.75425 0.50441,0.59531 z m -4.38304,-2.11535 c 0.4394,-0.37094 0.56003,-0.5945 0.32123,-0.59532 -0.65501,-0.002 -1.86737,1.36867 -1.85597,2.09871 l 0.0106,0.6781 0.41025,-0.79375 c 0.22565,-0.43656 0.7269,-1.06104 1.11389,-1.38774 z m 5.33384,0.97525 c 0,-0.13693 -0.11907,-0.24896 -0.26459,-0.24896 -0.14552,0 -0.26458,0.18562 -0.26458,0.41249 0,0.22687 0.11906,0.3389 0.26458,0.24896 0.14552,-0.0899 0.26459,-0.27555 0.26459,-0.41249 z m -6.18471,-1.75937 c -0.23582,-0.23581 -0.95904,0.46645 -0.95904,0.93123 0,0.31829 0.12887,0.27604 0.55577,-0.18218 0.30567,-0.3281 0.48714,-0.66517 0.40327,-0.74905 z m 10.81492,0.71666 c -0.0899,-0.14552 -0.28259,-0.26459 -0.42811,-0.26459 -0.14552,0 -0.191,0.11907 -0.10106,0.26459 0.0899,0.14552 0.28258,0.26458 0.4281,0.26458 0.14552,0 0.191,-0.11906 0.10107,-0.26458 z m -15.98053,-1.77597 -0.27526,-0.47299 -0.008,0.46302 c -0.004,0.25466 -0.15688,0.46484 -0.33878,0.46707 -0.24734,0.003 -0.24164,0.0605 0.0226,0.22802 0.19433,0.12318 0.34316,0.29995 0.33073,0.39282 -0.0873,0.65248 0.0623,0.71235 0.2816,0.11268 0.17671,-0.48325 0.17251,-0.87212 -0.0128,-1.19062 z m 21.4081,1.44524 c 0.002,-0.1819 0.0768,-0.62839 0.16624,-0.99219 l 0.16262,-0.66146 -0.59987,0.57328 c -0.35887,0.34296 -0.5353,0.74158 -0.43913,0.99219 0.19081,0.49723 0.70497,0.56108 0.71014,0.0882 z m -21.54377,-3.04137 c -0.28903,-0.28903 -0.48722,0.17062 -0.27971,0.64871 l 0.20592,0.47443 0.11474,-0.48373 c 0.0631,-0.26605 0.0447,-0.55379 -0.0409,-0.63941 z m 11.88286,-0.0675 c -0.0899,-0.14552 -0.30532,-0.26276 -0.47863,-0.26053 -0.18934,0.002 -0.15671,0.10642 0.0818,0.26053 0.50829,0.32849 0.59989,0.32849 0.39687,0 z m 8.47755,-0.77614 c -0.0959,-0.15521 -0.29113,-0.28219 -0.4338,-0.28219 -0.14267,0 -0.10588,0.16658 0.0818,0.37019 0.37985,0.41217 0.62352,0.35126 0.35204,-0.088 z m -20.05858,-0.17746 c -0.0879,-0.0879 -0.31612,-0.0973 -0.50712,-0.0209 -0.21107,0.0845 -0.14837,0.14716 0.15985,0.15985 0.27892,0.0115 0.43519,-0.051 0.34727,-0.13896 z m 4.90534,-0.0137 c -0.17913,-0.0725 -0.53632,-0.0769 -0.79375,-0.01 -0.25743,0.0671 -0.11087,0.12638 0.32569,0.13177 0.43656,0.005 0.64719,-0.0495 0.46806,-0.12197 z m 6.74316,-0.68634 c -0.0599,-0.1819 -0.36748,-0.36878 -0.6835,-0.41528 -0.31603,-0.0465 -0.57459,-0.1976 -0.57459,-0.33577 0,-0.13817 0.29765,-0.17652 0.66146,-0.0852 0.40756,0.1023 0.66145,0.0534 0.66145,-0.12725 0,-0.16129 -0.26789,-0.29748 -0.59531,-0.30264 l -0.59531,-0.009 0.66146,-0.37812 0.66146,-0.37812 -0.55285,-0.009 c -0.34391,-0.006 -0.69067,0.2656 -0.91755,0.71823 -0.20059,0.40018 -0.40425,0.80499 -0.45257,0.89958 -0.0483,0.0946 0.24551,0.29355 0.65297,0.44214 1.01344,0.36956 1.19971,0.3663 1.07288,-0.0188 z m -4.16851,-0.36313 c 0,-0.35157 -0.0718,-0.36966 -0.39687,-0.0999 -0.21829,0.18115 -0.39688,0.37433 -0.39688,0.42927 0,0.0549 0.17859,0.0999 0.39688,0.0999 0.21828,0 0.39687,-0.19317 0.39687,-0.42927 z m -0.68523,-0.33821 c 0.6862,-0.75825 0.0623,-0.90365 -0.64535,-0.1504 -0.46173,0.49149 -0.51418,0.6533 -0.21176,0.6533 0.2211,0 0.6068,-0.22631 0.85711,-0.5029 z m 18.14773,-0.15856 c 0,-0.41157 -0.14993,-0.66146 -0.39687,-0.66146 -0.24695,0 -0.39688,0.24989 -0.39688,0.66146 0,0.41158 0.14993,0.66146 0.39688,0.66146 0.24694,0 0.39687,-0.24988 0.39687,-0.66146 z m -18.9501,-2.03679 c -0.0871,-0.14087 -0.37692,0.10335 -0.64411,0.54271 -0.26719,0.43937 -0.73364,0.93149 -1.03654,1.09359 -0.31016,0.166 -0.46974,0.42581 -0.36532,0.59477 0.11786,0.19069 0.55328,-0.11449 1.19485,-0.83746 0.55518,-0.62561 0.93818,-1.25273 0.85112,-1.39361 z m -0.071,1.79583 c 0.53482,-0.61509 0.65637,-0.94043 0.35795,-0.95808 -0.0783,-0.005 -0.44603,0.35256 -0.81727,0.79375 -0.37123,0.44119 -0.54454,0.80217 -0.38512,0.80217 0.15942,0 0.53942,-0.28703 0.84444,-0.63784 z m 34.23462,-0.79895 c 0,-0.77561 -0.57893,-0.7889 -0.72655,-0.0167 -0.10115,0.52916 -0.0333,0.66651 0.29777,0.60275 0.23583,-0.0454 0.42878,-0.30914 0.42878,-0.58607 z m -35.33989,-0.38999 c 0.30095,-0.42265 0.54718,-1.03056 0.54718,-1.3509 v -0.58245 l -0.79375,0.84971 c -0.7597,0.81327 -1.06661,1.85208 -0.54718,1.85208 0.13561,0 0.4928,-0.3458 0.79375,-0.76844 z m 23.30135,-2.0253 c 0,-0.78886 -0.0862,-0.91042 -0.64584,-0.91042 -0.35522,0 -0.70612,-0.0975 -0.77978,-0.21671 -0.0737,-0.11919 0.21697,-0.16521 0.64584,-0.10226 l 0.77978,0.11444 v -0.81572 -0.81572 l -0.92722,0.0348 c -0.50998,0.0192 -1.00607,-0.044 -1.10243,-0.14034 -0.0964,-0.0964 0.32088,-0.17521 0.92722,-0.17521 0.91487,0 1.10243,-0.0874 1.10243,-0.51355 0,-0.70869 -0.35748,-0.86337 -0.95321,-0.41243 -0.2761,0.20899 -0.37698,0.38377 -0.22418,0.3884 0.15279,0.005 0.44471,-0.14042 0.64869,-0.32232 0.31793,-0.2835 0.31816,-0.26136 0.002,0.1551 -0.26523,0.34893 -0.5785,0.44399 -1.11172,0.33735 -0.88539,-0.17708 -0.93338,0.11593 -0.33957,2.07351 0.40778,1.34429 1.35026,2.61967 1.75227,2.37121 0.12437,-0.0769 0.22613,-0.54944 0.22613,-1.05018 z m -1.52135,-2.15114 c 0.25466,-0.0666 0.67138,-0.0666 0.92604,0 0.25466,0.0666 0.0463,0.121 -0.46302,0.121 -0.50933,0 -0.71768,-0.0544 -0.46302,-0.121 z m 9.22131,3.15895 c 0.0149,-0.10915 0.0499,-0.95149 0.0779,-1.87188 0.0548,-1.80294 -0.19904,-2.17319 -1.47663,-2.15364 l -0.61271,0.009 0.66146,0.37812 c 0.50483,0.28859 0.55182,0.38035 0.19844,0.3875 -0.52472,0.0106 -0.61623,0.41263 -0.15836,0.69561 0.21111,0.13047 0.15495,0.29777 -0.18286,0.54478 -0.43624,0.31899 -0.44045,0.35649 -0.0401,0.35649 0.24609,0 0.44744,0.11906 0.44744,0.26458 0,0.14552 0.20836,0.2784 0.46303,0.29528 l 0.46302,0.0307 -0.46302,0.121 c -0.54274,0.14183 -0.58541,0.38315 -0.14553,0.82303 0.35867,0.35867 0.72744,0.41585 0.76788,0.11907 z m -0.67149,-1.99579 c 0.0994,-0.26094 0.2473,-0.40778 0.32877,-0.32632 0.0815,0.0815 1.6e-4,0.29496 -0.18066,0.47443 -0.2613,0.25936 -0.29169,0.22897 -0.14811,-0.14811 z m -30.52774,1.26706 c 0.16604,-0.36441 0.22179,-0.74268 0.12389,-0.84058 -0.20925,-0.20925 -0.94565,0.69211 -0.95787,1.17243 -0.0146,0.57191 0.51892,0.35964 0.83398,-0.33185 z m 14.76802,-0.0145 c 0,-0.38963 -0.31523,-0.50701 -0.59913,-0.2231 -0.23851,0.2385 0.0899,0.91908 0.36227,0.75074 0.13027,-0.0805 0.23686,-0.31795 0.23686,-0.52764 z m -19.18229,0.1479 c -0.0899,-0.14552 -0.32645,-0.26458 -0.52558,-0.26458 -0.61261,0 -1.4588,-1.33531 -1.4588,-2.30203 0,-1.1966 0.36889,-1.83483 1.35535,-2.34495 0.44577,-0.23052 0.75096,-0.47865 0.6782,-0.55141 -0.22553,-0.22554 -1.71487,0.66609 -2.14978,1.287 -0.69578,0.99338 -0.52734,2.43976 0.40823,3.50531 0.45163,0.51438 1.05397,0.93525 1.33853,0.93525 0.28455,0 0.44379,-0.11907 0.35385,-0.26459 z m 0.13229,-0.79375 c 0,-0.14552 -0.17184,-0.26458 -0.38187,-0.26458 -0.47526,0 -1.20563,-1.0097 -1.20563,-1.66672 0,-0.26986 0.34803,-0.83868 0.7734,-1.26405 0.44401,-0.44402 0.62122,-0.7734 0.41608,-0.7734 -0.59525,0 -1.45406,1.33804 -1.45406,2.26544 0,0.62599 0.19619,1.02548 0.69714,1.41953 0.76094,0.59855 1.15494,0.69537 1.15494,0.28378 z m -0.55827,-1.53578 c -0.27338,-0.43774 -0.25082,-0.65894 0.13077,-1.28253 l 0.46112,-0.75356 -0.66861,0.73113 c -0.65812,0.71965 -0.67845,1.4177 -0.0534,1.83417 0.43298,0.28851 0.49171,0.0497 0.13015,-0.52921 z m 0.46892,-0.91161 c -0.0734,-0.1819 -0.13346,-0.0331 -0.13346,0.33073 0,0.3638 0.0601,0.51263 0.13346,0.33073 0.0734,-0.18191 0.0734,-0.47956 0,-0.66146 z m 18.3456,0.59531 c 0,-0.14552 -0.18562,-0.26458 -0.41249,-0.26458 -0.22687,0 -0.3389,0.11906 -0.24897,0.26458 0.0899,0.14552 0.27556,0.26458 0.41249,0.26458 0.13693,0 0.24897,-0.11906 0.24897,-0.26458 z m 7.48463,-2.11808 c -0.0763,-0.29181 0.009,-0.70853 0.18946,-0.92604 0.36165,-0.43576 1.71791,-0.55784 1.45404,-0.13088 -0.0899,0.14552 -0.0374,0.26458 0.11667,0.26458 0.50576,0 0.29274,-1.01869 -0.24897,-1.19062 -0.59853,-0.18997 -0.69153,-0.54674 -0.19843,-0.7612 0.1819,-0.0791 -0.0265,-0.0749 -0.46302,0.009 -1.15074,0.2222 -1.98438,0.81847 -1.98438,1.41933 0,0.28769 0.11906,0.52307 0.26458,0.52307 0.14552,0 0.26459,0.21828 0.26459,0.48507 0,0.50734 0.21636,0.83785 0.54849,0.83785 0.10765,0 0.13328,-0.23876 0.057,-0.53058 z m 1.24662,-0.26317 c 0,-0.14552 -0.12609,-0.26458 -0.2802,-0.26458 -0.15411,0 -0.19078,-0.14883 -0.0815,-0.33073 0.13501,-0.22473 0.0552,-0.21434 -0.24897,0.0324 -0.59904,0.48592 -0.5654,0.8275 0.0815,0.8275 0.29105,0 0.52917,-0.11906 0.52917,-0.26458 z m 4.7625,-0.26458 c 1.02123,-1.02123 0.4735,-2.97006 -1.00881,-3.58941 -0.49934,-0.20864 -1.01242,-0.37934 -1.14017,-0.37934 -0.12775,0 -0.23045,0.8632 -0.22822,1.91823 0.003,1.33617 0.0819,1.7978 0.26053,1.52135 0.15411,-0.23847 0.2581,-0.2711 0.26054,-0.0818 0.002,0.17331 -0.11501,0.3887 -0.26054,0.47863 -0.55102,0.34055 -0.23011,0.66146 0.66146,0.66146 0.57327,0 1.12763,-0.20158 1.45521,-0.52916 z m -1.47595,-0.39688 c 0.0804,-0.29104 -0.0308,-0.8702 -0.24725,-1.28701 -0.53689,-1.0341 -0.47994,-1.21917 0.1445,-0.46961 0.57821,0.69405 0.65239,1.29189 0.2344,1.88891 -0.22514,0.32158 -0.25012,0.29648 -0.13165,-0.13229 z m -7.52393,0.0661 c -0.004,-0.62563 -0.4142,-1.46217 -0.61212,-1.24911 -0.0637,0.0685 -0.19867,0.51158 -0.29999,0.98452 -0.16143,0.75352 -0.11616,0.8599 0.36597,0.8599 0.39538,0 0.54905,-0.16751 0.54614,-0.59531 z m 26.99155,-1.26784 c 0,-0.44264 0.23812,-1.06041 0.52916,-1.3728 0.72329,-0.77636 0.66389,-1.85502 -0.15581,-2.82917 -0.83528,-0.99267 -1.90592,-1.0746 -2.85855,-0.21873 -1.47365,1.32396 -0.69274,3.11941 1.17805,2.70851 0.89645,-0.19689 1.25642,-1.08695 0.79117,-1.95627 -0.30832,-0.5761 -1.18444,-0.74867 -1.4684,-0.28922 -0.0899,0.14552 0.0179,0.26458 0.23966,0.26458 0.57462,0 1.00821,0.89526 0.62109,1.28238 -0.74472,0.74472 -1.97523,-0.007 -1.65629,-1.01215 0.0958,-0.3019 0.46285,-0.73803 0.81561,-0.96917 l 0.64139,-0.42025 0.62896,0.41211 c 1.323,0.86686 1.07089,2.70867 -0.41133,3.00512 l -0.81193,0.16238 0.7198,0.29422 c 0.3959,0.16182 0.70821,0.38213 0.69403,0.48958 -0.0926,0.70184 0.0125,1.2537 0.2388,1.2537 0.14553,0 0.26459,-0.36217 0.26459,-0.80482 z m -2.26755,-1.01719 c 0.0797,-0.12897 -0.0859,-0.29486 -0.36797,-0.36863 -0.2821,-0.0738 -0.75656,-0.53379 -1.05437,-1.02226 -0.44791,-0.73469 -0.54164,-0.79152 -0.54246,-0.32891 -5.2e-4,0.30758 0.31291,0.87312 0.69655,1.25677 0.73783,0.73783 1.03203,0.84524 1.26825,0.46303 z m 0.884,-1.93177 c -0.1633,-0.4899 -0.65122,-0.54545 -0.82451,-0.0939 -0.10974,0.28598 0.006,0.40805 0.38633,0.40805 0.30149,0 0.49634,-0.13971 0.43818,-0.31419 z m -1.65916,-1.80247 c 0.0899,-0.14552 0.0374,-0.26459 -0.11668,-0.26459 -0.15411,0 -0.2802,0.11907 -0.2802,0.26459 0,0.14552 0.0525,0.26458 0.11668,0.26458 0.0642,0 0.19026,-0.11906 0.2802,-0.26458 z m 8.99583,30.84975 c -1.28096,-0.56543 -2.34858,-2.14016 -3.16901,-4.67429 -0.67466,-2.08387 -0.81796,-2.18231 -2.46482,-1.69324 l -1.37763,0.40911 v 1.92121 c 0,1.05793 0.13231,2.05351 0.29445,2.21565 0.50336,0.50336 0.0172,0.82562 -1.24562,0.82562 h -1.21179 l 0.13983,-0.57326 c 0.31616,-1.29623 0.25883,-9.30758 -0.071,-9.92391 -0.18148,-0.3391 -0.28616,-0.66036 -0.2326,-0.71391 0.0535,-0.0536 1.41384,-0.24375 3.02288,-0.42267 l 2.92552,-0.3253 0.90116,0.52482 c 1.78915,1.04198 2.00468,3.19758 0.46365,4.63712 -0.92621,0.86521 -0.89336,1.11177 0.48011,3.60373 1.31213,2.38069 1.74063,2.70832 3.54224,2.70832 1.15953,0 1.71959,-0.14856 2.46365,-0.65349 0.77197,-0.52388 0.96296,-0.57133 0.96296,-0.23928 0,0.68503 -0.98954,1.85816 -1.953,2.31535 -1.08413,0.51446 -2.3881,0.5364 -3.47096,0.0584 z m -5.32161,-7.40966 c 1.59809,-0.70675 2.01432,-1.25494 2.01432,-2.65291 0,-1.42208 -0.79373,-2.09191 -2.2027,-1.85885 -0.60753,0.10049 -1.19389,0.23553 -1.30303,0.30009 -0.21198,0.1254 -0.28376,4.84866 -0.0737,4.84866 0.0686,0 0.77291,-0.28665 1.5651,-0.63699 z m -12.67948,6.66302 0.10626,-0.98542 -1.30519,-0.17315 -1.30519,-0.17313 v -2.87633 c 0,-1.74117 0.10442,-2.87633 0.26459,-2.87633 0.15782,0 0.26458,1.01423 0.26458,2.51354 0,1.38245 0.10061,2.51354 0.22358,2.51354 0.45773,0 1.06938,-0.98875 1.96405,-3.175 1.33369,-3.25901 1.83042,-5.1567 1.62977,-6.22627 l -0.17173,-0.91538 1.28602,0.16852 c 0.70731,0.0927 1.34555,0.22118 1.41831,0.28555 0.0728,0.0644 0.13708,0.61315 0.14293,1.2195 0.006,0.64659 0.35432,1.8683 0.84179,2.95454 0.45714,1.01864 1.27396,2.86411 1.81515,4.10104 0.54119,1.23693 1.07884,2.31163 1.19476,2.38823 0.51967,0.34339 -0.27443,0.81456 -1.24231,0.73711 -0.91013,-0.0728 -1.03347,-0.0137 -1.04048,0.49858 -0.004,0.31966 -0.1101,0.67685 -0.23496,0.79375 -0.12573,0.11772 -0.15773,-0.49037 -0.0717,-1.363 0.1286,-1.30477 0.0586,-1.74756 -0.40728,-2.57651 -0.57893,-1.03006 -1.11986,-1.2648 -3.13857,-1.362 -0.75816,-0.0365 -0.90972,0.0649 -1.12301,0.75155 -0.1356,0.43656 -0.36225,1.04745 -0.50364,1.35753 -0.14139,0.31008 -0.17519,0.82181 -0.0751,1.13718 0.10009,0.31536 0.0659,0.7165 -0.076,0.89142 -0.14188,0.17492 -0.32657,0.55616 -0.41043,0.8472 -0.0839,0.29104 -0.10464,0.0857 -0.0462,-0.45626 z m 4.35881,-5.6953 c -0.009,-0.10914 -0.28874,-0.79375 -0.6218,-1.52136 l -0.60556,-1.32291 -0.43653,1.0245 c -0.55536,1.30336 -0.54985,1.68521 0.0265,1.83582 0.77535,0.20262 1.65459,0.194 1.6374,-0.0161 z m -5.48843,5.62239 c 0.005,-0.43656 0.0647,-0.58312 0.13177,-0.32569 0.0671,0.25743 0.0627,0.61462 -0.01,0.79375 -0.0725,0.17913 -0.12736,-0.0315 -0.12197,-0.46806 z m -1.03746,0.17707 c -0.19648,-0.12143 -0.22298,-0.33039 -0.0727,-0.57351 0.19864,-0.3214 0.265,-0.30791 0.41559,0.0845 0.21448,0.5589 0.0802,0.75043 -0.34287,0.48897 z m -8.40495,-0.57091 c -0.0927,-0.14998 0.0135,-0.19434 0.24896,-0.10399 0.45837,0.1759 0.54224,0.36554 0.16165,0.36554 -0.13693,0 -0.32171,-0.1177 -0.41061,-0.26155 z m 74.15246,-1.07694 c -0.0707,-0.73617 -0.26831,-1.47819 -0.43905,-1.64893 -0.17075,-0.17075 -1.19004,-0.35486 -2.26511,-0.40915 l -1.95466,-0.0987 -0.44085,0.85251 c -0.24246,0.46887 -0.38224,1.0766 -0.31061,1.3505 0.20293,0.77604 -0.2109,0.82345 -1.54219,0.17666 l -1.22745,-0.59634 0.65163,-0.53308 c 0.616,-0.50394 2.58284,-5.01131 3.37462,-7.73356 0.17838,-0.61327 0.57463,-1.34877 0.88058,-1.63444 l 0.55625,-0.51939 1.9503,4.54486 c 1.25032,2.91366 2.19656,4.75459 2.63644,5.12921 l 0.68615,0.58436 -1.04895,0.92599 c -0.57691,0.50928 -1.12309,0.93093 -1.21371,0.93699 -0.0906,0.006 -0.22265,-0.59131 -0.29339,-1.32748 z m -1.79079,-4.35855 c 0,-0.60571 -0.73181,-2.24046 -1.00296,-2.24046 -0.12991,0 -0.38184,0.44649 -0.55986,0.99219 -0.17801,0.5457 -0.38537,1.14102 -0.4608,1.32292 -0.0966,0.23298 0.18217,0.33073 0.94323,0.33073 0.79402,0 1.08039,-0.10745 1.08039,-0.40538 z m 6.61458,5.24398 c -2.06826,-0.12876 -2.29191,-0.24625 -1.57455,-0.82714 0.51802,-0.41946 0.59185,-0.71491 0.56547,-2.26293 -0.0265,-1.5546 -0.15327,-1.98283 -0.99937,-3.37566 -0.53296,-0.87736 -1.37066,-2.12136 -1.86154,-2.76445 -0.49088,-0.64309 -0.89251,-1.28299 -0.89251,-1.42201 0,-0.25934 1.81835,-1.59475 2.17147,-1.59475 0.1081,0 0.12409,0.3623 0.0355,0.80512 -0.13381,0.66906 0.0534,1.11616 1.10813,2.64583 0.69803,1.0124 1.4202,1.84072 1.60483,1.84072 0.72538,0 3.017541,-3.92796 3.017541,-5.17102 0,-0.50292 0.09792,-0.9144 0.217598,-0.9144 0.405728,0 3.221985,1.62575 3.221985,1.85997 0,0.128 -0.418486,0.31123 -0.92997,0.40719 -0.811274,0.15219 -1.053315,0.39856 -1.896314,1.93021 -0.531487,0.96567 -1.363157,2.30749 -1.848155,2.98183 l -0.881815,1.22607 v 1.85039 c 0,1.32201 0.11333,1.94444 0.39688,2.17976 0.413381,0.34308 0.543059,0.8298 0.19844,0.74481 -0.10914,-0.0269 -0.85329,-0.0897 -1.65365,-0.13954 z m -75.56299,-0.35805 c -5.28756,-0.33775 -6.79157,-0.97402 -7.96326,-3.36885 -0.59786,-1.22199 -0.72742,-1.83521 -0.71386,-3.37888 0.0207,-2.35315 0.72132,-3.92343 2.34385,-5.25296 2.27548,-1.86459 3.70329,-2.18423 8.60667,-1.92676 0.36381,0.0191 1.03728,-0.045 1.4966,-0.14241 l 0.83514,-0.17715 0.10698,1.3775 c 0.0588,0.75762 0.0706,1.42651 0.0261,1.48642 -0.0445,0.0599 -0.67253,-0.21309 -1.39564,-0.60666 -1.38681,-0.7548 -3.47495,-1.14149 -4.61667,-0.85494 -1.18583,0.29763 -3.01406,2.24021 -3.6231,3.84972 -1.09868,2.90346 -0.21118,6.50622 1.76476,7.16393 0.44652,0.14863 1.63715,0.2979 2.64584,0.33171 l 1.83396,0.0615 0.074,-3.53815 c 0.0659,-3.14797 0.0126,-3.66508 -0.48311,-4.68911 -0.30644,-0.63302 -0.48996,-1.2597 -0.40781,-1.39261 0.0821,-0.13291 0.9943,0.16824 2.02701,0.66923 1.52951,0.74199 1.83923,0.99395 1.67036,1.35889 -0.11401,0.2464 -0.25325,2.4423 -0.30943,4.87978 -0.0731,3.16983 -0.18995,4.42072 -0.41056,4.39298 -0.16963,-0.0213 -1.74817,-0.13076 -3.50787,-0.24316 z m 56.77757,-0.28573 c -0.50932,-0.31113 -1.25346,-0.55678 -1.65364,-0.54587 -0.40019,0.0109 -0.72761,-0.0317 -0.72761,-0.0946 0,-0.24047 1.46256,-2.75313 1.60464,-2.75675 0.0822,-0.002 0.35129,0.41949 0.59801,0.93685 0.28965,0.60741 0.77269,1.0761 1.36342,1.32292 1.26792,0.52977 1.64799,0.48391 2.42442,-0.29252 0.52599,-0.52598 0.63586,-0.83228 0.49827,-1.38907 -0.22584,-0.91395 -1.41425,-2.16949 -2.05348,-2.16949 -0.72191,0 -1.99694,-0.72187 -2.31077,-1.30827 -0.50672,-0.94681 -0.33161,-2.77866 0.32289,-3.3777 0.87771,-0.80335 1.60591,-0.9413 3.89799,-0.7384 l 2.06422,0.18272 -0.13719,1.09947 c -0.19204,1.53905 -0.48448,1.74727 -1.26769,0.90261 -1.32079,-1.42441 -3.82973,-1.50125 -3.82973,-0.11729 0,0.96036 0.69668,1.68229 1.99276,2.06497 3.33391,0.98439 4.32651,3.84717 2.07136,5.97405 -0.82495,0.77803 -1.09191,0.87398 -2.42931,0.8731 -1.06841,-8e-4 -1.77007,-0.16443 -2.42856,-0.56669 z m -31.0987,-0.24252 c -0.0719,-0.11636 -0.003,-0.29053 0.15314,-0.38704 0.459,-0.28367 0.0299,-10.45302 -0.46497,-11.02073 l -0.38708,-0.44402 1.01599,-0.28211 c 1.52643,-0.42385 4.03127,-0.34494 5.47478,0.17248 1.4932,0.53522 2.67223,1.75552 3.06593,3.17324 0.38006,1.36857 0.35184,4.1095 -0.0502,4.87998 -0.54522,1.04478 -1.61114,2.24929 -2.31511,2.61613 -0.91044,0.47443 -6.33107,1.5532 -6.49245,1.29207 z m 3.97891,-1.56235 c 1.42442,-0.68485 1.81877,-1.03623 2.37839,-2.11918 0.68524,-1.32607 0.59816,-3.27005 -0.22547,-5.03327 -1.07399,-2.29918 -1.77885,-2.91042 -3.35623,-2.91042 h -0.84122 l 0.15155,2.84427 c 0.0834,1.56435 0.15643,3.9456 0.16237,5.29167 0.012,2.72455 0.03,2.74457 1.73061,1.92693 z m -31.01008,-0.0172 c -2.3173,-0.46743 -3.02195,-1.41524 -3.02195,-4.06475 0,-2.55359 0.93248,-4.53315 2.53116,-5.37335 1.74516,-0.9172 2.07549,-0.89266 4.5563,0.33854 1.28607,0.63826 2.42762,1.16273 2.53676,1.16549 0.10914,0.003 0.20649,-0.38193 0.21634,-0.85488 l 0.0179,-0.85989 0.28812,0.59757 c 0.21271,0.44116 0.20326,0.78381 -0.0361,1.30912 -0.1901,0.4172 -0.39877,0.59425 -0.50447,0.42801 -0.0991,-0.15595 -1.17924,-0.78455 -2.40023,-1.3969 l -2.21997,-1.11337 -0.55379,0.55379 c -0.49681,0.49681 -0.5152,0.61473 -0.17875,1.14612 1.00929,1.59405 1.08879,1.99667 1.01388,5.13475 l -0.0747,3.13049 -0.52917,0.0418 c -0.29104,0.023 -1.02964,-0.0592 -1.64133,-0.18254 z m 1.76957,-1.41064 c -0.002,-0.47603 -0.0892,-0.69591 -0.20382,-0.51569 -0.25683,0.4039 -1.51206,0.88155 -2.25675,0.85874 -0.35525,-0.0109 -0.14956,-0.15164 0.5336,-0.36518 1.2564,-0.39271 1.93102,-0.95637 1.93102,-1.61338 0,-0.33184 -0.2804,-0.19323 -1.09146,0.53951 -0.95111,0.85927 -1.21244,0.96644 -2.0322,0.83341 l -0.94073,-0.15266 0.45321,0.45415 c 0.6162,0.61745 1.94203,1.03594 2.8567,0.9017 0.6468,-0.0949 0.7539,-0.22918 0.75043,-0.9406 z m -1.30938,-1.23913 c 1.13377,-0.7978 1.45134,-1.65898 1.07498,-2.91515 -0.24909,-0.83139 -0.52605,-1.16655 -1.19495,-1.44603 -0.92798,-0.38774 -2.28949,-0.20047 -2.46953,0.33966 -0.0707,0.21206 0.12321,0.23859 0.64665,0.0885 0.41119,-0.11793 1.00663,-0.1186 1.3232,-10e-4 1.26898,0.46943 1.5487,2.50329 0.4899,3.56209 -0.71102,0.71102 -1.08732,0.78078 -2.11147,0.3914 -0.45017,-0.17116 -0.67868,-0.16829 -0.67868,0.009 0,0.38589 1.10109,0.7652 1.71979,0.59243 0.29104,-0.0813 0.83109,-0.36022 1.20011,-0.61989 z m -0.32774,-0.58441 c 1.01582,-1.22398 0.40319,-3.10737 -1.01076,-3.10737 -1.21782,0 -2.39735,1.48009 -1.5814,1.98437 0.14552,0.0899 0.26458,-0.067 0.26458,-0.34886 0,-0.71726 0.6289,-1.15982 1.50536,-1.05932 0.593,0.068 0.76087,0.23586 0.82886,0.82887 0.12769,1.1136 -0.40093,1.58592 -1.59564,1.42568 -0.55174,-0.074 -1.00316,-0.0368 -1.00316,0.0828 0,0.54853 2.16352,0.71031 2.59216,0.19383 z m -0.62943,-0.62214 c 0.51491,-0.19758 0.54622,-0.99154 0.0552,-1.39907 -0.74509,-0.61836 -1.8147,0.45124 -1.19633,1.19633 0.33527,0.40398 0.52767,0.43816 1.14115,0.20274 z m -0.75497,-0.60542 c -0.0805,-0.13028 0.0315,-0.30513 0.24896,-0.38857 0.24016,-0.0922 0.39536,8.2e-4 0.39536,0.23685 0,0.42794 -0.41344,0.52529 -0.64432,0.15172 z m 2.84889,-2.56154 c -0.088,-0.22943 -0.44924,-0.52708 -0.80267,-0.66146 -0.77304,-0.2939 -2.38049,-0.32281 -2.55164,-0.0459 -0.0675,0.10914 0.45705,0.19843 1.16556,0.19843 0.87408,0 1.43705,0.14885 1.75122,0.46302 0.57038,0.57038 0.64167,0.57786 0.43753,0.0459 z m -1.22195,-1.50109 c -0.0659,-0.1819 0.073,-0.55641 0.30868,-0.83225 l 0.42849,-0.50152 -0.59531,0.3124 c -0.32742,0.17181 -0.59531,0.42726 -0.59531,0.56766 0,0.1404 -0.17157,0.25528 -0.38126,0.25528 -0.20969,0 -0.45485,0.11906 -0.54478,0.26458 -0.0958,0.15495 0.18099,0.26458 0.66789,0.26458 0.55264,0 0.79124,-0.11089 0.7116,-0.33073 z m 11.4528,8.53282 -0.66146,-0.21184 0.5797,-0.0264 c 0.31883,-0.0145 0.65328,0.0927 0.74322,0.23821 0.0899,0.14552 0.12673,0.25271 0.0818,0.23821 -0.045,-0.0145 -0.37942,-0.12169 -0.74322,-0.2382 z m -1.37253,-0.18074 c 0.191,-0.0764 0.4192,-0.067 0.50712,0.0209 0.0879,0.0879 -0.0683,0.15045 -0.34726,0.13897 -0.30823,-0.0127 -0.37092,-0.0754 -0.15986,-0.15985 z m 73.508099,-0.74531 c -0.08376,-0.21828 -0.453687,-0.39687 -0.822058,-0.39687 -0.524873,0 -0.669761,-0.13328 -0.669761,-0.6161 0,-0.65841 1.476814,-3.08807 1.877018,-3.08807 0.131807,0 0.239649,1.01203 0.239649,2.24896 0,2.07414 -0.252471,2.82248 -0.624848,1.85208 z m -46.867859,-6.17673 c 0,-4.63142 -0.082,-6.14347 -0.35084,-6.46756 -0.29694,-0.35799 -0.27662,-0.46659 0.13229,-0.70682 0.92252,-0.542 5.94174,-2.92076 6.16284,-2.92076 0.12229,0 0.2636,0.59539 0.31403,1.32308 0.1004,1.44895 -0.002,1.53197 -1.09169,0.88808 l -0.73584,-0.43467 -1.15706,0.63746 -1.15707,0.63746 -0.0764,2.31075 c -0.0548,1.65767 0.0129,2.31076 0.23961,2.31076 0.60479,0 2.14435,-1.39845 2.51429,-2.28384 0.48588,-1.16287 0.83325,-1.12866 1.0258,0.10102 0.0855,0.54571 0.20793,1.32464 0.27219,1.73096 l 0.11683,0.73877 -0.85726,-0.16082 c -0.64195,-0.12043 -1.16867,0.0132 -2.09706,0.53211 l -1.23978,0.69293 0.14115,2.1687 c 0.0776,1.19279 0.19317,2.22165 0.25675,2.28634 0.0636,0.0647 0.74314,-0.19014 1.51014,-0.56631 1.09788,-0.53845 1.49887,-0.91528 1.88487,-1.77129 0.57433,-1.27362 0.81803,-1.35958 1.01981,-0.35972 0.0808,0.40018 0.22203,0.92187 0.31394,1.1593 0.13215,0.34138 -0.58595,0.82571 -3.43248,2.3151 -1.97977,1.03588 -3.62421,1.88344 -3.6543,1.88348 -0.0301,5e-5 -0.0547,-2.71998 -0.0547,-6.04451 z m -69.18855,5.12771 c 0,-0.2234 0.0498,-0.40618 0.11066,-0.40618 0.0608,0 0.29898,-0.0723 0.52916,-0.1606 0.60833,-0.23344 0.51385,0.35554 -0.11065,0.68976 -0.42235,0.22604 -0.52917,0.20122 -0.52917,-0.12298 z m -1.05833,-1.86139 c 0,-0.45365 0.91977,-1.45521 1.33638,-1.45521 0.15293,0 -0.0398,0.41672 -0.42828,0.92604 -0.78802,1.03315 -0.9081,1.10312 -0.9081,0.52917 z m 22.75417,-0.39688 c 0,-0.29104 0.11906,-0.52916 0.26458,-0.52916 0.14552,0 0.26458,0.23812 0.26458,0.52916 0,0.29104 -0.11906,0.52917 -0.26458,0.52917 -0.14552,0 -0.26458,-0.23813 -0.26458,-0.52917 z m 55.42019,-1.52135 c 0.45808,-1.18562 0.67148,-3.35581 0.67148,-6.82883 v -3.78005 l -0.69439,-0.82522 c -0.38191,-0.45388 -0.6498,-0.85854 -0.59531,-0.89926 0.33981,-0.25392 2.60149,-1.49112 2.72587,-1.49112 0.0832,0 0.15133,0.34043 0.15133,0.75652 0,0.59057 0.48702,1.258 2.22025,3.04271 1.22113,1.2574 2.35223,2.28619 2.51354,2.28619 0.39007,0 0.39489,-6.37936 0.006,-8.1918 -0.31737,-1.4798 -0.92991,-2.01272 -2.00369,-1.74322 -0.4881,0.1225 -0.63285,0.31277 -0.57067,0.7501 0.086,0.60501 0.61249,0.71068 0.61249,0.12294 0,-0.48096 0.68917,-0.4051 1.01519,0.11174 0.19853,0.31474 0.18939,0.63936 -0.0316,1.12448 -0.24438,0.53636 -0.50096,0.68201 -1.20145,0.68201 -1.25729,0 -1.8826,-0.75323 -1.65085,-1.98855 0.27087,-1.44387 1.03904,-2.07245 2.32235,-1.90032 2.25423,0.30236 2.76585,1.60895 3.00542,7.67533 0.0813,2.0581 0.24856,3.8638 0.37175,4.01267 0.28215,0.34096 -0.30806,3.37385 -0.68073,3.49808 -0.24652,0.0822 -5.40241,-5.2196 -5.61948,-5.77847 -0.0485,-0.12489 -0.19734,-0.22708 -0.33073,-0.22708 -0.13612,0 -0.24253,1.72713 -0.24253,3.93648 v 3.93648 l 0.58068,0.38556 0.58069,0.38556 -1.49035,0.70504 c -1.75783,0.83159 -1.90125,0.85243 -1.66541,0.24203 z m -38.75144,-0.31512 c 0,-0.13693 0.11906,-0.32255 0.26458,-0.41249 0.14552,-0.0899 0.26458,0.0221 0.26458,0.24897 0,0.22687 -0.11906,0.41249 -0.26458,0.41249 -0.14552,0 -0.26458,-0.11203 -0.26458,-0.24897 z m -17.72709,-0.80936 c 0,-0.14552 0.11907,-0.26458 0.26459,-0.26458 0.14552,0 0.26458,0.11906 0.26458,0.26458 0,0.14552 -0.11906,0.26458 -0.26458,0.26458 -0.14552,0 -0.26459,-0.11906 -0.26459,-0.26458 z m 0.79375,0 c 0,-0.14552 0.11907,-0.26458 0.26459,-0.26458 0.14552,0 0.26458,0.11906 0.26458,0.26458 0,0.14552 -0.11906,0.26458 -0.26458,0.26458 -0.14552,0 -0.26459,-0.11906 -0.26459,-0.26458 z m -8.33437,-0.79375 c -0.34892,-0.14994 -0.39398,-0.23235 -0.13229,-0.24194 0.21828,-0.008 0.57547,0.10088 0.79375,0.24194 0.48365,0.31256 0.0659,0.31256 -0.66146,0 z m 6.48229,-1.32292 c 0.21828,-0.14106 0.51594,-0.25648 0.66146,-0.25648 0.14552,0 0.086,0.11542 -0.13229,0.25648 -0.21828,0.14107 -0.51594,0.25648 -0.66146,0.25648 -0.14552,0 -0.086,-0.11541 0.13229,-0.25648 z m 68.65938,-7.05146 c 0,-3.93364 -0.0879,-5.44575 -0.33073,-5.68842 -0.72675,-0.72631 -0.29121,-0.96851 2.77812,-1.54486 1.70987,-0.32108 3.29683,-0.7507 3.52657,-0.95472 0.72563,-0.64441 0.98374,-0.41044 1.07811,0.9773 0.10219,1.50279 -0.11182,1.81918 -0.80572,1.19121 -0.55539,-0.50262 -1.36865,-0.53168 -3.17978,-0.11362 -1.57095,0.36262 -1.74564,0.6916 -1.48308,2.79305 l 0.1821,1.4575 0.94684,-0.15366 c 0.55939,-0.0908 1.30791,-0.5036 1.82919,-1.00884 l 0.88234,-0.8552 v 1.6394 c 0,1.67283 -0.19436,1.96476 -0.81234,1.22014 -0.27041,-0.32583 -0.61672,-0.37902 -1.55375,-0.23865 -0.66318,0.0994 -1.29326,0.31779 -1.40018,0.48542 -0.27203,0.42653 -0.24351,3.66681 0.0362,4.10833 0.19416,0.30653 0.54823,0.29328 2.24381,-0.0839 2.00792,-0.44672 2.4808,-0.72344 3.25475,-1.90463 0.61703,-0.94171 0.87738,-0.75797 0.87738,0.6192 0,0.89235 0.0809,1.16264 0.28647,0.95709 0.19113,-0.19114 0.25717,-1.87252 0.19843,-5.05283 -0.0784,-4.2472 -0.14308,-4.82714 -0.59352,-5.32433 -0.27802,-0.30688 -0.4398,-0.62365 -0.35951,-0.70395 0.23775,-0.23774 4.83987,-0.46897 5.58946,-0.28083 1.09424,0.27463 2.51447,1.68294 2.70125,2.67855 0.26481,1.41155 -0.0849,2.40184 -1.08982,3.08613 -0.49957,0.34018 -0.90912,0.72705 -0.91012,0.85972 -10e-4,0.13266 0.4297,0.97885 0.95709,1.88041 1.01,1.72656 2.61751,3.03775 3.72428,3.03775 1.27452,0 0.21312,1.55627 -1.45894,2.13915 -0.99666,0.34744 -1.37601,0.12477 -2.28551,-1.34151 -0.70712,-1.14 -1.68744,-3.82367 -1.78945,-4.89868 -0.0794,-0.83639 -0.0878,-0.83885 -1.86125,-0.54006 l -0.99219,0.16716 v 1.7104 c 0,1.38297 0.1013,1.79712 0.52917,2.16348 0.29104,0.24919 0.52853,0.51592 0.52776,0.59272 -7.9e-4,0.0768 -0.80295,0.17735 -1.78263,0.22346 -0.97967,0.0461 -3.50912,0.52825 -5.62099,1.07144 l -3.83977,0.98761 z m 12.64364,-3.1395 c 0.6233,-0.253 1.24698,-1.49173 1.24698,-2.47669 0,-1.10535 -1.05392,-1.88443 -2.54922,-1.88443 h -1.15494 v 2.19604 c 0,1.24577 0.12607,2.32212 0.29135,2.4874 0.27632,0.27632 0.93101,0.17889 2.16583,-0.32232 z m 6.28344,8.27953 c 0.005,-0.18564 0.17953,-0.63518 0.3875,-0.99898 0.20797,-0.36381 0.38234,-1.04139 0.3875,-1.50574 0.0124,-1.11854 0.40222,-1.31423 0.78363,-0.39341 0.33721,0.81409 1.52008,1.63456 2.356524,1.63456 0.760291,0 1.367139,-0.70404 1.367139,-1.5861 0,-1.06053 -0.980493,-2.1085 -3.565703,-3.81109 -2.46473,-1.62325 -2.7843,-2.02899 -2.7843,-3.53513 0,-1.6533 1.49599,-2.70934 3.83807,-2.70934 0.63678,0 1.231371,-0.11907 1.321308,-0.26459 0.08994,-0.14552 0.390007,-0.26458 0.666824,-0.26458 0.505534,0 1.043803,1.31445 1.471197,3.59265 0.221343,1.17985 -0.198339,1.16086 -0.7685,-0.0348 -0.740199,-1.55221 -3.559539,-2.52067 -4.525619,-1.55459 -0.22868,0.22868 -0.41578,0.51028 -0.41578,0.62578 0,0.52559 1.21331,1.64333 3.267766,3.0104 1.255594,0.83549 2.478228,1.88114 2.790703,2.38674 1.595623,2.58177 -0.54634,5.49258 -3.739789,5.08217 -0.88224,-0.11338 -1.48923,-0.039 -2.05052,0.25125 -0.60567,0.3132 -0.79507,0.33118 -0.78795,0.0748 z m -87.84525,-2.45419 -0.002,-1.85209 0.52568,0.79375 c 0.62869,0.94929 0.66738,1.41878 0.13382,1.62353 -0.21745,0.0834 -0.34437,0.23422 -0.28205,0.33506 0.0623,0.10084 0.004,0.35626 -0.12976,0.56759 -0.16125,0.25491 -0.24385,-0.23917 -0.24538,-1.46784 z m 0.57629,-0.44979 c -0.24694,-0.24695 -0.3175,-0.17639 -0.3175,0.3175 0,0.49389 0.0706,0.56444 0.3175,0.3175 0.24694,-0.24695 0.24694,-0.38806 0,-0.635 z m 39.89917,-0.13479 c -0.84688,-0.31139 -1.32292,-0.97565 -1.32292,-1.84598 0,-1.53912 1.62265,-1.5094 1.80575,0.0331 0.0677,0.57 -0.0121,0.70512 -0.37495,0.63478 -0.2535,-0.0491 -0.51049,-0.23827 -0.57109,-0.42027 -0.0735,-0.22066 0.0515,-0.27426 0.37495,-0.16088 l 0.48513,0.17004 -0.46113,-0.48925 c -0.36585,-0.38815 -0.52863,-0.42175 -0.7878,-0.16257 -0.41289,0.41289 -0.0346,1.08054 0.9191,1.62223 0.58281,0.33102 0.73836,0.3325 1.12616,0.0106 0.39252,-0.32576 0.42693,-0.71246 0.26965,-3.02991 -0.26987,-3.97633 0.59867,-6.17586 2.85806,-7.2379 2.44365,-1.14865 5.42451,-0.95442 7.23736,0.47156 l 0.67594,0.53169 0.78236,-0.65832 c 0.4303,-0.36207 1.00433,-0.65831 1.27561,-0.65831 0.27129,0 0.56684,-0.11906 0.65678,-0.26458 0.21802,-0.35278 1.01178,-0.33473 1.83816,0.0418 0.79831,0.36373 1.7337,1.8389 1.59745,2.51927 -0.33522,1.67393 -0.45868,2.00262 -0.9288,2.47274 -0.80243,0.80243 -2.45246,0.71089 -3.14907,-0.1747 -0.72899,-0.92676 -0.71153,-2.06899 0.0397,-2.59515 1.13159,-0.7926 2.26522,-0.33796 2.69694,1.08159 0.1828,0.60108 -0.401,1.41695 -1.01391,1.41695 -0.53614,0 -1.29348,-0.99547 -1.11371,-1.46391 0.19034,-0.49604 1.25688,-0.4315 1.4275,0.0864 0.083,0.25181 -0.0864,0.29557 -0.64073,0.16559 l -0.7535,-0.17668 0.4425,0.46591 c 0.52396,0.55166 1.27729,0.35173 1.27729,-0.33899 0,-0.99168 -1.34961,-1.51619 -2.06375,-0.80205 -0.52627,0.52626 -0.37729,1.72728 0.27054,2.18104 1.42236,0.99625 2.85154,0.0986 2.85154,-1.79096 0,-2.68294 -3.17025,-3.28786 -5.11547,-0.97609 l -0.72514,0.86178 -0.5209,-0.4714 c -0.68105,-0.61634 -0.80076,-0.45109 -0.53306,0.73585 0.73075,3.24005 -2.12068,6.29511 -5.35954,5.74228 -1.42494,-0.24321 -2.31365,-0.98081 -3.18664,-2.64477 l -0.75638,-1.44169 0.17175,1.45521 c 0.51264,4.34365 0.51625,4.13204 -0.0807,4.72894 -0.56714,0.56714 -0.89332,0.6426 -1.62105,0.37502 z m 8.66992,-3.54816 c 0.42186,-0.34637 0.98465,-0.91576 1.25063,-1.26531 0.67841,-0.89157 0.81681,-2.84928 0.29047,-4.10898 -0.23561,-0.5639 -0.3838,-1.06984 -0.32931,-1.12433 0.15861,-0.15862 1.42709,0.38495 1.61758,0.69316 0.21374,0.34584 0.67154,0.37023 0.67154,0.0358 0,-0.48719 -2.86092,-1.63988 -4.40086,-1.77313 l -1.55226,-0.13433 1.06928,0.50948 c 2.0944,0.99791 3.13825,3.02433 2.52112,4.89425 -1.22128,3.70051 -7.15689,2.80414 -7.16129,-1.08147 -0.004,-3.34245 3.85427,-4.45825 5.71147,-1.65182 1.25052,1.88965 0.45679,3.87722 -1.66182,4.16139 -1.4043,0.18835 -2.65329,-0.46772 -3.14899,-1.65411 -0.95964,-2.29673 1.70316,-4.30646 3.66314,-2.76473 0.36708,0.28874 0.74285,0.82554 0.83505,1.1929 0.2293,0.91359 -0.48079,2.20149 -1.33153,2.41501 -0.97229,0.24403 -2.42425,-0.50812 -2.63995,-1.36756 -0.2127,-0.84746 0.2995,-1.87738 1.02845,-2.06801 1.52263,-0.39817 2.71727,1.87885 1.23291,2.34997 -0.67529,0.21433 -1.6243,-0.33683 -1.51925,-0.88234 0.0993,-0.51548 1.03952,-0.60478 1.20303,-0.11426 0.07,0.21007 -0.0427,0.2722 -0.30868,0.17013 -0.23044,-0.0884 -0.41898,-0.029 -0.41898,0.13212 0,0.16109 0.29765,0.29289 0.66145,0.29289 0.72407,0 0.91372,-0.70025 0.34396,-1.27 -0.65369,-0.65369 -2.06375,-0.0513 -2.06375,0.88171 0,0.64919 1.11624,1.44662 2.02496,1.44662 1.46882,0 1.91789,-1.63745 0.76519,-2.79015 -0.79367,-0.79367 -1.69739,-0.8285 -2.62217,-0.10106 -2.03842,1.60342 0.6363,4.77862 2.99703,3.55783 1.496,-0.77361 1.4897,-2.9528 -0.0122,-4.21656 -1.1224,-0.94443 -2.3584,-0.91294 -3.47938,0.0887 -0.76026,0.6793 -0.86407,0.93298 -0.86407,2.11158 0,1.14781 0.11847,1.458 0.82771,2.16724 2.1142,2.11419 5.65459,0.7604 5.65459,-2.16222 0,-1.73942 -2.02564,-3.68239 -3.83906,-3.68239 -3.73017,0 -4.5741,5.81494 -1.08099,7.44834 1.39188,0.65085 3.02748,0.51554 4.06497,-0.33629 z m -27.69903,3.05236 c 0.0127,-0.30823 0.0754,-0.37092 0.15985,-0.15986 0.0764,0.191 0.067,0.4192 -0.0209,0.50712 -0.0879,0.0879 -0.15045,-0.0684 -0.13896,-0.34726 z m 11.2389,-0.96287 c -0.22653,-0.32342 -0.41188,-0.83845 -0.41188,-1.1445 0,-0.70339 1.04878,-1.70704 1.78379,-1.70704 0.61923,0 1.66162,1.154 1.64544,1.82162 -0.006,0.23503 -0.17854,0.0404 -0.3841,-0.43256 -0.3035,-0.69828 -0.52418,-0.8599 -1.17417,-0.8599 -1.04231,0 -1.7908,1.01309 -1.35296,1.83122 0.42637,0.79668 1.4984,0.98526 2.177,0.38295 l 0.557,-0.49438 -0.31239,0.59532 c -0.43343,0.82597 -1.95123,0.83033 -2.52773,0.007 z m 0.78391,-0.37064 c -0.50905,-0.50905 -0.43909,-1.12692 0.1711,-1.51116 0.54345,-0.34221 1.27895,0.17848 1.27895,0.90543 0,0.74821 -0.9223,1.13348 -1.45005,0.60573 z m 0.92088,-0.8934 c 0,-0.14552 -0.17859,-0.26459 -0.39687,-0.26459 -0.21828,0 -0.39688,0.11907 -0.39688,0.26459 0,0.14552 0.1786,0.26458 0.39688,0.26458 0.21828,0 0.39687,-0.11906 0.39687,-0.26458 z m -43.59506,-4.96094 c -0.76135,-1.12779 -1.38044,-2.22912 -1.37577,-2.4474 0.007,-0.32118 0.0755,-0.30857 0.35998,0.0661 0.44597,0.58749 0.58913,0.58078 1.41157,-0.0661 0.37,-0.29104 0.86503,-0.5244 1.10007,-0.51857 0.2549,0.006 0.11055,0.18202 -0.35772,0.43543 -0.84048,0.45483 -1.4639,0.99727 -1.4639,1.27377 0,0.0935 0.1729,0.34299 0.38422,0.55431 0.33591,0.33591 0.41905,0.31915 0.66118,-0.13327 0.35278,-0.65919 1.19012,-0.92881 1.79353,-0.57751 0.40865,0.23791 0.38082,0.27369 -0.21824,0.28071 -0.65577,0.008 -1.79723,0.91971 -1.51025,1.20669 0.0754,0.0754 0.28767,-0.0444 0.47175,-0.2662 0.18408,-0.2218 0.60502,-0.40327 0.93544,-0.40327 0.68667,0 1.11018,-0.77568 0.60018,-1.09928 -0.56135,-0.35619 -1.15555,-0.25418 -1.89151,0.32473 -0.38342,0.3016 -0.69714,0.42341 -0.69714,0.27068 0,-0.61425 1.31025,-1.15329 2.38541,-0.98137 0.64567,0.10325 1.05418,0.0648 1.05418,-0.0991 0,-0.14724 -0.23813,-0.26771 -0.52917,-0.26771 -0.29104,0 -0.52917,-0.12133 -0.52917,-0.26962 0,-0.15548 0.28003,-0.19934 0.66146,-0.10361 0.40757,0.10229 0.66146,0.0534 0.66146,-0.12725 0,-0.1613 -0.11906,-0.29327 -0.26458,-0.29327 -0.14552,0 -0.26459,-0.23109 -0.26459,-0.51355 0,-0.28245 -0.12718,-0.59215 -0.28262,-0.68822 -0.15544,-0.0961 -0.21871,-0.34122 -0.14059,-0.54478 0.2013,-0.52459 -1.40939,-0.4867 -3.19155,0.0751 l -1.41232,0.44519 -0.004,0.81158 c -0.003,0.62129 -0.0642,0.71852 -0.26053,0.4147 -0.43193,-0.66835 -0.29474,-1.27801 0.33073,-1.46976 0.32742,-0.10037 0.75994,-0.31469 0.96116,-0.47624 0.29793,-0.23922 0.24882,-0.32654 -0.26459,-0.47041 -0.43558,-0.12207 -0.18066,-0.1922 0.82478,-0.22693 0.80036,-0.0276 2.30152,-0.0915 3.33591,-0.14183 1.91755,-0.0934 4.16876,0.36285 4.02162,0.815 -0.0839,0.25784 -1.06955,0.29742 -2.46274,0.0989 -0.67292,-0.0959 -0.80723,-0.0178 -0.88229,0.51273 -0.0487,0.3442 0.0406,0.75497 0.19843,0.91281 0.15784,0.15784 0.28699,0.42084 0.28699,0.58444 0,0.39531 -2.65912,5.15296 -2.88006,5.15296 -0.0948,0 -0.79533,-0.92273 -1.55667,-2.05052 z m 2.25531,-0.2191 c -0.0584,-0.0584 -0.32518,0.054 -0.59287,0.24972 -0.33462,0.24468 -0.42555,0.5125 -0.29101,0.85716 l 0.19568,0.50128 0.39718,-0.75099 c 0.21845,-0.41305 0.34941,-0.79877 0.29102,-0.85717 z m 6.95385,0.68212 c -0.001,-0.94589 0.11359,-1.89839 0.25465,-2.11667 0.17099,-0.26458 0.25783,-0.28663 0.26053,-0.0661 0.002,0.1819 0.24218,0.56885 0.53322,0.85989 0.7041,0.7041 0.67649,2.64584 -0.0376,2.64584 -0.13515,0 -0.11279,-0.24813 0.0497,-0.55183 0.16243,-0.30351 0.22615,-0.62101 0.1416,-0.70556 -0.0846,-0.0845 -0.15638,-0.0446 -0.15961,0.0888 -0.003,0.13339 -0.23872,0.54019 -0.52329,0.90399 l -0.5174,0.66146 -0.002,-1.71979 z m 0.96651,-0.98904 -0.44728,-0.44727 v 0.43152 c 0,0.23734 0.14883,0.48468 0.33073,0.54964 0.5406,0.19307 0.59487,-0.0556 0.11655,-0.53389 z m -20.28303,1.50326 c 0.32236,-0.60233 0.97273,-0.9446 1.25623,-0.6611 0.18185,0.18185 -0.94212,1.18807 -1.33968,1.19933 -0.11426,0.003 -0.0767,-0.23897 0.0834,-0.53823 z m 0.58732,-3.84362 c -1.57073,-1.23792 -1.03224,-1.76002 2.16887,-2.10283 0.99666,-0.10673 2.53143,-0.47596 3.41059,-0.8205 0.87916,-0.34454 1.69496,-0.62644 1.81289,-0.62644 0.11793,0 0.21442,0.35719 0.21442,0.79375 0,0.83361 -0.22605,0.99104 -0.71744,0.49965 -0.21575,-0.21575 -0.84663,-0.11493 -2.36802,0.37844 -1.14066,0.3699 -2.45951,0.74953 -2.93078,0.84362 -1.09408,0.21845 -1.29793,0.56186 -0.71555,1.20538 0.66104,0.73044 0.13951,0.62847 -0.87498,-0.17107 z m 9.98802,-0.51625 c 0.3638,-0.20291 1.07817,-0.36953 1.5875,-0.37026 1.23766,-0.002 0.53242,0.39166 -1.05834,0.59042 l -1.19062,0.14876 z m 10.2047,-0.71841 c -0.15263,-0.34117 -0.51885,-0.46302 -1.39152,-0.46302 -0.83193,0 -1.15043,-0.0984 -1.07031,-0.33073 0.0766,-0.22205 0.54028,-0.30036 1.41111,-0.2383 0.71338,0.0508 1.33645,0.12991 1.38458,0.17572 0.0481,0.0458 0.0393,0.3614 -0.0196,0.70132 -0.0929,0.53603 -0.13461,0.55659 -0.31427,0.15501 z m -5.54585,-4.35902 c -0.0327,-0.0327 -3.65115,-0.0689 -8.04092,-0.0804 -4.70827,-0.0123 -8.04485,-0.12352 -8.13612,-0.27119 -0.0971,-0.1571 21.97295,-0.25033 59.25986,-0.25033 47.3553,0 59.414569,0.0671 59.41453,0.33073 -4e-5,0.26344 -10.42024,0.33073 -51.21894,0.33073 -28.17039,0 -51.24567,-0.0268 -51.27841,-0.0595 z"
       id="path13475" />
  </g>
</svg>
