<?xml version="1.0" encoding="UTF-8" standalone="no"?>
<!-- Created with Inkscape (http://www.inkscape.org/) -->

<svg
   width="71.650642mm"
   height="38.368622mm"
   viewBox="0 0 71.650643 38.36862"
   version="1.1"
   id="svg5"
   inkscape:version="1.1 (c4e8f9ed74, 2021-05-24)"
   sodipodi:docname="sweetbouquet.svg"
   xmlns:inkscape="http://www.inkscape.org/namespaces/inkscape"
   xmlns:sodipodi="http://sodipodi.sourceforge.net/DTD/sodipodi-0.dtd"
   xmlns="http://www.w3.org/2000/svg"
   xmlns:svg="http://www.w3.org/2000/svg">
  <sodipodi:namedview
     id="namedview7"
     pagecolor="#ffffff"
     bordercolor="#666666"
     borderopacity="1.0"
     inkscape:pageshadow="2"
     inkscape:pageopacity="0.0"
     inkscape:pagecheckerboard="0"
     inkscape:document-units="mm"
     showgrid="false"
     inkscape:zoom="1.8923042"
     inkscape:cx="168.31331"
     inkscape:cy="142.94741"
     inkscape:window-width="2506"
     inkscape:window-height="1403"
     inkscape:window-x="1974"
     inkscape:window-y="0"
     inkscape:window-maximized="1"
     inkscape:current-layer="layer1" />
  <defs
     id="defs2" />
  <g
     inkscape:label="Layer 1"
     inkscape:groupmode="layer"
     id="layer1"
     transform="translate(-136.88397,-142.21337)">
    <path
       style="fill:#000000;stroke-width:0.264583"
       d="m 178.16457,180.56187 c -0.0362,-0.0364 -9.25158,-0.0676 -20.47865,-0.0695 l -20.41287,-0.003 -1.9e-4,-6.54511 c -1e-4,-3.59981 -0.0913,-9.64074 -0.20256,-13.42428 -0.21152,-7.18987 -0.24115,-11.67619 -0.0981,-14.84239 l 0.0849,-1.8778 4.40332,-0.17918 c 7.65462,-0.31149 24.18777,-0.72401 33.2429,-0.82945 27.04046,-0.31487 32.7455,-0.40684 32.94659,-0.53112 0.48924,-0.30237 0.59901,0.72991 0.75624,7.11202 0.18218,7.3947 0.16643,30.5481 -0.0209,30.73544 -0.1228,0.12279 -30.1022,0.57381 -30.22069,0.45464 z m -31.77344,-1.65213 c 0.94359,-0.78311 3.05799,-1.11801 7.90238,-1.25166 2.74459,-0.0757 4.84672,-0.22633 4.6714,-0.33469 -0.24186,-0.14947 -0.21536,-0.39696 0.10986,-1.02586 0.37856,-0.73206 0.38148,-0.82886 0.0249,-0.82886 -0.22202,0 -0.40367,0.16995 -0.40367,0.37767 0,0.82809 -1.25011,1.41455 -3.03723,1.42487 -0.94519,0.005 -1.7838,-0.0957 -1.86356,-0.22475 -0.0802,-0.12972 -0.40705,-0.13736 -0.73097,-0.0171 -0.32227,0.11967 -1.12173,0.20442 -1.77657,0.18833 -0.99977,-0.0246 -1.20344,-0.11906 -1.27057,-0.58944 -0.0761,-0.53304 1.00805,-1.71713 1.8561,-2.02728 0.27579,-0.10085 0.27426,-0.19367 -0.008,-0.48832 -0.29442,-0.30731 -0.40794,-0.28163 -0.73099,0.16536 -1.62873,2.25358 -3.42658,3.30729 -5.64291,3.30729 -1.25363,0 -1.67439,-1.30516 -0.95959,-2.97656 0.14798,-0.34601 0.0739,-0.46267 -0.29331,-0.46163 -0.35112,0.001 -0.72905,0.52597 -1.32434,1.83962 -0.59688,1.31717 -1.08437,1.99342 -1.71979,2.38569 -0.9305,0.57445 -2.36016,0.62723 -2.53516,0.0936 -0.0653,-0.19923 0.0991,-0.25743 0.46033,-0.16296 0.40448,0.10578 0.81417,-0.10396 1.46192,-0.74842 0.49497,-0.49246 0.90373,-1.02815 0.90835,-1.19043 0.005,-0.16227 0.26646,-0.62311 0.58185,-1.02407 l 0.57346,-0.72902 -0.6396,0.19889 c -0.87807,0.27304 -1.92177,1.03806 -2.73541,2.00501 -0.86303,1.02565 -0.88548,0.55245 -0.0375,-0.7908 0.58006,-0.91887 1.72742,-1.67499 3.39408,-2.23672 0.25685,-0.0866 0.58248,-0.46115 0.72364,-0.83241 0.14115,-0.37126 0.43702,-0.74424 0.65748,-0.82884 0.69792,-0.26782 0.43312,-0.60532 -0.3929,-0.50078 l -0.79375,0.10046 v -1.6618 -1.6618 l 2.49163,0.0274 c 1.3704,0.0151 2.54889,0.087 2.61888,0.15971 0.07,0.0728 0.16914,0.72761 0.22035,1.45521 l 0.0931,1.32292 -1.53488,0.0797 c -1.15131,0.0598 -1.57775,0.19206 -1.70643,0.52917 -0.0944,0.24717 -0.38593,0.68022 -0.64794,0.96232 -0.26201,0.2821 -0.47638,0.60952 -0.47638,0.7276 0,0.38044 1.26118,0.22806 1.41426,-0.17088 0.21432,-0.55848 2.1741,-1.73109 2.89319,-1.73109 0.33759,0 0.75668,0.14288 0.9313,0.3175 0.38463,0.38463 0.42078,1.70411 0.0529,1.93146 -0.38429,0.2375 -0.32452,0.92604 0.0804,0.92604 0.18973,0 0.73732,-0.4048 1.21686,-0.89956 0.64291,-0.66332 0.82614,-1.04368 0.6977,-1.44837 -0.0958,-0.30184 -0.006,-0.93884 0.19898,-1.41554 0.20524,-0.47671 0.48257,-1.22392 0.6163,-1.66049 0.15404,-0.50289 0.44675,-0.82308 0.79882,-0.8738 0.54646,-0.0787 0.6117,0.0238 1.60766,2.52745 0.0823,0.20691 -0.1019,0.33449 -0.49205,0.34077 -0.41924,0.007 -0.85513,0.345 -1.33004,1.03211 l -0.70642,1.02207 0.59118,0.55539 c 0.32515,0.30546 0.79187,0.55539 1.03715,0.55539 0.24528,0 0.44959,0.20836 0.45402,0.46302 0.007,0.42762 0.0278,0.42914 0.26664,0.0198 0.20228,-0.3467 0.64708,-0.44136 2.04248,-0.43468 0.98113,0.005 1.99223,0.11903 2.24689,0.25408 0.29654,0.15726 0.46302,0.15006 0.46302,-0.02 0,-0.14608 0.15568,-0.20585 0.34596,-0.13284 0.19028,0.073 1.28512,-0.76469 2.43297,-1.86158 1.61886,-1.54697 2.01606,-2.06529 1.77071,-2.31064 -0.24535,-0.24538 -0.3163,-0.21543 -0.3163,0.13346 0,0.24739 -0.10633,0.44979 -0.23628,0.44979 -0.3363,0 -0.55747,-0.69088 -0.55747,-1.74143 0,-0.74149 0.0998,-0.9044 0.55393,-0.9044 0.33143,0 0.60953,0.21257 0.69232,0.52917 0.17492,0.66887 0.52214,0.6805 0.73036,0.0245 0.23547,-0.74191 0.87964,-0.88461 1.20965,-0.26798 0.39159,0.73169 0.22269,2.51358 -0.22937,2.41979 -0.19272,-0.04 -0.29414,0.0195 -0.22538,0.13229 0.22545,0.36967 -1.25493,1.85881 -2.26456,2.27797 -0.97626,0.4053 -0.96984,0.39292 0.52917,-1.02014 0.83458,-0.78673 1.39836,-1.43371 1.25283,-1.43774 -0.6689,-0.0185 -4.62544,4.32438 -4.62921,5.08126 -0.002,0.45882 0.5626,0.14778 0.8409,-0.46302 0.16576,-0.3638 0.51491,-0.66146 0.77589,-0.66146 0.43555,0 0.42663,0.0758 -0.10861,0.92303 -0.32072,0.50767 -0.85102,0.99683 -1.17844,1.08702 -0.70178,0.19331 -0.80167,0.64973 -0.1323,0.60448 1.09621,-0.0741 2.05052,-0.39408 2.05052,-0.68751 0,-0.17421 0.23813,-0.49667 0.52917,-0.71659 0.472,-0.35665 0.47914,-0.40076 0.0661,-0.40827 -0.25466,-0.005 -0.46302,-0.11774 -0.46302,-0.25135 0,-0.55735 0.34749,-1.07998 0.71807,-1.07998 0.24408,0 0.33824,0.1528 0.24458,0.39688 -0.25304,0.65941 0.52766,0.45231 0.99739,-0.26459 0.23837,-0.3638 0.60925,-0.66145 0.82418,-0.66145 0.51306,0 0.49334,0.23949 -0.0722,0.87756 -0.44583,0.50296 -0.44327,0.51201 0.0691,0.24377 0.29267,-0.15321 0.75761,-0.52772 1.0332,-0.83224 0.27558,-0.30452 0.65418,-0.55368 0.84132,-0.55368 0.50156,0 0.72365,-0.5017 0.39655,-0.89583 -0.3705,-0.44642 -0.0447,-0.77271 0.40172,-0.40226 0.25576,0.21227 0.59472,0.0937 1.33059,-0.46531 l 0.98741,-0.75014 -0.77622,-0.09 c -0.95203,-0.11041 -1.16556,-0.41971 -1.17077,-1.69592 -0.003,-0.70735 0.10988,-0.99218 0.39282,-0.99218 0.27719,0 0.39688,0.27928 0.39688,0.92604 0,0.74668 0.10151,0.92604 0.52413,0.92604 0.80748,0 0.96871,1.13489 0.29552,2.08029 -0.67337,0.94565 -0.67945,1.0234 -0.0921,1.17691 0.29233,0.0764 0.20143,0.13231 -0.24656,0.15169 -0.74607,0.0323 -1.80396,1.19912 -1.80396,1.98976 0,0.24579 -0.22109,0.42218 -0.52916,0.42218 -0.68924,0 -0.67191,-0.47542 0.0451,-1.23868 0.31587,-0.33623 0.50168,-0.68395 0.41291,-0.77272 -0.22675,-0.22675 -3.10389,2.06367 -3.10389,2.47093 0,0.18382 -0.29765,0.33422 -0.66146,0.33422 -0.43114,0 -0.66145,0.14804 -0.66145,0.42518 0,0.30173 0.13443,0.3694 0.46302,0.23307 0.25466,-0.10566 0.58208,-0.16726 0.7276,-0.13688 0.91813,0.19167 5.68781,0.26846 5.68449,0.0915 -0.002,-0.1188 -0.11402,-0.38987 -0.24843,-0.60236 -0.20984,-0.33174 -0.31868,-0.31912 -0.77001,0.0893 -0.2891,0.26163 -0.73416,0.43549 -0.98901,0.38635 -0.35998,-0.0694 -0.25559,-0.23171 0.4678,-0.72736 0.60201,-0.41247 1.10018,-1.0735 1.40924,-1.86993 0.34724,-0.8948 0.84735,-1.50724 1.82761,-2.23811 1.37074,-1.022 3.33604,-2.00081 4.01733,-2.00081 0.20622,0 0.37494,-0.1603 0.37494,-0.35623 0,-0.59234 0.81105,-2.0253 1.14386,-2.02097 0.17124,0.002 0.48228,0.11222 0.69121,0.24442 0.29565,0.18708 0.31082,0.32355 0.0684,0.6156 -0.3902,0.47016 -0.0883,0.8188 0.37566,0.43377 0.18892,-0.15678 0.4858,-0.19711 0.65974,-0.0896 0.22774,0.14075 0.1798,0.29523 -0.17127,0.55195 -0.46334,0.33879 -0.45876,0.35648 0.0922,0.35648 0.31885,0 0.57973,0.11907 0.57973,0.26459 0,0.29283 -0.18456,0.33411 -2.19843,0.49171 -0.26325,0.0206 -0.41271,0.14412 -0.33214,0.27448 0.4755,0.76938 -2.1833,2.31716 -4.414,2.56954 -1.23978,0.14026 -1.64193,0.30536 -1.97241,0.80973 -0.6203,0.9467 -0.22489,1.05322 1.31613,0.35454 1.38704,-0.62886 2.75031,-0.77889 3.79405,-0.41752 0.40492,0.1402 0.60703,0.0679 0.73383,-0.26258 0.21926,-0.57137 -0.054,-0.88618 -0.35142,-0.4049 -0.12133,0.19632 -0.35877,0.27157 -0.52762,0.16722 -0.54326,-0.33576 0.25005,-0.9932 0.97799,-0.8105 0.4077,0.10232 0.57587,0.0608 0.46703,-0.11528 -0.0935,-0.15136 -0.044,-0.27519 0.11013,-0.27519 0.15411,0 0.2802,0.18851 0.2802,0.41892 0,0.68781 0.65074,0.25749 0.79375,-0.52489 0.13614,-0.74484 1.40684,-1.75039 1.7625,-1.39473 0.10801,0.10802 -0.1253,0.49468 -0.51848,0.85926 -0.93002,0.86236 -0.90211,1.2485 0.11808,1.63357 0.70731,0.26698 0.78224,0.3755 0.49678,0.71947 -0.40357,0.48627 -1.59067,0.54131 -1.6031,0.0743 -0.005,-0.18191 -0.26274,-0.0331 -0.57309,0.33072 -0.40633,0.4763 -0.51412,0.5236 -0.38508,0.16898 0.13753,-0.37792 0.0812,-0.45485 -0.2423,-0.33073 -0.23183,0.089 -0.54357,0.16175 -0.69276,0.16175 -0.14919,0 -0.20218,0.18001 -0.11776,0.40001 0.24056,0.62689 -0.303,1.53406 -1.34856,2.25068 -0.76721,0.52583 -1.25177,0.64811 -2.43286,0.61397 -0.81116,-0.0234 -2.24874,-0.028 -3.19462,-0.0102 -2.72219,0.0513 -5.89746,-0.0413 -6.48663,-0.18917 -0.33688,-0.0846 -0.8362,0.10866 -1.32631,0.51321 l -0.78602,0.64882 21.16666,-0.0544 c 11.64167,-0.0299 22.0894,-0.0975 23.21719,-0.15017 l 2.05052,-0.0958 v -1.35493 c 0,-1.05384 -0.0706,-1.28438 -0.3175,-1.03743 -0.2154,0.2154 -1.45947,0.3175 -3.86885,0.3175 -3.13954,0 -3.51285,-0.0464 -3.21929,-0.40012 0.47024,-0.5666 0.64188,-2.44931 0.26473,-2.90376 -0.53739,-0.64751 -0.0455,-0.98299 1.14879,-0.78343 1.30702,0.2184 1.55272,0.50778 1.36219,1.60439 -0.15873,0.91365 0.0481,1.68917 0.45044,1.68917 0.29414,0 0.16372,-2.23599 -0.17471,-2.99532 -0.18394,-0.4127 -0.10532,-0.46927 0.54839,-0.39463 0.90383,0.10322 0.98778,0.1955 0.7475,0.82167 -0.10014,0.26094 -0.10659,0.5499 -0.0144,0.64215 0.21315,0.21313 0.95207,-0.77659 0.78348,-1.04938 -0.18378,-0.29736 0.62928,-0.54847 1.14057,-0.35227 0.37991,0.14578 0.34387,0.26759 -0.2682,0.90645 -0.68549,0.7155 -0.69426,0.76374 -0.28721,1.57968 0.2805,0.56229 0.61245,0.84165 1.00007,0.84165 0.57371,0 0.58014,-0.0483 0.57593,-4.32496 -0.003,-3.31085 -0.091,-4.42949 -0.37425,-4.77077 -0.32183,-0.38778 -0.30462,-0.49408 0.13229,-0.8166 0.32815,-0.24225 0.41055,-0.45605 0.2377,-0.61671 -0.25511,-0.2371 -5.78344,-1.39374 -7.40834,-1.54998 -0.94451,-0.0908 -7.80099,-1.21065 -11.93091,-1.94861 -3.58676,-0.6409 -3.75344,-0.64398 -3.02712,-0.0558 0.453,0.36682 0.53863,0.62834 0.39418,1.20386 -0.22817,0.90911 -1.09197,0.88639 -0.96379,-0.0254 0.054,-0.38436 -0.0554,-0.5888 -0.31512,-0.5888 -0.7211,0 -0.76211,0.56078 -0.0935,1.27827 1.7843,1.91464 1.44002,3.48824 -0.75075,3.43146 -0.42653,-0.0111 -1.26749,0.0639 -1.8688,0.16661 l -1.09329,0.18671 -0.0186,-2.53152 c -0.0103,-1.39234 0.0799,-2.53153 0.20031,-2.53153 0.12043,0 0.59103,-0.0744 1.04578,-0.16537 0.71853,-0.1437 0.82683,-0.0917 0.82683,0.39688 0,0.42333 -0.16342,0.56224 -0.66146,0.56224 -0.48507,0 -0.66146,0.14111 -0.66146,0.52916 0,0.35278 0.17639,0.52917 0.52917,0.52917 0.29398,0 0.52916,0.17639 0.52916,0.39688 0,0.21828 -0.17156,0.39687 -0.38126,0.39687 -0.51267,0 -0.68092,0.32501 -0.50885,0.98299 0.0984,0.3763 0.34073,0.53425 0.7808,0.50893 0.51077,-0.0294 0.63814,-0.1819 0.63829,-0.76432 1.2e-4,-0.47028 0.14054,-0.7276 0.39706,-0.7276 0.22049,0 0.39688,0.23519 0.39688,0.52917 0,0.29104 0.11906,0.52916 0.26458,0.52916 0.5191,0 0.25307,-1.24149 -0.39687,-1.85208 -0.85433,-0.80259 -0.91312,-2.22795 -0.10963,-2.65796 0.3035,-0.16243 0.4976,-0.34956 0.43132,-0.41583 -0.0663,-0.0663 -1.89218,-0.40382 -4.05756,-0.7501 -2.16538,-0.34628 -4.71096,-0.77311 -5.65684,-0.94852 -1.60638,-0.29789 -2.03385,-0.2568 -6.48229,0.6231 -5.441,1.07623 -9.91027,1.89915 -17.4625,3.21534 -2.91042,0.50722 -6.69065,1.18444 -8.40052,1.50494 l -3.10886,0.58272 -0.0443,3.06118 c -0.0807,5.56988 0.0906,10.19758 0.38413,10.38141 0.4347,0.27218 7.36187,-0.003 7.72821,-0.30729 z m 46.96534,-1.58899 c 0,-0.14552 0.14287,-0.26458 0.3175,-0.26458 0.24694,0 0.24694,-0.0706 0,-0.3175 -0.17463,-0.17463 -0.3175,-0.48079 -0.3175,-0.68036 0,-0.2923 0.0772,-0.28569 0.39687,0.034 0.21828,0.21828 0.39688,0.6435 0.39688,0.94494 0,0.31078 -0.17183,0.54806 -0.39688,0.54806 -0.21828,0 -0.39687,-0.11906 -0.39687,-0.26458 z m -15.34179,-0.62008 c 0.002,-0.3138 0.12129,-0.74914 0.26459,-0.96742 0.23158,-0.35278 0.28948,-0.35278 0.52106,0 0.42129,0.64177 0.3079,1.25093 -0.26053,1.39958 -0.40905,0.10697 -0.52825,0.009 -0.52512,-0.43216 z m 3.54777,0.32304 c -0.0752,-0.12165 0.015,-0.49154 0.20044,-0.82197 l 0.33715,-0.60078 0.0924,0.61091 c 0.073,0.48285 0.23485,0.59378 0.77192,0.52917 0.62453,-0.0751 0.68834,-0.2028 0.78872,-1.57796 0.0647,-0.88582 -0.005,-1.56681 -0.17079,-1.66926 -0.58367,-0.36073 -0.23519,-0.62749 1.05074,-0.80435 0.82685,-0.11372 1.45982,-0.0759 1.67164,0.0999 0.19439,0.16133 1.09936,0.24323 2.10575,0.19057 1.74363,-0.0912 1.76297,-0.0848 1.60713,0.53614 -0.0868,0.34567 -0.0726,0.83712 0.0315,1.09211 0.17376,0.42574 0.20647,0.42038 0.40027,-0.0656 0.11608,-0.29105 0.14992,-0.79706 0.0752,-1.12448 -0.11341,-0.49703 -0.0246,-0.59532 0.53767,-0.59532 0.62196,0 0.66201,0.0709 0.52323,0.92605 -0.0931,0.57385 -0.0429,0.92604 0.13216,0.92604 0.15535,0 0.31975,-0.38696 0.36535,-0.8599 0.0652,-0.67588 0.21827,-0.87903 0.71547,-0.94932 0.52327,-0.074 0.59843,-0.005 0.43503,0.39687 -0.78886,1.94222 -0.98338,2.79302 -0.70271,3.07368 0.54812,0.54812 0.32471,0.89698 -0.49717,0.77636 -0.70582,-0.1036 -0.79375,-0.21749 -0.79375,-1.02813 0,-0.57745 -0.10329,-0.84779 -0.28177,-0.73748 -0.15498,0.0958 -0.24427,0.53165 -0.19844,0.96861 0.0458,0.43695 -0.006,0.78234 -0.1151,0.76751 -0.10914,-0.0148 -0.4068,-0.0277 -0.66146,-0.0286 -0.37713,-0.001 -0.46836,-0.25459 -0.49178,-1.36528 -0.0209,-0.99353 -0.16034,-1.45986 -0.51359,-1.71816 -0.69977,-0.51168 -1.17744,-0.43612 -1.17744,0.18625 0,0.36824 0.14771,0.51596 0.46302,0.46302 0.26973,-0.0453 0.46302,0.0879 0.46302,0.31913 0,0.2312 -0.19329,0.36442 -0.46302,0.31913 -0.31531,-0.0529 -0.46302,0.0948 -0.46302,0.46302 0,0.59937 0.51496,0.71372 1.00541,0.22327 0.24695,-0.24695 0.3175,-0.15875 0.3175,0.39687 0,0.70888 -0.0144,0.71438 -1.87413,0.71438 -1.38587,0 -1.84338,-0.0862 -1.75609,-0.33073 0.12411,-0.34776 -0.50161,-1.78594 -0.77704,-1.78594 -0.0882,0 -0.0965,0.47625 -0.0184,1.05833 0.12659,0.94383 0.0803,1.06234 -0.42819,1.09535 -2.13552,0.13863 -2.58538,0.12709 -2.70686,-0.0695 z m 5.44402,-1.95192 c 0,-0.80036 -0.11907,-1.45521 -0.26459,-1.45521 -0.14552,0 -0.26458,0.65485 -0.26458,1.45521 0,0.80037 0.11906,1.45521 0.26458,1.45521 0.14552,0 0.26459,-0.65484 0.26459,-1.45521 z m -1.24734,-0.93016 c -0.0767,-0.29331 -0.24415,-0.59799 -0.3721,-0.67708 -0.26916,-0.16634 -0.32011,0.77013 -0.0563,1.03398 0.34784,0.34784 0.56528,0.16668 0.42836,-0.3569 z m -9.07141,2.53328 c 0,-0.22687 0.11906,-0.41249 0.26458,-0.41249 0.14552,0 0.26458,0.11203 0.26458,0.24897 0,0.13693 -0.11906,0.32255 -0.26458,0.41249 -0.14552,0.0899 -0.26458,-0.0221 -0.26458,-0.24897 z m 18.20333,0.0638 c 0.59042,-0.59043 0.36491,-1.89392 -0.48951,-2.82938 -0.44385,-0.48595 -0.77127,-0.91784 -0.7276,-0.95975 0.0437,-0.0419 0.49612,-0.11655 1.00544,-0.16589 0.87748,-0.085 0.92183,-0.0502 0.84568,0.663 -0.0561,0.52543 0.0238,0.71774 0.26459,0.63696 0.18972,-0.0636 0.34501,-0.34358 0.3451,-0.6221 1.4e-4,-0.43277 0.21168,-0.51191 1.45521,-0.54443 0.80027,-0.0209 1.60387,0.083 1.78578,0.23084 0.42658,0.3468 0.43697,3.167 0.0132,3.59075 -0.17462,0.17462 -0.6486,0.3175 -1.05329,0.3175 -0.8564,0 -1.1283,-0.66998 -0.96535,-2.37868 0.0556,-0.5835 0.0385,-1.06056 -0.0381,-1.06014 -0.19006,0.001 -1.20556,1.56851 -1.1654,1.79884 0.0177,0.10162 0.10929,0.51219 0.20348,0.91237 0.16335,0.69402 0.12584,0.72761 -0.81274,0.72761 -0.76533,0 -0.91345,-0.0706 -0.6665,-0.3175 z m 4.02166,-1.66688 c 0,-0.88194 -0.10289,-1.19062 -0.39687,-1.19062 -0.29398,0 -0.39688,0.30868 -0.39688,1.19062 0,0.88195 0.1029,1.19063 0.39688,1.19063 0.29398,0 0.39687,-0.30868 0.39687,-1.19063 z m -19.36419,1.27447 c 0.191,-0.0764 0.4192,-0.067 0.50712,0.0209 0.0879,0.0879 -0.0683,0.15045 -0.34726,0.13896 -0.30823,-0.0127 -0.37092,-0.0754 -0.15986,-0.15985 z m 0.84336,-0.33281 c 0,-0.6133 0.47497,-0.9694 0.82548,-0.61889 0.33214,0.33214 0.009,1.13244 -0.45691,1.13244 -0.20271,0 -0.36857,-0.2311 -0.36857,-0.51355 z m 0.14547,-2.26893 c -0.20675,-1.37873 -0.081,-1.68173 0.49837,-1.2009 0.2675,0.22201 0.34247,0.59119 0.23599,1.16219 -0.25156,1.34897 -0.53563,1.36394 -0.73436,0.0387 z m 1.06369,0.96038 c -0.16043,-0.25957 0.26204,-0.65297 0.97365,-0.90665 0.5348,-0.19064 0.56832,-0.0791 0.18913,0.62948 -0.28525,0.533 -0.9123,0.68247 -1.16278,0.27717 z m -25.62891,-1.55134 c -0.16885,-0.87898 -0.0571,-1.03686 0.44125,-0.62328 0.37109,0.30797 0.29497,1.35089 -0.0986,1.35089 -0.11159,0 -0.26578,-0.32742 -0.34266,-0.72761 z m -16.50064,-1.77119 c 0.096,-0.2502 0.17456,-0.98747 0.17456,-1.63838 v -1.18348 l 1.25677,0.0806 1.25677,0.0806 0.069,1.05834 c 0.092,1.41034 -0.10357,1.63344 -1.63265,1.86252 -1.16235,0.17413 -1.28067,0.14675 -1.12448,-0.26028 z m 2.1604,-0.94315 c 0.28902,-0.46764 -0.15066,-1.32055 -0.68075,-1.32055 -0.39177,0 -0.51134,0.18561 -0.51134,0.79375 0,0.60931 0.11933,0.79375 0.51355,0.79375 0.28246,0 0.5878,-0.12013 0.67854,-0.26695 z m 15.40448,1.16491 c -0.10506,-0.10506 -0.68191,-0.17178 -1.28189,-0.14827 -0.90772,0.0356 -1.03926,-0.0195 -0.78341,-0.32774 0.23594,-0.28429 0.22796,-0.39725 -0.0343,-0.48549 -0.27092,-0.0911 -0.26209,-0.21149 0.0426,-0.5805 0.33942,-0.41106 0.33104,-0.49536 -0.0717,-0.72075 -0.72414,-0.40525 -0.25119,-0.75188 1.02587,-0.75188 0.86806,0 1.17501,0.10368 1.17501,0.39688 0,0.21828 -0.1865,0.39687 -0.41445,0.39687 -0.62574,0 -0.36978,1.31414 0.3483,1.7882 0.59338,0.39173 0.59532,0.38816 0.59532,-1.09447 v -1.48752 h 1.05833 c 0.58208,0 1.05833,0.11906 1.05833,0.26458 0,0.14553 -0.23812,0.26459 -0.52916,0.26459 -0.29105,0 -0.52917,0.11906 -0.52917,0.26458 0,0.14552 0.11906,0.26458 0.26458,0.26458 0.38083,0 0.32655,0.72465 -0.0661,0.88311 -0.1819,0.0734 -0.0628,0.14285 0.26458,0.15434 0.89041,0.0312 0.76389,0.8138 -0.13229,0.81825 -0.40018,0.002 -0.96876,0.0684 -1.2635,0.14761 -0.29474,0.0792 -0.62185,0.0581 -0.72691,-0.047 z m 34.38619,-0.28816 c -0.90981,-0.4763 -1.36536,-1.40158 -1.13734,-2.31008 0.14749,-0.58764 0.314,-0.68097 1.21489,-0.68097 0.74871,0 1.11882,0.13983 1.30857,0.49438 0.14552,0.2719 0.17948,0.57967 0.0755,0.68392 -0.10402,0.10425 -0.18913,0.61482 -0.18913,1.1346 0,1.09075 -0.24,1.21866 -1.27245,0.67815 z m 0.74328,-1.93272 c -0.0899,-0.14552 -0.33509,-0.26458 -0.54478,-0.26458 -0.2097,0 -0.38126,0.11906 -0.38126,0.26458 0,0.14552 0.24515,0.26458 0.54478,0.26458 0.29963,0 0.4712,-0.11906 0.38126,-0.26458 z m -43.19459,1.78594 c -0.14553,-0.1819 -0.3448,-0.59253 -0.44281,-0.91251 -0.34943,-1.14075 1.58272,-2.20874 2.44178,-1.34968 0.54368,0.54368 0.35067,0.79017 -0.47647,0.60849 -0.60684,-0.13328 -0.83418,-0.0696 -0.9646,0.27027 -0.21759,0.56702 0.27984,0.87681 1.14297,0.71181 0.61698,-0.11794 0.64787,-0.0815 0.37046,0.43684 -0.34084,0.63686 -1.63252,0.78327 -2.07133,0.23478 z m 11.36267,-0.13229 c 0.049,-0.25466 0.2645,-0.46302 0.4788,-0.46302 0.21429,0 0.42975,0.20836 0.47879,0.46302 0.0626,0.32487 -0.0803,0.46302 -0.47879,0.46302 -0.39851,0 -0.54137,-0.13815 -0.4788,-0.46302 z m 6.25797,-0.99255 c -0.0756,-1.21415 -0.0181,-1.45551 0.34685,-1.45521 0.33616,2.7e-4 0.45872,0.30612 0.52917,1.32056 0.0827,1.19082 -0.0929,1.59022 -0.69922,1.59022 -0.0474,0 -0.12695,-0.65501 -0.1768,-1.45557 z m 16.44583,1.19098 c 0,-0.14552 0.11906,-0.26458 0.26458,-0.26458 0.14552,0 0.26458,0.11906 0.26458,0.26458 0,0.14553 -0.11906,0.26459 -0.26458,0.26459 -0.14552,0 -0.26458,-0.11906 -0.26458,-0.26459 z m -11.90625,-1.32291 v -1.32296 h 1.02593 c 1.24675,0 1.74885,0.50851 1.49617,1.51527 -0.22499,0.89647 -0.55675,1.1213 -1.66221,1.12651 -0.85603,0.004 -0.85989,-0.002 -0.85989,-1.31886 z m 1.85208,0.0283 c 0,-0.27548 -0.18833,-0.57313 -0.41852,-0.66146 -0.61739,-0.23692 -0.63981,-0.21936 -0.63981,0.50086 0,0.48506 0.14111,0.66145 0.52916,0.66145 0.34281,0 0.52917,-0.17639 0.52917,-0.50085 z m 7.60512,0.98653 c -0.40109,-0.14646 -0.65838,-0.38096 -0.57176,-0.52112 0.0975,-0.1578 0.29523,-0.14053 0.51923,0.0454 0.56493,0.46886 0.91408,0.0549 0.91408,-1.08387 0,-1.01189 0.0269,-1.04272 0.91042,-1.04272 0.50074,0 0.98401,0.11906 1.07395,0.26458 0.0924,0.14944 -0.12434,0.26458 -0.49794,0.26458 -0.82359,0 -1.16056,0.46075 -0.42154,0.5764 0.29896,0.0468 0.53104,0.20413 0.51573,0.34965 -0.0153,0.14552 -0.19861,0.22959 -0.40735,0.18683 -0.25056,-0.0513 -0.37952,0.15098 -0.37952,0.59532 0,0.7393 -0.39295,0.82594 -1.6553,0.36498 z m 8.54377,-0.0776 c -0.3796,-0.45739 -1.06764,-0.54987 -1.06764,-0.1435 0,0.14552 -0.1786,0.26458 -0.39688,0.26458 -0.48612,0 -0.49547,0.12847 0.10598,-1.45521 0.27633,-0.7276 0.6474,-1.32291 0.82461,-1.32291 0.42636,0 1.41372,2.52403 1.10724,2.8305 -0.13645,0.13645 -0.37635,0.0639 -0.57331,-0.17346 z m -0.40618,-1.20184 c 0.0899,-0.14552 0.0374,-0.26458 -0.11668,-0.26458 -0.15411,0 -0.2802,0.11906 -0.2802,0.26458 0,0.14553 0.0525,0.26459 0.11668,0.26459 0.0642,0 0.19026,-0.11906 0.2802,-0.26459 z m 5.06461,0.59532 c -0.28732,-1.73829 -0.25623,-1.79605 1.16241,-2.15963 1.17984,-0.30239 1.31263,-0.40647 1.16088,-0.90992 -0.26528,-0.88017 -0.57212,-1.08733 -1.0379,-0.70077 -0.48496,0.40248 -0.78901,0.16382 -1.01123,-0.79375 -0.14232,-0.61329 -0.0774,-0.66583 0.89189,-0.72154 0.88521,-0.0509 1.04538,0.0201 1.04538,0.46302 0,0.30407 0.17803,0.52311 0.42518,0.52311 0.28337,0 0.37028,0.14307 0.26058,0.42895 -0.10285,0.26802 0.0936,0.68712 0.52352,1.11707 l 0.68812,0.68812 -0.74392,0.19896 c -0.41925,0.11212 -0.85639,0.0865 -1.00162,-0.0587 -0.14173,-0.14173 -0.3757,-0.2577 -0.51993,-0.2577 -0.14423,0 -0.0423,0.16079 0.22641,0.35731 0.3405,0.24898 0.43941,0.54562 0.32623,0.97842 -0.0893,0.34161 -0.0296,0.78118 0.13279,0.97683 0.51774,0.62383 -0.15818,0.94772 -0.70858,0.33953 -0.64135,-0.70868 -1.28814,-0.71248 -1.06399,-0.006 0.11475,0.36153 0.0476,0.52916 -0.21213,0.52916 -0.23367,0 -0.44327,-0.38221 -0.54409,-0.99219 z m 1.68226,-1.12448 c 0,-0.14552 -0.23812,-0.26459 -0.52916,-0.26459 -0.29105,0 -0.52917,0.11907 -0.52917,0.26459 0,0.14552 0.23812,0.26458 0.52917,0.26458 0.29104,0 0.52916,-0.11906 0.52916,-0.26458 z m 1.59149,1.78594 c 0.006,-0.53193 0.67533,-2.30652 0.98687,-2.61805 0.39871,-0.39872 0.78258,-0.0947 1.39417,1.1041 0.62666,1.22835 0.6696,1.84467 0.12851,1.84467 -0.21828,0 -0.39687,-0.16585 -0.39687,-0.36856 0,-0.62315 -0.82516,-0.7591 -0.98139,-0.1617 -0.14972,0.57255 -1.13789,0.74684 -1.13129,0.19954 z m 3.58165,0.0168 c -0.0631,-0.19112 -0.15246,-0.91305 -0.19848,-1.60427 -0.0655,-0.98366 0.004,-1.25677 0.3176,-1.25677 0.22071,0 0.55,0.23812 0.73176,0.52917 0.18175,0.29104 0.44852,0.52916 0.59281,0.52916 0.14428,0 0.26234,-0.23812 0.26234,-0.52916 0,-0.29105 0.11177,-0.52917 0.24837,-0.52917 0.30351,0 0.66416,2.21924 0.45095,2.77488 -0.21115,0.55023 -0.63132,0.50202 -0.82054,-0.0942 -0.0863,-0.27185 -0.41014,-0.71834 -0.71968,-0.99219 -0.56251,-0.49765 -0.56272,-0.49747 -0.39879,0.35172 0.15919,0.82461 -0.23556,1.51938 -0.46634,0.82078 z m 3.74001,0.14308 c -0.10004,-0.10005 -0.1819,-0.63831 -0.1819,-1.19614 0,-0.74888 -0.1096,-1.01424 -0.41892,-1.01424 -0.23041,0 -0.36955,-0.14882 -0.3092,-0.33072 0.128,-0.3858 2.34114,-0.76475 2.67377,-0.45784 0.29944,0.2763 -0.12446,0.92086 -0.60562,0.92086 -0.26233,0 -0.38505,0.32006 -0.39688,1.03501 -0.0162,0.97784 -0.35804,1.44628 -0.76125,1.04307 z m -20.18625,-0.51222 c 0.0883,-0.23018 0.1606,-0.83234 0.1606,-1.33813 0,-0.91827 0.002,-0.9195 1.12448,-0.83825 1.09324,0.0791 1.12448,0.10709 1.12448,1.0074 0,0.50932 0.0963,1.07487 0.21405,1.25677 0.14546,0.22473 0.0485,0.33073 -0.30242,0.33073 -0.28406,0 -0.585,-0.1786 -0.66877,-0.39688 -0.0838,-0.21828 -0.27509,-0.39687 -0.42518,-0.39687 -0.15009,0 -0.27289,0.17859 -0.27289,0.39687 0,0.2272 -0.23833,0.39688 -0.55747,0.39688 -0.39964,0 -0.51201,-0.11849 -0.39688,-0.41852 z m 1.68747,-1.38396 c 0.0576,-0.17281 -0.0838,-0.3142 -0.3142,-0.3142 -0.2304,0 -0.41892,0.18852 -0.41892,0.41893 0,0.46723 0.56959,0.38586 0.73312,-0.10473 z m 19.90438,1.42764 c 0,-0.2304 0.18852,-0.41892 0.41892,-0.41892 0.46724,0 0.38587,0.56959 -0.10473,0.73312 -0.1728,0.0576 -0.31419,-0.0838 -0.31419,-0.3142 z m -42.2691,-2.86923 c -0.14318,-0.1803 -0.27664,-1.36961 -0.29658,-2.64292 -0.032,-2.0461 0.0178,-2.31508 0.42877,-2.31493 0.40496,1.5e-4 0.47548,0.3217 0.54588,2.48884 0.078,2.40005 -0.13039,3.15872 -0.67807,2.46901 z m 1.58447,0.003 c -0.36056,-0.44465 -0.56963,-3.3568 -0.29443,-4.10104 0.21808,-0.58976 0.84004,-0.75197 1.6668,-0.43471 0.26784,0.10278 0.41851,0.48379 0.41851,1.05833 0,0.97952 -0.49322,1.22462 -0.71991,0.35775 -0.25298,-0.9674 -0.73577,-0.36904 -0.71903,0.89117 0.0164,1.23692 0.22338,1.74633 0.56903,1.40067 0.10363,-0.10363 0.0511,-0.40829 -0.11672,-0.67703 -0.37017,-0.59273 -0.2134,-0.79776 0.47279,-0.61831 0.41015,0.10725 0.51384,0.36841 0.51384,1.29414 0,1.10127 -0.0384,1.15976 -0.76135,1.15976 -0.41874,0 -0.88203,-0.14882 -1.02953,-0.33072 z m 2.32005,0.1165 c 0,-0.6612 0.87181,-4.44301 1.07337,-4.65611 0.43631,-0.46133 0.96971,0.3767 1.12234,1.76332 0.084,0.76298 0.23451,1.77419 0.33449,2.24713 0.14137,0.66875 0.0936,0.85989 -0.2151,0.85989 -0.23176,0 -0.46481,-0.33968 -0.56017,-0.81648 -0.18714,-0.93569 -0.738,-0.92266 -0.96118,0.0227 -0.14431,0.61132 -0.79375,1.08548 -0.79375,0.57952 z m 1.5875,-2.28369 c 0,-0.0642 -0.11906,-0.19026 -0.26458,-0.2802 -0.14553,-0.0899 -0.26459,-0.0374 -0.26459,0.11668 0,0.1541 0.11906,0.28019 0.26459,0.28019 0.14552,0 0.26458,-0.0525 0.26458,-0.11667 z m 1.46811,2.1672 c -0.0565,-0.18191 -0.1606,-1.313 -0.23126,-2.51355 l -0.12848,-2.18281 h 0.78613 c 1.57617,0 1.75505,0.28539 1.74356,2.78183 -0.0113,2.45051 -0.41571,2.93673 -0.80507,0.96786 -0.28899,-1.46134 -0.71632,-1.40958 -0.71632,0.0868 0,1.0963 -0.40728,1.63629 -0.64856,0.8599 z m 1.44231,-3.24115 c 0,-0.21828 -0.1786,-0.39688 -0.39688,-0.39688 -0.21828,0 -0.39687,0.1786 -0.39687,0.39688 0,0.21828 0.17859,0.39687 0.39687,0.39687 0.21828,0 0.39688,-0.17859 0.39688,-0.39687 z m 1.499,3.37344 c -0.0659,-0.10914 -0.16217,-1.21047 -0.21405,-2.4474 l -0.0943,-2.24896 0.8599,-0.0829 c 0.6388,-0.0616 0.85989,0.0234 0.85989,0.33073 0,0.2275 -0.0893,0.41546 -0.19844,0.41769 -0.84154,0.0172 -1.00945,1.31887 -0.17012,1.31887 0.20271,0 0.36856,0.17859 0.36856,0.39687 0,0.21828 -0.17859,0.39688 -0.39687,0.39688 -0.21828,0 -0.39688,0.22324 -0.39688,0.49609 0,0.33955 0.25048,0.54619 0.79375,0.65485 1.22602,0.2452 1.04027,0.96572 -0.24897,0.96572 -0.57349,0 -1.09659,-0.0893 -1.16244,-0.19843 z m 2.66518,0.014 c -0.0647,-0.11683 -0.14453,-0.98005 -0.17739,-1.91827 -0.0418,-1.19362 -0.18479,-1.79731 -0.47619,-2.01039 -0.61369,-0.44874 -0.17052,-0.91396 0.87064,-0.91396 0.90445,0 1.26699,0.54215 0.62703,0.93767 -0.17192,0.10625 -0.24998,0.9084 -0.19844,2.03927 0.0567,1.24334 -0.0171,1.89975 -0.22153,1.9711 -0.16856,0.0588 -0.35942,0.0114 -0.42412,-0.10543 z m 2.36772,0.0136 c -0.10005,-0.10006 -0.1819,-0.99924 -0.1819,-1.9982 0,-1.37041 -0.0974,-1.85368 -0.39688,-1.96859 -0.61481,-0.23593 -0.4697,-0.88899 0.19844,-0.89304 0.32742,-0.002 0.8632,-0.0754 1.19062,-0.16315 0.44108,-0.11821 0.59532,-0.0466 0.59532,0.2765 0,0.23982 -0.19054,0.50915 -0.42341,0.59851 -0.34825,0.13364 -0.40695,0.51531 -0.33073,2.1505 0.0865,1.85444 -0.1302,2.51872 -0.65146,1.99746 z m -18.05175,-0.37524 c -0.34554,-0.5591 -0.25089,-4.66811 0.11776,-5.11231 0.40633,-0.4896 1.15298,-0.54995 1.89448,-0.15311 0.60355,0.32301 0.70493,1.71204 0.14077,1.92853 -0.48985,0.18797 -0.68733,-0.0394 -0.68733,-0.79131 0,-0.33955 -0.11906,-0.61736 -0.26458,-0.61736 -0.15313,0 -0.26459,0.84519 -0.26459,2.00642 0,1.4912 0.0849,1.97636 0.33073,1.88933 0.1819,-0.0644 0.30832,-0.43151 0.28092,-0.81579 -0.0379,-0.53204 0.0725,-0.69871 0.46302,-0.69871 0.41742,0 0.51283,0.18706 0.51283,1.00541 0,0.55298 -0.14287,1.1483 -0.3175,1.32292 -0.39303,0.39304 -1.96994,0.41875 -2.20651,0.036 z m 26.52568,-0.44938 c -0.24956,-0.27577 -0.45375,-0.64084 -0.45375,-0.81129 0,-0.4144 0.71428,-0.39755 0.8831,0.0208 0.0734,0.1819 0.14285,0.0628 0.15434,-0.26459 0.0213,-0.60529 -0.58139,-1.37213 -1.4684,-1.86853 -0.26987,-0.15102 -0.40857,-0.3567 -0.30822,-0.45705 0.10035,-0.10035 0.7542,0.14718 1.45301,0.55007 2.56476,1.47868 3.12306,1.70937 4.13701,1.70937 0.83182,0 0.97742,-0.0691 0.74229,-0.35244 -0.21679,-0.26121 -0.19488,-0.48379 0.0846,-0.8599 0.36987,-0.49767 0.38814,-0.4966 0.94812,0.0556 1.68458,1.66124 -2.36193,2.69444 -4.36913,1.11557 l -0.66925,-0.52643 v 0.6301 c 0,0.34655 -0.153,0.83933 -0.34,1.09507 -0.32282,0.44148 -0.36294,0.43963 -0.79375,-0.0364 z m -35.59721,-0.41063 c -0.70391,-0.74928 -0.7363,-1.39951 -0.087,-1.74699 0.64393,-0.34462 1.83542,0.40609 1.3751,0.86641 -0.22081,0.22081 -0.35979,0.19775 -0.53708,-0.0891 -0.29792,-0.48205 -0.65427,-0.17515 -0.44123,0.38002 0.10501,0.27365 0.505,0.40828 1.21302,0.40828 0.86217,0 1.33056,-0.22336 2.5482,-1.21514 1.5873,-1.29287 3.14416,-2.08198 3.57827,-1.81368 0.14507,0.0896 -0.247,0.42086 -0.87125,0.73602 -0.72231,0.36466 -1.22518,0.8357 -1.383,1.29545 -0.27482,0.80063 0.007,1.33577 0.38308,0.72732 0.17181,-0.278 0.31996,-0.30622 0.52599,-0.10019 0.20603,0.20603 0.16563,0.3874 -0.14345,0.64391 -0.62352,0.51747 -1.3273,-0.0134 -1.25645,-0.94782 l 0.0555,-0.73196 -0.84926,0.78591 c -1.62359,1.50249 -3.16885,1.80383 -4.11042,0.80157 z m 47.74778,0.21549 c 0.17183,-0.44779 -0.56302,-0.56487 -0.83036,-0.13229 -0.20447,0.33083 -0.42123,0.3287 -0.92605,-0.009 -0.34351,-0.22986 -0.32782,-0.31825 0.11672,-0.65741 0.48069,-0.36674 0.42577,-0.42782 -0.44744,-0.49768 -0.39415,-0.0315 -0.71794,-0.42818 -0.72356,-0.88635 -0.005,-0.39736 0.76343,-0.42822 1.70917,-0.0686 0.5887,0.22382 0.64779,0.3397 0.40479,0.79375 -0.33597,0.62775 0.1142,0.751 0.46347,0.1269 0.20228,-0.36146 0.33799,-0.3582 1.26834,0.0305 0.573,0.23941 1.63646,0.4353 2.36324,0.4353 1.53236,0 2.626,0.3442 2.37647,0.74794 -0.10469,0.1694 -1.05836,0.25955 -2.40339,0.2272 -1.2264,-0.0295 -2.3064,0.023 -2.4,0.11655 -0.35453,0.35453 -1.12541,0.17462 -0.9714,-0.22671 z m -51.07658,-0.29584 c -0.0958,-0.24976 -0.0593,-0.56907 0.0812,-0.70958 0.38233,-0.38233 1.1369,0.0102 1.03516,0.53856 -0.11924,0.61914 -0.8986,0.73854 -1.11638,0.17102 z m 23.8146,-4.82031 c -0.0875,-0.1416 -0.63534,-0.19357 -1.21739,-0.1155 -0.88805,0.11912 -1.05828,0.0669 -1.05828,-0.32438 0,-0.38969 0.16032,-0.44032 0.97545,-0.30804 0.58155,0.0944 1.12445,0.0346 1.3444,-0.1479 0.27711,-0.22998 0.48935,-0.231 0.85264,-0.004 0.27169,0.16967 0.90009,0.23449 1.43372,0.1479 0.77393,-0.12559 0.95004,-0.0719 0.95004,0.28951 0,0.35261 -0.23083,0.43451 -1.12448,0.39897 -0.61847,-0.0246 -1.3208,0.0376 -1.56074,0.13814 -0.23994,0.10057 -0.50786,0.067 -0.59536,-0.0746 z m -12.46386,17.15613 c 0.21923,-0.18195 0.3986,-0.41111 0.3986,-0.50924 0,-0.0981 -1.95317,-0.206 -4.34037,-0.2397 -4.2214,-0.0596 -8.08048,0.38996 -8.72734,1.01671 -0.39707,0.38471 12.20381,0.11838 12.66911,-0.26777 z m 1.37604,-0.12038 0.74235,-0.64812 -0.66145,0.15716 c -0.75669,0.17979 -1.32292,0.56795 -1.32292,0.90688 0,0.41011 0.47996,0.24939 1.24202,-0.41592 z m 13.15554,-0.93094 c 0.75246,-0.28608 1.74202,-1.19653 1.74202,-1.60275 0,-0.15555 -0.33316,-0.0991 -0.78061,0.13229 -0.42934,0.22202 -1.02947,0.40367 -1.33363,0.40367 -0.79316,0 -2.21723,1.09515 -1.78893,1.37573 0.34192,0.224 1.01098,0.12835 2.16115,-0.30894 z m -2.02829,-0.87567 c 0.38316,-0.29648 0.40296,-0.46144 0.11067,-0.92189 -0.16348,-0.25752 -0.40464,-0.26673 -1.05429,-0.0403 -0.94131,0.32814 -0.94894,0.34201 -0.5737,1.04316 0.26853,0.50176 0.8009,0.47333 1.51732,-0.081 z m -18.22765,-1.14877 c 0.0826,-0.43382 0.006,-0.41539 -0.59531,0.14388 -0.37954,0.35279 -0.69006,0.75426 -0.69006,0.89217 0,0.439 1.18662,-0.51745 1.28537,-1.03605 z m 2.26256,0.71953 c 0.43889,-0.48496 0.42163,-0.50271 -0.4889,-0.50271 -1.02347,0 -1.49422,0.3964 -0.91012,0.76636 0.55593,0.35212 0.90053,0.28718 1.39902,-0.26365 z m -8.67347,-0.18638 c 1.25607,-0.52045 1.72553,-0.88491 1.53563,-1.19217 -0.0795,-0.12859 -0.60125,0.0291 -1.15951,0.35036 -0.85699,0.49322 -1.08079,0.52958 -1.43753,0.23351 -0.27519,-0.22839 -0.36728,-0.57074 -0.2641,-0.98184 0.24227,-0.9653 -0.58004,-0.80588 -0.92337,0.17901 -0.20889,0.59922 -0.19906,0.94371 0.0378,1.32291 0.38951,0.62371 0.87226,0.64298 2.21112,0.0882 z m 4.72866,-0.36925 c 0.69444,-0.72483 0.71379,-0.79375 0.2228,-0.79375 -0.50097,0 -1.07675,0.47574 -1.52108,1.25678 -0.36945,0.64941 0.54493,0.32331 1.29828,-0.46303 z m 5.42396,0.39688 c 0.18374,-0.22139 0.21239,-0.39688 0.0648,-0.39688 -0.14552,0 -0.41281,0.1786 -0.59396,0.39688 -0.18374,0.22139 -0.21239,0.39687 -0.0648,0.39687 0.14552,0 0.41281,-0.17859 0.59396,-0.39687 z m 47.73766,-0.48492 c -0.19231,-0.50115 -0.5295,-0.57233 -0.78128,-0.16495 -0.23015,0.3724 0.42314,1.13347 0.719,0.83762 0.12735,-0.12736 0.15538,-0.43006 0.0623,-0.67267 z m -29.93578,-0.0926 c 0.90862,-0.45786 0.70577,-0.87885 -0.42114,-0.87403 -1.48776,0.006 -2.05538,0.2575 -1.77331,0.78456 0.13693,0.25584 0.16409,0.55004 0.0604,0.65376 -0.27799,0.27798 1.2803,-0.13405 2.13408,-0.56429 z m 26.86496,0.13527 c -0.12464,-0.84706 -0.74601,-0.93778 -0.74601,-0.10891 0,0.44463 0.14514,0.6835 0.41528,0.6835 0.27579,0 0.38688,-0.193 0.33073,-0.57459 z m -54.43903,-1.02222 c 0.28148,-0.15064 0.51178,-0.43556 0.51178,-0.63315 0,-0.19759 0.17859,-0.42779 0.39687,-0.51155 0.21828,-0.0838 0.39688,-0.45369 0.39688,-0.82206 0,-0.51367 -0.13566,-0.66976 -0.58209,-0.66976 -0.45273,0 -0.51152,0.0705 -0.26458,0.3175 0.44252,0.44252 0.40162,1.09431 -0.0576,0.91809 -0.42435,-0.16284 -1.74156,0.86012 -1.74156,1.35252 0,0.39429 0.65015,0.41777 1.34031,0.0484 z m 54.26188,-0.91673 c 0,-0.13825 -0.12799,-0.29402 -0.28443,-0.34616 -0.15643,-0.0522 -0.28443,0.10362 -0.28443,0.34616 0,0.24254 0.128,0.39831 0.28443,0.34616 0.15644,-0.0521 0.28443,-0.20792 0.28443,-0.34616 z m -54.27927,-1.27119 c 0,-0.44344 -0.0857,-0.4235 -0.81405,0.18934 -0.44773,0.37673 -0.95374,0.6868 -1.12448,0.68903 -0.18534,0.002 -0.15533,0.10216 0.0745,0.24753 0.5234,0.3311 1.86405,-0.47867 1.86405,-1.1259 z m 27.16323,0.21379 c 1.19935,-0.53748 2.32883,-1.66657 1.75181,-1.75119 -0.86533,-0.12691 -3.79501,1.34155 -4.59173,2.30154 -0.33621,0.4051 -0.28826,0.42703 0.55271,0.25278 0.50647,-0.10494 1.53571,-0.46635 2.28721,-0.80313 z m -21.97962,-1.7676 c 0.34226,-0.66185 0.34028,-0.74688 -0.0174,-0.74688 -0.22728,0 -0.40367,0.23123 -0.40367,0.52917 0,0.29398 -0.17639,0.52917 -0.39688,0.52917 -0.22811,0 -0.39687,0.23878 -0.39687,0.56156 0,0.47968 0.0604,0.51142 0.41432,0.21771 0.22788,-0.18912 0.58812,-0.67995 0.80054,-1.09073 z m -7.56486,-0.74085 c 0,-0.88814 -0.31138,-1.32894 -0.93873,-1.32894 -0.81551,0 -1.11915,0.52489 -0.41081,0.71012 0.6372,0.16663 0.7529,0.61279 0.15891,0.61279 -0.62473,0 -0.46292,0.48148 0.19844,0.59048 0.78574,0.1295 0.99219,0.008 0.99219,-0.58445 z m 2.11667,-0.27913 c 0,-0.86326 -0.11362,-1.10985 -0.59532,-1.29208 -0.73918,-0.27965 -0.75289,-0.26628 -0.90822,0.88637 -0.10948,0.81242 -0.0528,0.9434 0.408,0.9434 0.29433,0 0.60872,0.11906 0.69866,0.26458 0.29677,0.48019 0.39688,0.27782 0.39688,-0.80227 z m 17.72708,0.14081 c 0,-0.21828 -0.10633,-0.39687 -0.23628,-0.39687 -0.12995,0 -0.3048,0.17859 -0.38857,0.39687 -0.0928,0.24176 -5.3e-4,0.39688 0.23628,0.39688 0.21371,0 0.38857,-0.1786 0.38857,-0.39688 z m 12.43542,-0.13229 c 0,-0.14552 -0.11204,-0.26458 -0.24897,-0.26458 -0.13693,0 -0.32256,0.11906 -0.41249,0.26458 -0.0899,0.14552 0.0221,0.26458 0.24896,0.26458 0.22687,0 0.4125,-0.11906 0.4125,-0.26458 z m -34.13125,-6.89454 c 1.03206,-0.276 2.37675,-1.85535 1.78608,-2.09778 -0.22797,-0.0936 -0.34518,-0.93377 -0.37686,-2.70145 -0.0438,-2.44578 -0.0828,-2.60648 -0.83487,-3.43958 -3.05261,-3.38166 -2.87245,-3.0565 -3.07679,-5.55339 l -0.18808,-2.2982 0.74994,0.19845 c 0.68378,0.18094 0.77395,0.34871 1.02191,1.90132 0.22687,1.42051 0.36387,1.71617 0.82622,1.78301 0.69417,0.10037 0.81405,-0.2526 0.67849,-1.99767 -0.0814,-1.0482 -0.28216,-1.57496 -0.81928,-2.14995 -0.82057,-0.87841 -2.5781,-1.30513 -3.45112,-0.8379 -0.62323,0.33353 -0.70041,1.48091 -0.30552,4.54135 0.20912,1.6207 0.34579,1.89512 1.81536,3.64538 1.71355,2.04082 1.85775,2.45398 1.94365,5.56908 0.0543,1.97064 0.0541,1.97131 -0.71728,2.18154 -1.31238,0.35765 -1.4331,0.16532 -1.4331,-2.2831 0,-1.95169 -0.0675,-2.28405 -0.51178,-2.52184 -1.17563,-0.62918 -1.25277,-0.14744 -0.64464,4.02558 0.11523,0.79067 0.0593,0.99219 -0.27554,0.99219 -0.61036,0 -0.5179,0.29557 0.30748,0.98296 0.75801,0.63129 1.3327,0.64112 3.50573,0.06 z m 61.64791,0.42256 c 0,-0.0671 -0.25405,-0.35867 -0.56455,-0.64795 -0.55732,-0.51922 -0.56264,-0.61936 -0.41479,-7.81181 0.0824,-4.00721 0.22439,-7.40657 0.31559,-7.55413 0.24159,-0.39091 1.19292,-0.3287 1.19292,0.078 0,0.19047 0.1696,0.57742 0.37689,0.85989 0.33578,0.45757 0.36074,0.32599 0.22878,-1.2062 -0.0815,-0.94588 -0.17322,-1.75108 -0.2039,-1.78933 -0.0307,-0.0382 -0.87777,0.13006 -1.88242,0.37401 -1.00465,0.24396 -2.27313,0.54773 -2.81883,0.67505 l -0.99219,0.2315 v 1.4294 c 0,1.78503 0.34522,2.04135 0.89586,0.66516 0.29661,-0.74129 0.58133,-1.05662 0.95408,-1.05662 0.29222,0 0.53508,0.14883 0.5397,0.33073 0.005,0.1819 0.001,3.36682 -0.008,7.0776 -0.0156,6.38771 -0.0447,6.77505 -0.54677,7.27605 l -0.53035,0.52916 1.39828,0.30104 c 1.65232,0.35573 2.05974,0.40289 2.05974,0.23844 z M 148.72526,162.311 c 0.11862,-0.0681 0.0108,-0.35019 -0.23958,-0.62687 -0.40493,-0.44744 -0.43436,-0.90522 -0.2662,-4.14092 0.23013,-4.42795 0.49178,-6.27676 0.77258,-5.45895 0.3836,1.11722 1.23582,6.88536 1.23656,8.36952 8.2e-4,1.63829 0.0277,1.66149 1.56786,1.35346 l 0.83949,-0.1679 -0.59105,-0.62915 c -0.58766,-0.62554 -0.58922,-0.65074 -0.27092,-4.39616 0.36487,-4.29348 0.78928,-7.09151 1.13124,-7.45796 0.41643,-0.44624 0.25423,-0.64435 -0.75763,-0.92535 -1.36815,-0.37996 -1.41658,-0.3638 -1.08578,0.36223 0.33058,0.72555 0.0657,4.65094 -0.31387,4.65094 -0.12651,0 -0.29779,-0.38696 -0.38063,-0.8599 -0.0828,-0.47294 -0.24975,-1.41629 -0.37091,-2.09632 -0.12115,-0.68004 -0.12013,-1.39442 0.002,-1.5875 0.44438,-0.70093 0.2076,-0.98357 -0.97217,-1.16049 -1.3113,-0.19664 -1.67585,-0.0546 -1.23204,0.48021 0.20586,0.24804 0.19786,0.9133 -0.0284,2.36629 -0.17314,1.11168 -0.38682,2.09295 -0.47483,2.18059 -0.088,0.0876 -0.31623,-0.75374 -0.50712,-1.86972 -0.38888,-2.27339 -0.39624,-2.4342 -0.13955,-3.05017 0.14771,-0.35446 -0.0594,-0.48919 -1.0896,-0.70892 -0.69958,-0.14921 -1.32456,-0.2187 -1.38883,-0.15443 -0.0643,0.0643 0.11941,0.44282 0.40819,0.84122 0.31881,0.43981 0.6595,1.60777 0.86731,2.9733 0.18824,1.23693 0.44182,2.66568 0.56352,3.175 0.71042,2.97317 1.12326,7.44378 0.77257,8.36616 -0.24251,0.63786 -0.22547,0.64875 0.74183,0.47422 0.54452,-0.0982 1.0871,-0.23434 1.20572,-0.30243 z m 50.95897,-0.57237 c 0.44879,-0.56665 0.81598,-1.09636 0.81598,-1.17713 0,-0.0808 -0.42905,0.0324 -0.95344,0.25152 -0.5567,0.2326 -1.26561,0.32981 -1.70361,0.23361 l -0.75015,-0.16476 -0.0823,-2.9591 c -0.0453,-1.6275 -0.009,-3.05669 0.0816,-3.17598 0.0902,-0.11928 0.53667,0.23527 0.99219,0.78789 l 0.82821,1.00477 v -2.02904 c 0,-2.01717 -0.36565,-2.93615 -0.67611,-1.69922 -0.0893,0.35601 -0.39049,0.70692 -0.66921,0.7798 -0.47276,0.12363 -0.50676,-0.0344 -0.50676,-2.35625 v -2.48877 h 1.02748 c 0.83084,0 1.06512,0.11392 1.22421,0.59531 l 0.19674,0.59532 0.12165,-0.62998 c 0.0669,-0.34648 0.0453,-1.03705 -0.0481,-1.53459 -0.14781,-0.78786 -0.24468,-0.87981 -0.75055,-0.7124 -0.31946,0.10571 -1.831,0.43909 -3.35897,0.74084 l -2.77812,0.54863 -0.13229,5.82083 c -0.14438,6.35236 -0.004,5.85875 -1.62496,5.73264 -0.56544,-0.044 -0.56623,-0.055 -0.37483,-5.23931 0.1055,-2.85736 0.25415,-5.35767 0.33035,-5.55625 0.0889,-0.23176 -0.0533,-0.36104 -0.39728,-0.36104 -1.24942,0 -1.24541,-0.018 -1.15764,5.20208 0.0613,3.64502 -5.3e-4,4.98395 -0.23665,5.12991 -0.4586,0.28343 0.69415,2.07082 1.43234,2.22092 2.23141,0.45372 2.46424,0.43311 3.17881,-0.28147 0.76331,-0.76331 0.85171,-1.03515 0.4228,-1.30023 -0.26977,-0.16673 -0.29785,-6.58942 -0.043,-9.84673 0.11681,-1.49322 0.45191,-1.73981 1.21636,-0.8951 0.39826,0.44007 0.43882,1.18857 0.37174,6.85919 l -0.0753,6.36522 1.45521,0.2506 c 0.80037,0.13783 1.5345,0.26589 1.63141,0.28457 0.0969,0.0187 0.5434,-0.42966 0.99219,-0.9963 z m -43.72183,-0.5844 1.67532,-0.29175 v -1.16346 c 0,-1.29598 -0.11201,-1.39397 -0.75134,-0.65729 -0.24161,0.2784 -0.70718,0.58408 -1.0346,0.67929 -0.49418,0.1437 -0.59733,0.0689 -0.60718,-0.44003 -0.007,-0.33723 -0.0759,-1.23822 -0.15424,-2.00221 -0.1265,-1.23429 -0.0869,-1.38906 0.35583,-1.38906 0.27401,0 0.63472,0.13652 0.80158,0.30339 0.22812,0.22812 0.29569,-0.0344 0.27237,-1.05834 -0.0318,-1.39379 -0.25606,-1.69689 -0.68652,-0.92769 -0.51252,0.91581 -0.86271,0.0705 -0.78705,-1.89988 0.0825,-2.14839 0.0538,-2.12866 2.03253,-1.39842 0.84608,0.31225 0.93928,0.15204 0.45562,-0.78324 -0.47592,-0.92033 -0.76654,-1.05708 -2.73931,-1.28894 -1.46024,-0.17162 -1.47273,-0.16718 -1.30401,0.46336 0.0937,0.35015 0.17197,3.22624 0.17395,6.39132 0.003,4.21007 0.0866,5.75469 0.31267,5.75469 0.16998,0 1.06295,-0.13128 1.98438,-0.29174 z m 31.71269,0.0156 c 0.0939,-0.1519 0.0281,-0.44804 -0.14628,-0.65809 -0.17433,-0.21006 -0.23464,-0.59179 -0.13402,-0.84831 0.10063,-0.25651 0.16832,-2.27237 0.15045,-4.47968 -0.027,-3.336 0.0332,-4.0281 0.35703,-4.10104 0.30306,-0.0683 0.24463,-0.25514 -0.26324,-0.84185 -0.64686,-0.74728 -0.66748,-0.7515 -2.28293,-0.46694 -0.8966,0.15793 -1.76764,0.43774 -1.93566,0.6218 -0.22002,0.24102 -0.25127,1.33402 -0.1117,3.90653 0.12581,2.31872 0.10045,3.63106 -0.0723,3.74057 -0.16334,0.10358 -0.0321,0.585 0.34001,1.24705 0.52347,0.93139 0.76127,1.10162 1.74491,1.24913 0.62637,0.0939 1.27633,0.33643 1.44435,0.53889 0.36373,0.43826 0.6758,0.46982 0.90934,0.0919 z m -2.4899,-2.65556 c -0.57584,-0.23043 -0.61608,-0.35866 -0.46302,-1.47537 0.0922,-0.67265 0.16763,-2.27795 0.16763,-3.56733 0,-2.32422 0.006,-2.34432 0.66146,-2.34432 h 0.66146 v 3.83646 c 0,2.11005 -0.0893,3.82891 -0.19844,3.81969 -0.10914,-0.009 -0.48223,-0.13034 -0.82909,-0.26913 z m -23.81731,1.72095 c 0.38896,-0.1125 1.03234,-1.16008 1.03234,-1.68091 0,-0.12152 -0.44649,-0.0616 -0.99219,0.13313 -1.60557,0.57298 -1.65365,0.53779 -1.65365,-1.21019 0,-1.39567 0.0621,-1.5875 0.51417,-1.5875 0.28279,0 0.69951,0.26462 0.92604,0.58804 0.39183,0.55942 0.41188,0.50868 0.41188,-1.04272 0,-1.64585 -0.34812,-2.38466 -0.66024,-1.40124 -0.0931,0.29315 -0.39928,0.533 -0.68051,0.533 -0.45295,0 -0.51134,-0.19637 -0.51134,-1.71979 0,-1.93773 0.0629,-1.97988 1.78594,-1.19775 1.22834,0.55757 1.40208,0.37671 0.83459,-0.8688 -0.23746,-0.52117 -0.62054,-0.69863 -2.11806,-0.98119 -1.0055,-0.18973 -1.85731,-0.29597 -1.89292,-0.23611 -0.0356,0.0599 -0.0302,2.5922 0.012,5.62741 l 0.0767,5.51856 1.24618,-0.17582 c 0.6854,-0.0967 1.43648,-0.23085 1.66906,-0.29812 z m 5.26567,-1.19238 c 0,-0.11901 -0.1615,-0.31159 -0.35889,-0.42796 -0.25504,-0.15036 -0.40186,-1.11117 -0.50741,-3.32044 -0.15911,-3.33045 -0.11905,-3.42651 1.13088,-2.71198 0.81294,0.46472 1.27536,0.50807 0.84667,0.0794 -0.17463,-0.17462 -0.3175,-0.58311 -0.3175,-0.90775 0,-0.50707 -0.23306,-0.64388 -1.65365,-0.97078 -1.84513,-0.42458 -2.15391,-0.30331 -2.46601,0.96853 -0.16816,0.68528 -0.13227,0.7399 0.37946,0.57748 0.54863,-0.17413 0.56682,-0.10325 0.62063,2.41813 0.0783,3.6713 0.0628,4.13107 -0.15565,4.6129 -0.17284,0.38119 -0.048,0.39902 1.14373,0.16338 0.73576,-0.14548 1.33774,-0.36188 1.33774,-0.48088 z m 14.98456,-0.12758 c 0.36748,-0.56085 0.43428,-1.26987 0.38478,-4.08445 -0.0368,-2.09486 0.0525,-3.61586 0.23219,-3.95155 0.33048,-0.6175 0.12637,-0.67793 -0.93145,-0.27574 l -0.7102,0.27002 0.11737,3.57952 c 0.0646,1.96874 0.0182,3.64086 -0.10314,3.71581 -0.12128,0.075 -0.46659,0.0582 -0.76736,-0.0373 -0.5229,-0.16596 -0.54308,-0.32945 -0.46066,-3.73281 l 0.0862,-3.55925 -0.60469,0.0777 c -0.59666,0.0767 -0.60511,0.12841 -0.63581,3.89218 -0.0299,3.66197 -0.007,3.83385 0.56787,4.29947 0.90311,0.7313 2.28073,0.63686 2.8249,-0.19364 z m -9.36805,-0.98277 c 0.5329,-0.68489 0.61166,-2.05873 0.1448,-2.52559 -0.24958,-0.24958 -0.25282,-0.43825 -0.0141,-0.8205 0.2178,-0.34875 0.2343,-0.77056 0.0555,-1.41821 -0.22129,-0.80143 -0.40752,-0.96035 -1.42598,-1.2168 -1.86543,-0.46972 -2.73243,-0.32639 -2.06472,0.34132 0.30834,0.30835 0.32412,5.50207 0.0184,6.07322 -0.26253,0.49055 -0.20351,0.50599 1.27684,0.33421 1.15304,-0.13381 1.66963,-0.33117 2.00923,-0.76765 z m -1.91234,-1.35297 c 0,-0.96285 0.14107,-1.08667 0.9044,-0.79375 0.43976,0.16875 0.59456,1.4269 0.17557,1.4269 -0.13362,0 -0.43128,0.0723 -0.66146,0.1606 -0.33396,0.12815 -0.41851,-0.0322 -0.41851,-0.79375 z m -0.10399,-2.16662 c -0.27966,-0.72878 -0.17413,-1.43357 0.21464,-1.43357 1.1642,0 1.5454,0.68741 0.79649,1.43631 -0.52691,0.52691 -0.80818,0.52615 -1.01113,-0.003 z m 6.55999,3.34651 c 0.3728,-0.64069 0.43508,-0.93965 0.2113,-1.01424 -0.21461,-0.0715 -0.3173,-0.85881 -0.3173,-2.43257 0,-2.69125 -0.16251,-2.93707 -1.72442,-2.60844 -1.13017,0.23779 -2.02907,1.18223 -1.45998,1.53395 0.19347,0.11957 0.28479,0.91192 0.25123,2.17985 -0.0421,1.59069 0.0482,2.13209 0.44803,2.68742 0.73046,1.01442 1.88962,0.85965 2.59114,-0.34597 z m -1.95809,-2.39883 c 0,-1.65237 0.0824,-2.11666 0.37582,-2.11666 0.26715,0 0.42891,0.49579 0.55944,1.71466 0.20376,1.90271 0.0741,2.51867 -0.53008,2.51867 -0.33008,0 -0.40518,-0.39229 -0.40518,-2.11667 z m -1.80798,-4.73828 c 0.0485,-0.13221 1.04069,-0.31245 2.20486,-0.40053 2.98226,-0.22566 4.34914,-0.44129 4.51678,-0.71255 0.0796,-0.12873 -0.16377,-0.23405 -0.54072,-0.23405 -0.82754,0 -0.92511,-0.21897 -1.00415,-2.25345 l -0.0615,-1.58301 1.01396,-0.008 c 0.73188,-0.006 1.08902,0.13219 1.28378,0.4961 0.33535,0.6266 -0.15337,1.65738 -0.87531,1.84617 -0.75813,0.19826 -0.59178,0.62329 0.3149,0.80463 0.50747,0.10149 0.74251,0.27354 0.62762,0.45943 -0.24873,0.40246 1.92589,0.11433 5.17568,-0.68575 2.95084,-0.72648 5.52448,-1.25984 8.99583,-1.86429 1.38245,-0.24071 2.83702,-0.5377 3.23238,-0.65997 0.39536,-0.12227 2.41942,-0.53773 4.49791,-0.92325 4.60779,-0.85464 5.32977,-1.29027 1.79471,-1.08288 -6.10901,0.35838 -8.98012,0.42404 -24.20937,0.55358 -23.12897,0.19674 -37.43854,0.44635 -37.43854,0.65304 0,0.0985 1.45851,0.45414 3.24114,0.79033 1.78263,0.33619 4.31271,0.83954 5.6224,1.11856 1.30969,0.27902 3.35977,0.57964 4.55575,0.66804 1.19598,0.0884 2.11384,0.25887 2.0397,0.37884 -0.12716,0.20574 0.40302,0.38951 1.60663,0.5569 0.38352,0.0533 0.55378,-0.1005 0.6186,-0.55896 0.0624,-0.44139 -0.0176,-0.59229 -0.26459,-0.49932 -1.35581,0.51023 -1.54463,0.50714 -1.54463,-0.0253 0,-0.69459 0.45143,-0.9565 0.94402,-0.54769 0.55383,0.45964 0.78338,0.10572 0.43185,-0.66581 -0.19677,-0.43186 -0.2074,-0.70887 -0.0314,-0.81765 0.43002,-0.26576 0.99427,0.38325 0.84141,0.96779 -0.12818,0.49018 -0.055,0.52206 0.82107,0.3577 0.78271,-0.14683 0.96179,-0.10105 0.96179,0.24589 0,0.30937 -0.24954,0.42632 -0.9096,0.42632 -0.75844,0 -0.9027,0.0916 -0.8681,0.55087 0.0529,0.70258 0.50381,0.93037 2.30686,1.1654 1.19146,0.15532 1.39527,0.12727 1.12448,-0.15474 -0.77442,-0.80652 -0.14075,-1.40935 0.65012,-0.61848 0.26947,0.26948 0.50409,0.32368 0.67242,0.15535 0.37582,-0.37582 -0.003,-0.83381 -0.68992,-0.83381 -0.75182,0 -1.22793,-0.47119 -1.22793,-1.21524 0,-1.00239 2.13996,-1.31749 2.63724,-0.38832 0.31789,0.59398 0.0257,0.88539 -0.53321,0.53182 -0.21133,-0.13369 -0.53307,-0.2449 -0.71497,-0.24713 -0.61883,-0.008 -0.33342,0.42843 0.52896,0.8081 1.00832,0.44391 1.22423,1.13897 0.57624,1.85499 -0.2544,0.28111 -0.41366,0.5548 -0.35392,0.6082 0.19112,0.17085 5.63313,1.17409 6.50272,1.19878 0.46081,0.0131 0.87753,-0.0844 0.92604,-0.21657 z m -6.14296,-2.33932 c -0.007,-0.40018 -0.078,-1.23362 -0.15696,-1.85208 -0.13056,-1.02294 -0.0914,-1.12448 0.4333,-1.12448 0.39794,0 0.66973,0.24615 0.87642,0.79375 0.16479,0.43656 0.36281,0.79117 0.44004,0.78802 0.0772,-0.003 0.31903,-0.3901 0.53731,-0.8599 0.66117,-1.42299 1.16593,-1.10217 1.36189,0.86563 0.0942,0.94588 0.0748,1.82252 -0.0431,1.94809 -0.37479,0.39916 -0.78896,-0.0981 -0.80926,-0.97152 l -0.0196,-0.84428 -0.48113,1.05833 -0.48114,1.05834 -0.48771,-1.05834 -0.48771,-1.05833 -0.0858,0.99219 c -0.0988,1.14174 -0.57638,1.35359 -0.5965,0.26458 z m 5.04053,0.54391 c -1.10565,-0.39494 -1.47281,-2.5342 -0.57448,-3.34717 0.51332,-0.46456 1.54291,-0.57081 2.10066,-0.21679 0.63185,0.40104 0.87318,1.88681 0.44194,2.72075 -0.21682,0.41927 -0.50048,0.76232 -0.63036,0.76232 -0.12989,0 -0.39472,0.0501 -0.58852,0.11133 -0.1938,0.0612 -0.53096,0.0475 -0.74924,-0.0304 z m 1.21513,-1.53953 c 0.29304,-1.16759 -0.99069,-2.04659 -1.34743,-0.92261 -0.24756,0.78002 0.0954,1.5875 0.67425,1.5875 0.32009,0 0.56767,-0.24454 0.67318,-0.66489 z m 1.54611,-0.13829 c 0.0657,-1.04559 0.1777,-1.95938 0.24897,-2.03065 0.27966,-0.27966 0.73274,0.27568 0.60948,0.74702 -0.17664,0.67547 0.51282,0.65356 0.93962,-0.0299 0.18176,-0.29104 0.53996,-0.52916 0.796,-0.52916 0.58235,0 0.58818,0.21967 0.0224,0.84485 -0.41444,0.45794 -0.41444,0.54979 0,1.41887 0.56708,1.18919 0.55767,1.44044 -0.0539,1.44044 -0.30285,0 -0.62553,-0.31014 -0.82585,-0.79375 -0.40965,-0.98899 -0.73304,-1.01525 -0.84232,-0.0684 -0.0506,0.43882 -0.26741,0.76017 -0.54873,0.81353 -0.41733,0.0791 -0.45277,-0.10676 -0.34562,-1.81289 z m 8.77152,0.84102 c -0.0866,-0.14007 -0.0849,-0.44354 0.004,-0.67439 0.13302,-0.34664 0.018,-0.39111 -0.6606,-0.25539 -0.63798,0.1276 -0.82165,0.0722 -0.82165,-0.24804 0,-0.2518 0.28012,-0.44497 0.71941,-0.49609 0.59661,-0.0694 0.7208,-0.21522 0.7276,-0.85412 0.004,-0.42372 0.15703,-0.8206 0.33893,-0.88195 0.22269,-0.0751 0.33073,0.18994 0.33073,0.81137 v 0.92292 l 1.08513,-0.14555 c 0.96189,-0.12902 1.07392,-0.0886 0.98634,0.35591 -0.0742,0.37684 -0.32684,0.50145 -1.01647,0.50145 -0.72666,0 -0.91821,0.10541 -0.9202,0.50639 -0.003,0.55524 -0.52237,0.86282 -0.77287,0.45749 z m 4.25781,-1.33109 c 0.16391,-0.62678 1.12041,-1.02311 1.39538,-0.57819 0.10261,0.16603 0.3854,0.22556 0.62843,0.1323 0.29174,-0.11195 0.44187,-0.0347 0.44187,0.22732 0,0.21828 -0.18834,0.46914 -0.41852,0.55747 -0.59968,0.23012 -0.69601,0.20099 -0.48177,-0.14566 0.18925,-0.30621 -0.26636,-0.24675 -1.26322,0.16485 -0.35043,0.14469 -0.41396,0.0694 -0.30217,-0.35809 z m -29.92384,0.006 c -0.11397,-0.18442 -0.13577,-0.40676 -0.0484,-0.49409 0.2368,-0.23679 0.49498,0.11147 0.36708,0.49515 -0.0896,0.26887 -0.15194,0.26866 -0.31864,-10e-4 z m 22.26933,-0.10166 c -0.1667,-0.50064 -0.99231,-0.57182 -0.99231,-0.0855 0,0.24544 0.22621,0.41628 0.55121,0.41628 0.32332,0 0.50569,-0.13674 0.4411,-0.33073 z"
       id="path3172" />
  </g>
</svg>
