<?xml version="1.0" encoding="UTF-8" standalone="no"?>
<!-- Created with Inkscape (http://www.inkscape.org/) -->

<svg
   width="48.641083mm"
   height="91.66423mm"
   viewBox="0 0 48.64109 91.664235"
   version="1.1"
   id="svg5"
   inkscape:version="1.1 (c4e8f9ed74, 2021-05-24)"
   sodipodi:docname="ornament51.svg"
   xmlns:inkscape="http://www.inkscape.org/namespaces/inkscape"
   xmlns:sodipodi="http://sodipodi.sourceforge.net/DTD/sodipodi-0.dtd"
   xmlns="http://www.w3.org/2000/svg"
   xmlns:svg="http://www.w3.org/2000/svg">
  <sodipodi:namedview
     id="namedview7"
     pagecolor="#ffffff"
     bordercolor="#666666"
     borderopacity="1.0"
     inkscape:pageshadow="2"
     inkscape:pageopacity="0.0"
     inkscape:pagecheckerboard="0"
     inkscape:document-units="mm"
     showgrid="false"
     inkscape:zoom="0.66903058"
     inkscape:cx="81.461149"
     inkscape:cy="169.64845"
     inkscape:window-width="2506"
     inkscape:window-height="1403"
     inkscape:window-x="1974"
     inkscape:window-y="0"
     inkscape:window-maximized="1"
     inkscape:current-layer="layer1" />
  <defs
     id="defs2" />
  <g
     inkscape:label="Layer 1"
     inkscape:groupmode="layer"
     id="layer1"
     transform="translate(-83.710503,-125.59881)">
    <path
       style="fill:#000000;stroke-width:0.264583"
       d="m 117.0223,216.73939 c -1.17915,-0.98885 -1.82642,-1.63796 -1.82642,-1.83162 0,-0.31832 1.04239,-0.14013 1.39319,0.23817 0.25942,0.27973 0.25857,0.31377 -0.004,0.16546 -0.56671,-0.31995 -0.36286,0.15093 0.35225,0.81367 l 0.68299,0.63297 -0.0877,-0.9995 -0.0877,-0.99951 1.12448,-0.0814 c 0.61846,-0.0447 1.12448,-0.15613 1.12448,-0.24753 0,-0.0914 -0.25888,-0.44173 -0.57529,-0.77853 -0.31641,-0.33681 -0.45883,-0.61237 -0.31648,-0.61237 0.14234,0 0.65216,0.40585 1.13294,0.90189 0.83195,0.85835 0.85897,0.94785 0.55988,1.85411 -0.17285,0.52373 -0.53503,1.07038 -0.80485,1.21478 -0.79199,0.42386 -1.98371,0.30297 -2.6677,-0.27063 z m 2.81724,-0.99691 c 0.45288,-1.0771 0.26595,-1.10936 -0.28251,-0.0488 -0.4367,0.84448 -1.0605,0.81578 -0.83709,-0.0385 0.0718,-0.27462 0.0226,-0.4993 -0.10925,-0.4993 -0.13189,0 -0.24163,0.14882 -0.24386,0.33073 -0.003,0.22048 -0.0895,0.19843 -0.26053,-0.0661 -0.14715,-0.2277 -0.25821,-0.26512 -0.26053,-0.0878 -0.007,0.54913 0.30981,1.1469 0.53455,1.008 0.12022,-0.0743 0.29725,-0.008 0.3934,0.14777 0.2793,0.45192 0.68008,0.17141 1.06582,-0.74599 z m -27.203471,0.63267 c 0.07075,-0.37013 0.353626,-0.74436 0.628603,-0.83164 0.589447,-0.18708 0.633588,-0.48076 0.145606,-0.96874 -0.194894,-0.1949 -0.42362,-0.53082 -0.508279,-0.74651 -0.08466,-0.21568 -0.168695,0.0246 -0.186747,0.5339 -0.01805,0.50932 -0.207099,1.28323 -0.420105,1.71979 l -0.387282,0.79375 0.166327,-1.05833 c 0.09148,-0.58209 0.194456,-1.47506 0.228837,-1.98438 0.03438,-0.50932 0.260022,-1.69995 0.501427,-2.64583 0.506935,-1.9863 0.569028,-2.30042 0.817224,-4.13423 0.183019,-1.35225 0.181084,-1.35696 -0.679948,-1.65712 -0.583117,-0.20328 -0.950526,-0.21398 -1.131545,-0.033 -0.365397,0.3654 -1.309476,0.33789 -1.696806,-0.0494 -0.445278,-0.44528 -0.396804,-1.01283 0.189177,-2.21495 0.622492,-1.27702 0.352049,-1.51355 -1.30489,-1.14126 -0.853196,0.1917 -1.330947,0.17526 -1.772413,-0.061 -0.745139,-0.39879 -0.774192,-0.64981 -0.07521,-0.64981 0.291042,0 0.529167,0.0737 0.529167,0.16367 0,0.32941 1.005921,0.0777 1.445252,-0.3616 0.499537,-0.49953 2.075687,-0.4691 2.594893,0.0501 0.164462,0.16446 0.760189,0.29902 1.323839,0.29902 0.836347,0 1.00709,-0.0851 0.928426,-0.46302 -0.06307,-0.30298 -0.303723,-0.44029 -0.696229,-0.39727 -0.329911,0.0362 -0.534213,-0.0404 -0.454005,-0.17021 0.205009,-0.33171 -1.15819,-0.63212 -1.529463,-0.33705 -0.167982,0.13351 -0.689488,0.29618 -1.158902,0.3615 -0.706461,0.0983 -0.800799,0.0553 -0.54765,-0.24973 0.168207,-0.20268 0.492742,-0.31963 0.721189,-0.25989 0.291941,0.0763 0.415358,-0.0795 0.415358,-0.52433 0,-0.49705 -0.110659,-0.60401 -0.515399,-0.49817 -0.283469,0.0741 -0.673299,0.004 -0.866289,-0.15644 -0.484086,-0.40175 -0.754416,-0.056 -0.34341,0.43926 0.184076,0.2218 0.290339,0.4101 0.236141,0.41846 -2.040467,0.31448 -3.235309,0.0185 -2.315253,-0.57357 0.231922,-0.14924 0.06335,-0.17691 -0.46318,-0.0761 -0.511088,0.0979 -0.901765,0.0389 -1.02111,-0.15419 -0.129645,-0.20977 -0.01366,-0.2839 0.352199,-0.2251 0.314269,0.0505 0.716938,-0.13663 0.949936,-0.44149 0.271189,-0.35482 0.471468,-0.43339 0.6079,-0.23845 0.236654,0.33813 1.129507,0.38719 1.129507,0.0621 0,-0.12126 0.304683,-0.22048 0.677073,-0.22048 0.445435,0 0.612317,0.10478 0.487793,0.30626 -0.12908,0.20885 -0.01186,0.25986 0.368574,0.16038 0.30682,-0.0802 0.613695,-0.01 0.681944,0.15676 0.06825,0.16645 0.133489,0.0815 0.144978,-0.18869 0.01412,-0.33205 -0.107773,-0.44196 -0.375987,-0.33903 -0.246042,0.0944 -0.396875,-10e-4 -0.396875,-0.25189 0,-0.22231 -0.119063,-0.3306 -0.264584,-0.24067 -0.14552,0.0899 -0.264583,0.0474 -0.264583,-0.0946 0,-0.14198 0.148828,-0.3182 0.330729,-0.3916 0.206245,-0.0832 0.16475,-0.14131 -0.110243,-0.15434 -0.242534,-0.0115 -0.487114,0.11754 -0.543509,0.28673 -0.0564,0.16918 -0.30501,0.33732 -0.552476,0.37364 -0.247466,0.0363 -0.382813,-0.0426 -0.300771,-0.17531 0.08204,-0.13275 0.01605,-0.24136 -0.146647,-0.24136 -0.162697,0 -0.237607,-0.0942 -0.166466,-0.20929 0.07114,-0.11511 -0.279019,-0.16161 -0.778135,-0.10334 -1.121535,0.13093 -1.214709,-0.3716 -0.113732,-0.61341 0.615314,-0.13515 0.79375,-0.31831 0.79375,-0.81478 0,-0.5344 0.130679,-0.64043 0.789293,-0.64043 0.672657,0 0.886755,0.18571 1.448834,1.25677 0.871302,1.66029 1.30466,2.18281 1.810323,2.18281 0.792098,0 0.776216,-0.58549 -0.04759,-1.75422 -0.902666,-1.28062 -1.037771,-1.75007 -0.437356,-1.51967 0.213681,0.082 0.362922,0.22709 0.331649,0.32243 -0.03127,0.0953 0.270148,0.60129 0.669824,1.12435 0.399677,0.52306 0.726685,1.13425 0.726685,1.35821 0,0.22395 0.262691,0.47588 0.583758,0.55984 0.675777,0.17672 0.620939,0.21211 0.855883,-0.5523 0.138792,-0.45156 0.09166,-0.5588 -0.196943,-0.44805 -0.237315,0.0911 -0.43474,-0.066 -0.527163,-0.41944 -0.106654,-0.40785 -0.04647,-0.52616 0.216337,-0.42532 0.236933,0.0909 0.312712,0.006 0.216971,-0.24368 -0.08092,-0.21087 -0.31298,-0.3834 -0.515692,-0.3834 -0.202712,0 -0.368568,-0.17859 -0.368568,-0.39687 0,-0.21829 -0.106324,-0.39688 -0.236276,-0.39688 -0.129951,0 -0.302482,-0.17253 -0.3834,-0.3834 -0.09549,-0.24885 -0.01996,-0.3346 0.215223,-0.24435 0.231446,0.0888 0.393849,-0.0833 0.449546,-0.4765 0.07821,-0.55207 0.264528,-0.63223 1.806991,-0.77742 2.046969,-0.19267 4.806836,0.008 4.604712,0.33542 -0.07885,0.12758 -0.254195,0.16347 -0.389661,0.0797 -0.488971,-0.3022 -0.760882,0.14751 -0.501574,0.82954 0.13952,0.36697 0.152381,0.60461 0.02858,0.5281 -0.123802,-0.0765 -0.367659,0.17378 -0.541905,0.55621 -0.219104,0.48088 -0.230679,0.74855 -0.03753,0.86793 0.153605,0.0949 0.254244,0.47512 0.223643,0.84486 -0.0418,0.50511 -0.174116,0.64127 -0.532161,0.54764 -0.262088,-0.0685 -0.834813,0.0238 -1.272722,0.20518 -0.632103,0.26183 -0.734108,0.40461 -0.494934,0.6928 0.22064,0.26586 0.221787,0.363 0.0043,0.363 -0.163339,0 -0.29698,0.11906 -0.29698,0.26458 0,0.14552 0.454342,0.26459 1.00965,0.26459 1.026059,0 1.027647,-0.001 3.027118,-2.37475 0.47223,-0.56057 0.4302,-0.83875 -0.253898,-1.68045 -0.67128,-0.82592 -0.794665,-1.36476 -0.266057,-1.16192 0.187997,0.0721 0.567945,-0.0342 0.844315,-0.23627 0.27638,-0.2021 0.36069,-0.36745 0.18736,-0.36745 -0.17334,0 -0.31516,-0.10472 -0.31516,-0.23272 0,-0.128 2.41102,-0.25183 5.35782,-0.27517 3.16914,-0.0251 5.39406,-0.14688 5.44655,-0.29809 0.14102,-0.40622 0.57272,-0.006 0.57272,0.53103 0,0.26817 -0.38696,0.73538 -0.8599,1.03826 -0.47294,0.30289 -0.71107,0.5527 -0.52916,0.55515 0.1819,0.002 0.33072,0.19579 0.33072,0.42964 0,0.26924 -0.14556,0.36933 -0.39687,0.27289 -0.25657,-0.0985 -0.39985,0.008 -0.40529,0.30242 -0.005,0.2501 -0.18322,0.68584 -0.39687,0.96831 -0.59202,0.78271 -0.49408,1.47078 0.20935,1.47078 0.3288,0 0.74941,0.24275 0.93469,0.53944 0.36107,0.57816 0.91776,0.47744 0.68686,-0.12427 -0.0763,-0.1989 -0.0116,-0.44024 0.14385,-0.53631 0.15544,-0.0961 0.28262,-0.0684 0.28262,0.0614 0,0.12986 0.17336,0.2361 0.38523,0.2361 0.21188,0 0.33226,-0.0857 0.2675,-0.1905 -0.16196,-0.26206 0.64054,-0.89748 0.85836,-0.67966 0.30412,0.30413 0.26611,1.22294 -0.0506,1.22294 -0.16674,0 -0.61911,0.32978 -1.00527,0.73285 -0.87063,0.90874 -0.7569,2.05191 0.17289,1.73778 0.94807,-0.32031 1.82682,-0.2421 1.96877,0.1752 0.11578,0.34037 0.0724,0.34517 -0.3049,0.0337 -0.24194,-0.19972 -0.4399,-0.24222 -0.4399,-0.0944 0,0.69129 1.79797,0.52583 2.25098,-0.20714 0.10214,-0.16528 -0.0856,-0.58934 -0.4173,-0.94237 -0.63416,-0.67503 -1.20283,-0.87509 -0.88444,-0.31114 0.14776,0.2617 0.11367,0.26301 -0.16334,0.006 -0.28902,-0.2679 -0.27273,-0.40993 0.0935,-0.81458 0.55408,-0.61225 0.56501,-1.21521 0.0317,-1.74851 -0.5055,-0.5055 -1.24007,-0.41832 -1.95926,0.23254 -0.29842,0.27006 -0.63092,0.40267 -0.7389,0.29469 -0.10799,-0.10798 0.13087,-0.43468 0.53078,-0.726 0.8095,-0.58968 0.94129,-1.0147 0.31463,-1.0147 -0.22687,0 -0.3387,-0.11939 -0.24852,-0.2653 0.1096,-0.17734 0.32831,-0.17734 0.65968,0 0.27264,0.14591 0.7119,0.26151 0.97613,0.25689 0.4497,-0.008 0.44758,-0.0333 -0.0332,-0.39688 -0.47551,-0.35966 -0.42316,-0.38846 0.70597,-0.38846 0.67075,0 1.43375,-0.0822 1.69555,-0.18266 0.42177,-0.16185 0.43193,-0.13549 0.0892,0.23144 -0.21274,0.22774 -0.56603,0.35901 -0.78508,0.29169 -0.21905,-0.0673 -0.0642,0.18573 0.34409,0.56232 0.82842,0.76409 1.37551,0.86669 1.69189,0.3173 0.11637,-0.20208 0.73707,-0.54377 1.37932,-0.75931 l 1.16774,-0.3919 -0.77087,-0.48016 c -0.42397,-0.26409 -1.05508,-0.72607 -1.40246,-1.02663 -0.44875,-0.38826 -0.66578,-0.45072 -0.74965,-0.21574 -0.0649,0.1819 -0.23422,0.33073 -0.3762,0.33073 -0.14198,0 -0.19945,-0.095 -0.1277,-0.21107 0.0718,-0.11609 0.0283,-0.37632 -0.0965,-0.5783 -0.18546,-0.30007 -0.3016,-0.30528 -0.63511,-0.0285 -0.29158,0.24199 -0.61848,0.26734 -1.14464,0.0888 -0.51176,-0.1737 -1.04253,-0.1434 -1.73938,0.0993 -0.55158,0.19212 -0.93151,0.23382 -0.84428,0.0927 0.0872,-0.14113 0.0325,-0.25661 -0.1216,-0.25661 -0.15411,0 -0.2802,-0.11609 -0.2802,-0.25797 0,-0.145 0.37656,-0.19318 0.8599,-0.11001 0.65493,0.11268 0.76529,0.0805 0.46302,-0.13486 -0.30535,-0.21759 -0.1223,-0.2828 0.79375,-0.2828 0.86523,0 1.08216,0.0701 0.79375,0.25647 -0.30287,0.19573 -0.20885,0.2525 0.39687,0.23965 0.43657,-0.009 0.64418,-0.0771 0.46138,-0.15084 -0.18281,-0.0737 -0.26308,-0.24614 -0.17838,-0.38319 0.20944,-0.33887 -7.06807,-0.26588 -7.4802,0.075 -0.17712,0.14651 -0.58742,0.17352 -0.92604,0.061 -0.3344,-0.11116 -0.83569,-0.2103 -1.11397,-0.22029 -0.27828,-0.01 -0.56025,-0.1795 -0.62661,-0.37668 -0.0909,-0.27001 0.034,-0.30709 0.50596,-0.15024 0.69859,0.23216 1.00595,0.23579 2.3464,0.0277 0.50933,-0.0791 3.27753,-0.16606 6.15157,-0.19333 2.87403,-0.0273 5.22552,-0.15457 5.22552,-0.28291 0,-0.12835 0.12609,-0.23336 0.2802,-0.23336 0.15411,0 0.20661,0.11907 0.11667,0.26459 -0.0912,0.14754 0.10674,0.26279 0.44741,0.26053 0.4915,-0.003 0.53334,-0.0542 0.21405,-0.26053 -0.31695,-0.20483 -0.26367,-0.2632 0.26458,-0.28982 0.36381,-0.0183 0.95912,-0.0148 1.32292,0.008 0.50188,0.0312 0.5705,-0.0203 0.28446,-0.21336 -0.20735,-0.13996 -2.46423,-0.26895 -5.01529,-0.28665 -2.55105,-0.0177 -4.69384,-0.0877 -4.76174,-0.15563 -0.0679,-0.0679 2.7843,-0.11587 6.33821,-0.1066 5.69309,0.0148 6.39871,0.0621 5.93249,0.39754 -1.79463,1.29104 -1.72734,1.20618 -1.29742,1.6361 0.35912,0.35912 0.50505,0.3185 1.37869,-0.38376 2.31364,-1.85978 5.66292,-6.78796 6.0102,-8.84351 0.0935,-0.5532 0.0376,-1.22286 -0.12775,-1.53184 -0.19021,-0.35542 -0.19901,-0.54897 -0.0249,-0.54897 0.33586,0 0.58959,0.98024 0.67172,2.59501 0.0347,0.68279 0.2106,1.81767 0.39083,2.52193 0.51501,2.01246 0.1888,3.35408 -1.1257,4.62973 -0.61222,0.59412 -1.28782,1.28621 -1.50133,1.53797 -0.34701,0.40917 -0.33998,0.43925 0.0661,0.2834 0.35529,-0.13634 0.45435,-0.0291 0.45435,0.49194 0,0.85369 -0.55846,1.92238 -1.43007,2.73666 -0.9388,0.87704 -0.8654,1.05199 0.37174,0.88605 0.58208,-0.0781 1.05861,-0.037 1.05895,0.0913 2.6e-4,0.12831 0.33925,0.62948 0.75313,1.11371 0.5465,0.63941 0.71796,1.07401 0.62629,1.5875 -0.1674,0.93775 -0.80308,1.63406 -1.4872,1.62906 -0.41192,-0.003 -0.46207,-0.0625 -0.19526,-0.23155 0.525,-0.33266 0.13351,-1.32622 -0.50365,-1.27822 -0.64187,0.0483 -0.68627,0.44584 -0.0538,0.48186 0.30868,0.0176 0.24254,0.097 -0.19843,0.23821 -0.36381,0.11651 -0.50461,0.22371 -0.3129,0.23821 0.23369,0.0177 0.28902,0.21394 0.1679,0.59556 -0.14649,0.46154 -0.0956,0.53657 0.26886,0.3967 0.29517,-0.11327 0.41169,-0.0589 0.33934,0.15841 -0.18315,0.55005 -0.9449,0.53304 -1.74831,-0.039 -0.41745,-0.29725 -0.83486,-0.4646 -0.92757,-0.37188 -0.0927,0.0927 -0.16857,0.79953 -0.16857,1.5707 0,0.77118 -0.17133,1.79313 -0.38072,2.27101 -0.20939,0.47788 -0.46444,1.22606 -0.56677,1.66262 l -0.18606,0.79375 -0.42541,-0.99084 c -0.23398,-0.54496 -0.56166,-0.99144 -0.72817,-0.99218 -0.16651,-8e-4 -0.69821,-0.37077 -1.18156,-0.82229 -0.48335,-0.45151 -0.90291,-0.7194 -0.93236,-0.59531 -0.0294,0.12409 -0.12869,0.67465 -0.22055,1.22347 -0.19547,1.1679 -1.50272,2.77132 -2.65038,3.25084 -0.87846,0.36704 -2.23673,0.23334 -2.6499,-0.26085 -0.5208,-0.62292 -1.15544,-0.67905 -1.33353,-0.11794 -0.0935,0.29458 -0.0996,0.60601 -0.0135,0.69206 0.0861,0.086 0.15645,0.0303 0.15645,-0.12393 0,-0.1542 0.17851,-0.34887 0.39667,-0.43259 0.28026,-0.10754 0.60186,0.25297 1.09587,1.22847 0.38456,0.75937 1.00925,1.78749 1.38819,2.2847 0.62491,0.81995 0.63661,0.876 0.12588,0.60266 -0.3097,-0.16575 -0.6358,-0.49081 -0.72465,-0.72235 -0.0888,-0.23155 -0.2834,-0.3457 -0.43232,-0.25365 -0.14892,0.092 -0.1909,0.29657 -0.0933,0.45452 0.10594,0.1714 0.0543,0.21107 -0.12797,0.0984 -0.17086,-0.10559 -0.3086,-0.0362 -0.31259,0.15756 -0.004,0.19049 -0.36873,-0.0704 -0.81071,-0.5797 -0.47117,-0.54296 -0.68654,-0.68587 -0.52062,-0.34546 0.15563,0.31932 0.40623,0.65676 0.55689,0.74987 0.15065,0.0931 0.20651,0.38169 0.12411,0.6413 -0.10977,0.34586 0.0632,0.56024 0.64733,0.80219 0.43843,0.1816 0.7309,0.43737 0.64993,0.56838 -0.081,0.131 -0.25804,0.16969 -0.39351,0.086 -0.13546,-0.0837 -0.2463,-0.002 -0.2463,0.1809 0,0.25909 -0.0706,0.26256 -0.3175,0.0156 -0.17462,-0.17463 -0.56158,-0.31932 -0.85989,-0.32155 -0.43823,-0.003 -0.46751,-0.0514 -0.15246,-0.25065 0.33065,-0.2091 0.30047,-0.34183 -0.19843,-0.8729 -0.32361,-0.34446 -0.58839,-0.76745 -0.58839,-0.93997 0,-0.17252 -0.17859,-0.31368 -0.39687,-0.31368 -0.47656,0 -0.48202,0.0528 -0.0936,0.9053 0.1668,0.36608 0.40356,0.60363 0.52613,0.52787 0.12258,-0.0757 0.14889,0.0551 0.0585,0.29067 -0.0904,0.23562 -0.25275,0.3311 -0.36074,0.21218 -0.25667,-0.28264 -1.58547,-3.66163 -1.58547,-4.03166 0,-0.49637 -0.25518,-0.32061 -1.50604,1.03731 -1.16345,1.26303 -1.97588,1.63199 -2.33042,1.05833 -0.0899,-0.14552 0.0766,-0.26458 0.37012,-0.26458 0.29351,0 1.01491,-0.45781 1.60312,-1.01736 0.79242,-0.75382 1.0639,-1.21647 1.04798,-1.78594 l -0.0215,-0.76857 -0.38625,0.79375 -0.38626,0.79375 0.11815,-0.78872 c 0.10983,-0.73315 0.0919,-0.75289 -0.25371,-0.28016 -0.20453,0.27971 -0.37188,0.75481 -0.37188,1.0558 0,0.30098 -0.24853,0.70246 -0.55229,0.89216 -0.50347,0.31442 -0.53682,0.29617 -0.37729,-0.20645 0.1651,-0.52019 0.13648,-0.51568 -0.50604,0.0798 -0.37458,0.34714 -0.68104,0.89094 -0.68104,1.20844 0,0.36499 -0.29205,0.74302 -0.79417,1.02799 -0.52952,0.30053 -0.7386,0.58297 -0.62743,0.84759 0.45267,1.07752 0.40846,1.63758 -0.17859,2.26247 -0.63382,0.67467 -1.67659,0.86083 -1.98914,0.35512 -0.12617,-0.20413 -0.24988,-0.1841 -0.40844,0.0661 -0.16331,0.25773 -0.2286,0.17792 -0.23151,-0.28297 -0.005,-0.80733 -2.54765,-6.10413 -3.13693,-6.53502 -0.39757,-0.29071 -0.37705,-0.37462 0.22304,-0.91233 0.38783,-0.34752 0.48035,-0.52804 0.22393,-0.43693 -0.29931,0.10633 -0.48684,-0.0265 -0.59531,-0.42177 -0.12248,-0.44627 -0.21105,-0.49529 -0.39092,-0.21634 -0.19634,0.3045 -0.25556,0.3045 -0.38026,0 -0.11594,-0.28311 -0.23152,-0.2572 -0.537497,0.12052 -0.365488,0.45117 -0.411098,0.42229 -0.731232,-0.46302 -0.229412,-0.63443 -0.507455,-0.94421 -0.847474,-0.94421 -0.411772,0 -0.484342,-0.14787 -0.389548,-0.79375 0.07717,-0.52581 0.0033,-0.79375 -0.218938,-0.79375 -0.476609,0 -0.721151,0.49485 -0.430667,0.87149 0.135377,0.17552 0.228639,0.81767 0.207251,1.42698 -0.02139,0.60931 0.05669,1.04877 0.173514,0.97657 0.116821,-0.0722 0.212403,-0.005 0.212403,0.14893 0,0.15411 -0.148828,0.28398 -0.330729,0.28861 -0.228506,0.006 -0.206937,0.10804 0.06978,0.33073 0.220282,0.17727 0.608316,0.6472 0.862297,1.04428 0.458221,0.71638 0.456344,0.72332 -0.243242,0.89891 -0.501464,0.12586 -0.797055,0.0511 -1.023758,-0.25894 -0.175302,-0.23974 -0.40948,-0.43589 -0.520397,-0.43589 -0.110916,0 -0.06306,0.16701 0.106358,0.37114 0.236531,0.28501 0.228698,0.40298 -0.03375,0.50828 -0.187975,0.0754 -0.08554,0.14653 0.227646,0.15802 0.558659,0.0205 0.561835,0.0446 0.168105,1.27766 -0.220723,0.69123 -0.492498,1.73302 -0.603945,2.31511 -0.383414,2.00255 -0.772171,2.72344 -1.446889,2.683 -0.341158,-0.0205 -0.565154,-0.12647 -0.497769,-0.23561 0.192388,-0.3116 -1.356951,-0.23186 -1.675024,0.0862 -0.203137,0.20314 -0.247807,0.0919 -0.156,-0.38832 z m 2.186895,-0.42549 c 0,-0.14552 -0.178594,-0.26459 -0.396875,-0.26459 -0.218281,0 -0.396875,0.11907 -0.396875,0.26459 0,0.14552 0.178594,0.26458 0.396875,0.26458 0.218281,0 0.396875,-0.11906 0.396875,-0.26458 z m 11.444326,-0.33073 c 0.23813,-0.1819 0.51683,-0.67773 0.61934,-1.10184 0.15956,-0.66017 0.12047,-0.74582 -0.27174,-0.59531 -0.25197,0.0967 -0.5563,0.17579 -0.6763,0.17579 -0.11999,0 -0.15065,0.25821 -0.0681,0.5738 0.11903,0.45515 0.0592,0.53893 -0.28935,0.40518 -0.48747,-0.18706 -0.51058,-0.14939 -0.27881,0.45459 0.19379,0.50499 0.39486,0.52328 0.96498,0.0878 z m -10.385993,-0.99219 c 0,-0.29104 -0.132949,-0.52917 -0.295442,-0.52917 -0.171226,0 -0.233455,-0.23703 -0.148009,-0.56378 0.150598,-0.57589 -0.408087,-1.4069 -0.72966,-1.08533 -0.09777,0.0978 -0.10223,-0.0567 -0.0099,-0.34333 0.164854,-0.51172 0.159748,-0.51157 -0.283665,0.008 -0.447579,0.52453 -0.450307,0.52395 -0.311022,-0.0659 0.07729,-0.32728 0.03508,-0.66021 -0.09378,-0.73985 -0.128865,-0.0796 -0.218922,0.68795 -0.200126,1.70577 0.03686,1.99578 -0.05229,1.88809 1.740876,2.10303 0.1819,0.0218 0.330728,-0.19849 0.330728,-0.48953 z m -1.545723,-1.32292 c 0,-0.3638 0.06005,-0.51263 0.133452,-0.33073 0.0734,0.18191 0.0734,0.47956 0,0.66146 -0.0734,0.1819 -0.133452,0.0331 -0.133452,-0.33073 z m -0.835527,-0.26458 c 0,-0.29104 -0.108527,-0.52917 -0.241172,-0.52917 -0.191639,0 -0.211206,0.44472 -0.04366,0.99219 0.08693,0.28406 0.284827,-0.0376 0.284827,-0.46302 z m 3.439584,-1.78243 c 0,-0.0739 -0.18462,0.0188 -0.410267,0.20605 -0.346437,0.28751 -0.433446,0.25185 -0.559247,-0.22922 -0.08194,-0.31333 -0.242031,-0.51219 -0.355759,-0.4419 -0.2623,0.16211 -0.578447,-0.6299 -0.379762,-0.95138 0.08182,-0.13239 -0.03312,-0.2407 -0.255421,-0.2407 -0.237585,0 -0.345645,0.15255 -0.262161,0.37011 0.07811,0.20356 0.01484,0.44871 -0.140596,0.54478 -0.155441,0.0961 -0.282621,0.29373 -0.282621,0.43925 0,0.14552 0.105526,0.19937 0.234503,0.11965 0.128977,-0.0797 0.298735,0.1007 0.37724,0.4009 0.0785,0.30021 0.389697,0.61041 0.691538,0.68934 0.301842,0.0789 0.549536,0.27846 0.550433,0.44339 8.99e-4,0.16493 0.17949,-0.0412 0.396875,-0.45798 0.217384,-0.41682 0.395245,-0.81835 0.395245,-0.89229 z m 8.854619,0.99608 c 0.49452,-0.41041 0.56637,-0.99158 0.0751,-0.60718 -0.1819,0.14232 -0.60351,0.32563 -0.93691,0.40735 -0.48359,0.11853 -0.57724,0.0574 -0.46306,-0.30236 0.1036,-0.32642 -0.0203,-0.46325 -0.44882,-0.49553 -0.41318,-0.0311 -0.48453,0.0218 -0.23629,0.17521 0.24827,0.15344 0.26723,0.27443 0.0628,0.40078 -0.16105,0.0995 -0.2929,0.32278 -0.29298,0.49609 -2.1e-4,0.41936 1.71385,0.36247 2.24019,-0.0744 z m 2.29254,-0.31899 c 0.29849,-0.47079 0.28568,-0.74674 -0.0347,-0.74674 -0.14552,0 -0.26458,0.0904 -0.26458,0.20093 0,0.11052 -0.25059,0.35744 -0.55685,0.54871 -0.46128,0.28806 -0.5192,0.28763 -0.33743,-0.002 0.12068,-0.19264 0.25719,-0.62501 0.30336,-0.96081 0.0758,-0.55151 0.0282,-0.58075 -0.49207,-0.3023 -0.44645,0.23894 -0.49595,0.35775 -0.22005,0.52827 0.28987,0.17915 0.27195,0.31281 -0.0965,0.71999 -0.24888,0.27501 -0.45251,0.56739 -0.45251,0.64975 0,0.28381 1.92992,-0.2861 2.15133,-0.63529 z m 7.63826,0.47628 c 0,-0.0549 -0.20836,-0.2633 -0.46302,-0.46302 -0.41965,-0.32911 -0.42901,-0.31975 -0.0999,0.0999 0.34564,0.44073 0.56292,0.58089 0.56292,0.36313 z m 1.12448,-1.14585 c -0.1819,-0.0667 -0.33073,-0.23744 -0.33073,-0.37942 0,-0.14198 0.11906,-0.18457 0.26458,-0.0946 0.44705,0.27629 0.29282,-0.28966 -0.19844,-0.72815 -0.4353,-0.38855 -1.09081,-0.56281 -1.85432,-0.49294 -0.25983,0.0238 -0.26449,0.14012 -0.0212,0.52963 0.32364,0.51823 0.63555,0.56672 1.23564,0.19208 0.25087,-0.15662 0.33436,-0.0783 0.29006,0.27202 -0.0342,0.27057 0.0315,0.70831 0.1459,0.97275 0.15925,0.36797 0.27745,0.40678 0.50368,0.16537 0.21862,-0.2333 0.20947,-0.34703 -0.0351,-0.43671 z m -11.25031,0.0276 c -0.0879,-0.0879 -0.31612,-0.0973 -0.50712,-0.0209 -0.21106,0.0845 -0.14837,0.14716 0.15986,0.15985 0.27891,0.0115 0.43518,-0.051 0.34726,-0.13896 z m 9.06749,-0.0954 c 0,-0.14041 -0.26789,-0.39395 -0.59531,-0.56344 l -0.59531,-0.30817 0.52917,0.54772 c 0.61943,0.64114 0.66145,0.66172 0.66145,0.32389 z m -11.64166,-0.80306 c 0,-0.14552 -0.12609,-0.26459 -0.2802,-0.26459 -0.15411,0 -0.20661,0.11907 -0.11668,0.26459 0.0899,0.14552 0.21603,0.26458 0.2802,0.26458 0.0642,0 0.11668,-0.11906 0.11668,-0.26458 z m 1.15497,-0.0577 c -0.11914,-0.19278 0.0222,-0.23752 0.421,-0.13325 0.41989,0.10981 0.80934,-0.0368 1.29544,-0.48749 0.38228,-0.35447 0.54744,-0.64449 0.36703,-0.64449 -0.51549,0 -0.38313,-0.52805 0.135,-0.53854 0.25466,-0.005 0.74701,-0.16679 1.09411,-0.35919 l 0.6311,-0.34982 -0.75833,-0.14496 c -0.56934,-0.10884 -0.9138,0.0105 -1.38208,0.47877 -0.37126,0.37127 -1.09622,0.6946 -1.79099,0.79878 -1.11298,0.16691 -1.53107,0.65263 -0.89835,1.04367 0.14789,0.0914 0.21567,0.25231 0.15062,0.35756 -0.065,0.10526 0.11417,0.20889 0.39828,0.23029 0.31363,0.0236 0.44608,-0.0751 0.33717,-0.25133 z m 4.79815,-0.2069 c 0.41118,-0.45434 0.42009,-0.52916 0.0631,-0.52916 -0.22871,0 -0.45987,-0.13212 -0.5137,-0.2936 -0.0612,-0.18367 -0.2302,-0.13414 -0.45132,0.13229 -0.30192,0.36379 -0.28614,0.42589 0.10821,0.42589 0.38038,0 0.40367,0.0699 0.13229,0.39688 -0.49638,0.5981 0.11026,0.47677 0.66146,-0.1323 z m -10.980206,-0.79375 c 0,-0.14552 -0.18562,-0.26458 -0.41249,-0.26458 -0.226869,0 -0.338905,0.11906 -0.248968,0.26458 0.08994,0.14552 0.275557,0.26459 0.41249,0.26459 0.136932,0 0.248968,-0.11907 0.248968,-0.26459 z m -1.444329,-0.81135 c 0.09592,-0.1552 0.08665,-0.36356 -0.02061,-0.46302 -0.107255,-0.0995 -0.248409,-0.0313 -0.313676,0.15154 -0.06527,0.18281 -0.22756,0.26508 -0.360652,0.18282 -0.133092,-0.0822 -0.241985,-0.0235 -0.241985,0.13065 0,0.36469 0.71123,0.36319 0.936921,-0.002 z m -0.540046,-0.77615 c 0.452494,-0.19444 0.462079,-0.23008 0.06615,-0.24598 -0.280433,-0.0113 -0.463021,-0.22727 -0.463021,-0.54777 0,-0.29104 -0.106155,-0.52916 -0.2359,-0.52916 -0.129746,0 -0.310608,-0.29766 -0.401916,-0.66146 -0.09131,-0.3638 -0.28281,-0.66146 -0.425558,-0.66146 -0.400988,0 -0.306675,0.97341 0.137332,1.41741 0.218282,0.21828 0.396875,0.64351 0.396875,0.94494 0,0.59371 0.119189,0.6302 0.926042,0.28348 z m 8.388921,-0.33073 c -0.0529,-0.3153 0.0948,-0.46302 0.46302,-0.46302 0.29742,0 0.54077,-0.12609 0.54077,-0.2802 0,-0.1541 -0.0893,-0.22853 -0.19844,-0.16539 -0.10914,0.0631 -0.43656,0.0126 -0.7276,-0.11234 l -0.52917,-0.22712 0.52917,0.0465 c 0.71472,0.0629 2.19197,-0.89594 2.04635,-1.32818 -0.0908,-0.26945 -0.22464,-0.24937 -0.59956,0.0899 -0.36761,0.33267 -0.59765,0.36999 -0.96475,0.15651 -0.41084,-0.23892 -0.41844,-0.28152 -0.0514,-0.28838 0.62542,-0.0117 1.04323,-0.60879 0.7524,-1.07525 -0.19915,-0.31941 -0.3251,-0.32846 -0.71247,-0.0512 -0.25881,0.18525 -0.8387,0.57287 -1.28865,0.86137 -0.85294,0.54688 -1.54908,1.70377 -1.28365,2.13324 0.0847,0.13699 0.285,0.16807 0.4452,0.0691 0.19284,-0.11919 0.22834,-0.016 0.10505,0.30526 -0.21777,0.56749 0.24759,0.95888 1.02233,0.85982 0.33928,-0.0434 0.50127,-0.23381 0.45142,-0.53069 z m 9.20587,0.34635 c 0,-0.13693 -0.11906,-0.32255 -0.26458,-0.41249 -0.14552,-0.0899 -0.26459,0.0221 -0.26459,0.24897 0,0.22687 0.11907,0.41249 0.26459,0.41249 0.14552,0 0.26458,-0.11204 0.26458,-0.24897 z m -7.9375,-0.2802 c 0,-0.14552 -0.11203,-0.26458 -0.24897,-0.26458 -0.13693,0 -0.32255,0.11906 -0.41249,0.26458 -0.0899,0.14552 0.0221,0.26458 0.24897,0.26458 0.22687,0 0.41249,-0.11906 0.41249,-0.26458 z m 7.01146,0 c 0.0912,-0.14754 -0.10674,-0.26279 -0.44741,-0.26053 -0.4915,0.003 -0.53334,0.0542 -0.21405,0.26053 0.49232,0.31816 0.46482,0.31816 0.66146,0 z m 7.01146,0 c 0,-0.14552 -0.20836,-0.26276 -0.46302,-0.26053 -0.3957,0.003 -0.40532,0.0413 -0.0661,0.26053 0.49933,0.32269 0.52917,0.32269 0.52917,0 z m -17.65042,-0.52917 c -0.0761,-0.29104 -0.30309,-0.52916 -0.5044,-0.52916 -0.47155,0 -0.46138,0.13142 0.0498,0.64256 0.54396,0.54395 0.62148,0.52462 0.45464,-0.1134 z m 6.90436,-0.12298 c 0.53396,-0.81491 0.5337,-0.93535 -0.002,-0.93535 -0.35158,0 -0.36966,-0.0718 -0.0999,-0.39687 0.44576,-0.53711 -0.15237,-0.54688 -0.68801,-0.0112 -0.2121,0.2121 -0.56078,0.31842 -0.77485,0.23628 -0.21407,-0.0821 -0.38922,-0.0105 -0.38922,0.15915 0,0.17355 0.14467,0.22391 0.33073,0.11511 0.1819,-0.10636 0.0926,0.0854 -0.19844,0.42613 -0.4613,0.54006 -0.46979,0.59786 -0.0661,0.45066 0.52086,-0.18995 0.64765,0.22511 0.13229,0.43306 -0.1819,0.0734 0.0425,0.14285 0.49874,0.15434 0.60358,0.0152 0.94583,-0.15671 1.25677,-0.63126 z m 9.62812,-0.40618 c 0.12212,0 0.36148,-0.32742 0.53191,-0.72761 l 0.30987,-0.7276 -0.12564,0.70407 c -0.12543,0.7029 0.15533,0.84079 0.84014,0.4126 0.20668,-0.12922 0.26109,-0.0194 0.16758,0.33817 -0.0774,0.29618 -0.008,0.52953 0.15697,0.52953 0.16249,0 0.29544,-0.18233 0.29544,-0.40517 0,-0.22285 0.16441,-0.46827 0.36536,-0.54538 0.27649,-0.1061 0.31264,-0.37757 0.14864,-1.11618 -0.20419,-0.91959 -0.19267,-0.9454 0.19941,-0.44681 0.23452,0.29824 0.35869,0.35598 0.28454,0.13229 -0.46586,-1.40514 -0.50733,-1.64255 -0.26027,-1.48986 0.14586,0.0901 0.33646,-0.0218 0.42356,-0.24875 0.12283,-0.32009 0.0252,-0.37965 -0.4353,-0.2655 -0.3265,0.0809 -0.44482,0.0788 -0.26292,-0.005 0.52418,-0.24074 0.38437,-0.60812 -0.21426,-0.56303 -0.38415,0.0289 -0.50856,0.18037 -0.42155,0.51309 0.0763,0.29156 0.0145,0.40472 -0.16143,0.29597 -0.18191,-0.11243 -0.2219,-0.012 -0.11065,0.27796 0.1088,0.28352 0.0702,0.38972 -0.10282,0.2828 -0.15848,-0.0979 -0.20692,-0.52844 -0.1132,-1.00593 0.11138,-0.56746 0.0832,-0.71754 -0.088,-0.46875 -0.19159,0.27837 -0.29443,0.17221 -0.42967,-0.44356 -0.0978,-0.44524 -0.46945,-1.00062 -0.8259,-1.23417 -0.62212,-0.40763 -0.6583,-0.39781 -0.90274,0.24512 -0.14006,0.36838 -0.40643,0.67357 -0.59193,0.67819 -0.19775,0.005 -0.12481,0.16913 0.17631,0.39688 0.28248,0.21365 0.41285,0.38846 0.28973,0.38846 -0.12313,0 -0.008,0.23813 0.25502,0.52917 0.26339,0.29104 0.59795,0.52916 0.74347,0.52916 0.14552,0 0.0378,-0.25655 -0.23944,-0.57012 l -0.50403,-0.57012 0.70731,0.45496 c 0.69857,0.44935 0.70551,0.4474 0.56154,-0.15747 -0.0802,-0.33685 -0.33894,-0.77494 -0.57503,-0.97354 -0.34767,-0.29248 -0.35382,-0.33904 -0.0324,-0.24505 0.48199,0.14093 0.94986,1.07876 1.16038,2.32593 0.086,0.50932 0.0838,0.76374 -0.005,0.56537 -0.13611,-0.3045 -0.1968,-0.3045 -0.38971,0 -0.1772,0.27969 -0.22942,0.2532 -0.23256,-0.11797 -0.002,-0.26325 -0.12344,-0.40485 -0.26935,-0.31467 -0.17529,0.10834 -0.17687,0.32919 -0.005,0.65097 0.31639,0.59117 -0.11426,2.01448 -0.67456,2.22949 -0.20811,0.0799 -0.37084,0.41683 -0.36162,0.74882 l 0.0168,0.60361 0.23928,-0.59531 c 0.13161,-0.32742 0.3392,-0.59531 0.46132,-0.59531 z m 1.14863,-0.83826 c -0.0169,-0.24276 -0.0992,-0.65948 -0.18296,-0.92604 -0.14433,-0.45937 -0.1365,-0.46007 0.15009,-0.0133 0.1663,0.25924 0.24863,0.67596 0.18296,0.92605 -0.10756,0.40964 -0.12244,0.41096 -0.15009,0.0133 z m -22.652568,1.10284 c -0.08994,-0.14552 -0.275557,-0.26458 -0.41249,-0.26458 -0.136932,0 -0.248968,0.11906 -0.248968,0.26458 0,0.14552 0.185621,0.26458 0.41249,0.26458 0.226869,0 0.338905,-0.11906 0.248968,-0.26458 z m 15.406468,-0.15985 c -0.0879,-0.0879 -0.31612,-0.0973 -0.50712,-0.0209 -0.21106,0.0845 -0.14837,0.14716 0.15986,0.15985 0.27891,0.0115 0.43518,-0.051 0.34726,-0.13896 z m -16.332509,-0.38493 c 0,-0.15411 0.09283,-0.22283 0.20628,-0.15271 0.320472,0.19806 0.191245,-0.95011 -0.185656,-1.64954 -0.267743,-0.49686 -0.268853,-0.58451 -0.0053,-0.42165 0.246578,0.15239 0.288576,0.0408 0.162301,-0.43109 -0.0937,-0.35018 -0.171982,-0.72225 -0.173969,-0.82682 -0.002,-0.10457 -0.182207,-0.1216 -0.400488,-0.0378 -0.302288,0.116 -0.396875,-0.0513 -0.396875,-0.70216 0,-0.72671 0.0589,-0.80557 0.393962,-0.52749 0.216679,0.17983 0.328714,0.43253 0.248968,0.56156 -0.07974,0.12903 0.04063,0.2346 0.267497,0.2346 0.22687,0 0.41249,-0.11906 0.41249,-0.26458 0,-0.14552 -0.119062,-0.26458 -0.264583,-0.26458 -0.145521,0 -0.264583,-0.40284 -0.264583,-0.8952 0,-0.76615 -0.104734,-0.91522 -0.726523,-1.03408 l -0.726523,-0.13888 0.631713,0.51153 c 0.805814,0.6525 0.523353,0.97522 -0.351726,0.40184 -0.765619,-0.50165 -0.943608,-0.53337 -0.943608,-0.16813 0,0.14552 0.178594,0.26458 0.396875,0.26458 0.527477,0 0.50068,0.16078 -0.132292,0.79375 -0.658992,0.659 -0.669012,0.96005 -0.03745,1.12521 0.548222,0.14336 0.919371,1.43938 0.462017,1.61333 -0.173359,0.0659 -0.07698,0.29297 0.236893,0.55802 0.291041,0.24577 0.381702,0.37231 0.201468,0.2812 -0.215386,-0.10888 -0.273895,-0.0255 -0.170713,0.24344 0.08634,0.22501 0.255344,0.34831 0.375562,0.27401 0.120217,-0.0743 0.293361,-0.0141 0.384765,0.13381 0.0914,0.1479 0.03307,0.2689 -0.129624,0.2689 -0.162697,0 -0.222229,0.11906 -0.132292,0.26458 0.216165,0.34976 0.661459,0.33925 0.661459,-0.0156 z m -0.352778,-0.95453 c -0.09701,-0.097 -0.176389,-0.29941 -0.176389,-0.44979 0,-0.16579 0.123235,-0.15016 0.31309,0.0397 0.1722,0.1722 0.251575,0.37461 0.176389,0.44979 -0.07519,0.0752 -0.216076,0.0573 -0.31309,-0.0397 z m -0.440972,-1.67569 c 0,-0.14552 0.126089,-0.26458 0.280198,-0.26458 0.154109,0 0.206614,0.11906 0.116677,0.26458 -0.08994,0.14552 -0.216026,0.26458 -0.280199,0.26458 -0.06417,0 -0.116676,-0.11906 -0.116676,-0.26458 z m 5.688539,2.64583 c 0.0899,-0.14552 -0.0221,-0.26458 -0.24897,-0.26458 -0.22687,0 -0.41249,0.11906 -0.41249,0.26458 0,0.14552 0.11204,0.26459 0.24897,0.26459 0.13694,0 0.32256,-0.11907 0.41249,-0.26459 z m 5.15938,0 c 0,-0.14552 -0.11906,-0.26458 -0.26459,-0.26458 -0.14552,0 -0.26458,0.11906 -0.26458,0.26458 0,0.14552 0.11906,0.26459 0.26458,0.26459 0.14553,0 0.26459,-0.11907 0.26459,-0.26459 z m 4.23738,-0.46302 c 0.003,-0.28925 0.077,-0.35228 0.19844,-0.16795 0.10691,0.16229 0.47719,0.3834 0.82283,0.49137 0.49003,0.15306 0.58083,0.11721 0.41223,-0.16278 -0.17521,-0.29099 -0.13012,-0.28921 0.23785,0.009 0.24973,0.20263 0.53703,0.28546 0.63844,0.18405 0.10141,-0.10141 0.0288,-0.28052 -0.16129,-0.39802 -0.19011,-0.11749 -0.32461,-0.31938 -0.29889,-0.44863 0.0257,-0.12925 -0.38082,-0.33613 -0.90344,-0.45972 -0.74177,-0.17544 -0.95022,-0.35508 -0.95022,-0.8189 0,-0.56987 -0.47715,-1.14801 -1.32292,-1.6029 -0.21828,-0.1174 -0.0533,0.1558 0.36673,0.60712 0.67165,0.72176 0.74725,0.96565 0.62781,2.02529 -0.0747,0.6626 -0.0314,1.20472 0.0963,1.20472 0.12764,0 0.2339,-0.20836 0.23613,-0.46302 z m 7.42168,0.18913 c 0.28147,-0.15064 0.51177,-0.47919 0.51177,-0.7301 0,-0.56716 -0.89833,-1.15746 -1.44323,-0.94837 -0.59386,0.22789 -0.24014,0.60498 0.4084,0.43538 0.46081,-0.1205 0.53736,-0.0398 0.46276,0.48786 -0.0592,0.41836 -0.23928,0.6075 -0.53246,0.55909 -0.24368,-0.0402 -0.5186,0.049 -0.61092,0.19843 -0.21743,0.3518 0.54476,0.35035 1.20368,-0.002 z m 7.68616,-0.91673 c 0.16202,0.36859 0.18322,0.24816 0.0699,-0.39688 -0.19785,-1.12585 -0.30479,-1.32409 -0.71144,-1.31886 -0.22481,0.003 -0.21796,0.0657 0.0239,0.21917 0.2348,0.14899 0.26824,0.40641 0.10877,0.83748 -0.21972,0.59395 -0.23924,0.58093 -0.42757,-0.28531 -0.17258,-0.79382 -0.22538,-0.8413 -0.4209,-0.37852 -0.31921,0.75553 -0.30585,0.98514 0.0447,0.76849 0.1857,-0.11477 0.23378,-0.0728 0.12264,0.10702 -0.10055,0.1627 0.0299,0.51074 0.28985,0.77342 0.45521,0.45996 0.47627,0.45299 0.57012,-0.18879 0.091,-0.62263 0.11273,-0.63164 0.33006,-0.13722 z m -24.16064,0.34396 c 0.39793,-0.39794 0.41745,-0.83384 0.0265,-0.59223 -0.20907,0.12921 -0.20815,0.0251 0.003,-0.36993 0.16183,-0.30237 0.50113,-0.66842 0.754,-0.81345 0.377,-0.21621 0.32207,-0.25398 -0.30507,-0.20977 -1.01604,0.0716 -1.19138,-0.53074 -0.25781,-0.88569 0.60719,-0.23085 0.67046,-0.33068 0.35224,-0.55575 -0.32125,-0.22721 -0.3098,-0.24931 0.0666,-0.12866 0.25001,0.0801 0.52492,0.0318 0.61093,-0.10733 0.086,-0.13916 0.2858,-0.25303 0.44399,-0.25303 0.15818,0 -0.0274,0.29197 -0.4125,0.64883 -0.80591,0.7469 -0.84426,0.85048 -0.31485,0.85048 0.21188,0 0.33425,-0.0825 0.27194,-0.18331 -0.0623,-0.10082 0.24475,-0.50233 0.68236,-0.89223 0.4376,-0.38991 0.73178,-0.81226 0.65373,-0.93855 -0.0781,-0.12629 0.12614,-0.17086 0.45376,-0.0991 0.4785,0.10489 0.51761,0.0748 0.19881,-0.15291 -0.32829,-0.23449 -0.29129,-0.28419 0.21405,-0.28754 0.39968,-0.003 0.54477,0.10299 0.41961,0.3055 -0.13043,0.21104 -0.0443,0.25314 0.27061,0.13229 0.25406,-0.0975 0.60101,-0.18562 0.77101,-0.19585 0.16999,-0.0102 0.071,-0.12092 -0.22008,-0.24599 -0.50492,-0.21697 -0.50189,-0.22824 0.0661,-0.24599 0.52742,-0.0165 0.75753,0.38906 0.52917,0.93259 -0.0922,0.21935 1.74181,1.14222 1.9788,0.99576 0.10619,-0.0656 0.46343,0.0302 0.79385,0.213 0.33043,0.18278 0.73597,0.30526 0.9012,0.27218 0.16523,-0.0331 0.37682,0.34716 0.47022,0.84499 0.17993,0.95914 0.5468,1.2208 1.71163,1.2208 0.39556,0 0.86207,0.14288 1.03669,0.3175 0.39003,0.39003 0.41194,0.0888 0.0436,-0.59947 -0.15759,-0.29446 -0.16961,-0.51178 -0.0283,-0.51178 0.13507,0 0.31411,0.1786 0.39788,0.39688 0.0838,0.21828 0.34165,0.39687 0.57308,0.39687 0.23144,0 0.34721,0.11907 0.25728,0.26459 -0.0899,0.14552 -0.0374,0.26458 0.11667,0.26458 0.15411,0 0.2802,-0.24515 0.2802,-0.54478 0,-0.33752 -0.11372,-0.4745 -0.29891,-0.36005 -0.18306,0.11314 -0.24715,0.0423 -0.16536,-0.18282 0.14227,-0.39157 0.1974,-0.39706 1.32417,-0.13186 0.40018,0.0942 0.7276,0.0628 0.7276,-0.0697 0,-0.13252 -0.32623,-0.32282 -0.72495,-0.4229 -0.39873,-0.10007 -0.80632,-0.31359 -0.90576,-0.47449 -0.0994,-0.1609 -0.81054,-0.33006 -1.58021,-0.3759 -1.12343,-0.0669 -1.50574,-0.21592 -1.93852,-0.75551 -0.2965,-0.36967 -0.78997,-0.81616 -1.09658,-0.99218 -0.30662,-0.17602 -1.02099,-0.62841 -1.5875,-1.00531 -1.45113,-0.96545 -2.2012,-1.08471 -3.83511,-0.6098 -0.78553,0.22833 -1.69535,0.41741 -2.02181,0.42018 -0.32645,0.003 -0.53855,0.0941 -0.47131,0.20284 0.0672,0.10879 -0.17168,0.33172 -0.53092,0.4954 -0.35924,0.16368 -0.65316,0.40998 -0.65316,0.54734 0,0.13735 -0.42411,0.3897 -0.94245,0.56077 -0.923029,0.30463 -1.182338,0.67104 -1.702985,2.40636 -0.187178,0.62387 -0.09975,0.74722 0.88818,1.2531 1.289375,0.66024 1.294325,0.66097 1.704335,0.25096 z m -1.16285,-0.94383 c 0.58052,-0.68041 1.0074,-0.78054 0.7779,-0.18247 -0.0862,0.22456 -0.2203,0.34465 -0.29808,0.26688 -0.0778,-0.0778 -0.33095,0.004 -0.56263,0.18246 -0.258083,0.19845 -0.226013,0.0951 0.0828,-0.26687 z m -0.371733,-0.42607 c 0,-0.0549 0.208363,-0.2633 0.463023,-0.46302 0.41964,-0.32911 0.429,-0.31975 0.0999,0.0999 -0.34564,0.44073 -0.562913,0.58088 -0.562913,0.36312 z m 13.493753,-0.69385 c 0,-0.14552 0.11203,-0.26459 0.24897,-0.26459 0.13693,0 0.32255,0.11907 0.41249,0.26459 0.0899,0.14552 -0.0221,0.26458 -0.24897,0.26458 -0.22687,0 -0.41249,-0.11906 -0.41249,-0.26458 z m -5.44328,-1.71411 c -0.28041,-0.21215 -0.39078,-0.38769 -0.24526,-0.39009 0.39315,-0.006 1.06514,0.46579 0.89906,0.63187 -0.0792,0.0792 -0.37338,-0.0296 -0.6538,-0.24178 z m -16.6215,2.55795 c 0.02314,-0.46012 -0.06297,-0.77165 -0.191366,-0.6923 -0.128392,0.0794 -0.23344,-0.0413 -0.23344,-0.26822 0,-0.22687 0.0893,-0.38272 0.198437,-0.34634 0.242699,0.0809 0.399006,-0.30411 0.161128,-0.39688 -0.09328,-0.0364 -0.253369,0.11245 -0.355752,0.33073 -0.102383,0.21828 -0.330554,0.6741 -0.507047,1.01292 -0.250744,0.48137 -0.251053,0.7002 -0.0014,1.001 0.479071,0.57725 0.882168,0.29928 0.929453,-0.64091 z m 2.747982,0.20752 c -0.346835,-0.21927 -0.345374,-0.25 0.01205,-0.25356 0.61316,-0.006 0.592242,-1.09286 -0.02414,-1.25404 -0.283177,-0.0741 -0.514869,-0.29935 -0.514869,-0.50066 0,-0.20131 -0.115326,-0.36602 -0.256279,-0.36602 -0.140954,0 -0.191743,0.16818 -0.112865,0.37374 0.07888,0.20555 -0.01416,0.42658 -0.206741,0.49119 -0.192586,0.0646 -0.141916,0.0862 0.112601,0.048 0.254516,-0.0382 0.530634,0.0403 0.613595,0.17458 0.08296,0.13423 0.261673,0.17556 0.397138,0.0918 0.407782,-0.25203 0.27764,0.11225 -0.21672,0.60661 -0.267215,0.26721 -0.826658,0.45183 -1.322916,0.43656 -0.48665,-0.015 -0.859896,0.10552 -0.859896,0.2776 0,0.18968 0.336606,0.26476 0.894791,0.1996 0.511362,-0.0597 0.977668,0.0296 1.088196,0.20847 0.143646,0.23243 0.270243,0.2361 0.49206,0.0143 0.221817,-0.22182 0.197116,-0.36285 -0.09601,-0.54817 z m 9.110538,-0.0251 c -0.17147,-0.27743 -0.64166,-0.0547 -0.64166,0.30394 0,0.13237 0.17791,0.1724 0.39536,0.089 0.21744,-0.0834 0.32828,-0.26024 0.2463,-0.39289 z m 5.22003,-0.78183 c -0.30114,-0.24384 -0.46353,-0.52734 -0.36087,-0.63 0.10265,-0.10265 -0.11467,-0.11102 -0.48292,-0.0186 -0.36826,0.0924 -1.17239,0.0551 -1.78695,-0.083 -0.75605,-0.16988 -1.17288,-0.16126 -1.28901,0.0266 -0.0963,0.15583 -0.0456,0.1998 0.11556,0.1002 0.15796,-0.0976 0.36197,-0.0565 0.45338,0.0914 0.0914,0.14789 0.44224,0.26889 0.77963,0.26889 0.3374,0 0.77681,0.19684 0.97647,0.43742 0.19966,0.24058 0.72026,0.58889 1.15688,0.77403 0.69007,0.29261 0.80637,0.28038 0.8896,-0.0935 0.0527,-0.23657 -0.15064,-0.62963 -0.45177,-0.87348 z m -9.57427,-0.62148 c 0.0046,-0.13461 -0.214485,-0.0155 -0.486918,0.26458 -0.272433,0.28012 -0.439596,0.60574 -0.371475,0.72358 0.133929,0.2317 0.844578,-0.58639 0.858393,-0.98816 z m 24.61466,0.90619 c 0.21829,-0.14106 0.27782,-0.26715 0.1323,-0.28019 -0.14552,-0.013 -0.54846,-0.0761 -0.89542,-0.1401 -0.53823,-0.0993 -0.58202,-0.0576 -0.29833,0.28424 0.38695,0.46625 0.52344,0.48374 1.06145,0.13605 z m -31.220829,-0.26458 c 0,-0.14552 -0.0525,-0.26458 -0.116677,-0.26458 -0.06417,0 -0.190262,0.11906 -0.280198,0.26458 -0.08994,0.14552 -0.03743,0.26458 0.116676,0.26458 0.154109,0 0.280199,-0.11906 0.280199,-0.26458 z m 5.129198,-0.14906 c 0.08885,-0.23154 0.294036,-0.33002 0.466064,-0.2237 0.191081,0.11809 0.235921,0.0744 0.118545,-0.11553 -0.298064,-0.48227 -0.876256,-0.35645 -1.02797,0.22371 -0.162647,0.62196 0.211602,0.71948 0.443361,0.11552 z m 28.852261,-1.37229 c -0.21774,-1.50182 -0.29188,-1.65365 -0.80748,-1.65365 -0.21828,0 -0.32034,-0.12383 -0.2268,-0.27519 0.11028,-0.17844 -0.0703,-0.21487 -0.51355,-0.10361 -0.44271,0.11112 -0.68363,0.0627 -0.68363,-0.1373 0,-0.16988 -0.12702,-0.23037 -0.28228,-0.13442 -0.1674,0.10346 -0.24816,-0.0136 -0.19843,-0.28767 0.0461,-0.25416 -0.0816,-0.51968 -0.28372,-0.59004 -0.22408,-0.078 -0.29544,-0.0112 -0.18282,0.17099 0.1016,0.1644 0.0716,0.29891 -0.0668,0.29891 -0.13834,0 -0.33864,-0.32742 -0.44512,-0.72761 -0.12048,-0.45281 -0.2446,-0.58757 -0.32866,-0.35682 -0.097,0.26629 -0.23156,0.19172 -0.47741,-0.26458 -0.2946,-0.54676 -0.36652,-0.57312 -0.51567,-0.18905 -0.0966,0.24882 -0.34057,0.38213 -0.5513,0.30127 -0.24009,-0.0921 -0.33149,-0.0136 -0.25053,0.21514 0.53207,1.50379 0.70386,1.87204 0.8194,1.7565 0.0728,-0.0728 0.0204,-0.42662 -0.11638,-0.78635 -0.18938,-0.49812 -0.16238,-0.65406 0.11325,-0.65406 0.19906,0 0.30119,0.0983 0.22695,0.21839 -0.0742,0.12012 -5.3e-4,0.42769 0.16391,0.68351 0.28262,0.43981 0.29105,0.43993 0.15491,0.002 -0.0792,-0.25467 -0.0286,-0.46302 0.11232,-0.46302 0.30091,0 0.33217,0.54331 0.0538,0.93489 -0.30205,0.42488 -0.85877,0.30791 -1.30141,-0.27344 -0.39523,-0.51907 -0.39953,-0.51781 -0.22543,0.0662 0.10626,0.3564 0.0641,0.59531 -0.10492,0.59531 -0.15533,0 -0.28242,0.18562 -0.28242,0.41249 0,0.22687 0.11906,0.33891 0.26458,0.24897 0.14553,-0.0899 0.26459,-0.0336 0.26459,0.1252 0,0.35377 1.0669,0.77838 1.52135,0.60548 0.1819,-0.0692 0.33073,-0.28177 0.33073,-0.47236 0,-0.19058 0.14883,-0.4069 0.33073,-0.48071 0.24889,-0.10099 0.23252,-0.20366 -0.0662,-0.41487 -0.34495,-0.24396 -0.33863,-0.28121 0.0483,-0.28473 0.24486,-0.002 0.52077,0.23407 0.61314,0.52512 0.0924,0.29104 0.33852,0.52916 0.547,0.52916 0.20847,0 0.37904,0.23813 0.37904,0.52917 0,0.35783 0.17639,0.52917 0.54479,0.52917 0.29963,0 0.47119,0.11906 0.38126,0.26458 -0.0899,0.14552 0.0887,0.26458 0.39687,0.26458 0.30822,0 0.48681,0.11906 0.39688,0.26459 -0.0899,0.14552 -0.0301,0.26458 0.13289,0.26458 0.20279,0 0.23886,-0.39692 0.11419,-1.25677 z m -4.745,-0.8599 c -0.0899,-0.14552 -0.0374,-0.26458 0.11668,-0.26458 0.15411,0 0.28019,0.11906 0.28019,0.26458 0,0.14552 -0.0525,0.26458 -0.11667,0.26458 -0.0642,0 -0.19026,-0.11906 -0.2802,-0.26458 z m -4.42626,1.53789 c -0.0576,-0.17281 -0.2462,-0.36135 -0.4191,-0.41898 -0.19335,-0.0644 -0.25248,0.0565 -0.1536,0.31419 0.18456,0.48094 0.73144,0.581 0.5727,0.10479 z m 0.53591,-0.20294 c -0.17762,-0.28442 -0.36003,-0.48006 -0.40534,-0.43474 -0.15684,0.15683 0.25225,0.95187 0.48978,0.95187 0.13119,0 0.0932,-0.23271 -0.0844,-0.51713 z m 6.66847,-0.012 c -0.31832,-0.5948 -0.31657,-0.59414 -0.93544,-0.35666 -0.39033,0.14978 -0.36703,0.21828 0.17679,0.51979 0.88391,0.49008 1.08509,0.44682 0.75865,-0.16313 z m -17.19791,-0.10399 c 0,-0.52228 -0.55063,-0.66621 -1.32292,-0.3458 -0.65759,0.27283 -0.65605,0.27551 0.26458,0.45957 0.50933,0.10183 0.95581,0.20082 0.99219,0.21997 0.0364,0.0192 0.0661,-0.13103 0.0661,-0.33374 z m -8.466669,-0.92958 c 0,-0.13189 0.26789,-0.1811 0.595312,-0.10933 0.478274,0.10482 0.517287,0.0747 0.198438,-0.15302 -0.218281,-0.15591 -0.277813,-0.28713 -0.132292,-0.29158 0.145521,-0.004 0.08599,-0.13567 -0.132292,-0.29159 -0.318029,-0.22717 -0.277221,-0.2572 0.205409,-0.15119 0.388524,0.0853 0.858044,-0.0829 1.322914,-0.47407 0.39635,-0.33351 0.80386,-0.59107 0.90557,-0.57237 0.10172,0.0187 0.72218,-0.62083 1.3788,-1.4212 1.83494,-2.23665 1.98048,-2.38125 2.39671,-2.38125 0.4563,0 0.24553,0.78382 -0.21844,0.81235 -0.16633,0.0102 -0.0643,0.12092 0.22675,0.24598 0.76953,0.33068 2.12251,0.31086 2.89796,-0.0425 1.12104,-0.51077 0.80799,-0.89284 -0.64884,-0.79189 -0.83905,0.0581 -1.32308,-0.0144 -1.32308,-0.19843 0,-0.22984 1.28468,-0.38385 2.27305,-0.2725 0.086,0.01 0.33297,-0.19867 0.54879,-0.46302 0.21582,-0.26436 0.31701,-0.33182 0.22487,-0.14991 -0.0921,0.1819 -0.0542,0.33072 0.0844,0.33072 0.13855,0 0.31436,-0.16277 0.3907,-0.36172 0.13013,-0.33911 -0.33573,-0.55415 -2.36596,-1.09211 -0.38722,-0.1026 -0.61972,-0.004 -0.74184,0.31405 -0.14302,0.3727 -0.2216,0.39272 -0.40116,0.10218 -0.14413,-0.23321 -0.94051,-0.40734 -2.24612,-0.49113 -1.64112,-0.10532 -2.19541,-0.0369 -2.93746,0.36275 -1.07693,0.57996 -1.168039,1.20368 -0.2625,1.79701 0.72911,0.47773 1.31778,0.56745 1.06764,0.16272 -0.0899,-0.14552 0.0221,-0.26458 0.24897,-0.26458 0.22687,0 0.41249,0.11906 0.41249,0.26458 0,0.14552 0.30468,0.26459 0.67707,0.26459 0.3724,0 0.6104,0.10788 0.52891,0.23974 -0.0815,0.13186 -0.37225,0.18115 -0.64613,0.10953 -0.3108,-0.0813 -0.6428,0.0766 -0.88336,0.42003 -0.21198,0.30264 -0.48312,0.46171 -0.60254,0.35349 -0.11942,-0.10821 -0.13436,-0.0526 -0.0332,0.12361 0.28862,0.50273 -2.055794,2.72235 -2.875418,2.72235 -0.09092,0 -0.09172,-0.11907 -0.0018,-0.26459 0.08994,-0.14552 0.03743,-0.26458 -0.116677,-0.26458 -0.154115,0 -0.280205,0.16586 -0.280205,0.36857 0,0.20271 -0.178593,0.4371 -0.396875,0.52086 -0.609729,0.23398 -0.502659,1.22724 0.132292,1.22724 0.291042,0 0.529167,-0.10792 0.529167,-0.23982 z m 6.614579,-6.37477 c 0.21829,-0.14106 0.57547,-0.25647 0.79375,-0.25647 0.35278,0 0.35278,0.0285 0,0.25647 -0.21828,0.14107 -0.57546,0.25648 -0.79375,0.25648 -0.35277,0 -0.35277,-0.0285 0,-0.25648 z m -3.08141,-0.18178 c 0.26369,-0.26369 1.22988,-0.29775 1.06915,-0.0377 -0.0746,0.12071 -0.38658,0.21946 -0.69328,0.21946 -0.30671,0 -0.47585,-0.0818 -0.37587,-0.18178 z m 2.62343,-0.53074 c 0.25743,-0.0671 0.61462,-0.0627 0.79375,0.01 0.17913,0.0725 -0.0315,0.12736 -0.46806,0.12197 -0.43656,-0.005 -0.58312,-0.0647 -0.32569,-0.13177 z m 3.63298,-0.0812 c -0.23846,-0.1541 -0.2711,-0.25809 -0.0818,-0.26053 0.17332,-0.002 0.3887,0.11501 0.47864,0.26053 0.20301,0.32849 0.11142,0.32849 -0.39688,0 z m 8.46667,7.15937 c 0,-0.13693 -0.13746,-0.33392 -0.30546,-0.43776 -0.18055,-0.11158 -0.23397,-0.0731 -0.13065,0.0941 0.0962,0.15558 0.0252,0.34317 -0.15755,0.41687 -0.20052,0.0808 -0.14869,0.14229 0.13064,0.15489 0.25466,0.0115 0.46302,-0.0911 0.46302,-0.22808 z m -15.9089,-0.78282 c 0.19964,-0.12646 0.3187,-0.34551 0.26459,-0.48678 -0.0541,-0.14126 -0.32759,-0.036 -0.60771,0.23399 -0.52258,0.50361 -0.30541,0.66361 0.34312,0.25279 z m 27.15369,-0.0265 c 0.0899,-0.14552 0.0374,-0.26458 -0.11667,-0.26458 -0.15411,0 -0.2802,0.11906 -0.2802,0.26458 0,0.14552 0.0525,0.26459 0.11667,0.26459 0.0642,0 0.19027,-0.11907 0.2802,-0.26459 z m -10.90262,-0.87888 c 0.0738,-0.19235 -0.108,-0.50097 -0.40403,-0.68585 -0.43911,-0.27422 -0.58501,-0.27073 -0.79231,0.019 -0.19268,0.26931 -0.21887,0.24528 -0.10839,-0.0994 0.0801,-0.25 0.0455,-0.51651 -0.0771,-0.59223 -0.12253,-0.0757 -0.28119,0.16788 -0.35258,0.54133 -0.0986,0.51562 0.006,0.73368 0.43277,0.90619 0.81552,0.32932 1.14986,0.30646 1.30161,-0.089 z m -0.85045,-0.33379 c 0.0127,-0.30823 0.0754,-0.37092 0.15985,-0.15985 0.0764,0.19099 0.067,0.4192 -0.0209,0.50712 -0.0879,0.0879 -0.15045,-0.0684 -0.13897,-0.34727 z m 14.52278,-0.17639 c -0.009,-0.96597 -0.60431,-1.92904 -1.02928,-1.6664 -0.16967,0.10486 -0.21736,0.0115 -0.12159,-0.23809 0.09,-0.23447 0.0174,-0.41061 -0.16914,-0.41061 -0.45475,0 -0.10285,2.08754 0.45599,2.70507 0.62443,0.68998 0.87349,0.57757 0.86402,-0.38997 z m -37.297833,0.48466 c 0,-0.0609 -0.07227,-0.29898 -0.160599,-0.52916 -0.226859,-0.59119 -0.633151,-0.52019 -0.633151,0.11065 0,0.29398 0.176389,0.52916 0.396875,0.52916 0.218282,0 0.396875,-0.0498 0.396875,-0.11065 z m 0.686766,-0.31568 c -0.115936,-0.30212 -0.04957,-0.38257 0.227802,-0.27614 0.215271,0.0826 0.461773,0.0363 0.547782,-0.10283 0.08601,-0.13917 -0.148303,-0.25303 -0.520693,-0.25303 -0.37239,0 -0.677073,0.0498 -0.677073,0.11065 0,0.25495 0.331491,0.94768 0.45349,0.94768 0.07276,0 0.05867,-0.19185 -0.03131,-0.42633 z m 33.203117,0.23398 c -0.35103,-0.0661 -0.80601,-0.28807 -1.01108,-0.49313 -0.20507,-0.20507 -0.51317,-0.3702 -0.68468,-0.36696 -0.17151,0.003 -0.0142,0.23871 0.34963,0.52328 0.3638,0.28457 0.95911,0.50383 1.32292,0.48725 l 0.66145,-0.0301 z m -35.590776,-0.45021 c 0.513198,-0.51319 0.474983,-0.65618 -0.132888,-0.49722 -0.545729,0.14271 -0.98116,0.8752 -0.520266,0.8752 0.151348,0 0.445267,-0.17009 0.653154,-0.37798 z m 18.369646,0.0473 c 0,-0.1819 -0.29766,-0.33073 -0.66146,-0.33073 -0.70226,0 -0.88175,0.26389 -0.33073,0.48623 0.59944,0.24188 0.99219,0.18033 0.99219,-0.1555 z m -5.69675,-0.74088 c -0.0854,-0.13822 -0.0404,-0.25131 0.10011,-0.25131 0.14049,0 0.19316,-0.23812 0.11705,-0.52916 -0.1341,-0.51282 -0.87041,-0.76461 -0.87041,-0.29766 0,0.12733 -0.0771,0.61719 -0.17142,1.08858 -0.16313,0.81569 -0.14361,0.84219 0.40429,0.54896 0.31663,-0.16945 0.50581,-0.42119 0.42038,-0.55941 z m 15.57682,0.45654 c 0.0958,0.0958 0.17409,0.0352 0.17409,-0.13458 0,-0.35398 -0.0644,-0.36889 -0.63981,-0.14808 -0.23019,0.0883 -0.41852,0.2815 -0.41852,0.42927 0,0.16892 0.13183,0.15926 0.35507,-0.026 0.19529,-0.16208 0.43342,-0.21634 0.52917,-0.12059 z M 95.502424,198.4212 c -0.06103,-0.32742 -0.119818,-0.64889 -0.130632,-0.71437 -0.01081,-0.0655 -0.152652,0.0139 -0.315195,0.17647 -0.217657,0.21766 -0.200227,0.40325 0.06615,0.70431 0.480467,0.54303 0.50955,0.53028 0.379682,-0.16641 z m 32.922626,0.18282 c 0,-0.22687 0.11906,-0.3389 0.26458,-0.24896 0.14552,0.0899 0.26459,-0.0729 0.26459,-0.36186 0,-0.28896 -0.20836,-0.57302 -0.46303,-0.63125 -0.59303,-0.13559 -1.91822,0.60069 -1.91822,1.06577 0,0.19549 0.11812,0.28244 0.26248,0.19321 0.14437,-0.0892 0.47179,-0.0403 0.72761,0.10864 0.65338,0.38049 0.86199,0.35011 0.86199,-0.12555 z m -0.77286,-0.5356 c 0.0127,-0.30822 0.0754,-0.37091 0.15985,-0.15985 0.0764,0.191 0.067,0.4192 -0.0209,0.50712 -0.0879,0.0879 -0.15045,-0.0684 -0.13896,-0.34727 z m -27.27298,0.30225 c 0,-0.0642 -0.11906,-0.19026 -0.26458,-0.2802 -0.14552,-0.0899 -0.264583,-0.0374 -0.264583,0.11668 0,0.15411 0.119063,0.2802 0.264583,0.2802 0.14552,0 0.26458,-0.0525 0.26458,-0.11668 z m 7.40834,-0.14791 c 0,-0.3315 -0.28079,-0.3315 -0.79375,0 -0.32093,0.2074 -0.28296,0.25726 0.19844,0.26054 0.32742,0.002 0.59531,-0.11502 0.59531,-0.26054 z m 9.39271,0 c 0.0899,-0.14552 0.0374,-0.26458 -0.11668,-0.26458 -0.15411,0 -0.2802,0.11906 -0.2802,0.26458 0,0.14552 0.0525,0.26459 0.11668,0.26459 0.0642,0 0.19026,-0.11907 0.2802,-0.26459 z m -0.66146,-0.66145 c 0,-0.2795 -0.25432,-0.38516 -0.8599,-0.35724 -0.80034,0.0369 -0.80951,0.0473 -0.13229,0.14987 0.40018,0.0606 0.7276,0.22138 0.7276,0.35723 0,0.13586 0.0595,0.24701 0.1323,0.24701 0.0728,0 0.13229,-0.17859 0.13229,-0.39687 z m 3.31844,0.11425 c 0.0961,-0.15544 0.32593,-0.22458 0.5108,-0.15363 0.18488,0.0709 0.59312,-0.2186 0.9072,-0.64342 0.31409,-0.42483 0.70932,-0.77241 0.8783,-0.77241 0.16898,0 0.0761,0.17481 -0.20636,0.38846 -0.46471,0.35149 -0.46953,0.38926 -0.0506,0.39687 0.25466,0.005 0.46651,0.15725 0.47078,0.33915 0.004,0.1819 0.35833,-0.0546 0.78682,-0.52559 0.45565,-0.50084 0.71527,-1.02255 0.62539,-1.25677 -0.0993,-0.2588 0.002,-0.40046 0.28713,-0.40046 0.24244,0 0.3723,0.11084 0.28858,0.2463 -0.20679,0.33459 0.40083,0.68358 0.61359,0.35243 0.0929,-0.14455 0.46651,-0.3462 0.83032,-0.44811 0.52392,-0.14675 0.57893,-0.1237 0.26458,0.11086 -0.33621,0.25087 -0.31933,0.28385 0.11036,0.21577 0.89101,-0.14117 0.72575,-0.6208 -0.4362,-1.26594 -0.62115,-0.34488 -1.1889,-0.70861 -1.26166,-0.8083 -0.26627,-0.36481 -1.79025,-1.02248 -1.96482,-0.84791 -0.0989,0.0989 -0.10125,-0.0249 -0.005,-0.27514 0.14015,-0.36524 0.0255,-0.45416 -0.58133,-0.4509 -0.44656,0.002 -0.62657,0.0863 -0.43985,0.20498 0.32565,0.20703 0.32581,0.95708 2.6e-4,1.28261 -0.10123,0.10123 -0.18008,0.31303 -0.17524,0.47068 0.005,0.15765 0.2132,0.0485 0.46302,-0.24253 0.24982,-0.29105 0.64903,-0.56105 0.88713,-0.6 0.51213,-0.0838 0.86511,0.63468 0.44069,0.89699 -0.17797,0.10999 -0.21944,0.0611 -0.10512,-0.12382 0.26682,-0.43172 -0.4014,-0.36616 -1.01749,0.0998 -0.75197,0.56877 -1.02112,0.47667 -0.83019,-0.28407 0.20674,-0.82372 -0.43012,-1.56089 -1.17924,-1.36499 -0.29042,0.0759 -0.5289,7.9e-4 -0.54058,-0.17006 -0.014,-0.20546 -0.0647,-0.19733 -0.15434,0.0248 -0.0734,0.1819 -0.44394,0.33073 -0.82343,0.33073 -0.66349,0 -0.67026,0.0149 -0.17639,0.38846 0.67662,0.51177 0.29333,0.5102 -0.69882,-0.003 -0.4341,-0.22448 -0.71881,-0.52213 -0.63271,-0.66146 0.0861,-0.13932 0.0432,-0.25331 -0.0953,-0.25331 -0.13854,0 -0.32042,0.17859 -0.40419,0.39687 -0.0928,0.24175 -5.3e-4,0.39688 0.23628,0.39688 0.21371,0 0.38857,0.0944 0.38857,0.20971 0,0.11533 0.55554,0.35829 1.23453,0.53989 0.94923,0.25388 1.27935,0.25765 1.4285,0.0163 0.20249,-0.32763 1.07115,-0.13978 1.01226,0.21891 -0.11126,0.67771 0.0773,0.9197 0.63364,0.81334 0.90088,-0.17222 0.79318,0.75239 -0.13229,1.13573 -0.40538,0.16792 -0.73706,0.46242 -0.73706,0.65446 0,0.19204 -0.11769,0.4219 -0.26155,0.51081 -0.14385,0.0889 -0.20045,0.002 -0.12578,-0.19217 0.18743,-0.48844 -0.81713,-0.53207 -1.21492,-0.0528 -0.37985,0.4577 0.042,0.51062 0.491,0.0616 0.17463,-0.17462 0.3175,-0.2324 0.3175,-0.1284 0,0.104 -0.38695,0.43814 -0.85989,0.74253 -0.47294,0.30438 -0.65535,0.48643 -0.40535,0.40454 0.25,-0.0819 0.52492,-0.035 0.61093,0.10414 0.20709,0.33508 0.58094,0.32121 0.79775,-0.0296 z m -23.029901,-0.51113 c -0.08994,-0.14552 -0.275557,-0.26458 -0.41249,-0.26458 -0.136933,0 -0.248968,0.11906 -0.248968,0.26458 0,0.14552 0.18562,0.26458 0.41249,0.26458 0.226869,0 0.338905,-0.11906 0.248968,-0.26458 z m 1.377362,-0.52917 c 0.331977,0 0.346362,-0.0733 0.07785,-0.39687 -0.181157,-0.21828 -0.463626,-0.39505 -0.627709,-0.39283 -0.179827,0.002 -0.158146,0.0929 0.05458,0.22777 0.28209,0.17881 0.26545,0.25727 -0.08291,0.39095 -0.257584,0.0988 -0.355055,0.29794 -0.238327,0.48681 0.153232,0.24794 0.22124,0.24836 0.303402,0.002 0.05824,-0.17471 0.289149,-0.31768 0.513122,-0.31768 z m -1.150936,-1.3028 c -0.09162,-0.0838 -0.219733,-0.004 -0.284697,0.17833 -0.06497,0.1819 -0.28679,0.33072 -0.492944,0.33072 -0.206155,0 -0.374827,0.17781 -0.374827,0.39513 0,0.30275 0.154185,0.26106 0.659524,-0.17832 0.362738,-0.3154 0.584563,-0.64204 0.492944,-0.72586 z m -7.237885,0.49344 c 0,-0.13693 -0.178593,-0.24897 -0.396875,-0.24897 -0.409154,0 -0.525648,0.3122 -0.227679,0.61017 0.211384,0.21138 0.624554,-0.0276 0.624554,-0.3612 z m 38.32211,-0.39371 c 0.39619,-0.86954 0.38818,-0.92812 -0.10123,-0.74031 -0.22456,0.0862 -0.34781,0.21715 -0.27389,0.29107 0.0739,0.0739 0.0153,0.35686 -0.13019,0.62877 -0.14552,0.27191 -0.16044,0.49438 -0.0332,0.49438 0.12728,0 0.3696,-0.30326 0.53847,-0.67391 z m -31.549843,-0.2229 c 0.08258,-0.21521 0.356995,-0.31117 0.661854,-0.23144 0.294577,0.077 0.746846,-0.0684 1.041246,-0.33483 0.608602,-0.55078 0.689567,-1.03968 0.137067,-0.82766 -0.256255,0.0983 -0.33461,0.02 -0.236276,-0.23628 0.09086,-0.23679 -0.01546,-0.3834 -0.278058,-0.3834 -0.23385,0 -0.425183,0.19427 -0.425183,0.43171 0,0.4413 -0.595511,0.42664 -2.750113,-0.0677 l -0.765738,-0.17569 0.567301,0.5673 c 0.312015,0.31201 0.716128,0.56912 0.89803,0.57135 0.221159,0.003 0.199245,0.0904 -0.06615,0.26458 -0.352778,0.23159 -0.352778,0.28948 0,0.52107 0.562625,0.36934 1.051572,0.32953 1.216016,-0.099 z m -7.962892,-0.16153 c 0.08994,-0.14552 0.03743,-0.26458 -0.116676,-0.26458 -0.154109,0 -0.280199,0.11906 -0.280199,0.26458 0,0.14553 0.0525,0.26459 0.116677,0.26459 0.06417,0 0.190262,-0.11906 0.280198,-0.26459 z m 5.722718,-0.8654 c -0.440495,-0.4405 -0.689977,-0.003 -0.279987,0.49115 0.247961,0.29877 0.391369,0.33446 0.464344,0.11553 0.05807,-0.17421 -0.02489,-0.44722 -0.184357,-0.60668 z m 35.071567,-0.50712 c -0.0845,-0.21107 -0.14716,-0.14837 -0.15985,0.15985 -0.0115,0.27891 0.051,0.43519 0.13896,0.34727 0.0879,-0.0879 0.0973,-0.31613 0.0209,-0.50712 z m -0.97854,-0.41341 c -0.003,-0.56699 -0.0607,-0.64 -0.26053,-0.33073 -0.21119,0.32678 -0.2572,0.33067 -0.26054,0.022 -0.002,-0.20616 -0.0744,-0.30443 -0.1605,-0.21838 -0.22072,0.22072 0.14094,1.25466 0.43887,1.25466 0.13571,0 0.24493,-0.32742 0.2427,-0.7276 z m -2.80187,-0.11111 c -0.12863,-0.20814 -0.0471,-0.2542 0.24897,-0.1406 0.24216,0.0929 0.44028,0.1229 0.44028,0.0666 0,-0.0563 0.0689,-0.28199 0.15319,-0.50155 0.11804,-0.3076 0.0118,-0.36451 -0.46302,-0.24801 -1.18785,0.29146 -1.62236,1.1331 -0.58498,1.1331 0.23564,0 0.31915,-0.12575 0.20556,-0.30954 z m 1.57868,-0.6165 c 0.0838,-0.21828 0.037,-0.39687 -0.10398,-0.39687 -0.14096,0 -0.25628,0.17859 -0.25628,0.39687 0,0.21828 0.0468,0.39688 0.10398,0.39688 0.0572,0 0.17252,-0.1786 0.25628,-0.39688 z m -3.49909,-1.39905 c -0.19088,-0.0636 -0.47285,0.0101 -0.6266,0.16386 -0.19634,0.19634 -0.093,0.23077 0.34705,0.11568 0.35777,-0.0936 0.47771,-0.21349 0.27955,-0.27954 z m 4.94317,-0.25459 c 0.0686,-0.48301 -0.042,-0.59532 -0.58601,-0.59532 -0.75137,0 -1.45403,0.91516 -0.88549,1.15329 0.69824,0.29246 1.38785,0.031 1.4715,-0.55797 z m 1.45395,-0.472 c 0.26768,-0.56134 0.43842,-1.53943 0.42723,-2.4474 l -0.0186,-1.51237 -0.38438,1.04994 c -0.21141,0.57747 -0.32723,1.19886 -0.25738,1.38088 0.0698,0.18201 -0.0457,0.66204 -0.25681,1.06672 -0.21109,0.40468 -0.38454,0.88462 -0.38543,1.06652 -0.003,0.62753 0.43083,0.32799 0.87541,-0.60429 z m 1.0978,-0.31703 c 0.53633,-0.78929 0.67018,-1.30699 0.66694,-2.57968 -0.004,-1.69727 -0.27368,-2.44032 -0.77281,-2.13183 -0.20046,0.12389 -0.24854,0.57852 -0.13868,1.31115 0.25843,1.72335 0.302,2.80032 0.11328,2.80032 -0.15482,0 -0.78524,1.17829 -0.78524,1.46766 0,0.3204 0.30618,0.0306 0.91651,-0.86762 z m -1.96853,-0.26931 c 0.003,-0.10914 0.11328,-0.65948 0.24402,-1.22297 0.24764,-1.06739 0.21263,-1.05747 -0.74207,0.21031 -0.44942,0.5968 -0.50504,0.82232 -0.24373,0.98814 0.4271,0.27102 0.73362,0.28116 0.74178,0.0245 z m -27.81171,26.60802 c -0.13224,-0.24509 -0.24051,-0.60228 -0.2406,-0.79375 -9e-5,-0.19147 -0.52824,-1.02078 -1.173657,-1.84292 -1.264262,-1.61044 -1.792945,-3.22022 -1.139879,-3.47083 0.407257,-0.15628 0.330573,-1.66748 -0.09806,-1.93239 -0.338523,-0.20922 -0.288115,-1.17177 0.06136,-1.17177 0.163437,0 0.234688,0.23232 0.159469,0.51996 -0.09094,0.34776 0.02218,0.57016 0.341573,0.67153 0.595959,0.18915 0.912934,0.95089 0.501497,1.20517 -0.169093,0.1045 -0.232271,0.31164 -0.140395,0.46029 0.220385,0.3566 -0.09086,1.14821 -0.380956,0.96892 -0.124439,-0.0769 -0.09717,0.23046 0.0606,0.68303 0.211325,0.60621 0.364689,0.74502 0.582495,0.52721 0.217813,-0.21781 0.201723,-0.3537 -0.06112,-0.51614 -0.232346,-0.1436 -0.260314,-0.2801 -0.0802,-0.39142 0.152114,-0.094 0.411943,0.0399 0.577393,0.29765 0.28072,0.43728 0.29065,0.43765 0.14855,0.006 -0.0837,-0.25466 -0.22781,-0.67138 -0.32015,-0.92604 -0.13507,-0.3725 -0.085,-0.35957 0.25617,0.0661 0.23323,0.29105 0.42828,0.70776 0.43346,0.92605 0.005,0.21828 0.24708,0.7867 0.53758,1.26316 0.74837,1.22744 0.63601,1.40153 -0.24217,0.37524 -0.5364,-0.62686 -0.78893,-0.77067 -0.89014,-0.50693 -0.0777,0.20252 0.14504,0.58324 0.49501,0.84605 0.34997,0.26282 0.63631,0.70712 0.63631,0.98735 0,0.78449 0.49661,1.53304 1.01707,1.53304 0.25811,0 0.7004,0.17449 0.98288,0.38774 0.47452,0.35825 0.42621,0.38341 -0.63504,0.33073 -0.76212,-0.0378 -1.22953,-0.20696 -1.38906,-0.50264 z m 1.01136,-1.51754 c -0.11508,-0.44009 -0.0807,-0.54339 0.11569,-0.34705 0.15375,0.15375 0.22749,0.43572 0.16386,0.6266 -0.0661,0.19816 -0.18599,0.0782 -0.27955,-0.27955 z m -4.426796,-8.22329 c 0,-0.14552 0.112036,-0.26458 0.248969,-0.26458 0.136932,0 0.322553,0.11906 0.412489,0.26458 0.08994,0.14552 -0.0221,0.26458 -0.248968,0.26458 -0.226869,0 -0.41249,-0.11906 -0.41249,-0.26458 z m -5.605859,-5.73699 c 0.190996,-0.0764 0.419199,-0.067 0.507118,0.0209 0.08792,0.0879 -0.06835,0.15045 -0.347266,0.13896 -0.308224,-0.0127 -0.370919,-0.0754 -0.159852,-0.15985 z m -7.821746,-2.66099 c -0.181901,-0.062 -0.330729,-0.2784 -0.330729,-0.48081 0,-0.47706 1.498185,-1.26936 1.720392,-0.90982 0.08961,0.14498 -0.07432,0.26361 -0.364286,0.26361 -0.352718,0 -0.554916,0.20517 -0.610927,0.6199 -0.04817,0.35667 -0.224159,0.57201 -0.41445,0.50712 z M 99.2056,197.08668 c 0.09936,-0.26093 0.247304,-0.40778 0.328766,-0.32632 0.08146,0.0815 1.67e-4,0.29496 -0.180654,0.47444 -0.261306,0.25936 -0.291697,0.22897 -0.148112,-0.14812 z m -12.981595,-2.03911 c -0.09589,-0.43656 -0.336443,-0.79375 -0.534574,-0.79375 -0.751266,0 -0.700693,-0.61309 0.102418,-1.24162 0.455967,-0.35685 0.838431,-0.90807 0.849919,-1.22495 0.01149,-0.31687 0.08094,-0.42731 0.154341,-0.2454 0.185891,0.46068 0.618521,0.41441 0.618521,-0.0662 0,-0.56218 0.62575,-0.49189 1.192093,0.13391 0.264197,0.29194 0.531996,0.47915 0.595109,0.41604 0.06311,-0.0631 0.65323,0.18588 1.311369,0.55331 1.096087,0.61194 1.232126,0.63256 1.619262,0.24542 0.387136,-0.38713 0.378981,-0.42439 -0.09707,-0.44353 -0.285845,-0.0115 -0.390819,-0.0743 -0.233276,-0.13958 0.157543,-0.0653 0.61489,0.0517 1.016328,0.25999 0.694548,0.36033 0.703097,0.38717 0.176579,0.55428 -0.304319,0.0966 -0.553307,0.28658 -0.553307,0.42221 0,0.13562 -0.41648,0.2169 -0.925511,0.1806 -0.509032,-0.0363 -0.92575,-0.15528 -0.926042,-0.26442 -2.91e-4,-0.10914 -0.268421,-0.20681 -0.595843,-0.21704 -0.568034,-0.0177 -0.571065,-0.029 -0.06615,-0.24598 0.474378,-0.20385 0.453833,-0.23274 -0.198437,-0.27906 -0.400183,-0.0284 -0.846667,-0.0814 -0.992188,-0.11782 -0.145521,-0.0364 -0.396384,-0.081 -0.557474,-0.0992 -0.16109,-0.0182 -0.224358,-0.21166 -0.140596,-0.42994 0.08376,-0.21829 0.02582,-0.39688 -0.128754,-0.39688 -0.154577,0 -0.340684,0.22804 -0.41357,0.50676 -0.07289,0.27871 -0.418927,0.57864 -0.76898,0.6665 -0.350052,0.0879 -0.636459,0.32614 -0.636459,0.52953 0,0.20338 -0.148828,0.44055 -0.330729,0.52705 -0.181902,0.0865 -0.06284,0.10757 0.264583,0.0468 0.478309,-0.0887 0.595312,0.0104 0.595312,0.5046 0,0.33827 0.07227,0.80338 0.1606,1.03356 0.08833,0.23018 0.03826,0.41851 -0.11127,0.41851 -0.149527,0 -0.350319,-0.35718 -0.446205,-0.79375 z m 26.193755,0 c 0.0899,-0.14552 0.36485,-0.26276 0.61092,-0.26053 0.38557,0.003 0.39256,0.0395 0.0505,0.26053 -0.51815,0.33486 -0.86841,0.33486 -0.66145,0 z m 4.91684,0.18972 c 0.0606,-0.0412 0.34836,-0.24954 0.63941,-0.46302 0.48948,-0.35904 0.50193,-0.35343 0.16604,0.0749 -0.19972,0.25466 -0.48746,0.46302 -0.63941,0.46302 -0.15196,0 -0.22668,-0.0337 -0.16604,-0.0749 z m -1.83445,-0.44107 c 0.0582,-0.17462 0.19216,-0.30857 0.29766,-0.29766 0.31636,0.0327 0.25509,0.39563 -0.086,0.50933 -0.17463,0.0582 -0.26988,-0.037 -0.21167,-0.21167 z M 88.952521,193.8085 c 0.190996,-0.0764 0.419199,-0.067 0.507118,0.0209 0.08792,0.0879 -0.06835,0.15045 -0.347265,0.13896 -0.308225,-0.0127 -0.37092,-0.0754 -0.159853,-0.15985 z m 12.485029,-1.40014 c 0,-0.14553 -0.346,-0.18877 -0.79375,-0.0992 -0.43656,0.0873 -0.793753,0.0503 -0.793753,-0.0822 0,-0.23394 -0.361057,-0.31028 -1.455208,-0.30766 -3.240883,0.008 -4.321725,0.0749 -4.206509,0.26129 0.07518,0.12165 -0.05595,0.22118 -0.291408,0.22118 -0.256224,0 -0.352308,-0.12264 -0.239317,-0.30546 0.103832,-0.16801 0.08109,-0.24005 -0.05053,-0.1601 -0.357991,0.21746 -3.374025,-0.31162 -3.678901,-0.64536 -0.18275,-0.20005 -0.162051,-0.23173 0.06692,-0.10242 0.416252,0.23505 2.749748,-0.0977 2.582524,-0.36831 -0.0678,-0.10971 -0.441469,-0.13864 -0.830372,-0.0643 -0.488779,0.0934 -0.649289,0.0416 -0.519867,-0.16777 0.127829,-0.20683 -0.125512,-0.30295 -0.798524,-0.30295 -0.542164,0 -0.916492,-0.0693 -0.83184,-0.15391 0.08465,-0.0846 1.215561,-0.0709 2.513132,0.0307 1.965695,0.15377 2.415147,0.27411 2.694508,0.72144 0.29868,0.47826 0.281872,0.51497 -0.153931,0.33621 -0.26907,-0.11037 -0.667813,-0.22961 -0.886094,-0.26497 -0.285894,-0.0463 -0.293651,-0.0304 -0.02774,0.0568 0.315788,0.10361 0.315788,0.15729 0,0.3714 -0.234907,0.15928 1.60315,0.20361 5.054826,0.12192 3.029804,-0.0717 5.073594,-0.0326 4.630204,0.0885 l -0.79375,0.21686 0.99219,0.0313 c 0.5457,0.0172 0.99219,0.15739 0.99219,0.3115 0,0.15411 -0.11906,0.20662 -0.26459,0.11668 -0.14552,-0.0899 -0.26458,-0.0374 -0.26458,0.11668 0,0.15985 -0.56821,0.28019 -1.32292,0.28019 -0.7276,0 -1.32291,-0.11608 -1.32291,-0.25796 z m -15.413795,-1.8587 c -0.104169,-0.3638 -0.191025,-0.92935 -0.193012,-1.25677 -0.002,-0.32742 -0.107804,-0.59532 -0.235149,-0.59532 -0.127344,0 -0.42229,-0.38695 -0.655434,-0.85989 l -0.423897,-0.8599 -0.006,1.04276 c -0.0056,0.97412 -0.03159,1.00895 -0.394485,0.52917 -0.227763,-0.30113 -0.391941,-1.10914 -0.396875,-1.95324 l -0.0084,-1.43964 0.943762,1.56727 c 0.519068,0.862 1.055382,1.63626 1.191808,1.72058 0.344136,0.21268 1.568596,1.89598 1.568596,2.15638 0,0.11725 -0.126089,0.21318 -0.280198,0.21318 -0.154109,0 -0.214324,-0.10659 -0.133811,-0.23686 0.08051,-0.13027 -0.0241,-0.30228 -0.232484,-0.38224 -0.246171,-0.0945 -0.409712,0.058 -0.466927,0.43529 -0.08433,0.55614 -0.09606,0.55272 -0.277455,-0.0808 z m 30.431985,0.34204 c 0.32912,-0.0633 0.80537,-0.0609 1.05833,0.005 0.25297,0.0662 -0.0163,0.118 -0.5984,0.11507 -0.58208,-0.003 -0.78905,-0.0571 -0.45993,-0.12041 z m -21.135602,-0.41588 c 0.127662,-0.12766 0.574038,-0.18947 0.991948,-0.13735 0.699457,0.0872 0.681013,0.10569 -0.232111,0.23211 -0.568784,0.0788 -0.89293,0.0383 -0.759837,-0.0948 z m 4.463764,0.14252 c 0.909508,-0.0517 2.397788,-0.0517 3.307288,0 0.90951,0.0517 0.16537,0.0939 -1.65364,0.0939 -1.819013,0 -2.563154,-0.0423 -1.653648,-0.0939 z m 5.953128,0.0135 c 0.25466,-0.0665 0.67138,-0.0665 0.92604,0 0.25466,0.0666 0.0463,0.12101 -0.46302,0.12101 -0.50933,0 -0.71768,-0.0545 -0.46302,-0.12101 z m -17.381108,-0.85127 c -0.08155,-0.13195 0.09002,-0.17759 0.38126,-0.10143 0.617799,0.16155 0.695893,0.34134 0.148272,0.34134 -0.209693,0 -0.447983,-0.10796 -0.529532,-0.23991 z m 37.423298,0.007 c 0,-0.14552 0.11906,-0.33817 0.26458,-0.42811 0.14552,-0.0899 0.26458,-0.0445 0.26458,0.10107 0,0.14552 -0.11906,0.33816 -0.26458,0.4281 -0.14552,0.0899 -0.26458,0.0445 -0.26458,-0.10106 z m -38.257437,-1.15571 -0.504028,-0.59531 0.595313,0.50402 c 0.559447,0.47367 0.715762,0.6866 0.504028,0.6866 -0.05021,0 -0.318097,-0.26789 -0.595313,-0.59531 z m 39.627617,-0.46302 c 0.8738,-1.1795 1.93265,-3.18876 1.95203,-3.70417 0.008,-0.21828 0.16724,-0.676 0.3534,-1.01715 0.29044,-0.53225 0.26827,-0.70121 -0.15621,-1.19062 -0.64754,-0.74658 -1.75616,-2.81867 -1.59453,-2.98029 0.12912,-0.12913 1.18439,1.45852 1.60182,2.40994 0.23128,0.52713 0.23314,0.52709 0.4848,-0.01 0.19026,-0.40608 0.0547,-1.02662 -0.54915,-2.51354 -0.44098,-1.08589 -0.91195,-1.94865 -1.0466,-1.91725 -0.13464,0.0314 -0.1836,-0.17695 -0.10879,-0.46302 0.0748,-0.28607 0.17679,-0.52012 0.22664,-0.52012 0.0498,0 0.45284,0.78258 0.89556,1.73907 0.44271,0.95648 0.9874,1.92153 1.21041,2.14454 0.22302,0.22302 0.35231,0.6013 0.28731,0.84062 -0.065,0.23933 -0.197,0.91139 -0.29334,1.49348 -0.18236,1.10174 -2.70814,5.61662 -3.49691,6.25079 -0.24886,0.20009 -0.14376,-0.0529 0.23356,-0.56225 z m -40.963474,-0.85537 c -0.11088,-0.1794 -0.186594,-1.2212 -0.168253,-2.3151 0.01834,-1.0939 -0.02604,-1.77909 -0.09862,-1.52265 -0.07258,0.25645 -0.255217,0.39009 -0.405853,0.29699 -0.178247,-0.11016 -0.240547,0.24945 -0.178414,1.02984 0.109658,1.37729 -0.127301,1.36911 -0.731543,-0.0252 -0.880143,-2.03103 -0.922023,-2.73789 -0.216981,-3.66225 0.355916,-0.46662 0.655489,-1.00518 0.665717,-1.1968 0.01023,-0.19161 0.111247,-0.11104 0.224488,0.17904 0.190018,0.48675 0.236784,0.46635 0.60656,-0.26459 0.220367,-0.4356 0.347551,-0.94082 0.282629,-1.12272 -0.06492,-0.1819 -6.87e-4,-0.33073 0.142712,-0.33073 0.283647,0 0.922424,-1.59495 0.719892,-1.79749 -0.0683,-0.0683 0.003,-0.36179 0.158415,-0.6522 0.213302,-0.39856 0.194801,-0.58365 -0.07546,-0.75491 -0.264157,-0.16739 -0.271321,-0.22795 -0.02732,-0.23094 0.181901,-0.002 0.330729,-0.13014 0.330729,-0.28424 0,-0.15411 -0.119062,-0.20662 -0.264583,-0.11668 -0.360605,0.22287 -0.31735,-0.13549 0.109316,-0.90565 0.330218,-0.59606 0.366293,-0.60535 0.513896,-0.13229 0.08731,0.27982 0.283242,1.3946 0.435401,2.47727 0.152159,1.08268 0.316976,2.00883 0.36626,2.05811 0.04928,0.0493 0.237579,-0.43889 0.418432,-1.08484 0.241527,-0.86265 0.262464,-1.76027 0.07886,-3.38102 -0.290497,-2.5644 -0.10462,-3.47722 0.988049,-4.85216 0.432422,-0.54413 0.721403,-1.09421 0.64218,-1.2224 -0.07922,-0.12819 0.04158,-0.23306 0.268448,-0.23306 0.226869,0 0.41249,0.11906 0.41249,0.26458 0,0.38083 0.724648,0.32655 0.883104,-0.0661 0.104364,-0.25864 0.138006,-0.25669 0.154341,0.009 0.01149,0.18681 -0.395831,0.58552 -0.905154,0.88603 -0.815548,0.48118 -1.274052,1.29144 -0.727604,1.28581 0.471959,-0.005 3.621748,-1.73985 3.545119,-1.95275 -0.04652,-0.12925 0.0286,-0.30784 0.166935,-0.39687 0.320425,-0.20622 0.686381,-1.3525 0.431792,-1.3525 -0.105211,0 -0.61925,0.32498 -1.142309,0.72217 l -0.951016,0.72217 0.926042,-1.13436 c 1.941428,-2.37816 1.888411,-2.28234 1.63776,-2.95991 l -0.237152,-0.64109 -0.445387,0.78562 c -0.400009,0.70558 -0.428303,0.71822 -0.277704,0.12416 0.09222,-0.3638 0.453763,-1.10539 0.803416,-1.64797 0.349653,-0.54259 0.635733,-1.17241 0.635733,-1.39961 0,-0.45092 0.9866,-2.50867 1.202797,-2.50867 0.07354,0 -0.06732,0.38695 -0.313021,0.85989 -0.294253,0.5664 -0.514342,1.89843 -0.64482,3.90261 -0.10895,1.67349 -0.319386,3.42966 -0.467637,3.9026 -0.290841,0.92783 -0.05912,1.10391 0.593666,0.45112 0.598577,-0.59858 0.922279,-2.06243 1.050612,-4.7511 0.120284,-2.52 0.475839,-3.54456 1.630934,-4.69966 0.785314,-0.78531 1.83163,-1.1579 1.60688,-0.5722 -0.27615,0.71964 0.33095,0.3723 1.2731,-0.72839 0.54075,-0.63174 0.95026,-1.39751 0.95507,-1.78593 0.005,-0.37399 0.18322,-0.9111 0.39687,-1.19357 0.23702,-0.31337 0.40433,-1.19012 0.42917,-2.24896 0.036,-1.53481 0.0636,-1.42958 0.23888,0.91046 0.21909,2.9248 0.0972,4.39403 -0.45547,5.49011 -0.58001,1.15032 0.0859,0.85957 0.86771,-0.37884 0.57051,-0.90375 0.71691,-1.49753 0.79911,-3.24115 0.16193,-3.43511 0.3225,-4.67974 0.65548,-5.08096 0.22849,-0.27531 0.23646,-0.54389 0.0296,-0.99787 -0.20409,-0.44792 -0.20018,-0.70401 0.014,-0.9182 0.47423,-0.47423 0.72038,-0.34777 0.72038,0.37009 0,0.46924 0.21286,0.76355 0.71761,0.99218 l 0.71761,0.32506 -0.88694,0.13229 c -0.62267,0.0929 -0.95542,0.31836 -1.11676,0.75678 -0.1981,0.53833 -0.16561,0.59462 0.23548,0.40795 0.6025,-0.2804 2.44765,-0.2789 3.05373,0.002 0.42568,0.19763 0.44092,0.15131 0.15597,-0.47409 -0.1737,-0.38111 -0.4838,-0.69302 -0.68912,-0.69302 -0.30333,0 -0.29537,-0.0779 0.0425,-0.41577 0.22868,-0.22868 0.41625,-0.67516 0.41682,-0.99219 5.3e-4,-0.31703 0.66089,-3.01719 1.46737,-6.00037 0.80648,-2.98318 1.41243,-5.63248 1.34655,-5.88734 -0.0659,-0.25487 -0.0254,-0.40508 0.0899,-0.33382 0.11531,0.0713 0.26629,-0.16669 0.33551,-0.5288 0.0728,-0.38087 0.002,-0.66008 -0.16818,-0.66243 -0.16425,-0.002 -0.13356,-0.1057 0.0695,-0.23435 0.39587,-0.25076 0.55977,-3.05725 0.25127,-4.30245 -0.26522,-1.07052 -0.74365,-1.84253 -1.03156,-1.6646 -0.14182,0.0877 -0.22514,0.0134 -0.18516,-0.16503 0.14299,-0.63801 -1.64601,-1.56701 -3.01763,-1.56701 -2.55469,0 -4.29157,1.43549 -4.7035,3.88732 -0.17639,1.04988 -0.21916,1.12038 -0.24484,0.40366 -0.10384,-2.89756 3.13446,-5.32922 6.03219,-4.52962 1.68707,0.46554 2.56313,1.18163 3.33119,2.72291 0.76986,1.54491 0.82655,2.7732 0.2537,5.49645 -0.36994,1.75866 -0.74959,3.18128 -2.66848,9.9995 -0.84567,3.00486 -0.8248,3.25999 0.31095,3.80159 1.31199,0.62565 1.76851,1.8327 1.67058,4.41709 l -0.0772,2.03687 1.14772,1.37083 c 1.37989,1.64813 1.28139,2.09403 -0.12645,0.57243 -0.54782,-0.59209 -1.04703,-1.02554 -1.10935,-0.96321 -0.0623,0.0623 0.0367,0.52805 0.21996,1.03497 0.25074,0.69342 0.52557,0.96011 1.1098,1.07696 0.42708,0.0854 0.88185,0.0902 1.01058,0.0106 0.22774,-0.14075 0.52975,0.0514 1.58264,1.00692 0.28061,0.25466 0.62115,0.46302 0.75677,0.46302 0.43196,0 1.28472,1.43183 1.37706,2.31216 0.10179,0.97043 -0.0476,1.04091 -0.95117,0.44884 -0.35467,-0.23239 -0.7999,-0.44636 -0.98939,-0.4755 -0.18949,-0.0291 -0.81865,-0.3767 -1.39814,-0.77237 -0.57948,-0.39566 -1.29386,-0.72 -1.5875,-0.72074 -0.29364,-7.9e-4 -1.01014,-0.29469 -1.59222,-0.6532 -0.58209,-0.35851 -0.93927,-0.65177 -0.79375,-0.65169 0.14552,9e-5 0.4957,0.17497 0.77817,0.38862 0.82141,0.62128 1.08867,0.44799 0.28456,-0.18451 -0.67893,-0.53406 -0.71722,-0.66827 -0.56357,-1.97562 0.60645,-5.15986 0.41237,-7.44702 -0.69032,-8.13527 -0.76841,-0.47961 -1.0798,0.12279 -0.58066,1.12333 0.23484,0.47075 0.42695,1.29639 0.42691,1.83478 -9e-5,1.24666 -0.49493,5.9374 -0.54424,5.15897 -0.12284,-1.93914 -1.83002,-6.16447 -2.49068,-6.16447 -0.66981,0 -1.68865,2.2073 -1.87974,4.07245 -0.23736,2.31675 -0.93402,3.71264 -2.04644,4.10043 -0.81032,0.28248 -2.56714,0.39237 -1.88662,0.11801 0.18281,-0.0737 0.27313,-0.22987 0.20071,-0.34705 -0.0724,-0.11717 0.16497,-0.4074 0.52752,-0.64495 0.40202,-0.26342 0.65919,-0.68178 0.65919,-1.07236 v -0.64045 l -0.8599,0.80115 c -0.47294,0.44064 -1.45521,1.06952 -2.182809,1.39752 -1.277455,0.57586 -2.198984,1.34925 -1.929182,1.61906 0.07183,0.0718 0.654343,-0.10703 1.294474,-0.39746 0.640131,-0.29043 1.321207,-0.53067 1.513497,-0.53387 0.42496,-0.007 0.23279,0.19453 -1.606393,1.68517 l -1.256771,1.0186 -0.0058,1.75406 c -0.0038,1.14579 -0.179612,2.13686 -0.506996,2.85792 -0.550456,1.21237 -1.63241,2.08605 -2.277018,1.83869 -0.226962,-0.0871 -0.348746,-0.0549 -0.27063,0.0714 0.07811,0.12639 -0.685554,0.64156 -1.697043,1.14481 -1.474526,0.73363 -2.030912,1.19389 -2.806879,2.32195 -0.897342,1.30451 -0.957097,1.51073 -0.82069,2.83238 0.179517,1.73936 -0.285493,3.66472 -1.231808,5.10026 -2.050953,3.11125 -1.962666,2.85327 -1.9263,5.62877 0.01859,1.41881 0.01106,2.57967 -0.01673,2.57969 -0.02779,1e-5 -0.141251,-0.14677 -0.252131,-0.32618 z m -0.118388,-5.27079 c 1.145112,-1.716 1.36901,-2.25695 1.466847,-3.54396 0.129376,-1.7019 -0.07683,-1.64338 -0.761187,0.21604 -0.255372,0.69385 -0.870364,1.85183 -1.366649,2.57331 -0.56412,0.82008 -0.902335,1.6282 -0.902335,2.15599 0,0.46432 0.04769,0.79461 0.105969,0.73398 0.05828,-0.0606 0.714092,-1.02155 1.457355,-2.13536 z m 4.265395,-11.08649 c 0.228219,-0.42643 0.18848,-0.51444 -0.232301,-0.51444 -0.280057,0 -0.567856,0.23036 -0.641991,0.51385 -0.252784,0.96665 0.357054,0.96705 0.874292,5.3e-4 z m 8.087045,-10.34252 c 0.501326,-0.56462 0.500836,-0.56599 -0.09128,-0.25527 -0.327422,0.17181 -0.595312,0.42726 -0.595312,0.56766 0,0.37588 0.12665,0.31826 0.686597,-0.31239 z m 18.760282,-0.645 c 0,-0.35226 -0.44438,-0.72389 -1.45521,-1.21697 -0.80037,-0.39041 -1.57427,-0.70372 -1.71979,-0.69625 -0.80232,0.0412 -1.18585,-0.11649 -1.81601,-0.74665 -0.55419,-0.55419 -0.69754,-0.60597 -0.69754,-0.25195 0,0.55785 1.12147,1.61544 2.18894,2.06425 0.44535,0.18725 1.29588,0.59141 1.89008,0.89815 1.26593,0.65351 1.60953,0.64271 1.60953,-0.0506 z m -7.01146,-7.36739 c 0,-0.35341 -0.1584,-0.80095 -0.35199,-0.99455 -0.1936,-0.1936 -0.29838,-0.52952 -0.23286,-0.7465 0.0914,-0.30281 0.006,-0.28635 -0.36842,0.0708 -0.47362,0.45198 -0.47334,0.49167 0.01,1.38906 0.58122,1.07926 0.94333,1.18722 0.94333,0.28123 z m -3.84049,-1.96321 c -0.19988,-0.19987 -0.65743,0.27866 -0.65743,0.68758 0,0.36115 0.0614,0.34783 0.37524,-0.0814 0.20639,-0.28224 0.33337,-0.55504 0.28219,-0.60623 z m 21.05505,30.68423 c -0.2878,-0.56413 -0.70693,-1.09618 -0.93142,-1.18232 -0.44873,-0.17219 -0.56673,-0.96698 -0.14356,-0.96698 0.14552,0 0.26459,-0.18562 0.26459,-0.41249 0,-0.22687 0.12035,-0.3381 0.26746,-0.24719 0.1471,0.0909 0.24553,0.4849 0.21872,0.87552 -0.0268,0.39061 0.21244,1.21622 0.53166,1.83469 0.31923,0.61846 0.52088,1.12447 0.44812,1.12447 -0.0728,0 -0.36777,-0.46156 -0.65557,-1.0257 z m -0.38007,-2.99779 c -0.43429,-0.47292 -0.47194,-0.78987 -0.30387,-2.55764 0.29595,-3.11262 0.19674,-4.43677 -0.42425,-5.66284 l -0.56598,-1.11748 0.56646,0.50609 c 0.31156,0.27835 0.70876,0.99273 0.88267,1.5875 0.17392,0.59477 0.52963,1.43859 0.79048,1.87516 0.2843,0.4758 0.4641,1.27066 0.44889,1.98437 -0.0211,0.98919 -0.0612,1.07872 -0.23722,0.52917 -0.11651,-0.3638 -0.22371,-1.04139 -0.23821,-1.50574 -0.0145,-0.46435 -0.16089,-0.92741 -0.32529,-1.02902 -0.18266,-0.11289 -0.24801,-0.0418 -0.16804,0.18282 0.072,0.20216 0.0222,0.57873 -0.11062,0.83683 -0.16878,0.328 -0.1182,0.59256 0.16804,0.8788 0.44162,0.44161 0.5651,1.69464 0.167,1.69464 -0.1334,0 -0.29112,-0.14575 -0.35051,-0.3239 -0.0594,-0.17815 -0.17726,-0.0589 -0.26195,0.26494 -0.0847,0.32387 -0.046,0.52214 0.0859,0.44059 0.13195,-0.0815 0.24751,-0.0519 0.2568,0.0658 0.009,0.11773 0.055,0.601 0.10152,1.07395 0.0466,0.47294 0.0687,0.84997 0.0493,0.83784 -0.0195,-0.0121 -0.25846,-0.26496 -0.5311,-0.56186 z m -1.79146,-3.58328 c -0.0594,-0.61846 -0.0156,-1.12448 0.0974,-1.12448 0.11299,0 0.20543,-0.22354 0.20543,-0.49677 0,-0.52875 -0.53911,-1.10018 -1.11814,-1.18516 -0.19289,-0.0283 -1.18107,-0.71828 -2.19597,-1.53326 -1.0149,-0.81499 -2.11328,-1.56413 -2.44086,-1.66476 -0.32757,-0.10063 -0.73185,-0.44279 -0.89839,-0.76036 -0.3006,-0.57318 -0.29866,-0.57372 0.26486,-0.0734 0.70712,0.62784 0.73011,0.24785 0.0385,-0.63632 -0.65748,-0.84055 -0.65967,-1.04293 -0.009,-0.87289 0.28584,0.0747 0.50474,0.21243 0.48644,0.30596 -0.18136,0.92716 2.17683,3.33072 4.35167,4.4354 2.06519,1.04898 1.54757,0.0671 -0.89849,-1.70431 -0.82159,-0.595 -1.93626,-1.62178 -2.47705,-2.28174 -0.54078,-0.65995 -1.103,-1.12591 -1.24937,-1.03544 -0.17628,0.10894 -0.20648,-0.80763 -0.0894,-2.71469 0.16132,-2.6288 0.12907,-2.95525 -0.37089,-3.75403 -0.30117,-0.48117 -0.93219,-1.04206 -1.40226,-1.24641 -0.52248,-0.22714 -0.66961,-0.37558 -0.37853,-0.38192 1.49412,-0.0325 2.65286,1.53178 2.93218,3.9584 0.2108,1.83134 0.29215,2.09587 0.83755,2.72349 3.87523,4.45947 4.66981,5.8193 4.82462,8.25672 0.0555,0.87312 -0.0123,1.88515 -0.15045,2.24895 -0.23208,0.61093 -0.25953,0.57556 -0.35932,-0.46302 z m -1.44353,-5.5603 c -0.16011,-0.10691 -0.44413,-0.49204 -0.63114,-0.85584 -0.63402,-1.23339 -2.51504,-3.41448 -2.95557,-3.42707 -0.84902,-0.0243 -0.18534,1.15164 1.59573,2.82725 0.96412,0.90703 1.872,1.64935 2.01752,1.6496 0.15221,2.6e-4 0.14094,-0.0821 -0.0265,-0.19394 z m -36.291939,2.98062 c 4.77e-4,-0.43657 0.09177,-1.15094 0.202853,-1.5875 0.279977,-1.1003 0.292403,-0.0174 0.01518,1.32291 -0.184054,0.88983 -0.218769,0.93196 -0.218032,0.26459 z m 4.039311,-5.42396 c -0.08994,-0.14552 0.02913,-0.26458 0.264584,-0.26458 0.235457,0 0.35452,0.11906 0.264583,0.26458 -0.08994,0.14552 -0.209,0.26458 -0.264583,0.26458 -0.05558,0 -0.174647,-0.11906 -0.264584,-0.26458 z m 26.346928,-0.41892 c 0.0127,-0.30823 0.0754,-0.37092 0.15985,-0.15986 0.0764,0.191 0.067,0.4192 -0.0209,0.50712 -0.0879,0.0879 -0.15045,-0.0684 -0.13897,-0.34726 z m -0.24369,-1.16858 c 0,-0.3638 0.0601,-0.51263 0.13345,-0.33073 0.0734,0.1819 0.0734,0.47956 0,0.66146 -0.0734,0.1819 -0.13345,0.0331 -0.13345,-0.33073 z m 0.27439,-1.98438 c 0.005,-0.43656 0.0647,-0.58312 0.13177,-0.32569 0.0671,0.25743 0.0627,0.61462 -0.01,0.79375 -0.0725,0.17913 -0.12736,-0.0315 -0.12197,-0.46806 z m -7.60309,-5.44156 c -0.0959,-0.1552 -0.11766,-0.33893 -0.0483,-0.40828 0.0694,-0.0694 0.1966,0.0576 0.28277,0.28218 0.17891,0.46623 0.0264,0.54823 -0.23447,0.1261 z m -6.47141,-8.69803 c 0,-0.13693 0.1177,-0.32171 0.26155,-0.41062 0.14998,-0.0927 0.19434,0.0135 0.10399,0.24897 -0.1759,0.45837 -0.36554,0.54224 -0.36554,0.16165 z m 3.72505,-1.7096 c -0.0115,-0.42237 -0.37493,-2.2083 -0.80765,-3.96875 -2.54556,-10.35622 -2.67866,-13.41434 -0.6712,-15.4218 1.09251,-1.09251 2.49825,-1.19119 3.86623,-0.27141 1.09639,0.73718 1.53679,1.9097 1.51208,4.02574 l -0.0185,1.5875 -0.22879,-1.85209 c -0.29772,-2.41015 -0.56,-2.95466 -1.68063,-3.48905 -1.31177,-0.62554 -2.69933,-0.25003 -3.50483,0.94849 -0.49793,0.74089 -0.60421,1.25426 -0.60421,2.91858 0,2.05608 0.81077,6.86843 2.01996,11.98945 0.51724,2.19058 0.61009,3.00975 0.40482,3.57188 l -0.26634,0.7294 -0.0209,-0.76794 z m -1.8196,-1.93639 c -0.17487,-0.58368 -0.30966,-1.28554 -0.29952,-1.5597 0.0101,-0.27415 0.19528,0.0772 0.41143,0.78078 0.21615,0.70358 0.35094,1.40544 0.29952,1.55969 -0.0514,0.15425 -0.23656,-0.1971 -0.41143,-0.78077 z m 3.02505,-2.85192 c 0.27797,-1.2588 0.65721,-2.01505 0.46439,-0.92604 -0.0902,0.50933 -0.27099,1.10464 -0.40181,1.32292 -0.15547,0.25941 -0.17714,0.12195 -0.0626,-0.39688 z m -3.83039,-0.66145 c 0,-0.36381 0.0601,-0.51263 0.13345,-0.33073 0.0734,0.1819 0.0734,0.47955 0,0.66146 -0.0734,0.1819 -0.13345,0.0331 -0.13345,-0.33073 z m -0.28547,-1.21268 c 0.0127,-0.30822 0.0754,-0.37092 0.15985,-0.15985 0.0764,0.191 0.067,0.4192 -0.0209,0.50712 -0.0879,0.0879 -0.15045,-0.0684 -0.13896,-0.34727 z m 4.7625,-0.52916 c 0.0127,-0.30823 0.0754,-0.37092 0.15985,-0.15986 0.0764,0.191 0.067,0.4192 -0.0209,0.50712 -0.0879,0.0879 -0.15045,-0.0683 -0.13896,-0.34726 z m 0.26458,-1.05834 c 0.0127,-0.30822 0.0754,-0.37092 0.15985,-0.15985 0.0764,0.191 0.067,0.4192 -0.0209,0.50712 -0.0879,0.0879 -0.15046,-0.0684 -0.13897,-0.34727 z m -5.55625,-0.79375 c 0.0127,-0.30822 0.0754,-0.37092 0.15985,-0.15985 0.0764,0.191 0.067,0.4192 -0.0209,0.50712 -0.0879,0.0879 -0.15045,-0.0684 -0.13896,-0.34727 z m 5.8355,0.0221 c -0.01,-0.14552 0.28069,-1.33614 0.64487,-2.64583 0.36418,-1.30969 0.60057,-1.89885 0.52529,-1.30925 -0.13688,1.07221 -1.13755,4.4544 -1.17016,3.95508 z m -6.10008,-1.34496 c 0.0127,-0.30823 0.0754,-0.37092 0.15985,-0.15986 0.0764,0.191 0.067,0.4192 -0.0209,0.50712 -0.0879,0.0879 -0.15045,-0.0684 -0.13896,-0.34726 z m -0.26459,-1.32292 c 0.0127,-0.30823 0.0754,-0.37092 0.15985,-0.15985 0.0764,0.19099 0.067,0.4192 -0.0209,0.50711 -0.0879,0.0879 -0.15045,-0.0683 -0.13897,-0.34726 z m -0.21875,-1.83004 c 0.003,-0.58208 0.0571,-0.78905 0.12041,-0.45993 0.0633,0.32912 0.0609,0.80537 -0.005,1.05833 -0.0662,0.25297 -0.118,-0.0163 -0.11507,-0.5984 z m -0.28953,-1.98437 c 0,-0.3638 0.0601,-0.51263 0.13346,-0.33073 0.0734,0.1819 0.0734,0.47956 0,0.66146 -0.0734,0.1819 -0.13346,0.0331 -0.13346,-0.33073 z"
       id="path10829" />
  </g>
</svg>
