<?xml version="1.0" encoding="UTF-8" standalone="no"?>
<!-- Created with Inkscape (http://www.inkscape.org/) -->

<svg
   width="28.472088mm"
   height="41.339161mm"
   viewBox="0 0 28.472088 41.33916"
   version="1.1"
   id="svg5"
   inkscape:version="1.1 (c4e8f9ed74, 2021-05-24)"
   sodipodi:docname="ornament56.svg"
   xmlns:inkscape="http://www.inkscape.org/namespaces/inkscape"
   xmlns:sodipodi="http://sodipodi.sourceforge.net/DTD/sodipodi-0.dtd"
   xmlns="http://www.w3.org/2000/svg"
   xmlns:svg="http://www.w3.org/2000/svg">
  <sodipodi:namedview
     id="namedview7"
     pagecolor="#ffffff"
     bordercolor="#666666"
     borderopacity="1.0"
     inkscape:pageshadow="2"
     inkscape:pageopacity="0.0"
     inkscape:pagecheckerboard="0"
     inkscape:document-units="mm"
     showgrid="false"
     inkscape:zoom="1.3380612"
     inkscape:cx="-327.71297"
     inkscape:cy="126.67582"
     inkscape:window-width="2506"
     inkscape:window-height="1403"
     inkscape:window-x="1974"
     inkscape:window-y="0"
     inkscape:window-maximized="1"
     inkscape:current-layer="layer1" />
  <defs
     id="defs2" />
  <g
     inkscape:label="Layer 1"
     inkscape:groupmode="layer"
     id="layer1"
     transform="translate(-214.31058,-78.06749)">
    <path
       style="fill:#000000;stroke-width:0.264583"
       d="m 223.7984,118.725 c 0.34373,-0.37514 1.37909,-1.12311 2.3008,-1.66215 1.72951,-1.01145 2.53672,-1.93716 1.37765,-1.57989 -0.32959,0.10159 -1.02514,0.27478 -1.54568,0.38487 -0.52053,0.11008 -1.06888,0.27583 -1.21855,0.36833 -0.17025,0.10522 -0.2238,-0.0846 -0.14305,-0.50701 0.1476,-0.7721 0.74664,-1.10832 1.18811,-0.66685 0.49594,0.49594 0.95201,0.34232 1.36716,-0.46049 0.48245,-0.93294 0.28527,-1.19294 -0.50968,-0.67207 -0.79632,0.52177 -2.2511,0.93023 -2.2511,0.63205 0,-0.12877 0.41611,-0.31219 0.92468,-0.4076 0.85924,-0.16119 0.91611,-0.23225 0.80366,-1.00417 -0.10814,-0.74234 -0.0905,-0.76937 0.16573,-0.25414 0.23503,0.4726 0.39982,0.53358 0.91383,0.33815 0.3449,-0.13113 0.83648,-0.17099 1.09241,-0.0886 0.38824,0.12501 0.39994,0.10369 0.0707,-0.1287 -0.33614,-0.23722 -0.34019,-0.32919 -0.0273,-0.62027 0.27451,-0.25538 0.32015,-0.25816 0.18062,-0.011 -0.27239,0.48245 0.37569,0.37526 1.29971,-0.21497 0.88386,-0.56457 1.2366,-0.73855 3.24115,-1.59853 0.997,-0.42774 1.40043,-0.75065 1.42936,-1.14408 0.0222,-0.30149 0.0535,-0.68625 0.0697,-0.85504 0.0162,-0.16878 0.24721,-0.54755 0.51341,-0.84169 0.47311,-0.52278 0.4641,-0.55292 -0.40043,-1.33901 -1.05339,-0.95781 -1.18107,-0.97389 -2.20736,-0.27798 -0.43656,0.29603 -1.32953,0.77556 -1.98437,1.06562 -0.65484,0.29005 -1.36922,0.64313 -1.5875,0.78461 -0.44628,0.28927 -0.31938,0.23987 -2.64583,1.02999 -3.35785,1.14041 -3.96875,1.31297 -3.96875,1.12108 0,-0.10679 0.56554,-0.35904 1.25677,-0.56055 1.49072,-0.43459 3.49566,-1.29136 3.08413,-1.31795 -0.15912,-0.0103 -0.98143,0.21942 -1.82736,0.51047 -1.76496,0.60723 -1.71979,0.59903 -1.71979,0.31241 0,-0.11922 0.60892,-0.38257 1.35316,-0.58523 0.74424,-0.20266 1.22758,-0.41034 1.0741,-0.4615 -0.15348,-0.0512 -0.70193,0.0237 -1.21879,0.16646 -0.51685,0.14271 -0.99337,0.17267 -1.05894,0.0666 -0.14767,-0.23894 2.94857,-0.90041 3.27381,-0.6994 0.12959,0.0801 0.27595,0.0246 0.32524,-0.12322 0.0493,-0.14787 0.36927,-0.32271 0.71106,-0.38853 0.34178,-0.0658 0.77278,-0.24529 0.95777,-0.39882 0.18499,-0.15353 0.51947,-0.20887 0.74327,-0.12299 0.22381,0.0859 0.89617,-0.16761 1.49413,-0.56332 1.35222,-0.89486 1.2089,-1.19426 -0.16642,-0.34765 l -1.0061,0.61932 0.66146,-0.84025 c 0.3638,-0.46215 0.87752,-0.91633 1.14161,-1.00929 0.70575,-0.24846 1.0003,-1.21795 0.53164,-1.74988 -0.25818,-0.29303 -0.29207,-0.49407 -0.10299,-0.61093 0.155,-0.0958 0.28,-0.31597 0.27777,-0.48928 -0.002,-0.19017 -0.10736,-0.15776 -0.26459,0.0818 -0.23158,0.35277 -0.28948,0.35277 -0.52106,0 -0.3166,-0.48229 -0.34027,-0.79375 -0.0603,-0.79375 0.43406,0 0.29616,-1.490933 -0.21561,-2.331093 -0.42186,-0.69256 -0.64998,-0.83891 -1.08999,-0.69926 -0.40344,0.12805 -0.50085,0.0866 -0.35422,-0.15063 0.13176,-0.21319 0.0741,-0.28323 -0.1653,-0.20096 -0.20216,0.0695 -0.36287,0.4421 -0.35713,0.82808 0.006,0.40186 -0.13537,0.70177 -0.33073,0.70177 -0.18764,0 -0.32225,0.0893 -0.29915,0.19844 0.0231,0.10914 -0.0503,0.40984 -0.16319,0.66821 -0.16156,0.369873 -0.28445,0.404003 -0.57785,0.1605 -0.3203,-0.26583 -0.32036,-0.36898 -4e-4,-0.73435 0.66983,-0.76489 1.105,-3.08485 0.63334,-3.37636 -0.45886,-0.28359 -0.14403,-0.54485 0.55806,-0.4631 0.95717,0.11144 1.85232,-0.78306 2.05916,-2.05767 0.11782,-0.72601 0.0141,-1.0745 -0.49674,-1.66834 l -0.64567,-0.75063 -0.58172,0.58172 c -0.31994,0.31994 -0.50541,0.70518 -0.41215,0.85608 0.10093,0.16331 0.32868,0.0472 0.56266,-0.28685 0.31095,-0.44395 0.47103,-0.49652 0.76612,-0.25161 0.20517,0.17027 0.36364,0.44384 0.35215,0.60792 -0.0131,0.18746 -0.0705,0.17542 -0.15434,-0.0324 -0.15179,-0.37617 -0.8831,-0.45439 -0.8831,-0.0945 0,0.12995 0.16207,0.29847 0.36016,0.37448 0.54829,0.2104 0.70387,1.19783 0.25884,1.64286 -0.59626,0.59626 -0.96232,0.47737 -0.77901,-0.25302 0.19461,-0.77537 -0.18012,-1.09196 -0.6386,-0.53954 -0.29048,0.35001 -0.37117,0.34185 -0.68302,-0.0691 -0.23381,-0.30808 -0.35648,-0.3486 -0.36204,-0.11961 -0.005,0.19049 -0.1163,0.27967 -0.24816,0.19818 -0.13186,-0.0815 -0.17751,-0.38618 -0.10143,-0.67708 0.0941,-0.35971 0.008,-0.5289 -0.26913,-0.5289 -0.22408,0 -0.74399,-0.28041 -1.15533,-0.62313 -0.41135,-0.34272 -1.18191,-0.76455 -1.71235,-0.9374 -0.76451,-0.24913 -0.93638,-0.42163 -0.82904,-0.83208 0.0745,-0.2848 0.0163,-0.51781 -0.12918,-0.51781 -0.14552,0 -0.32685,0.23813 -0.40296,0.52917 -0.0863,0.33003 -0.37173,0.53703 -0.75846,0.55005 -0.37631,0.0127 -0.46406,0.074 -0.22321,0.15601 0.81987,0.27913 2.11667,0.9109 2.11667,1.03119 0,0.0687 -0.32743,0.0463 -0.72761,-0.0497 l -0.7276,-0.17465 0.60966,0.66496 c 0.56378,0.6149 0.57411,0.6786 0.13734,0.8462 -0.25978,0.0997 -0.51428,0.0554 -0.56557,-0.0985 -0.14112,-0.42338 -0.57831,-0.33482 -0.57831,0.11715 0,0.21828 -0.10932,0.39687 -0.24294,0.39687 -0.13362,0 -0.41007,0.0641 -0.61433,0.14252 -0.22837,0.0876 -0.4963,-0.13164 -0.69577,-0.56942 -0.38523,-0.84549 -0.55534,-0.69133 -1.31292,1.18979 -0.72491,1.80002 -0.71852,1.9294 0.0854,1.72763 0.48415,-0.12151 0.70604,-0.0428 0.8363,0.29666 0.16699,0.43517 0.19794,0.43386 0.53164,-0.0225 0.32289,-0.44158 0.35432,-0.44429 0.35432,-0.0306 0,0.72294 -1.20755,1.0433 -2.13154,0.56549 -0.42838,-0.22152 -0.77888,-0.51525 -0.77888,-0.65272 0,-0.13747 0.30265,-0.91161 0.67256,-1.7203 0.36991,-0.8087 0.59278,-1.59945 0.49527,-1.75722 -0.0975,-0.15777 -0.0191,-0.38459 0.17412,-0.50404 0.26166,-0.16171 0.0583,-0.4851 -0.79607,-1.26609 -1.00314,-0.91695 -1.16379,-1.21857 -1.27709,-2.3977 -0.0828,-0.8617 -0.0113,-1.49139 0.19812,-1.74367 0.18024,-0.21718 0.26553,-0.55691 0.18953,-0.75497 -0.19917,-0.51903 1.40065,-2.2084 2.54358,-2.68595 0.61146,-0.25548 0.97498,-0.58489 0.97498,-0.88349 0,-0.91162 1.44897,-1.9624 2.89805,-2.10163 0.84401,-0.0811 1.33529,-0.25329 1.33529,-0.468 0,-0.18683 0.36632,-0.64793 0.81405,-1.02467 0.86011,-0.72374 1.85783,-0.86317 3.01862,-0.42184 0.68361,0.25991 0.68626,0.27119 0.21566,0.91773 -0.26205,0.36002 -0.63987,0.65833 -0.83958,0.6629 -0.27859,0.006 -0.29269,-0.0766 -0.0606,-0.35624 0.23772,-0.28644 0.18796,-0.39453 -0.23219,-0.5044 -0.29411,-0.0769 -0.53474,-0.0448 -0.53474,0.0713 0,0.11612 -0.31488,0.29016 -0.69973,0.38675 -0.50977,0.12794 -0.62056,0.2548 -0.40809,0.46726 0.21246,0.21247 0.40243,0.1997 0.69973,-0.047 0.34987,-0.29037 0.40809,-0.24088 0.40809,0.34687 0,0.50067 -0.10703,0.64448 -0.39688,0.53325 -0.52935,-0.20313 -0.50177,0.0627 0.0662,0.63767 0.25466,0.25782 0.66103,0.76384 0.90305,1.12448 0.43133,0.64274 0.44776,0.64547 0.83018,0.13803 0.34389,-0.45633 0.34367,-0.58861 -0.002,-1.11601 -0.21562,-0.32907 -0.3307,-0.75095 -0.25575,-0.93751 0.0924,-0.23001 0.143,-0.20335 0.15716,0.0828 0.031,0.62608 0.96746,1.36393 1.73109,1.36393 0.76544,0 1.46479,-0.48919 1.46479,-1.02459 0,-0.4861 -0.53036,-0.46398 -0.89699,0.0374 -0.26188,0.35815 -0.36028,0.35537 -0.90412,-0.0256 -0.94523,-0.66206 -0.66402,-1.44785 0.65714,-1.83624 0.94803,-0.2787 1.24868,-0.25977 2.11666,0.13329 1.23715,0.56023 1.69834,1.0647 2.57829,2.82025 0.52917,1.05572 0.68236,1.75756 0.68236,3.12624 0,0.9707 -0.1406,2.02497 -0.31243,2.34283 -0.18522,0.34261 -0.28607,1.45151 -0.2477,2.72351 0.0763,2.52807 -0.42217,4.72566 -1.67374,7.37941 -2.22579,4.719393 -2.25182,5.082383 -0.50698,7.068773 1.45533,1.65681 1.5615,1.76453 1.31244,1.33175 -0.11627,-0.20205 -0.0362,-0.33073 0.20572,-0.33073 0.23295,0 0.37963,-0.21792 0.35619,-0.52917 -0.0219,-0.29104 -0.13359,-0.52916 -0.24814,-0.52916 -0.33963,0 -0.23712,-1.18235 0.14821,-1.70931 0.23792,-0.32537 0.41703,-0.38956 0.53853,-0.19297 0.11495,0.18599 0.39801,0.21425 0.76799,0.0767 0.74862,-0.2784 1.37498,-0.1771 2.18445,0.35329 0.35468,0.23239 0.70526,0.42105 0.77909,0.41926 0.38042,-0.009 1.45502,1.21063 1.3371,1.51792 -0.0829,0.21592 -0.0197,0.28401 0.16034,0.17276 0.20324,-0.1256 0.25983,0.0704 0.17911,0.62029 -0.0862,0.58722 -0.0244,0.76801 0.22904,0.67073 0.40814,-0.15662 0.47555,0.60654 0.0754,0.85383 -0.14939,0.0923 -0.23868,0.33084 -0.19844,0.53004 0.0402,0.1992 -0.1484,0.5257 -0.4192,0.72556 -0.4586,0.33845 -0.46226,0.39347 -0.0535,0.80224 0.34128,0.34127 0.37586,0.55661 0.15552,0.96833 -0.23259,0.43459 -0.21062,0.50154 0.12264,0.37366 0.28751,-0.11033 0.36012,-0.0362 0.2488,0.25383 -0.091,0.23712 -0.34296,0.35044 -0.59831,0.26909 -0.27185,-0.0866 -0.33069,-0.0548 -0.15333,0.0829 0.15828,0.12287 0.36072,0.52105 0.44986,0.88485 0.14512,0.59228 0.12581,0.61304 -0.18467,0.19844 -0.1907,-0.25466 -0.4026,-0.46302 -0.47087,-0.46302 -0.20207,0 -0.0998,1.17747 0.11631,1.33852 0.10913,0.0813 0.0286,0.379 -0.17888,0.66146 -0.27613,0.37585 -0.37137,0.40714 -0.35518,0.11669 0.0594,-1.06553 -0.085,-1.62307 -0.39197,-1.51301 -0.1819,0.0652 -0.52718,0.0178 -0.7673,-0.1054 -0.29649,-0.15211 -0.4838,-0.10091 -0.58376,0.15957 -0.17901,0.4665 0.23524,0.76861 0.68961,0.50293 0.1819,-0.10636 0.10793,0.0608 -0.16438,0.3714 -0.45376,0.51762 -0.56642,0.535 -1.34885,0.20808 l -0.85373,-0.35671 -0.83598,1.75563 c -0.4598,0.9656 -0.83508,1.82842 -0.83397,1.91738 0.001,0.089 0.31736,0.10146 0.70279,0.0278 0.46889,-0.0896 0.64119,-0.0375 0.52069,0.15743 -0.099,0.16026 -0.34282,0.22894 -0.54172,0.15261 -0.1989,-0.0763 -0.44024,-0.0116 -0.53631,0.14385 -0.0961,0.15544 -0.31647,0.2808 -0.48978,0.27857 -0.18934,-0.002 -0.15671,-0.10642 0.0818,-0.26053 0.32092,-0.2074 0.28295,-0.25726 -0.19844,-0.26053 -0.32742,-0.002 -0.59531,0.0895 -0.59531,0.20383 0,0.11434 -0.20836,0.22435 -0.46302,0.24448 -1.36382,0.10777 -2.40249,0.2824 -2.67256,0.44931 -0.1672,0.10334 -0.30401,0.0764 -0.30401,-0.0599 0,-0.30195 0.81571,-1.00783 1.02624,-0.88807 0.0831,0.0473 0.19935,-0.0586 0.25824,-0.23526 0.0698,-0.20923 -0.0202,-0.24642 -0.25796,-0.10666 -0.20078,0.11803 -0.13167,-0.0513 0.15359,-0.3762 0.44303,-0.50466 0.46232,-0.62756 0.13229,-0.84296 -0.295,-0.19253 -0.76171,0.15646 -1.97386,1.476 -1.6528,1.79925 -1.99779,2.03359 -1.84891,1.25586 0.0488,-0.25466 0.0978,-0.55231 0.10888,-0.66145 0.0111,-0.10914 0.10954,-0.17293 0.21868,-0.14174 0.10914,0.0312 0.62058,-0.35578 1.13653,-0.8599 0.51595,-0.50413 1.17079,-1.09551 1.45521,-1.31418 0.28441,-0.21867 0.87235,-0.67441 1.30653,-1.01274 l 0.78942,-0.61516 -0.78942,0.18415 c -1.23105,0.28716 -4.61511,2.33866 -5.21713,3.16275 -0.12866,0.17611 -0.19713,0.17662 -0.20249,0.001 -0.005,-0.16564 -0.0808,-0.16087 -0.20249,0.0128 -0.34174,0.48755 -1.83573,1.43272 -2.00193,1.26651 -0.0882,-0.0882 -0.49146,0.0516 -0.89618,0.31055 l -0.73586,0.47087 z m 10.48583,-1.97392 c -0.40807,-0.99123 -0.4462,-1.38906 -0.13314,-1.38906 0.19338,0 0.25882,-0.18646 0.16251,-0.46302 -0.15246,-0.43778 -0.14182,-0.43808 0.19529,-0.005 0.33354,0.42803 0.39349,0.41823 0.92911,-0.15192 0.5904,-0.62845 0.48788,-1.1852 -0.12463,-0.67686 -0.26429,0.21935 -0.38572,0.12012 -0.52317,-0.42757 -0.11961,-0.47656 -0.0599,-0.7868 0.17987,-0.935 0.19738,-0.12199 0.29561,-0.28507 0.21828,-0.36239 -0.0773,-0.0773 -0.40178,0.0423 -0.72102,0.26596 -0.41107,0.28792 -0.53715,0.57903 -0.43207,0.99768 0.0997,0.39738 -0.03,0.75252 -0.39579,1.08357 -0.65039,0.5886 -0.68836,1.14515 -0.13228,1.93907 0.49162,0.70189 1.05162,0.79199 0.77704,0.12502 z m -5.189,-1.85208 c -0.22952,-1.45362 0.46137,-2.31974 1.23406,-1.54705 0.63387,0.63387 1.17852,0.52347 1.17852,-0.23889 0,-0.48848 0.14056,-0.66146 0.53747,-0.66146 0.29561,0 0.60601,0.1786 0.68977,0.39688 0.25405,0.66205 0.62485,0.44484 0.62485,-0.36603 0,-0.60078 0.1386,-0.78941 0.65222,-0.88759 0.35873,-0.0686 0.69318,-0.002 0.74322,0.14829 0.05,0.15014 0.23764,0.18234 0.41687,0.0716 0.17923,-0.11077 0.25882,-0.4127 0.17685,-0.67094 -0.19712,-0.62107 0.40348,-1.0901 1.14693,-0.89568 0.4983,0.13031 0.5679,0.27903 0.42823,0.91497 -0.17489,0.79625 0.0794,0.9786 0.61609,0.44187 0.24695,-0.24695 0.3175,-0.18885 0.3175,0.26146 0,0.43482 -0.14095,0.56327 -0.56614,0.51594 -0.76915,-0.0856 -0.92085,0.492 -0.22677,0.86346 0.73799,0.39496 1.25243,-0.0216 1.47199,-1.19194 0.16313,-0.86956 -0.49091,-2.77726 -0.95217,-2.77726 -0.11704,0 -0.42066,-0.0798 -0.67471,-0.17725 -0.29401,-0.11283 -0.39861,-0.0748 -0.28775,0.10457 0.1877,0.30369 -0.46106,0.66913 -0.72295,0.40723 -0.29676,-0.29675 -0.15873,-0.53727 0.3908,-0.68097 0.46476,-0.12154 0.50391,-0.22773 0.25527,-0.69232 -0.5007,-0.93556 -1.39944,-0.63022 -1.69458,0.57572 -0.14175,0.57921 -0.0859,0.72761 0.27374,0.72761 0.38729,0 0.3707,0.0756 -0.11619,0.52916 -0.3124,0.29104 -0.67746,0.52917 -0.81124,0.52917 -0.13379,0 -0.39147,0.17859 -0.57263,0.39687 -0.36503,0.43984 -0.92015,0.55086 -0.66146,0.1323 0.0899,-0.14552 0.0374,-0.26459 -0.11668,-0.26459 -0.1541,0 -0.28019,0.23011 -0.28019,0.51134 0,0.59286 -0.80856,0.92652 -1.62064,0.66877 -0.37839,-0.12009 -0.50309,-0.0827 -0.38126,0.11446 0.17151,0.2775 0.0662,0.33667 -0.71008,0.39877 -0.1819,0.0146 -0.51977,0.20505 -0.75082,0.42333 -0.23105,0.21828 -0.63982,0.52389 -0.90836,0.67914 -0.46734,0.27017 -0.46351,0.30702 0.0894,0.8599 0.59738,0.59737 0.8651,0.72257 0.81088,0.37919 z m 8.78347,-4.45382 c 0.0127,-0.30823 0.0754,-0.37092 0.15985,-0.15985 0.0764,0.19099 0.067,0.41919 -0.0209,0.50712 -0.0879,0.0879 -0.15045,-0.0684 -0.13896,-0.34727 z m -7.42922,3.71352 c 0,-0.31257 -0.50026,-0.31198 -0.62026,8e-4 -0.0978,0.25473 -0.0189,0.33289 0.23686,0.23475 0.21087,-0.081 0.3834,-0.18694 0.3834,-0.23555 z m 5.65092,-2.48321 c -0.22868,-0.25335 -0.66913,0.48878 -0.47577,0.80164 0.1535,0.24837 0.25633,0.20254 0.39353,-0.17538 0.10215,-0.28138 0.13916,-0.5632 0.0822,-0.62626 z m 4.33159,-1.23582 c -0.0879,-0.0879 -0.31613,-0.0973 -0.50712,-0.0209 -0.21107,0.0845 -0.14837,0.14716 0.15985,0.15985 0.27892,0.0115 0.43519,-0.051 0.34727,-0.13896 z m 0.0717,-0.61226 c 0,-0.51669 -0.33117,-1.07005 -0.55689,-0.93055 -0.13028,0.0805 -0.23869,-0.009 -0.24091,-0.19995 -0.003,-0.2759 -0.0503,-0.27333 -0.23152,0.0126 -0.17013,0.26851 -0.27622,0.28007 -0.42096,0.0459 -0.11104,-0.17968 0.0704,-0.55815 0.42571,-0.88814 l 0.6192,-0.57505 -0.64856,-0.0921 c -0.35672,-0.0506 -0.69381,0.0436 -0.7491,0.20949 -0.0737,0.22107 -0.19466,0.22343 -0.45321,0.009 -0.2689,-0.22317 -0.41994,-0.16706 -0.63573,0.23614 -0.3443,0.64334 -0.3689,1.3574 -0.0468,1.3574 0.12995,0 0.30481,-0.17859 0.38857,-0.39688 0.0838,-0.21828 0.28212,-0.39687 0.4408,-0.39687 0.15868,0 0.21492,0.11906 0.12498,0.26458 -0.0899,0.14552 -0.0374,0.26459 0.11668,0.26459 0.15411,0 0.2802,0.29765 0.2802,0.66145 0,0.55857 0.12347,0.66146 0.79375,0.66146 0.43656,0 0.79375,-0.10932 0.79375,-0.24294 z m -9.75186,-3.08386 c 0.44286,-0.22901 0.74737,-0.47421 0.67669,-0.54489 -0.0707,-0.0707 -0.58599,0.1167 -1.14514,0.41639 -0.55916,0.29969 -0.86367,0.54489 -0.6767,0.54489 0.18697,0 0.70229,-0.18738 1.14515,-0.41639 z m -0.64369,-10.167473 c 0.0509,-0.72806 -0.25824,-1.06988 -0.53798,-0.59479 -0.10931,0.18564 0.24432,1.38969 0.40781,1.38854 0.0411,-2.9e-4 0.0996,-0.35748 0.13017,-0.79375 z m 2.66648,-0.30023 c -0.0661,-0.19816 -0.18599,-0.0782 -0.27955,0.27954 -0.11509,0.4401 -0.0807,0.5434 0.11569,0.34706 0.15375,-0.15375 0.22748,-0.43572 0.16386,-0.6266 z m -0.18563,-1.63436 c -0.40154,-0.40154 -0.003,-1.26925 0.50845,-1.10693 0.33598,0.10663 0.51074,-0.0318 0.62753,-0.49717 0.089,-0.35473 0.23517,-0.83597 0.32476,-1.06942 0.11981,-0.31223 0.0496,-0.38097 -0.26574,-0.25998 -0.23574,0.0905 -0.50222,0.45772 -0.59217,0.81613 -0.11648,0.46406 -0.24529,0.56991 -0.44751,0.36769 -0.20222,-0.20222 -0.19256,-0.37535 0.0335,-0.60146 0.17463,-0.17462 0.3175,-0.49303 0.3175,-0.70758 0,-0.27914 -0.19526,-0.20765 -0.68659,0.25136 -1.29392,1.2088 -1.56674,2.26767 -1.02448,3.9762 l 0.19339,0.60932 0.61876,-0.77598 c 0.34246,-0.4295 0.51775,-0.87699 0.39256,-1.00218 z m -1.34572,-0.66271 c 0,-0.31976 0.50197,-0.69257 0.68545,-0.50908 0.0666,0.0666 -0.0604,0.27169 -0.28218,0.45576 -0.25146,0.20869 -0.40327,0.22876 -0.40327,0.0533 z m -10.97391,-2.79464 c 0.20096,-0.20095 0.29988,-0.43088 0.21982,-0.51093 -0.24748,-0.24749 -0.88758,0.11869 -0.88758,0.50774 0,0.46643 0.20355,0.46741 0.66776,0.003 z m 1.64184,0.20553 c -0.0879,-0.0879 -0.31613,-0.0973 -0.50712,-0.0209 -0.21107,0.0845 -0.14837,0.14716 0.15985,0.15985 0.27891,0.0115 0.43518,-0.051 0.34727,-0.13896 z m 5.04258,-0.67007 c -0.0661,-0.19816 -0.18598,-0.0782 -0.27954,0.27954 -0.11509,0.4401 -0.0807,0.5434 0.11568,0.34706 0.15375,-0.15375 0.22749,-0.43572 0.16386,-0.6266 z m 4.24545,-0.39875 c -0.0985,-0.51672 -1.27888,-0.86489 -1.27888,-0.37723 0,0.15564 0.26789,0.28481 0.59532,0.28703 0.44186,0.003 0.50132,0.0636 0.23068,0.23501 -0.20054,0.12702 -0.2764,0.3737 -0.16857,0.54817 0.27512,0.44515 0.73971,-0.0729 0.62145,-0.69298 z m -5.50694,0.18019 c -0.23771,-0.44416 -1.0636,-0.51058 -1.0636,-0.0855 0,0.0728 0.16874,0.0675 0.37497,-0.0116 0.20624,-0.0791 0.44063,0.0272 0.52087,0.23627 0.0802,0.2091 0.21334,0.38017 0.29579,0.38017 0.0824,0 0.0248,-0.23369 -0.12803,-0.51931 z m -5.8261,-0.27444 c 0,-0.14552 -0.12609,-0.26458 -0.2802,-0.26458 -0.15411,0 -0.20662,0.11906 -0.11668,0.26458 0.0899,0.14552 0.21603,0.26459 0.2802,0.26459 0.0642,0 0.11668,-0.11907 0.11668,-0.26459 z m 1.32291,0.0248 c 0,-0.13189 0.26789,-0.19011 0.59532,-0.12935 0.32742,0.0607 0.44648,0.0397 0.26458,-0.0468 -0.1819,-0.0865 -0.33073,-0.34976 -0.33073,-0.58502 0,-0.33269 -0.0706,-0.35719 -0.3175,-0.11024 -0.17463,0.17462 -0.52808,0.3175 -0.78545,0.3175 -0.30725,0 -0.41564,0.13629 -0.31565,0.39687 0.16363,0.42642 0.88943,0.55458 0.88943,0.15706 z m 3.43959,-0.9425 c 0,-0.2367 -0.15513,-0.32905 -0.39688,-0.23628 -0.21828,0.0838 -0.39687,0.25862 -0.39687,0.38857 0,0.12995 0.17859,0.23628 0.39687,0.23628 0.21828,0 0.39688,-0.17486 0.39688,-0.38857 z m -4.714,-0.46251 c -0.18985,-0.18986 -0.31309,-0.20548 -0.31309,-0.0397 0,0.35316 0.3129,0.66606 0.48948,0.48948 0.0752,-0.0752 -0.004,-0.27759 -0.17639,-0.44979 z m 6.03691,0.0446 c 0,-0.12136 -0.11906,-0.29424 -0.26458,-0.38418 -0.14552,-0.0899 -0.26458,-0.1067 -0.26458,-0.0373 0,0.0694 -0.0728,0.31595 -0.16175,0.54778 -0.11839,0.30851 -0.0475,0.37766 0.26458,0.25791 0.23448,-0.09 0.42633,-0.26289 0.42633,-0.38426 z m 2.20915,-1.12189 c -0.11535,-0.46738 -0.21625,-0.96885 -0.22424,-1.11437 -0.0267,-0.48674 -0.42453,-0.92604 -0.83858,-0.92604 -0.53759,0 -0.25113,1.25074 0.4206,1.8364 0.32201,0.28075 0.41146,0.58162 0.27999,0.94172 -0.25143,0.68866 0.005,1.12496 0.32517,0.55304 0.13776,-0.24617 0.15413,-0.81634 0.0371,-1.29075 z m -0.86534,-1.13642 c 0.0127,-0.30822 0.0754,-0.37092 0.15985,-0.15985 0.0764,0.19099 0.067,0.4192 -0.0209,0.50712 -0.0879,0.0879 -0.15045,-0.0684 -0.13896,-0.34727 z m -3.72506,2.00897 c 0,-0.11298 0.23813,-0.26768 0.52917,-0.34379 0.29104,-0.0761 0.52917,-0.29948 0.52917,-0.49638 0,-0.1969 0.23812,-0.50672 0.52916,-0.68847 0.29104,-0.18176 0.52917,-0.22155 0.52917,-0.0884 0,0.13313 0.25911,0.1743 0.5758,0.0915 0.57133,-0.14941 0.57082,-0.15261 -0.0661,-0.41318 -0.35308,-0.14443 -0.79078,-0.2389 -0.97268,-0.20993 -0.1819,0.029 -0.33073,-0.0589 -0.33073,-0.1952 0,-0.36328 0.89966,-0.64822 1.00919,-0.31963 0.0513,0.15385 0.20238,0.27972 0.33577,0.27972 0.36576,0 0.29109,-0.73267 -0.0882,-0.86533 -0.24242,-0.0848 -0.20709,-0.25521 0.13229,-0.6382 0.56094,-0.63301 0.58551,-0.87772 0.0881,-0.87772 -0.26608,0 -0.35358,-0.26882 -0.30143,-0.92604 0.0404,-0.50932 -0.0205,-0.92604 -0.13536,-0.92604 -0.27951,0 -0.97934,0.71448 -1.31601,1.34355 -0.23429,0.43778 -0.18134,0.50853 0.38056,0.50853 0.51931,0 0.63975,0.12168 0.58925,0.59532 -0.071,0.66572 -0.17374,0.73658 -1.02491,0.70671 -0.32742,-0.0115 -0.44574,-0.0812 -0.26293,-0.15489 0.1828,-0.0737 0.26466,-0.24355 0.18191,-0.37745 -0.13293,-0.21509 -2.42078,0.91337 -2.76325,1.36295 -0.0728,0.0955 -0.34122,0.14145 -0.59657,0.10207 -0.26199,-0.0404 -0.39132,0.0465 -0.29683,0.19935 0.22005,0.35606 -0.3936,0.72976 -1.22327,0.74494 -0.5904,0.0108 -0.61014,0.0419 -0.18376,0.28999 0.37733,0.21951 0.41222,0.35679 0.16604,0.65341 -0.50892,0.61321 0.0898,0.42667 0.91877,-0.28626 0.87797,-0.75506 1.35674,-0.83535 1.57588,-0.26426 0.17197,0.44815 0.84801,0.53184 1.09308,0.13532 0.0927,-0.14998 -0.0135,-0.19434 -0.24897,-0.10398 -0.26403,0.10131 -0.41062,0.009 -0.41062,-0.25931 0,-0.27549 0.15705,-0.36805 0.46302,-0.27292 0.43783,0.13614 0.43772,0.12771 -0.002,-0.15491 -0.25581,-0.16439 -0.58324,-0.22588 -0.7276,-0.13666 -0.14438,0.0892 -0.2625,0.0442 -0.2625,-0.10014 0,-0.1443 0.23813,-0.33795 0.52917,-0.43032 0.29104,-0.0924 0.52917,-0.29744 0.52917,-0.45571 0,-0.15827 0.23429,-0.0757 0.52065,0.18342 0.40127,0.36315 0.4598,0.58488 0.25527,0.96705 -0.2457,0.4591 -0.14876,0.60572 0.34856,0.5272 0.10914,-0.0172 0.19843,0.12129 0.19843,0.30783 0,0.18655 -0.32216,0.36583 -0.71592,0.39842 -0.82925,0.0686 -1.27008,0.41918 -1.02526,0.81531 0.18327,0.29653 0.94743,0.1131 0.94743,-0.22743 z m 0.52917,-2.92858 c 0,-0.15411 0.11906,-0.20661 0.26458,-0.11668 0.14552,0.0899 0.26459,0.21603 0.26459,0.2802 0,0.0642 -0.11907,0.11668 -0.26459,0.11668 -0.14552,0 -0.26458,-0.12609 -0.26458,-0.2802 z m 3.175,3.21892 c 0,-0.33416 -0.74773,-0.5814 -0.91922,-0.30393 -0.0783,0.12674 0.007,0.29073 0.18997,0.36443 0.52426,0.21137 0.72925,0.19436 0.72925,-0.0605 z m -5.47687,-0.96032 c -0.3181,-0.2326 -0.61874,-0.26246 -0.93552,-0.0929 -0.75723,0.40526 -0.5362,0.66221 0.46874,0.54489 0.83962,-0.098 0.88746,-0.14435 0.46678,-0.45196 z m -1.4023,-1.58153 c 0,-0.21828 -0.17485,-0.39687 -0.38857,-0.39687 -0.23669,0 -0.32904,0.15512 -0.23627,0.39687 0.0838,0.21829 0.25862,0.39688 0.38857,0.39688 0.12995,0 0.23627,-0.17859 0.23627,-0.39688 z m 8.99584,-0.39687 c 0,-0.34741 -0.17639,-0.52917 -0.51356,-0.52917 -1.08324,0 -0.76823,0.73335 0.44741,1.04157 0.0364,0.009 0.0661,-0.22136 0.0661,-0.5124 z m -10.05417,-0.26458 c 0,-0.14552 -0.0525,-0.26459 -0.11668,-0.26459 -0.0642,0 -0.19026,0.11907 -0.2802,0.26459 -0.0899,0.14552 -0.0374,0.26458 0.11668,0.26458 0.15411,0 0.2802,-0.11906 0.2802,-0.26458 z m 15.47812,0 c 0.0899,-0.14552 0.0374,-0.26459 -0.11667,-0.26459 -0.15411,0 -0.2802,0.11907 -0.2802,0.26459 0,0.14552 0.0525,0.26458 0.11668,0.26458 0.0642,0 0.19026,-0.11906 0.28019,-0.26458 z m -11.37708,-1.32292 c 0.0899,-0.14552 -0.0816,-0.26458 -0.38126,-0.26458 -0.29963,0 -0.54478,0.11906 -0.54478,0.26458 0,0.14552 0.17157,0.26458 0.38126,0.26458 0.20969,0 0.45484,-0.11906 0.54478,-0.26458 z m -1.85208,-0.26458 c 0.0899,-0.14552 0.0374,-0.26459 -0.11668,-0.26459 -0.15411,0 -0.2802,0.11907 -0.2802,0.26459 0,0.14552 0.0525,0.26458 0.11668,0.26458 0.0642,0 0.19026,-0.11906 0.2802,-0.26458 z m 12.80068,-0.78247 c 0.24978,-0.37902 0.29055,-0.56562 0.0978,-0.44741 -0.20987,0.12867 -0.33073,0.052 -0.33073,-0.20972 0,-0.23259 -0.22505,-0.41249 -0.51602,-0.41249 -0.28381,0 -0.62326,-0.19162 -0.75433,-0.42583 -0.45216,-0.80797 -0.61141,0.37181 -0.18723,1.38703 0.44864,1.07374 1.02981,1.11101 1.69055,0.10842 z m -3.15863,-0.64389 c -0.065,-0.065 -0.42601,-0.1954 -0.8023,-0.28985 -0.5561,-0.13957 -0.67747,-0.0808 -0.64839,0.31388 0.0741,1.00598 0.43173,1.23121 1.02032,0.64261 0.30168,-0.30167 0.49534,-0.60166 0.43037,-0.66664 z m -6.86393,0.33679 c 0,-0.14552 -0.11906,-0.191 -0.26458,-0.10106 -0.14552,0.0899 -0.26458,0.28259 -0.26458,0.42811 0,0.14552 0.11906,0.191 0.26458,0.10106 0.14552,-0.0899 0.26458,-0.28259 0.26458,-0.42811 z m -1.4499,-0.23335 c -0.14284,0.24804 -0.0131,0.20785 0.34609,-0.10715 0.77729,-0.68177 0.72279,-1.00338 -0.15296,-0.90261 -0.54132,0.0623 -0.75104,0.24983 -0.81916,0.73252 -0.0837,0.59297 -0.0509,0.61574 0.38152,0.26458 0.41603,-0.33788 0.44551,-0.33636 0.24451,0.0127 z m -7.25314,35.480783 c -0.2314,-0.14878 -0.30876,-0.46613 -0.20777,-0.85231 0.11107,-0.42474 -0.0144,-0.80184 -0.40506,-1.21771 l -0.56595,-0.60243 0.64143,0.004 c 0.46061,0.003 0.54024,0.0682 0.28246,0.23151 -0.25025,0.15857 -0.27028,0.28228 -0.0661,0.40844 0.41464,0.25626 0.88522,-0.0976 0.71605,-0.53847 -0.0781,-0.20356 -0.0197,-0.37011 0.12987,-0.37011 0.14954,0 0.21058,-0.0992 0.13564,-0.22047 -0.075,-0.12126 -0.50023,-0.16705 -0.94507,-0.10176 -0.68925,0.10116 -0.78211,0.0491 -0.62815,-0.3521 0.13791,-0.35939 0.0918,-0.41721 -0.19502,-0.24433 -0.32069,0.19333 -0.32253,0.16094 -0.0126,-0.22118 0.29123,-0.35902 0.29791,-0.52624 0.0337,-0.84454 -0.30079,-0.36243 -0.18687,-0.50993 0.33073,-0.4282 0.10914,0.0172 0.19844,-0.15577 0.19844,-0.38445 0,-0.22867 0.19985,-0.61562 0.44412,-0.85989 0.41514,-0.41513 0.4152,-0.44969 9.8e-4,-0.52948 -0.35082,-0.0676 -0.38629,-0.19161 -0.17024,-0.59531 0.15011,-0.28048 0.18271,-0.50996 0.0725,-0.50996 -0.11026,0 0.0661,-0.18674 0.39199,-0.41498 0.32586,-0.22823 0.5267,-0.52138 0.44632,-0.65144 -0.20211,-0.32702 1.82862,-2.37316 2.35529,-2.37316 0.23531,0 0.42784,-0.10518 0.42784,-0.23373 0,-0.12854 0.2501,-0.29912 0.55578,-0.37906 0.30569,-0.0799 0.49166,-0.2491 0.41329,-0.37592 -0.0784,-0.12682 0.2073,-0.36262 0.63483,-0.524 0.42754,-0.16137 0.77735,-0.19271 0.77735,-0.0696 0,0.12308 0.23985,0.2999 0.53301,0.39294 0.29315,0.0931 0.47243,0.26719 0.39839,0.38698 -0.1671,0.27037 0.61551,0.59416 0.94456,0.3908 0.31712,-0.19599 0.31253,-2.49879 -0.005,-2.49879 -0.13513,0 -0.40302,-0.15486 -0.59531,-0.34414 -0.1923,-0.18928 -0.88541,-0.63968 -1.54026,-1.00089 -1.07112,-0.59083 -1.19062,-0.75294 -1.19062,-1.61518 0,-0.52714 -0.0893,-1.049083 -0.19844,-1.159873 -0.36679,-0.37235 -0.20294,-0.57627 0.46302,-0.57627 0.76489,0 0.84961,0.45907 0.25281,1.369903 -0.38548,0.58832 -0.36845,0.65531 0.30026,1.18132 0.38991,0.3067 0.96075,0.57577 1.26855,0.59793 1.22773,0.0884 1.35124,0.12755 1.29544,0.41047 -0.0319,0.16156 0.14673,0.25441 0.39688,0.20632 0.25014,-0.0481 0.61067,-0.0965 0.80116,-0.10768 0.19048,-0.0111 0.27275,-0.1393 0.18282,-0.28482 -0.0899,-0.14552 -0.0374,-0.26459 0.11667,-0.26459 0.15411,0 0.27838,0.14883 0.27615,0.33073 -0.007,0.55846 -0.44966,1.07006 -0.76012,0.87818 -0.20299,-0.12546 -0.29416,0.29677 -0.29416,1.36235 0,1.34763 -0.10144,1.6552 -0.79704,2.4168 -0.43838,0.47995 -0.72901,0.98274 -0.64585,1.1173 0.0832,0.13455 -0.0939,0.24464 -0.39358,0.24464 -0.29963,0 -0.54478,0.11907 -0.54478,0.26459 0,0.14552 0.25797,0.26458 0.57326,0.26458 0.76689,0 0.52418,0.20581 -0.38654,0.32777 -0.84222,0.11279 -0.97218,0.48573 -0.27245,0.78182 0.33176,0.14038 0.19315,0.18595 -0.44344,0.14579 -0.81585,-0.0515 -0.91854,0.012 -0.86301,0.53372 0.04,0.37611 -0.0806,0.59215 -0.33073,0.59215 -0.21657,0 -0.39376,0.10255 -0.39376,0.22789 0,0.12534 0.32743,0.17895 0.72761,0.11912 l 0.7276,-0.10878 -0.74847,0.42943 c -0.4946,0.28378 -0.69498,0.56886 -0.59075,0.84047 0.0867,0.22606 0.0189,0.57825 -0.15068,0.78263 -0.24195,0.29154 -0.2009,0.45023 0.19053,0.73645 0.46224,0.33799 0.4231,0.37906 -0.53202,0.55824 -0.64827,0.12162 -1.21175,0.0805 -1.51801,-0.11076 -0.39524,-0.24683 -0.48706,-0.22599 -0.48706,0.11056 0,0.24611 -0.12419,0.33797 -0.30546,0.22594 -0.19691,-0.12169 -0.23331,-0.072 -0.10243,0.13973 0.13724,0.22206 0.28999,0.24157 0.47135,0.0602 0.16738,-0.16737 0.5004,-0.18007 0.88524,-0.0338 0.33931,0.12901 1.06494,0.1772 1.61252,0.10709 0.8658,-0.11085 0.93434,-0.0827 0.52571,0.21612 -0.29594,0.2164 -0.40511,0.51242 -0.29489,0.79964 0.3275,0.85346 0.93161,0.41235 1.06199,-0.77545 0.0375,-0.34133 -0.0603,-0.62059 -0.21726,-0.62059 -0.15696,0 -0.22304,-0.0623 -0.14686,-0.13852 0.25019,-0.25019 0.97743,0.17494 0.85317,0.49873 -0.0668,0.17404 0.0518,0.55114 0.26348,0.838 0.28381,0.38458 0.46354,0.44414 0.68431,0.22675 0.22256,-0.21915 0.20469,-0.38952 -0.0696,-0.66381 -0.38746,-0.38746 -0.31728,-1.13304 0.0833,-0.88544 0.12778,0.079 0.48472,-0.1088 0.7932,-0.41728 0.69408,-0.69408 1.04545,-0.45339 0.39208,0.26858 -0.44419,0.49082 -0.44649,0.56634 -0.0364,1.19225 0.42388,0.64692 0.41866,0.66836 -0.16356,0.67209 -0.70587,0.005 -2.8366,0.71367 -3.3001,1.09834 -0.17688,0.1468 -0.73392,0.21135 -1.23785,0.14344 -0.50394,-0.0679 -1.015,-0.0313 -1.13569,0.0813 -0.37474,0.34973 -1.78814,0.53628 -2.17561,0.28716 z m 1.82436,-1.01879 c 0.31518,0.28106 0.31863,0.26163 0.0229,-0.12939 -0.19137,-0.25306 -0.45352,-0.39486 -0.58255,-0.31511 -0.12903,0.0797 -0.2346,0.0119 -0.2346,-0.15082 0,-0.45012 -0.53839,-0.0202 -0.77933,0.62238 -0.32006,0.85352 0.55492,1.11102 0.92486,0.27219 0.22773,-0.51636 0.34471,-0.57033 0.6487,-0.29925 z m 1.556,-0.095 c 0.64126,-0.22355 0.77465,-0.37421 0.56014,-0.63268 -0.15486,-0.18659 -0.61075,-0.38757 -1.01309,-0.44663 -0.66952,-0.0983 -0.72233,-0.0446 -0.62292,0.63268 0.0597,0.40703 0.13686,0.74005 0.17139,0.74005 0.0345,0 0.44155,-0.13204 0.90448,-0.29342 z m -1.55648,-1.0295 c 0,-0.14552 -0.18562,-0.26458 -0.41249,-0.26458 -0.22687,0 -0.33891,0.11906 -0.24897,0.26458 0.0899,0.14552 0.27556,0.26458 0.41249,0.26458 0.13693,0 0.24897,-0.11906 0.24897,-0.26458 z m -1.45521,-1.85208 c -0.0899,-0.14553 -0.36486,-0.25622 -0.61093,-0.24599 -0.36473,0.0152 -0.34962,0.0606 0.0818,0.24599 0.708,0.30423 0.7172,0.30423 0.52917,0 z m 1.19062,-0.34443 c -0.36469,-0.30104 -1.05833,-1.35496 -1.05833,-1.60805 0,-0.0592 0.16512,-0.17094 0.36693,-0.24838 0.25741,-0.0988 0.32717,0.0112 0.23372,0.36857 -0.0757,0.28946 10e-4,0.50937 0.17786,0.50937 0.17108,0 0.24255,0.11084 0.15883,0.2463 -0.0837,0.13547 -0.0217,0.32695 0.13777,0.42553 0.1595,0.0986 0.65182,-0.19086 1.09405,-0.64318 0.80529,-0.82368 0.51951,-1.18263 -0.3297,-0.4141 -0.40664,0.36801 -0.46662,0.36801 -0.60784,0 -0.0862,-0.22457 -0.0413,-0.4083 0.0996,-0.4083 0.14095,0 0.25628,-0.23813 0.25628,-0.52917 0,-0.72773 -0.79889,-0.68137 -1.70714,0.0991 -0.47469,0.40789 -0.62681,0.6927 -0.43371,0.81204 0.16357,0.10109 0.22379,0.3029 0.13383,0.44846 -0.22991,0.372 0.70969,1.25335 1.34556,1.26214 0.45773,0.006 0.47559,-0.0369 0.13229,-0.32029 z m 1.69816,-0.0808 c 0.23018,-0.0883 0.41851,-0.39154 0.41851,-0.67381 0,-0.49767 -0.0198,-0.49882 -0.65314,-0.0378 -0.96847,0.70487 -0.83137,1.1207 0.23463,0.71164 z m 0.83734,-3.66912 c 0.18478,-0.73622 -0.17111,-0.88861 -0.67036,-0.28705 -0.17398,0.20964 -0.47085,0.32185 -0.65971,0.24938 -0.18887,-0.0725 -0.41455,0.0537 -0.50152,0.28031 -0.19225,0.50098 0.61882,0.57102 1.09526,0.0946 0.20686,-0.20685 0.3175,-0.21814 0.3175,-0.0324 0,0.40033 -0.6713,0.91331 -0.89822,0.68639 -0.10345,-0.10344 -0.11305,0.007 -0.0214,0.24642 0.15057,0.39238 0.21539,0.38584 0.66871,-0.0675 0.27609,-0.27609 0.57745,-0.80266 0.66969,-1.17016 z m 16.97277,7.79847 c 0.2492,-0.29104 0.47501,-0.52916 0.50181,-0.52916 0.0268,0 -0.0136,0.23812 -0.0897,0.52916 -0.0761,0.29104 -0.30193,0.52917 -0.50181,0.52917 -0.27829,0 -0.25729,-0.12396 0.0897,-0.52917 z m 1.03385,-0.18358 c -0.29797,-0.29797 -0.18148,-0.61017 0.22767,-0.61017 0.21829,0 0.39688,0.11204 0.39688,0.24897 0,0.33363 -0.41317,0.57258 -0.62455,0.3612 z m 0.88913,-0.77485 c 0,-0.35158 0.0718,-0.36966 0.39688,-0.0999 0.21828,0.18116 0.39687,0.37433 0.39687,0.42927 0,0.0549 -0.17859,0.0999 -0.39687,0.0999 -0.21828,0 -0.39688,-0.19318 -0.39688,-0.42927 z m 0.90759,-0.18487 c -0.21447,-0.5589 -0.0802,-0.75043 0.34288,-0.48897 0.19648,0.12143 0.22297,0.33038 0.0727,0.57351 -0.19864,0.3214 -0.265,0.3079 -0.4156,-0.0845 z m 0.82617,-0.68618 c -0.0852,-0.13784 -0.0421,-0.32032 0.0957,-0.40551 0.13784,-0.0852 0.32032,-0.0421 0.4055,0.0957 0.0852,0.13784 0.0421,0.32032 -0.0957,0.4055 -0.13784,0.0852 -0.32032,0.0421 -0.40551,-0.0957 z m -3.15235,-0.68406 c 0.0838,-0.21828 0.27319,-0.39687 0.42096,-0.39687 0.15487,0 0.12915,0.16811 -0.0607,0.39687 -0.18116,0.21828 -0.37059,0.39688 -0.42097,0.39688 -0.0504,0 -0.0231,-0.1786 0.0607,-0.39688 z m 3.93213,-0.13229 c 0.0899,-0.14552 0.21603,-0.26458 0.2802,-0.26458 0.0642,0 0.11668,0.11906 0.11668,0.26458 0,0.14552 -0.12609,0.26458 -0.2802,0.26458 -0.15411,0 -0.20661,-0.11906 -0.11668,-0.26458 z m -1.93764,-0.75974 c 0.3381,-0.41691 0.65274,-0.72578 0.69921,-0.68637 0.15832,0.1343 -0.60102,1.17083 -0.9581,1.30786 -0.19572,0.0751 -0.0792,-0.20457 0.25889,-0.62149 z m -2.15573,-0.0237 c -0.21407,-0.13538 -0.32034,-0.31503 -0.23615,-0.39921 0.0842,-0.0842 0.30368,0.0284 0.48776,0.25019 0.38169,0.45991 0.3085,0.50325 -0.25161,0.14902 z m 5.15171,-0.0103 c -0.0899,-0.14552 0.0291,-0.26458 0.26458,-0.26458 0.23546,0 0.35452,0.11906 0.26458,0.26458 -0.0899,0.14552 -0.209,0.26458 -0.26458,0.26458 -0.0556,0 -0.17465,-0.11906 -0.26458,-0.26458 z m -20.11921,-0.28219 c -0.27148,-0.43926 -0.0278,-0.50017 0.35204,-0.088 0.18763,0.2036 0.22443,0.37019 0.0818,0.37019 -0.14267,0 -0.33788,-0.12698 -0.4338,-0.28219 z m 2.73939,-0.6923 c 0.191,-0.0764 0.4192,-0.067 0.50712,0.0209 0.0879,0.0879 -0.0684,0.15045 -0.34727,0.13896 -0.30822,-0.0127 -0.37092,-0.0754 -0.15985,-0.15985 z m 7.53485,-3.73136 c 0.1,-0.64146 0.43253,-1.11498 0.78303,-1.11498 0.16474,0 0.0684,0.1748 -0.21405,0.38846 -0.28931,0.21881 -0.36916,0.39213 -0.18287,0.39687 0.45876,0.0117 0.41519,0.44856 -0.063,0.63207 -0.26627,0.10218 -0.37088,0.004 -0.32308,-0.30242 z m -6.95607,-8.49246 c 0,-0.12855 0.24493,-0.29777 0.54428,-0.37606 0.44661,-0.11679 0.48828,-0.0748 0.23219,0.23373 -0.34932,0.42091 -0.77647,0.49921 -0.77647,0.14233 z m -5.90903,-2.853083 c -0.097,-0.097 -0.17639,-0.39741 -0.17639,-0.66756 0,-0.45527 0.0456,-0.46128 0.62418,-0.0822 0.34329,0.22494 0.81954,0.33401 1.05833,0.24238 0.29149,-0.11186 0.43416,-0.0269 0.43416,0.25858 0,0.30548 -0.24829,0.42518 -0.88195,0.42518 -0.48507,0 -0.96132,-0.0794 -1.05833,-0.17639 z"
       id="path560" />
  </g>
</svg>
