<?xml version="1.0" encoding="UTF-8" standalone="no"?>
<!-- Created with Inkscape (http://www.inkscape.org/) -->

<svg
   width="94.985519mm"
   height="94.98526mm"
   viewBox="0 0 94.985498 94.985234"
   version="1.1"
   id="svg5"
   inkscape:version="1.1 (c4e8f9ed74, 2021-05-24)"
   sodipodi:docname="ornament22.svg"
   xmlns:inkscape="http://www.inkscape.org/namespaces/inkscape"
   xmlns:sodipodi="http://sodipodi.sourceforge.net/DTD/sodipodi-0.dtd"
   xmlns="http://www.w3.org/2000/svg"
   xmlns:svg="http://www.w3.org/2000/svg">
  <sodipodi:namedview
     id="namedview7"
     pagecolor="#ffffff"
     bordercolor="#666666"
     borderopacity="1.0"
     inkscape:pageshadow="2"
     inkscape:pageopacity="0.0"
     inkscape:pagecheckerboard="0"
     inkscape:document-units="mm"
     showgrid="false"
     inkscape:zoom="0.94615212"
     inkscape:cx="465.56995"
     inkscape:cy="332.39898"
     inkscape:window-width="2506"
     inkscape:window-height="1403"
     inkscape:window-x="1974"
     inkscape:window-y="0"
     inkscape:window-maximized="1"
     inkscape:current-layer="layer1" />
  <defs
     id="defs2" />
  <g
     inkscape:label="Layer 1"
     inkscape:groupmode="layer"
     id="layer1"
     transform="translate(358.22981,-123.62455)">
    <path
       style="fill:#000000;stroke-width:0.264583"
       d="m -312.72148,217.3385 v -1.27139 l -3.10885,-0.34049 c -7.77107,-0.85112 -15.45912,-3.9258 -21.69501,-8.6765 -9.98632,-7.6079 -16.34168,-18.92788 -17.68565,-31.50117 l -0.17676,-1.65364 h -1.42103 -1.42103 v -1.7198 c 0,-1.02482 0.11227,-1.71979 0.27783,-1.71979 0.16621,0 0.24593,0.50495 0.19844,1.25677 l -0.0794,1.25677 1.64398,0.0785 c 1.88606,0.0901 1.65323,-0.36513 2.19283,4.2871 1.08614,9.36429 6.22232,19.26721 13.45018,25.9329 3.33616,3.07668 5.96958,4.96326 9.49733,6.80386 5.56089,2.90139 9.17624,4.03117 15.3886,4.80888 l 3.6,0.45067 0.0794,1.50706 0.0794,1.50705 h 1.57429 1.5743 v -1.5875 c 0,-1.1811 0.0944,-1.5875 0.36884,-1.5875 3.00258,0 9.88101,-1.36716 13.31316,-2.64613 4.25555,-1.5858 10.27588,-5.20916 13.75729,-8.27989 6.31519,-5.57023 11.33741,-13.64673 13.43064,-21.59851 0.59312,-2.25316 1.35567,-6.88168 1.52883,-9.27964 0.0664,-0.9199 0.076,-0.92657 1.44661,-1.00569 l 1.37975,-0.0797 -0.16428,-0.82139 c -0.11718,-0.58594 -0.0766,-0.76719 0.14161,-0.63234 0.16824,0.10398 0.30589,0.65827 0.30589,1.23177 v 1.04272 h -1.16465 -1.16465 l -0.17138,1.65364 c -0.49456,4.77196 -1.61542,9.829 -2.82953,12.76615 -1.5497,3.74898 -4.34271,8.67698 -6.29817,11.1125 -1.88207,2.34412 -5.24438,5.82125 -7.07725,7.31894 -5.1337,4.1949 -11.87409,7.47502 -18.60062,9.05173 -1.73899,0.40763 -2.49789,0.52343 -5.49011,0.83777 l -1.65364,0.17372 v 1.29694 1.29694 h -2.51355 -2.51354 z m -1.5875,-4.9989 c -2.21717,-0.23987 -6.88615,-1.16623 -8.46667,-1.67986 -11.15052,-3.62359 -19.32967,-10.69197 -24.80775,-21.43876 -2.78568,-5.46487 -3.93648,-10.17387 -4.19798,-17.17776 -0.22692,-6.07802 0.44698,-9.86282 2.83124,-15.90085 4.50547,-11.40993 12.82349,-19.43147 24.63996,-23.76172 4.05575,-1.48627 12.46502,-2.84257 15.67691,-2.52847 3.00946,0.2943 6.83989,0.93966 8.85086,1.49121 4.16005,1.14099 8.90042,3.25905 11.66718,5.21306 0.65485,0.46248 1.88026,1.3217 2.72315,1.90939 2.7949,1.94869 6.81013,6.1993 8.97421,9.5003 3.21502,4.90408 4.60482,8.00534 5.9878,13.36146 2.26192,8.76016 1.4151,18.00593 -2.48655,27.1487 -2.60256,6.09861 -8.45571,13.01921 -14.31279,16.92305 -5.43948,3.6255 -12.17161,6.15641 -18.21603,6.84823 -2.26639,0.2594 -6.87422,0.30724 -8.86354,0.092 z m 7.54063,-0.92942 c 1.60073,-0.1479 3.02352,-0.37441 3.16177,-0.50335 0.15154,-0.14135 0.0214,-0.23444 -0.32789,-0.23444 -1.01469,0 -3.16466,-0.96472 -4.88362,-2.19134 l -1.66602,-1.18884 -0.78795,0.64627 c -1.15992,0.95135 -2.67122,1.69446 -4.74892,2.33505 l -1.84429,0.56862 1.97658,0.31393 c 3.79854,0.60328 4.9838,0.6363 9.12034,0.2541 z m -9.59397,-1.81381 c 2.25472,-0.6701 3.51851,-1.27841 4.67143,-2.24853 0.66185,-0.55691 0.77303,-0.78067 0.5321,-1.07098 -0.42192,-0.50837 -0.67589,-0.46487 -1.65765,0.28396 -0.46937,0.358 -1.56276,0.98121 -2.42974,1.3849 -1.36108,0.63374 -1.90152,0.73304 -3.95759,0.72714 -2.10469,-0.006 -2.62708,-0.11092 -4.49792,-0.90299 -2.7255,-1.15392 -5.16267,-3.48495 -6.50327,-6.22004 -0.8571,-1.74867 -0.90488,-1.99404 -0.90165,-4.63021 0.004,-3.07883 0.49039,-4.81096 2.02725,-7.21612 0.78964,-1.23577 3.22367,-3.63736 3.6865,-3.63736 0.49793,0 0.17618,0.52 -1.57198,2.54055 -2.94244,3.40093 -3.23357,4.41477 -0.65042,2.26505 0.96999,-0.80724 2.4492,-2.54237 3.86659,-4.53558 l 2.2956,-3.22819 -0.57779,-0.46786 c -0.56678,-0.45895 -0.61843,-0.43707 -2.7118,1.14836 -3.24452,2.45725 -4.7858,4.19347 -6.13227,6.90788 -2.08108,4.19533 -2.16611,7.9092 -0.27128,11.84871 2.72392,5.66327 9.14672,8.72669 14.78389,7.05131 z m 19.16142,-0.25904 c 2.40084,-0.68658 3.87489,-1.49072 5.60875,-3.05977 2.58908,-2.34299 3.74191,-5.35485 3.73592,-9.76038 -0.003,-1.94099 -0.1221,-2.32096 -0.80907,-2.57332 -0.36465,-0.13396 -0.40227,0.11451 -0.2958,1.95358 0.43357,7.48976 -5.0915,12.94775 -12.76707,12.61204 -3.05594,-0.13365 -4.8056,-0.92431 -7.15116,-3.23154 -2.03977,-2.00643 -2.89867,-3.98458 -2.71252,-6.24722 0.0658,-0.80036 0.20854,-1.66356 0.31711,-1.91823 0.15759,-0.36969 0.0649,-0.46302 -0.45999,-0.46302 -0.91675,0 -1.19433,0.44356 -1.35813,2.17022 -0.24299,2.56136 1.0694,5.63281 3.3218,7.7742 3.52116,3.34762 7.45513,4.20621 12.57016,2.74344 z m -17.51445,-2.4879 c 2.6808,-1.36071 2.71517,-1.4172 1.89393,-3.11254 -0.37269,-0.76938 -0.75731,-1.91303 -0.85471,-2.54144 l -0.1771,-1.14256 -0.56013,1.40714 c -0.4406,1.10687 -0.83438,1.59065 -1.84527,2.26705 -2.3226,1.55405 -4.92656,1.06455 -9.61729,-1.80791 -1.19583,-0.73229 -2.59972,-1.40048 -3.11976,-1.48487 l -0.94553,-0.15344 0.33017,0.764 c 0.81073,1.876 2.68837,4.04258 4.57446,5.27839 0.38119,0.24977 1.4328,0.73606 2.3369,1.08065 1.35231,0.51543 2.02994,0.6112 3.82113,0.54003 1.90488,-0.0757 2.42578,-0.21264 4.1632,-1.0945 z m 17.49891,0.38104 c 1.63607,-0.52957 2.95775,-1.26952 4.08232,-2.2855 1.01617,-0.91805 2.3915,-3.04667 2.76336,-4.2769 0.17652,-0.58399 0.13901,-0.60342 -0.83032,-0.43006 -1.03487,0.18509 -3.45751,1.26918 -6.30686,2.82223 -1.39715,0.76153 -1.8279,0.86527 -3.59247,0.86527 -1.79031,0 -2.1094,-0.0796 -2.98042,-0.74401 -0.91864,-0.70068 -2.29065,-2.91356 -2.29065,-3.69454 0,-0.1953 -0.14883,-0.55848 -0.33073,-0.80705 -0.27995,-0.38256 -0.34114,-0.20865 -0.39854,1.13262 -0.0373,0.87151 -0.34768,2.35559 -0.68974,3.29795 l -0.62192,1.71337 0.95432,0.76674 c 1.43276,1.15113 2.54982,1.65265 4.47066,2.00717 1.83728,0.33909 4.01733,0.20034 5.77099,-0.36729 z m -32.53982,-1.12214 c -2.32097,-2.85753 -3.36632,-5.59274 -3.42561,-8.9633 l -0.0448,-2.54715 -2.24896,0.0149 c -3.79388,0.0251 -7.26595,-1.35042 -9.78256,-3.87564 l -1.35905,-1.3637 1.36802,2.38125 c 3.46193,6.02606 8.58888,11.08277 14.66839,14.46744 0.7276,0.40509 1.36794,0.73867 1.42297,0.74131 0.055,0.003 -0.21424,-0.38216 -0.59838,-0.8551 z m 42.56707,-1.7584 c 2.18264,-1.42873 5.52268,-4.56342 8.0452,-7.55059 1.82959,-2.16661 2.39933,-2.999 3.99621,-5.83841 l 0.8928,-1.5875 -1.66257,1.52972 c -3.053,2.80904 -6.78339,4.149 -10.13819,3.64166 l -1.13345,-0.17141 -0.008,2.79168 c -0.006,1.98836 -0.14856,3.21043 -0.4953,4.24689 -0.62378,1.86456 -1.70899,3.89824 -2.17575,4.07736 -0.19976,0.0767 -0.3632,0.26636 -0.3632,0.42157 0,0.35049 0.56688,0.0597 3.04271,-1.56097 z m -21.1827,-1.54889 c 0.63167,-1.84371 0.78405,-3.96575 0.41361,-5.76018 -0.55152,-2.67161 -1.00262,-3.51102 -2.29331,-4.26741 -0.64398,-0.3774 -1.11223,-0.74483 -1.04055,-0.81651 0.0717,-0.0717 0.58307,0.14595 1.13643,0.48362 0.77418,0.47242 0.9187,0.50542 0.62693,0.14314 -0.52278,-0.64913 -2.22496,-1.48301 -3.11601,-1.52651 -0.65275,-0.0319 -0.66702,-0.0496 -0.12339,-0.15324 0.33811,-0.0645 1.10288,0.0781 1.69948,0.31682 0.91164,0.36476 1.03255,0.37114 0.75774,0.04 -0.54499,-0.65668 -2.95428,-1.79479 -3.90042,-1.84251 -0.48894,-0.0247 -0.88951,-0.14935 -0.89016,-0.27709 -0.002,-0.36639 2.1585,0.074 3.10767,0.63356 0.70148,0.41351 0.85989,0.43542 0.85989,0.11893 0,-0.21337 -0.11906,-0.40283 -0.26458,-0.42102 -0.14552,-0.0182 -0.35642,-0.048 -0.46866,-0.0662 -0.11224,-0.0182 -0.55872,-0.30126 -0.99219,-0.62906 -0.44884,-0.33942 -0.5701,-0.51939 -0.28169,-0.41805 0.36555,0.12843 0.44952,0.0858 0.30187,-0.15306 -0.12239,-0.19803 -0.4594,-0.26702 -0.83899,-0.17175 -0.40075,0.10058 -0.60939,0.0504 -0.56645,-0.13628 0.0374,-0.16253 -0.21307,-0.40417 -0.55659,-0.53697 -0.56832,-0.21971 -0.61025,-0.1844 -0.46556,0.39211 0.12361,0.49248 0.0371,0.66544 -0.38854,0.77675 -0.8782,0.22965 -0.5674,1.31523 0.46354,1.61911 0.67762,0.19973 0.82873,0.37602 0.79375,0.92604 -0.0418,0.65718 0.002,0.67693 1.34586,0.60528 0.82451,-0.044 1.38906,0.0367 1.38906,0.19843 0,0.14988 -0.23109,0.27251 -0.51355,0.27251 -0.57669,0 -1.00104,0.49829 -0.64482,0.75718 0.12778,0.0929 0.23233,0.40698 0.23233,0.69802 0,0.37792 0.20383,0.5527 0.7131,0.61149 0.44085,0.0509 0.66459,0.2087 0.58606,0.41336 -0.0699,0.18208 0.18494,0.49801 0.56625,0.70208 0.98699,0.52822 1.42359,1.54711 1.60917,3.75527 0.12239,1.45632 0.059,2.17184 -0.2601,2.93343 -0.33914,0.80957 -0.35896,1.10819 -0.10093,1.52135 0.47099,0.75418 0.62683,0.64931 1.10375,-0.7427 z m -0.91,-8.02745 c -0.38426,-0.47401 -1.04954,-0.90585 -1.5875,-1.03046 -0.78686,-0.18225 -0.82205,-0.21856 -0.23412,-0.24157 0.74534,-0.0292 1.92136,0.75803 2.36176,1.58093 0.3882,0.72535 0.22054,0.62947 -0.54014,-0.3089 z m -8.43228,8.24095 c 0.24502,-0.70286 0.33308,-0.75059 0.90444,-0.49026 1.18519,0.54001 1.96289,-0.8924 1.03887,-1.91343 -0.36168,-0.39965 -0.36168,-0.48067 0,-0.78084 0.79546,-0.66017 0.15354,-2.12289 -0.77523,-1.76648 -0.79123,0.30362 -0.66596,-0.36233 0.2612,-1.38858 1.02244,-1.13172 2.40344,-1.74467 3.47099,-1.5406 0.43359,0.0829 0.57203,0.0368 0.40158,-0.13364 -0.46868,-0.46867 -1.96554,-0.61959 -3.64943,-0.36794 -1.43054,0.2138 -1.75417,0.18098 -2.39788,-0.24318 l -0.74414,-0.49033 0.66007,-0.15785 c 0.79166,-0.18932 0.99696,-0.9283 0.43148,-1.55315 -0.22607,-0.24981 -0.34693,-0.69442 -0.26938,-0.99098 0.20255,-0.77456 -0.56848,-1.36549 -1.23694,-0.94804 -0.65619,0.4098 -0.77586,0.39714 -0.77586,-0.0821 0,-0.21828 -0.0498,-0.39687 -0.11065,-0.39687 -0.0609,0 -0.28363,-0.0664 -0.49505,-0.14751 -0.5481,-0.21033 -1.29791,0.62665 -1.10524,1.23372 0.11893,0.3747 0.0292,0.50129 -0.3555,0.50129 -0.28303,0 -0.65807,0.17288 -0.83343,0.38417 -0.43583,0.52514 -0.0913,1.46791 0.53645,1.46791 0.35718,0 0.51134,0.18346 0.51134,0.60854 0,1.14713 1.29759,1.7146 1.81333,0.79302 0.18691,-0.33398 0.34431,-0.37764 0.60846,-0.16877 0.19599,0.15496 0.71352,0.37044 1.15009,0.47885 0.75209,0.18676 0.69655,0.22968 -1.05834,0.81785 -2.32017,0.77763 -2.1981,0.78199 -2.29753,-0.0821 -0.10991,-0.95522 -1.38427,-1.21528 -1.61585,-0.32975 -0.12982,0.49644 -0.20917,0.52012 -0.71274,0.21268 -0.50683,-0.30942 -0.63662,-0.2654 -1.22906,0.41692 -0.46922,0.54038 -0.58009,0.84519 -0.38017,1.0451 0.43465,0.43466 0.33665,0.70557 -0.25524,0.70557 -0.63782,0 -0.90314,0.55339 -0.68398,1.42661 0.19343,0.77067 0.81741,1.04789 1.5165,0.67375 0.42078,-0.2252 0.61157,-0.16752 0.98944,0.29914 0.5855,0.72306 1.55275,0.49771 1.78186,-0.41515 0.10054,-0.40056 0.29265,-0.57422 0.53315,-0.48193 0.67955,0.26076 1.21863,-0.46144 1.04306,-1.39735 -0.15725,-0.8382 -0.13063,-0.86605 1.362,-1.42451 0.83731,-0.31328 1.88067,-0.64126 2.31857,-0.72884 l 0.79618,-0.15923 -0.69789,0.82939 c -0.38384,0.45617 -0.75325,0.98263 -0.82092,1.1699 -0.10015,0.27717 -0.23097,0.27665 -0.70331,-0.003 -0.7815,-0.46235 -1.60553,-0.16836 -1.60553,0.57281 0,0.32489 0.14288,0.73358 0.3175,0.90821 0.24695,0.24694 0.19991,0.3175 -0.21166,0.3175 -0.73624,0 -1.16417,0.50387 -1.16417,1.37079 0,0.56418 0.15427,0.77451 0.66146,0.90181 0.51144,0.12836 0.66146,0.33655 0.66146,0.91793 0,0.8177 0.55372,1.28637 1.53512,1.29934 0.43979,0.006 0.68452,-0.20838 0.88052,-0.77064 z m -1.20426,-0.86181 c 0.0798,-0.48018 0.18838,-1.09081 0.24129,-1.35697 0.0729,-0.3667 -0.0113,-0.43775 -0.3475,-0.29331 -0.24404,0.10484 -0.8009,0.23158 -1.23746,0.28166 -0.72707,0.0834 -0.71595,0.068 0.13229,-0.18312 0.88359,-0.2616 1.85208,-1.09805 1.85208,-1.59958 0,-0.1294 -0.26789,-0.23709 -0.59531,-0.23932 -0.32742,-0.002 -0.77391,-0.12571 -0.99219,-0.2744 -0.28785,-0.19608 -0.13263,-0.22478 0.56501,-0.10448 0.58456,0.1008 1.0318,0.0528 1.1401,-0.12247 0.29093,-0.47075 0.67614,-0.32869 0.67614,0.24934 0,0.31032 0.25174,0.63888 0.59531,0.77698 0.32743,0.13161 0.43866,0.24683 0.24719,0.25606 -0.19146,0.009 -0.5866,-0.11086 -0.87808,-0.26685 -0.4864,-0.26032 -0.52302,-0.21139 -0.44562,0.59531 0.0673,0.70138 0.2714,0.97239 1.01037,1.34155 0.50932,0.25443 0.73374,0.46279 0.4987,0.46302 -0.23504,2.2e-4 -0.73052,-0.23808 -1.10109,-0.52956 l -0.67374,-0.52997 -0.17871,1.05775 c -0.0983,0.58176 -0.28561,1.12382 -0.41628,1.20458 -0.13243,0.0818 -0.17337,-0.23958 -0.0925,-0.72622 z m -5.05714,-2.3433 c -0.095,-0.15378 -0.099,-0.57353 -0.009,-0.93277 0.1508,-0.60079 0.10507,-0.64023 -0.5704,-0.49203 -0.40388,0.0886 -0.88316,0.20697 -1.06506,0.26301 -0.1819,0.056 -0.33073,-0.0134 -0.33073,-0.15439 0,-0.14095 0.17299,-0.25628 0.38443,-0.25628 0.21143,0 0.68102,-0.13514 1.04352,-0.3003 0.61929,-0.28217 0.63169,-0.32612 0.20529,-0.72761 -0.24959,-0.23501 -0.33818,-0.338 -0.19686,-0.22886 0.14132,0.10914 0.70939,0.19844 1.26237,0.19844 h 1.00542 l -0.53882,-0.53882 c -0.29635,-0.29635 -0.45534,-0.67389 -0.3533,-0.83898 0.11821,-0.19128 0.26259,-0.0918 0.398,0.27423 0.12257,0.33134 0.44001,0.5744 0.75017,0.5744 0.56075,0 0.74005,0.63746 0.26235,0.9327 -0.15144,0.0936 -0.19759,0.42804 -0.10255,0.74322 0.11652,0.38644 0.0853,0.48689 -0.0958,0.30846 -0.14775,-0.14552 -0.30996,-0.46764 -0.36047,-0.71581 -0.0852,-0.4187 -0.13792,-0.41622 -0.73124,0.0344 -0.43576,0.33096 -0.6394,0.74854 -0.6394,1.31112 0,0.89085 -0.0508,0.97812 -0.31798,0.54587 z m 2.38569,-5.79793 c 0.10522,-0.17024 0.41238,-0.39131 0.6826,-0.49127 0.74633,-0.27608 0.21284,-0.88024 -0.98091,-1.11083 l -1.01975,-0.19699 0.97372,-0.0304 c 0.96904,-0.0303 0.97254,-0.0345 0.7276,-0.88857 -0.30117,-1.05014 -0.30221,-0.99394 0.0185,-0.99394 0.14553,0 0.26459,0.29766 0.26459,0.66146 0,0.77896 0.0752,0.79777 0.93535,0.23416 0.35868,-0.23502 0.65215,-0.32319 0.65215,-0.19594 0,0.12725 -0.23813,0.38008 -0.52917,0.56184 -0.58294,0.36405 -0.65977,0.78 -0.25569,1.38432 0.23145,0.34614 0.30026,0.33768 0.53826,-0.0661 0.15009,-0.25466 0.47206,-0.46302 0.71549,-0.46302 0.34808,0 0.31473,0.0896 -0.15613,0.41937 -0.41146,0.28819 -0.54815,0.57873 -0.437,0.9289 0.1448,0.45624 0.094,0.47872 -0.48501,0.21488 -0.48359,-0.22034 -0.79671,-0.21441 -1.2413,0.0235 -0.44196,0.23653 -0.54546,0.23876 -0.40327,0.009 z m 21.4495,8.70859 c 0.40546,-0.44802 0.43602,-0.63406 0.1733,-1.05474 -0.42806,-0.68544 -0.41241,-0.73247 0.27633,-0.83029 0.8033,-0.11408 0.93082,-1.10283 0.20757,-1.60941 -0.35048,-0.24549 -0.48924,-0.54407 -0.38233,-0.82267 0.25301,-0.65934 -0.40952,-1.29115 -1.19948,-1.14385 -0.51639,0.0963 -0.82435,-0.0578 -1.30257,-0.65177 -0.34447,-0.42782 -0.58259,-0.81722 -0.52917,-0.86532 0.19563,-0.17616 2.57889,0.56117 3.26324,1.00957 0.58293,0.38196 0.67587,0.5933 0.53765,1.22263 -0.21858,0.9952 0.28239,1.942 0.93698,1.77082 0.32314,-0.0845 0.63817,0.0901 0.90949,0.50423 0.70616,1.07774 2.25498,0.69918 2.25498,-0.55115 0,-0.56926 -0.67965,-1.72575 -1.01419,-1.72575 -0.10473,0 -0.145,0.47625 -0.0895,1.05833 0.0593,0.62228 -0.0127,1.05834 -0.17482,1.05834 -0.16562,0 -0.21765,-0.35793 -0.13029,-0.89626 0.11508,-0.7092 0.015,-1.02672 -0.47966,-1.52136 l -0.6251,-0.62509 -0.1636,0.92604 -0.16361,0.92604 -0.0348,-0.84489 c -0.0225,-0.54594 -0.2429,-0.99063 -0.62287,-1.25677 -0.58373,-0.40887 -0.58174,-0.41188 0.27311,-0.41188 0.64575,0 0.921,-0.1489 1.10043,-0.59531 0.20464,-0.50912 0.24172,-0.52292 0.25606,-0.0953 0.009,0.275 -0.19159,0.65817 -0.44625,0.85148 -0.41292,0.31346 -0.36139,0.3524 0.47625,0.3599 0.5166,0.005 1.08016,-0.13247 1.25236,-0.30467 0.1722,-0.1722 0.39262,-0.23356 0.48983,-0.13636 0.0972,0.0972 -0.2108,0.33969 -0.68446,0.53885 -0.65106,0.27375 -0.75768,0.40184 -0.43692,0.52492 0.23336,0.0896 0.63265,0.0958 0.88732,0.0139 0.3823,-0.12298 0.39513,-0.10096 0.0736,0.12636 -0.34289,0.24239 -0.34289,0.29189 0,0.41398 1.49692,0.53301 1.93638,0.76176 1.6609,0.86453 -0.17384,0.0649 -0.56079,-0.0131 -0.8599,-0.17314 -0.62121,-0.33246 -0.63905,-0.29274 -0.2858,0.63639 0.14192,0.37328 0.45997,0.67868 0.70677,0.67868 0.66241,0 1.41645,-0.78852 1.41645,-1.48121 0,-0.66251 -0.92241,-1.46476 -1.45095,-1.26194 -0.23207,0.0891 -0.32239,-0.16482 -0.30036,-0.84429 0.039,-1.20127 -0.59871,-1.75168 -1.42879,-1.23328 -0.44298,0.27665 -0.56156,0.26838 -0.68282,-0.0476 -0.32631,-0.85033 -1.69333,-0.75464 -1.69333,0.11853 0,0.75123 -0.2719,0.77407 -2.09597,0.17602 -1.58797,-0.52065 -1.65129,-0.57122 -0.99083,-0.79137 0.38805,-0.12935 0.70555,-0.34077 0.70555,-0.46981 0,-0.12904 0.44645,-0.20842 0.99213,-0.17639 0.81878,0.0481 1.00558,-0.0356 1.06912,-0.47898 0.0423,-0.29547 0.34003,-0.65266 0.66151,-0.79375 0.81606,-0.35815 0.80806,-1.54771 -0.0112,-1.66405 -0.48464,-0.0688 -0.56594,-0.20326 -0.436,-0.72097 0.12881,-0.51322 0.0205,-0.6998 -0.55984,-0.96421 -0.63334,-0.28858 -0.77228,-0.26275 -1.15957,0.21554 -0.34022,0.42015 -0.53969,0.48052 -0.87947,0.26619 -0.62697,-0.39548 -1.61251,0.52151 -1.41335,1.31503 0.0936,0.37303 0.005,0.63328 -0.2496,0.73088 -0.67399,0.25864 -0.45466,1.18207 0.38375,1.61562 0.51778,0.26776 0.83595,0.31012 0.94948,0.12642 0.29148,-0.47162 -0.0953,-1.04323 -0.72773,-1.07538 -0.47835,-0.0243 -0.50344,-0.0566 -0.12091,-0.15549 0.26549,-0.0686 0.71198,0.0827 0.99219,0.33628 0.4915,0.44481 0.50948,0.43469 0.50948,-0.2867 0,-0.41128 -0.2065,-0.99528 -0.45888,-1.29778 -0.25239,-0.3025 -0.0809,-0.2071 0.3811,0.21199 0.72818,0.66057 0.82111,0.68986 0.69824,0.22001 -0.0779,-0.29809 -0.006,-0.76005 0.15958,-1.02657 0.2509,-0.40352 0.27424,-0.34303 0.1395,0.36159 l -0.16181,0.84618 1.0102,-0.11869 c 0.92417,-0.10859 0.94582,-0.0975 0.25416,0.13072 -0.41581,0.13718 -0.9945,0.46466 -1.28596,0.72772 -0.52561,0.4744 -0.52376,0.47967 0.22686,0.64544 l 0.7568,0.16713 -0.8275,0.0313 c -0.45512,0.0172 -0.97702,0.21146 -1.15977,0.43167 -0.18275,0.2202 -0.46522,0.3797 -0.62771,0.35444 -0.16249,-0.0253 -0.59309,0.0777 -0.95689,0.22891 -0.43685,0.18152 -1.2071,0.19211 -2.26834,0.0312 -1.79157,-0.27163 -3.02333,0.0224 -3.02333,0.72158 0,0.34736 0.18665,0.39515 1.00405,0.25705 1.11976,-0.18918 2.10985,0.0998 2.83859,0.82857 0.26685,0.26684 0.56019,0.48518 0.65186,0.48518 0.40382,0 1.82282,1.42208 1.52054,1.52383 -0.46281,0.15578 0.24797,0.96845 1.26089,1.44164 0.79822,0.37288 0.17331,0.31648 -0.76945,-0.0694 -0.53721,-0.21991 -0.53728,-0.2105 -0.0156,2.16634 0.12397,0.5648 0.0968,0.65851 -0.1065,0.36701 -0.15015,-0.21531 -0.35221,-0.86038 -0.44904,-1.4335 -0.13985,-0.82775 -0.22684,-0.95128 -0.42302,-0.60072 -0.13583,0.24272 -0.35458,0.4413 -0.4861,0.4413 -0.13152,0 -0.0456,-0.33713 0.19085,-0.74919 0.51483,-0.89704 0.29329,-1.87836 -0.31087,-1.37696 -0.20855,0.17308 -0.65362,0.26224 -0.98905,0.19812 -0.55377,-0.10585 -0.54458,-0.11988 0.0999,-0.1526 0.78595,-0.0399 1.26931,-0.9409 0.77171,-1.4385 -0.21143,-0.21143 -0.29086,-0.13637 -0.29086,0.27488 0,0.45287 -0.14518,0.55581 -0.72761,0.51594 -0.6123,-0.0419 -0.74089,0.0657 -0.81147,0.6793 -0.0527,0.45836 0.0607,0.78457 0.3054,0.87848 0.33302,0.12779 0.33771,0.24873 0.0324,0.83715 -0.59534,1.14751 0.38534,2.23455 1.48499,1.64604 0.41749,-0.22344 0.51,-0.18487 0.51,0.21262 0,1.14431 1.42085,1.50644 2.26235,0.57659 z m -0.80714,-4.7477 c 0.0899,-0.14552 0.28258,-0.26458 0.4281,-0.26458 0.14552,0 0.191,0.11906 0.10107,0.26458 -0.0899,0.14552 -0.28259,0.26458 -0.42811,0.26458 -0.14552,0 -0.191,-0.11906 -0.10106,-0.26458 z m -8.86759,2.34818 c 0.005,-1.51198 -0.25397,-2.87735 -0.54576,-2.87735 -0.45929,0 -0.75959,1.9224 -0.48895,3.13007 0.14646,0.65353 0.33592,1.30089 0.42101,1.43858 0.28209,0.45643 0.60958,-0.44609 0.6137,-1.6913 z m -17.12713,-5.37287 c 2.65957,-5.20909 4.52916,-6.65055 7.58147,-5.84537 0.78448,0.20694 1.55149,0.50142 1.70447,0.65441 0.50672,0.50671 0.61597,0.29275 0.63478,-1.2432 0.0233,-1.9058 0.76074,-3.66022 1.9933,-4.74242 1.15456,-1.01372 0.86509,-1.63607 -0.4446,-0.95589 -0.45632,0.23699 -1.81427,0.49522 -3.05931,0.58176 l -2.23877,0.15561 -1.3331,1.74359 c -0.73321,0.95898 -1.88143,2.51352 -2.5516,3.45453 -1.0542,1.48023 -2.7408,2.99706 -4.95828,4.45917 -0.51104,0.33696 -0.62487,0.70142 -0.75397,2.41418 -0.0836,1.10951 -0.0684,2.46347 0.0339,3.00878 l 0.186,0.99149 0.79692,-0.75983 c 0.43831,-0.4179 1.52225,-2.18047 2.40875,-3.91681 z m 37.23185,1.70177 c 5.3e-4,-2.79246 -0.10979,-3.04145 -1.76216,-3.97399 -2.02076,-1.14044 -3.52423,-2.60138 -5.55352,-5.39643 -0.95978,-1.32194 -2.10131,-2.78227 -2.53673,-3.24517 -0.77443,-0.82331 -0.83066,-0.83836 -2.58293,-0.69146 -1.36165,0.11416 -2.1135,0.0343 -3.13479,-0.33295 -1.47942,-0.532 -2.13091,-0.30888 -1.09096,0.37361 1.16337,0.76349 2.85199,2.72605 2.71058,3.1503 -0.051,0.15291 0.0327,0.35548 0.18587,0.45017 0.15321,0.0947 0.27855,0.70365 0.27855,1.35326 v 1.18111 l 0.629,-0.41213 c 1.1084,-0.72626 2.25481,-0.9231 3.64264,-0.62547 1.9842,0.42554 3.56594,2.08028 5.40608,5.65561 1.73085,3.36299 3.23588,5.40038 3.58382,4.85148 0.12326,-0.19446 0.22431,-1.24653 0.22455,-2.33794 z m -43.21588,-2.99034 c 0.0294,-0.0294 0.12838,-0.35086 0.21996,-0.71437 l 0.16652,-0.66091 -2.4152,0.0855 c -1.86764,0.0661 -2.82247,-0.0382 -4.21166,-0.46019 -3.57504,-1.08589 -6.62318,-3.8998 -7.97933,-7.36619 -1.13285,-2.89561 -0.90403,-7.31384 0.49511,-9.56016 2.42513,-3.89354 5.92392,-5.69161 9.14106,-4.69773 1.39958,0.43238 1.63233,0.28337 1.45978,-0.93456 -0.0842,-0.59422 -0.17026,-0.61438 -2.60062,-0.60931 -2.33702,0.005 -2.65569,0.0728 -4.5377,0.96663 -2.10275,0.9987 -3.5768,2.47049 -4.72146,4.71421 -1.3228,2.5929 -1.69958,6.71987 -0.84891,9.29841 2.17509,6.59314 7.73654,10.59389 14.06802,10.12016 0.94104,-0.0704 1.73504,-0.15207 1.76443,-0.18146 z m 50.13274,0.0803 c 5.77065,-1.07003 11.08681,-7.26146 11.08047,-12.9048 -0.004,-3.57407 -0.95165,-6.81568 -2.54851,-8.71779 -0.42419,-0.50526 -0.55627,-0.53762 -0.95587,-0.23413 -0.43879,0.33324 -0.43454,0.38917 0.0792,1.04227 0.29857,0.37957 0.91394,1.49732 1.36748,2.4839 0.7528,1.63752 0.82569,2.03577 0.83679,4.57189 0.0138,3.15491 -0.3546,4.388 -2.09383,7.00825 -1.24953,1.8825 -4.38397,4.43189 -6.12591,4.98251 -3.0472,0.9632 -6.0884,0.67318 -9.25589,-0.88268 -1.65931,-0.81504 -4.3202,-3.35709 -4.3202,-4.12725 0,-0.62429 0.94218,0.0202 2.80078,1.91572 2.16964,2.21278 3.03713,2.33434 1.46383,0.20513 -1.15041,-1.55692 -2.86644,-3.09269 -4.92607,-4.40865 -1.01865,-0.65084 -2.14056,-1.4966 -2.49314,-1.87946 -0.58411,-0.63426 -0.68121,-0.65978 -1.09286,-0.28724 -0.42016,0.38024 -0.30446,0.60717 1.65225,3.24075 3.42687,4.61228 4.89619,5.90805 8.1796,7.21347 2.39692,0.95297 4.21063,1.17515 6.35189,0.77811 z m -24.30555,-0.24466 c 0.10914,-0.0111 0.19844,-0.3179 0.19844,-0.68171 0,-0.42704 0.14846,-0.66145 0.41892,-0.66145 0.77608,0 0.21008,-0.66064 -0.63774,-0.74437 -0.46174,-0.0456 -0.83952,-0.18451 -0.83952,-0.30868 0,-0.37237 0.62348,-0.47122 1.23726,-0.19617 0.814,0.36479 1.99547,0.0246 1.88614,-0.54313 -0.0477,-0.2478 0.12296,-0.66026 0.37929,-0.9166 0.62181,-0.6218 0.58993,-1.27695 -0.0705,-1.44966 -0.38217,-0.0999 -0.49125,-0.28318 -0.37905,-0.63669 0.19285,-0.6076 -0.35198,-0.66182 -1.08432,-0.10791 -0.28247,0.21365 -0.70961,0.39225 -0.9492,0.39688 -0.23959,0.005 -0.80928,0.45489 -1.26598,1.0006 -1.6896,2.01889 -1.89386,2.42403 -0.84589,1.67781 0.72947,-0.51943 3.31447,-1.62923 3.73437,-1.60325 0.31701,0.0196 -0.92579,0.78533 -1.27463,0.78533 -0.62177,0 -2.65189,1.10556 -2.81615,1.53361 -0.2048,0.5337 0.0621,0.75252 0.44768,0.36698 0.17219,-0.1722 0.4381,-0.30947 0.5909,-0.30504 0.15279,0.004 0.0694,0.1294 -0.18521,0.27773 -0.77382,0.45071 -0.55843,1.03314 0.39687,1.07317 0.62184,0.0261 0.69509,0.0678 0.26459,0.15069 -0.32742,0.0631 -0.59531,0.26514 -0.59531,0.44904 0,0.47625 0.23332,0.64805 0.74564,0.54905 0.24474,-0.0473 0.53428,-0.0951 0.64342,-0.10623 z m 23.67555,-2.0568 c 0.14608,-0.43825 -1.39351,-2.07951 -2.3782,-2.53526 -4.63966,-2.14739 -5.82844,-2.91651 -6.84317,-4.4274 -1.30622,-1.94491 -1.27443,-3.89331 0.096,-5.8836 l 0.50099,-0.7276 -1.27479,-0.006 c -1.45505,-0.007 -3.31919,-0.7618 -4.37775,-1.77344 l -0.72172,-0.68972 0.2587,0.90201 c 0.34479,1.20224 0.32768,3.14216 -0.0369,4.18813 -0.27616,0.79221 -0.23696,0.90109 0.59532,1.65346 0.49002,0.44296 1.84627,1.4381 3.01389,2.21141 2.44293,1.61795 4.56939,3.75171 5.42098,5.43962 0.75375,1.49396 0.55929,1.34851 2.3165,1.73267 1.7453,0.38155 3.28755,0.34357 3.43023,-0.0845 z m -49.3213,-0.0621 c 0.37557,-0.14279 1.07264,-0.95027 1.65594,-1.91823 1.59556,-2.64776 2.1929,-3.30286 5.02171,-5.50728 1.46388,-1.14077 2.81688,-2.26122 3.00666,-2.4899 0.19422,-0.23402 0.38234,-1.27826 0.43031,-2.38864 0.0469,-1.08508 0.21193,-2.20959 0.36678,-2.49892 0.15484,-0.28933 0.28153,-0.77235 0.28153,-1.07338 0,-0.46214 -0.14447,-0.38741 -0.92825,0.48014 -1.35703,1.50207 -3.26283,2.24614 -5.32842,2.08033 l -1.64565,-0.13209 0.75555,0.63575 c 2.54719,2.14332 2.08523,5.98418 -0.96257,8.00296 -0.6651,0.44054 -1.76173,1.00278 -2.43695,1.24942 -2.95658,1.07996 -4.98842,1.99934 -5.72558,2.59075 l -0.79375,0.63682 0.92604,0.26557 c 1.19661,0.34317 4.54038,0.38465 5.37665,0.0667 z m 53.43499,-1.12776 c 1.77376,-1.13279 3.81127,-3.47906 4.78041,-5.50481 1.47344,-3.07988 1.24982,-7.28047 -0.5464,-10.26339 -0.49776,-0.8266 -0.94931,-1.54722 -1.00345,-1.60135 -0.0541,-0.0541 -0.83886,0.27156 -1.74382,0.72378 -1.27086,0.63506 -2.01219,0.82713 -3.25678,0.8438 l -1.61139,0.0216 0.92604,0.39934 c 3.07136,1.3245 4.7809,4.47891 3.99968,7.38013 -0.15851,0.58866 -1.04479,2.2543 -1.96952,3.70143 -1.67256,2.61741 -2.29474,3.95905 -2.29474,4.94825 0,0.43267 0.12029,0.48866 0.7276,0.33867 0.40019,-0.0988 1.29675,-0.54319 1.99237,-0.98744 z m -60.70052,-0.62489 c -0.37085,-1.34813 -1.19112,-2.96003 -1.99638,-3.92306 -1.70232,-2.03584 -2.26032,-4.34052 -1.5608,-6.44657 0.59238,-1.78347 2.56909,-3.44544 4.63856,-3.89998 1.15317,-0.25327 0.86688,-0.42713 -0.91015,-0.55269 -0.82172,-0.0581 -2.22992,-0.40527 -3.12934,-0.77157 l -1.6353,-0.66601 -0.4908,0.59423 c -0.69746,0.84442 -1.65715,2.81918 -1.89851,3.90657 -0.33558,1.51183 -0.16196,4.05544 0.40128,5.879 0.91183,2.95218 3.54986,5.94019 5.95678,6.74705 0.43656,0.14634 0.82029,0.24592 0.85272,0.22129 0.0324,-0.0246 -0.0702,-0.51436 -0.22806,-1.08826 z m 31.77728,-1.49377 c 0.005,-0.10215 0.5453,-0.55435 1.20014,-1.0049 0.9733,-0.66964 1.19063,-0.96697 1.19063,-1.62889 0,-0.73159 -0.0638,-0.7937 -0.66146,-0.64371 -0.48438,0.12158 -0.66146,0.0602 -0.66146,-0.2291 0,-0.34726 -1.52345,-1.37855 -1.70743,-1.15583 -0.0389,0.0471 0.003,0.97863 0.0936,2.07003 0.15385,1.85763 0.18761,1.94312 0.52865,1.33837 0.20037,-0.3553 0.45674,-0.95061 0.56971,-1.32292 0.16382,-0.53985 0.20981,-0.56976 0.22716,-0.14774 0.012,0.29104 -0.24569,0.93601 -0.57257,1.43327 -1.47111,2.23789 -2.02143,3.67914 -0.86711,2.2709 0.35784,-0.43656 0.65491,-0.87733 0.66014,-0.97948 z m -1.60988,0.19703 c 0.40596,-1.3749 0.46449,-2.52893 0.19848,-3.91391 -0.15419,-0.80283 -0.3064,-0.99218 -0.79756,-0.99218 -1.26716,0 -1.61883,2.54922 -0.65936,4.77959 0.30896,0.7182 0.64016,1.30582 0.73599,1.30582 0.0958,0 0.33094,-0.53069 0.52245,-1.17932 z m -2.08444,-0.14298 c -0.14593,-0.27267 -0.73894,-0.83083 -1.3178,-1.24037 -0.57886,-0.40954 -1.05502,-0.87974 -1.05813,-1.04489 -0.003,-0.16514 0.43255,0.10111 0.96813,0.59168 1.03971,0.95234 1.36088,1.00716 0.90449,0.1544 -0.20644,-0.38575 -0.17953,-0.86361 0.10115,-1.79626 0.21034,-0.69888 0.32494,-1.32818 0.25468,-1.39844 -0.0703,-0.0703 -0.45285,-0.0141 -0.8502,0.12482 -0.51012,0.17833 -0.74704,0.46496 -0.80616,0.9753 -0.0663,0.57247 -0.22142,0.72273 -0.74601,0.72273 -0.99125,0 -0.74553,1.06894 0.36607,1.59243 0.81989,0.38613 1.76016,1.3885 1.524,1.62466 -0.0614,0.0614 0.12166,0.12916 0.40675,0.15064 0.428,0.0322 0.4721,-0.0474 0.25303,-0.4567 z m -1.17132,-2.82298 c -0.0931,-0.24262 -0.0463,-0.56409 0.10399,-0.71438 0.18795,-0.18795 0.27325,-0.0503 0.27325,0.44112 0,0.8162 -0.13216,0.91193 -0.37724,0.27326 z m 30.53773,2.95708 c 0.18005,-0.21695 0.27478,-0.75273 0.21051,-1.19062 -0.089,-0.60679 -0.0145,-0.79618 0.31358,-0.79618 0.59405,0 1.06542,-0.52676 1.06542,-1.19062 0,-0.71447 -0.48264,-1.19063 -1.20685,-1.19063 -0.46171,0 -0.54836,-0.12289 -0.44988,-0.63803 0.1407,-0.73605 -0.6931,-1.34366 -1.49471,-1.08924 -0.3631,0.11525 -0.5899,-0.0656 -0.89896,-0.71692 -0.73457,-1.54799 -0.96126,-2.29661 -0.73735,-2.43499 0.37024,-0.22882 1.19068,0.89743 1.20363,1.65229 0.0112,0.65128 0.0986,0.71072 1.00444,0.68317 0.77828,-0.0237 0.99218,0.0692 0.99218,0.43063 0,1.14223 1.89948,1.36214 2.24916,0.2604 0.10765,-0.33919 0.40038,-0.52856 0.81705,-0.52856 0.4436,0 0.74927,-0.21939 0.96485,-0.69254 0.27931,-0.61302 0.24327,-0.75106 -0.31387,-1.2022 -0.34617,-0.28031 -0.78837,-0.44865 -0.98267,-0.37409 -0.42199,0.16193 -0.42761,0.11758 -0.0958,-0.7552 0.22,-0.57866 0.16224,-0.73964 -0.39688,-1.10599 -0.60628,-0.39725 -0.70577,-0.39507 -1.35402,0.0297 -0.6405,0.41967 -0.71992,0.42224 -0.93919,0.0304 -0.13174,-0.23541 -0.535,-0.42801 -0.89614,-0.42801 -0.60812,0 -0.71983,0.13294 -1.05225,1.25231 -0.26766,0.90129 -1.65135,-0.85303 -1.74094,-2.20726 -0.0746,-1.12724 0.28145,-2.46329 1.0146,-3.80755 l 0.64935,-1.19063 -1.24553,1.34083 -1.24555,1.34082 0.0506,2.72212 c 0.0418,2.24748 -0.0285,2.8095 -0.40293,3.22324 -0.58472,0.6461 -0.90066,0.63626 -0.90066,-0.0281 0,-0.68163 -1.16932,-0.73029 -1.58971,-0.0661 -0.20989,0.33158 -0.33254,0.36914 -0.43207,0.1323 -0.1945,-0.46285 -1.02064,-0.41242 -1.43563,0.0876 -0.2723,0.32809 -0.27929,0.52712 -0.0324,0.92245 0.38389,0.6147 0.4036,0.86196 0.0513,0.64426 -0.1449,-0.0896 -0.40053,0.13801 -0.56807,0.50571 -0.36999,0.81204 0.12071,1.58719 0.87919,1.38884 0.33387,-0.0873 0.48151,0.02 0.48151,0.35017 0,0.98376 1.68105,0.95921 1.99474,-0.0291 0.0934,-0.29412 0.3239,-0.47561 0.51233,-0.4033 0.4383,0.16819 1.46168,-0.54048 1.46168,-1.01219 0,-0.19791 -0.14631,-0.4086 -0.32513,-0.4682 -0.23883,-0.0796 -0.20372,-0.29368 0.13229,-0.80649 0.25158,-0.38396 0.45742,-0.8809 0.45742,-1.1043 0,-0.82058 0.46958,-0.37338 0.78286,0.74556 0.47485,1.69599 0.30445,2.4174 -0.57453,2.43229 -0.82557,0.014 -0.87429,0.0504 -1.11466,0.83302 -0.13594,0.44259 -0.0196,0.68456 0.48933,1.01805 0.56875,0.37266 0.61338,0.49173 0.30129,0.80382 -0.46709,0.46709 -0.23722,1.36809 0.44175,1.73147 0.37267,0.19944 0.60822,0.19702 0.81361,-0.008 0.37812,-0.37811 0.71243,-0.36835 0.71243,0.0208 0,1.02264 1.7304,1.66495 2.37924,0.88315 z m -1.22017,-1.39148 c -0.0957,-0.40019 -0.27737,-0.92971 -0.40379,-1.17673 -0.20726,-0.40499 -0.29349,-0.38549 -0.87741,0.19844 -0.35616,0.35616 -0.78463,0.64756 -0.95216,0.64756 -0.16752,0 0.0652,-0.34543 0.51714,-0.76762 0.90993,-0.84999 1.16183,-2.07484 0.35872,-1.74422 -1.02858,0.42345 -1.52311,0.4266 -0.79376,0.005 0.48362,-0.27952 0.72761,-0.63951 0.72761,-1.07355 0,-0.62411 0.0211,-0.63252 0.47757,-0.18998 0.26267,0.25466 0.37819,0.53176 0.25673,0.61578 -0.3493,0.24161 0.83617,1.56703 1.40157,1.56703 0.28048,0 0.50996,0.11906 0.50996,0.26458 0,0.33956 -0.17082,0.33339 -0.85126,-0.0308 -0.45979,-0.24607 -0.52571,-0.22713 -0.395,0.1135 0.27297,0.71134 0.5179,2.29853 0.35471,2.29853 -0.0862,0 -0.23497,-0.32742 -0.33063,-0.7276 z m -6.36406,-3.94409 c 0.077,-0.81346 0.0544,-0.83231 -0.86372,-0.72261 -0.67759,0.081 -0.46708,-0.0473 0.74846,-0.45614 1.31747,-0.44308 1.5952,-0.6225 1.25677,-0.8119 -0.23894,-0.13372 -0.43081,-0.44556 -0.42639,-0.69299 0.007,-0.41525 0.0288,-0.41424 0.27773,0.0131 0.29288,0.50283 1.1708,0.62432 1.43402,0.19843 0.0899,-0.14552 0.28614,-0.26458 0.43601,-0.26458 0.14986,0 -0.0308,0.36041 -0.40144,0.80091 -0.4114,0.48892 -0.60918,0.96964 -0.50772,1.23403 0.1112,0.28979 0.0638,0.36981 -0.14335,0.24181 -0.17025,-0.10523 -0.30954,-0.36707 -0.30954,-0.58189 0,-0.70347 -1.02261,0.0934 -1.31312,1.02322 l -0.26674,0.85379 z m 6.26333,0.43005 c 0,-0.14095 0.17859,-0.25628 0.39687,-0.25628 0.21828,0 0.39688,0.0468 0.39688,0.10399 0,0.0572 -0.1786,0.17251 -0.39688,0.25628 -0.21828,0.0838 -0.39687,0.037 -0.39687,-0.10399 z m 2.3853,-1.77084 c -0.003,-0.67826 -0.16673,-0.93722 -0.7978,-1.26356 -0.66261,-0.34265 -0.79375,-0.34912 -0.79375,-0.0392 0,0.2042 -0.19809,0.53468 -0.4402,0.7344 -0.4018,0.33145 -0.4106,0.3076 -0.10087,-0.2735 0.30237,-0.5673 0.27107,-0.69225 -0.28741,-1.14744 -0.34471,-0.28095 -0.49382,-0.44376 -0.33136,-0.3618 0.30879,0.15578 0.98635,-0.48054 1.23671,-1.16143 0.0977,-0.26565 0.15284,-0.20521 0.16682,0.18282 0.0115,0.31884 -0.0982,0.65328 -0.24369,0.74322 -0.77137,0.47673 0.27046,1.08311 1.09903,0.63968 0.29234,-0.15646 0.69577,-0.66205 0.89652,-1.12353 0.28869,-0.66368 0.36715,-0.72208 0.37534,-0.27943 0.006,0.30779 -0.23641,0.87334 -0.53801,1.25677 l -0.54837,0.69714 h 0.54837 c 0.3016,0 0.54837,0.12609 0.54837,0.2802 0,0.1541 -0.13643,0.19588 -0.30317,0.0928 -0.2099,-0.12972 -0.25399,0.009 -0.14331,0.44961 0.0879,0.35033 0.0476,0.81458 -0.0897,1.03165 -0.18658,0.29512 -0.25054,0.17948 -0.25357,-0.45843 z m -9.66281,-0.60373 c -0.70736,-0.78161 -0.32868,-0.90454 0.39932,-0.12962 0.34123,0.36323 0.49906,0.66041 0.35073,0.66041 -0.14833,0 -0.48586,-0.23885 -0.75005,-0.53079 z m 10.98167,-0.52754 c 0.52126,-0.33686 1.13424,-0.33686 0.92604,0 -0.0899,0.14552 -0.42438,0.26276 -0.74322,0.26053 -0.47128,-0.003 -0.50547,-0.052 -0.18282,-0.26053 z m -56.99824,7.0281 c 0.11834,-0.47153 0.29349,-0.55993 0.92557,-0.46717 0.96518,0.14166 1.63917,-0.36521 1.41689,-1.06555 -0.11114,-0.35017 0.0142,-0.6398 0.3909,-0.90369 0.98816,-0.69214 0.54419,-1.94586 -0.68908,-1.94586 -0.69791,0 -0.71697,-0.11147 -0.30798,-1.80106 0.29776,-1.23012 0.75777,-2.08093 0.75777,-1.40155 0,0.18854 0.24925,0.69283 0.55388,1.12064 0.30462,0.42781 0.48364,0.96083 0.39782,1.18449 -0.27673,0.72114 0.33788,1.49239 1.04737,1.31431 0.47058,-0.1181 0.59668,-0.065 0.49221,0.20725 -0.15656,0.40799 0.5423,1.22801 1.04658,1.22801 0.48294,0 0.96006,-0.56633 0.96006,-1.13956 0,-0.35951 0.12509,-0.45656 0.43514,-0.33758 0.54624,0.20961 1.41694,-0.54897 1.41694,-1.23447 0,-0.29042 -0.22956,-0.57297 -0.52916,-0.65131 -0.61984,-0.1621 -0.62722,-0.19143 -0.21436,-0.85252 0.24689,-0.39533 0.2399,-0.59436 -0.0324,-0.92245 -0.43949,-0.52956 -1.30993,-0.54195 -1.50964,-0.0215 -0.21313,0.5554 -0.53769,0.49419 -0.70152,-0.13229 -0.15482,-0.59203 -1.09345,-0.72298 -1.42247,-0.19844 -0.1141,0.1819 -0.17139,0.54961 -0.12731,0.81712 0.12457,0.75614 -0.81935,0.43384 -1.22829,-0.4194 -0.28477,-0.59415 -0.28254,-1.09036 0.0127,-2.83344 0.3422,-2.01997 0.23533,-2.92209 -0.34616,-2.92209 -0.13829,0 -0.25144,0.36193 -0.25144,0.80429 0,0.44236 -0.23653,1.26793 -0.52562,1.8346 -0.80999,1.5877 -2.28064,2.39739 -1.93185,1.0636 0.30334,-1.15999 -0.91831,-1.55625 -1.72016,-0.55795 -0.29517,0.36748 -0.37335,0.37271 -0.57973,0.0388 -0.18629,-0.30142 -0.4014,-0.32714 -0.98175,-0.11739 -0.5947,0.21494 -0.73264,0.4155 -0.69046,1.00386 0.0444,0.61886 -0.009,0.68422 -0.33569,0.41289 -0.31139,-0.25844 -0.49236,-0.22829 -0.91262,0.15204 -0.86747,0.78505 -0.51821,1.97988 0.57875,1.97988 0.309,0 0.41577,0.13595 0.31435,0.40025 -0.3874,1.00955 1.46477,1.64912 2.05213,0.70862 0.20203,-0.3235 0.52921,-0.44483 1.00948,-0.37434 0.92347,0.13553 1.56432,-0.54462 1.07203,-1.1378 -0.18407,-0.22179 -0.28795,-0.43924 -0.23083,-0.48322 0.0571,-0.044 0.55033,-0.34846 1.09604,-0.67664 1.14966,-0.6914 1.22818,-0.498 0.52717,1.29855 -0.83103,2.12977 -0.97597,2.2845 -1.75137,1.86952 -0.86914,-0.46515 -1.48778,-0.0188 -1.48778,1.07329 0,0.50514 -0.13547,0.76136 -0.40255,0.76136 -0.61391,0 -1.08101,1.20742 -0.66229,1.71195 0.18474,0.22259 0.50216,0.40471 0.7054,0.40471 0.24829,0 0.3236,0.19531 0.22955,0.59532 -0.15694,0.66752 0.0686,1.11454 0.65905,1.30632 0.67467,0.21913 1.32189,-0.0856 1.47468,-0.69437 z m -1.21009,-0.29177 c 0,-0.0785 0.23425,-0.602 0.52056,-1.16322 l 0.52056,-1.02038 -0.92396,0.28357 c -0.68408,0.20995 -1.00469,0.20284 -1.23494,-0.0274 -0.23824,-0.23824 -0.0958,-0.31097 0.60911,-0.31097 1.02207,0 2.09617,-0.61778 2.09617,-1.20563 0,-0.24791 -0.27845,-0.38187 -0.79375,-0.38187 -0.43657,0 -0.79375,-0.0984 -0.79375,-0.21876 0,-0.12032 0.34309,-0.16841 0.76241,-0.10686 0.41933,0.0615 0.84308,-0.0186 0.94166,-0.17812 0.25771,-0.41698 0.67718,-0.35717 0.67718,0.0966 0,0.21262 0.26057,0.62934 0.57905,0.92605 0.31849,0.29671 0.45213,0.53947 0.29699,0.53947 -0.15515,0 -0.42921,-0.17728 -0.60904,-0.39396 -0.74007,-0.89174 -1.13125,0.64355 -0.40771,1.60016 0.64963,0.85889 0.43097,1.09745 -0.2464,0.26884 l -0.63267,-0.77392 -0.47857,1.10465 c -0.4061,0.93738 -0.8829,1.45679 -0.8829,0.96181 z m 7.18609,-3.51258 c -0.0499,-0.72229 -0.49955,-1.63625 -0.80497,-1.63625 -0.11816,0 -0.34404,0.26789 -0.50195,0.59531 -0.27484,0.56988 -0.28787,0.56084 -0.30502,-0.21166 -0.01,-0.44384 -0.16673,-0.96738 -0.34863,-1.16342 -0.26969,-0.29066 -0.24707,-0.32706 0.12256,-0.19725 0.29813,0.1047 0.63775,-0.0753 0.99218,-0.52591 0.62148,-0.79007 0.73681,-0.48486 0.13919,0.36836 -0.25575,0.36514 -0.30255,0.63072 -0.12992,0.7374 0.46911,0.28993 1.31134,-0.14221 1.71074,-0.87777 0.27885,-0.51356 0.38813,-0.58159 0.3958,-0.24641 0.006,0.25466 -0.22572,0.69933 -0.51454,0.98815 -0.5238,0.5238 -0.52329,0.52555 0.19843,0.68461 1.23653,0.27251 1.28531,0.33528 0.27732,0.35687 -0.89684,0.0192 -0.98402,0.0902 -1.08213,0.88078 -0.069,0.55611 -0.12167,0.64344 -0.14906,0.24719 z m -9.29217,-2.70186 c -0.006,-0.22228 0.18803,-0.68772 0.43079,-1.03431 l 0.44139,-0.63016 -1.43357,0.15507 c -1.0396,0.11246 -1.26023,0.0864 -0.80281,-0.0948 0.34691,-0.13741 1.32198,-0.26888 2.16681,-0.29217 l 1.53605,-0.0423 -0.11889,-0.81297 -0.11889,-0.81298 0.28923,0.72761 c 0.15908,0.40018 0.47529,0.7276 0.70269,0.7276 0.29738,0 0.21763,0.1815 -0.28408,0.64646 -0.46576,0.43166 -0.63949,0.79774 -0.52284,1.10174 0.12383,0.3227 0.0783,0.39571 -0.15628,0.25071 -0.19766,-0.12216 -0.26703,-0.45937 -0.17221,-0.83715 0.0873,-0.34793 0.0891,-0.63259 0.004,-0.63259 -0.441,0 -1.21361,0.62589 -1.55959,1.26342 -0.22246,0.40994 -0.39581,0.5466 -0.40183,0.3168 z m 0.51858,-2.63856 c -0.1691,-0.31596 -0.24793,-0.63402 -0.17517,-0.70678 0.0728,-0.0728 0.27065,0.12623 0.43975,0.4422 0.1691,0.31597 0.24793,0.63402 0.17517,0.70678 -0.0728,0.0728 -0.27065,-0.12623 -0.43975,-0.4422 z m 21.11422,3.111 c -0.0467,-0.47352 0.0574,-0.85709 0.25088,-0.92401 0.21588,-0.0747 0.33073,0.15763 0.33073,0.66898 0,0.43088 0.18147,0.93401 0.40327,1.11809 0.44101,0.366 0.4444,0.36444 0.87258,-0.40218 0.16256,-0.29104 0.29918,-0.38034 0.30361,-0.19844 0.01,0.40035 0.70271,0.44051 0.94125,0.0546 0.0939,-0.1519 0.0268,-0.44956 -0.14908,-0.66146 -0.18264,-0.22008 -0.2063,-0.38529 -0.0552,-0.38529 0.14552,0 0.41249,0.17822 0.59326,0.39604 1.31182,1.58065 8.74189,1.52978 9.98599,-0.0684 0.18039,-0.23174 0.41852,-0.32443 0.52916,-0.20599 0.11065,0.11844 0.0523,0.26849 -0.12956,0.33346 -0.50048,0.17874 -0.39595,0.86726 0.1323,0.87138 0.25466,0.002 0.73091,0.0754 1.05833,0.16315 0.52414,0.14047 0.59531,0.061 0.59531,-0.66507 0,-0.93033 0.44708,-1.12896 0.57691,-0.25632 0.10113,0.67976 1.0156,1.32384 1.19256,0.83995 0.0737,-0.20147 0.45019,-0.25699 1.06564,-0.15711 l 0.95171,0.15444 -0.15363,-0.94673 c -0.11086,-0.68312 -0.0487,-0.987 0.22325,-1.09135 0.67522,-0.25911 0.4158,-0.96043 -0.41685,-1.12697 -0.43657,-0.0873 -0.79375,-0.23682 -0.79375,-0.33225 0,-0.0954 0.35718,-0.30833 0.79375,-0.47311 0.70903,-0.26763 1.14197,-1.13932 0.56585,-1.13932 -0.12534,0 -0.16852,-0.3106 -0.096,-0.69022 0.12139,-0.63498 0.0867,-0.666 -0.43356,-0.38757 -0.32235,0.17252 -0.56551,0.19437 -0.56551,0.0508 0,-0.13851 0.13321,-0.29625 0.29603,-0.35052 0.68011,-0.2267 0.8438,-5.64482 0.23415,-7.75063 -0.21064,-0.7276 -0.35099,-1.47334 -0.31188,-1.65718 0.0391,-0.18385 -0.11307,-0.40495 -0.33818,-0.49133 -0.69283,-0.26586 -0.45211,-0.65044 0.29046,-0.46407 0.64645,0.16225 0.6868,0.12399 0.52963,-0.50223 -0.10567,-0.42102 -0.0523,-0.71713 0.14084,-0.78151 0.5688,-0.1896 -0.0665,-0.73389 -0.85667,-0.73389 -1.00652,0 -0.99823,-0.40067 0.0156,-0.7541 0.74153,-0.2585 1.11113,-0.8334 0.53578,-0.8334 -0.14836,0 -0.187,-0.35482 -0.0909,-0.83509 0.16323,-0.81612 0.14848,-0.83138 -0.64947,-0.67179 -0.50942,0.10188 -0.85423,0.0501 -0.91685,-0.1378 -0.18702,-0.56106 -0.73059,0.0837 -0.73059,0.86655 0,0.42797 -0.11906,0.77813 -0.26458,0.77813 -0.14552,0 -0.26459,-0.40969 -0.26459,-0.91042 0,-1.05957 -0.32702,-1.37059 -0.87009,-0.82752 -0.21793,0.21793 -0.62708,0.31992 -0.94737,0.23616 -0.63257,-0.16542 -0.78018,0.38581 -0.24629,0.9197 0.17639,0.17639 0.19991,0.3175 0.0529,0.3175 -0.14552,0 -0.38643,-0.12185 -0.53536,-0.27078 -0.14893,-0.14892 -0.50016,-0.31948 -0.78052,-0.37902 -0.28036,-0.0595 -1.10506,-0.29359 -1.83266,-0.52011 -2.33039,-0.72552 -6.32887,-0.32359 -7.52192,0.7561 -0.63097,0.57103 -0.88229,0.51846 -0.49399,-0.10332 0.3821,-0.61183 0.11242,-1.0086 -0.39774,-0.5852 -0.25722,0.21346 -0.43699,0.21565 -0.6448,0.008 -0.41766,-0.41766 -0.86342,-0.0381 -0.86342,0.73529 0,0.92478 -0.5839,0.661 -0.85531,-0.38639 -0.2221,-0.85713 -0.55949,-1.0708 -0.87773,-0.55588 -0.0972,0.15731 -0.43266,0.2218 -0.74542,0.1433 -0.90408,-0.22691 -1.32622,0.19261 -1.13846,1.1314 0.127,0.63501 0.0715,0.82053 -0.24555,0.82053 -0.74579,0 -0.27534,0.91448 0.54341,1.05629 1.01493,0.17581 1.02222,0.63988 0.0118,0.75001 -1.1153,0.12154 -1.44284,0.52206 -0.80933,0.98964 0.28248,0.20848 0.37177,0.37906 0.19844,0.37906 -0.17333,0 -0.31515,0.23813 -0.31515,0.52917 0,0.59788 0.27417,0.67832 0.73642,0.21607 0.52067,-0.52066 0.5846,-0.12564 0.17301,1.06902 -0.9297,2.69846 -0.62828,7.47176 0.55433,8.77853 0.53244,0.58833 0.53491,1.23533 0.003,0.79391 -0.54657,-0.45362 -1.01006,-0.0697 -0.82173,0.68071 0.0896,0.35709 0.0413,0.63259 -0.11087,0.63259 -0.14829,0 -0.26962,0.17859 -0.26962,0.39687 0,0.27894 0.28173,0.39688 0.94809,0.39688 1.00729,0 1.18196,0.58837 0.22061,0.7431 -1.16944,0.18821 -1.33355,0.32906 -0.82214,0.7056 0.30206,0.22241 0.37532,0.41657 0.19844,0.52589 -0.43236,0.26721 -0.33184,1.12406 0.15373,1.31039 0.23878,0.0916 0.64548,0.0995 0.90378,0.0175 0.25829,-0.082 0.5474,-0.0232 0.64246,0.1306 0.31232,0.50534 0.69446,-0.0254 0.613,-0.8513 z m -1.53506,-0.29943 c 0,-0.0544 0.47716,-0.61992 1.06036,-1.25677 0.58319,-0.63686 1.12481,-1.3594 1.2036,-1.60565 0.0788,-0.24624 -0.17256,-0.94798 -0.55853,-1.55941 -2.15321,-3.4109 -2.24819,-8.09262 -0.22461,-11.07059 0.34972,-0.51466 0.63585,-1.15325 0.63585,-1.4191 0,-0.26585 0.11906,-0.40978 0.26458,-0.31984 0.14553,0.0899 0.26459,0.0247 0.26459,-0.14498 0,-0.16968 -0.15852,-0.24768 -0.35226,-0.17334 -0.31809,0.12207 -2.55816,-2.15975 -2.55816,-2.60584 0,-0.0991 0.48264,0.25592 1.07254,0.78885 1.8257,1.64942 2.08661,1.68676 4.16261,0.59586 2.49812,-1.31272 5.2175,-1.56533 7.7188,-0.71699 0.94004,0.31882 2.02998,0.80812 2.4221,1.08733 1.2128,0.86359 1.86789,0.62037 4.15572,-1.54287 0.19238,-0.1819 0.41808,-0.33073 0.50155,-0.33073 0.0835,0 -0.46081,0.64772 -1.20952,1.43937 -1.33379,1.41029 -1.63188,2.06634 -1.09079,2.40075 0.53285,0.32933 1.80362,3.22274 2.11864,4.82397 0.40414,2.05423 -0.01,4.54086 -1.10082,6.6152 l -0.75071,1.42712 0.49679,0.97336 c 0.27323,0.53535 0.74758,1.20017 1.0541,1.47739 1.05845,0.95723 0.55407,0.98962 -0.56006,0.036 -1.50919,-1.29181 -2.05336,-1.38652 -3.28707,-0.57212 -3.17044,2.09288 -7.0546,2.15698 -10.56757,0.17439 -0.8071,-0.4555 -1.66787,-0.76247 -1.91282,-0.68214 -0.24495,0.0803 -0.95655,0.6216 -1.58134,1.20285 -1.05547,0.98191 -1.37757,1.2059 -1.37757,0.95796 z m 17.98762,-2.21625 c -0.009,-0.45853 -0.48895,-0.91348 -0.77595,-0.7361 -0.21968,0.13576 -0.17048,0.29736 0.16886,0.55464 0.56487,0.42828 0.61242,0.44249 0.60709,0.18146 z m -14.81262,-0.47572 c 0,-0.31257 -0.50025,-0.31198 -0.62026,8e-4 -0.0977,0.25473 -0.0189,0.33289 0.23687,0.23475 0.21087,-0.081 0.38339,-0.18694 0.38339,-0.23555 z m 11.11251,0.0127 c 0.18115,-0.21828 0.64817,-0.39687 1.03781,-0.39687 0.38964,0 0.85131,-0.14288 1.02594,-0.3175 0.17462,-0.17463 0.3175,-0.6363 0.3175,-1.02594 0,-0.38964 0.17859,-0.85665 0.39687,-1.03781 0.54633,-0.45342 0.49717,-1.24223 -0.10983,-1.76195 -0.40477,-0.34657 -0.44705,-0.52936 -0.21018,-0.90865 0.41761,-0.66869 -0.47274,-1.65355 -1.30584,-1.44446 -0.32488,0.0815 -0.66884,0.0218 -0.76437,-0.1328 -0.10213,-0.16524 -0.5033,-0.20865 -0.97361,-0.10535 -0.60971,0.13392 -0.77013,0.0904 -0.67466,-0.18295 0.071,-0.20336 0.41512,-0.32772 0.79477,-0.28723 0.40336,0.043 0.73019,-0.0867 0.82213,-0.32627 0.088,-0.22926 0.32634,-0.331 0.56286,-0.24024 0.61291,0.2352 1.25665,-0.42291 1.08453,-1.10871 -0.10864,-0.43284 -0.0103,-0.62044 0.37853,-0.72212 0.79021,-0.20664 0.97638,-0.98637 0.35555,-1.48909 -0.40575,-0.32855 -0.48073,-0.59178 -0.32957,-1.15698 0.16091,-0.60164 0.0817,-0.80632 -0.44539,-1.15171 -0.3637,-0.23831 -0.8942,-0.35385 -1.22615,-0.26705 -0.34809,0.091 -0.76892,-0.0134 -1.03891,-0.25769 -0.53297,-0.48234 -1.55007,-0.2631 -1.55007,0.33412 0,0.27957 -0.16016,0.34604 -0.54186,0.22489 -0.6966,-0.2211 -1.31022,0.29161 -1.31022,1.09475 0,0.34599 -0.11906,0.62906 -0.26458,0.62906 -0.14553,0 -0.26459,0.35719 -0.26459,0.79375 0,0.43657 -0.11906,0.79375 -0.26458,0.79375 -0.25325,0 -0.39785,-1.09353 -0.30137,-2.27908 0.0576,-0.70767 -0.59586,-1.26435 -1.27552,-1.08661 -0.35221,0.0921 -0.57167,-0.0222 -0.6764,-0.35212 -0.30322,-0.95534 -1.81046,-0.93748 -2.11597,0.0251 -0.20607,0.64929 0.30014,2.4863 0.79928,2.90056 0.32848,0.27261 0.39498,0.23615 0.39498,-0.21654 0,-0.64419 0.49248,-2.02659 0.66169,-1.85738 0.0647,0.0647 -1.2e-4,0.54449 -0.14415,1.0661 -0.17293,0.62632 -0.17272,1.18283 5.3e-4,1.63877 0.30471,0.80145 0.80475,0.91983 0.80475,0.19053 0,-0.27492 0.23417,-0.78093 0.52037,-1.12448 0.59956,-0.71969 0.71592,-0.35298 0.13268,0.41813 -0.21366,0.28248 -0.38846,0.80123 -0.38846,1.15279 0,0.51424 0.0905,0.59718 0.46302,0.42429 0.25466,-0.11819 0.92374,-0.20149 1.48685,-0.1851 l 1.02384,0.0298 -0.1289,-1.23227 c -0.12603,-1.20491 -0.12117,-1.21464 0.21876,-0.43851 0.19121,0.43656 0.28647,1.00211 0.21171,1.25677 -0.16836,0.57342 0.001,0.5882 0.54227,0.0472 0.22868,-0.22867 0.41578,-0.70492 0.41578,-1.05833 0,-0.35341 0.13295,-0.64256 0.29544,-0.64256 0.16951,0 0.23374,0.23593 0.15069,0.55352 -0.13802,0.52779 -0.12142,0.53242 0.35693,0.0995 0.27593,-0.24971 0.61208,-0.94527 0.74702,-1.54571 0.20594,-0.91642 0.24988,-0.96999 0.27367,-0.33366 l 0.0283,0.75803 0.72761,-0.46546 0.7276,-0.46546 -0.59887,0.65432 -0.59888,0.65431 0.86346,-0.076 c 0.4749,-0.0418 0.62533,-0.01 0.33429,0.0714 -0.98299,0.2738 -2.20728,0.92785 -2.3286,1.24402 -0.084,0.21878 0.1911,0.28449 0.90557,0.21636 0.56439,-0.0538 1.02616,0.01 1.02616,0.14138 0,0.13159 -0.39113,0.19359 -0.86918,0.13778 -0.59949,-0.07 -1.07154,0.0669 -1.52136,0.4412 -0.60546,0.5038 -0.61427,0.54359 -0.12301,0.55552 0.91031,0.0221 1.29739,0.44573 0.40729,0.44573 -0.44229,0 -0.84456,0.0496 -0.89393,0.11024 -0.0494,0.0606 -0.0356,0.63008 0.0307,1.26544 l 0.12049,1.1552 1.09376,-0.13252 1.09376,-0.13251 -0.89469,0.38134 c -0.49208,0.20973 -1.06038,0.31775 -1.26289,0.24004 -0.28808,-0.11055 -0.30936,-0.0313 -0.0978,0.364 0.36261,0.67755 1.13157,0.88742 2.61222,0.71294 0.86141,-0.1015 1.03218,-0.0776 0.56918,0.0798 -0.3638,0.12364 -1.07487,0.23668 -1.58015,0.25118 l -0.91869,0.0264 0.59078,0.59079 c 0.32493,0.32493 1.036,0.73891 1.58015,0.91995 0.75333,0.25065 0.81404,0.30749 0.25446,0.23826 -0.73441,-0.0909 -0.7346,-0.0904 -0.28452,0.6014 0.41385,0.63614 0.41444,0.66285 0.007,0.32918 -0.39519,-0.32387 -0.44637,-0.28097 -0.47351,0.39688 -0.0263,0.65595 -0.0572,0.62136 -0.22626,-0.25266 -0.10771,-0.55697 -0.42144,-1.23774 -0.69718,-1.51284 -0.49181,-0.49066 -0.5019,-0.48487 -0.53051,0.30478 -0.0269,0.74245 -0.89687,2.06843 -0.89687,1.36699 0,-0.16812 0.11906,-0.37925 0.26458,-0.46919 0.36414,-0.22505 0.33403,-2.07368 -0.0399,-2.44758 -0.22955,-0.22956 -0.40856,-0.1 -0.7276,0.52664 -0.23273,0.4571 -0.58644,0.8827 -0.78602,0.94576 -0.21963,0.0694 -0.12723,-0.20405 0.23408,-0.69275 0.33234,-0.44951 0.52619,-0.9918 0.43732,-1.22338 -0.0878,-0.22879 -0.0245,-0.41598 0.14075,-0.41598 0.16521,0 0.23574,-0.0646 0.15675,-0.14363 -0.079,-0.079 -0.54533,0.048 -1.03629,0.28211 -0.75371,0.35947 -0.88721,0.55686 -0.85769,1.26811 0.0192,0.4633 0.0599,0.96143 0.0905,1.10695 0.0305,0.14552 0.0743,0.62177 0.0973,1.05834 0.0377,0.71527 0.13091,0.79516 0.94287,0.80808 0.67875,0.0108 0.95406,0.15767 1.11595,0.59532 0.25267,0.68303 1.31609,0.79063 1.81947,0.1841 z m -1.89852,-12.65391 c -0.0984,-0.48282 -0.0616,-0.65679 0.1041,-0.49113 0.1411,0.1411 0.2097,0.47755 0.15244,0.74767 -0.0771,0.36375 -0.14364,0.29722 -0.25654,-0.25654 z m -5.24524,12.25703 c 0.29105,-0.29104 0.74348,-0.52917 1.00542,-0.52917 0.64747,0 1.11125,-0.51247 1.11125,-1.22792 0,-0.32611 0.10729,-0.65924 0.23841,-0.74028 0.13113,-0.081 0.22659,-0.56431 0.21215,-1.07394 -0.0222,-0.78311 -0.12058,-0.92661 -0.63529,-0.92661 -0.66464,0 -0.78812,0.49388 -0.33513,1.34031 0.15759,0.29446 0.16961,0.51178 0.0283,0.51178 -0.30152,0 -0.5638,-0.64283 -0.57558,-1.41071 -0.009,-0.56315 -0.0188,-0.56166 -0.5535,0.081 -0.4312,0.51826 -0.51127,0.87659 -0.38431,1.71979 0.11356,0.75424 0.0832,0.94929 -0.10392,0.66825 -0.14536,-0.21828 -0.26611,-0.75076 -0.26834,-1.18327 l -0.004,-0.7864 -0.58178,0.58177 c -0.40696,0.40697 -0.57337,0.87856 -0.55378,1.56942 0.0205,0.72372 -0.0365,0.87248 -0.21317,0.55671 -0.13264,-0.23702 -0.26582,-0.72891 -0.29596,-1.09309 -0.0417,-0.50334 -0.15242,-0.61162 -0.46183,-0.45147 -0.22386,0.11588 -0.64515,0.11495 -0.93619,-0.002 -0.43898,-0.17649 -0.38761,-0.21591 0.30142,-0.23134 0.45682,-0.0102 1.10333,-0.23945 1.43668,-0.50939 l 0.6061,-0.49078 -0.97366,-0.18266 c -0.53551,-0.10041 -0.97366,-0.28796 -0.97366,-0.41673 0,-0.13356 0.36676,-0.12894 0.85383,0.0107 0.98708,0.28309 1.67975,0.12776 1.89155,-0.42418 0.0959,-0.24994 -0.018,-0.3868 -0.32187,-0.3868 -0.25866,0 -0.70141,-0.18832 -0.98388,-0.41848 -0.50625,-0.41249 -0.50603,-0.41569 0.0156,-0.22418 0.29105,0.10686 0.82102,0.20588 1.17772,0.22004 0.61108,0.0243 0.65147,-0.0627 0.69913,-1.50518 0.034,-1.02912 -0.0729,-1.65447 -0.32632,-1.90784 -0.45911,-0.45911 -1.97474,-0.76932 -2.8972,-0.59298 -0.44445,0.085 -0.5882,0.04 -0.41752,-0.13073 0.14317,-0.14317 0.79191,-0.21768 1.44165,-0.16558 1.84208,0.1477 1.37516,-0.38738 -1.39725,-1.60125 -0.59601,-0.26095 -0.56983,-0.27319 0.26459,-0.12365 0.90385,0.16197 0.91494,0.15356 0.46302,-0.35097 -0.63599,-0.71001 -0.58501,-1.06453 0.0681,-0.47349 0.52374,0.47398 0.52867,0.46813 0.35527,-0.42201 -0.26971,-1.38458 -0.82306,-1.62743 -1.70305,-0.74744 -0.38889,0.38889 -0.50429,0.74257 -0.39038,1.19644 0.11143,0.44398 0.0363,0.69247 -0.24165,0.79913 -0.62376,0.23935 -0.5114,1.60924 0.16153,1.96938 0.41702,0.22318 0.47691,0.35672 0.22878,0.51008 -0.21058,0.13014 -0.27296,0.45949 -0.16699,0.88168 0.15499,0.61753 0.32409,0.68921 2.02018,0.85634 1.01807,0.10032 1.85104,0.26949 1.85104,0.37594 0,0.10645 -0.60792,0.26554 -1.35093,0.35354 -1.62561,0.19253 -2.17723,0.5831 -1.97296,1.39697 0.11873,0.47308 0.0265,0.614 -0.44601,0.6811 -0.45673,0.0649 -0.61507,0.28523 -0.67864,0.94449 -0.0611,0.63343 0.0243,0.8599 0.32412,0.8599 0.30788,0 0.3697,0.18662 0.25378,0.76619 -0.2054,1.02703 0.70874,2.00013 1.65569,1.76246 0.41462,-0.10407 0.796,-0.0166 1.0543,0.24165 0.53321,0.53321 0.78998,0.51079 1.42523,-0.12447 z m -3.175,-1.25927 c 0,-0.11052 0.2679,-0.36551 0.59532,-0.56665 0.5932,-0.36441 0.59352,-0.36369 0.0913,0.20094 -0.53924,0.60624 -0.6866,0.68472 -0.6866,0.36571 z m 1.2195,-6.68065 c 0.15476,-0.15476 0.74736,-0.33285 1.31688,-0.39576 0.56953,-0.0629 0.79737,-0.0517 0.50633,0.025 -0.29104,0.0766 -0.88363,0.25473 -1.31687,0.39576 -0.55649,0.18116 -0.70512,0.17384 -0.50634,-0.0249 z m 2.61696,3.17742 c 0.26339,-0.29104 0.41936,-0.52917 0.3466,-0.52917 -0.0728,0 -0.34779,0.23813 -0.61118,0.52917 -0.26339,0.29104 -0.41936,0.52917 -0.3466,0.52917 0.0728,0 0.34779,-0.23813 0.61118,-0.52917 z m 3.44067,-0.59531 c 1.40864,-1.21174 0.50777,-3.63802 -1.35078,-3.63802 -0.92893,0 -1.9576,1.11225 -1.9576,2.11666 0,1.00442 1.02867,2.11667 1.9576,2.11667 0.3623,0 0.97015,-0.26789 1.35078,-0.59531 z m 5.81975,-8.92969 c 0.0899,-0.14552 0.0374,-0.26458 -0.11668,-0.26458 -0.1541,0 -0.28019,0.11906 -0.28019,0.26458 0,0.14552 0.0525,0.26458 0.11667,0.26458 0.0642,0 0.19026,-0.11906 0.2802,-0.26458 z m 32.9448,11.7352 c 0.33861,-3.14349 0.19254,-9.82014 -0.24881,-11.37268 l -0.21588,-0.7594 -0.18971,0.79375 c -0.71879,3.00743 -1.28323,4.24597 -2.90185,6.36755 -0.16346,0.21425 0.0309,0.75039 0.58486,1.61373 1.07373,1.67326 2.17347,4.60732 2.17347,5.79871 0,1.97796 0.4801,0.50884 0.79792,-2.44166 z m -79.00392,0.70022 c 0.22264,-0.80037 0.85645,-2.22724 1.40847,-3.17083 l 1.00366,-1.71561 -0.97295,-1.45939 c -0.97235,-1.45848 -2.07902,-4.27304 -2.07902,-5.28749 0,-0.88956 -0.4576,-0.60506 -0.64652,0.40195 -0.27352,1.45798 -0.11821,10.66649 0.20659,12.24912 0.31859,1.55236 0.38127,1.49327 1.07977,-1.01775 z m 21.81903,0.69847 c 0.16991,-0.20474 0.58307,-0.3055 0.95844,-0.23374 0.97568,0.18651 0.83588,-0.31248 -0.66314,-2.36699 -0.72761,-0.99724 -1.32292,-1.89091 -1.32292,-1.98594 0,-0.3249 1.31349,1.06042 1.46849,1.5488 0.0851,0.26802 0.30613,0.48731 0.49125,0.48731 0.18511,0 0.46712,0.28652 0.62668,0.63672 0.17497,0.38402 0.60928,0.70681 1.09435,0.81335 1.0166,0.22329 1.42903,-0.007 1.10287,-0.61682 -0.19541,-0.36514 -0.0887,-0.52671 0.52845,-0.79987 0.60905,-0.26959 0.77333,-0.51248 0.77333,-1.14333 0,-0.78754 -0.0167,-0.7974 -0.99219,-0.58554 -0.5457,0.11851 -1.36813,0.21259 -1.82761,0.20905 l -0.83543,-0.006 0.61258,0.48185 c 0.33691,0.26502 0.73559,0.48185 0.88595,0.48185 0.15036,0 0.34697,0.11907 0.43691,0.26459 0.3263,0.52796 -0.34095,0.24045 -2.19525,-0.94591 -1.04061,-0.66578 -2.00596,-1.14009 -2.14521,-1.05402 -0.13925,0.0861 -0.32797,0.0355 -0.41938,-0.11242 -0.0914,-0.1479 -0.26657,-0.2689 -0.38927,-0.2689 -0.12269,0 0.0577,0.56555 0.40078,1.25677 0.34312,0.69122 0.69029,1.79255 0.77148,2.4474 0.13696,1.10453 0.11217,1.07236 -0.34277,-0.44477 -0.56479,-1.88349 -1.26386,-3.07394 -1.71652,-2.92305 -0.3506,0.11687 -0.48367,1.7259 -0.1593,1.92637 0.1141,0.0705 0.1402,0.54276 0.058,1.04942 -0.12832,0.79076 -0.0757,0.92119 0.37183,0.92119 0.29931,0 0.64966,0.28169 0.82269,0.66146 0.32913,0.72237 1.13071,0.873 1.60493,0.3016 z m 34.04082,-0.18734 c 0.0961,-0.15545 0.35631,-0.21292 0.57832,-0.12773 0.57062,0.21897 1.13033,-0.3305 1.13033,-1.10966 0,-0.53083 0.0718,-0.6019 0.36333,-0.35991 0.19984,0.16585 0.55703,0.22722 0.79375,0.13638 0.23776,-0.0912 0.43042,-0.0341 0.43042,0.12773 0,0.66581 0.78332,0.227 1.08524,-0.60795 0.22643,-0.62617 0.44656,-0.85448 0.72199,-0.74879 0.24748,0.095 0.32819,0.042 0.21498,-0.14123 -0.0997,-0.1613 -0.0163,-0.3899 0.18533,-0.50798 0.20163,-0.11809 0.55001,-0.57189 0.77418,-1.00845 0.22417,-0.43656 0.69297,-1.06024 1.04177,-1.38594 1.36792,-1.27736 5.04015,-1.78423 7.06289,-0.97489 0.80215,0.32095 1.16989,0.34935 1.59285,0.12298 0.30247,-0.16187 0.54993,-0.39301 0.54993,-0.51364 0,-0.31271 -1.96337,-0.99982 -3.92086,-1.37215 -1.95875,-0.37258 -4.26745,0.007 -5.17319,0.85107 -0.29957,0.27908 -0.70391,0.44631 -0.89854,0.37163 -0.19464,-0.0747 -0.63902,0.051 -0.98753,0.27938 -0.34851,0.22835 -0.72176,0.40233 -0.82945,0.38661 -0.10769,-0.0157 -0.2241,0.16422 -0.25868,0.39984 -0.0346,0.23561 -0.15031,0.50678 -0.25717,0.60258 -0.10687,0.0958 -0.11954,-0.0342 -0.0282,-0.28883 0.22752,-0.63408 -0.26539,-0.58559 -0.6724,0.0661 -0.18176,0.29104 -0.57741,0.52917 -0.87922,0.52917 -0.62338,0 -4.35105,3.77129 -4.35105,4.40197 0,0.21547 0.10553,0.32654 0.23451,0.24682 0.12897,-0.0797 0.29642,0.0919 0.3721,0.38127 0.14701,0.56218 0.83527,0.71128 1.12433,0.24357 z m 0.1528,-1.83537 c 0.77632,-1.48942 1.16415,-1.6187 0.45072,-0.15025 -0.3233,0.66545 -0.68125,1.2099 -0.79543,1.2099 -0.11419,0 0.0409,-0.47684 0.34471,-1.05965 z m 3.8439,-0.79243 c 0.30352,-1.64713 2.47445,-5.41803 2.47445,-4.29813 0,0.14552 -0.18788,0.42051 -0.41752,0.61109 -0.53447,0.44357 -1.6979,2.73021 -1.7032,3.34752 -0.002,0.25949 -0.12113,0.65041 -0.26422,0.86869 -0.18295,0.2791 -0.20952,0.12206 -0.0895,-0.52917 z m -2.64832,-1.19063 c 0.0838,-0.21828 0.2732,-0.39687 0.42097,-0.39687 0.15486,0 0.12915,0.16812 -0.0607,0.39687 -0.18116,0.21829 -0.3706,0.39688 -0.42097,0.39688 -0.0504,0 -0.023,-0.17859 0.0607,-0.39688 z m 0.75714,-0.92604 c 0.0899,-0.14552 0.21603,-0.26458 0.2802,-0.26458 0.0642,0 0.11668,0.11906 0.11668,0.26458 0,0.14552 -0.12609,0.26459 -0.2802,0.26459 -0.15411,0 -0.20662,-0.11907 -0.11668,-0.26459 z m 1.19593,-0.13868 c 0.18408,-0.2218 0.38917,-0.34879 0.45577,-0.28219 0.18349,0.18349 -0.18932,0.68546 -0.50909,0.68546 -0.17544,0 -0.15537,-0.15182 0.0533,-0.40327 z m -5.03337,2.91785 c 0.34124,-0.36323 0.67086,-0.60998 0.7325,-0.54834 0.12419,0.12418 1.64973,-1.54285 1.64973,-1.80274 0,-0.36017 -0.74032,-0.13192 -1.1924,0.36763 -0.43811,0.4841 -1.84359,1.32095 -2.21854,1.32095 -0.0851,0 0.30709,-0.32742 0.87144,-0.7276 l 1.02609,-0.72761 -1.95528,-0.14494 c -1.07539,-0.0797 -1.99933,-0.11503 -2.05319,-0.0785 -0.0539,0.0366 -0.0187,0.38205 0.0781,0.76775 0.11244,0.44799 0.45838,0.80785 0.95782,0.99637 0.46286,0.17471 0.78181,0.48731 0.78181,0.76626 0,0.66869 0.5961,0.58335 1.32193,-0.18926 z m -35.68642,-0.33177 c 0.10795,-1.5944 -0.14964,-1.95065 -1.07618,-1.48843 -0.88786,0.44292 -1.01769,0.75575 -0.41038,0.9888 0.21828,0.0838 0.39688,0.33462 0.39688,0.55747 0,0.57576 1.05056,0.52 1.08968,-0.0578 z m -4.89063,-1.01613 c 1.56883,-0.89485 3.42217,-3.06758 3.93586,-4.61414 0.46878,-1.41139 0.78178,-1.78378 0.49374,-0.58744 -0.30628,1.27209 -1.34822,3.07517 -2.394,4.1428 -0.55703,0.56867 -0.77465,0.90504 -0.48361,0.74749 0.79603,-0.43091 2.90419,-2.71583 3.47002,-3.76097 0.2743,-0.50665 0.64756,-1.0807 0.82946,-1.27566 0.45769,-0.49055 0.41514,-1.37501 -0.0662,-1.37501 -0.21828,0 -0.39687,0.11171 -0.39687,0.24824 0,0.13654 -0.3273,0.22584 -0.72734,0.19844 -0.56188,-0.0385 -0.74582,0.0795 -0.80862,0.51853 -0.0447,0.31259 -0.31128,0.62849 -0.59239,0.70201 -0.28111,0.0735 -0.63891,0.4726 -0.79511,0.88686 -0.35941,0.95321 -1.81052,2.473 -2.36124,2.473 -0.23012,0 -0.71278,0.20827 -1.07258,0.46281 -0.88478,0.62596 -4.0169,0.63905 -5.2156,0.0218 -0.80843,-0.41629 -0.89095,-0.41414 -1.44885,0.0376 l -0.59159,0.47904 1.05197,0.44325 c 2.92307,1.23162 5.30778,1.31518 7.1729,0.25133 z m 57.64208,-0.49301 c 4.22756,-1.99996 6.82523,-6.81864 6.39783,-11.86796 -0.27764,-3.28005 -1.79395,-6.83922 -3.74486,-8.79012 -2.27748,-2.27748 -5.57056,-3.42959 -9.61427,-3.36364 -2.90642,0.0474 -3.38376,0.16607 -3.57258,0.88813 -0.11152,0.42643 -0.0474,0.50332 0.30216,0.36232 0.24404,-0.0984 1.39621,-0.24016 2.56038,-0.31494 6.07105,-0.38997 10.2947,2.3444 12.17907,7.88467 0.53576,1.5752 0.62589,2.30692 0.57785,4.69135 -0.0509,2.52661 -0.13909,2.99241 -0.83469,4.40918 -0.90414,1.8415 -2.7552,3.79801 -4.41105,4.66234 -0.93439,0.48775 -1.61145,0.61115 -3.46667,0.63185 -1.26802,0.0142 -2.38022,0.10045 -2.47155,0.19179 -0.0913,0.0913 -0.0876,0.41316 0.008,0.71517 0.15856,0.49958 0.37915,0.5491 2.44602,0.5491 1.86255,0 2.51894,-0.11694 3.64414,-0.64924 z m -59.26736,-1.29957 0.79149,-0.33745 -1.24035,-0.31232 c -0.91732,-0.23098 -1.58856,-0.23764 -2.57742,-0.0256 -0.73539,0.15772 -1.33708,0.34026 -1.33708,0.40566 0,0.59812 3.13809,0.79208 4.36336,0.26969 z m 14.72863,-0.10401 c 0.24533,-0.24532 0.0999,-0.40669 -0.6481,-0.71923 -1.16001,-0.48468 -2.78756,-0.51721 -4.23155,-0.0846 l -1.06259,0.31836 1.03189,0.46982 c 1.17938,0.53697 4.37883,0.54715 4.91035,0.0156 z m 29.70332,0.0204 0.77343,-0.14636 -0.83687,-0.35188 c -2.35933,-0.99203 -5.20791,-0.97222 -5.20791,0.0362 0,0.80196 2.37492,1.01011 5.27135,0.46202 z m -34.36929,-3.51789 c 0.1421,0.003 0.007,0.21159 -0.30074,0.46302 -0.3075,0.25142 -1.02188,0.98773 -1.5875,1.63624 l -1.0284,1.17911 0.8599,-0.60181 c 0.47294,-0.331 0.8601,-0.683 0.86036,-0.78223 8e-4,-0.29575 2.1862,-1.58074 3.04224,-1.78879 0.75254,-0.18289 1.17758,-0.53083 1.18657,-0.97132 0.008,-0.40696 -0.98932,-0.17959 -1.45115,0.33073 -0.26339,0.29104 -0.66131,0.52916 -0.88426,0.52916 -0.29147,0 -0.2056,-0.20851 0.30559,-0.74208 0.76897,-0.80263 0.88234,-1.11 0.4094,-1.11 -0.16586,0 -0.45627,-0.20836 -0.64535,-0.46302 -0.28192,-0.3797 -0.43642,-0.40653 -0.85857,-0.14909 -0.28314,0.17266 -0.76664,0.24807 -1.07445,0.16758 -0.50949,-0.13324 -0.55966,-0.038 -0.55966,1.06198 0,0.79384 -0.13485,1.28381 -0.39311,1.42833 -0.54692,0.30608 -2.04238,2.71672 -1.68533,2.71672 0.19035,0 0.17085,0.16031 -0.0563,0.46302 -0.19112,0.25466 0.54124,-0.40018 1.62747,-1.45521 1.08623,-1.05502 2.09123,-1.91558 2.23333,-1.91234 z m -3.31352,2.457 c 1.42607,-2.00238 3.27296,-4.30521 3.37278,-4.20539 0.14334,0.14334 -2.97121,4.27312 -3.43893,4.55988 -0.20461,0.12546 -0.17939,-0.01 0.0661,-0.35449 z m 51.52646,0.60302 c 0.35313,-0.35313 -0.33834,-0.55237 -1.91708,-0.55237 -1.75723,0 -2.36694,0.24556 -1.71213,0.68956 0.39096,0.26509 3.33835,0.15367 3.62921,-0.13719 z m -11.83895,-0.71296 c 0,-0.12995 0.0893,-0.22218 0.19843,-0.20495 0.48098,0.0759 0.51289,-0.0897 0.19523,-1.01371 -0.21496,-0.6253 -0.25442,-1.2015 -0.10853,-1.58521 0.28913,-0.76048 0.0539,-1.40116 -0.51438,-1.40116 -0.24047,0 -0.58593,-0.23812 -0.76769,-0.52917 -0.37505,-0.60055 -1.6489,-0.73109 -1.6489,-0.16898 0,0.24153 -0.21791,0.31853 -0.66146,0.23374 -0.80333,-0.15357 -0.8674,0.29325 -0.13229,0.92268 0.53215,0.45564 0.71749,1.12923 0.31071,1.12923 -0.12016,0 -0.50336,-0.30326 -0.85157,-0.67391 -0.80544,-0.85734 -2.26933,-0.8429 -2.18434,0.0216 0.0328,0.33339 -0.16864,0.63551 -0.52917,0.79375 -0.38623,0.16952 -0.60904,0.5322 -0.6622,1.07788 l -0.0801,0.8224 1.36246,-0.13091 c 1.43623,-0.13801 4.015,0.33781 4.84741,0.89441 0.50845,0.33998 1.2264,0.23013 1.2264,-0.18764 z m -2.04028,-1.30123 c -0.61283,-0.57844 -1.02395,-1.05172 -0.91359,-1.05172 0.11035,0 0.66569,0.47625 1.23407,1.05834 1.32961,1.36164 1.12462,1.3574 -0.32048,-0.007 z m 1.25869,0.19302 c -0.55797,-0.89246 -1.41606,-3.89636 -0.92687,-3.24469 0.21205,0.28248 0.38815,0.6992 0.39135,0.92604 0.003,0.22685 0.24344,0.9362 0.53387,1.57633 0.5774,1.27262 0.57827,1.66459 0.002,0.74232 z m -2.69471,-0.3365 c -0.22807,-0.22808 -0.87866,-0.58004 -1.44575,-0.78214 -0.5671,-0.2021 -0.81095,-0.37268 -0.5419,-0.37907 0.69051,-0.0164 2.22019,0.7505 2.39247,1.19945 0.18468,0.48128 0.10741,0.47398 -0.40482,-0.0382 z m -51.38435,1.33087 c 0.0858,-0.2237 -0.0314,-0.61389 -0.26053,-0.86708 -0.75298,-0.83203 -1.71076,-3.32216 -2.02878,-5.27463 -0.80616,-4.94939 2.04242,-10.83319 6.29515,-13.00277 3.90505,-1.99221 9.51102,-1.70399 12.7028,0.65307 2.22122,1.64033 4.97737,4.78348 4.76175,5.43036 -0.13257,0.39771 -3.18493,-2.21973 -4.05836,-3.48009 -0.71788,-1.0359 -1.90642,-1.99363 -2.15973,-1.74032 -0.22165,0.22166 0.98642,2.03521 2.29366,3.44323 0.65948,0.71032 2.0325,1.85629 3.05114,2.54659 1.01865,0.69031 2.07013,1.49843 2.33663,1.79583 0.4528,0.5053 0.51398,0.5118 0.93363,0.0992 0.42145,-0.41433 0.3265,-0.62211 -1.54288,-3.37651 -2.82144,-4.1572 -5.52929,-6.3872 -8.83755,-7.27802 -5.17555,-1.39364 -9.67377,-0.33792 -12.99816,3.0506 -2.26023,2.30384 -3.3684,4.68325 -3.8287,8.22077 -0.43536,3.34582 0.19853,6.31145 1.93799,9.06694 0.74552,1.18098 1.14444,1.38381 1.40194,0.71279 z m 20.2979,-0.65161 c 0.80046,0 1.76079,0.11612 2.13406,0.25804 0.54654,0.20779 0.67868,0.17865 0.67868,-0.14969 0,-0.60563 -0.45633,-1.3467 -0.94465,-1.53409 -0.57766,-0.22166 -2.87548,0.61689 -3.76392,1.37358 -0.56731,0.48318 -0.59576,0.55164 -0.13747,0.33073 0.31786,-0.15321 1.23284,-0.27857 2.0333,-0.27857 z m -8.8343,-0.78321 c 0.39734,-0.77885 0.53454,-1.5632 0.53454,-3.05584 0,-2.57001 0.97097,-4.67911 1.39958,-3.04011 0.15982,0.61115 1.44277,0.74982 1.66159,0.1796 0.0827,-0.21538 0.42062,-0.30751 0.88045,-0.24002 0.58536,0.0859 0.77754,-0.01 0.89106,-0.44393 0.0796,-0.3044 0.0369,-0.62014 -0.095,-0.70163 -0.368,-0.22744 -0.28452,-0.64611 0.12882,-0.64611 0.51451,0 0.74104,-0.73272 0.41492,-1.34208 -0.31068,-0.58052 -0.91653,-0.66916 -1.22528,-0.17927 -0.13699,0.21735 -0.25615,0.0586 -0.3476,-0.46302 -0.10928,-0.6233 -0.29316,-0.81154 -0.85628,-0.87658 -0.58327,-0.0674 -0.74927,0.0453 -0.88935,0.60339 -0.12685,0.50541 -0.29623,0.64687 -0.64281,0.53687 -0.25882,-0.0821 -0.66172,0.0418 -0.89533,0.2754 -0.5068,0.5068 -0.50863,0.52442 -0.11946,1.14759 0.24127,0.38632 0.21352,0.6199 -0.13229,1.11361 -0.24067,0.34361 -0.43759,0.83638 -0.43759,1.09505 0,0.95341 -0.42481,0.42676 -0.87266,-1.08186 -0.51559,-1.73682 -0.38684,-2.47757 0.41045,-2.36156 0.29204,0.0425 0.65211,-0.11268 0.80014,-0.34481 0.35441,-0.55576 0.0237,-1.82689 -0.47526,-1.82689 -0.45811,0 -0.48208,-0.13076 -0.14084,-0.76837 0.13805,-0.25795 0.18658,-0.71536 0.10783,-1.01648 -0.15178,-0.58042 -1.05056,-0.97552 -1.30022,-0.57156 -0.24357,0.3941 -0.50508,0.27517 -0.7818,-0.35557 -0.30326,-0.69122 -1.17927,-0.89208 -1.9925,-0.45686 -0.47235,0.2528 -0.53945,0.45607 -0.39853,1.20724 0.14645,0.78063 0.0984,0.90326 -0.35387,0.90326 -0.28783,0 -0.59748,0.23363 -0.68811,0.51918 -0.24479,0.77127 0.30691,1.59749 1.06671,1.59749 0.58189,0 0.6188,0.057 0.33317,0.51437 -0.26553,0.42518 -0.23587,0.60868 0.17105,1.05833 0.55674,0.61519 1.09332,0.70333 1.29815,0.21324 0.22953,-0.54918 1.36307,1.01767 1.84709,2.55316 0.57424,1.82171 0.57491,1.82003 -0.37387,0.93374 -0.57123,-0.53361 -0.76577,-0.91194 -0.65247,-1.2689 0.24093,-0.75912 -0.56611,-1.44109 -1.48735,-1.25684 -0.61787,0.12357 -0.75044,0.0594 -0.75044,-0.36316 0,-0.71064 -0.90214,-1.16324 -1.5875,-0.79644 -0.29104,0.15576 -0.52917,0.4576 -0.52917,0.67077 0,0.22802 -0.2505,0.38756 -0.60854,0.38756 -1.40949,0 -1.76494,1.70125 -0.45849,2.19438 0.61051,0.23044 0.75425,0.41909 0.64647,0.84849 -0.0896,0.35707 0.0609,0.73264 0.42584,1.06295 0.53467,0.48387 0.60488,0.48758 1.33199,0.0703 0.44114,-0.25318 0.83299,-0.33468 0.92139,-0.19164 0.0846,0.13689 0.50171,0.24889 0.92691,0.24889 0.61153,0 0.80911,-0.1435 0.94542,-0.6866 l 0.17233,-0.6866 0.67564,0.67564 c 0.56633,0.56633 0.67691,0.92358 0.68343,2.20796 0.004,0.84277 -0.0923,1.91926 -0.21454,2.3922 -0.30184,1.16743 -0.0159,1.08244 0.63219,-0.1879 z m -5.28629,-4.75708 c 0,-0.16753 0.28661,-0.5912 0.6369,-0.9415 l 0.63691,-0.6369 -1.23222,-0.16563 c -1.75469,-0.23586 -1.93318,-0.3437 -0.60859,-0.3677 0.81218,-0.0147 1.11283,-0.11861 1.01757,-0.35162 -0.0744,-0.1819 -0.21188,-0.56886 -0.30557,-0.8599 -0.16698,-0.51872 -0.16356,-0.51902 0.17306,-0.0156 0.52379,0.78342 1.48164,1.73535 1.74615,1.73535 0.1299,0 0.36538,-0.26789 0.52328,-0.59531 0.27485,-0.56989 0.28788,-0.56084 0.30502,0.21166 0.01,0.44384 0.16078,0.94986 0.33541,1.12448 0.24694,0.24694 0.22047,0.3175 -0.11915,0.3175 -0.24015,0 -0.56914,0.20836 -0.73107,0.46302 -0.24794,0.3899 -0.2712,0.35247 -0.14732,-0.237 0.22851,-1.08739 -0.53476,-1.19147 -1.46158,-0.19931 -0.42284,0.45266 -0.7688,0.68594 -0.7688,0.51842 z m 6.50694,-2.52999 c 0.23872,-0.36433 0.37761,-0.95552 0.30891,-1.31491 -0.0686,-0.35913 -0.023,-0.59001 0.10154,-0.51306 0.1245,0.0769 0.22636,0.31147 0.22636,0.52116 0,0.20969 0.15478,0.38126 0.34396,0.38126 0.57549,0 0.97874,-0.59153 0.98301,-1.44198 0.003,-0.61613 0.0642,-0.71312 0.25854,-0.4101 0.13997,0.21828 0.18407,0.62284 0.098,0.89901 -0.13686,0.43913 -0.0544,0.48173 0.65724,0.3394 0.44755,-0.0895 0.88491,-0.0476 0.9719,0.0932 0.0893,0.14456 -0.21186,0.25592 -0.69221,0.25592 -0.80706,0 -0.82807,0.0246 -0.41249,0.48385 0.61098,0.67512 0.54913,1.02175 -0.0806,0.45184 -0.37186,-0.33653 -0.72625,-0.4171 -1.25303,-0.28489 -0.63984,0.16059 -0.67532,0.21749 -0.27525,0.44138 0.25261,0.14137 0.45928,0.37118 0.45928,0.5107 0,0.13953 -0.23515,0.10683 -0.52256,-0.0727 -0.41235,-0.25752 -0.59092,-0.25799 -0.84667,-0.002 -0.56645,0.56645 -0.77606,0.34917 -0.32591,-0.33784 z m -3.02407,-2.01288 c -0.27354,-0.43802 -0.51789,-0.52431 -1.13513,-0.40086 -0.48587,0.0972 -0.72498,0.0577 -0.62549,-0.10329 0.0886,-0.14333 0.45169,-0.2606 0.80691,-0.2606 0.78133,0 0.8391,-0.53684 0.12711,-1.18118 -0.34247,-0.30993 -0.79199,-0.42934 -1.32292,-0.35142 -0.4423,0.0649 -0.80418,0.0196 -0.80418,-0.10073 0,-0.20629 1.03151,-0.33925 1.80914,-0.23318 0.22199,0.0303 0.30513,-0.13063 0.22303,-0.43167 -0.38704,-1.41907 -0.44783,-1.96834 -0.20094,-1.81575 0.14572,0.0901 0.34024,0.56512 0.43227,1.05571 0.16459,0.87735 0.1756,0.8837 0.67171,0.38759 0.2774,-0.27741 0.64993,-0.50437 0.82783,-0.50437 0.17789,0 0.0588,0.18534 -0.26459,0.41187 -0.40594,0.28434 -0.58804,0.68264 -0.58804,1.28623 0,0.80735 0.0558,0.8649 0.72761,0.75101 0.71726,-0.12159 0.71964,-0.11745 0.16718,0.29184 -0.39758,0.29454 -0.52316,0.61013 -0.43218,1.08607 0.15622,0.81719 0.0401,0.8484 -0.41932,0.11273 z m 46.82713,9.85418 c 0.1854,-0.29686 0.50263,-0.44273 0.796,-0.36602 0.26826,0.0702 0.48775,-0.005 0.48775,-0.16789 0,-0.16249 -0.16536,-0.29544 -0.36747,-0.29544 -0.20212,0 -0.35095,-0.2083 -0.33073,-0.46289 0.0233,-0.29302 -0.18157,-0.49395 -0.55814,-0.54752 -0.44276,-0.063 -0.66438,0.0982 -0.86663,0.63013 -0.48801,1.28355 0.18619,2.25531 0.83922,1.20963 z m -49.78356,-1.59592 1.9871,-0.16392 -1.80217,-0.64775 c -2.38264,-0.85638 -3.72138,-2.02183 -4.29041,-3.73501 -0.74854,-2.25364 -0.4137,-3.29023 2.70136,-8.36275 1.2748,-2.07586 1.73685,-3.7865 1.02276,-3.7865 -0.24363,0 -1.10066,0.32203 -1.90449,0.71564 -2.86912,1.40487 -5.38701,5.09262 -5.88683,8.62197 -0.43613,3.07966 0.41967,7.01828 1.85899,8.5556 l 0.52712,0.563 1.89973,-0.79818 c 1.25828,-0.52867 2.5707,-0.85354 3.88684,-0.9621 z m 63.64091,0.33846 c 3.00814,-3.94389 2.29129,-10.90947 -1.50757,-14.64889 -1.31247,-1.29193 -3.14883,-2.3855 -4.00581,-2.3855 -1.0089,0 -0.39419,1.9839 1.68557,5.44002 1.45345,2.41532 1.80967,3.24528 2.01115,4.68574 0.267,1.90886 -1.68314,4.85148 -3.67546,5.54601 -0.99267,0.34605 -0.71593,0.64749 0.79017,0.86068 0.69106,0.0978 1.79226,0.46078 2.4471,0.80658 0.65485,0.3458 1.26579,0.63411 1.35766,0.64068 0.0919,0.007 0.4956,-0.41882 0.89719,-0.94532 z m -10.76956,-0.87536 c 0.0169,-1.22098 0.6009,-2.46655 1.42832,-3.04609 0.8504,-0.59565 1.15554,-0.51169 1.1437,0.31466 -0.009,0.60886 0.11443,0.74186 0.75461,0.81494 0.42077,0.048 0.8513,-0.0522 0.95673,-0.22282 0.14428,-0.23346 0.33154,-0.22282 0.75723,0.043 0.71368,0.4457 1.49942,0.0166 1.46874,-0.8021 -0.0135,-0.36038 0.14032,-0.56065 0.43062,-0.56065 1.13576,0 1.42948,-1.91107 0.31799,-2.06892 -0.41415,-0.0588 -0.59531,-0.26413 -0.59531,-0.67469 0,-1.18813 -1.30479,-1.67065 -1.90758,-0.70542 -0.22901,0.36669 -0.50334,0.47484 -0.93172,0.36732 -0.33394,-0.0838 -0.7842,-0.005 -1.0006,0.17415 -0.44249,0.36723 -0.5355,1.32006 -0.12885,1.32006 0.14552,0 0.26071,0.0893 0.25597,0.19844 -0.0111,0.25458 -1.90575,1.15039 -2.07506,0.98109 -0.2047,-0.2047 0.75041,-2.99334 1.10216,-3.21798 0.17603,-0.11242 0.73677,-0.20578 1.2461,-0.20746 0.86531,-0.003 0.92592,-0.0586 0.92423,-0.85041 -0.001,-0.65203 0.13177,-0.88089 0.57768,-0.9928 1.08557,-0.27246 1.00187,-1.9963 -0.0969,-1.9963 -0.2619,0 -0.32942,-0.16666 -0.21436,-0.52916 0.29767,-0.93787 -0.0913,-1.5875 -0.95042,-1.5875 -0.58961,0 -0.84399,0.16181 -1.03208,0.65653 -0.20774,0.5464 -0.37556,0.63133 -1.00046,0.50635 -0.88358,-0.17671 -1.51778,0.40853 -1.30878,1.20775 0.094,0.35932 -0.0244,0.57239 -0.38072,0.68549 -0.76056,0.24139 -0.58265,1.80619 0.21832,1.92028 0.8018,0.11422 0.94856,0.70581 0.59619,2.40319 l -0.3046,1.46723 -0.49594,-0.96669 c -0.27276,-0.53167 -0.62189,-1.04453 -0.77584,-1.13967 -0.19443,-0.12016 -0.18851,-0.28312 0.0194,-0.53361 0.51675,-0.62265 0.0499,-1.44435 -0.8206,-1.44435 -0.50503,0 -0.77592,-0.13531 -0.77592,-0.38757 0,-0.4979 -0.89636,-0.9809 -1.43604,-0.7738 -0.22882,0.0878 -0.41604,0.37749 -0.41604,0.64374 0,0.35277 -0.23329,0.50659 -0.8599,0.56701 -0.7507,0.0724 -0.87021,0.18923 -0.94111,0.92019 -0.064,0.65916 0.0375,0.87497 0.47695,1.01444 0.43536,0.13818 0.49242,0.25638 0.25935,0.53722 -0.16436,0.19803 -0.25992,0.6345 -0.21237,0.96993 0.10688,0.75399 1.44672,1.03285 1.70675,0.35524 0.14662,-0.38209 0.19302,-0.38006 0.4865,0.0213 0.44932,0.61449 1.72966,0.29385 1.72966,-0.43316 0,-0.66506 0.31811,-0.66672 0.91715,-0.005 0.40738,0.45015 0.44509,0.81829 0.28307,2.76335 -0.18314,2.19858 -0.0559,3.3319 0.37392,3.3319 0.11856,0 0.22202,-0.4675 0.2299,-1.03888 z m 5.38484,-3.06877 c -0.29665,-0.65108 -1.2965,-1.24192 -1.69974,-1.00444 -0.10968,0.0646 -0.13671,0.43757 -0.0601,0.82883 0.12908,0.659 0.12004,0.66755 -0.1228,0.11608 -0.14418,-0.32742 -0.44457,-0.59531 -0.66754,-0.59531 -0.5942,0 -0.48242,-0.32857 0.30792,-0.9051 0.38318,-0.27952 0.61054,-0.36882 0.50524,-0.19844 -0.1053,0.17038 -0.0575,0.30979 0.10613,0.30979 0.64112,0 1.27887,-0.55641 1.55909,-1.36024 0.16148,-0.46323 0.36736,-0.76848 0.4575,-0.67834 0.0901,0.0901 -0.0945,0.60179 -0.41025,1.137 l -0.57414,0.9731 1.13666,-0.15637 c 0.76696,-0.10551 0.96454,-0.0802 0.60749,0.0779 -0.29104,0.12887 -0.80062,0.24268 -1.1324,0.2529 l -0.60323,0.0186 0.58443,0.7905 c 0.32144,0.43477 0.52294,0.85199 0.44778,0.92716 -0.0752,0.0752 -0.2741,-0.16498 -0.44208,-0.53364 z m -8.49792,-2.1438 c -0.008,-0.16408 0.16341,-0.44547 0.38009,-0.62529 0.21668,-0.17983 0.32871,-0.43253 0.24897,-0.56157 -0.28477,-0.46076 -1.14289,-0.22291 -1.68577,0.46725 -0.30364,0.38602 -0.61483,0.63909 -0.69153,0.56239 -0.0767,-0.0767 0.16772,-0.50453 0.54316,-0.95072 l 0.68263,-0.81125 -1.13478,-0.10179 -1.13477,-0.10178 1.07866,-0.0462 c 1.04988,-0.045 1.07642,-0.0692 0.99483,-0.90613 l -0.0838,-0.85989 0.24358,0.74452 c 0.26345,0.80526 0.75887,1.50444 1.06601,1.50444 0.10546,0 0.32964,-0.26789 0.49816,-0.59532 l 0.30641,-0.59531 -0.15554,0.60801 c -0.0856,0.33441 -0.0121,0.78089 0.16329,0.99219 0.25464,0.30682 0.2389,0.38418 -0.0782,0.38418 -0.21835,0 -0.58387,0.26789 -0.81227,0.59531 -0.2284,0.32742 -0.42151,0.46106 -0.42915,0.29698 z m 4.27595,-2.42799 c 0.0268,-0.94226 -0.20326,-1.34242 -0.94346,-1.64107 -0.45711,-0.18444 -0.47718,-0.23255 -0.10263,-0.24604 0.25609,-0.009 0.66734,0.21882 0.91389,0.50678 0.50962,0.59518 0.85854,0.29778 0.86541,-0.73761 0.002,-0.33601 0.10785,-0.54677 0.23473,-0.46836 0.12687,0.0784 0.4339,-0.38958 0.68229,-1.03998 0.24839,-0.6504 0.58154,-1.26284 0.74033,-1.36098 0.30228,-0.18682 0.29529,-0.16232 -0.45223,1.58602 l -0.43448,1.0162 0.84043,-0.18459 c 0.58559,-0.12862 0.78555,-0.0958 0.65942,0.10828 -0.0995,0.16109 -0.46488,0.29288 -0.81184,0.29288 -0.35196,0 -0.81293,0.25996 -1.04272,0.58804 -0.56454,0.80599 -0.52422,0.91554 0.31572,0.85773 0.48018,-0.0331 0.52714,-0.0117 0.13812,0.0628 -0.32422,0.0621 -0.82245,0.40907 -1.10717,0.77104 l -0.51769,0.65812 0.0219,-0.7693 z m 0.2134,-3.3527 c -0.20869,-0.25146 -0.22876,-0.40327 -0.0533,-0.40327 0.31976,0 0.69257,0.50197 0.50909,0.68546 -0.0666,0.0666 -0.27169,-0.0604 -0.45577,-0.28219 z m -12.4305,9.43506 c 1.06931,-0.84112 2.60984,-1.37166 3.98286,-1.37166 h 1.28264 l -0.63979,-0.94277 c -0.73262,-1.07958 -1.07272,-2.85314 -0.81281,-4.2386 0.34691,-1.84918 3.09155,-4.23273 6.36333,-5.52615 3.02159,-1.19451 4.63021,-2.17853 4.63021,-2.83235 0,-0.36913 -4.0589,-0.24185 -5.44208,0.17066 -1.11058,0.33121 -1.39471,0.55965 -1.9089,1.53477 -0.86712,1.64442 -3.43384,4.38683 -5.24661,5.60572 -0.85669,0.57603 -1.99045,1.3789 -2.51948,1.78416 l -0.96186,0.73682 0.13705,1.70741 c 0.0967,1.20534 0.005,2.11008 -0.31083,3.07676 -0.55096,1.68444 -0.3596,2.56107 0.32969,1.51032 0.25105,-0.38271 0.75351,-0.9295 1.11658,-1.21509 z m -25.55428,0.53234 c -0.26394,-0.76611 -0.2854,-1.50042 -0.0899,-3.07535 0.30532,-2.45932 0.30787,-2.45509 -2.67649,-4.44322 -2.70001,-1.79871 -3.4734,-2.58611 -5.19477,-5.28893 -1.68598,-2.64723 -2.17371,-2.91021 -5.24097,-2.82583 -1.55103,0.0427 -1.68923,0.0915 -1.46188,0.51629 0.28017,0.5235 3.18724,2.50912 5.01845,3.42775 2.10248,1.05472 3.46967,2.14144 4.25797,3.38446 1.24176,1.95804 1.01891,3.73424 -0.7625,6.07769 l -0.65944,0.86749 0.63251,-0.23857 c 1.58026,-0.59604 5.30964,0.68003 6.05439,2.0716 0.44752,0.8362 0.50171,0.62698 0.1226,-0.47338 z m 18.26801,-7.12157 c 0.66712,-0.24192 1.74193,-0.351 2.90762,-0.29509 l 1.84929,0.0887 2.06983,-2.91042 c 2.23011,-3.13576 3.64718,-4.62309 5.55422,-5.82957 0.97587,-0.61738 1.2647,-0.9801 1.48864,-1.86944 0.3129,-1.24263 0.34169,-5.06739 0.0396,-5.25412 -0.69074,-0.4269 -2.45849,1.96363 -3.70897,5.01563 -0.96965,2.36657 -2.19473,4.03519 -3.60047,4.90398 -1.3946,0.86191 -3.66547,0.6538 -5.27944,-0.48383 -0.65339,-0.46055 -1.18798,-0.72779 -1.18798,-0.59385 0,0.13393 0.13405,0.32636 0.2979,0.42763 0.46015,0.28439 0.12152,3.26884 -0.51175,4.51015 -0.3018,0.59159 -0.96728,1.44309 -1.47883,1.89225 -0.88677,0.77859 -0.83053,1.27524 0.10518,0.92874 0.21828,-0.0808 0.87312,-0.31967 1.4552,-0.53076 z m 8.15725,-0.97912 c 6.03594,-4.05257 8.76309,-9.85452 7.43202,-15.81143 -0.58362,-2.61186 -1.46371,-4.30819 -3.10454,-5.98388 -4.35367,-4.44613 -11.41514,-5.17728 -16.79078,-1.73853 -1.33704,0.8553 -1.421,0.96582 -1.03043,1.35639 0.38031,0.38032 0.47499,0.38299 0.89648,0.0253 1.66152,-1.40989 5.01241,-2.60745 7.29588,-2.60745 6.80793,0 12.11393,5.28026 12.08661,12.02798 -0.012,2.97668 -1.13136,6.00076 -3.1807,8.59337 -1.04876,1.32678 -3.03591,2.8771 -3.32159,2.59141 -0.0814,-0.0814 0.67368,-1.02156 1.67795,-2.08924 2.47908,-2.63557 3.40779,-4.05128 2.25112,-3.43156 -1.1839,0.63431 -3.1543,2.7005 -4.55063,4.77185 -0.84339,1.2511 -1.77871,2.49427 -2.0785,2.76261 -0.29979,0.26833 -0.4789,0.66032 -0.39803,0.87108 0.17967,0.4682 -0.007,0.55701 2.81514,-1.33794 z m -17.68225,1.1696 c -0.0899,-0.14552 -0.33509,-0.26458 -0.54478,-0.26458 -0.20969,0 -0.85282,-0.47156 -1.42917,-1.04791 -1.1583,-1.1583 -2.03577,-3.51741 -1.74266,-4.68523 l 0.16802,-0.66948 -0.79733,0.56776 c -0.43854,0.31226 -1.42604,0.69858 -2.19446,0.85849 -1.24878,0.25987 -1.5446,0.22701 -2.78618,-0.30944 -0.76398,-0.33011 -1.38906,-0.70459 -1.38906,-0.83219 0,-0.1276 -0.13982,-0.232 -0.3107,-0.232 -0.17089,0 -0.0647,0.26789 0.23589,0.59531 0.30064,0.32742 1.27239,1.68869 2.15946,3.02504 0.88707,1.33635 1.74985,2.51439 1.91727,2.61786 0.16743,0.10348 1.21173,0.16416 2.32066,0.13484 1.10893,-0.0293 2.31289,0.065 2.67547,0.20964 0.87163,0.34764 1.92481,0.3672 1.71757,0.0319 z m 2.58473,-0.99218 c -0.11191,-0.40019 -0.20298,-1.27819 -0.20237,-1.95112 8e-4,-0.97961 -0.0782,-1.19353 -0.39687,-1.07314 -0.27574,0.10418 -0.24447,-0.004 0.10179,-0.35349 0.46265,-0.46644 1.22002,-1.97093 1.22002,-2.42353 0,-0.10774 -0.53579,0.32995 -1.19063,0.97263 -1.47937,1.45189 -1.57916,1.17766 -0.12294,-0.33784 0.58722,-0.61112 0.96227,-1.14627 0.83344,-1.18922 -0.12883,-0.0429 -0.84431,0.33247 -1.58995,0.83424 -1.29698,0.87281 -2.83785,1.42934 -3.13493,1.13226 -0.077,-0.077 0.32026,-0.26403 0.88289,-0.41553 1.18404,-0.31883 3.52836,-1.73721 3.52836,-2.13475 0,-0.34943 -0.3187,-0.34155 -1.23954,0.0307 -0.40966,0.16558 -1.34014,0.31441 -2.06775,0.33073 -1.15571,0.0259 -1.32291,0.0995 -1.32291,0.58222 0,0.3039 -0.15088,0.73529 -0.3353,0.95865 -0.38495,0.46625 -0.17082,1.26692 0.33883,1.26692 0.21354,0 0.29137,0.2005 0.20542,0.52917 -0.195,0.74569 0.82409,0.71131 1.35431,-0.0457 0.36924,-0.52716 0.41756,-0.536 0.58236,-0.10654 0.12676,0.33031 -0.046,0.65042 -0.58608,1.08623 -0.64337,0.51913 -0.71686,0.69478 -0.45969,1.09873 0.16836,0.26445 0.4513,0.44603 0.62875,0.40352 0.17745,-0.0425 0.49892,0.1744 0.71439,0.48202 0.4137,0.59065 1.21442,1.00578 1.99382,1.03371 0.38522,0.0138 0.43205,-0.112 0.26458,-0.71083 z m 3.84465,0.4101 c 0.17462,-0.17462 0.3175,-0.57483 0.3175,-0.88935 0,-0.46654 0.1212,-0.54868 0.65817,-0.44604 0.4463,0.0853 0.71117,-0.0123 0.82284,-0.30331 0.19684,-0.51298 -0.55055,-1.74797 -1.05784,-1.74797 -0.45013,0 -1.08951,-0.74477 -0.8473,-0.98697 0.0992,-0.0993 0.58232,0.036 1.07351,0.30051 0.85188,0.45877 1.64145,0.38857 1.32831,-0.11809 -0.0812,-0.13136 0.0442,-0.53158 0.27865,-0.88938 0.4001,-0.61062 0.39265,-0.68416 -0.12129,-1.1981 -0.30115,-0.30115 -0.70583,-0.54755 -0.89929,-0.54755 -0.1946,0 -0.34235,-0.26595 -0.33073,-0.59531 0.018,-0.51109 -0.11001,-0.59286 -0.90503,-0.57798 -0.50932,0.01 -1.08975,0.0691 -1.28985,0.13229 -0.77817,0.2459 -0.57737,-0.56875 0.20765,-0.84241 0.85168,-0.2969 1.10858,-0.76242 0.42074,-0.76242 -0.22049,0 -0.39687,-0.23519 -0.39687,-0.52917 0,-0.38806 -0.17639,-0.52917 -0.66146,-0.52917 -0.39107,0 -0.66146,-0.15165 -0.66146,-0.37099 0,-0.20404 -0.34796,-0.49229 -0.77325,-0.64055 -0.42529,-0.14825 -0.88597,-0.48732 -1.02374,-0.75348 -0.40007,-0.77291 -0.36843,-4.96508 0.0466,-6.16959 0.33436,-0.9705 0.32456,-1.12973 -0.10192,-1.65642 l -0.47184,-0.5827 -0.44562,1.05197 c -0.62092,1.46583 -0.81649,4.53778 -0.41065,6.4502 0.41346,1.9483 1.31037,2.91311 2.90722,3.12729 0.7239,0.0971 0.98745,0.22366 0.75932,0.36465 -0.41792,0.25829 -1.45311,0.0499 -2.26405,-0.45586 -0.5208,-0.32477 -0.56869,-0.31764 -0.42266,0.0629 0.0906,0.23605 0.70562,0.77222 1.36675,1.1915 1.26426,0.80177 1.31301,0.93139 0.18964,0.50429 -0.7816,-0.29717 -0.89124,-0.006 -0.21566,0.57265 0.81382,0.69712 3.31968,1.80205 4.08685,1.80205 0.40799,0 0.7418,0.10463 0.7418,0.23251 0,0.35615 -2.37953,-0.19 -3.53981,-0.81245 -1.29493,-0.69468 -1.20463,-0.10013 0.12062,0.79427 0.49811,0.33617 0.94928,0.73495 1.0026,0.88619 0.0533,0.15123 -0.21456,0.0709 -0.59531,-0.17862 -0.97525,-0.639 -0.86165,-0.18617 0.36607,1.45935 0.58208,0.78017 1.05788,1.54581 1.05734,1.70143 -5.3e-4,0.15562 -0.22902,-0.091 -0.50772,-0.54808 -0.83951,-1.37677 -1.07842,-1.32819 -1.0824,0.2201 -0.002,0.77257 -0.0754,1.67257 -0.16316,1.99999 -0.13322,0.49714 -0.0541,0.59531 0.47987,0.59531 0.35167,0 0.78227,-0.14287 0.9569,-0.3175 z m -2.23052,-0.5424 c 0.24898,-0.92904 0.19208,-2.61018 -0.12727,-3.76047 l -0.29109,-1.04849 -0.36491,1.04849 c -0.2007,0.57667 -0.3667,1.56234 -0.36889,2.19037 -0.006,1.7864 0.79983,2.88486 1.15216,1.5701 z m -10.83862,-5.65219 c 0.12915,-0.33654 0.24334,-0.36061 0.54056,-0.11393 0.84206,0.69885 1.95678,-0.71787 1.17778,-1.49686 -0.2119,-0.21191 -0.13984,-0.33927 0.26458,-0.46762 0.36402,-0.11554 0.5558,-0.3985 0.5558,-0.82004 0,-0.51015 -0.13718,-0.64363 -0.66146,-0.64363 -0.92667,0 -0.83857,-0.68024 0.13193,-1.01856 0.55854,-0.1947 1.20597,-0.19003 2.18728,0.0158 1.19028,0.24967 1.53783,0.22407 2.37928,-0.17522 1.2231,-0.5804 1.06778,-0.93424 -0.32792,-0.74704 -1.33768,0.17942 -2.42637,-0.26949 -2.99723,-1.23587 -0.60459,-1.02349 -0.57392,-1.41288 0.0946,-1.2007 1.04385,0.3313 1.83673,-1.1383 0.89767,-1.66382 -0.34446,-0.19277 -0.35987,-0.3465 -0.0934,-0.93136 0.46637,-1.02356 -0.0791,-1.60793 -1.28906,-1.38095 -0.63677,0.11946 -0.8486,0.0815 -0.71866,-0.12874 0.26833,-0.43416 -0.64171,-1.32312 -1.35449,-1.32312 -0.73588,0 -1.36367,0.95942 -0.91885,1.40424 0.46269,0.46269 0.33764,0.71243 -0.35675,0.71243 -0.35522,0 -0.72009,0.12012 -0.81083,0.26695 -0.2634,0.42619 0.13045,1.32055 0.58153,1.32055 0.31662,0 0.3754,0.18357 0.25368,0.79219 -0.12948,0.64742 -0.0386,0.87072 0.49742,1.22192 0.5335,0.34956 0.73084,0.3675 1.0578,0.0961 0.22107,-0.18347 0.42924,-0.28685 0.46259,-0.22974 0.0334,0.0571 0.3317,0.4908 0.66299,0.96375 l 0.60234,0.85989 h -0.6299 c -0.85358,0 -2.32424,-0.51371 -2.9017,-1.01358 -0.34171,-0.2958 -0.42703,-0.61897 -0.30732,-1.164 0.21066,-0.95916 -0.24891,-1.52658 -1.2364,-1.52658 -0.58766,0 -0.76136,-0.12202 -0.76136,-0.53484 0,-0.31351 -0.27329,-0.65936 -0.66038,-0.83573 -0.5426,-0.24723 -0.75178,-0.21819 -1.17278,0.16282 -0.29675,0.26855 -0.4449,0.63962 -0.35202,0.88166 0.12619,0.32885 0.0519,0.37243 -0.34857,0.2044 -0.64341,-0.26997 -1.44388,-0.23985 -1.74956,0.0658 -0.12962,0.12962 -0.26069,0.58139 -0.29128,1.00393 -0.0451,0.62275 0.10177,0.84725 0.77534,1.18531 0.66531,0.33392 0.78077,0.50675 0.57918,0.86697 -0.45611,0.81503 -0.0125,1.49756 0.97333,1.49756 0.49093,0 0.97058,-0.12618 1.0659,-0.28041 0.11097,-0.17955 0.28847,-0.12292 0.49346,0.15742 0.46436,0.63504 1.59155,0.40932 1.69797,-0.34003 0.10009,-0.70476 0.004,-0.70005 2.13425,-0.10421 l 1.68964,0.4725 -0.99113,0.58478 c -0.76317,0.45028 -1.07495,0.51522 -1.35554,0.28235 -0.53632,-0.44511 -1.16489,-0.0911 -1.16489,0.6561 0,0.47405 -0.16206,0.67438 -0.59531,0.73591 -0.8364,0.11879 -1.01299,1.51467 -0.21792,1.72259 0.34698,0.0907 0.54864,0.35905 0.54864,0.72997 0,0.76475 0.19959,0.93928 1.07413,0.93928 0.41951,0 0.78985,-0.17853 0.88507,-0.42667 z m -0.62973,-1.04576 c 0.35068,-0.92236 0.35541,-0.91506 -0.48439,-0.7471 -0.49889,0.0998 -0.85663,0.0109 -1.0906,-0.27104 -0.30863,-0.37188 -0.25445,-0.40077 0.47719,-0.25445 0.50261,0.10052 0.9808,0.0361 1.22289,-0.16485 0.49324,-0.40935 0.52113,-0.82512 0.043,-0.64166 -0.19496,0.0748 -0.52145,-0.0651 -0.72553,-0.31105 -0.33315,-0.40143 -0.31148,-0.42818 0.2122,-0.26197 0.32079,0.10182 0.81273,0.0623 1.0932,-0.0878 0.41459,-0.22188 0.53553,-0.17515 0.64668,0.24992 0.0861,0.32903 0.36169,0.52285 0.74358,0.52285 0.43887,0 0.52683,0.08 0.31776,0.28909 -0.20497,0.20498 -0.4412,0.20769 -0.81188,0.009 -1.00722,-0.53905 -1.18437,0.49231 -0.26163,1.5232 l 0.59532,0.66509 -0.71125,-0.44497 c -0.67974,-0.42527 -0.71861,-0.42175 -0.87772,0.0796 -0.0916,0.2885 -0.27458,0.52455 -0.40669,0.52455 -0.13925,0 -0.13176,-0.28524 0.0178,-0.67868 z m -2.64434,-4.7585 c -0.004,-0.1528 0.13979,-0.42565 0.32048,-0.60633 0.26163,-0.26164 0.25266,-0.3754 -0.0441,-0.55879 -0.46108,-0.28496 -1.57301,0.11052 -2.04041,0.72572 -0.18913,0.24895 -0.34766,0.31244 -0.3523,0.1411 -0.005,-0.17134 0.30312,-0.55658 0.68388,-0.85608 l 0.69229,-0.54456 -1.15531,-0.49195 c -0.63542,-0.27058 -1.3339,-0.56055 -1.55219,-0.64439 -0.93582,-0.35942 0.50959,-0.17764 1.57423,0.19799 l 1.1116,0.39219 -0.17109,-0.77896 c -0.0941,-0.42843 -0.0472,-0.99187 0.10425,-1.25209 0.22582,-0.38803 0.27679,-0.29154 0.28339,0.53646 0.004,0.55527 0.13129,1.23988 0.28193,1.52135 0.34157,0.63823 1.04764,0.67092 1.05308,0.0488 0.002,-0.25466 0.12851,-0.64161 0.28064,-0.85989 0.20403,-0.29277 0.22972,-0.16024 0.0979,0.50518 -0.14949,0.75493 -0.0766,0.98054 0.44697,1.38318 l 0.6256,0.48112 -0.84675,0.006 c -0.52261,0.004 -0.94999,0.18314 -1.11644,0.46891 -0.14832,0.25466 -0.2733,0.338 -0.27773,0.18521 z m 5.06137,-2.31702 c -0.18994,-0.22886 -0.60458,-0.46658 -0.92144,-0.52826 -0.57377,-0.11169 -0.5737,-0.11229 0.0192,-0.14817 0.88489,-0.0536 0.72852,-0.7938 -0.26458,-1.25252 -0.83568,-0.38601 -0.8385,-0.39274 -0.10033,-0.23875 0.80541,0.16801 0.82086,0.0776 0.27829,-1.62904 -0.14954,-0.47038 -0.14109,-0.47062 0.23952,-0.007 0.21699,0.26447 0.54345,0.98519 0.72545,1.6016 0.30499,1.03294 0.39497,1.11497 1.14842,1.04697 0.72741,-0.0657 0.74567,-0.0516 0.16569,0.12784 -0.37227,0.11516 -0.71465,0.46785 -0.79835,0.8224 -0.13001,0.55072 -0.18552,0.57382 -0.49189,0.20468 z m 0.22225,-2.2783 c 0,-0.26774 1.02944,-0.93593 1.18738,-0.7707 0.046,0.0482 -0.20228,0.3015 -0.55183,0.56295 -0.34955,0.26146 -0.63555,0.35494 -0.63555,0.20775 z m 19.84668,10.02703 c 0.15737,-0.29404 0.21407,-0.65123 0.12599,-0.79375 -0.0881,-0.14251 0.0612,-0.25911 0.33172,-0.25911 1.13272,0 1.5522,-1.4438 0.53155,-1.82954 -0.32742,-0.12375 -0.68938,-0.16947 -0.80435,-0.1016 -0.11498,0.0679 -0.12863,-0.19702 -0.0303,-0.58863 0.12031,-0.47934 0.0589,-0.78789 -0.18783,-0.94416 -0.57139,-0.36187 -1.55827,-0.28063 -1.7203,0.14161 -0.12577,0.32776 -0.27451,0.32081 -1.05003,-0.049 -0.49693,-0.23696 -0.9035,-0.5078 -0.9035,-0.60185 0,-0.094 0.50601,-0.30004 1.12448,-0.45775 0.61846,-0.15771 1.37597,-0.36597 1.68335,-0.46278 0.42598,-0.13417 0.59303,-0.0454 0.70249,0.37313 0.2137,0.8172 0.98706,1.0071 1.50359,0.36921 0.32121,-0.39667 0.65025,-0.50365 1.26958,-0.41275 0.72198,0.10597 0.85909,0.0307 1.00533,-0.55197 0.0931,-0.37107 0.10232,-0.78309 0.0204,-0.9156 -0.0819,-0.13251 0.14502,-0.37485 0.50426,-0.53853 0.75939,-0.346 0.88551,-1.37424 0.2348,-1.91428 -0.32809,-0.27229 -0.52712,-0.27928 -0.92245,-0.0324 -0.65825,0.41108 -0.77585,0.39735 -0.77585,-0.0906 0,-0.44744 -0.99964,-0.92066 -1.52364,-0.72128 -0.18316,0.0697 -0.40442,0.41123 -0.4917,0.75899 -0.0925,0.36858 -0.35391,0.63227 -0.62678,0.63227 -0.67316,0 -1.10161,0.63271 -1.00947,1.49073 0.0729,0.67914 -0.0497,0.79424 -1.44026,1.35194 -0.83599,0.33527 -1.90755,0.6868 -2.38125,0.78117 l -0.86128,0.17157 0.82931,-0.94602 c 0.45611,-0.52032 0.8852,-1.10639 0.95353,-1.3024 0.0965,-0.27695 0.24858,-0.24603 0.6822,0.13874 0.94752,0.84079 2.07958,-0.12095 1.40806,-1.19621 -0.26597,-0.42589 -0.21938,-0.53374 0.31904,-0.73844 0.34676,-0.13184 0.69061,-0.39766 0.76409,-0.59071 0.23408,-0.61491 -0.2779,-1.54162 -0.8517,-1.54162 -0.44755,0 -0.51346,-0.11661 -0.37585,-0.66489 0.21844,-0.87035 -0.2867,-1.45178 -1.26129,-1.45178 -0.62337,0 -0.8293,0.15541 -1.05182,0.79375 -0.28316,0.81227 -0.59601,0.99903 -0.8864,0.52917 -0.27881,-0.45113 -1.15769,-0.29133 -1.45521,0.26458 -0.3528,0.65923 0.0753,1.58481 0.73691,1.59339 0.36892,0.005 0.33787,0.095 -0.1661,0.48264 -0.91943,0.70722 -0.69997,1.71968 0.41027,1.89272 l 0.84879,0.13229 -0.42413,0.87087 c -0.60396,1.24012 -1.53037,1.87047 -3.04413,2.07128 -2.27172,0.30135 -0.83209,0.66379 1.91618,0.4824 2.02468,-0.13362 2.58943,-0.0912 2.84221,0.21334 0.25557,0.30795 0.19028,0.43713 -0.34394,0.68054 -0.79182,0.36078 -0.86634,1.10096 -0.13022,1.29345 0.6181,0.16164 0.62637,0.19278 0.22282,0.83896 -0.52854,0.84633 -0.0828,1.44382 0.95185,1.27592 0.63875,-0.10365 0.94278,-0.0366 1.04534,0.23073 0.2189,0.57045 1.41982,0.46231 1.75166,-0.15775 z m -1.23324,-1.05286 c -0.0873,-0.43656 -0.19798,-0.79375 -0.24594,-0.79375 -0.048,0 -0.39748,0.31028 -0.77671,0.68952 -0.37924,0.37924 -0.76442,0.61462 -0.85596,0.52308 -0.0915,-0.0915 0.0943,-0.34904 0.41291,-0.57223 0.37294,-0.26122 0.57935,-0.68324 0.57935,-1.18454 0,-0.85583 -0.28615,-0.99349 -0.79375,-0.38187 -0.18116,0.21828 -0.45631,0.39687 -0.61146,0.39687 -0.15514,0 -0.0215,-0.24276 0.29699,-0.53947 0.31848,-0.29671 0.57905,-0.62413 0.57905,-0.72761 0,-0.10347 0.52441,-0.18813 1.16536,-0.18813 0.64095,0 1.0279,0.0875 0.8599,0.19439 -0.16801,0.10691 -0.51009,0.19621 -0.76018,0.19844 -0.69474,0.006 -0.28374,0.71919 0.59018,1.02384 0.41497,0.14466 1.0305,0.20432 1.36785,0.13258 0.55581,-0.11821 0.5677,-0.10144 0.12676,0.17868 -0.26763,0.17002 -0.78417,0.25224 -1.14788,0.18271 -0.62361,-0.11921 -0.65174,-0.0755 -0.49361,0.76741 0.0922,0.49161 0.0998,0.89383 0.0168,0.89383 -0.083,0 -0.22234,-0.35719 -0.30965,-0.79375 z m 1.80445,-5.0534 c -0.2329,-0.37293 -0.49307,-0.48026 -0.87233,-0.35989 -0.51726,0.16417 -0.5222,0.14367 -0.11513,-0.4776 0.23393,-0.35702 0.35941,-0.87427 0.27885,-1.14943 -0.098,-0.33471 -0.0428,-0.30326 0.16672,0.095 0.17226,0.32742 0.39562,0.59531 0.49635,0.59531 0.30755,0 1.00341,-0.89445 1.13211,-1.45521 0.0668,-0.29104 0.0975,-0.19663 0.0683,0.2098 -0.0419,0.58264 0.0354,0.70138 0.36569,0.56129 0.23038,-0.0977 0.71652,-0.22783 1.08033,-0.28912 0.65921,-0.11107 0.65899,-0.11003 -0.0666,0.30727 -0.70148,0.40346 -0.71243,0.44253 -0.3003,1.07151 0.26257,0.40074 0.31381,0.65279 0.13271,0.65279 -0.16226,0 -0.29501,-0.17057 -0.29501,-0.37904 0,-0.52416 -0.92547,-0.76901 -1.58087,-0.41826 -0.44843,0.24 -0.49233,0.38414 -0.25314,0.83107 0.38293,0.71552 0.18682,0.88425 -0.23769,0.2045 z m -5.07205,-2.27521 c 0,-0.18105 -0.38695,-0.44091 -0.8599,-0.57746 -0.47294,-0.13656 -0.64371,-0.25903 -0.37948,-0.27215 0.26423,-0.0131 0.69757,0.0924 0.96298,0.2344 0.38687,0.20704 0.5119,0.14609 0.63049,-0.30736 0.21489,-0.82178 -0.26862,-1.53454 -1.16223,-1.71326 -0.42865,-0.0857 -0.77936,-0.26808 -0.77936,-0.40521 0,-0.29876 0.95852,-0.0404 1.78594,0.48142 0.55272,0.34857 0.59557,0.3324 0.59892,-0.22598 0.005,-0.87314 0.2872,-1.79204 0.54987,-1.79204 0.12494,0 0.11106,0.30541 -0.0309,0.67868 -0.14192,0.37328 -0.25804,0.97805 -0.25804,1.34394 0,0.59668 0.0792,0.64786 0.76856,0.49645 0.44088,-0.0968 0.84237,-0.0494 0.94166,0.11127 0.10316,0.16693 -0.08,0.28008 -0.45341,0.28008 -0.34457,0 -0.81122,0.14882 -1.03697,0.33073 -0.41651,0.33559 -0.90916,1.38698 -0.54422,1.16143 0.1093,-0.0676 0.46236,0.0183 0.78456,0.19071 0.53683,0.2873 0.49781,0.31353 -0.46634,0.31353 -0.6627,0 -1.05217,-0.12185 -1.05217,-0.32918 z m -22.84807,7.52705 c -0.67565,-0.89383 -1.92676,-3.2753 -2.66825,-5.07899 -0.49199,-1.19678 -1.6427,-2.79237 -2.01381,-2.79237 -0.35605,0 -0.31191,3.04302 0.0623,4.29187 0.25061,0.83646 0.60833,1.23391 1.78594,1.98425 0.8099,0.51605 1.86365,1.27957 2.34166,1.69671 1.13665,0.9919 1.29414,0.95944 0.4922,-0.10147 z m 50.18034,-1.45521 c -2.6485,-4.14723 -6.4845,-8.35505 -9.86977,-10.82647 -1.5904,-1.16107 -5.41236,-3.52718 -5.69744,-3.52718 -0.098,0 0.1922,0.42188 0.64492,0.9375 2.08315,2.37257 3.38039,6.61506 3.06267,10.01609 l -0.17551,1.8787 3.26549,0.007 c 3.77359,0.009 6.16553,0.61826 8.34613,2.12758 0.69815,0.48323 1.29765,0.88516 1.33222,0.89318 0.0346,0.008 -0.37434,-0.67003 -0.90871,-1.50678 z m -64.37394,-1.52763 c 1.01872,-0.33461 2.26607,-0.4781 4.15852,-0.47839 l 2.70332,-5.3e-4 -0.15434,-1.47725 c -0.29769,-2.84941 0.98475,-7.69585 2.47102,-9.33815 0.97753,-1.08016 0.006,-0.6383 -2.45876,1.11797 -3.6063,2.57007 -5.03953,3.85068 -7.32726,6.54715 -1.73037,2.03953 -4.41958,5.84625 -4.41958,6.25615 0,0.0807 0.80367,-0.36977 1.78593,-1.0011 0.98227,-0.63134 2.44079,-1.36297 3.24115,-1.62585 z m 27.91224,2.52031 c 0.81666,-0.31049 0.6468,-0.79424 -0.2789,-0.79424 -0.35521,0 -0.64584,-0.10792 -0.64584,-0.23982 0,-0.13189 0.23813,-0.17754 0.52917,-0.10143 0.61673,0.16128 0.70026,-0.24572 0.145,-0.70654 -0.5521,-0.4582 -1.33563,-0.22944 -1.33563,0.38995 0,0.28905 -0.22195,0.61603 -0.49322,0.72663 -0.4031,0.16434 -0.43344,0.27311 -0.16604,0.59531 0.3789,0.45655 1.25361,0.50724 2.24546,0.13014 z m -19.1098,-3.10935 c -0.42578,-1.52252 -0.20766,-4.89393 0.43985,-6.79839 0.5335,-1.56913 0.89919,-2.11047 2.50424,-3.70705 1.66707,-1.65828 2.11876,-1.95106 3.99618,-2.59029 1.16417,-0.39638 2.60911,-0.79509 3.21098,-0.88601 1.46951,-0.22198 4.67159,0.32648 6.38086,1.09294 1.89954,0.85177 4.10149,2.99093 4.83744,4.69947 0.63151,1.46608 0.81513,3.8705 0.41325,5.41121 -0.20831,0.79859 -0.17771,0.85989 0.42922,0.85989 1.24125,0 1.61255,-0.79467 1.47571,-3.15844 -0.22733,-3.92695 -2.26632,-6.84681 -6.11199,-8.75241 -4.34389,-2.15248 -8.47417,-1.89874 -13.14901,0.80782 -2.79038,1.61552 -4.22696,3.55919 -5.30426,7.17656 -0.9045,3.03715 -0.5218,6.57231 0.71149,6.57231 0.27605,0 0.31805,-0.18405 0.16604,-0.72761 z m 21.31654,-3.86727 c 0.27351,-0.99057 -0.13305,-3.69283 -0.51964,-3.45391 -0.26787,0.16556 -0.31651,3.90592 -0.0542,4.16823 0.27656,0.27656 0.31265,0.23164 0.57384,-0.71432 z m -2.87956,-5.03122 0.60259,-1.48467 -0.62569,-0.53604 c -0.98876,-0.84708 -2.37801,-1.50774 -4.11934,-1.95896 -4.00161,-1.03692 -8.32198,0.12431 -10.96159,2.94627 -1.32698,1.41865 -1.66136,1.95078 -2.21902,3.53136 l -0.36952,1.04732 0.71668,-0.1647 c 0.39417,-0.0906 1.84777,-0.76204 3.23022,-1.49212 3.28277,-1.73366 5.02674,-2.31653 6.93113,-2.31653 2.61718,0 4.69352,1.51974 5.53299,4.04975 l 0.36817,1.10962 0.1554,-1.62331 c 0.0855,-0.89282 0.42656,-2.29142 0.75798,-3.10799 z m 6.35851,2.23321 c 0.52344,-1.94395 3.42864,-3.72893 5.382,-3.30676 1.08254,0.23396 3.08292,1.2453 4.67097,2.36151 2.10126,1.47694 3.32121,1.98814 4.74464,1.98814 h 1.32079 l -0.45035,-1.21863 c -1.03741,-2.80719 -4.52005,-5.79868 -7.49297,-6.43625 -2.17468,-0.46639 -4.79389,-0.3505 -6.50735,0.28791 -1.56432,0.58285 -3.34591,1.58658 -3.62893,2.04452 -0.0868,0.14039 0.13902,0.81341 0.50175,1.4956 0.36272,0.6822 0.7367,1.82231 0.83106,2.5336 0.0943,0.71129 0.21115,1.29325 0.25956,1.29325 0.0484,0 0.21438,-0.4693 0.36883,-1.04289 z m -2.7057,-6.90875 c 1.22661,-0.90206 4.9882,-2.36711 6.07768,-2.36711 1.28947,0 0.25219,-0.45809 -1.64803,-0.72781 -3.00224,-0.42614 -6.6669,-0.39184 -9.95501,0.0932 l -3.07584,0.45371 2.11655,0.7329 c 1.1641,0.40309 2.78635,1.15419 3.605,1.66912 0.81865,0.51492 1.5543,0.9402 1.63478,0.94506 0.0805,0.005 0.64066,-0.35472 1.24487,-0.79906 z m -48.55757,35.20372 c 0.0532,-0.27978 0.48462,-0.42047 1.46209,-0.47685 l 1.38658,-0.08 v -1.18436 c 0,-1.85404 1.24801,-7.60002 2.40895,-11.09111 2.60132,-7.82251 7.53754,-14.73529 14.49054,-20.29285 4.43974,-3.5487 8.12207,-5.55908 13.39531,-7.31322 3.89363,-1.29521 6.70816,-1.96441 9.71061,-2.30885 l 1.50853,-0.17306 0.079,-1.33938 c 0.0457,-0.77523 0.21827,-1.38529 0.4097,-1.44837 0.2435,-0.0802 0.33073,0.38028 0.33073,1.7461 v 1.85509 l -1.52136,0.16299 c -7.90691,0.8471 -14.34041,3.18324 -21.30426,7.73604 -2.79201,1.82535 -9.292,8.40042 -11.20349,11.33291 -4.18517,6.42063 -6.82998,13.83167 -7.45527,20.89051 l -0.1875,2.11667 -1.79282,0.13229 c -1.49704,0.11047 -1.78036,0.0668 -1.71731,-0.26458 z m 94.67998,0.0661 c -0.014,-0.22197 -0.49946,-0.33073 -1.4761,-0.33073 -0.80036,0 -1.4552,-0.0554 -1.4552,-0.1232 0,-0.96374 -0.98717,-6.69597 -1.48243,-8.60805 -2.17081,-8.38102 -5.87551,-14.83724 -11.93255,-20.79498 -3.94065,-3.87603 -9.46448,-7.47068 -14.36627,-9.34887 -3.49915,-1.34075 -9.34491,-2.66143 -12.8323,-2.89909 l -2.38125,-0.16227 -0.0782,-1.78594 c -0.0643,-1.46832 -0.005,-1.78594 0.33073,-1.78594 0.31932,0 0.40896,0.31896 0.40896,1.45521 v 1.45521 l 1.25677,8.5e-4 c 2.58001,0.002 10.45532,1.71433 13.97454,3.03896 2.16803,0.81605 5.67635,2.58087 7.24237,3.64321 2.19676,1.4902 6.47282,5.11817 8.16355,6.92625 6.22886,6.66123 10.60726,15.42838 11.82862,23.6852 0.74368,5.02755 0.54389,4.5097 1.73986,4.5097 1.06337,0 1.50254,0.4029 1.21618,1.11575 -0.10532,0.26218 -0.14112,0.26417 -0.15725,0.009 z m -48.90266,-45.75687 c 0.25466,-0.0666 0.67138,-0.0666 0.92604,0 0.25466,0.0666 0.0463,0.121 -0.46302,0.121 -0.50932,0 -0.71768,-0.0545 -0.46302,-0.121 z"
       id="path23961" />
  </g>
</svg>
