<?xml version="1.0" encoding="UTF-8" standalone="no"?>
<!-- Created with Inkscape (http://www.inkscape.org/) -->

<svg
   width="99.441223mm"
   height="62.522949mm"
   viewBox="0 0 99.441223 62.522962"
   version="1.1"
   id="svg997"
   inkscape:version="1.1 (c4e8f9ed74, 2021-05-24)"
   sodipodi:docname="ornament15.svg"
   xmlns:inkscape="http://www.inkscape.org/namespaces/inkscape"
   xmlns:sodipodi="http://sodipodi.sourceforge.net/DTD/sodipodi-0.dtd"
   xmlns="http://www.w3.org/2000/svg"
   xmlns:svg="http://www.w3.org/2000/svg">
  <sodipodi:namedview
     id="namedview999"
     pagecolor="#ffffff"
     bordercolor="#666666"
     borderopacity="1.0"
     inkscape:pageshadow="2"
     inkscape:pageopacity="0.0"
     inkscape:pagecheckerboard="0"
     inkscape:document-units="mm"
     showgrid="false"
     inkscape:zoom="1.5385816"
     inkscape:cx="-14.623859"
     inkscape:cy="274.60357"
     inkscape:window-width="2506"
     inkscape:window-height="1403"
     inkscape:window-x="1974"
     inkscape:window-y="0"
     inkscape:window-maximized="1"
     inkscape:current-layer="layer1" />
  <defs
     id="defs994" />
  <g
     inkscape:label="Layer 1"
     inkscape:groupmode="layer"
     id="layer1"
     transform="translate(-142.45941,-105.97787)">
    <path
       style="fill:#000000;stroke-width:0.264583"
       d="m 195.23439,168.2994 c -1.10145,-0.28169 -1.80918,-0.91978 -1.03008,-0.92873 0.26442,-0.003 0.25338,-0.0681 -0.0441,-0.25965 -0.28208,-0.18166 -0.49015,-0.13087 -0.71934,0.17561 -0.26932,0.36014 -0.39133,0.37404 -0.74037,0.0844 -0.50822,-0.42179 -0.41751,-1.29879 0.17258,-1.66854 0.31798,-0.19924 0.78681,-0.11874 1.76884,0.30371 1.65203,0.71069 1.63495,0.71122 1.63495,-0.0512 0,-0.52247 -0.25541,-0.71913 -1.54433,-1.18909 -1.84289,-0.67196 -2.08345,-1.08745 -2.05108,-3.54275 0.0129,-0.98228 -0.0495,-1.78596 -0.13867,-1.78594 -0.0892,2e-5 -0.22434,0.77392 -0.30026,1.71977 -0.17232,2.14671 -0.66524,2.92647 -2.11615,3.34753 -1.41745,0.41135 -2.31617,0.97223 -2.31617,1.44546 0,0.42141 0.68217,0.49645 0.92604,0.10186 0.25641,-0.41488 1.90157,-0.30958 2.36235,0.1512 0.81179,0.81178 0.14482,2.43164 -0.86875,2.10995 -0.29131,-0.0925 -1.40138,-0.20306 -2.46683,-0.24579 -2.13018,-0.0854 -3.29629,-0.54731 -4.16278,-1.64888 -0.66012,-0.8392 -0.694,-1.36967 -0.13817,-2.16323 0.50877,-0.72638 2.24796,-1.64283 3.11766,-1.64283 0.79877,0 1.9123,-0.86187 1.65383,-1.28007 -0.38982,-0.63075 -1.79726,-0.32939 -2.97721,0.63749 -1.95366,1.60088 -3.70343,1.83385 -5.79471,0.77154 -2.36734,-1.20255 -3.10197,-3.15088 -1.86931,-4.9576 0.52847,-0.77459 0.58783,-0.99219 0.27069,-0.99219 -0.22343,0 -1.26217,-0.39546 -2.3083,-0.87881 -1.80818,-0.83543 -1.9477,-0.8601 -2.82693,-0.49993 -0.76844,0.3148 -1.22854,0.32483 -2.72025,0.0593 l -1.79538,-0.31953 -1.37962,0.94443 c -2.15142,1.47279 -3.56205,1.65791 -7.28325,0.95581 -1.70071,-0.32088 -4.00892,-0.92767 -5.12934,-1.34841 -1.12042,-0.42074 -2.09926,-0.76499 -2.17519,-0.76499 -0.0759,0 -1.0443,-0.53578 -2.15192,-1.19062 -1.10762,-0.65484 -2.07649,-1.19063 -2.15304,-1.19063 -0.35698,0 -2.98149,-2.91414 -3.63367,-4.03466 -0.40224,-0.69109 -1.00471,-2.43965 -1.33883,-3.88568 -0.54431,-2.35572 -0.58831,-3.00924 -0.42306,-6.28409 0.1599,-3.16896 0.27658,-3.84843 0.87756,-5.11015 0.38122,-0.80036 0.76245,-1.7776 0.84718,-2.17164 0.0965,-0.44885 0.58286,-1.01147 1.30218,-1.50638 2.12771,-1.46389 2.49754,-2.85761 1.48233,-5.58613 -0.29704,-0.79831 -0.65895,-2.4635 -0.80427,-3.70043 -0.36701,-3.12408 -0.0489,-3.8671 2.7418,-6.40416 1.19592,-1.08722 2.41252,-2.09972 2.70356,-2.25001 0.29105,-0.15029 1.79596,-0.35526 3.34427,-0.45549 3.19851,-0.20706 4.23784,0.0594 5.21999,1.33854 0.32082,0.41781 1.19841,1.17638 1.9502,1.6857 1.89558,1.28421 2.95884,2.86276 3.01246,4.47237 0.0232,0.69549 0.24599,1.65875 0.49515,2.14058 0.24917,0.48183 0.78356,2.19736 1.18755,3.81228 0.40399,1.61493 0.8285,3.16412 0.94335,3.44266 0.1535,0.37224 0.12103,0.45215 -0.12257,0.3016 -0.58333,-0.36052 0.39547,1.25459 1.19393,1.9701 0.70208,0.62913 0.69684,0.60787 -0.10715,-0.43495 -1.23283,-1.59906 -1.02257,-1.75627 0.34562,-0.25843 0.64859,0.71005 1.10382,1.41305 1.01162,1.56223 -0.0922,0.14918 -0.0422,0.19374 0.11104,0.099 0.15327,-0.0947 0.79674,0.0629 1.42994,0.35018 0.74753,0.33921 1.6616,0.51081 2.60648,0.48933 l 1.45521,-0.0331 -1.51039,-0.1618 c -0.83071,-0.089 -1.6582,-0.30961 -1.83885,-0.49027 -0.18066,-0.18065 -0.58774,-0.32846 -0.90462,-0.32846 -0.31688,0 -0.73955,-0.20089 -0.93927,-0.44642 -0.32266,-0.39666 -0.30416,-0.42422 0.16604,-0.24725 0.29105,0.10953 1.48339,0.2666 2.64966,0.34902 l 2.1205,0.14986 1.02086,-1.12997 c 0.95983,-1.06242 1.01186,-1.20597 0.8703,-2.40124 -0.14195,-1.19858 -0.0984,-1.31703 0.76125,-2.07184 0.50149,-0.44032 0.91181,-0.88791 0.91181,-0.99465 0,-0.10674 -0.45399,0.24923 -1.00886,0.79105 -0.55487,0.54181 -1.09065,0.90332 -1.19062,0.80335 -0.33609,-0.3361 -0.18377,-1.27736 0.35768,-2.21025 0.53718,-0.92552 0.53718,-0.92569 0.002,-0.30502 -0.29455,0.34156 -0.66871,1.06545 -0.83145,1.60864 -0.16274,0.5432 -0.67007,1.41514 -1.1274,1.93765 -0.75381,0.86127 -0.99717,0.96619 -2.6047,1.12303 l -1.77321,0.17301 -1.20335,-1.20336 c -0.66177,-0.66184 -1.20328,-1.0796 -1.20328,-0.92834 0,0.62289 0.60518,1.3208 1.70339,1.9644 1.08321,0.6348 1.29844,0.6677 3.08312,0.47132 1.76248,-0.19394 1.95437,-0.27572 2.35778,-1.00487 0.64771,-1.17071 1.32237,-1.20032 1.32237,-0.058 0,1.47135 -0.89215,2.19921 -2.96811,2.42153 -2.20248,0.23586 -3.56957,-0.12632 -4.72973,-1.25304 -0.72948,-0.70847 -0.99513,-1.27777 -1.3894,-2.97758 -0.26811,-1.15589 -0.60992,-2.25046 -0.75959,-2.43236 -0.19223,-0.23363 -0.17408,-0.33073 0.0618,-0.33073 0.18368,0 0.49212,0.20836 0.68544,0.46302 0.19332,0.25466 0.35527,0.32478 0.3599,0.15582 0.005,-0.16897 -0.36588,-0.62216 -0.82335,-1.0071 -0.59659,-0.502 -0.75081,-0.78083 -0.54545,-0.98619 0.36183,-0.36183 1.90456,1.10572 1.91023,1.81712 0.007,0.84108 0.80728,2.84158 1.38463,3.45994 0.69632,0.74576 1.25735,0.76517 1.25735,0.0435 0,-0.96436 1.6827,-3.98356 2.71198,-4.86601 0.5457,-0.46786 0.99219,-0.94705 0.99219,-1.06488 0,-0.11782 -0.29954,-0.60694 -0.66564,-1.08692 -0.3661,-0.47999 -0.73817,-1.23537 -0.82682,-1.67862 -0.0887,-0.44326 -0.31325,-0.80593 -0.49911,-0.80593 -0.18585,0 -0.46557,-0.36618 -0.62159,-0.81373 -0.23736,-0.6809 -0.38196,-0.78468 -0.88577,-0.63574 -1.20904,0.35743 -2.54293,1.44698 -3.67596,3.00258 -1.10651,1.51919 -1.79272,2.0903 -1.45541,1.21128 0.0904,-0.23546 0.046,-0.34167 -0.10398,-0.24897 -0.57698,0.35659 -0.20606,-0.54616 0.72725,-1.76999 2.34254,-3.07175 6.45477,-4.4692 8.74177,-2.9707 0.344,0.2254 1.08858,0.57322 1.65463,0.77293 1.00609,0.35497 1.04395,0.34555 1.68811,-0.42 0.56271,-0.66874 0.63785,-0.96595 0.51448,-2.03507 -0.13104,-1.13558 -0.0714,-1.3213 0.64187,-1.99782 0.62847,-0.5961 1.06924,-0.76016 2.19524,-0.8171 1.2849,-0.065 1.42586,-0.13471 1.60176,-0.79241 0.30048,-1.12355 0.70867,-1.46239 3.12571,-2.5947 2.51829,-1.17975 3.81104,-1.24086 4.88599,-0.231 0.74799,0.7027 0.75802,0.70127 1.70218,-0.24289 0.89747,-0.89747 2.42416,-1.07544 3.33242,-0.38846 0.28247,0.21365 0.76774,0.38846 1.07836,0.38846 0.59188,0 1.5178,0.85516 1.80508,1.66714 0.0927,0.26208 0.67922,0.70239 1.30333,0.97847 0.62411,0.27607 1.38549,0.77601 1.69197,1.11098 0.65384,0.71462 1.41288,2.14712 1.41288,2.66644 0,0.20014 0.30508,0.65051 0.67797,1.00082 0.37288,0.3503 0.91837,1.0259 1.2122,1.50132 0.29383,0.47543 0.67833,0.86441 0.85444,0.86441 0.17612,0 0.85102,-0.54517 1.49978,-1.21148 l 1.17956,-1.21149 1.85209,0.0902 c 1.25884,0.0613 2.21147,0.27809 2.97409,0.67678 1.40104,0.73247 3.20102,2.37386 3.54166,3.22963 l 0.25778,0.6476 0.45098,-0.68748 c 0.24804,-0.37812 0.90231,-1.11313 1.45392,-1.63338 0.55162,-0.52024 1.23276,-1.46543 1.51365,-2.10043 1.34946,-3.05068 4.85047,-4.43419 8.06417,-3.18675 0.58208,0.22595 1.74853,0.50606 2.5921,0.62247 2.2309,0.30786 3.78743,1.52127 5.60251,4.36746 0.67003,1.05067 0.91319,2.79295 0.66691,4.77873 -0.15755,1.27042 -0.40615,1.88708 -1.15764,2.8716 -1.4036,1.83881 -1.32412,2.67031 0.43861,4.58895 0.76759,0.83548 1.92231,2.47155 2.56605,3.63572 l 1.17043,2.11666 0.01,3.83646 c 0.0107,4.29956 -0.25229,5.39672 -1.88411,7.86001 -0.86561,1.30664 -1.58375,3.1624 -1.32423,3.42192 0.0659,0.0659 0.20172,-0.20658 0.30183,-0.60548 0.28195,-1.12335 0.93138,-2.57103 1.08463,-2.41779 0.16231,0.16231 -1.04701,4.4436 -1.49826,5.30422 -1.0829,2.06528 -5.42823,6.47244 -7.1889,7.2912 -1.80737,0.84047 -3.92223,1.34241 -6.38506,1.51542 -1.176,0.0826 -2.53833,0.27608 -3.0274,0.42992 -1.09674,0.34501 -3.05415,0.1053 -4.9585,-0.6072 -1.7235,-0.64485 -2.66696,-1.85053 -2.91577,-3.72621 -0.0918,-0.69214 -0.31507,-1.46101 -0.49611,-1.7086 -0.30181,-0.41275 -0.44748,-0.37166 -1.7525,0.49432 -0.78282,0.51948 -1.92933,1.20815 -2.54779,1.53039 -1.07789,0.56162 -1.12445,0.63686 -1.12375,1.81595 0.002,2.90482 -2.16609,4.80193 -5.48718,4.80193 -1.15624,0 -2.00107,-0.16462 -2.71564,-0.52917 -1.45764,-0.74363 -1.51454,-0.67312 -0.42766,0.52993 2.50808,2.77614 -0.27357,5.92726 -4.31899,4.89267 z m 3.00324,-0.62187 c 0.0769,-0.1245 -0.15416,-0.17015 -0.51355,-0.10145 -0.3594,0.0687 -0.65346,0.17056 -0.65346,0.22636 0,0.20472 1.03152,0.0943 1.16701,-0.12491 z m -8.04617,-0.30281 c 0,-0.14552 -0.11204,-0.26458 -0.24897,-0.26458 -0.13693,0 -0.32255,0.11906 -0.41249,0.26458 -0.0899,0.14552 0.0221,0.26458 0.24897,0.26458 0.22687,0 0.41249,-0.11906 0.41249,-0.26458 z m 9.40679,-0.83813 c 0.26369,-0.83082 5.3e-4,-0.80514 -0.50401,0.0492 -0.38322,0.64873 -0.39386,0.7561 -0.0623,0.62887 0.21989,-0.0844 0.47473,-0.38951 0.56632,-0.67808 z m -15.24047,-0.50879 c -0.34821,-0.65063 0.079,-1.94869 0.77515,-2.35547 0.23557,-0.13765 0.28813,-0.25389 0.11679,-0.25831 -0.46379,-0.012 -1.40826,1.3019 -1.40826,1.95909 0,0.31507 0.14287,0.71574 0.3175,0.89036 0.46694,0.46695 0.53296,0.38868 0.19882,-0.23567 z m 0.56447,-0.5329 c -0.23309,-0.5827 -0.25485,-0.58934 -0.27027,-0.0825 -0.009,0.30317 0.0626,0.6306 0.15962,0.72761 0.31601,0.31601 0.36976,0.003 0.11065,-0.6451 z m 12.41296,0.1801 c 0,-0.61688 -1.12366,-1.79428 -2.09495,-2.19515 -0.52127,-0.21514 -1.15612,-0.57635 -1.41078,-0.80269 -0.28519,-0.25348 -0.46302,-0.29504 -0.46302,-0.10821 0,0.16683 0.6623,0.67711 1.47179,1.13396 1.55611,0.87821 2.40778,1.85102 2.08201,2.37814 -0.12399,0.20062 -0.0838,0.24775 0.10948,0.12831 0.16801,-0.10383 0.30547,-0.3443 0.30547,-0.53436 z m -8.81446,-2.00291 1.53842,-0.19674 -1.46249,-0.0347 c -1.57012,-0.0372 -2.41128,0.35475 -2.93538,1.36794 -0.25063,0.48451 -0.16537,0.45458 0.51005,-0.17901 0.61332,-0.57534 1.18594,-0.80871 2.3494,-0.9575 z m 10.5827,0.74261 c -0.0845,-0.21107 -0.14716,-0.14838 -0.15985,0.15985 -0.0115,0.27891 0.051,0.43518 0.13896,0.34726 0.0879,-0.0879 0.0973,-0.31612 0.0209,-0.50711 z m -2.37831,-0.89895 c -0.4083,-0.35142 -0.91397,-0.63895 -1.12372,-0.63895 -0.20974,0 -0.85795,-0.43057 -1.44045,-0.95682 -0.60214,-0.544 -1.05832,-0.80086 -1.05729,-0.59532 0.002,0.40134 1.18112,1.24724 2.73447,1.96171 0.55907,0.25714 1.07979,0.63251 1.15717,0.83415 0.0774,0.20163 0.21526,0.29181 0.30643,0.2004 0.0912,-0.0914 -0.16831,-0.45374 -0.57661,-0.80517 z m -5.61394,-1.06732 c 0.23561,-0.2356 0.36884,-0.4879 0.29608,-0.56066 -0.0728,-0.0728 -0.32506,0.0605 -0.56066,0.29608 -0.52305,0.52304 -0.77406,0.53626 -1.24477,0.0656 -0.30736,-0.30737 -0.45626,-0.28715 -0.97425,0.1323 l -0.61143,0.4951 h 1.33333 c 0.87597,0 1.48026,-0.14693 1.7617,-0.42837 z m 10.81016,0.18197 c -1.10477,-0.18056 -3.11462,-1.36593 -3.34823,-1.97472 -0.0685,-0.17844 -0.61315,-0.47085 -1.21038,-0.64978 -0.59723,-0.17894 -1.08588,-0.43962 -1.08588,-0.5793 0,-0.31028 0.59475,-0.33414 0.93927,-0.0377 0.13825,0.11896 0.86763,0.36583 1.62084,0.5486 2.1329,0.51755 4.10421,0.0604 5.07806,-1.17769 0.67041,-0.85228 0.67817,-0.92395 0.17171,-1.58715 -0.36851,-0.48258 -0.38322,-0.46529 -0.24352,0.28624 0.17236,0.92722 -0.3047,1.46589 -1.71886,1.94083 -1.66114,0.55788 -3.63475,0.25568 -5.86618,-0.89824 -0.9995,-0.51687 -1.5734,-0.48876 -1.54793,0.0758 0.0125,0.2766 0.0746,0.32986 0.15434,0.13229 0.0734,-0.1819 0.30213,-0.33073 0.50828,-0.33073 0.46266,0 0.49874,0.70685 0.0441,0.8639 -0.1819,0.0628 0.29938,0.38725 1.06952,0.72091 0.77014,0.33365 1.55102,0.8219 1.7353,1.085 0.6052,0.86404 2.61052,1.82384 3.74362,1.7918 l 1.05833,-0.0299 z m 1.95677,0.0865 c -0.0879,-0.0879 -0.31612,-0.0973 -0.50712,-0.0209 -0.21106,0.0845 -0.14837,0.14715 0.15986,0.15985 0.27891,0.0115 0.43518,-0.0511 0.34726,-0.13897 z m -19.69648,-0.75074 c 0.32222,-0.23644 0.99041,-0.72359 1.48487,-1.08256 1.14736,-0.83297 1.89872,-0.82464 2.91714,0.0323 l 0.81405,0.68498 v -0.598 c 0,-0.9057 -0.74958,-1.56571 -1.7782,-1.56571 -1.132,0 -1.7808,0.33014 -3.11659,1.58587 -0.58209,0.54719 -1.2667,0.9897 -1.52136,0.98334 -0.45674,-0.0114 -0.68146,-0.45254 -0.23053,-0.45254 0.12786,0 0.37645,-0.34758 0.55242,-0.7724 0.17596,-0.42482 0.73507,-1.15016 1.24245,-1.61187 0.50738,-0.46171 0.85027,-0.91172 0.76197,-1.00002 -0.19324,-0.19324 -2.52475,2.19014 -2.52475,2.58092 0,0.50891 -1.05363,1.33253 -1.70466,1.33253 -0.79387,0 -2.45028,-0.94665 -2.80009,-1.60027 -0.14176,-0.26488 -0.26136,-0.87638 -0.26579,-1.35889 -0.007,-0.7361 -0.0524,-0.80115 -0.28339,-0.40417 -0.61103,1.04996 0.24494,2.53681 2.01123,3.49355 0.98321,0.53258 3.57524,0.38839 4.44123,-0.24706 z m 21.62013,0.0507 c 0.47956,-0.32742 1.05044,-0.89297 1.26864,-1.25677 0.38469,-0.64139 0.37748,-0.63994 -0.23747,0.0475 -0.34881,0.38994 -1.05092,0.95504 -1.56024,1.25578 -0.50933,0.30074 -0.79483,0.54725 -0.63444,0.54779 0.16038,5.3e-4 0.68396,-0.2669 1.16351,-0.59432 z m -7.94409,-0.60336 c -0.19067,-0.22975 -0.59459,-0.54571 -0.8976,-0.70215 -0.41765,-0.21563 -0.36358,-0.0848 0.22354,0.54085 0.77124,0.82186 1.33404,0.95652 0.67406,0.1613 z m 23.81918,-1.21159 c 0.34492,-0.24811 0.34136,-0.26795 -0.0272,-0.1515 -0.47555,0.15027 -3.48398,-0.60493 -4.4129,-1.10776 -0.96395,-0.52178 -2.17451,-2.38805 -2.17451,-3.35232 0,-0.82678 -0.85486,-2.26345 -1.16385,-1.95594 -0.0831,0.0827 0.0853,0.61387 0.3741,1.18042 0.28884,0.56655 0.52517,1.38062 0.52517,1.80906 0,0.94859 1.11801,2.4832 2.07652,2.85028 1.09054,0.41764 3.29056,0.98509 3.8766,0.99989 0.29104,0.007 0.70776,-0.11511 0.92604,-0.27213 z m -41.79733,-1.03112 -0.21725,-0.92424 -0.0271,0.81579 c -0.0149,0.4487 0.0523,0.89518 0.1493,0.99219 0.29786,0.29786 0.32137,0.0792 0.095,-0.88374 z m 2.78819,0.13409 c 0.46652,-0.50932 0.73024,-0.92604 0.58603,-0.92604 -0.1442,0 -0.50142,0.30413 -0.79382,0.67586 -0.72251,0.91853 -1.60782,0.78179 -1.80633,-0.27899 -0.13854,-0.74027 -0.16192,-0.75432 -0.34709,-0.20843 -0.2643,0.77916 0.23852,1.66364 0.94577,1.66364 0.31197,0 0.94892,-0.41672 1.41544,-0.92604 z m 43.04404,0.48623 c -0.1819,-0.0734 -0.47956,-0.0734 -0.66146,0 -0.1819,0.0734 -0.0331,0.13345 0.33073,0.13345 0.3638,0 0.51263,-0.06 0.33073,-0.13345 z m -34.6874,-1.43377 c -0.7135,-0.57775 -2.67072,-0.86518 -3.56811,-0.52399 -0.89595,0.34064 -0.9183,0.60926 -0.0322,0.38686 0.89569,-0.22481 2.88805,0.35445 3.48175,1.01227 0.44793,0.49631 0.48196,0.4992 0.57201,0.0487 0.0527,-0.26348 -0.1514,-0.67919 -0.45346,-0.92379 z m 37.39938,0.97319 c 2.83825,-0.78298 4.14887,-1.60458 6.64521,-4.16573 2.32789,-2.38835 3.55399,-4.18636 3.52955,-5.17594 -0.007,-0.28262 -0.23643,-0.0468 -0.56905,0.58477 -1.08592,2.06201 -4.56624,5.74442 -6.54993,6.93028 -0.53388,0.31915 -1.91608,0.89656 -3.07157,1.28312 -1.15548,0.38657 -2.15049,0.75052 -2.21112,0.80879 -0.23494,0.22576 0.96509,0.0828 2.22691,-0.26529 z M 199.45187,158.908 c -0.51815,-0.33485 -0.86841,-0.33485 -0.66145,0 0.0899,0.14553 0.36485,0.26277 0.61092,0.26054 0.38557,-0.004 0.39256,-0.0395 0.0505,-0.26054 z m 3.00703,-0.28378 c 0.65144,-0.51242 0.97112,-1.5683 0.47483,-1.5683 -0.12227,0 -0.86641,0.35503 -1.65365,0.78896 -1.42754,0.78686 -1.31828,1.15029 0.12027,0.40004 0.95964,-0.50049 1.25013,-0.50004 1.05762,0.002 -0.0838,0.21829 -0.40745,0.3987 -0.7193,0.40093 -0.31185,0.002 -0.7456,0.11947 -0.96388,0.26053 -0.31198,0.20162 -0.24886,0.25735 0.29505,0.26053 0.38056,0.002 1.00563,-0.24271 1.38906,-0.54431 z m 16.70443,-0.0833 c -1.28223,-0.60721 -2.82779,-1.99746 -3.12163,-2.80795 -0.0829,-0.22864 -0.15274,-0.10006 -0.16477,0.30333 -0.0337,1.12837 2.54295,3.10074 4.08015,3.12332 0.29514,0.004 -0.0559,-0.26929 -0.79375,-0.6187 z m 6.68146,-0.32665 c 1.42488,-0.42199 2.50856,-0.93203 3.11897,-1.46798 0.98404,-0.86399 2.06543,-2.54429 2.35492,-3.65915 0.0945,-0.3638 -0.28012,0.16995 -0.83242,1.18611 -0.56884,1.04659 -1.36195,2.08605 -1.82944,2.39768 -0.45389,0.30257 -2.04698,0.82713 -3.5402,1.16569 -2.33403,0.5292 -2.88642,0.57271 -3.93724,0.31008 -2.04497,-0.51109 -2.41292,-0.57756 -2.41292,-0.43588 0,0.12766 1.76876,0.98599 2.64583,1.28394 0.57693,0.19599 1.95408,-0.0465 4.4325,-0.78049 z m -32.87521,0.42912 c 0.0931,-0.15065 -0.13475,-0.26458 -0.52916,-0.26458 -0.39442,0 -0.62228,0.11393 -0.52917,0.26458 0.0899,0.14552 0.32806,0.26458 0.52917,0.26458 0.2011,0 0.43923,-0.11906 0.52916,-0.26458 z m 33.46979,0 c 0.48365,-0.31256 0.0659,-0.31256 -0.66146,0 -0.34891,0.14994 -0.39398,0.23235 -0.13229,0.24194 0.21828,0.008 0.57547,-0.10087 0.79375,-0.24194 z m -28.42713,-0.40529 c -0.28247,-0.21365 -0.63966,-0.38467 -0.79375,-0.38004 -0.15409,0.005 -0.049,0.18322 0.23343,0.39687 0.28248,0.21365 0.63966,0.38468 0.79375,0.38005 0.15409,-0.005 0.049,-0.18323 -0.23343,-0.39688 z m -16.55203,-0.24055 c 0,-0.0642 -0.11906,-0.19026 -0.26459,-0.2802 -0.14552,-0.0899 -0.26458,-0.0374 -0.26458,0.11668 0,0.1541 0.11906,0.28019 0.26458,0.28019 0.14553,0 0.26459,-0.0525 0.26459,-0.11667 z m 12.53041,-0.27273 c 0.34984,-0.265 0.88463,-0.3264 1.85208,-0.21266 1.26487,0.14871 1.33387,0.12798 0.9844,-0.29575 -0.20669,-0.25062 -0.78871,-0.62819 -1.29336,-0.83905 -0.50465,-0.21086 -1.31433,-0.80409 -1.79928,-1.31829 l -0.88174,-0.93491 -0.16141,0.64312 c -0.17408,0.69358 -1.28637,1.84541 -2.03683,2.10923 -0.68243,0.2399 -0.57208,0.0221 0.477,-0.94154 1.00822,-0.92609 1.424,-2.12821 1.43491,-4.1487 0.008,-1.50685 -0.15264,-1.31797 -0.35881,0.4215 -0.0893,0.75327 -0.28908,1.70577 -0.44399,2.11667 -0.37883,1.00478 -1.82251,2.46687 -2.4358,2.46687 -0.46435,0 -0.45837,-0.0537 0.0957,-0.8599 l 0.59103,-0.85989 -0.90374,0.82505 c -0.49706,0.45378 -1.14186,0.95463 -1.4329,1.113 -0.4343,0.23633 -0.35436,0.26058 0.44592,0.13529 0.53793,-0.0842 1.36827,-0.003 1.85208,0.18041 0.48235,0.18319 1.41278,0.41974 2.06762,0.52566 0.65484,0.10593 1.25016,0.20471 1.32292,0.21953 0.0728,0.0148 0.35363,-0.14072 0.62416,-0.34564 z m 5.72584,0.002 c 0,-0.0676 -0.26789,-0.26573 -0.59532,-0.44019 -0.5398,-0.28764 -0.56145,-0.27617 -0.23218,0.12298 0.33809,0.40984 0.8275,0.59745 0.8275,0.31721 z m -2.33436,-0.94845 c -0.31683,-0.29518 -0.57606,-0.45212 -0.57606,-0.34877 0,0.30138 0.86522,1.17235 1.01541,1.02215 0.0752,-0.0752 -0.12252,-0.37821 -0.43935,-0.67338 z m 8.8651,0.22807 c -0.0845,-0.21106 -0.14716,-0.14837 -0.15985,0.15986 -0.0115,0.27891 0.051,0.43518 0.13896,0.34726 0.0879,-0.0879 0.0973,-0.31612 0.0209,-0.50712 z m 12.24254,-0.50222 c -0.16243,-0.3035 -0.36218,-0.48497 -0.44388,-0.40326 -0.0817,0.0817 0.002,0.33002 0.18612,0.55182 0.47567,0.57315 0.60433,0.499 0.25776,-0.14856 z m 12.47453,-0.94704 c 0.90093,-1.45772 0.45776,-1.2393 -0.53458,0.26348 -0.49672,0.75223 -0.70621,1.20547 -0.46554,1.00721 0.24067,-0.19826 0.69072,-0.77007 1.00012,-1.27069 z m -64.99958,0.3052 c 0.54548,-0.43489 1.34497,-1.01404 1.77665,-1.28701 0.75874,-0.47978 0.81989,-0.48052 1.83659,-0.022 1.20473,0.54326 2.49788,0.61588 2.94818,0.16558 0.23519,-0.23519 0.0599,-0.31092 -0.73642,-0.31806 -0.57481,-0.005 -1.34276,-0.17953 -1.70656,-0.3875 -0.36381,-0.20797 -0.94781,-0.38234 -1.29778,-0.3875 -0.5996,-0.009 -0.61105,-0.0373 -0.19844,-0.49323 0.48887,-0.5402 0.57735,-1.10365 0.1733,-1.10365 -0.14552,0 -0.26458,0.13599 -0.26458,0.3022 0,0.56482 -2.47675,3.20428 -3.34855,3.56854 -0.90867,0.37967 -2.45279,0.46695 -3.46447,0.19583 -1.12898,-0.30255 -0.59086,-0.51953 1.05833,-0.42673 1.30747,0.0736 1.82993,-0.0176 2.49577,-0.43578 1.06224,-0.66706 3.04375,-3.14993 2.94011,-3.684 -0.10386,-0.53516 -0.73953,-0.73113 -0.73953,-0.22799 0,0.9199 -1.36551,2.99177 -2.30464,3.49678 -1.35348,0.72783 -3.80723,0.68318 -5.30213,-0.0965 -1.39034,-0.72513 -1.47192,-1.1608 -0.13229,-0.70654 2.1088,0.71509 3.05615,0.73192 4.03587,0.0717 0.50186,-0.3382 1.17649,-1.0288 1.49918,-1.53466 0.32269,-0.50586 0.84033,-1.24685 1.15031,-1.64664 0.30999,-0.3998 0.51321,-0.93558 0.45161,-1.19063 -0.081,-0.33525 -0.23727,-0.18092 -0.5642,0.55706 -0.57834,1.30551 -0.85461,1.08605 -0.30094,-0.23906 0.22871,-0.5474 0.36353,-1.04758 0.29959,-1.11152 -0.21091,-0.21091 -0.95253,1.48718 -1.03599,2.3721 -0.0498,0.52816 -0.21194,0.83964 -0.414,0.79541 -0.18266,-0.04 -0.25671,0.0493 -0.16454,0.19844 0.0922,0.14912 -0.0602,0.27113 -0.33858,0.27113 -0.27838,0 -0.8247,0.29523 -1.21405,0.65607 -0.6988,0.64763 -0.72717,0.65104 -2.20683,0.26564 -0.82441,-0.21474 -1.98176,-0.7052 -2.57188,-1.08991 l -1.07295,-0.69949 0.59532,0.64934 c 0.68381,0.74587 0.7457,1.0121 0.23528,1.0121 -0.55154,0 -3.34414,-4.49479 -3.34414,-5.38251 0,-0.20994 -0.17859,-0.45024 -0.39687,-0.534 -0.71159,-0.27306 -0.45031,1.06581 0.59531,3.05054 1.77887,3.37656 2.13382,3.81339 3.30819,4.07133 0.44326,0.0973 1.27202,0.65251 1.84168,1.23368 l 1.03574,1.05667 1.92579,-0.0973 c 1.66139,-0.0839 2.06196,-0.20581 2.91756,-0.88796 z m 45.92048,-1.5028 c 0.7992,-0.57073 1.55562,-1.22092 1.68093,-1.44485 0.12532,-0.22393 -0.44592,0.14166 -1.26942,0.81241 -0.82351,0.67075 -2.20501,1.57681 -3.07,2.01346 -0.865,0.43664 -1.57272,0.85372 -1.57272,0.92684 0,0.24691 2.76768,-1.26269 4.23121,-2.30786 z m -31.4833,1.90272 c 0.21829,-0.14106 0.27782,-0.25648 0.1323,-0.25648 -0.14552,0 -0.44318,0.11542 -0.66146,0.25648 -0.21828,0.14107 -0.27781,0.25648 -0.13229,0.25648 0.14552,0 0.44317,-0.11541 0.66145,-0.25648 z m 47.6792,-1.23967 c 0.28819,-0.26081 0.63874,-0.71366 0.779,-1.00633 0.25306,-0.52804 0.25134,-0.52801 -0.22295,0.004 -0.62323,0.69947 -2.1388,1.59953 -3.05764,1.81588 -0.40019,0.0942 -0.72761,0.28763 -0.72761,0.42979 0,0.34493 2.5657,-0.64318 3.2292,-1.24364 z m -49.55333,1.13771 c -0.0606,-0.0561 -1.00675,-0.47299 -2.10249,-0.92647 -5.49116,-2.27258 -9.72513,-7.2896 -11.90251,-14.1038 -0.92077,-2.88162 -1.29846,-4.78759 -1.39246,-7.027 -0.0374,-0.89017 -0.16959,-1.71561 -0.29384,-1.83431 -0.26041,-0.24878 -0.0262,3.32135 0.35902,5.47271 1.449,8.0923 5.38149,14.09521 10.98871,16.77415 3.1206,1.49091 3.63138,1.70739 4.07899,1.72877 0.20615,0.01 0.32522,-0.028 0.26458,-0.084 z m -21.54149,-0.31214 c -0.78431,-0.31939 -2.80455,-0.84661 -2.65288,-0.69232 0.2846,0.28952 1.81194,0.80165 2.3883,0.80082 0.29104,-5.3e-4 0.4101,-0.0492 0.26458,-0.1085 z m 23.94301,-0.37965 c 0.16368,0 0.22401,0.11906 0.13407,0.26458 -0.0899,0.14553 -0.0374,0.26459 0.11668,0.26459 0.15411,0 0.2802,-0.11906 0.2802,-0.26459 0,-0.14552 0.49477,-0.26458 1.0995,-0.26458 1.29127,0 2.50843,-0.80893 3.40854,-2.26533 l 0.58945,-0.95375 -0.52477,-0.70556 c -0.28862,-0.38806 -0.81048,-0.74348 -1.15968,-0.78981 -1.43787,-0.19079 -4.43234,-1.20907 -5.79429,-1.97039 -1.58968,-0.88861 -4.7625,-3.2958 -4.7625,-3.61327 0,-0.10911 -0.39762,-0.72393 -0.8836,-1.36628 -1.15694,-1.52921 -2.29674,-4.74115 -2.35025,-6.62299 -0.0226,-0.79592 -0.14947,-0.85425 -1.68115,-0.77311 -0.46089,0.0244 -0.96271,-0.13611 -1.15688,-0.37007 -0.1886,-0.22725 -0.48477,-0.41319 -0.65815,-0.41319 -0.17338,0 -1.11412,-0.53578 -2.09053,-1.19062 -0.97641,-0.65485 -1.82071,-1.19063 -1.87623,-1.19063 -0.0555,0 -0.0409,0.74414 0.0324,1.65365 0.17883,2.218 1.75114,7.50912 3.00736,10.12031 1.31382,2.73092 4.02322,6.09576 5.98024,7.42695 2.18796,1.48828 6.97995,3.55781 7.5464,3.25909 0.2451,-0.12925 0.57955,-0.235 0.74322,-0.235 z m 5.07444,-0.34254 c 1.06142,-0.80804 1.68388,-2.03871 1.03116,-2.03871 -0.15564,0 -0.28299,0.23002 -0.28299,0.51115 0,0.28113 -0.38695,0.78323 -0.85989,1.11577 -1.12634,0.79197 -1.62275,1.2835 -1.29624,1.2835 0.1446,0 0.77818,-0.39227 1.40796,-0.87171 z m 23.37871,-0.093 c 2.73299,-1.4302 7.53476,-6.33594 9.02634,-9.22178 1.51331,-2.92788 2.69012,-7.10847 2.93252,-10.41765 0.14362,-1.96079 0.13364,-2.00571 -0.35361,-1.59096 -0.66041,0.56215 -2.88142,1.38277 -3.32625,1.22897 -0.19259,-0.0666 -1.11937,0.27777 -2.05952,0.76523 -0.94014,0.48746 -1.91397,0.88629 -2.16405,0.88629 -0.34212,0 -0.52954,0.37669 -0.75695,1.52135 -0.60276,3.0339 -1.15945,4.6384 -2.11928,6.10825 -1.92129,2.94219 -5.51448,5.66357 -7.91361,5.99353 -1.48911,0.2048 -1.92495,0.8094 -1.56272,2.16779 0.19544,0.73292 0.40934,0.8957 1.65138,1.25677 0.78477,0.22814 1.64027,0.4148 1.90109,0.4148 0.53628,0 2.48704,1.27342 2.48704,1.62349 0,0.37957 0.33345,0.27085 2.25762,-0.73608 z m 21.03053,-1.89717 c 0.59805,-1.58701 0.63983,-3.11962 0.0722,-2.64855 -0.18789,0.15594 -0.34162,0.68949 -0.34162,1.18567 0,1.0709 -0.53854,2.46127 -1.14964,2.96806 -0.24082,0.19972 -0.43358,0.61644 -0.42835,0.92604 0.009,0.51419 0.0661,0.4942 0.66342,-0.23083 0.35965,-0.43656 0.89244,-1.42674 1.18397,-2.20039 z m -34.66523,2.47729 c 0,-0.066 -0.53578,-0.64817 -1.19063,-1.29375 -1.02682,-1.0123 -1.19558,-1.33249 -1.22665,-2.32743 -0.0211,-0.67592 -0.0854,-0.89277 -0.15524,-0.52367 -0.22001,1.1627 0.19023,2.32351 1.16598,3.29926 0.8622,0.8622 1.40654,1.18945 1.40654,0.84559 z m 10.17323,-0.37946 c -0.13825,-0.12916 -0.54901,-0.31392 -0.91282,-0.41057 -0.63568,-0.16888 -0.64144,-0.15973 -0.14786,0.23485 0.54123,0.43267 1.50692,0.59266 1.06068,0.17572 z m -4.68864,-0.71875 c -0.0879,-0.0879 -0.31612,-0.0973 -0.50712,-0.0209 -0.21107,0.0845 -0.14837,0.14716 0.15985,0.15985 0.27892,0.0115 0.43519,-0.051 0.34727,-0.13896 z m -49.61843,-0.76231 c -1.5106,-0.86363 -4.76675,-3.77509 -5.23524,-4.68106 -0.20492,-0.39627 -0.37259,-0.95603 -0.37259,-1.24391 0,-0.28787 -0.18292,-0.70633 -0.4065,-0.92991 -1.14878,-1.14878 -1.42569,-3.15866 -0.7974,-5.78784 0.37686,-1.57705 0.23098,-2.78894 -0.44729,-3.71599 -0.27229,-0.37216 -0.33282,0.42794 -0.3312,4.37785 0.002,4.01428 0.0797,5.00585 0.46062,5.85197 0.62647,1.39156 2.40078,3.45965 3.58591,4.17965 0.53821,0.32698 1.04323,0.68702 1.12226,0.80009 0.19854,0.28405 2.97033,1.79677 3.29589,1.79875 0.14553,7.9e-4 -0.24798,-0.29144 -0.87446,-0.6496 z m 49.6273,-0.0212 c -1.23891,-0.67222 -1.29336,-2.12051 -0.14327,-3.81056 1.03745,-1.52451 1.9053,-1.99413 3.66587,-1.98371 1.53469,0.009 1.98301,-0.19 1.14875,-0.51014 -2.27218,-0.87192 -5.27572,1.07466 -5.94171,3.85078 -0.30697,1.2796 -0.29429,1.34194 0.42559,2.09333 0.40809,0.42595 0.92806,0.76969 1.1555,0.76387 0.2452,-0.006 0.11872,-0.17055 -0.31073,-0.40357 z m -3.11752,-0.25369 c -0.18408,-0.2218 -0.40356,-0.33439 -0.48775,-0.2502 -0.0842,0.0842 0.0221,0.26384 0.23614,0.39922 0.56011,0.35422 0.6333,0.31088 0.25161,-0.14902 z m 27.67093,-0.28221 c 0.45056,-0.18825 0.95919,-0.51095 1.13028,-0.7171 0.52006,-0.62663 1.33535,-3.28996 1.18413,-3.86823 -0.10102,-0.3863 0.13648,-0.82154 0.8228,-1.50786 1.28714,-1.28714 1.01587,-1.45856 -0.35222,-0.22257 -0.76666,0.69263 -1.08186,1.1893 -1.08186,1.70468 0,1.30126 -1.76624,2.91531 -3.19017,2.91531 -0.37609,0 -0.52292,0.12431 -0.43069,0.36463 0.3443,0.89724 -0.84835,1.19079 -2.49997,0.61534 -1.33841,-0.46633 -1.7667,-0.88408 -2.12192,-2.06969 -0.34961,-1.16688 -0.75309,-1.35705 -0.75309,-0.35495 0,1.1343 0.97895,2.73862 1.78916,2.93213 0.39841,0.0951 0.84345,0.26284 0.98897,0.37264 0.74297,0.56057 2.97402,0.47937 4.51458,-0.16432 z m -73.94397,-0.21197 c -0.16811,-0.20255 -0.56964,-0.43592 -0.8923,-0.5186 -0.5575,-0.14285 -0.55379,-0.12484 0.0748,0.3624 0.76993,0.5968 1.26101,0.69063 0.81748,0.1562 z m 35.25794,-1.90986 c -0.40474,-0.53064 -1.25575,-1.18763 -1.89113,-1.45999 -1.65401,-0.70899 -1.68425,-0.61848 -0.14066,0.42104 1.44119,0.97055 2.44291,2.15299 2.50851,2.96106 0.0218,0.26858 0.089,0.16306 0.1494,-0.23449 0.0761,-0.50125 -0.11581,-1.01858 -0.62612,-1.68762 z m 2.28179,-0.25772 c -0.45318,-1.37315 -0.57001,-0.95494 -0.18907,0.67685 0.20333,0.87099 0.36121,1.18962 0.41388,0.83525 0.0468,-0.3151 -0.0543,-0.99555 -0.22481,-1.5121 z m 1.60976,-0.47209 c -0.58704,-1.36951 -1.33781,-2.32498 -1.33781,-1.70257 0,0.19489 0.30614,0.80488 0.68032,1.35553 0.37417,0.55065 0.75955,1.44149 0.8564,1.97965 0.14752,0.81981 0.18941,0.86882 0.25834,0.30224 0.0452,-0.37193 -0.16052,-1.24262 -0.45725,-1.93485 z m 38.07352,2.07475 c 0.16789,0.10377 0.27617,-0.13394 0.27617,-0.60628 0,-0.42733 0.16578,-0.91456 0.36841,-1.08272 0.20262,-0.16817 0.51472,-0.659 0.69355,-1.09074 0.34347,-0.82918 0.67606,-1.00384 0.86504,-0.45424 0.0625,0.1819 0.0729,0.0926 0.023,-0.19844 -0.0499,-0.29104 -0.0923,-0.97565 -0.0943,-1.52135 -0.002,-0.54571 -0.10741,-0.99219 -0.23428,-0.99219 -0.12687,0 -0.21843,0.46682 -0.20347,1.03738 0.0209,0.79796 -0.1701,1.2829 -0.82766,2.10116 -0.47018,0.58507 -0.85487,1.23328 -0.85487,1.44047 0,0.20719 -0.26471,0.72019 -0.58825,1.13999 -0.34655,0.44968 -0.40566,0.61804 -0.14388,0.40978 0.2444,-0.19443 0.56864,-0.2767 0.72054,-0.18282 z m -30.72705,-3.05492 c 0.4624,-0.62876 0.84072,-1.38197 0.84072,-1.6738 0,-0.29182 0.38695,-0.93691 0.8599,-1.43351 0.82912,-0.87062 0.83622,-0.89628 0.19843,-0.71722 -0.79511,0.22325 -1.5875,1.08142 -1.5875,1.71931 0,0.25443 -0.35718,1.13196 -0.79375,1.95006 -0.46221,0.86617 -0.78104,1.8487 -0.76332,2.35235 l 0.0304,0.86489 0.18718,-0.95943 c 0.10295,-0.52769 0.56551,-1.47389 1.02791,-2.10265 z m 19.89361,-1.62721 0.55003,-1.13154 -0.60652,0.79375 c -0.33359,0.43656 -1.36081,1.74625 -2.28272,2.91042 l -1.67618,2.11666 1.73268,-1.77887 c 0.95298,-0.97838 1.9802,-2.28807 2.28271,-2.91042 z m 13.91112,3.56615 c -0.28903,-0.28903 -0.48722,0.17062 -0.27971,0.64871 0.19677,0.45333 0.21103,0.45292 0.32066,-0.009 0.0631,-0.26605 0.0447,-0.55378 -0.041,-0.63941 z m -69.86638,-0.0164 c -0.0815,-0.0815 -0.29496,-1.7e-4 -0.47443,0.18065 -0.25937,0.26131 -0.22897,0.2917 0.14811,0.14811 0.26094,-0.0994 0.40778,-0.2473 0.32632,-0.32876 z m -13.06272,-1.48753 c -0.75024,-0.79328 -1.36407,-1.58836 -1.36407,-1.76684 0,-0.17849 -0.0692,-0.25534 -0.15373,-0.17079 -0.0846,0.0846 -0.0111,0.43182 0.16319,0.7717 0.38993,0.76034 2.42449,2.90243 2.59488,2.73203 0.0681,-0.0681 -0.49003,-0.77284 -1.24027,-1.56611 z m 12.84216,1.11913 c 0.55402,-0.32004 1.25849,-0.82606 1.56549,-1.12448 0.30701,-0.29843 0.86705,-0.78072 1.24454,-1.07177 0.64957,-0.5008 0.96932,-1.4552 0.48754,-1.4552 -0.12281,0 -0.83244,0.58404 -1.57695,1.29787 -0.98974,0.94895 -1.62324,1.3356 -2.3564,1.43819 -1.62061,0.22676 -3.01024,0.18059 -3.56927,-0.11858 -0.77998,-0.41744 -0.93733,-0.0282 -0.20108,0.49746 1.73416,1.23801 2.93799,1.38459 4.40613,0.53651 z m 33.79015,-1.4025 c 0.18316,-0.75457 0.17264,-0.76763 -0.21323,-0.26459 -0.22325,0.29105 -0.39946,0.94589 -0.39158,1.45521 0.0129,0.83173 0.0346,0.85868 0.21323,0.26459 0.1094,-0.36381 0.28561,-1.01865 0.39158,-1.45521 z m -32.08764,0.99218 c 0.32911,-0.41964 0.31975,-0.429 -0.0999,-0.0999 -0.25466,0.19972 -0.46302,0.40808 -0.46302,0.46302 0,0.21776 0.21727,0.0776 0.56291,-0.36313 z m 58.84727,-0.10459 c -0.76178,-0.59921 -0.75038,-0.4603 -0.26968,-3.28761 0.19007,-1.11794 -0.26492,-1.96561 -1.05505,-1.96561 -0.54241,0 -0.7276,0.82169 -0.29334,1.30155 0.28992,0.32035 0.35127,0.80935 0.23856,1.90142 -0.1418,1.37389 -0.10397,1.50772 0.57781,2.04401 0.40125,0.31562 0.90814,0.57386 1.12642,0.57386 0.25187,0 0.13322,-0.20739 -0.32472,-0.56762 z m 3.41915,-0.25354 c 0.66464,-0.58356 0.93525,-1.04197 0.93525,-1.5843 0,-0.74948 0.54575,-1.38733 2.75437,-3.21922 0.45039,-0.37356 0.69076,-0.76688 0.57908,-0.94758 -0.12814,-0.20734 -0.41025,-0.0483 -0.85788,0.48372 -0.36683,0.43595 -1.00597,0.99289 -1.4203,1.23764 -0.5097,0.30109 -0.93161,0.92215 -1.30454,1.92035 -0.61556,1.64759 -0.96059,2.16679 -1.73511,2.61098 -0.29104,0.16691 -0.38448,0.3071 -0.20764,0.31152 0.17684,0.004 0.74238,-0.36148 1.25677,-0.81311 z m 5.34381,-0.0387 c -0.0734,-0.1819 -0.13345,-0.0331 -0.13345,0.33073 0,0.3638 0.06,0.51263 0.13345,0.33073 0.0734,-0.1819 0.0734,-0.47956 0,-0.66146 z m -74.96101,-0.0776 c -0.0862,-0.22456 -0.21341,-0.35154 -0.28277,-0.28218 -0.0694,0.0693 -0.0476,0.25308 0.0483,0.40828 0.26089,0.42213 0.41338,0.34013 0.23447,-0.1261 z m 37.05321,-2.89001 c 0.85288,-1.88994 1.25065,-2.3679 2.79323,-3.35632 0.97565,-0.62516 1.46174,-0.75371 2.84994,-0.75371 1.33457,0 1.87354,-0.13193 2.66018,-0.65117 1.22188,-0.80653 3.05243,-1.4655 4.07099,-1.4655 1.58843,0 4.17555,1.6185 4.20266,2.62919 0.006,0.22743 0.23923,-0.003 0.51807,-0.51252 0.57016,-1.04142 0.65662,-1.43292 0.26272,-1.18947 -0.14655,0.0906 -0.33419,-0.0119 -0.41698,-0.2276 -0.0828,-0.21575 -0.79905,-0.72039 -1.59169,-1.12143 -0.79263,-0.40104 -1.57206,-0.8869 -1.73208,-1.07971 -0.16001,-0.1928 -0.58167,-0.35054 -0.93703,-0.35054 -0.92781,0 -3.25238,-2.06497 -3.27632,-2.91042 -0.0103,-0.3638 -0.13169,-0.89958 -0.26977,-1.19063 -0.19515,-0.41135 -0.22047,-0.33036 -0.11369,0.36381 0.0755,0.49113 0.13789,1.14597 0.13857,1.4552 7.9e-4,0.30924 0.37056,0.95634 0.82198,1.438 0.82026,0.87522 0.90176,1.25661 0.20685,0.96797 -0.64506,-0.26794 -1.55922,-1.98015 -1.55922,-2.92041 0,-0.49923 -0.12709,-0.90769 -0.28242,-0.90769 -0.15532,0 -0.22355,0.20836 -0.15162,0.46302 0.0719,0.25466 0.20976,0.97061 0.30626,1.59099 0.11518,0.74039 0.446,1.39851 0.9628,1.9153 0.43303,0.43304 0.70685,0.91755 0.60849,1.0767 -0.0984,0.15915 0.20988,0.0883 0.68499,-0.15734 1.0082,-0.52136 2.01903,-0.41847 3.70883,0.37752 1.36367,0.64236 2.79409,1.80099 2.53873,2.05635 -0.0968,0.0968 -0.44349,-0.0708 -0.77034,-0.37243 -0.92153,-0.85058 -2.34202,-1.55548 -3.50745,-1.74053 -1.11192,-0.17655 -2.98455,0.49975 -4.632,1.67283 -0.62447,0.44467 -0.9948,0.50638 -2.19332,0.36552 -1.28595,-0.15114 -1.6101,-0.0796 -2.99549,0.66087 -1.21153,0.64757 -1.77192,1.16904 -2.54569,2.36892 -0.54571,0.84621 -0.99718,1.82669 -1.00328,2.17886 -0.0102,0.58708 -0.0554,0.56333 -0.54379,-0.28575 -0.41117,-0.71475 -0.49471,-0.77512 -0.36618,-0.26458 0.0916,0.3638 0.24007,1.25677 0.32996,1.98437 0.16238,1.31447 0.16454,1.317 0.3371,0.39688 0.0955,-0.50932 0.49422,-1.63637 0.88601,-2.50455 z m 0.25325,1.31392 0.17738,-0.79375 -0.38965,0.66146 c -0.21431,0.3638 -0.38364,1.01865 -0.37629,1.45521 0.0129,0.76898 0.0196,0.77311 0.21227,0.13229 0.1094,-0.3638 0.27873,-1.01864 0.37629,-1.45521 z m 38.30202,-0.13229 c -0.14195,-1.07813 -0.23786,-1.37428 -0.25707,-0.79375 -0.0345,1.04402 0.27361,3.17824 0.40075,2.77559 0.0455,-0.14412 -0.0191,-1.03595 -0.14368,-1.98184 z m -49.15895,0.95032 c -0.70164,-0.60352 -1.14083,-0.66627 -1.14083,-0.163 0,0.20276 1.11909,0.72547 1.6684,0.77929 0.11726,0.0115 -0.12015,-0.26584 -0.52757,-0.61629 z m 20.979,-0.0707 c 1.66096,-0.76042 1.60085,-1.08901 -0.1147,-0.62705 -1.19793,0.32257 -2.58673,1.31136 -1.86262,1.32615 0.23707,0.005 1.12687,-0.30976 1.97732,-0.6991 z m 21.24872,0.33888 c 0.16845,-0.20297 0.28318,-0.47086 0.25498,-0.59532 -0.0282,-0.12445 0.014,-0.40488 0.0939,-0.62316 0.0798,-0.21828 0.3089,-0.87312 0.50899,-1.45521 0.28862,-0.83959 0.60907,-1.17919 1.55047,-1.64309 1.61251,-0.79462 1.85149,-1.0396 1.82722,-1.87307 -0.0115,-0.39444 -0.0809,-0.56834 -0.15434,-0.38644 -0.0734,0.1819 -0.34444,0.33073 -0.60231,0.33073 -0.38237,0 -0.4974,-0.30564 -0.62358,-1.65691 -0.0851,-0.9113 -0.23964,-1.8782 -0.34343,-2.14867 -0.20537,-0.53518 -3.14326,-2.54442 -3.72043,-2.54442 -0.83141,0 -0.25701,0.70465 0.91319,1.12027 1.98144,0.70374 2.50119,1.42729 2.56262,3.56743 0.0391,1.36258 -0.0708,2.00159 -0.45645,2.65449 -0.27938,0.47294 -0.60286,0.85989 -0.71886,0.85989 -0.116,0 -0.36145,0.36345 -0.54545,0.80767 -0.46972,1.13399 -1.53557,1.00508 -2.16812,-0.26222 -0.69483,-1.39209 -1.44752,-2.05771 -1.85807,-1.64316 -0.26882,0.27143 -0.24289,0.38814 0.1334,0.60044 1.46133,0.82447 1.66996,1.51527 1.11644,3.69666 -0.31067,1.22435 1.43076,2.15691 2.22983,1.19409 z m -62.83894,-0.9742 c 0.39001,-0.4635 0.6747,-1.11862 0.66111,-1.52135 -0.023,-0.68163 -0.0327,-0.67669 -0.26783,0.13595 -0.38464,1.32943 -1.42906,1.99195 -2.90903,1.84532 -1.84648,-0.18295 -2.62011,-0.79435 -2.62011,-2.07068 0,-1.4494 0.62327,-2.50454 1.84869,-3.1297 0.57422,-0.29295 1.16377,-0.75636 1.31012,-1.0298 0.36765,-0.68696 0.89539,-0.83845 1.90859,-0.54787 1.08996,0.31259 1.30548,0.0729 0.86672,-0.96414 -0.33466,-0.79098 -0.3897,-0.81382 -1.54034,-0.6392 -0.91584,0.13899 -1.44953,0.43736 -2.29548,1.28331 -0.60622,0.60622 -1.21275,1.10222 -1.34785,1.10222 -0.36881,0 -1.53865,2.67026 -1.54161,3.51886 -0.003,0.90278 0.62589,2.17941 1.25418,2.54536 0.25466,0.14832 1.25611,0.27331 2.22544,0.27773 1.64764,0.008 1.80703,-0.045 2.4474,-0.80601 z m 20.943,-0.17813 c -0.35543,-1.50131 -2.01788,-2.11586 -3.29806,-1.21919 -0.56391,0.39498 -0.57897,0.45758 -0.16567,0.68888 0.30242,0.16924 0.55238,0.15666 0.74662,-0.0376 0.52827,-0.52826 1.39616,-0.31014 1.99642,0.50175 0.72964,0.9869 0.94332,1.00651 0.72069,0.0662 z m -29.51844,-0.0818 c 0,-0.29963 -0.11386,-0.47442 -0.25303,-0.3884 -0.13916,0.086 -0.18596,0.33116 -0.10398,0.54478 0.20987,0.54692 0.35701,0.48247 0.35701,-0.15638 z m 2.01432,-1.77101 c 0.0212,-1.63875 0.195,-2.77066 0.59531,-3.87719 1.02023,-2.82009 0.63123,-7.57813 -0.84545,-10.34137 -0.38822,-0.72645 -0.70585,-1.47278 -0.70585,-1.65852 0,-0.18574 -0.28431,-0.90106 -0.63181,-1.5896 -2.22125,-4.40127 -2.52539,-5.67227 -1.60159,-6.69306 0.68891,-0.76123 2.22958,-1.10457 3.3191,-0.73966 1.32591,0.44408 2.06985,1.22638 2.89179,3.04089 0.40425,0.89242 0.85663,1.69775 1.00529,1.78962 0.14866,0.0919 0.41687,0.61188 0.59603,1.15555 0.50513,1.53288 2.03723,3.65897 3.17757,4.40952 2.65256,1.74584 3.09307,2.00498 4.20821,2.47554 1.37379,0.5797 3.70416,0.95623 3.70416,0.5985 0,-0.26858 -0.44478,-0.42842 -1.91951,-0.6898 -0.54641,-0.0969 -1.46811,-0.51992 -2.04823,-0.94015 -0.58012,-0.42024 -1.20462,-0.76468 -1.38778,-0.76542 -1.42646,-0.006 -4.61502,-3.38775 -5.8996,-6.25741 -1.16338,-2.59891 -1.93187,-4.05235 -2.47575,-4.68238 -1.11647,-1.29333 -3.13724,-1.63235 -4.70386,-0.78917 -1.57796,0.84929 -1.8255,2.65376 -0.71993,5.24802 0.37209,0.87313 0.78081,2.00831 0.90827,2.52262 0.20586,0.83068 0.67358,1.99882 1.85027,4.62113 0.4933,1.09934 1.01295,3.49447 1.0333,4.7626 0.009,0.58214 -0.1651,1.89183 -0.38765,2.91042 -0.70206,3.21325 -0.91007,4.70033 -0.75579,5.40342 0.17856,0.81377 0.65345,2.40197 0.71793,2.401 0.0251,-2.6e-4 0.0591,-1.04217 0.0756,-2.3151 z m 5.9222,1.65537 c 0.34123,-0.36323 0.56398,-0.71686 0.49499,-0.78585 -0.069,-0.069 -0.43575,0.22819 -0.81502,0.66041 -0.83353,0.94991 -0.55652,1.05849 0.32003,0.12544 z m 25.90369,-0.0894 c -0.20373,-0.0631 -1.02526,-0.80388 -1.82563,-1.64609 -1.28215,-1.3492 -1.62826,-1.56326 -2.91042,-1.8001 -0.80036,-0.14784 -2.37843,-0.24269 -3.50681,-0.21078 -1.7646,0.0499 -2.13474,0.14486 -2.64584,0.67883 l -0.59422,0.62082 0.66146,-0.20043 c 0.3638,-0.11024 1.81785,-0.32421 3.23121,-0.47548 2.29146,-0.24527 2.68593,-0.22267 3.64254,0.2087 0.61173,0.27585 1.31181,0.87051 1.62896,1.38368 0.62607,1.01301 2.4167,2.28865 2.58333,1.84036 0.0582,-0.1566 -0.0609,-0.33638 -0.26458,-0.39951 z m 9.40608,-0.74749 c 0.0941,-0.37501 0.11458,-0.73838 0.0455,-0.80749 -0.15207,-0.15206 -0.95843,1.35802 -0.95843,1.79486 0,0.546 0.72487,-0.23795 0.91296,-0.98737 z m 42.33729,-1.31633 c 0.5908,-0.88997 1.00677,-1.93921 1.20629,-3.04271 0.1675,-0.92637 0.41314,-2.11484 0.54587,-2.64104 0.13274,-0.52621 0.24134,-1.9914 0.24134,-3.25599 0,-2.03176 -0.0942,-2.4899 -0.81006,-3.93805 -0.44553,-0.90135 -1.63615,-2.72582 -2.64583,-4.0544 -1.00968,-1.32857 -1.83578,-2.6085 -1.83578,-2.84427 0,-0.23577 -0.17859,-0.42868 -0.39687,-0.42868 -0.55925,0 -0.49305,0.6247 0.12553,1.18451 0.28733,0.26003 0.60103,0.72497 0.69711,1.0332 0.0961,0.30823 0.62549,1.10148 1.17646,1.76278 0.55098,0.66129 1.38002,1.89158 1.84233,2.73397 0.81758,1.48974 0.84143,1.62683 0.87242,5.01534 0.0335,3.66046 -0.40955,6.34931 -1.19431,7.24857 -0.60088,0.68857 -1.06199,1.65618 -1.29201,2.71124 -0.23159,1.06227 -0.20573,1.03611 1.46751,-1.48447 z m -74.26696,0.28371 c -0.0887,-0.0887 -0.30386,0.11683 -0.47818,0.45672 -0.30297,0.59077 -0.29588,0.59787 0.16126,0.16125 0.263,-0.2512 0.40561,-0.52929 0.31692,-0.61797 z m -3.28852,-0.56542 c 0.24121,0.0926 0.4466,0.43992 0.45642,0.77191 0.0107,0.36127 0.15472,0.12559 0.35873,-0.58701 0.18748,-0.65484 0.43031,-1.39898 0.53962,-1.65364 0.16494,-0.38427 0.0589,-0.46302 -0.62331,-0.46302 -0.49064,0 -0.82206,0.13625 -0.82206,0.33795 0,0.18588 -0.35719,0.65139 -0.79375,1.03446 -0.43656,0.38308 -0.79375,0.95201 -0.79375,1.2643 0,0.5372 0.0334,0.52897 0.61976,-0.15273 0.40745,-0.47368 0.77001,-0.66286 1.05834,-0.55222 z m -2.91898,-1.10764 0.57942,-0.63136 -0.58925,0.30656 c -0.67483,0.35108 -1.13818,1.09923 -1.11377,1.79839 0.0124,0.35678 0.0846,0.31022 0.28048,-0.18091 0.14503,-0.36373 0.52444,-0.94544 0.84312,-1.29268 z m 32.35871,0.82003 c -0.22362,-0.43246 -0.57698,-0.85166 -0.78523,-0.93158 -0.234,-0.0898 -0.11916,0.25103 0.30065,0.89223 0.77708,1.18689 1.09119,1.2124 0.48458,0.0393 z m -38.11815,-0.4672 c -0.52484,-0.97458 -0.51225,-1.06982 0.48781,-3.6905 0.22213,-0.58208 0.3969,-1.47505 0.3884,-1.98437 l -0.0155,-0.92604 -0.20147,0.79375 c -0.1108,0.43656 -0.45574,1.44859 -0.76653,2.24896 -0.68584,1.76621 -0.72322,3.2612 -0.10232,4.0915 0.66188,0.88508 0.79331,0.55062 0.20958,-0.5333 z m 34.51698,0.68344 c -0.85392,-0.65723 -1.59361,-0.86128 -1.41265,-0.3897 0.0744,0.19385 0.45243,0.46863 0.8401,0.61062 1.10391,0.40432 1.29109,0.3321 0.57255,-0.22092 z m 38.1428,-0.67849 c 0.91214,-1.12723 0.96884,-1.30733 0.96884,-3.07706 0,-1.6049 -0.0884,-1.96812 -0.60431,-2.48407 -0.77706,-0.77706 -2.54636,-1.30056 -2.83895,-0.84 -0.36066,0.56771 -0.23468,0.72131 0.59156,0.72131 1.13669,0 2.02018,0.97592 2.24586,2.4808 0.21776,1.45217 -0.21557,2.30061 -1.45527,2.84935 -0.48641,0.21531 -0.75472,0.49844 -0.67333,0.71053 0.0744,0.19393 0.1353,0.46192 0.1353,0.59554 0,0.58147 0.7346,0.15052 1.6303,-0.9564 z m 8.67522,-0.95741 c -0.18344,-0.55583 -0.57187,-1.22068 -0.86318,-1.47744 -0.43298,-0.38164 -0.40134,-0.2453 0.17338,0.74702 0.38667,0.66763 0.71684,1.5606 0.73372,1.98438 0.021,0.52791 0.0715,0.61089 0.16015,0.26357 0.0712,-0.27881 -0.0206,-0.9617 -0.20407,-1.51753 z m -13.64161,-1.55709 c 1.20449,-3.64441 2.20007,-9.82558 1.51431,-9.40176 -0.16219,0.10024 -0.29488,0.8172 -0.29488,1.59326 0,1.54833 -0.84435,6.10366 -1.43109,7.72077 -0.20423,0.5629 -0.56489,1.4997 -0.80146,2.08178 -0.31751,0.78124 -0.33278,0.93585 -0.0583,0.59052 0.2045,-0.2573 0.68664,-1.42036 1.07142,-2.58457 z m -32.76667,1.61034 c -1.24034,-1.27022 -3.01912,-1.77336 -4.68427,-1.32498 -1.21384,0.32685 -2.91644,0.12459 -4.98588,-0.59232 l -1.45521,-0.50411 -1.25266,0.60881 c -0.68896,0.33485 -1.25451,0.75764 -1.25677,0.93954 -0.005,0.43852 0.10197,0.42235 1.31881,-0.19843 1.3248,-0.67587 2.13119,-0.6675 3.51103,0.0365 1.03808,0.52958 1.24068,0.54542 3.18012,0.24852 1.8082,-0.2768 2.24594,-0.25969 3.44482,0.1347 0.75537,0.24849 1.70996,0.73197 2.1213,1.0744 1.15822,0.96416 1.18993,0.7359 0.0587,-0.42258 z m -3.17698,-0.26014 c -0.0959,-0.1552 -0.4948,-0.27252 -0.88639,-0.2607 l -0.71199,0.0215 0.79375,0.35093 c 0.8483,0.37504 1.08514,0.34215 0.80463,-0.11173 z m 14.50459,0.11469 c -0.0841,-0.2193 -0.46519,-0.39154 -0.85159,-0.38495 l -0.6993,0.0119 0.79375,0.36345 c 0.43656,0.1999 0.81978,0.37312 0.8516,0.38494 0.0318,0.0118 -0.0107,-0.1571 -0.0945,-0.37539 z m 24.0361,-1.24177 c -0.30428,-0.30428 -1.37761,0.0688 -1.37761,0.47888 0,0.2013 0.18233,0.36601 0.40517,0.36601 0.22285,0 0.48339,0.20381 0.57898,0.45292 0.13732,0.35783 0.21745,0.28973 0.38169,-0.32439 0.11433,-0.42752 0.11963,-0.86555 0.0118,-0.97342 z m -72.02534,-1.35997 c 0.004,-0.84543 -0.61527,-0.86448 -0.72138,-0.0222 -0.0599,0.47534 -0.0486,0.47396 0.17984,-0.0219 0.1968,-0.42725 0.24733,-0.44416 0.26234,-0.0878 0.0255,0.60644 -0.26227,1.29957 -0.483,1.16316 -0.0999,-0.0617 -0.13179,0.31412 -0.071,0.83521 l 0.11061,0.94741 0.35928,-1.03212 c 0.19761,-0.56767 0.36108,-1.36947 0.36327,-1.78178 z m 43.5976,1.35516 c 0.39825,-0.37256 1.08127,-0.86293 1.51784,-1.0897 2.41419,-1.25407 4.14915,-4.13428 4.64663,-7.71388 0.33192,-2.3884 0.16882,-4.24998 -0.57687,-6.5842 -0.54077,-1.69275 -1.23202,-2.62526 -2.39441,-3.2301 -0.60685,-0.31577 -0.83769,-0.31224 -1.64515,0.0251 -0.51659,0.21584 -1.12665,0.39244 -1.35569,0.39244 -0.22904,0 -0.66282,0.22954 -0.96395,0.51009 -0.45424,0.4232 -0.65842,0.45957 -1.19851,0.21348 -0.5116,-0.2331 -0.69927,-0.21849 -0.87646,0.0682 -0.18639,0.30158 -0.29777,0.30482 -0.64251,0.0187 -0.4608,-0.38243 -0.56974,-1.33965 -0.15246,-1.33965 0.14552,0 0.26458,0.11906 0.26458,0.26458 0,0.14552 0.46923,0.26458 1.04272,0.26458 0.5735,0 1.11631,-0.11906 1.20624,-0.26458 0.0899,-0.14552 0.61199,-0.26458 1.16012,-0.26458 0.71982,0 1.16845,-0.18294 1.6154,-0.65869 0.59454,-0.63286 0.60046,-0.67896 0.15092,-1.1757 -0.35248,-0.38948 -0.59163,-0.45543 -0.96956,-0.26735 -0.27592,0.13731 -0.73818,0.36872 -1.02725,0.51424 -0.79087,0.39814 -2.27571,0.31799 -2.65872,-0.14351 -0.35418,-0.42676 -0.97805,-0.11921 -0.69318,0.34172 0.22219,0.35951 2.57236,0.38771 3.40971,0.0409 0.39757,-0.16466 0.93335,-0.21779 1.19062,-0.11807 0.44116,0.171 0.43933,0.20226 -0.032,0.5492 -0.33737,0.24833 -0.89625,0.32108 -1.7198,0.22386 -0.87861,-0.10371 -1.11109,-0.0679 -0.8308,0.12801 0.42991,0.30046 0.34667,0.48564 -0.25692,0.57157 -0.9787,0.13934 -1.53448,-0.0395 -1.66416,-0.53536 -0.16383,-0.62648 -1.18875,-0.72229 -1.41515,-0.13229 -0.17165,0.44729 -1.03665,0.53625 -1.28631,0.13229 -0.31267,-0.50591 -1.38158,-0.25994 -2.17803,0.50118 -0.44071,0.42118 -1.14818,0.84196 -1.57214,0.93508 -0.54165,0.11896 -0.87346,0.42229 -1.11597,1.02017 -1.46716,3.61707 -1.36581,8.59179 0.23733,11.65014 l 0.82505,1.57397 -0.62279,1.25844 c -0.34254,0.69214 -0.47986,1.20359 -0.30516,1.13655 0.1747,-0.067 0.45362,-0.45018 0.61982,-0.85142 0.41375,-0.99889 1.0508,-0.88359 2.50033,0.45255 0.66157,0.60981 1.30314,1.10876 1.4257,1.10876 0.12257,0 0.61583,0.35085 1.09614,0.77967 1.43043,1.27709 3.69342,1.14486 5.2448,-0.30646 z m -3.05125,-0.95112 c -0.47571,-0.047 -0.7961,-0.19689 -0.71199,-0.33298 0.20924,-0.33855 1.37282,-0.31309 1.58779,0.0347 0.22954,0.37141 0.14726,0.39943 -0.8758,0.29824 z m -1.20647,-1.25753 c -0.45927,-0.25772 -0.6925,-0.56586 -0.60362,-0.79749 0.0797,-0.20762 0.0441,-0.37749 -0.0791,-0.37749 -0.12318,0 -0.67209,-0.18724 -1.2198,-0.41609 -0.93499,-0.39066 -0.96838,-0.44321 -0.5465,-0.85989 0.42059,-0.41542 0.46615,-0.41419 0.71209,0.0192 0.15717,0.27697 0.5764,0.46302 1.04335,0.46302 0.42933,0 0.7806,0.11906 0.7806,0.26458 0,0.14552 0.20836,0.26276 0.46302,0.26053 0.37288,-0.003 0.39065,-0.0499 0.0913,-0.23938 -0.23363,-0.14791 0.30042,-0.21358 1.43761,-0.17679 1.44034,0.0466 1.90611,-0.0383 2.28388,-0.41602 0.45634,-0.45634 0.48493,-0.45514 0.74519,0.0312 0.40182,0.75081 0.35612,1.20539 -0.0844,0.83977 -0.2745,-0.22781 -0.56975,-0.08 -1.30107,0.65131 -1.12316,1.12316 -2.54937,1.41187 -3.72254,0.75356 z m 2.46826,-0.50594 c 0.62207,-0.34846 0.56297,-0.37027 -0.99218,-0.3661 -1.77514,0.005 -1.99625,0.10557 -1.05834,0.48256 0.8354,0.33579 1.28921,0.31002 2.05052,-0.11646 z m -1.47349,-2.28612 c -0.20006,-0.32371 0.32196,-0.74876 0.94433,-0.76892 0.40465,-0.0131 1.5875,-0.87902 1.5875,-1.16214 0,-0.0858 -0.18852,-0.15603 -0.41893,-0.15603 -0.23041,0 -0.36931,-0.14883 -0.30868,-0.33073 0.18993,-0.56976 0.8225,-0.36185 1.24663,0.40974 0.39681,0.7219 0.38379,0.75988 -0.51902,1.51424 -0.93897,0.78457 -2.20012,1.03055 -2.53183,0.49384 z m -1.41599,-1.13583 c -0.35438,-0.42699 -0.15563,-1.48042 0.27931,-1.48042 0.14552,0 0.18901,0.23812 0.0966,0.52916 -0.11505,0.36251 -0.0475,0.52917 0.21436,0.52917 0.21027,0 0.53053,0.17859 0.71168,0.39687 0.26977,0.32505 0.25169,0.39688 -0.0999,0.39688 -0.2361,0 -0.4311,-0.14883 -0.43332,-0.33073 -0.003,-0.25475 -0.0541,-0.25188 -0.2218,0.0125 -0.17466,0.27535 -0.28287,0.26478 -0.54697,-0.0534 z m 6.77129,-4.58236 c -0.51449,-0.0771 -0.70316,-0.23011 -0.60366,-0.48939 0.10902,-0.28409 -0.0583,-0.36088 -0.67802,-0.31115 -0.88089,0.0707 -1.15193,-0.22915 -0.76316,-0.84423 0.195,-0.3085 0.42088,-0.32583 1.18607,-0.091 0.60639,0.18611 1.0023,0.19769 1.10451,0.0323 0.0876,-0.14177 0.3128,-0.19887 0.5004,-0.12688 0.1876,0.072 0.59792,-0.10839 0.91182,-0.40083 0.45914,-0.42775 0.64651,-0.46882 0.95833,-0.21004 0.28748,0.23859 0.31252,0.41213 0.097,0.67186 -0.15984,0.1926 -0.21597,0.47097 -0.12473,0.6186 0.0912,0.14762 -0.12802,0.34218 -0.48724,0.43234 -0.35923,0.0902 -0.71755,0.33177 -0.79627,0.53692 -0.0787,0.20515 -0.23617,0.35516 -0.34988,0.33336 -0.11371,-0.0218 -0.54352,-0.0901 -0.95514,-0.15188 z m 1.44361,-1.06525 c 0.32911,-0.41965 0.31975,-0.429 -0.0999,-0.0999 -0.44073,0.34565 -0.58088,0.56292 -0.36312,0.56292 0.0549,0 0.2633,-0.20836 0.46302,-0.46302 z m -11.06281,0.72576 c -0.3179,-0.12809 -0.70905,-0.47773 -0.8692,-0.77698 -0.34715,-0.64865 -0.8583,-0.73477 -0.61618,-0.10382 0.29013,0.75608 -0.38247,0.14685 -0.83141,-0.75307 -0.44752,-0.89708 -0.38892,-1.19497 0.16523,-0.83994 0.19158,0.12275 0.58645,0.25313 0.8775,0.28974 3.29789,0.41486 3.38471,0.44457 3.8758,1.32602 0.40093,0.71964 0.41522,0.85989 0.0876,0.85989 -0.21532,0 -0.3915,-0.12133 -0.3915,-0.26962 0,-0.15142 -0.31898,-0.20873 -0.7276,-0.13071 -0.40019,0.0764 -0.57878,0.0687 -0.39688,-0.017 0.1819,-0.0858 0.33073,-0.27964 0.33073,-0.43085 0,-0.17103 -0.14404,-0.15539 -0.38115,0.0414 -0.20963,0.17398 -0.31595,0.48621 -0.23627,0.69386 0.16287,0.42445 -0.0444,0.45042 -0.88664,0.1111 z m 1.76864,-2.11482 c -0.35945,-0.27114 -0.56272,-0.5838 -0.45171,-0.69481 0.111,-0.11101 0.4598,0.0561 0.77509,0.37143 0.3153,0.31529 0.51857,0.62796 0.45172,0.69481 -0.0669,0.0668 -0.41564,-0.1003 -0.7751,-0.37143 z m 4.35756,-0.46303 c 0.37779,-1.51377 1.62415,-2.31958 4.00422,-2.58885 1.28885,-0.14582 1.64748,-0.0992 1.93913,0.25225 0.46626,0.56181 0.20765,0.80316 -0.47127,0.43981 -0.66013,-0.35329 -1.427,-0.4024 -0.88138,-0.0564 0.22536,0.1429 -0.13857,0.27926 -1.02565,0.38432 -1.57447,0.18648 -2.52599,0.71837 -2.95004,1.64905 -0.40193,0.88214 -0.84089,0.82494 -0.61501,-0.0801 z m 1.19869,0.50403 c 0,-0.12296 0.22631,-0.42838 0.5029,-0.67869 0.37714,-0.34131 0.55266,-0.37461 0.70188,-0.13316 0.1164,0.18833 -0.003,0.47001 -0.28888,0.67869 -0.55669,0.40706 -0.9159,0.45929 -0.9159,0.13316 z m -5.32116,-1.07655 c -0.50885,-0.57989 -0.99885,-0.81361 -1.97715,-0.94306 -0.71535,-0.0947 -1.6511,-0.2385 -2.07944,-0.31964 -0.73396,-0.13904 -0.75009,-0.16852 -0.28016,-0.51214 1.41686,-1.03603 5.05574,0.24238 5.5519,1.95049 0.24913,0.85766 -0.38943,0.76536 -1.21515,-0.17565 z m 1.35241,-2.9332 c 0,-0.14552 0.11907,-0.26459 0.26459,-0.26459 0.14552,0 0.26458,0.11907 0.26458,0.26459 0,0.14552 -0.11906,0.26458 -0.26458,0.26458 -0.14552,0 -0.26459,-0.11906 -0.26459,-0.26458 z m -0.3942,-2.12099 c 0.0914,-0.14789 0.27702,-0.2004 0.41249,-0.11667 0.36698,0.22681 0.29856,0.38557 -0.16619,0.38557 -0.22687,0 -0.33771,-0.121 -0.2463,-0.2689 z m 12.64971,19.6251 c 0.5559,-0.29295 1.78852,-0.61593 2.73916,-0.71773 1.05311,-0.11278 1.59316,-0.26871 1.38221,-0.39909 -0.60063,-0.37121 -2.97262,-0.0779 -4.07375,0.50379 -0.58209,0.30748 -1.38576,0.707 -1.78594,0.88783 -0.40018,0.18082 -0.7276,0.41341 -0.7276,0.51687 0,0.25438 1.23076,-0.14075 2.46592,-0.79167 z m 21.40808,-0.45551 c -0.0731,-0.38225 -0.25105,-0.5551 -0.48079,-0.46693 -0.26559,0.10191 -0.29441,0.27144 -0.10598,0.62352 0.14233,0.26596 0.18366,0.70054 0.0918,0.96574 -0.1552,0.44829 -0.13959,0.44712 0.222,-0.0166 0.21392,-0.27434 0.33673,-0.77192 0.27292,-1.10572 z m -75.94821,0.29456 c 0.0845,-0.72398 0.0357,-0.85427 -0.23564,-0.62907 -0.36465,0.30264 -0.45824,1.07337 -0.16584,1.36577 0.2707,0.2707 0.28746,0.23993 0.40148,-0.7367 z m 82.15286,0.33431 c -0.0845,-0.21107 -0.14715,-0.14837 -0.15985,0.15985 -0.0115,0.27892 0.0511,0.43519 0.13896,0.34727 0.0879,-0.0879 0.0973,-0.31613 0.0209,-0.50712 z m -71.41596,-2.1332 c 0.35118,-0.40019 0.77676,-0.72827 0.94573,-0.72908 0.80906,-0.004 2.29158,-0.59188 2.29158,-0.90888 0,-0.76382 -3.14653,0.35103 -4.25752,1.50849 -0.67852,0.70691 -1.56094,2.07958 -1.56232,2.43033 -0.001,0.26591 1.51658,-1.0862 2.58253,-2.30086 z m 3.83262,2.27216 c -0.1819,-0.0734 -0.47956,-0.0734 -0.66146,0 -0.1819,0.0734 -0.0331,0.13346 0.33073,0.13346 0.3638,0 0.51263,-0.0601 0.33073,-0.13346 z m -19.72915,-0.93271 c -0.0845,-0.21107 -0.14716,-0.14837 -0.15985,0.15985 -0.0115,0.27892 0.051,0.43519 0.13896,0.34727 0.0879,-0.0879 0.0973,-0.31613 0.0209,-0.50712 z m 56.96925,-0.0544 c 0,-0.0572 -0.18477,-0.17488 -0.41061,-0.26155 -0.23546,-0.0904 -0.34167,-0.046 -0.24897,0.10398 0.15538,0.25141 0.65958,0.37186 0.65958,0.15757 z m -23.96132,-1.10223 c 1.2315,-0.52905 2.5443,-1.31158 2.99615,-1.78594 1.20475,-1.26476 2.18239,-2.83204 2.15887,-3.46091 -0.0144,-0.38459 -0.0664,-0.43486 -0.16707,-0.16151 -0.0804,0.21828 -0.92994,1.17078 -1.88786,2.11666 -1.65407,1.63329 -3.08011,2.64997 -5.00179,3.56597 -0.47294,0.22544 -0.85989,0.46782 -0.85989,0.53862 0,0.28323 0.66735,0.0868 2.76159,-0.81289 z m 5.49653,0.0778 c 0.60834,-0.53022 1.17762,-1.38457 1.49593,-2.24502 0.62951,-1.70169 0.47198,-1.83388 -0.23102,-0.19384 -0.28178,0.65736 -0.84018,1.52057 -1.24088,1.91823 -0.64995,0.64501 -0.73896,0.67051 -0.82513,0.23636 -0.0892,-0.44968 -0.14597,-0.44024 -0.74693,0.12433 -0.59672,0.56059 -0.61111,0.62646 -0.17449,0.79878 0.69611,0.27473 0.65822,0.28879 1.72252,-0.63884 z m 18.91284,-0.40567 c -0.39195,-0.4091 -0.71263,-0.88614 -0.71263,-1.06008 0,-0.17393 -0.11906,-0.31625 -0.26458,-0.31625 -0.43954,0 -0.30083,0.44549 0.39687,1.27467 0.3638,0.43235 0.66146,0.94155 0.66146,1.13155 0,0.26762 0.0711,0.27431 0.31576,0.0297 0.24461,-0.24462 0.1552,-0.48333 -0.39688,-1.05958 z m 22.30612,0.87263 c 0,-0.21828 -0.1786,-0.39687 -0.39688,-0.39687 -0.21828,0 -0.39687,0.17859 -0.39687,0.39687 0,0.21828 0.17859,0.39688 0.39687,0.39688 0.21828,0 0.39688,-0.1786 0.39688,-0.39688 z m -79.98801,-0.44648 c -0.0845,-0.21107 -0.14715,-0.14838 -0.15985,0.15985 -0.0115,0.27891 0.051,0.43518 0.13897,0.34726 0.0879,-0.0879 0.0973,-0.31612 0.0209,-0.50711 z m 86.75731,-1.2944 c -0.23061,-0.57637 -0.43117,-1.78969 -0.44568,-2.69625 -0.0145,-0.90656 -0.11254,-1.94594 -0.21786,-2.30974 -0.28267,-0.97646 0.28296,-3.0809 1.38686,-5.1598 1.32154,-2.48876 1.34826,-4.04589 0.0949,-5.52734 -0.84428,-0.99789 -0.90946,-1.02413 -2.10008,-0.84558 -1.34901,0.20229 -2.84157,1.34355 -2.84157,2.17274 0,0.42014 0.0529,0.40634 0.41294,-0.10766 0.49227,-0.70282 1.72161,-1.38028 2.50469,-1.38028 0.30946,0 0.91069,0.34803 1.33606,0.7734 1.05465,1.05465 1.0151,2.13097 -0.15965,4.34466 -0.51318,0.96703 -1.12061,2.58878 -1.34985,3.60391 -0.39986,1.7706 -0.39419,1.91267 0.13929,3.4924 0.30586,0.90569 0.5561,2.10367 0.5561,2.66217 0,1.21172 0.80748,3.25762 0.98831,2.50408 0.0632,-0.26332 -0.0738,-0.95034 -0.30442,-1.52671 z m 2.71071,-1.53197 c -0.70668,-1.72609 -0.75092,-3.25257 -0.12905,-4.45307 0.24124,-0.46572 0.43433,-1.18009 0.42908,-1.5875 -0.008,-0.59291 -0.11951,-0.45031 -0.56049,0.71446 -0.79761,2.10675 -0.80897,4.85646 -0.0253,6.11665 0.32742,0.5265 0.61533,1.35993 0.63979,1.85208 0.0437,0.8785 0.0464,0.87615 0.15015,-0.12908 0.069,-0.66812 -0.10623,-1.54149 -0.5042,-2.51354 z m -57.18854,1.80529 c 0.46338,-0.40409 1.08846,-0.81276 1.38906,-0.90817 0.30061,-0.0954 0.54655,-0.29528 0.54655,-0.44415 0,-0.14887 0.59532,-0.84445 1.32292,-1.54574 1.02706,-0.98992 1.32292,-1.45794 1.32292,-2.09275 0,-0.86568 -0.22273,-1.01828 -0.73642,-0.50458 -0.17221,0.1722 -0.39569,0.2305 -0.49663,0.12956 -0.25388,-0.25389 0.75971,-0.98386 1.1669,-0.84038 0.1819,0.0641 0.33073,-0.0583 0.33073,-0.27203 0,-0.21372 0.11906,-0.38857 0.26458,-0.38857 0.14553,0 0.26459,-0.4097 0.26459,-0.91043 0,-0.50073 -0.11906,-0.98401 -0.26459,-1.07395 -0.14552,-0.0899 -0.26458,-0.0337 -0.26458,0.12498 0,0.15868 -0.20836,0.36175 -0.46302,0.45128 -0.25466,0.0895 -0.77889,0.45418 -1.16495,0.81035 -0.38607,0.35617 -1.27904,0.9303 -1.98438,1.27586 -1.06977,0.52408 -1.16968,0.62965 -0.60246,0.63655 0.3905,0.005 1.12265,-0.36183 1.71979,-0.86107 1.05791,-0.88447 2.3683,-1.77649 2.6097,-1.77649 0.44658,0 -0.40249,0.97721 -1.84958,2.12869 -1.6134,1.28381 -1.77152,1.34712 -4.07287,1.63047 -2.38455,0.2936 -2.39431,0.29786 -2.39431,1.04594 0,0.57476 0.12426,0.75115 0.52917,0.75115 0.58361,0 0.72069,0.41667 0.19843,0.60319 -0.1819,0.065 -0.2543,0.20092 -0.16089,0.30213 0.27665,0.29973 2.02157,-0.55427 2.39541,-1.17237 0.37329,-0.6172 1.64336,-1.35123 3.36327,-1.94379 1.06516,-0.36698 1.49556,-0.16303 0.65209,0.309 -0.28865,0.16153 -0.33401,0.30096 -0.13745,0.42244 0.48276,0.29836 -3.885,3.86065 -4.73357,3.86065 -0.56849,0 -1.15301,0.67457 -0.91635,1.0575 0.24968,0.404 1.1728,0.0608 2.16594,-0.80527 z m -2.5623,-3.39855 c 0,-0.1613 0.14883,-0.29489 0.33073,-0.29688 0.1819,-0.002 0.62838,-0.0777 0.99219,-0.16828 0.46213,-0.11505 0.58172,-0.0797 0.39687,0.11718 -0.4029,0.4292 -1.71979,0.69566 -1.71979,0.34798 z m 7.07721,3.4306 c 1.19342,-1.07967 2.83007,-4.14605 2.65387,-4.97225 -0.0665,-0.31171 -0.22054,-0.11287 -0.45477,0.58693 -0.48137,1.4382 -2.01648,3.71776 -2.95242,4.38421 -0.71835,0.51151 -1.01816,1.05345 -0.5692,1.02889 0.10914,-0.006 0.70427,-0.46847 1.32252,-1.02778 z m 22.89645,0.6633 c 0.44462,-0.33726 0.4276,-0.40353 -0.28727,-1.1184 -0.41794,-0.41793 -0.9027,-1.02673 -1.07724,-1.35287 -0.17455,-0.32614 -0.43223,-0.59298 -0.57263,-0.59298 -0.51433,0 -0.23225,0.71548 0.67077,1.70135 1.00332,1.09537 1.10336,1.35801 0.59531,1.56301 -0.1819,0.0734 -0.21167,0.13906 -0.0661,0.14592 0.14552,0.007 0.47726,-0.14885 0.7372,-0.34603 z m 9.13192,-2.13821 c 0,-0.41901 -0.0441,-0.39147 -0.21183,0.1323 -0.11651,0.3638 -0.21184,0.89958 -0.21184,1.19062 0,0.41901 0.0441,0.39147 0.21184,-0.13229 0.11651,-0.3638 0.21183,-0.89958 0.21183,-1.19063 z m -68.55817,0.61185 c -0.0845,-0.21106 -0.14716,-0.14837 -0.15985,0.15986 -0.0115,0.27891 0.051,0.43518 0.13896,0.34726 0.0879,-0.0879 0.0973,-0.31612 0.0209,-0.50712 z m 31.43696,-0.74414 c 0.41826,-0.43656 0.91404,-0.79375 1.10174,-0.79375 0.1877,0 0.53326,-0.29301 0.76792,-0.65114 0.23465,-0.35813 0.66309,-0.72619 0.95208,-0.81791 0.28899,-0.0917 0.46119,-0.23101 0.38266,-0.30954 -0.23922,-0.23922 -1.96955,0.69997 -2.38663,1.29543 -0.54619,0.77979 -1.76265,1.53768 -2.47141,1.53975 -0.32742,0.001 -0.59531,0.12081 -0.59531,0.26633 0,0.5999 1.50694,0.24533 2.24895,-0.52917 z m 59.79513,-4.16302 -0.41885,-0.73177 0.15822,0.92604 c 0.087,0.50933 0.24095,1.81901 0.34207,2.91042 l 0.18385,1.98437 0.0768,-2.17864 c 0.0569,-1.61459 -0.0317,-2.36811 -0.34207,-2.91042 z m -75.48506,3.36927 c 0.1353,0 0.83362,-0.25278 1.55182,-0.56175 0.91029,-0.39159 1.30582,-0.71422 1.30582,-1.06512 0,-0.47226 -0.0483,-0.47842 -0.78061,-0.0997 -0.42933,0.22201 -1.10743,0.40367 -1.50687,0.40367 -0.84995,0 -2.21043,1.18221 -2.21043,1.92078 0,0.47625 0.0316,0.474 0.69714,-0.0495 0.38342,-0.3016 0.80783,-0.54837 0.94313,-0.54837 z m -15.48245,0.21498 c -0.0845,-0.21107 -0.14716,-0.14838 -0.15985,0.15985 -0.0115,0.27891 0.051,0.43518 0.13896,0.34727 0.0879,-0.0879 0.0973,-0.31613 0.0209,-0.50712 z m 64.64217,0.32494 0.66146,-0.20108 -0.74483,-0.30171 c -0.40965,-0.16594 -0.9696,-0.30171 -1.24432,-0.30171 -0.97448,0 -1.80074,-0.60412 -2.28005,-1.66705 -0.62073,-1.37652 -2.65558,-3.43838 -2.86213,-2.90011 -0.0796,0.20741 -0.14471,0.6065 -0.14471,0.88687 0,0.4374 0.0725,0.46449 0.5107,0.19083 0.43383,-0.27093 0.59228,-0.22148 1.05266,0.32849 0.29807,0.35609 0.6538,1.03377 0.79051,1.50598 0.25026,0.86441 1.41487,2.22992 2.14659,2.51689 0.52961,0.20771 1.31192,0.18647 2.11412,-0.0574 z m 2.38125,0.0175 c 0,-0.33401 -0.71933,-0.56942 -1.1891,-0.38915 -0.21745,0.0834 -0.32948,0.2583 -0.24897,0.38857 0.19047,0.30819 1.43807,0.3087 1.43807,5.3e-4 z m 1.5875,-1.06075 c 0,-0.6234 -0.15677,-0.82252 -0.83323,-1.05834 -0.45828,-0.15974 -1.40303,-0.29045 -2.09944,-0.29045 -0.69642,0 -1.58813,-0.12239 -1.98159,-0.27199 -0.85849,-0.3264 -0.93145,-0.27719 -0.73018,0.49247 0.2005,0.76673 1.84801,1.50838 2.37647,1.06981 0.49085,-0.40738 2.53544,-0.11365 2.86975,0.41227 0.35932,0.56528 0.39822,0.53071 0.39822,-0.35376 z m -58.56227,-1.15035 c -0.0734,-0.1819 -0.13345,-0.0331 -0.13345,0.33073 0,0.3638 0.0601,0.51263 0.13345,0.33072 0.0734,-0.1819 0.0734,-0.47955 0,-0.66145 z m 4.43941,0.19002 c 0.28247,-0.21365 0.94433,-0.38846 1.47078,-0.38846 0.52646,0 1.18831,-0.17481 1.47079,-0.38846 0.50544,-0.3823 0.50498,-0.3886 -0.0288,-0.39688 -0.29832,-0.005 -0.67489,0.12409 -0.83684,0.28604 -0.42723,0.42723 -0.91986,0.0158 -0.72315,-0.60401 0.15272,-0.48118 0.11136,-0.50031 -0.45226,-0.20925 -0.89721,0.46332 -1.81098,1.34913 -1.81098,1.75555 0,0.44877 0.26612,0.43283 0.91047,-0.0545 z m 79.3714,-1.97596 c -2.6e-4,-1.4959 -0.73569,-4.05854 -1.36659,-4.7625 -0.27654,-0.30857 -0.2679,-0.14758 0.0388,0.72354 0.50789,1.44234 1.02539,5.21243 0.8193,5.96867 -0.15401,0.56508 -0.14839,0.56684 0.17484,0.0547 0.18367,-0.29104 0.33379,-1.18401 0.3336,-1.98437 z m -92.51003,-1.65877 c 0.32257,-0.34336 0.5865,-0.86845 0.5865,-1.16687 0,-0.67878 0.96551,-1.93686 1.48644,-1.93686 0.74225,0 1.68856,-1.24488 1.68856,-2.22132 0,-1.17202 -0.39827,-1.45894 -0.48293,-0.34791 -0.0719,0.94338 -0.77855,1.81092 -2.22905,2.7365 -0.54571,0.34821 -0.99219,0.82845 -0.99219,1.0672 0,0.23874 -0.35719,1.19006 -0.79375,2.11405 -0.43656,0.92399 -0.78154,2.00708 -0.76661,2.40687 0.0213,0.57026 0.12297,0.43014 0.47184,-0.65023 0.24458,-0.75742 0.70862,-1.65806 1.03119,-2.00143 z m 67.59222,3.07104 c -0.1819,-0.0734 -0.47956,-0.0734 -0.66146,0 -0.1819,0.0734 -0.0331,0.13345 0.33073,0.13345 0.3638,0 0.51263,-0.06 0.33073,-0.13345 z M 147.28056,132.792 c 0.44806,-0.75756 1.02232,-1.71006 1.27614,-2.11666 l 0.46148,-0.73928 -0.84461,0.77711 c -0.46453,0.4274 -0.84664,0.96318 -0.84912,1.19062 -0.002,0.22744 -0.35764,1.00883 -0.78924,1.73644 -0.4316,0.7276 -0.77837,1.56104 -0.77059,1.85208 0.009,0.34417 0.13424,0.20543 0.3577,-0.39687 0.18897,-0.50933 0.71017,-1.54587 1.15824,-2.30344 z m 60.10135,1.88621 c -2.14653,-1.0276 -2.90295,-1.58452 -2.90295,-2.13732 0,-0.50743 0.62713,-0.44041 1.74287,0.18626 0.53087,0.29818 1.00856,0.4988 1.06153,0.44583 0.053,-0.053 -0.36957,-0.55122 -0.93897,-1.10722 l -1.03527,-1.01091 -0.65716,0.76352 c -0.91838,1.06703 -1.19782,0.58726 -0.3247,-0.55747 0.83093,-1.0894 1.07809,-2.31668 0.69308,-3.44151 -0.24143,-0.70534 -0.25615,-0.65855 -0.13218,0.42009 0.15606,1.35784 -0.20904,2.62262 -0.75706,2.62262 -0.19852,0 -0.50909,0.32512 -0.69014,0.72249 -0.30622,0.67208 -0.26765,0.77345 0.55284,1.45305 0.48512,0.4018 1.09888,0.91861 1.36391,1.14845 0.68715,0.59591 2.57762,1.39783 3.34712,1.41982 0.42589,0.0122 -0.0355,-0.31139 -1.32292,-0.9277 z m 17.46816,0.41386 c -0.23172,-0.43298 -0.38323,-0.47996 -0.81047,-0.25131 -0.66201,0.3543 -0.42072,0.78384 0.44032,0.78384 0.57454,0 0.62009,-0.0655 0.37015,-0.53253 z m -50.6659,-0.24604 1.05833,-0.21891 -1.05833,8e-4 c -0.58209,5.3e-4 -1.41552,0.0918 -1.85209,0.20285 l -0.79375,0.20198 0.79375,0.0161 c 0.43657,0.009 1.27,-0.0825 1.85209,-0.20286 z m 53.59911,-2.01446 c 0.13949,-0.98503 0.4895,-2.1726 0.77778,-2.63905 0.6961,-1.12631 0.69344,-1.68231 -0.005,-1.05021 -0.29104,0.26339 -0.52917,0.62445 -0.52917,0.80236 0,0.17791 -0.17307,0.46711 -0.3846,0.64266 -0.30478,0.25295 -0.54489,0.22451 -1.15692,-0.13703 -0.80207,-0.4738 -2.16263,-0.36679 -2.16263,0.17009 0,0.15255 0.21941,0.20773 0.48759,0.12262 0.27777,-0.0882 0.76166,0.0556 1.12448,0.334 0.35028,0.26883 0.85279,0.56773 1.11667,0.66423 0.26389,0.0965 0.40569,0.29536 0.31512,0.44191 -0.24967,0.40398 -0.50841,0.32828 -1.34907,-0.39468 -0.42281,-0.36363 -0.94735,-0.657 -1.16563,-0.65195 -0.53326,0.0123 -2.01242,1.24093 -1.77722,1.47614 0.10256,0.10256 0.40494,-0.0112 0.67195,-0.25287 0.69375,-0.62784 1.22928,-0.54517 1.86732,0.28825 0.30636,0.40018 0.80959,1.0613 1.11828,1.46914 0.30869,0.40785 0.61439,0.68839 0.67935,0.62344 0.065,-0.0649 0.23223,-0.92403 0.37173,-1.90905 z m -8.59394,1.3099 c 0.55918,-0.23364 1.59862,-0.94801 2.30989,-1.5875 0.71126,-0.63948 1.40437,-1.1627 1.54024,-1.1627 0.23207,0 1.51264,-2.60749 1.93663,-3.94335 l 0.19259,-0.60681 -0.53272,0.53272 c -0.293,0.293 -0.94017,1.16796 -1.43817,1.94435 -1.19993,1.87073 -2.64531,3.27944 -4.3546,4.2441 -0.76981,0.43445 -1.39966,0.83808 -1.39966,0.89695 0,0.22903 0.77457,0.0881 1.7458,-0.31776 z m -45.86307,-0.37646 c -0.34096,-0.13709 -1.24123,-0.14367 -2.11667,-0.0155 l -1.52335,0.22305 2.11667,0.0155 c 1.50693,0.011 1.94575,-0.0532 1.52335,-0.22306 z m 8.91709,-0.98468 -0.0106,-1.25677 -0.40057,0.73875 c -0.22032,0.40632 -0.32659,0.97186 -0.23616,1.25678 0.29997,0.94511 0.65807,0.53642 0.64732,-0.73876 z m 27.92414,0.99219 c -0.29104,-0.12507 -0.76729,-0.23394 -1.05834,-0.24194 -0.43675,-0.012 -0.45985,0.0302 -0.13229,0.24194 0.21828,0.14106 0.69453,0.24993 1.05834,0.24193 0.60578,-0.0133 0.61691,-0.0337 0.13229,-0.24193 z m 2.9432,-0.5236 c 0.64232,-0.43349 2.06517,-1.16173 3.16189,-1.61829 1.87418,-0.78023 2.0653,-0.9383 3.1798,-2.63001 0.89206,-1.35405 1.34914,-2.44391 1.84532,-4.39991 0.36276,-1.43001 0.90339,-3.10372 1.20141,-3.71935 0.29802,-0.61564 0.50099,-1.33049 0.45104,-1.58857 -0.13805,-0.71325 -0.94982,1.16512 -1.72312,3.98713 -1.29087,4.71086 -2.8045,6.71843 -6.29704,8.35196 -1.99078,0.93113 -2.78306,1.09513 -5.68854,1.17753 -0.36381,0.0103 -0.95912,-0.0714 -1.32292,-0.18156 l -0.66146,-0.20032 0.66146,0.39853 c 0.3638,0.2192 1.01865,0.40813 1.45521,0.41985 0.43656,0.0117 1.15094,0.18486 1.5875,0.38476 0.43656,0.1999 0.83601,0.37312 0.88767,0.38494 0.0516,0.0118 0.61946,-0.33319 1.26178,-0.76669 z m -52.02341,0.0311 c 0,-0.12534 -0.29765,-0.17099 -0.66146,-0.10144 -0.3638,0.0695 -0.66145,0.17209 -0.66145,0.22789 0,0.0558 0.29765,0.10145 0.66145,0.10145 0.36381,0 0.66146,-0.10256 0.66146,-0.2279 z m -0.13229,-0.56585 c 0.4131,-0.17752 0.28964,-0.23148 -0.56291,-0.24599 -0.628,-0.0107 -1.23206,-0.18725 -1.42146,-0.41547 -0.348,-0.41931 -0.79786,-0.53263 -0.78775,-0.19844 0.007,0.22531 1.57524,1.08728 1.97837,1.08729 0.14552,0 0.50271,-0.10233 0.79375,-0.22739 z m 12.03854,-0.26459 c -0.90465,-0.28972 -1.60026,-0.28972 -0.92604,0 0.29104,0.12507 0.76729,0.22389 1.05833,0.21961 0.4254,-0.006 0.39945,-0.0493 -0.13229,-0.21961 z m 4.63021,-0.26458 c 0.43656,-0.28912 0.69854,-0.52647 0.58217,-0.52742 -0.29076,-0.002 -1.7728,0.77598 -1.7728,0.93109 0,0.25107 0.41387,0.11076 1.19063,-0.40367 z m -16.27514,-1.65365 c -0.57941,-0.76398 -1.24481,-1.9631 -1.47868,-2.6647 -0.23386,-0.7016 -0.58687,-1.33768 -0.78447,-1.4135 -0.1976,-0.0758 -0.42191,-0.33523 -0.49847,-0.57645 -0.0869,-0.27381 -0.41373,-0.43369 -0.86997,-0.42557 -1.37926,0.0246 -1.94536,0.39591 -2.47029,1.62052 -0.58407,1.36257 -0.59302,1.40918 -0.27074,1.40918 0.13129,0 0.36279,-0.35595 0.51445,-0.79101 0.17531,-0.5029 0.6192,-0.95479 1.21868,-1.24066 0.90684,-0.43245 0.9707,-0.42904 1.66836,0.0891 0.73775,0.54791 0.92209,0.84149 1.92519,3.06601 0.46094,1.0222 1.5821,2.31614 2.00687,2.31614 0.0509,0 -0.38152,-0.62508 -0.96093,-1.38907 z m 16.04074,0.84125 c 0.91384,-0.56479 1.73602,-1.56836 2.04395,-2.49489 0.16031,-0.48236 0.13486,-0.47761 -0.28767,0.0537 -0.25495,0.3206 -0.67747,0.88615 -0.93894,1.25679 -0.26147,0.37064 -0.91631,0.90675 -1.45521,1.19134 -0.5389,0.2846 -0.81527,0.52271 -0.61417,0.52914 0.20111,0.006 0.76452,-0.23482 1.25204,-0.53612 z m 25.76264,-1.22251 c 0.004,-1.18536 -0.33431,-1.62782 -0.89178,-1.16516 -0.18892,0.15678 -0.4315,0.19704 -0.53908,0.0895 -0.10758,-0.10758 -0.11102,0.16135 -0.008,0.59761 0.10338,0.43626 0.30503,0.91227 0.44812,1.05779 0.17098,0.17389 0.1951,0.0498 0.0704,-0.36203 -0.14121,-0.46622 -0.098,-0.59528 0.1687,-0.50418 0.23907,0.0817 0.33239,0.46667 0.28013,1.15579 -0.0587,0.77381 -0.01,0.93366 0.19439,0.63646 0.15001,-0.21828 0.27457,-0.89586 0.2768,-1.50574 z m 8.07384,1.23316 c 0.76796,-0.0147 0.75936,-0.0276 -0.26458,-0.39651 -0.58209,-0.2097 -1.44795,-0.38307 -1.92414,-0.38526 -0.64362,-0.003 -1.16984,-0.28422 -2.05052,-1.09601 -1.25044,-1.15261 -1.62375,-0.88118 -0.51744,0.37622 0.79473,0.90328 2.71342,1.82336 3.43376,1.64662 0.29105,-0.0714 0.88636,-0.13669 1.32292,-0.14506 z m -29.86865,-0.67585 c 0.20555,-0.81899 -0.35945,-1.5367 -0.93138,-1.1831 -0.31142,0.19254 -0.31704,0.36556 -0.034,1.04876 0.41323,0.99762 0.73744,1.04273 0.96543,0.13434 z m -23.14541,-0.53357 c 0.57683,-0.0937 1.03255,-0.0402 1.1401,0.13379 0.0985,0.15943 0.31194,0.28988 0.47424,0.28988 0.1623,0 0.0155,-0.29766 -0.32632,-0.66146 -0.70344,-0.74879 -1.0413,-0.79754 -2.3207,-0.33491 -0.7925,0.28657 -0.9454,0.26866 -1.24883,-0.14631 -0.25584,-0.34987 -0.37783,-0.3832 -0.46903,-0.12812 -0.24363,0.68141 0.30827,1.26585 1.06816,1.13113 0.39679,-0.0703 1.15387,-0.19815 1.68238,-0.284 z m 57.5218,-1.29612 c 0.95055,-0.94589 1.84017,-1.71979 1.97691,-1.71979 0.50035,0 1.00341,-1.51512 1.31776,-3.96875 0.32061,-2.5024 1.01196,-4.88567 1.74612,-6.01927 0.22307,-0.34444 0.26902,-0.59532 0.10903,-0.59532 -0.15208,0 -0.61949,0.54083 -1.03869,1.20185 -0.5716,0.90131 -0.83959,1.77795 -1.07171,3.50573 -0.17024,1.26713 -0.43681,2.81486 -0.59238,3.43939 -0.62992,2.5288 -3.56583,5.0822 -5.84354,5.0822 -1.77342,0 -3.92707,-0.90581 -5.4859,-2.30733 l -1.35755,-1.22055 0.088,0.75817 c 0.13125,1.13105 2.55258,3.03292 3.86821,3.03834 0.54025,0.002 1.16086,0.11947 1.37915,0.26054 0.21828,0.14106 1.02225,0.2583 1.7866,0.26053 1.35865,0.004 1.42838,-0.0344 3.11801,-1.71574 z m -48.37434,0.31022 c -0.49123,-0.74972 -1.12254,-2.81368 -1.673,-5.4696 -0.49322,-2.37974 -1.27281,-4.28476 -2.02243,-4.94207 -0.53491,-0.46903 -0.54423,-0.46777 -0.34948,0.0473 0.11004,0.29104 0.49603,1.77932 0.85775,3.30729 0.36172,1.52797 0.82804,3.25438 1.03627,3.83646 0.53213,1.48751 1.91876,3.83646 2.26473,3.83646 0.17722,0 0.13303,-0.23905 -0.11384,-0.61582 z m 58.28639,0.19064 c 0,-0.0572 -0.17859,-0.10399 -0.39687,-0.10399 -0.21828,0 -0.39688,0.11533 -0.39688,0.25628 0,0.14096 0.1786,0.18775 0.39688,0.10399 0.21828,-0.0838 0.39687,-0.19909 0.39687,-0.25628 z m -61.00867,-0.56701 c -0.26398,-0.40018 -0.7641,-1.23362 -1.11139,-1.85208 -0.71569,-1.27455 -0.99493,-1.4853 -0.52584,-0.39688 0.38523,0.89383 1.76168,2.97657 1.96717,2.97657 0.0825,0 -0.066,-0.32743 -0.32994,-0.72761 z m 49.97245,-0.34255 c 2.96863,-1.86406 4.21337,-6.00117 2.70259,-8.98254 -0.66529,-1.31289 -3.49648,-3.97022 -4.22998,-3.97022 -0.20092,0 -0.44089,0.23812 -0.53326,0.52917 -0.0924,0.29104 -0.27739,0.52916 -0.41116,0.52916 -0.13376,0 -0.40867,0.39604 -0.61092,0.88009 -0.20225,0.48405 -0.93755,1.62936 -1.63401,2.54513 -1.18082,1.55269 -1.23213,1.68342 -0.7603,1.93722 0.85334,0.45902 2.71231,2.5126 3.27766,3.62079 0.64079,1.25603 0.71222,2.87185 0.13674,3.09269 -0.21938,0.0842 -0.84446,0.0663 -1.38907,-0.0396 -0.93026,-0.18104 -0.95416,-0.20927 -0.39488,-0.46638 0.69107,-0.3177 0.7601,-0.60213 0.19844,-0.81766 -0.24175,-0.0928 -0.39688,-4.2e-4 -0.39688,0.23627 0,0.90809 -2.0081,0.11851 -3.6363,-1.42978 l -1.12275,-1.06765 0.56418,-0.95622 c 1.0402,-1.763 2.10121,-2.03548 3.12455,-0.80243 0.18775,0.22623 0.47562,0.40648 0.6397,0.40057 0.47372,-0.0171 -1.48422,-1.57675 -1.97937,-1.57675 -0.24508,0 -0.81017,0.44649 -1.25575,0.99219 -0.44557,0.5457 -1.03402,1.21725 -1.30765,1.49232 -0.48729,0.48986 -0.46637,0.52877 1.01758,1.89301 1.67326,1.53828 2.25897,1.90559 3.82352,2.39785 1.73344,0.54539 2.78833,0.43499 4.17732,-0.43719 z m -33.41378,-0.004 c 0,-0.29963 -0.11386,-0.47441 -0.25302,-0.3884 -0.13917,0.086 -0.18596,0.33116 -0.10399,0.54478 0.20988,0.54692 0.35701,0.48247 0.35701,-0.15638 z m 20.28356,-0.5797 c -0.0734,-0.1819 -0.13345,-0.0331 -0.13345,0.33073 0,0.3638 0.0601,0.51263 0.13345,0.33073 0.0734,-0.1819 0.0734,-0.47956 0,-0.66146 z m -40.37542,-0.83829 c -0.37237,-0.78848 -0.71398,-1.39666 -0.75913,-1.35151 -0.1902,0.1902 1.10152,2.78511 1.3864,2.78511 0.0274,0 -0.25489,-0.64512 -0.62727,-1.4336 z m 65.51921,0.63985 c 0.3046,-0.80699 0.91529,-1.01122 1.64412,-0.54982 0.65008,0.41154 1.64955,-0.23934 1.55863,-1.01501 -0.11792,-1.00588 -1.28092,-1.33777 -2.46093,-0.70229 -0.88651,0.47741 -2.10868,2.38009 -1.82435,2.84015 0.28467,0.46061 0.79417,0.19091 1.08253,-0.57303 z m -47.62147,-0.85681 c -0.0633,-0.32912 -0.11747,-0.12215 -0.1204,0.45994 -0.003,0.58208 0.0488,0.85136 0.11506,0.59839 0.0662,-0.25296 0.0686,-0.72921 0.005,-1.05833 z m 50.6457,0.78626 c -0.2613,-0.25937 -0.29169,-0.22897 -0.14811,0.14811 0.0994,0.26094 0.2473,0.40778 0.32877,0.32632 0.0815,-0.0815 1.7e-4,-0.29496 -0.18066,-0.47443 z m -49.7924,-0.65705 c -0.0161,-0.89267 -0.046,-0.93394 -0.2985,-0.41149 -0.15432,0.31939 -0.20953,0.76588 -0.12268,0.99219 0.26735,0.69672 0.43994,0.45876 0.42118,-0.5807 z m 23.52979,-0.0156 c -0.0316,-0.62359 -0.0503,-0.63808 -0.15069,-0.11667 -0.0631,0.32742 -0.23247,0.59531 -0.37646,0.59531 -0.14399,0 -0.18701,0.121 -0.0956,0.2689 0.28218,0.45658 0.6607,0.002 0.62276,-0.74754 z m -30.12646,-1.61962 c 0,-1.03611 0.34126,-1.73167 1.4208,-2.89587 0.64434,-0.69485 0.70011,-0.82711 0.25124,-0.59585 -0.3173,0.16348 -0.8239,0.64409 -1.12576,1.06803 -0.72989,1.02503 -1.86338,3.48212 -1.86662,4.04629 -0.002,0.38028 0.10039,0.35497 0.65888,-0.16263 0.44013,-0.40789 0.66146,-0.89641 0.66146,-1.45997 z m 1.19062,1.83368 c 0.0972,-0.15721 -0.19179,-0.25704 -0.71199,-0.24599 -0.72951,0.0155 -0.78727,0.0565 -0.34634,0.24599 0.71779,0.30844 0.8677,0.30844 1.05833,0 z m 29.68343,-0.99219 c -0.0666,-0.25466 -0.12101,-0.0463 -0.12101,0.46302 0,0.50932 0.0545,0.71768 0.12101,0.46302 0.0665,-0.25466 0.0665,-0.67138 0,-0.92604 z m -47.80739,-1.05075 c 0.59373,-0.29667 0.60568,-0.33091 0.11672,-0.33441 -0.84064,-0.006 -1.41673,0.56662 -1.59314,1.5836 l -0.16064,0.92604 0.4878,-0.92236 c 0.26829,-0.5073 0.78546,-1.07109 1.14926,-1.25287 z m 44.74742,1.44321 c -0.26131,-0.25936 -0.2917,-0.22897 -0.14812,0.14812 0.0994,0.26093 0.24731,0.40778 0.32877,0.32632 0.0815,-0.0815 1.7e-4,-0.29496 -0.18065,-0.47444 z m 10.81508,0.4637 c 0,-0.29765 -1.76725,-1.7123 -2.51354,-2.01205 -0.43656,-0.17535 -1.05283,-0.55014 -1.36948,-0.83288 -0.58339,-0.52091 -1.14406,-0.43774 -1.14406,0.16973 0,0.33377 1.22107,1.11137 3.43958,2.1904 1.24766,0.60683 1.5875,0.71061 1.5875,0.4848 z m -29.76562,-1.45147 c 0.56838,-0.58209 0.9739,-1.05834 0.90114,-1.05834 -0.0728,0 -0.59734,0.47625 -1.16573,1.05834 -0.56839,0.58208 -0.9739,1.05833 -0.90114,1.05833 0.0728,0 0.59734,-0.47625 1.16573,-1.05833 z m -28.16621,-1.46957 c 0.18893,-0.22764 0.5539,-0.31699 0.91976,-0.22517 0.33359,0.0837 0.86025,0.0164 1.17034,-0.14951 0.79214,-0.42394 1.64771,-0.10091 1.54892,0.58481 -0.0435,0.30183 0.0699,0.59957 0.25185,0.66164 0.21786,0.0743 0.27745,-0.0529 0.17444,-0.37228 -0.5377,-1.66721 -1.21433,-2.15314 -2.09817,-1.50686 -0.27098,0.19815 -0.88247,0.36027 -1.35886,0.36027 -0.97903,0 -1.42778,0.57046 -1.39121,1.76854 l 0.0228,0.745 0.22348,-0.74452 c 0.12292,-0.40948 0.36443,-0.91435 0.5367,-1.12192 z m -5.5829,-1.04254 c -0.7009,-2.74793 -0.58547,-4.78068 0.37963,-6.6852 0.876,-1.7287 1.75784,-2.53658 3.49407,-3.20099 1.814,-0.69418 3.56391,-0.72285 4.98719,-0.0817 0.59164,0.26652 1.51696,0.67881 2.05626,0.9162 1.39846,0.61559 3.05561,2.19936 3.25602,3.11184 0.102,0.4644 0.34121,0.77904 0.59227,0.77904 0.23164,0 0.6389,0.19705 0.90502,0.43788 0.45067,0.40785 0.48386,0.40713 0.48386,-0.0105 0,-1.33253 -2.11016,-3.75788 -3.71181,-4.26622 -0.2657,-0.0843 -0.71861,-0.55249 -1.00646,-1.04035 -0.42484,-0.72006 -0.76996,-0.93991 -1.83351,-1.168 -0.89521,-0.19199 -1.61655,-0.19638 -2.27754,-0.0139 -0.53206,0.14691 -1.08519,0.19429 -1.22918,0.1053 -0.144,-0.089 -0.80374,-0.0805 -1.46609,0.0188 -0.90706,0.13602 -1.51091,0.4611 -2.44662,1.31711 -0.68329,0.62509 -1.63356,1.45822 -2.11173,1.8514 -1.54615,1.27132 -1.81051,2.1839 -1.56846,5.41433 0.10176,1.35811 1.64382,5.24786 1.9565,4.93517 0.0692,-0.0692 -0.13754,-1.15828 -0.45942,-2.42019 z m 52.08193,2.07154 c -0.69305,-0.89498 -2.67242,-2.73443 -2.94242,-2.73443 -0.15337,0 0.42871,0.71334 1.2935,1.58521 1.46973,1.48176 2.41847,2.14299 1.64892,1.14922 z m -32.04822,-0.68358 c -0.0734,-0.1819 -0.13345,-0.0331 -0.13345,0.33073 0,0.3638 0.06,0.51263 0.13345,0.33073 0.0734,-0.18191 0.0734,-0.47956 0,-0.66146 z m 42.58197,0.0244 c -0.23313,-0.33283 -0.42387,-0.51751 -0.42387,-0.41039 0,0.29499 0.6267,1.23657 0.74458,1.11869 0.0567,-0.0567 -0.0876,-0.37547 -0.32071,-0.7083 z m -33.88159,-2.01874 c -0.1773,-0.1773 -0.89477,1.10133 -1.08195,1.92821 -0.13405,0.59216 -0.007,0.46107 0.50217,-0.51619 0.37503,-0.72046 0.63593,-1.35587 0.57978,-1.41202 z m 3.91196,2.42158 c -0.17753,-0.0725 0.41727,-0.89065 1.39604,-1.92028 2.83491,-2.98223 7.07483,-4.92248 10.50176,-4.80576 1.80558,0.0615 4.99583,0.92946 6.18475,1.68266 1.76382,1.11743 3.7903,2.82929 3.7903,3.20184 0,0.19763 0.43188,0.68874 0.95974,1.09136 0.82137,0.62648 0.99266,0.67322 1.18802,0.32414 0.34619,-0.61861 1.81345,-2.32023 3.1349,-3.63562 l 1.18162,-1.1762 -0.78475,-0.16602 c -0.79338,-0.16785 -2.79976,-1.98661 -4.16943,-3.77954 -0.99685,-1.30489 -3.361,-3.01446 -5.17878,-3.74489 -1.52856,-0.61422 -3.84598,-0.91 -7.57611,-0.96697 -4.23372,-0.0647 -8.07725,1.93594 -12.76915,6.64649 -1.21998,1.22483 -2.13626,1.91806 -2.67852,2.02652 -0.45331,0.0907 -0.81933,0.23925 -0.81336,0.3302 0.006,0.0909 0.57282,0.42835 1.25967,0.74976 1.18848,0.55616 3.49198,2.55405 3.49198,3.02871 0,0.12284 -0.14883,0.22732 -0.33073,0.23216 -0.1819,0.005 -0.0496,0.24296 0.2939,0.52917 0.34354,0.2862 0.76026,0.51096 0.92604,0.49947 0.21673,-0.015 0.21451,-0.0564 -0.008,-0.1472 z m 3.65476,-0.36108 c 0.25382,0 0.79556,-0.30226 1.20386,-0.67169 l 0.74235,-0.6717 -0.92604,0.53841 c -0.50932,0.29613 -1.12166,0.53887 -1.36075,0.53941 -0.2391,5.6e-4 -0.51404,0.20935 -0.61099,0.46401 -0.14134,0.37125 -0.11024,0.39747 0.1569,0.13229 0.18325,-0.1819 0.54085,-0.33073 0.79467,-0.33073 z m -22.53802,-1.63592 c -0.19247,-0.90697 -0.39697,-1.50797 -0.45444,-1.33555 -0.13925,0.41773 0.47008,3.31888 0.65767,3.1313 0.0807,-0.0807 -0.0108,-0.88878 -0.20323,-1.79575 z m 19.88777,1.43749 c 0.32911,-0.41965 0.31975,-0.42901 -0.0999,-0.0999 -0.44073,0.34564 -0.58089,0.56292 -0.36313,0.56292 0.0549,0 0.2633,-0.20836 0.46302,-0.46302 z m 18.89586,-0.55516 c -0.41788,-0.40911 -0.42471,-0.38863 -0.10686,0.32058 0.18675,0.41669 0.38763,0.61335 0.4464,0.43704 0.0588,-0.17632 -0.094,-0.51725 -0.33954,-0.75762 z m -47.15165,-0.69423 c 0.3152,-0.0681 0.86142,-0.15716 1.21382,-0.1979 0.35241,-0.0407 0.69196,-0.22954 0.75458,-0.41956 0.0862,-0.26171 -0.22902,-0.32587 -1.29999,-0.26458 -1.25268,0.0717 -1.45429,0.16567 -1.7689,0.82458 -0.19529,0.40902 -0.27172,0.9448 -0.16984,1.19063 0.1523,0.36747 0.23076,0.31747 0.44124,-0.2812 0.14447,-0.4109 0.50569,-0.78209 0.82909,-0.85197 z m 55.60642,1.13816 c -0.29104,-0.16147 -0.73753,-0.47396 -0.99219,-0.69442 -0.25466,-0.22047 -0.46302,-0.29091 -0.46302,-0.15654 0,0.27411 1.31061,1.14709 1.71979,1.14554 0.14552,-5.6e-4 0.0265,-0.13312 -0.26458,-0.29458 z m 28.10511,-2.56028 c 0.91956,-1.54953 0.94958,-3.69131 0.0729,-5.19985 -1.41627,-2.43702 -3.61808,-4.10104 -5.42644,-4.10104 -0.52234,0 -1.32235,-0.19269 -1.77778,-0.42821 -2.08135,-1.0763 -5.95079,-0.21337 -7.05505,1.57336 -0.58149,0.94087 -2.14322,4.63831 -2.14255,5.07256 7.9e-4,0.47414 1.30966,-1.28915 1.98814,-2.67826 0.40125,-0.82149 1.0586,-1.63019 1.66893,-2.05314 0.90006,-0.62375 1.27205,-0.70205 3.50457,-0.73772 2.98674,-0.0477 4.55631,0.39925 6.45594,1.83849 1.83815,1.39266 2.51978,2.48936 2.51978,4.05418 0,1.45791 -0.33101,2.35078 -1.37744,3.71556 -0.40658,0.53027 -0.73439,1.18511 -0.72848,1.45521 0.008,0.38715 0.18052,0.2951 0.81285,-0.43495 0.44115,-0.50932 1.10924,-1.44361 1.48464,-2.07619 z m -35.08374,2.00564 c -0.26131,-0.25937 -0.2917,-0.22897 -0.14811,0.14811 0.0994,0.26094 0.2473,0.40778 0.32876,0.32632 0.0815,-0.0815 1.7e-4,-0.29496 -0.18065,-0.47443 z M 225.233,122.6816 c 1.32459,-1.80444 2.61544,-2.87441 3.71718,-3.08109 1.08994,-0.20448 1.50612,-0.64452 0.60957,-0.64452 -1.05152,0 -2.76683,1.12991 -3.91622,2.57969 -1.13522,1.4319 -1.44503,1.62768 -1.67476,1.05833 -0.0734,-0.1819 -0.14285,0.0562 -0.15434,0.52917 -0.0115,0.47294 0.088,0.8599 0.22116,0.8599 0.13313,0 0.67196,-0.58567 1.19741,-1.30148 z m -40.58913,0.37096 c 0.42687,-0.22075 0.95112,-0.73976 1.16501,-1.15336 0.55231,-1.06806 1.67792,-1.45412 3.75387,-1.28748 1.1127,0.0893 1.6444,0.0479 1.48108,-0.11544 -0.14013,-0.14013 -1.16809,-0.26748 -2.28437,-0.28301 l -2.02959,-0.0282 -0.82911,1.00585 c -0.87492,1.06143 -1.07726,1.25744 -1.92701,1.86675 -0.70033,0.50217 -0.30501,0.49917 0.67012,-0.005 z m 15.62391,-0.79588 c -0.64657,-0.70145 -1.02793,-1.33145 -0.92092,-1.52135 0.13711,-0.24333 0.0935,-0.24141 -0.17477,0.008 -0.29566,0.27449 -0.15571,0.53734 0.81003,1.52135 1.51457,1.54324 1.71041,1.53796 0.28566,-0.008 z m -16.54197,0.0727 0.77711,-0.8599 -0.8599,0.77711 c -0.80154,0.72437 -0.98151,0.94269 -0.7771,0.94269 0.0455,0 0.43248,-0.38696 0.85989,-0.8599 z m 5.35921,-0.0282 c -0.6269,-0.95634 -1.17861,-1.00749 -1.92857,-0.17879 -0.39425,0.43565 -0.38175,0.46012 0.1813,0.35505 0.33261,-0.0621 0.84287,0.0689 1.13392,0.29105 0.93918,0.71688 1.23958,0.48801 0.61335,-0.46731 z m 4.28144,-0.69944 c 0,-0.14552 -0.38696,-0.26276 -0.8599,-0.26054 -0.65252,0.003 -0.76418,0.0659 -0.46302,0.26054 0.52004,0.33607 1.32292,0.33607 1.32292,0 z m 31.25484,-0.33066 c 0.28763,-0.53981 0.27616,-0.56146 -0.12299,-0.23219 -0.2421,0.19972 -0.44019,0.46761 -0.44019,0.59531 0,0.40415 0.23512,0.25255 0.56318,-0.36312 z m -72.93402,-1.89086 c -0.97318,-0.7116 0.50759,-2.8183 2.24992,-3.20098 0.72167,-0.1585 1.14814,-0.66285 0.56051,-0.66285 -0.46087,0 -2.47842,1.19756 -3.34311,1.98437 -0.9671,0.88 -1.58622,2.91748 -0.79417,2.61354 0.29554,-0.11341 0.41042,0.0154 0.41647,0.46701 0.008,0.62097 0.0112,0.62041 0.6732,-0.13238 0.59815,-0.68018 0.62194,-0.78736 0.23718,-1.06871 z m 41.67918,1.42784 c -0.21828,-0.14107 -0.57547,-0.24994 -0.79375,-0.24194 -0.26169,0.01 -0.21663,0.092 0.13229,0.24194 0.72736,0.31255 1.14511,0.31255 0.66146,0 z m 2.90636,0.0661 c -0.002,-0.10914 -0.11602,-0.37553 -0.25287,-0.59197 -0.19555,-0.30929 -0.23927,-0.26681 -0.20423,0.19843 0.0395,0.52463 0.4673,0.89293 0.4571,0.39354 z m 31.46374,-2.61442 c 0.64069,-0.24857 1.83132,-0.59813 2.64583,-0.7768 l 1.48094,-0.32487 -1.45521,-0.007 c -2.5651,-0.012 -4.27913,0.85739 -5.14243,2.60821 l -0.45177,0.91621 0.87887,-0.98202 c 0.48338,-0.54011 1.40308,-1.1854 2.04377,-1.43396 z m -35.69302,1.75453 c 0,-0.14552 -0.18562,-0.26459 -0.41249,-0.26459 -0.22687,0 -0.3389,0.11907 -0.24897,0.26459 0.0899,0.14552 0.27556,0.26458 0.41249,0.26458 0.13694,0 0.24897,-0.11906 0.24897,-0.26458 z m 6.87917,0.1606 c 0,-0.0572 -0.18478,-0.17489 -0.41062,-0.26156 -0.23546,-0.0904 -0.34166,-0.046 -0.24897,0.10399 0.15538,0.2514 0.65959,0.37185 0.65959,0.15757 z m -40.84839,-1.34297 c -0.40846,-0.6234 -0.95578,-0.90304 -0.95578,-0.48833 0,0.27935 1.13245,1.4202 1.27161,1.28104 0.0676,-0.0677 -0.0745,-0.42437 -0.31583,-0.79271 z m 30.86037,0.74255 c -0.1819,-0.0734 -0.47956,-0.0734 -0.66146,0 -0.1819,0.0734 -0.0331,0.13346 0.33073,0.13346 0.3638,0 0.51263,-0.0601 0.33073,-0.13346 z m 29.56718,-0.0893 c 0,-0.14552 -0.11906,-0.26458 -0.26458,-0.26458 -0.14552,0 -0.26458,0.11906 -0.26458,0.26458 0,0.14552 0.11906,0.26458 0.26458,0.26458 0.14552,0 0.26458,-0.11906 0.26458,-0.26458 z m -63.0367,-0.90453 c 1.17656,-0.0182 1.32077,-0.0722 0.94162,-0.35224 -0.24625,-0.1819 -0.63332,-0.33007 -0.86017,-0.32925 -0.90633,0.003 -2.34513,0.56165 -2.82018,1.09453 l -0.50269,0.56388 0.92604,-0.4777 c 0.52058,-0.26854 1.53437,-0.48712 2.31538,-0.49922 z m 19.4466,0.15488 c -0.54215,-0.56797 -0.67249,-0.55309 -0.44094,0.0503 0.0918,0.23911 0.33268,0.43475 0.53539,0.43475 0.28069,0 0.25817,-0.11566 -0.0944,-0.48507 z m 1.65177,0.22351 c 0.0927,-0.14998 -0.0135,-0.19433 -0.24896,-0.10398 -0.45837,0.17589 -0.54224,0.36554 -0.16165,0.36554 0.13693,0 0.32171,-0.1177 0.41061,-0.26156 z m 32.67792,0.15515 c 0,-0.0585 -0.35719,-0.23093 -0.79375,-0.38311 -0.91881,-0.3203 -1.08444,-0.13944 -0.19844,0.21669 0.67015,0.26937 0.99219,0.32338 0.99219,0.16642 z m 1.09208,-0.6212 c 0.33589,-0.42829 0.32344,-0.43391 -0.16604,-0.0749 -0.29104,0.21349 -0.57878,0.42185 -0.63941,0.46302 -0.0606,0.0412 0.0141,0.0749 0.16604,0.0749 0.15195,0 0.43969,-0.20836 0.63941,-0.46302 z m -33.45445,-0.64143 c 0.87894,-0.82572 0.77288,-1.11839 -0.67806,-1.87117 -1.17749,-0.6109 -1.27899,-0.62576 -1.15976,-0.16985 0.0719,0.2748 0.23583,0.49964 0.36438,0.49964 0.12855,0 0.23373,0.1318 0.23373,0.29289 0,0.16109 -0.1786,0.22436 -0.39688,0.1406 -0.26636,-0.10222 -0.39687,0.0119 -0.39687,0.34692 0,1.41521 0.95617,1.77303 2.03346,0.76097 z m 32.75115,0.21705 c 0.44329,-0.32415 1.05815,-3.0025 0.76408,-3.32839 -0.057,-0.0631 -0.58219,0.38337 -1.1672,0.99219 -0.585,0.60881 -1.17829,1.10694 -1.3184,1.10694 -0.40594,0 -0.29774,0.38326 0.28471,1.00844 0.63103,0.67733 0.78097,0.70038 1.43681,0.22082 z m 15.46939,-1.36156 c 0,-0.14552 -0.17481,-0.0335 -0.38846,0.24901 -0.21366,0.28248 -0.38846,0.63265 -0.38846,0.77818 0,0.14552 0.1748,0.0335 0.38846,-0.24901 0.21365,-0.28248 0.38846,-0.63265 0.38846,-0.77818 z m -72.13225,-1.84374 c 1.58655,-0.77197 1.77049,-0.92384 1.10845,-0.91519 -1.10382,0.0144 -3.10052,0.86751 -3.43004,1.46547 -0.15077,0.2736 -0.48248,0.81399 -0.73714,1.20088 -0.74367,1.12981 -0.53359,1.2248 0.34675,0.1568 0.49011,-0.59458 1.5607,-1.34778 2.71198,-1.90796 z m 63.94699,2.687 c 0,-0.0455 -0.38695,-0.43249 -0.85989,-0.8599 l -0.8599,-0.77711 0.77711,0.8599 c 0.72437,0.80154 0.94268,0.98151 0.94268,0.77711 z m -5.50044,-2.23232 c 0.1825,-0.22063 0.18413,-0.33073 0.005,-0.33073 -0.35827,0 -0.59897,0.67499 -0.55023,1.543 0.0378,0.67391 0.0449,0.66993 0.1557,-0.0878 0.0638,-0.43656 0.23917,-0.94258 0.38963,-1.12448 z m 17.34664,0.0677 c 0.10579,-0.11369 -0.32291,-0.14088 -0.95267,-0.0604 -1.04698,0.13375 -2.16228,0.78413 -2.16228,1.26092 0,0.21317 2.80567,-0.86813 3.11495,-1.20049 z m -54.71924,-0.0143 c -0.17536,-0.21129 -0.50934,-0.38417 -0.74218,-0.38417 -0.31755,0 -0.27639,0.10294 0.16469,0.41188 0.32342,0.22653 0.60185,0.61349 0.61873,0.8599 0.0268,0.39178 0.0462,0.38831 0.15414,-0.0277 0.0679,-0.26165 -0.02,-0.6486 -0.19538,-0.85989 z m 57.55742,0.145 c -0.0899,-0.14552 -0.66251,-0.25272 -1.27239,-0.23821 -0.94706,0.0225 -1.01235,0.0573 -0.44741,0.23821 0.96292,0.30838 1.91038,0.30838 1.7198,0 z m -50.03671,-1.01095 c 0.4198,-0.3171 0.65793,-0.57335 0.52916,-0.56943 -0.12876,0.004 -0.59595,0.33133 -1.03819,0.7276 -0.89065,0.79807 -0.66348,0.72748 0.50903,-0.15817 z m 23.1815,0.65508 c 0,-0.0502 -0.26789,-0.3181 -0.59531,-0.59531 l -0.59532,-0.50403 0.50403,0.59531 c 0.47367,0.55945 0.6866,0.71577 0.6866,0.50403 z m -24.18292,-1.92718 c 0,-1.21867 0.91818,-2.06563 2.00392,-1.84848 0.39998,0.08 0.79841,0.0303 0.8854,-0.11047 0.0921,-0.14896 -0.29572,-0.25592 -0.92781,-0.25592 -1.69565,0 -2.77074,1.33234 -2.22424,2.75649 0.23036,0.60029 0.26273,0.53354 0.26273,-0.54162 z m 2.72962,-0.81187 c 0.0606,-0.044 -0.0155,-0.0801 -0.16912,-0.0801 -0.15365,0 -0.56045,0.24519 -0.904,0.54487 l -0.62462,0.54487 0.79375,-0.46479 c 0.43656,-0.25564 0.84336,-0.50083 0.90399,-0.54487 z m 20.14422,-0.58213 c -0.42446,-0.832 -0.90631,-1.26123 -2.08223,-1.85483 -0.93702,-0.47301 -1.651,-1.03796 -1.84225,-1.45772 -0.53304,-1.16988 -4.03105,-2.437 -4.97944,-1.80374 -0.47134,0.31472 -0.96276,1.38501 -0.63592,1.38501 0.15521,0 0.35073,-0.1786 0.43449,-0.39688 0.19487,-0.50781 1.42882,-0.51277 2.09563,-0.008 0.28248,0.21365 0.73211,0.39224 0.99919,0.39687 0.26708,0.005 0.84943,0.41936 1.2941,0.92163 0.44468,0.50227 1.13559,0.98506 1.53535,1.07287 0.39977,0.0878 1.06758,0.52292 1.48403,0.96692 0.41644,0.44401 1.03228,1.10494 1.36852,1.46875 0.84283,0.9119 0.98913,0.60442 0.32853,-0.69047 z m -15.39662,-1.04256 c -0.24485,-0.0932 -3.66722,1.43012 -3.66722,1.63231 0,0.0635 0.87797,-0.25765 1.95104,-0.71371 1.07306,-0.45606 1.84535,-0.86943 1.71618,-0.9186 z m 13.26612,1.40898 c 0,-0.19949 -2.78652,-1.39742 -4.06011,-1.74545 -1.078,-0.29458 -7.25536,-0.3854 -7.53005,-0.11071 -0.0768,0.0768 0.86241,0.15021 2.08721,0.16304 3.83874,0.0402 5.1598,0.22214 7.29648,1.00476 1.14079,0.41785 2.10394,0.77418 2.14032,0.79186 0.0364,0.0177 0.0661,-0.0289 0.0661,-0.1035 z m -14.2875,-3.17719 c 0.3638,-0.1079 0.95911,-0.40172 1.32291,-0.65292 0.36381,-0.2512 0.84006,-0.52383 1.05834,-0.60585 0.27318,-0.10266 0.22059,-0.15564 -0.16874,-0.17002 -0.81201,-0.03 -4.02756,1.53221 -4.33457,2.10584 -0.52104,0.97358 -0.23784,1.1318 0.6007,0.33561 0.47295,-0.44906 1.15756,-0.90475 1.52136,-1.01266 z m 2.30959,1.56547 c -0.0879,-0.0879 -0.31612,-0.0973 -0.50712,-0.0209 -0.21106,0.0845 -0.14837,0.14716 0.15985,0.15985 0.27892,0.0115 0.43519,-0.051 0.34727,-0.13896 z m 9.06749,-1.38518 c 0,-0.24814 -1.17273,-0.83645 -1.66609,-0.83581 -0.24375,3.2e-4 0.5617,0.51658 1.59994,1.0255 0.0364,0.0178 0.0662,-0.0675 0.0662,-0.18969 z m -5.97687,-0.90237 c -0.61774,-1.09097 -1.29212,-1.52034 -2.33748,-1.48823 l -1.07836,0.0331 1.10158,0.18007 c 1.20037,0.19621 1.94113,0.66991 1.94113,1.24131 0,0.20046 0.12609,0.36447 0.2802,0.36447 0.15411,0 0.19593,-0.14882 0.0929,-0.33073 z m -1.69605,-0.7276 c -0.51296,-0.3315 -0.79375,-0.3315 -0.79375,0 0,0.14552 0.26789,0.26276 0.59532,0.26053 0.48139,-0.003 0.51936,-0.0531 0.19843,-0.26053 z m -26.72291,52.17278 c 0,-0.0843 0.31993,-0.48714 0.71096,-0.89528 0.53825,-0.56182 0.60788,-0.74209 0.28663,-0.74209 -0.23338,0 -0.47748,0.14883 -0.54244,0.33073 -0.065,0.1819 -0.20588,0.24936 -0.31313,0.1499 -0.32808,-0.30424 0.119,-0.74521 0.75554,-0.74521 0.7816,0 1.02346,0.25959 0.65525,0.70326 -0.21811,0.2628 -0.20909,0.45821 0.0347,0.75195 0.18116,0.21828 0.28503,0.40448 0.23083,0.41377 -0.77484,0.1328 -1.81833,0.15172 -1.81833,0.033 z m -1.47036,-0.44674 c -0.11596,-0.29104 -0.32407,-0.60515 -0.46247,-0.69802 -0.44726,-0.30013 0.09,-0.75719 0.89011,-0.75719 0.54987,0 0.77814,0.12936 0.77814,0.44097 0,0.24254 -0.0822,0.35879 -0.18264,0.25834 -0.10045,-0.10045 -0.32431,0.1476 -0.49747,0.55122 -0.29355,0.68424 -0.32908,0.69808 -0.52567,0.20468 z m 3.77256,0.22963 c -0.35216,-0.35216 -0.19064,-1.69949 0.22275,-1.85812 0.55836,-0.21426 0.85982,0.14337 0.3778,0.4482 -0.33542,0.21213 -0.33133,0.2467 0.0296,0.2502 0.2699,0.003 0.40325,0.21572 0.37506,0.59936 -0.0431,0.58698 -0.64376,0.9218 -1.0052,0.56036 z m -7.90611,-0.75773 c -0.3006,-0.65974 -0.30127,-0.65985 -0.6864,-0.10999 -0.4685,0.66887 -0.73268,0.42722 -0.96563,-0.88326 -0.19886,-1.11869 0.22163,-1.38177 0.49128,-0.30738 0.1391,0.5542 0.24328,0.62555 0.54626,0.37409 0.45308,-0.37601 0.92456,-0.13433 0.93262,0.47807 0.005,0.34898 0.11702,0.30275 0.51107,-0.2101 0.71802,-0.93451 0.98242,-0.46574 0.28764,0.50998 -0.31683,0.44494 -0.63002,0.80898 -0.69599,0.80898 -0.066,0 -0.25535,-0.29717 -0.42085,-0.66039 z m 1.63516,0.18179 c 0,-0.75753 0.61475,-1.42556 1.12994,-1.22787 0.24999,0.0959 0.38745,0.28295 0.30547,0.4156 -0.082,0.13264 -0.27829,0.1613 -0.43624,0.0637 -0.16271,-0.10056 -0.21175,-0.0554 -0.11315,0.1041 0.24909,0.40303 -0.0827,1.12309 -0.51745,1.12309 -0.20272,0 -0.36857,-0.21537 -0.36857,-0.4786 z m 7.84743,0.28016 c -0.29791,-0.48737 -0.28161,-1.74824 0.0239,-1.85104 0.20795,-0.07 0.33073,0.14246 0.33073,0.57223 0,0.52993 0.13375,0.68539 0.59531,0.69192 0.58042,0.008 0.58247,0.0181 0.0817,0.39687 -0.57287,0.4333 -0.8516,0.48463 -1.03169,0.19002 z m -13.02525,-0.99218 c -0.28487,-0.72635 -0.6915,-0.9506 -1.10355,-0.60862 -0.53006,0.4399 -0.61252,0.15081 -0.28347,-0.99376 0.2792,-0.97116 0.31159,-0.99772 0.46745,-0.38339 0.16379,0.64557 1.07031,1.11137 1.07031,0.54996 0,-0.15619 0.11906,-0.28399 0.26458,-0.28399 0.31272,0 0.31825,0.96966 0.01,1.7198 l -0.21759,0.52916 z"
       id="path6379" />
  </g>
</svg>
