<?xml version="1.0" encoding="UTF-8" standalone="no"?>
<!-- Created with Inkscape (http://www.inkscape.org/) -->

<svg
   width="34.632114mm"
   height="65.744705mm"
   viewBox="0 0 34.632117 65.744703"
   version="1.1"
   id="svg5"
   inkscape:version="1.1 (c4e8f9ed74, 2021-05-24)"
   sodipodi:docname="ornament63.svg"
   xmlns:inkscape="http://www.inkscape.org/namespaces/inkscape"
   xmlns:sodipodi="http://sodipodi.sourceforge.net/DTD/sodipodi-0.dtd"
   xmlns="http://www.w3.org/2000/svg"
   xmlns:svg="http://www.w3.org/2000/svg">
  <sodipodi:namedview
     id="namedview7"
     pagecolor="#ffffff"
     bordercolor="#666666"
     borderopacity="1.0"
     inkscape:pageshadow="2"
     inkscape:pageopacity="0.0"
     inkscape:pagecheckerboard="0"
     inkscape:document-units="mm"
     showgrid="false"
     inkscape:zoom="0.94615212"
     inkscape:cx="-325.00059"
     inkscape:cy="131.58561"
     inkscape:window-width="2506"
     inkscape:window-height="1403"
     inkscape:window-x="1974"
     inkscape:window-y="0"
     inkscape:window-maximized="1"
     inkscape:current-layer="layer1" />
  <defs
     id="defs2" />
  <g
     inkscape:label="Layer 1"
     inkscape:groupmode="layer"
     id="layer1"
     transform="translate(-245.74141,-134.92436)">
    <path
       style="fill:#000000;stroke-width:0.264583"
       d="m 254.36662,200.53712 c -0.29104,-0.0644 -0.70776,-0.18843 -0.92604,-0.27562 -0.21829,-0.0872 -0.54571,-0.13454 -0.72761,-0.1052 -0.1819,0.0293 -0.33073,-0.0837 -0.33073,-0.25117 0,-0.16747 -0.17859,-0.23595 -0.39687,-0.15219 -0.21828,0.0838 -0.39688,0.0407 -0.39688,-0.0957 0,-0.13639 -0.17859,-0.17944 -0.39687,-0.0957 -0.26436,0.10144 -0.39823,-0.0118 -0.40093,-0.33903 -0.003,-0.41504 -0.0445,-0.42971 -0.26458,-0.0945 -0.21343,0.32512 -0.30176,0.33299 -0.48855,0.0435 -0.12541,-0.19433 -0.30401,-0.34316 -0.39688,-0.33073 -0.72072,0.0965 -0.96308,-0.0471 -0.96666,-0.57271 -0.003,-0.4814 -0.0531,-0.51937 -0.26053,-0.19844 -0.21103,0.32655 -0.25165,0.30311 -0.22922,-0.13229 0.015,-0.29104 0.11086,-0.88636 0.21304,-1.32292 l 0.1858,-0.79375 0.31059,1.05834 c 0.17083,0.58208 0.31126,1.20716 0.31207,1.38906 8.2e-4,0.1819 0.10702,0.33073 0.23603,0.33073 0.4233,0 0.52244,-1.69427 0.13499,-2.30714 -0.32438,-0.51312 -0.32104,-0.56806 0.0265,-0.43471 0.45942,0.17629 0.50125,-0.12647 0.14642,-1.05976 -0.17892,-0.4706 -0.15987,-0.69169 0.0662,-0.76741 0.43715,-0.14645 0.36862,-4.54844 -0.0792,-5.08805 -0.22401,-0.26991 -0.23539,-0.3971 -0.0356,-0.3971 0.45502,0 0.23976,-1.29537 -0.29581,-1.78005 -0.45808,-0.41456 -0.47669,-0.33673 -0.43961,1.83958 0.0213,1.24985 -0.038,2.39663 -0.13184,2.5484 -0.0938,0.15176 0.0821,0.41115 0.39091,0.57642 l 0.56145,0.30047 -0.57981,0.61719 c -0.44902,0.47796 -0.53992,0.79885 -0.40295,1.42248 0.0973,0.44291 0.053,1.01821 -0.0985,1.27842 -0.31622,0.54337 -0.35354,-0.11482 -0.30804,-5.43295 0.0177,-2.06343 -0.0671,-3.20157 -0.23078,-3.10038 -0.14227,0.0879 -0.18367,0.35532 -0.092,0.5942 0.12907,0.33635 0.0583,0.39276 -0.31356,0.25006 -0.3842,-0.14743 -0.4203,-0.11207 -0.18053,0.17684 0.16485,0.19862 0.22137,0.43947 0.12562,0.53523 -0.0958,0.0957 -0.0352,0.17409 0.13459,0.17409 0.36989,0 0.41914,1.50524 0.0534,1.6316 -0.1404,0.0485 -0.25748,1.21929 -0.26017,2.60173 -0.007,3.71759 0.0261,4.23334 0.27374,4.23334 0.12381,0 0.15658,0.17859 0.0728,0.39687 -0.22541,0.58739 -0.60545,0.48236 -0.88146,-0.24361 -0.1828,-0.48079 -0.38235,-0.60418 -0.80033,-0.49487 l -0.55682,0.14561 0.0904,-10.19706 0.0904,-10.19706 1.11189,-2.2439 c 0.61155,-1.23415 2.15829,-3.59629 3.4372,-5.24922 1.27892,-1.65292 2.52142,-3.31587 2.76111,-3.69545 0.66003,-1.04522 1.28298,-4.42117 1.02561,-5.5581 -0.37716,-1.66615 -1.66388,-3.66647 -3.61419,-5.61858 -1.03937,-1.04033 -2.1651,-2.42729 -2.50162,-3.08213 -1.48253,-2.88487 -1.89679,-7.71225 -0.72465,-8.44427 0.65575,-0.40952 3.0915,-0.63103 3.48324,-0.31677 0.15992,0.1283 0.70749,0.31542 1.21681,0.41584 0.50932,0.10042 1.30735,0.3552 1.77339,0.56618 0.46604,0.21098 1.29437,0.41046 1.84074,0.44329 0.89657,0.0539 0.9945,-0.005 1.00474,-0.60177 0.007,-0.38372 0.15021,-0.63369 0.34207,-0.59532 0.19657,0.0393 0.33073,-0.21221 0.33073,-0.62008 0,-0.45551 0.17175,-0.73114 0.51085,-0.81982 0.31513,-0.0824 0.45402,-0.28171 0.36252,-0.52018 -0.0942,-0.24546 0.0574,-0.44039 0.41518,-0.53395 0.31401,-0.0821 0.56353,-0.36012 0.56353,-0.62785 0,-0.26426 0.23812,-0.55606 0.52917,-0.64843 0.29104,-0.0924 0.52916,-0.33852 0.52916,-0.54699 0,-0.20848 0.24186,-0.37905 0.53747,-0.37905 0.29561,0 0.60601,-0.17859 0.68977,-0.39687 0.0838,-0.21829 0.36494,-0.39688 0.62485,-0.39688 0.2599,0 0.54582,-0.19095 0.63538,-0.42433 0.091,-0.23725 0.33308,-0.35899 0.549,-0.27614 0.21239,0.0815 0.46156,0.0262 0.5537,-0.12287 0.0921,-0.14909 0.32537,-0.2105 0.51829,-0.13647 0.19292,0.074 0.48724,-0.0298 0.65404,-0.23082 0.1668,-0.20098 0.4578,-0.30612 0.64666,-0.23365 0.18887,0.0725 0.41969,-0.0671 0.51296,-0.3101 0.13405,-0.34935 0.24847,-0.37639 0.54639,-0.12914 0.27428,0.22763 0.52108,0.23554 0.90686,0.0291 0.29151,-0.15601 0.58798,-0.18987 0.65883,-0.0752 0.0709,0.11463 0.73292,0.1736 1.47127,0.13104 0.78337,-0.0452 1.34245,0.0346 1.34245,0.19141 0,0.16191 0.22414,0.1364 0.56373,-0.0642 0.41385,-0.24444 0.5931,-0.25251 0.67415,-0.0303 0.0607,0.16645 0.32939,0.24537 0.59703,0.17538 0.26764,-0.07 0.55971,-0.009 0.64903,0.13554 0.0893,0.14454 0.40042,0.20056 0.69132,0.12449 0.29562,-0.0773 0.52891,-0.008 0.52891,0.15713 0,0.16249 0.24186,0.29544 0.53746,0.29544 0.29562,0 0.60312,0.17108 0.68336,0.38017 0.0802,0.20909 0.30227,0.32016 0.49341,0.24681 0.19114,-0.0734 0.54077,0.14253 0.77695,0.47973 0.23618,0.33719 0.48666,0.58332 0.55662,0.54694 0.39043,-0.20304 0.65636,0.002 0.65636,0.50711 0,0.3153 0.0783,0.49493 0.17409,0.39917 0.31312,-0.31311 0.83295,0.35721 0.69275,0.89331 -0.10879,0.41602 -0.0403,0.48632 0.33385,0.34274 0.40866,-0.15681 0.44862,-0.0701 0.30309,0.65753 -0.0922,0.46099 -0.0635,0.83816 0.0639,0.83816 0.2604,0 0.31996,1.84227 0.0726,2.2443 -0.088,0.14297 -0.17665,0.44062 -0.19706,0.66146 -0.30351,3.2836 -0.72265,4.75975 -1.58027,5.56544 -0.35801,0.33634 -1.08652,1.45517 -1.61891,2.4863 -0.53239,1.03114 -1.4589,2.4701 -2.05891,3.1977 -1.56321,1.89563 -2.79964,3.73175 -2.79964,4.15753 0,0.20177 -0.13435,0.5012 -0.29856,0.66541 -0.43264,0.43264 -0.61462,3.80307 -0.26288,4.86885 0.32779,0.99321 0.92196,1.87567 4.27362,6.34716 2.02455,2.70098 2.91026,4.13028 2.89835,4.67715 -0.002,0.10229 -0.11947,0.007 -0.26053,-0.21089 -0.21376,-0.33076 -0.25716,-0.31093 -0.26053,0.11907 -0.005,0.67223 -0.25268,0.37363 -1.30437,-1.57428 -0.76052,-1.4086 -0.78134,-1.49805 -0.18479,-0.79375 0.36978,0.43657 0.67396,0.67469 0.67596,0.52917 0.005,-0.38888 -0.96754,-1.5875 -1.28851,-1.5875 -0.34146,0 -2.65824,-3.05103 -2.66206,-3.50573 -0.002,-0.1819 -0.14879,-0.30096 -0.32723,-0.26458 -0.17845,0.0364 -0.36532,-0.20175 -0.41528,-0.52917 -0.05,-0.32742 -0.25522,-0.59531 -0.45615,-0.59531 -0.20093,0 -0.48138,-0.20737 -0.62322,-0.46082 -0.14183,-0.25345 -0.35266,-0.36603 -0.4685,-0.25019 -0.11584,0.11584 -0.0872,0.29344 0.0638,0.39467 0.41591,0.27898 2.02768,2.71736 1.8883,2.85673 -0.0671,0.0671 -0.3296,-0.19495 -0.58339,-0.58228 -0.25379,-0.38734 -0.7359,-1.01613 -1.07137,-1.39732 -0.33546,-0.3812 -0.85435,-0.99074 -1.15309,-1.35454 -0.29875,-0.3638 -0.54408,-0.5424 -0.54519,-0.39687 -10e-4,0.14552 0.80045,1.33614 1.78123,2.64583 1.16765,1.55921 1.98757,2.41046 2.3751,2.46588 0.73861,0.10562 1.6943,1.33825 2.56627,3.30994 0.67941,1.53626 0.9354,2.69686 0.33551,1.52111 -0.40905,-0.80171 -0.98626,-1.0186 -0.99443,-0.37367 -0.003,0.26679 -0.48073,-0.45234 -1.06077,-1.59807 -0.58004,-1.14572 -1.35565,-2.45541 -1.72357,-2.91041 -0.36793,-0.455 -1.14384,-1.40366 -1.72426,-2.10811 -0.58042,-0.70446 -1.28714,-1.73528 -1.5705,-2.2907 -0.28335,-0.55543 -0.6672,-1.07566 -0.85299,-1.15607 -0.18579,-0.0804 0.009,-0.0736 0.4333,0.0152 0.59417,0.12436 0.73851,0.0764 0.62905,-0.20893 -0.5079,-1.324 -0.78393,-3.37775 -0.51599,-3.8391 0.23986,-0.41302 0.29177,-0.27522 0.29841,0.79223 0.0105,1.6928 0.51178,3.33799 1.01698,3.33799 0.32727,0 0.31491,-0.0896 -0.0713,-0.5163 -0.3619,-0.3999 -0.47091,-0.99819 -0.4835,-2.65378 -0.009,-1.20361 -0.11015,-1.98951 -0.23117,-1.7988 -0.15584,0.24559 -0.21602,0.25139 -0.21896,0.0211 -0.002,-0.17467 0.15716,-0.4128 0.3542,-0.52917 0.36862,-0.21771 0.96602,-1.19996 0.96292,-1.58325 -9.6e-4,-0.1187 -0.2383,0.14137 -0.52742,0.57793 -0.63233,0.95478 -0.65677,0.82506 -0.12729,-0.67563 0.30241,-0.85712 0.32484,-1.18666 0.0906,-1.33141 -0.22368,-0.13824 -0.14586,-0.44127 0.27661,-1.07704 0.41949,-0.63127 0.53999,-0.71415 0.42072,-0.28936 -0.0983,0.34994 -0.0507,0.59531 0.11526,0.59531 0.15533,0 0.28241,-0.1389 0.28241,-0.30868 0,-0.16977 0.0611,-0.24758 0.13577,-0.17291 0.0747,0.0747 -0.0514,0.58363 -0.28008,1.13103 -0.22872,0.54739 -0.35632,1.05479 -0.28356,1.12755 0.0728,0.0728 0.31092,-0.29524 0.52926,-0.81778 0.56539,-1.35318 2.63957,-5.45019 2.71903,-5.37074 0.13264,0.13264 -0.73031,2.36256 -1.51858,3.92412 -0.44366,0.87889 -0.68115,1.52041 -0.52776,1.42561 0.2451,-0.15148 3.45926,-6.55628 3.45926,-6.89321 0,-0.39518 -0.57002,-0.0309 -0.93444,0.5972 -0.23219,0.40018 -0.36607,0.53821 -0.29751,0.30674 0.0686,-0.23148 0.0227,-0.5858 -0.10186,-0.78738 -0.17498,-0.28312 -0.286,-0.21745 -0.48792,0.28857 -0.1843,0.46188 -0.26635,0.51853 -0.27817,0.19207 -0.009,-0.25466 -0.10607,-0.47544 -0.21521,-0.49063 -1.17445,-0.16338 -2.18353,-0.10047 -2.18686,0.13635 -0.002,0.15847 -0.11659,0.11012 -0.25414,-0.10745 -0.21448,-0.33927 -0.3062,-0.32043 -0.64425,0.13229 -0.38226,0.51195 -0.3893,0.50865 -0.23324,-0.10922 0.13954,-0.55248 0.0851,-0.61727 -0.41004,-0.48779 -0.385,0.10068 -0.57095,0.0281 -0.57095,-0.2228 0,-0.20466 -0.11906,-0.3721 -0.26458,-0.3721 -0.14552,0 -0.26458,0.13364 -0.26458,0.29698 0,0.1963 -0.14425,0.17726 -0.42551,-0.0562 -0.36185,-0.30031 -0.48175,-0.27622 -0.80146,0.161 -0.36015,0.49253 -0.37285,0.48655 -0.3021,-0.14227 0.0536,-0.47631 -0.0474,-0.6473 -0.36824,-0.62317 -0.27352,0.0206 -0.38884,-0.10553 -0.30242,-0.33073 0.17205,-0.44837 -0.22764,-0.47662 -0.65777,-0.0465 -0.24695,0.24695 -0.3175,0.24066 -0.3175,-0.0283 0,-0.1902 -0.16874,-0.28106 -0.37498,-0.20192 -0.20624,0.0791 -0.44063,-0.0272 -0.52087,-0.23627 -0.18077,-0.47109 -1.74833,-0.51527 -1.75404,-0.0494 -0.003,0.24524 -0.0624,0.23864 -0.22984,-0.0256 -0.24508,-0.38672 -2.10985,-0.57992 -2.31973,-0.24033 -0.0708,0.1146 -0.24483,0.13664 -0.38667,0.049 -0.14184,-0.0877 -0.42975,-0.0168 -0.6398,0.15757 -0.21006,0.17433 -0.5666,0.2461 -0.79232,0.15948 -0.26753,-0.10266 -0.49313,0.0482 -0.64806,0.43342 -0.18326,0.45567 -0.24149,0.48494 -0.25442,0.12788 -0.0173,-0.47697 -0.4124,-0.62855 -0.64738,-0.24836 -0.15166,0.2454 -1.07024,0.19396 -2.86275,-0.16034 -1.05471,-0.20847 -1.26176,-0.18094 -1.35837,0.18059 -0.0845,0.31618 -0.12245,0.28963 -0.14673,-0.10261 -0.0437,-0.70596 -0.92084,-1.05971 -2.60831,-1.05194 -0.76399,0.004 -1.38907,-0.0928 -1.38907,-0.21405 0,-0.12125 -0.11906,-0.14687 -0.26458,-0.0569 -0.42729,0.26408 -0.31045,0.91205 0.44863,2.48801 0.49276,1.02306 0.74529,1.33142 0.81701,0.99765 0.0774,-0.36 0.23975,-0.20832 0.63736,0.59531 0.29345,0.59312 0.6472,1.0784 0.7861,1.0784 0.1389,0 0.17896,-0.11906 0.089,-0.26458 -0.0899,-0.14552 -0.0998,-0.26458 -0.0219,-0.26458 0.0779,0 0.38021,0.44648 0.67186,0.99218 l 0.53028,0.99219 -0.0736,-1.20349 c -0.0659,-1.07735 -0.012,-1.20859 0.51437,-1.25215 0.45379,-0.0376 0.62734,0.13071 0.7606,0.73744 0.23165,1.05467 0.65615,1.26943 0.68145,0.34475 0.0184,-0.67145 0.054,-0.64102 0.36913,0.31512 l 0.3488,1.05833 0.0582,-1.5875 c 0.10295,-2.80975 0.39419,-0.12258 0.39419,3.63711 0,1.85489 0.10637,3.4084 0.23638,3.45223 0.13085,0.0441 0.1123,0.31154 -0.0416,0.59904 -0.15286,0.28564 -0.21777,0.83409 -0.14423,1.21879 0.0873,0.45685 -0.0957,1.09826 -0.52781,1.84927 -0.36383,0.6324 -0.74,1.52682 -0.83592,1.9876 -0.0959,0.46079 -0.32878,0.89704 -0.51748,0.96945 -0.1887,0.0724 -0.41657,0.49908 -0.50639,0.94815 -0.0898,0.44907 -0.31028,0.81649 -0.48993,0.81649 -0.32727,0 -2.59701,2.31649 -2.59701,2.65051 0,0.0977 -0.29758,0.52354 -0.66129,0.94635 -1.00487,1.16817 -1.94444,3.33706 -1.83005,4.22444 0.0932,0.72269 0.0851,0.7309 -0.11458,0.1162 -0.19388,-0.59696 -0.2431,-0.53319 -0.50465,0.65382 -0.30181,1.36969 -0.0362,2.6244 0.31877,1.50594 0.26375,-0.83102 0.67513,-0.70112 0.67513,0.21318 0,0.58947 -0.099,0.74745 -0.39687,0.63315 -0.31426,-0.12059 -0.39688,0.0809 -0.39688,0.96777 0,2.04443 2.70943,6.42882 4.90732,7.94101 1.1388,0.78351 1.53188,0.79628 1.2418,0.0403 -0.14501,-0.37787 -0.11552,-0.38279 0.24966,-0.0417 0.22775,0.21275 0.35673,0.53627 0.28664,0.71894 -0.16559,0.4315 0.069,0.41918 1.79937,-0.0945 2.83102,-0.84044 6.5987,-3.03092 10.44894,-6.07487 1.3185,-1.04239 2.90483,-2.21566 3.52518,-2.60727 0.93484,-0.59014 1.07284,-0.77838 0.80617,-1.09969 -0.17695,-0.21322 -0.24524,-0.46417 -0.15174,-0.55767 0.0935,-0.0935 0.17,-0.0438 0.17,0.11038 0,0.56159 0.78348,0.55788 1.90011,-0.009 0.96554,-0.49017 1.58327,-0.58005 3.98647,-0.58005 1.70809,0 2.85073,-0.10567 2.86104,-0.26458 0.009,-0.14553 0.12241,-0.003 0.25104,0.3161 0.12863,0.31937 0.30854,5.04493 0.3998,10.50123 l 0.16593,9.92056 -0.7473,-0.086 c -0.41102,-0.0473 -0.95566,0.0974 -1.21032,0.32154 -0.3394,0.29876 -0.46302,0.31734 -0.46302,0.0696 0,-0.25275 -0.0896,-0.26367 -0.35508,-0.0433 -0.19529,0.16207 -0.43341,0.21634 -0.52916,0.12059 -0.0957,-0.0957 -0.1741,-0.0224 -0.1741,0.16289 0,0.2061 -0.17163,0.27113 -0.44187,0.16743 -0.24302,-0.0933 -0.51406,-0.0528 -0.60229,0.09 -0.10066,0.16286 -0.30569,0.16771 -0.55032,0.013 -0.33305,-0.21062 -0.32651,-0.24716 0.0448,-0.25062 0.23909,-0.002 0.5027,-0.18122 0.58579,-0.39775 0.0873,-0.22752 0.0155,-0.36712 -0.17013,-0.33073 -0.44939,0.0881 -0.55624,-3.54432 -0.11255,-3.82628 0.23266,-0.14786 0.23613,-0.2048 0.0127,-0.20774 -0.20904,-0.003 -0.24187,-0.23758 -0.10229,-0.73166 0.11305,-0.40018 0.34088,-0.69784 0.50628,-0.66146 0.1654,0.0364 0.30073,-0.12518 0.30073,-0.35903 0,-0.27872 -0.14393,-0.36995 -0.41784,-0.26485 -0.34224,0.13134 -0.38731,0.0214 -0.24909,-0.60796 0.0943,-0.42919 0.0492,-0.84216 -0.102,-0.93563 -0.23999,-0.14833 -0.18617,-4.16317 0.0881,-6.56922 0.046,-0.40318 -0.0202,-0.79715 -0.14696,-0.87551 -0.12679,-0.0784 -0.23052,-0.67122 -0.23052,-1.31748 0,-1.10508 -0.33005,-1.57772 -0.58958,-0.84428 -0.0644,0.1819 -0.14265,2.11667 -0.17397,4.29948 -0.0313,2.18281 -0.1222,4.80219 -0.20198,5.82083 -0.29232,3.73277 -0.2444,8.0698 0.0892,8.0698 0.17378,0 0.37395,0.0938 0.44481,0.20845 0.12204,0.19747 -0.20124,0.2627 -2.09779,0.4233 -0.44526,0.0377 -0.92151,0.12956 -1.05833,0.20413 -0.13683,0.0746 -0.75479,0.1127 -1.37326,0.0847 -0.61846,-0.028 -1.12447,0.0657 -1.12447,0.20813 0,0.14242 -0.17338,0.11507 -0.38529,-0.0608 -0.21647,-0.17966 -0.53527,-0.22698 -0.7276,-0.10799 -0.4653,0.28784 -2.3267,0.31105 -2.3267,0.029 0,-0.12455 -0.13969,-0.14012 -0.31042,-0.0346 -0.4715,0.2914 -8.76915,0.31547 -9.14843,0.0265 -0.21779,-0.16591 -0.33073,-0.15054 -0.33073,0.045 0,0.30771 -0.045,0.31347 -0.92604,0.11851 z m 2.73061,-1.42014 c 0.1909,-1.46433 0.33999,-8.83755 0.19073,-9.43226 -0.12934,-0.51533 -0.27573,-0.60644 -0.74734,-0.46514 -1.15934,0.34735 -1.22099,0.59437 -1.2693,5.08515 -0.0255,2.36763 -0.15014,4.36895 -0.27706,4.44739 -0.12781,0.079 -0.23077,-1.84431 -0.23077,-4.31078 v -4.4534 h -1.07405 -1.07406 l 0.0618,3.18101 c 0.034,1.74956 0.15181,3.50844 0.26183,3.90862 0.20186,0.73416 -0.0937,0.99828 -0.45777,0.40913 -0.10826,-0.17516 -0.22481,-2.03857 -0.25901,-4.14091 l -0.0622,-3.82244 -0.81494,-0.81493 -0.81494,-0.81494 -0.0132,1.45012 c -0.051,5.6186 0.069,8.8083 0.34259,9.10114 0.16721,0.179 0.57502,0.27365 0.90625,0.21033 0.38015,-0.0727 0.88564,0.12336 1.37079,0.53159 0.63839,0.53716 1.03172,0.64111 2.3222,0.61368 1.44003,-0.0306 1.55983,-0.0806 1.63841,-0.68336 z m -6.30249,-2.78263 c 0,-0.22687 0.11907,-0.3389 0.26459,-0.24896 0.14552,0.0899 0.26458,0.27555 0.26458,0.41249 0,0.13693 -0.11906,0.24896 -0.26458,0.24896 -0.14552,0 -0.26459,-0.18562 -0.26459,-0.41249 z m 8.63805,1.84582 c 0.0215,-0.86109 0.0731,-2.93484 0.11465,-4.60833 0.0601,-2.42174 -0.0123,-3.20036 -0.35509,-3.81521 -0.30879,-0.5539 -0.35732,-0.90954 -0.17149,-1.25677 0.17358,-0.32434 0.16871,-0.48427 -0.0147,-0.48427 -0.15065,0 -0.2739,0.11533 -0.2739,0.25628 0,0.14096 -0.17393,0.18954 -0.38652,0.10796 -0.33002,-0.12664 -0.3977,0.66942 -0.46302,5.446 -0.0421,3.07688 0.0164,5.68704 0.13004,5.80035 0.1136,0.11332 0.47079,0.18659 0.79375,0.16282 0.53067,-0.0391 0.59097,-0.19398 0.6263,-1.60883 z m 2.2894,1.57395 c 0.0922,-0.0923 -0.0665,-0.46549 -0.35278,-0.82943 -0.60975,-0.77517 -0.69181,-1.50645 -0.14552,-1.29682 0.53501,0.2053 0.68335,-0.3799 0.68335,-2.69588 0,-1.41466 -0.12571,-2.21564 -0.41188,-2.62419 -0.22653,-0.32342 -0.31157,-0.58804 -0.18898,-0.58804 0.12259,0 0.22289,-0.23813 0.22289,-0.52917 0,-0.58807 -0.30632,-0.71217 -0.4898,-0.19843 -0.065,0.1819 -0.19561,0.2596 -0.29034,0.17268 -0.0947,-0.0869 0.0854,-0.48559 0.40032,-0.88591 0.40811,-0.51883 0.48335,-0.78299 0.26199,-0.9198 -0.17081,-0.10556 -0.3272,-0.63462 -0.34754,-1.17567 -0.0274,-0.73003 -0.1417,-0.96358 -0.44302,-0.90555 -0.34831,0.0671 -0.41643,0.93898 -0.4791,6.13272 -0.0402,3.32998 -0.01,6.15727 0.0681,6.28286 0.16334,0.2643 1.26452,0.30845 1.51234,0.0606 z m 1.48822,-0.16301 c -0.083,-0.63889 0.0224,-0.99218 0.29593,-0.99218 0.1519,0 0.25686,0.14882 0.23324,0.33073 -0.0967,0.74453 0.0784,0.86153 1.34306,0.89734 0.94403,0.0267 1.32252,-0.0635 1.32252,-0.31512 0,-0.19391 -0.11386,-0.42293 -0.25303,-0.50894 -0.13916,-0.086 -0.18622,-0.33047 -0.10457,-0.54326 0.22146,-0.5771 0.62218,-0.19334 0.62218,0.59583 0,1.48229 0.30172,0.28757 0.37776,-1.4958 0.0443,-1.03867 0.156,-1.96398 0.24825,-2.05624 0.27182,-0.27182 0.19201,-1.27236 -0.12693,-1.5913 -0.18582,-0.18582 -0.27145,-1.256 -0.23181,-2.89719 0.0783,-3.24128 -0.10262,-7.68675 -0.32165,-7.90373 -0.0428,-0.0425 -0.33148,0.12841 -0.6414,0.3797 -0.4893,0.39673 -0.58646,0.8379 -0.73791,3.35066 -0.0959,1.59158 -0.15708,3.1319 -0.1359,3.42294 0.0212,0.29104 0.0556,2.28388 0.0764,4.42854 0.0277,2.85012 -0.0488,3.93273 -0.28432,4.02334 -0.48113,0.18509 -0.6509,-0.26595 -0.57355,-1.52378 0.0382,-0.62086 -0.0145,-1.26458 -0.11702,-1.4305 -0.10254,-0.16591 -0.06,-0.37977 0.0944,-0.47524 0.15447,-0.0955 0.27127,-0.72877 0.25956,-1.40734 -0.0117,-0.67857 -0.0197,-1.41236 -0.0177,-1.63064 0.002,-0.21828 -0.0444,-1.26008 -0.10307,-2.31511 -0.0598,-1.07543 8.4e-4,-1.91823 0.13804,-1.91823 0.13459,0 0.23634,-0.26789 0.22611,-0.59531 -0.0171,-0.54697 -0.0349,-0.55377 -0.21894,-0.0837 -0.13772,0.3517 -0.26084,0.41372 -0.39389,0.19844 -0.10645,-0.17224 -0.11674,-0.43744 -0.0229,-0.58934 0.23619,-0.38216 -0.36685,-1.04674 -0.94982,-1.04674 -0.45159,0 -0.48142,0.39456 -0.48808,6.45623 -0.004,3.55093 -0.0251,6.55726 -0.0471,6.68073 -0.0899,0.50448 0.0387,0.88595 0.29882,0.88595 0.1519,0 0.25686,-0.14882 0.23324,-0.33073 z m 6.6235,-0.62379 c -0.19352,-0.509 -0.13734,-0.70119 0.2814,-0.9627 0.28775,-0.1797 0.52318,-0.60278 0.52318,-0.94016 0,-0.33739 -0.11386,-0.54306 -0.25303,-0.45705 -0.13916,0.086 -0.18595,0.33116 -0.10398,0.54478 0.082,0.21362 0.0172,0.3884 -0.14385,0.3884 -0.41895,0 -0.38813,-4.61716 0.0353,-5.29525 0.25904,-0.4148 0.26009,-0.63468 0.005,-1.04319 -0.47045,-0.75331 -0.766,-2.79258 -0.36919,-2.54733 0.17006,0.1051 0.23115,0.31737 0.13576,0.47171 -0.0978,0.15823 -0.0203,0.2296 0.17758,0.16362 0.59376,-0.19792 0.60313,-0.77225 0.0151,-0.92602 -0.69655,-0.18215 -0.70379,-0.39419 -0.0279,-0.8163 0.29104,-0.18176 0.52916,-0.44852 0.52916,-0.59281 0,-0.37917 -0.72517,-0.32301 -0.8831,0.0684 -0.0785,0.1945 -0.14206,0.13658 -0.15434,-0.1406 -0.0115,-0.25923 0.16125,-0.54122 0.38387,-0.62665 0.26461,-0.10153 0.34706,-0.33711 0.23812,-0.68034 -0.0917,-0.28876 -0.17039,-0.95927 -0.17499,-1.49002 -0.005,-0.53075 -0.0621,-0.81617 -0.12788,-0.63427 -0.23365,0.64651 -0.5194,0.31625 -0.55542,-0.64195 -0.0201,-0.53497 -0.18478,-1.06428 -0.36594,-1.17624 -0.18115,-0.11196 -0.34657,-0.18027 -0.3676,-0.1518 -0.021,0.0285 -0.1136,4.16526 -0.20573,9.19286 l -0.1675,9.1411 0.90886,-0.1061 c 0.8376,-0.0978 0.88991,-0.15598 0.66708,-0.74208 z m 2.06274,0.0285 c -0.0695,-0.3638 -0.042,-0.66146 0.0612,-0.66146 0.1032,0 0.20983,-0.32742 0.23697,-0.7276 0.12116,-1.78685 0.18488,-2.06728 0.53133,-2.3387 0.30909,-0.24214 0.29853,-0.31478 -0.0661,-0.45472 -0.53947,-0.20701 -0.63415,-2.56194 -0.10327,-2.56844 0.2364,-0.003 0.22541,-0.0707 -0.0385,-0.23789 -0.21162,-0.13399 -0.29675,-0.42286 -0.19939,-0.67657 0.0934,-0.24351 0.0624,-0.64362 -0.069,-0.88913 -0.13405,-0.25047 -0.15693,-1.72267 -0.0521,-3.35427 0.18418,-2.86763 -0.0477,-5.15684 -0.52225,-5.15684 -0.13374,0 -0.24688,1.27992 -0.25143,2.84427 -0.005,1.56435 -0.0787,5.44761 -0.16467,8.62948 -0.1282,4.74204 -0.0909,5.82668 0.20671,6.01522 0.53377,0.33812 0.56949,0.303 0.43064,-0.42335 z m 4.59001,-1.12448 c 0.32547,-0.84932 0.44561,-7.18787 0.14545,-7.67354 -0.11479,-0.18573 -0.0793,-0.3301 0.081,-0.3301 0.1719,0 0.26649,-0.52478 0.23827,-1.32193 -0.0423,-1.19589 -0.0811,-1.27293 -0.40672,-0.80805 -0.25789,0.36819 -0.40702,1.98064 -0.52603,5.68755 -0.0914,2.84552 -0.0862,5.17368 0.0115,5.17368 0.0977,0 0.30311,-0.32743 0.45646,-0.72761 z m 2.27007,-1.17409 c -0.0845,-0.21106 -0.14715,-0.14837 -0.15985,0.15986 -0.0115,0.27891 0.051,0.43518 0.13897,0.34726 0.0879,-0.0879 0.0973,-0.31612 0.0209,-0.50712 z m -8.06009,-2.0787 c 0.065,-0.44297 0.019,-0.86672 -0.10226,-0.94166 -0.12126,-0.0749 -0.22047,0.28749 -0.22047,0.8054 0,1.15388 0.16326,1.22281 0.32273,0.13626 z m 7.48248,-2.3696 c 0.0899,-0.14552 0.0374,-0.26459 -0.11668,-0.26459 -0.15411,0 -0.2802,0.11907 -0.2802,0.26459 0,0.14552 0.0525,0.26458 0.11668,0.26458 0.0642,0 0.19026,-0.11906 0.2802,-0.26458 z M 247.8323,184.8792 c -0.39493,-0.15067 -0.55786,0.16553 -0.34914,0.67761 0.18035,0.44245 0.20691,0.43876 0.39407,-0.0547 0.11038,-0.29104 0.0902,-0.57133 -0.0449,-0.62287 z m 30.47911,0.35829 c 0,-0.21828 -0.11533,-0.39688 -0.25628,-0.39688 -0.14095,0 -0.18775,0.1786 -0.10399,0.39688 0.0838,0.21828 0.19909,0.39687 0.25628,0.39687 0.0572,0 0.10399,-0.17859 0.10399,-0.39687 z m -0.0894,-2.31511 c -0.0734,-0.1819 -0.13345,-0.0331 -0.13345,0.33073 0,0.36381 0.0601,0.51263 0.13345,0.33073 0.0734,-0.1819 0.0734,-0.47955 0,-0.66146 z m -7.98043,-0.46302 c 0.0899,-0.14552 -0.0291,-0.26458 -0.26459,-0.26458 -0.23545,0 -0.35452,0.11906 -0.26458,0.26458 0.0899,0.14552 0.209,0.26459 0.26458,0.26459 0.0556,0 0.17465,-0.11907 0.26459,-0.26459 z m 5.26435,-7.8933 c 0.0749,-0.12121 -0.17454,-0.68676 -0.55434,-1.25677 -0.87645,-1.3154 -0.8471,-1.28332 -1.01795,-1.11247 -0.18083,0.18083 0.97242,2.58963 1.23984,2.58963 0.10793,0 0.25753,-0.0992 0.33245,-0.22039 z m -4.60289,-10.23066 c 0,-0.50932 -0.11907,-0.92604 -0.26459,-0.92604 -0.29339,0 -0.36691,1.39698 -0.0882,1.6757 0.30452,0.30452 0.35278,0.20197 0.35278,-0.74966 z m -0.0894,-3.10885 c -0.0734,-0.1819 -0.13345,-0.0331 -0.13345,0.33073 0,0.3638 0.0601,0.51263 0.13345,0.33073 0.0734,-0.1819 0.0734,-0.47956 0,-0.66146 z m -16.1471,-3.70417 c -0.20553,-1.79218 -0.44531,-2.82108 -0.69315,-2.97425 -0.10872,-0.0672 -0.0778,0.44058 0.0687,1.12838 0.14649,0.68781 0.30002,1.60775 0.34119,2.04431 0.0412,0.43656 0.084,0.88305 0.0952,0.99219 0.0112,0.10914 0.0939,0.19844 0.18387,0.19844 0.0899,0 0.0918,-0.62508 0.004,-1.38907 z m -1.06951,-2.21503 c -0.084,-0.21901 -0.26253,-0.33037 -0.39665,-0.24748 -0.13412,0.0829 -0.30462,0.0279 -0.3789,-0.12214 -0.0743,-0.15006 -0.0993,-0.12104 -0.0557,0.0645 0.0437,0.18554 0.21332,0.30758 0.37703,0.2712 0.16371,-0.0364 0.31147,0.26127 0.32835,0.66145 0.0201,0.47607 0.0736,0.5622 0.15467,0.24913 0.0682,-0.26316 0.0552,-0.65766 -0.0288,-0.87666 z m 21.65447,-1.66059 c -0.16608,-0.16608 -0.63836,0.50591 -0.63187,0.89906 0.002,0.14552 0.17794,0.0351 0.39009,-0.24527 0.21215,-0.28042 0.32095,-0.57462 0.24178,-0.65379 z m -22.34009,-0.83636 c 0,-0.29963 -0.11386,-0.47442 -0.25303,-0.38841 -0.13916,0.086 -0.18596,0.33116 -0.10398,0.54478 0.20987,0.54693 0.35701,0.48248 0.35701,-0.15637 z m 22.70307,-0.12368 c -0.0815,-0.0815 -0.22941,0.0654 -0.32877,0.32632 -0.14358,0.37708 -0.11319,0.40747 0.14811,0.14811 0.18083,-0.17948 0.26212,-0.39297 0.18066,-0.47443 z m 0.84485,-1.51439 c 0,-0.1263 0.11083,-0.16113 0.2463,-0.0774 0.13546,0.0837 0.31094,0.0476 0.38995,-0.0802 0.079,-0.12784 -0.0958,-0.21908 -0.38851,-0.20275 -0.57323,0.032 -1.03606,0.58084 -1.02903,1.22031 0.003,0.30111 0.0981,0.27295 0.39282,-0.11672 0.21366,-0.28247 0.38847,-0.61692 0.38847,-0.74321 z m -3.18747,-1.06134 c 0.34978,0.21844 0.55183,0.21774 0.77226,-0.003 0.22166,-0.22166 0.29854,-0.21276 0.29854,0.0346 0,0.18322 0.11906,0.25954 0.26458,0.1696 0.46566,-0.2878 0.28371,-0.66092 -0.33073,-0.67823 -0.56514,-0.0159 -0.56849,-0.0277 -0.0661,-0.23159 0.79653,-0.32336 1.06663,-0.28661 0.98059,0.13342 -0.12084,0.58989 0.65992,0.44668 0.81586,-0.14964 0.1585,-0.6061 0.71709,-0.72132 0.71709,-0.14791 0,0.20969 0.13179,0.46271 0.29287,0.56227 0.20362,0.12584 0.23755,-0.0709 0.11133,-0.64559 -0.15068,-0.68605 -0.11051,-0.79933 0.23629,-0.66625 0.22981,0.0882 0.41784,0.26667 0.41784,0.39662 0,0.12995 0.10616,0.23627 0.2359,0.23627 0.32282,0 0.65713,-1.27027 0.6093,-2.3151 -0.0284,-0.6196 0.076,-0.8599 0.37352,-0.8599 0.4627,0 0.37647,-0.5707 -0.11078,-0.73311 -0.1728,-0.0576 -0.31419,0.0861 -0.31419,0.31923 0,0.32011 -0.16203,0.3833 -0.66146,0.25795 -0.3638,-0.0913 -0.66169,-0.0638 -0.66198,0.0611 -2.7e-4,0.12492 -0.43633,0.25834 -0.96896,0.29649 -0.53263,0.0381 -1.1171,0.19275 -1.29883,0.34357 -0.1966,0.16317 -0.39157,0.17526 -0.48143,0.0299 -0.19181,-0.31036 -1.44636,-0.32021 -1.63632,-0.0128 -0.2433,0.39367 -0.57274,0.25658 -0.71797,-0.29875 -0.088,-0.33647 -0.28287,-0.47492 -0.53326,-0.37883 -0.21703,0.0833 -0.4732,0.0242 -0.56927,-0.1312 -0.0961,-0.15544 -0.40576,-0.28262 -0.68822,-0.28262 -0.28245,0 -0.51355,-0.11907 -0.51355,-0.26459 0,-0.14552 -0.1871,-0.26458 -0.41577,-0.26458 -0.22868,0 -0.60757,-0.1918 -0.84199,-0.42622 -0.3919,-0.3919 -0.45429,-0.38782 -0.77485,0.0506 -0.32548,0.44512 -0.34864,0.43623 -0.34864,-0.13381 0,-0.48033 -0.11289,-0.58107 -0.52916,-0.47221 -0.29105,0.0761 -0.52917,0.0305 -0.52917,-0.10143 0,-0.1319 -0.33338,-0.23982 -0.74083,-0.23982 -0.40746,0 -0.8749,-0.13406 -1.03875,-0.29791 -0.33288,-0.33288 -3.76042,-0.53441 -4.17355,-0.24539 -0.14552,0.1018 -0.51553,0.19749 -0.82225,0.21263 -1.05984,0.0523 -2.48954,0.80482 -2.32816,1.22538 0.0886,0.23089 0.3252,0.32814 0.56988,0.23425 0.25477,-0.0978 0.35129,-0.052 0.24681,0.11706 -0.0944,0.15269 -0.41644,0.34164 -0.71573,0.41991 -0.45071,0.11786 -0.51481,0.0498 -0.37323,-0.39624 0.12194,-0.38422 0.0682,-0.50437 -0.18757,-0.41931 -0.48535,0.16143 -0.52816,1.59014 -0.0588,1.9626 0.32265,0.25605 0.31437,0.3236 -0.0571,0.46615 -0.33324,0.12788 -0.36481,0.25063 -0.13551,0.52693 0.16442,0.19811 0.22463,0.55389 0.13379,0.79062 -0.1087,0.28325 -0.0251,0.43041 0.2444,0.43041 0.56748,0 0.80994,-0.48125 0.45682,-0.90674 -0.2226,-0.26821 -0.19189,-0.39361 0.12628,-0.5157 0.23122,-0.0887 0.34714,-0.27987 0.2576,-0.42475 -0.0938,-0.15181 0.0104,-0.19696 0.24593,-0.10657 0.28091,0.10779 0.35898,0.35508 0.24964,0.79072 -0.11633,0.4635 -0.0494,0.63387 0.24889,0.63387 0.24839,0 0.44074,-0.28462 0.49171,-0.7276 0.10739,-0.93331 1.09767,-1.04011 1.2266,-0.1323 0.11928,0.83988 0.78942,0.74198 0.89006,-0.13003 0.0551,-0.4774 0.26461,-0.75923 0.61289,-0.8245 0.5219,-0.0978 0.52222,-0.0914 0.0237,0.46238 -0.61424,0.68235 -0.45979,0.87505 0.76072,0.94915 0.77088,0.0468 0.9354,-0.0341 0.9354,-0.45992 0,-0.3506 -0.12759,-0.46775 -0.39687,-0.36442 -0.66806,0.25636 -0.43619,-0.20782 0.26665,-0.5338 0.70872,-0.32872 0.7634,-0.25515 0.66974,0.90114 -0.0265,0.32743 0.0794,0.59532 0.2353,0.59532 0.15593,0 0.28352,-0.23813 0.28352,-0.52917 0,-0.38806 0.17638,-0.52917 0.66145,-0.52917 0.75912,0 0.90446,0.64389 0.20586,0.91197 -0.371,0.14236 -0.38774,0.21678 -0.0901,0.4007 0.51627,0.31908 1.0712,0.0439 0.88579,-0.4393 -0.12815,-0.33397 -0.0611,-0.35516 0.37868,-0.11977 0.39823,0.21313 0.4998,0.46694 0.39864,0.99615 -0.0893,0.46712 -0.0383,0.6499 0.14908,0.53411 0.15667,-0.0968 0.46502,0.0812 0.68524,0.39559 l 0.40038,0.57164 0.17732,-0.70648 c 0.0975,-0.38857 0.39498,-0.82297 0.66101,-0.96535 0.44902,-0.2403 0.45765,-0.20866 0.12043,0.44133 -0.45427,0.87562 -0.0885,1.3255 1.0548,1.29748 0.58428,-0.0143 0.78405,-0.1405 0.757,-0.47814 -0.0202,-0.25227 0.13564,-0.45868 0.34634,-0.45868 0.2107,0 0.31044,0.11756 0.22164,0.26125 -0.27429,0.4438 0.47112,1.05442 0.87931,0.72033 0.25455,-0.20834 0.48359,-0.20624 0.82595,0.008 z m -3.42712,-0.84124 c 0,-0.22687 0.11906,-0.41249 0.26459,-0.41249 0.14552,0 0.26458,0.11204 0.26458,0.24897 0,0.13693 -0.11906,0.32255 -0.26458,0.41249 -0.14553,0.0899 -0.26459,-0.0221 -0.26459,-0.24897 z m 1.85209,-1.20624 c 0,-0.14552 0.11906,-0.26458 0.26458,-0.26458 0.14552,0 0.26458,0.11906 0.26458,0.26458 0,0.14552 -0.11906,0.26458 -0.26458,0.26458 -0.14552,0 -0.26458,-0.11906 -0.26458,-0.26458 z m 5.42662,-0.53348 c 0.0914,-0.1479 0.27702,-0.2004 0.41249,-0.11668 0.36699,0.22681 0.29856,0.38558 -0.16619,0.38558 -0.22687,0 -0.3377,-0.12101 -0.2463,-0.2689 z m -6.22037,-0.52485 c -0.30816,-0.19915 -0.23075,-0.25739 0.34634,-0.26054 0.42891,-0.002 0.67407,0.10785 0.5797,0.26054 -0.20304,0.32851 -0.4177,0.32851 -0.92604,0 z m 2.24895,0 c 0.0899,-0.14552 0.21603,-0.26459 0.2802,-0.26459 0.0642,0 0.11668,0.11907 0.11668,0.26459 0,0.14552 -0.12609,0.26458 -0.2802,0.26458 -0.15411,0 -0.20661,-0.11906 -0.11668,-0.26458 z m -6.56329,-0.1692 c -0.21138,-0.21138 0.0276,-0.62455 0.3612,-0.62455 0.13693,0 0.24897,0.17859 0.24897,0.39687 0,0.40916 -0.3122,0.52565 -0.61017,0.22768 z m 10.39975,-0.10876 c 0,-0.10424 0.30238,-0.24732 0.67195,-0.31797 0.3983,-0.0761 0.63458,-0.0164 0.5802,0.14678 -0.10309,0.30925 -1.25215,0.46636 -1.25215,0.17119 z m -19.31458,-0.78038 c 0,-0.14552 0.12609,-0.26458 0.2802,-0.26458 0.15411,0 0.20661,0.11906 0.11667,0.26458 -0.0899,0.14552 -0.21602,0.26459 -0.28019,0.26459 -0.0642,0 -0.11668,-0.11907 -0.11668,-0.26459 z m 7.01146,0 c -0.0899,-0.14552 -0.0445,-0.26458 0.10106,-0.26458 0.14552,0 0.33817,0.11906 0.4281,0.26458 0.0899,0.14552 0.0445,0.26459 -0.10106,0.26459 -0.14552,0 -0.33817,-0.11907 -0.4281,-0.26459 z m 1.19062,0.0156 c 0,-0.13693 0.11906,-0.32255 0.26459,-0.41249 0.14552,-0.0899 0.26458,0.0221 0.26458,0.24897 0,0.22687 -0.11906,0.41249 -0.26458,0.41249 -0.14553,0 -0.26459,-0.11204 -0.26459,-0.24897 z m 1.05834,-0.54478 c 0,-0.14552 0.11906,-0.26459 0.26458,-0.26459 0.14552,0 0.26458,0.11907 0.26458,0.26459 0,0.14552 -0.11906,0.26458 -0.26458,0.26458 -0.14552,0 -0.26458,-0.11906 -0.26458,-0.26458 z m -10.79923,2.79404 c 0.0995,-0.14038 0.10897,-0.37174 0.021,-0.51414 -0.088,-0.1424 -0.20116,-0.86246 -0.25145,-1.60013 -0.11207,-1.64387 -0.26012,-2.08785 -0.62168,-1.86439 -0.15292,0.0945 -0.44621,0.0323 -0.65174,-0.1383 -0.20553,-0.17058 -0.49797,-0.23333 -0.64987,-0.13945 -0.15189,0.0939 -0.27617,0.0502 -0.27617,-0.0971 0,-0.24776 -1.58915,-0.81695 -2.29033,-0.82033 -0.18327,-8.7e-4 -0.24613,0.22732 -0.15676,0.56907 0.10222,0.39091 0.0528,0.51094 -0.15707,0.38126 -0.16844,-0.10411 -0.30626,-0.42038 -0.30626,-0.70283 0,-0.57051 -0.42232,-0.69997 -0.59638,-0.18283 -0.0864,0.25685 -0.21101,0.24843 -0.55761,-0.0377 -0.61728,-0.50958 -0.81195,-0.20657 -0.47967,0.74661 0.21031,0.6033 0.2015,0.78696 -0.0356,0.74111 -0.17916,-0.0346 -0.35093,0.3101 -0.39806,0.79894 -0.0456,0.47294 -0.19443,0.8599 -0.33073,0.8599 -0.1363,0 -0.24782,0.23812 -0.24782,0.52916 0,0.29398 0.17639,0.52917 0.39687,0.52917 0.21829,0 0.39688,-0.18562 0.39688,-0.41249 0,-0.26424 0.11886,-0.33793 0.33073,-0.20504 0.1819,0.1141 0.53909,0.17317 0.79375,0.13127 0.25466,-0.0419 0.46302,0.0504 0.46302,0.20505 0,0.15466 0.0893,0.26528 0.19844,0.24581 0.43206,-0.0771 1.91823,0.37952 1.91823,0.58934 0,0.12276 0.17859,0.15467 0.39687,0.0709 0.21828,-0.0838 0.39688,-0.0288 0.39688,0.12219 0,0.48664 2.3663,0.65781 2.69452,0.19492 z m -1.7865,-0.70654 c -0.23614,-0.38208 -0.0637,-0.46325 0.52784,-0.24847 0.44817,0.16272 0.4572,0.20529 0.0746,0.3521 -0.23936,0.0918 -0.51047,0.0452 -0.60246,-0.10363 z m -1.55283,-3.16424 c 0.54993,-0.60766 0.64481,-0.62896 0.64481,-0.14475 0,0.20131 -0.24909,0.43116 -0.55352,0.51077 -0.53114,0.13889 -0.53484,0.1241 -0.0913,-0.36602 z m 7.1271,3.06111 c 0,-0.26679 -0.14883,-0.53468 -0.33073,-0.59531 -0.20946,-0.0698 -0.33073,0.14846 -0.33073,0.59531 0,0.44685 0.12127,0.66513 0.33073,0.59531 0.1819,-0.0606 0.33073,-0.32852 0.33073,-0.59531 z m -11.75412,-1.52797 c -0.0327,-0.31636 -0.39562,-0.25509 -0.50932,0.086 -0.0582,0.17463 0.037,0.26988 0.21167,0.21167 0.17462,-0.0582 0.30857,-0.19215 0.29765,-0.29766 z m 27.14545,-0.43736 c 0.41085,0.41085 1.70326,-0.16486 1.50864,-0.67203 -0.0855,-0.22294 -0.0237,-0.40535 0.13734,-0.40535 0.1611,0 0.2929,0.11907 0.2929,0.26459 0,0.45318 0.48511,0.28947 0.588,-0.19844 0.0552,-0.2617 -0.13771,-0.60275 -0.44362,-0.78438 -0.29769,-0.17674 -0.39243,-0.32557 -0.21053,-0.33072 0.1819,-0.005 0.33073,-0.1734 0.33073,-0.37386 0,-0.20046 0.1663,-0.5025 0.36956,-0.67118 0.20326,-0.16869 0.30843,-0.54046 0.23372,-0.82615 -0.2109,-0.8065 -0.60328,-0.61198 -0.60328,0.29908 0,0.596 -0.14386,0.85614 -0.52917,0.9569 -0.29104,0.0761 -0.53827,0.21379 -0.54941,0.30596 -0.0771,0.63786 -0.23051,1.16763 -0.3813,1.3163 -0.0972,0.0958 -0.13587,-0.20747 -0.086,-0.67394 0.05,-0.46787 -0.0272,-0.82376 -0.17212,-0.79375 -0.14453,0.0299 -0.23067,0.19424 -0.19142,0.36516 0.0392,0.17093 -0.0508,0.38632 -0.20023,0.47864 -0.17244,0.10657 -0.26314,-0.29668 -0.24842,-1.10453 0.0262,-1.43584 0.41618,-4.22002 0.47063,-3.3596 0.0283,0.44737 0.16709,0.53344 0.69681,0.43218 0.90091,-0.17222 0.83355,-0.41104 -0.33073,-1.1726 -1.20246,-0.78653 -1.78558,-1.02027 -2.91041,-1.16659 l -0.8599,-0.11185 v 3.83897 c 0,2.11144 -0.0893,3.83916 -0.19844,3.83938 -0.10914,2.1e-4 -0.1627,-1.78572 -0.11903,-3.96875 0.0488,-2.44105 -0.0194,-3.96915 -0.17711,-3.96915 -0.14922,0 -0.27529,1.35563 -0.30141,3.24115 -0.0571,4.11993 -0.0297,3.85824 -0.41938,4.00778 -0.44022,0.16893 -1.00074,-0.52397 -0.7509,-0.92822 0.12396,-0.20057 0.0837,-0.2477 -0.10951,-0.12827 -0.16801,0.10384 -0.30547,0.4559 -0.30547,0.78237 0,0.47468 0.27824,0.69609 1.38906,1.10539 0.76399,0.2815 1.71355,0.52037 2.11015,0.53081 0.39659,0.0104 0.81004,0.10796 0.91878,0.2167 0.10873,0.10873 0.33012,0.0166 0.49198,-0.20476 0.19665,-0.26893 0.38226,-0.31447 0.55949,-0.13724 z m -2.27586,-4.00984 c 0.0105,-1.85364 0.10806,-3.05615 0.22389,-2.75952 0.20914,0.53554 0.10514,5.69713 -0.1193,5.92158 -0.0678,0.0677 -0.11482,-1.35518 -0.10459,-3.16206 z m -24.88943,3.72216 c 0.34875,-0.22894 0.3496,-0.29092 0.007,-0.51115 -0.25997,-0.1671 -0.45699,-0.14506 -0.59126,0.0661 -0.43993,0.69204 -0.14001,0.92047 0.58428,0.445 z m 30.51306,-3.98455 c -0.16537,-0.16537 -0.26078,0.4264 -0.26889,1.66771 l -0.0126,1.92402 0.26889,-1.66771 c 0.17348,-1.07594 0.17794,-1.75866 0.0126,-1.92402 z m -9.19071,1.04598 c 0.0785,-1.21963 0.0322,-1.84529 -0.1245,-1.68237 -0.20669,0.21492 -0.43877,2.82163 -0.32736,3.6769 0.0992,0.76198 0.34401,-0.3184 0.45186,-1.99453 z m -20.90146,1.19 c -0.13577,-0.35381 -0.24343,-0.38275 -0.4935,-0.13269 -0.25007,0.25007 -0.23542,0.37203 0.0672,0.55903 0.49268,0.30449 0.64741,0.14977 0.42634,-0.42634 z m 19.42286,-0.36404 c 0,-0.29105 0.14883,-0.4994 0.33073,-0.46302 0.18601,0.0372 0.36736,-0.25223 0.41445,-0.66146 0.0598,-0.51972 -0.0347,-0.72761 -0.33073,-0.72761 -0.32476,0 -0.42079,-0.32922 -0.44374,-1.52135 -0.0161,-0.83675 -0.008,-1.78925 0.0189,-2.11667 0.0265,-0.32742 -0.0794,-0.59531 -0.2353,-0.59531 -0.17879,0 -0.30223,0.95294 -0.33416,2.57969 l -0.0506,2.57968 -0.14779,-2.51354 c -0.0813,-1.38244 -0.23709,-2.48377 -0.34623,-2.44739 -0.10914,0.0364 -0.49609,0.0661 -0.8599,0.0661 -0.50047,0 -0.66892,0.14489 -0.69215,0.59532 -0.0231,0.44798 -0.0606,0.48072 -0.15169,0.13229 -0.12812,-0.49029 -0.39598,-0.59022 -0.71823,-0.26796 -0.10729,0.10728 -0.33549,0.20924 -0.50712,0.22657 -1.36088,0.13738 -1.50268,0.36119 -1.50268,2.37174 0,1.97369 0.27923,2.61829 0.76944,1.77625 0.15667,-0.26911 0.27623,-0.325 0.28085,-0.1313 0.0175,0.73352 3.33653,1.40183 3.80117,0.7654 0.1472,-0.20163 0.17725,-0.15709 0.0865,0.12822 -0.14388,0.45244 0.015,0.75347 0.39778,0.75347 0.12127,0 0.22049,-0.23812 0.22049,-0.52916 z m -3.61347,-2.77813 c 9.6e-4,-1.16416 0.0475,-1.6075 0.10337,-0.98519 0.0559,0.62231 0.0551,1.57481 -0.002,2.11666 -0.0569,0.54186 -0.10259,0.0327 -0.10163,-1.13147 z m -5.11778,2.11667 c 0,-0.21828 -0.0468,-0.39688 -0.10398,-0.39688 -0.0572,0 -0.17252,0.1786 -0.25628,0.39688 -0.0838,0.21828 -0.037,0.39687 0.10398,0.39687 0.14095,0 0.25628,-0.17859 0.25628,-0.39687 z m 11.90625,-0.39688 c 0,-0.43656 -0.11906,-0.79375 -0.26458,-0.79375 -0.14553,0 -0.26459,0.35719 -0.26459,0.79375 0,0.43657 0.11906,0.79375 0.26459,0.79375 0.14552,0 0.26458,-0.35718 0.26458,-0.79375 z m -10.9519,0.11066 c -0.0883,-0.23019 -0.1606,-0.53487 -0.1606,-0.67708 0,-0.14221 -0.11906,-0.18497 -0.26458,-0.095 -0.43122,0.2665 -0.30657,1.19062 0.1606,1.19062 0.279,0 0.36996,-0.14388 0.26458,-0.41851 z m 1.88172,-1.72316 c -0.0334,-0.90072 -0.16989,-1.52327 -0.32253,-1.47139 -0.14969,0.0509 -0.22465,0.73997 -0.17262,1.58691 0.0593,0.96618 -0.011,1.49698 -0.19844,1.49698 -0.15972,0 -0.2904,-0.17859 -0.2904,-0.39687 0,-0.21828 -0.11906,-0.39688 -0.26458,-0.39688 -0.46325,0 -0.28401,1.01516 0.19844,1.12393 0.8422,0.18989 1.11083,-0.30706 1.05013,-1.94268 z m 8.27643,1.23124 c 0,-0.50073 -0.11906,-0.98401 -0.26458,-1.07395 -0.15979,-0.0987 -0.26459,0.26184 -0.26459,0.91043 0,0.59067 0.11906,1.07395 0.26459,1.07395 0.14552,0 0.26458,-0.40969 0.26458,-0.91043 z m 6.87917,0.0967 c 0,-0.32913 -0.13169,-0.44203 -0.39688,-0.34026 -0.21828,0.0838 -0.39687,0.37394 -0.39687,0.64485 0,0.32912 0.13168,0.44202 0.39687,0.34026 0.21828,-0.0838 0.39688,-0.37395 0.39688,-0.64485 z m 2.29305,0.41687 c 0,-0.21828 -0.0992,-0.39687 -0.22049,-0.39687 -0.12126,0 -0.22048,0.17859 -0.22048,0.39687 0,0.21829 0.0992,0.39688 0.22048,0.39688 0.12127,0 0.22049,-0.17859 0.22049,-0.39688 z m -3.35139,-0.66145 c 0,-0.29104 -0.16806,-0.52917 -0.37346,-0.52917 -0.30405,0 -0.36845,0.36319 -0.17595,0.99219 0.0111,0.0364 0.13931,0.0661 0.28483,0.0661 0.14552,0 0.26458,-0.23812 0.26458,-0.52916 z m -7.14134,-2.11667 0.1862,0.66146 0.20206,-0.73993 c 0.24088,-0.88213 0.15707,-1.00437 -0.5601,-0.81683 -0.43066,0.11263 -0.51213,0.28859 -0.39324,0.84941 l 0.14995,0.70735 0.11446,-0.66146 0.11446,-0.66146 z m 2.11426,0 c 0,-0.29104 -0.11906,-0.52917 -0.26458,-0.52917 -0.14553,0 -0.26459,0.23813 -0.26459,0.52917 0,0.29104 0.11906,0.52917 0.26459,0.52917 0.14552,0 0.26458,-0.23813 0.26458,-0.52917 z m -0.90265,-0.72626 c -0.28903,-0.28903 -0.48723,0.17061 -0.27972,0.6487 0.19677,0.45333 0.21103,0.45292 0.32066,-0.009 0.0631,-0.26606 0.0447,-0.55379 -0.0409,-0.63941 z m 0.0525,-1.30944 c 0.0324,-0.39203 0.18754,-0.79223 0.34465,-0.88933 0.17194,-0.10627 0.0879,-0.22828 -0.2112,-0.30649 -0.41812,-0.10934 -0.50331,0.0316 -0.53751,0.88934 -0.0456,1.14441 0.31224,1.41587 0.40406,0.30648 z m 5.61267,0.20849 c 0,-0.20612 -2.19766,-1.10323 -2.62682,-1.0723 -0.17353,0.0125 2.12739,1.22162 2.42838,1.2761 0.10914,0.0197 0.19844,-0.072 0.19844,-0.2038 z m -6.45805,-1.24772 c -0.084,-0.21901 -0.25689,-0.33386 -0.38411,-0.25524 -0.12722,0.0786 -0.84336,0.16463 -1.59143,0.1911 -0.74806,0.0265 -1.29829,0.10997 -1.22272,0.18554 0.0756,0.0756 0.7161,0.111 1.4234,0.0787 1.13357,-0.0517 1.30901,0.0132 1.4802,0.54817 0.16831,0.5259 0.21111,0.54302 0.32084,0.12837 0.0696,-0.26316 0.0579,-0.65766 -0.0262,-0.87666 z m -0.6857,0.69368 c 0,-0.14552 -0.0525,-0.26458 -0.11668,-0.26458 -0.0642,0 -0.19026,0.11906 -0.2802,0.26458 -0.0899,0.14552 -0.0374,0.26458 0.11668,0.26458 0.15411,0 0.2802,-0.11906 0.2802,-0.26458 z m -13.44739,49.1547 c -0.38581,-1.53216 -0.38868,-2.08807 -0.007,-1.43181 0.20545,0.35364 0.34345,0.40415 0.48378,0.1771 0.12058,-0.1951 0.26298,0.0156 0.36907,0.54603 0.095,0.47504 0.0701,0.93112 -0.0553,1.01353 -0.12541,0.0824 -0.28454,0.32537 -0.35363,0.53992 -0.0691,0.21455 -0.26553,-0.1656 -0.43654,-0.84477 z m 3.12864,0.74757 c 0,-0.0572 0.18478,-0.17489 0.41062,-0.26156 0.23546,-0.0904 0.34166,-0.046 0.24896,0.10399 -0.15537,0.25141 -0.65958,0.37185 -0.65958,0.15757 z m 1.16536,-1.17806 c -0.0139,-0.38628 -0.0991,-1.5953 -0.18929,-2.68671 -0.0902,-1.09141 -0.0789,-1.63701 0.0253,-1.21245 0.31533,1.28586 0.80882,1.1293 0.92016,-0.29192 0.0932,-1.19019 0.10292,-1.16669 0.14749,0.35825 0.0262,0.8976 0.12951,1.8501 0.22952,2.11667 0.16006,0.42664 0.12838,0.44119 -0.26459,0.12153 -0.40666,-0.33079 -0.44641,-0.25561 -0.44641,0.84428 0,1.2764 -0.37899,1.95005 -0.42214,0.75035 z m -6.17156,0.0694 c 0.0127,-0.30823 0.0754,-0.37092 0.15986,-0.15986 0.0764,0.191 0.067,0.4192 -0.0209,0.50712 -0.0879,0.0879 -0.15045,-0.0683 -0.13897,-0.34726 z m 3.68328,-0.32079 c 0,-0.44248 -0.0728,-0.99419 -0.16175,-1.22603 -0.11839,-0.30851 -0.0475,-0.37765 0.26459,-0.25791 0.25875,0.0993 0.4367,0.0225 0.4527,-0.19544 0.0383,-0.52142 0.44528,0.84815 0.47642,1.60329 0.0145,0.35168 -0.052,0.56107 -0.14772,0.46532 -0.0958,-0.0957 -0.33387,-0.0415 -0.52916,0.12059 -0.28381,0.23553 -0.35508,0.1332 -0.35508,-0.50982 z m -4.8621,0.068 c -0.0907,-0.23646 -0.15129,-0.74761 -0.13455,-1.13589 0.0228,-0.52876 0.0822,-0.44032 0.23668,0.35237 0.21918,1.12461 0.1709,1.49502 -0.10213,0.78352 z m 1.99346,-0.91581 c 0,-0.3638 0.0601,-0.51263 0.13345,-0.33073 0.0734,0.1819 0.0734,0.47956 0,0.66146 -0.0734,0.1819 -0.13345,0.0331 -0.13345,-0.33073 z m 1.60711,-1.05833 c 0,-0.50933 0.0545,-0.71769 0.121,-0.46302 0.0665,0.25466 0.0665,0.67138 0,0.92604 -0.0666,0.25466 -0.121,0.0463 -0.121,-0.46302 z m -2.70722,-0.18521 c 0,-0.55563 -0.0705,-0.64382 -0.3175,-0.39688 -0.38634,0.38635 -0.74083,0.41167 -0.74083,0.0529 0,-0.14552 0.16585,-0.26458 0.36857,-0.26458 0.50946,0 0.60202,-0.36514 0.67015,-2.64361 0.0946,-3.16398 0.29118,-2.5131 0.26499,0.87739 -0.0131,1.69902 -0.0737,3.08913 -0.13462,3.08913 -0.0609,0 -0.11076,-0.32147 -0.11076,-0.71437 z m 1.73182,-0.48828 c -0.10121,-0.6749 -0.12448,-1.28663 -0.0517,-1.35939 0.0728,-0.0728 0.2151,0.41991 0.3163,1.09481 0.10121,0.6749 0.12449,1.28663 0.0517,1.35939 -0.0728,0.0728 -0.2151,-0.41991 -0.31631,-1.09481 z m 6.99943,0.0403 c 0,-0.34824 0.16994,-0.69837 0.37765,-0.77807 0.30997,-0.11895 0.32904,-0.006 0.10641,0.63315 -0.32882,0.94325 -0.48406,0.98972 -0.48406,0.14492 z m -12.55944,-0.23816 c -0.11326,-0.26094 -0.13169,-0.54867 -0.0409,-0.63941 0.26868,-0.26868 0.48527,0.10873 0.3616,0.63011 -0.10963,0.46222 -0.12389,0.46263 -0.32065,0.009 z m 0.96936,-0.31932 c 0.005,-0.43656 0.0647,-0.58312 0.13177,-0.32569 0.0671,0.25743 0.0627,0.61462 -0.01,0.79375 -0.0725,0.17913 -0.12737,-0.0315 -0.12197,-0.46806 z m 3.72465,-0.39687 c 0,-0.65485 0.0516,-0.92274 0.11466,-0.59532 0.0631,0.32743 0.0631,0.86321 0,1.19063 -0.0631,0.32742 -0.11466,0.0595 -0.11466,-0.59531 z m 3.72455,-1.05834 c 0,-1.23692 0.0456,-1.74294 0.10128,-1.12448 0.0557,0.61847 0.0557,1.6305 0,2.24896 -0.0557,0.61847 -0.10128,0.11245 -0.10128,-1.12448 z m 5.11565,1.65365 c -0.0631,-0.10914 -0.019,-0.43656 0.0981,-0.72761 0.18584,-0.46196 0.21524,-0.43676 0.23147,0.19844 0.0183,0.71782 -0.10543,0.91657 -0.32955,0.52917 z m -11.7407,-1.52135 c 10e-4,-0.87313 0.0509,-1.19842 0.10977,-0.72287 0.0589,0.47555 0.0577,1.18992 -0.003,1.5875 -0.0604,0.39758 -0.10855,0.008 -0.10707,-0.86463 z m 10.67774,0.74965 c -0.097,-0.097 -0.17639,-0.40925 -0.17639,-0.69386 0,-0.42997 0.0671,-0.46177 0.39687,-0.18809 0.21829,0.18116 0.39688,0.4934 0.39688,0.69386 0,0.38552 -0.32187,0.48358 -0.61736,0.18809 z m -13.67014,-0.83785 c 0,-0.46082 0.12133,-0.83785 0.26962,-0.83785 0.16007,0 0.1987,0.29566 0.0951,0.72761 -0.2492,1.03875 -0.3647,1.07366 -0.3647,0.11024 z m 16.51871,-0.44097 c 0.10468,-0.71141 0.0803,-0.88487 -0.0743,-0.52917 -0.20371,0.46872 -0.25225,0.42878 -0.4249,-0.34965 -0.1072,-0.48334 -0.12406,-0.94967 -0.0375,-1.03628 0.0866,-0.0866 0.15747,0.041 0.15747,0.2835 0,0.24254 0.19029,0.44097 0.42286,0.44097 0.35712,0 0.40127,-0.25705 0.284,-1.65364 -0.0764,-0.90951 -0.0816,-1.35599 -0.0115,-0.99219 0.07,0.3638 0.28823,1.19724 0.48487,1.85208 0.59735,1.98933 0.65729,2.42071 0.32033,2.30562 -0.17045,-0.0582 -0.27266,-0.36267 -0.22713,-0.67656 0.0455,-0.3139 -0.0289,-0.57072 -0.16537,-0.57072 -0.13648,0 -0.24814,0.30658 -0.24814,0.6813 0,0.37471 -0.14321,0.8212 -0.31825,0.99219 -0.2472,0.24149 -0.28348,0.0746 -0.16252,-0.74745 z m -2.23121,0.24897 c 0,-0.22687 0.11906,-0.33891 0.26458,-0.24897 0.14552,0.0899 0.26459,0.27556 0.26459,0.41249 0,0.13693 -0.11907,0.24897 -0.26459,0.24897 -0.14552,0 -0.26458,-0.18562 -0.26458,-0.41249 z m -6.83739,-0.38126 c 0,-0.36381 0.06,-0.51263 0.13345,-0.33073 0.0734,0.1819 0.0734,0.47955 0,0.66146 -0.0734,0.1819 -0.13345,0.0331 -0.13345,-0.33073 z m 1.03744,0.11024 c 0.0127,-0.30823 0.0754,-0.37092 0.15986,-0.15985 0.0764,0.19099 0.067,0.4192 -0.0209,0.50712 -0.0879,0.0879 -0.15046,-0.0684 -0.13897,-0.34727 z m -6.37088,-0.4915 c 0,-0.35522 0.0975,-0.70612 0.2167,-0.77978 0.11919,-0.0737 0.16521,0.21697 0.10227,0.64584 -0.13879,0.94559 -0.31897,1.02125 -0.31897,0.13394 z m 1.88338,-0.83142 c 0.0172,-0.861 0.12481,-1.92264 0.23909,-2.3592 0.11955,-0.45667 0.147,0.1613 0.0646,1.45521 -0.16711,2.62534 -0.34897,3.16662 -0.30373,0.90399 z m 15.19747,1.14653 c -0.1497,-0.49289 -0.67669,-2.79271 -0.67669,-2.95313 0,-0.0765 0.16784,-0.0747 0.37297,0.004 0.23018,0.0883 0.45178,-0.0921 0.57881,-0.47132 0.17821,-0.53198 0.24694,-0.43689 0.51204,0.70846 0.16841,0.72761 0.38854,1.62058 0.48919,1.98438 0.17591,0.63585 0.16693,0.63329 -0.232,-0.0662 -0.5815,-1.01954 -1.00797,-0.92305 -0.87704,0.19844 0.10777,0.92311 0.0234,1.22323 -0.16728,0.59531 z m -4.84864,-1.25677 c 0,-0.50932 0.0545,-0.71768 0.121,-0.46302 0.0666,0.25466 0.0666,0.67138 0,0.92604 -0.0666,0.25466 -0.121,0.0463 -0.121,-0.46302 z m -5.84044,-0.26458 c 0,-0.36381 0.0601,-0.51263 0.13345,-0.33073 0.0734,0.1819 0.0734,0.47955 0,0.66146 -0.0734,0.1819 -0.13345,0.0331 -0.13345,-0.33073 z m 2.41876,-0.79375 c 0,-0.80037 0.0496,-1.12779 0.11022,-0.72761 0.0606,0.40018 0.0606,1.05503 0,1.45521 -0.0606,0.40018 -0.11022,0.0728 -0.11022,-0.7276 z m -3.25428,-0.14791 c 0,-0.51791 0.0992,-0.88034 0.22047,-0.8054 0.20855,0.12889 0.0991,1.74706 -0.11821,1.74706 -0.0562,0 -0.10226,-0.42375 -0.10226,-0.94166 z m -5.24989,0.14791 c 0,-0.36381 0.0601,-0.51263 0.13345,-0.33073 0.0734,0.1819 0.0734,0.47955 0,0.66146 -0.0734,0.1819 -0.13345,0.0331 -0.13345,-0.33073 z m 20.33114,0.13229 c 0,-0.21828 0.0468,-0.39688 0.10398,-0.39688 0.0572,0 0.17252,0.1786 0.25628,0.39688 0.0838,0.21828 0.037,0.39687 -0.10398,0.39687 -0.14096,0 -0.25628,-0.17859 -0.25628,-0.39687 z m -16.62698,-0.39688 c 0,-0.3638 0.0601,-0.51263 0.13345,-0.33073 0.0734,0.18191 0.0734,0.47956 0,0.66146 -0.0734,0.1819 -0.13345,0.0331 -0.13345,-0.33073 z m 9.525,0 c 0,-0.3638 0.0601,-0.51263 0.13345,-0.33073 0.0734,0.18191 0.0734,0.47956 0,0.66146 -0.0734,0.1819 -0.13345,0.0331 -0.13345,-0.33073 z m -12.42561,-0.66145 c 0.005,-0.43657 0.0647,-0.58313 0.13177,-0.3257 0.0671,0.25743 0.0627,0.61462 -0.01,0.79375 -0.0725,0.17913 -0.12736,-0.0315 -0.12197,-0.46805 z m 9.78958,0 c 0.005,-0.43657 0.0647,-0.58313 0.13178,-0.3257 0.0671,0.25743 0.0627,0.61462 -0.01,0.79375 -0.0725,0.17913 -0.12736,-0.0315 -0.12197,-0.46805 z m 9.06451,0.11281 c -0.28551,-0.46196 -0.28702,-2.37036 -0.002,-2.08469 0.13799,0.13813 0.23908,0.66782 0.22464,1.17708 -0.0145,0.50926 0.081,0.85963 0.21213,0.7786 0.13111,-0.081 0.23838,-0.0213 0.23838,0.13287 0,0.36417 -0.44763,0.3616 -0.6735,-0.004 z m -16.77041,-0.53174 c 0.0102,-0.35167 0.12648,-0.87753 0.25834,-1.16858 0.1671,-0.3688 0.19091,-0.20843 0.0786,0.52917 -0.18705,1.22846 -0.36383,1.56392 -0.33694,0.63941 z m 8.79194,-0.7717 c 0,-0.80036 0.0496,-1.12779 0.11022,-0.7276 0.0606,0.40018 0.0606,1.05502 0,1.4552 -0.0606,0.40019 -0.11022,0.0728 -0.11022,-0.7276 z m 1.29521,0.39688 c 0.005,-0.43657 0.0647,-0.58313 0.13178,-0.3257 0.0671,0.25743 0.0627,0.61462 -0.01,0.79375 -0.0725,0.17913 -0.12736,-0.0315 -0.12197,-0.46805 z m 2.26353,-1.547 c -0.40019,-1.21197 -0.72104,-2.4908 -0.71301,-2.84184 0.008,-0.35104 0.36426,0.55238 0.79162,2.00758 0.96033,3.27007 0.90823,3.82298 -0.0786,0.83426 z m 3.36806,1.63308 c -0.10229,-0.33839 -0.53738,-1.4262 -0.96686,-2.41735 -0.42948,-0.99116 -0.7392,-1.92715 -0.68825,-2.07999 0.051,-0.15284 0.5481,0.87289 1.10479,2.27941 0.55669,1.40652 0.9501,2.61938 0.87424,2.69525 -0.0759,0.0759 -0.22163,-0.13893 -0.32392,-0.47732 z m 3.04808,-0.1017 c 0,-0.22687 0.11906,-0.33891 0.26459,-0.24897 0.14552,0.0899 0.26458,0.0304 0.26458,-0.13229 0,-0.1627 0.11906,-0.22223 0.26458,-0.13229 0.14552,0.0899 0.26459,0.0351 0.26459,-0.12185 0,-0.157 -0.28628,-0.23346 -0.63638,-0.16998 -0.46805,0.0849 -0.67249,-0.0227 -0.77293,-0.40682 -0.10573,-0.40433 -0.0592,-0.45804 0.20596,-0.23795 0.18839,0.15635 0.52417,0.21457 0.74617,0.12938 0.45977,-0.17643 0.57425,-0.0321 0.83411,1.05186 0.17021,0.71001 0.14787,0.74273 -0.27103,0.39688 -0.35244,-0.29099 -0.48192,-0.30152 -0.56785,-0.0462 -0.15831,0.47036 -0.59639,0.41031 -0.59639,-0.0818 z m -20.61661,-0.80018 c 0.0127,-0.30823 0.0754,-0.37092 0.15985,-0.15986 0.0764,0.191 0.067,0.4192 -0.0209,0.50712 -0.0879,0.0879 -0.15045,-0.0683 -0.13896,-0.34726 z m 12.87804,-0.37483 c -0.0993,-0.50932 -0.24259,-1.58089 -0.31851,-2.38125 -0.13433,-1.41612 -0.1274,-1.40546 0.25804,0.39688 0.21784,1.01864 0.36117,2.0902 0.31851,2.38124 -0.0499,0.34025 -0.14201,0.19855 -0.25804,-0.39687 z m -11.81971,0.11024 c 0.0127,-0.30822 0.0754,-0.37092 0.15986,-0.15985 0.0764,0.191 0.067,0.4192 -0.0209,0.50712 -0.0879,0.0879 -0.15045,-0.0684 -0.13897,-0.34727 z m 5.29167,0 c 0.0127,-0.30822 0.0754,-0.37092 0.15985,-0.15985 0.0764,0.191 0.067,0.4192 -0.0209,0.50712 -0.0879,0.0879 -0.15045,-0.0684 -0.13896,-0.34727 z m 9.26042,0 c 0.0127,-0.30822 0.0754,-0.37092 0.15985,-0.15985 0.0764,0.191 0.067,0.4192 -0.0209,0.50712 -0.0879,0.0879 -0.15045,-0.0684 -0.13896,-0.34727 z m -13.20509,-0.7717 c -0.004,-0.29104 0.0945,-0.76729 0.21962,-1.05833 0.28972,-0.67422 0.28972,0.0214 0,0.92604 -0.1703,0.53174 -0.21336,0.55769 -0.21962,0.13229 z m 9.25723,-0.13229 c 0,-0.3638 0.06,-0.51263 0.13345,-0.33073 0.0734,0.1819 0.0734,0.47956 0,0.66146 -0.0734,0.1819 -0.13345,0.0331 -0.13345,-0.33073 z m -5.86261,-0.26458 c 0,-0.29105 0.10791,-0.52917 0.23981,-0.52917 0.1319,0 0.17754,0.23812 0.10143,0.52917 -0.0761,0.29104 -0.18402,0.52916 -0.23981,0.52916 -0.0558,0 -0.10143,-0.23812 -0.10143,-0.52916 z m 1.92414,-0.52917 c 0,-0.65484 0.0516,-0.92273 0.11466,-0.59531 0.0631,0.32742 0.0631,0.8632 0,1.19062 -0.0631,0.32742 -0.11466,0.0595 -0.11466,-0.59531 z m 1.02805,0.26458 c 0,-0.3638 0.06,-0.51263 0.13345,-0.33073 0.0734,0.18191 0.0734,0.47956 0,0.66146 -0.0734,0.1819 -0.13345,0.0331 -0.13345,-0.33073 z m 1.85208,0 c 0,-0.3638 0.0601,-0.51263 0.13345,-0.33073 0.0734,0.18191 0.0734,0.47956 0,0.66146 -0.0734,0.1819 -0.13345,0.0331 -0.13345,-0.33073 z m 6.62573,-1.37583 c -0.31696,-0.7502 -0.53428,-1.40601 -0.48294,-1.45735 0.0513,-0.0513 0.35597,0.51716 0.67696,1.26332 0.32099,0.74617 0.53831,1.40197 0.48294,1.45735 -0.0554,0.0554 -0.36001,-0.51312 -0.67696,-1.26332 z m -7.68406,0.58208 c 0,-0.3638 0.06,-0.51263 0.13345,-0.33073 0.0734,0.18191 0.0734,0.47956 0,0.66146 -0.0734,0.1819 -0.13345,0.0331 -0.13345,-0.33073 z m 10.47027,-0.85989 c -0.35512,-0.61847 -1.07968,-1.83185 -1.61012,-2.69642 -0.53043,-0.86456 -0.96299,-1.698 -0.96124,-1.85208 0.002,-0.15408 0.2869,0.21601 0.63367,0.82242 0.34677,0.60641 0.97557,1.61844 1.39735,2.24896 0.76408,1.14224 1.48772,2.6016 1.29003,2.6016 -0.0572,0 -0.39456,-0.50602 -0.74969,-1.12448 z m -18.04333,-0.52917 c 0.25439,-1.1909 0.68198,-1.88592 0.57589,-0.93604 -0.0441,0.39467 -0.15583,0.79327 -0.24832,0.88576 -0.0925,0.0925 -0.10409,0.33512 -0.0258,0.53917 0.0783,0.20405 0.001,0.37101 -0.17155,0.37101 -0.21544,0 -0.25629,-0.26973 -0.13023,-0.8599 z m 0.66149,0.66146 c 0.005,-0.10914 0.19198,-0.49609 0.41515,-0.8599 0.22318,-0.3638 0.33802,-0.44336 0.25521,-0.17679 -0.0828,0.26656 -0.15057,0.65351 -0.15057,0.85989 0,0.20638 -0.11906,0.37524 -0.26458,0.37524 -0.14552,0 -0.26036,-0.0893 -0.25521,-0.19844 z m 15.96678,-0.52917 c -0.91274,-1.35847 -1.51544,-2.67865 -0.93008,-2.03729 0.36331,0.39806 1.68669,2.7649 1.54595,2.7649 -0.0699,0 -0.34699,-0.32743 -0.61587,-0.72761 z m -7.31887,0.11065 c -0.10484,-0.26656 -0.17757,-0.98093 -0.16163,-1.5875 l 0.029,-1.10283 0.23766,1.19062 c 0.27223,1.36387 0.20714,2.2934 -0.10502,1.49971 z m 2.98438,-1.23513 c -0.17832,-0.74331 -0.2716,-1.40409 -0.20729,-1.46839 0.0643,-0.0643 0.25833,0.49572 0.43117,1.24452 0.17284,0.74879 0.26613,1.40956 0.2073,1.46839 -0.0588,0.0588 -0.25286,-0.5012 -0.43118,-1.24452 z m -3.6321,0 c 0,-0.65484 0.0516,-0.92273 0.11466,-0.59531 0.0631,0.32742 0.0631,0.8632 0,1.19063 -0.0631,0.32742 -0.11466,0.0595 -0.11466,-0.59532 z m -9.31159,0.11025 c 0.0127,-0.30823 0.0754,-0.37092 0.15985,-0.15986 0.0764,0.191 0.067,0.4192 -0.0209,0.50712 -0.0879,0.0879 -0.15045,-0.0684 -0.13896,-0.34726 z m 11.81424,-0.089 c -0.11508,-0.44009 -0.0806,-0.54339 0.11569,-0.34705 0.15375,0.15375 0.22749,0.43572 0.16386,0.6266 -0.066,0.19816 -0.18599,0.0782 -0.27955,-0.27955 z m 2.89334,-1.12364 c -0.2394,-0.60946 -0.39193,-1.15146 -0.33895,-1.20444 0.053,-0.053 0.2948,0.39972 0.53739,1.006 0.24259,0.60629 0.39512,1.14829 0.33895,1.20445 -0.0562,0.0562 -0.29798,-0.39654 -0.53739,-1.00601 z m -1.08353,0.15749 c -0.0973,-0.38775 -0.12592,-0.75602 -0.0635,-0.81839 0.0624,-0.0624 0.19302,0.20386 0.29034,0.59161 0.0973,0.38775 0.12591,0.75602 0.0636,0.81839 -0.0624,0.0624 -0.19302,-0.20386 -0.29034,-0.59161 z m -5.53105,0.23939 c -0.097,-0.097 -0.17639,-0.29942 -0.17639,-0.44979 0,-0.16579 0.12323,-0.15017 0.31309,0.0397 0.1722,0.1722 0.25157,0.37461 0.17639,0.44979 -0.0752,0.0752 -0.21608,0.0573 -0.31309,-0.0397 z m 3.54866,-0.7717 c 0.0127,-0.30823 0.0754,-0.37092 0.15986,-0.15986 0.0764,0.191 0.067,0.4192 -0.0209,0.50712 -0.0879,0.0879 -0.15046,-0.0684 -0.13897,-0.34726 z m -11.09619,-0.11025 c 0,-0.21828 0.10232,-0.635 0.22739,-0.92604 0.14333,-0.33354 0.22739,-0.38245 0.22739,-0.13229 0,0.21828 -0.10233,0.635 -0.22739,0.92604 -0.14333,0.33355 -0.22739,0.38245 -0.22739,0.13229 z m 14.89905,-0.55375 c -0.23275,-0.45009 -0.37621,-0.86531 -0.3188,-0.92272 0.0574,-0.0574 0.30239,0.31084 0.5444,0.81834 0.54413,1.14107 0.3556,1.2283 -0.2256,0.10438 z m -8.85083,0.46516 c 0,-0.63524 3.17982,-8.99062 3.35493,-8.81551 0.0565,0.0565 -0.42122,1.45824 -1.06156,3.11503 -0.64033,1.65678 -1.24859,3.42874 -1.35168,3.93768 -0.30521,1.50675 -0.43458,1.85139 -0.69493,1.85139 -0.13572,0 -0.24676,-0.0399 -0.24676,-0.0886 z m 1.5875,-0.49035 c 0,-0.9134 2.31555,-7.51246 2.5528,-7.2752 0.0547,0.0547 -0.13,0.62387 -0.41043,1.26482 -0.28044,0.64095 -0.77767,2.1774 -1.10496,3.41432 -0.49455,1.86907 -1.03741,3.22755 -1.03741,2.59606 z m 1.32292,-0.1865 c 0,-0.12995 0.17253,-0.30248 0.3834,-0.3834 0.25625,-0.0983 0.33461,-0.02 0.23628,0.23628 -0.1606,0.4185 -0.61968,0.52749 -0.61968,0.14712 z m 0.38005,-1.776 c 0.20636,-1.12685 1.49607,-4.93104 1.62727,-4.79985 0.0448,0.0448 -0.20991,1.08375 -0.56604,2.30874 -0.35614,1.22499 -0.64753,2.4347 -0.64753,2.68824 0,0.25355 -0.13554,0.54477 -0.30121,0.64715 -0.21692,0.13407 -0.2484,-0.10217 -0.11249,-0.84428 z m 1.42808,0.51186 c -0.2083,-0.7471 0.12455,-2.4859 0.84388,-4.40848 0.745,-1.9912 0.90699,-1.83187 0.21663,0.21307 -0.29249,0.86639 -0.61473,2.29403 -0.71609,3.17252 -0.12281,1.06443 -0.2377,1.40566 -0.34442,1.02289 z m -9.21646,-0.60063 c 0,-0.28246 0.10186,-0.57651 0.22636,-0.65346 0.1245,-0.0769 0.17015,0.15416 0.10145,0.51355 -0.14923,0.78065 -0.32781,0.85686 -0.32781,0.13991 z m 10.42157,-1.23293 c 0.36448,-1.55318 1.03522,-3.55367 1.15227,-3.43662 0.0663,0.0663 -3.4e-4,0.51549 -0.14811,0.99818 -0.14777,0.48269 -0.34284,1.31993 -0.43349,1.86053 -0.0907,0.5406 -0.29664,1.06437 -0.45775,1.16394 -0.20257,0.1252 -0.2374,-0.0555 -0.11292,-0.58603 z m -5.63643,-0.10561 c -0.008,-0.21828 0.10088,-0.57547 0.24194,-0.79375 0.31256,-0.48365 0.31256,-0.0659 0,0.66146 -0.14994,0.34892 -0.23235,0.39398 -0.24194,0.13229 z m 8.62041,0.0882 c -0.27694,-0.27695 -0.19825,-2.82215 0.1009,-3.2632 0.19152,-0.28237 0.2476,0.15645 0.19439,1.52097 -0.0411,1.05482 -0.0847,1.91802 -0.0968,1.91823 -0.0121,2.1e-4 -0.10143,-0.079 -0.19844,-0.176 z m -11.00342,-0.50712 c 0.0127,-0.30823 0.0754,-0.37092 0.15986,-0.15985 0.0764,0.19099 0.067,0.4192 -0.0209,0.50712 -0.0879,0.0879 -0.15046,-0.0684 -0.13897,-0.34727 z m -0.78333,-0.30868 c -0.0374,-0.71086 -0.42822,-0.7749 -0.80737,-0.13229 -0.29372,0.4978 -0.18001,-0.46474 0.2735,-2.31511 0.20749,-0.84656 0.21877,-0.81717 0.13137,0.34238 -0.10163,1.3485 0.33351,1.62964 0.66825,0.43176 l 0.17937,-0.64185 -0.005,0.66146 c -0.003,0.36381 -0.0958,1.01865 -0.2069,1.45521 -0.16329,0.64173 -0.20797,0.67973 -0.23328,0.19844 z m 10.37077,-0.66967 c 0.0854,-0.62298 0.39662,-1.66478 0.69161,-2.3151 0.61752,-1.36134 0.74681,-0.97982 0.15111,0.44589 -0.21828,0.52242 -0.39688,1.41157 -0.39688,1.97588 0,0.58947 -0.12787,1.02602 -0.30054,1.02602 -0.20172,0 -0.2495,-0.37248 -0.1453,-1.13269 z m -9.26096,-0.5871 c 0.086,-0.58209 0.238,-1.6909 0.3377,-2.46402 0.11551,-0.89576 0.27319,-1.31377 0.43467,-1.15229 0.16147,0.16147 0.0988,1.00083 -0.1727,2.3138 -0.45271,2.18903 -0.86213,3.07834 -0.59967,1.30251 z m 1.76082,-0.0661 c 0.12053,-0.40018 0.35309,-1.02526 0.51678,-1.38906 l 0.29762,-0.66146 -0.14049,0.71594 c -0.17566,0.89519 -0.61294,2.06219 -0.7727,2.06219 -0.0662,0 -0.0217,-0.32743 0.0988,-0.72761 z m 0.80223,0.64486 c 0,-0.094 0.4605,-1.33425 1.02333,-2.75607 0.56284,-1.42183 1.09488,-2.7935 1.18233,-3.04816 0.0874,-0.25466 0.2668,-0.46302 0.39857,-0.46302 0.13177,0 -0.35557,1.39898 -1.08299,3.10885 -1.28765,3.02676 -1.52124,3.51174 -1.52124,3.1584 z m -1.01655,-3.09225 c 0,-0.36381 0.06,-0.51263 0.13345,-0.33073 0.0734,0.1819 0.0734,0.47955 0,0.66146 -0.0734,0.1819 -0.13345,0.0331 -0.13345,-0.33073 z m 1.16038,-0.34864 c 0.49973,-1.99108 0.84433,-2.88939 1.00726,-2.62576 0.0986,0.15955 -0.0705,0.92382 -0.37577,1.69838 -0.63757,1.61772 -0.90235,2.00655 -0.63149,0.92738 z m 3.31967,0.48093 c 0,-0.14552 0.28689,-0.80037 0.63754,-1.45521 0.35065,-0.65484 0.63755,-1.07156 0.63755,-0.92604 0,0.14552 -0.2869,0.80036 -0.63755,1.45521 -0.35065,0.65484 -0.63754,1.07156 -0.63754,0.92604 z m 1.30711,-0.52917 c 0,-0.14552 0.11541,-0.44318 0.25648,-0.66146 0.14106,-0.21828 0.25648,-0.27781 0.25648,-0.13229 0,0.14552 -0.11542,0.44318 -0.25648,0.66146 -0.14107,0.21828 -0.25648,0.27781 -0.25648,0.13229 z m -8.68778,-0.79375 c 0.005,-0.43656 0.0647,-0.58312 0.13178,-0.32569 0.0671,0.25743 0.0627,0.61462 -0.01,0.79375 -0.0725,0.17913 -0.12736,-0.0315 -0.12197,-0.46806 z m -0.78394,-0.66146 c 0,-0.50932 0.0545,-0.71768 0.121,-0.46302 0.0666,0.25466 0.0666,0.67138 0,0.92604 -0.0665,0.25467 -0.121,0.0463 -0.121,-0.46302 z m 7.61963,0.66146 c 0,-0.14552 0.11542,-0.44318 0.25648,-0.66146 0.14107,-0.21828 0.25648,-0.27781 0.25648,-0.13229 0,0.14552 -0.11541,0.44318 -0.25648,0.66146 -0.14106,0.21828 -0.25648,0.27781 -0.25648,0.13229 z m 5.28357,-0.11668 c 0,-0.13693 0.11769,-0.32171 0.26155,-0.41061 0.14998,-0.0927 0.19434,0.0135 0.10398,0.24897 -0.17589,0.45837 -0.36553,0.54223 -0.36553,0.16164 z m -0.52917,-1.05833 c 0,-0.13693 0.1177,-0.32171 0.26155,-0.41062 0.14998,-0.0927 0.19434,0.0135 0.10399,0.24897 -0.1759,0.45837 -0.36554,0.54224 -0.36554,0.16165 z m -2.7225,-0.80936 c 0.0761,-0.29104 0.18403,-0.52917 0.23982,-0.52917 0.0558,0 0.10143,0.23813 0.10143,0.52917 0,0.29104 -0.10792,0.52916 -0.23981,0.52916 -0.1319,0 -0.17755,-0.23812 -0.10144,-0.52916 z m 4.06838,0.23136 c -0.0259,-0.18688 1.06061,-2.73188 1.84962,-4.3324 0.28696,-0.58209 0.44591,-0.76068 0.35324,-0.39688 -0.18872,0.74088 -2.16698,4.98795 -2.20286,4.72928 z m -10.79882,-1.2897 c 0,-0.65484 0.0516,-0.92273 0.11466,-0.59531 0.0631,0.32742 0.0631,0.8632 0,1.19063 -0.0631,0.32742 -0.11466,0.0595 -0.11466,-0.59532 z m 8.92377,0.88842 c 0,-0.14196 0.18516,-0.48923 0.41147,-0.7717 0.38798,-0.48427 0.39349,-0.47583 0.0965,0.14787 -0.38572,0.80989 -0.50793,0.95999 -0.50793,0.62383 z m 4.23334,-1.25406 c 0,-0.21828 0.11906,-0.47046 0.26458,-0.5604 0.14552,-0.0899 0.26458,0.0151 0.26458,0.23336 0,0.21828 -0.11906,0.47045 -0.26458,0.56039 -0.14552,0.0899 -0.26458,-0.0151 -0.26458,-0.23335 z m -15.05056,-2.52272 c -0.0329,-2.66831 0.1839,-3.25649 0.26667,-0.72357 0.0376,1.15064 0.13614,1.48706 0.40532,1.38376 0.46949,-0.18015 0.45966,0.28989 -0.0117,0.56138 -0.20206,0.11637 -0.42638,0.44971 -0.49848,0.74075 -0.0721,0.29104 -0.1449,-0.592 -0.16178,-1.96232 z m 11.62972,2.2269 c 0,-0.14552 0.17016,-0.56223 0.37813,-0.92604 0.20797,-0.3638 0.37812,-0.54239 0.37812,-0.39687 0,0.14552 -0.17015,0.56224 -0.37812,0.92604 -0.20797,0.3638 -0.37813,0.5424 -0.37813,0.39687 z m -3.19375,-0.38126 c 0,-0.13693 0.1177,-0.32171 0.26156,-0.41061 0.14998,-0.0927 0.19433,0.0135 0.10398,0.24897 -0.17589,0.45837 -0.36554,0.54223 -0.36554,0.16164 z m -5.20096,-1.99998 c 9.5e-4,-1.16417 0.0475,-1.60751 0.10337,-0.9852 0.0559,0.62231 0.0551,1.57481 -0.002,2.11667 -0.0569,0.54185 -0.10258,0.0327 -0.10162,-1.13147 z m 12.49607,1.20882 c 0.0986,-0.35379 0.41524,-1.00864 0.70359,-1.45521 0.28835,-0.44657 0.45207,-0.59385 0.36383,-0.32729 -0.0882,0.26657 -0.16044,0.64033 -0.16044,0.83059 0,0.19025 -0.24442,0.627 -0.54316,0.97054 l -0.54315,0.62463 z m -0.52886,-0.54737 c 0.0973,-0.3638 0.28727,-0.84005 0.42214,-1.05833 0.17042,-0.27582 0.19125,-0.19512 0.0683,0.26458 -0.0973,0.36381 -0.28727,0.84006 -0.42214,1.05834 -0.17042,0.27582 -0.19125,0.19512 -0.0683,-0.26459 z m -2.00375,0.0662 c 0,-0.1263 0.17267,-0.46075 0.38372,-0.74322 0.37019,-0.4955 0.37839,-0.49247 0.23264,0.0858 -0.15051,0.59723 -0.61636,1.09408 -0.61636,0.65738 z m -14.20821,-1.3891 c 0,-0.80037 0.0496,-1.12779 0.11022,-0.72761 0.0606,0.40018 0.0606,1.05503 0,1.45521 -0.0606,0.40018 -0.11022,0.0728 -0.11022,-0.7276 z m 6.2916,-0.68351 c 0.0127,-0.30822 0.0754,-0.37092 0.15985,-0.15985 0.0764,0.19099 0.067,0.4192 -0.0209,0.50712 -0.0879,0.0879 -0.15045,-0.0684 -0.13896,-0.34727 z m -9.38091,-1.04651 c -0.25532,-0.66535 -0.18,-0.83703 0.1319,-0.30066 0.15444,0.26558 0.22506,0.5386 0.15694,0.60672 -0.0681,0.0681 -0.1981,-0.0696 -0.28884,-0.30606 z m 6.51099,-0.65123 c 0,-0.50933 0.0545,-0.71769 0.121,-0.46302 0.0666,0.25466 0.0666,0.67138 0,0.92604 -0.0666,0.25466 -0.121,0.0463 -0.121,-0.46302 z m -9.25487,-0.30183 c -0.17727,-0.46965 -0.26818,-0.90803 -0.20202,-0.97419 0.1579,-0.15791 0.7049,1.28638 0.60298,1.59213 -0.0433,0.12977 -0.22369,-0.1483 -0.40096,-0.61794 z m 1.38828,0.30183 c -0.0993,-0.31298 -0.12108,-0.62858 -0.0483,-0.70134 0.0728,-0.0728 0.21357,0.12378 0.3129,0.43675 0.0993,0.31298 0.12108,0.62858 0.0483,0.70134 -0.0728,0.0728 -0.21357,-0.12378 -0.3129,-0.43675 z"
       id="path11096" />
  </g>
</svg>
