<?xml version="1.0" encoding="UTF-8" standalone="no"?>
<!-- Created with Inkscape (http://www.inkscape.org/) -->

<svg
   width="79.242729mm"
   height="155.77701mm"
   viewBox="0 0 79.242728 155.77701"
   version="1.1"
   id="svg5"
   inkscape:version="1.1 (c4e8f9ed74, 2021-05-24)"
   sodipodi:docname="ornament66.svg"
   xmlns:inkscape="http://www.inkscape.org/namespaces/inkscape"
   xmlns:sodipodi="http://sodipodi.sourceforge.net/DTD/sodipodi-0.dtd"
   xmlns="http://www.w3.org/2000/svg"
   xmlns:svg="http://www.w3.org/2000/svg">
  <sodipodi:namedview
     id="namedview7"
     pagecolor="#ffffff"
     bordercolor="#666666"
     borderopacity="1.0"
     inkscape:pageshadow="2"
     inkscape:pageopacity="0.0"
     inkscape:pagecheckerboard="0"
     inkscape:document-units="mm"
     showgrid="false"
     inkscape:zoom="1.3380612"
     inkscape:cx="-168.52742"
     inkscape:cy="266.43027"
     inkscape:window-width="2506"
     inkscape:window-height="1403"
     inkscape:window-x="1974"
     inkscape:window-y="0"
     inkscape:window-maximized="1"
     inkscape:current-layer="layer1" />
  <defs
     id="defs2" />
  <g
     inkscape:label="Layer 1"
     inkscape:groupmode="layer"
     id="layer1"
     transform="translate(-179.98876,-10.778945)">
    <path
       style="fill:#000000;stroke-width:0.264583"
       d="m 184.23741,165.56382 c 0.20328,-0.9766 0.49722,-41.72557 0.39506,-54.76875 -0.0305,-3.89953 0.0484,-6.68073 0.18966,-6.68073 0.29113,0 0.6341,9.6273 0.45662,12.81756 -0.0781,1.40388 -0.0263,2.26369 0.13629,2.26369 0.14422,0 0.26223,0.18562 0.26223,0.41249 0,0.22687 -0.10513,0.34752 -0.23362,0.26811 -0.30075,-0.18588 -0.65937,12.02606 -0.39958,13.6069 0.10761,0.65484 0.14528,1.66687 0.0837,2.24896 -0.0616,0.58208 -0.0999,3.55864 -0.0851,6.61458 0.0213,4.42029 0.11602,5.81508 0.46302,6.82227 0.53011,1.53866 0.54313,1.8643 0.0393,0.98294 -0.34004,-0.59484 -0.38506,-0.18848 -0.44703,4.03489 -0.12896,8.78905 -0.11317,9.33301 0.26853,9.25377 0.2238,-0.0465 0.3007,0.0971 0.21254,0.39688 -0.076,0.25832 -0.22246,0.94393 -0.32555,1.52359 -0.15298,0.86027 -0.22508,0.9575 -0.39238,0.52917 -0.19259,-0.49309 -0.20608,-0.48883 -0.22356,0.0705 -0.0102,0.32742 -0.15091,0.59531 -0.31262,0.59531 -0.2001,0 -0.22805,-0.31697 -0.0875,-0.99218 z m 1.43986,0.7276 c 0,-0.14552 0.0919,-0.26458 0.2043,-0.26458 0.11237,0 0.2434,-0.98227 0.29119,-2.18281 0.0478,-1.20055 0.10467,-2.54 0.12642,-2.97657 0.0254,-0.50951 -0.0789,-0.77006 -0.29119,-0.7276 -0.1819,0.0364 -0.33072,-0.043 -0.33072,-0.17639 0,-0.13339 0.14882,-0.31199 0.33072,-0.39688 0.26459,-0.12347 0.26459,-0.1852 0,-0.30868 -0.40653,-0.18971 -0.43551,-0.82496 -0.0436,-0.9556 0.17419,-0.0581 0.34262,-1.34171 0.42819,-3.2632 0.25085,-5.63303 0.0239,-9.07357 -0.47921,-7.26586 -0.16857,0.60566 -0.18549,0.58944 -0.20974,-0.2011 -0.02,-0.6512 0.086,-0.86088 0.43665,-0.86395 0.26851,-0.002 0.34863,-0.0857 0.19072,-0.19843 -0.14977,-0.10692 -0.25518,-0.46522 -0.23425,-0.79622 0.0209,-0.33101 -0.0707,-0.66903 -0.20357,-0.75116 -0.13763,-0.0851 -0.10827,-0.31 0.0682,-0.52265 0.22276,-0.2684 0.22637,-0.37332 0.0129,-0.37332 -0.16333,0 -0.29698,-0.17859 -0.29698,-0.39687 0,-0.21829 0.13365,-0.39688 0.29698,-0.39688 0.20916,0 0.20243,-0.11394 -0.0228,-0.38529 -0.17586,-0.2119 -0.23609,-0.52065 -0.13383,-0.6861 0.10225,-0.16546 0.17953,-0.76359 0.17172,-1.32919 -0.008,-0.5656 0.0702,-1.08055 0.17346,-1.14434 0.10321,-0.0638 0.14978,-0.75079 0.10349,-1.52667 -0.0463,-0.77589 -0.0779,-2.75015 -0.0702,-4.38726 0.008,-1.63711 -0.0939,-2.97657 -0.22579,-2.97657 -0.1319,0 -0.28243,-0.53578 -0.33451,-1.19062 -0.0521,-0.65485 -0.008,-1.19063 0.0974,-1.19063 0.10562,0 0.12351,-0.17859 0.0397,-0.39687 -0.0838,-0.21828 -0.047,-0.39688 0.0817,-0.39688 0.12869,0 0.21143,-0.62507 0.18385,-1.38906 -0.0276,-0.76398 0.0577,-2.44009 0.18953,-3.72467 0.15904,-1.55 0.14809,-2.50671 -0.0326,-2.84427 -0.14973,-0.27977 -0.16705,-0.50866 -0.0385,-0.50866 0.13233,0 0.12162,-0.65069 -0.0247,-1.50003 -0.22338,-1.29654 -0.19741,-1.54466 0.19148,-1.82902 0.39587,-0.28946 0.40013,-0.33971 0.0355,-0.4182 -0.36409,-0.0784 -0.36949,-0.1753 -0.0444,-0.79811 0.2035,-0.3899 0.30223,-0.77668 0.21939,-0.85951 -0.22393,-0.22393 -0.25039,-6.22021 -0.0268,-6.08204 0.10542,0.0652 0.26193,0.005 0.34781,-0.13418 0.0859,-0.13895 -0.0547,-0.3754 -0.31245,-0.52544 -0.30755,-0.17905 -0.34519,-0.27556 -0.10955,-0.28084 0.20566,-0.005 0.29537,-0.17398 0.21,-0.39645 -0.082,-0.21362 -0.0549,-0.44661 0.0602,-0.51776 0.11511,-0.0711 0.16251,-0.87862 0.10534,-1.79441 -0.0572,-0.91578 -0.10576,-2.16168 -0.10796,-2.76867 -0.003,-0.70878 -0.13904,-1.15544 -0.38148,-1.24847 -0.20761,-0.07971 -0.37748,-0.386715 -0.37748,-0.682325 0,-0.29561 -0.12047,-0.53747 -0.26771,-0.53747 -0.16558,0 -0.202,-0.42898 -0.0955,-1.124479 0.2049,-1.337715 0.31111,-1.501582 0.6381,-0.984526 0.29173,0.461283 0.29408,0.447974 0.36763,-2.07704 0.0291,-0.997807 0.18117,-1.754367 0.37706,-1.875438 0.25379,-0.156845 0.23914,-0.276984 -0.0645,-0.528971 -0.47267,-0.392289 -0.52598,-3.794736 -0.0854,-5.448088 0.15513,-0.582083 0.2475,-1.177396 0.20526,-1.322917 -0.20301,-0.699402 -0.15575,-3.882805 0.0596,-4.015912 0.13531,-0.08363 0.0951,-0.243795 -0.09,-0.358174 -0.34891,-0.215641 -0.52275,-1.843675 -0.19686,-1.843641 0.10249,1.1e-5 0.13298,-0.4167 0.0678,-0.926023 -0.0738,-0.576106 -0.007,-0.926042 0.1768,-0.926042 0.20261,0 0.19217,-0.124338 -0.0333,-0.395951 -0.18073,-0.217774 -0.3439,-1.080977 -0.36259,-1.918229 -0.0308,-1.379173 0.0157,-1.515383 0.49465,-1.448922 0.5098,0.07074 0.5112,0.05959 0.0391,-0.313124 -0.26923,-0.212566 -0.41761,-0.502817 -0.32973,-0.645007 0.27582,-0.446299 0.38794,-3.496982 0.17744,-4.828545 -0.12302,-0.778261 -0.0983,-1.378212 0.0634,-1.539936 0.17687,-0.176869 0.15008,-0.403352 -0.0806,-0.681299 -0.28898,-0.348208 -0.27024,-0.471419 0.11448,-0.75274 0.41873,-0.306181 0.42226,-0.367729 0.0393,-0.685586 -0.55614,-0.46156 -0.53514,-1.249828 0.0422,-1.586135 0.38089,-0.221842 0.39031,-0.271113 0.0531,-0.27773 -0.30918,-0.0061 -0.38413,-0.228698 -0.30504,-0.906127 0.1087,-0.931076 -0.59852,-2.806086 -1.0584,-2.806086 -0.16417,0 -0.2253,3.360529 -0.16829,9.251607 0.0493,5.088382 0.009,9.04721 -0.0903,8.797396 -0.16337,-0.412621 -0.30022,5.711663 -0.33571,15.023915 -0.008,1.964531 -0.1267,4.881562 -0.26491,6.482291 -0.21442,2.483374 -0.28054,2.755134 -0.45062,1.852084 -0.10963,-0.582085 -0.12666,-1.415525 -0.0378,-1.852084 0.0888,-0.436562 0.19649,-4.722812 0.23927,-9.525 0.0428,-4.802187 0.15524,-13.57916 0.24991,-19.504385 0.16774,-10.498754 0.15852,-10.795254 -0.36175,-11.641667 -1.12959,-1.837698 -0.93068,-4.049969 0.50174,-5.580248 0.51332,-0.54838 0.53345,-0.785193 0.36988,-4.350263 -0.10358,-2.257669 -0.0748,-3.770313 0.0717,-3.770313 0.13459,0 0.2574,0.446485 0.27291,0.992188 0.076,2.673493 0.40065,6.151562 0.57424,6.151562 0.37276,0 1.0708,-0.970827 1.0708,-1.48927 0,-0.286859 0.14883,-0.681906 0.33073,-0.877877 0.26739,-0.288081 0.26,-0.315992 -0.0386,-0.145746 -0.2897,0.165177 -0.3329,0.06545 -0.20036,-0.462629 0.0961,-0.382982 -10e-4,-1.080702 -0.22599,-1.618465 -0.51847,-1.240877 -0.49855,-1.491429 0.11859,-1.491429 0.28245,0 0.58714,-0.119063 0.67707,-0.264584 0.0954,-0.154363 -0.17364,-0.264583 -0.64584,-0.264583 -0.54305,0 -0.80936,0.13059 -0.80936,0.396875 0,0.759161 -0.4027,0.391694 -0.43492,-0.396875 -0.0234,-0.572648 0.0879,-0.79262 0.39967,-0.789699 0.37784,0.0035 0.38227,0.03953 0.0352,0.286496 -0.29952,0.213164 -0.1535,0.2487 0.59532,0.144875 0.5457,-0.07566 0.99218,-0.04404 0.99218,0.07026 0,0.114306 0.98227,0.179745 2.18282,0.145418 1.5021,-0.04295 1.87248,-0.0021 1.1877,0.131236 -1.40103,0.272637 -1.41638,0.418423 -0.0503,0.477874 0.65298,0.02842 1.17774,-0.06823 1.17774,-0.21691 0,-0.164677 0.22974,-0.143201 0.59531,0.05566 l 0.59532,0.323823 -0.66146,0.209738 c -0.5481,0.173789 -0.52542,0.183944 0.13229,0.05926 0.43656,-0.08276 1.15094,-0.181641 1.5875,-0.219726 0.43656,-0.03809 0.95646,-0.08722 1.15534,-0.109188 0.23515,-0.02598 0.30929,-0.239927 0.21202,-0.611883 -0.1829,-0.699397 0.23224,-1.544725 0.75861,-1.544725 0.26829,0 0.39308,-0.305374 0.40548,-0.992188 0.0164,-0.907256 0.0425,-0.941228 0.30501,-0.396875 0.21298,0.441609 0.51577,0.595313 1.17272,0.595313 0.48709,0 0.88561,0.128521 0.88561,0.285607 0,0.179708 -0.29438,0.220946 -0.79397,0.11122 -0.59877,-0.131511 -0.83447,-0.06883 -0.95873,0.254971 -0.21682,0.565026 0.0903,0.85189 0.48711,0.455041 0.4037,-0.403696 0.94055,-0.380058 1.92705,0.08485 l 0.79375,0.374068 -0.79375,-0.146011 c -0.43656,-0.08031 -1.00211,-0.202501 -1.25677,-0.271542 -0.28937,-0.07845 -0.46302,0.02172 -0.46302,0.267126 0,0.516925 0.53175,0.689499 1.19062,0.386406 0.49207,-0.226362 0.4965,-0.217022 0.0632,0.133212 -0.47916,0.38731 -0.3956,0.548651 0.57378,1.107938 0.28736,0.16579 0.33737,0.08086 0.21898,-0.371864 -0.0983,-0.37592 -0.0182,-0.638612 0.2229,-0.731139 0.54057,-0.207439 0.46352,-0.758542 -0.16498,-1.180008 -0.49637,-0.332859 -0.5458,-0.663278 -0.59531,-3.979381 -0.0297,-1.98901 -0.11353,-3.668797 -0.18629,-3.732863 -0.0728,-0.06407 -0.54901,-0.180414 -1.05833,-0.258551 l -0.92604,-0.142071 -0.009,1.555809 c -0.005,0.855696 -0.15141,1.698005 -0.3252,1.8718 -0.24493,0.24493 -0.27888,-0.08141 -0.15097,-1.45119 l 0.16502,-1.767178 h -0.82521 c -1.35691,0 -1.99817,1.797354 -1.49048,4.177625 0.22465,1.053293 -0.40667,1.907792 -1.40952,1.907792 -0.54447,0 -1.90756,1.049594 -1.90756,1.468839 0,0.06526 0.34057,0.118661 0.75682,0.118661 1.41163,0 3.21193,0.335295 3.21193,0.598201 0,0.156575 -0.34541,0.187831 -0.85989,0.07781 -0.47295,-0.101134 -2.43447,-0.286986 -4.35894,-0.413001 -2.94585,-0.192897 -3.62821,-0.16469 -4.31598,0.178416 -0.4493,0.224145 -0.8801,0.344361 -0.95731,0.267147 -0.0772,-0.07721 0.22195,-0.32776 0.66481,-0.55677 0.54588,-0.282287 1.52428,-0.416386 3.03799,-0.416386 1.81272,0 2.3503,-0.09598 2.85741,-0.510169 l 0.62462,-0.51017 -1.06931,0.140732 c -0.79834,0.105071 -1.16162,0.0295 -1.43359,-0.298196 -0.33266,-0.400836 -0.30301,-0.411012 0.34171,-0.117258 0.73721,0.335896 2.0289,9.1e-4 2.0289,-0.526172 0,-0.134794 0.46451,-0.182777 1.03225,-0.106627 0.83957,0.11261 1.08398,0.04181 1.30933,-0.379275 0.1524,-0.284752 0.20689,-0.786156 0.1211,-1.114232 -0.12518,-0.47866 -0.30303,-0.574918 -0.9003,-0.487259 -0.59364,0.08713 -0.76016,-0.0011 -0.82261,-0.435983 -0.10296,-0.716865 -1.46123,-1.38408 -2.0584,-1.01114 -0.28234,0.176327 -0.59499,0.182973 -0.88821,0.01889 -0.81245,-0.454676 -1.86195,-0.146495 -2.24661,0.659706 -0.31247,0.654897 -0.29953,0.809559 0.10519,1.256771 0.25384,0.280488 0.61748,0.509974 0.80808,0.509974 0.19061,0 0.474,0.238125 0.62976,0.529167 0.1675,0.31297 0.18031,0.529166 0.0314,0.529166 -0.13851,0 -0.29863,-0.140374 -0.35582,-0.311941 -0.0663,-0.198993 -0.53154,-0.01778 -1.28478,0.500468 -0.64944,0.446825 -1.60697,0.990473 -2.12783,1.208106 -1.05419,0.440454 -3.14209,0.849876 -3.14209,0.616127 0,-0.08273 0.41311,-0.796213 0.91803,-1.585524 1.03131,-1.612206 0.92156,-1.804598 -0.89079,-1.56151 -0.9038,0.121225 -1.06943,0.07713 -0.94344,-0.251179 0.11476,-0.299069 0.43614,-0.366281 1.2908,-0.269949 1.93906,0.218561 4.60577,-1.445223 4.24274,-2.647093 -0.25696,-0.850752 -0.6829,-1.212025 -0.85429,-0.724599 -0.29615,0.842278 -1.86766,2.009215 -3.19112,2.369604 -0.75338,0.205152 -1.61041,0.597185 -1.90451,0.871185 -0.56478,0.526177 -1.71013,0.543256 -1.71013,0.02551 0,-0.168071 0.63467,-0.810914 1.41037,-1.428541 0.87715,-0.698397 1.62739,-1.583185 1.98438,-2.34025 0.43971,-0.932498 0.83708,-1.339496 1.69848,-1.739615 1.10026,-0.511071 1.12448,-0.550412 1.12448,-1.826944 0,-1.247141 -0.0213,-1.285332 -0.48386,-0.866744 -0.74771,0.676675 -2.06682,0.56449 -2.58048,-0.21946 -0.41293,-0.630202 -0.4832,-1.062423 -0.40932,-2.517657 0.0185,-0.363802 -0.0372,-1.155332 -0.12368,-1.758956 -0.10973,-0.765791 -0.0181,-1.390862 0.30334,-2.068138 0.44855,-0.945262 0.4458,-0.989205 -0.10532,-1.680628 -1.52843,-1.917523 -1.93589,-4.294435 -0.98495,-5.745745 l 0.48766,-0.744274 0.53514,0.734629 c 0.29433,0.404046 1.02224,0.955294 1.61758,1.224995 1.53579,0.695746 2.58569,1.659414 2.61007,2.395686 0.0115,0.347035 -0.0751,3.331354 -0.19236,6.631821 l -0.21324,6.000847 0.94205,0.176731 c 0.55065,0.103302 0.89341,0.303329 0.82498,0.481441 -0.12897,0.335741 1.35343,0.356828 2.60103,0.037 0.4993,-0.127998 0.72761,-0.08482 0.72761,0.137599 0,0.193863 0.21266,0.268512 0.52916,0.185745 0.67157,-0.175617 0.67477,-0.19355 -0.24302,1.363009 l -0.77218,1.309635 1.18504,0.09425 c 0.82854,0.0659 1.29659,-0.02901 1.55584,-0.315487 0.47769,-0.527833 1.29872,-2.414264 1.2264,-2.817812 -0.0306,-0.170929 0.062,-0.38354 0.20593,-0.472469 0.16912,-0.104524 0.15332,-0.415605 -0.0447,-0.879848 -0.50509,-1.184161 -0.75664,-1.424002 -1.15061,-1.097038 -0.2755,0.228641 -0.33732,0.13249 -0.29563,-0.459758 l 0.0527,-0.74886 -1.55273,0.09166 c -1.16044,0.0685 -1.50302,0.0112 -1.35593,-0.226783 0.14317,-0.231658 0.0255,-0.265706 -0.43164,-0.124936 -0.8428,0.259508 -0.84898,0.269331 -0.65518,1.041489 0.17554,0.699418 0.0735,0.672129 2.93715,0.785181 0.79589,0.03142 0.91725,0.780647 0.26304,1.623967 -0.37484,0.483203 -0.38366,0.472109 -0.14892,-0.187503 0.21528,-0.60493 0.17012,-0.722381 -0.32919,-0.856284 -0.31827,-0.08535 -1.17995,-0.156816 -1.91483,-0.158803 -0.73488,-0.002 -1.47902,-0.146486 -1.65364,-0.321111 -0.24695,-0.246945 -0.32163,-0.232246 -0.3361,0.06615 -0.0116,0.238617 -0.10455,0.183605 -0.24599,-0.145521 -0.35366,-0.823024 -0.30281,-1.190625 0.16469,-1.190625 0.35006,0 0.36898,-0.07266 0.1025,-0.393745 -0.2625,-0.316292 -0.25205,-0.422423 0.0532,-0.539543 0.40904,-0.156964 0.5139,-1.974979 0.11399,-1.97635 -0.12492,-4.24e-4 -0.15104,-0.303911 -0.0581,-0.674405 0.093,-0.370495 0.0825,-0.813661 -0.0232,-0.984814 -0.26614,-0.43062 -0.0967,-2.406264 0.22331,-2.604053 0.1474,-0.09109 0.0787,-0.232045 -0.15729,-0.322591 -0.49324,-0.189276 -0.55658,-1.256975 -0.10156,-1.712 0.24695,-0.246944 0.24695,-0.3175 0,-0.3175 -0.17467,0 -0.3175,-0.348577 -0.3175,-0.774851 0,-0.749872 -0.57437,-1.606399 -1.07723,-1.606399 -0.13513,0 -0.24568,0.185621 -0.24568,0.41249 0,0.22687 -0.11907,0.338906 -0.26459,0.248969 -0.14552,-0.08994 -0.26458,-0.577957 -0.26458,-1.084489 0,-0.506532 -0.24055,-1.392474 -0.53454,-1.96876 -0.31106,-0.609711 -0.41346,-1.047793 -0.24494,-1.047793 0.15929,0 0.48808,0.464726 0.73065,1.032725 l 0.44103,1.032726 2.64817,-0.09879 c 1.45649,-0.05433 3.12442,-0.102787 3.7065,-0.107673 l 1.05834,-0.0089 -0.81722,-0.498334 c -0.44947,-0.274083 -1.05092,-0.795442 -1.33656,-1.158575 -0.28564,-0.363132 -1.12986,-0.96961 -1.87604,-1.347728 -1.70829,-0.865657 -1.95089,-1.226717 -0.82425,-1.226717 0.7035,0 1.11719,0.265946 2.20795,1.419408 0.73824,0.780675 1.5951,1.499661 1.90415,1.597746 0.30904,0.09809 0.70628,0.352321 0.88276,0.564967 0.17648,0.212646 0.66349,0.386629 1.08223,0.386629 0.75206,0 1.01042,-0.344007 0.49677,-0.661458 -0.3323,-0.20537 -0.34969,-1.190625 -0.021,-1.190625 0.13396,0 0.32171,0.355822 0.41723,0.790715 0.21759,0.990686 0.3562,1.072415 2.05583,1.21218 2.19962,0.180881 5.05758,0.703323 5.43256,0.993087 0.18919,0.146191 0.32484,0.514167 0.30145,0.817722 -0.0759,0.984854 0.0109,1.477962 0.26032,1.477962 0.63224,0 2.01485,-1.591123 2.6898,-3.095451 0.41137,-0.916877 0.84223,-1.666546 0.95746,-1.665932 0.11522,6.08e-4 0.23831,0.947729 0.27353,2.104701 0.0537,1.763568 -0.0105,2.146985 -0.39687,2.372088 -0.25711,0.149778 -0.31467,0.272061 -0.13018,0.276549 0.20279,0.0049 0.33073,0.382135 0.33073,0.975094 0,0.896091 0.034,0.937872 0.46302,0.569411 0.71597,-0.614869 1.12448,-0.799673 1.12448,-0.5087 0,0.145882 -0.35719,0.476236 -0.79375,0.73412 -0.43657,0.257884 -0.79375,0.666451 -0.79375,0.907927 0,0.556642 1.5075,0.900961 2.03346,0.464451 0.28042,-0.232721 0.44451,-0.232954 0.6765,-9.52e-4 0.43415,0.434149 0.81445,0.379805 0.63394,-0.09059 -0.0838,-0.218281 -0.0258,-0.396875 0.12875,-0.396875 0.15458,0 0.34332,0.238125 0.41943,0.529167 0.21508,0.822437 0.47392,0.623826 0.46995,-0.360588 -0.002,-0.489304 -0.16764,-1.087318 -0.36815,-1.328918 -0.31547,-0.380116 -0.30806,-0.417592 0.055,-0.278274 0.30734,0.117938 0.40831,0.01167 0.3775,-0.397331 -0.0271,-0.360266 -0.17315,-0.508027 -0.4116,-0.416527 -0.24744,0.09495 -0.31883,0.0097 -0.21609,-0.25807 0.0844,-0.21994 0.0635,-0.399884 -0.0465,-0.399884 -0.30446,0 -0.31576,-1.02514 -0.0134,-1.212036 0.14606,-0.09027 0.33096,0.08598 0.4109,0.391665 0.17472,0.668117 0.19219,0.670211 1.02723,0.123073 0.36323,-0.237993 0.74254,-0.350582 0.84293,-0.250197 0.10038,0.100384 0.0271,0.278537 -0.16274,0.395894 -0.26937,0.166486 -0.2484,0.250541 0.0954,0.382489 0.64039,0.245741 0.73528,0.212533 0.57633,-0.201692 -0.19255,-0.501775 0.63558,-0.686797 1.84905,-0.413116 0.54028,0.121853 1.33556,0.150904 1.76728,0.06456 0.62838,-0.125676 0.74023,-0.08278 0.56074,0.215039 -0.18845,0.312674 -0.15532,0.316184 0.20767,0.022 0.23753,-0.192518 0.64734,-0.327636 0.91068,-0.300261 1.12848,0.117308 1.24537,0.0025 0.64658,-0.63484 -0.54342,-0.578446 -0.8593,-0.636967 -4.3557,-0.80695 -2.07339,-0.100801 -3.96188,-0.109567 -4.19664,-0.01948 -0.23476,0.09009 -0.50612,0.423449 -0.60301,0.740805 -0.1384,0.453308 -0.21386,0.491926 -0.35199,0.180135 -0.0967,-0.218281 -0.31114,0.674687 -0.47653,1.984375 l -0.30069,2.38125 -0.0348,-2.396826 c -0.0502,-3.450438 -0.0606,-3.441479 3.90751,-3.352506 2.7633,0.06196 3.1683,0.01782 3.03455,-0.330729 -0.0849,-0.221226 -0.0225,-0.40223 0.13855,-0.40223 0.16109,0 0.29289,-0.235717 0.29289,-0.523815 0,-0.763977 2.51672,-2.16068 3.57187,-1.982278 0.43656,0.07381 1.35871,0.161864 2.04922,0.19567 1.45961,0.07146 1.57675,0.262139 0.44822,0.729594 -0.66685,0.276216 -2.10255,1.735949 -2.09983,2.13497 5.3e-4,0.05902 4.79267,0.140221 10.64948,0.180436 5.85681,0.04021 13.8039,0.194076 17.6602,0.341914 8.70777,0.333825 9.81791,0.437872 8.14309,0.763206 -0.54177,0.105239 -1.67286,0.100209 -2.51354,-0.01118 -2.38465,-0.31596 -14.98955,-0.457965 -13.63319,-0.15359 0.61846,0.138787 1.12448,0.366991 1.12448,0.507121 0,0.284069 -0.92636,0.186269 -4.17754,-0.441047 -1.64032,-0.3165 -4.15202,-0.439204 -9.96411,-0.486775 -4.27402,-0.03498 -7.86108,0.02569 -7.97125,0.134835 -0.37166,0.368207 0.1364,0.542359 1.59226,0.545783 0.79674,0.0019 1.38701,0.103082 1.31172,0.224906 -0.0753,0.121823 -0.61315,0.221498 -1.19523,0.221498 -0.58208,0 -0.99794,0.09772 -0.92413,0.217145 0.18526,0.299759 3.55332,0.317126 4.32871,0.02232 0.80393,-0.305649 1.91832,-0.03477 1.91832,0.466291 0,0.211094 0.121,0.309022 0.2689,0.217618 0.14789,-0.0914 0.20808,-0.264582 0.13376,-0.38484 -0.16609,-0.268748 2.00768,-0.524303 2.37546,-0.279266 0.38644,0.257461 1.54814,0.280522 1.71164,0.03398 0.0772,-0.116473 0.47737,-0.294286 0.88916,-0.395139 0.66732,-0.163434 0.7301,-0.124717 0.57748,0.356137 -0.14126,0.445074 -0.0551,0.539506 0.49245,0.539506 0.36501,0 0.73725,-0.119063 0.82719,-0.264584 0.1899,-0.307257 2.24896,-0.363829 2.24896,-0.06179 0,0.111537 1.12521,0.191954 2.50047,0.178706 1.37526,-0.01325 2.43979,0.07409 2.36563,0.194081 -0.18528,0.299789 0.26143,0.275868 0.57108,-0.03058 0.29881,-0.295713 6.44084,-0.500158 6.53579,-0.217552 0.0361,0.107336 0.38013,0.03177 0.7646,-0.167922 0.75377,-0.391511 2.87284,-0.682869 2.87284,-0.394996 0,0.09646 -0.56554,0.268175 -1.25677,0.381581 l -1.25677,0.206194 1.05834,0.192999 c 0.58208,0.106151 1.19385,0.08288 1.35949,-0.05171 0.16564,-0.134593 0.79071,-0.166432 1.38906,-0.07075 0.7339,0.117356 1.0879,0.07686 1.0879,-0.124437 0,-0.164119 -0.3175,-0.298399 -0.70555,-0.298399 -0.38806,0 -0.63421,-0.07135 -0.547,-0.15856 0.2903,-0.290295 2.31089,0.194043 2.31089,0.553921 0,0.217646 0.19742,0.297221 0.52492,0.211579 0.88835,-0.232311 1.85633,0.143661 1.85633,0.721018 0,0.481766 -0.1978,0.527383 -2.4474,0.564425 -1.34607,0.02216 -2.62599,0.05635 -2.84427,0.07598 -0.21828,0.01962 -0.88091,-0.05034 -1.4725,-0.155473 -0.59159,-0.105132 -7.37099,-0.265327 -15.06534,-0.35599 -7.69434,-0.09066 -14.0848,-0.223613 -14.20103,-0.295444 -0.50313,-0.31095 0.21409,0.872617 0.81934,1.35209 1.50813,1.194722 3.61303,1.663926 4.77318,1.06399 0.92536,-0.478523 0.79856,-0.529069 3.39451,1.353153 0.5251,0.380729 0.74163,0.394045 1.63157,0.100338 0.57751,-0.190595 1.35388,-0.258474 1.7758,-0.155262 1.86437,0.45607 2.11705,0.435073 3.79239,-0.315155 1.71069,-0.766061 3.175,-1.234986 3.175,-1.016755 0,0.06289 -0.91967,0.610413 -2.04371,1.216713 -1.83904,0.991961 -2.17689,1.087839 -3.37344,0.957337 -3.08542,-0.33651 -3.18181,-0.329767 -3.18181,0.222569 0,0.389776 0.28094,0.584916 1.14498,0.795293 1.2173,0.296387 1.23216,0.672571 0.0266,0.672571 -0.41967,0 -1.17898,-0.361883 -1.80425,-0.859896 -0.5938,-0.472943 -1.57044,-1.246849 -2.17032,-1.719792 -1.1355,-0.895235 -2.10199,-1.095164 -2.55808,-0.529167 -0.51567,0.63993 0.71855,2.386719 2.71526,3.842908 1.01593,0.740913 0.65341,1.020104 -1.64402,1.266138 -1.26825,0.135818 -1.87399,0.07678 -2.562,-0.249701 -0.49557,-0.235166 -0.95245,-0.427574 -1.01528,-0.427574 -0.24874,0 0.27604,3.094372 0.64325,3.792973 0.38024,0.72338 0.18931,0.744814 -1.39085,0.156137 -3.72551,-1.387909 -4.31483,-1.877737 -4.62924,-3.847707 -0.18397,-1.15263 0.0758,-1.908641 1.00738,-2.932211 0.32303,-0.354915 0.46226,-0.757269 0.35699,-1.031615 -0.0949,-0.24737 0.0311,-0.983074 0.28001,-1.634897 0.4346,-1.137977 0.43286,-1.199574 -0.0437,-1.548073 -0.68648,-0.501962 -3.30563,-0.491159 -3.30563,0.01363 0,0.207116 -0.30449,0.738434 -0.67663,1.180707 -0.61042,0.72544 -0.6494,0.902199 -0.39835,1.806238 0.46404,1.671044 0.34503,2.116854 -0.91664,3.433602 -0.65883,0.687591 -1.13881,1.404056 -1.06664,1.592146 0.17888,0.466131 -0.32915,0.431956 -0.816,-0.05489 -0.56508,-0.565087 -1.15282,-0.49071 -1.15282,0.145888 0,0.487156 0.14579,0.536865 1.42306,0.48519 1.13647,-0.04598 1.66933,0.08675 2.64584,0.659015 0.67252,0.394124 1.22276,0.803167 1.22276,0.908986 0,0.1986 -4.08306,1.388975 -4.72875,1.37862 -0.2778,-0.0044 -0.29233,0.07947 -0.0619,0.357176 0.18035,0.217311 1.68001,0.557798 3.73656,0.84836 3.50323,0.494959 4.28274,0.810726 2.36061,0.956239 l -1.0747,0.08136 0.80275,1.058334 c 0.81469,1.07406 0.97704,1.455589 0.61904,1.454735 -0.10914,-2.6e-4 -0.55563,-0.556766 -0.99219,-1.236676 -0.43656,-0.679913 -0.85716,-1.329447 -0.93465,-1.443411 -0.0775,-0.113964 -1.02944,-0.345064 -2.11541,-0.513559 -1.08598,-0.168494 -2.20992,-0.471249 -2.49766,-0.672785 -0.77229,-0.540935 -0.93876,-0.453538 -0.76747,0.402924 0.19277,0.963837 -0.49824,1.404635 -2.10322,1.341659 -0.60862,-0.02389 -1.52331,-0.02442 -2.03263,-0.0011 l -0.92604,0.04223 1.17659,0.366649 c 0.64712,0.201655 1.80663,0.445366 2.57669,0.541579 0.77006,0.09621 1.33263,0.284096 1.25017,0.41752 -0.16983,0.274796 -1.33822,0.122301 -3.73927,-0.488037 -0.90542,-0.230158 -1.59238,-0.5056 -1.52656,-0.612095 0.12838,-0.207724 -4.14683,-0.538387 -4.36735,-0.337788 -0.25705,0.233838 2.87794,2.193441 3.50909,2.193441 0.12247,0 0.66071,0.297656 1.19609,0.661458 0.53539,0.363802 1.28809,0.661458 1.67268,0.661458 1.7446,0 2.33542,0.291539 2.61252,1.289145 0.36934,1.329672 0.33934,1.611165 -0.19346,1.815148 -0.6905,0.264353 -1.38387,1.203404 -1.24139,1.681242 0.0689,0.230952 -0.16669,0.734867 -0.52344,1.119812 -0.60182,0.649367 -0.78286,0.693632 -2.50754,0.6131 -2.47747,-0.115683 -2.78068,-0.388125 -2.57903,-2.317356 0.15367,-1.470297 0.13441,-1.527257 -0.89758,-2.653384 l -1.05462,-1.150832 0.13673,2.042867 c 0.10134,1.514279 0.0254,2.335808 -0.29329,3.175 -0.23651,0.622673 -0.4201,1.464527 -0.40799,1.870787 l 0.022,0.738653 -0.76539,-0.545005 c -0.7924,-0.564234 -1.0524,-0.472559 -0.92379,0.325729 0.0411,0.255354 -0.0265,0.401679 -0.1503,0.325165 -0.1238,-0.07651 -0.18126,-0.366705 -0.12769,-0.644872 0.0704,-0.365665 -0.044,-0.495104 -0.4131,-0.467299 -0.58963,0.04441 -0.53753,0.350618 0.42634,2.505538 0.66908,1.495872 0.66177,1.896068 -0.0109,0.595312 -0.22576,-0.436562 -0.58601,-0.79375 -0.80055,-0.79375 -0.21454,-1.24e-4 -0.39008,-0.119186 -0.39008,-0.264707 0,-0.145521 0.112,-0.264584 0.2489,-0.264584 0.25951,0 -0.0576,-0.695793 -0.86272,-1.893041 -0.50429,-0.749887 -1.44995,-1.122595 -2.15848,-0.850706 -0.23821,0.09141 -0.37168,0.326279 -0.2966,0.521935 0.0751,0.195654 -0.0669,0.474324 -0.31552,0.619268 -0.26978,0.157279 -0.31605,0.26678 -0.11476,0.271582 0.18551,0.0044 0.44884,0.301458 0.58518,0.660072 0.13635,0.358616 0.9073,1.089848 1.71324,1.624959 0.80594,0.535115 1.46535,1.063379 1.46535,1.173922 0,0.193218 1.72907,1.311593 2.0278,1.311593 0.08,0 0.0705,-0.195435 -0.0212,-0.434298 -0.14548,-0.379111 -0.10993,-0.387517 0.27973,-0.06615 0.41281,0.340458 0.43398,0.248595 0.28142,-1.221174 -0.20878,-2.011465 -0.004,-2.371055 1.2195,-2.141524 0.97367,0.182661 2.56273,1.681446 2.56273,2.417141 0,0.648684 -0.49153,0.434165 -0.92476,-0.40359 -0.49063,-0.948778 -1.56369,-1.707002 -2.11591,-1.495097 -0.30665,0.117671 -0.39893,0.614029 -0.39893,2.14576 0,1.119159 -0.11318,1.992678 -0.25819,1.992678 -0.142,0 -0.64802,-0.237681 -1.12448,-0.528177 -1.1058,-0.674212 -1.51596,-0.674513 -1.33983,-0.0011 0.0761,0.291042 0.24775,0.529167 0.38142,0.529167 0.1461,0 0.14446,0.184679 -0.004,0.463021 -0.13592,0.254661 -0.32946,1.117864 -0.4301,1.918229 -0.10064,0.800365 -0.33474,1.812396 -0.52023,2.248958 l -0.33725,0.79375 -0.36021,-0.79375 c -0.19811,-0.436493 -1.16668,-1.76885 -2.15237,-2.960727 -1.2052,-1.457296 -1.79217,-2.393963 -1.79217,-2.859884 0,-0.381063 0.11386,-0.622472 0.25303,-0.536461 0.13916,0.08601 0.19185,0.315796 0.11708,0.510638 -0.0748,0.194844 0.0573,0.428405 0.29344,0.51903 0.34701,0.133157 0.39199,0.05088 0.23444,-0.428879 -0.10722,-0.326506 -0.18174,-0.804582 -0.16561,-1.062386 0.0161,-0.257808 -0.0807,-0.400717 -0.21524,-0.317577 -0.1418,0.08763 -0.17677,-0.187939 -0.0832,-0.655741 0.2141,-1.070501 0.0102,-1.017736 -0.71603,0.185285 -0.43581,0.72194 -0.61293,1.460619 -0.65028,2.711979 -0.0502,1.682298 -0.0334,1.728444 0.77069,2.116667 0.52212,0.252079 0.90292,0.686467 1.04374,1.190625 0.12194,0.436563 0.33974,1.184802 0.484,1.66275 0.30777,1.019699 -0.46193,4.819542 -0.97626,4.819542 -0.16895,0 -0.91377,-0.581583 -1.65515,-1.292408 -1.06992,-1.025832 -1.43985,-1.6125 -1.79349,-2.84427 -0.24504,-0.853525 -0.48832,-1.599317 -0.54063,-1.657313 -0.14199,-0.157436 -2.20242,1.31935 -2.51556,1.802992 -0.21295,0.32889 -0.23975,0.276717 -0.12449,-0.242334 0.0808,-0.363803 0.14851,-0.823024 0.1505,-1.020496 0.002,-0.217598 0.16786,-0.296008 0.42055,-0.19904 0.60629,0.232656 2.61545,-1.037797 3.59287,-2.271885 0.70163,-0.885891 0.79225,-1.146966 0.53891,-1.552631 -0.17313,-0.277225 -0.20135,-0.551444 -0.0654,-0.635463 0.13153,-0.08129 0.28938,0.0024 0.35079,0.186172 0.0706,0.211061 0.10184,0.192611 0.085,-0.05013 -0.0166,-0.238704 -0.319,-0.388932 -0.799,-0.396875 -0.68665,-0.01135 -0.8807,0.187272 -1.74866,1.789962 -1.0858,2.004941 -1.95457,3.066391 -1.07764,1.316657 0.30705,-0.612667 0.55828,-1.281219 0.55828,-1.485673 0,-0.204454 0.23844,-0.67487 0.52988,-1.045371 0.29404,-0.373809 0.45808,-0.86074 0.36857,-1.094015 -0.19706,-0.51353 -0.21445,-0.514035 -1.14411,-0.03329 -0.88465,0.45747 -1.07726,0.87308 -1.07726,2.324481 0,1.39483 -0.25151,1.158851 -0.30825,-0.289211 -0.0329,-0.839851 0.11001,-1.270929 0.5955,-1.796216 l 0.63879,-0.691161 -1.10281,0.556001 c -1.08463,0.54683 -1.10525,0.583358 -1.25074,2.215322 -0.0814,0.912627 -0.18772,2.769203 -0.23636,4.125724 l -0.0884,2.466407 0.78682,0.406876 c 0.62337,0.322358 0.98398,0.348562 1.73604,0.126153 0.95428,-0.282215 3.19818,-0.132657 3.19818,0.213162 0,0.101952 -0.62508,0.136363 -1.38906,0.07647 -1.81083,-0.141963 -2.36583,0.249388 -2.15642,1.520571 l 0.15256,0.926041 1.54179,-0.08852 c 1.28257,-0.07363 1.63454,0.0042 2.09334,0.463021 0.30335,0.303348 0.55154,0.825384 0.55154,1.160082 0,0.334698 0.10515,0.721651 0.23367,0.859896 0.28951,0.31143 0.6587,2.764895 0.41605,2.764895 -0.097,0 -0.51693,-0.286493 -0.93307,-0.636651 -0.41614,-0.350157 -1.26676,-0.721172 -1.89028,-0.824476 -1.30674,-0.2165 -2.0597,-0.559675 -2.0597,-0.938741 0,-0.166561 0.20444,-0.155171 0.55183,0.03075 0.3035,0.16243 0.621,0.22615 0.70555,0.1416 0.0846,-0.08455 0.0516,-0.153729 -0.0732,-0.153729 -0.12482,0 0.004,-0.174807 0.28663,-0.388461 0.50689,-0.383389 0.50669,-0.389009 -0.0156,-0.430641 -0.29104,-0.0232 -0.76729,-0.06875 -1.05833,-0.10123 -0.43755,-0.04883 -0.54176,0.117788 -0.60189,0.962369 -0.0783,1.09986 0.51706,3.733192 1.07485,4.754081 0.18867,0.345313 0.60548,1.04456 0.92624,1.553883 0.58935,0.935807 0.72335,2.35676 0.34907,3.701499 -0.28145,1.011198 -0.57423,0.233712 -0.43398,-1.152422 0.0974,-0.96244 -0.027,-1.49212 -0.61209,-2.606119 l -0.73432,-1.398167 -0.59315,1.346475 c -0.56787,1.28909 -0.57942,1.458233 -0.27099,3.96875 0.33798,2.750974 0.39058,4.31871 0.24775,7.384775 -0.14213,3.051088 -0.84397,10.573462 -0.99977,10.715626 -0.0797,0.07276 -0.0562,-0.760677 0.0524,-1.852084 0.57512,-5.781609 0.59203,-16.417319 0.0289,-18.191499 -0.10705,-0.337288 0.0979,-1.108956 0.54558,-2.054547 0.6765,-1.428777 0.69946,-1.599452 0.40618,-3.019365 -0.17097,-0.827741 -0.31085,-1.908582 -0.31085,-2.401871 0,-1.203561 -0.32556,-0.765178 -0.99825,1.344184 -0.38582,1.209849 -0.64072,3.059996 -0.83839,6.085416 -0.28626,4.38131 -0.65461,21.773894 -0.52353,24.719974 0.13953,3.136289 0.10552,10.254629 -0.1043,21.828129 -0.11741,6.47568 -0.20721,12.25021 -0.19956,12.8323 0.008,0.58208 0.0739,8.46997 0.14716,17.52864 l 0.13326,16.47031 h -0.92486 c -0.50868,0 -0.92486,-0.11906 -0.92486,-0.26458 z m 1.5875,-78.168765 c 0,-0.06417 -0.11907,-0.190262 -0.26459,-0.280199 -0.14552,-0.08994 -0.26458,-0.03743 -0.26458,0.116676 0,0.154109 0.11906,0.280199 0.26458,0.280199 0.14552,0 0.26459,-0.0525 0.26459,-0.116676 z m 1.60258,-21.731232 c 0.0885,-0.42568 0.35949,-1.155007 0.60211,-1.620724 0.45331,-0.870127 0.61541,-3.9072 0.23865,-4.471448 -0.16914,-0.253309 -1.19914,-0.899504 -1.43376,-0.899504 -0.046,0 -0.0835,1.785938 -0.0835,3.96875 0,2.458437 0.0981,3.936051 0.25778,3.882822 0.14178,-0.04726 0.33022,-0.434213 0.41876,-0.859896 z m 5.84803,-1.112652 c -0.16878,-0.05626 -0.30686,-0.390023 -0.30686,-0.741696 0,-0.47761 -0.15065,-0.647176 -0.59532,-0.670103 -0.44798,-0.0231 -0.48072,-0.06064 -0.13229,-0.151693 0.55384,-0.144733 0.62084,-0.611365 0.0878,-0.611365 -0.20638,0 -0.5831,-0.07976 -0.83715,-0.177255 -0.31493,-0.120848 -0.40104,-0.07875 -0.27061,0.132292 0.23114,0.373988 -0.0893,0.396727 -0.63367,0.04496 -0.3315,-0.21423 -0.30971,-0.264054 0.13229,-0.302453 0.29104,-0.02529 0.76729,-0.02675 1.05834,-0.0033 0.43705,0.03528 0.46008,-0.0034 0.13229,-0.222192 -0.57675,-0.38498 -3.0388,0.106116 -2.76369,0.551262 0.0849,0.137416 0.25703,0.186433 0.38244,0.108926 0.12541,-0.07751 0.3028,-0.01992 0.3942,0.127976 0.0914,0.147897 0.34915,0.268902 0.57276,0.268902 0.51949,0 1.94345,1.006231 1.94345,1.37333 0,0.171191 -0.15579,0.149664 -0.40327,-0.05572 -0.22179,-0.184076 -0.48869,-0.249254 -0.5931,-0.144844 -0.10442,0.104413 -0.0122,0.29182 0.20483,0.416465 0.21707,0.124643 0.63279,0.404077 0.92384,0.620964 0.47222,0.351909 0.55506,0.348258 0.76988,-0.03394 0.15859,-0.28216 0.13602,-0.463177 -0.0661,-0.530566 z m 1.22639,-6.60585 c -0.19405,-0.233807 -0.183,-0.331507 0.0375,-0.331507 0.17192,0 0.23901,-0.119063 0.14907,-0.264583 -0.0899,-0.145521 -0.0229,-0.264584 0.14907,-0.264584 0.23868,0 0.2378,-0.09013 -0.004,-0.381148 -0.41296,-0.497591 -1.01028,-0.254619 -1.15462,0.469665 l -0.11417,0.572942 -0.19868,-0.602732 c -0.13994,-0.424529 -0.33875,-0.558273 -0.67245,-0.452363 -0.3963,0.12578 -0.46463,0.008 -0.4179,-0.720186 0.0595,-0.926674 -0.23649,-1.796594 -0.61123,-1.796594 -0.99945,0 0.0778,3.140469 1.51627,4.420184 l 0.96608,0.859478 0.31497,-0.588531 c 0.21973,-0.410575 0.23178,-0.688774 0.0399,-0.920041 z m -8.72781,-0.823677 c 0.22495,-0.142666 0.28437,-0.465352 0.16976,-0.921991 -0.12582,-0.50129 -0.0734,-0.703667 0.18309,-0.706557 0.21712,-0.0024 0.25467,-0.08101 0.0948,-0.198437 -0.14552,-0.106913 -0.28895,-0.573648 -0.31874,-1.037191 -0.0387,-0.602562 0.0744,-0.875522 0.39688,-0.95758 0.2966,-0.07548 0.1566,-0.183245 -0.40887,-0.314748 -0.47294,-0.109985 -0.85989,-0.306419 -0.85989,-0.436523 0,-0.130103 0.29765,-0.161845 0.66145,-0.07053 0.40757,0.102291 0.66146,0.05345 0.66146,-0.127251 0,-0.161298 -0.0937,-0.293267 -0.20828,-0.293267 -0.40755,0 -0.28739,-1.156994 0.15508,-1.493237 0.56967,-0.432898 0.0414,-0.462701 -0.86673,-0.0489 -0.79221,0.360955 -0.84856,0.570995 -1.06319,3.962821 -0.12464,1.969645 -0.0828,2.584529 0.18318,2.69109 0.51813,0.207592 0.83712,0.195122 1.21997,-0.04769 z m 9.16216,-1.56708 c -0.10944,-0.249861 -0.17089,-0.620934 -0.13656,-0.824611 0.0488,-0.289316 -0.0289,-0.278982 -0.35515,0.04725 -0.45527,0.455268 -0.56613,0.842997 -0.17126,0.598953 0.13547,-0.08372 0.31338,-0.0437 0.39536,0.08895 0.26034,0.421241 -0.58877,0.54687 -0.9286,0.137393 -0.22592,-0.272211 -0.41009,-0.307906 -0.60143,-0.116565 -0.19134,0.191339 -0.17377,0.377074 0.0574,0.606526 0.26731,0.265345 0.29505,0.226113 0.14034,-0.198438 -0.1902,-0.521946 -0.185,-0.52229 0.3812,-0.02513 0.31572,0.277214 0.57403,0.40223 0.57403,0.277812 0,-0.12442 0.14734,-0.07888 0.32742,0.101206 0.40446,0.404458 0.60559,-0.03507 0.31727,-0.693338 z m -10.96344,-0.685802 c 0,-0.782175 0.0744,-1.794206 0.16537,-2.248959 0.21762,-1.088138 -0.22148,-1.058471 -0.75041,0.0507 -0.38373,0.804687 -0.39394,1.36295 -0.0553,3.025079 0.22918,1.124955 0.64037,0.594042 0.64037,-0.826823 z m 14.57833,-1.466234 c 0.0144,-0.375928 0.0553,-1.006443 0.0909,-1.401143 0.0356,-0.3947 -0.0377,-0.654365 -0.16285,-0.57703 -0.12513,0.07733 -0.14695,0.281207 -0.0485,0.453054 0.0985,0.171844 0.0905,0.233071 -0.0177,0.136057 -0.10822,-0.09701 -0.19696,-0.275606 -0.19721,-0.396875 -2.5e-4,-0.121267 -0.13018,-0.376801 -0.28874,-0.567852 -0.23173,-0.279212 -0.13647,-0.309536 0.48552,-0.154551 0.6819,0.169916 0.73321,0.143523 0.43203,-0.222215 -0.2793,-0.339178 -0.2793,-0.442508 0,-0.565357 0.23636,-0.103955 0.21936,-0.135575 -0.0551,-0.10251 -0.21828,0.0263 -0.66476,-0.10042 -0.99218,-0.281591 -0.69211,-0.382963 -0.6869,-0.427971 -0.20867,1.803355 0.20244,0.944494 0.3267,1.75863 0.27614,1.809187 -0.0506,0.05056 -0.30164,-0.573384 -0.55796,-1.386536 -0.25633,-0.813152 -0.53473,-1.478457 -0.61867,-1.478457 -0.0839,0 -0.30133,0.238125 -0.48309,0.529166 -0.27563,0.441355 -0.26423,0.529167 0.0686,0.529167 0.21952,0 0.39957,0.20836 0.40011,0.463021 0.002,0.709287 0.94299,2.094619 1.42351,2.094619 0.27661,0 0.43685,-0.241345 0.45383,-0.683509 z m -0.95229,-3.197048 c -0.0899,-0.14552 -0.0374,-0.264583 0.11668,-0.264583 0.15411,0 0.2802,0.119063 0.2802,0.264583 0,0.145521 -0.0525,0.264584 -0.11668,0.264584 -0.0642,0 -0.19026,-0.119063 -0.2802,-0.264584 z m -1.74464,0.102344 c -0.38706,-0.466371 -0.57492,-0.329623 -0.35053,0.255143 0.0914,0.238273 0.27862,0.363778 0.41595,0.278897 0.14888,-0.09201 0.12247,-0.307649 -0.0654,-0.53404 z m 2.93527,-1.000077 c 0,-0.250992 -0.792,-0.377487 -0.93318,-0.149046 -0.086,0.139166 0.0888,0.253029 0.3884,0.253029 0.29963,0 0.54478,-0.04679 0.54478,-0.103983 z m -10.52363,-0.457134 c 0.30474,-0.163095 1.42494,-0.279673 2.48934,-0.259067 l 1.93527,0.03747 0.62144,-0.997705 c 0.3418,-0.548737 0.69831,-1.206063 0.79225,-1.460724 0.22638,-0.61367 0.63197,-0.586325 0.98116,0.06614 0.15576,0.291042 0.5442,0.529167 0.86319,0.529167 0.56175,0 0.5572,-0.02281 -0.14453,-0.724527 -0.6993,-0.699296 -0.85112,-0.73025 -4.35961,-0.888892 -2.60108,-0.11761 -3.73058,-0.07676 -3.97078,0.143622 -0.19238,0.176503 -0.36281,1.064265 -0.39922,2.079516 -0.0676,1.886223 0.0805,2.069592 1.19149,1.474997 z M 188.973,47.512195 c 0.0978,-0.158327 1.00458,-0.283281 2.05564,-0.283281 1.03432,0 1.83096,0.04403 1.77033,0.09784 -0.0606,0.05382 -0.98568,0.181293 -2.05565,0.283282 -1.35781,0.129426 -1.89252,0.09987 -1.77032,-0.09785 z m 5.65049,-0.993187 c 0.191,-0.07643 0.4192,-0.06703 0.50712,0.02088 0.0879,0.08792 -0.0683,0.150453 -0.34727,0.138965 -0.30822,-0.0127 -0.37092,-0.07539 -0.15985,-0.159851 z m -6.69727,-0.877594 c -0.0899,-0.145521 -0.28258,-0.264584 -0.4281,-0.264584 -0.14552,0 -0.191,0.119063 -0.10106,0.264584 0.0899,0.145521 0.28258,0.264583 0.4281,0.264583 0.14552,0 0.191,-0.119062 0.10106,-0.264583 z m 7.20439,-0.159854 c -0.0879,-0.08792 -0.31612,-0.09732 -0.50712,-0.02088 -0.21107,0.08446 -0.14837,0.147156 0.15985,0.15985 0.27892,0.01148 0.43519,-0.05105 0.34727,-0.138964 z m 7.08311,-0.89848 c -0.26339,-0.291041 -0.66879,-0.519766 -0.9009,-0.508278 -0.27601,0.01365 -0.30702,0.06725 -0.0896,0.15489 0.18281,0.0737 0.25371,0.26129 0.15756,0.416867 -0.0961,0.155575 -0.0614,0.212794 0.0771,0.127151 0.13857,-0.08564 0.42486,-0.04633 0.63619,0.08736 0.60223,0.380976 0.63891,0.295775 0.11966,-0.27799 z m -12.5677,0 c 0,-0.331501 -0.28079,-0.331501 -0.79375,0 -0.32093,0.207399 -0.28296,0.257255 0.19843,0.260533 0.32742,0.0022 0.59532,-0.115012 0.59532,-0.260533 z m 13.4392,-0.992187 c -0.048,-0.286073 0.0658,-0.432038 0.29777,-0.381947 0.31049,0.06704 0.31633,0.0098 0.0337,-0.33073 -0.27323,-0.329221 -0.27572,-0.491392 -0.0124,-0.808677 0.26976,-0.325044 0.25168,-0.396875 -0.0999,-0.396875 -0.46172,0 -0.59337,-0.427837 -0.1764,-0.573265 0.15734,-0.05487 0.16347,-0.482497 0.0162,-1.131922 -0.13015,-0.574051 -0.18761,-1.123043 -0.1277,-1.219983 0.0599,-0.09694 0.16984,-0.78812 0.24428,-1.53596 0.12044,-1.209918 0.0796,-1.359704 -0.37086,-1.359704 -0.63789,0 -1.34736,-0.692428 -1.30705,-1.27567 0.0282,-0.407887 0.0402,-0.408387 0.14687,-0.0061 0.11569,0.436163 1.3387,0.912056 1.62028,0.630481 0.0813,-0.08135 -0.0815,-0.321479 -0.36195,-0.53363 -0.46296,-0.350253 -0.46727,-0.386501 -0.0468,-0.394142 0.73201,-0.01331 0.53848,-0.53758 -0.19844,-0.53758 -0.3638,0 -0.66146,-0.119063 -0.66146,-0.264584 0,-0.145521 0.16867,-0.264583 0.37483,-0.264583 0.20615,0 0.42476,-0.0893 0.4858,-0.198438 0.061,-0.10914 0.0747,-0.04961 0.0303,0.132292 -0.0443,0.181901 0.0347,0.330729 0.17566,0.330729 0.14095,0 0.25628,-0.238125 0.25628,-0.529166 0,-0.291042 -0.15584,-0.529167 -0.34631,-0.529167 -0.19047,0 -0.55646,-0.153667 -0.81331,-0.341485 -0.41028,-0.3 -0.42511,-0.436612 -0.1221,-1.12448 0.1897,-0.430646 0.46294,-0.865816 0.60721,-0.967045 0.14427,-0.101228 0.17831,-0.268049 0.0756,-0.370714 -0.10266,-0.102664 0.0198,-0.343476 0.27225,-0.535138 0.42476,-0.322545 0.41645,-0.349102 -0.11164,-0.35689 -0.43342,-0.0064 -0.53817,-0.132181 -0.43587,-0.52341 0.0741,-0.283248 0.33082,-0.567093 0.57055,-0.630767 0.29538,-0.07846 0.24399,-0.125663 -0.15945,-0.146463 -0.33915,-0.0175 -0.59532,-0.201488 -0.59532,-0.42758 0,-0.218281 0.0498,-0.396875 0.11065,-0.396875 0.0609,0 0.31851,-0.07976 0.57257,-0.177254 0.33164,-0.127262 0.40336,-0.08251 0.25429,0.158688 -0.16267,0.26321 -0.0899,0.272945 0.33608,0.04496 0.72458,-0.387782 0.85571,-0.367185 0.67417,0.105895 -0.0838,0.218281 -0.0205,0.396875 0.14059,0.396875 0.28858,0 0.39686,-0.34365 0.31265,-0.992188 -0.0646,-0.497179 0.70766,-0.397535 1.02524,0.132292 0.24487,0.408513 0.31721,0.4163 0.61456,0.06615 0.18536,-0.218281 0.52482,-0.515938 0.75436,-0.661458 0.22954,-0.145521 0.90904,-0.592006 1.51,-0.992188 0.60096,-0.400182 1.24385,-0.72682 1.42865,-0.725861 0.18479,9.59e-4 -0.0212,0.2383 -0.45777,0.527424 l -0.79375,0.52568 1.98438,0.05069 c 1.6696,0.04265 1.76294,0.06614 0.58839,0.148102 -0.77635,0.05418 -1.32809,0.207267 -1.24303,0.344901 0.0843,0.136469 -0.0393,0.173732 -0.27551,0.08307 -0.23566,-0.09043 -0.68833,-0.04436 -1.00593,0.102379 -0.31761,0.146738 -0.92896,0.409101 -1.35857,0.583029 l -0.78111,0.316233 0.84725,0.536443 c 0.99538,0.63023 1.07924,0.84227 0.25194,0.637042 -0.32742,-0.08122 -0.44574,-0.07908 -0.26293,0.0048 0.18281,0.08385 0.26592,0.259977 0.18469,0.391402 -0.0812,0.131425 0.0669,0.169556 0.32908,0.08473 0.39785,-0.12869 0.41107,-0.107289 0.0799,0.129282 -0.21828,0.155927 -0.62014,0.213934 -0.89303,0.128905 -0.3238,-0.100894 -0.43316,-0.05267 -0.31481,0.138827 0.21488,0.347672 -1.08181,0.909442 -1.50108,0.650321 -0.17001,-0.105074 -0.20592,-0.04992 -0.0898,0.137945 0.34502,0.558255 3.59248,-0.04298 3.59248,-0.66511 0,-0.207073 0.20836,-0.452378 0.46302,-0.545123 0.25467,-0.09274 0.86296,-0.513485 1.35176,-0.934978 0.48881,-0.421493 1.05435,-0.702798 1.25677,-0.625123 0.20242,0.07768 0.36804,-0.01452 0.36804,-0.204874 0,-0.375997 1.07432,-0.954864 1.79838,-0.969009 0.35598,-0.007 0.3117,-0.118037 -0.21088,-0.529074 -0.36381,-0.28615 -0.78967,-0.624808 -0.94637,-0.752575 -0.42949,-0.350194 -1.11037,-0.522832 -3.24523,-0.822827 -1.9135,-0.26889 -1.96647,-0.260282 -3.53152,0.573881 -0.89235,0.475613 -1.68641,1.103384 -1.81136,1.432013 -0.25042,0.658668 -0.78428,1.090457 -0.78428,0.634336 0,-0.174631 -0.21269,-0.230522 -0.51369,-0.134987 -0.41281,0.13102 -0.50579,0.04359 -0.47344,-0.445191 0.0221,-0.334528 0.22336,-0.747326 0.44714,-0.917329 0.22378,-0.170003 0.31776,-0.398206 0.20885,-0.507118 -0.10892,-0.108912 -0.19802,-0.05911 -0.19802,0.110659 0,0.169774 -0.12133,0.308681 -0.26963,0.308681 -0.1566,0 -0.19893,-0.281658 -0.10099,-0.671893 0.11778,-0.469291 0.068,-0.6488 -0.16497,-0.595312 -0.21232,0.04874 -0.33121,-0.211987 -0.32701,-0.71717 0.01,-1.168902 0.37081,-3.034584 0.61675,-3.186583 0.30308,-0.187313 0.23887,0.955425 -0.0936,1.66483 -0.35642,0.760644 0.0127,1.160811 0.42538,0.461215 0.45399,-0.769531 0.71089,-2.100458 0.42517,-2.202657 -0.35882,-0.128344 -0.30201,-0.775271 0.0793,-0.902355 0.69066,-0.230222 -2.37612,-0.997809 -5.14489,-1.287715 -2.10818,-0.220739 -3.52864,-0.226611 -5.19301,-0.02147 -1.26007,0.155312 -2.93358,0.283452 -3.71891,0.284757 -0.78532,0.0013 -1.55328,0.127784 -1.70656,0.281068 -0.19521,0.19521 -0.0958,0.278699 0.33169,0.278699 0.41507,0 0.56482,0.118768 0.46797,0.371158 -0.0783,0.204137 0.009,0.577977 0.19364,0.830757 0.26763,0.366012 0.43903,0.399826 0.84172,0.166055 0.28542,-0.165693 0.35481,-0.29705 0.15931,-0.301591 -0.19049,-0.0044 -0.27276,-0.127108 -0.18282,-0.272629 0.23026,-0.372568 0.6615,-0.329429 0.66123,0.06615 -1.5e-4,0.227196 0.41555,0.315383 1.32795,0.281707 0.7305,-0.02696 1.26438,0.05421 1.1864,0.180381 -0.078,0.126172 0.18765,0.06583 0.59028,-0.134082 0.42409,-0.210573 1.17728,-0.311586 1.79039,-0.240116 0.58208,0.06785 1.63915,0.113902 2.34903,0.102331 1.08518,-0.01769 1.26453,0.04714 1.12639,0.407118 -0.12721,0.331503 0.02,0.296944 0.65198,-0.153087 0.62986,-0.448499 0.73517,-0.636206 0.46111,-0.821906 -0.25017,-0.169512 -0.15962,-0.217706 0.30628,-0.163014 0.55914,0.06564 0.66523,0.220903 0.68584,1.003689 0.0134,0.509323 0.10046,2.176198 0.19346,3.704167 0.10611,1.743552 0.0793,2.581063 -0.0719,2.248958 -0.13256,-0.291042 -0.24938,-1.396107 -0.25961,-2.4557 -0.0152,-1.574949 -0.10309,-1.961232 -0.48161,-2.116667 -0.4489,-0.184334 -2.79879,-0.225958 -4.96094,-0.08787 -0.58208,0.03717 -1.82203,-0.05364 -2.75544,-0.20182 -2.53217,-0.401972 -2.66387,-0.270503 -2.61908,2.614477 l 0.0368,2.370765 0.88111,0.599868 c 1.03364,0.703711 1.21311,1.272767 0.18998,0.60239 -0.77304,-0.506519 -1.14554,-0.243128 -1.15329,0.815493 -0.005,0.712625 2.04164,1.444722 2.40328,0.859578 0.11906,-0.19264 0.10236,-0.464358 -0.0371,-0.603819 -0.13946,-0.139461 -0.25092,-0.378582 -0.24768,-0.531379 0.003,-0.152796 0.24044,0.01984 0.52712,0.383646 l 0.52123,0.661459 -0.16843,-0.926042 c -0.0926,-0.509323 -0.39883,-1.386305 -0.68041,-1.948848 -0.35225,-0.703719 -0.45103,-1.240248 -0.31663,-1.719792 0.10744,-0.383342 0.1738,-0.876645 0.14746,-1.09623 -0.0379,-0.316104 0.20128,-0.379429 1.14857,-0.304087 1.09979,0.08747 1.19893,0.04491 1.22715,-0.526797 0.0221,-0.448381 0.0645,-0.492736 0.15169,-0.158934 0.18467,0.706678 2.0879,0.651354 2.27553,-0.06614 0.0761,-0.291042 0.26564,-0.529167 0.42118,-0.529167 0.18987,0 0.20278,0.210493 0.0393,0.640532 -0.20217,0.531765 -0.13601,0.710979 0.38963,1.055393 0.34823,0.228173 0.69365,0.316972 0.76759,0.197332 0.18432,-0.298237 1.74524,-0.04523 1.74524,0.282885 0,0.158415 -0.37036,0.194519 -0.92604,0.09027 -0.92642,-0.173797 -1.16871,0.03092 -0.65024,0.549382 0.19134,0.19134 0.15082,0.379511 -0.1323,0.61448 -0.34804,0.288851 -0.40931,0.246326 -0.4164,-0.289026 -0.016,-1.208775 -2.29571,-2.121805 -3.2729,-1.310811 -0.29681,0.246335 -0.52389,0.250822 -0.95721,0.01891 -0.46037,-0.24638 -0.66426,-0.216999 -1.07525,0.154938 -0.95025,0.859968 -0.52633,2.456607 0.67024,2.524315 0.44631,0.02525 0.46037,0.05213 0.0794,0.151692 -0.70536,0.18433 -0.59585,1.56093 0.18641,2.343185 0.69429,0.694291 2.24394,0.91066 2.28257,0.318702 0.0119,-0.181901 0.1908,0.05622 0.39763,0.529167 0.34041,0.778391 0.48382,0.859896 1.513,0.859896 0.62532,0 1.30385,-0.148828 1.50784,-0.330729 0.29727,-0.265088 0.29528,-0.23153 -0.01,0.169075 -0.20949,0.274893 -0.36639,0.782717 -0.34865,1.1285 0.0251,0.489399 0.006,0.51056 -0.0878,0.09551 -0.11578,-0.514349 -0.24569,-0.553523 -2.13373,-0.64343 -0.32272,-0.01537 -0.46302,0.177261 -0.46302,0.635675 0,0.645292 0.0399,0.657794 2.11044,0.661458 l 2.11044,0.0037 -0.0755,-1.059434 c -0.0415,-0.582688 0.0387,-1.356594 0.17822,-1.719791 0.17024,-0.443149 0.23825,1.67309 0.20676,6.433758 -0.0483,7.305662 0.0279,7.877514 1.00058,7.504274 0.20809,-0.07985 0.44399,0.0259 0.52423,0.234982 0.0802,0.209092 0.01,0.380169 -0.15669,0.380169 -0.16641,0 -0.0734,0.23105 0.20674,0.513443 0.63911,0.644289 0.68251,0.65034 0.58706,0.08187 z m -0.84955,-5.85147 c -0.11397,-0.184414 -0.13577,-0.406752 -0.0484,-0.494085 0.23679,-0.236792 0.49497,0.111469 0.36708,0.495154 -0.0896,0.268862 -0.15194,0.268653 -0.31864,-0.0011 z m 0.14259,-0.80373 c -0.20054,-0.127024 -0.27924,-0.369107 -0.17488,-0.537961 0.14377,-0.232627 0.2802,-0.231945 0.56307,0.0028 0.6975,0.578877 0.37745,1.020096 -0.38819,0.535147 z m -0.69104,-4.527762 c 0.0914,-0.147894 0.27703,-0.2004 0.41249,-0.116676 0.36699,0.226809 0.29856,0.385575 -0.16619,0.385575 -0.22686,0 -0.3377,-0.121004 -0.2463,-0.268899 z m -5.34352,-5.037314 c -1.19554,-0.847064 -1.54346,-1.520053 -1.42874,-2.763579 0.0876,-0.949217 0.10867,-0.978172 0.58017,-0.796369 0.20272,0.07817 0.38142,0.500594 0.39709,0.93872 0.0382,1.066768 0.26037,1.228034 0.89755,0.651399 0.59546,-0.538886 1.04278,-0.354291 0.55773,0.230158 -0.2421,0.29172 -0.22484,0.461817 0.0776,0.764236 0.23885,0.238845 0.29435,0.483651 0.14379,0.63421 -0.29551,0.295512 1.19556,0.291414 2.06517,-0.0057 0.89245,-0.304895 0.89104,-1.519371 -0.003,-2.482825 -0.3038,-0.327421 -0.42066,-0.595312 -0.25968,-0.595312 0.56629,0 1.37434,1.497217 1.33746,2.478155 -0.0325,0.865453 -0.12979,0.986243 -0.98544,1.22393 -1.22016,0.338945 -1.4188,0.333575 -1.19271,-0.03224 0.11314,-0.183066 0.0423,-0.247154 -0.18282,-0.165365 -0.20216,0.07345 -0.33779,0.267489 -0.30141,0.4312 0.11253,0.506398 -0.5462,0.30886 -1.70284,-0.51064 z m 10.01921,-2.234412 c 0.16576,-0.363802 0.40408,-0.661458 0.5296,-0.661458 0.12551,0 0.0332,0.297656 -0.2052,0.661458 -0.23837,0.363802 -0.47669,0.661458 -0.52959,0.661458 -0.0529,0 0.0394,-0.297656 0.20519,-0.661458 z m -15.2199,-3.955275 c -0.0983,-0.256255 -0.02,-0.334611 0.23627,-0.236277 0.4185,0.160594 0.5275,0.619677 0.14713,0.619677 -0.12996,0 -0.30249,-0.17253 -0.3834,-0.3834 z m 11.3353,-2.527017 c -0.0899,-0.145521 0.0291,-0.264583 0.26458,-0.264583 0.23546,0 0.35452,0.119062 0.26458,0.264583 -0.0899,0.145521 -0.209,0.264583 -0.26458,0.264583 -0.0556,0 -0.17465,-0.119062 -0.26458,-0.264583 z m -3.90261,-0.439812 c 0.1819,-0.0734 0.47956,-0.0734 0.66146,0 0.1819,0.0734 0.0331,0.133452 -0.33073,0.133452 -0.3638,0 -0.51263,-0.06005 -0.33073,-0.133452 z m 9.23414,25.451412 c -0.23522,-0.612984 0.21805,-0.694878 0.7041,-0.127211 0.58883,0.687702 1.13023,0.649848 1.9139,-0.133821 0.76435,-0.764358 0.79262,-1.002734 0.22213,-1.873417 -0.3971,-0.606039 -1.12647,-0.975141 -0.76217,-0.385699 0.0906,0.14655 -0.0512,0.347067 -0.31511,0.445598 -0.26389,0.09853 -0.63538,0.395346 -0.82553,0.65959 -0.4689,0.6516 -1.10947,0.608195 -1.10947,-0.07518 0,-0.626271 1.69028,-2.452823 2.1332,-2.305182 0.15825,0.05275 0.27358,0.188682 0.25628,0.302069 -0.0173,0.113387 0.24167,0.428284 0.57547,0.699767 0.5542,0.450731 0.64714,0.457415 1.06994,0.07695 0.56001,-0.503933 0.59678,-1.373502 0.0875,-2.069944 -0.3357,-0.459094 -0.46884,-0.478287 -1.25619,-0.181099 -0.56509,0.213302 -0.9125,0.236979 -0.96946,0.06608 -0.17009,-0.51026 -1.09088,-0.260842 -2.0072,0.5437 -1.05107,0.922854 -1.38936,1.700745 -0.96301,2.21446 0.22076,0.266006 0.19348,0.391543 -0.11044,0.508166 -0.59485,0.228267 -0.49067,1.13886 0.18442,1.611702 0.74749,0.523568 1.36829,0.536009 1.17161,0.02347 z m -22.56288,-2.111978 c 1.34167,-0.282292 1.62469,-0.475123 1.68816,-1.150205 0.037,-0.393274 0.0965,-0.893635 0.13229,-1.111916 0.0358,-0.218282 -0.054,-0.400394 -0.19952,-0.404694 -0.14552,-0.0043 -0.23444,0.123423 -0.19761,0.283829 0.0368,0.160407 -0.22245,0.563555 -0.5762,0.895882 -0.37518,0.352467 -0.58562,0.785421 -0.50504,1.039085 0.1163,0.366112 0.0948,0.373518 -0.13626,0.04686 -0.15093,-0.213402 -0.17839,-0.511059 -0.061,-0.661458 0.25879,-0.33165 0.2692,-1.199499 0.0144,-1.199499 -0.10061,0 -0.49565,0.602752 -0.87786,1.339447 -0.67133,1.293964 -0.67599,1.333437 -0.13714,1.162413 0.30679,-0.09737 0.6919,-0.205253 0.85581,-0.239739 z m 21.86337,-2.396342 c 0.61201,-0.651449 0.61403,-0.670883 0.11227,-1.079931 -0.45885,-0.374071 -0.46234,-0.401164 -0.0342,-0.265687 0.29634,0.09377 0.41137,0.04505 0.30396,-0.12873 -0.095,-0.153773 -0.33174,-0.218594 -0.52602,-0.144045 -0.19427,0.07455 -0.65016,-0.09802 -1.01308,-0.383495 -0.40545,-0.318926 -0.72401,-0.415234 -0.82625,-0.249798 -0.0915,0.148082 -0.4868,0.27864 -0.87839,0.290129 -0.3916,0.01148 -0.56242,0.08119 -0.37961,0.154889 0.18281,0.0737 0.26825,0.23776 0.18987,0.364578 -0.16105,0.260588 1.70507,2.087287 2.14361,2.098318 0.15654,0.0039 0.56506,-0.291365 0.90783,-0.656228 z m -23.41744,-2.050224 c 0.58208,-0.295508 1.23693,-0.739701 1.45521,-0.987092 0.21828,-0.247393 0.57547,-0.518573 0.79375,-0.60262 0.3453,-0.132959 0.34371,-0.15553 -0.0123,-0.173705 -0.53349,-0.02724 -0.52398,-1.275117 0.0123,-1.614043 0.30984,-0.19582 0.2463,-0.251714 -0.28972,-0.254878 -0.69797,-0.0041 -1.45003,0.608002 -1.60767,1.308526 -0.14859,0.660302 -0.84723,1.43714 -2.73282,3.038724 l -0.79375,0.674195 1.05833,-0.425908 c 0.58209,-0.234251 1.53459,-0.667689 2.11667,-0.963199 z m -0.39687,-0.461389 c 0,-0.145521 0.26789,-0.26276 0.59531,-0.260532 0.48139,0.0033 0.51936,0.05313 0.19844,0.260532 -0.51297,0.331502 -0.79375,0.331502 -0.79375,0 z m 11.88765,-0.610928 c 0.0102,-0.117729 -0.10047,-0.140467 -0.24599,-0.05053 -0.14552,0.08994 -0.25621,0.424386 -0.24599,0.74322 0.0179,0.558895 0.0268,0.56071 0.24599,0.05053 0.12507,-0.291042 0.23576,-0.625491 0.24599,-0.74322 z m -4.0163,-0.38975 c 0.67358,-0.862272 0.39994,-1.115989 -1.20364,-1.115989 h -1.53437 l 0.11021,0.944052 0.11021,0.944052 1.09343,-0.174368 c 0.60139,-0.0959 1.24226,-0.36489 1.42416,-0.597747 z m -4.47852,-1.20406 c 0.0613,-0.315886 -0.089,-0.432383 -0.52916,-0.410404 -0.47044,0.02349 -0.50275,0.05973 -0.13765,0.154398 0.40177,0.10418 0.42266,0.189653 0.1323,0.541502 -0.28888,0.350059 -0.28044,0.396541 0.0521,0.286699 0.21828,-0.0721 0.43537,-0.329591 0.48242,-0.572195 z m 11.02696,-0.493202 c 0.49613,0.06279 0.49925,0.04861 0.0501,-0.227182 -0.53071,-0.325853 -1.2407,-0.161846 -1.2407,0.286599 0,0.165053 0.14152,0.199737 0.33073,0.08105 0.1819,-0.114099 0.56885,-0.17731 0.85989,-0.140472 z m 1.45521,-0.212477 c 0,-0.14552 -0.12609,-0.264583 -0.2802,-0.264583 -0.15411,0 -0.20662,0.119063 -0.11668,0.264583 0.0899,0.145521 0.21603,0.264584 0.2802,0.264584 0.0642,0 0.11668,-0.119063 0.11668,-0.264584 z m 1.32291,0.02342 c 0,-0.268991 -0.67651,-0.228838 -0.96248,0.05713 -0.10122,0.101222 0.0739,0.184042 0.38922,0.184042 0.31529,0 0.57326,-0.108527 0.57326,-0.241173 z m 6.27835,0.08132 c -0.0879,-0.08792 -0.31612,-0.09732 -0.50712,-0.02088 -0.21107,0.08446 -0.14837,0.147156 0.15985,0.159851 0.27892,0.01148 0.43519,-0.05104 0.34727,-0.138965 z m 0.6965,-0.237027 c -0.15399,-0.401312 0.19512,-0.547047 0.5236,-0.218573 0.3295,0.329499 1.62437,0.27939 2.21952,-0.08589 0.32441,-0.199109 0.88153,-0.386159 1.23805,-0.415665 0.35652,-0.02951 0.62687,-0.177205 0.60079,-0.328219 -0.0261,-0.151013 0.14109,-0.261342 0.37149,-0.245173 0.23041,0.01617 0.42459,-0.102894 0.43151,-0.264583 0.007,-0.16169 0.099,-0.502341 0.2047,-0.757002 0.11527,-0.277823 0.075,-0.463021 -0.10078,-0.463021 -0.16109,0 -0.29289,0.142875 -0.29289,0.3175 0,0.24335 -0.0757,0.241808 -0.3241,-0.0066 -0.25575,-0.25575 -0.25528,-0.434314 0.002,-0.846667 0.24151,-0.386712 0.24632,-0.522563 0.0185,-0.522563 -0.17703,0 -0.10435,-0.224841 0.17106,-0.529167 0.43066,-0.475876 0.43479,-0.529166 0.041,-0.529166 -0.24072,0 -0.43777,-0.119063 -0.43777,-0.264583 0,-0.145521 0.32147,-0.264584 0.71438,-0.264584 0.50495,0 0.63184,-0.08254 0.43282,-0.281552 -0.15485,-0.154855 -0.80374,-0.244151 -1.44198,-0.198438 -1.02629,0.07351 -1.16506,0.159576 -1.2005,0.744574 -0.022,0.363802 -0.0518,0.853307 -0.0661,1.087789 -0.0187,0.30606 -0.23134,0.40107 -0.75368,0.336789 l -0.72761,-0.08954 0.72761,0.309599 c 0.40018,0.17028 0.7276,0.467629 0.7276,0.660776 0,0.259224 -0.28275,0.206929 -1.07984,-0.199718 -0.86604,-0.44182 -1.35099,-0.517018 -2.44931,-0.379792 -1.14957,0.143629 -1.48207,0.08253 -2.07074,-0.380524 -0.93532,-0.735719 -1.01469,-0.706429 -1.01469,0.374414 v 0.926042 l 1.38906,0.02637 c 1.30085,0.0247 3.03248,0.38255 2.4474,0.505767 -0.14552,0.03065 -1.06826,0.03183 -2.05053,0.0026 -1.50944,-0.04488 -1.78593,0.01495 -1.78593,0.386427 0,0.77302 0.70338,1.262457 1.33133,0.926386 0.30255,-0.161917 0.69231,-0.236543 0.86615,-0.165833 0.18388,0.0748 0.13597,0.137297 -0.11456,0.14945 -0.48111,0.02334 -1.26754,0.814639 -0.80963,0.814639 0.15387,0 0.60717,-0.124482 1.00733,-0.276622 0.58287,-0.221607 0.77309,-0.195295 0.95642,0.132291 0.29286,0.523314 0.49759,0.53158 0.29822,0.01204 z m 0.80844,-1.948892 c 0.13172,-0.21314 1.47713,-0.09687 1.47713,0.127654 0,0.0558 -0.36421,0.101446 -0.80936,0.101446 -0.44515,0 -0.74565,-0.103095 -0.66777,-0.2291 z m 1.87401,-0.03548 c 0.0899,-0.145521 0.21603,-0.264584 0.2802,-0.264584 0.0642,0 0.11667,0.119063 0.11667,0.264584 0,0.145521 -0.12609,0.264583 -0.2802,0.264583 -0.1541,0 -0.20661,-0.119062 -0.11667,-0.264583 z m 2.77812,1.688933 c 0,-0.05579 -0.30468,-0.101433 -0.67707,-0.101433 -0.37239,0 -0.6104,0.107884 -0.5289,0.239744 0.13555,0.219334 1.20597,0.09657 1.20597,-0.138311 z m -12.96458,-0.505213 c 0,-0.190235 0.14882,-0.399034 0.33072,-0.463997 0.62375,-0.222766 0.0642,-0.403135 -1.78593,-0.575718 -1.54441,-0.144063 -1.7823,-0.115432 -1.43199,0.172342 0.50434,0.414306 0.36891,0.993005 -0.24371,1.041392 -0.24253,0.01916 -0.0242,0.108717 0.48507,0.199025 1.29761,0.230079 2.64584,0.03999 2.64584,-0.373044 z m -2.91042,-0.389977 c 0,-0.145521 -0.11906,-0.264584 -0.26458,-0.264584 -0.14553,0 -0.26459,0.119063 -0.26459,0.264584 0,0.145521 0.11906,0.264583 0.26459,0.264583 0.14552,0 0.26458,-0.119062 0.26458,-0.264583 z m 6.08542,-1.184192 c 0,-0.197566 0.14014,-0.405925 0.31142,-0.463021 0.17129,-0.05709 0.22453,-0.244425 0.11831,-0.416289 -0.2555,-0.413407 -0.94823,0.19594 -0.76515,0.673046 0.0701,0.182667 -0.0114,0.332122 -0.18106,0.332122 -0.16968,0 -0.23372,0.121005 -0.14232,0.268899 0.21232,0.343527 0.6588,0.07599 0.6588,-0.394757 z m 11.50778,0.02957 c 0.33532,0.128673 0.42616,0.09056 0.29397,-0.12333 -0.10522,-0.170251 -0.0751,-0.309546 0.0668,-0.309546 0.14198,0 0.30352,0.136136 0.35899,0.302524 0.0736,0.22091 0.27288,0.210453 0.73854,-0.03876 0.5737,-0.307032 0.87691,-0.379552 2.06788,-0.494576 0.7977,-0.07704 -0.48299,-0.828531 -1.4552,-0.85389 -0.89551,-0.02336 -0.93548,-0.05059 -0.34963,-0.23821 0.59414,-0.190279 0.56207,-0.21452 -0.31512,-0.23821 -0.96473,-0.02605 -1.75079,0.478153 -0.82498,0.529167 0.33907,0.01868 0.28576,0.08815 -0.18282,0.23821 -0.3638,0.116509 -0.5056,0.223704 -0.31511,0.238209 0.19049,0.0145 0.2708,0.148594 0.17848,0.297974 -0.0923,0.14938 -0.36292,0.238677 -0.60134,0.198438 -0.26059,-0.04398 -0.46935,0.137882 -0.52343,0.456004 -0.0632,0.371612 -0.0204,0.428027 0.14385,0.189476 0.13906,-0.202027 0.43048,-0.264225 0.71908,-0.153475 z m 2.18441,-1.137271 c 0.1819,-0.0734 0.47955,-0.0734 0.66146,0 0.1819,0.0734 0.0331,0.133452 -0.33073,0.133452 -0.36381,0 -0.51263,-0.06005 -0.33073,-0.133452 z m -27.71511,0.439811 c 0,-0.14552 -0.12609,-0.264583 -0.2802,-0.264583 -0.15411,0 -0.20661,0.119063 -0.11668,0.264583 0.0899,0.145521 0.21603,0.264584 0.2802,0.264584 0.0642,0 0.11668,-0.119063 0.11668,-0.264584 z m 36.6991,-1.918229 c -0.26877,-2.670527 -0.84839,-4.009524 -1.7741,-4.098406 -0.65181,-0.06258 -0.65278,-0.05981 -0.0661,0.189912 0.87242,0.371387 0.72585,0.601619 -0.26459,0.415606 l -0.85989,-0.161496 0.82813,0.378929 c 0.45548,0.208411 0.90898,0.509749 1.0078,0.66964 0.25334,0.409912 -0.0271,0.361225 -0.78691,-0.136594 -0.74439,-0.487741 -0.88782,-0.221078 -0.18913,0.351612 0.27857,0.228327 0.30492,0.302004 0.0662,0.184941 -0.21828,-0.107017 -0.0992,0.148441 0.26458,0.567686 0.36381,0.419243 0.4531,0.602457 0.19844,0.407142 -0.25466,-0.195316 -0.46302,-0.247971 -0.46302,-0.117011 0,0.427969 0.82424,1.426572 1.05815,1.282004 0.12551,-0.07757 0.31436,-0.0016 0.41966,0.168746 0.11957,0.19347 0.0768,0.238898 -0.11401,0.120992 -0.42405,-0.262078 -0.38149,0.0096 0.12184,0.777794 0.75699,1.155309 -0.0437,0.692967 -0.92488,-0.534055 -0.86278,-1.201397 -1.32923,-1.386266 -1.6801,-0.665879 -0.10632,0.218281 -0.12002,-0.185625 -0.0305,-0.897569 0.11634,-0.924753 0.078,-1.241978 -0.13439,-1.110738 -0.18729,0.115751 -0.24124,0.03776 -0.14585,-0.21084 0.0833,-0.217 0.0468,-0.581552 -0.0812,-0.810116 -0.38694,-0.691423 -1.17902,0.101577 -1.21049,1.211899 -0.0513,1.807869 0.47389,2.504501 2.54932,3.381844 1.04069,0.43993 2.01334,0.803675 2.16144,0.808321 0.17876,0.0056 0.19544,-0.725336 0.0496,-2.174364 z m -2.44643,0.842293 c -0.28477,-0.460757 0.0396,-0.558335 0.40244,-0.121083 0.20869,0.251456 0.22877,0.403269 0.0533,0.403269 -0.15475,0 -0.35984,-0.126984 -0.45576,-0.282186 z m -1.91212,-2.62823 c 0,-0.509323 0.0545,-0.717683 0.12101,-0.463021 0.0665,0.254661 0.0665,0.67138 0,0.926041 -0.0666,0.254662 -0.12101,0.0463 -0.12101,-0.46302 z m -35.90238,3.191261 c -0.0844,-0.136577 0.0574,-0.383692 0.31512,-0.549144 0.44114,-0.283202 0.44006,-0.291853 -0.0183,-0.147695 -0.80994,0.254722 -1.09567,-0.147119 -0.45061,-0.633695 l 0.58969,-0.444804 -0.71091,-0.465806 c -0.44226,-0.289783 -0.95145,-0.405435 -1.34745,-0.306046 -0.53192,0.133504 -0.63653,0.324172 -0.63653,1.160136 0,0.550207 0.14287,1.143251 0.3175,1.317876 0.37157,0.37157 2.16795,0.435577 1.94151,0.06918 z m 10.3087,-0.280845 c -0.0899,-0.14552 -0.36485,-0.26276 -0.61092,-0.260531 -0.38557,0.0035 -0.39256,0.0395 -0.0505,0.260531 0.51815,0.334856 0.86841,0.334856 0.66145,0 z m -4.10104,-0.956886 c 0,-0.0558 -0.29765,-0.101447 -0.66146,-0.101447 -0.3638,0 -0.66145,0.102552 -0.66145,0.227893 0,0.125341 0.29765,0.170993 0.66145,0.101447 0.36381,-0.06955 0.66146,-0.172097 0.66146,-0.227893 z m 14.29948,-0.528846 c -0.50796,-0.427417 -0.91325,-0.572977 -1.24277,-0.446342 -0.43124,0.165721 -0.41086,0.207753 0.17246,0.355815 0.3638,0.09234 0.64166,0.276418 0.61747,0.409057 -0.0242,0.132638 0.2374,0.257939 0.58132,0.278445 0.61659,0.03677 0.61481,0.02846 -0.12848,-0.596975 z m 1.00281,-0.06926 c 0.42907,-0.271979 0.39692,-0.554192 -0.12938,-1.13575 -0.36891,-0.407645 -0.43848,-0.408667 -0.90031,-0.01324 -0.46403,0.397315 -0.4691,0.463253 -0.0695,0.9048 0.48509,0.53602 0.59891,0.561305 1.09919,0.244185 z m -21.25729,-0.823229 c 0.0927,-0.149982 -0.0135,-0.194338 -0.24896,-0.103984 -0.45837,0.175892 -0.54224,0.365537 -0.16165,0.365537 0.13693,0 0.32171,-0.117699 0.41061,-0.261553 z m 30.79707,-0.959137 c 1.1946,-1.269452 1.27722,-1.718342 0.6821,-3.706074 -0.12084,-0.403588 0.0615,-0.822583 0.64958,-1.492313 0.99209,-1.129937 0.80983,-1.25384 -1.84441,-1.25384 -2.1748,0 -2.36892,0.214885 -2.36892,2.62234 0,1.419624 0.0752,1.648082 0.67123,2.038601 0.77664,0.508874 0.7338,0.953129 -0.11115,1.152594 -0.32522,0.07677 -0.58428,0.228887 -0.57569,0.338027 0.009,0.109141 0.0156,0.427833 0.0156,0.708204 0,0.479472 0.39387,0.711282 1.32948,0.782459 0.2219,0.01688 0.92037,-0.518619 1.55216,-1.189998 z m 12.1996,0.956106 c 0,-0.145521 -0.12609,-0.264583 -0.2802,-0.264583 -0.1541,0 -0.20661,0.119062 -0.11667,0.264583 0.0899,0.145521 0.21603,0.264584 0.2802,0.264584 0.0642,0 0.11667,-0.119063 0.11667,-0.264584 z m 1.05834,0 c 0,-0.145521 -0.20836,-0.26276 -0.46302,-0.260531 -0.3957,0.0035 -0.40532,0.04134 -0.0662,0.260531 0.49932,0.322689 0.52917,0.322689 0.52917,0 z M 212.92935,27.12058 c 0,-0.145521 -0.0525,-0.264583 -0.11667,-0.264583 -0.0642,0 -0.19026,0.119062 -0.2802,0.264583 -0.0899,0.145521 -0.0374,0.264583 0.11667,0.264583 0.15411,0 0.2802,-0.119062 0.2802,-0.264583 z m -26.89093,-1.091747 c -0.46527,-0.182902 -0.46323,-0.195519 0.0357,-0.220988 0.52744,-0.02692 0.52746,-0.02831 0.004,-0.423976 -0.51917,-0.392391 -0.51841,-0.398746 0.0662,-0.551611 0.77965,-0.203882 0.75907,-0.622095 -0.0306,-0.622095 -0.34208,0 -1.0034,-0.132966 -1.46959,-0.295481 -0.72751,-0.25361 -0.89809,-0.226449 -1.20384,0.191678 -0.21282,0.291047 -0.30446,0.862668 -0.22764,1.41996 0.21995,1.595683 0.17906,1.570537 1.81392,1.115499 1.14212,-0.317894 1.38632,-0.465819 1.01195,-0.612986 z m 44.20183,0.435969 c -0.57202,-0.432758 -1.82019,-0.545723 -1.57078,-0.142162 0.17059,0.276017 1.77614,0.784434 1.96765,0.623078 0.0621,-0.05235 -0.11645,-0.268766 -0.39687,-0.480916 z m -1.311,-0.955201 c -0.76753,-0.299957 -0.91865,-0.280369 -0.91865,0.11908 0,0.249362 0.2216,0.317824 0.72021,0.222509 0.64659,-0.123603 0.66687,-0.158522 0.19844,-0.341589 z m -24.20198,-1.416115 c 0,-0.06417 -0.11907,-0.190261 -0.26459,-0.280198 -0.14552,-0.08994 -0.26458,-0.03743 -0.26458,0.116677 0,0.154109 0.11906,0.280198 0.26458,0.280198 0.14552,0 0.26459,-0.0525 0.26459,-0.116677 z m 19.21914,-0.280818 c 0.0884,-0.23034 -0.10981,-0.628237 -0.47132,-0.9462 -0.34313,-0.301787 -0.44527,-0.461992 -0.22699,-0.35601 0.21828,0.105981 0.60524,0.371631 0.8599,0.590332 0.41456,0.356017 0.51869,0.347257 0.99488,-0.08369 0.52694,-0.476875 0.5218,-0.487041 -0.55618,-1.09934 -0.59841,-0.339908 -1.16587,-0.618014 -1.26102,-0.618014 -0.0951,0 -0.33559,0.367353 -0.53433,0.81634 -0.27426,0.619582 -0.29119,0.970325 -0.0703,1.455209 0.32559,0.714597 1.03202,0.849354 1.26532,0.241372 z m 4.25712,0.237643 c -0.0879,-0.08792 -0.31612,-0.09732 -0.50712,-0.02089 -0.21107,0.08446 -0.14837,0.147157 0.15985,0.159852 0.27892,0.01149 0.43519,-0.05105 0.34727,-0.138964 z m -38.90594,-0.683507 c -0.0845,-0.211067 -0.14716,-0.148372 -0.15985,0.159852 -0.0115,0.278915 0.0511,0.435185 0.13896,0.347266 0.0879,-0.08792 0.0973,-0.316122 0.0209,-0.507118 z m 38.18385,0.314193 c 0.21828,-0.141065 0.27781,-0.256481 0.13229,-0.256481 -0.14552,0 -0.44318,0.115416 -0.66146,0.256481 -0.21828,0.141064 -0.27781,0.25648 -0.13229,0.25648 0.14552,0 0.44318,-0.115416 0.66146,-0.25648 z m -40.94428,-0.511311 c 0.10914,-0.0098 0.19844,-0.311323 0.19844,-0.670005 0,-1.350533 -2.04615,-1.616236 -2.49863,-0.32446 -0.31709,0.905271 0.11553,1.27479 1.308,1.117211 0.43657,-0.05769 0.88305,-0.112925 0.99219,-0.122746 z m 17.13177,0.13005 c 0,-0.06417 -0.11906,-0.190261 -0.26458,-0.280198 -0.14552,-0.08994 -0.26458,-0.03743 -0.26458,0.116677 0,0.154109 0.11906,0.280198 0.26458,0.280198 0.14552,0 0.26458,-0.0525 0.26458,-0.116677 z m 0.13229,-0.941656 c 0.0899,-0.145521 -0.0221,-0.264583 -0.24896,-0.264583 -0.22687,0 -0.41249,0.119062 -0.41249,0.264583 0,0.145521 0.11203,0.264583 0.24896,0.264583 0.13694,0 0.32256,-0.119062 0.41249,-0.264583 z m 3.48634,-0.595313 c 0.73712,-0.818906 0.94574,-1.519366 0.58276,-1.956727 -0.23578,-0.284092 -0.20657,-0.4778 0.12773,-0.847194 0.23836,-0.26339 0.426,-0.707641 0.41697,-0.987225 -0.01,-0.302397 -0.23794,-0.02598 -0.56323,0.682292 -0.30075,0.654844 -0.65325,1.401686 -0.78333,1.65965 -0.17039,0.337917 -0.1207,0.513466 0.17778,0.628004 0.37031,0.1421 0.36659,0.211686 -0.035,0.655453 -0.48964,0.541047 -1.04377,0.684293 -0.7389,0.191013 0.1179,-0.190775 0.0725,-0.233581 -0.12099,-0.11401 -0.31461,0.194435 -0.17323,0.684057 0.19751,0.684057 0.11156,0 0.44398,-0.267891 0.73871,-0.595313 z m 0.35607,-3.796681 c 0.29815,-1.321931 0.13589,-1.461768 -0.29939,-0.258023 -0.18811,0.520218 -0.43343,0.94585 -0.54515,0.94585 -0.11172,0 -0.13152,0.186597 -0.044,0.41466 0.22721,0.592103 0.61483,0.111156 0.88855,-1.102487 z m 13.15157,1.321725 c -0.0879,-0.08792 -0.31613,-0.09732 -0.50712,-0.02089 -0.21107,0.08446 -0.14838,0.147157 0.15985,0.159852 0.27891,0.01149 0.43518,-0.05105 0.34727,-0.138964 z m -4.55856,-0.369315 c -0.0899,-0.14552 -0.30532,-0.26276 -0.47863,-0.260531 -0.18934,0.0024 -0.15671,0.106422 0.0818,0.260531 0.5083,0.328487 0.59989,0.328487 0.39687,0 z m -33.46048,-0.511772 c -0.42191,-0.788347 -0.33403,-0.862744 0.42875,-0.362952 0.47232,0.309473 0.66518,0.347987 0.58835,0.117491 -0.14906,-0.447177 -1.4837,-1.254923 -1.70608,-1.032545 -0.20803,0.208031 0.45794,1.789778 0.75357,1.789778 0.11511,0 0.086,-0.230297 -0.0646,-0.511772 z m 38.63725,-1.878787 c 0.28148,-0.15064 0.51178,-0.409156 0.51178,-0.574479 0,-0.165322 0.19959,-0.521134 0.44354,-0.790692 0.91571,-1.011853 -1.13415,-1.484162 -2.76999,-0.638235 -1.44741,0.748488 -1.14569,0.895356 0.77896,0.379163 2.00749,-0.538412 2.73736,-0.491695 1.17042,0.07491 -1.05816,0.382634 -1.24436,0.764887 -0.37259,0.764887 0.95135,0 0.36402,0.279282 -0.71538,0.340172 -1.2477,0.07038 -1.60102,0.718162 -0.3917,0.718162 0.45826,0 1.06349,-0.123252 1.34496,-0.273893 z M 185.69815,161.37458 c 0.0127,-0.30822 0.0754,-0.37092 0.15986,-0.15985 0.0764,0.19099 0.067,0.4192 -0.0209,0.50712 -0.0879,0.0879 -0.15046,-0.0684 -0.13897,-0.34727 z m 0,-40.48125 c 0.0127,-0.30823 0.0754,-0.37092 0.15986,-0.15985 0.0764,0.19099 0.067,0.4192 -0.0209,0.50712 -0.0879,0.0879 -0.15046,-0.0684 -0.13897,-0.34727 z m 0.2437,-17.83733 c -0.23847,-0.15411 -0.2711,-0.2581 -0.0818,-0.26053 0.17331,-0.002 0.3887,0.11501 0.47863,0.26053 0.20302,0.32849 0.11143,0.32849 -0.39687,0 z m 3.48136,-48.947919 c 0,-0.363803 0.06,-0.512631 0.13345,-0.33073 0.0734,0.181901 0.0734,0.479558 0,0.661459 -0.0734,0.181901 -0.13345,0.03307 -0.13345,-0.330729 z m 3.39781,-2.910417 c 0,-0.145521 0.12608,-0.264584 0.28019,-0.264584 0.15411,0 0.20662,0.119063 0.11668,0.264584 -0.0899,0.145521 -0.21603,0.264583 -0.2802,0.264583 -0.0642,0 -0.11667,-0.119062 -0.11667,-0.264583 z m 1.14974,-6.68073 c -0.0675,-0.10914 0.29408,-0.198437 0.8034,-0.198437 0.50932,0 0.98123,0.0893 1.04868,0.198437 0.0674,0.109141 -0.29407,0.198438 -0.8034,0.198438 -0.50932,0 -0.98123,-0.0893 -1.04868,-0.198438 z m 3.63364,-4.58611 c 0.0127,-0.308226 0.0754,-0.370919 0.15986,-0.159853 0.0764,0.190995 0.067,0.419198 -0.0209,0.507119 -0.0879,0.08792 -0.15046,-0.06835 -0.13897,-0.347266 z m -6.95268,-1.150734 c -0.39275,-0.412734 -0.6408,-0.823719 -0.55122,-0.913299 0.36423,-0.364233 1.8157,-0.126137 2.63619,0.432435 1.05851,0.720609 1.20547,1.368147 0.22598,0.995749 -0.41151,-0.156456 -0.71011,-0.154041 -0.80936,0.0065 -0.26676,0.43162 -0.75652,0.261549 -1.50159,-0.521433 z m 23.55094,-2.844416 c 0.191,-0.07643 0.4192,-0.06703 0.50712,0.02088 0.0879,0.08792 -0.0683,0.150452 -0.34727,0.138964 -0.30822,-0.0127 -0.37092,-0.07539 -0.15985,-0.159851 z m -24.6756,-2.724999 c -0.27906,-0.09789 -0.39622,-0.244642 -0.26036,-0.326118 0.36625,-0.219636 1.70223,-0.173276 1.70223,0.05907 0,0.30576 -0.87141,0.467154 -1.44187,0.267047 z m 2.6325,-0.269262 c -0.0899,-0.14552 -0.0374,-0.264583 0.11667,-0.264583 0.15411,0 0.2802,0.119063 0.2802,0.264583 0,0.145521 -0.0525,0.264584 -0.11667,0.264584 -0.0642,0 -0.19027,-0.119063 -0.2802,-0.264584 z m 65.6859,-14.474629 c 0.32912,-0.06329 0.80537,-0.06088 1.05833,0.0053 0.25297,0.06622 -0.0163,0.118003 -0.59839,0.115066 -0.58209,-0.0029 -0.78906,-0.05712 -0.45994,-0.120405 z m -44.91611,-0.342038 c 0,-0.14552 0.44649,-0.256215 0.99219,-0.245987 0.79592,0.01492 0.88751,0.06358 0.46302,0.245987 -0.73525,0.315947 -1.45521,0.315947 -1.45521,0 z m 32.25518,-0.02043 c -0.27138,-0.171794 -0.17482,-0.237156 0.35472,-0.240104 0.79011,-0.0044 0.93238,0.125338 0.37288,0.340037 -0.1951,0.07487 -0.52252,0.0299 -0.7276,-0.09993 z m 2.00837,0.02043 c -0.0899,-0.14552 0.0291,-0.264583 0.26458,-0.264583 0.23546,0 0.35452,0.119063 0.26458,0.264583 -0.0899,0.145521 -0.209,0.264584 -0.26458,0.264584 -0.0556,0 -0.17465,-0.119063 -0.26458,-0.264584 z m 1.05833,0 c 0.0899,-0.14552 0.27556,-0.264583 0.41249,-0.264583 0.13693,0 0.24897,0.119063 0.24897,0.264583 0,0.145521 -0.18562,0.264584 -0.41249,0.264584 -0.22687,0 -0.33891,-0.119063 -0.24897,-0.264584 z m -20.50521,-0.218759 c 0,-0.120318 0.35719,-0.166335 0.79375,-0.102262 0.43656,0.06407 0.79375,0.162516 0.79375,0.21876 0,0.05624 -0.35719,0.102261 -0.79375,0.102261 -0.43656,0 -0.79375,-0.09844 -0.79375,-0.218759 z m -46.67933,-2.074442 c -0.22529,-0.58709 0.27222,-1.092652 0.67696,-0.687916 0.32392,0.32392 0.1363,1.129034 -0.26311,1.129034 -0.13452,0 -0.32075,-0.198503 -0.41385,-0.441118 z m 33.87139,-1.915598 c -0.99745,-1.005152 -2.27418,-2.035265 -2.83718,-2.289141 -1.09578,-0.494129 -1.41802,-1.067712 -0.42832,-0.762412 1.10987,0.342369 1.96979,0.880814 2.80576,1.756842 2.33387,2.445722 2.68435,2.833778 2.68435,2.972201 0,0.418452 -0.57497,-0.01511 -2.22461,-1.67749 z m -18.4129,-0.148272 c 0.49972,-0.613695 1.87779,-1.199179 2.82255,-1.199179 0.93878,0 0.5478,0.347643 -0.97046,0.862889 -0.65485,0.22223 -1.42875,0.498473 -1.7198,0.613872 -0.48649,0.192897 -0.49716,0.170514 -0.13229,-0.277582 z"
       id="path1338" />
  </g>
</svg>
