<?xml version="1.0" encoding="UTF-8" standalone="no"?>
<!-- Created with Inkscape (http://www.inkscape.org/) -->

<svg
   width="48.895mm"
   height="50.846844mm"
   viewBox="0 0 48.895 50.846849"
   version="1.1"
   id="svg997"
   inkscape:version="1.1 (c4e8f9ed74, 2021-05-24)"
   sodipodi:docname="ornament14.svg"
   xmlns:inkscape="http://www.inkscape.org/namespaces/inkscape"
   xmlns:sodipodi="http://sodipodi.sourceforge.net/DTD/sodipodi-0.dtd"
   xmlns="http://www.w3.org/2000/svg"
   xmlns:svg="http://www.w3.org/2000/svg">
  <sodipodi:namedview
     id="namedview999"
     pagecolor="#ffffff"
     bordercolor="#666666"
     borderopacity="1.0"
     inkscape:pageshadow="2"
     inkscape:pageopacity="0.0"
     inkscape:pagecheckerboard="0"
     inkscape:document-units="mm"
     showgrid="false"
     inkscape:zoom="1.5385816"
     inkscape:cx="-154.36296"
     inkscape:cy="84.168433"
     inkscape:window-width="2506"
     inkscape:window-height="1403"
     inkscape:window-x="1974"
     inkscape:window-y="0"
     inkscape:window-maximized="1"
     inkscape:current-layer="layer1" />
  <defs
     id="defs994" />
  <g
     inkscape:label="Layer 1"
     inkscape:groupmode="layer"
     id="layer1"
     transform="translate(-179.28514,-156.3083)">
    <path
       style="fill:#000000;stroke-width:0.264583"
       d="m 199.66309,195.01676 c 0,-15.25916 -0.19613,-16.44554 -3.2031,-19.37441 -1.30266,-1.26883 -1.64845,-2.08929 -0.88054,-2.08929 0.22784,0 0.64456,0.12325 0.92604,0.27389 1.20928,0.64719 0.11456,-1.47501 -1.16475,-2.25794 -1.4143,-0.86554 -1.71174,-0.92081 -2.7102,-0.50363 -0.59276,0.24767 -1.26546,0.33387 -1.75921,0.22543 -0.63402,-0.13926 -0.75297,-0.1013 -0.57489,0.18343 0.1235,0.19747 0.22769,0.53762 0.23154,0.7559 0.005,0.28744 0.37108,0.41983 1.32734,0.48012 1.63183,0.10287 2.77463,0.9104 3.54736,2.50664 0.69309,1.43173 0.70761,2.65899 0.0442,3.73245 -1.26581,2.04813 -3.53952,3.00373 -5.94831,2.49999 -1.43329,-0.29973 -2.35097,-0.96274 -2.96426,-2.14159 -0.2082,-0.40019 -0.49363,-0.72761 -0.63431,-0.72761 -0.14068,0 -0.56236,-0.26657 -0.93708,-0.59238 -1.99908,-1.73818 -2.89624,-6.32324 -1.69935,-8.68477 1.00251,-1.97801 2.09925,-3.14419 3.73218,-3.96849 3.77047,-1.90333 8.26179,-1.05314 10.62601,2.01147 l 1.11531,1.44571 0.0817,-0.91963 c 0.0983,-1.10701 1.1616,-2.08359 2.0104,-1.84651 1.40562,0.3926 2.05683,0.772 2.37833,1.38561 l 0.34801,0.6642 0.60731,-1.21602 c 0.60481,-1.21101 0.61039,-1.21443 1.35325,-0.83028 0.93035,0.48109 1.29079,1.13587 1.29079,2.34479 v 0.94099 l 1.2759,-0.78506 c 0.70174,-0.43179 2.45791,-1.11192 3.9026,-1.51141 2.13554,-0.59052 3.1462,-0.72252 5.40484,-0.70591 3.63279,0.0267 5.17676,0.59274 7.36346,2.69946 2.35376,2.26768 2.69452,4.22776 1.01967,5.86523 -0.44587,0.43592 -0.90713,0.79258 -1.02503,0.79258 -0.11789,0 -0.21435,0.35401 -0.21435,0.78668 0,1.14712 -0.98601,2.99133 -1.94536,3.63856 -2.18031,1.47094 -5.17929,0.84315 -6.21753,-1.30155 -0.6744,-1.39314 -0.70927,-2.28856 -0.16101,-4.13476 0.28005,-0.94303 0.63147,-1.51038 1.12448,-1.81545 1.73573,-1.07403 1.79238,-1.79276 0.12181,-1.54534 -2.91761,0.43211 -4.89166,1.88908 -6.28502,4.63875 -0.37464,0.73933 -1.21926,1.8747 -1.87691,2.52305 -1.02788,1.01332 -1.34967,1.17881 -2.29207,1.17881 -0.87322,0 -1.27273,-0.17097 -1.96316,-0.84017 l -0.86684,-0.84017 -0.54855,1.2401 c -0.64109,1.44929 -0.55741,1.71568 0.49059,1.56186 0.82749,-0.12145 2.13764,0.4402 2.97114,1.2737 0.81443,0.81444 0.71445,2.88942 -0.18244,3.78631 -1.02603,1.02603 -1.63302,0.92366 -1.73389,-0.29244 -0.10753,-1.2963 -0.77289,-1.4345 -1.76956,-0.36757 -1.00595,1.07688 -1.09068,2.0897 -1.09068,13.03803 v 8.95702 h -1.32292 -1.32292 z m -6.98389,-17.24992 c -0.19941,-1.24706 0.33491,-1.65595 1.17291,-0.89757 0.5048,0.45683 0.51901,0.44849 0.50823,-0.29864 -0.006,-0.42274 -0.23924,-1.18533 -0.51808,-1.69466 -0.44934,-0.82074 -0.50825,-0.85547 -0.51808,-0.3054 -0.0295,1.65148 -1.66998,2.9444 -3.75524,2.95965 -1.08813,0.008 -1.12189,0.0305 -0.62147,0.41403 0.5252,0.40258 0.52448,0.40946 -0.0955,0.91763 l -0.62462,0.51201 h 0.82306 c 0.62878,0 0.82306,-0.11726 0.82306,-0.49677 0,-0.27322 0.17358,-0.64083 0.38574,-0.81691 0.31214,-0.25905 0.51408,-0.1918 1.05834,0.35246 0.36992,0.36992 0.67259,0.80556 0.67259,0.96809 0,0.16284 0.19243,0.10308 0.42863,-0.13312 0.31986,-0.31986 0.38594,-0.69566 0.26039,-1.4808 z m 9.88196,-5.5367 c -5.3e-4,-2.75816 -0.65189,-4.20213 -1.90588,-4.22492 -0.69131,-0.0126 -0.55872,0.6568 0.19844,1.00178 0.67459,0.30736 0.89865,1.19323 0.3825,1.51223 -0.18545,0.11462 -0.14111,0.3828 0.13229,0.80006 0.54793,0.83625 0.51864,1.77976 -0.0924,2.97758 -0.43931,0.86112 -0.45622,1.05224 -0.13229,1.49524 0.20427,0.27936 0.38214,0.75305 0.39528,1.05266 0.0505,1.15187 1.02235,-3.23591 1.0221,-4.61463 z m 19.32693,3.93832 c 0,-0.12878 -0.26001,-0.23415 -0.5778,-0.23415 -0.34561,0 -1.08137,-0.52244 -1.83087,-1.30003 -0.68919,-0.71502 -1.32214,-1.23096 -1.40657,-1.14653 -0.63365,0.63365 0.43268,3.18842 1.42078,3.40399 0.37107,0.081 0.79374,0.17781 0.93926,0.21524 0.34021,0.0875 1.4552,-0.63161 1.4552,-0.93852 z M 191.1199,175.339 c 0.29968,-0.32743 0.62298,-0.85334 0.71845,-1.1687 0.14567,-0.48124 0.0868,-0.55069 -0.36647,-0.43216 -0.29702,0.0777 -0.54004,0.24639 -0.54004,0.37494 0,0.12855 -0.16401,0.23373 -0.36447,0.23373 -0.20047,0 -0.50037,0.16373 -0.66646,0.36386 -0.16608,0.20012 -0.80574,0.44995 -1.42146,0.55517 -0.92349,0.15782 -1.02684,0.22983 -0.59031,0.4113 1.08934,0.45285 2.65695,0.28878 3.23076,-0.33814 z m 30.61379,-1.92162 c 0.42226,-0.64444 0.41454,-0.67286 -0.25138,-0.92604 -1.18679,-0.45122 -1.71088,-0.33263 -1.71088,0.38711 0,0.61649 0.5762,1.17831 1.22634,1.19573 0.16516,0.004 0.49633,-0.29114 0.73592,-0.6568 z m -10.8258,-2.26274 c 0.52187,-0.46432 1.68041,-0.95338 3.38234,-1.42781 2.78635,-0.77671 4.65125,-0.76981 6.90554,0.0256 1.07608,0.37967 1.40031,0.33532 1.10008,-0.15047 -0.0959,-0.1552 -0.58409,-0.28219 -1.08483,-0.28219 -0.82934,0 -1.35317,-0.49872 -0.5797,-0.5519 0.66205,-0.0455 -1.18959,-0.47128 -2.79937,-0.64368 -2.69709,-0.28883 -6.26021,1.10884 -7.84075,3.07562 -1.32834,1.65293 -0.9721,1.6354 0.91669,-0.0451 z m -22.68453,-0.21657 c -0.0446,-0.27397 0.1534,-0.4593 0.55085,-0.51557 0.49454,-0.07 0.5885,-0.20429 0.46288,-0.66146 -0.45918,-1.67108 -0.46523,-2.51048 -0.023,-3.18544 0.56851,-0.86765 0.2652,-0.88348 -0.96115,-0.0502 -1.03612,0.70406 -1.81902,2.07376 -1.81902,3.18239 0,0.75626 0.4311,1.74572 0.89063,2.04416 0.38669,0.25113 0.98412,-0.28988 0.8988,-0.81392 z m 32.02763,0.51486 c 0.0661,-0.19844 -0.0331,-0.29766 -0.23152,-0.23151 -0.19099,0.0637 -0.39935,0.27202 -0.46302,0.46302 -0.0661,0.19844 0.0331,0.29765 0.23151,0.23151 0.191,-0.0637 0.39936,-0.27203 0.46303,-0.46302 z m -23.50684,-1.27331 c -0.7794,-1.33133 -2.32685,-2.71198 -3.03963,-2.71198 -0.68037,0 -2.06598,1.19406 -1.91415,1.64954 0.0591,0.17725 0.73231,0.34992 1.54142,0.39534 1.72428,0.0968 2.81834,0.49863 3.17572,1.16641 0.14508,0.27108 0.38837,0.49288 0.54064,0.49288 0.15227,0 0.0155,-0.44649 -0.304,-0.99219 z m -9.1196,11.57552 c -0.0927,-0.15006 0.12955,-0.26458 0.51355,-0.26458 0.37239,0 0.67708,0.11906 0.67708,0.26458 0,0.14552 -0.2311,0.26458 -0.51355,0.26458 -0.28246,0 -0.58714,-0.11906 -0.67708,-0.26458 z m -1.89618,-1.70815 c 0,-0.21188 0.0992,-0.32392 0.22049,-0.24897 0.12126,0.075 0.22048,0.2483 0.22048,0.38524 0,0.13693 -0.0992,0.24896 -0.22048,0.24896 -0.12127,0 -0.22049,-0.17335 -0.22049,-0.38523 z m -2.36485,-1.48961 c -1.29066,-0.37242 -3.14154,-2.54194 -3.64445,-4.27187 -0.81554,-2.80536 -0.47985,-5.22359 0.99297,-7.15308 0.67028,-0.87812 0.8092,-1.2398 0.60222,-1.56793 -0.19107,-0.3029 -0.13996,-0.82623 0.17635,-1.80562 0.24497,-0.7585 0.4454,-1.5242 0.4454,-1.70156 0,-0.17735 0.45796,-0.81853 1.01769,-1.42482 0.79681,-0.8631 1.2063,-1.10236 1.8867,-1.10236 0.84013,0 0.86417,-0.0298 0.72337,-0.89753 -0.0901,-0.55505 -0.006,-1.09706 0.22062,-1.42045 0.20145,-0.28761 0.2911,-0.5981 0.19922,-0.68997 -0.55219,-0.55219 1.28893,0.015 3.65244,1.12513 6.82987,3.20807 14.97445,5.52319 22.46246,6.38502 1.38245,0.15911 3.31038,0.40183 4.2843,0.53938 0.97392,0.13755 2.73009,0.25009 3.90261,0.25009 1.24484,0 2.13184,0.11008 2.13184,0.26458 0,0.14552 0.16867,0.26458 0.37483,0.26458 0.20615,0 0.42345,0.14586 0.48287,0.32414 0.0693,0.20788 0.62287,0.31349 1.5434,0.29445 1.04758,-0.0217 1.22092,0.0181 0.64161,0.14739 l -0.79375,0.17708 0.70108,0.46756 c 1.06579,0.7108 2.05929,2.40115 2.52829,4.30167 0.36122,1.46374 0.37146,1.86494 0.0709,2.77565 -0.37033,1.12211 -1.83288,2.62456 -2.55485,2.62456 -0.25399,0 -0.0628,-0.24318 0.47222,-0.60058 1.31679,-0.87967 1.88872,-2.14553 1.69127,-3.7433 -0.49139,-3.97641 -2.87136,-6.12734 -7.07607,-6.39508 -2.66076,-0.16942 -4.30279,-0.39149 -10.37784,-1.40351 -2.61548,-0.4357 -4.78185,-0.76574 -4.81417,-0.73343 -0.0323,0.0323 0.27151,0.28073 0.67518,0.55203 0.40366,0.2713 0.99033,0.86748 1.30372,1.32483 0.67911,0.9911 1.05178,2.53238 0.6123,2.53238 -0.16371,0 -0.29766,-0.19215 -0.29766,-0.427 0,-0.74222 -1.05351,-2.33759 -1.9487,-2.95098 -0.47545,-0.32579 -1.27019,-0.59259 -1.77183,-0.59482 -0.6847,-0.003 -0.81152,-0.0675 -0.5128,-0.26054 0.21828,-0.14106 0.69453,-0.26822 1.05833,-0.28257 0.36381,-0.0144 -0.0347,-0.19464 -0.88563,-0.40064 -0.85089,-0.206 -1.65548,-0.30755 -1.78796,-0.22567 -0.13249,0.0819 -0.42707,-0.0373 -0.65463,-0.26487 -0.22756,-0.22756 -0.55406,-0.40435 -0.72557,-0.39286 -0.2194,0.0147 -0.21379,0.0605 0.0189,0.15434 0.73696,0.29737 0.2838,0.6337 -0.62429,0.46334 -0.67746,-0.12709 -1.02934,-0.0729 -1.21076,0.18645 -0.21097,0.30158 -0.23765,0.2961 -0.15235,-0.0313 0.0569,-0.21828 0.35404,-0.51029 0.66037,-0.64891 0.47096,-0.21312 0.16396,-0.38539 -1.98821,-1.11571 -1.39985,-0.47502 -2.58989,-0.81896 -2.64454,-0.76431 -0.0546,0.0547 0.17749,0.18429 0.51588,0.28809 0.7874,0.24153 2.77823,1.85038 3.15054,2.54605 0.52614,0.9831 0.0365,0.80452 -1.06216,-0.38742 -1.67278,-1.81475 -5.46774,-3.19377 -7.16285,-2.60285 -0.42948,0.14971 -0.84413,0.16985 -0.92145,0.0447 -0.2405,-0.38914 1.67079,-0.85176 2.84635,-0.68896 1.27087,0.17601 1.42538,0.27094 -2.41301,-1.48245 -2.31874,-1.0592 -2.81414,-1.17886 -3.08257,-0.74453 -0.0899,0.14552 -0.0486,0.26459 0.0919,0.26459 0.14049,0 0.19214,0.24204 0.11477,0.53786 -0.0806,0.30813 0.0513,0.74995 0.30868,1.03437 0.42363,0.46811 0.42174,0.5044 -0.033,0.63444 -0.26529,0.0759 -1.00069,0.13888 -1.63423,0.14005 -1.29001,0.002 -1.93094,0.44135 -2.44049,1.67152 -0.25911,0.62553 -0.26335,0.91722 -0.0191,1.3084 0.26962,0.43172 0.22461,0.53753 -0.31611,0.74311 -0.70238,0.26704 -1.02922,0.86922 -0.79834,1.47087 0.21141,0.55095 0.43606,0.49964 1.1528,-0.26329 0.3411,-0.36309 1.22506,-1.06445 1.96435,-1.55858 1.11282,-0.74379 1.76527,-0.95552 3.7911,-1.23022 4.28666,-0.58127 7.06322,0.0142 9.12717,1.95742 0.91006,0.85683 1.01192,0.89334 1.25018,0.44816 0.62971,-1.17664 3.80876,-0.51333 4.46734,0.93211 0.36151,0.79343 0.37178,0.90503 0.0833,0.90503 -0.12093,0 -0.37214,-0.28451 -0.55824,-0.63224 -0.42934,-0.80223 -1.34303,-1.21985 -2.66888,-1.21985 -0.88957,0 -1.06497,0.0961 -1.20686,0.66146 -0.22853,0.91056 -0.57346,0.83189 -1.59738,-0.36433 -1.43394,-1.67523 -2.94237,-2.23616 -5.97276,-2.22103 -1.41169,0.007 -3.19763,0.16281 -3.96875,0.34614 -2.67931,0.63698 -5.49577,3.1493 -7.09261,6.32669 -0.49455,0.98407 -0.56446,1.43616 -0.42636,2.75745 0.0909,0.86923 0.403,1.98347 0.69366,2.4761 0.60922,1.03255 0.65456,1.23918 0.21185,0.96557 -0.17414,-0.10762 -0.0503,0.17827 0.27511,0.63532 0.82122,1.1533 2.08831,1.99858 2.9959,1.99858 0.42046,0 0.72396,0.12154 0.67444,0.2701 -0.12786,0.38359 -0.46757,0.41934 -1.40757,0.14811 z m 10.47874,-18.49807 c -0.21828,-0.14107 -0.51594,-0.25648 -0.66146,-0.25648 -0.14552,0 -0.086,0.11541 0.13229,0.25648 0.21829,0.14106 0.51594,0.25648 0.66146,0.25648 0.14552,0 0.086,-0.11542 -0.13229,-0.25648 z m -13.33315,13.33982 c -0.43751,-1.14012 0.0236,-3.02107 0.74053,-3.02107 0.26172,0 0.34506,0.44537 0.32142,1.7177 -0.0261,1.40303 -0.11156,1.71808 -0.46664,1.71979 -0.23909,0.001 -0.50698,-0.18624 -0.59531,-0.41642 z m 0.56543,-1.49673 c 0.0315,-0.7908 -0.0287,-1.00534 -0.20431,-0.7276 -0.37359,0.59088 -0.28675,1.84909 0.12761,1.84909 0.0176,0 0.0521,-0.50467 0.0767,-1.12149 z m 0.0677,-2.99922 c 0,-0.45293 0.42845,-1.13027 1.27882,-2.02171 0.95221,-0.9982 1.27882,-1.21359 1.27882,-0.84337 0,0.27346 -0.15875,0.65595 -0.35278,0.84998 -0.19403,0.19402 -0.35278,0.50829 -0.35278,0.69835 0,0.19007 -0.19699,0.50899 -0.43776,0.70871 -0.39483,0.32751 -0.39291,0.27638 0.0195,-0.52136 0.57571,-1.11356 0.41634,-1.3237 -0.27987,-0.36903 -0.67386,0.92403 -0.94518,1.65039 -0.61649,1.65039 0.14095,0 0.25628,0.11906 0.25628,0.26458 0,0.14552 -0.17859,0.26459 -0.39687,0.26459 -0.25001,0 -0.39688,-0.25207 -0.39688,-0.68113 z m 28.24427,-2.11571 c -0.10914,-0.11098 -0.19844,-0.42574 -0.19844,-0.69948 0,-0.27373 -0.31504,-0.78967 -0.70009,-1.14652 -0.66672,-0.6179 -0.67332,-0.64883 -0.13839,-0.64883 0.71608,0 1.43149,1.07938 1.32073,1.99266 -0.0469,0.38717 -0.17467,0.61314 -0.28381,0.50217 z m 1.12448,-1.1343 c 0,-0.13507 0.18833,-0.31785 0.41852,-0.40618 0.62466,-0.23971 1.96273,-0.19383 1.96273,0.0673 0,0.12534 -0.28431,0.17355 -0.63181,0.10712 -0.34749,-0.0664 -0.88328,0.0138 -1.19062,0.17829 -0.30735,0.16449 -0.55882,0.18856 -0.55882,0.0535 z m -26.45833,-3.55657 c 0,-0.67329 0.44892,-1.24354 0.97896,-1.24354 0.2159,0 0.13873,0.20522 -0.20726,0.55121 -0.30317,0.30317 -0.48051,0.62193 -0.39408,0.70835 0.0864,0.0864 0.39864,-0.10209 0.69381,-0.41892 0.29517,-0.31683 0.67338,-0.57606 0.84046,-0.57606 0.16708,0 -0.0384,0.35719 -0.45668,0.79375 -0.90861,0.94838 -1.45521,1.01795 -1.45521,0.18521 z m 3.7344,-3.07694 c -0.22747,-0.14058 -0.25453,-0.27694 -0.0768,-0.3868 0.15101,-0.0933 0.35423,-0.0408 0.45162,0.11682 0.24301,0.39319 0.0497,0.53239 -0.37485,0.26998 z"
       id="path5460" />
  </g>
</svg>
