<?xml version="1.0" encoding="UTF-8" standalone="no"?>
<!-- Created with Inkscape (http://www.inkscape.org/) -->

<svg
   width="49.465275mm"
   height="100.91251mm"
   viewBox="0 0 49.465278 100.91251"
   version="1.1"
   id="svg5"
   inkscape:version="1.1 (c4e8f9ed74, 2021-05-24)"
   sodipodi:docname="ornament62.svg"
   xmlns:inkscape="http://www.inkscape.org/namespaces/inkscape"
   xmlns:sodipodi="http://sodipodi.sourceforge.net/DTD/sodipodi-0.dtd"
   xmlns="http://www.w3.org/2000/svg"
   xmlns:svg="http://www.w3.org/2000/svg">
  <sodipodi:namedview
     id="namedview7"
     pagecolor="#ffffff"
     bordercolor="#666666"
     borderopacity="1.0"
     inkscape:pageshadow="2"
     inkscape:pageopacity="0.0"
     inkscape:pagecheckerboard="0"
     inkscape:document-units="mm"
     showgrid="false"
     inkscape:zoom="0.94615212"
     inkscape:cx="-217.19552"
     inkscape:cy="195.00035"
     inkscape:window-width="2506"
     inkscape:window-height="1403"
     inkscape:window-x="1974"
     inkscape:window-y="0"
     inkscape:window-maximized="1"
     inkscape:current-layer="layer1" />
  <defs
     id="defs2" />
  <g
     inkscape:label="Layer 1"
     inkscape:groupmode="layer"
     id="layer1"
     transform="translate(-217.14709,-118.24515)">
    <path
       style="fill:#000000;stroke-width:0.264583"
       d="m 226.84326,218.75015 c -2.35675,-0.59875 -4.90502,-2.20142 -4.90502,-3.08488 0,-0.31082 -0.10838,-0.66519 -0.24086,-0.78747 -0.14033,-0.12955 -0.16142,-0.0843 -0.0505,0.10838 0.1238,0.21512 0.0153,0.33073 -0.31035,0.33073 -0.76575,0 -0.79095,-0.13076 -0.39513,-2.04972 0.27549,-1.33558 0.30734,-2.3212 0.12613,-3.90341 -0.13584,-1.18604 -0.14313,-2.38597 -0.0166,-2.7292 0.12422,-0.33689 0.22585,-1.06819 0.22585,-1.6251 0,-0.55691 0.37669,-3.13877 0.83708,-5.73746 0.75819,-4.27966 0.83636,-5.22558 0.82949,-10.038 -0.007,-4.72 -0.069,-5.4771 -0.5573,-6.78232 -0.62,-1.65711 -1.43214,-4.56887 -1.49698,-5.36708 -0.0236,-0.29104 -0.13836,-1.33118 -0.25494,-2.31143 -0.26651,-2.24096 0.2863,-10.38865 0.83949,-12.37295 0.69894,-2.50712 1.78675,-4.12349 3.42701,-5.09216 1.87597,-1.10788 5.66185,-3.60522 6.13255,-4.04532 0.30807,-0.28804 0.29796,-0.53295 -0.0661,-1.60154 -0.2364,-0.69382 -0.42983,-1.89513 -0.42983,-2.66957 0,-1.62836 -0.60024,-2.46047 -1.78594,-2.47583 -0.40018,-0.005 -1.44198,-0.17932 -2.3151,-0.38696 -2.20885,-0.52531 -3.00611,-1.62845 -2.22787,-3.0826 0.22271,-0.41615 0.1883,-0.64138 -0.15614,-1.02198 -0.26899,-0.29723 -0.37652,-0.6939 -0.27491,-1.01406 0.0918,-0.28922 0.0393,-0.6047 -0.11656,-0.70105 -0.16741,-0.10346 -0.21567,-0.53656 -0.11788,-1.05782 0.13441,-0.71648 0.0646,-0.93667 -0.37084,-1.16971 -1.03027,-0.55138 -0.95985,-1.2572 0.35039,-3.51219 1.15215,-1.98291 1.22356,-2.21333 1.05834,-3.41469 -0.0975,-0.70856 -0.43302,-1.61352 -0.7457,-2.01102 -0.31267,-0.39751 -0.53424,-0.92499 -0.49236,-1.17218 0.0419,-0.24719 -0.0486,-0.52654 -0.2011,-0.62078 -0.15249,-0.0942 -0.27725,-0.4977 -0.27725,-0.89657 0,-0.39887 -0.12348,-0.8487 -0.27441,-0.99963 -0.35392,-0.35392 0.10847,-1.63643 0.66732,-1.85088 0.22046,-0.0846 0.40084,-0.44465 0.40084,-0.80011 0,-1.67121 1.24606,-2.71236 2.85989,-2.3896 0.59941,0.11988 0.80125,0.01 1.17489,-0.64133 0.82841,-1.44342 3.14566,-1.9577 5.11446,-1.13508 0.81304,0.3397 1.20221,0.36569 1.98124,0.13229 1.19206,-0.35715 4.01434,-0.36644 6.40275,-0.0211 2.14041,0.30951 3.35742,1.01793 5.06825,2.95023 3.58832,4.05283 4.1563,8.91291 1.72941,14.79819 -0.87923,2.13213 -1.18977,3.60453 -0.95637,4.53446 0.0851,0.33926 0.94575,1.44621 1.91244,2.45988 0.9667,1.01368 1.91898,2.21564 2.11618,2.67104 0.1972,0.45539 0.78066,1.07704 1.29657,1.38143 0.51591,0.3044 1.08549,0.8843 1.26574,1.28868 0.18024,0.40438 0.78434,1.21148 1.34244,1.79356 1.34425,1.40201 2.13275,2.51355 1.78304,2.51355 -0.15542,0 -0.28259,0.12609 -0.28259,0.28019 0,0.15411 0.13781,0.19503 0.30626,0.0909 0.21278,-0.1315 0.25738,-0.002 0.14612,0.42308 -0.13312,0.50908 0.20716,0.97347 2.01754,2.75336 1.19773,1.17754 2.45612,2.48595 2.79644,2.90757 1.30252,1.61371 2.19344,4.05092 3.73755,10.22453 0.38749,1.54924 0.76001,7.50799 0.76848,12.29222 0.004,2.47386 0.11697,5.9862 0.25022,7.80521 0.42381,5.78555 -0.0679,7.06342 -4.31099,11.20244 -2.65094,2.58595 -4.12593,3.61423 -5.18439,3.61423 -0.51897,0 -0.50514,0.0597 0.22992,0.99218 1.06691,1.35351 2.94892,5.14338 2.93865,5.91767 -0.0119,0.89816 -2.26635,3.14431 -3.15592,3.14431 -0.35094,0 -0.35817,0.44672 -0.0107,0.66146 0.47567,0.29398 0.27952,0.60449 -0.56865,0.90016 -0.45827,0.15976 -0.87257,0.29047 -0.92066,0.29047 -0.0481,0 -0.3304,-0.47625 -0.62735,-1.05834 -0.53484,-1.04837 -0.929,-1.45404 -0.61322,-0.63113 0.14205,0.37016 -0.009,0.40505 -1.13278,0.26137 -3.50521,-0.44824 -5.21169,-0.3632 -7.64671,0.38106 -10.41534,3.18344 -11.1596,3.37028 -14.02292,3.52029 -2.07496,0.10871 -3.07178,0.0304 -4.61998,-0.36293 z m 5.52397,-0.42798 c 0.0606,-0.0522 -0.65374,-0.083 -1.5875,-0.0685 -1.19431,0.0186 -1.5016,0.085 -1.03628,0.22398 0.60087,0.17951 2.35523,0.0755 2.62378,-0.15551 z m 6.33222,-1.56949 c 0.0947,-0.10301 -0.1553,-0.10875 -0.55548,-0.0127 -0.43194,0.10362 -0.7276,0.065 -0.7276,-0.0951 0,-0.1483 -0.11533,-0.26963 -0.25628,-0.26963 -0.14096,0 -0.18775,0.1786 -0.10399,0.39688 0.0964,0.25131 -0.004,0.39687 -0.27288,0.39687 -0.32754,0 -0.42519,-0.27345 -0.42519,-1.19062 0,-0.65485 0.11907,-1.19063 0.26459,-1.19063 0.14552,0 0.26458,0.29625 0.26458,0.65832 0,0.6365 0.057,0.65746 1.71979,0.63252 2.12503,-0.0319 2.28699,-0.47843 0.19844,-0.54711 l -1.52136,-0.05 1.49034,-0.0945 1.49033,-0.0945 0.0136,-0.98799 0.0136,-0.98799 -1.50467,0.14386 c -2.63369,0.25181 -2.52382,0.39491 -2.34784,-3.05801 0.0844,-1.65547 0.0487,-3.07463 -0.0792,-3.15369 -0.12793,-0.0791 -0.28078,0.24546 -0.33968,0.72117 -0.0852,0.68838 -0.11262,0.6219 -0.13418,-0.32571 -0.0149,-0.65484 0.0714,-1.66687 0.19181,-2.24896 l 0.21891,-1.05833 0.0666,1.05833 c 0.11306,1.79585 0.4534,-1.85062 0.61736,-6.61458 l 0.1457,-4.23333 -0.36446,4.42886 c -0.49716,6.04146 -0.5734,6.12384 -0.55367,0.59822 0.009,-2.61937 -0.0611,-6.6675 -0.15656,-8.99583 l -0.17356,-4.23334 0.33065,4.10105 c 0.24238,3.0063 0.34665,3.64195 0.39059,2.38125 0.043,-1.23261 0.12437,-1.56989 0.28734,-1.19063 0.16401,0.38166 0.23842,0.0866 0.26695,-1.05833 0.0698,-2.80077 -0.029,-8.44924 -0.14993,-8.57014 -0.0644,-0.0644 -0.11702,1.88721 -0.11702,4.3368 0,2.4496 -0.0433,4.40421 -0.0962,4.34358 -0.21517,-0.24652 -0.41634,-14.15909 -0.20936,-14.47943 0.13567,-0.20998 0.2878,0.62312 0.38652,2.11667 0.0895,1.35461 0.27671,2.82012 0.41593,3.25668 0.13922,0.43657 0.3283,1.13523 0.42017,1.55258 0.36312,1.64953 0.38542,0.38077 0.0346,-1.97163 -0.24213,-1.62386 -0.30032,-3.04414 -0.16711,-4.07886 l 0.20437,-1.5875 0.0519,1.85208 c 0.0717,2.55813 0.61884,6.02486 0.96901,6.13963 0.20226,0.0663 0.22706,-0.28796 0.0819,-1.1702 -0.11448,-0.69589 -0.1984,-2.57495 -0.18649,-4.17568 l 0.0217,-2.91041 0.23734,3.0427 c 0.39862,5.11029 0.67896,5.97005 0.73329,2.24896 0.0348,-2.38266 0.1113,-3.01234 0.30655,-2.52319 0.14311,0.3585 0.20851,1.75748 0.14534,3.10885 -0.0632,1.35138 -0.009,2.45705 0.11992,2.45705 0.12912,0 0.23477,-0.40764 0.23477,-0.90586 0,-0.49822 0.12336,-1.48048 0.27414,-2.18281 0.15077,-0.70232 0.3813,-2.8843 0.51227,-4.84883 l 0.23814,-3.57188 -0.11364,3.96875 c -0.0625,2.18282 -0.19008,4.74266 -0.2835,5.68855 -0.23939,2.4237 0.12222,1.83054 0.58739,-0.96352 0.50761,-3.04893 0.83464,-12.79482 0.42934,-12.79482 -0.1595,0 -0.36478,0.12101 -0.45619,0.2689 -0.0914,0.1479 -0.27786,0.19988 -0.41435,0.11552 -0.31408,-0.1941 -0.50989,0.31855 -0.78886,2.06524 l -0.22148,1.3868 0.0746,-1.52881 c 0.0825,-1.69009 -0.38104,-1.9939 -0.66294,-0.43453 l -0.16361,0.90501 -0.0348,-0.87551 c -0.0415,-1.04394 -0.44609,-0.89989 -0.82349,0.29322 l -0.26788,0.84687 0.12243,-0.84815 c 0.0965,-0.66849 0.0398,-0.81643 -0.26776,-0.69842 -0.21461,0.0823 -0.46025,0.46402 -0.54588,0.84815 -0.0856,0.38413 -0.26253,1.11514 -0.39312,1.62446 -0.13058,0.50933 -0.2519,1.58089 -0.26959,2.38125 -0.0177,0.80037 -0.0939,1.21709 -0.16943,0.92605 l -0.13727,-0.52917 -0.21032,0.52917 c -0.15128,0.38061 -0.21032,0.19491 -0.21032,-0.66146 0,-0.85462 0.0592,-1.04129 0.20965,-0.66146 0.14851,0.37482 0.26622,-0.0258 0.40356,-1.37342 0.18706,-1.83537 0.0923,-2.46304 -0.37199,-2.46304 -0.42344,0 -0.62712,2.03836 -0.81961,8.20208 l -0.19416,6.21771 0.0509,-7.08226 c 0.0345,-4.80067 -0.0376,-7.05275 -0.22386,-6.99067 -0.15112,0.0504 -0.37362,0.61802 -0.49442,1.26143 -0.21243,1.13133 -0.094,10.84945 0.24148,19.82296 0.12569,3.36154 0.0323,5.88697 -0.40611,10.98021 -0.31314,3.63802 -0.62424,6.97177 -0.69133,7.40833 -0.0671,0.43656 -0.20004,2.3118 -0.29544,4.16719 -0.17129,3.33134 -0.16634,3.37344 0.39659,3.37344 0.31352,0 0.58347,-0.0893 0.59989,-0.19844 0.0164,-0.10914 0.0678,-2.16297 0.1141,-4.56406 0.0898,-4.65363 0.71707,-12.59089 1.01888,-12.8927 0.20297,-0.20297 -0.0133,3.26449 -0.38857,6.23111 -0.13481,1.06556 -0.2451,4.07483 -0.2451,6.68728 v 4.7499 l -0.66146,0.25149 c -0.3638,0.13832 -0.66146,0.306 -0.66146,0.37264 0,0.17007 4.51247,-1.08939 4.72267,-1.31812 z m -3.00021,0.412 c 0.0914,-0.1479 0.27703,-0.2004 0.41249,-0.11668 0.36699,0.22681 0.29856,0.38558 -0.16619,0.38558 -0.22687,0 -0.3377,-0.12101 -0.2463,-0.2689 z m 0.0256,-0.94337 c -0.23606,-0.61517 -0.1599,-5.18229 0.0967,-5.79919 0.13452,-0.32339 0.22815,0.78267 0.24077,2.84427 0.0114,1.85539 -0.0238,3.37344 -0.0781,3.37344 -0.0543,0 -0.17104,-0.18833 -0.25937,-0.41852 z m 2.61753,-1.69815 c -0.0966,-0.15628 0.19485,-0.26292 0.71199,-0.26053 0.66261,0.003 0.779,0.0664 0.47863,0.26053 -0.51433,0.33239 -0.9852,0.33239 -1.19062,0 z m 1.8137,-40.34896 c -7.9e-4,-1.30969 0.0439,-1.87883 0.0994,-1.26475 0.0555,0.61407 0.0562,1.68563 0.001,2.38125 -0.0547,0.69561 -0.10007,0.19319 -0.10088,-1.1165 z m -2.13851,-0.13229 c 0,-0.65484 0.0516,-0.92273 0.11466,-0.59531 0.0631,0.32742 0.0631,0.8632 0,1.19062 -0.0631,0.32742 -0.11466,0.0595 -0.11466,-0.59531 z m 0.12776,-2.24896 c 0.0695,-0.3638 0.1721,-0.66146 0.22789,-0.66146 0.0558,0 0.10145,0.29766 0.10145,0.66146 0,0.3638 -0.10255,0.66146 -0.22789,0.66146 -0.12534,0 -0.171,-0.29766 -0.10145,-0.66146 z m 1.16487,-0.13229 c 0,-0.3638 0.06,-0.51263 0.13345,-0.33073 0.0734,0.1819 0.0734,0.47956 0,0.66146 -0.0734,0.1819 -0.13345,0.0331 -0.13345,-0.33073 z m 2.14695,-1.85208 c 0,-0.65485 0.0516,-0.92274 0.11466,-0.59532 0.0631,0.32743 0.0631,0.86321 0,1.19063 -0.0631,0.32742 -0.11466,0.0595 -0.11466,-0.59531 z m -9.59706,47.59701 c 0,-0.31767 -0.18584,-0.50118 -0.50753,-0.50118 -0.65669,0 -1.34456,-0.26643 -1.34456,-0.52078 0,-0.10977 0.2837,-0.14536 0.63045,-0.0791 0.71884,0.13741 1.16568,-0.32181 0.54492,-0.56002 -0.23426,-0.0899 -0.34002,-0.0452 -0.24745,0.10457 0.0889,0.14385 -0.024,0.26155 -0.25084,0.26155 -0.22687,0 -0.42189,-0.14883 -0.43338,-0.33073 -0.0167,-0.26458 -0.0476,-0.26458 -0.15434,0 -0.0734,0.1819 -0.30213,0.33073 -0.50828,0.33073 -0.2382,0 -0.37483,0.28292 -0.37483,0.77618 0,0.65005 0.11823,0.78977 0.72761,0.85989 1.73748,0.19992 1.91823,0.16777 1.91823,-0.34114 z m -7.29162,-0.36047 c -0.67193,-0.50823 -1.06494,-0.51335 -0.64588,-0.008 0.18115,0.21828 0.51615,0.39688 0.74442,0.39688 0.33226,0 0.31261,-0.0775 -0.0985,-0.38846 z m 2.57407,-0.0746 c 0.0247,-0.25467 0.0686,-1.11787 0.0976,-1.91823 0.1273,-3.52044 0.66295,-7.48012 1.72362,-12.74156 0.47468,-2.35463 0.66501,-4.17134 0.40912,-3.90515 -0.0583,0.0606 -0.42816,1.77712 -0.82195,3.81441 -1.69545,8.77143 -2.42865,15.21355 -1.7315,15.21355 0.153,0 0.29841,-0.20836 0.32313,-0.46302 z m 0.67794,-2.77813 c -0.0557,-0.61846 -0.10128,-0.11245 -0.10128,1.12448 0,1.23693 0.0456,1.74294 0.10128,1.12448 0.0557,-0.61846 0.0557,-1.6305 0,-2.24896 z m 4.76187,0.66736 c -0.0573,-0.54895 -0.1051,-0.16465 -0.10628,0.85399 -10e-4,1.01865 0.0457,1.46779 0.10414,0.99809 0.0584,-0.46969 0.0594,-1.30313 0.002,-1.85208 z m 0.52279,0.92014 c -0.0631,-0.32742 -0.11466,-0.0595 -0.11466,0.59531 0,0.65485 0.0516,0.92274 0.11466,0.59532 0.0631,-0.32743 0.0631,-0.86321 0,-1.19063 z m -6.7318,-1.65669 c 0.11099,-1.59905 0.50613,-4.69331 0.8781,-6.87612 0.37196,-2.18281 0.77753,-4.64913 0.90126,-5.48071 0.12372,-0.83157 0.29428,-1.62412 0.37901,-1.76122 0.30814,-0.49857 0.67537,-5.47702 0.46117,-6.25182 -0.17709,-0.64053 -0.24792,-0.35962 -0.36697,1.45521 -0.0924,1.40865 -0.65291,4.2315 -1.50012,7.55492 -1.52362,5.9768 -1.86037,8.10748 -1.87212,11.84521 -0.007,2.33511 0.0389,2.59009 0.45485,2.51049 0.39228,-0.0751 0.49386,-0.53282 0.66482,-2.99596 z m -1.3936,-1.68702 c 0.19658,-2.56578 0.54969,-4.96286 0.9549,-6.48229 1.64917,-6.18389 1.95397,-7.66579 2.23739,-10.87765 0.2697,-3.05644 0.2415,-3.97803 -0.25318,-8.27353 -0.54375,-4.72169 -0.71698,-7.84958 -0.25979,-4.69105 0.12638,0.87313 0.34351,2.24235 0.48252,3.04271 0.23596,1.35862 0.24412,1.31472 0.12301,-0.66146 -0.0713,-1.16416 -0.24211,-3.48588 -0.37947,-5.15937 -0.13737,-1.67349 -0.25169,-4.24852 -0.25406,-5.7223 -0.003,-2.17036 -0.0877,-2.74858 -0.44335,-3.0427 -0.40613,-0.3359 -0.42769,-0.12508 -0.28761,2.81187 0.097,2.03484 0.0702,2.79495 -0.0749,2.11667 -0.12447,-0.58209 -0.23317,-1.9118 -0.24155,-2.95492 -0.0163,-2.03248 -0.17332,-2.73362 -0.61202,-2.73362 -0.18242,0 -0.21851,0.73788 -0.10675,2.18281 0.72578,9.3835 0.83702,10.50727 1.26364,12.76615 0.72521,3.83976 1.05803,7.27467 0.89728,9.26041 -0.2573,3.17842 -1.3813,8.36327 -1.64903,7.60677 -0.14208,-0.40144 -0.8667,-0.44369 -0.8667,-0.0505 0,0.15411 -0.11907,0.20662 -0.26459,0.11668 -0.14552,-0.0899 -0.26458,-0.0502 -0.26458,0.0884 0,0.33764 0.77222,0.61762 1.11653,0.40482 0.15597,-0.0964 0.21966,-0.0108 0.14712,0.19758 -0.0704,0.20216 -0.32481,0.33237 -0.56546,0.28937 -0.24064,-0.043 -0.62998,0.0295 -0.86519,0.16113 -0.35152,0.19673 -0.27698,0.29187 0.41868,0.53437 0.59091,0.206 0.78046,0.39693 0.62806,0.63262 -0.12005,0.18566 -0.33734,0.93288 -0.48287,1.66049 -0.23373,1.16865 -0.34942,1.33268 -0.99218,1.40663 -0.41646,0.0479 -0.72761,0.24593 -0.72761,0.46303 0,0.20861 0.0963,0.3793 0.21402,0.3793 0.1177,0 0.44513,0.17649 0.7276,0.3922 0.48099,0.3673 0.46104,0.38241 -0.31422,0.23793 -1.1365,-0.21181 -1.43702,0.35796 -0.38266,0.72551 1.09272,0.38093 1.03116,0.68017 -0.11245,0.54666 -1.13678,-0.13272 -1.22258,0.32381 -0.13229,0.70388 0.49223,0.1716 0.7907,0.45782 0.78571,0.75349 -0.008,0.45043 -0.023,0.45119 -0.27773,0.0138 -0.26761,-0.45945 -1.05347,-0.62308 -1.38763,-0.28893 -0.27176,0.27177 0.35997,0.88425 0.91205,0.88425 0.27322,0 0.49677,0.11075 0.49677,0.24611 0,0.15176 -0.32898,0.15176 -0.85815,0 -0.47198,-0.13536 -0.87816,-0.24611 -0.90263,-0.24611 -0.24202,0 0.1873,0.88715 0.58566,1.21019 0.28251,0.2291 0.3946,0.36069 0.24908,0.29241 -0.14552,-0.0683 -0.40418,0.0271 -0.5748,0.21184 -0.24221,0.26232 -0.16775,0.40089 0.33965,0.63207 0.51991,0.23689 0.67922,0.2196 0.79668,-0.0865 0.0807,-0.21043 0.0697,-0.50737 -0.0245,-0.65985 -0.0943,-0.15249 -0.0453,-0.27726 0.10884,-0.27726 0.16519,0 0.2802,0.63352 0.2802,1.54341 0,1.3148 0.17441,2.08071 0.41672,1.83003 0.0352,-0.0364 0.2043,-1.89823 0.37585,-4.13746 z m 2.20467,-33.7641 c 10e-4,-1.01865 0.049,-1.40294 0.10627,-0.854 0.0573,0.54895 0.0563,1.38239 -0.002,1.85209 -0.0584,0.46969 -0.10532,0.0205 -0.10414,-0.99809 z m 13.86102,35.38802 c -0.0606,-0.40018 -0.11022,-0.0728 -0.11022,0.7276 0,0.80037 0.0496,1.12779 0.11022,0.72761 0.0606,-0.40018 0.0606,-1.05503 0,-1.45521 z m 1.53028,1.52135 c 0.29602,-0.1272 0.36773,-0.23558 0.16276,-0.24598 -0.2173,-0.011 -0.0827,-0.24177 0.33073,-0.56697 0.63517,-0.49963 1.01839,-1.2689 0.46028,-0.92397 -0.13028,0.0805 -0.29259,-0.002 -0.36071,-0.18282 -0.0681,-0.18107 -0.0312,-5.21078 0.082,-11.17713 0.16419,-8.65383 0.29352,-11.19576 0.63941,-12.56771 0.48568,-1.92639 1.8277,-9.32846 2.27857,-12.56771 0.32159,-2.31045 0.48017,-11.09222 0.2053,-11.36958 -0.0937,-0.0946 -0.70037,0.10316 -1.34809,0.43943 l -1.17766,0.6114 0.0165,5.02708 c 0.009,2.7649 -0.1282,5.97959 -0.30509,7.14375 -0.17688,1.16417 -0.5634,4.02167 -0.85892,6.35 -0.29553,2.32834 -0.66105,5.12631 -0.81228,6.21771 -0.15123,1.09141 -0.34448,6.83618 -0.42943,12.76615 -0.13101,9.14502 -0.0981,10.78238 0.2165,10.78582 0.3009,0.003 0.296,0.0525 -0.0259,0.26053 -0.35278,0.22799 -0.35278,0.25487 0,0.24194 0.21828,-0.008 0.635,-0.11687 0.92604,-0.24194 z m 13.62604,-0.338 c 0,-0.52776 -0.78259,-1.51408 -1.20135,-1.51408 -0.31487,0 -0.30424,0.15381 0.064,0.92604 0.42983,0.90136 1.13734,1.26716 1.13734,0.58804 z m -25.09924,-0.39959 c -0.19088,-0.0636 -0.47285,0.0101 -0.6266,0.16386 -0.19634,0.19634 -0.093,0.23077 0.34705,0.11568 0.35777,-0.0936 0.47771,-0.21349 0.27955,-0.27954 z m -0.9465,-0.34617 c 0.0986,-0.15951 0.51776,-0.24033 0.93151,-0.17961 0.74676,0.1096 1.03715,-0.17241 1.03715,-1.00723 0,-0.28223 -0.39347,-0.37523 -1.5875,-0.37523 -1.57742,0 -1.5875,0.005 -1.5875,0.7717 0,0.91343 0.80452,1.44053 1.20634,0.79037 z m 17.11606,-0.1498 c -0.5052,-0.20385 -0.39475,-0.54006 0.23118,-0.70375 0.46973,-0.12284 0.53013,-0.26897 0.36813,-0.89075 -0.49284,-1.89166 -0.81546,-10.55131 -0.51662,-13.86712 0.12633,-1.40167 0.0733,-1.83034 -0.26896,-2.17256 -0.30597,-0.30597 -0.35579,-0.55995 -0.17647,-0.89961 0.13743,-0.2603 0.3777,-1.12812 0.53394,-1.92848 0.15623,-0.80036 0.59257,-2.82443 0.96964,-4.49792 0.37707,-1.67349 0.78698,-3.51896 0.91092,-4.10104 0.12393,-0.58208 0.52046,-2.24896 0.88117,-3.70417 0.86375,-3.48465 1.96765,-9.15597 2.13725,-10.9802 0.0982,-1.05585 0.074,-1.23737 -0.088,-0.66146 -0.21247,0.75537 -0.22629,0.73619 -0.2859,-0.39688 -0.0344,-0.65484 -0.0439,-1.29384 -0.021,-1.41999 0.0229,-0.12615 -0.10049,-0.66004 -0.27421,-1.18641 -0.27448,-0.8317 -0.34271,-0.88829 -0.52088,-0.43209 -0.11277,0.28872 -0.2134,1.27002 -0.22363,2.18065 -0.0326,2.90391 -1.04664,9.06932 -2.14283,13.02868 -1.23402,4.45717 -2.24511,9.16037 -2.63114,12.23896 -0.4909,3.91507 -0.22421,16.92206 0.40683,19.84177 0.0982,0.45423 0.32332,0.71975 0.59926,0.70671 0.27507,-0.013 0.31709,-0.0713 0.11127,-0.15434 z m 0.75135,-26.4154 c -0.0552,-0.60874 0.91648,-4.36562 1.12918,-4.36562 0.12744,0 0.14962,0.26789 0.0493,0.59531 -0.10032,0.32742 -0.40111,1.36922 -0.66843,2.31511 -0.26732,0.94588 -0.49684,1.60073 -0.51005,1.4552 z m 1.32006,-5.31371 c 0.0127,-0.30823 0.0754,-0.37092 0.15985,-0.15985 0.0764,0.19099 0.067,0.4192 -0.0209,0.50712 -0.0879,0.0879 -0.15045,-0.0684 -0.13896,-0.34727 z m 0.3988,-1.69774 c 0.27461,-1.42767 0.6813,-2.20099 0.48701,-0.92605 -0.0887,0.58209 -0.27465,1.23693 -0.41321,1.45521 -0.17112,0.26957 -0.19479,0.0998 -0.0738,-0.52916 z m 0.69632,-2.51355 c 0.003,-0.29104 0.0958,-0.88635 0.2069,-1.32291 0.18143,-0.71298 0.20248,-0.72644 0.20691,-0.13229 0.003,0.3638 -0.0904,0.95911 -0.20691,1.32291 -0.16599,0.51832 -0.21077,0.54695 -0.2069,0.13229 z m 0.51326,-2.77812 c 0,-0.3638 0.0601,-0.51263 0.13345,-0.33073 0.0734,0.1819 0.0734,0.47956 0,0.66146 -0.0734,0.1819 -0.13345,0.0331 -0.13345,-0.33073 z m 0.2437,-1.21267 c 0.0127,-0.30823 0.0754,-0.37092 0.15985,-0.15986 0.0764,0.191 0.067,0.4192 -0.0209,0.50712 -0.0879,0.0879 -0.15045,-0.0683 -0.13896,-0.34726 z m 0.28866,-1.69775 c 0.004,-0.3638 0.10311,-0.95911 0.21962,-1.32291 0.20656,-0.64501 0.21203,-0.64172 0.21961,0.13229 0.004,0.43656 -0.0945,1.03187 -0.21961,1.32292 -0.20671,0.48103 -0.22669,0.46899 -0.21962,-0.1323 z m 1.80712,41.62452 c 0,-0.35436 -0.63849,-1.93698 -0.78076,-1.93527 -0.0799,0.001 -0.49241,0.23057 -0.91667,0.51025 l -0.77138,0.50852 0.90367,0.26857 c 0.82726,0.24586 0.79181,0.25716 -0.41924,0.13364 -0.7276,-0.0742 -1.79917,-0.0225 -2.38125,0.1148 -0.94593,0.2232 -0.82356,0.25143 1.15228,0.26584 1.21584,0.009 2.27748,0.083 2.3592,0.16471 0.20898,0.20898 0.85415,0.18552 0.85415,-0.0311 z m -9.07329,-1.47091 c -0.0633,-0.32912 -0.11747,-0.12215 -0.12041,0.45993 -0.003,0.58209 0.0488,0.85137 0.11507,0.5984 0.0662,-0.25296 0.0686,-0.72921 0.005,-1.05833 z m 1.7698,0.96523 c 0.0888,-0.23142 0.10408,-0.51358 0.034,-0.62704 -0.2333,-0.37748 -0.53612,-8.80329 -0.50359,-14.01176 0.0369,-5.91273 0.37603,-8.27923 2.16407,-15.10295 1.33188,-5.08284 2.13707,-8.96626 2.56027,-12.34812 0.54179,-4.32958 0.53058,-4.8498 -0.10458,-4.8498 -0.27914,0 -0.67719,-0.0651 -0.88455,-0.14468 -0.31212,-0.11977 -0.40443,0.55205 -0.53622,3.90261 -0.0876,2.226 -0.2926,4.94025 -0.45565,6.03165 -0.71017,4.75351 -1.13287,6.91878 -1.85949,9.525 -1.43919,5.16207 -1.57308,6.50906 -1.75549,17.66094 l -0.16986,10.3849 h 0.67483 c 0.3728,0 0.7471,-0.18832 0.8363,-0.42075 z m 12.46849,-1.25508 c 0.50633,-0.72289 0.5031,-1.12763 -0.006,-0.70542 -0.32865,0.27276 -0.39762,0.24422 -0.40122,-0.16605 -0.002,-0.27247 -0.29405,-0.97166 -0.64812,-1.55375 -0.35407,-0.58208 -0.99948,-1.80247 -1.43426,-2.71197 -0.43478,-0.90951 -0.85091,-1.65365 -0.92475,-1.65365 -0.13622,0 0.52098,1.54326 2.08444,4.89479 0.47519,1.01865 0.79589,1.96682 0.71266,2.10706 -0.14374,0.24221 -0.40259,-0.25525 -2.06009,-3.95914 -1.68033,-3.75494 -3.31093,-6.93522 -3.93405,-7.67292 l -0.67048,-0.79375 0.59691,1.32292 c 0.3283,0.7276 0.80451,1.6173 1.05825,1.9771 0.25374,0.3598 0.46165,0.89558 0.46202,1.19062 2.6e-4,0.29505 0.41709,1.22702 0.92604,2.07105 0.50895,0.84403 0.92536,1.6446 0.92536,1.77905 0,0.49421 1.64329,4.36327 1.94121,4.57051 0.19506,0.13569 0.12363,0.18465 -0.19509,0.1337 -0.31564,-0.0505 -0.63832,-0.47199 -0.86674,-1.13231 -0.39584,-1.14431 -0.77551,-1.65366 -1.03742,-1.39175 -0.0918,0.0918 0.0714,0.46976 0.36258,0.83996 0.2912,0.3702 0.60661,1.08436 0.70091,1.58703 l 0.17146,0.91394 0.92238,-0.54422 c 0.50731,-0.29932 1.09845,-0.79558 1.31363,-1.1028 z m -18.12903,-0.0282 c 3.4e-4,-0.17781 -0.62871,-0.24791 -1.71979,-0.19164 -1.15103,0.0594 -1.72035,0.198 -1.72035,0.41893 0,0.18161 0.0563,0.38652 0.12516,0.45536 0.23374,0.23374 3.31442,-0.40066 3.31498,-0.68265 z m 8.12407,-0.47571 c -0.0633,-0.32912 -0.11747,-0.12215 -0.1204,0.45994 -0.003,0.58208 0.0488,0.85136 0.11506,0.59839 0.0662,-0.25296 0.0686,-0.72921 0.005,-1.05833 z m 3.20865,0.22402 c 0.82446,-0.63907 1.88597,-1.35651 2.35891,-1.59429 0.98877,-0.49714 1.14074,-0.80518 0.26458,-0.53631 -0.68725,0.21089 -3.63029,2.24876 -4.14734,2.87177 -0.61803,0.74468 -0.014,0.45089 1.52385,-0.74117 z m 3.08651,0.63279 c -0.45249,-0.19444 -0.46207,-0.23008 -0.0661,-0.24599 0.25466,-0.0102 0.46302,-0.13146 0.46302,-0.26941 0,-0.14882 -0.34419,-0.13084 -0.84637,0.0442 -0.74589,0.26002 -0.78515,0.319 -0.33073,0.49681 0.72906,0.28527 1.44871,0.26163 0.78022,-0.0256 z m -5.76599,-1.38598 c -0.0633,-0.32912 -0.11747,-0.12215 -0.12041,0.45994 -0.003,0.58208 0.0489,0.85136 0.11507,0.5984 0.0662,-0.25297 0.0686,-0.72922 0.005,-1.05834 z m -16.95321,0.12921 c 0.076,-0.70383 6.8e-4,-0.8599 -0.41517,-0.8599 -0.27942,0 -0.68663,-0.17859 -0.90491,-0.39687 -0.69728,-0.69728 -1.16941,-0.47087 -1.35907,0.65175 -0.2383,1.41046 -0.0344,1.63833 1.38243,1.54458 1.14309,-0.0756 1.20852,-0.12306 1.29672,-0.93956 z m 20.11952,-0.75105 c 0.61717,-0.53334 0.84797,-0.89109 0.65275,-1.01175 -0.16612,-0.10266 -0.30202,-0.59255 -0.30202,-1.08864 0,-0.6845 0.15445,-0.98375 0.64062,-1.24115 0.60666,-0.3212 0.62136,-0.38476 0.27735,-1.19908 -0.36607,-0.86654 -0.74862,-1.08338 -1.05027,-0.59531 -0.45314,0.73321 -1.71979,-0.15312 -1.71979,-1.20343 0,-0.38175 0.25688,-0.80477 0.6419,-1.05704 l 0.64189,-0.42058 -0.77397,-1.63604 c -0.42569,-0.89982 -0.77408,-1.78486 -0.77419,-1.96676 -1.2e-4,-0.18191 -0.10269,-0.33073 -0.22794,-0.33073 -0.23718,0 -0.52974,1.91829 -0.60529,3.96875 l -0.0439,1.19062 -0.20071,-1.32292 c -0.14205,-0.9363 -0.17223,-0.54969 -0.10326,1.32292 0.0536,1.45521 0.27099,3.7174 0.48309,5.02708 0.22143,1.36732 0.2831,2.41881 0.14483,2.46945 -0.13245,0.0485 -0.24081,0.2636 -0.24081,0.47798 0,0.32481 0.13377,0.31076 0.80246,-0.0842 0.44136,-0.26072 1.23211,-0.84532 1.75723,-1.29913 z m -2.7825,-5.6651 c 0,-0.3638 0.0601,-0.51263 0.13345,-0.33073 0.0734,0.18191 0.0734,0.47956 0,0.66146 -0.0734,0.1819 -0.13345,0.0331 -0.13345,-0.33073 z m -20.75673,5.75778 c -0.0633,-0.32912 -0.11747,-0.12215 -0.1204,0.45993 -0.003,0.58208 0.0488,0.85136 0.11506,0.5984 0.0662,-0.25297 0.0686,-0.72922 0.005,-1.05833 z m 11.08353,0.84697 c 0.51504,-0.19581 0.64024,-0.35593 0.43715,-0.55903 -0.15909,-0.15909 -0.43772,-0.18999 -0.63176,-0.0701 -0.19093,0.118 -0.58826,0.22852 -0.88295,0.2456 -1.43957,0.0834 -1.72643,0.1488 -1.72643,0.39333 0,0.34695 1.88293,0.34035 2.80399,-0.01 z m 1.09723,-5.86458 c -0.0491,-1.20746 -0.0896,-0.29038 -0.09,2.03796 -3.5e-4,2.32833 0.0399,3.31625 0.0893,2.19537 0.0495,-1.12087 0.0497,-3.02587 6.1e-4,-4.23333 z m 13.56128,5.58983 c 0,-0.12539 -0.17859,-0.15944 -0.39688,-0.0757 -0.21828,0.0838 -0.39687,0.25489 -0.39687,0.38027 0,0.12539 0.17859,0.15944 0.39687,0.0757 0.21829,-0.0838 0.39688,-0.25489 0.39688,-0.38027 z m -20.98428,-1.23677 c -0.0666,-0.25466 -0.121,-0.0463 -0.121,0.46302 0,0.50933 0.0545,0.71769 0.121,0.46302 0.0665,-0.25466 0.0665,-0.67138 0,-0.92604 z m -5.2907,0.005 c -0.0671,-0.25742 -0.12638,-0.11086 -0.13177,0.3257 -0.005,0.43656 0.0495,0.64719 0.12197,0.46806 0.0725,-0.17913 0.0769,-0.53632 0.01,-0.79375 z m 4.76901,-0.79515 c -0.0608,-0.40217 -0.1122,-0.13592 -0.11419,0.59168 -0.002,0.72761 0.0478,1.05667 0.11057,0.73125 0.0628,-0.32542 0.0644,-0.92074 0.004,-1.32292 z m 6.65623,1.35236 c 1.09946,-0.21989 1.05646,-0.62838 -0.0661,-0.62838 -1.24797,0 -2.54661,0.28671 -2.54661,0.56224 0,0.2692 1.41796,0.3051 2.61276,0.0661 z m -10.63149,-1.88012 c -0.0671,-0.25743 -0.12638,-0.11087 -0.13177,0.32569 -0.005,0.43657 0.0495,0.64719 0.12197,0.46806 0.0725,-0.17913 0.0769,-0.53632 0.01,-0.79375 z m 3.24661,0.60187 c 0.40201,-0.48439 0.1393,-0.93763 -0.54347,-0.93763 -0.64416,0 -0.98099,0.76227 -0.47765,1.08098 0.50786,0.32158 0.65207,0.30133 1.02112,-0.14335 z m -0.88336,-0.0667 c -0.083,-0.083 -0.0876,-0.25342 -0.0103,-0.37864 0.18575,-0.30055 0.90323,-0.29372 0.90323,0.009 0,0.29203 -0.68651,0.57652 -0.89298,0.37004 z m 8.10288,0.28219 c 1.14999,-0.19008 1.33542,-0.6253 0.26458,-0.62101 -1.20717,0.005 -2.71198,0.31604 -2.71198,0.56087 0,0.26793 1.0362,0.2934 2.4474,0.0601 z m 14.86756,-0.33467 c 0.0815,-0.13195 -0.09,-0.17759 -0.38126,-0.10143 -0.6178,0.16156 -0.6959,0.34134 -0.14827,0.34134 0.20969,0 0.44798,-0.10796 0.52953,-0.23991 z m -30.59205,-7.16842 c 1.48793,-4.57926 1.70597,-5.96594 1.58523,-10.08199 -0.0779,-2.65724 -0.23262,-3.89164 -0.61815,-4.93312 -0.28281,-0.76398 -0.60531,-1.38906 -0.71668,-1.38906 -0.11136,0 -0.20248,1.61193 -0.20248,3.58207 0,2.27882 -0.18838,4.75758 -0.51779,6.81303 -0.72586,4.52924 -1.29935,8.9701 -1.45938,11.30073 l -0.13626,1.98438 0.49544,-1.98438 c 0.27249,-1.0914 0.97902,-3.47265 1.57007,-5.29166 z m 15.72449,6.48215 c 1.6943,-0.26661 1.18605,-0.75239 -0.61622,-0.58897 -1.69189,0.15342 -1.98097,0.26498 -1.7317,0.66831 0.14962,0.24209 0.34774,0.2354 2.34792,-0.0793 z m 8.84845,-0.85472 c -0.0671,-0.25743 -0.12638,-0.11087 -0.13177,0.32569 -0.005,0.43656 0.0495,0.64719 0.12197,0.46806 0.0725,-0.17913 0.0769,-0.53632 0.01,-0.79375 z m 0.53254,-0.6665 c -0.0631,-0.32742 -0.11466,-0.0595 -0.11466,0.59532 0,0.65484 0.0516,0.92273 0.11466,0.59531 0.0631,-0.32742 0.0631,-0.8632 0,-1.19063 z m -5.02241,-1.05833 c -0.0587,-0.47294 -0.10671,-0.086 -0.10671,0.8599 0,0.94588 0.048,1.33284 0.10671,0.85989 0.0587,-0.47294 0.0587,-1.24685 0,-1.71979 z m 10.29056,1.86676 c -0.44076,-0.24666 -0.95696,-0.0875 -0.95696,0.29498 0,0.11675 0.31251,0.15254 0.69447,0.0795 0.57952,-0.11078 0.62297,-0.17277 0.26249,-0.3745 z m -22.58664,0.14623 c 0.94731,-0.15658 0.99218,-0.2103 0.99218,-1.18771 v -1.02372 h -1.16231 c -1.2599,0 -1.48352,0.24256 -1.48352,1.60914 0,0.82604 0.0936,0.86014 1.65365,0.60229 z m 8.63682,-0.51873 c 0.77416,-0.2471 -0.0426,-0.46295 -1.49702,-0.39564 -1.6372,0.0758 -1.78399,0.12369 -1.54808,0.50539 0.14352,0.23222 2.20672,0.15786 3.0451,-0.10975 z m -6.93473,-1.21314 c -0.0845,-0.21107 -0.14716,-0.14837 -0.15985,0.15985 -0.0115,0.27892 0.051,0.43519 0.13896,0.34727 0.0879,-0.0879 0.0973,-0.31612 0.0209,-0.50712 z m 7.18411,0.18129 c 0.33768,-0.33768 -0.32572,-0.43608 -1.79237,-0.26586 -0.88205,0.10238 -1.60373,0.31047 -1.60373,0.46243 0,0.27209 3.1073,0.0922 3.3961,-0.19657 z m -15.83152,-0.66085 c -0.20985,-0.12969 -0.44108,-0.17628 -0.51384,-0.10351 -0.0728,0.0728 0.0394,0.2384 0.24926,0.3681 0.20985,0.12969 0.44108,0.17628 0.51384,0.10351 0.0728,-0.0728 -0.0394,-0.2384 -0.24926,-0.3681 z m 15.29051,-0.15719 c 0.99335,-0.20142 0.39356,-0.61326 -0.67713,-0.46493 -0.74561,0.10329 -0.89017,0.0676 -0.59046,-0.14566 0.21828,-0.15535 0.65774,-0.28427 0.97657,-0.2865 0.96214,-0.007 0.99135,-0.53061 0.0312,-0.56023 l -0.87551,-0.027 0.8599,-0.27585 c 1.30479,-0.41856 1.03567,-0.60604 -0.72712,-0.50652 -1.14838,0.0648 -1.58799,0.19301 -1.58799,0.46302 0,0.22219 0.29461,0.38796 0.72761,0.4094 0.71288,0.0353 0.71422,0.0384 0.0661,0.1547 -0.94962,0.17036 -1.30671,0.59934 -0.51593,0.6198 l 0.64822,0.0168 -0.61231,0.24558 c -0.33677,0.13506 -0.54294,0.3578 -0.45817,0.49497 0.14103,0.2282 1.19198,0.17535 2.73495,-0.13753 z m -14.49676,-0.47342 c 0,-0.48203 -1.25478,-0.72233 -1.42709,-0.2733 -0.13901,0.36228 0.20708,0.58429 0.96407,0.61844 0.25466,0.0115 0.46302,-0.14382 0.46302,-0.34514 z m 7.40834,-0.49559 c 0,-0.46808 -0.23565,-0.67058 -1.09095,-0.93752 -0.60003,-0.18727 -1.1219,-0.30555 -1.15972,-0.26286 -0.0378,0.0427 -0.15167,0.46458 -0.25299,0.93752 l -0.18422,0.8599 h 1.34394 c 1.21847,0 1.34394,-0.0557 1.34394,-0.59704 z m 20.02052,-0.0849 c 0.23073,-0.60127 -0.59983,-1.38205 -1.02155,-0.96033 -0.24946,0.24946 -0.19195,0.31939 0.26269,0.31939 0.75688,0 0.74881,0.4792 -0.0132,0.78551 l -0.59531,0.23928 0.60362,0.0168 c 0.33199,0.009 0.67569,-0.17106 0.76378,-0.40062 z m -19.30897,-1.36854 c -0.0666,-0.25467 -0.121,-0.0463 -0.121,0.46302 0,0.50932 0.0545,0.71768 0.121,0.46302 0.0665,-0.25466 0.0665,-0.67138 0,-0.92604 z m 24.47534,-0.22889 c 0.39211,-0.31468 0.64016,-0.64493 0.55121,-0.73387 -0.0889,-0.089 -0.0308,-0.16172 0.12914,-0.16172 0.15996,0 0.36566,-0.23571 0.45709,-0.5238 0.0914,-0.28808 0.30782,-0.49644 0.48085,-0.46302 0.17303,0.0334 0.28753,-0.08 0.25443,-0.25206 -0.0331,-0.17206 0.35385,-0.56872 0.85989,-0.88148 0.50604,-0.31275 0.92008,-0.69072 0.92008,-0.83995 0,-0.14922 0.17859,-0.20278 0.39687,-0.11901 0.24176,0.0928 0.39688,5.3e-4 0.39688,-0.23628 0,-0.21371 0.1318,-0.38857 0.29289,-0.38857 0.16109,0 0.22814,-0.16874 0.149,-0.37498 -0.0791,-0.20624 0.0347,-0.44352 0.25304,-0.5273 0.21832,-0.0838 0.32284,-0.27222 0.23227,-0.41877 -0.0906,-0.14655 0.0209,-0.26645 0.24781,-0.26645 0.22687,0 0.41249,-0.11906 0.41249,-0.26458 0,-0.14552 0.14883,-0.23482 0.33073,-0.19844 0.18725,0.0375 0.33073,-0.19567 0.33073,-0.53736 0,-0.33193 0.11906,-0.68912 0.26458,-0.79375 0.56259,-0.40452 0.80935,-1.29404 0.65588,-2.36436 -0.11781,-0.82169 -0.0802,-1.04955 0.14283,-0.86448 0.21367,0.17733 0.28703,0.0774 0.24921,-0.33942 -0.0295,-0.32491 -0.15827,-0.57099 -0.28618,-0.54685 -0.12791,0.0241 -0.25845,-0.57117 -0.29007,-1.32291 -0.0316,-0.75175 -0.10179,-1.75376 -0.15591,-2.2267 -0.0541,-0.47295 -7.9e-4,-0.8599 0.11849,-0.8599 0.11928,0 0.15474,-0.38695 0.0788,-0.8599 -0.0759,-0.47294 -0.17911,-1.4552 -0.22925,-2.18281 -0.0502,-0.7276 -0.11885,-1.44198 -0.15267,-1.5875 -0.0338,-0.14552 -0.0385,-0.32411 -0.0105,-0.39687 0.21949,-0.56944 0.22326,-1.32444 0.007,-1.45794 -0.17031,-0.10525 -0.16261,-0.34664 0.0221,-0.6917 0.20477,-0.38263 0.1998,-0.63105 -0.0179,-0.89333 -0.32535,-0.39202 -0.30042,-4.84102 0.0283,-5.04416 0.24605,-0.15207 -0.0255,-1.17329 -0.31202,-1.17329 -0.12225,0 -0.18117,-0.65484 -0.13094,-1.45521 0.0502,-0.80036 0.0126,-1.45521 -0.0836,-1.45521 -0.0962,0 -0.32686,-0.68461 -0.51257,-1.52135 -0.55819,-2.51501 -1.16632,-4.41587 -1.50246,-4.69636 -0.1744,-0.14552 -0.35116,-0.38364 -0.3928,-0.52916 -0.19649,-0.68678 -0.64022,-1.45521 -0.8403,-1.45521 -0.12216,0 -0.22211,-0.16586 -0.22211,-0.36857 0,-0.20271 -0.19563,-0.44364 -0.43474,-0.53539 -0.23911,-0.0918 -0.36782,-0.23375 -0.28603,-0.31555 0.0818,-0.0818 -0.3709,-0.66097 -1.00598,-1.28707 -0.63509,-0.62609 -1.09149,-1.20157 -1.01423,-1.27882 0.0773,-0.0773 -0.10962,-0.27432 -0.41528,-0.43791 -0.42815,-0.22914 -0.58459,-0.21887 -0.68135,0.0447 -0.0691,0.18818 -0.35264,0.99699 -0.63014,1.79735 -0.2775,0.80036 -0.82499,2.21354 -1.21665,3.1404 -0.39166,0.92686 -0.75507,2.02459 -0.80757,2.43942 -0.0525,0.41482 -0.22595,0.99806 -0.38544,1.29608 -0.48171,0.90007 -0.7657,6.74265 -0.50019,10.29027 0.13483,1.80156 0.29556,3.35712 0.35718,3.45682 0.0616,0.0997 0.35935,1.66179 0.66163,3.47132 0.63402,3.79539 1.21049,6.50867 1.60115,7.53617 0.26508,0.69722 0.28872,0.70446 0.79724,0.24426 0.28823,-0.26085 0.61263,-0.38538 0.72088,-0.27673 0.10825,0.10865 -0.0413,0.39565 -0.33235,0.63779 -0.89864,0.74763 -3.7312,4.08507 -4.45317,5.2469 -1.24623,2.00553 -1.21483,2.25323 0.53944,4.25406 0.86182,0.98296 1.83946,2.23799 2.17253,2.78896 0.65678,1.08648 0.52007,1.10137 2.18955,-0.23846 z m -25.09121,0.29503 c 0.0838,-0.21828 0.0497,-0.39687 -0.0757,-0.39687 -0.12538,0 -0.2965,0.17859 -0.38027,0.39687 -0.0838,0.21828 -0.0497,0.39688 0.0757,0.39688 0.12538,0 0.2965,-0.1786 0.38027,-0.39688 z m 10.92746,-0.46302 c -0.0734,-0.1819 -0.13345,-0.0331 -0.13345,0.33073 0,0.3638 0.0601,0.51263 0.13345,0.33073 0.0734,-0.1819 0.0734,-0.47956 0,-0.66146 z m -14.2875,-0.26458 c -0.0734,-0.1819 -0.13345,-0.0331 -0.13345,0.33073 0,0.3638 0.06,0.51263 0.13345,0.33073 0.0734,-0.18191 0.0734,-0.47956 0,-0.66146 z m 2.99754,-0.0675 c 0.14675,0.0907 0.26682,0.0301 0.26682,-0.1347 0,-0.61181 -0.92732,-0.10984 -0.98955,0.53566 l -0.0635,0.65875 0.2597,-0.6123 c 0.14284,-0.33678 0.37978,-0.53811 0.52654,-0.44741 z m 7.87939,0.28221 c 0.29243,-0.29243 -0.0948,-0.34464 -1.5933,-0.21481 -0.83675,0.0725 -1.52136,0.25278 -1.52136,0.40064 0,0.27431 2.82295,0.10588 3.11466,-0.18583 z m -0.0719,-0.98785 c 0.16607,-0.15571 -0.31873,-0.21804 -1.30201,-0.1674 -0.86163,0.0444 -1.61,0.21243 -1.66305,0.37346 -0.11774,0.3574 2.56279,0.17111 2.96506,-0.20606 z m -7.87135,-0.13893 c 0.44694,-0.10644 0.59531,-0.33192 0.59531,-0.90469 0,-0.71366 -0.0683,-0.7629 -1.05833,-0.7629 -0.83017,0 -1.05912,0.0998 -1.06195,0.46302 -0.002,0.25466 -0.0803,0.74972 -0.17408,1.10012 -0.15398,0.57551 -0.10887,0.6182 0.46664,0.44166 0.3504,-0.10749 0.90499,-0.25924 1.23241,-0.33721 z m 7.40833,-0.51144 c 1.19418,-0.32002 0.58254,-0.66385 -0.92604,-0.52056 -1.03768,0.0985 -1.31106,0.0709 -0.8599,-0.0869 0.36381,-0.12726 1.04841,-0.24325 1.52136,-0.25775 1.42636,-0.0438 0.96502,-0.55335 -0.52917,-0.58453 l -1.38906,-0.029 1.16177,-0.22816 c 0.63897,-0.12549 1.25582,-0.17004 1.37078,-0.099 0.11495,0.071 0.27871,0.0164 0.3639,-0.12144 0.26273,-0.42511 -0.2034,-0.51589 -1.70348,-0.33176 l -1.44091,0.17687 -0.094,1.12448 -0.0941,1.12448 1.01177,-0.004 c 0.55646,-0.002 1.27965,-0.0754 1.60707,-0.16315 z m -13.16302,-0.89157 c 0,-0.35277 -0.17639,-0.52916 -0.52917,-0.52916 -0.5099,0 -0.71699,0.51773 -0.35277,0.88194 0.36421,0.36422 0.88194,0.15713 0.88194,-0.35278 z m 14.48367,-4.28911 c -0.0518,-0.91521 -0.0946,-0.23526 -0.0952,1.51099 -5.3e-4,1.74625 0.0419,2.49505 0.0942,1.66401 0.0523,-0.83104 0.0528,-2.25979 9.6e-4,-3.175 z m -11.12793,3.44575 c -0.0845,-0.21106 -0.14716,-0.14837 -0.15985,0.15986 -0.0115,0.27891 0.051,0.43518 0.13896,0.34726 0.0879,-0.0879 0.0973,-0.31612 0.0209,-0.50712 z m 3.25832,-0.44172 c 3.7e-4,-0.42654 -0.11677,-0.5786 -0.37063,-0.48119 -0.20414,0.0783 -0.59109,-0.0242 -0.8599,-0.22786 -0.71957,-0.54518 -0.88561,-0.47307 -0.88561,0.38459 0,0.84228 0.28037,1.04117 1.38853,0.98496 0.5768,-0.0292 0.72719,-0.16577 0.72761,-0.6605 z m -6.34948,-0.0378 c 0,-0.35583 -0.17639,-0.52917 -0.53847,-0.52917 -0.45649,0 -0.49536,0.0806 -0.25528,0.52917 0.15576,0.29104 0.39808,0.52916 0.53848,0.52916 0.1404,0 0.25527,-0.23812 0.25527,-0.52916 z m 7.85627,-1.25174 c -0.0671,-0.25743 -0.12638,-0.11087 -0.13177,0.32569 -0.005,0.43657 0.0495,0.64719 0.12197,0.46806 0.0725,-0.17913 0.0769,-0.53632 0.01,-0.79375 z m 5.73629,0.46502 c 0.32375,-0.32375 -0.0258,-0.34403 -1.78167,-0.10336 -0.67515,0.0925 -1.22755,0.28772 -1.22755,0.43373 0,0.33677 2.63091,0.0479 3.00922,-0.33037 z m -13.32797,-0.40391 c 0,-0.21828 -0.2311,-0.39687 -0.51356,-0.39687 -0.61541,0 -0.94887,0.42905 -0.48028,0.61797 0.63191,0.25476 0.99384,0.17424 0.99384,-0.2211 z m 17.01351,-1.36458 c -0.12162,-1.30252 -0.0846,-1.71206 0.14225,-1.57189 0.16871,0.10427 0.30674,0.0635 0.30674,-0.0906 0,-0.15411 -0.11033,-0.2802 -0.24519,-0.2802 -0.13485,0 -0.29963,-0.20836 -0.36618,-0.46302 -0.18762,-0.71795 -0.20355,2.40774 -0.017,3.34036 0.27278,1.36392 0.35436,0.93893 0.1794,-0.93463 z m -11.10127,1.29844 c 0.0674,-0.10914 -0.15228,-0.19844 -0.48829,-0.19844 -0.33601,0 -0.55573,0.0893 -0.48828,0.19844 0.0675,0.10914 0.28718,0.19843 0.48828,0.19843 0.20111,0 0.42084,-0.0893 0.48829,-0.19843 z m 20.27349,-3.07293 c 0.004,-0.12576 0.61351,-0.92759 1.35356,-1.78184 l 1.34554,-1.55318 -0.40231,-1.26087 c -0.22128,-0.69348 -0.59772,-2.21337 -0.83654,-3.37754 -0.61304,-2.98836 -0.65931,-3.06749 -1.0892,-1.8626 -0.20562,0.5763 -0.93696,2.17614 -1.62521,3.55519 l -1.25137,2.50738 0.0197,2.79481 c 0.011,1.56238 0.16315,3.13974 0.34495,3.57703 l 0.3252,0.78222 0.90382,-1.57597 c 0.49709,-0.86679 0.90741,-1.67887 0.91182,-1.80463 z m -13.33397,2.73479 c 0.39346,-0.14959 0.66512,-0.32224 0.60369,-0.38367 -0.20388,-0.20388 -3.1367,0.19638 -3.1367,0.42809 0,0.31494 1.66461,0.28575 2.53301,-0.0444 z m -12.63811,-1.4478 c 0.0272,-0.72257 -0.0681,-0.92604 -0.43338,-0.92604 -0.35869,0 -0.46819,0.21658 -0.46819,0.92604 0,0.68142 0.11448,0.92604 0.43338,0.92604 0.31227,0 0.44311,-0.25878 0.46819,-0.92604 z m 2.34998,-0.59531 c -0.0666,-0.25467 -0.121,-0.0463 -0.121,0.46302 0,0.50932 0.0545,0.71768 0.121,0.46302 0.0666,-0.25466 0.0666,-0.67138 0,-0.92604 z m 2.18285,0.94078 c 0.38865,-0.24271 0.6639,-0.24403 1.18704,-0.006 0.6765,0.30823 0.68106,0.30237 0.68106,-0.87465 v -1.18495 h -1.32292 -1.32291 v 1.19062 c 0,1.30057 0.0342,1.339 0.77773,0.87464 z m 8.15195,0.14922 c 1.09357,-0.29306 0.612,-0.5508 -0.79375,-0.42482 -1.69236,0.15167 -2.328,0.59309 -0.84666,0.58798 0.5748,-0.002 1.31299,-0.0754 1.64041,-0.16316 z m 0.4498,-1.17716 c 0.15406,-0.1493 -0.32633,-0.24357 -1.24116,-0.24357 -1.36112,0 -1.99695,0.23234 -1.63269,0.5966 0.21532,0.21532 2.58814,-0.0762 2.87385,-0.35303 z m -13.08384,-1.10347 c -1e-4,-0.1819 -0.32581,-0.34965 -0.7238,-0.37277 -0.6849,-0.0398 -0.69634,-0.0221 -0.21383,0.33073 0.62991,0.4606 0.93788,0.47441 0.93763,0.042 z m 13.22936,0.0661 c 0,-0.14552 -0.65485,-0.26459 -1.45521,-0.26459 -0.80037,0 -1.45521,0.11907 -1.45521,0.26459 0,0.14552 0.65484,0.26458 1.45521,0.26458 0.80036,0 1.45521,-0.11906 1.45521,-0.26458 z m -3.52343,-0.57878 c -0.0845,-0.21107 -0.14716,-0.14837 -0.15985,0.15985 -0.0115,0.27892 0.051,0.43519 0.13896,0.34727 0.0879,-0.0879 0.0973,-0.31612 0.0209,-0.50712 z m 7.41095,-0.67296 c -0.0671,-0.25743 -0.12638,-0.11087 -0.13178,0.32569 -0.005,0.43657 0.0495,0.64719 0.12197,0.46806 0.0725,-0.17913 0.0769,-0.53632 0.01,-0.79375 z m -10.89898,0.0611 c 0,-0.35888 -0.20662,-0.55834 -0.64206,-0.61984 -0.35313,-0.0499 -0.90765,-0.2647 -1.23227,-0.4774 -0.71203,-0.46654 -0.88397,-0.24508 -0.70803,0.912 0.13035,0.85732 0.15487,0.87165 1.35755,0.79375 1.02197,-0.0662 1.22481,-0.16697 1.22481,-0.60851 z m 6.01927,0.49164 c 1.18237,-0.19543 1.32924,-0.56422 0.19844,-0.49825 -1.89511,0.11055 -2.11667,0.15278 -2.11667,0.40349 0,0.30314 0.50622,0.32815 1.91823,0.0948 z m -12.16032,-0.62393 c -0.15318,-0.58577 -0.47737,-0.68649 -0.7564,-0.235 -0.1,0.16179 -0.0177,0.39809 0.18282,0.52511 0.56966,0.36082 0.72346,0.28303 0.57358,-0.29011 z m 13.07013,-0.62318 c 0.29208,-0.29208 -0.003,-0.33866 -1.43898,-0.22725 -0.76398,0.0593 -1.38906,0.23047 -1.38906,0.38046 0,0.28984 2.5216,0.15323 2.82804,-0.15321 z m -13.0258,-0.71802 c -0.0837,-0.13546 -0.33837,-0.2463 -0.56588,-0.2463 -0.33633,0 -0.35254,0.0736 -0.0867,0.39396 0.34161,0.41162 0.91767,0.28128 0.65257,-0.14766 z m 5.50141,0.10764 c -0.18191,-0.0734 -0.47956,-0.0734 -0.66146,0 -0.1819,0.0734 -0.0331,0.13345 0.33073,0.13345 0.3638,0 0.51263,-0.06 0.33073,-0.13345 z m -4.11235,-1.47533 c -0.0633,-0.32912 -0.11747,-0.12215 -0.12041,0.45993 -0.003,0.58208 0.0488,0.85136 0.11507,0.5984 0.0662,-0.25297 0.0686,-0.72922 0.005,-1.05833 z m 5.29593,-1.06142 c -0.0587,-0.47295 -0.10671,-0.086 -0.10671,0.85989 0,0.94589 0.048,1.33284 0.10671,0.8599 0.0587,-0.47294 0.0587,-1.24685 0,-1.71979 z m 6.29089,2.18281 c 0.10153,-0.16427 -0.39412,-0.26458 -1.3073,-0.26458 -0.80895,0 -1.47082,0.11906 -1.47082,0.26458 0,0.14552 0.58829,0.26458 1.3073,0.26458 0.71902,0 1.38089,-0.11906 1.47082,-0.26458 z m -12.83634,-1.12448 c 0.002,-0.10914 -0.23826,-0.19844 -0.53442,-0.19844 -0.46785,0 -0.49882,0.0741 -0.23615,0.56492 0.24156,0.45134 0.34899,0.49123 0.53443,0.19843 0.12765,-0.20156 0.23391,-0.45577 0.23614,-0.56491 z m 12.86942,0.33073 c 0.20009,0 0.3638,-0.11906 0.3638,-0.26458 0,-0.29727 -2.08598,-0.36129 -2.80329,-0.086 -0.43209,0.16581 -0.42891,0.19353 0.0445,0.3882 0.2804,0.1153 0.85213,0.15401 1.2705,0.086 0.41837,-0.068 0.92439,-0.12361 1.12448,-0.12361 z m -8.50207,-0.41968 c 0.35228,-0.23082 0.76481,-0.34286 0.91673,-0.24897 0.17458,0.10789 0.27622,-0.22449 0.27622,-0.90323 0,-1.0102 -0.0458,-1.07395 -0.77211,-1.07395 -1.2235,0 -1.60914,0.25523 -1.60914,1.065 0,0.75368 0.22734,1.58083 0.43449,1.58083 0.0623,0 0.40153,-0.18886 0.75381,-0.41968 z m 33.91744,-0.42368 c -0.0845,-0.21107 -0.14715,-0.14837 -0.15985,0.15985 -0.0115,0.27892 0.051,0.43519 0.13897,0.34727 0.0879,-0.0879 0.0973,-0.31612 0.0209,-0.50712 z m -25.14007,-0.30286 c 0.3792,-0.37921 -0.21512,-0.49737 -1.61919,-0.32195 -1.9442,0.24291 -1.95497,0.78039 -0.0124,0.61929 0.8002,-0.0663 1.53442,-0.20016 1.6316,-0.29734 z m -13.49441,-0.77201 c -0.0393,-0.78396 -0.12491,-0.86585 -0.96917,-0.92735 l -0.92605,-0.0675 0.89178,0.39882 c 0.69874,0.31249 0.82809,0.47553 0.5976,0.75326 -0.16179,0.19494 -0.21582,0.43278 -0.12007,0.52853 0.37904,0.37904 0.56702,0.13391 0.52591,-0.6858 z m 13.7802,-0.30753 c 0.35255,-0.35255 -0.23228,-0.44239 -1.75698,-0.26989 -2.14384,0.24255 -2.15016,0.76556 -0.007,0.57122 0.88463,-0.0802 1.67838,-0.21582 1.76389,-0.30133 z m -12.45032,-1.14768 c -0.0665,-0.25466 -0.121,-0.0463 -0.121,0.46302 0,0.50933 0.0545,0.71769 0.121,0.46302 0.0666,-0.25466 0.0666,-0.67138 0,-0.92604 z m 16.39701,0.13229 c -0.0734,-0.1819 -0.13346,-0.0331 -0.13346,0.33073 0,0.36381 0.0601,0.51263 0.13346,0.33073 0.0734,-0.1819 0.0734,-0.47955 0,-0.66146 z m -4.21013,0.0396 c 0.41146,-0.15544 0.59532,-0.4419 0.59532,-0.92752 0,-0.66469 -0.0536,-0.69377 -0.99219,-0.53863 -0.5457,0.0902 -1.37914,0.16531 -1.85208,0.16691 -0.50978,0.002 -0.86005,0.13757 -0.86026,0.33364 -2.5e-4,0.22594 0.43988,0.3225 1.38906,0.30474 1.27484,-0.0238 1.29123,-0.0171 0.1988,0.082 -1.2962,0.11759 -1.75271,0.38864 -1.45792,0.86563 0.19523,0.31588 1.79047,0.16232 2.97927,-0.28679 z m -7.60677,-0.59536 c 0,-0.40023 -0.17634,-0.58179 -0.59531,-0.61296 -0.32742,-0.0244 -0.92273,-0.12754 -1.32292,-0.22928 -0.67112,-0.17064 -0.7276,-0.12441 -0.7276,0.5955 0,0.42927 0.0511,0.83163 0.11363,0.89413 0.0625,0.0625 0.65781,0.0704 1.32292,0.0175 1.03106,-0.082 1.20928,-0.17999 1.20928,-0.66485 z m -6.20088,-0.11879 c -0.19006,-0.59884 -1.36417,-0.71573 -1.57852,-0.15715 -0.0898,0.2339 0.1582,0.43886 0.71199,0.58855 1.01168,0.27345 1.07952,0.23967 0.86653,-0.4314 z m 14.84829,0.16196 c -0.0845,-0.21106 -0.14716,-0.14837 -0.15985,0.15986 -0.0115,0.27891 0.051,0.43518 0.13896,0.34726 0.0879,-0.0879 0.0973,-0.31612 0.0209,-0.50712 z m 7.9986,-1.12544 c -0.0182,-0.43712 -0.0649,-0.40509 -0.23616,0.16214 -0.11737,0.38878 -0.29457,0.86503 -0.39375,1.05833 -0.0992,0.1933 0.007,0.12034 0.23616,-0.16213 0.22907,-0.28248 0.40626,-0.75873 0.39375,-1.05834 z m -3.77078,-0.47859 c -0.0734,-0.1819 -0.13345,-0.0331 -0.13345,0.33073 0,0.3638 0.0601,0.51263 0.13345,0.33073 0.0734,-0.18191 0.0734,-0.47956 0,-0.66146 z m -19.22523,0.17013 c 0,-0.27901 -0.14388,-0.36997 -0.41851,-0.26459 -0.23018,0.0883 -0.5944,0.1606 -0.80937,0.1606 -0.21496,0 -0.31726,0.11907 -0.22733,0.26459 0.27494,0.44486 1.45521,0.3146 1.45521,-0.1606 z m 6.19546,-0.009 c 0.13739,-0.35805 0.0979,-0.37728 -0.22468,-0.10952 -0.21524,0.17863 -0.53402,0.23661 -0.7084,0.12884 -0.20057,-0.12396 -0.2477,-0.0837 -0.12827,0.10951 0.27529,0.44543 0.86862,0.3734 1.06135,-0.12883 z m 7.76131,0.0118 c 1.23533,-0.18775 1.05998,-0.63023 -0.26458,-0.66766 l -1.12448,-0.0318 1.12448,-0.2704 c 1.29293,-0.31091 1.56305,-0.87825 0.29766,-0.62517 -0.45476,0.0909 -1.34772,0.16537 -1.98438,0.16537 -0.80014,0 -1.15755,0.11121 -1.15755,0.36018 0,0.2368 0.21596,0.3189 0.63044,0.23967 0.34675,-0.0663 0.71096,0.01 0.80937,0.16898 0.11465,0.18551 -0.1118,0.2895 -0.63045,0.2895 -0.51868,0 -0.80936,0.1335 -0.80936,0.3717 0,0.37087 0.66653,0.37079 3.10885,-5.3e-4 z m 5.47365,-3.5463 c 0.54779,-2.99137 0.95583,-6.09669 1.07775,-8.20208 0.0571,-0.98534 -0.1192,-0.19439 -0.41274,1.85208 -0.28179,1.96453 -0.75135,4.96027 -1.04346,6.65719 -0.29213,1.69691 -0.51898,3.1852 -0.50412,3.30729 0.0472,0.3879 0.45689,-1.28996 0.88257,-3.61448 z m 3.76907,2.59622 c -0.0845,-0.21106 -0.14715,-0.14837 -0.15985,0.15986 -0.0115,0.27891 0.0511,0.43518 0.13897,0.34726 0.0879,-0.0879 0.0973,-0.31612 0.0209,-0.50712 z m -23.46407,-0.091 c 0,-0.29853 -0.24371,-0.38875 -0.92604,-0.34279 -1.10416,0.0744 -1.22112,0.40352 -0.19844,0.55845 0.40018,0.0606 0.8169,0.12806 0.92604,0.14986 0.10914,0.0218 0.19844,-0.14268 0.19844,-0.36552 z m 7.37703,-0.0579 c -0.0172,-0.25467 -0.12219,-0.82021 -0.23328,-1.25678 -0.18029,-0.70851 -0.20534,-0.65879 -0.23328,0.46303 -0.0172,0.69122 0.0878,1.25677 0.23328,1.25677 0.14552,0 0.2505,-0.20836 0.23328,-0.46302 z m 0.47663,-0.11576 c -0.0845,-0.21107 -0.14716,-0.14837 -0.15986,0.15985 -0.0115,0.27892 0.0511,0.43519 0.13897,0.34727 0.0879,-0.0879 0.0973,-0.31612 0.0209,-0.50712 z m 12.48641,-2.33164 c -0.0359,-0.62863 -0.72061,1.6458 -0.71691,2.38125 0.002,0.39579 0.15117,0.13013 0.37144,-0.66146 0.20246,-0.7276 0.35792,-1.50151 0.34547,-1.71979 z m -18.04266,2.06706 c -0.0845,-0.21107 -0.14716,-0.14838 -0.15986,0.15985 -0.0115,0.27891 0.0511,0.43518 0.13897,0.34727 0.0879,-0.0879 0.0973,-0.31613 0.0209,-0.50712 z m 2.86196,0.31419 c 0.0899,-0.14552 0.42754,-0.26458 0.75022,-0.26458 0.5249,0 0.57606,-0.11146 0.48576,-1.05834 l -0.10093,-1.05833 h -1.29513 -1.29512 v 1.32292 c 0,1.22619 0.0472,1.32291 0.64584,1.32291 0.35521,0 0.71943,-0.11906 0.80936,-0.26458 z m 10.62627,-0.59531 c -0.0734,-0.1819 -0.13345,-0.0331 -0.13345,0.33073 0,0.3638 0.0601,0.51263 0.13345,0.33073 0.0734,-0.18191 0.0734,-0.47956 0,-0.66146 z m -16.17153,-0.71547 c -0.46559,-0.51447 -1.43968,-4.04528 -1.45716,-5.28176 -0.0149,-1.05554 0.21748,-0.50218 0.64737,1.54144 0.62215,2.95758 0.95511,3.19547 0.77427,0.55318 -0.32596,-4.76257 -0.88449,-10.60634 -1.03738,-10.85371 -0.088,-0.14233 -0.29043,-0.25879 -0.44992,-0.25879 -0.20361,0 -0.25028,1.24109 -0.1567,4.16719 0.0875,2.73513 0.0586,3.62164 -0.084,2.57969 -0.11953,-0.87313 -0.21362,-2.83766 -0.2091,-4.36563 0.005,-1.52797 0.001,-2.92695 -0.007,-3.10885 -0.0232,-0.49671 -0.49083,-0.39776 -0.62519,0.13229 -0.0646,0.25466 -0.0788,0.0664 -0.0316,-0.41836 0.0704,-0.72324 0.0205,-0.82716 -0.27828,-0.57921 -0.20025,0.1662 -0.57981,0.26516 -0.84346,0.21993 -0.41225,-0.0707 -0.51009,0.19554 -0.69887,1.90212 -0.3075,2.77964 -0.0556,7.57396 0.49543,9.42789 0.7271,2.44653 1.55135,4.5869 1.76802,4.59114 0.33057,0.006 0.22589,-0.49255 -0.33322,-1.58851 -1.26348,-2.47662 -1.88977,-7.34279 -1.46364,-11.37219 l 0.29381,-2.77812 0.0163,4.63021 c 0.009,2.57043 0.1552,5.21871 0.3285,5.95312 0.41791,1.771 1.88621,5.42396 2.18016,5.42396 0.33726,0 0.2985,-0.26131 -0.29432,-1.98438 -0.29104,-0.84592 -0.52405,-1.72776 -0.51779,-1.95964 0.006,-0.23189 0.33734,0.50773 0.73573,1.64359 0.3984,1.13586 0.89584,2.17118 1.10544,2.30072 0.58583,0.36206 0.6683,0.0633 0.14281,-0.51732 z m -2.23906,-4.39981 c 0.0127,-0.30823 0.0754,-0.37092 0.15986,-0.15985 0.0764,0.19099 0.067,0.4192 -0.0209,0.50712 -0.0879,0.0879 -0.15045,-0.0684 -0.13897,-0.34727 z m -0.52813,-1.97535 c -0.15757,-0.73477 -0.2649,-2.72906 -0.23849,-4.43177 l 0.048,-3.09583 0.1786,3.43958 c 0.0982,1.89177 0.2708,3.88607 0.38348,4.43177 0.11268,0.54571 0.13963,0.99219 0.0599,0.99219 -0.0797,0 -0.27392,-0.60117 -0.4315,-1.33594 z m 19.21143,5.11129 c -0.0671,-0.25743 -0.12638,-0.11087 -0.13177,0.32569 -0.005,0.43656 0.0495,0.64719 0.12197,0.46806 0.0725,-0.17913 0.0769,-0.53632 0.01,-0.79375 z m 7.93489,0.40837 c -0.0845,-0.21106 -0.14716,-0.14837 -0.15985,0.15986 -0.0115,0.27891 0.051,0.43518 0.13896,0.34726 0.0879,-0.0879 0.0973,-0.31612 0.0209,-0.50712 z m -21.9578,-0.93754 c -0.0671,-0.25743 -0.12638,-0.11087 -0.13178,0.32569 -0.005,0.43657 0.0495,0.64719 0.12197,0.46806 0.0725,-0.17913 0.0769,-0.53632 0.01,-0.79375 z m 3.48774,0.29262 c 0.70059,-0.14012 0.82682,-0.28387 0.82682,-0.94166 0,-0.47195 -0.10829,-0.70936 -0.27622,-0.60557 -0.15192,0.0939 -0.56445,-0.0181 -0.91673,-0.24897 -0.35228,-0.23083 -0.88656,-0.41968 -1.18728,-0.41968 -0.46482,0 -0.53885,0.1487 -0.49395,0.99218 0.0291,0.54571 0.0993,1.08149 0.1562,1.19063 0.12596,0.24178 0.78958,0.25339 1.89116,0.0331 z m 19.31589,-2.48047 c -0.0326,-0.54605 -0.72068,1.59134 -0.72395,2.24896 -0.001,0.29104 0.16618,-0.007 0.37252,-0.66146 0.20634,-0.65484 0.36448,-1.36922 0.35143,-1.5875 z m 0.2125,1.80248 c -0.0845,-0.21107 -0.14715,-0.14838 -0.15985,0.15985 -0.0115,0.27891 0.051,0.43518 0.13897,0.34727 0.0879,-0.0879 0.0973,-0.31613 0.0209,-0.50712 z m -14.81666,-0.26459 c -0.0845,-0.21106 -0.14716,-0.14837 -0.15986,0.15986 -0.0115,0.27891 0.0511,0.43518 0.13897,0.34726 0.0879,-0.0879 0.0973,-0.31612 0.0209,-0.50712 z m 6.64718,-8.28476 c -8.2e-4,-1.89177 -0.0876,-3.73724 -0.19286,-4.10104 -0.18104,-0.62584 -0.19933,-0.61159 -0.33951,0.26458 -0.0815,0.50932 -0.0258,1.07813 0.12383,1.26401 0.25296,0.3143 0.19274,3.48684 -0.18191,9.58391 -0.10271,1.67145 -0.0657,1.54628 0.23501,-0.79375 0.19632,-1.52797 0.35626,-4.32594 0.35544,-6.21771 z m 4.41339,3.78574 c 0.2202,-2.19569 0.38336,-5.25541 0.36259,-6.79937 l -0.0378,-2.80721 -0.2154,3.3073 c -0.31517,4.83926 -0.75634,10.0891 -0.91158,10.84791 -0.13389,0.65441 -0.13247,0.65497 0.13324,0.0525 0.14771,-0.33493 0.44873,-2.40544 0.66892,-4.60113 z m -18.739,3.95332 c -0.0734,-0.1819 -0.13345,-0.0331 -0.13345,0.33073 0,0.3638 0.06,0.51263 0.13345,0.33073 0.0734,-0.1819 0.0734,-0.47956 0,-0.66146 z m 5.46203,-8.33437 c 0.0652,-0.61847 0.0141,-1.12448 -0.11351,-1.12448 -0.12765,0 -0.23587,0.26789 -0.2405,0.59531 -0.008,0.58042 -0.0181,0.58246 -0.39687,0.0817 -0.28226,-0.37318 -0.39248,-0.40934 -0.40315,-0.13229 -0.008,0.20971 -0.0769,1.84881 -0.15293,3.64244 -0.076,1.79363 -0.0399,3.4605 0.0804,3.70417 0.13271,0.26896 0.27553,-0.90839 0.36349,-2.99656 l 0.14489,-3.43959 0.0928,3.96875 0.0928,3.96876 0.207,-3.57188 c 0.11385,-1.96453 0.26036,-4.07789 0.32557,-4.69635 z m -1.66851,7.33487 c 0,-0.13236 -0.17791,-0.17239 -0.39536,-0.089 -0.21744,0.0834 -0.32828,0.26024 -0.2463,0.39289 0.17147,0.27743 0.64166,0.0547 0.64166,-0.30394 z m -4.49792,-3.96144 c 0,-2.64583 -0.0992,-4.23333 -0.26458,-4.23333 -0.15377,0 -0.26392,0.85884 -0.263,2.05052 0.002,2.23336 0.28499,6.41615 0.43451,6.41615 0.0512,0 0.0931,-1.905 0.0931,-4.23334 z m 0.7865,2.71198 c -0.0308,-0.83674 -0.0223,-2.1762 0.0188,-2.97656 l 0.0747,-1.45521 0.17833,1.45521 c 0.14723,1.20143 0.17892,0.99379 0.18171,-1.19063 0.003,-1.95498 -0.0449,-2.33495 -0.18171,-1.4552 l -0.18511,1.19062 -0.0397,-1.12448 c -0.0219,-0.61846 -0.16767,-1.12448 -0.32403,-1.12448 -0.27695,0 -0.29961,4.4233 -0.0363,7.07761 0.16323,1.64528 0.37838,1.37275 0.31331,-0.39688 z m 0.46135,-0.52916 c -0.0606,-0.40019 -0.11023,-0.0728 -0.11023,0.7276 0,0.80036 0.0496,1.12779 0.11023,0.7276 0.0606,-0.40018 0.0606,-1.05502 0,-1.4552 z m 21.94613,0.39687 c -0.0734,-0.1819 -0.13345,-0.0331 -0.13345,0.33073 0,0.3638 0.0601,0.51263 0.13345,0.33073 0.0734,-0.1819 0.0734,-0.47956 0,-0.66146 z m -20.10252,0.11957 c 0.31786,-0.1749 0.76434,-0.31801 0.99219,-0.31801 0.2655,0 0.41427,-0.23754 0.41427,-0.66145 0,-0.62538 -0.0794,-0.66146 -1.45521,-0.66146 h -1.45521 v 0.88194 c 0,1.27887 0.29166,1.42606 1.50396,0.75898 z m 20.37262,-1.16137 c -0.0845,-0.21106 -0.14716,-0.14837 -0.15985,0.15986 -0.0115,0.27891 0.051,0.43518 0.13896,0.34726 0.0879,-0.0879 0.0973,-0.31612 0.0209,-0.50712 z m -19.01473,-1.60403 c 0.0667,-0.57992 -0.0241,-0.72761 -0.44741,-0.72761 -0.29212,0 -0.60471,-0.11906 -0.69465,-0.26458 -0.0899,-0.14552 -0.51368,-0.26458 -0.94165,-0.26458 -0.7055,0 -0.77814,0.0823 -0.77814,0.88194 0,1.15829 0.15416,1.27367 1.57765,1.18077 1.0901,-0.0711 1.20818,-0.14524 1.2842,-0.80594 z m 0.0486,-1.35821 c 0,-0.0558 -0.23829,-0.16374 -0.52953,-0.2399 -0.29124,-0.0762 -0.46281,-0.0305 -0.38126,0.10143 0.14241,0.23043 0.91079,0.34725 0.91079,0.13847 z m 9.97909,-2.47825 c -0.0606,-0.40018 -0.11022,-0.0728 -0.11022,0.7276 0,0.80037 0.0496,1.12779 0.11022,0.72761 0.0606,-0.40018 0.0606,-1.05503 0,-1.45521 z m -11.15019,0.9606 c 0.0792,-0.12815 0.37509,-0.233 0.65755,-0.233 0.29766,0 0.51355,-0.18074 0.51355,-0.42994 0,-0.34044 -0.17215,-0.39552 -0.82682,-0.26459 -0.45476,0.091 -1.03618,0.16537 -1.29206,0.16537 -0.41894,0 -0.89474,0.86694 -0.62425,1.13742 0.17585,0.17585 1.41411,-0.11974 1.57203,-0.37526 z m 15.7595,-2.95709 c 0.0455,-1.86179 -0.0341,-2.66485 -0.28731,-2.90163 -0.2863,-0.26769 -0.32013,-0.20677 -0.18549,0.33406 0.0906,0.3638 0.1663,1.7231 0.16829,3.02066 0.005,3.13296 0.22495,2.80539 0.30451,-0.45309 z m -13.27949,0.84166 c 0.5165,-0.33045 -1.90645,-0.0449 -2.73291,0.32207 -0.39301,0.17451 -0.12994,0.20283 0.88082,0.0948 0.79266,-0.0847 1.6261,-0.27231 1.85209,-0.41689 z m -5.01308,-0.26254 c 0,-0.16109 0.1786,-0.22436 0.39688,-0.1406 0.55811,0.21417 0.49359,-0.26354 -0.11822,-0.87536 -0.28331,-0.2833 -0.70308,-0.87861 -0.93284,-1.32291 -0.22976,-0.4443 -0.53374,-0.80782 -0.67553,-0.80782 -0.14178,0 -0.25779,-0.22207 -0.25779,-0.49349 0,-0.27142 -0.22144,-0.77743 -0.4921,-1.12448 -0.55645,-0.7135 -0.88286,-2.00516 -0.88221,-3.49099 4e-4,-0.91032 -0.0347,-0.96156 -0.36254,-0.52917 -0.34636,0.45683 -0.36385,0.45452 -0.38199,-0.0504 -0.0155,-0.43258 -0.0968,-0.38548 -0.44495,0.258 -0.23427,0.43295 -0.56864,1.32592 -0.74303,1.98438 -0.1744,0.65846 -0.39796,1.45015 -0.4968,1.75931 -0.13633,0.42643 0.1064,0.91333 1.00567,2.01728 1.65329,2.02959 4.38545,3.78413 4.38545,2.81626 z m -0.93692,-1.31221 c -0.0959,-0.1552 -0.11765,-0.33893 -0.0483,-0.40829 0.0694,-0.0693 0.1966,0.0576 0.28277,0.28219 0.17891,0.46622 0.0264,0.54823 -0.23447,0.1261 z m -0.79317,-1.3167 c -0.4019,-0.44409 -0.41287,-0.51126 -0.0615,-0.37642 0.23525,0.0903 0.49273,0.33352 0.57218,0.54055 0.19767,0.51513 0.0656,0.47269 -0.51071,-0.16413 z m -0.65116,-1.04695 c 0,-0.14552 0.11907,-0.26458 0.26459,-0.26458 0.14552,0 0.26458,0.11906 0.26458,0.26458 0,0.14552 -0.11906,0.26458 -0.26458,0.26458 -0.14552,0 -0.26459,-0.11906 -0.26459,-0.26458 z m -0.62877,-1.20085 c -0.0907,-0.23646 -0.15474,-0.62855 -0.14224,-0.87131 0.0125,-0.24276 0.12764,-0.0902 0.25584,0.33907 0.24941,0.83509 0.1612,1.24836 -0.1136,0.53224 z m -0.86743,-2.38244 c -0.0862,-0.22455 -0.0824,-0.48252 0.008,-0.57326 0.0907,-0.0907 0.16498,0.0235 0.16498,0.25395 0,0.2304 0.14882,0.47897 0.33073,0.55237 0.25904,0.10453 0.25724,0.13798 -0.008,0.15434 -0.18647,0.0115 -0.40954,-0.16284 -0.49571,-0.3874 z m 1.73874,7.20324 c -0.0606,-0.0463 -0.76053,-0.6714 -1.55532,-1.38906 -0.95796,-0.86499 -1.22552,-1.02817 -0.79375,-0.48408 0.58208,0.73351 2.04852,1.95736 2.34534,1.95736 0.0627,0 0.0644,-0.0379 0.004,-0.0842 z m 9.81163,-0.49365 c 0.27409,-0.17216 0.1513,-0.1974 -0.39688,-0.0816 -0.43656,0.0922 -0.91281,0.29173 -1.05833,0.44331 -0.30797,0.3208 0.81167,0.0425 1.45521,-0.36174 z m -2.74834,0.0136 c 0.86947,-0.21894 1.62568,-0.71798 2.80649,-1.85209 0.88898,-0.85381 1.69355,-1.55239 1.78792,-1.55239 0.0944,0 0.52129,-0.36619 0.9487,-0.81375 0.42741,-0.44756 1.31289,-1.22367 1.96773,-1.72468 0.65484,-0.50102 2.02406,-1.87634 3.04271,-3.05629 1.01864,-1.17994 2.68011,-3.10294 3.69215,-4.27333 1.70298,-1.96944 1.80184,-2.14928 1.32695,-2.41382 -0.28222,-0.15721 -1.44253,-1.23834 -2.57846,-2.40251 -1.7284,-1.77136 -2.31067,-2.61304 -3.56916,-5.15937 -0.8271,-1.67349 -1.76771,-3.25418 -2.09024,-3.51264 -0.32253,-0.25845 -0.66156,-0.70667 -0.7534,-0.99602 -0.0918,-0.28936 -0.29395,-0.44764 -0.44914,-0.35173 -0.19198,0.11865 -0.22626,-0.15492 -0.10724,-0.85605 l 0.17491,-1.03044 -0.60131,0.78904 c -0.33072,0.43397 -0.60131,1.13395 -0.60131,1.55549 0,0.84939 -0.62014,1.40135 -1.28696,1.14547 -0.47239,-0.18128 -0.59493,-1.37421 -0.16825,-1.63792 0.14552,-0.0899 0.26458,-0.4343 0.26458,-0.76526 0,-0.81399 0.27861,-1.03648 0.65439,-0.52258 0.26756,0.36591 0.44507,0.23546 1.30111,-0.95607 0.5452,-0.75889 0.92357,-1.44751 0.84081,-1.53027 -0.0828,-0.0828 -0.15047,-0.0243 -0.15047,0.12991 0,0.1542 -0.20836,0.35969 -0.46302,0.45664 -0.37125,0.14134 -0.39747,0.11024 -0.1323,-0.1569 0.45459,-0.45794 0.41485,-1.57701 -0.0811,-2.28514 -0.25017,-0.35716 -0.2971,-0.58803 -0.11952,-0.58803 0.16079,0 0.4715,0.38695 0.69046,0.85989 l 0.39811,0.8599 -0.1522,-0.9225 c -0.20391,-1.2359 -0.76003,-1.80034 -1.31774,-1.33748 -0.55351,0.45938 -0.51598,0.96353 0.11901,1.59852 0.29104,0.29104 0.52872,0.61846 0.52818,0.7276 -0.002,0.38734 -1.05383,1.91823 -1.31804,1.91823 -0.47465,0 -0.28603,-0.76573 0.2607,-1.05833 0.762,-0.40781 0.67789,-1.2328 -0.14166,-1.38946 -0.46955,-0.0898 -0.74862,0.0171 -0.93008,0.35617 -0.14259,0.26643 -0.41256,0.42559 -0.59995,0.35368 -0.41084,-0.15765 -1.2813,-1.57088 -1.08714,-1.76503 0.0757,-0.0757 -0.16908,-0.21462 -0.54396,-0.30871 -0.5837,-0.1465 -0.67284,-0.30114 -0.62061,-1.07667 0.0384,-0.57047 -0.11509,-1.10017 -0.41484,-1.43138 -0.46523,-0.51408 -0.45457,-0.52977 0.47892,-0.70489 1.33835,-0.25108 1.3738,-0.52164 0.0637,-0.48658 -0.60457,0.0162 -0.78194,-0.0204 -0.39414,-0.0812 0.3878,-0.0609 0.76327,-0.26228 0.83438,-0.4476 0.0984,-0.25656 -0.43717,-0.34187 -2.24501,-0.35759 -2.66019,-0.0231 -3.53738,-0.44327 -3.3183,-1.58932 0.064,-0.33496 0.0133,-0.67274 -0.11268,-0.75061 -0.12601,-0.0779 -0.2291,0.20988 -0.2291,0.63946 0,0.48001 -0.16734,0.84528 -0.43415,0.94766 -0.5168,0.19832 -1.47195,-0.0625 -1.74461,-0.47637 -0.13661,-0.20737 -0.19559,-0.19677 -0.19844,0.0357 -0.005,0.40388 -0.27685,0.4151 -1.23463,0.051 -0.59399,-0.22583 -0.66108,-0.32882 -0.34795,-0.53419 0.3294,-0.21605 0.30809,-0.31529 -0.14126,-0.65798 -0.48905,-0.37295 -0.53983,-0.35868 -0.66979,0.18824 -0.0774,0.32549 -0.0486,1.54339 0.0638,2.70645 0.19868,2.05526 0.18111,2.15602 -0.62545,3.5871 -0.45642,0.80985 -1.00431,1.73953 -1.21753,2.06597 -0.36107,0.55279 -0.3312,0.64306 0.43534,1.31568 0.45265,0.3972 0.823,0.9176 0.823,1.15644 0,0.23885 0.47625,0.76431 1.05834,1.16769 1.19675,0.82935 1.31032,1.11633 0.49004,1.23837 -0.60229,0.0896 -0.77112,0.33231 -1.24505,1.78992 -0.43764,1.34599 0.10984,2.05265 1.74218,2.24871 1.99438,0.23953 3.59892,0.67391 4.07251,1.1025 0.29984,0.27135 0.61949,1.57863 1.02199,4.17967 0.63538,4.10591 0.57044,4.61382 -0.74186,5.80143 -0.52015,0.47072 -0.54345,0.46892 -0.82872,-0.0641 -0.25051,-0.46808 -0.36989,-0.50074 -0.8148,-0.22289 -0.28671,0.17906 -0.52129,0.48236 -0.52129,0.67401 0,0.19166 -0.31157,0.90654 -0.69238,1.58863 -0.60263,1.07941 -0.67635,1.46326 -0.56877,2.96133 0.13707,1.90859 1.01721,4.05292 2.3502,5.72592 0.44801,0.56228 0.98462,1.34976 1.19247,1.74994 0.42955,0.82706 1.1833,0.92873 3.17222,0.42792 z m -10.01781,-31.38635 c -0.40018,-0.24811 -0.7276,-0.5426 -0.7276,-0.65442 0,-0.35616 1.18345,-0.21851 1.79321,0.20858 1.23941,0.86812 0.2698,1.2738 -1.06561,0.44584 z m 2.81616,-2.908 c -0.39888,-0.39887 -0.40695,-0.4741 -0.0581,-0.5413 0.59095,-0.11383 0.2979,-1.37717 -0.31946,-1.37717 -0.63013,0 -0.8051,-0.58338 -0.28899,-0.96355 0.33205,-0.2446 0.34732,-0.37776 0.0802,-0.69958 -0.4725,-0.56932 0.27503,-1.24728 1.37528,-1.24728 0.89554,0 2.83276,1.08377 3.71193,2.07663 0.744,0.8402 0.0339,0.70648 -1.11485,-0.20994 -0.53717,-0.42853 -1.31769,-0.907 -1.73448,-1.06327 -0.65297,-0.24482 -0.73532,-0.22554 -0.59531,0.13932 0.0894,0.2329 0.16249,0.47325 0.16249,0.5341 0,0.0609 0.11309,0.11066 0.25132,0.11066 0.28031,0 2.57632,1.50409 2.76702,1.81265 0.067,0.10834 0.0403,0.31905 -0.0592,0.46824 -0.25528,0.38262 -1.10702,0.6634 -1.10702,0.36494 0,-0.13639 -0.17859,-0.17944 -0.39687,-0.0957 -0.21828,0.0838 -0.39688,0.0332 -0.39688,-0.11229 0,-0.14552 -0.18135,-0.33417 -0.40299,-0.41923 -0.32879,-0.12616 -0.35144,-0.0583 -0.12299,0.36857 0.15401,0.28777 0.45442,0.52321 0.66758,0.52321 0.21317,0 0.38757,0.0935 0.38757,0.20789 0,0.11434 -0.20836,0.21038 -0.46302,0.21342 -0.25466,0.003 -0.78183,0.0882 -1.17149,0.18922 -0.50581,0.13115 -0.84098,0.0512 -1.17173,-0.27956 z m 2.27707,-2.18305 c -0.3638,-0.28457 -0.84005,-0.51942 -1.05833,-0.52189 -0.21828,-0.002 -0.0397,0.2243 0.39687,0.50394 1.04131,0.66701 1.5074,0.67965 0.66146,0.018 z m 9.525,35.83063 0.66146,-0.39854 -0.66146,0.17534 c -0.3638,0.0964 -0.84005,0.27637 -1.05833,0.39986 -0.35278,0.19959 -0.35278,0.22439 0,0.22321 0.21828,-8e-4 0.69453,-0.18068 1.05833,-0.39987 z m 3.89755,-1.6328 c 1.05225,-0.52725 1.87413,-0.99768 1.8264,-1.04542 -0.0477,-0.0477 -1.20632,0.45728 -2.57464,1.12225 -1.36832,0.66497 -2.19019,1.13541 -1.82639,1.04542 0.3638,-0.09 1.52239,-0.59501 2.57463,-1.12225 z m -4.30346,-0.0315 c -0.0539,-0.0539 -0.27665,0.0805 -0.49493,0.29882 -0.21828,0.21828 -0.32502,0.46873 -0.2372,0.55655 0.0878,0.0878 0.31054,-0.0466 0.49494,-0.29881 0.18439,-0.25218 0.29113,-0.50262 0.23719,-0.55656 z m 1.25258,0.49411 c 0.26194,0 0.47625,-0.11907 0.47625,-0.26459 0,-0.14552 0.0893,-0.2419 0.19844,-0.21418 0.56095,0.14248 2.27081,-0.5089 4.10104,-1.56233 1.73631,-0.99937 2.0523,-1.28816 2.06213,-1.88466 0.006,-0.38745 0.1975,-1.1807 0.4247,-1.76279 0.22719,-0.58208 0.43838,-1.30246 0.46931,-1.60086 0.0309,-0.29839 0.1445,-0.68534 0.25238,-0.85989 0.39539,-0.63975 -0.34275,-0.29512 -0.87865,0.41023 -0.90279,1.18825 -1.93602,2.3646 -2.99133,3.40568 -0.5457,0.53834 -0.99219,1.20529 -0.99219,1.4821 0,0.32089 -0.16781,0.48623 -0.46302,0.4562 -0.88142,-0.0897 -1.10914,0.0168 -1.45737,0.68144 -0.19238,0.36718 -0.75464,0.87319 -1.24946,1.12448 -0.49482,0.25128 -0.95141,0.63547 -1.01465,0.85375 -0.0928,0.32025 -0.0473,0.33302 0.2356,0.0661 0.19281,-0.18191 0.56488,-0.33073 0.82682,-0.33073 z m 5.2428,-4.81303 c -0.002,-0.24608 0.11501,-0.52099 0.26053,-0.61093 0.33486,-0.20695 0.33486,0.1433 0,0.66146 -0.22103,0.34202 -0.25704,0.33504 -0.26053,-0.0505 z m -20.87232,3.81788 c -0.13716,-0.25629 -0.48778,-0.68173 -0.77916,-0.94543 l -0.52978,-0.47944 0.53883,-1.59557 c 0.31914,-0.94502 0.61806,-1.46738 0.73315,-1.28117 0.13385,0.21658 0.23756,0.16337 0.3333,-0.17098 0.0764,-0.26696 0.22024,-0.72351 0.31956,-1.01455 0.12126,-0.35534 0.0473,-0.31188 -0.22519,0.13229 -0.5582,0.90993 -0.52243,0.54129 0.10815,-1.11469 0.41162,-1.08093 0.43677,-1.27859 0.11067,-0.86969 -0.83596,1.04823 -2.23084,4.10467 -2.23084,4.88819 0,0.44019 -0.11446,0.80035 -0.25434,0.80035 -0.21157,0 1.81832,2.08978 2.04958,2.11006 0.0415,0.004 -0.0368,-0.20308 -0.17393,-0.45937 z m 28.36791,0.0577 c -0.0862,-0.22455 -0.21343,-0.35154 -0.28278,-0.28218 -0.0694,0.0694 -0.0476,0.25308 0.0483,0.40828 0.26089,0.42214 0.41338,0.34013 0.23448,-0.1261 z m 0.8858,-0.57886 c -0.0671,-0.25743 -0.12638,-0.11087 -0.13178,0.32569 -0.005,0.43656 0.0495,0.64719 0.12197,0.46806 0.0725,-0.17913 0.0769,-0.53632 0.01,-0.79375 z m -30.61044,0.34131 c 0,-0.2097 -0.11906,-0.45485 -0.26458,-0.54479 -0.14552,-0.0899 -0.26459,0.0816 -0.26459,0.38126 0,0.29963 0.11907,0.54479 0.26459,0.54479 0.14552,0 0.26458,-0.17157 0.26458,-0.38126 z m 16.89543,0.1457 c 0.25025,-0.15857 0.27028,-0.28228 0.0661,-0.40844 -0.16106,-0.0995 -0.29283,-0.0636 -0.29283,0.0798 0,0.14343 -0.20836,0.31524 -0.46302,0.38179 -0.32808,0.0857 -0.34736,0.12877 -0.0662,0.14764 0.21828,0.0147 0.55842,-0.0757 0.75585,-0.20081 z m 10.48819,-0.55583 c 0.21506,-0.67757 -0.0292,-1.0607 -0.67632,-1.0607 -0.36162,0 -0.51355,0.18265 -0.51355,0.61736 0,1.06195 0.88847,1.39299 1.18987,0.44334 z m -1.80288,-0.31656 c -0.0845,-0.21106 -0.14716,-0.14837 -0.15985,0.15986 -0.0115,0.27891 0.051,0.43518 0.13896,0.34726 0.0879,-0.0879 0.0973,-0.31612 0.0209,-0.50712 z m 5.11093,-1.81723 c 0,-0.41127 0.11906,-0.82134 0.26458,-0.91128 0.14552,-0.0899 0.26458,-0.50666 0.26458,-0.92604 0,-0.41939 0.10876,-0.82974 0.24169,-0.9119 0.34621,-0.21396 1.4336,-2.52809 1.26647,-2.69522 -0.077,-0.077 -0.38998,-0.006 -0.69561,0.15747 -1.16662,0.62436 -3.49199,5.30782 -3.00679,6.05588 0.15571,0.24006 0.47916,0.41924 0.71879,0.39818 0.33701,-0.0296 0.3685,0.0427 0.13904,0.31914 -0.16315,0.19659 -0.21053,0.49677 -0.10528,0.66706 0.25085,0.40588 0.91253,-1.15549 0.91253,-2.15329 z m -0.79375,0.0148 c 0,-0.14552 0.11906,-0.26458 0.26458,-0.26458 0.14552,0 0.26458,0.11906 0.26458,0.26458 0,0.14552 -0.11906,0.26458 -0.26458,0.26458 -0.14552,0 -0.26458,-0.11906 -0.26458,-0.26458 z m 0.71708,-1.85208 c -0.0761,-0.29104 -0.0305,-0.52917 0.10144,-0.52917 0.13189,0 0.23981,0.23813 0.23981,0.52917 0,0.29104 -0.0456,0.52916 -0.10143,0.52916 -0.0558,0 -0.16371,-0.23812 -0.23982,-0.52916 z m 0.8763,-2.3058 c -0.003,-0.3223 0.23224,-0.71344 0.52328,-0.8692 0.66676,-0.35684 0.66676,-0.0587 0,0.79375 -0.51193,0.65446 -0.51746,0.65526 -0.52328,0.0755 z m -30.50735,4.35864 c 0.40541,-1.51888 0.23048,-1.57123 -0.27667,-0.0828 -0.22582,0.66273 -0.32334,1.20497 -0.21671,1.20497 0.10662,0 0.32864,-0.50497 0.49338,-1.12216 z m 23.23243,0.64409 c -0.0815,-0.0815 -0.29496,-1.7e-4 -0.47444,0.18065 -0.25936,0.26131 -0.22897,0.2917 0.14812,0.14811 0.26093,-0.0994 0.40778,-0.2473 0.32632,-0.32876 z m 7.13674,-0.58027 c -0.0549,-0.28492 0.012,-0.5871 0.14856,-0.67151 0.13658,-0.0844 0.24759,-0.3548 0.24669,-0.60087 -0.001,-0.28307 -0.14681,-0.16905 -0.39688,0.31044 -0.43968,0.84305 -0.53219,1.87156 -0.14692,1.63345 0.13658,-0.0844 0.20343,-0.38658 0.14855,-0.67151 z m -3.48141,0.19844 c -0.0669,-0.10914 -0.76248,-0.19844 -1.54567,-0.19844 -0.78319,0 -1.47928,0.0893 -1.54686,0.19844 -0.0676,0.10914 0.62796,0.19844 1.54567,0.19844 0.9177,0 1.61379,-0.0893 1.54686,-0.19844 z m -7.76338,-0.7789 c 0,-0.13809 -0.17859,-0.0725 -0.39687,0.14579 -0.21828,0.21828 -0.39688,0.47949 -0.39688,0.58046 0,0.10098 0.1786,0.0354 0.39688,-0.14579 0.21828,-0.18115 0.39687,-0.44236 0.39687,-0.58046 z m 11.56189,-5.82435 c 0.38937,-0.40642 0.59638,-0.73526 0.46001,-0.73076 -0.60533,0.02 -4.0844,5.82908 -4.0844,6.81983 0,0.21434 0.6562,-0.90176 1.45822,-2.48021 0.80203,-1.57846 1.7768,-3.20245 2.16617,-3.60886 z m -6.48304,4.35429 c 0.2347,-0.98226 0.50088,-2.02406 0.5915,-2.3151 0.0906,-0.29104 -0.0573,-0.0529 -0.32868,0.52916 -0.2714,0.58209 -0.56394,1.41553 -0.65008,1.85209 -0.0861,0.43656 -0.23722,1.00211 -0.33574,1.25677 -0.0985,0.25466 -0.0722,0.46302 0.0586,0.46302 0.13074,0 0.42973,-0.80367 0.66443,-1.78594 z m 2.76524,1.05834 c 0.43982,-1.31755 1.71454,-3.82359 2.54825,-5.00972 l 0.94293,-1.34151 -0.69798,-0.56163 c -0.84743,-0.68187 -1.94477,-0.72523 -2.49566,-0.0986 -0.79186,0.90073 -2.47135,4.74088 -2.95074,6.74687 -0.17223,0.72066 -0.16113,0.72761 1.16238,0.72761 1.03736,0 1.37083,-0.10357 1.49082,-0.46302 z m 4.98141,-2.96343 c 0.496,-0.95915 0.5148,-1.22058 0.0546,-0.75964 -0.33265,0.33322 -0.77074,1.54025 -0.55903,1.54025 0.0554,0 0.28238,-0.35127 0.5044,-0.78061 z m -6.25073,-2.12932 c 0.15228,-0.43683 0.22659,-0.79423 0.16514,-0.79423 -0.12881,0 -0.91907,1.48089 -0.91907,1.72226 0,0.40732 0.50522,-0.21457 0.75393,-0.92803 z m -0.88476,-0.53127 c 0.70736,-0.78162 0.32867,-0.90454 -0.39932,-0.12963 -0.34124,0.36323 -0.49906,0.66042 -0.35073,0.66042 0.14833,0 0.48586,-0.23886 0.75005,-0.53079 z m 8.33291,-0.52755 c 0,-0.14552 -0.11906,-0.26458 -0.26458,-0.26458 -0.14552,0 -0.26459,0.11906 -0.26459,0.26458 0,0.14552 0.11907,0.26459 0.26459,0.26459 0.14552,0 0.26458,-0.11907 0.26458,-0.26459 z m -1.63669,-3.63191 c -0.0662,-0.34392 -0.35919,-0.45843 -1.18457,-0.46302 -1.13721,-0.006 -1.24307,0.26068 -0.26052,0.65712 0.96059,0.38757 1.54207,0.30947 1.44509,-0.1941 z m 0.73404,-0.53394 c -0.28456,-0.28455 -0.43563,0.11397 -0.23587,0.62225 0.18737,0.4768 0.20153,0.47763 0.29419,0.0172 0.0536,-0.26606 0.0273,-0.55379 -0.0583,-0.63941 z m -6.2411,-0.46436 c -0.18116,-0.21828 -0.46363,-0.39308 -0.62771,-0.38846 -0.16408,0.005 -0.0672,0.18323 0.21526,0.39688 0.65978,0.49903 0.8307,0.49555 0.41245,-0.008 z m 4.23333,-0.39687 c 0,-0.58368 -0.032,-0.6018 -0.64657,-0.36598 -0.32916,0.12632 -0.35662,0.2459 -0.12153,0.52917 0.43397,0.52291 0.7681,0.45192 0.7681,-0.16319 z m -3.175,-0.15119 c 0,-0.55145 -0.71359,-1.24502 -1.12684,-1.09522 -0.1806,0.0655 -0.53672,-0.0625 -0.79139,-0.28433 -0.75843,-0.66071 -0.52497,0.0855 0.30459,0.97359 0.82467,0.88281 1.61364,1.0813 1.61364,0.40596 z m 1.93097,-1.33881 c 0.0919,-0.0919 0.0269,-0.41931 -0.14441,-0.7276 -0.17131,-0.30829 -0.28618,-0.64982 -0.25527,-0.75896 0.0309,-0.10914 -0.24144,-0.19844 -0.60525,-0.19844 -0.53141,0 -0.66145,0.13172 -0.66145,0.66998 0,0.44751 0.19767,0.74945 0.59531,0.90928 0.74811,0.3007 0.86461,0.3122 1.07107,0.10574 z m -5.27164,-2.0036 c -0.0917,-0.14835 -0.0201,-0.36033 0.15905,-0.47106 0.24841,-0.15352 0.19512,-0.49666 -0.22442,-1.44511 -0.30261,-0.68408 -0.65083,-1.18158 -0.77383,-1.10556 -0.12301,0.076 -0.42666,-0.0989 -0.67477,-0.38865 -0.53123,-0.62043 -0.97476,-0.44629 -0.9453,0.37116 0.0115,0.31883 0.0809,0.43087 0.15434,0.24897 0.2457,-0.60891 0.61852,-0.33923 0.61852,0.4474 0,0.42798 0.10302,0.8418 0.22892,0.91962 0.12591,0.0778 0.29874,0.57171 0.38407,1.09756 0.0853,0.52584 0.30324,1.13451 0.48424,1.3526 0.28591,0.34449 0.35709,0.32083 0.54249,-0.18034 0.11736,-0.31727 0.13837,-0.69824 0.0467,-0.84659 z m 1.89179,-1.77813 c -0.0959,-0.30201 -0.34111,-0.5491 -0.54502,-0.5491 -0.23709,0 -0.30983,0.15872 -0.20179,0.44027 0.1136,0.29604 0.0675,0.37761 -0.14059,0.24897 -0.17026,-0.10522 -0.30955,-0.12091 -0.30955,-0.0349 0,0.17934 1.14431,0.64867 1.28093,0.52535 0.0497,-0.0448 0.0119,-0.32861 -0.084,-0.63062 z m 1.44888,0.70032 c 0,-0.0404 -0.23812,-0.27738 -0.52916,-0.52657 -0.50369,-0.43127 -0.52917,-0.42773 -0.52917,0.0735 0,0.35018 0.17726,0.52657 0.52917,0.52657 0.29104,0 0.52916,-0.0331 0.52916,-0.0735 z m -1.29008,-1.84915 c -0.26131,-0.25936 -0.2917,-0.22897 -0.14812,0.14812 0.0994,0.26093 0.24731,0.40778 0.32877,0.32632 0.0815,-0.0815 1.7e-4,-0.29496 -0.18065,-0.47444 z m -0.562,0.11818 c 0,-0.11932 -0.42469,-0.71311 -0.94375,-1.31952 -0.51907,-0.60641 -0.87007,-1.22179 -0.78001,-1.36751 0.095,-0.15378 -0.009,-0.19883 -0.24687,-0.10738 -0.26613,0.10212 -0.41062,0.008 -0.41062,-0.26761 0,-0.23385 -0.11906,-0.42518 -0.26458,-0.42518 -0.53284,0 -0.2392,0.75651 0.80049,2.0623 0.89934,1.12952 1.25816,1.45644 1.77919,1.62097 0.0364,0.0115 0.0661,-0.0767 0.0661,-0.19607 z m -6.19965,-10.31105 c 0.0714,-0.33337 0.24395,-0.53554 0.38354,-0.44927 0.14653,0.0906 0.18016,-0.0351 0.0796,-0.29717 -0.11534,-0.30059 -0.0732,-0.39159 0.12469,-0.26929 0.19082,0.11794 0.44589,-0.27297 0.70539,-1.08107 l 0.4065,-1.26581 -0.12075,1.19062 -0.12075,1.19063 0.38899,-1.05834 0.38898,-1.05833 -0.12531,1.0355 c -0.146,1.20641 0.20882,0.99398 0.62477,-0.37404 0.2683,-0.88238 0.27566,-0.86367 0.15622,0.39687 -0.0944,0.99607 -0.0629,1.17584 0.1275,0.72761 0.29547,-0.69568 0.67451,-0.81616 0.41619,-0.13229 -0.16167,0.42801 -0.14196,0.43045 0.26076,0.0322 0.30195,-0.29859 0.46763,-1.02938 0.53988,-2.38125 0.0748,-1.39887 0.0328,-1.7821 -0.14824,-1.35514 -0.34819,0.82099 -0.79785,0.74688 -0.80275,-0.13229 -0.003,-0.58793 -0.0583,-0.65142 -0.28686,-0.33073 -0.21539,0.30227 -0.24753,0.19187 -0.13483,-0.46313 0.0814,-0.47301 0.0348,-1.15762 -0.10347,-1.52136 -0.29502,-0.77596 0.0211,-0.86677 0.69044,-0.19832 0.44159,0.44102 0.45678,0.43683 0.31979,-0.0882 -0.0898,-0.34428 -0.0179,-0.55121 0.19152,-0.55121 0.18513,0 0.27621,0.18765 0.20332,0.41892 -0.11521,0.36557 -0.0957,0.36838 0.15346,0.0221 0.42661,-0.59305 0.35964,-0.92681 -0.35287,-1.75873 -0.35556,-0.41515 -0.89199,-1.05247 -1.19207,-1.41627 l -0.5456,-0.66146 0.27555,0.79375 0.27554,0.79375 -0.67067,-0.79375 c -0.48992,-0.57982 -0.62699,-0.65113 -0.50856,-0.26458 0.11969,0.39067 -0.0168,0.32142 -0.52127,-0.26458 -0.37586,-0.43657 -0.75271,-0.99604 -0.83742,-1.24327 -0.0921,-0.26876 -0.31536,-0.38762 -0.5552,-0.29558 -0.31804,0.12204 -0.21929,0.34948 0.47657,1.09763 l 0.87772,0.94369 -0.95135,-0.7804 c -0.52324,-0.42923 -1.17809,-0.92006 -1.45521,-1.09074 -0.45769,-0.2819 -0.44552,-0.29626 0.13283,-0.15676 0.48126,0.11608 0.58431,0.0688 0.42214,-0.19357 -0.12213,-0.19761 -0.1102,-0.28266 0.0277,-0.19743 0.13323,0.0823 0.47204,-0.0183 0.75291,-0.2237 0.49679,-0.36326 0.49491,-0.37342 -0.0691,-0.37342 -0.31886,0 -0.57974,-0.097 -0.57974,-0.21558 0,-0.11856 -0.41672,-0.41429 -0.92604,-0.65717 -0.50932,-0.24288 -0.92597,-0.35423 -0.92588,-0.24745 9e-5,0.10679 -0.62498,0.15841 -1.38906,0.11471 -1.0188,-0.0583 -1.2834,-0.006 -0.99235,0.19438 0.28811,0.1988 -0.20133,0.27495 -1.78594,0.2779 -1.22888,0.002 -2.18281,0.11605 -2.18281,0.26033 0,0.14095 -0.16939,0.19128 -0.37642,0.11183 -0.20703,-0.0794 -0.62375,0.10289 -0.92604,0.40518 -0.30229,0.30229 -0.66869,0.54962 -0.81421,0.54962 -0.36104,0 -0.33444,0.45476 0.0401,0.68627 0.1676,0.10358 0.45953,-0.0234 0.64875,-0.28216 0.41693,-0.57018 1.22828,-0.35242 0.99098,0.26598 -0.13792,0.35943 -0.0187,0.39839 0.76791,0.25084 0.57116,-0.10715 1.00011,-0.0632 1.10941,0.11365 0.11209,0.18135 -0.0976,0.29146 -0.56501,0.29675 -0.67806,0.008 -0.70222,0.0395 -0.2756,0.36326 0.26101,0.19806 0.39916,0.53323 0.31269,0.75858 -0.0852,0.22205 -0.008,0.49483 0.17266,0.60618 0.23055,0.14249 0.27598,0.068 0.15336,-0.25156 -0.10384,-0.2706 -0.0682,-0.38847 0.0883,-0.29177 0.43502,0.26886 -0.006,1.54149 -0.77881,2.24648 -0.39871,0.36381 -0.80408,0.87926 -0.90084,1.14545 -0.15422,0.42428 -0.0739,0.46159 0.65067,0.30243 0.57467,-0.12621 0.77143,-0.0923 0.64559,0.11133 -0.0996,0.16108 -0.062,0.29288 0.0836,0.29288 0.46258,0 0.59486,-0.49958 0.28538,-1.07783 -0.24681,-0.46118 -0.20243,-0.66291 0.25235,-1.147 0.66517,-0.70804 0.70368,-1.40218 0.11395,-2.05382 -0.24083,-0.26612 -0.30628,-0.48385 -0.14543,-0.48385 0.16084,0 0.40304,0.19763 0.53822,0.43918 0.22178,0.3963 0.27382,0.38678 0.533,-0.0975 0.15798,-0.29518 0.26165,-0.5841 0.23039,-0.64204 -0.0313,-0.0579 0.10652,0.105 0.30617,0.36209 0.19965,0.25709 0.5248,0.46743 0.72256,0.46743 0.35704,0 0.57812,0.58331 0.70196,1.85209 0.0422,0.43257 -0.0567,0.6363 -0.28584,0.58875 -0.19272,-0.04 -0.28332,0.0358 -0.20135,0.16846 0.082,0.13264 -0.0505,0.40348 -0.29445,0.60187 -0.38905,0.31642 -0.42134,0.30163 -0.26298,-0.12054 0.14405,-0.38403 0.0654,-0.46421 -0.38953,-0.39688 -0.31354,0.0464 -0.60015,0.2933 -0.63693,0.54866 -0.0376,0.26108 0.0517,0.39099 0.20407,0.29683 0.14902,-0.0921 0.36535,-0.0147 0.48075,0.17203 0.16358,0.26468 0.43399,0.21271 1.22719,-0.23586 l 1.01738,-0.57533 -0.78832,0.65883 c -0.58273,0.48702 -0.71089,0.73626 -0.49143,0.95573 0.21947,0.21946 0.45162,0.21408 0.89021,-0.0206 0.4042,-0.21632 0.4936,-0.37916 0.28047,-0.51088 -0.38741,-0.23944 0.30102,-0.87658 1.07472,-0.99466 0.46611,-0.0711 0.4474,0.0126 -0.1895,0.84757 -0.76031,0.99681 -0.62892,1.212 0.28297,0.46346 0.31024,-0.25466 0.0385,0.043 -0.60385,0.66146 -1.14177,1.09929 -1.1315,1.43281 0.0251,0.81658 0.50117,-0.26701 0.5345,-0.25523 0.25098,0.0887 -0.17982,0.21813 -0.8049,0.55433 -1.38906,0.74713 -0.58417,0.19279 -1.06212,0.44827 -1.06212,0.56772 0,0.39763 1.30213,0.55087 2.1549,0.25359 1.21319,-0.42292 1.19177,-0.20389 -0.0329,0.33643 -0.80355,0.35453 -1.16753,0.39404 -1.58277,0.17181 -0.30079,-0.16098 -0.53923,-0.17999 -0.53923,-0.043 0,0.64291 1.53827,0.73144 2.72511,0.15682 l 0.84676,-0.40996 -0.59531,0.51851 c -0.82037,0.71455 -0.74598,0.92357 0.26458,0.74348 0.66487,-0.11848 0.7662,-0.0884 0.44678,0.13253 -0.33769,0.23361 -0.3621,0.44876 -0.13369,1.17851 0.27507,0.87885 0.63204,1.2088 0.60802,0.56199 -0.0291,-0.78461 0.0877,-1.25677 0.31089,-1.25677 0.1319,0 0.19346,0.26789 0.1368,0.59532 -0.0567,0.32742 0.0735,0.11906 0.2892,-0.46303 l 0.39223,-1.05833 -0.13117,0.92604 c -0.39824,2.81146 -0.39224,3.29115 0.0172,1.37824 z m -3.90413,-3.94023 c 0.191,-0.0764 0.4192,-0.067 0.50712,0.0209 0.0879,0.0879 -0.0684,0.15045 -0.34726,0.13897 -0.30823,-0.0127 -0.37092,-0.0754 -0.15986,-0.15986 z m 0.84336,-0.19751 c 0,-0.0728 0.23813,-0.25974 0.52917,-0.4155 0.29104,-0.15576 0.52917,-0.22367 0.52917,-0.15091 0,0.0728 -0.23813,0.25974 -0.52917,0.4155 -0.29104,0.15576 -0.52917,0.22367 -0.52917,0.15091 z m 2.40783,-1.06373 c -0.0181,-0.89147 0.0597,-1.22338 0.24369,-1.03942 0.17665,0.17665 0.18586,0.63028 0.0266,1.30969 l -0.24368,1.03942 z m 0.72068,-0.14552 c -0.0896,-0.50932 -0.23611,-1.22369 -0.32558,-1.5875 -0.10906,-0.44349 -0.0262,-0.36712 0.25136,0.23177 0.22771,0.49127 0.37421,1.20565 0.32557,1.5875 -0.0793,0.62231 -0.10533,0.59828 -0.25135,-0.23177 z m 1.30688,-0.18748 c -0.4283,-1.05146 -0.4862,-3.05615 -0.0994,-3.44291 0.0941,-0.0941 0.31427,0.20793 0.48916,0.67128 0.17489,0.46334 0.3998,0.84245 0.4998,0.84245 0.1,0 0.12309,0.26789 0.0513,0.59531 -0.10428,0.47579 -0.0743,0.51563 0.14956,0.19844 0.20746,-0.29402 0.23799,-0.12258 0.1178,0.66145 -0.20306,1.32458 -0.34166,1.50631 -0.38676,0.50712 -0.0328,-0.72776 -0.0443,-0.71897 -0.20135,0.15434 l -0.16652,0.92604 z m -0.71033,0.0331 c 0.0127,-0.30822 0.0754,-0.37092 0.15985,-0.15985 0.0764,0.191 0.067,0.4192 -0.0209,0.50712 -0.0879,0.0879 -0.15045,-0.0684 -0.13896,-0.34727 z m -5.18027,-1.16857 c 0.0899,-0.14552 0.28259,-0.26459 0.42811,-0.26459 0.14552,0 0.191,0.11907 0.10106,0.26459 -0.0899,0.14552 -0.28258,0.26458 -0.4281,0.26458 -0.14552,0 -0.191,-0.11906 -0.10107,-0.26458 z m 4.91568,-0.15434 c 0.0127,-0.30823 0.0754,-0.37092 0.15986,-0.15986 0.0764,0.191 0.067,0.4192 -0.0209,0.50712 -0.0879,0.0879 -0.15045,-0.0683 -0.13897,-0.34726 z m -9.2813,-0.91961 c 0,-0.15411 0.11906,-0.20662 0.26458,-0.11668 0.14552,0.0899 0.26459,0.21603 0.26459,0.2802 0,0.0642 -0.11907,0.11668 -0.26459,0.11668 -0.14552,0 -0.26458,-0.12609 -0.26458,-0.2802 z m 8.90036,-0.11613 c -0.24826,-0.64697 -0.19882,-0.8528 0.0955,-0.39742 0.22799,0.35277 0.25783,0.35277 0.26858,0 0.009,-0.30302 0.0785,-0.28268 0.29289,0.086 0.15443,0.26557 0.21034,0.55331 0.12424,0.63941 -0.0861,0.0861 -0.15836,-0.0121 -0.16059,-0.21829 -0.003,-0.3062 -0.045,-0.31021 -0.22776,-0.0219 -0.17846,0.28152 -0.25793,0.26377 -0.39283,-0.0878 z m -1.84561,-3.32486 c -0.70379,-0.57272 -1.14566,-1.04131 -0.98194,-1.04131 0.16372,0 0.79909,0.47327 1.41191,1.05171 1.41657,1.33709 1.22007,1.33233 -0.42997,-0.0104 z m 1.50491,0.1423 c -0.0853,-0.22214 -0.67682,-0.7097 -1.31462,-1.08348 -1.47437,-0.86404 -1.52777,-1.13978 -0.0616,-0.31839 0.97171,0.54439 2.16207,1.80576 1.70412,1.80576 -0.0951,0 -0.24261,-0.18175 -0.32785,-0.40389 z m 1.70799,11.90626 c -0.0815,-0.0815 -0.22941,0.0654 -0.32877,0.32632 -0.14358,0.37708 -0.11319,0.40747 0.14812,0.14811 0.18082,-0.17947 0.26211,-0.39297 0.18065,-0.47443 z m -0.32866,-0.85783 c -0.098,-0.098 -0.28894,-0.003 -0.42432,0.21104 -0.39531,0.62506 -0.29142,0.86105 0.17412,0.39551 0.2356,-0.23561 0.34819,-0.50855 0.2502,-0.60655 z m -7.02857,-1.35952 c 0,-0.24637 0.14783,-0.59577 0.32851,-0.77646 0.26164,-0.26163 0.24817,-0.37931 -0.0661,-0.57803 -0.53543,-0.33851 -0.86228,-0.32155 -0.64293,0.0334 0.11393,0.18436 -0.0464,0.16992 -0.43752,-0.0394 l -0.61735,-0.3304 0.46713,0.71294 c 0.26968,0.41158 0.39798,0.9308 0.30354,1.22837 -0.12469,0.39286 -0.0651,0.47764 0.25058,0.35651 0.2278,-0.0874 0.41418,-0.36051 0.41418,-0.60688 z m 0.33073,-2.05192 c -0.18191,-0.0734 -0.47956,-0.0734 -0.66146,0 -0.1819,0.0734 -0.0331,0.13345 0.33073,0.13345 0.3638,0 0.51263,-0.06 0.33073,-0.13345 z m 10.42783,-1.743 c -0.0734,-0.1819 -0.13346,-0.0331 -0.13346,0.33073 0,0.3638 0.0601,0.51263 0.13346,0.33073 0.0734,-0.1819 0.0734,-0.47956 0,-0.66146 z m -9.96481,0.33073 c 0,-0.14552 -0.0525,-0.26458 -0.11668,-0.26458 -0.0642,0 -0.19026,0.11906 -0.2802,0.26458 -0.0899,0.14552 -0.0374,0.26458 0.11668,0.26458 0.15411,0 0.2802,-0.11906 0.2802,-0.26458 z m -6.1583,-0.99219 c -0.39479,-0.43576 -0.33878,-0.46036 0.95118,-0.41789 0.75386,0.0248 1.101,-0.0135 0.77142,-0.0851 -0.32958,-0.0716 -0.53925,-0.22724 -0.46593,-0.34587 0.0733,-0.11863 -0.0569,-0.37351 -0.28929,-0.56641 -0.35697,-0.29625 -0.47705,-0.27625 -0.77324,0.12881 -0.19285,0.26374 -0.47762,0.40105 -0.63282,0.30512 -0.16983,-0.10495 -0.28219,0.0777 -0.28219,0.45858 0,0.73098 0.19296,0.98575 0.74656,0.98575 0.33887,0 0.33529,-0.0646 -0.0257,-0.46302 z m 7.87809,-0.0661 c 0.0899,-0.14552 -0.0151,-0.26459 -0.23336,-0.26459 -0.21828,0 -0.47046,0.11907 -0.56039,0.26459 -0.0899,0.14552 0.0151,0.26458 0.23335,0.26458 0.21828,0 0.47046,-0.11906 0.5604,-0.26458 z m -9.97699,-0.95668 c 0.065,-0.43623 -0.0712,-0.51344 -0.85899,-0.4873 -0.5149,0.0171 -1.02588,0.12981 -1.13552,0.25051 -0.10963,0.12069 0.005,0.14614 0.25521,0.0565 0.25,-0.0896 0.52994,-0.0409 0.62208,0.10818 0.0921,0.14908 0.35092,0.20069 0.57506,0.11468 0.35294,-0.13544 0.35822,-0.0966 0.0394,0.28957 -0.31753,0.38464 -0.31358,0.4281 0.0287,0.31606 0.21828,-0.0714 0.4316,-0.36316 0.47405,-0.64825 z m 7.08215,0.28062 c 0.50537,-0.40488 0.50512,-0.40757 -0.0156,-0.16804 -0.29104,0.13388 -0.70776,0.30965 -0.92604,0.39058 -0.34283,0.12712 -0.34071,0.15 0.0156,0.16805 0.22684,0.0115 0.64356,-0.16428 0.92604,-0.39059 z m -7.19594,-1.5729 c 0.0928,-0.24175 4.2e-4,-0.39688 -0.23628,-0.39688 -0.21371,0 -0.38857,0.1786 -0.38857,0.39688 0,0.21828 0.10633,0.39687 0.23628,0.39687 0.12995,0 0.30481,-0.17859 0.38857,-0.39687 z m 2.85232,0.0654 c 0.27319,0.0714 0.49158,-0.01 0.49158,-0.1825 0,-0.17108 -0.11091,-0.24251 -0.24648,-0.15872 -0.13556,0.0838 -0.43048,-0.11037 -0.65537,-0.43145 -0.46322,-0.66134 -0.81216,-0.47323 -0.82999,0.44747 -0.009,0.46517 0.084,0.56861 0.36831,0.40951 0.2092,-0.11707 0.60157,-0.15501 0.87195,-0.0843 z m 5.90627,-0.89937 c 0.23426,0.0899 0.30342,-0.0309 0.21383,-0.37353 -0.0728,-0.27851 -0.22548,-0.44888 -0.33921,-0.3786 -0.11372,0.0703 -0.27239,-0.0432 -0.35259,-0.25218 -0.0802,-0.20899 -0.37458,-0.36275 -0.6542,-0.34169 -0.40152,0.0302 -0.49148,0.20777 -0.42796,0.84452 0.0442,0.44343 0.088,0.84019 0.0973,0.88169 0.009,0.0415 0.26432,-0.057 0.56673,-0.21881 0.30242,-0.16185 0.70566,-0.23448 0.8961,-0.1614 z m -10.17962,-0.75997 c -0.19461,-0.51187 -0.1969,-0.82616 -0.007,-1.01565 0.15093,-0.15093 0.27177,-0.39944 0.26853,-0.55223 -0.003,-0.1528 -0.23871,0.0198 -0.52328,0.38364 -0.55692,0.71199 -0.69389,1.19137 -0.26458,0.92605 0.14552,-0.0899 0.26458,-0.0337 0.26458,0.12498 0,0.15867 -0.20836,0.36858 -0.46302,0.46645 -0.38987,0.14984 -0.35853,0.20442 0.19844,0.34547 0.85005,0.21528 0.86118,0.20094 0.52673,-0.67871 z m 1.19306,-0.52278 c 0,-1.25504 -0.0931,-1.38859 -0.60854,-0.87312 -0.33957,0.33956 -0.43344,1.59504 -0.14111,1.88736 0.46439,0.46439 0.74965,0.0785 0.74965,-1.01424 z m 4.20616,0.79381 c 0.51721,-0.39149 1.07994,-0.28687 0.80962,0.15052 -0.23571,0.38138 0.30667,0.29053 0.63624,-0.10657 0.21519,-0.2593 0.20624,-0.5394 -0.0337,-1.05627 -0.32045,-0.69015 -0.98806,-0.97889 -0.98806,-0.42733 0,0.15411 -0.12876,0.20062 -0.28612,0.10337 -0.18164,-0.11226 -0.2541,0.0511 -0.19844,0.4474 0.0737,0.52481 -0.0177,0.61478 -0.57378,0.56484 -0.3638,-0.0327 -0.51189,0.007 -0.32908,0.0887 0.18281,0.0815 0.26508,0.25704 0.18283,0.39013 -0.22405,0.36251 0.21113,0.27619 0.78054,-0.15483 z m -2.8761,-0.12079 c -0.086,-0.13917 -0.33116,-0.18596 -0.54479,-0.10399 -0.54692,0.20988 -0.48247,0.35701 0.15638,0.35701 0.29963,0 0.47442,-0.11386 0.38841,-0.25302 z m -0.40402,-0.78367 c 0,-0.27914 0.0818,-0.72562 0.18183,-0.99219 0.16006,-0.42664 0.12839,-0.44119 -0.26458,-0.12153 -0.48025,0.39065 -0.61827,1.62125 -0.18183,1.62125 0.14552,0 0.26458,-0.22839 0.26458,-0.50753 z m 2.08359,0.34216 c 1.14574,-0.22914 1.07625,-0.88228 -0.0992,-0.93265 -0.50932,-0.0218 -1.07486,-0.0516 -1.25677,-0.0662 -0.1819,-0.0145 -0.36877,0.24143 -0.41527,0.56885 -0.0922,0.64916 0.25447,0.73331 1.77126,0.42995 z m -5.91305,-0.84187 c -0.0815,-0.0815 -0.29495,-1.7e-4 -0.47443,0.18066 -0.25936,0.2613 -0.22897,0.29169 0.14811,0.14811 0.26094,-0.0994 0.40778,-0.24731 0.32632,-0.32877 z m 7.15503,-0.60984 c 0.23726,-0.3839 -0.37344,-0.75942 -1.2089,-0.74335 -0.65813,0.0126 -0.65846,0.0139 -0.0661,0.252 0.32742,0.13161 0.59531,0.36219 0.59531,0.5124 0,0.36314 0.45093,0.34917 0.67974,-0.0211 z m 10.69735,-1.02876 c 0,-0.14552 -0.12609,-0.26458 -0.2802,-0.26458 -0.15411,0 -0.20662,0.11906 -0.11668,0.26458 0.0899,0.14552 0.21603,0.26459 0.2802,0.26459 0.0642,0 0.11668,-0.11907 0.11668,-0.26459 z m -16.71257,-1.09103 c -0.49964,-0.31671 -0.66178,-0.28519 -0.66178,0.12865 0,0.22516 0.19056,0.31074 0.50744,0.22788 0.39156,-0.1024 0.42681,-0.18381 0.15434,-0.35653 z m 3.68731,-0.0169 c -0.15991,-0.47972 -0.64492,-0.54742 -0.64492,-0.09 0,0.22232 0.16867,0.40422 0.37482,0.40422 0.20616,0 0.3277,-0.14138 0.2701,-0.31419 z m 3.10334,-1.27331 c 0.0899,-0.14552 0.0445,-0.26458 -0.10106,-0.26458 -0.14552,0 -0.33817,0.11906 -0.42811,0.26458 -0.0899,0.14552 -0.0444,0.26459 0.10107,0.26459 0.14552,0 0.33816,-0.11907 0.4281,-0.26459 z m 8.46667,0 c -0.0899,-0.14552 -0.30532,-0.26276 -0.47864,-0.26053 -0.18934,0.002 -0.1567,0.10642 0.0818,0.26053 0.5083,0.32849 0.59989,0.32849 0.39688,0 z m -25.16407,48.68334 c 0,-1.96453 0.0417,-2.76821 0.0926,-1.78594 0.0509,0.98226 0.0509,2.58961 0,3.57187 -0.0509,0.98227 -0.0926,0.1786 -0.0926,-1.78593 z"
       id="path10729" />
  </g>
</svg>
