<?xml version="1.0" encoding="UTF-8" standalone="no"?>
<!-- Created with Inkscape (http://www.inkscape.org/) -->

<svg
   width="62.587414mm"
   height="18.614956mm"
   viewBox="0 0 62.587422 18.614955"
   version="1.1"
   id="svg5"
   inkscape:version="1.1 (c4e8f9ed74, 2021-05-24)"
   sodipodi:docname="ornament54.svg"
   xmlns:inkscape="http://www.inkscape.org/namespaces/inkscape"
   xmlns:sodipodi="http://sodipodi.sourceforge.net/DTD/sodipodi-0.dtd"
   xmlns="http://www.w3.org/2000/svg"
   xmlns:svg="http://www.w3.org/2000/svg">
  <sodipodi:namedview
     id="namedview7"
     pagecolor="#ffffff"
     bordercolor="#666666"
     borderopacity="1.0"
     inkscape:pageshadow="2"
     inkscape:pageopacity="0.0"
     inkscape:pagecheckerboard="0"
     inkscape:document-units="mm"
     showgrid="false"
     inkscape:zoom="0.94615212"
     inkscape:cx="-146.38238"
     inkscape:cy="189.71579"
     inkscape:window-width="2506"
     inkscape:window-height="1403"
     inkscape:window-x="1974"
     inkscape:window-y="0"
     inkscape:window-maximized="1"
     inkscape:current-layer="layer1" />
  <defs
     id="defs2" />
  <g
     inkscape:label="Layer 1"
     inkscape:groupmode="layer"
     id="layer1"
     transform="translate(-190.07177,-115.76361)">
    <path
       style="fill:#000000;stroke-width:0.264583"
       d="m 213.78548,133.28958 c 0.0227,-0.61846 -0.0495,-1.93063 -0.16047,-2.91593 -0.18228,-1.61899 -0.25172,-1.77559 -0.72122,-1.62658 -0.37448,0.11886 -0.73813,-0.0745 -1.3026,-0.69247 -0.76142,-0.83365 -0.82854,-0.85311 -2.42738,-0.70381 -1.96662,0.18364 -2.47668,-0.0264 -2.04096,-0.84058 0.38049,-0.71094 0.63644,-0.7317 0.41488,-0.0337 -0.15594,0.49135 -0.0475,0.52917 1.51676,0.52917 0.92659,0 1.80165,-0.11694 1.94457,-0.25987 0.17011,-0.17011 0.41917,0.0359 0.72104,0.59647 0.45297,0.84111 0.49438,0.85632 2.32779,0.85518 1.5586,-9.8e-4 1.93137,-0.0885 2.25904,-0.53032 0.3879,-0.52305 0.37147,-1.37489 -0.0455,-2.35851 -0.15682,-0.36996 -0.12686,-0.45215 0.11119,-0.30503 0.17923,0.11077 0.43464,0.48749 0.56758,0.83716 0.27288,0.71771 0.89819,0.82393 1.47207,0.25004 0.33789,-0.33789 0.30542,-0.43831 -0.26189,-0.81003 -0.80905,-0.53011 -2.78443,-0.58916 -3.09897,-0.0926 -0.18421,0.2908 -0.23034,0.27732 -0.23359,-0.0683 -0.002,-0.23685 -0.19172,-0.58638 -0.4211,-0.77674 -0.34361,-0.28518 -0.45486,-0.28492 -0.63187,0.002 -0.12389,0.20046 -0.35667,0.25996 -0.54988,0.14054 -0.20513,-0.12677 -0.26903,-0.10024 -0.16479,0.0684 0.0936,0.15152 0.005,0.41301 -0.19797,0.58109 -0.26738,0.22191 -0.39516,0.22484 -0.46654,0.0107 -0.0696,-0.20888 -0.41763,-0.18488 -1.19309,0.0823 -0.83955,0.28925 -1.06511,0.29981 -0.96744,0.0453 0.07,-0.18255 0.53584,-0.40853 1.03508,-0.50219 1.05476,-0.19788 1.14074,-0.48225 0.31967,-1.05735 -0.67597,-0.47347 -0.43315,-0.55222 0.37278,-0.1209 0.43796,0.23439 0.50035,0.22153 0.32078,-0.0661 -0.5547,-0.88863 -0.2102,-1.38546 0.4277,-0.61683 0.18339,0.22097 0.74485,0.59699 1.24769,0.8356 0.70707,0.33553 0.95991,0.35997 1.11573,0.10786 0.15402,-0.24921 0.29954,-0.22792 0.61789,0.0904 0.22903,0.22903 0.6553,0.41642 0.94727,0.41642 0.74246,0 1.8481,0.45127 2.36012,0.96328 0.39969,0.3997 0.44638,0.37853 0.62317,-0.28252 0.10511,-0.39303 0.32657,-0.87781 0.49214,-1.0773 0.25068,-0.30206 0.0436,-0.34367 -1.23842,-0.24882 l -1.53943,0.1139 1.69202,-0.42254 c 1.14049,-0.28481 1.5746,-0.49512 1.33179,-0.64518 -0.19813,-0.12245 -0.48329,-0.12233 -0.63369,2.6e-4 -0.27794,0.22657 -0.80544,-0.1664 -0.86371,-0.64344 -0.0616,-0.50444 -0.50746,-0.40421 -1.12476,0.25289 -0.42987,0.45757 -0.50804,0.66527 -0.24933,0.66249 0.50223,-0.005 1.30897,-0.5154 0.82425,-0.52107 -0.19049,-0.002 -0.27276,-0.1231 -0.18282,-0.26862 0.24777,-0.4009 0.57326,-0.3167 0.57326,0.1483 0,0.4569 -1.32719,1.25854 -1.61203,0.97369 -0.0989,-0.0989 -0.10126,0.0249 -0.005,0.27514 0.12046,0.3139 0.0428,0.45495 -0.2506,0.45495 -0.5408,0 -0.53514,-0.0701 0.1072,-1.32922 0.34073,-0.66788 0.77633,-1.10479 1.21,-1.21363 0.87308,-0.21913 0.56574,-0.49434 -1.08093,-0.96792 -1.39305,-0.40063 -1.63629,-0.75876 -1.33385,-1.96381 0.16302,-0.64952 0.18438,-0.6556 0.69114,-0.19699 0.40043,0.36237 0.44398,0.52334 0.18595,0.6871 -0.21845,0.13864 -0.0787,0.2153 0.39741,0.21792 l 0.7344,0.004 -0.44108,-0.85989 c -0.24259,-0.47295 -0.67971,-1.15755 -0.97137,-1.52136 -0.51454,-0.6418 -0.52596,-0.64378 -0.3843,-0.0664 0.0803,0.32728 0.0526,0.65277 -0.0616,0.72331 -0.25533,0.15781 -0.59395,-1.40828 -0.37951,-1.75525 0.0912,-0.14757 0.32257,-0.11091 0.56385,0.0893 0.22505,0.18677 0.54876,0.34138 0.71936,0.34358 0.17061,0.002 0.87316,0.49904 1.56123,1.10412 1.04554,0.91941 1.22965,1.21812 1.1208,1.8184 -0.16168,0.89163 -0.34918,1.09268 -0.69577,0.74609 -0.34846,-0.34847 -0.0252,-1.20032 0.37154,-0.97905 0.16665,0.0929 -0.2278,-0.38399 -0.87656,-1.05985 -0.64876,-0.67587 -1.27886,-1.22885 -1.40022,-1.22885 -0.12135,0 0.0913,0.53222 0.47247,1.18271 0.79431,1.35538 0.69389,1.72771 -0.46594,1.72771 -0.45223,0 -0.73647,0.0858 -0.63165,0.19058 0.10482,0.10482 0.60091,0.15523 1.10243,0.11202 0.52342,-0.0451 0.91185,0.0428 0.91185,0.20629 0,0.15667 0.15948,0.28486 0.3544,0.28486 0.19493,0 0.48146,0.27884 0.63674,0.61964 0.30191,0.66263 2.43191,2.48392 2.47298,2.11457 0.0135,-0.12137 0.006,-0.70572 -0.0171,-1.29855 -0.0467,-1.20781 0.32412,-1.66653 1.3155,-1.62746 0.3638,0.0143 1.39817,-0.0665 2.2986,-0.17971 l 1.63714,-0.20579 0.16564,1.01625 c 0.25883,1.588 0.5955,2.19487 1.38547,2.49739 0.89116,0.34127 1.4056,0.0665 1.73699,-0.92764 0.21104,-0.63315 0.13002,-0.84909 -0.60196,-1.6043 -0.94261,-0.97253 -1.02401,-2.05103 -0.16713,-2.21447 0.37494,-0.0715 0.45923,0.0148 0.33376,0.34177 -0.0985,0.25661 -0.0598,0.37063 0.0937,0.2758 0.14385,-0.0889 0.27342,0.0537 0.28792,0.31699 0.0187,0.33906 0.0882,0.28575 0.23821,-0.18283 0.32141,-1.00358 0.30084,-1.37251 -0.0661,-1.18662 -0.1819,0.0921 -0.0996,-0.0199 0.18286,-0.24896 0.81971,-0.66475 1.20981,-0.5176 1.17551,0.4434 -0.0169,0.47294 -0.0851,0.65153 -0.1517,0.39687 -0.21349,-0.81697 -0.61136,-0.49456 -0.61136,0.49542 0,0.80913 0.06,0.90862 0.38529,0.63868 0.2119,-0.17587 0.50956,-0.24295 0.66145,-0.14907 0.52709,0.32575 0.27208,0.98071 -0.49448,1.27006 -0.63463,0.23954 -0.78765,0.469 -0.86689,1.29993 -0.10493,1.10027 -0.24414,1.02373 2.03442,1.11846 0.58208,0.0242 1.44529,0.138 1.91823,0.2529 0.47294,0.11489 0.8599,0.13608 0.8599,0.0471 0,-0.47432 -0.80856,-1.9969 -1.06045,-1.9969 -0.16153,0 -0.22012,-0.11906 -0.13018,-0.26458 0.23907,-0.38683 0.66146,-0.32304 0.66146,0.0999 0,0.20047 0.20145,0.52789 0.44766,0.72761 0.24622,0.19972 0.36886,0.23145 0.27253,0.0705 -0.0963,-0.16094 -0.3022,-0.62681 -0.45749,-1.03528 -0.2146,-0.56444 -0.3562,-0.66883 -0.59003,-0.43499 -0.58437,0.58437 -0.77355,0.30548 -0.26569,-0.39169 0.46193,-0.63414 0.70459,-0.7093 2.60175,-0.80593 1.15077,-0.0586 2.33044,-0.13085 2.62148,-0.16054 0.48311,-0.0493 0.51966,0.0727 0.41991,1.40124 -0.22,2.93018 -0.2709,2.7687 0.903,2.86448 0.58209,0.0475 1.51009,-0.0626 2.06223,-0.24465 0.81285,-0.26801 1.34156,-0.26337 2.77813,0.0244 0.97582,0.19545 2.15536,0.36918 2.6212,0.38606 1.08622,0.0394 1.3873,0.33653 0.55312,0.5459 -0.3557,0.0893 -1.5354,-0.0577 -2.62155,-0.32652 -1.83654,-0.45461 -3.39821,-0.43794 -3.87754,0.0414 -0.27662,0.27662 0.55396,0.69265 0.99796,0.49985 0.76299,-0.33131 2.38125,-0.4134 2.38125,-0.1208 0,0.15733 0.43098,0.50716 0.95774,0.7774 l 0.95774,0.49135 -0.72884,0.57331 c -0.41684,0.32788 -1.08167,0.56436 -1.55305,0.55241 -0.45332,-0.0115 -0.67539,-0.0809 -0.49349,-0.15434 0.1819,-0.0734 0.33073,-0.2815 0.33073,-0.46245 0,-0.2124 0.30476,-0.29859 0.8599,-0.24318 l 0.85989,0.0858 -0.87437,-0.4029 c -0.93875,-0.43255 -1.49865,-0.30074 -1.26864,0.29866 0.16294,0.42461 -0.25484,0.50678 -0.50648,0.0996 -0.27912,-0.45162 -3.24523,-1.84616 -3.92669,-1.84616 -0.4032,0 -0.68628,0.18406 -0.76888,0.49994 -0.0998,0.38148 -0.43625,0.52727 -1.41992,0.61525 -0.70905,0.0634 -1.56815,0.0158 -1.90911,-0.10588 -0.47903,-0.17091 -0.79441,-0.0744 -1.38764,0.4248 -0.42224,0.35529 -0.99417,0.71787 -1.27096,0.80572 -0.48384,0.15356 -0.47883,0.20787 0.12975,1.40734 0.34816,0.68619 0.63352,1.5713 0.63412,1.96692 10e-4,0.87955 -0.2933,0.80186 -2.41223,-0.63605 -0.81802,-0.55511 -1.61177,-1.00929 -1.76389,-1.00929 -0.15212,0 -0.32541,-0.14647 -0.38508,-0.32548 -0.0854,-0.25629 -0.24476,-0.25455 -0.74965,0.008 -0.35264,0.18351 -0.44372,0.27837 -0.2024,0.21079 0.46041,-0.12892 0.91742,0.94748 0.61205,1.44158 -0.2446,0.39577 -0.65394,0.29558 -0.65394,-0.16007 0,-0.22687 -0.11906,-0.33891 -0.26458,-0.24897 -0.14552,0.0899 -0.26458,0.0486 -0.26458,-0.0919 0,-0.14048 -0.22836,-0.19571 -0.50747,-0.12272 -0.37515,0.0981 -0.53822,-0.0291 -0.62542,-0.48779 -0.10328,-0.54327 -0.12245,-0.55223 -0.154,-0.072 -0.0239,0.36357 0.41503,0.91544 1.30167,1.63669 1.33281,1.0842 1.34149,1.08683 2.37731,0.72137 0.72893,-0.25718 1.37685,-0.30031 2.16803,-0.14433 l 1.12842,0.22247 -1.4022,0.029 c -0.77121,0.0159 -1.75717,0.21255 -2.19102,0.4369 -0.78327,0.40505 -0.7999,0.39827 -2.36811,-0.96572 -1.2386,-1.07731 -1.5793,-1.5363 -1.5793,-2.1277 0,-0.41474 -0.11906,-0.75407 -0.26458,-0.75407 -0.14552,0 -0.26458,0.29063 -0.26458,0.64584 0,0.97591 -0.45135,1.06348 -1.59174,0.3088 -0.84543,-0.55947 -1.23734,-0.65635 -2.16754,-0.53576 -1.07356,0.13917 -1.16986,0.0957 -1.76493,-0.7973 -0.66056,-0.99122 -1.34298,-1.19967 -1.86566,-0.56988 -0.24768,0.29845 -0.20533,0.40814 0.20829,0.53942 0.28556,0.0906 0.64893,0.3211 0.80749,0.51215 0.23339,0.28121 -0.001,0.33259 -1.23287,0.26978 l -1.52117,-0.0776 0.79375,0.41454 c 0.9771,0.51031 1.71979,1.14377 1.71979,1.46686 0,0.13353 -0.31371,-0.004 -0.69714,-0.30559 -0.81562,-0.64157 -1.41952,-0.70955 -1.41952,-0.1598 0,0.25372 -0.1528,0.32994 -0.44028,0.21962 -0.29604,-0.1136 -0.37761,-0.0675 -0.24897,0.1406 0.12241,0.19806 -0.005,0.30955 -0.35347,0.30955 -0.29963,0 -0.54478,0.11906 -0.54478,0.26458 0,0.14552 -0.13364,0.26458 -0.29698,0.26458 -0.20795,0 -0.21451,-0.0994 -0.0219,-0.33148 0.19416,-0.23394 0.16476,-0.48237 -0.0999,-0.84432 -0.20624,-0.28206 -0.37499,-0.37102 -0.37499,-0.19768 0,0.17333 -0.20836,0.31697 -0.46302,0.3192 -0.3957,0.003 -0.40532,0.0413 -0.0662,0.26053 0.21828,0.14107 0.27402,0.25831 0.12385,0.26054 -0.15016,0.002 -0.29765,0.3017 -0.32776,0.66551 -0.0626,0.75682 0.27599,0.82762 1.32965,0.27798 0.69449,-0.36227 0.7157,-0.35561 0.44975,0.14134 -0.15352,0.28684 -0.39221,0.45165 -0.53043,0.36622 -0.39476,-0.24397 -0.7737,0.11489 -0.59981,0.56803 0.1247,0.32495 0.20206,0.33858 0.37093,0.0653 0.45367,-0.73404 0.38516,-0.0475 -0.0828,0.83005 -0.32314,0.60596 -0.4523,0.72015 -0.37368,0.33037 0.0661,-0.32763 0.0122,-0.52896 -0.11976,-0.44741 -0.3177,0.19635 -0.30662,0.83834 0.0179,1.03892 0.14181,0.0876 0.88595,-0.1298 1.65364,-0.48321 2.57975,-1.18763 3.6491,-1.58085 3.82384,-1.40611 0.0955,0.0955 0.0373,0.17369 -0.12942,0.17369 -0.16672,0 -1.4057,0.53578 -2.75328,1.19063 -3.14028,1.52598 -3.41549,1.53139 -3.36176,0.0661 z m 20.0883,-3.47742 c 0,-0.0572 -0.18478,-0.17489 -0.41062,-0.26155 -0.23546,-0.0904 -0.34166,-0.046 -0.24897,0.10398 0.15538,0.25141 0.65959,0.37186 0.65959,0.15757 z m -0.60083,-0.84962 c -0.0879,-0.0879 -0.31612,-0.0973 -0.50712,-0.0209 -0.21106,0.0845 -0.14837,0.14715 0.15986,0.15985 0.27891,0.0115 0.43518,-0.0511 0.34726,-0.13897 z m 0,-0.52916 c -0.0879,-0.0879 -0.31612,-0.0973 -0.50712,-0.0209 -0.21106,0.0845 -0.14837,0.14716 0.15986,0.15985 0.27891,0.0115 0.43518,-0.051 0.34726,-0.13896 z m -7.81886,-1.13985 -0.0853,-0.85037 0.79978,0.41357 c 0.8325,0.43051 1.86078,0.51905 2.87403,0.24748 0.48566,-0.13016 0.5626,-0.2849 0.4258,-0.85628 -0.0918,-0.38357 -0.0751,-0.61231 0.0373,-0.50831 0.11235,0.104 0.45324,0.0147 0.75755,-0.19844 0.78478,-0.54968 1.17045,-0.48545 1.85357,0.30873 l 0.59889,0.69626 1.04594,-0.66028 c 0.57527,-0.36315 1.19697,-0.84224 1.38154,-1.06464 0.28989,-0.3493 0.16325,-0.43999 -0.92992,-0.6659 -1.07568,-0.22229 -2.79533,-0.25913 -4.61956,-0.099 -0.24399,0.0214 -0.49807,0.2473 -0.56462,0.50196 -0.0911,0.34844 -0.1286,0.3157 -0.1517,-0.13229 -0.0169,-0.32742 -0.14061,-0.59531 -0.27497,-0.59531 -0.13436,0 -0.60251,-0.30143 -1.04034,-0.66984 -0.66802,-0.5621 -0.77351,-0.80877 -0.65588,-1.53362 0.20694,-1.27521 -0.29077,-1.57368 -1.84441,-1.10611 -0.68319,0.20562 -1.24217,0.30543 -1.24217,0.22181 0,-0.0836 -0.17859,-0.004 -0.39688,0.17734 -0.21828,0.18116 -0.39687,0.45662 -0.39687,0.61214 0,0.15551 0.15945,0.0647 0.35432,-0.20181 0.34298,-0.46905 0.36037,-0.46881 0.54315,0.008 0.10386,0.27064 0.10501,0.40826 0.003,0.30582 -0.19584,-0.19585 -0.87719,0.55347 -0.89163,0.98056 -0.005,0.13695 0.1664,0.0179 0.38005,-0.26458 0.37551,-0.49647 0.38954,-0.49154 0.42074,0.14786 0.0291,0.59688 0.0562,0.57877 0.27718,-0.18541 0.13471,-0.46578 0.37397,-0.92663 0.53171,-1.02411 0.20271,-0.12529 0.20148,-0.0178 -0.004,0.36645 -0.39894,0.74544 -0.3647,1.28733 0.0924,1.46275 0.23969,0.092 0.3346,0.0199 0.2532,-0.19218 -0.0728,-0.18976 0.0583,-0.3393 0.29739,-0.3393 0.28436,0 0.3851,0.16247 0.30074,0.48507 -0.14239,0.54449 0.5042,0.69026 0.68457,0.15434 0.0887,-0.26352 0.19222,-0.26399 0.50942,-0.002 0.21895,0.18063 0.47644,0.25009 0.57219,0.15434 0.0957,-0.0957 0.17401,-0.0329 0.17401,0.13963 0,0.20252 -0.23447,0.25488 -0.66146,0.14771 -0.93269,-0.23409 -0.81809,0.17911 0.25172,0.90759 0.50026,0.34065 1.08926,0.89361 1.30888,1.2288 0.37274,0.56887 0.36491,0.60044 -0.11762,0.47426 -0.28432,-0.0744 -0.51694,-0.24036 -0.51694,-0.36891 0,-0.12855 -0.12609,-0.23373 -0.2802,-0.23373 -0.15411,0 -0.20661,0.11907 -0.11668,0.26459 0.0899,0.14552 0.0294,0.26458 -0.1345,0.26458 -0.17008,0 -0.23101,-0.21115 -0.14193,-0.49181 0.0901,-0.28392 -0.0142,-0.63314 -0.24676,-0.82615 -0.33627,-0.27908 -0.40352,-0.25246 -0.4069,0.16108 -0.003,0.40865 -0.0472,0.42721 -0.25035,0.10596 -0.20938,-0.33109 -0.27377,-0.31786 -0.42964,0.0883 -0.14421,0.3758 -0.2311,0.40246 -0.40706,0.12488 -0.3612,-0.56981 -0.26567,-1.01437 0.21798,-1.01437 0.35822,0 0.38291,-0.0669 0.12127,-0.32852 -0.42726,-0.42726 -0.89686,0.22047 -0.71772,0.98998 0.10389,0.44626 -0.0138,0.53033 -0.75101,0.53663 -0.75186,0.006 -0.85353,-0.0676 -0.72656,-0.52917 0.12311,-0.44752 0.16313,-0.46218 0.24104,-0.0883 0.0959,0.46027 0.85402,0.37558 0.85402,-0.0954 0,-0.13854 -0.11906,-0.17831 -0.26458,-0.0884 -0.14552,0.0899 -0.26459,0.0374 -0.26459,-0.11667 0,-0.48129 -0.79206,-0.30565 -0.82444,0.18282 -0.0292,0.44097 -0.0365,0.44097 -0.15169,0 -0.121,-0.46302 -0.63374,-0.61704 -0.96185,-0.28893 -0.0958,0.0958 -0.0391,0.33675 0.1259,0.53556 0.37419,0.45087 0.17552,0.67936 -0.39901,0.45889 -0.46911,-0.18001 -0.60539,-0.90396 -0.17016,-0.90396 0.14552,0 0.26459,-0.18662 0.26459,-0.4147 0,-0.30775 -0.15354,-0.36764 -0.59532,-0.23221 -0.96316,0.29528 -1.25677,0.65955 -1.25677,1.55923 0,0.54772 0.22015,1.05434 0.62235,1.43219 0.52278,0.49112 0.80226,0.5559 1.74676,0.40487 0.6528,-0.10439 1.19633,-0.0711 1.29588,0.0794 0.25487,0.38522 1.19129,0.87055 1.49439,0.77451 0.14552,-0.0461 0.22619,-0.46651 0.17927,-0.93422 z m -0.84073,-0.568 c 0,-0.15411 0.11906,-0.20661 0.26458,-0.11667 0.14552,0.0899 0.26459,0.21602 0.26459,0.28019 0,0.0642 -0.11907,0.11668 -0.26459,0.11668 -0.14552,0 -0.26458,-0.12609 -0.26458,-0.2802 z m -3.68328,-1.99081 c 0.0127,-0.30822 0.0754,-0.37092 0.15985,-0.15985 0.0764,0.191 0.067,0.4192 -0.0209,0.50712 -0.0879,0.0879 -0.15046,-0.0684 -0.13897,-0.34727 z m 11.75307,2.53559 c -0.0899,-0.14552 -0.30532,-0.26276 -0.47864,-0.26053 -0.18933,0.002 -0.1567,0.10642 0.0818,0.26053 0.50829,0.32849 0.59989,0.32849 0.39687,0 z m -1.19062,-1.48351 c 0,-0.0572 -0.1786,-0.10399 -0.39688,-0.10399 -0.21828,0 -0.39687,0.11533 -0.39687,0.25628 0,0.14096 0.17859,0.18775 0.39687,0.10399 0.21828,-0.0838 0.39688,-0.19909 0.39688,-0.25628 z m 7.61386,-1.01507 c 0.11548,-0.11548 0.37048,-2.49924 0.42616,-3.98371 0.0239,-0.63654 -0.0901,-0.81075 -0.57553,-0.87961 -0.51745,-0.0734 -0.58263,0.005 -0.44907,0.53661 0.1237,0.4929 -0.0395,0.77848 -0.78377,1.37192 -1.18544,0.94516 -1.22733,1.43515 -0.10865,1.27096 0.57589,-0.0845 0.77433,-0.0298 0.64584,0.17812 -0.10202,0.16507 -0.46761,0.30013 -0.81244,0.30013 -0.90606,0 -1.57687,0.72917 -1.14715,1.24696 0.2451,0.29532 0.63214,0.35568 1.50958,0.23541 0.64898,-0.089 1.23175,-0.21351 1.29503,-0.27679 z m -2.3222,-0.68472 c 0,-0.14095 0.1786,-0.25628 0.39688,-0.25628 0.21828,0 0.39687,0.0468 0.39687,0.10398 0,0.0572 -0.17859,0.17252 -0.39687,0.25628 -0.21828,0.0838 -0.39688,0.037 -0.39688,-0.10398 z m 8.53282,0.89141 c -0.18191,-0.0734 -0.47956,-0.0734 -0.66146,0 -0.1819,0.0734 -0.0331,0.13345 0.33073,0.13345 0.3638,0 0.51263,-0.06 0.33073,-0.13345 z m -22.55573,-1.2956 c 0,-0.22687 -0.12101,-0.3377 -0.2689,-0.2463 -0.1479,0.0914 -0.2004,0.27703 -0.11668,0.41249 0.22681,0.36699 0.38558,0.29856 0.38558,-0.16619 z m 2.11666,0.29582 c 0,-0.0642 -0.11906,-0.19026 -0.26458,-0.2802 -0.14552,-0.0899 -0.26458,-0.0374 -0.26458,0.11668 0,0.1541 0.11906,0.28019 0.26458,0.28019 0.14552,0 0.26458,-0.0525 0.26458,-0.11667 z m -2.02862,-3.29447 c -0.0414,-0.0571 -0.24007,0.0329 -0.44151,0.20012 -0.21996,0.18255 -0.31262,0.58456 -0.23198,1.00642 0.13395,0.70071 0.13505,0.70021 0.44152,-0.20012 0.16897,-0.49641 0.27336,-0.9493 0.23197,-1.00642 z m 13.55343,0.35451 c 0.0209,-0.60142 -0.089,-0.91212 -0.32261,-0.91212 -0.19485,0 -0.36368,0.14883 -0.37517,0.33073 -0.0167,0.26459 -0.0476,0.26459 -0.15434,0 -0.0734,-0.1819 -0.24004,-0.33073 -0.37031,-0.33073 -0.24017,0 0.17607,1.17493 0.63496,1.79233 0.3534,0.47548 0.55066,0.17992 0.58747,-0.88021 z m -0.51191,0.53286 c -0.25532,-0.66534 -0.18,-0.83702 0.1319,-0.30065 0.15444,0.26557 0.22506,0.5386 0.15693,0.60672 -0.0681,0.0681 -0.1981,-0.0696 -0.28883,-0.30607 z m 2.21627,-1.06455 c 0,-0.22811 -0.26151,-0.38043 -0.65316,-0.38043 -0.4244,0 -0.60731,0.11946 -0.52226,0.34109 0.18234,0.47516 1.17542,0.5084 1.17542,0.0393 z m -8.1064,-0.24813 c -0.0838,-0.21829 -0.2732,-0.39688 -0.42097,-0.39688 -0.15486,0 -0.12915,0.16812 0.0607,0.39688 0.18116,0.21828 0.3706,0.39687 0.42097,0.39687 0.0504,0 0.0231,-0.17859 -0.0607,-0.39687 z m -12.33817,-0.0276 c -0.0879,-0.0879 -0.31613,-0.0973 -0.50712,-0.0209 -0.21107,0.0845 -0.14838,0.14715 0.15985,0.15985 0.27891,0.0115 0.43518,-0.0511 0.34727,-0.13897 z m -0.85439,11.80152 c -0.0899,-0.14552 -0.0374,-0.26458 0.11668,-0.26458 0.15411,0 0.2802,0.11906 0.2802,0.26458 0,0.14552 -0.0525,0.26459 -0.11668,0.26459 -0.0642,0 -0.19026,-0.11907 -0.2802,-0.26459 z m 3.30729,-3.0427 c -0.18699,-0.22532 -0.28046,-0.4692 -0.20769,-0.54196 0.0728,-0.0728 0.28528,0.0521 0.47228,0.27737 0.18699,0.22532 0.28045,0.4692 0.20769,0.54196 -0.0728,0.0728 -0.28528,-0.0521 -0.47228,-0.27737 z m -23.2342,-2.86036 c -0.61566,-0.62732 -1.03733,-1.22263 -0.93703,-1.32292 0.29086,-0.29086 2.22594,-0.21113 3.17115,0.13066 0.68871,0.24904 1.01697,0.23986 1.60628,-0.0449 0.65685,-0.31744 0.68079,-0.36959 0.21151,-0.46079 -1.16145,-0.22573 -1.27264,-0.31569 -0.91814,-0.74285 0.50484,-0.60829 0.13617,-0.74978 -1.25713,-0.48245 -0.88623,0.17004 -1.54123,0.14587 -2.19035,-0.0808 -1.3523,-0.47224 -1.77173,-0.42694 -2.85358,0.30821 -0.73722,0.50094 -1.31544,0.66145 -2.38283,0.66145 -0.87223,0 -1.34708,-0.10084 -1.24589,-0.26458 0.0899,-0.14552 0.72205,-0.2679 1.40468,-0.27194 0.95987,-0.006 1.4767,-0.18559 2.28048,-0.79375 0.57162,-0.43252 1.1953,-0.78639 1.38594,-0.78639 0.20019,0 0.32,-0.24692 0.2836,-0.58447 -0.0827,-0.76707 0.72885,-0.94188 1.4294,-0.30789 0.46893,0.42438 0.48161,0.51014 0.11507,0.77816 -0.36462,0.26662 -0.34621,0.35888 0.16024,0.80302 0.3147,0.27599 0.48221,0.3482 0.37224,0.16047 -0.15028,-0.25656 -0.0336,-0.2996 0.46963,-0.17328 0.97924,0.24577 2.55329,-0.35475 3.57886,-1.36539 1.36246,-1.34262 1.49638,-0.79335 0.14934,0.6125 -1.40675,1.46816 -1.50046,2.06299 -0.36089,2.29091 1.21117,0.24223 3.15121,1.15378 3.15121,1.48063 0,0.16136 -0.45423,0.0531 -1.0478,-0.2497 -0.57628,-0.294 -1.23313,-0.53455 -1.45966,-0.53455 -0.22652,0 -0.92523,0.53578 -1.55268,1.19063 -1.47183,1.53609 -2.09661,1.54486 -3.56365,0.0501 z m 2.71047,0.11221 c 0.0797,-0.12903 -0.0621,-0.39692 -0.31512,-0.59531 -0.40644,-0.31864 -0.4218,-0.31158 -0.13167,0.0605 0.18064,0.23167 0.25009,0.49956 0.15434,0.59531 -0.0958,0.0957 -0.10175,0.17409 -0.0133,0.17409 0.0884,0 0.22602,-0.10557 0.30577,-0.2346 z m -1.63512,-0.46979 c -0.1819,-0.0734 -0.47956,-0.0734 -0.66146,0 -0.1819,0.0734 -0.0331,0.13345 0.33073,0.13345 0.3638,0 0.51263,-0.0601 0.33073,-0.13345 z m -0.19844,-0.61852 c 0.2082,-0.33687 -0.40478,-0.33687 -0.92604,0 -0.32265,0.20851 -0.28846,0.25723 0.18282,0.26053 0.31884,0.002 0.65328,-0.11501 0.74322,-0.26053 z m -0.78773,-3.65405 c -0.082,-0.082 -0.38273,-0.16631 -0.66829,-0.18734 -0.39186,-0.0289 -0.45068,0.0443 -0.23985,0.29834 0.15365,0.18513 0.45438,0.26943 0.66829,0.18734 0.21392,-0.0821 0.32185,-0.21634 0.23985,-0.29834 z m 8.3945,4.9919 c -0.79357,-0.66203 -0.76052,-0.92913 0.0493,-0.39851 0.62142,0.40717 0.6589,0.39479 1.04089,-0.3439 0.21794,-0.42145 0.58495,-0.92287 0.81557,-1.11427 0.36347,-0.30166 0.39107,-0.28148 0.20726,0.15156 -0.32301,0.76096 -1.2362,2.21692 -1.38543,2.20887 -0.0728,-0.004 -0.40019,-0.23061 -0.72761,-0.50375 z m 8.81389,-0.49214 c -0.0955,-0.30091 -0.37641,-0.59045 -0.62424,-0.64341 -0.30404,-0.065 -0.22054,-0.14337 0.25677,-0.24103 0.52683,-0.1078 0.738,-0.0275 0.82746,0.31458 0.18487,0.70693 -0.24677,1.24166 -0.45999,0.56986 z m -3.0592,-0.0237 c 0,-0.2682 0.80587,-0.63355 0.9904,-0.44901 0.0665,0.0665 0.0424,0.2479 -0.0535,0.4031 -0.21109,0.34155 -0.93692,0.37712 -0.93692,0.0459 z m -6.81302,-1.2772 c -0.52589,-0.18782 -0.38759,-0.49234 0.38308,-0.84348 0.57339,-0.26126 0.63845,-0.37361 0.33072,-0.57117 -0.21069,-0.13526 -0.71049,-0.17715 -1.11068,-0.0931 -1.01476,0.21317 -0.91275,-0.0852 0.1323,-0.38694 0.7869,-0.22721 0.80375,-0.25297 0.19843,-0.30348 -0.3638,-0.0303 -0.77091,-0.0344 -0.90468,-0.009 -0.13377,0.0254 -0.0897,-0.13878 0.098,-0.36493 0.19728,-0.23771 0.6043,-0.3635 0.96472,-0.29814 0.59136,0.10723 0.60329,0.0823 0.23176,-0.48475 -0.21543,-0.3288 -0.32784,-0.66166 -0.24981,-0.73969 0.078,-0.078 -0.16453,-0.10825 -0.53905,-0.0671 -0.58757,0.0645 -0.65723,-0.004 -0.50809,-0.49845 0.0951,-0.31526 0.26456,-0.67235 0.37667,-0.79354 0.22199,-0.23998 2.91169,0.62111 2.91169,0.93216 0,0.10491 -0.49122,0.0174 -1.0916,-0.19439 -1.36397,-0.48124 -1.55423,-0.48082 -1.55423,0.003 0,0.25461 0.15266,0.32999 0.44281,0.21865 0.32788,-0.12582 0.40118,-0.0614 0.28243,0.24803 -0.18096,0.47155 0.7182,1.44398 0.96537,1.04405 0.0856,-0.13852 -0.0216,-0.39898 -0.23831,-0.5788 -0.21668,-0.17983 -0.39397,-0.4499 -0.39397,-0.60016 0,-0.15025 0.23813,-0.0577 0.52917,0.2057 0.29104,0.26339 0.52917,0.38632 0.52917,0.27319 0,-0.11313 0.17859,-0.0575 0.39687,0.12368 0.21828,0.18116 0.4005,0.2255 0.40492,0.0985 0.0112,-0.32138 0.41583,0.42847 0.65958,1.2223 0.18867,0.61448 0.16833,0.63336 -0.29873,0.27734 -0.43778,-0.33371 -0.45767,-0.33345 -0.15723,0.002 0.18918,0.21127 0.42731,0.3944 0.52917,0.40697 0.10186,0.0126 0.40068,0.11733 0.66402,0.2328 0.53998,0.23678 1.82008,-0.81289 2.44158,-2.00206 0.31504,-0.60281 0.57481,-0.70816 2.0965,-0.85026 0.9553,-0.0892 1.91835,-0.0926 2.14011,-0.007 0.55911,0.21455 1.18168,1.50321 1.15588,2.39256 l -0.0215,0.74074 -0.36345,-0.79375 -0.36345,-0.79375 -0.016,0.79375 c -0.0111,0.5486 -0.0862,0.68288 -0.24345,0.43478 -0.15856,-0.25025 -0.28228,-0.27028 -0.40844,-0.0661 -0.33469,0.54154 -1.3677,0.29907 -2.13413,-0.50091 -0.41826,-0.43656 -0.62615,-0.79375 -0.46199,-0.79375 0.16415,0 0.37325,0.12101 0.46466,0.2689 0.0914,0.1479 0.29542,0.18903 0.45337,0.0914 0.17037,-0.1053 0.21116,-0.0545 0.10026,0.12495 -0.12094,0.19569 -0.042,0.24682 0.22371,0.14486 0.24609,-0.0944 0.41224,-0.0137 0.41466,0.20147 0.003,0.27704 0.0626,0.2684 0.26054,-0.0378 0.14106,-0.21828 0.25648,-0.51593 0.25648,-0.66145 0,-0.14553 -0.10236,-0.10305 -0.22746,0.0944 -0.1251,0.19744 -0.28938,0.25697 -0.36505,0.13229 -0.0757,-0.12468 0.0294,-0.38101 0.23341,-0.56963 0.3091,-0.28571 0.41375,-0.23052 0.62714,0.33073 0.14087,0.37052 0.31487,0.67367 0.38666,0.67367 0.0718,0 0.066,-0.16818 -0.0129,-0.37373 -0.0847,-0.22082 0.0463,-0.41027 0.32014,-0.46302 0.44148,-0.085 0.44151,-0.11133 5.3e-4,-0.55231 -0.3339,-0.33389 -0.88203,-0.46152 -1.96548,-0.45766 l -1.50245,0.005 -1.65365,1.85915 c -0.9095,1.02253 -1.65364,1.97262 -1.65364,2.11131 0,0.13868 -0.12609,0.25215 -0.2802,0.25215 -0.15411,0 -0.20339,-0.12427 -0.10952,-0.27617 0.2368,-0.38315 -0.41063,-1.10083 -0.8433,-0.9348 -0.19497,0.0748 -0.35448,0.0207 -0.35448,-0.12025 0,-0.42011 -1.06179,-0.29062 -1.54026,0.18785 -0.24426,0.24426 -0.44412,0.532 -0.44412,0.63941 0,0.31422 -0.23969,0.44041 -0.59531,0.3134 z m 1.91823,-0.074 c 0.0899,-0.14552 0.21602,-0.26458 0.2802,-0.26458 0.0642,0 0.11667,0.11906 0.11667,0.26458 0,0.14552 -0.12609,0.26458 -0.2802,0.26458 -0.1541,0 -0.20661,-0.11906 -0.11667,-0.26458 z m 4.10104,-0.25628 c 0,-0.14095 0.17859,-0.18775 0.39687,-0.10398 0.21829,0.0838 0.39688,0.19908 0.39688,0.25628 0,0.0572 -0.17859,0.10398 -0.39688,0.10398 -0.21828,0 -0.39687,-0.11533 -0.39687,-0.25628 z m 41.38927,-0.0375 c -0.10629,-0.17199 -0.55146,-0.23372 -1.07395,-0.14893 -0.49082,0.0797 -0.8924,0.0457 -0.8924,-0.0753 0,-0.30623 2.04089,-0.47147 2.51892,-0.20395 0.21532,0.1205 0.39149,0.33223 0.39149,0.47052 0,0.34868 -0.72243,0.3163 -0.94406,-0.0423 z m -40.59552,-0.23543 c -0.23847,-0.15411 -0.2711,-0.25809 -0.0818,-0.26053 0.17331,-0.002 0.3887,0.11501 0.47863,0.26053 0.20302,0.32849 0.11143,0.32849 -0.39687,0 z m 0.0661,-1.23356 c -0.18191,-0.0734 -0.33073,-0.23885 -0.33073,-0.36768 0,-0.12883 0.19812,-0.1582 0.44028,-0.0653 0.32794,0.12584 0.38462,0.0731 0.22216,-0.20674 -0.12022,-0.20707 -0.11647,-0.28319 0.008,-0.1696 0.27897,0.25388 0.40594,0.99231 0.16569,0.96364 -0.0963,-0.0115 -0.32386,-0.0809 -0.50576,-0.15434 z m -7.24365,-1.61071 c -0.32911,-0.41964 -0.31975,-0.429 0.0999,-0.0999 0.44072,0.34564 0.58088,0.56291 0.36312,0.56291 -0.0549,0 -0.2633,-0.20836 -0.46302,-0.46302 z"
       id="path27062" />
  </g>
</svg>
