<?xml version="1.0" encoding="UTF-8" standalone="no"?>
<!-- Created with Inkscape (http://www.inkscape.org/) -->

<svg
   width="67.170502mm"
   height="31.170956mm"
   viewBox="0 0 67.170505 31.170956"
   version="1.1"
   id="svg5"
   inkscape:version="1.1 (c4e8f9ed74, 2021-05-24)"
   sodipodi:docname="ornament7.svg"
   xmlns:inkscape="http://www.inkscape.org/namespaces/inkscape"
   xmlns:sodipodi="http://sodipodi.sourceforge.net/DTD/sodipodi-0.dtd"
   xmlns="http://www.w3.org/2000/svg"
   xmlns:svg="http://www.w3.org/2000/svg">
  <sodipodi:namedview
     id="namedview7"
     pagecolor="#ffffff"
     bordercolor="#666666"
     borderopacity="1.0"
     inkscape:pageshadow="2"
     inkscape:pageopacity="0.0"
     inkscape:pagecheckerboard="0"
     inkscape:document-units="mm"
     showgrid="false"
     inkscape:zoom="0.94615212"
     inkscape:cx="-192.88653"
     inkscape:cy="143.21164"
     inkscape:window-width="2506"
     inkscape:window-height="1403"
     inkscape:window-x="1974"
     inkscape:window-y="0"
     inkscape:window-maximized="1"
     inkscape:current-layer="layer1" />
  <defs
     id="defs2" />
  <g
     inkscape:label="Layer 1"
     inkscape:groupmode="layer"
     id="layer1"
     transform="translate(-214.78197,-115.6814)">
    <path
       style="fill:#000000;stroke-width:0.264583"
       d="m 245.48446,146.13804 c -0.66098,-0.8403 -0.68706,-1.24304 -0.11735,-1.81275 0.3983,-0.39831 0.45353,-0.38626 0.7276,0.15864 0.7573,1.50566 1.81111,0.21043 1.26157,-1.55057 -0.70076,-2.24561 -3.2576,-3.80308 -4.26019,-2.59503 -0.80594,0.97109 0.29713,2.42882 1.34344,1.77539 0.47452,-0.29634 0.62434,-0.29123 0.94794,0.0324 0.33606,0.33606 0.29414,0.45529 -0.33379,0.94921 -0.39497,0.31069 -0.98739,0.56488 -1.31649,0.56488 -0.61927,0 -2.24069,-1.59332 -2.24069,-2.20186 0,-0.18225 -0.25357,-0.35047 -0.56351,-0.37381 -0.64287,-0.0484 -1.81774,-1.05404 -1.81774,-1.55588 0,-0.60644 0.50049,-0.65963 1.04869,-0.11143 0.67717,0.67716 1.38132,0.68668 1.97857,0.0267 0.44935,-0.49653 0.42982,-0.52114 -0.64282,-0.80997 -1.21243,-0.32648 -3.06761,-2.01391 -4.89798,-4.45508 -0.71201,-0.94962 -1.88084,-1.95894 -3.57187,-3.08441 -1.38245,-0.92009 -2.92385,-2.10062 -3.42534,-2.62339 -0.91027,-0.94889 -0.91069,-0.95048 -0.24794,-0.95048 0.39819,0 0.97484,0.32751 1.44096,0.81842 0.76724,0.80803 3.23209,2.23875 3.46157,2.00927 0.0651,-0.0651 -0.1351,-0.60447 -0.44482,-1.19867 -0.30972,-0.5942 -0.48683,-1.20382 -0.39358,-1.3547 0.37327,-0.60395 0.92565,-0.20525 1.54443,1.11474 0.35813,0.76398 1.00266,1.7986 1.43228,2.29914 l 0.78112,0.91008 0.1834,-1.56048 c 0.27947,-2.37784 0.42477,-2.77322 1.01913,-2.77322 0.42735,0 0.49651,0.1165 0.35339,0.59531 -0.0979,0.32742 -0.24341,1.36922 -0.32342,2.31511 l -0.14548,1.71979 0.7912,-1.21781 c 1.23159,-1.89567 4.82101,-4.44898 4.82101,-3.4294 0,0.13618 -0.87673,0.964 -1.9483,1.83961 -1.07157,0.87561 -2.14314,2.00258 -2.38125,2.50438 -0.43732,0.92158 -0.56648,2.42549 -0.27382,3.18817 0.13411,0.34947 0.23517,0.32167 0.64268,-0.1768 0.3614,-0.44207 0.56062,-0.51582 0.78864,-0.29195 0.23023,0.22604 0.21908,0.43725 -0.0454,0.86081 -0.53241,0.85253 -0.0281,1.3869 2.05531,2.17767 1.00301,0.3807 2.03708,0.78234 2.29795,0.89253 0.44448,0.18776 0.44965,0.14423 0.0823,-0.69218 -0.2156,-0.49089 -0.46107,-1.21995 -0.54549,-1.62013 -0.16448,-0.77964 -0.78338,-0.98083 -1.03114,-0.33519 -0.18085,0.47128 -0.84622,0.28332 -1.69197,-0.47797 -1.09914,-0.98938 -0.54662,-3.61862 0.76044,-3.61862 0.38521,0 0.4922,-0.12775 0.38777,-0.46302 -0.20858,-0.66964 1.41399,-1.70024 2.08534,-1.32454 0.4136,0.23146 0.46371,0.19056 0.34106,-0.27844 -0.093,-0.35543 0.0473,-0.71875 0.39667,-1.02782 0.29724,-0.26293 0.88082,-1.22219 1.29685,-2.1317 0.41603,-0.9095 0.81017,-1.65364 0.87587,-1.65364 0.0657,0 0.24593,0.46966 0.4005,1.0437 0.17202,0.63883 0.74048,1.50314 1.46541,2.22807 0.6514,0.6514 1.18436,1.37655 1.18436,1.61144 0,0.33388 0.10705,0.36978 0.49055,0.16454 0.3926,-0.21011 0.64355,-0.10258 1.25677,0.53851 0.42143,0.44057 0.73155,1.0156 0.68916,1.27784 -0.048,0.29699 0.12662,0.53007 0.46302,0.61804 0.40839,0.10679 0.53966,0.35695 0.53834,1.0259 -0.003,1.43954 -1.59876,3.40721 -2.2949,2.82946 -0.38577,-0.32016 -1.06001,0.61715 -1.29726,1.80339 l -0.16202,0.81011 2.12101,-1.0107 c 2.25227,-1.07325 2.80433,-1.7532 2.09017,-2.57437 -0.37408,-0.43012 -0.34593,-1.10552 0.0461,-1.10552 0.10596,0 0.4611,0.2501 0.7892,0.55577 0.77354,0.72067 0.95844,0.49435 0.95844,-1.17313 0,-1.60705 -0.50753,-2.41776 -2.17624,-3.47628 -1.12682,-0.71478 -2.45397,-2.08913 -2.45397,-2.54124 0,-0.40349 1.2545,-0.27503 1.41567,0.14496 0.0821,0.21409 0.76191,0.82932 1.51058,1.36718 0.74867,0.53787 1.70396,1.52356 2.12287,2.19044 0.41891,0.66688 0.76003,1.03392 0.75803,0.81564 -0.007,-0.79768 -0.46873,-3.84936 -0.65011,-4.29948 -0.13958,-0.3464 -0.0567,-0.46302 0.32902,-0.46302 0.64768,0 1.1252,1.45802 1.13657,3.47028 0.007,1.19996 0.0554,1.34109 0.30873,0.89534 0.16537,-0.29104 0.69501,-1.01459 1.17696,-1.6079 0.48196,-0.5933 1.059,-1.51604 1.28233,-2.05052 0.38223,-0.91481 0.98491,-1.25744 1.30391,-0.74128 0.0784,0.12677 -0.15225,0.81138 -0.51244,1.52135 -0.3602,0.70997 -0.6554,1.32233 -0.65601,1.36081 -5.3e-4,0.0385 0.74303,-0.297 1.65253,-0.74549 0.90951,-0.44849 2.01571,-1.22992 2.45822,-1.73652 0.56128,-0.64257 0.94131,-0.86862 1.25677,-0.74757 0.24871,0.0954 0.4522,0.27571 0.4522,0.4006 0,0.65306 -1.8691,2.20096 -3.81832,3.16215 -2.00973,0.99103 -2.3003,1.23876 -3.54661,3.02379 -1.58231,2.26627 -3.26439,3.82831 -5.00212,4.64514 l -1.23675,0.58134 0.87915,0.36966 c 1.15943,0.4875 1.79607,0.46681 2.09542,-0.0681 0.28742,-0.5136 1.10423,-0.30489 1.10423,0.28215 0,0.5162 -1.02233,1.21393 -1.77866,1.21393 -0.50627,0 -0.60259,0.14066 -0.60259,0.87993 0,1.0575 -0.91026,2.03049 -1.8996,2.03049 -0.76069,0 -2.06915,-0.91447 -2.06915,-1.4461 0,-0.5552 0.82416,-0.73012 1.17559,-0.24952 0.51561,0.70515 1.32596,0.3596 1.41965,-0.60536 0.0642,-0.66079 -0.0633,-0.93641 -0.59339,-1.28377 -1.83552,-1.20268 -4.50605,1.75635 -3.687,4.08531 0.29447,0.83732 0.93827,1.00227 1.54476,0.39579 0.38172,-0.38173 0.49021,-0.39421 0.68952,-0.0794 0.3833,0.60552 0.28095,1.26335 -0.28455,1.82884 -0.63471,0.63472 -2.16854,0.70739 -2.65137,0.12562 -0.30016,-0.36168 -0.38118,-0.36168 -0.78083,0 -0.74052,0.67016 -2.26171,0.51608 -2.89859,-0.29359 z m 4.19829,-8.35033 c 0.10824,-0.68325 0.0967,-1.99294 -0.0257,-2.91042 -0.25582,-1.91831 -1.55181,-5.87928 -1.82442,-5.57604 -0.43514,0.48403 -1.14883,4.34603 -1.16221,6.28914 -0.0126,1.82824 0.10862,2.41281 0.88959,4.28996 l 0.90417,2.1733 0.51086,-1.51184 c 0.28097,-0.83151 0.59942,-2.07086 0.70767,-2.7541 z m -2.10549,0.92422 c -0.49552,-1.30759 -0.55867,-1.86693 -0.42777,-3.78918 0.16196,-2.37844 0.6187,-4.15083 0.97518,-3.78418 0.31364,0.3226 1.30933,4.40695 1.30933,5.37093 0,1.17215 -0.52388,3.11275 -0.93168,3.45119 -0.26815,0.22255 -0.47154,-0.052 -0.92506,-1.24876 z m 4.09209,-4.54626 c -0.24936,-0.24937 -1.4416,0.82799 -1.4416,1.3027 0,0.44967 0.11357,0.40014 0.77189,-0.33665 0.42453,-0.47513 0.72591,-0.90986 0.66971,-0.96605 z m -6.37928,-0.17434 c -0.85696,-0.64938 -1.13849,-0.41041 -0.40326,0.34229 0.47817,0.48952 0.73999,0.61284 0.80013,0.3769 0.0492,-0.19289 -0.12943,-0.51653 -0.39687,-0.71919 z m 5.86825,-2.18878 c -0.21478,-0.21478 -1.19515,0.53539 -1.19515,0.9145 0,0.32151 0.14534,0.27546 0.64332,-0.20383 0.35383,-0.34055 0.60215,-0.66035 0.55183,-0.71067 z m -4.89932,0.64115 c 0,-0.20272 -0.17685,-0.43644 -0.393,-0.51938 -0.32872,-0.12614 -0.33995,-0.0659 -0.0686,0.36857 0.38508,0.61661 0.46165,0.64162 0.46165,0.15081 z m -10.58916,-2.99053 c -0.93755,-1.47837 -0.96995,-1.83265 -0.22288,-2.43758 0.5421,-0.43897 0.59105,-0.43152 1.20621,0.18364 0.57685,0.57685 0.62328,0.78441 0.46281,2.06877 -0.0981,0.78518 -0.28633,1.4276 -0.41829,1.4276 -0.13196,0 -0.59449,-0.55909 -1.02785,-1.24243 z m 23.32705,-0.25014 c -0.28482,-1.41825 -0.26655,-1.55737 0.28806,-2.19367 0.32569,-0.37366 0.67312,-0.78237 0.77205,-0.90823 0.19621,-0.2496 1.01867,1.16867 1.01867,1.75663 0,0.19989 -0.3993,0.92507 -0.88733,1.6115 l -0.88734,1.24805 z m -20.21977,1.06624 c -0.36755,-0.36755 0.48003,-2.17682 1.43512,-3.06343 1.04071,-0.9661 1.05694,-0.9709 1.56482,-0.46302 0.28226,0.28225 0.51319,0.55158 0.51319,0.5985 0,0.22216 -3.39196,3.04912 -3.51313,2.92795 z m 17.64321,-0.40174 c -0.27722,-0.30992 -0.95052,-0.84719 -1.49622,-1.19395 -1.08484,-0.68933 -1.25724,-1.36027 -0.52079,-2.02675 0.43844,-0.39678 0.53869,-0.36497 1.43358,0.45485 0.80552,0.73795 1.52628,2.20987 1.53313,3.1309 0.003,0.37167 -0.4445,0.19976 -0.9497,-0.36505 z m -24.53432,-1.18949 c -1.34916,-0.97909 -1.73302,-1.56143 -1.30883,-1.98562 0.38335,-0.38335 2.22718,0.94624 2.62532,1.89314 0.17919,0.42617 0.2405,0.82758 0.13625,0.89202 -0.10426,0.0644 -0.75799,-0.29536 -1.45274,-0.79954 z m 31.04175,0.33708 c 0,-0.56855 0.56594,-1.75911 0.83622,-1.75911 0.12216,0 0.47214,-0.25003 0.77773,-0.55562 0.72532,-0.72532 1.25233,-0.30021 0.885,0.71388 -0.30537,0.84302 -2.49895,2.24825 -2.49895,1.60085 z m -25.40001,-1.83354 c -0.43582,-0.22275 -0.66145,-0.56103 -0.66145,-0.99171 0,-0.53623 0.17956,-0.698 0.99959,-0.90056 1.26051,-0.31136 2.41092,0.0561 2.5189,0.80456 0.0434,0.30084 -0.0757,0.67165 -0.26458,0.82402 -0.60028,0.48411 -1.90211,0.61653 -2.59246,0.26369 z m 5.91461,0.15591 c -0.76047,-0.14875 -1.51841,-1.02227 -1.32479,-1.52683 0.1091,-0.2843 0.5222,-0.40673 1.3724,-0.40673 2.06985,0 2.88486,0.84114 1.65183,1.70479 -0.59476,0.41658 -0.68036,0.42811 -1.69944,0.22877 z m -16.17448,-0.49335 c -0.78055,-0.54672 -0.74405,-1.12941 0.0906,-1.44676 1.01986,-0.38775 1.84068,-0.31297 2.50952,0.22862 l 0.60099,0.48665 -0.57168,0.57168 c -0.67133,0.67133 -1.80114,0.73999 -2.62947,0.15981 z m 5.07116,0.15266 c -0.6806,-0.275 -1.01789,-1.0484 -0.62742,-1.43867 0.43036,-0.43015 2.92839,-0.24629 3.4172,0.25151 0.37695,0.38388 0.35789,0.46864 -0.21006,0.93428 -0.65501,0.537 -1.63806,0.63337 -2.57972,0.25288 z m 18.71833,-0.0439 c -0.42761,-0.15818 -0.57768,-0.39591 -0.5175,-0.81975 0.0749,-0.52746 0.25802,-0.60607 1.57312,-0.67531 1.20748,-0.0636 1.52119,0.007 1.66232,0.37497 0.0957,0.24933 0.0656,0.56174 -0.067,0.69424 -0.40375,0.40376 -2.01223,0.66214 -2.65099,0.42585 z m 5.57407,-0.0216 c -1.05996,-0.27466 -1.38677,-0.9367 -0.70756,-1.43335 0.70012,-0.51194 2.0787,-0.44287 2.79879,0.14023 0.50787,0.41124 0.55806,0.56871 0.28582,0.89674 -0.43828,0.52809 -1.30865,0.67323 -2.37705,0.39638 z m 4.82553,-0.32126 c -0.41019,-0.30459 -0.4549,-0.47772 -0.22206,-0.85989 0.40313,-0.6617 2.27005,-0.78956 2.8635,-0.19611 0.41287,0.41287 0.41231,0.47468 -0.008,0.93966 -0.53843,0.59496 -1.90697,0.65543 -2.63295,0.11634 z m 5.1773,0.0401 c -0.75451,-0.38174 -1.01782,-1.2076 -0.4914,-1.5412 0.61202,-0.38786 2.25605,-0.25582 2.84914,0.22882 0.52905,0.43232 0.53877,0.50251 0.1466,1.05834 -0.47438,0.67235 -1.47661,0.77401 -2.50434,0.25404 z m -39.68985,-4.13124 c 0,-0.4826 0.22237,-0.52852 2.97656,-0.61476 1.63711,-0.0513 11.25141,-0.084 21.36511,-0.0728 18.08868,0.0201 18.38854,0.0289 18.38854,0.53972 0,0.51109 -0.33728,0.52047 -21.3651,0.59434 -21.11028,0.0742 -21.36511,0.0688 -21.36511,-0.44652 z m -6.00541,-2.84438 c -0.0698,-0.18188 -0.0498,-0.45545 0.0444,-0.60794 0.11767,-0.19039 8.74587,-0.27725 27.54012,-0.27725 27.19237,0 27.36876,0.003 27.36876,0.52916 0,0.52489 -0.19507,0.52962 -24.14323,0.58521 -13.27878,0.0308 -25.61472,0.0663 -27.41322,0.0788 -2.38908,0.0166 -3.30417,-0.0663 -3.39688,-0.30795 z m -6.15701,-2.70363 c 0.005,-0.0913 0.15423,-0.35741 0.33246,-0.59143 0.29337,-0.38522 3.45792,-0.44254 33.43931,-0.60574 33.20104,-0.18072 34.06275,-0.16316 33.22274,0.67686 -0.16739,0.16739 -11.82475,0.30423 -32.50747,0.3816 -17.73557,0.0663 -32.75251,0.16203 -33.37097,0.21264 -0.61847,0.0506 -1.1207,0.0173 -1.11607,-0.0739 z"
       id="path5927" />
  </g>
</svg>
