<?xml version="1.0" encoding="UTF-8" standalone="no"?>
<!-- Created with Inkscape (http://www.inkscape.org/) -->

<svg
   width="28.764616mm"
   height="55.074112mm"
   viewBox="0 0 28.764616 55.074112"
   version="1.1"
   id="svg5"
   inkscape:version="1.1 (c4e8f9ed74, 2021-05-24)"
   sodipodi:docname="ornament3.svg"
   xmlns:inkscape="http://www.inkscape.org/namespaces/inkscape"
   xmlns:sodipodi="http://sodipodi.sourceforge.net/DTD/sodipodi-0.dtd"
   xmlns="http://www.w3.org/2000/svg"
   xmlns:svg="http://www.w3.org/2000/svg">
  <sodipodi:namedview
     id="namedview7"
     pagecolor="#ffffff"
     bordercolor="#666666"
     borderopacity="1.0"
     inkscape:pageshadow="2"
     inkscape:pageopacity="0.0"
     inkscape:pagecheckerboard="0"
     inkscape:document-units="mm"
     showgrid="false"
     inkscape:zoom="1.3380612"
     inkscape:cx="-299.31367"
     inkscape:cy="73.613974"
     inkscape:window-width="2506"
     inkscape:window-height="1403"
     inkscape:window-x="1974"
     inkscape:window-y="0"
     inkscape:window-maximized="1"
     inkscape:current-layer="layer1" />
  <defs
     id="defs2" />
  <g
     inkscape:label="Layer 1"
     inkscape:groupmode="layer"
     id="layer1"
     transform="translate(-258.4045,-85.749452)">
    <path
       style="fill:#000000;stroke-width:0.264583"
       d="m 270.33892,140.38811 c -0.96254,-0.47439 -1.16677,-0.77074 -1.78395,-2.58859 -0.55475,-1.63398 -0.32588,-2.52566 0.98467,-3.8362 l 1.07128,-1.07128 h -0.73548 c -1.64777,0 -3.91113,-1.95357 -4.25493,-3.67254 -0.40017,-2.00086 1.09,-4.53905 2.87874,-4.90332 l 0.85879,-0.17489 -0.87182,-0.42595 c -0.53547,-0.26162 -0.84053,-0.58843 -0.79071,-0.84711 0.1187,-0.61633 0.92476,-0.6743 2.08722,-0.15011 0.78204,0.35265 1.39479,0.42164 2.61353,0.29426 1.45875,-0.15247 1.59199,-0.12323 1.59199,0.3494 0,0.66236 -0.7572,1.06147 -2.03313,1.07164 -0.78442,0.006 -0.9109,0.0656 -0.56713,0.26622 0.707,0.41253 1.59784,2.04318 1.42085,2.60081 -0.0988,0.31135 -0.0134,0.5578 0.22495,0.64928 0.53726,0.20616 0.23416,1.17781 -0.52197,1.67325 -0.5221,0.34209 -0.72104,0.34895 -1.35374,0.0467 -0.67981,-0.32478 -0.74827,-0.49192 -0.82041,-2.00299 -0.0633,-1.32654 -0.18159,-1.7037 -0.60531,-1.93046 -0.74025,-0.39617 -1.50319,-0.0811 -1.96472,0.81143 -0.52436,1.01401 -0.49838,1.22828 0.17014,1.4031 0.43027,0.11252 0.52766,0.28693 0.41046,0.7351 -0.45366,1.7348 2.31944,2.99025 4.31994,1.95575 1.12281,-0.58062 2.11382,-2.42047 2.11382,-3.92437 0,-0.88075 0.15134,-1.38486 0.52917,-1.76269 0.60266,-0.60267 0.87721,-0.64472 1.61861,-0.24794 0.45356,0.24275 0.50126,0.45096 0.34848,1.52136 -0.29732,2.08307 -1.57677,4.12637 -3.89388,6.2186 -2.90473,2.62282 -3.72926,4.45684 -2.67828,5.95733 0.33202,0.47402 0.62824,0.58532 1.38906,0.52189 0.95489,-0.0796 0.96675,-0.0949 0.94322,-1.21859 -0.0224,-1.07025 0.0165,-1.13323 0.65311,-1.05833 0.93734,0.11027 1.5562,1.25346 1.21057,2.23625 -0.33244,0.94528 -1.81493,1.94615 -2.87117,1.9384 -0.45142,-0.003 -1.21281,-0.19924 -1.69197,-0.4354 z m 3.3186,-1.02825 c 0.60267,-0.68486 0.79516,-1.81517 0.3554,-2.08695 -0.13195,-0.0815 -0.18271,0.0705 -0.1128,0.33779 0.0745,0.28503 -0.16426,0.83234 -0.57736,1.32329 -0.87957,1.04531 -1.98538,1.12081 -2.90765,0.19854 -0.84979,-0.84979 -1.02885,-1.69642 -0.65355,-3.09018 0.25087,-0.93163 0.80956,-1.63971 2.89853,-3.67355 1.42327,-1.38571 2.8302,-3.00126 3.1265,-3.59011 0.61158,-1.21542 0.98154,-2.86405 0.73295,-3.26626 -0.23698,-0.38345 -0.9379,-0.0567 -0.77713,0.36231 0.20979,0.5467 -0.40707,2.55389 -1.12301,3.65419 -0.91801,1.41082 -2.06249,2.038 -3.72117,2.0392 -1.2019,7.9e-4 -1.49023,-0.11219 -2.34718,-0.9204 -0.69494,-0.65542 -0.93666,-1.07548 -0.83735,-1.45521 0.10395,-0.39751 0.0108,-0.53382 -0.3648,-0.53382 -0.41366,0 -0.5044,-0.19404 -0.5044,-1.07868 0,-0.83946 0.17152,-1.25021 0.7734,-1.85209 0.89841,-0.8984 1.8131,-0.98863 2.70302,-0.26663 0.51192,0.41533 0.62462,0.75592 0.62462,1.88761 0,1.50344 0.44983,2.07889 1.3531,1.73098 0.46944,-0.18081 0.47151,-0.20761 0.035,-0.45265 -0.36834,-0.20679 -0.43015,-0.47189 -0.29991,-1.28634 0.13846,-0.86593 0.0607,-1.1292 -0.49867,-1.68859 -1.33026,-1.33025 -3.79844,-1.10777 -4.80827,0.43344 -0.65368,0.99764 -0.80528,2.87851 -0.30932,3.83761 0.69898,1.35166 2.11188,2.24982 3.75339,2.38594 0.78986,0.0655 1.43612,0.21531 1.43612,0.3329 0,0.11759 -0.35988,0.47006 -0.79974,0.78327 -1.29943,0.92527 -2.15637,2.95496 -1.72966,4.09677 0.10876,0.29105 0.32603,0.87091 0.48281,1.28858 0.5765,1.53585 2.94895,1.85377 4.09711,0.54904 z m -2.18281,-15.71883 c -0.87313,-0.10052 -1.86559,-0.332 -2.20547,-0.5144 -0.33989,-0.1824 -0.68533,-0.26428 -0.76764,-0.18197 -0.32785,0.32785 1.73603,0.9293 3.1054,0.90498 l 1.45521,-0.0259 -1.5875,-0.18276 z m 6.74687,4.6208 c 0,-0.3638 0.11367,-0.66146 0.2526,-0.66146 0.41632,0 0.62415,-1.80236 0.37628,-3.26308 -0.19014,-1.12042 -0.33718,-1.38209 -0.81481,-1.45004 -0.66561,-0.0947 -1.06859,-1.01736 -0.6341,-1.45185 0.43907,-0.43907 0.34976,-0.68006 -0.19886,-0.53659 -0.26935,0.0704 -0.69927,-0.0815 -0.95538,-0.3376 -0.43989,-0.43989 -0.44046,-0.48408 -0.0103,-0.79863 0.42828,-0.31317 0.42476,-0.37722 -0.0591,-1.07625 -1.8303,-2.64412 -1.87854,-7.053 -0.0877,-8.01145 0.71513,-0.38273 1.23273,-0.33948 1.71555,0.14335 0.56331,0.56331 0.52291,0.90714 -0.1066,0.90714 -0.80303,0 -1.40788,1.3966 -1.18493,2.73597 0.22358,1.34309 0.89299,3.08486 1.1856,3.08486 0.11803,0 0.39464,-0.56554 0.6147,-1.25677 0.95396,-2.99643 0.83872,-6.42631 -0.25978,-7.73179 -0.34666,-0.41199 -0.56628,-0.91589 -0.48804,-1.11978 0.22792,-0.59396 1.66385,-1.32005 2.24548,-1.13544 0.54922,0.17431 0.56565,0.21693 0.66254,1.71878 0.0329,0.50933 0.15027,1.76969 0.26092,2.80081 0.24751,2.30653 -0.17841,4.98661 -1.07304,6.75208 -0.87389,1.72454 -0.86116,2.50474 0.0233,1.42732 0.98148,-1.19562 1.60112,-2.68479 2.076,-4.98924 0.56648,-2.74891 0.55946,-5.29056 -0.0173,-6.26694 -0.37069,-0.62753 -0.39158,-0.87326 -0.12416,-1.46019 0.28744,-0.63086 0.22994,-0.84978 -0.54232,-2.06445 -1.09705,-1.72557 -3.01987,-3.80634 -3.97273,-4.299083 -0.91374,-0.47251 -0.92952,-0.27656 -0.0608,0.755803 0.37129,0.44126 0.63918,1.05078 0.59531,1.35449 -0.0861,0.59597 -1.14007,1.26031 -1.67427,1.05531 -0.18043,-0.0692 -0.60986,-0.98169 -0.95428,-2.02767 l -0.62622,-1.901783 -1.4552,-0.0315 c -0.80037,-0.0173 -1.60282,0.0247 -1.78322,0.0934 -0.1912,0.0728 0.26466,0.61286 1.09298,1.294783 1.48153,1.21967 2.58074,2.61714 3.0567,3.88609 0.59604,1.58909 0.15867,4.05664 -0.87027,4.90996 -0.24082,0.19972 -0.43786,0.74189 -0.43786,1.20482 0,1.28517 -1.22324,3.48716 -2.39915,4.3188 -0.56603,0.40031 -1.02503,0.78737 -1.02,0.86013 0.005,0.0728 0.85645,0.7276 1.89208,1.45521 2.21664,1.55736 2.98163,2.47571 2.72798,3.27488 -0.31806,1.00212 -1.31571,0.98451 -2.44236,-0.0431 -3.83248,-3.49562 -4.71673,-4.1487 -5.63772,-4.16384 -1.42007,-0.0234 -3.67746,-1.12672 -5.31921,-2.59995 -1.48848,-1.33569 -2.47871,-2.99511 -3.17591,-5.32218 -0.3082,-1.02866 -0.29364,-1.16502 0.15984,-1.4966 0.66183,-0.48395 1.01509,-0.46023 1.72661,0.11592 0.50306,0.40735 0.547,0.56801 0.28782,1.05229 -0.71384,1.33382 1.96832,5.05266 4.12745,5.72276 0.5426,0.1684 0.5195,0.0732 -0.32078,-1.32225 -0.49802,-0.82705 -1.08475,-2.05396 -1.30385,-2.72645 -0.57688,-1.77069 -1.00578,-4.79462 -0.73087,-5.15293 0.12792,-0.16672 0.17884,-0.81303 0.11317,-1.43625 -0.0982,-0.93156 -0.18492,-1.07876 -0.48767,-0.8275 -0.20255,0.16809 -0.36826,0.51459 -0.36826,0.77 0,0.25541 -0.18996,0.62202 -0.42212,0.8147 -0.35158,0.29179 -0.53596,0.28615 -1.10327,-0.0337 -0.37463,-0.21124 -0.73099,-0.53473 -0.79191,-0.71887 -0.15587,-0.47115 3.48942,-4.184543 5.18179,-5.278593 1.05104,-0.67945 1.36596,-1.02339 1.23885,-1.35299 -0.0937,-0.24308 -0.30539,-0.945212 -0.47033,-1.560299 -0.53003,-1.976533 0.6401,-3.673438 1.23576,-1.792076 0.13822,0.436563 0.46459,1.30605 0.72528,1.932195 0.43958,1.055859 0.51668,1.115585 1.06277,0.823326 0.32384,-0.173315 1.76799,-0.387959 3.20922,-0.476986 l 2.62042,-0.161868 0.32814,-0.957188 c 0.5841,-1.7038 1.52064,-2.916384 2.96715,-3.841707 0.77889,-0.498249 1.41616,-1.021311 1.41616,-1.16236 0,-0.627818 0.93002,-0.144068 2.26045,1.175779 1.02949,1.021301 1.45246,1.647586 1.47419,2.182812 0.0957,2.358727 -0.84281,3.565422 -2.13662,2.747057 -0.33329,-0.210819 -0.32421,-0.313044 0.0661,-0.744386 0.61684,-0.681605 0.56881,-1.797238 -0.10645,-2.4725 -1.28735,-1.287344 -4.3217,0.397123 -4.8287,2.680564 -0.1323,0.595876 -0.03,0.702599 0.9662,1.008399 1.99211,0.611488 4.49513,2.312918 6.40582,4.354371 2.2101,2.36134 3.57188,4.0929 3.57188,4.54177 0,0.59881 -0.98562,1.24565 -1.76254,1.1567 -0.66086,-0.0756 -0.76848,-0.21691 -0.89661,-1.17678 -0.24614,-1.84403 -3.38175,-5.165223 -6.16177,-6.526463 -2.03577,-0.99682 -2.49985,-0.88773 -0.60224,0.14157 3.10926,1.68652 5.82581,5.160513 6.7834,8.674753 0.283,1.03858 0.34859,1.11198 0.53998,0.60418 0.49189,-1.30512 2.21999,-1.41225 2.535,-0.15715 0.3363,1.33994 -1.26212,2.4567 -2.2442,1.56793 -0.48739,-0.44109 -0.50746,-0.39976 -0.68614,1.41356 -0.10123,1.02737 -0.34539,2.48989 -0.54257,3.25004 -0.19718,0.76015 -0.32037,1.42023 -0.27375,1.46685 0.19937,0.19937 1.23448,-3.06963 1.27865,-4.03816 0.0411,-0.90167 0.15873,-1.10005 0.78173,-1.31867 0.60817,-0.21343 0.83112,-0.15955 1.30639,0.31573 0.4741,0.4741 0.52364,0.67748 0.28686,1.17756 -0.15742,0.33247 -0.49263,1.1998 -0.74492,1.92741 -0.76949,2.21924 -1.86623,3.90324 -4.09013,6.2802 -1.98771,2.12451 -2.10845,2.31923 -1.85361,2.9895 1.00453,2.64212 0.0568,6.47301 -1.60134,6.47301 -0.37706,0 -0.51886,-0.18077 -0.51886,-0.66146 z m 1.81045,-1.34317 c 0.41836,-1.22252 0.10257,-3.54209 -0.7544,-5.54134 -0.87071,-2.03128 -1.04972,-1.07728 -0.23634,1.2595 0.86558,2.48671 0.92967,3.2702 0.3759,4.59556 -0.28729,0.68759 -0.30495,0.90943 -0.0662,0.83115 0.17917,-0.0587 0.48561,-0.57392 0.68099,-1.14487 z m -5.56926,-7.03823 c 0.076,-0.39155 -0.35221,-0.75192 -4.82852,-4.06361 -2.84367,-2.10383 -3.95043,-3.30008 -4.97079,-5.37274 -0.76815,-1.56032 -0.86167,-1.99498 -0.86167,-4.00481 0,-2.03226 0.0806,-2.39663 0.81758,-3.69593 1.03118,-1.818 1.53882,-2.17555 2.07731,-1.46317 0.39211,0.51875 0.39565,0.51852 0.40399,-0.0259 0.0196,-1.278743 2.21561,-2.375283 5.33813,-2.665493 0.99772,-0.0927 1.81403,-0.28768 1.81403,-0.43322 0,-0.40977 -3.90744,0.003 -5.48349,0.5786 -1.60623,0.5871 -2.67775,1.307033 -3.63038,2.439163 -0.85322,1.01399 -2.32714,3.93744 -1.98515,3.93744 0.13811,0 0.25111,0.71821 0.25111,1.59603 0,2.15178 1.22527,5.32628 2.70435,7.00661 0.60475,0.68703 2.50276,2.37261 4.2178,3.74573 1.71505,1.37312 3.1918,2.61557 3.28168,2.76099 0.2238,0.36211 0.75913,0.14915 0.85402,-0.33972 z m 7.50641,-1.20975 c 2.01426,-2.0942 2.95047,-3.60884 3.82086,-6.1815 0.76483,-2.26062 0.76024,-2.14284 0.0793,-2.03898 -0.45499,0.0694 -0.56751,0.29901 -0.6281,1.28169 -0.13763,2.23214 -3.59718,7.79783 -4.84785,7.79916 -0.24474,2.6e-4 -0.48507,0.20862 -0.53406,0.46303 -0.15832,0.82211 0.35733,0.49866 2.10982,-1.3234 z m -3.67706,0.10681 c 1.69578,-2.55404 2.30289,-5.59728 1.75724,-8.80852 -0.16967,-0.99851 -0.29448,-2.08337 -0.27735,-2.41079 0.0213,-0.4071 -0.11849,-0.59531 -0.44214,-0.59531 -0.9713,0 -1.09562,0.52499 -0.4236,1.78889 0.5332,1.00281 0.63823,1.57781 0.63823,3.49416 0,2.74642 -0.47898,4.51478 -1.72401,6.36488 -0.99361,1.4765 -1.03962,1.58124 -0.6947,1.58124 0.12492,0 0.64976,-0.63655 1.16633,-1.41455 z m -1.77931,-2.0467 c -0.82066,-1.76299 -0.87438,-3.48041 -0.14621,-4.67469 0.50627,-0.83034 0.45114,-1.06276 -0.15593,-0.65741 -0.54879,0.36644 -0.8995,1.35092 -0.8995,2.52498 0,1.73607 1.17649,4.93312 1.6435,4.46611 0.12421,-0.12421 -0.0742,-0.86919 -0.44186,-1.65899 z m 5.7729,-0.62064 c 0.8149,-2.03559 1.33381,-5.6818 1.16777,-8.20554 -0.20769,-3.15693 -2.26216,-6.4444 -5.20917,-8.335493 -0.69282,-0.44458 -1.42139,-0.80833 -1.61905,-0.80833 -0.19765,0 0.16996,0.33647 0.81692,0.7477 1.62261,1.031433 3.7715,3.455933 4.64442,5.240103 0.68588,1.40189 0.70142,1.50982 0.2635,1.83003 -0.44407,0.32472 -0.44406,0.37279 4e-4,1.0511 0.91199,1.39188 0.46026,6.52937 -0.82,9.32583 -0.38824,0.84803 -0.50828,1.32073 -0.28923,1.13893 0.20597,-0.17093 0.67596,-1.06388 1.04445,-1.98433 z m -15.58935,-0.74676 c -0.0723,-0.1819 -0.77886,-0.61152 -1.57006,-0.9547 -2.70932,-1.17519 -5.41828,-4.61362 -5.02948,-6.38382 0.15946,-0.726 0.11402,-0.79742 -0.50734,-0.79742 -0.37536,0 -0.68248,0.037 -0.68248,0.0821 0,0.41529 1.4762,3.6825 2.01537,4.46051 0.85476,1.23343 3.20508,3.07287 4.53073,3.54592 1.25775,0.44881 1.40514,0.45443 1.24326,0.0474 z m 4.8891,-1.40108 c 1.69263,-1.52918 2.33541,-4.22654 1.45122,-6.08983 -0.45842,-0.96604 -1.10017,-1.29137 -2.39162,-1.21241 -0.69004,0.0422 -0.85838,-0.0638 -1.00045,-0.62986 -0.0946,-0.37678 -0.0186,-0.99962 0.17016,-1.39531 0.27999,-0.58691 0.54365,-0.72938 1.4742,-0.79662 0.99712,-0.0721 1.2456,0.0305 2.0689,0.8538 0.80385,0.80384 0.92935,1.09497 0.89079,2.06625 -0.0718,1.80698 -0.005,1.98099 0.4414,1.15606 0.52772,-0.9745 0.36945,-2.89681 -0.35358,-4.29445 -0.57086,-1.10353 -3.54263,-3.800823 -4.18758,-3.800823 -0.7604,0 -0.38093,0.544113 0.99508,1.426803 1.49392,0.95832 2.49359,1.92249 2.24795,2.16813 -0.0837,0.0837 -0.3926,0.0234 -0.68654,-0.13391 -0.85839,-0.4594 -1.96653,-0.32973 -2.786,0.32601 -1.42972,1.14406 -1.14143,4.61351 0.33266,4.00338 1.06004,-0.43876 1.35813,-0.40295 2.00148,0.2404 0.54785,0.54785 0.67639,0.9317 0.67639,2.01983 0,1.81268 -0.50116,2.88991 -1.88351,4.04861 -0.63756,0.5344 -1.01072,0.97397 -0.82923,0.97682 0.18148,0.003 0.79721,-0.41695 1.36828,-0.93288 z m -1.63746,0.005 c 0.54865,-0.22198 1.26713,-0.78752 1.59663,-1.25677 l 0.59909,-0.85317 -1.36822,-0.20224 c -2.04739,-0.30262 -4.35208,-1.44193 -5.43285,-2.68568 -0.78637,-0.90495 -0.9082,-0.97319 -0.7487,-0.41937 0.46423,1.61194 1.20386,2.88456 2.4988,4.29948 0.76579,0.83674 1.49705,1.52135 1.62503,1.52135 0.12797,0 0.68157,-0.18162 1.23022,-0.4036 z m 2.45275,-3.30056 c 0,-0.14552 -0.12609,-0.26459 -0.2802,-0.26459 -0.15411,0 -0.20661,-0.11906 -0.11668,-0.26458 0.10102,-0.16345 -0.37338,-0.2668 -1.24115,-0.27039 -1.74574,-0.007 -3.24904,-0.66869 -4.82847,-2.12455 -1.59153,-1.46702 -1.65291,-0.69266 -0.0773,0.97497 0.77656,0.82191 1.58206,1.35141 2.57968,1.69576 1.55221,0.53577 3.9641,0.68994 3.9641,0.25338 z m -0.39688,-1.98438 c 0,-0.46294 -0.17638,-0.52917 -1.40949,-0.52917 -1.49669,0 -2.01173,-0.36685 -2.33773,-1.66512 -0.40711,-1.62131 1.40759,-3.996 3.08577,-4.03799 0.61164,-0.0153 0.62445,-0.0403 0.1701,-0.33172 -0.27025,-0.17334 -1.03306,-0.72182 -1.69513,-1.21885 l -1.20376,-0.903693 -0.48769,0.602273 c -0.26823,0.33125 -0.48769,0.8272 -0.48769,1.10213 0,0.57555 -0.77285,0.67705 -1.28781,0.16912 -0.39169,-0.38634 -0.89872,0.14671 -1.53159,1.61019 -0.5188,1.19971 -0.13407,2.2831 1.3015,3.66503 1.68232,1.61944 3.00944,2.20157 4.82519,2.11653 0.86542,-0.0405 1.05833,-0.14602 1.05833,-0.57873 z m 14.55209,-0.92604 c 0,-0.57381 -1.03224,-0.49476 -1.1444,0.0876 -0.0724,0.37573 0.0456,0.46483 0.52555,0.39688 0.34037,-0.0482 0.61885,-0.26623 0.61885,-0.48451 z m -12.94266,-1.43141 c -0.22212,-1.18398 -1.29506,-2.06193 -2.38909,-1.95491 -0.6975,0.0682 -0.81913,0.19603 -0.8905,0.93561 -0.079,0.81899 -0.0486,0.84977 0.69395,0.70127 0.61787,-0.12358 0.95922,0.008 1.66998,0.6429 0.49135,0.43902 0.93751,0.75408 0.99146,0.70014 0.0539,-0.054 0.0198,-0.5152 -0.0758,-1.02501 z m 11.86268,-1.11044 c 0.64788,-0.24861 0.52948,-0.55172 -1.10283,-2.82328 -3.54215,-4.929333 -8.24861,-7.114488 -13.63309,-6.329692 -1.17924,0.171879 -2.27027,0.442899 -2.42451,0.602269 -0.20292,0.20967 0.15833,0.22868 1.30707,0.0688 2.83626,-0.39484 6.06,-0.14962 7.94304,0.60422 2.90535,1.16308 7.4748,6.009333 7.08208,7.511073 -0.14175,0.54208 0.0964,0.6475 0.82824,0.36665 z m -24.45231,-2.20035 c 0,-0.31945 1.30873,-1.87238 1.57794,-1.87238 0.1144,0 0.30207,0.38695 0.41704,0.85989 l 0.20905,0.8599 0.095,-0.79375 c 0.19568,-1.63472 0.37362,-1.94792 1.66711,-2.934343 1.6855,-1.28538 1.70581,-1.6713 0.0403,-0.76479 -1.53253,0.83411 -4.94234,4.181073 -4.68454,4.598203 0.21873,0.35391 0.67813,0.38593 0.67813,0.0473 z m 15.76621,-0.91219 c 0.0766,-0.1995 -0.16694,-0.81383 -0.5411,-1.36519 -0.37416,-0.55136 -0.75383,-1.462343 -0.84371,-2.024393 -0.0899,-0.56206 -0.26683,-1.08584 -0.39324,-1.16397 -0.29931,-0.18498 -0.28278,6.9e-4 0.15511,1.74127 0.6885,2.736843 1.26713,3.739503 1.62294,2.812283 z m -10.20054,-2.947563 c 0.28586,-0.0907 0.51974,-0.27906 0.51974,-0.41851 0,-0.13945 -0.34291,-0.0762 -0.76203,0.14052 -1.28045,0.66214 -2.41297,1.753903 -2.41297,2.326133 0,0.43677 0.20873,0.30577 1.06776,-0.67014 0.58727,-0.667173 1.30164,-1.287273 1.5875,-1.378003 z m 1.67051,-1.04687 c 0.082,-0.21362 0.0233,-0.46609 -0.1303,-0.56104 -0.37916,-0.23433 -1.81375,-3.302157 -1.81401,-3.879202 -1.1e-4,-0.254662 -0.12973,-0.463021 -0.28805,-0.463021 -0.58305,0 0.25927,3.206813 1.23357,4.696353 0.45044,0.68865 0.78716,0.75841 0.99879,0.20691 z m 3.95056,-0.59973 c 1.13223,-0.0808 2.13302,-0.26732 2.22397,-0.41447 0.18122,-0.29323 -4.70816,-0.0973 -5.20293,0.20846 -0.42975,0.26559 -0.009,0.7237 0.48408,0.52699 0.23995,-0.0957 1.36264,-0.24017 2.49488,-0.32098 z m 4.23948,-5.054387 c 1.24731,-1.335903 3.19333,-1.770159 4.33841,-0.968117 0.78004,0.546364 1.25991,2.05411 0.8798,2.764348 -0.18902,0.353189 -0.19644,0.542123 -0.0213,0.542123 0.40032,0 0.62582,-1.198096 0.42598,-2.263317 -0.18448,-0.983381 -1.36458,-1.967035 -2.36226,-1.969027 -0.41384,-8.2e-4 -0.44031,-0.06739 -0.16073,-0.404258 0.57294,-0.690361 0.0566,-0.752402 -0.77136,-0.09267 -0.43362,0.34553 -1.08921,0.838921 -1.45686,1.096426 -0.95146,0.666403 -1.94123,2.043787 -2.13521,2.971393 -0.15925,0.761527 -0.14876,0.756233 0.25823,-0.130403 0.23332,-0.508284 0.68569,-1.204206 1.00528,-1.546493 z m -1.85272,31.00416 c -0.23711,-0.61791 0.48973,-1.79474 1.16914,-1.89295 0.37822,-0.0547 0.7205,0.14772 1.01822,0.60209 0.42338,0.64616 0.42202,0.71367 -0.0243,1.20683 -0.5831,0.64433 -1.92801,0.69657 -2.16307,0.084 z m 1.7432,-0.45257 c 0.22879,-0.27569 0.20186,-0.44342 -0.11318,-0.70488 -0.3421,-0.28392 -0.48498,-0.27154 -0.82832,0.0718 -0.44371,0.44371 -0.28173,0.99485 0.29239,0.99485 0.19187,0 0.48397,-0.1628 0.64911,-0.36177 z m -9.61999,-0.79017 c -0.6799,-0.49715 -0.84166,-2.45624 -0.28774,-3.4848 0.45088,-0.83725 1.36091,-1.44868 2.15613,-1.44868 0.52339,0 1.69531,1.18627 1.69531,1.71607 0,0.6491 -0.75578,0.78155 -1.35666,0.23776 -0.53009,-0.47972 -0.5527,-0.4789 -0.93595,0.0341 -0.27964,0.37427 -0.34748,0.87888 -0.23559,1.75216 0.17237,1.34528 -0.21589,1.79275 -1.0355,1.19343 z m 0.49493,-1.56004 c -0.14198,-1.21005 -0.0885,-1.45639 0.41483,-1.91143 0.55455,-0.50134 0.60985,-0.50399 1.37349,-0.0657 0.52728,0.30262 0.75872,0.34495 0.68612,0.1255 -0.0602,-0.18214 -0.42101,-0.50677 -0.80168,-0.72141 -0.64254,-0.36228 -0.74026,-0.34503 -1.3638,0.24075 -0.79552,0.74735 -1.08708,1.9886 -0.70387,2.99652 0.42454,1.11663 0.5743,0.86474 0.39491,-0.66421 z m -8.25539,-14.80344 c -0.44578,-0.44578 -0.3956,-1.448 0.0817,-1.63115 0.51264,-0.19671 1.62503,0.2235 1.78628,0.67478 0.34844,0.97512 -1.10504,1.71929 -1.86795,0.95637 z m 1.27,-0.59293 c 0,-0.20969 -0.12944,-0.46125 -0.28764,-0.55903 -0.3736,-0.23089 -0.88355,0.27906 -0.65265,0.65266 0.25935,0.41963 0.94029,0.35183 0.94029,-0.0936 z m 16.84205,0.16199 c -0.57572,-0.63615 -0.55336,-1.18171 0.0716,-1.74729 0.66986,-0.60621 1.36287,-0.44584 1.8539,0.429 0.36266,0.64612 0.35414,0.75523 -0.0981,1.2549 -0.61172,0.67595 -1.25295,0.69819 -1.82743,0.0634 z m 1.54649,-0.83906 c 0,-0.57381 -1.03224,-0.49476 -1.1444,0.0876 -0.0724,0.37573 0.0456,0.46483 0.52555,0.39688 0.34037,-0.0482 0.61885,-0.26623 0.61885,-0.48451 z M 268.7427,92.856462 c -0.79645,-0.84779 -0.7222,-1.410298 0.3243,-2.456801 0.62701,-0.627013 1.14238,-0.899583 1.70089,-0.899583 0.94463,0 1.72506,0.677192 1.55035,1.345272 -0.15413,0.589412 0.47961,0.860692 1.16001,0.496553 0.38433,-0.205687 0.51,-0.558237 0.51,-1.43074 0,-0.968046 -0.13341,-1.270056 -0.81405,-1.842774 -0.47391,-0.39877 -1.14078,-0.684978 -1.596,-0.684978 -0.97779,0 -2.56088,0.648755 -3.31742,1.35949 -0.70877,0.665857 -1.58674,0.558342 -1.45728,-0.178457 0.12836,-0.730593 0.52825,-1.160549 1.87874,-2.019972 2.11783,-1.347746 4.90845,-0.947855 6.56691,0.941026 2.72393,3.102385 -1.55246,7.808439 -4.45656,4.904332 -0.6324,-0.632399 -1.07866,-0.325503 -0.84209,0.57912 0.18415,0.704186 -0.50047,0.640424 -1.2078,-0.112488 z m 5.80584,-1.20859 c 1.15562,-1.15562 1.28693,-1.917372 0.58536,-3.395816 -0.69042,-1.454964 -1.74319,-1.971439 -3.80968,-1.86898 -1.49982,0.07436 -1.8896,0.206246 -2.84428,0.962362 -0.60845,0.481904 -1.10627,0.99583 -1.10627,1.142059 0,0.146228 0.35416,-0.03214 0.78703,-0.396371 1.06653,-0.89743 2.49094,-1.328233 3.80772,-1.151616 1.39726,0.187413 2.81358,1.616352 2.81358,2.838659 0,0.855946 -0.40742,1.836682 -0.89951,2.165253 -0.47481,0.317043 -1.60807,0.229624 -2.14879,-0.165755 -0.42158,-0.308269 -0.44765,-0.435657 -0.16008,-0.78216 0.5149,-0.620414 0.098,-1.045337 -0.84124,-0.857484 -1.09017,0.218034 -1.77348,0.884863 -1.76062,1.718166 l 0.0106,0.686597 0.39474,-0.727604 c 0.44729,-0.8245 1.36066,-0.973077 1.62651,-0.264584 0.54483,1.452025 2.14625,1.495968 3.54494,0.09727 z m -8.92535,-0.412548 c -0.2847,-0.741917 0.0246,-1.337141 0.73784,-1.4199 0.81733,-0.09484 1.27018,0.775319 0.73752,1.417142 -0.41003,0.494046 -1.2862,0.495684 -1.47536,0.0028 z m 0.99641,-0.544621 c 0,-0.138245 -0.12799,-0.294019 -0.28442,-0.346164 -0.15644,-0.05215 -0.28443,0.103629 -0.28443,0.346164 0,0.242534 0.12799,0.398308 0.28443,0.346163 0.15643,-0.05214 0.28442,-0.207919 0.28442,-0.346163 z"
       id="path519" />
  </g>
</svg>
