<?xml version="1.0" encoding="UTF-8" standalone="no"?>
<!-- Created with Inkscape (http://www.inkscape.org/) -->

<svg
   width="83.455795mm"
   height="83.321327mm"
   viewBox="0 0 83.455782 83.321305"
   version="1.1"
   id="svg5"
   inkscape:version="1.1 (c4e8f9ed74, 2021-05-24)"
   sodipodi:docname="ornament25.svg"
   xmlns:inkscape="http://www.inkscape.org/namespaces/inkscape"
   xmlns:sodipodi="http://sodipodi.sourceforge.net/DTD/sodipodi-0.dtd"
   xmlns="http://www.w3.org/2000/svg"
   xmlns:svg="http://www.w3.org/2000/svg">
  <sodipodi:namedview
     id="namedview7"
     pagecolor="#ffffff"
     bordercolor="#666666"
     borderopacity="1.0"
     inkscape:pageshadow="2"
     inkscape:pageopacity="0.0"
     inkscape:pagecheckerboard="0"
     inkscape:document-units="mm"
     showgrid="false"
     inkscape:zoom="0.94615212"
     inkscape:cx="92.479843"
     inkscape:cy="286.95174"
     inkscape:window-width="2506"
     inkscape:window-height="1403"
     inkscape:window-x="1974"
     inkscape:window-y="0"
     inkscape:window-maximized="1"
     inkscape:current-layer="layer1" />
  <defs
     id="defs2" />
  <g
     inkscape:label="Layer 1"
     inkscape:groupmode="layer"
     id="layer1"
     transform="translate(376.75296,-136.47192)">
    <path
       style="fill:#000000;stroke-width:0.264583"
       d="m -342.06201,219.42717 c -9.12266,-1.45872 -13.85826,-4.65393 -14.97582,-10.10454 -0.40932,-1.99634 -0.0924,-3.32545 1.05524,-4.42491 0.99665,-0.95485 2.42809,-1.0151 3.35817,-0.14133 1.21692,1.14324 0.6184,2.84664 -0.89394,2.54417 -0.86237,-0.17247 -1.5291,0.1493 -1.24887,0.60273 0.11407,0.18456 -0.0368,0.47761 -0.36391,0.7067 -0.69677,0.48803 -0.37374,1.2742 0.62673,1.5253 0.36764,0.0923 0.66844,0.34409 0.66844,0.5596 0,0.27243 0.28605,0.39184 0.93867,0.39184 1.10215,0 2.10411,-0.91236 2.37964,-2.16682 0.16215,-0.73829 0.21015,-0.76811 0.60338,-0.37489 0.46117,0.46117 0.54708,2.93596 0.17857,5.14433 -0.23964,1.43612 0.13939,1.94646 0.92057,1.23949 0.5265,-0.47648 0.53542,-0.47096 0.53542,0.33131 0,0.70006 0.55195,1.64741 0.95982,1.64741 0.0705,0 0.36309,-0.53086 0.6501,-1.17968 0.44483,-1.00562 0.48494,-1.40578 0.27186,-2.71198 -0.13748,-0.84276 -0.38232,-1.87623 -0.54411,-2.2966 -0.16178,-0.42036 -0.2481,-0.81034 -0.19183,-0.86661 0.22565,-0.22565 1.97263,2.22805 2.29145,3.21841 0.96994,3.01301 1.13587,3.30729 1.86472,3.30729 0.2611,0 0.53478,-0.14882 0.60818,-0.33073 0.0813,-0.20153 0.14161,-0.15388 0.15434,0.12199 0.0517,1.12009 2.39683,2.16169 2.40604,1.06864 0.003,-0.34622 0.0863,-0.30082 0.33072,0.17999 0.17976,0.35366 0.68117,0.73751 1.11424,0.85301 0.94496,0.25201 1.42935,-0.10346 0.94169,-0.69106 -0.53997,-0.65063 -0.0974,-0.47208 0.6281,0.25337 0.74252,0.74252 1.47926,0.86966 1.47926,0.25528 0,-0.3196 0.1091,-0.3478 0.51177,-0.13229 0.28148,0.15064 1.26374,0.26449 2.18282,0.253 0.91907,-0.0115 1.49244,-0.0862 1.27416,-0.16603 -0.21828,-0.0798 -1.00318,-0.6062 -1.74423,-1.16973 -0.74105,-0.56353 -1.48145,-1.0246 -1.64534,-1.0246 -0.16389,0 -0.22775,-0.18303 -0.14191,-0.40673 0.21657,-0.56439 -0.56882,-1.3526 -1.54162,-1.54716 -0.69647,-0.1393 -0.76426,-0.22094 -0.47394,-0.57075 0.46391,-0.55897 0.0475,-0.9222 -1.25782,-1.09729 -0.92262,-0.12374 -1.03417,-0.21348 -0.93171,-0.74944 0.14075,-0.73634 -0.26361,-0.97281 -2.44989,-1.43271 -1.49533,-0.31454 -5.15937,-2.03524 -5.15937,-2.42293 0,-0.098 0.74414,0.12393 1.65364,0.49313 1.79359,0.72809 4.69258,0.9607 5.23551,0.4201 0.38594,-0.3843 -0.11025,-1.41747 -0.68075,-1.41747 -0.21316,0 -0.38757,-0.23394 -0.38757,-0.51986 0,-0.87231 -0.93574,-1.17415 -2.14278,-0.69119 -1.22177,0.48886 -3.32966,0.54442 -4.38843,0.11569 -0.73573,-0.29793 -0.72627,-0.30635 0.77351,-0.68924 1.12848,-0.28811 1.72663,-0.62487 2.32956,-1.31157 0.90643,-1.03236 0.93388,-1.75724 0.0712,-1.88066 -0.48547,-0.0695 -0.55287,-0.21145 -0.43953,-0.92604 0.0995,-0.62723 -0.0136,-1.0007 -0.44015,-1.45409 -0.75377,-0.80112 -1.39226,-0.6496 -1.7028,0.40408 -0.21029,0.71353 -0.34898,0.8266 -0.85743,0.69899 -0.76745,-0.19262 -1.06659,0.46594 -0.63845,1.40558 0.37076,0.81374 0.002,1.40872 -0.87261,1.40872 -1.49272,0 -2.50962,-1.90777 -2.00024,-3.7526 0.33731,-1.22162 2.03674,-2.77536 3.29347,-3.01113 1.50062,-0.28151 3.05915,0.0918 4.5803,1.09723 1.80845,1.19529 2.62799,2.5251 4.01623,6.51683 0.62178,1.78789 1.40593,3.7865 1.74255,4.44134 1.78858,3.47946 5.64307,6.72272 8.9649,7.54329 1.02625,0.25351 3.17559,0.53521 4.77632,0.626 l 2.91041,0.16509 -2.24896,0.72489 c -4.35191,1.40273 -7.02582,1.79112 -12.13381,1.76247 -2.56697,-0.0144 -5.61973,-0.17848 -6.78389,-0.36463 z m 15.0151,-5.19687 c -0.86296,-0.24917 -1.18828,-0.76232 -0.48329,-0.76232 0.20714,0 0.89782,-0.39785 1.53486,-0.88411 l 1.15825,-0.88412 0.97839,0.84576 c 0.53812,0.46516 1.36548,0.96253 1.83858,1.10526 l 0.86019,0.2595 -1.05833,0.30655 c -1.24145,0.35958 -3.60712,0.36619 -4.82865,0.0135 z m 7.0776,-2.58503 c -2.66582,-0.94732 -4.41011,-3.80735 -3.32867,-5.45784 0.51883,-0.79182 1.49293,-1.07301 2.27227,-0.65592 0.47821,0.25593 0.55018,0.45786 0.40878,1.14698 -0.37096,1.80798 -0.31869,2.1607 0.3169,2.13827 0.43203,-0.0152 0.59642,0.12989 0.59936,0.52917 0.002,0.30259 0.11276,0.722 0.24564,0.932 0.32755,0.51772 1.48831,-0.002 1.73419,-0.77714 0.0977,-0.30792 0.31641,-0.50986 0.48597,-0.44875 0.16955,0.0611 0.51651,0.004 0.77102,-0.12689 0.42599,-0.21909 0.43115,-0.31607 0.065,-1.22102 -0.21878,-0.54067 -0.8338,-1.36998 -1.36672,-1.84292 -0.53293,-0.47295 -0.81277,-0.8599 -0.62189,-0.8599 0.65588,0 2.52902,1.381 3.26849,2.40974 0.68353,0.95092 1.76428,1.41484 1.76428,0.75734 0,-0.14988 0.358,-0.008 0.79557,0.31568 1.49147,1.1027 1.69714,-0.37604 0.28868,-2.07564 -0.75481,-0.91084 -2.41569,-1.93453 -3.1717,-1.95488 -0.62344,-0.0168 -0.63916,-0.0407 -0.16151,-0.24599 0.95202,-0.4091 2.23751,-0.27611 3.83646,0.39688 1.80299,0.75886 2.34188,0.80975 3.05477,0.28848 0.50296,-0.36778 0.50274,-0.38124 -0.0156,-0.96455 l -0.52566,-0.59156 0.57792,0.30308 c 0.79306,0.41592 1.99509,0.38018 2.61266,-0.0777 0.4218,-0.31272 0.45868,-0.47085 0.20634,-0.88487 -0.27159,-0.44558 -0.23715,-0.4907 0.29677,-0.38863 0.85297,0.16305 2.25944,-0.62312 2.25944,-1.26295 0,-0.28731 0.15784,-0.52238 0.35076,-0.52238 0.53738,0 1.58738,-1.24621 1.41922,-1.68443 -0.082,-0.21364 0.0224,-0.45421 0.23185,-0.53461 0.39841,-0.15289 2.03544,-2.56313 1.86002,-2.73856 -0.0555,-0.0555 -0.55842,0.14428 -1.11757,0.44397 -0.55916,0.29968 -1.29171,0.54488 -1.62791,0.54488 -0.33619,0 -0.89579,0.28454 -1.24356,0.63231 -0.48326,0.48326 -0.66558,0.54563 -0.77342,0.26459 -0.19284,-0.50252 -1.49099,-0.46333 -2.24945,0.0679 -0.57746,0.40448 -0.63941,0.40448 -0.86577,0 -0.33157,-0.59249 -0.99049,-0.54739 -1.69679,0.11615 l -0.58735,0.55179 -0.17514,-0.55179 c -0.12071,-0.38033 -0.39568,-0.55053 -0.8849,-0.54774 -0.92338,0.005 -1.07075,0.1207 -2.36804,1.85475 -1.07981,1.44335 -1.94488,2.21937 -3.23653,2.90335 -0.54505,0.28863 -0.48359,0.15277 0.34924,-0.77199 1.16122,-1.28938 1.98541,-3.04717 2.21535,-4.72476 0.15261,-1.11341 0.13175,-1.16062 -0.47488,-1.07487 -0.34898,0.0493 -0.74747,0.34698 -0.88554,0.66145 -0.17174,0.39115 -0.46293,0.55832 -0.92176,0.52917 -0.58013,-0.0369 -0.70091,0.1003 -0.8944,1.01573 -0.51149,2.41982 -0.77456,3.09677 -1.54402,3.97313 -1.14138,1.29996 -1.41668,1.14542 -0.4668,-0.26204 0.68075,-1.00869 0.787,-1.38972 0.71865,-2.57721 -0.0652,-1.13207 -0.17621,-1.41178 -0.59189,-1.49091 -0.28143,-0.0536 -0.65329,0.0963 -0.82637,0.33298 -0.28138,0.3848 -0.36203,0.35812 -0.76182,-0.25203 -0.78545,-1.19874 -2.56686,-0.29361 -1.80936,0.91934 0.27808,0.44527 0.24334,0.52378 -0.26381,0.59622 -0.96505,0.13785 -0.86992,0.9399 0.18532,1.56251 1.06807,0.63017 1.24616,1.47366 0.46115,2.18408 -0.79629,0.72064 -1.75079,0.54242 -2.66373,-0.49737 -0.81006,-0.9226 -0.92988,-1.3445 -0.82275,-2.89707 0.13257,-1.92138 2.51677,-4.7039 4.68563,-5.46844 1.8601,-0.6557 5.12478,-0.42576 9.2354,0.65048 4.36278,1.14226 5.67312,1.19489 8.13336,0.32672 3.51382,-1.23997 6.5124,-3.6502 8.26783,-6.64561 0.38495,-0.65687 0.7611,-1.13312 0.83589,-1.05833 0.34885,0.34885 -2.75294,8.62554 -4.2217,11.265 -1.58908,2.85569 -3.8061,5.72819 -6.43257,8.33438 -4.00157,3.97067 -6.62794,5.24352 -11.46715,5.55744 -1.86486,0.12097 -2.55747,0.0528 -3.74344,-0.36869 z m -13.17992,-1.08246 c -1.38411,-1.00264 -1.89362,-1.78993 -2.30573,-3.56276 -0.37366,-1.60743 -0.1475,-3.41506 0.5817,-4.64952 1.06384,-1.80092 4.64636,-3.19318 6.14828,-2.38937 0.76304,0.40836 1.60969,1.81901 1.61094,2.68404 10e-4,0.86387 -0.82293,1.63202 -1.62814,1.51748 -0.76112,-0.10828 -0.94514,-0.8908 -0.36121,-1.53604 0.28779,-0.318 0.34095,-0.54276 0.15549,-0.65739 -0.155,-0.0958 -0.28937,-0.0778 -0.29859,0.0399 -0.009,0.11773 -0.12445,-0.0538 -0.25606,-0.38126 -0.28624,-0.71214 -1.14538,-0.78185 -1.6304,-0.13229 -0.19015,0.25466 -0.51135,0.46302 -0.71377,0.46302 -0.7305,0 -0.99046,0.8739 -0.51005,1.71461 l 0.44483,0.77843 -0.7749,-0.15498 c -0.85528,-0.17106 -1.67497,0.31396 -1.46322,0.86579 0.072,0.18751 -0.10121,0.41459 -0.38483,0.5046 -0.78514,0.24919 -0.66996,1.18634 0.14579,1.18634 0.39954,0 0.66146,0.15097 0.66146,0.38126 0,0.63254 0.40175,0.68499 1.3895,0.18141 l 0.93859,-0.47852 -0.34868,0.98825 c -0.2981,0.84492 -0.29079,1.0709 0.0504,1.55804 0.28693,0.40965 0.49084,0.49365 0.72551,0.29889 0.22338,-0.18539 0.41503,-0.1823 0.60711,0.01 0.46833,0.46834 1.53234,0.17283 1.53234,-0.42557 0,-0.29104 0.23813,-0.72828 0.52917,-0.97164 0.5227,-0.43706 0.52028,-0.44587 -0.19844,-0.72105 -0.8137,-0.31155 -0.84129,-0.37863 -0.45371,-1.10283 0.35176,-0.65727 1.61277,-0.6753 2.1955,-0.0314 0.71678,0.79203 0.79104,1.92895 0.18913,2.89547 -0.83354,1.33845 -1.99779,1.91367 -3.87559,1.91482 -1.37189,8e-4 -1.77721,-0.11727 -2.70244,-0.78751 z m -27.39035,-1.05053 c -0.86501,-0.95747 -2.02764,-2.971 -2.02764,-3.51164 0,-0.12331 0.22073,-0.10607 0.49051,0.0383 0.26978,0.14438 0.93083,0.30768 1.469,0.36289 l 0.97849,0.10038 0.0585,2.02766 c 0.0322,1.11522 0.0398,2.02767 0.017,2.02767 -0.0229,0 -0.4665,-0.47038 -0.98589,-1.04528 z m -5.0743,-2.33523 c -1.01513,-0.94138 -3.87232,-4.38647 -4.55217,-5.48882 -3.56713,-5.78397 -4.80059,-8.43384 -5.94489,-12.77151 -0.81175,-3.07707 -0.8618,-7.74031 -0.10417,-9.70482 0.70674,-1.83257 1.65211,-3.08475 3.19685,-4.23439 1.20993,-0.90047 1.44043,-0.97492 2.6989,-0.87167 1.04512,0.0857 1.50586,0.26695 1.91613,0.75365 0.67158,0.7967 0.91408,1.64101 0.7076,2.46368 -0.23383,0.93166 -0.83907,1.0203 -1.7475,0.2559 -0.82929,-0.6978 -1.59076,-0.68365 -1.59076,0.0296 0,0.49931 0.006,0.4994 -1.0278,-0.0161 -0.46448,-0.23171 -1.01855,-0.35451 -1.23127,-0.27289 -0.51525,0.19772 -0.50871,1.72234 0.008,1.9207 0.26249,0.10073 0.34345,0.35693 0.24136,0.76371 -0.30433,1.21256 1.95217,1.49619 3.91457,0.49204 1.01476,-0.51925 1.09367,-0.46449 0.5811,0.40322 -0.49003,0.82955 -1.7312,1.61302 -3.40492,2.1493 -1.30795,0.41908 -1.82386,0.91663 -1.64796,1.58928 0.0747,0.28582 0.028,0.51968 -0.10391,0.51968 -0.34033,0 -1.29815,1.00027 -1.29815,1.35568 0,0.19877 0.48393,0.25721 1.45974,0.17629 1.80923,-0.15003 3.27732,-1.12932 4.69183,-3.12965 0.79917,-1.13017 0.99218,-1.28572 0.99218,-0.79965 0,0.89962 -1.50392,3.55093 -2.82366,4.97793 -1.73965,1.88104 -2.45262,3.7694 -1.42317,3.7694 0.48866,0 0.49498,0.0495 0.12062,0.94546 -0.4603,1.10167 -0.26614,2.06832 0.38141,1.8988 0.36696,-0.0961 0.42257,0.0704 0.34487,1.03228 -0.072,0.89163 0.008,1.18525 0.35743,1.31953 0.26175,0.10044 0.54792,0.0182 0.6839,-0.19658 0.15938,-0.2517 0.23512,-0.0487 0.23788,0.63742 0.004,1.0811 0.90871,3.35892 1.33359,3.35892 0.22355,0 0.33811,-0.4867 0.34254,-1.4552 6.6e-4,-0.14553 -0.0701,-0.71107 -0.15734,-1.25678 -0.12142,-0.75981 -0.0695,-0.99218 0.22169,-0.99218 0.44026,0 0.49255,-0.7285 0.12221,-1.70257 -0.21987,-0.57831 -0.18498,-0.67868 0.2359,-0.67868 0.58032,0 0.90791,-0.99644 0.65667,-1.99744 -0.15533,-0.61889 -0.11305,-0.66041 0.51261,-0.50338 0.58176,0.14602 0.70797,0.0673 0.85937,-0.53593 0.0976,-0.3889 -0.017,-1.97808 -0.25458,-3.53152 -0.53851,-3.52033 -0.55041,-5.5379 -0.0168,-2.85188 0.37466,1.88599 1.43776,3.8639 2.0768,3.8639 0.47868,0 0.66392,-0.52544 0.49562,-1.40583 -0.10213,-0.53429 -0.0297,-0.71084 0.29184,-0.71084 0.69667,0 0.49932,-0.96699 -0.49124,-2.40702 -0.85713,-1.24604 -1.59399,-3.10573 -1.3337,-3.36601 0.0628,-0.0628 0.4179,0.24663 0.78904,0.6877 1.15769,1.37583 3.44799,1.65383 3.44799,0.41852 0,-0.29663 0.15866,-0.73144 0.35258,-0.96626 0.49778,-0.60275 0.27877,-1.36304 -0.42143,-1.46294 -0.3799,-0.0542 -0.59261,-0.26787 -0.59261,-0.59531 0,-0.61904 -0.22577,-0.6408 -1.00269,-0.0966 -1.3918,0.97485 -3.09834,-0.31197 -2.41184,-1.81867 0.63407,-1.39163 2.24112,-1.58417 3.98606,-0.47757 1.60961,1.02079 2.33889,2.52171 2.33889,4.81364 0,2.86453 -0.87328,4.71821 -3.86284,8.19954 -2.13142,2.48202 -3.70067,4.94613 -4.10994,6.45363 -0.67039,2.46934 0.26803,8.34442 1.73183,10.8422 0.38885,0.66353 0.61269,1.20324 0.49742,1.19935 -0.11528,-0.004 -0.68762,-0.45038 -1.27188,-0.99219 z m 2.96822,-4.62314 c -1.10048,-1.10207 -1.77364,-2.60211 -1.77364,-3.95231 0,-1.13554 0.79236,-3.02842 1.72264,-4.11524 1.32442,-1.54729 3.2119,-2.2817 5.45215,-2.12141 3.07684,0.22014 4.68527,1.78432 4.40368,4.28254 -0.23503,2.08524 -2.15981,3.54779 -3.13021,2.37852 -0.4242,-0.51113 -0.0463,-1.25423 0.70822,-1.39257 0.73843,-0.1354 0.99349,-0.47306 0.76658,-1.01487 -0.11075,-0.26444 -0.21585,-0.83799 -0.23356,-1.27455 -0.0307,-0.75605 -0.0888,-0.79481 -1.22284,-0.81602 -0.65484,-0.0122 -1.2781,0.10682 -1.38501,0.26459 -0.10691,0.15776 -0.19621,0.93574 -0.19844,1.72882 -0.005,1.70052 -0.4347,1.5457 -0.74433,-0.26803 -0.20371,-1.19329 -0.94185,-1.74475 -1.38203,-1.03251 -0.15519,0.25109 -0.33623,0.23131 -0.78969,-0.0863 -0.32358,-0.22665 -0.75326,-0.3488 -0.95483,-0.27145 -0.42915,0.16468 -0.49541,1.56063 -0.0861,1.8136 0.17829,0.11019 0.11445,0.29466 -0.17529,0.50652 -0.84503,0.6179 -0.26413,1.20349 1.19387,1.20349 0.72358,0 1.38919,0.11906 1.47912,0.26458 0.0958,0.15503 -0.18208,0.26458 -0.67116,0.26458 -0.80434,0 -2.37154,0.71838 -2.37154,1.08708 0,0.0986 0.18744,0.25115 0.41653,0.33906 0.37642,0.14445 0.37506,0.20131 -0.0141,0.59046 -0.47523,0.47523 -0.44855,1.45512 0.044,1.61724 0.17281,0.0569 0.53749,-0.11989 0.8104,-0.39281 0.41729,-0.41729 0.54993,-0.43871 0.83395,-0.13466 0.4332,0.46373 0.92539,0.29904 1.04649,-0.35017 0.21983,-1.17849 1.14078,-1.54463 1.62227,-0.64496 0.7563,1.41317 -0.59857,2.65126 -2.90133,2.65126 -1.2275,0 -1.4396,-0.0967 -2.46587,-1.12448 z m 25.1336,-2.7146 c -0.24357,-0.51077 -0.92047,-1.44682 -1.50422,-2.08011 -1.19495,-1.29637 -1.26894,-1.48914 -0.5716,-1.48914 0.44619,0 1.96409,-0.71734 3.78954,-1.79088 0.6781,-0.39879 0.74451,-0.38348 1.60187,0.36929 0.49194,0.43193 1.27492,0.94293 1.73997,1.13556 0.46504,0.19262 0.84416,0.42508 0.84249,0.51657 -0.002,0.0915 -0.50048,0.40446 -1.10848,0.6955 -0.60799,0.29104 -1.8252,1.21378 -2.7049,2.05052 -0.8797,0.83675 -1.60899,1.52136 -1.62064,1.52136 -0.0116,0 -0.22047,-0.4179 -0.46403,-0.92867 z m 9.20838,-1.74843 c -0.58208,-0.26622 -1.29646,-0.49143 -1.5875,-0.50048 -1.2624,-0.0392 2.41508,-2.11409 3.74705,-2.11409 0.25945,0 0.22466,0.24712 -0.13965,0.99219 -0.26684,0.5457 -0.59235,1.24288 -0.72336,1.54929 -0.23597,0.55188 -0.24814,0.55257 -1.29654,0.0731 z m -22.35729,-2.83431 c 0,-0.26638 -0.28146,-1.04029 -0.62547,-1.71979 -0.35516,-0.70153 -0.49809,-1.2319 -0.33073,-1.22721 0.55582,0.0156 3.60203,2.11053 3.60203,2.47721 0,0.0882 -0.2749,0.16036 -0.61089,0.16036 -0.33599,0 -0.842,0.17481 -1.12448,0.38846 -0.68745,0.51997 -0.91046,0.50061 -0.91046,-0.079 z m 8.14662,-1.60662 c -3.52297,-0.73055 -5.48878,-5.01304 -3.81698,-8.31526 l 0.62547,-1.23546 -1.35308,-0.006 c -3.56121,-0.0153 -5.95131,-2.76136 -5.65173,-6.49346 0.10509,-1.30923 0.30264,-1.92285 0.85012,-2.64064 1.13543,-1.48862 2.52704,-2.26378 4.36294,-2.43025 1.75744,-0.15936 1.79158,-0.23054 0.92685,-1.93274 -1.60449,-3.15836 0.10585,-6.89991 3.66288,-8.01296 1.67081,-0.52282 2.44306,-0.45477 4.43881,0.39114 0.9587,0.40636 1.4239,0.8467 2.22809,2.10903 l 1.01641,1.59544 0.55003,-1.12775 c 0.36907,-0.75672 1.05535,-1.4809 2.08596,-2.20117 1.37921,-0.9639 1.6897,-1.07079 3.04271,-1.04757 3.62015,0.0621 5.8724,2.23117 5.8724,5.65541 0,1.18065 -0.1719,1.94606 -0.6481,2.8858 l -0.64811,1.27897 1.66406,0.13358 c 2.36732,0.19002 4.53152,1.78281 5.20816,3.83307 0.39203,1.18786 0.16452,3.17185 -0.5169,4.50753 -0.87228,1.70984 -3.33744,3.2378 -5.22371,3.2378 -0.94556,0 -1.13066,0.26774 -0.52984,0.76639 0.59099,0.49047 1.04522,2.56774 0.87526,4.00274 -0.19776,1.66977 -1.37157,3.41988 -2.73516,4.07803 -0.55965,0.27012 -1.20004,0.57752 -1.4231,0.68313 -2.47061,1.1697 -5.44043,0.0473 -6.96183,-2.63122 l -0.6302,-1.10948 -0.93673,1.41124 c -1.43214,2.15761 -3.8084,3.13834 -6.33468,2.61448 z m 1.43573,-2.9894 c 0.39534,-0.14753 0.79032,-0.49355 0.87772,-0.76895 0.18745,-0.59059 0.65243,-0.67123 0.65243,-0.11314 0,0.21316 0.24574,0.51908 0.54608,0.67982 1.33062,0.71212 1.92569,-1.08756 1.94947,-5.89578 0.01,-2.00077 -0.0107,-3.63788 -0.0459,-3.63802 -0.0351,-1.4e-4 -0.60622,0.41375 -1.26912,0.91975 -0.66289,0.506 -1.94677,1.33467 -2.85307,1.8415 -1.83264,1.02487 -2.92199,2.04221 -3.32263,3.10297 -0.28716,0.76027 -0.0173,1.01469 1.07634,1.01469 0.41484,0 0.48787,0.10455 0.32342,0.46302 -0.31787,0.69292 -0.24739,2.09389 0.12811,2.54633 0.32622,0.39307 0.51591,0.37817 1.93712,-0.15219 z m 13.43337,-0.33997 c 0.1795,-0.21628 0.27751,-0.81159 0.21782,-1.32292 -0.0842,-0.72087 -0.0135,-0.92968 0.31459,-0.92968 0.58841,0 1.05812,-0.53005 1.05812,-1.19404 0,-0.728 -1.01712,-1.66236 -3.30729,-3.03817 -1.01865,-0.61195 -2.31314,-1.54716 -2.87666,-2.07824 -0.78708,-0.74178 -0.95036,-0.8216 -0.70443,-0.34437 0.36668,0.71151 0.43274,3.37703 0.14357,5.79304 -0.15877,1.32662 -0.11213,1.78234 0.23695,2.3151 0.5083,0.77576 0.75787,0.81928 1.34296,0.23419 0.37955,-0.37955 0.46583,-0.38335 0.7465,-0.0329 0.77463,0.96722 2.26064,1.28145 2.82787,0.59798 z m 4.94907,-9.52864 c -0.10165,-0.6264 -0.0478,-0.92605 0.16653,-0.92605 0.46771,0 1.76659,-1.28118 1.76659,-1.74252 0,-0.60288 -1.22049,-1.69706 -1.89297,-1.69706 -0.46208,0 -0.52355,-0.0706 -0.27661,-0.3175 0.17463,-0.17462 0.3175,-0.60683 0.3175,-0.96045 0,-0.60712 -0.0675,-0.63534 -1.21103,-0.50645 -0.76445,0.0862 -1.62503,0.43382 -2.33375,0.94278 -1.47006,1.05572 -4.00024,2.16454 -4.93919,2.16454 -0.93179,0 -1.27379,0.47275 -0.45654,0.63108 3.76618,0.72961 3.68453,0.69608 6.03393,2.47777 0.77573,0.58828 1.4248,0.8599 2.05486,0.8599 0.90476,0 0.91831,-0.0163 0.77068,-0.92604 z m -20.38889,-1.05834 c 1.54687,-0.80036 3.00519,-1.46327 3.24069,-1.47311 0.27049,-0.0113 0.18457,-0.12477 -0.23326,-0.30804 -0.3638,-0.15958 -1.61188,-0.76189 -2.77352,-1.33847 -2.94831,-1.46339 -3.93288,-1.77683 -4.81528,-1.53295 -0.59883,0.1655 -0.73577,0.34421 -0.69576,0.90796 0.033,0.46444 -0.0821,0.7019 -0.34004,0.7019 -0.54108,0 -1.6167,0.73948 -1.8106,1.24476 -0.23368,0.60896 0.60613,1.40108 1.48542,1.40108 0.67148,0 0.7393,0.0736 0.59554,0.64642 -0.23868,0.95097 0.0484,1.20566 1.35884,1.20566 0.9075,0 1.8166,-0.33173 3.98797,-1.45521 z m 9.09688,-0.66549 c 0.92238,-0.92237 0.15023,-2.6418 -1.18635,-2.6418 -0.85102,0 -1.7281,0.7462 -1.7281,1.47021 0,1.4663 1.86858,2.21746 2.91445,1.17159 z m 4.36323,-6.87394 c 0.58118,-0.19086 1.48446,-0.61607 2.00728,-0.94491 1.5199,-0.95598 2.06892,-3.02503 0.80269,-3.02503 -0.44364,0 -0.49356,-0.1397 -0.37249,-1.04236 0.22848,-1.70343 -0.0628,-2.39723 -1.00634,-2.39723 -1.08837,0 -1.80184,0.42156 -2.11716,1.25093 l -0.26218,0.68959 -0.40162,-0.57338 c -0.5856,-0.83606 -1.27382,-0.70856 -1.83887,0.34067 -0.45399,0.84302 -0.46688,1.1173 -0.16588,3.5292 0.1795,1.43833 0.27351,2.78317 0.2089,2.98855 -0.0646,0.20537 -0.18707,0.79012 -0.27214,1.29944 l -0.15467,0.92605 1.25789,-1.34726 c 0.77612,-0.83126 1.6626,-1.48015 2.31459,-1.69426 z m -7.4145,1.65245 c -0.10639,-0.25466 -0.26795,-1.97861 -0.35903,-3.83099 -0.15766,-3.20628 -0.20006,-3.4024 -0.88317,-4.08499 -0.70341,-0.70288 -0.72828,-0.70732 -1.26098,-0.22523 -0.4979,0.45059 -0.57076,0.45578 -0.86993,0.062 -0.43555,-0.57327 -1.59373,-0.98239 -2.27599,-0.80398 -0.78906,0.20635 -1.05665,1.77658 -0.42221,2.47763 0.4567,0.50465 0.44687,0.51858 -0.36544,0.51858 -0.75422,0 -0.83476,0.0779 -0.83476,0.80724 0,1.08669 1.30088,2.25108 4.1533,3.71755 1.22396,0.62925 2.35257,1.29735 2.50802,1.48466 0.41554,0.5007 0.83533,0.41645 0.61019,-0.12247 z m 29.19733,18.26735 c -1.34968,-0.20683 -4.01226,-2.05274 -4.81625,-3.33902 -1.58748,-2.53976 -1.12295,-5.33016 1.12779,-6.77446 1.42435,-0.914 2.08068,-0.99516 3.23221,-0.39968 0.63268,0.32717 0.77978,0.5587 0.71446,1.12448 -0.0598,0.51757 -0.25347,0.7367 -0.70809,0.80102 -0.3442,0.0487 -0.75497,-0.0406 -0.91281,-0.19843 -0.40945,-0.40945 -1.23949,-0.35507 -1.23949,0.0812 0,0.2025 -0.29765,0.44289 -0.66145,0.5342 -0.47548,0.11934 -0.66146,0.34439 -0.66146,0.80039 0,0.3489 0.14832,0.68381 0.3296,0.74424 0.18129,0.0604 0.33012,0.33824 0.33073,0.61736 0.002,0.77471 1.50915,0.82661 2.54688,0.0877 l 0.82278,-0.58587 -0.33401,0.63513 c -0.1837,0.34932 -0.68046,1.0339 -1.10391,1.52127 -0.84891,0.97707 -0.93078,2.07853 -0.14468,1.94653 0.31157,-0.0523 0.46302,0.094 0.46302,0.44741 0,0.28883 0.12013,0.59939 0.26696,0.69014 0.40978,0.25325 1.32054,-0.12286 1.32054,-0.54535 0,-0.23213 0.22771,-0.35181 0.59532,-0.31289 0.64451,0.0682 0.65586,-0.0232 0.33703,-2.7151 -0.1184,-0.99964 -0.0961,-1.08539 0.13871,-0.53461 0.15385,0.36081 0.4705,0.86683 0.70367,1.12448 0.49756,0.54979 2.05866,0.65767 1.85549,0.12822 -0.0949,-0.24734 0.1141,-0.31168 0.76545,-0.23564 0.76096,0.0888 0.896,0.0228 0.896,-0.43789 0,-0.29838 -0.10309,-0.60622 -0.2291,-0.68409 -0.126,-0.0779 -0.17271,-0.4366 -0.10378,-0.79717 0.13024,-0.6813 -0.10776,-0.81509 -1.78379,-1.00277 -0.91196,-0.10213 -0.87276,-0.99402 0.0668,-1.51914 0.67108,-0.37508 0.80605,-0.36549 1.71979,0.12215 2.62139,1.39895 2.52117,5.52505 -0.17959,7.39385 -1.7556,1.21479 -3.33206,1.59232 -5.35479,1.28235 z m -43.87717,-1.8114 c -1.23693,-0.48261 -3.05263,-1.01499 -4.0349,-1.18306 -0.98227,-0.16808 -1.78594,-0.33744 -1.78594,-0.37637 0,-0.0389 0.39664,-0.83184 0.88143,-1.76203 0.48479,-0.93019 1.09606,-2.56726 1.35839,-3.63793 l 0.47696,-1.94667 0.72856,1.17054 c 0.88246,1.4178 2.12593,2.50452 3.63121,3.17344 l 1.12342,0.49923 -0.0226,1.77403 c -0.0124,0.97571 0.10416,2.10144 0.25909,2.50162 0.35579,0.91903 0.26669,0.91178 -2.61564,-0.2128 z m 30.87667,-0.28295 c 0.11653,-0.41856 0.21187,-1.55672 0.21187,-2.52926 0,-1.64921 0.0491,-1.7972 0.72887,-2.19852 0.40088,-0.23665 1.05573,-0.77373 1.45521,-1.1935 1.15497,-1.21362 1.49094,-1.13592 1.41413,0.32706 -0.0789,1.503 0.40764,4.07815 0.92393,4.89004 0.20496,0.3223 0.37265,0.63254 0.37265,0.68941 0,0.0569 -0.86321,0.17966 -1.91823,0.27284 -1.05503,0.0932 -2.2517,0.24447 -2.65926,0.33619 -0.71025,0.15983 -0.73223,0.13514 -0.52917,-0.59426 z m 22.70085,-3.22703 c -2.7e-4,-0.82651 -0.0599,-1.72828 -0.13229,-2.00395 -0.10123,-0.38524 0.0214,-0.51336 0.52976,-0.55376 0.36381,-0.0289 1.00205,-0.147 1.41833,-0.26243 0.70813,-0.19635 0.74454,-0.1692 0.56537,0.42148 -0.2871,0.94652 -1.47411,3.08056 -1.95643,3.51732 -0.38442,0.34811 -0.4242,0.24335 -0.42474,-1.11866 z m -17.38902,-5.53763 c -0.11458,-0.96919 0.38694,-3.42835 0.89142,-4.37097 0.33264,-0.62154 0.75549,-0.33649 0.75549,0.50928 0,0.36913 0.25436,1.02836 0.56525,1.46496 l 0.56525,0.79382 -0.69988,0.64896 c -0.38493,0.35693 -0.89111,0.94083 -1.12484,1.29755 -0.58728,0.89629 -0.81585,0.81386 -0.95269,-0.3436 z m 14.55015,0.19765 c -1.12567,-0.61118 -1.84366,-1.79815 -1.84366,-3.04791 0,-1.36189 0.46472,-1.97839 1.4913,-1.97839 0.73737,0 0.98461,0.15933 1.43698,0.92604 0.62504,1.05936 1.52299,1.2413 1.84397,0.37362 0.18376,-0.49677 0.23948,-0.5101 0.55303,-0.13229 0.49013,0.59056 1.27407,0.52251 1.48071,-0.12854 0.19701,-0.62073 -0.3245,-2.09716 -0.74076,-2.09716 -0.15042,0 -0.06,-0.2359 0.20091,-0.52421 0.60932,-0.67329 0.22192,-1.20186 -1.19119,-1.62523 -1.40828,-0.42193 -3.25018,-0.0878 -4.27984,0.7764 l -0.84783,0.71158 0.51584,-0.88952 c 0.76864,-1.32545 2.36334,-2.57677 3.76806,-2.95671 1.56426,-0.42309 1.95299,-0.72325 1.85959,-1.43593 -0.0407,-0.31084 0.18981,-0.90062 0.51232,-1.31063 0.70032,-0.89032 0.57045,-1.21242 -0.48887,-1.21242 -1.77487,0 -3.30622,1.13639 -4.93202,3.65995 -0.49996,0.77605 -0.95373,1.3663 -1.00836,1.31166 -0.15834,-0.15833 0.68036,-3.16037 1.12097,-4.01241 0.22052,-0.42643 0.72472,-1.04778 1.12045,-1.38077 0.89926,-0.75668 1.56192,-2.71503 1.03283,-3.05233 -0.19385,-0.12359 -0.50946,-0.16703 -0.70134,-0.0965 -0.19204,0.0706 -0.10283,-0.18462 0.19844,-0.56762 0.80674,-1.0256 0.62765,-3.41362 -0.21686,-2.89168 -0.1945,0.12021 -0.29416,-0.13301 -0.29416,-0.7474 0,-1.09158 -0.50314,-2.3298 -0.89379,-2.19958 -0.15039,0.0501 -0.58726,-0.57187 -0.97084,-1.38221 -0.38357,-0.81035 -0.88994,-1.6327 -1.12527,-1.82744 -0.37207,-0.3079 -0.45032,-0.26466 -0.59994,0.33145 -0.0946,0.37704 -0.12431,1.09451 -0.0659,1.59438 0.0824,0.70609 2.7e-4,0.93653 -0.36801,1.03285 -0.53601,0.14017 -0.64166,1.21818 -0.20022,2.043 0.22908,0.42805 0.1858,0.51177 -0.26459,0.51177 -0.45035,0 -0.53847,0.17039 -0.53847,1.04111 0,0.57261 0.11108,1.33329 0.24685,1.69039 0.21248,0.55885 0.17918,0.63158 -0.23907,0.5222 -0.32772,-0.0857 -0.54312,0.0531 -0.66156,0.42628 -0.22656,0.71381 0.0407,1.53374 0.84344,2.58801 0.75543,0.99209 1.30037,4.02387 1.0002,5.56462 l -0.19476,0.99969 -0.44758,-1.60772 c -0.24618,-0.88424 -0.7148,-2.04007 -1.0414,-2.56851 -0.70086,-1.13402 -2.09404,-2.36892 -2.51599,-2.23014 -0.47931,0.15763 -0.50544,1.22429 -0.0471,1.92375 0.40083,0.61174 0.39487,0.64616 -0.11188,0.64616 -0.92874,0 -0.70321,1.25923 0.32206,1.79824 1.17927,0.61997 2.48092,1.99534 2.69478,2.84741 0.1799,0.71679 -0.0835,1.32721 -0.30494,0.70659 -0.191,-0.53537 -1.54762,-1.11891 -2.60126,-1.11891 -0.90026,0 -0.95627,0.0462 -0.80184,0.66146 0.12167,0.48477 0.0603,0.66146 -0.2298,0.66146 -0.53885,0 -1.25269,1.14694 -1.04717,1.68251 0.19424,0.50619 1.18477,0.57645 1.64457,0.11665 0.24694,-0.24694 0.3175,-0.19162 0.3175,0.24897 0,0.80987 0.39387,0.94583 1.33305,0.46017 1.12171,-0.58006 1.90861,-0.41632 2.2159,0.46108 0.33352,0.9523 -0.17793,1.90438 -1.31214,2.4426 -1.12509,0.5339 -2.09249,0.51711 -3.12135,-0.0542 -3.31512,-1.84071 -3.37905,-6.94574 -0.16668,-13.3094 1.45875,-2.88977 2.66469,-6.15372 3.17187,-8.58487 0.63964,-3.06608 0.3989,-6.60381 -0.61245,-8.99992 -0.36758,-0.87088 -0.61668,-1.63552 -0.55355,-1.69921 0.19782,-0.19957 2.44905,2.13295 4.45696,4.61789 2.59526,3.21184 5.15186,7.18937 6.36562,9.90355 1.48946,3.33073 3.00559,8.52541 3.3454,11.46235 0.26114,2.25708 0.24027,2.80179 -0.16467,4.29778 -0.63401,2.34221 -1.73282,3.93605 -3.08713,4.47794 -1.77303,0.70943 -3.13812,0.75693 -4.25926,0.14821 z m 2.04572,-1.05755 c -0.0899,-0.14552 -0.39462,-0.26458 -0.67708,-0.26458 -0.28245,0 -0.51355,0.11906 -0.51355,0.26458 0,0.14552 0.30469,0.26458 0.67708,0.26458 0.384,0 0.60629,-0.11452 0.51355,-0.26458 z m 1.30578,-19.34231 c -0.23088,-0.37357 -0.64432,-0.27622 -0.64432,0.15172 0,0.23603 0.1552,0.32901 0.39535,0.23685 0.21745,-0.0834 0.32948,-0.2583 0.24897,-0.38857 z m -0.90891,-2.61811 c 0,-0.14552 -0.12609,-0.26458 -0.2802,-0.26458 -0.1541,0 -0.20661,0.11906 -0.11667,0.26458 0.0899,0.14552 0.21603,0.26459 0.2802,0.26459 0.0642,0 0.11667,-0.11907 0.11667,-0.26459 z m -0.93734,-0.77546 c 0.0837,-0.13547 0.0312,-0.32109 -0.11667,-0.41249 -0.1479,-0.0914 -0.2689,0.0194 -0.2689,0.2463 0,0.46474 0.15876,0.53317 0.38557,0.16619 z m -2.76682,-4.3683 c 0,-0.0642 -0.11907,-0.19026 -0.26459,-0.28019 -0.14552,-0.0899 -0.26458,-0.0374 -0.26458,0.11667 0,0.15411 0.11906,0.2802 0.26458,0.2802 0.14552,0 0.26459,-0.0525 0.26459,-0.11668 z m -55.24148,23.89243 c -0.15707,-0.38402 -0.68049,-1.14801 -1.16318,-1.69775 -0.5895,-0.67141 -0.76583,-1.0368 -0.53711,-1.11303 0.62701,-0.20901 1.87825,-1.40304 2.05551,-1.96155 0.1382,-0.43542 0.22444,-0.47501 0.40697,-0.18682 0.33845,0.5344 0.25281,3.37223 -0.13879,4.59903 l -0.33783,1.05833 z m 40.95022,-3.41191 c -0.38853,-0.93798 -2.26082,-2.66013 -3.56476,-3.27889 -0.89747,-0.42588 -0.90949,-0.45407 -0.89683,-2.10341 0.007,-0.91945 -0.13552,-2.1669 -0.31684,-2.7721 -0.34964,-1.16697 -0.14427,-1.76616 0.37205,-1.0855 0.93146,1.22794 4.53015,2.51457 6.43327,2.30006 0.63353,-0.0714 1.15187,-0.0402 1.15187,0.0693 0,0.10954 -0.28068,0.83905 -0.62372,1.62114 -0.34305,0.7821 -0.89686,2.46379 -1.2307,3.73709 -0.33384,1.27331 -0.69356,2.31511 -0.79939,2.31511 -0.10583,0 -0.34205,-0.36128 -0.52495,-0.80283 z m -37.56707,-1.94153 c 0,-2.14771 -0.91944,-5.47086 -1.89128,-6.83568 -0.67321,-0.94544 -0.55953,-1.09225 0.54704,-0.7065 1.28016,0.44627 4.43609,0.16187 5.76547,-0.51955 0.61266,-0.31405 1.16437,-0.571 1.22601,-0.571 0.0616,0 -0.1859,0.73772 -0.55009,1.63937 -0.55919,1.3844 -0.64288,1.93992 -0.53815,3.57187 0.10287,1.60288 0.0558,1.93251 -0.27602,1.93251 -0.76938,0 -2.60668,1.29863 -3.34535,2.36452 -0.40976,0.59129 -0.78836,1.07507 -0.84133,1.07507 -0.053,0 -0.0963,-0.87777 -0.0963,-1.95061 z m -9.45886,1.28629 c -0.74596,-0.53132 -0.76666,-1.34203 -0.0441,-1.72871 0.43364,-0.23208 0.64966,-0.20586 1.01302,0.12298 0.595,0.53847 1.08163,0.53407 1.08163,-0.01 0,-0.3017 0.16069,-0.38571 0.54535,-0.28512 0.76366,0.1997 1.00854,-0.57529 0.35209,-1.1143 -0.28254,-0.23199 -0.47422,-0.61999 -0.42595,-0.86222 0.12216,-0.61298 -0.86624,-0.87008 -1.82239,-0.47403 -1.10084,0.45598 -1.28021,0.10193 -0.23627,-0.46636 1.3653,-0.74321 2.22042,-1.54403 2.01083,-1.88315 -0.10467,-0.16936 -0.36187,-0.30792 -0.57156,-0.30792 -0.23155,0 -0.38126,-0.263 -0.38126,-0.66976 0,-0.83594 -0.61062,-1.09186 -1.53823,-0.64469 -0.3909,0.18844 -0.97907,0.31458 -1.30703,0.2803 -0.81235,-0.0849 -1.00827,0.58188 -0.49117,1.67159 0.23431,0.49376 0.42601,1.09675 0.42601,1.33998 0,0.38641 -0.088,0.37301 -0.69714,-0.10613 -0.81508,-0.64114 -1.68411,-0.71932 -1.68411,-0.1515 0,0.24695 -0.24988,0.39688 -0.66146,0.39688 -0.77196,0 -0.85521,0.35448 -0.19844,0.84489 0.25467,0.19015 0.46302,0.52433 0.46302,0.74261 0,0.23355 0.29147,0.43056 0.70825,0.47872 1.07635,0.1244 1.46103,0.73051 0.87476,1.37832 -0.65396,0.72262 -2.00395,0.68699 -2.69445,-0.0711 -1.32289,-1.45241 -1.50369,-3.28877 -0.51449,-5.22552 1.97961,-3.87584 8.3851,-3.81359 10.40949,0.10116 0.52709,1.01927 0.59222,3.46201 0.12201,4.57593 -0.71494,1.69368 -3.5352,2.92391 -4.73838,2.06693 z m -11.44323,-0.27486 c 0,-0.49444 2.35601,-4.35091 2.65873,-4.35198 0.0799,-2.6e-4 0.14011,0.44597 0.1339,0.99168 -0.006,0.5457 0.0853,1.26008 0.20338,1.5875 0.17514,0.48572 0.12076,0.59531 -0.29542,0.59531 -0.28054,0 -0.9487,0.29766 -1.48479,0.66146 -0.99908,0.67799 -1.2158,0.76997 -1.2158,0.51603 z m -1.43178,-4.28634 c 1.47066,-6.45392 6.47036,-15.28913 11.12376,-19.65736 4.26636,-4.00489 7.99889,-5.71487 11.44555,-5.24351 1.98671,0.2717 2.99832,0.8183 3.84035,2.075 0.97705,1.45824 1.07506,2.55167 0.29835,3.32838 -0.69612,0.69612 -1.93647,0.8611 -2.46914,0.32842 -0.17463,-0.17462 -0.3175,-0.81954 -0.3175,-1.43316 0,-1.23814 -0.40367,-1.57986 -1.12448,-0.95193 -0.4166,0.36292 -0.46302,0.36007 -0.46302,-0.0284 0,-0.55042 -1.19307,-1.34418 -1.71775,-1.14284 -0.47404,0.1819 -0.54169,1.63772 -0.0891,1.91744 0.20529,0.12687 0.11602,0.26316 -0.26459,0.40396 -0.31592,0.11687 -0.5744,0.38433 -0.5744,0.59437 0,0.5112 1.50233,1.75183 2.12135,1.75183 0.27129,0 0.55899,0.10637 0.63933,0.23636 0.23245,0.37611 -0.94893,0.55368 -2.04057,0.30673 -1.03386,-0.23389 -1.40177,-0.45312 -2.64008,-1.57321 -0.55056,-0.498 -0.8041,-0.58497 -1.03428,-0.3548 -0.18995,0.18996 -0.73599,0.24585 -1.44824,0.14822 -0.93933,-0.12875 -1.17536,-0.0732 -1.32293,0.31138 -0.43325,1.12902 1.09101,2.19138 3.76204,2.62202 l 2.09567,0.33788 -1.53989,0.20614 c -0.94566,0.12659 -2.11133,0.0914 -3.02069,-0.0913 -2.07198,-0.41611 -3.64258,-0.37742 -4.03837,0.0995 -0.26278,0.31663 -0.26278,0.47712 0,0.79375 0.28117,0.3388 0.20477,0.39688 -0.5221,0.39688 -0.83171,0 -2.38832,0.71718 -2.38832,1.10037 0,0.1059 0.26462,0.37788 0.58804,0.60442 0.56858,0.39824 0.54765,0.41187 -0.63215,0.41187 -0.78933,0 -1.43187,0.17142 -1.81967,0.48544 l -0.59949,0.48544 0.62905,0.4406 c 0.58151,0.40731 0.58906,0.44061 0.0999,0.44061 -0.88424,0 -1.77051,0.78017 -1.60505,1.41289 0.09,0.3442 -0.0455,0.76228 -0.3545,1.09353 -0.27512,0.29496 -0.58242,0.86746 -0.6829,1.27224 -0.17975,0.72412 -0.17049,0.73076 0.5757,0.41311 0.41711,-0.17757 1.0858,-0.62032 1.48599,-0.9839 0.40018,-0.36357 0.7276,-0.5197 0.7276,-0.34696 0,0.55852 0.56095,0.33522 1.48883,-0.59266 0.52812,-0.52812 0.87614,-0.73293 0.83344,-0.49048 -0.13562,0.77009 0.57359,0.65182 1.41345,-0.2357 0.45832,-0.48434 0.76598,-0.68389 0.68369,-0.44346 -0.0823,0.24043 -0.0832,0.50358 -0.002,0.58476 0.23673,0.23673 1.59839,-0.56847 2.04883,-1.21157 l 0.41294,-0.58955 v 0.58804 c 0,1.00165 0.76748,0.67691 2.69287,-1.1394 1.85799,-1.75273 4.03053,-3.28547 4.66988,-3.29462 0.19322,-0.003 -0.16397,0.38589 -0.79375,0.86367 -1.53065,1.16124 -2.86484,3.17338 -2.86484,4.32058 0,1.0802 0.52734,1.18661 1.42615,0.2878 0.44383,-0.44383 0.71705,-0.53977 1.01034,-0.35477 0.66664,0.42051 1.22877,-0.009 1.40539,-1.0735 0.26393,-1.59098 0.68634,-2.47396 1.63946,-3.42709 1.16656,-1.16656 1.52644,-1.12434 0.86918,0.10197 -0.57793,1.0783 -0.68614,2.45836 -0.25579,3.26246 0.32409,0.60557 1.00353,0.67361 1.21532,0.1217 0.13084,-0.34098 0.20055,-0.3392 0.55384,0.0141 0.5068,0.5068 1.38328,0.39247 1.76638,-0.23043 0.23723,-0.38572 0.17433,-0.56334 -0.33732,-0.95254 -0.62648,-0.47654 -0.62674,-0.47898 -0.0661,-0.62557 0.76843,-0.20095 0.70972,-0.9477 -0.0987,-1.25505 -0.72091,-0.27409 -0.90517,-1.23795 -0.34396,-1.79917 0.86461,-0.86461 2.93528,0.15438 3.34751,1.64735 0.22958,0.83146 0.0712,2.38177 -0.34432,3.37067 -0.23876,0.5682 -1.77318,1.61978 -3.45298,2.36643 -1.47087,0.65379 -4.43974,0.77412 -9.525,0.38607 -3.111,-0.2374 -6.69478,0.367 -9.19806,1.55124 -1.8474,0.87396 -5.17784,3.94078 -6.03579,5.55803 -0.71788,1.35322 -1.13282,1.57862 -0.88231,0.47928 z m 59.29687,-4.67246 c -2.62484,-0.95886 -4.41926,-3.06652 -4.41926,-5.1907 0,-0.90255 0.16404,-1.26785 0.89959,-2.00341 0.49477,-0.49477 1.13503,-0.89958 1.42281,-0.89958 1.30911,0 1.53348,1.92147 0.24167,2.0696 -0.80878,0.0928 -1.2541,0.77035 -0.72229,1.09903 0.23506,0.14527 0.24627,0.25741 0.0386,0.38579 -0.16105,0.0995 -0.29283,0.41208 -0.29283,0.69453 0,0.38607 0.1839,0.51355 0.74084,0.51355 0.40746,0 0.86708,0.12625 1.02138,0.28055 0.39536,0.39536 1.67737,-1.18272 1.67737,-2.06474 0,-0.37689 0.0811,-0.60419 0.18014,-0.50512 0.0991,0.0991 0.1887,0.77079 0.19916,1.49269 0.0145,1.00375 0.1625,1.45416 0.62887,1.91448 0.55493,0.54772 0.63894,0.56289 0.9329,0.16843 0.29745,-0.39915 0.37066,-0.39496 0.92371,0.0529 0.33036,0.26751 0.77343,0.42008 0.98461,0.33905 0.45035,-0.17282 0.51608,-1.30074 0.0911,-1.56339 -0.20925,-0.12932 -0.20116,-0.23763 0.0283,-0.37945 0.59277,-0.36635 0.003,-1.237 -1.3284,-1.96175 -0.72462,-0.39439 -1.3175,-0.75455 -1.3175,-0.80035 0,-0.0458 0.52187,-0.0245 1.1597,0.0474 0.95114,0.1072 1.26519,0.0252 1.74625,-0.45584 0.40417,-0.40416 0.50142,-0.67168 0.31277,-0.86033 -0.18865,-0.18865 -0.15387,-0.45677 0.11184,-0.8623 0.40862,-0.62363 0.26148,-1.45683 -0.25728,-1.45683 -0.17034,0 -0.5665,0.17987 -0.88037,0.39971 -0.36122,0.25301 -0.63133,0.30156 -0.73594,0.13229 -0.30124,-0.48741 -0.93715,-0.27726 -1.19238,0.39404 -0.27513,0.72363 -0.29508,0.73468 -0.9044,0.50086 -0.57931,-0.2223 -0.52975,-1.50881 0.0794,-2.06004 0.27383,-0.24781 0.92548,-0.56864 1.4481,-0.71294 2.42933,-0.67077 5.295,2.60914 5.00745,5.73129 -0.32976,3.5804 -4.71563,6.69672 -7.82583,5.56056 z m -19.76391,-3.09188 c -0.94524,-0.56818 -1.9275,-1.03306 -2.18281,-1.03306 -0.64974,0 -0.5785,-0.39126 0.13111,-0.72009 1.05977,-0.49109 3.33675,-2.50573 4.04978,-3.5832 l 0.69454,-1.04951 0.46296,0.75817 c 0.57899,0.94817 2.34597,2.55247 3.88929,3.53121 l 1.17683,0.74632 -1.31269,0.18054 c -1.3473,0.1853 -4.32388,1.4428 -4.64497,1.96233 -0.2478,0.40096 -0.32069,0.37544 -2.26404,-0.79271 z m -9.79076,0.57077 c 0,-0.13654 0.35644,-0.63851 0.79209,-1.11548 0.43565,-0.47698 0.92383,-1.2664 1.08484,-1.75426 0.22469,-0.68083 0.39422,-0.84216 0.72926,-0.69401 0.24008,0.10617 1.02989,0.26316 1.75513,0.34887 l 1.31861,0.15584 -1.44325,1.05766 c -1.33635,0.97932 -3.57538,2.22206 -4.03824,2.24136 -0.10914,0.005 -0.19844,-0.10344 -0.19844,-0.23998 z m 22.21065,-0.77568 c -0.64695,-0.41765 -1.58659,-1.19156 -2.08808,-1.7198 l -0.91179,-0.96043 h 1.48547 c 0.81701,0 1.65651,-0.0656 1.86557,-0.14586 0.29289,-0.11239 0.41531,0.19532 0.53357,1.34119 0.0844,0.81788 0.29488,1.65742 0.46769,1.86565 0.50158,0.60437 -0.0801,0.44061 -1.35243,-0.38075 z m -2.55303,-4.83639 c -1.49124,-0.25918 -2.13835,-0.63028 -3.34395,-1.9177 -0.93388,-0.99725 -2.81992,-4.47186 -2.81992,-5.19506 0,-0.16927 -0.48699,-1.30456 -1.08219,-2.52286 -1.782,-3.64752 -5.10359,-6.31955 -9.16362,-7.37161 -0.88249,-0.22868 -1.9743,-0.41578 -2.42624,-0.41578 -1.12868,0 -1.03271,-0.44386 0.17049,-0.78847 4.97356,-1.42448 15.61482,-1.42062 21.10052,0.008 5.85662,1.52484 9.99747,5.18815 9.99747,8.84452 0,2.37114 -2.07987,4.6006 -3.96244,4.24743 -2.09281,-0.39261 -2.70748,-3.05071 -0.70545,-3.05071 0.32644,0 0.78114,-0.26784 1.01043,-0.5952 0.36966,-0.52777 0.37189,-0.6281 0.0196,-0.88568 -0.33803,-0.24718 -0.30142,-0.33415 0.24558,-0.58338 0.85538,-0.38974 1.63364,-1.57667 1.27136,-1.93896 -0.42402,-0.42402 -2.39707,-0.6056 -2.81465,-0.25904 -0.2897,0.24043 -0.39657,0.19192 -0.50693,-0.23008 -0.20002,-0.76488 -0.8303,-0.66047 -1.61054,0.26679 -0.6161,0.7322 -0.77273,1.20923 -1.03993,3.16721 -0.0902,0.66131 -0.0904,0.66128 -0.43732,-0.13229 -0.56544,-1.29324 -0.65636,-3.37539 -0.18703,-4.28299 0.42973,-0.83101 0.20926,-1.40555 -0.53935,-1.40555 -0.18918,0 -0.34396,-0.22493 -0.34396,-0.49986 0,-0.27492 -0.21114,-0.76059 -0.46919,-1.07928 l -0.4692,-0.57944 -0.52299,0.57932 c -0.72258,0.8004 -0.68176,3.36378 0.081,5.08499 0.3063,0.69122 0.45426,1.25677 0.32879,1.25677 -0.31504,0 -1.12465,-1.39342 -1.99849,-3.43958 -0.83923,-1.96514 -1.82467,-2.99069 -2.67698,-2.78597 -0.34996,0.0841 -0.6236,-0.009 -0.71339,-0.24321 -0.0801,-0.20876 -0.46414,-0.58826 -0.85341,-0.84331 -0.66613,-0.43647 -0.72715,-0.43721 -1.03772,-0.0125 -0.29257,0.40012 -0.36757,0.40595 -0.66178,0.0515 -0.40123,-0.48345 -1.49849,-0.52892 -1.6671,-0.0691 -0.097,0.26459 -0.19138,0.26459 -0.47184,0 -0.39523,-0.37285 -1.56766,-0.45137 -1.56766,-0.10498 0,0.12416 -0.60718,0.1674 -1.34929,0.0961 -1.19551,-0.11487 -1.33874,-0.0752 -1.25677,0.34835 0.0509,0.2629 0.57604,0.73363 1.167,1.04608 0.59097,0.31245 1.03123,0.69785 0.97837,0.85644 -0.13182,0.39546 0.97523,1.13146 1.70188,1.13146 0.40532,0 0.54834,0.11974 0.44978,0.37658 -0.19382,0.50508 0.6902,0.94634 1.89591,0.94634 0.79532,0 0.92029,0.0669 0.67559,0.36177 -0.43775,0.52745 0.0755,0.84644 1.95524,1.21529 1.62568,0.319 4.36562,1.47464 4.36562,1.84132 0,0.11246 -0.62507,-0.0115 -1.38906,-0.2754 -1.61075,-0.55646 -3.32101,-0.63024 -4.29734,-0.1854 -0.87611,0.39918 -0.75501,1.01637 0.27166,1.38462 0.51473,0.18462 0.77184,0.43921 0.71626,0.70921 -0.16957,0.82371 0.56993,1.08684 1.82552,0.64956 1.3891,-0.48377 2.89949,-0.4907 4.32817,-0.0198 l 1.05834,0.3488 -1.51254,0.0277 c -1.36129,0.025 -1.60601,0.12122 -2.4474,0.9626 -1.0518,1.0518 -1.15783,1.43762 -0.44625,1.62371 0.34731,0.0908 0.45459,0.3057 0.37098,0.74308 -0.0748,0.39148 0.0843,0.81723 0.43744,1.17037 0.74191,0.74192 0.99498,0.70138 1.48032,-0.23717 0.35057,-0.67794 0.4801,-0.74826 0.89779,-0.48741 0.26845,0.16765 0.6876,0.22827 0.93144,0.1347 0.36098,-0.13852 0.38828,-0.27298 0.14696,-0.72389 -0.38873,-0.72634 -0.14581,-1.30616 0.54722,-1.30616 0.94909,0 1.54885,0.49938 1.72454,1.43592 0.44854,2.39092 -2.14575,4.11018 -5.35934,3.55167 z m -16.13905,-0.47897 c -1.58582,-0.96693 -2.07327,-3.07237 -0.86147,-3.7209 0.93874,-0.5024 1.35215,-0.0478 1.15459,1.2696 -0.1681,1.12097 -0.14433,1.18902 0.36847,1.05492 0.34104,-0.0892 0.60416,0.003 0.69636,0.24284 0.23353,0.60858 1.32677,0.31833 1.42573,-0.37852 0.0543,-0.38258 0.26707,-0.59531 0.59532,-0.59531 0.74409,0 0.62643,-0.6436 -0.31333,-1.71393 -0.84158,-0.95851 -0.55798,-1.03546 0.74499,-0.20214 0.55869,0.35731 1.6666,0.24572 1.6666,-0.16786 0,-0.1079 -0.16682,-0.42433 -0.37072,-0.70318 -0.32616,-0.44605 -0.31025,-0.54935 0.13229,-0.85932 0.27666,-0.19378 0.50302,-0.58096 0.50302,-0.86039 0,-0.57622 -1.15604,-1.44839 -1.57587,-1.18892 -0.15673,0.0969 -0.27622,-0.0582 -0.27622,-0.35845 0,-0.99081 -0.55564,-0.87584 -1.64931,0.34126 -1.31632,1.46489 -1.76241,1.58734 -0.84208,0.23116 0.47375,-0.69812 0.61968,-1.17838 0.50247,-1.65365 -0.23927,-0.97017 -0.52688,-1.1589 -1.01788,-0.6679 -0.34604,0.34604 -0.43278,0.35767 -0.43278,0.058 0,-0.20612 -0.24888,-0.59999 -0.55307,-0.87528 -0.54271,-0.49115 -0.56003,-0.49097 -0.92604,0.01 -0.20513,0.28055 -0.37297,0.72545 -0.37297,0.98868 0,0.26323 -0.1786,0.4786 -0.39688,0.4786 -0.5855,0 -0.48226,0.93706 0.14949,1.35679 0.64717,0.42997 0.47076,1.18248 -0.33732,1.43896 -0.76951,0.24423 -1.63883,-0.71235 -1.6337,-1.79769 0.009,-1.95561 1.46192,-3.62378 3.4844,-4.00129 3.44629,-0.64329 7.45539,3.05044 7.46267,6.87562 0.008,4.03693 -4.32465,7.22922 -7.32676,5.39873 z m 33.47821,-3.8384 c -0.53401,-0.49663 -1.44522,-1.03067 -2.02491,-1.18677 l -1.05399,-0.28381 0.53217,-1.10146 c 0.36712,-0.75987 0.49007,-1.41529 0.39644,-2.11337 -0.14112,-1.05215 0.24583,-1.36982 0.82238,-0.67512 0.80768,0.9732 2.69571,5.31104 2.69571,6.19354 0,0.27291 -0.51758,-0.0423 -1.3678,-0.83301 z m -39.2784,-8.46188 c -0.27552,-0.19298 -1.00596,-0.50219 -1.6232,-0.68712 -1.78668,-0.5353 -1.49832,-0.80806 1.52357,-1.4412 1.11502,-0.23362 2.23152,-0.29168 3.175,-0.1651 l 1.45521,0.19522 -1.05834,0.45896 c -0.58208,0.25242 -1.48875,0.80346 -2.01481,1.22453 -0.83609,0.66922 -1.01954,0.72142 -1.45743,0.41471 z"
       id="path26440" />
  </g>
</svg>
