<?xml version="1.0" encoding="UTF-8" standalone="no"?>
<!-- Created with Inkscape (http://www.inkscape.org/) -->

<svg
   width="75.24556mm"
   height="72.785866mm"
   viewBox="0 0 75.24556 72.785864"
   version="1.1"
   id="svg5"
   inkscape:version="1.1 (c4e8f9ed74, 2021-05-24)"
   sodipodi:docname="ornament57.svg"
   xmlns:inkscape="http://www.inkscape.org/namespaces/inkscape"
   xmlns:sodipodi="http://sodipodi.sourceforge.net/DTD/sodipodi-0.dtd"
   xmlns="http://www.w3.org/2000/svg"
   xmlns:svg="http://www.w3.org/2000/svg">
  <sodipodi:namedview
     id="namedview7"
     pagecolor="#ffffff"
     bordercolor="#666666"
     borderopacity="1.0"
     inkscape:pageshadow="2"
     inkscape:pageopacity="0.0"
     inkscape:pagecheckerboard="0"
     inkscape:document-units="mm"
     showgrid="false"
     inkscape:zoom="1.3380612"
     inkscape:cx="335.18647"
     inkscape:cy="181.23237"
     inkscape:window-width="2506"
     inkscape:window-height="1403"
     inkscape:window-x="1974"
     inkscape:window-y="0"
     inkscape:window-maximized="1"
     inkscape:current-layer="layer1" />
  <defs
     id="defs2" />
  <g
     inkscape:label="Layer 1"
     inkscape:groupmode="layer"
     id="layer1"
     transform="translate(-38.936146,-63.641634)">
    <path
       style="fill:#000000;stroke-width:0.264583"
       d="m 65.663009,136.19422 c -0.0906,-0.14652 0.0796,-0.60937 0.37808,-1.02857 0.66045,-0.92752 0.4205,-1.20305 -1.29435,-1.48622 -1.36498,-0.2254 -3.18366,-1.27978 -3.18366,-1.84573 0,-0.27352 -0.21329,-0.35335 -0.7276,-0.27235 -2.78966,0.43938 -2.85746,0.45927 -2.31511,0.67896 0.3974,0.16098 0.24916,0.21899 -0.59531,0.23295 -0.66391,0.011 -1.12448,0.14391 -1.12448,0.32455 0,0.22616 -1.11154,0.26013 -4.26189,0.13026 -2.34404,-0.0966 -4.39787,-0.2621 -4.56406,-0.3677 -0.50655,-0.32187 -4.1931,-0.35248 -5.51514,-0.0458 -1.67584,0.38875 -1.98657,0.14153 -1.16914,-0.93018 l 0.65585,-0.85987 -1.40628,-0.44329 c -1.14627,-0.36133 -1.43057,-0.57034 -1.53764,-1.13048 -0.24585,-1.28605 0.49958,-7.57592 1.06211,-8.96202 0.37238,-0.91754 0.62404,-2.45795 0.8213,-5.02708 0.15643,-2.03729 0.45816,-4.35901 0.67053,-5.15937 0.21236,-0.80037 0.46854,-3.06256 0.56929,-5.02709 0.2559,-4.990087 1.62817,-11.112498 2.49074,-11.112498 0.15294,0 0.27808,0.109326 0.27808,0.242944 0,0.133619 0.0708,0.461041 0.15725,0.727604 0.10157,0.313039 0.0757,0.372493 -0.0731,0.167899 -0.30861,-0.424323 -1.01373,0.01516 -0.7386,0.460354 0.13946,0.225642 0.10065,0.269272 -0.11884,0.13362 -0.24892,-0.153842 -0.28384,0.07913 -0.14782,0.986168 0.1012,0.674854 0.0694,1.254762 -0.0736,1.343162 -0.14367,0.08879 -0.20891,-0.153318 -0.15199,-0.564028 l 0.0997,-0.719598 -0.29476,0.661459 c -0.79268,1.778817 -1.18359,10.930724 -0.60666,14.203024 0.20281,1.15035 0.79279,1.33858 0.80373,0.25642 0.0105,-1.04242 0.19582,-1.81208 1.01511,-4.21663 0.6964,-2.04393 0.69163,-1.31174 -0.0117,1.79573 -0.19762,0.87312 -0.50496,2.27754 -0.68296,3.12093 -0.17801,0.84339 -0.43398,1.60161 -0.56882,1.68495 -0.56974,0.35212 -1.00274,-0.67943 -1.16423,-2.77358 -0.0922,-1.19551 -0.2057,-2.13558 -0.25225,-2.08903 -0.23849,0.23848 -0.85331,5.45129 -0.70947,6.0152 0.0921,0.36086 0.44525,1.10023 0.78488,1.64304 0.72637,1.1609 0.82485,1.76348 0.204,1.24822 -0.36393,-0.30203 -0.39126,-0.25039 -0.22798,0.43063 0.10204,0.42559 0.29777,0.99236 0.43495,1.25949 0.13718,0.26712 0.18989,0.54521 0.11713,0.61797 -0.21683,0.21683 -0.62997,-0.76113 -0.82892,-1.96217 -0.28028,-1.69199 -0.66668,-1.62722 -0.68776,0.11529 -0.0127,1.05306 -0.0857,1.37037 -0.23165,1.00781 -0.17292,-0.42951 -0.30342,-0.23019 -0.69288,1.05833 -0.60109,1.98867 -0.61082,3.27804 -0.0398,5.27199 0.24695,0.86231 0.39836,1.61847 0.33647,1.68036 -0.0619,0.0619 -0.24724,-0.38776 -0.41189,-0.99923 -0.16465,-0.61146 -0.33494,-1.06996 -0.37842,-1.01889 -0.0435,0.0511 -0.15826,0.71371 -0.25506,1.47253 l -0.176,1.37967 1.11576,0.56921 c 0.61366,0.31308 1.27698,0.73045 1.47403,0.9275 0.36863,0.36863 3.14187,1.26141 4.90042,1.57757 0.65832,0.11837 0.99219,0.0795 0.99219,-0.11564 0,-0.16172 -0.13891,-0.29403 -0.30868,-0.29403 -0.16978,0 -0.21957,-0.0891 -0.11066,-0.19802 0.10891,-0.10891 0.35905,0.0222 0.55587,0.29137 0.59993,0.82046 3.98002,1.04829 8.26399,0.55703 0.76398,-0.0876 1.38906,-0.27681 1.38906,-0.42045 0,-0.14364 -0.10188,-0.19819 -0.22641,-0.12123 -0.12453,0.077 -0.90959,0.16225 -1.74459,0.18954 -1.65084,0.0539 -2.01027,-0.19453 -1.96239,-1.35657 0.0245,-0.59436 0.0443,-0.58094 0.19575,0.13229 0.15393,0.72516 0.27127,0.7996 1.35776,0.86146 0.65409,0.0372 2.23178,-0.14815 3.50598,-0.41196 2.22959,-0.46163 2.31104,-0.46175 2.16551,-0.003 -0.11405,0.35935 -0.0457,0.43595 0.27817,0.31167 0.23616,-0.0906 0.36674,-0.328 0.29019,-0.5275 -0.0766,-0.1995 -0.0239,-0.36273 0.11708,-0.36273 0.14096,0 0.25628,0.35719 0.25628,0.79375 0,0.54252 0.13056,0.79375 0.41249,0.79375 0.22687,0 0.34662,0.10659 0.26611,0.23686 -0.0805,0.13027 0.0413,0.30886 0.2706,0.39687 0.59636,0.22885 0.59223,0.23214 0.71338,-0.56759 0.0896,-0.59166 0.11763,-0.54413 0.14986,0.25439 0.0369,0.91397 0.11432,1.00209 1.11765,1.27226 0.5929,0.15965 1.21053,0.2461 1.37252,0.1921 0.16199,-0.054 0.50635,0.11364 0.76523,0.37253 0.40234,0.40233 0.83681,0.45521 2.99124,0.36403 1.3863,-0.0587 2.65179,-0.18779 2.81221,-0.28694 0.16042,-0.0991 0.56834,-0.0322 0.90649,0.14878 0.68531,0.36677 3.03889,0.14245 3.03889,-0.28963 0,-0.14034 0.36143,-0.0683 0.80317,0.16017 0.66119,0.34191 1.06735,0.3665 2.29756,0.13909 0.8219,-0.15194 1.84427,-0.27626 2.27193,-0.27626 0.66116,0 0.72825,0.0594 0.44817,0.39688 -0.18115,0.21828 -0.2255,0.3987 -0.0985,0.40093 0.12696,0.002 0.0522,0.11946 -0.16604,0.26053 -0.49828,0.32201 -1.66899,0.3459 -1.4738,0.0301 0.19711,-0.31893 -0.66518,-0.51887 -1.29099,-0.29934 -0.3476,0.12193 -0.40876,0.23893 -0.19421,0.37152 0.17224,0.10645 0.424,0.12505 0.55947,0.0413 0.13546,-0.0837 0.31273,-0.0447 0.39393,0.0866 0.085,0.13749 -1.33895,0.23928 -3.35515,0.23983 -2.1375,5.3e-4 -3.19341,-0.0781 -2.70904,-0.20198 0.43656,-0.11161 -0.57547,-0.13825 -2.24896,-0.0592 -2.3935,0.11308 -3.3407,0.27549 -4.43931,0.76118 -1.60765,0.71073 -1.56269,0.70186 -1.77951,0.35104 z m 12.23258,-1.48097 c -0.0879,-0.0879 -0.31612,-0.0973 -0.50712,-0.0209 -0.21107,0.0845 -0.14837,0.14716 0.15985,0.15985 0.27892,0.0115 0.43519,-0.0511 0.34727,-0.13896 z m 10.12582,-0.29037 c 0,-0.14043 0.0893,-0.34325 0.19844,-0.4507 0.10914,-0.10746 0.33821,-0.57379 0.50904,-1.03629 0.17083,-0.4625 0.31966,-0.64906 0.33073,-0.41458 0.0151,0.31875 0.20375,0.39226 0.74773,0.2913 0.40018,-0.0743 0.81508,-0.26612 0.92199,-0.42633 0.11783,-0.17657 0.19598,-0.0975 0.19844,0.20067 0.003,0.40592 0.16602,0.47306 0.93009,0.38386 0.50932,-0.0595 0.92604,-0.0303 0.92604,0.0648 0,0.0951 1.0418,0.14611 2.31511,0.11338 3.55814,-0.0914 3.458,-0.0712 3.58359,-0.72324 0.11387,-0.59121 0.1149,-0.59101 0.15069,0.0287 0.0316,0.54706 0.12573,0.60005 0.76363,0.4298 0.40019,-0.1068 0.906201,-0.18797 1.124481,-0.18037 0.21828,0.008 0.7392,-0.0497 1.15758,-0.12737 0.75691,-0.14048 0.75986,-0.14865 0.59044,-1.63425 -0.46453,-4.07315 -0.46811,-4.14152 -0.19653,-3.75135 0.14837,0.21315 0.35249,1.44517 0.45362,2.73782 l 0.18386,2.35028 0.81548,-0.1631 c 0.44851,-0.0897 0.89979,-0.25015 1.00285,-0.35657 0.10306,-0.10641 -0.0966,-1.56269 -0.44373,-3.23618 -0.59338,-2.86086 -0.8155,-4.74846 -0.52453,-4.45749 0.0707,0.0707 0.37005,1.54083 0.66513,3.26686 0.29508,1.72604 0.57582,3.17756 0.62386,3.2256 0.11957,0.11957 2.03538,-0.56966 3.86186,-1.38934 l 1.51069,-0.67795 -0.34255,-1.76978 c -0.50613,-2.615 -1.2098,-7.75724 -1.07934,-7.8877 0.0623,-0.0623 0.25688,0.81254 0.43248,1.94402 0.17559,1.13148 0.48324,2.77161 0.68367,3.64474 0.20042,0.87312 0.44168,1.98108 0.53612,2.46212 0.12314,0.62717 0.29586,0.8491 0.61049,0.78439 0.33708,-0.0693 0.42015,-0.33332 0.35846,-1.13921 -0.18241,-2.38269 -2.18005,-10.90192 -3.00681,-12.82293 -0.24221,-0.5628 -0.3096,-0.59346 -0.45182,-0.20558 -0.0938,0.25582 -0.54748,-1.42771 -1.03385,-3.83646 -1.40871,-6.9766 -1.66401,-7.91506 -2.62454,-9.64779 -0.50346,-0.908209 -1.02118,-1.716681 -1.1505,-1.796603 -0.12932,-0.07992 -0.40616,0.264046 -0.61521,0.764373 -0.20905,0.500327 -0.5951,1.03001 -0.85789,1.17708 -0.37228,0.20833 -0.50121,0.68175 -0.58382,2.14368 -0.0583,1.03197 -0.19873,1.8763 -0.31206,1.8763 -0.11332,0 -0.28718,0.32329 -0.38635,0.71843 -0.26153,1.04201 -1.213761,3.06014 -1.370121,2.90379 -0.0734,-0.0734 0.0377,-0.47195 0.2469,-0.88565 0.713571,-1.41117 1.550421,-4.31142 1.389931,-4.81708 -0.0881,-0.27748 -0.0163,-0.82025 0.15956,-1.20615 0.26849,-0.58927 0.24834,-0.77298 -0.12583,-1.147151 -0.41763,-0.417632 -0.48935,-0.40168 -1.145891,0.254861 -0.38521,0.38521 -0.84461,1.0961 -1.02088,1.57977 -0.17628,0.48366 -0.40886,1.08775 -0.51684,1.34241 -0.12419,0.29289 -0.0796,0.46302 0.12133,0.46302 0.17471,0 0.37918,-0.23528 0.45438,-0.52284 0.11266,-0.43081 0.22915,-0.47339 0.66173,-0.24188 0.45711,0.24464 0.50325,0.21245 0.3568,-0.24898 -0.1387,-0.43699 -0.0725,-0.50492 0.377331,-0.38728 0.53606,0.14018 0.53717,0.15702 0.064,0.97026 -0.390391,0.67088 -0.679521,0.84391 -1.526851,0.91372 -0.97,0.0799 -1.16913,0.25005 -2.76507,2.36242 -0.94588,1.25196 -2.79423,3.4754 -4.10743,4.94096 -1.31321,1.46557 -2.65266,3.00814 -2.97657,3.42795 l -0.58891,0.76329 0.0313,-1.29246 c 0.0249,-1.02953 0.0653,-1.13763 0.19844,-0.53139 l 0.16713,0.76106 1.19063,-1.46211 c 0.65484,-0.80416 2.50031,-2.97986 4.10104,-4.83488 2.93179,-3.39754 3.87882,-4.75476 4.19401,-6.01057 0.0943,-0.37573 0.47212,-1.04047 0.8396,-1.47719 0.64394,-0.765286 1.561221,-3.191153 1.303931,-3.448444 -0.21538,-0.215379 -1.696451,1.324015 -3.787931,3.937114 -2.18346,2.72801 -5.38542,6.27491 -6.16399,6.82802 -0.40878,0.29041 -0.58194,0.27461 -1.08198,-0.0987 -0.34204,-0.25535 -0.41012,-0.38236 -0.16002,-0.29853 0.38563,0.12926 0.43365,-0.16132 0.42099,-2.54713 -0.0111,-2.09441 0.12512,-3.16188 0.61288,-4.80227 0.48437,-1.629002 0.66103,-1.965751 0.77592,-1.479055 0.0818,0.346594 0.45369,0.857827 0.82636,1.13607 l 0.6776,0.505895 1.82965,-0.924632 c 1.0063,-0.50855 2.85744,-1.406782 4.11363,-1.996072 2.208731,-1.036138 2.610811,-1.403408 2.610811,-2.384814 0,-0.412864 -0.13787,-0.433446 -1.303731,-0.194622 -1.45782,0.29863 -2.13586,-0.0052 -2.13586,-0.957189 0,-0.568819 1.1845,-2.637379 2.38443,-4.164052 0.400311,-0.509323 0.774021,-1.164166 0.830461,-1.455208 0.0638,-0.329256 0.37658,0.275284 0.82782,1.600229 l 0.72521,2.129396 -0.56579,1.971646 c -0.31119,1.084405 -0.79284,2.612382 -1.07035,3.395501 -0.2775,0.783121 -0.4706,1.452589 -0.4291,1.487704 0.0415,0.03512 0.45764,0.258183 0.92476,0.4957 l 0.84932,0.431847 0.9273,-1.927929 c 1.1553,-2.401961 1.81707,-4.904438 1.80515,-6.826141 -0.013,-2.093926 -1.35857,-7.278731 -2.09532,-8.073694 -0.32488,-0.350561 -0.71271,-0.637384 -0.86182,-0.637384 -0.5486,0 -1.21369,1.473725 -1.36745,3.030058 l -0.15809,1.60015 -0.0404,-1.616724 c -0.0329,-1.317331 0.0786,-1.792034 0.60209,-2.563404 l 0.64244,-0.946679 -1.17721,-0.964635 c -1.069401,-0.876289 -1.276691,-0.947827 -2.263421,-0.78112 -0.76729,0.129633 -1.03295,0.09734 -0.90482,-0.109982 0.0998,-0.161423 0.59482,-0.293497 1.10012,-0.293497 0.58399,0 0.97582,-0.148762 1.0754,-0.408286 0.23086,-0.601606 0.0845,-0.639034 -1.36726,-0.349582 -1.99912,0.39859 -2.08788,0.442593 -1.73948,0.862392 0.23038,0.277595 0.20911,0.398157 -0.0905,0.513144 -0.21542,0.08266 -0.64678,0.650361 -0.95859,1.261547 -0.4285,0.83993 -0.62423,1.020726 -0.80165,0.740495 -0.34729,-0.548526 -0.29889,-0.691252 0.28633,-0.84429 0.57662,-0.150791 0.73385,-0.7179 0.19843,-0.715773 -0.68167,0.0027 -1.83113,1.24158 -2.57641,2.776811 -0.93766,1.931507 -1.05153,1.567367 -0.14844,-0.474675 0.49293,-1.114604 0.95328,-1.672518 1.91823,-2.324757 0.6983,-0.472008 1.28266,-0.868667 1.29857,-0.881465 0.0159,-0.0128 0.10747,-0.350691 0.20348,-0.750874 0.15129,-0.630618 0.0945,-0.728144 -0.4258,-0.731655 -0.92222,-0.0062 -1.17682,-0.303156 -1.21391,-1.41573 -0.0188,-0.562599 -0.14643,-1.158262 -0.28373,-1.323696 -0.16026,-0.193103 -0.11873,-0.537316 0.11601,-0.961468 0.44563,-0.805203 0.48945,-1.586721 0.089,-1.586721 -0.1625,0 -0.23611,-0.226914 -0.16358,-0.504254 0.0725,-0.277339 -0.0914,-0.842886 -0.36427,-1.25677 -0.27288,-0.413885 -0.49693,-0.940123 -0.49788,-1.169418 -0.002,-0.459998 0.93323,-1.398561 1.64241,-1.648394 0.40985,-0.144383 0.41637,-0.230997 0.0678,-0.899322 -0.51549,-0.988281 -0.48908,-1.646883 0.074,-1.845614 0.25466,-0.08988 0.72966,-0.403379 1.05556,-0.69667 0.57004,-0.513006 0.61237,-0.515314 1.11463,-0.06078 0.28714,0.259864 0.70185,0.403496 0.92157,0.319182 0.232,-0.08903 0.55591,0.07003 0.77259,0.379372 0.2052,0.292969 0.71447,0.623967 1.13172,0.73555 0.440121,0.117703 0.799301,0.417053 0.855511,0.713018 0.0927,0.488016 0.0746,0.49006 -0.4177,0.04712 -0.666641,-0.59981 -0.726041,-0.589571 -1.253961,0.216144 -0.33462,0.510696 -0.37164,0.767564 -0.14925,1.035532 0.20436,0.246238 0.2172,0.629148 0.0416,1.239064 -0.1398,0.485483 -0.26493,0.687245 -0.27805,0.448359 -0.0131,-0.238886 -0.30111,-0.503921 -0.63996,-0.588968 -0.83828,-0.210395 -1.30343,-1.278409 -0.95543,-2.19373 0.19159,-0.503907 0.18038,-0.787811 -0.0392,-0.993236 -0.22264,-0.208278 -0.3411,-0.195935 -0.4293,0.04473 -0.067,0.182808 -0.22249,0.270163 -0.34552,0.194122 -0.12304,-0.07604 -0.29849,-0.01725 -0.38989,0.130643 -0.0914,0.147895 -0.0401,0.268899 0.114,0.268899 0.15411,0 0.2802,0.131801 0.2802,0.292891 0,0.16109 -0.17478,0.225821 -0.3884,0.143847 -0.21362,-0.08197 -0.45877,-0.03518 -0.54478,0.103984 -0.14106,0.228247 0.21569,0.366317 0.73475,0.28436 0.10914,-0.01723 0.19843,0.08773 0.19843,0.233252 0,0.14552 -0.17859,0.264583 -0.39687,0.264583 -0.21828,0 -0.39505,0.208359 -0.39283,0.463021 0.003,0.388555 0.0437,0.400385 0.25036,0.07356 0.2086,-0.329854 0.27504,-0.314549 0.43412,0.100002 0.12854,0.334981 0.0167,0.624912 -0.35447,0.918627 -0.29825,0.23604 -0.62929,0.726821 -0.73562,1.090623 -0.10634,0.363802 -0.10578,0.578763 10e-4,0.477692 0.10702,-0.101072 0.48794,0.16486 0.84648,0.590959 0.99164,1.178504 4.999451,2.133774 5.506961,1.312599 0.0933,-0.151014 -0.13802,-0.264583 -0.53897,-0.264583 -0.907321,0 -3.506681,-0.754665 -3.705081,-1.075686 -0.0841,-0.135977 -0.46626,-0.247231 -0.84929,-0.247231 -0.66655,0 -0.67439,-0.01615 -0.18282,-0.376679 0.44775,-0.328396 0.57294,-0.323139 0.97661,0.04101 0.42345,0.381993 0.51154,0.374615 1.03084,-0.08634 0.4084,-0.362517 0.60031,-0.411173 0.68351,-0.173299 0.14905,0.426116 0.87101,0.41007 1.45343,-0.0323 0.323841,-0.245974 0.422811,-0.606872 0.341851,-1.246594 -0.0627,-0.495216 -0.0369,-1.198842 0.0572,-1.563613 0.12552,-0.486378 0.26474,-0.06791 0.52214,1.569423 0.19304,1.227953 0.53111,2.431692 0.75128,2.674976 0.33015,0.36481 0.34449,0.576339 0.0818,1.206941 -0.62098,1.490754 -0.95204,3.53389 -0.6176,3.811453 0.303,0.251461 0.16003,1.982079 -0.24093,2.916631 -0.12278,0.286173 0.18664,0.661939 1.04091,1.264085 1.43975,1.014829 2.1521,2.432054 2.68416,5.340146 0.62034,3.390609 0.6952,4.689128 0.36661,6.359316 l -0.31755,1.614104 1.24161,1.106519 c 0.68289,0.608584 1.7918,1.425157 2.46425,1.8146 1.0124,0.586332 1.20957,0.824944 1.14667,1.387742 -0.0418,0.373811 0.33715,1.98425 0.84206,3.57876 0.76894,2.42832 0.87633,3.05007 0.66131,3.8288 -0.21133,0.76536 -0.15619,1.12672 0.31191,2.04427 0.43668,0.85598 0.53167,1.38404 0.4094,2.27606 -0.10946,0.79865 -0.0311,1.40911 0.2507,1.95414 0.29956,0.57928 0.39704,1.48248 0.36212,3.35531 -0.0421,2.2576 0.0501,2.8427 0.774,4.91509 0.45196,1.29383 0.89635,2.91473 0.98752,3.602 0.16121,1.21526 0.13672,1.27291 -0.89184,2.09949 -0.7578,0.60898 -1.01977,0.99461 -0.92413,1.36035 0.19714,0.75383 -0.35157,1.25317 -2.43413,2.21512 -2.79376,1.29047 -3.05109,1.34729 -3.05109,0.67374 0,-0.46265 -0.10769,-0.53229 -0.59531,-0.38496 -0.95511,0.28856 -1.18276,0.64211 -0.66146,1.02725 1.1224,0.82925 0.19048,1.39388 -2.66993,1.61764 -1.33281,0.10427 -2.42364,0.26352 -2.42405,0.35388 -5.3e-4,0.0904 -1.662521,0.15752 -3.693591,0.14921 -3.44939,-0.0141 -4.80318,0.085 -7.6166,0.55741 -0.67652,0.11361 -1.12448,0.0871 -1.12448,-0.0665 z m 20.487571,-3.80843 c 0.13582,-0.12674 0.18097,-0.29641 0.10034,-0.37705 -0.20162,-0.20162 -1.53791,0.4303 -1.53791,0.72726 0,0.26659 1.05094,0.0106 1.43757,-0.35021 z m 1.35572,-0.6145 c 0.28224,-0.20638 0.43426,-0.45416 0.33781,-0.5506 -0.22299,-0.22299 -1.27901,0.33067 -1.27901,0.67057 0,0.36071 0.34375,0.3169 0.9412,-0.11997 z m 1.39917,-1.06622 c 0.0585,-0.30163 -0.0369,-0.42885 -0.26458,-0.35302 -0.1958,0.0652 -0.39714,0.33075 -0.44741,0.59011 -0.0585,0.30163 0.0369,0.42885 0.26458,0.35302 0.1958,-0.0652 0.39713,-0.33075 0.44741,-0.59011 z m 0.4862,-0.46023 c -0.0845,-0.21107 -0.14716,-0.14837 -0.15985,0.15985 -0.0115,0.27892 0.0511,0.43519 0.13896,0.34727 0.0879,-0.0879 0.0973,-0.31613 0.0209,-0.50712 z m 1.49645,-2.35359 c 0.34771,-0.40609 0.42374,-0.77161 0.28895,-1.38906 -0.35997,-1.64893 -2.19294,-7.53804 -2.5779,-8.28247 -0.37936,-0.7336 -1.50491,-1.93304 -1.50491,-1.6037 0,0.0891 0.42658,1.80415 0.94796,3.81132 1.003,3.86136 1.5588,6.09167 1.81602,7.28742 0.1875,0.87163 0.40305,0.90857 1.02988,0.17649 z m -2.01844,-13.17855 c -0.636,-0.69335 -2.02246,-2.71129 -2.58489,-3.76221 -0.56033,-1.047 0.21852,-0.25077 1.19768,1.22439 0.53321,0.80331 1.08071,1.39182 1.21667,1.30779 0.61054,-0.37734 0.17668,-2.11198 -1.31063,-5.24015 -1.5272,-3.21207 -2.26673,-4.14182 -3.29439,-4.14182 -0.39297,0 -0.46499,0.12851 -0.33363,0.59531 0.0921,0.32742 0.53364,2.14313 0.9811,4.0349 1.25445,5.30353 1.50244,5.98247 2.6093,7.14375 0.55481,0.58208 1.23005,1.47505 1.50054,1.98437 l 0.49179,0.92604 0.0797,-1.69112 c 0.0697,-1.47712 -2.6e-4,-1.77845 -0.55328,-2.38125 z m -17.647931,-8.90254 c 0.51069,-0.5764 1.14386,-1.38358 1.40704,-1.79373 0.26318,-0.41016 1.30386,-1.61461 2.31262,-2.676573 1.00876,-1.061961 1.8341,-1.981878 1.8341,-2.044264 0,-0.06238 -1.49587,0.636056 -3.32416,1.552091 -1.82828,0.916032 -3.48523,1.665516 -3.68209,1.665516 -0.19687,0 -0.59713,-0.32742 -0.88946,-0.72761 l -0.53152,-0.727599 -0.31079,0.793749 c -0.47701,1.21829 -0.63085,4.8536 -0.26275,6.20925 l 0.32099,1.18217 1.09874,-1.1925 c 0.60431,-0.65587 1.51659,-1.6641 2.02728,-2.2405 z m 16.955221,1.0165 c -0.51534,-1.13104 -1.34729,-4.52682 -1.34729,-5.499223 0,-0.605097 -0.12501,-0.930905 -0.35718,-0.930905 -0.19644,0 -0.85878,-0.363363 -1.47186,-0.807474 -0.8633,-0.625374 -1.05194,-0.690242 -0.83648,-0.287641 0.15301,0.285906 0.41649,0.565925 0.58551,0.622265 0.16901,0.05634 0.25101,0.271312 0.18221,0.477716 -0.0941,0.2823 -0.25143,0.219054 -0.635,-0.255273 -1.66085,-2.053817 -2.19831,-2.525281 -2.51823,-2.209027 -0.25286,0.249955 -0.0947,0.620879 0.73349,1.719792 0.58073,0.770604 1.37453,1.907116 1.76399,2.52558 0.62443,0.9916 0.8234,1.12448 1.68374,1.12448 0.71854,0 0.89777,0.0779 0.68011,0.29553 -0.31648,0.31649 -0.0633,1.39225 0.85571,3.6351 0.39551,0.96531 0.51346,1.0788 0.72616,0.69872 0.16745,-0.29921 0.15216,-0.67719 -0.0449,-1.10964 z m -2.27333,-2.72596 c -0.0899,-0.14552 -0.36486,-0.26276 -0.61093,-0.26053 -0.38557,0.003 -0.39255,0.0395 -0.0505,0.26053 0.51815,0.33486 0.86841,0.33486 0.66146,0 z m -1.59413,-0.99219 c -1.19244,-1.868449 -2.83702,-4.057566 -2.95763,-3.936956 -0.25147,0.251473 2.59857,4.664566 3.01245,4.664566 0.35638,0 0.34927,-0.0944 -0.0548,-0.72761 z m -5.77409,-7.230479 c 0.84982,-0.315142 1.06254,-2.017315 0.4611,-3.689855 -0.2604,-0.724154 -0.53923,-1.31381 -0.61963,-1.310346 -0.16545,0.0071 -2.187621,2.987 -2.644081,3.896307 -0.217,0.432297 -0.21992,0.742764 -0.0107,1.133787 0.24126,0.450808 0.44739,0.509392 1.26608,0.359844 0.53785,-0.09825 1.234071,-0.273627 1.547181,-0.389737 z M 98.485679,78.110795 c 0.42428,-0.0834 0.5424,-0.310088 0.5424,-1.040903 0,-0.513855 -0.0952,-0.934282 -0.21167,-0.934282 -0.11641,0 -0.21166,-0.185621 -0.21166,-0.41249 0,-0.247563 -0.12377,-0.335998 -0.30955,-0.22118 -0.21073,0.13024 -0.25326,0.04463 -0.13322,-0.26819 0.13138,-0.34238 0.0585,-0.436495 -0.28577,-0.369243 -0.25995,0.05077 -0.7328,-0.230172 -1.08092,-0.642236 -0.6576,-0.778387 -1.53028,-1.01425 -1.27311,-0.344093 0.22865,0.595858 -0.39209,0.812586 -0.78569,0.274316 -0.32506,-0.444546 -0.36667,-0.428379 -0.62132,0.241386 -0.35528,0.934457 -0.35272,0.947281 0.1901,0.952031 0.36412,0.0032 0.38559,0.0531 0.10054,0.233671 -0.29518,0.186992 -0.27659,0.277681 0.10013,0.488502 0.31206,0.174638 0.36544,0.318927 0.16403,0.443402 -0.1642,0.101486 -0.29856,0.415618 -0.29856,0.698072 0,0.395406 0.18452,0.513552 0.80206,0.513552 0.45832,0 0.86545,0.165202 0.94997,0.385473 0.1425,0.371351 0.48278,0.37167 2.36224,0.0022 z m -0.93927,-1.827279 c 0,-0.226869 0.11907,-0.41249 0.26459,-0.41249 0.14552,0 0.26458,0.112036 0.26458,0.248969 0,0.136932 -0.11906,0.322553 -0.26458,0.41249 -0.14552,0.08994 -0.26459,-0.0221 -0.26459,-0.248969 z m 2.519871,-0.697012 c 0.22749,-0.716739 0.10245,-0.810695 -0.496261,-0.372907 -0.269,0.196701 -0.41062,0.484622 -0.31469,0.639825 0.27502,0.445 0.62116,0.331072 0.810951,-0.266918 z m 0.65513,-3.816519 c 0,-0.757915 -0.0148,-0.763937 -0.892651,-0.363947 -0.7979,0.363548 -0.6304,1.025405 0.259501,1.025405 0.49898,0 0.63315,-0.140178 0.63315,-0.661458 z M 98.595599,71.62061 c -0.23382,-0.436898 -0.3681,-0.483379 -0.67076,-0.232187 -0.57076,0.473686 -0.45631,0.778437 0.29234,0.778437 0.59577,0 0.63808,-0.06107 0.37842,-0.54625 z m -4.42401,-1.967292 c 0.13953,-0.729934 -0.17874,-0.906382 -0.43419,-0.240707 -0.14295,0.372537 -0.0127,0.902165 0.22191,0.902165 0.0472,0 0.14273,-0.297656 0.21228,-0.661458 z m 3.96443,-1.203447 c -0.0942,-0.807554 -0.26253,-0.94925 -0.65795,-0.553834 -0.25576,0.255755 -0.24768,0.371345 0.0383,0.548092 0.20662,0.127698 0.27514,0.365197 0.15939,0.552475 -0.13286,0.214986 -0.076,0.283696 0.16454,0.198853 0.20367,-0.07183 0.33552,-0.404284 0.29571,-0.745586 z m 0.19716,-2.116892 c -0.36014,-0.672938 -0.71377,-0.848291 -0.94762,-0.469904 -0.10858,0.175686 -0.0573,0.366144 0.11401,0.423239 0.17129,0.0571 0.31143,0.346592 0.31143,0.643325 0,0.446163 0.0677,0.483321 0.39131,0.214752 0.28526,-0.236745 0.32073,-0.456656 0.13087,-0.811412 z m -24.66923,67.323631 c -0.087,-0.087 -0.0903,-0.33509 -0.007,-0.55134 0.12299,-0.3205 0.19225,-0.32795 0.3746,-0.0403 0.38997,0.6152 0.10893,1.06787 -0.36732,0.59162 z m 9.65734,-0.14112 c 0.4305,-0.3395 0.43512,-0.61061 0.0737,-4.33092 -0.21204,-2.18282 -0.46513,-4.65336 -0.56241,-5.49011 -0.11497,-0.98892 -0.0807,-1.52135 0.0979,-1.52135 0.24266,0 0.35765,0.71999 0.71838,4.49791 0.63786,6.68042 0.62454,6.61459 1.33908,6.61459 0.86416,0 1.05074,-0.42738 0.95291,-2.18281 -0.0711,-1.27569 -0.0138,-1.52136 0.35485,-1.52136 0.30077,0 0.41292,-0.18148 0.35507,-0.57459 -0.10723,-0.72876 -0.66197,-0.93036 -0.82538,-0.29995 -0.0762,0.29398 -0.13563,0.18091 -0.15451,-0.29404 -0.0169,-0.42443 0.0579,-0.68309 0.1662,-0.5748 0.10829,0.10829 0.33473,-0.31835 0.50319,-0.94809 0.19257,-0.71985 0.31594,-0.91815 0.33227,-0.53406 0.0162,0.38163 0.13784,0.54179 0.32402,0.42673 0.19344,-0.11956 0.2488,-0.72717 0.15775,-1.73133 -0.10862,-1.19784 -0.32346,-1.7784 -0.95157,-2.57146 -0.8926,-1.127 -1.48276,-2.42341 -1.10319,-2.42341 0.32351,0 1.25816,1.34045 1.7419,2.49819 0.21633,0.51777 0.55645,0.9414 0.7558,0.9414 0.19936,0 0.42474,0.23812 0.50085,0.52916 0.32212,1.2318 1.56846,0.35443 4.3223,-3.04271 0.97748,-1.20581 4.89735,-7.04442 5.15138,-7.67291 0.22045,-0.5454 2.469681,-3.81088 2.561591,-3.71897 0.16217,0.16217 -1.015041,2.32626 -2.003621,3.68331 -0.83079,1.14046 -0.88735,1.31546 -0.49594,1.5345 0.24298,0.13599 0.44179,0.47526 0.44179,0.75395 0,0.6462 -0.96078,1.20025 -1.4202,0.81897 -0.24574,-0.20395 -0.9032,0.54375 -2.62078,2.98053 -1.26101,1.78903 -2.89733,3.8183 -3.63627,4.50948 -1.29917,1.21523 -1.36448,1.24297 -1.97871,0.84051 -0.75974,-0.4978 -0.82153,-0.40895 -0.90246,1.29772 -0.0345,0.7276 -0.17038,1.79916 -0.30194,2.38125 -0.37176,1.64479 -0.31526,2.2484 0.21088,2.25301 0.85395,0.007 1.15078,0.3814 0.58381,0.73547 -0.39928,0.24936 -0.50402,0.25089 -0.45246,0.007 0.0369,-0.17482 -0.11151,-0.35742 -0.32979,-0.40578 -0.27629,-0.0612 -0.41373,0.15507 -0.45237,0.71189 -0.0382,0.55011 0.0651,0.79982 0.33073,0.79982 0.21243,0 0.38623,-0.14287 0.38623,-0.3175 0,-0.24103 0.0791,-0.23837 0.32851,0.011 0.39398,0.39397 -0.12605,0.82504 -1.0032,0.8316 -0.29832,0.002 -0.66462,0.12628 -0.81401,0.27566 -0.14939,0.14939 -0.91734,0.34213 -1.70656,0.42832 -1.24553,0.13601 -1.37433,0.10889 -0.9757,-0.20547 z m 23.485541,-1.01709 c 0.21828,-0.14466 0.61115,-0.26485 0.87304,-0.26707 0.26188,-0.002 0.8355,-0.18988 1.2747,-0.417 0.4392,-0.22712 0.93931,-0.36537 1.11134,-0.30723 0.51195,0.17301 -1.29451,0.97619 -2.52033,1.12057 -0.80625,0.095 -1.02052,0.0575 -0.73875,-0.12927 z m -11.976431,-1.72633 c 0.0812,-0.87313 0.2421,-1.82563 0.35754,-2.11667 0.12287,-0.30981 0.15907,0.0989 0.0873,0.98601 -0.0674,0.83334 -0.2283,1.78584 -0.35754,2.11667 -0.15677,0.4013 -0.18583,0.0731 -0.0873,-0.98601 z m -4.03086,0.92604 c -0.0899,-0.14552 0.0291,-0.26459 0.26458,-0.26459 0.23546,0 0.35452,0.11907 0.26459,0.26459 -0.0899,0.14552 -0.209,0.26458 -0.26459,0.26458 -0.0556,0 -0.17464,-0.11906 -0.26458,-0.26458 z m 2.07912,-0.8599 c 0.33546,-0.67661 0.58994,-0.95811 0.63894,-0.70676 0.12515,0.64207 -0.41139,1.83124 -0.82624,1.83124 -0.28786,0 -0.2462,-0.25014 0.1873,-1.12448 z m -43.88329,0.7073 c -0.16171,-0.0677 -0.23247,-1.30408 -0.18198,-3.1799 0.0635,-2.35951 0.008,-3.02307 -0.23932,-2.87011 -0.17705,0.10942 -0.25661,0.0913 -0.17678,-0.0404 0.22517,-0.37128 0.94515,-7.81167 1.39371,-14.40281 0.22314,-3.27878 0.52908,-6.40826 0.67988,-6.9544 0.30219,-1.09444 0.12219,-2.05615 -0.36715,-1.96162 -0.18671,0.0361 -0.33761,-0.31571 -0.37119,-0.86527 -0.0559,-0.91498 -0.0533,-0.91738 0.21969,-0.20081 0.24561,0.64472 0.32036,0.68117 0.67323,0.3283 0.21832,-0.21832 0.50641,-0.32929 0.6402,-0.2466 0.13379,0.0827 0.24325,0.0243 0.24325,-0.12986 0,-0.15411 0.11907,-0.2802 0.26459,-0.2802 0.14787,0 0.25638,0.67111 0.24598,1.52135 -0.0134,1.09458 -0.0824,1.37291 -0.24598,0.99219 -0.15249,-0.35485 -0.23352,0.19502 -0.24599,1.66926 -0.0119,1.40265 0.0772,2.13924 0.24599,2.03491 0.15065,-0.0931 0.26458,0.13475 0.26458,0.52916 0,0.44137 -0.10686,0.62665 -0.29453,0.51066 -0.21514,-0.13296 -0.26803,2.85805 -0.19621,11.09615 0.0647,7.42377 0.007,11.31649 -0.1685,11.39031 -0.14674,0.0617 -0.11797,0.12155 0.0639,0.13304 0.1819,0.0115 0.33073,0.21238 0.33073,0.44644 0,0.32549 0.16075,0.38522 0.68362,0.25398 0.4433,-0.11126 0.62384,-0.0748 0.51356,0.10361 -0.16069,0.25999 -3.40819,0.36014 -3.97531,0.12259 z m 40.15556,-0.29534 c 0.25743,-0.0671 0.61462,-0.0627 0.79375,0.01 0.17913,0.0725 -0.0315,0.12736 -0.46806,0.12197 -0.43656,-0.005 -0.58312,-0.0647 -0.32569,-0.13178 z m -15.39613,-0.50015 c 0.0127,-0.30823 0.0754,-0.37092 0.15985,-0.15985 0.0764,0.19099 0.067,0.4192 -0.0209,0.50711 -0.0879,0.0879 -0.15046,-0.0684 -0.13897,-0.34726 z m 26.763411,-0.37483 c 0,-0.50932 0.0545,-0.71768 0.12101,-0.46302 0.0665,0.25466 0.0665,0.67138 0,0.92604 -0.0666,0.25466 -0.12101,0.0463 -0.12101,-0.46302 z m -56.483781,0.20468 c -1.42769,-0.29755 -1.49075,-0.49917 -0.98361,-3.14513 0.15024,-0.78384 0.56957,-3.3897 0.93184,-5.7908 1.79797,-11.91668 2.97031,-18.55944 4.09721,-23.215891 0.27626,-1.141564 0.34977,-1.846392 0.18172,-1.742536 -0.17848,0.110311 -0.21705,0.0126 -0.10493,-0.265877 0.0975,-0.242152 0.25004,-0.62022 0.339,-0.840152 0.18466,-0.456504 -0.27095,-0.339014 -1.65211,0.42604 -0.82723,0.458224 -1.42613,0.284892 -1.416,-0.409811 0.002,-0.152797 0.11482,-0.102666 0.2502,0.1114 0.13538,0.214067 0.33397,0.301379 0.44133,0.194027 0.10735,-0.107352 0.0543,-0.336073 -0.11791,-0.508275 -0.44524,-0.445238 -0.3899,-0.654619 0.21482,-0.812755 0.45512,-0.119017 0.50418,-0.04353 0.35585,0.547492 l -0.17207,0.685543 1.16551,-0.674478 c 0.64103,-0.370965 1.82035,-0.883981 2.62072,-1.140042 1.74485,-0.558229 2.43405,-1.089171 1.05833,-0.815319 -2.63417,0.524362 -2.54688,0.535458 -3.00456,-0.381966 -0.23459,-0.470254 -0.36247,-0.958662 -0.28417,-1.085355 0.0783,-0.126693 0.0205,-0.439653 -0.12849,-0.695468 -0.2572,-0.441661 -0.27126,-0.441767 -0.2789,-0.0021 -0.004,0.254661 -0.10727,0.46302 -0.22853,0.46302 -0.27091,0 -0.30183,-0.875416 -0.0374,-1.058333 0.25363,-0.175435 -0.20881,-1.393267 -0.46749,-1.231138 -0.11037,0.06918 -0.6174,1.087477 -1.12672,2.262891 -0.50932,1.175414 -1.07487,2.138495 -1.25677,2.14018 -0.41355,0.0038 -0.41339,0.0011 0.0638,-1.141092 0.24935,-0.596778 0.29803,-1.003829 0.13229,-1.10626 -0.14422,-0.08911 -0.26222,-0.342111 -0.26222,-0.5622 0,-0.220085 -0.17859,-0.578752 -0.39687,-0.797033 -0.31971,-0.319704 -0.39688,-0.326319 -0.39688,-0.03402 0,0.199573 0.12944,0.492295 0.28764,0.650494 0.20713,0.207129 0.19738,0.343422 -0.0348,0.48694 -0.18837,0.116419 -0.42349,0.01881 -0.56537,-0.23472 -0.13359,-0.238713 -0.52549,-0.434023 -0.8709,-0.434023 -0.3454,0 -0.96457,-0.272994 -1.37591,-0.606655 -0.41135,-0.333661 -1.08536,-0.819223 -1.49779,-1.079029 -0.67007,-0.422096 -0.70894,-0.519455 -0.36525,-0.914699 0.21154,-0.243279 0.32468,-0.609225 0.25142,-0.813214 -0.25818,-0.718886 1.60813,-0.05237 2.61998,0.935671 0.53544,0.522847 1.13323,0.89588 1.32842,0.828962 0.19519,-0.06692 0.68232,-0.02924 1.0825,0.08372 0.9186,0.259304 0.91991,0.08413 0.0165,-2.218393 -0.4487,-1.143649 -0.61242,-1.87825 -0.44373,-1.990926 0.39044,-0.260781 0.69853,-1.180897 0.31632,-0.944679 -0.21107,0.13045 -0.25145,-0.0061 -0.13287,-0.449279 0.0937,-0.350177 0.17198,-0.886359 0.17397,-1.191514 0.002,-0.305156 0.2382,-0.825314 0.52493,-1.155906 0.28672,-0.330593 0.58833,-0.795295 0.67025,-1.032672 0.18689,-0.541528 2.4423,-2.221009 2.55889,-1.905461 0.12241,0.331295 1.25059,0.468696 1.26234,0.15374 0.005,-0.143987 -0.19758,-0.26305 -0.45099,-0.264584 -0.28932,-0.0018 -0.4953,-0.248909 -0.55358,-0.664247 -0.0511,-0.363802 -0.21875,-0.739676 -0.37266,-0.835275 -0.31077,-0.193035 -1.17538,-3.17469 -1.42589,-4.917277 -0.18901,-1.314786 0.0211,-1.643144 1.62508,-2.539627 1.18677,-0.663295 1.86201,-0.583955 1.56726,0.184148 -0.14253,0.371426 -0.24257,0.39055 -0.58144,0.111138 -0.35953,-0.296451 -0.37198,-0.267434 -0.10234,0.238664 0.16882,0.31688 0.23245,0.770284 0.1414,1.007564 -0.29035,0.756625 1.29531,0.389909 1.69967,-0.393085 l 0.3416,-0.661458 -0.10647,0.727604 c -0.0586,0.400182 -0.004,0.727604 0.12142,0.727604 0.12534,0 0.22789,-0.174857 0.22789,-0.388571 0,-0.253719 0.1528,-0.329937 0.44028,-0.21962 0.29604,0.1136 0.37761,0.06754 0.24897,-0.140596 -0.10804,-0.174818 -0.0438,-0.309546 0.14768,-0.309546 0.21006,0 0.13381,-0.205193 -0.20047,-0.539471 -0.61225,-0.612253 -1.32399,-0.476578 -1.57026,0.29933 -0.21942,0.69133 -0.7106,0.639803 -0.60595,-0.06357 0.2927,-1.967446 3.65924,-0.59342 3.65468,1.491629 -0.002,0.847516 -0.84311,2.376953 -1.14266,2.077405 -0.0982,-0.09819 -0.17852,0.01018 -0.17852,0.240812 0,0.230633 -0.0723,0.607664 -0.1606,0.837847 -0.0883,0.230183 -0.0288,0.418515 0.1323,0.418515 0.16109,0 0.3067,-0.267891 0.32358,-0.595313 0.0238,-0.461265 0.0583,-0.489116 0.15335,-0.123687 0.0675,0.259394 -0.13075,0.901116 -0.44047,1.426049 -0.81934,1.388679 -0.53536,2.334877 0.96715,3.222509 1.93853,1.145216 2.47849,1.700893 2.73765,2.817316 0.28873,1.243783 0.38351,9.313506 0.11732,9.988021 -0.15477,0.392189 -0.0266,0.463619 0.83777,0.466921 0.56127,0.0021 1.26705,0.150974 1.5684,0.330729 2.34281,1.397484 3.2899,2.056746 4.32621,3.011434 1.18344,1.090224 1.19137,1.109308 1.26398,3.042709 0.0402,1.070081 0.007,1.803463 -0.073,1.629738 -0.0804,-0.173728 -0.32378,-0.247693 -0.54091,-0.16437 -0.21757,0.08349 -0.91227,-0.22012 -1.54752,-0.67632 -1.99713,-1.434235 -2.59109,-1.003168 -1.79426,1.302192 0.42672,1.23457 0.60424,1.4447 1.3932,1.64914 0.49729,0.12886 1.34805,0.19196 1.89058,0.14022 0.84842,-0.0809 1.02491,-7.9e-4 1.26169,0.57297 0.2086,0.50543 0.20338,0.56576 -0.0215,0.24904 -0.24632,-0.34689 -0.49429,-0.3728 -1.45789,-0.15229 l -1.16109,0.26569 0.14658,2.00438 c 0.35659,4.87613 0.37914,5.7256 0.13101,4.93486 -0.13352,-0.42553 -0.3676,-2.11508 -0.52017,-3.75455 -0.15257,-1.63948 -0.34865,-3.16656 -0.43574,-3.3935 -0.18863,-0.49157 -0.88715,-0.5541 -0.91496,-0.0819 -0.0107,0.1819 -0.22521,-0.50271 -0.47666,-1.52135 -0.5472,-2.216718 -1.84897,-4.743234 -3.28374,-6.373229 -1.1391,-1.294077 -1.55994,-1.394111 -0.83371,-0.198168 l 0.45577,0.75056 -0.67884,-0.79375 c -0.58588,-0.685065 -0.70312,-0.731637 -0.85621,-0.340119 -0.10697,0.273589 0.0398,0.758666 0.36991,1.222213 0.85404,1.199393 1.10962,2.073587 0.82505,2.822072 -0.20846,0.548278 -0.42668,0.661459 -1.27537,0.661459 -1.0832,0 -1.69547,-0.461479 -2.01846,-1.521354 -0.16026,-0.525884 -0.73903,-0.75864 -1.54761,-0.622382 -0.2648,0.04462 0.0604,-1.867932 0.37561,-2.20866 0.4062,-0.439155 0.2529,-0.605208 -0.43699,-0.473329 -0.36821,0.07039 -0.77199,0.321768 -0.89728,0.558623 -0.50793,0.960183 -1.13295,4.97537 -1.87921,12.072304 -0.15302,1.45521 -0.33156,3.00302 -0.39675,3.43959 -0.15365,1.02885 -1.16211,11.84294 -1.34472,14.41979 -0.0773,1.0914 -0.25181,2.85844 -0.3877,3.92674 -0.13589,1.06831 -0.18021,2.05057 -0.0985,2.18282 0.17869,0.28913 -0.38494,0.26619 -2.06544,-0.084 z m 19.87563,-31.843031 c 0.0539,-0.04796 0.0147,-0.642938 -0.0872,-1.322171 -0.21299,-1.420323 -0.76648,-2.033759 -2.83879,-3.146211 l -1.40538,-0.754438 1.65364,1.738937 c 1.28598,1.352309 1.64564,1.905799 1.61762,2.489441 -0.0278,0.5783 -0.0615,0.620472 -0.14695,0.183793 -0.0804,-0.410697 -0.25256,-0.52967 -0.62543,-0.432163 -0.65304,0.170776 -0.64551,0.296159 0.0631,1.050425 0.51108,0.544023 1.28012,0.627642 1.76938,0.192387 z m -2.75283,-1.351275 c 0.51426,-0.245234 0.93502,-0.518102 0.93502,-0.60637 0,-0.204234 -2.00881,-2.120196 -3.01225,-2.873017 -0.47547,-0.356722 -1.1489,-0.572651 -1.78593,-0.572651 -1.15365,0 -1.30671,0.327438 -0.42734,0.91418 0.32742,0.218469 1.18318,1.114182 1.90169,1.990476 0.71851,0.876292 1.33955,1.59326 1.38008,1.59326 0.0405,0 0.49447,-0.200646 1.00873,-0.445878 z m -6.25983,-4.250476 0.97714,-2.05052 -0.0169,-4.630209 c -0.0136,-3.713538 -0.10424,-4.830668 -0.45803,-5.642757 -0.56149,-1.288824 -1.19152,-1.216221 -1.8987,0.218799 -0.59452,1.206413 -0.63159,3.122628 -0.12921,6.679222 0.27304,1.933055 0.25339,2.339564 -0.17265,3.571874 -0.26442,0.764815 -0.63381,1.625423 -0.82087,1.912464 -0.52868,0.81127 -0.40566,1.334426 0.3875,1.647843 0.40019,0.158131 0.82368,0.300178 0.9411,0.315659 0.11742,0.01548 0.6532,-0.894588 1.19062,-2.022375 z m 3.68629,-0.438139 c 0.18533,-0.185335 -1.62593,-0.480491 -2.32304,-0.378555 -0.33509,0.049 -0.65057,0.214836 -0.70107,0.368527 -0.0896,0.272688 2.75202,0.28211 3.02411,0.01003 z m -5.97187,-2.070521 c -0.19634,-0.196339 -0.23078,-0.09304 -0.11569,0.347057 0.0936,0.357769 0.21349,0.477705 0.27955,0.279545 0.0636,-0.190881 -0.0101,-0.472852 -0.16386,-0.626602 z m -1.26714,-0.37366 c 0.82232,-0.392139 0.92719,-0.567841 1.06599,-1.785938 0.0847,-0.743057 0.14532,-2.444111 0.13479,-3.78012 -0.0158,-1.998831 0.087,-2.654962 0.58026,-3.704166 0.32967,-0.701283 0.60678,-1.353712 0.61578,-1.449843 0.009,-0.09613 -0.43608,-0.534343 -0.98907,-0.973805 -0.8834,-0.702039 -1.10017,-0.765997 -1.78593,-0.526938 -0.87701,0.305725 -0.99073,0.860772 -0.36066,1.760313 0.33261,0.474867 0.35336,0.6795 0.0999,0.984913 -0.17597,0.21203 -0.51798,0.385509 -0.76002,0.385509 -0.24204,0 -0.46389,0.208359 -0.49301,0.463021 -0.34928,3.054951 -0.33714,4.039778 0.0693,5.622395 0.24292,0.945886 0.50472,2.106745 0.58178,2.579688 0.077,0.472942 0.18257,0.859896 0.23447,0.859896 0.0519,0 0.50479,-0.195718 1.00642,-0.434925 z m 1.9043,-0.954138 c -0.23799,-1.489658 -0.68173,-1.925675 -0.68173,-0.669869 0,1.133406 0.2178,1.794348 0.59129,1.794348 0.16954,0 0.20321,-0.418602 0.0904,-1.124479 z m -9.94215,0.512778 c 0,-0.441838 -1.42319,-1.504965 -2.01467,-1.504965 -0.40451,0 -0.39907,0.05578 0.0554,0.567666 0.50133,0.564623 0.50084,0.565991 -0.0913,0.255275 -0.32742,-0.171817 -0.59531,-0.203663 -0.59531,-0.07077 0,0.416014 1.15782,1.071532 1.91823,1.086037 0.43106,0.0082 0.7276,-0.12759 0.7276,-0.333241 z m 3.81583,-7.45809 c 0.12612,-0.525863 0.1017,-0.704454 -0.0724,-0.529167 -0.1445,0.145521 -0.33369,0.740833 -0.42043,1.322917 -0.17127,1.149374 0.15144,0.629568 0.49278,-0.79375 z m -2.01485,-1.065335 c -0.0815,-0.08146 -0.2294,0.06538 -0.32876,0.32632 -0.14359,0.377083 -0.1132,0.407474 0.14811,0.148112 0.18082,-0.179476 0.26212,-0.39297 0.18065,-0.474432 z m 5.60735,-4.898907 c 0,-0.119794 -0.23812,-0.293385 -0.52916,-0.385758 -0.29104,-0.09237 -0.52917,-0.283179 -0.52917,-0.424014 0,-0.158883 0.19423,-0.152116 0.51177,0.01783 1.10811,0.593039 2.22416,0.117579 1.14354,-0.487168 -0.42809,-0.239573 -0.41855,-0.303745 0.13229,-0.890095 0.32651,-0.347551 0.59365,-0.927845 0.59365,-1.289544 0,-0.361699 0.13897,-0.796607 0.30883,-0.966461 0.47892,-0.478919 -0.40688,-0.700576 -1.40676,-0.352018 -0.46198,0.161047 -0.89436,0.238415 -0.96085,0.171928 -0.16089,-0.160888 -0.85164,0.540734 -0.85164,0.865043 0,0.140346 -0.20502,0.333849 -0.4556,0.430007 -0.25988,0.09972 -0.34513,0.253968 -0.19844,0.359037 0.31539,0.225909 0.41117,1.110246 0.12025,1.110246 -0.11573,0 -0.1692,0.208359 -0.11883,0.46302 0.37481,1.894904 0.31758,1.820198 1.30602,1.704803 0.51376,-0.05998 0.9341,-0.207064 0.9341,-0.326856 z m -0.35907,-3.367304 c -0.17414,-0.281766 0.87172,-1.224212 1.10247,-0.993459 0.19983,0.199828 -0.27426,0.996404 -0.67191,1.128953 -0.15817,0.05272 -0.35192,-0.0083 -0.43056,-0.135494 z m -2.39149,-1.577004 c -0.26895,-0.268953 -0.49087,0.135967 -0.2702,0.493019 0.1667,0.269721 0.22902,0.26993 0.31864,0.0011 0.0613,-0.183829 0.0395,-0.406168 -0.0484,-0.494087 z m 0.30317,-0.850476 c 0.68494,-0.571397 0.77474,-0.860927 0.19844,-0.639779 -0.21829,0.08376 -0.39688,0.02423 -0.39688,-0.132292 0,-0.156523 -0.17859,-0.216054 -0.39687,-0.132291 -0.21829,0.08376 -0.39688,0.265645 -0.39688,0.404186 0,0.138539 0.14883,0.167865 0.33073,0.06517 0.26458,-0.149378 0.26458,-0.115459 0,0.169594 -0.76011,0.818916 -0.24824,1.02431 0.66146,0.265414 z m 48.56418,58.987148 c 0,-0.80036 0.0496,-1.12778 0.11022,-0.7276 0.0606,0.40018 0.0606,1.05502 0,1.45521 -0.0606,0.40018 -0.11022,0.0728 -0.11022,-0.72761 z m 1.7728,0.41249 c 0,-0.81069 0.15079,-0.87618 0.34117,-0.14817 0.0761,0.2909 0.0304,0.59558 -0.10143,0.67707 -0.13186,0.0815 -0.23974,-0.15651 -0.23974,-0.5289 z m -50.90981,-1.07395 c 0.0923,-0.7276 0.27202,-1.73963 0.39932,-2.24896 0.17745,-0.71 0.20371,-0.50779 0.11257,0.86675 -0.0654,0.98603 -0.24507,1.99806 -0.39931,2.24896 -0.20939,0.34059 -0.23791,0.12098 -0.11258,-0.86675 z m 43.76606,0.20044 c 0,-0.2729 0.16571,-0.72279 0.36824,-0.99977 0.31767,-0.43444 0.42844,-0.45365 0.80652,-0.13987 0.67498,0.56018 0.41788,1.45256 -0.44716,1.55209 -0.56485,0.065 -0.7276,-0.0273 -0.7276,-0.41245 z m -38.97714,-0.62304 c -0.0798,-0.30519 -0.0417,-0.8112 0.0847,-1.12448 0.18513,-0.45892 0.23303,-0.3511 0.24654,0.5549 0.0183,1.22628 -0.10433,1.43715 -0.3312,0.56958 z m 1.16261,0.13597 c 0.0127,-0.30822 0.0754,-0.37092 0.15985,-0.15985 0.0764,0.19099 0.067,0.4192 -0.0209,0.50712 -0.0879,0.0879 -0.15045,-0.0683 -0.13896,-0.34727 z m 8.59508,-0.1878 c 0.0994,-0.26094 0.2473,-0.40778 0.32876,-0.32632 0.0815,0.0815 1.7e-4,0.29496 -0.18065,0.47443 -0.26131,0.25937 -0.2917,0.22898 -0.14811,-0.14811 z m 10.70666,-0.59713 c 0.007,-0.68424 0.0431,-0.72026 0.292,-0.292 0.20351,0.35011 0.20123,0.57125 -0.008,0.78052 -0.21295,0.21295 -0.28983,0.0807 -0.28396,-0.48852 z m 32.372731,0.29327 c -0.28183,-0.73444 0.0191,-1.33837 0.66693,-1.33837 0.8346,0 1.30738,0.7344 0.83737,1.30074 -0.43437,0.52338 -1.3095,0.54527 -1.5043,0.0376 z m -51.873121,-1.86754 c 10e-4,-1.01865 0.049,-1.40294 0.10627,-0.854 0.0573,0.54895 0.0563,1.38239 -0.002,1.85209 -0.0585,0.4697 -0.10532,0.0206 -0.10414,-0.99809 z m 1.64678,0.94839 c -0.0823,-0.13324 -0.13334,-0.96667 -0.11332,-1.85209 l 0.0364,-1.60984 h 1.38921 1.38921 l 0.30601,1.21526 c 0.1683,0.66839 0.23844,1.42811 0.15587,1.68828 -0.21269,0.67013 -2.81087,1.12875 -3.16337,0.55839 z m 21.39856,-0.40024 c -0.0992,-0.39546 -0.0669,-1.21635 0.0718,-1.82421 l 0.25224,-1.10519 0.21113,1.54129 c 0.1391,1.01539 0.11461,1.63783 -0.0718,1.82421 -0.20083,0.20083 -0.33528,0.0743 -0.46338,-0.4361 z m -13.87175,-0.0197 c 0,-0.17436 2.10637,-2.08806 2.43349,-2.21092 0.13903,-0.0522 0.096,0.15615 -0.0957,0.46303 -0.19165,0.30687 -0.44428,0.55795 -0.56141,0.55795 -0.11714,0 -0.51063,0.29766 -0.87443,0.66146 -0.64666,0.64666 -0.90199,0.79626 -0.90199,0.52848 z m 22.34746,-0.9915 c -0.40791,-0.61851 -0.53723,-0.95647 -0.28739,-0.7511 0.65873,0.54149 1.56666,1.87558 1.27644,1.87558 -0.13609,0 -0.58116,-0.50602 -0.98905,-1.12448 z m 12.09015,0.33073 c 0,-0.3638 0.0601,-0.51263 0.13346,-0.33073 0.0734,0.1819 0.0734,0.47956 0,0.66146 -0.0734,0.1819 -0.13346,0.0331 -0.13346,-0.33073 z m 5.027091,0 c 0,-0.3638 0.06,-0.51263 0.13345,-0.33073 0.0734,0.1819 0.0734,0.47956 0,0.66146 -0.0734,0.1819 -0.13345,0.0331 -0.13345,-0.33073 z m -1.84228,-0.66146 c 0.005,-0.43656 0.0647,-0.58313 0.13177,-0.32569 0.0671,0.25743 0.0627,0.61461 -0.01,0.79375 -0.0725,0.17913 -0.12736,-0.0315 -0.12197,-0.46806 z m -1.322921,-0.26458 c 0.005,-0.43657 0.0647,-0.58313 0.13177,-0.3257 0.0671,0.25743 0.0627,0.61462 -0.01,0.79375 -0.0725,0.17913 -0.12736,-0.0315 -0.12197,-0.46805 z m -31.75,-0.26459 c 0.005,-0.43656 0.0647,-0.58312 0.13177,-0.32569 0.0671,0.25743 0.0627,0.61462 -0.01,0.79375 -0.0725,0.17913 -0.12736,-0.0315 -0.12197,-0.46806 z m 27.87897,0.31932 c 0.0994,-0.26094 0.24731,-0.40778 0.32877,-0.32632 0.0815,0.0815 1.7e-4,0.29496 -0.18065,0.47443 -0.26131,0.25937 -0.2917,0.22898 -0.14812,-0.14811 z m -32.65127,-0.71619 c 0,-0.3638 0.06,-0.51263 0.13345,-0.33073 0.0734,0.1819 0.0734,0.47956 0,0.66146 -0.0734,0.1819 -0.13345,0.0331 -0.13345,-0.33073 z m -20.91485,-1.38801 c -0.18187,-0.83617 -0.27902,-1.78867 -0.21588,-2.11667 0.0874,-0.45423 0.12339,-0.40084 0.15084,0.22405 0.0198,0.45123 0.16486,1.18998 0.32232,1.64167 0.15746,0.45169 0.23839,1.035 0.17984,1.29625 -0.0585,0.26125 -0.25525,-0.20914 -0.43712,-1.0453 z m 31.72099,0.99113 c 0,-0.21828 0.11906,-0.39687 0.26458,-0.39687 0.14552,0 0.26458,0.17859 0.26458,0.39687 0,0.21828 -0.11906,0.39688 -0.26458,0.39688 -0.14552,0 -0.26458,-0.1786 -0.26458,-0.39688 z m -12.91301,-0.52916 c 0.005,-0.43657 0.0647,-0.58313 0.13178,-0.3257 0.0671,0.25743 0.0627,0.61462 -0.01,0.79375 -0.0725,0.17913 -0.12736,-0.0315 -0.12197,-0.46805 z m 5.24009,0.26458 c 0.18116,-0.21828 0.44844,-0.39687 0.59396,-0.39687 0.14759,0 0.11894,0.17548 -0.0648,0.39687 -0.18116,0.21828 -0.44844,0.39687 -0.59396,0.39687 -0.1476,0 -0.11894,-0.17548 0.0648,-0.39687 z m 14.27933,-1.07156 c -0.005,-0.72033 -0.12387,-2.20142 -0.26529,-3.29131 -0.14141,-1.08989 -0.16937,-2.57817 -0.0621,-3.30729 l 0.19499,-1.32567 0.20997,1.71979 c 0.41367,3.38828 0.52174,6.92305 0.22085,7.22394 -0.21058,0.21058 -0.29247,-0.0692 -0.2984,-1.01946 z m 15.9441,0.67469 c 0.89062,-2.80428 1.60296,-4.77431 1.69358,-4.68369 0.0618,0.0618 -0.013,0.4422 -0.16628,0.84531 -0.15326,0.4031 -0.39864,1.26829 -0.54528,1.92263 -0.14663,0.65433 -0.45594,1.44235 -0.68734,1.75116 -0.23139,0.3088 -0.364,0.38287 -0.29468,0.16459 z m 6.066261,-0.26459 c 0,-0.3638 0.0601,-0.51263 0.13346,-0.33073 0.0734,0.1819 0.0734,0.47956 0,0.66146 -0.0734,0.1819 -0.13346,0.0331 -0.13346,-0.33073 z m -2.876521,-0.92604 c 0.002,-0.7276 0.0534,-0.99386 0.11419,-0.59167 0.0608,0.40218 0.0592,0.99749 -0.004,1.32291 -0.0628,0.32542 -0.11256,-0.004 -0.11057,-0.73124 z m -4.75427,-0.0172 c -0.2549,-0.54938 -0.24263,-0.7015 0.0661,-0.82 0.58914,-0.22607 1.17287,0.10653 1.17287,0.66828 0,0.39408 -0.48185,0.84683 -0.88154,0.8283 -0.0245,-10e-4 -0.18534,-0.3056 -0.35748,-0.67658 z m -24.0354,-2.0337 c 0.0498,-1.98216 0.20998,-2.59654 0.58037,-2.22615 0.0972,0.0972 0.0397,0.4445 -0.12783,0.7717 -0.16754,0.3272 -0.34949,1.24976 -0.40434,2.05012 -0.0549,0.80037 -0.0765,0.53231 -0.0482,-0.59567 z m 34.165491,1.57456 c -0.41361,-0.30244 -0.44138,-0.45279 -0.17542,-0.94974 0.48326,-0.90298 1.47081,-0.65851 1.47081,0.3641 0,0.90043 -0.53446,1.14205 -1.29539,0.58564 z m -49.641731,-0.72332 c -0.15841,-0.296 -0.25189,-1.09967 -0.20774,-1.78594 l 0.0803,-1.24776 1.29732,-0.0823 c 1.47517,-0.0936 1.6194,0.0396 1.87289,1.73009 0.22578,1.50558 -0.12349,1.92408 -1.6058,1.92408 -0.88453,0 -1.21519,-0.12384 -1.43694,-0.53817 z m 5.33827,0.009 c 0,-0.36381 0.06,-0.51264 0.13345,-0.33073 0.0734,0.1819 0.0734,0.47955 0,0.66145 -0.0734,0.18191 -0.13345,0.0331 -0.13345,-0.33072 z m 40.246951,-1.32292 c 0,-0.65485 0.0516,-0.92274 0.11466,-0.59531 0.0631,0.32742 0.0631,0.8632 0,1.19062 -0.0631,0.32742 -0.11466,0.0595 -0.11466,-0.59531 z m 1.31758,0.13229 c 0.003,-0.58208 0.0571,-0.78905 0.1204,-0.45994 0.0633,0.32912 0.0609,0.80537 -0.005,1.05834 -0.0662,0.25296 -0.11801,-0.0163 -0.11507,-0.5984 z m -13.821011,-0.17013 c -0.002,-0.38461 0.17454,-0.76783 0.39283,-0.85159 0.21828,-0.0838 0.39687,-0.037 0.39687,0.10398 0,0.48422 0.67472,0.25505 1.72566,-0.58612 l 1.05247,-0.84239 -0.75869,0.82317 c -0.41728,0.45275 -1.13165,0.97389 -1.5875,1.15811 -0.45585,0.18421 -0.91629,0.46075 -1.0232,0.61453 -0.10691,0.15378 -0.19621,-0.0351 -0.19844,-0.41969 z m 10.00222,-0.59238 c -0.1208,-0.97792 -0.0348,-1.55636 0.35406,-2.38125 l 0.51362,-1.08957 -0.18409,0.92604 c -0.10125,0.50932 -0.26058,1.58088 -0.35407,2.38125 l -0.16997,1.45521 z m 1.15781,0.49793 c 0.005,-0.43657 0.0647,-0.58313 0.13177,-0.3257 0.0671,0.25743 0.0627,0.61462 -0.01,0.79375 -0.0725,0.17913 -0.12736,-0.0315 -0.12197,-0.46805 z m -35.63271,-0.85046 c -0.19345,-1.29002 -0.7156,-2.31983 -1.02125,-2.01418 -0.0961,0.0961 -0.17544,0.006 -0.17633,-0.20012 -9e-4,-0.20615 -0.1721,-0.70161 -0.38045,-1.10102 -0.39205,-0.75154 -0.84383,-3.11026 -0.59573,-3.11026 0.0773,0 0.45484,0.94356 0.8389,2.09681 0.9103,2.73337 1.33493,3.11165 1.58902,1.41555 0.17289,-1.15405 0.46877,-1.64544 0.99728,-1.65623 0.39673,-0.008 0.18548,0.84826 -0.31488,1.27646 -0.58116,0.49734 -0.83595,1.92719 -0.37129,2.08365 0.16831,0.0567 0.75907,-0.43895 1.3128,-1.10139 0.55373,-0.66244 1.11521,-1.20444 1.24774,-1.20444 0.13252,0 0.0927,0.1786 -0.0884,0.39688 -0.36453,0.43923 -0.0785,0.52213 0.51215,0.1484 0.32275,-0.20422 0.32531,-0.3061 0.017,-0.67757 -0.21378,-0.25758 -0.26097,-0.51045 -0.11486,-0.61548 0.1364,-0.0981 0.4264,-0.53546 0.64444,-0.97202 0.21806,-0.43656 0.66435,-1.01075 0.99177,-1.27597 0.32742,-0.26523 0.59531,-0.59265 0.59531,-0.72761 0,-0.40789 1.0593,-1.33434 1.33257,-1.16546 0.23434,0.14483 0.37154,-0.22464 0.27971,-0.75323 -0.0208,-0.11996 0.0841,-0.1427 0.23325,-0.0505 0.39108,0.2417 0.34053,0.51765 -0.29083,1.58772 -0.58406,0.98992 -1.02739,1.12835 -0.50849,0.15878 0.55647,-1.03977 0.001,-0.55257 -0.78745,0.6906 -0.82362,1.29871 -0.99438,1.82682 -0.48988,1.51502 0.3725,-0.23022 0.1398,0.16687 -1.06288,1.81371 -0.68938,0.94399 -0.99572,1.17606 -1.32291,1.00221 -0.30627,-0.16273 -0.55588,-0.0528 -0.88921,0.39163 -0.28453,0.37937 -0.36085,0.68126 -0.19772,0.78208 0.17483,0.10805 0.16338,0.35537 -0.0335,0.72322 -0.2997,0.56 -1.4298,1.79012 -1.64457,1.79012 -0.0628,0 -0.19845,-0.5613 -0.30132,-1.24733 z m 1.32389,-0.44096 c 0.4523,-0.4523 0.26278,-0.67919 -0.4185,-0.50103 -0.5285,0.13821 -0.64699,0.38048 -0.33745,0.69002 0.24836,0.24836 0.342,0.22495 0.75595,-0.18899 z m 3.39421,-4.46035 c -0.27496,-0.4449 -0.62239,-0.15983 -0.62239,0.51067 0,0.67787 0.0179,0.68753 0.37342,0.20136 0.20537,-0.28088 0.31741,-0.60129 0.24897,-0.71203 z m 34.715771,4.63939 c -0.099,-0.8434 -0.24523,-1.75673 -0.32493,-2.02961 -0.0881,-0.30155 -0.0382,-0.43018 0.12725,-0.32795 0.28494,0.17611 0.73993,3.52876 0.51009,3.75861 -0.0728,0.0728 -0.21341,-0.55765 -0.31241,-1.40105 z m -18.920831,-0.74915 c -0.48192,-1.0966 -0.81074,-2.0593 -0.73071,-2.13933 0.18113,-0.18113 0.47765,0.37049 1.33285,2.4795 0.94918,2.34081 0.45283,2.06039 -0.60214,-0.34017 z m -30.91783,1.06778 c 0.005,-0.43657 0.0647,-0.58313 0.13177,-0.3257 0.0671,0.25743 0.0627,0.61462 -0.01,0.79375 -0.0725,0.17913 -0.12736,-0.0315 -0.12197,-0.46805 z m 33.88431,-0.6987 c -1.299,-2.14266 -3.66977,-8.34466 -3.44575,-9.01417 0.0628,-0.18771 0.32743,0.31354 0.58805,1.11391 0.69306,2.12843 1.6831,4.23333 1.99114,4.23333 0.14749,0 0.26817,0.16405 0.26817,0.36457 0,0.20051 0.18872,0.81623 0.41938,1.36826 0.28566,0.68371 0.48573,0.89635 0.62749,0.66697 0.27383,-0.44307 0.55078,1.30407 0.28474,1.7963 -0.14109,0.26105 -0.3421,0.11599 -0.73322,-0.52917 z m -26.88343,0.16953 c -0.11437,-0.29104 -0.25454,-1.5412 -0.31149,-2.77812 l -0.10355,-2.24896 0.37987,2.38125 c 0.39759,2.4924 0.41239,3.60575 0.0352,2.64583 z m 13.46325,-2.23187 c 0.009,-1.44581 -0.0793,-2.56988 -0.19571,-2.49792 -0.11642,0.0719 -0.21167,-0.11434 -0.21167,-0.41397 0,-0.29963 0.11078,-0.54478 0.24619,-0.54478 0.1354,0 0.28422,-0.25857 0.33072,-0.57459 0.0465,-0.31602 0.20938,-0.6156 0.36195,-0.66573 0.18048,-0.0593 0.24801,0.5343 0.19329,1.69907 -0.15846,3.37304 -0.38361,5.62667 -0.56213,5.62667 -0.0982,0 -0.17141,-1.18294 -0.16264,-2.62875 z m 27.808441,1.00243 c -0.0935,-0.89447 -0.16998,-2.56837 -0.16998,-3.71978 0,-2.45485 -0.41381,-2.58814 -0.50138,-0.16149 -0.0726,2.01275 -0.29237,2.4236 -0.29237,0.54665 0,-0.73973 -0.11086,-1.38465 -0.246361,-1.43316 -0.1355,-0.0485 -0.015,-0.74264 0.267851,-1.54252 0.28281,-0.79988 0.46606,-1.57978 0.40722,-1.73312 -0.0588,-0.15334 0.0545,-0.57046 0.25194,-0.92693 0.19741,-0.35647 0.37684,-1.12438 0.39873,-1.70646 l 0.0398,-1.05833 0.21891,1.05833 c 0.32261,1.55966 0.30833,3.80558 -0.021,3.30729 -0.17515,-0.265 -0.20416,1.16367 -0.0873,4.29948 0.17534,4.70484 0.0527,6.11974 -0.26603,3.07004 z m 7.29973,-0.0715 c -0.17928,-0.86101 -0.31401,-1.87304 -0.2994,-2.24896 0.0146,-0.37591 0.19663,0.0904 0.40449,1.03632 0.20785,0.94588 0.34257,1.95792 0.29938,2.24896 -0.0432,0.29104 -0.2252,-0.1753 -0.40447,-1.03632 z m -32.075961,-0.83523 c 0,-2.73367 -0.26952,-9.16718 -0.39237,-9.36595 -0.0763,-0.12337 0.0293,-1.02559 0.23461,-2.00492 0.20529,-0.97934 0.33067,-2.21043 0.27862,-2.73576 -0.0634,-0.63966 -0.0268,-0.78676 0.11057,-0.44533 0.20261,0.50337 0.20777,0.50337 0.40824,0 0.11166,-0.28041 0.24392,-1.21063 0.29391,-2.067156 0.11339,-1.943306 0.48556,-2.400323 0.90925,-1.116546 0.17184,0.520692 0.39305,0.995873 0.49158,1.055957 0.30309,0.184838 0.31742,-1.779265 0.0184,-2.527118 -0.2218,-0.554778 -0.18404,-0.911963 0.17676,-1.672304 0.26633,-0.561255 0.53438,-0.844558 0.63897,-0.675333 0.11798,0.190897 0.39793,0.21096 0.81107,0.05813 0.62394,-0.23081 2.35524,0.346847 4.30096,1.435036 0.72636,0.406231 0.76292,0.392806 1.98438,-0.728649 3.39732,-3.119194 4.40683,-5.006525 4.10141,-7.667819 -0.0825,-0.718794 -0.0137,-1.429583 0.16634,-1.719792 0.25571,-0.412089 0.27776,-0.343527 0.13211,0.410797 -0.20729,1.073578 1.14018,5.559474 1.67317,5.570198 0.48309,0.0097 0.40452,-0.984089 -0.10013,-1.266505 -0.29457,-0.164852 -0.33641,-0.299479 -0.13229,-0.425635 0.49417,-0.305414 0.36461,-1.475009 -0.16446,-1.484623 -0.44097,-0.008 -0.44097,-0.02515 0,-0.359898 0.56756,-0.430837 0.60335,-1.181947 0.0661,-1.388091 -0.49845,-0.191274 -0.51987,-0.624847 -0.0309,-0.624847 0.42581,0 0.8037,-1.147906 0.42098,-1.278819 -0.40159,-0.13737 -0.30295,-0.573264 0.12974,-0.573264 0.21316,0 0.515,-0.238125 0.67076,-0.529167 0.19201,-0.358772 0.19501,-0.529166 0.009,-0.529166 -0.15065,0 -0.2739,-0.171194 -0.2739,-0.380432 0,-0.218871 0.22749,-0.363295 0.53568,-0.34008 0.3736,0.02814 0.48344,0.163264 0.36304,0.446578 -1.13197,2.663529 -1.21108,3.062397 -1.05134,5.301017 0.48432,6.787293 0.48426,6.822826 -0.0134,8.395689 -0.26558,0.839401 -0.5242,1.317826 -0.57471,1.063165 -0.0505,-0.254662 -0.23194,-0.465669 -0.40317,-0.468905 -0.17123,-0.0032 -0.0137,-0.240483 0.35013,-0.52722 0.5627,-0.443497 0.6022,-0.561853 0.26459,-0.792707 -0.34652,-0.23694 -0.33813,-0.305996 0.0661,-0.544261 0.51822,-0.305419 0.62574,-1.206593 0.16239,-1.361041 -0.2144,-0.07147 -0.19733,-0.265612 0.0595,-0.676902 0.29064,-0.465386 0.29547,-0.641376 0.025,-0.911815 -0.27044,-0.270438 -0.38328,-0.258947 -0.58463,0.05954 -0.21556,0.340953 -0.25007,0.335785 -0.25357,-0.03798 -0.007,-0.709202 -0.86012,-3.139236 -1.10257,-3.139236 -0.12341,0 -0.22483,0.267891 -0.22538,0.595313 -0.001,0.826455 -0.71676,1.91344 -2.48139,3.770312 -0.82975,0.873125 -1.75195,1.844157 -2.04934,2.157849 -0.46731,0.492929 -0.49543,0.654548 -0.20716,1.190625 0.18345,0.341151 0.37161,1.308396 0.41815,2.149433 0.0465,0.841032 0.30687,1.972132 0.57852,2.513542 0.42721,0.85146 0.48487,1.52034 0.42696,4.95314 -0.0368,2.18281 -0.18037,4.32593 -0.31899,4.7625 -0.17797,0.56047 -0.14752,1.09512 0.1036,1.8192 0.1956,0.564 0.3552,1.27837 0.35465,1.5875 -0.002,1.40391 -1.17974,-1.517 -2.0104,-4.98797 -0.48837,-2.04072 -1.00385,-4.06759 -1.14551,-4.50415 -0.32772,-1.00996 -0.61901,-3.46723 -0.38304,-3.23127 0.25445,0.25446 1.13976,2.88138 1.15005,3.41248 0.005,0.24519 0.14037,0.78097 0.30138,1.19063 0.161,0.40966 0.33134,1.16155 0.37853,1.67087 0.11079,1.19566 0.87124,3.28238 0.89759,2.46301 0.0102,-0.31883 0.1377,-0.65328 0.28322,-0.74322 0.39394,-0.24346 0.31686,-1.7456 -0.13392,-2.60993 -0.21738,-0.41682 -0.39524,-1.03414 -0.39524,-1.37184 0,-0.33769 -0.11736,-0.92268 -0.26081,-1.29996 -0.23814,-0.62635 -0.21665,-0.66234 0.24719,-0.4141 0.2794,0.14953 0.56991,0.27187 0.64557,0.27187 0.35619,0 -0.18406,-2.02224 -0.90308,-3.38038 -0.44097,-0.83293 -0.73993,-1.27488 -0.66436,-0.98211 0.0756,0.29276 0.18393,0.93195 0.2408,1.4204 0.0569,0.48845 0.23643,0.97031 0.39903,1.0708 0.20947,0.12947 0.18242,0.33236 -0.0928,0.69627 -0.36887,0.48768 -0.38887,0.48895 -0.39686,0.0252 -0.005,-0.26858 -0.17644,-0.80437 -0.3818,-1.19062 -0.20536,-0.38626 -0.52558,-1.10884 -0.7116,-1.60574 l -0.33822,-0.90346 -0.30606,0.90346 c -0.25693,0.75845 -0.32987,0.81852 -0.45443,0.37429 -0.38889,-1.38699 -0.54408,-2.143086 -0.49822,-2.427445 0.0276,-0.170928 -0.0721,-0.386315 -0.22148,-0.478636 -0.49362,-0.305065 -0.28239,-0.66579 0.38986,-0.66579 0.3638,0 0.66145,0.119063 0.66145,0.264584 0,0.145521 -0.14882,0.266406 -0.33073,0.268634 -0.22469,0.0028 -0.20633,0.08273 0.0573,0.249449 0.24855,0.157202 0.51662,0.13865 0.74588,-0.05162 0.27773,-0.230499 0.50486,-0.123417 1.01418,0.478155 0.64297,0.759431 0.65262,0.761741 0.47523,0.113713 -0.0996,-0.363802 -0.31052,-0.74435 -0.46873,-0.845664 -0.18444,-0.118113 -0.12473,-0.246721 0.16643,-0.358452 0.6207,-0.238183 0.41011,-0.484672 -1.20211,-1.406977 -1.83839,-1.051701 -3.03301,-1.513743 -2.61663,-1.012032 0.16546,0.199366 0.7785,0.505593 1.36231,0.680509 1.27406,0.381714 1.35506,0.701087 0.23465,0.925168 -1.16418,0.232839 -1.29103,0.211744 -1.1372,-0.189121 0.0748,-0.194967 -0.0507,-0.509463 -0.27895,-0.698881 -0.35174,-0.291918 -0.38958,-0.27822 -0.24831,0.0899 0.19178,0.499785 -0.17043,0.577168 -0.61599,0.131602 -0.22721,-0.227206 -0.2657,-0.161222 -0.15435,0.264583 0.18194,0.695753 -0.34447,0.763923 -0.56376,0.07301 -0.20451,-0.644376 -1.10848,-1.458108 -1.29126,-1.162364 -0.13897,0.224861 0.21023,2.192173 0.52887,2.979554 0.0883,0.218282 0.20306,0.813594 0.25495,1.322917 0.0519,0.509324 0.1597,1.283224 0.2396,1.719794 0.0799,0.43656 0.2158,1.67367 0.30201,2.74914 0.11882,1.48206 0.0801,1.90801 -0.15987,1.7597 -0.17414,-0.10763 -0.29114,-0.51131 -0.25999,-0.89706 0.0311,-0.38575 -0.0105,-0.99902 -0.0925,-1.36282 -0.082,-0.3638 -0.29067,-1.36294 -0.46368,-2.2203 -0.21819,-1.0812 -0.38602,-1.44602 -0.54774,-1.19063 -0.33796,0.5337 -0.28623,1.91215 0.16773,4.46926 0.68992,3.88628 0.95567,7.17151 0.61347,7.58383 -0.16727,0.20156 -0.22763,0.44296 -0.13413,0.53645 0.0935,0.0935 0.17181,0.001 0.17404,-0.20483 0.003,-0.30862 0.0494,-0.30473 0.26053,0.022 0.14107,0.21829 0.25469,0.75407 0.25249,1.19063 -0.004,0.72701 -0.0292,0.74925 -0.30407,0.26458 -0.16504,-0.29104 -0.40064,-0.5964 -0.52357,-0.67859 -0.12292,-0.0822 -0.27162,-1.09421 -0.33043,-2.24895 -0.0588,-1.15475 -0.23048,-2.71015 -0.38148,-3.45645 -0.151,-0.74629 -0.33867,-2.17504 -0.41706,-3.175 -0.0784,-0.99995 -0.24813,-2.17528 -0.37721,-2.61184 -0.20913,-0.70727 -0.25537,-0.7361 -0.4244,-0.26458 -0.10434,0.29104 -0.31735,0.8694 -0.47338,1.28524 -0.1708,0.45524 -0.29253,3.31516 -0.30592,7.18788 -0.0122,3.53749 -0.11156,6.52109 -0.2207,6.63021 -0.10914,0.10912 -0.19843,-0.26676 -0.19843,-0.83529 z m 7.9375,-16.781578 c 0,-0.14552 -0.11907,-0.264583 -0.26459,-0.264583 -0.14552,0 -0.26458,0.119063 -0.26458,0.264583 0,0.145521 0.11906,0.264584 0.26458,0.264584 0.14552,0 0.26459,-0.119063 0.26459,-0.264584 z m -13.22329,17.040488 c 0.003,-0.1317 0.23872,-0.5371 0.52329,-0.9009 0.37665,-0.48153 0.519,-0.54666 0.52328,-0.23945 0.003,0.23211 -0.23224,0.63751 -0.52328,0.9009 -0.29104,0.26339 -0.52652,0.37114 -0.52329,0.23945 z m 21.41748,-0.62159 c 0.15143,-0.28293 0.40609,-0.59525 0.56592,-0.69403 0.15984,-0.0988 0.086,0.13271 -0.16414,0.51443 -0.52959,0.80827 -0.80384,0.93086 -0.40178,0.1796 z m -37.80458,0.005 c -0.23977,-0.15157 -0.39771,-0.80318 -0.44022,-1.81624 l -0.0663,-1.57986 1.36627,-0.13285 c 1.5478,-0.15051 1.64233,-0.0704 1.89344,1.60409 0.12524,0.83517 0.0739,1.27916 -0.17496,1.51293 -0.47283,0.44416 -2.11275,0.70618 -2.57823,0.41193 z m 25.56497,-0.28405 c -0.0761,-0.29105 -0.0305,-0.52917 0.10144,-0.52917 0.13189,0 0.23981,0.23812 0.23981,0.52917 0,0.29104 -0.0456,0.52916 -0.10143,0.52916 -0.0558,0 -0.16371,-0.23812 -0.23982,-0.52916 z m 23.104831,0.14363 c -0.42489,-0.51196 0.0541,-1.20197 0.83431,-1.20197 0.40468,0 0.49649,0.15465 0.43062,0.72534 -0.0959,0.83091 -0.76246,1.08207 -1.26493,0.47663 z m -1.15107,-0.46204 c -0.23148,-0.95762 -0.53111,-4.5914 -0.36613,-4.44018 0.20385,0.18685 0.79947,4.76134 0.64063,4.92019 -0.0702,0.0702 -0.19372,-0.14581 -0.2745,-0.48001 z m -3.182841,-0.14979 c -0.22311,-0.35511 0.23758,-2.07337 0.61912,-2.30918 0.12362,-0.0764 0.12358,0.24936 -8e-5,0.72392 -0.12366,0.47456 -0.26605,1.10096 -0.31642,1.392 -0.0659,0.3806 -0.15083,0.43486 -0.30262,0.19326 z m -26.63175,-0.85472 c 0,-0.14552 0.11906,-0.26458 0.26458,-0.26458 0.14552,0 0.26458,0.11906 0.26458,0.26458 0,0.14552 -0.11906,0.26458 -0.26458,0.26458 -0.14552,0 -0.26458,-0.11906 -0.26458,-0.26458 z m -6.69324,-0.53676 c -0.0772,-0.29522 -0.29662,-0.50358 -0.48759,-0.46302 -0.19098,0.0405 -0.38811,-0.19415 -0.43806,-0.52158 -0.05,-0.32742 -0.17771,-0.59531 -0.28389,-0.59531 -0.10618,0 -0.14444,-0.41641 -0.085,-0.92536 l 0.10803,-0.92536 0.47082,0.92348 c 0.80774,1.58432 1.32928,3.04391 1.08766,3.04391 -0.12737,0 -0.29474,-0.24154 -0.37195,-0.53676 z m 0.59293,-1.31532 c -0.0161,-0.0728 -0.0613,-0.37042 -0.10056,-0.66146 -0.0392,-0.29104 -0.22528,-1.06495 -0.4134,-1.71979 -0.49404,-1.71969 -0.74766,-6.57608 -0.35136,-6.72799 0.21941,-0.0841 0.16123,-0.41161 -0.19844,-1.11707 -0.67828,-1.33041 -0.65559,-2.609516 0.0593,-3.344652 0.52617,-0.541042 0.55315,-0.545116 0.36484,-0.05508 -0.11185,0.291042 -0.25973,1.064948 -0.32864,1.719792 -0.11163,1.06091 -0.0188,1.32951 0.85176,2.46552 0.99478,1.29807 1.11321,2.099 0.13979,0.94539 -0.48102,-0.57005 -0.4664,-0.44937 0.1475,1.21717 0.3748,1.01747 0.80341,1.92532 0.95246,2.01744 0.17881,0.11051 0.16707,0.23174 -0.0345,0.35631 -0.5702,0.3524 -1.02059,-0.0824 -1.20285,-1.16119 -0.19984,-1.1828 -0.6716,-1.73381 -0.65329,-0.76303 0.0205,1.08906 0.9719,5.00265 1.29545,5.32908 0.24192,0.24408 3.71326,-3.72933 3.71746,-4.25513 0.002,-0.1819 0.098,-0.33073 0.21448,-0.33073 0.34554,0 1.77255,-2.42902 1.77255,-3.0172 0,-0.35673 0.18099,-0.55145 0.52917,-0.56931 0.29104,-0.0149 0.71547,-0.0475 0.94318,-0.0724 0.53944,-0.059 1.36963,-1.80849 1.16465,-2.45434 -0.1796,-0.565875 0.14013,-0.661078 0.61737,-0.18383 0.22945,0.22945 0.3175,0.23361 0.3175,0.015 0,-0.166373 -0.25992,-0.484553 -0.5776,-0.707065 -0.54592,-0.382376 -0.63444,-0.346588 -1.61358,0.652277 -0.62885,0.641528 -0.97664,1.211448 -0.88499,1.450278 0.0872,0.22729 -0.0693,0.53102 -0.3708,0.71927 -0.28698,0.17923 -0.52178,0.51459 -0.52178,0.74526 0,0.43099 -1.04986,1.56998 -1.44712,1.56998 -0.12231,0 -0.0181,-0.22578 0.23166,-0.50173 0.33522,-0.37041 0.36689,-0.53078 0.12103,-0.61274 -0.54893,-0.18298 0.25941,-1.7857 1.5063,-2.98657 0.60438,-0.582087 1.23521,-1.318402 1.40184,-1.636256 0.38839,-0.740873 0.38786,-1.447991 -5.3e-4,-0.779399 -0.23034,0.396462 -0.33169,0.423188 -0.5101,0.134503 -0.18734,-0.303122 -0.27686,-0.302 -0.5644,0.0071 -0.25539,0.274502 -0.25817,0.320146 -0.011,0.180612 0.18225,-0.102893 0.33073,-0.04822 0.33073,0.121783 0,0.197858 -0.16607,0.23278 -0.46302,0.09737 -0.25466,-0.116123 -0.91996,-0.190344 -1.47845,-0.164933 -1.09233,0.0497 -1.92911,-0.508003 -1.6018,-1.067578 0.10706,-0.183018 -0.0516,-0.11712 -0.35256,0.146436 -0.4215,0.369113 -0.5791,0.399503 -0.68605,0.132292 -0.0996,-0.248777 -0.14476,-0.255222 -0.15973,-0.02278 -0.014,0.217146 -0.28286,0.271722 -0.81464,0.165365 -0.77932,-0.155864 -0.79375,-0.138906 -0.79375,0.932656 0,0.750634 0.1138,1.091406 0.36448,1.091406 0.20046,0 0.50249,0.166302 0.67118,0.369563 0.16869,0.20326 0.54046,0.30843 0.82615,0.23372 0.28569,-0.0747 0.51944,-0.0222 0.51944,0.11674 0,0.13891 -0.41672,0.26824 -0.92604,0.28738 -0.53541,0.0201 -0.92605,-0.092 -0.92605,-0.26581 0,-0.16534 -0.0623,-0.23829 -0.13852,-0.1621 -0.2712,0.27121 0.21318,1.03598 0.56954,0.89923 0.20578,-0.079 0.36273,0.0289 0.36273,0.24937 0,0.72526 -1.23071,0.45711 -1.556,-0.33903 -0.36411,-0.89116 -0.46496,-3.137326 -0.18116,-4.034896 0.14126,-0.446773 0.12195,-0.575585 -0.0595,-0.396875 -0.14775,0.145521 -0.31159,0.502708 -0.36409,0.79375 -0.0576,0.319524 -0.30366,0.529167 -0.621,0.529167 -0.89448,0 -0.55795,-1.166908 1.17195,-4.063693 1.52107,-2.547096 1.6098,-2.788928 1.6098,-4.387289 0,-1.103718 -0.1839,-2.120633 -0.52916,-2.926101 -0.7066,-1.648419 -0.66914,-2.394129 0.23306,-4.639677 0.8504,-2.116624 1.22436,-2.563676 2.93663,-3.51064 1.49745,-0.828158 1.89395,-1.412326 1.27248,-1.874762 -0.79901,-0.594543 -1.07334,-1.74179 -0.71908,-3.007097 0.27816,-0.9935 0.25953,-1.198325 -0.15016,-1.651032 -0.25725,-0.284253 -0.69014,-0.587419 -0.96199,-0.6737 -0.75849,-0.240736 -0.58782,-0.901179 0.33293,-1.288324 0.54206,-0.227923 0.71726,-0.415759 0.50826,-0.544929 -0.46719,-0.288739 -0.0741,-2.790941 0.54426,-3.464391 0.27578,-0.300424 0.50146,-0.721237 0.50146,-0.935144 0,-0.52526 1.41277,-1.327189 2.38692,-1.354886 0.81836,-0.02327 1.7321,0.60404 1.96954,1.352153 0.0751,0.236771 0.40561,0.548491 0.73436,0.69271 0.45006,0.197436 0.61894,0.522849 0.68359,1.317195 0.0472,0.580238 0.18853,1.178694 0.31402,1.329902 0.35601,0.428959 0.38272,4.935061 0.0337,5.684911 -0.16933,0.363802 -0.54448,1.052665 -0.83366,1.530807 -0.49105,0.811934 -0.49751,0.912497 -0.0977,1.522679 0.33605,0.512872 0.36029,0.735014 0.11275,1.033282 -0.2574,0.31014 -0.12946,0.50267 0.6963,1.047847 0.55641,0.367342 1.35566,0.957616 1.77613,1.311721 l 0.7645,0.643828 0.0179,5.395873 c 0.013,3.920672 -0.0782,5.627949 -0.33368,6.24474 -0.28376,0.685059 -0.28712,0.926576 -0.0174,1.251561 0.27633,0.332949 0.26519,0.376206 -0.0643,0.249756 -0.32607,-0.125121 -0.39302,-0.715613 -0.36815,-3.247202 0.0167,-1.701847 -0.0754,-3.113864 -0.20462,-3.137815 -0.42898,-0.07949 -0.67117,-0.73724 -0.50915,-1.38278 0.11069,-0.441006 0.0666,-0.579329 -0.1433,-0.449604 -0.43924,0.271465 -0.37701,-0.511535 0.0702,-0.882644 0.2596,-0.215451 0.42636,-0.224005 0.54745,-0.02808 0.0958,0.154961 0.28496,0.213247 0.42043,0.129524 0.32147,-0.198676 0.30973,-1.465518 -0.0183,-1.973076 -0.18943,-0.293126 -0.25754,-0.305477 -0.26053,-0.04725 -0.003,0.269264 -0.0953,0.258404 -0.40092,-0.04725 -0.68265,-0.682647 -0.40083,-1.780665 0.30638,-1.19373 0.4818,0.399857 0.44876,-0.04778 -0.0568,-0.769571 -0.62651,-0.89446 -1.11811,-0.71557 -1.47419,0.536441 -0.1759,0.618464 -0.4188,1.237589 -0.53979,1.375834 -0.38259,0.437155 -0.24079,-0.850094 0.22069,-2.00346 0.42164,-1.053761 0.41885,-1.117319 -0.0645,-1.470758 -0.46353,-0.338942 -0.54061,-0.286748 -0.93477,0.632981 -0.55007,1.283506 -1.50233,2.18211 -1.80074,1.699271 -0.1498,-0.242386 -0.36639,-0.07599 -0.75217,0.577856 -0.39881,0.675928 -0.91508,1.06009 -1.95628,1.455693 -0.77797,0.295588 -1.39887,0.6356 -1.37977,0.755581 0.25612,1.609393 0.34633,4.583773 0.13901,4.583773 -0.25651,0 -0.41113,-0.730417 -0.70012,-3.307292 -0.10182,-0.907958 -0.3349,-1.48945 -0.74307,-1.853839 -0.32709,-0.292008 -0.78438,-0.801712 -1.01619,-1.132676 l -0.42149,-0.601752 -0.32039,0.773505 c -0.17622,0.425428 -0.28149,1.113726 -0.23394,1.52955 0.0729,0.637759 0.221,0.769017 0.94636,0.838955 0.84927,0.08188 1.10974,0.392908 0.59532,0.710841 -0.34353,0.21231 -0.34353,1.639773 0,1.852083 0.15006,0.09274 0.26458,-0.129544 0.26458,-0.513552 0,-0.37239 0.1168,-0.677073 0.25954,-0.677073 0.69035,0 0.66161,3.557762 -0.0323,3.997423 -0.29839,0.189063 -0.29545,0.228497 0.0173,0.231859 0.28265,0.003 0.24525,0.152869 -0.14959,0.599364 -0.78673,0.889658 -1.48008,2.076513 -1.31154,2.245053 0.20045,0.200451 -0.82611,1.069244 -1.52581,1.291322 -0.57301,0.181867 -1.20272,0.83578 -1.21795,1.264759 -0.005,0.130392 0.28356,-0.07797 0.64041,-0.463021 0.75964,-0.819658 1.208,-0.907645 1.02315,-0.200787 -0.28885,1.104556 0.48921,0.74653 1.78996,-0.823661 0.75635,-0.913011 1.46595,-1.695876 1.57691,-1.739699 0.11096,-0.04382 0.28125,0.432425 0.37844,1.058334 0.20414,1.314738 0.9741,3.384523 1.25958,3.385978 0.51651,0.0026 3.37731,-1.711661 3.37731,-2.023806 0,-0.196048 0.11906,-0.356452 0.26458,-0.356452 0.40798,0 0.31619,0.392195 -0.26458,1.130531 -0.91159,1.15889 -0.46381,2.540148 0.83158,2.565222 0.2391,0.0046 0.48945,0.157242 0.55634,0.339143 0.15545,0.422714 -0.0515,1.031768 -0.29868,0.878998 -0.37807,-0.23366 -0.72861,0.31817 -2.64985,4.17145 -1.07662,2.15928 -2.11842,3.98773 -2.31511,4.0632 -0.19669,0.0755 -0.35762,0.3269 -0.35762,0.55872 0,0.30883 -0.0785,0.34299 -0.29368,0.1278 -0.21518,-0.21519 -0.0841,-0.6006 0.49036,-1.44198 0.96133,-1.40795 1.77458,-3.10169 1.58183,-3.29444 -0.0786,-0.0786 -0.60017,0.44896 -1.15911,1.17228 -2.49051,3.22291 -5.61019,6.89422 -5.66137,6.66241 z m -0.51428,-14.933347 c 0,-0.06417 -0.11906,-0.190262 -0.26458,-0.280199 -0.14552,-0.08994 -0.26458,-0.03743 -0.26458,0.116676 0,0.154109 0.11906,0.280199 0.26458,0.280199 0.14552,0 0.26458,-0.0525 0.26458,-0.116676 z m 2.47756,-4.776472 c -0.18392,-0.479298 -0.28624,-0.363369 -1.39959,1.585856 l -0.6045,1.058334 1.08309,-1.110912 c 0.70863,-0.726839 1.02705,-1.256937 0.921,-1.533278 z m 0.74835,-1.258414 c 0.0591,-0.181901 0.028,-0.747448 -0.0691,-1.256771 -0.13752,-0.720786 -0.1852,-0.779431 -0.21512,-0.264583 -0.0211,0.363802 -0.11024,0.929349 -0.19798,1.25677 -0.164,0.611937 0.2886,0.860248 0.48225,0.264584 z m 0.94352,-8.152052 c -0.28084,-0.459917 -0.26048,-0.599099 0.13004,-0.889058 0.27475,-0.203993 0.53168,-0.869839 0.63187,-1.637532 0.0929,-0.711565 0.28604,-1.442582 0.42928,-1.624483 0.17406,-0.221052 0.16596,-0.330729 -0.0244,-0.330729 -0.15668,0 -0.71371,0.561647 -1.23786,1.248104 -0.83165,1.089173 -0.89439,1.268664 -0.4927,1.409567 0.32179,0.11288 0.36606,0.219699 0.14712,0.355011 -0.17224,0.106451 -0.41192,0.132512 -0.53262,0.05791 -0.51001,-0.3152 -0.0848,1.019913 0.46718,1.466869 0.77936,0.631091 0.89344,0.617921 0.48212,-0.05566 z m 1.7907,0.06721 c -0.0815,-0.08146 -0.29496,-1.68e-4 -0.47443,0.180653 -0.25936,0.261307 -0.22897,0.291698 0.14811,0.148113 0.26094,-0.09936 0.40778,-0.247304 0.32632,-0.328766 z m 1.44821,-1.903182 c 0.48093,-0.480936 0.48673,-0.529166 0.0636,-0.529166 -0.25603,0 -0.61423,0.238124 -0.79599,0.529166 -0.19589,0.313669 -0.22181,0.529167 -0.0636,0.529167 0.14675,0 0.50495,-0.238125 0.79599,-0.529167 z m 1.80173,-4.7625 c 0.69131,0 0.86376,-0.124497 1.00783,-0.727604 0.0956,-0.400182 0.30623,-0.895794 0.46807,-1.10136 0.21934,-0.278613 0.20963,-0.402232 -0.0381,-0.485619 -0.1828,-0.06152 -0.27338,-0.207314 -0.20128,-0.323975 0.0721,-0.116662 -0.076,-0.19579 -0.32908,-0.17584 -0.3225,0.02542 -0.4617,-0.160837 -0.46527,-0.622543 -0.003,-0.411633 -0.17691,-0.691904 -0.46302,-0.747005 -0.26608,-0.05124 -0.45793,0.07435 -0.45793,0.29978 0,0.414177 -0.63663,0.778084 -0.90017,0.514547 -0.32653,-0.326532 -0.14114,-0.864482 0.30486,-0.884602 0.36881,-0.01664 0.38227,-0.05163 0.0662,-0.171964 -0.21828,-0.08309 -0.47578,-0.272258 -0.57221,-0.420369 -0.0974,-0.149516 -0.40179,0.103071 -0.68446,0.567889 -0.28002,0.46045 -0.59436,0.751942 -0.69855,0.647759 -0.10418,-0.104182 -0.11086,0.01531 -0.0148,0.265534 0.1003,0.261369 0.05,0.454956 -0.1183,0.454956 -0.16109,0 -0.28349,0.208359 -0.272,0.463021 0.0125,0.276605 0.0746,0.329866 0.15434,0.132291 0.15845,-0.392696 0.8831,-0.446974 0.8831,-0.06615 0,0.145521 -0.14182,0.264584 -0.31515,0.264584 -0.17334,0 -0.0915,0.163506 0.18175,0.363346 0.47881,0.350118 0.47531,0.370202 -0.0963,0.551619 -0.77953,0.247413 -0.58228,0.782247 0.32813,0.889694 0.60433,0.07132 0.69046,0.176886 0.53974,0.661458 -0.17281,0.555595 -0.16044,0.55973 0.33968,0.11357 0.28546,-0.254661 0.89432,-0.463021 1.35304,-0.463021 z m 3.22535,-4.373929 c 0,-0.222848 -0.20836,-0.467216 -0.46302,-0.543039 -0.25466,-0.07582 -0.93927,-0.370073 -1.52135,-0.653889 -0.58209,-0.283816 -1.29646,-0.517431 -1.5875,-0.519145 -0.29105,-0.0017 -1.04238,-0.181868 -1.66963,-0.400343 -0.74942,-0.261027 -1.28986,-0.313624 -1.57616,-0.153398 -0.34466,0.192878 -0.18927,0.307445 0.74358,0.548254 1.87454,0.483897 2.68529,0.784083 3.95741,1.465276 1.38272,0.740415 2.11667,0.82928 2.11667,0.256284 z m -7.01146,-1.446904 c 0.0899,-0.145521 -0.0816,-0.264583 -0.38126,-0.264583 -0.29963,0 -0.54478,0.119062 -0.54478,0.264583 0,0.145521 0.17157,0.264583 0.38126,0.264583 0.20969,0 0.45484,-0.119062 0.54478,-0.264583 z m 5.37376,-0.692765 c -0.23591,-0.235901 -0.57109,-0.339864 -0.74641,-0.23151 -0.37045,0.228952 0.13362,0.648806 0.78716,0.65564 0.32303,0.0034 0.31626,-0.06711 -0.0407,-0.42413 z m -1.27272,-0.778058 c 0,-0.355214 -0.14182,-0.645843 -0.31515,-0.645843 -0.32937,0 0.56406,-0.770647 0.91047,-0.785336 0.10914,-0.0046 0.19843,0.292189 0.19843,0.659593 0,0.473609 0.19751,0.743097 0.67869,0.926041 1.08519,0.412589 1.143,0.33859 0.98707,-1.263319 -0.19373,-1.990171 -1.13626,-3.16972 -1.53327,-1.918844 -0.19205,0.60511 -1.36041,0.995188 -1.76599,0.589609 -0.18607,-0.186072 -0.0904,-0.329421 0.30309,-0.454323 0.33045,-0.104881 0.51765,-0.331767 0.44021,-0.533553 -0.0741,-0.193091 0.0364,-0.416723 0.24545,-0.496959 0.56258,-0.215882 0.46315,-0.625087 -0.26833,-1.104376 -0.7781,-0.509831 -1.73275,-0.286271 -1.73275,0.405776 0,0.362269 0.15208,0.457193 0.59531,0.371582 0.57319,-0.11071 0.57198,-0.104743 -0.0324,0.160515 -0.51466,0.225887 -0.6003,0.412477 -0.47557,1.036143 0.11075,0.553747 0.0116,0.887813 -0.36449,1.228179 -0.66491,0.601738 -0.6595,1.191448 0.0125,1.367192 0.29104,0.07611 0.52917,0.306924 0.52917,0.512923 0,0.386493 1.03715,0.91489 1.38906,0.707684 0.10914,-0.06426 0.19844,-0.40747 0.19844,-0.762684 z m -3.43958,-0.778135 c 0,-0.218281 -0.17486,-0.396875 -0.38857,-0.396875 -0.2367,0 -0.32905,0.155122 -0.23628,0.396875 0.0838,0.218281 0.25862,0.396875 0.38857,0.396875 0.12995,0 0.23628,-0.178594 0.23628,-0.396875 z m 0.63959,-1.781886 c -0.0365,-0.32965 -0.0763,-0.637634 -0.0884,-0.684409 -0.0121,-0.04677 -0.20064,0.09355 -0.41892,0.311831 -0.41604,0.416046 -0.51823,1.018875 -0.22278,1.314321 0.30842,0.308419 0.79847,-0.323707 0.73008,-0.941743 z m 16.05553,44.461564 c -0.0145,-0.68263 0.0927,-1.31474 0.23821,-1.40468 0.31073,-0.19203 0.31073,1.01414 0,1.98438 -0.17344,0.54157 -0.21661,0.43651 -0.23821,-0.5797 z m -27.52215,0.42536 c 0.0127,-0.30823 0.0754,-0.37092 0.15985,-0.15985 0.0764,0.19099 0.067,0.41919 -0.0209,0.50711 -0.0879,0.0879 -0.15046,-0.0683 -0.13897,-0.34726 z m 19.86464,-1.16858 c 0,-0.3638 0.0601,-0.51263 0.13345,-0.33073 0.0734,0.1819 0.0734,0.47956 0,0.66146 -0.0734,0.1819 -0.13345,0.0331 -0.13345,-0.33073 z m 17.40425,-0.90443 c 0.37238,-0.78848 0.7153,-1.39536 0.76204,-1.34861 0.13737,0.13737 -1.05776,2.78221 -1.2572,2.78221 -0.10004,0 0.12279,-0.64512 0.49516,-1.4336 z m 4.393611,0.59361 c 0.36256,-1.16114 1.31141,-1.30317 1.31141,-0.1963 0,0.50594 -0.15693,0.65738 -0.75175,0.72546 -0.67859,0.0777 -0.73306,0.0262 -0.55966,-0.52916 z m -48.060571,0.13519 c -0.28396,-0.0755 -0.38499,-0.31709 -0.30581,-0.73129 0.065,-0.3402 -0.002,-0.69259 -0.14798,-0.78309 -0.23327,-0.14417 -0.15698,-1.71861 0.0959,-1.97904 0.0519,-0.0534 0.63319,-0.15791 1.29178,-0.23214 1.12698,-0.12702 1.2145,-0.0902 1.48753,0.62634 0.50041,1.31323 0.56103,2.06925 0.20188,2.51777 -0.35709,0.44595 -1.87092,0.78149 -2.6233,0.58145 z m 6.18466,-1.67645 c 0,-0.65484 0.0516,-0.92274 0.11467,-0.59531 0.0631,0.32742 0.0631,0.8632 0,1.19062 -0.0631,0.32742 -0.11467,0.0595 -0.11467,-0.59531 z m 3.46999,0.59531 c -0.08,-0.25466 -0.25489,-0.73651 -0.38858,-1.07078 -0.13368,-0.33427 -0.23136,-0.92958 -0.21708,-1.32292 0.0206,-0.56713 0.0894,-0.47816 0.33227,0.42983 0.16847,0.62974 0.37674,1.07455 0.46283,0.98846 0.0861,-0.0861 0.16672,0.20234 0.17919,0.64095 0.0252,0.88699 -0.14613,1.04246 -0.36863,0.33446 z m -3.72195,-3.50573 c 0,-0.94588 0.048,-1.33284 0.10672,-0.85989 0.0587,0.47294 0.0587,1.24685 0,1.71979 -0.0587,0.47294 -0.10672,0.086 -0.10672,-0.8599 z m -8.74921,-0.13229 c 0.003,-0.58208 0.0571,-0.78905 0.12041,-0.45994 0.0633,0.32912 0.0609,0.80537 -0.005,1.05834 -0.0662,0.25296 -0.11801,-0.0163 -0.11507,-0.5984 z m -8.07749,-0.0445 c -0.0736,-0.38489 -0.13161,-2.19921 -0.12897,-4.03181 l 0.005,-3.332006 0.19324,3.310616 c 0.10628,1.82084 0.2746,3.56699 0.37405,3.88034 0.0995,0.31335 0.0705,0.63789 -0.0643,0.7212 -0.1348,0.0833 -0.30529,-0.16344 -0.37887,-0.54834 z m 38.58975,-0.13715 c -0.14097,-0.44964 -0.68769,-5.02909 -0.65958,-5.524792 0.0361,-0.637174 0.74758,1.159882 0.76033,1.920532 0.007,0.3916 0.131,0.78558 0.27652,0.87551 0.34557,0.21358 0.34397,2.69783 -0.002,2.91158 -0.14655,0.0906 -0.31547,0.008 -0.37539,-0.18283 z m 19.879401,-0.38043 c -0.38181,-0.38181 -0.17033,-1.1275 0.36825,-1.29844 0.66907,-0.21235 1.11591,0.16779 0.98766,0.84025 -0.0945,0.49582 -1.0092,0.8049 -1.35591,0.45819 z m -49.862491,-1.0254 c 0.003,-0.58208 0.0571,-0.78905 0.1204,-0.45994 0.0633,0.32912 0.0609,0.80537 -0.005,1.05834 -0.0662,0.25296 -0.118,-0.0163 -0.11506,-0.5984 z m 1.50053,0.33073 c -0.0111,-0.1819 -0.0635,-0.5624 -0.11648,-0.84555 -0.0529,-0.28315 -0.13274,-0.93799 -0.17736,-1.45521 l -0.0811,-0.94039 1.48082,-0.0851 1.48082,-0.0851 0.34174,1.2206 c 0.52787,1.88534 0.12933,2.52153 -1.57959,2.52153 -0.87568,0 -1.33549,-0.11274 -1.34883,-0.33073 z m 4.53905,-0.88194 c 0.0127,-0.30823 0.0754,-0.37092 0.15985,-0.15986 0.0764,0.191 0.067,0.4192 -0.0209,0.50712 -0.0879,0.0879 -0.15045,-0.0684 -0.13896,-0.34726 z m 5.55625,0 c 0.0127,-0.30823 0.0754,-0.37092 0.15985,-0.15986 0.0764,0.191 0.067,0.4192 -0.0209,0.50712 -0.0879,0.0879 -0.15045,-0.0684 -0.13896,-0.34726 z m 5.4635,-0.006 c -0.28817,-0.28817 0.0601,-0.63369 0.63869,-0.63369 0.31082,0 0.48939,0.13879 0.42548,0.33072 -0.1258,0.37783 -0.79795,0.56919 -1.06417,0.30298 z m -11.26919,-1.07508 c -0.0198,-0.31552 -0.10455,-0.79177 -0.1883,-1.05834 -0.14415,-0.45881 -0.13617,-0.45956 0.14969,-0.014 0.16609,0.25885 0.25082,0.7351 0.1883,1.05834 -0.11355,0.58712 -0.1137,0.58713 -0.14969,0.014 z m -12.97797,-2.601326 c 0.0275,-0.501179 0.46851,-1.345102 0.48387,-0.926041 0.008,0.218281 -0.10087,0.575468 -0.24193,0.79375 -0.14107,0.218281 -0.24994,0.277812 -0.24194,0.132291 z m 12.04583,-1.852416 c -0.27262,-0.951934 -0.59924,-1.794799 -0.72583,-1.873031 -0.12658,-0.07823 -0.23015,-0.280768 -0.23015,-0.45008 0,-0.169312 0.16143,-0.07299 0.35873,0.214051 0.45562,0.662874 1.30096,3.215746 1.18251,3.571113 -0.0493,0.147804 -0.31264,-0.51012 -0.58526,-1.462053 z m 14.52215,1.455541 c -0.0931,-0.150653 0.13475,-0.264583 0.52917,-0.264583 0.39441,0 0.62227,0.11393 0.52916,0.264583 -0.0899,0.145521 -0.32806,0.264584 -0.52916,0.264584 -0.20111,0 -0.43923,-0.119063 -0.52917,-0.264584 z M 51.925419,98.71324 c -0.0931,-0.242615 -0.0463,-0.564083 0.10399,-0.714375 0.18795,-0.187952 0.27325,-0.05025 0.27325,0.441119 0,0.8162 -0.13216,0.911931 -0.37724,0.273256 z m 39.66787,0.176536 c 0.0899,-0.145521 0.27556,-0.264584 0.41249,-0.264584 0.13693,0 0.24897,0.119063 0.24897,0.264584 0,0.145521 -0.18562,0.264583 -0.41249,0.264583 -0.22687,0 -0.33891,-0.119062 -0.24897,-0.264583 z m -41.25799,-0.606724 c 0.0994,-0.260938 0.2473,-0.407781 0.32876,-0.326319 0.0815,0.08146 1.7e-4,0.294955 -0.18065,0.474432 -0.26131,0.259361 -0.2917,0.228971 -0.14811,-0.148113 z m 37.55382,-0.631743 c 0.14552,-0.14043 0.91943,-0.698164 1.71979,-1.239404 1.05186,-0.711314 1.22244,-0.779301 0.61543,-0.24529 -0.78383,0.689565 -2.91601,2.045166 -2.33522,1.484694 z m 4.01141,-3.684291 c 0.50051,-0.763874 0.6188,-0.789715 0.6188,-0.135184 0,0.274069 -0.23262,0.559141 -0.51694,0.633492 -0.48759,0.127505 -0.49337,0.09921 -0.10186,-0.498308 z m -16.00587,0.0047 c -0.25527,-0.288364 -0.27419,-0.493236 -0.0684,-0.741148 0.34529,-0.416041 0.11469,-0.690808 -0.57975,-0.690808 -0.40894,0 -0.48944,-0.138462 -0.38826,-0.667774 0.0702,-0.367274 0.0258,-0.73074 -0.0988,-0.807702 -0.12452,-0.07696 0.0121,-0.395925 0.30359,-0.708813 0.39568,-0.424704 0.4998,-0.819396 0.41086,-1.55733 -0.10356,-0.859133 -0.0434,-0.999334 0.4595,-1.071666 0.43252,-0.0622 0.56142,-0.240676 0.51046,-0.706764 -0.0505,-0.461605 0.0354,-0.583789 0.33073,-0.470468 0.32892,0.126224 0.39891,-0.133267 0.39891,-1.479032 0,-2.365406 0.49141,-1.589637 0.58513,0.923718 0.042,1.125868 0.13636,2.047232 0.20974,2.047476 0.0734,2.44e-4 0.12552,0.56599 0.11586,1.257214 -0.01,0.691224 0.10889,1.348486 0.26345,1.460585 0.18307,0.132768 0.0878,0.366535 -0.27325,0.670639 -0.30485,0.256754 -0.72901,0.991034 -0.94258,1.631733 -0.43136,1.294096 -0.71354,1.501677 -1.23719,0.910146 z m 1.49327,-2.208215 c 0.38585,-0.871699 0.32571,-3.440271 -0.0821,-3.507877 -0.14552,-0.02412 -0.58805,0.423925 -0.9834,0.995661 -0.83791,1.211749 -0.96432,2.600256 -0.27337,3.002698 0.73257,0.426686 0.9717,0.339087 1.33891,-0.490482 z m -31.13279,1.863614 c -0.25024,-0.158565 -0.27027,-0.282279 -0.0661,-0.40844 0.16106,-0.09953 0.29283,-0.04786 0.29283,0.11484 0,0.162697 0.13746,0.21086 0.30546,0.107026 0.18926,-0.116967 0.23365,-0.07258 0.11668,0.116676 -0.22296,0.36076 -0.19461,0.357706 -0.64883,0.0699 z m 26.61888,-2.063485 c -0.25466,-0.06655 -0.46302,-0.290862 -0.46302,-0.498473 0,-0.207613 -0.18852,-0.377475 -0.41893,-0.377475 -0.61101,0 -0.3004,-0.646798 0.35724,-0.743874 0.61894,-0.09137 1.64919,0.786546 1.64919,1.405332 0,0.395936 -0.24866,0.443367 -1.12448,0.21449 z m -1.89628,-1.105022 c -0.11398,-0.184415 -0.13578,-0.406752 -0.0485,-0.494086 0.2368,-0.236791 0.49498,0.111469 0.36708,0.495155 -0.0896,0.268862 -0.15194,0.268653 -0.31863,-0.0011 z m 4.07909,-5.956238 c 0,-0.440371 0.14499,-0.693855 0.39688,-0.693855 0.21828,0 0.39687,0.164015 0.39687,0.364478 0,0.200463 -0.17859,0.512698 -0.39687,0.693855 -0.33562,0.278539 -0.39688,0.222283 -0.39688,-0.364478 z m 1.5065,-1.392217 c -0.21139,-0.211384 0.0276,-0.624555 0.3612,-0.624555 0.13693,0 0.24897,0.178594 0.24897,0.396875 0,0.409155 -0.3122,0.525649 -0.61017,0.22768 z"
       id="path1024" />
  </g>
</svg>
