<?xml version="1.0" encoding="UTF-8" standalone="no"?>
<!-- Created with Inkscape (http://www.inkscape.org/) -->

<svg
   width="23.847984mm"
   height="130.66151mm"
   viewBox="0 0 23.847986 130.66152"
   version="1.1"
   id="svg5"
   inkscape:version="1.1 (c4e8f9ed74, 2021-05-24)"
   sodipodi:docname="ornament79.svg"
   xmlns:inkscape="http://www.inkscape.org/namespaces/inkscape"
   xmlns:sodipodi="http://sodipodi.sourceforge.net/DTD/sodipodi-0.dtd"
   xmlns="http://www.w3.org/2000/svg"
   xmlns:svg="http://www.w3.org/2000/svg">
  <sodipodi:namedview
     id="namedview7"
     pagecolor="#ffffff"
     bordercolor="#666666"
     borderopacity="1.0"
     inkscape:pageshadow="2"
     inkscape:pageopacity="0.0"
     inkscape:pagecheckerboard="0"
     inkscape:document-units="mm"
     showgrid="false"
     inkscape:zoom="0.94615212"
     inkscape:cx="-288.53711"
     inkscape:cy="242.56142"
     inkscape:window-width="2506"
     inkscape:window-height="1403"
     inkscape:window-x="1974"
     inkscape:window-y="0"
     inkscape:window-maximized="1"
     inkscape:current-layer="layer1" />
  <defs
     id="defs2" />
  <g
     inkscape:label="Layer 1"
     inkscape:groupmode="layer"
     id="layer1"
     transform="translate(-244.37504,-74.573051)">
    <path
       style="fill:#000000;stroke-width:0.264583"
       d="m 255.34204,204.92636 c -1.57647,-0.58122 -3.25928,-2.01021 -4.29349,-3.64587 -0.7813,-1.23568 -1.2946,-1.73961 -2.17214,-2.1325 -2.14202,-0.95901 -2.83298,-2.03615 -3.87554,-6.04161 -0.64346,-2.47211 -0.66208,-2.74906 -0.60494,-8.99583 0.005,-0.50932 -0.003,-2.35479 -0.0168,-4.10104 -0.0207,-2.6073 0.0939,-3.62443 0.64141,-5.68854 0.36666,-1.38245 0.841,-2.93026 1.05408,-3.43959 0.21308,-0.50932 0.46958,-1.49614 0.57001,-2.19293 0.29926,-2.07633 1.48975,-4.39154 3.15795,-6.14144 4.34821,-4.56115 7.8182,-9.64659 9.29756,-13.62604 0.70253,-1.8898 0.73721,-2.19877 0.72767,-6.4823 -0.0125,-5.607 -0.44351,-14.34977 -1.12657,-22.85144 -0.288,-3.58452 -0.64425,-8.24371 -0.79167,-10.35376 -0.25236,-3.61204 -0.47516,-6.27632 -1.47686,-17.66094 -0.22727,-2.582994 -0.5046,-5.113072 -0.6163,-5.622395 -0.11169,-0.509323 -0.16981,-2.768764 -0.12915,-5.020981 0.0632,-3.499638 0.13956,-4.142922 0.52534,-4.425009 0.71312,-0.521451 3.29729,-1.228995 4.60208,-1.260049 0.65485,-0.01559 1.45069,-0.172947 1.76855,-0.349691 0.31785,-0.176745 0.92217,-0.321354 1.34294,-0.321354 0.95632,0 2.03447,1.060722 1.80691,1.777695 -0.11484,0.361849 0.20689,0.879013 1.16566,1.873716 0.72835,0.755654 1.32428,1.622204 1.32428,1.925665 0,0.303461 -0.28617,1.405184 -0.63592,2.448273 -0.9949,2.967145 -1.60979,8.424832 -1.88299,16.713193 -0.14157,4.294957 -0.6315,14.813877 -0.80717,17.330207 -0.0457,0.65484 -0.15615,2.97656 -0.24541,5.15937 -0.0892,2.18282 -0.33195,5.87375 -0.53933,8.20209 -0.20738,2.32833 -0.44372,5.78114 -0.52519,7.67291 -0.38747,8.99679 -0.98193,11.60769 -3.80681,16.71961 -0.75928,1.37399 -1.38169,3.265 -1.50394,4.56925 -0.12059,1.28658 -0.0417,1.62667 0.64685,2.78823 0.4313,0.7276 1.48907,2.15635 2.3506,3.175 2.3795,2.81344 3.12263,5.62089 1.8099,6.83748 l -0.64149,0.59452 1.44745,1.70795 c 1.89911,2.24092 2.65811,3.57132 3.16398,5.54593 0.47138,1.83998 0.31943,3.43214 -0.38871,4.073 -0.25371,0.2296 -0.92965,0.589 -1.50208,0.79867 -0.57243,0.20966 -0.89196,0.38959 -0.71006,0.39985 0.1819,0.0103 0.33073,0.20426 0.33073,0.43113 0,0.22687 0.10645,0.3467 0.23654,0.2663 0.24474,-0.15126 0.87351,1.21963 1.50896,3.28996 0.41413,1.34926 0.48698,3.89504 0.13769,4.81142 -0.36169,0.9489 -1.58724,2.03421 -2.61862,2.31899 -1.47348,0.40685 -1.59848,-0.0139 -0.16336,-0.54983 1.26852,-0.47371 1.90271,-1.1132 2.09519,-2.11264 0.0529,-0.27456 -0.0231,-0.49919 -0.16887,-0.49919 -0.14575,0 -0.1865,-0.12703 -0.0906,-0.28228 0.096,-0.15525 0.0137,-0.26021 -0.18282,-0.23323 -0.19651,0.027 -0.53588,0.0313 -0.75416,0.01 -0.33722,-0.0335 -0.33294,-0.0768 0.0285,-0.28799 0.23394,-0.13673 0.68043,-0.19948 0.99219,-0.13944 0.41741,0.0804 0.56684,-0.0222 0.56684,-0.3892 0,-0.2741 -0.121,-0.57315 -0.2689,-0.66455 -0.14789,-0.0914 -0.20569,-0.26845 -0.12845,-0.39344 0.13713,-0.22188 -0.66162,-0.57432 -1.45473,-0.6419 -0.63952,-0.0545 -2.14628,-0.94898 -1.99927,-1.18686 0.22711,-0.36746 -0.88632,-1.21309 -1.1932,-0.90621 -0.183,0.183 -0.11728,0.38912 0.20469,0.64197 0.44086,0.34622 0.4463,0.33682 0.0774,-0.13361 -0.35278,-0.44982 -0.35278,-0.49147 0,-0.37483 0.59708,0.19742 0.47678,0.83113 -0.16678,0.87855 -0.31001,0.0228 -0.78626,-0.13214 -1.05833,-0.3444 -0.38838,-0.30299 -0.40079,-0.35378 -0.0578,-0.23635 0.5297,0.18132 0.50042,-0.45663 -0.0432,-0.94095 -0.31228,-0.27823 -0.31499,-0.25773 -0.0178,0.13497 0.46804,0.61853 0.12919,0.58654 -0.70057,-0.0661 -0.37,-0.29104 -0.54134,-0.52917 -0.38076,-0.52917 0.16332,0 0.22065,-0.204 0.13012,-0.46302 -0.2244,-0.64198 -1.97893,-2.45347 -2.22752,-2.29983 -0.11182,0.0691 -0.28946,-0.0138 -0.39476,-0.18413 -0.11957,-0.19347 -0.0768,-0.2389 0.11401,-0.12099 0.16952,0.10476 0.30547,0.0396 0.30547,-0.1465 0,-0.18441 0.51052,0.16575 1.13449,0.77813 1.05284,1.03329 1.9505,1.56452 1.28145,0.75835 -0.16208,-0.19529 -0.23837,-0.41138 -0.16955,-0.48021 0.0688,-0.0688 -0.37869,-0.59365 -0.99448,-1.16628 l -1.11962,-1.04114 1.04588,1.12448 c 0.57524,0.61846 0.93693,1.12448 0.80377,1.12448 -0.13317,0 -0.77642,-0.50602 -1.42946,-1.12448 -0.65304,-0.61847 -1.01833,-0.88636 -0.81177,-0.59532 0.2747,0.38705 0.17808,0.35293 -0.35977,-0.12704 -0.40443,-0.36092 -0.60844,-0.69851 -0.45336,-0.75021 0.15508,-0.0517 0.20329,-0.22127 0.10714,-0.37685 -0.10087,-0.16322 -0.0505,-0.20603 0.11909,-0.10122 0.16165,0.0999 0.25909,0.32666 0.21654,0.5039 -0.0426,0.17724 -0.0272,0.23222 0.0342,0.12217 0.0613,-0.11005 0.21906,-0.13363 0.35048,-0.0524 0.13143,0.0812 0.1635,-0.0669 0.0713,-0.32908 -0.0922,-0.26222 0.37734,0.0461 1.04346,0.68523 0.71382,0.68486 1.1853,0.98596 1.14821,0.73329 -0.0806,-0.5489 -1.23535,-1.78732 -1.50894,-1.61823 -0.11432,0.0707 -0.28383,0.006 -0.3767,-0.14476 -0.0929,-0.15027 -0.27147,-0.2098 -0.39688,-0.1323 -0.12541,0.0775 -0.304,0.018 -0.39687,-0.13229 -0.0929,-0.15026 -0.25418,-0.22048 -0.35846,-0.15603 -0.10429,0.0644 -0.18961,-0.10346 -0.18961,-0.37313 0,-0.26968 0.0936,-0.4325 0.20789,-0.36184 0.11434,0.0707 0.20789,0.009 0.20789,-0.1361 0,-0.14552 -0.10373,-0.32869 -0.23051,-0.40705 -0.12679,-0.0784 -0.18925,-0.49688 -0.13881,-0.93007 0.0504,-0.43318 -0.0428,-0.87075 -0.20725,-0.97236 -0.19387,-0.11983 -0.23118,-0.0542 -0.10615,0.18685 0.10603,0.20438 0.0234,0.1651 -0.18372,-0.0873 -0.20708,-0.2524 -0.47312,-0.37146 -0.59121,-0.26458 -0.11808,0.10687 -0.13993,0.0631 -0.0486,-0.0973 0.0914,-0.16037 -0.0682,-0.75114 -0.3545,-1.3128 -0.28636,-0.56166 -0.45307,-1.23412 -0.37048,-1.49434 0.0827,-0.26069 0.0182,-0.47313 -0.14384,-0.47313 -0.16171,0 -0.26704,-0.14883 -0.23407,-0.33073 0.033,-0.1819 -0.0891,-1.01455 -0.27137,-1.85032 -0.18223,-0.83577 -0.25221,-1.76886 -0.15551,-2.07352 0.0967,-0.30467 0.0915,-0.99007 -0.0115,-1.52312 -0.18306,-0.94738 -0.19305,-0.9543 -0.44388,-0.30773 -0.82504,2.12678 -1.35661,6.08818 -1.34914,10.05417 0.007,3.63731 0.0833,4.34038 0.67591,6.2177 1.66844,5.28536 5.11758,9.61375 8.68663,10.90103 1.57082,0.56657 2.18533,1.80648 2.12858,4.29489 -0.0552,2.41942 -0.93548,3.62074 -3.60797,4.92372 -1.42859,0.69651 -2.686,0.79019 -4.01744,0.2993 z m 4.6789,-1.27257 c 1.35517,-0.82408 2.0026,-1.62036 2.31358,-2.8455 l 0.27602,-1.08744 -1.22536,-0.54203 c -0.67394,-0.29812 -1.52364,-0.80411 -1.88822,-1.12442 l -0.66286,-0.58239 0.52728,0.64018 c 0.52676,0.63955 0.52676,0.63998 -10e-4,0.44611 -0.42389,-0.15559 -0.38028,-0.0391 0.21995,0.58737 0.55325,0.57747 0.65672,0.82437 0.39643,0.94589 -0.19373,0.0904 -0.0726,0.11166 0.26924,0.0471 0.34182,-0.0645 0.54737,-0.0432 0.45678,0.0474 -0.0906,0.0906 0.16552,0.30752 0.56914,0.48207 l 0.73386,0.31735 -0.96799,-0.037 c -0.53239,-0.0203 -0.92571,-0.0802 -0.87404,-0.13307 0.0517,-0.0529 -0.4846,-0.55343 -1.19173,-1.11238 -0.70712,-0.55895 -1.3662,-1.14656 -1.46462,-1.3058 -0.10515,-0.17014 -0.30562,-0.19571 -0.48612,-0.062 -0.52169,0.38641 -1.01926,0.22394 -1.42834,-0.46641 -0.34785,-0.58699 -0.34756,-0.60845 0.003,-0.19066 0.35219,0.42025 0.41191,0.42555 0.55626,0.0494 0.0909,-0.23692 0.29628,-0.33826 0.46905,-0.23148 0.19551,0.12083 0.23575,0.0741 0.11061,-0.12837 -0.12953,-0.20958 -0.30191,-0.23102 -0.50465,-0.0628 -0.20316,0.16861 -0.47847,0.13085 -0.80918,-0.11097 -0.27569,-0.20159 -0.60141,-0.30462 -0.72382,-0.22896 -0.12242,0.0757 -0.14417,-0.0668 -0.0483,-0.31646 0.13174,-0.34333 0.0826,-0.3988 -0.20147,-0.22754 -0.31283,0.18859 -0.31883,0.15628 -0.0359,-0.19311 0.27987,-0.34556 0.25955,-0.58796 -0.11515,-1.37371 -0.25025,-0.52476 -0.552,-0.95411 -0.67057,-0.95411 -0.11857,0 -0.2174,-0.26789 -0.21963,-0.59531 -0.003,-0.49355 -0.0523,-0.52747 -0.28599,-0.19844 -0.21583,0.30383 -0.24341,0.2211 -0.11763,-0.3529 0.10062,-0.45916 0.0642,-0.68792 -0.0939,-0.59019 -0.1453,0.0898 -0.33644,-0.36212 -0.43712,-1.03346 -0.0984,-0.65617 -0.28463,-1.1277 -0.41385,-1.04784 -0.12922,0.0799 -0.23495,0.0121 -0.23495,-0.15061 0,-0.16269 -0.11906,-0.22223 -0.26458,-0.13229 -0.15066,0.0931 -0.26459,-0.13475 -0.26459,-0.52917 0,-0.38097 -0.0987,-0.63169 -0.2193,-0.55715 -0.12061,0.0745 -0.22168,-0.48397 -0.2246,-1.24116 -0.0107,-2.79341 -0.13584,-4.0485 -0.3482,-3.49335 -0.17604,0.46021 -0.23795,0.40849 -0.47505,-0.39688 l -0.27262,-0.92604 -0.0198,1.32292 c -0.0125,0.83336 0.0644,1.19007 0.20764,0.96394 0.17162,-0.27085 0.27539,-0.28142 0.42269,-0.0431 0.10738,0.17373 0.0627,0.44838 -0.0992,0.61033 -0.16194,0.16194 -0.29262,0.41946 -0.29039,0.57226 0.002,0.15279 0.10435,0.11959 0.22694,-0.0738 0.38237,-0.60314 0.56157,1.82356 0.20076,2.71875 -0.18579,0.46098 -0.24823,1.14867 -0.1454,1.6016 0.0991,0.43656 0.19611,0.61515 0.21556,0.39687 0.0314,-0.35277 0.0639,-0.35277 0.29184,0 0.33517,0.51864 0.33475,0.86835 -8e-4,0.66097 -0.1507,-0.0931 -0.22235,0.043 -0.1658,0.31511 0.35214,1.6943 0.52263,2.17363 0.72798,2.04672 0.31024,-0.19173 0.29289,-0.006 -0.0746,0.80106 -0.23752,0.52129 -0.22859,0.9113 0.0394,1.72347 0.19054,0.57734 0.43426,0.99544 0.54159,0.92911 0.22998,-0.14214 0.70352,0.37831 0.82867,0.91076 0.1137,0.48369 0.83201,1.28587 1.0501,1.1727 0.0927,-0.0481 0.33078,0.11965 0.52917,0.3727 0.31864,0.40645 0.31158,0.4218 -0.0605,0.13168 -0.23167,-0.18064 -0.49136,-0.2583 -0.57708,-0.17257 -0.23315,0.23315 0.0843,0.89723 0.43129,0.90225 0.32817,0.005 2.68367,2.34444 2.68367,2.66566 0,0.10796 0.0893,0.28558 0.19844,0.39472 0.10914,0.10914 0.19844,0.0585 0.19844,-0.11248 0,-0.23512 0.12483,-0.23297 0.51205,0.009 0.28163,0.17588 0.4532,0.41501 0.38126,0.53141 -0.26801,0.43365 1.12378,0.18975 2.01711,-0.35347 z m -2.61967,-4.79272 c -0.3644,-0.5932 -0.36369,-0.59352 0.20094,-0.0913 0.60624,0.53924 0.68473,0.68659 0.36571,0.68659 -0.11052,0 -0.36551,-0.26789 -0.56665,-0.59531 z m 2.58592,0.13229 c -0.3291,-0.41964 -0.31975,-0.429 0.0999,-0.0999 0.25466,0.19972 0.46302,0.40808 0.46302,0.46302 0,0.21776 -0.21727,0.0776 -0.56292,-0.36313 z m -8.41203,-4.18923 c 0.0127,-0.30823 0.0754,-0.37092 0.15986,-0.15986 0.0764,0.191 0.067,0.4192 -0.0209,0.50712 -0.0879,0.0879 -0.15045,-0.0684 -0.13897,-0.34726 z m 4.2164,8.63322 c -0.36163,-0.27786 -0.71012,-0.45257 -0.77443,-0.38826 -0.14962,0.14962 0.81729,0.88756 1.16735,0.89091 0.14553,0.001 -0.0313,-0.2248 -0.39292,-0.50265 z m -3.32171,-1.66586 c -0.68756,-0.76399 -1.43503,-1.77602 -1.66102,-2.24896 -0.22599,-0.47294 -0.5972,-0.86172 -0.82491,-0.86395 -0.3032,-0.003 -0.32622,-0.0598 -0.086,-0.21236 0.25475,-0.1618 0.18385,-0.85507 -0.31755,-3.1048 -0.82327,-3.6939 -0.948,-4.6439 -1.06996,-8.14946 -0.14864,-4.27212 0.83307,-11.3264 2.06735,-14.85537 0.20359,-0.58208 0.44299,-1.53458 0.532,-2.11667 l 0.16184,-1.05833 -0.41818,0.92604 c -0.57316,1.26928 -1.93887,5.74622 -2.09852,6.87917 -0.0718,0.50932 -0.24849,0.96684 -0.39273,1.0167 -0.15024,0.0519 -0.19001,0.47568 -0.0931,0.99219 0.10999,0.58628 0.0663,0.90153 -0.1249,0.90153 -0.16736,0 -0.29403,0.46267 -0.29403,1.07395 0,0.59067 -0.0942,1.01574 -0.20929,0.94459 -0.11511,-0.0711 -0.17646,0.30879 -0.13635,0.84429 l 0.0729,0.97362 -0.26359,-0.79375 c -0.63682,-1.91765 0.008,-6.0075 1.36717,-8.67174 0.81771,-1.60284 1.5687,-3.91683 1.37363,-4.23247 -0.106,-0.17151 -0.0382,-0.1932 0.18082,-0.0578 0.26264,0.16231 0.30252,0.0917 0.15919,-0.28179 -0.10518,-0.2741 -0.11297,-0.42009 -0.0173,-0.32443 0.0957,0.0957 0.53854,-0.53305 0.98418,-1.39713 0.44564,-0.86408 0.9077,-1.57105 1.02679,-1.57105 0.1191,0 -0.0194,0.38695 -0.30775,0.85989 -0.63317,1.03849 -0.64282,1.15543 -0.11209,1.35909 0.32775,0.12577 0.3761,0.035 0.23172,-0.43471 -0.10036,-0.32651 -0.0846,-0.50062 0.0351,-0.38691 0.11966,0.1137 0.36835,-0.0649 0.55266,-0.39688 0.2142,-0.38582 0.33995,-0.46041 0.34853,-0.20673 0.0106,0.31354 0.0596,0.32401 0.23349,0.0499 0.21731,-0.34267 0.64039,2.91894 0.6598,5.08657 0.005,0.56946 0.0594,0.88497 0.1207,0.70112 0.0613,-0.18384 0.63316,0.76365 1.27083,2.10554 0.63768,1.34189 1.69064,3.18425 2.33991,4.09412 1.93855,2.71664 4.92086,4.89612 6.69964,4.89612 1.10213,0 2.21945,-1.02587 2.07628,-1.90636 -0.0543,-0.33395 0.006,-0.8085 0.13307,-1.05455 0.1705,-0.32905 0.076,-0.55647 -0.35717,-0.85989 -0.32838,-0.23001 -0.43152,-0.41253 -0.23312,-0.41253 0.27463,0 0.28585,-0.0844 0.0491,-0.36957 -0.16899,-0.20361 -0.56966,-0.31211 -0.8923,-0.24163 -0.42365,0.0926 -0.48707,0.058 -0.22935,-0.12483 0.27122,-0.19244 0.16072,-0.32092 -0.46302,-0.53836 -0.45059,-0.15707 -0.81925,-0.34836 -0.81925,-0.42509 0,-0.0767 0.31417,-0.0201 0.69815,0.12593 1.48077,0.56299 0.76409,0.0638 -1.13589,-0.79122 -1.93603,-0.87121 -1.97568,-0.90763 -1.37324,-1.26158 l 0.62035,-0.36448 -0.62844,0.17168 c -0.39136,0.1069 -0.56661,0.0716 -0.46454,-0.0935 0.0901,-0.14587 -0.0215,-0.33638 -0.24822,-0.42336 -0.45047,-0.17286 -0.27438,-0.69351 0.23234,-0.687 0.19395,0.002 0.16251,0.11198 -0.0818,0.28473 -0.26284,0.18588 -0.27848,0.2493 -0.0463,0.18777 0.52134,-0.13816 0.25566,-0.61943 -0.2998,-0.54309 -0.26312,0.0362 -0.40576,-0.0518 -0.31699,-0.19541 0.09,-0.14562 -0.008,-0.19599 -0.22245,-0.11385 -0.21112,0.081 -0.47382,0.002 -0.58379,-0.17621 -0.12785,-0.20687 -0.0898,-0.25543 0.10553,-0.13471 0.16801,0.10383 0.30547,0.12603 0.30547,0.0493 0,-0.0767 -0.32743,-0.31709 -0.72761,-0.53419 -0.40911,-0.22195 -0.55388,-0.40289 -0.33073,-0.41337 0.31463,-0.0148 0.30092,-0.0745 -0.0661,-0.28832 -0.25466,-0.14833 -0.46302,-0.42225 -0.46302,-0.60871 0,-0.18646 -0.29748,-0.49822 -0.66106,-0.6928 -0.36359,-0.19459 -0.60459,-0.41027 -0.53556,-0.47929 0.069,-0.069 0.28281,-0.0192 0.47509,0.11064 0.19227,0.12988 0.12322,0.0284 -0.15346,-0.22546 -0.27668,-0.25388 -0.62811,-0.38431 -0.78095,-0.28985 -0.15285,0.0945 -0.20279,0.0502 -0.11098,-0.0983 0.0918,-0.14856 -0.0722,-0.48648 -0.36439,-0.75094 -0.29222,-0.26447 -0.49973,-0.66733 -0.46111,-0.89526 0.0386,-0.22793 -0.0469,-0.41442 -0.19004,-0.41442 -0.14314,0 -0.22056,0.11907 -0.17206,0.26459 0.0485,0.14552 -0.011,0.16536 -0.13229,0.0441 -0.12127,-0.12127 -0.2247,-0.29987 -0.22986,-0.39688 -0.005,-0.097 -0.15949,-0.44674 -0.34297,-0.77717 -0.18347,-0.33043 -0.2597,-0.72033 -0.16939,-0.86645 0.0903,-0.14612 0.007,-0.23296 -0.1862,-0.19297 -0.19272,0.04 -0.32145,-0.0737 -0.28606,-0.25261 0.0786,-0.39763 -0.59457,-3.34934 -0.86294,-3.78358 -0.10647,-0.17227 -0.268,-0.21122 -0.35895,-0.0865 -0.0909,0.12467 -0.37645,0.39235 -0.63444,0.59483 -0.41848,0.32845 -0.44973,0.31418 -0.28966,-0.13229 0.26108,-0.7282 0.6548,-1.1756 0.90077,-1.02358 0.28526,0.1763 1.19106,-1.14305 1.41192,-2.05655 0.21702,-0.89759 0.03,-0.93769 -0.42103,-0.0902 -0.54768,1.02916 -2.35795,3.07677 -2.59216,2.93202 -0.11843,-0.0732 -0.70176,0.34851 -1.29628,0.93712 -1.41008,1.39606 -1.39045,0.95523 0.0311,-0.69894 0.65837,-0.76609 0.80563,-1.02416 0.36094,-0.63256 -0.75254,0.6627 -2.53841,3.22852 -2.52329,3.62531 0.004,0.11613 0.1374,-0.0115 0.29549,-0.28362 0.2321,-0.39949 0.33167,-0.42497 0.51707,-0.13229 0.12629,0.19936 0.22962,0.48153 0.22962,0.62705 0,0.14553 -0.11541,0.086 -0.25648,-0.13229 -0.19915,-0.30816 -0.25738,-0.23074 -0.26053,0.34635 -0.002,0.40877 -0.11667,0.67361 -0.25433,0.58854 -0.6283,-0.38831 -1.073,3.42466 -0.47732,4.09266 0.28136,0.31553 0.26161,0.31859 -0.1323,0.0205 -0.25466,-0.19271 -0.47242,-0.66321 -0.4839,-1.04558 -0.0115,-0.38236 -0.0827,-0.54127 -0.15813,-0.35312 -0.23119,0.57626 0.16664,1.65609 0.84006,2.28019 l 0.63964,0.5928 -0.94448,1.40247 c -1.83697,2.72774 -2.50731,4.53615 -2.62632,7.08518 -0.12931,2.76964 0.30998,3.78864 1.85276,4.29781 0.52059,0.1718 0.94652,0.43212 0.94652,0.57848 0,0.14636 -0.14792,0.21681 -0.32872,0.15654 -0.39826,-0.13276 -1.11417,2.0533 -1.543,4.71162 -0.22916,1.42052 -0.2268,2.23658 0.01,3.3761 0.33448,1.61118 0.67914,2.12179 0.38928,0.57671 -0.26802,-1.42872 0.0857,-1.09558 0.55656,0.52419 0.30883,1.06234 0.68077,1.66386 1.39059,2.24896 0.53295,0.4393 0.85258,0.79494 0.71028,0.79032 -0.41169,-0.0134 -1.1784,-0.67391 -1.86933,-1.61041 -0.35109,-0.47588 -0.63835,-0.73218 -0.63835,-0.56955 0,0.54614 1.31424,1.86419 2.38903,2.39596 0.5881,0.29096 1.42775,1.04395 1.87457,1.68108 0.68576,0.97784 2.54451,2.85713 2.83853,2.86989 0.0499,0.002 -0.4719,-0.62114 -1.15947,-1.38512 z m -6.29103,-9.98802 c 0.0866,-0.65485 0.20039,-1.24024 0.2529,-1.30087 0.19903,-0.22983 0.0477,1.45701 -0.17602,1.96232 -0.15646,0.35334 -0.182,0.13356 -0.0769,-0.66145 z m 1.57886,-6.7384 c -0.082,-0.21363 -0.0352,-0.45878 0.10399,-0.54479 0.13916,-0.086 0.25302,0.0888 0.25302,0.3884 0,0.63886 -0.14713,0.70331 -0.35701,0.15639 z m -2.00503,-0.83791 c -0.30161,-0.38343 -0.53814,-0.94897 -0.52563,-1.25677 0.0179,-0.44061 0.0709,-0.39884 0.2493,0.1964 0.12461,0.41582 0.43049,0.98137 0.67973,1.25677 0.24924,0.27541 0.38381,0.50074 0.29906,0.50074 -0.0847,0 -0.40086,-0.31371 -0.70246,-0.69714 z m 2.11835,-1.57387 c 0.0127,-0.30822 0.0754,-0.37092 0.15985,-0.15985 0.0764,0.19099 0.067,0.4192 -0.0209,0.50712 -0.0879,0.0879 -0.15045,-0.0684 -0.13896,-0.34727 z m -2.49524,-1.37996 c -0.0975,-0.60993 -0.012,-1.49473 0.2119,-2.19168 0.37511,-1.16769 0.37532,-1.16678 0.22499,0.94786 -0.0828,1.16416 -0.17812,2.15042 -0.2119,2.19167 -0.0338,0.0413 -0.13503,-0.38527 -0.22499,-0.94785 z m 1.17003,-3.02976 c -0.0102,-0.40018 0.10047,-0.7276 0.24599,-0.7276 0.31054,0 0.31054,0.20336 0,0.92604 -0.2015,0.46891 -0.22951,0.44631 -0.24599,-0.19844 z m 16.12099,-0.46302 c -0.21829,-0.14107 -0.27782,-0.25648 -0.1323,-0.25648 0.14552,0 0.44318,0.11541 0.66146,0.25648 0.21828,0.14106 0.27781,0.25648 0.13229,0.25648 -0.14552,0 -0.44317,-0.11542 -0.66145,-0.25648 z m -15.56864,-2.11667 c 0,-0.3638 0.06,-0.51263 0.13345,-0.33073 0.0734,0.1819 0.0734,0.47956 0,0.66146 -0.0734,0.1819 -0.13345,0.0331 -0.13345,-0.33073 z m 1.03744,-1.74184 c 0.0127,-0.30822 0.0754,-0.37092 0.15985,-0.15985 0.0764,0.19099 0.067,0.4192 -0.0209,0.50712 -0.0879,0.0879 -0.15045,-0.0683 -0.13896,-0.34727 z m 1.43103,-4.91277 c 0.29052,-0.99613 2.36435,-4.27528 2.78971,-4.41111 0.27569,-0.088 0.24215,0.0409 -0.11545,0.44373 -0.27721,0.31231 -0.38109,0.56783 -0.23083,0.56783 0.15026,0 0.42141,-0.1786 0.60257,-0.39688 0.41607,-0.50133 0.82319,-0.51689 0.63414,-0.0242 -0.0787,0.20495 -0.46484,0.50596 -0.8582,0.66889 -0.39336,0.16294 -0.83129,0.51048 -0.97317,0.77232 -0.14189,0.26184 -0.43657,0.8224 -0.65485,1.2457 -0.21828,0.4233 -0.61699,0.99138 -0.88602,1.26241 -0.47672,0.48025 -0.48454,0.47698 -0.3079,-0.12867 z m 3.44287,-2.87039 c 0.0899,-0.14552 0.21603,-0.26458 0.2802,-0.26458 0.0642,0 0.11668,0.11906 0.11668,0.26458 0,0.14552 -0.12609,0.26459 -0.2802,0.26459 -0.15411,0 -0.20661,-0.11907 -0.11668,-0.26459 z m 0.2816,-4.57547 c 0.0994,-0.26094 0.2473,-0.40778 0.32876,-0.32632 0.0815,0.0815 1.7e-4,0.29495 -0.18065,0.47443 -0.26131,0.25936 -0.2917,0.22897 -0.14811,-0.14811 z m 3.02039,41.21387 c -0.18408,-0.2218 -0.38917,-0.34878 -0.45577,-0.28219 -0.18348,0.18349 0.18932,0.68546 0.50909,0.68546 0.17544,0 0.15537,-0.15181 -0.0533,-0.40327 z m -3.06173,-1.84569 c -0.23837,-0.3638 -0.48627,-0.66146 -0.55088,-0.66146 -0.12967,0 0.11985,0.47931 0.51651,0.99219 0.45557,0.58906 0.48041,0.35002 0.0344,-0.33073 z m 6.50662,-1.01732 c 0,-0.0502 -0.26789,-0.3181 -0.59531,-0.59532 l -0.59532,-0.50403 0.50403,0.59532 c 0.47366,0.55944 0.6866,0.71576 0.6866,0.50403 z m -2.91042,-1.65699 c 0,-0.21898 -0.51375,-0.34281 -0.63153,-0.15223 -0.0764,0.12364 0.0344,0.22481 0.2463,0.22481 0.21188,0 0.38523,-0.0327 0.38523,-0.0726 z m -4.84634,-9.67842 c -0.0845,-0.21107 -0.14716,-0.14838 -0.15985,0.15985 -0.0115,0.27891 0.051,0.43518 0.13896,0.34727 0.0879,-0.0879 0.0973,-0.31613 0.0209,-0.50712 z m -6.87917,-0.79375 c -0.0845,-0.21107 -0.14715,-0.14838 -0.15985,0.15985 -0.0115,0.27891 0.0511,0.43518 0.13897,0.34727 0.0879,-0.0879 0.0973,-0.31613 0.0209,-0.50712 z m 6.35165,-0.94258 c -0.0666,-0.25466 -0.121,-0.0463 -0.121,0.46302 0,0.50932 0.0545,0.71768 0.121,0.46302 0.0665,-0.25466 0.0665,-0.67138 0,-0.92604 z m 8.81345,-0.16604 c 0,-0.0549 -0.20836,-0.2633 -0.46302,-0.46302 -0.41965,-0.32911 -0.42901,-0.31975 -0.0999,0.0999 0.34564,0.44073 0.56292,0.58089 0.56292,0.36313 z m -10.19776,-4.37974 c 0.0837,-0.13547 0.0312,-0.32109 -0.11668,-0.41249 -0.14789,-0.0914 -0.2689,0.0194 -0.2689,0.2463 0,0.46475 0.15877,0.53318 0.38558,0.16619 z m 0.67739,-2.74001 c -0.17248,-0.42856 -0.2324,-0.12444 -0.22346,1.13423 0.0119,1.66737 0.019,1.68522 0.23568,0.58556 0.12649,-0.64203 0.12119,-1.38834 -0.0122,-1.71979 z m -3.26348,0.82003 c -0.0845,-0.21106 -0.14715,-0.14837 -0.15985,0.15986 -0.0115,0.27891 0.0511,0.43518 0.13897,0.34726 0.0879,-0.0879 0.0973,-0.31612 0.0209,-0.50712 z m 2.71291,-0.41341 c -0.0154,-0.91383 -0.0371,-0.94131 -0.27414,-0.348 -0.14155,0.3543 -0.19727,0.80079 -0.12382,0.99219 0.2442,0.63637 0.41493,0.36 0.39796,-0.64419 z m 6.74968,0.44042 c -0.0852,-0.13784 -0.26767,-0.18091 -0.40551,-0.0957 -0.13784,0.0852 -0.18092,0.26766 -0.0957,0.4055 0.0852,0.13784 0.26767,0.18092 0.40551,0.0957 0.13784,-0.0852 0.18092,-0.26767 0.0957,-0.40551 z m -0.13404,-1.06509 c -0.38833,-0.7256 -0.69482,-0.80278 -0.62267,-0.15681 0.0776,0.69468 0.0246,0.62714 0.4918,0.62714 0.28464,0 0.31815,-0.1204 0.13087,-0.47033 z m -6.24037,-2.08731 c 0.11955,-0.65151 0.0928,-0.80838 -0.0902,-0.52916 -0.14308,0.21828 -0.26198,0.68461 -0.26421,1.03628 -0.005,0.84921 0.14506,0.63398 0.35445,-0.50712 z m 15.05468,0.2261 c -0.47037,-0.47037 -2.96132,-1.27413 -3.41233,-1.10106 -0.6273,0.24071 0.14809,0.61609 0.96153,0.4655 0.36502,-0.0676 0.49613,-0.0465 0.29136,0.0469 -0.26484,0.12078 -0.15029,0.26777 0.39687,0.50926 1.01429,0.44766 2.1835,0.50032 1.76257,0.0794 z m -10.12151,-0.17553 c 0,-0.11771 -0.18053,-0.44513 -0.40118,-0.7276 -0.372,-0.47625 -0.37853,-0.46069 -0.0898,0.21401 0.31152,0.728 0.491,0.91574 0.491,0.51359 z m -4.7625,-1.63807 c 0,-0.14552 -0.12609,-0.26458 -0.2802,-0.26458 -0.15411,0 -0.20662,0.11906 -0.11668,0.26458 0.0899,0.14552 0.21603,0.26459 0.2802,0.26459 0.0642,0 0.11668,-0.11907 0.11668,-0.26459 z m 4.1263,-0.30546 c 0.11697,-0.18926 0.0726,-0.23364 -0.11667,-0.11668 -0.16801,0.10384 -0.30547,0.0429 -0.30547,-0.13551 0,-0.17836 -0.0714,-0.25284 -0.15878,-0.16551 -0.15135,0.15136 0.0788,0.72316 0.29107,0.72316 0.0556,0 0.18602,-0.13746 0.28985,-0.30546 z m 6.12079,-3.29397 c -0.0879,-0.0879 -0.31612,-0.0973 -0.50712,-0.0209 -0.21107,0.0845 -0.14837,0.14716 0.15985,0.15985 0.27892,0.0115 0.43519,-0.0511 0.34727,-0.13896 z m 1.88127,-0.77864 c 0.69616,-1.5279 0.19714,-3.13412 -1.35237,-4.35297 -0.73767,-0.58025 -0.98686,-0.40785 -0.3911,0.27059 0.1819,0.20714 0.0829,0.17116 -0.21991,-0.08 -0.30285,-0.25111 -0.61835,-0.38886 -0.70111,-0.3061 -0.0828,0.0828 -0.24032,0.005 -0.35014,-0.1726 -0.13609,-0.22021 -0.0813,-0.26062 0.17195,-0.12693 0.20438,0.10787 0.0739,-0.0627 -0.28985,-0.37896 -0.3638,-0.31629 -0.52086,-0.50328 -0.34901,-0.41551 0.17184,0.0877 0.39929,0.009 0.50544,-0.17548 0.10614,-0.18428 0.0987,-0.24994 -0.0165,-0.14592 -0.11522,0.10402 -0.42236,0.0752 -0.68253,-0.064 -0.32936,-0.17627 -0.51896,-0.15335 -0.62423,0.0754 -0.0832,0.18074 -0.08,0.0458 0.007,-0.29983 0.10414,-0.41369 0.0607,-0.56822 -0.12698,-0.4522 -0.16405,0.10139 -0.35568,-0.10467 -0.45118,-0.48518 -0.0913,-0.36378 -0.31661,-0.78641 -0.50067,-0.93918 -0.25853,-0.21455 -0.31498,-0.11167 -0.24813,0.45217 0.0476,0.40146 0.0223,0.5201 -0.0563,0.26366 -0.0786,-0.25644 -0.27023,-0.38751 -0.42596,-0.29126 -0.18873,0.11663 -0.22979,-0.0808 -0.12314,-0.59208 l 0.16001,-0.76707 -0.37407,0.79375 c -0.30482,0.6468 -0.38196,0.69579 -0.4167,0.26459 -0.0362,-0.44953 -0.0608,-0.45948 -0.16362,-0.0661 -0.20249,0.77484 -0.61031,0.51716 -0.62814,-0.39687 -0.0165,-0.84747 -0.0208,-0.85034 -0.29477,-0.19844 -0.16548,0.39375 -0.32846,0.52694 -0.4027,0.32908 -0.0686,-0.18281 -0.22278,-0.27176 -0.34265,-0.19768 -0.11987,0.0741 -0.0709,0.76744 0.10892,1.5408 0.32669,1.40539 1.44325,3.30036 2.51093,4.26145 0.43422,0.39087 0.48766,0.56305 0.22923,0.73863 -0.25528,0.17344 -0.24056,0.21063 0.0607,0.15338 0.21873,-0.0416 0.77591,0.19375 1.23819,0.52292 1.50042,1.0684 3.11396,1.90539 3.67946,1.90865 0.33755,0.002 0.67242,-0.25925 0.8599,-0.67072 z m -5.39237,-5.95828 c -0.0959,-0.1552 -0.11765,-0.33893 -0.0483,-0.40829 0.0694,-0.0693 0.1966,0.0576 0.28277,0.28219 0.17891,0.46622 0.0264,0.54823 -0.23447,0.1261 z m -1.17974,-0.76053 c 0,-0.13693 0.11769,-0.32171 0.26155,-0.41062 0.14998,-0.0927 0.19434,0.0135 0.10398,0.24897 -0.17589,0.45837 -0.36553,0.54223 -0.36553,0.16165 z m -8.57504,2.90504 c 0.20841,-0.64921 0.27477,-1.06593 0.14747,-0.92604 -0.31095,0.34169 -0.83797,1.94921 -0.81196,2.47663 0.0233,0.47246 -0.01,0.54919 0.66449,-1.55059 z m 4.58154,-5.83107 0.59764,-0.92605 -0.68201,0.79375 c -0.3751,0.43657 -0.6826,0.90289 -0.68332,1.03629 -0.002,0.28697 0.001,0.28388 0.76769,-0.90399 z m 0.61319,-1.17545 c 0.0838,0.0838 0.24217,0.007 0.35198,-0.17075 0.13479,-0.21809 0.0893,-0.25483 -0.14012,-0.11306 -0.2265,0.13998 -0.29894,0.0874 -0.21727,-0.15756 0.0674,-0.20216 0.26446,-0.36756 0.43795,-0.36756 0.26379,0 2.15402,-2.1223 2.15402,-2.41848 0,-0.31159 -0.57484,-0.0176 -0.71952,0.36796 -0.0956,0.25466 -0.3597,0.60225 -0.587,0.77242 -0.2273,0.17017 -0.41869,0.46783 -0.4253,0.66146 -0.007,0.19363 -0.14753,0.32493 -0.31314,0.29177 -0.16561,-0.0331 -0.68942,0.4431 -1.16401,1.05834 -0.67538,0.87554 -0.71806,0.98873 -0.1964,0.52088 0.36658,-0.32875 0.73504,-0.52919 0.81881,-0.44542 z m 2.7673,0.0675 c -0.0845,-0.21106 -0.14716,-0.14837 -0.15986,0.15986 -0.0115,0.27891 0.0511,0.43518 0.13897,0.34726 0.0879,-0.0879 0.0973,-0.31612 0.0209,-0.50712 z m 1.02566,-5.00247 c 0.37613,-0.59583 0.61575,-1.15145 0.53249,-1.23472 -0.0833,-0.0833 -0.18116,-0.10178 -0.21754,-0.0411 -0.53029,0.88382 -1.24053,2.3592 -1.1357,2.3592 0.0753,0 0.44462,-0.4875 0.82075,-1.08333 z m 1.87166,-0.44696 c -0.0705,-0.11406 0.27698,-0.8582 0.77216,-1.65365 0.49518,-0.79545 0.90301,-1.58659 0.9063,-1.7581 0.003,-0.1715 0.16051,-0.46916 0.34939,-0.66145 0.18888,-0.1923 0.6243,-1.10495 0.9676,-2.02813 0.68554,-1.84351 0.57219,-2.14578 -0.80773,-2.15391 -0.58003,-0.003 -0.69079,0.11729 -0.70944,0.77315 -0.0121,0.42746 -0.15352,1.02277 -0.31415,1.32292 -0.22445,0.41938 -0.21334,0.54758 0.048,0.55376 0.19635,0.005 0.13948,0.12474 -0.13458,0.28422 -0.3252,0.18922 -0.4204,0.44702 -0.30239,0.81884 0.0976,0.30763 0.0662,0.47714 -0.0725,0.39139 -0.13461,-0.0832 -0.55774,0.4869 -0.94028,1.26689 -0.58413,1.19102 -0.63202,1.44253 -0.29902,1.57031 0.21809,0.0837 0.33604,0.0543 0.26212,-0.0653 -0.0739,-0.1196 0.0396,-0.21745 0.25238,-0.21745 0.33593,0 0.3344,0.0799 -0.0116,0.60805 -0.46661,0.71214 -0.51199,1.15584 -0.11821,1.15584 0.15411,0 0.22252,-0.0933 0.15203,-0.20738 z m 3.0735,-8.6991 c -0.1819,-0.0734 -0.47956,-0.0734 -0.66146,0 -0.1819,0.0734 -0.0331,0.13345 0.33073,0.13345 0.3638,0 0.51263,-0.0601 0.33073,-0.13345 z m 0.7276,-0.46459 c 0,-0.0609 0.0693,-0.32875 0.15389,-0.59531 0.14082,-0.4435 0.11836,-0.44105 -0.26458,0.0289 -0.23016,0.28248 -0.41847,0.38152 -0.41847,0.22008 0,-0.16143 -0.0689,-0.47316 -0.1532,-0.69272 -0.11504,-0.2998 -0.0162,-0.36339 0.39688,-0.25537 0.50278,0.13149 0.55007,0.0303 0.55007,-1.17685 0,-0.72639 0.0618,-1.72254 0.13734,-2.21367 0.10678,-0.69417 0.0815,-0.77516 -0.11369,-0.36381 -0.21679,0.45697 -0.25358,0.466 -0.26964,0.0661 -0.0226,-0.56269 -0.81235,-0.62699 -0.81235,-0.0661 0,0.54965 -0.46355,0.4995 -0.61136,-0.0661 -0.0911,-0.34843 -0.1286,-0.31569 -0.1517,0.13229 -0.0254,0.49189 0.10721,0.59531 0.76306,0.59531 0.69826,0 0.78942,0.0875 0.75772,0.72761 -0.0309,0.62384 -0.0524,0.64271 -0.15069,0.13229 -0.14202,-0.73736 -0.60703,-0.78803 -0.60703,-0.0661 0,0.72189 -0.465,0.67122 -0.60702,-0.0661 -0.0983,-0.51042 -0.1198,-0.49156 -0.1507,0.13229 -0.0198,0.40018 0.083,0.7276 0.22856,0.7276 0.14552,0 0.26458,0.59158 0.26458,1.31462 0,1.05984 -0.0769,1.28509 -0.39688,1.16231 -0.21828,-0.0838 -0.39687,-0.0205 -0.39687,0.1406 0,0.16109 0.41672,0.29289 0.92604,0.29289 0.50932,0 0.92604,-0.0498 0.92604,-0.11065 z m -0.26458,-2.11626 c 0,-0.20615 -0.14883,-0.43488 -0.33073,-0.50828 -0.19758,-0.0797 -0.14431,-0.14186 0.13229,-0.15434 0.2936,-0.0132 0.46302,0.17274 0.46302,0.50828 0,0.29104 -0.0595,0.52917 -0.13229,0.52917 -0.0728,0 -0.13229,-0.16868 -0.13229,-0.37483 z m -1.05833,-0.0377 c 0,-0.2097 -0.11907,-0.38126 -0.26459,-0.38126 -0.14552,0 -0.26458,0.24515 -0.26458,0.54478 0,0.29963 0.11906,0.47119 0.26458,0.38126 0.14552,-0.0899 0.26459,-0.33509 0.26459,-0.54478 z m 0.77255,-4.01928 c 0.25685,-0.44098 0.27007,-0.44098 0.27773,0 0.004,0.25466 0.18664,0.46302 0.40492,0.46302 0.23639,0 0.39524,-0.24074 0.39283,-0.59532 -0.003,-0.48139 -0.0531,-0.51936 -0.26053,-0.19843 -0.17099,0.26458 -0.25784,0.28663 -0.26054,0.0661 -0.002,-0.1819 -0.17272,-0.33073 -0.37887,-0.33073 -0.20616,0 -0.44428,0.14883 -0.52917,0.33073 -0.12347,0.26459 -0.18521,0.26459 -0.30868,0 -0.0849,-0.1819 -0.26767,-0.33073 -0.40619,-0.33073 -0.14895,0 -0.13613,0.2162 0.0314,0.52917 0.34881,0.65175 0.68362,0.6731 1.03714,0.0661 z m 1.34411,-1.12448 c 0,-0.14619 -0.6808,-0.26277 -1.52135,-0.26054 -1.07987,0.003 -1.40619,0.0785 -1.12448,0.26054 0.52401,0.33864 2.64583,0.33864 2.64583,0 z m 0,-0.79375 c 0,-0.14552 -0.65484,-0.26459 -1.45521,-0.26459 -0.80036,0 -1.4552,0.11907 -1.4552,0.26459 0,0.14552 0.65484,0.26458 1.4552,0.26458 0.80037,0 1.45521,-0.11906 1.45521,-0.26458 z m -0.13229,-0.79375 c 0.0899,-0.14552 -0.0221,-0.26459 -0.24897,-0.26459 -0.22687,0 -0.41249,0.11907 -0.41249,0.26459 0,0.14552 0.11204,0.26458 0.24897,0.26458 0.13693,0 0.32255,-0.11906 0.41249,-0.26458 z m -1.95279,-0.24507 c -0.19725,-0.1219 -0.45837,-0.38302 -0.58027,-0.58026 -0.16077,-0.26014 -0.21048,-0.21043 -0.18099,0.18099 0.0255,0.33797 0.24229,0.5548 0.58026,0.58026 0.39143,0.0295 0.44113,-0.0202 0.181,-0.18099 z m 1.8205,-0.92994 c 0,-0.0642 -0.11906,-0.19027 -0.26458,-0.2802 -0.14553,-0.0899 -0.26459,-0.0374 -0.26459,0.11667 0,0.15411 0.11906,0.2802 0.26459,0.2802 0.14552,0 0.26458,-0.0525 0.26458,-0.11667 z m 0.52917,-0.92444 c 0,-0.17045 -0.67958,-0.2818 -1.7198,-0.2818 -2.23279,0 -2.23237,0.37196 5.3e-4,0.48024 1.09203,0.0529 1.71927,-0.0194 1.71927,-0.19844 z m -0.26459,-0.81097 c 0.27491,-0.17766 -0.17228,-0.24702 -1.45521,-0.2257 -1.50347,0.025 -1.67778,0.0675 -0.92604,0.2257 1.36264,0.28682 1.93743,0.28682 2.38125,0 z m 0,-0.80937 c 0,-0.15411 -0.12428,-0.20339 -0.27617,-0.10951 -0.1519,0.0939 -0.43376,0.0399 -0.62635,-0.11994 -0.26023,-0.21597 -0.43549,-0.18784 -0.68227,0.10952 -0.286,0.3446 -0.19907,0.40013 0.62635,0.40013 0.52715,0 0.95844,-0.12609 0.95844,-0.2802 z m -1.56951,-1.7462 c 0.42924,-1.30797 0.49897,-0.89228 0.0844,0.50338 -0.10143,0.34152 -0.0259,0.41872 0.29072,0.29722 0.31679,-0.12157 0.40707,-0.44181 0.34803,-1.23455 -0.0858,-1.15259 -0.59295,-1.59849 -0.86022,-0.75639 -0.11084,0.34923 -0.32771,0.47373 -0.66951,0.38435 -0.38027,-0.0994 -0.49572,-0.002 -0.46585,0.39498 0.0236,0.31373 0.1785,0.47393 0.38248,0.39566 0.19846,-0.0762 0.34276,0.0594 0.34276,0.32196 0,0.2944 -0.13923,0.40006 -0.39688,0.30119 -0.48197,-0.18494 -0.52061,0.24829 -0.0661,0.74163 0.42324,0.45944 0.41131,0.47538 1.01017,-1.34943 z m 1.8341,0.95245 c 0,-0.15411 -0.1393,-0.19411 -0.30955,-0.0889 -0.20814,0.12863 -0.2542,0.0471 -0.1406,-0.24897 0.0929,-0.24216 0.0536,-0.44028 -0.0873,-0.44028 -0.14096,0 -0.25628,0.23812 -0.25628,0.52917 0,0.29398 0.17638,0.52916 0.39687,0.52916 0.21828,0 0.39688,-0.12609 0.39688,-0.2802 z m -3.52343,-1.62149 c -0.0845,-0.21107 -0.14716,-0.14837 -0.15985,0.15985 -0.0115,0.27892 0.051,0.43519 0.13896,0.34727 0.0879,-0.0879 0.0973,-0.31613 0.0209,-0.50712 z m 3.51484,-2.10752 c -0.17794,-0.83849 -0.41549,-1.49983 -0.52789,-1.46964 -0.20807,0.0559 -0.26044,-0.0832 -0.25322,-0.67271 0.003,-0.24763 0.0603,-0.24206 0.22776,0.0222 0.18012,0.28414 0.25505,0.27125 0.38452,-0.0662 0.0884,-0.23049 0.0288,-0.41907 -0.13245,-0.41907 -0.16129,0 -0.44012,-0.20085 -0.61963,-0.44634 -0.29838,-0.40806 -0.34226,-0.39625 -0.51175,0.13776 -0.12577,0.39628 0.0245,0.95959 0.46728,1.75183 0.51924,0.92903 0.57732,1.19664 0.28414,1.30915 -0.25043,0.0961 -0.36851,-0.0575 -0.36851,-0.47935 0,-0.34142 -0.16691,-0.75928 -0.37091,-0.92859 -0.74832,-0.62105 -0.73598,-1.53643 0.0311,-2.30346 0.39694,-0.39694 0.60399,-0.76094 0.46012,-0.8089 -0.14387,-0.048 -0.24317,-0.47865 -0.22067,-0.9571 0.0401,-0.85349 -0.53577,-2.01868 -0.84494,-1.7095 -0.0864,0.0864 -0.38962,-0.0755 -0.67385,-0.3597 -0.28422,-0.28422 -0.61901,-0.45358 -0.74397,-0.37635 -0.12497,0.0772 -0.30202,-0.0545 -0.39346,-0.2928 -0.0914,-0.23827 -0.23596,-0.36351 -0.32117,-0.27829 -0.0852,0.0852 0.10372,0.51815 0.41984,0.9621 0.62101,0.87213 0.49064,1.72078 -0.13715,0.89277 -0.19968,-0.26337 -0.36684,-0.33705 -0.37147,-0.16374 -0.005,0.17331 0.11549,0.39169 0.26693,0.48529 0.15144,0.0936 0.1938,0.4271 0.0941,0.74114 -0.16061,0.50603 -0.13174,0.52991 0.25382,0.20992 0.23927,-0.19858 0.43504,-0.51233 0.43504,-0.69722 0,-0.1849 0.17859,-0.4047 0.39687,-0.48847 0.43009,-0.16504 0.52658,0.10232 0.18255,0.50579 -0.11789,0.13824 -0.35085,0.57306 -0.51771,0.96626 -0.25393,0.59838 -0.24056,0.69079 0.082,0.567 0.21198,-0.0813 0.38541,-0.41824 0.38541,-0.74865 0,-0.33042 0.20089,-0.76416 0.44642,-0.96388 0.39707,-0.32299 0.42332,-0.30464 0.23752,0.16604 -0.11489,0.29104 -0.32361,0.84565 -0.46382,1.23245 -0.14727,0.40628 -0.52692,0.77156 -0.89898,0.86494 -0.70252,0.17632 -0.83113,0.65241 -0.31554,1.168 0.26164,0.26164 0.25852,0.37178 -0.0153,0.54101 -0.27046,0.16716 -0.22208,0.41884 0.22679,1.17961 0.31383,0.53191 0.46955,0.96894 0.34604,0.97116 -0.12352,0.002 -0.0536,0.11222 0.15529,0.24442 0.3174,0.20085 0.32208,0.30999 0.0284,0.6638 -0.54572,0.65756 -0.22072,0.68986 0.56544,0.0562 0.66474,-0.53579 0.68476,-0.61302 0.31969,-1.23305 -0.35779,-0.60766 -0.37636,-0.61304 -0.22831,-0.0661 0.18159,0.67079 -0.25919,0.82429 -0.50765,0.1768 -0.4496,-1.17162 0.28665,-1.23847 1.12666,-0.10229 0.33283,0.45018 0.78999,0.76942 1.04194,0.7276 0.35399,-0.0588 0.47251,0.17729 0.56043,1.11612 0.0753,0.80392 0.14793,0.98048 0.22362,0.5436 0.0617,-0.35586 -0.0335,-1.33307 -0.21142,-2.17156 z m -3.431,-1.69494 c 0,-0.24757 0.12377,-0.336 0.30955,-0.22118 0.21803,0.13475 0.24845,0.0416 0.1029,-0.31512 -0.31507,-0.77213 -0.31074,-1.23235 0.0127,-1.34726 0.24657,-0.0876 0.32661,1.10273 0.14105,2.09761 -0.0712,0.38174 -0.56618,0.19461 -0.56618,-0.21405 z m 3.09116,3.53788 c -0.0845,-0.21107 -0.14716,-0.14838 -0.15985,0.15985 -0.0115,0.27891 0.051,0.43518 0.13896,0.34727 0.0879,-0.0879 0.0973,-0.31613 0.0209,-0.50712 z m 0.79375,-3.43959 c -0.0845,-0.21106 -0.14716,-0.14837 -0.15985,0.15986 -0.0115,0.27891 0.051,0.43518 0.13896,0.34726 0.0879,-0.0879 0.0973,-0.31612 0.0209,-0.50712 z m 0.0364,-1.86862 c -0.0138,-1.08679 -0.87618,-2.80255 -1.23049,-2.44824 -0.089,0.0891 -0.001,0.26119 0.19505,0.38253 0.21604,0.13352 0.27178,0.35844 0.1412,0.56973 -0.31267,0.50591 -0.38979,1.59867 -0.1002,1.41969 0.13526,-0.0836 0.3846,0.15239 0.5541,0.52439 0.1695,0.37201 0.34114,0.67638 0.38142,0.67638 0.0403,0 0.0668,-0.50601 0.0589,-1.12448 z m -0.2171,-2.82865 c 0,-0.13693 -0.12101,-0.32376 -0.2689,-0.41516 -0.14789,-0.0914 -0.1992,-0.27897 -0.11401,-0.41681 0.0852,-0.13784 0.25325,-0.18982 0.37347,-0.11553 0.12021,0.0743 0.27998,-0.0249 0.35502,-0.22049 0.0957,-0.24937 -0.0738,-0.34032 -0.56758,-0.30448 -0.38722,0.0281 -1.0017,0.0732 -1.3655,0.10028 l -0.66146,0.0492 0.86407,0.78599 c 0.87342,0.79451 1.38489,0.99284 1.38489,0.53703 z m -1.19063,-0.80937 c -0.0899,-0.14552 -0.0374,-0.26458 0.11668,-0.26458 0.15411,0 0.2802,0.11906 0.2802,0.26458 0,0.14552 -0.0525,0.26459 -0.11668,0.26459 -0.0642,0 -0.19026,-0.11907 -0.2802,-0.26459 z m -1.27453,-2.20336 c -0.0794,-0.59203 -0.0495,-0.92284 0.0666,-0.73512 0.14419,0.2333 0.25632,0.1039 0.35436,-0.40893 l 0.14341,-0.75023 -0.63708,0.74066 c -0.63819,0.74194 -0.77645,1.36304 -0.47707,2.1432 0.30398,0.79218 0.69453,0.0893 0.54982,-0.98958 z m -0.42437,0.46152 c 0.0127,-0.30822 0.0754,-0.37092 0.15985,-0.15985 0.0764,0.19099 0.067,0.4192 -0.0209,0.50712 -0.0879,0.0879 -0.15045,-0.0683 -0.13896,-0.34727 z m 2.20643,0.52291 c 0.57414,-0.22032 0.53219,-0.65474 -0.0445,-0.46095 -0.25466,0.0856 -0.0794,-0.12652 0.38948,-0.47132 0.8298,-0.61024 1.00754,-1.22045 0.47042,-1.61506 -0.40844,-0.30007 -0.71436,-0.23756 -0.5039,0.10298 0.10383,0.168 0.0768,0.23624 -0.0601,0.15163 -0.1369,-0.0846 -0.514,-0.68463 -0.838,-1.33338 -0.58309,-1.16752 -0.55858,-2.03413 0.0575,-2.03413 0.17527,0 0.56453,-0.22905 0.86501,-0.50899 0.38892,-0.36234 0.6281,-0.4272 0.83016,-0.22513 0.20207,0.20206 0.2715,0.12002 0.24101,-0.28477 -0.0236,-0.31274 -0.14929,-0.56861 -0.27942,-0.56861 -0.13012,0 -0.16805,-0.1786 -0.0843,-0.39688 0.18136,-0.4726 -0.13003,-0.52127 -0.56325,-0.088 -0.23538,0.23538 -0.34909,0.20392 -0.4781,-0.13229 -0.0931,-0.24261 -0.26952,-0.44112 -0.39205,-0.44112 -0.12253,0 -0.0487,0.41672 0.16415,0.92604 0.35681,0.85397 0.31469,1.04109 -0.21549,0.95738 -0.10914,-0.0172 -0.19844,0.0877 -0.19844,0.23325 0,0.14552 -0.11906,0.26458 -0.26458,0.26458 -0.14552,0 -0.26458,-0.12756 -0.26458,-0.28348 0,-0.15591 -0.1786,-0.46208 -0.39688,-0.68036 -0.51009,-0.51009 -0.51618,-0.0888 -0.008,0.58254 0.50411,0.6665 0.50762,1.00635 0.008,0.81479 -0.21828,-0.0838 -0.39687,-0.0171 -0.39687,0.14808 0,0.16521 -0.0765,0.22388 -0.17,0.13038 -0.0935,-0.0935 -0.035,-0.33265 0.13,-0.53146 0.16499,-0.19881 0.2346,-0.42686 0.15467,-0.50678 -0.22104,-0.22105 -1.18599,0.0912 -1.03531,0.33504 0.0725,0.11725 -0.0621,0.40704 -0.29906,0.64398 -0.23694,0.23694 -0.35511,0.50649 -0.2626,0.599 0.0925,0.0925 0.29384,0.0426 0.44741,-0.11101 0.36886,-0.36886 1.29827,0.0677 1.93161,0.90734 0.3988,0.52871 0.42623,0.75267 0.16845,1.37501 -0.31669,0.76456 -0.1274,2.66235 0.26555,2.66235 0.11742,0 0.40183,-0.0723 0.63201,-0.1606 z m -0.8858,-1.36075 c 0.0102,-0.25467 0.10847,-0.69245 0.21831,-0.97285 0.17871,-0.45617 0.21764,-0.46314 0.36998,-0.0661 0.0949,0.24721 0.0431,0.44367 -0.11689,0.44367 -0.15792,0 -0.22486,0.23813 -0.14875,0.52917 0.0761,0.29104 0.0305,0.52917 -0.10144,0.52917 -0.13189,0 -0.23144,-0.20836 -0.22121,-0.46302 z m -1.87068,0.33072 c 0,-0.64675 -0.1197,-0.92604 -0.39688,-0.92604 -0.42574,0 -0.43066,0.54249 -0.008,0.84551 0.1413,0.10123 0.17107,0.2699 0.0661,0.37483 -0.27707,0.27707 -0.48904,-0.0184 -0.72352,-1.00847 l -0.20683,-0.87333 -0.023,0.79375 c -0.0305,1.05124 0.20399,1.37628 1.22564,1.69891 0.0364,0.0115 0.0661,-0.39583 0.0661,-0.90516 z m 0.70609,-1.55476 c 0.0246,-0.0186 0.11845,-0.33123 0.20867,-0.69474 0.2084,-0.83972 -0.71272,-1.56472 -1.27086,-1.00029 -0.26422,0.2672 -0.39599,1.54614 -0.20719,2.01085 0.0281,0.0692 1.11974,-0.20244 1.26938,-0.31582 z m -1.84566,-1.41676 c -0.0671,-0.25743 -0.12638,-0.11087 -0.13177,0.32569 -0.005,0.43656 0.0495,0.64719 0.12197,0.46806 0.0725,-0.17913 0.0769,-0.53632 0.01,-0.79375 z m 4.31457,0.59027 c 0,-0.21828 0.1915,-0.39687 0.42555,-0.39687 0.33142,0 0.38581,-0.16095 0.24586,-0.7276 -0.25402,-1.02856 -0.52674,-1.21932 -1.16939,-0.81798 -0.56257,0.35133 -0.79111,1.54558 -0.29577,1.54558 0.14552,0 0.26458,0.17859 0.26458,0.39687 0,0.21829 0.11906,0.39688 0.26458,0.39688 0.14552,0 0.26459,-0.17859 0.26459,-0.39688 z m -0.39688,-1.19062 c -0.0899,-0.14552 0.0221,-0.26458 0.24897,-0.26458 0.22687,0 0.41249,0.11906 0.41249,0.26458 0,0.14552 -0.11204,0.26458 -0.24897,0.26458 -0.13693,0 -0.32255,-0.11906 -0.41249,-0.26458 z m -2.18164,-2.96879 c 0.0958,-0.24962 0.0688,-0.51896 -0.06,-0.59854 -0.12876,-0.0796 -0.2815,0.12497 -0.33943,0.45455 l -0.10532,0.59924 -0.2937,-0.66146 c -0.24854,-0.55976 -0.44798,-0.40661 -0.37327,0.28663 0.009,0.0849 -0.16881,0.15434 -0.39546,0.15434 -0.33647,0 -0.38266,-0.22256 -0.25168,-1.21267 0.11047,-0.83509 0.0799,-1.0891 -0.0983,-0.8158 -0.3246,0.49789 -0.35138,2.99389 -0.03,2.79526 0.13028,-0.0805 0.30767,0.0381 0.39421,0.26366 0.13221,0.34453 0.25493,0.31247 0.76806,-0.20065 0.33588,-0.33589 0.68907,-0.81494 0.78486,-1.06456 z m 1.41488,-0.24797 c -0.29096,-0.41541 -0.42386,-0.47884 -0.42386,-0.20232 0,0.42457 0.54791,1.10727 0.73695,0.91824 0.0609,-0.0609 -0.08,-0.38309 -0.31309,-0.71592 z m -2.28532,-1.64213 c -0.0135,-0.4328 -0.76411,0.94472 -0.77337,1.41931 -0.004,0.21828 0.17011,0.0558 0.3875,-0.36098 0.21738,-0.41681 0.39102,-0.89306 0.38587,-1.05833 z m 1.23661,0.75785 c -0.0928,-0.24175 -4.2e-4,-0.39688 0.23627,-0.39688 0.21372,0 0.38858,-0.17859 0.38858,-0.39687 0,-0.50063 -0.12455,-0.49911 -0.63132,0.008 -0.35471,0.35472 -0.33618,1.18297 0.0265,1.18297 0.0728,0 0.0638,-0.17859 -0.02,-0.39687 z m 2.40527,-0.0276 c -0.0879,-0.0879 -0.31612,-0.0973 -0.50712,-0.0209 -0.21106,0.0845 -0.14837,0.14716 0.15986,0.15985 0.27891,0.0115 0.43518,-0.051 0.34726,-0.13896 z m -4.89989,-1.68608 c 0.0636,-0.43318 0.0194,-0.93919 -0.0982,-1.12448 -0.12824,-0.20207 -0.21543,0.11311 -0.21786,0.7876 -0.005,1.30593 0.14969,1.47049 0.31607,0.33688 z m 1.0028,0.25843 c 0,-0.14552 -0.11906,-0.26458 -0.26458,-0.26458 -0.14552,0 -0.26459,-0.12609 -0.26459,-0.2802 0,-0.15411 0.11907,-0.20662 0.26459,-0.11668 0.14552,0.0899 0.26458,-0.0151 0.26458,-0.23335 0,-0.21828 -0.1031,-0.46059 -0.2291,-0.53847 -0.12601,-0.0779 -0.17458,-0.42681 -0.10794,-0.77541 0.0666,-0.3486 -0.0636,-0.99119 -0.28951,-1.42798 -0.22588,-0.43678 -0.33605,-0.86878 -0.24484,-0.96 0.0912,-0.0912 0.0357,-0.16583 -0.12345,-0.16583 -0.1591,0 -0.34373,-0.20836 -0.41028,-0.46302 -0.0666,-0.25466 -0.121,0.13229 -0.121,0.85989 0,0.72761 0.0578,1.09728 0.1284,0.8215 0.0967,-0.37775 0.18106,-0.41622 0.3419,-0.15597 0.11762,0.19031 0.0812,0.5574 -0.0812,0.81735 -0.23143,0.37058 -0.19269,0.58462 0.18042,0.99691 0.30505,0.33707 0.41312,0.72037 0.30191,1.07076 -0.18559,0.58474 4e-4,1.07966 0.40572,1.07966 0.13693,0 0.24897,-0.11906 0.24897,-0.26458 z m 1.19062,-0.12824 c 0.14553,-0.002 0.30287,-0.27371 0.34965,-0.60329 0.0468,-0.32958 0.19561,-0.53091 0.33073,-0.4474 0.13512,0.0835 0.24749,-0.12309 0.24972,-0.4591 0.003,-0.4915 0.0542,-0.53335 0.26053,-0.21405 0.2074,0.32092 0.25725,0.28295 0.26053,-0.19844 0.002,-0.32742 0.12311,-0.59531 0.26864,-0.59531 0.14552,0 0.2688,-0.20836 0.27395,-0.46302 0.005,-0.25467 0.16679,-0.747 0.35917,-1.09408 0.4289,-0.77377 0.77961,-0.34808 0.5306,0.64403 -0.12925,0.51499 -0.23469,0.60517 -0.40092,0.34289 -0.16514,-0.26057 -0.22662,-0.20403 -0.22959,0.21114 -0.006,0.78706 0.69689,1.00324 0.89231,0.27458 0.26366,-0.98307 0.17783,-2.03087 -0.16875,-2.06025 -0.1819,-0.0154 -0.65815,-0.006 -1.05834,0.02 -0.40018,0.0264 -0.7276,-0.0562 -0.7276,-0.18363 0,-0.12738 0.58244,-0.2316 1.29431,-0.2316 1.04799,0 1.26982,0.078 1.16566,0.4101 -0.10663,0.33996 -0.0833,0.34633 0.1364,0.0373 0.14577,-0.20506 0.27696,-1.33616 0.29153,-2.51354 0.0146,-1.1774 0.14119,-3.68852 0.28137,-5.58029 0.36644,-4.945137 0.34566,-7.539702 -0.0604,-7.544677 -0.20482,-0.0025 -0.23,-0.07805 -0.0661,-0.198437 0.14552,-0.106913 0.28876,-0.326443 0.3183,-0.487845 0.0776,-0.423631 -5.60212,-2.295167 -6.33752,-2.088306 -0.48721,0.137047 -0.52327,0.112086 -0.19849,-0.137397 0.32792,-0.251896 0.29338,-0.282181 -0.1988,-0.174298 -0.37885,0.08304 -0.53242,0.02821 -0.42188,-0.150641 0.11646,-0.18844 -0.10597,-0.225257 -0.67425,-0.111601 -0.52988,0.105975 -0.78762,0.07184 -0.68698,-0.09099 0.0886,-0.143329 0.0198,-0.260599 -0.15296,-0.260599 -0.21363,0 -0.26517,0.317168 -0.16122,0.992188 0.084,0.545703 0.3419,3.254374 0.57303,6.01927 0.75,8.971723 0.6715,8.388393 1.10638,8.221513 0.21746,-0.0834 0.48278,-0.15172 0.5896,-0.15172 0.10682,0 0.45319,-0.46078 0.76971,-1.02395 0.31652,-0.56317 0.74871,-1.1677 0.96041,-1.3434 0.21171,-0.1757 0.0404,0.314844 -0.3807,1.09009 -0.50712,0.93364 -1.04257,1.53061 -1.58592,1.76811 -0.80068,0.34998 -0.94548,0.82592 -0.3152,1.03601 0.17281,0.0576 0.3142,-0.0838 0.3142,-0.31419 0,-0.23054 0.20821,-0.40953 0.46302,-0.39804 0.27933,0.0126 0.33116,0.074 0.13064,0.15489 -0.18281,0.0737 -0.26508,0.2429 -0.18282,0.37599 0.0822,0.13309 0.0106,0.24199 -0.15933,0.24199 -0.19735,0 -0.24894,0.23882 -0.14286,0.66145 0.0957,0.38144 0.0519,0.66146 -0.10361,0.66146 -0.1483,0 -0.26963,-0.12609 -0.26963,-0.2802 0,-0.15411 -0.11906,-0.20661 -0.26458,-0.11667 -0.47313,0.29241 -0.28035,0.54474 0.46302,0.60603 0.40018,0.033 0.76729,0.17802 0.8158,0.32229 0.18451,0.54875 0.74395,0.22795 1.04214,-0.59759 0.35752,-0.98983 0.16745,-2.05052 -0.36744,-2.05052 -0.46721,0 -0.4602,-0.11843 0.0735,-1.24322 l 0.43957,-0.926314 0.34481,0.621744 c 0.42061,0.75843 0.44589,1.01862 0.099,1.01862 -0.14552,0 -0.26641,-0.20836 -0.26864,-0.46302 -0.003,-0.37129 -0.0505,-0.38972 -0.23833,-0.093 -0.28404,0.44861 0.21903,1.07756 0.71091,0.88881 0.24436,-0.0938 0.31863,0.13573 0.26598,0.82183 -0.0402,0.52355 -0.19211,0.94904 -0.33763,0.94553 -0.29935,-0.007 -0.66632,1.81267 -0.46913,2.32654 0.0709,0.1847 0.35425,0.33583 0.62973,0.33583 0.56879,0 0.59931,0.0873 0.25559,0.73119 -0.1349,0.25269 -0.3174,0.6877 -0.40555,0.9667 -0.12216,0.38662 -0.23373,0.43381 -0.46911,0.19844 -0.16985,-0.16986 -0.48206,-0.30883 -0.69379,-0.30883 -0.31229,0 -0.29905,0.0949 0.0702,0.5029 0.29793,0.3292 0.35778,0.56306 0.1733,0.67707 -0.155,0.0958 -0.28182,0.47183 -0.28182,0.83563 0,0.46478 0.0983,0.59902 0.33073,0.45146 0.1819,-0.1155 0.44979,-0.21182 0.59531,-0.21405 z m 0.61185,-5.60875 c 0.191,-0.0764 0.4192,-0.067 0.50712,0.0209 0.0879,0.0879 -0.0683,0.15045 -0.34726,0.13896 -0.30823,-0.0127 -0.37092,-0.0754 -0.15986,-0.15985 z m 2.69545,-0.0838 c 0,-0.14552 0.11906,-0.26459 0.26458,-0.26459 0.14552,0 0.26458,0.11907 0.26458,0.26459 0,0.14552 -0.11906,0.26458 -0.26458,0.26458 -0.14552,0 -0.26458,-0.11906 -0.26458,-0.26458 z m -1.20433,-0.46302 c -0.11143,-0.25467 -0.1837,-0.55232 -0.1606,-0.66146 0.0231,-0.10914 -0.0643,-0.19844 -0.19427,-0.19844 -0.12995,0 -0.30481,-0.17859 -0.38857,-0.39688 -0.33738,-0.87921 0.3827,-0.32488 0.85925,0.66146 0.28123,0.58209 0.41581,1.05834 0.29906,1.05834 -0.11674,0 -0.30343,-0.20836 -0.41487,-0.46302 z m -3.82276,-0.48192 c 0,-0.28103 0.81776,-0.97134 0.97014,-0.81895 0.0832,0.0832 -0.0331,0.33545 -0.25828,0.56066 -0.42013,0.42013 -0.71186,0.52598 -0.71186,0.25829 z m 4.61463,-0.23728 c -0.28247,-0.21365 -0.38751,-0.39224 -0.23343,-0.39687 0.15409,-0.005 0.51128,0.16639 0.79375,0.38005 0.28248,0.21365 0.38752,0.39224 0.23343,0.39687 -0.15408,0.005 -0.51127,-0.16639 -0.79375,-0.38005 z m 0.28204,-0.66684 c -0.0927,-0.14998 0.0135,-0.19433 0.24897,-0.10398 0.45836,0.17589 0.54223,0.36554 0.16164,0.36554 -0.13693,0 -0.32171,-0.1177 -0.41061,-0.26156 z m -1.24862,-0.66449 c -0.0929,-0.29104 -0.24654,-0.91475 -0.34136,-1.38602 -0.0948,-0.47128 -0.28094,-0.923945 -0.4136,-1.005931 -0.13265,-0.08199 -0.17331,0.06548 -0.0903,0.327694 0.1319,0.416837 0.0938,0.410257 -0.30321,-0.0524 -0.37299,-0.434674 -0.42409,-0.446485 -0.28618,-0.06615 0.4789,1.320787 0.4721,1.383777 -0.0816,0.755747 -0.49552,-0.562051 -0.51671,-0.696031 -0.18831,-1.190627 0.20352,-0.306519 0.51833,-0.557308 0.69957,-0.557308 0.41483,0 1.38122,2.412995 1.26253,3.152415 -0.0868,0.54107 -0.0918,0.54151 -0.25752,0.0226 z m -1.14539,-0.14989 c -0.0959,-0.1552 -0.11086,-0.34572 -0.0332,-0.42337 0.18952,-0.18952 0.70555,0.14442 0.70555,0.45659 0,0.33813 -0.45678,0.31556 -0.67234,-0.0332 z m 1.23656,-2.120083 c -0.50908,-1.312879 -0.71777,-1.588041 -1.12386,-1.481846 -0.27428,0.07173 -0.49869,0.03523 -0.49869,-0.0811 0,-0.280639 0.78162,-0.571427 1.06508,-0.396241 0.28423,0.175665 1.36164,3.03441 1.25931,3.34141 -0.0422,0.12652 -0.358,-0.49548 -0.70184,-1.382227 z m -3.47463,-6.593562 c -0.21829,-0.141065 -0.27782,-0.256481 -0.1323,-0.256481 0.14553,0 0.44318,0.115416 0.66146,0.256481 0.21828,0.141064 0.27782,0.25648 0.13229,0.25648 -0.14552,0 -0.44317,-0.115416 -0.66145,-0.25648 z m 3.31859,-0.510885 c -0.17594,-0.284677 0.34191,-0.679303 0.57956,-0.441651 0.0873,0.08733 -0.01,0.160609 -0.21604,0.162837 -0.30862,0.0033 -0.30473,0.04935 0.0221,0.260532 0.23847,0.154109 0.2711,0.258097 0.0818,0.260532 -0.17331,0.0022 -0.38361,-0.106784 -0.46733,-0.24225 z m -0.84428,-1.013137 c 0.0961,-0.155576 0.0252,-0.343166 -0.15756,-0.416867 -0.2379,-0.09591 -0.24281,-0.139939 -0.0173,-0.15489 0.45532,-0.03018 0.67404,0.438046 0.30978,0.663168 -0.18463,0.114113 -0.23915,0.07719 -0.13495,-0.09141 z m -4.06181,-2.973895 c 0.21828,-0.141064 0.51593,-0.25648 0.66145,-0.25648 0.14553,0 0.086,0.115416 -0.13229,0.25648 -0.21828,0.141064 -0.51593,0.25648 -0.66146,0.25648 -0.14552,0 -0.086,-0.115416 0.1323,-0.25648 z m 6.87916,21.182282 c 0,-0.13693 -0.11906,-0.32256 -0.26458,-0.41249 -0.14552,-0.0899 -0.26458,0.0221 -0.26458,0.24897 0,0.22686 0.11906,0.41249 0.26458,0.41249 0.14552,0 0.26458,-0.11204 0.26458,-0.24897 z m -1.5875,-0.2802 c 0,-0.14552 -0.0525,-0.26458 -0.11667,-0.26458 -0.0642,0 -0.19027,0.11906 -0.2802,0.26458 -0.0899,0.14552 -0.0374,0.26458 0.11667,0.26458 0.15411,0 0.2802,-0.11906 0.2802,-0.26458 z m 1.56485,-2.64583 c -0.01,-0.26169 -0.092,-0.21663 -0.24193,0.13229 -0.31256,0.72736 -0.31256,1.14511 0,0.66146 0.14106,-0.21829 0.24993,-0.57547 0.24193,-0.79375 z m -3.9217,-0.20568 c -0.31134,-0.75166 -1.77283,-1.83825 -2.07119,-1.53989 -0.0869,0.0869 -0.0172,0.15807 0.15489,0.15807 0.17213,0 0.51168,0.41671 0.75456,0.92604 0.24288,0.50932 0.59814,0.92604 0.78947,0.92604 0.19133,0 0.34787,0.13891 0.34787,0.30868 0,0.16977 0.0756,0.23312 0.16791,0.14077 0.0924,-0.0923 0.0278,-0.50621 -0.14351,-0.91971 z m 4.88127,-18.562136 c -0.0959,-0.155202 -0.39847,-0.282186 -0.67233,-0.282186 -0.76573,0 -0.83407,-0.386116 -0.19058,-1.076822 l 0.58488,-0.627794 0.16842,0.786162 c 0.16032,0.748376 0.17221,0.735294 0.24727,-0.272171 0.0434,-0.582083 0.0612,-1.475052 0.0397,-1.984375 -0.0316,-0.746811 0.007,-0.823624 0.19844,-0.396875 0.22923,0.510547 0.23824,0.508657 0.25619,-0.0537 0.0102,-0.320575 -0.0908,-0.856356 -0.22447,-1.190625 -0.3123,-0.780905 -0.54519,-1.521835 -0.50376,-1.602727 0.0178,-0.03485 -0.41901,-0.514824 -0.97079,-1.066603 -0.67062,-0.670626 -1.40746,-1.099262 -2.2225,-1.29288 -1.87353,-0.445073 -1.88072,-0.447894 -1.88072,-0.73829 0,-0.150088 0.16867,-0.272887 0.37483,-0.272887 0.20615,0 0.42794,-0.148828 0.49287,-0.33073 0.0818,-0.229183 0.31965,-0.14565 0.77466,0.272064 0.63758,0.585308 1.53264,0.586507 1.53264,0.0021 0,-0.145521 0.17478,-0.197514 0.3884,-0.11554 0.21362,0.08197 0.47014,0.01679 0.57004,-0.144847 0.28847,-0.466761 0.34178,-1.535082 0.0766,-1.535082 -0.1327,0 -0.24128,0.218282 -0.24128,0.48507 0,0.672092 -0.28208,0.888117 -0.70326,0.538571 -0.4929,-0.409068 -0.4435,-0.758284 0.10795,-0.763109 0.39289,-0.0034 0.40324,-0.04184 0.0683,-0.253566 -0.24822,-0.156932 -0.48874,-0.155428 -0.64823,0.0041 -0.3957,0.395706 -0.77818,0.297536 -0.43795,-0.11241 0.23343,-0.281271 0.21441,-0.400252 -0.0822,-0.514069 -0.52794,-0.202588 -0.89406,1.381637 -0.39114,1.69246 0.19325,0.11943 0.25577,0.312729 0.13895,0.429554 -0.11683,0.116824 -0.35587,0.01622 -0.53121,-0.223571 -0.27485,-0.375886 -0.40863,-0.387776 -0.97055,-0.08627 -0.58617,0.314515 -0.6841,0.291864 -0.97312,-0.225064 -0.30819,-0.551245 -0.32249,-0.553113 -0.34932,-0.04561 l -0.028,0.529167 -0.22739,-0.529167 c -0.12507,-0.291042 -0.23576,-0.373312 -0.24599,-0.182823 -0.0102,0.19049 -0.13766,0.27276 -0.28318,0.182823 -0.14552,-0.08994 -0.27295,0.05186 -0.28318,0.315114 -0.0172,0.442746 -0.0334,0.440919 -0.21592,-0.02437 -0.17335,-0.441881 -0.23913,-0.402103 -0.54128,0.327366 -0.18917,0.456702 -0.44919,0.765322 -0.57783,0.685823 -0.12863,-0.0795 -0.23387,0.100609 -0.23387,0.400239 0,0.29963 0.12316,0.544781 0.2737,0.544781 0.15054,0 -0.0876,0.353175 -0.52916,0.784833 -0.7027,0.686907 -1.16237,1.849827 -0.59181,1.497199 0.11609,-0.07175 0.38398,-0.008 0.59532,0.141635 0.31538,0.223327 0.30278,0.245976 -0.0703,0.126389 -0.25,-0.08013 -0.50949,-0.0568 -0.57664,0.05186 -0.0672,0.108655 0.49458,0.409666 1.24829,0.668913 3.376,1.161202 3.67811,1.305461 3.24339,1.548747 -0.22978,0.12859 -0.41778,0.37076 -0.41778,0.538154 0,0.222111 0.0858,0.218558 0.3175,-0.01315 0.58581,-0.585816 0.7583,-0.325011 0.33124,0.500837 -0.48066,0.929502 -0.33357,1.369215 0.18192,0.543796 0.24106,-0.386005 0.43095,-0.464467 0.66134,-0.273265 0.23245,0.192921 0.41479,0.0963 0.64953,-0.344181 0.30826,-0.578449 0.29828,-0.590879 -0.17999,-0.224243 -0.27848,0.213483 -0.41807,0.283969 -0.31019,0.156636 0.10787,-0.127335 0.0771,-0.374989 -0.0685,-0.550342 -0.19794,-0.238502 -0.0964,-0.28667 0.40308,-0.19119 0.95144,0.18188 0.98434,0.382637 0.24174,1.475461 -0.64416,0.947968 -1.23296,1.299173 -1.07215,0.639511 0.0443,-0.181901 0.0307,-0.241432 -0.0303,-0.132291 -0.13583,0.242876 -0.92645,0.258103 -1.52263,0.02933 -0.33043,-0.126797 -0.35789,-0.220293 -0.10974,-0.37366 0.4094,-0.253019 0.50317,-2.103061 0.1066,-2.103061 -0.35085,0 -0.92236,0.544681 -0.92236,0.879064 0,0.134234 0.20836,0.08066 0.46302,-0.119063 0.40967,-0.321288 0.42518,-0.314595 0.13459,0.05809 -0.18064,0.231671 -0.25009,0.499561 -0.15434,0.595313 0.0958,0.09575 0.0352,0.174093 -0.13459,0.174093 -0.16977,0 -0.30868,-0.115326 -0.30868,-0.256279 0,-0.140954 -0.20223,-0.178677 -0.4494,-0.08383 -0.36122,0.138611 -0.33062,0.0056 0.15591,-0.677636 0.60082,-0.843763 0.23001,-1.125581 -0.40815,-0.310204 -0.24764,0.316403 -0.28009,0.252729 -0.16855,-0.330729 0.14797,-0.774077 -0.12655,-0.927021 -0.70334,-0.391844 -0.29262,0.271519 -0.32328,0.237437 -0.17122,-0.190373 0.10187,-0.286606 0.0896,-0.425554 -0.0272,-0.308774 -0.11684,0.116781 -0.21788,0.494506 -0.22455,0.839391 -0.009,0.484061 0.0661,0.562173 0.33073,0.342523 0.26619,-0.220917 0.34285,-0.126537 0.34285,0.422088 0,0.539065 0.20391,0.801152 0.8599,1.105243 0.6363,0.294968 0.6879,0.358788 0.19844,0.245442 -2.3203,-0.537313 -1.73471,-0.228937 1.71979,0.905648 2.18281,0.716917 4.2664,1.408885 4.63021,1.537706 0.75278,0.266559 0.92252,0.219871 0.67233,-0.184937 z m -1.88729,-1.472811 c 0.37944,-0.579093 0.38323,-0.661458 0.0304,-0.661458 -0.22164,0 -0.4048,0.208359 -0.40703,0.46302 -0.003,0.395697 -0.0413,0.405315 -0.26053,0.06615 -0.30872,-0.47771 -0.33713,-0.805205 -0.0661,-0.762417 0.7029,0.110984 0.91574,-0.04211 0.59531,-0.428208 -0.38939,-0.469184 -0.0769,-0.513611 0.92725,-0.13183 0.63465,0.241292 0.65975,0.302418 0.28008,0.68209 -0.22938,0.229374 -0.53952,0.645886 -0.68921,0.92558 -0.14968,0.279694 -0.40072,0.508535 -0.55786,0.508535 -0.16516,0 -0.10285,-0.279074 0.1477,-0.661458 z m -1.69546,0 c 0.18116,-0.218281 0.43386,-0.396875 0.56156,-0.396875 0.12771,0 0.23219,0.178594 0.23219,0.396875 0,0.228118 -0.23879,0.396875 -0.56156,0.396875 -0.46917,0 -0.50737,-0.0653 -0.23219,-0.396875 z m 2.51354,-1.975267 c -0.50651,-0.187029 -0.50283,-0.203767 0.0861,-0.390992 0.67588,-0.214876 1.07935,-0.0066 0.69002,0.356253 -0.13582,0.126573 -0.48507,0.142206 -0.77611,0.03474 z m -2.24896,-0.802858 c -0.21828,-0.141064 -0.27781,-0.25648 -0.13229,-0.25648 0.14552,0 0.44318,0.115416 0.66146,0.25648 0.21828,0.141064 0.27781,0.25648 0.13229,0.25648 -0.14552,0 -0.44318,-0.115416 -0.66146,-0.25648 z m 1.64808,0.0875 c -0.18496,-0.07442 -0.5074,-0.466181 -0.71652,-0.870582 -0.29303,-0.566658 -0.52488,-0.707622 -1.01101,-0.614692 -0.78089,0.149278 -1.55505,-0.553411 -1.31055,-1.189569 0.14461,-0.376259 0.20218,-0.340457 0.33142,0.206094 0.10088,0.426648 0.34001,0.661458 0.67364,0.661458 0.70526,0 0.84982,-1.113908 0.20772,-1.60055 -0.26633,-0.201847 -0.39904,-0.370782 -0.29492,-0.37541 0.10412,-0.0046 0.5563,0.350325 1.00484,0.788785 0.62602,0.611952 0.7258,0.83163 0.42939,0.94537 -0.33227,0.127504 -0.32481,0.255953 0.0535,0.920919 0.46858,0.823657 0.93134,1.066537 0.65374,0.343117 -0.11414,-0.29745 -0.0494,-0.394485 0.20674,-0.310005 0.20509,0.06763 0.41094,0.381537 0.45744,0.697561 0.0844,0.5738 -0.0514,0.652591 -0.68543,0.397504 z m 1.42732,-0.759186 c -0.25532,-0.665346 -0.18,-0.837024 0.1319,-0.300656 0.15444,0.265576 0.22505,0.538601 0.15693,0.606723 -0.0681,0.06812 -0.1981,-0.06961 -0.28883,-0.306067 z m -3.93529,-0.297292 c 0.1819,-0.0734 0.47955,-0.0734 0.66145,0 0.18191,0.0734 0.0331,0.133453 -0.33072,0.133453 -0.36381,0 -0.51263,-0.06005 -0.33073,-0.133453 z m -1.17189,-0.403914 c -0.45557,-0.220249 -0.53052,-0.399853 -0.35716,-0.855837 0.19676,-0.517507 0.12653,-0.583348 -0.6802,-0.637678 -0.53583,-0.03609 -0.89961,0.06224 -0.89961,0.243145 0,0.176279 0.22839,0.244005 0.54428,0.161399 0.3493,-0.09134 0.50332,-0.03131 0.42995,0.167579 -0.0629,0.170451 -0.27804,0.262372 -0.47813,0.204271 -0.20009,-0.0581 -0.69663,-0.161705 -1.10341,-0.230229 l -0.7396,-0.124589 0.7396,-0.38465 c 0.40678,-0.211557 1.06858,-0.336707 1.47065,-0.27811 0.63572,0.09265 0.70978,0.03481 0.56795,-0.443455 -0.15667,-0.528313 -0.14816,-0.530421 0.21594,-0.05347 0.32207,0.421893 0.47531,0.449049 1.01955,0.18068 l 0.64051,-0.315841 -0.65956,0.530381 c -0.59646,0.479638 -0.6303,0.607905 -0.35371,1.340675 0.16822,0.445661 0.28643,0.802235 0.26269,0.792386 -0.0237,-0.0098 -0.30262,-0.143343 -0.61974,-0.296653 z m -2.46613,-0.214607 c -0.48365,-0.312558 -0.0659,-0.312558 0.66145,0 0.34892,0.149935 0.39398,0.232345 0.1323,0.241936 -0.21829,0.008 -0.57547,-0.100872 -0.79375,-0.241936 z m 6.74986,-0.694035 c -0.25012,-0.381719 -0.32398,-0.613213 -0.16415,-0.514431 0.30544,0.188768 0.92146,1.208466 0.73007,1.208466 -0.0611,0 -0.31581,-0.312316 -0.56592,-0.694035 z m -2.85338,-0.347479 c -0.0927,-0.35454 -0.0224,-0.464172 0.2345,-0.365591 0.4166,0.159862 0.4807,0.511812 0.13243,0.727056 -0.12898,0.07971 -0.29409,-0.08295 -0.36693,-0.361465 z m -4.82253,-0.745014 c 0.43657,-0.455131 1.15094,-0.904009 1.5875,-0.997508 0.69361,-0.14855 0.64367,-0.08106 -0.39585,0.534919 -0.65428,0.387704 -1.36865,0.836583 -1.5875,0.997509 -0.21884,0.160925 -0.0407,-0.07979 0.39585,-0.53492 z m 5.86023,-0.511229 c -0.0996,-0.0996 -0.86358,-0.327747 -1.69774,-0.506993 -1.18043,-0.253654 -1.32414,-0.330817 -0.64826,-0.348076 0.8389,-0.02142 2.70348,0.592661 2.70348,0.890367 0,0.197175 -0.1387,0.183479 -0.35748,-0.0353 z m -5.26491,-0.767 c -0.0849,-0.08489 0.0662,-0.374847 0.33567,-0.644356 0.34049,-0.340484 0.75764,-0.456851 1.36702,-0.381335 0.63074,0.07816 0.76555,0.03735 0.48012,-0.145343 -0.23782,-0.152216 -0.27059,-0.255646 -0.0818,-0.258074 0.84229,-0.01083 0.51171,0.586447 -0.5847,1.056423 -1.39614,0.598459 -1.31141,0.577633 -1.51635,0.372685 z m 5.09323,-1.055184 c 0,-0.08315 0.17859,-0.329784 0.39687,-0.548065 0.43076,-0.430758 0.48471,-0.366657 0.23628,0.280742 -0.15095,0.393351 -0.63315,0.596945 -0.63315,0.267323 z m 3.92244,4.074959 c -0.0473,-0.09023 0.13404,-0.407168 0.40295,-0.704318 0.26892,-0.29715 0.41072,-0.666837 0.31512,-0.821528 -0.27148,-0.439262 -0.61686,-0.330313 -0.57622,0.181765 0.0202,0.254662 -0.11718,0.431556 -0.30531,0.393099 -0.25867,-0.05288 -0.27531,0.0548 -0.0683,0.441676 0.18493,0.345544 0.18646,0.555026 0.005,0.645392 -0.16117,0.08014 -0.15237,0.112571 0.022,0.08087 0.16007,-0.0291 0.25235,-0.126737 0.20505,-0.216961 z m -0.21828,-1.542518 c -0.251,-0.162211 -0.27837,-0.25797 -0.0744,-0.260532 0.17734,-0.0022 0.2539,-0.182645 0.17013,-0.400926 -0.2084,-0.543083 -0.62067,-0.500701 -0.64344,0.06614 -0.0162,0.403736 -0.0443,0.397515 -0.21894,-0.04858 -0.12636,-0.322668 -0.26696,-0.403829 -0.38071,-0.219768 -0.22887,0.37031 0.51414,1.129542 1.10017,1.124196 0.38344,-0.0035 0.38989,-0.03909 0.0472,-0.260532 z m -1.67569,-1.179239 c 0,-0.212019 -0.16151,-0.447465 -0.3589,-0.523212 -0.28152,-0.10803 -0.29853,-0.02492 -0.0789,0.385489 0.33356,0.623262 0.43779,0.656051 0.43779,0.137723 z m -7.9627,-0.653419 c 0,-0.280358 -0.0936,-0.451925 -0.20789,-0.38126 -0.11433,0.07066 -0.20788,0.300048 -0.20788,0.509741 0,0.209693 0.0935,0.38126 0.20788,0.38126 0.11434,0 0.20789,-0.229383 0.20789,-0.509741 z m 0.90714,-1.077759 c 0,-0.331502 -0.28078,-0.331502 -0.79375,0 -0.32093,0.2074 -0.28295,0.257256 0.19844,0.260532 0.32742,0.0022 0.59531,-0.115011 0.59531,-0.260532 z m 3.43959,-1.058333 c 0,-0.145521 -0.0525,-0.264583 -0.11668,-0.264583 -0.0642,0 -0.19026,0.119062 -0.2802,0.264583 -0.0899,0.145521 -0.0374,0.264583 0.11668,0.264583 0.15411,0 0.2802,-0.119062 0.2802,-0.264583 z m 2.29326,114.331551 c -0.4122,-0.27177 -0.74975,-0.59841 -0.75011,-0.72586 -3.7e-4,-0.12746 -0.11063,-0.36425 -0.24505,-0.52622 -0.17279,-0.20819 -0.0376,-0.25494 0.46149,-0.15954 0.67875,0.12975 0.68647,0.15008 0.20076,0.52852 -0.3538,0.27565 -0.37905,0.3506 -0.0843,0.25016 0.23148,-0.0789 0.58867,-0.0372 0.79375,0.0926 0.31492,0.19936 0.31119,0.23814 -0.024,0.24948 -0.24019,0.008 -0.13574,0.1627 0.26458,0.39155 0.36381,0.20797 0.5424,0.38156 0.39688,0.38575 -0.14552,0.004 -0.60184,-0.21472 -1.01403,-0.48649 z m -5.22371,-8.69666 -0.64143,-0.7276 0.72761,0.64143 c 0.68005,0.59952 0.84893,0.81378 0.64143,0.81378 -0.0474,0 -0.37482,-0.32743 -0.72761,-0.72761 z"
       id="path16378" />
  </g>
</svg>
