<?xml version="1.0" encoding="UTF-8" standalone="no"?>
<!-- Created with Inkscape (http://www.inkscape.org/) -->

<svg
   width="17.81266mm"
   height="91.387177mm"
   viewBox="0 0 17.812667 91.387168"
   version="1.1"
   id="svg5"
   inkscape:version="1.1 (c4e8f9ed74, 2021-05-24)"
   sodipodi:docname="ornament2.svg"
   xmlns:inkscape="http://www.inkscape.org/namespaces/inkscape"
   xmlns:sodipodi="http://sodipodi.sourceforge.net/DTD/sodipodi-0.dtd"
   xmlns="http://www.w3.org/2000/svg"
   xmlns:svg="http://www.w3.org/2000/svg">
  <sodipodi:namedview
     id="namedview7"
     pagecolor="#ffffff"
     bordercolor="#666666"
     borderopacity="1.0"
     inkscape:pageshadow="2"
     inkscape:pageopacity="0.0"
     inkscape:pagecheckerboard="0"
     inkscape:document-units="mm"
     showgrid="false"
     inkscape:zoom="1.3380612"
     inkscape:cx="-117.70762"
     inkscape:cy="101.26592"
     inkscape:window-width="2506"
     inkscape:window-height="1403"
     inkscape:window-x="1974"
     inkscape:window-y="0"
     inkscape:window-maximized="1"
     inkscape:current-layer="layer1" />
  <defs
     id="defs2" />
  <g
     inkscape:label="Layer 1"
     inkscape:groupmode="layer"
     id="layer1"
     transform="translate(111.17317,-69.466754)">
    <path
       style="fill:#000000;stroke-width:0.264583"
       d="m -107.86634,160.23667 c 0,-0.37347 0.11533,-0.67903 0.25628,-0.67903 0.14095,0 0.19237,0.16655 0.11425,0.37011 -0.16616,0.43302 0.29857,0.79649 0.70065,0.54799 0.18643,-0.11522 0.16474,-0.30803 -0.0661,-0.58781 -0.28741,-0.34828 -0.2787,-0.39489 0.0533,-0.28512 0.71389,0.23604 0.47151,1.13687 -0.33073,1.22917 -0.62649,0.0721 -0.7276,-0.0106 -0.7276,-0.59531 z m -0.26458,-1.47278 c -0.65222,-0.65222 -0.67689,-1.40235 -0.0661,-2.01158 0.59545,-0.59399 0.93739,-5.57648 0.39688,-5.78297 -0.18191,-0.0695 -0.33073,-0.30867 -0.33073,-0.53152 0,-0.29632 0.28434,-0.40518 1.05833,-0.40518 0.74509,0 1.05833,0.11284 1.05833,0.38126 0,0.20969 -0.11906,0.45484 -0.26458,0.54478 -0.14552,0.0899 -0.26458,1.22806 -0.26458,2.52916 0,2.0444 0.0748,2.44048 0.55121,2.91685 0.30317,0.30317 0.47152,0.63059 0.3741,0.7276 -0.0974,0.097 -0.40499,-0.10469 -0.68351,-0.44823 -0.42563,-0.52502 -0.50639,-1.05947 -0.50639,-3.35139 0,-1.93385 0.0962,-2.76557 0.33073,-2.86022 0.1819,-0.0734 -0.0113,-0.14285 -0.42927,-0.15434 -0.64864,-0.0178 -0.71143,0.0376 -0.42848,0.37857 0.23991,0.28907 0.28754,1.06673 0.17239,2.81425 -0.14056,2.13317 -0.0983,2.50021 0.36234,3.14712 0.2868,0.40278 0.52146,0.90772 0.52146,1.1221 0,0.5562 -0.65102,1.0219 -1.15709,0.8277 -0.47083,-0.18067 -0.58971,-1.30178 -0.16583,-1.56375 0.14552,-0.0899 0.26459,-0.35115 0.26459,-0.58047 0,-0.28964 -0.16713,-0.20447 -0.54739,0.27896 -0.62134,0.78991 -0.50113,1.60175 0.30072,2.03089 0.56986,0.30498 1.56958,-0.0722 1.56958,-0.59216 0,-0.16466 0.0786,-0.22073 0.17477,-0.12461 0.27009,0.2701 -0.72567,1.23635 -1.27411,1.23635 -0.26848,0 -0.72628,-0.23813 -1.01732,-0.52917 z m 0.15743,-10.16743 c -0.37763,-0.64437 -0.6866,-1.29922 -0.6866,-1.4552 0,-0.17026 0.63454,-0.28362 1.5875,-0.28362 1.24395,0 1.5875,0.087 1.5875,0.40213 0,0.50714 -1.24912,2.50829 -1.56568,2.50829 -0.12987,0 -0.54509,-0.52722 -0.92272,-1.1716 z m 1.69755,-0.21747 c 0.28836,-0.47294 0.52473,-0.94919 0.52528,-1.05833 5.5e-4,-0.10914 -0.59675,-0.19844 -1.32731,-0.19844 h -1.32829 l 0.53992,1.05834 c 0.29696,0.58208 0.65831,1.05833 0.80302,1.05833 0.1447,0 0.49902,-0.38695 0.78738,-0.8599 z m -1.16284,0.1323 c -0.0898,-0.25467 -0.23269,-0.61185 -0.31749,-0.79375 -0.10554,-0.22641 0.10316,-0.33073 0.66163,-0.33073 0.92568,0 0.92531,-8e-4 0.50875,0.91359 -0.3596,0.78923 -0.62568,0.85502 -0.85289,0.21089 z m -1.01989,-2.22549 c 0.23328,-0.23328 0.20091,-0.48728 -0.13447,-1.05502 -0.41493,-0.70242 -0.41361,-0.76833 0.0217,-1.08662 0.67301,-0.49211 0.95821,-3.00121 0.96439,-8.48456 0.005,-4.34698 0.0415,-4.70883 0.46834,-4.62709 0.41521,0.0795 0.48196,0.63673 0.64638,5.39579 0.13447,3.89246 0.29894,5.61954 0.61699,6.47917 0.74257,2.00698 0.77599,2.36218 0.22269,2.36672 -0.27466,0.002 -0.37643,0.0903 -0.22929,0.19844 0.52303,0.38426 0.44373,1.12043 -0.12069,1.12043 -0.59487,0 -0.73322,-0.40741 -0.21003,-0.61852 0.1819,-0.0734 -0.12279,-0.14286 -0.67708,-0.15434 -0.55429,-0.0115 -0.94193,0.0857 -0.86141,0.21597 0.0805,0.13027 -0.0413,0.30886 -0.27061,0.39687 -0.63159,0.24237 -0.77736,0.19324 -0.43688,-0.14724 z m 2.66981,-1.42826 c 0.0512,-0.0453 -0.093,-0.65555 -0.32034,-1.3562 -0.22739,-0.70065 -0.50205,-2.34547 -0.61034,-3.65516 -0.18294,-2.21239 -0.21043,-2.29682 -0.38766,-1.19062 -0.29354,1.83221 -0.27502,3.38954 0.0346,2.91041 0.1972,-0.30514 0.25809,-0.21342 0.26344,0.39688 0.004,0.43656 0.0808,1.24023 0.17097,1.78594 0.14571,0.88155 0.10252,0.99218 -0.38733,0.99218 -0.50339,0 -0.54125,-0.12076 -0.4356,-1.38906 0.1147,-1.37673 0.11334,-1.37971 -0.15341,-0.3353 -0.14803,0.57957 -0.3843,1.16893 -0.52506,1.30969 -0.4261,0.4261 -0.29254,0.63873 0.47168,0.75091 0.66502,0.0976 1.65037,-0.0176 1.87904,-0.21967 z m -1.10734,-8.49504 c -0.097,-0.097 -0.17639,-0.0176 -0.17639,0.17639 0,0.19403 0.0794,0.2734 0.17639,0.17639 0.097,-0.097 0.097,-0.25576 0,-0.35278 z m 0,-1.32292 c -0.097,-0.097 -0.17639,-0.0176 -0.17639,0.17639 0,0.19403 0.0794,0.27341 0.17639,0.17639 0.097,-0.097 0.097,-0.25576 0,-0.35278 z m -0.65577,-4.78151 c 0.13282,-0.68969 1.00855,-0.76661 1.00855,-0.0886 0,0.37864 -0.16993,0.54857 -0.54857,0.54857 -0.37865,0 -0.52113,-0.14249 -0.45998,-0.45999 z m 0.38399,-1.04651 c -0.0931,-0.0931 -0.16919,-0.37946 -0.16919,-0.63644 0,-0.25698 -0.249,-0.54626 -0.55332,-0.64285 -0.5457,-0.1732 -1.29877,-1.55636 -1.29877,-2.38544 0,-0.23415 0.3455,-0.77122 0.76776,-1.19349 l 0.76776,-0.76776 -0.49336,-1.58518 c -0.69502,-2.2331 -1.45583,-10.27411 -1.79302,-18.95038 -0.14749,-3.794965 -0.24953,-4.590988 -0.63838,-4.979841 -0.50578,-0.505777 -0.58651,-1.142912 -0.21849,-1.724279 0.14567,-0.230116 0.12018,-0.559064 -0.0665,-0.857977 -0.23789,-0.380921 -0.20689,-0.641067 0.14471,-1.2143 0.2461,-0.401237 0.63139,-0.694538 0.85619,-0.651778 0.6259,0.11905 0.48588,-0.39273 -0.15318,-0.559847 -0.444,-0.116108 -0.52782,-0.282798 -0.39943,-0.794334 0.0994,-0.396101 0.0251,-0.761435 -0.19154,-0.941203 -0.19471,-0.161598 -0.3649,-0.676531 -0.3782,-1.144298 -0.016,-0.563826 0.0511,-0.728746 0.19904,-0.489301 0.18742,0.30325 0.45007,0.295557 1.63753,-0.04796 l 1.41431,-0.409141 -1.08517,-0.188467 -1.08518,-0.188466 0.21799,-1.166876 c 0.22099,-1.182863 0.6557,-2.217645 0.93164,-2.217645 0.0832,0 0.0804,0.184778 -0.006,0.410617 -0.0904,0.235459 -0.046,0.341662 0.10398,0.248968 0.14664,-0.09063 0.26155,0.139546 0.26155,0.523923 0,0.824512 0.65092,2.453449 1.24088,3.105353 0.32408,0.358108 0.51289,0.400445 0.78366,0.175724 0.19619,-0.162825 0.35489,-0.430295 0.35266,-0.594378 -0.002,-0.164083 -0.11947,-0.119738 -0.26053,0.09854 -0.20682,0.320027 -0.25726,0.279958 -0.26053,-0.206936 -0.006,-0.881059 -0.62688,-2.227204 -1.42431,-3.087641 -0.38302,-0.413294 -0.69641,-0.85312 -0.69641,-0.977392 0,-0.124271 -0.17527,-0.225948 -0.38948,-0.225948 -0.40491,0 -1.26417,2.46124 -1.26417,3.62106 0,0.336751 -0.11939,0.612274 -0.26532,0.612274 -0.37745,0 -0.0201,-1.976073 0.61844,-3.419532 l 0.52775,-1.193053 -0.87038,-1.714786 c -0.80376,-1.583541 -0.87037,-1.908224 -0.87018,-4.242145 1.6e-4,-2.03778 0.11185,-2.769131 0.5766,-3.775459 0.86515,-1.873351 2.73799,-3.722046 4.65287,-4.592886 2.95234,-1.342654 7.014751,-0.893564 9.057829,1.00132 0.436562,0.404897 0.869062,0.736727 0.96111,0.7374 0.09205,6.62e-4 0.672635,0.776751 1.290194,1.724617 1.056165,1.621064 1.130453,1.86064 1.25116,4.034896 0.144523,2.603258 -0.39375,4.656243 -1.65405,6.308582 l -0.685732,0.89904 0.580331,1.591611 c 0.463003,1.26983 0.546864,1.911796 0.414798,3.175332 -0.152281,1.456947 -0.982508,3.505327 -1.820707,4.492146 -0.772069,0.908963 -2.986733,2.382803 -3.813613,2.537925 -1.00198,0.187974 -1.11235,0.447659 -0.40495,0.952802 0.966034,0.689822 1.443849,1.749031 1.27247,2.820769 -0.138277,0.86474 -0.06123,1.10411 0.530919,1.64949 1.604854,1.47811 2.158127,4.35041 1.154928,5.99578 -0.734539,1.20473 -0.866455,1.07068 -0.260358,-0.26458 0.639526,-1.40891 0.645414,-2.41949 0.02197,-3.77032 -0.533363,-1.15564 -1.770109,-2.44822 -2.062609,-2.15572 -0.10094,0.10094 0.0901,0.37515 0.424465,0.60937 0.765475,0.53616 1.595622,2.33449 1.603241,3.47308 0.0079,1.18779 -0.562246,2.42023 -1.549103,3.34829 -1.021173,0.96034 -1.074403,1.37377 -0.09873,0.7669 0.720634,-0.44824 0.719669,-0.44387 -0.100754,0.45692 -0.484759,0.53224 -0.906059,1.34647 -1.015679,1.96296 -0.23183,1.30384 -0.61601,2.05354 -0.94737,1.84875 -0.13822,-0.0854 -0.25131,0.041 -0.25131,0.28091 0,0.23992 -0.23984,0.6339 -0.53299,0.87551 -0.29315,0.2416 -0.76581,1.25977 -1.05035,2.26259 -0.28454,1.00282 -0.94871,2.74253 -1.47593,3.86603 l -0.95859,2.04271 0.68602,0.68601 c 1.03967,1.03968 0.76835,2.72776 -0.53379,3.32105 -0.35399,0.16129 -0.63228,0.51662 -0.63228,0.80731 0,0.55701 -0.34758,0.90843 -0.62456,0.63146 z m 0.11124,-2.43263 c -0.15424,-0.2882 -0.28043,-0.83651 -0.28043,-1.21847 0,-0.3956 -0.11387,-0.62409 -0.26459,-0.53094 -0.43987,0.27186 -0.3257,1.98437 0.1323,1.98437 0.27469,0 0.40991,0.30545 0.43921,0.99219 0.0409,0.95932 0.0459,0.96411 0.14815,0.14452 0.0582,-0.46622 -0.0204,-1.08347 -0.17464,-1.37167 z m -1.02034,-0.0296 c -0.42457,-0.7477 -0.42457,-0.83981 0,-1.5875 0.50268,-0.88527 0.4528,-0.99801 -0.16724,-0.37798 -0.66364,0.66365 -0.37885,2.75923 0.37498,2.75923 0.13364,0 0.0401,-0.35719 -0.20774,-0.79375 z m 2.4408,0.37797 c 0.54126,-0.54126 0.53389,-2.07414 -0.0126,-2.62063 -0.57924,-0.57924 -0.82894,-0.26784 -0.27556,0.34364 0.482,0.5326 0.59136,1.77384 0.17875,2.02885 -0.16059,0.0992 -0.20113,-0.13628 -0.10564,-0.61376 0.21079,-1.05392 -0.25213,-1.26085 -0.62294,-0.27846 -0.24239,0.64217 -0.22743,0.81979 0.079,0.93736 0.20791,0.0798 0.31214,0.25165 0.23163,0.38192 -0.23401,0.37863 0.0745,0.27396 0.5274,-0.17892 z m -1.01531,-3.20562 c 0.11281,-1.44461 0.0718,-2.1907 -0.12725,-2.3137 -0.20717,-0.12804 -0.29375,0.53792 -0.29375,2.25941 0,1.34253 0.0573,2.3837 0.12726,2.31371 0.07,-0.07 0.20217,-1.08673 0.29374,-2.25942 z m -0.76943,-1.45529 c -0.0845,-0.21107 -0.14715,-0.14838 -0.15985,0.15985 -0.0115,0.27891 0.0511,0.43518 0.13897,0.34726 0.0879,-0.0879 0.0973,-0.31612 0.0209,-0.50711 z m 2.18512,-1.07487 c 0.89869,-1.99435 2.22635,-6.27777 2.01218,-6.49193 -0.31904,-0.31905 -0.64802,0.41109 -1.16666,2.58932 -0.61891,2.59934 -1.31345,4.5983 -1.34065,3.85851 -0.0102,-0.27892 -0.0872,-0.43856 -0.17099,-0.35477 -0.17998,0.17998 -0.35431,2.05251 -0.19108,2.05251 0.0616,0 0.44736,-0.74414 0.8572,-1.65364 z m -0.77836,0.59531 c 0,-0.19403 0.0794,-0.2734 0.17639,-0.17639 0.097,0.097 0.097,0.25576 0,0.35278 -0.097,0.097 -0.17639,0.0176 -0.17639,-0.17639 z m 0.29393,-3.46068 c 0.32246,-2.23023 0.32132,-2.24001 -0.34627,-2.96035 -1.14613,-1.2367 -1.27057,-0.99843 -1.27057,2.43288 0,2.79167 0.0534,3.16688 0.46302,3.25344 0.64955,0.13725 0.78669,-0.18675 1.15382,-2.72597 z m -2.2342,2.22595 c -0.097,-0.097 -0.17639,-0.0176 -0.17639,0.17639 0,0.19403 0.0794,0.27341 0.17639,0.17639 0.097,-0.097 0.097,-0.25576 0,-0.35278 z m 2.97735,-2.68633 c 0.50733,-2.43615 0.50736,-2.472 0.003,-2.97656 -0.57407,-0.57408 -0.65901,-0.47643 -0.21042,0.24189 0.22862,0.36607 0.19691,1.04412 -0.13283,2.84068 -0.7205,3.92562 -0.48379,3.85191 0.34045,-0.10601 z m -2.70842,1.75478 c -0.0845,-0.21106 -0.14716,-0.14837 -0.15985,0.15986 -0.0115,0.27891 0.051,0.43518 0.13896,0.34726 0.0879,-0.0879 0.0973,-0.31612 0.0209,-0.50712 z m -0.52729,-6.65073 c -0.12222,-0.26545 -0.21098,-3.39084 -0.19723,-6.94531 0.0168,-4.35694 -0.0656,-6.462681 -0.25309,-6.462681 -0.15294,0 -0.34897,0.184761 -0.43563,0.410581 -0.17602,0.45872 0.35198,15.35099 0.64679,18.24254 0.18416,1.80621 0.19221,1.77017 0.32511,-1.45521 0.075,-1.81901 0.0363,-3.52447 -0.0859,-3.78992 z m 2.86573,-0.0465 c 0.15138,-0.3826 0.0513,-0.3344 -0.36115,0.17402 -0.57506,0.70878 -0.73863,1.55338 -0.37209,1.9214 0.10914,0.10959 0.27166,-0.19799 0.36115,-0.68351 0.0895,-0.48551 0.25693,-1.12087 0.37209,-1.41191 z m 3.54287,0.0313 c 0.59865,-1.63109 0.55266,-2.44146 -0.0564,-0.99302 -0.19384,0.461 -0.45288,0.74691 -0.57565,0.63534 -0.12277,-0.11156 -0.13855,-0.0556 -0.0351,0.12433 0.10347,0.17995 0.0672,0.76514 -0.0806,1.30041 -0.39226,1.42065 0.0842,0.74066 0.74769,-1.06706 z m -1.87296,1.05819 c 0.0484,-0.24976 -0.12633,-0.77567 -0.38836,-1.1687 l -0.47642,-0.71459 -0.16006,0.79375 c -0.1822,0.9036 0.15831,1.80283 0.62398,1.64779 0.17204,-0.0573 0.35243,-0.30849 0.40086,-0.55825 z m 2.3883,-1.22184 c 0,-0.25015 -0.0841,-0.20125 -0.22739,0.1323 -0.12506,0.29104 -0.22739,0.70776 -0.22739,0.92604 0,0.25016 0.0841,0.20125 0.22739,-0.13229 0.12506,-0.29105 0.22739,-0.70776 0.22739,-0.92605 z m -1.65577,0.1068 c -0.0855,-0.22271 -0.27529,-0.33081 -0.42183,-0.24024 -0.14655,0.0906 -0.26646,0.0386 -0.26646,-0.11552 0,-0.15411 -0.13364,-0.2802 -0.29698,-0.2802 -0.20616,0 -0.19699,0.12047 0.03,0.39396 0.17983,0.21668 0.43253,0.32872 0.56157,0.24897 0.12903,-0.0798 0.244,0.12992 0.25549,0.46593 0.0115,0.33601 0.0823,0.45817 0.15725,0.27147 0.075,-0.1867 0.0664,-0.52167 -0.019,-0.74437 z m -3.34443,0.1079 c 0.62502,-0.67087 0.6667,-0.904 0.20875,-1.16754 -0.1819,-0.10468 -0.24117,-0.0916 -0.13172,0.0291 0.2297,0.2532 -0.53599,1.19035 -0.96762,1.18432 -0.15935,-0.002 -0.11113,-0.13036 0.10715,-0.28473 0.31025,-0.21941 0.3153,-0.25871 0.0231,-0.18004 -0.48941,0.13177 -0.61292,0.99798 -0.14231,0.99798 0.19974,0 0.60592,-0.26057 0.90263,-0.57905 z m -0.12198,-1.00845 c -0.0775,-0.12541 -0.0199,-0.3028 0.12797,-0.3942 0.42964,-0.26553 0.31245,-0.61612 -0.26026,-0.77859 -0.29104,-0.0826 -0.76729,-0.21768 -1.05834,-0.30024 -0.29242,-0.083 -0.52916,-0.0238 -0.52916,0.13229 0,0.15533 0.32742,0.29047 0.7276,0.30032 0.71452,0.0176 0.7169,0.0231 0.13229,0.30501 -0.86059,0.41505 -0.79164,1.10664 0.0883,0.88579 0.49353,-0.12387 0.62931,-0.0837 0.48828,0.14448 -0.12433,0.20119 -0.0827,0.24648 0.11444,0.12462 0.17038,-0.1053 0.24637,-0.29407 0.16886,-0.41948 z m 4.24859,-0.45251 c -0.18869,-0.49174 0.52058,-1.5523 0.76915,-1.1501 0.24315,0.39343 0.67506,0.0865 0.6522,-0.46352 -0.0153,-0.36728 -0.0548,-0.35474 -0.22098,0.07 -0.20086,0.51351 -0.20458,0.51351 -0.49197,0 -0.27402,-0.48965 -0.30443,-0.47837 -0.56621,0.21017 -0.15215,0.40018 -0.33538,0.7276 -0.40718,0.7276 -0.0718,0 -0.062,-0.17859 0.0218,-0.39687 0.0838,-0.21828 0.013,-0.39688 -0.15723,-0.39688 -0.3623,0 -0.26645,1.10064 0.12062,1.38501 0.16635,0.12222 0.14759,0.19589 -0.0505,0.19844 -0.17332,0.002 -0.3887,-0.11501 -0.47864,-0.26053 -0.0899,-0.14552 -0.40164,-0.26459 -0.69269,-0.26459 -0.64607,0 -0.4047,0.48241 0.38904,0.77753 0.73617,0.27371 1.30024,0.0525 1.11266,-0.43629 z m -2.31096,-0.25316 c -0.12874,-0.66378 -0.74701,-0.75493 -0.74701,-0.11012 0,0.32499 0.17084,0.55121 0.41628,0.55121 0.24639,0 0.38136,-0.18001 0.33073,-0.44109 z m -1.09978,-0.26446 c -0.097,-0.097 -0.17639,-0.0176 -0.17639,0.17638 0,0.19403 0.0794,0.27341 0.17639,0.17639 0.097,-0.097 0.097,-0.25576 0,-0.35277 z m -0.54553,-0.54256 c -0.39404,-0.1009 -0.42401,-0.17624 -0.13995,-0.3518 0.48346,-0.2988 0.30152,-0.4342 -0.87998,-0.6549 -0.77976,-0.14565 -0.99218,-0.10225 -0.99218,0.20272 0,0.37271 1.29117,0.94371 2.11666,0.93606 0.21828,-0.002 0.17124,-0.0615 -0.10455,-0.13208 z m 1.95664,-0.31108 c 0,-0.27547 -0.1786,-0.56939 -0.39688,-0.65316 -0.42374,-0.1626 -0.49536,0.0603 -0.23627,0.7355 0.22216,0.57896 0.63315,0.52551 0.63315,-0.0823 z m 0.79375,0.25189 c 0,-0.13693 -0.11907,-0.32255 -0.26459,-0.41249 -0.14552,-0.0899 -0.26458,0.0221 -0.26458,0.24897 0,0.22687 0.11906,0.41249 0.26458,0.41249 0.14552,0 0.26459,-0.11204 0.26459,-0.24897 z m -1.85209,-0.76836 c 0,-0.12297 -0.25455,-0.45039 -0.56568,-0.7276 -2.00865,-1.78973 -1.50837,-5.41996 0.94507,-6.85777 0.86039,-0.50422 1.48738,-0.65575 2.68657,-0.6493 1.46383,0.008 1.53028,0.0347 1.03509,0.41764 -0.3648,0.2821 -0.88956,0.37053 -1.68933,0.28464 -0.72197,-0.0775 -1.02177,-0.0369 -0.79375,0.10748 0.75966,0.4811 2.34897,0.26602 3.02427,-0.40928 0.35719,-0.35719 0.64581,-0.80367 0.641384,-0.99219 -0.0053,-0.22417 -0.09455,-0.19469 -0.258124,0.0852 -0.20818,0.35627 -0.41919,0.38284 -1.25939,0.15858 -1.92641,-0.51419 -4.06381,0.3644 -5.28116,2.17083 -0.33253,0.49344 -0.60161,0.71023 -0.60161,0.48471 0,-0.22441 0.36069,-0.79414 0.80153,-1.26607 0.44084,-0.47192 0.76228,-0.89729 0.7143,-0.94527 -0.048,-0.048 -0.43843,0.007 -0.86767,0.12271 l -0.78045,0.20994 0.01,2.78479 c 0.008,2.17078 0.10989,2.93723 0.46302,3.47617 0.56558,0.86318 0.56782,1.00203 0.0127,0.78902 -0.3072,-0.11788 -0.37909,-0.0699 -0.23782,0.15863 0.11135,0.18017 0.3603,0.26702 0.55322,0.19298 0.19292,-0.074 0.49312,0.0369 0.66709,0.24655 0.34866,0.4201 0.7807,0.5073 0.7807,0.15757 z m 3.68,-0.3241 c 0.62346,-0.30122 1.29741,-0.4848 1.49767,-0.40796 0.461706,0.17718 1.104194,-0.7281 1.465532,-2.06496 0.366628,-1.35643 -0.09148,-3.03715 -1.088083,-3.99195 -0.612929,-0.58722 -0.830549,-0.65868 -1.277469,-0.4195 -0.69509,0.372 -2.30724,0.37024 -3.00516,-0.003 -1.24579,-0.66672 -3.12097,2.12475 -2.75123,4.09561 0.14897,0.79412 0.29178,0.95847 0.83286,0.95847 1.0245,0 2.23132,0.7906 2.22129,1.4552 -0.002,0.14552 -0.12676,0.0537 -0.2768,-0.204 -0.15004,-0.25772 -0.38454,-0.39952 -0.52112,-0.31511 -0.13657,0.0844 -0.24832,0.008 -0.24832,-0.17082 0,-0.17837 -0.0704,-0.25385 -0.15654,-0.16776 -0.0861,0.0861 -0.0302,0.37384 0.12424,0.63942 0.15444,0.26557 0.28441,0.33944 0.28884,0.16416 0.004,-0.17529 0.30029,-0.0265 0.65748,0.33073 0.7865,0.7865 0.8167,0.78788 2.23681,0.10175 z m -5.79666,-1.17211 c 0,-0.20111 -0.11907,-0.43923 -0.26459,-0.52917 -0.15065,-0.0931 -0.26458,0.13475 -0.26458,0.52917 0,0.39441 0.11393,0.62227 0.26458,0.52916 0.14552,-0.0899 0.26459,-0.32806 0.26459,-0.52916 z m 1.87954,0.0539 c -0.33959,-0.33959 -0.68396,-0.0771 -0.43255,0.32966 0.0974,0.15758 0.29828,0.21159 0.44643,0.12004 0.18071,-0.11169 0.17614,-0.25968 -0.0139,-0.4497 z m -3.81286,-1.17337 c -0.0671,-0.25743 -0.12638,-0.11087 -0.13177,0.3257 -0.005,0.43656 0.0495,0.64718 0.12197,0.46805 0.0725,-0.17913 0.0769,-0.53632 0.01,-0.79375 z m -0.25287,-6.48732 c -0.0534,-0.763988 -0.0972,-0.13891 -0.0972,1.38906 0,1.52797 0.0437,2.15305 0.0972,1.38906 0.0534,-0.76398 0.0534,-2.01414 0,-2.77812 z m 1.57579,0.66649 c -0.0671,-0.25743 -0.12638,-0.11087 -0.13177,0.32569 -0.005,0.43657 0.0495,0.64719 0.12197,0.46806 0.0725,-0.17913 0.0769,-0.53632 0.01,-0.79375 z m 5.97324,0.54902 c -0.17913,-0.0725 -0.53631,-0.0769 -0.79375,-0.01 -0.25743,0.0671 -0.11086,0.12638 0.3257,0.13177 0.43656,0.005 0.64719,-0.0495 0.46805,-0.12197 z m -3.86672,-1.02829 c 0.19578,-0.26774 0.3513,-0.6724 0.3456,-0.89925 -0.006,-0.226851 -0.17854,-0.0255 -0.3841,0.44744 -0.20556,0.47295 -0.44321,0.8599 -0.52812,0.8599 -0.0849,0 -0.0311,-0.2303 0.11952,-0.51177 0.46296,-0.865054 0.32035,-1.199787 -0.27978,-0.65668 -0.30452,0.27559 -0.66154,0.70262 -0.79338,0.94896 -0.20047,0.3746 -0.12482,0.43565 0.4623,0.37305 0.3861,-0.0412 0.86219,-0.29391 1.05796,-0.56165 z m 1.42084,-0.27059 c 0.33407,-0.878656 0.33009,-1.429736 -0.007,-0.908821 -0.21746,0.336501 -0.25709,0.324061 -0.26053,-0.08176 -0.002,-0.26325 -0.12311,-0.405051 -0.26863,-0.315113 -0.34882,0.215579 -0.34298,1.984374 0.007,1.984374 0.14912,0 0.38724,-0.30541 0.52916,-0.67868 z m 3.99267,-0.0489 c 0.1019,-1.548557 -0.29856,-2.180533 -1.33339,-2.104274 -0.65231,0.04807 -0.72699,0.151778 -0.70549,0.979799 0.0204,0.787135 -0.0752,0.944505 -0.63742,1.049125 -0.44377,0.0826 -0.18255,0.17723 0.79375,0.28761 0.80036,0.0905 1.54451,0.18392 1.65365,0.20764 0.10914,0.0237 0.21214,-0.16523 0.2289,-0.4199 z m -6.26926,-0.645492 c 0.22318,-0.31864 0.35271,-0.632425 0.28784,-0.697298 -0.1761,-0.176096 -1.45738,0.719042 -1.45738,1.01816 0,0.47416 0.75843,0.26608 1.16954,-0.320862 z m 6.905978,-0.452911 c -0.09731,-0.443034 -0.540308,-1.111284 -0.984438,-1.485003 -1.14353,-0.962213 -1.20331,-0.643718 -0.0884,0.471154 0.52017,0.520174 0.93486,1.200886 0.93486,1.534582 0,0.32985 0.07086,0.52886 0.15747,0.44225 0.08661,-0.0866 0.07785,-0.519949 -0.01945,-0.962983 z m -2.904038,0.483503 c 0.0966,-0.156287 -0.0761,-0.552075 -0.38368,-0.879518 -0.30762,-0.327446 -0.48691,-0.667753 -0.39842,-0.756237 0.0885,-0.08849 -0.089,-0.09553 -0.39446,-0.01566 -0.6845,0.179004 -0.68477,0.21693 -0.008,1.167144 0.58094,0.815851 0.89934,0.946001 1.18471,0.484271 z m -4.07631,-1.029939 c 0.62259,-0.518673 0.62276,-0.520393 0.051,-0.529166 -0.84178,-0.01292 -1.4107,0.26171 -1.4107,0.680963 0,0.525769 0.63098,0.455332 1.35975,-0.151797 z m 1.19789,0.343974 c -0.097,-0.09701 -0.25577,-0.09701 -0.35278,0 -0.097,0.09701 -0.0176,0.17639 0.17639,0.17639 0.19402,0 0.2734,-0.07937 0.17639,-0.17639 z m -2.56426,-0.865973 c 0.42993,-1.037928 0.0713,-1.610061 -0.41805,-0.66689 -0.203,0.391274 -0.36908,0.876393 -0.36908,1.078039 0,0.634691 0.45165,0.398775 0.78713,-0.411149 z m -0.94701,-0.321461 c 0.2874,-0.410323 0.32607,-0.706892 0.13798,-1.058333 -0.28065,-0.524409 -1.42413,-0.666641 -1.70506,-0.212087 -0.19978,0.323246 0.33389,1.048578 0.76717,1.042694 0.2031,-0.0028 0.19612,-0.06901 -0.0219,-0.207532 -0.22739,-0.144512 -0.15072,-0.309001 0.26459,-0.567621 0.55157,-0.343479 0.56223,-0.336399 0.18788,0.124778 -0.36416,0.448614 -0.35325,0.474382 0.13229,0.312597 0.46012,-0.153316 0.45149,-0.121044 -0.0661,0.247316 -0.61183,0.435393 -0.7881,0.888262 -0.34574,0.888262 0.13727,0 0.42927,-0.256532 0.64888,-0.570074 z m 3.24668,0.129101 c -0.097,-0.09701 -0.17639,-0.01764 -0.17639,0.17639 0,0.194027 0.0794,0.273402 0.17639,0.17639 0.097,-0.09701 0.097,-0.255765 0,-0.35278 z m 0.94696,0.110244 c 0.171,-0.465013 -0.0622,-1.025152 -0.35219,-0.845928 -0.31165,0.192603 -0.31642,1.176657 -0.006,1.176657 0.12995,0 0.291,-0.148828 0.3579,-0.330729 z m -1.25861,-0.942263 c 0.26532,-1.057114 -0.31827,-1.32578 -0.61773,-0.28438 l -0.25762,0.895914 -0.0239,-0.859896 c -0.0248,-0.893233 -0.45399,-1.161248 -0.72571,-0.453165 -0.18057,0.470551 0.52642,1.357159 1.08221,1.357159 0.20799,0 0.45221,-0.295034 0.54271,-0.655632 z m -0.3939,-0.314508 c 0,-0.194027 0.0794,-0.273402 0.17639,-0.176389 0.097,0.09701 0.097,0.255764 0,0.352779 -0.097,0.09701 -0.17639,0.01764 -0.17639,-0.17639 z m 3.78755,-0.503441 c -0.19216,-0.734843 -0.5051,-0.700265 -1.03917,0.114824 -0.54866,0.837366 -0.28337,1.163442 0.42499,0.522377 0.29194,-0.264197 0.53079,-0.349869 0.53079,-0.190381 0,0.159486 -0.121,0.36476 -0.2689,0.456163 -0.14789,0.0914 -0.18781,0.297381 -0.0887,0.457727 0.25994,0.420576 0.61796,-0.684078 0.44101,-1.36071 z m 0.63251,-0.09187 c -0.0631,-0.327422 -0.11467,-0.05953 -0.11467,0.595312 0,0.654844 0.0516,0.922735 0.11467,0.595313 0.0631,-0.327422 0.0631,-0.863203 0,-1.190625 z m -1.77423,-0.249007 c 0,-0.29269 -0.72706,-0.271394 -0.91128,0.02669 -0.0818,0.132387 -0.0697,0.446749 0.0269,0.69858 0.16452,0.428736 0.19825,0.427037 0.53003,-0.02669 0.19487,-0.266512 0.35432,-0.580872 0.35432,-0.698579 z m -1.51074,0.314788 c 0.0762,-0.291243 0.0305,-0.46281 -0.10143,-0.38126 -0.13195,0.08155 -0.23991,0.0023 -0.23991,-0.176024 0,-0.178364 -0.0704,-0.253895 -0.15645,-0.167847 -0.14739,0.147386 0.0959,1.254662 0.27571,1.254662 0.046,0 0.14592,-0.238289 0.22208,-0.529531 z m -2.98718,-0.412126 c 0,-0.22687 -0.121,-0.337704 -0.2689,-0.246301 -0.14789,0.0914 -0.20039,0.277024 -0.11667,0.412491 0.22681,0.366988 0.38557,0.298559 0.38557,-0.16619 z m 9.105935,-0.25617 c 1.279611,-0.607216 2.899128,-2.277646 3.54935,-3.660934 0.726041,-1.544585 0.796159,-4.711728 0.137177,-6.196091 -0.308108,-0.694015 -0.468862,-0.851423 -0.545897,-0.534534 -0.06005,0.247035 0.0076,0.667414 0.150388,0.934177 0.142767,0.266762 0.34409,1.342699 0.447383,2.39097 l 0.187808,1.905949 -1.118206,1.716287 c -1.203911,1.847834 -2.91358,3.194989 -4.411338,3.475969 -0.48841,0.09163 -0.88801,0.287287 -0.88801,0.434803 0,0.334938 1.32531,0.08673 2.491345,-0.466596 z m -10.296555,-0.389673 c -0.42602,-0.823833 -1.19063,-1.084127 -1.19063,-0.405325 0,0.29837 1.05642,1.11997 1.52815,1.188481 0.0401,0.0058 -0.11177,-0.346593 -0.33752,-0.783156 z m 3.04271,-1.199843 c 0,-0.771491 0.0723,-1.591042 0.1606,-1.821225 0.22082,-0.575463 -0.32247,-0.532023 -0.55663,0.04451 -0.10344,0.254661 -0.27087,1.130233 -0.37207,1.945714 -0.16691,1.344951 -0.13977,1.471128 0.29205,1.358204 0.38282,-0.10011 0.47605,-0.399179 0.47605,-1.527199 z m 2.10825,1.265989 c -0.005,-0.10914 -0.18322,-0.429553 -0.39688,-0.712028 -0.21365,-0.282474 -0.38836,-0.758724 -0.38825,-1.058333 1.4e-4,-0.366429 0.18241,-0.17666 0.55682,0.579736 0.58332,1.178446 1.29506,1.50273 1.29506,0.590055 0,-0.293933 -0.30625,-1.019558 -0.68056,-1.612498 -0.89344,-1.415306 -0.66799,-1.607594 0.28036,-0.23912 0.40521,0.584719 0.93258,1.063126 1.17192,1.063126 0.47888,0 1.08548,-1.31569 0.94502,-2.049703 -0.0488,-0.255112 -0.0979,-0.553136 -0.109,-0.662276 -0.0302,-0.295788 -1.34316,-0.240228 -1.34316,0.05684 0,0.140401 0.21205,0.368762 0.47123,0.507468 0.25917,0.138707 0.49009,0.502656 0.51315,0.808778 0.0237,0.314322 -0.0741,0.484864 -0.22468,0.391811 -0.14663,-0.09062 -0.20032,-0.337507 -0.11931,-0.548627 0.081,-0.21112 0.0403,-0.317753 -0.0904,-0.236962 -0.30248,0.186944 -1.11362,-0.114215 -0.96319,-0.357614 0.0965,-0.156173 -0.6408,-0.183918 -1.57119,-0.05912 -0.38167,0.05119 -0.45273,2.153033 -0.10175,3.00931 0.27065,0.660304 0.77535,1.014142 0.75479,0.529166 z m 2.12508,-3.770312 c -0.23847,-0.154109 -0.2711,-0.258098 -0.0818,-0.260532 0.17331,-0.0022 0.3887,0.115011 0.47864,0.260532 0.20301,0.328487 0.11142,0.328487 -0.39688,0 z m -0.36931,3.246657 c -0.26896,-0.268952 -0.49087,0.135967 -0.2702,0.493019 0.1667,0.269722 0.22902,0.269931 0.31864,0.0011 0.0613,-0.183829 0.0395,-0.406167 -0.0484,-0.494088 z m 3.304778,-0.09002 c 1.021424,-0.515096 2.626171,-2.17541 2.612368,-2.702824 -0.0048,-0.181745 -0.164847,-0.115267 -0.368248,0.152917 -0.419359,0.552926 -2.973478,1.043106 -3.626678,0.696023 -0.3446,-0.183105 -0.46445,-0.06433 -0.59531,0.589982 -0.0901,0.450583 -0.16385,1.110038 -0.16385,1.465459 0,0.726588 0.37035,0.691734 2.141718,-0.201557 z m -9.594408,-0.259729 c -0.15477,-0.443989 -0.34147,-0.747191 -0.41488,-0.67378 -0.20988,0.209873 0.1768,1.481037 0.45051,1.481037 0.14353,0 0.12871,-0.335833 -0.0356,-0.807257 z m 1.36727,0.246862 c 0,-0.145521 -0.11906,-0.191 -0.26458,-0.101063 -0.14552,0.08994 -0.26458,0.282583 -0.26458,0.428104 0,0.145521 0.11906,0.191 0.26458,0.101063 0.14552,-0.08994 0.26458,-0.282583 0.26458,-0.428104 z m 2.08847,-0.02146 c -0.16161,-0.301979 -0.22655,-0.979207 -0.1443,-1.504951 0.0884,-0.564852 0.0603,-0.793545 -0.0685,-0.559029 -0.11994,0.218281 -0.27879,0.878652 -0.353,1.46749 -0.1148,0.910834 -0.0607,1.076206 0.36236,1.108075 0.42369,0.03192 0.4538,-0.0438 0.20345,-0.51159 z m -1.88138,-1.808415 c 0.41668,-0.868165 0.68188,-1.578482 0.58934,-1.578482 -0.4804,0 -1.63024,1.629348 -1.77369,2.513378 -0.22746,1.401657 0.24002,1.032634 1.18435,-0.934896 z m -2.32375,1.067352 c 0,-0.145521 -0.11907,-0.264584 -0.26459,-0.264584 -0.14552,0 -0.26458,0.119063 -0.26458,0.264584 0,0.145521 0.11906,0.264583 0.26458,0.264583 0.14552,0 0.26459,-0.119062 0.26459,-0.264583 z m 1.5438,-1.673275 c 0.31773,-0.338217 0.50689,-0.685758 0.42033,-0.772313 -0.0866,-0.08655 0.0909,-0.29027 0.39446,-0.452701 0.3035,-0.162431 0.55182,-0.411212 0.55182,-0.552846 0,-0.164424 -0.16738,-0.166836 -0.46302,-0.0067 -0.25466,0.137964 -0.77538,0.316056 -1.15717,0.39576 -0.95055,0.198447 -1.95189,1.046104 -1.70592,1.444096 0.14717,0.238129 0.43215,0.181485 1.11556,-0.221733 1.23848,-0.73072 1.45763,-0.680843 0.49076,0.111691 -0.43656,0.357846 -0.66567,0.654911 -0.50914,0.660144 0.15653,0.0052 0.54458,-0.267208 0.86232,-0.605426 z m 8.555676,0.177059 c 0.546458,-0.494537 0.63658,-1.288581 0.178391,-1.571758 -0.181132,-0.111946 -0.233952,-0.07308 -0.129771,0.09549 0.09663,0.156353 -0.133078,0.527157 -0.510466,0.82401 -0.37739,0.296852 -0.60962,0.663574 -0.51607,0.814936 0.23322,0.377361 0.4145,0.347204 0.977916,-0.162678 z m 2.172308,-0.501901 c 0.09035,-0.235459 0.046,-0.341662 -0.103984,-0.248969 -0.143854,0.08891 -0.261553,0.01572 -0.261553,-0.162647 0,-0.178362 -0.07424,-0.250055 -0.164978,-0.159317 -0.165814,0.165814 0.05081,0.98155 0.260658,0.98155 0.06176,0 0.183194,-0.184778 0.269857,-0.410617 z m -0.894704,-0.515425 c 0,-0.363802 -0.119062,-0.661458 -0.264583,-0.661458 -0.145521,0 -0.264583,0.297656 -0.264583,0.661458 0,0.363802 0.119062,0.661458 0.264583,0.661458 0.145521,0 0.264583,-0.297656 0.264583,-0.661458 z m -1.82728,0.119017 c 0.285552,-0.152822 0.454376,-0.38272 0.375166,-0.510885 -0.07921,-0.128164 -0.02301,-0.307811 0.124882,-0.399215 0.340597,-0.2105 0.350858,-0.664125 0.01502,-0.664125 -0.376208,0 -1.591558,1.3842 -1.436138,1.635673 0.17384,0.281279 0.29589,0.273136 0.92107,-0.06145 z m -0.35994,-0.28414 c 0.17947,-0.180821 0.39297,-0.262115 0.47443,-0.180653 0.08146,0.08146 -0.0654,0.229406 -0.32632,0.328765 -0.37708,0.143586 -0.40747,0.113195 -0.14811,-0.148112 z m -4.29549,-0.628627 c 3.3e-4,-0.621863 -0.1285,-0.812059 -0.59489,-0.878298 -0.45529,-0.06466 -0.59532,0.0462 -0.59532,0.471325 0,0.30573 0.20836,0.635951 0.46302,0.733825 0.39315,0.151097 0.3632,0.207586 -0.19843,0.37432 -0.61649,0.183015 -0.60752,0.192838 0.13187,0.144472 0.69346,-0.04536 0.79339,-0.151824 0.79375,-0.845644 z m 8.636211,0.118307 c 0.582577,-0.506589 0.587539,-0.533053 0.0737,-0.393135 -0.357254,0.09728 -0.718472,-0.03513 -1.027548,-0.376651 -0.262146,-0.289667 -0.583768,-0.460452 -0.714716,-0.379521 -0.130948,0.08093 0.06983,0.389353 0.44617,0.685383 0.376341,0.29603 0.617225,0.605268 0.535297,0.687195 -0.08193,0.08193 -0.316588,-0.08029 -0.521467,-0.360477 -0.20488,-0.280189 -0.458741,-0.423203 -0.564137,-0.317808 -0.244191,0.244192 0.369845,0.998165 0.812907,0.998165 0.184341,0 0.616247,-0.244418 0.95979,-0.543151 z m -12.736831,0.0019 c 0.29646,-0.200619 0.19605,-0.234349 -0.39688,-0.133314 -0.43656,0.07439 -0.15197,-0.08144 0.63243,-0.34629 1.04328,-0.352262 1.30205,-0.529173 0.96385,-0.658953 -0.55006,-0.211077 -2.42495,0.249885 -2.67734,0.65825 -0.17833,0.28855 0.32355,0.748876 0.81648,0.748876 0.14552,0 0.44318,-0.120856 0.66146,-0.268569 z m 7.9375,0.02806 c 0,-0.136736 -0.44649,-0.295315 -0.99219,-0.352397 l -0.99219,-0.103786 1.12448,-0.04448 c 1.73668,-0.06869 1.30755,-0.838227 -0.46744,-0.838227 -0.94561,0 -2.24911,0.479931 -1.99629,0.735007 0.17769,0.179266 2.26496,0.751882 2.9929,0.821062 0.1819,0.01729 0.33073,-0.08044 0.33073,-0.217181 z m -6.70278,-0.456943 c -0.097,-0.09701 -0.25576,-0.09701 -0.35278,0 -0.097,0.09701 -0.0176,0.176389 0.17639,0.176389 0.19403,0 0.2734,-0.07937 0.17639,-0.176389 z m 11.72986,-0.48507 c 0.278539,-0.335618 0.222283,-0.396875 -0.364478,-0.396875 -0.670756,0 -0.882367,0.252461 -0.517466,0.617361 0.273804,0.273805 0.523534,0.211372 0.881944,-0.220486 z m -2.499293,-0.155345 c 0.272658,-0.441171 -0.340574,-0.947079 -0.70557,-0.582083 -0.305309,0.305309 -0.114226,0.86972 0.294447,0.86972 0.128344,0 0.313349,-0.129437 0.411123,-0.287637 z m -1.557647,-0.153335 c -0.097,-0.09701 -0.25577,-0.09701 -0.35278,0 -0.097,0.09701 -0.0176,0.176389 0.17639,0.176389 0.194025,0 0.2734,-0.07938 0.17639,-0.176389 z m -3.69482,-0.458139 c 0.17492,-0.02983 0.54177,-0.256709 0.81523,-0.50418 0.27345,-0.247471 0.58311,-0.364019 0.68813,-0.258997 0.10502,0.105023 0.11239,-0.01378 0.0164,-0.264006 -0.25999,-0.677512 -0.77134,-0.55076 -1.09993,0.272648 -0.28921,0.724703 -0.28981,0.724175 -0.1503,-0.132292 0.17793,-1.092311 -0.43208,-1.176939 -0.9387,-0.130227 -0.69468,1.435255 -0.70181,1.49291 -0.15779,1.275077 0.27993,-0.112085 0.65207,-0.228195 0.82699,-0.258023 z m -0.97949,-1.495007 c 0,-0.30159 -0.17832,-0.469979 -0.47409,-0.447699 -0.36948,0.02783 -0.47165,0.260203 -0.46302,1.053062 0.011,1.009948 0.0144,1.013205 0.47409,0.447699 0.25466,-0.313308 0.46302,-0.787186 0.46302,-1.053062 z m 3.56892,0.272671 c -0.27433,-0.443879 -0.6585,-0.01174 -0.6585,0.740725 v 0.704715 l 0.4122,-0.588502 c 0.22671,-0.323677 0.33755,-0.709299 0.2463,-0.856938 z m 1.630848,0.920968 c 0.154058,-0.401468 -0.573548,-1.445354 -1.007438,-1.445354 -0.44838,0 -0.20797,0.775145 0.37173,1.198598 0.589523,0.430623 0.586949,0.433139 -0.26458,0.258564 -0.54795,-0.112337 -0.8599,-0.07268 -0.8599,0.109315 0,0.451036 1.582415,0.342146 1.760188,-0.121123 z m 3.475225,-0.08199 c 0.09487,-0.287818 0.0054,-0.296424 -0.464957,-0.04471 -0.703877,0.376704 -0.972028,0.210408 -0.411221,-0.255021 0.460115,-0.381861 0.540912,-1.063639 0.126052,-1.063639 -0.15247,0 -0.583555,0.327421 -0.957967,0.727604 l -0.68075,0.727604 0.185287,-0.860114 c 0.215535,-1.000524 -0.258476,-1.352739 -1.166506,-0.866776 -0.600948,0.321618 -0.503439,0.800848 0.16295,0.800848 0.280828,0 0.354159,-0.145542 0.233293,-0.463021 -0.11536,-0.303015 -0.08717,-0.371589 0.08158,-0.198437 0.141821,0.145521 0.297702,0.557359 0.346405,0.915195 0.129415,0.950871 2.263365,1.437425 2.545834,0.580467 z m -10.238813,-1.974687 c -0.49225,-0.492254 -0.61216,0.01246 -0.24641,1.037191 l 0.35502,0.994657 0.0854,-0.8762 c 0.047,-0.481911 -0.0403,-1.001952 -0.19403,-1.155648 z m -2.28668,0.517297 c -0.0966,-0.384851 -0.28177,-0.699729 -0.41152,-0.699729 -0.32542,0 -0.29808,0.98867 0.033,1.193292 0.1479,0.0914 0.18996,0.30679 0.0935,0.478636 -0.12922,0.230156 -0.0917,0.235421 0.14262,0.01999 0.19168,-0.176257 0.24827,-0.57048 0.14242,-0.992188 z m 12.334391,-0.786717 c -0.14779,-0.388719 -0.435672,-0.706762 -0.639737,-0.706762 -0.533631,0 -1.051304,0.716348 -0.866221,1.198665 0.126645,0.330033 0.267551,0.353007 0.710652,0.115866 0.476707,-0.255126 0.575801,-0.211229 0.72083,0.319319 0.115891,0.423956 0.195342,0.485297 0.255665,0.197391 0.04814,-0.229745 -0.0334,-0.735761 -0.181189,-1.124479 z m -2.629381,-0.652641 c 1.695656,-0.829693 3.091855,-2.265515 3.894728,-4.005255 1.421772,-3.08083 0.725708,-6.965716 -1.671374,-9.328309 -1.674927,-1.650829 -3.100454,-2.199578 -5.696614,-2.192879 -2.56075,0.0066 -3.86913,0.517707 -5.64481,2.205062 -1.01406,0.963612 -2.03871,2.624831 -2.01615,3.268699 0.007,0.187698 0.27992,-0.170685 0.60742,-0.796407 1.96704,-3.758144 6.0534,-5.430455 9.807019,-4.013443 1.881316,0.710207 3.655795,2.379324 4.416707,4.154457 0.826646,1.928488 0.800652,4.589064 -0.06295,6.443502 -2.927566,6.286419 -11.303636,6.280115 -14.203226,-0.01069 -0.52209,-1.132697 -0.66512,-1.867575 -0.66512,-3.417253 0,-1.491882 -0.0597,-1.818081 -0.24428,-1.335108 -0.34778,0.909914 -0.0331,3.481357 0.60864,4.973048 0.70876,1.647557 2.71561,3.609745 4.36959,4.272348 1.79551,0.719301 4.79036,0.61897 6.500424,-0.217771 z m -1.32371,-0.990453 c 2.994882,-1.053266 4.47276,-2.972781 4.671355,-6.067306 0.150525,-2.345508 -0.490952,-3.866666 -2.326548,-5.517025 -3.339747,-3.002722 -8.327017,-2.175307 -10.581437,1.755517 -0.63258,1.102983 -0.78732,1.684117 -0.78813,2.959938 -0.002,2.440905 0.40169,3.48287 1.94522,5.026399 2.08877,2.08877 4.55453,2.730492 7.07954,1.842477 z"
       id="path23906" />
  </g>
</svg>
