<?xml version="1.0" encoding="UTF-8" standalone="no"?>
<!-- Created with Inkscape (http://www.inkscape.org/) -->

<svg
   width="83.224503mm"
   height="50.811504mm"
   viewBox="0 0 83.224509 50.811502"
   version="1.1"
   id="svg5"
   inkscape:version="1.1 (c4e8f9ed74, 2021-05-24)"
   sodipodi:docname="ornament61.svg"
   xmlns:inkscape="http://www.inkscape.org/namespaces/inkscape"
   xmlns:sodipodi="http://sodipodi.sourceforge.net/DTD/sodipodi-0.dtd"
   xmlns="http://www.w3.org/2000/svg"
   xmlns:svg="http://www.w3.org/2000/svg">
  <sodipodi:namedview
     id="namedview7"
     pagecolor="#ffffff"
     bordercolor="#666666"
     borderopacity="1.0"
     inkscape:pageshadow="2"
     inkscape:pageopacity="0.0"
     inkscape:pagecheckerboard="0"
     inkscape:document-units="mm"
     showgrid="false"
     inkscape:zoom="0.94615212"
     inkscape:cx="394.75682"
     inkscape:cy="149.55312"
     inkscape:window-width="2506"
     inkscape:window-height="1403"
     inkscape:window-x="1974"
     inkscape:window-y="0"
     inkscape:window-maximized="1"
     inkscape:current-layer="layer1" />
  <defs
     id="defs2" />
  <g
     inkscape:label="Layer 1"
     inkscape:groupmode="layer"
     id="layer1"
     transform="translate(-55.302873,-130.33353)">
    <path
       style="fill:#000000;stroke-width:0.794193"
       d="m 95.399749,180.32257 c -0.28531,-0.46163 -0.31104,-1.66688 -0.0572,-2.67832 0.58191,-2.3185 -1.63993,-6.88745 -3.59835,-7.39958 -1.84888,-0.4835 -1.84206,-0.68046 0.10955,-3.16153 0.87362,-1.11062 1.58839,-2.99951 1.58839,-4.19754 0,-1.19803 0.53608,-2.62314 1.19129,-3.16692 0.65521,-0.54377 1.19129,-2.03817 1.19129,-3.32088 0,-1.35257 0.3336,-2.12603 0.79419,-1.84137 0.43681,0.26996 0.7964,1.27386 0.79909,2.2309 0.003,0.95704 0.53877,2.76373 1.19129,4.01488 0.65252,1.25114 1.1864,2.70265 1.1864,3.22556 0,0.52292 0.714771,1.71798 1.588381,2.65569 1.83752,1.97234 2.05233,3.35974 0.52019,3.35974 -2.004091,0 -3.992761,3.16449 -4.135801,6.58113 -0.077,1.84046 -0.18852,3.61432 -0.24772,3.94193 -0.159,0.87989 -1.52349,0.72312 -2.12101,-0.24369 z m 3.7587,-11.27212 c 1.133511,-0.89684 1.101791,-1.2229 -0.32838,-3.37532 -0.8707,-1.31042 -1.32731,-1.6678 -1.0147,-0.79419 1.00284,2.80243 0.82389,3.90294 -0.68515,4.21356 -2.15999,0.44463 -3.38769,-1.07321 -2.11168,-2.61071 0.5679,-0.68427 0.81631,-1.46038 0.55201,-1.72467 -0.26429,-0.2643 -0.92033,0.48471 -1.45785,1.66445 -0.80659,1.77027 -0.7771,2.27167 0.16881,2.87015 1.60099,1.01294 3.40283,0.92307 4.87694,-0.24327 z m -19.72457,-4.9637 c -0.25142,-0.65521 -0.25374,-1.72135 -0.005,-2.36919 0.54464,-1.41933 2.89471,-0.71646 2.89471,0.86577 0,1.78816 1.35492,1.28683 4.19328,-1.55153 3.61132,-3.61132 5.83063,-8.31146 4.50272,-9.53605 -0.75458,-0.69587 -0.84651,-0.6626 -0.39028,0.14125 0.35326,0.62241 -0.0411,1.75677 -0.96632,2.77967 -0.85972,0.95048 -1.88511,2.33736 -2.27865,3.08196 -0.51821,0.9805 -1.04087,1.1403 -1.89539,0.57951 -1.00805,-0.66154 -0.93662,-0.97916 0.49045,-2.18089 1.59777,-1.34548 3.49193,-4.2351 3.49193,-5.32707 0,-0.28425 -1.65188,0.93724 -3.67085,2.7144 -2.01896,1.77716 -3.98459,3.0373 -4.36806,2.8003 -1.35158,-0.83532 -0.66913,-1.91597 1.88391,-2.98316 2.77588,-1.16033 5.09772,-3.44117 4.30747,-4.23142 -0.26702,-0.26701 -1.4002,0.11386 -2.51818,0.84639 -1.98236,1.29889 -3.57623,1.13426 -3.57623,-0.36939 0,-0.41103 0.62543,-0.75869 1.38984,-0.77258 0.76441,-0.0139 2.10461,-0.59464 2.97823,-1.29054 1.54278,-1.22896 1.53138,-1.24681 -0.3971,-0.62158 -3.01092,0.97616 -10.07668,0.74916 -11.4215,-0.36693 -0.65515,-0.54373 -0.99549,-1.49855 -0.75632,-2.12182 0.56586,-1.47461 2.6475,-1.47103 2.6475,0.005 0,1.58269 2.6642,2.26521 6.38704,1.63624 2.80118,-0.47325 3.14328,-0.77714 3.14328,-2.79212 0,-3.00342 1.3137,-6.32636 3.36811,-8.51947 l 1.67393,-1.78694 -12.64699,0.0311 c -11.12731,0.0273 -12.36069,0.15613 -10.2644,1.07174 6.56543,2.86761 12.03723,5.58417 13.12128,6.51427 1.037,0.88973 1.32994,0.64838 2.06553,-1.70178 0.89077,-2.84595 0.0242,-3.73347 -1.83253,-1.87677 -0.61957,0.61958 -1.55705,0.50224 -3.33561,-0.41749 -1.36061,-0.7036 -2.47383,-1.40969 -2.47383,-1.5691 0,-0.15941 2.35983,-0.32523 5.24408,-0.3685 4.70323,-0.0706 5.18075,0.0638 4.63007,1.30297 -0.33771,0.7599 -0.7679,2.90053 -0.95599,4.75696 -0.18809,1.85642 -0.44139,3.37532 -0.56288,3.37532 -0.1215,0 -2.31126,-1.25874 -4.86613,-2.79721 -2.55487,-1.53846 -8.13083,-4.12952 -12.39101,-5.7579 -4.26018,-1.62838 -7.75263,-3.22776 -7.76099,-3.55418 -0.008,-0.32641 8.026,-0.54552 17.85414,-0.4869 16.41685,0.0979 20.43335,0.55666 16.31584,1.86351 -2.76823,0.8786 -5.59531,5.03786 -5.58207,8.21248 0.007,1.60451 0.27473,3.3299 0.59564,3.8342 0.32092,0.50429 0.58349,-0.81244 0.58349,-2.92608 0,-3.16602 0.40922,-4.27012 2.32314,-6.26782 3.18312,-3.32246 6.7523,-3.8949 10.364681,-1.66233 3.47865,2.14993 4.38733,3.77385 4.38733,7.8407 0,2.28382 -0.59902,3.87994 -2.1462,5.71866 -1.8467,2.19468 -1.90394,2.39932 -0.41015,1.46643 5.18365,-3.23724 4.5637,-12.8211 -1.02277,-15.81088 -1.08913,-0.58289 -1.980371,-1.26744 -1.980551,-1.52123 -3.3e-4,-0.49091 34.204921,-0.27479 34.698951,0.21924 0.16022,0.16023 -2.66735,1.46277 -6.28349,2.89453 -7.97076,3.15591 -15.41202,6.81908 -16.09416,7.92281 -0.98512,1.59396 -1.99647,0.77188 -1.99647,-1.62282 0,-1.33914 -0.3905,-3.16444 -0.86777,-4.05623 -1.20988,-2.26068 -0.20294,-2.7305 4.83874,-2.25767 4.14544,0.38878 4.27193,0.46439 2.48185,1.48347 -1.53936,0.87636 -2.23284,0.88831 -3.77122,0.065 -2.39677,-1.28271 -2.68252,-0.91487 -1.58316,2.03797 l 0.88704,2.38258 8.33903,-4.15898 8.33903,-4.15899 -12.48461,-0.0105 -12.48461,-0.0105 1.96155,2.89051 c 1.33632,1.96917 1.96155,3.98285 1.96155,6.31756 0,3.25699 0.13171,3.45176 2.65425,3.92499 3.91976,0.73535 7.27317,0.17278 7.27317,-1.22016 0,-1.38391 2.10598,-1.62398 2.5504,-0.29073 0.1651,0.49531 -0.31629,1.51703 -1.06976,2.2705 -1.05919,1.0592 -2.28325,1.28377 -5.39626,0.99005 -2.21447,-0.20894 -4.74109,-0.66584 -5.6147,-1.01533 -1.56142,-0.62465 -1.56301,-0.60653 -0.0938,1.06734 0.82202,0.93653 2.16222,1.91468 2.97822,2.17367 0.81601,0.25899 1.48365,0.80899 1.48365,1.22223 0,0.41323 -1.25086,0.22869 -2.77968,-0.4101 -2.26608,-0.94682 -2.77967,-0.96567 -2.77967,-0.10199 0,1.37063 3.32126,3.53445 6.35694,4.14159 1.86192,0.37238 2.37918,0.19525 2.37918,-0.81473 0,-1.56086 1.07537,-1.67436 2.26644,-0.23922 2.01852,2.43217 -3.4987,3.97023 -7.28236,2.03013 -0.9541,-0.48922 -2.93734,-2.00812 -4.4072,-3.37532 -2.61448,-2.43189 -2.65994,-2.44275 -2.09481,-0.50035 0.31772,1.09202 1.49785,2.9683 2.62252,4.16952 1.12467,1.20121 1.66218,2.18403 1.19448,2.18403 -0.4677,0 -2.14281,-1.43058 -3.72246,-3.17906 -1.57965,-1.74849 -2.87209,-2.79956 -2.87209,-2.33571 0,0.46384 -0.35738,0.62247 -0.79419,0.35251 -0.47566,-0.29397 -0.794191,0.70653 -0.794191,2.49455 0,3.03038 -1.1666,2.96058 -1.71897,-0.10285 -0.15662,-0.8686 -0.87485,-1.69291 -1.59608,-1.8318 -0.98097,-0.18892 -1.63449,0.85914 -2.59419,4.16039 -0.70558,2.42711 -1.63028,4.41293 -2.05488,4.41293 -1.15509,0 -0.9321,-1.80059 0.4711,-3.80393 0.68371,-0.97614 1.11672,-2.75325 0.96226,-3.94914 -0.25557,-1.97856 -0.3827,-1.85745 -1.41199,1.34507 -1.58471,4.93062 -6.16441,9.58478 -9.43146,9.58478 -1.51667,0 -2.71362,-0.47728 -2.98762,-1.19129 z m 14.53371,-13.59524 c -1.23983,-0.6719 -2.45323,-1.02266 -2.69643,-0.77946 -0.2432,0.24321 0.41382,0.7846 1.46005,1.20311 2.97144,1.1886 3.73108,0.92831 1.23638,-0.42365 z m 2.25425,-3.08282 c 0,-0.86165 -0.58046,-1.67842 -1.28991,-1.81505 -1.37645,-0.26508 -2.604,1.84598 -1.81539,3.12198 0.80926,1.30942 3.1053,0.34309 3.1053,-1.30693 z m 4.147161,1.09451 c 1.23396,-1.23396 0.36342,-3.07999 -1.452461,-3.07999 -0.92839,0 -1.50341,0.55689 -1.50341,1.45602 0,2.44401 1.37848,3.20136 2.955871,1.62397 z m -7.721031,-3.06792 c 0.95384,-0.60676 1.00476,-1.05891 0.25547,-2.2685 -0.69484,-1.12168 -0.70507,-1.74146 -0.0397,-2.40682 1.19928,-1.19928 -0.42674,-2.87824 -2.14786,-2.21778 -1.41874,0.54442 -1.70589,2.91006 -0.35324,2.91006 0.6193,0 0.59217,0.3606 -0.0889,1.18117 -0.98241,1.18374 -0.60285,3.59466 0.56233,3.57183 0.34131,-0.007 1.15665,-0.35317 1.81186,-0.76996 z m 10.835381,-0.41929 c 0.25357,-0.66077 0.0199,-1.73293 -0.51926,-2.38258 -0.68102,-0.82057 -0.70815,-1.18117 -0.0888,-1.18117 1.26319,0 1.10626,-2.0098 -0.24447,-3.13081 -0.9072,-0.75291 -1.30739,-0.62229 -1.98763,0.64875 -0.59387,1.10965 -0.59896,1.74769 -0.0168,2.10747 0.5724,0.35376 0.5425,0.86832 -0.0951,1.63658 -0.713211,0.85937 -0.699531,1.39829 0.0587,2.31188 1.26124,1.5197 2.30781,1.51604 2.89345,-0.0101 z m -7.658611,-8.37578 c 0,-1.62771 -1.93186,-2.11912 -2.80118,-0.71253 -0.63375,1.02543 1.12976,3.28704 2.09698,2.68927 0.38731,-0.23938 0.7042,-1.12891 0.7042,-1.97674 z m 4.566841,0.24584 c 0.46925,-1.40933 -2.200741,-2.25154 -3.006201,-0.94826 -0.3639,0.5888 -0.47321,1.37544 -0.2429,1.74808 0.5878,0.95109 2.85168,0.39379 3.249101,-0.79982 z m 6.7921,27.22548 c -1.74409,-0.75846 -3.17434,-2.35726 -4.56661,-5.10477 -2.23522,-4.41101 -2.35398,-4.84743 -1.31907,-4.84743 0.38945,0 0.91159,0.80412 1.1603,1.78694 1.03538,4.09135 8.45611,9.88816 8.45611,6.60561 0,-1.44298 2.02183,-1.67685 2.85414,-0.33013 0.57887,0.93662 -1.69267,3.08109 -3.20448,3.0252 -0.46252,-0.0171 -1.98369,-0.52804 -3.38039,-1.13542 z m -6.59378,-1.94531 c 0,-0.40108 -0.20787,-1.3839 -0.46193,-2.18403 -0.422701,-1.33125 -0.355251,-1.32387 0.79419,0.0868 1.43848,1.76543 1.61188,2.82643 0.46193,2.82643 -0.4368,0 -0.79419,-0.32816 -0.79419,-0.72924 z m -25.579751,-6.46366 c -1.64253,-0.95759 -1.00271,-3.13162 0.92164,-3.13162 1.31538,0 4.00909,2.3099 4.00909,3.43786 0,0.80404 -3.38715,0.59367 -4.93073,-0.30624 z m -19.18139,-21.94911 c -0.98179,-0.98179 -0.49457,-3.41992 0.68342,-3.41992 0.6552,0 1.19129,0.69369 1.19129,1.54152 0,1.65766 -1.0467,2.70641 -1.87471,1.8784 z m 79.972361,-0.69362 c -0.66193,-1.72496 1.0185,-3.34714 2.22132,-2.14433 1.0166,1.0166 0.38681,3.389 -0.89965,3.389 -0.46422,0 -1.05898,-0.5601 -1.32167,-1.24467 z"
       id="path8600" />
  </g>
</svg>
