<?xml version="1.0" encoding="UTF-8" standalone="no"?>
<!-- Created with Inkscape (http://www.inkscape.org/) -->

<svg
   width="85.965584mm"
   height="63.122574mm"
   viewBox="0 0 85.965582 63.122581"
   version="1.1"
   id="svg5"
   inkscape:version="1.1 (c4e8f9ed74, 2021-05-24)"
   sodipodi:docname="teapot.svg"
   xmlns:inkscape="http://www.inkscape.org/namespaces/inkscape"
   xmlns:sodipodi="http://sodipodi.sourceforge.net/DTD/sodipodi-0.dtd"
   xmlns="http://www.w3.org/2000/svg"
   xmlns:svg="http://www.w3.org/2000/svg">
  <sodipodi:namedview
     id="namedview7"
     pagecolor="#ffffff"
     bordercolor="#666666"
     borderopacity="1.0"
     inkscape:pageshadow="2"
     inkscape:pageopacity="0.0"
     inkscape:pagecheckerboard="0"
     inkscape:document-units="mm"
     showgrid="false"
     inkscape:zoom="0.66903058"
     inkscape:cx="-496.98774"
     inkscape:cy="296.69795"
     inkscape:window-width="2506"
     inkscape:window-height="1403"
     inkscape:window-x="1974"
     inkscape:window-y="0"
     inkscape:window-maximized="1"
     inkscape:current-layer="layer1" />
  <defs
     id="defs2" />
  <g
     inkscape:label="Layer 1"
     inkscape:groupmode="layer"
     id="layer1"
     transform="translate(-267.21275,-133.58741)">
    <path
       style="fill:#000000;stroke-width:0.781027"
       d="m 298.11996,195.47867 c -2.54344,-0.73822 -4.7625,-1.76092 -4.93123,-2.27268 -0.44538,-1.35078 4.18826,-3.50022 8.74444,-4.05636 4.23829,-0.51734 5.29815,-1.88576 1.77427,-2.29083 -1.18858,-0.13663 -1.96302,-0.56885 -1.72096,-0.96051 0.24205,-0.39165 2.44465,-0.50263 4.89466,-0.24661 2.45001,0.25601 5.84982,0.0802 7.55515,-0.39075 1.86353,-0.51462 3.38427,-0.57256 3.81161,-0.14522 0.42734,0.42733 -0.42022,0.92323 -2.12431,1.24292 -1.55943,0.29255 -2.83532,0.85296 -2.83532,1.24535 0,0.93918 3.46133,2.22765 6.1038,2.27212 1.15334,0.0194 3.67856,0.87103 5.6116,1.89249 l 3.51462,1.85719 -3.1241,1.38883 c -4.55753,2.02606 -20.9326,2.30468 -27.27423,0.46406 z m 19.65921,-0.70905 c -0.75174,-0.19645 -1.98185,-0.19645 -2.73359,0 -0.75174,0.19645 -0.13668,0.35718 1.36679,0.35718 1.50348,0 2.11854,-0.16073 1.3668,-0.35718 z m 3.6996,-2.69678 c 0.55773,-0.5882 0.0327,-0.67461 -1.77877,-0.29272 -1.78756,0.37686 -3.14656,0.16411 -4.46343,-0.69874 -2.38232,-1.56096 -3.21086,-1.59032 -1.9483,-0.069 1.37827,1.66072 -0.047,1.40589 -2.20741,-0.39468 -0.99929,-0.83284 -1.5936,-1.87553 -1.3207,-2.3171 1.15574,-1.87003 -1.42863,-0.60113 -3.29628,1.61844 -1.84631,2.19422 -2.33321,2.37397 -5.19218,1.9168 -4.12684,-0.65991 -3.24265,0.18454 1.16959,1.11702 4.22937,0.89383 17.95723,0.25927 19.03748,-0.87999 z m -12.21719,-7.30009 c -0.37769,-0.37768 -4.45878,-1.02547 -7.10295,-1.12745 -0.75174,-0.029 -1.3668,-0.3163 -1.3668,-0.63848 0,-0.32217 1.58158,-0.58577 3.51462,-0.58577 1.93305,0 3.51463,0.28434 3.51463,0.63187 0,0.34752 0.43932,0.35346 0.97628,0.0132 1.42629,-0.90382 7.66242,-0.78853 7.35411,0.13597 -0.14325,0.42956 -1.16716,0.78102 -2.27535,0.78102 -1.1082,0 -2.27959,0.2636 -2.60309,0.58577 -0.67709,0.67431 -1.46152,0.75382 -2.01145,0.20388 z m -7.29821,-4.30427 c -0.31074,-0.50279 2.61068,-0.78102 8.20079,-0.78102 5.5901,0 8.51153,0.27823 8.20078,0.78102 -0.26911,0.43543 -3.89788,0.78103 -8.20078,0.78103 -4.30291,0 -7.93168,-0.3456 -8.20079,-0.78103 z m 0.18081,-2.37226 c -2.04838,-0.34457 -5.30381,-1.3911 -7.2343,-2.32564 l -3.50998,-1.69915 -1.46273,1.8064 c -1.24924,1.54274 -1.64554,1.65468 -2.71519,0.76695 -0.68886,-0.5717 -1.05792,-1.35423 -0.82014,-1.73897 1.12513,-1.82049 -0.96439,-3.99844 -6.69788,-6.98133 -10.05277,-5.23002 -12.48303,-8.08494 -12.49115,-14.67385 -0.005,-3.65961 0.29229,-4.45539 2.39389,-6.41857 4.4917,-4.19588 10.37751,-3.48313 16.34562,1.97938 1.07391,0.98293 2.77216,2.20934 3.77389,2.72535 1.5267,0.78643 1.98131,0.71939 2.81036,-0.41441 1.03146,-1.4106 2.78807,-0.95044 2.78807,0.73036 0,0.74525 2.69446,0.89455 11.58616,0.64195 10.79493,-0.30667 12.08624,-0.18527 18.90899,1.77758 4.02755,1.15869 8.72074,2.78211 10.4293,3.6076 3.37852,1.63232 5.53047,1.95738 4.76564,0.71986 -0.26549,-0.42957 0.086,-0.78103 0.78102,-0.78103 0.71053,0 1.03419,-0.3714 0.73938,-0.84842 -0.34236,-0.55396 0.24653,-0.75726 1.69673,-0.58577 1.72754,0.20429 2.27701,-0.0845 2.47281,-1.29941 0.1422,-0.88235 -0.0214,-1.2222 -0.37602,-0.78102 -2.12136,2.6393 -5.67944,-0.77544 -6.40887,-6.1507 -0.3017,-2.22323 -0.81456,-4.47266 -1.13969,-4.99873 -0.40757,-0.65946 0.0295,-0.95649 1.40751,-0.95649 1.09927,0 1.99867,0.35146 1.99867,0.78102 0,0.42957 -0.29385,0.78103 -0.65299,0.78103 -1.4225,0 -0.88457,6.06869 0.71856,8.10676 2.21174,2.81176 3.39976,1.3698 3.62256,-4.39688 0.18582,-4.80921 -0.53732,-5.71338 -2.00071,-2.50159 -1.16164,2.54953 -1.15112,4.48279 0.0308,5.66475 0.56815,0.56815 0.61752,0.93723 0.12537,0.93723 -1.26283,0 -2.5719,-3.54764 -2.04813,-5.55053 0.25927,-0.99145 1.26077,-2.96583 2.22555,-4.38752 l 1.75415,-2.58489 0.51754,2.35633 c 0.55512,2.52744 1.72256,3.09107 2.45407,1.1848 0.77367,-2.0162 1.84448,-1.28055 1.84448,1.26717 0,2.07919 0.17271,2.29538 1.17154,1.46642 1.8627,-1.5459 1.52123,4.4935 -0.43553,7.7031 -1.95064,3.19956 -2.89706,2.74999 -1.18412,-0.56249 0.67603,-1.30728 1.20046,-2.83365 1.16543,-3.39194 -0.0351,-0.55829 -0.55227,0.10028 -1.1494,1.46348 -0.59711,1.3632 -1.4471,2.70193 -1.88885,2.97495 -1.32027,0.81597 -0.90881,2.74728 0.5853,2.74728 0.76366,0 2.02299,0.74107 2.79852,1.64681 1.37365,1.60431 1.35293,1.70693 -0.80271,3.9765 -1.21701,1.28134 -3.19765,3.03753 -4.40142,3.90265 -2.60303,1.87076 -9.61082,4.53253 -11.933,4.53253 -0.90601,0 -2.25893,0.67586 -3.0065,1.50192 -0.74757,0.82605 -3.90355,2.75909 -7.0133,4.29564 -5.2126,2.5756 -6.16789,2.78657 -12.23455,2.70188 -3.61926,-0.0505 -8.25642,-0.37379 -10.3048,-0.71835 z m 5.48817,-4.98196 c -0.87289,-4.16156 -0.82991,-4.59891 0.55131,-5.60888 1.37791,-1.00755 1.25121,-1.09442 -1.5801,-1.08342 -1.69297,0.007 -2.69061,0.27017 -2.21697,0.58577 0.47364,0.31559 1.1113,2.49806 1.41701,4.84993 0.49141,3.78043 1.74557,6.79999 2.50777,6.03779 0.14723,-0.14723 -0.15832,-2.29877 -0.67902,-4.78119 z m 6.60711,-1.25103 c 0.91233,-4.61252 1.17501,-5.06272 2.95394,-5.06272 1.76512,0 1.93616,0.28039 1.78162,2.92063 -0.094,1.60635 -0.72647,4.06659 -1.40543,5.46719 -1.23448,2.54656 -1.23448,2.54656 0.35759,0.71336 0.87564,-1.00826 2.00895,-3.29276 2.51846,-5.07667 1.15728,-4.05188 2.01003,-5.19605 3.87264,-5.19605 0.91395,0 1.46642,0.55257 1.46642,1.46667 0,1.90698 -2.26447,7.33056 -3.40715,8.16037 -0.59269,0.43042 -0.49846,0.55042 0.28304,0.36044 0.64435,-0.15663 2.31396,-2.64362 3.71024,-5.52665 2.11766,-4.3725 2.85927,-5.24186 4.47158,-5.24186 1.78022,0 1.86915,0.16761 1.126,2.12223 -0.44378,1.16723 -1.18809,2.58157 -1.65402,3.14298 -0.46593,0.56142 -0.64027,1.22763 -0.38743,1.48048 0.53247,0.53247 3.66074,-4.34352 3.66509,-5.71272 0.002,-0.50578 0.96944,-1.70297 2.15074,-2.66043 1.54198,-1.24978 1.70721,-1.57814 0.58578,-1.16408 -3.74824,1.38396 -15.20018,3.54479 -19.13517,3.61056 -4.19259,0.0701 -9.35377,1.3413 -5.96482,1.46917 1.30583,0.0493 1.42336,0.61371 1.14682,5.50775 -0.3697,6.54281 0.48643,6.18427 1.86406,-0.78065 z m -12.25731,2.6685 c -1.69272,-3.24585 -1.58822,-8.09971 0.17648,-8.19738 0.75174,-0.0416 -1.6277,-0.54269 -5.28764,-1.11353 -3.65995,-0.57083 -8.22896,-1.58606 -10.15336,-2.25606 -4.79419,-1.66916 -5.0806,-1.57337 -2.98257,0.99753 1.00471,1.23114 2.24997,2.90059 2.76724,3.70987 0.81443,1.2742 0.88104,1.13705 0.4969,-1.02313 -0.43098,-2.42359 -0.37996,-2.47766 1.7931,-1.90068 1.69794,0.45083 2.4805,1.33388 3.24891,3.6661 0.55671,1.68972 1.69237,3.75879 2.52368,4.59792 1.47746,1.49138 1.47653,1.43376 -0.0413,-2.56079 -1.41783,-3.73143 -1.44127,-4.12928 -0.2697,-4.57885 2.08751,-0.80106 3.67269,0.8119 4.6805,4.76248 0.84455,3.31066 3.21431,7.17468 3.94934,6.43964 0.15351,-0.1535 -0.25221,-1.29791 -0.9016,-2.54312 z m 38.41131,-11.79474 1.72181,-1.79418 h -1.91707 c -1.25227,0 -1.91707,0.442 -1.91707,1.27461 0,0.70103 -0.72341,2.54621 -1.60757,4.10039 l -1.60757,2.82578 1.80283,-2.30621 c 0.99155,-1.26841 2.57764,-3.11359 3.52464,-4.10039 z m 2.96315,1.65259 c 1.56749,-2.0551 1.75578,-2.66575 0.82197,-2.66575 -0.66621,0 -1.21128,0.3245 -1.21128,0.72111 0,0.3966 -0.9111,1.80387 -2.02465,3.12725 -1.21102,1.43923 -1.54134,2.22069 -0.82197,1.94464 0.66147,-0.25382 2.11763,-1.66109 3.23593,-3.12725 z m -17.72081,-1.10323 c 1.18043,-0.34865 -2.69087,-0.4955 -8.83291,-0.33507 -7.77121,0.20299 -10.03062,0.0798 -7.81027,-0.4259 1.71826,-0.39134 5.40861,-0.75783 8.20078,-0.81443 2.79217,-0.0566 6.65826,-0.37645 8.5913,-0.71079 2.03172,-0.3514 -1.26362,-0.4465 -7.81027,-0.22538 -6.22869,0.21038 -11.10635,0.145 -10.83924,-0.1453 0.26711,-0.2903 4.66039,-0.67483 9.76284,-0.85452 5.10245,-0.17969 10.33157,-0.68592 11.62026,-1.12495 1.95087,-0.66462 1.55866,-0.73733 -2.34308,-0.43442 -5.49349,0.42649 -9.86558,0.56975 -13.66797,0.44785 -1.98409,-0.0636 -2.42261,-0.28437 -1.59935,-0.80517 0.62384,-0.39464 1.44433,-0.52589 1.82331,-0.29167 0.93301,0.57663 13.83453,-0.53367 13.83453,-1.1906 0,-0.2868 -2.72384,-0.4825 -6.05296,-0.4349 -3.32913,0.0476 -4.37432,-0.0564 -2.32265,-0.23099 6.78969,-0.57797 2.97609,-1.79655 -5.62237,-1.79655 -11.78337,0 -23.74764,2.3284 -22.92881,4.46224 0.30949,0.80651 0.65165,0.83674 1.50014,0.13256 0.60456,-0.50174 1.32502,-0.68644 1.60101,-0.41045 0.276,0.276 0.0918,0.50182 -0.40938,0.50182 -1.72599,0 -0.90856,1.56213 0.84611,1.61694 1.67679,0.0524 1.68573,0.0857 0.19526,0.72614 -1.29891,0.55815 -1.10155,0.69605 1.17154,0.81854 2.73359,0.1473 2.73359,0.1473 0.39051,0.7022 -2.0992,0.49715 -1.89596,0.60919 1.95257,1.07636 2.3626,0.2868 5.35003,0.66405 6.63873,0.83832 3.3367,0.45124 19.60596,-0.35219 22.11037,-1.09188 z m -51.98546,-1.75777 c -1.35028,-1.39609 -2.98705,-3.76846 -3.63727,-5.27194 -1.18221,-2.73359 -1.18221,-2.73359 -1.21278,-0.49388 -0.0216,1.58469 0.85622,3.1265 3.00165,5.27193 1.66773,1.66772 3.31825,3.03222 3.66784,3.03222 0.34958,0 -0.46917,-1.14225 -1.81944,-2.53833 z m 5.81395,0.19331 c -0.48683,-1.28977 -1.52005,-2.54654 -2.29604,-2.79284 -2.14827,-0.68183 -3.95663,-3.93594 -3.40614,-6.12928 0.90161,-3.5923 5.25156,-3.45845 6.6521,0.20469 0.77159,2.01808 0.79048,1.99887 0.62847,-0.63885 -0.21453,-3.49276 -3.3444,-4.94553 -6.65337,-3.08826 -4.62199,2.59425 -3.64836,8.70325 2.03114,12.74427 3.67764,2.61668 4.12793,2.57234 3.04384,-0.29973 z m 3.30723,-5.96109 c 0.89031,-1.13184 1.61874,-2.73131 1.61874,-3.55437 0,-1.37577 0.21068,-1.33578 2.61206,0.49584 2.77264,2.11479 5.52362,2.58036 6.44434,1.09062 0.3468,-0.56115 0.21408,-0.6896 -0.35141,-0.3401 -1.42065,0.878 -3.5624,-0.11178 -8.44357,-3.90209 -5.32538,-4.13524 -7.04496,-4.68843 -10.76138,-3.4619 -3.06229,1.01065 -5.14719,3.41608 -5.07107,5.85072 0.043,1.37699 0.15028,1.33096 0.82215,-0.35298 1.36314,-3.41652 3.08958,-4.70222 6.31414,-4.70222 5.32485,0 9.3543,6.42719 5.36721,8.56102 -2.0716,1.10868 -4.18186,0.17545 -3.70724,-1.63949 0.23196,-0.88702 -0.0302,-1.45434 -0.67201,-1.45434 -2.86642,0 -1.63963,4.33201 1.39211,4.91577 0.96746,0.18628 1.99711,0.38656 2.28811,0.44506 0.29099,0.0585 1.25751,-0.81969 2.14782,-1.95154 z m 5.52388,-0.36446 c 0,-1.40825 -1.74781,-1.53119 -2.76072,-0.19419 -1.63052,2.15222 -1.37481,2.68803 0.80815,1.69341 1.07391,-0.48931 1.95257,-1.16395 1.95257,-1.49922 z m 60.79474,-5.03415 c 1.0678,-2.34355 1.19982,-5.82095 0.221,-5.82095 -1.25443,0 -2.17072,1.91958 -2.33007,4.88142 -0.18193,3.38167 0.79756,3.81801 2.10907,0.93953 z m -46.73625,0.42726 c 0,-0.42956 0.27667,-0.78102 0.61482,-0.78102 0.33815,0 0.66777,-0.70293 0.73249,-1.56206 0.0647,-0.85913 -0.29982,-1.56783 -0.81008,-1.5749 -0.51026,-0.007 0.47512,-0.80736 2.18973,-1.77844 3.48915,-1.97609 4.2562,-3.83356 2.36434,-5.72542 -0.70349,-0.70349 -1.16486,-2.18612 -1.03331,-3.3206 0.33303,-2.87214 4.57631,-3.36737 6.41084,-0.7482 1.59541,2.27776 1.5696,2.67118 -0.29777,4.53855 -2.42321,2.42321 -1.15167,4.05208 4.86371,6.23048 2.07178,0.75028 3.05029,3.15956 1.28323,3.15956 -0.47552,0 -0.66228,-0.52719 -0.41502,-1.17154 0.24726,-0.64435 0.10913,-1.17154 -0.30695,-1.17154 -0.41609,0 -0.75652,0.52719 -0.75652,1.17154 0,0.64435 -0.38906,1.17154 -0.86459,1.17154 -0.47552,0 -0.66228,-0.52719 -0.41502,-1.17154 0.3731,-0.9723 -0.47606,-1.17154 -4.99312,-1.17154 -2.99347,0 -5.44267,0.32272 -5.44267,0.71715 0,0.39443 -0.21334,1.27308 -0.47408,1.95257 -0.26074,0.67948 -0.085,1.23541 0.39051,1.23541 0.47553,0 0.86459,-0.66179 0.86459,-1.47066 0,-1.16808 0.52225,-1.44101 2.53834,-1.32657 1.99675,0.11335 2.48406,0.45028 2.28394,1.57913 -0.22895,1.29141 0.16191,1.38787 3.90513,0.96376 2.72556,-0.30881 3.62103,-0.2305 2.59749,0.22715 -2.187,0.97786 -15.23003,1.00115 -15.23003,0.0272 z m 7.33619,-5.92158 c 0.73317,-1.91061 0.57421,-2.16306 -0.69746,-1.10766 -1.29836,1.07754 -1.55442,2.34308 -0.47408,2.34308 0.38361,0 0.9108,-0.55594 1.17154,-1.23542 z m 0.46755,-7.33531 c 0.88062,-0.55675 0.94489,-0.95667 0.26331,-1.63825 -1.06918,-1.06917 -2.59986,-0.31953 -2.59986,1.27326 0,1.2994 0.68846,1.40694 2.33655,0.36499 z"
       id="path12456" />
  </g>
</svg>
