<?xml version="1.0" encoding="UTF-8" standalone="no"?>
<!-- Created with Inkscape (http://www.inkscape.org/) -->

<svg
   xmlns:dc="http://purl.org/dc/elements/1.1/"
   xmlns:cc="http://creativecommons.org/ns#"
   xmlns:rdf="http://www.w3.org/1999/02/22-rdf-syntax-ns#"
   xmlns:svg="http://www.w3.org/2000/svg"
   xmlns="http://www.w3.org/2000/svg"
   xmlns:sodipodi="http://sodipodi.sourceforge.net/DTD/sodipodi-0.dtd"
   xmlns:inkscape="http://www.inkscape.org/namespaces/inkscape"
   width="25.07633mm"
   height="16.592131mm"
   viewBox="0 0 25.07633 16.592131"
   version="1.1"
   id="svg2345"
   inkscape:version="0.92.3 (2405546, 2018-03-11)"
   sodipodi:docname="school_sewing_geometric.svg">
  <defs
     id="defs2339" />
  <sodipodi:namedview
     id="base"
     pagecolor="#ffffff"
     bordercolor="#666666"
     borderopacity="1.0"
     inkscape:pageopacity="0.0"
     inkscape:pageshadow="2"
     inkscape:zoom="3.6717893"
     inkscape:cx="47.388341"
     inkscape:cy="31.355208"
     inkscape:document-units="mm"
     inkscape:current-layer="layer1"
     showgrid="false"
     fit-margin-top="0"
     fit-margin-left="0"
     fit-margin-right="0"
     fit-margin-bottom="0"
     inkscape:window-width="810"
     inkscape:window-height="653"
     inkscape:window-x="172"
     inkscape:window-y="0"
     inkscape:window-maximized="0" />
  <metadata
     id="metadata2342">
    <rdf:RDF>
      <cc:Work
         rdf:about="">
        <dc:format>image/svg+xml</dc:format>
        <dc:type
           rdf:resource="http://purl.org/dc/dcmitype/StillImage" />
        <dc:title></dc:title>
      </cc:Work>
    </rdf:RDF>
  </metadata>
  <g
     inkscape:label="Layer 1"
     inkscape:groupmode="layer"
     id="layer1"
     transform="translate(-39.622549,-153.38846)">
    <path
       style="fill:#000000;stroke-width:0.08466667"
       d="m 51.793977,169.68817 c -1.211087,-1.38171 -2.520029,-2.67374 -3.82854,-3.96252 -2.730619,0.0518 -5.47265,0.0392 -8.193134,0.19657 -0.226017,-0.98005 -0.08362,-2.10111 -0.141412,-3.13453 0.02028,-1.7387 -0.0657,-3.48484 0.07091,-5.21873 0.924737,-0.0782 1.992133,0.0722 2.975543,0.0375 1.726424,0.0156 3.452947,0.0124 5.179421,0.0182 1.434003,-1.38688 2.843564,-2.8123 4.22844,-4.2362 1.447824,1.3569 2.776256,2.84277 4.19536,4.23333 2.7958,7.7e-4 5.5925,-0.006 8.38576,-0.1307 0.0227,2.734 0.0699,5.47098 -0.0215,8.20383 -0.58464,0.47281 -1.96286,-0.0446 -2.86593,0.10046 -1.8386,-0.031 -3.67743,-0.0447 -5.51615,-0.0668 -1.331013,1.39491 -2.765871,2.69807 -4.005904,4.17346 -0.167658,0.23505 -0.350582,-0.12369 -0.462827,-0.2139 z m 3.917118,-4.13726 c 1.29129,-1.25071 2.53462,-2.5596 3.90216,-3.72586 -0.24824,-0.90927 -1.41882,-1.60017 -2.07794,-2.38403 -1.80234,-1.76606 -3.594013,-3.54295 -5.387608,-5.31788 -2.486425,2.51818 -5.057323,4.95873 -7.44167,7.57319 0.629908,0.83687 1.526543,1.46897 2.251834,2.23613 1.763297,1.65792 3.440204,3.40821 5.231686,5.03477 1.207355,-1.10241 2.353162,-2.27265 3.521538,-3.41632 z m -4.698978,0.78485 c -1.564953,-1.57447 -3.188148,-3.08967 -4.76266,-4.65426 1.834322,-1.98746 3.88018,-3.77199 5.73942,-5.73711 0.803099,0.24924 1.532945,1.39411 2.296495,2.02665 1.235263,1.22879 2.489583,2.43814 3.750953,3.64004 -1.98981,1.90209 -3.896457,3.89278 -5.929848,5.74753 -0.396972,-0.30241 -0.736496,-0.6762 -1.09436,-1.02285 z m 1.29773,0.0694 c -0.53145,-0.75951 -0.580081,0.69375 0,0 z m 0.53666,-0.40801 c 0.395251,-0.4938 -2.356852,-0.20072 -1.022558,0.12142 0.341111,0.0179 0.702943,0.0124 1.022558,-0.12142 z m 0.56251,-0.54932 c 0.200943,-0.53955 -1.311667,-0.19036 -1.812696,-0.28468 -0.518639,-0.11869 -1.295056,0.17975 -0.382148,0.37285 0.722542,0.0628 1.493655,0.12895 2.194844,-0.0882 z m 0.59125,-0.59167 c 0.426051,-0.57144 -1.226618,-0.22371 -1.632613,-0.32121 -0.726246,0.0548 -1.679312,-0.0817 -2.275988,0.0897 0.194591,0.48283 0.685311,0.35245 1.097909,0.3633 0.932251,-0.0357 1.909299,0.10505 2.810692,-0.13183 z m 0.62982,-0.59368 c 0.191235,-0.56415 -1.555662,-0.15979 -2.078046,-0.29029 -1.006493,0.01 -2.016289,-0.0215 -3.020264,0.0566 0.845013,0.70101 2.247552,0.14202 3.30562,0.30168 0.597401,-0.0184 1.197209,-0.0141 1.79269,-0.068 z m 0.53215,-0.55998 c 0.440078,-0.39516 -1.095593,-0.14282 -1.475481,-0.22994 -1.581815,0.005 -3.170856,-0.058 -4.747649,0.0719 0.756742,0.46154 1.859519,0.15145 2.756524,0.25385 1.154142,-0.0144 2.319467,0.0289 3.466606,-0.0958 z m 0.602498,-0.58548 c 0.0966,-0.57689 -1.464349,-0.1285 -1.980309,-0.25867 -1.789267,0.0354 -3.582386,-0.0357 -5.369173,0.0539 0.28852,0.54947 1.683302,0.2261 2.410967,0.32986 1.644828,-0.0121 3.30283,0.053 4.938515,-0.12509 z m 0.60387,-0.59876 c 0.38927,-0.40774 -1.122527,-0.12381 -1.498626,-0.22238 -2.381205,-0.007 -4.766131,-0.0586 -7.145112,0.0399 0.705462,0.60636 1.923169,0.16296 2.818489,0.30908 1.940326,-0.0345 3.893564,0.0509 5.825249,-0.12661 z m 0.63286,-0.58848 c -0.0797,-0.34874 -1.607655,-0.0619 -2.203294,-0.16409 -2.544538,0.008 -5.090959,-0.0201 -7.634204,0.0585 0.810336,0.43849 2.027458,0.11738 2.988763,0.23448 2.281192,-0.0194 4.573795,0.0416 6.848735,-0.12894 z m -3.387178,-0.40955 c 1.15834,-0.0414 2.348098,0.0909 3.483848,-0.12271 -0.74091,-0.65781 -1.931155,-0.14933 -2.868409,-0.28841 -2.177192,0.0345 -4.359388,-0.10827 -6.533299,0.0114 -1.160588,0.62711 0.8887,0.41317 1.324482,0.42621 1.530929,-0.0187 3.063035,-0.0248 4.593378,-0.0265 z m 2.775488,-0.69714 c -0.60641,-0.78853 -1.962207,-0.2197 -2.857844,-0.40624 -1.760487,0.029 -3.529309,-0.0716 -5.284066,0.0834 -0.621757,0.63547 1.505894,0.2694 1.946831,0.38852 1.992603,0.002 3.986798,0.0538 5.978399,-0.0211 z m -0.642,-0.64981 c -0.63513,-0.72495 -1.986503,-0.18773 -2.887967,-0.36742 -1.292919,0.0132 -2.589639,-0.0406 -3.879522,0.0599 -0.922047,0.50359 0.922063,0.30998 1.323985,0.36595 1.813206,0.007 3.635314,0.068 5.443504,-0.0584 z m -0.628018,-0.66451 c -0.829321,-0.58027 -2.156,-0.17553 -3.165945,-0.31911 -0.812918,0.11627 -2.288954,-0.30474 -2.660435,0.37664 1.893163,0.0551 3.791906,0.0822 5.683925,-0.008 l 0.142455,-0.0493 z m -0.59265,-0.5715 c -0.73635,-0.56542 -1.970788,-0.17518 -2.896834,-0.29896 -0.369982,0.009 -1.994359,-0.0939 -1.585904,0.31699 1.468652,0.0512 2.943473,0.0646 4.410725,0.0735 l 0.05493,-0.035 0.01708,-0.0564 z m -0.67733,-0.61761 c -0.610259,-0.69805 -1.925356,-0.2448 -2.80876,-0.33892 -1.314803,0.47711 1.142984,0.44317 1.638905,0.44208 0.324391,-0.0969 0.988683,0.22839 1.169855,-0.10316 z m -0.59267,-0.61969 c -0.335346,-0.53597 -2.030851,-0.4839 -2.114481,0.0371 0.696202,0.0333 1.436237,0.11997 2.114481,-0.0371 z m -0.59267,-0.56908 c -0.175675,-0.69606 -1.681515,0.14446 -0.508,0.0677 0.16935,-0.0106 0.349998,0.0114 0.508,-0.0677 z m -0.46928,-0.43441 c -0.06166,-0.57802 -0.253648,0.36087 0,0 z m -4.8713,8.43587 c -0.347188,-0.40354 -0.784581,-0.80761 -1.229994,-1.07572 -1.589013,0 -3.178026,0 -4.767039,0 2.34e-4,-1.64219 4.63e-4,-3.28439 6.91e-4,-4.92658 1.634451,0.0175 3.268902,0.0351 4.903353,0.0526 0.223574,-0.27628 1.37802,-0.95782 0.653751,-1.00727 -2.235704,-0.0595 -4.472393,-0.008 -6.708515,-0.003 -0.006,2.3556 -0.012,4.71121 -0.018,7.06681 2.361373,0.003 4.730501,0.1246 7.085509,-0.0655 l 0.08099,-0.0413 z m 16.873768,-2.89705 c 0.008,-1.38255 0.0171,-2.76511 0.0242,-4.14767 -2.40532,0.043 -4.81714,-0.0274 -7.21712,0.12844 0.26372,0.32447 0.74312,1.03293 1.31247,0.94372 1.52355,-0.0161 3.04884,-0.0949 4.57136,-0.0268 0.1911,1.63289 0.10896,3.29086 0.16056,4.93526 -1.66468,-0.0283 -3.32936,-0.0565 -4.99404,-0.0848 -0.37385,0.3886 -0.82653,0.72071 -1.10913,1.1827 2.40761,0.12084 4.82255,0.055 7.23352,0.0739 0.006,-1.00158 0.0121,-2.00317 0.0182,-3.00475 z m -21.185191,-0.68134 c -0.07594,-0.53409 0.164182,-1.64919 -0.19927,-1.83539 -0.08789,1.23745 -0.09766,2.48703 -0.0276,3.72561 0.394726,0.0693 0.147646,-1.53531 0.22687,-1.89022 z m 18.353111,0.019 c 0.008,-0.64372 0.0152,-1.28744 0.0228,-1.93116 -0.78626,0.31092 -0.22444,1.68185 -0.41642,2.4054 -0.17007,0.53483 0.20993,2.27159 0.36605,0.9136 0.0183,-0.46237 0.0212,-0.9252 0.0276,-1.38784 z m 0.59265,0.006 c 0.008,-0.64168 0.0152,-1.28337 0.0228,-1.92505 -0.52337,-0.16074 -0.44193,0.28333 -0.42652,0.66137 0.0102,1.05986 -0.033,2.12337 0.0594,3.17978 0.64514,0.002 0.18547,-1.43899 0.34432,-1.9161 z m 0.52758,-0.0674 c -0.12124,-0.54607 0.26985,-1.74264 -0.26515,-1.90408 -0.13305,1.20893 -0.0787,2.44504 -0.0283,3.66143 0.43878,0.97808 0.23187,-1.8093 0.29347,-1.75735 z m -20.339551,0.0755 c -0.04253,-0.38151 0.06838,-2.02988 -0.198404,-1.7237 -0.03813,1.17532 -0.08513,2.3636 0.02556,3.53435 0.38553,0.0543 0.08645,-1.48586 0.172848,-1.81065 z m 0.35995,1.81333 c -0.01143,-1.23313 0.04507,-2.47626 -0.02485,-3.70298 -0.285345,0.79187 -0.094,2.1384 -0.129241,3.14029 0.03326,0.0706 -0.04117,0.8204 0.15409,0.56269 z m 1.079383,-1.82033 c -0.125212,-0.52858 0.245465,-1.70249 -0.28805,-1.8454 -0.157955,1.23111 -0.07641,2.48682 -0.118993,3.72923 0.526362,0.16068 0.4433,-0.28074 0.42182,-0.66132 -0.0049,-0.4075 -0.0099,-0.81501 -0.01478,-1.22251 z m 0.61222,1.192 c 0.21428,-0.50732 -0.502393,-1.51071 -0.417729,-0.48358 0.09122,0.33011 -0.17915,1.03912 0.114588,1.17541 0.448235,0.0956 0.255126,-0.44406 0.303141,-0.69183 z m 0.508,0.2431 c 0.100844,-0.58921 -0.476597,-0.8737 -0.33864,-0.1016 -0.144121,0.54975 0.403043,0.8687 0.33864,0.1016 z m 0.508,0.24743 c -0.357395,-1.09077 -0.352889,0.69791 0,0 z m 0.33866,0.11663 c -0.228069,-0.34136 -0.199609,0.32979 0,0 z m 13.661018,-0.10437 c -0.10962,-1.02957 -0.55859,0.71227 0,0 z m 0.56298,-0.31896 c 0.036,-1.36972 -0.79353,0.78165 -0.0282,0.42335 0.0343,-0.13882 0.0253,-0.28213 0.0282,-0.42335 z m 0.508,-0.254 c 0.11858,-0.4843 -0.23812,-1.10123 -0.32337,-0.29223 -0.24225,0.51067 0.28757,1.66792 0.32256,0.52756 l 8.47e-4,-0.23533 z m 0.508,-0.84115 c -0.21148,-0.61308 0.47901,-2.10168 -0.2254,-2.13218 -0.14951,1.19729 -0.0991,2.42082 -0.0754,3.62731 0.52427,0.48381 0.20171,-1.32204 0.30078,-1.49513 z m -16.632328,-0.62897 c 0.136232,-0.39241 -0.03561,-2.20194 -0.343959,-1.15301 0.05439,0.24084 -0.229539,2.0462 0.343959,1.15301 z m 16.124328,-0.77355 c 0.2166,-0.54353 -0.3899,-1.24413 -0.3378,-0.28711 -0.17316,0.72447 0.36624,1.87015 0.3378,0.28711 z M 44.688167,160.2544 c -0.03676,-1.44028 -0.701373,0.70006 -0.10483,0.6657 0.162865,-0.17638 0.09753,-0.44793 0.10483,-0.6657 z m 15.088268,-0.0502 c 0.0949,-0.93981 -0.58478,-0.36102 -0.33018,0.25449 0.14203,0.67073 0.41641,0.0975 0.33018,-0.25449 z m -14.579548,-0.20442 c -0.288564,-1.03978 -0.254252,1.45042 0,0 z m 14.002958,-0.0496 c -0.42104,-0.9752 -0.14184,0.99084 0,4e-5 z m -13.647408,-0.127 c -0.228069,-0.34136 -0.199609,0.32979 0,0 z m 13.207998,-0.0847 c -0.22807,-0.34136 -0.19961,0.32979 0,0 z"
       id="path2311-6"
       inkscape:connector-curvature="0" />
  </g>
</svg>
