<?xml version="1.0" encoding="UTF-8" standalone="no"?>
<!-- Created with Inkscape (http://www.inkscape.org/) -->

<svg
   xmlns:dc="http://purl.org/dc/elements/1.1/"
   xmlns:cc="http://creativecommons.org/ns#"
   xmlns:rdf="http://www.w3.org/1999/02/22-rdf-syntax-ns#"
   xmlns:svg="http://www.w3.org/2000/svg"
   xmlns="http://www.w3.org/2000/svg"
   xmlns:sodipodi="http://sodipodi.sourceforge.net/DTD/sodipodi-0.dtd"
   xmlns:inkscape="http://www.inkscape.org/namespaces/inkscape"
   width="51.688934mm"
   height="24.343655mm"
   viewBox="0 0 51.688934 24.343655"
   version="1.1"
   id="svg4908"
   sodipodi:docname="school_sewing_corner_empty_shield.svg"
   inkscape:version="0.92.3 (2405546, 2018-03-11)">
  <defs
     id="defs4902" />
  <sodipodi:namedview
     id="base"
     pagecolor="#ffffff"
     bordercolor="#666666"
     borderopacity="1.0"
     inkscape:pageopacity="0.0"
     inkscape:pageshadow="2"
     inkscape:zoom="4.187147"
     inkscape:cx="97.679876"
     inkscape:cy="46.003757"
     inkscape:document-units="mm"
     inkscape:current-layer="layer1"
     showgrid="false"
     fit-margin-top="0"
     fit-margin-left="0"
     fit-margin-right="0"
     fit-margin-bottom="0"
     inkscape:window-width="1280"
     inkscape:window-height="982"
     inkscape:window-x="0"
     inkscape:window-y="0"
     inkscape:window-maximized="1" />
  <metadata
     id="metadata4905">
    <rdf:RDF>
      <cc:Work
         rdf:about="">
        <dc:format>image/svg+xml</dc:format>
        <dc:type
           rdf:resource="http://purl.org/dc/dcmitype/StillImage" />
        <dc:title></dc:title>
      </cc:Work>
    </rdf:RDF>
  </metadata>
  <g
     inkscape:label="Layer 1"
     inkscape:groupmode="layer"
     id="layer1"
     transform="translate(-70.161426,-154.80437)">
    <path
       style="fill:#000000;stroke-width:0.04233333"
       d="m 95.829647,179.0823 c -0.423171,-1.00421 -1.606712,-1.20269 -1.13947,-2.25166 -1.606763,-0.86867 -2.618084,-2.39736 -3.553799,-3.92896 -0.496138,-1.46113 -1.136523,-1.02907 -1.392429,0.0473 -1.283644,-0.33187 -2.437426,-1.27162 -2.241908,-2.54221 -0.97185,-0.78591 -2.012405,-1.86809 -2.266102,-2.98725 1.139981,-1.05824 0.277428,-1.39328 -0.831311,-1.17543 -1.979165,-0.15268 -4.166643,-0.87684 -5.240344,-2.6344 -0.0825,-0.99534 1.355897,1.46153 2.234001,1.467 -0.384999,-0.64084 -1.375137,-1.36157 -1.611128,-2.27488 -0.661044,-1.49106 -0.53587,-3.24346 0.0252,-4.73775 -0.686257,0.11951 -1.933037,1.80887 -0.889029,0.2911 0.616286,-0.54022 2.806637,-2.89524 1.567162,-0.80522 -0.480124,0.88703 1.875869,3.01485 0.08385,1.45996 -0.718641,-2.04332 -0.914667,1.30829 -0.972754,2.10754 0.274766,2.09478 1.766685,4.19464 3.906484,4.64164 -1.06189,-0.3566 0.180483,-1.51418 -1.263139,-1.39375 -1.253472,-0.1483 -0.641362,-0.94506 0.31931,-0.6078 0.35035,-1.08681 -2.869602,-0.57515 -2.148672,-1.56958 1.09306,1.01011 2.227004,0.0184 0.923101,-0.86556 0.799852,-0.52837 -1.75467,-1.29719 0.162078,-1.10753 1.870772,0.36109 0.004,-1.55385 -0.290379,-2.22407 -0.155277,-1.33022 1.144975,-1.52739 0.660178,-0.10984 0.209737,1.60376 0.601073,-1.05013 1.059869,0.49608 1.083501,0.20576 0.259519,-1.09634 1.150632,-1.15997 0.08173,-1.04009 0.734351,-1.39255 0.532083,-0.149 0.488702,0.484 2.617415,-1.4561 2.526258,-0.20232 -0.02502,0.52179 1.796714,1.03944 2.243095,1.87554 0.374318,-0.55327 1.515564,-3.4358 0.823707,-1.37098 -0.37658,1.04984 0.619756,1.67768 -0.741886,2.36484 -0.06375,0.9972 -0.471854,2.42217 0.40162,0.73787 1.006716,-1.22634 0.17536,2.34452 1.050628,0.19433 1.034457,0.37875 -0.684146,2.37571 -0.182307,3.36892 0.855757,0.98358 0.295359,2.8262 -0.599459,1.32819 -0.633848,-1.39422 -1.537675,-0.38814 -1.191593,0.73364 -0.777049,-0.82164 -1.970827,-0.23361 -1.387054,0.90754 1.148827,1.02803 0.870386,-1.57544 1.898233,-0.12503 0.756502,0.7565 0.233152,1.17175 -0.161329,1.30121 1.204138,1.33349 -0.295151,2.27097 -1.399326,1.15128 1.506936,-0.23528 0.597996,-1.05276 0.46287,-1.42593 1.137744,-0.62885 -2.069007,-0.22413 -1.178243,-1.70187 1.084278,-1.33847 0.05446,-1.13991 -0.35859,-0.0663 -0.470021,1.46625 0.06004,3.42029 1.695104,3.86817 0.797011,-0.37029 2.543618,0.51423 2.769869,0.0448 -0.769202,-0.97542 1.767826,-0.25579 0.9962,0.48417 0.36985,1.04541 1.115566,1.085 0.310877,0.0898 0.67775,-0.3071 2.424974,-0.1992 1.60445,0.42442 2.043044,-0.41528 -1.202106,-0.88542 -0.117632,-1.30274 2.083018,-0.0497 -0.481363,-0.44055 -0.984698,-0.95426 0.09644,-0.87048 2.900884,1.41737 1.072886,-0.2 -1.408705,-1.30407 -2.823666,-3.12024 -2.280435,-5.18234 0.570333,-1.38169 0.557865,-2.988 -0.213763,-4.0346 -0.24357,-1.65599 -0.690078,1.73055 -0.985699,0.76196 0.395329,-1.34217 -1.304979,0.45308 -0.312344,-0.84399 0.631741,-0.98115 2.156295,-0.73135 1.397002,-1.63635 0.417117,-0.77805 2.750994,-1.23915 1.17176,0.0695 0.452325,0.50687 2.055119,-0.61892 1.797892,0.16631 -0.905044,0.67302 1.388913,-0.13277 0.22649,0.46664 0.166114,0.83106 -2.101189,-0.98666 -2.493914,0.18978 -0.922255,1.23758 1.042308,2.7056 -0.07605,4.24835 -0.598026,1.59409 -0.161655,3.51648 1.158412,4.60621 0.847887,0.77369 2.189481,1.99414 3.316634,1.457 1.182967,-0.56939 2.337428,-1.50794 2.83763,-2.77024 0.991774,-1.62158 -0.18705,-3.30617 -0.226751,-4.94955 0.129272,-1.03541 0.865875,-2.61455 -0.638729,-2.95711 -0.773908,0.16589 -3.078497,1.08412 -3.044747,0.0681 -1.234006,-0.41441 1.255697,-0.63212 0.248367,-0.0599 0.08847,0.80251 1.398824,-0.68497 2.128327,-0.13757 0.527617,-1.29425 2.548137,0.66376 2.994197,1.58756 0.24897,0.76198 -1.402235,-0.76136 -1.16589,0.69842 -0.490437,1.80689 1.15776,3.58165 0.2968,5.38238 -0.17335,1.03112 -2.467401,3.20256 -0.393695,2.01779 1.767235,-0.84683 -0.754109,2.65775 -0.291953,0.485 -0.927706,-0.0187 -0.273673,1.36111 -1.089382,1.54994 1.73348,-0.55651 -0.324016,1.22365 1.24533,0.90222 0.66839,0.18759 0.84357,-1.38882 1.95312,-0.95277 -0.45391,-0.79218 1.42203,-1.53066 1.69639,-0.32943 1.64626,0.86486 3.63244,-1.28261 2.83812,-2.84053 -0.25135,-1.21575 -0.53618,2.71114 -1.34355,0.99085 -0.4086,-0.35069 -1.59616,0.89779 -0.93136,1.35334 -1.00079,0.73856 -0.62475,-1.26298 -1.53589,-0.57313 0.58639,-0.87527 2.1382,-1.86964 2.78733,-1.05794 0.53434,0.40452 -0.24302,-2.86939 -1.47478,-1.61793 0.28917,-1.19603 -1.11731,-1.69712 -0.91795,-0.60641 0.83677,-1.04565 0.87235,2.5119 0.11289,0.55495 -0.86239,0.79284 -0.0188,-1.41209 -0.76148,0.22448 -0.24157,0.53638 -0.41233,-0.5739 -0.90821,0.15576 0.18042,-0.98853 0.63028,-2.71378 0.66645,-3.13228 -0.70323,-0.78698 -1.54138,-3.14337 -0.48804,-2.48819 0.66136,0.26242 1.31612,1.4335 1.54051,0.34527 1.26173,1.1923 0.1008,-1.40142 0.61379,-1.57929 -0.73091,-1.19217 -0.78696,-0.5126 -0.48928,0.41691 -0.88822,-0.76571 -1.74552,-2.57692 -0.98501,-3.56411 -0.61206,1.60544 1.19724,2.66434 2.46867,1.96638 -0.32193,0.51983 -1.21571,2.57178 -0.0359,2.34195 0.53163,-0.79798 0.7191,2.56507 1.4818,1.69325 -1.30651,-1.57697 -1.18541,-3.98276 0.21188,-5.46106 0.60153,-0.4613 1.58521,-1.33507 0.12701,-0.91948 -1.4525,-0.32969 -0.0957,1.40731 -1.58381,1.1098 -1.49763,0.57917 0.96765,1.13775 -0.72691,0.82113 -0.11544,-0.92129 -0.4146,-0.89931 -1.13369,-0.66236 0.48603,-0.54227 0.57795,-1.98335 0.93082,-0.58213 1.39299,0.92581 0.94006,-1.57487 2.47094,-0.96253 1.83959,-0.11821 3.75892,-0.86456 5.52179,0.0262 1.2283,0.23694 2.62315,0.99565 3.2838,-0.37491 1.40051,-0.18511 2.87751,-0.0597 4.37972,0.0606 1.55543,-0.42907 3.21391,0.3903 1.70021,1.93662 -1.1222,0.99144 -1.88686,2.83494 -3.75105,2.66586 -1.03078,-0.14351 -1.73036,-0.67847 -1.62451,0.81907 -0.40566,1.41916 -1.55763,2.46464 -2.48286,3.45623 -1.30522,0.51627 -2.17908,1.479 -3.55558,1.77212 -1.28259,0.60661 -3.98121,-0.41985 -2.94486,1.84502 0.19574,2.02037 -1.91141,3.56362 -3.80856,3.20361 -0.58175,0.59268 0.005,2.59328 -1.15191,3.18317 -0.64293,1.12332 -1.55332,2.30245 -2.86698,2.75816 -0.679336,1.14648 -1.472274,1.90025 -2.796877,2.43146 -0.151493,0.10609 -0.285583,0.0105 -0.428858,-0.0241 z m 0.53036,-0.47625 c 0.842252,-0.44851 0.950564,-1.4058 1.644316,-1.11647 0.986763,-2.2346 -3.14887,1.88583 -1.189609,-0.41818 1.468444,-0.5211 -1.178114,-2.1016 -0.0052,-2.73359 -0.281515,1.58208 1.507618,2.36731 2.754189,1.67043 1.911707,-0.95365 2.435207,-3.51433 1.948317,-5.42268 -1.698062,-0.085 0.19608,2.08438 -0.41197,2.85071 -0.1579,1.46543 -2.01013,3.13729 -3.232429,1.59928 0.36141,-1.29038 -0.785459,-3.06018 -1.502911,-1.10771 -1.300739,-0.0563 -0.445498,1.92964 -0.09076,2.2712 -1.429936,-0.18124 -3.327237,-1.75595 -2.872323,-3.25514 -0.157592,-0.60673 1.266659,-1.80867 -0.23489,-1.0702 -0.56875,1.62093 -0.603516,-1.53707 -1.319069,-0.26375 -0.255685,-1.04747 -2.66816,-1.77008 -1.028329,-0.31746 0.653121,1.51593 1.447554,3.08959 2.86416,4.03934 0.213273,1.53967 2.940606,0.88573 3.189537,1.43928 -0.723735,0.13787 -2.870065,0.60604 -0.897239,0.79247 -0.251726,0.31864 -0.206869,1.40519 0.384171,1.04247 z m 3.50405,-3.63773 c 1.180533,-0.9764 -1.215466,-0.60927 -0.72653,-1.81164 -1.137444,-0.30276 -0.826942,1.33083 -0.486376,1.84789 0.386034,0.11685 0.829919,0.0757 1.212906,-0.0362 z m -5.21389,-0.14052 c -0.21121,-0.15357 -0.112249,0.16317 0,0 z m 0.67199,-0.75142 c 1.11211,-1.20781 -0.540925,-3.1907 -1.41284,-1.40747 -0.06246,0.6055 -0.552911,1.904 0.705545,1.14672 0.164378,0.23858 0.418192,0.49458 0.707295,0.26075 z m 5.106513,-0.39158 c -0.0335,-0.73303 0.98774,-1.16944 -0.39322,-1.41811 -2.031809,-0.007 -0.130209,1.50449 0.39322,1.41811 z m -4.183753,-0.32406 c 0.994428,-0.17639 1.160365,-2.1917 0.644357,-1.87727 0.265474,0.99966 -1.661698,0.20242 -0.912302,1.40013 -0.07515,0.0148 0.0049,0.78545 0.267945,0.47714 z m 5.851313,-0.2092 c 0.5922,-0.59922 0.43591,-3.46276 -0.23472,-2.75104 0.45877,0.80964 -0.095,2.24044 0.23472,2.75104 z m -3.868894,-0.0667 c 0.46739,-0.7085 -1.287117,-0.12929 0,0 z m -8.642998,-0.67578 c -0.497508,-0.52662 0.411383,-1.40607 -0.409993,-1.99449 -1.412342,-0.40561 -1.451778,1.25304 -0.493165,1.53445 0.09561,0.21576 0.797473,0.80633 0.903158,0.46004 z m 8.807551,0.0239 c 1.041232,0.13232 2.769201,-1.98519 0.920537,-0.68805 -0.342792,-0.0562 -2.614062,0.46888 -0.920537,0.68805 z m -8.028585,-0.94526 c -0.734613,-1.33618 -0.600744,0.44265 0,0 z m 5.387533,-0.0657 c 1.844344,-0.86126 -0.833031,-1.43268 -0.92362,-0.12262 0.275534,0.2231 0.591072,0.26049 0.92362,0.12262 z m 3.02683,-0.12907 c -0.705312,-0.76375 -1.599843,-1.71439 -2.621611,-1.79914 -0.841116,-0.53495 -1.557867,-0.62222 -0.39731,0.16935 0.898112,0.64295 1.746785,2.00256 3.018921,1.62979 z m 5.778503,-0.91018 c 1.07831,0.006 2.41674,-2.46231 0.97476,-0.94922 -0.67474,1.2898 -4.16097,-0.98624 -2.47432,0.75686 0.47492,0.27801 0.96932,0.30521 1.49956,0.19236 z m -16.658166,-0.23282 c -0.868553,-0.75473 -1.728982,-1.98979 -1.450635,-3.32056 0.393189,-1.73616 -1.278834,1.00975 -0.43321,1.32479 0.435357,0.54354 0.896687,1.96055 1.883827,1.9956 z m 10.135472,-0.43391 c 1.013559,-1.25541 -0.199967,-1.28054 -0.94926,-0.33484 0.135402,0.25539 0.708089,0.6501 0.94926,0.33484 z m -8.907805,-0.21944 c 0.927645,-0.78583 -1.147564,0.0361 0,0 z m 18.635139,-3.85515 c 1.17905,-0.0211 3.10622,-0.1402 3.00783,-1.70798 -0.86952,-0.82799 -1.98119,1.36256 -3.02374,0.93884 1.25449,-0.472 1.56691,-1.72687 0.22855,-1.78665 -0.79716,0.17845 -0.95685,2.15574 -2.4744,1.4951 -1.6037,0.0183 1.17048,1.52189 1.92837,1.10646 l 0.33389,-0.046 z m -22.381639,-0.0847 c 1.683085,-0.32446 1.060002,-2.43655 -0.488649,-1.46612 -1.011566,0.0643 -2.328019,-0.5787 -1.302054,0.58534 -0.704669,0.95104 1.318517,0.97235 1.790703,0.88078 z m 5.482167,-0.4445 c -9.62e-4,-0.63991 -1.861489,-2.53965 -1.100658,-2.20267 1.084905,0.005 1.460159,-2.19887 0.08525,-0.68766 -0.794046,1.2575 -1.316704,-2.367 -1.267481,-0.0553 0.187616,1.1692 1.255558,2.77953 2.282889,2.94565 z m 11.348672,-0.14817 c 0.94376,-0.70109 2.50273,-2.6863 1.7342,-3.55814 -0.33381,1.44162 -1.90704,2.45081 -2.04273,3.79585 l 0.30832,-0.23775 z m -13.616633,0.0529 c 0.904022,-0.88074 -0.266028,-2.06736 -0.229743,-0.46008 0.04783,0.16422 -0.150576,0.91972 0.229743,0.46008 z m -1.488006,-7.4e-4 c 0.949845,-0.4602 0.561966,-2.28634 1.236611,-1.95716 -0.666209,-0.91792 0.316043,-2.57701 -1.502379,-1.8161 -0.504244,0.44301 -1.133459,1.71003 -0.658613,0.30812 0.426034,-1.2148 3.130282,-0.15854 1.296233,-1.61453 -1.242421,-0.90879 -3.527546,-0.75458 -4.293036,0.61684 1.106629,-0.58963 1.702495,0.14475 0.553578,0.79338 0.407631,1.82954 2.17947,-2.39118 2.597007,-0.50727 -0.499244,0.56484 -1.479043,0.64102 -0.55353,1.28839 -1.090838,1.2643 1.935017,0.001 1.542434,1.65029 0.378482,0.24292 -1.109144,1.58457 -0.218305,1.23804 z m 17.488949,-0.33794 c 0.18558,-1.04616 -1.32719,-1.63268 -0.65202,-0.41204 -0.008,0.0645 0.71871,0.93282 0.65202,0.41204 z m 6.6223,-0.1407 c 1.65014,-0.34744 2.1381,-1.64467 3.39379,-2.53834 0.89047,-0.64029 1.52689,-3.6205 -0.10646,-2.19989 -1.30555,1.52842 0.45863,-1.48067 0.10124,-2.17585 -0.10027,-1.979 -2.0544,-1.8872 -3.47443,-1.95424 -1.37838,0.58855 1.5816,0.81581 1.64045,1.82506 1.5297,2.19422 0.66935,5.50999 -1.61074,6.83487 -0.1555,0.13043 -0.44254,0.43338 0.0562,0.20839 z m -4.95308,-0.39944 c 1.10519,-1.29921 -1.55219,-1.88569 -1.61496,-3.26882 -0.39282,0.27183 -0.011,1.57669 -0.38261,2.21917 0.73931,-1.49965 0.27575,2.33721 1.99757,1.04965 z m 5.11116,-0.14778 c 1.3844,-1.09945 2.08344,-2.85709 1.84345,-4.61567 -0.18258,-1.63923 -1.59548,-3.28945 -3.35788,-3.02551 -1.83231,0.68321 2.05544,1.05713 0.61613,1.6426 -1.67723,0.31711 1.00662,0.91512 1.38416,1.46624 -1.0496,0.71812 0.51768,1.62034 0.0877,2.2012 -1.51948,-1.72291 0.48803,1.26792 -0.58061,1.93383 0.007,0.15227 -0.76318,1.04212 0.007,0.39731 z m -25.951741,-0.27339 c -0.115753,-0.39633 -0.463952,-2.68311 -0.953933,-0.99658 -1.031767,1.21622 -0.16043,1.2881 0.953933,0.99658 z m 25.044991,-0.43568 c 1.36326,-0.34271 0.0666,-1.9631 -0.76836,-0.64557 -1.22942,0.38473 0.22309,0.97492 0.76836,0.64557 z m -26.906588,-0.14338 c 0.990932,-1.48766 -2.061898,-0.876 -0.234824,0.0857 l 0.234824,-0.0858 z m 19.326388,-0.14688 c 1.05353,-0.97607 -2.51714,-2.37772 -0.89454,-0.6457 0.18746,0.19733 0.52975,0.86148 0.89454,0.6457 z m 4.35659,-0.60596 c -0.50809,-0.64638 -1.3267,-1.62614 -0.3892,-1.8468 -1.79505,-1.8967 2.23249,0.81638 1.03923,-1.46624 0.83108,-0.19049 -1.18442,-2.11414 0.0637,-1.84765 0.0966,1.13227 1.70347,1.17882 0.96344,-0.0521 -0.0745,-1.18724 3.19369,-2.08065 0.54884,-2.03555 -1.26111,-0.33667 -1.43844,3.21552 -1.31368,0.7496 -0.004,-1.16671 -3.00998,1.35977 -1.82135,2.5732 0.87993,1.61842 -0.51012,0.13366 -0.47397,-0.73451 -0.98637,1.50093 -0.39469,4.05444 1.3294,4.8219 l 0.0529,-0.16177 z m 1.24587,0.12844 c 1.79575,-0.27413 0.13707,-3.46431 -0.30316,-1.88158 1.50542,0.18505 -0.7568,0.53523 -0.078,1.57137 -0.29721,0.34991 0.13563,0.40893 0.38117,0.31021 z m 1.07607,-0.24131 c 1.43724,-0.0463 1.70611,-2.99341 0.65052,-1.95716 0.47026,-1.02497 -0.83042,-1.99708 -0.77827,-0.47283 -1.51087,-0.95718 -0.70638,0.20904 0.039,0.858 0.54133,0.32462 -0.59066,1.82618 0.0888,1.57199 z m -27.266348,-0.66308 c 0.463464,-1.43461 1.753828,-2.67601 3.361083,-2.46884 0.92249,-2e-5 1.963124,0.62253 1.308792,-0.67614 0.505782,0.77317 1.848051,3.18498 1.769837,0.768 -1.162812,0.0455 -0.950695,-2.08235 -2.390605,-1.9236 0.455397,0.66944 0.487874,1.49954 -0.556561,0.63904 -1.130252,-0.21466 -2.33767,-0.25957 -1.310204,0.94603 -1.079958,-0.13998 -2.05424,-0.16584 -1.414254,0.72532 -0.07511,0.64407 -1.887849,1.57839 -0.768088,1.99019 z m 35.559158,-2.39968 c 2.15485,-0.25781 -1.93175,-0.78823 0.30732,-0.70163 1.67375,-0.21788 0.0392,-2.05658 -0.74863,-0.70672 0.14634,-1.504 -1.05909,-0.65853 -1.36811,-0.0429 -1.27135,0.52591 1.16681,1.93603 1.80942,1.45122 z m -8.66742,-0.33622 c -0.59267,-1.13322 -0.41371,0.92111 0,0 z m 6.05367,0.0795 c 0.48089,-1.49601 -1.08975,-0.32638 0,0 z m -23.340771,-0.10638 c -0.129977,-0.54397 -0.350781,0.27038 0,0 z m 27.701931,-0.44881 c 0.25766,-1.39384 1.66488,-1.34853 1.80839,-2.72183 -1.41051,-0.13451 -2.58547,-0.21287 -3.84907,-0.42169 -0.90864,-0.031 -1.38284,0.36155 -2.2322,-0.01 -0.93516,0.32178 -0.59087,1.97086 0.46204,0.7453 1.19378,-0.34263 2.92647,-0.31871 3.41557,1.11884 0.36598,0.29311 -0.51215,2.17347 0.39527,1.28894 z m -27.036438,-0.63949 c -0.195335,0.0212 0.04731,0.40329 0,0 z m 22.548278,-0.58332 c 0.9294,-0.96328 2.36822,-0.83241 3.52264,-0.47959 -0.7797,-1.10892 -3.39087,-0.96255 -3.63611,0.47409 l 0.0499,0.0479 0.0635,-0.0423 z m -15.621004,13.10551 c 0.746154,-0.80291 -0.733636,-0.98675 0.832014,-1.27631 0.27598,-0.87326 2.24799,-2.12061 1.70076,-0.32474 -0.88655,1.03621 -0.52618,-0.98707 -1.26091,0.0455 0.35754,0.31517 -0.940871,1.99284 -1.271864,1.55556 z m -6.434669,-0.10582 c -1.296815,-0.51827 -0.961934,-1.63903 0.409911,-0.79827 -0.289562,-0.025 0.467912,1.11837 -0.409911,0.79827 z m -2.593717,-0.38454 c -0.982341,-0.60798 -1.051661,-2.18573 0.275968,-0.97813 -0.04928,0.17034 0.194381,1.33021 -0.275968,0.97813 z m 0.843449,-0.5429 c -0.949345,-0.96845 0.04658,-1.63312 0.704971,-0.55909 -0.699107,-0.0801 -0.04613,0.88617 -0.704971,0.55909 z m 1.027427,-0.82363 c -1.870872,-1.24437 1.040557,-1.04962 0,0 z m -1.97754,-0.12978 c -0.546544,-0.86216 -0.479531,-2.34879 0.576987,-0.94344 1.012917,0.92978 -0.966743,-0.16527 -0.340955,0.92382 l -0.08282,0.10046 -0.153194,-0.0808 z m 10.475244,-0.43709 c -0.0931,-0.76608 -0.26597,-1.29658 0.73105,-1.55652 0.0615,0.6306 -0.0999,1.30718 -0.73105,1.55652 z m 1.63058,-0.15295 c -0.43549,-0.64571 -0.73651,-1.21255 0.3813,-1.41652 0.16337,0.36559 0.22047,1.473 -0.3813,1.41652 z m -11.155711,-0.36154 c -0.737488,-1.42164 0.147287,-1.14538 0.86127,-0.12253 -0.503621,-0.21456 -0.535303,0.0662 -0.86127,0.12253 z m 12.037271,-0.43059 c 0.37058,-1.0606 1.68563,-1.53989 0.86751,-0.0877 -0.2104,-0.60095 -0.67309,0.47436 -0.86751,0.0877 z m -13.966989,-0.40976 c -0.504136,-0.85495 0.112009,-2.16708 0.758952,-0.62094 0.757352,1.14165 -0.676396,-0.37662 -0.560096,0.76967 l -0.198882,-0.14875 z m -10.649843,-3.05207 c -1.235623,-0.42126 -0.42572,-0.79951 0.02454,-1.6609 0.886177,-1.45951 0.04833,1.84766 -0.02454,1.6609 z m -1.350904,-1.4102 c -0.0439,-1.32466 -0.958624,-2.15277 -1.867657,-2.88636 -0.209238,-0.98257 -0.542383,-1.00138 -0.954201,-1.17432 0.569362,-0.58212 1.976888,-1.60017 0.468625,-1.82094 1.890374,-0.98863 -1.153841,-0.85629 -0.836083,0.0319 -1.335599,0.5251 -0.105897,2.75758 -0.411769,2.83577 -0.990495,-0.91402 -0.170052,-2.55836 0.122452,-3.16344 -1.058366,-1.39619 -1.156152,1.54093 -1.960749,-0.33101 -1.03981,-0.0128 -1.863769,0.74901 -0.464847,1.08925 0.723167,1.08001 1.372828,2.34203 2.64184,2.88221 0.838184,-0.68788 1.639704,0.85821 0.101848,0.27143 -1.485839,-0.33283 -2.245862,-1.74093 -3.026194,-2.8985 -2.271043,-0.11271 -0.07362,-2.51249 1.276628,-1.6085 1.591141,-0.20416 3.197889,-0.17964 4.877546,-0.10543 1.431492,-0.47179 1.738553,1.71789 3.165465,0.31929 1.217497,-0.42578 2.672099,-0.37753 3.827305,-0.42379 1.233192,0.16513 1.175293,0.78807 -0.06701,0.42312 -1.503847,-0.56728 -1.924973,3.69077 -1.776236,1.11176 1.451353,-1.55788 -1.253299,-1.05265 -2.17853,-0.69045 -1.490489,0.55854 -2.302082,2.10122 -3.74644,2.6979 -2.078496,0.019 0.790912,1.42631 1.206439,-0.066 0.290525,-0.84588 2.874249,-2.70763 1.273328,-1.03174 -0.433075,0.72177 -2.972268,3.03681 -1.209816,2.59281 1.444084,-1.1586 0.498622,0.43417 -0.21823,0.84659 0.373448,0.0534 -0.02356,1.44068 -0.243709,1.09853 z m -0.363596,-4.20788 c 0.855671,-0.72569 0.4424,-1.57664 1.396999,-1.9586 -0.864967,-1.30018 -1.432229,1.02299 -2.285416,0.55011 0.568177,0.47111 -0.405151,1.73256 0.888417,1.40849 z m -0.257028,-1.73306 c -0.140528,-1.04163 -1.434305,-0.0133 2e-6,-5.1e-4 z m 25.5352,4.44078 c -1.09731,-1.62859 0.90013,-1.16577 0.96876,-0.0419 -0.79042,-0.79807 -0.55681,0.24751 -0.96876,0.0419 z m -0.90415,-1.04908 c -1.712347,-1.47201 1.08146,-0.97221 0.52634,-0.4756 -0.55875,-0.24217 0.0634,1.0978 -0.52634,0.4756 z m -6.128353,-1.00351 c 0.162733,-0.15166 0.108427,0.15669 0,0 z m -4.529669,-0.16683 c -1.120804,-0.69959 2.02351,-1.83348 0.529174,-0.317 -0.07937,0.32835 -0.405344,0.38129 -0.529174,0.317 z m 10.964332,4.5e-4 c -1.03533,-0.85768 -0.35648,-1.74389 0.11378,-0.3946 0.0744,0.10848 0.18397,0.54373 -0.11378,0.3946 z m -1.397,-0.11011 c -1.366964,-1.62083 2.22117,0.0126 0.0463,0.0497 z m -2.854532,-0.39604 c -1.418187,-1.15512 1.299841,-0.142 0,0 z m -2.246631,-0.42348 c -0.401772,-0.7537 3.221404,-0.40831 0.745327,0.0776 -0.271359,-0.10429 -0.461433,0.0374 -0.745327,-0.0776 z m 3.500489,-0.21669 c -0.504942,-0.87316 1.919814,-0.41978 0.711671,0.17124 -0.180283,0.0525 -0.581468,0.0709 -0.711671,-0.17124 z m -9.273557,0.11275 c -0.0672,-0.87722 -0.949491,-2.2441 -1.041914,-0.54445 -0.717559,-0.65993 -3.908591,-1.44138 -1.382656,-1.07344 1.090247,0.72065 1.494053,-0.43688 2.461925,0.22296 0.303769,-0.5172 1.892369,-0.98682 2.081733,-0.0671 1.193336,-0.50539 0.49694,-0.006 0.754157,0.54527 1.029134,-0.5166 2.45134,-0.0161 1.473083,-1.10058 0.665481,0.38596 2.102543,0.54188 1.0086,0.67692 -0.85644,0.2664 -2.141729,1.01546 -3.158991,0.97361 -0.212129,-0.49388 -0.542144,-2.26542 -1.43933,-0.84688 -0.507013,0.14637 -0.252686,1.43118 -0.756607,1.21366 z m 4.397228,0.009 c 0.420856,-1.21992 2.235117,-0.86397 0.55294,-0.0795 -0.177544,0.0284 -0.376049,0.20729 -0.55294,0.0795 z m 6.631733,-0.28361 c -1.147864,-0.70349 0.47142,-2.06893 1.45371,-1.87118 1.91054,-0.56441 0.21562,0.50675 -0.62881,0.24363 -0.98971,0.14256 -0.0686,1.67213 -0.8249,1.62755 z m -2.916983,-0.16343 c -1.387544,-0.88871 1.463627,-0.33452 0,0 z m -1.5745,-0.22215 c -0.01698,-0.5383 1.120912,0.29977 0,0 z m -14.627931,-0.37308 c 0.663026,-0.95234 0.857089,0.0943 0,1e-5 z m 15.239351,-0.47625 c -0.719674,-0.3495 0.814067,-0.10862 0,0 z"
       id="path4891"
       inkscape:connector-curvature="0"
       sodipodi:nodetypes="cccccccccccccccccccccccccccccccccccccccccccccccccccccccccccccccccccccccccccccccccccccccccccccccccccccccccccccccccccccccccccccccccccccccccccccccccccccccccccccccccccccccccccccccccccccccccccccccccccccccccccccccccccccccccccccccccccccccccccccccccccccccccccccccccccccccccccccccccccccccccccccccccccccccccccccccccccccccccccccccccccccccccccccccccccccccccccccccccccccccccccccccccccccccccccccccccccccccccccccccccccccccccccccccccccccccccccccccccccccccccccccccccccccc" />
  </g>
</svg>
