<?xml version="1.0" encoding="UTF-8" standalone="no"?>
<!-- Created with Inkscape (http://www.inkscape.org/) -->

<svg
   xmlns:dc="http://purl.org/dc/elements/1.1/"
   xmlns:cc="http://creativecommons.org/ns#"
   xmlns:rdf="http://www.w3.org/1999/02/22-rdf-syntax-ns#"
   xmlns:svg="http://www.w3.org/2000/svg"
   xmlns="http://www.w3.org/2000/svg"
   xmlns:sodipodi="http://sodipodi.sourceforge.net/DTD/sodipodi-0.dtd"
   xmlns:inkscape="http://www.inkscape.org/namespaces/inkscape"
   width="34.594994mm"
   height="20.818092mm"
   viewBox="0 0 34.594993 20.818093"
   version="1.1"
   id="svg2345"
   inkscape:version="0.92.3 (2405546, 2018-03-11)"
   sodipodi:docname="school_sewing_garland.svg">
  <defs
     id="defs2339" />
  <sodipodi:namedview
     id="base"
     pagecolor="#ffffff"
     bordercolor="#666666"
     borderopacity="1.0"
     inkscape:pageopacity="0.0"
     inkscape:pageshadow="2"
     inkscape:zoom="2.6615123"
     inkscape:cx="65.376366"
     inkscape:cy="39.341277"
     inkscape:document-units="mm"
     inkscape:current-layer="layer1"
     showgrid="false"
     fit-margin-top="0"
     fit-margin-left="0"
     fit-margin-right="0"
     fit-margin-bottom="0"
     inkscape:window-width="810"
     inkscape:window-height="653"
     inkscape:window-x="172"
     inkscape:window-y="0"
     inkscape:window-maximized="0" />
  <metadata
     id="metadata2342">
    <rdf:RDF>
      <cc:Work
         rdf:about="">
        <dc:format>image/svg+xml</dc:format>
        <dc:type
           rdf:resource="http://purl.org/dc/dcmitype/StillImage" />
        <dc:title></dc:title>
      </cc:Work>
    </rdf:RDF>
  </metadata>
  <g
     inkscape:label="Layer 1"
     inkscape:groupmode="layer"
     id="layer1"
     transform="translate(-37.02497,-153.15834)">
    <path
       style="fill:#000000;stroke-width:0.08466667"
       d="m 59.659113,173.77154 c -0.28693,-0.14338 -0.59784,-0.35749 -0.6909,-0.4758 -0.15252,-0.1939 -0.15685,-0.23274 -0.0439,-0.39401 0.17255,-0.24635 0.15937,-0.47989 -0.0271,-0.47989 -0.0838,0 -0.1886,-0.0304 -0.23284,-0.0676 -0.15948,-0.134 -0.93247,-0.3537 -1.17437,-0.33378 -0.20729,0.0171 -0.30002,-0.0481 -0.57341,-0.40297 -0.27177,-0.35275 -0.3223,-0.47979 -0.30306,-0.762 0.0182,-0.26654 0.0597,-0.34391 0.19512,-0.3633 0.15828,-0.0227 0.47825,-0.45114 0.78841,-1.05576 0.1988,-0.38754 0.66235,-0.74029 0.96866,-0.73712 l 0.27222,0.003 -0.18653,0.14535 c -0.10259,0.0799 -0.28668,0.21615 -0.40908,0.30269 -0.25299,0.17885 -0.80139,0.99541 -0.80139,1.19326 0,0.0827 0.0767,0.13106 0.20771,0.13106 0.16375,0 0.24224,-0.0781 0.37091,-0.36897 0.0898,-0.20293 0.35344,-0.57902 0.58594,-0.83575 0.2325,-0.25673 0.43706,-0.50775 0.45458,-0.55783 0.0432,-0.12343 1.31936,-0.27478 1.54578,-0.18332 0.1448,0.0585 0.15083,0.0735 0.0312,0.0778 -0.23006,0.008 -0.17339,0.2826 0.0973,0.47103 0.13381,0.0931 0.44763,0.32525 0.69739,0.5158 0.75377,0.57509 1.69811,1.10575 2.162429,1.21517 0.61318,0.1445 2.421141,-0.0184 2.926529,-0.26363 0.359112,-0.17427 0.304271,-0.34702 -0.084,-0.26467 -0.439629,0.0932 -2.218558,0.0599 -2.4765,-0.0464 -0.156898,-0.0647 0.186642,-0.0886 1.327991,-0.0926 0.846809,-0.003 1.631561,-0.0403 1.74389,-0.083 0.242109,-0.0921 0.59809,-0.94667 0.554209,-1.33053 l -0.0277,-0.24282 h -1.778 -1.778 l -0.493551,-0.24593 c -0.653869,-0.32581 -1.117259,-0.78512 -1.371049,-1.35898 -0.14438,-0.32648 -0.25549,-0.46943 -0.36488,-0.46943 -0.37953,0 -0.62353,-0.66406 -0.44394,-1.20821 0.0778,-0.23589 0.17184,-0.32362 0.46779,-0.43665 0.2037,-0.0778 0.39095,-0.19509 0.41612,-0.26067 0.0627,-0.16343 1.464049,-1.01186 1.831841,-1.10908 0.0699,-0.0185 0.52705,-0.16742 1.016,-0.33101 0.48895,-0.16359 1.09855,-0.36357 1.354669,-0.4444 0.409869,-0.12937 0.488249,-0.19176 0.654209,-0.52078 0.191701,-0.38007 0.46595,-0.77439 0.70681,-1.01627 0.0733,-0.0737 0.21499,-0.26978 0.31477,-0.43583 0.0998,-0.16605 0.25781,-0.37104 0.351181,-0.45555 0.216911,-0.1963 0.710931,-1.5092 0.877819,-2.33288 0.0708,-0.34925 0.17004,-0.83793 0.220602,-1.08596 0.113109,-0.55482 0.115199,-0.69204 0.0105,-0.69204 -0.0448,0 -0.124749,0.16099 -0.177739,0.35775 -0.053,0.19676 -0.168752,0.40847 -0.25726,0.47046 -0.0885,0.062 -0.16093,0.15925 -0.16093,0.21611 0,0.0569 -0.072,0.165 -0.15993,0.24031 -0.24447,0.20933 -0.537901,1.05887 -0.433271,1.25439 0.174061,0.32522 0.108849,0.43257 -0.24991,0.4114 -0.206319,-0.0122 -0.393419,0.0308 -0.486831,0.11177 -0.0834,0.0724 -0.24343,0.20353 -0.355499,0.29151 -0.11208,0.088 -0.34068,0.27615 -0.508,0.41816 -0.672359,0.57061 -1.001879,0.7864 -1.432211,0.93786 -0.428199,0.15071 -0.683268,0.32145 -0.8358,0.55948 -0.0378,0.0589 -0.180488,0.20238 -0.317169,0.3188 l -0.248521,0.21167 0.18524,-0.24425 c 0.20646,-0.27225 0.239922,-0.47387 0.0794,-0.47842 -0.169961,-0.005 0.300259,-0.24466 0.486828,-0.24832 0.232751,-0.005 0.739851,-0.32486 0.676531,-0.42732 -0.0616,-0.0997 -0.955709,-0.10388 -1.457409,-0.007 -0.19857,0.0384 -0.337521,0.0368 -0.312502,-0.004 0.02479,-0.0401 -0.01209,-0.0729 -0.082,-0.0729 -0.0699,0 -0.150549,0.0381 -0.179329,0.0847 -0.0288,0.0466 -0.0132,0.0847 0.0347,0.0847 0.0479,0 0.0651,0.0572 0.0383,0.127 -0.0347,0.0904 0.009,0.12775 0.150819,0.12958 0.177022,0.002 0.182732,0.0124 0.0506,0.0893 -0.0819,0.0477 -0.21002,0.22753 -0.28462,0.39959 -0.0808,0.18638 -0.15291,0.26668 -0.17836,0.19865 -0.0235,-0.0628 0.008,-0.20815 0.069,-0.323 0.0724,-0.13534 0.0819,-0.22923 0.0269,-0.26682 -0.0467,-0.0319 -0.16803,-0.17719 -0.2697,-0.32288 -0.22853,-0.32744 -0.49985,-0.4186 -0.57174,-0.19208 -0.0606,0.19089 -0.20891,0.21477 -0.20891,0.0336 0,-0.15915 -0.11813,-0.1637 -0.24613,-0.009 -0.0737,0.0888 -0.0729,0.17169 0.004,0.33939 0.0802,0.17601 0.0776,0.26582 -0.0127,0.43452 -0.1483,0.2771 -0.0503,0.37554 0.53046,0.53272 0.535581,0.14497 0.744981,0.14453 0.83777,-0.002 0.044,-0.0694 0.0703,-0.0746 0.0711,-0.0141 6.61e-4,0.0528 0.0816,0.11697 0.179849,0.14265 0.16715,0.0437 0.159681,0.0633 -0.117009,0.30621 -0.19013,0.16693 -0.38671,0.25951 -0.551051,0.25951 -0.14966,0 -0.430689,0.1179 -0.678479,0.28465 -0.53381,0.35923 -1.83351,1.07002 -1.95655,1.07002 -0.0511,0 -0.0928,-0.0537 -0.0928,-0.11936 0,-0.0914 -0.0991,-0.0716 -0.42291,0.0847 -0.458501,0.22118 -0.638691,0.25105 -0.72009,0.11935 -0.11337,-0.18344 -0.21166,-0.0683 -0.21166,0.24791 v 0.33258 l -0.4445,0.0552 c -0.24448,0.0304 -0.53975,0.0439 -0.656171,0.03 -0.357389,-0.0427 -0.91314,0.18164 -0.96535,0.38965 -0.0597,0.23804 -0.428449,0.41432 -0.635179,0.30368 -0.0898,-0.048 -0.182701,-0.05 -0.228,-0.005 -0.0939,0.0935 -0.704061,0.12769 -0.888401,0.0498 -0.0779,-0.0329 -0.179769,-0.002 -0.24173,0.0722 -0.0822,0.0991 -0.146219,0.10814 -0.27545,0.039 -0.0926,-0.0496 -0.25468,-0.0684 -0.36023,-0.0419 -0.12887,0.0324 -0.24181,-0.007 -0.3439,-0.1198 -0.180889,-0.19988 -0.34318,-0.21608 -0.41038,-0.041 -0.0268,0.0699 -0.1444,0.127 -0.26133,0.127 -0.1628,0 -0.25308,-0.0793 -0.385379,-0.33867 -0.191521,-0.37541 -0.232841,-0.39423 -0.470651,-0.21436 -0.0904,0.0684 -0.23222,0.12552 -0.31518,0.127 -0.1363,0.002 -0.17485,-0.0529 -0.27757,-0.39842 -0.0223,-0.075 -0.1172,-0.054 -0.33415,0.074 -0.22325,0.13172 -0.38371,0.16568 -0.609589,0.12902 -0.404591,-0.0657 -0.46165,-0.13709 -0.368621,-0.46148 0.0746,-0.25999 0.0676,-0.27175 -0.16042,-0.27175 -0.16081,0 -0.28346,0.0689 -0.37704,0.21167 -0.0867,0.13231 -0.21801,0.21166 -0.35026,0.21166 -0.28444,0 -1.15952,-0.42549 -1.73186,-0.84209 -0.33545,-0.24417 -0.55094,-0.33955 -0.77064,-0.3411 -0.18733,-0.001 -0.41596,-0.0827 -0.59267,-0.211 -0.15823,-0.11488 -0.42554,-0.2694 -0.59403,-0.3434 -0.16849,-0.074 -0.38731,-0.22765 -0.48627,-0.34147 -0.099,-0.11381 -0.26072,-0.20694 -0.35947,-0.20694 -0.27498,0 -0.84732,-0.35265 -0.81806,-0.50405 0.0348,-0.17979 -0.71654,-0.72944 -1.28952,-0.94341 -0.72825,-0.27195 -1.2952,-0.63039 -1.72664,-1.09164 -0.21825,-0.23333 -0.47149,-0.42423 -0.56276,-0.42423 -0.12458,0 -0.16593,-0.058 -0.16592,-0.23283 3e-5,-0.34105 -0.3571,-1.31565 -0.52918,-1.44414 -0.0815,-0.0608 -0.14817,-0.14657 -0.14817,-0.1905 0,-0.0439 -0.0762,-0.15606 -0.16933,-0.2492 -0.0931,-0.0931 -0.16934,-0.23791 -0.16934,-0.32173 0,-0.15704 -0.15128,-0.3556 -0.27093,-0.3556 -0.15039,0 -0.0327,0.73144 0.33382,2.07433 0.18419,0.67489 1.43199,3.03895 1.72052,3.25967 0.0304,0.0233 0.14653,0.21378 0.25797,0.42333 0.41599,0.78218 0.28033,0.71483 2.36129,1.17226 1.14095,0.25079 1.58211,0.45793 2.26423,1.06315 0.22153,0.19655 0.5311,0.40913 0.68795,0.4724 0.50266,0.20276 0.7031,0.75396 0.5509,1.51494 -0.0367,0.18345 -0.1016,0.26459 -0.21166,0.26459 -0.18938,0 -0.1873,0.0184 -0.0442,-0.39152 0.0875,-0.25052 0.0925,-0.38824 0.0212,-0.58215 -0.17287,-0.47007 -0.266619,-0.57395 -0.462009,-0.51194 -0.20974,0.0666 -0.2307,0.27075 -0.052,0.50696 0.0684,0.0904 0.12431,0.28279 0.12431,0.42756 0,0.14477 0.0354,0.29942 0.0787,0.34365 0.12511,0.12789 -0.124189,0.92957 -0.41499,1.33449 -0.261599,0.36428 -0.73073,0.7128 -0.828219,0.61531 -0.0287,-0.0287 0.0884,-0.19607 0.260189,-0.37199 0.395331,-0.40486 0.65034,-0.90172 0.65034,-1.26716 0,-0.24643 -0.0254,-0.28072 -0.1905,-0.25727 -0.14361,0.0204 -0.210949,0.11042 -0.27357,0.36572 -0.12917,0.52662 -0.66084,0.98897 -1.408629,1.22498 -0.485361,0.15317 -0.849501,0.1991 -1.720961,0.21705 -1.65275,0.034 -1.65568,0.0342 -1.65568,0.1101 0,0.13328 0.63646,0.27649 1.45066,0.3264 0.73015,0.0448 1.925201,-0.0832 2.63451,-0.28206 0.0815,-0.0228 0.14817,-0.004 0.14817,0.0418 0,0.32422 -2.51576,0.57296 -3.87203,0.38282 -0.33097,-0.0464 -0.36494,-0.0329 -0.4445,0.17634 -0.15174,0.39911 -0.10445,0.7615 0.12787,0.97975 0.27217,0.25569 0.87878,0.35726 2.15666,0.36112 0.78943,0.002 1.06865,-0.0315 1.47568,-0.17912 0.5571,-0.20204 0.67489,-0.18048 0.41793,0.0765 -0.26428,0.26428 -1.40855,0.43899 -2.42278,0.36993 -0.85064,-0.0579 -1.02703,0.007 -0.592669,0.21693 0.144199,0.0698 0.673039,0.12691 1.389209,0.14998 0.9273,0.0299 1.24596,0.009 1.60866,-0.10562 0.58711,-0.18547 1.256631,-0.49089 1.256631,-0.57323 0,-0.0356 0.0476,-0.0654 0.105839,-0.0664 0.0916,-0.001 0.46587,-0.2659 1.43933,-1.0169 0.30706,-0.2369 0.293851,-0.30403 -0.0716,-0.36332 -0.31824,-0.0516 -0.486139,0.0315 -1.253369,0.62049 -0.328431,0.25214 -0.558911,0.32438 -0.558911,0.17519 0,-0.16189 0.97016,-0.81424 1.479861,-0.99508 0.27149,-0.0963 0.446779,-0.10242 0.865189,-0.0301 1.63196,0.28227 2.74739,0.87 3.05099,1.60758 0.0679,0.16506 0.20143,0.38447 0.296661,0.48759 0.14107,0.15275 0.16364,0.25679 0.12186,0.56162 -0.0577,0.42076 -0.356411,0.98656 -0.52089,0.98656 -0.0596,0 -0.155701,-0.0571 -0.213671,-0.127 -0.135229,-0.16294 -0.37303,-0.16263 -0.50854,6.8e-4 -0.0583,0.0702 -0.290069,0.22787 -0.5151,0.35034 -0.34363,0.18703 -0.39612,0.24705 -0.32776,0.37479 0.11397,0.21294 0.101391,0.54928 -0.0244,0.65335 -0.140469,0.11619 -1.00176,0.44111 -1.16943,0.44116 -0.14765,5e-5 -0.841399,-0.31814 -0.841399,-0.38591 0,-0.0238 0.0613,-0.13693 0.13627,-0.25131 0.103889,-0.15855 0.184369,-0.1959 0.338669,-0.15718 0.148191,0.0372 0.20239,0.0157 0.20239,-0.0804 0,-0.0721 -0.0381,-0.15473 -0.0847,-0.18351 -0.17887,-0.11055 -0.0747,-0.44097 0.23283,-0.73841 0.380751,-0.36828 1.36354,-0.87116 1.86267,-0.95308 0.27728,-0.0455 0.35983,-0.0962 0.35983,-0.22095 0,-0.089 -0.056,-0.1619 -0.1244,-0.1619 -0.0684,0 -0.252609,-0.20002 -0.40932,-0.4445 -0.355389,-0.55444 -0.385729,-0.57805 -1.155349,-0.89894 -0.61667,-0.25712 -0.6346,-0.25949 -0.804331,-0.10623 -0.216009,0.19505 -1.314469,0.92947 -1.8246,1.21992 -0.20955,0.11931 -0.696219,0.31821 -1.08148,0.442 -0.596889,0.19178 -0.84733,0.22479 -1.693339,0.22317 -0.704961,-0.001 -1.084121,-0.0402 -1.307631,-0.13399 -0.17313,-0.0726 -0.38268,-0.13233 -0.46566,-0.13261 -0.083,-2.6e-4 -0.24868,-0.0516 -0.3682,-0.11393 -0.11952,-0.0624 -0.32907,-0.14124 -0.46567,-0.17527 -0.39341,-0.098 -1.10459,-0.61212 -1.21481,-0.87822 -0.0848,-0.20477 -0.0723,-0.31498 0.0794,-0.70166 0.3601,-0.91742 0.69414,-1.05344 2.77255,-1.12901 0.75764,-0.0275 1.44344,-0.0867 1.524,-0.13143 0.0806,-0.0448 0.32707,-0.15967 0.5478,-0.25539 0.30063,-0.13037 0.44403,-0.25774 0.5715,-0.5076 0.0936,-0.18346 0.17017,-0.38709 0.17017,-0.45251 0,-0.0654 0.0812,-0.22222 0.180491,-0.34842 0.137079,-0.17426 0.228729,-0.21736 0.381,-0.17914 0.156119,0.0392 0.200509,0.0161 0.200509,-0.10444 0,-0.0851 -0.0496,-0.22264 -0.110289,-0.30559 -0.10028,-0.13714 -0.120431,-0.13861 -0.222031,-0.0162 -0.16685,0.20103 -0.24007,0.16766 -0.424249,-0.19338 -0.23857,-0.46764 -0.889341,-0.97832 -1.362921,-1.06952 -0.14597,-0.0281 -0.37575,-0.086 -1.65373,-0.41685 -0.28246,-0.0731 -0.55173,-0.13297 -0.59838,-0.13297 -0.0466,0 -0.14868,0.2026 -0.22673,0.45022 -0.11175,0.35451 -0.28154,0.59456 -0.79863,1.12913 -0.36119,0.37341 -0.82816,0.76597 -1.03771,0.87236 -1.1131,0.56516 -1.524,0.82789 -1.524,0.97444 0,0.0973 0.0948,0.12985 0.37802,0.12985 0.29997,0 0.39811,0.0375 0.47528,0.18174 0.13248,0.24753 0.0487,0.88619 -0.14479,1.10339 -0.19166,0.21517 -0.62551,0.40821 -0.91746,0.40821 -0.17774,0 -0.21416,-0.0398 -0.21309,-0.23284 7.09e-4,-0.12805 0.0365,-0.28853 0.0796,-0.35661 0.0593,-0.0938 0.004,-0.16559 -0.22755,-0.29633 -0.89498,-0.50495 -0.39864,-1.4682 1.37433,-2.66716 0.46567,-0.3149 1.00359,-0.72527 1.19539,-0.91192 0.30125,-0.29319 0.35694,-0.40521 0.40915,-0.82306 0.0332,-0.26602 0.0478,-0.48999 0.0323,-0.49771 -1.364197,-0.68033 -1.578907,-0.83999 -2.226207,-1.65548 -0.5814,-0.73246 -0.98639,-1.48158 -1.26392,-2.33788 -0.15945,-0.49198 -0.18138,-1.68886 -0.045,-2.45534 0.0497,-0.2794 0.12348,-0.79375 0.16392,-1.143 0.0717,-0.61919 0.0673,-0.64402 -0.17556,-0.99731 -0.50585,-0.73581 -0.24613,-1.45802 0.52434,-1.45802 0.41062,0 0.63037,0.2072 0.75821,0.71488 0.0791,0.31412 0.17781,0.44171 0.57313,0.74084 0.26267,0.19874 0.60982,0.48591 0.77144,0.63815 0.16163,0.15224 0.333641,0.2768 0.38226,0.2768 0.136571,0 0.74979,0.3459 0.84637,0.47742 0.0577,0.0786 0.35701,0.13508 0.9056,0.171 0.764611,0.0501 0.822711,0.0667 0.868521,0.24924 0.0364,0.14509 0.130879,0.21057 0.3659,0.25361 0.17425,0.0319 0.621459,0.20503 0.99379,0.38471 0.37234,0.17968 0.75334,0.32969 0.846669,0.33337 0.0933,0.004 0.12207,0.0259 0.0639,0.0494 -0.175371,0.0708 -0.11987,0.25374 0.127,0.41868 0.128059,0.0856 0.26027,0.14747 0.29381,0.13758 0.0884,-0.0261 0.25186,0.30847 0.19535,0.3999 -0.0263,0.0426 -0.145061,-0.0127 -0.263891,-0.12283 -0.301349,-0.27928 -0.95823,-0.50045 -1.018659,-0.34297 -0.06,0.15624 0.18501,0.6132 0.386529,0.72105 0.240201,0.12856 0.267721,0.1103 0.20579,-0.13647 l -0.0561,-0.22365 0.278839,0.16015 c 0.153361,0.0881 0.35311,0.28398 0.443881,0.43532 0.0908,0.15134 0.214809,0.27516 0.275629,0.27516 0.0791,0 0.0983,0.0913 0.0675,0.32102 -0.0494,0.36845 0.0545,0.49581 0.440171,0.53933 0.188049,0.0212 0.26103,0.0781 0.28106,0.21915 0.0149,0.10478 0.0666,0.1905 0.11489,0.1905 0.0483,0 0.0676,-0.0527 0.0429,-0.11706 -0.0291,-0.0758 0.0721,-0.16984 0.28727,-0.26685 0.2742,-0.12365 0.3322,-0.19211 0.3322,-0.39209 0,-0.13326 -0.044,-0.3275 -0.0978,-0.43165 -0.0538,-0.10414 -0.12339,-0.24453 -0.15464,-0.31199 -0.0808,-0.17441 -0.51053,-0.27172 -0.784701,-0.17769 -0.201649,0.0692 -0.232829,0.0578 -0.232829,-0.0851 0,-0.0907 0.0571,-0.16493 0.127,-0.16493 0.351189,0 -0.14267,-0.51982 -0.633601,-0.66691 -0.17599,-0.0527 -0.372129,-0.15998 -0.43586,-0.23833 -0.103069,-0.12672 -0.0972,-0.13471 0.0535,-0.0723 0.0931,0.0386 0.283631,0.0882 0.423331,0.11019 0.1397,0.022 0.37375,0.15351 0.52011,0.29219 0.222959,0.21127 0.294129,0.23715 0.43893,0.15965 0.216019,-0.1156 0.43796,-0.11957 0.43796,-0.008 0,0.0466 -0.0525,0.0847 -0.116631,0.0847 -0.0641,0 -0.15987,0.0521 -0.212709,0.11577 -0.0733,0.0883 -0.0642,0.14225 0.0384,0.22739 0.111929,0.0929 0.14739,0.0912 0.21141,-0.01 0.0423,-0.0669 0.0775,-0.15213 0.0782,-0.18948 6.87e-4,-0.0374 0.19833,-0.0564 0.439149,-0.0423 0.446841,0.0261 0.6393,0.17938 0.327611,0.26089 -0.113461,0.0297 -0.17279,0.004 -0.17279,-0.0739 0,-0.13418 -0.384191,-0.16625 -0.463041,-0.0386 -0.0273,0.0442 0.0251,0.12048 0.116641,0.16944 0.10129,0.0542 0.176729,0.19661 0.19287,0.36408 0.0252,0.26143 0.0425,0.27411 0.348749,0.25588 0.334441,-0.0199 1.033381,-0.375 0.933921,-0.47446 -0.0312,-0.0312 0.10205,-0.0567 0.29608,-0.0567 0.416649,0 0.44914,0.0599 0.0988,0.18202 -0.313191,0.10918 -0.3307,0.24132 -0.032,0.24132 0.19254,0 0.207319,0.0177 0.11128,0.13345 -0.0918,0.1106 -0.0899,0.14662 0.0108,0.21037 0.18367,0.11623 0.48197,0.0954 0.98145,-0.0687 0.4836,-0.1588 0.56392,-0.28421 0.26689,-0.41675 -0.33702,-0.15038 0.67751,-0.11746 1.05679,0.0343 0.33431,0.13376 0.34716,0.13247 0.46626,-0.0469 0.14259,-0.21474 0.48634,-0.24047 0.73185,-0.0548 0.20906,0.15813 0.43905,0.15944 0.49914,0.003 0.0256,-0.0668 0.13156,-0.16693 0.23538,-0.22249 l 0.18878,-0.10103 -0.18399,0.23391 c -0.22732,0.28899 -0.22959,0.3842 -0.0147,0.6149 0.0931,0.1 0.16933,0.23825 0.16933,0.3073 0,0.19778 0.17244,0.25338 0.322,0.10383 0.15379,-0.1538 0.0646,-0.30247 -0.2051,-0.34207 -0.22692,-0.0333 -0.11395,-0.18159 0.11593,-0.15219 0.2302,0.0294 0.25148,-0.14893 0.0538,-0.45068 -0.12694,-0.19373 -0.12637,-0.20869 0.008,-0.20869 0.0796,0 0.16459,0.0762 0.18895,0.16934 0.0468,0.17888 0.23251,0.22762 0.32112,0.0843 0.0289,-0.0468 0.26929,-0.085 0.53416,-0.0848 0.26487,1.4e-4 0.63398,-0.009 0.82025,-0.0208 0.24435,-0.0152 0.33218,0.0102 0.31538,0.0912 -0.0183,0.0881 0.0817,0.0997 0.46567,0.0538 0.26892,-0.0321 0.52515,-0.0921 0.56938,-0.13335 0.0442,-0.0413 0.17273,-0.075 0.28554,-0.075 0.17416,0 0.18894,0.0195 0.098,0.12905 -0.0589,0.071 -0.0922,0.13894 -0.0739,0.15103 0.12234,0.0809 0.69845,0.22919 1.08359,0.27887 0.38603,0.0498 0.43574,0.0751 0.3175,0.16154 -0.0771,0.0564 -0.14019,0.13664 -0.14019,0.17834 0,0.11068 0.40539,0.2623 0.87452,0.32709 0.34057,0.047 0.39852,0.0802 0.34703,0.19844 -0.0693,0.15919 -0.10832,0.76813 -0.0586,0.91453 0.0178,0.0524 0.1825,0.16294 0.36603,0.24569 0.18352,0.0828 0.33368,0.17871 0.33368,0.21322 0,0.10209 -0.24422,0.1652 -0.29862,0.0772 -0.0899,-0.14549 -0.32252,-0.0854 -0.5637,0.14569 -0.25671,0.24595 -0.4226,0.20624 -0.25559,-0.0612 0.0914,-0.14632 0.0806,-0.16548 -0.0929,-0.16548 -0.10791,0 -0.27016,0.0559 -0.36055,0.12431 -0.24097,0.18226 -0.36674,0.15163 -0.14318,-0.0349 0.10477,-0.0874 0.1905,-0.19258 0.1905,-0.23372 0,-0.11021 -0.92393,-0.29594 -1.31411,-0.26416 -0.2713,0.0221 -0.33689,0.0604 -0.33689,0.19676 0,0.12006 0.0471,0.16118 0.16185,0.14132 0.089,-0.0154 0.29184,-0.004 0.45072,0.0262 0.2395,0.0449 0.27156,0.075 0.18761,0.17619 -0.0596,0.0718 -0.25183,0.122 -0.46689,0.122 -0.43387,0 -0.535,0.10741 -0.27354,0.29054 0.27557,0.19301 0.73787,0.16861 0.97196,-0.0513 0.10777,-0.10125 0.19595,-0.1416 0.19595,-0.0897 0,0.0519 -0.0381,0.11797 -0.0847,0.14675 -0.14014,0.0866 -0.0961,0.18895 0.10393,0.24124 0.10428,0.0273 0.27329,-0.006 0.37802,-0.0748 0.30529,-0.20003 0.39003,-0.14347 0.19513,0.13024 -0.15677,0.22017 -0.16338,0.26115 -0.0491,0.30499 0.26627,0.10217 2.00328,-1.09465 1.83416,-1.26377 -0.13567,-0.13567 -0.11381,-0.18953 0.12023,-0.29617 0.16745,-0.0763 0.21167,-0.15872 0.21167,-0.39459 0,-0.16398 -0.0374,-0.29815 -0.0831,-0.29815 -0.0457,0 -0.10743,-0.0971 -0.13722,-0.21582 -0.0378,-0.15064 -0.1278,-0.23056 -0.29794,-0.26459 -0.13408,-0.0268 -0.24378,-0.10114 -0.24378,-0.16517 0,-0.0766 -0.10864,-0.1193 -0.3175,-0.12486 -0.17463,-0.005 -0.41275,-0.0389 -0.52917,-0.0762 -0.16209,-0.0519 -0.0988,-0.0698 0.27017,-0.0762 0.26501,-0.005 0.50558,-0.0469 0.53461,-0.0938 0.0793,-0.12838 -0.26543,-0.22452 -0.73026,-0.20363 -0.30694,0.0138 -0.41319,-0.012 -0.41319,-0.10021 0,-0.0653 -0.0369,-0.11878 -0.082,-0.11878 -0.0451,0 -0.0612,-0.0542 -0.0358,-0.12051 0.0792,-0.20642 -0.27027,-0.31942 -0.78789,-0.25474 -0.29614,0.037 -0.4541,0.0287 -0.4226,-0.0223 0.0277,-0.0448 0.23434,-0.0856 0.45929,-0.0907 0.22494,-0.005 0.5921,-0.0715 0.81589,-0.14746 0.2238,-0.076 0.57028,-0.1281 0.76997,-0.11582 0.25895,0.0159 0.40682,-0.0214 0.51559,-0.13019 0.11094,-0.11093 0.23642,-0.14125 0.46032,-0.11122 0.25491,0.0342 0.32141,0.0103 0.387,-0.13906 0.0798,-0.18168 0.55275,-0.28648 1.51854,-0.33648 0.252231,-0.0131 0.463239,-0.11165 0.826742,-0.3863 0.26843,-0.20282 0.72563,-0.45455 1.016,-0.55941 0.383849,-0.13861 0.535009,-0.23725 0.553871,-0.36143 0.02349,-0.15488 0.07189,-0.16662 0.519139,-0.12607 0.610769,0.0554 1.333568,-0.10491 1.61391,-0.35793 0.261747,-0.23622 0.536739,-0.38105 0.723519,-0.38105 0.0781,0 0.31872,-0.14592 0.534729,-0.32428 0.614288,-0.50719 0.695142,-0.50596 0.159922,0.002 -0.501201,0.47609 -0.584671,0.6084 -0.353841,0.56088 0.140182,-0.0289 1.290429,-1.00237 1.30048,-1.10066 0.003,-0.0315 -0.0465,-0.0696 -0.110609,-0.0847 -0.0986,-0.0232 -0.0982,-0.0982 0.003,-0.48942 0.17385,-0.67372 0.497358,-0.96762 0.966417,-0.87795 0.588521,0.11251 0.80486,0.65388 0.462748,1.15801 -0.257958,0.38012 -0.26965,0.67884 -0.0791,2.02058 0.154141,1.08532 0.116504,2.36381 -0.0917,3.11441 -0.237066,0.85473 -0.751118,1.69176 -0.929447,1.51343 -0.0258,-0.0258 0.0398,-0.21496 0.145701,-0.42034 0.22343,-0.43317 0.421746,-1.04629 0.625795,-1.93472 0.136994,-0.59642 0.136684,-0.70683 -0.006,-2.07433 -0.172302,-1.65479 -0.189341,-1.74071 -0.345151,-1.74071 -0.312971,0 -0.424008,1.50491 -0.227539,3.08377 0.073,0.58637 0.0495,0.81102 -0.208122,1.99099 -0.190367,0.87202 -0.334848,1.19057 -0.539998,1.19057 -0.0925,0 -0.168201,-0.0405 -0.168201,-0.0899 0,-0.0809 0.32876,-0.85463 0.502869,-1.18349 0.038,-0.0717 0.0925,-0.37652 0.121222,-0.67734 l 0.0522,-0.54692 -0.16251,0.33866 c -0.0894,0.18627 -0.165341,0.38764 -0.168791,0.44748 -0.01601,0.2771 -1.027211,1.71152 -1.206561,1.71152 -0.189328,0 -0.198898,-0.11165 -0.02209,-0.25835 0.136988,-0.1137 0.58814,-0.77971 0.828649,-1.22331 0.47308,-0.87257 0.815501,-2.72714 0.656561,-3.556 -0.063,-0.32864 -0.0675,-0.3324 -0.152863,-0.127 -0.126299,0.30406 -0.365477,1.35939 -0.364638,1.60893 0.0011,0.34888 -0.317622,1.35566 -0.636559,2.01032 -0.352472,0.72351 -0.945782,1.54541 -1.115581,1.54541 -0.0659,0 -0.098,0.0354 -0.0712,0.0786 0.0267,0.0432 -0.0663,0.24877 -0.206672,0.45678 -0.14038,0.208 -0.255238,0.42286 -0.255238,0.47745 0,0.11959 0.352531,0.0277 0.43774,-0.11406 0.24176,-0.4023 0.55223,-0.72942 0.69229,-0.72942 0.155657,0 0.157316,0.01 0.02609,0.15483 -0.318069,0.35146 -0.12786,0.35331 0.399672,0.004 0.327318,-0.21681 0.45856,-0.2567 0.72636,-0.22078 0.179769,0.0241 0.36516,0.006 0.411978,-0.0413 0.0856,-0.0856 0.2692,-0.0243 0.2692,0.0898 0,0.26591 -1.910649,1.7474 -2.561169,1.98588 -0.17617,0.0646 -0.1851,0.24259 -0.0339,0.67669 0.160361,0.46049 0.639561,0.9166 1.738212,1.65445 0.965409,0.64837 1.87289,1.51887 1.87289,1.79659 0,0.31584 -0.253625,0.75791 -0.43483,0.75791 -0.147971,0 -0.160771,0.0214 -0.07471,0.12518 0.0835,0.10059 0.0722,0.17958 -0.0575,0.40216 -0.15385,0.26404 -0.1879,0.27816 -0.72852,0.30203 -0.600231,0.0265 -0.633143,8.5e-4 -0.466839,-0.36418 0.0824,-0.1809 0.0749,-0.26312 -0.0423,-0.46155 -0.0784,-0.13279 -0.142616,-0.34033 -0.142616,-0.46121 0,-0.27877 0.300099,-0.58827 0.515739,-0.53188 0.0888,0.0232 0.17984,0.0124 0.202359,-0.024 0.0385,-0.0623 -0.206928,-0.24507 -0.950939,-0.70817 -0.865759,-0.53888 -1.332129,-0.88468 -1.51415,-1.1227 -0.226991,-0.29684 -0.2643,-0.44682 -0.0713,-0.28664 0.071,0.0589 0.14374,0.0921 0.16171,0.0739 0.01799,-0.0183 -0.0592,-0.31445 -0.171381,-0.65815 -0.11222,-0.34371 -0.204039,-0.71518 -0.204039,-0.8255 0,-0.21391 -0.0565,-0.24262 -0.244001,-0.12389 -0.135599,0.0859 -0.072,0.57381 0.124259,0.95334 0.0659,0.12736 0.11853,0.28107 0.117062,0.34159 -0.004,0.17753 -0.414801,-0.34187 -0.468241,-0.59248 -0.0268,-0.12585 -0.0838,-0.31537 -0.12664,-0.42117 -0.0871,-0.21534 -0.178189,-0.20847 -1.008171,0.0761 -0.254508,0.0873 -0.524158,0.15863 -0.599239,0.15863 -0.511964,0 -2.122651,0.98482 -2.245921,1.37322 -0.0441,0.13906 -0.10142,0.15744 -0.34709,0.11135 -0.28326,-0.0531 -0.29321,-0.0463 -0.26696,0.18262 0.0197,0.17171 0.0802,0.24533 0.217769,0.26487 0.147471,0.0209 0.1905,0.0824 0.1905,0.27222 0,0.32659 0.4125,0.78684 0.94486,1.05423 0.72698,0.36514 1.30401,0.46682 2.64917,0.46682 1.49452,0 1.901259,0.12584 2.12739,0.65815 0.25898,0.60964 -0.0011,1.4696 -0.56882,1.88086 -0.76436,0.55371 -2.962661,1.00614 -4.136601,0.85137 -1.094088,-0.14425 -2.159798,-0.71858 -3.190149,-1.7192 -0.42887,-0.4165 -0.447109,-0.42466 -0.832149,-0.37188 -0.63698,0.0873 -1.20169,0.60589 -1.647531,1.51298 -0.14444,0.29387 -0.0441,0.4252 0.43454,0.56859 0.40391,0.12102 0.596521,0.2336 1.267571,0.74087 l 0.477269,0.36079 -0.0444,0.55274 c -0.0464,0.57782 -0.008,0.63555 0.28702,0.42907 0.160001,-0.11207 0.193461,-0.10565 0.35706,0.0685 l 0.180511,0.19215 -0.27472,0.26084 c -0.40802,0.3874 -0.555201,0.4009 -1.14691,0.10522 z m -10.64073,-0.13908 c 0.0941,-0.0207 0.26555,-0.10898 0.381,-0.19621 0.16373,-0.12371 0.18749,-0.1811 0.108009,-0.26084 -0.0796,-0.0799 -0.18152,-0.0726 -0.465669,0.0332 -0.20007,0.0745 -0.464071,0.11487 -0.586671,0.0897 -0.122599,-0.0252 -0.246789,-0.007 -0.275969,0.0401 -0.0778,0.12595 0.37679,0.45538 0.53546,0.38801 0.073,-0.031 0.20974,-0.0733 0.30384,-0.094 z m 11.45174,0.0122 c 0.26993,-0.18906 0.23806,-0.32267 -0.0626,-0.26254 -0.19191,0.0384 -0.31061,-1.7e-4 -0.50564,-0.16429 -0.18039,-0.15179 -0.33279,-0.20664 -0.5216,-0.18774 l -0.26674,0.0267 0.16499,0.20271 c 0.0907,0.1115 0.33354,0.26947 0.53955,0.35106 0.47881,0.18962 0.43339,0.18725 0.65205,0.0341 z m -11.138141,-0.74274 c 0.0347,-0.0545 0.0636,-0.14298 0.0644,-0.19659 0.002,-0.11697 0.40989,-0.36348 0.93263,-0.56304 0.533959,-0.20384 0.60692,-0.26216 0.54142,-0.43285 -0.11973,-0.31202 -0.38367,-0.30025 -1.045981,0.0467 -0.94449,0.49473 -1.276629,0.85132 -1.100129,1.18112 0.0741,0.13841 0.143429,0.16451 0.31963,0.12029 0.12377,-0.0311 0.253399,-0.10109 0.288079,-0.1556 z m 10.547941,-0.45195 c 0.0236,-0.24222 -0.0248,-0.30302 -0.5256,-0.66036 -0.30336,-0.21647 -0.65794,-0.42552 -0.78796,-0.46455 -0.13002,-0.039 -0.30307,-0.0981 -0.38457,-0.13117 -0.12643,-0.0514 -0.14816,-0.0106 -0.14816,0.27799 0,0.33631 0.003,0.33952 0.55837,0.57551 0.3071,0.13052 0.65952,0.34504 0.78316,0.47672 0.28327,0.30168 0.47087,0.27412 0.50476,-0.0741 z m -8.28117,-1.03617 c 0.11969,-0.34041 0.11741,-0.36749 -0.0407,-0.48309 -0.24565,-0.17962 -0.404529,-0.1118 -0.487409,0.20805 -0.0553,0.21325 -0.0396,0.33456 0.0635,0.49196 0.182459,0.27848 0.31157,0.21819 0.464549,-0.21692 z m 6.18088,-0.13296 c 0,-0.22992 -0.34957,-0.55238 -0.59881,-0.55238 -0.28399,0 -0.31012,0.11044 -0.12879,0.54441 0.16943,0.40551 0.38982,0.51598 0.57943,0.29042 0.0815,-0.0969 0.14817,-0.22404 0.14817,-0.28245 z m -6.50299,-0.93338 c -0.0143,-0.0931 -0.0934,-0.26458 -0.17586,-0.381 -0.16345,-0.23084 -1.59013,-0.98019 -1.97324,-1.03642 -0.4051,-0.0594 -0.27417,0.16455 0.24892,0.42587 0.80047,0.39991 1.01502,0.54998 1.17164,0.81957 0.19097,0.32871 0.28285,0.39019 0.54286,0.36325 0.15854,-0.0164 0.20514,-0.0644 0.18568,-0.19127 z M 40.716772,169.4373 c -0.0301,-0.59756 -0.0568,-0.6985 -0.18453,-0.6985 -0.38881,0 -0.454729,1.01004 -0.0829,1.27046 0.0994,0.0696 0.2081,0.12654 0.24165,0.12654 0.0336,0 0.0452,-0.31433 0.0258,-0.6985 z m 27.22022,0.40488 c 0.233391,-0.24079 0.291311,-0.37467 0.32195,-0.74416 0.0284,-0.34246 0.005,-0.47742 -0.0976,-0.56258 -0.157599,-0.1308 -0.17786,-0.093 -0.25854,0.48222 -0.028,0.19994 -0.0884,0.43807 -0.134059,0.52917 -0.0457,0.0911 -0.121171,0.24132 -0.16774,0.33382 -0.182589,0.36271 -0.0366,0.34599 0.336031,-0.0385 z m -29.06007,-1.25155 c 0.0459,-0.0582 0.10839,-0.21061 0.13898,-0.33867 0.0458,-0.1917 0.0273,-0.23283 -0.10496,-0.23283 -0.19589,0 -0.31823,0.13769 -0.39535,0.44497 -0.0489,0.19495 -0.0312,0.23236 0.10982,0.23236 0.0925,0 0.20566,-0.0476 0.25151,-0.10583 z m 31.67169,-0.0847 c 0.02249,-0.11871 -0.032,-0.14816 -0.274439,-0.14816 -0.28765,0 -0.397981,0.13033 -0.242211,0.28611 0.113012,0.11301 0.488051,0.0129 0.51665,-0.13795 z m -4.34254,-0.26275 c 0.138541,-0.0225 0.53278,-0.044 0.876091,-0.0478 0.513,-0.006 0.607351,-0.0273 0.529629,-0.12092 -0.0699,-0.0842 -0.49817,-0.12715 -1.640199,-0.16447 -1.366401,-0.0447 -1.602669,-0.074 -2.03752,-0.25274 -0.56972,-0.23423 -1.21515,-0.80201 -1.29597,-1.14007 -0.085,-0.35571 -0.12075,-0.38374 -0.29174,-0.229 -0.14727,0.13328 -0.14886,0.16045 -0.0239,0.40768 0.4881,0.96592 1.258871,1.40276 2.719241,1.54113 0.338648,0.0321 0.63731,0.0933 0.66371,0.13599 0.0286,0.0463 0.0885,0.044 0.148399,-0.006 0.0552,-0.0458 0.213749,-0.1017 0.35229,-0.12415 z m 4.188891,-0.30875 c 0,-0.19736 -0.305821,-0.53305 -0.443741,-0.48708 -0.052,0.0173 -0.135318,0.0983 -0.185208,0.17993 -0.0725,0.11861 -0.0506,0.18138 0.109159,0.31246 0.264761,0.21727 0.51979,0.21467 0.51979,-0.005 z m -32.213371,-0.0884 c 0.03,-0.0486 0.0116,-0.14021 -0.041,-0.20357 -0.21194,-0.25537 0.0531,-0.64856 0.68769,-1.02039 0.0795,-0.0466 0.35433,-0.20759 0.61077,-0.35784 0.57336,-0.33591 1.06857,-0.81909 1.06857,-1.04259 0,-0.14904 -0.0457,-0.13499 -0.42247,0.12982 -0.23235,0.16332 -0.44482,0.29694 -0.47214,0.29694 -0.0992,0 -1.35614,0.87175 -1.62423,1.12646 -0.22327,0.21213 -0.27516,0.32695 -0.27516,0.60889 0,0.34903 0.11287,0.55065 0.30827,0.55065 0.0578,0 0.12965,-0.0398 0.15969,-0.0884 z m 0.62645,-0.11575 c 0.0606,-0.073 0.0676,-0.13896 0.018,-0.16961 -0.1216,-0.0752 -0.35042,0.0366 -0.35042,0.17113 0,0.15289 0.20504,0.15195 0.33241,-0.002 z m 32.348921,-0.0293 c 0,-0.29013 -0.167939,-0.72792 -0.357809,-0.93273 -0.105892,-0.11421 -0.421122,-0.35403 -0.700522,-0.53292 -0.800838,-0.51276 -1.4038,-0.94397 -1.754838,-1.255 -0.414922,-0.36762 -0.505582,-0.27838 -0.185272,0.18234 0.163531,0.23522 0.584121,0.58339 1.22174,1.01138 1.071052,0.71891 1.37587,1.01174 1.336122,1.28353 -0.027,0.1845 0.145029,0.38461 0.334748,0.38944 0.0582,0.001 0.105831,-0.0642 0.105831,-0.14604 z m -9.09563,-1.92636 c 0.0499,-0.18585 0.12176,-0.40754 0.15974,-0.49264 0.0457,-0.10236 0.0253,-0.19845 -0.0601,-0.28387 -0.31092,-0.31092 -0.80185,0.22646 -0.65969,0.72212 0.10581,0.36895 0.16892,0.44929 0.32907,0.41891 0.0822,-0.0156 0.1778,-0.16644 0.23097,-0.36452 z m -15.8986,-0.55292 c 0.0972,-0.15559 0.0621,-0.22052 -0.35431,-0.65617 -0.51916,-0.54314 -0.851701,-0.69812 -2.04113,-0.95126 -1.357981,-0.28901 -2.63872,-0.68251 -3.090331,-0.94948 -0.16298,-0.0964 -0.49329,-0.30266 -0.73401,-0.45846 -0.240729,-0.15581 -0.4802,-0.28329 -0.53215,-0.28329 -0.34598,0 0.90089,1.03328 1.642991,1.36154 0.328479,0.14531 0.376979,0.19371 0.275769,0.27522 -0.0675,0.0544 -0.16261,0.28941 -0.211249,0.52224 -0.0486,0.23283 -0.115141,0.50906 -0.147771,0.61383 -0.0947,0.30403 0.171821,0.23709 0.37685,-0.0947 0.112131,-0.18143 0.17624,-0.42781 0.17624,-0.67733 0,-0.45959 0.0486,-0.4738 0.762,-0.22284 0.256111,0.0901 0.560911,0.16486 0.677331,0.16615 0.116419,0.001 0.383119,0.0561 0.592669,0.12185 0.20955,0.0657 0.6096,0.18823 0.889,0.27221 0.398851,0.11989 0.617151,0.25768 1.016,0.64131 0.2794,0.26874 0.527411,0.48933 0.55113,0.49021 0.0237,8.7e-4 0.0917,-0.0761 0.150971,-0.17107 z m 8.55823,-0.19547 c 0.0722,-0.0871 0.055,-0.15009 -0.0725,-0.26553 -0.15248,-0.13799 -0.17197,-0.13912 -0.22043,-0.0128 -0.0618,0.16116 0.01,0.39252 0.12127,0.39252 0.0423,0 0.11959,-0.0514 0.17169,-0.11414 z m 8.39747,-0.22896 c 0.39363,-0.36339 0.473719,-0.41524 1.19165,-0.77139 0.436309,-0.21644 2.040581,-0.74817 2.25729,-0.74817 0.0575,0 0.17071,-0.036 0.251569,-0.08 0.0809,-0.044 0.28461,-0.10191 0.452781,-0.12864 0.44668,-0.071 1.60223,-0.79853 1.796429,-1.13105 0.089,-0.15231 0.136051,-0.30259 0.104661,-0.33398 -0.0314,-0.0314 -0.0836,-0.0149 -0.115951,0.0365 -0.0583,0.0926 -0.41992,0.30819 -1.074899,0.64073 -0.186269,0.0946 -0.439791,0.22412 -0.563401,0.28788 -0.1236,0.0637 -0.284229,0.11592 -0.35696,0.11592 -0.0727,0 -0.257339,0.0539 -0.410268,0.11976 -0.152922,0.0659 -0.58284,0.20306 -0.955371,0.30487 -1.036759,0.28334 -1.349481,0.39591 -1.96886,0.70873 -0.54229,0.27388 -1.4561,0.89079 -1.45885,0.98486 -9.26e-4,0.0315 0.38937,0.30874 0.47146,0.33486 0.004,0.001 0.17432,-0.15214 0.37872,-0.34085 z m -7.63446,-0.10258 c 0.0989,-0.31014 0.0156,-0.83646 -0.14069,-0.88854 -0.057,-0.019 -0.10365,0.0235 -0.10365,0.0945 0,0.19858 -0.18298,0.26606 -0.29735,0.10965 -0.0899,-0.12294 -0.37999,-0.20166 -0.37999,-0.10311 0,0.26375 0.63562,1.18429 0.76326,1.1054 0.0391,-0.0242 0.11037,-0.16721 0.15842,-0.31791 z m -1.25954,0.0859 c 0.20376,-0.30758 0.23543,-0.43307 0.16025,-0.635 -0.0748,-0.20084 -0.32848,-0.26533 -0.33308,-0.0847 -0.002,0.0619 -0.052,0.0408 -0.12137,-0.0508 -0.18851,-0.24883 -0.324501,-0.0835 -0.27711,0.33697 0.0672,0.59607 0.331,0.79625 0.57131,0.43351 z m 2.1836,0.0889 c 0.16314,-0.16314 0.11885,-0.23707 -0.14204,-0.23707 -0.13399,0 -0.29106,-0.0571 -0.34903,-0.127 -0.15219,-0.18337 -0.254,-0.15622 -0.254,0.0677 0,0.25565 0.15137,0.39793 0.42333,0.39793 0.12108,0 0.26586,-0.0457 0.32174,-0.1016 z m -3.02222,-0.3179 c 0.0858,-0.28638 0.0792,-0.36707 -0.0457,-0.55767 -0.15415,-0.23527 -0.11501,-0.39389 0.0552,-0.22368 0.19149,0.19149 0.31331,0.11234 0.28653,-0.18618 -0.0268,-0.29816 -0.21628,-0.55393 -0.53215,-0.71815 -0.25808,-0.13419 -0.30012,-0.12128 -0.2384,0.0732 0.0381,0.12017 0.0152,0.16933 -0.079,0.16933 -0.190151,0 -0.16416,0.11027 0.0801,0.33972 0.1358,0.12759 0.18341,0.22929 0.13158,0.28111 -0.0447,0.0447 -0.0589,0.19284 -0.0316,0.32929 0.042,0.20991 0.025,0.24384 -0.11042,0.22049 -0.24387,-0.0421 -0.25784,0.30494 -0.019,0.47222 0.29358,0.20563 0.39327,0.16605 0.50283,-0.19966 z m -1.01565,-0.19433 c 0.32608,-0.36898 0.36265,-0.51574 0.20466,-0.82127 -0.1438,-0.27808 -0.38319,-0.34948 -0.38319,-0.1143 0,0.11195 -0.0226,0.12136 -0.101601,0.0423 -0.203789,-0.20378 -0.249479,-0.0914 -0.191049,0.4699 0.0851,0.81781 0.106,0.83657 0.47118,0.42334 z m 4.26647,-0.14817 c -0.0603,-0.18999 0.0941,-0.30201 0.24442,-0.17728 0.0834,0.0692 0.13323,0.0403 0.20614,-0.11971 0.1258,-0.27611 0.30466,-0.27955 0.23564,-0.005 -0.0285,0.11356 -0.0155,0.22893 0.0289,0.25637 0.10753,0.0665 0.2259,-0.17272 0.29648,-0.59908 0.052,-0.31414 0.0318,-0.3737 -0.20835,-0.61383 -0.23275,-0.23276 -0.32323,-0.26594 -0.72509,-0.26594 -0.38031,0 -0.45939,0.0254 -0.46055,0.14816 -8.47e-4,0.0867 -0.0806,0.008 -0.19229,-0.18889 -0.25315,-0.44697 -0.51977,-0.58139 -0.83247,-0.41969 -0.5294,0.27377 -0.67177,0.90399 -0.27476,1.21627 0.31656,0.24901 0.90598,0.24211 1.08445,-0.0127 l 0.1318,-0.18817 v 0.18317 c 0,0.10075 -0.0381,0.20672 -0.0847,0.2355 -0.0466,0.0288 -0.0847,0.16427 -0.0847,0.30109 0,0.20053 0.0533,0.27114 0.27516,0.36419 0.32163,0.13492 0.42832,0.10084 0.35984,-0.11494 z m -1.31234,-0.96815 c 0,-0.0203 0.0391,-0.13958 0.0868,-0.26518 0.0842,-0.22131 0.092,-0.22368 0.254,-0.077 0.24613,0.22274 0.21033,0.37905 -0.0868,0.37905 -0.1397,0 -0.254,-0.0166 -0.254,-0.0368 z m -3.9135,1.00568 c 0.11762,-0.0824 0.18817,-0.21993 0.18817,-0.36689 0,-0.33985 -0.0755,-0.36715 -0.30362,-0.10974 l -0.20154,0.22743 0.0534,-0.28484 c 0.0508,-0.27079 0.0445,-0.28004 -0.128419,-0.18752 -0.1999,0.10698 -0.38714,0.36824 -0.475071,0.66286 -0.0528,0.17705 -0.0309,0.1905 0.311011,0.1905 0.20233,0 0.45254,-0.0593 0.55604,-0.1318 z m 7.1166,-0.0662 c 0.037,-0.19469 -0.29974,-0.56395 -0.51423,-0.56395 -0.12007,0 -0.14721,0.0412 -0.10817,0.16418 0.0364,0.1146 -0.002,0.19308 -0.12676,0.25991 -0.14618,0.0782 -0.15987,0.11862 -0.0749,0.22101 0.15455,0.18622 0.78509,0.12413 0.82405,-0.0812 z m -9.17633,-0.20538 c -0.0442,-0.0356 -0.175681,-0.14581 -0.2921,-0.24486 -0.28455,-0.2421 -0.762,-0.34595 -0.762,-0.16575 0,0.0719 0.0857,0.17681 0.1905,0.2331 0.30889,0.16595 1.03446,0.31509 0.8636,0.17751 z m 4.99473,-0.28226 c 0.31462,-0.18563 0.39091,-0.33031 0.17417,-0.33031 -0.0887,0 -0.127,-0.0894 -0.127,-0.29633 0,-0.31289 -0.0843,-0.37383 -0.24656,-0.1783 -0.10344,0.12464 -0.23535,0.98263 -0.15107,0.98263 0.0271,0 0.18481,-0.08 0.35046,-0.17769 z m -3.89381,-0.17456 c 0.40028,-0.18238 0.17537,-0.40214 -0.24716,-0.2415 -0.25776,0.098 -0.4199,0.0342 -0.21382,-0.0841 0.0695,-0.0399 0.20249,-0.13156 0.295629,-0.20371 0.1462,-0.11327 0.151991,-0.14279 0.0423,-0.21617 -0.189379,-0.12672 -0.217779,-0.11524 -0.589099,0.23799 -0.47608,0.45288 -0.45662,0.60577 0.0771,0.60577 0.230641,0 0.516391,-0.0442 0.635,-0.0983 z m 9.06713,0.007 c 0.0817,-0.13225 -0.67185,-0.75828 -1.01763,-0.84539 -0.18747,-0.0472 -0.51148,-0.13929 -0.72003,-0.20458 -0.20855,-0.0653 -0.39771,-0.1002 -0.42034,-0.0776 -0.0856,0.0856 0.14938,0.33232 0.38495,0.40427 0.50625,0.15464 0.7109,0.24401 0.7109,0.31046 0,0.0377 -0.11143,0.0365 -0.24763,-0.003 -0.13619,-0.0391 -0.26954,-0.0491 -0.29633,-0.0223 -0.11117,0.11117 -0.0295,0.20669 0.30445,0.35621 0.35692,0.1598 1.21986,0.21379 1.30166,0.0814 z m -11.22215,-0.25987 c 0,-0.0532 -0.17214,-0.2982 -0.38253,-0.54446 l -0.382531,-0.44776 0.465081,0.16346 c 0.81072,0.28495 1.07029,0.14524 0.54748,-0.29468 -0.26803,-0.22553 -0.54953,-0.28676 -0.60151,-0.13082 -0.0162,0.0486 -0.12306,0.001 -0.23746,-0.10543 l -0.20801,-0.19378 0.25158,-0.0505 c 0.13836,-0.0278 0.35554,-0.0329 0.482609,-0.0113 0.190131,0.0322 0.246351,-0.001 0.3175,-0.18822 0.144071,-0.37894 0.100051,-0.69523 -0.13574,-0.97546 -0.12222,-0.14524 -0.20794,-0.27732 -0.1905,-0.2935 0.0174,-0.0162 0.1841,-0.0514 0.370361,-0.0782 0.18627,-0.0268 0.46792,-0.0871 0.62589,-0.13388 0.15797,-0.0468 0.32356,-0.0626 0.367969,-0.0352 0.0444,0.0274 0.0676,-0.0148 0.0515,-0.0939 -0.0452,-0.22185 -0.87896,-0.48839 -1.327161,-0.42426 -0.283589,0.0406 -0.355199,0.0819 -0.316539,0.18267 0.035,0.0913 0.0118,0.11558 -0.078,0.0811 -0.140399,-0.0539 -0.149099,-0.0121 -0.0502,0.24128 0.052,0.13322 -0.0116,0.24183 -0.30228,0.51644 -0.20248,0.19126 -0.368001,0.4011 -0.36783,0.46631 1.69e-4,0.0652 0.078,0.24601 0.172999,0.40179 0.134191,0.2201 0.150761,0.30965 0.0744,0.40172 -0.0541,0.0652 -0.0784,0.19487 -0.0539,0.28826 0.0528,0.20184 -0.009,0.21328 -0.24845,0.0458 -0.0974,-0.0682 -0.20111,-0.1 -0.23051,-0.0706 -0.10974,0.10974 -0.047,0.25409 0.15821,0.3639 0.11642,0.0623 0.21167,0.14582 0.21167,0.1856 0,0.0398 -0.10187,0.006 -0.22637,-0.076 -0.13785,-0.0903 -0.237991,-0.11349 -0.256071,-0.0593 -0.0163,0.049 -0.143059,0.0724 -0.281629,0.0521 -0.28501,-0.0418 -0.31524,0.0259 -0.11181,0.25074 0.16226,0.17929 0.33743,0.20124 0.39103,0.049 0.027,-0.0766 0.10485,-0.0581 0.28222,0.0672 0.13473,0.0952 0.4088,0.22574 0.609039,0.29012 0.200241,0.0644 0.383471,0.14843 0.407171,0.18677 0.0637,0.10309 0.20242,0.0846 0.20242,-0.027 z m -0.514481,-1.9988 c -0.004,-0.0349 -0.0193,-0.1306 -0.035,-0.21262 -0.0307,-0.16047 0.24506,-0.35768 0.38188,-0.27313 0.0456,0.0282 0.0829,0.11147 0.0829,0.18508 0,0.19538 -0.4112,0.48304 -0.42981,0.30067 z m 3.64715,2.05741 c 0,-0.0209 -0.1143,-0.20744 -0.254,-0.41444 -0.14688,-0.21763 -0.254,-0.48723 -0.254,-0.63924 0,-0.3282 -0.2263,-0.36043 -0.305829,-0.0436 -0.0623,0.24828 0.0837,0.81772 0.242719,0.94685 0.138391,0.11234 0.57111,0.2263 0.57111,0.15039 z m 9.059331,-0.0525 c 0.2387,-0.0161 0.7716,-0.25043 0.95221,-0.4187 0.0992,-0.0924 0.234,-0.16805 0.29952,-0.16805 0.18488,0 0.61094,-0.33509 0.61094,-0.48049 0,-0.081 -0.048,-0.11187 -0.127,-0.0816 -0.0741,0.0285 -0.127,10e-4 -0.127,-0.0652 0,-0.0627 -0.0571,-0.16141 -0.127,-0.21938 -0.10308,-0.0855 -0.127,-0.082 -0.127,0.0188 0,0.0683 -0.0762,0.1932 -0.16934,0.27749 -0.14747,0.13346 -0.16933,0.1358 -0.16933,0.0181 0,-0.0743 0.0381,-0.15868 0.0847,-0.18746 0.11928,-0.0737 0.1054,-0.21187 -0.0212,-0.21059 -0.14035,0.001 -0.86937,0.83767 -0.94902,1.08862 -0.044,0.13881 -0.0892,0.17078 -0.15223,0.10775 -0.063,-0.063 -0.057,-0.12894 0.0205,-0.22223 0.14123,-0.17017 0.0623,-0.24767 -0.18528,-0.18187 -0.17166,0.0456 -0.66011,0.61853 -0.66011,0.77424 0,0.0324 0.16193,0.0364 0.35984,0.009 0.19791,-0.0274 0.41698,-0.0537 0.48683,-0.0585 z m -11.361161,-0.18458 c 0.0238,-0.12473 -0.0363,-0.14787 -0.380129,-0.14629 l -0.40838,0.002 0.21167,0.16744 c 0.249719,0.19754 0.536989,0.18607 0.576839,-0.023 z m 3.181781,-0.22339 c 0.145969,-0.15237 0.25157,-0.37335 0.28012,-0.58623 0.0382,-0.28442 0.0114,-0.37613 -0.15979,-0.54729 -0.11308,-0.11309 -0.35215,-0.23311 -0.53125,-0.26671 -0.27988,-0.0525 -0.355461,-0.0313 -0.53784,0.1511 -0.26601,0.26601 -0.29029,0.88328 -0.0448,1.13774 0.39833,0.4128 0.67502,0.44382 0.99351,0.11139 z m 1.49071,0.0302 c 0,-0.12963 0.0585,-0.23304 0.14817,-0.26168 0.55721,-0.17808 0.86697,-0.54705 0.86752,-1.03334 2.5e-4,-0.20126 -0.0733,-0.35526 -0.2574,-0.5394 -0.22723,-0.22723 -0.297,-0.25143 -0.58991,-0.20459 -0.50116,0.0801 -0.76068,0.2247 -0.76373,0.42542 -10e-4,0.0973 -0.0586,0.25087 -0.127,0.34126 -0.13771,0.18207 -0.16731,0.60342 -0.0476,0.67741 0.0422,0.0261 0.0608,0.11405 0.0414,0.1955 -0.0232,0.0975 0.0736,0.2266 0.28311,0.37778 0.39683,0.28628 0.44539,0.28864 0.44539,0.0216 z m -0.47749,-0.84429 c -0.0291,-0.076 -0.005,-0.18317 0.0535,-0.23824 0.0821,-0.0772 0.115381,-0.0759 0.145301,0.006 0.0213,0.0582 0.13406,0.10583 0.25047,0.10583 0.30913,0 0.19926,0.20603 -0.12705,0.23824 -0.18815,0.0186 -0.28518,-0.015 -0.32222,-0.11152 z m -11.883841,0.5918 c 0,-0.0239 -0.034,-0.10964 -0.0756,-0.1905 -0.0416,-0.0809 -0.114529,-0.24651 -0.16217,-0.36811 -0.0476,-0.12161 -0.38511,-0.59828 -0.74994,-1.05928 -0.714199,-0.90246 -0.705609,-0.88928 -1.15208,-1.76972 -0.28615,-0.56427 -0.42384,-1.12031 -0.56556,-2.28391 -0.034,-0.2794 -0.13459,-0.6604 -0.22345,-0.84667 l -0.16157,-0.33866 -0.0252,0.62792 c -0.0138,0.34536 0.0147,0.81396 0.0635,1.04134 0.0488,0.22737 0.0887,0.62479 0.0887,0.88314 0,0.38708 0.063,0.5912 0.3582,1.16 0.197,0.37965 0.45812,0.78551 0.58025,0.90193 0.24229,0.23095 1.38978,1.6789 1.62713,2.05317 0.12528,0.19755 0.39775,0.32726 0.39775,0.18935 z m 8.297331,-0.10924 c 0,-0.21195 -0.54918,-0.72875 -0.709161,-0.66736 -0.142859,0.0548 -0.154289,0.37777 -0.0196,0.55438 0.20279,0.26597 0.72879,0.34751 0.72879,0.11298 z m -3.640661,-0.26491 c 0,-0.19147 -0.312649,-0.31958 -0.448479,-0.18376 -0.0672,0.0672 -0.0474,0.12705 0.072,0.21738 0.228869,0.1731 0.37645,0.15992 0.37645,-0.0336 z m -5.459329,-0.003 c -0.0279,-0.0451 -0.33776,-0.41656 -0.68867,-0.8255 -0.350911,-0.40895 -0.739941,-0.90782 -0.864511,-1.1086 -0.12457,-0.20078 -0.31222,-0.47298 -0.41699,-0.60489 -0.10478,-0.13191 -0.1905,-0.29373 -0.1905,-0.3596 0,-0.0659 -0.0559,-0.19372 -0.12431,-0.28411 -0.12054,-0.15937 -0.12439,-0.15949 -0.127,-0.004 -0.005,0.27648 0.34531,1.34701 0.57038,1.74479 0.30212,0.53398 0.9311,1.17516 1.33193,1.35776 0.37993,0.17308 0.58557,0.20709 0.509671,0.0843 z m 9.777329,-0.12641 c 0,-0.068 -0.0834,-0.20139 -0.185299,-0.29634 -0.210451,-0.19606 -0.10969,-0.23032 0.13427,-0.0456 0.18256,0.13819 0.305029,0.0964 0.305029,-0.10414 0,-0.24966 -0.26377,-0.44617 -0.598869,-0.44617 -0.69061,0 -0.75987,0.20459 -0.233711,0.69034 0.367601,0.33936 0.57858,0.41301 0.57858,0.20196 z m 6.643121,0.0442 c 0.027,-0.0437 -0.006,-0.11038 -0.0723,-0.14816 -0.0792,-0.0448 -0.10584,-0.1496 -0.0766,-0.30154 0.046,-0.23891 0.14348,-0.29911 0.23762,-0.14679 0.0886,0.1433 0.21081,0.003 0.21081,-0.24153 0,-0.24344 -0.17806,-0.55047 -0.46306,-0.79845 -0.11889,-0.10345 -0.26336,-0.13773 -0.46827,-0.11111 -0.16298,0.0212 -0.49636,0.0648 -0.74083,0.0969 -0.45643,0.06 -0.55572,0.17781 -0.31682,0.37608 0.0803,0.0667 0.26874,0.0901 0.508,0.0631 0.39562,-0.0446 0.4695,0.0109 0.25332,0.19033 -0.16597,0.13774 -0.16315,0.67271 0.005,0.91249 0.10212,0.1458 0.21539,0.18818 0.503,0.18818 0.20416,0 0.3933,-0.0358 0.42032,-0.0795 z m -10.3384,-0.47233 c -0.0238,-0.0619 0.036,-0.15491 0.13271,-0.20669 0.24375,-0.13045 0.228419,-0.51478 -0.0317,-0.79548 -0.227071,-0.24501 -0.35571,-0.26651 -0.82112,-0.13724 -0.334261,0.0928 -0.40038,0.19534 -0.46614,0.72263 -0.0497,0.39862 0.0605,0.53248 0.482189,0.58585 0.151441,0.0192 0.315001,0.0745 0.363461,0.12297 0.113969,0.11397 0.40174,-0.13276 0.340619,-0.29204 z m -0.622721,-0.23524 c 0,-0.0718 -0.0191,-0.18119 -0.0424,-0.2432 -0.0235,-0.0627 0.0442,-0.15269 0.152321,-0.2026 0.180949,-0.0835 0.19225,-0.0732 0.16016,0.14544 -0.0391,0.26641 -0.27011,0.52329 -0.27011,0.30036 z m 9.447261,0.53304 c 0.2303,0 0.28584,-0.2282 0.0752,-0.30902 -0.0819,-0.0314 -0.11088,-0.10844 -0.0788,-0.20943 0.0647,-0.20395 -0.18378,-0.31249 -0.34182,-0.1493 -0.0974,0.10056 -0.16631,0.45395 -0.13614,0.69797 0.005,0.0399 0.0692,0.0494 0.1429,0.0212 0.0737,-0.0283 0.22606,-0.0514 0.33867,-0.0514 z m -10.32315,-0.20802 c -0.0324,-0.0844 -0.158441,-0.13065 -0.35618,-0.13065 -0.392901,0 -0.35288,0.19304 0.0535,0.25788 0.342991,0.0547 0.368441,0.044 0.302721,-0.12723 z m 7.56455,-0.20499 c 0,-0.0874 0.0857,-0.2179 0.1905,-0.28988 l 0.1905,-0.13087 -0.23698,-0.43727 c -0.18525,-0.34181 -0.21553,-0.46314 -0.1387,-0.55571 0.13055,-0.1573 0.0395,-0.3746 -0.15705,-0.3746 -0.141501,0 -0.155521,0.0691 -0.14163,0.6985 0.008,0.38418 0.0446,0.82233 0.0803,0.97367 0.0701,0.29733 0.21306,0.37526 0.21306,0.11616 z m -3.50327,-0.0348 c 0.0578,-0.0578 -0.19826,-0.39883 -0.29948,-0.39883 -0.0944,0 -0.26758,0.34459 -0.21551,0.42883 0.0551,0.0891 0.41693,0.0681 0.51499,-0.03 z m -4.226841,-0.23301 c -0.0364,-0.13907 0.004,-0.18276 0.20809,-0.22351 0.22479,-0.045 0.23905,-0.0649 0.12669,-0.17727 -0.0884,-0.0884 -0.377689,-0.13904 -0.9588,-0.16783 l -0.832199,-0.0412 0.24809,0.26374 c 0.136439,0.14505 0.422189,0.31719 0.635,0.38253 0.5535,0.16995 0.62589,0.16534 0.573129,-0.0364 z m 14.792371,0.12164 c 0.17232,-0.0661 0.0884,-0.20279 -0.12459,-0.20279 -0.16434,0 -0.21418,0.0913 -0.10789,0.19755 0.0687,0.0687 0.0672,0.0687 0.23248,0.005 z m -21.254451,-0.47796 c -0.0647,-0.19791 -0.1502,-0.41744 -0.1899,-0.48785 -0.14982,-0.26573 -0.37534,-1.16381 -0.43558,-1.73465 -0.0397,-0.37589 -0.0177,-0.99525 0.0602,-1.69333 0.12946,-1.16119 0.0974,-1.73992 -0.10564,-1.90845 -0.10476,-0.0869 -0.12288,-0.035 -0.12309,0.35291 -1.3e-4,0.25018 -0.0762,0.91207 -0.16909,1.47087 -0.0929,0.5588 -0.16839,1.18745 -0.16782,1.397 10e-4,0.4254 0.30003,1.46284 0.57833,2.00746 0.10019,0.19605 0.18216,0.39742 0.18216,0.44748 0,0.15248 0.26661,0.50839 0.38083,0.50839 0.0851,0 0.0829,-0.0747 -0.0104,-0.35983 z m 12.58353,0.15629 c 0,-0.0599 -0.0762,-0.17784 -0.169339,-0.26212 -0.23475,-0.21245 -0.23092,-0.41993 0.005,-0.29344 0.12971,0.0694 0.20609,0.0675 0.29634,-0.007 0.10269,-0.0852 0.12159,-0.0401 0.12159,0.29046 0,0.29143 0.0324,0.39136 0.127,0.39136 0.0705,0 0.127,-0.0753 0.127,-0.16933 0,-0.23582 0.2224,-0.2116 0.38878,0.0423 0.13294,0.2029 0.36141,0.31338 0.23923,0.1157 -0.0326,-0.0528 -0.0667,-0.2178 -0.0757,-0.36669 -0.009,-0.1489 -0.14067,-0.45129 -0.29251,-0.67198 -0.25558,-0.37147 -0.30256,-0.63536 -0.0721,-0.40488 0.15439,0.15438 0.32033,0.11884 0.32033,-0.0686 0,-0.20544 -0.63513,-0.68874 -0.81461,-0.61987 -0.14973,0.0575 -0.0835,0.49714 0.10755,0.7142 0.0981,0.11149 0.10155,0.17935 0.0182,0.36223 -0.0668,0.14662 -0.12391,0.19046 -0.16387,0.12581 -0.14265,-0.23081 -1.15783,-0.44231 -1.07067,-0.22306 0.32376,0.81446 0.46674,1.08402 0.60977,1.1496 0.19484,0.0893 0.29761,0.0533 0.29761,-0.10431 z m 8.391601,-0.0131 c 0.29272,-0.15137 0.28108,-0.34524 -0.0186,-0.30984 -0.24632,0.0291 -0.455219,0.22249 -0.377019,0.34902 0.0739,0.11966 0.0919,0.11789 0.395619,-0.0392 z m -9.661601,-0.30026 c 0,-0.10237 0.0595,-0.16044 0.164331,-0.16044 0.23974,0 0.29738,-0.15592 0.12717,-0.344 -0.18357,-0.20285 -0.71484,-0.22961 -0.71484,-0.036 0,0.10192 -0.069,0.11697 -0.338661,0.0739 -0.3428,-0.0548 -0.425279,0.0163 -0.237069,0.20455 0.079,0.079 0.079,0.1016 0,0.1016 -0.0559,0 -0.1016,0.054 -0.1016,0.11995 0,0.1621 0.36066,0.2715 0.76722,0.23273 0.25965,-0.0248 0.333449,-0.0673 0.333449,-0.19224 z m 9.129141,-0.11703 c 0.0151,-0.18568 0.0637,-0.38125 0.10799,-0.43461 0.0539,-0.065 0.0353,-0.11437 -0.0563,-0.14952 -0.16408,-0.063 -0.29085,0.003 -0.29085,0.15041 0,0.0592 -0.0932,0.15759 -0.20718,0.21857 -0.28106,0.15042 -0.34513,0.34534 -0.13184,0.40112 0.0933,0.0244 0.16968,0.0807 0.16968,0.12505 0,0.0444 0.0857,0.0685 0.1905,0.0536 0.15545,-0.0221 0.19556,-0.0892 0.21798,-0.36465 z m -0.91006,0.0259 c 0.2942,-0.23642 0.58625,-0.65213 0.58625,-0.83447 0,-0.034 -0.10185,-0.0813 -0.22634,-0.10505 -0.45746,-0.0874 -1.28881,0.38117 -1.17986,0.66507 0.0657,0.1713 0.22162,0.14926 0.44791,-0.0633 0.28616,-0.26884 0.35245,-0.11178 0.075,0.17778 -0.12975,0.13543 -0.21045,0.28743 -0.17933,0.33778 0.0806,0.13034 0.10362,0.12173 0.47633,-0.17779 z m -7.88042,0.1 c 0,-0.0466 -0.0381,-0.0847 -0.0847,-0.0847 -0.0466,0 -0.0847,0.0381 -0.0847,0.0847 0,0.0466 0.0381,0.0847 0.0847,0.0847 0.0466,0 0.0847,-0.0381 0.0847,-0.0847 z m 3.21734,-0.127 c 0,-0.21161 0.115,-0.2834 0.20938,-0.13069 0.0789,0.12771 0.29862,0.002 0.29862,-0.17072 0,-0.10849 -0.0971,-0.18326 -0.3175,-0.24447 -0.46069,-0.12794 -0.52917,-0.1126 -0.52917,0.11857 0,0.24387 0.16546,0.63898 0.26759,0.63898 0.0391,0 0.0711,-0.0952 0.0711,-0.21167 z m 1.93414,-0.46572 c 0.13953,-0.0697 0.18541,-0.14912 0.15445,-0.26748 -0.0265,-0.10132 0.0217,-0.23414 0.12118,-0.33357 0.16382,-0.16382 0.16476,-0.16342 0.11173,0.0478 -0.0632,0.25203 0.14612,0.38008 0.34778,0.21271 0.1383,-0.11478 0.13092,-0.52924 -0.014,-0.78753 -0.0837,-0.14911 -0.0966,-0.14893 -0.37612,0.005 -0.159211,0.0879 -0.325111,0.23857 -0.368671,0.33477 -0.065,0.14359 -0.1348,0.16746 -0.38969,0.13327 -0.291589,-0.0391 -0.313669,-0.0257 -0.36287,0.22028 -0.0288,0.14406 -0.15088,0.34757 -0.27127,0.45224 l -0.218889,0.19032 0.279959,0.23098 0.27996,0.23097 0.254,-0.28556 c 0.1397,-0.15705 0.34332,-0.33015 0.45248,-0.38465 z m -9.97748,0.30244 c 0,-0.20477 0.195079,-0.47172 0.34472,-0.47172 0.17276,0 -0.0177,-0.89215 -0.23731,-1.11179 -0.13391,-0.13391 -0.446071,-0.004 -0.446071,0.18617 0,0.11703 -0.0588,0.16362 -0.20667,0.16362 -0.11367,0 -0.2306,0.0387 -0.259849,0.0861 -0.0682,0.11034 -0.21082,0.0241 -0.21082,-0.12749 0,-0.0639 0.0777,-0.12829 0.17269,-0.14317 0.095,-0.0149 0.17749,-0.0651 0.18336,-0.11172 0.0156,-0.12362 -0.78907,-0.40518 -0.88469,-0.30956 -0.12374,0.12375 0.131939,0.5312 0.59514,0.94841 0.478659,0.43114 0.670139,0.81526 0.356839,0.71582 -0.259259,-0.0823 -0.48925,-0.33088 -0.522479,-0.56473 -0.0226,-0.15934 -0.0748,-0.19394 -0.271071,-0.17992 -0.335259,0.0239 -0.351719,0.0632 -0.147019,0.35068 0.0982,0.13792 0.178569,0.29252 0.178569,0.34354 0,0.051 0.01,0.0938 0.0212,0.0951 0.0117,0.001 0.23072,0.0748 0.486839,0.1634 0.661791,0.22883 0.846661,0.22168 0.846661,-0.0327 z m -0.28222,-0.69749 c -0.0977,-0.0977 -0.0613,-0.36695 0.0494,-0.3656 0.193991,0.002 0.3428,0.14932 0.29016,0.2865 -0.053,0.13811 -0.23754,0.1811 -0.339549,0.0791 z m 14.65963,0.5423 c 0.0194,-0.10048 -0.0258,-0.14719 -0.1422,-0.14719 -0.19417,0 -0.3017,0.12645 -0.21997,0.25869 0.0824,0.13333 0.32968,0.0572 0.36217,-0.1115 z m -16.15541,0.0714 c 0,-0.0195 -0.0231,-0.0957 -0.0514,-0.16933 -0.0736,-0.19186 -0.28727,-0.16553 -0.28727,0.0354 0,0.11289 0.0564,0.16934 0.169331,0.16934 0.0931,0 0.169329,-0.0159 0.169329,-0.0354 z m 13.44479,-0.76141 c -0.0213,-0.3649 -0.0526,-0.43477 -0.20469,-0.45647 -0.13385,-0.0191 -0.24702,0.0762 -0.4445,0.37435 -0.14571,0.21998 -0.26493,0.43154 -0.26493,0.47012 0,0.15072 0.25059,0.0589 0.41719,-0.15293 l 0.17548,-0.22309 v 0.25131 c 0,0.30804 0.074,0.39376 0.22899,0.26515 0.0792,-0.0657 0.10937,-0.23828 0.0925,-0.52844 z m 6.973501,0.35823 c 0.132209,-0.14808 0.240379,-0.28014 0.240379,-0.29346 0,-0.0133 -0.0642,-0.15885 -0.142679,-0.32341 -0.10264,-0.21524 -0.197692,-0.29921 -0.338672,-0.29921 -0.107789,0 -0.19598,-0.0499 -0.19598,-0.11082 0,-0.14446 0.247751,-0.47342 0.251312,-0.33368 0.0011,0.0582 0.0408,0.10583 0.0874,0.10583 0.0466,0 0.164679,0.08 0.262469,0.1778 0.20347,0.20347 0.437981,0.0964 0.259609,-0.1185 -0.113419,-0.13666 -0.0479,-0.22863 0.16287,-0.22863 0.163071,0 0.669721,-0.39116 0.669721,-0.51706 0,-0.0433 -0.157821,-0.0685 -0.35071,-0.056 -0.452451,0.0293 -0.519221,-0.14021 -0.108609,-0.27572 0.171299,-0.0565 0.474078,-0.21254 0.67283,-0.34668 0.198758,-0.13414 0.40132,-0.24389 0.450138,-0.24389 0.0488,0 0.142851,-0.0772 0.208971,-0.17164 0.0993,-0.14178 0.1583,-0.15717 0.33904,-0.0884 0.120351,0.0458 0.282339,0.18015 0.359981,0.29864 0.142989,0.21822 0.37569,0.29362 0.37569,0.12172 0,-0.0516 0.0544,-0.0729 0.120809,-0.0474 0.0665,0.0255 0.169791,-0.0126 0.229639,-0.0848 0.0905,-0.10907 0.0823,-0.15057 -0.0491,-0.24664 -0.143682,-0.10507 -0.145212,-0.12041 -0.01691,-0.16965 0.131831,-0.0506 0.392919,0.0882 0.392919,0.20888 0,0.0297 -0.154379,0.21306 -0.343058,0.40745 l -0.343051,0.35344 0.279551,0.42428 c 0.397308,0.60298 0.66009,0.56216 0.66087,-0.10266 1.7e-4,-0.14753 0.0764,-0.39299 0.169339,-0.54546 0.093,-0.15246 0.169011,-0.31859 0.169011,-0.36916 0,-0.0506 -0.17049,-0.26004 -0.378881,-0.46548 l -0.378889,-0.37352 -0.806442,0.0567 c -0.704958,0.0496 -0.80645,0.0762 -0.80645,0.21191 0,0.19109 -0.37542,0.30362 -0.544578,0.16323 -0.138571,-0.115 -0.85987,0.21705 -1.68007,0.77342 -0.575121,0.39013 -0.561071,0.53498 0.0441,0.4547 l 0.422428,-0.056 -0.20044,0.25355 c -0.223528,0.28274 -0.327449,0.32588 -0.327449,0.13592 0,-0.2447 -0.32027,-0.12356 -0.666551,0.25211 -0.385259,0.41796 -0.444699,0.59688 -0.174829,0.5263 0.156999,-0.041 0.168919,-0.0185 0.118079,0.22296 -0.0311,0.14775 -0.0906,0.30482 -0.132289,0.34906 -0.157991,0.16777 -0.0716,0.38655 0.199419,0.50508 0.419779,0.18358 0.57723,0.15823 0.83912,-0.1351 z m -0.648621,-0.23875 c -0.0691,-0.11179 0.0234,-0.254 0.165269,-0.254 0.0944,0 0.215731,0.17058 0.215731,0.30326 0,0.0742 -0.33115,0.0314 -0.381,-0.0493 z m 1.364419,0.32289 c 0.0291,-0.047 -0.0662,-0.0695 -0.227348,-0.0537 -0.152551,0.0149 -0.290852,0.0684 -0.307332,0.11868 -0.037,0.11301 0.462171,0.0524 0.53468,-0.065 z M 42.459902,159.601 c -0.18981,-0.25694 -0.430499,-0.54967 -0.53486,-0.65052 -0.203019,-0.19619 -0.12025,-0.15785 0.38462,0.17816 0.174931,0.11642 0.340711,0.2984 0.368411,0.4044 0.0562,0.21493 0.268939,0.3576 0.53332,0.3576 0.31368,0 0.186459,-0.36924 -0.19519,-0.56654 -0.283881,-0.14676 -0.915751,-0.63117 -0.87562,-0.6713 0.0133,-0.0133 0.247269,0.0883 0.519889,0.22581 0.272631,0.13752 0.60575,0.25003 0.740281,0.25003 h 0.244599 l -0.19303,-0.34811 c -0.117589,-0.21207 -0.300569,-0.3945 -0.46819,-0.46681 -0.15134,-0.0653 -0.275169,-0.14806 -0.275169,-0.18396 0,-0.0791 -0.45463,-0.35579 -0.58456,-0.35579 -0.233751,0 -0.053,0.28007 0.3348,0.51866 0.235169,0.1447 0.40724,0.28342 0.382389,0.30827 -0.0249,0.0249 -0.279419,-0.11555 -0.5657,-0.31201 -0.3529,-0.24218 -0.54825,-0.32947 -0.606639,-0.27107 -0.0584,0.0584 -0.0399,0.15674 0.0576,0.30542 0.140449,0.21435 0.139829,0.21688 -0.0277,0.11229 -0.146421,-0.0914 -0.189351,-0.0827 -0.29522,0.0602 -0.11412,0.15404 -0.0962,0.19559 0.227189,0.52706 0.425871,0.43648 0.374941,0.46657 -0.1075,0.0635 -0.35673,-0.29804 -0.592669,-0.378 -0.592669,-0.20086 0,0.18203 0.92364,0.94999 1.370889,1.13983 0.247191,0.10493 0.461531,0.1575 0.4763,0.11682 0.0148,-0.0407 -0.128439,-0.28417 -0.318249,-0.5411 z m 19.912891,0.30372 c 0.29897,-0.27619 0.31908,-0.69668 0.0423,-0.88519 -0.18316,-0.12475 -0.18467,-0.13576 -0.0393,-0.28549 0.1318,-0.13573 0.16193,-0.13942 0.23455,-0.0287 0.071,0.10815 0.1082,0.0973 0.25094,-0.0729 0.22806,-0.27197 0.22702,-0.68912 -0.002,-0.68912 -0.20342,0 -0.48381,0.264 -0.59723,0.56232 -0.0507,0.13344 -0.12771,0.19953 -0.20005,0.17177 -0.0647,-0.0248 -0.18797,0.008 -0.27399,0.0734 -0.086,0.0652 -0.23746,0.11971 -0.33653,0.12119 -0.28639,0.004 -0.38912,0.19972 -0.32605,0.62031 0.0495,0.33012 0.0965,0.39469 0.39903,0.54833 0.38402,0.19503 0.512,0.17452 0.84798,-0.13587 z m -0.68646,-0.259 -0.18851,-0.14219 0.21075,-0.19798 c 0.19052,-0.179 0.22336,-0.18537 0.34223,-0.0665 0.17411,0.17411 0.1662,0.33518 -0.0222,0.45286 -0.12062,0.0753 -0.19433,0.0654 -0.34224,-0.0462 z m 3.81913,0.38106 c 0.184758,-0.14025 0.18914,-0.22081 0.01199,-0.22081 -0.133171,0 0.46846,-0.59086 1.012952,-0.99483 0.385939,-0.28633 0.479208,-0.22291 0.129209,0.0878 -0.16849,0.14959 -0.464971,0.49106 -0.658839,0.75882 -0.282961,0.39078 -0.322742,0.48667 -0.201671,0.48604 0.272659,-0.001 1.435029,-0.7643 1.723649,-1.13122 0.18723,-0.23801 0.100309,-0.35196 -0.197731,-0.2592 -0.183078,0.057 -0.184539,0.0532 -0.0416,-0.10704 0.171709,-0.19248 0.187827,-0.27975 0.0517,-0.27975 -0.0531,0 -0.1388,-0.0578 -0.1905,-0.12838 -0.0802,-0.10953 -0.156152,-0.0747 -0.51734,0.23754 -0.23283,0.20126 -0.565581,0.45225 -0.739441,0.55776 -0.173861,0.10551 -0.384138,0.27832 -0.467278,0.38402 -0.0831,0.10569 -0.236162,0.23766 -0.340051,0.29326 -0.316881,0.16959 -0.217842,0.38677 0.192109,0.42129 0.0466,0.004 0.151342,-0.0435 0.232831,-0.10535 z m -14.43863,-0.27387 c 0.0455,-0.13864 -0.175631,-0.19909 -0.52235,-0.14283 -0.248961,0.0404 -0.28469,0.0702 -0.20263,0.16909 0.1161,0.13989 0.67715,0.11956 0.72498,-0.0263 z m 14.078799,-0.41623 c 0,-0.0345 -0.621339,0.0582 -0.669919,0.0999 -0.01921,0.0165 0.01,0.1287 0.065,0.24934 l 0.0999,0.21935 0.252479,-0.27028 c 0.138861,-0.14865 0.252481,-0.2829 0.252481,-0.29833 z m -11.563179,0.4045 c -0.05,-0.0342 -0.11544,-0.12888 -0.14551,-0.21037 -0.0612,-0.1658 -0.19102,-0.19396 -0.27415,-0.0594 -0.10191,0.16489 0.0381,0.33462 0.27501,0.33332 0.12952,-7.2e-4 0.19462,-0.0293 0.14465,-0.0635 z m 4.15484,-0.15277 c 0,-0.18354 -0.26736,-0.2686 -0.4066,-0.12936 -0.0666,0.0666 -0.0464,0.12692 0.0725,0.21674 0.20605,0.15562 0.33411,0.12212 0.33411,-0.0874 z m -4.89922,-0.16279 c 0.16225,-0.16224 0.078,-0.29698 -0.185771,-0.29698 -0.143969,0 -0.206669,0.0471 -0.206669,0.15522 0,0.28493 0.18312,0.35108 0.39244,0.14176 z m 8.07422,-0.27635 c 0,-0.0244 -0.0667,-0.0949 -0.14816,-0.15677 -0.13758,-0.10443 -0.13491,-0.11267 0.0373,-0.11517 0.19391,-0.003 0.3311,-0.13055 0.21637,-0.20146 -0.0366,-0.0226 -0.34203,-0.0683 -0.67872,-0.10146 -0.50689,-0.0499 -0.61215,-0.0391 -0.61215,0.0629 0,0.17471 0.35718,0.48817 0.6451,0.56612 0.23824,0.0645 0.54023,0.0342 0.54023,-0.0541 z m 4.445001,-0.18368 c 0.69097,-0.266 0.94738,-0.41966 1.221748,-0.73214 0.142962,-0.16282 0.259921,-0.32646 0.259921,-0.36364 0,-0.17291 -0.13426,-0.16524 -0.332801,0.019 -0.29002,0.26916 -0.684239,0.51537 -0.678979,0.42405 0.0021,-0.0403 0.19223,-0.22564 0.422029,-0.41191 0.420211,-0.34059 0.481341,-0.48525 0.22601,-0.53477 -0.175329,-0.034 -1.794169,1.54254 -1.71517,1.67037 0.0755,0.12219 0.104341,0.11877 0.597242,-0.071 z m -24.429611,-0.42348 c 0.048,-0.0898 0.0644,-0.22311 0.0363,-0.29634 -0.0382,-0.0996 0.003,-0.13313 0.164641,-0.13313 0.295589,0 0.36053,-0.14568 0.163189,-0.3661 -0.1387,-0.15494 -0.14879,-0.21489 -0.0634,-0.37699 0.0791,-0.15014 0.12091,-0.16885 0.18929,-0.0847 0.0483,0.0594 0.101419,0.18113 0.11807,0.2704 0.0367,0.19653 0.241949,0.2852 0.241949,0.1045 0,-0.0706 0.1143,-0.20967 0.254,-0.30915 0.1397,-0.0995 0.254,-0.22289 0.254,-0.27427 0,-0.0514 0.0623,-0.16228 0.13852,-0.24646 0.16437,-0.18163 0.106331,-0.21376 -0.477189,-0.2642 -0.20955,-0.0181 -0.440231,-0.0597 -0.512621,-0.0924 -0.167949,-0.0759 -0.61937,0.22761 -0.95016,0.63871 l -0.25082,0.31172 0.1989,0.64078 c 0.20075,0.6467 0.33542,0.77652 0.495421,0.47757 z m -0.150781,-1.38197 c 0.0275,-0.19335 0.40806,-0.33704 0.40806,-0.15406 0,0.0498 -0.0572,0.0906 -0.127,0.0906 -0.0698,0 -0.127,0.0572 -0.127,0.127 0,0.0699 -0.0408,0.127 -0.0906,0.127 -0.0498,0 -0.0784,-0.0857 -0.0635,-0.1905 z m 20.812731,1.33921 c 0,-0.13806 -0.29179,-0.25635 -0.42669,-0.17297 -0.128,0.0791 0.0677,0.29426 0.26772,0.29426 0.0874,0 0.15897,-0.0546 0.15897,-0.12129 z m -17.32087,-0.0375 c 0.0252,-0.0408 -0.0693,-0.23291 -0.20989,-0.42704 -0.25123,-0.34681 -0.25231,-0.35266 -0.062,-0.33607 0.10654,0.009 0.28761,0.011 0.40236,0.004 0.18219,-0.0115 0.192919,-0.0285 0.0847,-0.13378 -0.10748,-0.10457 -1.514011,-0.72605 -1.64319,-0.72605 -0.0259,0 -0.0471,0.0743 -0.0471,0.16513 0,0.0908 -0.0605,0.199 -0.134541,0.24041 -0.232539,0.13014 0.0759,0.33694 0.600151,0.40245 0.483399,0.0604 0.51485,0.0839 0.385559,0.28829 -0.0654,0.10336 -0.14848,0.0867 -0.52909,-0.10583 -0.453509,-0.22946 -0.80011,-0.30077 -0.703699,-0.14479 0.0865,0.13999 0.808869,0.53373 1.264359,0.68918 0.51566,0.17599 0.534151,0.17863 0.59239,0.0844 z m 17.9982,-0.25551 c 0,-0.18045 -0.17536,-0.27932 -0.32804,-0.18496 -0.14556,0.09 -0.0215,0.34523 0.16777,0.34523 0.10081,0 0.16027,-0.0595 0.16027,-0.16027 z m -21.81734,-1.36554 c 0.131079,-0.18527 0.273949,-0.33686 0.3175,-0.33686 0.1077,0 0.100589,-0.23077 -0.009,-0.29862 -0.11319,-0.07 -0.301559,0.0868 -0.60308,0.50183 -0.27838,0.3832 -0.29617,0.47481 -0.0917,0.47232 0.0815,-9.8e-4 0.25541,-0.1534 0.38649,-0.33867 z m 28.42134,0.0109 c 0,-0.0882 0.0571,-0.18221 0.127,-0.20901 0.212561,-0.0816 0.14482,-0.25531 -0.25101,-0.64379 -0.31895,-0.31302 -0.386781,-0.34818 -0.434049,-0.22499 -0.0353,0.0919 0.01069,0.21701 0.124018,0.33766 0.099,0.10541 0.17962,0.2273 0.179102,0.27086 -5.3e-4,0.0436 -0.0985,-0.0446 -0.2178,-0.19596 -0.229291,-0.29093 -0.458592,-0.3632 -0.458592,-0.14454 0,0.13914 0.73515,0.97004 0.85825,0.97004 0.0402,0 0.0731,-0.0721 0.0731,-0.16027 z m -28.75482,-0.34493 c 0.23637,-0.23985 0.311799,-0.37564 0.269619,-0.4854 -0.0502,-0.13064 -0.11217,-0.0957 -0.43401,0.24484 -0.206499,0.21848 -0.37546,0.43756 -0.37546,0.48684 0,0.17923 0.21896,0.0794 0.539851,-0.24628 z m -0.456851,-0.15096 c -0.003,-0.11002 -0.87671,-1.14123 -1.11878,-1.32029 -0.2614,-0.19337 -0.38325,-0.14151 -0.26868,0.11435 0.10784,0.24085 1.14335,1.26944 1.27798,1.26944 0.0611,0 0.1104,-0.0286 0.10948,-0.0635 z m 0.34034,-0.44189 c 0,-0.11658 -1.26849,-1.21769 -1.33089,-1.15528 -0.0742,0.0742 1.169511,1.32707 1.261101,1.27047 0.0384,-0.0237 0.0698,-0.0756 0.0698,-0.11519 z m 29.799172,-0.45758 c 0.644408,-0.62906 0.799549,-0.94255 0.332388,-0.67165 -0.27835,0.1614 -1.17556,1.10163 -1.17556,1.23192 0,0.17497 0.28185,-0.0123 0.843172,-0.56027 z M 38.083212,154.5505 c 0.26188,-0.206 0.30143,-0.61362 0.083,-0.85503 -0.34267,-0.37864 -1.13227,-0.005 -1.01096,0.47811 0.0463,0.18447 0.47975,0.55103 0.65283,0.55208 0.0286,1.7e-4 0.15247,-0.0786 0.27517,-0.17516 z m 33.27829,-0.52262 c 0.146722,-0.41653 -0.42187,-0.91265 -0.784098,-0.68416 -0.331161,0.20889 -0.323991,0.91083 0.01061,1.0373 0.26801,0.10131 0.67962,-0.0866 0.77351,-0.35314 z m -0.68444,-0.0281 c -0.0483,-0.12597 0.178972,-0.44959 0.259342,-0.36922 0.02061,0.0206 0.0637,0.14216 0.0959,0.27013 0.0501,0.19947 0.0326,0.23266 -0.12278,0.23266 -0.0996,0 -0.204229,-0.0601 -0.232418,-0.13357 z m -7.521099,15.88157 c -0.0288,-0.0466 -0.0142,-0.0847 0.0323,-0.0847 0.0466,0 0.10821,0.0381 0.13699,0.0847 0.0288,0.0466 0.0142,0.0847 -0.0323,0.0847 -0.0466,0 -0.10821,-0.0381 -0.13699,-0.0847 z m -1.08925,-0.34481 c -0.21308,-0.16762 -0.30338,-0.41719 -0.15094,-0.41719 0.1191,0 0.63185,0.373 0.66922,0.48683 0.0551,0.16794 -0.27214,0.12396 -0.51828,-0.0696 z m 0.42603,-8.1783 c -0.0801,-0.0801 -0.0702,-0.45156 0.012,-0.45156 0.1668,0 0.3791,0.23801 0.32893,0.36876 -0.0542,0.14122 -0.23793,0.18584 -0.34097,0.0828 z m -1.86267,-0.254 c -0.11096,-0.11096 -0.0538,-0.47724 0.0917,-0.5877 0.20294,-0.15405 0.27517,-0.14498 0.27517,0.0345 0,0.0838 0.0457,0.19812 0.1016,0.254 0.079,0.079 0.069,0.1016 -0.045,0.1016 -0.0806,0 -0.16852,0.0572 -0.19532,0.127 -0.0521,0.13583 -0.13674,0.16199 -0.22818,0.0706 z m -14.04694,-1.35646 c -0.12832,-0.0336 -0.117341,-0.0692 0.0845,-0.27398 0.2072,-0.21024 0.24303,-0.2209 0.335309,-0.0998 0.0568,0.0746 0.104521,0.20232 0.106,0.28381 0.003,0.14756 -0.183699,0.17944 -0.525799,0.0899 z m 3.39129,-0.84627 c 0.0611,-0.0245 0.13414,-0.0215 0.16228,0.007 0.0281,0.0281 -0.0219,0.0481 -0.11113,0.0445 -0.0986,-0.004 -0.11869,-0.0241 -0.0512,-0.0511 z"
       id="path2982"
       inkscape:connector-curvature="0" />
  </g>
</svg>
