<?xml version="1.0" encoding="UTF-8" standalone="no"?>
<!-- Created with Inkscape (http://www.inkscape.org/) -->

<svg
   xmlns:dc="http://purl.org/dc/elements/1.1/"
   xmlns:cc="http://creativecommons.org/ns#"
   xmlns:rdf="http://www.w3.org/1999/02/22-rdf-syntax-ns#"
   xmlns:svg="http://www.w3.org/2000/svg"
   xmlns="http://www.w3.org/2000/svg"
   xmlns:sodipodi="http://sodipodi.sourceforge.net/DTD/sodipodi-0.dtd"
   xmlns:inkscape="http://www.inkscape.org/namespaces/inkscape"
   width="28.821508mm"
   height="29.13899mm"
   viewBox="0 0 28.821508 29.13899"
   version="1.1"
   id="svg912"
   inkscape:version="0.92.3 (2405546, 2018-03-11)"
   sodipodi:docname="school_sewing_T.svg">
  <defs
     id="defs906" />
  <sodipodi:namedview
     id="base"
     pagecolor="#ffffff"
     bordercolor="#666666"
     borderopacity="1.0"
     inkscape:pageopacity="0.0"
     inkscape:pageshadow="2"
     inkscape:zoom="4.8600356"
     inkscape:cx="43.877592"
     inkscape:cy="55.374458"
     inkscape:document-units="mm"
     inkscape:current-layer="layer1"
     showgrid="false"
     fit-margin-top="0"
     fit-margin-left="0"
     fit-margin-right="0"
     fit-margin-bottom="0"
     inkscape:window-width="1053"
     inkscape:window-height="747"
     inkscape:window-x="100"
     inkscape:window-y="53"
     inkscape:window-maximized="0" />
  <metadata
     id="metadata909">
    <rdf:RDF>
      <cc:Work
         rdf:about="">
        <dc:format>image/svg+xml</dc:format>
        <dc:type
           rdf:resource="http://purl.org/dc/dcmitype/StillImage" />
        <dc:title></dc:title>
      </cc:Work>
    </rdf:RDF>
  </metadata>
  <g
     inkscape:label="Layer 1"
     inkscape:groupmode="layer"
     id="layer1"
     transform="translate(-138.5432,-114.96793)">
    <path
       style="fill:#000000;stroke-width:0.08466667"
       d="m 156.1343,144.07068 c -0.1397,-0.0185 -0.45355,-0.0899 -0.69745,-0.15871 -0.3994,-0.11259 -0.48603,-0.11109 -0.87193,0.0151 -0.33019,0.10799 -0.56831,0.12594 -1.03821,0.0782 -0.33536,-0.0341 -0.97925,-0.0548 -1.43087,-0.046 -0.65844,0.0127 -0.87218,-0.0143 -1.07873,-0.13629 -0.24909,-0.14714 -0.27368,-0.14669 -0.7452,0.0138 -0.35189,0.11977 -0.71543,0.16596 -1.30616,0.16596 -0.74975,0 -0.83693,-0.0172 -1.03717,-0.20526 -0.29437,-0.27639 -0.28868,-0.61666 0.0142,-0.85093 0.12806,-0.099 0.48049,-0.34281 0.78317,-0.54173 1.17773,-0.77398 1.41182,-0.95029 1.8415,-1.38694 0.24448,-0.24844 0.4445,-0.49463 0.4445,-0.54709 0,-0.0525 0.0519,-0.15553 0.11525,-0.22905 0.0634,-0.0735 0.18223,-0.38677 0.26412,-0.69613 0.14212,-0.53694 0.1421,-0.57537 -3.4e-4,-0.84667 -0.25785,-0.4911 -0.29428,-0.57335 -0.45489,-1.02691 -0.19964,-0.5638 -0.36896,-1.70344 -0.31378,-2.11199 0.0852,-0.6306 0.23311,-1.35965 0.30326,-1.49449 0.0395,-0.076 0.15337,-0.34769 0.25299,-0.60381 0.0996,-0.25611 0.21459,-0.54186 0.25549,-0.635 0.0409,-0.0931 0.0911,-1.91881 0.11147,-4.05706 l 0.0371,-3.88774 -0.18779,-0.17626 c -0.26647,-0.25011 -0.29895,-0.40531 -0.1255,-0.5996 0.16521,-0.18506 0.24032,-0.61551 0.13667,-0.78322 -0.036,-0.0582 -0.20601,-0.10662 -0.37788,-0.10764 -0.48477,-0.003 -0.99776,-0.27187 -1.06868,-0.56035 -0.0327,-0.13317 -0.13413,-0.31833 -0.22532,-0.41146 -0.26033,-0.26587 -0.75417,-0.95427 -0.75417,-1.0513 0,-0.0483 -0.0972,-0.15146 -0.21592,-0.22927 -0.11875,-0.0778 -0.19651,-0.19206 -0.17279,-0.25388 0.10033,-0.26143 -0.20103,-0.70488 -0.62502,-0.91973 l -0.41969,-0.21268 -0.40512,0.15826 c -0.32616,0.12741 -0.60316,0.15523 -1.42113,0.1427 -0.5588,-0.009 -1.07315,-0.039 -1.143,-0.0676 -0.0699,-0.0286 -0.34548,-0.0674 -0.61252,-0.0861 -0.2928,-0.0206 -0.5473,-0.09 -0.64117,-0.17496 -0.0856,-0.0775 -0.49577,-0.21547 -0.91148,-0.30662 -1.05897,-0.23221 -1.50492,-0.35485 -1.59826,-0.43953 -0.0442,-0.0401 -0.13478,-0.073 -0.20119,-0.073 -0.0664,0 -0.34989,-0.11643 -0.62994,-0.25874 -1.09304,-0.55544 -1.43177,-0.97441 -1.43936,-1.78029 -0.006,-0.67052 0.1514,-0.8759 1.00241,-1.3053 l 0.67118,-0.33867 1.10067,0.004 c 1.42806,0.005 1.90918,0.1238 2.24923,0.55315 0.14045,0.17733 0.32241,0.3437 0.40435,0.36971 0.0819,0.026 0.19478,0.17393 0.25075,0.32872 0.13695,0.37873 0.42878,0.63691 0.78274,0.69249 0.21705,0.0341 0.24868,0.0261 0.12293,-0.031 -0.26844,-0.12196 -0.49178,-0.41475 -0.43307,-0.56774 0.0292,-0.0762 -0.0119,-0.32162 -0.0914,-0.54547 -0.1236,-0.34802 -0.12761,-0.42741 -0.0277,-0.54783 0.0982,-0.11825 0.21498,-0.13162 0.72915,-0.0834 0.5101,0.0478 0.6559,0.0316 0.87365,-0.097 l 0.26137,-0.1544 0.42769,0.42032 c 0.35921,0.35302 0.42404,0.46366 0.40485,0.69095 -0.0126,0.14884 -0.002,0.29193 0.0245,0.31796 0.026,0.026 0.36072,-0.16242 0.74374,-0.41879 0.38302,-0.25637 0.73583,-0.46613 0.78402,-0.46613 0.0482,0 0.20767,-0.0528 0.35441,-0.11727 0.81607,-0.35871 2.32894,-0.48303 3.23013,-0.26542 0.2794,0.0675 0.6182,0.12402 0.75288,0.12567 0.13469,0.002 0.5632,0.13974 0.95225,0.30684 0.76795,0.32984 0.64658,0.32541 2.1472,0.0784 0.39582,-0.0652 1.04352,-0.15944 1.43934,-0.2095 0.39581,-0.0501 1.11971,-0.14376 1.60866,-0.2082 1.62846,-0.21465 4.44638,-0.12537 5.13585,0.16271 0.2729,0.11403 0.32411,0.11199 0.55069,-0.0219 l 0.24981,-0.14757 0.36996,0.42328 c 0.32549,0.3724 0.38851,0.4105 0.52433,0.31691 0.0849,-0.0585 0.20808,-0.13159 0.27374,-0.16242 0.15354,-0.0721 0.48179,0.33246 0.55116,0.67928 0.0284,0.14229 0.12735,0.33919 0.21976,0.43756 0.20493,0.21814 0.2418,0.75444 0.0754,1.09662 -0.0654,0.1346 -0.27998,0.32947 -0.47673,0.43304 -0.19675,0.10357 -0.42517,0.25576 -0.50761,0.3382 -0.33662,0.33662 -1.17862,0.62012 -2.36418,0.79603 -0.64524,0.0957 -1.34461,0.21784 -1.55416,0.27135 -0.5458,0.13939 -3.56447,0.13515 -4.12722,-0.006 -0.33383,-0.0836 -0.51022,-0.0883 -0.70978,-0.0187 -0.20841,0.0727 -0.34966,0.0637 -0.65644,-0.0417 -0.6213,-0.21342 -1.48273,-0.0642 -1.93606,0.33547 -0.17622,0.15535 -0.1905,0.239 -0.1905,1.11647 0,0.70303 0.0302,0.97363 0.1168,1.04548 0.12304,0.10211 0.16395,0.25225 0.34836,1.27846 0.0628,0.34925 0.16955,0.8302 0.23732,1.06878 0.0948,0.33375 0.10859,0.65241 0.0598,1.38197 -0.0349,0.5215 -0.10633,0.99115 -0.15884,1.04365 -0.0525,0.0525 -0.0955,0.14985 -0.0955,0.21631 0,0.14532 -0.45086,1.08775 -0.7844,1.63959 l -0.24012,0.39729 0.005,5.34388 c 0.004,4.44475 0.0249,5.3822 0.12483,5.5717 0.28959,0.54909 0.98545,1.2721 1.70301,1.76946 0.41709,0.28909 0.91969,0.64228 1.11689,0.78487 1.09961,0.7951 0.53246,1.50545 -1.03588,1.29744 z m -6.05366,-0.43036 c 0.20955,-0.0746 0.46258,-0.18713 0.56228,-0.25012 0.16026,-0.10124 0.21773,-0.0898 0.49535,0.0986 0.43704,0.29659 0.81899,0.35229 1.26019,0.18379 0.32807,-0.12529 0.39296,-0.12627 0.67097,-0.0101 0.44887,0.18755 1.22724,0.16698 1.54087,-0.0407 0.31656,-0.20965 0.46157,-0.21116 0.86523,-0.009 0.17606,0.0882 0.52932,0.1827 0.78503,0.21009 0.45045,0.0483 0.45739,0.0459 0.22315,-0.0756 -0.13297,-0.069 -0.3042,-0.12542 -0.38052,-0.12542 -0.24934,0 -0.96714,-0.58143 -1.93739,-1.56931 -0.90766,-0.92418 -1.17072,-1.10157 -0.7683,-0.5181 0.10132,0.14689 0.38512,0.48127 0.63067,0.74308 0.76694,0.81769 0.69721,1.21733 -0.21241,1.21733 -0.27068,0 -0.59453,-0.0548 -0.71965,-0.12175 -0.18412,-0.0985 -0.28053,-0.10258 -0.50566,-0.0212 -0.45453,0.16436 -1.04258,0.12849 -1.24715,-0.0761 -0.26607,-0.26607 -0.1493,-0.55308 0.46201,-1.13566 0.70222,-0.66921 0.79016,-0.78827 0.85992,-1.16417 0.0774,-0.41733 -0.12235,-0.43637 -0.29984,-0.0286 -0.14589,0.3352 -1.2077,1.47235 -1.84567,1.97664 -0.7,0.55332 -1.8073,0.88742 -2.07011,0.6246 -0.16831,-0.16831 0.13962,-0.49537 0.69969,-0.74316 0.40182,-0.17777 1.31279,-0.85929 1.81613,-1.35868 0.56988,-0.56541 1.0217,-1.31482 0.96292,-1.59714 -0.051,-0.24495 -0.18143,-0.1359 -0.36946,0.30888 -0.2442,0.57768 -1.11426,1.45649 -2.06307,2.08381 -1.37349,0.90811 -1.64264,1.19819 -1.34135,1.44564 0.25527,0.20965 1.27404,0.18447 1.92617,-0.0476 z m 7.28133,-0.187 c 0,-0.22274 -0.0815,-0.29536 -0.8255,-0.73591 -0.58042,-0.34367 -1.05368,-0.71559 -1.59407,-1.25273 -1.12466,-1.11789 -1.08799,-0.96819 -1.09972,-4.48927 -0.0155,-4.65591 0.0977,-9.19529 0.23174,-9.28946 0.0881,-0.0619 0.0896,-0.0884 0.007,-0.12204 -0.0734,-0.0298 -0.10584,-0.2719 -0.10584,-0.79096 0,-0.80513 -0.0431,-1.01587 -0.20799,-1.01587 -0.14146,0 -0.22444,2.92075 -0.2622,9.22866 -0.0281,4.69062 -0.0231,4.88002 0.13586,5.18844 0.0907,0.17606 0.165,0.36165 0.165,0.41243 0,0.11272 -1.16112,-0.95536 -1.397,-1.28505 -0.90831,-1.26959 -0.94487,-1.34821 -1.23406,-2.6535 -0.1232,-0.55605 -0.0168,-1.77012 0.21374,-2.43932 0.0681,-0.19766 0.10738,-0.37583 0.0873,-0.39592 -0.0913,-0.0914 -0.28666,0.19784 -0.33771,0.50002 -0.031,0.18334 -0.0911,0.35485 -0.13362,0.38112 -0.1085,0.0671 -0.0958,1.95608 0.0159,2.36612 0.17617,0.64664 0.73968,1.80629 1.15199,2.37066 0.17009,0.23284 0.52149,0.60562 0.78087,0.8284 0.25938,0.22279 0.72313,0.62377 1.03056,0.89106 0.55816,0.48531 1.90162,1.46748 2.34125,1.71164 0.37084,0.20595 0.73577,0.453 0.7965,0.53921 0.0308,0.0438 0.0218,0.16951 -0.02,0.27946 -0.069,0.18137 -0.0604,0.19156 0.0921,0.10992 0.10877,-0.0582 0.16812,-0.17722 0.16812,-0.33711 z m -7.78933,-0.2999 c 0,-0.17727 -0.22833,-0.25105 -0.38208,-0.12345 -0.19563,0.16236 -0.14971,0.25311 0.12808,0.25311 0.17164,0 0.254,-0.042 0.254,-0.12966 z m 4.52776,-0.048 c 0.0961,-0.0941 0.1025,-0.0841 -0.58773,-0.91086 -0.28027,-0.33569 -0.57224,-0.60482 -0.65616,-0.60482 -0.0832,0 -0.15121,0.0336 -0.15121,0.0747 0,0.0411 -0.2286,0.30613 -0.508,0.58903 -0.61601,0.6237 -0.66446,0.86029 -0.17619,0.86029 0.18249,0 0.43967,-0.0611 0.5715,-0.13583 0.22845,-0.12947 0.25757,-0.12544 0.62069,0.0858 0.37676,0.21913 0.69078,0.23391 0.8871,0.0418 z m -1.05643,-8.62768 c 0,-4.00686 -0.0224,-5.08027 -0.10583,-5.08129 -0.0814,-10e-4 -0.0823,-0.0163 -0.004,-0.0662 0.10502,-0.0668 0.2233,-3.40157 0.1329,-3.74724 -0.0237,-0.0906 -0.11481,-0.16463 -0.20251,-0.16463 -0.15227,0 -0.15932,0.10214 -0.15647,2.26483 0.002,1.24566 -0.0164,3.42689 -0.0401,4.84717 -0.0237,1.42028 -0.0479,3.5264 -0.0537,4.68025 -0.0108,2.13542 0.0174,2.34708 0.31281,2.34708 0.0978,0 0.11663,-0.82157 0.11663,-5.08 z m -0.92694,2.39184 c 0.009,-0.78 0.0273,-2.54212 0.0397,-3.91584 0.0124,-1.37371 0.0278,-2.57386 0.0342,-2.667 0.006,-0.0931 0.0121,-1.23026 0.0126,-2.52695 9.8e-4,-2.27448 -0.0308,-2.59538 -0.25726,-2.59538 -0.0335,0 -0.0709,1.11442 -0.083,2.4765 -0.0121,1.36207 -0.0342,2.95275 -0.049,3.53483 -0.0571,2.2431 -0.0558,6.65727 0.002,6.87917 0.0334,0.12806 0.11082,0.23283 0.17213,0.23283 0.0871,0 0.11522,-0.31044 0.12856,-1.41816 z m 2.39642,-8.46667 c 0.17063,-0.33342 0.51643,-1.25076 0.68944,-1.82893 0.19509,-0.65196 0.14146,-1.54963 -0.12623,-2.11316 -0.1064,-0.224 -0.21708,-0.62405 -0.24594,-0.889 -0.0501,-0.45948 -0.0629,-0.48067 -0.27704,-0.45856 l -0.22455,0.0232 0.0136,-1.20851 c 0.0128,-1.14174 0.005,-1.20852 -0.14966,-1.20852 -0.17723,0 -0.25169,0.18934 -0.37456,0.9525 -0.0807,0.50123 0.0319,0.61806 0.12376,0.12841 0.0895,-0.47717 0.19079,-0.10344 0.13712,0.50602 -0.0554,0.62896 0.10372,1.60833 0.41339,2.54457 0.34349,1.03852 0.42039,1.66989 0.28386,2.3306 -0.11457,0.55442 -0.32163,1.07074 -0.46492,1.1593 -0.10706,0.0662 -0.10699,0.29493 8e-5,0.29493 0.0454,0 0.13611,-0.10477 0.20165,-0.23283 z m -0.0219,-1.107 c 0.0644,-0.31484 -0.0137,-0.77813 -0.13532,-0.80232 -0.0479,-0.01 -0.0956,0.23476 -0.10987,0.56306 -0.0191,0.4401 7.7e-4,0.57125 0.0825,0.54401 0.0592,-0.0197 0.13246,-0.15689 0.1627,-0.30475 z m -0.34696,-1.78852 c 0,-0.13241 -0.5181,-0.47469 -1.03613,-0.68451 -0.53388,-0.21624 -0.5611,-0.30283 -0.0822,-0.26157 0.33077,0.0285 0.71792,0.19516 0.98215,0.42281 0.15382,0.13252 0.15796,0.1261 0.10508,-0.16312 -0.11706,-0.64019 -0.75444,-1.5279 -1.32884,-1.85073 -0.41026,-0.23058 -1.23043,-0.51519 -1.48462,-0.51519 -0.19028,0 -0.34832,-0.13731 -0.25987,-0.22577 0.0248,-0.0248 0.31441,0.009 0.64348,0.075 0.32907,0.0661 0.59831,0.0902 0.59831,0.0536 0,-0.14117 -1.32768,-1.32507 -1.93659,-1.72687 -0.254,-0.1676 -0.45586,-0.23694 -0.64292,-0.22082 -0.21041,0.0181 -0.30345,-0.0235 -0.40746,-0.18222 -0.14246,-0.21742 -0.45279,-0.34789 -0.53007,-0.22285 -0.0252,0.0408 0.0219,0.19917 0.10479,0.35188 0.0829,0.15271 0.15124,0.33235 0.15193,0.3992 7.7e-4,0.0738 0.15958,0.16193 0.40405,0.2243 0.56663,0.14454 1.20527,0.47721 1.20527,0.62782 0,0.0975 -0.10818,0.127 -0.46567,0.127 -0.35302,0 -0.46566,0.0301 -0.46566,0.12432 0,0.0791 0.1339,0.1508 0.36801,0.1971 0.36399,0.072 0.36742,0.076 0.31346,0.36362 -0.0714,0.38068 0.0385,0.42302 1.16544,0.44868 0.40662,0.009 0.40752,0.01 0.381,0.2823 -0.0263,0.26972 -0.021,0.27393 0.43385,0.34766 0.50148,0.0813 1.1378,0.42842 1.08222,0.59038 -0.0348,0.10138 -0.15928,0.1028 -0.94998,0.0108 -0.73296,-0.0853 -1.19616,0.24316 -0.57127,0.40508 0.20358,0.0528 0.26998,0.12136 0.29057,0.30022 0.0248,0.21543 0.0598,0.23485 0.49482,0.27418 0.27612,0.025 0.64075,0.13491 0.889,0.26804 0.47165,0.25293 0.54788,0.27514 0.54788,0.15961 z m -2.05493,-1.7488 c -0.0281,-0.0281 -0.10116,-0.0311 -0.16228,-0.007 -0.0675,0.027 -0.0475,0.0471 0.0511,0.0512 0.0893,0.004 0.13926,-0.0163 0.11113,-0.0445 z m 1.71626,-0.66851 c 0,-0.12945 -0.0482,-0.21167 -0.12402,-0.21167 -0.31331,0 -0.49931,-1.16975 -0.2723,-1.71243 0.13137,-0.31404 0.13086,-0.3162 -0.11687,-0.4926 -0.2082,-0.14825 -0.24881,-0.23565 -0.24881,-0.53547 0,-0.4318 -0.11196,-0.5615 -0.48469,-0.5615 -0.22885,0 -0.29832,0.0436 -0.37143,0.23283 -0.10847,0.28084 -0.0383,0.89797 0.12922,1.1372 0.12286,0.1754 0.0965,0.40797 -0.0462,0.40797 -0.0427,0 -0.44694,-0.38472 -0.89826,-0.85493 l -0.82058,-0.85493 -0.1904,0.23878 -0.1904,0.23879 0.18114,0.19281 c 0.0996,0.10605 0.22422,0.19281 0.27688,0.19281 0.0527,0 0.48122,0.3429 0.95235,0.762 0.47113,0.4191 0.90853,0.762 0.97199,0.762 0.092,0 0.10845,-0.17269 0.0811,-0.85348 -0.048,-1.19448 0.10224,-1.26158 0.23051,-0.10296 0.12319,1.11281 0.21569,1.42473 0.52929,1.78489 0.13319,0.15296 0.24216,0.31489 0.24216,0.35983 0,0.045 0.0381,0.0817 0.0847,0.0817 0.0466,0 0.0847,-0.0952 0.0847,-0.21166 z m -3.58384,-3.66722 c 0.69037,-1.1012 0.78984,-1.21068 0.78984,-0.86937 0,0.24312 0.0898,0.43025 0.20647,0.43025 0.057,0 0.23392,-0.1944 0.39311,-0.43201 0.15918,-0.23761 0.32699,-0.48473 0.37291,-0.54916 0.0601,-0.0843 0.0315,-0.16908 -0.10173,-0.30236 -0.18519,-0.1852 -0.18526,-0.1852 -0.54915,-0.0247 -0.44061,0.19432 -1.18335,0.65526 -1.30975,0.81281 -0.0505,0.0629 -0.12108,0.20967 -0.15687,0.32609 -0.0358,0.11642 -0.15474,0.35378 -0.26436,0.52748 -0.22262,0.35278 -0.24509,0.49353 -0.10166,0.63696 0.1557,0.1557 0.38662,-0.0223 0.72119,-0.55599 z m -3.42219,0.0947 c 0.12813,-0.0259 0.39483,-0.18875 0.59266,-0.36197 0.42976,-0.3763 0.71415,-0.5369 0.82712,-0.46708 0.1356,0.0838 0.0958,0.17508 -0.12875,0.29525 -0.28442,0.15222 -0.26707,0.30642 0.0414,0.36812 0.27379,0.0548 0.50892,-0.002 0.50892,-0.12318 0,-0.0416 0.0572,-0.0756 0.127,-0.0756 0.079,0 0.127,0.08 0.127,0.21166 0,0.11642 0.0406,0.21167 0.0902,0.21167 0.20602,0 0.41776,-0.18823 0.41776,-0.37137 0,-0.10784 0.0952,-0.37522 0.21167,-0.59417 0.11642,-0.21895 0.21167,-0.41512 0.21167,-0.43594 0,-0.0718 -0.24921,-0.0375 -0.61088,0.0842 -0.19953,0.0671 -0.62949,0.14251 -0.95546,0.16749 -0.32596,0.025 -0.85936,0.0827 -1.18533,0.12825 -1.45753,0.20369 -4.40506,0.34653 -4.6047,0.22314 -0.0454,-0.0281 -0.10535,-0.0142 -0.13315,0.0307 -0.0527,0.0852 0.23966,0.2846 0.3117,0.21256 0.0733,-0.0734 0.95065,0.14715 1.09658,0.27561 0.11852,0.10432 0.21894,0.10877 0.61236,0.0271 0.25883,-0.0537 0.49255,-0.13323 0.5194,-0.17666 0.11149,-0.18041 0.21896,-0.067 0.16581,0.17503 -0.0487,0.22157 -0.0322,0.254 0.12868,0.254 0.10145,0 0.39976,-0.13139 0.66289,-0.29197 0.53646,-0.32739 0.8988,-0.44249 0.97989,-0.31128 0.0299,0.0483 -0.0437,0.15203 -0.16353,0.23052 -0.11979,0.0785 -0.25879,0.21929 -0.30888,0.31289 -0.079,0.14763 -0.0701,0.16208 0.0669,0.10908 0.0869,-0.0336 0.26286,-0.0822 0.39099,-0.10811 z m 14.84189,0.0521 c 0.0725,-0.1173 -0.31856,-0.50122 -0.51053,-0.50122 -0.0987,0 -0.22428,-0.0448 -0.27906,-0.0996 -0.0764,-0.0763 -0.13465,-0.0687 -0.24977,0.0329 -0.22901,0.20209 -0.6535,0.26767 -0.77613,0.11991 -0.084,-0.10123 -0.0673,-0.13438 0.0923,-0.18283 0.24612,-0.0747 0.57596,-0.3726 0.57596,-0.52015 0,-0.15716 -0.0967,-0.1422 -0.64312,0.0994 -0.61857,0.27356 -0.82811,0.27947 -0.75007,0.0212 0.0317,-0.10477 0.0884,-0.22371 0.12609,-0.26431 0.0377,-0.0406 0.0484,-0.12633 0.0238,-0.1905 -0.0674,-0.17575 -0.67884,-0.14397 -1.09367,0.0568 -0.56502,0.27352 -0.87672,0.29216 -1.32916,0.0795 -0.5,-0.23503 -0.55055,-0.47494 -0.0803,-0.38127 0.46322,0.0923 0.96545,0.0546 1.18442,-0.0889 0.24786,-0.1624 0.24126,-0.23871 -0.0363,-0.4206 -0.18271,-0.11971 -0.27463,-0.13153 -0.46477,-0.0598 -0.27882,0.10524 -0.57748,0.0475 -0.57748,-0.1117 0,-0.17685 -0.13432,-0.21492 -0.35457,-0.1005 -0.11738,0.061 -0.40845,0.093 -0.69079,0.0761 -0.39924,-0.024 -0.48311,-0.0547 -0.46142,-0.16934 0.0184,-0.0972 0.12984,-0.14743 0.36449,-0.16419 0.18587,-0.0133 0.39216,-0.0432 0.45841,-0.0665 0.20664,-0.0726 -0.20584,-0.29628 -0.50441,-0.27353 -0.17871,0.0136 -0.29256,-0.0275 -0.34732,-0.12531 -0.0533,-0.0951 -0.1859,-0.14558 -0.38291,-0.14558 -0.16956,0 -0.51036,-0.10934 -0.77896,-0.24993 -0.67492,-0.35327 -1.539,-0.62745 -1.6446,-0.52186 -0.0566,0.0566 0.10937,0.17873 0.49883,0.36727 0.7321,0.35441 1.22823,0.66827 1.76892,1.11906 2.10452,1.75463 3.53949,2.51382 4.99533,2.64285 0.2794,0.0248 0.52455,0.0612 0.54478,0.081 0.0679,0.0663 1.27802,0.0128 1.32208,-0.0585 z m -4.49153,-0.24722 c 0.0288,-0.0466 0.13476,-0.0847 0.23551,-0.0847 0.17832,0 0.17766,-0.004 -0.0249,-0.14816 -0.42535,-0.30295 -1.47602,-0.9525 -1.54068,-0.9525 -0.17636,0 -0.02,0.24456 0.46926,0.73377 0.51307,0.51308 0.74693,0.63576 0.86077,0.45156 z m -4.42802,-0.14246 c 0.0326,-0.0174 -0.0245,-0.15923 -0.127,-0.31511 -0.10247,-0.15588 -0.22999,-0.35482 -0.28337,-0.44209 -0.0781,-0.12767 -0.11863,-0.13799 -0.20744,-0.0528 -0.0858,0.0823 -0.0878,0.12841 -0.009,0.20743 0.0559,0.0559 0.1016,0.20066 0.1016,0.32174 0,0.35766 0.19048,0.45957 0.52498,0.28087 z m 10.77802,-0.0723 c 0.34349,-0.13177 0.46567,-0.31014 0.46567,-0.67982 0,-0.47088 -0.35019,-0.79873 -0.85316,-0.79873 -0.27573,0 -0.33217,-0.0288 -0.33217,-0.16934 0,-0.14201 0.0564,-0.16933 0.34984,-0.16933 0.47416,0 0.87008,0.25947 1.03861,0.68067 0.0745,0.18632 0.13555,0.39831 0.13555,0.4711 0,0.21295 0.19896,0.09 0.36481,-0.22548 0.11231,-0.21362 0.14152,-0.40417 0.10954,-0.71462 -0.0393,-0.38192 -0.0875,-0.46254 -0.49182,-0.82404 -0.50281,-0.44953 -0.94862,-0.63295 -1.7087,-0.703 -0.64225,-0.0592 -0.87579,0.0537 -0.55983,0.27055 0.11641,0.0799 0.33549,0.2742 0.48683,0.43175 0.42906,0.44667 0.33384,0.72005 -0.12506,0.35907 -0.27514,-0.21643 -0.71002,-0.21681 -0.96623,-8.6e-4 l -0.19988,0.16848 0.29881,0.2812 c 0.2248,0.21155 0.45548,0.31878 0.93134,0.43291 0.61961,0.14862 1.01352,0.38855 1.01352,0.61735 0,0.20341 -0.24175,0.21564 -0.54596,0.0276 -0.31009,-0.19165 -0.81137,-0.21095 -0.86953,-0.0335 -0.0173,0.0529 0.094,0.14188 0.24748,0.19769 0.27357,0.0995 0.27516,0.10299 0.0814,0.17885 -0.10867,0.0426 -0.18185,0.12505 -0.1626,0.18331 0.0695,0.21048 0.76473,0.22025 1.29152,0.0182 z m 2.24367,-0.35106 c 0.16298,-0.1098 0.46484,-0.31249 0.6708,-0.4504 0.25557,-0.17114 0.40893,-0.35101 0.48302,-0.56651 0.12771,-0.37151 0.1079,-0.41372 -0.12572,-0.26782 -0.24267,0.15155 -0.2922,0.0606 -0.18459,-0.33904 0.10697,-0.39725 0.04,-0.77372 -0.13768,-0.77372 -0.0685,0 -0.21412,0.21441 -0.33055,0.48683 -0.28403,0.66453 -0.33008,0.7367 -0.49019,0.76821 -0.18382,0.0362 -0.18151,-0.22388 0.007,-0.75381 0.14218,-0.40031 0.14143,-0.41635 -0.0302,-0.64637 -0.14509,-0.19447 -0.24496,-0.23796 -0.56913,-0.24783 -0.21624,-0.007 -0.39317,0.0104 -0.39317,0.0378 0,0.0274 0.10478,0.20082 0.23284,0.38547 0.2056,0.29646 0.23626,0.42797 0.2621,1.12437 l 0.0293,0.78864 0.22473,-0.11702 c 0.1236,-0.0643 0.33903,-0.21612 0.47873,-0.33727 0.2243,-0.19449 0.25771,-0.20285 0.28569,-0.0715 0.0445,0.20897 -0.71665,0.84898 -1.27382,1.07109 -0.25943,0.10342 -0.46072,0.23985 -0.47677,0.32315 -0.0252,0.13102 0.0209,0.12781 0.5069,-0.0352 0.29407,-0.0987 0.66802,-0.26924 0.831,-0.37905 z m -10.12231,0.12134 c -0.0375,-0.15134 -0.0722,-0.43986 -0.0771,-0.64115 -0.008,-0.33581 -0.0437,-0.39211 -0.42928,-0.68278 -0.23115,-0.17424 -0.64421,-0.4858 -0.91791,-0.69235 -0.2737,-0.20655 -0.55929,-0.41365 -0.63463,-0.46022 -0.0754,-0.0466 -0.24216,-0.15409 -0.37069,-0.23895 -0.12853,-0.0848 -0.29742,-0.142 -0.37532,-0.127 -0.13142,0.0253 -0.13159,0.0373 -0.002,0.16651 0.22312,0.22312 0.38118,0.74468 0.43044,1.42037 0.0409,0.56067 0.032,0.61448 -0.0822,0.50024 -0.0704,-0.0704 -0.15119,-0.35266 -0.17953,-0.62721 -0.0977,-0.94684 -0.84321,-1.80334 -1.63591,-1.8795 -0.53607,-0.0515 -0.56321,0.11195 -0.0827,0.49808 0.18537,0.14898 0.36035,0.3508 0.38883,0.44849 0.14016,0.48071 0.39466,0.88824 0.57031,0.91324 0.14451,0.0206 0.22288,0.14074 0.35481,0.54404 0.19912,0.6087 0.32715,0.78072 0.69578,0.93481 0.52817,0.22077 0.6036,0.17325 0.56676,-0.3571 -0.018,-0.25904 -0.0904,-0.55327 -0.16079,-0.65384 -0.13645,-0.19482 -0.17613,-0.65318 -0.0565,-0.65318 0.11133,0 0.30507,0.25501 0.56903,0.74899 0.25628,0.47959 1.01417,1.11368 1.33113,1.11368 0.14497,0 0.15745,-0.0351 0.098,-0.27517 z m -9.65943,-0.48736 c 0.1659,-0.15645 -0.35751,-0.28065 -1.21398,-0.28808 l -0.89061,-0.008 -0.0266,0.23066 -0.0266,0.23065 1.04258,-0.0485 c 0.57342,-0.0267 1.07524,-0.0793 1.11517,-0.11698 z m 2.20738,-0.23358 c 0.0475,-0.0294 0.27787,-0.0837 0.51188,-0.12069 0.84664,-0.13391 1.65767,-0.29884 1.7057,-0.34687 0.0849,-0.0849 -0.0556,-0.22967 -0.2229,-0.22967 -0.0882,0 -0.25772,-0.0444 -0.37673,-0.0986 -0.16821,-0.0767 -0.26187,-0.0742 -0.42079,0.0108 -0.11957,0.064 -0.29868,0.0858 -0.43153,0.0524 -0.32685,-0.082 -0.97127,0.0301 -0.97127,0.16901 0,0.0629 0.0773,0.15576 0.17171,0.2063 0.25547,0.13673 0.11622,0.25904 -0.24032,0.21107 -0.17181,-0.0231 -0.44574,-0.0608 -0.60872,-0.0837 -0.99664,-0.14022 -1.18534,-0.14865 -1.18534,-0.053 0,0.0544 0.0667,0.12348 0.14817,0.15344 0.0815,0.03 0.1805,0.10829 0.22002,0.17409 0.0576,0.0959 0.22509,0.10861 0.84279,0.0642 0.42402,-0.0305 0.80981,-0.0795 0.85733,-0.10883 z m -4.80217,-0.18923 c 0.0357,-0.13661 0.12009,-0.17122 0.43657,-0.1791 0.54725,-0.0136 0.59914,-0.0226 0.62418,-0.10788 0.0122,-0.0414 -0.13029,-0.12088 -0.31655,-0.17656 -0.38157,-0.11405 -0.87543,-0.37289 -1.30655,-0.68478 -0.30063,-0.21749 -0.4948,-0.22915 -0.43997,-0.0264 0.0173,0.064 0.0503,0.18309 0.0734,0.26459 0.0656,0.23197 -0.22317,0.18206 -0.31295,-0.0541 -0.20222,-0.53187 -1.17462,-1.28523 -1.38604,-1.07381 -0.0666,0.0666 -0.0401,0.12884 0.0952,0.22366 0.24604,0.17234 0.47957,0.62394 0.37613,0.72738 -0.0487,0.0487 -0.16681,-0.0365 -0.30879,-0.22263 -0.25498,-0.3343 -0.94149,-0.72234 -1.27794,-0.72234 -0.23013,0 -0.63484,0.22211 -0.63484,0.34841 0,0.0412 0.0896,0.0749 0.19904,0.0749 0.36529,0 0.68801,0.16905 0.89138,0.46696 0.20444,0.29947 0.39156,0.37878 0.45371,0.19231 0.0233,-0.0699 0.11031,-0.0429 0.27248,0.0847 0.27814,0.21878 0.45829,0.23535 0.68604,0.0631 0.23782,-0.17987 0.26969,-0.16541 0.46069,0.20898 0.16089,0.31537 0.33866,0.4487 0.33866,0.254 0,-0.18213 0.25646,-0.0715 0.37768,0.1629 0.18127,0.35054 0.62364,0.46186 0.69846,0.17576 z m -0.84331,-0.21873 c -0.0807,-0.0807 -0.24245,0.05 -0.18232,0.14729 0.0357,0.0578 0.0831,0.0564 0.14391,-0.004 0.0498,-0.0498 0.0671,-0.11414 0.0384,-0.14286 z m 18.37881,-0.0683 c 0.015,-0.12741 -0.0316,-0.40442 -0.10351,-0.61558 -0.11486,-0.3371 -0.11597,-0.41947 -0.009,-0.67522 0.11808,-0.2826 0.11532,-0.29371 -0.0925,-0.37273 -0.11781,-0.0448 -0.29745,-0.0806 -0.39919,-0.0796 -0.32235,0.003 -0.90144,0.31733 -0.98363,0.5335 -0.0979,0.25747 -0.53854,0.61779 -0.58501,0.47837 -0.0465,-0.13954 0.14668,-0.50107 0.43542,-0.81483 0.26862,-0.29189 0.28226,-0.27412 -0.31235,-0.40726 -0.2806,-0.0628 -1.44886,0.16622 -1.9715,0.38653 -0.44666,0.18828 -0.42242,0.41398 0.0606,0.56474 0.51093,0.15946 0.6491,0.12973 1.03551,-0.22282 0.36904,-0.3367 0.5696,-0.36977 0.5696,-0.0939 0,0.0869 -0.0476,0.18853 -0.10583,0.22577 -0.0582,0.0372 -0.15706,0.13311 -0.21968,0.21304 -0.0992,0.1266 -0.0828,0.17264 0.127,0.35716 0.27672,0.24338 0.47129,0.27159 0.62185,0.0902 0.15564,-0.18754 0.254,-0.15476 0.254,0.0847 0,0.11642 0.0381,0.21167 0.0847,0.21167 0.11641,0 0.42334,-0.31648 0.42334,-0.43651 0,-0.18709 0.4329,-0.66416 0.60268,-0.66416 0.19425,0 0.17258,0.15564 -0.0958,0.68827 -0.15798,0.31352 -0.10552,0.49707 0.14207,0.49707 0.0589,0 0.14911,0.0785 0.20047,0.17447 0.12303,0.2299 0.28669,0.16724 0.32088,-0.12284 z m -13.34094,-0.4538 c 0.32897,-0.34445 0.73538,-0.97718 0.68254,-1.06267 -0.0253,-0.041 -0.18615,0.0623 -0.35738,0.2295 -0.17123,0.1672 -0.34482,0.304 -0.38576,0.304 -0.25096,0 -0.49903,0.53418 -0.32765,0.70556 0.0944,0.0944 0.15664,0.0661 0.38825,-0.17639 z m -2.90003,0.0704 c 0,-0.0428 -0.13427,-0.16075 -0.29839,-0.26218 -0.16411,-0.10143 -0.35992,-0.30456 -0.43514,-0.4514 -0.1782,-0.34788 -0.27194,-0.40379 -0.5788,-0.34519 -0.58856,0.11239 -0.59546,0.1196 -0.32852,0.34303 0.2814,0.23553 0.77984,0.51115 1.21289,0.67069 0.37246,0.13722 0.42796,0.14306 0.42796,0.0451 z m 6.67098,-0.12482 c 0.17078,-0.16679 -0.007,-0.55934 -0.22683,-0.50177 -0.093,0.0243 -0.29148,-0.0168 -0.44099,-0.0914 -0.34948,-0.17434 -0.47492,-0.171 -0.57462,0.0153 -0.0579,0.10826 -0.0408,0.20124 0.0605,0.32908 0.32364,0.40821 0.89546,0.52857 1.18192,0.24879 z m -11.64045,-0.31719 c -0.12161,-0.12161 -0.23208,-0.16134 -0.33631,-0.12095 -0.1488,0.0577 -0.14843,0.0651 0.009,0.1811 0.0904,0.0665 0.24173,0.12095 0.33631,0.12095 0.17,0 0.1699,-0.002 -0.009,-0.1811 z m 6.6628,-0.1287 c 0,-0.30514 -0.5044,-0.79087 -0.82126,-0.79087 -0.28175,0 -0.45594,-0.13671 -0.39073,-0.30665 0.0293,-0.0764 -0.0168,-0.11668 -0.13361,-0.11668 -0.2663,0 -0.22414,0.24562 0.13604,0.79254 0.24307,0.3691 0.36317,0.47807 0.52916,0.48015 0.11811,0.001 0.28702,0.0574 0.37538,0.12429 0.20285,0.15355 0.30502,0.0923 0.30502,-0.18278 z m 2.286,0.0135 c 0.10073,-0.16299 0.20862,-0.29693 0.23974,-0.29766 0.0311,-7.3e-4 0.2471,-0.17391 0.47993,-0.38484 0.3521,-0.31897 0.3832,-0.3686 0.1848,-0.29493 -0.57435,0.21326 -1.3278,0.84608 -1.3278,1.11521 0,0.25581 0.22542,0.18244 0.42333,-0.13778 z m -1.778,-0.40253 c 0,-0.45237 -0.35047,-0.87009 -0.6124,-0.72991 -0.0904,0.0484 -0.36106,0.0676 -0.60148,0.0426 l -0.43712,-0.0453 0.44658,0.11441 c 0.55144,0.14127 0.6776,0.24308 0.87664,0.70742 0.1866,0.43532 0.32778,0.39687 0.32778,-0.0892 z m 14.60102,0.26194 c 0.28669,-0.13063 0.27331,-0.24041 -0.0293,-0.24041 -0.22836,0 -0.40015,0.17335 -0.28545,0.28805 0.0662,0.0662 0.0641,0.0665 0.31474,-0.0476 z m -18.32956,-0.89658 c 0.002,-0.0592 -0.0995,-0.10702 -0.22962,-0.10853 -0.12806,-10e-4 -0.30446,-0.0569 -0.39199,-0.1232 -0.14042,-0.10632 -0.19765,-0.0985 -0.48618,0.0662 -0.17987,0.10269 -0.32732,0.21114 -0.32768,0.24101 -3.7e-4,0.0299 0.14851,0.11399 0.33081,0.18694 0.18231,0.0729 0.35516,0.17096 0.38413,0.21783 0.0648,0.10476 0.71594,-0.32926 0.72053,-0.48024 z m 21.25454,0.52797 c 0,-0.0239 -0.12382,-0.15615 -0.27516,-0.29381 -0.43925,-0.39952 -1.00781,-0.52005 -2.53264,-0.53687 -0.73748,-0.008 -1.34087,0.009 -1.34087,0.0381 0,0.0291 0.26278,0.13738 0.58395,0.24065 0.52668,0.16935 0.63218,0.17775 1.07573,0.0857 0.76796,-0.15943 1.547,-0.0237 2.05591,0.35826 0.19058,0.14303 0.43308,0.20351 0.43308,0.10801 z m -8.255,-0.21047 c 0.0288,-0.0466 -0.0261,-0.0847 -0.122,-0.0847 -0.0959,0 -0.17433,0.0381 -0.17433,0.0847 0,0.0466 0.0549,0.0847 0.122,0.0847 0.0671,0 0.14555,-0.0381 0.17433,-0.0847 z m -14.36832,-0.66707 c 0.0319,-0.0963 -0.0927,-0.10609 -0.71282,-0.0559 -1.04353,0.0845 -1.13297,0.22843 -0.12259,0.19721 0.58511,-0.0181 0.80698,-0.0556 0.83541,-0.14135 z"
       id="path2216"
       inkscape:connector-curvature="0" />
  </g>
</svg>
