<?xml version="1.0" encoding="UTF-8" standalone="no"?>
<!-- Created with Inkscape (http://www.inkscape.org/) -->

<svg
   xmlns:dc="http://purl.org/dc/elements/1.1/"
   xmlns:cc="http://creativecommons.org/ns#"
   xmlns:rdf="http://www.w3.org/1999/02/22-rdf-syntax-ns#"
   xmlns:svg="http://www.w3.org/2000/svg"
   xmlns="http://www.w3.org/2000/svg"
   xmlns:sodipodi="http://sodipodi.sourceforge.net/DTD/sodipodi-0.dtd"
   xmlns:inkscape="http://www.inkscape.org/namespaces/inkscape"
   width="16.064415mm"
   height="28.690205mm"
   viewBox="0 0 16.064415 28.690204"
   version="1.1"
   id="svg912"
   inkscape:version="0.92.3 (2405546, 2018-03-11)"
   sodipodi:docname="school_sewing_lamp.svg">
  <defs
     id="defs906" />
  <sodipodi:namedview
     id="base"
     pagecolor="#ffffff"
     bordercolor="#666666"
     borderopacity="1.0"
     inkscape:pageopacity="0.0"
     inkscape:pageshadow="2"
     inkscape:zoom="4.8600356"
     inkscape:cx="30.35795"
     inkscape:cy="54.21771"
     inkscape:document-units="mm"
     inkscape:current-layer="layer1"
     showgrid="false"
     fit-margin-top="0"
     fit-margin-left="0"
     fit-margin-right="0"
     fit-margin-bottom="0"
     inkscape:window-width="1053"
     inkscape:window-height="747"
     inkscape:window-x="100"
     inkscape:window-y="53"
     inkscape:window-maximized="0" />
  <metadata
     id="metadata909">
    <rdf:RDF>
      <cc:Work
         rdf:about="">
        <dc:format>image/svg+xml</dc:format>
        <dc:type
           rdf:resource="http://purl.org/dc/dcmitype/StillImage" />
        <dc:title></dc:title>
      </cc:Work>
    </rdf:RDF>
  </metadata>
  <g
     inkscape:label="Layer 1"
     inkscape:groupmode="layer"
     id="layer1"
     transform="translate(-142.12027,-115.11066)">
    <path
       style="fill:#000000;stroke-width:0.08466667"
       d="m 149.74486,143.65394 c -0.0497,-0.0929 -0.0904,-0.23621 -0.0904,-0.31855 0,-0.0823 -0.10665,-0.26581 -0.23699,-0.40773 -0.13034,-0.14192 -0.28563,-0.4021 -0.3451,-0.57818 -0.10352,-0.30652 -0.097,-0.3328 0.15249,-0.61699 0.14335,-0.16326 0.31635,-0.4302 0.38446,-0.59321 0.18857,-0.45132 0.14813,-1.48753 -0.0846,-2.16616 -0.16766,-0.48901 -0.17787,-0.58589 -0.0769,-0.72998 0.0935,-0.13348 0.20047,-0.16209 0.54425,-0.14556 0.58002,0.0279 0.61659,-0.091 0.0485,-0.15776 -0.25102,-0.0295 -0.51679,-0.0768 -0.59061,-0.10514 -0.21435,-0.0823 -0.15906,-0.28738 0.0775,-0.28738 0.2678,0 0.27363,-0.14473 0.0107,-0.26455 -0.21088,-0.0961 -0.41872,-0.57976 -0.37747,-0.87845 0.0477,-0.34568 -0.1214,-5.12627 -0.18271,-5.16416 -0.035,-0.0216 -0.24003,0.11912 -0.45558,0.31281 l -0.39191,0.35216 v 2.24114 2.24113 l -0.22747,0.44923 c -0.15355,0.30324 -0.30813,0.48265 -0.47568,0.55205 -0.30422,0.12601 -0.44011,0.0537 -0.75141,-0.39982 -0.24345,-0.35468 -0.28253,-0.56761 -0.80015,-4.3593 -0.0528,-0.38689 -0.3261,-0.83958 -0.50684,-0.83958 -0.12368,0 -0.13405,0.10251 -0.0921,0.91017 0.026,0.50059 0.0959,1.3395 0.15527,1.86424 0.17128,1.51356 -0.0527,2.22093 -0.70328,2.22093 -0.1376,0 -0.32348,-0.0392 -0.41307,-0.0872 -0.20439,-0.10938 -0.42339,-0.52548 -0.46866,-0.89042 -0.0587,-0.47301 -0.24053,-0.9274 -0.37119,-0.9274 -0.26598,0 -0.35346,0.38281 -0.29989,1.31233 0.0282,0.48895 0.0481,1.54607 0.0443,2.34917 -0.007,1.56848 0.0413,1.7995 0.37956,1.7995 0.21983,0 0.24013,-0.06 0.32959,-0.97367 0.0542,-0.5532 0.248,-0.92384 0.59542,-1.13856 0.35633,-0.22023 0.72802,-0.22149 1.00526,-0.003 0.26773,0.21059 0.34718,0.52525 0.35247,1.39597 0.003,0.5438 0.0292,0.67733 0.13112,0.67733 0.0878,0 0.14007,-0.11759 0.16933,-0.381 0.0824,-0.74127 0.36803,-0.90267 0.88202,-0.49836 0.29811,0.23449 0.27455,0.32903 -0.082,0.32903 -0.26155,0 -0.31621,0.0372 -0.42024,0.2862 -0.12364,0.29591 -0.56913,0.7298 -0.7493,0.7298 -0.0564,0 -0.2325,-0.1085 -0.39135,-0.24111 l -0.28881,-0.24111 0.11063,-0.80575 c 0.0837,-0.60991 0.0871,-0.8497 0.0139,-0.98656 -0.25416,-0.4749 -0.53785,-0.0453 -0.72203,1.09347 -0.15997,0.98909 -0.27763,1.18106 -0.72391,1.18106 -0.27924,0 -0.39772,-0.0601 -0.70944,-0.35983 -0.54958,-0.52847 -0.60293,-0.79022 -0.59968,-2.94217 0.002,-1.00118 0.0324,-2.00113 0.0686,-2.2221 0.0901,-0.54942 0.40224,-0.91057 0.78702,-0.91057 0.38707,0 0.76215,0.20208 0.90627,0.48827 0.1268,0.25178 0.24885,0.93981 0.23254,1.3109 -0.007,0.1561 0.0321,0.23283 0.11812,0.23283 0.15453,0 0.14742,0.10517 0.16031,-2.37066 0.0117,-2.25097 0.0464,-2.40804 0.57108,-2.58788 0.35761,-0.12257 0.59131,-0.0108 0.99958,0.4783 l 0.2379,0.28496 0.41324,-0.25548 0.41323,-0.25548 v -0.71605 -0.71604 l -0.635,-0.0423 c -1.04855,-0.0699 -1.09089,-0.21381 -0.15012,-0.51014 0.69707,-0.21957 0.87397,-0.32388 0.75351,-0.44434 -0.0517,-0.0517 -0.15192,-0.0315 -0.27643,0.0557 -0.25211,0.17658 -1.30982,0.1859 -1.69992,0.015 -0.15292,-0.067 -0.38833,-0.14531 -0.52312,-0.17402 -0.18174,-0.0387 -0.22043,-0.0768 -0.1497,-0.14758 0.0596,-0.0596 0.41387,-0.0915 0.94358,-0.0849 0.85157,0.0105 1.12342,-0.0814 0.5307,-0.17932 -0.17462,-0.0289 -0.57619,-0.0529 -0.89237,-0.0534 -0.40665,-6.9e-4 -0.67216,-0.0506 -0.90734,-0.17054 -0.3598,-0.18356 -0.56963,-0.45931 -0.41991,-0.55184 0.17917,-0.11073 1.08436,0.12157 1.52112,0.39036 0.0699,0.043 0.18415,0.0998 0.254,0.12614 0.0699,0.0264 0.19522,0.0846 0.27861,0.12933 0.2852,0.15304 0.32209,-0.0214 0.061,-0.28844 -0.15792,-0.16153 -0.32489,-0.47714 -0.42655,-0.80627 -0.41723,-1.35084 -0.0361,-1.08728 0.81928,0.56653 0.39753,0.76859 0.57917,1.01385 0.67783,0.91519 0.0602,-0.0602 -0.0567,-0.31364 -0.44639,-0.96756 -0.25543,-0.42858 -0.14207,-0.47566 0.34667,-0.14398 0.17495,0.11872 0.32885,0.20444 0.34202,0.1905 0.0132,-0.0139 0.0473,-0.5778 0.0759,-1.25302 0.0286,-0.67522 0.0718,-1.42465 0.096,-1.6654 0.026,-0.25863 0.008,-0.45988 -0.0435,-0.49183 -0.0481,-0.0298 -0.0875,-0.24224 -0.0875,-0.47219 0,-0.3589 0.042,-0.46453 0.29634,-0.7461 0.4304,-0.4764 0.40846,-0.76676 -0.0847,-1.12091 -0.20955,-0.15048 -0.381,-0.32276 -0.381,-0.38283 0,-0.22479 0.42078,-0.5062 0.78578,-0.52551 0.42437,-0.0224 1.24622,-0.24521 1.24622,-0.33778 0,-0.12925 -2.63809,-0.17978 -3.49255,-0.0669 -0.48214,0.0637 -0.74078,0.21387 -0.74078,0.43012 0,0.13147 0.18352,0.21473 0.58933,0.26737 0.31104,0.0403 0.596,0.24118 0.596,0.42004 0,0.26584 -0.27425,0.39486 -0.72633,0.34173 -0.24236,-0.0285 -0.67266,-0.0275 -0.95622,0.002 -0.51396,0.0537 -0.51572,0.0549 -0.56414,0.35949 -0.0267,0.16809 -0.0846,0.37177 -0.1286,0.45263 -0.044,0.0809 -0.0803,0.21421 -0.0806,0.29633 -2.9e-4,0.0821 -0.0564,0.25655 -0.12481,0.3876 -0.0684,0.13106 -0.14923,0.42633 -0.17972,0.65617 -0.0305,0.22983 -0.0987,0.41788 -0.15162,0.41788 -0.10274,0 -0.39271,-0.26766 -0.85099,-0.78548 -0.34982,-0.39529 -0.458,-0.85694 -0.25371,-1.08268 0.13269,-0.14663 0.13308,-0.1822 0.005,-0.50122 -0.17643,-0.44094 -0.18191,-1.00553 -0.0104,-1.07135 0.15036,-0.0577 0.16313,-0.32504 0.0333,-0.69744 -0.11583,-0.33227 -0.0302,-0.85717 0.13986,-0.85717 0.0677,0 0.12317,-0.0743 0.12317,-0.16517 0,-0.0908 0.0419,-0.36071 0.0932,-0.5997 0.0858,-0.40013 0.10928,-0.43051 0.29633,-0.38356 0.18978,0.0476 0.20314,0.0281 0.20314,-0.29766 0,-0.19176 0.0601,-0.47529 0.13354,-0.63007 0.15866,-0.33435 0.37446,-0.45375 0.37446,-0.20719 0,0.31753 0.15921,0.165 0.21482,-0.20579 0.0411,-0.27399 0.13486,-0.44748 0.35467,-0.65617 0.19426,-0.18443 0.31231,-0.24666 0.33739,-0.17786 0.0619,0.16992 0.14483,0.12452 0.30919,-0.16933 0.31751,-0.56765 1.23927,-1.15017 1.23927,-0.78317 0,0.17858 0.0302,0.16454 0.36406,-0.16933 0.36382,-0.36382 0.56654,-0.38644 0.56915,-0.0635 l 0.002,0.23283 0.14628,-0.18136 c 0.16293,-0.20199 0.61748,-0.45364 0.81941,-0.45364 0.17056,0 0.16732,0.14532 -0.007,0.31977 -0.18158,0.18158 0.006,0.25551 0.20674,0.0815 0.0788,-0.0682 0.27375,-0.14873 0.43322,-0.17886 0.34877,-0.0659 1.37355,0.0275 1.31639,0.11998 -0.0223,0.036 -0.34516,0.13426 -0.71757,0.21833 -0.63214,0.14272 -0.88895,0.28591 -0.51277,0.28591 0.21172,0 0.31499,0.16607 0.16401,0.26375 -0.0642,0.0415 -0.26908,0.1197 -0.45535,0.17375 -0.18627,0.054 -0.38416,0.15353 -0.43977,0.22109 -0.17805,0.21631 -0.54348,0.35781 -0.97229,0.37647 -0.38738,0.0168 -0.41385,0.0319 -0.36931,0.20931 0.0392,0.15636 0.005,0.20129 -0.18599,0.24677 -0.29407,0.0699 -0.53118,0.27073 -0.47928,0.40599 0.056,0.14586 -0.19567,0.34067 -0.66762,0.51684 -0.40023,0.14939 -0.58082,0.27979 -0.37733,0.27246 0.38555,-0.0139 0.41298,0.011 0.26364,0.23889 -0.0778,0.1188 -0.25359,0.27395 -0.39055,0.34477 -0.23746,0.1228 -0.24231,0.1362 -0.10445,0.28854 0.1376,0.15205 0.13184,0.1725 -0.1194,0.42374 -0.27757,0.27758 -0.32172,0.38694 -0.17583,0.43557 0.12517,0.0417 -0.12901,0.5204 -0.47758,0.89941 -0.28649,0.3115 -0.28689,0.3131 -0.0854,0.33889 0.18454,0.0236 0.19457,0.0469 0.11313,0.26268 -0.0492,0.13022 -0.0659,0.29802 -0.0372,0.37287 0.0477,0.12419 0.0908,0.12464 0.49289,0.005 0.32208,-0.0956 0.5993,-0.11493 1.03022,-0.0717 0.4788,0.0481 0.5824,0.0375 0.55144,-0.0563 -0.021,-0.0635 -0.26371,-0.17576 -0.53943,-0.24946 -0.40343,-0.10783 -0.51645,-0.17681 -0.57885,-0.35327 -0.11605,-0.32819 0.10726,-0.61113 0.5754,-0.72901 0.47579,-0.1198 2.67261,-0.1352 3.18552,-0.0223 0.20934,0.0461 0.70097,0.096 1.0925,0.11085 0.5874,0.0224 0.71855,0.0525 0.74998,0.17245 0.0209,0.0799 0.11298,0.16913 0.20452,0.19819 0.2011,0.0638 0.6321,-0.10131 0.69548,-0.26647 0.10081,-0.26271 -0.29697,-0.35451 -1.75459,-0.4049 -3.4409,-0.11897 -4.88342,-0.62227 -4.08159,-1.42411 0.22043,-0.22043 1.16802,-0.47584 1.90798,-0.51428 l 0.381,-0.0198 -0.0268,-0.30901 c -0.0148,-0.16996 0.0138,-0.33413 0.0635,-0.36483 0.21732,-0.13431 0.0542,-0.21507 -0.39345,-0.19477 -0.41044,0.0186 -0.48857,-10e-4 -0.51542,-0.13253 -0.0475,-0.2317 0.21038,-0.46112 0.59044,-0.52533 0.21818,-0.0369 0.41573,-0.14418 0.55679,-0.3025 0.13101,-0.14703 0.30348,-0.24537 0.43038,-0.24537 0.20176,0 0.19524,0.0153 -0.13816,0.32304 -0.19245,0.17768 -0.49117,0.35865 -0.66382,0.40217 -0.44894,0.11316 -0.49988,0.33147 -0.0629,0.26946 0.18083,-0.0257 0.39513,-0.0734 0.47623,-0.10611 0.23451,-0.0946 0.28583,0.18788 0.0749,0.41237 -0.099,0.10541 -0.18004,0.23548 -0.18004,0.28905 0,0.14613 0.28851,0.27194 0.65669,0.28637 0.27051,0.0106 0.32665,0.0428 0.32227,0.18478 -0.006,0.20962 0.23184,0.2894 0.89936,0.3011 0.26473,0.005 0.58565,0.0481 0.71316,0.0966 0.18412,0.07 0.25933,0.0602 0.36535,-0.0475 0.12167,-0.12363 0.11849,-0.14686 -0.0358,-0.26207 -0.0931,-0.0695 -0.30268,-0.11902 -0.46567,-0.10999 -0.67488,0.0374 -1.22914,-0.009 -1.10066,-0.0919 0.18573,-0.12004 1.52813,-0.1015 1.77725,0.0245 0.35954,0.18191 0.29153,0.65279 -0.0943,0.65279 -0.28363,0 -0.16795,0.14569 0.15854,0.19966 0.91357,0.151 1.67879,0.0134 2.03172,-0.36549 0.25222,-0.27071 0.15317,-0.47955 -0.30078,-0.63423 -0.46941,-0.15994 -0.86311,-0.51521 -0.86311,-0.77885 0,-0.2584 -0.49579,-0.40349 -1.397,-0.40882 -0.98338,-0.006 -1.30068,-0.25576 -1.01819,-0.80204 0.17208,-0.33276 0.24926,-0.32941 0.1818,0.008 -0.084,0.41992 0.0441,0.49588 0.83599,0.49588 0.52596,0 0.80056,0.0444 1.11147,0.17977 0.47767,0.20795 0.72594,0.40208 0.65696,0.51369 -0.0731,0.1182 0.0421,0.49187 0.15158,0.49187 0.0528,0 0.29975,0.0964 0.54872,0.21415 0.38924,0.18414 0.45267,0.24755 0.45267,0.45254 0,0.25981 -0.14572,0.42191 -0.57456,0.6392 -0.41344,0.20947 -2.78319,0.2025 -3.52643,-0.0104 -0.15998,-0.0458 -0.1601,-0.0498 -0.005,-0.16325 0.11853,-0.0867 0.12795,-0.1184 0.037,-0.12466 -0.0671,-0.005 -0.23632,-0.0272 -0.37602,-0.0502 -1.04575,-0.17192 -3.01429,-0.0662 -3.39341,0.18218 -0.12079,0.0791 -0.20493,0.21616 -0.20493,0.33372 0,0.22426 0.15437,0.30458 0.98589,0.51295 0.92964,0.23297 1.19035,0.12713 0.4536,-0.18414 -0.44064,-0.18616 -0.59954,-0.38998 -0.43349,-0.55601 0.13054,-0.13055 0.97094,-0.20409 1.58557,-0.13874 l 0.49877,0.053 -0.60325,0.0125 c -0.83526,0.0172 -1.14654,0.0883 -1.11455,0.25436 0.0183,0.0953 0.2355,0.17774 0.74484,0.28289 0.81267,0.16777 2.93973,0.1898 4.24584,0.044 0.41451,-0.0463 0.78003,-0.0578 0.81227,-0.0255 0.0992,0.0992 -0.17464,0.21709 -0.48682,0.20959 -0.16298,-0.004 -0.82973,0.0294 -1.48167,0.0741 -0.65193,0.0447 -1.49456,0.0628 -1.87252,0.0402 -0.43993,-0.0262 -0.70734,-0.008 -0.74318,0.0496 -0.0587,0.0951 0.21962,0.16501 0.86156,0.21655 0.19939,0.016 0.38204,0.0486 0.40588,0.0725 0.0238,0.0239 0.37508,0.0264 0.78049,0.006 0.96024,-0.0492 1.37211,0.0987 1.37211,0.49263 0,0.24021 0.0198,0.25886 0.23283,0.21989 0.53682,-0.0982 1.41341,-0.39492 1.61967,-0.54831 0.28782,-0.21406 0.34151,-0.52462 0.10153,-0.58738 -0.0968,-0.0253 -0.17603,-0.0838 -0.17603,-0.13 0,-0.0759 0.41186,-0.0207 0.49958,0.0671 0.0188,0.0188 0.0308,0.15491 0.0266,0.30237 -0.006,0.19856 -0.0887,0.33818 -0.32022,0.53826 -0.25666,0.22179 -0.28751,0.27977 -0.17242,0.32394 0.18602,0.0714 1.49926,-0.24563 1.59181,-0.38426 0.0986,-0.14773 0.0117,-0.57195 -0.15496,-0.75609 -0.14461,-0.15979 -0.46281,-0.27783 -0.98594,-0.36572 -0.45745,-0.0769 -0.30848,-0.24823 0.15996,-0.18402 0.84347,0.11561 1.21823,0.46943 1.21823,1.15016 0,0.42215 -0.53368,0.63839 -1.79885,0.72887 -0.66068,0.0472 -1.03094,0.1811 -0.75517,0.27302 0.0553,0.0184 0.14092,0.10883 0.19017,0.20085 0.0752,0.14057 0.0345,0.22705 -0.25497,0.54106 -0.45818,0.49706 -0.45947,0.75457 -0.006,1.16179 0.18627,0.16721 0.3373,0.35444 0.33563,0.41606 -0.002,0.0616 -0.0888,0.007 -0.19369,-0.12081 -0.10484,-0.12806 -0.25588,-0.23283 -0.33562,-0.23283 -0.20818,0 -0.17864,0.1278 0.0667,0.28854 0.11642,0.0763 0.21167,0.21934 0.21167,0.31791 0,0.0986 0.0549,0.22151 0.12203,0.27321 0.10379,0.0799 0.10582,0.16363 0.0136,0.55967 -0.11318,0.48619 -0.14943,0.45954 -0.25909,-0.1905 -0.12615,-0.74776 -0.17381,-0.15785 -0.18812,2.32853 -0.008,1.4551 -0.0363,2.93139 -0.062,3.28064 -0.0257,0.34925 -0.0677,1.5494 -0.0932,2.667 -0.0255,1.1176 -0.0664,2.19212 -0.0907,2.38783 -0.0492,0.39502 0.0334,0.97643 0.13029,0.91658 0.0746,-0.0461 0.15283,-1.34277 0.26312,-4.36275 0.0451,-1.23401 0.11119,-2.41511 0.14695,-2.62466 0.0357,-0.20955 0.041,-0.9906 0.0118,-1.73567 -0.0293,-0.74507 -0.0347,-1.40549 -0.0121,-1.4676 0.0933,-0.25642 0.18431,0.1346 0.18557,0.79732 0.001,0.7268 0.0428,0.85381 0.22838,0.69981 0.18355,-0.15233 0.2055,-0.0449 0.0776,0.37995 -0.14367,0.4774 -0.0234,0.61127 0.15837,0.17626 0.0713,-0.17055 0.12955,-0.32825 0.12955,-0.35045 0,-0.12219 0.28301,-0.60931 0.37438,-0.64436 0.0809,-0.0311 0.0979,0.0661 0.0689,0.39561 -0.0403,0.45894 -0.34816,1.10183 -0.56808,1.18622 -0.0711,0.0273 -0.12923,0.0931 -0.12923,0.14634 0,0.10809 0.56923,0.0324 0.72525,-0.0965 0.0496,-0.041 0.3975,-0.0946 0.77299,-0.11919 0.52971,-0.0346 0.70523,-0.0176 0.78305,0.0762 0.12238,0.14746 0.004,0.22151 -0.67234,0.42164 -0.34475,0.10197 -0.63005,0.12353 -1.10068,0.0832 -0.44831,-0.0384 -0.61035,-0.0279 -0.5506,0.0358 0.0466,0.0497 0.29122,0.10198 0.54367,0.11629 0.56753,0.0322 0.63742,0.17356 0.15711,0.31786 -1.12352,0.33755 -1.09303,0.30384 -1.06372,1.17612 l 0.0243,0.72241 0.39851,0.28595 0.39852,0.28594 0.37014,-0.3863 c 0.41196,-0.42994 0.55899,-0.46488 0.90863,-0.21592 0.4152,0.29565 0.44109,0.61111 0.29871,3.63962 -0.0482,1.02446 0.004,1.35377 0.19494,1.23563 0.0499,-0.0308 0.1525,-0.27384 0.22801,-0.54001 0.20937,-0.73801 0.47722,-1.23257 0.73349,-1.35434 0.31597,-0.15014 0.76875,0.0419 0.95696,0.40584 0.19044,0.36826 0.1265,1.32988 -0.15755,2.36955 -0.12774,0.46757 -0.22106,1.03475 -0.22289,1.35467 -0.006,0.99593 -0.30641,1.78604 -0.7464,1.9611 -0.55154,0.21943 -0.79875,0.23346 -1.13062,0.0642 -0.57061,-0.2911 -0.67956,-0.66096 -0.54914,-1.86415 0.0469,-0.43301 0.0338,-0.58074 -0.0583,-0.65721 -0.2096,-0.17396 -0.33781,0.1221 -0.39476,0.91157 -0.058,0.80408 -0.21138,1.17566 -0.60703,1.47055 -0.34929,0.26034 -0.64609,0.14831 -0.67961,-0.25651 -0.0221,-0.2671 -0.0597,-0.32091 -0.23792,-0.34087 -0.11642,-0.013 -0.30222,-0.0435 -0.41289,-0.0678 l -0.20121,-0.0441 0.19853,-0.21133 c 0.15882,-0.16906 0.26627,-0.20631 0.53717,-0.1862 0.30167,0.0224 0.34725,0.0554 0.41761,0.30211 0.0532,0.1865 0.0477,0.34552 -0.0166,0.48683 -0.0873,0.19162 -0.078,0.20986 0.1075,0.20986 0.24112,0 0.31425,-0.2323 0.29471,-0.93611 -0.0325,-1.17182 0.109,-1.48095 0.7685,-1.67854 0.30528,-0.0915 0.38188,-0.0851 0.61572,0.0515 0.34076,0.19902 0.38788,0.39181 0.33673,1.3778 -0.0404,0.7789 -0.0347,0.81187 0.18122,1.04257 0.2585,0.27621 0.48868,0.25367 0.78984,-0.0773 0.17408,-0.19132 0.18694,-0.28212 0.176,-1.24199 -0.008,-0.72919 0.0272,-1.16083 0.12016,-1.45891 0.12171,-0.39042 0.31186,-1.15716 0.35096,-1.41513 0.009,-0.0599 0.0443,-0.15334 0.0783,-0.20768 0.13407,-0.21445 0.15091,-0.83141 0.027,-0.98813 -0.25019,-0.31637 -0.41119,-0.14393 -0.57846,0.61958 -0.26415,1.2057 -0.82858,1.86539 -1.26111,1.47394 -0.3118,-0.28216 -0.41781,-0.69213 -0.4264,-1.64893 -0.004,-0.49787 0.0119,-0.93802 0.0364,-0.97811 0.0245,-0.0401 0.0705,-0.38841 0.10214,-0.77406 0.0317,-0.38565 0.0927,-0.82355 0.13556,-0.97311 0.0429,-0.14956 0.078,-0.396 0.078,-0.54765 0,-0.24823 -0.0246,-0.27572 -0.2472,-0.27572 -0.21976,0 -0.26198,0.0446 -0.3804,0.40216 -0.0733,0.2212 -0.16975,0.72602 -0.21442,1.12184 -0.25794,2.28547 -0.43334,2.96225 -0.89168,3.4406 -0.42226,0.4407 -0.74813,0.49002 -1.05803,0.16015 -0.2255,-0.24003 -0.23886,-0.49764 -0.17913,-3.45379 l 0.0338,-1.67337 -0.30963,-0.35545 c -0.29076,-0.33379 -0.31836,-0.34673 -0.45279,-0.21229 -0.11909,0.11909 -0.14714,0.35343 -0.16679,1.39382 -0.013,0.68786 -0.0424,1.91741 -0.0654,2.73233 l -0.0418,1.48166 -0.27225,0.23061 c -0.19285,0.16336 -0.32951,0.21623 -0.46861,0.18132 -0.12613,-0.0317 -0.19637,-0.0118 -0.19637,0.0555 0,0.0768 0.11318,0.0897 0.42333,0.0486 0.38423,-0.051 0.42334,-0.0407 0.42334,0.11129 0,0.0921 -0.0804,0.22379 -0.17876,0.29265 -0.16183,0.11335 -0.16704,0.14192 -0.055,0.30184 0.11105,0.15855 0.10366,0.21857 -0.0722,0.58593 -0.44213,0.92382 -0.32709,2.38873 0.23253,2.96113 0.31144,0.31855 0.28679,0.56554 -0.10047,1.00661 -0.13586,0.15473 -0.26888,0.3854 -0.29561,0.51261 -0.0774,0.36856 -0.16758,0.48347 -0.40119,0.51152 -0.14962,0.018 -0.24711,-0.027 -0.30896,-0.1426 z m 0.5023,-0.34931 c 0,-0.0466 -0.0762,-0.0847 -0.16933,-0.0847 -0.0931,0 -0.16933,0.0381 -0.16933,0.0847 0,0.0466 0.0762,0.0847 0.16933,0.0847 0.0931,0 0.16933,-0.0381 0.16933,-0.0847 z m 0.1505,-0.55513 c 0.10349,-0.0725 0.18817,-0.16068 0.18817,-0.19598 0,-0.0353 -0.29528,-0.0694 -0.65617,-0.0757 l -0.65616,-0.0115 0.23755,0.20752 c 0.27203,0.23764 0.61377,0.26683 0.88661,0.0757 z m -4.73804,-3.11323 c 0.0147,-0.12447 -0.0138,-0.22631 -0.0635,-0.22631 -0.0497,0 -0.0903,0.054 -0.0903,0.12008 0,0.066 -0.0251,0.18554 -0.0558,0.26555 -0.0392,0.10209 -0.0202,0.13377 0.0635,0.10623 0.0656,-0.0216 0.13138,-0.14108 0.14611,-0.26555 z m 8.13072,-0.39059 c -0.0108,-0.18349 -0.0461,-0.31731 -0.0783,-0.29737 -0.0323,0.0199 -0.0464,0.16054 -0.0315,0.31245 0.0332,0.3374 0.0282,0.31854 0.0837,0.31854 0.0252,0 0.0369,-0.15013 0.0261,-0.33362 z m -10.93777,-0.95755 c -0.0235,-0.0582 -0.0427,-0.0106 -0.0427,0.10583 0,0.11642 0.0192,0.16405 0.0427,0.10584 0.0235,-0.0582 0.0235,-0.15346 0,-0.21167 z m 0.0431,-0.77386 c 0.0301,-0.6756 0.008,-0.89831 -0.0886,-0.89831 -0.034,0 -0.0635,0.3429 -0.0655,0.762 -0.005,0.91555 0.11479,1.02106 0.15418,0.13631 z m 7.6186,-0.38242 c 0.13486,-0.10608 0.21067,-0.25852 0.22104,-0.4445 0.009,-0.15568 0.0547,-0.89265 0.10237,-1.63772 0.0476,-0.74507 0.10621,-1.98332 0.1302,-2.75167 0.0458,-1.4663 0.0969,-1.98136 0.2198,-2.21567 0.0479,-0.0913 0.0396,-0.15284 -0.0234,-0.17386 -0.0736,-0.0245 -0.0739,-0.43678 -9.8e-4,-1.679 0.0531,-0.90556 0.0968,-1.9467 0.097,-2.31364 2.6e-4,-0.36952 0.043,-0.71844 0.0958,-0.78207 0.0594,-0.0716 0.0702,-0.20314 0.0286,-0.34882 -0.0367,-0.12867 -0.0775,-0.32866 -0.0906,-0.44442 -0.0131,-0.11577 -0.06,-0.22255 -0.10418,-0.23728 -0.0442,-0.0147 -0.16593,-0.10099 -0.2705,-0.19168 l -0.19012,-0.16489 h 0.33469 c 0.18408,0 0.37709,-0.0424 0.42891,-0.0942 0.0518,-0.0518 0.13896,-0.0666 0.19365,-0.0328 0.0716,0.0443 0.0737,0.0872 0.007,0.15349 -0.22746,0.22747 0.0278,0.90484 0.34103,0.90484 0.20342,0 0.2031,-0.10372 -8.8e-4,-0.28831 -0.2319,-0.20987 -0.28248,-0.65374 -0.0805,-0.70655 0.086,-0.0225 0.15634,-0.0718 0.15634,-0.10963 0,-0.11986 -0.26054,-0.33477 -0.40821,-0.33672 -0.11438,-0.002 -0.1045,-0.0308 0.0506,-0.1502 0.24058,-0.18515 0.11156,-0.35592 -0.2689,-0.35592 -0.19756,0 -0.23143,-0.0226 -0.1524,-0.1016 0.1405,-0.1405 0.12707,-0.36452 -0.0296,-0.49459 -0.17507,-0.14529 -0.40916,0.0787 -0.42422,0.40593 -0.0105,0.22799 -0.0214,0.23266 -0.55312,0.23598 -0.78404,0.005 -0.81764,-0.0109 -0.85491,-0.4017 -0.0361,-0.3784 0.0513,-0.45806 0.40505,-0.36927 0.1652,0.0415 0.20449,0.0906 0.15954,0.19963 -0.15768,0.38238 -0.14887,0.44095 0.0663,0.44095 0.23966,0 0.4638,-0.20534 0.32069,-0.29379 -0.0488,-0.0302 -0.0888,-0.12048 -0.0888,-0.20067 0,-0.12715 0.11104,-0.14843 0.86783,-0.16626 0.47731,-0.0112 0.97525,-0.0422 1.10654,-0.0689 0.23246,-0.0472 0.23471,-0.0528 0.0862,-0.2169 -0.14602,-0.16136 -0.24458,-0.16728 -2.33128,-0.14015 -1.93887,0.0252 -2.19512,0.0446 -2.32688,0.17649 -0.15988,0.15999 -0.12428,0.16696 0.94541,0.18485 0.33743,0.006 0.3375,0.006 0.31101,0.32315 -0.0156,0.18669 0.011,0.3175 0.0647,0.3175 0.0501,0 0.0912,0.0422 0.0912,0.0937 0,0.0515 -0.0575,0.0717 -0.12774,0.0447 -0.15631,-0.06 -0.5496,0.0797 -0.5496,0.19522 0,0.0461 0.19136,0.10923 0.42524,0.14026 0.41441,0.055 0.66905,0.20006 0.36293,0.20679 -0.99808,0.0219 -1.27082,0.10232 -1.12848,0.33264 0.0646,0.10449 0.10265,0.0988 0.25391,-0.0381 0.16904,-0.15299 0.19005,-0.15387 0.4204,-0.0178 0.13335,0.0788 0.32006,0.14322 0.4149,0.14322 0.26419,0 0.28346,0.12446 0.0528,0.34112 l -0.20906,0.1964 0.004,2.25008 c 0.002,1.23754 0.0387,2.97397 0.0816,3.85874 0.11207,2.31272 0.16764,3.71825 0.20417,5.16466 0.0176,0.6985 0.0607,1.34092 0.0957,1.42759 0.065,0.16099 0.47936,0.38347 0.72535,0.38943 0.0752,0.002 0.2291,-0.0693 0.34199,-0.15813 z m -0.85878,-0.47239 c -0.15477,-0.18649 -0.0844,-1.97163 0.0818,-2.07433 0.10562,-0.0653 0.10445,-0.0962 -0.009,-0.22883 -0.10604,-0.12427 -0.13463,-0.4503 -0.15076,-1.71967 -0.011,-0.86148 -0.0391,-2.65218 -0.0626,-3.97933 -0.0489,-2.76037 0.008,-3.97934 0.18656,-3.97934 0.15414,0 0.31796,0.31669 0.25232,0.48777 -0.0287,0.0747 -0.054,0.69088 -0.0562,1.36922 -0.003,0.76604 -0.0393,1.27589 -0.0971,1.34563 -0.0631,0.0761 -0.065,0.13068 -0.006,0.16934 0.0515,0.0337 0.091,0.50758 0.0967,1.15771 0.005,0.60537 0.0141,1.19592 0.0197,1.31233 0.006,0.11642 0.007,0.66887 0.002,1.22767 -0.004,0.5588 0.0113,1.92088 0.0346,3.02683 0.035,1.66093 0.0223,2.01084 -0.0729,2.01084 -0.0634,0 -0.16229,-0.0566 -0.21973,-0.12584 z m 0.16837,-6.98616 c 0,-0.0466 -0.0381,-0.0847 -0.0847,-0.0847 -0.0466,0 -0.0847,0.0381 -0.0847,0.0847 0,0.0466 0.0381,0.0847 0.0847,0.0847 0.0466,0 0.0847,-0.0381 0.0847,-0.0847 z m 0.39405,7.04844 c -0.0216,-0.035 -0.0251,-0.46358 -0.008,-0.9525 0.0384,-1.08108 0.15631,-6.47776 0.14793,-6.77328 -0.003,-0.11641 -0.006,-0.85936 -0.006,-1.651 -9e-5,-0.79163 -0.006,-1.65127 -0.0141,-1.9103 -0.008,-0.25903 0.0256,-0.57489 0.0739,-0.7019 0.0773,-0.20326 0.10943,-0.21937 0.26822,-0.13439 0.18036,0.0965 0.1804,0.0975 0.13541,3.19958 -0.0247,1.70666 -0.0692,3.67451 -0.0988,4.37301 -0.0296,0.6985 -0.0645,1.97729 -0.0776,2.84176 -0.0131,0.86446 -0.0517,1.61694 -0.0858,1.67216 -0.0693,0.11216 -0.27486,0.13474 -0.33536,0.0369 z m 0.0293,-13.56778 c 0,-0.10211 0.65138,-0.10211 0.889,0 0.1197,0.0514 0.0142,0.0745 -0.35983,0.0787 -0.3003,0.003 -0.52917,-0.0307 -0.52917,-0.0787 z m -2.8956,13.69907 c 0.0739,-0.0739 0.1016,-0.70932 0.1016,-2.32833 0,-2.07853 -0.01,-2.22674 -0.1507,-2.22674 -0.0829,0 -0.27744,0.13437 -0.43233,0.29859 -0.24382,0.25849 -0.27427,0.33783 -0.22679,0.59091 0.0458,0.2442 0.17539,1.18898 0.2554,1.86217 0.0111,0.0931 0.0494,0.53128 0.0852,0.97367 0.0793,0.97982 0.12171,1.07565 0.36763,0.82973 z m 0.55972,-0.42792 c 0.056,-0.37367 0.0398,-9.9261 -0.0182,-10.70993 -0.0617,-0.83304 -0.148,-0.37608 -0.1746,0.92384 -0.0146,0.71341 -0.0481,1.33198 -0.0744,1.3746 -0.0745,0.12052 -0.0312,2.81828 0.10959,6.83785 0.0343,0.98055 0.0218,1.55225 -0.0364,1.66103 -0.0848,0.15845 -0.0516,0.2728 0.0791,0.2728 0.0335,0 0.0853,-0.16209 0.11494,-0.36019 z m 4.99218,0.29284 c 0.0229,-0.037 0.0649,-0.27517 0.0933,-0.52917 0.0284,-0.254 0.0875,-0.59703 0.13138,-0.7623 0.0439,-0.16526 0.12002,-0.60341 0.16927,-0.97366 0.0493,-0.37026 0.11157,-0.82207 0.13848,-1.00403 0.0438,-0.29636 0.0202,-0.35592 -0.2267,-0.5715 -0.1516,-0.13236 -0.32181,-0.24066 -0.37823,-0.24066 -0.071,0 -0.11949,0.2932 -0.15748,0.9525 -0.0715,1.2418 -0.0711,3.06784 7.6e-4,3.13972 0.0761,0.0761 0.17843,0.0712 0.22918,-0.0109 z m 4.23804,-0.3657 c -0.0802,-0.1297 -0.20469,0.0831 -0.14289,0.24414 0.0397,0.10344 0.0592,0.10122 0.12375,-0.0142 0.0421,-0.0753 0.0508,-0.17881 0.0191,-0.22998 z m -14.26034,-0.20195 c 0,-0.11642 -0.0381,-0.21167 -0.0847,-0.21167 -0.0946,0 -0.11606,0.27906 -0.0282,0.36689 0.0933,0.0933 0.11289,0.0664 0.11289,-0.15522 z m 1.27794,-0.66093 c -0.067,-0.067 -0.0926,-0.0451 -0.0926,0.0795 0,0.22384 0.1184,0.34265 0.1561,0.15665 0.016,-0.079 -0.0126,-0.18527 -0.0635,-0.2362 z m 2.50808,-0.24924 c -0.0254,-0.33761 -0.0863,-0.91863 -0.13525,-1.29117 -0.049,-0.37253 -0.10765,-0.84277 -0.13045,-1.04498 -0.0447,-0.39621 -0.35387,-1.11402 -0.47987,-1.11402 -0.10064,0 -0.0986,0.11396 0.004,0.21643 0.0445,0.0445 0.1,0.25217 0.12328,0.46143 0.0233,0.20926 0.0836,0.57098 0.13406,0.80381 0.0505,0.23283 0.0902,0.51503 0.0882,0.6271 -0.004,0.25635 0.23903,1.78305 0.30008,1.88182 0.11203,0.18127 0.13901,0.0295 0.0961,-0.54042 z m -3.81285,0.34396 c -0.027,-0.0675 -0.0471,-0.0475 -0.0512,0.0512 -0.004,0.0892 0.0163,0.13926 0.0445,0.11113 0.0281,-0.0281 0.0311,-0.10116 0.007,-0.16228 z m 10.77912,-0.42863 c 0.0563,-0.29104 0.1362,-0.77681 0.17755,-1.0795 0.0413,-0.30268 0.0956,-0.6037 0.12058,-0.66893 0.025,-0.0652 0.0628,-0.37003 0.084,-0.67733 l 0.0386,-0.55874 -0.16301,0.35658 c -0.0896,0.19612 -0.20641,0.63427 -0.25948,0.97367 -0.0531,0.3394 -0.11241,0.71234 -0.13188,0.82875 -0.0195,0.11642 -0.0548,0.41268 -0.0784,0.65835 -0.0237,0.24568 -0.0472,0.47428 -0.0523,0.508 -0.0184,0.1216 0.0122,0.18832 0.0864,0.18832 0.0416,0 0.12169,-0.23812 0.178,-0.52917 z m -8.38292,-0.005 c -7.2e-4,-0.19516 -0.0382,-0.41199 -0.0834,-0.48184 -0.0451,-0.0699 -0.085,-0.10795 -0.0886,-0.0847 -0.061,0.39333 -0.0812,0.80784 -0.0442,0.90434 0.0865,0.22547 0.21751,0.0208 0.2162,-0.33783 z m -0.10613,-1.30734 c -0.0113,-0.32932 -0.0554,-0.56253 -0.10424,-0.55033 -0.0466,0.0116 -0.0815,0.0783 -0.0776,0.14816 0.004,0.0698 0.0134,0.3175 0.0212,0.55034 0.008,0.23283 0.0515,0.42333 0.0972,0.42333 0.0481,0 0.0748,-0.24096 0.0635,-0.5715 z m 3.51169,-2.95935 c 0.5235,-0.51118 0.40721,-0.83292 -0.18877,-0.52228 -0.3941,0.20542 -0.46364,0.31768 -0.38667,0.62432 0.0724,0.28852 0.19835,0.26619 0.57544,-0.10204 z m 3.43798,-0.001 c 0.0178,-0.12423 -0.0666,-0.27073 -0.254,-0.44115 -0.33705,-0.30653 -0.47386,-0.32325 -0.56963,-0.0696 -0.0908,0.24054 0.015,0.44716 0.31235,0.60996 0.30182,0.16524 0.47839,0.13099 0.51128,-0.0992 z m -3.29381,-1.34831 c 0.0966,-0.0813 -0.30385,-0.36895 -0.51355,-0.36895 -0.23918,0 -0.31975,0.11059 -0.15483,0.21252 0.0473,0.0292 0.0641,0.0886 0.0373,0.13199 -0.10297,0.16662 0.0528,0.23698 0.32299,0.14586 0.15031,-0.0507 0.28894,-0.10534 0.30806,-0.12142 z m 3.20797,0.0374 c 0.0559,-0.0559 0.1016,-0.20828 0.1016,-0.33867 0,-0.13039 0.0457,-0.23707 0.1016,-0.23707 0.0772,0 0.078,-0.0236 0.003,-0.0984 -0.0747,-0.0747 -0.18055,-0.0415 -0.44027,0.13852 -0.37059,0.25682 -0.42527,0.41089 -0.1937,0.54577 0.19708,0.11479 0.3052,0.11222 0.42757,-0.0102 z m 0.12988,-1.49826 c 0.14168,-0.12098 0.15279,-0.26093 0.12691,-1.59785 -0.023,-1.18786 -0.0524,-1.48044 -0.15528,-1.54547 -0.17397,-0.10998 -0.20905,-0.10444 -0.41401,0.0653 -0.14529,0.12036 -0.19445,0.29914 -0.26192,0.9525 -0.0457,0.44239 -0.0837,1.21702 -0.0845,1.72141 l -10e-4,0.91707 0.3175,-0.1902 c 0.17463,-0.10461 0.38738,-0.24987 0.47278,-0.3228 z m -3.20651,-1.31404 c 0.002,-0.92085 -0.0158,-1.7025 -0.0391,-1.73699 -0.0815,-0.12072 -0.62295,-0.26337 -0.7015,-0.18481 -0.0425,0.0425 -0.083,0.7744 -0.09,1.62654 l -0.0128,1.54936 0.33866,0.23424 c 0.18627,0.12884 0.37531,0.22337 0.4201,0.21009 0.0484,-0.0144 0.0828,-0.70267 0.0847,-1.69843 z m -0.97044,-1.9171 c 0,-0.0959 -0.0381,-0.15078 -0.0847,-0.122 -0.0466,0.0288 -0.0847,0.10723 -0.0847,0.17433 0,0.0671 0.0381,0.122 0.0847,0.122 0.0466,0 0.0847,-0.0784 0.0847,-0.17433 z m 0.60717,-0.47379 c 0.21485,-0.19444 0.2202,-0.81621 0.007,-0.77512 -0.0815,0.0157 -0.15435,0.1042 -0.16189,0.19671 -0.008,0.0925 -0.0409,0.29202 -0.0741,0.44336 -0.0671,0.30611 -0.002,0.34444 0.22931,0.13505 z m -5.22809,-0.53129 c 0.0518,-0.44393 0.0482,-0.45485 -0.10357,-0.3175 -0.0864,0.0782 -0.22157,0.14224 -0.30029,0.14224 -0.11309,0 -0.1315,0.0489 -0.0878,0.23284 0.0663,0.27909 0.29226,0.55921 0.37724,0.46766 0.0334,-0.036 0.0849,-0.27238 0.11441,-0.52524 z m 4.47234,0.35391 c 0.022,-0.12806 0.0685,-0.29951 0.10333,-0.381 0.045,-0.10514 0.0247,-0.14817 -0.0697,-0.14817 -0.16406,0 -0.30837,0.25493 -0.30837,0.54477 0,0.29429 0.22373,0.28159 0.27475,-0.0156 z m 0.35663,-0.1 c 0.0268,-0.0434 0.01,-0.10275 -0.0373,-0.132 -0.0473,-0.0292 -0.0861,0.006 -0.0861,0.0788 0,0.14872 0.0508,0.17061 0.12338,0.0532 z m 4.19462,-0.006 c 0,-0.0466 -0.0572,-0.0847 -0.127,-0.0847 -0.0698,0 -0.127,0.0381 -0.127,0.0847 0,0.0466 0.0572,0.0847 0.127,0.0847 0.0699,0 0.127,-0.0381 0.127,-0.0847 z m -9.34016,-1.28588 c -0.027,-0.0675 -0.0471,-0.0475 -0.0512,0.0512 -0.004,0.0893 0.0163,0.13926 0.0445,0.11113 0.0281,-0.0281 0.0311,-0.10116 0.007,-0.16228 z m 9.16194,-0.30619 c 0.11481,-0.21452 0.006,-0.34876 -0.21528,-0.26587 -0.21579,0.0808 -0.31401,0.21661 -0.2415,0.33394 0.0856,0.13848 0.36883,0.0963 0.45678,-0.0681 z m -3.71645,-0.0529 c 0,-0.15921 -0.2462,-0.40185 -0.34549,-0.34049 -0.0902,0.0557 -0.10424,0.32215 -0.0214,0.405 0.10404,0.10404 0.36689,0.0578 0.36689,-0.0645 z m -4.826,-0.62693 c 0,-0.11024 -0.10065,-0.18356 -0.18252,-0.13296 -0.0876,0.0541 -0.0121,0.20351 0.10285,0.20351 0.0438,0 0.0797,-0.0317 0.0797,-0.0705 z m 9.144,-0.60678 c 0,-0.0466 -0.0168,-0.0847 -0.0373,-0.0847 -0.0205,0 -0.0609,0.0381 -0.0897,0.0847 -0.0288,0.0466 -0.012,0.0847 0.0373,0.0847 0.0493,0 0.0897,-0.0381 0.0897,-0.0847 z m -10.14447,-0.86501 c -0.0608,-0.0608 -0.10019,-0.0658 -0.10019,-0.0127 0,0.11301 0.10012,0.21314 0.15663,0.15663 0.0241,-0.0241 -0.001,-0.0888 -0.0564,-0.14393 z m 1.62376,-0.61666 c 0.0328,-0.0856 -0.004,-0.127 -0.11295,-0.127 -0.17449,0 -0.28533,0.11212 -0.19759,0.19986 0.0961,0.0961 0.26048,0.0576 0.31054,-0.0729 z m 6.48871,-0.43952 c 0.10024,-0.035 0.0913,-0.0578 -0.0423,-0.10818 -0.17872,-0.0674 -0.381,-0.0265 -0.381,0.077 0,0.0743 0.24763,0.0925 0.42333,0.0312 z m -6.096,-0.61881 c 0,-0.0466 -0.0168,-0.0847 -0.0373,-0.0847 -0.0205,0 -0.0609,0.0381 -0.0897,0.0847 -0.0288,0.0466 -0.012,0.0847 0.0373,0.0847 0.0493,0 0.0897,-0.0381 0.0897,-0.0847 z m 0.92577,-0.84667 c 0.26921,0 0.35032,-0.11639 0.13792,-0.1979 -0.15564,-0.0597 -0.81972,0.19784 -0.75985,0.29471 0.0248,0.0401 0.11649,0.0348 0.20374,-0.0119 0.0872,-0.0467 0.27543,-0.0849 0.41819,-0.0849 z m 0.045,-0.56601 c 0.30794,-0.14685 0.36324,-0.23109 0.21273,-0.3241 -0.1186,-0.0733 -0.7553,0.22988 -0.75801,0.36095 -0.003,0.14557 0.1901,0.13252 0.54528,-0.0369 z m 0.12987,-0.53465 c 0,-0.0466 -0.0381,-0.0847 -0.0847,-0.0847 -0.0466,0 -0.0847,0.0381 -0.0847,0.0847 0,0.0466 0.0381,0.0847 0.0847,0.0847 0.0466,0 0.0847,-0.0381 0.0847,-0.0847 z m 0.67903,-0.0444 c 0.0589,-0.071 0.0835,-0.15261 0.0547,-0.1814 -0.0615,-0.0615 -0.31045,0.12788 -0.31045,0.23614 0,0.11663 0.138,0.0871 0.2557,-0.0547 z m 0.33697,-0.37896 c 0,-0.0931 -0.0146,-0.16933 -0.0325,-0.16933 -0.0178,0 -0.0524,0.0762 -0.0767,0.16933 -0.0243,0.0931 -0.01,0.16934 0.0325,0.16934 0.0422,0 0.0767,-0.0762 0.0767,-0.16934 z m 1.25447,-0.3711 c -0.0147,-0.009 -0.0997,-0.0714 -0.18883,-0.13969 -0.15275,-0.11709 -0.15614,-0.11316 -0.0592,0.0687 0.0565,0.10608 0.1415,0.16894 0.18882,0.13969 0.0473,-0.0293 0.074,-0.0602 0.0593,-0.0687 z m 6.4502,12.65814 c 0,-0.23726 1.0006,-0.55336 1.40633,-0.44427 l 0.24467,0.0658 -0.19508,0.10482 c -0.4953,0.26614 -1.45592,0.44671 -1.45592,0.27367 z m -0.44552,-0.3702 c 0.0256,-0.10478 0.0757,-0.2286 0.11116,-0.27517 0.0355,-0.0466 0.0921,-0.27517 0.12589,-0.508 0.0663,-0.45732 0.32992,-1.05833 0.46419,-1.05833 0.10513,0 0.10414,0.0615 -0.0147,0.91191 -0.0731,0.52281 -0.14714,0.75343 -0.2924,0.91016 -0.24996,0.26972 -0.45793,0.27997 -0.39415,0.0194 z m -8.90872,-0.56869 c -0.1172,-0.23128 -0.21369,-0.54561 -0.21442,-0.6985 -7.5e-4,-0.15289 -0.0522,-0.49438 -0.1145,-0.75887 -0.10131,-0.43044 -0.0658,-0.80282 0.0575,-0.60328 0.14808,0.2396 0.40915,1.03133 0.44745,1.35693 0.0245,0.20808 0.0803,0.47243 0.12401,0.58746 0.10344,0.27207 0.1016,0.53678 -0.004,0.53678 -0.0458,0 -0.17913,-0.18923 -0.29633,-0.42052 z m 9.77757,0.26726 c 0,-0.0499 0.031,-0.10988 0.0688,-0.13326 0.0378,-0.0234 0.0766,-0.41488 0.0861,-0.87001 0.018,-0.85896 0.10966,-1.11822 0.30299,-0.8566 0.17842,0.24147 0.16138,0.97895 -0.0312,1.34836 -0.0935,0.17936 -0.13051,0.3261 -0.0823,0.3261 0.0482,0 0.34537,-0.13335 0.66031,-0.29633 0.31495,-0.16298 0.63683,-0.29633 0.71529,-0.29633 0.23215,0 0.16379,0.21791 -0.15661,0.49923 -0.21909,0.19236 -0.38357,0.26302 -0.61384,0.2637 -0.173,5e-4 -0.45743,0.0246 -0.63205,0.0534 -0.20205,0.0334 -0.3175,0.0195 -0.3175,-0.0383 z m -10.70265,-0.23394 c -0.36729,-0.13457 -0.89668,-0.50835 -0.89668,-0.63311 0,-0.0442 0.0711,-0.0804 0.15795,-0.0804 0.19926,0 1.31199,0.55252 1.45166,0.72082 0.0884,0.10653 0.0671,0.12493 -0.13875,0.11988 -0.13376,-0.003 -0.39214,-0.0605 -0.57418,-0.12723 z m 0.37332,-0.54093 c -0.0699,-0.0393 -0.29845,-0.12164 -0.508,-0.18293 -0.43478,-0.12715 -1.27,-0.85226 -1.27,-1.10255 0,-0.0864 0.0316,-0.15706 0.0701,-0.15706 0.0896,0 0.87619,0.51372 0.98818,0.64537 0.0466,0.0547 0.17962,0.12793 0.29567,0.16263 0.17542,0.0525 0.19432,0.043 0.11206,-0.0561 -0.18742,-0.22583 -0.1327,-2.00636 0.0552,-1.79716 0.11972,0.13326 0.2567,0.86349 0.2567,1.36846 0,0.27621 0.0555,0.65939 0.12324,0.85151 0.1249,0.35401 0.10533,0.39654 -0.12324,0.26785 z m 11.17398,-0.3207 c -0.001,-0.22119 -0.0379,-0.55457 -0.0817,-0.74084 -0.0862,-0.36624 -0.0215,-1.22766 0.0922,-1.22766 0.15051,0 0.24616,0.683 0.19282,1.37686 -0.0341,0.4435 -0.023,0.73528 0.0291,0.76748 0.0462,0.0286 0.20675,-0.10069 0.35668,-0.28726 0.53448,-0.66509 1.3065,-0.99436 0.96131,-0.41 -0.17297,0.29283 -0.67867,0.66229 -1.11419,0.81403 -0.43479,0.1515 -0.43388,0.15211 -0.43611,-0.29261 z m 0.55235,-0.98182 c 0,-0.31633 -0.0452,-0.59185 -0.11003,-0.6699 -0.13775,-0.16599 -0.24376,-1.24812 -0.12226,-1.24812 0.15597,0 0.36837,0.42606 0.38193,0.76612 0.007,0.184 0.0469,0.33455 0.088,0.33455 0.041,0 0.0484,0.1905 0.0164,0.42333 -0.0659,0.47922 0.047,0.56691 0.2453,0.1905 0.14544,-0.27608 1.04289,-1.1742 1.10813,-1.10896 0.0249,0.0249 -0.0218,0.22929 -0.10374,0.45418 -0.10651,0.29223 -0.24183,0.47114 -0.47432,0.62709 -0.17891,0.12 -0.46928,0.34202 -0.64526,0.49336 -0.17598,0.15134 -0.3344,0.27517 -0.35204,0.27517 -0.0176,0 -0.0321,-0.2418 -0.0321,-0.53732 z m -12.573,0.0717 c -0.058,-0.0699 -0.17942,-0.127 -0.26989,-0.127 -0.26373,0 -1.08478,-0.87476 -1.08478,-1.15575 0,-0.23095 0.009,-0.22659 0.48305,0.22731 0.26568,0.25452 0.53499,0.53009 0.59846,0.61236 0.19457,0.25217 0.28771,0.081 0.22576,-0.4148 -0.0635,-0.50802 0.0717,-1.14558 0.27931,-1.31792 0.11106,-0.0922 0.11876,0.0113 0.0644,0.86623 -0.034,0.53399 -0.0628,1.07568 -0.0642,1.20374 -0.003,0.26092 -0.0758,0.29423 -0.23212,0.10583 z m 13.10521,-1.42149 c -0.2773,-0.38804 -0.57454,-0.99462 -0.57454,-1.17246 0,-0.12136 0.0378,-0.13826 0.18645,-0.0833 0.21211,0.0785 0.46639,0.52268 0.51475,0.89924 0.0499,0.38858 0.2488,0.34238 0.46329,-0.10764 0.10496,-0.2202 0.30396,-0.53371 0.44222,-0.69669 l 0.2514,-0.29634 0.002,0.32307 c 0.003,0.39871 -0.10134,0.60757 -0.49533,0.99326 -0.44867,0.43923 -0.56277,0.45956 -0.79052,0.14085 z m 0.13329,-1.13968 c -0.64183,-0.87791 -0.84927,-1.26929 -0.73305,-1.38305 0.10097,-0.0988 0.58473,0.37231 0.78466,0.7642 0.21466,0.42078 0.42539,0.44534 0.58785,0.0685 0.0652,-0.15134 0.19448,-0.3842 0.28718,-0.51746 0.15302,-0.22 0.17628,-0.22846 0.25268,-0.0919 0.12322,0.22017 -0.0491,0.62271 -0.46446,1.08493 -0.19388,0.21577 -0.38181,0.3923 -0.41763,0.3923 -0.0358,0 -0.16957,-0.14287 -0.29723,-0.3175 z m 0.2637,-0.78989 c -0.0307,-0.0968 -0.30319,-0.43821 -0.60545,-0.75863 -0.30227,-0.32041 -0.52632,-0.6202 -0.4979,-0.66619 0.029,-0.0469 0.28851,0.0819 0.59038,0.29297 0.29629,0.20712 0.57695,0.37658 0.62368,0.37658 0.11099,0 0.19972,-0.22371 0.23549,-0.5937 0.0158,-0.16355 0.094,-0.4493 0.17374,-0.635 l 0.14499,-0.33764 0.0767,0.33867 c 0.0422,0.18627 0.0596,0.50119 0.0387,0.69983 -0.037,0.35209 -0.53987,1.45917 -0.66278,1.45917 -0.0339,0 -0.0868,-0.0792 -0.1175,-0.17606 z m -0.82727,-1.728 c -0.40961,-0.39827 -0.72257,-0.76 -0.69548,-0.80384 0.0604,-0.0977 0.46734,0.0704 0.60902,0.25153 0.0725,0.0928 0.12602,0.10255 0.19407,0.0356 0.0684,-0.0674 0.0127,-0.14779 -0.20539,-0.29633 -0.16463,-0.11212 -0.29959,-0.25556 -0.29991,-0.31875 -3.2e-4,-0.0686 -0.0531,-0.0947 -0.1311,-0.0648 -0.13318,0.0511 -0.94672,-0.67628 -0.85688,-0.76613 0.0247,-0.0247 0.19032,0.0313 0.36801,0.12453 0.17768,0.0932 0.45641,0.22788 0.6194,0.29929 0.16298,0.0714 0.38046,0.20854 0.48329,0.30475 0.2282,0.2135 0.27938,0.21845 0.27643,0.0268 -0.002,-0.12591 -0.57191,-0.56537 -0.74512,-0.5745 -0.0313,-0.002 -0.14513,-0.0519 -0.25293,-0.11175 -0.1078,-0.0598 -0.26967,-0.12294 -0.35972,-0.14029 -0.09,-0.0173 -0.23364,-0.0814 -0.31909,-0.14224 -0.28009,-0.19958 -0.69153,-0.56445 -0.69153,-0.61325 0,-0.2439 1.48665,0.45493 1.62806,0.76529 0.0508,0.1116 0.12444,0.20291 0.16353,0.20291 0.0938,0 0.0915,-0.28273 -0.003,-0.38524 -0.0925,-0.10014 -0.37436,-0.95221 -0.39076,-1.1811 -0.007,-0.0931 -0.0431,-0.30193 -0.0809,-0.464 -0.0591,-0.25322 -0.0514,-0.28022 0.055,-0.19196 0.3195,0.26516 0.56339,0.9108 0.62339,1.65026 0.037,0.45631 0.10427,0.77657 0.17545,0.83565 0.0929,0.0771 0.11503,0.0484 0.1134,-0.14741 -0.001,-0.13376 -0.0322,-0.37655 -0.0691,-0.53954 -0.0369,-0.16298 -0.0446,-0.38842 -0.017,-0.50098 l 0.0502,-0.20464 0.12983,0.20464 c 0.29466,0.46446 0.43884,1.01901 0.38941,1.49787 -0.0266,0.2579 -0.0929,0.49645 -0.14739,0.5301 -0.0751,0.0464 -0.0746,0.0693 0.002,0.0949 0.0601,0.02 0.0897,0.15273 0.0731,0.32775 l -0.0279,0.29407 -0.16327,-0.18616 c -0.30734,-0.35044 -0.311,-0.0958 -0.004,0.27886 0.16857,0.20572 0.29422,0.43216 0.27922,0.5032 -0.0182,0.0863 -0.27463,-0.11134 -0.77202,-0.59496 z m 0.88166,-0.27611 c -0.009,-0.26775 0.009,-0.69021 0.04,-0.93879 0.0502,-0.40351 0.0699,-0.43822 0.1843,-0.32382 0.20142,0.20143 0.23299,0.90934 0.0607,1.36056 -0.0817,0.21389 -0.17556,0.38889 -0.20862,0.38889 -0.0331,0 -0.0674,-0.21908 -0.0763,-0.48684 z m -8.47653,-1.31233 c -3e-5,-0.0349 0.0952,-0.0635 0.21161,-0.0635 0.11641,0 0.21166,0.0341 0.21166,0.0757 0,0.0416 -0.0952,0.0702 -0.2116,0.0635 -0.11639,-0.007 -0.21164,-0.0408 -0.21167,-0.0757 z m 6.69644,-1.19706 c -0.0537,-0.0647 -0.31409,-0.14462 -0.57874,-0.17768 -0.49636,-0.062 -1.26962,-0.32581 -1.41876,-0.48401 -0.0591,-0.0627 -0.007,-0.0753 0.17332,-0.0418 0.3237,0.0602 0.57055,-0.0666 0.37701,-0.19362 -0.0699,-0.0459 -0.23177,-0.0887 -0.35983,-0.0952 -0.12806,-0.007 -0.27093,-0.0214 -0.3175,-0.0331 -0.0466,-0.0116 -0.16087,-0.0259 -0.254,-0.0318 -0.20123,-0.0126 -0.22643,-0.22455 -0.0354,-0.29786 0.25714,-0.0987 0.78567,-0.0503 1.03908,0.0952 0.40632,0.23319 0.40807,0.0605 0.004,-0.3912 -0.20495,-0.22911 -0.42472,-0.48051 -0.48837,-0.55867 -0.0802,-0.0984 -0.14282,-0.11503 -0.20385,-0.054 -0.061,0.061 -0.0558,0.12698 0.0169,0.21463 0.14276,0.17202 0.0422,0.44393 -0.18695,0.50535 -0.6129,0.16431 -2.02733,-0.0493 -1.88212,-0.28426 0.0306,-0.0496 0.41802,-0.0864 0.90832,-0.0864 h 0.8549 l -0.51392,-0.34509 c -0.28266,-0.1898 -0.58027,-0.4184 -0.66135,-0.508 -0.14187,-0.15676 -0.13921,-0.16291 0.0703,-0.16291 0.256,0 0.94881,0.28203 1.03487,0.42128 0.0362,0.0585 0.15689,0.0753 0.30613,0.0425 0.20416,-0.0448 0.32093,0.005 0.68106,0.29196 0.31523,0.25099 0.46347,0.32217 0.53953,0.25905 0.0766,-0.0635 0.1758,-0.006 0.36762,0.21222 0.38502,0.43851 0.58594,0.89532 0.73561,1.67248 0.0343,0.17798 -0.0726,0.19389 -0.20785,0.0309 z m -0.26506,-0.49627 c -0.004,-0.13867 -0.58613,-1.23219 -0.59697,-1.12184 -0.005,0.0466 -0.008,0.2466 -0.008,0.4445 6.1e-4,0.32416 -0.0196,0.35984 -0.20374,0.35984 -0.32373,0 -0.23834,0.1149 0.19819,0.26669 0.50273,0.17481 0.61424,0.18409 0.61017,0.0508 z m -4.2503,-1.86313 c -0.26722,-0.0919 -0.46499,-0.20079 -0.4395,-0.24204 0.0255,-0.0412 0.30128,-0.0737 0.61286,-0.0722 0.43348,0.002 0.61275,0.0414 0.76346,0.16696 0.42641,0.35539 -0.0936,0.43714 -0.93682,0.14726 z"
       id="path1570"
       inkscape:connector-curvature="0" />
  </g>
</svg>
