<?xml version="1.0" encoding="UTF-8" standalone="no"?>
<!-- Created with Inkscape (http://www.inkscape.org/) -->

<svg
   width="153.57545mm"
   height="65.957123mm"
   viewBox="0 0 153.57542 65.957105"
   version="1.1"
   id="svg5"
   inkscape:version="1.1 (c4e8f9ed74, 2021-05-24)"
   sodipodi:docname="divider34.svg"
   xmlns:inkscape="http://www.inkscape.org/namespaces/inkscape"
   xmlns:sodipodi="http://sodipodi.sourceforge.net/DTD/sodipodi-0.dtd"
   xmlns="http://www.w3.org/2000/svg"
   xmlns:svg="http://www.w3.org/2000/svg">
  <sodipodi:namedview
     id="namedview7"
     pagecolor="#ffffff"
     bordercolor="#666666"
     borderopacity="1.0"
     inkscape:pageshadow="2"
     inkscape:pageopacity="0.0"
     inkscape:pagecheckerboard="0"
     inkscape:document-units="mm"
     showgrid="false"
     inkscape:zoom="0.94615212"
     inkscape:cx="273.21188"
     inkscape:cy="373.61857"
     inkscape:window-width="2506"
     inkscape:window-height="1403"
     inkscape:window-x="1974"
     inkscape:window-y="0"
     inkscape:window-maximized="1"
     inkscape:current-layer="layer1" />
  <defs
     id="defs2" />
  <g
     inkscape:label="Layer 1"
     inkscape:groupmode="layer"
     id="layer1"
     transform="translate(307.26724,-112.82534)">
    <path
       style="fill:#000000;stroke-width:0.264583"
       d="m -234.07836,178.57208 c -0.0313,-0.0312 -15.94606,-0.0688 -35.36611,-0.0835 -19.42004,-0.0147 -35.76128,-0.0945 -36.31386,-0.17745 -0.73892,-0.1109 -0.9823,-0.26379 -0.92005,-0.57798 0.0757,-0.38224 0.81513,-0.42028 7.02396,-0.36137 l 6.93932,0.0658 v -1.4549 -1.4549 h -6.05234 c -3.32879,0 -6.42441,-0.0744 -6.87917,-0.16536 -0.69009,-0.13802 -0.82749,-0.0833 -0.83087,0.33073 -0.003,0.41713 -0.0449,0.43293 -0.26053,0.0992 -0.14107,-0.21828 -0.25831,-0.66477 -0.26054,-0.99219 -0.004,-0.5648 0.0976,-0.59531 1.98033,-0.59531 h 1.98437 v -1.45521 -1.45521 h -1.71979 c -1.52597,0 -1.71979,0.0579 -1.71979,0.51355 0,0.28246 -0.11198,0.58276 -0.24884,0.66734 -0.15366,0.095 -0.25739,-3.8653 -0.27119,-10.35383 -0.0123,-5.7792 0.0295,-10.45505 0.0928,-10.39078 0.0633,0.0643 0.15254,4.19474 0.19821,9.17883 l 0.083,9.06197 h 1.29403 1.29403 l -0.47879,-0.7276 c -1.08004,-1.6413 -1.23105,-2.17874 -1.04056,-3.7034 0.23461,-1.87772 0.78412,-2.90393 2.81716,-5.26102 1.64108,-1.90266 2.84444,-4.16778 2.86404,-5.39105 0.006,-0.3648 -0.4061,-1.72475 -0.91542,-3.02211 -0.50932,-1.29736 -0.92604,-2.50709 -0.92604,-2.68828 0,-0.18119 -0.5413,-0.53616 -1.20289,-0.78882 -0.66159,-0.25267 -1.73729,-0.7983 -2.39044,-1.21251 -0.65315,-0.41422 -1.24294,-0.75312 -1.31065,-0.75312 -0.0677,0 -0.14352,1.16086 -0.16846,2.57969 -0.0446,2.53446 -0.0484,2.51707 -0.21849,-0.99219 -0.0952,-1.96453 -0.0779,-3.6819 0.0385,-3.81636 0.12223,-0.14121 0.47269,0.0372 0.82967,0.4224 0.66879,0.72164 2.59423,1.90453 3.57918,2.19886 0.56938,0.17015 0.60216,0.1218 0.47466,-0.70012 -0.0753,-0.4856 -0.20795,-1.44127 -0.29471,-2.12372 -0.1411,-1.10983 -0.24844,-1.27074 -1.01691,-1.52436 -0.47254,-0.15595 -1.53789,-0.70809 -2.36743,-1.22698 l -1.50827,-0.94342 v -4.06175 c 0,-3.20866 0.0812,-4.14291 0.38638,-4.44814 0.21252,-0.21251 0.69517,-1.03854 1.07258,-1.83563 0.93153,-1.96743 2.91776,-4.38228 4.45365,-5.41474 l 1.26757,-0.85209 -3.52395,-0.074 c -3.3229,-0.0697 -3.52394,-0.10414 -3.52394,-0.60312 0,-0.42049 0.20376,-0.54603 0.99219,-0.61128 1.06391,-0.0881 1.03561,-0.0301 1.09673,-2.24811 l 0.0278,-1.00731 -1.05834,0.0761 c -1.00007,0.0719 -1.05833,0.0354 -1.05833,-0.66229 v -0.73838 l 7.48929,0.0236 7.48928,0.0236 -0.081,-1.26438 -0.081,-1.26437 -1.45521,-0.19586 c -0.80036,-0.10773 -4.04482,-0.17032 -7.2099,-0.13909 l -5.75468,0.0568 -0.008,1.06513 c -0.005,0.71463 -0.0809,0.93453 -0.22949,0.66826 -0.12179,-0.21828 -0.20747,-0.97471 -0.19039,-1.68095 l 0.031,-1.28406 15.08125,0.0827 c 8.29469,0.0455 19.18891,0.0729 24.20938,0.0609 62.40432,-0.14925 113.42724,0.0417 113.84564,0.42601 0.11391,0.10464 0.13094,0.38876 0.0378,0.63137 -0.1443,0.37605 -0.61391,0.44112 -3.18367,0.44112 h -3.0144 v 1.32292 1.32291 h 3.175 c 3.25885,0 3.41261,0.055 2.95796,1.05834 -0.14929,0.32947 -0.92122,0.39687 -4.54546,0.39687 h -4.36563 l -0.0787,1.35347 c -0.0774,1.33062 -0.0646,1.35631 0.76068,1.52136 0.46168,0.0923 2.55885,0.16788 4.66037,0.16788 h 3.82096 l -0.0837,0.7276 c -0.0788,0.68469 -0.14615,0.7198 -1.14205,0.59532 -0.58208,-0.0728 -2.66568,-0.12818 -4.63021,-0.12315 -3.07346,0.008 -3.78095,0.0924 -5.07025,0.60572 l -1.49838,0.59659 -0.0891,1.55257 c -0.049,0.85392 1.7e-4,1.49705 0.10932,1.42918 0.10914,-0.0679 0.19843,-0.004 0.19843,0.14119 0,0.14552 -0.11137,0.33342 -0.2475,0.41755 -0.2203,0.13615 -1.60458,2.93137 -1.60458,3.24006 0,0.0676 0.58245,-0.3047 1.29433,-0.82727 3.05095,-2.2396 6.20512,-2.99532 9.02442,-2.1622 2.11449,0.62486 3.55499,1.50835 3.66042,2.24503 0.14903,1.04126 -0.33027,1.19603 -1.44802,0.46756 -2.50445,-1.6322 -5.97034,-1.88888 -8.44666,-0.62555 -1.71495,0.8749 -3.55532,2.2275 -3.55532,2.613 0,0.16861 0.356,1.20966 0.79112,2.31345 0.47716,1.21045 0.87091,2.82146 0.99218,4.05947 l 0.20107,2.05259 1.57242,-1.47689 c 2.66964,-2.50743 4.74599,-3.20813 8.00504,-2.70146 l 1.93192,0.30035 v 2.75899 c 0,2.40714 -0.0534,2.73852 -0.41852,2.5984 -0.23018,-0.0883 -0.52784,-0.1606 -0.66146,-0.1606 -0.13362,0 -0.24294,-0.40214 -0.24294,-0.89365 0,-1.06945 -0.55095,-1.60591 -1.42419,-1.38674 -0.42376,0.10636 -0.68587,0.0334 -0.78224,-0.21773 -0.0797,-0.20772 -0.37706,-0.50191 -0.66077,-0.65375 -0.4028,-0.21557 -0.66641,-0.15762 -1.20301,0.26447 -0.37795,0.29729 -0.80846,0.46558 -0.95669,0.37397 -0.45065,-0.27852 -1.25739,0.11691 -1.40719,0.68974 -0.0842,0.32207 0.049,0.73024 0.33001,1.01128 0.25918,0.25918 0.55394,0.80074 0.65502,1.20347 0.16727,0.66648 0.26683,0.71875 1.10875,0.58213 0.80496,-0.13063 0.95688,-0.0662 1.17089,0.49668 0.28919,0.76065 0.69801,0.81279 1.57215,0.20052 0.35043,-0.24545 1.15083,-0.52423 1.77867,-0.61951 l 1.14152,-0.17324 v 0.84882 c 0,0.77339 -0.12345,0.90075 -1.38907,1.43313 -1.55132,0.65257 -3.75112,0.97095 -4.83284,0.69946 -0.54522,-0.13685 -0.68063,-0.30151 -0.57624,-0.7007 0.17078,-0.65306 -0.53123,-1.38863 -1.16668,-1.22246 -0.30608,0.08 -0.63102,-0.10925 -0.90481,-0.52712 -0.40286,-0.61485 -0.46303,-0.62854 -1.05559,-0.24028 -0.38956,0.25525 -0.91618,0.35416 -1.38567,0.26027 -0.52922,-0.10585 -0.86976,-0.0159 -1.13076,0.29855 -0.32659,0.39352 -0.30813,0.50432 0.14711,0.8827 0.32034,0.26626 0.48624,0.67562 0.43129,1.06423 -0.0961,0.67954 0.39816,1.16369 0.97243,0.95257 0.19468,-0.0716 0.57528,0.13805 0.84577,0.4658 0.48102,0.58286 0.50999,0.58578 1.32112,0.13291 0.61613,-0.34399 1.43357,-0.46302 3.17988,-0.46302 1.44121,0 2.82446,-0.16089 3.57552,-0.41589 0.67373,-0.22873 1.30278,-0.33806 1.3979,-0.24295 0.47344,0.47344 -2.24168,1.51201 -5.2347,2.00234 -2.14993,0.35221 -3.81226,0.29759 -4.3967,-0.14446 -0.61262,-0.46337 -1.43963,-0.5252 -1.43963,-0.10764 0,0.19045 -0.28952,0.23976 -0.80382,0.1369 -0.57654,-0.11531 -0.84638,-0.0498 -0.95435,0.23151 -0.0828,0.21575 -0.34615,0.39409 -0.58524,0.39632 -0.98076,0.009 -1.13333,0.40775 -0.44172,1.15401 0.36765,0.39671 0.66846,0.83422 0.66846,0.97224 0,0.41316 0.79794,0.28333 0.96704,-0.15735 0.13738,-0.35801 0.22104,-0.35004 0.67936,0.0647 0.50537,0.45736 0.54155,0.4501 1.09179,-0.2192 0.31301,-0.38072 0.82578,-0.82476 1.1395,-0.98674 0.76658,-0.39582 5.72237,-1.1271 5.96872,-0.88075 0.40736,0.40737 -7.63637,3.09895 -10.30094,3.44689 -1.19587,0.15615 -2.53533,0.4706 -2.97656,0.69877 -0.85717,0.44326 -1.05653,1.11405 -0.40537,1.36392 0.49769,0.19098 0.52018,0.62485 0.0324,0.62485 -0.20046,0 -0.52402,0.19224 -0.71902,0.4272 -0.30408,0.3664 -0.26571,0.49913 0.26967,0.93266 0.34332,0.278 0.57758,0.5372 0.52059,0.576 -0.057,0.0388 -0.53881,0.35781 -1.0707,0.7089 -0.53189,0.35109 -1.17777,1.00097 -1.43528,1.44419 -0.25752,0.44321 -0.55653,0.86625 -0.66448,0.94009 -0.78159,0.53462 -1.82796,2.29605 -1.82796,3.07713 0,0.7169 -0.10403,0.88966 -0.53572,0.88966 -0.33539,0 -0.6349,0.26088 -0.80096,0.69764 -0.22333,0.58741 -0.17539,0.76058 0.30338,1.09592 0.50438,0.35329 0.52014,0.42541 0.1395,0.63842 -0.53106,0.2972 -0.55141,1.0061 -0.0483,1.68464 0.31019,0.4184 0.47276,0.45753 0.87717,0.21114 0.32284,-0.1967 0.65104,-0.21592 0.93865,-0.055 0.7011,0.39236 1.58677,-0.21252 1.43946,-0.9831 -0.0819,-0.42841 0.0194,-0.67672 0.31423,-0.77029 0.59501,-0.18885 0.6889,-1.61484 0.12068,-1.83288 -0.3721,-0.14279 -0.34284,-0.25347 0.21434,-0.81065 0.35867,-0.35867 0.78355,-1.2443 0.95658,-1.99388 0.528,-2.28741 1.65426,-4.25808 3.48456,-6.0971 2.06806,-2.0779 3.79095,-3.07953 7.89606,-4.59049 3.44849,-1.26928 5.05852,-2.02744 6.33011,-2.9808 l 0.85989,-0.6447 v 0.88246 c 0,0.70261 -0.16401,0.97934 -0.80476,1.35784 -0.5818,0.34368 -0.76188,0.61054 -0.64995,0.96318 0.11586,0.36504 0.002,0.50945 -0.45201,0.57385 -0.90325,0.12809 -0.85788,1.3742 0.0546,1.50057 0.36381,0.0504 0.75667,0.25874 0.87305,0.46302 0.3342,0.58667 0.66962,0.43536 0.78953,-0.35618 0.0606,-0.40018 0.11587,1.29646 0.12278,3.77031 0.007,2.64985 -0.0728,4.17179 -0.19513,3.70417 -0.2298,-0.87826 -1.27468,-2.89193 -2.72011,-5.24215 -0.52024,-0.84589 -1.02509,-2.00675 -1.12188,-2.57969 -0.0968,-0.57293 -0.28214,-1.0417 -0.41187,-1.0417 -0.31468,0 -5.41319,2.05249 -6.64498,2.67505 -0.53583,0.27081 -1.04757,0.61104 -1.1372,0.75606 -0.4737,0.76648 3.35954,4.52603 6.47706,6.35256 2.39214,1.40152 5.06771,2.73993 5.47732,2.73993 0.20081,0 0.34352,0.31145 0.34352,0.74966 0,0.41231 -0.0991,0.74965 -0.22016,0.74965 -0.46831,0 -5.83525,-2.84089 -7.63296,-4.04036 -1.04047,-0.69423 -2.81051,-2.23885 -3.9334,-3.4325 l -2.04164,-2.17027 -0.75884,0.90897 c -0.41736,0.49993 -0.75884,0.99815 -0.75884,1.10715 0,0.4874 4.79374,4.96405 6.28386,5.8682 0.9095,0.55186 1.65364,1.12084 1.65364,1.26442 0,0.14357 0.10621,0.1954 0.23602,0.11517 0.12982,-0.0802 1.11994,0.25694 2.20027,0.74926 1.08034,0.49233 2.63025,1.10508 3.44425,1.36167 1.44368,0.45508 1.48281,0.49312 1.59498,1.55022 0.0632,0.59603 0.067,1.17299 0.008,1.28213 -0.0587,0.10914 -2.30233,0.19844 -4.98588,0.19844 h -4.87917 v 1.5875 1.5875 h 4.89479 c 4.7184,0 4.89479,0.0191 4.89479,0.52917 0,0.60022 0.15461,0.57383 -3.10885,0.53059 l -2.4474,-0.0324 v 0.77619 c 0,0.4269 -0.0744,1.14825 -0.16536,1.603 l -0.16536,0.82682 h 2.94349 c 2.78646,0 2.94348,0.0288 2.94348,0.53982 v 0.53982 l -40.10628,-0.0768 c -22.05845,-0.0422 -40.13191,-0.10236 -40.16322,-0.13359 z m 21.64708,-1.12728 c 0.60424,-0.22973 0.67868,-0.40386 0.67868,-1.5875 v -1.32947 h -5.29167 -5.29166 v 0.62839 c 0,0.34561 -0.0738,0.99751 -0.16406,1.44867 l -0.16405,0.82028 4.46353,0.0795 c 2.45495,0.0437 4.60461,0.10622 4.77704,0.13884 0.17243,0.0326 0.61891,-0.0568 0.99219,-0.19874 z m 13.57712,0.0318 2.18281,-0.0384 v -1.45521 -1.45521 h -7.01146 -7.01146 v 1.44528 1.44528 l 2.4474,0.0763 c 2.32697,0.0725 4.47815,0.0684 9.39271,-0.018 z m 16.47031,-1.3426 v -1.60619 h -6.61458 -6.61459 l 5.3e-4,1.52136 5.3e-4,1.52135 6.61416,0.0848 6.61416,0.0848 v -1.6062 z m 10.14953,1.40056 1.22755,-0.16826 v -1.41924 -1.41925 h -5.15937 -5.15938 v 1.5875 1.5875 h 3.93182 c 2.1625,0 4.48422,-0.0757 5.15938,-0.16825 z m 11.75803,-1.48822 0.0794,-1.52419 -4.77498,0.069 -4.77497,0.069 -7.9e-4,1.5081 -8e-4,1.5081 4.69636,-0.0529 4.69635,-0.0529 0.0794,-1.52418 z m -117.20921,1.13431 c 0.55946,-0.006 0.60315,-0.10786 0.52917,-1.22845 l -0.0806,-1.22144 -7.14375,-0.0353 -7.14375,-0.0353 -0.0812,1.42388 -0.0812,1.42388 6.69576,-0.16011 c 3.68267,-0.0881 6.97018,-0.16326 7.30557,-0.16711 z m 17.77874,-1.04204 v -1.34621 l -2.84428,-0.0259 c -1.56434,-0.0143 -5.19575,-0.0735 -8.06979,-0.13156 l -5.22552,-0.10564 v 1.30014 c 0,0.72922 0.13094,1.34379 0.29818,1.39954 0.16399,0.0547 3.7954,0.1346 8.06979,0.17763 l 7.77162,0.0782 z m 11.90986,0.57202 c 0.002,-0.40019 0.0754,-0.9955 0.16315,-1.32292 l 0.15954,-0.59531 h -5.5839 -5.5839 l 0.0995,0.85989 c 0.0547,0.47295 0.11282,1.06826 0.12909,1.32292 0.0271,0.42455 0.46921,0.46302 5.32124,0.46302 h 5.29167 l 0.004,-0.7276 z m 12.38015,-0.66146 c 0.0571,-0.89053 -0.0199,-1.26304 -0.26458,-1.27827 -0.18987,-0.0118 -0.70241,-0.062 -1.13898,-0.11162 -0.43656,-0.0496 -2.78591,-0.0225 -5.22079,0.0602 l -4.42703,0.15031 -0.1661,0.88536 c -0.32545,1.7348 -0.44123,1.70149 5.6405,1.62234 l 5.49634,-0.0715 z m 12.17017,0 -0.08,-1.38906 -5.4901,-0.0715 -5.4901,-0.0715 v 1.46057 1.46058 h 5.57007 5.57008 z m -65.56435,-4.16719 v -1.5875 h -6.35 -6.35 v 1.45015 1.45014 l 5.88698,0.0765 c 3.23784,0.0421 6.09534,0.1039 6.35,0.13735 0.39628,0.0521 0.46302,-0.16799 0.46302,-1.52668 z m 9.85573,1.32653 7.60677,-0.004 v -1.45521 -1.45521 l -4.96094,-0.0587 c -2.72851,-0.0323 -5.73484,-0.0744 -6.68073,-0.0935 -0.94588,-0.0191 -2.4044,0.0242 -3.24114,0.0964 l -1.52136,0.13123 v 1.58067 c 0,1.51009 0.0266,1.57355 0.59532,1.42113 0.32742,-0.0877 4.01835,-0.16116 8.20208,-0.16315 z m 26.92135,-1.32653 v -1.5875 h -8.99583 -8.99583 l -0.0202,0.59531 c -0.0111,0.32743 -0.062,0.81649 -0.11306,1.08681 -0.14815,0.78448 0.12586,1.18947 0.88329,1.30553 0.38787,0.0594 4.42592,0.1259 8.97345,0.14771 l 8.26822,0.0396 z m 10.41151,1.38688 c 0.0682,-0.11034 0.16064,-0.79495 0.20544,-1.52135 l 0.0814,-1.32074 -4.60199,-0.0726 c -3.05941,-0.0483 -4.66066,0.0223 -4.77701,0.2106 -0.14884,0.24082 -0.15589,0.99479 -0.0241,2.57397 0.0209,0.25048 1.11518,0.33073 4.50991,0.33073 2.46526,0 4.5381,-0.0903 4.60629,-0.20062 z m 12.60724,-1.54175 v -1.43263 h -5.68854 -5.68854 v 1.44832 1.44832 l 3.9026,0.073 c 2.14643,0.0402 4.70628,0.0331 5.68854,-0.0157 l 1.78594,-0.0887 v -1.43263 z m 15.49679,0.22941 c 0.0977,-0.78191 0.13236,-1.46692 0.077,-1.52224 -0.11468,-0.11469 -5.1868,-0.19031 -10.74517,-0.16021 l -3.77032,0.0204 0.004,1.12448 c 0.005,1.36977 0.19704,1.70343 1.05429,1.83112 0.3638,0.0542 3.48319,0.10518 6.93197,0.11331 l 6.27052,0.0148 0.17763,-1.42165 z m 12.70964,1.09445 c -0.0883,-0.23019 -0.1606,-0.94693 -0.1606,-1.59277 v -1.17424 l -5.62239,0.0714 -5.6224,0.0714 -0.0792,1.36715 c -0.0657,1.13389 0.002,1.38822 0.39687,1.49066 0.26185,0.0679 2.89985,0.13733 5.86221,0.15421 4.81049,0.0274 5.36896,-0.014 5.22552,-0.38782 z m 14.67253,-0.0445 c 0.009,-0.25466 0.0745,-0.96904 0.14552,-1.5875 l 0.12906,-1.12448 h -6.89239 -6.8924 v 1.5875 1.5875 h 6.74688 c 6.24293,0 6.7481,-0.0346 6.76333,-0.46302 z m 9.2866,-1.13133 0.0897,-1.59435 -4.0939,0.073 -4.09391,0.073 -0.0613,1.52136 -0.0613,1.52135 h 4.06557 4.06557 z m 12.39277,0.007 v -1.5875 h -5.52539 c -5.50638,0 -5.52594,0.002 -5.68493,0.59531 -0.0877,0.32743 -0.16116,1.0418 -0.16315,1.5875 l -0.004,0.99219 h 5.68854 5.68854 z m -85.27655,-3.70417 c -0.59039,-1.12671 -0.46703,-2.85541 0.33281,-4.66358 0.83749,-1.89329 0.72753,-3.23832 -0.36681,-4.4866 l -0.90847,-1.03627 -2.86184,2.93609 c -2.83693,2.91054 -5.34668,4.78272 -8.13789,6.07057 -1.33071,0.61398 -4.64376,1.65803 -5.60039,1.76487 -0.97117,0.10847 8.02957,0.34653 12.99692,0.34377 l 5.03091,-0.003 z m 63.47395,0.72414 c 0.0905,-0.0905 -0.0866,-0.51716 -0.39353,-0.94818 -0.82565,-1.15952 -0.73875,-2.62208 0.23572,-3.9673 0.43656,-0.60266 0.79375,-1.29369 0.79375,-1.53563 0,-0.52166 -1.6745,-3.58585 -2.19616,-4.01879 -0.2868,-0.23802 -0.52578,-0.0998 -1.13413,0.65593 -2.90934,3.61421 -3.56873,4.24419 -6.36928,6.08527 -2.59899,1.70858 -4.34277,2.54025 -6.67474,3.18344 l -1.74965,0.48258 5.55625,0.14275 c 6.77208,0.17399 11.71085,0.14085 11.93177,-0.0801 z m 32.12135,0.1077 c -0.21828,-0.1373 -1.34937,-0.56765 -2.51354,-0.95633 -1.16417,-0.38868 -3.17228,-1.26243 -4.46247,-1.94167 -2.41145,-1.26953 -6.82009,-4.69894 -7.87506,-6.12587 -0.32685,-0.44209 -0.68239,-0.8038 -0.79009,-0.8038 -0.33108,0 -1.19731,2.65358 -1.68421,5.15938 -0.51067,2.62814 -0.70705,3.12863 -1.6092,4.10104 l -0.61366,0.66146 9.97256,0.0777 c 6.32321,0.0493 9.82731,-0.0136 9.57567,-0.17193 z m -126.73541,-0.7071 c -0.94589,-0.35271 -1.83885,-0.61858 -1.98438,-0.5908 -0.53924,0.10291 -5.40106,-2.41614 -7.55907,-3.91659 -1.22678,-0.85297 -3.04192,-2.37107 -4.03365,-3.37356 -0.99173,-1.00249 -1.83144,-1.78084 -1.86602,-1.72967 -1.05254,1.55752 -1.19087,2.08286 -1.46798,5.57509 -0.16666,2.10042 -0.36803,3.07856 -0.77618,3.77031 l -0.55112,0.93409 9.97909,-0.0138 9.9791,-0.0138 z m 39.32737,0.20585 c -0.0681,-0.85816 -0.53614,-1.12303 -0.88727,-0.50211 -0.46221,0.81734 -0.4175,0.96513 0.29196,0.96513 0.43957,0 0.62087,-0.14101 0.59531,-0.46302 z m 24.41516,0.35507 c -0.0606,-0.0594 -1.18153,-0.41798 -2.49088,-0.79689 -3.83946,-1.1111 -10.27426,-5.01333 -12.53968,-7.60439 -0.87179,-0.99709 -0.90805,-1.01121 -1.27009,-0.49433 -0.53949,0.77023 -1.12988,3.82696 -1.13521,5.87749 -0.003,0.97279 -0.1207,2.07412 -0.26262,2.44739 l -0.25804,0.67868 h 9.03338 c 4.96836,0 8.98378,-0.0486 8.92314,-0.10795 z m 34.49622,-1.20856 c -0.1057,-0.4042 0.0368,-0.51417 0.75559,-0.58301 0.80753,-0.0773 0.87844,-0.15362 0.80184,-0.8626 -0.0462,-0.42776 0.0624,-1.05131 0.24134,-1.38567 0.42157,-0.78771 -0.0785,-2.59975 -0.8281,-3.00095 -0.66369,-0.35519 -0.67693,-0.78029 -0.0189,-0.60822 0.3898,0.10193 0.5717,-0.0835 0.82011,-0.83625 0.17557,-0.53198 0.27759,-0.98903 0.22671,-1.01566 -1.44152,-0.75442 -1.67444,-0.98688 -1.5982,-1.59499 0.14084,-1.12332 -1.28013,-2.1606 -4.05406,-2.95939 -4.24252,-1.22169 -8.47363,-3.41325 -4.80749,-2.4901 0.66358,0.16709 1.4109,0.52964 1.66069,0.80566 0.48565,0.53664 1.29811,0.66554 1.55678,0.24701 0.0916,-0.14825 0.51319,-0.038 1.0078,0.26359 1.12588,0.68648 1.77634,0.67278 1.77634,-0.0374 0,-0.447 0.11873,-0.52805 0.59751,-0.40789 0.69224,0.17375 1.09012,-0.0332 1.33401,-0.69391 0.20521,-0.55591 -0.64239,-1.51535 -1.33871,-1.51535 -0.25604,0 -0.60487,-0.22312 -0.77517,-0.49582 -0.1703,-0.2727 -0.63882,-0.57844 -1.04115,-0.67942 -0.58167,-0.14599 -0.82814,-0.058 -1.20332,0.42968 -0.2595,0.3373 -0.47447,0.46444 -0.47771,0.28254 -0.003,-0.1868 -0.33807,-0.33073 -0.7692,-0.33073 -0.53222,0 -0.9013,0.21058 -1.21906,0.69554 -0.42033,0.64151 -0.56143,0.68398 -1.81636,0.5468 -1.39742,-0.15277 -6.98907,-1.90206 -8.72295,-2.72889 -1.86406,-0.88891 -1.41841,-0.88419 4.24567,0.0449 0.46866,0.0769 1.20022,0.4327 1.6257,0.79071 0.92585,0.77905 1.73831,0.83159 2.3218,0.15013 0.33969,-0.39674 0.58971,-0.45465 1.20319,-0.27871 1.25366,0.35955 2.01428,-0.25283 1.66823,-1.3431 -0.0871,-0.27437 0.0175,-0.52335 0.25859,-0.61588 0.23142,-0.0888 0.40476,-0.47615 0.40476,-0.90446 0,-1.28273 -0.96391,-1.79105 -1.85946,-0.98058 -0.39965,0.36167 -0.48067,0.36167 -0.78083,0 -0.46091,-0.55536 -2.01738,-0.52919 -2.23487,0.0376 -0.12901,0.33621 -0.24272,0.36767 -0.4781,0.1323 -0.4006,-0.40061 -1.33295,-0.39595 -1.73757,0.009 -0.17463,0.17463 -0.3175,0.636 -0.3175,1.02526 0,0.90619 -0.95185,1.13535 -3.1027,0.74701 -3.23703,-0.58446 -4.75459,-1.29258 -6.4058,-2.98904 -1.32498,-1.36128 -1.28183,-1.76605 0.11748,-1.10203 0.52067,0.24707 1.54866,0.54438 2.28442,0.66069 0.92586,0.14636 1.53672,0.42604 1.98393,0.90834 0.75309,0.81217 1.55255,0.89869 1.97998,0.21427 0.28588,-0.45776 0.33353,-0.45043 0.92651,0.14255 0.51606,0.51606 0.72006,0.57433 1.16918,0.33397 0.29923,-0.16014 0.67633,-0.58148 0.83799,-0.9363 0.16167,-0.35482 0.45068,-0.64513 0.64225,-0.64513 0.19157,0 0.54334,-0.29766 0.78171,-0.66146 0.3999,-0.61033 0.40026,-0.71204 0.005,-1.31582 -0.36635,-0.55911 -0.52733,-0.61688 -1.10599,-0.39687 -0.89656,0.34087 -0.90737,0.33785 -0.90737,-0.25386 0,-0.28854 -0.24429,-0.58887 -0.56069,-0.68929 -0.56332,-0.17879 -1.82056,0.31122 -1.82056,0.70956 0,0.11729 -0.33409,0.14644 -0.74242,0.0648 -0.77049,-0.15409 -1.19516,0.16173 -1.76741,1.31441 -0.34173,0.68834 -1.07631,0.82281 -2.45978,0.45028 -1.14017,-0.30701 -3.37008,-2.10902 -3.63234,-2.93531 -0.0915,-0.28838 -0.40053,-0.51975 -0.69412,-0.51975 -0.62311,0 -0.56105,0.30392 0.5801,2.84099 0.84924,1.88809 2.85155,4.13571 4.88926,5.48826 0.76421,0.50726 3.57496,1.91153 6.24611,3.12061 5.95487,2.69543 6.61803,3.08664 9.17276,5.41114 1.54133,1.40243 2.25373,2.29204 2.94169,3.67344 0.49929,1.00257 1.08329,2.03121 1.29778,2.28587 0.34709,0.41211 0.34089,0.46302 -0.0564,0.46302 -0.52173,0 -1.01641,1.07056 -0.66629,1.44198 0.41922,0.44473 0.25475,0.64324 -0.49067,0.59221 -0.6431,-0.044 -0.7374,0.0524 -0.812,0.83008 -0.0671,0.69904 0.025,0.90851 0.44805,1.01913 0.32945,0.0862 0.56337,0.40237 0.61356,0.82943 0.0563,0.47935 0.2832,0.74231 0.74258,0.86077 0.77769,0.20054 1.3323,-0.32119 1.13667,-1.06928 z m 3.96419,0.26558 c -0.38516,-0.98054 -0.86753,-1.21465 -0.86753,-0.42106 0,0.19188 -0.17859,0.49709 -0.39687,0.67824 -0.65583,0.5443 -0.45465,0.79375 0.64017,0.79375 h 1.03705 z m -65.60259,0.21441 c 0.0823,-0.31457 0.0366,-0.78299 -0.10144,-1.04094 -0.36938,-0.69021 -0.30967,-0.81839 0.24338,-0.5224 1.28646,0.68849 1.11317,-1.2995 -0.3561,-4.08528 -1.16032,-2.19998 -1.17185,-2.24611 -0.56157,-2.24611 0.71976,0 1.2722,-0.54098 1.00082,-0.98008 -0.10227,-0.16548 -0.52127,-0.38504 -0.93111,-0.4879 -0.61092,-0.15333 -0.7181,-0.2949 -0.5949,-0.78576 0.19155,-0.76317 -0.3853,-1.14844 -3.05653,-2.04141 -1.12997,-0.37773 -2.93765,-1.28858 -4.10104,-2.06641 -2.54505,-1.70158 -2.35854,-1.53593 -2.06253,-1.83193 0.33369,-0.3337 2.09523,0.0823 2.63528,0.6224 0.49309,0.49308 0.81726,0.54098 1.05523,0.15593 0.10096,-0.16334 0.48397,-0.005 0.96196,0.39688 0.98683,0.83036 1.15761,0.83061 1.92479,0.003 0.35641,-0.38457 0.78339,-0.60151 1.01158,-0.51395 0.49447,0.18975 1.25683,-0.54507 1.25683,-1.21142 0,-0.61117 -0.89717,-1.13555 -1.57483,-0.92047 -0.32671,0.10369 -0.72636,-0.0723 -1.16861,-0.51451 -0.81756,-0.81757 -0.96038,-0.82596 -1.73736,-0.10209 -0.55379,0.51594 -0.63507,0.52848 -0.85679,0.13229 -0.37342,-0.66726 -0.83236,-0.5311 -1.76657,0.52411 -0.8156,0.92123 -0.90695,0.95525 -2.16472,0.80629 -1.45915,-0.17282 -4.07699,-1.06236 -6.87704,-2.33683 -2.033,-0.92534 -2.40081,-1.4328 -0.85356,-1.17763 0.5457,0.09 1.64703,0.22967 2.4474,0.3104 0.80036,0.0807 2.0833,0.45256 2.85097,0.8263 1.28755,0.62684 1.43209,0.64666 1.86422,0.25558 0.33532,-0.30346 0.74635,-0.37885 1.44627,-0.26527 1.05804,0.1717 1.89843,-0.26759 1.66677,-0.87126 -0.0733,-0.19112 0.0105,-0.43994 0.1864,-0.55292 0.76028,-0.48849 1.02411,-1.08609 0.72567,-1.64374 -0.31454,-0.5877 -1.54634,-0.75504 -2.02614,-0.27524 -0.18472,0.18472 -0.42489,0.1006 -0.75538,-0.26458 -0.57337,-0.63357 -1.52629,-0.69732 -1.99428,-0.13343 -0.23216,0.27973 -0.59179,0.35356 -1.18251,0.24274 -0.7749,-0.14538 -0.888,-0.0768 -1.29765,0.78644 -0.28097,0.5921 -0.69833,1.00835 -1.11621,1.11323 -1.08648,0.27268 -3.52178,-0.36083 -5.8144,-1.51256 -2.12505,-1.06755 -4.31927,-2.73158 -4.00987,-3.04098 0.0884,-0.0884 0.85325,0.0749 1.69961,0.36302 0.84635,0.2881 2.08819,0.6026 2.75963,0.69891 0.79502,0.11403 1.43401,0.40203 1.83206,0.82574 0.66511,0.70797 1.29469,0.82745 1.78366,0.33848 0.23981,-0.23982 0.46458,-0.23057 0.96993,0.0399 0.76504,0.40944 1.46958,0.0256 1.46958,-0.80063 0,-0.26341 0.23785,-0.55442 0.52855,-0.64669 1.17934,-0.37431 0.83635,-2.36187 -0.38007,-2.20247 -0.34943,0.0458 -0.86546,-0.24803 -1.37857,-0.78495 -0.91067,-0.95293 -1.44103,-0.92342 -1.9102,0.10628 -0.16585,0.36401 -0.41463,0.59194 -0.55283,0.50652 -0.51047,-0.31548 -1.60359,0.18571 -1.75945,0.8067 -0.086,0.3425 -0.39293,0.69783 -0.68215,0.78962 -1.47196,0.46718 -5.09588,-1.20746 -6.0051,-2.77499 -0.51906,-0.89488 -0.54835,-0.90911 -0.5541,-0.26917 -0.0115,1.28319 1.28678,3.3448 3.12085,4.95557 2.62673,2.30694 3.87167,3.07233 9.00483,5.53623 6.65741,3.19554 11.01491,6.44578 12.31514,9.18582 0.23316,0.49135 0.42393,1.49195 0.42393,2.22354 0,0.85371 0.14821,1.47838 0.41375,1.74392 0.46569,0.4657 0.25505,1.05717 -0.30056,0.84396 -0.42079,-0.16147 -1.17152,0.50165 -1.17152,1.03481 0,0.20065 0.20836,0.48619 0.46302,0.63451 0.41073,0.23923 0.41392,0.2706 0.0283,0.27773 -0.49255,0.009 -0.75318,0.5107 -0.64244,1.23634 0.0566,0.37119 0.29481,0.48798 0.97295,0.4771 0.49387,-0.008 0.99316,0.14091 1.10953,0.33073 0.11638,0.18982 0.60851,0.34513 1.09363,0.34513 0.6815,0 0.91603,-0.13003 1.0316,-0.57194 z m 5.68007,0.25444 c 0.24694,-0.24694 0.38805,-0.24694 0.635,0 0.44993,0.44994 1.52186,0.39392 1.70726,-0.0892 0.0858,-0.2237 -0.0369,-0.62003 -0.27288,-0.88073 -0.53422,-0.59031 -0.54347,-0.82921 -0.0321,-0.82921 0.56388,0 0.52934,-1.48005 -0.0396,-1.69838 -0.38847,-0.14908 -0.37426,-0.23377 0.12921,-0.76969 0.31154,-0.33161 0.68801,-1.24703 0.8379,-2.03738 0.82274,-4.33829 3.60506,-6.83508 10.84239,-9.72968 1.57105,-0.62835 5.42651,-2.6673 6.32659,-3.3458 0.20315,-0.15314 1.15565,-1.05408 2.11666,-2.00208 1.9904,-1.96345 3.46709,-4.48494 3.46709,-5.92017 0,-1.18888 -0.2703,-1.21238 -0.88192,-0.0767 -0.59243,1.10007 -1.69647,1.76736 -2.92417,1.76736 -0.81885,0 -0.96695,-0.098 -1.09942,-0.72761 -0.23763,-1.1294 -0.53049,-1.52072 -1.14414,-1.52878 -0.31083,-0.004 -0.75044,-0.27197 -0.97691,-0.59531 -0.54695,-0.78088 -1.95829,-0.8193 -2.15719,-0.0587 -0.14897,0.56965 -0.4759,0.68885 -0.73584,0.26828 -0.2579,-0.41731 -1.17197,-0.15134 -1.60509,0.46704 -0.32851,0.469 -0.33927,0.6625 -0.0616,1.10713 0.18506,0.29634 0.54597,0.5388 0.802,0.5388 0.25604,0 0.46552,0.11906 0.46552,0.26458 0,0.14552 -0.10632,0.26459 -0.23627,0.26459 -0.4575,0 -0.53004,0.78338 -0.11132,1.2021 0.40075,0.40075 0.92351,0.39086 2.04281,-0.0387 0.26891,-0.10319 0.42145,-0.0195 0.42145,0.23106 0,0.21603 0.17098,0.53469 0.37996,0.70813 0.39717,0.32961 1.20595,0.0534 1.91246,-0.65309 0.17543,-0.17543 1.01956,-0.39823 1.87585,-0.49511 0.85628,-0.0969 1.81653,-0.35801 2.13389,-0.58029 0.99056,-0.69382 0.67376,0.14492 -0.46331,1.22658 -1.99982,1.90239 -5.8116,3.09525 -8.07531,2.5271 -0.61886,-0.15533 -0.68773,-0.28886 -0.63243,-1.22615 0.0716,-1.21277 0.0269,-1.2641 -1.82439,-2.09936 -1.29838,-0.58578 -1.41677,-0.59745 -1.87292,-0.18464 -0.92652,0.83849 -1.93294,0.44251 -1.17908,-0.46391 0.25188,-0.30285 0.009,-0.13556 -0.53952,0.37176 -0.54862,0.50732 -0.8735,0.96372 -0.72197,1.01423 0.15154,0.0505 0.27552,0.25632 0.27552,0.45736 0,0.20104 0.23692,0.49231 0.52649,0.64729 0.44937,0.24049 0.47844,0.3593 0.19844,0.81113 -0.41572,0.67083 0.11731,1.10255 1.19016,0.96396 0.53262,-0.0688 0.76723,0.0411 0.88594,0.41516 0.12808,0.40354 0.30654,0.47016 0.86303,0.32215 0.38586,-0.10263 2.18985,-0.26647 4.00886,-0.36409 1.81901,-0.0976 3.45612,-0.27045 3.63802,-0.38406 0.20546,-0.12831 0.33073,-0.0662 0.33073,0.16389 0,0.93466 -5.34098,2.83579 -7.96681,2.83579 -1.19691,0 -1.26615,-0.0412 -1.55819,-0.92604 -0.20832,-0.63122 -0.46756,-0.92604 -0.81427,-0.92604 -0.27976,0 -0.50865,0.11906 -0.50865,0.26458 0,0.14552 -0.2311,0.26458 -0.51355,0.26458 -0.28245,0 -0.58714,-0.11906 -0.67707,-0.26458 -0.3043,-0.49237 -0.91502,-0.26836 -1.08198,0.39687 -0.0913,0.36381 -0.30193,0.66525 -0.46806,0.66988 -0.16612,0.005 -0.51248,0.16809 -0.76966,0.36326 -0.51598,0.39153 -0.36545,1.21582 0.22203,1.21582 0.19759,0 0.4867,0.23813 0.64246,0.52917 0.29722,0.55536 1.43256,0.72933 1.72039,0.26361 0.0903,-0.14605 0.46107,-0.19102 0.82401,-0.0999 0.46627,0.11702 0.83027,0.006 1.24056,-0.37962 0.52727,-0.4951 3.80229,-1.28084 4.09957,-0.98356 0.0607,0.0607 -1.06344,0.67846 -2.49804,1.37284 -2.50269,1.21137 -2.70484,1.26326 -4.98962,1.28085 -1.30968,0.0101 -2.63814,0.10827 -2.95212,0.21819 -0.77126,0.27 -0.98758,0.94999 -0.48047,1.51034 0.38494,0.42536 0.35814,0.48075 -0.35258,0.72851 -0.89653,0.31252 -1.23743,1.21483 -0.67244,1.77981 0.3437,0.3437 0.29435,0.50826 -0.41516,1.38441 -3.53236,4.36196 -4.51993,5.92295 -4.51993,7.14438 0,0.6864 0.0833,0.7901 0.53868,0.67101 0.49174,-0.12859 0.51177,-0.0818 0.22981,0.53706 -0.16989,0.37287 -0.23745,0.86412 -0.15012,1.09168 0.18823,0.49053 0.99722,0.54441 1.44538,0.0962 z m -62.17915,-0.56729 c 0.88557,0.23158 1.37773,-0.30989 1.11484,-1.22655 -0.16157,-0.56337 -0.12141,-0.79799 0.15472,-0.90395 0.43482,-0.16686 0.49466,-0.99046 0.10059,-1.38454 -0.18671,-0.18671 -0.14564,-0.51526 0.13066,-1.0451 0.22165,-0.42503 0.40634,-1.12996 0.41043,-1.56653 0.0137,-1.46551 1.66272,-4.39878 3.4744,-6.1804 1.17467,-1.15518 3.31695,-2.33416 7.92926,-4.36378 5.58607,-2.45811 5.41759,-2.36177 7.69348,-4.39923 2.21703,-1.98477 3.91743,-5.04883 3.91743,-7.05905 0,-0.99048 -0.44625,-0.71497 -0.62199,0.384 -0.16079,1.00554 -1.04052,2.07022 -2.20488,2.66843 -1.47384,0.75719 -2.97517,-0.0805 -2.47973,-1.38358 0.35398,-0.93107 0.0983,-1.49107 -0.75915,-1.66256 -0.389,-0.0778 -0.82045,-0.39924 -0.95878,-0.7143 -0.18184,-0.41418 -0.43473,-0.54698 -0.91297,-0.47945 -0.3638,0.0514 -0.74712,0.22997 -0.85182,0.39688 -0.14144,0.22547 -0.3292,0.21741 -0.73062,-0.0314 -0.4482,-0.2778 -0.65245,-0.26134 -1.1987,0.0966 -0.827,0.54188 -0.82462,0.77099 0.0161,1.55014 0.40851,0.3786 0.56503,0.6928 0.39687,0.79673 -0.15271,0.0944 -0.27765,0.4027 -0.27765,0.68515 0,0.51553 0.36351,0.64472 1.52922,0.54346 0.52111,-0.0453 0.58027,0.0389 0.43481,0.6184 -0.13621,0.54271 -0.0493,0.7156 0.45516,0.90543 0.41154,0.15487 0.84839,0.12184 1.28498,-0.0972 0.67307,-0.33763 5.03348,-0.70304 5.01932,-0.42064 -0.0144,0.28654 -1.45359,1.73807 -2.21348,2.2324 -0.41445,0.26961 -1.3858,0.576 -2.15854,0.68087 -1.74947,0.23741 -3.63532,-0.52058 -3.77668,-1.51799 -0.10575,-0.74611 -0.74152,-1.03212 -1.39169,-0.62608 -0.40841,0.25506 -0.55353,0.18045 -0.94804,-0.48741 -0.53846,-0.91152 -1.26133,-1.01953 -1.73605,-0.25939 -0.40646,0.65085 -0.7031,0.6679 -1.1507,0.0661 -0.27161,-0.36515 -0.44554,-0.40138 -0.82292,-0.17141 -0.62543,0.38113 -0.77193,1.38296 -0.23249,1.58996 0.22849,0.0877 0.41543,0.43632 0.41543,0.77474 0,0.70396 0.67959,1.02071 1.6613,0.77431 0.50876,-0.12769 0.67879,-0.0447 0.79148,0.38619 0.10545,0.40327 0.35645,0.54882 0.94642,0.54882 0.4416,0 0.87649,-0.11907 0.96643,-0.26459 0.19798,-0.32034 5.42396,-0.35985 5.42396,-0.041 0,0.82899 -2.75615,2.11653 -5.33545,2.49246 l -2.13536,0.31124 -0.59671,-0.74835 c -0.44256,-0.55502 -0.7378,-0.70357 -1.14284,-0.57502 -0.30037,0.0953 -0.79211,0.0197 -1.09276,-0.16804 -0.43753,-0.27324 -0.63886,-0.27562 -1.00874,-0.012 -0.25415,0.18119 -0.72999,0.44526 -1.05741,0.58684 -0.32743,0.14157 -0.59104,0.40917 -0.5858,0.59468 0.0172,0.60885 1.27364,1.89883 1.8953,1.94585 0.82986,0.0628 1.79935,0.39747 1.79935,0.62122 0,0.34103 -2.50225,0.79585 -4.10104,0.74543 -1.7321,-0.0546 -2.48624,0.20062 -2.00743,0.67943 0.42969,0.42969 0.34761,0.97089 -0.17538,1.15636 -0.56046,0.19876 -1.38907,0.88611 -1.38907,1.15226 0,0.10599 0.26789,0.26809 0.59532,0.36021 0.59064,0.16619 0.59116,0.17072 0.0661,0.57814 -0.29104,0.22586 -0.64823,0.49179 -0.79375,0.59097 -0.62271,0.4244 -3.3134,3.74436 -3.93056,4.84981 -0.52022,0.93179 -0.60126,1.27619 -0.35763,1.51982 0.24363,0.24363 0.22845,0.36852 -0.067,0.55112 -0.21012,0.12986 -0.47701,0.17741 -0.5931,0.10566 -0.45773,-0.28289 -0.17875,0.90636 0.31809,1.35599 0.29104,0.26339 0.52917,0.71896 0.52917,1.01236 0,0.29341 0.19792,0.75217 0.43982,1.01947 0.38907,0.42992 0.48942,0.44111 0.86965,0.097 0.2505,-0.2267 0.67473,-0.32496 1.0168,-0.2355 z m 10.07935,-16.25745 c 0.13937,-0.26042 0.53052,-0.61349 0.86921,-0.78458 0.63025,-0.3184 3.39392,-0.87199 3.39392,-0.67985 0,0.175 -3.79257,1.93792 -4.16903,1.93792 -0.2519,0 -0.27779,-0.13027 -0.0941,-0.47349 z m 22.91625,15.92956 c 1.01865,-0.20691 2.26881,-0.54248 2.77813,-0.74571 0.50932,-0.20323 1.58088,-0.6253 2.38125,-0.93794 2.94146,-1.149 8.55894,-5.62622 10.26809,-8.18384 0.4027,-0.60261 0.38457,-0.66116 -0.43009,-1.38906 -0.46779,-0.41797 -0.95357,-0.75994 -1.07952,-0.75994 -0.12596,0 -0.5646,0.43999 -0.97476,0.97774 -0.99705,1.30719 -3.71412,4.03606 -4.91623,4.93756 -1.28529,0.9639 -6.56116,3.28297 -8.55603,3.76092 -2.63991,0.63249 -6.83655,0.76713 -9.29959,0.29836 -2.2304,-0.42449 -5.61128,-1.65426 -7.2331,-2.63099 -2.01806,-1.21536 -5.83284,-4.23569 -7.09744,-5.61936 -0.73371,-0.80281 -1.38973,-1.45964 -1.45782,-1.45964 -0.0681,0 -0.50355,0.35474 -0.96769,0.78832 l -0.8439,0.78831 0.93531,1.12992 c 2.79171,3.37254 8.80394,7.06286 14.13025,8.67317 3.57154,1.07979 8.19437,1.21895 12.36314,0.37218 z m 63.36771,0.0509 c 4.18956,-1.11403 8.78257,-3.54791 11.39063,-6.036 1.78024,-1.69836 3.73524,-4.15766 3.54709,-4.46208 -0.0754,-0.12197 -0.48534,-0.46977 -0.91103,-0.77289 l -0.77397,-0.55112 -0.42916,0.8299 c -0.47808,0.92451 -2.6041,3.13448 -4.2246,4.39142 -2.53063,1.96287 -5.34553,3.22206 -9.67268,4.32688 -5.41999,1.38384 -10.06402,0.81944 -15.37297,-1.86831 -3.04331,-1.54073 -5.62915,-3.29594 -7.61346,-5.16784 l -1.78024,-1.67939 -0.90428,0.78009 -0.90429,0.78008 1.93047,1.86918 c 3.58247,3.46874 9.44359,6.62923 14.4737,7.80466 2.02172,0.47243 9.12974,0.31783 11.24479,-0.24458 z m -71.71622,-3.6753 c -0.55891,-0.43828 -1.88716,-2.4186 -2.70068,-4.02648 -0.36814,-0.7276 -1.30084,-1.91823 -2.07268,-2.64583 -2.50436,-2.36086 -3.36829,-3.33648 -3.82795,-4.32288 -0.2483,-0.53283 -0.4776,-1.001 -0.50954,-1.04036 -0.0879,-0.10831 -5.75312,2.33847 -6.3076,2.72422 -0.44635,0.31052 -0.34931,0.47883 1.25929,2.18403 3.01923,3.20054 6.74282,5.4706 10.9983,6.70504 2.82022,0.8181 3.83922,0.95423 3.16086,0.42226 z m 66.29314,-0.45603 c 0.0894,-0.14474 0.51281,-0.26316 0.94078,-0.26316 0.68085,0 0.77813,-0.0952 0.77813,-0.76135 0,-0.41875 -0.17859,-0.90957 -0.39687,-1.09073 -0.21828,-0.18116 -0.39688,-0.69044 -0.39688,-1.13174 0,-0.7765 0.0165,-0.78743 0.51175,-0.33924 0.28145,0.25472 0.90653,0.48153 1.38906,0.50403 0.71805,0.0335 0.89237,-0.0649 0.9602,-0.54171 0.052,-0.36536 -0.12068,-0.70975 -0.46302,-0.92354 -0.61215,-0.3823 -0.71528,-0.90167 -0.21517,-1.08361 0.63695,-0.23173 -0.21529,-1.10777 -1.2399,-1.27452 -1.85047,-0.30114 -2.07562,-0.79485 -2.21326,-4.85337 -0.12669,-3.73561 0.0613,-4.36235 0.85053,-2.83607 0.21314,0.41217 0.81864,1.26539 1.34554,1.89606 0.83675,1.00152 0.93729,1.26932 0.7943,2.11568 -0.18015,1.06627 0.32367,1.77501 1.06073,1.49217 0.22572,-0.0866 0.63874,0.0766 0.92941,0.36728 0.67307,0.67307 1.59026,0.67911 1.76481,0.0116 0.11469,-0.43856 0.22578,-0.46961 0.77875,-0.21766 0.51493,0.23461 0.72853,0.21033 1.05928,-0.12042 0.43082,-0.43083 0.28967,-1.53164 -0.19639,-1.53164 -0.15334,0 -0.13883,-0.21907 0.0362,-0.54608 0.43678,-0.81613 -0.14753,-1.3957 -1.23,-1.22004 -0.73943,0.11999 -0.87024,0.0516 -1.01659,-0.53152 -0.15783,-0.62882 -0.24017,-0.65839 -1.36412,-0.48985 -1.68397,0.25253 -2.87842,-0.57488 -4.07727,-2.82436 -0.41672,-0.78194 -0.52316,-1.49874 -0.52316,-3.52314 0,-2.60333 -0.25232,-3.56502 -0.93535,-3.56502 -0.31767,0 -0.38757,0.54327 -0.38757,3.0125 0,2.77822 -0.0572,3.12286 -0.73604,4.43177 -0.87766,1.69235 -2.10676,2.48533 -3.12974,2.01923 -0.75653,-0.3447 -1.95505,0.0899 -1.95505,0.70898 0,0.23222 -0.1547,0.33488 -0.37642,0.2498 -0.47578,-0.18257 -1.56203,0.87728 -1.38144,1.34788 0.0819,0.21338 -0.11557,0.41507 -0.50107,0.51183 -0.34992,0.0878 -0.77066,0.4109 -0.93499,0.71795 -0.24609,0.45982 -0.20275,0.65431 0.24573,1.10279 0.45186,0.45187 0.65236,0.49537 1.17838,0.2557 0.5255,-0.23943 0.71005,-0.19983 1.07952,0.23168 0.66167,0.77277 1.99705,0.25352 2.00916,-0.78124 0.002,-0.19049 0.12418,-0.2721 0.271,-0.18136 0.14682,0.0907 0.50401,0.0897 0.79375,-0.002 0.4195,-0.13314 0.5268,-0.40129 0.5268,-1.31647 0,-0.96624 0.13379,-1.26186 0.84004,-1.85613 0.46203,-0.38877 1.1764,-1.1301 1.5875,-1.6474 0.4111,-0.5173 0.76373,-0.83488 0.78362,-0.70573 0.13458,0.87379 -0.1173,6.20806 -0.32461,6.87458 -0.24467,0.78664 -0.51998,0.99668 -2.18785,1.66916 -0.55841,0.22515 -0.72161,0.43844 -0.62325,0.81457 0.0891,0.3407 -0.0767,0.6471 -0.50027,0.92465 -0.91047,0.59656 -0.84558,1.46123 0.10966,1.46123 0.40875,0 0.9743,-0.17481 1.25678,-0.38846 1.18893,-0.89926 1.36435,-0.2593 0.33608,1.22609 -0.26855,0.38794 -0.56505,1.08921 -0.65889,1.55839 l -0.17061,0.85306 0.96653,-0.18132 c 0.5748,-0.10784 0.96652,-0.0769 0.96652,0.0763 0,0.14172 0.18686,0.44454 0.41525,0.67292 0.42117,0.42117 1.19025,0.23558 1.57,-0.37887 z m -57.14767,-0.13811 c 3.1466,-0.99558 6.22005,-2.61808 7.98516,-4.21541 1.56577,-1.41694 3.78709,-4.07802 3.78392,-4.53304 -0.002,-0.2803 -1.10494,-0.95921 -3.23868,-1.99344 l -1.52057,-0.73702 -0.3829,0.71599 c -0.44655,0.83502 -1.5868,2.06326 -3.55329,3.8275 -0.88466,0.79367 -1.89303,2.11458 -2.72675,3.57187 -0.72763,1.27185 -1.69297,2.69941 -2.1452,3.17236 -0.45223,0.47294 -0.70815,0.85989 -0.5687,0.85989 0.13945,0 1.20461,-0.30091 2.36701,-0.6687 z m 27.37207,-2.22602 c 1.32611,-1.60669 2.24477,-3.48039 2.73027,-5.56863 0.38637,-1.66189 0.38007,-1.75445 -0.19824,-2.91042 -0.32852,-0.65666 -0.86,-1.99255 -1.18108,-2.96864 -0.56095,-1.70533 -0.63738,-1.79937 -1.955,-2.40557 -0.75417,-0.34698 -2.34458,-1.29533 -3.53424,-2.10746 l -2.16301,-1.47659 -0.14501,0.97175 c -0.53727,3.60031 -0.57978,3.30411 0.73949,5.15289 1.71384,2.40173 1.99531,3.22391 2.68999,7.85739 0.33816,2.25557 0.69713,4.61219 0.79769,5.23692 l 0.18285,1.13588 0.52032,-0.85561 c 0.28618,-0.47058 0.96837,-1.39844 1.51597,-2.06191 z m 38.37368,1.2664 c 1.09141,-0.43264 2.57969,-1.16231 3.30729,-1.62149 1.6345,-1.03148 4.46132,-3.6905 5.20827,-4.89909 0.65837,-1.06526 0.74318,-0.97685 -2.32386,-2.42202 -3.09814,-1.45981 -3.18822,-1.47757 -3.3913,-0.66844 -0.0943,0.37569 -0.95013,1.48065 -1.90188,2.45548 -1.7996,1.84325 -3.27977,3.77315 -3.27977,4.27629 0,0.37466 -1.23853,2.83652 -1.89598,3.76869 l -0.50521,0.7163 1.39903,-0.40954 c 0.76947,-0.22525 2.292,-0.76353 3.38341,-1.19618 z m -71.2686,0.96686 c 0.0838,-0.21828 0.31397,-0.39687 0.51156,-0.39687 0.68939,0 0.86422,-0.86949 0.43976,-2.18702 -0.22343,-0.69354 -0.32752,-1.33971 -0.2313,-1.43592 0.0962,-0.0962 0.50763,0.1438 0.91426,0.53337 1.26713,1.21399 3.19188,0.66564 2.05869,-0.58652 -0.3892,-0.43006 -0.39262,-0.51707 -0.0321,-0.81629 0.22195,-0.1842 0.40355,-0.47666 0.40355,-0.64989 0,-0.41743 -1.31632,-1.63569 -1.98438,-1.83655 -0.75079,-0.22573 -1.96785,-1.41475 -2.29422,-2.24137 -0.15237,-0.38593 -0.34149,-2.07058 -0.42026,-3.74367 -0.13433,-2.85302 -0.11502,-3.01857 0.31088,-2.6651 0.24977,0.20728 0.64236,0.74274 0.87244,1.1899 0.23007,0.44716 0.81204,1.27451 1.29326,1.83857 0.72859,0.854 0.88805,1.27444 0.9533,2.51354 0.0769,1.45952 0.0935,1.48799 0.8721,1.48799 0.46798,0 1.03562,0.24187 1.38306,0.58931 0.6471,0.6471 1.25429,0.56499 1.67811,-0.22693 0.20922,-0.39093 0.37707,-0.44321 0.76183,-0.23729 0.71482,0.38256 1.73522,-0.47589 1.48874,-1.25246 -0.0987,-0.31094 -0.40435,-0.63674 -0.67926,-0.72399 -0.32539,-0.10328 -0.52842,-0.45426 -0.58177,-1.00572 -0.0632,-0.65282 -0.22183,-0.86691 -0.69183,-0.93354 -0.33544,-0.0476 -0.76821,0.0449 -0.96173,0.20555 -0.27343,0.22693 -0.38923,0.14302 -0.51964,-0.37657 -0.18177,-0.72421 -0.8631,-0.87608 -1.76497,-0.39341 -0.70588,0.37777 -1.49391,-0.25148 -2.87016,-2.29189 -1.10204,-1.63384 -1.28039,-2.23339 -1.89905,-6.38379 -0.19957,-1.33883 -0.39859,-1.91823 -0.6589,-1.91823 -0.3024,0 -0.37463,0.68841 -0.38176,3.63802 -0.009,3.52143 -0.0318,3.67112 -0.7276,4.67059 -0.98536,1.41544 -1.45292,1.67312 -2.25602,1.24331 -0.80971,-0.43334 -1.77009,-0.003 -1.77009,0.79397 0,0.41383 -0.11959,0.49973 -0.51917,0.37291 -0.70575,-0.224 -1.5975,0.29636 -1.5975,0.93218 0,0.28592 -0.13945,0.51986 -0.30989,0.51986 -0.49364,0 -1.27761,0.83121 -1.27761,1.35461 0,0.60569 0.79853,1.04503 1.54473,0.8499 0.45685,-0.11947 0.57194,-0.0337 0.57194,0.42643 0,0.50287 0.12463,0.56557 0.98174,0.49388 0.79648,-0.0666 1.0108,-0.20643 1.13578,-0.74091 0.10392,-0.44444 0.22,-0.55205 0.35679,-0.33073 0.31435,0.50863 1.44258,0.39017 1.74971,-0.18371 0.15065,-0.28147 0.2739,-1.01329 0.2739,-1.62626 0,-0.83303 0.23548,-1.46926 0.93244,-2.51928 1.53444,-2.31172 1.56707,-2.25764 1.45093,2.40419 -0.0606,2.43248 -0.49873,3.50985 -1.59571,3.92391 -0.41438,0.15641 -0.90105,0.56023 -1.08148,0.89738 -0.28188,0.52669 -0.25635,0.66659 0.18131,0.9937 0.49774,0.37199 0.49543,0.39066 -0.10104,0.81625 -0.42705,0.30472 -0.58601,0.64643 -0.52916,1.13757 0.11346,0.98031 1.06317,1.07837 1.83596,0.18958 1.26392,-1.45364 1.72853,-0.53878 0.59572,1.17302 -0.74274,1.12236 -0.69387,1.85296 0.12395,1.85296 0.28409,0 0.56739,0.23243 0.64499,0.52917 0.16383,0.62648 1.18875,0.7223 1.41515,0.13229 z m 55.97471,-2.00352 c -0.87833,-1.76174 -1.51375,-2.65929 -2.38821,-3.37344 -2.10497,-1.71907 -3.16721,-2.90857 -3.35307,-3.75479 -0.0998,-0.45423 -0.32801,-0.88214 -0.50721,-0.9509 -0.35176,-0.13499 -4.27756,1.44249 -5.36807,2.15702 l -0.66598,0.43637 1.15436,1.18462 c 1.52577,1.56576 3.14048,2.73951 5.82461,4.23396 1.92598,1.07234 5.33342,2.42051 6.2067,2.45572 0.16149,0.007 -0.24492,-1.06834 -0.90313,-2.38856 z m 38.66377,0.73119 c 0.25931,-0.4815 0.89458,-1.34471 1.41172,-1.91823 1.45249,-1.61084 2.10845,-2.77519 2.7196,-4.82729 l 0.56204,-1.88725 -0.63348,-1.26516 c -0.68284,-1.36374 -1.76446,-4.3669 -1.76631,-4.90423 -5.3e-4,-0.18132 -0.89169,-0.78685 -1.98014,-1.34563 -1.08845,-0.55878 -2.68931,-1.47506 -3.55746,-2.03618 -1.74176,-1.12574 -1.68583,-1.15188 -2.00137,0.93547 -0.088,0.58208 -0.28962,1.56868 -0.44806,2.19244 -0.25553,1.00595 -0.22735,1.20028 0.24931,1.71979 1.31111,1.42895 2.14987,3.29736 2.81658,6.27423 0.3748,1.67349 0.92126,3.87577 1.21436,4.89395 0.2931,1.01818 0.53291,2.11951 0.53291,2.44739 0,0.84451 0.33178,0.73924 0.8803,-0.2793 z m -56.22852,-11.72045 c 0.22963,-0.43698 0.17967,-0.85533 -0.23131,-1.93695 -0.58399,-1.53693 -1.19786,-6.50315 -0.93387,-7.55497 0.14541,-0.57937 0.24619,-0.63731 0.69283,-0.39827 0.39919,0.21364 0.52266,0.19626 0.52266,-0.0736 0,-0.65269 -0.62675,-0.98829 -1.83886,-0.98466 -2.53639,0.008 -2.48509,-0.0649 -2.31763,3.27759 0.15421,3.07823 0.73828,5.60967 1.90076,8.23824 l 0.66091,1.49444 0.62581,-0.75225 c 0.34419,-0.41374 0.75761,-1.00307 0.9187,-1.30962 z m -62.73595,-0.72404 c -0.95152,-4.10489 -1.22364,-5.56966 -1.27406,-6.85795 -0.0487,-1.24493 -0.13632,-1.50349 -0.47728,-1.40881 -0.22969,0.0638 -0.8212,0.19749 -1.31447,0.29714 l -0.89687,0.18119 0.16706,2.02137 c 0.21831,2.64163 0.78055,5.19819 1.52247,6.92284 l 0.59714,1.38809 0.90415,-0.9866 c 0.63095,-0.68849 0.86417,-1.15902 0.77186,-1.55727 z m 125.43327,1.05975 0.82421,-1.1477 -0.52953,-1.69657 c -0.29124,-0.93312 -0.58799,-2.47048 -0.65945,-3.41636 -0.0714,-0.94589 -0.19117,-2.22581 -0.26604,-2.84428 l -0.13613,-1.12447 h -1.3067 -1.30671 v 1.55284 c 0,2.23317 0.68845,5.85964 1.5164,7.98773 0.39297,1.01008 0.78768,1.83651 0.87711,1.83651 0.0894,0 0.53352,-0.51647 0.98684,-1.1477 z m -123.78157,-3.03952 c 0.29844,-0.57307 0.2834,-0.59551 -0.21889,-0.32669 -0.32922,0.17619 -0.47891,0.44614 -0.38422,0.6929 0.17648,0.45988 0.17125,0.46306 0.60311,-0.36621 z m 62.55843,-0.19215 c 0.0904,-0.23546 0.046,-0.34166 -0.10398,-0.24897 -0.14386,0.0889 -0.26156,0.27369 -0.26156,0.41062 0,0.38059 0.18965,0.29672 0.36554,-0.16165 z m 63.55118,-0.84836 c -0.26874,-0.26874 -0.75534,0.39596 -0.54226,0.74073 0.14588,0.23605 0.26587,0.2017 0.45099,-0.12908 0.13872,-0.24788 0.17979,-0.52312 0.0913,-0.61165 z m -78.37404,-0.79152 c 0.0902,-0.54571 0.16531,-2.0777 0.16691,-3.40442 l 0.003,-2.41224 -1.05833,-0.70037 c -0.58209,-0.38521 -1.05834,-0.81775 -1.05834,-0.96121 0,-0.14345 -0.0893,-0.26066 -0.19843,-0.26045 -0.10915,2.1e-4 -0.19744,1.58354 -0.19621,3.5185 l 0.002,3.51812 0.92381,0.83937 c 0.50809,0.46166 0.99753,0.84286 1.08763,0.84713 0.0901,0.004 0.23761,-0.43873 0.32781,-0.98443 z m 62.84228,-0.79375 c 0.53177,-2.66919 0.56655,-3.07828 0.39487,-4.64557 l -0.16832,-1.53672 -1.51116,-0.71976 -1.51116,-0.71976 0.38682,1.46273 c 0.26907,1.01749 0.34412,2.20165 0.24654,3.89029 l -0.14027,2.42757 0.82237,0.68129 c 0.4523,0.3747 0.9022,0.68128 0.99979,0.68128 0.0976,0 0.31381,-0.68461 0.48052,-1.52135 z m -54.86332,0.13229 c -0.29972,-1.92723 -0.38966,-2.03922 -2.47143,-3.07743 -3.8681,-1.92909 -5.36669,-1.46176 -2.62573,0.81883 1.72104,1.43197 4.59635,3.30302 5.18263,3.37248 0.0492,0.006 0.0107,-0.49542 -0.0855,-1.11388 z m -55.33112,0.20239 c 0.39021,-0.36162 1.06234,-1.40342 1.49364,-2.3151 1.28644,-2.71929 1.06508,-4.21038 -1.40481,-9.46281 -1.63761,-3.48251 -1.63951,-3.49229 -0.84739,-4.347 0.42127,-0.45456 0.6191,-0.90727 0.52542,-1.2024 -0.0914,-0.28804 0.008,-0.53416 0.25453,-0.62867 0.45416,-0.17428 0.56225,-1.49485 0.12235,-1.49485 -0.16201,0 -0.21081,-0.2256 -0.11447,-0.52916 0.42127,-1.3273 -0.70848,-2.1557 -1.40935,-1.03343 -0.32837,0.52579 -0.37162,0.5309 -0.84754,0.1002 -0.73183,-0.6623 -1.40236,-0.31128 -1.25988,0.65953 0.0926,0.63105 0.0105,0.79337 -0.43344,0.85685 -0.37597,0.0538 -0.57395,0.30641 -0.63141,0.80578 -0.0665,0.5777 0.0572,0.78103 0.60043,0.98758 0.60693,0.23076 0.64645,0.32045 0.35022,0.7948 -0.42004,0.67259 -0.0158,1.42021 0.83622,1.54639 0.37948,0.0562 0.75002,0.43474 1.03599,1.05833 0.24486,0.53396 0.8735,1.74475 1.39697,2.69063 1.17447,2.1222 1.91606,4.71321 1.59636,5.57745 -0.20953,0.5664 -0.24517,0.53017 -0.42189,-0.42887 -0.29607,-1.60672 -1.01623,-3.00798 -2.45983,-4.7863 -0.72423,-0.89216 -1.39217,-1.99903 -1.48431,-2.45971 -0.12445,-0.62226 -0.37267,-0.90913 -0.96543,-1.11577 -0.51455,-0.17937 -0.7979,-0.45889 -0.7979,-0.7871 0,-0.29183 -0.29455,-0.64317 -0.69044,-0.82355 -0.59457,-0.2709 -0.74251,-0.24337 -1.06545,0.19827 -0.31116,0.42553 -0.45263,0.45725 -0.83091,0.18628 -0.82199,-0.5888 -1.11872,-0.65145 -1.51761,-0.3204 -0.62453,0.51832 -0.48798,1.553 0.24929,1.88892 0.48032,0.21885 0.63716,0.4913 0.62048,1.07787 -0.0232,0.8148 0.47855,1.35317 1.05183,1.12867 0.1819,-0.0712 0.50932,-0.20178 0.7276,-0.29011 0.27341,-0.11063 0.39688,0.003 0.39688,0.36448 0,0.83993 0.64613,1.19049 1.82661,0.99105 0.97318,-0.16442 1.14028,-0.0954 2.25269,0.92995 0.66084,0.60914 1.51764,1.75363 1.904,2.54331 0.62932,1.2863 0.68374,1.62075 0.52271,3.21244 -0.11657,1.15228 -0.3441,1.94262 -0.64743,2.24887 -0.44769,0.45201 -0.46786,0.40107 -0.47149,-1.19062 -0.002,-1.01955 -0.17138,-1.9833 -0.43698,-2.49121 -0.51728,-0.9892 -1.8504,-2.15976 -3.01596,-2.6482 -0.46418,-0.19452 -1.00087,-0.68104 -1.19264,-1.08115 -0.42108,-0.87855 -1.13815,-1.06819 -1.79418,-0.47448 -0.40267,0.36441 -0.57383,0.38212 -1.01717,0.10526 -0.77663,-0.48502 -1.46767,0.13781 -1.26687,1.14181 0.10901,0.54506 0.0447,0.74243 -0.24178,0.74243 -0.52228,0 -0.49555,0.76803 0.0476,1.36822 0.49497,0.54694 1.14962,0.64339 1.14962,0.16939 0,-0.17297 0.24276,-0.0539 0.53947,0.26458 0.66393,0.71264 0.95132,0.72672 1.36345,0.0668 0.31639,-0.50661 0.32386,-0.50661 0.67871,0 0.48152,0.68748 0.97452,0.64528 1.48033,-0.12669 0.5007,-0.76416 1.17153,-0.66999 2.14225,0.30073 0.86657,0.86657 1.13129,2.25511 0.58801,3.08426 -0.30488,0.46532 -0.37123,1.01094 -0.25723,2.1155 0.17733,1.71813 0.59916,1.91615 1.77011,0.83095 z m 62.58564,-0.33468 c 3.08015,-3.64893 2.92801,-3.36522 2.92801,-5.45986 0,-2.11846 -0.67095,-4.4257 -2.08621,-7.174 -1.02902,-1.99824 -1.07471,-2.77812 -0.16275,-2.77812 0.85468,0 0.89863,-0.86221 0.0734,-1.44021 -0.57283,-0.40122 -0.55978,-0.41187 0.5044,-0.41187 0.99837,0 1.08027,-0.0513 0.95113,-0.59532 -0.0777,-0.32742 -0.33387,-0.74884 -0.56925,-0.93649 -0.35576,-0.28362 -0.36634,-0.37925 -0.0627,-0.56691 0.5306,-0.32793 0.15317,-1.53039 -0.55046,-1.75372 -0.41129,-0.13054 -0.70071,-0.0323 -1.00226,0.34006 -0.23319,0.28798 -0.70124,0.51147 -1.0401,0.49663 -0.9289,-0.0406 -1.31288,0.73492 -0.69944,1.41276 0.48284,0.53354 0.48146,0.54465 -0.068,0.54465 -0.30847,0 -0.677,0.21702 -0.81896,0.48226 -0.20253,0.37844 -0.0171,0.84832 0.86145,2.18281 1.87172,2.84309 3.80457,7.70672 3.35306,8.43727 -0.12184,0.19714 -0.46675,-0.21171 -0.92321,-1.09433 -0.83284,-1.6104 -1.76077,-2.90151 -2.79968,-3.89542 -0.39589,-0.37875 -0.91161,-1.14818 -1.14606,-1.70984 -0.37288,-0.89337 -0.50923,-1.00039 -1.08908,-0.85486 -0.5419,0.13601 -0.66283,0.0698 -0.66283,-0.36281 0,-0.57622 -1.24675,-1.07511 -1.54975,-0.62013 -0.0935,0.14043 -0.52723,0.24584 -0.96379,0.23425 -0.64782,-0.0172 -0.81053,0.0978 -0.88503,0.62556 -0.0502,0.35565 0.0689,0.77237 0.26459,0.92604 0.19572,0.15368 0.35585,0.6366 0.35585,1.07316 0,0.70556 0.0882,0.79375 0.79375,0.79375 0.43657,0 0.92854,0.17252 1.09328,0.38338 0.25666,0.3285 0.45403,0.33238 1.37905,0.0271 1.03379,-0.34119 1.12037,-0.32511 2.04412,0.37946 0.90799,0.69257 3.15402,3.79862 2.9177,4.03494 -0.0599,0.0599 -0.59051,-0.24 -1.17916,-0.66642 -0.58866,-0.42642 -1.58429,-0.91922 -2.21251,-1.09511 -0.79649,-0.223 -1.27713,-0.55484 -1.58786,-1.09626 -0.45619,-0.79486 -1.38336,-1.05223 -1.60575,-0.44574 -0.097,0.26459 -0.19138,0.26459 -0.47184,0 -0.47961,-0.45246 -1.28688,-0.41618 -1.47197,0.0661 -0.0838,0.21828 -0.43721,0.39688 -0.78545,0.39688 -0.81168,0 -0.89833,1.03852 -0.10398,1.24625 0.29104,0.0761 0.52917,0.23505 0.52917,0.3532 0,0.11816 0.18686,0.40169 0.41525,0.63008 0.30324,0.30325 0.54588,0.34533 0.89959,0.15604 0.35926,-0.19228 0.52319,-0.15798 0.63478,0.13281 0.0827,0.21562 0.45183,0.39203 0.8202,0.39203 0.49682,0 0.66976,-0.13878 0.66976,-0.53747 0,-0.29561 0.17721,-0.60547 0.3938,-0.68858 0.75243,-0.28874 3.14473,0.49055 3.93648,1.2823 0.7131,0.71309 0.75693,0.87221 0.61612,2.23654 -0.0982,0.95181 -0.39897,1.84263 -0.85439,2.53082 -0.59572,0.90018 -0.67633,1.23847 -0.52911,2.22024 0.0955,0.63703 0.27165,1.15824 0.39137,1.15824 0.11973,0 0.59457,-0.44649 1.05522,-0.99219 z m 63.7799,-0.75703 c 0.73572,-0.66468 1.17882,-1.36373 1.45597,-2.29698 0.79049,-2.66189 0.4501,-4.70698 -1.45151,-8.72066 -0.46557,-0.98266 -0.90799,-2.24521 -0.98316,-2.80566 -0.11951,-0.89098 -0.0619,-1.03855 0.45828,-1.17459 0.50369,-0.13172 0.57014,-0.27971 0.43315,-0.96466 -0.089,-0.44499 -0.0499,-0.80907 0.0868,-0.80907 0.41403,0 0.85136,-1.06935 0.63064,-1.54203 -0.1136,-0.24329 -0.21207,-0.85906 -0.21881,-1.36838 -0.0108,-0.81602 -0.10105,-0.93622 -0.75954,-1.01166 -0.5738,-0.0658 -0.78059,0.0418 -0.89076,0.46302 -0.1684,0.64399 -0.1891,0.64902 -0.89521,0.21791 -0.4569,-0.27897 -0.5969,-0.25634 -0.89446,0.14459 -0.19403,0.26142 -0.29195,0.7079 -0.21761,0.99218 0.10098,0.38615 6.8e-4,0.51687 -0.39656,0.51687 -0.54769,0 -0.85291,0.47321 -0.85291,1.32233 0,0.26691 0.44981,0.84154 0.99957,1.27697 0.66733,0.52853 1.20745,1.30543 1.625,2.33733 0.34399,0.85012 1.16419,2.64561 1.82268,3.98999 0.89732,1.832 1.22136,2.82621 1.29351,3.96875 l 0.0963,1.52442 -0.63394,-1.89552 c -0.66976,-2.00262 -1.2503,-3.07448 -2.55318,-4.71393 -0.56621,-0.71249 -0.79782,-1.29121 -0.79782,-1.99349 0,-1.1325 -0.51988,-1.7061 -1.31702,-1.4531 -0.44328,0.1407 -0.60241,0.0199 -0.82856,-0.62878 -0.34869,-1.00027 -1.15375,-1.29807 -1.83717,-0.67959 -0.41284,0.37362 -0.57873,0.39625 -0.90708,0.12374 -0.32082,-0.26625 -0.48186,-0.26708 -0.79871,-0.004 -0.49732,0.41274 -0.51829,1.48429 -0.0327,1.67063 0.22336,0.0857 0.31682,0.38742 0.24172,0.7803 -0.14645,0.76613 0.5759,1.59827 1.21212,1.39634 0.28479,-0.0904 0.53094,0.0693 0.69972,0.45404 0.2255,0.51395 0.46029,0.59348 1.75208,0.59348 1.02562,0 1.64562,0.13898 1.98437,0.44481 1.2025,1.08564 3.00748,4.88972 2.54129,5.3559 -0.0763,0.0763 -0.4627,-0.37232 -0.85876,-0.99684 -0.52449,-0.82703 -1.07968,-1.29017 -2.04379,-1.70492 -0.72802,-0.31319 -1.52794,-0.88117 -1.7776,-1.26219 -0.34506,-0.52664 -0.60079,-0.6559 -1.06641,-0.53904 -0.40715,0.10219 -0.66331,0.0213 -0.76407,-0.24127 -0.21587,-0.56255 -0.89329,-0.48844 -1.22651,0.13418 -0.15576,0.29104 -0.52504,0.52917 -0.82063,0.52917 -0.76887,0 -0.59053,1.35845 0.22532,1.71638 0.32742,0.14365 0.59531,0.40352 0.59531,0.57748 0,0.45138 1.01815,0.7147 1.4328,0.37057 0.2588,-0.21479 0.43495,-0.18623 0.68116,0.11043 0.47624,0.57383 0.77301,0.49627 1.0678,-0.27909 0.20826,-0.54776 0.37342,-0.64369 0.85334,-0.49565 2.15109,0.66356 3.22432,1.99085 2.98241,3.68842 -0.0893,0.62683 -0.36403,1.20633 -0.67375,1.42133 -0.33693,0.23389 -0.52293,0.66522 -0.52293,1.21268 0,1.50473 0.39871,1.55797 1.84981,0.24698 z m -7.67065,-0.0856 c 0,-1.36706 -0.44409,-2.03537 -1.89766,-2.85574 -0.7753,-0.43756 -1.96506,-1.21955 -2.64393,-1.73775 -0.86018,-0.65661 -1.40675,-0.8971 -1.80322,-0.79342 -0.87936,0.22996 -0.50575,2.08762 0.6121,3.04348 0.99006,0.84658 4.9262,3.11992 5.40199,3.11994 0.18946,1e-5 0.33072,-0.33167 0.33072,-0.77651 z m -74.97883,-0.0666 c 0.28301,-0.45793 0.19936,-4.33063 -0.13229,-6.12446 -0.46185,-2.49803 -1.47184,-4.06124 -3.7347,-5.78033 -2.5113,-1.90783 -4.0545,-2.75984 -5.81469,-3.21031 -1.80348,-0.46154 -3.7245,-0.17054 -4.92651,0.74627 -0.80228,0.61194 -0.90047,0.82437 -0.90047,1.94826 0,2.13802 -0.68322,3.89039 -2.083,5.34264 l -1.25887,1.30605 0.54645,0.51177 c 1.27277,1.19197 2.71374,1.33712 5.13998,0.51776 1.3379,-0.45181 1.98014,-0.52344 3.36427,-0.37521 1.85024,0.19814 3.06868,0.86292 5.63796,3.07604 1.20784,1.04041 3.31874,2.35551 3.7809,2.35551 0.1028,0 0.27424,-0.1413 0.38097,-0.31399 z m 62.66765,-3.01756 c -0.008,-2.44957 -0.0682,-2.7431 -0.92412,-4.47366 -1.11979,-2.26401 -3.74865,-4.98236 -5.81876,-6.01683 -1.94297,-0.97095 -4.19231,-1.19676 -6.1762,-0.62002 -2.15758,0.62722 -2.55041,1.10889 -2.55357,3.13112 -0.003,2.00613 -0.80149,3.90241 -2.22501,5.28492 l -0.9704,0.94243 0.70864,0.55742 c 0.98595,0.77555 2.85397,0.73606 4.92148,-0.10404 3.04105,-1.23569 5.12047,-0.84074 8.45866,1.60657 2.26748,1.66236 3.8102,2.51219 4.32276,2.38126 0.15474,-0.0395 0.26123,-1.15597 0.25652,-2.68917 z m -4.88673,1.64415 c 0,-0.0549 -0.20836,-0.2633 -0.46302,-0.46302 -0.41964,-0.32911 -0.429,-0.31975 -0.0999,0.0999 0.34565,0.44073 0.56292,0.58089 0.56292,0.36313 z m -46.56666,-1.91688 c 0,-0.61943 -0.0497,-0.65584 -0.46303,-0.33945 -0.25466,0.19492 -0.5047,0.38017 -0.55566,0.41167 -0.21438,0.13252 0.28716,0.62164 0.63743,0.62164 0.23503,0 0.38126,-0.26611 0.38126,-0.69386 z m -49.23753,-1.51401 c 2.21928,-2.03663 3.33651,-2.42708 6.30772,-2.20442 1.12843,0.0846 2.54425,0.26004 3.14627,0.38994 l 1.09459,0.2362 -0.8621,-1.21578 c -1.15099,-1.62318 -1.51255,-2.85713 -1.42079,-4.84894 l 0.0764,-1.65851 -1.44655,-0.7476 c -1.33441,-0.68965 -1.63116,-0.74 -3.82781,-0.64948 -2.09273,0.0862 -2.58219,0.20565 -4.03974,0.9855 -0.91218,0.48805 -2.07421,1.3475 -2.5823,1.90989 l -0.9238,1.02253 0.69903,1.37947 c 1.10501,2.18063 1.68744,4.13632 1.68744,5.66611 0,0.77759 0.059,1.41379 0.13119,1.41379 0.0722,0 0.95436,-0.75541 1.96045,-1.6787 z m 62.28139,0.98153 c 0.46572,-0.23793 1.52173,-0.90326 2.3467,-1.47853 2.06545,-1.44027 3.19709,-1.65365 5.80166,-1.09395 2.23735,0.48078 2.70359,0.38845 1.99459,-0.39499 -0.64211,-0.70952 -1.49098,-3.28707 -1.49098,-4.52728 0,-0.96624 -0.0844,-1.09666 -0.94143,-1.45475 -2.5276,-1.05609 -6.24835,-0.70372 -8.68896,0.82289 -0.81516,0.50989 -1.48211,1.01597 -1.48211,1.12463 0,0.10866 0.29765,1.19203 0.66146,2.40749 0.3638,1.21545 0.66145,2.84378 0.66145,3.6185 0,0.77472 0.0654,1.40858 0.14544,1.40858 0.08,0 0.52647,-0.19467 0.99218,-0.43259 z m 30.27614,0.27274 c -0.0879,-0.0879 -0.31612,-0.0973 -0.50712,-0.0209 -0.21106,0.0845 -0.14837,0.14716 0.15986,0.15985 0.27891,0.0115 0.43518,-0.051 0.34726,-0.13896 z m 18.9988,-1.50138 c -0.686,-0.58637 -1.32594,-1.27596 -1.4221,-1.53242 -0.16391,-0.43716 -0.21556,-0.43323 -0.82688,0.063 l -0.65205,0.52926 0.65205,0.51761 c 1.2895,1.02362 3.297,2.0762 3.39706,1.78116 0.0545,-0.16085 -0.46209,-0.77221 -1.14808,-1.35858 z m -63.66031,0.22803 0.64286,-0.35611 -0.87156,-0.4507 c -1.6115,-0.83335 -3.25804,-2.63442 -5.45052,-5.96207 -1.92519,-2.92198 -4.96265,-6.36574 -5.59349,-6.34169 -0.21559,0.008 -0.63489,0.53055 -1.5032,1.87259 l -0.44662,0.69028 1.52733,1.25355 c 0.84003,0.68946 1.87755,1.68852 2.30561,2.22014 0.86454,1.07373 0.85854,1.06942 -2.08787,-1.49812 -0.86579,-0.75446 -1.70035,-1.37175 -1.85458,-1.37175 -0.15423,0 -0.42531,0.23201 -0.60241,0.51559 -0.28175,0.45115 -0.2153,0.58929 0.53167,1.10531 0.46951,0.32435 1.46577,1.15837 2.21391,1.85339 0.74813,0.69501 1.67087,1.34162 2.05052,1.43691 0.47857,0.12011 0.69027,0.34926 0.69027,0.74715 0,1.01683 0.76504,1.81425 1.62018,1.68875 0.6833,-0.10029 0.76107,-0.0362 0.76107,0.62691 0,0.82681 0.61693,1.2864 1.72681,1.2864 0.3868,0 1.006,0.23813 1.376,0.52917 0.77134,0.60674 2.02907,0.67221 2.96402,0.1543 z m 31.237,-1.07743 c 0.17983,-0.21668 0.4336,-0.32806 0.56394,-0.2475 0.35095,0.2169 1.22112,-0.11886 1.37982,-0.53241 0.076,-0.19799 -0.2118,-0.75193 -0.6395,-1.23099 -0.52874,-0.59222 -0.69123,-0.95741 -0.50768,-1.14096 0.18355,-0.18355 0.51831,0.002 1.0459,0.5796 0.42677,0.46726 0.87195,0.84773 0.9893,0.8455 0.53691,-0.0102 0.91461,-0.51033 0.83636,-1.10746 -0.0481,-0.36719 0.11563,-0.85555 0.37324,-1.11315 0.25243,-0.25243 0.45896,-0.80992 0.45896,-1.23886 0,-0.72153 -0.0545,-0.76534 -0.72761,-0.58549 -0.40018,0.10693 -2.90049,0.1915 -5.55625,0.18795 -4.54674,-0.006 -4.82864,0.0225 -4.82864,0.48949 0,0.72078 0.48818,1.51949 0.92873,1.51949 0.28217,0 0.33979,0.20583 0.22221,0.79375 -0.14637,0.73184 -0.10055,0.79375 0.58744,0.79375 0.44974,0 1.04172,-0.28313 1.49003,-0.71263 0.57449,-0.5504 0.81541,-0.64105 1.05825,-0.3982 0.24285,0.24284 0.11943,0.50507 -0.54215,1.15189 -1.04414,1.02084 -1.00423,1.68749 0.0992,1.65702 0.43257,-0.0119 0.8817,0.13688 0.99807,0.33073 0.28405,0.47316 1.36425,0.44783 1.77037,-0.0415 z m -1.03874,-0.92895 c -0.043,-0.50933 -0.10587,-1.04511 -0.13968,-1.19063 -0.0338,-0.14552 -0.0796,-0.57849 -0.10178,-0.96214 -0.0359,-0.62152 -0.17731,-0.71776 -1.29707,-0.88278 -1.33332,-0.19649 -2.97656,-0.8573 -2.97656,-1.19699 0,-0.11192 0.50602,-0.0266 1.12448,0.18962 0.85428,0.29865 1.97328,0.36554 4.65691,0.2784 2.87083,-0.0932 3.41594,-0.055 2.91042,0.20421 -0.34211,0.17541 -1.3065,0.40195 -2.1431,0.50341 -1.69129,0.20513 -1.70673,0.22712 -1.86782,2.66002 -0.0697,1.05255 -0.10358,1.13366 -0.1658,0.39688 z m -61.97557,-0.17317 c 0.15677,-0.28014 0.41174,-0.37376 0.70814,-0.26002 0.99684,0.38252 1.65447,-1.23308 0.79297,-1.94806 -0.49864,-0.41384 -0.51955,-1.32292 -0.0304,-1.32292 0.20154,0 0.56148,0.29766 0.79985,0.66146 0.49575,0.75661 1.59823,0.8941 1.85267,0.23105 0.0908,-0.23673 0.0251,-0.59919 -0.14612,-0.80548 -0.24728,-0.29796 -0.19382,-0.45733 0.26002,-0.77522 0.31422,-0.22008 0.5713,-0.62804 0.5713,-0.90657 0,-0.47883 -0.24383,-0.50648 -4.47645,-0.5076 -2.46205,-6.6e-4 -4.96236,-0.0789 -5.55625,-0.17386 -1.03592,-0.16565 -1.0798,-0.14407 -1.0798,0.53092 0,0.39726 0.18206,0.77344 0.41819,0.86405 0.2602,0.0999 0.367,0.35625 0.28268,0.67867 -0.3229,1.23478 0.66868,1.70348 1.54809,0.73175 0.49283,-0.54458 1.45521,-0.72664 1.45521,-0.2753 0,0.13964 -0.30814,0.5396 -0.68474,0.88881 -0.95897,0.8892 -0.80808,1.89635 0.28609,1.90966 0.53253,0.006 0.82058,0.15815 0.8793,0.46302 0.11834,0.61448 1.7773,0.62672 2.11928,0.0156 z m -1.36097,-2.62688 c -0.16743,-1.04705 -0.1944,-1.06898 -2.04904,-1.66631 -1.03366,-0.33291 -1.83529,-0.64939 -1.78139,-0.70329 0.0539,-0.0539 0.92692,0.0241 1.94005,0.17326 1.01312,0.1492 2.88384,0.19439 4.15715,0.10042 1.2733,-0.094 2.3151,-0.11082 2.3151,-0.0375 0,0.18861 -2.74663,0.96468 -3.41416,0.96468 -0.39323,0 -0.56,0.1732 -0.57319,0.59531 -0.0102,0.32742 -0.11,0.82911 -0.22172,1.11486 -0.16297,0.41682 -0.23668,0.30977 -0.3728,-0.54147 z m 92.80882,2.27528 0.68432,-0.26017 -1.08192,-0.97746 c -0.59507,-0.5376 -2.09582,-2.38898 -3.33502,-4.11418 -1.34738,-1.87582 -2.88522,-3.66279 -3.82564,-4.44542 -1.52847,-1.272 -2.60027,-1.98254 -2.72139,-1.80413 -0.74362,1.09538 -1.79049,2.90579 -1.71519,2.96618 0.0551,0.0442 0.79785,0.58885 1.65057,1.21036 2.00385,1.46052 5.11479,4.41125 4.89008,4.63825 -0.0958,0.0967 -1.22685,-0.81899 -2.51354,-2.03494 -2.82414,-2.66889 -4.26682,-3.6364 -4.61125,-3.09246 -0.34767,0.54906 -0.31608,0.60813 0.61817,1.15586 0.47295,0.27727 1.83344,1.43404 3.02333,2.57059 1.55262,1.48302 2.35566,2.06645 2.84427,2.06645 0.37446,0 0.66674,0.0893 0.64951,0.19844 -0.10027,0.63502 0.11551,0.8599 0.82508,0.8599 0.50207,0 0.79375,0.13543 0.79375,0.36856 0,0.46071 0.57873,0.69646 1.26754,0.51633 0.28865,-0.0755 0.60482,-0.008 0.70259,0.15039 0.221,0.35758 0.95776,0.36849 1.85474,0.0275 z m 1.73138,-2.73883 c 0,-1.45839 0.72451,-4.04063 1.63375,-5.8229 0.62884,-1.23262 2.29055,-3.08133 3.96523,-4.41143 l 1.23335,-0.97958 -5.73127,-0.17416 c -6.44262,-0.19578 -14.34798,-0.18297 -14.68477,0.0238 -0.12224,0.0751 0.62876,0.54809 1.66888,1.05121 2.52054,1.21921 5.00788,3.6074 7.64724,7.34242 1.87048,2.64696 3.47188,4.37039 4.06915,4.37922 0.10914,0.002 0.19844,-0.63225 0.19844,-1.40858 z m -63.94911,-0.53514 c -0.15799,-1.53074 0.42174,-3.51925 1.63193,-5.59768 0.71006,-1.21947 2.92884,-3.39453 4.57205,-4.48196 0.61836,-0.40922 1.12413,-0.75797 1.12392,-0.77501 -5.3e-4,-0.0448 -15.73268,0.0159 -17.46212,0.0674 l -1.45521,0.0433 1.79777,1.04921 c 0.98877,0.57706 2.2305,1.37863 2.75941,1.78125 1.48429,1.12992 4.02271,4.25639 5.61845,6.92002 0.79441,1.32604 1.47041,2.41099 1.50224,2.41099 0.0318,0 -0.008,-0.63787 -0.0884,-1.41749 z m 18.63922,-3.76234 c 1.11966,-0.17119 1.12447,-0.17674 1.12447,-1.29698 v -1.12506 l -1.00766,0.18427 c -0.55422,0.10134 -1.64416,0.41278 -2.42209,0.69207 -1.48401,0.5328 -2.1265,1.39442 -2.1265,2.85179 v 0.64118 l 1.65365,-0.88767 c 0.90951,-0.48823 2.15966,-0.96504 2.77813,-1.0596 z m 13.55989,-0.21672 c 0,-1.88804 -0.0312,-1.98434 -0.88511,-2.73411 -2.21247,-1.94257 -5.64953,-3.58344 -8.14461,-3.88827 l -1.48909,-0.18192 -0.14707,0.8749 c -0.0809,0.4812 -0.22286,1.36859 -0.31548,1.97199 l -0.1684,1.09709 1.36097,0.18718 c 1.91483,0.26336 4.66022,1.7204 6.20697,3.29418 1.17248,1.19297 1.43436,1.33592 2.4474,1.33592 h 1.13442 z m 3.85226,0.56689 c 2.28903,-2.95801 7.6939,-4.51912 11.0967,-3.2051 1.79676,0.69383 2.03173,0.625 2.82219,-0.8268 0.82459,-1.51447 0.85861,-1.47012 -1.63157,-2.12742 -5.60966,-1.48072 -10.56762,-0.55135 -13.95677,2.61619 -0.81475,0.76148 -0.85989,0.90282 -0.85989,2.69205 0,1.03861 0.0794,1.96775 0.17639,2.06476 0.51305,0.51306 1.35134,0.0807 2.35295,-1.21368 z m -7.29184,0.88339 c 0,-0.13315 -0.54804,-0.72449 -1.21786,-1.31409 -1.29506,-1.13997 -3.40694,-2.0667 -5.30145,-2.32637 -1.15012,-0.15764 -1.15361,-0.15561 -1.15361,0.6716 0,0.45634 -0.005,0.91901 -0.0113,1.02815 -0.006,0.10914 0.81034,0.32519 1.81453,0.48012 1.09016,0.16819 2.29399,0.56379 2.98783,0.98186 1.12649,0.67876 2.88183,0.97036 2.88183,0.47873 z m 10.50863,-0.71059 c 2.66949,-1.7719 5.39329,-2.35135 7.84845,-1.66966 0.84431,0.23444 1.10006,0.21193 1.43857,-0.12658 0.37255,-0.37254 0.31263,-0.45507 -0.63,-0.86779 -2.27588,-0.99645 -6.96742,-0.66595 -9.08235,0.63981 -0.91637,0.56577 -2.3912,1.9359 -2.70599,2.51389 -0.21938,0.40279 -0.12547,0.46302 0.72193,0.46302 0.67633,0 1.41287,-0.29123 2.40939,-0.95269 z m -86.37054,-1.73475 c 0.61441,-0.31571 1.77196,-0.76948 2.57233,-1.00838 1.12904,-0.337 1.47415,-0.56452 1.53975,-1.0151 0.10968,-0.75337 -0.62111,-0.76747 -2.90095,-0.056 -2.90787,0.90748 -3.56386,1.49133 -4.10557,3.65409 l -0.17932,0.71593 0.97832,-0.85827 c 0.53807,-0.47205 1.48102,-1.11658 2.09544,-1.43229 z m 20.96087,0.9139 c 1.37077,-1.71481 2.42345,-2.49243 4.05712,-2.99702 2.76779,-0.85488 5.12656,-0.60158 8.80153,0.94519 1.54146,0.6488 1.62999,0.65786 1.97139,0.20182 0.85247,-1.13874 1.2891,-2.19126 1.02047,-2.4599 -0.14962,-0.14962 -1.33641,-0.70913 -2.63732,-1.24337 -2.14853,-0.88232 -2.64625,-0.9819 -5.43141,-1.08668 -4.68317,-0.17617 -7.35,0.62957 -10.01545,3.02604 -1.31782,1.18484 -1.33821,1.22671 -1.33821,2.74857 0,1.48535 0.0283,1.54928 0.72761,1.64508 1.28835,0.17648 2.30204,-0.10141 2.84427,-0.77973 z m -8.02144,-0.27698 c -1.08591,-1.36408 -3.34286,-2.66016 -5.36717,-3.08217 -0.93095,-0.19408 -1.78194,-0.30222 -1.89108,-0.24031 -0.10914,0.0619 -0.19844,0.3877 -0.19844,0.72398 0,0.53879 0.19605,0.64999 1.65027,0.93609 1.8124,0.35657 2.93267,0.84392 3.83408,1.66793 0.32426,0.29641 1.03863,0.62598 1.5875,0.73237 0.54887,0.10639 1.03771,0.20713 1.08632,0.22387 0.0486,0.0167 -0.26705,-0.41606 -0.70148,-0.96176 z m 3.39123,-0.56162 c 0,-1.50434 -0.0382,-1.589 -1.19991,-2.65984 -0.65995,-0.60832 -2.1717,-1.57598 -3.35944,-2.15036 -1.81735,-0.87885 -2.42509,-1.04433 -3.83548,-1.04433 -1.79365,0 -1.7864,-0.006 -2.01147,1.61942 l -0.13266,0.95796 1.36454,0.16161 c 2.04658,0.24239 4.42639,1.53269 5.91601,3.20759 1.10379,1.24108 1.40662,1.43446 2.26622,1.44713 l 0.99219,0.0146 z m 7.59581,0.59937 c 1.62336,-1.23915 2.25779,-1.46371 4.17815,-1.47891 1.52352,-0.0121 5.01529,1.00051 5.89525,1.70955 0.24513,0.19752 0.44426,0.13408 0.71919,-0.22913 0.2091,-0.27626 0.38397,-0.56386 0.3886,-0.63913 0.0135,-0.21981 -4.24151,-1.8251 -5.58928,-2.10865 -1.3418,-0.2823 -3.5073,0.002 -5.10769,0.67077 -1.02678,0.42902 -2.67068,1.78649 -3.07237,2.53706 -0.48941,0.91446 1.1741,0.6178 2.58815,-0.46156 z m 42.43973,-2.21373 c 0.6345,-0.006 0.70434,-0.11994 0.8576,-1.3959 0.25724,-2.14164 0.20682,-2.77408 -0.23465,-2.94348 -0.47084,-0.18068 -2.72986,0.26393 -3.96671,0.78072 l -0.85038,0.35531 0.27957,1.22173 c 0.18756,0.81962 0.19402,1.54224 0.0196,2.19558 l -0.25994,0.97386 1.73206,-0.5905 c 0.95263,-0.32477 2.0429,-0.59357 2.42281,-0.59732 z m -64.8678,-1.09854 c 0.95354,-0.27269 1.9997,-0.49579 2.32481,-0.49579 0.65608,0 0.96688,-0.75455 0.8203,-1.99151 l -0.0868,-0.73253 -2.38125,-0.0746 c -1.30969,-0.0411 -2.82949,0.0554 -3.37735,0.21445 -0.97106,0.28181 -0.99114,0.31294 -0.79897,1.23822 0.10842,0.52202 0.16831,1.45893 0.1331,2.08201 l -0.064,1.13288 0.84826,-0.43865 c 0.46654,-0.24126 1.62842,-0.66176 2.58195,-0.93444 z m 77.80309,-0.24245 v -1.33415 l -1.65364,-0.7823 c -1.31507,-0.62213 -2.00577,-0.78056 -3.37344,-0.77378 l -1.71979,0.009 2.28521,1.19416 c 1.25687,0.65679 2.74515,1.6004 3.30729,2.09692 0.56214,0.49652 1.05185,0.90772 1.08823,0.91377 0.0364,0.006 0.0661,-0.58935 0.0661,-1.32314 z m 4.93043,-1.53285 c 0.60168,-0.30371 1.9709,-0.79239 3.04271,-1.08595 l 1.94874,-0.53376 -2.86656,0.12182 c -2.49138,0.10588 -3.04543,0.21769 -4.23333,0.8543 -1.29368,0.6933 -1.37122,0.79448 -1.44985,1.89191 l -0.0831,1.15943 1.27369,-0.92777 c 0.70053,-0.51028 1.76597,-1.17627 2.36766,-1.47998 z m -62.85059,-0.55743 1.6962,-0.78461 -1.79647,-0.0121 c -1.2989,-0.009 -2.0867,0.13592 -2.84428,0.52241 -0.98865,0.50437 -1.04779,0.60244 -1.04779,1.7375 v 1.20296 l 1.14807,-0.94075 c 0.63144,-0.51741 1.91136,-1.29383 2.84427,-1.72536 z m -5.05234,1.24162 c -0.002,-0.9779 -0.10771,-1.18483 -0.81519,-1.5875 -0.55536,-0.31608 -1.37348,-0.46086 -2.57802,-0.45621 l -1.7645,0.007 1.32292,0.67878 c 0.72761,0.37333 1.8587,1.08102 2.51354,1.57266 0.65485,0.49164 1.22039,0.8975 1.25677,0.90192 0.0364,0.004 0.0654,-0.49798 0.0645,-1.11645 z m 76.5324,-1.96116 c -0.1819,-0.0734 -0.47956,-0.0734 -0.66146,0 -0.1819,0.0734 -0.0331,0.13345 0.33073,0.13345 0.3638,0 0.51263,-0.06 0.33073,-0.13345 z m -1.85209,-0.27608 c -0.32742,-0.0631 -0.8632,-0.0631 -1.19062,0 -0.32742,0.0631 -0.0595,0.11466 0.59531,0.11466 0.65484,0 0.92274,-0.0516 0.59531,-0.11466 z m 13.89063,-1.03465 1.12448,-0.16163 v -1.42516 -1.42517 h -7.43919 -7.4392 l 0.15954,0.59531 c 0.0877,0.32742 0.16117,0.9781 0.16315,1.44595 l 0.004,0.85064 2.71198,0.0754 c 6.55825,0.18234 9.66762,0.1953 10.71563,0.0446 z m 21.78818,0.0224 c 0.52266,-0.16588 0.66624,-1.20754 0.3362,-2.43908 l -0.15954,-0.59531 h -6.18685 -6.18685 v 1.43581 c 0,1.15293 0.0905,1.45324 0.45954,1.5243 0.87198,0.16793 11.23579,0.23352 11.7375,0.0743 z m -119.88245,-1.71469 v -1.59072 l -9.82593,0.0694 -9.82592,0.0694 -0.038,1.52135 -0.038,1.52136 h 9.8639 9.8639 z m 11.64167,0.16968 v -1.42103 l -1.52136,-0.15856 c -0.83674,-0.0872 -3.08376,-0.16355 -4.99337,-0.16965 l -3.47202,-0.0111 -0.166,0.83002 c -0.0913,0.45651 -0.166,1.17232 -0.166,1.59069 v 0.76068 h 5.15937 5.15938 z m 16.93333,-0.005 c 0,-1.4038 -0.0133,-1.42789 -0.8599,-1.56402 -1.34248,-0.21586 -7.64193,-0.23328 -11.50937,-0.0318 l -3.50573,0.18261 v 1.4195 1.41951 h 7.9375 7.9375 v -1.42577 z m 12.97458,0.96275 c 0.005,-0.25467 0.0747,-0.90951 0.15387,-1.45521 l 0.14388,-0.99219 -1.80752,-0.0246 c -4.49437,-0.0611 -9.93437,0.0286 -10.15934,0.16767 -0.13593,0.084 -0.24714,0.74103 -0.24714,1.46004 v 1.30731 h 5.95313 c 5.48944,0 5.9539,-0.0361 5.96312,-0.46302 z m 13.69539,-1.05834 -0.0794,-1.52135 -5.68854,0.0682 c -3.1287,0.0375 -5.88142,0.0673 -6.11715,0.0661 -0.31546,-0.002 -0.466,0.32965 -0.57023,1.25443 -0.0779,0.69106 -0.0864,1.3459 -0.0188,1.45521 0.0676,0.1093 2.9197,0.19874 6.33812,0.19874 h 6.21529 z m 16.19253,-0.0661 v -1.5875 h -7.54063 -7.54062 l 0.003,0.59531 c 0.002,0.32742 0.0767,1.0418 0.16691,1.5875 l 0.164,0.99219 h 7.37371 7.37372 v -1.5875 z m 11.98004,0.33073 c 0.0794,-0.69961 0.0216,-1.4034 -0.13028,-1.5875 -0.20161,-0.24434 -1.64667,-0.33073 -5.53216,-0.33073 h -5.25927 v 1.5875 1.5875 h 5.38955 5.38955 z m 23.20954,-0.19844 v -1.45521 h -3.175 -3.175 v 1.45521 1.45521 h 3.175 3.175 z m -80.9625,-4.23334 v -1.4552 l -2.44739,-0.0215 c -1.34607,-0.0118 -2.80459,-0.0616 -3.24115,-0.1105 -0.43656,-0.049 -3.32383,-0.0211 -6.41615,0.0619 l -5.62239,0.15088 v 1.27486 1.27485 l 3.50573,0.0822 c 1.92815,0.0452 5.91674,0.10819 8.86354,0.13997 l 5.35781,0.0578 z m 9.89357,1.0367 c 0.0883,-0.23018 0.1606,-0.88503 0.1606,-1.45521 v -1.03669 h -4.49792 -4.49791 v 1.4552 1.45521 h 4.33731 c 3.71099,0 4.36051,-0.0604 4.49792,-0.41851 z m 12.39758,0.24869 0.99219,-0.164 v -1.43507 -1.43508 l -5.49011,0.0441 c -3.01956,0.0242 -5.75799,0.10319 -6.08542,0.17546 -0.5275,0.11643 -0.59531,0.29388 -0.59531,1.55792 v 1.42652 l 5.09323,-0.003 c 2.80128,-0.002 5.53971,-0.0767 6.08542,-0.16691 z m 12.63385,-1.42956 v -1.55386 l -5.29167,-0.01 -5.29166,-0.01 v 0.62708 c 0,0.3449 -0.0727,0.99063 -0.16158,1.43496 -0.1521,0.76049 -0.10942,0.81344 0.72761,0.90285 0.48905,0.0522 2.943,0.11005 5.45324,0.12847 l 4.56406,0.0335 z m 12.7,0.009 v -1.49187 l -5.75469,0.0196 -5.75468,0.0196 -0.0243,1.32291 c -0.0134,0.72761 0.022,1.40981 0.0785,1.516 0.0565,0.10619 2.65704,0.1734 5.77896,0.14934 l 5.67625,-0.0437 v -1.49186 z m 15.875,0.13789 v -1.45824 l -3.77031,-0.002 c -2.07367,-10e-4 -5.27662,-0.0779 -7.11765,-0.17061 -1.84104,-0.0927 -3.50791,-0.10699 -3.70417,-0.0318 -0.25573,0.0979 -0.33159,0.55093 -0.26775,1.59893 l 0.0891,1.46228 7.38541,0.0299 7.3854,0.0299 z m 12.7,-0.003 v -1.4552 l -3.24115,-0.031 c -1.78263,-0.017 -3.71739,-0.0254 -4.29947,-0.0186 -0.58209,0.007 -1.74037,0.0207 -2.57397,0.031 l -1.51563,0.0186 0.0399,1.25677 c 0.022,0.69122 0.0859,1.34606 0.14218,1.45521 0.0562,0.10914 2.65508,0.19843 5.77518,0.19843 h 5.67293 z m 11.90625,0 v -1.4552 h -5.42396 -5.42396 v 1.4552 1.45521 h 5.42396 5.42396 z m 9.26041,0.16999 v -1.28523 l -1.62631,-0.16998 c -0.89447,-0.0935 -2.73994,-0.16998 -4.10104,-0.16998 h -2.47473 v 1.4552 1.45521 h 4.10104 4.10104 z m -116.11502,-0.30228 c -0.0468,-0.65484 -0.14367,-1.25015 -0.21527,-1.32291 -0.0716,-0.0728 -3.10324,-0.17419 -6.73698,-0.2254 l -6.60679,-0.0931 0.0803,1.48555 0.0803,1.48556 6.7418,-0.0695 6.7418,-0.0695 z m 111.61711,11.41299 c 0,-0.26686 0.91154,-0.56018 1.71979,-0.55341 0.4242,0.004 0.45044,0.0482 0.13229,0.22526 -0.66724,0.37128 -1.85208,0.5812 -1.85208,0.32815 z m 10.31875,-0.0829 c -0.3638,-0.15289 -0.53256,-0.32722 -0.37502,-0.38739 0.15754,-0.0602 0.63379,0.0717 1.05833,0.29314 0.86619,0.4517 0.33993,0.52429 -0.68331,0.0942 z m -7.40834,-0.74679 c 0.36381,-0.11651 0.95912,-0.20962 1.32292,-0.20691 0.59415,0.004 0.58069,0.0255 -0.13229,0.20691 -0.43656,0.11108 -1.03188,0.20419 -1.32292,0.2069 -0.41465,0.004 -0.38602,-0.0409 0.13229,-0.2069 z m 4.7625,0 -0.92604,-0.19493 0.84428,-0.0348 c 0.46436,-0.0191 0.91787,0.0842 1.00781,0.22976 0.0899,0.14552 0.12673,0.24891 0.0818,0.22975 -0.045,-0.0192 -0.49848,-0.12255 -1.00781,-0.22975 z m -2.16627,-0.44533 c 0.19099,-0.0764 0.4192,-0.067 0.50712,0.0209 0.0879,0.0879 -0.0684,0.15045 -0.34727,0.13897 -0.30822,-0.0127 -0.37092,-0.0754 -0.15985,-0.15986 z"
       id="path23620" />
  </g>
</svg>
