<?xml version="1.0" encoding="UTF-8" standalone="no"?>
<!-- Created with Inkscape (http://www.inkscape.org/) -->

<svg
   width="341.35266mm"
   height="32.452507mm"
   viewBox="0 0 341.35272 32.452507"
   version="1.1"
   id="svg5"
   inkscape:version="1.1 (c4e8f9ed74, 2021-05-24)"
   sodipodi:docname="divider41.svg"
   xmlns:inkscape="http://www.inkscape.org/namespaces/inkscape"
   xmlns:sodipodi="http://sodipodi.sourceforge.net/DTD/sodipodi-0.dtd"
   xmlns="http://www.w3.org/2000/svg"
   xmlns:svg="http://www.w3.org/2000/svg">
  <sodipodi:namedview
     id="namedview7"
     pagecolor="#ffffff"
     bordercolor="#666666"
     borderopacity="1.0"
     inkscape:pageshadow="2"
     inkscape:pageopacity="0.0"
     inkscape:pagecheckerboard="0"
     inkscape:document-units="mm"
     showgrid="false"
     inkscape:zoom="1.3380612"
     inkscape:cx="689.43037"
     inkscape:cy="332.94442"
     inkscape:window-width="2506"
     inkscape:window-height="1403"
     inkscape:window-x="1974"
     inkscape:window-y="0"
     inkscape:window-maximized="1"
     inkscape:current-layer="layer1" />
  <defs
     id="defs2" />
  <g
     inkscape:label="Layer 1"
     inkscape:groupmode="layer"
     id="layer1"
     transform="translate(550.83125,-614.7069)">
    <path
       style="fill:#000000;stroke-width:0.264583"
       d="m -541.0316,645.86642 c -1.27295,-1.22718 -1.36044,-1.4009 -1.71703,-3.40972 -0.20666,-1.16417 -0.34799,-2.38214 -0.31406,-2.70659 0.0725,-0.69311 0.42523,-1.1426 0.42523,-0.54182 0,0.22641 0.20836,0.66683 0.46302,0.97871 0.373,0.45679 0.63289,0.5327 1.33663,0.39037 0.69614,-0.14079 0.85733,-0.29034 0.79348,-0.73618 -0.0615,-0.42967 -0.24889,-0.54794 -0.80746,-0.50968 -1.05474,0.0722 -0.89308,-0.3567 0.21261,-0.56413 1.02698,-0.19266 1.41029,-0.73754 0.92781,-1.31889 -0.2447,-0.29485 -0.19634,-0.40673 0.23498,-0.54362 0.64697,-0.20534 0.68769,-0.48109 0.13839,-0.93697 -0.52879,-0.43886 -1.70648,0.0607 -1.90154,0.80663 -0.0752,0.28753 -0.24189,0.52279 -0.37044,0.52279 -0.12855,0 -0.23373,0.23813 -0.23373,0.52917 0,0.29104 -0.11906,0.52916 -0.26458,0.52916 -0.94569,0 0.73956,-2.96774 2.95187,-5.19827 1.03155,-1.04004 1.80343,-2.00766 1.71529,-2.15027 -0.0881,-0.14261 -0.66829,-0.38748 -1.28922,-0.54416 -0.62094,-0.15669 -1.36711,-0.47707 -1.65815,-0.71197 -0.49803,-0.40196 -0.43774,-0.41918 1.02448,-0.29262 1.07672,0.0932 1.73416,0.30406 2.14168,0.68691 0.39936,0.37517 0.7498,0.49073 1.09219,0.36013 0.71793,-0.27383 3.31624,-2.42268 3.94374,-3.26153 0.29104,-0.38908 0.73752,-0.9141 0.99218,-1.16671 0.25466,-0.25262 0.46302,-0.7514 0.46302,-1.10841 0,-0.71628 0.89057,-1.21806 1.83799,-1.0356 0.85569,0.16479 1.07243,0.38239 1.07243,1.07666 0,0.35521 0.11509,0.64584 0.25576,0.64584 0.14067,0 0.64898,0.39322 1.12957,0.87381 0.4806,0.48059 1.79863,1.38432 2.92897,2.00828 l 2.05515,1.13447 1.12346,-0.92059 c 1.09096,-0.89396 3.28432,-1.84556 3.68574,-1.59908 0.41558,0.25518 0.15944,0.54546 -0.9862,1.11762 -0.65154,0.3254 -1.25842,0.71103 -1.34862,0.85697 -0.0902,0.14593 -0.47984,0.38619 -0.86588,0.5339 l -0.70191,0.26858 0.67748,0.575 c 0.37261,0.31625 1.12727,0.95456 1.67703,1.41846 1.17162,0.98864 3.11053,3.50623 2.9279,3.80173 -0.0695,0.11243 0.0119,0.25049 0.18088,0.30681 0.45655,0.15218 1.01041,2.25986 1.01499,3.8625 0.005,1.72594 -0.8415,3.81355 -1.80906,4.4618 -0.38526,0.25811 -1.68621,0.72807 -2.89101,1.04434 -1.96315,0.51536 -2.23244,0.53317 -2.59406,0.17155 -0.63136,-0.63136 -0.37708,-1.77382 0.41898,-1.88246 0.3638,-0.0496 0.858,-0.26576 1.09821,-0.48025 0.27806,-0.24829 0.49744,-0.29179 0.60379,-0.11973 0.0919,0.14865 0.35179,0.19937 0.57761,0.11271 0.32923,-0.12634 0.34115,-0.20047 0.0602,-0.37413 -0.28387,-0.17544 -0.26296,-0.36464 0.1101,-0.99619 1.08056,-1.82924 0.16775,-4.65328 -2.29949,-7.11412 -1.42412,-1.42042 -1.79344,-1.65364 -2.61861,-1.65364 -0.88135,0 -1.02643,0.11468 -1.75728,1.38906 -1.04206,1.81703 -1.01966,2.38643 0.12836,3.26206 0.51146,0.39011 1.11892,1.14031 1.34989,1.66711 0.23097,0.52679 0.54026,1.21312 0.68731,1.52516 0.18716,0.39718 0.16872,0.87334 -0.0615,1.5875 -0.39862,1.23672 -0.69345,1.62842 -1.67725,2.22831 -0.67684,0.41272 -0.85049,0.42144 -1.65963,0.0834 -0.78964,-0.32993 -0.92259,-0.32834 -1.05344,0.0127 -0.0824,0.21464 -0.0729,0.51466 0.0211,0.66671 0.19968,0.32309 -1.09875,-0.11698 -1.61894,-0.5487 -0.22127,-0.18364 -0.51306,-0.14582 -0.93471,0.12115 -0.96132,0.60865 -2.21608,0.2705 -3.14176,-0.8467 -1.0719,-1.29367 -1.1694,-1.84671 -0.6441,-3.65366 0.32665,-1.12367 0.72544,-1.79524 1.4793,-2.49119 0.56764,-0.52405 1.03208,-1.08655 1.03208,-1.25 0,-0.16344 -0.23813,-0.72114 -0.52917,-1.23931 -0.29104,-0.51818 -0.52917,-0.99805 -0.52917,-1.06638 0,-0.33999 0.59666,-0.0507 1.1078,0.53721 0.67639,0.77791 0.93134,0.81364 1.58497,0.22211 0.71505,-0.64711 0.7984,-0.33062 0.22401,0.85066 -0.46343,0.95309 -0.47603,1.16295 -0.14495,2.41248 0.19945,0.75272 0.49082,1.6081 0.64749,1.90084 0.15667,0.29274 0.28485,0.7782 0.28485,1.07881 0,0.72006 0.3726,0.69585 0.75018,-0.0488 0.29856,-0.58878 0.30122,-0.58773 0.24209,0.0955 -0.0752,0.86926 0.48038,1.55814 1.25669,1.55814 0.96709,0 1.28118,-0.62501 1.07921,-2.14753 -0.32117,-2.42114 -1.52143,-3.46968 -1.86646,-1.63052 -0.15114,0.80565 -0.2306,0.90239 -0.43751,0.53267 -0.16386,-0.29282 -0.15579,-0.63307 0.023,-0.96705 0.35142,-0.65664 0.35913,-2.58399 0.0112,-2.79902 -0.14552,-0.0899 -0.26458,-0.39462 -0.26458,-0.67708 0,-0.28245 -0.17859,-0.51355 -0.39687,-0.51355 -0.21829,0 -0.39688,-0.11906 -0.39688,-0.26458 0,-0.44677 0.40737,-0.29605 1.05067,0.38872 0.74597,0.79405 0.96614,0.68187 1.61007,-0.82037 0.27515,-0.6419 0.68201,-1.23683 0.90414,-1.32207 0.7136,-0.27384 0.39802,-0.99754 -0.9082,-2.08274 -0.70064,-0.58208 -1.67431,-1.6819 -2.16372,-2.44403 -0.48941,-0.76214 -0.98395,-1.38721 -1.09899,-1.38906 -0.44174,-0.007 -1.72661,1.13835 -1.61198,1.43707 0.21594,0.56275 -1.33773,3.05748 -1.90415,3.05748 -0.53219,0 -1.02603,1.04306 -0.66485,1.40424 0.159,0.159 0.28909,0.44806 0.28909,0.64236 0,0.27248 -0.12225,0.28783 -0.53463,0.0671 -0.29405,-0.15737 -0.681,-0.19975 -0.8599,-0.0942 -1.09296,0.64505 -2.66538,2.1751 -3.53913,3.44375 -0.9775,1.41928 -1.01219,1.54639 -1.01576,3.72158 l -0.004,2.25212 1.03077,0.89132 c 0.56693,0.49022 1.42589,0.96544 1.90881,1.05603 1.27933,0.24001 1.54888,0.69548 0.81795,1.38215 -0.44566,0.41868 -1.09123,0.61059 -2.49187,0.74077 l -1.89038,0.17569 -1.3413,-1.29306 z m 1.30456,-1.95452 c 0,-0.14552 -0.11204,-0.26458 -0.24897,-0.26458 -0.13693,0 -0.32255,0.11906 -0.41249,0.26458 -0.0899,0.14552 0.0221,0.26459 0.24897,0.26459 0.22687,0 0.41249,-0.11907 0.41249,-0.26459 z m 11.53694,-0.72209 c -0.26896,-0.26895 -0.49087,0.13597 -0.2702,0.49302 0.1667,0.26972 0.22902,0.26993 0.31864,10e-4 0.0613,-0.18383 0.0395,-0.40617 -0.0484,-0.49409 z m -1.00652,0.14001 c 0.50335,-0.50336 0.27649,-2.15953 -0.50873,-3.7138 -0.12766,-0.25269 -0.23211,-0.63965 -0.23211,-0.8599 0,-0.22026 -0.22825,-0.40047 -0.50724,-0.40047 -0.95605,0 -1.4902,4.26068 -0.61724,4.92336 0.58202,0.44181 1.45065,0.46547 1.86532,0.0508 z m -10.89331,-1.06041 c 0.19493,-0.3154 -0.12005,-0.6255 -0.86255,-0.8492 -0.65595,-0.19762 -1.07181,0.50009 -0.62148,1.04271 0.29561,0.35619 1.21869,0.23583 1.48403,-0.19351 z m 23.64622,-0.20959 c 0,-0.14552 -0.11906,-0.26458 -0.26458,-0.26458 -0.14552,0 -0.26458,0.11906 -0.26458,0.26458 0,0.14552 0.11906,0.26458 0.26458,0.26458 0.14552,0 0.26458,-0.11906 0.26458,-0.26458 z m 0.67662,-1.69816 c 0.28225,-0.20638 0.42457,-0.46385 0.31627,-0.57214 -0.27886,-0.27887 -1.58626,0.36485 -1.38906,0.68392 0.22078,0.35725 0.46636,0.33166 1.07279,-0.11178 z m 0.33563,-2.77775 0.0862,-0.90403 -0.68151,0.80994 c -0.83605,0.99358 -0.8518,1.1914 -0.0862,1.08267 0.46342,-0.0658 0.61441,-0.28484 0.68152,-0.98858 z m -1.16344,-0.96695 c 0.50613,-0.50612 0.53684,-0.90714 0.0695,-0.90714 -0.568,0 -1.33645,0.69015 -1.13371,1.0182 0.2567,0.41535 0.57059,0.38259 1.06424,-0.11106 z m -21.37136,-1.84459 c 0.22931,-0.59758 -0.005,-0.70099 -0.85522,-0.37768 -0.60302,0.22927 -0.67711,0.33666 -0.36743,0.53252 0.57634,0.36452 1.04619,0.30501 1.22265,-0.15484 z m 20.4546,0.023 c 0.4041,-0.4869 0.13827,-0.93763 -0.55299,-0.93763 -0.39927,0 -0.49221,-0.12341 -0.37384,-0.49637 0.20413,-0.64315 -0.87476,-0.98081 -1.41327,-0.44231 -0.46477,0.46478 -0.17505,1.31495 0.37605,1.10347 0.26677,-0.10237 0.48752,0.0673 0.65268,0.50172 0.27984,0.73604 0.83096,0.84998 1.31137,0.27112 z m -19.04038,-1.4668 c 0,-0.14552 -0.17157,-0.26458 -0.38126,-0.26458 -0.20969,0 -0.45484,0.11906 -0.54478,0.26458 -0.0899,0.14552 0.0816,0.26458 0.38126,0.26458 0.29963,0 0.54478,-0.11906 0.54478,-0.26458 z m 16.40417,-1.49622 c 0,-0.19572 -0.16402,-0.35586 -0.36448,-0.35586 -0.53952,0 -1.04215,0.72315 -0.85023,1.22327 0.1533,0.39949 0.21154,0.39632 0.69106,-0.0376 0.288,-0.26064 0.52365,-0.63404 0.52365,-0.82977 z m -14.49583,0.3056 c 0.0477,-0.3174 -1.2963,-0.83253 -1.53899,-0.58984 -0.0936,0.0936 -0.0966,0.36184 -0.007,0.59614 0.17791,0.46362 1.47576,0.45832 1.54566,-0.006 z m 12.73561,-0.88137 c 0.44834,-0.49542 0.34633,-0.83843 -0.24936,-0.83843 -0.46293,0 -1.20303,0.78343 -1.01995,1.07967 0.24005,0.3884 0.79493,0.28294 1.26931,-0.24124 z m -11.64763,-0.48335 c 0.23846,-0.23846 -0.33102,-0.88424 -0.77976,-0.88424 -0.45506,0 -0.4819,0.70227 -0.0338,0.8831 0.48304,0.19491 0.61954,0.1951 0.81351,10e-4 z m 10.0998,-0.35271 c 0.21259,-0.66979 -0.0358,-1.08084 -0.53689,-0.88855 -0.60313,0.23145 -0.46341,1.41535 0.16704,1.41535 0.11146,0 0.2779,-0.23706 0.36985,-0.5268 z m -1.18987,-1.45757 c 0,-0.21829 -0.10448,-0.39688 -0.23219,-0.39688 -0.1277,0 -0.3804,0.17859 -0.56156,0.39688 -0.27518,0.33157 -0.23698,0.39687 0.23219,0.39687 0.32278,0 0.56156,-0.16876 0.56156,-0.39687 z m 27.422,15.43189 c -2.25223,-0.86699 -3.1301,-2.3334 -3.11975,-5.21128 0.0114,-3.16438 1.08818,-5.27619 4.02154,-7.88703 1.78188,-1.58597 1.92252,-1.99279 0.84345,-2.43975 -0.87831,-0.36381 -3.55457,-0.81378 -3.83338,-0.64453 -0.39862,0.24199 -0.18421,0.93625 0.33073,1.07091 0.59918,0.15669 0.73482,1.23671 0.19843,1.58003 -0.1819,0.11643 -1.28323,0.27763 -2.44739,0.35824 -1.29717,0.0898 -2.52642,0.34682 -3.175,0.66382 -1.01497,0.49608 -1.05788,0.56833 -1.04717,1.76317 0.006,0.68523 0.10705,1.34008 0.22425,1.4552 0.11719,0.11513 0.54784,-0.18994 0.95699,-0.67794 l 0.74391,-0.88726 0.44284,0.67587 c 0.49727,0.75893 0.3815,1.39508 -0.40811,2.24264 -0.68937,0.73994 -1.6276,0.73262 -2.49883,-0.0195 -0.54257,-0.46839 -0.72281,-0.91947 -0.84543,-2.11581 -0.14277,-1.39288 -0.0976,-1.57878 0.53841,-2.21477 0.74869,-0.7487 0.71084,-1.15952 -0.10685,-1.15952 -0.82293,0 -0.61316,-0.86239 0.50414,-2.07264 0.90611,-0.9815 1.14913,-1.10236 2.21656,-1.10236 1.32716,0 2.22686,-0.62033 1.31805,-0.90878 -0.27645,-0.0877 -0.93913,-0.0902 -1.47262,-0.005 -0.83178,0.13219 -1.08257,0.0416 -1.76025,-0.63612 -0.57778,-0.57778 -0.79027,-1.04053 -0.79027,-1.72104 0,-1.08518 0.024,-1.1052 1.59296,-1.33229 1.16656,-0.16884 1.20425,-0.15172 1.52723,0.6939 0.31082,0.81377 0.28611,0.90347 -0.40233,1.461 -0.69183,0.56026 -0.70092,0.59407 -0.16011,0.59531 0.83216,0.002 2.78448,-0.89708 3.37024,-1.5519 0.5865,-0.65565 1.79317,-0.742 2.36587,-0.1693 0.56794,0.56795 0.78805,1.86106 0.43049,2.52915 -0.40502,0.7568 -0.12584,0.97129 1.46211,1.12335 0.7276,0.0697 2.12659,0.36313 3.10885,0.65213 0.98227,0.28899 1.78594,0.43544 1.78594,0.32544 0,-0.11 -0.26789,-0.27394 -0.59531,-0.36431 -0.54679,-0.15092 -0.4502,-0.29902 1.1848,-1.8168 1.38913,-1.28953 1.87347,-1.94305 2.20518,-2.9754 0.42575,-1.32502 0.96685,-1.98438 1.62847,-1.98438 0.45255,0 3.46104,2.85477 3.65607,3.46926 0.0812,0.25585 0.70762,0.67147 1.39203,0.92359 0.68442,0.25213 1.49637,0.7361 1.80434,1.07549 0.71556,0.78856 0.89569,0.77684 2.27106,-0.14784 1.3282,-0.89298 2.97671,-1.61633 3.68359,-1.61633 0.58232,0 0.66622,-0.48079 0.12044,-0.69022 -1.06986,-0.41054 -0.41496,-2.04869 0.92627,-2.31694 0.55405,-0.11081 1.20205,0.0379 2.14249,0.49154 1.48509,0.71644 1.80557,0.672 1.80557,-0.25033 0,-0.52861 0.1543,-0.63277 1.06618,-0.71973 0.87709,-0.0836 1.13516,0.004 1.4552,0.49207 0.21397,0.32656 0.38904,0.82236 0.38904,1.10179 0,0.95118 -2.0776,1.83018 -3.26173,1.37998 -0.76373,-0.29037 -1.09217,-0.0845 -0.67233,0.42135 0.16208,0.19529 0.77566,0.35507 1.36352,0.35507 1.32711,0 3.36429,1.11917 3.36429,1.84824 0,0.27665 -0.24001,0.67112 -0.53335,0.87658 -0.49633,0.34764 -0.50562,0.42673 -0.13392,1.13948 0.40472,0.77605 0.53632,2.62334 0.24161,3.39135 -0.0886,0.23087 -0.56993,0.61377 -1.06963,0.8509 -0.87786,0.41657 -0.93052,0.4105 -1.55872,-0.17966 -0.69813,-0.65586 -0.81343,-1.30659 -0.37627,-2.12345 0.32847,-0.61375 1.37992,-0.67261 1.85209,-0.10368 0.44749,0.53919 0.89404,0.0895 0.65596,-0.66066 -0.0996,-0.31373 -0.66505,-0.92102 -1.2566,-1.34955 -0.87541,-0.63414 -1.34221,-0.77913 -2.50847,-0.77913 -0.7881,0 -1.66925,0.12649 -1.95812,0.28109 -0.73141,0.39143 -2.24247,-0.49779 -2.1597,-1.27094 0.13871,-1.29554 -1.24681,-1.16754 -2.76586,0.25553 l -0.59076,0.55344 2.34009,2.27325 c 2.08019,2.02077 2.42155,2.48984 3.07345,4.2233 0.63082,1.6774 0.71074,2.19226 0.57159,3.68237 -0.19642,2.10345 -0.93868,3.34647 -2.71364,4.54437 -1.08426,0.73176 -1.4955,0.8488 -3.12449,0.88919 -1.77326,0.044 -1.88062,0.0131 -1.96234,-0.56335 -0.10976,-0.77423 0.38167,-1.3745 1.12528,-1.3745 0.87461,0 2.18788,-1.53741 2.54872,-2.98372 0.27043,-1.08393 0.24822,-1.44189 -0.15598,-2.51354 -0.88376,-2.34315 -3.03417,-4.54688 -4.8195,-4.939 -0.67831,-0.14899 -0.82416,-0.0608 -1.27069,0.76835 -0.27743,0.51516 -0.65594,0.93666 -0.84113,0.93666 -0.44636,0 -0.42472,-0.38524 0.076,-1.35362 0.58736,-1.13583 0.40294,-2.14077 -0.46921,-2.55682 -0.76868,-0.3667 -2.58938,-2.42678 -2.58938,-2.92983 0,-0.3781 -1.18329,-0.39683 -1.86947,-0.0296 -0.3221,0.17238 -0.51178,0.55322 -0.51178,1.02755 0,0.54361 -0.29517,1.02032 -1.05909,1.71048 -0.58251,0.52626 -1.17782,0.95683 -1.32292,0.95683 -0.51519,0 -0.2618,1.26338 0.33149,1.65282 0.32742,0.21492 0.98067,0.78536 1.45167,1.26766 0.79418,0.81323 0.9046,0.85107 1.52095,0.52121 0.98733,-0.5284 1.12892,-0.10641 0.26638,0.79389 l -0.75733,0.79048 0.59566,1.05982 c 0.33108,0.58909 0.55851,1.38257 0.51203,1.78645 -0.0968,0.84112 -0.5677,0.97674 -0.68562,0.19746 -0.32623,-2.15599 -0.67411,-2.25387 -1.23984,-0.34885 -0.46812,1.57634 -0.5244,2.75869 -0.14254,2.99469 0.32277,0.19948 0.3436,1.97916 0.029,2.4757 -0.68555,1.08194 -2.67482,-1.38669 -2.67482,-3.31936 0,-1.54139 0.4764,-2.71285 1.61017,-3.95945 1.20472,-1.3246 1.15521,-1.73288 -0.42129,-3.47418 -1.11417,-1.23063 -1.13161,-1.23836 -1.91261,-0.84796 -0.93234,0.46606 -4.03707,3.74094 -4.04262,4.26417 -0.002,0.19974 -0.18177,0.87397 -0.39924,1.49829 -0.22489,0.64562 -0.32119,1.44431 -0.22332,1.85208 0.27754,1.15638 1.96185,3.26273 2.93368,3.66879 0.48992,0.2047 0.96445,0.56423 1.05453,0.79895 0.43069,1.12237 -2.21176,1.45517 -4.5148,0.56861 z m 0.35925,-2.43645 c 0,-0.42642 -0.98753,-0.75634 -1.20597,-0.4029 -0.23061,0.37313 0.12581,0.76891 0.69242,0.76891 0.28245,0 0.51355,-0.1647 0.51355,-0.36601 z m -0.26458,-2.0255 c 0,-0.37716 -0.50701,-0.56159 -1.0607,-0.38586 -0.28974,0.092 -0.5268,0.39111 -0.5268,0.66477 0,0.43796 0.0951,0.46442 0.79375,0.22088 0.43656,-0.15219 0.79375,-0.3771 0.79375,-0.49979 z m 23.59988,-0.0825 c -0.0519,-0.48738 0.0885,-0.88342 0.39687,-1.11945 0.41595,-0.31836 0.42626,-0.39933 0.0803,-0.6308 -1.026,-0.68653 -1.93974,-0.0431 -1.16091,0.8175 0.4814,0.53194 0.35573,0.78883 -0.53958,1.10296 -0.4716,0.16547 0.16806,0.74582 0.73327,0.66528 0.4551,-0.0649 0.55412,-0.23368 0.49002,-0.83549 z m -24.28298,-1.39076 c 0.45861,-0.17598 0.56141,-0.77819 0.17376,-1.01777 -0.36282,-0.22424 -1.60733,0.41374 -1.60733,0.82396 0,0.37088 0.71887,0.46806 1.43357,0.19381 z m 25.02477,-2.35974 c 0,-0.21454 -0.21968,-0.39008 -0.48816,-0.39008 -0.60129,0 -1.47924,0.92228 -1.24254,1.30527 0.2384,0.38573 1.7307,-0.4034 1.7307,-0.91519 z m -24.65285,0.3148 c 0.0991,-0.51069 -0.54886,-0.83759 -1.18004,-0.59538 -0.39367,0.15107 -0.38943,0.21414 0.0468,0.6962 0.54103,0.59784 1.00574,0.55649 1.13321,-0.10082 z m 0.59927,-1.51121 c 0.38767,-0.20748 0.45541,-0.38879 0.2694,-0.72115 -0.19874,-0.35514 -0.0843,-0.51304 0.57197,-0.78897 0.74512,-0.3133 0.78235,-0.38305 0.40552,-0.75988 -0.52826,-0.52826 -1.53498,-0.0703 -1.53498,0.69829 0,0.28257 -0.29664,0.70812 -0.65919,0.94567 -1.07417,0.70383 -0.2347,1.25862 0.94728,0.62604 z m 22.94233,-0.0403 c 0.46143,-0.46143 0.38977,-0.74083 -0.19003,-0.74083 -0.78859,0 -1.34456,0.28521 -1.34456,0.68977 0,0.45329 1.0959,0.48975 1.53459,0.0511 z m -1.30225,-1.77363 c 0.42103,-0.26668 0.17509,-0.81928 -0.36463,-0.81928 -0.45406,0 -0.7476,0.44031 -0.52917,0.79375 0.1991,0.32214 0.41574,0.32833 0.8938,0.0255 z m -1.35131,-1.29884 c 0.0576,-0.17281 -0.0838,-0.31419 -0.31419,-0.31419 -0.2304,0 -0.41892,0.18851 -0.41892,0.41892 0,0.46724 0.56958,0.38587 0.73311,-0.10473 z m -17.40186,-0.034 c 0,-0.13694 -0.12477,-0.32608 -0.27726,-0.42033 -0.38833,-0.24 -1.11421,0.0797 -0.91452,0.40284 0.20811,0.33673 1.19178,0.35116 1.19178,0.0175 z m 1.81862,-1.2277 c 0.16587,-0.14771 -0.19963,-0.90459 -0.43683,-0.90459 -0.48014,0 -1.18936,0.72753 -1.00307,1.02896 0.16601,0.26861 1.08805,0.18896 1.4399,-0.12437 z m 14.33027,0.0102 c 0.51762,-0.62369 -0.0394,-0.99657 -0.74769,-0.50049 -0.32149,0.22518 -0.58453,0.52173 -0.58453,0.659 0,0.40142 0.96257,0.28689 1.33222,-0.15851 z m -1.64972,-0.96774 c 0.45886,-0.45887 0.39063,-0.74084 -0.17927,-0.74084 -0.65438,0 -1.25513,0.68519 -0.77105,0.87943 0.53016,0.21272 0.61076,0.20096 0.95032,-0.13859 z m -20.84917,-0.74084 c 0,-0.14552 -0.11906,-0.26458 -0.26458,-0.26458 -0.14553,0 -0.26459,0.11906 -0.26459,0.26458 0,0.14552 0.11906,0.26459 0.26459,0.26459 0.14552,0 0.26458,-0.11907 0.26458,-0.26459 z m 19.57917,-0.26458 c 0,-0.14552 -0.1786,-0.26458 -0.39688,-0.26458 -0.21828,0 -0.39687,0.11906 -0.39687,0.26458 0,0.14552 0.17859,0.26458 0.39687,0.26458 0.21828,0 0.39688,-0.11906 0.39688,-0.26458 z m -1.44433,-1.07594 c 0.2435,-0.394 -0.0388,-0.60822 -0.54541,-0.41382 -0.23378,0.0897 -0.35095,0.28301 -0.26038,0.42956 0.21447,0.34701 0.58608,0.33975 0.80579,-0.0157 z m 9.05964,-1.26443 c 0.0758,-0.22771 -0.0514,-0.32306 -0.35302,-0.26459 -0.25936,0.0503 -0.52491,0.25162 -0.59011,0.44742 -0.0758,0.2277 0.0514,0.32305 0.35303,0.26458 0.25936,-0.0503 0.5249,-0.25161 0.5901,-0.44741 z m 2.17427,0.10703 c 0,-0.0642 -0.11906,-0.19026 -0.26458,-0.2802 -0.14552,-0.0899 -0.26459,-0.0374 -0.26459,0.11668 0,0.1541 0.11907,0.28019 0.26459,0.28019 0.14552,0 0.26458,-0.0525 0.26458,-0.11667 z m -15.01761,17.84735 c -0.52813,-0.84568 -0.39011,-2.30209 0.32057,-3.3827 0.55719,-0.84724 0.66689,-1.38499 0.77698,-3.80892 0.10421,-2.29446 0.0571,-2.84968 -0.25192,-2.96826 -0.5338,-0.20483 -0.47451,-0.69335 0.0829,-0.68322 0.57138,0.0104 1.38906,0.60622 1.38906,1.01218 0,0.16544 0.40092,0.74763 0.89094,1.29375 0.49001,0.54612 0.983,1.28831 1.09553,1.64929 0.11253,0.36099 0.45019,0.98853 0.75037,1.39455 0.52288,0.70722 0.52683,0.77027 0.0942,1.5026 -0.24835,0.42041 -0.38258,0.94411 -0.29829,1.16377 0.0843,0.21965 -0.0481,0.70664 -0.29416,1.0822 -0.3663,0.55905 -0.65392,0.68283 -1.58658,0.68283 -1.05062,0 -1.15272,0.0617 -1.31351,0.79375 -0.20803,0.94714 -1.13808,1.09774 -1.65615,0.26818 z m 3.05844,-3.49609 c 0.71243,-0.71243 0.11178,-3.91584 -0.73423,-3.91584 -0.40218,0 -0.53067,0.26658 -0.66954,1.38907 -0.26579,2.1484 0.46562,3.46492 1.40377,2.52677 z m 27.88909,2.37461 c -1.7433,-0.89242 -2.52963,-2.10568 -2.65655,-4.09891 -0.0668,-1.04895 -0.004,-1.66237 0.17115,-1.66237 0.15236,0 0.32861,-0.26789 0.39167,-0.59531 0.0876,-0.4548 0.12317,-0.40276 0.1507,0.22048 0.0471,1.06766 0.18133,1.16764 1.10113,0.82045 0.712,-0.26875 0.73845,-0.32528 0.35203,-0.75228 -0.38477,-0.42517 -0.35981,-0.5116 0.31554,-1.09251 0.76659,-0.6594 0.71016,-1.24666 -0.11978,-1.24666 -0.2599,0 -0.6855,0.23531 -0.94579,0.52292 -0.26028,0.28761 -0.57639,0.45918 -0.70246,0.38126 -0.3694,-0.22829 -0.26342,-1.36136 0.16765,-1.79243 0.21828,-0.21828 0.39687,-0.53065 0.39687,-0.69416 0,-0.16351 0.85303,-1.19852 1.89561,-2.30003 l 1.89561,-2.00275 -0.63884,-0.50927 c -1.33574,-1.06484 -1.70451,-1.21366 -2.68936,-1.0853 -0.75105,0.0979 -0.99218,0.25088 -0.99218,0.62954 0,0.27512 0.17156,0.50022 0.38126,0.50022 1.17468,0 0.49535,1.61286 -0.85941,2.04043 -0.79274,0.25019 -1.08761,0.23655 -1.56307,-0.0723 -0.3223,-0.20935 -0.82465,-0.38064 -1.11633,-0.38064 -0.8393,0 -2.71164,1.07987 -2.55954,1.47622 0.0738,0.19235 -0.0974,0.42218 -0.38183,0.51244 -0.31232,0.0991 -0.51567,0.40129 -0.51567,0.76628 0,1.27731 1.99294,2.09042 2.16441,0.88308 0.11675,-0.82203 0.85918,-0.7595 0.95703,0.0806 0.1715,1.47228 -1.51162,2.55756 -2.85306,1.83965 -1.20862,-0.64684 -1.2207,-4.1112 -0.0175,-5.01878 0.64518,-0.48667 0.47652,-0.80409 -0.42728,-0.80409 -0.98765,0 -0.84963,-1.40518 0.23536,-2.39616 0.72126,-0.65877 1.07096,-0.77884 2.26836,-0.77884 1.20742,0 1.4019,-0.0681 1.32224,-0.46302 -0.0698,-0.34601 -0.30478,-0.44255 -0.92988,-0.38203 -0.95605,0.0926 -2.32002,-0.52484 -2.69104,-1.21809 -0.21543,-0.40253 -0.23444,-1.15749 -0.0663,-2.63321 0.0408,-0.35794 1.06727,-0.42908 2.38585,-0.16537 0.64072,0.12815 0.82682,0.30343 0.82682,0.77875 0,0.33736 -0.25377,0.79114 -0.56395,1.00839 -0.34902,0.24447 -0.50249,0.55516 -0.40268,0.81525 0.20888,0.54434 1.25515,0.30226 2.64182,-0.61125 1.09042,-0.71835 3.16722,-0.99079 3.57565,-0.46906 0.57063,0.72894 0.57713,1.72488 0.0147,2.24889 -0.76072,0.70872 -0.48715,1.00318 0.95223,1.02494 0.66629,0.0101 1.35557,0.12811 1.53174,0.2623 0.17617,0.1342 0.70187,0.39522 1.16822,0.58006 0.8389,0.33249 0.86486,0.31879 2.44208,-1.28809 0.94901,-0.96686 1.89079,-2.26165 2.32709,-3.19938 0.48419,-1.04064 0.89005,-1.57617 1.19594,-1.57799 0.25466,-0.002 0.46302,-0.12182 0.46302,-0.26734 0,-0.56146 0.79225,-0.23037 0.94968,0.39688 0.18437,0.7346 0.50482,0.86052 0.72562,0.28512 0.26868,-0.70019 1.15147,-0.14963 1.51208,0.94302 0.38223,1.15818 1.06082,1.73114 3.64791,3.08005 1.64889,0.85973 1.71534,0.87163 2.57853,0.46202 0.48732,-0.23124 1.04759,-0.6511 1.24505,-0.93301 0.19746,-0.28192 0.82679,-0.66682 1.39851,-0.85535 1.0072,-0.33214 1.03686,-0.37629 0.95477,-1.42128 -0.0728,-0.92711 0.0156,-1.14423 0.63013,-1.54688 0.68791,-0.45074 0.76094,-0.44861 1.93681,0.0566 2.29139,0.98438 3.22717,1.20744 3.56334,0.84936 0.21982,-0.23415 0.22294,-0.35452 0.0112,-0.43305 -0.76681,-0.28443 -1.23755,-0.83409 -1.07566,-1.25597 0.13778,-0.35906 0.45131,-0.43302 1.56434,-0.36899 1.31407,0.0756 1.39688,0.12261 1.47883,0.83965 0.20429,1.78768 -0.58174,2.54772 -2.63486,2.54772 -1.46019,0 -1.21955,0.61272 0.32024,0.81538 1.23414,0.16243 2.62544,0.71097 2.95136,1.16361 0.33791,0.46931 0.21841,1.47109 -0.19439,1.62949 -0.51403,0.19725 -0.50678,0.85861 0.0157,1.43598 0.97885,1.08162 0.4561,3.78966 -0.792,4.10292 -1.34818,0.33837 -2.08277,-0.36184 -2.10203,-2.00363 -0.0101,-0.86344 0.95136,-1.04173 1.59074,-0.29499 0.25075,0.29285 0.55374,0.472 0.6733,0.39811 0.61304,-0.37888 -0.12874,-2.19204 -1.23288,-3.01354 -0.74143,-0.55165 -2.47231,-0.76666 -3.57677,-0.4443 -2.35829,0.68831 -3.68978,-0.39672 -2.31515,-1.88662 l 0.59531,-0.64522 -0.66146,0.19967 c -1.45901,0.44042 -2.97107,1.30015 -3.37744,1.92036 -0.41481,0.63308 -0.40287,0.67456 0.3495,1.21438 1.80559,1.29551 3.29811,2.95208 4.19153,4.65227 0.87602,1.66707 0.95261,1.99242 0.94727,4.02398 -0.009,3.55594 -1.12554,5.20157 -3.83065,5.64766 -0.58208,0.096 -1.39425,0.30254 -1.80482,0.459 -0.63686,0.24271 -0.83059,0.20038 -1.31924,-0.28827 -0.70367,-0.70367 -0.41764,-1.31848 0.80876,-1.73839 1.38927,-0.47567 2.1269,-1.31493 2.3267,-2.64724 0.18653,-1.24392 0.15125,-1.47191 -0.47339,-3.05895 -0.62792,-1.59537 -1.29091,-2.47656 -2.73715,-3.63802 -1.43845,-1.1552 -2.34624,-1.3836 -3.25169,-0.81814 -0.26979,0.16849 -0.71389,0.22063 -0.98687,0.11588 -0.46532,-0.17856 -0.45706,-0.2201 0.13217,-0.66456 0.34569,-0.26075 0.58304,-0.59891 0.52744,-0.75146 -0.22327,-0.61269 -4.23741,-4.59478 -4.53257,-4.49639 -0.17423,0.0581 -0.67717,0.69228 -1.11764,1.40934 -0.44048,0.71706 -1.18782,1.70306 -1.66076,2.19111 -0.47295,0.48806 -0.8599,1.00612 -0.8599,1.15125 0,0.14513 0.53578,0.85979 1.19063,1.58813 0.65484,0.72834 1.19062,1.43045 1.19062,1.56023 0,0.54336 0.47104,0.16601 1.02654,-0.82237 0.32715,-0.58208 0.72736,-1.05833 0.88935,-1.05833 0.16199,0 0.62951,0.38695 1.03892,0.8599 l 0.74438,0.85989 0.50792,-0.59531 c 0.27936,-0.32742 0.77086,-0.59531 1.09223,-0.59531 0.58177,0 0.5813,0.004 -0.10754,0.90705 -0.81211,1.06473 -0.73159,1.40693 0.57925,2.46177 1.18977,0.95741 2.06201,3.21476 1.81954,4.70893 -0.18722,1.15372 -1.35021,2.77396 -1.98166,2.76079 -0.24726,-0.005 -0.74722,-0.17953 -1.11102,-0.3875 -0.91615,-0.52372 -1.05834,-0.49108 -1.05834,0.24294 0,0.3519 -0.0723,0.82815 -0.1606,1.05834 -0.20356,0.53048 -1.16231,0.55082 -1.16231,0.0247 0,-0.50946 -0.81292,-1.45823 -1.24943,-1.45823 -0.18594,0 -0.33807,0.18544 -0.33807,0.41209 0,0.32065 -0.24698,0.39403 -1.1131,0.33072 -0.9604,-0.0702 -1.23262,-0.23844 -1.98437,-1.2264 -0.58923,-0.77438 -0.87128,-1.43573 -0.87128,-2.04298 0,-1.33682 1.19114,-3.78573 2.31309,-4.75559 l 0.98276,-0.84952 -1.55116,-1.49041 c -0.85314,-0.81973 -1.7468,-1.49041 -1.98593,-1.49041 -0.50449,0 -1.61085,0.71921 -1.61085,1.04717 0,0.12289 -0.53341,0.74931 -1.18537,1.39205 -1.55418,1.53223 -2.06595,2.97733 -1.85346,5.23369 0.14045,1.49136 0.28252,1.84406 1.06962,2.65535 0.85593,0.88222 0.88937,0.98402 0.58668,1.78594 -0.39292,1.04096 -1.13744,1.11064 -2.79588,0.26166 z m 0.47425,-2.05711 c 0,-0.14552 -0.11907,-0.26459 -0.26459,-0.26459 -0.14552,0 -0.26458,0.11907 -0.26458,0.26459 0,0.14552 0.11906,0.26458 0.26458,0.26458 0.14552,0 0.26459,-0.11906 0.26459,-0.26458 z m 10.26583,-0.3175 c 0.4738,-0.4738 0.38613,-1.66201 -0.26193,-3.55037 -0.5722,-1.6673 -1.27265,-2.26163 -1.27265,-1.07984 0,0.3347 -0.11172,0.72165 -0.24827,0.85989 -0.13655,0.13825 -0.32824,0.85959 -0.42599,1.60298 -0.15718,1.19533 -0.1074,1.41715 0.43044,1.91823 0.68163,0.63504 1.30514,0.72237 1.7784,0.24911 z m 3.8024,-0.64955 c 0.2872,-0.25992 0.48385,-0.80186 0.48385,-1.33346 0,-1.08463 -0.92303,-2.99116 -1.44815,-2.99116 -0.87341,0 -1.29315,3.99733 -0.47008,4.47672 0.64465,0.37548 0.87885,0.35064 1.43438,-0.1521 z m -14.58809,-1.00611 c -0.18628,-0.22445 -0.5027,-0.40809 -0.70316,-0.40809 -0.51999,0 -0.45116,0.71855 0.0985,1.02871 0.62089,0.35032 1.04723,-0.0873 0.60462,-0.62062 z m 23.79553,0.39599 c 0.46239,-0.29242 0.20502,-0.62314 -0.52689,-0.67706 -0.34551,-0.0255 -0.52378,0.12647 -0.52378,0.44636 0,0.52594 0.43336,0.6211 1.05067,0.2307 z m -11.40197,-2.50425 c 0.41243,-1.63787 0.37101,-3.1037 -0.10699,-3.78613 -0.51045,-0.72878 -1.13193,-0.51765 -1.57449,0.5349 -0.28011,0.66618 -0.25616,1.04165 0.15261,2.3917 0.6695,2.21122 0.73213,2.34831 0.99784,2.18409 0.12865,-0.0795 0.36762,-0.67556 0.53103,-1.32456 z m 11.88435,0.75602 c 0.64099,-0.44896 0.55951,-0.9104 -0.15961,-0.90388 -0.71072,0.006 -1.2002,0.43462 -1.02342,0.89528 0.20355,0.53045 0.43558,0.53213 1.18303,0.009 z m 0.5259,-2.44965 c 0.0813,-0.24744 -0.10189,-0.32555 -0.62065,-0.26458 -0.40482,0.0476 -0.78796,0.24449 -0.85142,0.43759 -0.0813,0.24745 0.10189,0.32555 0.62065,0.26458 0.40482,-0.0476 0.78796,-0.24449 0.85142,-0.43759 z m -0.72103,-2.25004 c -0.23888,-0.23639 -0.37412,-0.20015 -0.5738,0.15373 -0.14369,0.25466 -0.49346,0.46302 -0.77727,0.46302 -0.28536,0 -0.51602,0.17981 -0.51602,0.40226 0,0.33506 0.18203,0.30939 1.08981,-0.15373 0.83499,-0.42598 1.01674,-0.6283 0.77728,-0.86528 z m -23.32747,0.78415 c 0.48846,-0.58856 -0.25971,-1.03942 -1.15807,-0.69787 -0.59978,0.22804 -0.66711,0.34128 -0.39666,0.66715 0.40778,0.49135 1.1601,0.50622 1.55473,0.0307 z m 21.61197,-1.42822 c 0.41768,-0.286 0.6565,-1.08033 0.37678,-1.25321 -0.37857,-0.23397 -1.32212,0.47268 -1.32212,0.99018 0,0.48012 0.44677,0.60443 0.94534,0.26303 z m -21.31826,-0.32668 c 0,-0.14552 -0.0525,-0.26458 -0.11667,-0.26458 -0.0642,0 -0.19026,0.11906 -0.2802,0.26458 -0.0899,0.14552 -0.0374,0.26459 0.11667,0.26459 0.15411,0 0.2802,-0.11907 0.2802,-0.26459 z m 1.05834,-0.13229 c 0,-0.21828 -0.11204,-0.39687 -0.24897,-0.39687 -0.33363,0 -0.57259,0.41317 -0.3612,0.62455 0.29797,0.29797 0.61017,0.18148 0.61017,-0.22768 z m 1.84803,-1.12448 c -0.01,-0.49031 -0.50959,-0.92247 -0.89529,-0.77446 -0.68515,0.26292 -0.51156,0.9729 0.23788,0.9729 0.3638,0 0.65964,-0.0893 0.65741,-0.19844 z m 17.05245,-0.0596 c 0.77995,-0.29654 0.90737,-0.8003 0.20243,-0.8003 -0.49074,0 -1.11125,0.47276 -1.11125,0.84666 0,0.27076 0.0863,0.26635 0.90882,-0.0464 z m -15.59319,-1.46538 c 0,-0.34389 -0.20619,-0.55483 -0.5965,-0.61025 -0.70575,-0.10022 -1.12929,0.67511 -0.56654,1.03712 0.57408,0.36928 1.16304,0.15311 1.16304,-0.42687 z m 14.41017,0.27979 c 0.49631,-0.59802 0.10178,-0.96828 -0.66129,-0.6206 -0.66605,0.30348 -0.78835,0.51676 -0.47562,0.8295 0.29248,0.29247 0.79788,0.19961 1.13691,-0.2089 z m -1.84246,-1.3345 c 0,-0.21829 -0.1786,-0.39688 -0.39688,-0.39688 -0.21828,0 -0.39687,0.17859 -0.39687,0.39688 0,0.21828 0.17859,0.39687 0.39687,0.39687 0.21828,0 0.39688,-0.17859 0.39688,-0.39687 z m -1.71979,-0.92605 c 0.0899,-0.14552 -0.0221,-0.26458 -0.24897,-0.26458 -0.22687,0 -0.41249,0.11906 -0.41249,0.26458 0,0.14552 0.11203,0.26459 0.24897,0.26459 0.13693,0 0.32255,-0.11907 0.41249,-0.26459 z m -7.9375,-0.79375 c 0.0899,-0.14552 0.0374,-0.26458 -0.11668,-0.26458 -0.15411,0 -0.2802,0.11906 -0.2802,0.26458 0,0.14552 0.0525,0.26459 0.11668,0.26459 0.0642,0 0.19026,-0.11907 0.2802,-0.26459 z m 17.85937,-2.38125 c 0,-0.14552 -0.0525,-0.26458 -0.11667,-0.26458 -0.0642,0 -0.19027,0.11906 -0.2802,0.26458 -0.0899,0.14552 -0.0374,0.26459 0.11667,0.26459 0.15411,0 0.2802,-0.11907 0.2802,-0.26459 z m 18.31056,18.8557 c -0.91029,-0.0816 -1.37781,-0.33326 -2.35047,-1.26523 -1.08454,-1.03917 -1.19609,-1.2537 -1.04492,-2.00951 0.0931,-0.46538 0.30549,-1.01033 0.47202,-1.211 0.16655,-0.20067 0.33176,-0.73294 0.36715,-1.18283 0.0354,-0.44988 0.18141,-0.89236 0.32449,-0.98328 0.14308,-0.0909 0.2588,-0.52249 0.25716,-0.95905 -0.002,-0.43657 0.18954,-1.29544 0.42486,-1.90862 0.52284,-1.36241 0.35767,-2.04557 -0.39693,-1.64172 -0.32206,0.17236 -0.48643,0.49427 -0.43658,0.85505 0.0585,0.42317 -0.0738,0.60053 -0.49247,0.66017 -0.50656,0.0722 -0.5455,0.17544 -0.3384,0.89756 0.12872,0.44881 0.16092,0.93432 0.0716,1.07891 -0.0894,0.14459 -0.17521,0.50473 -0.19078,0.80031 -0.0401,0.7619 -0.59095,0.85248 -0.78474,0.12905 -0.52464,-1.95854 0.409,-4.48101 2.46205,-6.6518 0.73541,-0.77759 1.33711,-1.54693 1.33711,-1.70965 0,-0.16272 0.23812,-0.4233 0.52917,-0.57906 0.75639,-0.40481 0.65468,-0.72413 -0.29726,-0.93321 -0.45453,-0.0998 -1.21327,-0.40977 -1.6861,-0.68874 -0.67607,-0.3989 -1.00816,-0.45078 -1.55483,-0.24294 -0.87391,0.33226 -0.88591,0.73099 -0.0337,1.11929 0.78061,0.35566 0.91142,1.43309 0.19844,1.63449 -1.29796,0.36664 -2.72305,0.44672 -3.21971,0.18092 -0.42849,-0.22932 -0.77865,-0.18689 -1.6125,0.19538 -0.58584,0.26857 -0.98199,0.57149 -0.88033,0.67315 0.10167,0.10166 -0.0746,0.53574 -0.39167,0.96462 -0.31709,0.42888 -0.57652,0.94862 -0.57652,1.15497 0,0.49274 0.69868,1.07244 0.89998,0.74673 0.3234,-0.52326 1.52618,-0.61104 1.87304,-0.13668 0.2762,0.37772 0.25584,0.60205 -0.11513,1.26887 -0.34761,0.62483 -0.66082,0.82809 -1.36993,0.88904 -2.08499,0.17921 -3.0635,-1.95382 -2.06195,-4.49478 0.5963,-1.51281 0.62851,-1.82576 0.17868,-1.73579 -0.54822,0.10964 -0.22665,-1.4347 0.41483,-1.99227 0.69387,-0.60311 2.17201,-1.24888 2.85862,-1.24888 0.75387,0 0.59837,-0.3922 -0.43233,-1.09037 -1.18752,-0.80442 -1.12739,-1.45794 0.12257,-1.33192 0.59542,0.06 1.43231,-0.16072 2.44583,-0.64514 l 1.54071,-0.73638 0.72514,0.53938 c 0.78116,0.58106 1.07897,1.56123 0.61525,2.02495 -0.61753,0.61753 -0.1971,0.94787 2.10528,1.65414 1.88171,0.57722 2.36326,0.82303 2.2564,1.15178 -0.0747,0.22986 0.01,0.18064 0.18743,-0.10939 0.17781,-0.29003 0.72922,-0.88534 1.22536,-1.32292 1.88737,-1.66457 3.47948,-3.4663 3.62554,-4.10288 0.34242,-1.49231 0.33557,-1.48493 1.27769,-1.37495 0.71471,0.0834 0.96444,0.26611 1.17001,0.85584 0.14881,0.42687 0.64016,0.94479 1.14095,1.20265 0.48376,0.2491 1.35582,0.82228 1.9379,1.27374 1.07019,0.83004 1.78919,1.28052 3.10417,1.94489 0.65921,0.33305 0.79912,0.30857 1.5875,-0.27782 0.47552,-0.35369 1.51943,-0.99521 2.31979,-1.4256 1.36525,-0.73416 1.4557,-0.84435 1.46318,-1.78238 0.0138,-1.72699 1.1339,-2.11531 3.73588,-1.2951 1.4845,0.46794 1.97614,0.36361 1.42363,-0.30213 -0.45976,-0.55398 -0.13588,-1.3095 0.45715,-1.06639 0.25343,0.10389 0.80941,0.20554 1.2355,0.22589 0.62281,0.0297 0.81711,0.19263 0.99092,0.83074 0.30071,1.10403 0.1001,1.4552 -0.83129,1.4552 -0.44113,0 -0.80205,0.11152 -0.80205,0.24782 0,0.1363 -0.38695,0.28513 -0.8599,0.33073 -1.44971,0.13978 -1.08686,0.8354 0.59532,1.14125 2.51468,0.45721 2.48111,0.40178 2.45392,4.05141 -0.0264,3.53708 -0.14559,4.1759 -0.80904,4.33424 -0.82063,0.19585 -1.35057,-0.073 -1.90173,-0.9648 -0.60811,-0.98395 -0.47818,-1.73231 0.30077,-1.73231 0.28406,0 0.45777,0.095 0.38602,0.21107 -0.0717,0.11609 -0.0211,0.38398 0.11263,0.59531 0.18671,0.29515 0.24401,0.23522 0.24713,-0.25843 0.002,-0.35347 0.15126,-1.04978 0.33118,-1.54735 0.30765,-0.8508 0.28313,-0.94254 -0.41163,-1.54014 -0.83256,-0.71615 -2.56632,-0.85926 -4.02396,-0.33217 -1.54251,0.55778 -2.99697,-0.2797 -2.31236,-1.33144 0.15289,-0.23489 0.51733,-0.40077 0.80987,-0.36864 0.29254,0.0321 0.66892,-0.10668 0.83639,-0.30848 0.64219,-0.77378 -0.68397,-0.7151 -2.27495,0.10067 -0.8522,0.43696 -1.93641,0.97835 -2.40935,1.20309 -0.47294,0.22473 -0.85989,0.50762 -0.85989,0.62863 0,0.32319 0.91464,1.09579 1.29724,1.09579 0.72014,0 3.41749,2.96057 4.28849,4.70697 0.74139,1.48654 0.8988,2.11964 0.96764,3.89199 0.0732,1.88442 10e-4,2.27593 -0.65589,3.56816 -0.90937,1.78828 -2.00727,2.55728 -3.99261,2.79655 -2.86827,0.34568 -2.82342,0.35616 -2.89625,-0.67617 -0.0618,-0.87509 0.009,-0.96051 1.27956,-1.55258 1.1105,-0.51735 1.43315,-0.83243 1.85127,-1.80788 0.69566,-1.6229 0.63657,-2.63 -0.26189,-4.464 -1.02146,-2.08505 -3.68027,-4.61095 -4.85358,-4.61095 -0.55709,0 -2.57908,3.02067 -2.56806,3.83646 0.005,0.33411 0.44246,0.805 1.18811,1.2775 0.64953,0.41158 1.18097,0.87479 1.18097,1.02935 0,0.15456 0.25422,0.79006 0.56494,1.41221 0.52372,1.04865 0.5382,1.22192 0.19844,2.37447 -0.38714,1.31326 -1.74298,2.77671 -2.55853,2.76159 -0.2496,-0.005 -0.68493,-0.18322 -0.9674,-0.39687 -0.7572,-0.57272 -0.87283,-0.49078 -0.83951,0.5949 0.0367,1.19468 -0.74263,1.57078 -1.13211,0.54637 -0.13079,-0.34399 -0.44031,-0.79351 -0.68783,-0.99894 -0.39175,-0.32512 -0.48271,-0.31514 -0.70217,0.077 -0.69907,1.24917 -2.80846,-0.002 -3.83247,-2.27239 -0.4545,-1.00792 -0.45081,-1.07331 0.16226,-2.87408 0.34504,-1.01349 0.84172,-1.95744 1.10375,-2.09767 1.01824,-0.54494 1.10932,-1.24481 0.3558,-2.73412 -0.88155,-1.74235 -1.7147,-2.13175 -2.98174,-1.39362 -0.47604,0.27733 -1.01182,0.69933 -1.19062,0.93779 -0.17881,0.23846 -0.64476,0.59836 -1.03545,0.79977 -0.51968,0.26791 -0.75713,0.64316 -0.88467,1.39809 -0.0959,0.56753 -0.35538,1.3948 -0.57666,1.83836 -0.54457,1.09161 -0.36009,3.59576 0.33256,4.51419 0.28391,0.37646 1.11151,0.96228 1.83911,1.30183 1.49731,0.69874 1.71003,0.91776 1.71574,1.76652 0.004,0.62232 -0.90572,1.16434 -1.79911,1.07171 -0.24518,-0.0254 -0.95713,-0.0921 -1.58211,-0.14808 z m 8.88861,-3.82736 c 0.38359,-0.3836 0.4246,-2.4955 0.0529,-2.72521 -0.14553,-0.0899 -0.26459,-0.34967 -0.26459,-0.57718 0,-0.3377 0.0729,-0.35317 0.39688,-0.0843 0.21828,0.18116 0.39687,0.5459 0.39687,0.81053 0,0.93649 0.50469,0.77725 0.65881,-0.20786 0.086,-0.54975 0.27062,-1.43008 0.41024,-1.95628 0.38335,-1.44472 0.29637,-2.67687 -0.23803,-3.37172 l -0.48014,-0.62429 -0.8369,1.0153 c -0.90273,1.09517 -0.97968,1.30442 -0.57231,1.5562 0.14552,0.0899 0.25518,0.54344 0.24369,1.0078 -0.0115,0.46435 -0.0809,0.69545 -0.15434,0.51355 -0.35796,-0.88714 -1.51453,0.0542 -1.57633,1.28295 -0.0206,0.41003 -0.11575,1.16264 -0.21139,1.67248 -0.13723,0.73151 -0.0602,1.0407 0.36536,1.46625 0.60639,0.60639 1.33528,0.69573 1.80926,0.22176 z m 3.87437,-0.79971 c 0.46113,-0.65836 0.55385,-2.20341 0.1473,-2.45467 -0.14552,-0.0899 -0.26459,-0.41126 -0.26459,-0.71405 0,-0.49007 -0.64867,-1.23946 -1.09231,-1.26191 -0.19064,-0.01 -1.02435,3.161 -1.02435,3.89565 0,1.16496 1.53519,1.5326 2.23395,0.53498 z m 9.25378,-0.36631 c 0.64413,-0.24717 0.49603,-0.63315 -0.24294,-0.63315 -0.41158,0 -0.66146,0.14993 -0.66146,0.39688 0,0.42702 0.24233,0.49033 0.9044,0.23627 z m 0.53659,-1.83318 c 0.39296,-0.29719 0.44167,-0.46273 0.20561,-0.69878 -0.4447,-0.4447 -1.69352,0.14576 -1.48079,0.70014 0.1934,0.50397 0.6076,0.50353 1.27518,-10e-4 z m 0.32224,-2.38963 c 0.0875,-0.22806 0.0242,-0.54953 -0.1406,-0.71437 -0.20714,-0.20715 -0.29971,-0.21118 -0.29971,-0.0131 0,0.15765 -0.23813,0.34891 -0.52917,0.42502 -0.29104,0.0761 -0.52917,0.26859 -0.52917,0.42774 0,0.45047 1.32006,0.34009 1.49865,-0.12531 z m -1.48125,-1.44673 c 0.57764,-0.30915 0.69435,-1.04903 0.16546,-1.04903 -0.568,0 -1.33645,0.69015 -1.13371,1.0182 0.23096,0.3737 0.32216,0.3766 0.96825,0.0308 z m -21.26376,-1.68993 c -0.0514,-0.15683 -0.42802,-0.32439 -0.837,-0.37237 -0.60186,-0.0706 -0.71145,-0.003 -0.57491,0.35237 0.0928,0.24178 0.16869,0.54637 0.16869,0.67687 0,0.1305 0.30074,0.10025 0.66831,-0.0672 0.36757,-0.16748 0.62628,-0.43281 0.57491,-0.58964 z m 8.268,0.17788 c 0.87903,-1.51065 0.97534,-1.53414 1.99309,-0.48613 0.89654,0.92319 1.46027,1.04822 1.46027,0.32388 0,-0.1812 0.3636,-0.9028 0.80801,-1.60355 0.81105,-1.2789 0.95049,-2.4701 0.27186,-2.32246 -0.48935,0.10646 -1.77131,-1.14825 -2.58736,-2.53236 -0.66824,-1.1334 -1.48436,-1.79203 -1.90126,-1.53437 -0.12256,0.0758 -0.36981,0.66268 -0.54945,1.3043 -0.21069,0.75249 -0.78062,1.64258 -1.60564,2.50756 -1.20726,1.26574 -1.2623,1.38526 -0.98105,2.1304 0.16389,0.43418 0.57165,0.93589 0.90615,1.1149 0.33449,0.17902 0.79029,0.60344 1.01289,0.94317 0.48297,0.73711 0.80858,0.78006 1.17249,0.15466 z m 12.09283,-1.26608 c 0.0508,-1.3303 -0.72513,-1.8581 -1.85859,-1.26422 -0.38251,0.20042 -0.69546,0.42795 -0.69546,0.50563 0,0.40217 0.59386,1.16478 0.90704,1.16478 0.19759,0 0.43117,0.18739 0.51906,0.41643 0.0879,0.22903 0.36852,0.37627 0.62362,0.32719 0.34128,-0.0657 0.47452,-0.36943 0.50433,-1.14981 z m -18.95822,-0.51985 c 0,-0.25189 -0.25348,-0.39688 -0.69385,-0.39688 -0.58676,0 -0.64302,0.0613 -0.36448,0.39688 0.18116,0.21828 0.49339,0.39687 0.69385,0.39687 0.20047,0 0.36448,-0.17859 0.36448,-0.39687 z m 16.08667,-0.97896 c 0.52804,-0.52804 0.37645,-1.0506 -0.27781,-0.95768 -0.38258,0.0543 -0.62553,0.29729 -0.67986,0.67986 -0.0929,0.65427 0.42963,0.80585 0.95767,0.27782 z m -14.10229,-0.21167 c 0.0899,-0.14552 0.0445,-0.26458 -0.10107,-0.26458 -0.14552,0 -0.33816,0.11906 -0.4281,0.26458 -0.0899,0.14552 -0.0445,0.26458 0.10106,0.26458 0.14552,0 0.33817,-0.11906 0.42811,-0.26458 z m 12.66676,-1.59428 c -0.34392,-0.34391 -1.15739,-0.0558 -1.15739,0.40991 0,0.51266 0.60523,0.64474 1.047,0.2285 0.26689,-0.25148 0.30086,-0.44794 0.11039,-0.63841 z m -11.21155,0.42529 c 0,-0.0608 0.0723,-0.29898 0.1606,-0.52916 0.11184,-0.29147 0.007,-0.41852 -0.34396,-0.41852 -0.27751,0 -0.64744,-0.14287 -0.82206,-0.3175 -0.24694,-0.24694 -0.3175,-0.1999 -0.3175,0.21167 0,0.60345 0.47151,1.16417 0.97896,1.16417 0.18917,0 0.34396,-0.0498 0.34396,-0.11066 z m 9.74283,-1.03575 c 0.0577,-0.29741 -0.0931,-0.44109 -0.46302,-0.44109 -0.30171,0 -0.54856,0.15875 -0.54856,0.35277 0,0.81036 0.85704,0.88518 1.01158,0.0883 z m -8.41992,-0.83797 c 0,-0.21828 -0.11203,-0.39687 -0.24897,-0.39687 -0.33363,0 -0.57258,0.41317 -0.3612,0.62455 0.29797,0.29797 0.61017,0.18148 0.61017,-0.22768 z m 7.14375,-0.13229 c 0,-0.14552 -0.11906,-0.26458 -0.26458,-0.26458 -0.14552,0 -0.26458,0.11906 -0.26458,0.26458 0,0.14552 0.11906,0.26458 0.26458,0.26458 0.14552,0 0.26458,-0.11906 0.26458,-0.26458 z m 10.77878,-0.65145 c -0.13365,-0.99801 -0.46003,-1.13025 -0.46003,-0.1864 0,0.46082 0.12314,0.83785 0.27364,0.83785 0.1505,0 0.23437,-0.29315 0.18639,-0.65145 z m 17.13477,16.70414 c -1.42982,-0.5606 -2.493,-1.23242 -2.77029,-1.75053 -0.34832,-0.65086 -0.35667,-6.90238 -0.0104,-7.81306 0.1867,-0.49107 0.43382,-0.67429 0.85989,-0.63754 1.59424,0.13751 2.35704,-0.0279 2.26772,-0.49171 -0.0526,-0.27314 -0.40959,-0.51655 -0.87607,-0.59735 -1.49344,-0.25868 -1.19653,-0.89734 1.49997,-3.22645 0.38842,-0.33551 0.78201,-0.87353 0.87464,-1.19561 0.14103,-0.49034 0.005,-0.6579 -0.83851,-1.03007 -0.55381,-0.24446 -1.5022,-0.47329 -2.10753,-0.5085 -0.60532,-0.0352 -1.2304,-0.14426 -1.38906,-0.24232 -0.17873,-0.11046 -0.28847,0.0723 -0.28847,0.48039 0,0.47369 0.16137,0.68242 0.57459,0.74322 0.77216,0.11362 0.86661,0.54132 0.2796,1.26623 -0.42682,0.52711 -0.75902,0.60808 -2.72359,0.66388 -1.70172,0.0483 -2.51433,0.20479 -3.39368,0.65339 l -1.15619,0.58985 0.14711,1.42536 c 0.17894,1.73381 0.30223,1.95758 0.98076,1.78014 0.37454,-0.0979 0.5289,-0.36095 0.5289,-0.9012 0,-1.00151 0.93179,-1.06553 1.37425,-0.0944 0.45963,1.00878 -0.26576,2.37744 -1.37793,2.59988 -0.46297,0.0926 -1.10383,0.10257 -1.42413,0.0222 -1.27986,-0.32122 -1.61183,-4.49934 -0.42362,-5.33159 0.73587,-0.51543 0.67308,-1.13393 -0.11511,-1.13393 -0.70021,0 -1.07235,-0.68025 -0.78368,-1.43252 0.19213,-0.50069 1.70742,-1.2451 3.61012,-1.77355 1.78705,-0.49632 1.58192,-1.08508 -0.41356,-1.18696 -1.32699,-0.0677 -2.29842,-0.95508 -2.29842,-2.09944 0,-0.75223 0.12514,-0.89177 1.15119,-1.28362 1.42629,-0.5447 2.08175,-0.34592 1.97197,0.59804 -0.0521,0.44839 -0.33649,0.81399 -0.80806,1.03897 -0.40018,0.19091 -0.7276,0.45166 -0.7276,0.57943 0,0.53618 1.10489,0.52431 2.30059,-0.0247 3.14048,-1.44202 5.80245,-0.66545 4.43095,1.29263 -0.56739,0.81008 -0.3049,1.08149 1.01058,1.04493 0.66533,-0.0185 1.63597,0.20923 2.38657,0.55992 0.69584,0.3251 1.37975,0.52027 1.5198,0.43372 0.14005,-0.0866 0.65279,0.1463 1.13941,0.51747 0.91166,0.69535 1.23501,0.66075 1.23501,-0.13217 0,-0.48422 -0.50767,-0.77796 -1.34455,-0.77796 -0.70237,0 -0.6353,-0.44413 0.12856,-0.85144 0.81686,-0.43557 2.86242,-2.93984 3.51884,-4.30793 0.27929,-0.58208 0.66421,-1.0236 0.85538,-0.98115 0.19117,0.0425 0.57808,-0.13141 0.85979,-0.38636 0.44086,-0.39897 0.54625,-0.40972 0.75659,-0.0772 0.1344,0.2125 0.2462,0.65456 0.24843,0.98236 0.005,0.6702 1.68682,2.34439 3.00328,2.98885 1.52383,0.74599 2.77227,1.59349 2.92196,1.98359 0.18378,0.47893 0.95797,0.50966 0.95797,0.038 0,-0.74716 1.59873,-1.98453 2.98387,-2.30944 1.73908,-0.40792 1.95192,-0.53319 1.41574,-0.83325 -0.23697,-0.13262 -0.43086,-0.52422 -0.43086,-0.87023 0,-1.59109 3.18649,-2.42305 4.07672,-1.06439 0.30164,0.46037 0.67285,0.66146 1.22105,0.66146 0.86402,0 1.00417,-0.28468 0.39078,-0.79375 -0.21828,-0.18116 -0.39688,-0.61245 -0.39688,-0.95844 0,-0.52556 0.13345,-0.62906 0.81115,-0.62906 0.85253,0 1.83329,0.40816 2.16136,0.89951 0.35988,0.53896 0.20649,1.1718 -0.48249,1.99061 -0.59651,0.70892 -0.85563,0.81405 -2.00642,0.81405 -1.79871,0 -1.57005,0.59425 0.33204,0.86293 1.71772,0.24264 2.72546,0.91459 2.84186,1.89489 0.065,0.54751 -0.0465,0.75566 -0.46303,0.86459 -0.67616,0.17682 -0.67716,0.23177 -0.0195,1.06789 0.54395,0.69151 0.70066,2.58425 0.29862,3.6066 -0.59061,1.50183 -2.75186,1.30637 -3.19228,-0.28872 -0.38575,-1.39706 0.0305,-2.02243 1.20011,-1.80301 1.14869,0.2155 1.46537,-0.38418 0.7259,-1.37461 -0.81127,-1.08661 -2.15316,-1.42786 -3.84444,-0.97766 -1.8622,0.49568 -2.42786,0.47587 -2.95211,-0.10342 -0.47897,-0.52926 -0.5961,-1.63282 -0.1733,-1.63282 0.14552,0 0.26458,-0.17859 0.26458,-0.39687 0,-0.94196 -1.96646,-0.006 -2.86407,1.36359 -0.71118,1.08492 -0.71863,1.33345 -0.0463,1.54683 0.29104,0.0924 0.52916,0.25653 0.52916,0.36481 0,0.10827 0.22202,0.43517 0.49338,0.72644 0.27136,0.29127 0.63036,0.78554 0.79779,1.09837 0.17434,0.32577 0.46384,0.50761 0.67755,0.42561 0.62981,-0.24168 2.04945,2.58343 1.47622,2.93771 -0.36616,0.2263 0.003,1.11364 0.78989,1.90097 0.50858,0.50858 0.67582,0.86891 0.53023,1.14241 -0.11696,0.21973 -0.29705,1.19132 -0.40019,2.15909 -0.1664,1.56133 -0.29617,1.86494 -1.15172,2.69468 -1.19885,1.16268 -3.68898,2.1399 -4.8199,1.89151 -1.32021,-0.28997 -1.63529,-1.94206 -0.37762,-1.98003 0.14552,-0.004 0.72194,-0.39499 1.28094,-0.86798 1.3787,-1.1666 1.66078,-2.58564 0.96685,-4.86404 -0.4876,-1.60096 -2.02112,-3.96209 -2.87368,-4.42454 -0.23784,-0.12902 -0.69374,-0.471 -1.01311,-0.75997 -0.81921,-0.74123 -1.67127,-0.44201 -2.62214,0.92081 -1.24174,1.77971 -1.45527,2.42974 -1.00795,3.06838 0.20904,0.29845 0.70579,0.58018 1.10389,0.62607 0.80843,0.0932 1.61666,1.39879 1.63895,2.64752 0.007,0.39159 0.13874,0.78988 0.29278,0.88508 0.39306,0.24293 0.0448,1.62518 -0.71112,2.82269 -0.68655,1.08757 -1.60259,1.47344 -2.43733,1.02669 -0.85293,-0.45647 -1.10037,-0.34254 -1.10037,0.50667 0,1.07829 -0.58968,1.026 -1.4718,-0.13052 l -0.70498,-0.92427 -0.78399,0.65969 c -1.02584,0.86319 -1.60933,0.83244 -2.41693,-0.12734 -1.79304,-2.1309 -1.54338,-4.73808 0.75811,-7.9172 0.35796,-0.49447 0.65084,-0.97877 0.65084,-1.07624 0,-0.0975 -0.64188,-0.86691 -1.4264,-1.70988 l -1.4264,-1.53268 -0.81819,0.60492 c -0.45,0.3327 -1.11323,1.05075 -1.47383,1.59565 -0.36061,0.54491 -0.86975,1.0587 -1.13142,1.14175 -0.54462,0.17286 -1.66692,2.3753 -1.66353,3.26456 0.002,0.61273 -0.36958,0.79932 -0.65919,0.33073 -0.23564,-0.38128 -1.00748,-0.32537 -1.60308,0.11612 -0.46742,0.34648 -0.47619,0.41871 -0.0975,0.80347 0.41235,0.41902 1.30374,0.31362 1.30374,-0.15415 0,-0.12995 0.17058,-0.23627 0.37905,-0.23627 0.3751,0 0.46507,0.19052 0.80458,1.70365 0.35554,1.58461 1.52284,2.70804 3.16493,3.046 1.06284,0.21874 1.42186,1.42034 0.597,1.99808 -0.67042,0.46959 -2.87319,0.49399 -4.01951,0.0445 z m -0.1323,-2.95581 c 0,-0.21829 -0.11203,-0.39688 -0.24896,-0.39688 -0.33364,0 -0.57259,0.41317 -0.36121,0.62455 0.29798,0.29797 0.61017,0.18148 0.61017,-0.22767 z m 9.78548,-0.39468 c 0.70182,-0.37561 0.91177,-1.65739 0.44254,-2.70178 -0.21556,-0.47976 -0.46832,-1.32416 -0.5617,-1.87644 -0.12607,-0.74564 -0.34084,-1.06918 -0.83423,-1.25677 -0.86292,-0.32808 -1.06717,-0.31937 -0.71721,0.0306 0.20123,0.20122 0.17851,0.83273 -0.0785,2.18151 -0.56136,2.94612 0.17269,4.46655 1.74909,3.62289 z m 4.02655,-0.59751 c 0.52043,-0.41039 0.73966,-1.89747 0.43983,-2.98339 -0.12408,-0.44935 -0.56984,-1.14681 -0.99058,-1.54992 l -0.765,-0.73291 -0.33739,2.2678 c -0.31182,2.09595 -0.301,2.308 0.14287,2.79847 0.55557,0.61389 0.92355,0.66261 1.51027,0.19995 z m -14.4552,-0.75719 c 0.1,-0.16179 0.0177,-0.39809 -0.18282,-0.52511 -0.5663,-0.35869 -0.76151,-0.28432 -0.76151,0.29011 0,0.56484 0.64177,0.72455 0.94433,0.235 z m 23.8051,-0.2526 c 0.2435,-0.39401 -0.0388,-0.60822 -0.54541,-0.41383 -0.23378,0.0897 -0.35095,0.28301 -0.26038,0.42956 0.21447,0.34701 0.58608,0.33976 0.80579,-0.0157 z m -11.77323,-1.76834 c 0.006,-0.69122 0.17454,-1.7137 0.37368,-2.27217 0.30762,-0.86271 0.30647,-1.14843 -0.008,-1.90013 -0.50794,-1.21569 -0.79138,-1.31857 -1.67435,-0.60774 -0.63003,0.5072 -0.74268,0.76984 -0.65347,1.52344 0.0593,0.50083 0.28419,1.10551 0.4998,1.34375 0.21559,0.23824 0.39199,0.58857 0.39199,0.77851 0,0.6419 0.61131,2.39111 0.83564,2.39111 0.12248,0 0.22792,-0.56554 0.23431,-1.25677 z m 12.32694,-0.12347 c 0.24589,-0.39785 -0.54711,-1.04187 -1.04679,-0.85013 -0.42444,0.16288 -0.60679,0.9209 -0.29623,1.23146 0.20295,0.20296 1.1477,-0.0653 1.34302,-0.38133 z m -24.38724,-1.62233 c 0.53877,-0.39395 0.35199,-0.96618 -0.31537,-0.96618 -0.46132,0 -1.39428,0.7356 -1.39428,1.09934 0,0.35208 1.17076,0.26089 1.70965,-0.13316 z m 24.53014,-0.5115 c 0.28514,-0.46136 0.0399,-0.65133 -0.99709,-0.7724 -1.06387,-0.1242 -1.4523,0.31494 -0.88412,0.99956 0.37077,0.44675 1.55294,0.304 1.88121,-0.22716 z m -1.09506,-1.65651 c 0.44987,-0.54207 -0.0277,-1.02862 -0.77643,-0.79099 -0.70575,0.22399 -0.75375,1.19907 -0.059,1.19907 0.27322,0 0.64917,-0.18364 0.83545,-0.40808 z m -12.64149,-2.04286 c 0.25603,-0.54375 0.57188,-0.98864 0.70188,-0.98864 0.13,0 0.48224,0.41672 0.78274,0.92604 0.30051,0.50932 0.66135,0.92604 0.80187,0.92604 0.27091,0 1.34986,-1.39366 1.34986,-1.74358 0,-0.11368 0.2545,-0.47759 0.56556,-0.80869 0.50387,-0.53635 0.52938,-0.68934 0.23387,-1.40276 -0.18242,-0.44041 -0.43593,-0.73631 -0.56334,-0.65757 -0.38431,0.23752 -2.3103,-1.48617 -3.0269,-2.70895 -0.3691,-0.62981 -0.78624,-1.14511 -0.92698,-1.14511 -0.14075,0 -0.63278,0.76427 -1.09342,1.69838 -0.46829,0.94965 -1.09606,1.8162 -1.42399,1.96561 -0.68127,0.31041 -1.51422,1.81809 -1.2459,2.25512 0.52465,0.85456 2.63916,2.79615 2.98277,2.73886 0.21805,-0.0364 0.60594,-0.51099 0.86198,-1.05475 z m -8.40441,0.2891 c 0.37573,-0.34575 -0.4021,-0.7733 -1.05612,-0.5805 -0.7296,0.21507 -1.01883,0.52607 -0.8074,0.86818 0.19124,0.30943 1.42094,0.1196 1.86352,-0.28768 z m 19.94036,-0.19039 c 0.20691,-0.1311 0.25144,-0.29391 0.10512,-0.38434 -0.13961,-0.0863 -0.47975,0.0141 -0.75585,0.22309 -0.38605,0.29222 -0.41033,0.381 -0.10512,0.38435 0.21828,0.002 0.55841,-0.098 0.75585,-0.2231 z m -18.74752,-1.36755 c 0,-0.58417 -0.31761,-0.64539 -1.12013,-0.21589 -0.55552,0.2973 -0.55543,0.29805 0.0802,0.63824 0.7495,0.40112 1.03991,0.28317 1.03991,-0.42235 z m 17.1883,0.42408 c 0.40016,-0.48217 0.14021,-0.93763 -0.53516,-0.93763 -0.53838,0 -0.61987,0.20883 -0.35296,0.9044 0.19997,0.5211 0.4747,0.53138 0.88812,0.0332 z m -1.03562,-1.61302 c 0.53577,-0.57031 0.57382,-0.71435 0.24456,-0.92571 -0.8123,-0.52144 -1.83975,0.27948 -1.49869,1.16826 0.22977,0.59878 0.51568,0.54349 1.25413,-0.24255 z m -14.1683,-0.11836 c 0,-0.25436 -0.30879,-0.42665 -0.8599,-0.47978 -0.72658,-0.0701 -0.8599,0.004 -0.8599,0.47978 0,0.47545 0.13332,0.54984 0.8599,0.47978 0.55111,-0.0531 0.8599,-0.22542 0.8599,-0.47978 z m -12.8323,-0.64584 c 0,-0.2097 -0.11906,-0.45485 -0.26458,-0.54478 -0.14552,-0.0899 -0.26458,-0.10671 -0.26458,-0.0373 0,0.0695 -0.0723,0.3146 -0.1606,0.54478 -0.10539,0.27464 -0.0144,0.41852 0.26458,0.41852 0.23385,0 0.42518,-0.17157 0.42518,-0.38126 z m 25.22766,-0.17283 c 0.27042,-0.31583 0.40242,-0.74172 0.30696,-0.99046 -0.14425,-0.37592 -0.23346,-0.34886 -0.64389,0.19526 -0.26641,0.35319 -0.60909,0.54966 -0.77734,0.44568 -0.39863,-0.24637 -0.38646,0.18303 0.0166,0.58611 0.43073,0.43073 0.5479,0.40547 1.09765,-0.23659 z m -21.25891,-0.76883 c 0,-0.14552 -0.11906,-0.26458 -0.26458,-0.26458 -0.14552,0 -0.26458,0.11906 -0.26458,0.26458 0,0.14552 0.11906,0.26458 0.26458,0.26458 0.14552,0 0.26458,-0.11906 0.26458,-0.26458 z m 19.95441,-0.1606 c 0.59118,-0.22686 0.52018,-0.63315 -0.11066,-0.63315 -0.29398,0 -0.52916,0.17639 -0.52916,0.39688 0,0.4453 0.0485,0.4632 0.63982,0.23627 z m -1.17709,-1.4269 c 0,-0.0728 -0.11254,-0.31031 -0.25009,-0.52788 -0.21453,-0.33934 -0.3068,-0.32053 -0.64899,0.13229 -0.52104,0.6895 -0.51258,0.86557 0.0473,0.98343 0.41033,0.0864 0.85179,-0.21828 0.85179,-0.58784 z m -7.2018,0.19844 c -0.0606,-0.1819 -0.26899,-0.33073 -0.46302,-0.33073 -0.19402,0 -0.40238,0.14883 -0.46302,0.33073 -0.0656,0.19674 0.12201,0.33073 0.46302,0.33073 0.34102,0 0.5286,-0.13399 0.46302,-0.33073 z m 5.35782,-1.14653 c 0,-0.46723 -0.56959,-0.38587 -0.73312,0.10473 -0.0576,0.17281 0.0838,0.31419 0.31419,0.31419 0.23041,0 0.41893,-0.18851 0.41893,-0.41892 z m -192.19882,16.7759 c -0.68434,-0.79926 -0.83524,-2.53436 -0.31874,-3.66496 0.50071,-1.09602 1.00535,-1.91377 1.32384,-2.14525 0.31592,-0.2296 -0.0412,-0.75718 -0.51253,-0.75718 -0.20969,0 -0.38126,0.17859 -0.38126,0.39687 0,0.21828 -0.11906,0.39688 -0.26458,0.39688 -0.35299,0 -0.33921,-0.71641 0.018,-0.93719 0.15545,-0.0961 0.22301,-0.33004 0.15014,-0.51993 -0.17819,-0.46434 0.77194,-1.32948 1.01974,-0.92852 0.13269,0.21469 0.28344,0.21058 0.55543,-0.0152 0.29936,-0.24844 0.37332,-0.20905 0.37332,0.19882 0,0.27975 0.13185,0.64049 0.29299,0.80163 0.21427,0.21427 0.14118,0.37424 -0.27199,0.59536 -0.65546,0.35079 -0.49677,0.80499 0.28125,0.80499 0.69796,0 0.4959,0.63514 -0.23648,0.74334 -0.84767,0.12523 -1.84987,1.28696 -1.96563,2.27852 -0.14929,1.27875 -0.0162,1.47605 0.99587,1.47605 0.7276,0 0.90399,-0.10325 0.90399,-0.52916 0,-0.61735 0.58822,-0.69875 1.0478,-0.14499 0.42434,0.51129 0.13484,1.33172 -0.70224,1.99017 -0.88264,0.69428 -1.69208,0.68015 -2.30895,-0.0403 z m 219.87066,-1.10663 c -1.07839,-1.07838 -1.17894,-1.29793 -1.3573,-2.96348 -0.12408,-1.15863 -0.0857,-2.09457 0.10787,-2.62985 0.16528,-0.45708 0.30051,-1.06735 0.30051,-1.35617 0,-0.28882 0.27098,-0.89242 0.60218,-1.34134 0.59104,-0.80111 0.61307,-0.80739 1.19062,-0.33972 0.71287,0.57725 0.74294,0.78855 0.1122,0.78855 -0.55715,0 -1.11125,0.48814 -1.11125,0.97896 0,0.45099 1.08813,0.44168 1.71221,-0.0147 0.30392,-0.22223 0.42606,-0.52638 0.32115,-0.79975 -0.10341,-0.26949 0.0423,-0.65266 0.37434,-0.98476 0.299,-0.29899 0.47716,-0.71682 0.39593,-0.92851 -0.0955,-0.24874 0.10072,-0.47934 0.55453,-0.65188 0.64161,-0.24393 0.66594,-0.30327 0.28193,-0.68729 -0.5547,-0.55469 -1.85103,-0.26864 -1.7436,0.38475 0.1041,0.63317 -0.2541,1.12009 -0.69854,0.94955 -0.61346,-0.23541 0.0382,-1.37558 1.77919,-3.11272 1.67099,-1.66734 1.67098,-1.71116 -5.3e-4,-2.32999 -0.47294,-0.17509 -0.8599,-0.40234 -0.8599,-0.505 0,-0.10266 -0.23812,-0.12439 -0.52916,-0.0483 -0.38052,0.0995 -0.52917,0.008 -0.52917,-0.32532 0,-0.3946 0.16755,-0.43951 1.12448,-0.30135 2.02794,0.29278 2.38131,0.41552 2.76235,0.95953 0.49883,0.71218 1.34771,0.68327 1.69589,-0.0578 0.15383,-0.32742 0.65198,-0.83344 1.10699,-1.12448 1.24519,-0.79647 2.56926,-2.67471 2.57912,-3.65859 0.0103,-1.03334 0.53206,-1.76537 1.25821,-1.76537 0.56649,0 2.17291,1.70721 2.17291,2.30924 0,0.41653 0.32606,0.43387 0.72155,0.0384 0.22123,-0.22123 0.65397,0.052 1.67633,1.05833 0.75796,0.7461 1.53767,1.35655 1.73268,1.35655 0.19501,0 0.7444,0.23768 1.22086,0.52818 1.15127,0.70193 1.69979,0.66724 2.40452,-0.15205 0.32274,-0.37521 0.99274,-0.76522 1.48888,-0.8667 0.81201,-0.16607 0.95155,-0.33291 1.39756,-1.67096 0.4024,-1.20718 0.58774,-1.46234 0.98646,-1.35807 0.32729,0.0856 0.54639,-0.0462 0.65716,-0.39521 0.14273,-0.44968 0.29869,-0.49371 1.10481,-0.3119 1.25354,0.28271 1.40984,0.50222 0.69825,0.98061 -0.80957,0.54427 -0.74905,0.91769 0.13229,0.81628 0.52114,-0.06 0.75161,-0.25277 0.81221,-0.67944 0.0692,-0.48748 0.20206,-0.56624 0.73104,-0.43348 0.35554,0.0892 0.80769,0.0284 1.00477,-0.13514 0.27074,-0.2247 0.43952,-0.19958 0.69042,0.10274 0.18265,0.22008 0.61516,0.40014 0.96115,0.40014 0.79749,0 1.68946,0.87769 1.68057,1.65365 -0.005,0.43574 -0.29638,0.72894 -1.08707,1.09385 l -1.08025,0.49854 0.95478,0.54565 c 0.97797,0.55891 1.30864,1.49998 0.52705,1.49998 -0.32695,0 -0.38022,0.14028 -0.22606,0.59531 0.11092,0.32742 0.252,1.30969 0.31351,2.18281 0.0946,1.34328 0.0261,1.67909 -0.4457,2.18281 -0.74543,0.79592 -1.45162,0.75064 -2.06337,-0.13229 -0.76995,-1.11127 -0.87201,-1.59865 -0.4278,-2.04286 0.45903,-0.45903 1.31274,-0.53575 1.55736,-0.13995 0.0899,0.14552 0.33669,0.26458 0.54833,0.26458 0.33238,0 0.32908,-0.13517 -0.0242,-0.99218 -0.73738,-1.78858 -2.32983,-2.40441 -4.86397,-1.88099 -1.37385,0.28377 -1.64346,0.26841 -2.2486,-0.12809 -0.73861,-0.48396 -0.90002,-1.09393 -0.34576,-1.30662 0.188,-0.0721 0.56793,0.0342 0.84429,0.23626 0.35291,0.25804 0.55598,0.28087 0.68218,0.0767 0.28497,-0.46108 3.33694,-0.52905 3.70749,-0.0826 0.82974,0.99978 1.24766,-0.42392 0.44366,-1.51139 -0.65278,-0.88294 -1.38418,-0.98291 -1.78,-0.24331 -0.39134,0.73123 -1.86386,0.95262 -2.87123,0.43168 -1.05195,-0.54398 -1.29782,-0.5297 -1.49347,0.0868 -0.0885,0.27888 -0.48349,0.62924 -0.87773,0.77858 -0.39424,0.14934 -1.01445,0.52158 -1.37825,0.8272 l -0.66146,0.55568 0.78527,0.58397 c 0.43191,0.32119 1.08675,0.93115 1.45521,1.35548 0.36847,0.42433 1.11557,1.27016 1.66024,1.87963 1.40783,1.57533 1.87523,2.99723 1.87235,5.69603 -0.002,2.25127 -0.25552,3.04085 -1.33787,4.1733 -0.18379,0.1923 -0.33416,0.45777 -0.33416,0.58994 0,0.46142 -2.089,1.32642 -2.78282,1.15228 -0.36687,-0.0921 -1.02974,-0.0172 -1.47304,0.16644 -0.68355,0.28314 -0.86916,0.27071 -1.22167,-0.0818 -0.59919,-0.59919 -0.27906,-1.13207 1.24254,-2.06832 0.90042,-0.55403 1.47851,-1.14153 1.76077,-1.78942 0.5588,-1.28268 0.47536,-3.15823 -0.18075,-4.06272 -0.28602,-0.39429 -0.52003,-0.85617 -0.52003,-1.0264 0,-0.17023 -0.55404,-0.82545 -1.23121,-1.45606 -1.04305,-0.97133 -1.17962,-1.20871 -0.89364,-1.55329 0.18566,-0.2237 0.48769,-0.40674 0.67118,-0.40674 0.38604,0 0.69024,-0.93603 0.48122,-1.48072 -0.19223,-0.50096 -0.61845,-0.45866 -1.39543,0.13849 -0.44369,0.341 -0.90986,0.45561 -1.47811,0.36339 -0.74579,-0.12102 -0.87595,-0.0379 -1.28255,0.81895 -0.2489,0.5245 -0.55309,0.95364 -0.67598,0.95364 -0.28187,0 -1.07465,1.95337 -1.07465,2.64787 0,0.31892 0.40711,0.77749 1.05118,1.18407 1.26965,0.8015 2.22011,2.6531 2.04164,3.97738 -0.30273,2.24641 -1.96957,4.06606 -3.08596,3.36887 -0.84432,-0.52729 -1.32977,-0.40638 -1.32977,0.33119 0,0.77963 -0.28417,0.84155 -0.87352,0.19033 -0.26997,-0.29831 -0.89156,-0.49917 -1.69465,-0.5476 -0.69756,-0.0421 -1.61881,-0.098 -2.04721,-0.12419 -1.84664,-0.1131 -2.49564,-3.71767 -1.09539,-6.08382 0.41453,-0.70049 1.0356,-1.45832 1.38015,-1.68407 0.34455,-0.22576 0.62645,-0.61384 0.62645,-0.8624 0,-0.50406 -2.57873,-3.19138 -3.06242,-3.19138 -0.16972,0 -1.02103,0.62508 -1.8918,1.38907 -2.08046,1.82532 -3.11974,3.88447 -3.06924,6.08119 0.0463,2.0146 0.31814,2.33844 1.674,1.99429 1.33969,-0.34005 2.26294,-0.10067 2.80553,0.72744 0.54794,0.83626 0.1983,1.32353 -1.12828,1.57239 -0.52205,0.0979 -1.14289,0.2751 -1.37963,0.39369 -0.85876,0.43015 -1.7685,0.76863 -2.48251,0.92365 -0.6113,0.13272 -0.91736,-0.0299 -1.89381,-1.00637 z m 2.20653,-1.33617 c 0.21381,-0.25763 0.22312,-0.4269 0.03,-0.54624 -0.42158,-0.26055 -1.3334,0.10908 -1.3334,0.54052 0,0.48783 0.89997,0.49178 1.30337,0.006 z m 21.84767,-0.42043 c 0.0899,-0.14552 -0.0816,-0.26458 -0.38126,-0.26458 -0.29963,0 -0.54478,0.11906 -0.54478,0.26458 0,0.14552 0.17157,0.26459 0.38126,0.26459 0.20969,0 0.45484,-0.11907 0.54478,-0.26459 z m -12.12061,-0.20826 c 0.17315,-0.11009 0.35759,-0.85241 0.40987,-1.64959 0.0908,-1.3841 0.10519,-1.40934 0.31952,-0.55985 0.3065,1.21478 0.59267,0.64875 1.08354,-2.14318 0.58561,-3.3308 -0.16015,-4.94632 -1.44826,-3.13734 -0.61485,0.86347 -0.67918,1.40097 -0.26116,2.18203 0.35258,0.65881 0.12755,0.94214 -0.40033,0.50404 -0.58396,-0.48465 -0.84478,-0.18352 -1.47101,1.6983 -0.61781,1.85653 -0.53091,2.31777 0.54838,2.91047 0.79248,0.4352 0.83193,0.44151 1.21945,0.19512 z m 4.19587,-0.70012 c 0.31417,-0.47948 0.37547,-0.953 0.24018,-1.85519 -0.18978,-1.26551 -1.03075,-2.6216 -1.52384,-2.45724 -0.42703,0.14234 -1.00206,3.88784 -0.68721,4.47615 0.37237,0.69576 1.46731,0.60481 1.97087,-0.16372 z m -14.85107,-0.046 c 0.23019,-0.0883 0.41852,-0.39389 0.41852,-0.67903 0,-0.79119 -1.4248,-0.56511 -1.53976,0.24432 -0.0868,0.61115 0.2854,0.75546 1.12124,0.43471 z m 24.07665,-0.53872 c 0.0917,-0.23911 0.11469,-0.48688 0.051,-0.55061 -0.21463,-0.21462 -1.23593,0.48016 -1.07902,0.73404 0.24656,0.39895 0.84558,0.29207 1.02805,-0.18343 z m -23.65813,-1.94651 c 0,-0.56089 -0.72452,-0.79662 -1.53122,-0.49821 -0.76048,0.28133 -0.75427,0.96422 0.01,1.08352 0.93875,0.14656 1.52136,-0.0776 1.52136,-0.58531 z m 24.07429,0.40024 c 0.41139,-0.49569 0.16179,-1.19399 -0.42678,-1.19399 -0.4155,0 -0.41608,-0.0333 -0.008,-0.48385 0.78843,-0.87121 0.37136,-1.63445 -0.60701,-1.11084 -0.44825,0.23989 -0.48267,0.37844 -0.23116,0.93044 0.22868,0.5019 0.21418,0.74658 -0.0641,1.08192 -0.30846,0.37169 -0.28798,0.48574 0.14397,0.80159 0.6353,0.46454 0.78962,0.46128 1.19341,-0.0253 z m -1.03815,-3.84913 c 0.63825,-0.34158 0.67132,-1.05042 0.0488,-1.04497 -0.72483,0.006 -1.21733,0.4307 -1.03905,0.89528 0.19099,0.49773 0.30717,0.51529 0.99029,0.14969 z m -12.45281,-2.24826 c 0,-0.17791 0.16464,-0.46011 0.36587,-0.62712 0.29029,-0.24091 0.53418,-0.0973 1.18066,0.69521 l 0.8148,0.99885 0.6619,-0.79375 c 0.36405,-0.43656 0.66619,-0.89443 0.67142,-1.01749 0.005,-0.12305 0.25053,-0.56221 0.5451,-0.9759 l 0.53559,-0.75216 -0.58548,-0.54545 c -0.32201,-0.3 -0.71185,-0.54981 -0.86631,-0.55514 -0.15446,-0.005 -0.87615,-0.7819 -1.60376,-1.72574 -0.75559,-0.98014 -1.49224,-1.68376 -1.71777,-1.64073 -0.21717,0.0414 -0.63389,0.5659 -0.92604,1.16549 -0.57315,1.17629 -2.08168,3.00441 -2.47917,3.00441 -0.1344,0 -0.31967,0.19626 -0.41171,0.43612 -0.11642,0.30337 0.295,0.90417 1.3516,1.97381 1.42098,1.4385 1.54941,1.51012 1.99113,1.11037 0.25969,-0.23502 0.47217,-0.57287 0.47217,-0.75078 z m 12.17084,-0.0183 c 0,-0.62071 -0.57598,-0.70539 -1.11713,-0.16423 -0.70576,0.70575 -0.41721,1.20211 0.46512,0.8001 0.3586,-0.16339 0.65201,-0.44953 0.65201,-0.63587 z m -1.95248,-0.75462 c 0.0812,-0.21153 -0.0416,-0.65474 -0.27288,-0.98491 l -0.42048,-0.60031 v 0.57242 c 0,0.31483 -0.121,0.64721 -0.2689,0.73861 -0.14789,0.0914 -0.2004,0.27703 -0.11667,0.41249 0.23424,0.37901 0.91385,0.29189 1.07893,-0.1383 z m -17.36211,-0.54144 c 0,-0.73263 -0.54549,-0.88252 -1.04061,-0.28594 -0.24618,0.29663 -0.21129,0.4339 0.16605,0.65341 0.72193,0.41999 0.87456,0.35585 0.87456,-0.36747 z m 1.33222,-1.06955 c 0.25773,-0.31054 0.26502,-0.48175 0.0305,-0.71626 -0.37857,-0.37857 -1.26532,0.37522 -0.98155,0.83438 0.24759,0.40059 0.55192,0.3628 0.95104,-0.11812 z m 12.8137,-0.80549 c 0.24665,-0.37643 0.38013,-0.75273 0.29664,-0.83622 -0.2169,-0.2169 -1.21339,0.73966 -1.21339,1.16477 0,0.56782 0.43053,0.41353 0.91675,-0.32855 z m -10.81382,-0.67864 c 0.178,-0.28801 -0.54015,-1.01819 -1.00142,-1.01819 -0.32302,0 -0.2566,0.64532 0.10349,1.00541 0.39852,0.39853 0.65725,0.40221 0.89793,0.0128 z m 9.85032,-0.5771 c 0.0942,-0.4857 -0.15547,-0.55628 -0.71475,-0.20204 -0.41688,0.26405 -0.14157,0.89975 0.32272,0.74518 0.16857,-0.0561 0.34498,-0.30053 0.39203,-0.54314 z m -8.6845,-0.70568 c 0,-0.14552 -0.17859,-0.26458 -0.39688,-0.26458 -0.21828,0 -0.39687,0.11906 -0.39687,0.26458 0,0.14552 0.17859,0.26459 0.39687,0.26459 0.21829,0 0.39688,-0.11907 0.39688,-0.26459 z m 7.14375,-0.26458 c 0,-0.14552 -0.17859,-0.26458 -0.39688,-0.26458 -0.21828,0 -0.39687,0.11906 -0.39687,0.26458 0,0.14552 0.17859,0.26458 0.39687,0.26458 0.21829,0 0.39688,-0.11906 0.39688,-0.26458 z m 29.06472,16.43043 c -0.85463,-0.0918 -1.71331,-0.35838 -2.00523,-0.62256 -0.2808,-0.25412 -0.63875,-0.46204 -0.79549,-0.46204 -0.15674,0 -0.65337,-0.55619 -1.10365,-1.23598 -0.7047,-1.0639 -0.81868,-1.47571 -0.81868,-2.95778 0,-3.66215 1.09951,-5.68058 4.88071,-8.9598 1.05437,-0.91439 0.88268,-1.50677 -0.56435,-1.94719 -1.28654,-0.39158 -1.71773,-0.86257 -1.03095,-1.12611 0.52483,-0.2014 2.60651,0.51939 3.23167,1.11897 0.44225,0.42415 0.55713,0.43339 1.08969,0.0877 0.32742,-0.21256 0.59531,-0.54831 0.59531,-0.74612 0,-0.19781 0.38695,-0.55411 0.8599,-0.79177 1.23891,-0.62259 3.37275,-2.77568 3.37748,-3.40798 0.008,-1.05185 0.39706,-1.32542 1.49847,-1.0534 0.83103,0.20525 1.02592,0.37924 1.09474,0.97731 0.0461,0.40018 0.19455,0.7276 0.32996,0.7276 0.13544,0 0.69308,0.40054 1.2392,0.89008 1.2032,1.07855 4.31123,2.81409 5.03952,2.81409 0.28988,0 0.5937,-0.17376 0.67519,-0.38612 0.20977,-0.5466 2.80991,-1.81094 3.67417,-1.78658 0.96538,0.0272 1.19142,-0.41224 0.37221,-0.72369 -0.80116,-0.3046 -0.68852,-1.10916 0.24048,-1.71786 0.7406,-0.48525 1.75268,-0.33756 3.79045,0.55313 1.67344,0.73144 1.62073,0.72321 1.62073,0.25297 0,-0.20272 -0.17859,-0.4371 -0.39687,-0.52087 -0.21828,-0.0838 -0.39688,-0.33235 -0.39688,-0.55243 0,-0.46453 0.92821,-0.75392 2.01856,-0.62932 0.66548,0.0761 0.76962,0.20773 0.84074,1.06305 0.10009,1.20383 -0.60492,1.75347 -2.23089,1.73926 -0.60023,-0.005 -1.22727,0.0745 -1.39337,0.17712 -0.46699,0.28862 -0.0473,0.72078 0.52395,0.53948 0.31367,-0.0995 0.56296,-0.0186 0.65122,0.2114 0.0826,0.21516 0.54909,0.38797 1.10363,0.40882 0.52835,0.0199 1.08011,0.15558 1.22611,0.30159 0.14602,0.14601 0.3334,1.54783 0.41642,3.11516 0.083,1.56732 0.24456,2.99416 0.35902,3.17076 0.29062,0.44844 -0.72528,1.39871 -1.49532,1.39871 -0.82614,0 -2.02007,-0.95991 -2.02007,-1.6241 0,-1.06673 0.50416,-1.59843 1.34131,-1.41457 0.60981,0.13394 0.77536,0.0783 0.77536,-0.26074 0,-0.52661 -0.73406,-1.99167 -0.99899,-1.99379 -0.10541,-8.5e-4 -0.90284,-0.11799 -1.7721,-0.26033 -1.15316,-0.18883 -1.82189,-0.17151 -2.4734,0.0641 -0.84101,0.30412 -0.93155,0.27798 -1.55739,-0.4496 -0.63008,-0.73252 -0.63982,-0.79052 -0.18802,-1.12089 0.26205,-0.19162 0.75137,-0.34839 1.08733,-0.34839 0.36664,0 0.6109,-0.15869 0.6109,-0.39688 0,-0.52868 -0.88138,-0.50472 -1.93138,0.0525 -0.46569,0.24715 -1.02534,0.42377 -1.24362,0.39249 -0.41669,-0.0597 -1.85208,1.12699 -1.85208,1.53121 0,0.28473 0.75374,1.06652 1.02827,1.06652 0.1623,0 1.84714,1.6328 3.10825,3.01224 0.87252,0.95439 1.45595,2.69225 1.6029,4.7746 0.14354,2.03385 0.10025,2.30835 -0.58454,3.70806 -0.73301,1.49816 -1.61089,2.35467 -2.28934,2.23357 -0.19359,-0.0346 -0.88778,0.0921 -1.54263,0.28147 -1.59723,0.46189 -2.69009,0.40767 -3.10067,-0.15384 -0.73425,-1.00415 -0.22588,-1.67576 1.56083,-2.06195 0.90394,-0.1954 1.49897,-0.79203 1.68772,-1.69234 0.0818,-0.39001 0.25448,-0.90613 0.3838,-1.14695 0.14537,-0.27073 0.11616,-0.75296 -0.0765,-1.2635 -0.29959,-0.79368 -0.0262,-1.85032 0.43273,-1.67309 0.22198,0.0857 1.49338,-1.02402 1.49338,-1.30348 0,-0.39313 -1.52587,-0.22995 -1.68317,0.18 -0.25495,0.66437 -0.79925,0.45434 -2.22843,-0.85989 -1.93003,-1.77477 -3.12576,-2.71198 -3.46011,-2.71198 -0.1582,0 -0.46487,0.34276 -0.68149,0.76168 -0.39576,0.7653 -1.01907,1.19035 -1.31363,0.89578 -0.22722,-0.2272 -0.19534,-1.12674 0.0403,-1.13661 0.10914,-0.005 0.40254,-0.28922 0.65201,-0.63255 0.44689,-0.61504 0.43808,-0.6345 -0.59735,-1.31971 -0.578,-0.3825 -1.40864,-1.19918 -1.84586,-1.81484 -1.51606,-2.13483 -1.6574,-2.31 -1.86378,-2.31 -0.11406,0 -0.54269,0.66214 -0.95245,1.47142 -0.40978,0.80928 -1.28772,1.9488 -1.95095,2.53226 l -1.20592,1.06083 1.07095,1.11329 c 0.58902,0.61231 1.29564,1.39823 1.57028,1.7465 l 0.49932,0.63322 0.51493,-0.70689 c 0.52224,-0.71692 1.26455,-0.95553 1.26455,-0.40649 0,0.16521 -0.31028,0.58795 -0.68953,0.93942 -0.52075,0.48263 -0.65561,0.81383 -0.55094,1.35325 0.21772,1.12209 0.61886,2.49472 0.98195,3.36006 l 0.33303,0.79375 0.41227,-1.71979 c 0.22675,-0.94589 0.4063,-2.28534 0.39899,-2.97656 -0.0119,-1.13142 0.0462,-1.25677 0.58293,-1.25677 0.43474,0 0.67736,0.23284 0.89594,0.8598 0.16483,0.47289 0.64076,1.1575 1.05759,1.52136 1.1848,1.03421 1.86944,2.56851 1.86944,4.18949 0,1.24638 -0.10001,1.51256 -0.82175,2.18674 -0.84933,0.7934 -1.52569,0.94593 -2.3169,0.52249 -0.3107,-0.16629 -0.73242,-0.11222 -1.31125,0.16811 -0.78962,0.38243 -0.89246,0.37773 -1.37943,-0.063 -0.50829,-0.46 -0.54697,-0.45671 -1.1358,0.0965 -0.79563,0.74744 -1.28305,0.72238 -2.28095,-0.11731 -0.97726,-0.8223 -1.34265,-1.45146 -1.49579,-2.57552 -0.22688,-1.66526 0.1598,-2.81195 1.37644,-4.08169 0.63984,-0.66777 1.16334,-1.41808 1.16334,-1.66735 0,-0.24927 -0.54999,-1.06492 -1.22216,-1.81256 -1.32593,-1.47475 -1.62864,-1.52328 -2.91425,-0.46721 -1.58041,1.29824 -2.50526,2.36954 -3.15855,3.65876 -0.61724,1.21805 -0.67019,1.54502 -0.50942,3.14587 0.15695,1.56266 0.29019,1.89389 1.06344,2.64335 0.48619,0.47125 1.19546,0.891 1.57614,0.93279 0.79079,0.0868 1.46064,0.56249 1.46064,1.03724 0,0.44429 -0.88427,1.20786 -1.34374,1.16033 -0.20683,-0.0214 -1.04865,-0.11113 -1.87071,-0.19942 z m -1.81264,-2.6721 c 0,-0.14552 -0.17859,-0.26458 -0.39687,-0.26458 -0.21828,0 -0.39688,0.11906 -0.39688,0.26458 0,0.14552 0.1786,0.26459 0.39688,0.26459 0.21828,0 0.39687,-0.11907 0.39687,-0.26459 z m 10.74288,-0.9404 c 0.0933,-0.3717 0.10525,-1.07249 0.0266,-1.5573 -0.20487,-1.26249 -1.13229,-3.1895 -1.35869,-2.82315 -0.10279,0.16632 -0.29679,0.23448 -0.43112,0.15147 -0.1343,-0.083 -0.45349,-0.0334 -0.70932,0.11019 -0.44243,0.24838 -0.44254,0.2698 -0.003,0.4395 0.53086,0.20453 0.59219,0.99517 0.17097,2.20349 -0.39875,1.14548 0.23321,2.15162 1.352,2.15162 0.61857,0 0.81817,-0.14166 0.95223,-0.67582 z m 3.5293,0.16172 c 0.20987,-0.13278 0.52055,-0.71216 0.69044,-1.28751 0.35181,-1.19154 0.0549,-2.21367 -0.88689,-3.05295 -0.51477,-0.45877 -1.27984,-0.39494 -0.98496,0.0822 0.0741,0.11997 -0.043,0.72203 -0.26027,1.3379 -0.52491,1.48779 -0.4985,2.00815 0.13409,2.64074 0.59158,0.59157 0.75827,0.62722 1.30759,0.27965 z m -14.69069,-0.70483 c 0.5535,-0.2124 0.53292,-0.80741 -0.039,-1.12748 -0.4213,-0.23578 -0.42387,-0.2944 -0.0324,-0.74075 0.57078,-0.65075 0.91075,-3.00273 0.47313,-3.2732 -0.21979,-0.13583 -0.0458,-0.3451 0.53779,-0.64689 0.5711,-0.29534 0.77388,-0.53492 0.59991,-0.70887 -0.37488,-0.37489 -1.6941,-0.16304 -1.91658,0.30779 -0.10314,0.21828 -0.37844,0.76462 -0.61175,1.2141 -0.31703,0.61073 -0.34816,0.89328 -0.12321,1.11823 0.22494,0.22494 0.18893,0.42483 -0.14254,0.7911 -0.53523,0.59142 -0.55975,0.94867 -0.0918,1.33706 0.20818,0.17277 0.30393,0.61806 0.23456,1.09073 -0.12118,0.82566 0.17709,0.99686 1.11181,0.63818 z m 24.4956,-2.07275 c 0,-0.20969 -0.12428,-0.45806 -0.27617,-0.55194 -0.34163,-0.21113 -1.09509,0.37637 -0.89594,0.6986 0.23696,0.3834 1.17211,0.26639 1.17211,-0.14666 z m 0.0175,-1.48013 c 0.73205,-0.39182 0.64807,-1.04902 -0.13414,-1.04902 -0.72898,0 -1.05969,0.36909 -0.84111,0.93871 0.17539,0.45704 0.3008,0.47122 0.97517,0.11031 z m -1.92246,-3.48319 c 0.46286,-0.46286 0.38928,-0.74083 -0.19606,-0.74083 -0.58145,0 -0.92136,0.39848 -0.67707,0.79375 0.21651,0.35031 0.48625,0.33397 0.87313,-0.0529 z m -20.07307,-0.64582 c 0.3183,-0.28824 -0.55591,-0.67041 -1.17694,-0.51453 -0.586,0.14707 -0.64958,0.24253 -0.37891,0.56868 0.28503,0.34343 1.15011,0.31332 1.55585,-0.0542 z m 18.9424,-0.78541 c 0.70646,-0.4629 0.64516,-0.8971 -0.12663,-0.8971 -0.44569,0 -0.80645,0.4831 -0.80645,1.07997 0,0.34194 0.18849,0.30499 0.93308,-0.18287 z m -17.46954,-0.63252 c 0,-0.57381 -1.03225,-0.49476 -1.1444,0.0876 -0.0723,0.37573 0.0456,0.46483 0.52554,0.39688 0.34038,-0.0482 0.61886,-0.26623 0.61886,-0.48451 z m 16.3172,-0.70247 c 0.61462,-0.55623 0.61658,-0.88503 0.005,-0.88503 -0.67617,0 -1.4905,0.65494 -1.26601,1.0182 0.26297,0.42545 0.69377,0.37995 1.26077,-0.13317 z m -14.3663,-0.24938 c 0.0544,-0.046 0.0283,-0.26739 -0.0578,-0.49195 -0.10028,-0.26133 -0.49295,-0.40828 -1.09101,-0.40828 -1.0214,0 -1.06548,0.0544 -0.65919,0.81353 0.21119,0.39459 0.44191,0.47418 0.99219,0.34226 0.39436,-0.0946 0.7615,-0.20955 0.81584,-0.25556 z m 12.73347,-1.19721 c 0,-0.31898 -0.72453,-0.29363 -0.92604,0.0324 -0.28599,0.46272 0.13809,0.85373 0.55272,0.50962 0.20534,-0.1704 0.37332,-0.41431 0.37332,-0.54201 z m -11.37708,-0.36448 c 0,-0.21828 -0.17156,-0.39688 -0.38126,-0.39688 -0.51152,0 -0.76486,0.44991 -0.34798,0.61798 0.57758,0.23286 0.72924,0.18688 0.72924,-0.2211 z m 10.05417,-0.53679 c 0,-0.20945 -0.20291,-0.28665 -0.52917,-0.20133 -0.52009,0.136 -0.69752,0.61387 -0.35507,0.95631 0.23172,0.23171 0.88424,-0.32543 0.88424,-0.75498 z m -8.69157,-0.78613 c 0,-0.13824 -0.12797,-0.29402 -0.28442,-0.34616 -0.15642,-0.0521 -0.28443,0.10363 -0.28443,0.34616 0,0.24254 0.12801,0.39831 0.28443,0.34616 0.15645,-0.0521 0.28442,-0.20791 0.28442,-0.34616 z m 7.10407,0 c 0,-0.21828 -0.1786,-0.39687 -0.39688,-0.39687 -0.21828,0 -0.39687,0.17859 -0.39687,0.39687 0,0.21828 0.17859,0.39688 0.39687,0.39688 0.21828,0 0.39688,-0.1786 0.39688,-0.39688 z m 27.25208,15.80036 c -1.90127,-0.93954 -2.65374,-2.33579 -2.78095,-5.16015 -0.0986,-2.18876 0.12112,-2.86642 0.75795,-2.33789 0.21921,0.18193 0.85336,0.29334 1.40922,0.24757 0.90149,-0.0742 1.01193,-0.16152 1.02251,-0.80811 0.007,-0.39869 0.219,-0.87634 0.47215,-1.06145 0.40754,-0.29799 0.41648,-0.39643 0.0782,-0.8591 -0.37877,-0.51797 -0.38706,-0.51804 -0.95144,-0.007 -0.3294,0.29811 -0.51678,0.71624 -0.44463,0.99214 0.17362,0.66395 -0.66924,1.08362 -1.27974,0.6372 -0.5584,-0.40831 -0.33057,-0.96371 0.8599,-2.09631 0.76377,-0.72667 0.78877,-0.73122 1.5657,-0.28533 0.85963,0.49336 1.6724,0.35202 1.6724,-0.29083 0,-0.27625 -0.25961,-0.40518 -0.81579,-0.40518 -0.9299,0 -0.94885,-0.50613 -0.0344,-0.91944 0.3139,-0.14188 0.70623,-0.58505 0.87183,-0.98482 0.27469,-0.66319 0.22611,-0.78992 -0.55465,-1.44688 -0.70572,-0.59383 -1.07021,-0.70696 -2.07957,-0.64544 -1.45595,0.0887 -1.47802,0.10352 -1.08961,0.72967 0.2227,0.35903 0.22635,0.68972 0.0138,1.24574 -0.26053,0.68133 -0.37491,0.73876 -1.14474,0.57487 -1.61505,-0.34383 -3.35572,-0.19476 -4.56573,0.39099 -1.09673,0.53092 -1.18436,0.64831 -1.18436,1.58644 0,0.5572 0.0723,1.20142 0.1606,1.4316 0.22699,0.59153 1.35901,0.52007 1.75289,-0.11065 0.47496,-0.76051 0.99764,-0.65605 0.99288,0.19844 -0.005,0.92687 -0.25083,1.30465 -1.0377,1.59573 -0.95392,0.35288 -1.84938,0.0716 -2.2362,-0.70248 -0.64516,-1.29099 -0.18238,-3.99905 0.74414,-4.35459 0.22937,-0.088 0.41709,-0.34241 0.41709,-0.56525 0,-0.22285 0.1261,-0.40518 0.28019,-0.40518 0.15412,0 0.19876,-0.13178 0.0992,-0.29283 -0.1062,-0.17185 -0.24929,-0.19124 -0.34634,-0.0469 -0.28678,0.42643 -1.73765,0.24915 -1.82864,-0.22343 -0.17679,-0.91843 1.84753,-1.91496 3.82802,-1.88443 0.88487,0.0136 1.24447,-0.39893 0.87244,-1.00091 -0.17989,-0.29104 -0.355,-0.29686 -0.93811,-0.0312 -1.06654,0.48595 -2.58162,-0.56698 -2.95984,-2.05699 -0.17606,-0.69363 -0.18249,-1.13774 -0.018,-1.23943 0.3267,-0.20191 1.5246,0.90195 1.82626,1.6829 0.31615,0.81838 1.48307,0.78177 3.29046,-0.10321 1.26185,-0.61788 1.5176,-0.66081 2.21512,-0.37189 0.93652,0.38792 1.39912,1.45722 1.00788,2.32972 -0.3428,0.76445 -0.27295,0.8201 1.29114,1.02883 0.71612,0.0956 1.58596,0.39372 1.93302,0.66259 0.85799,0.66473 1.62935,0.60715 2.37333,-0.17718 0.34275,-0.36128 0.74616,-0.65688 0.89649,-0.65688 0.23516,0 1.52324,-1.04381 3.17683,-2.57442 0.25466,-0.23572 0.46302,-0.69083 0.46302,-1.01135 0,-0.76176 0.62862,-1.2648 1.31022,-1.04847 0.60208,0.19109 0.75864,1.40121 0.24741,1.91243 -0.16193,0.16195 -0.21003,0.43101 -0.10689,0.59792 0.13038,0.21095 0.29104,0.16196 0.52697,-0.16069 0.32197,-0.44033 0.377,-0.43775 1.07235,0.0503 1.33009,0.93358 2.10397,1.43225 2.50619,1.61492 0.21828,0.0991 0.67686,0.39497 1.01902,0.65742 0.34218,0.26245 1.02772,0.55326 1.52341,0.64625 0.73811,0.13847 1.08019,0.032 1.88966,-0.58836 0.65114,-0.49899 1.52995,-0.84771 2.57569,-1.02201 1.11347,-0.1856 1.61147,-0.3926 1.6682,-0.6934 0.0475,-0.25178 -0.14285,-0.48732 -0.46109,-0.57054 -0.80039,-0.20931 -0.68826,-1.16037 0.19039,-1.61473 0.73425,-0.3797 2.06002,-0.30451 2.32987,0.13213 0.0792,0.12815 0.41082,0.23299 0.73692,0.23299 0.32612,0 0.7358,0.14288 0.91043,0.3175 0.24694,0.24695 0.3175,0.10681 0.3175,-0.63061 0,-0.80906 0.10012,-0.96725 0.68265,-1.07861 0.67051,-0.12818 2.39628,0.14912 2.67737,0.43021 0.0787,0.0787 0.0637,0.56626 -0.0333,1.08347 -0.20717,1.10438 -1.26125,1.97199 -1.82619,1.50314 -0.25407,-0.21087 -0.43352,-0.20499 -0.66013,0.0216 -0.4509,0.45089 -0.38243,0.73453 0.17732,0.73453 0.43207,0 1.49215,0.40867 2.68648,1.03566 0.56483,0.29652 0.6732,1.64082 0.15562,1.93047 -0.3743,0.20948 -0.37666,0.33013 -0.0228,1.17709 0.42952,1.02793 0.59243,2.99833 0.28858,3.48998 -0.33565,0.5431 -1.75321,1.1309 -2.305,0.95577 -0.59838,-0.18992 -1.5535,-1.60004 -1.55503,-2.2958 0,-0.24954 0.22931,-0.57697 0.5108,-0.72761 0.65202,-0.34896 1.60486,-0.35449 1.60486,-0.009 0,0.14552 0.11906,0.26459 0.26458,0.26459 0.45519,0 0.28882,-1.19713 -0.24619,-1.7714 -0.65873,-0.70706 -2.92759,-1.24915 -4.3058,-1.02877 -1.24971,0.19984 -2.73781,-0.21346 -2.9727,-0.82564 -0.0967,-0.252 0.0738,-0.67747 0.41859,-1.04449 0.31999,-0.34061 0.5057,-0.69538 0.4127,-0.78838 -0.28657,-0.28657 -3.06401,1.26913 -3.52679,1.97544 -0.42921,0.65504 -0.41884,0.68084 0.59219,1.47339 2.82612,2.21542 4.2228,4.3352 4.6006,6.9825 0.42098,2.94956 -1.0663,6.39724 -2.83937,6.5821 -0.4027,0.042 -1.29636,0.21752 -1.98589,0.39008 -1.55122,0.38821 -2.58275,0.03 -2.58275,-0.89685 0,-0.48601 0.25709,-0.69634 1.30696,-1.06922 1.09667,-0.3895 1.40102,-0.65254 1.89158,-1.63479 0.53438,-1.07002 0.55835,-1.30259 0.2788,-2.70676 -0.1682,-0.8449 -0.54468,-1.83383 -0.83659,-2.19763 -0.29194,-0.3638 -0.79716,-1.04694 -1.12273,-1.51808 -0.3256,-0.47114 -0.69533,-0.85809 -0.82164,-0.85989 -0.12631,-0.002 -0.63646,-0.36047 -1.13369,-0.79703 -1.0769,-0.94553 -1.81139,-1.01066 -2.23803,-0.19844 -0.17198,0.32742 -0.65241,0.98641 -1.06765,1.46442 -0.41521,0.478 -0.75493,1.01939 -0.75493,1.20307 0,0.18369 0.48382,0.80462 1.07516,1.37986 0.99695,0.96983 2.36442,3.22158 2.36442,3.89341 0,0.15978 -0.38695,0.8613 -0.85989,1.55894 -0.72221,1.06534 -0.99507,1.26952 -1.70418,1.27525 -0.46435,0.004 -0.91787,-0.11224 -1.0078,-0.25776 -0.0899,-0.14552 -0.39463,-0.26458 -0.67707,-0.26458 -0.36809,0 -0.51356,0.18293 -0.51356,0.64584 0,0.96083 -0.36261,1.01218 -1.17316,0.16613 -0.6758,-0.70538 -0.77274,-0.73177 -1.42954,-0.38909 -0.98433,0.51357 -1.70866,0.46148 -2.52627,-0.18166 -1.69548,-1.33366 -1.99226,-3.69575 -0.69019,-5.49319 0.43746,-0.60392 0.88804,-1.09803 1.00128,-1.09803 0.27388,0 1.11372,-1.43817 1.11372,-1.90719 0,-0.52958 -3.76238,-3.34051 -3.90396,-2.91669 -0.10776,0.32264 -1.40554,1.87838 -2.64046,3.16535 -1.80658,1.8827 -1.96548,4.99674 -0.34941,6.84699 0.49443,0.56609 1.29532,1.19081 1.77972,1.38827 0.93919,0.38284 1.19221,1.18464 0.46225,1.46475 -0.99017,0.37997 -2.93073,0.12288 -4.34398,-0.5755 z m 0.79375,-2.18262 c 0,-0.49625 -0.82724,-0.60076 -1.26783,-0.16017 -0.40103,0.40102 -0.37015,0.43306 0.41738,0.43306 0.46776,0 0.85045,-0.1228 0.85045,-0.27289 z m 10.11984,-0.36536 c 0.38235,-0.55584 -0.71308,-4.48172 -1.20478,-4.31781 -0.16164,0.0539 -0.51189,0.72868 -0.77833,1.49956 -0.39169,1.13317 -0.42897,1.56978 -0.19468,2.27967 0.15939,0.48294 0.43194,0.92591 0.60563,0.98438 0.44435,0.14957 1.33668,-0.10347 1.57216,-0.4458 z m 3.66231,0.143 c 0.44844,-0.36314 0.61891,-0.78661 0.63899,-1.5875 0.0151,-0.60074 -0.0413,-1.09225 -0.12522,-1.09225 -0.084,0 -0.37709,-0.41672 -0.65138,-0.92604 -0.27427,-0.50933 -0.63942,-0.92605 -0.81145,-0.92605 -0.3923,0 -0.92684,1.1426 -0.92684,1.98121 0,0.34837 -0.12827,0.71267 -0.28503,0.80956 -0.19979,0.12347 -0.21955,-0.2082 -0.0662,-1.10887 0.37272,-2.18818 0.27332,-3.99008 -0.24897,-4.51223 -0.44739,-0.44728 -0.4966,-0.43431 -1.12448,0.29641 -0.36113,0.42028 -0.65572,0.83492 -0.65458,0.92143 0.004,0.3116 1.5566,5.44279 1.57086,5.19155 0.008,-0.14157 0.36507,0.12632 0.79343,0.59531 0.90577,0.99169 1.06939,1.02262 1.89082,0.35747 z m 9.50119,-0.56309 c 0,-0.14552 -0.11907,-0.26458 -0.26459,-0.26458 -0.14552,0 -0.26458,0.11906 -0.26458,0.26458 0,0.14552 0.11906,0.26459 0.26458,0.26459 0.14552,0 0.26459,-0.11907 0.26459,-0.26459 z m -23.90135,-0.94382 c 0.27789,-0.72419 -0.31298,-1.00389 -1.07122,-0.50708 -0.37812,0.24775 -0.62193,0.55649 -0.54184,0.68609 0.24437,0.39542 1.4437,0.26231 1.61306,-0.17901 z m 24.26991,-0.53302 c 0.23297,-0.60706 0.21408,-0.63982 -0.36856,-0.63982 -0.50991,0 -0.717,0.51773 -0.35277,0.88194 0.28972,0.28974 0.55089,0.20208 0.72133,-0.24212 z m -24.25639,-1.33483 c 0.12724,-0.3883 -0.65625,-0.6833 -1.28487,-0.48379 -0.27054,0.0859 -0.49189,0.33424 -0.49189,0.55193 0,0.47331 1.61965,0.4112 1.77676,-0.0681 z m 24.63625,-0.98013 c 0.0716,-0.3751 -0.0467,-0.46472 -0.52374,-0.39687 -0.34229,0.0487 -0.65722,0.30298 -0.70853,0.57214 -0.0715,0.37511 0.0467,0.46472 0.52375,0.39687 0.34229,-0.0487 0.65722,-0.30297 0.70852,-0.57214 z m -1.27759,-1.49986 c 0,-0.32786 -0.75965,-0.53383 -0.93319,-0.25303 -0.23947,0.38748 0.10872,0.77738 0.54478,0.61004 0.21363,-0.082 0.38841,-0.24263 0.38841,-0.35701 z m -12.6329,-2.18282 c 0.53882,-0.57304 0.84804,-0.74461 0.92689,-0.51432 0.16973,0.49566 1.1635,1.37422 1.55445,1.37422 0.42172,0 1.15573,-1.03427 1.15573,-1.62854 0,-0.24886 0.23812,-0.52805 0.52916,-0.62042 0.73946,-0.23469 0.65937,-1.08339 -0.16872,-1.78769 -1.75001,-1.48838 -3.00628,-2.81167 -3.00628,-3.16665 0,-0.21318 -0.22315,-0.58954 -0.49585,-0.83635 -0.47451,-0.42941 -0.52295,-0.39413 -1.12448,0.81889 -0.61106,1.23223 -1.55467,1.86229 -1.55467,1.03807 0,-0.5483 -0.51099,-0.82049 -0.86873,-0.46275 -0.21487,0.21489 -0.16285,0.38896 0.19436,0.65016 0.5951,0.43514 0.39928,1.54959 -0.39121,2.22642 -0.72239,0.61853 -0.66143,0.8794 0.40412,1.72962 0.50933,0.40639 0.92605,0.96201 0.92605,1.23472 0,0.45442 0.31183,0.73023 0.88603,0.78363 0.12351,0.0115 0.58844,-0.36606 1.03315,-0.83901 z m 11.57457,0.18283 c 0,-0.43659 -0.41815,-0.51035 -0.66146,-0.11668 -0.21577,0.34912 0.10059,0.84457 0.41516,0.65016 0.13546,-0.0837 0.2463,-0.32379 0.2463,-0.53348 z m -1.0976,-0.94589 c 0.29411,-0.47093 0.29369,-0.6012 -0.003,-0.78504 -0.4355,-0.2703 -1.42893,0.63194 -1.16535,1.0584 0.28363,0.45892 0.78361,0.34189 1.16784,-0.27336 z m -17.6045,-0.59376 c 0.19499,-0.50816 -0.29311,-0.92307 -0.89938,-0.76452 -0.6342,0.16584 -0.66288,0.785 -0.0438,0.94677 0.7692,0.20102 0.7983,0.19539 0.94322,-0.18225 z m 16.18855,-0.6937 c 0.0899,-0.14552 0.0898,-0.38396 0,-0.52988 -0.19349,-0.31308 -1.19017,0.13845 -1.19017,0.53919 0,0.33728 0.98115,0.32961 1.19062,-0.009 z m -1.54651,-1.20203 c 0.0862,-0.22456 0.0767,-0.48824 -0.0209,-0.58596 -0.2167,-0.21669 -1.00738,0.25217 -1.15078,0.68242 -0.15679,0.47032 0.99052,0.37588 1.17176,-0.0965 z m -11.35764,-0.83134 c 0.10832,-0.32499 -0.95345,-0.6641 -1.33704,-0.42702 -0.30488,0.18843 0.60372,0.9208 0.9848,0.79378 0.14229,-0.0474 0.30081,-0.21248 0.35224,-0.36676 z m 9.86145,-0.0833 c 0,-0.14552 -0.1786,-0.26459 -0.39688,-0.26459 -0.21828,0 -0.39687,0.11907 -0.39687,0.26459 0,0.14552 0.17859,0.26458 0.39687,0.26458 0.21828,0 0.39688,-0.11906 0.39688,-0.26458 z m -285.87667,13.92031 c -0.76297,-0.76297 -0.85307,-1.5257 -0.25132,-2.12746 0.57399,-0.57399 0.83019,-0.52607 1.59408,0.29819 1.44982,1.56438 0.15556,3.32759 -1.34276,1.82927 z m -33.80616,-2.1983 c -0.74732,-0.11862 -0.89683,-0.46172 -0.4848,-1.11249 0.14457,-0.22834 0.0967,-0.76176 -0.12461,-1.38907 -0.35371,-1.00251 -0.34919,-1.01837 0.29042,-1.01837 0.72832,0 0.89403,-0.64339 0.23121,-0.89773 -0.23019,-0.0883 -0.85527,-0.16243 -1.38907,-0.16465 -1.02434,-0.004 -1.28939,-0.1237 -1.8409,-0.82942 -0.26828,-0.34328 -0.2769,-0.69196 -0.0403,-1.63144 0.35275,-1.4009 1.26599,-1.86292 2.13242,-1.07881 0.64199,0.58099 0.63168,1.07454 -0.0311,1.48845 -0.50898,0.31787 -0.70007,1.00242 -0.37153,1.33096 0.0867,0.0867 0.56657,-0.072 1.06638,-0.35278 0.49981,-0.28073 1.0738,-0.51041 1.27552,-0.51041 0.20173,0 0.41257,-0.13738 0.46854,-0.30528 0.056,-0.16789 0.72357,-0.38504 1.48356,-0.48254 1.57288,-0.20178 1.91965,0.027 1.95556,1.28997 0.024,0.84386 -0.8685,1.85326 -1.65367,1.87029 -0.60641,0.0132 -0.50781,1.48524 0.1308,1.95254 0.44748,0.32744 0.4755,0.47434 0.20411,1.06999 -0.20361,0.44687 -0.52661,0.69172 -0.91558,0.69406 -0.33054,0.002 -0.83911,0.046 -1.13015,0.0979 -0.29104,0.0519 -0.85659,0.0423 -1.25677,-0.0212 z m 1.12448,-2.35135 c 0,-0.46724 -0.56958,-0.38587 -0.73312,0.10473 -0.0576,0.1728 0.0838,0.31419 0.3142,0.31419 0.2304,0 0.41892,-0.18852 0.41892,-0.41892 z m -7.13534,0.61736 c -0.008,-1.46077 0.2873,-1.9822 0.62474,-1.10284 0.27216,0.70923 0.17893,1.57278 -0.22786,2.1106 -0.35627,0.47104 -0.38916,0.38753 -0.39688,-1.00776 z m 41.53652,0.60821 c -0.58443,-1.41093 -1.36052,-1.69201 -4.20353,-1.52239 -2.56226,0.15287 -3.47473,-0.0422 -3.47473,-0.74268 0,-0.2098 0.32742,-0.5863 0.7276,-0.83665 0.40018,-0.25035 0.78615,-0.50015 0.85769,-0.55511 0.0716,-0.055 -0.0723,-0.21321 -0.31974,-0.35166 -0.2474,-0.13846 -0.386,-0.41805 -0.308,-0.62132 0.0782,-0.20386 -0.0907,-0.49404 -0.37674,-0.64711 -0.78295,-0.41903 -0.87413,-0.97808 -0.28224,-1.73055 0.65742,-0.83578 1.42662,-0.86147 3.18212,-0.10627 1.40895,0.60611 1.79724,0.46897 1.80692,-0.63822 0.003,-0.37813 0.24441,-0.46302 1.31498,-0.46302 1.30057,0 1.31237,0.008 1.4933,0.97213 0.1549,0.82565 0.0882,1.04843 -0.44289,1.47845 -0.51826,0.41966 -0.86843,0.47593 -2.04611,0.32879 -1.27986,-0.15991 -1.41167,-0.12995 -1.32849,0.30197 0.0669,0.34721 0.52637,0.57579 1.66556,0.82852 2.11218,0.46858 2.29203,0.65362 2.14028,2.20205 -0.0689,0.70315 -0.0111,1.34905 0.12857,1.43534 0.31813,0.19662 0.33661,1.44858 0.0214,1.44858 -0.12787,0 -0.37803,-0.35138 -0.55593,-0.78085 z m 173.44404,-2.18844 c -0.6232,-0.88973 -0.55268,-3.51512 0.11729,-4.36685 0.72716,-0.92443 0.67211,-1.39511 -0.16315,-1.39511 -0.58884,0 -0.66847,-0.089 -0.53278,-0.59531 0.0877,-0.32742 0.16116,-0.80062 0.16315,-1.05154 0.002,-0.25093 0.38193,-0.65187 0.84433,-0.89098 0.7739,-0.4002 0.86559,-0.40074 1.15365,-0.007 0.17211,0.23537 0.4784,0.42417 0.68063,0.41954 0.25423,-0.006 0.21229,-0.12605 -0.13592,-0.3896 -0.54758,-0.41443 -0.36896,-0.55929 0.87978,-0.71349 0.96054,-0.11861 1.0236,-0.74058 0.0751,-0.74058 -0.80195,0 -2.5649,-0.62472 -2.78864,-0.98818 -0.0685,-0.11134 -0.20926,-0.76799 -0.31271,-1.45922 -0.17547,-1.17238 -0.14938,-1.25677 0.3885,-1.25677 0.31713,0 0.80446,-0.12194 1.08295,-0.27098 0.61802,-0.33076 1.74948,-0.0823 1.94496,0.42715 0.22176,0.5779 -0.11452,1.18353 -0.80238,1.44505 -0.63623,0.24189 -0.85935,1.13337 -0.36079,1.44149 0.14552,0.0899 0.26458,0.0473 0.26458,-0.0948 0,-0.14208 0.56555,-0.46694 1.25677,-0.72191 0.69122,-0.25498 1.44474,-0.62202 1.67448,-0.81564 0.22974,-0.19362 1.01853,-0.35203 1.75286,-0.35203 1.28371,0 1.34153,0.0319 1.50052,0.82682 0.27527,1.37634 0.20191,1.56616 -0.76067,1.96835 -0.97124,0.40581 -1.23864,0.90899 -0.48305,0.90899 0.36794,0 0.33881,0.1109 -0.17192,0.65456 -0.54074,0.57558 -0.56226,0.67476 -0.17842,0.82205 0.63951,0.24541 0.51725,1.23071 -0.21915,1.76625 -0.5088,0.37002 -0.68236,0.39448 -0.85159,0.12003 -0.37473,-0.60775 -2.25312,-1.56043 -2.53025,-1.2833 -0.30624,0.30624 -1e-4,0.90461 0.35162,0.68724 0.13546,-0.0837 0.2463,0.009 0.2463,0.20712 0,0.38414 -1.40748,0.9948 -2.29288,0.9948 -1.09862,0 -2.00295,2.09739 -1.31185,3.04253 0.43799,0.59899 1.3707,0.32405 1.59986,-0.4716 0.15685,-0.54457 0.20609,-0.5167 0.68798,0.38933 0.59842,1.12511 0.49597,1.60913 -0.42991,2.03099 -1.02249,0.46588 -1.88582,0.35973 -2.33924,-0.28762 z m 42.20087,-1.89486 c -0.60536,-1.2505 -0.6812,-2.05802 -0.26614,-2.83357 0.40179,-0.75076 0.78048,-0.36592 0.78048,0.79316 0,1.1933 0.66301,1.93131 1.53111,1.7043 0.39773,-0.10401 0.58555,-0.3554 0.58555,-0.78372 0,-0.34683 0.10449,-0.6306 0.23219,-0.6306 0.41571,0 0.76795,0.64523 0.76393,1.39937 -0.005,0.85501 -0.88646,1.42925 -2.23805,1.45728 -0.73898,0.0153 -0.91336,-0.12355 -1.38907,-1.10622 z m -257.16895,-1.64019 c 0.0127,-0.30822 0.0754,-0.37092 0.15985,-0.15985 0.0764,0.19099 0.067,0.4192 -0.0209,0.50712 -0.0879,0.0879 -0.15045,-0.0684 -0.13896,-0.34727 z m 257.9995,-2.38313 c 0.0708,-0.87693 -2.4e-4,-1.0188 -0.5808,-1.15991 -0.70859,-0.17223 -1.12548,-1.3297 -0.47892,-1.3297 0.1934,0 0.49009,-0.2217 0.65931,-0.49267 0.21649,-0.34666 0.76463,-0.54486 1.84958,-0.6688 1.97899,-0.22607 2.32229,-0.42683 1.84532,-1.07914 -0.31732,-0.43395 -0.26468,-0.57063 0.46304,-1.20237 1.15513,-1.00278 1.84371,-1.32014 2.85419,-1.31547 1.14294,0.005 1.42131,0.21679 1.61819,1.22964 0.11091,0.57053 0.0408,0.93799 -0.22043,1.15475 -0.23929,0.19861 -0.32361,0.55483 -0.22465,0.94912 0.14099,0.56184 0.0698,0.63119 -0.64842,0.63119 -1.03614,0 -1.26999,0.39104 -0.58471,0.97779 1.2562,1.07559 0.35008,1.77629 -2.21148,1.71016 -1.62434,-0.0419 -2.06673,0.0458 -2.82798,0.56081 -1.65663,1.1208 -1.59983,1.1195 -1.51224,0.0346 z m 4.71087,-1.1667 c 0,-0.14552 -0.12609,-0.26458 -0.2802,-0.26458 -0.15411,0 -0.20661,0.11906 -0.11667,0.26458 0.0899,0.14552 0.21602,0.26459 0.28019,0.26459 0.0642,0 0.11668,-0.11907 0.11668,-0.26459 z m 1.32292,0 c 0,-0.14552 -0.0525,-0.26458 -0.11668,-0.26458 -0.0642,0 -0.19026,0.11906 -0.2802,0.26458 -0.0899,0.14552 -0.0374,0.26459 0.11668,0.26459 0.15411,0 0.2802,-0.11907 0.2802,-0.26459 z m -2.64584,-1.32291 c 0,-0.29104 -0.0904,-0.52917 -0.20093,-0.52917 -0.11052,0 -0.34966,0.23813 -0.53141,0.52917 -0.28929,0.46321 -0.26424,0.52916 0.20094,0.52916 0.35501,0 0.5314,-0.17564 0.5314,-0.52916 z m 1.45843,-0.48186 c -0.21024,-0.21024 -0.66515,0.26704 -0.50363,0.52839 0.10987,0.17776 0.24622,0.1507 0.38681,-0.0768 0.11941,-0.19322 0.17198,-0.39645 0.11682,-0.45162 z m -0.2678,-1.10564 c -0.0899,-0.14552 -0.28258,-0.26459 -0.42811,-0.26459 -0.14552,0 -0.191,0.11907 -0.10106,0.26459 0.0899,0.14552 0.28258,0.26458 0.42811,0.26458 0.14552,0 0.191,-0.11906 0.10106,-0.26458 z m -130.84493,0.37459 c -0.34537,-0.90838 -0.34745,-0.90376 0.40534,-0.90376 0.52128,0 0.66146,0.13418 0.66146,0.63315 0,0.91734 -0.74871,1.10727 -1.0668,0.27061 z m 126.79698,-1.70483 c -1.7132,-1.59609 -0.49717,-3.99038 1.61818,-3.18613 l 0.72458,0.27549 -0.59803,1.12825 c -0.69854,1.31785 -0.74614,1.65742 -0.23237,1.65742 0.20615,0 0.42443,0.14883 0.48507,0.33073 0.18236,0.5471 -1.35985,0.38823 -1.99743,-0.20576 z"
       id="path12857" />
  </g>
</svg>
