<?xml version="1.0" encoding="UTF-8" standalone="no"?>
<!-- Created with Inkscape (http://www.inkscape.org/) -->

<svg
   width="29.36875mm"
   height="204.79164mm"
   viewBox="0 0 29.368749 204.79166"
   version="1.1"
   id="svg5"
   inkscape:version="1.1 (c4e8f9ed74, 2021-05-24)"
   sodipodi:docname="torch.svg"
   xmlns:inkscape="http://www.inkscape.org/namespaces/inkscape"
   xmlns:sodipodi="http://sodipodi.sourceforge.net/DTD/sodipodi-0.dtd"
   xmlns="http://www.w3.org/2000/svg"
   xmlns:svg="http://www.w3.org/2000/svg">
  <sodipodi:namedview
     id="namedview7"
     pagecolor="#ffffff"
     bordercolor="#666666"
     borderopacity="1.0"
     inkscape:pageshadow="2"
     inkscape:pageopacity="0.0"
     inkscape:pagecheckerboard="0"
     inkscape:document-units="mm"
     showgrid="false"
     inkscape:zoom="0.66903058"
     inkscape:cx="-613.57434"
     inkscape:cy="59.040649"
     inkscape:window-width="2506"
     inkscape:window-height="1403"
     inkscape:window-x="1974"
     inkscape:window-y="0"
     inkscape:window-maximized="1"
     inkscape:current-layer="layer1" />
  <defs
     id="defs2" />
  <g
     inkscape:label="Layer 1"
     inkscape:groupmode="layer"
     id="layer1"
     transform="translate(-298.10787,-196.13062)">
    <path
       style="fill:#000000;stroke-width:0.264583"
       d="m 311.73749,400.17338 c -0.10234,-0.40018 -0.2821,-2.17201 -0.39947,-3.9374 -0.11737,-1.76539 -0.3442,-3.4542 -0.50407,-3.75292 -0.37387,-0.69859 -0.37274,-2.57138 0.002,-3.75465 0.27936,-0.88149 0.36216,-15.08325 0.10758,-18.45294 -0.0817,-1.08179 -0.0206,-1.38907 0.27645,-1.38907 0.28127,0 0.38139,0.34727 0.38139,1.32292 0,0.72761 0.11906,1.32292 0.26458,1.32292 0.16198,0 0.26458,-1.25599 0.26458,-3.23879 0,-4.42665 -0.47971,-28.27923 -0.66386,-33.00913 -0.449,-11.53242 -0.45906,-12.96459 -0.0911,-12.96435 0.29348,1.8e-4 0.36804,1.74284 0.41337,9.66141 0.0339,5.92419 0.15873,9.83868 0.32269,10.12008 0.18339,0.31475 0.2699,-2.87689 0.27542,-10.16055 l 0.008,-10.61944 -0.81826,-0.1201 c -0.55469,-0.0814 -0.86547,0.003 -0.96481,0.26182 -0.0806,0.21006 -0.0628,2.24488 0.0396,4.52184 0.38847,8.6387 0.90756,39.06927 0.67058,39.31186 -0.13267,0.13582 -0.31996,0.16821 -0.4162,0.072 -0.0962,-0.0962 -0.27178,-5.38658 -0.39011,-11.75632 -0.11832,-6.36974 -0.34549,-16.10572 -0.50482,-21.63551 -0.28688,-9.95643 -0.29627,-10.06785 -0.96581,-11.46189 l -0.67611,-1.40772 0.6239,-0.66618 c 0.57843,-0.61761 0.6239,-0.88142 0.6239,-3.61936 v -2.95318 l 2.19173,-0.077 c 2.73567,-0.0961 2.66238,-0.58447 -0.0877,-0.58447 -1.86463,0 -1.96538,-0.0306 -1.95765,-0.59531 0.004,-0.32742 -0.10447,-1.66688 -0.2421,-2.97657 -0.13762,-1.30968 -0.32684,-7.32234 -0.42048,-13.36145 -0.25758,-16.61165 -0.66446,-21.69584 -1.7363,-21.69584 -0.54326,0 -0.25309,-1.65283 0.4334,-2.46869 l 0.69444,-0.82529 -0.18744,-6.22436 c -0.17842,-5.92502 -0.21818,-6.27753 -0.82672,-7.32981 -1.28271,-2.21803 -0.87477,-2.45374 3.92477,-2.26777 2.81939,0.10925 3.63802,0.22183 3.63802,0.50032 0,0.19765 -0.22839,0.35935 -0.50753,0.35935 -1.38893,0 -1.34455,-0.26726 -1.34455,8.0981 0,6.73641 0.0531,7.7769 0.39687,7.7769 0.34176,0 0.39742,-0.89102 0.40078,-6.41614 0.004,-6.57193 0.16419,-7.73906 1.06224,-7.73906 0.33422,0 0.38041,1.00057 0.32764,7.09808 -0.0472,5.44911 0.0128,7.07334 0.25798,6.99161 0.18927,-0.0631 0.33751,-0.69133 0.36381,-1.54183 0.0244,-0.78945 0.12415,-3.98721 0.22162,-7.10614 0.0975,-3.11892 0.28914,-5.8799 0.42594,-6.1355 0.15908,-0.29725 0.15311,-0.52382 -0.0166,-0.6287 -0.14592,-0.0902 -0.2653,-0.39506 -0.2653,-0.67751 0,-0.60375 0.95771,-0.70664 1.67761,-0.18024 0.39175,0.28645 0.4127,0.46316 0.14904,1.25677 -0.16875,0.5079 -0.4678,1.05391 -0.66458,1.21335 -0.27426,0.22223 -0.39644,1.80023 -0.52343,6.76042 -0.16033,6.26179 -0.14773,6.49997 0.3906,7.38303 0.69086,1.13325 0.70512,1.85282 0.0516,2.60629 -0.66476,0.76648 -0.7439,1.99917 -1.11427,17.3562 -0.40839,16.93375 -0.49687,18.99519 -0.83272,19.40089 -0.21041,0.25418 -0.2106,0.40027 -6.9e-4,0.53 0.15939,0.0985 0.29356,0.47638 0.29816,0.83973 0.005,0.36334 0.01,1.87717 0.0111,3.36405 0.002,2.33155 0.0864,2.85017 0.61088,3.77031 l 0.60814,1.06689 -0.64012,1.12246 c -0.77918,1.3663 -0.94417,3.84036 -1.18674,17.79525 -0.0885,5.09323 -0.28295,13.6062 -0.43203,18.91771 -0.63525,22.63328 -0.73408,29.34425 -0.46082,31.29163 0.24515,1.74705 0.20306,2.2607 -0.39694,4.84434 -0.36915,1.58954 -0.74674,3.71108 -0.8391,4.71455 -0.23957,2.60276 -0.92483,3.67161 -1.33234,2.07812 z m 1.52927,-22.15885 c 0.0891,-3.69104 0.0567,-5.669 -0.0824,-5.02708 -0.21744,1.00349 -0.36846,11.45563 -0.16216,11.22274 0.0537,-0.0606 0.16377,-2.84868 0.24457,-6.19566 z m -1.00945,-3.24115 c -0.0976,-1.49159 -0.25692,-2.71198 -0.35406,-2.71198 -0.2277,0 -0.0824,7.51293 0.16884,8.73125 0.28442,1.37909 0.40752,-2.62166 0.18522,-6.01927 z m 1.55894,-9.92187 c 0.10056,-3.81992 0.23478,-8.07641 0.29827,-9.45886 0.12653,-2.75545 0.31372,-10.99489 0.56861,-25.02807 l 0.16534,-9.10317 h -0.80137 c -0.48372,0 -0.86448,0.16445 -0.96058,0.41489 -0.27593,0.71907 -0.16868,20.75177 0.1111,20.75177 0.26699,0 0.30869,-1.39535 0.38946,-13.03287 0.026,-3.74834 0.11779,-6.88566 0.20394,-6.97181 0.48743,-0.48743 0.57154,0.65388 0.41459,5.62546 -0.32641,10.33873 -0.46861,15.56475 -0.74045,27.21151 -0.14945,6.40292 -0.31573,12.68012 -0.36952,13.94934 -0.0934,2.20524 -0.0403,2.58712 0.35972,2.58712 0.0979,0 0.26032,-3.12539 0.36089,-6.94531 z m 1.75412,-45.31405 c 0,-0.32447 -0.52877,-0.39272 -3.04271,-0.39272 -1.7345,0 -3.04271,0.10752 -3.04271,0.25009 0,0.25078 0.97285,0.35789 4.29948,0.47336 1.43056,0.0497 1.78594,-0.0161 1.78594,-0.33073 z m -4.41146,-3.5924 c -0.0252,-0.93231 -0.055,-2.02253 -0.0661,-2.42272 -0.0112,-0.40018 -0.13938,-0.7276 -0.2849,-0.7276 -0.15799,0 -0.26459,1.02158 -0.26459,2.53559 0,1.91228 0.0813,2.50784 0.33073,2.42272 0.22519,-0.0769 0.31611,-0.65384 0.2849,-1.80799 z m 1.18168,-0.77238 c -0.0517,-1.46922 -0.18768,-2.23953 -0.40824,-2.31255 -0.24615,-0.0815 -0.33073,0.43192 -0.33073,2.00759 0,2.2702 0.18256,3.14195 0.57567,2.74885 0.13245,-0.13245 0.20594,-1.2322 0.1633,-2.44389 z m 1.129,2.31841 c 0.14947,-3.11153 0.0756,-4.79804 -0.21433,-4.89473 -0.25001,-0.0834 -0.33073,0.54084 -0.33073,2.55758 0,1.6022 0.10569,2.66788 0.26459,2.66788 0.14552,0 0.27173,-0.14883 0.28047,-0.33073 z m 1.51539,-2.27036 c 0.064,-2.03935 0.0112,-2.42599 -0.33073,-2.42599 -0.33771,0 -0.4068,0.43062 -0.4068,2.53559 0,1.91053 0.0815,2.50857 0.33073,2.42599 0.22479,-0.0745 0.3551,-0.88669 0.4068,-2.53559 z m -3.75913,-6.61545 c -0.073,-0.24241 -0.25628,-7.70356 -0.40731,-16.58033 -0.15103,-8.87677 -0.34065,-16.63942 -0.42137,-17.25033 -0.10813,-0.81829 -0.24616,-1.0726 -0.52426,-0.96589 -0.31331,0.12023 -0.35801,0.93879 -0.26294,4.81491 0.67634,27.5736 0.76969,30.3487 1.02649,30.51562 0.4123,0.268 0.74115,-0.0299 0.58939,-0.53398 z m 2.6241,-17.20049 c 0.18362,-17.01453 0.17435,-17.55058 -0.30185,-17.45896 -0.47162,0.0907 -0.4944,0.77708 -0.56931,17.15661 -0.0429,9.38415 -0.007,17.3472 0.0808,17.69567 0.0893,0.35614 0.25563,0.52993 0.37988,0.39688 0.12159,-0.13019 0.3063,-8.13578 0.41049,-17.7902 z m -1.45458,0.0716 c 0,-16.19461 -0.035,-17.6073 -0.43458,-17.52864 -0.39843,0.0784 -0.43002,1.52624 -0.37972,17.40264 0.0302,9.5244 0.11371,17.41229 0.18562,17.52864 0.55088,0.89135 0.62868,-1.26212 0.62868,-17.40264 z m 2.73867,15.43138 c 0.0926,-1.20055 0.30032,-8.49312 0.4615,-16.20573 0.16118,-7.7126 0.31075,-14.60799 0.33238,-15.32308 0.0414,-1.37061 -0.43054,-1.95674 -0.71947,-0.89347 -0.0906,0.33338 -0.29167,5.24957 -0.44685,10.92489 -0.15517,5.67531 -0.3641,13.27566 -0.46429,16.88967 -0.10018,3.61402 -0.13254,6.62035 -0.0719,6.68073 0.49309,0.49111 0.75727,-0.11161 0.90864,-2.07301 z m 1.87226,-34.82766 c 0.1702,-0.27539 -4.71885,-0.68841 -5.13132,-0.43349 -0.1551,0.0958 -0.21349,0.28511 -0.12977,0.42058 0.19373,0.31346 5.06795,0.32542 5.26109,0.0129 z m -7.25677,-0.29578 c 0,-0.14552 -0.29765,-0.26458 -0.66145,-0.26458 -0.36381,0 -0.66146,0.11906 -0.66146,0.26458 0,0.14552 0.29765,0.26459 0.66146,0.26459 0.3638,0 0.66145,-0.11907 0.66145,-0.26459 z m 0.50033,-8.70772 -0.10345,-7.03498 h 0.66146 0.66146 v 6.87916 c 0,3.78354 0.0999,7.03378 0.22199,7.22275 0.17098,0.26462 0.30778,0.27238 0.59531,0.0337 0.30553,-0.25356 0.37332,-1.69121 0.37332,-7.91727 v -7.60745 l -0.82682,-0.16536 c -1.45298,-0.2906 -3.40687,-0.19564 -3.40266,0.16536 0.002,0.1819 0.17435,0.81999 0.38274,1.41797 0.27249,0.78193 0.41622,2.93659 0.51182,7.67292 0.0731,3.62212 0.139,6.61171 0.14643,6.64352 0.007,0.0318 0.20887,-0.0172 0.44767,-0.10877 0.3911,-0.15008 0.42391,-0.86452 0.33073,-7.20159 z m 0.95488,-10.27599 c -1.45521,-0.0411 -2.79382,-0.12824 -2.97471,-0.19374 -0.23068,-0.0835 -0.12737,-0.41603 0.34604,-1.11363 0.64627,-0.95233 0.67645,-1.22667 0.24913,-2.26464 -0.17606,-0.42766 0.1096,-0.46635 3.7403,-0.50661 l 3.93091,-0.0436 -3.175,-0.18921 c -1.74625,-0.10407 -3.59172,-0.13984 -4.10104,-0.0795 -1.10578,0.13104 -1.87253,-0.2587 -1.413,-0.71822 0.1928,-0.1928 0.62342,-0.23062 1.18841,-0.10436 0.48732,0.1089 2.66162,0.21024 4.83178,0.2252 2.9009,0.02 3.97518,0.11478 4.05694,0.35793 0.0708,0.21038 -0.14873,0.33073 -0.60315,0.33073 -0.58399,0 -0.68912,0.0965 -0.57606,0.5289 0.0761,0.2909 0.0304,0.59558 -0.10143,0.67708 -0.40896,0.25275 -0.26486,1.1906 0.30615,1.99252 0.30025,0.42165 0.47182,0.88651 0.38126,1.03303 -0.29148,0.47163 -0.60399,0.28594 -0.88751,-0.52736 -0.33691,-0.96647 -0.76558,-1.02379 -0.98933,-0.13229 -0.0913,0.3638 -0.2424,0.6703 -0.33577,0.68112 -0.88749,0.10279 -1.58553,0.11119 -3.87392,0.0466 z m 0.20574,-1.83154 c 0.14761,-0.77214 -0.005,-1.40975 -0.33739,-1.40975 -0.22996,0 -0.52212,1.86652 -0.34235,2.18713 0.19781,0.35278 0.53809,-0.0364 0.67974,-0.77738 z m 1.19815,-0.22951 c -0.0189,-0.50361 -0.12473,-0.91565 -0.23511,-0.91565 -0.27763,0 -0.58523,1.51197 -0.37635,1.84994 0.3117,0.50434 0.64632,-0.007 0.61146,-0.93429 z m 1.24195,0.14268 c 0,-0.48507 -0.14883,-0.93155 -0.33073,-0.99219 -0.22931,-0.0764 -0.33073,0.22784 -0.33073,0.99219 0,0.76435 0.10142,1.06862 0.33073,0.99219 0.1819,-0.0606 0.33073,-0.50712 0.33073,-0.99219 z m 1.19062,-0.14791 c 0,-0.56039 -0.10712,-0.87544 -0.26458,-0.77813 -0.14552,0.0899 -0.26459,0.51368 -0.26459,0.94166 0,0.42797 0.11907,0.77813 0.26459,0.77813 0.14552,0 0.26458,-0.42374 0.26458,-0.94166 z m -4.89479,-3.76251 c -1.9795,-0.11067 -2.07407,-0.17575 -1.59675,-1.09877 0.5585,-1.08002 0.50883,-2.18642 -0.16226,-3.61408 -1.12472,-2.39276 -4.10963,-3.25836 -6.41789,-1.86114 l -1.03314,0.62538 -1.41425,-1.39183 c -0.77784,-0.76551 -1.41425,-1.45454 -1.41425,-1.53117 0,-0.0766 1.39898,-0.101 3.10885,-0.0541 1.70987,0.0469 7.03792,0.11432 11.84011,0.1499 10.20864,0.0756 14.41979,0.23384 14.41979,0.54177 0,0.12185 -0.62876,0.67179 -1.39725,1.22208 -2.38779,1.70983 -2.37602,1.70619 -4.07597,1.26341 -2.06184,-0.53705 -2.76134,-0.49884 -3.81036,0.20809 -1.22695,0.82684 -1.61602,1.66069 -1.44686,3.10091 0.33211,2.82755 0.64426,2.51354 -2.49873,2.51354 -1.52797,0 -3.37344,-0.0333 -4.10104,-0.074 z m 5.95312,-1.26635 c 0,-0.22785 -0.13024,-0.65763 -0.28943,-0.95508 -0.35026,-0.65446 0.27699,-2.53126 1.09269,-3.26946 0.74379,-0.67312 0.64549,-0.91744 -0.36913,-0.91744 -0.66323,0 -1.20041,0.2743 -2.11667,1.08082 -1.07215,0.94375 -1.22787,1.21371 -1.22787,2.12869 0,0.75978 0.17855,1.22643 0.64943,1.69731 0.75649,0.75649 2.26098,0.91297 2.26098,0.23516 z m -4.72257,-0.60266 c 1.02547,-0.91625 1.10719,-1.977 0.24553,-3.18709 -0.60175,-0.84508 -2.41733,-1.91436 -3.82865,-2.25486 l -0.76507,-0.18459 0.84282,0.70919 c 1.30433,1.09752 1.93915,2.56783 1.83433,4.24849 -0.0753,1.2071 -0.0193,1.42188 0.37017,1.42157 0.25236,-2e-4 0.83775,-0.33892 1.30087,-0.75271 z m 12.97658,-4.97218 c 1.49046,-1.03288 1.29715,-1.25807 -0.91182,-1.06216 -2.0872,0.18511 -3.10963,0.40424 -3.10746,0.66598 0.001,0.14842 2.11108,0.95408 2.76251,1.05488 0.1377,0.0213 0.70325,-0.2751 1.25677,-0.6587 z M 302.47349,239.442 c 1.52274,-0.52494 1.30123,-0.73058 -0.78695,-0.73058 h -2.08341 l 0.62873,0.66925 c 0.3878,0.4128 0.78568,0.60521 1.03831,0.50211 0.22526,-0.0919 0.76676,-0.29029 1.20332,-0.44078 z m 12.03854,-1.83307 c -6.62119,-0.12241 -12.21713,-0.32346 -12.43541,-0.44678 -0.21828,-0.12332 -0.635,-0.13121 -0.92604,-0.0175 -0.72914,0.2848 -2.51355,0.29506 -2.51355,0.0145 0,-0.12618 0.46008,-0.53389 1.02239,-0.90601 l 1.02239,-0.67658 12.14063,0.15071 12.14064,0.15072 1.12447,0.768 c 1.09485,0.74777 1.46174,1.31569 0.79375,1.22867 -0.1819,-0.0237 -5.74807,-0.14324 -12.36927,-0.26565 z m -1.85208,-2.59308 c -7.27604,-0.14089 -7.27604,-0.14089 -7.36534,-0.77243 -0.0491,-0.34734 0.0644,-0.72655 0.25236,-0.84268 0.1879,-0.11613 2.69863,-0.14301 5.5794,-0.0597 3.66283,0.1059 5.23775,0.0656 5.23775,-0.13388 0,-0.15693 -0.11907,-0.35891 -0.26459,-0.44885 -0.68915,-0.42591 -0.20496,-1.50849 1.46775,-3.28165 2.51895,-2.67022 2.87965,-4.62809 1.44267,-7.83085 -0.82241,-1.833 -0.93253,-2.249 -0.59531,-2.24889 0.2753,9e-5 1.87255,3.38971 2.07174,4.39659 0.0897,0.45362 0.0179,1.52519 -0.15956,2.38125 -0.26312,1.269 -0.5367,1.77058 -1.48125,2.71576 -0.6372,0.63761 -1.15854,1.17925 -1.15854,1.20365 0,0.0244 0.39742,-0.002 0.88314,-0.0588 0.65572,-0.0765 1.0077,-0.31837 1.36685,-0.93905 0.26604,-0.45978 0.82113,-1.22706 1.23353,-1.70507 0.91187,-1.05693 0.95719,-1.9988 0.19985,-4.15356 -0.30248,-0.86061 -0.49657,-1.84401 -0.43133,-2.18533 0.0652,-0.34133 -0.22145,-1.5976 -0.63712,-2.79171 -0.41567,-1.19412 -0.75735,-2.54354 -0.75929,-2.99871 -0.005,-1.09364 -0.70751,-2.77128 -1.38252,-3.30005 -0.50581,-0.39622 -1.1258,-1.71274 -1.45154,-3.08226 -0.0779,-0.32742 -0.24677,-0.59531 -0.37533,-0.59531 -0.12855,0 -0.23374,-0.16895 -0.23374,-0.37544 0,-0.20649 -0.18097,-0.7125 -0.40215,-1.12448 -0.22119,-0.41197 -0.52722,-1.10623 -0.68007,-1.54279 -0.24813,-0.70872 -0.30654,-0.74258 -0.54522,-0.31609 -0.14703,0.26271 -0.28748,1.28407 -0.31213,2.26969 -0.0395,1.58036 0.07,2.02397 0.92708,3.75567 1.76547,3.56706 1.87617,4.0229 1.38628,5.70806 -0.26539,0.91294 -0.52045,1.37413 -0.67467,1.21991 -0.15421,-0.15421 -0.1442,-0.52081 0.0265,-0.96972 0.56246,-1.47938 0.35781,-2.35086 -1.404,-5.97898 -0.83513,-1.71979 -0.83513,-1.71979 -0.79041,-7.14375 l 0.0447,-5.42396 -0.51254,1.45058 c -0.2819,0.79781 -0.70446,2.57648 -0.93903,3.9526 -0.60539,3.55159 -0.38978,5.62331 0.91087,8.75203 1.14463,2.75342 1.41717,4.09549 1.4082,6.93432 -0.01,3.10915 -0.46301,2.62684 -0.6403,-0.68147 -0.14279,-2.66441 -0.27817,-3.31413 -1.11882,-5.36962 -2.19516,-5.36746 -2.2209,-7.96654 -0.13818,-13.95538 0.29891,-0.85953 0.5453,-1.81203 0.54753,-2.11667 0.002,-0.30464 0.11698,-0.73248 0.25501,-0.95076 0.21901,-0.34635 0.31114,-0.3366 0.72356,0.0766 0.40229,0.40303 0.46058,0.86153 0.39184,3.08258 -0.0689,2.22555 -7.9e-4,2.7583 0.46302,3.62368 0.29907,0.558 0.54377,1.16264 0.54377,1.34364 0,0.18099 0.53578,1.43166 1.19062,2.77924 0.65485,1.34759 1.19063,2.71839 1.19063,3.04623 0,0.33332 0.36161,0.9177 0.82035,1.32571 1.10037,0.97871 1.52222,1.86159 1.9692,4.12136 0.20669,1.04497 0.55135,2.3762 0.76589,2.95829 0.21454,0.58208 0.39531,1.3834 0.40169,1.7807 0.006,0.3973 0.32042,1.4743 0.69783,2.39333 0.61737,1.50331 0.65534,1.78562 0.37849,2.81377 -0.16925,0.62855 -0.59657,1.43166 -0.94961,1.7847 -0.35303,0.35303 -0.80969,0.96442 -1.0148,1.35864 -0.5693,1.09419 -1.50972,1.82345 -2.60281,2.01839 -1.06733,0.19034 -1.52457,0.75244 -1.52457,1.87423 0,0.68287 0.0337,0.69628 1.65365,0.658 0.9095,-0.0215 1.81002,-0.0297 2.00114,-0.0182 0.50835,0.0305 0.29862,1.73313 -0.2152,1.74707 -0.21828,0.006 -3.6711,-0.0526 -7.67292,-0.13013 z m -3.25765,-2.48818 c -0.0813,-0.21191 0.0499,-1.00358 0.29153,-1.75927 0.49398,-1.54471 0.55823,-1.44733 -2.32555,-3.52513 -0.66234,-0.47723 -1.4083,-1.31705 -1.68123,-1.89277 l -0.4906,-1.0349 -0.36929,0.87829 c -0.49101,1.16775 -0.46719,2.53882 0.058,3.34038 0.37151,0.567 0.62439,0.65215 1.93666,0.65215 1.28496,0 1.59588,0.0995 2.09134,0.66933 0.46313,0.53265 0.525,0.77578 0.30298,1.19063 -0.37919,0.70853 -0.70258,0.655 -1.14509,-0.18957 -0.29624,-0.56539 -0.58222,-0.72178 -1.39751,-0.76424 -0.56378,-0.0294 -1.1565,-0.0667 -1.31715,-0.0829 -0.16065,-0.0162 -0.62031,-0.33369 -1.02146,-0.70546 -0.7015,-0.65013 -0.72219,-0.74364 -0.54154,-2.4474 0.10331,-0.97429 0.35554,-2.17516 0.56051,-2.6686 0.20497,-0.49344 0.44733,-1.53234 0.53857,-2.30867 0.17635,-1.50044 0.62056,-1.7014 0.62838,-0.28429 0.004,0.69656 0.21383,0.39156 1.20006,-1.7431 1.51003,-3.26843 1.77702,-4.42118 1.82127,-7.86366 0.0298,-2.31931 0.13866,-2.9966 0.65902,-4.10104 0.34281,-0.7276 0.69572,-1.79917 0.78425,-2.38125 0.0885,-0.58208 0.28001,-1.02611 0.42553,-0.98673 0.42513,0.11505 0.2579,1.65952 -0.3568,3.29523 -0.43834,1.16641 -0.56924,2.1007 -0.56924,4.06285 0,3.11115 -0.66003,5.9122 -1.92768,8.18073 -1.02168,1.82835 -1.24732,2.49025 -1.24732,3.65895 0,1.15278 0.11107,1.40569 0.99219,2.25916 0.5457,0.52858 1.55423,1.34309 2.24117,1.81002 1.44278,0.98068 1.7481,1.76948 1.17329,3.03122 -0.22107,0.48528 -0.4398,1.11058 -0.48607,1.38956 -0.10497,0.63296 -0.63031,0.83623 -0.82823,0.32047 z m 4.58156,-1.42302 c 0.001,-0.90665 0.726,-2.11606 2.07881,-3.46887 0.57273,-0.57272 1.12213,-1.40926 1.22091,-1.85897 0.21529,-0.98024 0.66804,-1.35203 0.66804,-0.5486 0,0.91156 -0.70857,2.15683 -1.86532,3.2782 -0.68822,0.66717 -1.18215,1.44941 -1.37831,2.18282 -0.34525,1.29085 -0.72562,1.50906 -0.72413,0.41542 z m -1.32391,-1.49942 c 0,-0.84139 0.853,-2.80315 1.84709,-4.24801 1.07381,-1.56073 1.39009,-2.38759 1.57143,-4.1083 0.18874,-1.791 0.65366,-1.9062 0.76354,-0.18921 0.0853,1.3335 -0.19439,1.9798 -2.42759,5.60882 -0.53583,0.87074 -1.04594,2.0316 -1.13358,2.57969 -0.17669,1.10495 -0.62089,1.36036 -0.62089,0.35701 z m -1.68581,-2.61073 c -0.78882,-2.25682 -1.12834,-4.50978 -0.84797,-5.62687 0.32376,-1.28995 0.70079,-0.64509 0.66539,1.13806 -0.0262,1.31857 0.11355,2.11597 0.53391,3.04709 0.37821,0.83772 0.54235,1.65636 0.4889,2.43828 l -0.0805,1.17714 z m -2.8271,-1.39592 c -0.70405,-0.74942 -0.88067,-2.5015 -0.30972,-3.07245 0.25656,-0.25656 0.32471,-0.0887 0.32471,0.79968 0,0.61841 0.18738,1.48673 0.41639,1.92959 0.542,1.0481 0.36394,1.18976 -0.43138,0.34318 z m -2.62997,-6.19765 c -0.40212,-1.89487 -0.24618,-3.06921 0.65111,-4.9032 0.36901,-0.75424 0.67094,-1.62737 0.67094,-1.94029 0,-0.31291 0.116,-0.56894 0.25779,-0.56894 0.39307,0 1.0663,1.46793 1.05575,2.30197 -0.009,0.74074 -0.009,0.74074 -0.34962,0.12753 -0.28428,-0.51235 -0.39096,-0.55212 -0.64854,-0.24175 -0.6991,0.84237 -1.15197,2.75844 -1.12446,4.75756 0.0155,1.12779 -0.0179,2.05053 -0.0744,2.05053 -0.0564,0 -0.2538,-0.71254 -0.43861,-1.58341 z m 4.34309,-0.79784 c 0.68909,-3.04066 0.74289,-3.67448 0.49404,-5.82084 -0.27311,-2.35563 -0.18764,-3.3096 0.22972,-2.56382 0.1245,0.22248 0.29986,1.63449 0.38967,3.13781 0.17082,2.85915 -0.0765,4.44284 -0.84141,5.38731 -0.40982,0.50606 -0.41762,0.50203 -0.27202,-0.14046 z m -1.96271,-12.1372 c 0,-1.71638 0.67244,-3.99725 1.2912,-4.37966 0.1198,-0.074 0.42331,-0.70405 0.67448,-1.40002 0.25117,-0.69598 0.58981,-1.5393 0.75254,-1.87404 0.28508,-0.58644 0.31237,-0.56661 0.74862,0.544 0.35854,0.91276 0.40233,1.42259 0.21042,2.44981 -0.35832,1.91803 -0.86505,2.22464 -0.6494,0.39294 l 0.17133,-1.45521 -0.56904,0.65893 c -0.90757,1.05094 -1.83615,3.08479 -1.83931,4.02863 -0.004,1.32902 -0.30406,2.85307 -0.56088,2.85307 -0.12648,0 -0.22996,-0.81831 -0.22996,-1.81845 z"
       id="path12918" />
  </g>
</svg>
