<?xml version="1.0" encoding="UTF-8" standalone="no"?>
<!-- Created with Inkscape (http://www.inkscape.org/) -->

<svg
   width="52.953655mm"
   height="52.014885mm"
   viewBox="0 0 52.953657 52.014883"
   version="1.1"
   id="svg5"
   inkscape:version="1.1 (c4e8f9ed74, 2021-05-24)"
   sodipodi:docname="ornatei7.svg"
   xmlns:inkscape="http://www.inkscape.org/namespaces/inkscape"
   xmlns:sodipodi="http://sodipodi.sourceforge.net/DTD/sodipodi-0.dtd"
   xmlns="http://www.w3.org/2000/svg"
   xmlns:svg="http://www.w3.org/2000/svg">
  <sodipodi:namedview
     id="namedview7"
     pagecolor="#ffffff"
     bordercolor="#666666"
     borderopacity="1.0"
     inkscape:pageshadow="2"
     inkscape:pageopacity="0.0"
     inkscape:pagecheckerboard="0"
     inkscape:document-units="mm"
     showgrid="false"
     inkscape:zoom="0.66903058"
     inkscape:cx="-452.14674"
     inkscape:cy="211.50005"
     inkscape:window-width="2506"
     inkscape:window-height="1403"
     inkscape:window-x="1974"
     inkscape:window-y="0"
     inkscape:window-maximized="1"
     inkscape:current-layer="layer1" />
  <defs
     id="defs2" />
  <g
     inkscape:label="Layer 1"
     inkscape:groupmode="layer"
     id="layer1"
     transform="translate(-224.45629,-114.82573)">
    <path
       style="fill:#000000;stroke-width:0.470387"
       d="m 235.93506,166.32949 c -3.43115,-1.13918 -5.14096,-1.26609 -6.47117,-0.48032 -1.21613,0.71839 -1.40601,0.7109 -2.94149,-0.11601 -1.28271,-0.69078 -1.64145,-1.1762 -1.64145,-2.22107 0,-1.47559 0.5166,-1.70938 1.40687,-0.63669 0.58219,0.70151 1.41546,0.55939 1.41546,-0.2414 0,-0.23444 -0.63503,-1.14951 -1.41116,-2.03349 -1.9118,-2.17741 -1.87866,-3.92811 0.10521,-5.55853 1.46131,-1.20096 1.49089,-1.29071 0.70982,-2.15378 -1.10214,-1.21784 -1.02838,-1.44243 0.38495,-1.17225 0.8321,0.15906 1.57393,-0.11331 2.4197,-0.88841 l 1.2197,-1.1178 -0.27752,1.4604 c -0.31188,1.64123 0.67724,3.47867 1.87263,3.47867 0.63192,0 0.64483,-0.11094 0.0909,-0.78116 -0.5782,-0.69962 -0.54739,-0.72775 0.29519,-0.26953 0.51743,0.28139 1.32881,0.63302 1.80307,0.7814 0.47426,0.14838 0.77519,0.53426 0.66874,0.85752 -0.30245,0.91836 -2.04072,0.96002 -3.86846,0.0927 -1.36697,-0.64867 -1.79752,-0.68272 -2.39221,-0.18917 -1.74667,1.44961 0.50032,4.08136 3.87063,4.53341 2.43376,0.32644 4.65086,-0.79846 5.52905,-2.80527 0.36447,-0.83288 0.67993,-1.22948 0.70104,-0.88133 0.0627,1.03383 -1.44983,3.24938 -2.5652,3.75758 -0.57031,0.25985 -1.96413,0.60381 -3.09737,0.76437 -2.51764,0.35668 -4.93811,-0.93405 -5.74113,-3.06149 -0.28813,-0.76333 -0.68913,-1.38788 -0.89113,-1.38788 -0.72253,0 -0.34995,2.82798 0.57176,4.33971 1.19642,1.96231 1.19704,3.208 0.002,3.52058 -1.05873,0.27686 -1.24027,0.89524 -0.35279,1.20172 1.86961,0.64566 3.53649,-1.92706 2.1481,-3.31545 -0.9809,-0.9809 0.0982,-1.28818 1.56589,-0.44587 1.83722,1.05442 3.90792,1.01712 6.40283,-0.11533 2.08557,-0.94666 2.9425,-2.30054 2.92922,-4.628 -0.008,-1.43722 -0.8798,-2.97595 -1.22077,-2.15514 -0.12833,0.30896 -0.76382,0.0234 -1.57034,-0.70558 -1.65438,-1.49535 -1.13443,-2.28526 0.83417,-1.26726 3.22496,1.66769 3.7701,4.56076 1.45307,7.71144 -0.79851,1.08582 -1.73855,1.97421 -2.08897,1.97421 -1.05065,0 -1.2638,0.87308 -0.4847,1.98539 0.76037,1.08559 0.99638,2.74869 0.38004,2.67806 -0.19404,-0.0222 -0.98782,-0.25127 -1.76395,-0.50896 z m -0.28925,-2.5585 c -1.507,-0.83533 -2.29788,-0.80844 -2.29788,0.0781 0,0.40334 0.20999,0.60355 0.46666,0.44493 0.25666,-0.15863 0.83424,-0.0827 1.28352,0.16872 0.44927,0.25143 1.00873,0.33856 1.24324,0.19362 0.23451,-0.14494 -0.0785,-0.54337 -0.69554,-0.8854 z m -2.76827,-0.16373 c 0,-0.21496 -0.33483,-0.51932 -0.74405,-0.67635 -1.03452,-0.39698 -1.1375,-0.36802 -1.1375,0.31996 0,0.33301 0.42335,0.63737 0.94077,0.67635 0.51743,0.039 0.94078,-0.10501 0.94078,-0.31996 z m 31.82405,2.4114 c -1.01227,-1.11855 -0.97966,-1.86158 0.16404,-3.73743 0.51646,-0.84707 0.93902,-1.72023 0.93902,-1.94035 0,-0.60495 -2.78835,-1.0372 -4.55401,-0.70596 -2.03021,0.38087 -1.98969,1.00587 0.0905,1.39612 3.47937,0.65274 2.19296,1.97359 -2.12053,2.1773 -2.74887,0.12982 -3.04386,0.24423 -3.28537,1.27408 -0.42552,1.81447 -1.65528,2.30588 -3.34859,1.33808 -1.56218,-0.89285 -4.89312,-1.11199 -5.36233,-0.35279 -0.15989,0.25872 -1.00708,0.47039 -1.88264,0.47039 -1.70938,0 -3.19754,-1.43686 -2.73542,-2.64113 0.16168,-0.42133 -0.0824,-0.65158 -0.69074,-0.65158 -0.51743,0 -1.06038,-0.31167 -1.20656,-0.69261 -0.18946,-0.49374 0.27094,-0.85342 1.6034,-1.25263 1.44283,-0.43229 1.8102,-0.74583 1.61063,-1.37464 -0.14221,-0.44804 0.1108,-1.58916 0.56222,-2.53581 0.94877,-1.98958 0.45274,-3.34156 -1.20321,-3.27951 -1.24088,0.0465 -1.26201,-0.35706 -0.0749,-1.43136 0.62723,-0.56764 1.30369,-0.7384 2.11675,-0.53433 1.61346,0.40495 1.52848,1.15073 -0.0986,0.86567 -1.15968,-0.20316 -1.22054,-0.15123 -0.58799,0.50173 0.42602,0.43976 1.17152,0.63576 1.88155,0.49466 1.139,-0.22634 1.17398,-0.34726 1.1127,-3.8468 -0.17273,-9.86494 -0.0449,-9.02257 -1.36927,-9.02257 -1.63616,0 -3.51856,1.97188 -3.45964,3.62412 0.0451,1.2656 0.0587,1.27274 0.36188,0.19031 0.17324,-0.61854 0.84008,-1.4355 1.48187,-1.81545 0.81135,-0.48034 0.93693,-0.49544 0.41215,-0.0495 -1.79947,1.529 -1.44402,3.31861 0.75473,3.79987 0.83513,0.1828 0.78931,0.27902 -0.40806,0.85689 -1.26755,0.61174 -1.41638,0.57245 -2.46954,-0.65192 -1.3672,-1.58947 -1.44419,-3.63417 -0.17992,-4.77833 1.35459,-1.22588 1.16157,-1.66431 -0.58798,-1.33563 -2.19466,0.41231 -4.92566,1.63652 -4.23349,1.89772 0.32339,0.12204 0.58799,0.71253 0.58799,1.3122 0,0.73929 0.50999,1.39121 1.58414,2.02497 1.83584,1.08317 2.52598,3.38346 1.67055,5.56804 -0.50853,1.29868 -0.54449,1.31205 -0.91824,0.34137 -0.61679,-1.6019 -1.23581,-1.70541 -4.15576,-0.6949 -3.449,1.1936 -4.82396,0.93596 -4.46927,-0.83745 0.20741,-1.03708 0.028,-1.37101 -0.98451,-1.83234 -1.68942,-0.76974 -2.02305,-0.71603 -2.37149,0.3818 -0.31891,1.00479 -2.73495,2.51091 -3.23144,2.01442 -0.4897,-0.48969 -0.33204,-1.07786 0.29315,-1.09367 0.95036,-0.024 3.49864,-2.46443 2.81227,-2.69321 -0.32875,-0.10959 -0.89255,-0.76939 -1.2529,-1.46622 -0.59079,-1.14247 -0.54402,-1.49654 0.47598,-3.60301 1.38159,-2.85319 1.40689,-3.36381 0.18584,-3.75136 -0.6691,-0.21237 -1.22803,0.024 -1.87199,0.79148 -0.78437,0.93489 -0.98691,0.99149 -1.39081,0.38866 -0.74702,-1.11495 -0.57786,-1.74191 0.75226,-2.78818 3.00727,-2.36552 7.69796,-0.10754 7.69796,3.7056 0,0.68435 0.30713,0.966 1.05837,0.97056 0.5821,0.004 1.53464,0.13405 2.11674,0.29005 1.37738,0.36913 1.47781,-1.04073 0.10516,-1.47639 -0.52426,-0.1664 -0.89895,-0.55109 -0.83264,-0.85488 0.0663,-0.30378 -0.45728,-1.12482 -1.16353,-1.82452 -1.70863,-1.69277 -1.72716,-3.90426 -0.0479,-5.71527 0.9915,-1.06928 1.55017,-1.29653 2.82232,-1.14802 1.95629,0.22839 1.98801,-0.30489 0.14566,-2.44824 l -1.41516,-1.64636 -0.74631,1.05837 c -0.8381,1.18857 -3.08116,1.42235 -5.0481,0.52615 -1.43727,-0.65486 -3.07617,-0.18692 -2.24753,0.64172 0.68735,0.68735 0.70739,1.30167 0.0425,1.30167 -1.00846,0 -3.25653,-2.74991 -3.25653,-3.98349 0,-1.68219 1.95046,-3.54271 3.71396,-3.54271 0.77263,0 1.5356,-0.21167 1.6955,-0.47039 0.15989,-0.25871 0.0313,-0.47039 -0.28583,-0.47039 -0.3171,0 -0.43673,-0.13981 -0.26584,-0.3107 0.48018,-0.48019 2.19802,1.29012 2.19802,2.26516 0,1.05236 -0.31232,1.09313 -1.24316,0.16229 -1.22293,-1.22293 -1.87792,-0.8536 -1.66844,0.94077 0.10571,0.9055 0.3609,1.64636 0.56709,1.64636 0.20619,0 0.26418,-0.42335 0.12887,-0.94078 -0.13755,-0.52598 -0.0144,-0.94077 0.27923,-0.94077 0.28889,0 0.54013,0.5821 0.55831,1.29356 0.0289,1.12946 0.0811,1.17422 0.41178,0.35279 0.35284,-0.8765 0.39321,-0.86043 0.59093,0.2352 l 0.21223,1.17597 0.52215,-1.17597 c 0.46083,-1.03785 0.52566,-1.06342 0.55197,-0.2177 0.0453,1.45529 1.91137,1.44017 1.91137,-0.0155 0,-0.86722 0.2879,-1.14861 1.29356,-1.26433 1.80844,-0.20808 1.92306,-1.7941 0.29049,-4.01971 l -1.30112,-1.77378 1.74008,1.62104 c 1.8799,1.75128 2.15273,2.98996 1.01601,4.61285 -0.655,0.93515 -0.64984,1.14707 0.0541,2.22141 1.0377,1.58373 1.61075,1.49884 1.61075,-0.23863 0,-1.37983 1.12477,-4.68876 1.5938,-4.68876 0.12686,0 -0.0998,0.96975 -0.50364,2.155 -0.8789,2.57943 -0.30543,6.47209 1.30407,8.85191 0.54247,0.80209 0.83669,1.03501 0.65383,0.51758 -0.74319,-2.10296 -0.72272,-2.77344 0.0431,-1.41116 1.11764,1.98817 3.94258,5.40945 4.46656,5.40945 0.57961,0 0.57331,-12.75605 -0.007,-14.28252 -0.42535,-1.11877 -1.91813,-2.00812 -4.92507,-2.93422 -2.28514,-0.7038 -2.06589,-1.59875 0.39166,-1.59875 1.71404,0 2.62529,0.33797 4.45453,1.65215 1.26483,0.90869 2.42664,2.12582 2.5818,2.70473 0.15516,0.57892 0.28501,8.58012 0.28854,17.78046 l 0.006,16.72789 -1.30266,0.9631 c -0.71647,0.5297 -1.77484,1.11296 -2.35194,1.29612 -2.53679,0.80515 -0.64195,1.21032 5.65375,1.20894 l 6.70302,-0.001 1.10437,-2.23286 c 1.21464,-2.45583 1.91075,-9.21157 1.07516,-10.4344 -0.63275,-0.92598 -1.55756,-0.10684 -2.34833,2.08 -0.52826,1.46088 -0.51002,1.85882 0.12994,2.83553 1.07842,1.64588 0.91928,2.43732 -0.54645,2.71751 -2.30828,0.4412 -2.60059,-0.60269 -1.06105,-3.78918 0.51743,-1.07094 0.94078,-2.18932 0.94078,-2.48527 0,-0.29595 0.41386,-1.11931 0.9197,-1.82969 0.83552,-1.17339 0.85444,-1.38478 0.20664,-2.30964 -0.61633,-0.87993 -2.95556,-2.42383 -3.67246,-2.42383 -0.1325,0 -0.31075,1.95799 -0.39612,4.35108 -0.15253,4.27567 -0.15692,4.25517 -0.25285,-1.18264 l -0.0976,-5.53373 1.85835,1.2298 c 1.02209,0.67639 2.19118,1.73776 2.59797,2.35861 0.94506,1.44234 1.70732,1.42299 3.50418,-0.089 1.12507,-0.94668 1.44725,-1.0514 1.44725,-0.47038 0,0.42976 0.39344,0.74739 0.92575,0.74739 0.5262,0 1.22864,0.55831 1.62753,1.29357 0.38597,0.71146 0.71024,1.06434 0.7206,0.78419 0.0104,-0.28016 0.49284,-0.47445 1.07219,-0.43177 0.57934,0.0427 1.3202,-0.18925 1.64635,-0.5154 0.81449,-0.81449 0.74618,-2.07136 -0.11258,-2.07136 -0.38807,0 -0.70558,-0.31751 -0.70558,-0.70558 0,-0.38807 0.20173,-0.70559 0.44828,-0.70559 0.45928,0 1.56147,-3.32131 1.21663,-3.66615 -0.38023,-0.38022 -1.19477,0.44743 -1.20498,1.22438 -0.006,0.43748 -0.40716,1.31155 -0.89202,1.94237 -0.48486,0.63083 -0.79245,1.37917 -0.68354,1.66298 0.10891,0.28382 -0.23054,0.54831 -0.75434,0.58777 -1.19429,0.09 -1.21344,-0.42848 -0.0546,-1.47725 1.79802,-1.62718 2.65933,-6.34794 1.10135,-6.03634 -0.32339,0.0647 -0.58798,-0.08 -0.58798,-0.32155 0,-0.24152 -0.5821,-0.5076 -1.29357,-0.59128 -1.29117,-0.15185 -1.29163,-0.15323 -0.24602,-0.74757 1.3121,-0.74582 2.76099,0.0171 3.1765,1.67264 0.41521,1.65431 1.13533,1.093 2.27977,-1.77698 1.17616,-2.94955 2.68677,-3.86336 4.79702,-2.90187 0.97402,0.44379 1.16055,0.77468 0.90925,1.6129 -0.17389,0.58001 -0.61096,1.36452 -0.97127,1.74335 -0.56948,0.59876 -0.6551,0.54512 -0.6551,-0.41039 0,-0.92371 -0.11263,-1.00569 -0.70558,-0.51359 -0.49289,0.40906 -0.70558,1.49443 -0.70558,3.60061 0,4.50172 -1.6601,7.74703 -4.79811,9.37974 -1.8155,0.9446 -2.90621,0.81856 -3.43972,-0.39749 -0.59294,-1.35151 -3.51388,-1.73116 -4.46859,-0.5808 -0.52795,0.63614 -0.5268,1.0434 0.007,2.49332 0.79881,2.16972 0.66314,6.81439 -0.25067,8.58151 -0.95918,1.85484 -0.93659,1.87484 1.308,1.15872 1.09953,-0.3508 2.56714,-0.76179 3.26136,-0.91332 1.44843,-0.31614 2.25417,-2.03868 1.25765,-2.68865 -0.35107,-0.22899 -1.13171,-0.30007 -1.73474,-0.15796 -1.6108,0.37961 -1.1549,-1.27229 0.51301,-1.85887 1.8023,-0.63383 3.70035,0.14259 4.52554,1.85125 0.37318,0.77272 0.82849,1.72246 1.01179,2.11053 0.1919,0.40629 0.80814,0.64677 1.45277,0.56694 0.89762,-0.11117 0.97966,-0.0412 0.41393,0.35279 -0.62718,0.43683 -0.62718,0.5429 0,0.95462 0.38807,0.25475 0.95481,0.46642 1.25942,0.47039 0.92951,0.0121 2.50368,2.40602 2.50368,3.8075 0,1.95983 -1.78965,3.75185 -3.41031,3.41483 -1.51944,-0.31597 -1.68283,-0.88858 -0.35279,-1.23639 1.02407,-0.2678 1.30669,-1.71057 0.35279,-1.80099 -1.25056,-0.11853 -1.90056,0.16623 -3.94954,1.73025 -2.37014,1.80916 -3.87595,2.03597 -5.03251,0.75798 z m -10.16139,-1.25653 c -0.0369,-0.69819 -1.08924,-0.56992 -1.33338,0.16252 -0.13189,0.39565 0.0831,0.57199 0.57363,0.47039 0.43153,-0.0894 0.77342,-0.37419 0.75975,-0.63291 z m 13.68995,-0.20024 c 0.16981,-0.0192 0.18871,-0.494 0.042,-1.05507 -0.21161,-0.80919 -0.10524,-0.95813 0.51443,-0.72034 0.53901,0.20684 0.78583,0.0492 0.79615,-0.50864 0.0132,-0.71148 0.10536,-0.69561 0.76886,0.13236 0.61231,0.76407 0.70062,0.78616 0.47019,0.11759 -0.15604,-0.45274 -0.0787,-0.82317 0.17191,-0.82317 0.2506,0 0.47051,0.26459 0.48869,0.58798 0.0182,0.32339 0.21498,0.16464 0.43732,-0.35279 0.22235,-0.51743 0.41915,-0.65354 0.43733,-0.30246 0.0191,0.36901 0.33073,0.52408 0.73864,0.36755 0.38807,-0.14892 0.70558,-0.0657 0.70558,0.18486 0,0.2506 0.17502,0.45563 0.38893,0.45563 0.2139,0 0.29385,-0.64773 0.17765,-1.43941 -0.13838,-0.94288 -0.42432,-1.35765 -0.82892,-1.20239 -0.3397,0.13036 -0.69154,0.0153 -0.78185,-0.25559 -0.18066,-0.54199 -5.82254,1.63085 -6.88314,2.65088 -0.97457,0.9373 -0.25384,2.62917 1.01846,2.39078 0.56597,-0.10605 1.16797,-0.20854 1.33779,-0.22777 z m -22.33125,-0.34123 c -0.16846,-0.16845 0.0609,-0.59469 0.50959,-0.94719 0.72137,-0.56669 0.59841,-0.62655 -1.06178,-0.5169 -1.35357,0.0894 -1.92117,0.35377 -2.03363,0.94719 -0.12256,0.6467 0.17073,0.82318 1.36805,0.82318 0.83823,0 1.38622,-0.13783 1.21777,-0.30628 z m 6.44536,-0.41574 c 3.56478,-0.53457 2.97522,-1.15953 -1.09386,-1.15953 -2.96947,0 -3.79085,0.14541 -3.79085,0.67109 0,0.6813 1.2122,1.21497 2.1742,0.95719 0.29031,-0.0778 1.51004,-0.28873 2.71051,-0.46875 z m 23.33852,-2.57069 c 0,-0.25872 -0.22416,-0.47039 -0.49814,-0.47039 -0.27399,0 -0.36733,0.21167 -0.20744,0.47039 0.1599,0.25871 0.38407,0.47039 0.49815,0.47039 0.11409,0 0.20743,-0.21168 0.20743,-0.47039 z m -5.59443,-2.71919 c 0.47152,-1.2402 -0.23464,-4.33662 -0.98899,-4.33662 -0.2175,0 -0.78318,-0.14547 -1.25709,-0.32327 -0.74698,-0.28024 -0.77887,-0.22142 -0.23968,0.44195 1.04512,1.28579 0.50128,3.31513 -1.09236,4.07615 l -1.41116,0.67388 1.36817,0.55961 c 1.80549,0.73848 3.07024,0.35719 3.62111,-1.0917 z m -23.36261,-0.36128 c 0.40359,-0.61595 0.73381,-1.74257 0.73381,-2.50359 0,-1.15209 -0.15746,-1.3425 -0.94078,-1.13766 -0.52838,0.13818 -0.94077,0.64162 -0.94077,1.14848 0,0.49636 -0.33576,1.41489 -0.74613,2.0412 -0.81647,1.24609 -0.54894,2.2273 0.49778,1.82564 0.36426,-0.13978 0.9925,-0.75811 1.39609,-1.37407 z m 10.6825,-3.74015 c 0,-0.24578 -0.22755,-0.52272 -0.50567,-0.61542 -0.27812,-0.0927 -0.50567,0.18423 -0.50567,0.61542 0,0.43119 0.22755,0.70813 0.50567,0.61542 0.27812,-0.0927 0.50567,-0.36964 0.50567,-0.61542 z m -20.76532,-7.04979 c -0.70678,-1.85898 -1.06331,-1.19694 -0.39218,0.72825 0.30531,0.87583 0.63073,1.36556 0.72315,1.08831 0.0924,-0.27726 -0.0565,-1.09471 -0.33097,-1.81656 z m 4.2312,0.51921 c 0,-1.32409 -0.19761,-1.6293 -1.17597,-1.81632 -0.84591,-0.16171 -1.17596,-0.0198 -1.17596,0.50545 0,0.57707 -0.14488,0.53872 -0.69063,-0.18282 -0.76182,-1.00723 -0.94159,-0.37407 -0.43261,1.52372 0.31539,1.17599 2.04536,1.31451 2.09585,0.16782 0.0207,-0.47006 0.21044,-0.35274 0.54227,0.33529 0.69003,1.43078 0.83705,1.33714 0.83705,-0.53314 z m -8.39641,-0.99562 c 0,-0.24577 -0.22755,-0.52271 -0.50567,-0.61542 -0.27811,-0.0927 -0.50566,0.18424 -0.50566,0.61542 0,0.43119 0.22755,0.70813 0.50566,0.61543 0.27812,-0.0927 0.50567,-0.36965 0.50567,-0.61543 z m 2.52783,-0.19972 c -0.21327,-0.67195 0.0424,-1.06602 0.99194,-1.52876 1.83811,-0.8958 2.04253,-1.92206 0.34309,-1.7224 -1.1627,0.1366 -1.32622,0.0138 -1.19912,-0.9002 0.1708,-1.2284 -0.30292,-1.33824 -1.58602,-0.36775 -1.39649,1.05625 -1.68862,0.86619 -1.36011,-0.88492 0.16565,-0.883 0.16024,-2.04953 -0.012,-2.59229 -0.38849,-1.22401 -2.78321,-2.51419 -4.15907,-2.24074 -1.02553,0.20383 -1.02546,0.20438 0.0679,0.56323 1.64844,0.54103 2.06567,2.18417 1.16896,4.60361 -1.00734,2.71792 -0.55674,4.80863 0.93303,4.32918 2.22075,-0.71471 3.38167,-0.52185 3.53929,0.58797 0.0827,0.58211 0.46737,1.05838 0.85488,1.05838 0.4813,0 0.61351,-0.28688 0.41722,-0.90531 z m 36.57993,-3.32865 c -0.13524,-0.51717 -0.43288,-0.94031 -0.66142,-0.94031 -0.48494,0 -0.53092,0.56314 -0.13105,1.60519 0.40217,1.04801 1.08958,0.47127 0.79247,-0.66488 z m 1.41018,-2.43347 c 0.34572,-0.21472 0.36366,-0.6468 0.0555,-1.33738 l -0.45522,-1.02018 -0.63341,1.18354 c -0.41928,0.78342 -0.5049,1.6331 -0.25328,2.51335 l 0.38013,1.3298 0.19777,-1.17597 c 0.10877,-0.64678 0.42759,-1.3187 0.7085,-1.49316 z m -25.7713,-1.79955 c -0.15989,-0.25871 -0.5129,-0.47038 -0.78447,-0.47038 -0.27157,0 -1.65796,-1.16421 -3.08089,-2.58713 -1.42292,-1.42293 -2.68507,-2.58713 -2.80479,-2.58713 -0.11971,0 -0.53517,0.31751 -0.92324,0.70558 -0.78278,0.78278 -2.31955,0.93998 -2.72802,0.27906 -0.14498,-0.23459 0.12191,-0.32571 0.59309,-0.20249 1.03707,0.2712 2.17747,-0.96618 1.79912,-1.95213 -0.35343,-0.92104 -2.82894,-0.92939 -3.59022,-0.0121 -0.87557,1.055 -0.17405,2.95208 1.39091,3.76135 0.76029,0.39317 2.50354,0.90146 3.87388,1.12954 l 2.49153,0.41469 -1.96852,0.055 c -3.38323,0.0945 -6.73364,-1.83812 -6.73364,-3.88418 0,-0.73666 -0.12701,-0.82585 -0.55976,-0.3931 -0.98461,0.98461 0.67432,3.67149 2.6744,4.33158 1.57366,0.51935 1.63871,0.61144 0.85285,1.20728 -0.73704,0.55883 -0.13973,0.64704 4.46887,0.66 3.43024,0.01 5.21636,-0.15211 5.0289,-0.45543 z m 25.9048,-3.04439 c -0.28559,-1.52236 0.40897,-2.5917 2.08325,-3.20732 0.47447,-0.17446 0.37009,-0.2716 -0.31865,-0.29657 -1.39385,-0.0505 -2.97406,2.08 -2.97406,4.00983 0,1.23807 0.15694,1.50793 0.7456,1.28204 0.55553,-0.21318 0.67379,-0.66899 0.46386,-1.78798 z m -17.45921,22.58685 c -0.8063,-0.80631 -1.13332,-1.62219 -1.08411,-2.70473 0.0614,-1.34916 0.0953,-1.38876 0.26172,-0.30547 0.22648,1.47397 2.04186,3.31854 2.36286,2.40083 0.3757,-1.07407 0.94131,-0.60749 0.71278,0.58799 -0.28231,1.47681 -0.79297,1.48165 -2.25325,0.0214 z m 17.69055,-3.36687 c 1.17896,-2.09904 0.991,-2.76955 -0.77639,-2.76955 -1.07238,0 -1.40339,-0.23554 -1.5237,-1.08426 -0.19267,-1.35914 0.54383,-2.27367 2.0653,-2.56451 2.7272,-0.52134 4.75808,3.34409 3.26944,6.2228 -1.05543,2.04098 -1.65808,1.75802 -0.90586,-0.42532 0.48411,-1.40512 0.51424,-2.20242 0.1254,-3.31784 -0.46178,-1.32467 -0.6786,-1.4543 -2.2171,-1.32553 -1.17931,0.0987 -1.75338,0.39662 -1.86126,0.9659 -0.095,0.50128 0.1334,0.82318 0.58407,0.82318 0.40704,0 0.74007,-0.21167 0.74007,-0.47039 0,-0.84594 1.36575,-0.49338 1.89106,0.48816 0.56687,1.0592 0.25085,2.49172 -0.90077,4.08334 -1.20289,1.66246 -1.53641,1.23661 -0.49026,-0.62598 z m -2.12629,-0.14991 c -0.14885,-0.24084 -0.0555,-0.57084 0.20743,-0.73335 0.26293,-0.1625 0.47806,0.0345 0.47806,0.43789 0,0.82625 -0.28226,0.9479 -0.68549,0.29546 z m -6.84071,-11.89061 c 0,-0.15562 0.74086,-1.16971 1.64635,-2.25352 0.9055,-1.08381 1.64636,-2.26804 1.64636,-2.63163 0,-0.36359 0.20066,-0.66108 0.44592,-0.66108 0.85064,0 -0.4726,2.66364 -2.11319,4.25376 -0.89399,0.86649 -1.62544,1.4481 -1.62544,1.29247 z m -7.17341,-3.27063 c -0.71146,-0.25984 -1.29356,-0.79497 -1.29356,-1.18916 0,-0.44381 -0.26866,-0.61361 -0.70558,-0.44595 -0.8369,0.32115 -0.81964,0.53591 -0.70917,-8.82441 0.0887,-7.51827 0.31786,-8.37638 2.47516,-9.26997 0.72693,-0.3011 1.19284,-0.6763 1.03537,-0.83378 -0.15748,-0.15748 -2.33393,-0.26812 -4.83656,-0.24587 -2.55657,0.0227 -3.26212,-0.0396 -1.61031,-0.14224 1.61696,-0.10048 2.93992,-0.37511 2.93992,-0.61028 0,-0.81713 -3.06992,-1.01272 -5.07153,-0.32311 -1.85673,0.6397 -1.98427,0.62849 -1.98427,-0.17436 0,-1.2042 -0.89629,-1.62241 -1.56006,-0.72793 -0.49159,0.66245 -0.62025,0.61299 -1.10027,-0.42297 -0.29896,-0.64523 -0.3762,-1.27658 -0.17163,-1.40302 0.57172,-0.35334 3.19741,0.68847 3.46003,1.37286 0.32315,0.84211 5.07629,0.3653 5.76656,-0.57848 0.76205,-1.04191 2.90801,-0.3739 3.09809,0.9644 0.13121,0.9238 0.49353,1.08735 2.86388,1.29279 1.49252,0.12936 2.67129,0.44687 2.6195,0.70558 -0.0518,0.25871 -1.31358,0.84472 -2.80395,1.30224 -2.9316,0.89995 -4.64596,2.52571 -4.64596,4.40585 0,1.24046 0.30674,1.3303 2.14962,0.62964 0.97782,-0.37177 1.52607,-0.31515 2.38255,0.24604 0.61187,0.40091 1.11248,0.96852 1.11248,1.26137 0,0.29285 -0.42393,0.1488 -0.94206,-0.32011 -0.82568,-0.74722 -1.17474,-0.78284 -2.82531,-0.28832 l -1.88324,0.56423 0.0934,5.36154 c 0.0514,2.94884 0.27032,5.25221 0.48651,5.1186 0.21619,-0.13361 0.81166,0.24948 1.32327,0.85132 l 0.9302,1.09426 -0.47296,-1.32419 c -0.5907,-1.65386 -0.59105,-1.86184 -0.003,-1.49814 0.25871,0.1599 0.47039,-0.13263 0.47039,-0.65006 0,-1.19069 -0.92405,-1.81791 -0.98893,-0.67126 -0.0265,0.46801 -0.21024,0.21591 -0.40834,-0.56023 -0.19811,-0.77614 -0.44104,-1.71342 -0.53984,-2.08286 -0.13883,-0.5191 0.42654,-0.68615 2.48861,-0.7353 1.46754,-0.035 2.9778,-0.32052 3.35614,-0.63451 0.56615,-0.46986 0.73903,-0.36715 0.97684,0.58033 0.4072,1.62242 -0.0339,2.46976 -1.87959,3.61045 -1.72893,1.06854 -2.75215,2.52749 -2.2933,3.26991 0.51475,0.83289 2.5122,0.4829 3.24921,-0.56933 0.39679,-0.56649 0.88491,-0.86651 1.08472,-0.6667 0.49674,0.49674 -2.51032,3.11687 -3.52419,3.07072 -0.44866,-0.0204 -1.39786,-0.24974 -2.10932,-0.50959 z m 2.16617,-4.90166 c 0.3991,-0.15315 0.59548,-0.5839 0.44499,-0.97606 -0.16537,-0.43095 -0.0177,-0.6668 0.38249,-0.61092 1.21019,0.16898 1.82782,-0.0178 1.82782,-0.55277 0,-0.35131 -0.65302,-0.44473 -1.92039,-0.27474 -2.30982,0.30981 -2.48797,0.45583 -2.08915,1.71239 0.34431,1.08483 0.34965,1.0876 1.35424,0.7021 z m -2.23477,-2.4208 c -0.47815,-0.47816 -0.87268,0.24173 -0.48036,0.87651 0.29636,0.47952 0.40715,0.47989 0.56648,0.002 0.10894,-0.32682 0.0702,-0.7221 -0.0861,-0.87841 z m -11.48028,1.44118 c 0.0807,-0.57891 -0.36561,-1.59265 -1.03398,-2.34857 -0.79151,-0.8952 -0.85629,-1.062 -0.19815,-0.51021 0.53779,0.4509 1.33157,0.81981 1.76395,0.81981 0.96175,0 0.96295,0.0365 0.0562,1.71019 -0.59327,1.095 -0.70338,1.15657 -0.58799,0.32878 z m 21.07423,-2.37117 c -0.38807,-0.14186 -1.16618,-0.67651 -1.72914,-1.18811 -0.56295,-0.5116 -1.20665,-0.81702 -1.43045,-0.67871 -0.22379,0.13832 -0.32214,-0.47453 -0.21855,-1.36188 0.10359,-0.88735 -0.013,-1.61336 -0.25904,-1.61336 -0.24607,0 -0.71444,-0.89961 -1.04082,-1.99914 -0.32638,-1.09953 -0.8134,-2.26886 -1.08226,-2.5985 -0.74277,-0.91069 -0.29804,-1.02671 1.79452,-0.46818 2.43895,0.651 4.09877,0.22488 4.89113,-1.25568 0.81777,-1.528 -0.0801,-2.81193 -1.68484,-2.40918 -1.52504,0.38277 -1.94294,-0.66686 -0.67445,-1.69402 1.49726,-1.21241 3.49621,-1.08808 5.00625,0.31138 0.69789,0.64678 1.35393,1.17596 1.45786,1.17596 0.10393,0 0.70805,-0.56009 1.34248,-1.24465 1.04387,-1.12636 1.1535,-1.15617 1.1535,-0.31359 0,0.51208 0.14376,1.07482 0.31947,1.25053 0.17571,0.17571 0.39606,1.21644 0.48967,2.31274 0.11164,1.30749 0.48724,2.2153 1.09169,2.63862 1.96919,1.3791 0.58106,4.78143 -1.93787,4.7498 -1.02274,-0.0128 -1.05229,-0.0647 -0.28966,-0.50836 0.66279,-0.38558 0.72987,-0.63791 0.30547,-1.14928 -0.46391,-0.55898 -0.74068,-0.5534 -1.88427,0.038 -0.73727,0.38126 -2.099,0.6932 -3.02607,0.6932 -1.4179,0 -1.83524,-0.25366 -2.628,-1.5973 -0.69439,-1.17689 -1.38378,-1.68009 -2.61934,-1.91188 -0.92229,-0.17302 -1.74632,-0.24517 -1.83117,-0.16032 -0.0848,0.0848 0.57347,1.31562 1.46292,2.73506 1.9409,3.0974 4.24059,4.40896 6.40668,3.65385 2.01587,-0.70273 2.23393,-0.008 0.48723,1.55295 -1.48913,1.33054 -2.40531,1.57658 -3.87294,1.04008 z m 3.05751,-1.07896 c 1.04076,-0.44723 0.6346,-0.61051 -1.22401,-0.49207 -0.72592,0.0463 -1.82656,-0.42902 -2.70473,-1.16794 -1.15431,-0.9713 -1.48071,-1.07967 -1.48071,-0.49163 0,0.82565 2.63499,2.63726 3.7631,2.58721 0.38807,-0.0172 1.12893,-0.21322 1.64635,-0.43557 z m 3.11956,-5.90677 c 1.04536,-0.18248 1.83201,-0.0982 2.02691,0.21715 0.50859,0.82291 1.20376,0.59664 1.20376,-0.39181 0,-2.05726 -2.95777,-3.10138 -5.274,-1.86177 -0.89382,0.47835 -0.94693,0.42737 -0.6125,-0.58799 1.02889,-3.12382 -0.30152,-5.60231 -2.98537,-5.5616 l -1.24146,0.0188 1.2378,0.67254 c 2.09059,1.13592 2.17372,2.68681 0.25807,4.81514 -0.85238,0.94702 -0.88346,1.18301 -0.29951,2.27414 0.69175,1.29254 0.62941,1.2881 5.6863,0.40536 z m 1.34912,-4.16808 c 0,-1.38304 -0.60789,-2.15522 -1.69668,-2.15522 -0.93712,0 -1.12564,0.23634 -1.12564,1.41116 0,1.25437 0.15679,1.41116 1.41116,1.41116 0.90461,0 1.41116,-0.23946 1.41116,-0.6671 z m -29.48772,8.68779 c -0.43168,-0.50418 -0.9588,-0.8092 -1.17136,-0.67782 -0.82762,0.51149 -0.32724,-0.77146 0.78971,-2.02478 l 1.17619,-1.31979 -0.2808,1.90701 c -0.24702,1.67754 -0.14799,1.97087 0.82295,2.4377 0.85994,0.41345 0.9209,0.53771 0.27598,0.56252 -0.45528,0.0175 -1.18098,-0.38067 -1.61267,-0.88484 z m 14.27853,0.60308 c -0.53054,-0.53054 -0.34827,-1.09757 0.35279,-1.09757 0.36651,0 0.76308,-0.26459 0.88127,-0.58798 0.11819,-0.32339 0.18875,-0.006 0.1568,0.70525 -0.0549,1.22177 -0.69689,1.67427 -1.39086,0.9803 z m -17.68516,-2.07215 c -0.0511,-1.15303 1.4173,-5.14045 1.89301,-5.14045 0.56974,0 0.54427,0.81226 -0.0367,1.17134 -0.2546,0.15734 -0.76904,1.28113 -1.14321,2.49729 -0.37416,1.21617 -0.69505,1.87849 -0.71307,1.47182 z m -8.5463,-7.41266 c -0.52873,-1.25985 -1.33649,-2.09682 -2.71922,-2.81754 -1.08188,-0.56391 -2.17221,-1.02529 -2.42296,-1.02529 -0.84749,0 -0.46295,2.04843 0.60247,3.20933 1.0875,1.18494 0.98887,1.19804 -1.09823,0.1458 -1.59913,-0.80622 -2.93054,-3.08832 -2.53283,-4.34139 0.36615,-1.15364 1.46989,-0.98859 5.14361,0.76919 2.31554,1.10792 2.34315,1.10962 3.19344,0.19694 1.09976,-1.18045 3.22977,-1.17839 4.64965,0.004 0.61076,0.50882 1.00464,0.94568 0.87529,0.9708 -0.12936,0.0251 -0.89634,0.11129 -1.70439,0.19147 -1.23778,0.12283 -1.43289,0.007 -1.2387,-0.73561 0.28081,-1.07383 -0.48717,-1.14704 -1.49199,-0.14222 -0.91531,0.91531 -0.92178,2.03737 -0.0187,3.23142 0.84535,1.11765 0.89468,2.1461 0.10264,2.13966 -0.32339,-0.003 -0.92645,-0.8113 -1.34014,-1.79704 z m 42.85181,-2.70718 c 0,-0.52112 -0.254,-1.2015 -0.56446,-1.51196 -0.43903,-0.43903 -0.34568,-0.56446 0.42006,-0.56446 1.28123,0 1.79779,1.37053 0.86727,2.30105 -0.65023,0.65023 -0.72287,0.62766 -0.72287,-0.22463 z"
       id="path1117" />
  </g>
</svg>
