<?xml version="1.0" encoding="UTF-8" standalone="no"?>
<!-- Created with Inkscape (http://www.inkscape.org/) -->

<svg
   width="67.389282mm"
   height="75.569458mm"
   viewBox="0 0 67.389297 75.569457"
   version="1.1"
   id="svg5"
   inkscape:version="1.1 (c4e8f9ed74, 2021-05-24)"
   sodipodi:docname="ornateg2.svg"
   xmlns:inkscape="http://www.inkscape.org/namespaces/inkscape"
   xmlns:sodipodi="http://sodipodi.sourceforge.net/DTD/sodipodi-0.dtd"
   xmlns="http://www.w3.org/2000/svg"
   xmlns:svg="http://www.w3.org/2000/svg">
  <sodipodi:namedview
     id="namedview7"
     pagecolor="#ffffff"
     bordercolor="#666666"
     borderopacity="1.0"
     inkscape:pageshadow="2"
     inkscape:pageopacity="0.0"
     inkscape:pagecheckerboard="0"
     inkscape:document-units="mm"
     showgrid="false"
     inkscape:zoom="0.94615212"
     inkscape:cx="-233.0492"
     inkscape:cy="237.27685"
     inkscape:window-width="2506"
     inkscape:window-height="1403"
     inkscape:window-x="1974"
     inkscape:window-y="0"
     inkscape:window-maximized="1"
     inkscape:current-layer="layer1" />
  <defs
     id="defs2" />
  <g
     inkscape:label="Layer 1"
     inkscape:groupmode="layer"
     id="layer1"
     transform="translate(488.16053,-666.28411)">
    <path
       style="fill:#000000;stroke-width:0.264583"
       d="m -423.8863,741.48789 c 0,-0.20969 0.12101,-0.45604 0.2689,-0.54745 0.5486,-0.33905 -0.0388,-0.63256 -0.73574,-0.3676 -1.54676,0.58808 -4.53128,-0.43858 -5.56743,-1.91516 -0.48205,-0.68695 -0.88578,-0.61542 -0.70018,0.12405 0.0982,0.39112 -0.0592,0.97948 -0.43025,1.60831 -0.47252,0.80085 -0.69216,0.95737 -1.14194,0.81376 -0.30629,-0.0978 -1.5335,-0.25628 -2.72711,-0.35217 -1.19362,-0.0959 -2.30836,-0.31251 -2.4772,-0.48134 -0.16884,-0.16884 -0.34005,-0.70434 -0.38047,-1.19 -0.0404,-0.48566 -0.0892,-1.00208 -0.10837,-1.1476 -0.0192,-0.14552 -0.26106,0.0297 -0.53748,0.38948 -0.27643,0.35973 -0.45556,0.73016 -0.39808,0.82317 0.0575,0.093 -0.51738,0.1471 -1.27746,0.12022 -2.02521,-0.0716 -3.16603,-0.90365 -3.72412,-2.71609 -0.41747,-1.35573 -0.41382,-1.45942 0.0858,-2.43874 0.28699,-0.56254 0.82363,-1.26023 1.19253,-1.55041 0.4334,-0.34091 0.61232,-0.67982 0.50565,-0.9578 -0.11315,-0.29487 -0.26296,-0.34898 -0.4762,-0.17201 -0.26981,0.22393 -2.87404,0.8938 -4.54716,1.16966 -0.30495,0.0503 -0.68289,0.17079 -0.83988,0.26781 -0.15698,0.097 -0.34015,-0.0334 -0.40704,-0.28986 -0.0981,-0.37613 -0.12756,-0.35801 -0.15232,0.0938 -0.0169,0.30802 0.21917,1.16126 0.52455,1.89609 0.67139,1.61553 1.63972,2.06427 2.36878,1.09772 0.24192,-0.32071 0.50335,-0.47762 0.58096,-0.34868 1.60893,2.67292 1.66046,3.61741 0.25569,4.68601 -0.97204,0.73942 -1.01071,0.74549 -3.61742,0.56778 -2.95421,-0.20141 -3.68703,-0.4041 -4.15182,-1.14836 -0.24805,-0.39718 -0.45641,-0.46255 -0.91666,-0.28756 -0.64803,0.24638 -2.61737,0.17148 -3.31565,-0.12611 -0.2963,-0.12627 -0.71402,0.0864 -1.30572,0.66482 -0.75358,0.73664 -1.05558,0.85113 -2.25608,0.85525 -0.94499,0.003 -1.61476,-0.15649 -2.10483,-0.50195 -0.39534,-0.27869 -0.91046,-0.62547 -1.14471,-0.77063 -2.12539,-1.31702 -2.71513,-2.32189 -2.31,-3.93606 0.26528,-1.05698 2.75705,-1.48405 3.5497,-0.60839 0.40728,0.44994 0.40542,0.53913 -0.027,1.2926 -0.25546,0.44513 -0.4062,0.86761 -0.33496,0.93885 0.24599,0.24598 2.25733,-2.08697 2.89663,-3.35981 l 0.64129,-1.27677 -1.09785,-0.18592 c -0.60383,-0.10225 -1.51458,-0.24949 -2.0239,-0.3272 -0.50933,-0.0777 -1.06779,-0.25495 -1.24104,-0.39386 -0.20837,-0.16708 -0.73473,-0.0669 -1.55499,0.29593 -0.68199,0.30169 -1.57502,0.54851 -1.98449,0.54851 -0.95649,0 -1.22804,0.42469 -0.40382,0.63155 0.96652,0.24259 1.40343,2.31657 0.83852,3.98047 -0.22918,0.67502 -0.41668,1.3931 -0.41668,1.59573 0,0.50678 -1.20011,1.40639 -2.27043,1.70192 -0.6975,0.19259 -1.09727,0.13713 -1.87696,-0.26038 -1.13851,-0.58044 -1.29449,-0.80213 -1.637,-2.32651 -0.21774,-0.96908 -0.1647,-1.26672 0.40845,-2.29219 0.36227,-0.64818 0.80634,-1.1785 0.98681,-1.1785 0.18048,0 0.60777,-0.29766 0.94954,-0.66146 l 0.62141,-0.66146 h -1.31612 c -0.72387,0 -1.45626,-0.14014 -1.62754,-0.31143 -0.23885,-0.23884 -0.52713,-0.0893 -1.23693,0.64153 -0.50902,0.52412 -1.19636,1.03514 -1.52743,1.13559 -0.33106,0.10044 -0.84005,0.38622 -1.13109,0.63506 -0.29105,0.24883 -1.0141,0.60444 -1.6068,0.79022 -0.59269,0.18579 -1.21242,0.55364 -1.37716,0.81744 -0.24802,0.39714 -0.18941,0.55182 0.34071,0.89916 0.76014,0.49806 1.49233,0.53855 1.92446,0.10642 0.43225,-0.43224 0.52584,-0.27134 0.72782,1.2513 0.16559,1.24825 0.13439,1.34767 -0.53538,1.70612 -0.90627,0.48502 -3.55122,0.50806 -4.43015,0.0386 -0.37048,-0.19789 -0.79684,-0.63028 -0.94746,-0.96087 -0.15063,-0.33059 -0.75591,-0.82352 -1.34508,-1.09541 -1.37253,-0.63339 -1.92969,-1.76716 -2.08923,-4.25141 -0.10324,-1.60772 -0.0345,-2.05393 0.44078,-2.8594 0.30971,-0.52492 0.56311,-1.11161 0.56311,-1.30375 0,-0.19215 0.17718,-0.49641 0.39374,-0.67614 0.31888,-0.26464 0.42488,-0.24564 0.55748,0.0999 0.20502,0.53428 0.4851,0.54006 1.00444,0.0207 0.52705,-0.52705 0.1396,-1.48711 -1.10263,-2.7322 -0.54019,-0.54144 -0.82696,-1.04607 -0.73323,-1.29031 0.0847,-0.22061 0.0169,-0.56623 -0.15062,-0.76805 -0.46905,-0.56516 0.21006,-3.47199 0.85928,-3.67804 0.27195,-0.0863 0.49446,-0.25683 0.49446,-0.37892 0,-0.12209 0.23812,-0.15972 0.52916,-0.0836 0.29105,0.0761 0.52917,0.0195 0.52917,-0.12588 0,-0.34096 1.74953,0.24786 2.24455,0.75542 0.26733,0.2741 0.30844,0.66979 0.15487,1.4905 -0.23294,1.24481 0.007,1.29075 0.50153,0.0961 0.63508,-1.53321 3.24346,-1.8205 4.99685,-0.55036 0.60392,0.43748 1.09803,0.88518 1.09803,0.9949 0,0.10971 0.27882,0.50016 0.61959,0.86767 1.518,1.6371 0.21311,4.57322 -1.85543,4.17485 -0.77357,-0.14897 -0.55976,-0.80673 0.36429,-1.12068 0.46652,-0.1585 0.97644,-0.4171 1.13315,-0.57467 0.37113,-0.37317 0.0377,-1.23864 -0.41094,-1.0665 -0.1901,0.0729 -0.40099,-0.01 -0.46865,-0.18323 -0.0754,-0.19361 -0.45639,0.0285 -0.98431,0.57373 l -0.8613,0.88961 0.29813,1.60307 c 0.16396,0.88169 0.39085,1.69478 0.50419,1.80686 0.11334,0.11208 1.29712,0.44137 2.63063,0.73175 2.00099,0.43573 2.73692,0.48373 4.21269,0.27473 2.47362,-0.35031 3.26532,-1.12761 1.81948,-1.78638 -0.84186,-0.38358 -1.07659,-0.57736 -3.25777,-2.68945 -3.31477,-3.20976 -6.39635,-6.78525 -7.08782,-8.22385 -0.37894,-0.78839 -0.78815,-1.63149 -0.90934,-1.87354 -0.1212,-0.24206 -0.24952,-0.93431 -0.28516,-1.53833 -0.0749,-1.26933 -0.26596,-1.46659 -1.02637,-1.05963 -0.78464,0.41993 -1.57666,1.83751 -1.57782,2.82401 -0.001,0.94584 0.26574,1.22419 0.92944,0.9695 0.34541,-0.13254 0.41519,-0.3808 0.30238,-1.07591 -0.21835,-1.34554 0.65173,-1.0761 0.97783,0.30282 0.21714,0.91814 0.17693,1.09244 -0.35053,1.51956 -0.63108,0.51102 -1.6081,0.58755 -3.93437,0.3082 -1.18256,-0.14201 -1.46284,-0.28119 -1.71979,-0.85397 -0.16885,-0.37637 -0.5231,-0.90206 -0.78725,-1.16819 -0.55309,-0.55728 -0.45207,-1.37688 0.38266,-3.10458 0.73833,-1.52816 0.86962,-8.64714 0.18403,-9.97869 -0.24778,-0.48123 -0.32253,-0.8599 -0.16976,-0.8599 0.15029,0 0.20689,-0.26758 0.12592,-0.59531 -0.26796,-1.08468 -0.18742,-4.01019 0.15715,-5.70829 0.35794,-1.76396 0.34999,-1.75542 2.57839,-2.77204 2.02363,-0.9232 3.01299,-1.24311 3.84449,-1.24311 0.79721,0 0.9484,-0.14363 1.81977,-1.7289 1.09909,-1.99955 1.18366,-2.4333 0.36228,-1.85798 -0.32342,0.22654 -0.7699,0.4145 -0.99219,0.41769 -0.22228,0.003 -0.93993,0.26039 -1.59477,0.57154 -0.65484,0.31114 -1.2751,0.54826 -1.37834,0.52692 -0.10325,-0.0213 -0.38471,0.37632 -0.62546,0.88368 -0.24076,0.50736 -0.53522,0.92247 -0.65435,0.92247 -0.11913,0 -0.28645,0.22005 -0.37181,0.48901 -0.0854,0.26896 -0.45618,0.62615 -0.82403,0.79375 -1.88554,0.85911 -3.04915,-0.30844 -2.18896,-2.19635 0.43947,-0.96452 1.65513,-0.93453 2.17684,0.0537 l 0.38413,0.72761 0.25385,-0.66146 c 0.53016,-1.38143 0.48165,-1.70446 -0.33927,-2.25921 -0.58734,-0.39691 -0.85065,-0.83379 -0.99666,-1.65365 -0.10914,-0.61282 -0.29401,-1.62024 -0.41081,-2.23871 -0.16157,-0.85544 -0.0977,-1.39995 0.26673,-2.2759 0.26351,-0.63329 0.46458,-1.46673 0.44682,-1.85209 -0.0177,-0.38536 0.14924,-1.2696 0.37111,-1.96498 l 0.40339,-1.26433 -0.84459,0.15845 c -1.14273,0.21438 -1.95611,-0.59425 -1.48436,-1.4757 0.2677,-0.50021 0.46721,-0.56186 1.41015,-0.43576 0.60408,0.0808 1.39598,0.22758 1.75979,0.32622 l 0.66146,0.17935 -0.59694,-0.4432 c -0.98708,-0.73285 -1.61724,-2.32921 -1.39633,-3.53727 0.20998,-1.14833 1.75028,-3.21128 2.40337,-3.21887 0.22556,-0.003 0.52321,-0.11404 0.66146,-0.24759 0.13824,-0.13355 0.78713,-0.31769 1.44198,-0.40921 1.01784,-0.14226 1.29621,-0.0738 1.91823,0.47203 0.8698,0.76322 0.95817,1.50292 0.17953,1.50292 -0.30143,0 -0.72737,0.1793 -0.94652,0.39845 -0.35488,0.35489 -0.14306,0.39375 1.93713,0.35539 2.91873,-0.0538 4.30027,0.48941 4.64345,1.82584 0.28943,1.12714 0.58106,1.08684 0.95723,-0.13229 0.2378,-0.77067 0.52774,-1.08491 1.29866,-1.40749 1.84447,-0.77181 2.70662,-0.99854 2.85905,-0.75191 0.082,0.13265 0.4933,0.24117 0.91404,0.24117 0.44001,0 0.89007,0.1967 1.05942,0.46302 0.2454,0.38592 0.26878,0.34186 0.1404,-0.26458 -0.2447,-1.15586 0.52231,-0.90263 1.01794,0.33608 0.54947,1.37326 0.53639,1.65297 -0.0683,1.46104 -0.44543,-0.14138 -0.50653,0.0393 -0.62202,1.83891 -0.0704,1.09763 -0.19367,2.06128 -0.27384,2.14145 -0.0802,0.0802 -0.82367,0.16894 -1.65222,0.19727 -1.47509,0.0504 -1.51705,0.0733 -2.01575,1.09857 -0.28011,0.57588 -0.56129,1.28868 -0.62484,1.584 -0.0635,0.29533 -0.19782,0.83461 -0.29838,1.19841 l -0.18282,0.66146 0.65156,-0.59531 c 0.35836,-0.32743 0.87435,-0.59532 1.14663,-0.59532 0.27228,0 0.74086,-0.22937 1.04128,-0.50971 0.8643,-0.80655 4.30969,-1.90961 7.22695,-2.31374 0.61846,-0.0857 1.12448,-0.19793 1.12448,-0.24945 0,-0.0515 -0.35059,-0.81741 -0.77908,-1.70198 -0.42849,-0.88457 -0.72199,-1.75709 -0.65221,-1.93893 0.0698,-0.18184 -0.17494,-0.49214 -0.54384,-0.68957 -0.36889,-0.19742 -0.67071,-0.50684 -0.67071,-0.6876 0,-0.51287 -1.6129,-1.74546 -2.05968,-1.57402 -0.40218,0.15433 -1.3799,-0.53497 -1.3799,-0.97284 0,-0.54392 1.98176,-1.06565 3.46068,-0.91108 1.82895,0.19117 2.36015,0.38657 2.36015,0.86815 0,0.40837 1.39636,1.05994 1.51999,0.70926 0.41466,-1.1762 0.80235,-1.54298 1.7113,-1.61903 0.79701,-0.0667 1.04928,0.0396 1.41341,0.59531 0.53408,0.81511 0.76099,0.83737 1.50167,0.14732 0.3124,-0.29104 0.89281,-0.52917 1.28981,-0.52917 0.397,0 0.76691,-0.13528 0.82202,-0.30063 0.10652,-0.31956 1.1307,0.13827 1.6584,0.74133 0.14842,0.16963 0.50389,0.34906 0.78994,0.39875 0.28603,0.0497 0.70275,0.41616 0.92604,0.81438 0.3769,0.67221 0.36329,0.80468 -0.19008,1.85021 -0.32783,0.61939 -0.59572,1.25255 -0.59531,1.40701 0.001,0.48652 -1.05582,1.43895 -1.59708,1.43895 -0.28537,0 -0.51886,-0.12609 -0.51886,-0.2802 0,-0.15411 0.0906,-0.2242 0.20136,-0.15575 0.33197,0.20517 1.13243,-0.52106 1.25059,-1.1346 0.11449,-0.59448 -0.56264,-1.09337 -0.88333,-0.65082 -0.0945,0.13035 -0.40987,0.36765 -0.70091,0.52735 -0.67808,0.37206 -1.96412,2.21236 -1.97558,2.82703 -0.0112,0.60369 0.91337,0.94644 1.95625,0.72515 0.44719,-0.0949 1.2298,-0.0656 1.73912,0.065 0.50933,0.13067 1.46183,0.32378 2.11667,0.42913 0.65485,0.10535 1.42875,0.32181 1.71979,0.48101 0.29104,0.15921 0.5887,0.28374 0.66146,0.27674 0.41821,-0.0403 1.53463,0.46293 2.02801,0.91404 0.39274,0.35909 0.75346,0.4664 1.14748,0.34134 l 0.57467,-0.18239 -0.5416,-0.37935 c -0.30269,-0.21202 -0.61371,-0.81367 -0.70507,-1.36394 -0.27648,-1.66527 -0.25282,-1.6545 -1.83318,-0.83456 l -1.47975,0.76775 -1.32815,-1.25264 c -0.80747,-0.76155 -1.27653,-1.40822 -1.19647,-1.64951 1.00167,-3.01893 1.14386,-3.2826 1.90115,-3.52564 0.4243,-0.13616 0.95942,-0.41063 1.18916,-0.60992 0.24227,-0.21016 1.01605,-0.36235 1.84228,-0.36235 1.38087,0 1.46613,0.0439 2.7796,1.43292 0.74526,0.78811 1.55063,1.8299 1.78971,2.3151 0.34445,0.69904 0.43595,0.76592 0.44072,0.32216 0.003,-0.30802 0.25839,-1.1673 0.56684,-1.90952 0.56312,-1.355 0.51854,-2.30552 -0.0979,-2.08804 -0.18183,0.0641 -0.30457,0.34193 -0.27276,0.61731 0.0318,0.27538 -0.006,0.67929 -0.085,0.89757 -0.11858,0.32937 -0.20717,0.30951 -0.52086,-0.11672 -0.90547,-1.23033 -0.0595,-3.05828 1.41531,-3.05828 1.1609,0 2.09686,1.4759 1.43459,2.26218 -0.21891,0.25991 -1.21091,2.73224 -1.49492,3.72575 -0.20084,0.70257 0.4679,1.03053 0.94041,0.46119 0.18194,-0.21923 0.66227,-0.57 1.06739,-0.7795 0.90822,-0.46966 4.165,-1.17171 5.43553,-1.17171 0.79634,0 0.91934,-0.0775 0.80673,-0.50808 -0.0973,-0.37198 0.0362,-0.55052 0.49831,-0.6665 0.83912,-0.2106 0.81661,-1.0224 -0.0472,-1.70185 -0.85163,-0.6699 -1.62997,-0.43678 -2.36435,0.70815 -0.29104,0.45374 -0.678,0.82957 -0.8599,0.83518 -0.65941,0.0203 -0.30687,-1.20583 0.66217,-2.3031 l 0.99148,-1.12266 2.20194,0.50295 c 2.09186,0.4778 2.9268,0.98182 2.94902,1.78021 0.005,0.16633 0.18418,0.36987 0.39901,0.45231 0.45913,0.17618 0.31347,1.8571 -0.28704,3.31248 -0.55232,1.33857 -0.46449,1.80056 0.39957,2.10177 0.54846,0.1912 0.81893,0.50083 0.94706,1.08422 0.22172,1.00945 -0.0513,2.38355 -0.59641,3.00141 -0.37082,0.42032 -0.36916,0.61283 0.0172,2.00255 0.4125,1.48369 0.36771,2.6918 -0.0998,2.6918 -0.12398,0 -0.15689,0.17859 -0.0731,0.39687 0.0838,0.21847 0.008,0.39688 -0.1689,0.39688 -0.17681,0 -0.25274,0.17841 -0.1689,0.39687 0.0838,0.21828 0.0242,0.39688 -0.13229,0.39688 -0.15653,0 -0.2122,0.18864 -0.12372,0.41921 0.10538,0.27464 -0.16412,0.70693 -0.78142,1.25345 -0.88192,0.78079 -1.0532,0.82903 -2.67343,0.75292 -1.63394,-0.0767 -3.55127,-0.76182 -3.95347,-1.41258 -0.0867,-0.14031 -0.16925,-0.66376 -0.18341,-1.16322 -0.0141,-0.49947 -0.10951,-0.90812 -0.2119,-0.90812 -0.10239,0 -0.18304,0.98227 -0.17922,2.18282 0.004,1.20054 -0.19208,3.68401 -0.43534,5.51881 -0.24325,1.83479 -0.42256,3.44213 -0.39847,3.57187 0.0241,0.12973 0.029,0.89072 0.0109,1.69109 l -0.033,1.45521 -0.41429,-0.79375 c -0.22786,-0.43657 -0.51622,-1.32954 -0.6408,-1.98438 -0.29978,-1.57581 -2.47025,-6.14172 -3.37342,-7.0965 -0.1819,-0.1923 -0.33073,-0.46489 -0.33073,-0.60575 0,-0.14087 -0.38907,-0.83387 -0.86461,-1.54 l -0.86462,-1.28388 -0.52328,1.07581 c -0.28781,0.5917 -0.64441,1.20391 -0.79246,1.36047 -0.58192,0.61535 -1.20302,1.76666 -1.06957,1.9826 0.0774,0.12529 0.44977,0.30534 0.8274,0.40012 0.73746,0.18509 0.89628,0.29834 2.50177,1.78378 0.94514,0.87447 1.04981,1.09898 1.04848,2.24896 -0.002,1.45422 -0.43775,3.26189 -0.78688,3.26189 -0.12888,0 -0.30157,0.20836 -0.38376,0.46302 -0.17465,0.54114 -1.56235,1.38906 -2.27329,1.38906 -0.69555,0 -0.8397,-0.36799 -0.48359,-1.23456 0.24068,-0.5857 0.3322,-0.64847 0.41816,-0.28679 0.13317,0.5603 0.60042,0.61901 0.60042,0.0754 0,-0.21316 -0.25132,-0.52206 -0.55848,-0.68645 -0.58027,-0.31055 -1.41678,-0.24583 -4.02633,0.3115 -1.17424,0.25079 -1.8685,0.25864 -2.91042,0.0329 -1.33271,-0.28874 -1.38553,-0.27704 -2.02977,0.44966 -0.74275,0.83781 -2.52765,1.86747 -3.23723,1.86747 -0.58123,0 -0.60748,0.61232 -0.0462,1.07813 0.36016,0.29891 0.52205,0.23446 1.12448,-0.44764 0.4833,-0.54722 1.21138,-0.93791 2.32429,-1.24722 1.78547,-0.49624 2.26047,-0.41994 2.83388,0.45519 0.21182,0.32328 0.85831,0.74394 1.43665,0.93481 0.75647,0.24966 1.15398,0.57962 1.41668,1.17595 0.32582,0.73958 0.5006,0.8376 1.62194,0.90955 1.08234,0.0695 1.25677,0.0116 1.25677,-0.4169 0,-0.64237 0.9484,-1.49369 2.09,-1.87605 1.38586,-0.46418 1.69592,-0.37456 2.3969,0.69276 0.35774,0.54471 0.69082,1.04565 0.74019,1.11321 0.0494,0.0676 0.85799,0.13534 1.79696,0.15063 1.5527,0.0253 1.70904,-0.0217 1.72758,-0.51971 0.0683,-1.83466 0.36823,-3.11228 1.05495,-4.49359 0.42789,-0.86066 0.72476,-1.61805 0.65973,-1.68309 -0.065,-0.065 -0.42369,0.21132 -0.79699,0.61412 -0.73444,0.79247 -1.25222,0.68406 -0.72962,-0.15276 0.17639,-0.28245 0.32072,-0.65662 0.32072,-0.83149 0,-0.4922 1.15156,-2.06665 1.51305,-2.06868 0.17733,-0.001 0.26121,-0.16132 0.18639,-0.35629 -0.45205,-1.17803 2.40361,-1.04119 3.86085,0.185 0.45667,0.38426 0.93213,0.69865 1.05657,0.69865 0.12445,0 0.47895,0.35486 0.78779,0.78858 0.52099,0.73166 0.53881,0.90398 0.2469,2.38769 -0.17303,0.87952 -0.41761,1.66278 -0.5435,1.74058 -0.39253,0.2426 -0.25164,1.15877 0.29326,1.90689 0.40886,0.56135 0.54902,1.28255 0.646,3.32406 0.11604,2.44277 0.0863,2.64299 -0.47156,3.175 -0.32747,0.31231 -0.80682,0.68743 -1.06521,0.83362 -0.43458,0.24586 -0.40298,0.38473 0.42139,1.85208 0.49016,0.87246 0.91878,1.97266 0.95248,2.44487 0.0691,0.96844 -0.56865,2.7133 -0.99175,2.7133 -0.15294,0 -0.27808,0.1786 -0.27808,0.39688 0,0.21828 -0.11906,0.39687 -0.26458,0.39687 -0.58488,0 -0.21474,0.7502 0.52036,1.05469 0.43173,0.17883 0.84424,0.52069 0.91669,0.75971 0.27222,0.89798 -0.16412,5.13099 -0.6448,6.25539 -0.12442,0.29105 -0.35959,0.9659 -0.5226,1.49969 -0.16301,0.53378 -0.55826,1.14475 -0.87833,1.35771 -0.32007,0.21296 -0.79501,0.75505 -1.05541,1.20464 l -0.47345,0.81744 0.73804,0.16205 c 0.40592,0.0891 0.86881,0.20097 1.02865,0.24854 0.15984,0.0476 0.54699,0.52103 0.86035,1.05213 0.31336,0.5311 0.44963,0.89141 0.30283,0.80068 -0.1468,-0.0907 -0.34334,0.0509 -0.43676,0.31483 -0.0934,0.26389 -0.38713,0.7223 -0.65271,1.01869 -0.73182,0.81675 -0.74727,1.78237 -0.0336,2.09987 0.32742,0.14566 0.59531,0.35862 0.59531,0.47323 0,0.11462 0.29766,0.32156 0.66146,0.45988 0.6821,0.25933 0.78743,0.62627 0.68358,2.38125 -0.0328,0.55417 -0.27251,1.11198 -0.59694,1.38906 -0.65745,0.56151 -1.27727,0.60118 -1.27727,0.0818 z m -8.86354,-2.19841 c 0,-0.89044 -0.0901,-1.02116 -0.88003,-1.27656 -0.48402,-0.1565 -1.21747,-0.60302 -1.62989,-0.99228 -0.87485,-0.82572 -0.9526,-0.84519 -1.16499,-0.2917 -0.37096,0.9667 1.98915,3.51871 3.27804,3.54459 0.28362,0.006 0.39687,-0.27511 0.39687,-0.98405 z m -25.34649,-2.63715 c 0.32048,-0.33221 0.53444,-0.60401 0.47547,-0.60401 -0.31156,0 -1.45502,0.64315 -1.45502,0.81839 0,0.11236 -0.23813,0.27986 -0.52917,0.37223 -0.29104,0.0924 -0.52917,0.34127 -0.52917,0.5531 0,0.31889 0.12518,0.30594 0.72761,-0.0753 0.40018,-0.25323 0.98981,-0.73223 1.31028,-1.06443 z m 12.87446,0.32203 c -0.0838,-0.21828 -0.19909,-0.39687 -0.25628,-0.39687 -0.0572,0 -0.10398,0.17859 -0.10398,0.39687 0,0.21828 0.11532,0.39688 0.25628,0.39688 0.14095,0 0.18774,-0.1786 0.10398,-0.39688 z m -18.48422,-0.13229 c 0.0899,-0.14552 -0.0291,-0.26458 -0.26458,-0.26458 -0.23546,0 -0.35452,0.11906 -0.26459,0.26458 0.0899,0.14552 0.209,0.26458 0.26459,0.26458 0.0556,0 0.17464,-0.11906 0.26458,-0.26458 z m 12.9228,-0.11882 c 0.0983,-0.25625 0.02,-0.33461 -0.23628,-0.23627 -0.4185,0.16059 -0.52749,0.61967 -0.14712,0.61967 0.12995,0 0.30248,-0.17253 0.3834,-0.3834 z m 12.60949,-0.70957 c 0,-0.12893 -0.23042,-0.0905 -0.51205,0.0854 -0.28163,0.17588 -0.44962,0.4208 -0.37332,0.54426 0.1559,0.25226 0.88537,-0.26649 0.88537,-0.62961 z m -30.1625,0.29922 c 0.21828,-0.14106 0.27781,-0.25648 0.13229,-0.25648 -0.14552,0 -0.44317,0.11542 -0.66146,0.25648 -0.21828,0.14107 -0.27781,0.25648 -0.13229,0.25648 0.14552,0 0.44318,-0.11541 0.66146,-0.25648 z m 14.46458,-1.2316 c 0.26641,-0.21733 0.30579,-0.30867 0.0875,-0.20298 -0.65269,0.31602 -1.32348,0.96775 -1.3145,1.27715 0.005,0.15935 0.17361,0.0718 0.37552,-0.19466 0.2019,-0.26641 0.58507,-0.66219 0.85148,-0.87951 z m 14.05932,0.29856 c -0.0815,-0.0815 -0.2294,0.0654 -0.32876,0.32632 -0.14359,0.37708 -0.1132,0.40747 0.14811,0.14811 0.18082,-0.17948 0.26212,-0.39297 0.18065,-0.47443 z m 7.45944,0.1496 c 0,-0.13985 0.26057,-0.49704 0.57905,-0.79375 0.31848,-0.29671 0.46731,-0.53569 0.33073,-0.53106 -0.30577,0.0104 -0.92171,0.49957 -1.4052,1.11606 -0.31365,0.39993 -0.30463,0.46303 0.0661,0.46303 0.2361,0 0.42928,-0.11443 0.42928,-0.25428 z m -23.79248,-0.99042 0.64143,-0.71552 -0.64695,0.40744 c -0.35583,0.22409 -0.69318,0.54608 -0.74966,0.71552 -0.16209,0.48629 0.0627,0.36498 0.75518,-0.40744 z m 6.00399,0.18636 c 0.18176,-0.29104 0.26495,-0.52916 0.18487,-0.52916 -0.0801,0 -0.40119,0.23812 -0.71359,0.52916 -0.40446,0.37681 -0.45769,0.52917 -0.18487,0.52917 0.21071,0 0.53183,-0.23813 0.71359,-0.52917 z m -19.38547,0 c 0.0899,-0.14552 0.0374,-0.26458 -0.11668,-0.26458 -0.15411,0 -0.2802,0.11906 -0.2802,0.26458 0,0.14552 0.0525,0.26459 0.11668,0.26459 0.0642,0 0.19026,-0.11907 0.2802,-0.26459 z m 18.48521,-0.94797 c 0.41697,-0.36667 0.70298,-0.72182 0.63557,-0.78923 -0.0674,-0.0674 -0.52763,0.23445 -1.02272,0.6708 -0.49508,0.43635 -0.78108,0.79151 -0.63556,0.78923 0.14552,-0.002 0.60574,-0.30413 1.02271,-0.6708 z m 23.71583,0.0935 c 0,-0.15486 -0.16812,-0.12915 -0.39688,0.0607 -0.21828,0.18116 -0.39687,0.3706 -0.39687,0.42097 0,0.0504 0.17859,0.023 0.39687,-0.0607 0.21828,-0.0838 0.39688,-0.2732 0.39688,-0.42097 z m -53.18223,-0.59971 c 0.85804,-0.91335 0.56976,-0.97088 -0.36301,-0.0725 -0.41848,0.40308 -0.64759,0.73286 -0.50914,0.73286 0.13844,0 0.53091,-0.29719 0.87215,-0.66041 z m 25.66556,0.13125 c 0.21828,-0.14107 0.27781,-0.25648 0.13229,-0.25648 -0.14552,0 -0.44317,0.11541 -0.66146,0.25648 -0.21828,0.14106 -0.27781,0.25647 -0.13229,0.25647 0.14552,0 0.44318,-0.11541 0.66146,-0.25647 z m 24.60794,-1.32426 c 0.55214,-0.4373 1.3646,-0.86723 1.80548,-0.95541 1.00769,-0.20153 2.11737,-1.28332 1.54264,-1.50387 -0.21165,-0.0812 -0.65309,0.14044 -0.98651,0.49535 -0.3319,0.3533 -0.72907,0.64235 -0.8826,0.64235 -0.37034,0 -2.80245,1.66435 -2.8031,1.91823 -8e-4,0.35066 0.29816,0.2159 1.32409,-0.59665 z m -5.91128,0.35355 c -0.0973,-0.0973 -0.62318,-0.38069 -1.16857,-0.62971 -0.86232,-0.39373 -0.92263,-0.47593 -0.46246,-0.63033 0.29104,-0.0977 0.87281,-0.35383 1.29282,-0.56929 0.68741,-0.35262 0.81288,-0.34718 1.25677,0.0545 0.65833,0.59578 0.62214,1.05365 -0.1022,1.29303 l -0.59531,0.19674 0.57563,0.11452 c 0.3166,0.063 1.17804,-0.14463 1.91432,-0.46136 1.12026,-0.48193 1.38089,-0.7287 1.59727,-1.51235 0.14221,-0.51505 0.19647,-1.03693 0.12058,-1.15972 -0.0759,-0.1228 0.0476,-0.22327 0.2745,-0.22327 0.22687,0 0.41249,-0.11906 0.41249,-0.26458 0,-0.30798 -0.53648,-0.34338 -0.94106,-0.0621 -0.15378,0.10691 -0.43612,0.58134 -0.62741,1.05428 -0.1913,0.47295 -0.43969,0.8599 -0.55199,0.8599 -0.79449,0 -0.46836,-2.93816 0.46143,-4.15719 0.36493,-0.47844 0.53306,-0.86989 0.37362,-0.86989 -0.15944,0 -0.48188,0.29301 -0.71653,0.65114 -0.23466,0.35812 -0.65412,0.72333 -0.93214,0.81158 -0.27803,0.0882 -0.5055,0.33474 -0.5055,0.54778 0,0.21305 -0.20836,0.46523 -0.46302,0.5604 -0.25466,0.0952 -1.29646,0.65845 -2.31511,1.25172 -1.01864,0.59327 -2.19776,1.23181 -2.62026,1.41897 -0.72694,0.32202 -0.74115,0.35821 -0.26458,0.67418 0.59998,0.3978 2.72086,1.04539 3.92113,1.19728 0.13339,0.0169 0.16291,-0.0489 0.0656,-0.14626 z m 9.08459,-0.0876 c 0,-0.14552 -0.0525,-0.26458 -0.11667,-0.26458 -0.0642,0 -0.19027,0.11906 -0.2802,0.26458 -0.0899,0.14552 -0.0374,0.26459 0.11667,0.26459 0.15411,0 0.2802,-0.11907 0.2802,-0.26459 z m -51.82458,-0.7276 c 0.3291,-0.41965 0.31975,-0.42901 -0.0999,-0.0999 -0.25466,0.19972 -0.46302,0.40808 -0.46302,0.46302 0,0.21777 0.21727,0.0776 0.56292,-0.36312 z m 2.7331,-0.82707 c -0.0754,-0.0754 -0.46087,0.19965 -0.85664,0.61118 l -0.71959,0.74824 0.85664,-0.61118 c 0.47116,-0.33616 0.79497,-0.67286 0.71959,-0.74824 z m 28.71856,-0.56366 c 0.36381,-0.13529 1.43537,-0.35925 2.38125,-0.49768 3.27254,-0.47895 5.90763,-1.71703 7.94551,-3.73314 1.17738,-1.1648 2.12611,-1.87338 2.33525,-1.74412 0.30001,0.18541 1.05755,-2.40132 1.19414,-4.07756 0.0652,-0.80037 0.18459,-1.73591 0.26526,-2.07898 0.0807,-0.34308 -0.0315,-1.35511 -0.2492,-2.24896 -0.40075,-1.64522 -0.57799,-5.08572 -0.27747,-5.38624 0.09,-0.09 0.1636,-0.48512 0.1636,-0.87809 0,-0.52689 0.26052,-0.89521 0.99219,-1.40275 0.5457,-0.37854 1.4089,-1.05495 1.91823,-1.50312 l 0.92604,-0.81486 -0.92604,0.16852 c -1.01317,0.18438 -2.32941,0.18862 -8.40053,0.0271 -2.21919,-0.059 -4.03489,-0.0534 -4.03489,0.0125 0,0.26712 0.74212,0.83921 0.89296,0.68836 0.19992,-0.19991 2.01745,0.75229 2.01745,1.05694 0,0.12102 0.10525,0.15499 0.23388,0.0755 0.61052,-0.37732 0.8004,1.728 0.87655,9.71866 l 0.0802,8.41473 -0.66146,0.5028 c -1.29359,0.98332 -3.46038,1.91548 -5.24124,2.25481 -5.67803,1.0819 -10.07671,0.55243 -14.89554,-1.79299 -1.57061,-0.76445 -2.86158,-1.47397 -2.86881,-1.57673 -0.007,-0.10275 -0.63824,-0.83435 -1.40222,-1.62578 -1.87716,-1.94459 -2.52463,-2.71653 -3.58385,-4.27281 -0.49521,-0.7276 -0.97788,-1.38245 -1.07259,-1.45521 -0.63443,-0.48738 -2.59131,-5.3912 -2.83582,-7.10637 -0.0697,-0.48876 -0.231,-1.08407 -0.35851,-1.32291 -0.69205,-1.29638 -0.29436,-11.25071 0.50494,-12.63857 0.26202,-0.45498 0.56286,-1.22083 0.66852,-1.7019 0.10566,-0.48106 0.41601,-1.27329 0.68966,-1.7605 0.27365,-0.48722 0.49754,-1.11616 0.49754,-1.39765 0,-0.2815 0.22443,-0.63193 0.49874,-0.77873 0.2743,-0.1468 0.57288,-0.56235 0.66351,-0.92345 0.0906,-0.3611 0.61034,-0.98932 1.15491,-1.39604 0.54458,-0.40673 1.03273,-0.83752 1.08479,-0.95732 0.0521,-0.11979 0.55659,-0.71511 1.12118,-1.32291 0.56459,-0.60781 1.02801,-1.23548 1.02983,-1.39483 0.002,-0.15935 0.21165,-0.47422 0.46631,-0.69972 0.68256,-0.6044 4.07533,-2.31785 4.58953,-2.31785 0.24377,0 0.78425,-0.17786 1.20106,-0.39524 0.41682,-0.21739 1.01799,-0.39598 1.33594,-0.39688 0.31795,-9e-4 0.91326,-0.12925 1.32292,-0.28523 1.63808,-0.62371 3.38065,-0.7834 5.50103,-0.5041 2.59933,0.34238 5.98788,1.0664 6.38512,1.36428 0.16138,0.12101 0.85136,0.38793 1.53328,0.59317 0.68194,0.20523 1.64329,0.68084 2.13634,1.05691 0.49305,0.37606 0.99501,0.68376 1.11545,0.68376 0.22099,0 0.45073,0.26611 2.51541,2.91363 1.97945,2.53822 2.2667,3.04123 2.84425,4.98055 0.53114,1.78346 1.05114,2.46838 1.08748,1.43238 0.009,-0.25466 0.0711,-2.24896 0.13819,-4.43177 0.0671,-2.18281 0.16573,-4.3557 0.21925,-4.82865 0.10796,-0.95391 -0.13803,-1.05148 -1.16743,-0.46302 -0.91845,0.52503 -1.86607,0.47765 -2.64583,-0.13229 -0.36381,-0.28457 -0.76826,-0.52005 -0.8988,-0.52328 -0.13053,-0.003 -0.74588,-0.4226 -1.36744,-0.93193 -0.62156,-0.50932 -1.20769,-0.92604 -1.3025,-0.92604 -0.0948,0 -0.69154,-0.35719 -1.32606,-0.79375 -0.63452,-0.43656 -1.35316,-0.79375 -1.59698,-0.79375 -0.24381,0 -1.17486,-0.19057 -2.06899,-0.42349 -1.19549,-0.31143 -2.67594,-0.41048 -5.59444,-0.37432 -4.66771,0.0578 -5.33429,0.0908 -5.51616,0.27264 -0.075,0.075 -0.97785,0.0738 -2.00642,-0.003 -1.02857,-0.0764 -1.87013,-0.0614 -1.87013,0.0335 0,0.0948 -0.32358,0.25362 -0.71906,0.35288 -0.39548,0.0993 -1.31821,0.46241 -2.05052,0.80699 -0.7323,0.34458 -1.65889,0.74958 -2.05907,0.89999 -0.40018,0.15042 -0.7276,0.3955 -0.7276,0.54462 0,0.14912 -0.16014,0.27113 -0.35587,0.27113 -0.19573,0 -0.57137,0.23813 -0.83476,0.52917 -0.26339,0.29104 -0.61274,0.52916 -0.77635,0.52916 -0.1636,0 -0.46909,0.23813 -0.67886,0.52917 -0.20977,0.29104 -0.58927,0.52917 -0.84334,0.52917 -0.25406,0 -0.85941,0.38695 -1.34522,0.85989 -0.4858,0.47295 -1.23391,1.17289 -1.66246,1.55544 -0.95256,0.8503 -3.02814,3.29696 -3.02814,3.56951 0,0.22605 -0.65379,1.67991 -2.1274,4.73078 -1.64857,3.4131 -1.91514,4.6437 -1.75568,8.10487 0.30369,6.59185 0.9928,11.95628 1.62573,12.65566 0.2229,0.24629 0.40526,0.58726 0.40526,0.7577 0,0.17044 0.11907,0.3099 0.26459,0.3099 0.14552,0 0.26458,0.18663 0.26458,0.41473 0,0.22811 0.62508,1.07447 1.38906,1.8808 3.13085,3.30442 4.58312,4.855 4.92495,5.25836 0.24297,0.2867 0.57808,0.37132 1.02565,0.25899 0.48954,-0.12286 0.62922,-0.0742 0.5299,0.18461 -0.30381,0.79173 1.77083,2.49212 2.87876,2.35944 0.30903,-0.037 0.74134,0.11219 0.96069,0.33154 0.21936,0.21936 0.47253,0.32512 0.56262,0.23504 0.0901,-0.0901 0.16379,-0.0265 0.16379,0.14134 0,0.16782 0.38695,0.4667 0.85989,0.66418 1.10211,0.46017 5.4068,1.31827 5.70102,1.13643 0.12315,-0.0761 0.53767,0.0244 0.92117,0.22337 0.38349,0.19895 0.91073,0.4113 1.17165,0.47188 0.80811,0.18762 6.25812,-0.0734 6.95668,-0.33321 z m -32.17461,-0.76364 c -0.14745,-0.16687 -0.8983,0.5386 -0.8983,0.844 0,0.15316 0.22276,0.0493 0.49503,-0.23084 0.27227,-0.28012 0.45374,-0.55605 0.40327,-0.61316 z m 50.21038,0.56687 c 0.0485,-0.10914 0.44225,-0.39739 0.87498,-0.64056 1.22993,-0.69114 1.08456,-1.00201 -0.24499,-0.52391 -0.80753,0.29039 -1.20325,0.58566 -1.20325,0.8978 0,0.46085 0.40353,0.64857 0.57326,0.26667 z m -48.31968,-0.61292 c 0.28476,-0.46075 -0.0396,-0.55833 -0.40245,-0.12108 -0.20869,0.25146 -0.22876,0.40327 -0.0533,0.40327 0.15475,0 0.35984,-0.12699 0.45576,-0.28219 z m -0.54004,-0.77614 c 0.0899,-0.14553 0.0444,-0.26459 -0.10107,-0.26459 -0.14552,0 -0.33816,0.11906 -0.4281,0.26459 -0.0899,0.14552 -0.0445,0.26458 0.10106,0.26458 0.14552,0 0.33817,-0.11906 0.42811,-0.26458 z m 49.95035,-0.80948 1.11423,-1.07406 -1.11394,0.54489 c -1.32404,0.64767 -1.3996,0.65662 -1.3996,0.16585 0,-0.20848 0.2471,-0.45747 0.5491,-0.55333 0.30201,-0.0959 0.48958,-0.2338 0.41682,-0.30657 -0.0728,-0.0728 -0.37939,-0.0539 -0.6814,0.042 -0.43312,0.13747 -0.5491,0.39406 -0.5491,1.21479 0,0.57227 0.12367,1.0405 0.27482,1.0405 0.15116,0 0.77624,-0.48333 1.38907,-1.07406 z m -50.59442,0.006 c 0.28148,-0.15065 0.51177,-0.40247 0.51177,-0.55961 0,-0.15955 -0.3153,-0.0791 -0.71407,0.18218 -0.49091,0.32165 -0.74605,0.37199 -0.81635,0.16107 -0.1141,-0.3423 -0.58624,-0.14798 -0.58624,0.24127 0,0.33207 0.96587,0.31707 1.60489,-0.0249 z m 31.1373,0.0129 c 1.0363,-0.004 1.07046,-0.24193 0.18594,-1.29313 -0.76468,-0.90876 -0.97705,-0.88257 -2.76563,0.34108 l -1.19063,0.81456 0.92604,0.16986 c 0.50933,0.0934 1.16417,0.12516 1.45521,0.0705 0.29104,-0.0546 0.91612,-0.10093 1.38907,-0.10291 z m -32.45939,-1.26039 c 0.56585,-0.40018 1.03136,-0.92723 1.03446,-1.17122 0.003,-0.24399 0.21401,-0.49807 0.46867,-0.56462 0.34474,-0.0901 0.30927,-0.12884 -0.13884,-0.15169 -0.39919,-0.0204 -0.67879,0.17166 -0.83033,0.57023 -0.12566,0.33051 -0.53312,0.76397 -0.90546,0.96324 -0.61038,0.32667 -1.17239,1.08167 -0.80517,1.08167 0.0813,0 0.61083,-0.32742 1.17667,-0.72761 z m 24.32345,0.29493 c 0,-0.0925 -0.26789,-0.43672 -0.59531,-0.76503 -0.32743,-0.3283 -0.77501,-0.85848 -0.99463,-1.17817 -0.35738,-0.52022 -0.47545,-0.54656 -1.12448,-0.25084 -0.39884,0.18172 -0.72517,0.46116 -0.72517,0.62098 0,0.15981 0.68461,0.6107 1.52136,1.00198 1.60523,0.75064 1.91823,0.84383 1.91823,0.57108 z m -21.69584,-0.36107 c 0,-0.14552 -0.0525,-0.26458 -0.11667,-0.26458 -0.0642,0 -0.19026,0.11906 -0.2802,0.26458 -0.0899,0.14552 -0.0374,0.26458 0.11668,0.26458 0.1541,0 0.28019,-0.11906 0.28019,-0.26458 z m 27.74513,-2.30662 c 0.059,-0.0317 -0.0187,-0.3889 -0.17283,-0.79375 -0.1541,-0.40485 -0.35575,-1.19131 -0.44812,-1.7477 -0.13648,-0.82213 -0.2364,-0.95479 -0.53344,-0.70827 -0.57313,0.47566 -1.7199,3.73649 -1.7199,4.89055 v 1.04277 l 1.38347,-1.31297 c 0.7609,-0.72213 1.43177,-1.33892 1.49082,-1.37063 z m 5.43229,2.26166 c -0.13069,-0.21148 -0.0439,-0.25298 0.27401,-0.13099 0.50899,0.19532 2.44466,-0.56723 3.45274,-1.36019 0.60151,-0.47314 0.62699,-0.61946 0.5431,-3.11817 -0.0484,-1.44195 -0.10695,-3.27658 -0.13008,-4.07694 -0.036,-1.24518 -0.0875,-1.3813 -0.35722,-0.9431 -0.17335,0.28167 -0.60187,0.789 -0.95227,1.1274 l -0.6371,0.61529 0.70324,1.38994 c 0.89127,1.76156 0.99519,3.89589 0.1897,3.89589 -0.28246,0 -0.58741,0.11949 -0.67768,0.26555 -0.18613,0.30118 -1.5003,0.0496 -1.7529,-0.33558 -0.0913,-0.13923 -0.1107,-0.46464 -0.0431,-0.72315 0.19416,-0.74247 -0.41806,-0.8945 -0.7417,-0.18418 -0.16038,0.35198 -0.81572,0.97127 -1.45633,1.3762 -0.64061,0.40492 -1.16292,0.80826 -1.16069,0.89629 0.0102,0.40353 0.48431,0.83091 1.3274,1.1966 1.11787,0.48488 1.67772,0.52794 1.41888,0.10914 z m -10.01553,-0.41806 c -0.0979,-0.25466 -0.43217,-1.32623 -0.74277,-2.38125 -0.31059,-1.05503 -0.63015,-1.91676 -0.71014,-1.91496 -0.27199,0.006 -1.34234,1.84881 -1.07391,1.84881 0.14686,0 0.26702,0.16889 0.26702,0.37531 0,0.43253 1.81501,2.53511 2.18837,2.53511 0.13722,0 0.16937,-0.20836 0.0714,-0.46302 z m -22.16784,-1.27697 c -0.2604,-0.2604 -0.72946,0.13935 -0.72946,0.62167 0,0.40389 0.0348,0.40316 0.44727,-0.009 0.246,-0.246 0.37298,-0.52156 0.28219,-0.61236 z m -4.88634,-0.96404 c 0.26033,-0.25903 0.3719,-0.47097 0.24793,-0.47097 -0.12396,0 -0.57508,0.3824 -1.00249,0.84979 -0.76644,0.83812 -0.16503,0.53619 0.75456,-0.37882 z m 6.46637,0.16282 c -0.18519,-0.18518 -0.98658,0.19023 -0.98658,0.46216 0,0.13515 0.24813,0.11279 0.55183,-0.0498 0.30351,-0.16243 0.49914,-0.34801 0.43475,-0.41241 z m 15.81447,-0.15642 c 0.17787,-0.18753 0.15329,-0.31964 -0.075,-0.40316 -0.18678,-0.0683 -0.83146,-0.64899 -1.43261,-1.29038 -0.60116,-0.6414 -1.14967,-1.10952 -1.2189,-1.04029 -0.0692,0.0692 -0.15301,0.60675 -0.18617,1.19449 -0.0497,0.8814 0.0611,1.16047 0.63245,1.59289 0.7084,0.53614 1.74397,0.51181 2.28025,-0.0536 z m 31.9764,-0.58891 c -0.0885,-0.64564 -0.0254,-1.55701 0.14083,-2.03382 0.22515,-0.64586 0.22516,-0.93495 4e-5,-1.14523 -0.21406,-0.19995 -0.33619,-0.18566 -0.42239,0.0494 -0.0667,0.1819 -0.44043,0.33073 -0.83051,0.33073 -0.58637,0 -0.81213,-0.21773 -1.30314,-1.25677 -0.32664,-0.69122 -0.59287,-1.55773 -0.59163,-1.92557 0.002,-0.64459 0.78858,-1.58016 1.32821,-1.58016 0.14386,0 0.0298,-0.23179 -0.25353,-0.51509 -0.28331,-0.28331 -0.70308,-0.87862 -0.93284,-1.32292 -0.22976,-0.4443 -0.51931,-0.80782 -0.64346,-0.80782 -0.12415,0 -0.23176,2.48699 -0.23913,5.52664 l -0.0134,5.52664 1.72558,0.01 c 0.94907,0.005 1.79396,0.0783 1.87753,0.1619 0.29336,0.29337 0.31684,0.14197 0.15786,-1.01792 z m -49.5712,0.50841 c 0.18374,-0.22138 0.21239,-0.39687 0.0648,-0.39687 -0.14552,0 -0.41281,0.17859 -0.59396,0.39687 -0.18374,0.22139 -0.21239,0.39688 -0.0648,0.39688 0.14552,0 0.41281,-0.1786 0.59396,-0.39688 z m -4.77081,-0.99218 c 0.0169,-0.40436 -0.40369,-0.16107 -0.90186,0.5216 l -0.51329,0.70342 0.70342,-0.51329 c 0.38688,-0.28232 0.70716,-0.60259 0.71173,-0.71173 z m 28.05415,0.47132 c 0,-0.23603 -0.15521,-0.32901 -0.39536,-0.23686 -0.21744,0.0834 -0.32948,0.2583 -0.24897,0.38857 0.23088,0.37357 0.64433,0.27622 0.64433,-0.15171 z m 11.26175,-0.9566 c 0.0202,-1.07779 -0.81577,-3.22173 -1.02302,-2.62358 -0.39349,1.13566 -0.39127,1.80547 0.009,2.71275 0.52839,1.19762 0.99061,1.15698 1.01399,-0.0892 z m -3.22562,-0.14505 c 0.48759,-0.66897 0.48725,-0.67541 -0.0218,-0.403 -0.2845,0.15226 -0.67089,0.46193 -0.85864,0.68815 -0.2806,0.3381 -0.27672,0.40984 0.0217,0.40301 0.19972,-0.005 0.58611,-0.31424 0.85864,-0.68816 z m -0.92245,-0.81983 c 0.34727,-0.3302 0.52586,-0.59687 0.39688,-0.59261 -0.28064,0.009 -1.95431,1.50002 -1.95431,1.7407 0,0.19432 0.6481,-0.28344 1.55743,-1.14809 z m -10.67483,-2.06205 c -0.87928,-0.87928 -0.90904,-0.97403 -0.80726,-2.56969 0.0755,-1.18405 0.0433,-1.43027 -0.11291,-0.86299 -0.45013,1.63463 -0.32811,3.37799 0.41424,5.91838 0.066,0.226 0.35263,-0.002 0.76235,-0.60531 l 0.65652,-0.96745 z m 8.54018,0.63704 c 0.2661,-2.10095 0.2215,-2.94891 -0.16193,-3.07918 -0.24706,-0.0839 -0.29536,0.0706 -0.17365,0.55553 0.12083,0.48142 0.0116,0.84032 -0.38534,1.26641 -0.61166,0.65654 -0.69576,1.41027 -0.27953,2.50505 0.38238,1.00573 0.77744,0.51299 1.00045,-1.24781 z m -10.58638,0.95037 c -0.0815,-0.0815 -0.22941,0.0654 -0.32877,0.32631 -0.14358,0.37709 -0.11319,0.40748 0.14812,0.14812 0.18082,-0.17948 0.26211,-0.39297 0.18065,-0.47443 z m -5.47232,-0.19585 c -0.26131,-0.25936 -0.2917,-0.22897 -0.14811,0.14811 0.0994,0.26094 0.2473,0.40778 0.32876,0.32632 0.0815,-0.0815 1.7e-4,-0.29495 -0.18065,-0.47443 z m 1.42097,-1.43881 c -0.13625,-1.23776 -0.2585,-1.63306 -0.39237,-1.26876 -0.10695,0.29104 -0.13464,0.68847 -0.0615,0.88318 0.12961,0.3452 0.22082,0.97751 0.28925,2.00519 0.0186,0.27891 0.10774,0.43314 0.19816,0.34272 0.0904,-0.0904 0.0753,-0.97347 -0.0335,-1.96233 z m 18.07078,-1.00535 c 1.9768,-2.22744 3.49417,-4.18528 3.49417,-4.50849 0,-0.36706 -0.51956,-0.0385 -0.66532,0.42078 -0.0945,0.29773 -0.70879,1.1014 -1.3651,1.78594 -0.6563,0.68453 -1.83717,1.91319 -2.62414,2.73035 -1.29836,1.34816 -1.7596,2.12103 -1.23242,2.06507 0.10914,-0.0116 1.1859,-1.13372 2.39281,-2.49365 z m -20.40579,-1.97445 c -0.96696,-1.03125 -1.64319,-3.18274 -1.35778,-4.31989 0.16327,-0.65054 2.27011,-2.54546 2.87772,-2.58827 0.15802,-0.0111 0.51863,-0.0635 0.80136,-0.11637 0.88683,-0.16584 0.96147,0.1348 0.28179,1.13502 -0.55382,0.81502 -0.59609,1.00268 -0.26733,1.18667 0.22239,0.12445 0.62457,0.0933 0.93415,-0.0724 0.60882,-0.32583 3.08036,-0.14539 4.38902,0.32042 0.72399,0.2577 0.93382,0.21265 1.71979,-0.36921 0.49236,-0.36449 1.11346,-0.73992 1.38022,-0.83427 0.26676,-0.0944 0.43534,-0.32033 0.37462,-0.50215 -0.15253,-0.45675 -1.66008,-0.26665 -2.82141,0.35578 -1.22731,0.65781 -1.67741,0.63604 -2.582,-0.12484 -0.79762,-0.6709 -3.42117,-2.01674 -3.93141,-2.01674 -0.16849,0 -0.52185,-0.23813 -0.78524,-0.52917 -0.55643,-0.61485 -1.07564,-0.67934 -1.37592,-0.17091 -0.11637,0.19703 -0.49158,0.50536 -0.83381,0.68517 -0.54617,0.28696 -0.70787,0.2455 -1.32292,-0.3392 -1.13848,-1.08232 -1.43611,-1.00706 -1.40044,0.35411 0.047,1.79443 0.34441,3.6986 0.60256,3.85815 0.12622,0.078 0.22949,0.36102 0.22949,0.62893 0,0.51322 1.59381,4.61207 2.31904,5.96396 0.2342,0.43656 0.61189,0.93379 0.83932,1.10496 0.35875,0.26999 0.43948,0.11346 0.6096,-1.18187 0.1894,-1.44212 0.16618,-1.52499 -0.68042,-2.42788 z m 11.06767,3.43083 c 0.0899,-0.14552 0.0374,-0.26458 -0.11668,-0.26458 -0.15411,0 -0.2802,0.11906 -0.2802,0.26458 0,0.14552 0.0525,0.26459 0.11668,0.26459 0.0642,0 0.19026,-0.11907 0.2802,-0.26459 z m 3.9026,-1.01665 c 0.25466,-0.21355 0.46302,-0.563 0.46302,-0.77654 0,-0.2992 -0.0833,-0.3191 -0.36334,-0.0867 -0.19983,0.16585 -0.54498,0.23184 -0.76699,0.14665 -0.222,-0.0852 -0.48224,-0.0277 -0.57831,0.12773 -0.0984,0.15922 0.027,0.28262 0.28732,0.28262 0.37265,0 0.3117,0.16054 -0.31512,0.83016 l -0.7771,0.83016 0.79375,-0.48289 c 0.43656,-0.26559 1.00211,-0.65762 1.25677,-0.87117 z m -2.4474,-0.43856 c 0.13832,-0.3638 0.36076,-0.66145 0.49431,-0.66145 0.13356,0 0.31136,-0.1786 0.39513,-0.39688 0.29931,-0.78001 -0.30234,-0.37815 -0.99032,0.66146 -0.38521,0.58208 -0.57667,1.05833 -0.42549,1.05833 0.15119,0 0.38806,-0.29765 0.52637,-0.66146 z m -29.10821,-0.19843 c -0.003,-0.4648 -0.0573,-0.51107 -0.24713,-0.21108 -0.13369,0.21134 -0.18437,0.47923 -0.11263,0.59532 0.2295,0.37132 0.36392,0.22775 0.35976,-0.38424 z m 27.13923,-0.45677 c 0.4281,-0.57864 0.91261,-1.05489 1.07669,-1.05833 0.33232,-0.007 1.077,-0.80001 0.75123,-0.80001 -0.37875,0 -1.93226,1.31265 -2.50434,2.11606 -0.8512,1.1954 -0.221,0.95529 0.67642,-0.25772 z m 9.39816,-0.66771 c 0.39399,-0.43657 1.08625,-1.17962 1.53837,-1.65124 0.45212,-0.47162 0.82204,-0.98183 0.82204,-1.13379 0,-0.45636 -0.90719,0.15729 -1.65386,1.11871 -0.3727,0.47991 -1.10556,1.31933 -1.62856,1.86537 -0.523,0.54604 -0.95092,1.13004 -0.95092,1.29778 0,0.33873 0.77629,-0.28166 1.87293,-1.49683 z m 19.75125,1.55994 c -0.0879,-0.0879 -0.31612,-0.0973 -0.50712,-0.0209 -0.21106,0.0845 -0.14837,0.14716 0.15986,0.15985 0.27891,0.0115 0.43518,-0.0511 0.34726,-0.13896 z m -27.43843,-1.4938 0.63527,-0.85989 -0.83545,0.66146 c -0.82208,0.65086 -1.0723,1.05833 -0.64991,1.05833 0.11816,0 0.5007,-0.38695 0.85009,-0.8599 z m 27.7947,-0.21846 c 0.28003,-0.28003 0.40465,-0.50914 0.27695,-0.50914 -0.1277,0 -0.3804,0.17859 -0.56156,0.39687 -0.18116,0.21828 -0.55292,0.39688 -0.82615,0.39688 -0.27322,0 -0.49677,0.18278 -0.49677,0.40618 0,0.32914 0.10418,0.35043 0.5492,0.11227 0.30205,-0.16166 0.7783,-0.52304 1.05833,-0.80306 z m -30.31482,0.28461 c 0.26339,-0.29104 0.35983,-0.52917 0.21431,-0.52917 -0.14552,0 -0.48009,0.23813 -0.74348,0.52917 -0.26339,0.29104 -0.35983,0.52917 -0.2143,0.52917 0.14552,0 0.48008,-0.23813 0.74347,-0.52917 z m 5.42396,-0.32938 c 0,-0.14759 -0.17549,-0.11894 -0.39688,0.0648 -0.21828,0.18115 -0.39687,0.44843 -0.39687,0.59396 0,0.14759 0.17549,0.11894 0.39687,-0.0648 0.21828,-0.18116 0.39688,-0.44844 0.39688,-0.59396 z m 22.07848,0.13876 c 0.22191,-0.57829 0.0196,-0.69543 -0.61472,-0.35595 -0.30874,0.16524 -0.47986,0.45192 -0.39764,0.66619 0.17419,0.45393 0.79174,0.26468 1.01236,-0.31024 z m -31.07432,-0.61244 c 0,-0.37588 -0.12665,-0.31825 -0.68659,0.31239 -0.50133,0.56462 -0.50084,0.56599 0.0913,0.25528 0.32742,-0.17182 0.59531,-0.42727 0.59531,-0.56767 z m 2.91042,0.1416 c 0.35753,-0.4308 0.27201,-0.48465 -0.37523,-0.23628 -0.23019,0.0883 -0.41852,0.26693 -0.41852,0.39688 0,0.36598 0.42872,0.27924 0.79375,-0.1606 z m -25.79687,-0.39687 c 0.61118,-0.67536 0.20192,-0.67536 -0.66146,0 -0.48153,0.37665 -0.54666,0.519 -0.23945,0.52328 0.23211,0.003 0.63752,-0.23224 0.90091,-0.52328 z m 33.62964,-0.32522 c -0.17158,-0.85789 -1.49138,-2.42325 -2.89919,-3.43861 -0.59265,-0.42744 -0.8007,-0.4705 -0.96771,-0.20027 -0.33534,0.54259 5.3e-4,1.05368 0.69265,1.05368 0.38641,0 0.63315,0.15466 0.63315,0.39687 0,0.39924 -0.26953,0.49768 -1.12448,0.41072 -0.75289,-0.0766 -0.52624,0.60211 0.41505,1.24293 1.16751,0.79481 1.50318,0.7505 1.50318,-0.19844 0,-1.16452 0.69304,-1.01665 0.92061,0.19642 0.21831,1.16368 0.33529,1.39108 0.71558,1.39108 0.17671,0 0.21822,-0.31906 0.11116,-0.85438 z m 22.7757,0.2791 c 0.3368,-0.31641 0.61237,-0.68266 0.61237,-0.81388 0,-0.27841 -1.55111,0.89584 -1.57287,1.19072 -0.026,0.35299 0.33398,0.21174 0.9605,-0.37684 z m -36.6204,-0.22149 c 0.25063,-0.29271 0.45568,-0.61562 0.45568,-0.71759 0,-0.10197 0.50104,-0.69592 1.11342,-1.31989 0.61238,-0.62398 0.99527,-1.1345 0.85086,-1.1345 -0.25061,0 -2.53707,2.26716 -3.26875,3.24115 -0.51672,0.68785 0.25442,0.62501 0.84879,-0.0692 z m 1.24943,-0.40735 c 0,-0.10098 -0.17859,-0.0354 -0.39687,0.14579 -0.21829,0.18116 -0.39688,0.44236 -0.39688,0.58046 0,0.1381 0.17859,0.0725 0.39688,-0.14579 0.21828,-0.21828 0.39687,-0.47949 0.39687,-0.58046 z m 14.6825,0.67798 c 0.0927,-0.14998 -0.0135,-0.19433 -0.24896,-0.10398 -0.45837,0.17589 -0.54224,0.36554 -0.16165,0.36554 0.13693,0 0.32171,-0.1177 0.41061,-0.26156 z m -17.01834,-0.86055 c 0.33584,-0.47164 0.99879,-1.19835 1.47323,-1.61491 0.47444,-0.41656 0.86261,-0.86411 0.86261,-0.99456 0,-0.42668 -0.52472,-0.24917 -0.99478,0.33654 -0.25323,0.31554 -0.90691,1.073 -1.45262,1.68324 -0.5457,0.61023 -0.99218,1.1855 -0.99218,1.27837 0,0.43178 0.55047,0.0883 1.10374,-0.68868 z m 16.63853,-0.13466 c 0.20059,-0.40018 0.41047,-0.82367 0.4664,-0.94108 0.0559,-0.11741 -0.20814,0.0964 -0.58682,0.47505 -0.68792,0.68792 -0.88553,1.19363 -0.46641,1.19363 0.12217,0 0.38624,-0.32742 0.58683,-0.7276 z m -18.15045,0.21672 c 0.0837,-0.13547 0.0312,-0.32109 -0.11667,-0.41249 -0.1479,-0.0914 -0.2689,0.0194 -0.2689,0.2463 0,0.46475 0.15876,0.53318 0.38557,0.16619 z m 19.45818,-0.0183 c 0,-0.14553 -0.0525,-0.26459 -0.11668,-0.26459 -0.0642,0 -0.19026,0.11906 -0.2802,0.26459 -0.0899,0.14552 -0.0374,0.26458 0.11668,0.26458 0.15411,0 0.2802,-0.11906 0.2802,-0.26458 z m -8.44928,-0.53848 c 0.79998,-0.42814 0.603,-0.78444 -0.43366,-0.78444 -0.75828,0 -0.92765,-0.0917 -0.85557,-0.46302 0.0494,-0.25466 0.28015,-0.46482 0.5127,-0.46701 1.02443,-0.01 1.74099,-1.6142 0.85155,-1.90681 -0.40756,-0.13408 -3.36342,2.6811 -3.23128,3.07751 0.0679,0.20367 0.30491,0.12431 0.68427,-0.22911 0.66277,-0.61747 0.8671,-0.67187 0.8671,-0.23083 0,0.29573 0.75657,1.2776 0.98444,1.2776 0.0598,0 0.33898,-0.12325 0.62045,-0.27389 z m -26.68148,-1.92546 c 0.27688,-0.26376 0.46621,-0.58721 0.42073,-0.7188 -0.0455,-0.13158 -0.70672,0.30563 -1.46943,0.97159 -0.76271,0.66596 -1.3152,1.3266 -1.22775,1.4681 0.1422,0.23008 0.56,-0.0858 2.27645,-1.72089 z m 54.35195,0.99101 c 0.63345,-0.51906 1.15159,-1.08461 1.15143,-1.25677 -1.6e-4,-0.17216 -0.32759,0.0152 -0.72761,0.41641 -0.40002,0.40118 -1.02496,0.96277 -1.38876,1.24797 -0.3638,0.2852 -0.55466,0.5225 -0.42413,0.52735 0.13054,0.005 0.75561,-0.41589 1.38907,-0.93496 z m -17.50052,-0.116 c 0.28009,-0.45319 -0.12983,-0.28765 -0.73955,0.29866 l -0.58425,0.56182 0.58058,-0.29866 c 0.31932,-0.16426 0.65377,-0.41708 0.74322,-0.56182 z m -19.69231,-0.16902 0.64143,-0.69962 -0.72761,0.46546 c -0.40018,0.25601 -0.7276,0.57083 -0.7276,0.69962 0,0.35975 0.12024,0.29098 0.81378,-0.46546 z m 5.00705,0.43503 c 0,-0.14552 -0.0525,-0.26459 -0.11667,-0.26459 -0.0642,0 -0.19026,0.11907 -0.2802,0.26459 -0.0899,0.14552 -0.0374,0.26458 0.11668,0.26458 0.1541,0 0.28019,-0.11906 0.28019,-0.26458 z m 11.1125,0 c 0,-0.14552 -0.0525,-0.26459 -0.11667,-0.26459 -0.0642,0 -0.19026,0.11907 -0.2802,0.26459 -0.0899,0.14552 -0.0374,0.26458 0.11668,0.26458 0.1541,0 0.28019,-0.11906 0.28019,-0.26458 z m 20.00104,-0.66114 c 0.42282,-0.36362 0.64068,-0.66128 0.48415,-0.66146 -0.15654,-1.7e-4 -0.56424,0.29734 -0.90602,0.66114 -0.79932,0.85084 -0.5673,0.85102 0.42187,2.6e-4 z m -37.19993,-0.26386 c 0.34123,-0.36323 0.56533,-0.71551 0.49799,-0.78285 -0.0673,-0.0673 -0.45493,0.22985 -0.86132,0.66042 -0.40638,0.43056 -0.63048,0.78284 -0.49799,0.78284 0.13249,0 0.52008,-0.29718 0.86132,-0.66041 z m 5.43582,0.37823 c 0.28476,-0.46076 -0.0396,-0.55834 -0.40245,-0.12109 -0.20869,0.25146 -0.22877,0.40327 -0.0533,0.40327 0.15475,0 0.35984,-0.12698 0.45577,-0.28218 z m 14.04804,-0.69604 c -0.10839,-0.10839 -0.30784,-0.0219 -0.44322,0.19214 -0.40737,0.64414 -0.28518,0.93041 0.19303,0.45221 0.246,-0.246 0.35858,-0.53596 0.25019,-0.64435 z m -37.73913,0.44906 c 0,-0.14552 0.11425,-0.26459 0.25389,-0.26459 0.34522,0 2.48189,-2.1149 2.31016,-2.28663 -0.23418,-0.23419 -1.38321,0.65689 -2.27006,1.76046 -0.46645,0.58044 -0.72342,1.05534 -0.57104,1.05534 0.15237,0 0.27705,-0.11906 0.27705,-0.26458 z m 3.97405,-0.13869 c 0.54523,-0.65695 0.0309,-0.80883 -0.60062,-0.17734 -0.46662,0.46663 -0.49751,0.58061 -0.15733,0.58061 0.2328,0 0.57388,-0.18147 0.75795,-0.40327 z m 32.58694,-1.44567 c 0.62817,0.002 1.79458,0.17676 2.59202,0.38897 0.79743,0.21221 1.54059,0.29512 1.65146,0.18425 0.11087,-0.11087 0.0591,-0.57902 -0.11502,-1.04033 -0.17412,-0.46131 -0.2262,-0.92915 -0.11572,-1.03962 0.18778,-0.18778 0.36493,-0.007 0.95354,0.97222 0.3781,0.6291 0.55474,0.17724 0.29067,-0.74353 -0.33921,-1.18273 -0.92802,-1.72064 -1.52488,-1.39304 -3.71415,2.03858 -6.18772,2.45189 -7.45473,1.24561 -0.59047,-0.56216 -0.75908,-0.60838 -1.15448,-0.31643 -0.60256,0.44492 -0.59242,1.13286 0.0195,1.3271 0.26542,0.0842 0.8219,0.50733 1.23661,0.9402 l 0.75403,0.78703 0.86241,-0.65778 c 0.61337,-0.46785 1.1922,-0.65688 2.00453,-0.65465 z m 18.36405,0.59412 c -0.18349,-0.18349 -0.68546,0.18932 -0.68546,0.50908 0,0.17545 0.15181,0.15537 0.40327,-0.0533 0.2218,-0.18407 0.34878,-0.38917 0.28219,-0.45576 z m -2.76929,-0.13865 c -0.26131,-0.25936 -0.2917,-0.22897 -0.14812,0.14811 0.0994,0.26094 0.24731,0.40778 0.32877,0.32632 0.0815,-0.0815 1.7e-4,-0.29495 -0.18065,-0.47443 z m -50.59656,-1.69937 c 1.5441,-1.41787 1.81137,-2.04756 0.41798,-0.98477 -1.42542,1.08722 -1.43462,0.52343 -0.0137,-0.83807 1.62895,-1.56081 1.36775,-1.83592 -0.36539,-0.38485 -1.30543,1.09297 -1.63887,1.71506 -1.02835,1.91857 0.2085,0.0695 0.15696,0.32791 -0.16272,0.8158 -0.6658,1.01614 -0.39142,0.89071 1.15217,-0.52668 z m 52.82867,0.95031 c 0.0987,-0.15975 0.69762,-0.61903 1.33087,-1.02063 1.53025,-0.97045 3.37516,-2.65417 3.15208,-2.87668 -0.0981,-0.0978 -0.45055,0.1384 -0.78326,0.52494 -0.33271,0.38655 -1.12626,1.02766 -1.76343,1.4247 -0.63717,0.39704 -1.37149,0.94398 -1.63183,1.21542 -0.45242,0.47174 -1.24646,0.67905 -1.24646,0.32543 0,-0.20127 1.06902,-1.21155 1.8918,-1.78785 0.3244,-0.22722 0.53469,-0.46826 0.4673,-0.53564 -0.0674,-0.0674 -0.73433,0.34403 -1.48211,0.91425 -1.04532,0.79711 -1.32727,1.1604 -1.21973,1.57163 0.14898,0.5697 0.9854,0.72882 1.28477,0.24443 z m 3.39547,-1.18687 c 0.0989,-0.25768 0.0397,-0.37864 -0.15359,-0.31419 -0.39551,0.13184 -0.61328,0.73317 -0.26551,0.73317 0.14208,0 0.33067,-0.18854 0.4191,-0.41898 z m -27.09167,-0.37477 c 0,-0.14552 0.22638,-0.49095 0.50305,-0.76763 1.17244,-1.17243 0.85316,-2.11043 -0.41581,-1.2216 -0.49441,0.34629 -0.59762,0.34629 -0.88502,0 -0.17894,-0.21561 -0.54297,-0.39202 -0.80896,-0.39202 -0.266,0 -0.60499,-0.20835 -0.75331,-0.46302 -0.229,-0.39316 -0.2709,-0.34942 -0.27773,0.28989 -0.008,0.77243 0.88269,2.2898 1.34448,2.2898 0.14199,0 0.22318,-0.19601 0.18042,-0.43557 -0.0427,-0.23957 0.0711,-0.48761 0.25299,-0.55122 0.21808,-0.0762 0.33073,0.16223 0.33073,0.70016 0,0.44869 0.11906,0.8158 0.26458,0.8158 0.14552,0 0.26458,-0.11906 0.26458,-0.26459 z m 5.81114,-1.35554 c 1.67025,-1.67026 1.94501,-2.37174 0.51481,-1.31434 -0.44621,0.3299 -0.88254,0.52857 -0.96962,0.44149 -0.0871,-0.0871 0.0711,-0.3319 0.35153,-0.54405 0.28042,-0.21215 0.39079,-0.38687 0.24527,-0.38826 -0.14552,-10e-4 -0.56224,0.2303 -0.92604,0.51487 -0.53607,0.41932 -0.57369,0.51852 -0.19844,0.52328 0.68876,0.009 0.562,0.44604 -0.31786,1.09655 -0.89221,0.65963 -1.22816,1.29059 -0.68719,1.29059 0.20207,0 1.09646,-0.72906 1.98754,-1.62013 z m -10.11061,0.25071 c 0.32742,-0.16666 0.59531,-0.52204 0.59531,-0.78972 0,-0.26768 -0.0347,-0.4867 -0.0772,-0.4867 -0.0425,0 -0.608,0.55797 -1.25677,1.23993 -0.64876,0.68196 -0.88191,1.03733 -0.51811,0.78971 0.36381,-0.24761 0.92935,-0.58657 1.25678,-0.75322 z m 10.6007,0.876 c 0.31066,-0.197 1.10711,-1.49523 1.10711,-1.80462 0,-0.0665 -0.41672,0.32096 -0.92604,0.861 -0.50933,0.54004 -0.92605,1.02477 -0.92605,1.07717 0,0.16473 0.38282,0.0961 0.74498,-0.13355 z m -13.06742,-0.4383 c 0.28042,-0.21215 0.44612,-0.44947 0.36821,-0.52737 -0.0779,-0.0779 -0.42639,0.0955 -0.77443,0.38534 -0.72354,0.60255 -0.36718,0.72714 0.40622,0.14203 z m 30.69035,-0.54066 c 0.78949,-0.78948 0.41657,-0.93068 -0.50852,-0.19255 -0.50932,0.40639 -0.92604,0.83237 -0.92604,0.94663 -1e-5,0.26184 0.88259,-0.2021 1.43456,-0.75408 z m -27.09916,0.28175 c 0,-0.49381 -0.24951,-0.4915 -0.91046,0.008 -0.49257,0.37255 -0.48444,0.38846 0.19844,0.38846 0.45652,0 0.71202,-0.14242 0.71202,-0.39688 z m 7.14036,-0.12595 c 0.25024,-0.46758 0.21771,-0.49986 -0.30779,-0.30546 -0.70036,0.25908 -0.96262,0.82829 -0.38163,0.82829 0.22529,0 0.53553,-0.23527 0.68942,-0.52283 z m -11.19331,-0.68919 c 0.40524,-0.37557 0.9164,-0.78335 1.1359,-0.9062 0.21951,-0.12284 0.33505,-0.2874 0.25676,-0.36568 -0.22754,-0.22755 -1.77582,0.81571 -2.09463,1.41141 -0.3878,0.72461 -0.18749,0.68479 0.70197,-0.13953 z m 32.36337,-1.87809 c 0,-0.0569 -0.20836,0.004 -0.46302,0.13522 -0.25466,0.1313 -0.9095,0.44671 -1.45521,0.70091 -0.62391,0.29064 -0.99218,0.64439 -0.99218,0.95305 0,0.40569 0.25252,0.30202 1.4552,-0.5974 0.80037,-0.59855 1.45521,-1.13485 1.45521,-1.19178 z m 1.69074,1.35717 c 0.5661,-0.5098 0.96095,-0.99524 0.87743,-1.07875 -0.17983,-0.17984 -2.30358,1.47747 -2.30358,1.79764 0,0.40963 0.39293,0.21156 1.42615,-0.71889 z m -56.72407,0.29556 c 0,-0.20848 0.20836,-0.45482 0.46302,-0.54743 0.58185,-0.2116 2.0435,-1.94687 1.82441,-2.16595 -0.0895,-0.0895 -0.49197,0.16836 -0.89436,0.57305 -0.40239,0.40468 -0.99951,0.91267 -1.32693,1.12885 -0.59431,0.39239 -0.83171,1.39052 -0.33073,1.39052 0.14552,0 0.26459,-0.17057 0.26459,-0.37904 z m 22.15505,-0.70314 c 0.78834,-0.59521 1.36791,-1.14763 1.28792,-1.22762 -0.08,-0.08 -0.41652,0.0536 -0.74784,0.29684 -0.33133,0.24324 -0.98938,0.68837 -1.46232,0.98916 -0.77785,0.49472 -1.1321,1.0238 -0.6855,1.0238 0.0959,0 0.8194,-0.48698 1.60774,-1.08218 z m -6.54464,-0.10844 c 0.51438,-0.54753 0.54511,-0.66146 0.17842,-0.66146 -0.24365,0 -0.443,0.10518 -0.443,0.23373 0,0.12854 -0.23812,0.29599 -0.52917,0.3721 -0.29104,0.0761 -0.52916,0.26859 -0.52916,0.42773 0,0.5043 0.679,0.31331 1.32291,-0.3721 z m 6.52687,-1.23801 c 0.85541,-0.82483 1.00546,-0.92666 3.0284,-2.0551 0.75156,-0.41923 1.01156,-0.67964 0.738,-0.73917 -0.43213,-0.094 -2.64429,1.20327 -4.08724,2.39693 -0.44299,0.36645 -1.35893,0.96057 -2.03541,1.32027 -0.67649,0.35969 -1.16632,0.71764 -1.08851,0.79545 0.26238,0.26238 2.59974,-0.90358 3.44476,-1.71838 z m 3.13043,1.63488 c 0.0899,-0.14552 -0.0221,-0.26458 -0.24897,-0.26458 -0.22687,0 -0.41249,0.11906 -0.41249,0.26458 0,0.14553 0.11203,0.26459 0.24897,0.26459 0.13693,0 0.32255,-0.11906 0.41249,-0.26459 z m 8.33437,0 c 0,-0.14552 -0.0525,-0.26458 -0.11667,-0.26458 -0.0642,0 -0.19027,0.11906 -0.2802,0.26458 -0.0899,0.14553 -0.0374,0.26459 0.11667,0.26459 0.15411,0 0.2802,-0.11906 0.2802,-0.26459 z m -3.51108,-0.71154 c 0.0516,-0.15487 -0.0654,-0.34271 -0.26008,-0.41741 -0.21526,-0.0826 -0.36921,0.0668 -0.39289,0.38127 -0.0395,0.52433 0.48064,0.55312 0.65297,0.0361 z m 2.45275,-0.33117 c 0,-1.02317 -0.43044,-1.26771 -0.60687,-0.34477 -0.14862,0.77743 -0.0385,1.1229 0.3579,1.1229 0.13693,0 0.24897,-0.35016 0.24897,-0.77813 z m 23.41562,0.51355 c 0.0899,-0.14552 -0.0221,-0.26459 -0.24896,-0.26459 -0.22687,0 -0.41249,0.11907 -0.41249,0.26459 0,0.14552 0.11203,0.26458 0.24896,0.26458 0.13694,0 0.32256,-0.11906 0.41249,-0.26458 z m -29.86697,-1.46999 c -0.19226,-0.501 -0.87091,-0.21065 -1.04265,0.44608 -0.0975,0.37303 0.0301,0.58995 0.43695,0.74248 0.45681,0.17126 0.59262,0.1097 0.66183,-0.29996 0.0479,-0.28348 0.0226,-0.68336 -0.0561,-0.8886 z m 2.74718,0.96559 c 0,-0.37413 -0.13666,-0.46866 -0.52917,-0.36601 -0.54245,0.14185 -0.66461,0.38218 -0.35277,0.69402 0.35696,0.35697 0.88194,0.16172 0.88194,-0.32801 z m 5.82083,-0.0404 c 0,-0.13694 -0.11906,-0.24897 -0.26458,-0.24897 -0.14552,0 -0.26458,0.18562 -0.26458,0.41249 0,0.22687 0.11906,0.3389 0.26458,0.24897 0.14552,-0.0899 0.26458,-0.27556 0.26458,-0.41249 z m -33.95564,-0.91043 c 0.70316,-0.65484 1.36802,-1.19063 1.47747,-1.19063 0.10945,0 0.19901,-0.24192 0.19901,-0.53761 0,-0.48979 -0.059,-0.50672 -0.66283,-0.19033 -0.54104,0.28348 -2.71034,3.10919 -2.38693,3.10919 0.0521,0 0.67013,-0.53578 1.37328,-1.19062 z m 14.05302,0.77875 c 0.32342,-0.22654 0.58804,-0.52419 0.58804,-0.66146 0,-0.4048 -0.72355,-0.28498 -0.88943,0.14729 -0.0838,0.21828 -0.3276,0.39688 -0.54186,0.39688 -0.21426,0 -0.46315,0.11906 -0.55308,0.26458 -0.25651,0.41503 0.74421,0.30947 1.39633,-0.14729 z m 4.45492,0.13573 c 0.92402,-0.35132 2.19389,-1.57594 1.63417,-1.57594 -0.21558,0 -0.61876,0.25439 -0.89598,0.56532 -0.27721,0.31092 -0.86121,0.72298 -1.29778,0.91568 -0.94146,0.41557 -0.48668,0.49273 0.55959,0.0949 z m 12.21811,-0.48456 c 0.042,-0.55163 -0.17181,-0.98536 -0.77803,-1.57805 -1.54179,-1.50739 -1.81884,-0.25862 -0.29185,1.31548 0.5457,0.56255 0.99662,1.02291 1.00205,1.02304 0.005,1.3e-4 0.0359,-0.34208 0.0678,-0.76047 z m -13.96832,0.23154 c 0,-0.14552 0.13005,-0.26459 0.28899,-0.26459 0.15895,0 0.60544,-0.25288 0.99219,-0.56197 l 0.70319,-0.56198 -0.66146,0.2034 c -1.18035,0.36295 -2.3704,1.44972 -1.5875,1.44972 0.14552,0 0.26459,-0.11906 0.26459,-0.26458 z m -3.45157,-0.9116 c 0.20993,-0.25295 0.23303,-0.41132 0.06,-0.41132 -0.15476,0 -0.35174,0.11386 -0.43775,0.25303 -0.086,0.13917 -0.33116,0.18596 -0.54478,0.10398 -0.26699,-0.10245 -0.3884,0.0281 -0.3884,0.41774 0,0.4675 0.0849,0.52134 0.48478,0.30734 0.26663,-0.1427 0.63839,-0.44454 0.82615,-0.67077 z m 11.71002,-0.74666 c 0.18728,-0.0668 0.27015,-0.19811 0.18416,-0.2919 -0.2115,-0.23068 -1.88722,0.92594 -2.04761,1.41332 -0.0733,0.22259 0.2253,0.0919 0.69743,-0.30542 0.45403,-0.38205 0.97874,-0.74925 1.16602,-0.816 z m 3.11696,-0.16869 c 0.002,-0.63202 -0.002,-0.63293 -0.59364,-0.13511 -0.32742,0.27567 -0.61029,0.50248 -0.62859,0.50403 -0.0183,0.002 -0.11526,0.26957 -0.21546,0.5956 -0.18126,0.58977 -0.17808,0.59044 0.62691,0.13229 0.54923,-0.31258 0.80964,-0.66487 0.81078,-1.09681 z m 5.29334,1.14987 c 0,-0.22687 -0.11906,-0.3389 -0.26459,-0.24896 -0.14552,0.0899 -0.26458,0.27555 -0.26458,0.41249 0,0.13693 0.11906,0.24896 0.26458,0.24896 0.14553,0 0.26459,-0.18562 0.26459,-0.41249 z m 3.14082,-1.64865 c -0.054,-0.14772 -0.55609,0.12932 -1.11583,0.61565 -0.60702,0.52741 -0.94062,1.009 -0.82666,1.19338 0.2252,0.36439 2.09898,-1.38064 1.94249,-1.80903 z m 2.09021,1.58159 c 0.0576,-0.17281 -0.0838,-0.3142 -0.31419,-0.3142 -0.23041,0 -0.41893,0.18852 -0.41893,0.41893 0,0.46723 0.56959,0.38586 0.73312,-0.10473 z m 7.46492,-0.64492 c 0.002,-0.10915 -0.11501,-0.19844 -0.26053,-0.19844 -0.14553,0 -0.26277,0.26789 -0.26054,0.59531 0.003,0.48139 0.0531,0.51937 0.26054,0.19844 0.14106,-0.21828 0.2583,-0.48617 0.26053,-0.59531 z m 10.20715,-0.26459 0.77711,-0.85989 -0.8599,0.7771 c -0.80154,0.72437 -0.98151,0.94269 -0.7771,0.94269 0.0455,0 0.43248,-0.38696 0.85989,-0.8599 z m -56.13742,-0.86548 c 0.81637,-0.80344 1.48432,-1.64485 1.48432,-1.86981 0,-0.23191 -0.7447,0.34676 -1.71979,1.33636 -0.94589,0.95996 -1.7198,1.80137 -1.7198,1.86981 0,0.39458 0.64299,-0.0449 1.95527,-1.33636 z m 16.30098,1.11905 c 0,-0.57399 1.79032,-1.21497 3.04918,-1.09169 1.01414,0.0993 1.20726,0.0275 1.66886,-0.62079 0.81135,-1.13944 2.31594,-1.42961 4.16898,-0.80403 1.45258,0.49039 2.40159,0.47403 1.1377,-0.0196 -0.67463,-0.26348 -2.88097,-2.34624 -2.88097,-2.71959 0,-0.46106 0.6451,-0.19258 1.82484,0.75946 0.66983,0.54055 1.31309,1.13586 1.42946,1.32291 0.11637,0.18706 0.50332,0.3401 0.85989,0.3401 0.59895,0 0.64831,-0.0977 0.64831,-1.28379 0,-2.20739 -1.61269,-3.81859 -3.02886,-3.02606 -0.3504,0.19609 -0.35119,0.30931 -0.007,0.97321 0.5711,1.1008 0.48341,1.28198 -0.39949,0.82542 -0.85233,-0.44076 -1.41754,-1.34056 -1.71797,-2.73498 -0.30314,-1.40702 0.0444,-2.48041 1.18302,-3.65349 l 1.05681,-1.08881 -0.74856,-1.64905 -0.74856,-1.64905 -0.42025,0.88862 c -0.23113,0.48873 -0.50734,1.23786 -0.6138,1.66472 -0.10645,0.42687 -0.35303,1.08171 -0.54794,1.45521 -0.55171,1.05721 -0.42725,2.71208 0.32806,4.36188 0.37713,0.82377 0.61666,1.67767 0.53229,1.89755 -0.0844,0.21988 -0.70993,0.64595 -1.39011,0.94683 -1.23645,0.54694 -2.29483,0.55976 -4.80279,0.0582 -1.06209,-0.21242 -1.14257,0.31978 -0.18447,1.21987 1.24209,1.16689 0.52982,1.4552 -1.17338,0.47497 -1.29313,-0.74424 -1.94073,-1.90391 -1.70932,-3.06093 0.0951,-0.47555 0.27661,-0.92871 0.40333,-1.00703 0.12673,-0.0783 0.23358,-0.34374 0.23745,-0.58981 0.004,-0.24805 0.6141,-0.82544 1.36946,-1.29583 l 1.36242,-0.84843 -0.0628,-1.53813 c -0.0676,-1.65779 0.41344,-2.66569 2.13566,-4.47425 0.58005,-0.60914 0.70175,-0.88488 0.45724,-1.036 -0.4821,-0.29795 -2.92906,2.66882 -4.11454,4.9886 -0.23784,0.46542 -0.59022,0.93881 -0.78305,1.05198 -0.19284,0.11316 -0.46456,0.58941 -0.60382,1.05833 -0.13926,0.46892 -0.50145,1.53512 -0.80488,2.36935 -0.30342,0.83422 -0.62222,1.96531 -0.70845,2.51354 -0.0862,0.54822 -0.25556,1.11726 -0.37629,1.26452 -0.12073,0.14726 -0.25822,0.86164 -0.30553,1.5875 l -0.086,1.31975 1.39198,-0.0854 c 1.21825,-0.0747 1.46591,-10e-4 1.98437,0.59053 0.65504,0.74735 0.98927,0.86347 0.98927,0.3437 z m 2.38125,-1.77492 c 0,-0.14552 0.11907,-0.26459 0.26459,-0.26459 0.14552,0 0.26458,0.11907 0.26458,0.26459 0,0.14552 -0.11906,0.26458 -0.26458,0.26458 -0.14552,0 -0.26459,-0.11906 -0.26459,-0.26458 z m 16.93334,-0.0759 c 0,-0.12822 -0.47625,0.14408 -1.05834,0.60509 -0.58208,0.46102 -1.05833,1.03097 -1.05833,1.26656 0,0.29388 0.33222,0.10394 1.05833,-0.6051 0.58209,-0.56839 1.05834,-1.13834 1.05834,-1.26655 z m 1.71979,1.92801 c 0.0899,-0.14552 -0.0221,-0.26458 -0.24897,-0.26458 -0.22687,0 -0.41249,0.11906 -0.41249,0.26458 0,0.14552 0.11204,0.26458 0.24897,0.26458 0.13693,0 0.32255,-0.11906 0.41249,-0.26458 z m 16.53646,-0.7599 c 1.02531,-0.73641 1.5875,-1.33576 1.5875,-1.69244 0,-0.12899 -0.62303,0.31049 -1.38452,0.97661 -0.76148,0.66613 -1.47586,1.21115 -1.5875,1.21115 -0.11164,0 -0.20298,0.12609 -0.20298,0.2802 0,0.31112 0.23309,0.19725 1.5875,-0.77552 z m -20.13681,-0.43072 c 0.72643,-0.77505 0.97233,-1.19063 0.7045,-1.19063 -0.22629,0 -0.41144,0.10493 -0.41144,0.23318 0,0.30432 -1.8466,1.71259 -2.01925,1.53994 -0.0728,-0.0728 0.11981,-0.36738 0.42807,-0.65457 0.47644,-0.44387 0.4989,-0.54579 0.14979,-0.67976 -0.22588,-0.0867 -0.4107,-0.0423 -0.4107,0.0987 0,0.14095 -0.23812,0.49441 -0.52916,0.78545 -0.41158,0.41157 -0.44098,0.52916 -0.13229,0.52916 0.21828,0 0.39687,0.11907 0.39687,0.26459 0,0.58931 0.7696,0.1985 1.82361,-0.92604 z m 21.77024,0.35094 c 0.26578,-0.26578 0.48324,-0.53728 0.48324,-0.60335 0,-0.19791 -1.82875,1.03022 -1.84089,1.23629 -0.0174,0.29491 0.82034,-0.0956 1.35765,-0.63294 z m -10.49697,0.31051 c 0.0899,-0.14552 0.0444,-0.26458 -0.10107,-0.26458 -0.14552,0 -0.33816,0.11906 -0.4281,0.26458 -0.0899,0.14553 -0.0445,0.26459 0.10106,0.26459 0.14552,0 0.33817,-0.11906 0.42811,-0.26459 z m -22.73901,-0.63982 c 0.28224,-0.20638 0.42076,-0.46766 0.3078,-0.58061 -0.11295,-0.11296 -0.46665,0.0559 -0.78598,0.37524 -0.64723,0.64722 -0.31892,0.78822 0.47818,0.20537 z m -23.5522,-0.17153 c 0.30132,-0.48754 -0.0981,-0.59442 -0.54634,-0.14619 -0.36991,0.36991 -0.37376,0.42838 -0.0282,0.42838 0.22009,0 0.47864,-0.12699 0.57456,-0.28219 z m 1.24843,-1.40475 c 0.66109,-0.56857 2.16602,-2.5464 1.93755,-2.5464 -0.1765,0 -3.06457,2.83009 -3.06457,3.00304 0,0.32979 0.40201,0.1669 1.12702,-0.45664 z m -1.52389,-0.16515 c 0.0899,-0.14552 0.0374,-0.26458 -0.11668,-0.26458 -0.15411,0 -0.2802,0.11906 -0.2802,0.26458 0,0.14553 0.0525,0.26459 0.11668,0.26459 0.0642,0 0.19026,-0.11906 0.2802,-0.26459 z m 58.47292,-0.26458 c 0.0899,-0.14552 -0.0291,-0.26458 -0.26459,-0.26458 -0.23545,0 -0.35452,0.11906 -0.26458,0.26458 0.0899,0.14552 0.209,0.26458 0.26458,0.26458 0.0556,0 0.17465,-0.11906 0.26459,-0.26458 z m -25.9755,-0.59531 c 1.08915,-0.78203 1.80119,-1.2124 2.32759,-1.40684 0.28935,-0.10688 0.4832,-0.61814 0.59498,-1.56922 0.0912,-0.77588 0.23822,-1.59941 0.32673,-1.83008 0.0885,-0.23066 0.0291,-0.41938 -0.13195,-0.41938 -0.1611,0 -0.29218,0.20836 -0.2913,0.46302 7.9e-4,0.25466 -0.26701,1.08132 -0.59531,1.83703 -0.41645,0.9586 -0.78633,1.42244 -1.22344,1.53423 -0.84304,0.21559 -1.01071,-0.0196 -0.45319,-0.63565 0.37335,-0.41255 0.40292,-0.61626 0.15632,-1.07704 -0.37372,-0.69829 -0.69806,-0.47755 -1.84701,1.25705 -1.42631,2.15335 -0.7717,3.21706 1.13658,1.84688 z m 24.78487,-1.74828 c 0,-0.13316 -0.73684,0.42622 -1.65364,1.25538 -0.40019,0.36193 -0.72761,0.76982 -0.72761,0.90642 0,0.13661 0.53578,-0.27086 1.19063,-0.90549 0.65484,-0.63462 1.19062,-1.19997 1.19062,-1.25631 z m -55.08404,0.55765 c 0.36143,-0.32742 0.53527,-0.59531 0.38632,-0.59531 -0.14895,0 -0.41904,0.17859 -0.6002,0.39688 -0.18115,0.21828 -0.55292,0.39687 -0.82614,0.39687 -0.27323,0 -0.49677,0.10933 -0.49677,0.24294 0,0.13362 -0.0797,0.46105 -0.17716,0.72761 -0.19103,0.52261 -0.0385,0.41857 1.71395,-1.16899 z m 52.64988,0.67469 c 0.50584,-0.50585 0.36767,-0.77665 -0.21167,-0.41485 -0.53457,0.33385 -0.70734,0.73235 -0.3175,0.73235 0.11642,0 0.35454,-0.14287 0.52917,-0.3175 z m -54.67174,-0.42106 c 0.0485,-0.11517 0.53468,-0.54602 1.08038,-0.95745 0.5457,-0.41142 0.99219,-0.92423 0.99219,-1.13958 0,-0.27279 -0.26588,-0.16297 -0.87675,0.36214 -1.07603,0.92496 -1.88283,1.94428 -1.5389,1.94428 0.14018,0 0.29457,-0.0942 0.34308,-0.20939 z m 58.03194,-0.31977 c 0.0899,-0.14552 0.0445,-0.26459 -0.10106,-0.26459 -0.14552,0 -0.33817,0.11907 -0.4281,0.26459 -0.0899,0.14552 -0.0445,0.26458 0.10106,0.26458 0.14552,0 0.33817,-0.11906 0.4281,-0.26458 z m -34.81475,-1.51065 c 0.0606,-0.0423 0.0539,-0.13323 -0.015,-0.20214 -0.18433,-0.18433 -2.07958,1.15647 -2.07958,1.47121 0,0.14768 0.44649,-0.0602 0.99219,-0.46186 0.5457,-0.4017 1.0418,-0.76495 1.10243,-0.80721 z m 16.64849,0.67157 c 0.29304,-0.38438 0.26595,-0.42359 -0.20716,-0.29987 -0.6663,0.17424 -0.69436,-0.10322 -0.0813,-0.80331 0.44097,-0.50354 0.44097,-0.52068 0,-0.35987 -0.68959,0.25148 -0.56777,-0.33771 0.24529,-1.18636 0.38957,-0.40663 0.61877,-0.82887 0.50932,-0.93832 -0.10944,-0.10944 -0.31601,0.0101 -0.45905,0.2657 -0.14303,0.25558 -0.44836,0.61178 -0.67852,0.79155 -0.92067,0.7191 -2.19673,2.10137 -2.19673,2.37956 0,0.16239 0.33393,-0.0247 0.74208,-0.41571 0.76004,-0.72816 1.37458,-0.92402 1.37458,-0.43807 0,0.15009 -0.17859,0.34142 -0.39687,0.42518 -0.21828,0.0838 -0.39688,0.27136 -0.39688,0.41688 0,0.14552 0.1831,0.19432 0.40689,0.10844 0.23431,-0.0899 0.47262,0.0151 0.56186,0.24769 0.0852,0.2221 0.17394,0.36893 0.19714,0.32627 0.0232,-0.0427 0.19389,-0.27655 0.37931,-0.51976 z m 5.99634,-0.4856 c 0.21672,-0.41908 0.29502,-0.82315 0.17401,-0.89793 -0.18545,-0.11462 -1.10096,1.42402 -1.10096,1.85032 0,0.32843 0.56458,-0.25165 0.92695,-0.95239 z m 10.52404,0.4783 c 0.52489,-0.37376 0.85309,-0.47368 0.91783,-0.27945 0.11799,0.35396 0.86035,0.13504 0.86035,-0.2537 0,-0.14553 -0.1786,-0.19606 -0.39688,-0.11229 -0.47651,0.18286 -0.5201,-0.13121 -0.0794,-0.57193 0.78411,-0.78412 -0.30607,-0.18872 -1.37584,0.7514 -1.28894,1.13273 -1.24566,1.40559 0.0739,0.46597 z m -55.80535,-0.77021 c 0.70032,-0.78011 1.12384,-1.04882 1.49861,-0.95082 0.65545,0.17141 0.67273,0.0206 0.0367,-0.31978 -0.38083,-0.20382 -0.69558,-0.087 -1.457,0.54059 -0.99252,0.81812 -1.69905,1.81743 -1.28495,1.81743 0.12677,0 0.66978,-0.48934 1.20669,-1.08742 z m 20.01269,0.69055 c 0.18116,-0.21829 0.47494,-0.39688 0.65285,-0.39688 0.43013,0 1.33288,-1.01288 1.10546,-1.24031 -0.0983,-0.0983 -0.56957,0.20009 -1.04727,0.66308 -0.47769,0.463 -1.01168,0.84181 -1.18666,0.84181 -0.17497,0 -0.31813,0.11907 -0.31813,0.26459 0,0.39086 0.41729,0.32132 0.79375,-0.13229 z m -0.83182,-0.62318 c 0.53026,-0.4155 1.232,-0.89595 1.55943,-1.06764 0.32742,-0.1717 0.59531,-0.42854 0.59531,-0.57077 0,-0.27622 -2.07059,0.94158 -2.51354,1.47832 -0.14552,0.17633 -0.50271,0.45085 -0.79375,0.61004 -0.30162,0.16497 -0.37488,0.29289 -0.17037,0.29747 0.19734,0.004 0.79265,-0.33191 1.32292,-0.74742 z m 25.20379,-0.36901 c 0.17242,-0.32742 0.44106,-0.67814 0.59696,-0.77937 0.1559,-0.10122 0.19714,-0.27037 0.0916,-0.37587 -0.1055,-0.1055 -0.47618,0.0753 -0.82374,0.40184 -0.4661,0.43788 -0.66543,0.5018 -0.75963,0.24358 -0.10214,-0.27996 -0.19774,-0.28403 -0.4773,-0.0204 -0.28783,0.2715 -0.25862,0.39854 0.16536,0.71919 0.69647,0.52674 0.84176,0.50398 1.20671,-0.18903 z m -41.22226,-0.26458 c 0.0796,-0.32743 0.26557,-1.06856 0.41326,-1.64697 0.19872,-0.77822 0.18631,-1.10393 -0.0477,-1.25272 -0.21372,-0.13587 -0.16614,-0.20238 0.14674,-0.20512 0.25466,-0.002 0.46302,-0.19256 0.46302,-0.42297 0,-0.23041 -0.0893,-0.37542 -0.19844,-0.32224 -1.7385,0.84705 -1.71096,0.81528 -1.55008,1.78758 0.0854,0.51588 0.15651,1.32491 0.15811,1.79785 0.003,0.98302 0.39907,1.15324 0.61512,0.26459 z m 16.20078,-0.73567 c 1.08484,-0.73204 1.97243,-1.44641 1.97243,-1.5875 0,-0.48365 -0.52849,-0.25576 -1.55266,0.66952 -0.56376,0.50932 -1.13866,0.92604 -1.27756,0.92604 -0.1389,0 -0.53217,0.29766 -0.87395,0.66146 -0.93067,0.99066 -0.45735,0.80766 1.73174,-0.66952 z m 17.76887,-0.15869 c -0.25678,-0.25678 -1.24436,0.69077 -1.24436,1.19393 0,0.30472 0.19088,0.22512 0.71357,-0.29757 0.39247,-0.39247 0.63132,-0.79583 0.53079,-0.89636 z m 6.41166,0.13941 c 0.17511,0.28334 0.29871,0.22437 0.56094,-0.26764 0.30675,-0.57554 0.29762,-0.59911 -0.10385,-0.26794 -0.38484,0.31748 -0.44019,0.2966 -0.44019,-0.16604 0,-0.29104 0.17859,-0.67738 0.39687,-0.85854 0.21828,-0.18116 0.39509,-0.46363 0.39291,-0.62771 -0.002,-0.16408 -0.65703,0.40539 -1.45521,1.2655 -1.63084,1.75736 -2.05091,2.95766 -0.51366,1.46769 0.73182,-0.7093 0.98688,-0.82898 1.16219,-0.54532 z m -43.75989,0.2729 c 0.0954,-0.15442 0.1028,-0.35149 0.0164,-0.43793 -0.18432,-0.18432 -1.21874,0.69536 -1.21874,1.03644 0,0.27775 0.95445,-0.19735 1.20238,-0.59851 z m 34.12484,-0.44653 c -0.11555,-0.10775 -0.26323,-0.0471 -0.3282,0.13483 -0.065,0.1819 -0.30955,0.33072 -0.54351,0.33072 -0.34999,0 -0.33436,0.0676 0.0882,0.38113 0.45901,0.34062 0.5391,0.32629 0.75359,-0.13482 0.132,-0.28378 0.14547,-0.60411 0.0299,-0.71186 z m 21.69049,0.99472 c 0.0899,-0.14552 -0.0151,-0.26458 -0.23335,-0.26458 -0.21829,0 -0.47046,0.11906 -0.5604,0.26458 -0.0899,0.14552 0.0151,0.26458 0.23335,0.26458 0.21829,0 0.47046,-0.11906 0.5604,-0.26458 z m -25.00313,-0.58574 c 0.50933,-0.23405 1.1975,-0.79332 1.52928,-1.24282 0.33178,-0.4495 0.72724,-0.81727 0.8788,-0.81727 0.37762,0 1.13129,-0.78216 0.93897,-0.97448 -0.14571,-0.14571 -0.82073,0.24641 -1.77594,1.03163 -0.2273,0.18685 -0.49145,0.54808 -0.58701,0.80274 -0.0956,0.25466 -0.37065,0.46302 -0.61131,0.46302 -0.51897,0 -0.32737,-0.27442 1.32297,-1.89486 0.56886,-0.55855 0.92604,-1.01498 0.79375,-1.01429 -0.52509,0.003 -4.15244,3.80386 -3.88511,4.07119 0.0946,0.0946 0.23888,0.13338 0.32073,0.0863 0.0819,-0.0471 0.56555,-0.27711 1.07487,-0.51116 z m 10.18646,0.32116 c 0.0899,-0.14552 -0.0151,-0.26459 -0.23335,-0.26459 -0.21828,0 -0.47046,0.11907 -0.5604,0.26459 -0.0899,0.14552 0.0151,0.26458 0.23336,0.26458 0.21828,0 0.47046,-0.11906 0.56039,-0.26458 z m -5.15937,-0.66146 c 0,-0.21828 0.15668,-0.39688 0.34819,-0.39688 0.30613,0 2.03306,-1.71514 2.03306,-2.01918 0,-0.23634 -0.96607,0.41158 -1.68371,1.12922 -0.90908,0.90908 -1.35601,1.68371 -0.97143,1.68371 0.15064,0 0.27389,-0.17859 0.27389,-0.39687 z m -7.54063,-2.63681 c 1.16417,-1.1907 2.32503,-2.24164 2.57969,-2.33543 0.43304,-0.15949 0.66364,-0.7163 0.29665,-0.7163 -0.16509,0 -1.8523,1.39894 -2.88564,2.39261 -0.29616,0.28479 -0.80218,0.5178 -1.12448,0.5178 -0.32231,0 -0.58601,0.11907 -0.58601,0.26459 0,0.14552 -0.13945,0.26458 -0.30989,0.26458 -0.59134,0 -1.27761,0.87976 -1.27761,1.63782 0,0.70615 0.0437,0.73921 0.59531,0.45064 0.32743,-0.17128 1.54782,-1.28562 2.71198,-2.47631 z m 10.35692,1.51233 c 0.41557,-0.40018 0.93418,-0.96573 1.15246,-1.25677 0.37728,-0.50305 0.37075,-0.51001 -0.13229,-0.14102 -0.97684,0.71653 -2.34001,2.12539 -2.05646,2.12539 0.15439,0 0.62072,-0.32742 1.03629,-0.7276 z m 3.11037,-0.2249 c 1.04585,-1.04584 1.11053,-1.16644 0.62178,-1.15939 -0.18191,0.003 -0.72441,0.47887 -1.20557,1.05833 -1.09073,1.31357 -0.69689,1.38175 0.58379,0.10106 z m -40.05791,0.098 c 0,-0.15486 -0.16812,-0.12915 -0.39688,0.0607 -0.21828,0.18116 -0.39687,0.3706 -0.39687,0.42097 0,0.0504 0.17859,0.0231 0.39687,-0.0607 0.21828,-0.0838 0.39688,-0.2732 0.39688,-0.42097 z m 29.38609,-0.92437 c 0.88706,-0.83283 1.48796,-1.55587 1.33534,-1.60674 -0.37976,-0.12659 -2.41102,1.53703 -2.41102,1.97464 0,0.19392 -0.17859,0.35259 -0.39687,0.35259 -0.21828,0 -0.39688,0.17859 -0.39688,0.39688 0,0.21828 0.0577,0.39687 0.1283,0.39687 0.0706,0 0.85407,-0.68141 1.74113,-1.51424 z m -10.95142,0.33097 c 0.52027,-0.50528 1.16922,-0.98956 1.4421,-1.07617 0.45166,-0.14335 0.71482,-0.65098 0.33747,-0.65098 -0.53222,0 -3.00249,1.79211 -3.00882,2.18282 -0.0105,0.64978 0.15368,0.58891 1.22925,-0.45567 z m 9.07131,-0.12917 c 1.63453,-1.60216 1.31178,-1.75429 -0.47946,-0.22599 -0.72225,0.61622 -1.08939,1.27385 -0.71117,1.27385 0.0669,0 0.60266,-0.47154 1.19063,-1.04786 z m 6.0961,-0.10072 c 0,-1.09843 -1.53191,-4.93778 -1.96915,-4.93517 -0.26529,0.002 -1.20585,1.4177 -1.20585,1.81555 0,0.10276 0.24764,0.20549 0.55031,0.22829 0.30267,0.0228 0.71692,0.17973 0.92055,0.34873 0.51331,0.42601 1.19709,1.85384 1.02282,2.13581 -0.17655,0.28567 0.0936,0.76162 0.43235,0.76162 0.13694,0 0.24897,-0.15967 0.24897,-0.35483 z m 5.96401,0.0726 c 0.28476,-0.46075 -0.0396,-0.55833 -0.40245,-0.12108 -0.20869,0.25146 -0.22876,0.40327 -0.0533,0.40327 0.15475,0 0.35984,-0.12699 0.45577,-0.28219 z m 2.10578,0.0176 c 0.0899,-0.14552 0.0445,-0.26458 -0.10106,-0.26458 -0.14552,0 -0.33817,0.11906 -0.4281,0.26458 -0.0899,0.14553 -0.0445,0.26459 0.10106,0.26459 0.14552,0 0.33817,-0.11906 0.4281,-0.26459 z m -5.41262,-1.22683 c 0.72137,-0.67475 1.31158,-1.32254 1.31158,-1.43951 0,-0.37507 -1.39061,0.49426 -2.01902,1.26218 -0.57961,0.70829 -0.60822,0.71571 -0.6173,0.1601 -0.007,-0.3984 0.36692,-0.84159 1.18111,-1.40177 1.44327,-0.99299 1.57411,-1.32979 0.19844,-0.51081 -1.70306,1.0139 -2.06701,1.54168 -1.9487,2.82592 0.0545,0.59155 0.55832,0.35316 1.89389,-0.89611 z m 4.48658,-0.0961 c 0,-0.14552 -0.11906,-0.26459 -0.26458,-0.26459 -0.14552,0 -0.26459,0.11907 -0.26459,0.26459 0,0.14552 0.11907,0.26458 0.26459,0.26458 0.14552,0 0.26458,-0.11906 0.26458,-0.26458 z m -11.64167,-3.65274 c 0,-0.22232 -0.0783,-0.32587 -0.17409,-0.23011 -0.0957,0.0957 -0.32823,0.0462 -0.51663,-0.11019 -0.25343,-0.21033 -0.49642,-0.14091 -0.93413,0.26688 -0.32537,0.30314 -0.45711,0.55116 -0.29273,0.55116 0.16437,0 0.37244,-0.11907 0.46238,-0.26459 0.20885,-0.33792 0.66145,-0.34417 0.66145,-0.009 0,0.4101 -1.47251,1.80039 -2.01617,1.9036 -0.31351,0.0595 -0.52809,0.36018 -0.58047,0.81336 -0.0772,0.66806 0.0398,0.60443 1.65365,-0.89893 0.95521,-0.88982 1.73674,-1.79975 1.73674,-2.02206 z m 0.34005,3.12816 c 0.11729,-0.4485 0.0631,-0.48495 -0.37343,-0.25131 -0.28083,0.1503 -0.44071,0.38636 -0.35529,0.52458 0.25377,0.41059 0.58208,0.28748 0.72872,-0.27327 z m -9.45301,-0.37983 c 0.28224,-0.20638 0.45205,-0.43637 0.37735,-0.51107 -0.0747,-0.0747 -0.43171,0.0915 -0.79334,0.36936 -0.75315,0.57867 -0.36324,0.7115 0.41599,0.14171 z m -0.6637,-0.74924 c 0.85963,-0.47294 1.62137,-1.00872 1.69276,-1.19062 0.20352,-0.51858 -0.27237,-0.38924 -1.09007,0.29626 -0.41134,0.34484 -1.16462,0.88018 -1.67394,1.18963 -1.44121,0.87566 -0.67136,0.66346 1.07125,-0.29527 z m 15.42018,-0.35266 c -0.0868,-0.22625 0.11139,-0.68459 0.45357,-1.04882 0.33428,-0.35582 0.53585,-0.71888 0.44795,-0.80678 -0.25123,-0.25123 -0.69303,0.12373 -1.12108,0.95151 -0.38807,0.75043 -0.28892,1.71552 0.14846,1.4452 0.12392,-0.0766 0.15591,-0.32009 0.0711,-0.54111 z m 4.55512,-1.73858 c 0.41351,-1.96093 0.27489,-2.8697 -0.43774,-2.8697 -0.55341,0 -0.6635,0.5249 -0.20603,0.98237 0.30869,0.30868 0.11261,0.86972 -0.30396,0.86972 -0.13358,0 -0.43141,-0.28775 -0.66184,-0.63943 -0.61553,-0.93942 -0.0575,-1.74182 1.21125,-1.74182 1.61259,0 1.9658,0.94749 1.18169,3.16991 -0.38673,1.0961 -0.3272,1.74317 0.13413,1.45805 0.12741,-0.0787 0.64741,-0.95899 1.15557,-1.9561 l 0.92392,-1.81293 -1.63688,-1.29856 c -1.60114,-1.27021 -2.86492,-1.86859 -4.48614,-2.12409 -0.44358,-0.0699 -1.11505,-0.25701 -1.49216,-0.41577 -0.37711,-0.15877 -2.06596,-0.357 -3.753,-0.44053 -2.83273,-0.14024 -3.05804,-0.11644 -2.9457,0.31116 0.0669,0.25466 0.33885,0.46302 0.60433,0.46302 0.26548,0 0.5545,0.11618 0.64226,0.25818 0.36909,0.59722 3.02637,2.12307 3.69731,2.12307 0.4005,0 1.08192,0.29766 1.51427,0.66146 0.43236,0.3638 1.02212,0.66146 1.31058,0.66146 0.28847,0 0.45895,0.10604 0.37885,0.23564 -0.0801,0.12961 0.14478,0.42593 0.49974,0.65851 0.66651,0.43671 1.28945,1.57937 1.58886,2.91443 0.24747,1.10345 0.65524,0.54952 1.08069,-1.46805 z m 0.51699,1.8928 c 0.0899,-0.14552 0.0374,-0.26458 -0.11668,-0.26458 -0.15411,0 -0.2802,0.11906 -0.2802,0.26458 0,0.14553 0.0525,0.26459 0.11668,0.26459 0.0642,0 0.19026,-0.11906 0.2802,-0.26459 z m -3.7178,-0.62565 c 0.83332,-0.77229 0.86116,-1.05557 0.0798,-0.81172 -0.64204,0.20036 -0.9817,0.58075 -0.98814,1.10665 -0.006,0.4651 0.13896,0.41813 0.90836,-0.29493 z m -16.84471,-0.30039 c 0.62666,-0.58107 1.09321,-0.77644 1.67944,-0.70329 0.26149,0.0326 1.12526,-1.00312 0.96784,-1.16055 -0.15595,-0.15594 -3.25156,1.8328 -3.5141,2.25761 -0.29642,0.47961 0.1375,0.2825 0.86682,-0.39377 z m 6.39379,-0.7854 c 0.57867,-0.35764 1.57563,-2.74769 1.69867,-4.07231 0.0695,-0.748 0.0405,-1.36 -0.0645,-1.36 -0.10494,0 -0.63462,0.69665 -1.17705,1.5481 -0.54244,0.85145 -1.28088,1.68233 -1.64098,1.84641 -0.81389,0.37083 -0.81919,0.5921 -0.0319,1.33175 0.43331,0.40708 0.59263,0.8036 0.52351,1.30289 -0.0899,0.64929 -0.0754,0.66354 0.15233,0.14949 0.13843,-0.31253 0.38137,-0.64838 0.53985,-0.74633 z m 8.84137,-0.42443 c 0.89965,-0.70766 0.87908,-0.95712 -0.0966,-1.17142 -0.43656,-0.0959 -0.79375,-0.28394 -0.79375,-0.4179 0,-0.13395 -0.16401,-0.24356 -0.36448,-0.24356 -0.20046,0 -0.51269,-0.17859 -0.69385,-0.39687 -0.64991,-0.78309 -0.76523,-0.3742 -0.24002,0.85105 0.56705,1.32287 0.97309,1.92707 1.29507,1.92707 0.10807,0 0.51022,-0.24676 0.89364,-0.54837 z m -14.30498,-0.31152 c 1.19418,-0.64046 1.63959,-1.07339 1.24445,-1.20963 -0.24123,-0.0832 -2.6465,1.44856 -2.6465,1.68536 0,0.22011 0.28475,0.12349 1.40205,-0.47573 z m -18.94329,-0.51493 c 0.88125,-0.85414 1.08402,-1.27101 0.61822,-1.27101 -0.29578,0 -1.26259,0.98159 -1.62875,1.65365 -0.38996,0.71576 0.0486,0.54969 1.01053,-0.38264 z m 29.54203,0.35821 c 0.41401,-0.45748 0.40189,-0.54528 -0.19708,-1.42793 -0.35103,-0.51726 -0.71349,-1.1776 -0.80547,-1.46742 -0.18986,-0.59818 -1.44153,-2.02877 -1.61941,-1.85089 -0.155,0.155 0.57983,2.28862 1.22202,3.54825 0.28141,0.55197 0.51165,1.15699 0.51165,1.34451 0,0.48383 0.3736,0.42221 0.88829,-0.14652 z m -28.17827,-0.0127 c 0.21806,-0.13817 0.25579,-0.29123 0.0961,-0.38991 -0.14457,-0.0893 -0.40999,0.0148 -0.58981,0.23151 -0.35703,0.43019 -0.077,0.52003 0.49368,0.1584 z m 53.36345,-1.31411 c 0.40163,-0.31592 0.66653,-0.63811 0.58866,-0.71598 -0.0779,-0.0779 -0.68408,0.32795 -1.34714,0.90182 -0.66306,0.57387 -1.1329,1.11605 -1.04411,1.20485 0.0888,0.0888 0.36641,-0.0585 0.6169,-0.32742 0.2505,-0.26887 0.78406,-0.74735 1.18569,-1.06327 z m 0.91404,1.03941 c 0,-0.13513 0.18709,-0.43279 0.41577,-0.66146 0.68914,-0.68914 -0.0688,-0.46682 -0.83765,0.24568 -0.681,0.63113 -0.68769,0.66146 -0.14593,0.66146 0.31229,0 0.56781,-0.11056 0.56781,-0.24568 z m -28.66631,-0.69177 c 0.21427,-0.55836 -0.14336,-0.85982 -0.4482,-0.3778 -0.3239,0.51216 -0.31741,0.78608 0.0186,0.78608 0.15009,0 0.34339,-0.18372 0.42956,-0.40828 z m -27.41112,-0.82208 c 0.926,-0.98081 0.60959,-0.9855 -0.47726,-0.007 -0.50961,0.45876 -0.78171,0.97285 -0.51493,0.97285 0.0442,0 0.4907,-0.4346 0.99219,-0.96578 z m 53.46843,0.44542 c 0.34354,-0.2862 0.48898,-0.52433 0.3232,-0.52917 -0.16578,-0.005 -0.58249,0.22536 -0.92604,0.51156 -0.34354,0.2862 -0.48898,0.52433 -0.3232,0.52917 0.16577,0.005 0.58249,-0.22536 0.92604,-0.51156 z m -54.79832,-0.46369 c 0.86133,-0.59892 1.56047,-1.44074 1.57143,-1.89212 0.005,-0.19945 -0.46732,0.12797 -1.04924,0.7276 -0.58192,0.59963 -1.17723,1.09024 -1.32292,1.09024 -0.14568,0 -0.26487,0.11906 -0.26487,0.26458 0,0.38389 0.32272,0.32626 1.0656,-0.1903 z m 4.81566,0.30626 c 0.0817,-0.0817 -0.12324,-0.44196 -0.45552,-0.80049 -1.02637,-1.10747 -0.99593,-1.86743 0.12186,-3.04248 0.82179,-0.86387 1.15857,-1.03549 2.03208,-1.03549 1.01699,0 1.06072,0.0381 1.52399,1.32637 0.27035,0.75182 0.40619,1.60836 0.31358,1.97733 -0.12796,0.50982 -0.0766,0.61766 0.23677,0.4974 0.22008,-0.0844 0.40014,-0.28661 0.40014,-0.44925 0,-0.16263 0.4266,-0.67522 0.94799,-1.13908 0.93715,-0.83374 0.94582,-0.86066 0.75891,-2.35666 -0.26523,-2.12283 -0.7179,-2.51276 -2.53623,-2.18466 -0.78079,0.14089 -1.59822,0.41092 -1.8165,0.60007 -0.21828,0.18915 -0.91184,0.60289 -1.54124,0.91943 -2.08051,1.04631 -2.70063,3.90505 -1.13476,5.23131 0.73527,0.62276 0.91214,0.69299 1.14893,0.4562 z m 16.19587,-0.25667 c 0.28247,-0.21365 0.84802,-0.38846 1.25677,-0.38846 0.40875,0 0.74318,-0.12689 0.74318,-0.28197 0,-0.52666 -0.55452,-1.32109 -0.81134,-1.16236 -0.14059,0.0869 -0.17506,0.29858 -0.0766,0.47043 0.0985,0.17184 0.0821,0.22473 -0.0363,0.11751 -0.16641,-0.15066 -1.40565,0.41933 -2.21114,1.01703 -0.14118,0.10476 0.23092,0.63428 0.43899,0.6247 0.10055,-0.005 0.41394,-0.18322 0.69641,-0.39688 z m 32.2675,-0.41358 c 0.86504,-1.4644 0.16982,-3.85345 -1.31754,-4.52761 l -0.90417,-0.40982 v 1.38987 c 0,0.76443 -0.0784,1.78192 -0.17425,2.2611 -0.14529,0.72647 -0.10454,0.84448 0.24524,0.71026 0.42867,-0.1645 1.10946,0.39101 0.82626,0.67421 -0.22373,0.22373 0.13249,0.72086 0.51652,0.72086 0.17832,0 0.54189,-0.36849 0.80794,-0.81887 z m -45.88508,-1.36394 c 0.004,-0.10914 -0.10019,-0.19844 -0.23134,-0.19844 -0.23838,0 -1.35537,1.7194 -1.34193,2.06565 0.009,0.23853 1.56392,-1.60659 1.57327,-1.86721 z m 50.80712,0.80954 c 0,-0.34776 -0.60134,-0.13 -0.73318,0.26551 -0.0645,0.19335 0.0565,0.25248 0.31419,0.15359 0.23044,-0.0884 0.41899,-0.27702 0.41899,-0.4191 z m -58.73751,-0.0242 c 0.70658,-0.57383 2.38125,-2.56528 2.38125,-2.83167 0,-0.14237 -0.71194,0.30445 -1.58209,0.99295 -0.87015,0.6885 -1.58453,1.46018 -1.5875,1.71484 -0.006,0.53844 0.23181,0.57585 0.78834,0.12388 z m 26.50292,-0.97706 c 0.75897,-0.72391 1.307,-1.38916 1.21782,-1.47834 -0.1303,-0.1303 -3.51565,0.83582 -3.87099,1.10472 -0.21227,0.16064 0.64485,1.68982 0.94715,1.68982 0.17933,0 0.94704,-0.59229 1.70602,-1.3162 z m 30.83393,-0.13901 c 1.35932,-1.04968 1.66886,-1.45521 1.11077,-1.45521 -0.47803,0 -1.76627,1.02396 -2.38963,1.8994 -0.71185,0.99969 -0.49208,0.92336 1.27886,-0.44419 z m -50.72226,0.66146 c 0,-0.14552 -0.0525,-0.26458 -0.11668,-0.26458 -0.0642,0 -0.19026,0.11906 -0.2802,0.26458 -0.0899,0.14552 -0.0374,0.26458 0.11668,0.26458 0.15411,0 0.2802,-0.11906 0.2802,-0.26458 z m 51.55985,0.0266 c 0.19964,-0.12646 0.31566,-0.3719 0.25782,-0.54542 -0.0679,-0.20382 -0.28117,-0.121 -0.60242,0.23399 -0.50524,0.55828 -0.31562,0.72965 0.3446,0.31143 z m -57.26569,-2.32584 c 0.0774,-0.20169 -0.27401,-0.0504 -0.78089,0.33624 -0.50688,0.38662 -0.92161,0.81144 -0.92161,0.94404 0,0.32726 1.52598,-0.82028 1.7025,-1.28028 z m 56.16328,0.30238 c 1.09722,-1.09722 1.16276,-1.2327 0.74436,-1.53865 -0.42325,-0.30948 -0.39508,-0.39921 0.36345,-1.15773 0.77816,-0.77817 1.05552,-1.39213 0.62888,-1.39213 -0.21987,0 -2.4709,2.3635 -2.29944,2.41433 0.0614,0.0182 0.23062,0.048 0.37614,0.0661 0.45153,0.0564 0.27651,0.52646 -0.53904,1.44764 -0.73549,0.83075 -0.98193,1.36356 -0.63069,1.36356 0.0842,0 0.6946,-0.54142 1.35634,-1.20316 z m -50.85432,0.40941 c 0.0899,-0.14552 0.0374,-0.26458 -0.11667,-0.26458 -0.15411,0 -0.2802,0.11906 -0.2802,0.26458 0,0.14552 0.0525,0.26458 0.11667,0.26458 0.0642,0 0.19027,-0.11906 0.2802,-0.26458 z m 42.77326,-1.05531 c 0.24196,-0.25327 0.8866,-0.73654 1.43254,-1.07395 l 0.99261,-0.61347 -1.69712,-0.47968 c -2.58215,-0.72984 -2.58536,-0.72857 -2.58536,1.0293 0,0.83108 0.061,1.60983 0.13566,1.73055 0.18902,0.30584 1.19363,-0.04 1.72167,-0.59275 z m 6.96841,-0.26761 c 0.26339,-0.29104 0.36783,-0.52916 0.2321,-0.52916 -0.13573,0 -0.45068,0.23812 -0.69987,0.52916 -0.2492,0.29105 -0.35365,0.52917 -0.23211,0.52917 0.12155,0 0.43649,-0.23812 0.69988,-0.52917 z m -43.14828,-0.56346 c -0.20873,-0.33773 -0.64026,-0.0148 -0.64026,0.47918 0,0.33634 0.0736,0.35255 0.39396,0.0867 0.21668,-0.17983 0.32751,-0.43447 0.2463,-0.56588 z m 33.68943,0.18758 c 0,-0.43472 -0.11687,-0.59561 -0.36381,-0.50086 -0.38373,0.14726 -0.48479,0.66756 -0.18741,0.96494 0.34338,0.34338 0.55122,0.16841 0.55122,-0.46408 z m -43.45724,-1.43152 c -0.17564,-0.17565 -1.1912,0.76282 -1.1912,1.10078 0,0.14833 0.29718,-0.009 0.66041,-0.35073 0.36323,-0.34123 0.60209,-0.67876 0.53079,-0.75005 z m 53.81788,-0.34858 c 1.71507,-1.7311 1.77445,-1.81277 1.31814,-1.81277 -0.26097,0 -3.41055,3.08205 -3.41055,3.33743 0,0.39002 0.70289,-0.12215 2.09241,-1.52466 z m -11.30752,0.92435 c 0.26612,-0.24083 0.48386,-0.61541 0.48386,-0.83238 0,-0.26449 -0.218,-0.15929 -0.66146,0.31922 -0.36381,0.39255 -0.66146,0.76712 -0.66146,0.83238 0,0.24524 0.37153,0.10389 0.83906,-0.31922 z m -41.97247,-2.41914 c -0.2101,-0.2101 -1.21469,0.53044 -1.85063,1.3642 -1.05382,1.38163 -0.79226,1.38101 0.63734,-0.002 0.72025,-0.69653 1.26623,-1.30974 1.21329,-1.36269 z m 51.20497,2.05396 c 0.28147,-0.15064 0.51177,-0.38876 0.51177,-0.52916 0,-0.45203 -0.65616,-0.27176 -0.99693,0.27389 -0.37164,0.59509 -0.25978,0.65395 0.48516,0.25527 z m -9.67469,-0.68694 0.79375,-0.67722 -0.7276,0.12088 c -0.71639,0.11902 -0.98044,-0.14742 -0.46302,-0.4672 0.14552,-0.0899 0.26458,-0.29631 0.26458,-0.45861 0,-0.1623 -0.29893,-0.0143 -0.66429,0.32898 -0.40104,0.37676 -0.55476,0.69176 -0.38791,0.79488 0.152,0.0939 0.20007,0.36965 0.10681,0.61268 -0.24022,0.62601 0.1552,0.53267 1.07768,-0.25439 z m -43.54774,-0.98085 c 0.34901,-0.43365 0.31923,-0.43291 -0.46135,0.0114 -0.45894,0.26127 -0.83519,0.68339 -0.83611,0.93805 -0.002,0.43658 0.0248,0.43593 0.46135,-0.0115 0.25466,-0.26095 0.63091,-0.68308 0.83611,-0.93804 z m 52.1467,1.09777 c 0,-0.17311 0.61942,-0.88719 1.37649,-1.58684 1.08865,-1.00609 1.30849,-1.3401 1.05131,-1.59728 -0.25717,-0.25717 -0.65567,0.0243 -1.90565,1.34608 -1.70135,1.79906 -1.87409,2.15279 -1.05131,2.15279 0.29104,0 0.52916,-0.14163 0.52916,-0.31475 z m -49.2125,-1.35127 c 0,-0.3551 -0.76709,0.32489 -1.10869,0.9828 -0.25525,0.49161 -0.21096,0.48187 0.41132,-0.0905 0.38356,-0.35279 0.69737,-0.75432 0.69737,-0.8923 z m 8.73125,0.78432 c 0.27886,-0.11755 0.24604,-0.14902 -0.11037,-0.10582 -0.27898,0.0338 -0.55593,0.24007 -0.61545,0.45835 -0.0696,0.25527 -0.0302,0.29303 0.11037,0.10582 0.12021,-0.16008 0.39717,-0.36634 0.61545,-0.45835 z m 42.8625,-0.47245 c 0,-0.14552 -0.11906,-0.19099 -0.26458,-0.10106 -0.14552,0.0899 -0.26458,0.28259 -0.26458,0.42811 0,0.14552 0.11906,0.191 0.26458,0.10106 0.14552,-0.0899 0.26458,-0.28259 0.26458,-0.42811 z m -48.65368,-1.49012 c 0.4439,-0.47294 0.90113,-0.8599 1.01607,-0.8599 0.11494,0 0.49222,-0.4159 0.8384,-0.92423 0.34618,-0.50833 0.77825,-0.92505 0.96015,-0.92604 0.1819,-10e-4 0.33073,-0.12087 0.33073,-0.26639 0,-0.14552 -0.23813,-0.26459 -0.52917,-0.26459 -0.29104,0 -0.52917,0.10836 -0.52917,0.2408 0,0.20832 -1.71361,2.13874 -3.44044,3.87572 -0.2978,0.29955 -0.45247,0.63363 -0.34371,0.74239 0.10877,0.10876 0.35352,-0.0173 0.5439,-0.28006 0.19038,-0.26279 0.70934,-0.86476 1.15324,-1.3377 z m 6.70047,-0.25018 c 0.0888,-0.23148 0.12853,-0.45384 0.0882,-0.49414 -0.13847,-0.13847 -2.05585,1.74372 -2.05585,2.01812 0,0.37177 1.76462,-0.99498 1.96762,-1.52398 z m 36.51989,-0.57498 c -0.19521,-0.19521 -2.23996,1.86728 -2.09069,2.10882 0.0699,0.11301 0.59867,-0.2854 1.17516,-0.88536 0.57649,-0.59995 0.98848,-1.15051 0.91553,-1.22346 z m 1.19233,2.09227 c 0.21406,-0.13539 0.30053,-0.33483 0.19213,-0.44323 -0.10839,-0.10839 -0.39834,0.004 -0.64434,0.2502 -0.47821,0.47821 -0.19194,0.6004 0.45221,0.19303 z m -42.77181,-0.87725 c 0.26395,-0.30599 0.7402,-0.68557 1.05833,-0.84353 0.57372,-0.28484 0.97586,-1.46456 0.49925,-1.46456 -0.24942,0 -3.22811,2.84517 -3.22811,3.0834 0,0.30388 1.23339,-0.26855 1.67053,-0.77531 z m 35.29239,0.0213 c 0.85416,-0.82789 1.13433,-1.5356 0.60791,-1.5356 -0.14552,0 -0.26458,-0.18329 -0.26458,-0.40731 0,-0.33509 -0.0655,-0.34682 -0.36936,-0.0661 -0.31574,0.29162 -0.31381,0.36155 0.0133,0.48157 0.30013,0.11013 0.20826,0.38113 -0.42605,1.25677 -0.96123,1.32694 -0.77163,1.44391 0.43881,0.27071 z m -41.30271,-0.14275 c -0.15684,-0.15684 -0.95188,0.25225 -0.95188,0.48978 0,0.13119 0.23271,0.0932 0.51713,-0.0844 0.28443,-0.17763 0.48006,-0.36003 0.43475,-0.40535 z m 7.77937,0.29455 c 0,-0.35158 -0.0718,-0.36966 -0.39687,-0.0999 -0.21829,0.18116 -0.39688,0.37433 -0.39688,0.42927 0,0.0549 0.17859,0.0999 0.39688,0.0999 0.21828,0 0.39687,-0.19318 0.39687,-0.42927 z m 46.96466,-0.5951 c 0.23184,-0.60416 -0.0888,-0.68552 -0.66095,-0.16773 -0.7281,0.65893 -0.73325,1.32302 -0.007,0.8693 0.28823,-0.18 0.58869,-0.49571 0.66768,-0.70157 z m -55.69591,-0.0433 c 0,-0.35041 -0.35829,-0.32031 -0.74083,0.0622 -0.49943,0.49942 -0.37111,0.78814 0.21166,0.47625 0.29105,-0.15576 0.52917,-0.39807 0.52917,-0.53848 z m 3.30729,0.53848 c 0.0899,-0.14552 0.0374,-0.26458 -0.11667,-0.26458 -0.15411,0 -0.2802,0.11906 -0.2802,0.26458 0,0.14552 0.0525,0.26458 0.11667,0.26458 0.0642,0 0.19027,-0.11906 0.2802,-0.26458 z m 46.82174,-1.19288 c 1.21183,-1.12779 1.49475,-1.52876 1.2508,-1.7727 -0.24394,-0.24395 -0.31524,-0.23595 -0.31524,0.0354 0,0.19283 -0.59532,0.89065 -1.32292,1.5507 -1.10502,1.00243 -1.59319,1.6441 -1.25081,1.6441 0.0397,0 0.77684,-0.65585 1.63817,-1.45746 z m -47.37496,0.53142 c 0.72317,-0.72317 0.59119,-0.87346 -0.22495,-0.25617 -0.72777,0.55046 -1.00694,0.48192 -0.79225,-0.19451 0.17637,-0.55571 0.16332,-0.56127 -0.27903,-0.11891 -0.44235,0.44235 -0.44089,0.4816 0.0312,0.83914 0.62386,0.47245 0.49569,0.49976 1.26499,-0.26955 z m 7.66687,-0.13229 c 0.18039,0 0.65336,-0.33963 1.05106,-0.75474 0.49242,-0.51397 0.91215,-0.7186 1.31572,-0.64145 0.45983,0.0879 0.59264,-0.01 0.59264,-0.43589 0,-0.30204 -0.0382,-0.54917 -0.0849,-0.54917 -0.13281,0 -1.50609,0.89476 -1.65378,1.07752 -0.0728,0.09 -0.48948,0.33203 -0.92604,0.53776 -0.53811,0.25358 -0.80949,0.58629 -0.84261,1.03303 -0.0284,0.38246 0.008,0.46469 0.0856,0.19596 0.0739,-0.25466 0.28199,-0.46302 0.46237,-0.46302 z m 46.46448,0.52917 c 0,-0.14552 -0.0525,-0.26459 -0.11668,-0.26459 -0.0642,0 -0.19026,0.11907 -0.2802,0.26459 -0.0899,0.14552 -0.0374,0.26458 0.11668,0.26458 0.15411,0 0.2802,-0.11906 0.2802,-0.26458 z m -31.16721,-0.22585 c -0.55766,-0.35374 0.36085,-0.92806 1.58413,-0.99052 0.58386,-0.0298 1.19836,-0.19758 1.36555,-0.37283 0.23562,-0.24698 0.10316,-0.27625 -0.58901,-0.13018 -0.62522,0.13195 -0.83872,0.10064 -0.71199,-0.10441 0.0996,-0.16109 0.35258,-0.29288 0.56227,-0.29288 0.20969,0 0.38126,-0.0992 0.38126,-0.22049 0,-0.5822 -0.42743,-0.47525 -1.45029,0.36291 -0.61476,0.50375 -1.25432,0.91591 -1.42123,0.91591 -0.3283,0 -0.41404,0.595 -0.12709,0.88195 0.097,0.097 0.30537,0.17456 0.46302,0.17234 0.16155,-0.002 0.13684,-0.0991 -0.0566,-0.2218 z m 15.56144,-0.82953 c -0.32671,-0.20199 -0.26364,-0.37672 0.37758,-1.04601 1.12621,-1.1755 0.65839,-1.26756 -0.50901,-0.10017 -0.5451,0.5451 -0.85863,1.03524 -0.69673,1.0892 0.16189,0.054 0.29434,0.35184 0.29434,0.66194 0,0.53701 0.022,0.54179 0.46303,0.10067 0.40162,-0.40173 0.41101,-0.49529 0.0708,-0.70563 z m 6.54115,-0.36385 c 0.3442,-0.27125 0.56504,-0.55397 0.49074,-0.62826 -0.21887,-0.21887 -1.74561,1.34763 -1.73683,1.78204 0.006,0.28223 0.0969,0.24406 0.31417,-0.13143 0.16836,-0.29104 0.58773,-0.7511 0.93192,-1.02235 z m 3.32228,0.74945 c 0.26146,-0.35922 0.3899,-0.65314 0.28542,-0.65314 -0.27631,0 -1.15766,0.83696 -1.15766,1.09934 0,0.41318 0.39314,0.21207 0.87224,-0.4462 z m -24.99007,-1.43113 c 0.77796,-0.70205 1.73046,-1.4386 2.11667,-1.63677 0.38621,-0.19817 1.16655,-0.68842 1.73408,-1.08944 0.56754,-0.40102 1.25215,-0.72913 1.52136,-0.72913 0.2692,0 0.48946,-0.10087 0.48946,-0.22415 0,-0.12329 0.2679,-0.34882 0.59532,-0.50119 0.54774,-0.2549 0.55679,-0.29268 0.11319,-0.47294 -0.31284,-0.12713 -0.73088,-0.012 -1.19063,0.3279 -0.38967,0.28809 -1.06569,0.71388 -1.50225,0.9462 -0.43656,0.23231 -1.15094,0.72467 -1.5875,1.09412 -0.43656,0.36946 -0.93755,0.79315 -1.11331,0.94153 -0.17576,0.14838 -0.44365,0.26978 -0.59531,0.26978 -0.15167,0 -0.27576,0.11814 -0.27576,0.26255 0,0.1444 -0.59317,0.65041 -1.31816,1.12448 -0.72499,0.47406 -1.3203,0.94008 -1.32291,1.03559 -0.0117,0.42859 1.03822,-0.1776 2.33575,-1.34853 z m -25.09863,0.7902 c 0.36163,-0.27785 0.5951,-0.56759 0.51883,-0.64386 -0.0763,-0.0763 -0.49122,0.14942 -0.92209,0.50155 -0.92184,0.75336 -0.55878,0.88149 0.40326,0.14231 z m 14.2198,0.3571 c -0.0879,-0.0879 -0.31613,-0.0973 -0.50712,-0.0209 -0.21107,0.0845 -0.14837,0.14715 0.15985,0.15985 0.27892,0.0115 0.43518,-0.051 0.34727,-0.13897 z m 10.39798,-2.22139 c 0.12594,0 1.0155,-0.59532 1.9768,-1.32292 0.9613,-0.7276 1.86057,-1.32292 1.99839,-1.32292 0.13781,0 0.25057,-0.11104 0.25057,-0.24675 0,-0.13571 0.23812,-0.32233 0.52916,-0.4147 0.54165,-0.17192 0.73917,-0.66146 0.26688,-0.66146 -0.27797,0 -2.31517,1.43421 -3.46828,2.4417 -0.37833,0.33055 -1.23115,0.87993 -1.89515,1.22084 -1.37769,0.70733 -2.44392,1.73044 -2.20545,2.11628 0.089,0.14395 0.64694,-0.20442 1.23993,-0.77417 0.59299,-0.56975 1.18121,-1.0359 1.30715,-1.0359 z m 12.15765,1.72269 c 0.6804,-0.35185 1.28761,-1.32264 1.00442,-1.60583 -0.0593,-0.0593 -0.60137,0.36638 -1.20457,0.94598 -1.14867,1.10375 -1.08218,1.32297 0.20015,0.65985 z m 15.84835,-0.28727 c 0.89306,-1.02711 0.55414,-1.16008 -0.45535,-0.17865 -0.51394,0.49966 -0.72791,0.85989 -0.51073,0.85989 0.20556,0 0.64029,-0.30656 0.96608,-0.68124 z m -52.04394,-1.56628 c 1.04462,-1.09138 1.22463,-1.45664 0.71787,-1.45664 -0.452,0 -2.52734,2.21068 -2.75198,2.93146 l -0.1996,0.64041 0.61104,-0.52916 c 0.33608,-0.29105 1.06628,-1.00477 1.62267,-1.58607 z m 4.77897,0.26315 c 0.16004,-0.30335 -0.1314,-0.13398 -0.68294,0.39687 -0.52916,0.50933 -0.96338,1.0361 -0.96493,1.1706 -0.004,0.33207 1.30003,-0.90818 1.64787,-1.56747 z m 8.82493,1.2931 c 0.39199,-0.0984 0.63688,-0.35229 0.63688,-0.66033 0,-0.67594 -0.74458,-0.63891 -1.5043,0.0748 -0.70561,0.66288 -0.80674,1.14341 -0.19091,0.9071 0.2318,-0.0889 0.70805,-0.23366 1.05833,-0.32158 z m 21.52213,-0.76393 c 0,-0.14553 -0.1748,-0.0335 -0.38845,0.249 -0.21366,0.28248 -0.38847,0.63266 -0.38847,0.77818 0,0.14552 0.17481,0.0335 0.38847,-0.24901 0.21365,-0.28248 0.38845,-0.63265 0.38845,-0.77817 z m -25.59583,0.2286 c 1.04659,-0.72529 1.34617,-1.26061 0.54339,-0.971 -0.7198,0.25968 -1.91823,1.14801 -1.91823,1.42187 0,0.39259 0.2994,0.29441 1.37484,-0.45087 z m 38.8072,-0.0609 c -0.15506,-0.0533 -0.47592,0.0971 -0.71304,0.33426 -0.39843,0.39843 -0.37705,0.40577 0.28192,0.0969 0.39217,-0.18385 0.58617,-0.37785 0.43112,-0.43112 z m -45.77787,-2.27988 c -0.16519,-0.16519 -2.07708,1.70686 -2.07708,2.03378 0,0.12667 0.49812,-0.24833 1.10694,-0.83333 0.60881,-0.58501 1.04538,-1.12521 0.97014,-1.20045 z m 1.47218,1.12402 c 0.19774,-0.13384 0.18707,-0.19565 -0.0342,-0.19844 -0.17679,-0.002 -0.44468,0.22625 -0.59532,0.50772 -0.37268,0.69636 -0.33379,1.07745 0.0423,0.41427 0.16504,-0.29104 0.42931,-0.61664 0.58727,-0.72355 z m 36.19565,-0.56524 c -0.12497,-0.22462 -1.64491,1.22157 -1.64491,1.56509 0,0.095 0.39895,-0.16645 0.88656,-0.58097 0.48761,-0.41451 0.82887,-0.85737 0.75835,-0.98412 z m 7.35092,1.42108 c 0,-0.14552 -0.11906,-0.26458 -0.26458,-0.26458 -0.14552,0 -0.26458,0.11906 -0.26458,0.26458 0,0.14552 0.11906,0.26459 0.26458,0.26459 0.14552,0 0.26458,-0.11907 0.26458,-0.26459 z m 3.96875,0 c 0,-0.14552 -0.11906,-0.26458 -0.26458,-0.26458 -0.14552,0 -0.26458,0.11906 -0.26458,0.26458 0,0.14552 0.11906,0.26459 0.26458,0.26459 0.14552,0 0.26458,-0.11907 0.26458,-0.26459 z m -52.26193,-1.81471 c -0.17408,-0.17408 -1.71307,1.30962 -1.71307,1.65153 0,0.14685 0.41494,-0.13518 0.92208,-0.62672 0.50714,-0.49155 0.86309,-0.95271 0.79099,-1.02481 z m 23.34294,0.97205 c 2.20486,-1.46293 2.43457,-1.68186 2.18627,-2.08362 -0.18594,-0.30085 -0.37083,-0.24021 -0.96986,0.31814 -0.40707,0.37942 -1.24419,1.01693 -1.86027,1.4167 -0.61607,0.39977 -1.05553,0.83139 -0.97657,0.95915 0.2026,0.32781 0.21146,0.32447 1.62043,-0.61037 z m -12.75201,-0.48168 c 0.0895,-0.14473 0.38101,-0.26316 0.64789,-0.26316 0.26689,0 0.55378,-0.17859 0.63754,-0.39687 0.0838,-0.21828 0.40118,-0.39688 0.70538,-0.39688 0.3042,0 0.48344,-0.11269 0.39832,-0.25042 -0.35358,-0.57209 -3.58063,1.1343 -3.58063,1.89335 0,0.26726 0.9542,-0.20205 1.1915,-0.58602 z m 24.84771,0.36088 c 0.13935,-0.36313 0.10063,-0.3795 -0.23628,-0.0999 -0.45911,0.38104 -0.5069,0.5342 -0.16665,0.5342 0.12995,0 0.31127,-0.19544 0.40293,-0.4343 z m 1.74204,-0.1261 c 0,-0.14552 -0.11906,-0.191 -0.26458,-0.10106 -0.14552,0.0899 -0.26459,0.28258 -0.26459,0.4281 0,0.14552 0.11907,0.191 0.26459,0.10107 0.14552,-0.0899 0.26458,-0.28259 0.26458,-0.42811 z m -24.39458,-0.0217 c 0.24694,-0.24694 0.38805,-0.24694 0.635,0 0.4631,0.46311 1.44639,0.39717 1.44639,-0.097 0,-0.30602 -0.16708,-0.37255 -0.63848,-0.25424 -0.55246,0.13866 -0.61514,0.0868 -0.46532,-0.38531 l 0.17316,-0.54555 -1.07941,0.56262 c -0.59367,0.30944 -1.14536,0.66934 -1.22599,0.79979 -0.21991,0.35582 0.78866,0.28567 1.15465,-0.0803 z m -13.71541,-0.75158 c 0.77557,-0.66293 0.8336,-0.783 0.37844,-0.783 -0.29568,0 -0.7972,0.29856 -1.11449,0.66347 -1.04247,1.19895 -0.60912,1.26932 0.73605,0.11953 z m 23.16191,0.009 c 0.23035,-0.37271 -0.49185,-0.32781 -0.874,0.0543 -0.24695,0.24694 -0.3175,0.24694 -0.3175,0 0,-0.17463 0.11906,-0.3175 0.26458,-0.3175 0.14552,0 0.26458,-0.16407 0.26458,-0.36461 0,-0.20053 0.2679,-0.5447 0.59532,-0.76482 0.32742,-0.22013 0.51537,-0.48326 0.41767,-0.58474 -0.0977,-0.10148 -0.54418,0.0865 -0.99219,0.41771 -0.76966,0.56903 -1.10939,1.70717 -0.64747,2.16909 0.1902,0.1902 1.0444,-0.21369 1.28901,-0.60947 z m -17.46338,0.266 c -0.0899,-0.14552 -0.30532,-0.26276 -0.47863,-0.26053 -0.18934,0.002 -0.15671,0.10642 0.0818,0.26053 0.50829,0.32849 0.59989,0.32849 0.39687,0 z m 35.20595,-0.4687 c -0.0887,-0.0887 -0.36678,0.0539 -0.61798,0.31692 -0.43662,0.45714 -0.42952,0.46423 0.16126,0.16125 0.33988,-0.17431 0.54541,-0.38949 0.45672,-0.47817 z m 14.40343,0.0718 c 0.18985,-0.22876 0.21557,-0.39688 0.0607,-0.39688 -0.14777,0 -0.3372,0.1786 -0.42097,0.39688 -0.0838,0.21828 -0.11107,0.39687 -0.0607,0.39687 0.0504,0 0.23981,-0.17859 0.42097,-0.39687 z m -49.2125,-0.55748 c 0,-0.0572 -0.1786,-0.10398 -0.39688,-0.10398 -0.21828,0 -0.39687,0.11533 -0.39687,0.25628 0,0.14095 0.17859,0.18775 0.39687,0.10398 0.21828,-0.0838 0.39688,-0.19908 0.39688,-0.25628 z m -6.76987,-1.2591 c -0.21007,-0.54746 -0.86937,-0.47359 -1.25622,0.14075 -0.20223,0.32115 -0.17992,0.55855 0.0822,0.87433 0.3316,0.39954 0.39852,0.39472 0.85486,-0.0616 0.30619,-0.3062 0.42799,-0.66999 0.31921,-0.95346 z m 40.37195,0.85931 c 0,-0.14552 -0.11906,-0.191 -0.26458,-0.10106 -0.14552,0.0899 -0.26459,0.28258 -0.26459,0.4281 0,0.14552 0.11907,0.191 0.26459,0.10106 0.14552,-0.0899 0.26458,-0.28258 0.26458,-0.4281 z m -17.66094,-0.86625 c 0.66971,-0.50838 0.58239,-0.64591 -0.52916,-0.83343 -0.54571,-0.0921 -1.20055,-0.22454 -1.45521,-0.2944 -0.58648,-0.16089 -0.59985,0.37724 -0.0251,1.01229 0.51144,0.56513 1.35348,0.61354 2.00952,0.11554 z m 4.10832,-0.0436 c 0.74428,-0.52131 0.79138,-1.03848 0.0589,-0.64645 -0.40141,0.21483 -0.53014,0.20111 -0.53322,-0.0568 -0.005,-0.4484 -0.51536,0.31942 -0.52106,0.78444 -0.005,0.44056 0.28429,0.41694 0.99541,-0.0811 z m 3.23387,-0.24958 c 0,-0.21828 -0.17859,-0.39687 -0.39687,-0.39687 -0.68857,0 -0.46543,0.52144 0.33073,0.77286 0.0364,0.0115 0.0661,-0.15771 0.0661,-0.37599 z m -27.52072,-1.0078 c 0.002,-0.11773 -0.11501,-0.14047 -0.26053,-0.0505 -0.14552,0.0899 -0.26276,0.36485 -0.26053,0.61093 0.003,0.38557 0.0395,0.39255 0.26053,0.0505 0.14106,-0.21828 0.2583,-0.4932 0.26053,-0.61093 z m -8.90048,67.40681 c -0.21426,-0.55836 0.14337,-0.85982 0.4482,-0.3778 0.32391,0.51217 0.31741,0.78609 -0.0186,0.78609 -0.15009,0 -0.34339,-0.18373 -0.42956,-0.40829 z m 63.53538,-1.71747 c -0.10252,-0.16588 -0.0539,-0.4341 0.10804,-0.59605 0.16195,-0.16194 0.29445,-0.50876 0.29445,-0.77069 0,-0.26194 0.17859,-0.47625 0.39687,-0.47625 0.42081,0 0.52353,0.31431 0.20639,0.63146 -0.10477,0.10477 -0.19407,0.44159 -0.19844,0.74849 -0.009,0.62816 -0.52303,0.92302 -0.80731,0.46304 z m -0.99077,-41.73892 c -0.64874,-0.1341 -1.85028,-1.94554 -1.51372,-2.2821 0.14363,-0.14363 0.26115,-0.47545 0.26115,-0.73739 0,-0.58628 0.85943,-0.63784 1.32291,-0.0794 0.18116,0.21828 0.53381,0.39688 0.78368,0.39688 0.5783,0 1.11837,1.16402 0.91535,1.97289 -0.1562,0.62236 -0.86758,0.9155 -1.76937,0.7291 z m -64.20252,-23.75842 c 0.0127,-0.30822 0.0754,-0.37092 0.15985,-0.15985 0.0764,0.191 0.067,0.4192 -0.0209,0.50712 -0.0879,0.0879 -0.15045,-0.0684 -0.13896,-0.34727 z m 0.0659,-3.15295 c 10e-4,-1.01864 0.049,-1.40294 0.10627,-0.85399 0.0573,0.54895 0.0563,1.38238 -0.002,1.85208 -0.0584,0.4697 -0.10531,0.0206 -0.10414,-0.99809 z"
       id="path14738" />
  </g>
</svg>
