<?xml version="1.0" encoding="UTF-8" standalone="no"?>
<!-- Created with Inkscape (http://www.inkscape.org/) -->

<svg
   width="57.207062mm"
   height="57.252522mm"
   viewBox="0 0 57.207048 57.252513"
   version="1.1"
   id="svg5"
   inkscape:version="1.1 (c4e8f9ed74, 2021-05-24)"
   sodipodi:docname="ornatew6.svg"
   xmlns:inkscape="http://www.inkscape.org/namespaces/inkscape"
   xmlns:sodipodi="http://sodipodi.sourceforge.net/DTD/sodipodi-0.dtd"
   xmlns="http://www.w3.org/2000/svg"
   xmlns:svg="http://www.w3.org/2000/svg">
  <sodipodi:namedview
     id="namedview7"
     pagecolor="#ffffff"
     bordercolor="#666666"
     borderopacity="1.0"
     inkscape:pageshadow="2"
     inkscape:pageopacity="0.0"
     inkscape:pagecheckerboard="0"
     inkscape:document-units="mm"
     showgrid="false"
     inkscape:zoom="0.94615212"
     inkscape:cx="-295.40704"
     inkscape:cy="161.17916"
     inkscape:window-width="2506"
     inkscape:window-height="1403"
     inkscape:window-x="1974"
     inkscape:window-y="0"
     inkscape:window-maximized="1"
     inkscape:current-layer="layer1" />
  <defs
     id="defs2" />
  <g
     inkscape:label="Layer 1"
     inkscape:groupmode="layer"
     id="layer1"
     transform="translate(7.6899241,-137.70752)">
    <path
       style="fill:#000000;stroke-width:0.453162"
       d="m -7.6852741,166.47185 0.004,-28.48824 28.4359041,-0.13804 28.435909,-0.13805 v 21.98493 c 0,12.09171 0.07348,24.83692 0.163301,28.32269 l 0.163297,6.33776 -17.496741,0.008 c -9.623208,0.005 -22.4947961,0.14104 -28.6035301,0.30359 l -11.10679,0.29555 0.004,-28.48823 z m 54.6128161,26.74455 1.700962,-0.27199 -0.01405,-26.91395 -0.01403,-26.91394 -2.310459,-0.068 c -5.371659,-0.15808 -52.6176791,0.14977 -52.8120291,0.34412 -0.11704,0.11705 -0.1788,8.71855 -0.13723,19.11444 0.0416,10.39589 0.0836,22.51946 0.0934,26.94127 l 0.0178,8.03965 25.8873131,2e-4 c 14.238021,1.1e-4 26.652746,-0.1222 27.588276,-0.2718 z M -5.6417241,167.01738 c 0,-20.49502 0.12193,-26.15548 0.56646,-26.29703 0.31155,-0.0992 12.19005,-0.26456 26.3966771,-0.36746 l 25.830227,-0.18708 -0.124125,25.87204 c -0.09596,20.00095 -0.250214,25.8917 -0.679743,25.9587 -0.30559,0.0477 -11.159606,0.20705 -24.120036,0.35418 -12.9604291,0.14712 -24.5330501,0.38355 -25.7169401,0.5254 l -2.15252,0.25792 z m 15.8606701,23.43538 c 0.373859,-0.15006 0.839029,-0.23835 1.033711,-0.19619 0.194682,0.0421 0.602528,-0.12632 0.906324,-0.37439 2.744655,-2.24116 3.543246,-2.73471 4.469649,-2.76235 0.831272,-0.0248 0.899462,-0.10001 0.30816,-0.33988 -0.658826,-0.26725 -0.676564,-0.42069 -0.134014,-1.15932 0.377651,-0.51413 0.96699,-0.76196 1.487997,-0.62571 0.474476,0.12408 1.197531,0.0382 1.60679,-0.19082 0.541213,-0.30288 0.744107,-0.23505 0.744107,0.24877 0,1.27684 -0.57244,2.13721 -1.867562,2.80695 -0.882976,0.4566 -1.287583,1.00036 -1.252004,1.6826 0.03606,0.69152 0.114818,0.77361 0.250853,0.26145 0.109056,-0.41059 0.638893,-0.86175 1.177413,-1.00258 1.035928,-0.2709 1.672846,0.33754 1.684361,1.60907 0.0038,0.42146 0.210862,0.89232 0.460101,1.04636 0.269685,0.16667 0.453162,-0.37293 0.453162,-1.33274 0,-1.4237 0.134553,-1.61282 1.147507,-1.61282 0.760069,0 1.293173,0.34426 1.578936,1.01962 0.393977,0.9311 0.422213,0.9016 0.325268,-0.33987 -0.08563,-1.09665 -0.383766,-1.44131 -1.542037,-1.78269 -1.020737,-0.30085 -1.500484,-0.75941 -1.65934,-1.58607 -0.27834,-1.44843 -0.06984,-1.68259 0.831877,-0.93423 0.529479,0.43943 0.97098,0.46277 1.780095,0.0941 0.870378,-0.39657 1.214182,-0.33754 1.799228,0.30893 0.922128,1.01894 0.909805,1.29235 -0.06979,1.54834 -0.437536,0.11434 -0.173453,0.23081 0.58911,0.25981 1.631702,0.0621 2.490883,0.77923 2.164992,1.80715 -0.186132,0.58709 -0.142962,0.61023 0.211328,0.1133 0.244884,-0.34348 0.671967,-0.48439 0.949072,-0.31313 0.277104,0.17126 0.503826,0.1026 0.503826,-0.15258 0,-0.25518 -0.407845,-0.68223 -0.906323,-0.94901 -0.874006,-0.46775 -1.281248,-2.47681 -0.566453,-2.7945 0.18693,-0.0831 -0.322878,-0.79633 -1.132904,-1.585 -0.810027,-0.78868 -1.472777,-1.2475 -1.472777,-1.01962 0,0.79383 -1.313068,0.40724 -2.013532,-0.59282 -0.951453,-1.35839 -0.887571,-1.83069 0.200885,-1.48523 1.925421,0.61111 3.485616,-0.69639 2.838903,-2.3791 -0.255726,-0.66538 -0.347904,-0.61068 -0.572661,0.33987 -0.170116,0.71946 -0.583719,1.13291 -1.133337,1.13291 -0.550229,0 -0.9622,-0.41265 -1.131052,-1.13291 -0.167786,-0.71572 -0.634216,-1.18623 -1.266625,-1.27771 -0.657679,-0.0951 -1.001038,-0.4615 -1.001038,-1.0681 0,-0.55147 0.228119,-0.8365 0.566453,-0.70777 0.311549,0.11853 1.025279,0.045 1.586066,-0.1635 1.198242,-0.44541 1.424842,-2.54697 0.320328,-2.97081 -1.05286,-0.40402 -1.385965,0.22412 -0.472907,0.89176 0.747076,0.54628 0.749913,0.62791 0.04223,1.21524 -0.55275,0.45874 -0.96357,0.5012 -1.513697,0.15646 -1.084326,-0.67952 -1.197849,-2.40105 -0.271734,-4.12074 0.767257,-1.42471 0.766758,-1.51222 -0.01186,-2.08156 -0.676161,-0.49442 -0.723147,-0.76182 -0.279514,-1.59075 0.293301,-0.54804 0.726966,-0.87673 0.9637,-0.73042 0.236733,0.14631 0.430424,0.067 0.430424,-0.17612 0,-0.24318 -0.201066,-0.51012 -0.446813,-0.5932 -0.245747,-0.0831 -0.06317,-0.73526 0.405726,-1.44929 l 0.852539,-1.29824 0.330752,1.50591 c 0.216073,0.98377 0.15396,1.56483 -0.179145,1.67587 -0.280443,0.0935 -0.509897,0.35049 -0.509897,0.57114 0,0.22065 0.279161,0.29405 0.620357,0.16312 0.459668,-0.17639 0.877933,0.85439 1.614744,3.97939 0.546913,2.3196 1.773237,7.37825 2.725166,11.24145 0.951928,3.86321 1.865214,7.60334 2.029525,8.31141 0.181553,0.78237 0.52491,1.20061 0.875269,1.06617 0.317086,-0.12168 1.653383,-0.0255 2.969546,0.21371 2.885825,0.52452 6.322673,-0.0989 8.297448,-1.50505 1.095279,-0.77991 1.426608,-0.84651 1.734323,-0.34861 0.219095,0.3545 0.1757,0.8621 -0.102342,1.19712 -0.359171,0.43278 -0.294546,0.58165 0.252507,0.58165 0.404374,0 0.735227,-0.30588 0.735227,-0.67974 0,-0.37386 0.203923,-0.67974 0.453162,-0.67974 0.249239,0 0.453162,-0.20393 0.453162,-0.45316 0,-0.24924 -0.254903,-0.40219 -0.566452,-0.33988 -0.797878,0.15958 -0.9768,-2.1717 -0.220871,-2.87784 0.464192,-0.43362 0.533544,-1.11245 0.270519,-2.64786 -0.194538,-1.13562 -0.536752,-3.14497 -0.760473,-4.46524 -0.28072,-1.65661 -0.80894,-2.82025 -1.704551,-3.75507 -1.057843,-1.10415 -1.203199,-1.49816 -0.786213,-2.13114 0.281364,-0.4271 0.749625,-0.72051 1.040582,-0.65203 0.291519,0.0686 0.386697,-0.10576 0.212003,-0.38842 -0.219507,-0.35517 -0.0032,-0.41338 0.702809,-0.18926 0.694733,0.2205 0.920979,0.16375 0.709746,-0.17803 -0.411965,-0.66657 -2.202384,-0.64045 -2.884923,0.0421 -0.299087,0.29908 -0.543795,0.89882 -0.543795,1.33274 0,0.43392 -0.238576,0.93639 -0.530172,1.11661 -0.359702,0.22231 -0.434224,0.0776 -0.231769,-0.44995 0.177553,-0.4627 0.116634,-0.66529 -0.150423,-0.50024 -0.246851,0.15257 -0.652358,-0.25796 -0.901131,-0.91228 -0.666247,-1.75236 -0.571142,-2.037 0.680591,-2.037 0.623097,0 1.132904,0.20392 1.132904,0.45316 0,0.24924 0.197525,0.45316 0.438942,0.45316 0.241413,0 0.321559,-0.30588 0.178097,-0.67974 -0.143466,-0.37386 -0.03512,-0.67975 0.240801,-0.67975 0.275908,0 0.517747,0.25491 0.537423,0.56646 0.02189,0.34678 0.136012,0.30284 0.294252,-0.11329 0.142161,-0.37386 0.635868,-1.16607 1.097127,-1.76047 1.606523,-2.07024 0.538103,-5.94329 -1.639517,-5.94329 -0.392393,0 -0.562976,-0.26721 -0.415658,-0.65112 0.137426,-0.35813 0.538873,-0.54023 0.892104,-0.40468 0.390018,0.14966 0.642239,-0.0395 0.642239,-0.48178 0,-0.40052 0.31792,-0.72822 0.706488,-0.72822 0.388568,0 0.610382,-0.15551 0.492918,-0.34556 -0.117459,-0.19006 0.04867,-0.83556 0.369191,-1.43445 0.602057,-1.12495 0.273678,-3.27324 -0.801575,-5.244 -0.271975,-0.49848 -0.443641,-1.33171 -0.381486,-1.85162 0.06216,-0.51991 -0.203089,-1.20763 -0.589427,-1.52827 -0.844526,-0.70089 -0.923395,-1.40373 -0.135981,-1.21178 0.311549,0.076 0.413511,0.0525 0.226581,-0.052 -0.718542,-0.40184 -0.297247,-1.06841 0.512789,-0.81132 0.493951,0.15678 0.946279,0.0266 1.075208,-0.30933 0.152408,-0.39717 -0.237334,-0.57996 -1.236588,-0.57996 -0.802527,0 -1.458166,0.20392 -1.456983,0.45316 0.0072,1.51871 -0.230646,2.04002 -0.933654,2.04617 -0.557457,0.005 -0.626895,0.11247 -0.233759,0.36218 0.307597,0.19538 1.023031,1.27128 1.58985,2.39089 l 1.030581,2.03566 -1.188884,-0.17449 c -0.912672,-0.13395 -1.413647,0.14116 -2.156307,1.18412 -1.023271,1.43706 -1.245171,2.1236 -0.546885,1.69204 0.231298,-0.14295 0.550923,0.1509 0.710282,0.65299 0.342536,1.07923 0.933495,1.18532 1.29887,0.23317 0.158888,-0.41406 9.07e-4,-0.67975 -0.404678,-0.67975 -0.727878,0 -0.914793,-1.15194 -0.253254,-1.56079 0.68475,-0.4232 1.922499,0.2743 1.667228,0.93953 -0.131122,0.34169 -0.04088,0.62126 0.200533,0.62126 0.241418,0 0.438942,-0.30588 0.438942,-0.67974 0,-0.37386 0.186929,-0.67974 0.4154,-0.67974 1.189237,0 0.618942,2.87228 -0.773085,3.89364 -0.636883,0.46729 -0.924845,0.43379 -1.613692,-0.18771 -0.789476,-0.71231 -0.829195,-0.70367 -0.679743,0.14788 0.127439,0.7261 -0.08694,0.90086 -1.087466,0.88652 -0.685407,-0.01 -1.246195,0.14312 -1.246195,0.33987 0,0.19676 0.521843,0.35774 1.15965,0.35774 0.670114,0 1.03949,0.19442 0.875011,0.46055 -0.15655,0.25331 -0.479523,0.34011 -0.717714,0.1929 -0.238195,-0.14721 -0.395651,-0.0996 -0.349908,0.1059 0.04575,0.20545 -0.07954,0.74752 -0.278414,1.20458 -0.281173,0.64621 -0.443886,0.69787 -0.73163,0.2323 -0.267619,-0.43302 -0.368575,-0.34947 -0.364745,0.30187 0.0027,0.49534 -0.218139,2.63396 -0.49121,4.75249 -0.273075,2.11853 -0.385695,4.2982 -0.250267,4.84372 0.135427,0.54551 0.04155,1.11833 -0.208595,1.27294 -0.719227,0.4445 -0.531283,0.9353 0.38458,1.00429 0.743394,0.056 0.799722,-0.15326 0.492487,-1.8295 -0.190808,-1.04101 -0.251568,-1.98879 -0.135024,-2.10619 0.394564,-0.39748 0.986842,1.03267 0.728231,1.75843 -0.141268,0.39646 -0.10981,0.58929 0.06991,0.42851 0.179719,-0.16078 1.114089,0.55173 2.076378,1.58335 1.783383,1.91188 2.110964,2.92184 0.464373,1.43169 -1.796746,-1.62603 -5.459554,-0.52896 -6.388119,1.91335 -0.494485,1.30059 -0.09262,7.28489 0.543242,8.08964 0.226712,0.28694 0.120088,0.8509 -0.257029,1.35949 -0.576322,0.77724 -0.755194,0.80155 -1.691681,0.22989 -0.910406,-0.55575 -0.976598,-0.55376 -0.506681,0.0152 0.694028,0.8403 0.02165,1.98271 -0.947957,1.61064 -0.811615,-0.31145 -0.972038,-1.46045 -0.264924,-1.89747 0.253304,-0.15655 0.364068,-0.44076 0.246141,-0.63157 -0.117927,-0.19081 0.573873,-3.79635 1.537335,-8.01231 0.963459,-4.21594 2.687164,-11.84578 3.830455,-16.95519 3.156971,-14.1086 4.267802,-17.16211 6.861701,-18.86169 0.611505,-0.40068 1.111832,-0.86303 1.111832,-1.02745 0,-0.16443 -2.217497,-0.29392 -4.927777,-0.28776 l -4.927773,0.0112 1.057866,1.25954 c 2.00404,2.38607 1.997551,4.80336 -0.03557,13.24164 -0.66056,2.74163 -1.64529,7.17551 -2.188287,9.85307 -0.542996,2.67756 -1.098668,4.86973 -1.234829,4.87149 -0.368089,0.005 -6.366262,-24.05465 -6.325851,-25.37386 0.01909,-0.6231 0.326136,-1.64271 0.682331,-2.26581 0.356195,-0.6231 0.655018,-1.23487 0.664051,-1.35949 0.009,-0.12462 -2.330779,-0.22658 -5.199583,-0.22658 -4.459198,0 -5.175247,0.0986 -4.935084,0.67974 0.802309,1.94133 0.65942,4.72034 -0.498795,9.70093 -1.136408,4.88681 -1.286424,5.23611 -1.882981,4.38441 -1.409837,-2.01282 -2.205582,-4.85603 -2.017064,-7.20699 0.03756,-0.46838 0.194346,-0.45249 0.71979,0.073 0.369474,0.36948 1.085434,0.5636 1.591023,0.43139 1.122096,-0.29344 1.709557,-2.24982 0.900096,-2.99754 -0.452268,-0.41777 -0.52287,-0.37714 -0.325961,0.18757 0.354287,1.01604 -0.342802,1.95613 -1.205128,1.62523 -1.219978,-0.46815 -0.86632,-2.53062 0.681932,-3.9769 1.924425,-1.79769 1.041905,-1.65395 -1.666066,0.27134 -2.450832,1.74248 -4.450498,2.1223 -4.175141,0.79304 0.11622,-0.56105 0.556777,-0.77236 1.506003,-0.72237 0.737951,0.0389 1.088645,-0.0285 0.779322,-0.14971 -0.421848,-0.16529 -0.387507,-0.39527 0.137406,-0.92018 0.994586,-0.99458 0.651378,-2.59392 -0.594615,-2.77088 -0.560787,-0.0796 -1.019614,0.0733 -1.019614,0.33987 0,0.26658 0.422798,0.48468 0.939552,0.48468 1.452733,0 0.885265,1.48367 -0.746455,1.95165 -0.76271,0.21874 -1.641909,0.80629 -1.9537761,1.30567 -0.827854,1.3256 0.5678501,2.80438 2.3167181,2.4546 1.619921,-0.32398 1.58686,0.18296 -0.131925,2.02293 -1.155586,1.23706 -1.273553,1.55078 -0.703165,1.86998 0.588817,0.32952 0.602639,0.62163 0.09811,2.0735 -0.967925,2.78539 -1.223296,4.18234 -0.764555,4.18234 0.237192,0 0.561643,-0.41081 0.721003,-0.91291 0.159359,-0.50209 0.510493,-0.77647 0.780297,-0.60972 0.285026,0.17615 0.360479,0.0927 0.180091,-0.19916 -0.39701,-0.64238 0.148451,-2.8769 0.629669,-2.57949 0.199408,0.12324 0.251874,-0.23504 0.11659,-0.79617 -0.164434,-0.68204 -0.09518,-0.87002 0.208918,-0.56708 0.841831,0.83864 1.07867,3.40768 0.340276,3.69103 -0.882016,0.33846 -0.848329,1.13296 0.12117,2.8577 0.782879,1.39274 0.778527,1.4221 -0.339871,2.29246 -1.132693,0.88148 -1.132714,0.88164 -0.113291,0.89172 0.560788,0.006 1.019614,-0.18745 1.019614,-0.42886 0,-0.24142 0.254904,-0.3768 0.566453,-0.30086 0.311549,0.0759 0.41351,0.0526 0.226581,-0.052 -0.18693,-0.10454 -0.339872,-0.491 -0.339872,-0.8588 0,-0.3678 0.175534,-0.56024 0.390075,-0.42764 0.215317,0.13307 0.232935,-0.61628 0.03933,-1.67262 -0.428233,-2.33644 -0.318491,-2.50353 0.661724,-1.00753 0.720397,1.09946 0.701862,1.43057 -0.3496,6.24512 -0.610682,2.79625 -1.245495,5.87536 -1.410696,6.84247 -0.165201,0.96711 -0.46385,1.57888 -0.663664,1.35949 -0.318656,-0.34988 -1.897079,-6.20648 -4.9928051,-18.52537 -1.252596,-4.9845 -1.230406,-8.67967 0.06037,-10.05365 l 0.985317,-1.04882 h -6.468573 -6.46858 l 1.59061,1.59061 c 1.72304004,1.72304 2.68571004,4.27206 4.38025,11.59833 0.98712,4.26778 5.578496,23.17036 7.340545,30.22085 0.5165731,2.06697 0.8193491,3.878 0.6728341,4.02452 -0.41676,0.41675 -6.4385991,0.75041 -7.7234491,0.42793 -0.63436,-0.15921 -1.09204,-0.5423 -1.01707,-0.85131 0.075,-0.30901 0.0508,-0.40889 -0.0538,-0.22196 -0.4042,0.72276 -1.44170996,0.32783 -1.19047996,-0.45317 0.19749,-0.61393 0.15455,-0.65199 -0.19014,-0.16852 -0.42214,0.5921 -1.45290004,0.36628 -1.45290004,-0.31831 0,-0.17602 1.07060004,-0.72117 2.3791,-1.21143 1.30851,-0.49026 2.50887,-0.95524 2.66747,-1.03328 0.15859,-0.078 0.50579,0.48182 0.77154,1.24415 0.52987,1.51999 1.46071,2.08729 2.66598,1.62479 0.635413,-0.24383 0.664085,-0.37129 0.15438,-0.6863 -0.34427,-0.21277 -0.87871,-0.28986 -1.18765,-0.17131 -0.92846,0.35628 -1.24779,-0.75171 -0.46571,-1.61589 0.58255,-0.64372 0.68344,-1.48289 0.50053,-4.1632 -0.126,-1.84633 -0.23946,-3.76224 -0.25213,-4.25758 -0.0189,-0.74038 -0.0989,-0.78069 -0.4492,-0.22658 -0.36385,0.57548 -0.58845,0.38183 -0.53221,-0.45887 0.008,-0.12462 -0.6299,-0.27333 -1.41831,-0.33046 -2.01289,-0.14586 -2.75767996,-1.27491 -1.7532,-2.65773 0.42421,-0.58398 0.87325,-1.0682 0.99787,-1.07603 0.4373,-0.0275 0.25182,2.4823 -0.21142,2.86077 -0.2734,0.22337 -0.12283,0.27052 0.36177,0.11329 0.45656,-0.14813 1.02938,-0.26933 1.27294,-0.26933 0.2477,0 0.28129,-0.24962 0.0762,-0.56645 -0.52399,-0.80962 -0.46885,-3.6767 0.0783,-4.07152 0.29183,-0.21057 0.25322,-0.33548 -0.10505,-0.33987 -0.3576,-0.004 -0.56646,-0.67528 -0.56646,-1.81959 0,-0.99695 0.20393,-1.81264 0.45317,-1.81264 0.24924,0 0.45316,-0.22574 0.45316,-0.50165 0,-0.2759 -0.29545,-0.38827 -0.65655,-0.24971 -0.38842,0.14906 -0.76339,-0.0847 -0.91817,-0.57239 -0.1439,-0.45338 -1.11224,-1.66651 -2.15186,-2.69584 -1.03961996,-1.02934 -1.66061996,-1.87152 -1.37999996,-1.87152 0.28062,0 0.83067,0.32045 1.22233,0.71211 0.39165996,0.39166 0.71210996,0.52479 0.71210996,0.29583 0,-0.22895 0.45883,-0.6556 1.01962,-0.94811 0.99259,-0.51773 0.98793,-0.52568 -0.17553,-0.30001 -0.77905,0.15111 -1.18807,0.0361 -1.17481,-0.33045 0.0514,-1.41969 -0.15684,-2.18056 -0.53305996,-1.94805 -0.22584,0.13957 -0.30401,0.66142 -0.17372,1.15965 0.16197,0.61939 0.0137,0.90587 -0.46896,0.90587 -1.68158004,0 -1.28962004,-1.53764 1.00591996,-3.94622 1.03756,-1.08865 1.26583,-1.73812 0.42916,-1.22102 -0.3582,0.22138 -0.44479,0.0192 -0.27306,-0.63751 0.13832,-0.52893 0.11946,-0.92534 -0.0419,-0.88091 -0.16137,0.0444 -0.77306996,-0.1848 -1.35933996,-0.50939 -0.58627,-0.3246 -1.45294004,-0.48898 -1.92594004,-0.36528 -1.08777,0.28445 -1.07998,0.0526 0.0463,-1.37925 1.54737004,-1.96716 0.95131,-5.5616 -0.92227,-5.5616 -0.48971,0 -0.89038,0.19752 -0.89038,0.43894 0,0.24142 0.30417,0.32222 0.67593,0.17956 1.06339,-0.40806 1.3608,1.1456 0.49867,2.60507 -0.42557,0.72045 -0.66102,1.49234 -0.52322,1.71532 0.39379,0.63717 -0.81282,3.08355 -1.45574,2.95151 -0.31778,-0.0653 -0.36876,-0.015 -0.11329,0.11168 0.25547,0.1267 0.46449,1.20517 0.46449,2.39661 0,1.63206 0.25357,2.43293 1.02827,3.24766 2.25868004,2.37542 2.34572004,2.61316 1.12645,3.07673 -1.07569,0.40898 -3.42816,3.6692 -2.64758,3.6692 0.2106,0 0.64285,0.62757 0.96056,1.39459 0.31771,0.76703 1.06665,1.71499 1.66431,2.10659 0.82047,0.5376 0.95608,0.83427 0.55358,1.2111 -0.39053,0.36564 -0.59108,0.34022 -0.75,-0.0951 -0.1677,-0.45931 -0.41197,-0.41766 -1.07626,0.18353 -1.00715,0.91145 -1.17762,1.91866 -0.18536,1.09516 1.68773,-1.40069 2.88119004,1.49225 1.32501,3.21182 -1.58101,1.74699 -2.37635,7.23837 -1.3902,9.59856 0.53576,1.28226 0.57806,1.93482 0.19176,2.95825 -0.5996,1.58851 -0.21228,2.81116 0.88459,2.79243 0.76505,-0.013 0.76579,-0.0379 0.0142,-0.47567 -0.88677,-0.5165 -0.95566,-0.81808 -0.39056,-1.70985 0.57682,-0.91029 2.36758004,0.13632 2.03029004,1.1866 -0.16879004,0.5256 -0.12064004,0.60464 0.14528,0.23849 0.31035,-0.42731 0.82116,-0.42261 2.32491996,0.0214 1.05996,0.31297 1.82127,0.67496 1.69181,0.80442 -0.29581,0.29581 6.078463,-0.45906 7.0000841,-0.82898 z m 24.01758,-0.80869 c 0,-0.42449 0.429068,-0.67974 1.142621,-0.67974 0.779035,0 1.306869,-0.36049 1.658803,-1.13291 0.529488,-1.1621 1.459087,-1.48502 1.956776,-0.67974 0.154039,0.24924 1.185689,0.45316 2.292555,0.45316 1.169217,0 2.012483,0.2102 2.012483,0.50165 0,0.2759 -0.316475,0.3802 -0.70328,0.23177 -0.404003,-0.15504 -0.58524,-0.0789 -0.425891,0.17894 0.34071,0.55129 -1.93109,1.47608 -2.604167,1.0601 -0.287014,-0.17739 -0.353099,-0.0862 -0.16181,0.22333 0.212233,0.34341 -0.07514,0.52318 -0.836306,0.52318 -0.637807,0 -1.15965,-0.20392 -1.15965,-0.45316 0,-0.24924 -0.215959,-0.45316 -0.479908,-0.45316 -0.263949,0 -0.353874,0.20392 -0.199835,0.45316 0.163401,0.26438 -0.297401,0.45316 -1.106159,0.45316 -0.930097,0 -1.386232,-0.22367 -1.386232,-0.67974 z m 6.344267,-1.13291 c -0.373859,-0.2416 -0.883666,-0.43928 -1.132905,-0.43928 -0.249239,0 -0.147278,0.19768 0.226581,0.43928 0.373859,0.24161 0.883666,0.43929 1.132905,0.43929 0.249239,0 0.147277,-0.19768 -0.226581,-0.43929 z m -28.372595,-0.56645 c 0.155271,-0.56079 1.505683,-6.32161 3.000916,-12.80182 1.495233,-6.48022 2.836978,-12.29202 2.981654,-12.91512 l 0.263048,-1.1329 0.664125,1.26316 c 0.365268,0.69473 0.784537,2.27985 0.931707,3.52248 0.233346,1.97023 0.172374,2.22279 -0.476521,1.97378 -0.943101,-0.3619 -0.957352,0.42418 -0.03326,1.83453 1.037501,1.58342 0.69882,4.05522 -0.580569,4.23717 -0.892453,0.12691 -0.98148,-0.0226 -0.810186,-1.3605 0.105843,-0.82669 -0.0038,-1.80851 -0.243568,-2.18181 -0.387198,-0.60275 -0.485966,-0.60263 -0.882233,0.001 -0.245422,0.37386 -0.446223,0.88366 -0.446223,1.1329 0,0.24924 0.189713,0.15319 0.421583,-0.21345 0.231871,-0.36664 0.548762,-0.53944 0.704202,-0.384 0.155441,0.15544 0.01507,0.71102 -0.311925,1.23463 -0.770156,1.23322 -0.04741,2.48149 1.54801,2.67361 0.890042,0.10718 1.099133,0.33865 0.921055,1.01962 -0.126707,0.48452 -0.610552,0.88096 -1.075213,0.88096 -0.523227,0 -0.953079,0.43127 -1.129178,1.1329 -0.27444,1.09345 -1.545574,1.6305 -1.545574,0.653 0,-0.26395 0.235431,-0.3344 0.523179,-0.15657 0.324147,0.20034 0.40017,0.12431 0.199837,-0.19983 -0.55102,-0.89157 -1.246714,-0.576 -1.094405,0.49643 0.10756,0.75735 0.44273,1.01678 1.303046,1.00858 1.065597,-0.0102 1.138089,0.11198 0.906324,1.52694 -0.207607,1.26746 -0.530881,1.62879 -1.837981,2.05436 -1.426984,0.46459 -1.586067,0.68157 -1.586067,2.16334 0,0.98337 -0.347819,2.03158 -0.863268,2.60158 -1.127725,1.24708 -1.807382,1.21668 -1.452518,-0.065 z m 5.261339,-7.1373 c 0,-0.24924 -0.215958,-0.45316 -0.479907,-0.45316 -0.263948,0 -0.353875,0.20392 -0.199836,0.45316 0.154038,0.24924 0.369996,0.45316 0.479906,0.45316 0.10991,0 0.199837,-0.20392 0.199837,-0.45316 z m 1.967633,-13.74198 c 0.163997,0.164 0.298176,0.0603 0.298176,-0.23051 0,-0.60627 -0.110323,-0.6318 -1.095842,-0.25362 -0.394243,0.15128 -0.716805,0.48213 -0.716805,0.73523 0,0.28931 0.225793,0.27277 0.608147,-0.0445 0.334481,-0.2776 0.742327,-0.37054 0.906324,-0.20655 z m -0.330586,-2.04505 c 0.05919,-0.3022 0.0035,-0.33916 -0.123672,-0.0821 -0.127215,0.25702 -0.417805,0.35205 -0.645756,0.21117 -0.227952,-0.14089 -0.414457,-0.0232 -0.414457,0.26152 0,0.67219 1.043124,0.32808 1.183885,-0.39055 z m 0.1756,-1.17979 c 0,-0.10991 -0.203923,-0.32587 -0.453162,-0.47991 -0.249239,-0.15404 -0.453162,-0.0641 -0.453162,0.19984 0,0.26394 0.203923,0.4799 0.453162,0.4799 0.249239,0 0.453162,-0.0899 0.453162,-0.19983 z m 23.252439,22.70684 c -1.06934,-0.53155 -1.673341,-1.95452 -1.004964,-2.3676 0.678311,-0.41922 0.463132,-2.80201 -0.324128,-3.58927 -0.982165,-0.98216 -2.176496,-0.69425 -2.356492,0.56808 -0.08013,0.56193 -0.335036,0.90468 -0.566452,0.76165 -0.231421,-0.14302 -0.420766,-0.0441 -0.420766,0.21986 0,0.64306 0.436359,0.60128 1.946399,-0.18637 1.071551,-0.55892 1.303783,-0.56395 1.507674,-0.0326 0.343129,0.89419 -0.624466,2.50169 -1.544077,2.56523 -2.4119,0.16665 -3.722643,-1.13334 -3.722643,-3.69212 0,-2.35585 0.346913,-3.08077 1.845058,-3.85549 1.837308,-0.95011 2.533714,-0.83961 1.551141,0.24612 -0.4525,0.5 -0.688027,1.0438 -0.523397,1.20843 0.164633,0.16463 0.299331,0.0614 0.299331,-0.22936 0,-0.78739 2.063219,-0.63908 2.758152,0.19826 0.331823,0.39982 1.041842,0.89368 1.577819,1.09746 1.429735,0.54358 2.120992,4.88161 1.086029,6.81546 -0.518027,0.96794 -0.669786,0.98753 -2.108684,0.27228 z m -4.21964,-5.74002 c 0,-0.24924 -0.203923,-0.45316 -0.453162,-0.45316 -0.249239,0 -0.453161,0.20392 -0.453161,0.45316 0,0.24924 0.203922,0.45316 0.453161,0.45316 0.249239,0 0.453162,-0.20392 0.453162,-0.45316 z m -0.906323,-0.90632 c 0,-0.24924 -0.203923,-0.45316 -0.453162,-0.45316 -0.249239,0 -0.453162,0.20392 -0.453162,0.45316 0,0.24924 0.203923,0.45316 0.453162,0.45316 0.249239,0 0.453162,-0.20392 0.453162,-0.45316 z m 4.078457,-0.90633 c 0,-0.24923 -0.08993,-0.45316 -0.199836,-0.45316 -0.10991,0 -0.325869,0.20393 -0.479907,0.45316 -0.154039,0.24924 -0.06411,0.45317 0.199835,0.45317 0.263949,0 0.479908,-0.20393 0.479908,-0.45317 z M 37.40866,178.5416 c 0,-0.24924 -0.08993,-0.45316 -0.199836,-0.45316 -0.10991,0 -0.325868,0.20392 -0.479907,0.45316 -0.154039,0.24924 -0.06411,0.45316 0.199835,0.45316 0.263949,0 0.479908,-0.20392 0.479908,-0.45316 z m -40.3426241,6.99451 c -0.51753,-1.36121 -0.54936,-2.26568 -0.15001,-4.26246 0.26368,-1.31837 0.41651,-1.43479 1.57845,-1.20241 1.12325004,0.22465 1.27310004,0.12973 1.18084004,-0.74799 -0.0777,-0.73922 0.16597,-1.04424 0.92066,-1.15245 0.56448996,-0.0809 0.90931996,-0.3365 0.76628996,-0.56792 -0.14302,-0.23142 0.0483,-0.42076 0.42512,-0.42076 1.37734,0 2.92775,1.04903 3.71734,2.5152 1.3776,2.55804 -0.37192,5.00094 -2.79185,3.89835 -0.64485,-0.29381 -1.10401,-0.88758 -1.10401,-1.42769 0,-0.76003 0.20172,-0.87404 1.13291,-0.64033 0.94012,0.23595 1.1329,0.12175 1.1329,-0.67111 0,-0.5255 0.20393,-0.95545 0.45317,-0.95545 0.24924,0 0.45316,-0.22889 0.45316,-0.50865 0,-0.35293 -0.17341,-0.36623 -0.56645,-0.0434 -0.31155,0.25587 -1.07216,0.53575 -1.69024,0.62194 -0.75694,0.10555 -1.27259,0.58149 -1.57961996,1.45796 -0.41236,1.17714 -0.30969,1.42325 1.07648996,2.58048 l 1.53232,1.27924 -1.31219,0.28924 c -0.7217,0.15908 -1.90340996,0.47631 -2.62600996,0.70494 -1.88368004,0.596 -2.05821004,0.54488 -2.54927004,-0.74671 z m 1.3707,-0.85008 c 0,-0.10991 -0.20392,-0.32587 -0.45316,-0.4799 -0.24924,-0.15404 -0.45316,-0.0641 -0.45316,0.19983 0,0.26395 0.20392,0.47991 0.45316,0.47991 0.24924,0 0.45316,-0.0899 0.45316,-0.19984 z m 2.49239004,-0.25332 c 0.15403996,-0.24924 0.0641,-0.45316 -0.19983,-0.45316 -0.26395,0 -0.47991,0.20392 -0.47991,0.45316 0,0.24924 0.0899,0.45316 0.19984,0.45316 0.10991,0 0.32586,-0.20392 0.4799,-0.45316 z m -2.94555004,-1.35949 c 0,-0.24924 -0.0899,-0.45316 -0.19984,-0.45316 -0.10991,0 -0.32586,0.20392 -0.4799,0.45316 -0.15404,0.24924 -0.0641,0.45316 0.19983,0.45316 0.26395,0 0.47991,-0.20392 0.47991,-0.45316 z m 1.13290004,-0.45316 c 0.15404,-0.24924 0.0641,-0.45316 -0.19983004,-0.45316 -0.26395,0 -0.47991,0.20392 -0.47991,0.45316 0,0.24924 0.0899,0.45316 0.19984,0.45316 0.10991,0 0.32587,-0.20392 0.47990004,-0.45316 z m 6.11768996,-1.81265 c 0,-0.24924 -0.0899,-0.45316 -0.19984,-0.45316 -0.10991,0 -0.32586,0.20392 -0.4799,0.45316 -0.15404,0.24924 -0.0641,0.45316 0.19983,0.45316 0.26395,0 0.47991,-0.20392 0.47991,-0.45316 z m 9.8106821,5.09433 c -0.425924,-0.68916 0.143129,-1.92219 0.887105,-1.92219 0.795123,0 0.801719,0.49998 0.02069,1.5681 -0.384494,0.52582 -0.720623,0.65693 -0.907794,0.35409 z m 11.887424,-0.44942 c -0.02951,-0.18693 -0.02446,-0.50797 0.01123,-0.71343 0.03569,-0.20545 -0.129993,-0.2531 -0.368186,-0.10589 -0.238192,0.14721 -0.561164,0.0604 -0.717715,-0.1929 -0.157603,-0.25501 0.131795,-0.46055 0.648429,-0.46055 0.63096,0 0.933068,0.29344 0.933068,0.90632 0,0.85716 -0.391785,1.29504 -0.506826,0.56645 z m 12.515616,-0.11329 c 1.237757,-0.53188 1.586067,-0.53188 1.586067,0 0,0.24924 -0.560788,0.43883 -1.246196,0.42131 -1.104283,-0.0282 -1.142987,-0.0762 -0.339871,-0.42131 z m -17.809262,-1.90328 c -0.714968,-0.71497 -0.69936,-2.9432 0.02266,-3.23454 0.453162,-0.18286 0.453162,-0.23572 0,-0.26434 -0.365569,-0.0231 -0.552082,-0.71879 -0.525932,-1.96172 l 0.04052,-1.92594 0.565941,2.03923 c 0.311267,1.12158 0.924032,2.72904 1.361699,3.57214 0.653143,1.25819 0.68658,1.6021 0.186572,1.919 -0.811231,0.51414 -1.010881,0.49675 -1.65146,-0.14383 z m -2.959981,-0.7445 c 0.08483,-0.3347 0.277087,-1.09801 0.427231,-1.69622 0.150144,-0.59822 0.452823,-0.97654 0.67262,-0.84069 0.219797,0.13584 0.306966,-0.0185 0.193708,-0.34301 -0.113257,-0.32449 -0.01719,-1.30371 0.213482,-2.17605 0.343215,-1.29794 0.400826,-0.95362 0.317137,1.89544 -0.103008,3.50676 -0.500879,4.7071 -1.190423,3.59139 -0.205517,-0.33253 -0.466891,-0.42859 -0.580832,-0.21345 -0.113941,0.21513 -0.137757,0.11729 -0.05292,-0.21741 z m -18.88241906,-6.14039 c 0,-0.098 0.30588,-0.29548 0.67974,-0.43894 0.37386,-0.14347 0.67973996,-0.0633 0.67973996,0.1781 0,0.24141 -0.30587996,0.43894 -0.67973996,0.43894 -0.37386,0 -0.67974,-0.0802 -0.67974,-0.1781 z m -0.55723,-2.65669 c -0.10933,-1.05788 -0.12282,-2.14185 -0.03,-2.40883 0.19274,-0.55421 2.73567996,-0.29763 3.11379996,0.31417 0.37231,0.60242 -1.61139996,3.17577 -2.17809996,2.82553 -0.27921,-0.17256 -0.35828,-0.0912 -0.18454,0.18994 0.1672,0.27052 0.11805,0.60678 -0.10921,0.74723 -0.22725,0.14046 -0.50264,-0.61016 -0.61197,-1.66804 z m 1.91670996,-0.33735 c 0,-0.24924 -0.21595996,-0.45316 -0.47989996,-0.45316 -0.26395,0 -0.35388,0.20392 -0.19984,0.45316 0.15404,0.24924 0.37,0.45316 0.47991,0.45316 0.10990996,0 0.19982996,-0.20392 0.19982996,-0.45316 z m -0.67973996,-1.35948 c 0.15404,-0.24924 0.0641,-0.45317 -0.19984,-0.45317 -0.26394,0 -0.4799,0.20393 -0.4799,0.45317 0,0.24924 0.0899,0.45316 0.19983,0.45316 0.10991,0 0.32587,-0.20392 0.47991,-0.45316 z m 0.45316,-1.57699 c -0.24924,-0.086 -1.06493,-0.29372 -1.81265,-0.46158 l -1.35948004,-0.3052 1.27279004,-0.66917 c 1.05007,-0.55208 1.24831,-0.92126 1.1329,-2.10983 -0.14429,-1.48607 -1.72595004,-2.4489 -1.72595004,-1.05066 0,0.37974 0.35687,0.90077 0.79303004,1.15784 0.69166,0.40764 0.70614,0.52549 0.1133,0.9219 -1.48356004,0.99199 -2.83227004,-0.01 -2.83227004,-2.10334 0,-1.35606 1.15033,-2.41305 2.62613004,-2.41305 1.16746,0 3.87354996,2.3273 3.03217996,2.60775 -0.30813,0.10271 -0.56024,0.3955 -0.56024,0.65063 0,0.25514 0.31752,0.34204 0.70559,0.19312 0.58211,-0.22337 0.68124,0.0649 0.56646,1.64697 -0.13359,1.84117 -0.67306,2.3759 -1.95178996,1.93462 z m 0.45315996,-4.76728 c 0.15404,-0.24924 0.0641,-0.45316 -0.19983,-0.45316 -0.26394996,0 -0.47990996,0.20392 -0.47990996,0.45316 0,0.24924 0.0899,0.45316 0.19984,0.45316 0.10990996,0 0.32586996,-0.20392 0.47989996,-0.45316 z m -2.49239,-1.46849 c 0,-0.52846 -0.45093,-0.41113 -1.16527,0.30322 -0.93554,0.93553 -0.79493,1.2651 0.25895,0.60694 0.49848,-0.3113 0.90632,-0.72088 0.90632,-0.91016 z m 40.4447021,4.3405 c -1.350518,-0.54494 0.07755,-4.83126 1.88383,-5.65425 0.932852,-0.42504 1.364117,-0.37022 2.393388,0.30418 0.737947,0.48352 1.025809,0.8992 0.698304,1.00837 -0.306455,0.10215 -0.557194,0.39448 -0.557194,0.64961 0,0.25514 0.305884,0.34651 0.679743,0.20304 0.802119,-0.3078 0.844793,-0.0849 0.210638,1.09999 -0.508937,0.95095 -1.567527,1.16081 -2.035553,0.40352 -0.160786,-0.26015 -0.04589,-0.76996 0.255321,-1.1329 0.439775,-0.52989 0.40809,-0.65989 -0.160823,-0.65989 -1.022152,0 -1.325924,0.72977 -0.972875,2.3372 0.198938,0.90576 0.43257,1.2095 0.654334,0.85068 0.189703,-0.30695 0.728322,-0.46816 1.196936,-0.35824 0.714981,0.1677 0.646835,0.2842 -0.423674,0.72433 -1.310549,0.53881 -2.823063,0.62759 -3.822375,0.22436 z m 4.87149,-2.41885 c 0,-0.24924 -0.203923,-0.45316 -0.453162,-0.45316 -0.249239,0 -0.453162,0.20392 -0.453162,0.45316 0,0.24924 0.203923,0.45316 0.453162,0.45316 0.249239,0 0.453162,-0.20392 0.453162,-0.45316 z m -0.679743,-2.26581 c 0.154039,-0.24924 0.06411,-0.45316 -0.199835,-0.45316 -0.263949,0 -0.479908,0.20392 -0.479908,0.45316 0,0.24924 0.08993,0.45316 0.199836,0.45316 0.109909,0 0.325868,-0.20392 0.479907,-0.45316 z m -23.668523,-1.43056 -1.010429,-3.097 0.977776,-4.54364 c 0.537777,-2.499 1.131981,-4.3862 1.320455,-4.19378 0.188474,0.19243 0.869825,2.64624 1.514115,5.45292 l 1.171435,5.10305 -1.481461,2.18773 -1.481462,2.18772 z m 2.37903,-1.91253 c 0.466259,-0.46626 0.416267,-0.6762 -0.261864,-1.0997 -0.500954,-0.31285 -0.943583,-0.35282 -1.100241,-0.0993 -0.144156,0.23325 -0.612437,0.3118 -1.040623,0.17456 -0.606919,-0.19454 -0.640866,-0.1514 -0.154012,0.1957 0.343481,0.24489 0.51055,0.62964 0.371266,0.855 -0.39644,0.64146 1.541044,0.61821 2.185474,-0.0262 z m -1.821763,-2.09485 c 0.154038,-0.24924 0.06411,-0.45316 -0.199837,-0.45316 -0.263948,0 -0.479906,0.20392 -0.479906,0.45316 0,0.24924 0.08993,0.45316 0.199837,0.45316 0.10991,0 0.325868,-0.20392 0.479906,-0.45316 z m -23.5787931,0.26823 c -0.83801,-1.27896 -0.62464,-2.53404 0.4308,-2.53404 0.36929,0 0.89734,-0.35686 1.17343,-0.79303 0.34048,-0.53789 0.57583004,-0.61898 0.73153004,-0.25204 0.12626,0.29755 0.52227,0.42867 0.88003,0.29139 0.40206,-0.15429 0.65046,0.0339 0.65046,0.49284 0,0.40834 -0.30588,0.85983 -0.67974,1.00329 -0.37386,0.14346 -0.67974,0.5133 -0.67974,0.82187 0,0.30856 -0.39190004,0.91568 -0.87088004,1.34915 -0.83382,0.75459 -0.90344,0.73845 -1.63589,-0.37943 z m 2.0536,-1.17455 c 0,-0.24924 -0.20392,-0.45317 -0.45316,-0.45317 -0.24924,0 -0.45316,0.20393 -0.45316,0.45317 0,0.24924 0.20392,0.45316 0.45316,0.45316 0.24924,0 0.45316,-0.20392 0.45316,-0.45316 z m 18.5796411,33.7873 c 0,-0.10991 -0.203923,-0.32587 -0.453162,-0.47991 -0.249239,-0.15403 -0.453162,-0.0641 -0.453162,0.19984 0,0.26395 0.203923,0.47991 0.453162,0.47991 0.249239,0 0.453162,-0.0899 0.453162,-0.19984 z m 2.321128,-1.01237 c -0.534208,-0.91866 -0.663208,-0.62462 -0.225917,0.51495 0.15541,0.40499 0.378026,0.64088 0.4947,0.52421 0.116675,-0.11668 -0.0043,-0.5843 -0.268783,-1.03916 z m 2.718971,0 c -0.534207,-0.91866 -0.663208,-0.62462 -0.225916,0.51495 0.15541,0.40499 0.378025,0.64088 0.4947,0.52421 0.116675,-0.11668 -0.0043,-0.5843 -0.268784,-1.03916 z m 1.151126,-1.16689 c -0.125713,-0.31155 -0.228569,-0.0566 -0.228569,0.56645 0,0.6231 0.102856,0.878 0.228569,0.56645 0.125712,-0.31155 0.125712,-0.82135 0,-1.1329 z m 11.482088,-3.05885 c 0,-0.24923 -0.215959,-0.45316 -0.479907,-0.45316 -0.263949,0 -0.353874,0.20393 -0.199836,0.45316 0.154039,0.24924 0.369998,0.45317 0.479908,0.45317 0.10991,0 0.199835,-0.20393 0.199835,-0.45317 z m -1.132905,-0.90632 c 0.154039,-0.24924 0.06411,-0.45316 -0.199835,-0.45316 -0.263949,0 -0.479907,0.20392 -0.479907,0.45316 0,0.24924 0.08993,0.45316 0.199836,0.45316 0.109911,0 0.325868,-0.20392 0.479906,-0.45316 z M 8.1641619,182.23481 c -0.255338,-0.26879 -1.117346,0.41244 -1.117346,0.88302 0,0.24436 0.28531,0.18134 0.634035,-0.14003 0.34872,-0.32138 0.56621,-0.65572 0.483311,-0.74299 z M 26.079612,178.5416 c 0,-0.24924 -0.215957,-0.45316 -0.479906,-0.45316 -0.263948,0 -0.353875,0.20392 -0.199836,0.45316 0.154038,0.24924 0.369995,0.45316 0.479906,0.45316 0.10991,0 0.199836,-0.20392 0.199836,-0.45316 z m -30.1352661,-0.45316 c 0.15404,-0.24924 0.0641,-0.45316 -0.19984,-0.45316 -0.26394,0 -0.4799,0.20392 -0.4799,0.45316 0,0.24924 0.0899,0.45316 0.19983,0.45316 0.10992,0 0.32587,-0.20392 0.47991,-0.45316 z m 11.10247,-1.35948 c 0,-0.24924 -0.21596,-0.45317 -0.47991,-0.45317 -0.26395,0 -0.35387,0.20393 -0.19984,0.45317 0.15404,0.24923 0.37,0.45316 0.47991,0.45316 0.10991,0 0.19984,-0.20393 0.19984,-0.45316 z m 19.9391201,-0.653 c 0,-0.10991 -0.203923,-0.32587 -0.453162,-0.47991 -0.249239,-0.15404 -0.453162,-0.0641 -0.453162,0.19984 0,0.26395 0.203923,0.4799 0.453162,0.4799 0.249239,0 0.453162,-0.0899 0.453162,-0.19983 z m 19.485961,-1.15965 c 0,-0.24924 -0.215959,-0.45316 -0.479907,-0.45316 -0.263949,0 -0.353874,0.20392 -0.199836,0.45316 0.154039,0.24924 0.369998,0.45316 0.479908,0.45316 0.10991,0 0.199835,-0.20392 0.199835,-0.45316 z m -49.1356911,-1.10054 c 0.71434,-0.71434 0.83168,-1.16527 0.30321,-1.16527 -0.18928,0 -0.59885,0.40784 -0.91016,0.90632 -0.65816,1.05388 -0.32859,1.19449 0.60695,0.25895 z m 25.5712731,-1.61843 c 0,-0.24924 -0.203923,-0.45317 -0.453162,-0.45317 -0.249239,0 -0.453162,0.20393 -0.453162,0.45317 0,0.24924 0.203923,0.45316 0.453162,0.45316 0.249239,0 0.453162,-0.20392 0.453162,-0.45316 z M 5.6873259,171.74417 c 0,-0.24923 -0.0899,-0.45316 -0.19984,-0.45316 -0.10991,0 -0.32586,0.20393 -0.4799,0.45316 -0.15404,0.24924 -0.0641,0.45317 0.19984,0.45317 0.26394,0 0.4799,-0.20393 0.4799,-0.45317 z m 19.4859631,-1.9005 c 0,-0.23652 -0.305885,-0.12416 -0.679743,0.2497 -0.373859,0.37386 -0.679743,0.82124 -0.679743,0.99418 0,0.17294 0.305884,0.0606 0.679743,-0.2497 0.373858,-0.31027 0.679743,-0.75766 0.679743,-0.99418 z m 21.298608,-1.27163 c 0,-0.24924 -0.203923,-0.45316 -0.453162,-0.45316 -0.249239,0 -0.453162,0.20392 -0.453162,0.45316 0,0.24924 0.203923,0.45316 0.453162,0.45316 0.249239,0 0.453162,-0.20392 0.453162,-0.45316 z m -22.023693,-1.50727 c 0.32063,-0.24079 0.255961,-0.30824 -0.181239,-0.18903 -0.373859,0.10193 -0.727128,0.57629 -0.785042,1.05411 -0.07399,0.61043 -0.02009,0.66664 0.181239,0.18903 0.157597,-0.37386 0.510865,-0.84821 0.785042,-1.05411 z m -10.603962,0.60095 c 0,-0.24924 -0.203923,-0.45316 -0.453162,-0.45316 -0.249239,0 -0.453162,0.20392 -0.453162,0.45316 0,0.24924 0.203923,0.45316 0.453162,0.45316 0.249239,0 0.453162,-0.20392 0.453162,-0.45316 z m 9.289818,-0.90633 c 0.154039,-0.24924 0.06411,-0.45316 -0.199836,-0.45316 -0.263949,0 -0.479907,0.20392 -0.479907,0.45316 0,0.24924 0.08993,0.45317 0.199837,0.45317 0.10991,0 0.325868,-0.20393 0.479906,-0.45317 z m 11.063676,-1.35948 c -0.01641,-0.4482 -0.157574,-0.37102 -0.414372,0.22658 -0.53533,1.24578 -0.53533,1.96127 0,1.1329 0.241608,-0.37385 0.428075,-0.98562 0.414372,-1.35948 z m -19.900333,0.45316 c 0,-0.24924 -0.203922,-0.45316 -0.453161,-0.45316 -0.249239,0 -0.453162,0.20392 -0.453162,0.45316 0,0.24924 0.203923,0.45316 0.453162,0.45316 0.249239,0 0.453161,-0.20392 0.453161,-0.45316 z M 4.1012659,165.39991 c 0.15403,-0.24924 0.0641,-0.45316 -0.19984,-0.45316 -0.26395,0 -0.47991,0.20392 -0.47991,0.45316 0,0.24924 0.0899,0.45316 0.19984,0.45316 0.10991,0 0.32587,-0.20392 0.47991,-0.45316 z m 9.2898141,-0.25895 c 0,-0.14242 -0.315595,-0.57455 -0.701322,-0.96027 -0.884876,-0.88488 -1.416496,-0.44162 -0.590588,0.49243 0.618916,0.69995 1.29191,0.94366 1.29191,0.46784 z m 1.359485,-0.64738 c 0,-0.24923 -0.203923,-0.45316 -0.453162,-0.45316 -0.249239,0 -0.453161,0.20393 -0.453161,0.45316 0,0.24924 0.203922,0.45317 0.453161,0.45317 0.249239,0 0.453162,-0.20393 0.453162,-0.45317 z m 0.453162,-1.10616 c 0,-0.10991 -0.203923,-0.32586 -0.453162,-0.4799 -0.249239,-0.15404 -0.453162,-0.0641 -0.453162,0.19983 0,0.26395 0.203923,0.47991 0.453162,0.47991 0.249239,0 0.453162,-0.0899 0.453162,-0.19984 z m 19.222316,-0.52839 c 0.394247,-0.15128 0.716807,-0.49795 0.716807,-0.77037 0,-0.35054 -0.148592,-0.34672 -0.508384,0.0131 -0.27961,0.27961 -0.82287,0.3877 -1.207241,0.2402 -0.45883,-0.17607 -0.586322,-0.0861 -0.371198,0.262 0.379331,0.61377 0.417051,0.62079 1.370016,0.2551 z m 11.13953,-1.08442 c 0,-0.24924 -0.203922,-0.45316 -0.453161,-0.45316 -0.249239,0 -0.453162,0.20392 -0.453162,0.45316 0,0.24924 0.203923,0.45316 0.453162,0.45316 0.249239,0 0.453161,-0.20392 0.453161,-0.45316 z m -10.846094,-0.4691 c 0.482092,-0.25801 0.876533,-0.67303 0.876533,-0.92227 0,-0.29661 -0.302807,-0.29111 -0.876533,0.0159 -1.143911,0.6122 -1.519977,0.59404 -1.119422,-0.0541 0.213783,-0.34591 0.122684,-0.39917 -0.268852,-0.15718 -0.469696,0.29028 -0.526643,-0.0439 -0.275299,-1.61576 0.412815,-2.5816 1.140742,-2.99402 2.202609,-1.24792 0.461727,0.75924 0.958093,1.26185 1.103046,1.1169 0.144948,-0.14495 -0.04998,-0.74204 -0.433159,-1.32686 -0.383189,-0.58481 -0.904575,-1.81613 -1.158631,-2.73625 -0.403065,-1.45978 -0.351173,-1.73222 0.407257,-2.13812 0.81193,-0.43453 0.764815,-0.5568 -0.715407,-1.85645 -1.750621,-1.53707 -2.227731,-3.03297 -0.707927,-2.21959 0.805112,0.43088 3.201804,-0.0356 3.201804,-0.62315 0,-1.13993 -1.200644,-2.66484 -2.700714,-3.43012 -1.916322,-0.97763 -2.458858,-2.27512 -0.951326,-2.27512 0.483767,0 1.015276,-0.21956 1.181129,-0.48792 0.1952,-0.31584 -0.154954,-0.4357 -0.992871,-0.33987 -1.023876,0.1171 -1.323957,0.40405 -1.435748,1.37289 -0.09599,0.83193 0.143894,1.40297 0.747817,1.78013 0.500443,0.31253 0.791173,0.86666 0.665034,1.26754 -0.19481,0.61914 -0.161741,0.62389 0.252928,0.0363 0.613677,-0.86957 1.672427,0.0471 1.268918,1.09866 -0.348939,0.90932 -2.113624,0.93475 -2.113624,0.0305 0,-0.37386 -0.305885,-0.67974 -0.679743,-0.67974 -0.705482,0 -0.934619,-0.68826 -0.339872,-1.02087 0.18693,-0.10454 0.0915,-0.13044 -0.212068,-0.0576 -0.748666,0.17975 -1.186433,-0.60792 -0.470498,-0.84657 0.313102,-0.10437 -0.05949,-0.18976 -0.827973,-0.18976 -0.831891,0 -1.397249,0.23429 -1.397249,0.57904 0,0.31847 0.220916,0.53939 0.490925,0.49093 0.270009,-0.0485 0.43606,0.24674 0.369002,0.656 -0.07749,0.47295 0.170141,0.72066 0.679523,0.67975 1.031912,-0.0829 1.311215,1.62921 0.390443,2.39338 -0.895225,0.74298 -1.738399,0.19071 -1.3891,-0.90983 0.16062,-0.50607 0.06183,-0.86819 -0.23686,-0.86819 -0.305125,0 -0.454966,0.59578 -0.370408,1.47278 0.128374,1.33143 0.283341,1.47235 1.614778,1.46839 1.32907,-0.004 1.472776,0.1258 1.472776,1.3297 0,0.73375 -0.431189,2.2248 -0.958199,3.31346 -1.028182,2.12394 -0.890003,3.26274 0.154099,1.27 0.602585,-1.15008 0.625388,-1.10368 0.601916,1.2247 -0.01601,1.58753 0.252009,2.84237 0.779083,3.64769 0.907106,1.38595 0.963011,1.40548 2.171863,0.75852 z m -2.024715,-5.30217 c -0.43732,-0.43732 -0.310347,-1.10403 0.155434,-0.81616 0.250196,0.15463 0.341542,-0.44277 0.221111,-1.44604 l -0.205209,-1.70951 0.650738,1.58607 c 0.357907,0.87234 0.666252,1.71719 0.685212,1.87745 0.04924,0.41616 -1.183648,0.83183 -1.507286,0.50819 z m -21.116332,3.50546 c 0,-0.24924 -0.203923,-0.45316 -0.453162,-0.45316 -0.249239,0 -0.453162,0.20392 -0.453162,0.45316 0,0.24924 0.203923,0.45317 0.453162,0.45317 0.249239,0 0.453162,-0.20393 0.453162,-0.45317 z m 29.228942,0 c -0.154039,-0.24924 -0.624901,-0.43883 -1.04636,-0.42131 -0.624679,0.026 -0.598804,0.10382 0.140036,0.42131 1.21262,0.52108 1.228368,0.52108 0.906324,0 z m -27.869456,-0.25895 c 0,-0.14242 -0.305884,-0.56483 -0.679743,-0.93869 -0.737775,-0.73777 -0.830174,-0.62799 -0.404679,0.48084 0.258527,0.67371 1.084422,1.02241 1.084422,0.45785 z m 31.163005,-1.10053 c 0.311304,-0.49848 0.447751,-0.90633 0.303219,-0.90633 -0.339259,0 -1.55754,1.21528 -1.55754,1.5537 0,0.57653 0.72302,0.20337 1.254321,-0.64737 z m -3.52013,-0.45316 c 0,-0.24924 -0.08993,-0.45317 -0.199836,-0.45317 -0.109909,0 -0.325868,0.20393 -0.479907,0.45317 -0.154039,0.24924 -0.06411,0.45316 0.199835,0.45316 0.263949,0 0.479908,-0.20392 0.479908,-0.45316 z m -4.078457,-1.81265 c 0,-0.24924 -0.215959,-0.45316 -0.479908,-0.45316 -0.263948,0 -0.353874,0.20392 -0.199835,0.45316 0.154039,0.24924 0.369998,0.45316 0.479907,0.45316 0.10991,0 0.199836,-0.20392 0.199836,-0.45316 z m 6.344266,0 c 0,-0.24924 -0.203923,-0.45316 -0.453162,-0.45316 -0.249239,0 -0.453162,0.20392 -0.453162,0.45316 0,0.24924 0.203923,0.45316 0.453162,0.45316 0.249239,0 0.453162,-0.20392 0.453162,-0.45316 z m -32.627656,-0.45316 c 0,-0.24924 -0.08993,-0.45317 -0.199836,-0.45317 -0.1099111,0 -0.3258681,0.20393 -0.4799061,0.45317 -0.154039,0.24924 -0.06411,0.45316 0.199836,0.45316 0.2639491,0 0.4799061,-0.20392 0.4799061,-0.45316 z m 0.453162,-1.35949 c 0,-0.24924 -0.08993,-0.45316 -0.199836,-0.45316 -0.109911,0 -0.325868,0.20392 -0.4799061,0.45316 -0.154039,0.24924 -0.06411,0.45316 0.1998361,0.45316 0.263948,0 0.479906,-0.20392 0.479906,-0.45316 z m 19.939123,0 c 0,-0.24924 -0.215958,-0.45316 -0.479906,-0.45316 -0.263948,0 -0.353875,0.20392 -0.199837,0.45316 0.154039,0.24924 0.369996,0.45316 0.479907,0.45316 0.10991,0 0.199836,-0.20392 0.199836,-0.45316 z m -14.594137,-2.6044 c -0.259148,-0.31225 -0.701114,-0.56461 -0.982145,-0.56079 -0.301322,0.004 -0.258659,0.1668 0.103981,0.39658 0.404863,0.25654 0.504962,0.75731 0.293003,1.46584 -0.312973,1.0462 -0.302741,1.05097 0.367198,0.17115 0.48837,-0.64137 0.551871,-1.07044 0.217963,-1.47278 z m 21.391566,1.69808 c 0,-0.24924 -0.203923,-0.45316 -0.453162,-0.45316 -0.249239,0 -0.453162,0.20392 -0.453162,0.45316 0,0.24924 0.203923,0.45316 0.453162,0.45316 0.249239,0 0.453162,-0.20392 0.453162,-0.45316 z m 9.063237,0 c 0,-0.24924 -0.215959,-0.45316 -0.479907,-0.45316 -0.263949,0 -0.353874,0.20392 -0.199836,0.45316 0.154039,0.24924 0.369998,0.45316 0.479908,0.45316 0.10991,0 0.199835,-0.20392 0.199835,-0.45316 z M 1.1557059,152.71138 c 0,-0.24924 -0.20391996,-0.45317 -0.45315996,-0.45317 -0.24924,0 -0.45316,0.20393 -0.45316,0.45317 0,0.24923 0.20392,0.45316 0.45316,0.45316 0.24924,0 0.45315996,-0.20393 0.45315996,-0.45316 z m 9.9695641,0 c 0,-0.24924 -0.203923,-0.45317 -0.453162,-0.45317 -0.249239,0 -0.453162,0.20393 -0.453162,0.45317 0,0.24923 0.203923,0.45316 0.453162,0.45316 0.249239,0 0.453162,-0.20393 0.453162,-0.45316 z m -14.9543441,-1.35949 c 0,-0.24924 -0.20392,-0.45316 -0.45316,-0.45316 -0.24924,0 -0.45316,0.20392 -0.45316,0.45316 0,0.24924 0.20392,0.45316 0.45316,0.45316 0.24924,0 0.45316,-0.20392 0.45316,-0.45316 z m 4.53162004,0 c 0,-0.24924 -0.21596,-0.45316 -0.47991,-0.45316 -0.26394,0 -0.35387,0.20392 -0.19983,0.45316 0.15404,0.24924 0.36999,0.45316 0.4799,0.45316 0.10991,0 0.19984,-0.20392 0.19984,-0.45316 z M 17.374113,151.17101 c -0.321376,-0.34872 -0.65572,-0.56621 -0.742987,-0.48331 -0.268793,0.25534 0.41244,1.11735 0.883022,1.11735 0.244356,0 0.18134,-0.28532 -0.140035,-0.63404 z m 29.090846,-0.83873 c 0.0038,-0.18693 -0.196985,-0.33988 -0.446224,-0.33988 -0.249239,0 -0.450039,0.45883 -0.446224,1.01962 0.0056,0.8245 0.091,0.88954 0.446224,0.33987 0.241608,-0.37386 0.442409,-0.83269 0.446224,-1.01961 z m -36.9451081,0.1446 c 0.143395,-0.23202 0.05347,-0.54994 -0.199836,-0.70649 -0.253305,-0.15655 -0.460554,0.0333 -0.460554,0.42185 0,0.79599 0.271922,0.91319 0.66039,0.28464 z m 28.3419701,-0.0313 c 0,-0.24924 -0.215958,-0.45317 -0.479907,-0.45317 -0.263949,0 -0.353874,0.20393 -0.199835,0.45317 0.154038,0.24923 0.369997,0.45316 0.479907,0.45316 0.10991,0 0.199835,-0.20393 0.199835,-0.45316 z m -2.718971,-0.90633 c 0,-0.24924 -0.215959,-0.45316 -0.479907,-0.45316 -0.263949,0 -0.353874,0.20392 -0.199836,0.45316 0.154039,0.24924 0.369998,0.45316 0.479908,0.45316 0.10991,0 0.199835,-0.20392 0.199835,-0.45316 z m -24.470742,-0.45317 c 0,-0.24924 -0.215958,-0.45316 -0.479906,-0.45316 -0.2639481,0 -0.3538751,0.20392 -0.1998361,0.45316 0.1540381,0.24924 0.3699951,0.45316 0.4799061,0.45316 0.10991,0 0.199836,-0.20392 0.199836,-0.45316 z m -15.1809221,-1.35949 c 0.15404,-0.24923 0.0641,-0.45316 -0.19984,-0.45316 -0.26395,0 -0.4799,0.20393 -0.4799,0.45316 0,0.24924 0.0899,0.45317 0.19983,0.45317 0.10991,0 0.32587,-0.20393 0.47991,-0.45317 z m 21.9783511,-2.2658 c 0,-0.24924 -0.08993,-0.45317 -0.199837,-0.45317 -0.10991,0 -0.325868,0.20393 -0.479906,0.45317 -0.154039,0.24923 -0.06411,0.45316 0.199836,0.45316 0.263949,0 0.479907,-0.20393 0.479907,-0.45316 z m 27.642875,0.25332 c 0,-0.10991 -0.203923,-0.32587 -0.453162,-0.47991 -0.249239,-0.15403 -0.453162,-0.0641 -0.453162,0.19984 0,0.26395 0.203923,0.47991 0.453162,0.47991 0.249239,0 0.453162,-0.0899 0.453162,-0.19984 z m -28.096037,-3.42546 c 0,-0.24924 -0.203923,-0.45316 -0.453162,-0.45316 -0.249239,0 -0.453162,0.20392 -0.453162,0.45316 0,0.24924 0.203923,0.45316 0.453162,0.45316 0.249239,0 0.453162,-0.20392 0.453162,-0.45316 z"
       id="path11222" />
  </g>
</svg>
