<?xml version="1.0" encoding="UTF-8" standalone="no"?>
<!-- Created with Inkscape (http://www.inkscape.org/) -->

<svg
   width="38.905861mm"
   height="34.543072mm"
   viewBox="0 0 38.905861 34.543073"
   version="1.1"
   id="svg997"
   inkscape:version="1.1 (c4e8f9ed74, 2021-05-24)"
   sodipodi:docname="ornatem3.svg"
   xmlns:inkscape="http://www.inkscape.org/namespaces/inkscape"
   xmlns:sodipodi="http://sodipodi.sourceforge.net/DTD/sodipodi-0.dtd"
   xmlns="http://www.w3.org/2000/svg"
   xmlns:svg="http://www.w3.org/2000/svg">
  <sodipodi:namedview
     id="namedview999"
     pagecolor="#ffffff"
     bordercolor="#666666"
     borderopacity="1.0"
     inkscape:pageshadow="2"
     inkscape:pageopacity="0.0"
     inkscape:pagecheckerboard="0"
     inkscape:document-units="mm"
     showgrid="false"
     inkscape:zoom="1.5385816"
     inkscape:cx="-91.317875"
     inkscape:cy="156.3128"
     inkscape:window-width="2506"
     inkscape:window-height="1403"
     inkscape:window-x="1974"
     inkscape:window-y="0"
     inkscape:window-maximized="1"
     inkscape:current-layer="layer1" />
  <defs
     id="defs994" />
  <g
     inkscape:label="Layer 1"
     inkscape:groupmode="layer"
     id="layer1"
     transform="translate(-123.85772,-146.73238)">
    <path
       style="fill:#000000;stroke-width:0.264583"
       d="m 129.83872,180.6787 c -0.23758,-0.36259 -0.31527,-0.80375 -0.19803,-1.12448 0.24699,-0.67565 0.39131,-7.15704 0.31959,-14.35227 l -0.056,-5.6224 h -1.71048 c -2.14884,0 -2.25827,-0.17272 -2.25827,-3.5645 0,-2.47383 -0.0157,-2.53959 -0.59531,-2.48978 -1.5064,0.12946 -1.58539,0.058 -1.42299,-1.28791 0.0834,-0.69122 0.1521,-1.4056 0.15264,-1.5875 5.4e-4,-0.1819 0.006,-0.59862 0.0116,-0.92604 0.006,-0.32742 0.0145,-1.13444 0.0192,-1.79337 l 0.009,-1.19807 2.30217,0.0737 c 1.2662,0.0406 3.45694,0.10727 4.86832,0.14824 1.41139,0.041 2.64743,0.15578 2.74677,0.25512 0.0993,0.0993 0.39384,0.0665 0.65444,-0.073 0.2606,-0.13947 2.77503,-0.24934 5.58761,-0.24416 2.81258,0.005 5.5305,-0.0236 6.03983,-0.064 1.99687,-0.1583 4.52286,0.0249 5.23373,0.37949 0.61949,0.30904 0.8028,0.31282 1.07433,0.0221 0.18006,-0.19276 0.76917,-0.35603 1.30914,-0.36282 0.53996,-0.007 2.70687,-0.0264 4.81535,-0.0437 l 3.83358,-0.0314 -0.088,1.03589 c -0.0484,0.56974 -0.21048,1.18472 -0.36025,1.36662 -0.18747,0.22769 -0.18529,0.33073 0.007,0.33073 0.16802,0 0.25998,0.5799 0.23083,1.45556 -0.0266,0.80055 0.0619,1.49219 0.19683,1.53697 0.60184,0.19976 -0.24329,0.71164 -1.17495,0.71164 -0.98706,0 -1.03731,0.042 -1.18609,0.99219 -0.0855,0.5457 -0.20579,1.31392 -0.26743,1.70716 -0.0616,0.39324 0.0592,1.04506 0.26847,1.44849 0.49956,0.9629 0.0978,1.59494 -1.33094,2.09373 -1.15026,0.40156 -1.8545,0.30202 -1.55938,-0.22043 0.14547,-0.25753 0.11156,-0.26206 -0.15021,-0.0201 -0.26152,0.24173 -0.34521,2.52715 -0.36954,10.09239 -0.0296,9.20913 -0.003,9.81183 0.46364,10.32713 0.99699,1.10194 0.52777,1.26333 -4.21691,1.45046 -6.69034,0.26386 -19.16466,0.21559 -19.16466,-0.0742 0,-0.40004 0.58935,-0.65276 1.3815,-0.5924 0.40434,0.0308 0.73517,-0.057 0.73517,-0.19507 0,-0.1381 -0.36272,-0.24078 -0.80605,-0.22817 -0.44333,0.0126 -0.94935,-0.12781 -1.12448,-0.31202 -0.25421,-0.26739 -0.18504,-0.2995 0.34303,-0.15921 0.63569,0.16889 0.64145,0.15974 0.14787,-0.23484 -0.59068,-0.47221 -0.94162,-0.52662 -0.94162,-0.14599 0,0.14552 -0.1732,0.26458 -0.38488,0.26458 -0.23464,0 -0.45688,-0.38371 -0.56928,-0.98289 -0.30055,-1.60206 -0.27469,-21.05086 0.0281,-21.1482 0.27755,-0.0892 2.32833,3.35393 8.43771,14.16645 1.21276,2.14638 1.95529,3.20037 2.2179,3.14823 0.37553,-0.0746 1.64067,-2.30504 4.99687,-8.80963 3.49305,-6.76981 5.00078,-9.48136 5.2496,-9.44105 0.4008,0.0649 0.62758,7.3969 0.49457,15.98949 l -0.11776,7.60677 h 1.02919 1.02919 l -0.0943,-6.28386 c -0.0519,-3.45612 1.1e-4,-10.09385 0.11547,-14.75052 0.11535,-4.65667 0.14564,-8.54804 0.0673,-8.64749 -0.0783,-0.0995 -0.54782,-0.0969 -1.04329,0.006 -0.86172,0.17842 -1.00751,0.39899 -3.35493,5.07562 -1.34974,2.68901 -3.25673,6.55597 -4.23776,8.59326 -2.46226,5.11336 -3.57154,7.01146 -4.09763,7.01146 -0.47246,0 -1.65689,-1.95376 -5.13273,-8.46666 -1.1261,-2.11006 -2.86212,-5.21394 -3.85782,-6.89752 -0.9957,-1.68359 -1.95942,-3.61835 -2.14159,-4.29948 -0.31237,-1.1679 -0.38259,-1.23842 -1.23325,-1.23842 -0.80595,0 -0.88517,0.0634 -0.74372,0.59531 0.20505,0.77115 0.57423,16.39426 0.53299,22.55573 -0.0175,2.61938 -0.1537,5.26852 -0.3026,5.88698 -0.25919,1.07656 -0.24468,1.12448 0.34055,1.12448 0.33621,0 0.67134,0.14883 0.74474,0.33073 0.10676,0.26458 0.13763,0.26458 0.15434,0 0.0125,-0.19761 0.39363,-0.33073 0.94693,-0.33073 0.74966,0 0.92604,0.10079 0.92604,0.52917 0,0.57903 -0.66888,0.72933 -0.8831,0.19843 -0.10676,-0.26458 -0.13763,-0.26458 -0.15434,0 -0.0133,0.21113 -0.44046,0.33073 -1.18108,0.33073 -0.912,0 -1.24384,-0.12765 -1.55116,-0.59668 z m 14.6176,0.0736 c 0,-0.14216 -0.28967,-0.44828 -0.64371,-0.68026 -0.52646,-0.34495 -0.75309,-0.36324 -1.24413,-0.10045 -0.44427,0.23777 -0.62663,0.24266 -0.70125,0.0188 -0.0555,-0.1664 -0.38501,-0.30254 -0.73233,-0.30254 -0.39485,0 -0.85139,-0.29743 -1.21833,-0.79375 -0.56811,-0.76841 -1.24283,-1.13278 -0.8574,-0.46302 0.10468,0.1819 0.0884,0.23799 -0.0361,0.12464 -0.36194,-0.32939 -0.38638,-1.08581 -0.0421,-1.30466 0.23216,-0.14759 0.21966,-0.20201 -0.0471,-0.20499 -0.29518,-0.003 -0.30056,-0.0794 -0.0287,-0.40698 0.27961,-0.33691 0.26324,-0.37563 -0.0999,-0.23628 -0.24149,0.0927 -0.4343,0.0366 -0.4343,-0.12623 0,-0.16109 0.17859,-0.29289 0.39687,-0.29289 0.21829,0 0.39688,-0.11533 0.39688,-0.25628 0,-0.14096 -0.17859,-0.18775 -0.39688,-0.10399 -0.21828,0.0838 -0.39687,0.0205 -0.39687,-0.14059 0,-0.16109 0.17859,-0.29289 0.39687,-0.29289 0.24203,0 0.39688,-0.24662 0.39688,-0.63206 0,-0.42471 -0.14255,-0.62001 -0.43454,-0.59532 -0.239,0.0202 -0.48705,-0.11208 -0.55122,-0.29398 -0.0692,-0.19608 0.10774,-0.33073 0.43454,-0.33073 0.42592,0 0.5503,-0.16539 0.54717,-0.7276 -0.003,-0.58842 -0.0583,-0.65169 -0.28754,-0.33073 -0.22162,0.31026 -0.24882,0.25252 -0.12465,-0.26458 0.42869,-1.78534 0.46322,-2.80664 0.10494,-3.10398 -0.23692,-0.19663 -0.50604,-0.21797 -0.75591,-0.0599 -0.32179,0.20352 -0.30632,0.24609 0.0906,0.24945 0.273,0.002 0.40321,0.1261 0.30308,0.28812 -0.26335,0.4261 -0.31223,2.4112 -0.0761,3.08937 0.11401,0.32742 0.10841,0.59531 -0.0125,0.59531 -0.12087,0 -0.34389,-0.38695 -0.49561,-0.8599 l -0.27585,-0.85989 -0.027,1.06008 c -0.0149,0.58304 0.0844,1.44854 0.22057,1.92333 0.13617,0.47479 0.15588,0.80659 0.0438,0.73732 -0.11208,-0.0693 -0.18488,0.49398 -0.16178,1.25166 0.0449,1.47229 -0.38363,2.67062 -1.04586,2.92474 -0.22366,0.0858 -0.40666,0.27511 -0.40666,0.42064 0,0.387 0.85405,-0.004 1.38026,-0.63199 0.43675,-0.52119 0.45456,-0.52249 0.46302,-0.0337 0.0116,0.672 -0.73754,1.47763 -1.20668,1.2976 -0.20461,-0.0785 -0.37202,-0.011 -0.37202,0.15014 0,0.16109 0.18642,0.29289 0.41427,0.29289 0.65317,0 1.43782,-0.51045 1.43782,-0.93535 0,-0.59059 0.75952,-0.46341 1.63575,0.27389 0.8701,0.73214 1.24124,0.78807 2.59933,0.39168 0.74627,-0.21782 0.97499,-0.19234 1.18752,0.13229 0.29722,0.45399 0.66281,0.53319 0.66281,0.14358 z m -5.44621,-0.44039 c 0.13935,-0.36314 0.10063,-0.3795 -0.23627,-0.0999 -0.45912,0.38104 -0.5069,0.5342 -0.16666,0.5342 0.12995,0 0.31127,-0.19544 0.40293,-0.4343 z m 9.17302,-0.13718 c 0.27352,-0.51107 0.33182,-0.52505 0.55162,-0.13229 0.32198,0.57533 0.74632,0.56197 0.75746,-0.0238 0.008,-0.41632 0.0546,-0.40965 0.46302,0.0661 0.45592,0.53115 1.90943,0.81195 1.90943,0.36888 0,-0.13012 -0.1786,-0.23659 -0.39688,-0.23659 -0.21828,0 -0.39687,-0.10792 -0.39687,-0.23981 0,-0.1319 -0.23813,-0.17755 -0.52917,-0.10144 -0.29586,0.0774 -0.52917,0.008 -0.52917,-0.15706 0,-0.16249 -0.15875,-0.29544 -0.35277,-0.29544 -0.19403,0 -0.37156,-0.14883 -0.39451,-0.33073 -0.0229,-0.1819 -0.14495,-1.16417 -0.27112,-2.18281 -0.12616,-1.01865 -0.26039,-1.61396 -0.29828,-1.32292 -0.0379,0.29104 -0.0511,0.62963 -0.0293,0.75241 0.0218,0.12278 -0.11295,0.17241 -0.2994,0.11028 -0.44908,-0.14964 -0.46762,-1.52415 -0.0206,-1.52415 0.18866,0 0.34302,-0.23812 0.34302,-0.52916 0,-0.30938 -0.17639,-0.52917 -0.42466,-0.52917 -0.33604,0 -0.40356,-0.22138 -0.32351,-1.06074 0.0619,-0.64964 -0.004,-1.02569 -0.17065,-0.97029 -0.15175,0.0505 -0.30214,1.13251 -0.3405,2.4498 -0.0943,3.23722 -0.23587,3.90228 -1.00839,4.73583 -0.5428,0.5857 -0.84489,0.70052 -1.60851,0.61137 -0.82827,-0.0967 -0.88372,-0.0685 -0.46579,0.23713 0.96906,0.7086 2.2738,0.10614 2.9035,-1.34069 l 0.35947,-0.82595 0.0104,0.94162 c 0.0124,1.13025 -0.41849,1.75864 -1.31256,1.91405 -0.41793,0.0726 -0.25088,0.12824 0.45371,0.15101 0.89329,0.0289 1.17602,-0.0777 1.42101,-0.53545 z m 0.24194,-1.54519 c 0,-0.29104 0.11906,-0.52917 0.26459,-0.52917 0.14552,0 0.26458,0.23813 0.26458,0.52917 0,0.29104 -0.11906,0.52917 -0.26458,0.52917 -0.14553,0 -0.26459,-0.23813 -0.26459,-0.52917 z m -0.39687,-4.23333 c 0.0899,-0.14552 0.21602,-0.26459 0.2802,-0.26459 0.0642,0 0.11667,0.11907 0.11667,0.26459 0,0.14552 -0.12609,0.26458 -0.2802,0.26458 -0.1541,0 -0.20661,-0.11906 -0.11667,-0.26458 z m 4.69635,5.38102 c -0.1819,-0.0734 -0.47956,-0.0734 -0.66146,0 -0.1819,0.0734 -0.0331,0.13345 0.33073,0.13345 0.3638,0 0.51263,-0.06 0.33073,-0.13345 z m -7.04909,-1.0267 c 0.91384,-0.571 1.27308,-4.56094 0.50065,-5.56052 -0.39225,-0.50762 -0.40136,-0.50744 -0.78261,0.0156 -0.21216,0.29104 -0.71487,0.98046 -1.11714,1.53205 -0.97364,1.33505 -1.53464,1.20794 -2.4667,-0.55891 -0.95086,-1.80248 -0.95715,-1.80744 -1.57792,-1.24564 -0.46439,0.42027 -0.51008,0.72891 -0.40367,2.72686 0.14621,2.74523 0.51643,3.43273 1.91173,3.55017 1.55037,0.13048 3.3225,-0.0764 3.93566,-0.45958 z m -9.30082,-0.198 c 0.22763,-0.34741 0.47302,-1.59279 0.57483,-2.91739 0.16323,-2.12358 0.13221,-2.35959 -0.38214,-2.90709 -0.30788,-0.32773 -0.74466,-1.11984 -0.97061,-1.76025 -0.45089,-1.27797 -0.28509,-1.58686 0.85596,-1.59463 0.5589,-0.004 0.59531,-0.11466 0.59531,-1.81245 0,-1.70328 -0.0769,-1.93501 -1.32292,-3.9865 -0.7276,-1.19795 -1.32291,-2.23596 -1.32291,-2.30667 0,-0.0707 -0.29766,-0.56663 -0.66146,-1.10201 l -0.66146,-0.97342 0.003,8.59423 c 0.003,9.46135 0.087,10.57861 0.79306,10.57861 0.25418,0 0.61037,0.17859 0.79153,0.39687 0.48114,0.57974 1.25286,0.48517 1.7079,-0.2093 z m 16.85596,-1.97351 c 0.11748,-6.32139 0.14885,-18.21279 0.0485,-18.38136 -0.0626,-0.10518 -1.06134,1.65756 -2.21936,3.91722 -1.87009,3.64912 -2.1055,4.26954 -2.1055,5.54907 v 1.44059 h 1.32292 c 0.7276,0 1.32292,0.0542 1.32292,0.12054 0,0.0663 -0.29766,0.55916 -0.66146,1.09526 -0.3638,0.53609 -0.66146,1.15878 -0.66146,1.38376 0,0.22497 -0.23643,0.66071 -0.5254,0.96831 -0.48303,0.51415 -0.50732,0.75518 -0.30125,2.98847 0.12329,1.33607 0.37429,2.61012 0.5578,2.83123 0.22278,0.26843 0.80642,0.40201 1.75645,0.40201 h 1.42282 z m -4.64331,-4.07018 c 0.0236,-0.65154 -0.0234,-0.73251 -0.22058,-0.38021 -0.13777,0.2462 -0.18474,0.61899 -0.10437,0.82844 0.21834,0.569 0.29184,0.46762 0.32495,-0.44823 z m -11.27472,-0.74532 c 0,-0.28381 0.20274,-0.62948 0.45052,-0.76814 0.65486,-0.36648 -0.0191,-1.09709 -1.01208,-1.09709 -0.88325,0 -0.92151,0.17537 -0.31548,1.44623 0.49208,1.03189 0.87704,1.2158 0.87704,0.419 z m -0.53158,-0.9421 c -0.26585,-0.32032 -0.24964,-0.39396 0.0867,-0.39396 0.49395,0 0.81691,0.43153 0.47918,0.64026 -0.13141,0.0812 -0.38605,-0.0296 -0.56588,-0.2463 z m 3.3507,1.04983 c 0.24613,-0.64142 -0.0973,-0.75721 -0.42574,-0.14354 -0.20478,0.38264 -0.20881,0.55183 -0.0131,0.55183 0.15521,0 0.3527,-0.18373 0.43887,-0.40829 z m 6.53965,0.19863 c 0.0713,-0.11531 -0.10288,-0.22717 -0.38698,-0.24857 -0.28411,-0.0214 -0.44743,0.0729 -0.36293,0.20966 0.18747,0.30334 0.57408,0.3234 0.74991,0.0389 z m 3.26528,-0.90663 0.29796,-1.1163 -0.49369,0.65328 c -0.62999,0.83363 -0.82814,1.57931 -0.41967,1.57931 0.1746,0 0.45153,-0.50233 0.6154,-1.11629 z m -2.57393,0.1241 c -0.01,-0.47037 -0.46212,-0.91129 -0.63995,-0.62356 -0.0995,0.16106 -0.1074,0.4119 -0.0175,0.55742 0.19073,0.30861 0.66333,0.35616 0.65741,0.0661 z m 1.85613,-0.59531 c 0.18083,-0.43656 0.49293,-0.79375 0.69356,-0.79375 0.20063,0 0.36478,-0.1318 0.36478,-0.29289 0,-0.16109 -0.18833,-0.22062 -0.41852,-0.13229 -0.23018,0.0883 -0.51933,0.1606 -0.64256,0.1606 -0.40796,0 -1.05559,0.82323 -1.05559,1.34181 0,0.78824 0.69109,0.60313 1.05833,-0.28348 z m -9.39271,0.26458 c 0.0899,-0.14552 0.0374,-0.26458 -0.11667,-0.26458 -0.15411,0 -0.2802,0.11906 -0.2802,0.26458 0,0.14552 0.0525,0.26459 0.11668,0.26459 0.0642,0 0.19026,-0.11907 0.28019,-0.26459 z m 8.32703,-1.45521 c 0.1136,-0.14552 0.11159,-0.5027 -0.005,-0.79375 -0.19061,-0.47806 -0.24416,-0.44611 -0.55447,0.33073 -0.18892,0.47295 -0.4549,0.8599 -0.59107,0.8599 -0.13617,0 -0.0208,0.25206 0.25644,0.56013 l 0.50403,0.56014 0.0915,-0.62628 c 0.0503,-0.34446 0.18444,-0.74534 0.29803,-0.89087 z m -3.13406,-2.58047 c 1.25808,-2.50702 1.34031,-2.79375 1.33303,-4.64846 -0.005,-1.28506 -0.12975,-2.09097 -0.35646,-2.30344 -0.19179,-0.17975 -1.34504,-0.39016 -2.56279,-0.46757 -2.18229,-0.13874 -2.22505,-0.12956 -2.97657,0.63923 -1.14591,1.17226 -1.06878,2.77395 0.25532,5.30134 1.52549,2.91182 2.50338,4.43706 2.74787,4.28595 0.12035,-0.0744 0.82217,-1.33755 1.5596,-2.80705 z m -6.64817,1.38985 c 0,-0.14552 -0.11907,-0.26458 -0.26459,-0.26458 -0.14552,0 -0.26458,0.11906 -0.26458,0.26458 0,0.14552 0.11906,0.26458 0.26458,0.26458 0.14552,0 0.26459,-0.11906 0.26459,-0.26458 z m 0.52178,-7.02035 c -0.1771,-0.21339 -0.21812,-0.38799 -0.0912,-0.38799 0.44591,-2e-5 1.6953,-1.84281 1.78775,-2.63686 0.12045,-1.03448 -0.12721,-1.01258 -1.10182,0.0974 -0.66809,0.76092 -0.84627,0.84425 -1.15189,0.53876 -0.30563,-0.30551 -0.36064,-0.22991 -0.35574,0.48891 0.007,1.03572 0.33878,2.04092 0.67349,2.04092 0.13571,0 0.25615,0.20836 0.26764,0.46302 0.0131,0.29106 0.0716,0.33689 0.15731,0.1234 0.075,-0.18679 -0.008,-0.51422 -0.18558,-0.7276 z m 0.24821,-1.9311 c 0.1427,-0.26663 0.44727,-0.64066 0.67683,-0.83117 0.3598,-0.29862 0.39262,-0.27737 0.23795,0.15405 -0.23929,0.66744 -0.63623,1.1619 -0.93273,1.1619 -0.13907,0 -0.13146,-0.2056 0.0179,-0.48478 z m 8.86593,1.68574 c 0.55439,-1.32683 0.81339,-4.14487 0.36514,-3.97286 -0.18908,0.0726 -0.35449,0.51756 -0.3676,0.98889 -0.0511,1.8381 -0.25271,2.8403 -0.57149,2.84082 -0.1819,2.9e-4 -0.33072,0.23865 -0.33072,0.52969 0,0.82806 0.48349,0.62148 0.90467,-0.38654 z m -0.76009,-1.08733 c -0.0123,-0.67812 -0.81756,-1.39367 -1.15662,-1.0277 -0.0982,0.10602 -0.0221,0.24849 0.16924,0.31659 0.1913,0.0681 0.45625,0.40898 0.58876,0.75752 0.30913,0.81306 0.41394,0.80085 0.39862,-0.0464 z m -9.70046,-2.07671 c -0.23328,-0.21402 -0.26703,-0.1601 -0.1343,0.21457 0.15034,0.42439 0.11605,0.44962 -0.22564,0.16604 -0.4871,-0.40426 -0.51933,-0.18422 -0.0768,0.52437 0.32115,0.51425 0.32935,0.51351 0.53723,-0.0484 0.13184,-0.35639 0.0941,-0.678 -0.10049,-0.85654 z m 21.99129,0.1576 c 0,-0.53364 -0.58057,-0.23368 -0.82462,0.42604 -0.19357,0.52329 -0.16481,0.54715 0.30547,0.25346 0.28553,-0.17832 0.51915,-0.4841 0.51915,-0.6795 z m -31.22083,0.47426 c 0,-0.15009 -0.1786,-0.34142 -0.39688,-0.42518 -0.54083,-0.20754 -0.51007,-1.15401 0.0375,-1.15401 0.56316,0 1.94688,-1.44857 1.94688,-2.03812 0,-0.34174 -0.18164,-0.24998 -0.72761,0.3676 -0.40018,0.45267 -0.99549,0.88351 -1.32291,0.95742 -0.63136,0.14253 -0.67945,-0.009 -0.68053,-2.14127 -8.2e-4,-1.63454 -0.38287,-0.45723 -0.50305,1.55021 -0.1469,2.45354 0.0705,3.15624 0.97661,3.15624 0.36849,0 0.66999,-0.1228 0.66999,-0.27289 z m 1.58345,-1.11617 c -0.003,-0.99443 -0.0769,-1.27631 -0.26054,-0.99219 -0.14106,0.21828 -0.2583,0.7243 -0.26053,1.12448 -0.003,0.46857 -0.14534,0.7276 -0.40092,0.7276 -0.21828,0 -0.39688,0.11907 -0.39688,0.26459 0,0.14552 0.29766,0.26458 0.66146,0.26458 0.62208,0 0.66122,-0.0827 0.65741,-1.38906 z m 11.9103,0.53052 c 0,-0.1476 -0.17549,-0.11895 -0.39688,0.0648 -0.21828,0.18116 -0.39687,0.44844 -0.39687,0.59396 0,0.14759 0.17549,0.11894 0.39687,-0.0648 0.21829,-0.18116 0.39688,-0.44844 0.39688,-0.59396 z m 3.94357,0.61512 c 0.27749,-0.17568 0.0168,-0.41514 -1.02857,-0.94488 -0.96232,-0.48765 -1.45757,-0.61686 -1.58347,-0.41313 -0.10077,0.16304 -0.35586,0.23018 -0.56688,0.14921 -0.26415,-0.10137 -0.40039,0.0549 -0.43737,0.50167 -0.035,0.42321 0.10577,0.69068 0.40482,0.76903 0.82786,0.2169 2.83211,0.17827 3.21147,-0.0619 z m -3.4144,-0.65176 c 0,-0.24059 1.03142,-0.34281 1.35977,-0.13478 0.24477,0.15509 0.0848,0.2294 -0.49988,0.23216 -0.47294,0.002 -0.85989,-0.0416 -0.85989,-0.0974 z m 15.62067,0.64253 c -0.32135,-0.20325 -0.2727,-0.35012 0.28818,-0.86992 0.51031,-0.47294 0.71864,-0.99836 0.85463,-2.15544 0.1937,-1.64809 0.77918,-3.04804 1.30112,-3.11116 0.17817,-0.0215 0.56206,-0.0513 0.8531,-0.0661 0.44578,-0.0227 0.51925,-0.18978 0.4662,-1.06009 -0.0779,-1.27818 -0.22411,-1.43902 -0.79188,-0.87125 -0.34788,0.34787 -0.37546,0.51531 -0.126,0.76477 0.5775,0.5775 0.33386,0.76379 -0.46122,0.35264 -0.42933,-0.22202 -0.84605,-0.40367 -0.92604,-0.40367 -0.27155,0 -0.14708,0.74911 0.14039,0.84493 0.32479,0.10826 -0.21858,1.53632 -0.58457,1.53632 -0.1176,0 -0.14678,0.20836 -0.0649,0.46302 0.12104,0.37628 0.0981,0.39128 -0.12233,0.0801 -0.18913,-0.26698 -0.16862,-0.62864 0.0677,-1.19428 0.23565,-0.56399 0.25734,-0.94079 0.0711,-1.23597 -0.18596,-0.2948 -0.17271,-0.53637 0.0433,-0.7901 0.76544,-0.89895 1.56586,-2.32425 1.40564,-2.50303 -0.0967,-0.10793 -0.027,-0.11059 0.15486,-0.006 0.18822,0.10832 0.33073,0.0506 0.33073,-0.13397 0,-0.17836 0.064,-0.2603 0.1422,-0.18209 0.19138,0.19138 -0.43336,1.53349 -0.71383,1.53349 -0.12216,0 -0.22212,0.1786 -0.22212,0.39688 0,0.21828 0.10936,0.39687 0.24301,0.39687 0.35194,0 1.34449,-1.69244 1.34449,-2.29256 0,-0.48127 -0.24463,-0.51282 -4.29948,-0.55451 l -4.29948,-0.0442 0.62463,0.5196 0.62462,0.5196 -0.75691,0.0127 c -1.64584,0.0276 -3.30315,1.36094 -3.68408,2.96385 -0.29496,1.24118 0.39743,0.83713 0.98395,-0.57419 0.56685,-1.36401 0.87012,-1.5741 3.09236,-2.14225 0.9721,-0.24854 1.19643,-0.22913 1.45607,0.12596 0.35621,0.48714 2.28957,0.88484 2.28957,0.47097 0,-0.14878 -0.26789,-0.33779 -0.59531,-0.42 -0.32742,-0.0822 -0.83344,-0.32941 -1.12448,-0.54932 -0.50109,-0.37863 -0.48705,-0.38958 0.26459,-0.20632 0.43656,0.10644 1.28488,0.18097 1.88516,0.16562 1.05221,-0.0269 1.08997,7.7e-4 1.05126,0.77044 -0.0494,0.98142 -0.68747,1.30485 -0.68747,0.34845 0,-0.44136 -0.18503,-0.72441 -0.5491,-0.83996 -0.30201,-0.0958 -0.60864,-0.11475 -0.6814,-0.042 -0.0728,0.0728 0.0978,0.20533 0.3791,0.2946 0.4113,0.13054 0.54257,0.4961 0.67064,1.86762 0.16973,1.81763 -0.22584,3.66417 -0.64371,3.00482 -0.31543,-0.49772 -0.28954,-2.53593 0.04,-3.15175 0.21096,-0.39418 0.18766,-0.51177 -0.10143,-0.51177 -0.75532,0 -0.98925,3.43393 -0.29634,4.35005 0.50904,0.67301 0.49042,1.20753 -0.0699,2.00722 -0.53655,0.76575 -0.738,1.84481 -0.34442,1.84481 0.1505,0 0.28118,-0.14882 0.29041,-0.33073 0.009,-0.1819 0.12445,-0.0628 0.25605,0.26459 0.13161,0.32742 0.39195,0.59349 0.57854,0.59126 0.24283,-0.003 0.22936,-0.0736 -0.0474,-0.2486 z m 0.25838,-2.31142 c 0.002,-0.11773 0.11946,-0.39265 0.26053,-0.61093 0.22103,-0.34202 0.25704,-0.33504 0.26053,0.0505 0.002,0.24607 -0.11501,0.52099 -0.26053,0.61093 -0.14552,0.0899 -0.26276,0.0672 -0.26053,-0.0505 z m 1.05428,-7.19721 c 0,-0.12995 0.19543,-0.31127 0.4343,-0.40293 0.36313,-0.13935 0.3795,-0.10063 0.0999,0.23628 -0.38104,0.45912 -0.5342,0.5069 -0.5342,0.16665 z m -19.83327,8.6368 c 0.29253,-0.47294 0.47765,-1.07921 0.41139,-1.34727 -0.11496,-0.46503 -0.0971,-0.46618 0.39028,-0.0251 0.75889,0.68679 0.61851,0.12476 -0.17597,-0.7045 l -0.68674,-0.7168 0.55444,-0.55445 c 1.21521,-1.2152 0.28502,-1.11525 -1.0776,0.11579 -1.03136,0.93177 -1.03725,0.93332 -1.80986,0.47693 -0.85608,-0.5057 -0.88875,-0.8303 -0.0377,-0.37485 0.68003,0.36394 1.36297,0.36792 1.36297,0.008 0,-0.43171 -1.71584,-1.04484 -2.92397,-1.04484 -0.59888,0 -1.04537,0.0893 -0.99219,0.19844 0.61831,1.26904 0.89358,1.62959 1.53213,2.00679 1.02326,0.60446 1.61496,0.55395 0.86267,-0.0736 -0.76868,-0.64126 -0.77418,-0.96397 -0.007,-0.42681 0.32343,0.22653 0.79968,0.41188 1.05834,0.41188 0.33026,0 0.47815,0.21664 0.49667,0.7276 0.026,0.71639 0.0291,0.71771 0.20573,0.0858 0.27532,-0.98521 0.7978,-1.00116 0.59677,-0.0182 -0.1999,0.97741 -0.58491,1.08406 -0.99723,0.27624 -0.18688,-0.36613 -0.36856,-0.47915 -0.4801,-0.29868 -0.32344,0.52334 0.39348,2.13771 0.94932,2.13771 0.12984,0 0.47542,-0.38696 0.76795,-0.8599 z m 8.1916,0.30868 c 0,-0.6448 -0.61827,-0.55366 -0.747,0.11012 -0.0506,0.26108 0.0843,0.4411 0.33073,0.4411 0.24543,0 0.41627,-0.22622 0.41627,-0.55122 z m -5.16491,-2.00633 c 0.98526,-1.48391 1.34355,-2.97565 0.76395,-3.18073 -0.16496,-0.0584 -0.51369,0.48835 -0.77496,1.21493 -0.26127,0.72657 -0.56522,1.26531 -0.67543,1.19719 -0.29998,-0.18539 -0.16783,-1.26599 0.19183,-1.56864 0.4457,-0.37505 0.73199,-1.4552 0.38569,-1.4552 -0.15533,0 -0.28242,0.2527 -0.28242,0.56156 0,0.46638 -0.0665,0.50635 -0.39249,0.23583 -0.68919,-0.57198 -0.98376,0.78743 -0.6042,2.78829 0.17799,0.93829 0.33914,1.70598 0.35811,1.70598 0.019,0 0.48244,-0.67464 1.02992,-1.49921 z m -6.05232,0.51254 c -0.26895,-0.26896 -0.49087,0.13597 -0.2702,0.49302 0.1667,0.26972 0.22902,0.26993 0.31864,0.001 0.0613,-0.18383 0.0395,-0.40617 -0.0484,-0.49409 z m 11.57506,0.18574 c 0.95506,-0.29498 1.80438,-0.6462 1.88736,-0.78047 0.19984,-0.32335 -0.5442,-0.68889 -1.84831,-0.90806 -0.58209,-0.0978 -1.39238,-0.30928 -1.80066,-0.4699 -0.99931,-0.39313 -1.6036,0.11665 -0.83096,0.701 0.50201,0.37967 0.49978,0.38966 -0.0887,0.39787 -0.33198,0.005 -0.67214,-0.17018 -0.75591,-0.38847 -0.28998,-0.75567 -0.93235,-0.36086 -1.72194,1.05834 -0.20642,0.37102 -0.0556,0.30524 0.50461,-0.22013 0.50406,-0.4727 0.86434,-0.64362 0.97595,-0.46303 0.0973,0.15746 0.67592,0.29568 1.2858,0.30717 l 1.10886,0.0209 -1.12613,0.39858 c -0.61937,0.21923 -1.05883,0.50748 -0.97657,0.64057 0.24202,0.3916 1.52744,0.27987 3.38657,-0.29436 z m 0.0929,-1.07857 c 0.20927,-0.20927 0.43041,-0.21155 0.78052,-0.008 0.42826,0.24893 0.39224,0.28494 -0.292,0.292 -0.56921,0.006 -0.70147,-0.071 -0.48852,-0.28396 z m -19.23617,-0.36946 c 0,-0.21828 0.23813,-0.635 0.52917,-0.92604 0.32947,-0.32947 0.51894,-0.85367 0.50208,-1.38906 l -0.0271,-0.8599 -0.19528,0.81685 c -0.35744,1.49515 -1.03368,1.90955 -1.58144,0.96909 -0.35948,-0.61719 -0.35686,-0.0844 0.005,0.95271 0.30133,0.86441 0.76786,1.12953 0.76786,0.43635 z m 28.22658,-0.1819 c -0.0845,-0.21106 -0.14716,-0.14837 -0.15986,0.15986 -0.0115,0.27891 0.051,0.43518 0.13897,0.34726 0.0879,-0.0879 0.0973,-0.31612 0.0209,-0.50712 z m -6.23263,-0.41341 c 0.41465,-0.50508 1.55397,-2.5597 1.55397,-2.80241 0,-0.0829 -0.50602,0.0318 -1.12448,0.25476 -0.61846,0.22299 -1.5412,0.45756 -2.05052,0.52126 -1.01347,0.12675 -1.91098,0.96975 -1.67822,1.5763 0.20762,0.54105 0.61518,0.47811 1.36859,-0.21137 l 0.65052,-0.59531 -0.46546,0.72761 c -0.256,0.40018 -0.35837,0.7276 -0.22749,0.7276 0.13088,0 0.45383,-0.36543 0.71767,-0.81207 0.26383,-0.44664 0.53714,-0.75462 0.60735,-0.68441 0.0702,0.0702 -0.0609,0.41538 -0.29129,0.76704 -0.6403,0.97721 0.18843,1.44568 0.93936,0.531 z m 0.0832,-2.05893 c 0.28247,-0.21366 0.63966,-0.38468 0.79375,-0.38005 0.15408,0.005 0.049,0.18322 -0.23344,0.39688 -0.28247,0.21365 -0.63966,0.38467 -0.79375,0.38004 -0.15408,-0.005 -0.049,-0.18322 0.23344,-0.39687 z m -6.23719,0.80216 c 0.3005,-0.50932 0.44005,-0.92604 0.31009,-0.92604 -0.19382,0 -1.06879,1.44119 -1.06879,1.76044 0,0.28674 0.27686,-0.0177 0.7587,-0.8344 z m 2.15172,0.37807 c 0,-0.13518 -0.29766,-0.24578 -0.66146,-0.24578 -0.3638,0 -0.74778,-0.009 -0.85328,-0.0198 -0.1055,-0.0109 -0.22397,0.0784 -0.26327,0.19844 -0.0393,0.12005 0.34469,0.23958 0.85329,0.26562 0.50859,0.026 0.92472,-0.0633 0.92472,-0.19844 z m -8.00916,-0.14105 c -0.0879,-0.0879 -0.31612,-0.0973 -0.50712,-0.0209 -0.21106,0.0845 -0.14837,0.14715 0.15986,0.15985 0.27891,0.0115 0.43518,-0.0511 0.34726,-0.13897 z m -3.7837,-0.78508 c 0.47099,-0.47099 0.49824,-0.63208 0.18931,-1.11912 -0.31029,-0.48919 -1.68135,0.14793 -1.55407,0.72216 0.0507,0.22872 0.23393,0.38609 0.40719,0.34971 0.17326,-0.0364 0.31501,0.0529 0.31501,0.19844 0,0.36892 0.16013,0.33124 0.64256,-0.15119 z m 4.84755,-0.007 c 0.47294,-0.0715 0.85989,-0.22143 0.85989,-0.33313 0,-0.26252 -1.25856,-1.43199 -2.14547,-1.9936 -0.62148,-0.39353 -0.72409,-0.39631 -1.02989,-0.0279 -0.36942,0.44513 -0.37383,0.43506 0.39724,0.90656 0.29104,0.17797 0.35057,0.2714 0.13229,0.20762 -0.21828,-0.0638 -0.69453,-0.19065 -1.05833,-0.28193 -0.54618,-0.13705 -0.52312,-0.0993 0.13229,0.21634 0.43656,0.21027 1.24023,0.38769 1.78594,0.39425 0.5457,0.007 0.99218,0.13829 0.99218,0.29273 0,0.31229 -2.20029,0.0784 -2.95917,-0.31462 -0.806,-0.41738 -1.27416,-0.26626 -1.27416,0.4113 0,0.90497 0.89504,1.01716 4.16719,0.52233 z m 4.18856,-0.83433 c -0.30526,-0.30526 -0.46186,0.17282 -0.2537,0.77448 l 0.21287,0.61525 0.0973,-0.61803 c 0.0535,-0.33992 0.0281,-0.68718 -0.0564,-0.7717 z m -15.13576,0.49119 c 0.23651,-0.19628 0.43001,-0.72428 0.43001,-1.17332 v -0.81644 l -1.18508,1.16307 c -0.65179,0.63968 -1.27342,1.07472 -1.3814,0.96674 -0.10798,-0.10798 -0.0212,-0.30709 0.19289,-0.44247 0.31804,-0.20113 0.29245,-0.25261 -0.13995,-0.28153 -0.29104,-0.0195 -0.61847,-0.0213 -0.72761,-0.004 -0.10914,0.0172 -0.19843,-0.0877 -0.19843,-0.23325 0,-0.14552 0.17859,-0.26458 0.39687,-0.26458 0.48057,0 0.52683,-0.43263 0.0662,-0.61852 -0.1819,-0.0734 0.0417,-0.14286 0.49677,-0.15435 0.98846,-0.025 1.73357,-0.7228 1.15412,-1.08092 -0.21097,-0.13039 -0.58228,-0.10999 -0.87789,0.0482 -0.68454,0.36636 -2.82352,2.51856 -2.82352,2.84098 0,0.55529 3.93672,0.59848 4.59708,0.0504 z m 17.89663,0.0998 c 0.27253,-0.32838 0.24973,-0.4944 -0.12475,-0.9082 -0.56299,-0.62209 -1.20229,-0.4263 -1.20229,0.36821 0,0.99488 0.7098,1.28371 1.32704,0.53999 z m -0.64003,-0.086 c -0.0916,-0.14815 -0.0375,-0.34904 0.12003,-0.44643 0.40679,-0.25141 0.66926,0.093 0.32967,0.43255 -0.19002,0.19002 -0.33802,0.19459 -0.4497,0.0139 z m 11.66457,-0.62012 c -0.0845,-0.21106 -0.14716,-0.14837 -0.15985,0.15986 -0.0115,0.27891 0.051,0.43518 0.13896,0.34726 0.0879,-0.0879 0.0973,-0.31612 0.0209,-0.50712 z m -15.33905,0.0717 c 1.37822,-0.39527 2.04541,-1.19924 2.05624,-2.47781 0.005,-0.61389 0.10481,-1.26499 0.22137,-1.44689 0.25006,-0.39024 -0.0164,-0.93286 -0.3552,-0.72345 -0.12911,0.0798 -0.16767,0.31986 -0.0857,0.53348 0.19438,0.50654 -0.27864,0.50083 -0.70132,-0.008 -0.39207,-0.47241 -2.16977,-0.52867 -2.98131,-0.0943 -0.38103,0.20392 -0.59514,0.21291 -0.65692,0.0276 -0.094,-0.2819 -2.79207,-0.21065 -3.27275,0.0864 -0.14077,0.087 -0.42172,0.0206 -0.62432,-0.14753 -0.2716,-0.22541 -0.51183,-0.22895 -0.91445,-0.0135 -0.59961,0.3209 -0.65117,0.49187 -0.31048,1.02955 0.14978,0.23638 0.44216,0.29483 0.85585,0.17107 0.61379,-0.18362 0.61609,-0.17834 0.0992,0.22786 -0.29105,0.2287 -0.68503,0.41961 -0.87552,0.42424 -0.19048,0.005 -0.27597,0.12227 -0.18996,0.26144 0.1812,0.29319 0.78798,0.11132 1.72693,-0.51761 0.84346,-0.56497 1.5875,-0.83492 1.5875,-0.57598 0,0.11064 -0.65484,0.52233 -1.4552,0.91486 -0.80687,0.39572 -1.45521,0.89181 -1.45521,1.11345 0,0.62796 0.86088,0.46902 1.77577,-0.32785 0.45945,-0.40018 1.14083,-0.94152 1.51417,-1.20298 0.75984,-0.53212 0.91673,-1.05452 0.23853,-0.79427 -0.29604,0.1136 -0.3776,0.0675 -0.24897,-0.1406 0.10522,-0.17025 0.48295,-0.30955 0.8394,-0.30955 0.56317,0 0.60823,0.0638 0.34391,0.48706 -0.44774,0.71694 -0.0477,2.37186 0.75258,3.11356 0.76282,0.70696 0.91418,0.73488 2.11588,0.39023 z m -0.83661,-0.53124 c -0.0831,-0.13451 -8.7e-4,-0.29574 0.18282,-0.3583 0.18369,-0.0625 0.0896,-0.0752 -0.20907,-0.0281 -0.6737,0.10624 -1.45478,-1.10525 -1.41064,-2.18799 0.0178,-0.43597 0.0812,-0.56038 0.15061,-0.29553 0.10973,0.41855 0.1844,0.40972 0.87919,-0.10396 0.73025,-0.53989 0.79493,-0.54443 1.69193,-0.11878 0.85461,0.40554 0.91059,0.5006 0.66897,1.13609 -0.68136,1.79213 -1.53013,2.6421 -1.95381,1.95657 z m 1.12533,-1.13127 c 0.46646,-0.46646 0.38807,-0.74084 -0.21166,-0.74084 -0.35278,0 -0.52917,0.17639 -0.52917,0.52917 0,0.59973 0.27437,0.67813 0.74083,0.21167 z m -1.27,-0.60855 c 0,-0.21828 -0.17859,-0.39687 -0.39687,-0.39687 -0.21828,0 -0.39688,0.17859 -0.39688,0.39687 0,0.21829 0.1786,0.39688 0.39688,0.39688 0.21828,0 0.39687,-0.17859 0.39687,-0.39688 z m 0.79375,-0.61736 c 0,-0.3445 -0.31453,-0.57362 -0.57038,-0.41549 -0.27364,0.16911 -0.0377,0.63598 0.32142,0.63598 0.13693,0 0.24896,-0.0992 0.24896,-0.22049 z m 0.79375,-0.0441 c 0,-0.14552 -0.12609,-0.26459 -0.28019,-0.26459 -0.15411,0 -0.20662,0.11907 -0.11668,0.26459 0.0899,0.14552 0.21602,0.26458 0.2802,0.26458 0.0642,0 0.11667,-0.11906 0.11667,-0.26458 z m 5.95313,2.64583 c -0.0899,-0.14552 -0.0245,-0.26458 0.14536,-0.26458 0.20003,0 0.24841,-0.24093 0.1373,-0.68363 -0.11126,-0.44329 -0.0748,-0.62384 0.10361,-0.51355 0.29463,0.18209 0.38432,-0.193 0.1114,-0.46592 -0.24291,-0.24291 -0.95505,0.5574 -0.76689,0.86185 0.0888,0.14363 0.0326,0.50173 -0.12473,0.79578 -0.23149,0.43253 -0.20558,0.53463 0.13567,0.53463 0.23199,0 0.34822,-0.11906 0.25828,-0.26458 z m -20.67914,-0.76486 c 0.84836,-0.73058 0.99114,-1.2464 0.56905,-2.05569 -0.21552,-0.41323 -0.39259,-0.6025 -0.39349,-0.4206 -0.002,0.47432 -0.66701,0.4078 -1.09371,-0.10946 -0.3314,-0.40173 -0.30761,-0.4106 0.2723,-0.10151 0.55673,0.29673 0.61511,0.28571 0.47133,-0.089 -0.25602,-0.66718 0.28749,-0.50207 0.76965,0.2338 0.23838,0.3638 0.53878,0.66146 0.66756,0.66146 0.42691,0 0.24236,-1.03539 -0.22886,-1.28405 -0.64777,-0.34183 -4.56407,-0.50716 -4.56407,-0.19268 0,0.29677 1.1288,2.00333 1.32292,2.00003 0.0728,-0.001 0.30323,-0.1104 0.51215,-0.24261 0.31741,-0.20084 0.32209,-0.30998 0.0284,-0.6638 -0.19328,-0.23289 -0.28317,-0.49168 -0.19975,-0.57509 0.0834,-0.0834 0.30761,0.0981 0.49822,0.40327 0.19061,0.30521 0.54147,0.55493 0.77968,0.55493 0.58824,0 1.07213,0.6331 0.87551,1.14547 -0.0884,0.23033 -0.50716,0.57214 -0.9306,0.75958 -0.42345,0.18743 -0.7699,0.42705 -0.7699,0.53248 0,0.27071 0.83443,-0.0578 1.41357,-0.55656 z m 5.84357,0.34909 c 0.5334,-0.5334 0.53519,-1.17173 0.003,-1.17173 -0.22687,0 -0.33975,0.1177 -0.25084,0.26155 0.0889,0.14386 0.007,0.20464 -0.18282,0.13507 -0.18946,-0.0696 -0.51541,-0.0177 -0.72433,0.11516 -0.31481,0.20026 -0.32059,0.31306 -0.0337,0.65868 0.43472,0.52381 0.66566,0.52406 1.18846,0.001 z m 10.73453,0.15119 c 0,-0.14552 -0.0525,-0.26459 -0.11668,-0.26459 -0.0642,0 -0.19026,0.11907 -0.2802,0.26459 -0.0899,0.14552 -0.0374,0.26458 0.11668,0.26458 0.15411,0 0.2802,-0.11906 0.2802,-0.26458 z m 3.30729,-0.66146 c 0,-0.66911 -0.1033,-0.79375 -0.65784,-0.79375 -0.42424,0 -0.69055,0.1699 -0.74998,0.47847 -0.15458,0.80269 0.17282,1.2844 0.81132,1.19373 0.46756,-0.0664 0.5965,-0.25627 0.5965,-0.87845 z m -0.66146,0.13229 c 0,-0.14552 0.11906,-0.26458 0.26458,-0.26458 0.14552,0 0.26459,0.11906 0.26459,0.26458 0,0.14552 -0.11907,0.26458 -0.26459,0.26458 -0.14552,0 -0.26458,-0.11906 -0.26458,-0.26458 z m 5.02708,0.16469 c 0,-0.20046 -0.17029,-0.50581 -0.37842,-0.67854 -0.30208,-0.25071 -0.43509,-0.20818 -0.65934,0.21084 -0.20796,0.38857 -0.19557,0.55938 0.0477,0.65765 0.6136,0.24787 0.99007,0.17564 0.99007,-0.18995 z m 7.67292,-0.16469 c 0,-0.14552 -0.11906,-0.26458 -0.26458,-0.26458 -0.14552,0 -0.26459,0.11906 -0.26459,0.26458 0,0.14552 0.11907,0.26458 0.26459,0.26458 0.14552,0 0.26458,-0.11906 0.26458,-0.26458 z m -14.03223,-0.51177 c 0.37332,-0.69755 0.34425,-0.99212 -0.11532,-1.16847 -0.62292,-0.23904 -1.2517,0.55689 -0.92387,1.16945 0.34744,0.64918 0.69141,0.64886 1.03919,-9.8e-4 z m -20.88346,-0.42549 c 0.24912,-0.30017 0.26065,-0.48611 0.0436,-0.70316 -0.38848,-0.38847 -1.13941,0.20085 -0.93493,0.73372 0.18723,0.48791 0.46905,0.47825 0.89132,-0.0306 z m 8.39849,-0.26837 c 1.00442,-0.70352 0.60291,-1.96937 -0.62466,-1.96937 -0.66427,0 -1.0231,1.13512 -0.6055,1.91541 0.30589,0.57156 0.48027,0.57921 1.23016,0.054 z m 16.46303,-0.51416 c 0,-0.26923 -0.26948,-0.39688 -0.83784,-0.39688 -0.46082,0 -0.76033,-0.0775 -0.66557,-0.17227 0.0948,-0.0948 -0.0342,-0.33124 -0.28664,-0.52553 -0.39188,-0.30166 -0.33282,-0.3112 0.4043,-0.0653 0.47476,0.15839 1.0465,0.21765 1.27051,0.13168 0.22402,-0.086 0.34291,-0.0521 0.26419,0.0753 -0.0787,0.12736 0.0565,0.39389 0.30038,0.59228 0.38897,0.31636 0.42135,0.30165 0.26333,-0.11961 -0.14621,-0.38983 -0.0808,-0.44878 0.34734,-0.3129 0.29438,0.0934 0.5275,0.0467 0.5275,-0.10568 0,-0.43478 -0.86659,-0.78146 -1.79307,-0.71731 -0.46902,0.0325 -0.85276,-0.01 -0.85276,-0.0944 0,-0.26752 -3.41085,0.12087 -3.71275,0.42277 -0.20886,0.20885 -5.9e-4,0.33504 0.7515,0.4553 0.57225,0.0915 1.19806,0.3563 1.39071,0.58842 0.22581,0.27208 0.59502,0.37311 1.03901,0.28431 0.37881,-0.0758 0.86173,-0.0283 1.07316,0.10543 0.5057,0.31991 0.5167,0.31681 0.5167,-0.14559 z m -18.38854,-0.66173 c 0,-0.46592 -0.13603,-0.65074 -0.46017,-0.62519 -0.2617,0.0206 -0.38562,-0.0844 -0.28733,-0.2434 0.10935,-0.17692 0.003,-0.21455 -0.28907,-0.10241 -0.25405,0.0975 -0.51171,0.17725 -0.57257,0.17725 -0.0609,0 -0.11065,0.36473 -0.11065,0.81051 0,0.75505 0.0588,0.80484 0.8599,0.72761 0.71872,-0.0693 0.85989,-0.19151 0.85989,-0.74437 z"
       id="path3032" />
  </g>
</svg>
