<?xml version="1.0" encoding="UTF-8" standalone="no"?>
<!-- Created with Inkscape (http://www.inkscape.org/) -->

<svg
   width="112.89759mm"
   height="113.53879mm"
   viewBox="0 0 112.89763 113.53878"
   version="1.1"
   id="svg5"
   inkscape:version="1.1 (c4e8f9ed74, 2021-05-24)"
   sodipodi:docname="ornatem2.svg"
   xmlns:inkscape="http://www.inkscape.org/namespaces/inkscape"
   xmlns:sodipodi="http://sodipodi.sourceforge.net/DTD/sodipodi-0.dtd"
   xmlns="http://www.w3.org/2000/svg"
   xmlns:svg="http://www.w3.org/2000/svg">
  <sodipodi:namedview
     id="namedview7"
     pagecolor="#ffffff"
     bordercolor="#666666"
     borderopacity="1.0"
     inkscape:pageshadow="2"
     inkscape:pageopacity="0.0"
     inkscape:pagecheckerboard="0"
     inkscape:document-units="mm"
     showgrid="false"
     inkscape:zoom="0.66903058"
     inkscape:cx="15.69435"
     inkscape:cy="301.18205"
     inkscape:window-width="2506"
     inkscape:window-height="1403"
     inkscape:window-x="1974"
     inkscape:window-y="0"
     inkscape:window-maximized="1"
     inkscape:current-layer="layer1" />
  <defs
     id="defs2" />
  <g
     inkscape:label="Layer 1"
     inkscape:groupmode="layer"
     id="layer1"
     transform="translate(-131.14189,-163.55992)">
    <path
       style="fill:#000000;stroke-width:0.572233"
       d="m 131.57107,276.91642 c -0.23604,-0.23992 -0.42918,-1.53748 -0.42918,-2.88346 0,-2.87988 1.6758,-4.59724 3.52188,-3.60926 0.89844,0.48085 1.056,0.34702 1.056,-0.89692 0,-0.80417 -0.66436,-2.51451 -1.47635,-3.8008 -1.72823,-2.73766 -3.10032,-6.93567 -3.06234,-9.36936 0.0288,-1.83959 1.71346,-8.7269 2.39977,-9.81023 0.22804,-0.36 0.0301,-1.57487 -0.43993,-2.69975 -0.47001,-1.12486 -0.85455,-2.7142 -0.85455,-3.53181 0,-0.81762 -0.25372,-1.96065 -0.5638,-2.54003 -0.6014,-1.12372 0.30165,-7.27266 1.21667,-8.28458 0.27037,-0.29898 0.49158,-1.02232 0.49158,-1.60741 0,-0.58508 0.24768,-0.91073 0.55038,-0.72365 0.34447,0.21282 0.35264,0.86018 0.0219,1.73022 -0.29068,0.76454 -0.34523,1.48778 -0.12112,1.60718 0.22402,0.11939 1.35507,-1.73839 2.51343,-4.12843 1.76541,-3.64259 1.88111,-4.08583 0.71529,-2.74 -0.76495,0.88306 -1.41175,1.52681 -1.43731,1.43059 -0.0255,-0.0962 -0.13064,-0.81874 -0.23337,-1.60556 -0.10273,-0.78682 -0.4884,-2.58936 -0.85691,-4.00563 -0.70018,-2.69093 -0.37831,-7.33523 0.65128,-9.3978 0.32632,-0.6537 1.26712,-1.75654 2.09066,-2.45075 1.89222,-1.59502 1.36004,-2.29565 -0.58284,-0.76737 -1.73459,1.36443 -2.1668,1.04637 -2.1668,-1.59457 0,-2.6406 -0.71875,-1.8785 -0.79739,0.84547 -0.0908,3.14571 -1.49156,3.2205 -1.49156,0.0796 0,-1.37955 -0.30063,-2.80893 -0.66808,-3.17638 -0.50929,-0.50929 -0.4929,-1.39839 0.069,-3.74063 0.42427,-1.76859 0.57949,-4.14429 0.36573,-5.59789 -0.72213,-4.91038 -0.67235,-5.92064 0.30129,-6.11496 0.77365,-0.15442 0.96901,0.55293 1.18546,4.29196 0.21325,3.68221 0.59985,5.11602 2.17865,8.07812 1.93869,3.63739 7.21366,9.62984 9.58629,10.89019 1.97485,1.04908 1.54376,-0.24452 -0.57223,-1.71715 -3.16209,-2.20063 -4.81285,-4.05979 -7.53422,-8.4853 -2.61235,-4.24821 -2.62291,-4.28634 -2.61088,-9.44186 0.009,-4.00851 0.32844,-6.07309 1.41432,-9.15066 1.3933,-3.9489 1.41822,-5.49537 0.0586,-3.63592 -0.71274,0.97472 -1.7183,3.95558 -2.32591,6.89486 -0.46327,2.241 -1.44798,1.94914 -1.44798,-0.42918 0,-1.10155 0.28506,-2.00282 0.63346,-2.00282 0.3484,0 0.50098,-0.34522 0.33906,-0.76718 -0.162,-0.42195 -0.0755,-1.12146 0.19227,-1.55445 0.2676,-0.43299 0.27056,-1.0534 0.006,-1.37868 -1.03023,-1.26938 -1.70571,-5.02893 -1.10517,-6.15106 0.43532,-0.81342 0.33053,-1.82921 -0.39767,-3.85426 -1.26564,-3.51957 -0.86353,-4.86514 1.17614,-3.9358 1.06665,0.486 1.99237,0.49826 3.46625,0.0459 1.97786,-0.60702 2.02975,-0.58034 3.15348,1.62236 0.6284,1.23175 1.35918,2.23954 1.62399,2.23954 0.26478,0 2.1852,-0.7725 4.26754,-1.71671 2.08236,-0.94418 4.25528,-1.7167 4.8287,-1.7167 0.57341,0 1.35783,-0.31522 1.74311,-0.70052 1.10169,-1.1017 14.03297,-0.75159 16.56175,0.44841 1.09114,0.51779 2.85951,0.96624 3.92972,0.99658 2.66093,0.0755 2.13719,0.98339 -1.25616,2.17779 -1.55432,0.54707 -2.38282,1.01464 -1.84109,1.03904 0.54171,0.0244 3.11321,-0.73238 5.71444,-1.68171 2.60124,-0.94933 5.03066,-1.61049 5.39874,-1.46926 0.36809,0.14123 0.8474,1.068 1.06515,2.05946 l 0.39594,1.80265 1.23168,-1.15363 c 1.78364,-1.67061 4.35942,-2.49629 6.66193,-2.1355 1.81989,0.28516 1.87426,0.257 0.57819,-0.29937 -0.78681,-0.33778 -3.27788,-0.65729 -5.53568,-0.71006 -2.25781,-0.0528 -4.27925,-0.27009 -4.49211,-0.48295 -0.97253,-0.97253 0.68556,-1.60759 4.19617,-1.60718 3.03821,3.7e-4 4.55461,0.34382 7.34388,1.66337 1.93328,0.91462 4.75867,1.75131 6.27864,1.85932 2.39175,0.16999 2.79327,0.0424 2.98416,-0.94808 0.12133,-0.62945 0.48189,-1.46636 0.80128,-1.85977 0.82605,-1.01747 6.01674,-0.89061 9.29747,0.22725 2.63227,0.8969 2.80356,0.89138 3.53856,-0.11377 0.68534,-0.93726 0.99565,-0.97558 2.75315,-0.34007 1.5177,0.5488 2.2705,0.56115 3.2203,0.0528 0.70384,-0.37667 2.16483,-0.51543 3.38042,-0.32106 1.17746,0.18837 2.95009,0.0603 3.93919,-0.28456 2.46877,-0.86063 4.63991,0.51437 4.63991,2.93848 0,0.93693 0.19314,1.69905 0.42918,1.69362 0.60214,-0.013 2.73224,-2.37918 3.13996,-3.48667 0.33301,-0.90452 5.30475,-1.89529 6.33023,-1.26151 0.64141,0.39642 0.0677,13.2839 -0.6766,15.20135 -0.49757,1.28164 -0.45429,1.57363 0.23325,1.57363 1.25032,0 1.03082,1.45272 -0.67506,4.46776 -2.73966,4.84215 -3.05153,5.53246 -3.0551,6.76235 -0.009,2.6527 0.74058,4.76989 1.80525,5.10778 0.75204,0.2387 0.99475,0.68153 0.76692,1.39938 -0.1834,0.57757 -0.0653,1.21576 0.26221,1.41819 0.32754,0.20244 0.5955,0.0954 0.5955,-0.23797 0,-0.33328 0.2575,-0.60598 0.57225,-0.60598 0.7393,0 0.73589,5.96854 -0.004,8.6355 -0.37025,1.33281 -1.09333,2.29291 -2.05786,2.73239 -1.2258,0.55851 -1.36398,0.82585 -0.78654,1.52164 0.38549,0.46424 1.04639,0.84409 1.46889,0.84409 0.42248,0 1.05064,0.5278 1.39588,1.17291 0.81376,1.52054 -0.4323,4.54942 -1.87162,4.54942 -0.72869,0 -1.00478,0.45888 -1.00478,1.6699 0,0.91845 -0.15637,2.07722 -0.34735,2.57505 -0.22648,0.59022 -0.0324,0.90516 0.55755,0.90516 1.08041,0 2.8669,-3.19329 2.29983,-4.11087 -0.24284,-0.39289 -0.14037,-0.4847 0.26273,-0.23553 0.36335,0.22456 0.66064,1.27701 0.66064,2.33878 0,1.42793 -0.29794,2.02505 -1.14448,2.29373 -1.51978,0.48237 -1.4459,1.66359 0.20439,3.2672 1.93559,1.8809 2.1329,2.93129 0.92404,4.91912 -0.84197,1.38452 -1.52681,1.79294 -3.24373,1.93448 l -2.1764,0.17951 1.85977,1.66823 c 2.0841,1.86946 2.37492,3.69664 0.81329,5.10988 -1.3789,1.2479 -1.62725,1.19958 -2.0273,-0.39436 -0.33825,-1.34771 -4.45553,-6.92341 -6.0738,-8.22531 -1.98597,-1.59769 -1.70585,-0.55471 0.49118,1.82877 1.29901,1.40925 2.36182,2.86843 2.36182,3.24263 0,0.3742 -0.89055,-0.32818 -1.979,-1.56085 -1.51217,-1.71255 -1.98463,-1.99272 -2.00282,-1.18771 -0.013,0.57943 0.85985,2.08586 1.93988,3.34763 3.42162,3.99739 6.07236,10.47358 6.21964,15.19555 0.0467,1.49623 0.27842,2.86059 0.515,3.0319 0.23659,0.1713 0.1581,1.29659 -0.17432,2.5006 -0.43705,1.58294 -0.42669,2.3669 0.0374,2.83103 0.98826,0.98826 1.58847,-0.43952 2.02907,-4.82683 0.23274,-2.31759 0.11809,-5.14321 -0.28797,-7.09938 -0.78239,-3.7687 -0.46885,-4.57619 0.81378,-2.09588 1.72527,3.33632 0.89719,14.467 -1.25306,16.843 -0.76688,0.8474 -0.81409,1.24809 -0.25298,2.14658 0.84648,1.35545 0.90895,3.03986 0.0941,2.53622 -0.38634,-0.23877 -0.53598,0.48751 -0.42555,2.06562 0.0958,1.36936 0.49863,2.54334 0.92097,2.68411 0.44326,0.14772 0.67613,-0.11073 0.56862,-0.63129 -0.10014,-0.48483 0.0755,-0.90378 0.39014,-0.93101 0.31473,-0.0272 0.65216,0.85717 0.74984,1.96531 0.12111,1.37317 -0.0612,2.0121 -0.57223,2.00635 -1.06489,-0.013 -7.21201,-1.97124 -7.69265,-2.45188 -0.61143,-0.61144 -3.52863,-0.4775 -3.9354,0.18081 -0.19768,0.31985 -0.58136,0.44441 -0.85259,0.27677 -0.27123,-0.16761 -0.65491,-0.043 -0.85259,0.27679 -0.19768,0.31986 -1.00491,0.58157 -1.79385,0.58157 -0.78896,0 -1.91144,0.2553 -2.49445,0.5673 -1.11593,0.59723 -4.5871,0.1674 -4.5871,-0.56797 0,-0.23641 1.35191,-0.56857 3.00425,-0.73811 4.06169,-0.41677 6.25762,-0.92586 7.13514,-1.65413 1.07559,-0.89267 0.89347,-1.79917 -0.26833,-1.33571 -1.22857,0.49008 -3.74852,0.78952 -9.10131,1.08152 -2.25183,0.12284 -4.44063,0.40201 -4.86399,0.62045 -0.42336,0.21842 -0.16178,-0.13755 0.58118,-0.79092 1.58237,-1.39162 0.91451,-1.59444 -0.95,-0.28852 l -1.2843,0.89956 1.30005,1.08423 1.30002,1.08422 -1.83282,0.0195 c -1.00807,0.0108 -2.53266,0.33791 -3.38797,0.7276 -1.23622,0.56328 -1.60357,0.56328 -1.79132,0 -0.12976,-0.38971 -0.72972,-0.70857 -1.33294,-0.70857 -0.60322,0 -1.09678,-0.2575 -1.09678,-0.57222 0,-0.31473 0.38627,-0.57225 0.85836,-0.57225 0.47209,0 0.85834,-0.41779 0.85834,-0.92842 0,-0.71179 -0.17908,-0.77972 -0.76794,-0.29108 -0.9766,0.81052 -1.52099,0.26764 -1.52099,-1.51674 0,-1.36614 0.0359,-1.37749 1.44313,-0.45543 1.02734,0.67314 1.72804,0.78612 2.432,0.39215 0.86089,-0.4818 0.76673,-0.63702 -0.72784,-1.19958 -0.94418,-0.35541 -3.19736,-2.23577 -5.00706,-4.17859 -2.40844,-2.58566 -3.29034,-3.23683 -3.29034,-2.4296 0,0.60653 0.70027,1.83373 1.55616,2.72709 1.33082,1.38906 1.45512,1.7861 0.85836,2.74166 -0.3838,0.61455 -0.69781,1.48844 -0.69781,1.94196 0,0.45351 -0.64378,1.33097 -1.43059,1.94989 -0.78682,0.6189 -1.43059,1.41011 -1.43059,1.75823 0,1.2323 -7.78999,1.00515 -9.20079,-0.26832 -1.22491,-1.10563 -2.64125,-1.0263 -3.31976,0.186 -0.42645,0.76188 -1.21266,0.97663 -3.28696,0.89775 -1.49954,-0.0569 -3.17577,0.1369 -3.72495,0.43072 -0.63561,0.34018 -1.12739,0.32586 -1.35314,-0.0394 -0.45303,-0.73305 -7.98542,-0.74776 -10.5211,-0.0216 -1.2023,0.34481 -2.30515,0.35197 -2.92736,0.0195 -0.57527,-0.30787 -1.70783,-0.33077 -2.6728,-0.0541 -2.26457,0.64946 -17.26824,-0.30575 -18.30399,-1.16535 -0.61854,-0.51333 -0.97727,-0.51705 -1.47904,-0.0151 -0.50174,0.50175 -0.35705,0.66242 0.5965,0.66242 0.69241,0 1.2589,0.2575 1.2589,0.57223 0,0.6631 -0.19616,0.69552 -5.1501,0.85098 -2.04573,0.0642 -4.8783,0.30986 -6.29457,0.54595 -1.41629,0.23607 -2.7682,0.23293 -3.00424,-0.006 z m 5.1301,-2.89501 c 0.11701,-0.35569 -0.57097,-0.7617 -1.52882,-0.90229 -1.65829,-0.24339 -2.32241,0.49126 -1.3359,1.47776 0.58909,0.5891 2.61559,0.18211 2.86472,-0.57547 z m 4.74094,-0.21173 c 0,-0.31473 -0.2575,-0.57223 -0.57223,-0.57223 -0.31473,0 -0.57225,0.2575 -0.57225,0.57223 0,0.31472 0.25752,0.57225 0.57225,0.57225 0.31473,0 0.57223,-0.25753 0.57223,-0.57225 z m 70.95703,0.16415 c -0.47209,-0.17475 -1.18023,-0.57222 -1.57364,-0.88323 -0.51067,-0.40371 -0.71529,-0.29989 -0.71529,0.36295 0,0.64228 0.485,0.91449 1.57366,0.88324 0.8969,-0.0257 1.20451,-0.18189 0.71527,-0.36296 z m -61.64733,-0.53946 c -0.38744,-0.1568 -1.15994,-0.16632 -1.7167,-0.0216 -0.55678,0.14513 -0.23979,0.27333 0.7044,0.28499 0.94418,0.0108 1.39972,-0.10706 1.0123,-0.26379 z m 5.85451,-0.19681 c -0.19444,-0.31473 -0.59598,-0.57223 -0.89213,-0.57223 -0.29615,0 -0.53846,0.2575 -0.53846,0.57223 0,0.31473 0.40145,0.57223 0.89212,0.57223 0.49067,0 0.73299,-0.2575 0.53847,-0.57223 z m 4.29174,-0.28611 c 0,-0.4721 -0.37104,-0.85837 -0.82458,-0.85837 -0.95599,0 -1.60134,0.81675 -1.06731,1.35079 0.68392,0.68391 1.89189,0.36948 1.89189,-0.49242 z m 7.21415,-0.0469 c -0.19097,-0.4978 -0.34734,-1.27032 -0.34734,-1.71668 0,-1.08037 -1.6638,-1.04297 -2.08199,0.0467 -0.51952,1.35387 0.21697,2.57506 1.55302,2.57506 0.88073,0 1.12631,-0.25369 0.87631,-0.90516 z m 14.04593,-1.09765 c -0.26248,-2.26773 -0.58821,-2.5128 -1.56477,-1.17726 -1.28464,1.75686 -1.047,3.29313 0.47596,3.07683 1.06335,-0.15097 1.25292,-0.48176 1.08881,-1.89957 z m 5.92105,0 c 0,-1.53393 -0.20676,-1.73645 -1.9428,-1.9022 -1.75256,-0.1674 -2.88495,0.50074 -2.91241,1.71828 -0.0223,0.983 1.99671,2.23207 3.35351,2.07475 1.24837,-0.14469 1.5017,-0.46372 1.5017,-1.89083 z m -41.0082,1.14638 c -0.15637,-0.15637 -1.48676,-0.64613 -2.95656,-1.08846 -2.98117,-0.89721 -3.74151,-0.28034 -0.81255,0.65924 1.99604,0.64031 4.23519,0.8953 3.76911,0.42922 z m 6.96026,-1.83637 c 0,-1.35251 -1.41218,-0.49099 -1.62859,0.99356 -0.17281,1.18596 -0.0822,1.26217 0.71529,0.60041 0.50233,-0.4169 0.9133,-1.13418 0.9133,-1.59397 z m 24.01727,1.57069 c 0.46299,-0.29279 0.72049,-0.61161 0.57225,-0.70846 -0.14815,-0.0969 -1.09603,-0.75463 -2.10615,-1.46171 -2.28478,-1.5993 -2.45516,-1.59718 -2.45516,0.0305 0,2.30578 2.01629,3.38725 3.98906,2.13961 z m 18.32807,-0.24266 c 0,-0.43588 -0.62015,-1.19887 -1.3781,-1.69551 -1.14231,-0.74847 -1.48669,-0.77213 -2.0127,-0.13841 -0.34903,0.42055 -0.47384,1.18351 -0.27738,1.6955 0.44818,1.16792 3.66818,1.28936 3.66818,0.13842 z m 3.4334,0.22032 c 0,-0.31472 -0.38625,-0.57225 -0.85834,-0.57225 -0.47211,0 -0.85836,0.25753 -0.85836,0.57225 0,0.31473 0.38625,0.57223 0.85836,0.57223 0.47209,0 0.85834,-0.2575 0.85834,-0.57223 z m 14.56755,-0.53269 c 0.18102,-0.29299 0.0675,-0.69444 -0.25235,-0.89214 -0.31986,-0.19768 -0.58157,0.042 -0.58157,0.53271 0,1.00513 0.34338,1.15313 0.83392,0.35943 z m 25.22427,-1.04096 c -0.58228,-2.35773 -1.26622,-2.77763 -2.58307,-1.58588 -0.63689,0.57638 -1.15799,1.25819 -1.15799,1.51515 0,0.37161 1.51474,0.98636 3.92461,1.59276 0.1129,0.0283 0.0303,-0.65653 -0.18362,-1.52203 z m -89.00396,0.50751 c 0,-0.27164 -1.40687,-0.93641 -3.12638,-1.47728 -1.98798,-0.62528 -3.96772,-1.79984 -5.43689,-3.22561 -2.30719,-2.23905 -4.52053,-3.22515 -2.68399,-1.19579 0.52089,0.57555 0.94704,1.3032 0.94704,1.61695 0,0.31378 0.59987,1.13403 1.333,1.82279 2.02484,1.90222 8.96722,3.80594 8.96722,2.45894 z m -10.80806,-1.95956 c -0.35015,-0.35013 -0.63661,-1.18896 -0.63661,-1.86405 0,-1.17064 -2.01709,-3.58413 -2.55005,-3.05118 -0.13971,0.13972 0.11247,0.88923 0.56044,1.66551 0.44798,0.77629 1.24447,2.3127 1.76998,3.41425 0.56712,1.18879 1.06467,1.69174 1.22415,1.23745 0.14772,-0.42094 -0.0173,-1.05185 -0.36791,-1.40198 z m 86.48604,0.71871 c 2.9014,-0.56022 3.29034,-0.79564 3.29034,-1.99157 0,-0.74594 -0.26001,-1.51694 -0.57783,-1.71337 -0.79623,-0.49209 -9.2631,3.64949 -8.84474,4.32642 0.18535,0.29989 0.90056,0.42568 1.58943,0.27954 0.68884,-0.14621 2.73312,-0.55158 4.5428,-0.90102 z m 6.55688,-0.16631 c -0.4789,-0.73089 -1.19355,-2.40635 -1.58808,-3.72322 -0.98793,-3.29743 -1.39283,-2.53354 -0.54043,1.01964 0.38214,1.59286 1.11928,3.14396 1.63813,3.44688 1.39031,0.81175 1.45001,0.72126 0.49038,-0.7433 z m -74.79581,-0.38779 c 0,-0.76298 -0.38149,-1.14447 -1.14447,-1.14447 -0.76298,0 -1.14448,0.38149 -1.14448,1.14447 0,0.76299 0.3815,1.14448 1.14448,1.14448 0.76298,0 1.14447,-0.38149 1.14447,-1.14448 z m 63.83865,-2.72791 c 2.22208,-1.29026 4.73099,-2.5193 5.57534,-2.73121 2.58393,-0.64853 1.21091,-1.23372 -2.29523,-0.97823 -2.01053,0.14642 -3.92466,0.67237 -4.86512,1.33662 -1.70835,1.20661 -3.05606,1.40236 -3.59963,0.52285 -0.19444,-0.31473 -0.90203,-0.57223 -1.57225,-0.57223 h -1.21862 l 1.28147,1.19386 c 1.01369,0.94441 1.14116,1.36287 0.61007,2.00281 -0.77256,0.93086 -2.33938,1.06089 -3.1397,0.26057 -0.31652,-0.31652 -0.88524,-0.34024 -1.34501,-0.056 -0.58836,0.36362 -0.13841,0.79624 1.72151,1.65506 2.11004,0.97435 2.70349,1.0452 3.66253,0.43731 0.62945,-0.39896 2.96254,-1.78106 5.18464,-3.07133 z m -58.07649,2.39383 c 0.54525,-0.65701 0.58702,-1.16859 0.15182,-1.85977 -1.32865,-2.10998 -4.19725,-1.14934 -4.19725,1.40556 0,1.11734 0.29433,1.36052 1.64665,1.36052 0.90564,0 1.9851,-0.40784 2.3988,-0.90631 z m 35.89648,0.21963 c 1.13329,-1.1333 0.84502,-3.76381 -0.45777,-4.17732 -2.68411,-0.85189 -5.10867,1.9871 -3.42724,4.01308 0.8504,1.0247 2.9364,1.11287 3.88501,0.16415 z m -26.76648,-0.76084 c 1.70407,-2.0533 -2.17201,-5.35798 -4.53746,-3.86856 -1.37327,0.86468 -1.40803,2.24585 -0.0898,3.56421 1.39157,1.39157 3.60404,1.53708 4.62712,0.30435 z m 7.13986,0.19854 c 1.12724,-0.51362 1.44419,-1.03106 1.31445,-2.14589 -0.14491,-1.24452 -0.49606,-1.49605 -2.29758,-1.64552 -1.89868,-0.15745 -2.16836,-0.0108 -2.51637,1.37656 -0.29022,1.15626 -0.12111,1.74953 0.66231,2.32232 1.26619,0.92587 1.02539,0.91802 2.83719,0.0926 z m 12.01592,-0.46768 c 0,-0.41962 -0.32188,-0.87026 -0.71529,-1.00141 -0.42551,-0.14188 -0.7153,0.26386 -0.7153,1.00141 0,0.73755 0.28979,1.14324 0.7153,1.00141 0.39341,-0.13107 0.71529,-0.58177 0.71529,-1.00141 z m 28.6117,0.57225 c 0.19443,-0.31473 0.22491,-0.57225 0.0675,-0.57225 -0.15745,0 -0.44525,0.25752 -0.63977,0.57225 -0.19444,0.31472 -0.22491,0.57222 -0.0675,0.57222 0.15745,0 0.44527,-0.2575 0.63977,-0.57222 z m 16.22215,-1.05379 c 1.81535,-1.94566 3.26999,-4.53701 2.80683,-5.00019 -0.54748,-0.54748 -2.61689,0.82106 -2.98227,1.97226 -0.18665,0.58827 -0.84792,1.52973 -1.46935,2.09212 -1.22651,1.10998 -1.51048,2.56182 -0.50109,2.56182 0.34583,0 1.31146,-0.73171 2.14588,-1.62601 z m -85.17637,0.0366 c 0,-0.55942 0.40087,-1.58945 0.89081,-2.28893 l 0.8908,-1.2718 h -4.27741 c -2.35258,0 -4.74911,-0.14966 -5.32561,-0.33283 -0.65747,-0.20871 -0.4605,0.12977 0.52838,0.90822 0.86712,0.68259 1.43131,1.47613 1.25374,1.76341 -0.17756,0.28731 -0.24325,0.52625 -0.14599,0.53099 0.0973,0.004 1.20685,0.37969 2.46578,0.83323 3.04262,1.09613 3.71952,1.07025 3.71952,-0.14231 z m 37.19523,-0.37488 c 0,-0.91907 -1.96665,-1.73586 -2.85605,-1.18619 -0.88901,0.54943 -0.68588,1.32148 0.42405,1.61153 1.87969,0.49121 2.432,0.39462 2.432,-0.42534 z m 5.43897,-2.5155 c -0.62707,-0.62705 -1.57223,1.00182 -1.16589,2.00929 0.37723,0.93531 0.47244,0.90205 0.94663,-0.33071 0.28996,-0.75384 0.38865,-1.50919 0.21926,-1.67858 z m 17.40638,0.43009 c 0.96838,-0.96838 1.76072,-2.25592 1.76072,-2.86115 0,-0.60526 0.36873,-1.10047 0.81938,-1.10047 0.45066,0 1.36947,-0.7725 2.04179,-1.7167 1.09407,-1.53648 2.87353,-2.55331 2.00282,-1.14445 -0.19443,0.31472 -0.0846,0.57222 0.24422,0.57222 0.32885,0 1.29494,-1.05331 2.14688,-2.34068 1.67781,-2.53534 2.37334,-7.26334 1.64198,-11.16176 -0.54535,-2.90692 -1.69826,-1.64728 -1.76513,1.9285 l -0.0506,2.70432 -3.1115,0.40286 c -1.71134,0.22157 -4.13161,0.92971 -5.37838,1.57363 -1.24678,0.64395 -2.66307,1.17212 -3.1473,1.17376 -0.71596,0.002 -0.90211,0.93538 -0.99662,4.99508 -0.0891,3.82913 -0.3305,5.14883 -1.0361,5.66476 -0.82744,0.60506 -0.79054,0.79316 0.36717,1.87173 1.7188,1.6013 2.38109,1.51793 4.46064,-0.56165 z m 2.90519,1.18849 c 0,-0.31473 -0.2575,-0.57223 -0.57225,-0.57223 -0.31472,0 -0.57222,0.2575 -0.57222,0.57223 0,0.31473 0.2575,0.57225 0.57222,0.57225 0.31475,0 0.57225,-0.25752 0.57225,-0.57225 z m -47.50816,-3.57645 c 0.0223,-0.75126 -1.53704,-0.46149 -2.27018,0.42189 -0.38848,0.46807 -0.53278,1.30329 -0.32068,1.85601 0.34464,0.89813 0.5022,0.85328 1.48189,-0.42187 0.60292,-0.78479 1.10196,-1.61999 1.10897,-1.85603 z m 60.09731,2.432 c 0.73973,-0.47806 0.72461,-0.55592 -0.10922,-0.56349 -0.5322,-0.004 -1.12679,0.24876 -1.32131,0.56349 -0.44758,0.7242 0.30995,0.7242 1.43059,0 z m -67.26445,-0.66411 c 1.67812,-0.76458 1.86689,-1.50366 0.51641,-2.02189 -0.88367,-0.3391 -2.4923,1.09579 -2.4923,2.22312 0,0.61163 0.24712,0.58646 1.97589,-0.20114 z m 32.1332,-0.006 c 0.22815,-0.36915 0.59735,-1.5923 0.82044,-2.71811 0.22309,-1.12582 0.59529,-2.50048 0.82714,-3.05482 0.32469,-0.77639 0.20849,-0.92618 -0.50549,-0.65218 -0.50985,0.19573 -1.08904,1.03547 -1.28709,1.86626 -0.58395,2.4496 -1.36739,3.13035 -2.23955,1.94604 -0.70764,-0.96088 -0.76058,-0.96018 -1.13855,0.0151 -0.73627,1.8997 2.48609,4.27578 3.5231,2.59784 z m -5.49739,-1.59083 c 0,-0.92937 0.28888,-2.32377 0.64193,-3.09865 0.5357,-1.17573 0.41294,-1.81944 -0.74176,-3.88952 -1.34361,-2.40868 -1.46176,-2.47793 -4.07534,-2.38798 -2.23023,0.0768 -2.69164,-0.0813 -2.69164,-0.92204 0,-0.77994 -0.33867,-0.94997 -1.46377,-0.73488 -0.98791,0.18881 -1.35997,0.55031 -1.14447,1.1119 0.17562,0.45766 0.31931,1.18098 0.31931,1.6074 0,0.45623 0.76465,0.84908 1.85808,0.9546 1.47493,0.14231 2.05927,0.59232 2.83369,2.18213 0.53659,1.10157 0.98798,2.74696 1.0031,3.65645 0.027,1.62719 1.34239,3.15647 2.7456,3.19217 0.41484,0.0108 0.71527,-0.69154 0.71527,-1.67158 z m 47.78156,1.11755 c 0.19443,-0.31473 -0.17648,-0.57223 -0.82458,-0.57223 -0.64803,0 -1.17824,0.2575 -1.17824,0.57223 0,0.31472 0.37107,0.57222 0.82458,0.57222 0.45352,0 0.98374,-0.2575 1.17824,-0.57222 z m -15.16421,-0.85837 c 0,-0.47209 -0.37105,-0.85834 -0.82456,-0.85834 -0.95601,0 -1.60136,0.81673 -1.06733,1.35076 0.68392,0.68392 1.89189,0.36951 1.89189,-0.49242 z M 136.0776,262.5087 c -1.38508,-6.26675 -1.48768,-7.40274 -0.93745,-10.37924 0.78967,-4.27172 0.64396,-4.95477 -0.31886,-1.49461 -0.9476,3.40542 -1.04164,8.32829 -0.21585,11.30163 0.6893,2.48204 2.00758,2.99444 1.47223,0.57222 z m 40.29367,0.52573 c 1.75453,-1.42073 1.20198,-4.10218 -0.84532,-4.10218 -2.31182,0 -3.1832,0.612 -3.1832,2.23571 0,2.81919 1.81403,3.65965 4.02852,1.86647 z m 21.62667,-0.29485 c 0.15961,-0.84147 -0.0433,-0.97931 -0.99652,-0.67673 -0.86704,0.27517 -1.19706,0.13257 -1.19706,-0.51699 0,-0.49331 -0.38627,-0.89691 -0.85836,-0.89691 -0.88215,0 -1.22011,2.30866 -0.45059,3.07817 0.79054,0.79054 3.29931,0.0833 3.50253,-0.98754 z m -16.49945,-0.66006 c 0,-1.70083 -1.44802,-1.94753 -1.87383,-0.31925 -0.32688,1.25 -0.009,1.74984 1.11087,1.74984 0.43234,0 0.76296,-0.61992 0.76296,-1.43059 z m -24.6818,-0.42764 c -0.47936,-0.89567 -0.76716,-1.04927 -0.94823,-0.50605 -0.14296,0.42896 0.0932,1.00372 0.52504,1.27723 1.14357,0.7244 1.18407,0.65056 0.42319,-0.77118 z m -18.52025,-0.28763 c -2.5303,-6.22667 -1.13881,-11.6858 5.03223,-19.74281 0.90428,-1.18061 1.29499,-2.01259 0.86825,-1.84884 -0.42674,0.16372 -1.92928,2.03099 -3.33898,4.14941 -1.40972,2.11842 -2.88737,4.10916 -3.28368,4.42389 -0.39632,0.31475 -0.99896,2.15752 -1.33923,4.09509 -0.7518,4.28106 0.15204,9.92467 1.58936,9.92467 0.61068,0 0.75476,-0.30569 0.47205,-1.00141 z m 24.68524,0 c 0.0221,-0.5508 0.25408,-1.51643 0.51586,-2.14589 0.42389,-1.0192 0.37031,-1.05852 -0.48952,-0.3591 -0.531,0.43195 -0.96548,1.39758 -0.96548,2.14586 0,1.55209 0.87821,1.88791 0.93914,0.35913 z m 7.07214,0.045 c 0,-0.52598 0.42761,-1.42883 0.95022,-2.00634 1.13744,-1.25685 0.72929,-1.86212 -0.90577,-1.34317 -1.83676,0.58296 -2.34075,4.30587 -0.58291,4.30587 0.29615,0 0.53846,-0.43037 0.53846,-0.95636 z m 36.62299,0.38411 c 0,-0.31472 -0.515,-0.57222 -1.14448,-0.57222 -0.62945,0 -1.14445,0.2575 -1.14445,0.57222 0,0.31473 0.515,0.57225 1.14445,0.57225 0.62948,0 1.14448,-0.25752 1.14448,-0.57225 z m -55.32785,-0.44957 c -1.76189,-1.1203 -2.47575,-7.52075 -1.36995,-12.28264 0.38822,-1.67176 0.32643,-2.14586 -0.27962,-2.14586 -1.1469,0 -1.89053,1.75068 -2.47225,5.82016 -0.54656,3.82341 -1.45412,6.40071 -2.83709,8.0565 -0.78424,0.93897 -0.57218,1.00087 3.40101,0.99265 2.33056,-0.004 3.9316,-0.2033 3.5579,-0.44081 z m 8.50264,-0.49746 c 1.48453,-1.34348 1.30796,-2.48637 -0.38411,-2.48637 -1.20806,0 -1.43059,0.26706 -1.43059,1.7167 0,1.96082 0.33943,2.10477 1.8147,0.76967 z m 6.76882,-0.48356 c 0,-1.70377 -0.86922,-1.86963 -1.69657,-0.32372 -0.82337,1.53845 -0.75543,1.75431 0.55209,1.75431 0.83929,0 1.14448,-0.38149 1.14448,-1.43059 z m -24.4245,-0.60585 c 1.17101,-1.60829 1.97379,-5.40259 1.14307,-5.40259 -0.48595,0 -3.04136,5.41831 -3.04136,6.4487 0,0.83574 0.88198,0.3497 1.89829,-1.04611 z m 91.69238,-0.68167 c -2.3467,-3.55519 -2.9797,-6.25569 -3.99036,-17.02396 -0.5317,-5.66513 -1.32529,-13.00403 -1.76351,-16.30868 -0.43822,-3.30466 -0.96542,-7.46218 -1.17155,-9.23897 -0.35091,-3.02466 -0.48501,-3.25255 -2.10456,-3.57647 -3.07023,-0.61403 -3.3035,-0.48686 -3.30203,1.79993 0.001,1.92731 1.38125,15.77177 2.86628,28.75478 0.30599,2.67518 0.55845,6.8507 0.56104,9.27889 0.004,4.12534 -0.11181,4.54756 -1.77129,6.43763 l -1.77598,2.02274 h 6.9342 6.93423 z m -34.93753,-3.58006 c -0.95264,-3.88733 -0.95666,-8.38214 -0.009,-10.51775 0.33376,-0.75249 0.26905,-1.00958 -0.21369,-0.84869 -0.38082,0.12695 -1.29024,1.90023 -2.02094,3.94066 -2.11794,5.91432 -2.5548,6.85714 -3.1772,6.85714 -1.31566,0 -0.46627,1.64663 1.13786,2.20584 0.94833,0.33058 1.88544,1.02109 2.08243,1.53444 0.41793,1.08916 2.68045,2.0908 2.97282,1.31612 0.10922,-0.28973 -0.23804,-2.30922 -0.77192,-4.48776 z m 4.57338,1.56736 c 2.37036,-2.61397 1.91992,-3.08102 -1.99745,-2.07116 -0.70533,0.18189 -0.8229,-0.36529 -0.65945,-3.06906 0.13949,-2.30818 -0.009,-3.29034 -0.49589,-3.29034 -0.43798,0 -0.59063,-0.5448 -0.41302,-1.47397 0.20892,-1.09249 0.11506,-1.30723 -0.36246,-0.82975 -0.85955,0.85955 -0.78225,4.47177 0.21238,9.92636 0.71225,3.90577 0.90926,4.34274 1.54799,3.4334 0.40253,-0.57307 1.37808,-1.75455 2.16786,-2.62548 z m 3.45226,0.68266 c 0.20741,-0.6535 0.2072,-1.35807 -3.8e-4,-1.5657 -0.45421,-0.4542 -2.55742,2.16068 -2.57544,3.20199 -0.0195,1.14967 2.1238,-0.21217 2.57582,-1.63629 z m -53.1756,0.83959 c -0.72613,-1.89226 0.87097,-5.61913 3.4852,-8.13279 2.1548,-2.0719 2.86315,-2.43256 4.37888,-2.22958 0.99454,0.13322 2.30401,0.0675 2.90993,-0.14599 2.43403,-0.85754 9.13013,4.43656 9.59665,7.58732 0.23619,1.59524 1.60469,1.97792 1.60469,0.44871 0,-2.17926 -2.38766,-6.32567 -4.93249,-8.56572 -1.3786,-1.21349 -2.50655,-2.43139 -2.50653,-2.70643 2e-5,-0.27506 -0.96563,-1.31079 -2.14588,-2.30164 l -2.14591,-1.80155 -0.33092,-6.04399 c -0.29994,-5.47753 -0.53055,-6.44788 -2.46098,-10.35378 -1.93705,-3.91936 -3.92769,-6.08763 -4.79377,-5.22155 -0.18405,0.18405 0.22421,0.92971 0.90735,1.65688 1.55421,1.65437 1.5541,1.98126 -6.3e-4,2.21001 -1.89543,0.27891 -1.87569,1.41893 0.0311,1.80032 3.69773,0.73954 6.31949,6.23645 5.5728,11.68417 -0.44458,3.24358 -1.30571,4.45296 -2.47798,3.48008 -0.64345,-0.53403 -0.92292,-0.52878 -1.26438,0.0236 -0.24109,0.39007 -1.95963,1.10137 -3.81896,1.58064 -4.49278,1.15808 -7.49337,2.98839 -10.14753,6.18979 -2.59068,3.12485 -4.95807,7.12349 -4.93037,8.32764 0.0108,0.47209 0.63441,-0.30043 1.38567,-1.7167 2.3045,-4.3445 7.00226,-8.68478 11.04084,-10.20069 4.41703,-1.65798 5.55264,-1.50265 5.60403,0.7666 0.0285,1.26531 -0.58529,2.34708 -2.365,4.16723 -1.49158,1.52549 -2.67202,3.41667 -3.11078,4.98384 -0.74235,2.65136 -0.41199,5.43313 0.64522,5.43313 0.34241,0 0.46374,-0.41383 0.26965,-0.91964 z m 84.34887,-5.16443 c 0,-3.9944 -0.49644,-4.73619 -2.03329,-3.038 -0.57298,0.63313 -1.37165,1.02457 -1.77486,0.86984 -0.40318,-0.15463 -0.84588,-0.0988 -0.98378,0.12436 -0.34842,0.56377 1.01332,4.36848 2.22586,6.21906 0.96014,1.46535 1.04116,1.48659 1.78591,0.46805 0.46171,-0.6314 0.78016,-2.52681 0.78016,-4.64331 z m -82.59246,4.5581 c -0.20979,-0.20979 -0.55315,-0.20979 -0.76299,0 -0.20978,0.20979 -0.0381,0.38149 0.3815,0.38149 0.41964,0 0.5913,-0.17173 0.38149,-0.38149 z m 24.36764,0.002 c -0.39341,-0.15875 -1.03718,-0.15875 -1.43059,0 -0.39341,0.15875 -0.0716,0.28862 0.71529,0.28862 0.78682,0 1.10871,-0.12977 0.7153,-0.28862 z m 16.36786,-15.65929 c 6.23789,-16.57079 9.75941,-26.2379 12.9183,-35.46259 1.13162,-3.30466 2.30374,-6.52347 2.60469,-7.15292 0.30093,-0.62946 1.59736,-4.2337 2.88099,-8.00943 1.95151,-5.74033 3.3523,-8.87043 3.44521,-7.6984 0.46048,5.80863 2.21737,21.84959 2.54529,23.23932 0.21803,0.924 0.88115,1.33649 2.62115,1.63047 1.28112,0.21643 2.47776,0.24507 2.65922,0.0636 0.18145,-0.18146 -0.12977,-4.13397 -0.69174,-8.7834 -1.71234,-14.16857 -1.7626,-17.51144 -0.29883,-19.87988 l 1.24911,-2.02109 -4.48149,0.006 -4.48149,0.006 -1.5562,4.14156 c -1.6372,4.35706 -6.25788,16.99963 -9.04289,24.74199 -3.03891,8.44834 -6.42757,17.71077 -7.746,21.17268 -0.71916,1.88837 -2.58639,6.90012 -4.14943,11.13724 -1.56302,4.23709 -3.08237,7.78397 -3.37633,7.88197 -0.29394,0.098 -2.16751,-3.23999 -4.16343,-7.41771 -1.99594,-4.17773 -9.34511,-19.1836 -16.3315,-33.3464 -6.98639,-14.16281 -12.85874,-26.20118 -13.04964,-26.75195 -0.29287,-0.84487 -1.08591,-1.00141 -5.07333,-1.00141 h -4.72623 l 2.2673,1.85977 c 5.09122,4.1761 5.27302,4.68282 4.32365,12.05075 -0.37271,2.89262 -1.43221,11.69695 -2.35446,19.56517 -0.92223,7.86824 -2.07795,17.3777 -2.56825,21.13215 -0.49031,3.75445 -0.81444,7.47269 -0.7203,8.26275 0.15854,1.32979 0.24038,1.36681 1.10283,0.49859 0.56948,-0.57327 1.08595,-2.45073 1.32852,-4.82935 0.21829,-2.1403 0.75306,-6.33777 1.18838,-9.32768 0.43535,-2.98993 1.45267,-11.35885 2.26077,-18.59762 1.75055,-15.68126 1.9497,-16.88346 2.79483,-16.87232 0.35837,0.004 1.52069,1.87162 2.58291,4.14868 1.06223,2.27707 5.79868,11.99403 10.52545,21.59327 7.0833,14.38488 8.65945,17.20267 8.96559,16.02833 0.52272,-2.00524 1.37295,-0.46612 0.9091,1.64574 -0.28464,1.29596 0.64306,3.66696 4.59743,11.75023 2.72473,5.56966 5.04054,10.04018 5.14624,9.93449 0.10576,-0.10576 2.75827,-7.00902 5.89458,-15.34068 z m -31.389,13.76969 c 0,-1.58871 -1.84747,-2.47194 -3.16122,-1.5113 -1.51347,1.10669 -0.68591,2.63564 1.42654,2.63564 1.34282,0 1.73468,-0.25397 1.73468,-1.12434 z m 7.15292,-0.0195 c 0.19443,-0.31473 0.0809,-0.57223 -0.25235,-0.57223 -0.33331,0 -0.60601,0.2575 -0.60601,0.57223 0,0.31473 0.11354,0.57223 0.25235,0.57223 0.13885,0 0.41149,-0.2575 0.60601,-0.57223 z m -12.56049,-1.97968 c 2.0804,-2.24476 4.0448,-2.44921 5.95442,-0.6197 1.56566,1.5 1.67258,1.52024 3.37648,0.63913 3.62019,-1.87208 0.0513,-4.31338 -5.91166,-4.04394 -3.74712,0.16935 -4.10575,0.30541 -5.8654,2.22552 -1.03085,1.12484 -1.87426,2.30645 -1.87426,2.6258 0,1.14826 3.0268,0.56903 4.32042,-0.82681 z m 11.1299,0.8352 c 0.73971,-0.47803 0.72462,-0.55592 -0.10922,-0.56346 -0.53219,-0.004 -1.12678,0.24874 -1.3213,0.56346 -0.44759,0.72423 0.30994,0.72423 1.43059,0 z m -30.33718,-2.46575 c 0.004,-0.25463 -0.24874,-0.30381 -0.56347,-0.10922 -0.31472,0.19443 -0.56829,0.78908 -0.56346,1.3213 0.009,0.8339 0.0854,0.849 0.56346,0.10922 0.30511,-0.47211 0.55865,-1.06668 0.56347,-1.3213 z m 66.27982,-0.17346 c 2.32812,-0.46562 2.59548,-1.44248 1.48148,-5.41273 -0.92375,-3.29218 -0.8804,-3.80977 0.63131,-7.5392 0.37211,-0.91799 0.0396,-0.96905 -4.09017,-0.62824 -6.31559,0.52118 -6.90142,1.81009 -2.7785,6.11302 2.0271,2.1156 2.57507,3.10431 2.57507,4.64646 0,1.07745 -0.2575,2.11816 -0.57225,2.31265 -0.34447,0.21282 -0.57223,-0.54292 -0.57223,-1.89898 0,-1.41173 -0.35746,-2.5458 -0.95759,-3.03798 -0.86325,-0.70799 -0.91135,-0.64442 -0.48838,0.64522 0.25809,0.78682 0.47655,2.26747 0.48548,3.29034 0.0173,2.01648 0.64529,2.23754 4.28578,1.50944 z m -23.03364,-0.84872 c 0.49391,-0.79916 -0.86282,-3.37883 -1.77707,-3.37883 -1.39032,0 -2.0988,1.53587 -1.29915,2.81634 0.79936,1.27997 2.44663,1.58118 3.07622,0.56249 z m 33.2005,-4.80527 c -1.03318,-0.94647 -2.42785,-2.79777 -3.09926,-4.11401 -1.47268,-2.88696 -2.1496,-3.37575 -3.32464,-2.40055 -1.61503,1.34036 -1.92485,3.22217 -1.24764,7.57808 l 0.65147,4.19044 4.44928,-1.76655 4.44931,-1.76656 z m -59.86752,-1.29167 c 0.0314,-0.91882 -2.63268,-0.93625 -3.19837,-0.0216 -0.23603,0.3819 -0.6002,1.82149 -0.80927,3.19907 l -0.38011,2.50468 2.18168,-2.48377 c 1.19993,-1.36607 2.19266,-2.80564 2.20607,-3.19907 z m -13.21351,2.65867 c 0.74473,-0.94206 1.55886,-2.62089 1.80918,-3.73076 0.45122,-2.00066 0.4451,-2.009 -0.713,-0.97364 -1.35972,1.21563 -3.88082,5.04647 -3.88082,5.89694 0,1.12308 1.44235,0.50539 2.78464,-1.19254 z m 33.83834,-0.10338 c 0,-0.2528 -0.44129,-0.384 -0.98067,-0.29152 -1.89338,0.32463 -1.38417,-1.67838 0.88319,-3.47419 l 2.24821,-1.78062 -0.93231,-1.99081 c -0.51277,-1.09497 -1.23548,-1.99922 -1.60605,-2.00948 -1.1402,-0.0316 -3.09316,-2.97351 -2.73111,-4.11418 0.28159,-0.88728 0.0173,-1.05455 -1.66514,-1.05455 -1.46585,0 -2.30859,-0.39247 -3.15601,-1.4698 l -1.15614,-1.4698 -1.77838,1.31482 c -1.71378,1.26706 -1.76787,1.43716 -1.48937,4.68312 0.28784,3.35475 1.46257,5.52518 2.99047,5.52518 0.41224,0 1.05504,0.57938 1.42844,1.28752 0.37341,0.70814 1.86313,2.46928 3.31048,3.91365 2.17804,2.17352 2.80416,2.51963 3.63298,2.00822 0.55077,-0.33984 1.00141,-0.82473 1.00141,-1.07756 z m 58.36789,-0.12349 c 0,-1.59754 -1.38623,-1.97267 -1.94159,-0.52543 -0.58038,1.51241 -0.39959,1.95602 0.79711,1.95602 0.83929,0 1.14448,-0.38149 1.14448,-1.43059 z m -55.19028,-0.31962 c 0.82577,-0.91247 0.92539,-1.39611 0.44197,-2.14588 -0.34326,-0.53235 -1.10494,-0.87904 -1.69266,-0.77045 -1.48824,0.27502 -1.73962,0.64157 -0.82687,1.20566 0.45362,0.28037 0.64897,0.98662 0.46617,1.68561 -0.39921,1.52655 0.2435,1.53656 1.61139,0.0251 z m 52.90135,-1.43173 c 0,-0.45354 -0.2575,-0.82458 -0.57225,-0.82458 -0.31473,0 -0.57223,0.5302 -0.57223,1.17823 0,0.64804 0.2575,1.0191 0.57223,0.82458 0.31475,-0.19443 0.57225,-0.72472 0.57225,-1.17823 z m -13.64335,-1.16916 c 0.90988,-1.94132 0.8982,-2.10686 -0.28611,-4.05265 -0.67911,-1.11575 -1.81907,-2.6595 -2.53322,-3.43052 -0.71414,-0.77106 -1.12475,-1.68297 -0.91245,-2.0265 0.45239,-0.73195 -2.55973,-0.34172 -5.18361,0.67156 l -1.67219,0.64576 2.09969,1.42676 c 1.15481,0.78474 2.64449,2.51241 3.31038,3.8393 1.19273,2.37663 3.25567,5.00535 3.89944,4.96893 0.18124,-0.0108 0.75633,-0.92943 1.27807,-2.04264 z m -78.71744,-5.39982 c 1.61899,-1.48963 1.44136,-0.93473 -0.73977,2.31099 -1.11407,1.65781 -0.93566,1.49141 3.53254,-3.29457 1.83862,-1.96941 3.17474,-3.74889 2.96919,-3.95446 -0.20568,-0.20547 -0.89035,0.0939 -1.52173,0.66516 -1.67615,1.51688 -1.4076,0.16047 0.28261,-1.42741 1.4652,-1.3765 1.83032,-2.28893 0.91589,-2.28893 -0.98438,0 -10.3678,13.23819 -10.34299,14.59196 0.006,0.31473 0.76714,-0.72522 1.69192,-2.31099 0.9248,-1.58577 2.37035,-3.51706 3.21234,-4.29175 z m -2.07539,4.88604 c 0,-0.31473 -0.24961,-0.186 -0.55471,0.28611 -0.30508,0.47209 -0.55471,1.11586 -0.55471,1.43059 0,0.31473 0.24963,0.186 0.55471,-0.28611 0.3051,-0.4721 0.55471,-1.11587 0.55471,-1.43059 z m 1.21805,-7.95233 c 1.76184,-2.23553 3.7575,-4.55513 4.43481,-5.1547 1.69462,-1.50005 1.54187,-2.06629 -0.40666,-1.50747 -1.8899,0.54201 -5.96643,-0.072 -7.1834,-1.08204 -0.69207,-0.57437 -0.93274,-0.32413 -1.43786,1.49489 -0.67409,2.42759 -0.80336,8.85373 -0.22183,11.02808 0.34922,1.30577 0.41893,1.32999 0.99358,0.34507 0.33992,-0.58257 2.05952,-2.8883 3.82136,-5.12383 z m 93.79036,5.21849 c 0,-0.92852 -1.62479,-3.27461 -2.2678,-3.27461 -0.43489,0 -0.32167,1.25071 0.2979,3.29034 0.28568,0.94046 1.9699,0.927 1.9699,-0.0151 z m -42.34534,-0.36665 c 0,-0.28899 0.15637,-0.93274 0.34734,-1.43059 0.25229,-0.6574 6.1e-4,-0.90515 -0.91957,-0.90515 -0.92015,0 -1.17185,0.24775 -0.91957,0.90515 0.19098,0.49785 0.34734,1.1416 0.34734,1.43059 0,0.28899 0.2575,0.52544 0.57223,0.52544 0.31473,0 0.57223,-0.23645 0.57223,-0.52544 z m 29.79162,-2.52868 c -0.31864,-0.83807 -0.84322,-1.52376 -1.16574,-1.52376 -0.74241,0 -0.74062,0.6643 0.006,2.63097 0.39566,1.04069 0.78424,1.3703 1.16574,0.9888 0.38149,-0.38149 0.37911,-1.08015 -0.006,-2.09601 z m -87.77802,0.95593 c -0.20979,-0.20979 -0.38149,-0.0381 -0.38149,0.38149 0,0.41962 0.17172,0.5913 0.38149,0.38149 0.20979,-0.20979 0.20979,-0.55317 0,-0.76298 z m 24.31158,-1.1977 c 0.51995,-0.43213 1.42123,-0.70422 2.00284,-0.60465 0.83922,0.14361 1.09259,-0.2363 1.22768,-1.84104 l 0.17021,-2.02204 -3.27825,-0.68764 c -1.80306,-0.37818 -3.3286,-0.62703 -3.39011,-0.553 -0.0614,0.074 -0.29323,1.87679 -0.51493,4.00613 l -0.40308,3.8715 1.62014,-0.69181 c 0.89108,-0.38049 2.04555,-1.04535 2.5655,-1.47745 z m 34.1223,-1.28199 c 1.40292,0 1.34866,-0.0971 -0.85244,-1.52426 -1.29291,-0.83833 -2.92517,-2.5463 -3.62723,-3.79545 -1.15668,-2.05803 -1.18849,-2.32046 -0.33884,-2.79593 0.51569,-0.28862 0.93762,-0.79408 0.93762,-1.12326 0,-0.32919 0.5301,-1.34297 1.178,-2.25285 l 1.17798,-1.65433 1.54013,1.12901 c 0.84708,0.62096 2.34218,1.28649 3.32246,1.47897 1.54216,0.30281 1.82069,0.16892 2.06692,-0.9936 0.15658,-0.73895 0.83139,-2.69555 1.49973,-4.34798 l 1.21513,-3.00439 -1.85146,-1.22939 c -2.32327,-1.54264 -6.73023,-6.85719 -8.38326,-10.10974 l -1.25526,-2.46982 -1.15507,1.46841 c -0.67325,0.8559 -1.73448,1.46844 -2.54411,1.46844 -1.69642,0 -1.85744,1.42577 -0.2577,2.2819 1.93231,1.03415 2.45066,2.63766 1.46736,4.53919 -0.97228,1.88017 -2.57688,2.60781 -4.61993,2.09504 -1.99297,-0.50019 -2.93177,1.4241 -1.6495,3.38106 1.08534,1.65645 0.89405,1.59354 2.72669,0.89675 1.15655,-0.43971 1.69335,-0.28578 2.89843,0.83103 1.77568,1.64565 1.87019,3.06262 0.33453,5.01489 -1.52553,1.9394 -1.4783,2.30539 0.92548,7.17025 1.47879,2.99285 2.30926,4.0974 2.90798,3.86764 0.46091,-0.17691 1.51227,-0.32158 2.33636,-0.32158 z m -58.41065,-2.99756 c -0.1369,-0.71181 -0.25406,-0.26418 -0.2604,0.99475 -0.006,1.2589 0.10555,1.8413 0.24885,1.2942 0.14318,-0.54712 0.14837,-1.57714 0.0108,-2.28895 z m 75.46471,1.17648 c 1.33138,-0.78554 3.12541,-1.26079 4.85491,-1.28607 2.46481,-0.0361 2.61653,-0.11073 1.495,-0.73515 -0.68651,-0.38227 -2.47134,-0.70415 -3.96629,-0.71529 -2.34434,-0.0173 -2.71814,-0.18016 -2.71814,-1.18319 0,-0.67115 0.54446,-1.38176 1.28755,-1.68043 1.27164,-0.51113 1.2695,-0.51797 -0.17367,-0.5538 -1.83471,-0.0456 -7.26595,2.61981 -7.91133,3.88244 -0.26574,0.51991 -0.66176,1.69055 -0.88005,2.60143 l -0.39689,1.65614 3.14863,-0.37005 c 1.73176,-0.20352 4.09891,-0.93075 5.26037,-1.61603 z m -32.37962,0.42428 c 0,-0.13885 -0.2575,-0.41149 -0.57224,-0.60601 -0.31473,-0.19444 -0.57223,-0.0809 -0.57223,0.25233 0,0.3333 0.2575,0.60601 0.57223,0.60601 0.31474,0 0.57224,-0.11355 0.57224,-0.25233 z m 43.79858,-4.19663 c -0.28655,-1.28344 -1.17182,-1.93949 -5.00097,-3.70613 -5.32585,-2.45722 -6.46522,-2.53276 -2.06311,-0.13691 2.77726,1.51159 2.8934,1.659 1.71958,2.18276 -1.63815,0.73098 -1.59492,1.32289 0.12825,1.75535 0.76288,0.19141 1.98601,1.07795 2.71811,1.96995 1.26654,1.54318 1.3678,1.57024 2.08872,0.5581 0.44538,-0.62528 0.61414,-1.70645 0.40948,-2.62319 z m -26.17769,2.06592 c 0.0995,-0.51662 -0.60569,-1.8352 -1.56706,-2.93014 -0.9614,-1.09495 -1.74798,-2.28768 -1.74798,-2.65049 0,-0.36282 0.82166,0.27615 1.82588,1.41991 1.69704,1.93281 1.87876,2.00725 2.57507,1.055 1.06869,-1.46154 1.00904,-1.55557 -1.69099,-2.66558 -3.1476,-1.29401 -3.09668,-1.30328 -4.16308,0.7589 -0.8118,1.56983 -0.81764,1.90171 -0.0541,3.06701 2.07455,3.16615 4.40605,4.10672 4.82229,1.94539 z m 42.94955,-0.1728 c 0.18124,-0.93527 -2.38095,-3.66502 -3.49007,-3.7182 -0.86608,-0.0415 -0.39395,1.84584 0.85834,3.43131 1.40909,1.78394 2.32224,1.88349 2.63173,0.28689 z m -77.1855,-1.30677 c -0.0108,-0.23607 -0.38831,-1.07295 -0.83808,-1.85977 l -0.81781,-1.43059 -0.0195,1.47828 c -0.0108,0.81305 0.15139,1.64994 0.36123,1.85975 0.5142,0.51422 1.34005,0.48426 1.31492,-0.0476 z m 14.05544,-0.69032 c -0.186,-0.30097 -0.71949,-0.40091 -1.18552,-0.22209 -1.70046,0.65253 -2.67503,-0.96992 -2.268,-3.77575 0.35264,-2.43081 0.31832,-2.53015 -0.50559,-1.46338 -1.96849,2.54874 -0.45092,6.00847 2.63556,6.00847 0.91396,0 1.50957,-0.24625 1.32355,-0.54725 z m 37.27517,-0.40647 c -0.20979,-0.20979 -0.55318,-0.20979 -0.76299,0 -0.20979,0.20979 -0.0381,0.38149 0.3815,0.38149 0.41962,0 0.5913,-0.17172 0.38149,-0.38149 z m -50.16587,-1.36899 c 0,-0.64803 -0.24625,-1.02604 -0.54725,-0.84002 -0.30099,0.186 -0.40219,0.71622 -0.22488,1.17823 0.4539,1.18289 0.77213,1.0435 0.77213,-0.33821 z m 5.15011,-1.18077 c 0,-0.76454 -0.41259,-1.0744 -1.43059,-1.0744 -1.55718,0 -1.7639,0.59695 -0.81844,2.3635 0.48883,0.91341 0.777,1.00697 1.43057,0.46457 0.45016,-0.3736 0.81846,-1.16273 0.81846,-1.75367 z m 42.20726,-0.20719 c 2.6284,-0.5471 1.75553,-1.40596 -1.15903,-1.14043 -1.6014,0.14598 -2.76184,0.63897 -3.42384,1.45481 -1.53049,1.88611 -1.19946,2.3271 0.85836,1.14346 1.02286,-0.58834 2.69891,-1.24438 3.72451,-1.45784 z m -49.64632,-1.50739 c 0,-0.92751 -0.91648,-0.51879 -2.46799,1.10063 -2.15897,2.25349 -1.91325,2.74543 0.46517,0.9313 1.10157,-0.8402 2.00282,-1.75456 2.00282,-2.03193 z m 14.28558,3.07213 c -0.0108,-0.23604 -0.35906,-1.04029 -0.77317,-1.78723 -0.68454,-1.23477 -0.77814,-1.26074 -1.03106,-0.28611 -0.15291,0.58957 -0.16978,1.39382 -0.0374,1.78723 0.25583,0.76037 1.87603,1.01205 1.84173,0.28611 z m 66.43017,-1.85974 c 0.80285,-3.17431 -2.03683,-4.69814 -3.78451,-2.03085 -1.39265,2.12547 -0.61416,3.85796 1.63433,3.6371 1.35725,-0.13323 1.8756,-0.52054 2.15018,-1.60625 z m -92.986,-0.23934 c 1.45285,-1.06233 0.72068,-1.76776 -0.92218,-0.88851 -0.74728,0.39992 -2.6512,0.58192 -4.60736,0.44043 -2.70338,-0.19552 -3.21605,-0.0993 -2.71104,0.50925 0.85324,1.02807 6.81144,0.98384 8.24058,-0.0612 z m 22.16404,-0.33291 c 0.16458,-0.62946 0.066,-1.14446 -0.21937,-1.14446 -0.28527,0 -0.51866,0.515 -0.51866,1.14446 0,0.62945 0.0986,1.14447 0.21937,1.14447 0.12068,0 0.35405,-0.51502 0.51866,-1.14447 z m 51.33528,0.0478 c 0,-0.60322 -0.32189,-1.24699 -0.7153,-1.43059 -0.56515,-0.26372 -0.56014,-0.40554 0.0238,-0.67556 0.90352,-0.41774 -0.15291,-1.94717 -1.34483,-1.94717 -0.41342,0 -2.82818,-1.38988 -5.36615,-3.08866 -2.53797,-1.69875 -4.6145,-2.88118 -4.6145,-2.62759 0,0.25358 1.15832,1.19283 2.57403,2.08725 1.41571,0.89439 2.5745,1.8193 2.57504,2.05537 0.002,0.73015 -0.60054,0.49045 -3.23501,-1.28755 -1.39901,-0.94418 -2.62948,-1.7167 -2.7344,-1.7167 -0.10489,0 -0.31317,0.64059 -0.46283,1.42352 -0.30102,1.57469 1.37851,2.80985 8.71875,6.41193 4.43695,2.17736 4.58134,2.20242 4.58134,0.79575 z m 13.33497,-1.08145 c 0.30526,-1.5968 -0.4122,-3.54409 -1.30573,-3.54409 -0.9657,0 -2.17694,2.35435 -1.85903,3.61347 0.63592,2.51868 2.67859,2.47389 3.16476,-0.0694 z m -76.85297,0.1754 c 0.57993,-0.69877 0.55114,-0.85836 -0.15486,-0.85836 -0.47695,0 -1.01542,0.38627 -1.19657,0.85836 -0.18124,0.47209 -0.1116,0.85834 0.15485,0.85834 0.26633,0 0.80477,-0.38625 1.19658,-0.85834 z m 27.75335,-0.28611 c 0.19444,-0.31473 0.0809,-0.57225 -0.25233,-0.57225 -0.3333,0 -0.60601,0.25752 -0.60601,0.57225 0,0.31473 0.11355,0.57223 0.25234,0.57223 0.13885,0 0.41151,-0.2575 0.606,-0.57223 z m -38.40285,-0.79508 c 1.70277,-0.71147 1.93609,-1.08757 2.21857,-3.57647 0.17367,-1.52976 0.22091,-2.87809 0.10511,-2.99629 -0.11592,-0.1183 -0.91005,0.6163 -1.76491,1.63225 -1.36006,1.61635 -1.80665,1.80622 -3.57373,1.51945 -1.42323,-0.23094 -2.32284,-0.0532 -3.04711,0.60232 -2.95859,2.67749 1.47086,4.73708 6.06211,2.81874 z m 62.15058,-0.15658 c 0.67744,-0.21922 0.56768,-0.51483 -0.52078,-1.40256 -1.46099,-1.19154 -1.98082,-0.98662 -2.5857,1.01935 -0.38171,1.26586 0.16891,1.33377 3.10648,0.38321 z m -39.80272,-0.8923 c 0.48994,-0.69946 0.89078,-1.47199 0.89078,-1.7167 0,-0.69594 -1.98358,-0.52134 -2.74672,0.24177 -0.95227,0.95227 -0.8613,2.74673 0.13928,2.74673 0.45425,0 1.22677,-0.57229 1.71671,-1.2718 z m 15.5223,0.0634 c 0.49329,-0.79815 -0.99621,-1.7833 -1.67299,-1.10654 -0.55043,0.55045 -0.0195,1.74274 0.7751,1.74274 0.27759,0 0.68164,-0.28629 0.89789,-0.6362 z m 1.39106,-1.34648 c 0,-1.29161 -2.09647,-2.20417 -3.29793,-1.43554 -0.86565,0.5538 -0.8246,0.59989 0.31829,0.35744 0.8849,-0.18773 1.53525,0.0789 1.99741,0.81898 0.82272,1.31739 0.98223,1.35947 0.98223,0.25912 z m 51.95885,-0.4207 c 0.95809,-0.95807 0.85775,-3.60907 -0.1687,-4.46105 -0.6894,-0.57216 -1.13377,-0.52765 -2.28893,0.22923 -2.24693,1.47225 -1.64751,4.9185 0.85549,4.9185 0.50356,0 1.22458,-0.30902 1.60225,-0.68668 z m -70.54613,-4.496 c 0.16761,-0.52841 0.0472,-1.63852 -0.26773,-2.46691 -0.65463,-1.7218 -2.53903,-2.03151 -3.36629,-0.55326 -0.48568,0.86786 -0.67386,0.84232 -2.10843,-0.28611 -1.77804,-1.3986 -4.28199,-1.65844 -4.28199,-0.44436 0,0.45081 0.84255,0.95274 1.94715,1.15996 2.30551,0.43251 3.93222,2.4849 3.11995,3.93636 -0.34944,0.62443 -0.31038,1.38525 0.1116,2.17378 0.63988,1.19563 0.67729,1.18591 2.595,-0.6728 1.07019,-1.03726 2.08299,-2.31825 2.25072,-2.84666 z m -2.22137,-0.82251 c 0.18038,-0.47027 0.56287,-0.70999 0.84974,-0.53269 0.60004,0.37085 0.1183,1.38777 -0.65733,1.38777 -0.28629,0 -0.37287,-0.38478 -0.19249,-0.85508 z m 3.06937,2.21088 c 0,-0.22595 -0.64375,0.194 -1.43057,0.93313 -0.78683,0.73919 -1.43058,1.61834 -1.43058,1.95368 0,0.33531 0.64375,-0.0846 1.43058,-0.93313 0.78682,-0.84857 1.43057,-1.72771 1.43057,-1.95368 z m -29.49093,0.95618 c 0.67823,-0.7494 0.89717,-1.59044 0.66,-2.53533 -0.79567,-3.17024 1.81913,-5.70542 3.63184,-3.52124 0.90417,1.08946 0.18599,2.20459 -1.18825,1.8452 -0.77947,-0.20374 -1.0799,0.0216 -1.0799,0.80849 0,1.18866 0.59879,1.40768 1.46909,0.5374 0.30443,-0.30443 1.57908,-0.76519 2.83256,-1.0239 1.89561,-0.39124 2.30904,-0.72639 2.45726,-1.99198 0.1488,-1.27002 -0.19335,-1.71119 -2.06945,-2.66828 -1.23624,-0.63066 -3.0584,-1.82884 -4.04926,-2.66259 -2.10438,-1.77073 -3.09114,-1.56416 -4.37343,0.91548 -1.43667,2.77821 -1.24771,11.41817 0.24971,11.41817 0.24474,0 0.90166,-0.50464 1.45983,-1.12142 z m 80.75811,-2.20393 c 0.21065,-0.41266 0.15658,-2.08643 -0.12069,-3.71952 -0.43536,-2.56576 -0.69821,-2.99615 -1.9344,-3.16734 -0.78682,-0.109 -1.63651,-0.55959 -1.88819,-1.00141 -0.7637,-1.34057 -1.54522,-0.90226 -1.54522,0.86661 0,2.53245 -0.57409,3.53622 -2.48105,4.33805 l -1.73753,0.73058 3.96536,2.54072 c 4.3214,2.76883 4.01109,2.80058 5.74165,-0.58769 z m -72.43984,0.96252 c 0,-0.25434 -0.38625,-0.34174 -0.85834,-0.19421 -0.47211,0.1475 -1.26094,0.39509 -1.75297,0.55023 -0.49205,0.15507 -0.74036,0.53167 -0.55181,0.83678 0.38476,0.62253 3.16312,-0.42512 3.16312,-1.19275 z m 84.97744,0.50306 c -0.23042,-0.70813 -0.45357,-1.8669 -0.49592,-2.57504 -0.0424,-0.70813 -0.39886,-1.28752 -0.79227,-1.28752 -0.39341,0 -0.71177,0.57939 -0.70746,1.28752 0.013,2.23841 0.66797,3.86259 1.55624,3.86259 0.63279,0 0.74826,-0.33837 0.43941,-1.28755 z m -83.27079,-2.62617 c -1.01322,-0.33774 -4.28348,0.43226 -5.44595,1.28229 -0.83724,0.61217 -0.28149,0.58025 2.49629,-0.14339 1.96529,-0.51204 3.29265,-1.02451 2.94966,-1.13883 z m 10.75137,0.0151 c 0.13582,-0.40766 -0.36497,-0.67954 -1.25177,-0.67954 -1.53443,0 -2.01192,0.83563 -0.76296,1.33521 0.98931,0.39574 1.74639,0.14945 2.01473,-0.65569 z m 74.72759,-0.45946 c 1.06212,-1.45756 1.06152,-1.46024 -0.28611,-1.26955 -0.88989,0.12588 -1.41283,0.63024 -1.53334,1.47865 -0.24007,1.69043 0.49703,1.60571 1.81945,-0.20914 z m 7.14629,-0.15442 c 1.19324,-0.75619 0.53784,-2.61568 -0.99886,-2.8339 -1.63884,-0.23272 -2.47397,0.89095 -1.71549,2.30817 0.59913,1.11952 1.50157,1.29432 2.71435,0.52573 z m -60.89217,-1.71261 c 0.46845,-0.90593 1.34862,-3.44018 1.95592,-5.63168 0.60731,-2.19151 1.53237,-4.81258 2.0557,-5.82461 0.84554,-1.63506 1.18702,-1.82045 3.0658,-1.6643 2.03735,0.16935 3.06327,1.29715 4.32395,4.75359 0.11484,0.31473 0.39103,0.40372 0.61386,0.19768 0.22281,-0.2059 -0.3978,-1.91726 -1.37916,-3.80288 -2.15657,-4.14368 -3.68241,-4.83942 -5.5451,-2.52839 -1.28176,1.59029 -3.09374,5.39513 -3.98469,8.36722 -0.33435,1.11534 -0.94137,1.72855 -1.84664,1.8655 -0.74171,0.11225 -1.77173,0.45109 -2.28893,0.7531 -0.7584,0.44285 -0.62295,0.55248 0.70002,0.56651 1.2973,0.013 1.57439,0.22684 1.32494,1.0188 -1.00814,3.20037 -1.05773,3.57647 -0.47172,3.57647 0.34336,0 1.00757,-0.7412 1.47605,-1.6471 z m 21.25469,0.2368 c 0.2849,-1.1352 -0.20741,-2.05607 -2.52413,-4.72093 -3.3416,-3.84383 -5.21705,-7.8175 -5.65715,-11.98631 -0.42153,-3.9929 0.11181,-5.9163 1.64031,-5.9163 1.06601,0 1.16937,-0.24078 0.8769,-2.04302 -0.18232,-1.12367 -0.0971,-2.65954 0.18924,-3.41305 0.45689,-1.20166 0.20417,-1.62961 -2.05727,-3.48263 -2.76111,-2.26252 -3.01033,-2.22245 -4.69679,0.75537 -4.68511,8.27259 -8.96044,14.71072 -11.78803,17.75128 -1.85368,1.9933 -3.2698,3.72475 -3.14689,3.84764 0.34806,0.34805 3.453,-2.59929 5.58481,-5.30135 1.06082,-1.34458 2.04702,-2.32639 2.1916,-2.18181 0.4498,0.44979 -1.62262,3.38152 -4.54022,6.42275 -2.36556,2.46582 -2.73619,3.14701 -2.41299,4.43481 0.91842,3.65931 3.73743,0.96525 7.38955,-7.062 0.50118,-1.10156 1.67339,-2.90409 2.60489,-4.00565 1.41787,-1.67669 1.78979,-1.86304 2.28396,-1.14446 0.51405,0.74746 0.69488,0.72157 1.39972,-0.20027 1.08518,-1.41945 2.02694,-0.71821 2.04359,1.52164 0.006,1.00431 0.65004,3.37103 1.42793,5.2594 1.6181,3.92799 1.61278,3.90642 0.84744,3.4334 -0.7456,-0.4608 -0.72445,0.0629 0.0651,1.61127 0.73893,1.44923 6.84129,7.83061 7.48819,7.83061 0.23992,0 0.59548,-0.63465 0.79015,-1.41031 z m -13.19985,-21.11664 c -1.02284,-0.74794 -1.017,-0.83196 0.17454,-2.50523 0.67805,-0.95225 1.78243,-2.98409 2.45418,-4.51521 1.44283,-3.28869 2.14829,-2.41718 0.88051,1.08779 -2.58642,7.15059 -2.36211,6.77139 -3.50919,5.93265 z m -4.26173,20.21788 c 1.27968,-0.68487 1.45471,-2.41221 0.33833,-3.33875 -0.59688,-0.49536 -0.91641,-0.31327 -1.43059,0.81522 -0.70405,1.54522 -0.87458,3.11589 -0.33832,3.11589 0.17799,0 0.82183,-0.26656 1.43058,-0.59236 z m 27.42964,-1.76665 c 0,-0.59091 -0.21628,-1.0744 -0.48038,-1.0744 -0.63252,0 -1.82947,2.64953 -1.39376,3.08524 0.55707,0.55707 1.87414,-0.85604 1.87414,-2.01084 z m 19.9036,0.73072 c 0.16394,-0.49249 -0.11116,-0.69871 -0.7635,-0.57225 -0.56094,0.10879 -1.13526,0.5442 -1.27628,0.96767 -0.16393,0.49246 0.11117,0.69868 0.76353,0.57223 0.56094,-0.10879 1.13526,-0.54418 1.27625,-0.96765 z m 2.06619,0.15096 c 0.53717,-1.39983 0.4207,-1.58479 -0.51102,-0.81154 -0.95128,0.78948 -1.13888,1.71671 -0.34734,1.71671 0.28107,0 0.66732,-0.40734 0.85836,-0.90517 z m -83.96184,-0.6208 c -0.20979,-0.20979 -0.3815,-0.0381 -0.3815,0.38149 0,0.41964 0.17173,0.5913 0.3815,0.38149 0.20978,-0.20979 0.20978,-0.55317 0,-0.76298 z m 15.06405,-0.17562 c 0.60653,-0.38344 0.67628,-0.71694 0.24099,-1.15222 -0.7598,-0.7598 -7.22738,-0.0993 -6.74056,0.68844 0.18405,0.29781 0.93453,0.3909 1.66773,0.20697 0.73318,-0.18405 1.49282,-0.0761 1.68805,0.23977 0.44441,0.71908 2.01994,0.72769 3.14379,0.0173 z m -16.85959,-3.60677 c -0.92971,-2.22509 -3.19985,-4.12357 -4.43302,-3.70726 -0.42224,0.14253 0.0283,0.64325 1.06177,1.17967 1.20233,0.62415 2.14744,1.79092 2.86116,3.53226 0.5862,1.43016 1.13894,2.2635 1.22837,1.85188 0.0893,-0.41162 -0.23382,-1.69707 -0.71828,-2.85655 z m 54.63182,3.1567 c 0,-0.23927 -0.62458,-1.10864 -1.388,-1.93194 -1.74497,-1.88188 -4.19652,-6.52888 -4.65578,-8.82529 -0.36778,-1.83886 0.96572,-3.81365 1.73487,-2.56916 0.20395,0.33001 0.73967,0.60001 1.19045,0.60001 0.45081,0 2.00035,0.90128 3.44346,2.00282 1.44312,1.10154 2.86162,2.00282 3.15225,2.00282 1.1738,0 0.36711,-0.97044 -2.57141,-3.09338 -2.71017,-1.95794 -3.12796,-2.52547 -3.3701,-4.57786 -0.15204,-1.28858 -0.83051,-3.75914 -1.50776,-5.49014 l -1.23137,-3.14729 0.2889,2.86116 c 0.15896,1.57366 0.45193,3.53549 0.65121,4.35966 0.3106,1.28447 0.14101,1.55404 -1.18812,1.8876 -1.98789,0.49893 -2.42112,0.0441 -1.22115,-1.28175 1.29304,-1.42879 1.19654,-1.98175 -0.19421,-1.11318 -0.90551,0.5655 -1.14448,1.33446 -1.14448,3.6828 0,3.26278 2.36763,8.54352 5.73897,12.80019 1.79504,2.26641 2.27232,2.65141 2.27232,1.83293 z m 34.23236,-2.03286 c 1.67507,-0.4507 3.34884,-1.14776 3.71952,-1.54902 0.53321,-0.5772 0.44953,-0.65011 -0.40072,-0.34907 -3.63787,1.28799 -10.26993,2.16919 -14.66177,1.94807 -3.95487,-0.19919 -5.5815,-0.58429 -8.70271,-2.06084 -4.10367,-1.94131 -4.46068,-2.05245 -4.45508,-1.38679 0.006,0.78402 3.66935,2.67295 7.14932,3.68701 4.0299,1.17432 12.43241,1.03419 17.35144,-0.28936 z m -85.73343,-0.39343 c 0,-0.31473 -0.38625,-0.57223 -0.85834,-0.57223 -0.4721,0 -0.85837,0.2575 -0.85837,0.57223 0,0.31473 0.38627,0.57223 0.85837,0.57223 0.47209,0 0.85834,-0.2575 0.85834,-0.57223 z m 9.70718,-0.26105 c 0.77628,-0.93535 0.34462,-2.02788 -0.80124,-2.02788 -1.02892,0 -2.22297,1.5285 -1.76851,2.26386 0.52627,0.85151 1.76135,0.73809 2.56975,-0.23598 z m 44.06256,-2.45706 c 0.0108,-0.39341 -0.46718,-0.7153 -1.06296,-0.7153 -1.37849,0 -1.77452,1.03911 -1.09045,2.86118 l 0.5371,1.43057 0.79802,-1.43057 c 0.43889,-0.78684 0.80715,-1.75247 0.81829,-2.14588 z m -41.18058,1.89353 c 0,-0.45351 -0.2575,-0.98374 -0.57225,-1.17824 -0.31472,-0.19443 -0.57222,0.17649 -0.57222,0.82458 0,0.64804 0.2575,1.17824 0.57222,1.17824 0.31475,0 0.57225,-0.37107 0.57225,-0.82458 z m 68.64285,0.10922 c -0.013,-0.0787 -0.36426,-1.43059 -0.77862,-3.00422 -0.56821,-2.158 -1.01906,-2.86118 -1.83451,-2.86118 -0.90696,0 -1.05492,0.36877 -0.91845,2.28893 0.2328,3.27517 0.48466,3.71954 2.1083,3.71954 0.7967,0 1.43716,-0.0645 1.42328,-0.14296 z m 4.88925,-1.3499 c 2.56689,-0.15312 2.57504,-0.15658 2.57504,-1.09626 0,-1.39501 -2.81785,-2.20523 -3.98765,-1.14658 -0.53155,0.48105 -1.24395,0.87463 -1.58311,0.87463 -0.33917,0 -0.48273,0.51212 -0.31906,1.13803 0.17454,0.6675 0.56644,0.97154 0.94784,0.73534 0.35762,-0.22149 1.42274,-0.44879 2.36694,-0.50516 z m -87.62065,-2.52793 c -0.28203,-1.76375 -0.0409,-2.8404 1.14322,-5.10504 0.82536,-1.57846 1.50064,-3.6109 1.50064,-4.51652 V 193.858 l -2.71811,1.33205 c -1.49495,0.73264 -3.05312,1.34012 -3.4626,1.34997 -0.72111,0.0173 -2.07043,2.65506 -3.00957,5.88328 -0.42427,1.45834 -0.33709,1.57366 1.18983,1.57366 1.20966,0 2.05256,0.5309 3.171,1.99724 1.85721,2.43491 2.66261,2.11504 2.18559,-0.86803 z m 68.98309,0.44821 c -0.29275,-1.02079 -0.55443,-1.98644 -0.58148,-2.14588 -0.027,-0.1594 -0.27359,0.46056 -0.5479,1.37777 -0.55464,1.85477 -0.29753,2.6241 0.87703,2.6241 0.61282,0 0.66808,-0.40641 0.25235,-1.85599 z m -17.13584,-1.43437 c 0.006,-0.99421 -0.31715,-1.28753 -1.42183,-1.28753 -1.65595,0 -1.81831,0.9085 -0.49897,2.79213 0.72996,1.04215 1.03774,1.16262 1.42183,0.5565 0.26961,-0.42546 0.49415,-1.35297 0.49897,-2.0611 z m -41.49638,0.66271 c 0.83104,-1.26833 0.86677,-1.73673 0.24668,-3.23376 -0.64001,-1.54513 -0.7752,-1.6229 -1.15189,-0.66271 -0.44473,1.13366 -0.67118,5.37964 -0.28691,5.37964 0.12111,0 0.65761,-0.66743 1.19212,-1.48317 z m -22.29897,0.33869 c 0.19443,-0.31472 -0.0478,-0.57222 -0.53847,-0.57222 -0.49066,0 -0.89212,0.2575 -0.89212,0.57222 0,0.31473 0.2423,0.57225 0.53847,0.57225 0.29615,0 0.6976,-0.25752 0.89212,-0.57225 z m 13.95392,-3.14729 c 0.0398,-0.94282 -0.0495,-0.99323 -0.50643,-0.28611 -0.30509,0.47209 -0.53298,1.63088 -0.50642,2.57506 0.0474,1.68228 0.0575,1.68801 0.50642,0.28612 0.25198,-0.78682 0.47989,-1.94559 0.50643,-2.57507 z m 64.15604,2.82357 c 0,-0.49279 -0.28519,-1.42884 -0.63374,-2.08014 -0.50832,-0.94978 -0.73309,-1.02727 -1.13571,-0.39154 -0.95013,1.50027 -0.60359,3.36765 0.62497,3.36765 0.65718,0 1.14448,-0.38149 1.14448,-0.89597 z m 24.94581,-1.28927 c -0.87276,-1.68775 -3.46708,-4.10934 -4.40241,-4.10934 -0.60009,0 -1.38461,1.51595 -1.90262,3.67639 -0.36641,1.52824 -0.31667,1.6034 0.57264,0.86533 1.25694,-1.04317 3.6589,-0.74147 5.07474,0.63743 1.48654,1.44774 1.74343,1.02985 0.65765,-1.06981 z m -35.83482,0.44618 c -1.35695,-0.85815 -2.09004,-0.592 -0.88356,0.32076 0.60649,0.45883 1.2428,0.69414 1.414,0.52291 0.17129,-0.17129 -0.0675,-0.55088 -0.53044,-0.84367 z m -29.16738,-1.41035 c 0,-0.54045 -0.34159,-0.69423 -1.00141,-0.45076 -1.19761,0.44185 -1.89236,1.36784 -1.50116,2.00082 0.423,0.68443 2.50257,-0.60361 2.50257,-1.55006 z m -33.13075,-2.70816 c 0.28237,-0.54651 0.5134,-1.37925 0.5134,-1.85051 0,-0.74227 -0.26782,-0.72914 -2.00281,0.0982 -2.21957,1.05842 -2.47984,2.09637 -1.04084,4.15082 l 0.962,1.37344 0.52744,-1.38917 c 0.29009,-0.76404 0.75846,-1.83632 1.04081,-2.38281 z m 92.02733,-0.52402 c 0.024,-0.20525 -0.6646,-0.64781 -1.5301,-0.98346 -0.86552,-0.33562 -2.45127,-1.32647 -3.52392,-2.20185 l -1.95026,-1.59161 0.32033,2.84241 c 0.17627,1.56334 0.59083,2.93257 0.92143,3.04278 0.3306,0.1103 1.45034,0.77914 2.48827,1.48654 l 1.8872,1.28618 0.67176,-1.7539 c 0.36946,-0.96464 0.69135,-1.92184 0.71529,-2.12709 z m -99.0571,1.51766 c -0.35851,-0.78681 -0.86799,-1.43059 -1.13219,-1.43059 -0.63234,0 -0.60599,0.41279 0.11203,1.75432 0.88031,1.64487 1.78619,1.35742 1.0202,-0.32373 z m 82.40079,-0.0988 c -0.22361,-1.88901 -1.38383,-2.37868 -1.88613,-0.79605 -0.44653,1.40689 0.0294,2.32557 1.20462,2.32557 0.59863,0 0.80717,-0.46803 0.68151,-1.52952 z m -46.18792,-2.07481 c -1.01023,-1.01021 -1.29466,-0.0861 -0.5086,1.65234 0.71718,1.58607 0.74181,1.59386 0.92822,0.29405 0.10533,-0.73437 -0.0835,-1.61025 -0.41962,-1.94639 z m 67.5001,-0.54761 c -1.77536,-2.63059 -3.18203,-3.28712 -7.04286,-3.28712 -1.47019,0 -1.61207,0.12436 -0.99302,0.87024 0.39724,0.47864 1.87595,1.16076 3.28602,1.51582 1.51669,0.3819 3.29529,1.38848 4.35487,2.46461 2.36444,2.40129 2.55684,1.63967 0.39499,-1.56355 z m -39.70937,2.62597 c -0.20979,-0.20979 -0.55315,-0.20979 -0.76298,0 -0.20979,0.20979 -0.0381,0.38149 0.38149,0.38149 0.41964,0 0.59132,-0.17172 0.38149,-0.38149 z m -20.44865,-1.85272 c 1.32241,-1.85715 1.44928,-2.34367 0.6112,-2.34367 -0.87763,0 -2.86117,2.1819 -2.86117,3.14729 0,1.35107 0.95981,1.00825 2.24997,-0.80362 z m 27.80483,1.29189 c 0.76999,-0.29548 0.60439,-0.52149 -0.82129,-1.12094 -0.98216,-0.41296 -2.02254,-1.34081 -2.31196,-2.06191 l -0.52623,-1.31105 -0.0363,1.28752 c -0.0195,0.70814 0.47875,1.80255 1.1082,2.432 1.28822,1.28821 1.26592,1.28153 2.58755,0.77438 z m -31.8726,-1.15613 c -0.27841,-1.43561 -1.61561,-1.63272 -1.61561,-0.23817 0,0.70291 0.36949,1.19215 0.90032,1.19215 0.53289,0 0.8248,-0.38932 0.71529,-0.95398 z m -34.55275,-2.2115 c 0.61092,-0.46208 1.59349,-0.84015 2.1835,-0.84015 0.58998,0 1.59214,-0.27801 2.22703,-0.61778 1.1193,-0.59902 1.12269,-0.65272 0.11181,-1.76971 -1.34974,-1.49145 -2.41184,-2.0398 -5.12984,-2.64843 l -2.22002,-0.49713 -0.11896,3.62487 c -0.10143,3.08922 0.0255,3.6222 0.85837,3.60669 0.53753,-0.0108 1.47717,-0.39629 2.08811,-0.85836 z m 68.41588,-0.84067 c 0.57169,-1.38018 0.56706,-1.89103 -0.0236,-2.60267 -1.72503,-2.07853 -4.36746,0.31047 -3.35407,3.03237 0.69476,1.86606 2.52305,1.63348 3.37762,-0.4297 z m 8.56301,-1.35708 c -0.0195,-1.14679 -0.0677,-1.13442 -0.83805,0.21303 -1.07129,1.874 -1.07129,2.6058 0,1.71671 0.47209,-0.39179 0.84921,-1.26023 0.83805,-1.92983 z m -46.33068,0.62615 c 0,-0.75092 -1.71683,-2.70196 -2.37762,-2.70196 -0.71123,0 -0.58897,2.52686 0.15853,3.27425 0.72989,0.72989 2.2192,0.34582 2.2192,-0.57229 z m 5.26456,0.61699 c -0.37768,-0.37766 -0.68668,-1.15018 -0.68668,-1.7167 0,-0.5665 -0.2575,-1.03002 -0.57225,-1.03002 -0.31472,0 -0.57222,0.77252 -0.57222,1.7167 0,1.38725 0.2416,1.7167 1.2589,1.7167 0.97918,0 1.10633,-0.15247 0.57225,-0.68668 z m 2.90402,-1.56974 c 0.16849,-0.64455 -0.13452,-1.49679 -0.72091,-2.02752 -0.92766,-0.83952 -1.04114,-0.83878 -1.36644,0.009 -0.3815,0.99412 0.51335,3.13055 1.3112,3.13055 0.26695,0 0.61622,-0.50038 0.77615,-1.11197 z m 24.93959,-1.18925 c 1.39391,-1.88535 1.21234,-2.84889 -0.53687,-2.84889 -1.27746,0 -2.57128,2.32449 -2.04996,3.68303 0.5041,1.31365 1.1538,1.10417 2.58683,-0.83414 z m 33.36524,-1.98934 c -0.11506,-2.23159 0.0376,-3.72073 0.38149,-3.72073 0.31535,0 0.68982,0.32189 0.83215,0.7153 0.14923,0.41229 0.57231,0.0476 0.99898,-0.86077 0.91817,-1.95495 0.5785,-2.34189 -1.39659,-1.59098 -1.03657,0.3941 -2.371,0.39772 -4.09631,0.0108 -1.40739,-0.31542 -3.58383,-0.40959 -4.83653,-0.20936 l -2.27764,0.36421 v 2.98548 c 0,3.72531 1.30595,5.18278 4.4684,4.98679 1.16176,-0.072 2.8848,0.10987 3.829,0.40399 0.94418,0.29416 1.84545,0.55752 2.00282,0.58524 0.15745,0.0277 0.19984,-1.62394 0.0943,-3.67033 z m -88.05825,2.6217 c 2.35781,-0.89645 3.27334,-2.25175 3.27334,-4.84574 0,-1.94568 -0.33791,-2.75088 -1.7036,-4.05927 -1.57846,-1.51226 -1.86217,-1.58685 -3.86256,-1.01536 -2.60249,0.7435 -5.87851,0.31743 -5.87851,-0.76454 0,-0.55832 0.4805,-0.68301 1.69564,-0.43998 1.98354,0.39672 4.59892,-0.14404 4.59892,-0.95086 0,-0.30874 -0.32186,-0.56745 -0.71527,-0.57493 -0.39343,-0.006 -2.16488,-0.60986 -3.9366,-1.33863 l -3.22128,-1.32504 -0.93613,1.58475 c -0.90238,1.52761 -0.87392,1.69032 0.78928,4.51111 1.94459,3.29804 2.1004,4.02045 0.86708,4.02045 -1.63885,0 -0.84593,0.96538 1.40234,1.70738 1.2434,0.41035 2.96536,1.48159 3.8266,2.38053 1.74298,1.81928 1.85187,1.85109 3.80075,1.11013 z m 23.27539,-2.59151 c 0.96041,-1.15717 0.51719,-3.41413 -0.71663,-3.64935 -1.4129,-0.26938 -2.69062,0.91582 -2.69062,2.49577 0,1.90478 2.1732,2.64056 3.40725,1.15358 z m -4.83784,-0.3176 c 0.19443,-0.31473 -0.0478,-0.57223 -0.53847,-0.57223 -0.49064,0 -0.89212,0.2575 -0.89212,0.57223 0,0.31473 0.24232,0.57223 0.53847,0.57223 0.29617,0 0.69762,-0.2575 0.89212,-0.57223 z m 14.76159,-0.62673 c 0.94108,-1.5041 0.0151,-3.95115 -1.49664,-3.95115 -0.71789,0 -1.61426,0.30902 -1.99194,0.68668 -0.74899,0.74901 -0.93268,3.45445 -0.27891,4.10821 0.68205,0.68206 3.16005,0.12718 3.76749,-0.84374 z m 27.67913,0.81747 c -0.20979,-0.20979 -0.55318,-0.20979 -0.76299,0 -0.20979,0.20979 -0.0381,0.38149 0.38149,0.38149 0.41962,0 0.59131,-0.17173 0.3815,-0.38149 z m -33.57109,-1.0491 c 0,-0.47209 -0.2575,-0.85834 -0.57223,-0.85834 -0.31473,0 -0.57223,0.38625 -0.57223,0.85834 0,0.47211 0.2575,0.85836 0.57223,0.85836 0.31473,0 0.57223,-0.38625 0.57223,-0.85836 z m 24.3539,-1.37566 c -0.70225,-1.13627 -1.46452,-0.65428 -1.46452,0.92606 0,1.43109 0.0729,1.4804 0.92605,0.62714 0.50934,-0.50933 0.75166,-1.20828 0.53847,-1.5532 z m 5.21153,1.2803 c -0.20979,-0.20979 -0.55315,-0.20979 -0.76298,0 -0.20979,0.20979 -0.0381,0.38149 0.38149,0.38149 0.41964,0 0.59132,-0.17172 0.38149,-0.38149 z m 4.76862,-0.69291 c 0,-0.27621 -0.40587,-0.83902 -0.90197,-1.25073 -0.74749,-0.62037 -0.99098,-0.60789 -1.4218,0.0729 -0.8298,1.31135 -0.63385,1.67989 0.8932,1.67989 0.78682,0 1.43057,-0.22597 1.43057,-0.50216 z m -73.25786,-2.65945 c -0.31905,-0.38444 -0.409,-1.18224 -0.19984,-1.77292 0.26496,-0.74838 0.19465,-0.90047 -0.23172,-0.5017 -0.33655,0.31473 -0.79709,1.60225 -1.02343,2.86118 l -0.41149,2.28893 1.22331,-1.08826 c 0.86795,-0.77216 1.05479,-1.29131 0.64319,-1.78723 z m 31.1458,0.78824 c 0.30315,-0.25642 0.22175,-0.79789 -0.19552,-1.30071 -0.63555,-0.76578 -0.8679,-0.76117 -2.09302,0.0415 -0.75795,0.49664 -1.3781,1.38286 -1.3781,1.96936 0,0.94394 0.1808,0.98962 1.57363,0.39773 0.8655,-0.36775 1.80737,-0.86634 2.09303,-1.10794 z m 17.21988,-1.06004 c -0.27686,-0.44795 -0.60603,-0.4812 -0.98752,-0.0997 -0.31473,0.31472 -0.38537,0.8746 -0.15702,1.24418 0.27686,0.44797 0.60603,0.48121 0.98752,0.0997 0.31473,-0.31473 0.38534,-0.87463 0.15702,-1.2442 z m 16.30866,1.50756 c 0,-0.11506 -1.99565,-1.84562 -4.43481,-3.84578 -2.43913,-2.00015 -5.97983,-4.99785 -7.86822,-6.66156 -4.66402,-4.10912 -11.43632,-7.87082 -13.4047,-7.44568 -0.49565,0.10706 0.1289,0.54416 1.38778,0.97137 1.25893,0.42719 2.93271,1.21818 3.71952,1.75773 0.78684,0.53955 2.58936,1.63317 4.00566,2.43027 1.41627,0.79709 4.5867,3.28625 7.04539,5.53147 5.24983,4.79402 9.54938,8.06379 9.54938,7.26218 z m 3.1473,-0.97517 c 0,-0.44155 -0.515,-0.89844 -1.14446,-1.01529 -1.55276,-0.28828 -2.55925,-1.17456 -2.26094,-1.99092 0.13539,-0.3704 -0.009,-1.05972 -0.32014,-1.53181 -0.50329,-0.76299 -0.62882,-0.76299 -1.12968,0 -0.94323,1.43682 -0.6707,2.13167 1.55584,3.96698 2.18691,1.80263 3.29938,1.99516 3.29938,0.57104 z m -27.72107,-0.67544 c 1.25791,-1.50786 1.4219,-2.71811 0.36828,-2.71811 -1.14634,0 -2.11727,1.23333 -2.11727,2.6895 0,1.65124 0.39003,1.65762 1.74899,0.0285 z m 34.4878,-0.50654 c 0.38037,-1.45455 -2.36525,-4.51849 -4.00459,-4.46885 -0.57499,0.0173 -1.67089,0.82189 -2.43533,1.78775 -1.3311,1.68181 -1.33895,1.73993 -0.18556,1.37385 0.76454,-0.24266 1.3766,-0.0902 1.67602,0.41727 0.3938,0.66756 2.94152,1.90136 4.26748,2.06664 0.1994,0.0249 0.50622,-0.50464 0.68194,-1.17666 z m -45.79855,-1.20823 c 1.01012,-0.70708 1.91295,-1.3199 2.0063,-1.36186 0.51846,-0.23297 -2.42002,-4.79158 -3.08864,-4.79158 -1.11923,0 -0.99784,-1.37566 0.35552,-4.02845 1.32822,-2.60355 0.8677,-2.79472 -2.35753,-0.97862 -2.26982,1.27814 -2.2927,1.27926 -3.13408,0.15421 -0.54331,-0.7265 -0.71845,-1.72127 -0.48788,-2.77108 0.30324,-1.38067 0.19357,-1.60605 -0.69879,-1.43586 -2.07769,0.39622 -1.66134,6.10523 0.51565,7.07067 0.75217,0.33357 1.24772,1.02193 1.19246,1.65643 -0.0519,0.59712 0.12609,1.66626 0.39601,2.37587 0.42524,1.11846 0.7898,1.25008 2.73846,0.98871 2.98606,-0.40052 3.61568,0.72399 0.66921,1.19515 -2.53108,0.40474 -2.57535,0.46333 -1.56867,2.07529 0.89786,1.43771 1.21486,1.42408 3.46198,-0.1488 z m 6.02045,0.11895 c 1.44037,-1.34192 1.45265,-1.39544 0.66002,-2.87651 -0.33971,-0.63471 -1.19401,-1.10685 -2.00284,-1.10685 -1.42819,0 -1.88672,0.78256 -0.83821,1.43059 0.8841,0.54641 0.67602,2.00282 -0.28611,2.00282 -1.03937,0 -1.13944,0.93568 -0.14296,1.33772 1.16749,0.47109 1.30279,0.43026 2.61021,-0.78777 z m 11.93491,-0.88044 c 0.44845,-1.16862 -1.17216,-2.78921 -2.34077,-2.34078 -1.07343,0.41193 -1.207,2.45311 -0.18752,2.86451 1.35663,0.54742 2.18285,0.37626 2.52822,-0.52373 z m 4.33353,-0.85512 0.99632,-1.7506 -1.56855,0.1806 c -1.2306,0.14166 -1.60759,0.51965 -1.74964,1.75422 -0.24658,2.14299 1.05621,2.03963 2.32187,-0.18427 z m 42.03885,-0.70146 c 1.59699,-1.4988 3.47807,-4.97974 2.69099,-4.97974 -0.15356,0 -1.28188,0.51156 -2.50748,1.1368 -2.55129,1.30158 -4.02064,3.1219 -4.02064,4.98102 0,1.63865 1.28436,1.25772 3.83713,-1.13808 z m 9.48372,1.80173 1.22872,-0.6576 -1.25114,-0.46283 -1.25115,-0.46283 1.40981,-3.02828 c 0.7754,-1.66555 1.41233,-3.48553 1.4154,-4.04439 0.004,-0.91931 -0.14425,-0.94059 -1.56805,-0.22337 -0.8655,0.43602 -2.27221,0.96014 -3.12601,1.16474 -1.17919,0.28255 -1.94568,1.17813 -3.18834,3.72523 l -1.63595,3.35328 1.47162,0.58593 c 2.03863,0.81172 5.02893,0.83477 6.49509,0.0502 z M 177.208,180.06009 c -0.37989,-0.37987 -2.57632,1.64983 -2.57632,2.38076 0,0.3208 0.64276,-0.0216 1.42834,-0.75855 0.78559,-0.73803 1.30217,-1.46801 1.14798,-1.62221 z m 27.46599,0.11268 c -1.79136,-1.35442 -3.14749,-2.00846 -3.14515,-1.51689 0.001,0.24714 0.5347,1.32289 1.18561,2.39056 1.11266,1.82508 1.24094,1.88291 2.14374,0.96644 0.89939,-0.91302 0.88771,-1.02965 -0.18427,-1.84011 z m 9.08119,0.7922 c 0.18967,-0.70813 0.34857,-2.28904 0.35285,-3.51312 l 0.009,-2.22559 2.86117,0.33887 c 6.4109,0.75928 1.36394,-2.32163 -5.32178,-3.24866 -1.88573,-0.26148 -2.132,-0.16762 -1.85445,0.70686 0.44382,1.39836 -1.77443,3.27777 -4.42742,3.75116 -2.66852,0.47613 -2.36891,1.0965 0.98276,2.03493 2.60189,0.72847 4.67465,0.46398 4.06712,-0.51898 -0.18253,-0.29522 -0.0701,-0.69849 0.24987,-0.89617 0.34985,-0.21627 0.58157,0.40643 0.58157,1.56272 0,2.93177 1.85395,4.42056 2.50049,2.00798 z m -33.75307,-0.69516 c 0.50828,-0.77576 0.89779,-2.38517 0.86559,-3.57647 -0.0575,-2.12741 -0.066,-2.13542 -0.4765,-0.44932 -0.22986,0.94421 -0.85389,2.55361 -1.38671,3.57648 -1.13046,2.17012 -0.3579,2.51807 0.99762,0.44931 z m 19.85354,-2.5952 c 0.6965,-3.54024 0.97225,-3.90331 2.10458,-2.77097 0.50176,0.50175 0.87475,0.48622 1.53775,-0.064 0.48143,-0.39956 1.26486,-0.57697 1.74095,-0.39428 1.16348,0.44646 2.58235,-0.14901 2.58235,-1.08392 0,-0.41653 -0.55923,-0.83961 -1.24271,-0.94018 -1.70716,-0.2512 -1.94745,-1.39393 -0.37933,-1.80401 0.70727,-0.18492 1.12132,-0.5009 0.92009,-0.70212 -0.65796,-0.65796 -4.22606,0.88399 -5.73782,2.47955 -0.99012,1.04501 -1.68283,2.68195 -2.09722,4.95587 -0.71283,3.9116 -0.69799,3.75748 -0.36144,3.75748 0.14144,0 0.56128,-1.54502 0.9328,-3.43341 z m -11.88575,1.72453 c 1.47091,-0.0108 0.79439,-0.81071 -2.62502,-3.10256 -2.94812,-1.97598 -2.98885,-1.98487 -3.44439,-0.7534 -1.04073,2.81335 0.72399,4.66251 3.88977,4.07585 0.62945,-0.11657 1.61029,-0.21563 2.17964,-0.21989 z m 10.14883,-2.43844 c 0.35279,-3.06167 1.76207,-5.26162 4.60506,-7.18867 1.07261,-0.72706 2.03604,-1.56395 2.14093,-1.85977 0.35701,-1.00665 -1.45552,-0.54199 -3.62273,0.92871 -1.46357,0.99322 -2.34882,1.27892 -2.74257,0.88514 -0.38934,-0.38934 -0.93454,-0.39248 -1.65009,-0.009 -0.58774,0.31455 -1.2885,0.43604 -1.55724,0.26994 -0.26875,-0.1661 -0.64503,0.91641 -0.83617,2.40554 -0.19119,1.48914 -0.50298,3.49524 -0.69294,4.458 -0.28622,1.45066 -0.11657,1.86178 0.99105,2.40023 2.31123,1.12364 3.02756,0.6362 3.3647,-2.28958 z m -24.74596,1.17171 c 0.85106,-0.85106 0.89353,-2.55134 0.0763,-3.05637 -0.78863,-0.48741 -0.89435,-0.34222 -1.37113,1.88328 -0.4108,1.91747 0.0934,2.37436 1.29476,1.17309 z m 4.38148,0.11441 c 0.40702,0 0.89477,-0.70816 1.0839,-1.57366 0.18924,-0.8655 0.5041,-2.13487 0.69994,-2.82082 0.32052,-1.12261 -0.027,-1.36551 -3.47991,-2.432 -4.71214,-1.45544 -4.8599,-1.45699 -4.8599,-0.0513 0,0.72272 0.50323,1.25986 1.38848,1.48205 2.14947,0.53948 3.36476,2.22476 3.06705,4.2532 -0.19833,1.35124 -0.0694,1.69116 0.55077,1.45315 0.44532,-0.17086 1.14266,-0.31068 1.54967,-0.31068 z m -8.23504,-0.59239 c 2.24452,-1.20122 0.82838,-4.29077 -1.55272,-3.38746 -1.65747,0.6288 -2.19074,1.62227 -1.09623,2.04228 0.49203,0.18881 0.89461,0.70202 0.89461,1.14043 0,0.95292 0.29258,0.98707 1.75434,0.20482 z m -33.26048,-2.05478 c 0.67334,-1.14124 1.14941,-2.11537 1.05793,-2.16475 -0.0915,-0.0493 -0.59669,-0.41791 -1.1227,-0.81893 -0.83131,-0.63378 -0.91613,-0.57519 -0.64855,0.44804 0.17497,0.66903 0.032,1.17715 -0.33114,1.17715 -0.35143,0 -0.63897,0.77253 -0.63897,1.71671 0,0.9442 0.10338,1.7167 0.2296,1.7167 0.1263,0 0.7805,-0.93371 1.45383,-2.07492 z m 4.00629,-1.03911 c 2.97279,-3.02907 6.0809,-4.45728 13.10477,-6.02184 5.91238,-1.31695 8.29327,-1.43658 10.85038,-0.54517 0.9769,0.34055 2.23849,0.52074 2.80352,0.4004 0.82391,-0.1754 0.68742,-0.39575 -0.68939,-1.11258 -2.6899,-1.40048 -6.4476,-1.62472 -11.43275,-0.6822 -7.01615,1.32652 -12.30772,3.75652 -15.41583,7.07935 -1.44181,1.54141 -2.6215,2.94236 -2.6215,3.1132 0,0.82465 1.12813,0.0846 3.4008,-2.23116 z m 1.48673,1.93149 c 0.61589,-0.9965 -0.0856,-1.20754 -0.87041,-0.26187 -0.45135,0.54385 -0.49475,0.87218 -0.11527,0.87218 0.33471,0 0.77827,-0.27463 0.98572,-0.61031 z m 14.76343,-3.53839 c 0.0904,-3.22902 -0.30424,-4.17772 -0.99211,-2.38519 -0.19097,0.49782 -0.34734,1.51266 -0.34734,2.25517 0,1.94042 -0.91693,2.23708 -3.04095,0.98389 -3.04164,-1.79463 -6.27071,-2.06135 -8.04635,-0.66465 -0.82602,0.64977 -1.50185,1.41284 -1.50185,1.69573 0,0.96953 3.72179,1.60845 8.77803,1.50695 l 5.0585,-0.10165 z m 36.428,-0.25242 c 0,-3.6888 -3.64384,-5.28662 -7.50396,-3.29046 -1.91713,0.99137 -1.93549,2.15827 -0.0383,2.43755 0.68073,0.10014 1.56183,0.62254 1.958,1.16072 0.39618,0.53819 1.49286,1.53877 2.43704,2.22353 1.57426,1.14171 1.77605,1.16688 2.432,0.30357 0.3934,-0.51782 0.71529,-1.79353 0.71529,-2.83491 z m 34.3952,-3.38714 c 1.02489,-1.05742 1.97546,-1.81057 2.11234,-1.67368 0.1369,0.1369 -0.55365,1.55317 -1.53453,3.14731 -2.63638,4.28465 -2.69117,4.21503 3.36668,4.27873 3.05678,0.0322 3.1899,-0.0327 4.62838,-2.25587 0.81459,-1.2589 2.35961,-3.1448 3.43341,-4.19087 l 1.95231,-1.90192 -1.7167,0.40342 c -2.24924,0.52858 -5.13008,2.70563 -6.37978,4.82117 -1.2968,2.19533 -2.15166,2.47649 -3.38524,1.11342 -1.03798,-1.14696 -0.83474,-2.07497 1.02144,-4.66426 0.5552,-0.77451 0.55732,-1.13492 0.0108,-1.68238 -0.54744,-0.54744 -1.14,-0.48531 -2.76595,0.29007 -1.50462,0.7175 -2.27132,0.81906 -2.80979,0.37217 -0.40727,-0.33802 -2.11567,-0.54 -3.79641,-0.44886 -2.92151,0.15853 -3.08721,0.25378 -3.76802,2.16853 -0.39168,1.10156 -0.71601,2.0672 -0.72075,2.14588 -0.004,0.0787 0.48349,0.14296 1.08498,0.14296 0.60147,0 1.72146,0.74616 2.48883,1.65813 2.06301,2.45177 3.42629,2.49658 4.243,0.1395 0.36986,-1.0675 1.51104,-2.80609 2.53592,-3.86351 z m 12.54621,3.92568 c 0.0108,-0.55078 0.39627,-1.50125 0.85834,-2.11219 0.4621,-0.61092 0.8296,-1.64094 0.81669,-2.28893 -0.0195,-0.97505 -0.41406,-0.74618 -2.28893,1.32742 -2.62743,2.90591 -2.86695,4.0751 -0.83488,4.0751 0.97403,0 1.43639,-0.31957 1.44878,-1.0014 z m -100.39307,-1.50344 c 0.16632,-0.43348 -0.21238,-1.63477 -0.84169,-2.66953 l -1.14413,-1.88138 -0.3694,1.47177 c -0.60782,2.42175 1.53332,5.22101 2.35522,3.07914 z m 14.10975,-0.65389 c 0.26308,-1.37615 0.18124,-1.42497 -1.79305,-1.06856 -2.25303,0.40675 -3.06344,0.79389 -1.66192,0.79389 0.48602,0 1.20421,0.38627 1.59602,0.85836 1.02014,1.22919 1.54383,1.06476 1.85895,-0.58369 z m 15.68957,0.48831 c -0.20979,-0.20979 -0.38149,-0.0381 -0.38149,0.38149 0,0.41965 0.17172,0.59131 0.38149,0.3815 0.20979,-0.20979 0.20979,-0.55318 0,-0.76299 z m -5.88917,-0.35385 c 0.95067,-0.69514 0.9418,-0.79313 -0.16221,-1.79223 -1.14497,-1.03618 -1.17932,-1.02664 -1.75462,0.48648 -0.32273,0.84884 -0.58678,1.65536 -0.58678,1.79222 0,0.51831 1.53825,0.21942 2.50361,-0.48647 z m 47.35897,-2.20997 c -4.58804,-3.08078 -5.44487,-2.62641 -1.367,0.72492 1.36562,1.12233 2.36597,1.54316 3.81023,1.60299 0.63704,0.0264 -0.37936,-0.94204 -2.44323,-2.32791 z m -74.46864,0.37025 c 0,-1.04908 -0.30519,-1.43057 -1.14448,-1.43057 -1.39235,0 -1.44034,0.44127 -0.19746,1.8147 1.22848,1.35744 1.34192,1.32498 1.34192,-0.38413 z m 97.08906,0.47687 c -0.20979,-0.20979 -0.55315,-0.20979 -0.76298,0 -0.20979,0.20979 -0.0381,0.38149 0.38149,0.38149 0.41964,0 0.59133,-0.17172 0.38149,-0.38149 z m -52.59429,-0.90603 c -0.28028,-0.85354 -3.29391,-1.32459 -3.29391,-0.51487 0,0.65164 0.98099,1.12045 2.47969,1.18498 0.5958,0.0257 0.9476,-0.2639 0.81422,-0.67011 z m 36.06485,-0.71529 c 0.14491,-1.03249 -0.17691,-1.14798 -3.29033,-1.1803 -1.8981,-0.0195 -3.45108,0.0385 -3.45108,0.12934 0,0.0908 0.96566,0.68015 2.14588,1.30949 2.60801,1.39069 4.37791,1.29109 4.59553,-0.25858 z m -22.19173,0.606 c 0,-0.13885 -0.2973,-0.43608 -0.66064,-0.66066 -0.40933,-0.25296 -0.50534,-0.15702 -0.25236,0.25235 0.40769,0.65965 0.913,0.88564 0.913,0.40831 z m -25.75054,-1.14447 c 0,-0.13885 -0.2973,-0.43608 -0.66064,-0.66064 -0.40933,-0.25298 -0.50534,-0.15702 -0.25236,0.25233 0.40769,0.65965 0.913,0.88563 0.913,0.40831 z m 71.35585,76.13452 c -0.23417,-0.59582 -0.29094,-1.21812 -0.12609,-1.38288 0.5219,-0.52192 0.98112,0.33335 0.76244,1.42 -0.20049,0.99589 -0.23103,0.99409 -0.63629,-0.0372 z m -4.40445,-4.92513 c 0,-0.41965 0.17172,-0.59131 0.38149,-0.3815 0.20979,0.20979 0.20979,0.55316 0,0.76299 -0.20979,0.20979 -0.38149,0.0381 -0.38149,-0.38149 z M 132.64703,222.73802 c -0.52534,-1.96034 -0.42652,-3.86259 0.20071,-3.86259 0.30873,0 0.71892,0.70814 0.91154,1.57366 0.1927,0.8655 0.47237,2.02427 0.62169,2.57504 0.16761,0.61832 -0.0461,1.00141 -0.55867,1.00141 -0.4566,0 -0.98544,-0.57939 -1.17523,-1.28752 z m -0.36066,-9.87104 c 0,-2.41117 0.629,-3.29981 1.42455,-2.01255 0.47629,0.77062 -0.28585,4.5876 -0.916,4.5876 -0.27971,0 -0.50855,-1.15878 -0.50855,-2.57505 z m 43.48979,-46.90308 c 0,-0.49698 0.497,-0.87848 1.14447,-0.87848 0.62946,0 1.14446,0.1196 1.14446,0.26598 0,0.14621 -0.515,0.54163 -1.14446,0.8785 -0.91347,0.48885 -1.14447,0.43517 -1.14447,-0.266 z"
       id="path18197" />
  </g>
</svg>
