<?xml version="1.0" encoding="UTF-8" standalone="no"?>
<!-- Created with Inkscape (http://www.inkscape.org/) -->

<svg
   width="125.76811mm"
   height="125.14072mm"
   viewBox="0 0 125.76811 125.14073"
   version="1.1"
   id="svg5"
   inkscape:version="1.1 (c4e8f9ed74, 2021-05-24)"
   sodipodi:docname="ornatet3.svg"
   xmlns:inkscape="http://www.inkscape.org/namespaces/inkscape"
   xmlns:sodipodi="http://sodipodi.sourceforge.net/DTD/sodipodi-0.dtd"
   xmlns="http://www.w3.org/2000/svg"
   xmlns:svg="http://www.w3.org/2000/svg">
  <sodipodi:namedview
     id="namedview7"
     pagecolor="#ffffff"
     bordercolor="#666666"
     borderopacity="1.0"
     inkscape:pageshadow="2"
     inkscape:pageopacity="0.0"
     inkscape:pagecheckerboard="0"
     inkscape:document-units="mm"
     showgrid="false"
     inkscape:zoom="0.66903058"
     inkscape:cx="-359.47535"
     inkscape:cy="438.69444"
     inkscape:window-width="2506"
     inkscape:window-height="1403"
     inkscape:window-x="1974"
     inkscape:window-y="0"
     inkscape:window-maximized="1"
     inkscape:current-layer="layer1" />
  <defs
     id="defs2" />
  <g
     inkscape:label="Layer 1"
     inkscape:groupmode="layer"
     id="layer1"
     transform="translate(-230.81817,-96.103561)">
    <path
       style="fill:#000000;stroke-width:0.636135"
       d="m 234.0546,220.33718 c -1.48603,-0.78772 -1.74937,-1.33191 -1.74937,-3.61478 0,-1.47809 0.28041,-3.66521 0.62312,-4.86021 0.4134,-1.44135 0.40702,-2.43317 -0.0192,-2.94635 -0.35312,-0.42548 -0.47023,-1.87907 -0.26024,-3.23021 0.22167,-1.42602 -0.0252,-4.00077 -0.58845,-6.13745 -1.02332,-3.88221 -0.83437,-5.54312 0.63057,-5.54312 0.48737,0 0.88613,-0.55564 0.88613,-1.23475 0,-0.6791 0.28628,-1.41164 0.63615,-1.62788 0.81142,-0.50149 0.83814,-4.77101 0.0298,-4.77101 -0.33345,0 -1.04147,-0.93036 -1.57332,-2.06745 -1.11855,-2.39134 -0.99725,-11.14138 0.21591,-15.5799 0.66591,-2.4363 0.60138,-2.88227 -0.66501,-4.59516 l -1.40252,-1.89702 1.67531,-1.31779 1.67532,-1.31782 -1.34403,-2.7664 c -1.50725,-3.10238 -1.22456,-4.80982 0.7964,-4.80982 1.22027,0 1.32515,-0.27113 1.04565,-2.70358 -0.64036,-5.57311 -1.77069,-11.53345 -2.31283,-12.196 -0.30864,-0.37716 -0.66068,-1.40142 -0.78229,-2.2761 -0.18585,-1.33756 0.0649,-1.62311 1.57828,-1.79646 1.08303,-0.12406 1.68259,-0.51043 1.50602,-0.97054 -0.16133,-0.42042 -0.63247,-2.39807 -1.047,-4.39477 -0.4145,-1.99672 -1.02064,-3.79539 -1.34698,-3.99706 -0.87394,-0.54013 -0.72198,-4.99767 0.20172,-5.92123 1.01281,-1.01252 1.09364,-3.91244 0.10916,-3.91244 -1.07855,0 -1.5269,-3.05696 -1.08141,-7.37327 0.67691,-6.558531 5.07422,-11.173382 8.97776,-9.421902 2.13747,0.959073 7.66691,1.901196 8.79965,1.499318 0.64117,-0.227446 5.00547,-0.459533 9.69846,-0.515673 6.82007,-0.0815 8.83958,0.09906 10.06171,0.899783 1.06195,0.695803 1.76689,0.804453 2.30764,0.355668 0.42826,-0.355403 2.15399,-0.954409 3.83497,-1.331138 2.42558,-0.543587 3.42903,-0.499011 4.86214,0.215906 1.54565,0.771057 2.05141,0.773413 3.51075,0.01683 2.23852,-1.161347 2.71344,-1.12759 6.54711,0.465615 3.24885,1.350183 3.24885,1.350183 5.96912,0.09064 2.03538,-0.942411 4.20117,-1.278555 8.60252,-1.335153 6.32079,-0.08126 7.96814,0.303302 10.14302,2.36799 1.39415,1.323546 1.39415,1.323546 3.18302,-0.09785 4.04034,-3.21055 7.98759,-3.940855 11.51683,-2.130806 1.34453,0.689576 2.75448,0.752376 6.48881,0.289021 2.62405,-0.325614 5.55825,-0.650506 6.5204,-0.721986 0.96215,-0.07141 1.74937,-0.381105 1.74937,-0.688013 0,-0.306932 1.40355,-0.42318 3.11901,-0.258341 3.61861,0.347709 5.83571,2.273573 7.7746,6.753371 1.57664,3.6428 1.50528,5.19378 -0.36591,7.95112 -0.86297,1.27168 -1.28894,2.46397 -0.95419,2.67086 0.96768,0.59807 0.70155,8.04953 -0.36021,10.08544 -0.706,1.35374 -0.77356,2.05615 -0.2576,2.67786 0.38469,0.4635 0.74555,2.42643 0.80191,4.36206 0.0618,2.12333 0.38702,3.52135 0.81979,3.52448 0.3945,0.002 1.04926,0.4052 1.45503,0.89411 0.58297,0.70241 0.33235,1.33284 -1.19438,3.00438 -1.06267,1.16349 -1.95303,2.55259 -1.97859,3.0869 -0.0255,0.53431 -0.2689,2.53987 -0.54077,4.45682 -0.48069,3.38926 -0.43557,3.54244 1.63679,5.55495 2.47104,2.3997 2.81827,5.08984 0.88305,6.84118 -1.23792,1.12031 -1.23694,1.13848 0.11998,2.23724 1.33868,1.08401 1.34498,1.16806 0.29385,3.92045 -1.33015,3.48291 -1.38362,7.12856 -0.11998,8.17729 1.08374,0.89943 1.26894,2.9111 0.32189,3.4964 -0.34776,0.21494 -0.59751,1.89999 -0.55498,3.74457 0.0767,3.33221 -0.84102,6.11789 -2.01576,6.11789 -0.33757,0 -0.61375,0.57968 -0.61375,1.28818 0,0.90279 0.53433,1.39504 1.78599,1.64538 1.7583,0.35167 1.78232,0.41791 1.55077,4.27801 -0.22721,3.78638 -0.60663,5.19101 -2.3729,8.78308 -0.69359,1.41052 -0.67791,1.83051 0.0971,2.60565 0.50827,0.50827 0.92268,1.8985 0.92092,3.08947 -0.0192,13.79169 0.52113,13.14721 -11.08339,13.19148 -8.29426,0.0315 -8.58482,-0.012 -9.90002,-1.52574 -0.74523,-0.85711 -1.35496,-1.84244 -1.35496,-2.18967 0,-1.48624 -1.33754,-0.46405 -1.68842,1.29036 -0.4879,2.43954 -1.19222,2.86191 -2.95156,1.77002 -1.0782,-0.66916 -3.61399,-0.81087 -10.94536,-0.61163 -14.90475,0.40508 -16.12055,0.36964 -17.77959,-0.51824 -1.15757,-0.61952 -2.01713,-0.6634 -3.34002,-0.17047 -0.9797,0.36502 -5.04474,0.69261 -9.03339,0.72795 -3.98866,0.0353 -7.56692,0.3109 -7.9517,0.61233 -1.09662,0.85905 -9.26981,1.31151 -12.78621,0.70782 -1.74936,-0.30034 -4.67921,-0.88661 -6.51076,-1.30284 -3.16992,-0.72037 -3.38777,-0.68551 -4.5301,0.72521 -1.12949,1.39485 -1.2636,1.41841 -2.28155,0.40046 -1.27103,-1.27103 -2.35217,-1.37396 -3.40227,-0.32386 -1.17683,1.17683 -12.75753,1.27694 -14.9231,0.12911 z m 15.23591,-2.95413 c 0.71704,-0.78722 1.68097,-2.14696 2.14206,-3.02165 1.00666,-1.90946 1.17529,-10.03901 0.24106,-11.61928 -0.49368,-0.83506 -0.59728,-0.0765 -0.40402,2.95872 0.26524,4.16566 -0.79121,8.95901 -1.8327,8.31531 -0.31765,-0.19643 -0.41197,0.0745 -0.20965,0.60201 0.21254,0.55373 -0.31598,1.6429 -1.25064,2.57757 -0.89652,0.89649 -1.25531,1.61864 -0.80424,1.61864 0.44792,0 1.40105,-0.64411 2.11806,-1.43132 z m 28.65177,0.10074 c 2.80429,-1.06619 5.88999,-3.71872 5.88999,-5.06316 0,-1.74862 -0.81015,-1.54134 -2.40454,0.61516 -1.74479,2.35996 -7.35848,4.5063 -11.78616,4.5063 -3.74998,0 -11.81081,-2.04593 -14.18192,-3.59954 -0.86103,-0.56417 -1.74564,-0.84561 -1.96583,-0.62543 -0.90341,0.90342 1.96176,2.80564 5.37858,3.57091 2.0071,0.44955 4.50807,1.05907 5.55769,1.35451 2.31926,0.65276 11.09587,0.15988 13.51219,-0.75875 z m -32.6843,-0.25976 c -0.20148,-0.52481 -0.59116,-0.95422 -0.86617,-0.95422 -0.275,0 -0.66479,0.42941 -0.86617,0.95422 -0.24783,0.64582 0.0322,0.95419 0.86617,0.95419 0.83408,0 1.11401,-0.30837 0.86617,-0.95419 z m 90.03781,-1.05876 c -0.4415,-0.81719 -0.99658,-3.34649 -1.2335,-5.62069 l -0.43078,-4.13488 -0.0904,4.47045 c -0.0644,3.18822 0.20196,4.88777 0.92878,5.92539 1.28192,1.83022 1.90115,1.3501 0.8258,-0.64027 z m 3.3268,0.98139 c -0.81001,-0.56734 -2.01923,-2.21335 -2.68712,-3.65778 -0.66788,-1.44442 -1.05156,-1.91057 -0.85261,-1.03589 0.70889,3.11652 1.68984,5.02411 2.72482,5.29883 2.07481,0.55075 2.26429,0.41003 0.81491,-0.60516 z m 4.43638,-0.42912 c -0.81648,-0.81648 -1.64444,-0.18537 -1.03998,0.7926 0.23418,0.37887 0.71715,0.50872 1.07332,0.28859 0.43448,-0.26852 0.42352,-0.62435 -0.0334,-1.08119 z m 8.28488,0.40233 c 0.79409,-0.96263 0.73959,-0.98722 -0.60261,-0.27195 -1.25617,0.66946 -1.91216,0.56667 -4.41075,-0.69101 -1.61431,-0.81258 -3.34685,-2.12153 -3.85007,-2.90874 -1.26593,-1.9804 -0.53426,-1.78998 1.5935,0.41471 2.48289,2.57262 4.14954,2.94163 5.65074,1.2511 1.21998,-1.37384 1.21998,-1.37384 -0.34278,-0.55238 -1.46169,0.76829 -1.71607,0.64343 -3.93237,-1.92986 -1.90836,-2.2158 -2.54432,-2.60626 -3.26744,-2.00612 -1.19416,0.99107 -2.35592,-1.50401 -2.7446,-5.89463 -0.20604,-2.32818 -0.11853,-2.86075 0.31865,-1.9381 0.33157,0.69974 0.64757,1.98791 0.70224,2.86262 0.095,1.5181 0.12623,1.50365 0.68955,-0.31809 0.64373,-2.08164 0.17407,-6.45764 -0.75487,-7.03169 -0.31944,-0.1974 -0.58078,0.3736 -0.58078,1.26893 0,1.70513 -0.90306,2.19491 -1.53539,0.83271 -0.74413,-1.60302 0.40169,6.75318 1.25932,9.18402 2.36744,6.71 9.04328,11.07954 11.80766,7.72848 z m -109.00394,-1.25816 c 3.20555,-2.44498 4.71124,-6.36775 4.95095,-12.89866 0.19836,-5.40233 0.19499,-5.41613 -0.32386,-1.32436 -1.09965,8.67352 -4.47848,14.63112 -8.29799,14.63112 -3.05718,0 -4.23456,-2.87284 -2.1303,-5.19804 1.94991,-2.15463 3.79816,-1.4087 3.42235,1.38122 -0.10459,0.77652 0.0267,0.80287 0.70551,0.14162 1.15827,-1.12863 -0.0601,-2.94654 -2.14321,-3.19772 -2.10537,-0.25389 -3.67359,1.38824 -3.67359,3.84671 0,4.25168 3.66768,5.53372 7.49014,2.61818 z m 11.86746,1.11633 c 0.19186,-0.31025 -0.0897,-0.92788 -0.62555,-1.37254 -0.75735,-0.62855 -1.14394,-0.6387 -1.73706,-0.0457 -0.59309,0.59312 -0.55168,0.89642 0.1861,1.36281 1.19503,0.75552 1.73539,0.76925 2.1766,0.0553 z m 31.36102,-1.10797 c 0.77995,-0.48648 1.86078,-1.74059 2.40186,-2.78693 0.96571,-1.86749 0.95458,-1.9024 -0.60658,-1.9024 -1.11292,0 -1.87787,0.55601 -2.54816,1.85222 -0.52681,1.01875 -1.74607,2.47229 -2.7095,3.2301 l -1.75167,1.37787 1.898,-0.44316 c 1.04389,-0.24374 2.53612,-0.84121 3.31605,-1.3277 z m 9.07818,0.31172 c 0,-0.72179 -1.82306,-1.48165 -2.3325,-0.9722 -0.20316,0.20316 -0.20148,0.80614 0.002,1.34013 0.38584,1.00509 2.32931,0.69809 2.32931,-0.36793 z m 34.5814,0.40609 c 0.22312,-0.58124 10e-4,-0.9542 -0.56806,-0.9542 -0.51384,0 -0.93424,0.42939 -0.93424,0.9542 0,0.52481 0.25563,0.95421 0.56807,0.95421 0.31244,0 0.73285,-0.4294 0.93423,-0.95421 z m -81.76787,-1.16594 c 0.12166,-0.62772 -0.20268,-1.06054 -0.79517,-1.06054 -0.59011,0 -1.00084,0.5439 -1.00084,1.3253 0,1.55029 1.48651,1.33116 1.79601,-0.26476 z m 42.0828,-1.0333 c 0.35791,-0.66873 0.64897,-1.73563 0.64681,-2.37092 -0.002,-0.79844 -0.31093,-0.56628 -0.99827,0.75192 -0.54688,1.04885 -1.47546,2.45024 -2.06351,3.11421 -1.02372,1.15589 -1.00894,1.1756 0.34754,0.46396 0.77919,-0.40881 1.70955,-1.29044 2.06743,-1.95917 z m 11.46505,2.30279 c 0,-0.11805 -1.16245,-1.4365 -2.58317,-2.93002 -2.61568,-2.74962 -3.81163,-3.11197 -2.56149,-0.77608 1.04094,1.945 5.14466,4.90125 5.14466,3.7061 z m 26.67163,-1.37947 c 2.8728,-1.52367 4.49904,-2.95309 4.49904,-3.95453 0,-1.12322 -0.20989,-1.06284 -3.64823,1.04894 -6.44925,3.96115 -14.63042,4.23726 -20.80895,0.70225 -1.85328,-1.06034 -3.59385,-1.92788 -3.86789,-1.92788 -1.2196,0 2.22181,2.86738 5.1061,4.2544 2.87537,1.38275 3.82179,1.50573 9.86011,1.28141 4.85819,-0.18056 7.27395,-0.56347 8.85982,-1.40459 z m -56.57004,0.32172 c 0,-0.34987 -1.0878,-0.63612 -2.41733,-0.63612 -1.32953,0 -2.73671,-0.31942 -3.12707,-0.70978 -0.52224,-0.52223 -1.07556,-0.45352 -2.09441,0.2601 -1.28562,0.90048 -1.30082,0.99148 -0.21254,1.27211 2.24727,0.57953 7.85147,0.44653 7.85147,-0.18633 z m 6.38669,-0.64906 c 2.6705,-1.36239 3.12436,-2.16329 1.56501,-2.76167 -1.33376,-0.5118 -3.2257,0.24863 -2.19832,0.88358 0.42404,0.26207 0.57429,0.79476 0.33386,1.18375 -0.63094,1.02087 -1.6343,0.86925 -1.6343,-0.24694 0,-1.36867 -1.74405,-1.17765 -2.52215,0.27625 -0.36218,0.67674 -0.65851,1.3924 -0.65851,1.59035 0,0.78502 2.73,0.29111 5.11441,-0.92532 z m 27.08768,-1.25935 c -1.99785,-1.39949 -3.73609,-2.54453 -3.86274,-2.54453 -0.12671,0 -0.0786,0.57941 0.10651,1.28759 0.4929,1.88487 3.24603,3.80148 5.46065,3.80148 1.86261,0 1.80476,-0.0863 -1.70438,-2.54454 z m 35.74337,1.43131 c -0.25822,-1.34088 -1.38721,-1.25632 -1.6749,0.1255 -0.11998,0.57633 0.23057,0.9878 0.84181,0.9878 0.6552,0 0.9672,-0.41693 0.83309,-1.11323 z m -98.68555,-1.59035 c 1.96282,-2.18031 2.30851,-3.02165 1.24153,-3.02165 -0.52113,0 -1.03899,0.61486 -1.15079,1.36634 -0.27193,1.82784 -2.13297,3.00172 -3.14864,1.98605 -0.569,-0.56901 -0.57465,-0.96992 -0.024,-1.63456 0.72482,-0.87336 0.4019,-1.71783 -0.65688,-1.71783 -0.7379,0 -1.69198,2.65954 -1.31217,3.6578 0.49882,1.31106 3.65494,0.91349 5.04998,-0.63615 z m 52.67509,0.67409 c 1.27536,0.58112 1.47932,0.54147 1.18325,-0.23009 -0.51423,-1.34008 -3.40217,-1.93861 -4.09271,-0.84823 -0.88783,1.40189 -0.66633,2.0649 0.39544,1.1837 0.73662,-0.61134 1.34746,-0.63697 2.51402,-0.10555 z m -30.46241,-1.21797 c 1.82748,-2.01934 1.67346,-7.0811 -0.27325,-8.98049 l -1.48508,-1.44897 1.00797,2.4632 c 1.40736,3.43912 1.26411,5.0865 -0.63891,7.3481 -1.90712,2.26648 -0.62053,2.83896 1.38927,0.61816 z m 36.06298,0.0568 c -0.3694,-1.41257 -1.3278,-2.23674 -1.91652,-1.64803 -0.31058,0.31061 1.55955,2.93021 2.09191,2.93021 0.088,0 0.01,-0.57698 -0.17527,-1.28218 z m 20.15061,-0.56533 c -2.17277,-1.8226 -2.20801,-1.82901 -2.61614,-0.4771 -0.24849,0.82308 -0.45687,0.98932 -0.52183,0.4162 -0.0765,-0.67505 -0.26805,-0.582 -0.65481,0.31807 -0.52168,1.21397 -0.54878,1.20669 -0.59143,-0.15893 -0.05,-1.60304 -2.38636,-2.06411 -2.95466,-0.58313 -0.17912,0.4665 -0.74257,0.84818 -1.2523,0.84818 -0.50976,0 -0.92684,-0.38168 -0.92684,-0.84818 0,-0.48584 -0.69541,-0.84817 -1.6279,-0.84817 -0.9532,0 -1.46032,0.27111 -1.22357,0.65419 0.88803,1.43685 4.68497,2.42519 9.50687,2.47459 l 5.06506,0.0519 -2.20245,-1.84751 z m 31.56764,-1.65915 c -0.61665,-2.4569 -4.82172,-2.89633 -5.70438,-0.59615 -0.27623,0.71985 -0.007,0.84951 1.15425,0.55782 2.03081,-0.50968 4.16013,0.71959 4.25099,2.45414 0.0603,1.15158 0.12863,1.1964 0.37439,0.24536 0.16542,-0.63995 0.13152,-1.83748 -0.0752,-2.66117 z m -84.74901,1.91632 c -0.38716,-1.00889 -1.50232,-1.32369 -1.50232,-0.4241 0,0.67275 0.69535,1.37831 1.35833,1.37831 0.28058,0 0.34538,-0.42938 0.14402,-0.95421 z m 82.6899,0.0192 c 0.44862,-1.16911 -0.74408,-1.97945 -1.62172,-1.10181 -0.67902,0.67902 -0.19066,2.03564 0.73283,2.03564 0.29181,0 0.69179,-0.42022 0.88889,-0.93383 z m -100.7048,-1.83818 c -0.84939,-0.84939 -2.27367,0.43773 -1.63246,1.47523 0.33001,0.53397 0.68767,0.52228 1.37102,-0.045 0.64142,-0.53231 0.72148,-0.97035 0.26144,-1.43039 z m 7.59729,0.0685 c -0.01,-2.06746 -0.01,-2.06746 -0.8517,-0.47711 -0.87028,1.64319 -0.77731,2.54456 0.26248,2.54456 0.32924,0 0.59439,-0.93037 0.58922,-2.06745 z m 5.47748,0.47335 c 0.87647,-1.33765 0.919,-1.89711 0.26431,-3.47767 -0.87608,-2.11505 -2.36984,-3.59194 -2.99782,-2.96396 -0.22841,0.22841 0.3788,1.24429 1.34946,2.25741 1.273,1.32874 1.64699,2.21328 1.34205,3.17406 -0.4722,1.48782 -1.60188,1.72104 -2.75433,0.56861 -0.4241,-0.42409 -0.76337,-0.48064 -0.76337,-0.12718 0,0.75365 1.31679,2.16288 2.02098,2.16288 0.27183,0 0.96427,-0.71735 1.53872,-1.5941 z m 63.78277,0.74591 c 0.56118,-0.67621 0.2989,-0.84819 -1.29351,-0.84819 -2.24109,0 -4.34372,-2.04591 -4.34372,-4.22655 0,-0.96742 -0.19066,-1.13844 -0.70049,-0.62856 -1.02144,1.02144 -0.0796,4.47016 1.52853,5.59648 1.68841,1.18262 3.87603,1.23119 4.80919,0.10675 z m -51.58801,-0.14907 c -0.70905,-0.70905 -6.98008,-1.00259 -6.54993,-0.30659 0.22697,0.36718 1.87473,0.6676 3.66177,0.6676 1.78704,0 3.0867,-0.16253 2.88816,-0.36101 z m 64.88907,-0.79199 c 0.14065,-0.42196 -0.33316,-0.75541 -1.07347,-0.75541 -1.32147,0 -1.71753,0.66799 -0.88795,1.49759 0.58936,0.58934 1.65156,0.18753 1.96142,-0.74218 z m -44.84875,0.0995 c -0.43068,-0.17431 -1.28947,-0.18489 -1.90841,-0.024 -0.61894,0.16133 -0.26656,0.30386 0.78306,0.31684 1.04964,0.012 1.55603,-0.11901 1.12535,-0.29328 z m 38.66971,-5.44366 c 0.37577,-1.3955 0.53775,-2.68273 0.35997,-2.86053 -0.17767,-0.17768 -1.19851,0.30001 -2.26828,1.06174 -2.05805,1.46546 -2.5077,2.11046 -1.09275,1.5675 0.46874,-0.17984 1.25598,0.16902 1.74936,0.77522 0.79409,0.97568 0.76926,1.05435 -0.21614,0.68505 -0.78707,-0.29498 -1.11944,-0.0969 -1.1344,0.67607 -0.0192,0.93421 -0.18801,0.89341 -1.16868,-0.28058 -0.78149,-0.93561 -1.4325,-1.1977 -2.04095,-0.82167 -0.71155,0.43977 -0.73266,0.71299 -0.10363,1.34205 0.43441,0.43441 0.78986,1.46282 0.78986,2.28533 0,1.4955 0,1.4955 2.22118,-0.19883 1.46061,-1.11406 2.45517,-2.56303 2.90444,-4.23147 z m -78.10952,2.4533 c -0.182,-0.29977 -0.57691,-0.15676 -0.87769,0.31806 -0.85054,1.34234 -0.66236,1.95618 0.32107,1.04722 0.4881,-0.45114 0.73858,-1.06551 0.55662,-1.36528 z m 21.29746,0.59838 c 0.10723,-0.10723 -0.10651,-0.98814 -0.47514,-1.95758 -0.87906,-2.31206 -0.3071,-3.93092 1.79147,-5.07039 1.61008,-0.87425 1.40836,-0.9276 -3.59952,-0.95162 -4.74067,-0.0216 -5.43224,0.12695 -6.49922,1.40581 -1.66391,1.99454 -1.52269,3.55463 0.40111,4.43117 1.25276,0.57078 1.91836,0.57063 2.8331,-6.3e-4 1.54327,-0.96378 2.11443,-0.0373 0.93643,1.51906 -0.50248,0.66383 -0.9227,1.39122 -0.93383,1.61643 -0.0192,0.37411 5.094,-0.54065 5.5456,-0.99225 z m 29.0043,1.1103 2.44529,-0.34148 -1.87578,-1.14074 c -3.06675,-1.86499 -4.58542,-5.03318 -5.23778,-10.92665 -0.55592,-5.02246 -0.51005,-74.69932 0.0495,-75.1779 0.1457,-0.12478 1.16877,-0.39851 2.27323,-0.60843 1.81118,-0.34425 2.10874,-0.16974 3.03377,1.77971 l 1.02565,2.16136 2.18519,-1.39396 c 1.20186,-0.76668 2.12674,-1.5569 2.05531,-1.75605 -0.0714,-0.19907 -3.10601,-3.20488 -6.7435,-6.67942 -4.69919,-4.4887 -6.31526,-5.73741 -5.58291,-4.31386 0.9641,1.87406 0.95984,1.98814 -0.0659,1.76565 -2.50508,-0.54347 -8.82883,-0.66948 -10.11907,-0.20172 -0.89022,0.3228 -1.4766,0.24057 -1.63312,-0.22889 -0.1344,-0.40296 -1.47674,0.82799 -2.98318,2.73544 -1.50641,1.90742 -3.55761,4.04058 -4.5582,4.74033 -1.00058,0.69974 -1.82419,1.42524 -1.83025,1.61222 -0.01,0.326 3.4165,2.52266 3.93566,2.52266 0.13849,0 1.38238,-2.32806 2.76446,-5.17344 l 2.51287,-5.17344 6.9199,0.39219 c 7.36375,0.41733 7.21356,0.34874 9.60862,4.38851 l 1.03716,1.74936 h -2.87173 -2.87172 l -0.005,37.05494 c -0.005,39.60696 0.28342,45.33146 2.42981,48.23458 0.73586,0.9953 1.33792,1.96435 1.33792,2.15348 -1.7e-4,0.18897 -4.4655,0.34381 -9.9231,0.34381 h -9.92296 l 1.30724,-2.21558 c 3.43891,-5.82854 3.38149,-4.81205 3.29821,-58.3764 -0.0406,-26.06669 -0.0914,-27.19483 -1.2247,-27.19483 -1.03885,0 -1.1268,0.32828 -0.72437,2.70358 0.25195,1.48699 0.50726,18.44796 0.56739,37.69107 0.0964,30.87285 -0.0144,35.45436 -0.95099,38.95722 -1.25004,4.67994 -4.43862,8.79513 -7.43894,9.60076 -2.25049,0.60429 23.60467,0.89836 27.77538,0.31592 z m 21.40986,-0.93361 c 0,-0.72179 -1.82305,-1.48167 -2.3325,-0.97222 -0.20316,0.20316 -0.20148,0.80613 0.002,1.34013 0.38586,1.00509 2.32932,0.69808 2.32932,-0.36791 z m -65.52203,-0.38909 c 0,-0.43734 -0.39435,-0.79517 -0.87631,-0.79517 -0.48199,0 -1.1733,0.35783 -1.53625,0.79517 -0.49697,0.59879 -0.28056,0.79518 0.87632,0.79518 0.84491,0 1.53624,-0.35784 1.53624,-0.79518 z m 8.58783,0.47711 c 0.21615,-0.34989 0.11348,-0.63615 -0.22841,-0.63615 -0.34189,0 -1.07445,-0.17383 -1.62787,-0.38613 -0.66029,-0.25336 -1.00622,-0.0346 -1.00622,0.63615 0,1.12319 2.22183,1.42289 2.8626,0.38613 z m 47.39216,0 c 0.66654,-0.43078 -0.3882,-0.62033 -3.49875,-0.62879 -3.30367,-0.01 -4.98656,-0.33745 -6.5204,-1.27264 -2.83447,-1.72824 -2.61253,-1.05941 0.30671,0.92428 2.51434,1.70854 7.76349,2.23664 9.71244,0.97715 z m 28.62613,-0.67368 c 0,-0.32925 -0.28625,-0.5986 -0.63613,-0.5986 -0.34989,0 -0.63615,0.44629 -0.63615,0.99175 0,0.54546 0.28626,0.81481 0.63615,0.5986 0.34988,-0.21615 0.63613,-0.66253 0.63613,-0.99175 z m -103.05408,0.0837 c 0,-0.90519 -3.21221,-3.22685 -4.46458,-3.22685 -0.67508,0 -1.22936,0.61225 -1.41007,1.55757 -0.26541,1.38831 -0.0488,1.58407 1.99328,1.80147 1.26007,0.13416 2.64886,0.29202 3.0862,0.35083 0.43734,0.0589 0.79517,-0.15868 0.79517,-0.48302 z m 8.26977,-1.03794 c 0,-0.9351 -1.35807,-1.25494 -2.11494,-0.49807 -0.57528,0.57528 0.8504,2.19628 1.55089,1.76336 0.31023,-0.19162 0.56405,-0.76113 0.56405,-1.26529 z m -5.96559,-1.07568 c -1.1826,-6.35462 -1.20012,-9.43849 -0.0678,-11.94929 1.12675,-2.49871 1.0199,-3.67386 -0.26199,-2.8816 -1.84737,1.14173 -2.46003,8.09233 -1.1935,13.53998 0.83848,3.60651 2.16324,4.7291 1.52339,1.29091 z m 10.65098,-0.0724 c -1.00252,-0.86287 -1.9659,-1.42442 -2.14083,-1.24787 -0.17503,0.17647 0.52952,0.99828 1.56546,1.82613 2.45382,1.96087 2.94819,1.464 0.57537,-0.57826 z m 81.82916,1.55563 c 0,-0.32126 0.19667,-1.10848 0.43715,-1.74939 0.38485,-1.02577 0.30868,-1.06075 -0.63613,-0.29219 -1.17349,0.95455 -1.45171,2.62568 -0.43717,2.62568 0.34987,0 0.63615,-0.26284 0.63615,-0.5841 z m 7.64154,-2.60895 c 2.79367,-4.3535 3.33058,-10.03245 1.33775,-14.14908 -0.75189,-1.5532 -2.08765,-3.14806 -2.97533,-3.55254 -2.58984,-1.18 -3.32291,-0.83989 -1.1048,0.51257 1.12011,0.68297 2.47986,2.09898 3.02164,3.1467 1.18337,2.28838 1.2424,7.91243 0.11084,10.55598 -0.73189,1.70974 -0.79108,1.34554 -0.56859,-3.49875 0.37286,-8.11863 -1.63848,-10.66057 -7.24517,-9.15647 -0.75488,0.20244 -1.50718,0.88324 -1.67181,1.51276 -0.2385,0.91197 0.19331,1.2233 2.12482,1.53218 3.33156,0.53275 5.03722,3.07026 5.70994,8.49478 0.46093,3.71654 0.37062,4.44538 -0.74497,6.01209 -0.69823,0.98056 -0.9936,1.78283 -0.65637,1.78283 0.33722,0 1.53519,-1.43686 2.6621,-3.19305 z m -65.57696,1.65935 c 0.82734,-0.99687 -0.11277,-2.01648 -1.22526,-1.3289 -0.34987,0.21614 -0.63615,-0.0293 -0.63615,-0.54558 0,-1.26752 1.28272,-1.62588 3.02434,-0.84497 1.65036,0.74002 2.38857,0.28931 1.84525,-1.12656 -0.54207,-1.41264 -3.81348,-1.22782 -5.18999,0.29321 -0.9533,1.05339 -1.02805,1.5507 -0.43029,2.8626 0.82039,1.8006 1.53406,1.98917 2.6121,0.6902 z m 32.6565,-1.88215 c -0.32504,-2.88379 0.75795,-4.66542 1.52499,-2.50872 0.59699,1.67859 2.19248,3.38003 3.16954,3.38003 0.4659,0 1.27225,-0.93034 1.79192,-2.06745 0.51964,-1.13709 1.38088,-2.65684 1.91386,-3.37724 0.96405,-1.3031 0.94379,-1.30717 -3.95795,-0.79142 -6.31019,0.66392 -6.36414,0.68936 -6.04675,2.85178 0.32754,2.23179 -1.75518,4.59598 -2.85544,3.24135 -0.3624,-0.44617 -0.78853,-1.38374 -0.94698,-2.08349 -0.27122,-1.19787 -0.31751,-1.20429 -0.79156,-0.10964 -0.81479,1.88129 1.42817,3.4149 6.11273,4.17949 0.21951,0.0358 0.25795,-1.18578 0.0856,-2.71462 z m 16.31669,-0.59738 c 2.94296,-1.81627 6.09181,-4.28002 6.99749,-5.47501 1.55519,-2.05197 1.56866,-2.13104 0.24259,-1.42351 -0.77223,0.41205 -1.63102,1.1035 -1.90841,1.53654 -0.76286,1.19094 -8.21434,6.19454 -9.22511,6.19454 -0.96424,0 -2.4116,1.22172 -2.4116,2.03562 0,0.88849 0.8295,0.51113 6.30504,-2.86818 z m 22.32109,2.42288 c -0.87394,-1.053 -2.54456,-1.29247 -2.54456,-0.3647 0,0.52154 1.1242,1.02478 2.78148,1.24513 0.30525,0.0406 0.19859,-0.35559 -0.23682,-0.88043 z m -35.62364,-0.53731 c -1.74595,-0.92012 -2.26033,-0.86336 -1.6165,0.1784 0.23057,0.37315 1.04651,0.67424 1.81308,0.66909 1.33671,-0.01 1.32866,-0.0438 -0.19668,-0.84749 z m 36.92506,-0.99706 c -0.39284,-0.73403 -1.3395,-1.32534 -2.11898,-1.32361 -1.31673,0.002 -1.28406,0.10338 0.49947,1.53331 2.18144,1.74908 2.63629,1.69018 1.61951,-0.20965 z m -94.29749,-0.15508 c -0.96283,-1.4501 -3.69665,-2.80612 -3.69665,-1.83358 0,0.69852 3.11308,3.20634 3.98019,3.20634 0.34537,0 0.21782,-0.61773 -0.28354,-1.37276 z m 67.2265,-4.3485 c 1.01036,-0.66279 2.94719,-1.39261 4.3041,-1.62186 1.35691,-0.22913 2.32736,-0.55657 2.15656,-0.72737 -0.68155,-0.68155 -4.86428,-1.31386 -4.86428,-0.73533 0,0.33124 -0.83563,0.89353 -1.85695,1.24958 -1.8967,0.66118 -3.89265,3.81078 -3.84161,6.06204 0.0192,0.81626 0.36916,0.53385 1.14594,-0.92293 0.61559,-1.1545 1.94591,-2.64136 2.95624,-3.30413 z m -74.73997,3.49479 c 0,-0.52481 -0.28626,-0.95419 -0.63613,-0.95419 -0.34987,0 -0.63615,0.42938 -0.63615,0.95419 0,0.52481 0.28628,0.95421 0.63615,0.95421 0.34987,0 0.63613,-0.4294 0.63613,-0.95421 z m 59.36489,-1.97573 c -0.49033,-1.27774 -3.20663,-1.80846 -5.02216,-0.98127 -1.64343,0.74882 -2.0423,0.21158 -0.78005,-1.05065 0.56809,-0.56811 0.57384,-0.76336 0.0216,-0.76336 -0.40755,0 -1.04738,0.57251 -1.42187,1.27225 -0.46165,0.86259 -0.46887,1.27228 -0.0216,1.27228 0.36218,0 0.65853,0.57252 0.65853,1.27229 0,0.69974 0.25286,1.27225 0.56193,1.27225 0.30908,0 0.71168,-0.57251 0.89467,-1.27225 0.24225,-0.92643 0.86768,-1.27229 2.30067,-1.27229 1.92105,0 2.71182,0.9183 1.21919,1.41585 -0.45295,0.15099 -0.54024,0.58698 -0.22095,1.10357 0.4244,0.68669 0.68717,0.63605 1.34121,-0.25842 0.44739,-0.61182 0.65837,-1.51643 0.46888,-2.01025 z m -71.72676,-1.959 c -0.3035,-0.79084 -0.55831,-0.8282 -1.32258,-0.19378 -0.52068,0.43212 -0.94669,0.55977 -0.94669,0.28368 0,-0.27608 -0.19187,-0.31001 -0.4266,-0.0755 -0.23466,0.23465 0.26633,1.16774 1.11324,2.07358 1.51865,1.62434 1.54271,1.62804 1.74917,0.2693 0.11517,-0.75773 0.0402,-1.81851 -0.16662,-2.35729 z m 23.48829,2.97089 c -0.66784,-1.08061 -4.7844,-2.53492 -7.17525,-2.53492 -2.8314,0 -2.18553,0.77121 0.912,1.08898 1.27345,0.13055 3.06184,0.64325 3.97422,1.13916 1.98054,1.07645 2.83553,1.19104 2.28903,0.30678 z m -14.06675,-9.94865 1.10256,-1.81025 -1.56477,1.84251 c -1.87371,2.20625 -2.50383,4.89267 -1.8703,7.97399 0.4265,2.07447 0.49962,1.90533 0.84834,-1.96296 0.20989,-2.32818 0.87776,-5.04765 1.48417,-6.04329 z m 82.13928,7.79866 c 1.45232,-1.11934 0.53888,-1.31536 -1.86698,-0.40067 -0.89747,0.34121 -1.63174,1.06695 -1.63174,1.61272 0,1.06691 0.98429,0.72591 3.49872,-1.21205 z m 19.32255,-2.25588 -0.0796,-2.26393 -0.41977,2.54454 c -0.23081,1.39952 -0.64567,2.97394 -0.92175,3.49875 -0.27609,0.52481 -0.0515,0.39854 0.49939,-0.2806 0.55075,-0.67917 0.96554,-2.2536 0.92176,-3.49876 z m -108.8748,-1.45736 c -0.14162,-1.14336 -0.26034,-0.36127 -0.2639,1.73797 -0.002,2.09926 0.11228,3.03472 0.25741,2.07885 0.14521,-0.9559 0.1481,-2.67346 0.007,-3.81682 z m 1.86116,3.32976 c -0.51995,-2.59977 0.62307,-8.22711 1.97705,-9.73338 0.60937,-0.67789 1.68046,-1.46686 2.38021,-1.75326 1.24641,-0.51017 1.24518,-0.52156 -0.0603,-0.56107 -1.62389,-0.049 -3.06846,1.46367 -4.36824,4.57451 -0.98432,2.3558 -1.344,8.16648 -0.55439,8.95607 0.8246,0.8246 1.00286,0.40224 0.62582,-1.48287 z M 352.53499,198.778 c 0,-0.48466 -0.28628,-1.05811 -0.63615,-1.27435 -1.00461,-0.62088 -0.74084,-3.37693 0.38343,-4.00611 0.56076,-0.31381 0.90606,-1.11525 0.76733,-1.78098 -0.2272,-1.09039 -0.33739,-1.05565 -1.11133,0.3506 -1.1005,1.9995 -2.57257,7.51132 -2.55632,9.5714 l 0.012,1.59032 1.57025,-1.78483 c 0.86364,-0.98167 1.57026,-2.18139 1.57026,-2.66605 z m -2.54456,1.27021 c 0,-0.52481 0.28625,-0.95421 0.63615,-0.95421 0.34987,0 0.63613,0.4294 0.63613,0.95421 0,0.52481 -0.28626,0.95419 -0.63613,0.95419 -0.3499,0 -0.63615,-0.42938 -0.63615,-0.95419 z m -67.04611,0.49036 c -0.64664,-0.64666 -1.1802,0.32689 -0.64964,1.18536 0.40079,0.64849 0.55063,0.64899 0.7661,0.002 0.14738,-0.44198 0.095,-0.97655 -0.11637,-1.18792 z m 54.3234,-0.27832 c 0,-2.31635 -0.2777,-2.23241 -0.87685,0.26505 -0.24913,1.03853 -0.15628,1.74938 0.22865,1.74938 0.35656,0 0.64827,-0.90649 0.64827,-2.01443 z m -74.62825,0.5016 c -0.18513,-0.48218 -0.0144,-1.19781 0.37723,-1.59034 0.39251,-0.3925 0.4417,-0.73254 0.1094,-0.75567 -2.14302,-0.14907 -12.08204,0.17527 -12.30835,0.40164 -0.57684,0.57681 0.47234,0.93082 3.49211,1.17827 1.71756,0.14065 3.98161,0.54335 5.03123,0.89466 2.73364,0.915 3.68468,0.87793 3.29845,-0.12863 z m 6.73279,-1.44899 c -0.43068,-0.17431 -1.28947,-0.18489 -1.9084,-0.024 -0.61894,0.16132 -0.26657,0.30385 0.78305,0.31681 1.04964,0.012 1.55604,-0.11901 1.12535,-0.29325 z m 14.46001,-0.21879 c 0,-0.34988 -0.42941,-0.63613 -0.95422,-0.63613 -0.52481,0 -0.95419,0.28625 -0.95419,0.63613 0,0.34987 0.42938,0.63615 0.95419,0.63615 0.52481,0 0.95422,-0.28628 0.95422,-0.63615 z m 20.03828,-0.63613 c 1.22662,-0.52709 1.22227,-0.54832 -0.12142,-0.59143 -0.76656,-0.0245 -1.57067,0.24156 -1.78692,0.59143 -0.46501,0.7524 0.15749,0.7524 1.90841,0 z m 37.38618,-2.45144 c -0.68751,-0.9259 -2.00944,-2.11285 -2.93759,-2.63766 -1.50369,-0.85023 -1.87768,-0.84785 -3.43244,0.0216 -0.95968,0.53685 -1.81342,1.53877 -1.89718,2.2265 -0.0839,0.68772 0.0168,0.87408 0.22119,0.41411 0.60074,-1.34484 3.23327,-2.06613 5.03743,-1.38021 0.88916,0.33807 2.10576,1.46953 2.70358,2.51437 0.59783,1.04485 1.19227,1.59029 1.32099,1.2121 0.12863,-0.3782 -0.32849,-1.44518 -1.01603,-2.37107 z m -72.0556,-0.72925 c 0,-2.75657 -0.16975,-3.18067 -1.27228,-3.18067 -1.04907,0 -1.27226,0.4241 -1.27226,2.41731 0,2.2633 0.86747,3.94405 2.03562,3.94405 0.27991,0 0.50892,-1.4313 0.50892,-3.18069 z m 2.97555,-0.36213 c 0.18874,-2.19525 0.0452,-2.87227 -0.56626,-2.67146 -0.89572,0.29416 -1.45188,3.84009 -0.84881,5.41168 0.58975,1.53685 1.13887,0.47348 1.41507,-2.74022 z m 8.36858,1.72873 c 0.11637,-0.8228 0.0394,-2.18255 -0.17118,-3.02164 -0.31239,-1.24456 -0.79087,-1.52563 -2.59729,-1.52563 -2.21436,0 -2.21436,0 -2.21436,3.21909 v 3.21906 l 2.38552,-0.19739 c 1.94993,-0.16133 2.42418,-0.47062 2.59726,-1.69346 z m 30.00473,-1.60431 c 0,-3.4184 0,-3.4184 -2.06745,-2.99919 -1.77124,0.35915 -2.09664,0.72088 -2.27129,2.52475 -0.29467,3.04357 0.23106,3.89284 2.41036,3.89284 1.90783,0 1.92838,-0.0363 1.92838,-3.4184 z m -70.39091,-4.35233 c 1.38198,-5.08128 1.55028,-6.46709 0.9463,-7.79265 -0.86831,-1.90577 -2.43879,-2.14401 -2.43879,-0.36995 0,0.68327 -0.34187,1.99265 -0.75974,2.90975 -0.57066,1.25249 -0.57984,1.95541 -0.0368,2.8249 0.89377,1.43118 -0.88466,7.65414 -2.18748,7.65414 -1.09441,0 -1.06145,-0.2385 0.43951,-3.18069 0.69974,-1.37162 1.26086,-2.86308 1.24691,-3.31437 -0.0144,-0.45128 -0.57602,0.28263 -1.24908,1.63091 -0.67306,1.34828 -1.53432,2.82567 -1.91396,3.28306 -0.71826,0.8655 -0.53404,1.07951 2.23419,2.59558 0.69975,0.38322 1.44457,0.52642 1.65514,0.31824 0.21062,-0.20822 1.1393,-3.1597 2.06382,-6.55892 z m 18.4388,6.39151 c 2.22231,-0.0897 2.03369,-0.1683 -1.16527,-0.48647 -2.09926,-0.20869 -4.06208,-0.26795 -4.36185,-0.13151 -0.85948,0.39096 1.0834,1.38372 2.02836,1.03642 0.46595,-0.17119 2.04041,-0.35952 3.49876,-0.41835 z m 6.78643,-1.80147 c 0,-2.38227 -0.11733,-2.54454 -1.84034,-2.54454 -3.06485,0 -2.91949,2.33794 0.26466,4.25652 0.69169,0.41676 1.32917,0.77459 1.41664,0.79517 0.0875,0.0216 0.15916,-1.10763 0.15916,-2.50715 z m 8.84853,-0.47711 c -0.0575,-3.02164 -0.0575,-3.02164 -0.67443,-0.8766 -0.33937,1.17974 -0.46567,2.53948 -0.28066,3.02164 0.64486,1.68043 1.01207,0.85571 0.95509,-2.14504 z m 38.04589,-1.2635 c -0.14618,-0.96699 -0.26976,-0.32682 -0.27452,1.42255 -0.005,1.74936 0.11492,2.54052 0.26584,1.75811 0.15099,-0.7824 0.15484,-2.2137 0.01,-3.18066 z m 12.90238,2.97534 c 0,-0.32922 -0.28625,-0.59858 -0.63613,-0.59858 -0.34987,0 -0.63612,0.44629 -0.63612,0.99175 0,0.54546 0.28625,0.81482 0.63612,0.59857 0.34988,-0.21614 0.63613,-0.6625 0.63613,-0.99174 z m -73.50748,-1.00868 c 0.23321,-0.9288 0.12165,-1.98304 -0.24911,-2.35368 -0.47103,-0.47105 -0.67135,-0.26933 -0.67135,0.67611 0,0.7411 -0.17383,1.80026 -0.38613,2.35371 -0.2123,0.55342 -0.10026,1.00622 0.24911,1.00622 0.34939,0 0.82525,-0.75707 1.05748,-1.68236 z m 31.52249,-0.86218 c 0,-1.82017 -0.26748,-2.54454 -0.93962,-2.54454 -0.69605,0 -0.90217,0.65878 -0.79518,2.54125 0.19523,3.43367 1.7348,3.4366 1.7348,0.002 z m 32.19295,1.53832 c -0.2123,-0.55345 -0.38613,-1.69849 -0.38613,-2.54456 0,-2.61003 -1.05755,-1.69537 -1.16341,1.00624 -0.0765,1.94981 0.13824,2.54454 0.91798,2.54454 0.66664,0 0.88449,-0.34709 0.63156,-1.00622 z m 15.75799,-0.74315 c -0.59915,-2.49746 -0.87685,-2.58142 -0.87685,-0.26507 0,1.10795 0.29171,2.01444 0.64825,2.01444 0.38483,0 0.47773,-0.71085 0.22865,-1.74937 z m 5.20578,-0.0144 c -0.21326,-0.21326 -0.88183,0.12959 -1.48579,0.76199 -1.04976,1.09908 -1.03271,1.11615 0.3877,0.38769 0.81717,-0.41909 1.31132,-0.93644 1.09809,-1.14968 z m -87.42388,-0.78149 c 0.34487,0 0.4501,0.28625 0.23393,0.63612 -0.21614,0.34988 -0.069,0.63616 0.32718,0.63616 0.39618,0 0.62384,-0.50096 0.50594,-1.11326 -0.33132,-1.72037 -2.0884,-1.34324 -2.22285,0.4771 -0.0678,0.91854 0.0192,1.12009 0.20557,0.47711 0.17768,-0.61227 0.60531,-1.11323 0.95018,-1.11323 z m 56.01653,-0.31807 c -0.15796,-1.35253 -0.60716,-2.22647 -1.14454,-2.22647 -0.58689,0 -0.88459,0.74932 -0.88459,2.22647 0,1.71955 0.26058,2.22648 1.14452,2.22648 0.93346,0 1.09659,-0.41061 0.88461,-2.22648 z m 16.18362,0.79517 c -0.21086,-0.78723 -0.38832,-1.71758 -0.39414,-2.06745 -0.005,-0.34987 -1.01163,-0.65762 -2.23515,-0.68385 -2.10559,-0.0452 -2.2246,0.0654 -2.2246,2.06743 0,2.0536 0.0762,2.11518 2.61873,2.11518 2.40529,0 2.58748,-0.11661 2.23516,-1.43131 z m 2.09887,-1.9084 c 0.0245,-0.61228 -0.24153,-1.11324 -0.5914,-1.11324 -0.34988,0 -0.61603,1.07347 -0.59144,2.38549 0.0358,1.91363 0.15292,2.13384 0.59144,1.11324 0.30068,-0.69975 0.56683,-1.77322 0.5914,-2.38549 z m 4.5454,2.52864 c -0.0262,-0.25368 -0.0476,-1.17685 -0.0476,-2.05156 0,-0.87468 -0.28628,-1.59032 -0.63615,-1.59032 -0.34987,0 -0.63613,1.02577 -0.63613,2.27949 0,1.34294 0.28097,2.18581 0.68385,2.05153 0.37611,-0.12526 0.66236,-0.43549 0.63613,-0.68914 z m 1.66307,-2.21058 c -0.16013,-0.61228 -0.29092,-0.11132 -0.29092,1.11324 0,1.22455 0.13103,1.72551 0.29092,1.11323 0.16013,-0.61227 0.16013,-1.61419 0,-2.22647 z m -27.97861,-0.94679 c -0.15219,-0.7913 -0.28241,-0.29368 -0.28948,1.10581 -0.007,1.39952 0.11733,2.04694 0.27667,1.43873 0.15916,-0.60819 0.16493,-1.75324 0.012,-2.54454 z m -46.88786,1.18001 c 0,-0.98115 -0.44893,-1.63355 -1.27225,-1.84886 -1.48963,-0.38954 -1.49641,-0.36742 -0.53404,1.74475 0.92829,2.03738 1.80629,2.08799 1.80629,0.10411 z m 2.4948,-1.94138 c -0.49745,-0.47239 -1.62011,-1.04067 -2.4948,-1.26285 -1.59034,-0.40399 -1.59034,-0.40399 -0.15892,0.64543 0.78721,0.5772 1.4313,1.53935 1.4313,2.13812 0,1.74547 0.87872,2.13561 1.5288,0.67875 0.42933,-0.96215 0.34287,-1.58298 -0.30629,-2.19945 z m 2.76097,0.58624 c -0.0832,-1.32803 -0.26164,-2.52482 -0.39635,-2.65953 -0.13464,-0.13464 -2.7145,-0.41921 -5.73285,-0.63223 -4.83044,-0.34089 -5.48792,-0.26164 -5.48792,0.66142 0,1.14704 2.21166,1.46578 2.8626,0.41255 0.53217,-0.86105 3.70634,-0.80414 5.69532,0.10218 1.27689,0.58179 1.62025,1.19967 1.62025,2.91562 0,1.46787 0.25911,2.0857 0.79517,1.89603 0.48639,-0.17215 0.73639,-1.21901 0.64378,-2.69596 z m 90.79523,-0.14305 c 1.10626,-2.47539 1.05094,-5.00069 -0.0714,-3.26003 -0.46525,0.72153 -0.66431,0.70693 -1.18553,-0.087 -0.91722,-1.39721 -0.7821,-2.09681 0.32304,-1.67271 0.82116,0.3151 0.85172,0.15579 0.20028,-1.0452 -0.42275,-0.77933 -0.93138,-2.39537 -1.13026,-3.5912 -0.4844,-2.91232 -1.94736,-3.38493 -1.94736,-0.62908 0,2.4241 2.08758,13.33244 2.47695,12.94304 0.1457,-0.1457 0.74608,-1.34165 1.33426,-2.65776 z m -25.70169,-0.005 c -0.68417,-0.68417 -1.04736,0.27402 -0.56711,1.49607 0.45052,1.14637 0.48454,1.14834 0.70735,0.0414 0.12863,-0.63967 0.0656,-1.33145 -0.14017,-1.53733 z m 9.04846,-0.12262 c 0.15893,-0.47708 -0.0796,-0.71564 -0.55662,-0.55662 -0.45922,0.15316 -0.96018,0.65404 -1.11323,1.11324 -0.15893,0.47711 0.0796,0.71566 0.55662,0.55662 0.45919,-0.15316 0.96015,-0.65402 1.11323,-1.11324 z m -69.21957,-1.6298 c 0,-1.02771 -2.85197,-1.3646 -3.44391,-0.40681 -0.50276,0.8135 0.28556,1.361 1.9596,1.361 0.89528,0 1.48431,-0.37865 1.48431,-0.95419 z m 54.98107,0.39039 c 0.39364,-0.6369 -2.11828,-1.45893 -2.92831,-0.95831 -0.28914,0.17864 -0.52572,0.5943 -0.52572,0.92352 0,0.75932 2.98765,0.78942 3.45403,0.0349 z m 14.64353,-0.76786 c 0.3617,-0.34487 -2.12537,-0.51219 -6.20229,-0.41722 -6.29439,0.14666 -8.00921,0.52471 -6.01102,1.32532 1.24646,0.49942 11.53984,-0.26592 12.21331,-0.9081 z m -54.35733,0.0594 c 0,-0.34989 -0.84189,-0.63615 -1.87088,-0.63615 -1.02896,0 -2.04778,0.28626 -2.26402,0.63615 -0.23394,0.37856 0.52351,0.63613 1.87087,0.63613 1.24521,0 2.26403,-0.28625 2.26403,-0.63613 z m 3.18067,-0.31808 c 0,-0.52481 -0.28626,-0.9542 -0.63613,-0.9542 -0.34987,0 -0.63613,0.42939 -0.63613,0.9542 0,0.52483 0.28626,0.95421 0.63613,0.95421 0.34987,0 0.63613,-0.42938 0.63613,-0.95421 z m 21.62865,0 c 0,-0.52481 -0.42941,-0.9542 -0.95422,-0.9542 -0.99336,0 -1.26206,0.75235 -0.5301,1.48432 0.73194,0.73196 1.48432,0.46326 1.48432,-0.53012 z m 5.40714,0.31808 c 0.21614,-0.34989 0.0192,-0.64004 -0.43956,-0.64483 -0.45799,-0.005 -1.47679,-0.18128 -2.26403,-0.39226 -1.05223,-0.282 -1.4313,-0.11132 -1.4313,0.64483 0,1.1601 3.45762,1.48812 4.13489,0.39226 z m 5.40716,0.10603 c 0,-0.82828 -0.75622,-1.37915 -1.37136,-0.99898 -0.65791,0.40661 -0.0906,1.52911 0.77276,1.52911 0.32925,0 0.5986,-0.23851 0.5986,-0.53013 z m -71.28003,-4.12387 c 0.63719,-2.27581 0.59506,-3.13847 -0.25735,-5.26889 -1.10735,-2.76749 -4.03475,-4.96157 -5.74451,-4.30549 -1.11449,0.42768 -2.24497,2.75309 -2.22099,4.56871 0.012,0.84016 0.27144,0.73706 1.2046,-0.47698 1.15218,-1.49901 1.24345,-1.51409 2.83836,-0.46906 1.98352,1.29964 2.51316,3.10462 2.07642,7.07623 -0.26536,2.41319 -0.16854,2.85021 0.50678,2.28968 0.4591,-0.38104 1.17762,-1.91743 1.59669,-3.4142 z m 21.02527,-1.0337 c 0,-2.07858 -0.31693,-3.97514 -0.70429,-4.21454 -0.47002,-0.29048 -0.56669,-0.002 -0.29063,0.86803 0.30722,0.96801 -0.17167,1.88859 -1.86148,3.5784 -2.00778,2.00778 -2.11871,2.27512 -0.94407,2.27512 0.73206,0 1.15409,0.28625 0.93784,0.63615 -0.22287,0.36079 0.31148,0.63613 1.23475,0.63613 1.56373,0 1.62788,-0.14883 1.62788,-3.77929 z m 4.08456,-0.51464 c -0.0481,-3.78943 -0.19787,-4.29393 -1.27435,-4.29393 -1.06335,0 -1.244,0.55097 -1.40798,4.29393 -0.18008,4.1105 -0.12574,4.29393 1.27435,4.29393 1.38675,0 1.45962,-0.22216 1.40798,-4.29393 z m 51.00507,1.83205 c -0.15244,-0.92015 -0.30083,-2.46022 -0.32961,-3.42239 -0.0452,-1.50803 -0.31559,-1.74937 -1.9607,-1.74937 -1.88559,0 -1.90841,0.0411 -1.90841,3.44574 0,3.62976 0.44196,4.17018 3.00917,3.67944 1.18356,-0.22625 1.41329,-0.60353 1.18955,-1.95342 z m 2.09923,-1.51399 c -0.0399,-2.5 -0.22047,-3.41578 -0.48653,-2.46707 -0.41784,1.48995 -0.18825,6.44294 0.29869,6.44294 0.13824,0 0.22263,-1.78914 0.18777,-3.97587 z m 1.97181,-2.98409 c 0,-6.90674 0.52784,-8.66664 2.12288,-7.078 0.4101,0.40847 0.9011,3.62955 1.10184,7.22835 l 0.36211,6.49154 0.11492,-7.47461 0.11493,-7.47459 h -2.22647 c -2.08251,0 -2.22816,0.13367 -2.25244,2.06742 -0.0144,1.13712 -0.17744,4.57225 -0.3625,7.63364 -0.226,3.73865 -0.113,5.56621 0.34403,5.56621 0.44186,0 0.68056,-2.4412 0.68056,-6.95996 z m 1.81885,0.75762 c -0.0724,-5.00699 -0.16637,-5.57318 -0.48768,-2.93783 -0.38976,3.1961 -0.1796,9.14017 0.32323,9.14017 0.13969,0 0.21374,-2.79105 0.16445,-6.20234 z m 3.90638,-2.35558 c 0,-5.18537 0.29366,-9.20244 0.74519,-10.19342 0.86862,-1.90641 3.03965,-2.6435 4.88206,-1.65747 1.59167,0.85184 2.06419,3.92407 2.5927,16.85704 0.0274,0.6706 0.22768,1.04135 0.44523,0.82385 0.21758,-0.21734 0.34492,-3.56742 0.2832,-7.44429 -0.0933,-5.85949 -0.33492,-7.42641 -1.43219,-9.28616 -1.16411,-1.97299 -1.58453,-2.2145 -3.55973,-2.04471 -3.8424,0.33026 -4.46612,1.95994 -4.76045,12.43814 -0.14018,4.98571 -0.0168,9.06494 0.27466,9.06494 0.29114,0 0.52933,-3.85106 0.52933,-8.55792 z m -73.48416,7.26878 c -0.22192,-0.35918 -0.88296,-0.57386 -1.46886,-0.47711 -0.5859,0.0967 -0.99369,-0.182 -0.90623,-0.61927 0.0875,-0.43734 -0.25257,-0.79517 -0.75564,-0.79517 -0.52253,0 -0.87358,0.54546 -0.81883,1.27228 0.0753,0.9997 0.55188,1.27228 2.22448,1.27228 1.29377,0 1.97036,-0.25613 1.72508,-0.65301 z m 15.24431,-3.67496 c 0.0462,-5.42729 -1.19465,-5.34566 -1.41632,0.0933 -0.13104,3.2164 0.0262,4.28515 0.60278,4.093 0.49862,-0.16613 0.79221,-1.67685 0.81354,-4.18619 z m 2.25987,0.19306 c 0,-2.27417 -0.22408,-4.13488 -0.49772,-4.13488 -0.27375,0 -0.55284,1.86071 -0.62026,4.13488 -0.0695,2.34568 0.14594,4.13491 0.49772,4.13491 0.34114,0 0.62026,-1.86071 0.62026,-4.13491 z m 5.72522,-0.31806 c 0,-3.96557 -0.13344,-4.45295 -1.22025,-4.45295 -2.83096,0 -3.23272,0.60141 -3.23272,4.83908 v 4.06684 h 2.22648 2.22649 z m 3.18067,-0.95419 c 0,-5.41722 -0.76498,-7.1485 -1.51081,-3.41925 -0.52529,2.62636 -0.50875,7.86707 0.0264,8.40231 1.13904,1.13904 1.48432,-0.0192 1.48432,-4.98306 z m 27.35387,1.93079 c 0,-3.57257 -0.88045,-4.79342 -3.45694,-4.79342 -1.54897,0 -1.43784,7.4249 0.11733,7.83127 3.1101,0.81275 3.33973,0.60389 3.33973,-3.03785 z m 4.45295,-0.0216 c 0,-1.9243 -0.28625,-3.49875 -0.63613,-3.49875 -0.34989,0 -0.63615,1.57445 -0.63615,3.49875 0,1.92433 0.28626,3.49875 0.63615,3.49875 0.34988,0 0.63613,-1.57442 0.63613,-3.49875 z m 17.81181,-4.16378 c 0,-7.32521 0.07,-7.73257 1.59034,-9.25291 0.87469,-0.87468 1.59035,-1.72046 1.59035,-1.87948 0,-0.6526 -3.0737,-0.22985 -3.67939,0.50601 -1.1041,1.34143 -1.23143,18.28894 -0.13753,18.28894 0.38887,0 0.63613,-2.9783 0.63613,-7.66256 z m 4.02003,6.77828 c 0.18657,-0.48631 0.17431,-3.64794 -0.0272,-7.0258 -0.30842,-5.16941 -0.52758,-6.11073 -1.38451,-5.94669 -0.84422,0.16157 -1.0489,1.36131 -1.19864,7.02583 -0.16878,6.38285 -0.10026,6.83094 1.04519,6.83094 0.67414,0 1.37841,-0.39791 1.56506,-0.88425 z m 8.86922,-2.78316 c -0.29229,-2.96433 -0.4282,-3.22027 -1.18236,-2.22647 -1.21801,1.60503 -1.10001,4.44231 0.21543,5.17844 0.60937,0.341 1.15053,0.56994 1.20258,0.5087 0.0519,-0.0611 -0.0539,-1.61852 -0.23562,-3.46067 z m -43.98758,-1.54041 c -0.16758,-5.58299 -0.70847,-5.49235 -0.70847,0.11877 0,2.56575 0.18609,4.47887 0.41359,4.2514 0.22744,-0.22745 0.36018,-2.19404 0.29488,-4.37012 z m 3.10835,0.11877 c 0,-3.53409 -0.19691,-4.45294 -0.95422,-4.45294 -0.7573,0 -0.95419,0.91885 -0.95419,4.45294 0,3.5341 0.19691,4.45295 0.95419,4.45295 0.75731,0 0.95422,-0.91885 0.95422,-4.45295 z m 7.4585,-0.78377 c -0.14161,-1.14336 -0.26033,-0.36127 -0.26389,1.73797 -0.005,2.09926 0.11228,3.03472 0.2574,2.07885 0.14522,-0.9559 0.14811,-2.67346 0.007,-3.81682 z m -54.50737,-8.35137 c -0.45773,-0.45773 -0.66135,0.81422 -0.66135,4.13087 0,5.02404 -0.33069,6.04971 -1.60855,4.98917 -0.53895,-0.44729 -1.22749,-0.26031 -2.28502,0.6205 -1.69642,1.41296 -1.42149,1.59929 1.00093,0.67828 1.29325,-0.49168 1.87781,-0.38947 2.74501,0.47999 1.04525,1.04801 1.11129,0.81357 1.28608,-4.56635 0.1082,-3.33231 -0.0885,-5.94385 -0.4771,-6.33246 z m 3.66436,10.91632 c 1.12194,-1.12194 0.92938,-2.42481 -0.34988,-2.3671 -0.7271,0.0329 -0.82392,0.16613 -0.27918,0.38406 0.64812,0.2594 0.59068,0.60276 -0.25762,1.54012 -1.17852,1.30224 -0.37435,1.70395 0.88668,0.44292 z m 81.55269,-2.16428 c 0,-0.42683 0.89874,-1.53233 1.99722,-2.45663 3.44331,-2.89737 8.48851,-1.10836 6.38285,2.26335 -1.05306,1.68621 -0.68804,2.09328 0.86122,0.96045 1.02235,-0.74755 1.10826,-1.23324 0.5897,-3.33315 -0.5628,-2.27896 -0.78933,-2.47296 -3.10871,-2.66244 -3.27325,-0.26739 -5.20909,0.83895 -7.09308,4.05373 -1.71332,2.92358 -2.12462,5.24997 -0.5632,3.18557 0.5137,-0.67914 0.934,-1.58404 0.934,-2.01088 z m -94.14819,-0.33092 c 0,-0.77029 -0.45175,-1.19439 -1.27226,-1.19439 -0.69977,0 -1.27228,0.27729 -1.27228,0.61618 0,0.33888 0.50096,0.43989 1.11324,0.22432 0.90875,-0.31977 0.96717,-0.23442 0.31806,0.46525 -0.43734,0.47134 -0.79517,1.26418 -0.79517,1.76187 0,0.7322 0.182,0.75375 0.95422,0.113 0.5248,-0.43556 0.95419,-1.3294 0.95419,-1.98631 z m 1.91992,-4.37507 c -0.22143,-3.87873 -0.58691,-6.24439 -0.87158,-5.64187 -0.91803,1.94295 0.15893,13.98121 1.12019,12.52267 0.0731,-0.11084 -0.0389,-3.20711 -0.24861,-6.8808 z m -14.62025,5.1309 c -0.95756,-1.78918 -0.80671,-4.63627 0.33175,-6.26162 0.56962,-0.81328 0.70078,-1.41382 0.30871,-1.41382 -0.37486,0 -1.24028,0.91873 -1.92315,2.04165 -1.24453,2.04647 -1.18575,4.36858 0.15364,6.06909 0.99307,1.26079 1.85825,0.92724 1.12905,-0.4353 z m 114.71359,-2.2641 c -0.20052,-0.52281 -0.6257,-0.78928 -0.94463,-0.59217 -0.66704,0.41224 -0.13151,1.54271 0.73077,1.54271 0.31823,0 0.41447,-0.42775 0.21374,-0.95054 z m -97.21831,-11.1559 c 1.33708,-1.10968 1.14541,-2.52468 -0.34198,-2.52468 -1.20465,0 -1.26533,0.38048 -1.14146,7.15653 0.12502,6.83536 0.14041,6.90934 0.34198,1.64838 0.14763,-3.84968 0.49127,-5.74063 1.14146,-6.28023 z m 1.96164,6.05974 c -0.0832,-2.9758 -0.42082,-5.41077 -0.75033,-5.41101 -0.32951,-2.4e-4 -0.68181,2.43451 -0.78291,5.41057 -0.15003,4.41746 -0.012,5.41101 0.75036,5.41101 0.76004,0 0.90594,-1.00826 0.78288,-5.41057 z m 6.8836,3.15628 c 0.51437,-2.74183 -0.12455,-5.37831 -0.97725,-4.0321 -0.73069,1.15371 -0.73968,6.28639 -0.012,6.28639 0.31094,0 0.75564,-1.01442 0.98826,-2.25429 z m 22.13915,0.66395 c -0.1671,-0.87468 -0.41378,-1.59035 -0.54794,-1.59035 -0.13416,0 -0.24389,0.71567 -0.24389,1.59035 0,0.87468 0.24656,1.59034 0.54791,1.59034 0.30136,0 0.41112,-0.71566 0.24392,-1.59034 z m 57.91799,-7.46046 c 1.40505,-1.09909 1.40505,-1.09909 -0.34432,-1.11323 -1.74939,-0.0144 -1.74939,-0.0144 -1.62681,5.23398 0.11805,5.0557 0.13079,5.0965 0.34434,1.11324 0.17984,-3.35166 0.4879,-4.34307 1.62679,-5.23399 z m -82.12044,2.84943 c 0.7738,-1.52947 0.39436,-2.46536 -0.72025,-1.77648 -0.37315,0.23057 -0.63264,2.04841 -0.57665,4.03955 0.0666,2.36589 0.18345,2.8488 0.33752,1.39377 0.12959,-1.22458 0.56138,-2.87015 0.95938,-3.65684 z m -12.21302,1.07474 c 0,-2.40758 -0.23875,-3.70679 -0.63613,-3.46122 -0.34987,0.21615 -0.63615,1.9507 -0.63615,3.85437 0,1.90368 0.28628,3.4612 0.63615,3.4612 0.35408,0 0.63613,-1.70887 0.63613,-3.85435 z m 19.08409,3.21822 c 0.70977,-0.45869 0.34312,-0.61915 -1.4313,-0.62639 -1.31205,-0.005 -2.38552,0.27652 -2.38552,0.62639 0,0.81025 2.56307,0.81025 3.81682,0 z m 48.9825,-0.068 c 0,-0.79736 -2.87895,-1.38586 -4.40705,-0.90086 -2.16773,0.68801 -1.49467,1.28175 1.5483,1.36585 1.57231,0.0435 2.85875,-0.16589 2.85875,-0.46499 z m 6.36136,0.068 c 0,-0.81024 -2.56308,-0.81024 -3.81682,0 -0.70977,0.4587 -0.34312,0.61916 1.4313,0.6264 1.31202,0.005 2.38552,-0.27652 2.38552,-0.6264 z m 27.22712,-2.99445 c 2.2853,0.25135 2.70113,0.12983 2.52489,-0.73783 -0.15772,-0.77711 -0.89447,-1.02435 -2.92475,-0.98162 -2.88996,0.0608 -5.31373,1.45741 -7.03913,4.05597 -0.893,1.34494 -0.67406,1.27899 1.84494,-0.55568 2.44724,-1.78243 3.25152,-2.03846 5.59405,-1.78084 z m -103.44137,-3.84305 c 0.40039,-0.78668 0.55576,-1.60258 0.34526,-1.81308 -0.76079,-0.76079 -1.59734,0.41549 -2.31093,3.24941 -0.56828,2.25684 -0.55056,3.20024 0.0808,4.30474 0.75259,1.3166 0.82061,1.21638 0.98271,-1.4481 0.0957,-1.57445 0.50175,-3.50628 0.90216,-4.29297 z m 62.85538,6.20138 c 0,-0.3499 -0.64408,-0.61603 -1.4313,-0.59144 -1.36573,0.0426 -1.37302,0.0697 -0.15892,0.59144 0.69975,0.30068 1.34383,0.56683 1.4313,0.5914 0.0875,0.0245 0.15916,-0.24153 0.15916,-0.5914 z m -30.53454,-0.63616 c 0.74355,-0.48052 0.56804,-0.61879 -0.79517,-0.62639 -0.96215,-0.005 -1.74937,0.27652 -1.74937,0.62639 0,0.80434 1.29991,0.80434 2.54454,0 z m 26.87506,-1.36939 c -0.90961,-0.90959 -4.11891,-0.95409 -4.43493,-0.0615 -0.17624,0.49801 0.0808,0.65654 0.68705,0.42386 0.53279,-0.20437 1.48095,-0.0851 2.107,0.26529 1.30156,0.72838 2.52785,0.2593 1.64088,-0.62767 z m 14.92714,0.73327 c 2.25326,0 2.25691,-0.005 1.8709,-2.38343 -0.21278,-1.31089 -0.87338,-2.73924 -1.46811,-3.1741 -1.59547,-1.16666 -0.3587,-1.89786 3.42925,-2.02745 0.99621,-0.0341 1.69548,-0.70133 2.33238,-2.22565 0.50028,-1.19737 1.64918,-2.66158 2.55307,-3.25385 1.00168,-0.65633 1.64348,-1.66536 1.64348,-2.58385 0,-1.37925 0.22913,-1.49057 2.70358,-1.31316 2.13617,0.15316 2.66377,0.42056 2.51391,1.27409 -0.11565,0.65885 0.56739,1.50985 1.751,2.18151 1.06738,0.60567 2.10238,1.60217 2.29999,2.21448 0.20749,0.64276 0.99151,1.11323 1.85525,1.11323 1.26805,0 1.59638,-0.46035 2.15507,-3.02164 0.78724,-3.60911 0.18128,-4.32809 -4.20175,-4.98536 -7.02655,-1.0537 -12.40462,0.98045 -18.08544,6.84044 -4.86264,5.01598 -7.97499,13.01964 -4.55217,11.70617 0.51805,-0.19883 1.95784,-0.36143 3.19959,-0.36143 z m -50.95633,-0.90681 c 0.49951,-1.30173 -3.59911,-7.41467 -6.50492,-9.70183 -2.58474,-2.03444 -7.87798,-4.94253 -7.87798,-4.32817 0,0.79838 2.51559,5.21494 3.37796,5.93065 0.7379,0.6124 1.00218,0.57139 1.2988,-0.20148 0.20484,-0.53372 0.6187,-0.97042 0.91976,-0.97042 0.69732,0 3.12433,5.39627 3.64787,8.11072 0.358,1.85621 0.6231,2.06746 2.59462,2.06746 1.31407,0 2.33565,-0.36416 2.54389,-0.90681 z m 41.25361,-0.52449 c -0.62392,-2.08063 -1.82159,-3.12734 -3.04235,-2.65891 -1.48879,0.5713 -1.33737,2.1818 0.20509,2.1818 0.69974,0 1.23838,0.2147 1.19695,0.47711 -0.16566,1.04904 0.12069,1.4313 1.07239,1.4313 0.73708,0 0.88516,-0.37322 0.56787,-1.4313 z m -36.55242,-0.62361 c 0,-0.38913 0.47532,-1.23277 1.05632,-1.87477 1.24057,-1.37081 0.61954,-2.36169 -0.88531,-1.41247 -1.57055,0.99068 -2.33031,2.49856 -1.8671,3.70566 0.43215,1.12617 1.69609,0.81436 1.69609,-0.41842 z m 3.45403,0.0741 c -0.19162,-0.31011 0.0978,-0.56381 0.64329,-0.56381 1.18376,0 1.32551,-1.04659 0.19667,-1.45138 -1.25804,-0.45109 -3.02164,0.7456 -3.02164,2.05034 0,0.8749 0.33525,1.10265 1.26511,0.85948 0.69583,-0.182 1.10834,-0.58453 0.91667,-0.89463 z m 6.67112,0.31135 c 0.1457,-0.13151 0.1332,-0.37081 -0.0279,-0.53188 -0.48593,-0.48593 -3.0999,0.39614 -3.0999,1.04604 0,0.52964 2.40949,0.13344 3.12767,-0.51416 z m 27.37239,-3.77933 c -0.71381,-0.86009 -2.51006,-1.28558 -2.51006,-0.59459 0,0.17504 0.57251,0.89058 1.27228,1.59035 0.69975,0.69975 1.31809,1.91634 1.37408,2.70356 0.0592,0.83268 0.21038,0.54926 0.36146,-0.67768 0.14282,-1.15995 -0.0813,-2.5197 -0.49776,-3.02164 z m -70.48807,2.88299 c -1.80046,-1.4999 -4.7073,-1.63014 -5.84297,-0.26176 -0.72766,0.87678 -0.63745,0.90567 0.79282,0.25401 1.29245,-0.58888 1.97897,-0.53762 3.44677,0.25746 2.54896,1.38066 3.40112,1.24797 1.60338,-0.24971 z m 74.62918,-2.32229 c 1.68229,-3.6746 6.90071,-9.82202 9.99078,-11.76931 0.93561,-0.5896 2.9413,-1.43445 4.45711,-1.87746 2.87977,-0.8416 3.68422,-1.51038 3.70052,-3.07637 0.007,-0.6305 -0.30246,-0.49101 -0.94525,0.42674 -0.52526,0.7499 -1.87741,1.56603 -3.00479,1.81365 -4.39998,0.96638 -11.62628,6.8257 -13.93892,11.30209 l -1.25418,2.42757 -1.31115,-1.66685 c -1.06463,-1.35348 -1.65618,-1.59109 -3.14629,-1.2638 -2.74469,0.60283 -2.31197,-0.56325 1.82265,-4.91168 3.81093,-4.00801 10.75864,-8.98913 11.7143,-8.39849 0.30364,0.18777 0.39959,0.5879 0.21326,0.88942 -0.18633,0.30152 -0.0478,0.72802 0.30768,0.94779 0.35559,0.21976 0.64651,0.0474 0.64651,-0.38305 0,-0.43044 0.47377,-1.30613 1.0528,-1.94596 0.97977,-1.08263 0.97955,-1.16332 -0.002,-1.16332 -1.56721,0 -6.95683,2.7389 -10.48268,5.3271 -5.21436,3.82771 -9.28315,8.64464 -11.2173,13.27988 -1.32138,3.16677 0.13752,3.32 1.82238,0.19138 2.30343,-4.27721 7.37748,-3.35663 7.37748,1.3385 0,1.17034 0.12214,2.12787 0.27142,2.12787 0.14931,0 1.01635,-1.62708 1.92678,-3.61572 z m 29.01015,2.21501 c 1.99078,-1.47184 5.63535,-1.85807 7.91402,-0.83865 1.108,0.49567 1.16623,0.43864 0.451,-0.44174 -0.45169,-0.55597 -1.59674,-1.22321 -2.54454,-1.48268 l -1.72327,-0.47182 1.59034,-0.53584 c 1.22456,-0.4126 1.00851,-0.46857 -0.93931,-0.24334 -2.71466,0.31388 -5.04481,1.73869 -6.54942,4.00474 -1.18673,1.78733 -0.60773,1.79031 1.80118,0.01 z m -70.95415,-3.69322 c 2.3641,-0.89882 2.55959,-0.84729 5.03623,1.32722 6.40227,5.62127 3.20824,-3.80525 -3.46911,-10.23837 -5.87788,-5.66291 -12.35358,-8.04773 -20.30735,-7.47863 -6.98527,0.49978 -7.09392,1.45705 -0.15363,1.3539 8.11755,-0.12069 9.94765,0.81253 6.99267,3.5655 -1.0187,0.94907 -1.13817,1.29704 -0.4453,1.29704 1.27447,0 2.47366,-1.27704 2.47366,-2.63421 0,-1.72371 1.06215,-1.97814 3.47606,-0.83266 3.17494,1.5066 7.72245,5.68748 10.21984,9.39591 2.37297,3.52366 2.3501,4.51373 -0.0829,3.5887 -2.73452,-1.03966 -4.52707,-0.71326 -5.81842,1.05945 l -1.21743,1.6713 -1.72468,-2.9429 c -0.94854,-1.6186 -3.2872,-4.12265 -5.19695,-5.56455 -1.90978,-1.44188 -3.47233,-2.87349 -3.47233,-3.18132 0,-0.30784 -0.82374,-0.55972 -1.83051,-0.55972 -1.00678,0 -2.19135,-0.43474 -2.63234,-0.96614 -0.65741,-0.79209 -0.5855,-1.20981 0.3992,-2.31904 1.18749,-1.33765 1.18575,-1.34486 -0.15555,-0.64187 -0.74606,0.39108 -1.50723,1.10396 -1.69152,1.58416 -0.22745,0.59269 -2.01817,1.00293 -5.5753,1.27724 -2.88214,0.22216 -5.3891,0.55294 -5.57103,0.73487 -0.77751,0.7775 0.44751,0.88368 2.7764,0.24062 3.05528,-0.84359 8.20086,-0.3731 10.78177,0.98588 1.04965,0.55268 2.20402,1.00663 2.56529,1.00877 0.36127,0.002 2.55026,1.57554 4.86444,3.4964 2.93014,2.43214 4.56095,4.34682 5.37151,6.30656 l 1.16392,2.81411 0.78142,-1.85847 c 0.42979,-1.02214 1.52862,-2.14254 2.44185,-2.48975 z m -32.04906,1.22237 c -2.04384,-1.65699 -5.2988,-1.57948 -6.82843,0.16253 -1.19547,1.36151 -1.19465,1.37329 0.0603,0.8724 2.6051,-1.03967 4.03248,-1.0745 5.80896,-0.14185 2.33481,1.22578 2.91091,0.68924 0.95903,-0.89317 z m 61.61299,-0.74043 c 2.42632,-4.69539 6.335,-9.22525 11.12796,-12.89637 8.07651,-6.18608 14.62942,-7.76358 22.50586,-5.41788 4.69148,1.39718 5.92046,1.43664 4.35793,0.13993 -1.00591,-0.83485 -7.73849,-2.65906 -9.81366,-2.65906 -2.26857,0 -1.72068,-0.84369 1.37439,-2.11643 2.76956,-1.13889 8.96261,-6.02213 8.37837,-6.60637 -0.16301,-0.16301 -1.8822,0.87533 -3.82057,2.30728 -5.67361,4.19133 -9.37879,6.15069 -15.73207,8.31927 -7.42747,2.53528 -13.2443,3.79609 -17.57936,3.81044 -1.83686,0.007 -3.33971,0.29929 -3.33971,0.65162 0,0.69767 7.71793,0.25355 11.28641,-0.64948 3.06586,-0.77584 3.01114,0.18682 -0.13681,2.40569 -3.22031,2.2699 -8.0344,8.15051 -9.8796,12.06838 -1.43664,3.05036 -1.49846,3.34664 -0.69816,3.34664 0.31455,0 1.20058,-1.2166 1.96897,-2.70358 z m -19.08041,0.31278 c 0,-2.66675 -4.70042,-9.29914 -9.23449,-13.03005 -2.38234,-1.96037 -3.75322,-3.49945 -3.34286,-3.75308 0.3826,-0.23634 -0.40786,-0.73461 -1.75655,-1.10699 -1.34869,-0.3724 -2.57745,-0.55183 -2.73053,-0.39872 -0.15316,0.15315 -0.877,-0.1409 -1.60862,-0.65337 -0.73165,-0.51245 -1.73739,-0.93174 -2.23501,-0.93174 -0.49759,0 -4.30309,-1.71758 -8.45663,-3.81682 -4.15356,-2.09926 -7.75231,-3.81681 -7.99721,-3.81681 -1.1418,0 6.78129,4.54669 9.49208,5.44707 4.41525,1.4665 3.92526,2.47931 -1.27557,2.63657 -4.69662,0.1421 -9.84749,1.91904 -10.50133,3.62289 -0.49291,1.28452 1.03721,1.36025 2.08065,0.1029 0.41683,-0.50225 2.81353,-1.38379 5.32599,-1.95897 5.71804,-1.30901 11.58226,-0.83164 16.0542,1.30688 6.09162,2.91309 14.04029,11.4348 15.25561,16.35546 0.552,2.23503 0.93027,2.23287 0.93027,-0.005 z m -40.32692,-1.42745 c 0.0673,-1.89478 -1.13389,-2.63362 -2.00093,-1.23074 -0.30198,0.4886 1.28767,3.15319 1.87275,3.13914 0.0332,-6.4e-4 0.0909,-0.85958 0.12815,-1.9084 z m 84.10232,0.67351 c 0.11541,-0.3466 0.905,-1.65423 1.75437,-2.90585 1.60306,-2.36225 1.92867,-3.49145 1.00677,-3.49145 -0.77252,0 -2.33236,1.92043 -3.35854,4.13488 -0.61521,1.32763 -1.41531,1.96967 -2.62902,2.1097 -0.95955,0.11084 -1.74468,0.50601 -1.74468,0.87841 0,0.85237 4.67244,0.17022 4.9711,-0.72569 z m -70.42155,-1.49109 c -0.51952,-0.51952 -0.7077,-0.44833 -0.7077,0.26771 0,1.26454 0.8554,2.11997 1.17154,1.17154 0.13416,-0.40235 -0.0745,-1.05002 -0.46384,-1.43925 z m 3.96497,1.1102 c -0.41664,-1.08575 -1.58974,-0.95219 -1.98236,0.22577 -0.13993,0.4195 0.32864,0.7554 1.05351,0.7554 0.91483,0 1.1927,-0.29349 0.92885,-0.9811 z m 89.31645,-1.54947 c 0.78721,-0.007 1.43298,-0.22865 1.43502,-0.49108 0.005,-0.59232 -5.85895,-5.88427 -6.51987,-5.88427 -1.22931,0 -0.30121,1.8157 1.10901,2.16964 2.07575,0.52098 2.02925,1.99787 -0.0959,3.04379 -0.92736,0.45643 -1.91202,1.45224 -2.1881,2.21291 -0.502,1.38302 -0.502,1.38302 2.16324,0.17287 1.46585,-0.66551 3.30929,-1.21631 4.0965,-1.22398 z m -112.33514,0.78645 c 1.52487,-0.26306 1.71366,-0.60098 1.90841,-3.41624 0.17864,-2.58344 0.051,-3.05379 -0.73807,-2.717 -0.52481,0.22408 -1.59831,0.54703 -2.38552,0.71775 -1.93313,0.41926 -1.82058,1.43438 0.15892,1.43438 2.28045,0 1.96006,1.10074 -0.63613,2.18548 -1.27526,0.53284 -2.22647,1.38091 -2.22647,1.98501 0,0.76178 0.30919,0.92248 1.11324,0.57862 0.61228,-0.26185 1.87477,-0.60745 2.80552,-0.768 z m 104.86054,-0.48235 c 0.67777,-0.81669 0.47704,-0.95422 -1.39283,-0.95422 -1.68983,0 -2.50434,-0.43229 -3.59567,-1.90841 -0.77603,-1.04962 -1.83178,-1.90841 -2.34611,-1.90841 -1.23323,0 -1.20272,1.20953 0.0426,1.68741 0.53774,0.20629 1.40389,1.19928 1.92473,2.20649 0.70754,1.36821 1.40582,1.83133 2.76121,1.83133 0.99778,0 2.17053,-0.42938 2.60609,-0.95419 z m -96.37466,-0.31807 c 0.21615,-0.34987 0.1974,-0.95296 -0.0418,-1.3402 -0.42756,-0.69179 -1.51555,0.36831 -1.53863,1.49922 -0.0144,0.6973 1.12201,0.58297 1.58061,-0.15892 z m 25.46321,-0.3882 c 1.01036,-0.66202 2.15533,-0.87574 3.237,-0.60427 l 1.67368,0.42006 -1.92808,-2.41738 c -4.58236,-5.74532 -10.31591,-9.57628 -10.31591,-6.8927 0,0.5125 -0.57876,1.24155 -1.28613,1.62013 -1.2045,0.64462 -1.03293,0.94499 2.70358,4.73336 2.19433,2.22482 4.07134,4.07208 4.17112,4.10512 0.0998,0.0329 0.88492,-0.40094 1.74474,-0.96432 z m -22.51718,-0.46552 c -0.38966,-0.46953 -0.52014,-1.04204 -0.28993,-1.27225 0.23009,-0.23033 -0.0584,-0.41859 -0.64166,-0.41859 -1.24711,0 -1.36581,0.71225 -0.29686,1.7812 1.04669,1.04668 2.10737,0.96869 1.22845,-0.0904 z m 65.43863,-0.39642 c 0,-0.94823 3.86433,-5.13333 6.51477,-7.05559 2.08892,-1.51499 2.25881,-1.82649 1.38959,-2.54788 -1.33948,-1.11167 -3.89272,0.36476 -8.691,5.02563 l -3.64924,3.54477 1.74083,0.77187 c 2.20498,0.97766 2.69505,1.02515 2.69505,0.2612 z m -71.4063,-0.4231 c 0.78724,-0.21086 1.43132,-0.63644 1.43132,-0.94552 0,-0.88514 -2.17685,-0.6561 -3.53621,0.37204 -1.37026,1.0364 -0.50358,1.27253 2.10489,0.57348 z m 40.23563,-0.42965 c 0,-1.03298 -8.22634,-10.23919 -8.71379,-9.75175 -0.16782,0.16782 0.82285,1.32446 2.20166,2.57015 1.37881,1.24566 3.30391,3.41486 4.27799,4.82046 1.57575,2.27384 2.23414,2.96964 2.23414,2.36114 z m 19.38619,-3.04853 c 1.28141,-1.78365 2.1963,-3.37654 2.03309,-3.53977 -0.16325,-0.16325 -1.32796,-0.10338 -2.58827,0.1332 -2.26011,0.424 -2.29146,0.47244 -2.29146,3.53975 0,1.71044 0.11637,3.1099 0.25839,3.1099 0.14209,0 1.30683,-1.45935 2.58825,-3.243 z m -48.64845,1.7047 c 0,-0.81066 -0.84906,-2.2785 -1.31797,-2.2785 -0.30012,0 -0.8521,0.57251 -1.22659,1.27225 -0.59766,1.11677 -0.48377,1.27228 0.93183,1.27228 0.88699,0 1.61273,-0.11973 1.61273,-0.26603 z m 79.4723,-3.07368 c 0.0245,-0.61227 -0.38467,-1.11323 -0.90947,-1.11323 -0.99324,0 -1.38199,3.17698 -0.49704,4.06193 0.50879,0.5088 1.33743,-1.22835 1.40651,-2.9487 z m -88.66202,2.01201 c 0.30777,-0.498 0.62098,-0.498 1.11896,0 1.72501,1.72499 5.44878,0.0868 5.50598,-2.42235 0.0168,-0.71222 -0.86978,-0.81282 -4.48752,-0.50952 -4.55357,0.38176 -6.30657,1.14536 -6.30657,2.74713 0,1.05529 3.53432,1.21191 4.16915,0.18465 z m 107.68316,-1.42868 c 0.18417,-0.97008 0.0168,-1.0562 -0.99985,-0.51247 -1.43043,0.76555 -4.26861,-0.429 -6.04901,-2.54593 -0.61228,-0.72802 -1.11324,-1.06162 -1.11324,-0.74137 0,0.32028 0.98764,1.66055 2.19474,2.97839 1.70683,1.86343 2.58952,2.35068 3.97043,2.19178 1.11547,-0.12839 1.85792,-0.63788 1.99693,-1.3704 z M 241.0521,161.23091 c 1.13709,-1.20714 2.06743,-2.50722 2.06743,-2.88909 0,-0.38185 -0.74975,0.19667 -1.6661,1.28579 -1.95049,2.31803 -5.0627,4.08391 -6.0845,3.45242 -0.45353,-0.28031 -0.5378,-0.15435 -0.22985,0.3436 0.78572,1.27134 3.65089,0.20893 5.91314,-2.19272 z m 43.4163,1.0414 c 0,-1.36441 -0.36661,-1.93247 -1.4313,-2.21779 -2.32952,-0.6243 -2.39194,-0.50293 -0.92493,1.7986 1.72097,2.69993 2.35623,2.81295 2.35623,0.41919 z m 64.65362,-2.02877 c -0.92188,-0.72516 -1.67613,-1.62831 -1.67613,-2.00701 0,-0.3787 0.52349,-0.2147 1.16332,0.36423 1.28233,1.16051 2.6535,1.39146 2.6535,0.44696 0,-0.33321 -1.36913,-1.97922 -3.04247,-3.65777 -1.93454,-1.94056 -3.44422,-4.21021 -4.14567,-6.23263 l -1.10319,-3.18069 0.22648,3.24531 c 0.34084,4.8857 4.47759,12.34005 6.84808,12.34005 0.41376,0 -0.002,-0.59331 -0.92382,-1.31845 z m -38.09744,-2.20791 c -0.0861,-0.0707 -1.44469,0.0854 -3.01915,0.34697 -1.86544,0.30991 -2.26018,0.50333 -1.13319,0.55519 1.36064,0.0628 1.64413,0.31701 1.32943,1.19287 -0.30316,0.84386 0.01,0.74062 1.28974,-0.42659 0.92933,-0.84692 1.61927,-1.5977 1.53317,-1.66844 z m -71.02359,0.93756 c 1.01688,-0.72408 2.14908,-1.87747 2.51603,-2.5631 0.65358,-1.22124 0.61821,-1.22035 -1.74127,0.0442 -1.32462,0.70998 -2.91359,1.29086 -3.53104,1.29086 -0.69857,0 -1.12266,0.4806 -1.12266,1.27226 0,1.64906 1.52535,1.63167 3.87894,-0.0442 z m 9.21461,-0.0762 c 2.97069,-0.0971 4.71826,-0.75245 4.71826,-1.76954 0,-0.54685 -6.2302,0.3575 -8.55686,1.24209 -1.84311,0.70075 -2.23679,1.56512 -0.45533,0.9997 0.6413,-0.20364 2.57356,-0.41604 4.29393,-0.47225 z m 11.71043,0.13729 c 0.74434,-0.47057 0.78233,-0.76647 0.17623,-1.37252 -0.5915,-0.59148 -1.14944,-0.60088 -2.3802,-0.0402 -0.88418,0.40286 -1.60759,1.02488 -1.60759,1.38225 0,0.81304 2.54149,0.83331 3.81148,0.0305 z m 43.58065,-0.0168 c 0.46937,-0.75944 -0.77721,-0.75944 -2.54454,0 -1.13603,0.48817 -1.08895,0.55153 0.43956,0.59144 0.94152,0.0245 1.88876,-0.24156 2.10498,-0.59144 z m -20.03828,-1.82055 c 0,-0.30155 -1.93226,-0.7449 -4.29393,-0.98518 -2.36164,-0.24019 -5.00956,-0.60637 -5.88424,-0.81347 -0.87471,-0.20701 -1.36725,-0.13705 -1.09458,0.15579 0.27267,0.29273 2.56276,0.87469 5.08909,1.29323 5.94931,0.98561 6.18366,0.99888 6.18366,0.34975 z m 54.23062,0.0993 c -0.78721,-0.15171 -2.07541,-0.15171 -2.86263,0 -0.78721,0.15171 -0.14305,0.27567 1.43133,0.27567 1.57443,0 2.21851,-0.12406 1.4313,-0.27567 z m -7.43716,-1.12117 c 1.17012,-0.88505 1.12923,-0.93503 -0.7806,-0.9542 -2.36556,-0.024 -4.02787,0.52106 -4.02787,1.32011 0,0.91553 3.46262,0.65204 4.80847,-0.36591 z m 22.44015,-0.58721 c 0.11709,-0.60371 0.0375,-1.55428 -0.17647,-2.11236 -0.34709,-0.90447 -0.47933,-0.89168 -1.21742,0.11757 -1.03825,1.41988 -2.70825,0.65971 -5.19441,-2.36446 l -1.70289,-2.07139 1.49466,2.80184 c 1.44575,2.71017 4.64411,5.36432 5.94762,4.93559 0.34987,-0.11517 0.73192,-0.70319 0.84896,-1.30691 z m -113.52163,0.005 c 2.90246,-1.21272 4.63141,-4.3423 5.1362,-9.29697 0.30041,-2.94884 0.23105,-3.86118 -0.24202,-3.18067 -0.3648,0.52481 -0.66765,1.89596 -0.67301,3.04699 -0.012,2.55298 -2.11258,6.85003 -3.78681,7.74606 -2.00278,1.07186 -3.94115,0.78943 -4.31189,-0.62829 -0.26416,-1.01016 -0.52404,-1.1298 -1.21273,-0.55823 -0.92163,0.7649 -1.17223,2.6084 -0.45239,3.32824 0.69684,0.69684 3.29329,0.48271 5.54265,-0.45713 z m 98.04153,0.2451 c -1.7755,-0.76296 -3.65222,-0.76296 -3.18069,0 0.21615,0.34987 1.30662,0.616 2.42307,0.59141 1.71109,-0.0378 1.83008,-0.13056 0.75762,-0.59141 z m -59.16067,-1.60581 c -5.59131,-0.81087 -8.58615,-0.78952 -3.72279,0.0265 1.34778,0.22624 2.73678,0.50827 3.08666,0.62694 0.34987,0.11878 1.9243,0.20701 3.49875,0.19619 2.00557,-0.0144 1.14853,-0.26805 -2.86262,-0.84975 z m 31.17067,0.35319 c 0.7359,-0.30484 -0.87324,-0.38348 -3.81682,-0.18657 -2.79899,0.1873 -5.20835,0.44458 -5.35415,0.57177 -0.54662,0.47686 7.9516,0.11997 9.17097,-0.38524 z m 6.04331,-1.29194 c 1.25927,-0.4033 1.32549,-0.50931 0.31807,-0.50931 -0.69975,0 -1.98795,0.22913 -2.86263,0.50931 -1.25927,0.40329 -1.32549,0.50932 -0.31806,0.50932 0.69974,0 1.98791,-0.22913 2.86262,-0.50932 z m 15.42629,0.18729 c -0.78721,-0.15171 -2.07539,-0.15171 -2.8626,0 -0.78724,0.15171 -0.14305,0.27568 1.4313,0.27568 1.57443,0 2.21852,-0.12406 1.4313,-0.27568 z m -92.08073,-5.11619 c 0,-2.71212 -0.20509,-5.08521 -0.45578,-5.27356 -0.2507,-0.18826 -0.81494,-2.9794 -1.25389,-6.20233 -0.8593,-6.30957 -2.13466,-8.12743 -1.65647,-2.36114 0.27263,3.28746 -0.1921,4.49935 -1.03673,2.70358 -0.407,-0.86533 -0.19258,0.51327 1.21162,7.79268 0.50623,2.62407 0.93039,5.55825 0.94258,6.5204 0.0168,1.23311 0.35074,1.74967 1.13543,1.75042 0.96458,6.5e-4 1.11324,-0.65743 1.11324,-4.93005 z m 44.21149,4.29286 c -0.52483,-0.33917 -1.81301,-0.62458 -2.86263,-0.6343 -1.04961,-0.01 -4.4132,-0.71059 -7.47459,-1.55755 -4.37699,-1.21092 -5.5662,-1.35429 -5.5662,-0.67111 0,0.89053 0.17936,0.9659 5.0891,2.13812 4.72809,1.12886 5.27906,1.21082 8.58782,1.27745 2.26819,0.0457 2.90694,-0.11276 2.2265,-0.55261 z m 28.9442,-0.58013 c 3.14885,-0.65976 6.51244,-1.50771 7.47459,-1.88432 2.04584,-0.80079 2.42725,-2.28939 0.42366,-1.65348 -3.6627,1.1625 -15.16639,3.48181 -17.26966,3.48181 -1.31842,0 -2.39711,0.28625 -2.39711,0.63612 0,1.00207 5.51444,0.73024 11.76852,-0.58013 z m -63.9904,-0.93657 2.16778,-0.78377 -2.3268,-1.37286 c -1.50449,-0.88766 -2.32991,-1.09941 -2.33551,-0.59915 -0.005,0.42556 -0.18128,1.41782 -0.39226,2.20503 -0.43131,1.60936 -0.17599,1.65807 2.88679,0.55075 z m 101.21953,-2.14107 c 0.0144,-2.79153 0.37267,-4.96395 1.4965,-9.06496 0.23971,-0.87468 -0.28825,-0.30215 -1.17322,1.27228 l -1.60903,2.8626 0.1332,-3.49873 c 0.2501,-6.57106 -0.0726,-9.54204 -1.03603,-9.54204 -0.49565,0 -1.20318,-0.78724 -1.57227,-1.74939 -0.56553,-1.47434 -0.61475,-1.24932 -0.31294,1.4313 0.19691,1.74939 0.5961,4.18261 0.88699,5.40716 0.2909,1.22458 0.55922,4.76543 0.59627,7.86859 0.0654,5.46678 0.69224,8.03484 1.96166,8.03484 0.33757,0 0.62057,-1.35975 0.62892,-3.02165 z m -83.48456,1.02913 c 0.10843,-0.56301 -0.31766,-1.20399 -0.94689,-1.4244 -0.62923,-0.22047 -1.46541,-0.55539 -1.85823,-0.74441 -1.19246,-0.57381 -1.51781,2.18262 -0.33989,2.87974 1.44308,0.85408 2.90737,0.52308 3.14501,-0.71093 z m 17.94736,0.48433 c 0,-0.59379 -1.21833,-1.00988 -3.81821,-1.30402 -9.69414,-1.09677 -22.02762,-5.935 -29.20185,-11.45546 -2.07856,-1.5994 -4.17308,-2.90801 -4.65452,-2.90801 -1.22318,0 -2.40201,-1.31123 -2.40201,-2.67178 0,-0.62978 -0.28625,-1.14504 -0.63613,-1.14504 -0.88127,0 -0.79615,1.45366 0.15893,2.71654 0.97078,1.28346 10.12068,8.09776 10.87328,8.09776 0.2969,0 1.29966,0.53724 2.22834,1.19388 2.78625,1.96998 10.87958,4.92644 16.63775,6.07769 2.97394,0.59458 6.26595,1.31945 7.31557,1.61083 2.84438,0.7896 3.49875,0.74988 3.49875,-0.2123 z m 28.30807,-1.45208 c 10.47825,-2.24304 18.59262,-6.16086 25.28789,-12.20963 2.67571,-2.41735 6.33442,-7.15134 3.88551,-5.02743 -0.70598,0.61228 -1.54731,1.12031 -1.86963,1.12896 -0.32232,0.01 -2.1605,1.45097 -4.0848,3.20519 -5.94024,5.41512 -12.11803,8.60795 -20.7231,10.7102 -4.17174,1.01915 -9.08785,2.04985 -10.92468,2.29042 -2.3339,0.30566 -3.33971,0.72201 -3.33971,1.38245 0,1.0644 -0.2869,1.10049 11.76852,-1.48016 z m 12.6928,0.94975 c 1.62395,-0.73995 2.37857,-3.71471 0.94231,-3.71471 -1.5988,0 -3.13888,1.4155 -3.13888,2.88498 0,1.80383 0.032,1.81592 2.19657,0.82973 z m -84.25815,-0.85211 c 0,-0.52481 -0.28625,-0.95419 -0.63613,-0.95419 -0.34987,0 -0.63612,0.42938 -0.63612,0.95419 0,0.52481 0.28625,0.95422 0.63612,0.95422 0.34988,0 0.63613,-0.42941 0.63613,-0.95422 z m 2.40766,-3.76505 c 0.15917,-1.92046 0.0637,-4.2922 -0.2123,-5.27051 -0.47734,-1.69166 -0.5255,-1.63859 -0.98338,1.08386 -0.26481,1.57443 -0.50269,4.2796 -0.5286,6.01148 -0.0654,4.36411 1.33392,2.8833 1.72436,-1.82483 z m 10.26206,4.50509 c -0.99874,-0.807 -7.58062,-4.26286 -7.58062,-3.98028 0,0.44469 6.47756,4.18044 7.26256,4.18847 0.32071,0.002 0.46383,-0.0904 0.31806,-0.20821 z m 87.83982,-1.80512 v -2.01932 l -1.62121,1.52305 c -1.48042,1.39079 -1.52185,1.56226 -0.47709,1.9746 1.90767,0.75288 2.0983,0.61858 2.0983,-1.47833 z m -81.42545,1.07217 c 0,-0.17094 -2.24494,-1.43969 -4.98877,-2.81927 -2.74383,-1.37956 -5.9236,-3.2949 -7.06617,-4.2563 -1.66221,-1.39868 -2.03187,-1.52125 -1.84967,-0.61336 0.13704,0.68243 2.76304,2.4888 6.58904,4.53233 6.20767,3.3156 7.31557,3.79364 7.31557,3.1566 z m 80.35025,-3.43314 c 1.27567,-1.38956 1.28589,-1.45799 0.12094,-0.81068 -0.69975,0.38883 -2.27417,1.59583 -3.49873,2.68226 l -2.2265,1.97529 2.10549,-1.16461 c 1.15801,-0.64053 2.73244,-1.84756 3.49876,-2.68226 z m -2.58259,-3.13224 c 2.01179,-1.56936 3.65779,-3.27422 3.65779,-3.78857 0,-0.54897 -1.09051,0.15532 -2.64044,1.70522 -1.45224,1.45225 -4.45797,3.81588 -6.67942,5.25252 -2.22145,1.43664 -4.039,2.74256 -4.039,2.90201 0,0.55881 6.0784,-3.24522 9.70107,-6.07118 z m -76.49538,5.04483 c 0,-0.3076 -2.38823,-1.89965 -5.30717,-3.53789 -2.91893,-1.63826 -6.67148,-4.10608 -8.33903,-5.48405 -3.46213,-2.86094 -3.65765,-2.94584 -3.03189,-1.31652 0.71043,1.84969 3.74364,4.09266 10.31674,7.62887 6.76352,3.63866 6.36135,3.46736 6.36135,2.70959 z m 22.90091,-0.39495 c 0,-0.52481 -0.39423,-0.95419 -0.87605,-0.95419 -0.66763,0 -0.79712,-0.71898 -0.54422,-3.02165 0.18249,-1.66192 0.50517,-3.16479 0.71701,-3.33973 0.21182,-0.17503 0.43845,-1.42096 0.50356,-2.76893 0.0651,-1.34797 -0.007,-2.32505 -0.16133,-2.17125 -0.55318,0.55318 -2.79485,12.09942 -2.45563,12.6483 0.58011,0.93864 2.81659,0.62694 2.81659,-0.39255 z m 19.35962,-2.06743 c -0.53375,-3.67765 -1.17428,-4.63952 -0.78714,-1.18207 0.2236,1.99694 0.0539,2.53413 -0.87788,2.77775 -1.72042,0.44992 -1.39579,1.42597 0.47427,1.42597 1.58121,0 1.61636,-0.0892 1.19075,-3.02165 z m -62.50786,-0.15892 c 0.13344,-1.39949 0.0192,-2.54454 -0.25125,-2.54454 -0.27166,0 -0.49392,1.14505 -0.49392,2.54454 0,1.39949 0.11301,2.54454 0.25125,2.54454 0.13825,0 0.36045,-1.14505 0.49392,-2.54454 z m 38.93048,1.11324 c 0.21086,-0.78722 0.38748,-2.16483 0.39226,-3.06135 0.005,-0.89653 0.86747,-4.17068 1.91709,-7.27587 1.04962,-3.1052 1.90841,-6.64874 1.90841,-7.87455 0,-2.09625 -0.0555,-2.15533 -0.93397,-0.99391 -0.51368,0.67917 -0.94309,1.59578 -0.95422,2.03692 -0.012,0.44116 -0.56441,2.01559 -1.22951,3.49875 -1.22063,2.72198 -3.87981,12.42958 -3.87981,14.16373 0,1.51816 2.35256,1.10032 2.77975,-0.49372 z m 28.80042,0.80385 c 0.52404,-0.007 0.56277,-0.76491 0.13849,-2.71226 -1.54329,-7.08332 -6.17202,-18.28892 -7.55466,-18.28892 -0.76425,0 -0.8372,3.32514 -0.0914,4.16669 0.69494,0.78416 2.46395,7.97961 2.96368,12.05477 0.61141,4.98584 0.89021,5.57342 2.44634,5.15594 0.75349,-0.2022 1.69739,-0.37144 2.09753,-0.37622 z m -32.5743,-2.3942 c 0.23082,-1.31202 1.00197,-4.17542 1.71359,-6.36309 0.7116,-2.18766 1.14637,-4.33463 0.96614,-4.77101 -0.19787,-0.4791 -0.50007,-0.22648 -0.76276,0.63786 -0.25406,0.83578 -0.94289,1.4313 -1.65555,1.4313 -1.03305,0 -1.11335,0.20004 -0.52288,1.30342 0.51783,0.96761 0.48562,1.91004 -0.12503,3.6578 -0.45246,1.29488 -0.82784,2.92687 -0.83424,3.62661 -0.007,0.80378 -0.42152,1.25276 -1.12482,1.21927 -0.61228,-0.0291 -1.93022,-0.10074 -2.92877,-0.15893 -0.99853,-0.0584 -2.54173,-0.77906 -3.42934,-1.60169 -0.88762,-0.8226 -2.14603,-1.70183 -2.79646,-1.95382 -1.12014,-0.43398 -1.12379,-0.50154 -0.0695,-1.27806 1.0948,-0.80628 1.53142,-2.26996 0.67715,-2.26996 -0.23995,0 -1.11778,0.64041 -1.95094,1.42312 l -1.51483,1.42311 -1.09686,-1.45415 c -0.66722,-0.88454 -1.48275,-1.30606 -2.08202,-1.07609 -0.54186,0.20798 -1.35237,-0.0644 -1.80113,-0.60511 -0.66845,-0.80541 -0.65813,-0.98759 0.0572,-1.00776 0.48016,-0.0144 3.02001,-2.02761 5.64408,-4.47569 4.22033,-3.93734 4.55075,-4.40335 2.8626,-4.03741 -1.1877,0.25745 -3.71019,2.19976 -6.67942,5.14307 -4.61237,4.57213 -4.72872,4.76161 -3.49875,5.6983 3.29658,2.51052 16.14602,7.66992 19.49039,7.82591 0.72004,0.0337 1.17226,-0.68919 1.46217,-2.3369 z m 62.34082,-5.37949 c 2.07697,-2.01321 3.61509,-3.8216 3.41804,-4.01866 -0.19692,-0.19715 -1.46701,0.72766 -2.82212,2.05491 -1.35513,1.32726 -4.38706,3.70136 -6.73762,5.27581 -2.35059,1.57443 -4.28285,3.21779 -4.29393,3.65188 -0.0325,1.27171 6.29593,-2.95139 10.43563,-6.96394 z m 7.39683,1.82614 c -0.80315,-0.80318 -0.9615,3.23137 -0.1998,5.09167 0.33836,0.82642 0.5352,0.35396 0.67693,-1.62475 0.10988,-1.5345 -0.10482,-3.09462 -0.4771,-3.46692 z m -26.75852,3.56393 c 4.54178,-1.51911 11.53691,-5.24031 11.11971,-5.91536 -0.50083,-0.81034 -2.2138,-0.79447 -2.2138,0.0216 0,0.86103 -3.3877,0.8108 -4.26168,-0.0632 -0.97622,-0.97619 -3.37195,-0.0832 -3.37195,1.25675 0,0.60929 -0.35783,1.58851 -0.79518,2.176 -0.72999,0.98064 -0.9696,0.93078 -2.9234,-0.60821 -1.77641,-1.3993 -2.06822,-1.9764 -1.76528,-3.49116 0.2473,-1.23645 0.10458,-1.81474 -0.44811,-1.81474 -1.3988,0 -2.3378,1.44746 -2.3378,3.60361 0,2.42836 1.65452,3.64152 4.12183,3.02227 2.1642,-0.54318 2.02559,0.1207 -0.27344,1.3095 -3.35111,1.73294 -4.35245,1.33155 -4.84326,-1.94142 -0.2639,-1.7598 -0.15339,-3.53352 0.27909,-4.48288 1.09093,-2.39429 0.89601,-2.96652 -0.8603,-2.52569 -1.3078,0.32824 -1.6444,0.12334 -1.97737,-1.20332 -0.22071,-0.87937 -0.77839,-1.59888 -1.23927,-1.59888 -0.62057,0 -0.45186,0.98525 0.65039,3.79782 0.81859,2.0888 1.67747,4.7367 1.90862,5.88425 0.90789,4.50723 0.84773,4.44309 3.72255,3.96848 1.45532,-0.24019 3.93422,-0.86774 5.50865,-1.39435 z m 2.2296,-3.34526 c -0.21447,-0.34709 -0.13825,-1.08083 0.16926,-1.63052 0.49937,-0.89231 0.64531,-0.89582 1.36148,-0.0329 0.80481,0.96974 0.47013,2.29454 -0.57965,2.29454 -0.3086,0 -0.73658,-0.284 -0.95109,-0.63111 z m -20.23904,1.42627 c -0.16013,-0.61228 -0.29092,-0.11132 -0.29092,1.11324 0,1.22458 0.13103,1.72554 0.29092,1.11323 0.16012,-0.61227 0.16012,-1.61419 0,-2.22647 z m -17.17335,0.012 c -0.16133,-0.61893 -0.30386,-0.26656 -0.31682,0.78306 -0.012,1.04962 0.11902,1.55603 0.29326,1.12535 0.17431,-0.43068 0.18489,-1.28947 0.024,-1.90841 z m 59.7968,-1.27228 c -0.16133,-0.61894 -0.30385,-0.26656 -0.31681,0.78306 -0.012,1.04964 0.11901,1.55603 0.29325,1.12535 0.17431,-0.43068 0.18489,-1.28947 0.024,-1.90841 z m -69.20801,-1.04801 c 0.86382,-2.27835 0.84622,-2.53246 -0.22985,-3.31934 -1.44038,-1.05323 -2.46558,-0.51301 -2.04908,1.07977 0.4678,1.78887 -1.93334,4.53036 -3.52537,4.02508 -0.88733,-0.28162 -1.14613,-0.17912 -0.83191,0.32922 0.26171,0.42344 1.57385,0.65584 3.07848,0.54524 2.39709,-0.17623 2.70272,-0.40471 3.55778,-2.65997 z m -4.51572,0.11349 c 1.44708,-1.44708 0.91392,-2.59303 -0.9847,-2.1165 -2.27071,0.56991 -2.40761,0.75083 -1.44537,1.91028 0.97045,1.16933 1.42813,1.20816 2.43007,0.20629 z m -28.25298,-7.41518 c 0.3943,-2.97234 0.34109,-3.13996 -0.89394,-2.817 -1.31318,0.34341 -1.31318,0.34341 0.0272,-1.92822 1.11401,-1.88809 1.2129,-2.50965 0.58571,-3.68155 -0.596,-1.11362 -0.85883,-1.22145 -1.25064,-0.51305 -0.80402,1.45366 -1.86585,11.71507 -1.46674,14.17445 l 0.36743,2.26414 1.1059,-2.16917 c 0.60826,-1.19306 1.29459,-3.5914 1.52516,-5.3296 z m 60.8135,6.11109 c -0.005,-0.78722 -0.41555,-2.71948 -0.91166,-4.2939 -0.75879,-2.40822 -0.90875,-2.5783 -0.94452,-1.07143 -0.024,0.98516 0.28474,2.40278 0.68479,3.15028 0.54572,1.01968 0.54572,1.41961 0,1.60152 -1.07237,0.35745 -0.88517,2.04485 0.22696,2.04485 0.56833,0 0.9503,-0.57883 0.94455,-1.43132 z m 16.39838,0.69154 c 0.56229,-0.56229 0.34641,-0.94385 -0.89969,-1.59034 -0.90171,-0.4678 -1.74987,-0.85057 -1.88482,-0.85057 -0.55662,0 -0.19042,1.70888 0.51802,2.41733 0.95201,0.952 1.3341,0.95597 2.26649,0.024 z m 25.72946,-6.63325 -0.60673,-4.39551 -0.0382,5.72523 c -0.0286,4.29854 0.12237,5.39386 0.60672,4.3955 0.42705,-0.88047 0.43999,-2.81473 0.0382,-5.72522 z m -81.55863,4.57847 c 0,-0.48737 -0.42938,-1.05091 -0.95422,-1.2523 -0.95645,-0.36704 -1.34734,0.89712 -0.53009,1.71436 0.71323,0.71323 1.48431,0.47321 1.48431,-0.46206 z m 62.63527,-0.34703 c 0.20292,-0.32838 -0.11805,-0.86966 -0.71355,-1.20287 -0.98208,-0.54958 -0.92837,-0.78904 0.57879,-2.58019 0.91375,-1.08593 1.84354,-2.54846 2.06622,-3.25011 0.22264,-0.70164 0.67188,-1.27569 0.99817,-1.27569 0.32631,0 0.59328,-0.28628 0.59328,-0.63615 0,-1.38209 -1.39809,-0.47062 -4.86773,3.17355 -1.99497,2.09534 -4.14909,3.97533 -4.7869,4.17775 -0.63784,0.20244 -1.15969,0.66752 -1.15969,1.03355 0,0.68222 2.59659,0.45069 4.61199,-0.41123 0.79589,-0.3404 1.11323,-0.18465 1.11323,0.54616 0,1.11509 0.97605,1.38009 1.56619,0.42523 z m -59.18958,-2.2391 c -2.595,-2.29139 -4.08182,-2.82021 -4.08182,-1.45176 0,1.15808 3.69697,3.50904 5.67217,3.60704 0.49564,0.0245 -0.22,-0.94527 -1.59035,-2.15528 z m 62.20519,-0.0387 c -1.14731,-0.9941 -1.9308,-1.27769 -2.35532,-0.85256 -0.82645,0.82763 1.93928,3.16155 3.18158,2.68483 0.66601,-0.25558 0.45604,-0.7212 -0.82626,-1.83227 z m 21.0538,-2.91468 c -0.29628,-0.29628 -0.39581,0.67047 -0.22119,2.14831 0.30962,2.62088 0.3229,2.63412 0.53866,0.53869 0.12165,-1.1816 -0.0216,-2.39074 -0.31744,-2.687 z m -76.64129,1.44578 c 0.1118,-0.75981 -0.11973,-1.38149 -0.51464,-1.38149 -0.39485,0 -0.53327,0.29881 -0.30755,0.66402 0.22576,0.36519 0.0279,1.1274 -0.43956,1.69378 -0.72025,0.87266 -0.70434,0.98213 0.10435,0.71749 0.52481,-0.17191 1.04567,-0.934 1.15747,-1.6938 z m -22.19813,-0.48569 c -2.18276,-2.33359 -3.76866,-3.11758 -3.76866,-1.86302 0,0.93289 3.46053,3.50428 4.72288,3.50941 0.32338,10e-4 -0.10603,-0.73957 -0.95422,-1.64639 z m 19.67194,1.08568 c 0.47177,-0.29897 0.75803,-1.05825 0.63613,-1.68731 -0.19763,-1.01925 -0.42934,-0.96124 -2.13004,0.53322 -1.67125,1.46857 -1.7503,1.67825 -0.63613,1.68731 0.69975,0.005 1.65827,-0.23417 2.13004,-0.53322 z m 48.44279,-0.0356 c 0,-0.32922 -0.28626,-0.77553 -0.63613,-0.99175 -0.34987,-0.21615 -0.63613,0.0531 -0.63613,0.5986 0,0.54546 0.28626,0.99174 0.63613,0.99174 0.34987,0 0.63613,-0.26937 0.63613,-0.59859 z m 12.72273,-0.35562 c 0,-0.52481 -0.25565,-0.9542 -0.56809,-0.9542 -0.31243,0 -0.73283,0.42939 -0.93423,0.9542 -0.22312,0.58124 -0.001,0.95421 0.56808,0.95421 0.51383,0 0.93424,-0.4294 0.93424,-0.95421 z m -76.92478,-0.493 c -0.0786,-0.76063 -0.95121,-0.61332 -1.22456,0.20677 -0.13993,0.41983 0.089,0.64884 0.5089,0.50891 0.41986,-0.13993 0.74189,-0.46201 0.71566,-0.71566 z m 23.11056,-2.12276 c 0.24125,-0.62869 0.0983,-0.79788 -0.42369,-0.50119 -1.41764,0.80584 -3.01436,2.34841 -3.01436,2.91215 0,0.81205 3.0117,-1.29991 3.43805,-2.41096 z m 33.37853,-0.34701 c -1.75578,-2.21685 -2.18278,-2.48698 -2.37267,-1.50097 -0.14835,0.77076 0.53409,1.82726 1.90134,2.94314 1.17307,0.95744 2.24077,1.63288 2.37265,1.501 0.13175,-0.13199 -0.72372,-1.4563 -1.90132,-2.94317 z m 5.16842,1.97102 c 0,-0.32922 -0.42938,-0.5986 -0.95422,-0.5986 -0.98371,0 -1.26379,0.75062 -0.54741,1.46703 0.50825,0.50822 1.50163,-0.0664 1.50163,-0.86843 z m 4.61447,0.3397 c 0.0363,-0.34112 -0.41352,-0.71258 -0.99971,-0.82546 -0.75521,-0.14546 -0.9509,0.094 -0.67154,0.82205 0.4119,1.0734 1.55699,1.07575 1.67125,0.002 z m 13.19734,-0.3397 c 0,-0.32922 -0.42939,-0.5986 -0.95419,-0.5986 -0.98375,0 -1.26382,0.75062 -0.54741,1.46703 0.50822,0.50822 1.5016,-0.0664 1.5016,-0.86843 z m 5.07044,-3.42119 c -0.0168,-1.15894 -0.23947,-1.06955 -1.90841,0.76519 -2.6088,2.86794 -2.59303,4.87762 0.0192,2.37547 1.04962,-1.0056 1.90002,-2.41889 1.88976,-3.14066 z m -93.0557,1.78247 c 0.12526,-2.41559 2.5135,-5.59672 4.96948,-6.61929 1.24209,-0.51714 1.24035,-0.53067 -0.0733,-0.57003 -3.00758,-0.0902 -6.71777,4.81438 -6.09731,8.06008 0.41846,2.18902 1.06681,1.71898 1.20109,-0.87076 z m 105.49287,-0.0731 c -0.56051,-2.99945 -1.44784,-4.08937 -3.13238,-3.84752 -1.86727,0.2681 -2.12384,2.22051 -0.28272,2.15148 1.07657,-0.0404 1.56928,0.44929 2.02672,2.0141 0.84595,2.89386 1.94171,2.64283 1.38838,-0.31806 z m -94.16203,1.11324 c 0.21614,-0.34988 -0.0531,-0.63613 -0.5986,-0.63613 -0.54546,0 -0.99175,0.28625 -0.99175,0.63613 0,0.34987 0.26938,0.63615 0.5986,0.63615 0.32922,0 0.77551,-0.28628 0.99175,-0.63615 z m -19.97863,-2.73934 c -0.83076,-0.83075 -0.94631,0.0899 -0.23755,1.89214 0.44206,1.12391 0.46675,1.12335 0.69581,-0.0144 0.13055,-0.64945 -0.0757,-1.49391 -0.45831,-1.8766 z m 31.3734,1.71847 c 0.55142,-0.21158 0.84419,-0.64098 0.65062,-0.95419 -0.53363,-0.86343 -2.42917,-0.68224 -3.81306,0.36449 -1.1857,0.8968 -1.16729,0.93479 0.46251,0.95422 0.93354,0.012 2.1485,-0.15292 2.69993,-0.36452 z m 11.81446,-2.2967 c 0.005,-0.60011 -0.8787,-2.10299 -1.96457,-3.33973 -1.62567,-1.85153 -2.41201,-2.2486 -4.45295,-2.2486 -1.36326,0 -2.47863,0.22865 -2.47863,0.50839 0,0.27962 0.95474,0.39695 2.12164,0.26072 1.7586,-0.20532 2.41175,0.0971 3.81682,1.76687 1.04774,1.24519 1.69887,2.78555 1.70491,4.03323 0.007,1.53728 0.15676,1.7911 0.62639,1.06443 0.33915,-0.52483 0.62103,-1.44522 0.62639,-2.04531 z m 40.81108,2.11352 c -0.78945,-0.50019 -3.26929,-0.2544 -3.26929,0.32405 0,0.13416 0.93034,0.23947 2.06743,0.23418 1.40564,-0.007 1.79038,-0.18537 1.20186,-0.55818 z m -68.49093,-1.30039 c -1.79084,-1.75879 -4.75336,-2.40869 -4.75336,-1.04276 0,1.15613 2.01756,2.17261 4.4353,2.23462 1.56327,0.0401 1.56517,0.0329 0.31806,-1.19186 z m 23.39569,-0.15051 c 1.33486,-0.68411 1.44005,-2.00715 0.23874,-3.00409 -0.68294,-0.56679 -1.30978,-0.319 -2.8626,1.13153 -2.49604,2.33166 -2.58709,3.42264 -0.23874,2.86128 0.96215,-0.23009 2.25032,-0.67493 2.86262,-0.98872 z m 39.91754,0.46084 c 0,-0.50702 -1.00259,-1.68655 -2.22799,-2.62121 -1.82767,-1.39404 -2.39915,-1.55729 -3.18066,-0.90868 -1.47042,1.22034 -1.18729,1.6415 2.06894,3.07759 3.65147,1.6104 3.33971,1.56818 3.33971,0.4523 z m 6.82634,-1.43037 c -1.38191,-1.38191 -2.05723,-0.7066 -1.09373,1.09372 0.54887,1.0256 0.93438,1.20729 1.45558,0.68609 0.52123,-0.52121 0.42539,-0.99259 -0.36185,-1.77981 z m 7.9002,1.39798 c 0,-0.33237 -0.30772,-0.70691 -0.68383,-0.83227 -0.37612,-0.12527 -0.68385,0.24916 -0.68385,0.83227 0,0.58314 0.30773,0.95765 0.68385,0.83227 0.37611,-0.12526 0.68383,-0.49988 0.68383,-0.83227 z m 4.96309,-0.70802 c 1.56195,-1.31428 1.82217,-1.84693 1.24319,-2.54456 -1.09994,-1.32534 -1.52571,-1.11494 -3.36356,1.66223 -2.00782,3.03403 -0.95662,3.47145 2.12037,0.88233 z m 5.11968,-0.51601 c 0,-3.34841 -4.74446,-6.45851 -7.4503,-4.88382 -0.94092,0.54758 -0.74024,0.66534 1.16122,0.68136 2.88436,0.0243 5.89298,2.72026 5.47511,4.90618 -0.15099,0.78981 -0.0296,1.28466 0.26974,1.09965 0.29933,-0.18489 0.54423,-0.99651 0.54423,-1.80337 z m -80.7893,1.00457 c 0,-0.78306 -2.48851,-2.91122 -2.91059,-2.48915 -0.54058,0.54058 1.19208,3.02667 2.10941,3.02667 0.44064,0 0.80118,-0.24189 0.80118,-0.53752 z m 59.65101,-0.61546 c 0.14065,-0.42197 -0.33316,-0.75543 -1.07347,-0.75543 -1.32145,0 -1.71753,0.66799 -0.88793,1.49759 0.58937,0.58937 1.65154,0.18754 1.9614,-0.74216 z m -10.99724,-1.93214 c 1.21688,-1.34695 3.1484,-2.74902 4.29226,-3.11574 1.7165,-0.5503 1.82246,-0.67809 0.60663,-0.73168 -1.8218,-0.0803 -3.72067,0.86713 -6.00148,2.99441 -1.53521,1.43187 -2.34491,3.30201 -1.42964,3.30201 0.17575,0 1.31534,-1.10206 2.53223,-2.449 z m -4.39477,-1.02009 c -0.41724,-2.22402 -1.18774,-2.86296 -1.95514,-1.62131 -0.40191,0.65029 1.62391,4.63194 2.10955,4.14628 0.14786,-0.14787 0.0784,-1.28409 -0.15436,-2.52497 z m -49.14594,1.78262 c 0.69191,-0.69191 -1.67729,-2.08859 -3.57942,-2.11013 -2.00405,-0.0216 -1.77526,1.00641 0.4207,1.89244 1.70374,0.68741 2.62547,0.75094 3.15872,0.21759 z m -19.17257,-3.35363 c 0.11252,-1.19763 0.60783,-2.31017 1.10093,-2.47232 0.62939,-0.20701 0.77144,0.0313 0.47667,0.79934 -0.27726,0.72253 -0.14954,1.00408 0.37575,0.82895 1.26663,-0.4222 0.93397,-2.65963 -0.43463,-2.92321 -1.70428,-0.32822 -2.90467,1.57411 -2.90467,4.60319 0,3.05278 1.08222,2.40001 1.38595,-0.83595 z m 97.21518,2.17747 c 1.015,-1.22299 -0.0216,-1.23586 -1.6278,-0.0192 -1.03739,0.78464 -1.06927,0.93721 -0.19956,0.95421 0.56943,0.012 1.3917,-0.40916 1.82726,-0.93399 z m -80.7258,-4.5168 c 2.89933,-0.67636 6.06334,-0.79828 12.60862,-0.48582 5.50153,0.26263 9.16327,0.17912 9.8862,-0.22552 0.84539,-0.47312 -1.0131,-0.76062 -7.04728,-1.09025 -8.51399,-0.46509 -18.87975,0.38348 -20.43319,1.67272 -0.45862,0.38062 -0.95128,0.57457 -1.09484,0.43101 -0.48199,-0.48199 3.53554,-8.18926 4.30366,-8.25625 0.41751,-0.0363 7.81442,-0.0168 16.43757,0.0459 10.58521,0.0757 15.81537,-0.10939 16.09997,-0.56996 0.29169,-0.47199 -2.48017,-0.71273 -8.99901,-0.78161 -5.1813,-0.0548 -12.56944,-0.14474 -16.41806,-0.1998 -3.84861,-0.0551 -7.52268,0.1558 -8.16458,0.46884 -0.6419,0.31297 -1.59441,1.61948 -2.11667,2.90335 -0.52226,1.28387 -1.93856,4.26962 -3.14734,6.63497 l -2.19777,4.30066 3.20603,-1.9727 c 1.76334,-1.08499 4.94785,-2.37903 7.07669,-2.87566 z m 13.18361,1.95534 c 1.95834,-1.33073 2.10195,-1.57342 0.93101,-1.57342 -1.93747,0 -4.9922,2.72596 -4.30349,3.84033 0.40337,0.65267 0.60105,0.67431 0.79673,0.0873 0.14306,-0.42944 1.30222,-1.48882 2.57575,-2.35419 z m 1.15396,1.92533 c 0.2123,-0.55303 1.20674,-0.9723 2.36557,-0.99725 1.93843,-0.0418 1.95428,-0.0647 0.52045,-0.75459 -1.16798,-0.56196 -1.83318,-0.49658 -3.16393,0.31088 -0.92676,0.56231 -1.78798,1.33128 -1.91382,1.70878 -0.35603,1.06813 1.7792,0.80721 2.19173,-0.26782 z m 49.93468,-0.025 c -2.73128,-1.18583 -3.94651,-1.16248 -2.34993,0.0452 0.67916,0.51368 1.96733,0.92277 2.86262,0.90906 1.52375,-0.024 1.49098,-0.0844 -0.51269,-0.95421 z m 5.62824,0.50199 c -0.0168,-0.7291 -2.93752,-3.33971 -3.73647,-3.33971 -1.07051,0 -0.85391,0.6719 0.72581,2.25145 1.42096,1.4208 3.03174,2.00305 3.01066,1.08826 z m 2.77722,-1.66738 c -1.56406,-1.85102 -4.03849,-2.85315 -4.03849,-1.63557 0,0.93239 3.69646,3.38825 5.62884,3.73974 0.12189,0.0216 -0.59374,-0.92469 -1.59035,-2.10417 z m -63.51726,-0.40007 c 2.50215,-2.61167 0.49248,-2.62744 -2.37546,-0.0192 -1.83474,1.66894 -1.92414,1.89194 -0.76519,1.90841 0.72177,0.01 2.13506,-0.84013 3.14065,-1.88977 z m 11.76855,1.27228 c 0.84816,-0.54813 0.84816,-0.61666 0,-0.61666 -0.52484,0 -1.3836,0.27751 -1.90841,0.61666 -0.84819,0.54813 -0.84819,0.61665 0,0.61665 0.52481,0 1.38357,-0.2775 1.90841,-0.61665 z m 53.67426,-1.62201 c -0.64004,-0.97684 -1.24559,-1.40103 -1.38838,-0.97259 -0.25906,0.77717 1.77403,3.45445 2.25672,2.97176 0.14666,-0.14666 -0.24404,-1.04635 -0.86834,-1.99917 z m 4.85026,-0.92342 c 0,-0.53296 -4.30782,-1.20448 -4.7689,-0.74341 -0.15243,0.15243 0.35733,1.0772 1.13269,2.05515 1.40796,1.77583 1.41115,1.77646 2.52297,0.48122 0.61228,-0.71329 1.11324,-1.52012 1.11324,-1.79296 z m 14.27055,0.15989 c -0.54542,-3.75787 -0.6798,-3.90852 -1.6286,-1.82614 -0.60759,1.33352 -0.5904,2.00333 0.0837,3.26287 1.33825,2.50059 2.02381,1.86304 1.5449,-1.43673 z m -88.43893,0.79517 c 0.57314,-0.87468 0.91277,-1.59035 0.75476,-1.59035 -0.52828,0 -2.28658,1.99165 -2.28658,2.59001 0,0.9647 0.42758,0.68565 1.53182,-0.99966 z m 84.77252,-0.47711 c -0.85098,-1.13709 -2.63191,-4.18419 -3.95766,-6.77136 l -2.41047,-4.70391 -7.62503,0.41001 c -4.19379,0.22552 -11.93127,0.40998 -17.19444,0.40998 -7.65765,0 -9.40973,0.15892 -8.77021,0.79517 0.83421,0.83004 11.61454,0.87819 25.53685,0.11397 l 6.67944,-0.36661 2.44373,3.95326 2.44372,3.95324 -3.39794,-0.48365 c -7.57603,-1.07837 -27.21111,-0.84925 -25.35819,0.29592 0.38904,0.24043 4.63046,0.37043 9.42539,0.28885 10.67665,-0.18176 16.72576,0.58095 20.48658,2.58262 1.57443,0.838 2.94875,1.53854 3.05401,1.55674 0.10531,0.0192 -0.50483,-0.89721 -1.35578,-2.03433 z m -87.06771,0.66796 c 1.21306,-1.21306 0.88892,-1.90552 -0.66796,-1.42697 -1.83825,0.56506 -1.96277,0.69424 -1.45746,1.51187 0.54602,0.88346 1.18248,0.85802 2.12542,-0.0849 z m 94.93891,-1.84729 c 1.15649,-2.79201 0.4723,-2.75405 -1.06873,0.0594 -0.82809,1.51179 -1.02961,2.32969 -0.52647,2.13662 0.44836,-0.17215 1.16621,-1.16022 1.5952,-2.19591 z m -48.69182,1.33837 c 0.21615,-0.34987 -0.0531,-0.63612 -0.59857,-0.63612 -0.54546,0 -0.99175,0.28625 -0.99175,0.63612 0,0.34988 0.26935,0.63613 0.59857,0.63613 0.32925,0 0.77553,-0.28625 0.99175,-0.63613 z m -57.58007,-3.0592 c 0.005,-0.45799 -0.27652,-0.65579 -0.62639,-0.43955 -0.34987,0.21615 -0.63175,1.02036 -0.62639,1.78692 0.007,1.13312 0.12502,1.21532 0.62639,0.43955 0.33915,-0.52481 0.62103,-1.32892 0.62639,-1.78692 z m 104.3361,1.46886 c 0.64858,-0.78149 0.60511,-0.95419 -0.24019,-0.95419 -0.56765,0 -1.03209,0.42938 -1.03209,0.95419 0,0.52481 0.10819,0.95422 0.24019,0.95422 0.13199,0 0.59653,-0.42941 1.03209,-0.95422 z m -108.89209,-5.99179 c -1.1556,-1.37644 -2.2008,-2.40293 -2.32267,-2.28105 -0.1219,0.1219 0.73408,2.17625 1.90211,4.5653 2.04103,4.1746 2.13143,4.26339 2.32267,2.28102 0.15243,-1.57933 -0.29335,-2.64905 -1.90211,-4.56527 z m 107.59959,-3.8557 c -0.0144,-0.7285 -0.24267,-0.6532 -0.92258,0.30545 -0.49627,0.69974 -1.79502,2.47096 -2.88609,3.93599 -1.74992,2.34975 -1.89105,2.83698 -1.19726,4.1333 0.75199,1.40509 0.87941,1.2749 2.90631,-2.96918 1.16591,-2.44128 2.11075,-4.87377 2.09962,-5.40556 z m -109.42161,6.06789 c -0.71148,-0.71148 -2.58496,0.16325 -2.99696,1.39923 -0.17142,0.51425 0.29693,0.50805 1.70263,-0.0216 1.31003,-0.49449 1.72991,-0.94111 1.29433,-1.3767 z m -1.44172,-2.16995 c -0.71602,-0.31253 -2.98483,1.83621 -2.98483,2.8269 0,0.44826 0.78721,0.0462 1.74936,-0.89377 0.96215,-0.93984 1.51812,-1.80974 1.23547,-1.93313 z m 9.70475,0.70143 c 1.49453,-4.15255 2.5127,-5.24812 4.87733,-5.24812 1.1843,0 2.15331,-0.28628 2.15331,-0.63615 0,-1.15834 -3.61549,-0.65955 -5.4013,0.74519 -1.79832,1.41456 -4.30246,6.11215 -3.7418,7.01934 0.63103,1.021 1.27432,0.44842 2.11246,-1.88026 z m 104.06758,1.15555 c -0.5237,-0.84734 -2.88878,-0.89834 -2.88878,-0.0623 0,0.33889 0.40043,0.46249 0.88985,0.27469 0.48945,-0.18777 1.09062,-0.0168 1.33597,0.38036 0.24539,0.397 0.58925,0.57869 0.76418,0.40376 0.17504,-0.17504 0.12936,-0.62337 -0.10122,-0.99654 z m 0.29191,-1.63266 c -0.86189,-1.03851 -2.90321,-1.28165 -3.44197,-0.40995 -0.18489,0.29933 0.33709,0.41551 1.16017,0.25815 0.82309,-0.15725 1.6901,0.0272 1.92671,0.40998 0.23658,0.38281 0.59146,0.69604 0.78858,0.69604 0.19716,0 0.002,-0.42941 -0.43349,-0.95422 z M 242.4834,115.12484 c 0,-0.69975 -0.10963,-1.27226 -0.24386,-1.27226 -0.13416,0 -0.39361,0.57251 -0.5766,1.27226 -0.18297,0.69974 -0.0733,1.27228 0.24389,1.27228 0.3171,0 0.57657,-0.57254 0.57657,-1.27228 z m 100.84021,-3.79244 c -0.56035,-1.08357 -0.87545,-2.20209 -0.70025,-2.48558 0.17527,-0.28349 -0.2361,-1.55032 -0.91402,-2.81514 -1.30926,-2.44282 -1.07681,-2.91762 1.5342,-3.13371 0.90008,-0.0745 1.41801,-0.35396 1.15092,-0.62106 -0.2671,-0.26709 -1.51221,-0.2022 -2.76691,0.14426 -1.7541,0.48432 -2.7052,0.4088 -4.11575,-0.32682 -3.01893,-1.57442 -7.87772,-1.01189 -7.87772,0.91207 0,0.19235 1.60715,0.34988 3.57146,0.34988 3.41069,0 3.68134,0.12382 6.01153,2.7496 1.47602,1.66326 2.87749,4.17657 3.54718,6.36138 0.77488,2.52787 1.17779,3.19513 1.34263,2.22349 0.12959,-0.76353 -0.22288,-2.2748 -0.78327,-3.35839 z m -107.58007,2.45159 c -0.94318,-1.04359 -1.21126,-2.30385 -1.20922,-5.68474 0.002,-2.85274 -0.19066,-3.99849 -0.56044,-3.33769 -0.56953,1.01766 -0.12189,8.62752 0.57386,9.75309 0.20749,0.33562 0.83398,0.61019 1.39238,0.61019 0.86739,0 0.83876,-0.19523 -0.19668,-1.34085 z m 13.36636,-5.84879 c 2.06794,-2.71118 5.99588,-4.16445 8.353,-3.09048 0.89096,0.40594 1.74956,0.73807 1.90805,0.73807 0.70831,0 0.1885,-2.2364 -0.76466,-3.28962 -1.46282,-1.61639 -3.40015,-1.51502 -3.40015,0.17791 0,1.11591 -0.26938,1.27363 -1.6034,0.93881 -3.20046,-0.80325 -6.76011,2.42079 -8.26397,7.48483 -1.32951,4.47694 -1.17157,4.96778 0.601,1.86778 0.84297,-1.47424 2.26953,-3.64652 3.17013,-4.8273 z m 102.15281,6.55351 c -1.24579,-0.8051 -2.08791,-0.8051 -1.59035,0 0.21615,0.34987 0.87724,0.63175 1.46886,0.62639 0.92702,-0.007 0.94381,-0.095 0.12142,-0.62639 z m -4.09913,-3.67504 c -0.53092,-0.53091 -1.62569,0.59067 -1.60588,1.64514 0.0168,0.94443 0.13344,0.92611 0.94763,-0.15003 0.51007,-0.67421 0.80628,-1.34695 0.65825,-1.49499 z m -111.03095,-2.52595 c -0.30746,-4.29527 -0.30746,-4.29527 -0.51322,-0.87232 -0.18057,3.00455 0.0873,5.16211 0.6417,5.16622 0.0983,7.7e-4 0.0406,-1.93151 -0.12839,-4.2939 z m 104.21997,2.38285 c -1.76971,-5.07662 -10.00413,-6.77677 -10.87054,-2.24443 -0.35156,1.83911 0.24468,2.07673 1.47903,0.58943 1.33633,-1.61015 5.45243,-0.76374 7.82533,1.60915 1.07556,1.07556 2.01775,1.95558 2.09375,1.95558 0.076,0 -0.16133,-0.85939 -0.52757,-1.90973 z m -78.15872,-0.15772 c -0.007,-1.15741 -0.12767,-1.2487 -0.62639,-0.47709 -0.79702,1.23331 -0.79702,1.90841 0,1.90841 0.34987,0 0.63175,-0.64408 0.62639,-1.43132 z m 12.06288,-0.95419 c 0.36437,-1.31203 0.66409,-2.72251 0.66604,-3.13436 0.002,-0.41188 1.07702,-1.66144 2.38907,-2.7768 l 2.38549,-2.0279 -2.18473,0.3988 c -2.81449,0.5138 -4.49406,2.06003 -4.49707,4.1401 -10e-4,0.90794 -0.56962,2.58113 -1.26292,3.71822 -1.26055,2.06745 -1.26055,2.06745 0.29056,2.06745 1.25049,0 1.67947,-0.46229 2.21356,-2.38551 z m 2.92463,0.31806 c 0.66741,-3.08204 2.66134,-5.56618 4.46771,-5.56618 0.85085,0 1.54702,-0.28628 1.54702,-0.63616 0,-0.69955 -2.5028,-0.85633 -4.06999,-0.25495 -2.32404,0.89183 -5.32061,8.52474 -3.34666,8.52474 0.56061,0 1.13887,-0.8528 1.40192,-2.06745 z m 1.79697,0.63613 c 0.53267,-1.98768 0.49278,-2.51735 -0.15916,-2.11439 -0.71632,0.44271 -1.32722,3.54571 -0.69807,3.54571 0.26056,0 0.64633,-0.64408 0.8573,-1.43132 z m 5.77204,0.0168 c 2.03735,-2.90874 0.9325,-7.77263 -2.18373,-9.61343 -3.49074,-2.062043 -10.82101,-0.86249 -10.82101,1.77076 0,0.64505 0.56838,0.5598 2.361,-0.35415 4.2492,-2.16637 8.84049,-1.05945 10.3088,2.48534 0.86456,2.0872 0.37119,4.95865 -0.9383,5.46114 -1.20857,0.46377 -1.82313,-0.74297 -0.9278,-1.8218 0.85778,-1.03356 -0.2719,-3.80518 -1.29356,-3.17374 -0.86246,0.533 -0.74691,3.9039 0.18489,5.39605 1.02866,1.64713 2.08431,1.59924 3.30966,-0.15027 z m 2.19421,-0.9717 c 1.13838,-4.40238 1.11691,-7.25849 -0.0601,-8.01031 -1.60655,-1.02613 -1.91072,-0.25087 -0.87454,2.22904 0.8861,2.12076 0.63738,5.54911 -0.54089,7.45562 -0.24176,0.39113 -0.14739,0.71117 0.20965,0.71117 0.35704,0 0.92676,-1.07349 1.26601,-2.38552 z m 2.60315,-1.30981 c -0.005,-1.64127 -0.23827,-3.34396 -0.51745,-3.78378 -0.28465,-0.44838 -0.52474,1.0136 -0.54652,3.32788 -0.0216,2.27018 0.21157,3.97288 0.51743,3.78378 0.30594,-0.18898 0.55188,-1.68664 0.54654,-3.32788 z m 2.55427,1.03652 c 0,-2.21157 -1.32048,-6.5355 -2.42134,-7.92874 -0.59256,-0.74995 -1.79307,-1.560774 -2.66775,-1.801805 -1.59035,-0.438279 -1.59035,-0.438279 0.14666,1.045485 2.49775,2.1335 3.85415,5.82724 3.31396,9.02461 -0.3988,2.36045 -0.34235,2.52677 0.59386,1.7498 0.569,-0.47223 1.03454,-1.41245 1.03454,-2.08935 z m 2.09917,1.60222 c -0.22312,-0.58114 -0.71499,-2.92071 -1.09328,-5.1991 -0.37829,-2.27835 -1.01711,-4.25045 -1.41957,-4.38242 -0.50269,-0.16494 -0.43681,0.61607 0.21062,2.49488 0.51822,1.50418 0.84544,3.95175 0.72715,5.43905 -0.17647,2.21995 -0.0192,2.70418 0.88279,2.70418 0.7618,0 0.97374,-0.32343 0.69241,-1.05659 z m 12.89709,-1.18443 c 1.41344,-3.38279 -0.56029,-6.21529 -2.78244,-3.99312 -0.9584,0.9584 -0.98929,2.83872 -0.056,3.41546 0.38902,0.24043 0.97691,0.0426 1.30647,-0.43955 0.45472,-0.66527 0.55051,-0.56986 0.39729,0.3956 -0.12094,0.76113 -0.69335,1.27228 -1.42508,1.27228 -2.85515,0 -2.49832,-7.73367 0.4291,-9.30038 1.53814,-0.82319 5.43267,0.19354 8.32268,2.17276 1.93096,1.32238 2.59878,1.20347 2.00028,-0.3562 -0.48918,-1.27476 -6.00687,-3.648564 -8.48072,-3.648564 -1.08741,0 -2.65843,0.640287 -3.63763,1.482564 -1.38922,1.19495 -1.7804,2.16802 -2.01662,5.01634 -0.24752,2.98491 -0.0841,3.74269 1.05197,4.87882 2.0487,2.0487 3.79405,1.72895 4.89082,-0.89601 z m 2.2334,0.26592 c -0.33521,-0.83802 -0.62762,-1.18924 -0.64978,-0.78051 -0.0539,0.99276 0.68717,2.87628 1.00612,2.55733 0.13921,-0.13921 -0.0216,-0.93881 -0.35634,-1.77682 z m 3.76284,1.48662 c 0,-0.90481 -3.22017,-5.23675 -3.89277,-5.23675 -0.36641,0 -0.56332,0.21471 -0.43758,0.47709 1.77512,3.70408 2.80307,5.24814 3.49397,5.24814 0.46001,0 0.83638,-0.21975 0.83638,-0.48848 z m 1.41616,-2.53317 c -0.45882,-4.12632 -1.59292,-5.61756 -4.90691,-6.45202 -3.61166,-0.90945 -3.8617,-0.89483 -5.05166,0.29513 -1.40283,1.40283 -1.25396,2.60837 0.16373,1.32542 0.63983,-0.57903 1.77142,-1.0528 2.51463,-1.0528 1.76682,0 4.71458,1.32227 5.65305,2.53579 1.16991,1.51278 0.4409,1.55418 -1.43159,0.0813 -0.94029,-0.73963 -2.17197,-1.34373 -2.73707,-1.34241 -0.61012,0.001 -0.21615,0.49714 0.97018,1.22044 1.09869,0.66996 2.65427,2.38646 3.45685,3.81444 0.80257,1.42801 1.51449,2.59638 1.58202,2.59638 0.0676,0 -0.0284,-1.35975 -0.21326,-3.02165 z m 6.42706,2.01411 c -0.28746,-0.74909 -0.51041,-0.80729 -0.86913,-0.22673 -0.26539,0.42938 -1.08434,0.62331 -1.81988,0.43095 -0.73557,-0.19235 -1.33739,-0.0902 -1.33739,0.22672 0,0.31713 0.99292,0.5766 2.20652,0.5766 1.75191,0 2.12684,-0.20749 1.81988,-1.00754 z m 4.24336,-0.62464 c 0,-0.89767 0.29633,-2.18586 0.65852,-2.8626 0.80644,-1.50684 -0.15027,-1.64774 -1.56727,-0.23081 -1.01406,1.01406 -1.35027,3.52678 -0.57556,4.3015 0.87165,0.87165 1.48431,0.373 1.48431,-1.20809 z m 2.86263,0.99603 c -1.73754,-0.74663 -2.22647,-0.74663 -2.22647,0 0,0.34987 0.78721,0.61603 1.74936,0.59143 1.55017,-0.0397 1.60448,-0.10699 0.47711,-0.59143 z m -86.26246,-0.87469 c 0.58467,-0.70448 0.40007,-0.87468 -0.94867,-0.87468 -2.88621,0 -3.31638,-2.26241 -1.09811,-5.77528 0.77584,-1.22864 1.37867,-1.4457 3.53366,-1.27228 2.99362,0.24091 4.08964,-1.09158 1.44402,-1.75557 -4.28654,-1.07585 -8.53,2.66504 -7.63668,6.73227 0.72823,3.31564 3.14378,4.82763 4.70578,2.94554 z m 18.38672,0.11132 c 0.90096,-0.90096 1.00759,-2.82742 0.18465,-3.33603 -1.22246,-0.75552 -2.51294,0.42013 -2.46113,2.24218 0.0553,1.94372 0.98155,2.38881 2.2765,1.09385 z m 6.36393,-2.6145 c 0.17984,-2.75376 0.0466,-3.04982 -1.90841,-4.24182 -2.5845,-1.57573 -4.6294,-1.71612 -4.07829,-0.27998 0.2123,0.55342 0.38613,1.26908 0.38613,1.59034 0,0.32126 0.56593,0.5841 1.25759,0.5841 1.68823,0 3.4249,2.72762 2.86328,4.49709 -0.3185,1.00355 -0.20316,1.3014 0.42436,1.09465 0.51971,-0.17118 0.93871,-1.45938 1.05534,-3.24438 z m 31.33548,-2.63361 c 0.37236,-0.37758 0.59598,0.13295 0.59598,1.36083 0,1.08085 0.56056,2.64097 1.24566,3.46694 1.24567,1.50177 1.24567,1.50177 0.5824,-0.97013 -0.4661,-1.73701 -0.45819,-3.2865 0.0267,-5.21177 0.92325,-3.66655 0.94698,-3.61433 -1.14954,-2.53016 -2.6221,1.35593 -4.03467,5.96602 -2.77256,9.04857 0.33557,0.8196 0.53621,0.31606 0.67631,-1.69734 0.10963,-1.57443 0.46737,-3.13455 0.79517,-3.46694 z m 34.82542,5.32765 c -0.12527,-0.37613 -0.4999,-0.68386 -0.83227,-0.68386 -0.3324,0 -0.70691,0.30773 -0.8323,0.68386 -0.12526,0.3761 0.24916,0.68383 0.8323,0.68383 0.58311,0 0.95765,-0.30773 0.83227,-0.68383 z m -69.45455,-3.64323 c -0.88732,-0.88733 -0.90827,-0.73932 -0.21398,1.51271 0.6481,2.10215 0.8034,2.25744 0.98357,0.98357 0.11757,-0.83198 -0.22864,-1.95531 -0.76963,-2.49628 z m 88.26721,1.68176 c 0.26659,-1.33294 0.0257,-2.76653 -0.71563,-4.25928 -1.36028,-2.73898 -2.6712,-3.36871 -2.23222,-1.07234 0.16998,0.88855 0.59359,1.61556 0.94162,1.61556 0.37922,0 0.46458,0.89649 0.21302,2.23729 -0.41941,2.23571 -0.10627,3.48794 0.8723,3.48794 0.28548,0 0.69989,-0.90414 0.92089,-2.00917 z m -97.12785,-0.36423 c -0.82107,-0.82107 -1.24542,-0.89625 -1.81935,-0.32232 -0.57393,0.57393 -0.38952,0.88413 0.79063,1.32991 1.97801,0.74714 2.38491,0.3486 1.02872,-1.00759 z m 17.35829,-1.31597 c 0.0144,-2.30326 -1.67392,-4.97407 -3.61803,-5.72042 -3.25205,-1.24843 -4.44509,-1.436369 -5.84076,-0.92007 -1.18969,0.44008 -0.88449,0.68114 2.18219,1.72354 4.05285,1.37761 6.00965,3.42627 6.02382,6.30659 0.007,1.5134 0.15555,1.75619 0.62639,1.02745 0.33915,-0.52481 0.62103,-1.61251 0.62639,-2.41709 z m 24.69198,-4.39413 c 0.42835,-0.77224 1.27625,-1.69388 1.88425,-2.0481 0.608,-0.3542 0.7975,-0.652744 0.42116,-0.663371 -0.37637,-0.0096 -1.35949,0.699361 -2.18474,1.577791 -1.14098,1.21453 -1.6391,1.40502 -2.0793,0.79518 -0.39887,-0.55263 -0.46131,-0.43968 -0.20076,0.36328 0.20797,0.64092 0.4184,2.64473 0.46766,4.45297 l 0.0897,3.28768 0.41169,-3.18068 c 0.22648,-1.74937 0.76213,-3.81252 1.19051,-4.58475 z m 20.98312,3.43085 c 0.32341,-0.41498 0.92458,-1.75643 1.33595,-2.98099 l 0.74793,-2.22647 -1.67955,1.6745 c -1.24383,1.24008 -1.74313,2.47781 -1.92463,4.77103 -0.20293,2.56327 -0.14378,2.78826 0.34362,1.30647 0.32381,-0.98454 0.85331,-2.12958 1.17668,-2.54454 z m 8.39159,-0.84701 c 1.66298,-0.33258 3.02821,-1.87698 2.30156,-2.60363 -0.1582,-0.1582 -1.16332,-0.0952 -2.23368,0.13993 -2.48104,0.54493 -4.51421,3.1164 -4.47807,5.66368 l 0.0281,1.98166 1.27018,-2.40662 c 0.89371,-1.69328 1.81609,-2.51581 3.11191,-2.77497 z m -56.08729,3.54355 c -0.12526,-0.37613 -0.4999,-0.68385 -0.83227,-0.68385 -0.33239,0 -0.70691,0.30772 -0.83229,0.68385 -0.12527,0.3761 0.24916,0.68383 0.83229,0.68383 0.58312,0 0.95766,-0.30773 0.83227,-0.68383 z m 49.10443,-0.97456 c 0,-1.32217 -1.07583,-1.06998 -1.44414,0.33853 -0.2248,0.85912 -0.057,1.12362 0.56193,0.88615 0.48521,-0.18609 0.88221,-0.7373 0.88221,-1.22468 z m -76.97249,-0.96405 c 0,-0.30703 -0.4294,-0.55823 -0.95421,-0.55823 -0.54847,0 -0.95419,0.5741 -0.95419,1.35016 0,1.12802 0.157,1.21987 0.95419,0.55825 0.52481,-0.43556 0.95421,-1.04313 0.95421,-1.35018 z m 6.69346,-3.00017 c 0.96134,-0.75618 2.56806,-1.37487 3.5705,-1.37487 1.99511,0 2.33024,-0.69521 0.90524,-1.87786 -0.71972,-0.597318 -1.37071,-0.54577 -3.02164,0.23923 -2.06366,0.98132 -5.60533,5.68015 -5.60064,7.43047 0.001,0.48812 0.54155,0.002 1.20051,-1.07734 0.659,-1.08065 1.9847,-2.58351 2.94603,-3.33971 z m 98.78086,0.65711 c 0.16229,-2.17312 -0.0616,-2.76061 -1.38266,-3.6262 -1.7844,-1.169185 -6.20049,-1.076668 -6.59941,0.13825 -0.18537,0.5644 0.57297,0.67269 2.83462,0.40483 3.74298,-0.4433 4.98028,0.57831 4.32326,3.56963 -0.2337,1.06398 -0.67941,1.93448 -0.9905,1.93448 -0.31109,0 -0.40084,-0.42939 -0.19956,-0.95422 0.23178,-0.60422 -0.01,-0.95419 -0.6561,-0.95419 -1.02866,0 -1.46946,2.52145 -0.59387,3.39705 1.04457,1.04457 3.07572,-1.38824 3.26412,-3.9096 z m -103.08851,0.35351 c -0.33085,-0.99365 -2.1159,-1.37175 -3.53621,-0.74904 -0.85793,0.37616 -0.68919,0.56525 0.83232,0.93275 2.85019,0.6884 2.99108,0.67883 2.70389,-0.18369 z m 81.44728,-3.12244 c 0.94999,-0.0555 2.25235,-0.0546 2.89415,0.002 2.0417,0.17984 0.7519,-1.43729 -1.51632,-1.901173 -3.78412,-0.773967 -7.6023,1.680313 -7.6023,4.886613 0,0.81974 0.51283,0.61165 2.24861,-0.91239 1.23675,-1.08587 3.02588,-2.01965 3.97586,-2.0751 z"
       id="path12089" />
  </g>
</svg>
