<?xml version="1.0" encoding="UTF-8" standalone="no"?>
<!-- Created with Inkscape (http://www.inkscape.org/) -->

<svg
   width="39.214077mm"
   height="38.055393mm"
   viewBox="0 0 39.214077 38.055401"
   version="1.1"
   id="svg997"
   inkscape:version="1.1 (c4e8f9ed74, 2021-05-24)"
   sodipodi:docname="ornateh2.svg"
   xmlns:inkscape="http://www.inkscape.org/namespaces/inkscape"
   xmlns:sodipodi="http://sodipodi.sourceforge.net/DTD/sodipodi-0.dtd"
   xmlns="http://www.w3.org/2000/svg"
   xmlns:svg="http://www.w3.org/2000/svg">
  <sodipodi:namedview
     id="namedview999"
     pagecolor="#ffffff"
     bordercolor="#666666"
     borderopacity="1.0"
     inkscape:pageshadow="2"
     inkscape:pageopacity="0.0"
     inkscape:pagecheckerboard="0"
     inkscape:document-units="mm"
     showgrid="false"
     inkscape:zoom="1.5385816"
     inkscape:cx="-92.617773"
     inkscape:cy="64.669954"
     inkscape:window-width="2506"
     inkscape:window-height="1403"
     inkscape:window-x="1974"
     inkscape:window-y="0"
     inkscape:window-maximized="1"
     inkscape:current-layer="layer1" />
  <defs
     id="defs994" />
  <g
     inkscape:label="Layer 1"
     inkscape:groupmode="layer"
     id="layer1"
     transform="translate(-163.15008,-161.43738)">
    <path
       style="fill:#000000;stroke-width:0.264583"
       d="m 164.3596,199.29192 c -1.09149,-0.0905 -1.09957,-0.099 -1.19125,-1.25166 -0.0508,-0.63828 0.008,-1.55473 0.13098,-2.03656 0.26904,-1.05563 0.31426,-5.59578 0.0598,-6.00746 -0.0994,-0.1609 -0.0881,-0.44137 0.0251,-0.62327 0.11324,-0.1819 0.17224,-0.59128 0.13111,-0.90972 -0.0411,-0.31844 0.12507,-0.88399 0.36932,-1.25677 0.24426,-0.37278 0.33147,-0.67778 0.1938,-0.67778 -0.13767,0 -0.40164,-0.28278 -0.58661,-0.62839 -0.27229,-0.50879 -0.27185,-0.74798 0.002,-1.25677 0.45973,-0.85316 0.4726,-1.77642 0.0271,-1.94736 -0.22345,-0.0857 -0.29814,-0.3192 -0.19125,-0.59777 0.0965,-0.25138 0.22735,-2.36374 0.29084,-4.69412 0.0635,-2.33038 0.18249,-4.55314 0.26442,-4.93947 0.0819,-0.38633 0.0317,-0.77489 -0.1116,-0.86346 -0.16391,-0.1013 -0.17292,-0.46672 -0.0243,-0.98503 0.13683,-0.4771 0.13807,-1.00754 0.003,-1.26003 -0.14094,-0.26336 -0.12498,-0.62974 0.0403,-0.92507 0.1934,-0.3456 0.17693,-0.78213 -0.0562,-1.48847 -0.27445,-0.83161 -0.26196,-1.19868 0.0744,-2.18582 0.36533,-1.07219 0.36407,-1.22655 -0.0132,-1.60379 -0.3461,-0.3461 -0.36291,-0.53702 -0.0984,-1.11757 0.27759,-0.60924 0.4297,-0.67865 1.1714,-0.53452 0.8904,0.17302 0.94495,0.17567 2.78104,0.13465 0.62419,-0.0139 1.31788,0.12651 1.54152,0.31212 0.3264,0.27088 0.44726,0.27171 0.6126,0.004 0.11489,-0.1859 0.88913,-0.37497 1.75084,-0.42756 1.17466,-0.0717 1.70695,0.0202 2.22125,0.38351 0.48371,0.34167 0.84606,0.41418 1.272,0.25454 0.32758,-0.12277 0.76202,-0.15937 0.96542,-0.0813 0.2034,0.078 0.44842,0.0147 0.54449,-0.14071 0.0961,-0.15544 0.51161,-0.28262 0.92342,-0.28262 0.55069,0 0.73901,0.12247 0.71199,0.46302 -0.0412,0.51927 -0.0223,0.51866 2.60908,-0.0839 2.81465,-0.64457 12.28959,-0.27902 13.58937,0.52429 0.15967,0.0987 0.56067,0.0294 0.8911,-0.1539 0.35698,-0.19807 1.59081,-0.33724 3.04048,-0.34297 l 2.43969,-0.01 -0.16364,2.30709 c -0.11079,1.56193 -0.0663,2.42436 0.1377,2.67017 0.16573,0.1997 0.24416,0.42027 0.17427,0.49016 -0.12627,0.12627 -0.44979,5.25502 -0.52297,8.29091 -0.0211,0.87313 -0.0789,1.70656 -0.12864,1.85208 -0.10811,0.31653 -0.26145,1.59517 -0.30143,2.51355 -0.0159,0.3638 0.0949,1.12894 0.24603,1.70031 0.21762,0.82263 0.19053,1.20185 -0.13014,1.82197 -0.29855,0.57732 -0.3342,0.93008 -0.13569,1.34239 0.1481,0.30761 0.25925,0.73788 0.24701,0.95616 -0.0122,0.21828 0.0571,0.81716 0.1541,1.33084 0.13206,0.69942 0.0266,1.23097 -0.42003,2.11666 l -0.59638,1.18271 0.65195,0.56422 c 0.58299,0.50455 0.61784,0.63907 0.32951,1.27189 -0.21411,0.46992 -0.23808,0.86528 -0.0713,1.17681 0.17254,0.32241 0.13008,0.70237 -0.13577,1.21479 -0.34532,0.66562 -0.33939,0.81807 0.0553,1.42044 0.27076,0.41323 0.33464,0.71063 0.16479,0.76725 -0.1901,0.0634 -0.18208,0.34487 0.0255,0.8948 0.49442,1.30988 -0.12605,1.55334 -3.95887,1.55334 -2.31275,0 -3.26538,-0.0921 -3.34243,-0.32327 -0.0842,-0.2527 -0.33108,-0.25473 -1.13066,-0.009 -0.71605,0.21976 -1.12303,0.23083 -1.35668,0.0369 -0.23409,-0.19427 -0.6013,-0.18027 -1.22947,0.0469 -0.55573,0.20095 -1.28867,0.24998 -1.93105,0.12916 -0.56945,-0.10709 -3.41661,-0.20168 -6.32703,-0.2102 -3.93576,-0.0115 -5.43063,-0.10572 -5.83399,-0.36769 -0.45219,-0.29368 -0.93596,-0.29145 -2.91042,0.0134 -2.60931,0.40288 -6.26023,0.62417 -7.96495,0.48277 z m 2.78942,-0.65237 c 0.22421,0.0785 0.29551,0.012 0.18283,-0.17028 -0.10161,-0.1644 -0.0657,-0.29891 0.0798,-0.29891 0.14552,0 0.33817,0.11906 0.42811,0.26459 0.0899,0.14552 0.46873,0.26458 0.84176,0.26458 0.5551,0 0.62177,-0.068 0.36721,-0.37477 -0.24514,-0.29538 -0.22117,-0.39346 0.11315,-0.46302 0.38794,-0.0807 0.38746,-0.13348 -0.006,-0.61742 -0.23636,-0.29104 -0.34299,-0.36194 -0.23696,-0.15756 0.12675,0.24432 0.0882,0.30694 -0.11267,0.18283 -0.28732,-0.17757 -0.43138,0.1707 -0.3179,0.76848 0.0276,0.14552 -0.0884,0.12849 -0.25788,-0.0379 -0.23402,-0.22971 -0.19943,-0.46832 0.14382,-0.99219 0.24857,-0.37936 0.58112,-0.68974 0.73901,-0.68974 0.20233,0 0.20034,-0.0867 -0.007,-0.2938 -0.21535,-0.21535 -0.54627,-0.0338 -1.23923,0.67973 -0.55656,0.5731 -1.07285,0.89479 -1.25521,0.78209 -0.18643,-0.11521 -0.2391,-0.0771 -0.13228,0.0957 0.0976,0.15795 0.0565,0.36197 -0.0914,0.45337 -0.29758,0.18392 -0.35752,-0.38454 -0.10888,-1.0325 0.088,-0.22935 0.2666,-0.35112 0.39688,-0.27061 0.34904,0.21572 0.28813,-0.2569 -0.0806,-0.62568 -0.39972,-0.39971 -1.59805,-0.41278 -1.98914,-0.0217 -0.16269,0.16269 -0.24786,0.72823 -0.18928,1.25677 l 0.10653,0.96097 -0.2695,-1.05532 c -0.21937,-0.85903 -0.19477,-1.10995 0.13225,-1.34907 0.22096,-0.16157 0.31793,-0.37758 0.21548,-0.48003 -0.10244,-0.10244 0.0185,-0.1077 0.2687,-0.0117 0.30834,0.1183 0.45496,0.0438 0.45496,-0.23122 0,-0.22318 0.20836,-0.46023 0.46302,-0.52678 0.29283,-0.0765 0.20263,-0.13228 -0.24538,-0.15169 -0.95163,-0.0412 -1.80643,1.05989 -1.80109,2.32009 0.002,0.52608 0.10167,1.11039 0.22099,1.29846 0.29674,0.46774 1.64314,0.8104 2.2885,0.58242 0.29104,-0.10281 0.69457,-0.12905 0.89672,-0.0583 z m -2.20756,-0.53979 c -0.48919,-1.59326 -0.44607,-1.78148 0.40806,-1.78148 0.68708,0 0.79344,0.0784 0.62826,0.46302 -0.10937,0.25466 -0.20715,0.66843 -0.2173,0.91949 -0.022,0.54551 -0.67618,0.86416 -0.81902,0.39897 z m 24.32959,0.59977 c 0.50068,-0.21515 0.49642,-0.22839 -0.0793,-0.24599 -0.77948,-0.0238 -0.53811,-0.48785 0.81012,-1.55745 l 0.99541,-0.78969 -1.52458,-0.15322 c -1.53526,-0.15429 -2.90174,-0.0657 -3.17314,0.20568 -0.25141,0.25141 0.49754,0.95317 1.01727,0.95317 0.27199,0 0.64324,-0.23813 0.82499,-0.52917 0.18176,-0.29104 0.429,-0.52916 0.54943,-0.52916 0.12043,0 -0.0302,0.34997 -0.33483,0.77772 -0.32277,0.45328 -1.1305,1.00899 -1.93625,1.33211 -0.76035,0.30491 -1.07927,0.49453 -0.70871,0.42137 0.37056,-0.0731 1.0254,-0.028 1.45521,0.10037 0.99016,0.29568 1.44234,0.29875 2.10438,0.0143 z m 10.2706,-0.2429 c 0.56212,-0.56212 -0.19425,-1.19646 -1.83109,-1.53567 l -1.56035,-0.32336 1.65365,0.0998 c 1.74242,0.1052 2.12636,-0.19442 1.20723,-0.94207 -0.39092,-0.31799 -0.42484,-0.30557 -0.27289,0.0999 0.19185,0.5119 0.15711,0.53527 -0.44968,0.30242 -0.5889,-0.22598 -0.52229,-0.89773 0.089,-0.89773 0.90363,0 1.34456,-0.30785 1.34456,-0.93874 0,-0.33964 -0.0933,-0.6752 -0.20733,-0.74567 -0.11404,-0.0705 -0.20333,0.19039 -0.19844,0.57969 0.0116,0.92295 -1.13657,1.20229 -1.36418,0.3319 -0.0791,-0.30256 -0.3113,-0.5501 -0.51597,-0.5501 -0.29628,0 -0.27654,0.14828 0.0969,0.7276 0.41871,0.6496 0.34335,0.62124 -0.70298,-0.26458 -1.10218,-0.9331 -2.13506,-1.29494 -2.13506,-0.74796 0,0.51034 1.65081,1.87244 2.26931,1.87244 0.35261,0 0.6411,0.11906 0.6411,0.26458 0,0.14552 -0.42454,0.26459 -0.94343,0.26459 -1.72095,0 -2.68539,1.04577 -1.37167,1.48736 0.96428,0.32412 1.28664,0.34027 1.92772,0.0965 0.44458,-0.16903 0.64613,-0.12864 0.75344,0.15101 0.11957,0.31159 -0.25322,0.38955 -2.02801,0.42411 -1.22976,0.0239 -1.77218,0.0998 -1.24846,0.17466 l 0.92604,0.13232 -0.79375,0.16924 c -0.43657,0.0931 0.37788,0.14658 1.80988,0.11889 1.52497,-0.0295 2.72827,-0.17499 2.90447,-0.35119 z m -22.30914,-0.31713 c 0,-0.12854 -0.13891,-0.23372 -0.30868,-0.23372 -0.16978,0 -0.2406,-0.0681 -0.15738,-0.1513 0.0832,-0.0832 0.70253,0.0359 1.37626,0.26458 1.3189,0.44778 2.92676,0.57582 2.30834,0.18381 -0.19433,-0.12318 -0.35927,-0.32971 -0.36655,-0.45896 -0.007,-0.12925 -0.19829,-0.62308 -0.42447,-1.0974 -0.58693,-1.23079 -0.175,-2.33317 0.84463,-2.26041 0.46904,0.0335 0.69216,-0.0614 0.62202,-0.26458 -0.0602,-0.17423 -0.42381,-0.31219 -0.80811,-0.30659 -0.92457,0.0135 -0.5476,-0.2939 0.6181,-0.504 0.56569,-0.10196 0.78635,-0.077 0.56707,0.0642 -0.54382,0.35016 0.1115,0.64213 0.71559,0.31883 0.27492,-0.14713 0.58397,-0.18339 0.68677,-0.0806 0.10281,0.10281 0.30298,-0.0205 0.44481,-0.27389 0.14184,-0.25345 0.39485,-0.46081 0.56224,-0.46081 0.22211,0 0.21856,0.0858 -0.0131,0.3175 -0.50303,0.50302 -0.3845,0.70573 0.67035,1.14648 0.72218,0.30174 0.89067,0.47282 0.6265,0.63609 -0.55661,0.344 0.64397,0.64337 1.22458,0.30536 0.33272,-0.19371 0.35981,-0.27501 0.0935,-0.28072 -0.20615,-0.004 -0.29833,-0.0846 -0.20483,-0.17804 0.0935,-0.0935 0.34995,-0.0206 0.56989,0.16189 0.21995,0.18254 0.59829,0.25576 0.84076,0.16271 0.40338,-0.15479 0.40001,-0.19903 -0.0396,-0.5205 -0.60097,-0.43944 -0.35066,-1.22161 0.39095,-1.22161 0.33394,0 0.539,0.17534 0.54152,0.46302 0.003,0.3957 0.0413,0.40532 0.26053,0.0662 0.45418,-0.70279 0.29716,-1.18872 -0.39706,-1.22878 -0.3637,-0.021 -0.66127,0.0891 -0.66127,0.24456 0,0.15549 -0.27556,0.0238 -0.61237,-0.29258 -0.3368,-0.31641 -0.78328,-0.58365 -0.99218,-0.59388 -0.23114,-0.0113 -0.17267,-0.10761 0.14934,-0.24599 0.77985,-0.33511 0.87481,-0.31363 1.04971,0.23741 0.10611,0.33433 0.32687,0.45817 0.66098,0.3708 0.27591,-0.0721 0.44275,-0.28468 0.37076,-0.4723 -0.17342,-0.4519 -1.43103,-0.68712 -2.35403,-0.44027 -0.89016,0.23807 -1.11332,0.98538 -0.29078,0.97377 0.30985,-0.004 0.56336,0.11111 0.56336,0.25663 0,0.14553 -0.25899,0.26058 -0.57554,0.25569 -0.31655,-0.005 -0.51081,0.0958 -0.43169,0.22387 0.0791,0.12802 0.50532,0.17971 0.94712,0.11487 0.69249,-0.10163 0.7412,-0.0725 0.35324,0.21117 -0.56379,0.41225 -1.39067,0.21051 -1.85514,-0.45262 -0.31091,-0.44389 -0.61798,-0.49449 -2.46282,-0.40586 -2.29239,0.11014 -2.57276,0.20561 -3.0116,1.02559 -0.2115,0.3952 -0.2119,0.4966 -0.001,0.36653 0.37239,-0.23016 0.37968,0.18602 0.01,0.55597 -0.52356,0.52356 -0.3618,1.91744 0.30696,2.64506 0.38885,0.42307 0.48162,0.64498 0.23887,0.5714 -0.21828,-0.0662 -0.635,-0.55842 -0.92604,-1.09391 -0.29104,-0.53549 -0.67799,-0.97394 -0.85989,-0.97433 -0.54137,-0.001 -0.37707,0.65726 0.32968,1.32122 0.36323,0.34123 0.62155,0.6593 0.57404,0.70681 -0.16566,0.16566 -2.55736,-0.75739 -2.55736,-0.98698 0,-0.12727 -0.15225,-0.17299 -0.33832,-0.10158 -0.18608,0.0714 -0.57303,-0.058 -0.8599,-0.28749 -0.50006,-0.40009 -0.4957,-0.4047 0.10567,-0.11173 0.43561,0.21222 0.5723,0.21668 0.4474,0.0146 -0.0989,-0.16004 -0.0665,-0.29098 0.0721,-0.29098 0.46294,0 0.59068,-0.86494 0.19268,-1.30472 -1.06339,-1.17504 -1.20709,-2.18412 -1.20709,-8.47637 v -6.09391 h 0.80936 c 0.54088,0 0.74721,0.10057 0.622,0.30317 -0.12952,0.20956 0.009,0.25459 0.4474,0.14585 0.9603,-0.23799 5.65492,-0.30172 6.01107,-0.0816 0.17174,0.10614 0.31225,0.059 0.31225,-0.10479 0,-0.36654 1.33232,-0.23475 1.35723,0.13425 0.0307,0.45461 0.50187,1.19063 0.7622,1.19063 0.15451,0 0.15346,-0.25056 -0.003,-0.66146 l -0.25149,-0.66146 2.44085,-1.7e-4 2.44084,-1.7e-4 -0.0663,5.35798 c -0.0851,6.88191 -0.20531,7.94663 -1.00388,8.89569 l -0.63455,0.75411 1.61878,0.1692 c 0.89032,0.0931 2.68911,0.16919 3.99729,0.16919 h 2.37852 l -0.69781,-0.6978 c -1.31402,-1.31403 -1.34123,-1.72772 -1.00629,-15.3021 0.30099,-12.19865 0.49719,-14.53749 1.14293,-13.62447 0.21903,0.3097 0.24119,0.28642 0.1099,-0.11549 -0.27404,-0.83893 0.33609,-2.21165 1.1216,-2.52343 l 0.71272,-0.28289 -0.7196,0.0953 c -0.39577,0.0524 -0.65664,-0.007 -0.57969,-0.13108 0.0769,-0.1245 0.35016,-0.22636 0.60715,-0.22636 0.46616,0 0.87049,0.33645 1.90778,1.5875 0.46025,0.55509 0.5235,0.57636 0.39336,0.13229 l -0.15509,-0.52917 0.41953,0.52917 c 0.49603,0.62566 0.38427,2.2399 -0.2999,4.33164 -0.52882,1.61677 -0.77969,1.76065 -0.54845,0.31454 0.0917,-0.5733 0.0556,-1.11102 -0.0802,-1.19494 -0.41723,-0.25786 -0.50996,0.20481 -0.28625,1.42819 0.18136,0.99178 0.10895,1.38503 -0.47381,2.57326 -0.48089,0.98052 -0.75904,1.3043 -0.92434,1.07599 -0.15945,-0.22023 -0.18585,-0.17033 -0.0811,0.15319 0.0855,0.26388 -0.0224,0.82351 -0.23963,1.24363 -0.58658,1.13433 -0.48467,1.23963 0.38934,0.40226 0.43139,-0.41329 0.74065,-0.82252 0.68724,-0.90939 -0.0534,-0.0869 0.27825,-0.18107 0.73701,-0.20932 l 0.83412,-0.0514 -1.00108,0.52528 c -0.63012,0.33063 -0.93304,0.64379 -0.81747,0.84512 0.10098,0.17592 0.0862,0.23158 -0.0329,0.12371 -0.11908,-0.10788 -0.37629,-0.0635 -0.57158,0.0985 -0.64018,0.5313 -0.3721,0.74067 0.48626,0.37976 0.61744,-0.25962 1.04683,-0.28211 1.61357,-0.0846 0.67143,0.23406 0.75244,0.36827 0.6205,1.02799 -0.11611,0.58055 -0.053,0.75877 0.26853,0.75877 0.33199,0 0.38526,-0.18066 0.25355,-0.85989 -0.0917,-0.47295 -0.18459,-1.01665 -0.20642,-1.20824 -0.0256,-0.22443 -0.2518,-0.29511 -0.63601,-0.19868 -0.70028,0.17576 -1.49102,-0.0697 -1.28715,-0.39955 0.0781,-0.12632 0.61316,-0.35656 1.1891,-0.51165 0.76808,-0.20682 1.04716,-0.42028 1.04716,-0.80094 0,-0.28543 -0.14883,-0.52079 -0.33073,-0.52302 -0.23242,-0.003 -0.24302,-0.0618 -0.0357,-0.19843 0.16229,-0.10692 0.38133,-0.47063 0.48675,-0.80827 0.15245,-0.48826 0.0785,-0.64346 -0.36122,-0.75846 -0.66472,-0.17383 -0.71025,-0.49768 -0.11667,-0.82986 0.33734,-0.18878 0.40302,-0.49165 0.28976,-1.33606 -0.0839,-0.62558 -0.0375,-1.09195 0.10856,-1.09195 0.14027,0 0.17639,-0.12723 0.0803,-0.28273 -0.23592,-0.38172 -0.22693,-3.96562 0.0114,-4.54804 0.16059,-0.39242 0.0513,-0.45993 -0.69867,-0.43172 -0.48896,0.0184 -1.33043,-0.0549 -1.86993,-0.16295 -0.74402,-0.14896 -1.1913,-0.0756 -1.85209,0.30353 -0.8555,0.49092 -2.06179,0.54512 -2.06179,0.0926 0,-0.38725 -2.198,-0.58521 -3.01964,-0.27197 -0.53221,0.2029 -0.85561,0.20891 -1.04511,0.0194 -0.15093,-0.15093 -0.4673,-0.27442 -0.70304,-0.27442 -0.60752,0 -2.64214,1.80525 -2.6325,2.33572 0.007,0.3829 0.0467,0.37586 0.2955,-0.0524 0.2321,-0.39949 0.33167,-0.42496 0.51707,-0.13229 0.18124,0.28611 0.23047,0.28951 0.23367,0.0161 0.002,-0.19049 0.12311,-0.27276 0.26864,-0.18282 0.14552,0.0899 0.26533,0.36485 0.26625,0.61093 8e-4,0.24607 0.35919,0.65084 0.79614,0.89949 0.43696,0.24865 0.91246,0.76241 1.05666,1.1417 0.14421,0.37929 0.2622,2.76546 0.2622,5.3026 v 4.61299 h -4.35001 c -2.39251,0 -4.41529,-0.10562 -4.49507,-0.23471 -0.0798,-0.1291 0.0575,-0.21839 0.30497,-0.19844 0.73646,0.0594 0.69107,-0.76452 -0.061,-1.10718 -0.37632,-0.17147 -0.85721,-0.31176 -1.06865,-0.31176 -0.54761,0 -0.4868,1.23145 0.0786,1.5914 0.35467,0.2258 0.0296,0.26027 -1.38906,0.14732 -1.01865,-0.0811 -2.29857,-0.1483 -2.84427,-0.14934 l -0.99219,-0.002 v -4.74527 c 0,-2.6099 0.1098,-5.02092 0.24401,-5.35781 0.1342,-0.3369 0.54576,-0.9292 0.91458,-1.31624 0.55441,-0.58179 0.60006,-0.73075 0.26352,-0.85989 -0.7907,-0.30342 -1.48675,-0.17713 -1.32643,0.24067 0.102,0.26582 -0.0115,0.39688 -0.3438,0.39688 -0.36627,0 -0.45978,-0.13885 -0.35734,-0.53058 0.0763,-0.29182 0.007,-0.68972 -0.15477,-0.88424 -0.16143,-0.19451 -0.21517,-0.43201 -0.11942,-0.52776 0.35125,-0.35125 -0.85634,-0.14501 -1.35373,0.2312 -0.66848,0.50561 -1.0992,0.50026 -0.67704,-0.008 0.27647,-0.33312 0.23209,-0.39687 -0.27628,-0.39687 -0.33311,0 -0.5199,-0.0858 -0.41508,-0.19058 0.10482,-0.10482 0.60091,-0.15523 1.10243,-0.11202 0.99936,0.0861 1.25262,-0.34032 0.34334,-0.5781 -0.76897,-0.20109 -2.10782,0.0881 -1.9076,0.41209 0.0982,0.15897 -0.0583,0.19107 -0.40117,0.0823 -0.33361,-0.10588 -0.5623,-0.0636 -0.5623,0.10395 0,0.15532 0.12822,0.28241 0.28493,0.28241 0.15672,0 -0.0969,0.3818 -0.56351,0.84845 -0.58143,0.58143 -0.73772,0.88535 -0.4966,0.96573 0.19351,0.0645 0.39605,-0.0153 0.45009,-0.17745 0.0705,-0.21167 0.24659,-0.20422 0.62465,0.0265 0.44186,0.2696 0.58757,0.23869 0.90718,-0.19241 0.34615,-0.46691 0.38076,-0.47116 0.38076,-0.0467 0,0.65893 0.86098,0.44056 1.18722,-0.30111 0.38292,-0.87055 0.85904,-0.73855 0.7213,0.19999 l -0.1165,0.79375 h -2.07461 -2.07461 l 0.62824,0.62823 c 0.37776,0.37777 0.69502,1.08981 0.79574,1.78594 0.26215,1.81191 -0.2832,25.13415 -0.60555,25.89624 -0.27689,0.65465 -0.27995,0.65271 -0.29655,-0.18813 -0.017,-0.86242 -0.85374,-1.92853 -1.51356,-1.92853 -0.20946,0 -0.27529,-0.17667 -0.17254,-0.46302 0.0914,-0.25467 0.0661,-0.37204 -0.0562,-0.26084 -0.12226,0.11121 -0.23078,0.78758 -0.24115,1.50305 -0.0166,1.1465 0.0518,1.31437 0.57701,1.41477 0.6867,0.13127 0.77257,-0.13044 0.199,-0.60646 -0.45648,-0.37885 -0.53139,-1.05834 -0.11668,-1.05834 0.15411,0 0.2117,0.11084 0.12798,0.2463 -0.0837,0.13547 -0.0304,0.32161 0.11856,0.41366 0.14893,0.092 0.456,0.52554 0.68239,0.96333 0.31923,0.6173 0.34177,0.88014 0.10043,1.17093 -0.17115,0.20623 -0.41675,0.30971 -0.54579,0.22996 -0.12903,-0.0797 -0.2346,0.0268 -0.2346,0.23669 0,0.31985 0.55009,0.35937 3.39549,0.24397 2.89281,-0.11733 3.39548,-0.0794 3.39548,0.25638 0,0.44111 -1.38815,0.60143 -1.64261,0.1897 -0.19309,-0.31241 -0.65044,-0.32245 -0.65044,-0.0143 0,0.12787 0.35974,0.3815 0.79942,0.56362 0.82051,0.33986 1.49857,1.01913 0.71853,0.7198 -0.23151,-0.0888 -0.56328,0.01 -0.73726,0.21962 -0.26018,0.31351 -0.20492,0.38179 0.31139,0.38476 1.01839,0.006 1.81833,0.29795 1.81833,0.66393 0,0.21099 0.202,0.28842 0.52917,0.20287 0.29104,-0.0761 0.52917,-0.24356 0.52917,-0.37211 z m 11.90625,-3.02499 c 0,-0.08 0.20836,-0.52647 0.46302,-0.99218 0.39782,-0.72753 0.47514,-1.76305 0.54912,-7.35416 l 0.0861,-6.5074 -2.44185,-0.17333 c -1.34302,-0.0953 -4.86434,-0.17333 -7.82517,-0.17333 h -5.38331 l -0.0163,0.8599 c -0.17217,9.10487 -0.0874,12.27734 0.35102,13.13752 0.25244,0.4953 0.45899,0.94179 0.45899,0.99219 0,0.0504 -1.24408,0.0916 -2.76462,0.0916 h -2.76463 l 0.41562,-0.99218 c 0.46018,-1.09855 0.79885,-9.25007 0.86018,-20.70365 0.0274,-5.11081 -0.0385,-6.35262 -0.37017,-6.97556 -0.2219,-0.41681 -0.40346,-0.80526 -0.40346,-0.86322 0,-0.14559 4.58281,-0.0723 4.82936,0.0772 0.10954,0.0664 0.0669,0.36785 -0.0947,0.66981 -0.17096,0.31946 -0.35265,2.72867 -0.43451,5.76174 l -0.14069,5.21271 4.60099,0.17452 c 2.53054,0.096 6.05723,0.17489 7.83709,0.17533 3.13982,8e-4 3.24013,-0.0169 3.37131,-0.5945 0.0744,-0.32742 0.10639,-2.62482 0.0712,-5.10534 -0.0536,-3.77705 -0.13926,-4.62479 -0.52703,-5.21621 -0.25466,-0.3884 -0.46302,-0.76991 -0.46302,-0.84779 0,-0.25958 4.99327,-0.14578 5.156,0.11752 0.0881,0.14251 0.0163,0.52785 -0.15946,0.85629 -0.33808,0.6317 -0.41313,3.1861 -0.54316,18.48646 -0.0666,7.83283 -0.031,8.68614 0.38861,9.32656 l 0.46188,0.70491 h -2.78423 c -1.53132,0 -2.78422,-0.0654 -2.78422,-0.14544 z m 8.20208,-21.67293 c 0,-0.20762 0.94464,-1.99978 1.33001,-2.5233 0.23238,-0.31568 0.25619,-0.26973 0.11641,0.22456 -0.15293,0.54076 -0.10366,0.59855 0.37954,0.44519 0.32725,-0.10387 0.55529,-0.0603 0.55529,0.10617 0,0.15533 -0.22754,0.28241 -0.50565,0.28241 -0.2781,0 -0.81388,0.36633 -1.19062,0.81405 -0.37674,0.44773 -0.68498,0.74064 -0.68498,0.65092 z m 1.07922,-0.0435 c -0.0115,-0.16408 0.15771,-0.44655 0.37599,-0.62771 0.3339,-0.27711 0.39623,-0.22978 0.39282,0.29834 -0.003,0.45518 -0.0669,0.52857 -0.23255,0.26704 -0.19292,-0.3045 -0.25085,-0.3045 -0.37194,0 -0.0789,0.19836 -0.15283,0.22642 -0.16432,0.0623 z m 0.79551,-3.67042 c 0.0275,-0.50118 0.46851,-1.3451 0.48387,-0.92604 0.008,0.21828 -0.10087,0.57547 -0.24193,0.79375 -0.14107,0.21828 -0.24994,0.27782 -0.24194,0.13229 z m -10.99569,-4.64179 c 0.0939,-0.1519 0.0356,-0.43896 -0.12953,-0.63791 -0.22014,-0.26526 -0.22153,-0.41035 -0.005,-0.54407 0.16227,-0.10029 0.36463,-0.11274 0.4497,-0.0277 0.0851,0.0851 0.31149,-0.0518 0.50315,-0.30423 0.19167,-0.2524 0.35226,-0.32466 0.35689,-0.16058 0.005,0.16409 -0.17018,0.44656 -0.38846,0.62771 -0.21828,0.18116 -0.39687,0.43386 -0.39687,0.56157 0,0.38262 0.79894,0.26193 0.9548,-0.14423 0.0795,-0.20703 0.30777,-0.4391 0.50739,-0.5157 0.23578,-0.0905 0.3114,-0.005 0.21582,0.24413 -0.0809,0.21087 -0.26618,0.3834 -0.4117,0.3834 -0.14552,0 -0.19605,0.17859 -0.11229,0.39687 0.11764,0.30656 -0.0601,0.39688 -0.78105,0.39688 -0.58098,0 -0.86892,-0.10427 -0.76267,-0.27617 z m 2.45593,-0.83562 c -0.0633,-0.66353 0.0245,-1.03984 0.26405,-1.13176 0.51434,-0.19737 1.63848,-0.16999 1.63848,0.0399 0,0.40592 -0.87126,1.09897 -1.21549,0.96687 -0.22452,-0.0861 -0.37201,0.0258 -0.37201,0.28243 0,0.47763 0.92675,0.58756 1.20177,0.14256 0.0961,-0.15544 0.33513,-0.22105 0.53124,-0.14579 0.20128,0.0772 0.42785,-0.0877 0.52023,-0.37884 0.10361,-0.32644 0.4017,-0.51566 0.81234,-0.51566 0.55979,0 0.62592,0.0906 0.48265,0.66145 -0.20665,0.82335 0.24072,0.87103 0.62069,0.0661 0.27053,-0.57307 0.27861,-0.56811 0.21639,0.13272 -0.0814,0.91679 -0.24757,1.08106 -0.88798,0.8778 -0.38492,-0.12217 -0.47869,-0.33287 -0.37937,-0.85244 0.0976,-0.51032 0.036,-0.65695 -0.23624,-0.56271 -0.2025,0.0701 -0.35873,0.3833 -0.34717,0.69599 0.0242,0.65542 0.0911,0.62564 -1.52019,0.67645 l -1.23459,0.0389 z m -3.38914,-0.31102 c 0,-0.0549 0.20836,-0.2633 0.46302,-0.46302 0.41965,-0.32911 0.42901,-0.31975 0.0999,0.0999 -0.34564,0.44073 -0.56292,0.58089 -0.56292,0.36313 z m 1.25236,-0.99127 c 0.17948,-0.18082 0.39297,-0.26212 0.47443,-0.18065 0.0815,0.0815 -0.0654,0.2294 -0.32631,0.32876 -0.37709,0.14359 -0.40748,0.1132 -0.14812,-0.14811 z m -4.95652,35.51177 c 0,-0.1319 0.26789,-0.18459 0.59531,-0.11709 0.47206,0.0973 0.43098,0.0287 -0.19844,-0.33147 -0.43656,-0.24981 -0.93879,-0.64361 -1.11606,-0.8751 -0.39267,-0.51278 -0.44238,-2.31025 -0.0703,-2.54024 0.33801,-0.2089 0.0791,-0.65879 -0.37915,-0.65879 -0.58155,0 -0.37541,3.01899 0.25456,3.72816 0.51642,0.58134 0.51635,0.58175 -0.0503,0.28467 -0.75104,-0.39372 -1.20696,-1.71798 -0.88396,-2.56752 0.20498,-0.53914 0.1675,-0.65156 -0.21719,-0.65156 -0.31279,0 -0.48404,0.23111 -0.52337,0.7063 -0.0845,1.02116 -0.32154,1.11813 -0.32154,0.13155 0,-0.56837 -0.12765,-0.83785 -0.39688,-0.83785 -0.61623,0 -0.50056,1.6489 0.176,2.50901 0.81905,1.04126 3.1313,1.94209 3.1313,1.21993 z m 8.99583,-0.13425 c 0.6817,-0.20957 1.15719,-0.50608 1.1124,-0.69368 -0.043,-0.18021 0.18609,-0.609 0.50914,-0.95287 0.32305,-0.34387 0.45747,-0.62522 0.29871,-0.62522 -0.15876,0 -0.33874,0.14882 -0.39997,0.33072 -0.0864,0.25685 -0.21101,0.24843 -0.55761,-0.0377 -0.57779,-0.47699 -0.8474,-0.21555 -0.32078,0.31107 0.36029,0.36029 0.33145,0.44907 -0.27494,0.84639 -0.80203,0.52551 -1.21878,0.3048 -0.47993,-0.25418 0.28883,-0.21851 0.36648,-0.38937 0.17912,-0.39414 -0.1819,-0.005 -0.33072,-0.20159 -0.33072,-0.43768 0,-0.36992 -0.0619,-0.37906 -0.44767,-0.0661 -0.30418,0.24674 -0.38398,0.25712 -0.24897,0.0324 0.11361,-0.18909 0.0666,-0.33072 -0.10981,-0.33072 -0.18607,0 -0.23699,0.18375 -0.1283,0.46302 0.31578,0.81139 0.28441,0.95835 -0.22834,1.06945 -0.37186,0.0806 -0.45956,-7.9e-4 -0.33903,-0.31502 0.2163,-0.56367 -0.0788,-0.52172 -0.85047,0.12088 -0.71685,0.59698 -0.7142,0.60409 0.36821,0.98581 1.0329,0.36425 0.88236,0.36775 2.24896,-0.0524 z m -19.44688,-0.14293 c 0.72761,-0.11333 1.04587,-0.22197 0.70726,-0.24141 -0.33862,-0.0194 -0.97286,-0.39254 -1.40942,-0.8291 -0.43656,-0.43656 -0.84412,-0.79375 -0.90569,-0.79375 -0.2881,0 -0.0651,0.93613 0.32595,1.36823 0.24083,0.26612 0.30847,0.48385 0.1503,0.48385 -0.15816,0 -0.53395,-0.346 -0.83507,-0.76889 -0.41183,-0.57837 -0.69143,-0.73126 -1.12833,-0.61701 -0.55448,0.145 -0.55746,0.16103 -0.0658,0.35342 0.28325,0.11085 0.38006,0.20991 0.21513,0.22013 -0.16493,0.0102 -0.36214,0.25673 -0.43825,0.54777 -0.12262,0.4689 -0.0131,0.52653 0.96133,0.50599 0.60484,-0.0128 1.69502,-0.11591 2.42262,-0.22923 z m 12.2827,-1.00437 c -0.51975,-1.5807 -0.58354,-1.68155 -0.96984,-1.53331 -0.25884,0.0993 -0.34375,0.0256 -0.25049,-0.21738 0.1426,-0.37162 -0.26887,-0.96128 -0.67079,-0.96128 -0.43881,0 -0.72667,1.30812 -0.45124,2.05052 0.34658,0.93413 0.95616,1.38906 1.86131,1.38906 0.66739,0 0.70272,-0.0535 0.48105,-0.72761 z m -1.96057,-0.85442 c -0.15896,-0.25722 0.28511,-1.32839 0.55071,-1.32839 0.0762,0 0.0665,0.1166 -0.0215,0.25912 -0.0881,0.14251 -0.0314,0.4997 0.12599,0.79375 0.22703,0.42422 0.20547,0.53463 -0.10445,0.53463 -0.21481,0 -0.46263,-0.1166 -0.55071,-0.25911 z m 3.07173,0.76168 c -0.63715,-0.5936 -0.9919,-0.5224 -0.73485,0.14748 0.0862,0.22456 0.42099,0.40829 0.74404,0.40829 h 0.58736 z m -12.74967,-0.0849 c 0.25609,-0.30857 0.21442,-0.35051 -0.23219,-0.23372 -0.29936,0.0783 -0.54429,0.24751 -0.54429,0.37606 0,0.35687 0.42715,0.27857 0.77648,-0.14234 z m -6.41657,-0.4673 c -0.0845,-0.21106 -0.14716,-0.14837 -0.15985,0.15986 -0.0115,0.27891 0.051,0.43518 0.13896,0.34726 0.0879,-0.0879 0.0973,-0.31612 0.0209,-0.50712 z m 10.22895,-0.16038 c -0.084,-0.32107 -0.31737,-0.58376 -0.51867,-0.58376 -0.48373,0 -0.462,0.24916 0.0733,0.84069 0.5306,0.5863 0.64812,0.5185 0.44534,-0.25693 z m -4.85344,-0.0546 c 0,-0.2953 -0.17639,-0.52917 -0.39912,-0.52917 -0.33288,0 -0.34427,0.0878 -0.0686,0.52917 0.18175,0.29104 0.36136,0.52917 0.39911,0.52917 0.0378,0 0.0686,-0.23813 0.0686,-0.52917 z m -1.85208,-0.14444 0.66145,-0.39027 -0.90566,0.0689 c -0.49812,0.0379 -0.95452,0.21774 -1.01424,0.39964 -0.14451,0.44022 0.44143,0.40377 1.25845,-0.0783 z m -2.84427,-0.29537 c -0.18191,-0.0734 -0.47956,-0.0734 -0.66146,0 -0.1819,0.0734 -0.0331,0.13345 0.33073,0.13345 0.3638,0 0.51263,-0.06 0.33073,-0.13345 z m -1.38907,-0.61852 c 0,-0.14553 -0.11906,-0.26459 -0.26458,-0.26459 -0.14552,0 -0.26458,0.11906 -0.26458,0.26459 0,0.14552 0.11906,0.26458 0.26458,0.26458 0.14552,0 0.26458,-0.11906 0.26458,-0.26458 z m 1.81122,-0.37162 c 0.168,-0.10383 0.30545,-0.43339 0.30545,-0.73236 0,-0.45348 -0.13157,-0.52427 -0.79375,-0.42709 -0.76819,0.11275 -0.79375,0.0827 -0.79375,-0.93363 0,-0.57757 0.22593,-1.83687 0.50206,-2.79845 0.27613,-0.96157 0.58661,-2.1055 0.68996,-2.54206 0.18097,-0.76447 0.19629,-0.77179 0.41546,-0.19844 0.12515,0.32742 0.42843,0.59531 0.67396,0.59531 0.41552,0 0.41615,-0.0334 0.009,-0.48329 -0.26369,-0.29136 -0.55477,-1.36833 -0.73299,-2.71197 -0.16259,-1.22578 -0.3373,-2.27419 -0.38825,-2.3298 -0.0509,-0.0556 -0.0779,0.90962 -0.0598,2.14494 0.0268,1.83257 -0.0767,2.47219 -0.56191,3.47454 -0.32709,0.67567 -0.71773,1.2285 -0.86808,1.2285 -0.16415,0 -0.14276,-0.15739 0.0535,-0.39389 0.26123,-0.31476 0.24692,-0.59383 -0.0712,-1.38907 -0.73018,-1.82522 -1.51345,-6.11813 -1.54451,-8.46503 -0.0169,-1.27584 -0.0851,-2.11136 -0.15169,-1.8567 -0.0666,0.25466 -0.29086,0.46302 -0.49847,0.46302 -0.29299,0 -0.37748,0.43931 -0.37748,1.96274 0,1.0795 -0.0686,2.14159 -0.15252,2.3602 -0.10349,0.2697 0.0387,0.42549 0.4423,0.48466 0.78773,0.11548 0.97103,0.74525 0.27024,0.92851 -0.30474,0.0797 -0.48183,0.26177 -0.39354,0.40462 0.0883,0.14285 0.0116,0.538 -0.17043,0.87811 -0.43752,0.81752 -0.15096,1.55006 0.53607,1.37039 0.28913,-0.0756 0.59357,-0.0276 0.67653,0.10659 0.083,0.13424 0.2819,0.16306 0.4421,0.0641 0.18919,-0.11693 0.23021,-0.0209 0.11704,0.27401 -0.0958,0.24971 -0.0696,0.38935 0.0583,0.31031 0.12789,-0.079 0.3128,0.28412 0.4109,0.80704 0.20813,1.10941 -0.0128,1.54945 -0.26784,0.5334 -0.14886,-0.59308 -0.30001,-0.68133 -1.07319,-0.62653 -0.89517,0.0634 -0.89969,0.0704 -0.85599,1.32055 0.036,1.02839 0.13247,1.25677 0.53114,1.25677 0.26796,0 0.48721,0.1318 0.48721,0.29289 0,0.16109 0.18933,0.22023 0.42075,0.13143 0.74479,-0.2858 0.92663,0.12256 0.36979,0.83047 -0.35159,0.44697 -0.44247,0.74995 -0.25898,0.86335 0.19776,0.12223 0.20036,0.39127 0.009,0.8955 -0.15623,0.41091 -0.16723,0.65475 -0.0256,0.56721 0.13666,-0.0845 0.44212,0.25455 0.67881,0.75334 0.42735,0.90057 1.10196,1.10422 1.94069,0.58586 z m -1.77782,-2.5388 c 0.0466,-0.94589 -5e-5,-1.85513 -0.1037,-2.02054 -0.10365,-0.16541 -0.0137,-0.44578 0.19989,-0.62305 0.33805,-0.28056 0.36812,-0.036 0.23221,1.88825 -0.18518,2.62182 -0.45045,3.23195 -0.3284,0.75534 z m -1.56798,-2.96333 c -0.43675,-0.43676 -0.39863,-1.18225 0.0696,-1.36195 0.42955,-0.16483 1.54798,1.06645 1.31343,1.44596 -0.20774,0.33613 -1.01177,0.28729 -1.38307,-0.084 z m 0.50371,-0.81921 c -0.33959,-0.33959 -0.68396,-0.0771 -0.43255,0.32967 0.0974,0.15757 0.29828,0.21159 0.44643,0.12003 0.18071,-0.11169 0.17614,-0.25968 -0.0139,-0.4497 z m 11.39508,5.30966 c -0.14516,-0.14516 -0.39337,-0.18393 -0.55157,-0.0862 -0.43586,0.26938 -0.34453,0.8818 0.17538,1.17604 0.36989,0.20933 0.48083,0.15262 0.55157,-0.28196 0.0487,-0.29919 -0.0302,-0.66276 -0.17538,-0.80792 z m 1.35639,0.8628 c -0.0749,-0.28628 -0.2808,-0.64058 -0.45763,-0.78734 -0.24337,-0.20197 -0.29343,-0.0754 -0.20596,0.5205 0.0635,0.43303 0.26949,0.78734 0.45763,0.78734 0.20991,0 0.28948,-0.2011 0.20596,-0.5205 z m 10.06767,-0.6786 c -0.082,-0.21362 -0.25537,-0.3884 -0.38533,-0.3884 -0.27148,0 -0.31923,0.62259 -0.0671,0.87475 0.28225,0.28224 0.61151,-0.0717 0.45241,-0.48635 z m 10.62319,0.40535 c 0.0899,-0.14552 0.0821,-0.39636 -0.0175,-0.55742 -0.17783,-0.28773 -0.63035,0.15319 -0.63995,0.62356 -0.006,0.29002 0.46667,0.24247 0.65741,-0.0661 z m -33.65544,-1.06701 c 0.0749,-0.28627 0.0282,-0.52049 -0.1037,-0.52049 -0.1319,0 -0.23982,0.19843 -0.23982,0.44097 0,0.24253 -0.0779,0.36302 -0.17321,0.26775 -0.0953,-0.0953 -0.15087,-0.85723 -0.12355,-1.69326 0.0363,-1.11122 -0.0291,-1.44127 -0.2432,-1.22717 -0.34194,0.34195 -0.45665,2.99233 -0.15092,3.48702 0.26144,0.42302 0.83603,0.004 1.0344,-0.75482 z m 3.80597,0.48823 c -0.0845,-0.21107 -0.14715,-0.14837 -0.15985,0.15985 -0.0115,0.27892 0.0511,0.43519 0.13897,0.34727 0.0879,-0.0879 0.0973,-0.31613 0.0209,-0.50712 z m 9.28137,-0.46076 c -0.20979,-0.29953 -0.46006,-0.46598 -0.55615,-0.36989 -0.0961,0.0961 -0.17471,-0.011 -0.17471,-0.23796 0,-0.22697 -0.18833,-0.48494 -0.41851,-0.57326 -0.74271,-0.28501 -1.43357,-0.17114 -1.43357,0.23627 0,0.21828 0.12609,0.39688 0.2802,0.39688 0.15411,0 0.22133,0.0952 0.14938,0.21166 -0.0719,0.11642 0.28992,0.21167 0.80415,0.21167 0.62036,0 1.0234,0.15803 1.19779,0.46963 0.14455,0.2583 0.32358,0.40888 0.39784,0.33462 0.0743,-0.0743 -0.0366,-0.3801 -0.24642,-0.67962 z m -2.68877,-0.17755 c -0.0942,-0.24538 -0.23074,-0.38662 -0.3035,-0.31386 -0.0728,0.0728 -0.0553,0.33306 0.0389,0.57845 0.0942,0.24538 0.23074,0.38662 0.3035,0.31386 0.0728,-0.0728 0.0553,-0.33306 -0.0389,-0.57845 z m 22.16895,0.20663 c 0.0737,-0.11919 -0.21697,-0.16521 -0.64584,-0.10227 -0.42888,0.063 -0.77978,0.16047 -0.77978,0.21671 0,0.20161 1.29452,0.0977 1.42562,-0.11444 z m 1.74938,-1.54678 c 0,-0.6286 -0.0422,-0.64154 -1.73173,-0.5309 -1.72846,0.11318 -2.63214,0.41432 -1.42122,0.47361 0.56144,0.0275 0.54262,0.0541 -0.15434,0.21814 -0.9877,0.23249 -1.32712,-0.0292 -0.95056,-0.73281 0.47663,-0.89058 0.32702,-1.20629 -0.25501,-0.53814 l -0.5441,0.62463 0.30521,-0.62593 c 0.24606,-0.5046 0.23613,-0.603 -0.0512,-0.50768 -0.21235,0.0704 -0.37694,0.57205 -0.40717,1.24086 -0.0433,0.95876 0.006,1.07567 0.33678,0.80098 0.30999,-0.25726 0.36853,-0.24795 0.29255,0.0465 -0.0522,0.20249 -0.0405,0.26538 0.026,0.13978 0.0665,-0.12561 0.22379,-0.0661 0.34946,0.13229 0.16733,0.26411 0.22959,0.27213 0.23256,0.0299 0.002,-0.1819 0.30544,-0.33073 0.67381,-0.33073 0.36837,0 0.7383,-0.17859 0.82206,-0.39688 0.0838,-0.21828 0.25478,-0.39687 0.38004,-0.39687 0.12532,0 0.1283,0.26775 0.007,0.59531 -0.16634,0.44782 -0.39367,0.57423 -0.91752,0.51023 -0.38301,-0.0468 -0.69639,0.0425 -0.69639,0.19844 0,0.62618 1.2974,0.26876 1.85209,-0.51023 0.31085,-0.43656 0.76545,-0.7862 1.0102,-0.77698 0.31947,0.012 0.27706,0.0843 -0.15031,0.25606 -0.32742,0.13161 -0.59531,0.36921 -0.59531,0.52801 0,0.1588 0.10796,0.222 0.23991,0.14045 0.13195,-0.0815 0.17385,0.10431 0.0931,0.41302 -0.14359,0.54907 -0.13152,0.55129 0.55384,0.10223 0.44028,-0.28849 0.70062,-0.69847 0.70062,-1.10336 z m -20.68607,-0.17515 c 0.0747,-0.63099 -0.004,-0.7072 -0.72761,-0.7072 -0.44622,0 -0.81132,0.11907 -0.81132,0.26459 0,0.14552 0.17859,0.26458 0.39687,0.26458 0.22578,0 0.39688,0.23763 0.39688,0.55121 0,0.79914 0.64461,0.47632 0.74518,-0.37318 z m 2.56211,0.60122 c -0.37153,-0.16983 -0.008,-0.2245 1.22052,-0.1835 1.60774,0.0537 2.61687,-0.26526 2.61555,-0.82658 -2.2e-4,-0.0913 -1.36944,-0.2003 -3.04271,-0.24217 l -3.04232,-0.0761 v 0.65547 c 0,0.56258 0.1406,0.67016 0.99219,0.75924 1.68325,0.17608 1.81156,0.16726 1.25677,-0.0863 z m -4.87589,-0.77925 c 0.28065,0 0.51027,-0.11906 0.51027,-0.26458 0,-0.14552 -0.47625,-0.26459 -1.05834,-0.26459 -0.84987,0 -1.05833,0.0956 -1.05833,0.48507 0,0.70411 0.27227,0.86796 0.71185,0.42837 0.21136,-0.21135 0.6139,-0.38427 0.89455,-0.38427 z m 12.41652,0.26458 c 0,-0.29104 -0.10792,-0.52916 -0.23982,-0.52916 -0.13189,0 -0.17754,0.23812 -0.10143,0.52916 0.0761,0.29104 0.18403,0.52917 0.23981,0.52917 0.0558,0 0.10144,-0.23813 0.10144,-0.52917 z m -23.37104,-0.96964 c -0.27053,-0.27054 -0.70605,0.21031 -0.70605,0.77954 v 0.57243 l 0.42387,-0.60515 c 0.23312,-0.33283 0.3601,-0.6689 0.28218,-0.74682 z m 4.24841,0.63891 c -0.009,-0.32742 0.0175,-0.71437 0.0593,-0.85989 0.17415,-0.6065 -0.003,-1.47662 -0.26677,-1.31335 -0.1616,0.0999 -0.21077,0.52619 -0.11624,1.00781 0.12251,0.62415 0.0941,0.73459 -0.11275,0.43783 -0.38336,-0.5501 -0.3542,-1.77994 0.0461,-1.94144 0.20452,-0.0825 0.16084,-0.14142 -0.11447,-0.15434 -0.24485,-0.0115 -0.52576,0.23297 -0.62423,0.54324 -0.14065,0.44315 -0.22872,0.4857 -0.41066,0.19844 -0.17291,-0.27302 -0.23263,-0.21673 -0.23566,0.22214 -0.003,0.43398 1.13303,2.00723 1.7539,2.42896 0.021,0.0143 0.0307,-0.24197 0.0215,-0.5694 z m 26.97205,-0.81697 c -0.14871,0.25542 0.19036,0.30099 0.81568,0.10961 0.0364,-0.0111 0.15544,-0.0304 0.26458,-0.0427 0.34715,-0.0394 0.86005,-0.56061 0.85585,-0.86979 -0.002,-0.16452 -0.11143,-0.12867 -0.24343,0.0799 -0.27367,0.43245 -1.15065,0.64112 -1.01766,0.24214 0.0483,-0.14476 0.20383,-0.28026 0.34571,-0.3011 0.52345,-0.0769 1.39794,-1.28923 1.56243,-2.16605 0.18697,-0.99664 -0.45654,-2.92992 -0.88675,-2.66404 -0.14016,0.0866 -0.33369,0.68331 -0.43007,1.32597 -0.21127,1.40887 -0.79381,1.99299 -2.17197,2.17784 -0.83732,0.1123 -1.03477,0.0564 -1.03477,-0.29304 0,-0.2375 0.27699,-0.50134 0.61554,-0.58631 0.75527,-0.18956 0.5518,-0.62721 -0.29161,-0.62721 -0.66778,0 -1.10731,0.93637 -0.68077,1.45032 0.14182,0.17087 0.13898,0.44439 -0.007,0.67522 -0.40838,0.6457 -0.29079,0.77911 0.54025,0.6129 0.81115,-0.16223 0.96699,0.0776 0.79857,1.22918 -0.0439,0.30022 0.0872,0.26829 0.5433,-0.13229 0.33065,-0.29042 0.52061,-0.38966 0.42214,-0.22053 z m -0.34056,-0.76922 c -0.12805,-0.22294 -0.47095,-0.47387 -0.76199,-0.55762 -0.31391,-0.0903 -0.22694,-0.11607 0.21379,-0.0632 0.54371,0.0652 0.70559,-0.008 0.60362,-0.27409 -0.0766,-0.19971 -0.0203,-0.36312 0.12524,-0.36312 0.40761,0 0.58585,0.70977 0.3045,1.21251 -0.22247,0.39754 -0.27988,0.40294 -0.48516,0.0456 z m -19.03324,0.27055 c 0.61007,-0.871 0.50747,-1.08473 -0.43066,-0.8971 -0.84279,0.16856 -1.8033,0.84051 -1.8033,1.26156 0,0.12297 0.40997,0.22358 0.91104,0.22358 0.64151,0 1.0329,-0.17397 1.32292,-0.58804 z m 1.20157,0.25731 c -0.002,-0.1819 -0.10472,-0.48954 -0.22776,-0.68364 -0.17846,-0.28153 -0.25792,-0.26377 -0.39282,0.0878 -0.26269,0.68456 -0.2032,0.92659 0.22776,0.92659 0.21828,0 0.39505,-0.14883 0.39282,-0.33073 z m 2.12072,0.0853 c 0,-0.33838 -1.31287,-1.34212 -1.75547,-1.34212 -0.43091,0 -0.46147,0.37658 -0.0873,1.07573 0.28112,0.52528 1.84277,0.75104 1.84277,0.26639 z m 1.85209,0.0337 c 0,-0.32973 -0.59771,-0.84666 -0.97896,-0.84666 -0.18918,0 -0.34396,0.23812 -0.34396,0.52916 0,0.38806 0.17639,0.52917 0.66146,0.52917 0.3638,0 0.66146,-0.0952 0.66146,-0.21167 z m 2.64583,-0.0436 c 0,-0.35419 -1.01227,-0.86275 -1.32839,-0.66738 -0.57558,0.35573 -0.24707,0.92266 0.53464,0.92266 0.43656,0 0.79375,-0.11487 0.79375,-0.25528 z m 2.58101,-0.0754 c -0.16757,-0.50884 -1.25809,-0.58213 -1.25809,-0.0846 0,0.27015 0.23887,0.41528 0.6835,0.41528 0.42851,0 0.64288,-0.12339 0.57459,-0.33073 z m 0.67721,-0.17338 c -0.0725,-0.27726 0.0678,-0.92485 0.31185,-1.4391 0.24403,-0.51424 0.3978,-1.1506 0.34171,-1.41412 -0.0704,-0.33095 -0.28196,-0.0801 -0.68396,0.81128 -0.66788,1.48086 -0.70441,1.78862 -0.26449,2.22855 0.42216,0.42216 0.44955,0.40482 0.29489,-0.18661 z m -2.19989,-0.53753 c 0,-0.26468 0.18557,-0.92537 0.41238,-1.46819 0.2268,-0.54282 0.35848,-1.04084 0.2926,-1.10672 -0.11459,-0.11459 -0.74635,1.46519 -1.11563,2.78979 -0.11899,0.42679 -0.0812,0.57035 0.11772,0.4474 0.16111,-0.0996 0.29293,-0.39759 0.29293,-0.66228 z m -9.09918,-1.94438 c 0.2076,-0.59962 0.23941,-1.03093 0.0832,-1.12749 -0.13917,-0.086 -0.18009,-0.27441 -0.0909,-0.41866 0.16371,-0.26489 -0.36545,-1.81783 -0.61942,-1.81783 -0.0754,0 -0.30569,0.20836 -0.51166,0.46302 -0.34001,0.42039 -0.34879,0.40981 -0.0953,-0.1149 0.36808,-0.76196 0.35888,-0.81602 -0.18893,-1.10919 -0.40614,-0.21736 -0.47242,-0.12227 -0.50065,0.71829 -0.0179,0.53285 -0.11469,2.01854 -0.2151,3.30154 l -0.18256,2.33272 0.9926,-0.6282 c 0.64238,-0.40655 1.11122,-0.97084 1.3288,-1.5993 z m -2.01332,0.98824 c 0,-1.4435 1.31356,-3.95119 1.72282,-3.289 0.14835,0.24004 0.10694,0.27713 -0.1394,0.12488 -0.24648,-0.15233 -0.30541,-0.0993 -0.19867,0.17891 0.18762,0.48892 -0.70834,3.21412 -1.09958,3.34453 -0.15684,0.0523 -0.28517,-0.10941 -0.28517,-0.35932 z m 1.20453,-2.70672 c -0.13675,-0.13675 -0.94042,2.04397 -0.93131,2.52704 0.005,0.25172 0.23423,-0.1959 0.50995,-0.99471 0.27572,-0.79881 0.46533,-1.48836 0.42136,-1.53233 z m 7.76039,0.13166 c 0.41647,-0.41646 0.36693,-0.0369 -0.11745,0.89975 -0.22712,0.4392 -0.37594,0.89736 -0.33072,1.01814 0.0452,0.12078 0.34398,-0.36679 0.66392,-1.08348 0.31994,-0.71668 0.45332,-1.22372 0.2964,-1.12674 -0.16643,0.10286 -0.23425,0.0232 -0.16278,-0.19123 0.0674,-0.20216 0.25547,-0.36756 0.41797,-0.36756 0.1625,0 0.45023,-0.17285 0.63941,-0.38411 0.29693,-0.3316 0.28065,-0.33621 -0.11906,-0.0337 -0.56339,0.42631 -0.62469,-0.0446 -0.0662,-0.50818 0.21828,-0.18116 0.39688,-0.24293 0.39688,-0.13728 0,0.10565 0.42086,-0.17742 0.93524,-0.62906 1.41445,-1.2419 1.61077,-0.98393 0.22401,0.29434 -1.15133,1.06125 -3.01134,4.20865 -3.01134,5.0956 0,1.01776 0.77876,0.22 1.59226,-1.63112 0.53167,-1.20979 1.35628,-2.5169 2.03412,-3.22434 1.16075,-1.21142 1.13949,-1.78397 -0.0545,-1.46819 -0.52181,0.138 -0.52203,0.13424 -0.0156,-0.27063 0.4944,-0.39522 0.49505,-0.41057 0.0175,-0.41057 -0.76332,0 -2.91875,2.41778 -3.75235,4.20906 -0.86013,1.84829 -1.38053,2.20656 -0.61667,0.42456 0.61357,-1.4314 2.35114,-3.83309 3.33049,-4.60345 0.67323,-0.52956 0.6807,-0.55934 0.14033,-0.55934 -1.31696,0 -4.03774,3.40236 -4.80654,6.01061 -0.18089,0.6137 -0.44215,1.04581 -0.58058,0.96026 -0.13843,-0.0856 -0.11657,0.0969 0.0486,0.40554 0.37792,0.70614 0.81876,0.72024 0.99876,0.0319 0.22682,-0.86737 0.60307,-0.59949 0.46453,0.33073 -0.0704,0.47294 0.15675,0.0463 0.50486,-0.94805 0.34812,-0.99436 0.76592,-1.94091 0.92844,-2.10344 z m 1.61842,-2.2192 c 0,-0.33796 1.01555,-1.27643 1.1912,-1.10078 0.0713,0.0713 -0.16756,0.40881 -0.53079,0.75005 -0.36323,0.34123 -0.66041,0.49906 -0.66041,0.35073 z m 0.24273,4.56764 c 0.47175,-1.39035 1.74135,-3.47755 2.07325,-3.40837 0.14718,0.0307 0.25184,-0.13511 0.23258,-0.3684 -0.0193,-0.23329 0.14357,-0.48611 0.36185,-0.56182 0.32503,-0.11273 0.33742,-0.0656 0.0684,0.26045 -0.18063,0.21896 -0.25461,0.47192 -0.1644,0.56214 0.0902,0.0902 -0.21429,0.75359 -0.67668,1.47417 -0.95338,1.48572 -1.3764,3.21335 -0.78333,3.19915 0.66999,-0.016 1.94027,-3.13984 1.95999,-4.8199 0.01,-0.83674 -0.0254,-1.52135 -0.0782,-1.52135 -1.10254,0 -3.76542,4.34792 -3.76542,6.14812 0,0.74745 0.33174,0.33307 0.7719,-0.96419 z m -5.39615,-4.8532 c -0.22318,-0.8957 -0.90853,-0.71612 -1.35622,0.35535 -0.54811,1.31182 -0.33313,1.69956 0.29531,0.53262 0.2826,-0.52477 0.60581,-0.95412 0.71824,-0.95412 0.32081,0 0.23961,0.45618 -0.15067,0.84646 -0.63065,0.63064 -0.86693,1.37092 -0.93323,2.92385 -0.0516,1.20799 0.0172,1.52136 0.3339,1.52136 0.29809,0 0.42296,-0.38431 0.49431,-1.52136 l 0.0955,-1.52135 0.05,1.74184 c 0.0275,0.95801 0.13932,1.83159 0.24846,1.94129 0.23591,0.23711 0.41861,-5.00626 0.2044,-5.86594 z m -11.94355,4.8149 c 0.0904,-0.23546 0.046,-0.34166 -0.10398,-0.24897 -0.14385,0.0889 -0.26155,0.27369 -0.26155,0.41062 0,0.38058 0.18964,0.29672 0.36553,-0.16165 z m 9.47427,-0.78001 c 0.0595,-0.50932 0.013,-0.92604 -0.10335,-0.92604 -0.1163,0 -0.21145,0.41672 -0.21145,0.92604 0,0.50932 0.0465,0.92604 0.10334,0.92604 0.0568,0 0.15199,-0.41672 0.21146,-0.92604 z m 0.66608,-0.45993 c -0.0633,-0.32912 -0.11747,-0.12215 -0.12041,0.45993 -0.003,0.58208 0.0488,0.85136 0.11507,0.5984 0.0662,-0.25297 0.0686,-0.72922 0.005,-1.05833 z m -11.23641,-0.0612 c 0.0687,-0.3594 0.0231,-0.5905 -0.10144,-0.51355 -0.1245,0.0769 -0.22637,0.0208 -0.22637,-0.12469 0,-0.14552 0.11907,-0.33816 0.26459,-0.4281 0.40672,-0.25137 0.343,-3.11407 -0.0661,-2.97183 -0.33718,0.11721 -0.37579,0.60132 -0.14204,1.78121 0.0721,0.3638 0.0768,0.49534 0.0105,0.29232 -0.10309,-0.31579 -0.15796,-0.31579 -0.3797,0 -0.18213,0.2594 -0.21111,0.13317 -0.0974,-0.42462 0.10381,-0.50948 0.0766,-0.6663 -0.0759,-0.43788 -0.17758,0.26594 -0.28316,0.17447 -0.41779,-0.36195 -0.0991,-0.3948 -0.24215,-0.65583 -0.31792,-0.58006 -0.0758,0.0758 -0.0119,0.59583 0.142,1.1557 0.15386,0.55987 0.40483,1.52396 0.5577,2.14242 0.3113,1.25938 0.66209,1.45378 0.84995,0.47103 z m 13.95969,0.10867 c 0,-0.13693 -0.11906,-0.24897 -0.26458,-0.24897 -0.14552,0 -0.26458,0.18562 -0.26458,0.41249 0,0.22687 0.11906,0.33891 0.26458,0.24897 0.14552,-0.0899 0.26458,-0.27556 0.26458,-0.41249 z m 16.30756,-1.57188 c 0.55822,-1.84396 0.86229,-3.69029 0.63125,-3.83308 -0.0979,-0.0605 -0.33374,0.68785 -0.524,1.66307 -0.19026,0.97522 -0.50861,2.09464 -0.70745,2.4876 -0.42936,0.84852 -0.51334,2.17876 -0.0969,1.53449 0.1411,-0.21828 0.45479,-1.05172 0.69708,-1.85208 z m -27.90065,0.85989 c 0.0511,-0.44378 -0.10549,-0.91681 -0.40135,-1.21267 -0.66587,-0.66587 -0.79262,-0.42398 -0.44817,0.85524 0.33639,1.24924 0.72795,1.41399 0.84952,0.35743 z m 26.40976,0.33073 c -0.18116,-0.21828 -0.25108,-0.39687 -0.15538,-0.39687 0.0957,0 0.0466,-0.23813 -0.1092,-0.52917 -0.15576,-0.29104 -0.48737,-0.53099 -0.73692,-0.53322 -0.38966,-0.003 -0.39768,-0.0403 -0.0568,-0.26053 0.21828,-0.14106 0.27781,-0.25648 0.13229,-0.25648 -0.4109,0 -0.81574,0.34374 -1.00319,0.85179 -0.14218,0.38538 -0.006,0.46886 0.81305,0.49785 l 0.98389,0.0348 -0.92604,0.19493 c -0.74116,0.156 -0.79398,0.20268 -0.26459,0.2338 0.3638,0.0214 0.84005,0.1543 1.05834,0.29536 0.56413,0.36457 0.64386,0.32471 0.26458,-0.13229 z m -14.55208,-0.51355 c 0,-0.20969 -0.11084,-0.44976 -0.24631,-0.53348 -0.31456,-0.19441 -0.63092,0.30103 -0.41515,0.65016 0.2433,0.39366 0.66146,0.3199 0.66146,-0.11668 z m 6.0933,-0.42723 c 0.40206,-0.75125 0.12782,-0.62866 -0.40178,0.17961 -0.25011,0.38172 -0.32398,0.61321 -0.16414,0.51443 0.15983,-0.0988 0.4145,-0.4111 0.56592,-0.69404 z m -9.2869,-1.26093 c 0.0136,-0.25591 -0.0947,-0.23636 -0.40398,0.073 -0.25738,0.25738 -0.34971,0.60091 -0.23618,0.87879 0.16929,0.41436 0.20635,0.40767 0.40398,-0.0729 0.11967,-0.29104 0.22595,-0.68649 0.23618,-0.87879 z m 18.01026,1.03939 c 0,-0.12995 -0.19543,-0.31127 -0.4343,-0.40293 -0.36313,-0.13935 -0.3795,-0.10063 -0.0999,0.23628 0.38103,0.45911 0.53419,0.5069 0.53419,0.16665 z m -14.2875,-0.28358 c 0,-0.1404 -0.23812,-0.38271 -0.52916,-0.53847 -0.40935,-0.21908 -0.52917,-0.20122 -0.52917,0.0789 0,0.19915 0.0794,0.44146 0.17639,0.53848 0.26643,0.26643 0.88194,0.21137 0.88194,-0.0789 z m 14.58492,-0.34445 c -0.26131,-0.25936 -0.2917,-0.22897 -0.14812,0.14812 0.0994,0.26093 0.24731,0.40778 0.32877,0.32632 0.0815,-0.0815 1.7e-4,-0.29496 -0.18065,-0.47444 z m -26.75575,-1.13569 c 0,-0.73679 -0.10297,-1.1426 -0.26458,-1.04272 -0.14552,0.0899 -0.26459,0.63275 -0.26459,1.20624 0,0.5735 0.11907,1.04272 0.26459,1.04272 0.14552,0 0.26458,-0.54281 0.26458,-1.20624 z m 12.43084,0.74322 c -0.003,-0.10914 -0.30017,-0.47883 -0.66145,-0.82152 -0.63706,-0.60427 -0.65689,-0.60667 -0.65689,-0.0793 0,0.29909 0.20836,0.66515 0.46302,0.81348 0.55736,0.32463 0.86151,0.35569 0.85532,0.0873 z m 13.63727,-0.0769 c 0.0936,-0.15144 0.39828,-0.20295 0.67707,-0.11446 0.77756,0.24678 0.62613,-0.45529 -0.28685,-1.32999 -0.87493,-0.83823 -1.01661,-1.72371 -0.37797,-2.36235 0.52633,-0.52633 0.90714,-0.53215 0.90714,-0.0138 0,0.29669 0.17333,0.35841 0.6621,0.23573 0.56594,-0.14204 0.71815,-0.0371 1.04798,0.72257 l 0.38587,0.88874 0.0103,-0.73692 c 0.01,-0.70956 -0.61225,-1.96438 -1.17416,-2.36788 -0.39356,-0.28262 -1.51972,-0.24646 -1.3408,0.043 0.0835,0.13504 -0.069,0.31561 -0.3389,0.40126 -1.18046,0.37466 -1.51323,2.3746 -0.60052,3.60911 0.43361,0.58647 0.4785,0.77118 0.18742,0.77118 -0.21051,0 -0.42946,-0.14014 -0.48655,-0.31143 -0.11735,-0.35204 -0.73404,-0.0642 -0.73404,0.34266 0,0.14552 0.11084,0.19608 0.2463,0.11236 0.13547,-0.0837 0.32109,-0.0312 0.41249,0.11668 0.21433,0.34679 0.5866,0.3438 0.80307,-0.006 z m -17.98987,-0.54504 c 0.10045,-0.31646 0.0384,-0.68675 -0.1442,-0.85989 -0.24857,-0.23577 -0.27869,-0.15548 -0.13407,0.35736 l 0.18652,0.66146 -0.43637,-0.59531 c -0.51773,-0.7063 -0.98976,-0.78955 -0.75008,-0.1323 0.15129,0.41485 0.10896,0.41043 -0.4068,-0.0425 -0.31661,-0.27802 -0.63299,-0.44816 -0.70307,-0.37808 -0.0701,0.0701 0.24531,0.40298 0.70085,0.73978 0.45555,0.33679 0.74471,0.47716 0.64259,0.31193 -0.10212,-0.16524 -0.0596,-0.30043 0.0945,-0.30043 0.15411,0 0.2802,0.1786 0.2802,0.39688 0,0.59066 0.46718,0.47983 0.66991,-0.15893 z m -8.59491,-1.99541 c 0.28073,-1.14345 0.49866,-2.31712 0.48429,-2.60816 -0.0144,-0.29104 -0.17743,0.0661 -0.36235,0.79375 -0.18492,0.7276 -0.46941,1.65809 -0.6322,2.06774 -0.30323,0.76307 -0.41401,2.23952 -0.14807,1.97358 0.0814,-0.0814 0.3776,-1.08346 0.65833,-2.22691 z m 9.5125,1.34497 c 0,-0.20969 -0.11906,-0.38126 -0.26458,-0.38126 -0.14552,0 -0.26458,0.24515 -0.26458,0.54478 0,0.29963 0.11906,0.4712 0.26458,0.38126 0.14552,-0.0899 0.26458,-0.33508 0.26458,-0.54478 z m 3.96875,0.4086 c 0,-0.3078 -1.63188,-1.36283 -1.81882,-1.17589 -0.0679,0.0679 0.15565,0.42072 0.49689,0.78395 0.63194,0.67267 1.32193,0.87725 1.32193,0.39194 z m 11.70216,-1.09978 c -0.16885,-0.16885 -0.25893,-0.008 -0.25893,0.46267 0,0.60937 0.0403,0.64964 0.25893,0.25893 0.16885,-0.30171 0.16885,-0.55276 0,-0.7216 z m -11.70216,-0.087 c -0.59222,-0.63039 -1.32345,-0.88642 -1.32244,-0.46302 5.3e-4,0.21662 1.30503,1.06129 1.69929,1.10029 0.13451,0.0133 -0.0351,-0.27347 -0.37685,-0.63727 z m 14.20867,-0.40085 -0.38297,-0.54677 -0.15548,0.59455 c -0.0855,0.327 -0.10067,0.64935 -0.0337,0.71634 0.067,0.067 0.1218,-0.0171 0.1218,-0.18688 0,-0.50039 0.52719,-0.35247 0.55005,0.15434 0.012,0.26508 0.077,0.32454 0.15207,0.1391 0.0721,-0.17815 -0.0412,-0.56996 -0.25179,-0.87068 z m -29.92773,0.13626 c 0.0913,-0.3638 0.27217,-0.66145 0.40191,-0.66145 0.12975,0 0.2359,-0.17486 0.2359,-0.38857 0,-0.25237 -0.153,-0.32986 -0.43647,-0.22108 -0.35432,0.13596 -0.40603,0.0462 -0.27471,-0.47704 0.089,-0.35449 -0.02,-1.17226 -0.24228,-1.81727 -0.22222,-0.645 -0.49948,-2.07118 -0.61613,-3.16928 -0.1906,-1.79412 -0.21567,-1.85868 -0.2473,-0.63672 -0.0194,0.74791 0.14997,2.33591 0.37627,3.5289 0.53625,2.82686 0.44559,4.13562 -0.27917,4.02992 -0.43589,-0.0636 -0.45921,-0.0293 -0.13229,0.19439 0.64806,0.44344 1.03791,0.32086 1.21427,-0.3818 z m 10.69198,0.0677 c 0,-0.27343 -1.86062,-0.21827 -2.51354,0.0745 -0.37504,0.16817 -0.086,0.221 0.99219,0.18137 0.83674,-0.0308 1.52135,-0.14591 1.52135,-0.25589 z m 1.19062,0.0646 c 0.0899,-0.14552 -0.0221,-0.26459 -0.24896,-0.26459 -0.22687,0 -0.41249,0.11907 -0.41249,0.26459 0,0.14552 0.11203,0.26458 0.24896,0.26458 0.13694,0 0.32256,-0.11906 0.41249,-0.26458 z m 1.11897,0.10473 c -0.0879,-0.0879 -0.31612,-0.0973 -0.50712,-0.0209 -0.21106,0.0845 -0.14837,0.14715 0.15986,0.15985 0.27891,0.0115 0.43518,-0.051 0.34726,-0.13896 z m 3.18295,-0.77199 c -0.48897,-0.76226 -0.73849,-0.91874 -1.37112,-0.85989 -1.03687,0.0965 -1.23933,0.7334 -0.23313,0.7334 0.45387,0 0.91024,0.21206 1.13879,0.52916 0.69666,0.96656 1.11283,0.60653 0.46546,-0.40267 z m 5.52062,-0.48628 c -0.13377,-0.53298 -0.32395,-0.65864 -0.96902,-0.6403 -0.44143,0.0126 -0.87741,0.14387 -0.96886,0.29183 -0.10235,0.16561 0.0143,0.19973 0.30348,0.0888 0.3491,-0.13396 0.43033,-0.0776 0.31629,0.21962 -0.18379,0.47897 0.38289,0.53485 0.83537,0.0824 0.22869,-0.2287 0.3175,-0.23307 0.3175,-0.0156 0,0.16604 -0.12101,0.37667 -0.2689,0.46807 -0.1479,0.0914 -0.19399,0.2874 -0.10243,0.43555 0.30026,0.48583 0.71257,-0.22904 0.53657,-0.93029 z m -23.2412,-1.21463 c -0.12851,-0.66204 -0.17438,-2.15621 -0.10192,-3.32038 0.10049,-1.61467 0.0759,-1.86567 -0.10391,-1.05833 -0.45324,2.03568 -0.21904,7.45971 0.26279,6.08612 0.0972,-0.27703 0.0715,-1.04537 -0.057,-1.70741 z m 2.89096,1.57442 c -0.0761,-0.29105 -0.0432,-0.52917 0.0731,-0.52917 0.11632,0 0.29006,-0.20473 0.38608,-0.45496 0.096,-0.25022 0.093,-0.37332 -0.007,-0.27355 -0.19393,0.19392 -0.87684,-0.58562 -1.4259,-1.62764 -0.18442,-0.35 -0.48762,-1.54063 -0.67378,-2.64584 -0.18616,-1.10521 -0.34999,-1.71181 -0.36407,-1.34801 -0.0476,1.23113 0.45353,3.56521 1.05098,4.89479 0.32695,0.72761 0.56905,1.42998 0.538,1.56083 -0.0772,0.32548 0.17907,0.95271 0.3893,0.95271 0.0943,0 0.10918,-0.23812 0.0331,-0.52916 z m 15.38993,-0.36269 c -0.29667,-0.65112 -0.76118,-0.9501 -0.76118,-0.48994 0,0.31058 0.83082,1.43291 0.96293,1.3008 0.0634,-0.0634 -0.0274,-0.42825 -0.20175,-0.81086 z m 12.54465,0.36269 c 0.0761,-0.29105 0.0305,-0.52917 -0.10144,-0.52917 -0.1319,0 -0.23981,0.0498 -0.23981,0.11065 0,0.0609 -0.0723,0.29899 -0.1606,0.52917 -0.0883,0.23018 -0.0427,0.41851 0.10143,0.41851 0.14412,0 0.32431,-0.23812 0.40042,-0.52916 z m -30.09339,-1.43894 c -0.10055,-0.80473 -0.28309,-1.52511 -0.40565,-1.60086 -0.12256,-0.0757 -0.18303,0.0712 -0.13437,0.32656 0.0487,0.25535 0.17314,1.0338 0.27662,1.72989 0.25963,1.74653 0.48897,1.34985 0.2634,-0.45559 z m 14.34563,1.04206 c -0.0411,-0.49631 -0.20548,-0.66146 -0.65849,-0.66146 -0.73374,0 -0.85155,0.95478 -0.14073,1.14054 0.81917,0.21407 0.85482,0.1927 0.79922,-0.47908 z m -2.84974,-0.0661 c 0,-0.38485 -0.24568,-0.46303 -1.45521,-0.46303 -1.20952,0 -1.45521,0.0782 -1.45521,0.46303 0,0.38484 0.24569,0.46302 1.45521,0.46302 1.20953,0 1.45521,-0.0782 1.45521,-0.46302 z m -2.3151,0.0161 c 0.25466,-0.0666 0.67138,-0.0666 0.92604,0 0.25466,0.0666 0.0463,0.121 -0.46302,0.121 -0.50933,0 -0.71769,-0.0545 -0.46302,-0.121 z m 3.37343,-0.21449 c 0,-0.21828 -0.11906,-0.39688 -0.26458,-0.39688 -0.14552,0 -0.26458,0.1786 -0.26458,0.39688 0,0.21828 0.11906,0.39687 0.26458,0.39687 0.14552,0 0.26458,-0.17859 0.26458,-0.39687 z m 6.50986,-0.32522 c -0.26896,-0.26895 -0.49087,0.13597 -0.2702,0.49302 0.16669,0.26972 0.22902,0.26993 0.31864,0.001 0.0613,-0.18383 0.0395,-0.40617 -0.0484,-0.49409 z m 11.47338,-1.65916 c 0.52851,0 1.1038,0.14288 1.27843,0.3175 0.24694,0.24695 0.38806,0.24695 0.635,0 0.24694,-0.24694 0.19148,-0.3175 -0.24958,-0.3175 -0.3119,0 -0.72266,-0.22104 -0.91282,-0.49121 -0.42416,-0.60265 -1.43044,-0.95254 -1.66199,-0.57788 -0.0936,0.15144 0.0452,0.28 0.30846,0.2857 0.31017,0.007 0.197,0.13307 -0.32153,0.35899 -0.83895,0.36553 -1.45325,1.36856 -1.44235,2.35508 0.005,0.43598 0.18272,0.26615 0.70595,-0.67391 0.63463,-1.1402 0.78864,-1.25677 1.66043,-1.25677 z m -10.31032,1.85209 c 0,-0.14552 -0.18562,-0.26459 -0.41249,-0.26459 -0.22687,0 -0.33891,0.11907 -0.24897,0.26459 0.0899,0.14552 0.27556,0.26458 0.41249,0.26458 0.13693,0 0.24897,-0.11906 0.24897,-0.26458 z m -17.57589,-1.5686 c 0,-0.28065 -0.11305,-0.48901 -0.25123,-0.46303 -0.13817,0.026 -0.52741,-0.429 -0.86499,-1.01108 -0.70641,-1.21808 -0.80339,-1.07746 -0.21994,0.31893 0.66102,1.58205 1.33616,2.16573 1.33616,1.15518 z m 25.98015,-0.60798 c 0.21874,-0.25123 0.48976,-0.39989 0.60226,-0.33036 0.1125,0.0695 0.14311,-0.1085 0.068,-0.39562 -0.20077,-0.76774 0.92566,-1.229 2.04684,-0.83816 0.73616,0.25663 0.8022,0.24396 0.51739,-0.0992 -0.26723,-0.32199 -0.24457,-0.3934 0.12483,-0.3934 0.24823,0 0.39957,-0.14883 0.33632,-0.33073 -0.07,-0.20136 -0.56001,-0.32064 -1.2527,-0.30493 -0.95228,0.0216 -1.25444,0.16882 -1.85395,0.90337 -0.60518,0.7415 -0.75283,0.81227 -0.95216,0.45639 -0.16276,-0.29059 -0.2499,0.0446 -0.28102,1.081 -0.0248,0.82621 0.0205,1.3236 0.10067,1.10532 0.0802,-0.21828 0.32475,-0.60243 0.54349,-0.85366 z m 4.03116,-0.48487 c 0,-0.13693 -0.11907,-0.24897 -0.26459,-0.24897 -0.14552,0 -0.26458,0.18562 -0.26458,0.41249 0,0.22687 0.11906,0.3389 0.26458,0.24897 0.14552,-0.0899 0.26459,-0.27556 0.26459,-0.41249 z m -29.10417,0.0334 c 0,-0.13571 -0.25671,-0.32823 -0.57048,-0.42781 -0.31376,-0.0996 -0.86516,-0.49456 -1.22533,-0.87773 l -0.65487,-0.69666 0.43158,0.84674 c 0.43366,0.85082 1.07356,1.37921 1.68837,1.39417 0.1819,0.004 0.33073,-0.10299 0.33073,-0.23871 z m 28.04583,-0.4147 c 0,-0.21828 -0.11532,-0.39688 -0.25628,-0.39688 -0.14095,0 -0.18774,0.1786 -0.10398,0.39688 0.0838,0.21828 0.19909,0.39687 0.25628,0.39687 0.0572,0 0.10398,-0.17859 0.10398,-0.39687 z M 170.1868,171.5014 c -0.36448,-1.70909 -0.5113,-1.87784 -1.09653,-1.26029 -0.43503,0.45907 -0.42939,0.47545 0.11879,0.34493 0.43148,-0.10273 0.53772,-0.0385 0.42447,0.25661 -0.0831,0.2165 -0.007,0.48243 0.16824,0.59096 0.20131,0.12441 0.28549,0.67673 0.22783,1.49465 l -0.0915,1.29732 -0.22274,-1.38445 c -0.21082,-1.31031 -0.76082,-2.19976 -1.13122,-1.82937 -0.0929,0.0929 -0.005,0.4968 0.19635,0.8976 0.20087,0.4008 0.40872,0.81802 0.4619,0.92716 0.0532,0.10914 -0.0918,0.19844 -0.32224,0.19844 -0.23041,0 -0.41892,0.11532 -0.41892,0.25628 0,0.14095 0.16946,0.19125 0.37658,0.11177 0.2213,-0.0849 0.51004,0.10485 0.70022,0.46021 0.32937,0.61544 0.37889,0.87328 0.52693,2.74361 0.0472,0.59693 0.14848,0.0202 0.2322,-1.32292 0.0859,-1.37863 0.0226,-2.97124 -0.15039,-3.78251 z m 25.82707,4.21516 c -0.002,-0.0924 -0.11825,0.0105 -0.25783,0.22881 -0.16928,0.26474 -0.19851,-0.0876 -0.0878,-1.05833 0.0913,-0.80036 0.2966,-1.54268 0.45626,-1.64959 0.17863,-0.11961 0.11218,-0.19595 -0.17272,-0.19844 -0.25467,-0.002 -0.46302,-0.12312 -0.46302,-0.26864 0,-0.14552 -0.12073,-0.26458 -0.26828,-0.26458 -0.16959,0 -0.2068,0.55967 -0.10115,1.52135 0.0919,0.83675 0.16934,1.98312 0.17206,2.5475 l 0.005,1.02614 0.36079,-0.85808 c 0.19844,-0.47194 0.35897,-0.93371 0.35675,-1.02614 z m -26.1897,0.78275 c 0,-0.63872 -0.0896,-0.74554 -0.52916,-0.6306 -0.62246,0.16278 -0.62856,0.18928 -0.20094,0.874 0.46321,0.74172 0.7301,0.65274 0.7301,-0.2434 z m 9.88028,-1.01696 c 0.12144,-0.64996 0.0666,-0.85989 -0.22456,-0.85989 -0.44749,0 -0.79482,1.11881 -0.54745,1.76344 0.22395,0.58362 0.56976,0.17889 0.77201,-0.90355 z m 3.61347,0.99219 c 0,-0.14552 -0.11906,-0.26458 -0.26458,-0.26458 -0.14552,0 -0.26458,0.11906 -0.26458,0.26458 0,0.14552 0.11906,0.26458 0.26458,0.26458 0.14552,0 0.26458,-0.11906 0.26458,-0.26458 z m 0.79375,-0.14791 c 0,-0.22687 -0.11906,-0.3389 -0.26458,-0.24897 -0.14552,0.0899 -0.26458,0.27556 -0.26458,0.41249 0,0.13694 0.11906,0.24897 0.26458,0.24897 0.14552,0 0.26458,-0.18562 0.26458,-0.41249 z m 0.74265,-0.25597 c -0.0815,-0.0815 -0.2294,0.0654 -0.32876,0.32632 -0.14359,0.37709 -0.1132,0.40748 0.14811,0.14812 0.18082,-0.17948 0.26212,-0.39297 0.18065,-0.47444 z m 0.84485,0.10807 c 0,-0.14552 -0.11906,-0.191 -0.26458,-0.10107 -0.14552,0.0899 -0.26458,0.28259 -0.26458,0.42811 0,0.14552 0.11906,0.191 0.26458,0.10106 0.14552,-0.0899 0.26458,-0.28258 0.26458,-0.4281 z m 0.79375,0.1479 c 0,-0.22687 -0.11906,-0.3389 -0.26458,-0.24897 -0.14552,0.0899 -0.26458,0.27556 -0.26458,0.41249 0,0.13694 0.11906,0.24897 0.26458,0.24897 0.14552,0 0.26458,-0.18562 0.26458,-0.41249 z m 0.7897,-0.33073 c -0.003,-0.38557 -0.0395,-0.39255 -0.26053,-0.0505 -0.33486,0.51816 -0.33486,0.86841 0,0.66146 0.14552,-0.0899 0.26276,-0.36485 0.26053,-0.61093 z m 0.89023,0.35482 c 0.082,-0.21362 0.0352,-0.45877 -0.10398,-0.54478 -0.13917,-0.086 -0.25303,-0.0996 -0.25303,-0.0301 0,0.0694 -0.0723,0.3146 -0.1606,0.54478 -0.0883,0.23018 -0.0415,0.41851 0.10398,0.41851 0.14552,0 0.33166,-0.17478 0.41363,-0.3884 z m 0.8746,-0.0199 c 0.21427,-0.55836 -0.14336,-0.85982 -0.4482,-0.3778 -0.3239,0.51216 -0.31741,0.78608 0.0186,0.78608 0.15009,0 0.34339,-0.18373 0.42956,-0.40828 z m 5.83742,-1.37402 c -0.0608,-0.40218 -0.1122,-0.13593 -0.11419,0.59168 -0.002,0.7276 0.0478,1.05666 0.11057,0.73124 0.0628,-0.32542 0.0644,-0.92073 0.004,-1.32292 z m -29.29403,0.44701 c 0,-0.5581 0.11906,-1.08831 0.26458,-1.17825 0.32638,-0.20171 0.3541,-1.98437 0.0309,-1.98437 -0.12855,0 -0.30111,0.2577 -0.38348,0.57267 -0.12649,0.48371 -0.2135,0.51978 -0.56003,0.23219 -0.24246,-0.20122 -0.41026,-0.22787 -0.41026,-0.0652 0,0.15144 -0.0762,0.47398 -0.1694,0.71677 -0.12826,0.33426 -0.0418,0.41981 0.35632,0.35237 0.28915,-0.049 0.54397,2.3e-4 0.56627,0.10938 0.11258,0.55087 -0.006,0.7276 -0.48861,0.7276 -0.40093,0 -0.52912,0.17633 -0.52898,0.7276 1.5e-4,0.58944 0.12576,0.73485 0.66146,0.76576 0.59699,0.0344 0.66127,-0.0605 0.66127,-0.97657 z m 10.13083,0.54154 c -0.0774,-0.29585 -0.008,-0.52916 0.15706,-0.52916 0.16249,0 0.29544,0.23812 0.29544,0.52916 0,0.29104 0.11533,0.52917 0.25628,0.52917 0.14096,0 0.18775,-0.17859 0.10399,-0.39688 -0.0838,-0.21828 -0.0292,-0.39687 0.12119,-0.39687 0.15042,0 0.32794,0.20836 0.39449,0.46302 0.10991,0.42057 0.12382,0.4183 0.15169,-0.0248 0.0177,-0.28157 -0.19301,-0.54629 -0.49847,-0.62617 -0.70644,-0.18474 -0.67161,-0.56535 0.0662,-0.72278 0.32742,-0.0699 0.83343,-0.17739 1.12447,-0.23893 0.29105,-0.0615 0.11245,-0.12734 -0.39687,-0.14621 -0.50932,-0.0189 -1.19393,-0.10609 -1.52135,-0.19384 -0.55444,-0.14858 -0.59532,-0.0757 -0.59532,1.06195 0,0.67181 0.10792,1.22148 0.23982,1.22148 0.13189,0 0.17754,-0.23813 0.10143,-0.52917 z m 2.89019,-0.26458 c 0.10322,-0.70326 0.0403,-0.79375 -0.55205,-0.79375 -0.51999,0 -0.598,0.0706 -0.35105,0.3175 0.17462,0.17462 0.3175,0.53181 0.3175,0.79375 0,0.78623 0.46023,0.53671 0.5856,-0.3175 z m -10.40784,-0.19844 c -0.15628,-0.40018 -0.27088,-1.47558 -0.25467,-2.38979 l 0.0295,-1.66218 -0.86327,0.45825 c -0.67654,0.35913 -0.76073,0.48009 -0.38924,0.55922 0.33211,0.0708 0.42578,0.25296 0.3129,0.60863 -0.0901,0.28404 -0.0367,0.50764 0.12129,0.50764 0.15533,0 0.28241,0.16406 0.28241,0.36457 0,0.43353 0.74763,2.28127 0.92305,2.28127 0.0672,0 -0.006,-0.32743 -0.16195,-0.72761 z m 1.00509,0.0243 c -0.0958,-0.0958 -0.0415,-0.33388 0.12059,-0.52917 0.22593,-0.27223 0.19453,-0.35507 -0.13459,-0.35507 -0.25288,0 -0.42927,0.21743 -0.42927,0.52916 0,0.29104 0.13891,0.52917 0.30868,0.52917 0.16977,0 0.23034,-0.0783 0.13459,-0.17409 z m 16.86647,-0.12361 c -0.1317,-0.21309 0.31351,-0.26603 1.56634,-0.18626 0.96268,0.0613 1.61648,0.0287 1.45288,-0.0724 -0.18995,-0.1174 -0.11623,-0.23604 0.20399,-0.32832 0.27578,-0.0795 -0.0518,-0.12129 -0.728,-0.0929 l -1.22942,0.0515 0.14175,-0.92604 c 0.078,-0.50933 0.26495,-1.16417 0.41554,-1.45521 0.2564,-0.49553 0.28692,-0.48037 0.48021,0.23854 0.11697,0.43505 0.093,0.97963 -0.0553,1.25677 -0.22786,0.42576 -0.15779,0.48906 0.54132,0.48906 0.646,0 0.80306,-0.11155 0.80306,-0.57034 0,-0.31368 -0.27913,-0.93876 -0.62029,-1.38906 -0.34116,-0.4503 -0.67734,-0.9938 -0.74705,-1.20778 -0.0736,-0.22597 -0.47891,0.35629 -0.96687,1.38907 -0.46207,0.97796 -0.9891,1.78998 -1.17118,1.80449 -0.18209,0.0145 -0.0334,0.1217 0.33039,0.23821 0.46527,0.149 0.07,0.21965 -1.33278,0.23821 l -1.99424,0.0264 -0.0632,-0.82964 c -0.0348,-0.4563 -0.17554,-1.02185 -0.31282,-1.25677 -0.19312,-0.33049 -0.2593,-0.21761 -0.29247,0.49891 l -0.0429,0.92604 -0.19492,-0.92604 c -0.16105,-0.7651 -0.20421,-0.81109 -0.24835,-0.26458 -0.0494,0.61219 -0.0704,0.62204 -0.28082,0.13229 -0.19091,-0.44428 -0.23037,-0.39203 -0.24598,0.32569 -0.0152,0.69794 0.10248,0.88524 0.64103,1.02041 0.68579,0.17212 0.66432,0.63827 -0.0294,0.63827 -0.21828,0 -0.32414,-0.1177 -0.23523,-0.26155 0.096,-0.15536 -0.0227,-0.19082 -0.29237,-0.0873 -0.27859,0.10691 -0.38923,0.0694 -0.28633,-0.0971 0.10545,-0.17062 -0.0943,-0.22124 -0.53827,-0.13637 l -0.70596,0.13495 0.64782,0.26466 c 0.3563,0.14557 1.65985,0.34643 2.89678,0.44637 1.23692,0.0999 2.34528,0.20057 2.46301,0.22362 0.11773,0.0231 0.13125,-0.092 0.0301,-0.25578 z m -16.78057,-1.4242 c 0,-0.009 -0.23813,-0.0168 -0.52917,-0.0168 -0.33052,0 -0.52917,0.17639 -0.52917,0.46988 0,0.44452 0.0286,0.44543 0.52917,0.0168 0.29104,-0.24919 0.52917,-0.46064 0.52917,-0.46988 z m 15.48062,0.0682 c -0.091,-0.32742 -0.36029,-1.05303 -0.59844,-1.61246 -0.39553,-0.92916 -0.46286,-0.97629 -0.77842,-0.54474 -0.41604,0.56897 -0.45219,0.29289 -0.0662,-0.50602 0.27581,-0.57095 0.27379,-0.57154 -0.16789,-0.0488 -0.39641,0.46922 -0.42804,0.47426 -0.27918,0.0445 0.0923,-0.26656 0.16789,-0.71305 0.16789,-0.99219 0,-0.27914 0.17859,-0.50752 0.39687,-0.50752 0.24335,0 0.39688,0.24747 0.39688,0.63972 0,0.83977 1.2574,3.32903 1.68159,3.32903 0.18195,0 0.59386,-0.50602 0.91535,-1.12448 0.36489,-0.70194 0.53044,-0.87593 0.44058,-0.46302 -0.10505,0.48268 0.005,0.38955 0.40707,-0.34459 0.32102,-0.58612 0.48275,-1.22114 0.38747,-1.52136 -0.17925,-0.56475 0.12827,-0.68247 0.58631,-0.22444 0.15997,0.15998 0.54097,0.21149 0.84666,0.11446 0.4049,-0.12851 0.5558,-0.39586 0.5558,-0.98472 0,-0.68543 -0.0598,-0.75866 -0.3935,-0.48173 -0.21643,0.17962 -0.57362,0.25746 -0.79375,0.17299 -0.2453,-0.0941 -0.40025,-0.003 -0.40025,0.23498 0,0.47309 -0.69712,0.51875 -0.8831,0.0578 -0.0734,-0.1819 -0.14285,0.0633 -0.15434,0.54479 -0.0124,0.52069 0.0863,0.80924 0.24369,0.71198 0.33486,-0.20695 0.33486,0.14331 0,0.66146 -0.22798,0.35278 -0.25786,0.35278 -0.26889,0 -0.008,-0.26295 -0.23827,-0.14001 -0.68174,0.36436 l -0.66933,0.76123 -0.84367,-0.87543 c -0.46401,-0.48148 -0.69483,-0.78724 -0.51293,-0.67947 0.23497,0.13922 0.34221,-0.0575 0.37037,-0.67955 l 0.0396,-0.87551 0.11542,0.78154 c 0.0635,0.42985 0.28377,1.02189 0.48953,1.31565 0.34471,0.49214 0.37409,0.43473 0.37409,-0.73102 0,-0.77603 -0.10228,-1.20189 -0.26458,-1.10159 -0.14552,0.0899 -0.26458,-0.0887 -0.26458,-0.39687 0,-0.30822 0.11906,-0.48682 0.26458,-0.39688 0.15006,0.0927 0.26458,-0.12954 0.26458,-0.51355 0,-0.37239 0.11907,-0.67707 0.26459,-0.67707 0.14552,0 0.26458,0.11055 0.26458,0.24568 0,0.37738 0.7858,1.07723 1.20952,1.07723 0.20789,0 0.37798,-0.17859 0.37798,-0.39687 0,-0.21828 0.17859,-0.39688 0.39687,-0.39688 0.21829,0 0.39688,0.1786 0.39688,0.39688 0,0.54103 0.45599,0.50099 0.75318,-0.0661 0.44662,-0.85231 -0.45073,-2.17169 -1.74537,-2.56622 -0.50988,-0.15538 -0.59531,-0.0839 -0.59531,0.49787 0,0.64024 0.46416,0.87082 1.41387,0.70235 0.12278,-0.0218 0.17313,0.11295 0.11188,0.2994 -0.0612,0.18645 -0.42158,0.3759 -0.80076,0.421 -0.84293,0.10027 -1.37601,-0.72553 -1.13633,-1.76029 0.12185,-0.52604 0.0952,-0.60308 -0.10574,-0.30609 -0.19631,0.2901 -0.26966,0.3037 -0.27262,0.0505 -0.002,-0.19049 -0.12267,-0.27303 -0.26764,-0.18343 -0.14497,0.0896 -0.51827,0.21195 -0.82955,0.2719 -0.31128,0.0599 -0.63915,0.19123 -0.7286,0.29174 -0.0894,0.10051 0.0597,0.1026 0.33153,0.005 0.45671,-0.1646 0.48175,-0.0641 0.33023,1.32535 -0.14402,1.32076 -0.42752,2.29335 -0.42752,1.46666 0,-0.1652 -0.17859,-0.23184 -0.39688,-0.14808 -0.21828,0.0838 -0.39687,0.31442 -0.39687,0.51256 0,0.21092 -0.16389,0.29737 -0.39536,0.20855 -0.21744,-0.0834 -0.33784,-0.24476 -0.26756,-0.35849 0.0703,-0.11373 -0.1013,-0.26669 -0.3813,-0.33991 -0.51751,-0.13533 -1.08229,0.64295 -0.58651,0.80822 0.1384,0.0461 0.19559,0.2982 0.12709,0.56016 -0.18635,0.7126 0.60802,2.40876 1.1281,2.40876 0.36669,0 0.42018,0.18667 0.30326,1.05833 -0.13246,0.98761 -0.0982,1.05834 0.51216,1.05834 0.55097,0 0.62802,-0.0939 0.48866,-0.59532 z m 0.80978,-7.3122 c -0.0797,-0.12904 0.0323,-0.38174 0.24897,-0.56157 0.32785,-0.27209 0.39396,-0.23272 0.39396,0.23461 0,0.56762 -0.37601,0.75884 -0.64293,0.32696 z m -5.61139,7.24606 c 0.10176,-0.26519 -0.0111,-0.39688 -0.34026,-0.39688 -0.27091,0 -0.56109,0.1786 -0.64485,0.39688 -0.10176,0.26519 0.0111,0.39687 0.34026,0.39687 0.2709,0 0.56109,-0.17859 0.64485,-0.39687 z m 1.09494,-1.25462 c 0,-0.80936 -0.0811,-1.42178 -0.18015,-1.36093 -0.0991,0.0609 -0.25494,-0.0104 -0.34635,-0.15826 -0.0914,-0.1479 0.0194,-0.2689 0.24631,-0.2689 0.22687,0 0.41249,-0.11231 0.41249,-0.24958 0,-0.27001 -1.09907,-1.1208 -1.25126,-0.9686 -0.17249,0.17248 0.48376,3.70914 0.74714,4.02649 0.17399,0.20965 0.16709,0.36151 -0.0206,0.45341 -0.15523,0.076 -0.13044,0.10662 0.0551,0.0681 0.22456,-0.0467 0.33734,-0.5621 0.33734,-1.54169 z m -4.552,0.26243 c 0.18688,-1.21099 -0.1818,-1.3055 -0.58466,-0.14986 -0.22457,0.6442 -0.2169,0.88974 0.0326,1.04394 0.40093,0.24779 0.36751,0.30192 0.55206,-0.89408 z m 2.17184,-0.94948 c 0.0873,-0.67833 0.20096,-1.44169 0.25251,-1.69635 0.0516,-0.25466 -0.0539,-0.46302 -0.23427,-0.46302 -0.52472,0 -0.70009,0.31939 -0.3843,0.69989 0.16053,0.19343 0.20531,0.56158 0.0995,0.81809 -0.10581,0.25652 -0.28308,0.84399 -0.39392,1.30549 -0.15534,0.64676 -0.12094,0.80817 0.15008,0.70417 0.1934,-0.0742 0.42308,-0.68993 0.5104,-1.36827 z m 4.89371,1.14792 c 0,-0.21828 -0.11533,-0.39688 -0.25628,-0.39688 -0.14096,0 -0.18775,0.1786 -0.10399,0.39688 0.0838,0.21828 0.19909,0.39687 0.25628,0.39687 0.0572,0 0.10399,-0.17859 0.10399,-0.39687 z m -6.08542,-0.13229 c 0,-0.14552 -0.0525,-0.26459 -0.11668,-0.26459 -0.0642,0 -0.19026,0.11907 -0.2802,0.26459 -0.0899,0.14552 -0.0374,0.26458 0.11668,0.26458 0.15411,0 0.2802,-0.11906 0.2802,-0.26458 z m 2.366,-0.59532 c -0.008,-0.47294 -0.10771,-1.33614 -0.22072,-1.91823 l -0.20548,-1.05833 -0.19349,1.32292 c -0.32812,2.24343 -0.30254,2.51354 0.23806,2.51354 0.2745,0 0.39218,-0.26516 0.38163,-0.8599 z m -3.16086,-1.98437 c 6.1e-4,-0.0364 -0.22709,-0.0661 -0.50601,-0.0661 -0.27891,0 -0.56717,-0.14883 -0.64057,-0.33073 -0.0734,-0.1819 -0.14285,0.43359 -0.15434,1.36776 l -0.0209,1.69849 0.66035,-1.30161 c 0.3632,-0.71589 0.66085,-1.33138 0.66146,-1.36776 z m 20.73863,0.52917 c 0.10551,-0.69457 0.0685,-1.12448 -0.0969,-1.12448 -0.14724,0 -0.26771,-0.23813 -0.26771,-0.52917 0,-0.35278 -0.17639,-0.52917 -0.52917,-0.52917 -0.35783,0 -0.52917,0.17639 -0.52917,0.54478 0,0.29963 0.0935,0.48697 0.20789,0.41631 0.11434,-0.0707 0.23242,0.0711 0.26241,0.31511 0.3684,2.9973 0.60138,3.21902 0.95264,0.90662 z m -1.42294,1.15533 c 0,-0.20131 -0.23812,-0.42828 -0.52916,-0.50439 -0.59594,-0.15584 -0.68577,0.0788 -0.21167,0.55291 0.42265,0.42265 0.74083,0.40182 0.74083,-0.0485 z m -28.9179,-0.61382 c 1.21841,-0.56315 1.56522,-1.04912 0.8995,-1.26041 -0.29506,-0.0936 -0.47025,-0.32273 -0.3956,-0.51728 0.0737,-0.19205 -0.0683,-0.42681 -0.31551,-0.52168 -0.394,-0.15119 -0.40405,-0.11732 -0.0814,0.27433 0.33507,0.40667 0.29683,0.43027 -0.4256,0.2626 -0.50217,-0.11654 -0.66246,-0.0966 -0.43634,0.0544 0.24959,0.1666 -0.0298,0.30413 -0.92604,0.45587 l -1.28345,0.21729 1.05833,0.17608 c 0.98734,0.16427 1.0017,0.1786 0.21406,0.21362 -0.46436,0.0207 -0.91787,0.15661 -1.00781,0.30213 -0.27841,0.45049 1.25266,0.28402 2.51355,-0.27329 l 1.19062,-0.52625 -0.66146,0.53059 c -0.3638,0.29183 -1.10578,0.60566 -1.64883,0.69741 -0.54306,0.0917 -0.91999,0.27584 -0.83763,0.4091 0.16385,0.26512 0.83517,0.11025 2.14356,-0.49448 z m -0.45085,-1.13683 c 0.21828,-0.14106 0.51594,-0.25648 0.66146,-0.25648 0.14552,0 0.086,0.11542 -0.13229,0.25648 -0.21828,0.14107 -0.51594,0.25648 -0.66146,0.25648 -0.14552,0 -0.086,-0.11541 0.13229,-0.25648 z m 15.37198,1.32292 c 0.20829,0.65626 0.20953,0.65567 0.15804,-0.0744 -0.0675,-0.95649 -0.56847,-0.95649 -0.62303,0 -0.0395,0.69305 -0.0333,0.69738 0.10654,0.0744 l 0.1485,-0.66146 z m 14.26212,-0.92374 c -0.33624,-1.0188 -1.0591,-1.26511 -1.0591,-0.36088 0,0.56569 1.11195,1.858 1.27805,1.48536 0.0481,-0.10787 -0.0504,-0.61389 -0.21895,-1.12448 z m -6.91383,0.36802 c -0.26407,-0.16727 -0.27286,-0.23103 -0.0323,-0.23398 0.1819,-0.002 0.33073,-0.12311 0.33073,-0.26863 0,-0.42386 -0.45704,-0.30502 -0.63771,0.16582 -0.0908,0.23673 -0.0186,0.60697 0.16046,0.82277 0.23936,0.28841 0.35425,0.30646 0.43368,0.0682 0.0594,-0.17831 -0.0553,-0.42766 -0.25491,-0.55413 z m -11.43254,-0.30418 c -0.0734,-0.1819 -0.13345,-0.0331 -0.13345,0.33073 0,0.36381 0.0601,0.51263 0.13345,0.33073 0.0734,-0.1819 0.0734,-0.47956 0,-0.66146 z m 8.81123,-1.29052 c 0.005,-0.38236 -0.16922,-0.84342 -0.3875,-1.02458 -0.34585,-0.28703 -0.39567,-0.11261 -0.3875,1.35667 0.009,1.59568 0.0296,1.65059 0.3875,1.02458 0.20797,-0.3638 0.38234,-0.9743 0.3875,-1.35667 z m -9.25104,1.09209 c 0,-0.14552 -0.12609,-0.26459 -0.2802,-0.26459 -0.15411,0 -0.20661,0.11907 -0.11668,0.26459 0.0899,0.14552 0.21603,0.26458 0.2802,0.26458 0.0642,0 0.11668,-0.11906 0.11668,-0.26458 z m -7.26589,-1.47685 c -0.33132,-0.50566 -0.57633,-0.62393 -1.01706,-0.49095 -0.84346,0.25451 -1.18408,0.64409 -0.56736,0.64893 0.42999,0.003 0.44982,0.0468 0.11906,0.26053 -0.32829,0.21216 -0.33189,0.25718 -0.0208,0.26053 0.20682,0.002 0.5989,-0.19763 0.87128,-0.44413 0.46792,-0.42346 0.48483,-0.42107 0.3066,0.0434 -0.13079,0.34084 -0.0937,0.43292 0.1209,0.30028 0.19105,-0.11807 0.31755,-0.008 0.33044,0.28733 0.0127,0.2919 0.074,0.3463 0.15716,0.13943 0.075,-0.18657 -0.0601,-0.63897 -0.30019,-1.00535 z m 8.05964,0.5508 0.66146,-0.37812 -0.99219,-0.009 c -0.70972,-0.007 -0.99219,0.10361 -0.99219,0.38749 0,0.49293 0.46064,0.49293 1.32292,0 z m 3.43958,0.1323 c 0,-0.14552 -0.14883,-0.26641 -0.33073,-0.26864 -0.23641,-0.003 -0.22543,-0.0707 0.0385,-0.23786 0.28677,-0.18158 0.19811,-0.32197 -0.39687,-0.62842 -0.63134,-0.32518 -0.82279,-0.33348 -1.08817,-0.0472 -0.25801,0.27835 -0.15282,0.45579 0.52917,0.8926 0.95206,0.60979 1.24807,0.67845 1.24807,0.28952 z m -5.11838,-0.65005 c -0.19595,-0.51064 -1.23162,-0.54106 -1.23162,-0.0362 0,0.24184 0.18525,0.32366 0.52917,0.23372 0.32615,-0.0853 0.52917,-0.008 0.52917,0.20116 0,0.18675 0.0742,0.2653 0.16497,0.17456 0.0907,-0.0907 0.0945,-0.3487 0.008,-0.57326 z m -11.93461,-0.0776 c -0.14134,-0.37125 -0.11024,-0.39747 0.1569,-0.13229 0.47177,0.4683 0.88893,0.41221 0.49193,-0.0662 -0.46867,-0.56471 -1.05834,-0.491 -1.05834,0.1323 0,0.29104 0.1318,0.52916 0.29289,0.52916 0.16971,0 0.21876,-0.19473 0.11662,-0.46302 z m 32.95716,-0.12726 c -0.13943,-0.37691 -0.52776,-0.65357 -1.07432,-0.76535 -0.86802,-0.17753 -1.74213,-0.76103 -1.14005,-0.76103 0.16604,0 0.37547,0.11906 0.46541,0.26458 0.20533,0.33223 1.7217,0.33893 2.24198,0.01 0.25649,-0.1622 0.46871,-0.13819 0.62027,0.0702 0.1488,0.2046 0.17469,0.14514 0.0731,-0.1679 -0.0865,-0.26656 -0.15725,-0.65351 -0.15725,-0.85989 0,-0.20638 -0.11907,-0.37524 -0.26459,-0.37524 -0.14552,0 -0.26458,0.22425 -0.26458,0.49833 0,0.3091 -0.22984,0.54225 -0.6053,0.61403 -0.75453,0.14424 -1.29759,-0.0224 -1.1024,-0.33817 0.0812,-0.13143 -0.0566,-0.16056 -0.30634,-0.0647 -0.31237,0.11986 -0.39307,0.0756 -0.25866,-0.14188 0.11829,-0.1914 0.0571,-0.28742 -0.15503,-0.2434 -0.46257,0.096 -0.70588,0.67241 -0.72867,1.72634 -0.0201,0.92929 0.25286,1.09234 0.77515,0.46302 0.46378,-0.55882 1.25282,-0.49306 1.5875,0.1323 0.38053,0.71103 0.56518,0.67261 0.29375,-0.0611 z M 168.1279,168.7634 c 0.28224,-0.45667 0.41409,-1.96442 0.14601,-1.66962 -0.37381,0.41106 -0.82363,1.97227 -0.56825,1.97227 0.12936,0 0.31937,-0.13619 0.42224,-0.30265 z m 8.69,-0.67469 c -0.48587,-0.71597 -0.61963,-1.1759 -0.50017,-1.71979 0.22625,-1.03012 -0.0925,-0.92938 -0.55393,0.17509 -0.48501,1.16079 -0.48234,1.34604 0.0135,0.93454 0.46297,-0.38423 0.50978,-0.17618 0.12298,0.54656 -0.23651,0.44193 -0.18448,0.51177 0.38126,0.51177 0.36033,0 0.72874,0.11906 0.81867,0.26458 0.0899,0.14552 0.21244,0.26459 0.27223,0.26459 0.0598,0 -0.18976,-0.43981 -0.55454,-0.97734 z m 2.42579,0.64661 c 0.10467,-0.1819 0.0929,-0.24247 -0.0262,-0.13459 -0.3145,0.28491 -0.92666,-0.30851 -0.92666,-0.8983 0,-0.27779 0.17859,-0.57361 0.39687,-0.65737 0.21829,-0.0838 0.39688,-0.33799 0.39688,-0.56496 0,-0.22697 -0.0752,-0.33748 -0.16708,-0.24558 -0.26165,0.26164 -1.15584,-0.31831 -1.15584,-0.74966 0,-0.21316 -0.11906,-0.38756 -0.26458,-0.38756 -0.40424,0 -0.31483,2.04577 0.12672,2.89965 0.51766,1.00103 1.27109,1.34446 1.61988,0.73837 z m -12.38065,-0.21828 c -0.0521,-0.15644 -0.16862,-0.24574 -0.25885,-0.19844 -0.0902,0.0473 -0.4331,-0.15214 -0.76195,-0.44318 l -0.5979,-0.52917 0.46826,0.72761 c 0.44615,0.69324 1.34984,1.04137 1.15044,0.44318 z m 2.53091,-1.10464 c 0.0738,-0.41134 0.0109,-0.7276 -0.14477,-0.7276 -0.15146,0 -0.20684,0.17859 -0.12308,0.39687 0.0838,0.21828 0.0444,0.39688 -0.0875,0.39688 -0.13191,0 -0.222,0.2367 -0.20021,0.52601 0.052,0.69063 0.39001,0.3304 0.5556,-0.59216 z m 12.39322,0.82196 c 0.0757,-0.22698 0.242,-0.22698 0.66611,0 0.89498,0.47897 1.61116,0.35599 2.07826,-0.3569 0.51761,-0.78997 0.32916,-1.45725 -0.41156,-1.45725 -0.62523,0 -0.72097,-0.47536 -0.1406,-0.69807 0.21828,-0.0838 0.39688,-0.25862 0.39688,-0.38857 0,-0.35179 -0.9025,-0.28559 -1.28782,0.0945 -0.26875,0.26508 -0.41055,0.22878 -0.71437,-0.18287 -0.5012,-0.67906 -0.48147,-0.8392 0.18551,-1.50619 0.50251,-0.50251 0.76428,-0.54783 2.38125,-0.41227 1.10669,0.0928 1.81668,0.0516 1.81668,-0.10541 0,-0.14174 0.25911,-0.35356 0.5758,-0.47072 l 0.5758,-0.213 -0.57617,-0.15067 c -0.31689,-0.0829 -0.5116,-0.0462 -0.43269,0.0815 0.0789,0.12768 -0.17757,0.31273 -0.56997,0.41122 -0.51053,0.12813 -0.80409,0.0551 -1.03217,-0.25683 -0.1753,-0.23974 -0.4842,-0.43407 -0.68644,-0.43184 -0.29438,0.003 -0.28856,0.0552 0.0292,0.26053 0.35278,0.22799 0.35278,0.25565 0,0.24901 -0.21828,-0.004 -0.91221,-0.10706 -1.54207,-0.22879 -1.10237,-0.21305 -1.13957,-0.1989 -0.99475,0.37812 0.0918,0.36591 -0.003,0.72695 -0.24386,0.9267 -0.45543,0.37798 -0.5194,1.65103 -0.12043,2.39652 0.32065,0.59915 0.91247,0.69787 0.68876,0.1149 -0.2259,-0.58869 0.18058,-0.48078 0.57639,0.15303 0.3668,0.58733 0.0337,1.32421 -0.57925,1.28129 -0.18745,-0.0131 -0.17541,-0.0705 0.0324,-0.15434 0.1819,-0.0734 0.33073,-0.23885 0.33073,-0.36768 0,-0.12883 -0.15634,-0.17424 -0.34743,-0.10091 -0.45037,0.17282 -1.1202,-0.60644 -1.34971,-1.57021 -0.27025,-1.13486 -0.50006,-0.63313 -0.28716,0.62697 0.12974,0.76797 0.35462,1.16291 0.75387,1.32398 0.31293,0.12624 0.39975,0.23708 0.19293,0.24631 -1.24102,0.0553 -1.82087,-2.3593 -0.8868,-3.69288 0.25132,-0.35881 0.47891,-0.80202 0.50575,-0.98491 0.0666,-0.45362 -0.83451,-0.41818 -1.87081,0.0736 -0.86595,0.41093 -1.17554,1.18141 -0.4747,1.18141 0.22015,0 0.32032,-0.15836 0.23719,-0.37498 -0.16262,-0.42381 0.34138,-0.68336 1.32696,-0.68336 h 0.66722 l -0.82116,0.93525 c -0.91113,1.03772 -1.1764,2.76892 -0.42428,2.76892 0.21828,0 0.39688,0.21431 0.39688,0.47625 0,0.86248 1.13916,1.53023 1.37966,0.80873 z m -16.60037,-0.23824 c -0.0939,-0.15189 -0.0486,-0.42329 0.10064,-0.6031 0.14923,-0.17981 0.26038,-0.71205 0.24699,-1.18276 -0.0134,-0.47071 0.0534,-0.93353 0.14833,-1.0285 0.095,-0.095 0.17266,0.13782 0.17266,0.51728 0,0.37947 0.13746,0.7749 0.30547,0.87873 0.18925,0.11697 0.23364,0.0726 0.11667,-0.11668 -0.10383,-0.168 -0.0726,-0.30546 0.0694,-0.30546 0.14198,0 0.3182,0.14883 0.3916,0.33073 0.10452,0.25904 0.13798,0.25724 0.15434,-0.008 0.0115,-0.18646 -0.15771,-0.40756 -0.37599,-0.49132 -0.45032,-0.17281 -0.54433,-0.88943 -0.11668,-0.88943 0.15411,0 0.20662,0.11906 0.11668,0.26458 -0.0899,0.14552 0.0367,0.26458 0.28137,0.26458 0.31129,0 0.37069,-0.0993 0.19782,-0.33073 -0.13589,-0.1819 -0.22488,-0.47955 -0.19777,-0.66145 0.0271,-0.18191 0.0642,-0.45682 0.0824,-0.61093 0.0632,-0.53496 0.49631,0.01 0.53468,0.67225 0.0737,1.27219 0.11693,1.46003 0.33624,1.46003 0.12127,0 0.22049,-0.0498 0.22049,-0.11065 0,-0.0609 0.0708,-0.32875 0.15725,-0.59531 0.12745,-0.39283 0.10519,-0.41104 -0.11751,-0.0961 -0.20785,0.29395 -0.26226,0.14862 -0.2234,-0.59672 0.0412,-0.79097 0.1093,-0.90675 0.34512,-0.58702 0.37841,0.51308 0.63229,0.50737 0.63229,-0.0142 0,-0.23257 0.12692,-0.33405 0.29098,-0.23265 0.20451,0.12639 0.20174,0.0131 -0.009,-0.38126 -0.36297,-0.67821 -0.59539,-0.74139 -0.36079,-0.0981 0.16081,0.44097 0.14367,0.44097 -0.35987,0 -0.56959,-0.49881 -1.14851,-0.61132 -1.14851,-0.22321 0,0.1319 -0.23386,0.17866 -0.51969,0.10392 -0.44415,-0.11615 -0.46613,-0.18946 -0.15119,-0.5044 0.53116,-0.53116 1.54999,-0.45334 2.35499,0.17987 0.58608,0.46101 0.69714,0.48105 0.69714,0.12575 0,-0.63427 -1.27915,-1.00666 -2.84427,-0.82803 -0.86245,0.0984 -1.38906,0.0573 -1.38906,-0.10836 0,-0.40728 -0.98215,-0.3179 -1.14409,0.10411 -0.14815,0.38607 0.0211,0.68733 0.38613,0.68733 0.1167,0 0.13886,-0.20836 0.0493,-0.46302 -0.13383,-0.38034 -0.0986,-0.4033 0.19721,-0.1286 0.30349,0.28182 0.30366,0.4691 0.001,1.19063 -0.57846,1.37932 -0.64642,2.94091 -0.16823,3.86564 0.23522,0.45486 0.49117,0.82702 0.56878,0.82702 0.0776,0 0.0643,-0.12428 -0.0296,-0.27618 z m -0.49108,-1.51571 c -0.28169,-0.83576 0.0447,-2.10719 0.6498,-2.531 0.2786,-0.19513 0.43599,-0.42534 0.34976,-0.51156 -0.0862,-0.0862 0.11981,-0.0845 0.45788,0.004 0.61091,0.15976 0.61027,0.1622 -0.10612,0.401 -0.82498,0.27499 -0.99329,0.74705 -0.19162,0.53741 0.29987,-0.0784 0.52917,-0.008 0.52917,0.16224 0,0.1769 -0.27443,0.25085 -0.66685,0.17969 -0.36677,-0.0665 -0.61771,-0.0391 -0.55766,0.061 0.06,0.10004 0.0257,0.65815 -0.0763,1.24023 -0.16245,0.92709 -0.21057,0.98377 -0.38809,0.45707 z m 12.30503,0.92758 c -0.2613,-0.25936 -0.29169,-0.22897 -0.14811,0.14811 0.0994,0.26094 0.24731,0.40778 0.32877,0.32632 0.0815,-0.0815 1.7e-4,-0.29495 -0.18066,-0.47443 z m -9.99131,-0.0617 c -0.0838,-0.21828 -0.19909,-0.39687 -0.25628,-0.39687 -0.0572,0 -0.10399,0.17859 -0.10399,0.39687 0,0.21829 0.11533,0.39688 0.25628,0.39688 0.14096,0 0.18775,-0.17859 0.10399,-0.39688 z m 3.21161,-0.13229 c 0.0899,-0.14552 0.0374,-0.26458 -0.11668,-0.26458 -0.15411,0 -0.2802,0.11906 -0.2802,0.26458 0,0.14552 0.0525,0.26459 0.11668,0.26459 0.0642,0 0.19026,-0.11907 0.2802,-0.26459 z m 17.78772,0.10473 c -0.0879,-0.0879 -0.31613,-0.0973 -0.50712,-0.0209 -0.21107,0.0845 -0.14838,0.14715 0.15985,0.15985 0.27891,0.0115 0.43518,-0.051 0.34727,-0.13897 z m 9.86124,-1.19546 c 0,-0.27354 -0.18536,-0.49677 -0.4125,-0.49677 -0.22686,0 -0.33591,-0.1239 -0.24231,-0.27534 0.0936,-0.15144 0.38826,-0.20613 0.65481,-0.12153 0.81701,0.25931 0.81721,-0.28002 2.6e-4,-0.88397 -0.94629,-0.69962 -1.22852,-0.71344 -1.56921,-0.0769 -0.35063,0.65517 -0.0311,0.9467 0.39661,0.36182 0.18439,-0.25217 0.43008,-0.36367 0.54597,-0.24778 0.31606,0.31606 -0.30671,1.12286 -0.79785,1.03363 -0.29629,-0.0538 -0.42221,0.10896 -0.40933,0.52916 0.0176,0.57481 0.0306,0.57892 0.24598,0.0778 0.21003,-0.48875 0.23083,-0.47864 0.27236,0.13229 l 0.045,0.66146 0.21189,-0.66146 c 0.18442,-0.57585 0.22065,-0.59297 0.27989,-0.13229 0.0374,0.29104 0.0618,0.68217 0.0542,0.86918 -0.0106,0.26094 0.072,0.26879 0.35519,0.0337 0.20297,-0.16845 0.36903,-0.52981 0.36903,-0.80304 z m -29.10417,0.29698 c 0,-0.14552 -0.11906,-0.26458 -0.26458,-0.26458 -0.14552,0 -0.26459,0.11906 -0.26459,0.26458 0,0.14552 0.11907,0.26459 0.26459,0.26459 0.14552,0 0.26458,-0.11907 0.26458,-0.26459 z m 0.91474,-0.2463 c 0.0837,-0.13546 0.0437,-0.31337 -0.0889,-0.39535 -0.13265,-0.082 -0.30945,0.0288 -0.39289,0.2463 -0.16449,0.42865 0.23304,0.55163 0.48184,0.14905 z m 9.62085,-1.01317 c 0.0632,-0.44323 -0.0479,-0.59261 -0.44097,-0.59261 -0.56047,0 -0.83718,0.44175 -0.62965,1.00518 0.1997,0.54212 0.97716,0.24252 1.07062,-0.41257 z m 4.99605,-1.02626 0.58268,-0.62468 h -0.66622 c -0.96378,0 -1.68977,0.46636 -1.68977,1.08547 0,0.43659 0.11194,0.50255 0.59532,0.35079 0.32742,-0.10279 0.85751,-0.468 1.17799,-0.81158 z m 1.54486,0.68063 c 0.0959,-0.1552 0.12752,-0.32907 0.0702,-0.38638 -0.18173,-0.18173 -1.27171,0.19097 -1.27171,0.43484 0,0.3311 0.99164,0.2911 1.2015,-0.0485 z m -7.80736,-0.64386 c 0.35904,-0.48948 0.35343,-0.50193 -0.0749,-0.16604 -0.25466,0.19972 -0.46302,0.48746 -0.46302,0.63941 0,0.15196 0.0337,0.22668 0.0749,0.16604 0.0412,-0.0606 0.24954,-0.34836 0.46302,-0.63941 z m -0.55924,-0.23885 c 0.23653,-0.285 0.22869,-0.40297 -0.0337,-0.50828 -0.18798,-0.0754 0.002,-0.14653 0.42151,-0.15802 l 0.76329,-0.0209 -0.72831,-0.57288 c -0.65634,-0.51628 -0.7522,-0.53017 -0.97022,-0.14061 -0.17782,0.31776 -0.45704,0.38926 -1.05395,0.26988 -0.7596,-0.15193 -1.27097,0.15657 -1.28359,0.77434 -0.006,0.29712 1.26239,0.2393 1.45116,-0.0661 0.0899,-0.14552 0.36486,-0.25078 0.61093,-0.23389 0.40336,0.0277 0.40182,0.0426 -0.0156,0.15169 -0.48039,0.12554 -0.59091,0.39528 -0.28663,0.69956 0.28912,0.28911 0.79648,0.20129 1.12517,-0.19476 z m 2.82347,-0.35451 c -0.18349,-0.18349 -0.68545,0.18932 -0.68545,0.50909 0,0.17544 0.15181,0.15537 0.40326,-0.0533 0.2218,-0.18408 0.34879,-0.38917 0.28219,-0.45577 z m 21.71594,1.34302 c -0.26427,-0.26427 -0.20478,-1.75153 0.0882,-2.20486 0.18361,-0.28412 0.25763,-0.002 0.26053,0.99218 0.004,1.40611 -0.0315,1.52991 -0.34872,1.21268 z"
       id="path6148" />
  </g>
</svg>
