<?xml version="1.0" encoding="UTF-8" standalone="no"?>
<!-- Created with Inkscape (http://www.inkscape.org/) -->

<svg
   width="45.826309mm"
   height="45.94268mm"
   viewBox="0 0 45.826308 45.942681"
   version="1.1"
   id="svg5"
   inkscape:version="1.1 (c4e8f9ed74, 2021-05-24)"
   sodipodi:docname="ornament8.svg"
   xmlns:inkscape="http://www.inkscape.org/namespaces/inkscape"
   xmlns:sodipodi="http://sodipodi.sourceforge.net/DTD/sodipodi-0.dtd"
   xmlns="http://www.w3.org/2000/svg"
   xmlns:svg="http://www.w3.org/2000/svg">
  <sodipodi:namedview
     id="namedview7"
     pagecolor="#ffffff"
     bordercolor="#666666"
     borderopacity="1.0"
     inkscape:pageshadow="2"
     inkscape:pageopacity="0.0"
     inkscape:pagecheckerboard="0"
     inkscape:document-units="mm"
     showgrid="false"
     inkscape:zoom="2.6761223"
     inkscape:cx="334.99963"
     inkscape:cy="173.94571"
     inkscape:window-width="2506"
     inkscape:window-height="1403"
     inkscape:window-x="1974"
     inkscape:window-y="0"
     inkscape:window-maximized="1"
     inkscape:current-layer="layer1" />
  <defs
     id="defs2" />
  <g
     inkscape:label="Layer 1"
     inkscape:groupmode="layer"
     id="layer1"
     transform="translate(102.60451,-22.530007)">
    <path
       style="fill:#000000;stroke-width:0.330564"
       d="m -101.98018,68.107406 c -0.4455,-0.4455 -0.19001,-9.14576 0.29713,-10.11798 0.26419,-0.52727 0.26653,-0.85359 0.008,-1.16469 -0.19727,-0.23769 -0.36924,-1.76749 -0.38215,-3.39953 -0.0129,-1.632063 -0.0729,-3.765738 -0.1333,-4.741509 -0.0923,-1.491572 0.01,-1.894006 0.64285,-2.526811 0.41397,-0.413975 0.85455,-0.656893 0.97906,-0.539818 0.12452,0.117079 0.12404,-0.12014 -0.001,-0.52715 -0.16784,-0.54613 -0.0174,-0.935865 0.574124,-1.487538 1.044606,-0.974187 1.467948,-2.235063 0.750438,-2.235063 -0.284967,0 -0.518121,0.129686 -0.518121,0.288191 0,0.158504 -0.587761,0.272779 -1.306131,0.253943 l -1.30613,-0.03425 0.10739,-1.65884 c 0.0591,-0.912361 0.21721,-1.921054 0.35142,-2.241536 0.13422,-0.320483 0.0967,-0.766746 -0.0834,-0.991692 -0.39977,-0.499358 -0.4246,-4.160992 -0.0299,-4.404949 0.15584,-0.09631 0.28335,-0.527424 0.28335,-0.958024 0,-0.452064 0.36806,-1.072429 0.87098,-1.468029 0.80615,-0.634117 0.81991,-0.68512 0.1848,-0.68512 -0.37741,0 -0.77814,0.148755 -0.8905,0.330564 -0.40615,0.657165 -0.87412,0.310361 -0.78087,-0.578685 0.0525,-0.500088 -0.0263,-1.106115 -0.175,-1.346727 -0.17147,-0.277454 -0.0119,-0.71267 0.4364,-1.189802 0.63806,-0.67918 0.65585,-0.794585 0.18304,-1.186989 -0.3222,-0.267394 -0.48544,-0.825566 -0.42422,-1.450462 0.0967,-0.98734 0.14814,-1.016755 1.83498,-1.050005 0.954505,-0.01882 1.735462,0.0997 1.735462,0.263382 0,0.163675 0.185942,0.180754 0.413205,0.03796 0.68343,-0.429433 2.561725,-0.320661 2.561801,0.148354 3.9e-5,0.232968 0.227634,0.510903 0.505766,0.617633 0.319152,0.122477 0.432877,0.423498 0.308289,0.816036 -0.149529,0.471126 -0.03273,0.621981 0.481558,0.621981 0.463508,0 0.832373,-0.367147 1.162383,-1.156974 0.528665,-1.265271 0.607135,-1.308988 1.495863,-0.833357 0.4323,0.231361 0.711836,0.194508 0.980546,-0.129266 0.30931,-0.372697 0.545079,-0.28367 1.33154,0.502791 0.525622,0.525624 1.192436,0.955678 1.481809,0.955678 0.289373,0 0.784266,0.409073 1.099762,0.909052 0.624242,0.98926 2.526771,1.480315 2.174049,0.561135 -0.101025,-0.263269 0.0057,-0.478496 0.237408,-0.478496 0.231564,0 0.322768,-0.09826 0.202675,-0.218348 -0.12009,-0.12009 -0.516769,0.05171 -0.881504,0.381797 -0.364734,0.330081 -0.663154,0.446552 -0.663154,0.258826 0,-0.187728 0.22313,-0.526505 0.495846,-0.752838 0.272715,-0.226333 0.495846,-0.765187 0.495846,-1.197451 0,-0.639554 -0.16931,-0.783975 -0.909052,-0.77542 -0.850726,0.0099 -0.869811,0.04024 -0.297461,0.473852 0.336374,0.254837 0.51689,0.616564 0.401147,0.80384 -0.257861,0.417228 -1.508583,-0.755546 -1.508583,-1.414566 0,-0.577467 4.403307,-0.561018 4.982941,0.01862 0.621951,0.621952 0.01365,1.160343 -1.047642,0.927243 -0.978683,-0.214954 -1.165501,-0.0021 -0.675881,0.76985 0.393971,0.621196 1.843064,0.187405 4.012991,-1.201302 2.790289,-1.785725 5.235526,-1.419434 6.22321,0.932223 0.674621,1.60626 1.049198,1.68823 1.049198,0.2296 0,-1.112533 0.987936,-2.545944 1.748339,-2.536688 0.220178,0.0026 0.772211,0.201643 1.226739,0.442139 0.6731,0.356147 0.98423,0.359261 1.67716,0.01679 0.57902,-0.286178 1.24143,-0.332362 2.07395,-0.144596 0.67277,0.151733 1.501949,0.20299 1.842619,0.113905 0.34067,-0.08908 0.89588,-0.014 1.2338,0.166842 0.42886,0.229521 1.01306,0.190086 1.93454,-0.130589 2.67712,-0.931635 4.61498,-0.340548 3.81067,1.16233 -0.20082,0.375242 -0.52687,0.682258 -0.72455,0.682258 -0.24048,0 -0.22721,-0.159281 0.0401,-0.481366 0.21973,-0.26475 0.30353,-0.636636 0.18624,-0.82641 -0.3188,-0.515838 -0.84195,-0.416326 -0.63579,0.12094 0.22157,0.577414 -0.92132,0.986498 -1.89378,0.677852 -0.47275,-0.150045 -0.62854,-0.103273 -0.47634,0.143006 0.12444,0.201289 0.62649,0.36801 1.11573,0.370493 2.25044,0.01137 2.96412,0.925434 2.05258,2.628686 -0.24329,0.454594 -0.19668,0.655407 0.18623,0.802344 0.28091,0.107797 0.40741,0.363179 0.28112,0.567521 -0.43454,0.703123 -0.49399,3.767221 -0.0973,5.014731 0.3034,0.954049 0.30591,1.341002 0.0112,1.636292 -0.21271,0.212712 -0.38675,0.723649 -0.38675,1.135416 0,0.842776 -1.00649,1.533475 -1.79415,1.231222 -0.33682,-0.129249 -0.5198,-0.01657 -0.5198,0.320119 0,0.28577 -0.2745,0.666496 -0.61002,0.846055 -0.84598,0.452759 -1.92081,-0.355354 -2.20725,-1.659536 -0.27169,-1.236983 -1.28845,-2.332657 -1.93457,-2.084717 -0.709109,0.272109 1.68319,5.497233 2.41312,5.2706 0.60989,-0.189364 1.59919,0.342417 1.26281,0.678804 -0.1267,0.126698 -0.44385,0.05318 -0.70478,-0.163361 -0.62183,-0.51608 -0.94835,0.01292 -0.6765,1.096025 0.18154,0.723328 0.3381,0.80214 1.24973,0.629119 1.35882,-0.257894 2.86028,-1.020957 2.86028,-1.453631 0,-0.187871 -0.14705,-0.250702 -0.32677,-0.139624 -0.18738,0.115804 -0.24281,-0.01688 -0.12992,-0.311056 0.12758,-0.332486 0.01,-0.513015 -0.33435,-0.513015 -0.29217,0 -0.53121,0.148754 -0.53121,0.330565 0,0.181809 -0.23191,0.330563 -0.51535,0.330563 -0.28345,0 -0.42908,-0.139611 -0.32362,-0.310247 0.10545,-0.170636 -0.0717,-0.46362 -0.3937,-0.651076 -0.63094,-0.367321 -0.60031,-0.406497 0.40626,-0.519587 0.36362,-0.04085 0.98015,-0.175672 1.37006,-0.299597 1.3623,-0.43297 1.71495,0.442079 1.6363,4.060178 -0.0426,1.961574 -0.23089,3.478806 -0.46691,3.763194 -0.30893,0.372244 -0.29224,0.723553 0.0763,1.605645 0.53052,1.269709 0.7547,4.682478 0.38347,5.837838 -0.14421,0.44883 -0.0873,0.94856 0.13917,1.22141 0.59159,0.71282 0.25696,1.92393 -0.65918,2.38578 -0.53527,0.26984 -0.63687,0.41832 -0.28841,0.42147 1.16081,0.01 1.41917,0.88778 0.85666,2.90877 -0.45379,1.63036 -0.46072,1.92319 -0.0508,2.15253 0.56701,0.31731 0.67351,4.03726 0.12529,4.37607 -0.19198,0.11869 -1.34482,0.20314 -2.56187,0.18775 -1.21706,-0.0154 -5.18968,-0.019 -8.828059,-0.009 -5.014573,0.015 -6.974225,-0.0992 -8.098825,-0.47201 -0.815967,-0.27053 -2.524853,-0.5028 -3.797523,-0.51617 -2.024091,-0.0212 -2.383824,0.0682 -2.871768,0.71462 -0.497082,0.65847 -0.66789,0.69738 -1.568749,0.35735 -0.590337,-0.22283 -1.088408,-0.25624 -1.197151,-0.0803 -0.102424,0.16572 -0.995588,0.3013 -1.984814,0.3013 -1.522888,0 -1.798592,-0.0928 -1.798592,-0.60526 0,-0.3329 -0.37044,-0.80352 -0.823199,-1.04584 -0.69956,-0.37439 -0.910565,-0.36565 -1.404897,0.0581 -1.244186,1.06668 -3.292051,1.5629 -6.449901,1.5629 -1.716077,0 -3.271377,-0.15125 -3.456237,-0.3361 z m 0.46301,-1.52829 c -0.0838,-0.32164 -0.15789,-0.13852 -0.16463,0.40691 -0.007,0.54543 0.0618,0.80858 0.15239,0.58478 0.0905,-0.22381 0.0961,-0.67006 0.0122,-0.99169 z m 1.1885,0.57043 c -0.22535,-0.86175 0.392544,-1.57936 1.681716,-1.95313 0.568019,-0.16469 0.765054,-0.31285 0.437858,-0.32924 -0.327197,-0.0164 -1.033778,0.19714 -1.57018,0.47452 -0.748354,0.38698 -0.975274,0.7331 -0.975274,1.48753 0,0.54077 0.13483,0.98321 0.29962,0.98321 0.16478,0 0.2216,-0.2983 0.12626,-0.66289 z m 6.364356,0.0415 c 1.517406,-0.68926 3.126683,-2.42418 3.126683,-3.37078 0,-0.84349 -0.889532,-0.81728 -1.159769,0.0341 -0.295111,0.92981 -1.638796,1.74458 -2.451626,1.4866 -0.36778,-0.11669 -0.988525,-0.61251 -1.379432,-1.10174 l -0.710743,-0.88952 0.215443,0.82641 0.215442,0.82641 -0.545335,-0.74376 c -0.575157,-0.78445 -2.23029,-1.06841 -1.926812,-0.33058 0.232255,0.56468 2.453807,1.58926 2.453807,1.1317 0,-0.24125 0.11989,-0.23498 0.374458,0.0196 1.050715,1.05071 -1.117764,1.9206 -2.690076,1.07912 -0.414271,-0.2217 -0.687289,-0.2215 -0.824569,6.6e-4 -0.112881,0.18265 0.196231,0.48472 0.686912,0.67128 0.49068,0.18655 0.81777,0.41357 0.726864,0.50447 -0.0909,0.091 -0.557796,0.016 -1.037538,-0.16635 -0.497225,-0.18907 -0.872254,-0.20293 -0.872254,-0.0322 0,0.78805 4.098887,0.82664 5.798545,0.0546 z m -0.941287,-0.58174 c -0.352497,-0.3525 0.09834,-0.78029 0.822314,-0.78029 0.568826,0 0.613759,0.0823 0.27058,0.49584 -0.444364,0.53543 -0.759819,0.61754 -1.092894,0.28445 z m 9.754236,0.84376 c 0.971882,-3.4e-4 0.970864,-0.57293 -0.003,-1.70688 -0.471202,-0.54863 -0.521101,-0.54425 -0.961513,0.0846 -0.255485,0.36475 -0.938939,0.90679 -1.518785,1.20453 -1.004806,0.51596 -0.988356,0.47711 0.350631,-0.82792 0.772692,-0.75311 1.404897,-1.5182 1.404897,-1.70021 0,-0.62226 -1.498068,-0.33181 -2.779392,0.53888 -0.704022,0.47838 -1.156731,0.66433 -1.006018,0.4132 0.423669,-0.70597 1.488777,-1.41004 2.777598,-1.8361 1.15576,-0.38206 1.142317,-0.38817 -0.909799,-0.41321 -2.072793,-0.0252 -2.085216,-0.0199 -2.561871,1.12095 -0.609619,1.45904 -0.624293,1.39002 0.347431,1.63391 0.518302,0.13009 0.826411,0.44128 0.826411,0.8347 0,0.80539 0.540951,1.02933 1.983384,0.82102 0.636334,-0.0919 1.558864,-0.16723 2.050062,-0.16741 z m 14.72606,-0.23086 c -1.48357,-0.0572 -2.561871,-0.24292 -2.561871,-0.44126 0,-0.18838 0.483451,-0.30926 1.074333,-0.26861 2.145529,0.1476 3.222999,-0.0145 3.222999,-0.48476 0,-0.30881 -0.48395,-0.50109 -1.455986,-0.57849 -0.800791,-0.0637 -1.387028,-0.004 -1.302746,0.132 0.08428,0.13636 -0.05667,0.24793 -0.313233,0.24793 -0.788612,0 -2.702637,-1.47322 -2.806698,-2.1603 -0.09427,-0.62243 -0.07313,-0.62053 0.507245,0.0457 0.333087,0.38237 0.97134,0.88197 1.418337,1.11022 0.599736,0.30624 0.466205,0.0693 -0.509532,-0.90388 -1.177079,-1.17406 -1.458362,-1.30106 -2.561872,-1.15669 -1.041528,0.13624 -1.239615,0.28844 -1.239615,0.9524 0,0.98663 -0.847413,1.04308 -2.57504,0.17154 -0.674545,-0.3403 -1.59833,-0.73195 -2.052855,-0.87034 l -0.82641,-0.25164 0.661127,0.77472 0.661129,0.77473 -0.991692,-0.58666 c -0.608841,-0.36017 -0.289799,0.0555 0.826409,1.07679 0.999957,0.91489 2.088201,1.66818 2.418321,1.67396 0.330121,0.006 0.92146,0.18245 1.31409,0.39258 1.026335,0.54928 3.887357,0.80013 6.978292,0.61185 l 2.677139,-0.16308 z m -7.272408,-0.75855 c -0.623077,-0.3629 -0.78277,-0.96522 -0.255912,-0.96522 0.177415,0 0.809619,0.29697 1.404897,0.6599 1.039339,0.63368 1.049502,0.65954 0.255912,0.65107 -0.454525,-0.005 -1.086729,-0.16043 -1.404897,-0.34575 z m 1.404897,-1.15411 c 0,-0.10395 0.208359,-0.39725 0.463019,-0.65191 0.381117,-0.38111 0.52679,-0.38617 0.823542,-0.0286 0.198287,0.23892 0.262645,0.53228 0.143015,0.65191 -0.266784,0.2668 -1.429576,0.29008 -1.429576,0.0286 z m 9.920862,1.35063 c -0.21402,-0.25789 -0.29244,-0.77352 -0.17426,-1.14587 0.16627,-0.52387 0.0695,-0.67699 -0.42806,-0.67699 -0.35361,0 -0.82022,0.21362 -1.0369,0.47472 -0.53283,0.64201 0.10884,1.83923 0.98578,1.83923 0.35722,0 0.66124,0.18594 0.6756,0.4132 0.0201,0.31893 0.065,0.3164 0.19653,-0.0112 0.0937,-0.23337 -0.005,-0.63531 -0.21869,-0.89319 z m 7.716139,0.33213 c 0.28371,-0.73934 -0.16276,-1.82443 -0.75068,-1.82443 -1.25269,0 -1.83898,1.67679 -0.7913,2.2631 0.65382,0.36589 1.30425,0.18086 1.54198,-0.43867 z m -2.5137,-0.31066 c 0,-0.54313 -0.146,-0.74415 -0.45453,-0.62576 -0.24998,0.096 -0.45452,0.45601 -0.45452,0.80019 0,0.34416 0.20454,0.62575 0.45452,0.62575 0.26049,0 0.45453,-0.34161 0.45453,-0.80018 z m -20.880624,-0.19151 c 0.802995,0 1.459992,-0.14875 1.459992,-0.33056 0,-0.18181 -0.11157,-0.33075 -0.247924,-0.33096 -0.136357,-2.3e-4 -0.694184,-0.38906 -1.239614,-0.86406 -1.549978,-1.34985 -2.420367,-1.85546 -2.795257,-1.62376 -0.50632,0.31292 -0.420509,1.35298 0.150744,1.82708 0.272715,0.22634 0.495846,0.66602 0.495846,0.97708 0,0.68272 0.435124,1.18848 0.599147,0.6964 0.06439,-0.19317 0.774072,-0.35122 1.577066,-0.35122 z m 18.486904,-3.76668 c 0.24884,-0.92256 0.22375,-0.94922 -0.69879,-0.74272 l -0.956899,0.21418 0.909049,-0.50746 c 1.06725,-0.59576 1.05738,-0.5151 0.38447,-3.1417 -0.28851,-1.1262 -0.45119,-2.32826 -0.36151,-2.67122 0.0897,-0.34297 0.0462,-0.62358 -0.0967,-0.62358 -0.47271,0 -2.653579,2.90958 -2.643329,3.52657 0.009,0.56947 0.0301,0.57109 0.34699,0.027 0.41995,-0.721 1.48794,-0.75482 1.756249,-0.0556 0.42272,1.10157 0.20331,2.42751 -0.460479,2.78274 -0.77269,0.41355 -0.88628,1.32227 -0.16528,1.32227 0.621899,0 0.621199,0.28037 -0.004,1.77773 -0.42058,1.00658 -0.42672,1.19734 -0.0386,1.19734 0.25395,0 0.567139,0.3347 0.695979,0.74377 0.19148,0.608 0.311,0.41187 0.6547,-1.07434 0.23125,-0.99995 0.5366,-2.2487 0.67856,-2.77499 z m 0.96461,3.38533 c 0.28603,-0.57336 0.52006,-1.37329 0.52006,-1.77763 0,-0.83325 0.9745,-1.89376 1.01493,-1.10449 0.0127,0.24952 0.15108,0.15617 0.30732,-0.20745 0.26112,-0.60765 0.2868,-0.59428 0.31738,0.16528 0.0294,0.72905 0.0733,0.75755 0.37358,0.24195 0.18714,-0.32145 0.31424,-0.84209 0.28243,-1.15697 -0.10844,-1.07346 0.0181,-1.14185 0.66827,-0.36122 l 0.64996,0.7804 -0.28797,-1.04522 c -0.15838,-0.57486 -0.59051,-1.46739 -0.9603,-1.98338 -0.36978,-0.51599 -0.82955,-1.54675 -1.02172,-2.29058 -0.42936,-1.6619 -1.36701,-2.59121 -2.31188,-2.29132 -1.29519,0.41108 -0.73186,3.87853 0.70114,4.31567 1.20441,0.36741 1.92352,1.17544 1.87466,2.10645 -0.0415,0.78972 -0.0565,0.79813 -0.18933,0.10595 -0.1275,-0.66422 -1.62251,-2.02107 -1.8615,-1.68946 -0.0505,0.0701 -0.27964,1.24308 -0.5092,2.60665 -0.22955,1.36358 -0.50056,2.96268 -0.60223,3.55357 -0.2389,1.38833 0.34867,1.40644 1.0344,0.0319 z m -38.113765,-0.85828 c 0.41118,-0.5243 0.39949,-0.53599 -0.12481,-0.12481 -0.31817,0.24952 -0.57849,0.50984 -0.57849,0.57848 0,0.27207 0.27146,0.097 0.7033,-0.45367 z m 43.261715,-0.21256 c 0,-0.71554 -0.53956,-1.19234 -1.34929,-1.19234 -0.4824,0 -0.35365,0.60622 0.27496,1.29471 0.78717,0.86214 1.07433,0.83478 1.07433,-0.10233 z m -11.900299,-0.13076 c 0,-0.52777 -1.336094,-2.86114 -1.780799,-3.11002 -0.396943,-0.22214 -2.51653,0.26034 -2.51653,0.57284 0,0.25634 1.86762,2.07309 2.47923,2.41171 0.773439,0.42822 1.818099,0.50032 1.818099,0.12547 z m 8.594659,-0.23517 c 0,-0.27271 -0.14875,-0.49585 -0.33056,-0.49585 -0.18181,0 -0.33057,0.22314 -0.33057,0.49585 0,0.27272 0.14876,0.49584 0.33057,0.49584 0.18181,0 0.33056,-0.22312 0.33056,-0.49584 z m -39.217567,-0.33057 c -0.214568,-0.55914 -0.647768,-0.64775 -0.930488,-0.19029 -0.10386,0.16804 0.0733,0.37393 0.39369,0.4575 0.3204,0.0836 0.615059,0.16921 0.654805,0.1903 0.03974,0.0211 -0.01336,-0.18479 -0.118003,-0.45751 z m 6.817241,0.24793 c -0.01212,-0.59193 -0.565213,-0.99366 -1.565118,-1.1367 -1.251695,-0.17907 -1.377473,0.14311 -0.339651,0.87003 0.76493,0.53578 1.913546,0.69659 1.904769,0.26667 z m 25.122867,-0.33056 c -0.003,-0.13636 -0.14926,-0.47105 -0.32551,-0.74378 -0.25912,-0.40095 -0.3214,-0.35351 -0.3255,0.24793 -0.003,0.40907 0.14369,0.74376 0.3255,0.74376 0.18181,0 0.32829,-0.11157 0.32551,-0.24791 z m -31.563804,-1.07434 c -0.112369,-0.18181 -0.455842,-0.3201 -0.763282,-0.30732 -0.45568,0.019 -0.4368,0.0757 0.10215,0.30732 0.884564,0.38011 0.896051,0.38011 0.661132,0 z m 32.830434,-0.76927 c 0.0575,-0.48594 -0.0488,-0.88355 -0.23629,-0.88355 -0.46957,0 -1.10367,1.25855 -0.84499,1.67711 0.35982,0.58219 0.97156,0.13324 1.08128,-0.79356 z m -31.370776,0.12307 c 0.466136,-0.24948 0.548209,-0.57143 0.391475,-1.53568 -0.228275,-1.40438 -0.806172,-1.67937 -0.972221,-0.46264 -0.06203,0.45454 -0.331441,1.07131 -0.598694,1.37062 -0.46019,0.51539 -0.359317,0.70606 0.485284,0.91724 0.05741,0.0144 0.369776,-0.11594 0.694156,-0.28954 z m -2.13043,-1.41982 c 0.13208,-0.7727 0.289008,-2.03377 0.348734,-2.8024 0.131157,-1.68787 0.353668,-2.10396 0.993753,-1.85834 0.266893,0.10245 0.48526,0.033 0.48526,-0.15436 0,-0.58801 1.634526,-2.31446 3.245397,-3.42789 1.373751,-0.949539 1.851877,-1.08427 4.252363,-1.198272 l 2.704581,-0.128443 1.389723,1.296317 c 1.26727,1.182098 1.41091,1.483558 1.630163,3.421278 l 0.240438,2.12495 0.04319,-1.81811 c 0.02475,-1.04165 -0.16495,-2.21716 -0.444194,-2.75254 -0.349113,-0.66936 -0.37198,-0.89614 -0.08061,-0.7994 0.223731,0.0743 0.535846,0.56916 0.69359,1.09973 0.157744,0.53057 0.421462,1.22842 0.586042,1.55078 0.184954,0.36226 0.170104,0.82739 -0.03888,1.21789 -0.43401,0.81094 -0.439261,2.65862 -0.0075,2.65862 0.181811,0 0.330565,-0.56589 0.330565,-1.25753 0,-0.82192 0.334581,-1.78511 0.965856,-2.78054 0.531221,-0.83765 0.870452,-1.6184 0.753845,-1.73501 -0.116604,-0.11656 0.0696,-0.10394 0.413788,0.0281 0.498369,0.19125 0.581743,0.12533 0.409443,-0.32367 -0.156151,-0.40692 0.01784,-0.652863 0.625259,-0.88381 1.040123,-0.395447 1.129141,-0.396369 1.129141,-0.01124 0,0.169553 -0.308718,0.40626 -0.68604,0.52602 -0.377321,0.11969 -0.608276,0.29551 -0.513233,0.39055 0.297637,0.29764 2.521528,-1.254 2.521528,-1.759301 0,-0.372638 -0.143547,-0.403691 -0.639396,-0.138321 -0.351667,0.188206 -1.02106,0.342194 -1.487538,0.342194 h -0.848138 v -3.113325 c 0,-1.712327 -0.09508,-3.361092 -0.211284,-3.663921 -0.400672,-1.044137 -0.768822,0.235934 -0.808296,2.810475 -0.04964,3.23726 -0.295264,4.038298 -1.322542,4.313035 -0.651078,0.174125 -1.039658,0.01834 -1.765982,-0.70798 -1.898519,-1.898519 -5.196994,-2.004981 -8.518818,-0.274954 -1.347002,0.701527 -2.275294,0.861843 -1.708511,0.29506 0.187884,-0.187884 1.072969,-0.627188 1.966855,-0.976231 0.893887,-0.349042 1.402118,-0.640128 1.129403,-0.646856 -1.044864,-0.02577 -3.929133,1.620384 -5.258751,3.001365 -1.925444,1.99982 -3.429694,5.16938 -3.605264,7.59649 -0.11333,1.56684 -0.0448,1.94488 0.35265,1.94488 0.32234,0 0.57656,-0.48693 0.73347,-1.40489 z m 16.49134,-6.50426 c 0.02721,-1.03792 0.165274,-1.34664 0.602199,-1.34664 0.492725,0 0.519989,0.14056 0.208405,1.07433 -0.551873,1.65389 -0.849451,1.75387 -0.810604,0.27231 z m 8.80645,6.91913 c 4.660239,-1.11031 8.439286,-4.3616 10.760205,-9.25746 1.0514,-2.217884 1.65771,-7.288307 1.12364,-9.39682 -0.57434,-2.267534 -1.7238,-5.273896 -2.310879,-6.043979 l -0.55705,-0.730701 -0.71305,0.759015 -0.71306,0.759014 0.87337,1.907688 c 1.544989,3.374708 1.16236,8.882828 -0.92112,13.259887 -2.753192,5.784026 -6.995875,8.080566 -14.928203,8.080566 -4.641968,0 -6.072706,-0.35668 -7.551959,-1.88266 -1.036908,-1.06967 -1.100396,-1.27608 -1.211574,-3.93903 l -0.117329,-2.810199 -0.874365,0.101249 c -0.857977,0.09935 -0.877947,0.157808 -1.065352,3.11832 -0.204049,3.22347 -0.657614,4.77497 -1.763255,6.03152 l -0.690271,0.78448 9.586356,-0.19324 c 5.272496,-0.10632 10.255748,-0.35272 11.073893,-0.54765 z m 17.312515,-0.91072 c 0.20694,-1.35106 0.18189,-1.4049 -0.65366,-1.4049 -0.7826,0 -0.84628,-0.0902 -0.64146,-0.90904 0.12508,-0.49998 0.3088,-1.42971 0.40827,-2.06604 0.0995,-0.63633 0.33021,-1.34291 0.51275,-1.57018 0.23722,-0.29536 0.18663,-0.4132 -0.17743,-0.4132 -0.28011,0 -0.76356,-0.0976 -1.07435,-0.21683 -0.48104,-0.1846 -0.5417,-0.0495 -0.40797,0.90905 0.0865,0.61924 0.27604,1.42338 0.4214,1.78701 0.21558,0.53925 0.18342,0.58617 -0.17445,0.25449 -0.24131,-0.22365 -0.52353,-1.03984 -0.62715,-1.81377 -0.19197,-1.43409 -0.73766,-1.86505 -1.63228,-1.28911 -0.36626,0.23579 -0.32161,0.42174 0.2349,0.97825 0.37792,0.37792 0.92205,1.49521 1.20915,2.48285 0.28712,0.98765 0.81767,2.1366 1.179,2.55322 0.36133,0.41661 0.74515,1.10885 0.85295,1.53833 0.24783,0.98743 0.30636,0.90326 0.57033,-0.82013 z m -11.129649,-0.0914 c 0.20404,-0.54057 0.60704,-0.98286 0.89555,-0.98286 0.2885,0 0.52456,-0.14875 0.52456,-0.33056 0,-0.51267 -0.41019,-0.3768 -1.46456,0.48508 -0.5328,0.43553 -0.99031,1.08496 -1.0167,1.44317 -0.0693,0.94055 0.62615,0.53763 1.06115,-0.61483 z m 1.32415,0.67448 c 0.70791,-0.55683 0.75286,-0.68802 0.29585,-0.86339 -0.6197,-0.23779 -1.52215,0.39339 -1.52215,1.06463 0,0.61388 0.24016,0.57446 1.2263,-0.20124 z m -27.342498,-1.73998 c 0.0026,-0.38768 -0.815008,-0.29074 -1.2545,0.14875 -0.218173,0.21818 -0.391327,0.776 -0.384789,1.23962 l 0.01187,0.84294 0.81288,-0.99169 c 0.447083,-0.54544 0.813618,-1.10326 0.814521,-1.23962 z m 29.421838,0.74377 c 0,-0.36362 -0.19834,-0.66113 -0.44075,-0.66113 -0.62175,0 -0.86554,0.31811 -0.65808,0.85873 0.26982,0.70314 1.09883,0.55405 1.09883,-0.1976 z m -30.103187,-1.31709 c 0.439591,-0.10383 0.860265,-0.3717 0.934829,-0.59539 0.195836,-0.58751 -1.61117,0.12231 -2.171673,0.85303 -0.406601,0.5301 -0.451785,0.52923 -0.760194,-0.0149 -0.39271,-0.69283 -1.147158,-0.7579 -1.391922,-0.12007 -0.121839,0.3175 0.01262,0.40913 0.437374,0.29805 0.381781,-0.0998 0.77107,0.0922 1.031264,0.50891 0.41733,0.66824 0.418512,0.66819 0.769517,-0.0359 0.193351,-0.38782 0.711212,-0.79003 1.150805,-0.8938 z m 14.56668,0.65596 c 0.697483,-0.22337 0.603453,-0.26981 -0.602726,-0.2976 -1.17139,-0.027 -1.409131,-0.13684 -1.318219,-0.6089 0.06337,-0.32904 0.534319,-0.66655 1.098571,-0.78729 0.803615,-0.17198 0.84501,-0.21866 0.222155,-0.25048 -1.166483,-0.0596 -2.056045,0.5335 -1.808173,1.20555 0.388046,1.05211 0.920184,1.21533 2.408392,0.73872 z m -4.95846,-0.49584 c 0,-0.27272 -0.13054,-0.49586 -0.290089,-0.49586 -0.159549,0 -0.47527,0.22314 -0.701603,0.49586 -0.343809,0.41427 -0.29608,0.49584 0.290088,0.49584 0.403272,0 0.701604,-0.21084 0.701604,-0.49584 z m 7.869902,-0.9062 c -0.07946,-1.09606 -0.24594,-1.42905 -0.762777,-1.52579 -0.363621,-0.0681 -0.756062,-0.27433 -0.872093,-0.4584 -0.273222,-0.43344 -0.946008,-0.0179 -0.946008,0.58431 0,0.57777 0.988564,1.11476 1.652819,0.89783 0.376062,-0.12281 0.405263,-0.0653 0.120877,0.23783 -0.484133,0.51614 -0.185585,1.66626 0.432529,1.66626 0.355801,0 0.450583,-0.3547 0.374653,-1.40204 z m 2.011779,1.10025 c 0.253334,-0.16042 0.385332,-0.57952 0.293328,-0.93135 -0.09201,-0.35182 0.03789,-2.02565 0.288664,-3.71963 0.465836,-3.14677 0.438437,-3.550626 -0.21355,-3.147676 -0.228507,0.141225 -0.288315,0.631965 -0.15511,1.272718 0.206805,0.994778 0.192939,1.012378 -0.300697,0.381738 -0.284624,-0.363623 -0.52223,-1.125508 -0.528012,-1.693079 -0.01263,-1.23987 -1.376918,-6.736313 -2.102801,-8.471769 -0.285169,-0.681788 -0.749209,-1.239614 -1.031202,-1.239614 -0.281993,0 -0.512714,-0.144062 -0.512714,-0.320138 0,-0.410899 -3.249369,-2.818174 -4.219718,-3.12615 -1.207586,-0.383274 -0.856878,-0.02624 1.254131,1.276748 1.09608,0.67654 2.245486,1.627395 2.554236,2.113011 0.308749,0.485616 0.654095,0.957315 0.767434,1.048221 0.493531,0.395842 0.947501,1.647408 0.767599,2.116224 -0.107908,0.281213 0.02859,0.736086 0.303326,1.010826 0.662989,0.66299 1.210699,3.326865 1.246464,6.062371 0.01593,1.218269 0.144805,2.958799 0.286395,3.867859 l 0.257438,1.65281 0.04417,-1.73546 c 0.02429,-0.9545 0.182172,-1.73545 0.350847,-1.73545 0.379478,0 0.03712,3.75724 -0.356428,3.91167 -0.154449,0.0606 -0.280816,0.46968 -0.280816,0.90904 0,0.82272 0.479999,1.0081 1.287018,0.49708 z m -10.978036,-0.93782 c 0.112831,-0.31816 0.408761,-0.81674 0.657614,-1.10795 0.407815,-0.47721 0.296852,-0.5144 -1.124579,-0.37699 -2.21471,0.21412 -2.5191,0.42894 -1.88682,1.33166 0.620471,0.88584 2.060729,0.97963 2.353785,0.15328 z m 6.385379,0.43271 c 0,-0.3489 -0.63439,-0.49548 -0.823078,-0.19018 -0.114193,0.18477 0.02428,0.33596 0.307723,0.33596 0.283444,0 0.515355,-0.0656 0.515355,-0.14578 z m 0.991692,0.021 c 0,-0.0686 -0.26032,-0.32896 -0.578488,-0.57849 -0.524293,-0.41118 -0.535984,-0.39948 -0.1248,0.12482 0.431839,0.55065 0.703294,0.72575 0.703294,0.45368 z m 5.546903,-0.15385 c 0.338792,-0.21498 0.322721,-0.46113 -0.0806,-1.23454 -0.277073,-0.53133 -0.504684,-1.23514 -0.505804,-1.56404 -0.0011,-0.32888 -0.150791,-0.50605 -0.332601,-0.39369 -0.181809,0.11232 -0.330564,0.84013 -0.330564,1.61724 0,1.78252 0.308947,2.17193 1.249572,1.57504 z m -23.997884,-1.11522 c -0.2372,-0.2372 -0.391167,-0.25672 -0.391167,-0.0496 0,0.44123 0.390928,0.83216 0.611543,0.61155 0.09394,-0.094 -0.0052,-0.34682 -0.220376,-0.56196 z m -0.926166,-0.11082 c 0.112881,-0.29417 0.05747,-0.42686 -0.129915,-0.31105 -0.179728,0.11107 -0.326778,0.34194 -0.326778,0.51302 0,0.4755 0.236936,0.37071 0.456693,-0.20197 z m 26.980118,-0.9415 c 0,-0.39182 0.231566,-1.04299 0.51459,-1.44707 0.449391,-0.64159 0.452118,-0.73468 0.02153,-0.73468 -1.899054,0 -3.08744,1.7996 -1.989526,3.01279 0.673621,0.74434 1.453415,0.29846 1.453415,-0.83104 z m -24.660259,-1.13627 c 0.45841,-0.74172 -0.122376,-0.37584 -0.627765,0.39549 -0.309471,0.47231 -0.415963,1.02631 -0.270052,1.4049 0.202046,0.52421 0.274742,0.46041 0.450595,-0.39549 0.115329,-0.5613 0.316574,-1.19351 0.447222,-1.4049 z m 1.46147,0.6683 c 0.421907,-0.75791 0.719414,-1.68458 0.661129,-2.05927 -0.184168,-1.183941 -1.224291,-0.0279 -1.742567,1.9368 -0.562829,2.13358 -0.06922,2.18949 1.081438,0.12243 z m 0.899312,1.23931 c 0.360095,-0.58265 -0.01951,-0.66433 -0.698852,-0.15039 -0.559269,0.42312 -0.56879,0.4832 -0.07802,0.49243 0.307439,0.006 0.657031,-0.14814 0.776872,-0.34204 z m 13.065784,-1.011 c 0.387873,-0.72475 0.296273,-0.75072 -0.832955,-0.2362 -0.46308,0.21099 -0.841963,0.56895 -0.841963,0.79546 0,0.60623 1.279881,0.17887 1.674918,-0.55926 z m -19.199873,-1.03303 c 0.003,-0.31818 -0.13491,-0.5785 -0.30599,-0.5785 -0.51101,0 -0.738,0.62078 -0.50056,1.3689 0.1751,0.55169 0.28467,0.6041 0.51212,0.24497 0.15915,-0.25129 0.29165,-0.7172 0.29443,-1.03537 z m 13.053593,1.06017 c -0.109146,-0.17659 0.03412,-0.41032 0.31836,-0.51939 0.874174,-0.33546 0.584291,-0.87733 -0.344616,-0.64418 -0.547764,0.13748 -1.149572,0.0274 -1.65282,-0.30235 -0.435274,-0.28521 -0.801446,-0.47793 -0.813716,-0.42828 -0.01224,0.0496 -0.08333,0.55491 -0.157926,1.12281 -0.134024,1.02044 -0.118091,1.03291 1.356769,1.06252 0.88825,0.0179 1.412056,-0.10008 1.293949,-0.29113 z m 18.024483,-1.98607 c 0,-0.50897 -1.242617,0.24207 -1.645241,0.99438 -0.185979,0.3475 -0.333781,0.82755 -0.328452,1.06675 0.01112,0.49965 1.973693,-1.54986 1.973693,-2.06113 z m -16.632948,1.27712 c -0.105523,-0.2637 -0.183855,-0.18538 -0.199717,0.19972 -0.01435,0.34846 0.06378,0.5437 0.17362,0.43385 0.109845,-0.10982 0.121589,-0.39495 0.0261,-0.63357 z m 8.140587,-0.18594 c -0.132472,-0.49999 -0.22542,-1.24375 -0.206549,-1.65282 0.04009,-0.869017 -0.19121,-0.924776 -1.072186,-0.25843 -0.397887,0.30094 -0.476789,0.48933 -0.207683,0.49584 0.23869,0.006 0.401771,0.27083 0.362401,0.589 -0.104061,0.84098 0.358826,1.73545 0.898099,1.73545 0.347226,0 0.405087,-0.23282 0.225918,-0.90904 z m -2.554495,-0.41321 c 0.257845,0 0.468811,-0.14875 0.468811,-0.33057 0,-0.49742 -0.783169,-0.3975 -1.507,0.19228 -0.587172,0.47842 -0.590242,0.5065 -0.03614,0.33056 0.333039,-0.1057 0.816488,-0.19227 1.074333,-0.19227 z m -7.241481,-0.21751 c -0.119628,-0.11969 -0.05723,-0.41062 0.138645,-0.64664 0.411626,-0.49598 0.129742,-1.11923 -0.506204,-1.11923 -0.239724,0 -0.634403,0.23923 -0.877065,0.53161 -0.374864,0.45169 -0.346598,0.6008 0.187986,0.99169 0.62962,0.4604 1.4666,0.65254 1.056638,0.24257 z m 14.685022,-1.43531 c 0.185182,0 0.246661,-0.14567 0.136618,-0.32372 -0.343718,-0.55615 0.479835,-1.659156 1.247023,-1.670172 0.679043,-0.0097 0.690187,-0.04235 0.153651,-0.449648 -0.886583,-0.673012 -0.726373,-0.986883 1.263224,-2.474792 l 1.841709,-1.377314 0.60907,0.751237 c 0.33498,0.41318 0.69852,0.66218 0.80787,0.553336 0.3867,-0.384931 0.44063,-2.942332 0.0622,-2.94752 -0.20313,-0.0027 -0.14621,-0.14926 0.12651,-0.325502 0.42375,-0.273848 0.41173,-0.321176 -0.0827,-0.325502 -0.31816,-0.0027 -0.57848,0.156088 -0.57848,0.353049 0,0.84231 -0.84436,-0.01408 -1.03082,-1.045516 l -0.20441,-1.130697 -0.0435,1.055588 c -0.0309,0.748173 0.17044,1.205453 0.69116,1.57018 0.5363,0.375637 0.59464,0.51459 0.21607,0.51459 -0.75353,0 -2.624554,0.992302 -2.817091,1.49405 -0.09068,0.236318 -0.488812,0.515766 -0.88473,0.620996 -0.395919,0.105235 -1.266952,0.67648 -1.935632,1.269447 -1.139408,1.010396 -1.223482,1.218761 -1.338402,3.316986 l -0.122626,2.238854 0.773294,-0.83396 c 0.425312,-0.45868 0.924807,-0.83397 1.10999,-0.83397 z m 9.118154,0.92971 c -0.10552,-0.26369 -0.18386,-0.18537 -0.19972,0.19972 -0.0143,0.34847 0.0638,0.54371 0.17362,0.43386 0.10985,-0.10982 0.12159,-0.39495 0.0261,-0.63358 z m -34.432954,-3.313663 c -1.091657,-0.570285 -2.816031,-2.364707 -2.816031,-2.930428 0,-0.167862 -0.11887,-0.305202 -0.26418,-0.305202 -0.31939,0 -0.0817,2.41036 0.26076,2.644511 0.36979,0.252835 1.327034,2.225825 1.315168,2.710732 -0.0064,0.26147 -0.200473,0.17847 -0.495848,-0.212044 -0.46857,-0.619505 -0.48533,-0.613226 -0.48533,0.181804 0,1.70635 0.69843,1.72107 2.180275,0.046 l 1.388365,-1.569457 z m 28.01175,2.665343 c 0.993575,-0.21308 1.704245,-0.58038 1.926505,-0.995655 0.31664,-0.591652 0.28514,-0.62216 -0.31226,-0.302444 -0.36543,0.195572 -1.14059,0.35558 -1.722573,0.35558 -0.718809,0 -1.317297,0.279619 -1.866204,0.871899 -0.634581,0.68472 -0.678359,0.82213 -0.203927,0.64008 0.332266,-0.12751 1.312573,-0.38376 2.178459,-0.56946 z m -18.430529,-0.944293 c 0.111757,-0.180835 0.05783,-0.328785 -0.11984,-0.328785 -0.17767,0 -0.558333,-0.09029 -0.845918,-0.200648 -0.395495,-0.151765 -0.522883,0.01212 -0.522883,0.672761 0,0.762635 0.08151,0.829775 0.642718,0.529435 0.353494,-0.18919 0.734158,-0.491928 0.845918,-0.672763 z m 30.200873,-0.33752 c -0.40602,-0.722437 -0.93397,-1.31352 -1.17321,-1.31352 -0.23923,0 -0.43497,-0.164669 -0.43497,-0.365931 0,-0.204875 -0.25461,-0.277263 -0.57849,-0.16447 -0.47416,0.165127 -0.46128,0.110807 0.0715,-0.301216 0.60881,-0.470897 0.57747,-0.48856 -0.49585,-0.279394 -1.1736,0.228708 -1.62759,0.612251 -1.63652,1.382545 -0.004,0.326165 0.12652,0.30523 0.51439,-0.08263 0.74942,-0.749418 0.82822,-0.643337 0.28939,0.389593 -0.88282,1.692366 -0.69366,1.893696 1.85516,1.974656 l 2.32693,0.0738 z m 0.63859,-2.785114 c -0.23577,-0.708183 -0.60542,-1.34551 -0.82145,-1.416281 -0.53742,-0.176059 -0.48694,2.432113 0.0557,2.882536 0.31526,0.261637 0.38252,0.128041 0.28714,-0.570257 -0.10658,-0.780189 -0.0795,-0.816425 0.18733,-0.250814 0.17155,0.36362 0.34617,1.107389 0.38804,1.652819 l 0.0761,0.991697 0.12786,-1.001048 c 0.0703,-0.550574 -0.0651,-1.580467 -0.30083,-2.288652 z m -10.768789,2.253107 c 0.16554,-0.102311 0.0806,-0.431572 -0.18874,-0.731689 -0.26935,-0.300119 -0.53936,-0.969723 -0.60002,-1.488009 l -0.1103,-0.942339 -0.942853,0.744999 c -0.808748,0.639033 -0.867519,0.787159 -0.413205,1.041405 0.759272,0.424911 0.65286,1.222244 -0.214119,1.604388 -0.579031,0.255223 -0.421277,0.286796 0.712239,0.142551 0.800808,-0.101912 1.591448,-0.268994 1.756998,-0.371306 z M -82.86351,49.961981 c 0.113231,-0.818146 0.173732,-1.526204 0.134453,-1.573461 -0.03928,-0.04725 -0.460873,0.275013 -0.936876,0.716158 -0.576581,0.534357 -1.117981,0.74794 -1.621991,0.639877 -0.661173,-0.141762 -0.691449,-0.107034 -0.240199,0.275533 0.283983,0.240756 0.618014,0.708491 0.742292,1.039411 0.146605,0.390372 0.48768,0.564506 0.971206,0.495846 0.609147,-0.08649 0.782844,-0.377488 0.951115,-1.593364 z m 4.203509,1.031589 c 0.666579,-0.422502 0.161472,-3.880075 -0.681568,-4.665486 -0.491381,-0.45779 -0.599222,-0.849012 -0.437278,-1.586339 0.150768,-0.686435 0.05467,-1.138972 -0.321784,-1.515431 -0.295207,-0.295208 -0.608018,-0.536741 -0.695136,-0.536741 -0.08712,0 -0.113681,1.932391 -0.05903,4.294202 l 0.09936,4.294202 0.82641,-0.0019 c 0.454526,-0.0011 1.025583,-0.128176 1.269019,-0.282475 z m 11.092047,-2.255095 c -0.32292,-0.236122 -0.70745,-0.429315 -0.85451,-0.429315 -0.4283,0 -0.30806,2.140893 0.14583,2.596428 0.33101,0.332217 0.50098,0.200627 0.8545,-0.661547 0.39287,-0.958132 0.37687,-1.123368 -0.14582,-1.505566 z m -27.640562,1.700608 c 0.582141,-0.407748 0.734425,-0.836711 0.733445,-2.066026 l -0.0012,-1.551434 -0.606322,0.991691 c -0.333475,0.545432 -0.838202,1.183104 -1.121612,1.417052 -0.290491,0.239793 -0.441253,0.708479 -0.345581,1.074334 0.204884,0.783474 0.388354,0.801856 1.341306,0.134383 z m -1.909832,0.03098 c 0,-0.08417 -0.31117,-0.939508 -0.691492,-1.900743 -0.528165,-1.3349 -0.662248,-2.274723 -0.567681,-3.979005 0.06809,-1.22722 0.08602,-2.231308 0.03982,-2.231308 -0.0462,0 -0.209271,0.48345 -0.362384,1.074333 -0.153113,0.590884 -0.492062,1.074571 -0.75322,1.074861 -0.341362,3.63e-4 -0.443234,0.31539 -0.362418,1.120672 0.09921,0.988549 0.03311,1.099407 -0.562637,0.943617 -1.05859,-0.276829 -1.0231,0.464257 0.0887,1.851144 1.132478,1.412736 3.171353,2.728392 3.171353,2.046429 z m 25.439267,-2.822031 c 0.371408,0 0.675289,-0.144934 0.675289,-0.322075 0,-0.177142 0.451124,-0.555362 1.002501,-0.840489 0.916297,-0.473834 1.081497,-1.151385 0.280737,-1.151385 -0.18181,0 -0.244982,0.138476 -0.14038,0.307723 0.1046,0.169247 0.0482,0.395507 -0.125458,0.502798 -0.173602,0.107297 -0.464945,-0.06838 -0.647426,-0.390363 -0.312862,-0.552042 -0.359558,-0.547843 -0.81855,0.07359 -0.361417,0.489332 -0.387614,0.726964 -0.101737,0.922835 0.259658,0.177905 0.220595,0.23245 -0.119965,0.167519 -0.612965,-0.116867 -4.33773,3.026755 -4.080136,3.443549 0.100475,0.162564 0.906534,-0.381517 1.791253,-1.209068 0.88472,-0.827552 1.912461,-1.504638 2.283871,-1.504638 z m -15.012908,1.961391 c 0.303025,-0.490305 0.01805,-0.693952 -0.625508,-0.446997 -0.297694,0.114231 -0.45896,0.340868 -0.358369,0.503628 0.247414,0.400324 0.71821,0.373227 0.983877,-0.05663 z m -5.102524,-0.308575 c 0.62538,0 0.636981,-0.253946 0.45161,-9.88678 -0.140133,-7.282008 -0.08998,-9.948757 0.190378,-10.122026 0.209351,-0.129385 2.275147,-0.312084 4.59066,-0.405998 7.551181,-0.306261 12.613828,1.456548 16.740721,5.829106 l 1.55337,1.645843 0.94728,-0.700353 0.94728,-0.700354 -0.91039,-0.963246 c -0.50072,-0.529785 -1.77765,-1.55628 -2.837624,-2.281098 -4.702315,-3.215468 -7.919906,-3.885042 -18.715224,-3.894599 l -8.081022,-0.0071 1.019529,1.074333 c 2.21934,2.338637 2.381877,3.291384 2.402773,14.084338 0.01162,5.99714 0.06991,6.707456 0.53591,6.528639 0.287586,-0.110357 0.811723,-0.20065 1.164749,-0.20065 z m 3.179641,0.10105 c -0.322868,-0.08405 -0.559726,-0.327114 -0.52635,-0.54014 0.09681,-0.617975 -0.415118,-1.557997 -0.739356,-1.357606 -0.834026,0.515457 0.22773,2.141782 1.356895,2.078399 0.338649,-0.019 0.309741,-0.07627 -0.09119,-0.180653 z m 4.38852,-0.596898 c 0,-0.272715 -0.148753,-0.495846 -0.330563,-0.495846 -0.181811,0 -0.330564,0.223131 -0.330564,0.495846 0,0.272716 0.148753,0.495846 0.330564,0.495846 0.18181,0 0.330563,-0.22313 0.330563,-0.495846 z m 9.104484,-1.300214 c 0.126895,-0.846196 0.0702,-1.703386 -0.136131,-2.05832 -0.308486,-0.530655 -0.355331,-0.481747 -0.367274,0.383458 -0.0075,0.545431 -0.109645,1.572647 -0.226927,2.282702 -0.148491,0.899016 -0.102998,1.22288 0.149822,1.066628 0.19968,-0.123413 0.460911,-0.87692 0.58051,-1.674468 z m 15.687813,1.300017 c 0,-0.602286 -0.9875,-0.648569 -1.759,-0.08245 -0.49289,0.361682 -0.41833,0.423485 0.59795,0.495648 0.84811,0.06022 1.16105,-0.05115 1.16105,-0.413205 z m -36.618414,-0.413001 c 0.909002,-1.036727 1.620534,-2.751895 1.515831,-3.653951 l -0.102473,-0.8829 -0.743769,0.801898 -0.743769,0.801899 v -0.848266 c 0,-0.466545 -0.221492,-1.032088 -0.492207,-1.25676 -0.270714,-0.224672 -0.418984,-0.526971 -0.32949,-0.671774 0.220796,-0.357255 -0.169491,-1.314631 -0.535926,-1.314631 -0.408439,0 -0.368256,4.84739 0.05275,6.363358 0.384358,1.384007 0.63844,1.505815 1.379061,0.661127 z m 8.520478,0.221658 c 0,-0.224503 0.367756,-0.276056 0.991692,-0.139017 0.771247,0.169394 0.991692,0.103148 0.991692,-0.298001 0,-0.283697 -0.352818,-0.604364 -0.784039,-0.712594 -0.861498,-0.216222 -1.698708,-1.477546 -1.446858,-2.179806 0.205967,-0.574324 -0.703929,-2.160579 -1.380024,-2.405845 -0.286622,-0.103973 -0.698903,-0.273004 -0.916181,-0.375615 -0.268565,-0.126831 -0.360013,0.111382 -0.285615,0.743982 0.0602,0.5118 0.143655,1.599939 0.185475,2.418085 0.04182,0.818145 0.144065,1.227218 0.227211,0.909051 0.264295,-1.011352 0.74222,-0.626492 1.128874,0.909051 0.217627,0.864277 0.565877,1.487538 0.83117,1.487538 0.251132,0 0.456603,-0.160574 0.456603,-0.356829 z m 11.507222,-4.601631 c -0.01187,-1.592035 -0.04228,-1.674241 -0.244857,-0.661128 -0.127239,0.636335 -0.398596,1.46499 -0.603014,1.841454 -0.276154,0.508579 -0.27323,1.060757 0.01137,2.148667 l 0.38305,1.464184 0.233479,-1.487538 c 0.128412,-0.818144 0.227396,-2.305682 0.219965,-3.305639 z m 16.242344,3.589132 c 0.64613,-0.323243 0.98291,-0.59364 0.7484,-0.600884 -0.46598,-0.01439 -3.04454,1.231212 -3.04454,1.470709 0,0.184851 0.7741,-0.108396 2.29614,-0.869825 z m -23.452235,0.02756 c 0,-0.374351 -0.148753,-0.588702 -0.330563,-0.476337 -0.181811,0.112369 -0.330564,0.418651 -0.330564,0.680636 0,0.261985 0.148753,0.476337 0.330564,0.476337 0.18181,0 0.330563,-0.306286 0.330563,-0.680636 z m 10.908612,-2.953443 c -0.803112,-0.616142 -0.843745,-0.616833 -1.441328,-0.02454 -0.362443,0.359238 -0.682681,1.26938 -0.779956,2.21669 l -0.165035,1.607203 1.606365,-1.582673 1.606364,-1.582673 z m 12.304823,1.118505 c -0.1137,-0.594697 0.0385,-0.854403 0.63192,-1.078451 1.10787,-0.418275 1.37735,-0.131257 1.16375,1.239461 -0.17216,1.104793 -0.14936,1.147869 0.29413,0.555923 0.61617,-0.822399 0.60506,-1.182413 -0.066,-2.140442 -0.43204,-0.616828 -0.46671,-0.908657 -0.16528,-1.391322 0.50087,-0.80203 0.48522,-1.117396 -0.0341,-0.686419 -0.22853,0.189664 -1.23261,0.566247 -2.23131,0.83685 -1.50818,0.408654 -1.63912,0.497094 -0.77292,0.522041 1.03129,0.0297 1.04088,0.04566 0.86357,1.434935 -0.23849,1.868631 -0.4189,1.999135 -0.4189,0.303017 0,-1.003936 -0.13443,-1.377351 -0.49585,-1.377351 -0.38126,0 -0.49584,0.424465 -0.49584,1.836791 v 1.836791 l 0.93825,-0.554244 c 0.71357,-0.421516 0.9024,-0.741835 0.78852,-1.33758 z m 0.58717,-1.781758 c 0,-0.18181 0.14876,-0.330563 0.33057,-0.330563 0.18181,0 0.33056,0.148753 0.33056,0.330563 0,0.181811 -0.14875,0.330564 -0.33056,0.330564 -0.18181,0 -0.33057,-0.148753 -0.33057,-0.330564 z m -24.645759,2.57096 c 0.283025,-0.404075 0.514591,-0.832994 0.514591,-0.953155 0,-0.299827 -1.675733,-0.596571 -2.210356,-0.391417 -0.890941,0.341886 -0.247395,2.079252 0.770186,2.079252 0.226044,0 0.642554,-0.330606 0.925579,-0.73468 z m 1.236321,-0.328634 c -0.2372,-0.2372 -0.391167,-0.256718 -0.391167,-0.04959 0,0.44123 0.390929,0.832159 0.611543,0.611544 0.09394,-0.09394 -0.0052,-0.346817 -0.220376,-0.561959 z m 24.337748,-0.673626 c 0.0746,-0.384363 -0.0806,-0.477474 -0.5785,-0.347257 -0.69923,0.182852 -0.8523,0.47982 -0.45311,0.879017 0.34829,0.348284 0.91783,0.05471 1.03161,-0.53176 z m -15.156414,-2.64303 c 0.0076,-0.136357 -0.218055,-0.247923 -0.501499,-0.247923 -0.283445,0 -0.42342,-0.148754 -0.311056,-0.330564 0.112369,-0.181811 0.02817,-0.330564 -0.187093,-0.330564 -0.257443,0 -0.32439,-0.335013 -0.195619,-0.978875 0.107672,-0.538381 0.0519,-1.067799 -0.123963,-1.176483 -0.175854,-0.108683 -0.319736,-0.04008 -0.319736,0.152465 0,0.19254 -0.288728,0.350073 -0.64162,0.350073 -0.742345,0 -1.319655,0.723592 -0.733259,0.919057 0.775736,0.258578 1.37496,1.12575 1.379941,1.996989 0.0041,0.717774 0.07196,0.791547 0.358395,0.389594 0.267519,-0.37542 0.308768,-0.21485 0.169841,0.661128 l -0.183492,1.156974 0.637652,-1.156974 c 0.350707,-0.636336 0.643886,-1.268539 0.651508,-1.404897 z m -3.355626,1.230868 c -0.101774,-0.101774 -0.286614,0.08169 -0.410752,0.407696 -0.179392,0.471119 -0.141422,0.509089 0.185049,0.185047 0.225913,-0.224233 0.32748,-0.490967 0.225703,-0.592743 z m 7.832091,0.504593 c -0.11236,-0.18181 -0.50041,-0.330564 -0.862331,-0.330564 -0.91946,0 -2.488099,-0.862035 -2.73381,-1.502349 -0.319787,-0.833349 -0.254043,-1.093461 0.455787,-1.803291 0.4238,-0.4238 0.506864,-0.661128 0.231394,-0.661128 -1.306393,0 -1.706437,2.565613 -0.554594,3.556799 1.032363,0.888371 3.939014,1.509833 3.463554,0.740533 z m -16.602745,-0.20092 c 0.291181,-0.291182 -0.505596,-1.451899 -0.996659,-1.451899 -0.228981,0 -0.41633,0.371884 -0.41633,0.82641 0,0.580992 0.179974,0.82641 0.606035,0.82641 0.333318,0 0.696448,-0.09042 0.806954,-0.200921 z m 2.40209,-0.151636 c 0.360095,-0.582645 -0.01951,-0.664335 -0.698852,-0.150386 -0.559269,0.423113 -0.56879,0.483199 -0.07802,0.49243 0.307438,0.0057 0.65703,-0.148137 0.776872,-0.342044 z m 17.183925,-0.321821 c 0.13955,-0.225794 -0.10906,-0.26554 -0.72426,-0.115779 l -0.93675,0.228029 0.66113,-0.762521 0.66113,-0.762522 -0.82641,0.200736 c -0.78624,0.190979 -0.79522,0.177432 -0.18475,-0.278668 0.67147,-0.501663 0.33222,-0.66771 -0.40655,-0.198993 -0.6451,0.409287 0.0691,2.033537 0.89417,2.033537 0.35739,0 0.74542,-0.154716 0.86229,-0.343814 z M -81.581839,43.19705 c 0,-0.476462 -0.274518,-0.961697 -0.661129,-1.168605 -0.724938,-0.387975 -0.819543,-0.128963 -0.452777,1.239614 0.270903,1.010876 1.113906,0.957136 1.113906,-0.07101 z m 3.437208,-1.768458 c -0.55703,-0.85608 -0.556083,-0.870035 0.02664,-0.391966 0.332325,0.272643 0.798743,0.942036 1.036483,1.487538 0.237742,0.545499 0.438079,0.798489 0.445196,0.562199 0.02587,-0.859211 -1.012966,-2.380888 -1.959625,-2.870425 -1.255125,-0.649051 -1.630743,-0.640361 -0.81777,0.01892 0.352917,0.286198 0.455725,0.426173 0.228462,0.311055 -0.570459,-0.28896 -0.520835,0.320564 0.06573,0.807372 0.263415,0.218616 0.670088,0.94341 0.90372,1.610655 0.421925,1.205007 0.425538,1.20691 0.536774,0.282755 0.06159,-0.511729 -0.147929,-1.329875 -0.465607,-1.818101 z m 9.174457,1.589552 c 0.21434,-0.614868 0.64885,-1.069595 1.13977,-1.19281 0.87999,-0.220863 0.94859,-0.715899 0.33459,-2.414506 l -0.40849,-1.130078 -0.76866,1.079474 c -0.55462,0.778895 -0.78099,1.576808 -0.81294,2.86554 -0.0244,0.982335 0.004,1.786065 0.0625,1.786065 0.0587,0 0.26268,-0.447158 0.45321,-0.993685 z M -94.721759,41.50123 c 0.329203,-0.324127 0.320734,-4.761809 -0.0091,-4.761809 -0.416405,0 -1.781357,1.004064 -3.447673,2.536122 -0.855808,0.786856 -1.78552,1.430646 -2.066028,1.430646 -0.2805,0 -0.51,0.148754 -0.51,0.330564 0,0.455376 0.22238,0.416688 1.1686,-0.2033 0.448129,-0.293625 0.814781,-0.413948 0.814781,-0.267384 0,0.146565 0.193277,0.0021 0.429505,-0.320904 0.285747,-0.390783 0.755977,-0.550233 1.404898,-0.476386 0.933681,0.106247 0.971315,0.173607 0.880094,1.575083 -0.134352,2.064105 0.227904,2.803663 0.711265,1.452077 0.206648,-0.577835 0.487289,-1.160454 0.623646,-1.294709 z m 0.242861,1.270983 c -0.004,-0.708377 -0.0758,-0.799593 -0.325501,-0.413204 -0.417969,0.64676 -0.417969,1.322256 0,1.322256 0.181809,0 0.328286,-0.409073 0.325501,-0.909052 z m 10.516998,0.512376 c 0.589654,-0.589655 0.48041,-1.518634 -0.222844,-1.895005 -0.878151,-0.469971 -1.73077,0.516482 -1.337903,1.547912 0.311842,0.818704 0.947722,0.960118 1.560747,0.347093 z m 13.288673,-0.429734 c 0,-0.945349 -0.385088,-1.061479 -1.012602,-0.30537 -0.358373,0.431814 -0.351153,0.572466 0.04217,0.821348 0.757541,0.479352 0.970437,0.366155 0.970436,-0.515978 z m 0.991693,-0.405167 c 0,-1.036178 -0.15834,-0.916303 -0.462597,0.350224 -0.1476,0.614413 -0.106721,0.863631 0.118779,0.724259 0.189098,-0.116866 0.343808,-0.600386 0.343808,-1.074483 z m -19.085302,-0.288279 c 0.321687,-0.321687 -0.11999,-1.124656 -0.618624,-1.124656 -0.253264,0 -0.460479,0.198338 -0.460479,0.440752 0,0.732142 0.630972,1.132035 1.079103,0.683904 z m 2.691985,-0.62881 c 0.576336,-0.879601 0.26524,-1.063811 -0.817744,-0.484216 -0.735353,0.39355 -0.862401,1.310626 -0.181569,1.310626 0.251806,0 0.701496,-0.371885 0.999313,-0.82641 z m 15.959558,-1.402627 c 1.056709,-1.225971 2.715789,-3.011016 3.686839,-3.966768 0.97104,-0.955752 1.613129,-1.737731 1.426859,-1.737731 -0.186269,0 -1.278269,1.07405 -2.426669,2.386777 -1.14839,1.312728 -2.811479,3.097773 -3.695741,3.966768 -0.884264,0.868996 -1.45134,1.579991 -1.260168,1.579991 0.191171,0 1.212167,-1.003067 2.26888,-2.229037 z m -11.300166,1.239122 c -0.111756,-0.180832 -0.492424,-0.483573 -0.84592,-0.672758 -0.50034,-0.267774 -0.642716,-0.236923 -0.642716,0.139266 0,0.420253 0.458428,0.685425 1.424406,0.823934 0.147086,0.02109 0.175991,-0.109608 0.06423,-0.290442 z m 8.409528,-1.14716 c 0.196977,-0.121739 0.795555,-0.23378 1.330174,-0.24898 0.709346,-0.02016 1.244159,-0.366256 1.978973,-1.280637 0.55382,-0.689151 1.00694,-1.326748 1.00694,-1.416883 0,-0.09014 -0.52303,-0.07901 -1.16228,0.02472 -0.814371,0.132154 -1.655452,0.686984 -2.809797,1.853517 -1.685165,1.702956 -1.821785,1.929175 -1.412352,2.338607 0.129336,0.129338 0.342043,-0.05377 0.472681,-0.406926 0.130637,-0.353147 0.398685,-0.741689 0.595661,-0.863427 z m -24.9684,-1.465427 c 0.852891,-0.943817 0.531915,-1.141637 -1.127401,-0.69483 -0.763944,0.205708 -1.458318,0.304688 -1.543058,0.219954 -0.22707,-0.227077 2.164856,-0.963724 3.12926,-0.963724 1.057129,0 3.041695,-1.158235 3.041695,-1.775199 0,-0.510101 -0.747722,-0.866213 -2.814455,-1.340424 -1.268573,-0.291073 -1.358209,-0.257331 -2.038588,0.767373 -0.485129,0.730644 -0.588872,1.122293 -0.325903,1.23035 0.379661,0.156008 0.106821,0.457066 -1.048379,1.156827 -0.24335,0.147409 -0.48961,0.700999 -0.54724,1.230199 -0.0576,0.5292 -0.21398,1.309901 -0.34743,1.734891 l -0.24266,0.77271 1.6163,-0.819622 c 0.888969,-0.450791 1.900504,-1.134118 2.247859,-1.518505 z m 10.772903,1.7844 c 0.226335,-0.272715 0.616432,-0.495846 0.866886,-0.495846 0.250453,0 0.455371,-0.148754 0.455371,-0.330564 0,-0.18181 -0.223131,-0.330564 -0.495846,-0.330564 -0.801382,0 -0.567875,-0.98067 0.313275,-1.315683 0.445017,-0.169196 1.05714,-0.686152 1.360274,-1.148792 0.303135,-0.46264 0.74512,-0.841165 0.982192,-0.841165 0.237071,0 0.883077,-0.259434 1.43557,-0.576522 0.789032,-0.452841 0.964146,-0.737421 0.816284,-1.326548 -0.103535,-0.412515 -0.01647,-0.957007 0.193485,-1.209983 0.320605,-0.386306 0.181873,-0.41488 -0.866396,-0.178457 -1.348462,0.304126 -2.886609,1.860509 -3.251118,3.289661 -0.315567,1.237259 -0.79337,1.654669 -1.894076,1.654669 -1.341096,0 -3.22154,1.195962 -3.22154,2.048899 0,0.504641 0.161345,0.630529 0.645764,0.50385 0.355171,-0.09288 0.912998,0.03379 1.239615,0.281496 0.763194,0.578796 0.921877,0.576065 1.42026,-0.02445 z m 3.636205,0.04584 c 0,-0.314277 -0.274185,-0.39559 -0.909051,-0.269589 l -0.909051,0.180416 0.82641,0.236639 c 0.454525,0.130151 0.863598,0.251467 0.90905,0.269589 0.04545,0.01812 0.08265,-0.169552 0.08265,-0.417055 z m 2.959923,-0.900562 c -0.202937,-0.379191 -0.452499,-0.605917 -0.554581,-0.503834 -0.102087,0.102086 0.0025,0.412331 0.23254,0.689439 0.594293,0.71608 0.75503,0.623441 0.322041,-0.185605 z m -3.800451,0.05115 c 0.104598,-0.169248 0.05459,-0.391525 -0.111132,-0.493947 -0.165725,-0.102424 -0.386613,0.03604 -0.490863,0.307722 -0.205511,0.535554 0.291147,0.689192 0.601998,0.186225 z m 6.456334,-1.510379 c -0.21304,-1.476705 -0.243153,-1.523614 -0.282615,-0.440242 -0.03918,1.07564 0.239708,2.449455 0.444567,2.189959 0.04208,-0.0533 -0.03081,-0.840667 -0.161952,-1.749717 z m 1.113408,0.90905 c -0.123876,-0.499978 -0.337053,-1.280936 -0.473731,-1.735461 -0.241295,-0.802427 -0.249199,-0.79763 -0.272405,0.165282 -0.03091,1.282734 0.293908,2.47923 0.673053,2.47923 0.16407,0 0.196957,-0.409073 0.07308,-0.909051 z m -1.885285,-1.222585 c -0.220776,-2.549484 -0.488592,-2.783519 -1.412441,-1.234291 -1.045166,1.752668 -0.814735,2.224556 1.465049,3.000197 0.05685,0.01934 0.03317,-0.775317 -0.05261,-1.765906 z m 5.403554,0.939296 c 0,-0.270802 -0.340409,-0.46048 -0.826409,-0.46048 -0.858525,0 -1.170706,0.816501 -0.413205,1.080732 0.615359,0.214651 1.239614,-0.0977 1.239614,-0.620252 z m -7.960496,-0.912703 c 0.85336,-1.380765 0.879904,-1.952758 0.04413,-0.950831 l -0.621969,0.745612 -0.362391,-0.910893 c -0.199315,-0.500992 -0.303241,-0.613388 -0.230947,-0.249767 0.07229,0.363621 0.245253,0.938752 0.384353,1.27807 0.226452,0.552404 0.175543,0.575538 -0.486654,0.221141 -0.406759,-0.217691 -0.81241,-0.322955 -0.901445,-0.233919 -0.08903,0.08903 0.146836,0.259864 0.524157,0.379621 0.377323,0.119753 0.68604,0.356471 0.68604,0.526029 0,0.549741 0.26312,0.33017 0.964732,-0.805063 z m 5.745106,0.243477 c 0.270867,-0.270866 -0.355773,-1.444073 -0.771316,-1.444073 -0.175414,0 -0.318933,0.272715 -0.318933,0.606033 0,0.892694 0.585522,1.342768 1.090249,0.83804 z m 14.399965,-0.369738 c -0.0483,-0.318167 0.0235,-1.003311 0.15959,-1.52254 0.36893,-1.407608 -0.53567,-2.658463 -1.70951,-2.363849 -1.21022,0.303746 -1.27866,0.439791 -0.49678,0.987444 0.3723,0.26077 0.86611,1.149872 1.09735,1.97578 0.40018,1.429314 1.13467,2.143549 0.94935,0.923165 z m -28.006958,-0.222255 1.112286,-0.470177 -0.936791,-0.358597 c -1.098029,-0.420318 -1.542439,-0.230925 -1.542439,0.657334 0,0.76657 -0.03157,0.762611 1.366944,0.17144 z m 17.139577,-0.273591 c -0.0041,-0.60144 -0.06638,-0.648883 -0.325502,-0.247922 -0.41417,0.640884 -0.41417,0.991692 0,0.991692 0.181811,0 0.328286,-0.334697 0.325502,-0.74377 z m 12.373611,-0.292581 c 0.28343,0.458607 1.18457,0.499038 1.18457,0.05315 0,-0.415032 -1.83385,-1.37009 -2.10675,-1.097185 -0.11394,0.113956 -0.20192,0.66585 -0.19548,1.226431 l 0.0113,1.01924 0.43702,-0.788429 c 0.28219,-0.509107 0.51917,-0.655496 0.66892,-0.413205 z m -13.416539,-0.413989 c 0.09781,-0.85662 0.03001,-0.933349 -0.661129,-0.748283 -0.423561,0.113419 -0.881676,0.208242 -1.018034,0.210725 -0.314644,0.0057 -0.325271,1.139233 -0.0136,1.450903 0.569391,0.56939 1.586103,0.02081 1.692765,-0.913345 z m -27.563246,0.156318 c 0.10276,-0.166282 -2e-5,-0.378089 -0.22841,-0.47068 -0.31417,-0.127366 -0.29456,-0.253718 0.0806,-0.519018 0.41063,-0.290403 0.36802,-0.351538 -0.24793,-0.35573 -0.50269,-0.0034 -0.74377,0.191368 -0.74377,0.600972 0,0.942468 0.72459,1.415842 1.13953,0.744456 z m 14.850699,-1.057188 c 0.114892,-0.574494 0.738383,-1.542417 1.388488,-2.155546 l 1.179947,-1.112832 h -1.005777 c -0.848044,0 -1.056467,-0.168485 -1.329002,-1.074334 -0.256476,-0.852469 -0.28321,-0.642956 -0.129453,1.01453 0.167925,1.810219 0.09753,2.219046 -0.527768,3.064798 -0.396848,0.536766 -0.630076,1.123931 -0.518286,1.304812 0.32306,0.522723 0.715894,0.08836 0.941851,-1.041428 z m 4.774127,0.204815 c 0.351552,-0.771572 0.333852,-0.798128 -0.277503,-0.416331 -0.359154,0.224296 -0.653006,0.595159 -0.653006,0.82414 0,0.698387 0.532907,0.464832 0.930509,-0.407809 z m 11.30036,0.647227 c 0,-0.0973 -0.256526,-0.568419 -0.570057,-1.046925 l -0.570054,-0.870013 -0.204281,0.799002 c -0.112357,0.439451 -0.144563,0.910567 -0.07156,1.046925 0.150059,0.280315 1.415962,0.343801 1.415962,0.07101 z m -18.718797,-0.566857 c -0.633539,-1.063163 -1.595954,-2.231307 -1.838338,-2.231307 -0.147619,0 -0.268398,0.424742 -0.268398,0.943873 0,0.77381 0.193567,1.005967 1.074333,1.288508 0.590882,0.189552 1.1203,0.359824 1.176482,0.378384 0.05618,0.01857 -0.0086,-0.152196 -0.144079,-0.379458 z m 12.243184,-0.849631 c -0.254188,-0.487206 -0.463077,-1.071773 -0.464196,-1.299036 -0.003,-0.617516 -0.594326,-0.498368 -0.965126,0.194481 -0.65211,1.218477 0.281705,2.528281 1.509925,2.117879 0.276994,-0.09255 0.254905,-0.370247 -0.08061,-1.013324 z m -3.441308,-0.508258 c 0,-0.419997 -0.152688,-0.232465 -0.634588,0.779402 -0.371106,0.779228 -0.364226,0.789775 0.120502,0.184742 0.282745,-0.352917 0.514082,-0.786782 0.514082,-0.964144 z m 21.80875,0.795225 c 0.27198,-0.508175 0.20787,-0.773396 -0.30165,-1.248079 -0.45608,-0.424914 -0.55605,-0.746584 -0.33878,-1.090156 0.43056,-0.680838 0.39515,-2.305485 -0.0502,-2.305485 -0.21922,0 -0.13558,-0.355593 0.20643,-0.877561 0.55407,-0.845635 0.55246,-0.867326 -0.0446,-0.596182 -0.34079,0.154759 -1.33096,0.312265 -2.20037,0.350013 -0.86942,0.03774 -1.80893,0.258008 -2.08782,0.489466 -0.66835,0.554676 -1.45517,2.099967 -1.45517,2.857892 0,0.510707 0.21628,0.583106 1.40489,0.47027 0.7727,-0.07335 1.75966,-0.41198 2.19325,-0.752505 0.43359,-0.340525 0.95423,-0.618398 1.15698,-0.617494 0.20274,8.92e-4 -0.0546,0.340312 -0.57186,0.754243 l -0.94048,0.7526 0.72521,1.229141 c 0.80227,1.359753 1.75923,1.602221 2.30426,0.583837 z m -30.050707,-0.929332 c -0.142843,-0.497526 -0.615333,-1.443956 -1.049979,-2.103178 -0.434647,-0.659222 -0.967461,-1.477367 -1.184033,-1.818101 -0.344411,-0.541871 -0.3962,-0.458814 -0.413204,0.662673 -0.01542,1.016391 0.220402,1.547668 1.137535,2.562824 0.636335,0.704347 1.156973,1.437736 1.156973,1.629752 0,0.192016 0.137795,0.263959 0.306211,0.159872 0.172338,-0.106509 0.192666,-0.584728 0.0465,-1.093842 z m 1.630676,-2.290029 v -2.416051 h -1.468029 c -1.781616,0 -2.057067,0.352894 -1.289582,1.652142 0.741315,1.254947 0.923306,1.244102 1.375526,-0.08196 l 0.366371,-1.074333 -0.211208,1.156974 c -0.23448,1.284461 -0.223409,1.639436 0.102274,3.279443 0.208414,1.049478 0.256916,1.086527 0.674602,0.515308 0.282492,-0.386332 0.450042,-1.514965 0.450042,-3.031521 z m 12.164756,2.806861 c 0.573388,-0.573389 0.487863,-1.18408 -0.218787,-1.562268 -0.877197,-0.469462 -1.749415,0.242122 -1.48949,1.215176 0.21553,0.80686 1.074069,0.9813 1.708277,0.347092 z m -26.62099,-1.338784 c 0.19681,-1.292245 0.0872,-1.466421 -0.57644,-0.915681 -0.51958,0.431211 -0.67177,1.38133 -0.28346,1.769638 0.44637,0.446364 0.70026,0.194219 0.8599,-0.853957 z m 1.490023,-0.495846 c 0.475584,-0.369984 0.4769,-0.413206 0.01259,-0.413206 -0.765314,0 -1.376943,0.885891 -1.081173,1.56597 0.23216,0.533815 0.265334,0.527234 0.395431,-0.07844 0.07811,-0.36362 0.381025,-0.84707 0.673152,-1.074333 z m 19.998268,-1.204498 c 0.321284,0.321286 0.264595,-0.531692 -0.09022,-1.357373 -0.262675,-0.61128 -0.288739,-0.598817 -0.345676,0.165281 -0.04317,0.579326 -0.106784,0.653451 -0.212754,0.247924 -0.08315,-0.318167 -0.294255,-0.578487 -0.46913,-0.578487 -0.478741,0 -1.947516,1.02589 -1.947516,1.360274 0,0.471026 0.725022,0.337189 1.378869,-0.254533 0.567987,-0.514022 0.604515,-0.503763 0.604515,0.169766 0,0.394267 -0.17223,0.992632 -0.382734,1.329702 -0.219171,0.350951 -0.273575,0.878784 -0.127302,1.235129 0.20713,0.504609 0.359067,0.321591 0.803508,-0.967879 0.301445,-0.874585 0.656239,-1.481997 0.788433,-1.349804 z m 7.51276,2.495346 c 0,-0.36779 -1.282926,-1.523008 -1.476454,-1.32948 -0.372197,0.372197 0.284138,1.608811 0.85388,1.608811 0.342415,0 0.622574,-0.125699 0.622574,-0.279331 z m -23.141324,-0.629721 c -0.0049,-0.647434 -0.718837,-2.724941 -0.995256,-2.895776 -0.44102,-0.272566 -1.647412,0.43497 -1.647412,0.966188 0,0.244057 -0.223131,0.628922 -0.495846,0.855255 -0.809227,0.6716 -0.578078,0.946272 0.909051,1.080217 0.772693,0.06959 1.590838,0.152525 1.818101,0.184288 0.227263,0.03176 0.412375,-0.05381 0.411362,-0.190172 z m 29.422039,-0.08265 c 0,-0.18181 -0.22313,-0.330565 -0.49585,-0.330565 -0.27271,0 -0.49584,0.148755 -0.49584,0.330565 0,0.181809 0.22313,0.330564 0.49584,0.330564 0.27272,0 0.49585,-0.148755 0.49585,-0.330564 z m -12.346275,-0.49584 c 0.05756,-0.18181 -0.04168,-0.553695 -0.220531,-0.82641 -0.289058,-0.440753 -0.361357,-0.440753 -0.650692,0 -0.501234,0.763542 -0.395729,1.382389 0.215468,1.263853 0.303103,-0.05878 0.598191,-0.255633 0.655755,-0.437443 z m 2.064319,-0.467546 c 0.636312,-0.40291 0.203884,-1.350556 -0.616281,-1.350556 -0.430779,0 -0.671503,0.217255 -0.671503,0.606034 0,0.997844 0.46403,1.26612 1.287784,0.744522 z m 9.563516,0.01412 c 0.63339,-0.401563 0.7482,-3.932199 0.14741,-4.532998 -0.65714,-0.657137 -0.8323,-0.582957 -0.57058,0.241643 0.18989,0.598292 0.11801,0.681499 -0.45843,0.530754 -0.48427,-0.12664 -0.84033,0.06039 -1.22102,0.641413 -0.29557,0.4511 -0.48833,0.858403 -0.42835,0.905116 0.06,0.04671 0.77844,0.47866 1.59659,0.959884 0.81815,0.481223 1.24798,0.876358 0.95518,0.878077 -0.60862,0.0036 -2.91058,-1.485062 -3.46151,-2.238498 -0.20265,-0.27714 -0.522916,-0.408426 -0.711707,-0.291746 -0.188792,0.116679 -0.527077,-0.0094 -0.751752,-0.280062 -0.224672,-0.270713 -0.724977,-0.48528 -1.111787,-0.476815 -0.514453,0.01124 -0.303876,0.230364 0.784244,0.816005 0.818146,0.440337 2.156932,1.315976 2.975072,1.945865 1.67515,1.289689 1.65611,1.282086 2.25664,0.901362 z m -33.001178,-2.273723 c 0.003,-0.578882 -0.660471,-0.514374 -1.376778,0.133874 -1.02304,0.925835 -0.76263,1.495525 0.38509,0.842443 0.544278,-0.309711 0.990539,-0.749054 0.991688,-0.976317 z m 0.752151,1.35335 c -0.223802,-0.09055 -0.670064,-0.09606 -0.991692,-0.01224 -0.321629,0.08381 -0.138517,0.157897 0.406914,0.164634 0.54543,0.0067 0.808581,-0.06183 0.584778,-0.152386 z m 34.407476,-0.894809 c 0.32926,-0.6114 1.15184,-1.422546 1.82796,-1.802546 0.67612,-0.38 1.48777,-0.976512 1.80368,-1.325583 0.54796,-0.605492 0.54336,-0.642782 -0.1,-0.811018 -0.47754,-0.124875 -0.67583,-0.450692 -0.67941,-1.116342 -0.006,-1.274776 -0.48326,-2.03241 -0.78444,-1.247539 -0.20552,0.535581 -0.25117,0.5322 -0.67699,-0.05014 -0.33448,-0.457438 -0.92203,-0.641263 -2.19687,-0.687338 l -1.740269,-0.06289 0.96619,0.770416 c 0.531399,0.423728 1.076129,0.702472 1.210489,0.619429 0.13437,-0.08305 0.15571,0.07987 0.0474,0.362029 -0.10827,0.282158 -0.10269,0.758429 0.0124,1.058379 0.18402,0.479565 0.30794,0.452673 1.02706,-0.222905 0.44978,-0.422546 0.81778,-0.669254 0.81778,-0.548238 0,0.121014 -0.42428,0.630396 -0.94284,1.131955 -1.30021,1.257571 -1.70169,2.13051 -1.70169,3.699988 0,1.635152 0.31811,1.701772 1.10944,0.23235 z m -19.951592,0.285227 -0.826411,-0.472417 0.826411,-0.03781 c 0.509898,-0.02332 0.636502,-0.107633 0.330564,-0.22013 -0.272715,-0.100275 -0.756166,-0.409095 -1.074334,-0.686264 -0.333261,-0.290318 -0.578487,-0.350368 -0.578487,-0.141657 0,0.199259 0.151181,0.455724 0.335956,0.569922 0.184777,0.114192 0.250375,0.346107 0.145774,0.515355 -0.306332,0.495656 0.160633,0.969784 0.942676,0.957136 0.699714,-0.01137 0.696252,-0.02772 -0.102149,-0.484133 z m 1.437734,0.01062 c 0.102411,-0.26689 0.04395,-0.573177 -0.129916,-0.680635 -0.17387,-0.107459 -0.316126,0.110907 -0.316126,0.48526 0,0.798169 0.183829,0.87869 0.446042,0.195377 z m 4.767227,-0.237848 c -0.204313,-0.612938 -0.915937,-0.714599 -0.915937,-0.130847 0,0.287867 0.235526,0.523393 0.523392,0.523393 0.287867,0 0.464511,-0.176646 0.392545,-0.392546 z m -20.278671,-0.639211 c -0.214226,-0.346625 -0.80167,-0.06837 -0.80167,0.379727 0,0.165375 0.222275,0.215385 0.493947,0.111132 0.271671,-0.104248 0.410146,-0.325138 0.307723,-0.490863 z m 1.691152,-0.312527 c 0.339179,-0.548804 0.03475,-0.624906 -0.43983,-0.109945 -0.234432,0.254378 -0.280399,0.462505 -0.102149,0.462505 0.178248,0 0.42214,-0.15865 0.54198,-0.352556 z m -0.519951,-0.757143 c -0.0057,-0.207811 -0.221491,-0.656438 -0.479352,-0.996949 -0.447382,-0.590775 -0.478583,-0.580288 -0.681736,0.229135 -0.117091,0.466535 -0.119752,0.998958 -0.0059,1.183161 0.260055,0.420778 1.181138,0.09295 1.166995,-0.415347 z m 14.059482,0.448571 c -0.112369,-0.181809 -0.501807,-0.330563 -0.865427,-0.330563 -0.363621,0 -0.569193,0.148754 -0.456828,0.330563 0.112368,0.181811 0.501806,0.330565 0.865427,0.330565 0.363621,0 0.569193,-0.148754 0.456828,-0.330565 z m -15.620883,-0.826409 c 0.08688,-0.454526 0.02985,-0.82641 -0.126746,-0.82641 -0.156598,0 -0.284724,0.371884 -0.284724,0.82641 0,0.454525 0.05703,0.826409 0.126746,0.826409 0.06972,0 0.197836,-0.371884 0.284724,-0.826409 z m -0.886168,-1.355684 c -0.169462,-0.675193 -0.306037,-0.752232 -0.833295,-0.47005 -0.34684,0.185622 -0.72865,0.646369 -0.84847,1.023884 -0.11981,0.377515 -0.28961,0.614627 -0.37733,0.526917 -0.0877,-0.08771 0.0784,-0.619559 0.36924,-1.181886 0.42154,-0.815167 0.74476,-1.025396 1.594554,-1.037134 l 1.065845,-0.01472 -0.786185,-0.563764 c -0.4324,-0.31007 -1.213354,-0.961395 -1.735464,-1.447387 -0.90263,-0.840204 -0.94927,-0.849605 -0.94927,-0.191311 0,0.380771 0.25649,0.97573 0.56997,1.32213 0.54262,0.599585 0.53384,0.657079 -0.18292,1.19773 -0.64478,0.486362 -0.70407,0.696333 -0.41287,1.462236 0.37585,0.988572 0.67757,1.100016 1.30255,0.481119 0.33432,-0.331076 0.493044,-0.281799 0.798539,0.247923 0.35729,0.619534 0.389032,0.623088 0.504532,0.0565 0.06779,-0.332548 0.03205,-0.968028 -0.07942,-1.412179 z m 31.106331,0.123226 c -0.21177,-0.134725 -0.70847,-0.247233 -1.10378,-0.250017 l -0.718759,-0.0051 0.706559,0.793246 c 0.64048,0.719052 0.74372,0.742437 1.10379,0.250018 0.301,-0.411648 0.30395,-0.602563 0.0122,-0.788185 z m 9.920419,-0.255079 0.11732,-1.487538 -0.83654,0.991692 c -0.46008,0.545431 -1.09454,1.263 -1.40989,1.594601 -0.55064,0.579004 -0.52213,0.598663 0.7192,0.495846 1.27541,-0.105635 1.29414,-0.126832 1.40991,-1.594601 z m -13.264969,0.938632 c 0.46308,0.210993 1.16966,0.371892 1.57018,0.357552 0.52108,-0.01865 0.26201,-0.249242 -0.910782,-0.810654 -1.11239,-0.532498 -2.068272,-0.749227 -2.975074,-0.674544 -0.734846,0.06052 -1.063523,0.04148 -0.730394,-0.04232 0.576088,-0.144904 0.577624,-0.183361 0.03141,-0.786922 -0.713107,-0.787975 -2.370786,-0.826505 -4.035993,-0.09382 l -1.228997,0.540762 1.156974,0.285948 c 0.636336,0.157272 1.566046,0.308451 2.066025,0.335954 0.499978,0.0275 0.909051,0.163724 0.909051,0.302716 0,0.500123 1.800975,0.876347 2.561871,0.535176 0.518056,-0.232286 0.999281,-0.217072 1.585733,0.05014 z m 6.755949,-1.637823 c 0.003,-0.293649 -0.30765,-0.931452 -0.689849,-1.417339 -0.55045,-0.699788 -0.79096,-0.803715 -1.15697,-0.499949 -0.74098,0.614953 -0.54185,1.84461 0.4214,2.602305 0.92549,0.727983 1.414249,0.493097 1.425419,-0.685017 z m -2.970019,-0.686198 c 0,-0.671059 0.14876,-1.312041 0.33057,-1.424406 0.18181,-0.112369 0.33056,-0.438712 0.33056,-0.725216 0,-0.364162 -0.20303,-0.262803 -0.6747,0.33683 -0.37109,0.471761 -1.41647,1.261465 -2.323069,1.754897 -1.875055,1.020534 -1.743652,1.278 0.652259,1.278 h 1.68438 z m -26.445118,0.228413 c 0.09209,-0.184191 -0.398307,-0.376868 -1.107518,-0.435137 -1.176036,-0.09663 -1.226298,-0.140623 -0.661128,-0.57873 0.592515,-0.459305 0.590966,-0.48682 -0.04945,-0.878486 -0.363621,-0.222381 -0.735505,-0.410492 -0.82641,-0.418024 -0.0909,-0.0075 -0.373791,-0.145708 -0.628636,-0.307057 -0.310147,-0.196365 -0.595444,-0.112719 -0.862851,0.252984 -0.497056,0.679765 -0.822462,0.699746 -0.822462,0.0505 0,-0.533518 -0.30276,-0.612615 -1.129943,-0.295197 -0.63114,0.242195 -0.69446,0.791043 -0.0913,0.791043 0.2374,0 0.921639,0.361518 1.52054,0.803374 0.609881,0.449955 1.328883,0.721232 1.634401,0.616655 0.423622,-0.145001 0.406491,-0.07832 -0.07667,0.298466 -0.5679,0.442863 -0.466986,0.482783 1.156974,0.457677 0.978529,-0.01513 1.853519,-0.17626 1.944424,-0.35807 z m -1.900743,-0.06258 c 0.318169,-0.08315 0.838806,-0.08315 1.156975,0 0.318167,0.08315 0.05785,0.151174 -0.578487,0.151174 -0.636336,0 -0.896655,-0.06803 -0.578488,-0.151174 z m -1.239614,-1.424954 c 0.329072,-0.36362 0.654868,-0.661127 0.723991,-0.661127 0.06913,0 -0.03355,0.297507 -0.228145,0.661127 -0.194604,0.363621 -0.5204,0.661128 -0.723992,0.661128 -0.203592,0 -0.100924,-0.297507 0.228146,-0.661128 z m 5.439154,1.293944 c -0.202938,-0.379191 -0.307564,-0.750852 -0.232505,-0.825912 0.07506,-0.07506 0.33538,0.235189 0.578487,0.689441 0.398321,0.744269 0.640723,0.824736 2.452181,0.814023 l 2.010167,-0.01187 -0.991692,-0.81288 c -0.545432,-0.447086 -1.170243,-0.81362 -1.388472,-0.814523 -0.218228,-9.04e-4 -0.550202,-0.261962 -0.737721,-0.580129 -0.297578,-0.50491 -0.383754,-0.515421 -0.677554,-0.08265 -0.29921,0.440752 -0.376137,0.440752 -0.692342,0 -0.291804,-0.406742 -0.388099,-0.414871 -0.535861,-0.04524 -0.152079,0.380436 -0.230233,0.380436 -0.501862,0 -0.253178,-0.354594 -0.285374,-0.335929 -0.151099,0.08759 0.09385,0.296013 0.01376,0.695087 -0.177992,0.886831 -0.514575,0.514576 -0.05452,1.384756 0.732108,1.384756 0.59005,0 0.632857,-0.09394 0.314157,-0.689439 z m 9.130214,0.138376 c -0.147875,-0.385356 -0.05141,-0.458682 0.384904,-0.292566 0.419711,0.159794 0.482324,0.120902 0.224307,-0.139314 -0.394219,-0.397584 -1.460173,-0.122589 -1.460173,0.376692 0,0.173088 -0.171738,0.208567 -0.38164,0.07883 -0.209901,-0.129726 -0.29559,-0.09664 -0.190418,0.07354 0.105172,0.170169 0.512773,0.333622 0.905786,0.363226 0.521314,0.03927 0.661198,-0.08525 0.517234,-0.460413 z m 3.713447,-0.275347 c 1.852864,-0.893851 3.032502,-1.029827 4.07835,-0.470106 0.586168,0.313708 0.652729,0.265297 0.556755,-0.40493 -0.05996,-0.418679 -0.480889,-0.956727 -0.935415,-1.195663 -0.939391,-0.493821 -3.277092,-0.328457 -3.639189,0.257428 -0.131047,0.212037 -0.577536,0.558013 -0.992199,0.768833 -0.729287,0.370781 -1.562702,1.870848 -1.039413,1.870848 0.141925,0 1.028924,-0.371884 1.971111,-0.82641 z m 10.00716,-1.048631 c 1.4636,-0.968565 1.63347,-1.265523 0.56392,-0.985831 -0.43906,0.114818 -0.96283,-0.01797 -1.30994,-0.3321 -0.318104,-0.287878 -0.79837,-0.438991 -1.067264,-0.335806 -0.758064,0.290897 -1.558425,1.719432 -1.316524,2.349817 0.276698,0.721063 1.348593,0.482669 3.129808,-0.69608 z m 9.559599,0.718068 c 0.34381,-0.414265 0.29609,-0.495846 -0.29008,-0.495846 -0.40328,0 -0.70162,0.21084 -0.70162,0.495846 0,0.272715 0.13055,0.495846 0.2901,0.495846 0.15954,0 0.47527,-0.223131 0.7016,-0.495846 z m 0.66113,-1.818103 c 0,-0.181809 -0.3347,-0.328286 -0.74377,-0.325501 -0.60143,0.0041 -0.64889,0.06638 -0.24792,0.325501 0.64088,0.414172 0.99169,0.414172 0.99169,0 z m -23.890134,-0.199718 c -0.109845,-0.109845 -0.394955,-0.121589 -0.633581,-0.0261 -0.263702,0.105522 -0.185372,0.183853 0.199715,0.199715 0.34847,0.01435 0.54371,-0.06378 0.433866,-0.173618 z"
       id="path293" />
  </g>
</svg>
