<?xml version="1.0" encoding="UTF-8" standalone="no"?>
<!-- Created with Inkscape (http://www.inkscape.org/) -->

<svg
   width="37.960133mm"
   height="37.957333mm"
   viewBox="0 0 37.960146 37.957329"
   version="1.1"
   id="svg5"
   inkscape:version="1.1 (c4e8f9ed74, 2021-05-24)"
   sodipodi:docname="ornateo3.svg"
   xmlns:inkscape="http://www.inkscape.org/namespaces/inkscape"
   xmlns:sodipodi="http://sodipodi.sourceforge.net/DTD/sodipodi-0.dtd"
   xmlns="http://www.w3.org/2000/svg"
   xmlns:svg="http://www.w3.org/2000/svg">
  <sodipodi:namedview
     id="namedview7"
     pagecolor="#ffffff"
     bordercolor="#666666"
     borderopacity="1.0"
     inkscape:pageshadow="2"
     inkscape:pageopacity="0.0"
     inkscape:pagecheckerboard="0"
     inkscape:document-units="mm"
     showgrid="false"
     inkscape:zoom="1.3380612"
     inkscape:cx="-268.67232"
     inkscape:cy="114.71822"
     inkscape:window-width="2506"
     inkscape:window-height="1403"
     inkscape:window-x="1974"
     inkscape:window-y="0"
     inkscape:window-maximized="1"
     inkscape:current-layer="layer1" />
  <defs
     id="defs2" />
  <g
     inkscape:label="Layer 1"
     inkscape:groupmode="layer"
     id="layer1"
     transform="translate(71.277111,-66.033812)">
    <path
       style="fill:#000000;stroke-width:0.264583"
       d="m -39.186792,103.98125 c -0.04571,-0.0457 -0.913124,-0.22171 -1.927579,-0.39111 -2.107901,-0.35198 -6.428513,-0.54628 -11.237173,-0.50533 -2.43609,0.0207 -3.43624,-0.0681 -3.79683,-0.33713 -0.40242,-0.30028 -0.76248,-0.30905 -2.02318,-0.0493 -0.93191,0.19204 -1.97699,0.23497 -2.66363,0.10941 -0.73326,-0.13409 -1.55568,-0.0859 -2.34245,0.13719 -1.5047,0.42669 -4.88204,0.74829 -5.56892,0.53028 -0.3107,-0.0986 -0.45315,-0.31387 -0.36307,-0.54862 0.0995,-0.25937 0.0221,-0.33791 -0.23569,-0.23899 -0.79192,0.30388 -0.93377,-0.46265 -0.7116,-3.845504 0.11947,-1.819011 0.36878,-4.200261 0.55402,-5.291667 0.39956,-2.354056 0.40189,-2.457513 0.1147,-5.093229 l -0.22343,-2.050521 h -0.91058 c -0.63746,0 -0.8521,-0.09459 -0.71564,-0.315391 0.1072,-0.173465 0.27147,-1.279237 0.36504,-2.457272 0.0936,-1.178035 0.35122,-2.504907 0.57256,-2.948604 0.36618,-0.734015 0.36173,-0.857002 -0.0493,-1.364603 -0.38673,-0.47759 -0.43535,-1.026453 -0.33781,-3.81361 0.0627,-1.790651 0.11022,-3.784151 0.10568,-4.430002 -0.005,-0.64585 0.10497,-1.310703 0.24336,-1.477451 0.16305,-0.196472 0.10133,-0.685761 -0.17538,-1.390184 -0.58557,-1.490739 -0.37648,-1.946309 0.75089,-1.63602 1.07492,0.295852 1.76752,0.309052 9.10668,0.173564 3.21784,-0.0594 5.97882,-0.187239 6.13551,-0.284078 0.15669,-0.09684 0.74951,-0.101773 1.3174,-0.01096 0.9151,0.146331 1.01872,0.237237 0.91125,0.799444 -0.15086,0.789165 0.29387,0.822134 1.07597,0.07976 0.85847,-0.814874 1.712758,-1.084784 2.351483,-0.742949 0.298082,0.159528 0.974896,0.219235 1.504031,0.132681 1.287481,-0.2106 1.204706,-0.209895 3.552066,-0.03026 1.133459,0.08674 2.375852,0.277478 2.760871,0.423862 0.552218,0.209953 0.748353,0.179808 0.928873,-0.142762 0.268343,-0.4795 1.071105,-0.531915 1.740831,-0.113663 0.369062,0.230482 0.74236,0.17244 1.701687,-0.264584 0.675902,-0.307909 1.489149,-0.559835 1.807215,-0.559835 0.525624,0 0.561007,0.09038 0.388432,0.992188 -0.104426,0.545703 -0.178242,1.311782 -0.164031,1.702398 0.01421,0.390616 -0.09478,0.784755 -0.2422,0.875865 -0.155643,0.09619 -0.198239,0.602134 -0.101581,1.206585 0.09676,0.605113 0.04789,1.18379 -0.116734,1.382145 -0.198207,0.238826 -0.201375,0.656073 -0.01056,1.390496 0.335169,1.290003 0.590576,5.105141 0.530773,7.928448 -0.01543,0.727604 -0.0272,1.680104 -0.02619,2.116667 0.0011,0.436563 0.0016,1.139744 0.0016,1.562626 -1.5e-4,0.422882 -0.246512,1.030984 -0.54747,1.351338 -0.749419,0.797721 -0.867638,1.731389 -0.37002,2.922357 0.460928,1.10315 0.326742,3.032354 -0.251743,3.619372 -0.337934,0.342918 -0.339209,6.23498 -0.0016,7.080763 0.388337,0.97268 0.553305,2.13076 0.323737,2.27264 -0.13629,0.0842 -0.17067,0.39616 -0.0764,0.69318 0.09427,0.29702 0.06593,0.47485 -0.06297,0.39519 -0.128902,-0.0797 -0.970888,0.009 -1.87108,0.1967 -0.900189,0.18785 -1.674111,0.30414 -1.719826,0.25843 z m 1.314247,-1.70217 c 0.03256,-0.36232 -0.0109,-0.48016 -0.09658,-0.26188 -0.08568,0.21828 -0.350449,0.5564 -0.58837,0.75137 -0.391374,0.32073 -0.382175,0.34568 0.09658,0.26188 0.34109,-0.0597 0.550209,-0.32675 0.58837,-0.75137 z m -2.308162,0.26728 c -0.363802,-0.11651 -1.137708,-0.20582 -1.719791,-0.19847 l -1.058334,0.0134 1.190625,0.18511 c 1.721279,0.26761 2.423102,0.26761 1.5875,0 z m -24.010937,-0.16982 c 1.44389,-0.23866 1.21505,-0.50705 -0.34045,-0.39929 -1.8723,0.12972 -2.549,-0.0916 -2.70033,-0.88326 -0.0698,-0.36536 -0.0309,-0.66429 0.0865,-0.66429 0.11741,0 0.17439,-0.50602 0.12661,-1.124483 -0.0495,-0.640874 0.042,-1.20808 0.21286,-1.318866 0.20881,-0.135422 0.21171,-0.195615 0.01,-0.198438 -0.1665,-0.0024 -0.26374,-0.398751 -0.22813,-0.930092 0.0341,-0.509323 -0.0262,-0.926042 -0.13397,-0.926042 -0.10781,0 -0.27589,1.101328 -0.3735,2.447396 -0.0976,1.346068 -0.2044,2.744825 -0.23731,3.108355 -0.0511,0.56422 0.0757,0.68498 0.86621,0.82507 1.34891,0.23904 1.61471,0.24531 2.71198,0.0639 z m 17.13177,-0.19398 c 0,-0.20009 -0.357187,-0.43524 -0.79375,-0.52255 -0.436562,-0.0873 -0.79375,-0.32574 -0.79375,-0.52985 0,-0.20409 -0.208359,-0.53449 -0.46302,-0.73421 -0.421027,-0.33019 -0.429606,-0.32055 -0.09459,0.10629 0.582084,0.74162 0.101589,0.8748 -0.78671,0.21805 -0.77406,-0.57229 -1.78167,-0.58886 -1.43229,-0.0236 0.092,0.14892 0.29657,0.1909 0.45452,0.0933 0.16865,-0.10423 0.2113,-0.0547 0.10335,0.11997 -0.21053,0.34064 1.604852,1.19634 2.119262,0.99895 0.178954,-0.0687 0.467718,0.0467 0.641697,0.25629 0.401636,0.48393 1.04528,0.49461 1.04528,0.0173 z m 3.291933,-0.10534 c 0.153794,-0.0951 0.623263,-0.13677 1.043268,-0.0927 0.430244,0.0451 0.859145,-0.0744 0.982385,-0.27383 0.179414,-0.2903 0.462772,-0.26725 1.576131,0.12817 1.587222,0.56374 2.117328,0.37881 0.659823,-0.23018 -0.644329,-0.26922 -1.613313,-0.39161 -2.752603,-0.34768 -0.967026,0.0373 -1.966588,-0.0282 -2.221249,-0.14547 -0.298172,-0.13734 -0.463021,-0.10343 -0.463021,0.0952 0,0.16967 0.119063,0.23492 0.264583,0.14498 0.145521,-0.0899 0.264584,-0.0374 0.264584,0.11668 0,0.26356 -0.877943,0.41242 -1.918229,0.32524 -0.266079,-0.0223 -0.463021,0.14318 -0.463021,0.38904 0,0.36253 0.209709,0.40002 1.373862,0.24559 0.755624,-0.10024 1.499693,-0.26002 1.653487,-0.35507 z m -9.708083,0.0101 c -0.69122,-0.0545 -1.25677,-0.19102 -1.25677,-0.30336 0,-0.11235 0.38696,-0.15016 0.8599,-0.084 0.47294,0.0661 0.79395,0.049 0.71336,-0.038 -0.0806,-0.087 -0.72289,-0.21469 -1.42731,-0.28367 -0.70442,-0.069 -1.40643,-0.25109 -1.56002,-0.40468 -0.15359,-0.15359 -0.52334,-0.26985 -0.82166,-0.25837 -0.38629,0.0149 -0.42817,0.0643 -0.14552,0.17168 0.21828,0.0829 0.73344,0.43072 1.14478,0.77286 0.613,0.50987 1.01866,0.61347 2.24896,0.57438 l 1.50106,-0.0477 z m 3.15296,0.0181 c -0.097,-0.097 -0.25577,-0.097 -0.35278,-10e-6 -0.097,0.097 -0.0176,0.17639 0.17639,0.17639 0.19402,0 0.2734,-0.0794 0.17639,-0.17639 z m 13.627428,-0.88047 c -0.05543,-0.58127 -0.198395,-0.99653 -0.317696,-0.9228 -0.119301,0.0737 -0.268364,-0.0162 -0.33125,-0.19991 -0.06289,-0.183686 -0.05783,-0.0958 0.01124,0.19519 0.06907,0.29105 0.116306,0.85659 0.104969,1.25678 -0.0117,0.41246 0.121049,0.7276 0.306458,0.7276 0.221938,0 0.294675,-0.33971 0.226283,-1.05686 z m -23.837098,0.46154 c 0.0167,-0.26458 0.0476,-0.26458 0.15434,0 0.0734,0.1819 0.36165,0.33073 0.64057,0.33073 0.27891,0 0.51652,-0.14883 0.528,-0.33073 0.0167,-0.26458 0.0476,-0.26458 0.15435,0 0.0734,0.1819 0.29838,0.33073 0.49997,0.33073 0.22873,0 0.30486,-0.16068 0.20251,-0.42741 -0.13278,-0.34602 -0.043,-0.3931 0.47133,-0.24725 0.48845,0.1385 0.54358,0.11592 0.23846,-0.0977 -0.55237,-0.38673 -1.84768,-0.35577 -1.87297,0.0448 -0.0159,0.25168 -0.052,0.25415 -0.1509,0.0104 -0.0804,-0.19817 -0.41459,-0.26348 -0.87601,-0.17119 -0.41031,0.0821 -1.42298,-0.0476 -2.25038,-0.28813 -1.00346,-0.29173 -1.89521,-0.37873 -2.67822,-0.26131 -1.36331,0.20444 -1.73142,0.51185 -0.61292,0.51185 0.42266,0 0.76848,-0.10388 0.76848,-0.23084 0,-0.12696 0.15978,-0.0982 0.35507,0.0639 0.19529,0.16208 0.43342,0.21635 0.52917,0.1206 0.0958,-0.0957 0.17409,-0.0203 0.17409,0.16766 0,0.23473 0.23648,0.29446 0.75517,0.19072 0.41534,-0.0831 0.86182,-0.0485 0.99219,0.0768 0.13036,0.12531 0.53467,0.28124 0.89848,0.34651 0.3638,0.0653 0.75075,0.13488 0.85989,0.1547 0.10914,0.0198 0.20784,-0.1128 0.21933,-0.2947 z m -7.69381,-0.44097 c 0,-0.1334 -0.14636,-0.29133 -0.32525,-0.35096 -0.39927,-0.13309 -0.46276,-3.414571 -0.0716,-3.701937 0.16515,-0.121335 0.14342,-0.195908 -0.0578,-0.198438 -0.19155,-0.0024 -0.25385,-0.182761 -0.15348,-0.444328 0.1136,-0.296039 0.0675,-0.377605 -0.14059,-0.24897 -0.33223,0.205327 -0.45147,4.692473 -0.13316,5.010773 0.26071,0.26072 0.88194,0.21412 0.88194,-0.0661 z m 20.744657,-0.35278 c -0.277216,-0.32742 -0.619643,-0.67814 -0.760949,-0.77937 -0.41243,-0.295448 -0.510273,0.002 -0.145261,0.44225 0.184076,0.2218 0.230808,0.41163 0.103849,0.42186 -0.261177,0.021 0.697992,0.46332 1.066944,0.49197 0.131695,0.0102 0.01263,-0.24929 -0.264583,-0.57671 z m -4.759437,-0.29286 c -0.18642,-0.4858 -0.90397,-0.5984 -0.90397,-0.14185 0,0.16109 -0.18933,0.22023 -0.42075,0.13143 -0.23141,-0.0888 -0.55883,-0.0718 -0.7276,0.0378 -0.17279,0.11222 0.21333,0.25958 0.88377,0.33729 1.42247,0.16487 1.37719,0.179 1.16855,-0.36471 z m 7.033534,0.38986 c 0,-0.27356 -1.142609,-0.7127 -2.066136,-0.79409 -0.190489,-0.0168 -0.272759,-0.14958 -0.182823,-0.295099 0.08994,-0.145521 -0.04761,-0.264583 -0.305664,-0.264583 -0.411422,0 -0.421488,0.04701 -0.08176,0.381812 0.859172,0.84672 2.636384,1.50193 2.636383,0.97196 z m 6.255787,-2.32542 c -0.07709,-1.407533 -0.03251,-2.760321 0.09908,-3.006199 0.176038,-0.328927 0.07608,-0.600339 -0.378282,-1.027194 l -0.617535,-0.580147 -0.865421,1.092685 c -0.998426,1.260612 -4.039018,3.640976 -4.939572,3.867001 -0.898507,0.225513 -0.75638,0.508593 0.580205,1.155624 0.91319,0.44207 1.486574,0.54374 2.447395,0.43397 0.994953,-0.11367 2.545361,0.13141 3.725178,0.58885 0.04902,0.019 0.02604,-1.11706 -0.05105,-2.52459 z m -16.045371,1.63311 c 0.19943,-0.24031 0.22075,-0.396879 0.054,-0.396879 -0.48603,0 -1.11237,0.313899 -1.11237,0.557479 0,0.37856 0.69888,0.27251 1.05833,-0.1606 z m -1.80823,-0.42035 c 0.54167,-0.289891 0.48025,-0.343249 -0.87933,-0.76391 -2.41857,-0.748319 -6.11434,-3.652174 -7.57297,-5.950268 l -0.66589,-1.049105 -0.25023,0.65223 c -0.13762,0.358728 -0.17053,1.48567 -0.0731,2.504316 0.19256,2.013715 0.19147,3.472889 -0.003,4.110646 -0.10062,0.329832 0.16371,0.414454 1.40181,0.44877 0.8392,0.02326 1.82141,0.151945 2.1827,0.285961 0.8791,0.32611 5.12819,0.15307 5.86011,-0.23864 z m -11.24571,-0.571841 c -0.0734,-0.181901 -0.13345,-0.03307 -0.13345,0.330729 0,0.363802 0.06,0.512632 0.13345,0.330729 0.0734,-0.181901 0.0734,-0.479557 0,-0.661458 z m 31.523675,-0.07315 c -0.08146,-0.08146 -0.229407,0.06538 -0.328766,0.326319 -0.143584,0.377084 -0.113194,0.407474 0.148114,0.148113 0.180821,-0.179477 0.262115,-0.392969 0.180652,-0.474432 z m -12.575232,-0.130522 c 4.856595,-0.702254 9.041647,-4.808397 10.91421,-10.708414 0.507867,-1.600177 0.653788,-2.629845 0.653788,-4.61339 0,-4.331725 -1.210906,-7.502629 -3.913976,-10.249235 -4.280435,-4.349372 -9.342435,-5.650696 -15.262505,-3.923643 -3.15821,0.921338 -4.71249,1.790019 -6.62133,3.700627 -2.52723,2.529581 -3.47727,4.980896 -3.74532,9.663783 -0.27266,4.763298 0.85585,8.045124 3.84729,11.188345 3.89048,4.087871 8.6121,5.739495 14.127843,4.941927 z m -5.233043,-1.02807 c -5.55515,-1.632196 -9.29854,-5.208781 -10.59481,-10.122703 -0.52512,-1.990618 -0.75046,-5.942202 -0.43508,-7.629413 1.28829,-6.892093 6.94206,-11.087223 13.89185,-10.307836 3.335471,0.374058 5.514292,1.55594 8.115691,4.402285 2.602373,2.847411 3.796848,6.130229 3.78537,10.403468 -0.0062,2.308415 -0.12846,3.135999 -0.723111,4.894792 -1.679073,4.966158 -4.969524,7.924604 -9.550203,8.586589 -2.366917,0.342059 -2.590887,0.330724 -4.489707,-0.227182 z m 2.8738,-0.951074 c 0.0838,-0.218281 0.088,-0.396875 0.009,-0.396875 -0.0786,0 -0.32148,0.178594 -0.53976,0.396875 -0.34421,0.344213 -0.34546,0.396875 -0.009,0.396875 0.21311,0 0.456,-0.178594 0.53976,-0.396875 z m -1.66352,-0.06615 c 0.0108,-0.10914 0.0642,-0.496093 0.11872,-0.859895 0.0983,-0.656516 0.0969,-0.657011 -0.19239,-0.06615 -0.16029,0.327422 -0.3923,0.595312 -0.51559,0.595312 -0.12328,0 -0.22415,0.119063 -0.22415,0.264584 0,0.303543 0.78358,0.367262 0.81341,0.06615 z m 3.24246,-0.600543 c -0.30816,-0.521666 -0.61181,-0.745807 -0.87486,-0.645784 -0.32276,0.122732 -0.33711,0.08694 -0.0721,-0.179975 0.1819,-0.183248 0.33073,-0.740662 0.33073,-1.238697 0,-0.78096 -0.0554,-0.859523 -0.40293,-0.571119 -0.33691,0.279606 -0.37563,0.263239 -0.23628,-0.0999 0.10357,-0.269893 0.0307,-0.437343 -0.19238,-0.442343 -0.22393,-0.005 -0.17286,-0.116213 0.13573,-0.295495 0.39949,-0.232098 0.42496,-0.331666 0.13229,-0.51707 -0.26408,-0.16729 -0.2727,-0.230719 -0.0317,-0.233672 0.18191,-0.0021 0.33073,-0.13014 0.33073,-0.28425 0,-0.154109 -0.14882,-0.204811 -0.33073,-0.11267 -0.1819,0.09214 -0.0996,-0.0199 0.18287,-0.248967 0.43382,-0.351806 0.44651,-0.416497 0.0818,-0.416497 -0.64015,0 -0.7894,-0.429617 -0.3143,-0.904711 0.23001,-0.230013 0.29063,-0.418206 0.13472,-0.418206 -0.46308,0 -0.32203,-0.480292 0.17954,-0.611365 0.25466,-0.06655 0.069,-0.134812 -0.41249,-0.151693 -0.52536,-0.01842 -0.80838,-0.139317 -0.70765,-0.302292 0.0923,-0.14938 0.3077,-0.254335 0.47863,-0.233235 0.7654,0.09449 1.23682,-0.05245 1.23682,-0.385525 0,-0.198656 0.26194,-0.704672 0.582081,-1.124479 0.523017,-0.685835 0.527614,-0.716303 0.04531,-0.300265 -0.711701,0.613922 -0.870981,0.5839 -0.701851,-0.132291 0.13817,-0.585051 0.13357,-0.586221 -0.26679,-0.06782 -0.30195,0.390965 -0.32763,0.584498 -0.0992,0.747747 0.23124,0.16527 0.2252,0.253896 -0.0242,0.355003 -0.18281,0.07411 -0.27734,0.223797 -0.21007,0.332635 0.0673,0.108838 -0.0404,0.197888 -0.23914,0.197888 -0.54062,0 -0.66094,-1.701549 -0.15961,-2.25708 0.22662,-0.251115 0.59453,-0.417721 0.81757,-0.370235 0.22305,0.04749 0.751337,-0.2746 1.17398,-0.715744 0.422642,-0.441144 0.912021,-0.80208 1.087507,-0.80208 0.620028,0 0.5945,-0.682122 -0.02745,-0.733597 -0.44582,-0.0369 -0.759391,0.20503 -1.171865,0.904123 -0.309743,0.524974 -0.616582,0.901086 -0.681862,0.835804 -0.20868,-0.208676 0.734596,-2.32016 0.971176,-2.173946 0.221602,0.136958 0.343894,-0.285136 0.236637,-0.816759 -0.02936,-0.145521 0.03005,-0.181153 0.132021,-0.07918 0.101971,0.101971 0.607674,-0.284982 1.123785,-0.859896 1.524642,-1.698353 1.832723,-1.431976 1.959173,1.693977 0.06494,1.605287 0.0056,1.868067 -0.517123,2.291369 -0.32476,0.262975 -0.590473,0.548348 -0.590473,0.634163 0,0.237115 0.634767,0.05932 0.859896,-0.240849 0.124677,-0.166237 0.291494,-0.11982 0.448789,0.124877 0.2096,0.326068 0.276399,0.304535 0.410397,-0.132292 0.08803,-0.286963 0.328774,-0.85223 0.534993,-1.256149 0.331261,-0.648836 0.323982,-0.793917 -0.06247,-1.245256 -0.544142,-0.635511 -0.660503,-1.337758 -0.294704,-1.778522 0.202227,-0.243667 0.173728,-0.377139 -0.103219,-0.483413 -0.210418,-0.08074 -0.382577,-0.315041 -0.382577,-0.520658 0,-0.205618 0.08227,-0.323007 0.182819,-0.260864 0.100547,0.06214 0.150032,-0.347275 0.109964,-0.909817 -0.06997,-0.982339 -0.04207,-1.020673 0.705265,-0.968933 0.427966,0.02963 0.983716,0.272118 1.235001,0.538866 0.466794,0.495516 0.434996,0.497299 -0.733743,0.04116 -0.218281,-0.08519 -0.575468,-0.03427 -0.79375,0.113164 -0.333684,0.225377 -0.270491,0.372171 0.396875,0.921948 0.436563,0.359639 0.986947,0.654481 1.223074,0.655204 0.236127,7.14e-4 0.931685,0.546314 1.545685,1.212424 0.831631,0.902212 1.067576,1.054049 0.925082,0.595312 -0.105207,-0.338688 -0.35428,-0.71101 -0.553498,-0.827381 -0.199221,-0.116372 -0.362217,-0.365809 -0.362217,-0.554306 0,-0.188496 -0.238856,-0.558881 -0.530789,-0.823078 -0.291933,-0.264196 -0.474718,-0.536429 -0.406183,-0.604962 0.277651,-0.277653 -0.475972,-1.172272 -1.200195,-1.424737 -0.887997,-0.309558 -0.999458,-0.949504 -0.340535,-1.955149 0.237993,-0.363223 0.357055,-0.736066 0.264584,-0.828538 -0.09247,-0.09247 -0.168133,-0.02923 -0.168133,0.140549 0,0.169774 -0.168671,0.30868 -0.374827,0.30868 -0.206153,0 -0.427318,0.148828 -0.491474,0.330729 -0.08665,0.245663 -0.347517,0.199748 -1.014235,-0.178511 -0.493673,-0.280082 -0.95712,-0.577738 -1.02988,-0.661458 -0.07276,-0.08372 -0.429948,-0.315049 -0.79375,-0.514065 -0.500422,-0.273753 -0.582473,-0.278507 -0.337025,-0.01952 0.226256,0.238732 0.241697,0.442015 0.05102,0.671761 -0.206369,0.248659 -0.145632,0.296023 0.247704,0.193163 0.350281,-0.0916 0.849299,0.164485 1.522217,0.781168 1.000799,0.917165 1.001,0.917781 0.665562,2.037378 l -0.335542,1.119936 -0.642387,-0.603492 c -0.607249,-0.570481 -0.951224,-0.396754 -0.368406,0.186065 0.188923,0.188922 -0.01644,0.591047 -0.661458,1.295246 -0.514492,0.561694 -0.93544,1.129797 -0.93544,1.262449 0,0.132653 -0.164086,0.178221 -0.364634,0.101264 -0.200549,-0.07696 -0.498206,-0.0064 -0.661459,0.1569 -0.219376,0.219377 -0.296824,0.211654 -0.296824,-0.0296 0,-0.179533 0.416719,-0.572294 0.926042,-0.872802 0.944257,-0.557125 1.206328,-1.023275 0.575287,-1.023275 -0.391943,0 -1.294092,0.911297 -1.702528,1.719791 -0.14703,0.291042 -0.34972,1.252005 -0.45042,2.135474 -0.16151,1.416862 -0.24992,1.60409 -0.74967,1.5875 -0.36554,-0.01213 -0.60209,0.168955 -0.66666,0.51036 -0.055,0.291041 -0.22203,0.648229 -0.37108,0.79375 -0.37346,0.364627 -0.0159,-1.622533 0.46992,-2.611825 0.36996,-0.753329 0.30978,-1.224634 -0.15638,-1.224634 -0.33275,0 -1.04278,1.426488 -1.07994,2.169674 -0.0179,0.357555 -0.12069,0.172046 -0.24934,-0.449882 -0.33139,-1.602158 -0.29509,-1.938688 0.27012,-2.503891 0.65211,-0.652115 0.17609,-1.03604 -0.51223,-0.413123 -0.45926,0.415624 -0.49896,0.40925 -0.66262,-0.106373 -0.0957,-0.301668 -0.27809,-0.548488 -0.40522,-0.548488 -0.47336,0 -0.54456,0.546859 -0.1454,1.116741 0.58262,0.831807 0.53088,1.357261 -0.11697,1.187846 -0.67139,-0.175572 -0.6647,-0.04156 0.0414,0.828681 0.36039,0.444187 0.5065,0.524504 0.3967,0.218061 -0.11534,-0.321874 -0.0642,-0.448588 0.15193,-0.376543 0.17916,0.05972 0.35774,0.502955 0.39682,0.984962 0.0391,0.482007 0.27954,1.047242 0.53432,1.256077 0.43455,0.356177 0.43047,0.372147 -0.0659,0.257789 -0.29104,-0.06705 -0.76729,-0.20253 -1.05833,-0.301063 -0.29104,-0.09853 -0.20175,0.01082 0.19844,0.243016 0.40018,0.232192 0.72942,0.567192 0.73165,0.744446 0.003,0.225762 0.0722,0.214772 0.23151,-0.0367 0.36308,-0.573009 0.59564,0.09373 0.30205,0.865941 -0.1684,0.442913 -0.16906,0.683661 -0.002,0.683661 0.14209,0 0.24116,0.683581 0.22048,1.521354 -0.0353,1.430208 -0.0479,1.457949 -0.20979,0.463021 l -0.17225,-1.058334 -0.14357,1.190625 c -0.079,0.654844 -0.0516,1.42875 0.0607,1.719792 0.17237,0.446461 0.20693,0.456798 0.22108,0.06615 0.009,-0.254661 0.13583,-0.463021 0.28135,-0.463021 0.14552,0 0.25622,0.148828 0.24599,0.330729 -0.0336,0.596884 -0.39392,1.29648 -0.65319,1.268124 -0.13984,-0.01529 -0.27561,0.303319 -0.30171,0.708025 -0.0261,0.404707 0.0124,0.527471 0.0855,0.27281 0.0731,-0.254662 0.30988,-0.463021 0.52608,-0.463021 0.2162,0 0.31779,0.121846 0.22575,0.270769 -0.28155,0.455552 0.48428,1.870438 0.92157,1.702634 0.21397,-0.08211 0.31315,-0.0734 0.2204,0.01934 -0.30064,0.300656 0.68134,1.182256 1.31686,1.182256 0.614949,0 0.615578,-0.0035 0.14565,-0.798981 z m -1.26644,-1.563986 c -0.0837,-0.135467 -0.0312,-0.321088 0.11667,-0.412491 0.1479,-0.0914 0.2689,0.01943 0.2689,0.2463 0,0.464749 -0.15876,0.533178 -0.38557,0.166191 z m -0.93734,-5.045367 c -0.20986,-0.129696 -0.29372,-0.323644 -0.18637,-0.430995 0.10735,-0.107352 0.33409,-0.05628 0.50387,0.113495 0.39976,0.399763 0.17663,0.62289 -0.3175,0.3175 z m -2.28722,6.751164 c 0.3708,-0.966276 0.45956,-7.180172 0.12087,-8.46106 -0.31407,-1.18774 -0.43555,-1.332128 -1.27324,-1.513278 -1.0848,-0.234591 -8.41116,-0.36011 -8.62352,-0.147743 -0.24886,0.248853 0.88908,3.548555 1.62673,4.717062 1.1486,1.819495 3.30451,3.746974 5.37492,4.805418 2.13783,1.092906 2.5507,1.182143 2.77424,0.599601 z m 2.02263,-0.152196 c 0,-0.29963 -0.11386,-0.474411 -0.25302,-0.3884 -0.13917,0.08601 -0.18596,0.33116 -0.10399,0.544782 0.20988,0.546923 0.35701,0.482473 0.35701,-0.156382 z m 5.979696,-0.141264 c 0.771223,-0.377324 1.928029,-1.248169 2.570675,-1.935212 1.41514,-1.512898 2.954658,-4.678467 3.19667,-6.573012 l 0.17744,-1.389063 -0.869011,-0.03133 c -0.477954,-0.01723 -0.98807,-0.0061 -1.133591,0.0247 -0.145521,0.03082 -1.336146,0.104525 -2.645834,0.163789 -3.136615,0.141935 -3.346908,0.204488 -4.110669,1.222758 -0.586456,0.78188 -0.655911,1.14348 -0.692516,3.6054 -0.0423,2.845904 0.135123,3.906404 0.831376,4.969018 0.523598,0.799113 0.943844,0.790152 2.67546,-0.05705 z m -9.348096,-10.599999 c -0.17913,-0.07247 -0.53632,-0.07689 -0.79375,-0.0098 -0.25743,0.06708 -0.11087,0.12638 0.3257,0.131772 0.43656,0.0054 0.64718,-0.04949 0.46805,-0.12197 z m 6.807987,-0.416321 c 0,-0.154861 -0.168118,-0.129147 -0.396875,0.0607 -0.218281,0.181157 -0.396875,0.370593 -0.396875,0.420968 0,0.05038 0.178594,0.02306 0.396875,-0.0607 0.218281,-0.08376 0.396875,-0.273198 0.396875,-0.420968 z m -14.618387,-0.208513 c 0.40326,-0.317206 0.87888,-0.470242 1.17216,-0.377159 0.73781,0.234174 2.06914,-0.134876 2.06914,-0.573575 0,-0.476061 -0.78467,-0.809674 -1.01889,-0.433193 -0.1553,0.249628 -1.06558,0.434658 -1.76868,0.359515 -0.32578,-0.03482 -0.3747,-1.08762 -0.0505,-1.08762 0.12292,0 0.13741,-0.139296 0.0322,-0.309547 -0.1298,-0.210015 -0.0453,-0.253526 0.26271,-0.135322 0.24971,0.09582 0.39422,0.07747 0.32113,-0.04079 -0.0731,-0.11826 0.39698,-0.185106 1.04459,-0.148547 1.24012,0.07001 1.52422,-0.21994 0.66571,-0.679399 -0.73172,-0.391604 -1.25162,-0.340167 -1.91162,0.189128 -1.41778,1.137011 -1.80994,1.732993 -1.80994,2.750615 0,1.174596 0.0718,1.209758 0.99203,0.485897 z m -0.63925,-0.965505 c 0.097,-0.09701 0.25576,-0.09701 0.35278,0 0.097,0.09701 0.0176,0.176389 -0.17639,0.176389 -0.19403,0 -0.27341,-0.07937 -0.17639,-0.176389 z m 2.62378,1.312581 c -0.32742,-0.06306 -0.8632,-0.06306 -1.19062,0 -0.32742,0.06306 -0.0595,0.114662 0.59531,0.114662 0.65484,0 0.92273,-0.0516 0.59531,-0.114662 z m 2.75336,-0.07425 c 0.17687,-0.0021 0.24661,-0.230539 0.1653,-0.54148 -0.16967,-0.648823 0.50858,-1.468531 1.40029,-1.692337 0.3531,-0.08862 0.64199,-0.277922 0.64199,-0.420671 0,-0.389916 -0.8877,-0.312108 -1.47078,0.128918 -0.73774,0.557997 -0.88462,0.498398 -0.7943,-0.322314 0.044,-0.400182 -0.0534,-0.813268 -0.21649,-0.917969 -0.21546,-0.138308 -0.20366,-0.340219 0.0431,-0.738367 0.35341,-0.570132 0.20321,-1.177125 -0.22569,-0.912053 -0.13546,0.08372 -0.2463,0.810505 -0.2463,1.615073 v 1.462849 l -0.99218,-0.149855 c -0.59013,-0.08913 -1.31384,-0.0037 -1.78594,0.210923 l -0.79375,0.360778 1.1085,-0.134582 c 1.76584,-0.214388 2.46337,0.06478 2.46337,0.985877 0,0.584992 -0.0994,0.742271 -0.39687,0.62811 -0.25818,-0.09907 -0.39688,0.0071 -0.39688,0.303746 0,0.343813 0.14651,0.416781 0.59532,0.296504 0.32742,-0.08775 0.73299,-0.161163 0.90127,-0.16315 z m 16.493818,-0.134385 c 0.180465,-0.217445 0.272225,-0.68773 0.203912,-1.045077 -0.0768,-0.401745 0.01479,-0.703057 0.239948,-0.789461 0.441383,-0.169374 0.215837,-1.376016 -0.38685,-2.069586 -0.445209,-0.51235 -0.849497,-0.606789 -0.849497,-0.198438 0,0.145521 0.165856,0.264584 0.368567,0.264584 0.202713,0 0.442187,0.19185 0.532167,0.426334 0.117065,0.305064 0.04986,0.382686 -0.236276,0.272887 -0.478964,-0.183796 -0.534847,0.382891 -0.08238,0.835362 0.246943,0.246944 0.242274,0.3175 -0.02103,0.3175 -0.241498,0 -0.286472,0.23698 -0.156913,0.826851 0.126261,0.574867 0.09235,0.771688 -0.111271,0.645843 -0.16107,-0.09955 -0.292864,-0.352574 -0.292864,-0.562267 0,-0.209693 -0.107919,-0.38126 -0.239819,-0.38126 -0.134914,0 -0.115493,0.405084 0.04439,0.926041 0.313428,1.021239 0.498351,1.120576 0.987914,0.530687 z m -12.503798,-0.133807 c 0.35772,0 0.34891,-0.0744 -0.0627,-0.529166 -0.5512,-0.609068 -1.15784,-0.730396 -0.66146,-0.132292 0.27873,0.335846 0.22125,0.396875 -0.37378,0.396875 -0.38674,0 -1.00035,-0.194722 -1.36357,-0.432715 -0.36323,-0.237993 -0.73395,-0.359172 -0.82384,-0.269285 -0.23434,0.234337 2.09467,1.246869 2.51669,1.094122 0.1938,-0.07015 0.53968,-0.127539 0.76861,-0.127539 z m 11.182144,-0.01561 c 0,-0.154109 -0.119063,-0.206613 -0.264584,-0.116676 -0.14552,0.08994 -0.264583,-0.04194 -0.264583,-0.293066 0,-0.251123 -0.07424,-0.382347 -0.164978,-0.291609 -0.231098,0.231097 0.09098,0.98155 0.421259,0.98155 0.150087,0 0.272886,-0.12609 0.272886,-0.280199 z m 3.332869,-0.189437 c 0.03686,-0.185539 0.0065,-0.215304 -0.06747,-0.06615 -0.173019,0.348871 -0.88415,0.354191 -0.88415,0.0066 0,-0.145521 -0.115327,-0.264583 -0.256281,-0.264583 -0.140951,0 -0.18533,0.184888 -0.09861,0.410864 0.184041,0.479606 1.207489,0.411651 1.306515,-0.08675 z m -6.507869,-0.705374 c 0,-0.209694 -0.110836,-0.449761 -0.246301,-0.533483 -0.314561,-0.194409 -0.630927,0.301038 -0.415158,0.650159 0.243299,0.393666 0.661459,0.319906 0.661459,-0.116676 z m -9.613194,-0.05971 c -0.097,-0.09701 -0.25576,-0.09701 -0.35278,0 -0.097,0.09701 -0.0176,0.176389 0.17639,0.176389 0.19403,0 0.2734,-0.07937 0.17639,-0.176389 z m 10.406944,-0.192178 c 0,-0.202712 -0.176853,-0.436432 -0.393004,-0.519377 -0.328719,-0.126142 -0.339948,-0.06586 -0.06865,0.368567 0.385078,0.616609 0.461651,0.641623 0.461651,0.15081 z m -10.142364,-0.60158 c -0.097,-0.09701 -0.17639,-0.01764 -0.17639,0.176389 0,0.194028 0.0794,0.273403 0.17639,0.176389 0.097,-0.09701 0.097,-0.255764 0,-0.352778 z m 12.743287,-0.683507 c -0.01299,-0.472942 -0.0705,-1.129832 -0.12782,-1.459755 l -0.104217,-0.59986 -0.567396,0.528611 c -0.564074,0.525513 -0.56446,0.534066 -0.06594,1.459755 0.624891,1.160353 0.895888,1.182665 0.865376,0.07125 z m -0.736711,-1.014848 c 0.16243,-0.303505 0.35992,-0.487233 0.438869,-0.408286 0.218086,0.218086 -0.131246,0.960114 -0.452003,0.960114 -0.195676,0 -0.191649,-0.16919 0.01312,-0.551828 z m -11.129096,-0.506506 c 0.005,-1.574649 -0.72019,-3.014316 -1.57897,-3.135392 l -0.6574,-0.09268 0.6359,0.514917 c 0.68724,0.556497 0.74661,0.740054 0.99083,3.063336 0.18626,1.771939 0.60389,1.532054 0.60964,-0.350178 z m 2.94889,1.256771 c 0.28764,-0.539809 0.27617,-0.561457 -0.12298,-0.232186 -0.24211,0.199719 -0.44019,0.467609 -0.44019,0.595312 0,0.404147 0.23511,0.252548 0.56317,-0.363126 z m 4.46391,0.182823 c 0,-0.22687 -0.119062,-0.338906 -0.264583,-0.248969 -0.145521,0.08994 -0.264583,0.275558 -0.264583,0.41249 0,0.136933 0.119062,0.248969 0.264583,0.248969 0.145521,0 0.264583,-0.185621 0.264583,-0.41249 z m 1.204127,-0.505054 c 0.482756,-1.155402 0.496702,-1.746489 0.025,-1.059557 -0.350096,0.509832 -0.734132,1.977101 -0.51748,1.977101 0.06001,0 0.28162,-0.412895 0.492477,-0.917544 z m -4.450787,0.228524 c -0.0879,-0.08792 -0.31612,-0.09732 -0.50712,-0.02089 -0.21106,0.08446 -0.14837,0.147156 0.15986,0.159852 0.27891,0.01149 0.43518,-0.05105 0.34726,-0.138964 z m -5.48635,-1.562792 c -0.31609,-0.511435 -0.80219,-1.051627 -1.08022,-1.200428 -0.81296,-0.435083 -0.61349,0.161546 0.42052,1.25779 0.50932,0.539979 0.93544,1.105802 0.94693,1.257385 0.0115,0.151583 0.0809,0.127 0.15418,-0.05463 0.0733,-0.18163 -0.12533,-0.748683 -0.44141,-1.260118 z m -5.27209,0.06526 c 1.07898,0.144721 1.83427,-0.221152 1.83427,-0.888552 0,-0.43466 -1.22832,-0.487941 -2.25449,-0.09779 -0.53083,0.201821 -0.67504,0.187508 -0.59292,-0.05885 0.0597,-0.179042 0.39734,-0.406244 0.75036,-0.504893 0.35301,-0.09865 0.48598,-0.19123 0.29549,-0.205736 -0.60281,-0.0459 -0.0479,-0.55554 0.60491,-0.55554 0.85242,0 1.48897,-0.27023 1.3118,-0.556891 -0.21927,-0.354793 -1.60325,-0.285494 -2.59786,0.130081 -1.07985,0.451191 -1.88763,1.560344 -2.09178,2.872222 l -0.1541,0.990204 0.92944,-0.631568 c 0.72471,-0.492458 1.1575,-0.600978 1.96488,-0.492685 z m -1.8699,-0.723863 c 0,-0.194028 0.0794,-0.273403 0.17639,-0.176389 0.097,0.09701 0.097,0.255764 0,0.352778 -0.097,0.09701 -0.17639,0.01764 -0.17639,-0.176389 z m 6.34595,1.389062 c -0.002,-0.264234 -0.0888,-0.349428 -0.20152,-0.198437 -0.1086,0.145521 -0.30522,0.35388 -0.43692,0.463021 -0.1317,0.10914 -0.041,0.198437 0.20152,0.198437 0.24513,0 0.43917,-0.205636 0.43692,-0.463021 z m 6.35405,0.359037 c 0,-0.05719 -0.17859,-0.172517 -0.39687,-0.256279 -0.21829,-0.08376 -0.39688,-0.03697 -0.39688,0.103984 0,0.140954 0.17859,0.256279 0.39688,0.256279 0.21828,0 0.39687,-0.04679 0.39687,-0.103984 z m 1.191425,-1.220087 c 0.403824,-0.582718 1.134392,-1.306803 1.623484,-1.609079 0.489092,-0.302275 0.889258,-0.718475 0.889258,-0.924887 0,-0.486135 -0.203167,-0.47451 -0.718806,0.04113 -0.485269,0.485269 -0.923586,0.0553 -0.669767,-0.657015 0.08248,-0.231478 0.06253,-0.342481 -0.04433,-0.246675 -0.106866,0.09581 -0.21979,0.333931 -0.250943,0.529167 -0.07491,0.469483 -1.002491,1.857869 -1.145621,1.714744 -0.0616,-0.06157 0.0763,-0.562595 0.306478,-1.113382 0.328564,-0.786365 0.347466,-1.045286 0.08801,-1.205636 -0.231328,-0.142967 -0.133958,-0.282594 0.324678,-0.465604 0.631771,-0.252094 0.634141,-0.261996 0.06657,-0.27817 -0.878026,-0.02502 -1.330076,1.115606 -1.330296,3.356667 -10e-5,1.055026 0.0284,1.918229 0.0634,1.918229 0.035,0 0.39401,-0.476769 0.79784,-1.059488 z m -1.824325,-0.461866 c 0.4833,-0.636661 0.45738,-0.998605 -0.0418,-0.584292 -0.33699,0.27968 -0.48031,0.270241 -0.80347,-0.05292 -0.51131,-0.511308 -0.2129,-1.272344 0.51433,-1.311709 0.46587,-0.02522 0.48215,-0.05271 0.0913,-0.15414 -0.26165,-0.0679 -0.6486,0.02003 -0.85989,0.19538 -0.31785,0.263792 -0.38417,0.208189 -0.38417,-0.32211 0,-0.352516 0.14288,-0.783813 0.3175,-0.958438 0.24126,-0.241254 0.24247,-0.3175 0.005,-0.3175 -0.27901,0 -0.39651,0.316361 -0.7061,1.901112 -0.11227,0.574672 0.56159,1.538471 1.07564,1.538471 0.21862,0 0.3239,0.119062 0.23397,0.264583 -0.28145,0.455391 0.18826,0.288269 0.55772,-0.198437 z m 10.598874,0.02205 c -0.09701,-0.09701 -0.17639,-0.01764 -0.17639,0.17639 0,0.194028 0.07937,0.273403 0.17639,0.176389 0.09701,-0.09701 0.09701,-0.255764 0,-0.352779 z m -13.096474,-1.014633 c -0.17,-0.363583 -0.44826,-0.958716 -0.61838,-1.322518 -0.36323,-0.776818 -0.74904,-0.866902 -0.74904,-0.174898 0,0.491143 1.36074,2.458125 1.56585,2.263475 0.0609,-0.05775 -0.0284,-0.402476 -0.19843,-0.766059 z m 12.39591,-1.047621 c -0.576411,-1.190706 -1.446326,-1.757804 -1.885916,-1.229427 -0.132085,0.158764 -0.165883,0.23622 -0.07511,0.172125 0.239401,-0.169039 1.90518,1.662049 2.120604,2.331047 0.106968,0.332191 0.230042,0.429922 0.296434,0.235394 0.06244,-0.182946 -0.142767,-0.862059 -0.456012,-1.509139 z m -15.01232,0.905233 c -0.0776,-0.296813 -0.20119,-0.479596 -0.27461,-0.406184 -0.0734,0.07341 -0.37083,0.0064 -0.66092,-0.148806 -0.3699,-0.197964 -0.6954,-0.199257 -1.0897,-0.0043 -0.30923,0.152874 -0.80036,0.324571 -1.0914,0.381549 -0.4437,0.08686 -0.40946,0.136983 0.21196,0.310299 0.5702,0.159031 0.82148,0.09681 1.08953,-0.269772 0.33286,-0.455217 0.38243,-0.451119 1.11096,0.09183 0.4194,0.31257 0.78117,0.572081 0.80392,0.576691 0.0228,0.0046 -0.0221,-0.234465 -0.0997,-0.531279 z m 4.82087,0.0105 c 0.0899,-0.145521 0.0374,-0.264584 -0.11668,-0.264584 -0.15411,0 -0.2802,0.119063 -0.2802,0.264584 0,0.14552 0.0525,0.264583 0.11668,0.264583 0.0642,0 0.19026,-0.119063 0.2802,-0.264583 z m -1.46714,-2.696365 c 0.007,-0.391594 -0.10713,-0.785574 -0.25265,-0.87551 -0.14552,-0.08994 -0.26988,-0.0077 -0.27636,0.182822 -0.006,0.190489 -0.0502,0.941657 -0.0971,1.669261 -0.0835,1.295015 -0.0779,1.306176 0.26442,0.529167 0.19235,-0.436563 0.3551,-1.114146 0.36167,-1.50574 z m -8.01125,0.844281 c 0.32099,0 0.6572,-0.119062 0.74714,-0.264583 0.24281,-0.392876 -0.72778,-0.320424 -1.81977,0.135842 -0.5271,0.220234 -0.96018,0.309531 -0.96241,0.198438 -0.005,-0.254271 -0.51556,0.520348 -0.52106,0.790713 -0.002,0.109423 0.44067,-0.03941 0.98422,-0.330729 0.54354,-0.291325 1.25089,-0.529681 1.57188,-0.529681 z m 2.5459,0.705001 c 0.0746,-0.194332 -0.10297,-0.730113 -0.39455,-1.190625 -0.51937,-0.820296 -1.00734,-1.097722 -1.00734,-0.572709 0,0.145521 0.10742,0.264583 0.2387,0.264583 0.2933,0 0.83632,1.482627 0.62164,1.697299 -0.0851,0.08513 -0.0286,0.154785 0.12559,0.154785 0.15421,0 0.34139,-0.159 0.41596,-0.353333 z m 13.150197,-0.275729 c 0,-0.200463 -0.178594,-0.512698 -0.396875,-0.693855 -0.329769,-0.273685 -0.396875,-0.241882 -0.396875,0.188089 0,0.284607 0.07937,0.596842 0.17639,0.693855 0.295489,0.295491 0.61736,0.197428 0.61736,-0.188089 z m -6.085417,-0.325288 c 0,-0.05719 -0.17859,-0.103984 -0.39687,-0.103984 -0.21829,0 -0.39688,0.115326 -0.39688,0.25628 0,0.140953 0.17859,0.187746 0.39688,0.103984 0.21828,-0.08376 0.39687,-0.199088 0.39687,-0.25628 z m 0.70245,-0.224864 c -0.0862,-0.224558 -0.28048,-0.408286 -0.4318,-0.408286 -0.17414,0 -0.15659,0.189825 0.0478,0.517133 0.36507,0.584564 0.62211,0.5117 0.38398,-0.108847 z m 4.170263,0.02646 c -0.192087,-0.50057 -0.600345,-0.549884 -1.168546,-0.141151 -0.339735,0.244387 -0.332997,0.265115 0.0468,0.143967 0.244022,-0.07784 0.588411,0.03287 0.765308,0.246019 0.393062,0.473611 0.582827,0.341132 0.356438,-0.248835 z m -7.518543,-0.02226 c 0,-0.06417 -0.13746,-0.20163 -0.30547,-0.305463 -0.18925,-0.116967 -0.23364,-0.07258 -0.11667,0.116677 0.1885,0.304999 0.42214,0.409486 0.42214,0.188786 z m -7.05505,-1.541347 c -0.18818,-0.304478 -1.21583,0.04318 -1.61006,0.544685 -0.60589,0.770767 -0.34174,0.870895 0.70629,0.267727 0.57035,-0.328255 0.97705,-0.693841 0.90377,-0.812412 z m 4.40921,0.906744 c 0,-0.55541 -1.1177,-1.162945 -1.71665,-0.933103 -0.55587,0.213308 -0.50023,0.491598 0.1953,0.976775 0.82123,0.572863 1.52135,0.552765 1.52135,-0.04367 z m 2.23396,-0.365925 c 0.56679,-0.809211 0.51568,-1.264045 -0.14206,-1.264045 -0.3248,0 -0.6092,0.211314 -0.68753,0.510858 -0.0794,0.303753 -0.28392,0.453173 -0.5044,0.368568 -0.24571,-0.09429 -0.3708,0.04577 -0.3708,0.415183 0,0.77336 1.15622,0.752631 1.70479,-0.03056 z m 7.555627,0.05887 c 0.310876,-0.200904 0.2439,-0.257358 -0.30909,-0.260532 -1.419519,-0.0081 -2.11136,-0.649193 -0.947681,-0.878103 l 0.595313,-0.117104 -0.592337,-0.195961 c -0.325785,-0.107779 -0.54557,-0.271722 -0.48841,-0.364318 0.05716,-0.0926 -0.173525,-0.184981 -0.512632,-0.205299 -0.4262,-0.02554 -0.573,0.07657 -0.47547,0.330729 0.0776,0.202219 0.254439,0.367671 0.392979,0.367671 0.13854,0 0.188141,0.10315 0.110224,0.229223 -0.209963,0.339727 0.93106,1.235738 1.697937,1.333338 0.07276,0.0093 0.310886,-0.09858 0.529167,-0.239644 z m -2.387133,-0.198438 c -0.0032,-0.10914 -0.242924,-0.496093 -0.532644,-0.859895 -0.42539,-0.534159 -0.49273,-0.559619 -0.34992,-0.132292 0.2756,0.824667 0.898354,1.524774 0.882564,0.992187 z m -1.611204,-0.373653 c 0.40584,-0.253453 0.4512,-0.456709 0.25803,-1.156308 -0.1289,-0.46684 -0.21417,-1.072603 -0.18948,-1.346138 0.136,-1.507071 -0.0274,-1.890795 -0.85722,-2.012581 -0.94981,-0.139403 -0.98738,-0.07132 -1.12818,2.044409 -0.16794,2.523669 0.48478,3.364959 1.91685,2.470618 z m -8.96731,-0.752809 c -0.16968,-0.317059 -0.23409,-0.873013 -0.14312,-1.235455 0.11229,-0.44739 0.0713,-0.600808 -0.12776,-0.477802 -0.3521,0.217605 -0.25523,2.035456 0.12235,2.296167 0.42118,0.290815 0.48406,0.04404 0.14853,-0.58291 z m 1.4875,0.216036 c 0.10711,-0.173313 0.0496,-0.363485 -0.12772,-0.422605 -0.2305,-0.07683 -0.24256,-0.203777 -0.0423,-0.4451 0.3365,-0.405451 0.0646,-1.261215 -0.35685,-1.123063 -0.33512,0.109859 -0.54599,1.358498 -0.32616,1.931357 0.17533,0.456902 0.58952,0.48575 0.85301,0.05941 z m 2.39412,0.138725 c -0.097,-0.09701 -0.25576,-0.09701 -0.35278,0 -0.097,0.09701 -0.0176,0.176389 0.17639,0.176389 0.19403,0 0.2734,-0.07937 0.17639,-0.176389 z m -4.93889,-0.485069 c 0,-0.218282 -0.11906,-0.396875 -0.26458,-0.396875 -0.14552,0 -0.26459,0.178593 -0.26459,0.396875 0,0.218281 0.11907,0.396875 0.26459,0.396875 0.14552,0 0.26458,-0.178594 0.26458,-0.396875 z m 15.610417,-0.529167 c 0,-0.509323 -0.124042,-0.926042 -0.275645,-0.926042 -0.151607,0 -0.533173,-0.239921 -0.847925,-0.533157 -0.314753,-0.293237 -0.696727,-0.487367 -0.848833,-0.4314 -0.152105,0.05597 -0.455149,-0.04947 -0.67343,-0.234296 -0.218282,-0.18483 -0.851187,-0.459513 -1.406456,-0.610409 l -1.009578,-0.274355 0.16944,0.843371 c 0.31186,1.552298 0.42739,1.769413 0.941507,1.769413 0.640924,0 0.643309,0.0171 -0.14702,-1.054129 -0.752527,-1.01999 -0.701787,-1.364344 0.08509,-0.577469 0.291041,0.291042 0.459713,0.59862 0.374826,0.683508 -0.08489,0.08489 0.0441,0.15434 0.286632,0.15434 0.242535,0 0.440972,-0.185621 0.440972,-0.41249 0,-0.666453 0.502177,-0.162448 0.73557,0.738248 0.22711,0.876444 0.85193,1.332874 0.85193,0.622332 0,-0.230408 0.119063,-0.418924 0.264584,-0.418924 0.145521,0 0.264583,0.357188 0.264583,0.793751 0,0.529166 0.132292,0.79375 0.396875,0.79375 0.277183,0 0.396875,-0.279283 0.396875,-0.926042 z m 0.79375,0.629061 c 0,-0.205186 0.122672,-0.195172 0.396875,0.0324 0.535083,0.44408 0.505481,0.02938 -0.04101,-0.574479 -0.600524,-0.663573 -0.885034,-0.606479 -0.885034,0.177604 0,0.363802 0.119063,0.661459 0.264584,0.661459 0.145521,0 0.264583,-0.133642 0.264583,-0.296981 z m -13.196867,-0.675362 c -0.3119,-0.536368 -0.38722,-0.36469 -0.13191,0.300656 0.0907,0.236459 0.22072,0.374189 0.28884,0.306067 0.0681,-0.06812 -0.002,-0.341148 -0.15693,-0.606723 z m 1.77319,0.08972 c 0.10404,-0.536461 -0.66984,-0.888025 -1.07123,-0.486642 -0.20828,0.208281 -0.19229,0.404427 0.0575,0.705403 0.41317,0.497839 0.89492,0.393879 1.01373,-0.218761 z m 1.89868,-0.0039 c 0,-0.663598 -0.67525,-1.759274 -1.08422,-1.759274 -0.59811,0 -0.67147,0.481236 -0.10641,0.69807 0.21828,0.08376 0.39688,0.377682 0.39688,0.653154 0,0.275473 0.17859,0.50086 0.39687,0.50086 0.21828,0 0.39688,-0.04176 0.39688,-0.09281 z m 6.289363,-0.221383 c -0.0576,-0.172806 -0.246198,-0.361349 -0.419103,-0.418984 -0.193344,-0.06445 -0.252475,0.05651 -0.153594,0.314193 0.184553,0.480937 0.731435,0.581004 0.572697,0.104791 z m -5.848393,-0.655946 c -0.097,-0.09701 -0.17639,-0.01764 -0.17639,0.176388 0,0.194028 0.0794,0.273403 0.17639,0.176389 0.097,-0.09701 0.097,-0.255764 0,-0.352777 z m -3.61597,-0.617362 c 0,-0.14552 0.27781,-0.264583 0.61736,-0.264583 0.79492,0 1.04147,-0.256702 0.67298,-0.700703 -0.30721,-0.370173 -1.40946,-0.238853 -2.01795,0.240416 -0.50967,0.40144 -0.39174,0.989454 0.19844,0.989454 0.29104,0 0.52917,-0.119063 0.52917,-0.264584 z m 3.84642,-1.124479 c 0.13532,-0.547935 0.0826,-0.727604 -0.21347,-0.727604 -0.46018,0 -1.13766,0.731407 -0.89876,0.970305 0.0901,0.09007 0.23884,-0.03187 0.33059,-0.270977 0.0918,-0.23911 0.27735,-0.434745 0.41242,-0.434745 0.1413,0 0.12928,0.217317 -0.0283,0.511773 -0.15064,0.281475 -0.27389,0.662475 -0.27389,0.846667 0,0.542596 0.4716,-0.08634 0.67142,-0.895419 z M -37.393009,98.1808 c -0.09888,-1.156785 0.225838,-1.660017 0.4695,-0.727605 0.06655,0.254662 0.115758,-0.310885 0.10935,-1.25677 -0.0064,-0.945886 -0.05967,-1.332839 -0.118364,-0.859896 -0.05869,0.472942 -0.205491,0.859896 -0.326223,0.859896 -0.335836,0 -0.551122,-0.756084 -0.265541,-0.932585 0.148754,-0.09194 0.07574,-0.496742 -0.178158,-0.987722 -0.489413,-0.94642 -1.155345,-1.68951 -1.155345,-1.289208 0,0.147328 0.119062,0.341452 0.264583,0.431389 0.145521,0.08994 0.264584,0.294011 0.264584,0.453496 0,0.159489 -0.267891,0.06503 -0.595313,-0.209915 -0.39506,-0.331737 -0.35056,-0.229409 0.132292,0.3042 0.541975,0.598947 0.727604,1.077859 0.727604,1.877165 0,1.587265 0.305128,3.52818 0.554659,3.52818 0.119983,0 0.17235,-0.535782 0.116372,-1.190625 z m 0.563692,-0.0441 c -0.09701,-0.09701 -0.17639,-0.01764 -0.17639,0.17639 0,0.194027 0.07937,0.273402 0.17639,0.17639 0.09701,-0.09701 0.09701,-0.255765 0,-0.35278 z m -31.216487,-1.46076 c -0.0845,-0.211066 -0.14715,-0.148373 -0.15985,0.159853 -0.0115,0.278913 0.0511,0.435184 0.13897,0.347266 0.0879,-0.08792 0.0973,-0.316124 0.0209,-0.507119 z m -0.44532,-1.553507 c 0,-0.282453 -0.10418,-0.51355 -0.23151,-0.51355 -0.12733,0 -0.23151,0.295484 -0.23151,0.656632 0,0.361148 0.10418,0.592246 0.23151,0.513553 0.12733,-0.0787 0.23151,-0.374181 0.23151,-0.656635 z m 1.46403,-0.649298 c 0.0253,-0.50742 -0.0584,-0.922586 -0.18594,-0.922586 -0.12757,0 -0.0357,-0.299558 0.20422,-0.665689 0.36164,-0.551926 0.38759,-0.857131 0.15187,-1.785937 -0.15637,-0.616136 -0.42885,-1.775093 -0.60552,-2.575457 -0.17667,-0.800365 -0.36563,-1.323242 -0.41992,-1.161949 -0.0849,0.252325 0.23396,1.929813 0.82442,4.336949 0.0892,0.363802 -0.13565,0.06615 -0.49975,-0.661459 -0.66028,-1.319453 -0.92729,-1.099605 -0.38076,0.313505 0.27215,0.703654 0.3621,1.384208 0.46271,3.500906 0.0541,1.137396 0.38708,0.856628 0.44867,-0.378283 z m 29.650748,-2.257083 c -0.226893,-0.567069 -0.344151,-1.242928 -0.260572,-1.501913 0.127566,-0.395287 0.10613,-0.407167 -0.133527,-0.07401 -0.406106,0.564547 -0.361283,1.262166 0.169426,2.636989 0.379169,0.982247 0.478792,1.088138 0.550116,0.584716 0.0479,-0.338114 -0.09855,-1.078717 -0.325443,-1.645785 z m 1.293196,-1.861125 c -0.09629,-0.569919 -0.41275,-1.304444 -0.703249,-1.632277 -0.387427,-0.437213 -0.490106,-0.474925 -0.385302,-0.141512 0.07859,0.250001 0.02902,0.524919 -0.110143,0.610928 -0.139166,0.08601 -0.253029,0.350703 -0.253029,0.588209 0,0.361229 0.0618,0.347862 0.377978,-0.08176 0.357487,-0.485749 0.38794,-0.487885 0.561758,-0.03941 0.101076,0.2608 0.125045,1.085415 0.05326,1.832477 -0.126195,1.313349 -0.117869,1.334161 0.251638,0.62893 0.255622,-0.487868 0.324188,-1.072467 0.207086,-1.765586 z m -31.878804,2.020613 c 0,-0.06417 -0.11907,-0.190262 -0.26459,-0.280199 -0.14552,-0.08994 -0.26458,-0.03743 -0.26458,0.116676 0,0.154109 0.11906,0.280199 0.26458,0.280199 0.14552,0 0.26459,-0.0525 0.26459,-0.116676 z m 31.21678,-1.53697 c -0.0033,-0.481394 -0.05313,-0.519367 -0.260533,-0.198438 -0.331501,0.512964 -0.331501,0.79375 0,0.79375 0.145521,0 0.262761,-0.26789 0.260533,-0.595312 z m -31.56521,-1.835547 c -0.0845,-0.211067 -0.14716,-0.148372 -0.15985,0.159853 -0.0115,0.278914 0.051,0.435184 0.13896,0.347265 0.0879,-0.08792 0.0973,-0.316122 0.0209,-0.507118 z m -0.27009,-2.133203 c -0.0734,-0.181901 -0.13346,-0.03307 -0.13346,0.330729 0,0.363802 0.0601,0.51263 0.13346,0.330729 0.0734,-0.181901 0.0734,-0.479557 0,-0.661458 z m 32.364467,-0.132292 c 0.0022,-0.181901 -0.115012,-0.330729 -0.260533,-0.330729 -0.145521,0 -0.26276,0.327422 -0.260533,0.727604 0.0031,0.566986 0.06067,0.639994 0.260533,0.330729 0.141065,-0.218281 0.258305,-0.545703 0.260533,-0.727604 z m -31.837247,-1.268182 c 0.24636,-0.642021 -0.0423,-0.704195 -0.56869,-0.122502 -0.43836,0.484375 -0.44135,0.530788 -0.0342,0.530788 0.2454,0 0.51668,-0.183728 0.60286,-0.408286 z m 31.487359,-0.451609 c -0.0734,-0.181902 -0.133453,-0.03307 -0.133453,0.330729 0,0.363802 0.06005,0.51263 0.133453,0.330729 0.0734,-0.181901 0.0734,-0.479557 0,-0.661458 z m -32.718919,0.330729 c 0.44597,0 1.32214,-1.807663 1.29756,-2.677064 -0.0249,-0.879907 -0.0323,-0.873879 -0.44333,0.361959 -0.22991,0.691224 -0.56869,1.256771 -0.75284,1.256771 -0.54982,0 -0.66381,-0.458175 -0.22352,-0.898464 0.33283,-0.332827 0.35227,-0.523487 0.10122,-0.992573 -0.25965,-0.485168 -0.22911,-0.643415 0.18579,-0.962649 0.34891,-0.268462 0.3982,-0.418894 0.16579,-0.506015 -0.49639,-0.186079 -0.39847,-0.551889 0.19844,-0.74134 0.6014,-0.190878 0.71716,-0.661459 0.16272,-0.661459 -0.67434,0 -1.25177,1.322057 -1.41196,3.232748 -0.11635,1.3879 -0.0775,1.827926 0.14905,1.68791 0.45774,-0.282901 0.36981,0.12469 -0.15658,0.725769 -0.44242,0.505185 -0.44145,0.520833 0.0216,0.351562 0.26656,-0.09743 0.58427,-0.177155 0.70602,-0.177155 z m 34.084497,-1.673097 c 0.07741,-0.675574 0.01606,-0.738865 -0.641054,-0.661459 -0.399658,0.04708 -0.774663,0.264191 -0.833345,0.482472 -0.09121,0.339271 -0.06829,0.34174 0.157867,0.01701 0.219212,-0.314748 0.33605,-0.320533 0.681601,-0.03375 0.575998,0.478035 0.521996,0.751135 -0.178271,0.90157 -0.5246,0.112697 -0.516742,0.122739 0.06615,0.08455 0.516188,-0.03382 0.680257,-0.20741 0.747056,-0.790396 z m -33.298907,-1.898778 c 0,-0.145521 -0.11542,-0.08599 -0.25648,0.132291 -0.14107,0.218282 -0.25648,0.515938 -0.25648,0.661459 0,0.14552 0.11541,0.08599 0.25648,-0.132292 0.14106,-0.218281 0.25648,-0.515938 0.25648,-0.661458 z m 32.463657,0.220486 c -0.09701,-0.09701 -0.17639,-0.01764 -0.17639,0.176389 0,0.194027 0.07938,0.273402 0.17639,0.176389 0.09701,-0.09701 0.09701,-0.255764 0,-0.352778 z m -0.345292,-0.749653 c -0.08376,-0.218281 -0.273198,-0.396875 -0.420968,-0.396875 -0.154863,0 -0.129148,0.168118 0.0607,0.396875 0.181157,0.218281 0.370594,0.396875 0.420968,0.396875 0.05037,0 0.02307,-0.178594 -0.0607,-0.396875 z m 0.476938,-1.360628 c -0.929373,-2.785723 -1.623743,-4.176374 -1.931598,-3.868519 -0.425374,0.425373 -0.02909,1.767109 0.847822,2.870558 0.426657,0.536879 0.77574,1.071083 0.77574,1.187121 0,0.432205 0.549164,1.63654 0.684525,1.501181 0.0773,-0.0773 -0.09212,-0.837957 -0.376489,-1.690341 z m -32.190323,1.228336 c -0.0899,-0.145521 -0.0374,-0.264583 0.11667,-0.264583 0.15411,0 0.27641,-0.208359 0.27179,-0.463021 -0.008,-0.418956 -0.0454,-0.414143 -0.39688,0.05057 -0.45827,0.605889 -0.49687,0.941618 -0.10826,0.941618 0.15411,0 0.20661,-0.119063 0.11668,-0.264584 z m 32.694087,-2.733616 c -0.343778,-0.343778 -0.37239,0.146892 -0.0842,1.443773 l 0.198438,0.892968 0.0842,-1.027054 c 0.04631,-0.564879 -0.04299,-1.154239 -0.198438,-1.309687 z m -32.875387,0.28622 c 0.0483,-0.254661 -0.04,-0.46302 -0.19618,-0.46302 -0.15619,0 -0.28827,0.208359 -0.2935,0.46302 -0.007,0.355301 -0.16088,0.278357 -0.66014,-0.330729 l -0.65063,-0.79375 -0.001,0.683507 c -7.2e-4,0.375929 0.0835,0.768348 0.18722,0.872043 0.35316,0.353159 1.52516,0.04024 1.61454,-0.431071 z m 1.05697,-0.661458 c -0.10741,-0.5577 -0.57697,-0.522535 -0.69664,0.05217 -0.0499,0.239709 0.0959,0.410851 0.35013,0.410851 0.27251,0 0.40228,-0.173407 0.34651,-0.463021 z m 31.183007,-0.242535 c -0.09701,-0.09701 -0.17639,-0.01764 -0.17639,0.176389 0,0.194028 0.07938,0.273403 0.17639,0.176389 0.09701,-0.09701 0.09701,-0.255764 0,-0.352778 z m -32.323267,-0.352777 c -0.0899,-0.145521 -0.28258,-0.264584 -0.4281,-0.264584 -0.14552,0 -0.191,0.119063 -0.10106,0.264584 0.0899,0.14552 0.28258,0.264583 0.4281,0.264583 0.14552,0 0.191,-0.119063 0.10106,-0.264583 z m 32.838937,-1.256771 c -0.103277,-1.402936 -0.381452,-2.242487 -0.681564,-2.057008 -0.109251,0.06752 -0.141263,-0.177369 -0.07114,-0.544198 0.08733,-0.456815 -0.0643,-0.871119 -0.481216,-1.31491 -0.582827,-0.620389 -1.784522,-0.936742 -1.43985,-0.379048 0.0914,0.147895 0.247259,0.219923 0.346345,0.160063 0.09908,-0.05986 0.354849,0.07992 0.568362,0.310631 0.344191,0.371906 0.33669,0.399699 -0.06615,0.245117 -0.258326,-0.09913 -0.454353,-0.04981 -0.454353,0.114324 0,0.181888 -0.171283,0.156034 -0.463021,-0.06989 -0.390993,-0.302788 -0.386093,-0.268303 0.0315,0.221685 0.271989,0.319139 0.613725,0.555212 0.759415,0.524607 0.244494,-0.05136 1.196002,1.276093 1.240264,1.730293 0.04133,0.424117 -0.482873,0.171019 -0.634362,-0.306286 -0.191625,-0.603753 -0.952072,-0.952151 -1.200584,-0.550047 -0.1157,0.187206 -0.305888,0.127031 -0.550321,-0.174119 -0.240942,-0.296849 -0.256129,-0.389663 -0.04279,-0.261492 0.203962,0.122536 0.33073,0.05144 0.33073,-0.185487 0,-0.470598 -0.713756,-0.784283 -0.942478,-0.414205 -0.367467,0.594576 0.158216,1.523001 1.024152,1.808786 0.481616,0.158947 1.28534,0.754972 1.786056,1.324501 0.500716,0.569528 0.938097,1.044045 0.971953,1.05448 0.03386,0.01044 0.01992,-0.546573 -0.03096,-1.237797 z m -0.824351,-0.330729 c -0.08994,-0.145521 -0.03743,-0.264584 0.116676,-0.264584 0.154109,0 0.280199,0.119063 0.280199,0.264584 0,0.14552 -0.0525,0.264583 -0.116676,0.264583 -0.06417,0 -0.190262,-0.119063 -0.280199,-0.264583 z m -30.807946,0.234668 0.29921,-0.559081 -0.83026,0.490445 c -0.72478,0.42814 -0.86278,0.440344 -1.08629,0.09606 -0.14081,-0.216912 -0.19053,-0.672252 -0.11049,-1.011867 0.092,-0.390362 0.0443,-0.554925 -0.12966,-0.447406 -0.37449,0.231448 -0.3479,1.283221 0.0423,1.67343 0.50411,0.504113 1.48603,0.37343 1.81518,-0.241582 z m -2.74569,-0.548861 c -0.0845,-0.211067 -0.14716,-0.148372 -0.15985,0.159852 -0.0115,0.278915 0.051,0.435185 0.13896,0.347266 0.0879,-0.08792 0.0973,-0.316122 0.0209,-0.507118 z m 31.569261,0.3425 c 0,-0.129952 -0.195435,-0.311271 -0.434298,-0.402932 -0.363135,-0.139347 -0.379503,-0.10063 -0.0999,0.236276 0.381034,0.459117 0.534194,0.506899 0.534194,0.166656 z m -26.722921,-2.379905 c 0,-0.290174 -0.11906,-0.601174 -0.26458,-0.691111 -0.14552,-0.08994 -0.26458,0.0746 -0.26458,0.365645 0,0.291042 -0.11907,0.602752 -0.26459,0.692688 -0.14552,0.08994 -0.26458,0.414464 -0.26458,0.721171 0,0.721271 -0.14431,0.542077 -0.36769,-0.456587 -0.12112,-0.541465 -0.0976,-0.673426 0.0741,-0.415181 0.18823,0.283164 0.29547,0.116467 0.42552,-0.661458 0.29414,-1.759413 0.42486,-1.918209 0.81839,-0.994136 0.41805,0.981643 0.78836,1.277676 1.05618,0.844327 0.10505,-0.16997 -0.006,-0.452929 -0.2463,-0.628796 -0.24051,-0.175868 -0.43729,-0.514993 -0.43729,-0.753612 0,-0.238619 -0.10858,-0.433853 -0.24129,-0.433853 -0.25626,0 -0.20759,-0.842077 0.0994,-1.719791 0.11173,-0.319438 -0.005,-0.24079 -0.29467,0.198437 -0.26387,0.400183 -0.72007,0.743819 -1.01379,0.763636 -0.47054,0.03175 -0.46326,0.04966 0.0613,0.150694 0.58301,0.112291 0.85256,0.607024 0.33073,0.607024 -0.14552,0 -0.26458,0.488989 -0.26458,1.086641 0,0.869089 -0.0815,1.055381 -0.40689,0.930503 -0.53929,-0.206944 -0.79622,0.508451 -0.44601,1.241851 0.15166,0.317605 0.35047,0.807001 0.44179,1.087547 0.14593,0.448304 0.24497,0.393926 0.81774,-0.448984 0.35844,-0.527487 0.6517,-1.196482 0.6517,-1.486655 z m -2.33274,1.235938 c -0.18985,-0.189855 -0.31309,-0.205477 -0.31309,-0.03969 0,0.353161 0.3129,0.66606 0.48948,0.489479 0.0752,-0.07519 -0.004,-0.277591 -0.17639,-0.449791 z m -1.75634,-0.676506 c -0.16278,-0.171962 -0.90988,0.278927 -1.04482,0.630566 -0.11125,0.289908 0.008,0.26852 0.4828,-0.0866 0.34679,-0.259374 0.5997,-0.504157 0.56202,-0.543963 z m 1.09047,0.29286 c -0.097,-0.09701 -0.25576,-0.09701 -0.35278,0 -0.097,0.09701 -0.0176,0.176389 0.17639,0.176389 0.19403,0 0.27341,-0.07937 0.17639,-0.176389 z m -1.36958,-1.664014 c 0.0937,-0.4268 0.63903,-1.199341 1.21175,-1.716757 1.16579,-1.053227 1.07875,-1.204508 -0.23292,-0.404808 -0.83378,0.508344 -1.63772,1.87226 -1.63772,2.77846 0,0.667423 0.4712,0.197649 0.65889,-0.656895 z m 1.97825,-7.14e-4 c 0.89902,-1.135096 0.96405,-1.333883 0.43636,-1.333883 -0.29402,0 -2.27975,1.910536 -2.27975,2.193416 0,0.04137 0.23421,0.09287 0.52048,0.114431 0.3166,0.02385 0.83479,-0.357656 1.32291,-0.973958 z m 27.605976,0.503072 c 0.116793,-0.446608 0.07485,-0.488277 -0.233722,-0.232186 -0.42091,0.34933 -0.49921,0.776481 -0.142335,0.776481 0.128548,0 0.297775,-0.24493 0.376057,-0.544288 z m -0.742074,-0.514039 c 0.08994,-0.14552 0.103989,-0.264583 0.03123,-0.264583 -0.07276,0 -0.205875,0.119063 -0.295812,0.264583 -0.08994,0.145521 -0.103989,0.264584 -0.03123,0.264584 0.07276,0 0.205875,-0.119063 0.295812,-0.264584 z m 0.926042,-1.040118 c 0,-0.107032 0.436562,-0.631166 0.97014,-1.164743 1.249897,-1.249899 0.93895,-1.2593 -0.440211,-0.01331 -0.688901,0.622383 -1.059096,0.818671 -1.059096,0.561565 0,-0.217396 -0.171548,-0.537637 -0.381214,-0.711646 -0.3278,-0.272049 -0.338434,-0.203039 -0.07589,0.492508 0.265821,0.704248 0.238127,0.860311 -0.214098,1.20639 -0.478198,0.365956 -0.451178,0.374739 0.340476,0.110671 0.472943,-0.157757 0.859896,-0.374403 0.859896,-0.481434 z m -28.087484,-0.282798 c 0.45682,-0.436563 0.73488,-0.79375 0.61791,-0.79375 -0.11697,0 -0.55488,0.357187 -0.97313,0.79375 -0.41826,0.436562 -0.69632,0.79375 -0.61791,0.79375 0.0784,0 0.51631,-0.357188 0.97313,-0.79375 z m 4.7574,0.176512 c 0.0485,-0.250089 -0.0824,-0.441096 -0.30242,-0.441096 -0.41853,0 -0.77697,0.637746 -0.50903,0.905687 0.26766,0.267657 0.71963,0.0089 0.81145,-0.464591 z m 21.345709,0.352654 c -0.08994,-0.14552 -0.282583,-0.264583 -0.428104,-0.264583 -0.145521,0 -0.191,0.119063 -0.101063,0.264583 0.08994,0.145521 0.282583,0.264584 0.428104,0.264584 0.145521,0 0.191,-0.119063 0.101063,-0.264584 z m 2.873806,-0.132291 c -0.08376,-0.218281 -0.199088,-0.396875 -0.256281,-0.396875 -0.05719,0 -0.103983,0.178594 -0.103983,0.396875 0,0.218281 0.115326,0.396875 0.25628,0.396875 0.140952,0 0.187746,-0.178594 0.103984,-0.396875 z m 3.227303,-0.636069 c -0.227184,-0.367589 -0.857562,-0.375635 -1.081188,-0.0138 -0.09388,0.151896 -0.02183,0.455528 0.160094,0.674738 0.289399,0.348703 0.378913,0.35043 0.715542,0.0138 0.211622,-0.21162 0.30412,-0.515252 0.205552,-0.674738 z m -5.77038,-0.176725 c -0.780486,-0.423421 -0.93001,-0.792102 -0.396875,-0.978585 0.236056,-0.08257 0.179253,-0.291071 -0.198437,-0.728372 -0.460614,-0.533312 -0.469183,-0.590811 -0.06615,-0.443834 0.254661,0.09287 0.4588,0.08329 0.453644,-0.02128 -0.01781,-0.361218 -0.652944,-1.248572 -0.916665,-1.280689 -0.145521,-0.01772 -0.618538,-0.115947 -1.05115,-0.218277 -0.759857,-0.179737 -0.771089,-0.168952 -0.330729,0.317639 0.250711,0.277032 0.455837,0.614598 0.455837,0.750147 0,0.13555 0.277035,0.545224 0.615635,0.910388 0.338598,0.365164 0.565468,0.814435 0.504153,0.99838 -0.164732,0.494196 0.450551,1.111946 1.09542,1.09981 0.504381,-0.0095 0.487254,-0.05164 -0.164687,-0.405325 z m -28.479088,-0.718482 c -0.21608,-0.216077 -0.29435,-0.186468 -0.29435,0.111345 0,0.525954 0.35579,0.88174 0.48727,0.487275 0.0558,-0.167349 -0.031,-0.436728 -0.19292,-0.59862 z m 7.77544,0.605234 c -0.0899,-0.145521 -0.28258,-0.264583 -0.4281,-0.264583 -0.14552,0 -0.191,0.119062 -0.10106,0.264583 0.0899,0.145521 0.28258,0.264583 0.4281,0.264583 0.14552,0 0.191,-0.119062 0.10106,-0.264583 z m 19.446877,0 c 0,-0.145521 -0.119062,-0.264583 -0.264583,-0.264583 -0.145521,0 -0.264583,0.119062 -0.264583,0.264583 0,0.145521 0.119062,0.264583 0.264583,0.264583 0.145521,0 0.264583,-0.119062 0.264583,-0.264583 z m 6.115706,-0.561593 c 0.424471,-0.454396 0.750803,-0.960412 0.725181,-1.124479 -0.02561,-0.164067 0.09158,-0.633476 0.260432,-1.043131 0.392017,-0.951047 0.38917,-0.974964 -0.11602,-0.974964 -0.818565,0 -2.110428,0.796916 -2.150319,1.326473 -0.05536,0.734975 0.174205,0.658761 1.006922,-0.334285 0.396584,-0.472943 0.79955,-0.783102 0.895477,-0.689243 0.09593,0.09386 -0.219882,0.620968 -0.701796,1.171353 -0.789922,0.902156 -0.817584,0.985497 -0.280895,0.846306 0.987978,-0.256236 0.668546,0.238471 -0.440518,0.68223 -1.301322,0.520685 -1.611736,0.965916 -0.673439,0.965916 0.44632,0 0.98515,-0.301813 1.474975,-0.826176 z m -1.402815,0.380853 c 0.190995,-0.07643 0.419198,-0.06703 0.507119,0.02089 0.08792,0.08792 -0.06835,0.150453 -0.347266,0.138965 -0.308226,-0.0127 -0.370919,-0.07539 -0.159853,-0.159853 z m -24.671278,-0.776705 c 0.49961,-0.381074 0.90839,-0.803503 0.90839,-0.938732 0,-0.135229 0.32726,-0.527375 0.72726,-0.871434 l 0.72726,-0.625564 -2.09577,-0.08935 c -2.00243,-0.08537 -3.59209,0.28995 -3.59209,0.8481 0,0.115443 -0.0723,0.398227 -0.1606,0.628411 -0.29037,0.756716 0.53971,0.44639 1.00819,-0.376909 0.52553,-0.923543 1.0045,-1.033458 1.0045,-0.230513 0,0.417454 0.0849,0.49199 0.33073,0.290452 0.42271,-0.346515 2.5887,-0.931194 2.77171,-0.748186 0.0762,0.07623 -0.37546,0.344299 -1.00377,0.595697 -0.6283,0.251399 -0.99961,0.504675 -0.82512,0.562837 0.54395,0.181318 0.0543,0.589719 -0.70708,0.589719 -0.70079,0 -1.36022,0.410462 -1.36022,0.846667 0,0.469209 1.41418,0.168981 2.26661,-0.481195 z m 2.75977,0.03176 c 0.71754,-0.363605 1.43214,-0.899387 1.58801,-1.190625 0.26361,-0.492555 0.20167,-0.529523 -0.88723,-0.529523 -0.7759,0 -1.38124,0.17546 -1.79525,0.520364 -0.78881,0.657147 -0.20832,0.723953 1.19515,0.137543 0.52709,-0.220234 0.95835,-0.308405 0.95835,-0.195936 0,0.307208 -1.04649,0.899494 -1.30595,0.739137 -0.12435,-0.07685 -0.29921,0.0508 -0.38858,0.283684 -0.11622,0.302857 -0.36895,0.38075 -0.88762,0.273564 -0.39883,-0.08242 -0.57557,-0.08488 -0.39276,-0.0055 0.18281,0.07941 0.26508,0.253283 0.18282,0.386375 -0.25966,0.420142 0.38408,0.264462 1.73306,-0.419116 z m 20.373617,-0.04129 c 0,-0.733062 -0.837427,-1.843911 -1.609849,-2.135468 l -0.757465,-0.285911 0.456052,0.611357 c 0.25083,0.336246 0.497845,0.497003 0.548923,0.357238 0.166629,-0.455949 0.816123,0.680558 0.824759,1.443191 0.0048,0.426445 0.121184,0.673523 0.272997,0.579697 0.145521,-0.08994 0.264583,-0.346484 0.264583,-0.570104 z m -29.368747,0.321136 c 0,-0.06417 -0.11907,-0.190262 -0.26459,-0.280199 -0.14552,-0.08994 -0.26458,-0.03743 -0.26458,0.116677 0,0.154109 0.11906,0.280198 0.26458,0.280198 0.14552,0 0.26459,-0.0525 0.26459,-0.116676 z m 25.532289,-0.147907 c 0.08994,-0.145521 -0.03349,-0.264583 -0.274291,-0.264583 -0.631923,0 -1.974668,-0.848398 -1.974668,-1.247672 0,-0.186905 -0.119062,-0.339828 -0.264583,-0.339828 -0.145521,0 -0.264583,-0.12609 -0.264583,-0.280199 0,-0.154108 0.122941,-0.204216 0.273201,-0.11135 0.150259,0.09287 0.618728,0.267943 1.04104,0.38906 0.59083,0.169449 0.736944,0.139709 0.633828,-0.129008 -0.23889,-0.622537 -1.479997,-0.918279 -3.006403,-0.716393 l -1.455208,0.192469 1.238296,0.856877 c 0.681063,0.471283 1.335907,0.859525 1.45521,0.86276 0.119301,0.0032 0.514567,0.238714 0.878369,0.523284 0.722948,0.565497 1.463413,0.679415 1.719792,0.264583 z m -24.230169,-0.510717 c 0.28683,-0.181543 0.14104,-0.33624 -0.61435,-0.651863 -0.54973,-0.229689 -0.91497,-0.535949 -0.82082,-0.688275 0.0933,-0.150944 0.31021,-0.186012 0.48206,-0.07793 0.43015,0.270546 2.05796,0.261423 1.78666,-0.01001 -0.24007,-0.240194 -1.99587,-0.690702 -2.73099,-0.700723 -0.70027,-0.0095 -0.55593,0.735231 0.31038,1.60154 0.83378,0.833783 1.01018,0.892386 1.58706,0.527264 z m 26.92445,-0.332642 c -0.08446,-0.211067 -0.147156,-0.148372 -0.159851,0.159852 -0.01148,0.278915 0.05104,0.435185 0.138965,0.347266 0.08792,-0.08792 0.09732,-0.316122 0.02088,-0.507118 z m 2.465094,-0.773453 c 0,-0.424191 -0.504637,-0.246316 -0.784442,0.276501 -0.464368,0.867683 -0.291293,1.25004 0.264078,0.583395 0.2862,-0.343543 0.520364,-0.730496 0.520364,-0.859896 z m -28.847244,0.283561 c -0.62282,-0.393881 -0.93853,-0.291759 -0.37405,0.120993 0.28224,0.206384 0.56944,0.318973 0.63821,0.250198 0.0688,-0.06878 -0.0501,-0.235811 -0.26416,-0.371191 z m 23.145473,0.304656 c -0.138245,-0.129165 -0.54901,-0.320074 -0.912813,-0.424241 -0.642548,-0.18398 -0.646329,-0.177507 -0.132291,0.226431 0.557469,0.438066 1.491453,0.614843 1.045104,0.19781 z m -13.083643,-0.978868 c 0,-0.195343 -0.25202,-0.490044 -0.56004,-0.65489 -0.44616,-0.238778 -0.64598,-0.213771 -0.98274,0.122983 -0.38721,0.387216 -0.36091,0.422703 0.31329,0.422703 0.64207,0 0.71195,0.0757 0.54769,0.593238 -0.16737,0.527352 -0.13997,0.553139 0.24676,0.232186 0.23927,-0.198578 0.43504,-0.520877 0.43504,-0.71622 z m 1.71979,0.15538 c 0.20695,-0.334856 -0.14331,-0.334856 -0.66146,0 -0.34202,0.221032 -0.33504,0.25704 0.0505,0.260532 0.24607,0.0022 0.52099,-0.115011 0.61093,-0.260532 z m 16.385637,-0.559146 c -0.225454,-0.364792 -0.907513,-0.275976 -0.907513,0.118173 0,0.194028 0.07834,0.43112 0.174093,0.526872 0.239271,0.239271 0.913482,-0.353699 0.73342,-0.645045 z m -15.084407,0.05394 c 0.43546,-0.481183 0.43093,-0.513544 -0.0954,-0.680606 -0.63865,-0.202701 -2.39642,0.307074 -2.39642,0.694993 0,0.144041 0.23813,0.194339 0.52917,0.111772 0.29104,-0.08257 0.79612,-0.226827 1.1224,-0.320578 0.5265,-0.151279 0.55262,-0.121511 0.23219,0.264584 -0.50643,0.610217 0.0505,0.545954 0.6081,-0.07017 z m 4.942568,0.134354 c -0.464873,-0.257617 -0.535871,-0.391492 -0.264583,-0.498903 0.203931,-0.08074 0.06321,-0.156203 -0.312723,-0.167692 -0.375929,-0.01149 -0.761032,0.05664 -0.855782,0.151389 -0.27624,0.276242 0.684813,0.869316 1.406997,0.868266 l 0.661458,-9.52e-4 -0.635367,-0.352099 z m -17.047618,-0.334705 c -0.097,-0.09701 -0.25576,-0.09701 -0.35278,0 -0.097,0.09701 -0.0176,0.176389 0.17639,0.176389 0.19403,0 0.2734,-0.07937 0.17639,-0.176389 z m 6.35,0 c -0.097,-0.09701 -0.25576,-0.09701 -0.35278,0 -0.097,0.09701 -0.0176,0.176389 0.17639,0.176389 0.19403,0 0.2734,-0.07937 0.17639,-0.176389 z m 24.562152,35.365974 c 0.08994,-0.14552 0.282583,-0.26458 0.428104,-0.26458 0.145521,0 0.191,0.11906 0.101063,0.26458 -0.08994,0.14552 -0.282583,0.26458 -0.428104,0.26458 -0.145521,0 -0.191,-0.11906 -0.101063,-0.26458 z m 1.455209,-32.808335 c 0,-0.194028 0.07937,-0.273403 0.176389,-0.176389 0.09701,0.09701 0.09701,0.255764 0,0.352778 -0.09701,0.09701 -0.176389,0.01764 -0.176389,-0.176389 z"
       id="path23152" />
  </g>
</svg>
