<?xml version="1.0" encoding="UTF-8" standalone="no"?>
<!-- Created with Inkscape (http://www.inkscape.org/) -->

<svg
   width="29.4014mm"
   height="22.827265mm"
   viewBox="0 0 29.401401 22.827265"
   version="1.1"
   id="svg5"
   inkscape:version="1.1 (c4e8f9ed74, 2021-05-24)"
   sodipodi:docname="ornatew4.svg"
   xmlns:inkscape="http://www.inkscape.org/namespaces/inkscape"
   xmlns:sodipodi="http://sodipodi.sourceforge.net/DTD/sodipodi-0.dtd"
   xmlns="http://www.w3.org/2000/svg"
   xmlns:svg="http://www.w3.org/2000/svg">
  <sodipodi:namedview
     id="namedview7"
     pagecolor="#ffffff"
     bordercolor="#666666"
     borderopacity="1.0"
     inkscape:pageshadow="2"
     inkscape:pageopacity="0.0"
     inkscape:pagecheckerboard="0"
     inkscape:document-units="mm"
     showgrid="false"
     inkscape:zoom="1.8923042"
     inkscape:cx="-137.1344"
     inkscape:cy="54.695223"
     inkscape:window-width="2506"
     inkscape:window-height="1403"
     inkscape:window-x="1974"
     inkscape:window-y="0"
     inkscape:window-maximized="1"
     inkscape:current-layer="layer1" />
  <defs
     id="defs2" />
  <g
     inkscape:label="Layer 1"
     inkscape:groupmode="layer"
     id="layer1"
     transform="translate(-277.88558,-138.47075)">
    <path
       style="fill:#000000;stroke-width:0.264583"
       d="m 292.27515,161.19277 c -3.52475,-0.0885 -6.4388,-0.28606 -7.14375,-0.48429 -0.96061,-0.27013 -1.46486,-0.27002 -2.61011,6e-4 -1.32579,0.31328 -1.49611,0.29477 -2.58055,-0.28053 -1.0483,-0.55612 -1.21136,-0.77873 -1.67869,-2.29178 -0.47594,-1.54092 -0.48518,-1.75345 -0.11477,-2.63996 0.22156,-0.53027 0.37877,-1.27744 0.34935,-1.66038 -0.0294,-0.38294 0.15429,-1.1691 0.40825,-1.74703 0.4528,-1.03042 0.45452,-2.45213 0.005,-4.1086 -0.0987,-0.3638 -0.22088,-2.19833 -0.27144,-4.07674 -0.0707,-2.62879 -0.002,-3.58843 0.29691,-4.16718 l 0.38882,-0.75191 8.39373,-0.0583 c 10.61219,-0.0738 11.63751,-0.0959 15.70827,-0.33929 3.30494,-0.1976 3.34973,-0.1927 3.66777,0.40157 0.41484,0.77513 -0.14944,2.66078 -0.85115,2.84428 -0.57691,0.15086 -0.57824,0.0389 0.0188,1.57376 1.24758,3.20751 1.35587,6.81872 0.30501,10.17111 -0.73263,2.33721 -0.69174,3.3363 0.17352,4.23944 0.67399,0.70349 0.68551,0.76082 0.24982,1.24226 -0.25123,0.27761 -1.13475,0.8639 -1.96337,1.30288 -1.80763,0.95763 -3.44057,1.06394 -12.75136,0.83014 z m 12.52984,-1.47092 1.53309,-0.95895 -0.81818,-0.84414 c -1.13247,-1.16842 -1.31368,-2.01818 -1.49764,-7.02321 -0.14538,-3.95541 0.009,-6.70764 0.59241,-10.56144 l 0.17628,-1.1644 -5.13342,0.16862 c -2.82338,0.0927 -7.93139,0.17778 -11.35113,0.18898 -6.058,0.0198 -7.20392,0.24769 -3.28883,0.65391 1.00849,0.10465 1.98476,0.27128 2.1695,0.3703 0.22323,0.11966 -0.44708,0.89805 -1.99866,2.32092 -2.67323,2.4515 -4.26923,4.6043 -4.54944,6.13666 -0.2872,1.57061 0.17179,3.89321 1.12152,5.67508 1.45713,2.73386 5.78027,5.73162 8.2657,5.73162 0.61617,0 1.7293,-0.31743 2.66431,-0.75976 1.51696,-0.71765 1.64894,-0.73726 2.38085,-0.35378 1.66948,0.87473 3.21626,0.91462 5.91028,0.1524 0.48612,-0.13753 0.58595,-0.098 0.42214,0.16701 -0.12389,0.20045 -0.1103,0.28271 0.0322,0.19466 0.13569,-0.0839 0.54104,0.0737 0.90077,0.35011 0.35973,0.27643 0.71732,0.50524 0.79463,0.50848 0.0773,0.003 0.83046,-0.42565 1.67365,-0.95307 z m -16.91935,-0.61694 c -2.27474,-1.13784 -4.53158,-3.09317 -5.62358,-4.87226 -0.79192,-1.29022 -0.97045,-1.85437 -1.05384,-3.33024 -0.14256,-2.52283 0.4149,-3.47403 4.23082,-7.21909 1.7411,-1.70877 3.09963,-3.21366 3.01895,-3.3442 -0.11929,-0.19303 15.11936,-0.59661 15.40706,-0.40804 0.0443,0.029 -0.112,1.70327 -0.3473,3.72052 -0.30175,2.58694 -0.37679,4.60334 -0.25465,6.84274 0.27946,5.12401 0.52061,6.4467 1.32925,7.29073 0.81346,0.84907 0.76809,0.99413 -0.52657,1.68344 l -0.95319,0.50751 -0.77322,-0.74079 c -0.77081,-0.73849 -0.77657,-0.73945 -1.8522,-0.30907 -1.62624,0.65069 -3.6171,0.55643 -5.00502,-0.23698 -0.83659,-0.47823 -1.25137,-0.58536 -1.49228,-0.38542 -0.46282,0.3841 -3.5711,1.58329 -4.10388,1.58329 -0.24021,0 -1.14037,-0.35196 -2.00035,-0.78214 z m 4.29072,-0.78362 c 0.60051,-0.27269 1.16464,-0.61361 1.25363,-0.75759 0.089,-0.14398 -0.34552,-1.01958 -0.96557,-1.94578 -1.34635,-2.01111 -2.04136,-4.0217 -2.04136,-5.90545 0,-1.88105 1.13775,-4.0919 3.31719,-6.44589 0.94045,-1.01577 1.7099,-1.93227 1.7099,-2.03667 0,-0.1044 -1.16086,-0.13915 -2.57969,-0.0772 -1.9685,0.0859 -2.83937,0.24778 -3.67574,0.68311 -1.41117,0.73451 -2.86192,2.4375 -3.40158,3.99302 -1.25744,3.6244 -0.47064,9.79321 1.48801,11.66661 1.4221,1.36021 3.09643,1.64268 4.89521,0.82585 z m -3.34492,-0.51165 c -1.89278,-1.00582 -2.62203,-2.7938 -2.83005,-6.93874 -0.17441,-3.47543 0.28009,-5.31482 1.70222,-6.88895 1.30739,-1.44712 2.75036,-2.13053 4.82834,-2.28675 l 1.72757,-0.12988 -0.81375,0.89264 c -1.19326,1.30893 -2.35877,2.88762 -2.87128,3.88916 -0.67165,1.31253 -0.96471,3.57067 -0.66956,5.15934 0.28378,1.52747 1.64516,4.41713 2.40494,5.10472 0.6991,0.63268 0.63168,0.78225 -0.56924,1.26277 -1.36095,0.54454 -1.78093,0.53526 -2.90919,-0.0643 z m -0.0224,-1.56061 c -0.70652,-1.09813 -0.79016,-1.42121 -0.66266,-2.55943 0.0803,-0.71646 0.28351,-1.43083 0.45169,-1.5875 0.22941,-0.2137 0.25288,-0.0866 0.094,0.50891 -0.11648,0.43656 -0.19573,1.12683 -0.17612,1.53394 0.0423,0.87833 1.33663,3.36085 1.75224,3.36085 0.15963,0 0.44985,-0.36057 0.64492,-0.80127 0.48488,-1.09543 -0.1351,-2.10915 -1.28994,-2.10915 -0.89582,0 -1.09989,-0.65038 -0.27199,-0.86688 0.46313,-0.12111 0.48717,-0.23878 0.23598,-1.15533 -0.43752,-1.59646 -0.7289,-2.0302 -1.13659,-1.69185 -0.2684,0.22276 -0.47609,0.0718 -0.90759,-0.6595 -0.62726,-1.06313 -0.76312,-1.75669 -0.24204,-1.2356 0.47177,0.47177 0.95014,0.386 1.2795,-0.22941 0.22768,-0.42544 0.19901,-0.68989 -0.12909,-1.19063 -0.48266,-0.73664 -0.27598,-0.84427 0.41699,-0.21714 0.43956,0.3978 0.48333,0.37887 0.64884,-0.28056 0.0976,-0.38893 0.11457,-1.1762 0.0377,-1.74949 -0.0769,-0.5733 -0.0321,-1.04236 0.0996,-1.04236 0.13167,0 0.23941,0.21828 0.23941,0.48507 0,0.9013 0.33153,0.82461 1.15968,-0.26825 1.7124,-2.25976 1.64468,-2.0689 0.73398,-2.0689 -0.55884,0 -0.91058,0.1754 -1.11402,0.55553 -0.21496,0.40165 -0.47765,0.52107 -0.9483,0.43109 -0.38255,-0.0731 -0.88079,0.0617 -1.2083,0.32686 -0.49528,0.40104 -0.52329,0.54893 -0.25164,1.32818 0.39243,1.12574 0.38473,1.32709 -0.0508,1.32709 -0.19605,0 -0.48077,-0.26789 -0.63271,-0.59531 -0.27399,-0.5904 -0.27897,-0.58876 -0.60361,0.19843 -0.18004,0.43657 -0.31962,1.38907 -0.31017,2.11667 0.0812,6.25673 0.0539,6.02181 0.84655,7.27604 0.91182,1.44278 1.499,2.11667 1.8443,2.11667 0.14232,0 -0.1051,-0.56555 -0.54982,-1.25677 z m 11.31809,1.91189 c 0.88021,-0.57674 1.39437,-1.74919 1.46867,-3.34906 0.14707,-3.16666 -0.37338,-12.50742 -0.73595,-13.20854 -1.05365,-2.03754 -4.26927,-0.43238 -5.72457,2.85756 -1.03844,2.34758 -1.03103,8.09691 0.0142,11.03878 1.07259,3.01875 2.92251,4.00781 4.97761,2.66126 z m -3.10598,-0.67158 c -2.00995,-2.00995 -2.7432,-9.28511 -1.27889,-12.68898 0.67471,-1.5684 2.59203,-3.43414 3.52909,-3.43414 0.39605,0 0.77552,0.21947 0.95307,0.55124 0.33391,0.62391 0.88792,10.66317 0.72005,13.04798 -0.0952,1.3521 -0.22271,1.66152 -0.9542,2.31511 -1.01483,0.90674 -2.18862,0.98929 -2.96912,0.20879 z m 1.58276,-0.44656 c 0.25685,-0.44097 0.27007,-0.44097 0.27774,0 0.01,0.5784 0.22859,0.58488 0.8471,0.0251 0.54495,-0.49317 0.64617,-1.93946 0.19476,-2.78292 -0.20907,-0.39065 -0.20907,-0.6202 0,-0.82927 0.15901,-0.159 0.2891,-0.682 0.2891,-1.16222 0,-0.69674 -0.1069,-0.87313 -0.52917,-0.87313 -0.29104,0 -0.52917,-0.11104 -0.52917,-0.24675 0,-0.13572 0.23813,-0.32233 0.52917,-0.41471 0.59667,-0.18937 0.69532,-0.90579 0.19844,-1.4411 -0.26578,-0.28635 -0.26273,-0.31777 0.0155,-0.16 0.26879,0.1524 0.32799,-0.0881 0.26459,-1.07502 -0.0711,-1.10701 -0.16699,-1.2913 -0.74174,-1.42587 -0.72474,-0.16968 -1.08849,-1.05738 -0.43328,-1.05738 0.22036,0 0.47424,0.11906 0.56418,0.26458 0.37936,0.61382 0.66146,0.1793 0.66146,-1.01885 0,-2.36565 -0.70224,-3.41901 -1.81089,-2.71637 -0.29357,0.18606 -0.28083,0.37016 0.0729,1.05428 0.23574,0.45587 0.31642,0.82886 0.17929,0.82886 -0.13713,0 -0.30353,-0.14883 -0.36977,-0.33073 -0.0662,-0.1819 -0.20954,0.12142 -0.31844,0.67403 -0.29688,1.50661 0.0553,3.11897 0.87148,3.99026 0.6724,0.71777 0.67798,0.74347 0.096,0.4418 -0.33989,-0.17618 -0.65555,-0.2809 -0.70147,-0.23273 -0.0459,0.0482 0.0771,0.98055 0.27333,2.07195 0.19625,1.09141 0.34519,2.69875 0.33099,3.57188 -0.0256,1.57308 -0.0274,1.57669 -0.2002,0.39687 -0.13123,-0.89602 -0.2273,-1.07424 -0.38826,-0.72025 -0.11764,0.2587 -0.44903,0.59621 -0.73642,0.75002 -0.49844,0.26676 -0.49674,0.24477 0.037,-0.47709 0.60648,-0.82031 0.73438,-1.94471 0.42578,-3.74329 l -0.19695,-1.14791 -0.71487,0.68489 c -1.00545,0.96328 -1.34637,0.85672 -0.40468,-0.1265 0.72066,-0.75245 0.77379,-0.94565 0.73151,-2.6601 -0.0251,-1.01679 -0.17537,-2.00509 -0.33399,-2.19622 -0.21311,-0.25678 -0.18393,-0.4342 0.11174,-0.67959 0.22007,-0.18265 0.40013,-0.57021 0.40013,-0.86125 0,-0.83422 -0.68265,-0.11151 -1.21748,1.28893 -0.44411,1.16289 -0.44208,1.18911 0.12279,1.58476 0.65366,0.45784 0.53418,0.81969 -0.38622,1.16962 -0.57482,0.21855 -0.63322,0.38816 -0.60938,1.76962 0.0399,2.30877 0.26393,2.86603 1.11571,2.77466 0.91803,-0.0985 0.95067,0.54302 0.0485,0.95406 -0.7491,0.34131 -0.8675,1.13527 -0.24619,1.65091 0.2284,0.18955 0.35671,0.5686 0.28512,0.84233 -0.16323,0.62421 0.40646,0.86416 1.13102,0.47638 0.44131,-0.23618 0.54984,-0.21717 0.54984,0.0963 0,0.21481 -0.11906,0.46415 -0.26458,0.55409 -0.3365,0.20797 -0.3467,0.92604 -0.0131,0.92604 0.13829,0 0.3728,-0.20836 0.52112,-0.46302 z m -13.11833,2.31566 c -0.70415,-0.40311 -1.50708,-0.98487 -1.78429,-1.29279 -0.72176,-0.80169 -1.237,-0.69908 -2.38307,0.4746 -1.06282,1.08842 -1.07129,1.61138 -0.0261,1.61138 0.43921,0 0.65281,-0.17048 0.71199,-0.56829 0.0465,-0.31256 0.28756,-0.69553 0.53568,-0.85104 0.35383,-0.22177 0.59094,-0.1514 1.09939,0.32626 0.69613,0.65398 2.53833,1.39642 2.90405,1.17039 0.12244,-0.0757 -0.35349,-0.4674 -1.05764,-0.87051 z m 9.69994,0.6609 c -0.35913,-0.43273 -1.32291,-0.54517 -1.32291,-0.15434 0,0.28687 0.46769,0.50127 1.15687,0.53033 0.41092,0.0173 0.43924,-0.0468 0.16604,-0.37599 z m -13.85275,-2.02154 c 1.07097,-1.05108 1.09965,-1.12083 0.70719,-1.7198 -0.22497,-0.34335 -0.58668,-0.62428 -0.8038,-0.62428 -0.21711,0 -0.33635,-0.1522 -0.26497,-0.33821 0.0714,-0.18601 -0.14444,-0.8509 -0.47961,-1.47753 -0.58736,-1.09815 -0.62059,-1.11838 -0.91944,-0.55997 -0.1797,0.33578 -0.23825,0.96207 -0.13927,1.4897 0.13849,0.73822 0.0629,0.99773 -0.39982,1.37241 -0.49463,0.40052 -0.51861,0.5052 -0.1801,0.78614 0.40481,0.33596 1.25132,0.1719 1.25132,-0.24252 0,-0.12995 0.23813,-0.23627 0.52917,-0.23627 0.69328,0 0.71276,0.9644 0.0239,1.18304 -0.66458,0.21093 -1.1716,0.83954 -0.95709,1.18662 0.26879,0.43492 0.44429,0.34684 1.63253,-0.81933 z m 24.38566,-4.08412 c 0.51249,-1.53564 0.4832,-3.31356 -0.0685,-4.15552 -0.25912,-0.39546 -0.3454,-0.71903 -0.19173,-0.71903 0.15367,0 0.35298,0.11907 0.44292,0.26459 0.30074,0.48661 0.66146,0.27173 0.66146,-0.39404 0,-0.36224 -0.23807,-1.28498 -0.52904,-2.05052 -0.61345,-1.61401 -0.61203,-1.60656 -0.26471,-1.3919 0.35013,0.21639 0.33722,0.10016 -0.14745,-1.3274 -0.50186,-1.47819 -0.42316,-3.17052 0.14745,-3.17052 0.47886,0 0.83696,-0.77016 0.62044,-1.33439 -0.18146,-0.47287 -0.63641,-0.39144 -0.89115,0.15951 -0.0969,0.20962 -0.31378,0.64741 -0.48192,0.97285 -0.17202,0.33296 -0.30571,1.76102 -0.30571,3.26556 0,2.31702 0.0742,2.76768 0.55581,3.37703 l 0.55581,0.70319 -0.6881,0.0837 c -0.65135,0.0793 -0.68779,0.16403 -0.68229,1.5875 0.004,0.921 0.20827,1.94995 0.52823,2.65505 0.50254,1.10748 0.49171,1.80147 -0.0231,1.48327 -0.13547,-0.0837 -0.24631,0.16238 -0.24631,0.5469 0,1.01434 0.59303,0.6873 1.00791,-0.55585 z m -25.52466,-7.72393 c -0.1313,-1.70268 -0.085,-2.11662 0.2695,-2.41085 0.50318,-0.4176 1.2285,-0.21596 1.2285,0.34152 0,0.55912 -0.54694,0.81851 -0.81928,0.38855 -0.18644,-0.29436 -0.23173,-0.28165 -0.235,0.066 -0.007,0.71035 0.66751,1.10859 1.30195,0.76905 0.59007,-0.3158 0.70402,-1.07164 0.28078,-1.86247 -0.27933,-0.52194 0.092,-1.02229 0.39493,-0.53215 0.37073,0.59985 1.39613,0.24098 2.35117,-0.82287 0.53906,-0.60048 0.94554,-1.12266 0.9033,-1.1604 -0.0422,-0.0378 -0.55305,-0.14302 -1.13514,-0.23395 -1.13077,-0.17665 -1.42395,-0.059 -1.87098,0.75058 -0.51922,0.94036 -0.94366,0.81478 -0.85582,-0.2532 0.0782,-0.95099 0.0427,-0.99588 -1.04837,-1.32343 -0.99913,-0.29995 -1.15646,-0.28838 -1.36448,0.10032 -0.34402,0.64281 -0.0504,1.88409 0.40441,1.70957 0.20329,-0.078 0.55989,-0.0688 0.79245,0.0204 0.35144,0.13486 0.27905,0.32601 -0.42875,1.13215 -0.82365,0.93808 -0.84759,1.03207 -0.72995,2.86521 0.10969,1.70914 0.30487,2.51158 0.61091,2.51158 0.0596,0 0.0371,-0.92503 -0.0501,-2.05563 z"
       id="path8162" />
  </g>
</svg>
