<?xml version="1.0" encoding="UTF-8" standalone="no"?>
<!-- Created with Inkscape (http://www.inkscape.org/) -->

<svg
   width="64.156166mm"
   height="59.211327mm"
   viewBox="0 0 64.156174 59.211328"
   version="1.1"
   id="svg5"
   inkscape:version="1.1 (c4e8f9ed74, 2021-05-24)"
   sodipodi:docname="ornatel6.svg"
   xmlns:inkscape="http://www.inkscape.org/namespaces/inkscape"
   xmlns:sodipodi="http://sodipodi.sourceforge.net/DTD/sodipodi-0.dtd"
   xmlns="http://www.w3.org/2000/svg"
   xmlns:svg="http://www.w3.org/2000/svg">
  <sodipodi:namedview
     id="namedview7"
     pagecolor="#ffffff"
     bordercolor="#666666"
     borderopacity="1.0"
     inkscape:pageshadow="2"
     inkscape:pageopacity="0.0"
     inkscape:pagecheckerboard="0"
     inkscape:document-units="mm"
     showgrid="false"
     inkscape:zoom="0.94615212"
     inkscape:cx="-295.40704"
     inkscape:cy="134.75634"
     inkscape:window-width="2506"
     inkscape:window-height="1403"
     inkscape:window-x="1974"
     inkscape:window-y="0"
     inkscape:window-maximized="1"
     inkscape:current-layer="layer1" />
  <defs
     id="defs2" />
  <g
     inkscape:label="Layer 1"
     inkscape:groupmode="layer"
     id="layer1"
     transform="translate(-230.07408,-129.90417)">
    <path
       style="fill:#000000;stroke-width:0.264583"
       d="m 257.49949,188.71863 c 0,-0.21828 0.19318,-0.39688 0.42927,-0.39688 0.35158,0 0.36966,0.0718 0.0999,0.39688 -0.18116,0.21828 -0.37433,0.39687 -0.42927,0.39687 -0.0549,0 -0.0999,-0.17859 -0.0999,-0.39687 z m 6.35,0.0309 c 0,-0.23573 0.97543,-0.32982 1.45944,-0.14078 0.39985,0.15616 0.28851,0.20945 -0.46725,0.22361 -0.5457,0.0102 -0.99219,-0.0271 -0.99219,-0.0828 z m 8.27789,-0.0944 c 0.84206,-0.0527 2.15175,-0.0522 2.91042,10e-4 0.75867,0.0533 0.0697,0.0964 -1.53101,0.0958 -1.60073,-5.3e-4 -2.22146,-0.0442 -1.37941,-0.0968 z m 11.02928,-0.0586 c 0.42183,-0.26677 0.3127,-0.34205 -0.91862,-0.63371 -0.29105,-0.0689 0.21497,-0.1159 1.12447,-0.10436 0.90951,0.0115 1.65365,0.1205 1.65365,0.24214 0,0.12164 -0.26789,0.23684 -0.59531,0.25599 -0.39688,0.0232 -0.28663,0.0998 0.33073,0.22976 0.83972,0.17675 0.79039,0.19779 -0.52917,0.2257 -0.99094,0.021 -1.33095,-0.0478 -1.06575,-0.21552 z m -24.00352,-0.46149 c -0.32742,-0.0631 -0.59531,-0.22544 -0.59531,-0.36084 0,-0.13541 -0.22539,-0.24619 -0.50086,-0.24619 -0.57097,0 -0.9555,-0.70236 -0.47647,-0.87029 0.58288,-0.20434 -0.63822,-1.24637 -1.46054,-1.24637 -0.47756,0 -0.70226,0.10696 -0.59369,0.28262 0.0961,0.15544 0.32964,0.22315 0.51906,0.15046 0.18942,-0.0727 0.56433,0.0345 0.83313,0.23813 0.46658,0.3535 0.46245,0.37067 -0.091,0.37871 -0.31884,0.005 -0.64358,0.11177 -0.72166,0.23809 -0.0781,0.12633 -0.96096,0.17108 -1.96198,0.0995 -1.68394,-0.12048 -1.85256,-0.0838 -2.25492,0.49065 -0.23918,0.34148 -0.43487,0.47531 -0.43487,0.29742 0,-0.1985 -0.43442,-0.33738 -1.12448,-0.35949 -0.65066,-0.0208 -0.84576,-0.0799 -0.46302,-0.14022 2.50583,-0.39469 2.32664,-0.88208 -0.3243,-0.88208 -1.03431,0 -1.83095,-0.0442 -1.77032,-0.0983 0.0892,-0.0795 4.80319,-0.39586 6.31472,-0.42381 0.23519,-0.004 0.28638,-0.0973 0.13229,-0.24023 -0.14521,-0.13469 -1.46061,-0.11292 -3.11499,0.0516 -2.18102,0.21682 -2.98431,0.20933 -3.36985,-0.0315 -0.60179,-0.37582 -1.49187,-0.41526 -1.61582,-0.0716 -0.0485,0.13449 -0.38333,0.004 -0.74405,-0.28987 l -0.65586,-0.53441 1.25117,0.18763 c 1.24736,0.18705 1.25111,0.18532 1.23029,-0.57002 -0.0115,-0.41671 -0.081,-0.60882 -0.15434,-0.42692 -0.0734,0.1819 -0.33189,0.33255 -0.57443,0.33478 -0.3814,0.004 -0.38735,0.0387 -0.0441,0.26053 0.44405,0.28697 0.0176,0.35627 -0.63982,0.10399 -0.55386,-0.21254 -0.53195,-0.56471 0.0445,-0.71535 0.37925,-0.0991 0.38635,-0.12656 0.0392,-0.15169 -0.23308,-0.0169 -0.79754,0.32649 -1.25436,0.76305 -0.90161,0.86163 -1.72888,1.12247 -1.04894,0.33073 0.80203,-0.93391 0.80735,-1.12531 0.0307,-1.10588 -0.65374,0.0163 -0.67951,0.046 -0.21405,0.24599 0.44715,0.19215 0.39932,0.23027 -0.30869,0.24598 -0.46081,0.0102 -0.90257,0.16743 -0.98168,0.34933 -0.0791,0.1819 -0.0749,-0.0265 0.009,-0.46302 0.14234,-0.73743 0.12584,-0.75827 -0.23253,-0.29361 -0.34648,0.44924 -0.40269,0.45597 -0.55228,0.0662 -0.0916,-0.2387 -0.43816,-0.44809 -0.77015,-0.4653 -0.49765,-0.0258 -0.46428,-0.0668 0.19013,-0.23328 l 0.79375,-0.20198 -0.84428,-0.0313 c -0.46435,-0.0172 -0.91786,0.0878 -1.0078,0.23328 -0.0899,0.14552 -0.66251,0.24553 -1.27239,0.22224 -0.97918,-0.0374 -1.00802,-0.0548 -0.24655,-0.14924 0.47427,-0.0588 1.18865,-0.28788 1.5875,-0.5091 l 0.72519,-0.4022 -0.79375,0.17344 c -1.81998,0.39769 -2.45971,0.43684 -2.6302,0.16099 -0.11213,-0.18143 0.0755,-0.28988 0.50151,-0.28988 0.37436,0 0.8874,-0.12331 1.14009,-0.27402 0.25269,-0.1507 1.47146,-0.50357 2.70839,-0.78414 1.53813,-0.34889 1.91212,-0.49674 1.18325,-0.46779 -0.58614,0.0233 -1.23395,-0.0617 -1.43959,-0.18875 -0.23644,-0.14613 -0.41205,-0.11658 -0.4777,0.0803 -0.11199,0.33599 -2.09399,0.42797 -2.863,0.13287 -0.43134,-0.16552 -0.42809,-0.19212 0.0445,-0.36428 0.33891,-0.12346 0.15503,-0.18185 -0.54851,-0.17416 -0.58208,0.006 -0.84998,0.06 -0.59531,0.11911 1.17216,0.27221 0.2192,0.46753 -2.38233,0.48826 -1.70247,0.0136 -2.07358,-0.0174 -0.92497,-0.0773 1.61555,-0.0842 1.91823,-0.1733 1.91823,-0.56485 0,-0.37885 -0.1781,-0.44412 -0.96215,-0.35258 -0.61145,0.0714 -0.90137,0.014 -0.79541,-0.15748 0.0917,-0.14838 0.64374,-0.31528 1.22674,-0.37088 0.91409,-0.0872 1.06421,-0.0273 1.09068,0.43507 0.0255,0.44603 0.051,0.45832 0.15169,0.0731 0.0665,-0.25466 0.20567,-0.46302 0.30914,-0.46302 0.10348,0 0.39913,-0.35719 0.65702,-0.79375 0.25788,-0.43656 0.35159,-0.79375 0.20823,-0.79375 -0.39266,0 -1.117,0.80413 -0.95722,1.06266 0.0769,0.12444 -0.24864,0.11484 -0.72343,-0.0213 -0.47479,-0.13617 -0.8955,-0.24758 -0.93492,-0.24758 -0.0394,0 -0.01,-0.35171 0.066,-0.78158 l 0.1377,-0.78159 -1.2584,0.41049 c -0.69212,0.22577 -1.60274,0.47441 -2.02359,0.55255 -1.22456,0.22734 -0.59495,-0.35695 0.96673,-0.89716 1.21663,-0.42085 1.29652,-0.49017 0.65386,-0.5674 -1.18868,-0.14287 -0.56416,-0.53847 0.6683,-0.42333 0.92872,0.0868 1.18975,0.007 1.47752,-0.45429 0.25069,-0.40141 0.26856,-0.64061 0.0632,-0.84597 -0.15747,-0.15746 -0.28631,-0.46835 -0.28631,-0.69084 0,-0.29109 0.17291,-0.22059 0.61652,0.25135 0.60855,0.64741 0.61027,0.66617 0.13328,1.44965 -0.26578,0.43656 -0.48368,0.94257 -0.48423,1.12447 -10e-4,0.46704 1.08977,0.41088 1.80934,-0.0931 0.33283,-0.23312 0.62761,-0.38195 0.65507,-0.33073 0.0275,0.0512 0.32834,0.49004 0.66862,0.97515 l 0.61869,0.88201 -0.72879,-0.0883 c -0.40083,-0.0486 -0.77366,0.045 -0.82851,0.20778 -0.063,0.18715 0.14744,0.2488 0.57223,0.16759 0.96166,-0.18383 0.83036,0.13284 -0.18795,0.45331 -0.79745,0.25096 -0.77344,0.26021 0.33073,0.12742 0.65484,-0.0788 1.23031,-0.25665 1.27882,-0.39534 0.0485,-0.13868 0.25687,-0.25215 0.46302,-0.25215 0.20615,0 0.37483,-0.11906 0.37483,-0.26458 0,-0.14552 0.18562,-0.26459 0.41249,-0.26459 0.24442,0 0.33557,0.12446 0.2237,0.30547 -0.10749,0.17392 -0.0735,0.23419 0.079,0.13995 0.14728,-0.091 0.66439,-0.0518 1.14912,0.0873 0.70154,0.2012 0.98036,0.16313 1.36683,-0.18662 0.58959,-0.53357 0.33924,-0.83639 -0.79403,-0.96046 -0.46844,-0.0513 -0.93062,-0.17214 -1.02706,-0.26858 -0.27619,-0.2762 -1.41006,-0.20445 -1.41006,0.0892 0,0.14552 0.36421,0.26459 0.80936,0.26459 0.44515,0 0.75171,0.0933 0.68124,0.20731 -0.0705,0.11403 -0.61328,0.16105 -1.20624,0.1045 -1.0292,-0.0982 -1.07811,-0.14357 -1.07811,-1.00106 0,-0.93073 0.11288,-0.99001 1.8915,-0.99343 0.28196,-5.3e-4 0.38451,-0.14764 0.28991,-0.41585 -0.0805,-0.22826 0.24556,-0.0578 0.7246,0.37874 0.85734,0.78132 0.86395,0.7827 0.42182,0.0884 -0.36414,-0.57186 -1.34346,-1.27906 -1.34346,-0.97015 0,0.0431 -0.29438,-0.12778 -0.65418,-0.3798 -0.3598,-0.25201 -0.9321,-0.45821 -1.27178,-0.45821 -0.58535,0 -0.59609,-0.0307 -0.20571,-0.58804 0.45619,-0.6513 0.54623,-1.67894 0.16761,-1.91294 -0.13435,-0.083 -0.6788,0.10541 -1.2099,0.41876 -0.82286,0.4855 -0.94203,0.67176 -0.80602,1.25983 0.10062,0.43508 0.0741,0.56239 -0.0717,0.34452 -0.1272,-0.19006 -0.87495,-0.40765 -1.66168,-0.48351 l -1.43042,-0.13794 -0.72753,1.34341 c -0.50072,0.92462 -0.89251,1.34341 -1.25677,1.34341 -0.37985,0 -0.52924,-0.17635 -0.52924,-0.62476 0,-0.52375 0.10695,-0.60433 0.66146,-0.49833 0.78333,0.14975 0.8253,-0.11462 0.14722,-0.92743 -0.482,-0.57777 -0.99059,-0.83912 -0.69164,-0.3554 0.0815,0.13195 -0.0887,0.17794 -0.37828,0.10221 -0.58379,-0.15266 -0.46391,-0.6067 0.16018,-0.6067 0.21828,0 0.32209,-0.12101 0.23068,-0.2689 -0.0914,-0.1479 -0.30679,-0.1986 -0.47863,-0.11267 -0.17185,0.0859 -0.0813,-0.0312 0.20114,-0.26027 0.28248,-0.22907 0.59006,-0.4165 0.68351,-0.4165 0.0935,0 0.16992,-0.16724 0.16992,-0.37165 0,-0.22241 -0.16011,-0.31021 -0.39872,-0.21864 -0.30545,0.11721 -0.3517,0.034 -0.1977,-0.35596 0.37435,-0.9479 0.40861,-1.52683 0.11151,-1.88481 -0.49593,-0.59756 0.0295,-0.75876 0.88077,-0.2702 0.79077,0.45383 0.81046,0.45078 1.32702,-0.20593 0.28839,-0.36663 0.62619,-0.60366 0.75066,-0.52673 0.12448,0.0769 -0.0718,0.43803 -0.43627,0.80245 -0.94589,0.9459 -0.73581,1.57627 0.5253,1.57627 0.88433,0 1.05035,0.10421 1.36985,0.85989 0.55802,1.31983 1.18285,0.97807 1.18285,-0.64698 0,-0.59378 0.0902,-0.65662 0.79375,-0.55335 0.62688,0.092 0.79375,0.018 0.79375,-0.35184 0,-0.25759 -0.24137,-0.6374 -0.53637,-0.84404 -0.45234,-0.31683 -0.4935,-0.48847 -0.26269,-1.09553 0.36106,-0.94967 0.14294,-1.24384 -0.688,-0.92792 -0.54035,0.20544 -0.83722,0.14067 -1.49188,-0.32549 -0.95492,-0.67996 -0.50791,-1.01015 0.48594,-0.35895 0.36577,0.23966 0.86797,0.37264 1.116,0.2955 0.70989,-0.22079 1.20594,0.25875 1.2583,1.2164 0.0695,1.27149 0.0836,1.30806 0.47024,1.22255 0.19335,-0.0428 0.65168,0.2706 1.01852,0.69635 0.60436,0.70142 0.63361,0.83806 0.31155,1.45521 -0.71284,1.36602 -0.17556,1.80546 1.00106,0.81878 0.49629,-0.41617 0.55087,-0.57246 0.26565,-0.76068 -0.24285,-0.16026 -0.26676,-0.29388 -0.0739,-0.41307 0.16811,-0.1039 0.34909,0.12678 0.4411,0.56224 0.0858,0.40614 0.25937,0.93151 0.38567,1.16749 0.14326,0.26767 0.11237,0.56145 -0.0821,0.78099 -0.25809,0.29134 -0.23405,0.29326 0.13967,0.0112 0.24828,-0.18741 0.57593,-0.2638 0.7281,-0.16976 0.4474,0.27651 0.88276,-1.19918 0.56168,-1.90387 -0.24227,-0.53171 -0.20329,-0.6028 0.33055,-0.6028 0.33287,0 0.83634,-0.17058 1.11881,-0.37907 0.41164,-0.30381 0.44794,-0.44562 0.18286,-0.71437 -0.47854,-0.48517 -0.407,-0.75865 0.19844,-0.75865 0.29104,0 0.52917,0.13946 0.52917,0.3099 0,0.17044 0.19502,0.5254 0.43339,0.78879 0.30481,0.33681 0.35367,0.57848 0.16467,0.81458 -0.14779,0.18463 -0.35084,0.60358 -0.45122,0.931 -0.15362,0.50112 -0.0834,0.59532 0.44387,0.59532 0.3445,0 0.78413,-0.14883 0.97694,-0.33073 0.28086,-0.26496 0.37587,-0.26143 0.47776,0.0178 0.07,0.19167 0.40231,0.66792 0.73856,1.05833 l 0.61137,0.70985 0.18416,-0.73185 c 0.10129,-0.40252 0.12407,-0.96164 0.0506,-1.2425 -0.11013,-0.42116 0.0247,-0.52474 0.76953,-0.59107 1.14944,-0.10236 1.20463,-0.46868 0.17158,-1.13875 -0.65757,-0.42652 -0.78996,-0.66408 -0.6825,-1.22468 0.1466,-0.76475 -0.29039,-1.21492 -0.79147,-0.81534 -0.17553,0.13997 -1.21211,0.32023 -2.30351,0.4006 -1.09141,0.0804 -2.25227,0.2281 -2.57969,0.32831 -0.43447,0.13297 -0.59531,0.0746 -0.59531,-0.21622 0,-0.21913 -0.20941,-0.65702 -0.46534,-0.97309 -0.52655,-0.65026 -1.27292,-0.52398 -1.5209,0.25733 -0.12488,0.39346 -0.33365,0.45705 -1.09489,0.33352 -0.65191,-0.10579 -1.01241,-0.0392 -1.17463,0.21701 -0.19002,0.3001 -0.23482,0.2866 -0.23811,-0.0717 -0.002,-0.24276 -0.0662,-0.60336 -0.14218,-0.80134 -0.076,-0.19798 0.0512,-0.59467 0.28261,-0.88153 0.40701,-0.50456 0.41591,-0.49881 0.27283,0.17635 -0.13132,0.61962 -0.0559,0.71142 0.67192,0.81825 0.59281,0.087 0.95945,-0.0295 1.32402,-0.42086 0.44152,-0.47391 0.45376,-0.56941 0.0985,-0.76824 -0.22315,-0.12488 -0.65636,-0.14751 -0.96269,-0.0503 -0.36476,0.11577 -0.49645,0.0789 -0.38162,-0.10694 0.23438,-0.37922 2.53676,-0.26658 2.53676,0.12412 0,0.16649 0.19099,0.46122 0.42444,0.65496 0.23344,0.19373 0.52559,0.6183 0.64922,0.94347 0.19989,0.52576 0.32116,0.56359 1.09517,0.34161 0.47871,-0.13729 1.48922,-0.24963 2.24558,-0.24963 0.75635,0 1.43072,-0.0893 1.49859,-0.19843 0.0679,-0.10914 -0.60972,-0.15732 -1.50574,-0.10706 -0.89603,0.0503 -1.55682,0.0176 -1.46844,-0.0725 0.0884,-0.0901 1.02307,-0.22092 2.07708,-0.29062 1.05401,-0.0697 2.04372,-0.20544 2.19937,-0.30163 0.17694,-0.10935 0.22089,-0.0131 0.11729,0.25691 -0.0911,0.23749 -0.0678,0.49231 0.0518,0.56625 0.11965,0.0739 0.1601,0.43495 0.0899,0.80223 -0.10357,0.54182 -0.0233,0.66777 0.42575,0.66777 0.48227,0 0.53189,-0.11052 0.38611,-0.8599 -0.092,-0.47294 -0.25263,-0.91942 -0.35695,-0.99218 -0.22147,-0.15448 0.16781,-1.32292 0.44074,-1.32292 0.10171,0 0.10973,0.0752 0.0178,0.16708 -0.0919,0.0919 -0.0587,0.36954 0.0737,0.61698 0.13243,0.24745 0.26955,1.0057 0.30471,1.68501 0.04,0.7719 0.18696,1.2351 0.39197,1.2351 0.18042,0 0.37785,0.14883 0.43872,0.33073 0.0609,0.1819 0.0662,0.0308 0.0118,-0.33588 -0.0544,-0.36663 0.0851,-0.90242 0.30989,-1.19063 0.3818,-0.48941 0.38766,-0.47471 0.0888,0.22254 -0.257,0.59961 -0.25118,0.78907 0.0296,0.9626 0.21254,0.13136 0.26489,0.35731 0.13355,0.57637 -0.11882,0.19817 0.28299,-0.0862 0.8929,-0.63188 0.60992,-0.5457 1.31696,-0.98279 1.5712,-0.9713 0.36527,0.0165 0.37899,0.051 0.0654,0.16435 -0.46937,0.16967 -2.38125,1.95605 -2.38125,2.22494 0,0.44631 2.97486,-0.95509 3.43958,-1.62032 0.0728,-0.10415 0.41036,-0.2762 0.75023,-0.38233 l 0.61794,-0.19297 -0.55422,-0.58992 c -0.67302,-0.71641 -0.49013,-0.99276 0.38766,-0.58577 0.87615,0.40623 0.81665,1.09764 -0.14328,1.66468 -0.43656,0.25788 -0.79375,0.54839 -0.79375,0.64556 0,0.0972 -0.26789,0.26689 -0.59531,0.37716 -0.56208,0.18929 -0.55212,0.20701 0.17842,0.31746 0.59323,0.0897 0.68581,0.17545 0.39687,0.36759 -0.26619,0.177 -0.17921,0.20498 0.29618,0.0953 0.48059,-0.1109 0.81385,2.7e-4 1.16549,0.38884 0.51685,0.57112 0.21863,0.77569 -0.3304,0.22666 -0.23747,-0.23747 -0.3175,-0.23957 -0.3175,-0.008 0,0.17005 -0.17859,0.24066 -0.39687,0.1569 -0.21828,-0.0838 -0.39688,-0.0205 -0.39688,0.14059 0,0.1611 0.13076,0.2929 0.29057,0.2929 0.15981,0 0.0413,0.38695 -0.26333,0.85989 -0.30463,0.47294 -0.70328,0.81811 -0.88587,0.76704 -0.1826,-0.0511 -0.66017,-0.11748 -1.06128,-0.14758 -0.5469,-0.041 -0.70104,0.0484 -0.61631,0.35745 0.0621,0.22668 0.18666,0.66955 0.2767,0.98415 0.13668,0.47752 0.0285,0.60171 -0.65519,0.75186 -1.0804,0.2373 -0.95172,0.95311 0.23239,1.29271 0.62285,0.17863 1.03479,0.16111 1.38725,-0.059 0.60706,-0.37912 0.61119,-0.34555 0.0868,0.70572 -0.43408,0.87012 -0.33279,1.36693 0.27869,1.36693 0.3316,0 1.30791,-1.02588 1.50732,-1.58386 0.15459,-0.43254 2.06815,0.35842 2.06815,0.85485 0,0.25954 -0.20428,0.47183 -0.46302,0.4812 -0.35476,0.0129 -0.32383,0.0727 0.13229,0.25606 0.41477,0.16672 0.59531,0.45966 0.59531,0.96596 0,0.62911 0.0492,0.67466 0.36619,0.33926 0.28861,-0.30534 0.40014,-2.16415 0.52644,-8.77341 0.0881,-4.6123 0.0892,-8.57113 0.002,-8.7974 -0.27364,-0.71309 -0.59537,-0.44822 -0.6806,0.56033 -0.0488,0.57751 -0.24313,1.02156 -0.47899,1.09455 -0.21828,0.0676 -0.30943,0.029 -0.20255,-0.0857 0.10688,-0.11467 -0.0122,-0.37793 -0.26458,-0.58502 -0.42354,-0.3475 -0.41302,-0.36673 0.1364,-0.24937 0.45365,0.0969 0.59531,0.007 0.59531,-0.37724 0,-0.36513 -0.2009,-0.51434 -0.7276,-0.54043 -0.71288,-0.0353 -0.71422,-0.0384 -0.0661,-0.15469 0.69635,-0.12493 1.39006,-0.60302 0.87498,-0.60302 -0.15906,0 -0.35741,-0.17777 -0.44078,-0.39503 -0.32828,-0.85548 1.84031,0.8743 2.67883,2.13678 0.99442,1.49721 1.28278,2.37922 1.67956,5.13741 0.37565,2.6113 0.11641,5.02027 -0.8065,7.49416 -1.41459,3.79184 -2.3885,4.95251 -5.64171,6.72351 -1.20967,0.65853 -1.24103,0.70483 -0.80427,1.18745 0.3919,0.43304 0.40128,0.53583 0.0681,0.74657 -0.24309,0.15375 1.87024,0.24894 5.69906,0.25668 3.34698,0.007 10.99675,0.0828 16.99948,0.16886 l 10.91407,0.15654 v -0.93267 c 0,-0.79389 -0.11558,-0.97296 -0.77678,-1.20345 -0.44971,-0.15677 -0.96589,-0.63648 -1.2259,-1.13929 -0.40104,-0.77552 -0.42877,-1.49987 -0.25904,-6.76655 0.20372,-6.32092 0.24744,-6.09554 -1.11172,-5.73129 -0.32742,0.0877 -0.59531,0.32839 -0.59531,0.53476 0,0.99052 -1.98141,7.00619 -2.72775,8.28162 -1.18522,2.02543 -2.8666,3.64244 -4.62404,4.44702 -1.20417,0.55129 -1.92397,0.69113 -3.62386,0.70404 -2.59538,0.0197 -4.10771,-0.66529 -6.04758,-2.73917 -2.2928,-2.45118 -3.41931,-6.07369 -3.21448,-10.3367 0.18817,-3.9161 1.14106,-6.06895 3.84616,-8.68959 1.0117,-0.98012 1.83946,-1.92017 1.83946,-2.08901 0,-0.16884 -0.38935,-0.60395 -0.86522,-0.96692 l -0.86523,-0.65994 0.19879,-2.85925 c 0.30602,-4.40149 0.64889,-13.91496 0.52062,-14.44535 -0.10593,-0.438 -0.15014,-0.44138 -0.58813,-0.045 -0.38053,0.34438 -0.51058,1.04835 -0.66183,3.58246 -0.10353,1.73462 -0.29201,3.15386 -0.41883,3.15386 -0.12682,0 -0.23059,0.42375 -0.23059,0.94166 0,0.5646 0.10666,0.87574 0.26637,0.77703 0.1745,-0.10785 0.25991,1.18727 0.24766,3.75509 -0.0103,2.15584 0.0687,4.14743 0.17547,4.42575 0.35239,0.91832 -0.3057,0.22745 -1.54391,-1.62081 -0.97853,-1.46063 -1.25844,-2.15211 -1.49746,-3.69919 -0.60878,-3.94051 -0.1835,-7.05 1.37026,-10.01897 0.77373,-1.47845 3.04816,-3.25296 3.6738,-2.86629 0.18112,0.11194 0.22709,0.0675 0.116,-0.1123 -0.1113,-0.18008 0.0816,-0.36437 0.48828,-0.46644 0.47046,-0.11808 0.67228,-0.3472 0.67228,-0.76324 0,-0.54093 -0.16099,-0.60972 -1.78593,-0.76319 -0.98227,-0.0928 -4.37555,-0.16952 -7.54063,-0.17055 l -5.75469,-0.002 v 0.6362 c 0,0.49286 0.31815,0.81575 1.4121,1.43314 1.42402,0.80366 3.2079,2.68351 3.9366,4.14837 0.21717,0.43656 0.54137,1.38906 0.72045,2.11666 0.44043,1.7895 0.40711,6.64295 -0.0546,7.9568 -0.59549,1.69444 -2.72111,4.72147 -3.87889,5.52382 -0.59251,0.4106 -1.07729,0.90896 -1.07729,1.10745 0,0.19849 -0.11907,0.36089 -0.26459,0.36089 -0.50276,0 -0.26191,-0.6973 0.48951,-1.41721 0.68152,-0.65294 0.75743,-0.90336 0.7888,-2.60219 0.0442,-2.3905 0.30919,-2.73847 0.30919,-0.40594 0,1.76069 0.29253,2.43346 0.68682,1.57955 0.34509,-0.74737 0.46552,-15.95145 0.12902,-16.28796 -0.19355,-0.19354 -0.28667,-0.19668 -0.28667,-0.01 0,0.15236 -0.22224,0.53326 -0.49387,0.84645 -0.32284,0.37224 -0.60525,1.37126 -0.81548,2.88476 -0.39572,2.84881 -0.3875,2.63957 -0.15083,3.83667 0.13226,0.66899 0.10038,0.99219 -0.0979,0.99219 -0.16172,0 -0.29403,-0.23813 -0.29403,-0.52917 0,-0.75485 0.0155,-0.68336 -0.40732,-1.88167 -0.48623,-1.37815 -0.47149,-2.23441 0.02,-1.16104 0.35861,0.78319 0.36361,0.77339 0.37538,-0.73557 0.008,-1.01362 0.23499,-2.05928 0.6734,-3.10089 0.3638,-0.86435 0.66145,-1.63365 0.66145,-1.70955 0,-0.0759 -0.66096,-0.51103 -1.46881,-0.96695 -1.44478,-0.81539 -1.46751,-0.8468 -1.38906,-1.92049 l 0.0797,-1.09155 5.09323,0.0455 c 2.80127,0.025 5.09323,-0.0435 5.09323,-0.15231 0,-0.1088 -0.30821,-0.48647 -0.68491,-0.83926 l -0.6849,-0.64143 -0.58181,0.72761 c -0.31999,0.40018 -0.67527,0.7276 -0.7895,0.7276 -0.11424,0 0.0409,-0.31603 0.34472,-0.70229 0.51802,-0.65856 0.5249,-0.7327 0.11048,-1.19063 -0.25229,-0.27878 -0.31361,-0.48833 -0.14289,-0.48833 0.21635,0 0.22313,-0.19968 0.0245,-0.72206 -0.15216,-0.4002 -0.19706,-1.2853 -0.10075,-1.98561 0.14521,-1.05578 0.28162,-1.29061 0.82962,-1.42815 0.36071,-0.0905 0.78999,-0.0305 0.95396,0.13353 0.2211,0.22111 0.12231,0.29812 -0.38244,0.29812 -0.58642,0 -0.70338,0.14266 -0.84547,1.03127 -0.17917,1.12048 0.028,2.59885 0.39603,2.82631 0.12673,0.0783 0.23041,0.0388 0.23041,-0.0878 0,-0.12659 0.59827,-0.38351 1.32948,-0.57091 1.16017,-0.29734 1.41287,-0.28609 1.98437,0.0884 0.3602,0.23601 0.6549,0.54543 0.6549,0.68759 0,0.40395 -0.45544,0.30308 -0.62485,-0.13839 -0.22033,-0.57417 -1.76023,-0.48771 -2.55015,0.14318 l -0.66146,0.52829 1.05834,0.9171 c 1.03278,0.89496 1.11422,0.9172 3.37343,0.92104 l 2.31511,0.004 v 1.19491 c 0,1.1051 -0.0696,1.22809 -0.92604,1.6365 -0.76001,0.36243 -0.92605,0.58658 -0.92605,1.25025 0,0.72455 -0.41118,10.98187 -0.60725,15.14855 -0.0423,0.89948 0.0175,1.57706 0.13285,1.50574 0.1154,-0.0713 0.20982,0.005 0.20982,0.169 0,0.16427 0.36138,0.82392 0.80307,1.4659 0.75507,1.09745 0.77858,1.20462 0.39317,1.79283 -0.22545,0.34408 -0.7059,0.76046 -1.06766,0.92529 -0.57349,0.2613 -0.65775,0.46987 -0.65775,1.62828 0,1.02693 0.0937,1.32859 0.41249,1.32859 0.22687,0 0.33891,-0.11907 0.24897,-0.26459 -0.0899,-0.14552 -0.0628,-0.26458 0.0604,-0.26458 0.12316,0 0.25114,-0.35719 0.2844,-0.79375 0.0377,-0.49422 -0.0659,-0.79522 -0.27445,-0.79765 -0.18421,-0.002 -0.0373,-0.16077 0.32653,-0.35249 0.79146,-0.4171 0.99243,-0.33411 0.53261,0.21994 -0.20783,0.25043 -0.27861,0.76249 -0.18506,1.33894 0.14085,0.868 0.0969,0.94435 -0.62721,1.08917 -0.63601,0.1272 -0.77868,0.28945 -0.77868,0.88555 0,0.53319 0.16039,0.77281 0.59532,0.88936 0.84694,0.22697 1.04659,0.20426 0.85989,-0.0978 -0.0899,-0.14552 0.0367,-0.26458 0.28137,-0.26458 0.36928,0 0.38781,0.0688 0.109,0.40471 -0.25682,0.30946 -0.26578,0.55855 -0.0381,1.05833 0.37562,0.82442 0.92376,0.83415 1.4534,0.0258 0.30029,-0.45829 0.5859,-0.59445 1.05775,-0.50425 0.85627,0.16368 1.0766,-0.26589 0.70848,-1.3813 -0.24841,-0.75268 -0.22823,-1.02106 0.11348,-1.5089 0.72216,-1.03104 0.54154,-1.31711 -0.78024,-1.23583 -0.96728,0.0595 -1.30866,-0.0449 -1.78594,-0.54598 -0.59907,-0.62897 -0.54507,-0.63787 0.73285,-0.12074 0.49679,0.20103 0.54561,-0.68822 0.0661,-1.20496 -0.27059,-0.29163 -0.24261,-0.32531 0.15393,-0.18521 0.26657,0.0942 0.59399,0.17123 0.72761,0.17123 0.13361,0 0.24294,0.12609 0.24294,0.2802 0,0.15411 -0.11906,0.20662 -0.26458,0.11668 -0.14552,-0.0899 -0.26459,-0.0573 -0.26459,0.0726 0,0.5071 0.38284,0.57225 0.99722,0.1697 0.60428,-0.39594 0.62673,-0.39271 0.37664,0.0542 -0.19917,0.3559 -0.15817,0.55402 0.16331,0.78909 0.37708,0.27573 0.38869,0.47214 0.0955,1.61599 -0.20945,0.81725 -0.24856,1.54191 -0.10503,1.94612 0.37267,1.04951 0.11806,1.64204 -0.6254,1.45544 -0.65447,-0.16426 -0.68252,-0.11578 -0.7553,1.30524 -0.0281,0.54885 1.03956,1.30615 1.46807,1.04132 0.13038,-0.0806 0.23705,-0.0214 0.23705,0.13145 0,0.15288 -0.23813,0.42667 -0.52917,0.60843 -0.70558,0.44064 -0.67156,1.22132 0.0662,1.51785 0.36517,0.14678 0.43677,0.24577 0.1852,0.25605 -0.22555,0.009 -0.55793,-0.13106 -0.73862,-0.31174 -0.26163,-0.26164 -0.37264,-0.25712 -0.54526,0.0222 -0.17271,0.27945 -0.24989,0.26434 -0.37986,-0.0744 -0.0951,-0.24798 0.0548,-0.64302 0.36006,-0.94822 0.63534,-0.63535 0.66038,-0.94307 0.0944,-1.16025 -0.32153,-0.12339 -0.3966,-0.0416 -0.30018,0.32715 0.0773,0.29546 -0.0645,0.61226 -0.3552,0.79381 -0.37252,0.23265 -0.46069,0.22696 -0.38337,-0.0247 0.40815,-1.32872 0.40316,-1.78206 -0.0196,-1.78206 -0.24139,0 -0.58015,-0.19319 -0.7528,-0.4293 -0.22253,-0.30433 -0.49574,-0.37159 -0.93853,-0.23106 -0.56791,0.18025 -0.58409,0.22787 -0.17827,0.52462 0.61192,0.44744 0.56413,0.74657 -0.0654,0.40963 -0.28147,-0.15061 -0.75772,-0.27386 -1.05833,-0.27386 -0.46126,0 -0.54656,0.16516 -0.54656,1.05833 0,0.88194 0.0882,1.05833 0.52917,1.05833 0.63802,0 0.65571,-0.10024 0.11339,-0.64256 -0.37798,-0.37797 -0.37196,-0.41614 0.0661,-0.41982 0.40794,-0.003 0.421,-0.0434 0.085,-0.26053 -0.33717,-0.2179 -0.32547,-0.25709 0.0778,-0.26054 0.30632,-0.003 0.44705,0.16014 0.39687,0.45897 -0.0519,0.30912 0.12013,0.49113 0.51757,0.54757 0.89194,0.12668 0.72626,0.40075 -0.59281,0.98064 -1.07291,0.47167 -1.18836,0.60997 -1.19062,1.42631 -0.003,0.9688 0.31319,0.95681 0.36394,-0.0138 0.0545,-1.04278 0.55924,-0.7853 0.57215,0.29188 0.007,0.57635 0.10646,1.14148 0.22121,1.25584 0.31383,0.31273 1.21708,-0.94219 1.25213,-1.73961 0.0197,-0.44818 0.074,-0.53245 0.1517,-0.23528 0.0665,0.25467 0.30377,0.46302 0.52715,0.46302 0.30468,0 0.36327,0.17089 0.2345,0.68395 -0.16683,0.6647 -0.15481,0.67214 0.42706,0.26458 0.77815,-0.54503 1.72809,-0.53365 2.28582,0.0274 0.41624,0.41871 0.45243,0.37302 0.57641,-0.7276 0.12091,-1.07325 0.18925,-1.16644 0.79375,-1.08235 0.85444,0.11886 1.04585,0.30486 0.31373,0.30486 -0.38822,0 -0.6218,0.21345 -0.73733,0.67378 -0.093,0.37058 -0.10043,0.74246 -0.0165,0.8264 0.084,0.084 -0.13988,0.53613 -0.49739,1.00484 -0.84057,1.10205 -0.81921,1.35298 0.14373,1.68867 0.48193,0.168 0.79375,0.17816 0.79375,0.0259 0,-0.13795 -0.20836,-0.26269 -0.46302,-0.27719 -0.29358,-0.0167 -0.22096,-0.0945 0.19844,-0.21265 0.55655,-0.15673 0.71202,-0.0683 0.98026,0.55756 0.17535,0.4091 0.6516,0.881 1.05834,1.04865 l 0.73953,0.30483 -0.79375,0.19102 c -0.6118,0.14723 -0.36918,0.20913 1.05833,0.27001 1.67278,0.0714 1.72401,0.0887 0.52917,0.17947 -1.20646,0.0916 -2.38151,0.58571 -1.44198,0.60631 0.27693,0.006 0.23895,0.11781 -0.13654,0.4017 -0.48539,0.36697 -0.45885,0.38283 0.39688,0.23718 0.87248,-0.1485 0.8917,-0.13559 0.39548,0.26561 -0.28687,0.23193 -0.68858,0.3576 -0.89271,0.27928 -0.20411,-0.0783 -0.91025,0.15891 -1.56918,0.52719 -0.65892,0.36828 -1.26579,0.60186 -1.34859,0.51906 -0.0828,-0.0828 0.008,-0.24824 0.20077,-0.36766 0.24592,-0.15198 0.26347,-0.27142 0.0585,-0.39811 -0.16106,-0.0995 -0.29466,-0.0846 -0.29688,0.0331 -0.002,0.11773 -0.13036,0.0355 -0.28473,-0.18282 -0.24949,-0.35278 -0.26851,-0.35278 -0.17116,0 0.0602,0.21828 -0.0795,0.54191 -0.31059,0.71919 -0.36732,0.28182 -0.34335,0.32337 0.19083,0.33073 0.36986,0.005 0.54102,0.12152 0.43377,0.29505 -0.0974,0.15765 0.44305,-0.0676 1.20107,-0.5005 1.11623,-0.63751 1.58214,-0.75978 2.451,-0.64324 0.77087,0.10339 1.01976,0.0581 0.88437,-0.16096 -0.10363,-0.16767 -0.0665,-0.30486 0.0826,-0.30486 0.61883,0 2.06969,-1.6428 2.83771,-3.21312 0.85767,-1.75363 1.38608,-3.32411 2.16823,-6.44417 l 0.46428,-1.85208 1.52704,-0.0798 1.52704,-0.0798 -0.18602,5.11832 c -0.22499,6.19029 -0.0519,8.07727 0.7696,8.3883 0.31583,0.11958 0.59137,0.20153 0.61231,0.18211 0.021,-0.0194 -0.12708,-0.80921 -0.32894,-1.75509 -0.39221,-1.83786 -0.42728,-13.55626 -0.0399,-13.31931 0.10914,0.0667 0.19843,-0.60786 0.19843,-1.49914 0,-0.89128 0.12325,-1.85081 0.2739,-2.13228 0.32917,-0.61508 1.3136,-0.68782 1.3136,-0.0971 0,0.28563 -0.15498,0.36551 -0.49793,0.25667 -0.64603,-0.20504 -0.75333,0.56035 -0.98159,7.00154 -0.0954,2.69214 -0.21815,4.97254 -0.27277,5.06757 -0.21508,0.37421 0.48259,5.69372 0.84152,6.41631 0.55182,1.11092 0.50374,3.23151 -0.0814,3.59077 -0.35115,0.21559 -0.15854,0.24335 0.79717,0.11488 1.10164,-0.14808 1.23908,-0.11438 1.09241,0.26783 -0.0923,0.24047 -0.5403,0.62501 -0.9956,0.85453 -0.55154,0.27804 -0.71745,0.30126 -0.49711,0.0696 0.41771,-0.43917 0.43242,-0.86514 0.0211,-0.61093 -0.1703,0.10525 -0.97397,0.18896 -1.78594,0.18603 -1.21647,-0.004 -1.27733,0.014 -0.3458,0.10435 1.51055,0.14654 1.15916,0.60782 -0.46302,0.60782 -1.35311,0 -2.19125,-0.20421 -2.01412,-0.49074 0.058,-0.0939 -0.92491,-0.14347 -2.18434,-0.11017 -1.25942,0.0333 -3.42095,0.0845 -4.8034,0.11382 l -2.51354,0.0533 1.98437,0.15077 c 1.90743,0.14492 1.84097,0.15915 -1.71392,0.36682 -2.56537,0.14987 -3.72711,0.12961 -3.79236,-0.0661 -0.11954,-0.35865 -3.22496,-0.37561 -3.22496,-0.0176 0,0.15434 -0.88194,0.26458 -2.11666,0.26458 -1.16417,0 -2.11692,-0.0893 -2.11723,-0.19843 -2.6e-4,-0.10914 0.80337,-0.1735 1.78594,-0.14303 1.62395,0.0504 1.70224,0.0298 0.86045,-0.22615 -1.12329,-0.34154 -4.67241,-0.15747 -5.09408,0.2642 -0.29218,0.29217 -3.83172,0.37224 -5.15852,0.11669 z m 4.63316,-0.38509 c 0.17779,-0.17779 1.62133,-0.37388 3.42636,-0.46544 3.04793,-0.15461 3.08042,-0.1627 1.42362,-0.35455 -0.95394,-0.11046 -2.72483,-0.0712 -4.04892,0.0898 -2.037,0.24768 -2.44045,0.22912 -3.00084,-0.13807 -0.35609,-0.23332 -0.64744,-0.54054 -0.64744,-0.6827 0,-0.14217 -0.56555,-0.23943 -1.25677,-0.21614 -1.12289,0.0378 -1.15812,0.0561 -0.33073,0.17134 l 0.92604,0.129 -1.05833,0.33749 -1.05834,0.33749 1.5875,0.0579 c 1.51612,0.0553 1.53991,0.0664 0.52917,0.24737 l -1.05833,0.18949 1.4552,0.0724 c 1.3573,0.0675 1.3929,0.0855 0.52917,0.2673 -0.8056,0.16957 -0.71785,0.19945 0.67469,0.22975 0.90915,0.0198 1.73346,-0.0979 1.90795,-0.2724 z m 11.57257,0.0427 c 0.0899,-0.14552 0.0445,-0.26459 -0.10106,-0.26459 -0.14552,0 -0.33817,0.11907 -0.42811,0.26459 -0.0899,0.14552 -0.0445,0.26458 0.10107,0.26458 0.14552,0 0.33816,-0.11906 0.4281,-0.26458 z m 1.65364,0.0822 c -0.25466,-0.0666 -0.67138,-0.0666 -0.92604,0 -0.25466,0.0665 -0.0463,0.121 0.46302,0.121 0.50933,0 0.71769,-0.0545 0.46302,-0.121 z m -3.45129,-0.51284 c -0.19851,-0.19851 -2.57742,-0.17728 -2.77951,0.0248 -0.0777,0.0777 0.55329,0.14124 1.40216,0.14124 0.84887,0 1.46868,-0.0747 1.37735,-0.16606 z m -10.1086,-0.84775 c -0.43656,-0.0502 -0.91281,-0.18794 -1.05833,-0.30599 -0.14553,-0.11805 -0.41122,-0.0554 -0.59043,0.13931 -0.26601,0.28894 -0.16884,0.36946 0.52917,0.43848 0.47025,0.0465 1.09313,0.0249 1.38417,-0.0479 0.40858,-0.10231 0.34828,-0.15332 -0.26458,-0.22385 z m 8.86354,0.0594 c 0,-0.0572 -0.32742,-0.10216 -0.7276,-0.0999 -0.52954,0.003 -0.6261,0.0683 -0.35473,0.24011 0.33691,0.21327 1.08233,0.11673 1.08233,-0.14018 z m 17.19792,0.17622 c 0,-0.13693 -0.11907,-0.32255 -0.26459,-0.41249 -0.14552,-0.0899 -0.26458,0.0221 -0.26458,0.24897 0,0.22687 0.11906,0.41249 0.26458,0.41249 0.14552,0 0.26459,-0.11204 0.26459,-0.24897 z m -23.21719,-0.46692 c -0.32742,-0.0631 -0.8632,-0.0631 -1.19063,0 -0.32742,0.0631 -0.0595,0.11466 0.59532,0.11466 0.65484,0 0.92273,-0.0516 0.59531,-0.11466 z m -11.50938,-0.26737 c -0.40018,-0.0606 -1.05502,-0.0606 -1.4552,0 -0.40019,0.0606 -0.0728,0.11022 0.7276,0.11022 0.80036,0 1.12779,-0.0496 0.7276,-0.11022 z m 14.2875,0.007 c -0.25466,-0.0666 -0.67138,-0.0666 -0.92604,0 -0.25466,0.0666 -0.0463,0.121 0.46302,0.121 0.50933,0 0.71769,-0.0545 0.46302,-0.121 z m -18.1901,-0.85837 c 0,-0.13586 0.32742,-0.29661 0.7276,-0.35723 0.67722,-0.10259 0.66806,-0.11297 -0.13229,-0.14987 -0.47294,-0.0218 -0.85989,0.0497 -0.85989,0.15879 0,0.10915 -0.46488,0.19844 -1.03307,0.19844 -0.56819,0 -0.97788,-0.0893 -0.91043,-0.19844 0.0674,-0.10914 -0.003,-0.19843 -0.15755,-0.19843 -0.33268,0 -0.36905,-1.56685 -0.0481,-2.07312 0.12318,-0.19433 0.32972,-0.34542 0.45897,-0.33576 0.12925,0.01 0.314,-0.27783 0.41055,-0.63886 0.22513,-0.84177 -0.29117,-0.87336 -0.99889,-0.0611 -0.57798,0.66333 -0.93194,3.59012 -0.39398,3.25765 0.1644,-0.10161 0.29128,-3.5e-4 0.29128,0.23247 0,0.3186 0.30112,0.41249 1.32291,0.41249 0.72761,0 1.32292,-0.11116 1.32292,-0.24701 z m 4.16168,-0.44201 c -0.0879,-0.0879 -0.31613,-0.0973 -0.50712,-0.0209 -0.21107,0.0845 -0.14838,0.14716 0.15985,0.15985 0.27891,0.0115 0.43518,-0.051 0.34727,-0.13896 z m -5.22001,-0.47075 c 0,-0.0558 -0.23813,-0.1637 -0.52917,-0.23981 -0.29104,-0.0761 -0.52917,-0.0305 -0.52917,0.10143 0,0.1319 0.23813,0.23981 0.52917,0.23981 0.29104,0 0.52917,-0.0456 0.52917,-0.10143 z m -4.92497,-1.37054 c 0.0873,-0.22751 0.26616,-0.34726 0.39746,-0.26611 0.1313,0.0812 0.30998,-0.0382 0.39708,-0.26511 0.1247,-0.32498 0.0322,-0.3752 -0.4353,-0.23635 -0.32651,0.097 -0.71271,0.32357 -0.85823,0.50355 -0.14552,0.17997 -0.40893,0.27859 -0.58535,0.21914 -0.17641,-0.0594 -0.5336,0.0158 -0.79375,0.16717 -0.38312,0.22296 -0.26473,0.27679 0.62319,0.2833 0.75547,0.006 1.1455,-0.12052 1.2549,-0.40559 z m 2.34528,0.23841 c -0.1819,-0.0734 -0.47956,-0.0734 -0.66146,0 -0.1819,0.0734 -0.0331,0.13346 0.33073,0.13346 0.3638,0 0.51263,-0.0601 0.33073,-0.13346 z m 28.39214,-0.21323 c 0.43147,-0.32635 0.44473,-0.38981 0.083,-0.39688 -0.23684,-0.005 -0.57884,0.17018 -0.76,0.38847 -0.42216,0.50867 0.009,0.51402 0.67704,0.008 z m -33.38969,-0.273 c -0.0954,-0.2486 -0.46298,-0.38341 -0.98388,-0.36084 -0.71988,0.0312 -0.74273,0.052 -0.17013,0.15469 0.3638,0.0653 0.77456,0.22765 0.91281,0.36085 0.35477,0.34182 0.41653,0.30221 0.2412,-0.1547 z m 12.33974,0.13229 c 0,-0.14552 -0.24516,-0.26458 -0.54478,-0.26458 -0.29963,0 -0.4712,0.11906 -0.38126,0.26458 0.0899,0.14552 0.33508,0.26459 0.54478,0.26459 0.20969,0 0.38126,-0.11907 0.38126,-0.26459 z m -11.37709,-0.10398 c 0,-0.0572 -0.18477,-0.17489 -0.41061,-0.26155 -0.23546,-0.0904 -0.34167,-0.046 -0.24897,0.10398 0.15538,0.25141 0.65958,0.37186 0.65958,0.15757 z m 35.98334,-0.12974 c 0,-0.12855 0.26789,-0.30905 0.59531,-0.4011 0.54078,-0.15205 0.55322,-0.19226 0.1358,-0.43892 -0.50362,-0.2976 -1.52486,0.0838 -1.52486,0.5695 0,0.14899 -0.11084,0.20239 -0.2463,0.11867 -0.13547,-0.0837 -0.32109,-0.0312 -0.41249,0.11668 -0.0987,0.15975 0.16231,0.26889 0.64317,0.26889 0.44515,0 0.80937,-0.10517 0.80937,-0.23372 z m -35.05029,-0.50893 c -0.0815,-0.0815 -0.29496,-1.7e-4 -0.47444,0.18066 -0.25936,0.2613 -0.22897,0.29169 0.14812,0.14811 0.26093,-0.0994 0.40778,-0.2473 0.32632,-0.32877 z m 9.14379,-0.15607 c -0.16869,-0.20326 -0.53912,-0.30879 -0.82317,-0.23451 -0.70177,0.18352 -0.38733,0.60407 0.45164,0.60407 0.5506,0 0.62052,-0.0695 0.37153,-0.36956 z m 0.88129,-0.25403 c -0.0917,-0.23911 -0.33971,-0.43475 -0.55101,-0.43475 -0.2113,0 -0.31059,-0.11906 -0.22066,-0.26458 0.0899,-0.14552 0.0374,-0.26458 -0.11667,-0.26458 -0.42856,0 -0.33741,0.30187 0.2941,0.97409 0.62881,0.66933 0.85352,0.66549 0.59424,-0.0102 z m 3.85854,0.25911 c 0,-0.0549 -0.20836,-0.2633 -0.46302,-0.46302 -0.41965,-0.32911 -0.429,-0.31975 -0.0999,0.0999 0.34565,0.44073 0.56292,0.58089 0.56292,0.36313 z m -5.36423,-0.77926 c -0.0907,-0.4731 -0.51815,-0.70316 -1.25035,-0.67299 -0.61022,0.0251 -0.59997,0.0429 0.13229,0.22923 l 0.79375,0.20197 -0.72761,0.0313 c -1.04746,0.0451 -0.89518,0.4195 0.19321,0.47507 0.58217,0.0297 0.89657,-0.0672 0.85871,-0.26459 z m 25.24058,-1.12524 c -0.66482,-0.6184 -0.826,-0.8939 -0.52586,-0.89886 0.23802,-0.004 0.7738,-0.18502 1.19062,-0.40241 l 0.75785,-0.39524 -0.66146,-0.006 c -0.46373,-0.004 -0.55591,-0.0726 -0.30836,-0.22951 0.26372,-0.16717 0.19676,-0.26568 -0.26459,-0.38921 -0.94703,-0.25357 -1.19094,-0.20764 -1.19094,0.22426 0,0.21829 0.10625,0.39688 0.2361,0.39688 0.12986,0 0.16493,0.11516 0.0779,0.25592 -0.087,0.14075 -0.5405,0.18318 -1.0078,0.0943 -1.06851,-0.20326 -1.19732,-0.31673 -0.70969,-0.62512 0.23764,-0.15028 0.26649,-0.24772 0.0741,-0.2502 -0.17331,-0.002 -0.39389,0.12342 -0.49017,0.2792 -0.10456,0.16918 -0.61699,0.22308 -1.27239,0.13383 -0.87598,-0.11929 -0.76746,-0.0516 0.53807,0.33581 1.55824,0.46236 2.19975,0.79941 3.39169,1.78202 0.36816,0.30351 0.42854,0.47395 0.19844,0.56021 -0.1819,0.0682 -0.33073,0.23057 -0.33073,0.36084 0,0.13028 0.28256,0.10812 0.62791,-0.0492 l 0.62791,-0.2861 -0.95864,-0.89169 z m -2.14927,0.94606 c 0.27904,-0.18032 0.29591,-0.25768 0.0568,-0.26053 -0.25407,-0.003 -0.27079,-0.13344 -0.0661,-0.51583 0.38646,-0.72212 0.3508,-0.81166 -0.32143,-0.80709 -0.4621,0.003 -0.50987,0.0581 -0.21348,0.24564 0.30913,0.19558 0.32281,0.37114 0.0718,0.92199 -0.32655,0.7167 -0.18542,0.84093 0.47239,0.41582 z m -28.17812,-0.56661 c 0.17639,-0.17639 0,-0.20286 -0.52917,-0.0794 -0.43656,0.10184 -0.91281,0.30424 -1.05833,0.44976 -0.17639,0.17639 0,0.20286 0.52917,0.0794 0.43656,-0.10185 0.91281,-0.30424 1.05833,-0.44976 z m 23.04653,-8.71511 0.0278,-9.27997 -0.55695,0.55665 c -0.53766,0.53738 -0.55986,0.83382 -0.64103,8.5609 -0.0824,7.84259 -0.0727,8.01879 0.48223,8.7242 0.31147,0.39597 0.58743,0.71955 0.61325,0.71906 0.0258,-5.3e-4 0.0594,-4.17686 0.0747,-9.28084 z m -30.71945,8.75255 c -0.0899,-0.14552 -0.28258,-0.26458 -0.4281,-0.26458 -0.14552,0 -0.191,0.11906 -0.10106,0.26458 0.0899,0.14552 0.28258,0.26459 0.4281,0.26459 0.14552,0 0.191,-0.11907 0.10106,-0.26459 z m 18.91771,0.0423 c 0,-0.30308 -1.96773,-0.93177 -2.41679,-0.77218 -0.21868,0.0777 0.004,0.29085 0.56471,0.53984 1.04269,0.46323 1.85208,0.56477 1.85208,0.23234 z m 1.32292,-0.57151 c 0,-0.37789 -0.17019,-0.52385 -0.59532,-0.51057 -0.56803,0.0178 -0.57106,0.029 -0.0661,0.24598 0.29104,0.12507 0.43284,0.23576 0.31511,0.24599 -0.11773,0.0102 -0.14047,0.13766 -0.0505,0.28318 0.25361,0.41034 0.39688,0.31483 0.39688,-0.26458 z m -17.03789,-0.21454 c -0.40135,-0.083 -0.42775,-0.15029 -0.13229,-0.33737 0.29535,-0.18702 0.27659,-0.23455 -0.0939,-0.23779 -0.28047,-0.002 -0.46302,0.19481 -0.46302,0.50034 0,0.39498 0.12915,0.46905 0.59532,0.34143 0.5298,-0.14503 0.54013,-0.17437 0.0939,-0.26661 z m 8.90195,0.30389 c -0.1819,-0.0734 -0.47956,-0.0734 -0.66146,0 -0.1819,0.0734 -0.0331,0.13346 0.33073,0.13346 0.3638,0 0.51263,-0.0601 0.33073,-0.13346 z m -14.16072,-0.24921 c -0.0879,-0.0879 -0.31612,-0.0973 -0.50712,-0.0209 -0.21107,0.0845 -0.14837,0.14715 0.15985,0.15985 0.27892,0.0115 0.43519,-0.0511 0.34727,-0.13897 z m 4.04041,-0.10473 c 0,-0.14552 -0.0525,-0.26458 -0.11668,-0.26458 -0.0642,0 -0.19026,0.11906 -0.2802,0.26458 -0.0899,0.14552 -0.0374,0.26459 0.11668,0.26459 0.15411,0 0.2802,-0.11907 0.2802,-0.26459 z m 31.84568,-0.39687 c 0.0918,-0.23933 0.001,-0.39688 -0.22797,-0.39688 -0.22932,0 -0.31981,0.15755 -0.22798,0.39688 0.0838,0.21828 0.18635,0.39687 0.22798,0.39687 0.0416,0 0.1442,-0.17859 0.22797,-0.39687 z M 247.03449,178.774 c -0.0852,-0.13784 -0.26573,-0.18212 -0.4012,-0.0984 -0.13546,0.0837 -0.2463,0.0261 -0.2463,-0.12797 0,-0.15411 -0.20836,-0.29207 -0.46302,-0.30658 -0.30313,-0.0173 -0.2346,-0.0961 0.19844,-0.22816 0.58691,-0.17905 0.60727,-0.22476 0.18065,-0.40563 -1.09111,-0.46259 -1.19692,0.83633 -0.10943,1.34348 0.65124,0.30371 1.08185,0.2132 0.84086,-0.17674 z m 5.339,-0.80175 c 1.34372,-0.30071 1.61839,-0.47841 1.27313,-0.82367 -0.24759,-0.24759 -2.95533,0.48168 -3.74371,1.00829 -0.40579,0.27105 -0.82709,0.46634 -0.93623,0.43398 -0.22807,-0.0676 -0.26847,0.3121 -0.0558,0.52474 0.0784,0.0784 0.5697,-0.0751 1.09171,-0.34127 0.52201,-0.26614 1.58893,-0.62707 2.37093,-0.80207 z m 18.74075,1.10721 c 0.0837,-0.13547 0.0312,-0.32109 -0.11668,-0.41249 -0.1479,-0.0914 -0.2689,0.0194 -0.2689,0.2463 0,0.46475 0.15877,0.53318 0.38558,0.16619 z m -29.15398,-0.19183 c -0.17913,-0.0725 -0.53632,-0.0769 -0.79375,-0.01 -0.25743,0.0671 -0.11087,0.12638 0.32569,0.13177 0.43656,0.005 0.64719,-0.0495 0.46806,-0.12197 z m 3.3684,0.0569 c 0,-0.0642 -0.11906,-0.19026 -0.26458,-0.2802 -0.14552,-0.0899 -0.26459,-0.0374 -0.26459,0.11668 0,0.15411 0.11907,0.2802 0.26459,0.2802 0.14552,0 0.26458,-0.0525 0.26458,-0.11668 z m 7.86584,-0.0432 c -0.0879,-0.0879 -0.31612,-0.0973 -0.50712,-0.0209 -0.21106,0.0845 -0.14837,0.14715 0.15986,0.15985 0.27891,0.0115 0.43518,-0.051 0.34726,-0.13897 z m -0.26458,-0.52916 c -0.0879,-0.0879 -0.31612,-0.0973 -0.50712,-0.0209 -0.21107,0.0845 -0.14837,0.14716 0.15985,0.15985 0.27892,0.0115 0.43519,-0.051 0.34727,-0.13896 z m -17.05508,-0.27828 c -0.17913,-0.0725 -0.53632,-0.0769 -0.79375,-0.01 -0.25743,0.0671 -0.11087,0.12638 0.3257,0.13177 0.43656,0.005 0.64718,-0.0495 0.46805,-0.12197 z m 18.52083,0 c -0.17913,-0.0725 -0.53631,-0.0769 -0.79375,-0.01 -0.25743,0.0671 -0.11086,0.12638 0.3257,0.13177 0.43656,0.005 0.64719,-0.0495 0.46805,-0.12197 z m -18.25625,-0.52917 c -0.17913,-0.0725 -0.53631,-0.0769 -0.79375,-0.01 -0.25743,0.0671 -0.11086,0.12638 0.3257,0.13178 0.43656,0.005 0.64719,-0.0495 0.46805,-0.12197 z m 13.08633,0.0137 c -0.0879,-0.0879 -0.31612,-0.0973 -0.50712,-0.0209 -0.21106,0.0845 -0.14837,0.14716 0.15986,0.15985 0.27891,0.0115 0.43518,-0.0511 0.34726,-0.13896 z m -3.85178,-0.54263 c 0.26612,-0.24083 0.48386,-0.6119 0.48386,-0.8246 0,-0.27934 0.16532,-0.33549 0.59531,-0.20222 1.60063,0.4961 1.78594,0.48656 1.78594,-0.0919 0,-0.308 -0.21783,-0.77784 -0.48407,-1.04408 -0.46904,-0.46903 -0.461,-0.4973 0.25867,-0.91034 0.42848,-0.24591 0.80782,-0.32097 0.89656,-0.17739 0.0846,0.13689 0.29562,0.2451 0.46893,0.24047 0.17331,-0.005 0.0948,-0.1753 -0.1744,-0.37927 -0.26923,-0.20397 -0.41052,-0.49868 -0.31396,-0.65491 0.0966,-0.15624 -0.0109,-0.35559 -0.23868,-0.44302 -0.62611,-0.24026 -1.73597,0.12071 -1.73597,0.56461 0,0.21551 -0.11906,0.39184 -0.26458,0.39184 -0.14552,0 -0.26459,-0.33443 -0.26459,-0.74318 0,-0.40875 -0.17859,-0.9743 -0.39687,-1.25677 -0.39286,-0.5084 -0.40089,-0.5084 -0.79375,0 -0.21828,0.28247 -0.39688,0.84802 -0.39688,1.25677 0,0.67053 -0.089,0.74318 -0.91042,0.74318 -0.50074,0 -0.99607,0.13856 -1.10073,0.30792 -0.22211,0.35936 1.13292,1.6276 1.49794,1.40201 0.14189,-0.0877 0.17386,0.3492 0.0772,1.05455 -0.1817,1.32567 0.1307,1.5626 1.01051,0.76638 z m 0.21927,-1.94336 c 0,-0.14552 0.18562,-0.26459 0.41249,-0.26459 0.22687,0 0.33891,0.11907 0.24897,0.26459 -0.0899,0.14552 -0.27556,0.26458 -0.41249,0.26458 -0.13693,0 -0.24897,-0.11906 -0.24897,-0.26458 z m -0.67703,-0.94503 c -0.48613,-0.39362 -0.46584,-0.40777 0.37938,-0.26458 0.49113,0.0832 1.05668,0.15127 1.25677,0.15127 0.20009,0 0.3638,0.11907 0.3638,0.26459 0,0.41687 -1.43206,0.30855 -1.99995,-0.15128 z m 31.02027,2.7475 c -0.0845,-0.21106 -0.14715,-0.14837 -0.15985,0.15985 -0.0115,0.27892 0.0511,0.43519 0.13897,0.34727 0.0879,-0.0879 0.0973,-0.31612 0.0209,-0.50712 z m -27.03594,0.0496 c 0.0899,-0.14552 0.0374,-0.26458 -0.11668,-0.26458 -0.15411,0 -0.2802,0.11906 -0.2802,0.26458 0,0.14552 0.0525,0.26458 0.11668,0.26458 0.0642,0 0.19026,-0.11906 0.2802,-0.26458 z m 25.45318,-0.96105 c -0.18652,-0.18652 -1.50839,0.40031 -1.50839,0.66964 0,0.13797 0.36461,0.069 0.81024,-0.15335 0.44563,-0.22231 0.7598,-0.45464 0.69815,-0.51629 z m -33.33005,0.53661 c -0.0879,-0.0879 -0.31612,-0.0973 -0.50712,-0.0209 -0.21107,0.0845 -0.14837,0.14715 0.15985,0.15985 0.27892,0.0115 0.43519,-0.0511 0.34727,-0.13897 z m 30.10187,-0.10473 c 0.0899,-0.14552 0.0374,-0.26458 -0.11668,-0.26458 -0.15411,0 -0.2802,0.11906 -0.2802,0.26458 0,0.14552 0.0525,0.26459 0.11668,0.26459 0.0642,0 0.19026,-0.11907 0.2802,-0.26459 z m -17.85938,-0.50439 c 0,-0.39498 -0.12914,-0.46905 -0.59531,-0.34143 -0.48408,0.13252 -0.5088,0.18095 -0.13229,0.25921 0.25466,0.0529 0.46302,0.20658 0.46302,0.34143 0,0.13485 0.0595,0.24518 0.13229,0.24518 0.0728,0 0.13229,-0.22697 0.13229,-0.50439 z m -3.96875,0.12313 c 0,-0.0642 -0.11906,-0.19026 -0.26458,-0.28019 -0.14552,-0.0899 -0.26459,-0.0374 -0.26459,0.11667 0,0.15411 0.11907,0.2802 0.26459,0.2802 0.14552,0 0.26458,-0.0525 0.26458,-0.11668 z m 2.30959,-0.30776 c -0.0879,-0.0879 -0.31612,-0.0973 -0.50712,-0.0209 -0.21106,0.0845 -0.14837,0.14715 0.15986,0.15985 0.27891,0.0115 0.43518,-0.0511 0.34726,-0.13897 z m 25.16567,-0.18713 c 0.22326,-0.26901 0.0858,-0.42008 -0.61165,-0.67228 -0.74086,-0.2679 -1.06609,-0.25574 -1.84307,0.0689 -1.15196,0.48132 -1.20887,0.69423 -0.14971,0.56019 0.43657,-0.0553 0.79375,0.01 0.79375,0.14486 0,0.37511 1.48415,0.29178 1.81068,-0.10167 z m -22.44818,-0.31447 c 0.18374,-0.22139 0.21239,-0.39688 0.0648,-0.39688 -0.14552,0 -0.41281,0.1786 -0.59396,0.39688 -0.18374,0.22139 -0.21239,0.39687 -0.0648,0.39687 0.14552,0 0.41281,-0.17859 0.59396,-0.39687 z m 17.06563,0.13229 c 0.0899,-0.14552 0.0304,-0.26458 -0.13229,-0.26458 -0.1627,0 -0.22223,-0.11907 -0.13229,-0.26459 0.0899,-0.14552 0.0374,-0.26458 -0.11668,-0.26458 -0.15411,0 -0.2802,0.23813 -0.2802,0.52917 0,0.55802 0.38494,0.712 0.66146,0.26458 z m -38.62917,-0.26458 c 0.0899,-0.14552 0.0374,-0.26459 -0.11668,-0.26459 -0.1541,0 -0.28019,0.11907 -0.28019,0.26459 0,0.14552 0.0525,0.26458 0.11667,0.26458 0.0642,0 0.19026,-0.11906 0.2802,-0.26458 z m 17.42589,-0.39688 c -0.0838,-0.21828 -0.25488,-0.39687 -0.38027,-0.39687 -0.12538,0 -0.15944,0.17859 -0.0757,0.39687 0.0838,0.21828 0.25488,0.39688 0.38026,0.39688 0.12539,0 0.15944,-0.1786 0.0757,-0.39688 z m 4.40224,-0.39687 c 0,-0.14552 -0.17157,-0.26459 -0.38126,-0.26459 -0.2097,0 -0.45485,0.11907 -0.54478,0.26459 -0.0899,0.14552 0.0816,0.26458 0.38126,0.26458 0.29962,0 0.54478,-0.11906 0.54478,-0.26458 z m -3.70417,-0.39688 c 0,-0.21828 -0.11906,-0.39687 -0.26458,-0.39687 -0.14552,0 -0.26459,0.17859 -0.26459,0.39687 0,0.21828 0.11907,0.39688 0.26459,0.39688 0.14552,0 0.26458,-0.1786 0.26458,-0.39688 z m 3.25166,-1.45521 c 0.0761,-0.29104 0.11646,-0.52916 0.0897,-0.52916 -0.0268,0 -0.25261,0.23812 -0.5018,0.52916 -0.34695,0.40521 -0.36796,0.52917 -0.0897,0.52917 0.19988,0 0.42569,-0.23812 0.5018,-0.52917 z m -21.0504,0.10473 c -0.0879,-0.0879 -0.31612,-0.0973 -0.50712,-0.0209 -0.21107,0.0845 -0.14837,0.14715 0.15985,0.15985 0.27892,0.0115 0.43519,-0.0511 0.34727,-0.13897 z m 3.7253,-0.0386 c -0.63085,-1.32304 -1.20775,-1.91504 -1.86771,-1.91656 -0.60383,-0.001 -0.7276,0.11302 -0.7276,0.67256 0,0.50762 0.2125,0.76659 0.8599,1.04798 0.93427,0.40607 1.88687,0.51367 1.73541,0.19602 z m 34.74715,-3.42635 c -0.3045,-0.1211 -0.3045,-0.17902 0,-0.37194 0.28225,-0.17882 0.26,-0.22938 -0.10236,-0.23256 -0.25466,-0.002 -0.46302,0.17455 -0.46302,0.39283 0,0.21828 0.20836,0.38747 0.46302,0.37598 0.32283,-0.0146 0.35382,-0.0643 0.10236,-0.16431 z m 0.82204,-0.79966 c -0.18281,-0.0653 -0.27571,-0.21036 -0.20645,-0.32243 0.0693,-0.11207 -0.19788,-0.13758 -0.59366,-0.0567 -0.59325,0.12125 -0.62669,0.1655 -0.19043,0.25204 0.29104,0.0577 0.64029,0.2105 0.77611,0.33947 0.13582,0.12897 0.31441,0.16064 0.39687,0.0704 0.0825,-0.0902 2.7e-4,-0.2175 -0.18244,-0.28277 z m -0.85825,-0.71931 c 0,-0.0642 -0.11906,-0.19026 -0.26458,-0.2802 -0.14552,-0.0899 -0.26459,-0.0374 -0.26459,0.11667 0,0.15411 0.11907,0.2802 0.26459,0.2802 0.14552,0 0.26458,-0.0525 0.26458,-0.11667 z m 0.59531,20.57179 c 0.25466,-0.0666 0.67138,-0.0666 0.92604,0 0.25467,0.0666 0.0463,0.121 -0.46302,0.121 -0.50932,0 -0.71768,-0.0545 -0.46302,-0.121 z m 21.58008,0.002 c 0.191,-0.0764 0.4192,-0.067 0.50712,0.0209 0.0879,0.0879 -0.0684,0.15045 -0.34727,0.13897 -0.30822,-0.0127 -0.37091,-0.0754 -0.15985,-0.15985 z m -37.52122,-0.34837 c 0,-0.14552 0.11906,-0.26459 0.26458,-0.26459 0.14552,0 0.26458,0.11907 0.26458,0.26459 0,0.14552 -0.11906,0.26458 -0.26458,0.26458 -0.14552,0 -0.26458,-0.11906 -0.26458,-0.26458 z m 37.39444,-0.40423 c 0,-0.45739 0.48502,-0.38968 0.64492,0.09 0.0576,0.17281 -0.0639,0.3142 -0.27009,0.3142 -0.20616,0 -0.37483,-0.1819 -0.37483,-0.40423 z m -52.80334,-0.0475 c 0.32912,-0.0633 0.80537,-0.0609 1.05834,0.005 0.25296,0.0662 -0.0163,0.118 -0.5984,0.11507 -0.58208,-0.003 -0.78906,-0.0571 -0.45994,-0.12041 z m 8.60091,-0.78997 c 0.25743,-0.0671 0.61462,-0.0627 0.79375,0.01 0.17913,0.0725 -0.0315,0.12736 -0.46805,0.12197 -0.43657,-0.005 -0.58313,-0.0647 -0.3257,-0.13178 z m -9.3316,-0.34581 0.66146,-0.21184 -0.63941,-0.0264 c -0.35167,-0.0145 -0.58279,-0.083 -0.51359,-0.15219 0.21167,-0.21166 2.87279,0.18411 2.87279,0.42726 0,0.12525 -0.68461,0.21586 -1.52135,0.20136 -1.16107,-0.0201 -1.36471,-0.0765 -0.8599,-0.23821 z m 2.91042,-0.008 c 0,-0.14095 0.17859,-0.25628 0.39688,-0.25628 0.21828,0 0.39687,0.0468 0.39687,0.10399 0,0.0572 -0.17859,0.17251 -0.39687,0.25628 -0.21829,0.0838 -0.39688,0.037 -0.39688,-0.10399 z m -10.3849,-0.70759 c 0.32743,-0.0631 0.86321,-0.0631 1.19063,0 0.32742,0.0631 0.0595,0.11466 -0.59531,0.11466 -0.65485,0 -0.92274,-0.0516 -0.59532,-0.11466 z m 8.99892,-5.3e-4 c 0.32912,-0.0633 0.80537,-0.0609 1.05834,0.005 0.25296,0.0662 -0.0163,0.118 -0.5984,0.11506 -0.58208,-0.003 -0.78906,-0.0571 -0.45994,-0.1204 z m -3.17334,-0.79837 c 0.47554,-0.0589 1.18992,-0.0577 1.5875,0.003 0.39757,0.0604 0.008,0.10855 -0.86464,0.10706 -0.87312,-0.002 -1.19841,-0.0509 -0.72286,-0.10976 z m -1.85683,-0.53102 c 0.61847,-0.0557 1.6305,-0.0557 2.24896,0 0.61847,0.0557 0.11245,0.10129 -1.12448,0.10129 -1.23692,0 -1.74294,-0.0456 -1.12448,-0.10129 z m 29.17032,-0.3678 c -2.69214,-0.0906 -5.25198,-0.18098 -5.68854,-0.20092 -0.76855,-0.0351 -0.75051,-0.0611 0.56808,-0.81733 0.74902,-0.42959 1.59959,-1.08332 1.89017,-1.45273 0.58626,-0.74531 0.84904,-0.84636 0.84904,-0.32648 0,0.18984 0.42753,0.81192 0.95007,1.38241 l 0.95007,1.03723 1.19104,-1.26059 1.19105,-1.26059 1.10003,1.13495 c 0.60502,0.62423 1.33815,1.26982 1.6292,1.43466 0.29104,0.16483 0.46963,0.34342 0.39687,0.39687 -0.0728,0.0534 -2.33495,0.0231 -5.02708,-0.0675 z m 15.33053,-0.50628 c 0.79196,-0.43651 1.66045,-1.03036 1.92999,-1.31968 0.48813,-0.52394 0.49393,-0.5234 1.46578,0.13698 0.53663,0.36466 1.05641,0.66301 1.15506,0.66301 0.0986,0 -0.0814,-0.54024 -0.40005,-1.20054 l -0.57941,-1.20055 0.97314,-1.99506 c 0.53523,-1.09729 1.07115,-2.55134 1.19094,-3.23123 0.17649,-1.00165 0.24537,-0.48325 0.36306,2.73259 0.1211,3.30908 0.23778,4.15566 0.70199,5.09323 l 0.55674,1.12448 -4.39857,-0.005 -4.39858,-0.005 1.43991,-0.79364 z m -44.74889,0.35791 c 0.19099,-0.0764 0.4192,-0.067 0.50712,0.0209 0.0879,0.0879 -0.0684,0.15046 -0.34727,0.13897 -0.30822,-0.0127 -0.37092,-0.0754 -0.15985,-0.15985 z m 28.06008,-2.32163 -0.69682,-1.40895 0.79506,-2.27345 c 0.43728,-1.25041 0.88363,-2.21872 0.99188,-2.15181 0.10826,0.0669 0.2613,0.51891 0.3401,1.00447 0.0788,0.48555 0.40888,1.44791 0.73354,2.13858 0.65683,1.39735 0.5668,1.78008 -0.78017,3.31667 l -0.68677,0.78343 z m -30.19329,0.73964 c 0.18191,-0.0734 0.47956,-0.0734 0.66146,0 0.1819,0.0734 0.0331,0.13345 -0.33073,0.13345 -0.3638,0 -0.51263,-0.0601 -0.33073,-0.13345 z m 1.86862,-0.006 c 0.191,-0.0764 0.4192,-0.067 0.50712,0.0209 0.0879,0.0879 -0.0684,0.15045 -0.34726,0.13897 -0.30823,-0.0127 -0.37092,-0.0754 -0.15986,-0.15985 z m -4.31601,-0.61302 c -0.0899,-0.14552 -0.0374,-0.26459 0.11668,-0.26459 0.1541,0 0.28019,0.11907 0.28019,0.26459 0,0.14552 -0.0525,0.26458 -0.11667,0.26458 -0.0642,0 -0.19026,-0.11906 -0.2802,-0.26458 z m 4.59646,-0.18183 c -0.31966,-0.39297 -0.30511,-0.42465 0.12153,-0.26459 0.26657,0.10001 0.60101,0.18183 0.74322,0.18183 0.14221,0 0.18498,0.11907 0.095,0.26459 -0.23753,0.38433 -0.54694,0.32571 -0.95979,-0.18183 z m -6.10128,10e-4 c 0.191,-0.0764 0.4192,-0.067 0.50712,0.0209 0.0879,0.0879 -0.0684,0.15045 -0.34727,0.13897 -0.30822,-0.0127 -0.37092,-0.0754 -0.15985,-0.15985 z m 0.62152,-1.29312 c -0.37766,-0.19415 -0.50651,-0.38741 -0.33073,-0.49605 0.15839,-0.0979 0.38883,-0.11567 0.51208,-0.0395 0.12325,0.0762 0.56974,-0.2247 0.99219,-0.66861 0.42245,-0.44392 1.00622,-0.93209 1.29726,-1.08484 0.44546,-0.23379 0.4277,-0.16741 -0.11227,0.41964 -0.64608,0.70243 -0.59249,0.80268 0.37685,0.70497 0.41877,-0.0422 0.46213,0.0157 0.20783,0.27764 -0.17673,0.18203 -0.59345,0.361 -0.92604,0.3977 -0.33259,0.0367 -0.694,0.0766 -0.80314,0.0888 -0.10914,0.0121 -0.19844,0.13489 -0.19844,0.27281 0,0.13792 0.56555,0.29602 1.25677,0.35134 1.21503,0.0973 1.20843,0.10049 -0.19844,0.0974 -0.80036,-0.002 -1.73363,-0.14633 -2.07392,-0.32126 z m 50.69111,-1.62325 c 0.32742,-0.0631 0.8632,-0.0631 1.19063,0 0.32742,0.0631 0.0595,0.11466 -0.59532,0.11466 -0.65484,0 -0.92273,-0.0516 -0.59531,-0.11466 z m -39.88594,-0.20085 c 0,-0.0676 0.21828,-0.2398 0.48507,-0.38258 0.36642,-0.1961 0.48507,-0.16602 0.48507,0.12298 0,0.21043 -0.21828,0.38259 -0.48507,0.38259 -0.26679,0 -0.48507,-0.0554 -0.48507,-0.12299 z m 38.62917,-0.33455 c 0,-0.71434 0.72426,-1.16487 1.73034,-1.07637 l 1.04779,0.0922 -1.19063,0.29566 -1.19062,0.29566 1.69774,0.0283 c 0.93376,0.0156 1.64813,0.0732 1.5875,0.12805 -0.25672,0.23219 -3.68212,0.45221 -3.68212,0.2365 z m -23.15104,-0.6008 c 0.0899,-0.14552 0.21603,-0.26458 0.2802,-0.26458 0.0642,0 0.11667,0.11906 0.11667,0.26458 0,0.14552 -0.12609,0.26459 -0.2802,0.26459 -0.1541,0 -0.20661,-0.11907 -0.11667,-0.26459 z m 3.08893,-0.73421 c -0.0412,-1.00866 -0.12545,-1.14694 -0.77816,-1.27749 -0.69616,-0.13923 -0.7291,-0.21327 -0.6739,-1.51474 0.0319,-0.75259 0.0655,-1.42788 0.0745,-1.50064 0.0554,-0.44426 0.53018,0.79194 0.53351,1.38906 0.002,0.40019 0.12311,0.72761 0.26863,0.72761 0.14552,0 0.26458,0.16867 0.26458,0.37482 0,0.20616 0.12723,0.41724 0.28274,0.46907 0.16615,0.0554 0.23976,0.58268 0.17851,1.27882 l -0.10421,1.18458 z m -1.89831,-0.31582 c 0,-0.14095 0.1786,-0.18774 0.39688,-0.10398 0.21828,0.0838 0.39687,0.19909 0.39687,0.25628 0,0.0572 -0.17859,0.10398 -0.39687,0.10398 -0.21828,0 -0.39688,-0.11532 -0.39688,-0.25628 z m -27.44548,-0.19165 c 0.25743,-0.0671 0.61462,-0.0627 0.79375,0.01 0.17913,0.0725 -0.0315,0.12737 -0.46806,0.12197 -0.43656,-0.005 -0.58312,-0.0647 -0.32569,-0.13177 z m 25.2821,-0.006 c 0.20094,-0.0696 0.27954,-0.30529 0.18445,-0.55309 -0.0911,-0.2375 -0.0842,-0.35034 0.0154,-0.25075 0.0996,0.0996 0.41632,0.0552 0.70385,-0.0987 0.3243,-0.17357 0.61671,-0.18586 0.77018,-0.0324 0.34114,0.34115 -0.30465,0.83317 -1.25546,0.95653 -0.4227,0.0548 -0.61097,0.0451 -0.41838,-0.0216 z m 25.49278,-0.89331 c -0.47243,-0.75647 0.27154,-2.23117 1.30783,-2.59242 1.03877,-0.36211 1.29194,-0.36776 1.29194,-0.0288 0,0.14552 -0.22839,0.26459 -0.50753,0.26459 -0.9658,0 -1.34455,0.30801 -1.34455,1.09343 0,0.76998 0.002,0.77106 0.78061,0.36857 0.42933,-0.22202 1.05441,-0.39795 1.38906,-0.39096 0.5494,0.0115 0.52692,0.0564 -0.23157,0.46302 -0.46202,0.24767 -1.18867,0.64082 -1.61478,0.87366 -0.72194,0.3945 -0.79494,0.39102 -1.07101,-0.051 z m -44.42874,-0.0416 c 0.0613,-0.1819 -0.0776,-0.47572 -0.30868,-0.65293 -0.34189,-0.26222 -0.26372,-0.27903 0.41988,-0.0903 0.46199,0.12753 0.9028,0.16905 0.97959,0.0923 0.0768,-0.0768 0.31855,0.0393 0.53727,0.25805 0.35383,0.35383 0.30782,0.41563 -0.41735,0.56067 -1.15671,0.23134 -1.33675,0.2064 -1.21071,-0.16773 z m 42.00143,-0.19844 c 0,-0.14552 0.11906,-0.26458 0.26458,-0.26458 0.14552,0 0.26458,0.11906 0.26458,0.26458 0,0.14552 -0.11906,0.26459 -0.26458,0.26459 -0.14552,0 -0.26458,-0.11907 -0.26458,-0.26459 z m -22.75417,-0.26458 c -0.20985,-0.1297 -0.32202,-0.29534 -0.24926,-0.3681 0.0728,-0.0728 0.30399,-0.0262 0.51384,0.10352 0.20986,0.12969 0.32202,0.29534 0.24926,0.3681 -0.0728,0.0728 -0.30399,0.0262 -0.51384,-0.10352 z m 3.74594,-0.26458 c 0,-0.3638 0.0601,-0.51263 0.13346,-0.33073 0.0734,0.1819 0.0734,0.47956 0,0.66146 -0.0734,0.1819 -0.13346,0.0331 -0.13346,-0.33073 z m -0.57094,-0.80206 c 0,-0.14095 0.17859,-0.25628 0.39688,-0.25628 0.21828,0 0.39687,0.0468 0.39687,0.10399 0,0.0572 -0.17859,0.17251 -0.39687,0.25628 -0.21829,0.0838 -0.39688,0.037 -0.39688,-0.10399 z m 16.47535,0.0895 c 0.25743,-0.0671 0.61462,-0.0627 0.79375,0.01 0.17913,0.0725 -0.0315,0.12737 -0.46806,0.12197 -0.43656,-0.005 -0.58312,-0.0647 -0.32569,-0.13177 z m -3.77535,-0.6104 c 0,-0.14552 0.12609,-0.26458 0.2802,-0.26458 0.15411,0 0.20661,0.11906 0.11668,0.26458 -0.0899,0.14552 -0.21603,0.26458 -0.2802,0.26458 -0.0642,0 -0.11668,-0.11906 -0.11668,-0.26458 z m 3.9026,0.0894 c 0.18191,-0.0734 0.47956,-0.0734 0.66146,0 0.1819,0.0734 0.0331,0.13345 -0.33073,0.13345 -0.3638,0 -0.51263,-0.0601 -0.33073,-0.13345 z m 2.97657,-0.0894 c 0,-0.14552 0.045,-0.26458 0.1,-0.26458 0.055,0 0.54204,-0.18471 1.08234,-0.41046 0.5403,-0.22575 0.905,-0.28528 0.81045,-0.13229 -0.0946,0.15299 -0.32891,0.27816 -0.52078,0.27816 -0.19188,0 -0.49709,0.1786 -0.67824,0.39688 -0.37647,0.45361 -0.79375,0.52316 -0.79375,0.13229 z m 4.83368,0.0812 c 0.25743,-0.0671 0.61462,-0.0627 0.79375,0.01 0.17913,0.0725 -0.0315,0.12736 -0.46806,0.12197 -0.43656,-0.005 -0.58312,-0.0647 -0.32569,-0.13178 z m -23.86279,-1.02932 c 0.0127,-0.30823 0.0754,-0.37092 0.15985,-0.15985 0.0764,0.19099 0.067,0.4192 -0.0209,0.50712 -0.0879,0.0879 -0.15045,-0.0684 -0.13896,-0.34727 z m 16.71145,-0.35921 c 0.39877,-0.31855 0.84526,-0.50488 0.99218,-0.41407 0.37196,0.22988 0.33402,0.57434 -0.0636,0.57735 -0.1819,0.001 -0.62838,0.0955 -0.99218,0.2092 l -0.66146,0.20669 z m 2.42178,-0.26751 c 0.0212,-0.58864 0.18252,-0.81995 0.6547,-0.93892 0.85466,-0.21533 1.05528,0.0612 0.27178,0.37461 -0.55096,0.22039 -0.47822,0.25674 0.5569,0.27831 0.97847,0.0204 1.10392,0.0752 0.70403,0.3077 -0.26763,0.15558 -0.77364,0.228 -1.12448,0.16093 -0.42146,-0.0806 -0.63789,2.7e-4 -0.63789,0.23825 0,0.1981 -0.10197,0.36018 -0.22661,0.36018 -0.12463,0 -0.21393,-0.35148 -0.19843,-0.78106 z m 3.20317,0.51648 c 0.0899,-0.14552 0.28258,-0.26459 0.4281,-0.26459 0.14552,0 0.191,0.11907 0.10107,0.26459 -0.0899,0.14552 -0.28259,0.26458 -0.42811,0.26458 -0.14552,0 -0.191,-0.11906 -0.10106,-0.26458 z m 1.38906,-0.18239 c -0.25466,-0.0666 -0.46302,-0.21745 -0.46302,-0.33534 0,-0.3267 1.40236,-0.52364 1.85208,-0.2601 0.33209,0.1946 0.31874,0.23388 -0.0818,0.24061 -0.26325,0.004 -0.40505,0.12711 -0.31511,0.27263 0.16701,0.27023 -0.16684,0.29789 -0.99219,0.0822 z m -41.02446,-0.71538 c -0.10827,-0.27549 -0.13452,-0.56322 -0.0583,-0.63941 0.24132,-0.24131 0.45364,0.15414 0.35253,0.65657 -0.0927,0.46046 -0.10682,0.45964 -0.2942,-0.0172 z m 17.14582,0.10402 c -0.0899,-0.14552 -0.0374,-0.26459 0.11667,-0.26459 0.15411,0 0.2802,0.11907 0.2802,0.26459 0,0.14552 -0.0525,0.26458 -0.11668,0.26458 -0.0642,0 -0.19026,-0.11906 -0.28019,-0.26458 z m -12.14428,-0.75307 c 0.49969,-0.58359 1.54148,-0.74168 2.18813,-0.33204 0.25148,0.1593 0.0488,0.26657 -0.66146,0.35 -0.56323,0.0662 -1.24693,0.2174 -1.51932,0.33609 -0.48192,0.20998 -0.48212,0.20043 -0.007,-0.35405 z m 10.8875,0.0372 c 0.32743,-0.0631 0.86321,-0.0631 1.19063,0 0.32742,0.0631 0.0595,0.11466 -0.59531,0.11466 -0.65485,0 -0.92274,-0.0516 -0.59532,-0.11466 z m 23.9448,0.004 c 0.25466,-0.0666 0.67138,-0.0666 0.92604,0 0.25466,0.0666 0.0463,0.121 -0.46302,0.121 -0.50933,0 -0.71769,-0.0545 -0.46302,-0.121 z m 2.1217,-0.001 c 0.25743,-0.0671 0.61462,-0.0627 0.79375,0.01 0.17913,0.0725 -0.0315,0.12737 -0.46806,0.12197 -0.43656,-0.005 -0.58312,-0.0647 -0.32569,-0.13177 z m -7.0165,-0.52095 c 0.18191,-0.0734 0.47956,-0.0734 0.66146,0 0.1819,0.0734 0.0331,0.13345 -0.33073,0.13345 -0.3638,0 -0.51263,-0.0601 -0.33073,-0.13345 z m 2.84428,-0.0894 c -0.0899,-0.14552 -0.0445,-0.26458 0.10106,-0.26458 0.14552,0 0.33817,0.11906 0.4281,0.26458 0.0899,0.14552 0.0445,0.26458 -0.10106,0.26458 -0.14552,0 -0.33817,-0.11906 -0.4281,-0.26458 z m -45.90521,-0.10398 c 0,-0.0572 0.18477,-0.17489 0.41061,-0.26156 0.23546,-0.0904 0.34167,-0.046 0.24897,0.10399 -0.15538,0.25141 -0.65958,0.37186 -0.65958,0.15757 z m 7.40833,-0.22631 c 0,-0.37771 0.6747,-0.49108 1.34019,-0.2252 0.3543,0.14155 0.52512,0.27458 0.3796,0.29563 -0.98988,0.14317 -1.71979,0.11327 -1.71979,-0.0704 z m 40.68668,0.13622 c 0.62231,-0.0559 1.57481,-0.0551 2.11667,0.002 0.54185,0.0568 0.0327,0.10258 -1.13147,0.10162 -1.16417,-0.001 -1.60751,-0.0475 -0.9852,-0.10337 z m -23.36735,-0.3527 c -0.0959,-0.1552 -0.11999,-0.3366 -0.0535,-0.4031 0.18454,-0.18454 0.9904,0.18081 0.9904,0.44901 0,0.3312 -0.72583,0.29564 -0.93692,-0.0459 z m -5.41585,-0.51156 c 0.31063,-0.67693 1.59027,-1.79314 1.59027,-1.38717 0,0.12376 -0.42611,0.63534 -0.9469,1.13683 -0.83553,0.80455 -0.9112,0.834 -0.64337,0.25034 z m -17.98369,0.003 c -0.32846,-0.203 -0.31635,-0.26654 0.0798,-0.41854 0.55204,-0.21184 0.91251,0.0528 0.55663,0.40872 -0.15029,0.15029 -0.40282,0.15418 -0.6364,0.01 z m 5.41875,-0.003 c -0.0899,-0.14552 -0.0374,-0.26459 0.11668,-0.26459 0.15411,0 0.2802,0.11907 0.2802,0.26459 0,0.14552 -0.0525,0.26458 -0.11668,0.26458 -0.0642,0 -0.19026,-0.11906 -0.2802,-0.26458 z m 33.93663,-0.2192 c 0.0744,-0.19393 0.35047,-0.29634 0.61345,-0.22757 0.32683,0.0855 0.67115,-0.15841 1.088,-0.77062 0.62744,-0.92151 0.87132,-1.06782 1.11708,-0.67018 0.16776,0.27144 1.47713,0.0661 1.47713,-0.23164 0,-0.11298 0.20556,-0.28431 0.4568,-0.38072 0.32682,-0.12541 0.27036,0.0265 -0.19844,0.53373 l -0.65523,0.70901 0.66146,-0.19281 c 0.3638,-0.10604 0.89627,-0.41849 1.18327,-0.69432 0.51937,-0.49916 0.51937,-0.50153 0,-0.50557 -0.4338,-0.003 -0.45487,-0.0473 -0.12494,-0.26053 0.21828,-0.14106 0.59072,-0.2583 0.82763,-0.26053 0.7884,-0.007 -0.23591,1.74819 -1.20178,2.05978 -0.68411,0.2207 -0.409,0.27604 1.69707,0.34139 2.08116,0.0646 2.2177,0.0915 0.79375,0.15659 -2.76156,0.12623 -4.1149,0.35849 -3.68271,0.63205 0.29328,0.18563 0.25714,0.2385 -0.16518,0.24167 -0.38317,0.003 -0.61432,-0.24637 -0.79375,-0.85585 -0.31733,-1.0779 -0.96338,-1.11048 -1.31149,-0.0661 -0.21862,0.65585 -0.40816,0.79385 -1.091,0.7943 -0.57993,2.7e-4 -0.78607,-0.10461 -0.69112,-0.35204 z m 3.7665,-1.10372 c 0,-0.14552 -0.12609,-0.26458 -0.2802,-0.26458 -0.15411,0 -0.20662,0.11906 -0.11668,0.26458 0.0899,0.14552 0.21603,0.26458 0.2802,0.26458 0.0642,0 0.11668,-0.11906 0.11668,-0.26458 z m 3.51371,1.3927 c 0.69561,-0.0547 1.76718,-0.054 2.38125,0.002 0.61407,0.0555 0.0449,0.10023 -1.26475,0.0994 -1.30969,-8e-4 -1.81211,-0.0462 -1.1165,-0.10089 z M 256.11043,168.038 c 0.1819,-0.0734 0.47956,-0.0734 0.66146,0 0.1819,0.0734 0.0331,0.13346 -0.33073,0.13346 -0.3638,0 -0.51263,-0.0601 -0.33073,-0.13346 z m 3.47058,-0.1555 c -0.0194,-0.0364 -0.0577,-0.63885 -0.0852,-1.33881 -0.0385,-0.97845 0.0577,-1.33033 0.41598,-1.52207 0.29866,-0.15984 0.52489,-0.15413 0.62997,0.0159 0.0902,0.14591 -0.0103,0.2653 -0.22339,0.2653 -0.2937,0 -0.36224,0.26068 -0.28349,1.07827 0.0571,0.59304 0.1719,1.18836 0.25506,1.32291 0.0832,0.13456 -0.0344,0.24465 -0.26129,0.24465 -0.22687,0 -0.42831,-0.0298 -0.44764,-0.0662 z m -14.56654,-0.64376 c 0.19099,-0.0764 0.4192,-0.067 0.50712,0.0209 0.0879,0.0879 -0.0684,0.15045 -0.34727,0.13896 -0.30822,-0.0127 -0.37092,-0.0754 -0.15985,-0.15985 z m 45.19375,-0.22636 c -0.0907,-0.23646 -0.15474,-0.62855 -0.14224,-0.87131 0.0125,-0.24276 0.12764,-0.0902 0.25584,0.33907 0.24941,0.83509 0.16121,1.24836 -0.1136,0.53224 z m -37.52084,-0.0382 c 0.191,-0.0764 0.4192,-0.067 0.50712,0.0209 0.0879,0.0879 -0.0683,0.15046 -0.34726,0.13897 -0.30823,-0.0127 -0.37092,-0.0754 -0.15986,-0.15985 z m 12.35178,-1.67451 c -0.26489,-0.87487 -0.64093,-1.72288 -0.83564,-1.88448 -0.58426,-0.48489 -0.40609,-1.13309 0.57202,-2.08111 0.50932,-0.49365 0.92604,-0.98245 0.92604,-1.08622 0,-0.19272 -1.61382,0.56853 -2.44511,1.15336 -0.39041,0.27467 -0.58915,0.19572 -1.30217,-0.51729 -0.72561,-0.72561 -0.79265,-0.90021 -0.48707,-1.26842 0.74741,-0.90057 1.24751,-0.96317 2.2515,-0.28185 1.35223,0.91765 1.95087,0.60098 0.79027,-0.41803 -1.00393,-0.88146 -1.01494,-0.75977 0.33053,-3.65002 l 0.91589,-1.96743 0.6596,1.83514 c 0.98639,2.74435 0.98567,2.73851 0.41843,3.3692 -1.18225,1.31451 -0.8255,1.50542 0.76105,0.40726 0.38627,-0.26736 0.79175,-0.48611 0.90107,-0.48611 0.28397,0 1.96851,1.31342 1.9685,1.53482 -10e-6,0.10173 -0.41469,0.51585 -0.92153,0.92025 l -0.92152,0.73529 -1.08849,-0.55531 c -0.59866,-0.30542 -1.14382,-0.49997 -1.21145,-0.43234 -0.0676,0.0676 0.25195,0.54997 0.71018,1.07187 l 0.83315,0.94889 -0.52992,0.67368 c -0.29145,0.37052 -0.73486,1.32524 -0.98534,2.1216 -0.25049,0.79635 -0.53934,1.44791 -0.6419,1.44791 -0.10256,0 -0.4032,-0.71579 -0.66809,-1.59066 z m 17.06658,1.27295 c 0,-0.1163 0.41672,-0.21145 0.92605,-0.21145 0.50932,0 0.92604,0.0465 0.92604,0.10334 0,0.0568 -0.41672,0.152 -0.92604,0.21146 -0.50933,0.0595 -0.92605,0.013 -0.92605,-0.10335 z m -42.84161,-0.36579 c 0.0127,-0.30823 0.0754,-0.37092 0.15985,-0.15986 0.0764,0.191 0.067,0.4192 -0.0209,0.50712 -0.0879,0.0879 -0.15046,-0.0683 -0.13897,-0.34726 z m 6.07772,0.17932 c -0.28036,-0.18557 -0.0666,-0.27657 0.79375,-0.33791 0.74426,-0.0531 1.15441,-0.20168 1.11486,-0.40396 -0.11007,-0.56294 1.68946,-1.21733 2.9008,-1.05486 0.61774,0.0829 0.94865,0.0525 0.75215,-0.0689 -0.19298,-0.11927 -0.27737,-0.33579 -0.18754,-0.48115 0.0898,-0.14536 0.0158,-0.25898 -0.16454,-0.25248 -1.51453,0.0545 -3.64225,-0.11063 -3.54075,-0.27486 0.0691,-0.11182 -0.33992,-0.15891 -0.90895,-0.10464 -0.59969,0.0572 -0.96613,0.20946 -0.8717,0.36225 0.0896,0.14497 0.51157,0.19385 0.93772,0.10862 0.42615,-0.0852 0.71113,-0.0519 0.63328,0.074 -0.0778,0.12595 -0.44594,0.2872 -0.81798,0.35832 -0.53708,0.10267 -0.75358,-0.0198 -1.05077,-0.59453 -0.34701,-0.67104 -0.3269,-0.76839 0.27567,-1.33447 0.35749,-0.33584 0.64998,-0.47871 0.64998,-0.31749 0,0.16122 0.32742,0.34273 0.7276,0.40335 l 0.72761,0.11023 -0.79375,0.0437 c -0.43657,0.024 -0.97235,0.15789 -1.19063,0.29747 -0.26584,0.16999 0.0617,0.20016 0.99219,0.0914 0.76398,-0.0893 1.38919,-0.0565 1.38935,0.0729 1.6e-4,0.12941 0.62312,0.25428 1.38436,0.27748 1.30698,0.0399 1.34749,0.0219 0.72732,-0.32135 l -0.65676,-0.36355 0.65152,-0.009 c 0.40012,-0.006 0.87744,0.27138 1.23702,0.71822 0.47454,0.58972 0.65031,0.66404 0.92745,0.39218 0.18807,-0.18448 0.35564,-0.66073 0.37238,-1.05833 0.0222,-0.52703 0.1858,-0.74582 0.60384,-0.80746 0.68572,-0.10111 0.73147,-0.49289 0.13456,-1.15246 -0.38011,-0.42001 -0.39164,-0.58219 -0.0861,-1.21146 0.40831,-0.841 0.41652,-0.70734 -0.12183,-1.9833 -0.46857,-1.11055 -0.18275,-1.29257 0.67803,-0.43179 0.41826,0.41826 0.61208,0.47677 0.76417,0.23068 0.31286,-0.50622 0.7921,-0.0513 0.7921,0.75187 0,0.54915 0.21774,0.83523 0.92605,1.21667 0.50932,0.27429 0.92604,0.59902 0.92604,0.72163 0,0.32927 -0.15674,0.28648 -1.56542,-0.42735 -1.20505,-0.61065 -1.30816,-0.62273 -1.6922,-0.19837 -0.57412,0.63439 -0.0343,2.42408 0.74267,2.46212 0.29181,0.0143 0.0543,0.16311 -0.52776,0.33072 -0.58208,0.16762 -1.07928,0.42382 -1.10488,0.56934 -0.0256,0.14552 -0.12701,0.47134 -0.22537,0.72403 -0.14775,0.3796 0.0324,0.34142 1.03623,-0.21966 0.66829,-0.37351 1.28065,-0.78523 1.36081,-0.91494 0.31583,-0.51102 2.57493,-1.30199 3.26142,-1.14191 0.65849,0.15355 0.67344,0.13618 0.2587,-0.3006 -0.36567,-0.38511 -0.57839,-0.41539 -1.25677,-0.17891 -0.93508,0.32598 -1.07678,0.20548 -0.26763,-0.22757 0.659,-0.35268 2.62677,-0.0793 2.62436,0.36459 -0.003,0.48185 -1.52886,1.22942 -2.59946,1.27325 -0.96817,0.0396 -0.96758,0.0403 0.21988,0.23936 l 1.19063,0.19961 -1.32292,-0.0283 c -1.68502,-0.036 -4.14641,0.97553 -3.90496,1.60475 0.11874,0.30943 0.0454,0.3738 -0.28244,0.24799 -0.24355,-0.0935 -0.44281,-0.0546 -0.44281,0.0863 0,0.14095 0.59531,0.25628 1.32292,0.25628 0.7276,0 1.32291,-0.11764 1.32291,-0.26141 0,-0.15335 0.53545,-0.21044 1.29534,-0.13809 0.9341,0.0889 1.38512,0.0151 1.6173,-0.26463 0.42731,-0.51489 -0.24414,-0.79293 -1.25958,-0.52159 -0.39986,0.10684 -1.02467,0.22441 -1.38847,0.26125 -0.36381,0.0368 -0.95912,0.1615 -1.32292,0.27702 -0.57302,0.18196 -0.61711,0.15591 -0.32979,-0.1948 0.44822,-0.54713 3.76531,-0.85631 4.68606,-0.43679 l 0.67953,0.30961 -0.57778,0.61502 c -0.47898,0.50986 -0.83035,0.61034 -2.05488,0.58767 -0.8124,-0.015 -2.09548,0.0827 -2.85128,0.21723 -0.7558,0.13451 -1.31432,0.14771 -1.24116,0.0293 0.16259,-0.26306 -0.14668,-0.2973 -2.01487,-0.22309 -1.06807,0.0424 -1.68073,0.22825 -2.30293,0.69847 -0.97712,0.73845 -2.15637,1.02436 -2.71096,0.65728 z m 9.84757,0.0563 c 0.25744,-0.0671 0.61462,-0.0627 0.79375,0.01 0.17914,0.0725 -0.0315,0.12737 -0.46805,0.12197 -0.43656,-0.005 -0.58313,-0.0647 -0.3257,-0.13177 z m -5.36284,-0.33651 c 0,-0.1404 0.23812,-0.38271 0.52916,-0.53847 0.29105,-0.15576 0.52917,-0.2049 0.52917,-0.10921 0,0.0957 0.17859,0.0258 0.39688,-0.15538 0.49843,-0.41366 0.52378,-0.0891 0.0315,0.40318 -0.20095,0.20095 -0.43908,0.29167 -0.52916,0.20158 -0.0901,-0.0901 -0.16379,-0.0249 -0.16379,0.1449 0,0.16977 -0.1786,0.30868 -0.39688,0.30868 -0.21828,0 -0.39687,-0.11488 -0.39687,-0.25528 z m 28.04583,0.0231 c 0,-0.1277 0.17859,-0.3804 0.39688,-0.56156 0.21828,-0.18116 0.39687,-0.48066 0.39687,-0.66555 0,-0.18489 0.17859,-0.4047 0.39688,-0.48847 0.21828,-0.0838 0.39687,-0.33881 0.39687,-0.56678 0,-0.34376 -0.10158,-0.36248 -0.59531,-0.10969 -0.5311,0.27192 -0.5525,0.26152 -0.19844,-0.0964 0.21828,-0.22067 0.81359,-0.47831 1.32292,-0.57255 0.82617,-0.15285 0.8761,-0.13117 0.46302,0.20103 -0.76127,0.61222 -0.53536,0.77051 0.83136,0.58254 0.8784,-0.12081 1.35606,-0.0782 1.48632,0.13253 0.14105,0.22823 -0.23728,0.28638 -1.42716,0.21934 -0.8905,-0.0502 -1.61887,-0.007 -1.61861,0.0952 2.7e-4,0.10253 -0.29717,0.48407 -0.66097,0.84787 -0.36381,0.3638 -0.66146,0.78593 -0.66146,0.93807 0,0.15213 -0.11907,0.27661 -0.26459,0.27661 -0.14552,0 -0.26458,-0.10449 -0.26458,-0.23219 z m -39.8809,-0.48034 c 0.25743,-0.0671 0.61462,-0.0627 0.79375,0.01 0.17913,0.0725 -0.0315,0.12737 -0.46806,0.12197 -0.43656,-0.005 -0.58312,-0.0647 -0.32569,-0.13177 z m 6.22921,0.003 c 0.19099,-0.0764 0.4192,-0.067 0.50712,0.0209 0.0879,0.0879 -0.0684,0.15045 -0.34727,0.13896 -0.30822,-0.0127 -0.37092,-0.0754 -0.15985,-0.15985 z m 14.33711,-0.0526 c 0,-0.14553 0.11906,-0.33817 0.26458,-0.42811 0.14552,-0.0899 0.26458,-0.0445 0.26458,0.10106 0,0.14553 -0.11906,0.33817 -0.26458,0.42811 -0.14552,0.0899 -0.26458,0.0445 -0.26458,-0.10106 z m 24.40781,0.051 c 0.25466,-0.0666 0.67138,-0.0666 0.92604,0 0.25466,0.0665 0.0463,0.121 -0.46302,0.121 -0.50932,0 -0.71768,-0.0545 -0.46302,-0.121 z m -43.81059,-0.25859 c -0.097,-0.097 -0.17639,-0.40925 -0.17639,-0.69386 0,-0.44563 0.0591,-0.4684 0.42589,-0.16401 0.26868,0.22299 0.3169,0.38978 0.13064,0.45187 -0.16238,0.0541 -0.22794,0.20731 -0.14569,0.3404 0.17372,0.28109 0.0232,0.32321 -0.23445,0.0656 z m 50.37706,-0.74965 c -0.55152,-1.60844 -1.51637,-2.70031 -2.82924,-3.2017 -1.15961,-0.44286 -1.19752,-0.44014 -1.98603,0.14283 -0.77862,0.57567 -0.7946,0.57704 -0.50921,0.0438 0.56471,-1.05519 2.74919,-0.96015 4.04731,0.17608 0.77482,0.67818 1.8278,2.69268 1.73126,3.31214 -0.0733,0.47041 -0.16238,0.3776 -0.45409,-0.47313 z m -47.07422,-0.0378 c -0.051,-1.06975 -0.40705,-1.18989 -3.04724,-1.02827 -1.41757,0.0868 -1.92609,0.0519 -1.49032,-0.10232 0.3638,-0.12872 1.28653,-0.2459 2.05052,-0.26041 1.65436,-0.0314 1.88085,-0.53912 0.26458,-0.59309 l -1.12448,-0.0375 1.05834,-0.16089 c 0.95451,-0.14511 1.13152,-0.0775 1.80448,0.68891 0.54133,0.61652 0.71563,1.05231 0.63496,1.5875 -0.10883,0.72196 -0.11205,0.71996 -0.15084,-0.0939 z m 30.9166,0.43471 c 0,-0.14552 0.11204,-0.26458 0.24897,-0.26458 0.13693,0 0.32255,0.11906 0.41249,0.26458 0.0899,0.14552 -0.0221,0.26458 -0.24897,0.26458 -0.22687,0 -0.41249,-0.11906 -0.41249,-0.26458 z m -29.63333,-0.26458 c 0,-0.14552 0.17157,-0.26459 0.38126,-0.26459 0.20969,0 0.45484,0.11907 0.54478,0.26459 0.0899,0.14552 -0.0816,0.26458 -0.38126,0.26458 -0.29963,0 -0.54478,-0.11906 -0.54478,-0.26458 z m 2.91042,0 c 0.51815,-0.33486 0.86841,-0.33486 0.66146,0 -0.0899,0.14552 -0.36486,0.26276 -0.61093,0.26053 -0.38557,-0.003 -0.39256,-0.0395 -0.0505,-0.26053 z m 33.09496,0.16974 c 0.27995,-0.24084 2.09462,-0.37348 2.09462,-0.15311 0,0.13637 -0.49609,0.24795 -1.10243,0.24795 -0.60634,0 -1.05282,-0.0427 -0.99219,-0.0948 z m 4.89164,-0.58552 c -0.54,-0.54001 -0.53906,-0.80967 0.001,-0.36124 0.34519,0.28649 0.45667,0.28199 0.64707,-0.0261 0.29115,-0.47109 0.64151,-0.15094 0.43208,0.39482 -0.19985,0.52081 -0.55458,0.51835 -1.08042,-0.007 z m -2.99042,-1.35508 c 0.25743,-0.0671 0.61462,-0.0627 0.79375,0.01 0.17913,0.0725 -0.0315,0.12736 -0.46806,0.12197 -0.43656,-0.005 -0.58312,-0.0647 -0.32569,-0.13177 z m -33.32857,-0.2907 c -0.20891,-0.1328 -0.23281,-0.33412 -0.0702,-0.59126 0.41178,-0.65114 0.29366,-0.9588 -0.64217,-1.67259 -0.77501,-0.59113 -1.0505,-0.65782 -2.02812,-0.49093 -1.04259,0.17798 -1.0977,0.22672 -0.70289,0.62152 0.31763,0.31763 0.73942,0.39335 1.63125,0.29283 1.42778,-0.16094 1.57809,0.0693 0.27934,0.42794 -1.32074,0.36467 -2.47219,-0.11915 -2.73961,-1.15114 -0.25492,-0.9838 -0.58945,-0.97616 -1.06837,0.0244 -0.70549,1.47389 -1.0579,1.69338 -2.6517,1.6515 l -1.48035,-0.0389 1.45521,-0.16232 c 1.63351,-0.18221 2.11666,-0.40507 2.11666,-0.97634 0,-0.21532 0.47625,-0.88712 1.05834,-1.49289 0.58208,-0.60578 1.05833,-0.95837 1.05833,-0.78353 0,0.19432 0.18728,0.1379 0.48181,-0.14514 0.46472,-0.44661 0.45856,-0.47347 -0.17387,-0.75784 -0.43857,-0.19721 -0.53465,-0.33517 -0.29017,-0.41666 0.20103,-0.067 0.70292,0.0657 1.11532,0.29482 0.72563,0.40321 0.76946,0.39243 1.35826,-0.33428 0.41988,-0.5182 0.79943,-0.7232 1.22471,-0.66145 0.6097,0.0885 0.6108,0.0949 0.10375,0.60384 -0.47445,0.47616 -0.47652,0.50072 -0.0279,0.33072 0.26657,-0.101 0.60101,-0.18363 0.74322,-0.18363 0.14221,0 0.1865,-0.1166 0.0984,-0.25911 -0.27439,-0.44398 0.39859,-1.35769 1.20774,-1.63976 0.92332,-0.32187 0.99775,-0.66692 0.17794,-0.82482 -0.32742,-0.0631 0.94258,-0.13088 2.82222,-0.15069 1.87965,-0.0198 3.33528,0.0462 3.23473,0.14677 -0.10054,0.10054 -1.22264,0.15281 -2.49354,0.11615 l -2.31073,-0.0667 -0.3057,0.80989 c -0.26399,0.6994 -0.24567,0.8135 0.13434,0.83627 0.27454,0.0165 0.21027,0.0911 -0.17089,0.19844 -0.33601,0.0946 -0.6039,0.26136 -0.59531,0.3705 0.009,0.10914 -0.22251,0.43656 -0.51356,0.7276 -0.85332,0.85333 -0.6459,1.06401 0.95305,0.96799 l 1.48222,-0.089 -1.00029,0.48655 c -1.13729,0.55318 -1.26066,0.58207 -1.05335,0.24664 0.0816,-0.13195 -0.0955,-0.17617 -0.39336,-0.0983 -0.3413,0.0892 -0.67027,-0.0343 -0.88941,-0.33398 -0.2566,-0.35091 -0.72433,-0.48123 -1.78395,-0.49704 -1.36817,-0.0204 -1.42376,0.005 -1.17423,0.53344 0.14405,0.30518 0.64708,0.80735 1.11783,1.11593 l 0.85591,0.56107 0.10536,-0.71906 0.10536,-0.71906 0.20786,0.85396 c 0.11432,0.46968 0.3709,0.98928 0.57017,1.15466 0.2981,0.2474 0.2427,0.39477 -0.31255,0.83154 -0.37118,0.29196 -0.61183,0.6951 -0.5348,0.89586 0.16074,0.41887 0.13956,0.43013 -0.29237,0.15555 z m -2.46136,-4.03948 c 0,-0.28245 -0.11773,-0.51355 -0.26162,-0.51355 -0.14389,0 -0.2377,0.28908 -0.20846,0.64239 0.0617,0.74591 0.47008,0.634 0.47008,-0.12884 z m 4.23333,-2.36563 c 0,-0.14552 -0.0525,-0.26458 -0.11668,-0.26458 -0.0642,0 -0.19026,0.11906 -0.28019,0.26458 -0.0899,0.14552 -0.0374,0.26458 0.11667,0.26458 0.15411,0 0.2802,-0.11906 0.2802,-0.26458 z m -6.82144,5.77996 c 0.13732,-0.41199 0.72926,-0.48414 0.75,-0.0914 0.008,0.14552 -0.18462,0.30572 -0.42735,0.356 -0.27588,0.0572 -0.39684,-0.042 -0.32265,-0.26458 z m 33.49475,0.12472 c 0.19099,-0.0764 0.4192,-0.067 0.50712,0.0209 0.0879,0.0879 -0.0684,0.15046 -0.34727,0.13897 -0.30823,-0.0127 -0.37092,-0.0754 -0.15985,-0.15985 z m 4.08814,-0.009 c 0.40218,-0.0608 0.9975,-0.0592 1.32292,0.004 0.32542,0.0628 -0.004,0.11256 -0.73124,0.11057 -0.72761,-0.002 -0.99386,-0.0534 -0.59168,-0.11418 z m -33.45689,-0.52004 c 0.19099,-0.0764 0.4192,-0.067 0.50712,0.0209 0.0879,0.0879 -0.0684,0.15045 -0.34727,0.13896 -0.30822,-0.0127 -0.37092,-0.0754 -0.15985,-0.15985 z m 31.89398,-0.26641 c 0.18746,-0.18746 2.86063,-0.12362 3.05858,0.073 0.0606,0.0602 -0.64382,0.10953 -1.56545,0.10953 -0.92163,0 -1.59354,-0.0822 -1.49313,-0.18257 z m -28.66937,-0.47889 c 0,-0.22049 0.23518,-0.39688 0.52916,-0.39688 0.63084,0 0.70184,0.4063 0.11066,0.63315 -0.59137,0.22693 -0.63982,0.20904 -0.63982,-0.23627 z m 1.85208,0.11667 c 0,-0.1541 0.11906,-0.20661 0.26458,-0.11667 0.14552,0.0899 0.26459,0.21603 0.26459,0.2802 0,0.0642 -0.11907,0.11667 -0.26459,0.11667 -0.14552,0 -0.26458,-0.12609 -0.26458,-0.2802 z m 1.80247,0.0995 c 0.191,-0.0764 0.4192,-0.067 0.50712,0.0209 0.0879,0.0879 -0.0684,0.15045 -0.34726,0.13896 -0.30823,-0.0127 -0.37092,-0.0754 -0.15986,-0.15985 z m 0.97566,-0.0838 c 0.0899,-0.14552 0.27555,-0.26458 0.41249,-0.26458 0.13693,0 0.24896,0.11906 0.24896,0.26458 0,0.14552 -0.18562,0.26458 -0.41249,0.26458 -0.22687,0 -0.3389,-0.11906 -0.24896,-0.26458 z m 21.29895,0 c 0,-0.14552 0.12609,-0.26458 0.2802,-0.26458 0.15411,0 0.20662,0.11906 0.11668,0.26458 -0.0899,0.14552 -0.21603,0.26458 -0.2802,0.26458 -0.0642,0 -0.11668,-0.11906 -0.11668,-0.26458 z m -36.64479,-0.27976 c 1.47375,-0.30484 2.31074,-0.29884 2.11667,0.0152 -0.0899,0.14553 -0.84111,0.2509 -1.66926,0.23416 -1.49621,-0.0302 -1.49904,-0.0318 -0.44741,-0.24933 z m 34.13125,-0.26351 c -0.51041,-0.20573 -0.50883,-0.21395 0.0445,-0.23188 0.31552,-0.0102 0.762,-0.0909 0.99219,-0.1792 0.24663,-0.0946 0.41851,-0.0222 0.41851,0.17639 0,0.18534 -0.0783,0.25865 -0.17409,0.16289 -0.0958,-0.0957 -0.30411,-0.0708 -0.46302,0.0555 -0.15891,0.12628 -0.52706,0.13361 -0.8181,0.0163 z m -19.73275,-0.27532 c 0.4239,-0.16943 0.73227,-0.16377 0.91281,0.0168 0.18714,0.18714 -0.0136,0.26739 -0.64016,0.25587 -0.8577,-0.0158 -0.87417,-0.0322 -0.27265,-0.27264 z m 21.71731,-0.047 c -2.4e-4,-0.26348 1.28164,-0.85121 1.46237,-0.67049 0.0756,0.0756 0.0673,0.31996 -0.0183,0.54309 -0.15546,0.40512 -1.44374,0.51878 -1.44409,0.1274 z m 10.23141,-0.29331 c -0.3921,-0.59842 -0.39911,-0.6932 -0.0512,-0.6932 0.32214,0 0.4067,-0.38477 0.42157,-1.91823 0.0102,-1.05503 0.12519,-2.15636 0.25547,-2.4474 0.1593,-0.35586 0.22729,0.23784 0.20762,1.81275 -0.0194,1.55184 0.0768,2.40748 0.28514,2.53624 0.22982,0.14204 0.18274,0.35691 -0.17498,0.79868 l -0.48939,0.60437 z m -46.14878,-0.0818 c 0.25466,-0.0666 0.67138,-0.0666 0.92604,0 0.25466,0.0665 0.0463,0.121 -0.46302,0.121 -0.50932,0 -0.71768,-0.0545 -0.46302,-0.121 z m 0.41341,-0.7921 c 0.191,-0.0764 0.4192,-0.067 0.50712,0.0209 0.0879,0.0879 -0.0684,0.15046 -0.34727,0.13897 -0.30822,-0.0127 -0.37092,-0.0754 -0.15985,-0.15985 z m 17.4625,0 c 0.191,-0.0764 0.4192,-0.067 0.50712,0.0209 0.0879,0.0879 -0.0684,0.15046 -0.34727,0.13897 -0.30822,-0.0127 -0.37092,-0.0754 -0.15985,-0.15985 z m 14.86628,-0.0839 c 0,-0.14552 0.24515,-0.26458 0.54478,-0.26458 0.29963,0 0.4712,0.11906 0.38126,0.26458 -0.0899,0.14552 -0.33509,0.26459 -0.54478,0.26459 -0.2097,0 -0.38126,-0.11907 -0.38126,-0.26459 z m 1.32291,0 c 0,-0.16425 1.22902,-0.24879 3.24115,-0.22295 2.98484,0.0383 3.09469,0.0567 1.38906,0.23172 -2.81728,0.28915 -4.63021,0.28572 -4.63021,-0.009 z m -15.39544,-0.7099 c 0.191,-0.0764 0.4192,-0.067 0.50712,0.0209 0.0879,0.0879 -0.0683,0.15046 -0.34727,0.13897 -0.30822,-0.0127 -0.37092,-0.0754 -0.15985,-0.15985 z m 14.00048,-0.2748 c 0.4697,-0.0584 1.30313,-0.0594 1.85208,-0.002 0.54895,0.0573 0.16465,0.1051 -0.85399,0.10627 -1.01865,10e-4 -1.46779,-0.0457 -0.99809,-0.10414 z m 4.90069,0.009 c 0.25466,-0.0666 0.67138,-0.0666 0.92604,0 0.25467,0.0665 0.0463,0.121 -0.46302,0.121 -0.50932,0 -0.71768,-0.0545 -0.46302,-0.121 z m -20.99144,-0.86831 c -0.23105,-0.22248 -0.64777,-0.54634 -0.92605,-0.71968 -0.44117,-0.27482 -0.37045,-0.31324 0.55239,-0.30004 0.58208,0.008 0.82491,0.0744 0.53961,0.14686 -0.46607,0.11835 -0.44795,0.16224 0.1785,0.43233 0.51311,0.22122 0.61516,0.37249 0.38644,0.57282 -0.21729,0.19032 -0.43719,0.15052 -0.73089,-0.13229 z m 1.82569,0.34079 c 0.19099,-0.0764 0.4192,-0.067 0.50712,0.0209 0.0879,0.0879 -0.0684,0.15046 -0.34727,0.13897 -0.30823,-0.0127 -0.37092,-0.0754 -0.15985,-0.15985 z m 13.67223,-0.35396 c -0.10651,-0.17234 0.31882,-0.25293 1.17501,-0.22262 0.73807,0.0261 1.34195,0.14767 1.34195,0.27011 0,0.31946 -2.3172,0.27573 -2.51696,-0.0475 z m 3.74844,0.0717 c -0.0675,-0.10914 0.52079,-0.19844 1.30724,-0.19844 0.78645,0 1.42994,0.0893 1.42997,0.19844 3e-5,0.10914 -0.58822,0.19843 -1.30724,0.19843 -0.71902,0 -1.3625,-0.0893 -1.42997,-0.19843 z m 3.20645,-0.0235 c 0.31705,-0.20122 1.91207,-0.10142 1.91207,0.11964 0,0.0563 -0.50602,0.10044 -1.12448,0.0982 -0.67449,-0.002 -0.98966,-0.0896 -0.78759,-0.21786 z m -33.42154,-0.88807 c 0.51352,-0.29787 0.51352,-0.30167 0,-0.50253 -0.48026,-0.18785 -0.47466,-0.20372 0.0779,-0.22098 0.68262,-0.0213 0.81449,0.63443 0.1768,0.87913 -0.67225,0.25797 -0.81614,0.17005 -0.25468,-0.15562 z m 29.24819,0.041 c -2.46618,-0.1335 -2.24584,-0.1562 1.96233,-0.20217 2.60725,-0.0285 4.69084,-0.009 4.63021,0.0439 -0.24249,0.21049 -3.97326,0.30006 -6.59254,0.15827 z m -22.75416,-0.58469 c 0,-0.10914 0.41672,-0.19844 0.92604,-0.19844 0.50932,0 0.92604,-0.11906 0.92604,-0.26458 0,-0.14552 0.29766,-0.26459 0.66146,-0.26459 0.3638,0 0.66146,0.12609 0.66146,0.2802 0,0.15411 -0.1166,0.20814 -0.25912,0.12006 -0.14251,-0.0881 -0.52947,-0.01 -0.85989,0.17344 -0.65836,0.36556 -2.05599,0.47018 -2.05599,0.15391 z m -9.45382,-0.11721 c 0.25743,-0.0671 0.61462,-0.0627 0.79375,0.01 0.17913,0.0725 -0.0315,0.12736 -0.46806,0.12197 -0.43656,-0.005 -0.58312,-0.0647 -0.32569,-0.13177 z m 12.8934,-0.34581 c 0,-0.14552 0.35719,-0.26459 0.79375,-0.26459 0.43656,0 0.79375,0.11907 0.79375,0.26459 0,0.14552 -0.35719,0.26458 -0.79375,0.26458 -0.43656,0 -0.79375,-0.11906 -0.79375,-0.26458 z m 17.06563,0 c -0.10568,-0.171 0.98845,-0.26315 3.09323,-0.26054 2.20047,0.003 3.12804,0.0872 2.85989,0.26054 -0.52708,0.34062 -5.74261,0.34062 -5.95312,0 z m -20.16945,-0.18336 c 0.25743,-0.0671 0.61462,-0.0627 0.79375,0.01 0.17913,0.0725 -0.0315,0.12737 -0.46805,0.12197 -0.43657,-0.005 -0.58313,-0.0647 -0.3257,-0.13177 z m 7.27668,-0.28389 c -0.0672,-0.25698 -0.0299,-0.70347 0.0828,-0.99219 0.15617,-0.39985 0.20946,-0.28851 0.22362,0.46725 0.0199,1.06315 -0.10828,1.28276 -0.30646,0.52494 z m -16.14526,0.0274 c 0.18191,-0.0734 0.47956,-0.0734 0.66146,0 0.1819,0.0734 0.0331,0.13345 -0.33073,0.13345 -0.3638,0 -0.51263,-0.0601 -0.33073,-0.13345 z m 1.33946,-0.006 c 0.19099,-0.0764 0.4192,-0.067 0.50712,0.0209 0.0879,0.0879 -0.0684,0.15046 -0.34727,0.13897 -0.30822,-0.0127 -0.37092,-0.0754 -0.15985,-0.15986 z m 2.69544,-0.0838 c -0.32265,-0.20851 -0.28846,-0.25724 0.18282,-0.26053 0.31884,-0.002 0.65328,0.11501 0.74322,0.26053 0.2082,0.33687 -0.40478,0.33687 -0.92604,0 z m 24.62714,-0.41892 c 0.0127,-0.30823 0.0754,-0.37092 0.15985,-0.15986 0.0764,0.191 0.067,0.4192 -0.0209,0.50712 -0.0879,0.0879 -0.15045,-0.0683 -0.13896,-0.34726 z m 6.01492,-0.0264 c 0.19099,-0.0764 0.4192,-0.067 0.50712,0.0209 0.0879,0.0879 -0.0684,0.15045 -0.34727,0.13896 -0.30823,-0.0127 -0.37092,-0.0754 -0.15985,-0.15985 z m -35.47071,-0.25907 c 0.18191,-0.0734 0.47956,-0.0734 0.66146,0 0.1819,0.0734 0.0331,0.13345 -0.33073,0.13345 -0.3638,0 -0.51263,-0.0601 -0.33073,-0.13345 z m 3.04271,-0.0175 c 0.54571,-0.0571 1.43867,-0.0571 1.98438,0 0.5457,0.0571 0.0992,0.10379 -0.99219,0.10379 -1.09141,0 -1.53789,-0.0467 -0.99219,-0.10379 z m 27.78125,0.003 c 0.40019,-0.0606 1.05503,-0.0606 1.45521,0 0.40018,0.0606 0.0728,0.11023 -0.7276,0.11023 -0.80037,0 -1.12779,-0.0496 -0.72761,-0.11023 z m -21.76198,-0.61204 c -0.27733,-0.18469 -0.0383,-0.21222 0.79375,-0.0914 1.48203,0.21517 1.69333,0.36507 0.50712,0.35976 -0.49719,-0.002 -1.08259,-0.12299 -1.30087,-0.26834 z m 2.84736,0.0853 c 0.32912,-0.0633 0.80537,-0.0609 1.05833,0.005 0.25297,0.0662 -0.0163,0.118 -0.59839,0.11506 -0.58209,-0.003 -0.78906,-0.0571 -0.45994,-0.1204 z m 5.97071,-1.53266 c 0.001,-1.01865 0.049,-1.40295 0.10628,-0.854 0.0573,0.54895 0.0563,1.38239 -0.002,1.85208 -0.0585,0.4697 -0.10533,0.0206 -0.10416,-0.99808 z m -12.45105,1.27185 c 0.25743,-0.0671 0.61462,-0.0627 0.79375,0.01 0.17913,0.0725 -0.0315,0.12737 -0.46806,0.12197 -0.43656,-0.005 -0.58312,-0.0647 -0.32569,-0.13177 z m 24.27048,-0.21352 c 0,-0.21828 0.11533,-0.39688 0.25628,-0.39688 0.14096,0 0.18775,0.1786 0.10399,0.39688 -0.0838,0.21828 -0.19909,0.39687 -0.25628,0.39687 -0.0572,0 -0.10399,-0.17859 -0.10399,-0.39687 z m -14.81666,-0.13229 -1.19063,-0.18511 1.01424,-0.0397 c 0.68802,-0.027 0.97523,-0.14611 0.89297,-0.37047 -0.0667,-0.1819 -0.25522,-0.30096 -0.41893,-0.26458 -0.16371,0.0364 -0.29765,-0.0767 -0.29765,-0.25135 0,-0.24695 -0.0706,-0.24695 -0.3175,0 -0.17463,0.17462 -0.68064,0.30128 -1.12448,0.28147 -0.62345,-0.0278 -0.67159,-0.0621 -0.21167,-0.1507 0.32742,-0.0631 0.59531,-0.28497 0.59531,-0.49313 0,-0.27943 0.32889,-0.37044 1.25677,-0.34778 0.69123,0.0169 1.05665,0.0836 0.81205,0.14817 -0.4052,0.10703 -0.397,0.19837 0.0923,1.02764 0.29535,0.50059 0.43595,0.89228 0.31244,0.87042 -0.12352,-0.0219 -0.76036,-0.12303 -1.4152,-0.22484 z m 17.79323,0.0822 c 0.25466,-0.0666 0.67138,-0.0666 0.92604,0 0.25466,0.0666 0.0463,0.121 -0.46302,0.121 -0.50933,0 -0.71769,-0.0545 -0.46302,-0.121 z m -20.7698,-0.26893 c 0.32743,-0.0631 0.86321,-0.0631 1.19063,0 0.32742,0.0631 0.0595,0.11466 -0.59531,0.11466 -0.65485,0 -0.92274,-0.0516 -0.59532,-0.11466 z m -7.40833,-0.25308 c 0.1819,-0.0734 0.47956,-0.0734 0.66146,0 0.1819,0.0734 0.0331,0.13345 -0.33073,0.13345 -0.3638,0 -0.51263,-0.0601 -0.33073,-0.13345 z m 1.33945,-0.006 c 0.191,-0.0764 0.4192,-0.067 0.50712,0.0209 0.0879,0.0879 -0.0683,0.15046 -0.34726,0.13897 -0.30823,-0.0127 -0.37092,-0.0754 -0.15986,-0.15986 z m 2.36946,-0.011 c 0.47555,-0.0589 1.18992,-0.0577 1.5875,0.003 0.39757,0.0604 0.008,0.10855 -0.86464,0.10707 -0.87312,-0.001 -1.19841,-0.0509 -0.72286,-0.10977 z m 8.71942,-0.33741 c -0.10127,-0.36381 -0.17501,-0.95912 -0.16388,-1.32292 0.0174,-0.56944 0.0557,-0.5382 0.27533,0.22464 0.14029,0.48735 0.21403,1.08267 0.16388,1.32292 -0.0645,0.30874 -0.14519,0.24287 -0.27533,-0.22464 z m -18.90698,0.0747 c 0.40218,-0.0608 0.99749,-0.0592 1.32291,0.004 0.32542,0.0628 -0.004,0.11256 -0.73124,0.11058 -0.7276,-0.002 -0.99386,-0.0534 -0.59167,-0.11419 z m 31.71091,-0.53774 c 0.021,-0.49792 0.0706,-0.57264 0.15706,-0.23669 0.11218,0.43577 0.22398,0.3963 0.99543,-0.35142 0.63979,-0.6201 1.06413,-0.81941 1.60847,-0.75549 0.40667,0.0478 0.78621,0.22944 0.84341,0.40375 0.0725,0.22099 -0.16158,0.27448 -0.77335,0.1767 -0.73248,-0.11708 -1.00565,-0.006 -1.65445,0.67526 -0.95817,1.0055 -1.21609,1.02476 -1.17657,0.0879 z m -19.74215,0.19843 -1.32292,-0.18145 1.66926,-0.0416 c 1.05516,-0.0263 1.6091,0.0558 1.50574,0.22301 -0.0899,0.14552 -0.24579,0.24588 -0.34635,0.22302 -0.10055,-0.0229 -0.77813,-0.12322 -1.50573,-0.22302 z m 23.87864,0.0709 c 0.61846,-0.0557 1.6305,-0.0557 2.24896,0 0.61846,0.0557 0.11245,0.10128 -1.12448,0.10128 -1.23693,0 -1.74294,-0.0456 -1.12448,-0.10128 z m -29.15708,-0.31716 c 0.14795,-0.14498 0.84997,-0.15856 1.70656,-0.033 l 1.45521,0.2133 -1.70656,0.033 c -1.05647,0.0204 -1.61082,-0.0608 -1.45521,-0.2133 z m -6.0384,-0.20924 c 0.46969,-0.0584 1.30313,-0.0594 1.85208,-0.002 0.54895,0.0573 0.16465,0.10511 -0.85399,0.10628 -1.01865,0.001 -1.46779,-0.0457 -0.99809,-0.10414 z m 7.48038,-0.49551 -4.89479,-0.33308 5.55625,0.11057 c 3.05593,0.0608 5.67531,0.11344 5.82083,0.11695 0.14552,0.004 0.086,0.1218 -0.13229,0.26286 -0.21828,0.14107 -0.635,0.23832 -0.92604,0.21613 -0.29105,-0.0222 -2.73183,-0.19024 -5.42396,-0.37343 z m 23.54561,-1.45224 c -10e-4,-0.78824 -0.0796,-2.07688 -0.17405,-2.86365 -0.11303,-0.94141 -0.0799,-1.37375 0.0968,-1.26453 0.14768,0.0913 0.59063,-0.42587 0.98431,-1.14921 0.39369,-0.72333 0.83714,-1.31515 0.98545,-1.31515 0.14831,0 0.008,0.42392 -0.31257,0.94205 -0.71352,1.15451 -0.99685,2.29957 -1.20716,4.87878 -0.19423,2.38194 -0.36958,2.74497 -0.37275,0.77171 z m 3.24345,0.3617 c 0.40018,-0.0606 1.05503,-0.0606 1.45521,0 0.40018,0.0606 0.0728,0.11022 -0.72761,0.11022 -0.80036,0 -1.12778,-0.0496 -0.7276,-0.11022 z m -19.90959,-0.27286 c -1.09123,-0.051 -2.06807,-0.17612 -2.17075,-0.27815 -0.10267,-0.10204 0.99852,-0.14785 2.44709,-0.1018 1.44857,0.046 2.63377,0.19487 2.63377,0.33073 0,0.13585 -0.20836,0.22335 -0.46302,0.19443 -0.25466,-0.0289 -1.35585,-0.0943 -2.44709,-0.14521 z m -9.33277,-0.52234 c 0.4697,-0.0584 1.30313,-0.0594 1.85208,-0.002 0.54895,0.0573 0.16465,0.10511 -0.85399,0.10628 -1.01865,0.001 -1.46779,-0.0457 -0.99809,-0.10414 z m 5.42986,0.009 c 0.25466,-0.0666 0.67138,-0.0666 0.92604,0 0.25466,0.0666 0.0463,0.121 -0.46302,0.121 -0.50932,0 -0.71768,-0.0545 -0.46302,-0.121 z m -0.59531,-0.61137 -2.77813,-0.161 3.30729,-0.0189 c 1.81901,-0.0104 4.14073,0.0666 5.15938,0.17116 l 1.85208,0.19009 -2.38125,-0.0102 c -1.30969,-0.006 -3.6314,-0.0826 -5.15937,-0.17116 z m 1.39409,-0.9771 c 0.25744,-0.0671 0.61462,-0.0627 0.79375,0.01 0.17914,0.0725 -0.0315,0.12736 -0.46805,0.12197 -0.43656,-0.005 -0.58313,-0.0647 -0.3257,-0.13177 z m 3.43455,-0.006 c 0.40019,-0.0606 1.05503,-0.0606 1.45521,0 0.40018,0.0606 0.0728,0.11022 -0.7276,0.11022 -0.80037,0 -1.12779,-0.0496 -0.72761,-0.11022 z m 4.40687,-0.67039 c -0.0685,-2.3659 -0.0134,-4.21707 0.1298,-4.36027 0.0878,-0.0878 0.15969,1.05078 0.15969,2.53024 0,1.47946 -0.0595,2.68993 -0.13229,2.68993 -0.0728,0 -0.1435,-0.38695 -0.1572,-0.8599 z m -8.17718,-0.21393 -2.51354,-0.1478 3.10885,-0.0506 c 1.70987,-0.0279 3.10886,-0.005 3.10886,0.0508 0,0.23293 -1.34308,0.28646 -3.70417,0.14764 z m 4.69635,0.10485 c 0.18191,-0.0734 0.47956,-0.0734 0.66146,0 0.1819,0.0734 0.0331,0.13345 -0.33073,0.13345 -0.3638,0 -0.51263,-0.0601 -0.33073,-0.13345 z m 8.33815,-1.41227 c -0.15127,-0.65484 -0.48407,-1.73293 -0.73957,-2.39575 l -0.46454,-1.20513 0.73455,-1.10998 c 0.404,-0.61048 0.82159,-1.10997 0.92799,-1.10997 0.10639,0 0.5167,0.46647 0.91181,1.03661 0.63047,0.90977 0.67756,1.11212 0.38481,1.65365 -0.18346,0.33936 -0.59152,1.45047 -0.9068,2.46911 l -0.57323,1.85209 z m -10.7194,0.35394 c 0.18191,-0.0734 0.47956,-0.0734 0.66146,0 0.1819,0.0734 0.0331,0.13345 -0.33073,0.13345 -0.3638,0 -0.51263,-0.06 -0.33073,-0.13345 z m 3.39045,-0.80555 c -0.14358,-0.37708 -0.11319,-0.40747 0.14812,-0.14811 0.18082,0.17947 0.26211,0.39297 0.18065,0.47443 -0.0815,0.0815 -0.22941,-0.0654 -0.32877,-0.32632 z m 13.89451,-0.2319 c 0.0127,-0.30822 0.0754,-0.37092 0.15985,-0.15985 0.0764,0.191 0.067,0.4192 -0.0209,0.50712 -0.0879,0.0879 -0.15045,-0.0683 -0.13896,-0.34727 z m -15.33699,-1.99663 c -1.0078,-1.2743 -2.55974,-2.1163 -3.99698,-2.16854 -0.69765,-0.0254 -1.20783,-0.14617 -1.13375,-0.26846 0.0741,-0.1223 -0.98031,-0.19291 -2.34309,-0.15693 -3.31808,0.0876 -3.74552,0.0477 -4.34545,-0.40594 -0.4713,-0.35638 -0.44146,-0.36841 0.36239,-0.14615 0.48179,0.13321 2.2789,0.17166 3.99357,0.0855 2.95464,-0.14856 3.19477,-0.12142 4.59432,0.51932 1.40778,0.6445 3.89759,2.64935 3.89759,3.13842 0,0.43273 -0.39585,0.20291 -1.0286,-0.59717 z m -6.61363,-0.56101 c 0.0202,-0.56452 0.0754,-0.67813 0.16077,-0.33072 0.0715,0.29104 0.2509,0.67799 0.39858,0.85989 0.19405,0.23902 0.14947,0.33073 -0.16077,0.33073 -0.31421,0 -0.42104,-0.23048 -0.39858,-0.8599 z m 1.55681,0.46303 c 0,-0.21829 -0.11906,-0.39688 -0.26458,-0.39688 -0.14552,0 -0.26459,-0.11906 -0.26459,-0.26458 0,-0.14552 0.1786,-0.26459 0.39688,-0.26459 0.24694,0 0.39687,0.24989 0.39687,0.66146 0,0.3638 -0.0595,0.66146 -0.13229,0.66146 -0.0728,0 -0.13229,-0.17859 -0.13229,-0.39687 z m 30.60347,-0.0441 c -0.097,-0.097 -0.17639,-0.3579 -0.17639,-0.57974 0,-0.31034 0.0878,-0.28491 0.38077,0.11024 0.34092,0.45986 0.44473,0.47455 0.99218,0.14036 0.56048,-0.34214 0.58117,-0.33662 0.2483,0.0661 -0.36885,0.4463 -1.12408,0.58377 -1.44486,0.26299 z m -6.69209,-0.98547 c 1.78745,-1.53019 3.71624,-2.34186 5.8231,-2.45046 1.09404,-0.0564 1.67869,-0.008 1.39514,0.11623 -0.43848,0.19163 -0.41485,0.24668 0.23263,0.54169 0.39639,0.1806 0.65613,0.39296 0.57719,0.4719 -0.0789,0.0789 -0.45345,-0.0595 -0.83224,-0.30774 -1.32664,-0.86924 -3.9045,-0.22404 -6.56771,1.64379 -1.60864,1.12822 -1.95411,1.11974 -0.62811,-0.0154 z m -25.2343,-0.69023 c 0,-0.14552 0.12609,-0.26458 0.2802,-0.26458 0.15411,0 0.20662,0.11906 0.11668,0.26458 -0.0899,0.14552 -0.21603,0.26459 -0.2802,0.26459 -0.0642,0 -0.11668,-0.11907 -0.11668,-0.26459 z m 12.08921,-1.07273 c -0.53719,-0.57041 -0.97671,-1.09818 -0.97671,-1.17282 0,-0.3322 3.10906,-0.10872 3.58745,0.25787 0.50258,0.38513 0.49941,0.40515 -0.14786,0.93357 -1.3298,1.08562 -1.42364,1.08491 -2.46288,-0.0186 z m 1.40454,-0.51477 c 0,-0.14552 -0.12609,-0.26458 -0.2802,-0.26458 -0.1541,0 -0.20661,0.11906 -0.11667,0.26458 0.0899,0.14552 0.21603,0.26459 0.2802,0.26459 0.0642,0 0.11667,-0.11907 0.11667,-0.26459 z m 3.50573,0.73407 c -0.47294,-0.28501 -0.85989,-0.59766 -0.85989,-0.69478 0,-0.48753 1.07955,-0.78587 2.23329,-0.61717 l 1.23796,0.18101 -0.87573,0.82457 -0.87573,0.82456 z m 16.86719,-0.70543 c -0.73659,-0.15383 -0.45509,-0.21714 1.37596,-0.30945 2.46827,-0.12444 3.1932,-0.45095 2.59679,-1.16958 -0.40481,-0.48776 -0.19913,-0.79777 0.38146,-0.57497 0.6322,0.24259 0.48246,1.17082 -0.26821,1.66267 -0.75989,0.49791 -2.69035,0.68279 -4.086,0.39133 z m -40.21667,-0.78999 c 0,-0.69624 0.72417,-1.26614 1.11379,-0.87652 0.22043,0.22042 0.18321,0.34151 -0.1435,0.46688 -0.24262,0.0931 -0.44112,0.33513 -0.44112,0.53784 0,0.20271 -0.11906,0.36857 -0.26458,0.36857 -0.14552,0 -0.26459,-0.22355 -0.26459,-0.49677 z m 18.56986,-3.935 c 0.0655,-0.34524 0.39011,-0.48153 1.27618,-0.5358 0.80499,-0.0493 1.06805,0.007 0.81546,0.17396 -0.20509,0.1357 -0.51343,0.1928 -0.68522,0.12688 -0.17178,-0.0659 -0.46505,0.0642 -0.6517,0.28906 -0.45472,0.54791 -0.86335,0.51861 -0.75472,-0.0541 z m 4.79066,-1.64355 c 0.16268,-0.43101 0.34523,-0.73421 0.40566,-0.67378 0.18881,0.18881 -0.21586,1.45743 -0.4649,1.45743 -0.13011,0 -0.10345,-0.35264 0.0592,-0.78365 z"
       id="path20949" />
  </g>
</svg>
