<?xml version="1.0" encoding="UTF-8" standalone="no"?>
<!-- Created with Inkscape (http://www.inkscape.org/) -->

<svg
   width="35.559284mm"
   height="36.124493mm"
   viewBox="0 0 35.559285 36.124492"
   version="1.1"
   id="svg5"
   inkscape:version="1.1 (c4e8f9ed74, 2021-05-24)"
   sodipodi:docname="ornateh.svg"
   xmlns:inkscape="http://www.inkscape.org/namespaces/inkscape"
   xmlns:sodipodi="http://sodipodi.sourceforge.net/DTD/sodipodi-0.dtd"
   xmlns="http://www.w3.org/2000/svg"
   xmlns:svg="http://www.w3.org/2000/svg">
  <sodipodi:namedview
     id="namedview7"
     pagecolor="#ffffff"
     bordercolor="#666666"
     borderopacity="1.0"
     inkscape:pageshadow="2"
     inkscape:pageopacity="0.0"
     inkscape:pagecheckerboard="0"
     inkscape:document-units="mm"
     showgrid="false"
     inkscape:zoom="1.3380612"
     inkscape:cx="-14.573325"
     inkscape:cy="88.560974"
     inkscape:window-width="2506"
     inkscape:window-height="1403"
     inkscape:window-x="1974"
     inkscape:window-y="0"
     inkscape:window-maximized="1"
     inkscape:current-layer="layer1" />
  <defs
     id="defs2" />
  <g
     inkscape:label="Layer 1"
     inkscape:groupmode="layer"
     id="layer1"
     transform="translate(-183.09706,-81.753601)">
    <path
       style="fill:#000000;stroke-width:0.264583"
       d="m 212.56588,117.72378 c -0.36986,-0.0577 -1.02471,-0.39345 -1.4552,-0.74613 l -0.78273,-0.64123 1.04813,0.5212 c 0.57647,0.28665 1.35038,0.5155 1.71979,0.50856 0.51133,-0.01 0.38744,-0.11045 -0.51896,-0.42241 -0.65484,-0.22537 -1.52566,-0.7255 -1.93514,-1.1114 -0.47357,-0.44629 -0.68261,-0.54032 -0.57441,-0.25836 0.13397,0.34912 0.053,0.41264 -0.38138,0.29906 -0.71426,-0.18679 -1.38276,0.37628 -1.28603,1.08322 0.0709,0.51781 -0.0645,0.56003 -2.02947,0.63307 -1.62531,0.0604 -2.30471,-0.0291 -2.97955,-0.3925 -0.72517,-0.39053 -0.96484,-0.41415 -1.40613,-0.13856 -0.72987,0.45581 -2.79036,0.71462 -2.99919,0.37672 -0.10404,-0.16834 -0.96786,-0.21587 -2.28385,-0.12567 -1.34936,0.0925 -2.11652,0.0478 -2.11652,-0.12319 0,-0.14755 1.0418,-0.35503 2.31511,-0.46109 2.84809,-0.23721 4.06568,-0.63111 1.65364,-0.53496 -0.94588,0.0377 -1.93182,0.15615 -2.19097,0.26319 -0.25915,0.10705 -0.8247,0.12393 -1.25677,0.0375 -0.47518,-0.095 -0.78559,-0.0465 -0.78559,0.1229 0,0.15401 -0.14883,0.22839 -0.33073,0.16529 -0.1819,-0.0631 -0.80698,0.0535 -1.38906,0.259 -1.67183,0.59036 -4.04571,0.52419 -5.28775,-0.1474 -1.25298,-0.6775 -1.37811,-0.68895 -1.8938,-0.17326 -0.21828,0.21828 -0.59673,0.38933 -0.841,0.3801 -0.31774,-0.012 -0.27472,-0.0849 0.15119,-0.25605 0.32743,-0.13161 0.59532,-0.35513 0.59532,-0.49671 0,-0.14158 -0.32743,-0.0866 -0.72761,0.12214 -0.40018,0.20875 -0.93027,0.38028 -1.17797,0.38118 -0.41443,0.002 -0.41994,-0.0986 -0.069,-1.25514 0.46247,-1.52407 0.49363,-2.76418 0.0799,-3.17795 -0.36513,-0.36514 -0.36208,-4.21383 0.005,-5.84598 0.1448,-0.64446 0.14903,-1.16005 0.0102,-1.24584 -0.46948,-0.29015 -0.25001,-1.39819 0.3123,-1.57666 0.70542,-0.22389 0.94078,0.0155 0.51713,0.52597 -0.39673,0.47803 -0.23913,0.55079 1.6947,0.78245 0.71815,0.086 1.57716,0.33426 1.90892,0.55164 0.33175,0.21737 0.66691,0.39522 0.74479,0.39522 0.39508,0 0.0606,-1.58379 -0.51255,-2.42732 l -0.65415,-0.96267 -0.98929,0.50437 c -0.54412,0.27741 -1.19254,0.50437 -1.44094,0.50437 -0.52628,0 -1.48279,-1.43419 -1.70821,-2.56128 -0.28388,-1.419405 0.78714,-4.083392 1.4716,-3.660372 0.11854,0.07326 0.28379,-0.04471 0.36724,-0.262151 0.0834,-0.217446 0.33404,-0.395356 0.55689,-0.395356 0.62251,0 0.4804,-0.712361 -0.17637,-0.88411 -0.64265,-0.168057 -1.27054,0.219492 -1.27054,0.784216 0,0.60363 -0.51946,0.410667 -0.85053,-0.315941 -0.23977,-0.526242 -0.23095,-1.17073 0.0389,-2.844271 0.39821,-2.469203 0.40863,-2.733381 0.17936,-4.545102 -0.3022,-2.387965 -0.35872,-4.111452 -0.1393,-4.247065 0.11863,-0.07332 0.14748,-0.709199 0.0641,-1.413074 -0.0855,-0.721444 -0.0391,-1.349311 0.10633,-1.439167 0.14185,-0.08767 1.29931,-0.06809 2.57213,0.04351 1.75849,0.154182 2.37467,0.310939 2.56598,0.652788 0.34174,0.610648 0.90363,0.567289 2.83885,-0.21906 0.90545,-0.367917 1.73294,-0.615377 1.83887,-0.54991 0.22804,0.14094 19.19554,0.50056 22.73369,0.431026 1.34607,-0.02645 2.44455,0.05069 2.44108,0.171427 -0.003,0.120738 -0.10999,0.666008 -0.23672,1.211711 -0.13443,0.578897 -0.1318,0.992187 0.006,0.992187 0.36045,0 0.27947,1.102427 -0.14006,1.906594 -0.20544,0.393782 -0.30866,0.963972 -0.2294,1.267087 0.11368,0.434706 -0.0306,0.617081 -0.68318,0.863393 -1.00144,0.378001 -1.05199,0.658954 -0.15887,0.883112 0.36764,0.09227 0.78436,0.384369 0.92604,0.649105 0.42515,0.794408 0.29199,2.57056 -0.27156,3.622021 -0.29105,0.54302 -0.5208,1.227198 -0.51057,1.520395 0.0185,0.531482 0.0193,0.531493 0.24598,0.0039 0.18348,-0.426982 0.24016,-0.324798 0.29353,0.529167 0.11138,1.782213 -0.0481,2.888679 -0.48623,3.373437 -0.24308,0.268954 -0.2943,0.463021 -0.1222,0.463021 0.16296,0 0.43948,-0.267573 0.61451,-0.594608 0.20028,-0.374236 0.35957,-0.470578 0.42977,-0.259952 0.0614,0.184061 -0.15981,0.554398 -0.49149,0.822971 l -0.60304,0.488311 0.57945,0.31012 c 0.70927,0.37958 0.75505,1.23723 0.0852,1.59573 -0.34859,0.18656 -0.45647,0.46223 -0.36603,0.93535 0.0753,0.39408 0.006,0.67082 -0.1672,0.67082 -0.16248,0 -0.29542,-0.16585 -0.29542,-0.36856 0,-0.20271 -0.20836,-0.44789 -0.46303,-0.54484 -0.37125,-0.14134 -0.39747,-0.11024 -0.13229,0.1569 0.1819,0.18324 0.33116,0.51772 0.33169,0.74328 5.3e-4,0.22555 0.34569,1.33283 0.76702,2.46062 0.42134,1.12779 0.66606,2.05052 0.54382,2.05052 -0.12223,0 -0.29702,-0.121 -0.38842,-0.2689 -0.18679,-0.30221 -0.65879,-0.0984 -0.65879,0.28452 0,0.13693 0.16585,0.24896 0.36856,0.24896 0.7194,0 0.94234,1.57768 0.29845,2.11206 -0.30249,0.25104 -0.32592,0.44694 -0.10324,0.86302 0.49858,0.93161 0.75307,2.11638 0.59223,2.75718 -0.2404,0.95787 -0.6264,0.72872 -0.63074,-0.37444 -0.005,-1.39424 -0.50252,-2.23714 -1.65073,-2.79939 -1.16712,-0.57151 -2.28818,-0.41722 -3.01429,0.41485 l -0.49045,0.56202 0.65418,-0.44473 c 0.3598,-0.2446 1.15289,-0.44473 1.76242,-0.44473 0.9127,0 1.22909,0.14362 1.79321,0.81405 1.17914,1.40133 0.82807,3.69303 -0.69022,4.50559 -0.4956,0.26524 -0.5384,0.23584 -0.40412,-0.27764 0.0975,-0.37277 0.0414,-0.53765 -0.15973,-0.46984 -0.17045,0.0575 -0.31257,0.3806 -0.31581,0.71812 -0.003,0.35448 -0.22691,0.70957 -0.52917,0.84075 -0.40431,0.17547 -0.35786,0.19496 0.20434,0.0857 0.86945,-0.16896 0.98579,0.26694 0.13229,0.49567 -0.6177,0.16554 -1.18024,0.16132 -2.32613,-0.0174 z m -18.28425,-1.7804 c 1.5803,-0.8008 2.41837,-2.05196 1.9147,-2.85847 -0.32876,-0.52642 -0.14916,-1.10661 0.26359,-0.85151 0.13784,0.0852 0.17075,0.28412 0.0731,0.44207 -0.10593,0.1714 -0.0543,0.21107 0.12798,0.0984 0.4401,-0.27199 0.37564,-2.23859 -0.12117,-3.69663 -0.56431,-1.65617 -0.68346,-1.45719 -0.21313,0.35595 0.20635,0.7955 0.37518,1.65854 0.37518,1.91787 0,0.84042 -0.76876,0.49941 -1.32292,-0.58683 -0.29695,-0.58208 -0.57648,-1.05833 -0.62116,-1.05833 -0.17723,0 1.00377,3.31841 1.23772,3.47778 0.26942,0.18353 -0.0179,0.61364 -1.22195,1.82937 -0.49785,0.50267 -1.22905,0.84948 -2.24896,1.0667 -0.8312,0.17703 -1.66928,0.46588 -1.86241,0.64189 -0.62205,0.56692 2.1345,-0.0258 3.6194,-0.77825 z m 7.38061,0.30913 c -0.13164,-0.39491 -1.24172,-1.16897 -1.98377,-1.38327 -0.4336,-0.12522 -0.59531,-0.0615 -0.59531,0.23448 0,0.25406 0.15003,0.34883 0.40024,0.25281 0.50524,-0.19388 1.21966,0.38076 1.16656,0.9383 -0.0723,0.75945 0.0132,0.84201 0.56594,0.54621 0.29989,-0.1605 0.50074,-0.42533 0.44634,-0.58853 z m 5.6971,0.4086 c -0.0719,-0.18735 -0.32633,-0.34241 -0.56543,-0.34457 -0.28346,-0.003 -0.0665,-0.31727 0.62362,-0.90447 0.58209,-0.4953 0.87974,-0.89149 0.66146,-0.88043 -1.46803,0.0744 -1.75416,-0.35676 -0.60305,-0.90871 0.99707,-0.47808 1.38903,-1.39687 1.38885,-3.25558 -1.7e-4,-1.81315 -0.306,-2.57 -0.8277,-2.04831 -0.51868,0.51869 -0.67954,0.398 -0.88454,-0.66367 -0.185,-0.95803 -0.20015,-0.9696 -0.44025,-0.33618 -0.26988,0.71199 -0.19898,3.97278 0.0864,3.97366 0.31877,0.001 1.54451,-1.61971 1.56576,-2.07028 0.0116,-0.24517 0.0778,-0.30315 0.14836,-0.12993 0.19826,0.48647 -0.6235,1.86494 -1.49653,2.5104 -0.43416,0.32099 -0.78938,0.73115 -0.78938,0.91147 0,0.18032 -0.43985,0.69042 -0.97745,1.13355 -0.5376,0.44314 -0.88487,0.89829 -0.7717,1.01146 0.11316,0.11316 0.84796,0.20575 1.63289,0.20575 h 1.42715 l -0.63827,0.63826 c -0.89781,0.89782 -3.1106,1.06013 -4.29627,0.31514 -2.21419,-1.39124 -2.06745,-2.8678 0.5768,-5.80372 1.42889,-1.5865 1.72393,-2.07249 1.72393,-2.83967 0,-0.64546 -0.14013,-0.97297 -0.46302,-1.08218 -0.25466,-0.0861 -0.73032,-0.46935 -1.05702,-0.85159 -0.48672,-0.56948 -0.59423,-0.60984 -0.59531,-0.22345 -7.1e-4,0.25935 -0.2692,0.57923 -0.59663,0.71084 -0.50014,0.20103 -0.41795,0.24196 0.51417,0.25605 0.83471,0.0126 1.21148,0.1624 1.52135,0.60481 0.67389,0.96212 0.49532,1.43552 -1.26514,3.35385 -2.65123,2.889 -2.86149,4.07229 -1.03048,5.79915 0.94086,0.88735 0.99771,0.90322 2.77899,0.77577 1.70892,-0.12227 2.17858,0.14199 0.72226,0.4064 -0.3638,0.066 -0.0498,0.11035 0.69772,0.0984 0.99352,-0.0158 1.32401,-0.11327 1.22846,-0.36227 z m -18.5088,0.0142 c 0.0959,-0.0959 -0.4796,-0.47017 -1.27882,-0.83178 -0.79923,-0.36159 -1.45314,-0.7594 -1.45314,-0.88401 0,-0.3015 -0.98685,-0.2917 -1.17434,0.0117 -0.19843,0.32107 2.43588,1.68747 3.57763,1.85571 0.0849,0.0125 0.23279,-0.0557 0.32867,-0.15158 z m 25.77326,-0.39429 c 0.0572,-0.75882 0.37669,-1.03956 1.43432,-1.26019 0.783,-0.16334 0.87679,-0.27386 0.81789,-0.96379 -0.0366,-0.42861 -0.0744,-0.9797 -0.0839,-1.22466 -0.01,-0.24495 -0.19707,-0.59449 -0.41666,-0.77673 -0.32285,-0.26795 -0.44527,-0.25866 -0.63963,0.0485 -0.3173,0.50143 -0.31084,0.97155 0.0161,1.17362 0.39988,0.24714 0.31701,0.66145 -0.13229,0.66145 -0.22049,0 -0.39688,-0.23518 -0.39688,-0.52916 0,-0.29104 -0.11611,-0.52917 -0.25803,-0.52917 -0.16549,0 -0.1624,0.25155 0.009,0.70137 0.58981,1.55131 -1.94721,2.65826 -3.20644,1.39903 -0.29999,-0.29999 -0.79458,-0.50835 -1.09908,-0.46302 -0.5353,0.0797 -0.52965,0.11084 0.1705,0.94043 0.7174,0.85003 1.77555,1.32102 3.07136,1.36708 0.50559,0.018 0.68187,-0.1165 0.71413,-0.54475 z m -5.48647,-1.51477 c 0,-0.27198 -0.24979,-0.15756 -0.79375,0.36359 -0.43657,0.41825 -0.79375,0.93905 -0.79375,1.15733 0,0.27199 0.24978,0.15757 0.79375,-0.36358 0.43656,-0.41825 0.79375,-0.93905 0.79375,-1.15734 z m -24.54222,0.6197 c -0.31588,-0.56445 -0.72446,-0.0538 -0.47568,0.59455 0.11686,0.30453 0.24636,0.3465 0.44774,0.14512 0.18753,-0.18753 0.19698,-0.43762 0.0279,-0.73967 z m 5.70313,0.60231 c 0.15164,-0.18272 0.35366,-0.64277 0.44892,-1.02234 0.21204,-0.84481 -0.2504,-1.01589 -2.7765,-1.02714 -1.30072,-0.006 -1.62308,-0.0772 -1.32292,-0.29316 0.33007,-0.23743 0.3153,-0.25902 -0.0878,-0.12824 -0.26657,0.0865 -0.62375,0.15798 -0.79375,0.15888 -0.94352,0.005 1.48742,0.84741 2.54642,0.88246 1.06653,0.0353 1.2912,0.13415 1.41397,0.62223 0.0803,0.31915 0.0682,0.7061 -0.0268,0.85989 -0.24357,0.39411 0.26485,0.34943 0.59849,-0.0526 z m 6.13909,-0.32925 c 0,-0.50083 -0.2872,-0.5034 -0.94162,-0.008 -0.49194,0.37209 -0.48292,0.38882 0.21401,0.39688 0.47411,0.005 0.72761,-0.12986 0.72761,-0.38846 z m 9.1276,-0.15336 c -0.74182,-0.28952 -1.71927,-0.29008 -1.71927,-9.8e-4 0,0.3507 0.49681,0.46431 1.43087,0.32722 0.70754,-0.10384 0.7462,-0.14757 0.2884,-0.32624 z m -16.27135,0.0211 c 0,-0.14552 -0.20836,-0.2662 -0.46302,-0.26819 -0.25467,-0.002 -0.76068,-0.069 -1.12448,-0.14888 l -0.66146,-0.14526 0.66146,0.40408 c 0.75943,0.46394 1.5875,0.54649 1.5875,0.15825 z m 9.12625,0.003 c 0.0927,-0.14998 -0.0135,-0.19434 -0.24897,-0.10398 -0.45837,0.1759 -0.54223,0.36555 -0.16165,0.36555 0.13693,0 0.32171,-0.1177 0.41062,-0.26156 z m -6.55249,-0.8807 c -0.1354,-0.4062 -0.56119,-0.22531 -0.76472,0.32487 -0.18081,0.48879 -0.14809,0.51142 0.31832,0.22013 0.28592,-0.17855 0.4868,-0.4238 0.4464,-0.545 z m 6.30494,0.23785 c 0.28224,-0.20639 0.44058,-0.44784 0.35185,-0.53657 -0.25789,-0.25789 -1.6066,0.35394 -1.42565,0.64673 0.2218,0.35888 0.4667,0.33376 1.0738,-0.11016 z m 15.26452,0.20002 c -0.1819,-0.0734 -0.47955,-0.0734 -0.66145,0 -0.1819,0.0734 -0.0331,0.13346 0.33073,0.13346 0.3638,0 0.51263,-0.0601 0.33072,-0.13346 z m -20.49969,-0.56891 c 0.0576,-0.17281 -0.0838,-0.31419 -0.31419,-0.31419 -0.23041,0 -0.41893,0.18851 -0.41893,0.41892 0,0.46724 0.56959,0.38587 0.73312,-0.10473 z m 1.38355,-0.0496 c 0,-0.14552 -0.17859,-0.26458 -0.39688,-0.26458 -0.21828,0 -0.39687,0.11906 -0.39687,0.26458 0,0.14552 0.17859,0.26458 0.39687,0.26458 0.21829,0 0.39688,-0.11906 0.39688,-0.26458 z m 5.93329,-0.46302 c -0.085,-0.44542 0.0613,-1.11419 0.37731,-1.72439 0.42967,-0.82967 0.4688,-1.15128 0.23341,-1.91823 -0.15554,-0.50679 -0.3673,-0.92144 -0.47059,-0.92144 -0.71231,0 -1.30404,2.41339 -0.75418,3.07593 0.3002,0.36171 0.26645,0.49369 -0.2288,0.89472 l -0.58094,0.47041 0.58952,0.41143 c 0.8413,0.58713 0.9915,0.53521 0.83427,-0.28843 z m 13.30964,0.56775 c -0.0879,-0.0879 -0.31613,-0.0973 -0.50712,-0.0209 -0.21107,0.0845 -0.14838,0.14715 0.15985,0.15985 0.27891,0.0115 0.43518,-0.0511 0.34727,-0.13897 z m -11.30543,-0.45103 c 0,-0.19047 -0.17481,-0.57743 -0.38846,-0.8599 -0.37402,-0.4945 -0.38877,-0.48819 -0.39688,0.16992 -0.005,0.37593 0.071,0.76288 0.16798,0.85989 0.29019,0.29019 0.61736,0.20015 0.61736,-0.16991 z m -4.29454,-0.71715 c 0.0421,-0.2211 -0.0822,-0.61902 -0.27615,-0.88427 -0.32449,-0.44377 -0.37632,-0.40514 -0.64919,0.48393 -0.28065,0.91445 -0.26586,0.96182 0.27616,0.88427 0.31498,-0.0451 0.60711,-0.26283 0.64918,-0.48393 z m 7.04304,-0.22461 c 0.87715,-0.75809 1.22913,-1.98893 1.05237,-3.68009 -0.10275,-0.98301 -0.0496,-1.76929 0.14413,-2.13123 0.17771,-0.33204 0.19958,-0.57354 0.052,-0.57354 -0.41455,0 -1.08654,0.79529 -1.08654,1.28589 0,0.24989 -0.71438,1.25911 -1.5875,2.24271 -1.66081,1.87094 -1.79962,2.18823 -1.25677,2.87269 0.6539,0.82449 1.71687,0.81798 2.68235,-0.0164 z m 9.42233,0.27585 c 0,-0.26568 -0.27978,-0.74589 -0.62174,-1.06715 -0.57173,-0.53711 -0.65086,-0.54903 -0.98359,-0.1481 -0.31494,0.37947 -0.26674,0.5178 0.37191,1.06714 0.87893,0.75602 1.23342,0.79859 1.23342,0.14811 z m -29.99551,-1.68185 c -0.16914,-0.82688 -0.40541,-1.60079 -0.52504,-1.71979 -0.24762,-0.2463 -0.0126,2.96984 0.24781,3.39119 0.40407,0.65381 0.56025,-0.28778 0.27723,-1.6714 z m 3.86791,0.24487 c 0.36677,-0.41178 0.46302,-1.00553 0.46302,-2.85617 0,-2.44122 -0.23374,-2.97235 -1.00886,-2.29248 -0.60606,0.53159 -1.63697,0.82879 -1.63697,0.47192 0,-0.15533 0.16014,-0.28241 0.35586,-0.28241 0.19573,0 0.56863,-0.2351 0.82867,-0.52244 0.45822,-0.50633 0.4508,-0.53081 -0.2408,-0.79375 -1.05639,-0.40164 -2.01574,-0.35022 -1.84343,0.0988 0.0781,0.20356 0.0258,0.44196 -0.1163,0.52977 -0.1558,0.0963 -0.058,0.57437 0.24655,1.2046 0.27767,0.57473 0.50486,1.17923 0.50486,1.34334 0,0.19232 0.27562,0.23786 0.77536,0.12809 0.61663,-0.13543 0.83518,-0.0585 1.06764,0.37586 0.37247,0.69596 -0.0379,1.53558 -0.85845,1.75634 -0.3515,0.0946 -0.80342,0.6118 -1.12453,1.28708 l -0.53687,1.12898 1.33062,-0.52884 c 0.73183,-0.29087 1.53897,-0.76278 1.79363,-1.04869 z m 24.01094,1.55549 c 0,-0.055 -0.18213,-0.5359 -0.40473,-1.06864 -0.33786,-0.80862 -0.3999,-2.42027 -0.37554,-9.75576 0.0332,-10.001734 0.28434,-15.068718 0.77618,-15.661343 0.1834,-0.220991 0.28912,-0.405464 0.23492,-0.40994 -0.0542,-0.0045 -0.88864,-0.06256 -1.85432,-0.129073 l -1.75577,-0.120935 0.499,0.978767 c 0.44593,0.874666 0.49901,1.623218 0.49901,7.037952 v 6.059182 l -3.96875,-0.10878 c -2.18282,-0.0598 -3.96875,-0.0375 -3.96875,0.0497 0,0.63243 0.87312,0.79345 4.30259,0.79345 h 3.6676 l -0.0828,5.35781 c -0.0657,4.2504 -0.16947,5.526 -0.5022,6.17154 l -0.41943,0.81373 1.67648,0.0462 c 0.92207,0.0254 1.67649,0.001 1.67649,-0.0538 z m -17.99167,-0.42922 c 0,-0.14552 -0.11906,-0.26458 -0.26458,-0.26458 -0.14552,0 -0.26459,0.11906 -0.26459,0.26458 0,0.14553 0.11907,0.26459 0.26459,0.26459 0.14552,0 0.26458,-0.11906 0.26458,-0.26459 z m 0.87041,-0.26458 c -0.0761,-0.29104 -0.24355,-0.52917 -0.3721,-0.52917 -0.27662,0 -0.28626,0.0844 -0.0731,0.63982 0.23312,0.60751 0.60863,0.51418 0.44523,-0.11065 z m -3.14451,-0.29172 c -0.45595,-0.50324 -0.51178,-1.08672 -0.58529,-6.11774 l -0.0813,-5.56144 4.77762,0.11195 c 2.62769,0.0616 4.77762,0.0404 4.77762,-0.0471 0,-0.65615 -0.88196,-0.79399 -5.08,-0.79399 -3.7493,0 -4.445,-0.0613 -4.445,-0.391838 0,-0.352066 -1.2022,-0.875411 -1.44748,-0.630124 -0.055,0.05496 -0.18317,2.896992 -0.28491,6.315622 -0.13397,4.50135 -0.28732,6.41639 -0.55601,6.94331 l -0.37102,0.7276 h 1.89989 1.89988 z m 6.82934,-0.28595 c -0.40332,-0.40332 -0.64899,-0.15765 -0.42529,0.4253 0.12305,0.32068 0.25591,0.37026 0.45601,0.17016 0.20011,-0.20011 0.19116,-0.37359 -0.0307,-0.59546 z m -5.52452,-0.16868 c -0.0692,-0.26468 0.061,-0.63633 0.28943,-0.82588 0.60499,-0.5021 0.51265,-1.68745 -0.18005,-2.31104 -1.06008,-0.95433 -1.25677,-0.97464 -1.25677,-0.12978 0,0.61207 0.14287,0.81654 0.66146,0.9467 0.3638,0.0913 0.66146,0.2663 0.66146,0.38887 0,0.12257 -0.29766,0.16595 -0.66146,0.0964 -0.80139,-0.15319 -0.86151,0.29153 -0.22098,1.63473 0.4478,0.93905 0.93632,1.07726 0.70691,0.2 z m -7.91813,-0.90729 c -0.11475,-0.36878 0.0145,-0.46303 0.6351,-0.46303 0.42855,0 0.91861,-0.16799 1.08901,-0.37331 0.42295,-0.50963 -0.0792,-0.7924 -0.76003,-0.42802 -0.45737,0.24478 -0.59451,0.15153 -1.0521,-0.71537 l -0.52618,-0.99684 -0.0117,1.87413 c -0.006,1.03078 0.0695,1.9553 0.16867,2.0545 0.27812,0.27811 0.61909,-0.43189 0.45723,-0.95206 z m 29.7548,0.7694 c 0.34678,-0.41785 0.13455,-0.70326 -0.52296,-0.70326 -0.54327,0 -0.87018,0.40994 -0.63297,0.79375 0.23086,0.37355 0.80833,0.32834 1.15593,-0.0905 z m -20.38486,-0.52418 c 0.0809,-0.42002 0.0265,-0.43559 -0.45999,-0.13176 -0.67025,0.41859 -0.72287,0.81819 -0.0917,0.69665 0.25299,-0.0487 0.50126,-0.30292 0.55171,-0.56489 z m 3.48622,-0.12616 c 0,-0.49075 -0.47276,-1.11125 -0.84667,-1.11125 -0.32648,0 -0.25033,0.91383 0.10584,1.27 0.4538,0.4538 0.74083,0.39229 0.74083,-0.15875 z m 15.1521,-1.30826 c -0.0701,-0.18269 -0.35285,-0.33216 -0.62833,-0.33216 -0.38182,0 -0.50085,0.19158 -0.50085,0.8061 0,0.80517 7.9e-4,0.80556 0.62831,0.33216 0.34558,-0.26067 0.57097,-0.62341 0.50087,-0.8061 z m -17.49918,-0.13923 c -0.44049,-0.4405 -0.68997,-0.003 -0.27998,0.49115 0.24796,0.29877 0.39137,0.33446 0.46434,0.11553 0.0581,-0.17421 -0.0249,-0.44722 -0.18436,-0.60668 z m 3.21742,0.3365 c 0.15575,-0.59558 -0.2558,-0.98522 -0.63748,-0.60354 -0.26915,0.26915 -0.0452,1.13244 0.29375,1.13244 0.11298,0 0.26766,-0.238 0.34373,-0.5289 z m 3.03523,-0.23598 c 0.56306,-0.76157 0.56324,-0.76694 0.0415,-1.23909 -0.46321,-0.4192 -0.56951,-0.42867 -0.91656,-0.0816 -0.2695,0.26951 -0.3395,0.65795 -0.22327,1.23909 0.20856,1.0428 0.37835,1.05541 1.09831,0.0816 z m 15.1056,0.26531 c 0.27927,-0.17696 0.29178,-0.3507 0.0568,-0.78969 -0.37101,-0.69323 -0.42816,-0.69431 -1.15001,-0.0218 -0.4941,0.46032 -0.52204,0.5781 -0.18737,0.7897 0.48782,0.30844 0.8193,0.31408 1.28054,0.0218 z m -2.07784,-0.29418 c 0,-0.14552 -0.23812,-0.5027 -0.52916,-0.79375 -0.29105,-0.29104 -0.64823,-0.52916 -0.79375,-0.52916 -0.40553,0 -0.31442,0.70612 0.15119,1.17172 0.4656,0.46561 1.17172,0.55672 1.17172,0.15119 z m -31.30303,-1.52135 c -0.0666,-0.25466 -0.121,-0.0463 -0.121,0.46302 0,0.50932 0.0545,0.71768 0.121,0.46302 0.0665,-0.25466 0.0665,-0.67138 0,-0.92604 z m 13.74923,0.60672 c -0.0862,-0.22455 -0.27947,-0.40828 -0.42956,-0.40828 -0.38776,0 -0.33937,0.72591 0.0578,0.86777 0.44948,0.16053 0.55811,0.0262 0.37172,-0.45949 z m 3.11901,-0.46715 c 0.22653,-0.32342 0.39697,-1.00803 0.37876,-1.52136 -0.0322,-0.90776 -0.0382,-0.90191 -0.21921,0.21366 -0.1805,1.11244 -0.57796,1.61874 -1.27733,1.6271 -0.8234,0.01 -0.65702,-1.51602 0.19633,-1.80046 0.20726,-0.0691 0.27373,0.005 0.16392,0.18269 -0.10713,0.17333 -0.0114,0.2989 0.22775,0.2989 0.50322,0 0.523,-0.19187 0.0668,-0.64808 -0.4131,-0.4131 -0.97633,-0.0849 -1.48153,0.86343 -0.66227,1.24313 1.11971,1.9617 1.94452,0.78412 z m 12.32105,0.0534 c 0.34148,-0.63805 0.13275,-1.08832 -0.40827,-0.88071 -0.42621,0.16355 -0.54395,1.41534 -0.13313,1.41534 0.1404,0 0.38403,-0.24058 0.5414,-0.53463 z m 3.17743,-0.005 c 0.34531,-0.64522 0.13249,-1.46799 -0.43618,-1.68621 -0.85573,-0.32838 -1.33459,0.79529 -0.71555,1.67909 0.48235,0.68866 0.78597,0.69054 1.15173,0.007 z m -22.24234,-0.13674 c -0.48661,-0.58633 -1.31093,-0.99903 -1.31093,-0.65632 0,0.15064 0.16401,0.27389 0.36448,0.27389 0.20046,0 0.5127,0.1786 0.69385,0.39688 0.18116,0.21828 0.38891,0.39687 0.46167,0.39687 0.0728,0 -0.0213,-0.18509 -0.20907,-0.41132 z m 10.06615,-0.57951 c 0,-0.32278 -0.0741,-0.33538 -0.39687,-0.0675 -0.21828,0.18116 -0.39688,0.50797 -0.39688,0.72625 0,0.32278 0.0741,0.33538 0.39688,0.0675 0.21828,-0.18116 0.39687,-0.50797 0.39687,-0.72625 z m -5.91832,-0.25319 c -0.0794,-0.0793 -0.34628,-0.0667 -0.59317,0.028 -0.41161,0.15795 -0.40707,0.20314 0.0547,0.5441 0.43636,0.32217 0.5156,0.31843 0.59317,-0.028 0.0493,-0.21991 0.0246,-0.46475 -0.0547,-0.5441 z m -2.80565,-0.0127 0.65418,-0.46302 -0.92604,-0.14536 c -1.35424,-0.21257 -1.71296,-0.0349 -1.16104,0.57493 0.55131,0.60918 0.61729,0.61072 1.4329,0.0335 z m 8.44475,-0.89736 c 0.0229,-0.2653 -1.21912,-0.50931 -1.68413,-0.33087 -0.48871,0.18754 -0.55007,0.92408 -0.11336,1.36079 0.22966,0.22966 0.48627,0.16135 1.04369,-0.27782 0.40654,-0.32029 0.74575,-0.65873 0.7538,-0.7521 z m -19.64837,0.51702 c -0.0845,-0.21106 -0.14716,-0.14837 -0.15985,0.15986 -0.0115,0.27891 0.051,0.43518 0.13896,0.34726 0.0879,-0.0879 0.0973,-0.31612 0.0209,-0.50712 z m 13.96516,-0.21497 c 0.2234,0 0.40618,-0.22539 0.40618,-0.50086 0,-0.57782 -0.68906,-0.94091 -0.95845,-0.50504 -0.10999,0.17797 -0.0611,0.21944 0.12382,0.10512 0.17817,-0.11011 0.30547,-0.0261 0.30547,0.20153 0,0.21467 -0.35719,0.54842 -0.79375,0.74166 -0.43657,0.19324 -0.79375,0.45504 -0.79375,0.58177 0,0.12674 0.29346,0.0381 0.65215,-0.19688 0.35868,-0.23502 0.83493,-0.4273 1.05833,-0.4273 z m 16.37465,-0.59199 c -0.20575,-0.3329 -0.80019,-0.22855 -1.15866,0.20338 -0.2781,0.33509 -0.24939,0.46883 0.16604,0.77343 0.44551,0.32665 0.53703,0.30367 0.80979,-0.20339 0.16914,-0.31442 0.25141,-0.66246 0.18283,-0.77342 z m -5.5455,0.2368 c 0.35297,-1.31574 0.22863,-1.4969 -1.02742,-1.4969 -0.65328,0 -1.77829,-0.22437 -2.50001,-0.4986 -1.40431,-0.53359 -1.60387,-0.49547 -1.60387,0.30643 0,0.35216 0.12715,0.46458 0.40492,0.35799 0.26426,-0.10141 0.50879,0.0726 0.70393,0.50086 0.36153,0.79348 0.48283,0.80494 1.3446,0.12707 0.87731,-0.69009 0.91174,-0.68 1.12852,0.33073 0.10143,0.47295 0.23007,0.93802 0.28587,1.0335 0.21062,0.36044 1.11659,-0.11359 1.26346,-0.66108 z m -12.31901,-0.21583 c -0.28415,-0.18743 -0.2627,-0.30193 0.11011,-0.58766 0.55748,-0.42726 0.59773,-1.12565 0.0939,-1.62946 -0.31574,-0.31574 -0.39376,-0.23761 -0.53973,0.54046 -0.0939,0.50025 -0.42492,1.08767 -0.73573,1.30536 l -0.56509,0.39581 0.6418,0.23849 c 0.79327,0.29477 1.54071,0.0971 0.99472,-0.263 z m 18.09472,-2.12742 c 0.91913,-1.0614 1.24119,-1.64775 1.21747,-2.21662 -0.0177,-0.42542 0.14949,-1.57715 0.37162,-2.559418 0.31272,-1.382868 0.32966,-1.785937 0.0751,-1.785937 -0.19051,0 -0.51751,0.806773 -0.7775,1.918229 -0.62096,2.654666 -0.64744,2.719246 -0.97894,2.387756 -0.1975,-0.19751 -0.19052,-0.46485 0.0236,-0.90414 l 0.30405,-0.62372 -0.52037,0.59531 c -0.28621,0.32742 -0.64148,0.59531 -0.78949,0.59531 -0.36751,0 -1.36585,1.30316 -1.36585,1.78288 0,0.26209 0.29672,0.12808 0.91139,-0.41161 0.61369,-0.53882 1.08904,-0.75376 1.45521,-0.65801 0.74144,0.19389 0.69751,0.36736 -0.46663,1.84267 -0.55574,0.70429 -1.22304,1.63772 -1.48288,2.07428 l -0.47244,0.79375 0.62298,-0.69379 c 0.34265,-0.38159 1.18537,-1.34321 1.87271,-2.13694 z m 2.58674,2.33396 c 0,-0.55222 -0.7279,-1.04032 -1.25168,-0.83933 -0.41526,0.15935 -0.39452,0.23219 0.19507,0.68517 0.78758,0.6051 1.05661,0.64434 1.05661,0.15416 z M 195.2805,105.6788 c 0.32527,-0.33193 0.67234,-1.05 0.77127,-1.5957 0.16001,-0.88265 0.11992,-0.99219 -0.36313,-0.99219 -0.29865,0 -0.6216,-0.12718 -0.71767,-0.28262 -0.0961,-0.15544 -0.33777,-0.22003 -0.53712,-0.14354 -0.19936,0.0765 -0.536,-0.0344 -0.74809,-0.24654 -0.58759,-0.58759 -0.63941,-0.47896 -0.32801,0.6877 0.23082,0.86476 0.20216,1.30784 -0.14745,2.28007 l -0.43394,1.20674 0.95637,-0.1552 c 0.526,-0.0854 1.22249,-0.42678 1.54777,-0.75872 z m 4.60389,0.4458 c 0.45188,-0.54448 -0.13968,-1.67898 -1.06281,-2.03827 -0.36545,-0.14224 -0.87282,-0.36587 -1.12748,-0.49697 -0.27483,-0.14147 -0.46302,-0.14141 -0.46302,1.7e-4 0,0.13118 0.1757,0.30594 0.39045,0.38835 0.21476,0.0824 0.64459,0.69046 0.95518,1.35122 0.61265,1.30335 0.79443,1.41393 1.30768,0.7955 z m -6.89858,-2.38781 c 0.007,-0.59065 -0.16287,-1.30502 -0.37653,-1.5875 -0.35058,-0.46351 -0.38718,-0.28139 -0.37538,1.86766 0.0123,2.23312 0.0357,2.33187 0.37652,1.5875 0.1999,-0.43656 0.36883,-1.27701 0.37539,-1.86766 z m 19.85568,1.70414 c 0,-0.14552 -0.11906,-0.191 -0.26458,-0.10106 -0.14552,0.0899 -0.26458,0.28258 -0.26458,0.4281 0,0.14552 0.11906,0.191 0.26458,0.10106 0.14552,-0.0899 0.26458,-0.28258 0.26458,-0.4281 z m -10.63928,-0.53512 c 0.0535,-0.27778 -0.16531,-0.49015 -0.62349,-0.60515 -0.89528,-0.2247 -1.03319,-0.0806 -0.59566,0.62263 0.39551,0.63565 1.0953,0.62562 1.21915,-0.0175 z m 13.91381,0.15946 c 0.0899,-0.23431 -0.0151,-0.47262 -0.24769,-0.56186 -0.51769,-0.19865 -0.75392,0.0402 -0.55429,0.56046 0.20085,0.52339 0.6014,0.52409 0.80198,0.001 z m -7.1343,-0.61372 c 0.0771,-0.12477 -0.6792,-0.29555 -1.68068,-0.37951 -1.01392,-0.085 -2.27102,-0.38459 -2.83657,-0.676 -1.23709,-0.63742 -2.60438,-2.02786 -2.98383,-3.03433 -0.468,-1.241327 -0.34001,-3.784476 0.25635,-5.093557 0.45829,-1.006022 0.62627,-1.156778 1.14411,-1.026808 0.38178,0.09582 0.73438,-0.0012 0.95044,-0.261549 0.40801,-0.491613 0.19576,-0.529193 -0.59859,-0.105984 -0.53071,0.282751 -0.54692,0.270336 -0.19844,-0.151996 0.20872,-0.252943 0.92309,-0.743142 1.5875,-1.089331 0.66441,-0.346189 1.08896,-0.632822 0.94344,-0.636961 -0.14552,-0.0041 -0.90868,0.347504 -1.69592,0.78143 -0.78723,0.433927 -1.6802,0.788645 -1.98437,0.788262 -0.49164,-6.08e-4 -0.55795,-0.169542 -0.59723,-1.521354 -0.0572,-1.969408 -0.91178,-4.218529 -2.09603,-5.516606 l -0.94072,-1.031136 0.80092,1.058333 c 1.27381,1.683207 1.63582,2.839452 1.64478,5.253356 0.004,1.201362 -0.0137,2.296762 -0.0404,2.43422 -0.0267,0.137458 -0.0205,0.368987 0.0137,0.514507 0.0342,0.145521 0.0781,1.404363 0.0975,2.797426 0.0319,2.293153 0.1046,2.637618 0.76797,3.640058 0.81951,1.23839 2.58734,2.63107 3.61686,2.84934 0.37263,0.079 0.91564,0.24614 1.20668,0.37143 0.69743,0.30024 2.44454,0.32473 2.62252,0.0368 z m -7.8629,-9.996501 c -0.21138,-0.211384 0.0276,-0.624554 0.3612,-0.624554 0.13694,0 0.24897,0.178594 0.24897,0.396875 0,0.409154 -0.3122,0.525649 -0.61017,0.227679 z m 12.78101,9.694191 c 0.22603,-0.42235 0.20121,-0.52917 -0.12299,-0.52917 -0.2234,0 -0.40618,0.0498 -0.40618,0.11066 0,0.0609 -0.0723,0.29898 -0.1606,0.52916 -0.23344,0.60833 0.35554,0.51385 0.68977,-0.11065 z m -10.31875,-0.23627 c 0,-0.29344 -0.81397,-0.62545 -1.0224,-0.41703 -0.0841,0.0841 0.0222,0.26367 0.23631,0.39905 0.49473,0.31288 0.78609,0.31954 0.78609,0.018 z m -3.30583,-0.82044 c -0.26419,-0.29193 -0.60172,-0.53079 -0.75005,-0.53079 -0.14833,0 0.009,0.29719 0.35073,0.66042 0.72799,0.77491 1.10667,0.65199 0.39932,-0.12963 z m 8.77556,-0.33235 c 0.05,-0.6643 -0.0249,-0.7276 -0.86193,-0.7276 -0.72369,0 -0.96747,0.13344 -1.15767,0.63371 -0.13252,0.34854 -0.39746,0.70013 -0.58876,0.78132 -0.19131,0.0812 0.30498,0.12345 1.10286,0.0939 1.37832,-0.0511 1.45342,-0.09 1.5055,-0.78133 z m -20.37427,-1.16785 c -0.0688,-0.0688 -0.37103,0.0283 -0.6715,0.216 l -0.54632,0.34118 0.5867,0.62796 0.5867,0.62797 0.0848,-0.84396 c 0.0466,-0.46418 0.0285,-0.90029 -0.0404,-0.96915 z m 9.61287,1.64688 c 0,-0.0642 -0.11906,-0.19026 -0.26458,-0.28019 -0.14552,-0.0899 -0.26459,-0.0374 -0.26459,0.11667 0,0.15411 0.11907,0.2802 0.26459,0.2802 0.14552,0 0.26458,-0.0525 0.26458,-0.11668 z m 0.64804,-0.21974 c -0.071,-0.18503 -0.39468,-0.49834 -0.7193,-0.69623 -0.56288,-0.34317 -0.56051,-0.3276 0.0512,0.33642 0.71621,0.77739 0.85752,0.8535 0.66807,0.35981 z m 3.1449,0.15946 c 0.27087,-0.27087 -0.63641,-1.14595 -1.18811,-1.14595 -0.99723,0 -0.23792,1.15387 0.8568,1.30202 0.0849,0.0115 0.23398,-0.0587 0.33131,-0.15607 z m 4.35623,-0.40512 c 0.42265,-0.42265 0.40181,-0.74083 -0.0485,-0.74083 -0.20131,0 -0.42829,0.23812 -0.5044,0.52916 -0.15584,0.59594 0.0788,0.68577 0.55292,0.21167 z m -9.2075,-0.34396 c 0,-0.21828 -0.11533,-0.39687 -0.25628,-0.39687 -0.14096,0 -0.18775,0.17859 -0.10399,0.39687 0.0838,0.21828 0.19909,0.39687 0.25628,0.39687 0.0572,0 0.10399,-0.17859 0.10399,-0.39687 z m 8.20208,-0.0221 c 0,-0.46723 -0.56958,-0.38586 -0.73312,0.10473 -0.0576,0.17281 0.0838,0.31419 0.3142,0.31419 0.2304,0 0.41892,-0.18851 0.41892,-0.41892 z m -19.28223,-0.58689 c 0.11835,-0.31993 0.16799,-0.58168 0.11031,-0.58168 -0.2183,0 -0.93641,0.84301 -0.93641,1.09928 0,0.46577 0.60181,0.0887 0.8261,-0.5176 z m 9.88952,0.47665 c 0.0899,-0.14552 0.0472,-0.26458 -0.095,-0.26458 -0.1422,0 -0.47665,-0.0818 -0.74322,-0.18183 -0.42664,-0.16007 -0.44119,-0.12839 -0.12153,0.26458 0.41285,0.50754 0.72226,0.56616 0.95979,0.18183 z m 8.33438,0 c 0,-0.14552 -0.18562,-0.26458 -0.41249,-0.26458 -0.22687,0 -0.33891,0.11906 -0.24897,0.26458 0.0899,0.14552 0.27555,0.26458 0.41249,0.26458 0.13693,0 0.24897,-0.11906 0.24897,-0.26458 z m -20.01704,-0.40829 c -0.0862,-0.22455 -0.21341,-0.35154 -0.28277,-0.28218 -0.0694,0.0694 -0.0476,0.25308 0.0483,0.40828 0.26089,0.42213 0.41338,0.34013 0.23447,-0.1261 z m 1.03202,-1.11803 c 0.19422,-0.23914 0.14052,-0.48167 -0.18668,-0.843221 -0.2578,-0.284871 -0.37196,-0.648858 -0.26022,-0.829668 0.12703,-0.205536 0.0885,-0.253803 -0.10637,-0.133349 -0.168,0.103833 -0.30546,0.757229 -0.30546,1.451988 0,1.28911 0.32049,2.05641 0.49149,1.1767 0.052,-0.26772 0.2173,-0.63782 0.36724,-0.82245 z m 28.1845,0.46799 c 0.52722,0 0.63376,-0.5233 0.19573,-0.96134 -0.23617,-0.23617 -0.39201,-0.739414 -0.3476,-1.122448 0.0655,-0.564685 0.21638,-0.692393 0.80811,-0.683911 0.79819,0.01144 0.95112,-0.421593 0.33073,-0.936472 -0.53043,-0.440219 -0.50535,-1.489258 0.0406,-1.698765 0.40095,-0.15386 0.40195,-0.19489 0.0119,-0.491328 -0.52728,-0.400758 -1.07532,-1.778656 -0.70743,-1.778656 0.33069,0 0.32603,-0.315892 -0.018,-1.220746 -0.27173,-0.7147 -0.28365,-0.718065 -0.76433,-0.215661 -0.42159,0.440651 -0.51333,1.160143 -0.67165,5.267312 -0.18006,4.671635 -0.17429,4.748745 0.32214,4.299475 0.27802,-0.2516 0.63792,-0.45746 0.79977,-0.45746 z m -26.26511,0.26458 c 0.0899,-0.14552 0.0374,-0.26458 -0.11668,-0.26458 -0.1541,0 -0.28019,0.11906 -0.28019,0.26458 0,0.14552 0.0525,0.26458 0.11667,0.26458 0.0642,0 0.19026,-0.11906 0.2802,-0.26458 z m 1.53471,-1.49736 c -0.2398,-0.624914 -0.53994,-0.379075 -0.40419,0.33106 0.0879,0.45979 0.19852,0.57669 0.33571,0.35472 0.11253,-0.18208 0.14335,-0.49068 0.0685,-0.68578 z m -4.92584,-0.13975 c -0.0845,-0.211067 -0.14716,-0.148372 -0.15986,0.15985 -0.0115,0.27892 0.0511,0.43519 0.13897,0.34727 0.0879,-0.0879 0.0973,-0.31612 0.0209,-0.50712 z m 4.18488,0.31419 c -0.0899,-0.14552 -0.27556,-0.264581 -0.41249,-0.264581 -0.13693,0 -0.24897,0.119061 -0.24897,0.264581 0,0.14552 0.18562,0.26459 0.41249,0.26459 0.22687,0 0.33891,-0.11907 0.24897,-0.26459 z m 9.35881,-1.031782 c 0.19964,-0.126462 0.3187,-0.353739 0.26459,-0.505059 -0.0564,-0.157583 -0.36526,-0.05762 -0.72302,0.233983 -0.62266,0.507507 -0.25655,0.723989 0.45843,0.271076 z m 2.77541,-0.15884 c -0.0838,-0.218282 -0.18635,-0.396875 -0.22797,-0.396875 -0.0416,0 -0.14421,0.178593 -0.22797,0.396875 -0.0918,0.239328 -0.001,0.396875 0.22797,0.396875 0.22931,0 0.31981,-0.157547 0.22797,-0.396875 z m 4.13766,0 c 0,-0.218282 -0.16402,-0.396875 -0.36448,-0.396875 -0.20047,0 -0.5127,0.178593 -0.69386,0.396875 -0.27854,0.335618 -0.22228,0.396875 0.36448,0.396875 0.44037,0 0.69386,-0.144989 0.69386,-0.396875 z m 1.05833,-0.132292 c -0.15576,-0.291042 -0.38693,-0.529167 -0.51371,-0.529167 -0.12677,0 -0.16823,0.238125 -0.0921,0.529167 0.0761,0.291042 0.30728,0.529167 0.51371,0.529167 0.29333,0 0.31346,-0.115595 0.0921,-0.529167 z m 3.70417,0 c 0,-0.452757 -0.18148,-0.531369 -1.25678,-0.544419 -1.79623,-0.0218 -3.0102,-0.868062 -3.12797,-2.180512 -0.11367,-1.266728 -0.40825,-1.778863 -0.64121,-1.114751 -0.24676,0.703481 0.33854,2.207151 1.11829,2.872926 0.36709,0.313434 0.73791,0.77824 0.82404,1.032902 0.12389,0.366292 0.46234,0.463021 1.62011,0.463021 1.28713,0 1.46352,-0.06378 1.46352,-0.529167 z m -20.10834,0.02831 c 0,-0.322328 -0.77881,-0.597934 -1.11045,-0.392968 -0.16872,0.104273 -0.13517,0.250994 0.09,0.393681 0.47029,0.297993 1.02043,0.297608 1.02043,-7.13e-4 z m 3.8971,0.07642 c -0.0879,-0.08792 -0.31613,-0.09732 -0.50712,-0.02089 -0.21107,0.08446 -0.14838,0.147157 0.15985,0.159852 0.27891,0.01149 0.43518,-0.05105 0.34727,-0.138964 z m -7.15922,-0.80922 c -0.0782,-0.07824 -0.28195,-0.05591 -0.45269,0.04961 -0.23017,0.142254 -0.21762,0.249524 0.0485,0.414891 0.35281,0.219199 0.69479,-0.173854 0.40415,-0.4645 z m 6.06804,0.394943 c 0.12561,-0.203252 0.0511,-0.255761 -0.21687,-0.152915 -0.39995,0.153475 -1.67119,-0.06853 -2.72134,-0.475243 -0.29104,-0.112717 -0.44873,-0.115455 -0.35042,-0.0061 0.23982,0.266795 2.08999,0.91764 2.64991,0.932174 0.24607,0.0064 0.5335,-0.127682 0.63872,-0.297933 z m 6.83021,-0.253872 c -0.25712,-0.416019 0.42477,-1.784309 0.97647,-1.959412 0.44626,-0.141636 0.4577,-0.203004 0.10384,-0.556864 -0.49873,-0.498725 -0.49992,-0.749022 -0.006,-1.242997 0.57045,-0.570454 0.79001,-3.055776 0.40992,-4.640171 -0.35498,-1.479746 -1.47494,-3.208063 -2.52446,-3.895729 -1.04103,-0.682112 -1.04411,-0.27999 -0.006,0.758314 1.18224,1.182241 1.26679,2.404788 0.24988,3.61331 -0.57219,0.680015 -0.87509,0.814051 -1.83963,0.814051 -1.67228,0 -3.02809,0.702252 -2.26561,1.17349 0.13027,0.08051 0.30513,-0.03152 0.38857,-0.248969 0.18406,-0.479658 1.3256,-0.52339 1.68694,-0.06463 0.14327,0.181901 0.33789,0.654856 0.43247,1.051011 0.0946,0.396154 0.40771,0.939892 0.69581,1.208305 0.37033,0.345014 0.54124,0.888037 0.58323,1.853073 0.0357,0.81945 0.19513,1.417136 0.39901,1.49537 0.18678,0.07168 0.33961,0.379209 0.33961,0.683406 0,0.307268 0.11951,0.479223 0.2689,0.386897 0.14789,-0.0914 0.19596,-0.284211 0.10681,-0.428459 z m 4.3747,0.181106 c 0.17451,-0.210271 0.27839,-0.656756 0.23084,-0.992187 -0.12322,-0.869207 -1.37261,-0.869207 -1.49583,0 -0.0839,0.591566 0.34216,1.374499 0.74791,1.374499 0.10989,0 0.34257,-0.17204 0.51708,-0.382312 z m 14.35251,-0.464355 c -0.24695,-0.246944 -0.3175,-0.176389 -0.3175,0.3175 0,0.493889 0.0705,0.564445 0.3175,0.3175 0.24694,-0.246944 0.24694,-0.388055 0,-0.635 z m -20.55813,0.3175 c 0.0899,-0.14552 -0.0151,-0.264583 -0.23335,-0.264583 -0.21828,0 -0.47046,0.119063 -0.5604,0.264583 -0.0899,0.145521 0.0151,0.264584 0.23335,0.264584 0.21829,0 0.47046,-0.119063 0.5604,-0.264584 z m -1.2725,-0.432838 c 0.19753,-0.514763 -0.21527,-1.256082 -0.75921,-1.363415 -0.42639,-0.08414 -0.99763,0.941124 -0.81653,1.465524 0.16685,0.48314 1.38136,0.404439 1.57574,-0.102109 z m 4.57979,-0.411268 c 0,-0.698201 -0.63733,-0.469011 -0.74583,0.26821 -0.0631,0.428981 0.0201,0.533185 0.33073,0.413989 0.22831,-0.08761 0.4151,-0.394599 0.4151,-0.682199 z m -7.31971,0.248794 c -0.11395,-0.181901 -0.28366,-0.86651 -0.37713,-1.521354 l -0.16995,-1.190625 -0.0354,1.009581 c -0.0326,0.929579 0.32082,2.033127 0.65104,2.033127 0.0762,0 0.0454,-0.148828 -0.0686,-0.330729 z m -1.41055,-4.7625 c 9e-4,-4.35891 0.0524,-4.912919 0.52917,-5.694936 0.2905,-0.47646 0.52818,-0.922945 0.52818,-0.992188 0,-0.06924 -0.76357,-0.125897 -1.69681,-0.125897 h -1.69681 l 0.28953,0.767054 c 0.15924,0.42188 0.41679,0.73905 0.57233,0.704822 0.15554,-0.03423 0.1935,-0.01229 0.0844,0.04874 -0.10914,0.06104 -0.19844,2.363242 -0.19844,5.116011 v 5.005035 h 0.79375 0.79375 l 9.8e-4,-4.828646 z m 2.37621,3.083716 c 0.004,-0.892264 -0.8003,-1.838393 -1.3697,-1.610402 -0.22878,0.0916 -0.19229,0.145634 0.10767,0.159444 0.66939,0.03082 1.07441,0.993066 0.88361,2.099268 -0.12058,0.699127 -0.092,0.855183 0.10402,0.567453 0.14869,-0.218281 0.27217,-0.765375 0.2744,-1.215763 z m 3.14267,0.718226 c -0.0576,-0.167707 -0.24156,-0.188771 -0.46054,-0.05273 -0.20054,0.124588 -0.2764,0.369271 -0.16857,0.543742 0.23185,0.37514 0.77973,-0.05247 0.62911,-0.49101 z m 11.87431,0.545364 c 0.21213,-0.134718 0.31269,-0.783958 0.2838,-1.832227 -0.0414,-1.502991 -0.0818,-1.603733 -0.5439,-1.356434 -0.34616,0.18526 -0.60996,0.175179 -0.86066,-0.03289 -0.28076,-0.23301 -0.42681,-0.178012 -0.65386,0.246223 -0.16079,0.300438 -0.52628,0.54625 -0.8122,0.54625 -0.36392,0 -0.51864,0.178568 -0.51581,0.595313 0.005,0.786059 0.23352,1.094604 1.18658,1.604593 0.88625,0.47424 1.42811,0.539049 1.91605,0.229172 z m 7.14042,0.0569 c -0.0879,-0.08792 -0.31613,-0.09732 -0.50712,-0.02089 -0.21107,0.08446 -0.14838,0.147157 0.15985,0.159853 0.27891,0.01149 0.43518,-0.05105 0.34727,-0.138965 z m -27.0047,-1.012988 c -0.0875,-0.228063 -0.28192,-0.41466 -0.43201,-0.41466 -0.3044,0 -0.37394,0.869085 -0.0921,1.150938 0.29046,0.290461 0.69826,-0.282429 0.5241,-0.736278 z m 16.81847,0.577528 c -0.14768,-0.181901 -0.32704,-0.568854 -0.39858,-0.859896 -0.10181,-0.414208 -0.13674,-0.375888 -0.16076,0.176389 -0.0259,0.594523 0.18173,0.877278 0.72931,0.993348 0.0542,0.01149 -0.0223,-0.12794 -0.16997,-0.309841 z m -18.05253,-0.198438 c 0,-0.14552 -0.12609,-0.264583 -0.2802,-0.264583 -0.15411,0 -0.20662,0.119063 -0.11668,0.264583 0.0899,0.145521 0.21603,0.264584 0.2802,0.264584 0.0642,0 0.11668,-0.119063 0.11668,-0.264584 z m 15.8803,-0.655064 c -0.37919,-0.456899 -1.21481,-0.536246 -1.46051,-0.138686 -0.0924,0.149439 0.12434,0.264584 0.49793,0.264584 0.36381,0 0.73994,0.126984 0.83586,0.282186 0.0959,0.155203 0.23898,0.217611 0.31791,0.138686 0.0789,-0.07893 -0.007,-0.324972 -0.19119,-0.54677 z m -7.41364,-0.535561 c 0,-0.478365 -0.14215,-0.661458 -0.51355,-0.661458 -0.74177,0 -0.97097,0.550392 -0.40234,0.96618 0.7035,0.514409 0.91589,0.443744 0.91589,-0.304722 z m 20.6375,0.110244 c 0,-0.644802 -0.61827,-0.55366 -0.747,0.110119 -0.0506,0.261081 0.0843,0.441096 0.33073,0.441096 0.24543,0 0.41627,-0.226218 0.41627,-0.551215 z m -29.20801,-1.492912 c -0.219,-0.218996 -0.95449,0.463643 -0.95449,0.885899 0,0.249826 0.1734,0.191085 0.55122,-0.186737 0.30317,-0.303169 0.48464,-0.617792 0.40327,-0.699162 z m 17.94059,0.321734 c 0.29352,-0.447956 0.32831,-0.641688 0.10692,-0.595313 -0.5461,0.114393 -0.95175,0.575014 -0.81658,0.927251 0.17229,0.448991 0.20933,0.431668 0.70966,-0.331938 z m 11.29855,-0.363146 c 0.56496,-0.564964 1.02255,-1.249573 1.01685,-1.521355 -0.007,-0.341499 -0.11859,-0.248948 -0.36073,0.299602 -0.40723,0.922585 -1.09,1.584369 -2.0156,1.953674 -0.51159,0.204116 -0.54723,0.265435 -0.16187,0.278514 0.27178,0.0092 0.95639,-0.445472 1.52135,-1.010435 z m -30.44124,-0.09727 c 0.40484,-0.400182 0.96878,-0.727604 1.2532,-0.727604 0.63207,0 1.00836,-0.424643 1.25813,-1.419807 0.17661,-0.703683 0.14637,-0.742036 -0.44175,-0.560314 -1.33452,0.412346 -2.05525,0.947317 -2.94525,2.18613 -0.82442,1.147533 -0.86589,1.281741 -0.39127,1.266381 0.29198,-0.0095 0.8621,-0.344603 1.26694,-0.744786 z m 2.58095,0.112876 c 0.0631,-0.428981 -0.0201,-0.533185 -0.33073,-0.413989 -0.49112,0.18846 -0.57339,1.257232 -0.0844,1.096188 0.1819,-0.05991 0.3687,-0.366895 0.41511,-0.682199 z m 5.81109,0.211849 c 0.28022,-0.448697 0.26625,-0.561254 -0.0864,-0.69659 -0.53968,-0.207095 -1.03156,0.279844 -0.82539,0.817102 0.21511,0.560571 0.51089,0.521478 0.91182,-0.120512 z m -9.34919,-1.713533 c 0.52168,-0.890173 0.95187,-1.250697 1.93021,-1.617611 1.23454,-0.462995 1.76565,-0.874946 1.48666,-1.153106 -0.0772,-0.07697 -1.053,-0.139954 -2.16843,-0.139954 h -2.02805 l 0.0196,1.719792 c 0.0124,1.089057 -0.12583,1.962382 -0.37694,2.38125 -0.36346,0.606279 -0.36057,0.631996 0.0346,0.308278 0.23711,-0.194249 0.73318,-0.868641 1.10239,-1.498649 z m 7.29018,0.528913 c 0,-0.346626 -0.11906,-0.703814 -0.26458,-0.79375 -0.15777,-0.09751 -0.26459,0.222943 -0.26459,0.79375 0,0.570806 0.10682,0.891255 0.26459,0.79375 0.14552,-0.08994 0.26458,-0.447125 0.26458,-0.79375 z m 23.80619,0.302421 c -0.003,-0.166332 -0.10867,-0.743004 -0.23377,-1.281495 -0.1848,-0.795488 -0.13902,-1.059097 0.24414,-1.40585 0.43725,-0.395709 0.50395,-0.382218 0.91626,0.185323 0.39571,0.544687 0.43484,0.554644 0.35531,0.09041 -0.0605,-0.352924 -0.51664,-0.675575 -1.41011,-0.99736 -1.29545,-0.466561 -1.30865,-0.466162 -0.68943,0.02081 0.41425,0.325774 0.52888,0.559782 0.33341,0.680589 -0.16865,0.104234 -0.74043,-0.281099 -1.31794,-0.888183 -0.57647,-0.606002 -1.26797,-1.072291 -1.59018,-1.072291 -0.70337,0 -0.70699,0.100901 -0.0361,1.008306 0.2937,0.397262 0.8299,1.434238 1.19154,2.30439 l 0.65754,1.582095 -0.13899,-1.190625 c -0.144,-1.23353 -0.002,-1.08211 0.66633,0.709811 0.20447,0.548331 0.44384,0.792284 0.68616,0.699297 0.20468,-0.07854 0.36931,-0.278896 0.36584,-0.445228 z m -7.66661,-0.0162 c 0,-0.06086 0.0723,-0.298983 0.1606,-0.529166 0.10218,-0.26626 0.0172,-0.418515 -0.23372,-0.418515 -0.21688,0 -0.4566,0.238125 -0.53271,0.529167 -0.0899,0.343922 -0.008,0.529167 0.23373,0.529167 0.20466,0 0.3721,-0.04979 0.3721,-0.110653 z m -15.61167,-1.13615 c -0.28829,-0.449603 -0.29575,-0.449026 -0.15101,0.01167 0.0837,0.266563 0.16167,0.623751 0.17315,0.79375 0.0151,0.223086 0.0571,0.219838 0.15102,-0.01167 0.0716,-0.176418 -0.006,-0.533606 -0.17316,-0.79375 z m 12.31138,0.504151 c -0.0815,-0.08146 -0.29495,-1.68e-4 -0.47443,0.180653 -0.25936,0.261307 -0.22897,0.291698 0.14811,0.148113 0.26094,-0.09936 0.40778,-0.247304 0.32632,-0.328766 z m 1.18363,-0.07941 c 0,-0.380371 -0.45909,-0.271375 -0.61968,0.147125 -0.0983,0.256254 -0.02,0.33461 0.23628,0.236276 0.21087,-0.08092 0.3834,-0.253449 0.3834,-0.383401 z m 0.94029,0.269837 c 0.0978,-0.1582 0.0612,-0.404194 -0.0813,-0.546652 -0.16896,-0.168964 -0.30871,-0.06896 -0.40197,0.287637 -0.15023,0.574487 0.17913,0.751033 0.48322,0.259015 z m -12.31738,-0.241529 c 0,-0.145521 -0.18562,-0.264584 -0.41249,-0.264584 -0.22687,0 -0.3389,0.119063 -0.24897,0.264584 0.0899,0.14552 0.27556,0.264583 0.41249,0.264583 0.13694,0 0.24897,-0.119063 0.24897,-0.264583 z m 7.69456,0 c 0.13362,0 0.24294,-0.127344 0.24294,-0.282986 0,-0.41125 -1.12676,-0.181848 -1.27215,0.259001 -0.0863,0.26172 0.0126,0.32088 0.33165,0.198438 0.25004,-0.09595 0.56394,-0.174453 0.69756,-0.174453 z m 14.26586,-0.79375 c 0,-0.436563 -0.11906,-0.79375 -0.26458,-0.79375 -0.14553,0 -0.26459,0.357187 -0.26459,0.79375 0,0.436562 0.11906,0.79375 0.26459,0.79375 0.14552,0 0.26458,-0.357188 0.26458,-0.79375 z m -9.45522,-0.186249 c -0.32542,-0.0628 -0.92073,-0.06443 -1.32291,-0.0036 -0.40219,0.06082 -0.13593,0.112199 0.59167,0.114185 0.7276,0.002 1.05666,-0.04777 0.73124,-0.110574 z m -2.71561,-0.351998 c 0.3439,-0.230112 0.32913,-0.317265 -0.11059,-0.652923 -0.3767,-0.287548 -0.59827,-0.311993 -0.85989,-0.09487 -0.86616,0.718848 0.008,1.392094 0.97048,0.74779 z m 3.96875,0.0091 c 0,-0.145521 -0.0525,-0.264583 -0.11668,-0.264583 -0.0642,0 -0.19026,0.119062 -0.2802,0.264583 -0.0899,0.145521 -0.0374,0.264583 0.11668,0.264583 0.15411,0 0.2802,-0.119062 0.2802,-0.264583 z m 3.74845,-1.119883 c -0.23544,-0.235434 -0.30461,-0.09185 -0.29096,0.603945 0.0168,0.857247 0.0356,0.876049 0.30886,0.308868 0.21514,-0.446555 0.21047,-0.684437 -0.0179,-0.912813 z m -18.97922,0.597265 c 0.37328,-0.141919 0.67868,-0.427928 0.67868,-0.635575 0,-0.207648 0.35719,-0.502057 0.79375,-0.654244 0.89006,-0.310277 1.09945,-1.30865 0.39676,-1.891826 -0.33545,-0.278402 -0.42267,-0.201093 -0.56263,0.498747 -0.19524,0.976165 -1.71185,2.409987 -2.55531,2.415818 -0.47544,0.0033 -0.51117,0.05248 -0.18923,0.260531 0.49886,0.322391 0.60597,0.322879 1.43798,0.0065 z m 9.61686,-0.277137 c 0.28022,-0.448696 0.26625,-0.561253 -0.0864,-0.69659 -0.55005,-0.211074 -0.97685,0.231587 -0.76232,0.790644 0.22292,0.580914 0.44242,0.55659 0.84875,-0.09405 z m 3.69103,0.09006 c 0.13762,-0.41816 -0.9681,-1.003079 -1.2892,-0.68198 -0.13467,0.134669 -0.16627,0.44965 -0.0702,0.699959 0.19357,0.504439 1.19183,0.491237 1.35941,-0.01798 z m 0.91305,-0.141386 c -0.18986,-0.189854 -0.31309,-0.205476 -0.31309,-0.03969 0,0.353161 0.3129,0.66606 0.48948,0.489479 0.0752,-0.07519 -0.004,-0.277592 -0.17639,-0.449792 z m -5.93549,-0.369639 c 0,-0.380352 0.14393,-0.780501 0.31984,-0.889221 0.23415,-0.144707 0.20756,-0.24076 -0.0992,-0.358481 -0.43124,-0.165482 -0.58895,-1.506322 -0.22063,-1.875756 0.10914,-0.10947 0.19844,-0.602697 0.19844,-1.096061 0,-0.843818 -0.0628,-0.906394 -1.05833,-1.054962 -0.58209,-0.08687 -1.59412,-0.119498 -2.24896,-0.07252 l -1.19063,0.08542 0.93612,0.58224 c 0.99817,0.620832 1.8433,1.928847 2.35903,3.651094 0.17431,0.582083 0.36367,1.207161 0.42081,1.389062 0.18639,0.59335 0.58352,0.347784 0.58352,-0.36082 z m 6.94532,0.03009 c 0,-0.218281 -0.17486,-0.396875 -0.38858,-0.396875 -0.23669,0 -0.32904,0.155122 -0.23627,0.396875 0.0838,0.218281 0.25862,0.396875 0.38857,0.396875 0.12995,0 0.23628,-0.178594 0.23628,-0.396875 z m -11.65098,-0.644064 c 0.15064,-0.281475 0.27389,-0.718584 0.27389,-0.971354 0,-0.487602 -0.72377,-1.42729 -1.09934,-1.42729 -0.12296,0 0.0145,0.238125 0.30559,0.529166 0.29104,0.291042 0.52917,0.685004 0.52917,0.875472 0,0.521365 -0.5947,1.180921 -1.19063,1.320474 -0.40072,0.09384 -0.35481,0.13137 0.18913,0.154612 0.4613,0.01971 0.81629,-0.152413 0.99219,-0.48108 z m -4.63973,-0.395104 c -0.0887,-0.353261 -0.035,-0.859276 0.1192,-1.124479 0.24016,-0.412968 0.28157,-0.36099 0.28846,0.362095 0.0145,1.519378 0.74467,1.372967 1.43632,-0.287999 0.23619,-0.567169 0.63652,-1.198816 0.88964,-1.403658 0.41621,-0.336834 0.40495,-0.345747 -0.11778,-0.09322 -0.39236,0.189546 -0.80151,0.194233 -1.27399,0.0146 -0.95234,-0.36208 -0.89155,-0.397822 -1.46244,0.859857 -0.62241,1.371205 -0.67139,2.315104 -0.12012,2.315104 0.29339,0 0.35839,-0.173426 0.24071,-0.642293 z m 14.96779,0.113126 c 0,-0.411574 -0.17639,-0.529166 -0.79375,-0.529166 -0.94196,0 -1.02421,0.289547 -0.19844,0.698523 0.87599,0.433844 0.99219,0.414009 0.99219,-0.169357 z M 186.5555,89.173047 c 0.54913,-0.147324 0.5538,-0.179809 0.13229,-0.920756 -0.24031,-0.422424 -0.51708,-0.768796 -0.61506,-0.769716 -0.098,-9.26e-4 -0.53176,-0.299227 -0.96397,-0.662905 -0.60316,-0.50753 -0.8185,-0.576092 -0.92638,-0.294958 -0.0773,0.201451 0.0347,0.61642 0.2488,0.922155 0.21415,0.305734 0.36965,0.706356 0.34557,0.89027 -0.13092,0.999783 0.34111,1.22161 1.77875,0.83591 z m 18.21766,-0.107013 c 0.32068,-0.518866 -0.15572,-1.320549 -0.78473,-1.320549 -0.66116,0 -1.01431,0.547755 -0.76762,1.190625 0.17122,0.446197 1.29857,0.54055 1.55235,0.129924 z m 4.09958,-0.526799 c 0,-0.529166 -0.13229,-0.79375 -0.39687,-0.79375 -0.41541,0 -0.50837,0.459928 -0.23628,1.168986 0.26517,0.691022 0.63315,0.472939 0.63315,-0.375236 z m -19.84375,0.256086 c 0,-0.996419 -1.29694,-2.901919 -1.97514,-2.901919 -0.57527,0 0.0839,2.047499 0.85432,2.65347 0.73416,0.577488 1.12082,0.663199 1.12082,0.248449 z m 26.27221,-0.269176 c -0.61169,-0.120832 -1.348,-0.345912 -1.63625,-0.500177 -0.63031,-0.33733 -0.82346,-0.352005 -0.82346,-0.06256 0,0.28134 1.75299,0.772248 2.77813,0.777989 0.61736,0.0035 0.5466,-0.04438 -0.31842,-0.215249 z m 1.13147,-0.453982 c 0.15613,-0.106912 0.36373,-0.37298 0.46133,-0.591261 0.0976,-0.218281 0.32617,-0.604823 0.50794,-0.858981 0.26456,-0.369929 0.26369,-0.56906 -0.004,-0.998282 -0.2471,-0.395673 -0.26008,-0.675861 -0.0496,-1.069242 0.1569,-0.293186 0.21378,-0.758369 0.12638,-1.033739 -0.13611,-0.428837 -0.36371,-0.485105 -1.58631,-0.392164 -0.78507,0.05968 -1.52383,0.129789 -1.64169,0.155797 -0.11786,0.02601 -0.43466,-0.0485 -0.70401,-0.165563 -0.5614,-0.244007 -0.95508,0.203424 -0.96143,1.092721 -0.007,1.048922 -1.30848,0.915483 -1.65872,-0.17013 -0.0914,-0.283414 -0.22667,-0.186812 -0.47305,0.337906 -0.49128,1.046296 -0.13446,1.259899 2.21412,1.325405 1.11374,0.03106 2.02618,0.139046 2.02762,0.239959 0.001,0.100914 -0.35454,0.394475 -0.79111,0.652359 -0.43656,0.257884 -0.79375,0.577948 -0.79375,0.711254 0,0.414805 2.05169,-0.0096 2.87273,-0.594211 1.08969,-0.77593 1.66646,-0.695658 0.69915,0.0973 -0.43656,0.357874 -1.21047,0.736059 -1.71979,0.840411 -0.88572,0.181468 -0.89724,0.198014 -0.26459,0.379964 0.90186,0.259374 1.40242,0.271029 1.73909,0.04049 z m -3.59118,-2.675531 c 0,-0.448733 0.72731,-0.827243 2.08389,-1.084513 0.75346,-0.142892 1.60486,-0.385529 1.89198,-0.539194 0.28713,-0.153665 0.52205,-0.184779 0.52205,-0.06914 0,0.351798 -0.93571,0.820402 -2.01795,1.010593 -0.56362,0.09905 -1.28846,0.345318 -1.61076,0.547266 -0.6812,0.426825 -0.86921,0.456023 -0.86921,0.134991 z m -5.42396,1.95835 c 0,-0.688631 -1.37425,-1.226913 -1.7169,-0.672495 -0.13496,0.218364 -0.12112,0.577489 0.0334,0.866162 0.36711,0.685954 1.68353,0.534518 1.68353,-0.193667 z m -9.3927,0.299219 c 0,-0.05021 -0.26789,-0.318097 -0.59532,-0.595313 l -0.59531,-0.504028 0.50403,0.595313 c 0.47366,0.559447 0.6866,0.715762 0.6866,0.504028 z m 7.12515,-1.43007 c 0.0248,-0.440498 -0.29724,-0.417422 -0.92302,0.06615 -0.50792,0.392494 -0.50782,0.401335 0.01,0.8008 0.47477,0.366513 0.54044,0.360387 0.70901,-0.06615 0.10217,-0.258539 0.19414,-0.618899 0.20437,-0.8008 z m 2.97752,0.405695 c -0.18986,-0.189855 -0.31309,-0.205477 -0.31309,-0.03969 0,0.353161 0.3129,0.66606 0.48948,0.489479 0.0752,-0.07519 -0.004,-0.277592 -0.17639,-0.449791 z m -22.00892,-0.740309 c 0,-0.55458 -0.28866,-1.098791 -0.9473,-1.785938 l -0.9473,-0.988302 0.19226,0.79375 c 0.10575,0.436563 0.20461,1.071265 0.2197,1.41045 0.0253,0.569041 0.7661,1.367675 1.26862,1.367675 0.11771,0 0.21402,-0.358936 0.21402,-0.797635 z m 18.1021,-0.560642 c -0.2722,-0.440426 -1.16877,-0.244164 -1.16877,0.255846 0,0.266789 0.0796,0.564705 0.17697,0.662036 0.23768,0.237684 1.17173,-0.62675 0.9918,-0.917882 z m -8.7094,0.564527 c 0.19341,-0.312945 -0.0655,-0.312945 -0.79375,0 -0.51017,0.219231 -0.50836,0.228058 0.0505,0.245987 0.31883,0.01023 0.65328,-0.100466 0.74321,-0.245987 z m 13.98631,-0.661458 c -0.18291,-0.476641 -0.16793,-0.475742 -1.46254,-0.08787 -0.78643,0.235621 -1.10476,0.235621 -1.34038,0 -0.23562,-0.235622 -0.11995,-0.309008 0.48709,-0.309008 0.43785,0 1.02721,-0.170829 1.30968,-0.379621 0.49055,-0.362583 0.47204,-0.396596 -0.41245,-0.75788 -0.50932,-0.208043 -1.34276,-0.456246 -1.85208,-0.551563 l -0.92604,-0.173302 0.77158,0.718086 c 0.4481,0.417032 0.64222,0.761207 0.46302,0.82094 -0.16971,0.05657 -0.30856,0.331057 -0.30856,0.609972 0,0.447504 0.20119,0.507118 1.71149,0.507118 1.41262,0 1.68489,-0.0693 1.55919,-0.396875 z m -17.87571,-0.317572 c 0.13438,-0.261898 0.32942,-0.833366 0.43342,-1.269928 l 0.1891,-0.79375 -0.76229,0.727604 c -0.90851,0.867184 -1.10904,0.884135 -2.4381,0.206099 l -1.02223,-0.521504 -0.68702,0.900726 c -0.37786,0.495399 -0.68702,0.946828 -0.68702,1.003175 0,0.05635 1.06421,0.129743 2.3649,0.163102 2.0473,0.05251 2.39772,-0.0033 2.60924,-0.415524 z m 1.37586,0.200895 c 0,-0.136933 -0.10788,-0.315645 -0.23974,-0.397138 -0.13186,-0.08149 -0.17381,-0.415943 -0.0932,-0.74322 0.208,-0.84472 -0.0627,-0.493174 -0.40773,0.529431 -0.26151,0.775134 -0.2393,0.859895 0.2253,0.859895 0.28347,0 0.5154,-0.112035 0.5154,-0.248968 z m 12.43137,-0.08176 c -0.002,-0.181901 -0.10641,-0.492268 -0.23151,-0.689706 -0.29069,-0.458763 -0.67358,0.07354 -0.45765,0.636231 0.18044,0.470223 0.69475,0.510131 0.68916,0.05347 z M 194.32066,84.83507 c 0.21828,-0.141064 0.27781,-0.25648 0.13229,-0.25648 -0.14552,0 -0.44318,0.115416 -0.66146,0.25648 -0.21828,0.141064 -0.27781,0.25648 -0.13229,0.25648 0.14552,0 0.44318,-0.115416 0.66146,-0.25648 z m 2.18281,-0.451309 c -0.32742,-0.06306 -0.8632,-0.06306 -1.19062,0 -0.32742,0.06306 -0.0595,0.114663 0.59531,0.114663 0.65484,0 0.92273,-0.0516 0.59531,-0.114663 z m -9.12057,-1.092689 c 0.0643,-0.192889 -0.22708,-0.309436 -0.77925,-0.311698 -0.48507,-0.002 -1.1796,-0.07139 -1.54341,-0.154219 -0.60841,-0.138527 -0.58719,-0.08639 0.26459,0.650025 0.80618,0.697006 0.99265,0.756842 1.4407,0.462304 0.28307,-0.18608 0.56088,-0.476965 0.61737,-0.646412 z m 8.59141,0.597935 c 0.85007,-0.11658 1.25677,-0.07701 1.25677,0.122271 0,0.398539 5.19209,0.405211 5.4382,0.007 0.42465,-0.687093 -0.46075,-0.883813 -3.65637,-0.812383 -1.78037,0.0398 -3.5347,0.10635 -3.8985,0.147899 -0.3638,0.04155 -0.92935,0.09418 -1.25677,0.116958 -0.34861,0.02425 -0.59531,0.214595 -0.59531,0.459311 0,0.314237 0.18048,0.382353 0.7276,0.274604 0.40018,-0.07881 1.29315,-0.220852 1.98438,-0.315648 z m 14.26666,-0.02099 c 0.71718,-0.649038 0.61171,-0.750897 -0.79857,-0.771207 l -1.28205,-0.01846 0.68693,0.605414 c 0.83048,0.731943 0.79385,0.727101 1.39369,0.184255 z m -5.86614,-0.355868 c 0,-0.293981 -0.17639,-0.529166 -0.39688,-0.529166 -0.22049,0 -0.39687,0.235185 -0.39687,0.529166 0,0.293982 0.17638,0.529167 0.39687,0.529167 0.22049,0 0.39688,-0.235185 0.39688,-0.529167 z m 7.58907,-0.04961 c -0.0845,-0.211067 -0.14716,-0.148372 -0.15985,0.159852 -0.0115,0.278915 0.051,0.435185 0.13896,0.347266 0.0879,-0.08792 0.0973,-0.316122 0.0209,-0.507118 z m -16.87154,-0.649854 c 0.0606,-0.05186 -0.25976,-0.09429 -0.71199,-0.09429 -0.45223,0 -0.89471,0.11727 -0.98329,0.260599 -0.14601,0.236247 1.40218,0.08436 1.69528,-0.166312 z m 3.40248,-0.286611 c -0.54186,-0.05685 -1.49436,-0.05764 -2.11667,-0.0017 -0.62231,0.05589 -0.17897,0.102407 0.9852,0.103368 1.16416,9.53e-4 1.67333,-0.04477 1.13147,-0.101622 z m 2.247,0.01877 c -0.17913,-0.07247 -0.53632,-0.07689 -0.79375,-0.0098 -0.25743,0.06708 -0.11087,0.12638 0.32569,0.131772 0.43657,0.0054 0.64719,-0.04949 0.46806,-0.12197 z m 16.26684,35.180746 c -0.25466,-0.0666 -0.46302,-0.22542 -0.46302,-0.35303 0,-0.12763 0.20836,-0.36393 0.46302,-0.52513 0.32917,-0.20836 0.36803,-0.33306 0.13441,-0.43136 -0.24434,-0.10282 -0.25591,-0.27413 -0.0452,-0.66796 0.27321,-0.51048 0.29678,-0.5121 0.65093,-0.0448 0.46703,0.61626 0.50645,2.216 0.0536,2.17397 -0.1819,-0.0169 -0.53909,-0.0851 -0.79375,-0.15169 z"
       id="path999" />
  </g>
</svg>
