<?xml version="1.0" encoding="UTF-8" standalone="no"?>
<!-- Created with Inkscape (http://www.inkscape.org/) -->

<svg
   width="55.355522mm"
   height="54.991665mm"
   viewBox="0 0 55.355527 54.991664"
   version="1.1"
   id="svg5"
   inkscape:version="1.1 (c4e8f9ed74, 2021-05-24)"
   sodipodi:docname="ornateo6.svg"
   xmlns:inkscape="http://www.inkscape.org/namespaces/inkscape"
   xmlns:sodipodi="http://sodipodi.sourceforge.net/DTD/sodipodi-0.dtd"
   xmlns="http://www.w3.org/2000/svg"
   xmlns:svg="http://www.w3.org/2000/svg">
  <sodipodi:namedview
     id="namedview7"
     pagecolor="#ffffff"
     bordercolor="#666666"
     borderopacity="1.0"
     inkscape:pageshadow="2"
     inkscape:pageopacity="0.0"
     inkscape:pagecheckerboard="0"
     inkscape:document-units="mm"
     showgrid="false"
     inkscape:zoom="0.66903058"
     inkscape:cx="38.114849"
     inkscape:cy="-12.70495"
     inkscape:window-width="2506"
     inkscape:window-height="1403"
     inkscape:window-x="1974"
     inkscape:window-y="0"
     inkscape:window-maximized="1"
     inkscape:current-layer="layer1" />
  <defs
     id="defs2" />
  <g
     inkscape:label="Layer 1"
     inkscape:groupmode="layer"
     id="layer1"
     transform="translate(-94.845627,-174.34855)">
    <path
       style="fill:#000000;stroke-width:0.496513"
       d="m 140.474,228.08705 c -1.4942,-1.49421 -1.46569,-1.49189 -3.04671,-0.24826 -1.31147,1.03161 -3.83572,1.3381 -4.33723,0.52664 -0.6194,-1.00221 0.41283,-4.71594 1.62237,-5.8369 1.61267,-1.49457 0.67242,-1.45282 -2.40533,0.10679 -1.35802,0.68816 -3.47319,1.38882 -4.70038,1.55703 -1.22718,0.1682 -2.23124,0.4542 -2.23124,0.63554 0,1.34145 3.22992,2.06495 4.32588,0.96899 1.16529,-1.16529 1.70301,-0.16797 0.63885,1.18489 -0.92093,1.17076 -1.42149,1.35353 -3.70697,1.35353 -2.22775,0 -2.8831,-0.22496 -4.17734,-1.43396 -0.84428,-0.78867 -2.07602,-1.56973 -2.73721,-1.73567 -0.66118,-0.16595 -1.55805,-0.4383 -1.99304,-0.60522 -0.56309,-0.21608 -0.7909,-0.0138 -0.7909,0.70216 0,1.30278 -2.84424,3.07269 -4.9378,3.07269 -1.11348,0 -2.0485,-0.45524 -3.10505,-1.51179 -1.44907,-1.44907 -1.55141,-1.47594 -2.46677,-0.64754 -0.52524,0.47533 -1.5963,0.90864 -2.38012,0.96291 -0.78383,0.0543 -2.25048,0.37105 -3.25922,0.70396 -1.617173,0.53372 -1.989143,0.49059 -3.145213,-0.36467 -1.91939,-1.41996 -2.79101,-3.43768 -2.12061,-4.90903 0.29696,-0.65177 0.90722,-1.18502 1.35614,-1.18502 0.65831,0 0.70013,0.13987 0.21616,0.72302 -0.74554,0.89832 -0.26576,1.75954 0.98022,1.75954 0.61444,0 1.69183,-1.15997 3.112853,-3.35146 3.00465,-4.63374 3.37451,-4.88336 5.00152,-3.3755 1.39963,1.29713 1.65151,2.06313 0.77453,2.35546 -0.35593,0.11864 -0.40862,0.85101 -0.1548,2.15156 l 0.38481,1.97169 0.42735,-2.08528 c 0.31613,-1.54257 0.61871,-2.01185 1.16262,-1.80312 0.4044,0.15518 0.63358,0.64669 0.50929,1.09224 -0.91851,3.29264 -0.86571,4.0135 0.38567,5.26488 0.76706,0.76706 1.79485,1.245 2.6431,1.22909 l 1.38799,-0.0261 -1.11716,-0.77928 c -0.83252,-0.58074 -1.11715,-1.26989 -1.11715,-2.70479 0,-1.05902 -0.22344,-1.92549 -0.49652,-1.92549 -0.27308,0 -0.49651,-0.21304 -0.49651,-0.47342 0,-0.26038 0.61443,-0.15454 1.36541,0.2352 3.96403,2.05724 5.25057,2.36854 9.96215,2.41052 6.00247,0.0535 9.86743,-1.23661 13.50627,-4.50824 3.95812,-3.55869 6.88315,-10.69534 6.92534,-16.89683 0.0179,-2.62719 -0.72587,-6.60852 -1.5305,-8.19286 -0.24083,-0.47419 -0.43786,-1.17488 -0.43786,-1.55709 0,-1.35279 -4.09508,-6.80315 -6.19916,-8.25079 -7.4425,-5.12057 -18.26065,-4.97006 -26.219,0.36479 -2.76043,1.85044 -6.01659,6.88741 -7.01066,10.84479 -1.394203,5.55035 -0.892043,10.61186 1.61516,16.2798 0.63856,1.44356 0.80028,2.19279 0.40196,1.86222 -0.36655,-0.30421 -1.07297,-1.4546 -1.56982,-2.55643 l -0.90338,-2.00333 -1.407633,1.34859 c -1.58179,1.51545 -1.87645,3.81614 -0.69321,5.41241 0.68959,0.93029 0.74569,0.93253 1.61367,0.0645 0.851193,-0.85119 0.853233,-0.93341 0.0381,-1.53864 -0.47365,-0.35166 -0.71521,-0.78535 -0.5368,-0.96376 0.49516,-0.49516 2.142763,1.20349 2.142763,2.20916 0,0.48835 -0.48018,1.22424 -1.06706,1.63531 -0.948153,0.66411 -1.227163,0.6646 -2.503903,0.004 -1.75368,-0.90686 -2.49898,-2.66981 -2.44554,-5.78472 0.0223,-1.29714 -0.16733,-2.35844 -0.42129,-2.35844 -0.87323,0 0.60153,-3.06788 2.28313,-4.74948 0.91965,-0.91965 1.67209,-2.03502 1.67209,-2.47861 0,-0.44359 -0.78201,-1.72012 -1.7378,-2.83675 -1.46834,-1.71542 -1.7378,-2.40378 -1.7378,-4.43936 0,-4.21951 2.05318,-7.34239 4.827363,-7.34239 1.48519,0 1.42792,0.31708 -0.35873,1.98606 -0.819253,0.76529 -1.482443,1.80451 -1.473753,2.30939 0.0155,0.90161 1.32496,3.03499 1.607823,2.6195 0.0794,-0.11661 0.79091,-1.60395 1.58118,-3.30521 0.79026,-1.70126 2.06821,-3.69808 2.83987,-4.43739 1.78142,-1.7067 1.78037,-2.3132 -0.003,-1.92144 -2.10807,0.46301 -5.533923,-0.48993 -6.987703,-1.9437 -1.88891,-1.88889 -1.83709,-5.34763 0.10514,-7.01826 1.56916,-1.34974 5.806353,-1.75699 5.806353,-0.55808 0,0.37215 -0.57171,0.63202 -1.36541,0.62064 -1.1891,-0.017 -1.36541,0.1719 -1.36541,1.46317 0,2.29094 1.39054,2.14883 4.2654,-0.43591 2.95123,-2.65342 5.17969,-3.28809 7.10826,-2.02444 1.57538,1.03223 2.01902,2.52897 1.30571,4.40513 -0.47545,1.25052 -0.43804,1.36378 0.34485,1.04393 1.87516,-0.76612 4.46219,-1.39373 6.94541,-1.68495 2.15054,-0.2522 2.50971,-0.4307 2.11018,-1.04871 -0.4226,-0.65369 -0.53889,-0.65545 -0.95099,-0.0144 -0.7125,1.10837 -1.18233,0.25235 -0.53024,-0.96608 0.74797,-1.3976 2.20069,-1.09329 2.38731,0.50008 0.12332,1.05288 0.5367,1.34167 2.63345,1.83973 3.68385,0.87508 8.52363,3.42655 10.9994,5.79875 4.21808,4.04163 6.28794,8.05446 7.33493,14.22018 0.49667,2.92494 0.70011,3.31114 2.00329,3.80304 2.38361,0.89971 3.34536,5.59721 1.64344,8.02705 -0.94859,1.3543 -3.86584,2.69612 -5.06082,2.32777 -0.8865,-0.27326 -3.23835,2.51258 -2.76616,3.2766 0.13998,0.2265 1.19223,0.41182 2.33832,0.41182 1.8587,0 2.15839,0.1685 2.77429,1.55992 0.60749,1.37242 0.58465,1.85426 -0.18999,4.00847 -0.61998,1.7241 -0.72484,2.60419 -0.3544,2.97463 0.94546,0.94546 2.08236,0.0246 2.08236,-1.68659 v -1.61546 l 1.04936,1.04936 c 0.92281,0.9228 0.98221,1.25281 0.49257,2.73643 -1.09227,3.30963 -5.88514,4.54964 -8.29,2.14479 z m 5.75191,-0.12413 c -0.001,-0.20481 -0.65358,-0.74241 -1.44855,-1.19467 -1.332,-0.75776 -1.42422,-0.9915 -1.17541,-2.97908 0.14849,-1.18624 0.43201,-2.33587 0.63004,-2.55475 0.49762,-0.55 9.9e-4,-2.88179 -0.54229,-2.54604 -0.24185,0.14948 -0.43973,0.0352 -0.43973,-0.25404 0,-0.8738 -1.71009,-0.59038 -2.58199,0.42793 -1.21014,1.41335 -1.98688,3.01836 -1.46071,3.01836 0.25347,0 0.58802,-0.33138 0.74344,-0.7364 0.16583,-0.43214 0.6092,-0.61107 1.07308,-0.43306 0.6913,0.26528 0.66251,0.43959 -0.22945,1.38905 -2.34969,2.50112 -0.21092,6.23325 3.57278,6.23448 1.02406,3.3e-4 1.86051,-0.16697 1.85879,-0.37178 z m -19.25588,-0.91797 c -0.89804,-0.39279 -1.74688,-1.01146 -1.88632,-1.37483 -0.23006,-0.59952 -3.18382,-1.06814 -3.18382,-0.50513 0,0.13137 0.59605,0.75156 1.32455,1.3782 0.8869,0.76287 1.9943,1.15199 3.35147,1.17762 l 2.02691,0.0383 z m 9.80153,-0.0801 c 1.43247,-1.15994 2.0578,-5.08419 0.81017,-5.08419 -1.40424,0 -3.26901,2.44882 -3.26901,4.29287 0,1.89879 0.78084,2.15008 2.45884,0.79132 z m -38.207803,-0.61557 c 0,-0.27308 -0.23662,-0.49651 -0.52582,-0.49651 -0.2892,0 -0.38773,0.22343 -0.21895,0.49651 0.16877,0.27308 0.40539,0.49651 0.52581,0.49651 0.12043,0 0.21896,-0.22343 0.21896,-0.49651 z m 3.475593,-0.91027 c 0,-0.94851 -0.25444,-1.40679 -0.78104,-1.40679 -0.49182,0 -0.69899,0.31376 -0.55946,0.84733 0.16432,0.62833 -0.0188,0.78447 -0.708503,0.60411 -0.62585,-0.16367 -0.93008,0.0193 -0.93008,0.55946 0,0.56085 0.44875,0.80267 1.489543,0.80267 1.30456,0 1.48954,-0.17469 1.48954,-1.40678 z m 4.01964,-0.38828 c 0.57588,-0.6939 0.53941,-0.77758 -0.27045,-0.62064 -0.51484,0.0998 -1.02907,0.46068 -1.14273,0.80204 -0.29491,0.88572 0.62561,0.76757 1.41318,-0.1814 z m 9.10112,-0.0258 c 0.38522,-1.00387 -0.0312,-1.42556 -1.82508,-1.84838 -1.53898,-0.36273 -1.54731,-0.34947 -0.88119,1.40257 0.55154,1.45064 2.2155,1.72475 2.70627,0.44581 z m -12.79193,-3.26843 c -0.13774,-0.34135 -0.25043,-0.0621 -0.25043,0.62064 0,0.68271 0.11269,0.962 0.25043,0.62065 0.13774,-0.34136 0.13774,-0.89994 0,-1.24129 z m 2.98432,-1.10175 c 0.7253,-2.09496 0.47589,-3.12414 -0.29193,-1.20464 l -0.47571,1.18924 -0.0665,-1.24129 c -0.0568,-1.06064 -0.16886,-0.96197 -0.7701,0.67799 -0.38701,1.0556 -0.57422,2.12869 -0.41603,2.38465 0.53062,0.85856 1.35194,0.12436 2.02023,-1.80595 z m 33.3355,-0.93796 c 0.23964,-0.31184 0.58426,-0.98188 0.76583,-1.48897 0.25498,-0.71212 -0.0584,-0.59911 -1.37662,0.49652 -0.93871,0.78017 -1.72287,1.56515 -1.74258,1.74439 -0.0551,0.50082 1.8612,-0.11147 2.35337,-0.75194 z m -41.117273,-8.4242 c 0,-0.25739 0.58292,-0.96886 1.29537,-1.58106 1.147023,-0.9856 1.255753,-1.34762 0.94939,-3.16097 -0.1903,-1.12635 -0.54463,-2.0479 -0.78742,-2.0479 -0.75024,0 -1.99299,2.29938 -1.68148,3.11115 0.1622,0.42268 -0.0562,1.80256 -0.48525,3.06639 -0.42908,1.26384 -0.77305,2.45766 -0.76436,2.65293 0.0231,0.52017 1.47375,-1.48833 1.47375,-2.04054 z m 47.379583,0.70346 c -0.1112,-0.11142 0.0336,-0.48667 0.32177,-0.8339 0.8212,-0.98949 1.0159,-5.53761 0.24964,-5.83165 -0.44184,-0.16955 -0.83808,0.63348 -1.26608,2.5659 -0.34263,1.54697 -0.81584,3.17974 -1.05157,3.62837 -0.34414,0.65495 -0.1944,0.80171 0.75992,0.74477 0.65368,-0.039 1.09753,-0.16208 0.98632,-0.27349 z m 2.75081,-1.00607 c 0.63289,-1.18258 0.68379,-5.99081 0.0634,-5.99081 -0.24781,0 -0.54188,1.17302 -0.65349,2.6067 -0.11161,1.43368 -0.37962,2.9977 -0.59559,3.47559 -0.54563,1.20742 0.53513,1.12403 1.18566,-0.0915 z m -0.47905,-6.8245 c 0,-0.0684 -0.44686,-0.36355 -0.99302,-0.65585 -0.76007,-0.40677 -0.99303,-0.37759 -0.99303,0.1244 0,0.36071 0.44686,0.65584 0.99303,0.65584 0.54616,0 0.99302,-0.056 0.99302,-0.12439 z m -47.665973,-6.17419 c 0.43979,-1.5893 0.42218,-1.62687 -0.32253,-0.68807 -0.76204,0.96065 -0.7775,0.94894 -0.47437,-0.35916 0.26143,-1.12815 0.17465,-1.29896 -0.52376,-1.03096 -0.60173,0.23091 -0.7586,0.11663 -0.55789,-0.40641 0.15357,-0.4002 -0.0106,-1.12405 -0.36492,-1.60856 -0.56421,-0.7716 -0.6278,-0.6458 -0.51251,1.01383 0.13847,1.9932 0.59804,3.45913 1.41495,4.51344 0.6181,0.79771 0.76772,0.6377 1.34103,-1.43411 z m 2.979763,-14.99151 c 0,0.64927 1.81742,1.17938 2.77872,0.81049 0.38328,-0.14708 0.69688,-0.57165 0.69688,-0.94348 0,-0.39763 0.30742,-0.5581 0.74643,-0.38964 0.52889,0.20296 0.83101,-0.13647 1.03665,-1.16467 0.3207,-1.60347 2.02513,-2.99102 2.76512,-2.25103 0.28102,0.28102 0.16204,0.70549 -0.30679,1.09459 -0.79713,0.66156 -1.05151,2.00352 -0.37978,2.00352 0.21232,0 0.85065,-0.32543 1.41851,-0.72318 1.50612,-1.05492 1.35868,-4.24622 -0.2328,-5.03913 -1.23814,-0.61687 -3.06129,-0.38588 -3.06129,0.38787 0,0.25735 -0.22501,0.32884 -0.50002,0.15888 -0.27501,-0.16997 -0.63406,0.0403 -0.79789,0.46721 -0.16383,0.42693 -0.58119,0.77624 -0.92746,0.77624 -0.34627,0 -0.79011,0.72615 -0.98632,1.61367 -0.19621,0.88751 -0.4693,1.32505 -0.60686,0.9723 -0.19208,-0.49254 -0.41174,-0.50723 -0.94661,-0.0633 -0.38307,0.31792 -0.7044,0.3831 -0.71408,0.14485 -0.01,-0.23825 -0.35415,0.1254 -0.76548,0.8081 -0.69072,1.14641 -0.72477,1.15589 -0.44546,0.12413 0.43111,-1.59251 -0.56977,-1.38662 -1.20681,0.24826 -0.509963,1.30871 -0.521213,1.29324 -0.270943,-0.37239 0.260903,-1.73638 0.260513,-1.73679 -0.48476,-0.49651 -1.01552,1.69002 -0.98045,1.83309 0.58435,2.38407 1.064083,0.37468 1.502383,0.30808 1.986053,-0.30177 0.34135,-0.43041 0.62064,-0.54248 0.62064,-0.24905 z m 3.01828,-3.61242 c 0.0238,-0.57841 0.14148,-0.69607 0.29998,-0.29998 0.14343,0.35842 0.12579,0.78666 -0.0392,0.95165 -0.16499,0.16499 -0.28234,-0.12827 -0.26078,-0.65167 z m -6.689453,1.0344 c 0.66447,-2.12293 0.47111,-2.2213 -0.53644,-0.27291 -0.85321,1.64993 -0.92185,2.01071 -0.3825,2.01071 0.20626,0 0.61979,-0.78201 0.91894,-1.7378 z m -0.58854,-2.23431 0.32903,-1.24129 -0.74789,1.24129 c -0.41134,0.6827 -0.74901,1.57643 -0.75038,1.98605 -0.002,0.66202 0.0443,0.66202 0.41886,0 0.23174,-0.40962 0.56942,-1.30335 0.75038,-1.98605 z m 17.944573,43.90011 c -2.50161,-0.9162 -5.92723,-3.58377 -7.41213,-5.77189 -2.84189,-4.18776 -4.14974,-11.07176 -3.2948,-17.34259 0.31136,-2.28384 0.76413,-4.59929 1.00615,-5.14546 0.24202,-0.54616 0.75574,-1.77503 1.14159,-2.73082 1.5068,-3.73238 7.82073,-9.03491 9.8903,-8.30602 0.34331,0.12092 -0.1578,0.5603 -1.11359,0.97641 -2.07621,0.90388 -4.65135,3.37082 -5.68816,5.44914 -0.92842,1.86106 -2.09387,6.69278 -2.48956,10.3212 -0.2655,2.43455 -0.18164,2.8027 0.77293,3.39333 0.97249,0.60173 1.24329,0.49403 2.95112,-1.17363 1.66281,-1.62368 2.11544,-1.81373 3.9118,-1.64242 1.11728,0.10655 2.03141,0.12087 2.03141,0.0318 0,-0.0891 -0.35136,-0.84136 -0.7808,-1.67182 -0.53929,-1.04286 -0.67937,-2.11031 -0.45288,-3.45093 0.20037,-1.18597 0.13401,-1.94103 -0.17058,-1.94103 -0.78548,0 -4.5539,-3.70457 -4.5539,-4.47673 0,-0.38234 0.96317,0.25012 2.14037,1.40546 2.1319,2.0923 2.82476,2.22069 2.82476,0.52342 0,-1.02967 -1.73712,-2.12254 -2.75372,-1.73243 -1.22921,0.47169 -1.22003,-0.51021 0.0156,-1.67105 1.02344,-0.96148 1.58526,-1.09385 3.75696,-0.88517 2.5347,0.24355 2.55163,0.23578 2.29166,-1.05182 -0.14405,-0.71345 -0.41034,-1.74404 -0.59177,-2.2902 -0.23879,-0.71887 -0.19699,-0.80705 0.15142,-0.31938 0.3365,0.47099 0.58346,0.50833 0.82091,0.12413 0.51299,-0.83004 2.01367,-0.65947 2.90977,0.33071 0.54501,0.60223 0.65013,1.11189 0.33282,1.61367 -0.96724,1.52957 -0.49271,1.78784 3.2284,1.7571 3.24386,-0.0268 3.84914,0.1134 4.84101,1.12139 l 1.1336,1.15203 -1.7378,-0.29366 c -0.95578,-0.1615 -1.96122,-0.12134 -2.23431,0.0893 -0.73917,0.57004 -1.73779,2.49814 -1.73779,3.35525 0,1.10189 0.92813,0.92178 3.83203,-0.74363 1.80028,-1.03247 2.50366,-1.71277 2.30532,-2.22965 -0.43278,-1.12782 0.20451,-0.88934 0.85087,0.3184 0.69539,1.29935 1.4674,3.9029 1.1573,3.9029 -0.12424,0 -0.44718,-0.58205 -0.71765,-1.29344 -0.48748,-1.28215 -0.50354,-1.28574 -1.83924,-0.41056 -0.7411,0.4856 -2.23433,1.14476 -3.31829,1.46481 -3.58605,1.05884 -2.46302,2.19606 2.19828,2.22607 1.22887,0.008 2.5694,0.22621 2.97896,0.48511 0.53802,0.3401 0.83833,0.23466 1.08226,-0.37999 0.26686,-0.67245 0.34492,-0.60332 0.3725,0.3299 0.0322,1.09023 -0.10764,1.15776 -1.82703,0.8821 -1.02406,-0.16418 -2.64393,-0.41358 -3.59972,-0.55422 -1.70031,-0.2502 -1.69406,-0.24096 0.28991,0.42791 2.53124,0.85338 5.33586,2.28535 5.04523,2.57597 -0.12033,0.12034 -1.42583,-0.31835 -2.90109,-0.97485 -4.59066,-2.04287 -5.27937,-2.06455 -6.13431,-0.19311 -0.40722,0.8914 -1.072,2.06758 -1.47729,2.61375 -0.71381,0.96192 -0.64815,0.9947 2.0962,1.04665 1.5582,0.0295 3.41622,0.21713 4.12894,0.41697 1.08181,0.30333 1.34419,0.17847 1.58854,-0.75592 0.24772,-0.9473 0.41098,-1.02109 1.06259,-0.4803 1.17392,0.97426 0.94872,3.36276 -0.44881,4.7603 -0.93646,0.93645 -1.74142,1.21871 -3.4756,1.21871 -2.2351,0 -2.98657,0.60678 -1.4715,1.18817 0.43196,0.16575 1.37646,0.30137 2.0989,0.30137 h 1.31352 l -1.31326,1.31326 c -1.03973,1.03973 -1.81298,1.32184 -3.71256,1.35449 -1.31962,0.0227 -2.79032,-0.14533 -3.26821,-0.37335 -1.5288,-0.72945 -0.96567,0.60914 0.59598,1.4167 2.36008,1.22045 5.01096,0.95961 7.58672,-0.7465 3.00696,-1.99173 3.36441,-2.48502 3.83642,-5.29445 0.2396,-1.42613 0.42455,-1.84721 0.45944,-1.04605 0.10466,2.40309 -0.95134,6.3174 -1.63367,6.05557 -0.70445,-0.27032 -3.12837,3.09807 -3.28587,4.56621 -0.18265,1.70261 -0.001,1.81808 0.98932,0.62922 1.6958,-2.03558 1.08926,-0.42078 -0.81775,2.17708 -2.4897,3.39166 -5.61596,4.84433 -10.33729,4.80339 -1.91158,-0.0166 -4.35549,-0.35239 -5.43091,-0.74626 z m 11.91263,-2.21765 c 2.33618,-1.15749 2.4687,-1.33124 2.7266,-3.57506 0.31503,-2.74075 -0.0682,-2.91654 -2.70609,-1.24128 -0.99099,0.62935 -2.23843,2.08122 -2.85683,3.32501 -0.60374,1.21431 -1.18272,1.95285 -1.2866,1.64119 -0.10389,-0.31166 0.049,-1.01121 0.33982,-1.55457 0.64235,-1.20024 0.6636,-1.5497 0.0942,-1.5497 -0.23897,0 -0.81408,0.72615 -1.27801,1.61366 -0.63016,1.20552 -0.77942,1.31673 -0.59014,0.43967 l 0.25336,-1.174 -1.20771,1.13458 c -1.72949,1.62477 -2.00106,0.89296 -0.38246,-1.03063 l 1.36649,-1.62398 -2.33911,0.32035 c -1.28651,0.17619 -3.34455,0.45743 -4.57342,0.62498 -2.61101,0.35599 -2.80674,0.86339 -0.74442,1.92986 4.86876,2.51773 9.09049,2.74826 13.1843,0.71992 z m -16.59863,-4.57636 c -0.49037,-0.48671 -0.5474,-0.42968 -0.27795,0.27795 0.18646,0.48967 0.46409,0.76523 0.61696,0.61236 0.15287,-0.15287 3.1e-4,-0.55351 -0.33901,-0.89031 z m 9.12388,0.10578 c 7.17036,-0.83623 7.3368,-0.92177 4.35443,-2.23798 -1.44986,-0.63986 -2.91087,-1.7214 -3.41738,-2.52976 -0.48661,-0.77663 -0.95471,-1.50748 -1.04021,-1.62411 -0.37384,-0.50998 -3.10531,2.7197 -3.38776,4.00569 -0.38966,1.77412 -0.70139,1.77337 -2.40594,-0.006 -1.16669,-1.21777 -1.34307,-1.77091 -1.21004,-3.79489 0.14965,-2.27701 0.10257,-2.37202 -1.2083,-2.43875 -0.75021,-0.0382 -1.75565,-0.46598 -2.23431,-0.95065 -0.83185,-0.84229 -0.80854,-0.85802 0.52744,-0.35606 2.19829,0.82596 3.54894,0.62482 4.80868,-0.71611 1.16223,-1.23714 2.48257,-1.65355 2.48257,-0.78297 0,0.25208 -0.65885,1.11717 -1.46411,1.92244 -1.7568,1.75679 -2.24537,3.39411 -1.5548,5.21045 0.52279,1.37503 1.52021,1.84462 1.54077,0.72539 0.006,-0.34135 1.23542,-1.82467 2.73145,-3.29627 2.24033,-2.20374 2.59478,-2.77293 2.00978,-3.22733 -0.39065,-0.30344 -0.78194,-1.11029 -0.86953,-1.793 -0.12169,-0.9485 -0.63519,-1.40583 -2.17709,-1.93893 -2.40642,-0.83199 -3.92176,-0.5204 -5.92173,1.21764 -0.81669,0.70973 -2.12198,1.41784 -2.90065,1.57358 -1.37296,0.27459 -1.40585,0.35229 -1.08815,2.57038 0.55003,3.8401 1.32596,5.91426 2.30859,6.17123 0.5073,0.13266 1.31526,0.93117 1.79548,1.77447 0.74182,1.30271 1.0971,1.49637 2.36265,1.28788 0.81925,-0.13497 3.50042,-0.47992 5.95816,-0.76655 z m 7.97853,-5.49053 c 0.18764,-0.30362 0.13421,-0.69462 -0.11875,-0.8689 -0.25295,-0.17428 -1.00038,-1.09888 -1.66094,-2.05467 -1.66198,-2.40478 -2.14082,-2.84222 -2.8518,-2.60522 -0.33892,0.11297 -0.61621,-0.0366 -0.61621,-0.33249 0,-0.29584 -0.33327,-0.53789 -0.74059,-0.53789 -0.88533,0 -0.75005,1.98661 0.28377,4.16734 0.98282,2.07316 4.86409,3.59166 5.70452,2.23183 z m 1.70349,-0.44101 c 0,-0.27308 -0.0985,-0.49651 -0.21896,-0.49651 -0.12042,0 -0.35704,0.22343 -0.52581,0.49651 -0.16878,0.27309 -0.0703,0.49652 0.21895,0.49652 0.2892,0 0.52582,-0.22343 0.52582,-0.49652 z m -8.59807,-1.08612 c -0.1585,-0.39608 -0.27615,-0.27843 -0.29998,0.29998 -0.0216,0.52341 0.0958,0.81666 0.26078,0.65167 0.16499,-0.16499 0.18263,-0.59323 0.0392,-0.95165 z m 11.64627,-3.36598 c 1.1793,-0.98245 1.14941,-1.06481 -0.44151,-1.21655 -0.47789,-0.0456 -1.56181,-0.45306 -2.40871,-0.90552 -1.15946,-0.61944 -1.68069,-0.68176 -2.11018,-0.25227 -0.42314,0.42315 -0.57037,0.42454 -0.57037,0.005 0,-0.31073 -0.44686,-0.5313 -0.99303,-0.49016 -1.2311,0.0927 -1.23252,0.0738 0.12413,1.65215 1.9915,2.31692 4.49952,2.78991 6.39967,1.20693 z m -10.35149,-4.76496 c 1.01805,-1.01805 1.33486,-1.93743 1.58264,-4.59275 0.45262,-4.85051 0.60684,-5.32915 2.24488,-6.96719 0.81934,-0.81934 1.48971,-1.59509 1.48971,-1.72388 0,-0.12878 -0.77019,-0.0605 -1.71154,0.15186 -2.46299,0.55549 -4.12077,2.69775 -4.52429,5.84651 -0.33896,2.64491 -0.92933,3.57779 -1.74684,2.76028 -0.26692,-0.26692 -0.26455,-1.08967 0.006,-2.03256 0.91392,-3.18667 -1.04337,-6.56831 -3.80174,-6.56831 -1.42592,0 -1.41501,0.16717 0.11048,1.69266 1.13209,1.13209 1.24128,1.61789 1.24128,5.52241 0,4.06975 0.0717,4.35278 1.45135,5.73247 1.77224,1.77225 2.05085,1.78584 3.6582,0.1785 z m 3.29198,-4.56118 c -0.0432,-2.59599 -0.28419,-2.38598 -0.56989,0.49651 -0.10149,1.02406 -0.006,1.86193 0.21228,1.86193 0.21824,0 0.37917,-1.0613 0.35761,-2.35844 z m 0.87665,-5.83404 0.70121,-1.48954 -1.01759,1.17216 c -0.55967,0.64469 -0.99995,1.65013 -0.97839,2.23432 0.0269,0.72764 0.1265,0.82759 0.31639,0.31737 0.15245,-0.40962 0.59272,-1.41506 0.97838,-2.23431 z m -4.80956,-2.26361 c 0,-0.53005 -0.29791,-0.96372 -0.66202,-0.96372 -1.05246,0 -1.329,0.55252 -0.78514,1.56873 0.59705,1.11559 1.44716,0.76019 1.44716,-0.60501 z m 0.24826,-2.94978 c 0.53467,-0.86512 -0.25784,-1.60318 -1.03177,-0.96088 -0.3823,0.31729 -0.57265,0.775 -0.423,1.01714 0.36219,0.58605 1.07484,0.55849 1.45477,-0.0563 z m 24.92467,14.91604 c 0.14802,-0.56602 0.46559,-1.15056 0.70571,-1.29896 0.24011,-0.1484 0.43658,-0.62641 0.43658,-1.06224 0,-0.70795 -0.0926,-0.71287 -0.8689,-0.0462 -1.89345,1.62607 -2.27384,1.49123 -0.74477,-0.26402 1.59741,-1.83372 1.93436,-3.30139 1.30072,-5.6658 -0.16466,-0.61443 -0.48514,-1.11715 -0.71216,-1.11715 -0.22703,0 -0.18464,0.65446 0.0942,1.45435 0.51792,1.4857 -0.0371,3.31155 -1.25362,4.12382 -1.15754,0.77291 -1.31911,0.32399 -0.33409,-0.92825 1.18326,-1.50428 1.31646,-3.07406 0.37059,-4.36761 -0.78389,-1.07204 -2.63289,-0.69307 -2.97586,0.60992 -0.20482,0.77809 -0.22717,0.77906 -0.28018,0.0121 -0.0795,-1.15091 1.27764,-2.3939 2.6138,-2.3939 2.18645,0 4.2798,2.73326 4.2798,5.58807 0,2.15953 -0.96873,4.78263 -2.11834,5.73599 -0.67648,0.561 -0.74612,0.50944 -0.51349,-0.38013 z m -37.07801,-1.07787 c 0.5018,-0.97335 0.49319,-1.06966 -0.0498,-0.55643 -1.26016,1.19116 -1.46372,0.60598 -0.46808,-1.34563 0.62869,-1.23233 1.00312,-2.93739 1.00312,-4.56793 0,-3.46893 1.06735,-2.52223 1.37786,1.22212 0.21905,2.64136 -0.61274,5.27712 -1.92038,6.08528 -0.36353,0.22468 -0.34416,-0.0588 0.0572,-0.83741 z m 30.15195,-12.73921 c -1.22369,-0.54947 -1.87536,-1.17895 -1.90112,-1.8364 -0.0216,-0.5502 -0.14724,-0.73503 -0.27929,-0.41074 -0.1652,0.40569 -0.57888,0.28953 -1.32621,-0.37239 -0.59737,-0.5291 -1.47713,-1.29714 -1.95503,-1.70676 -0.47789,-0.40963 -0.8689,-1.2786 -0.8689,-1.93105 0,-1.68145 -1.6092,-3.5332 -2.705,-3.1127 -0.51606,0.19803 -0.75731,0.63835 -0.58943,1.07582 0.1563,0.40733 0.0608,0.74059 -0.21233,0.74059 -0.95267,0 -1.07555,-1.53398 -0.20035,-2.50106 0.61606,-0.68074 1.52602,-0.97454 3.01839,-0.97454 1.79014,0 2.45399,0.30207 4.09539,1.86349 l 1.95893,1.86349 1.86855,-1.61523 c 1.53418,-1.3262 2.28421,-1.61523 4.19143,-1.61523 2.33584,0 3.44599,0.69009 4.10167,2.54969 0.34769,0.98607 -0.90977,2.91196 -1.90128,2.91196 -0.82022,0 -0.95931,-0.78443 -0.2201,-1.24129 0.59164,-0.36565 0.67273,-2.73082 0.0936,-2.73082 -0.22159,0 -0.90974,0.4722 -1.52923,1.04934 -0.88378,0.82337 -1.04453,1.33126 -0.74645,2.35844 0.65289,2.2499 0.37993,4.02839 -0.81318,5.2984 -1.34107,1.42751 -1.60323,1.44916 -4.08008,0.33699 z m 3.13585,-0.61991 c 0.82571,-0.44191 0.96039,-1.06681 0.96039,-4.45633 v -3.94235 l -1.25408,0.47679 c -2.00116,0.76085 -3.05328,2.07999 -3.38399,4.24287 -0.49746,3.25347 1.23483,4.98639 3.67768,3.67902 z m -2.47601,-5.2373 c 0.0238,-0.57841 0.14148,-0.69606 0.29998,-0.29998 0.14342,0.35842 0.12579,0.78667 -0.0392,0.95165 -0.16499,0.16499 -0.28234,-0.12826 -0.26078,-0.65167 z m 2.28655,0.41376 c -0.11849,-0.20481 -0.0356,-0.81925 0.18405,-1.36541 0.34876,-0.86691 0.40392,-0.81962 0.43438,0.37238 0.0344,1.34705 -0.19786,1.72003 -0.61843,0.99303 z m -5.3223,0.90154 c 0.78881,-1.4739 0.62731,-2.30434 -0.77143,-3.96665 -0.78089,-0.92804 -1.75531,-1.52764 -2.48257,-1.52764 -1.41149,0 -1.40673,-0.0189 -0.45544,1.80517 0.40794,0.78219 0.74309,1.8802 0.74477,2.44002 0.006,2.07036 2.06167,2.93638 2.96467,1.2491 z m -19.26816,3.44295 c 0,-0.6827 0.1127,-0.96199 0.25044,-0.62064 0.13774,0.34135 0.13774,0.89993 0,1.24128 -0.13774,0.34136 -0.25044,0.0621 -0.25044,-0.62064 z m -2.69481,-8.03658 c -0.75633,-0.84877 -1.26945,-1.64891 -1.14028,-1.77809 0.51992,-0.51992 2.92067,0.49916 4.0522,1.7201 1.41437,1.52613 1.16698,2.21866 -0.31383,0.87855 -0.88965,-0.80513 -0.9769,-0.81514 -0.69469,-0.0797 0.50106,1.30574 -0.38812,0.95965 -1.9034,-0.74085 z m 9.81282,0.0957 c 0.92029,-1.0169 3.72689,-2.17966 3.72689,-1.54403 0,0.7677 -2.01739,2.20461 -3.28495,2.33975 -1.22881,0.13101 -1.24851,0.0955 -0.44194,-0.79572 z"
       id="path3471" />
  </g>
</svg>
