<?xml version="1.0" encoding="UTF-8" standalone="no"?>
<!-- Created with Inkscape (http://www.inkscape.org/) -->

<svg
   width="69.457039mm"
   height="67.325333mm"
   viewBox="0 0 69.457045 67.325332"
   version="1.1"
   id="svg5"
   inkscape:version="1.1 (c4e8f9ed74, 2021-05-24)"
   sodipodi:docname="ornatea8.svg"
   xmlns:inkscape="http://www.inkscape.org/namespaces/inkscape"
   xmlns:sodipodi="http://sodipodi.sourceforge.net/DTD/sodipodi-0.dtd"
   xmlns="http://www.w3.org/2000/svg"
   xmlns:svg="http://www.w3.org/2000/svg">
  <sodipodi:namedview
     id="namedview7"
     pagecolor="#ffffff"
     bordercolor="#666666"
     borderopacity="1.0"
     inkscape:pageshadow="2"
     inkscape:pageopacity="0.0"
     inkscape:pagecheckerboard="0"
     inkscape:document-units="mm"
     showgrid="false"
     inkscape:zoom="0.66903058"
     inkscape:cx="51.567149"
     inkscape:cy="207.01595"
     inkscape:window-width="2506"
     inkscape:window-height="1403"
     inkscape:window-x="1974"
     inkscape:window-y="0"
     inkscape:window-maximized="1"
     inkscape:current-layer="layer1" />
  <defs
     id="defs2" />
  <g
     inkscape:label="Layer 1"
     inkscape:groupmode="layer"
     id="layer1"
     transform="translate(-91.470598,-116.09211)">
    <path
       style="fill:#000000;stroke-width:0.610792"
       d="m 139.85536,183.01542 c -3.50441,-0.60808 -6.41332,-1.75057 -6.41332,-2.51884 0,-0.28987 0.481,-0.34067 1.06889,-0.1129 2.37659,0.92081 6.44938,1.37772 8.38644,0.94084 1.13044,-0.25495 2.30277,-0.21613 2.60518,0.0863 0.32593,0.32592 1.46445,0.16769 2.79576,-0.38856 1.23525,-0.51612 2.24591,-0.68195 2.24591,-0.36851 0,0.45887 -3.92309,1.99113 -7.02411,2.74343 -0.33593,0.0815 -1.98507,-0.0903 -3.66475,-0.38175 z m -43.699747,-0.74687 c -0.320473,-0.31914 -0.582679,-0.87648 -0.582679,-1.23854 0,-0.36206 -0.579506,-1.15448 -1.287791,-1.76092 -0.991645,-0.84908 -1.202336,-1.52992 -0.916188,-2.96066 0.204381,-1.02191 0.371603,-2.62714 0.371603,-3.56718 0,-0.95299 0.7082,-2.55081 1.600726,-3.61152 1.487368,-1.76764 1.530622,-1.97982 0.610792,-2.99622 -1.295099,-1.43107 -1.252371,-2.70862 0.13251,-3.96192 1.050427,-0.95062 1.19273,-0.93813 2.217902,0.19467 0.602503,0.66576 1.540399,1.11856 2.084212,1.00623 0.54382,-0.11233 2.17553,-0.41807 3.62603,-0.67941 1.79875,-0.3241 2.95129,-0.95442 3.62488,-1.98245 0.94108,-1.43627 0.91755,-1.56051 -0.49951,-2.63763 -1.2531,-0.9525 -2.20791,-1.07635 -6.06804,-0.78704 -3.917611,0.29361 -4.770528,0.5669 -5.890249,1.88737 -1.241794,1.46443 -1.34071,1.48474 -1.918218,0.39392 -1.092527,-2.06362 2.099003,-8.07188 4.472768,-8.42027 0.544622,-0.0799 1.246432,-0.53828 1.559578,-1.01854 0.457589,-0.70179 0.989181,-0.42357 2.707941,1.41727 1.34835,1.44411 2.6927,2.29047 3.63817,2.29047 1.00233,0 1.39547,0.27135 1.18557,0.81833 -0.45998,1.19868 1.43168,2.62222 2.31316,1.74073 1.39013,-1.39012 4.6411,-11.49752 4.45756,-13.85872 -0.0783,-1.0078 -0.0245,-1.21394 0.11953,-0.45809 0.47125,2.47222 1.15659,1.44187 1.06026,-1.59402 -0.10293,-3.2437 -2.35809,-8.02595 -3.7848,-8.02595 -0.61781,0 -0.50436,-0.43694 0.41787,-1.60936 0.69625,-0.88514 1.26591,-1.92014 1.26591,-2.3 0,-1.32475 2.28926,-4.94713 3.12647,-4.94713 0.46633,0 0.93012,-0.75126 1.03695,-1.67968 0.11062,-0.96139 0.56771,-1.67968 1.06889,-1.67968 0.48159,0 0.87561,-0.40705 0.87561,-0.90455 0,-0.49759 0.75569,-1.05671 1.67968,-1.24277 0.92382,-0.18602 2.52376,-0.60354 3.55542,-0.92782 1.03166,-0.32429 4.22757,-0.58961 7.10202,-0.58961 6.02462,0 7.12271,0.62205 5.88673,3.33474 -0.60997,1.33873 -0.59064,1.7356 0.10548,2.16583 1.04932,0.64851 1.82681,0.22643 1.82681,-0.99172 0,-0.54398 -0.29031,-0.73677 -0.71459,-0.47455 -0.4872,0.3011 -0.58438,0.10232 -0.30539,-0.6247 0.22505,-0.58649 0.40919,-1.21494 0.40919,-1.39657 0,-0.18163 0.41228,0.0119 0.91619,0.43014 1.22509,1.01674 1.13487,2.42862 -0.27223,4.25982 -1.08257,1.40886 -1.23684,1.44402 -2.27689,0.51892 -0.6136,-0.54579 -2.21506,-1.44887 -3.5588,-2.00686 -2.09429,-0.86966 -2.29054,-1.10072 -1.37428,-1.61816 0.58788,-0.332 1.06888,-1.04486 1.06888,-1.58413 0,-0.85338 -0.16088,-0.83491 -1.24091,0.1425 -1.75363,1.58702 -1.39278,4.33438 1.42357,10.8384 0.9141,2.11101 2.49956,1.9243 2.75917,-0.32495 0.1063,-0.92095 0.55365,-1.67445 0.9941,-1.67445 0.82257,0 2.62444,1.77155 1.94138,1.90872 -0.2091,0.042 -0.63014,0.11071 -0.93565,0.1527 -1.06251,0.14604 -3.22388,3.47767 -2.86419,4.41499 0.58612,1.52741 2.42069,0.70969 3.57141,-1.59187 l 1.06794,-2.13598 9.7e-4,1.71411 c 6.1e-4,1.12939 -0.62931,2.28976 -1.84665,3.40163 l -1.8476,1.68752 1.58759,3.58982 1.58759,3.58982 1.3289,-2.1015 c 1.08597,-1.71738 1.32887,-3.0177 1.32887,-7.114 0,-2.75687 0.21053,-4.80179 0.46785,-4.54425 0.66488,0.66543 0.85018,6.84086 0.25448,8.48064 -0.29,0.79826 -0.26104,1.37428 0.0691,1.37428 1.00182,0 2.73514,-6.67137 2.39404,-9.21442 -0.23452,-1.74851 -0.10123,-2.39063 0.49626,-2.39063 0.4493,0 0.99171,-0.55074 1.20535,-1.22387 0.21364,-0.67314 1.80404,-2.66584 3.53421,-4.42825 l 3.14576,-3.20436 0.40484,1.83237 c 0.39781,1.80057 0.40608,1.79322 0.4771,-0.42346 0.0508,-1.58511 0.47588,-2.53854 1.42976,-3.20665 l 1.35748,-0.95083 h -1.5771 c -0.99864,0 -2.33667,0.78173 -3.64796,2.13127 -2.17793,2.24147 -3.3564,2.76622 -2.76784,1.23246 0.33378,-0.86982 -1.72553,-3.36373 -2.77754,-3.36373 -0.2726,0 -0.49563,0.82457 -0.49563,1.83238 0,1.00781 -0.26623,1.83238 -0.59162,1.83238 -0.32539,0 -0.44435,-0.38377 -0.26436,-0.85282 0.17999,-0.46905 -0.28686,-1.28296 -1.03744,-1.80868 l -1.36469,-0.95587 1.62375,-0.61735 c 1.74178,-0.66222 3.17872,-0.36268 4.76392,0.99309 0.85552,0.73169 1.28584,0.67474 3.13185,-0.41443 1.39282,-0.82178 2.94922,-1.20058 4.45743,-1.08484 2.57363,0.1975 3.47588,1.36426 1.53205,1.98121 -0.70438,0.22356 -1.4044,1.11613 -1.5975,2.0369 -0.18904,0.90144 -0.63928,2.176 -1.00054,2.83238 -0.54198,0.9847 -0.40432,1.35855 0.78712,2.13777 2.50774,1.64009 3.60825,3.03487 3.60825,4.57307 0,1.62555 -0.90795,2.56464 -1.52082,1.57299 -0.63824,-1.03269 -2.34826,-0.70426 -4.7183,0.90623 -2.38052,1.6176 -5.26988,1.9895 -6.43154,0.82784 -0.52499,-0.52499 -0.79419,-0.25874 -1.08071,1.06889 -0.83119,3.85138 -2.24374,6.84606 -4.27545,9.06418 -2.34767,2.56305 -2.49885,3.15889 -1.22741,4.83763 0.84033,1.10952 0.91623,1.10743 2.88184,-0.0793 1.11033,-0.67036 4.1891,-1.69184 6.84171,-2.26994 3.26192,-0.7109 5.28826,-1.51644 6.26062,-2.4888 1.87652,-1.87652 1.91474,-4.75456 0.0802,-6.03952 -2.90239,-2.03291 -5.87548,-0.4494 -4.19836,2.23609 0.64269,1.02911 0.59308,1.16378 -0.3617,0.98174 -0.60861,-0.11604 -1.18565,-0.75988 -1.28231,-1.43076 -0.29143,-2.02268 1.23247,-3.45626 3.74988,-3.52762 3.27089,-0.0927 5.28235,2.33742 5.28235,6.38186 0,1.62743 -0.27485,2.95896 -0.61079,2.95896 -0.33593,0 -0.61079,0.28598 -0.61079,0.63552 0,1.41498 -2.72523,4.25081 -4.08502,4.25081 -1.96849,0 -1.76072,-0.76907 0.47515,-1.75876 1.69135,-0.74866 4.21245,-3.83668 4.21838,-5.16694 0.001,-0.28182 -0.83468,0.19186 -1.85762,1.05261 -1.02295,0.86075 -3.01566,1.86355 -4.42825,2.22844 -5.46317,1.41121 -10.78945,3.1117 -11.02988,3.52144 -0.13833,0.23573 -0.0178,1.04704 0.26789,1.80289 0.37944,1.00398 1.01268,1.37428 2.3501,1.37428 2.30452,0 7.1868,1.63023 9.23946,3.08512 1.34125,0.95065 1.54854,1.52652 1.4581,4.05058 -0.13059,3.64422 -0.65177,4.92417 -2.20595,5.41744 -1.3743,0.43619 -4.17503,-0.12134 -4.17503,-0.8311 0,-0.2588 0.75585,-0.4597 1.67967,-0.44646 1.35831,0.0195 1.71472,-0.27716 1.8628,-1.55037 0.10071,-0.86595 -0.31157,-2.18508 -0.91619,-2.93141 -1.17335,-1.44836 -5.6482,-2.79461 -6.49023,-1.95258 -0.27812,0.27811 0.35832,2.3536 1.41429,4.61219 1.05598,2.25859 1.76428,4.2622 1.57401,4.45247 -0.53105,0.53105 -0.6428,0.31461 -3.71062,-7.18716 -1.57987,-3.86326 -3.77421,-9.22296 -4.87632,-11.91045 -1.10211,-2.68748 -3.28239,-8.03168 -4.84505,-11.87598 -1.56267,-3.84431 -3.12347,-7.32974 -3.46845,-7.74541 -0.34498,-0.41568 -0.78632,-2.29721 -0.98077,-4.18119 l -0.35353,-3.42542 -1.31264,1.23316 c -0.72196,0.67824 -2.16528,1.5304 -3.20739,1.89368 -1.13037,0.39405 -2.02174,1.19983 -2.20953,1.99737 -0.51817,2.20065 -3.41529,10.1903 -4.32644,11.93141 -0.46664,0.89171 -1.68084,4.095 -2.69822,7.11842 -2.85392,8.48122 -5.528,15.77078 -6.21465,16.94119 -0.34223,0.58333 -0.62223,1.55907 -0.62223,2.16832 0,0.60924 -0.24447,1.36882 -0.54326,1.68796 -0.29879,0.31914 -1.16473,2.31056 -1.92431,4.42538 -0.9133,2.54283 -2.02224,4.35064 -3.27419,5.33766 l -1.89314,1.49253 5.00299,0.007 c 2.75164,0.004 5.16645,-0.25772 5.36624,-0.58099 0.22781,-0.3686 0.92422,-0.33216 1.86772,0.0977 1.13425,0.5168 2.31366,0.49136 4.79283,-0.10338 1.80861,-0.43388 3.59549,-0.59906 3.97086,-0.36707 0.84759,0.52383 0.90207,2.18207 0.0717,2.18207 -0.33594,0 -0.56961,0.89328 -0.51928,1.98507 l 0.0915,1.98508 0.26829,-1.82317 0.2683,-1.82316 0.83398,1.51777 c 0.76335,1.38924 0.8023,1.23812 0.45997,-1.78452 -0.26289,-2.3212 -0.17506,-3.17933 0.29565,-2.88841 0.36831,0.22763 0.95305,-0.0729 1.29941,-0.66787 0.5951,-1.0222 0.63078,-1.02291 0.64833,-0.0128 0.0199,1.14634 1.53241,1.46766 2.15635,0.45809 0.20762,-0.33593 1.28067,-0.61079 2.38455,-0.61079 2.2436,0 4.02877,-1.54447 4.02877,-3.48556 0,-0.68838 -0.42787,-2.27563 -0.95082,-3.52723 -0.57273,-1.37073 -0.79631,-2.97913 -0.56227,-4.04474 0.3446,-1.56895 0.22236,-1.76911 -1.08048,-1.76911 -2.09689,0 -4.0009,2.32069 -4.25957,5.19174 -0.2338,2.59512 -0.61358,2.12428 -1.47311,-1.82635 -0.39308,-1.80672 -0.98263,-2.65339 -2.27914,-3.27316 -1.57501,-0.75291 -1.87037,-0.71456 -2.97056,0.38562 -1.08069,1.08069 -1.13862,1.47325 -0.50204,3.40209 0.44081,1.33567 1.66586,2.87632 3.162,3.97659 1.34332,0.98789 2.1749,1.96148 1.84797,2.16353 -1.01717,0.62865 -2.46095,-0.28549 -3.75316,-2.37633 -1.16453,-1.88424 -3.17468,-3.04932 -3.94024,-2.28376 -0.63901,0.63901 -0.35305,6.24508 0.31856,6.24508 0.41482,0 0.51008,-0.67951 0.25687,-1.83237 -0.23326,-1.06201 -0.15112,-1.83238 0.19536,-1.83238 0.66594,0 1.27175,5.46204 0.64853,5.84721 -0.62469,0.38608 -3.48204,-2.09391 -3.88868,-3.37514 -0.20264,-0.63845 0.0368,-2.13057 0.53199,-3.31582 0.86079,-2.06016 0.84182,-2.17439 -0.43117,-2.59576 -1.31207,-0.43431 -1.30921,-0.44725 0.1954,-0.88291 0.99519,-0.28817 1.15184,-0.46335 0.44981,-0.50303 -0.59245,-0.0335 -1.58675,0.25735 -2.20956,0.6463 -0.62282,0.38896 -1.6498,0.50596 -2.28218,0.26002 -1.08952,-0.42372 -1.07665,-0.50685 0.24558,-1.58567 1.10693,-0.90314 1.30659,-1.49227 0.96587,-2.84984 -0.40814,-1.62613 -0.3766,-1.65842 0.63332,-0.64849 1.33839,1.33839 1.15921,1.36285 4.05505,-0.55353 1.34337,-0.889 2.58879,-1.47006 2.7676,-1.29125 0.17881,0.1788 -0.65135,0.92858 -1.8448,1.66617 -2.50773,1.54987 -2.60283,1.8819 -0.96384,3.36516 1.16783,1.05687 1.22498,1.04169 1.80314,-0.47899 1.08413,-2.85148 4.53965,-3.76457 6.41298,-1.69457 1.04481,1.1545 1.09093,1.15374 3.13405,-0.0517 1.47458,-0.87002 2.60721,-1.10628 3.92059,-0.81782 2.01,0.44147 2.22286,0.94483 1.1357,2.68565 -0.57327,0.91795 -0.45478,1.63092 0.61079,3.67527 2.35242,4.51321 1.52002,6.7913 -2.91819,7.98639 -1.29408,0.34846 -2.50175,1.02153 -2.68371,1.49571 -0.20168,0.52557 -0.82232,0.73362 -1.58978,0.53292 -1.11623,-0.2919 -1.25895,-0.0526 -1.25895,2.1104 0,3.44191 -0.98977,4.05666 -5.6483,3.5082 -2.10044,-0.24729 -5.39721,-0.4694 -7.32617,-0.49356 l -3.50719,-0.0439 0.92541,-1.41234 c 0.8514,-1.29943 0.83558,-1.41236 -0.19788,-1.41236 -0.6178,0 -1.97927,0.96686 -3.02549,2.14859 -1.87535,2.11824 -1.96357,2.14627 -6.24842,1.98507 -2.390414,-0.0899 -4.608413,-0.42462 -4.928887,-0.74376 z m 9.662267,-1.3432 c 2.74564,-1.23034 1.93382,-2.0467 -2.0353,-2.0467 -3.24958,0 -3.32331,0.0388 -3.32331,1.74768 0,1.56637 0.17426,1.719 1.67968,1.47128 0.92382,-0.15201 2.57934,-0.67953 3.67893,-1.17226 z m -6.580193,-0.82511 c 0,-0.33594 -0.274857,-0.61079 -0.610792,-0.61079 -0.335936,0 -0.610793,0.27485 -0.610793,0.61079 0,0.33593 0.274857,0.61079 0.610793,0.61079 0.335935,0 0.610792,-0.27486 0.610792,-0.61079 z m 18.087003,-0.49973 c -0.45009,-0.72827 -3.99633,-1.28468 -4.36685,-0.68517 -0.35545,0.57511 2.64652,1.33407 3.41011,0.86214 0.32049,-0.19807 0.58271,-0.0232 0.58271,0.38851 0,0.41175 0.16495,0.58369 0.36656,0.38208 0.2016,-0.20161 0.20497,-0.62801 0.007,-0.94756 z m -16.97657,-5.01597 c 1.97052,-1.20139 4.92973,-6.36071 4.11537,-7.17507 -0.60773,-0.60773 -3.03485,2.18042 -3.75019,4.30802 -0.808286,2.40406 -3.203534,3.11159 -3.72917,1.10156 -0.182647,-0.69844 -0.54283,-1.2699 -0.800404,-1.2699 -0.472402,0 -1.197818,2.09991 -1.213244,3.51205 -0.01289,1.17988 3.115383,0.90259 5.377638,-0.47666 z m -1.110433,-2.6805 c 0,-1.7838 2.176533,-4.55993 4.559533,-5.81559 1.39103,-0.73297 1.86595,-1.18168 1.09029,-1.03012 -1.90202,0.37165 -1.73738,-0.72428 0.18115,-1.2058 0.85548,-0.21471 1.43066,-0.51515 1.27816,-0.66764 -0.15249,-0.15249 -1.64443,0.20832 -3.31543,0.80181 -2.85341,1.01344 -3.13351,1.0166 -4.605675,0.052 -0.862122,-0.56489 -1.720148,-0.78006 -1.906723,-0.47818 -0.387257,0.6266 0.207025,2.48676 0.798968,2.50085 0.216011,0.005 0.765308,0.24543 1.220661,0.53396 0.683072,0.43283 0.647496,0.79996 -0.20335,2.09851 -0.616733,0.94126 -0.871601,2.07697 -0.634056,2.8254 0.45165,1.42303 1.536472,1.69472 1.536472,0.3848 z m 50.975053,-15.58249 c 0.19328,-0.31272 0.0721,-0.74123 -0.26935,-0.95223 -0.34141,-0.21101 -0.62075,0.0449 -0.62075,0.56858 0,1.07288 0.36651,1.23085 0.8901,0.38365 z m -1.50089,-1.29983 c 0,-0.31611 -0.27486,-0.57475 -0.6108,-0.57475 -0.33593,0 -0.61079,0.42851 -0.61079,0.95224 0,0.52373 0.27486,0.78236 0.61079,0.57474 0.33594,-0.20762 0.6108,-0.63612 0.6108,-0.95223 z m -49.474163,0.036 c 0,-0.33593 -0.291078,-0.61079 -0.64684,-0.61079 -0.355761,0 -0.476968,0.27486 -0.269349,0.61079 0.20762,0.33594 0.498698,0.61079 0.64684,0.61079 0.148142,0 0.269349,-0.27485 0.269349,-0.61079 z m 3.053963,0.0653 c 0,-0.96435 -1.71949,-1.24053 -2.06806,-0.33218 -0.22249,0.57981 0.0712,0.87762 0.86564,0.87762 0.66133,0 1.20242,-0.24544 1.20242,-0.54544 z m 44.58782,-0.37074 c 0,-0.509 -0.54293,-0.91619 -1.22159,-0.91619 -0.67865,0 -1.22158,0.40719 -1.22158,0.91619 0,0.50899 0.54293,0.91618 1.22158,0.91618 0.67866,0 1.22159,-0.40719 1.22159,-0.91618 z m -28.98146,-20.13652 c 1.21839,-2.91601 1.13988,-4.60056 -0.2144,-4.60056 -0.60469,0 -1.36636,0.20614 -1.6926,0.45809 -0.32625,0.25195 -0.0611,-0.0349 0.5893,-0.63751 0.65035,-0.60258 1.55825,-0.95141 2.01754,-0.77516 1.17737,0.4518 2.26069,-2.60693 1.50822,-4.25842 -0.52473,-1.15165 -0.30273,-1.3574 2.25411,-2.08908 3.31645,-0.94906 4.97394,-2.21097 4.97394,-3.78685 0,-1.06381 -0.0684,-1.0585 -1.22158,0.0947 -1.50365,1.50364 -2.2683,1.54799 -2.63293,0.1527 -0.2102,-0.80436 -0.29686,-0.72878 -0.35018,0.30539 -0.0468,0.90823 -0.45688,1.37429 -1.20915,1.37429 -1.52216,0 -3.93034,2.49418 -6.51284,6.74543 -2.15375,3.54546 -2.43029,4.56589 -1.73114,6.38785 0.29962,0.78079 0.5029,0.83532 0.87422,0.23451 0.33538,-0.54265 0.61072,-0.27726 0.89741,0.86498 0.55989,2.23078 1.3879,2.07183 2.45008,-0.47033 z m 32.64621,-3.10963 c 0,-0.52373 -0.27934,-0.77959 -0.62075,-0.56859 -0.34142,0.21101 -0.46263,0.63951 -0.26935,0.95224 0.52359,0.84719 0.8901,0.68922 0.8901,-0.38365 z m 1.89326,-1.64363 c 0.0577,-1.88079 0.0866,-1.90486 0.54991,-0.4581 0.32602,1.01799 0.50932,1.17069 0.54991,0.4581 0.0335,-0.58789 0.47317,-1.06889 0.97707,-1.06889 0.51955,0 0.91619,-0.54778 0.91619,-1.26529 0,-1.02021 -0.32536,-1.22768 -1.67968,-1.0711 -0.92382,0.10681 -1.88161,0.47005 -2.12842,0.8072 -0.24681,0.33715 -0.47465,-0.34899 -0.50631,-1.52477 -0.0317,-1.17577 -0.21789,-1.72549 -0.41384,-1.22158 -0.19595,0.5039 -0.76578,1.21794 -1.2663,1.58674 -0.7872,0.58005 -0.73261,0.84798 0.40448,1.98507 0.72299,0.72299 1.31452,1.86424 1.31452,2.53611 0,2.07161 1.21775,1.34665 1.28247,-0.76349 z m -4.77024,0.1527 c -0.1757,-0.67187 -0.42483,-1.22159 -0.55361,-1.22159 -0.12879,0 -0.23416,0.54972 -0.23416,1.22159 0,0.67187 0.24912,1.22158 0.55361,1.22158 0.30448,0 0.40986,-0.54971 0.23416,-1.22158 z m 8.77863,-3.20666 c -0.16944,-0.41992 -0.30808,-0.0763 -0.30808,0.76349 0,0.83984 0.13864,1.18341 0.30808,0.76349 0.16944,-0.41992 0.16944,-1.10706 0,-1.52698 z m -20.07815,-7.53282 c 0.1732,-1.14507 0.15632,-1.14475 -0.76349,0.0147 -0.92149,1.16154 -0.9406,1.15843 -0.9406,-0.1527 0,-0.73608 -0.27486,-1.33833 -0.61079,-1.33833 -0.88384,0 -0.75202,2.28488 0.15269,2.64677 1.22565,0.49026 1.97213,0.0862 2.16219,-1.1704 z m -10.25518,-0.52413 c 0,-0.14814 -0.27486,-0.43922 -0.61079,-0.64684 -0.33594,-0.20762 -0.6108,-0.0864 -0.6108,0.26935 0,0.35576 0.27486,0.64684 0.6108,0.64684 0.33593,0 0.61079,-0.12121 0.61079,-0.26935 z m 29.48415,63.66305 c -0.74846,-0.36124 -1.5132,-1.13687 -1.69943,-1.72361 -0.40399,-1.27285 -2.81683,-1.85571 -4.28373,-1.03479 -0.70014,0.39182 -1.18551,0.36215 -1.46467,-0.0895 -0.26363,-0.42656 -3.16332,-0.70389 -7.86756,-0.75243 -6.50391,-0.0671 -7.45005,-0.20568 -7.45005,-1.091 0,-0.59672 1.06838,-1.51036 2.59587,-2.21988 1.97513,-0.91745 2.76109,-1.71697 3.28681,-3.34355 0.53234,-1.64705 1.02306,-2.13777 2.13777,-2.13777 2.01872,0 2.44447,3.52748 0.56725,4.69982 -0.69201,0.43217 -1.25819,0.9945 -1.25819,1.24963 0,0.25513 3.4357,0.46387 7.6349,0.46387 4.34783,0 7.6349,-0.24673 7.6349,-0.57309 0,-0.31519 0.74509,-0.52134 1.65574,-0.45809 1.17784,0.0818 1.72326,-0.21226 1.88966,-1.01878 0.36518,-1.77002 -0.77388,-2.46668 -2.01077,-1.2298 -0.59087,0.59088 -1.65889,1.12926 -2.37336,1.1964 -1.89777,0.17835 -4.9702,-2.10031 -5.76473,-4.2754 -0.56129,-1.53656 -0.54713,-1.70038 0.0762,-0.88222 0.66443,0.87206 0.91937,0.89222 1.93073,0.1527 1.52044,-1.11177 3.6655,-1.08495 4.8106,0.0602 0.80903,0.80903 0.95603,0.71246 1.3001,-0.85408 0.24184,-1.10108 0.88229,-1.89552 1.70065,-2.10952 0.72199,-0.18881 1.40681,-0.2492 1.52182,-0.13419 0.42161,0.4216 -0.61178,3.4072 -1.17932,3.4072 -0.3254,0 -0.39798,-0.61081 -0.1633,-1.37428 0.50581,-1.6455 0.11369,-1.33066 -0.9509,0.76349 -0.42695,0.83984 -0.56026,1.32531 -0.29627,1.07882 0.264,-0.24649 1.13888,0.26279 1.94418,1.13173 1.34251,1.44858 1.38923,1.69429 0.56224,2.95644 -0.7993,1.21987 -0.79438,1.48415 0.0432,2.32172 1.12654,1.12653 0.58541,2.28396 -1.06781,2.28396 -1.70757,0 -1.46194,1.75753 0.34144,2.44317 0.83984,0.31931 1.52698,0.86222 1.52698,1.20647 0,0.81077 -3.57354,0.73465 -5.33099,-0.11356 z m 1.04779,-2.93961 c -0.36203,-0.67646 -1.00059,-1.0164 -1.52863,-0.81377 -1.20583,0.46272 -1.14672,1.24396 0.14896,1.96907 1.45082,0.81192 2.1287,0.24428 1.37967,-1.1553 z m -4.01385,-8.31776 c 0.32168,-0.83829 0.2323,-0.87608 -0.54545,-0.23061 -1.05987,0.87962 -1.17018,1.23319 -0.38472,1.23319 0.29999,0 0.71857,-0.45116 0.93017,-1.00258 z m -43.70418,2.58931 c -0.46956,-1.03056 -0.48001,-1.9849 -0.0351,-3.20665 0.6233,-1.71171 0.63416,-1.70001 0.68161,0.73427 0.0265,1.36054 0.37805,2.80354 0.78117,3.20666 0.57007,0.57007 0.56716,0.73295 -0.0131,0.73295 -0.41033,0 -1.04688,-0.66025 -1.41456,-1.46723 z m 11.44891,-0.7205 c -0.48518,-1.26436 -0.48082,-4.84466 0.005,-4.35853 0.38429,0.3843 0.8995,5.32468 0.55527,5.32468 -0.10441,0 -0.35668,-0.43477 -0.56059,-0.96615 z m 1.55807,-0.86623 c 0,-0.83984 0.13864,-1.18341 0.30808,-0.76349 0.16944,0.41992 0.16944,1.10706 0,1.52698 -0.16944,0.41992 -0.30808,0.0763 -0.30808,-0.76349 z m 14.85944,-7.4822 c -0.90391,-2.43554 -2.01369,-5.11539 -2.46618,-5.95522 l -0.82272,-1.52698 -9.80364,0.13104 c -7.83545,0.10474 -9.80363,-0.0327 -9.80363,-0.6846 0,-1.01585 4.23894,-1.40103 14.60192,-1.32683 l 7.57782,0.0543 2.67646,6.27779 c 1.47205,3.45279 2.51222,6.54352 2.3115,6.86829 -0.20072,0.32478 -0.87415,0.5905 -1.49651,0.5905 -0.84638,0 -1.54575,-1.11603 -2.77502,-4.42824 z m 22.29309,-1.52698 c -0.005,-0.92382 -0.30057,-2.09196 -0.65649,-2.59587 -0.48156,-0.68176 -0.55023,-0.33013 -0.26837,1.37428 0.20833,1.25976 0.12742,2.29047 -0.17978,2.29047 -1.00155,0 -1.34259,-4.35529 -0.44174,-5.64143 0.83181,-1.18757 0.84297,-1.18751 1.48287,0.008 1.03464,1.93325 1.56052,6.24407 0.76172,6.24407 -0.37888,0 -0.69307,-0.75586 -0.69821,-1.67968 z m -51.69962,-13.28969 c -0.0534,-1.84492 0.12219,-3.3544 0.39012,-3.3544 0.69133,0 1.37343,4.09529 0.92003,5.52383 -0.67854,2.1379 -1.21105,1.25614 -1.31015,-2.16943 z m 11.86573,2.92166 c 1.0978,-0.13594 2.74694,-0.13314 3.66475,0.006 0.91781,0.13936 0.0196,0.25059 -1.99601,0.24716 -2.01562,-0.003 -2.76655,-0.11746 -1.66874,-0.2534 z m 7.34982,-0.0801 c 2.22927,-1.41403 -3.08827,-6.19591 -6.88997,-6.19591 -1.38622,0 -1.52173,-0.18993 -1.1984,-1.67967 0.2005,-0.92383 0.5931,-2.2294 0.87244,-2.90127 0.27934,-0.67187 0.65983,-1.69795 0.84555,-2.28017 0.18571,-0.58222 0.7133,-0.91444 1.17241,-0.73827 0.59855,0.22969 0.76231,1.15285 0.57875,3.26255 -0.20428,2.34794 -0.0484,3.02189 0.77188,3.33665 0.73061,0.28036 1.13955,-0.004 1.41407,-0.98237 0.33772,-1.20396 0.43554,-1.10843 0.77926,0.76097 l 0.39306,2.13777 0.0804,-1.91028 c 0.0442,-1.05066 -0.33188,-2.25246 -0.83578,-2.67066 -0.68275,-0.56663 -0.91619,-0.5765 -0.91619,-0.0387 0,0.39689 -0.27486,0.55176 -0.61079,0.34414 -0.33594,-0.20762 -0.61079,-0.79208 -0.61079,-1.29879 0,-0.67169 0.36462,-0.80558 1.34579,-0.49417 2.37012,0.75225 3.09144,1.94138 2.67468,4.40932 -0.35617,2.10918 -0.31789,2.1866 0.54035,1.09298 1.26193,-1.60801 1.82897,-0.81577 1.0387,1.45121 -0.39202,1.12453 -0.42002,1.86356 -0.0706,1.86356 0.31846,0 0.57902,0.54108 0.57902,1.20241 0,0.81787 0.293,1.08998 0.91618,0.85084 0.50391,-0.19337 0.91619,-0.0473 0.91619,0.32457 0,0.37578 -1.01747,0.67198 -2.29047,0.66678 -1.4414,-0.006 -1.99586,-0.19622 -1.49572,-0.51345 z m -5.37569,-9.55526 c 0,-0.83984 -0.27485,-1.52698 -0.61079,-1.52698 -0.33594,0 -0.61079,0.68714 -0.61079,1.52698 0,0.83984 0.27485,1.52698 0.61079,1.52698 0.33594,0 0.61079,-0.68714 0.61079,-1.52698 z m 10.53931,9.31458 c -0.33248,-0.41992 -1.21022,-2.55006 -1.95053,-4.73364 -2.08712,-6.15608 -5.68807,-14.92397 -6.29755,-15.33382 -0.51126,-0.34379 0.9657,-4.82232 1.59034,-4.82232 0.68117,0 2.05503,5.39684 1.57257,6.17747 -0.34771,0.56262 -0.2044,0.95813 0.42751,1.17979 0.77988,0.27357 7.52741,16.21653 7.54953,17.83791 0.0103,0.75477 -2.24066,0.51706 -2.89187,-0.30539 z m 19.23681,0.34245 c -1.58402,-0.41395 -1.29559,-1.41134 0.40813,-1.41134 0.81237,0 1.84308,-0.0924 2.29047,-0.20529 0.4474,-0.11291 0.60731,-0.09 0.35536,0.0509 -0.25196,0.1409 -0.4581,0.64557 -0.4581,1.12148 0,0.86602 -0.59335,0.96756 -2.59586,0.44425 z m -55.809575,-3.59968 c -0.231129,-0.64406 -0.705565,-1.53807 -1.0543,-1.98668 -0.794067,-1.02149 -1.03535,-6.00728 -0.389128,-8.04082 0.266885,-0.83984 0.822099,-2.83255 1.233811,-4.42824 0.579261,-2.24509 1.024973,-2.90127 1.970687,-2.90127 1.076523,0 1.174216,0.27288 0.820006,2.29047 -1.021983,5.82126 -1.110065,8.13511 -0.377046,9.90477 0.422142,1.01914 0.966442,1.85298 1.209556,1.85298 0.877377,0 2.463729,-2.26214 2.463729,-3.51328 0,-1.62069 2.83569,-5.03872 4.17715,-5.03498 0.7344,0.002 0.4664,0.51661 -0.97049,1.86333 -1.66336,1.55899 -1.98507,2.30094 -1.98507,4.57812 0,1.66945 -0.27592,2.7176 -0.7154,2.7176 -0.39347,0 -1.21804,0.45489 -1.832375,1.01086 -1.041411,0.94246 -1.11698,0.93902 -1.11698,-0.0509 0,-1.40408 -1.467313,-0.88293 -1.738965,0.61764 -0.333418,1.84175 -1.224881,2.43095 -1.695185,1.1204 z m 1.493861,-4.12289 c 0.116889,-0.60271 -0.194697,-1.01828 -0.76349,-1.01828 -0.566592,0 -0.960974,0.52223 -0.960974,1.27249 0,1.48853 1.427282,1.27812 1.724464,-0.25421 z m -0.50288,-3.76684 c 0,-0.5039 -0.274856,-0.91619 -0.610792,-0.91619 -0.335936,0 -0.610792,0.41229 -0.610792,0.91619 0,0.5039 0.274856,0.91619 0.610792,0.91619 0.335936,0 0.610792,-0.41229 0.610792,-0.91619 z m 0,-3.35936 c 0,-0.33593 -0.274856,-0.61079 -0.610792,-0.61079 -0.335936,0 -0.610792,0.27486 -0.610792,0.61079 0,0.33594 0.274856,0.6108 0.610792,0.6108 0.335936,0 0.610792,-0.27486 0.610792,-0.6108 z m 9.915434,4.65344 c 0.27599,-2.44857 2.01161,-5.80937 3.02414,-5.85583 0.23008,-0.0105 1.19208,0.29151 2.13777,0.67125 l 1.71944,0.69044 -2.13777,0.58318 c -3.28852,0.8971 -4.36188,2.14638 -3.91066,4.55159 0.26615,1.41866 0.1521,2.03544 -0.37635,2.03544 -0.53427,0 -0.66911,-0.79037 -0.45657,-2.67607 z m -2.12783,-9.573 c -1.88347,-1.12468 -1.15363,-1.53618 2.13777,-1.20531 1.76366,0.17729 3.20666,0.59721 3.20666,0.93314 0,0.84601 -4.03899,1.0517 -5.34443,0.27217 z M 96.859113,128.854 c -1.133332,-1.05869 -1.896971,-2.38029 -1.896971,-3.283 0,-3.36529 -0.780984,-5.42337 -2.273324,-5.99076 -1.997057,-0.75928 -1.474625,-1.95164 1.097406,-2.50465 1.58296,-0.34035 2.769465,-0.12097 4.875405,0.90141 l 2.783301,1.35123 2.04066,-1.37521 c 2.39795,-1.61597 3.02886,-1.66884 5.84978,-0.49018 2.50141,1.04516 2.69981,1.97803 0.59118,2.77973 -1.3687,0.52038 -1.52698,0.92259 -1.52698,3.88025 0,3.74267 -0.62497,4.55171 -3.93048,5.08812 -1.21391,0.19699 -2.35408,0.59597 -2.53372,0.88663 -0.67654,1.09467 -3.247358,0.46488 -5.076257,-1.24357 z m 4.210947,-2.84764 c 0,-0.77888 0.26449,-1.57961 0.58776,-1.7794 0.94832,-0.5861 -0.49824,-3.05733 -2.47218,-4.22337 l -1.78033,-1.05166 0.117688,4.46277 0.117687,4.46277 0.216854,-3.81745 c 0.11927,-2.09959 0.442405,-3.81745 0.718078,-3.81745 0.703851,0 1.264966,4.76922 0.823534,6.99966 -0.33224,1.67872 -0.269727,1.77642 0.651709,1.01855 0.56056,-0.46105 1.0192,-1.47554 1.0192,-2.25442 z m 4.92649,1.54423 c 0.93263,-0.49913 1.18143,-1.29294 1.18143,-3.76936 0,-2.06194 0.34644,-3.51988 1.01086,-4.25405 0.95922,-1.05994 0.91134,-1.11698 -0.93768,-1.11698 -1.07169,0 -2.61093,0.43402 -3.42054,0.96449 -1.27613,0.83616 -1.38872,1.18158 -0.84611,2.59587 0.34424,0.89725 0.46335,2.66208 0.26469,3.92184 -0.39146,2.4824 0.35992,2.9359 2.74735,1.65819 z m 33.86914,0.0415 c -1.14002,-2.20455 -0.45542,-2.42605 1.05946,-0.34278 0.61812,0.85004 0.82251,1.62401 0.48411,1.83315 -0.32213,0.19909 -1.01674,-0.47158 -1.54357,-1.49037 z m 3.40364,-1.58291 c -0.03,-1.36352 0.34893,-3.01266 0.84215,-3.66475 1.12467,-1.48695 1.13893,-0.7794 0.0623,3.08992 l -0.84979,3.05396 -0.0546,-2.47913 z m -29.39412,-6.70864 c -0.59496,-0.71689 -0.6118,-1.11213 -0.0704,-1.6535 0.87393,-0.87394 2.921,0.86621 2.2659,1.92617 -0.57154,0.92477 -1.2741,0.83752 -2.19548,-0.27267 z"
       id="path2760" />
  </g>
</svg>
