<?xml version="1.0" encoding="UTF-8" standalone="no"?>
<!-- Created with Inkscape (http://www.inkscape.org/) -->

<svg
   width="37.491444mm"
   height="36.108707mm"
   viewBox="0 0 37.491444 36.108707"
   version="1.1"
   id="svg5"
   inkscape:version="1.1 (c4e8f9ed74, 2021-05-24)"
   sodipodi:docname="ornates2.svg"
   xmlns:inkscape="http://www.inkscape.org/namespaces/inkscape"
   xmlns:sodipodi="http://sodipodi.sourceforge.net/DTD/sodipodi-0.dtd"
   xmlns="http://www.w3.org/2000/svg"
   xmlns:svg="http://www.w3.org/2000/svg">
  <sodipodi:namedview
     id="namedview7"
     pagecolor="#ffffff"
     bordercolor="#666666"
     borderopacity="1.0"
     inkscape:pageshadow="2"
     inkscape:pageopacity="0.0"
     inkscape:pagecheckerboard="0"
     inkscape:document-units="mm"
     showgrid="false"
     inkscape:zoom="1.3380612"
     inkscape:cx="66.140474"
     inkscape:cy="109.48677"
     inkscape:window-width="2506"
     inkscape:window-height="1403"
     inkscape:window-x="1974"
     inkscape:window-y="0"
     inkscape:window-maximized="1"
     inkscape:current-layer="layer1" />
  <defs
     id="defs2" />
  <g
     inkscape:label="Layer 1"
     inkscape:groupmode="layer"
     id="layer1"
     transform="translate(-161.66162,-76.195394)">
    <path
       style="fill:#000000;stroke-width:0.264583"
       d="m 163.16972,112.0182 c 0,-0.30286 -0.20125,-0.4038 -0.69709,-0.34963 -0.6504,0.0711 -0.6967,0.005 -0.69116,-0.98217 0.003,-0.58208 0.0721,-1.23693 0.15299,-1.45521 0.0809,-0.21828 0.20678,-1.0771 0.27977,-1.90849 0.073,-0.83139 0.26106,-1.75145 0.41793,-2.04457 0.24103,-0.45037 0.2162,-0.50646 -0.1603,-0.36198 -0.45873,0.17603 -0.44805,-0.13174 0.0464,-1.33789 0.17182,-0.41913 0.11376,-0.46544 -0.38508,-0.30711 -0.57384,0.18213 -0.57082,0.1599 0.13066,-0.96166 0.61232,-0.97901 0.63425,-1.07364 0.14889,-0.64259 -0.77685,0.68993 -1.00336,0.35258 -0.3736,-0.55641 0.95078,-1.372345 0.98869,-1.488575 0.37912,-1.162335 -0.50503,0.270275 -0.54611,0.228595 -0.49495,-0.50225 0.0307,-0.43834 0.14509,-0.79723 0.25423,-0.79751 0.38424,-10e-4 0.19317,-0.81291 -0.22949,-0.975098 -0.35911,-0.137805 -0.32721,-0.224494 0.19844,-0.539138 0.3445,-0.20621 0.42181,-0.312373 0.17181,-0.235917 -0.50346,0.153969 -0.89394,-0.238249 -0.48736,-0.489528 0.14153,-0.08748 0.19617,-0.318464 0.1214,-0.513306 -0.0748,-0.194843 0.0495,-0.425418 0.27614,-0.51239 0.5253,-0.20158 0.53515,-0.937868 0.0152,-1.137391 -0.45533,-0.174726 -0.53701,-0.624847 -0.11339,-0.624847 0.15591,0 0.45025,-0.16677 0.65408,-0.3706 0.31388,-0.313878 0.31499,-0.416748 0.007,-0.672124 -0.23605,-0.195904 -0.34261,-0.762215 -0.30422,-1.616697 0.0325,-0.723345 -0.009,-1.383573 -0.0923,-1.467174 -0.0833,-0.0836 -0.17547,-1.005021 -0.20486,-2.047599 -0.0294,-1.042578 -0.10194,-2.788566 -0.16121,-3.879972 -0.0705,-1.297916 0.0173,-2.294565 0.25374,-2.881055 0.22582,-0.560086 0.26978,-1.007224 0.11712,-1.191168 -0.43974,-0.52985 -0.29366,-2.786773 0.19657,-3.037094 0.59006,-0.301296 2.44726,-0.34266 2.80271,-0.06242 0.15669,0.123536 1.01757,0.09946 1.91963,-0.05368 1.37708,-0.233788 1.88792,-0.201245 3.23276,0.205938 1.08259,0.327783 1.7065,0.3995 1.93634,0.22258 0.30694,-0.23626 8.09444,-0.236897 11.31932,-9.26e-4 0.65485,0.04792 1.46734,-0.03345 1.80554,-0.180802 0.43255,-0.188464 0.76117,-0.176591 1.10804,0.04003 0.36044,0.225102 0.7114,0.23186 1.30446,0.02512 0.48311,-0.168414 1.80098,-0.223355 3.25759,-0.135808 2.96312,0.178094 2.62019,0.170826 4.61551,0.09783 1.95446,-0.0715 2.17132,0.252862 1.47666,2.208714 -0.42143,1.186567 -0.41699,1.258939 0.13446,2.19358 0.56322,0.95458 0.56386,0.970529 0.0524,1.289924 -0.45987,0.287197 -0.50114,0.531237 -0.36873,2.180378 0.082,1.021342 0.28466,2.135475 0.45034,2.475851 0.24923,0.512008 0.22282,0.662754 -0.15294,0.873043 -0.57023,0.319117 -0.57384,0.770283 -0.0139,1.74584 0.39117,0.681563 0.39763,0.85358 0.058,1.542796 -0.32632,0.662135 -0.32917,0.885128 -0.0195,1.523077 0.27768,0.571988 0.29456,0.913477 0.0719,1.455208 -0.30213,0.735139 -0.37664,3.01222 -0.22939,7.00989 0.0623,1.69149 -0.01,2.41268 -0.26171,2.62185 -0.22578,0.18738 -0.28744,0.56276 -0.17587,1.07072 0.0945,0.4302 0.17541,1.95783 0.17983,3.39472 0.006,1.8764 0.10979,2.69698 0.36914,2.91222 0.9056,0.75158 0.1691,1.52635 -0.82918,0.87225 -0.57245,-0.37509 -0.89113,-0.39977 -2.07957,-0.1611 -1.44079,0.28935 -2.73521,0.13315 -3.85269,-0.46491 -0.57858,-0.30964 -0.61634,-0.29214 -0.48157,0.22321 0.17884,0.68391 -0.61065,0.78465 -1.14102,0.1456 -0.31042,-0.37403 -0.3653,-0.37421 -0.57368,-0.002 -0.20789,0.37148 -0.29383,0.37022 -0.87861,-0.0129 -0.48102,-0.31519 -0.90432,-0.37169 -1.64152,-0.21912 -0.54635,0.11308 -2.14996,0.22279 -3.56358,0.24381 -2.09132,0.0311 -2.51666,-0.0263 -2.28271,-0.30821 0.37857,-0.45615 0.0838,-0.44029 -0.64648,0.0348 -0.35704,0.23227 -1.18305,0.36928 -2.11406,0.35066 -0.84043,-0.0168 -1.66377,0.10515 -1.82965,0.27103 -0.22573,0.22574 -0.37526,0.20084 -0.59449,-0.099 -0.4556,-0.62306 -3.04302,-0.79817 -4.05574,-0.27447 -1.05572,0.54593 -1.48664,0.54679 -1.27779,0.003 0.12467,-0.32488 0.0527,-0.38318 -0.30242,-0.24498 -0.52767,0.20534 -0.59945,0.21701 -1.06743,0.17348 -0.2458,-0.0229 -0.21171,-0.2223 0.12613,-0.73791 0.4534,-0.69197 0.43849,-0.68874 -0.7215,0.15635 -1.04024,0.75786 -1.33972,0.84841 -2.45943,0.74367 -0.88508,-0.0828 -1.39077,-0.003 -1.65365,0.25942 -0.32851,0.32841 -0.37867,0.32217 -0.37867,-0.0472 z m 0.005,-1.3254 c -0.42073,-0.50696 -0.79906,-0.51917 -0.79906,-0.0258 0,0.20761 0.20836,0.42382 0.46302,0.48047 0.63791,0.14189 0.72893,0.0187 0.33604,-0.45467 z m 3.18934,0.3894 c 1.13767,-0.31604 2.18416,-1.35449 2.04151,-2.02584 -0.0841,-0.39582 -0.18525,-0.33262 -0.54203,0.3387 -0.35825,0.67408 -0.56357,0.80144 -1.12044,0.69499 -0.43185,-0.0826 -0.87242,0.0421 -1.20171,0.34016 -0.5044,0.45647 -0.51989,0.44956 -0.51989,-0.23197 0,-0.38636 -0.10537,-0.70246 -0.23416,-0.70246 -0.12878,0 -0.43146,-0.30114 -0.67262,-0.6692 -0.38668,-0.59014 -0.39232,-0.71534 -0.0478,-1.0599 0.21489,-0.21489 0.46606,-0.62813 0.55816,-0.9183 0.19166,-0.60389 0.60907,-0.66046 1.58667,-0.21503 0.47063,0.21443 0.66145,0.48441 0.60776,0.85989 -0.089,0.62246 -1.09689,0.88716 -1.64522,0.43208 -0.25335,-0.21025 -0.42209,-0.19786 -0.62419,0.0458 -0.20148,0.24294 -0.10631,0.53235 0.34907,1.06159 0.72337,0.84069 2.4,1.0407 2.67682,0.31932 0.22515,-0.58674 -0.0422,-0.73879 -0.68978,-0.39224 -0.61299,0.32806 -1.60017,0.13803 -1.60017,-0.30803 0,-0.17759 0.13977,-0.16315 0.38418,0.0397 0.93722,0.77782 1.99501,-0.49496 1.62769,-1.9585 -0.12506,-0.49827 -0.41923,-0.7037 -1.28546,-0.89771 -0.61781,-0.13837 -0.86315,-0.26434 -0.5452,-0.27992 0.31795,-0.0156 0.89374,0.0917 1.27952,0.23835 0.52479,0.19952 0.67471,0.1865 0.5953,-0.0517 -0.2988,-0.89639 -3.02034,-0.69117 -4.0142,0.3027 -0.4507,0.45069 -0.55537,0.88097 -0.55537,2.28292 0,1.53242 0.0747,1.78429 0.66146,2.22976 0.3638,0.27621 0.89958,0.55086 1.19062,0.61032 0.29104,0.0594 0.5887,0.12366 0.66146,0.14266 0.0728,0.019 0.55785,-0.0837 1.07798,-0.22815 z m -2.97967,-4.67758 c 0.19099,-0.0764 0.4192,-0.067 0.50712,0.0209 0.0879,0.0879 -0.0684,0.15046 -0.34727,0.13897 -0.30822,-0.0127 -0.37092,-0.0754 -0.15985,-0.15985 z m 9.16034,4.41407 c 1.19576,0 1.20802,-0.009 1.20802,-0.89328 0,-0.88464 -0.0134,-0.89454 -1.38907,-1.02379 -0.76398,-0.0718 -1.62718,-0.21605 -1.91823,-0.3206 -0.4069,-0.14616 -0.35764,-0.0319 0.2132,0.49463 0.50616,0.46686 1.03931,0.68471 1.67569,0.68471 0.63043,0 0.89673,0.10733 0.82055,0.33073 -0.27635,0.81034 -2.7064,-0.39068 -4.07046,-2.01178 -0.53668,-0.6378 -0.71382,-0.71912 -0.90578,-0.4158 -0.34722,0.54863 -0.30438,0.69714 0.2423,0.8401 0.5347,0.13983 0.92984,1.49257 0.64943,2.2233 -0.11457,0.29856 -0.0691,0.38075 0.13949,0.25186 0.17025,-0.10522 0.30954,-0.41538 0.30954,-0.68924 0,-0.27387 0.10659,-0.56382 0.23686,-0.64433 0.27215,-0.16819 0.55689,0.44766 0.55689,1.20444 0,0.42899 0.087,0.47028 0.51178,0.24294 0.28147,-0.15064 1.05538,-0.27389 1.71979,-0.27389 z m 3.58927,0.24675 c 0,-0.25258 0.4219,-0.19713 1.4628,0.19227 0.14969,0.056 0.50688,-0.0812 0.79375,-0.30495 0.49921,-0.38932 0.4904,-0.3997 -0.20544,-0.24188 -0.39986,0.0907 -0.92415,0.0892 -1.16509,-0.003 -0.39521,-0.15166 -0.3888,-0.20495 0.0656,-0.54454 0.48491,-0.36244 0.4825,-0.37112 -0.0646,-0.23352 -0.31254,0.0786 -0.84833,-0.001 -1.19062,-0.17784 -0.5145,-0.26516 -0.56504,-0.26011 -0.29164,0.0291 0.42424,0.44881 0.43688,0.9852 0.0132,0.56156 -0.45015,-0.45016 -0.74017,-0.3935 -0.74488,0.14552 -0.003,0.34931 -0.0582,0.3776 -0.22463,0.11518 -0.12131,-0.1913 -0.16514,-0.63779 -0.0974,-0.99218 0.0704,-0.36842 -0.002,-0.64435 -0.16929,-0.64435 -0.41344,0 -0.28055,1.36398 0.18688,1.91823 0.42494,0.50386 1.6314,0.63742 1.6314,0.1806 z m 6.50709,-0.57687 c -0.0293,-0.85845 -0.2925,-0.93479 -0.68626,-0.19904 -0.26644,0.49785 -0.32179,0.50388 -0.93535,0.10186 -0.35868,-0.23502 -0.65215,-0.30907 -0.65215,-0.16457 0,0.40206 1.12219,1.05949 1.74459,1.02206 0.4264,-0.0256 0.54825,-0.20073 0.52917,-0.76031 z m 7.85071,-2.00264 0.66707,-1.40672 0.42506,0.85205 c 0.23379,0.46864 0.42507,0.98575 0.42507,1.14914 0,0.18701 0.39208,0.25968 1.05833,0.19614 0.58208,-0.0555 1.05833,-0.20474 1.05833,-0.33162 0,-0.12688 0.29126,-0.42153 0.64723,-0.65478 0.48325,-0.31663 0.76816,-0.35373 1.12448,-0.14644 0.4524,0.26319 0.45078,0.27807 -0.0311,0.2857 -0.6065,0.01 -1.47604,0.7399 -1.47604,1.23967 0,0.3932 -0.41981,0.48228 -0.63464,0.13468 -0.16618,-0.26887 -0.96405,-0.23123 -1.44878,0.0683 -0.26723,0.16516 -0.2769,0.26684 -0.0393,0.41368 0.22731,0.14049 0.19923,0.23912 -0.10087,0.35428 -0.22874,0.0878 -0.39264,0.0746 -0.36423,-0.0293 0.11073,-0.40493 -0.34066,-2.43787 -0.5413,-2.43787 -0.21634,0 -1.10421,1.68492 -1.10421,2.0955 0,0.41466 1.78706,1.0795 2.90165,1.0795 1.39371,0 2.15405,-0.38679 1.95833,-0.99622 -0.11066,-0.3446 -0.0844,-0.37101 0.1054,-0.10596 0.1986,0.27735 0.37412,0.19879 0.81871,-0.36641 0.43012,-0.54681 0.56591,-1.08692 0.56591,-2.25096 0,-2.55125 -1.4328,-3.70587 -4.10201,-3.30559 -0.62853,0.0943 -1.2068,0.33818 -1.28504,0.54207 -0.099,0.2579 -0.005,0.32335 0.3073,0.21509 0.3552,-0.12296 0.33138,-0.0313 -0.11353,0.43691 -0.5012,0.5274 -0.63205,0.5539 -1.19063,0.24105 l -0.62755,-0.35148 0.59532,-0.0904 c 0.65638,-0.0996 0.66029,-0.10553 0.44369,-0.66998 -0.13261,-0.34557 -0.247,-0.34037 -0.91233,0.0415 -0.41839,0.24012 -0.88339,0.70584 -1.03333,1.03494 -0.23093,0.50683 -0.19593,0.59835 0.22882,0.59835 0.27579,0 0.5434,-0.12588 0.59469,-0.27973 0.0513,-0.15385 0.29864,-0.2009 0.54969,-0.10457 0.66979,0.25703 0.28701,0.64888 -0.63385,0.64888 -0.61714,0 -0.77737,0.10473 -0.70837,0.46302 0.049,0.25466 0.26614,0.46302 0.48242,0.46302 0.21629,0 0.46633,0.0998 0.55564,0.22186 0.0893,0.12202 0.42644,-0.2054 0.74918,-0.7276 0.32274,-0.52221 0.64365,-0.94947 0.71313,-0.94947 0.15403,0 -0.0334,0.32754 -1.02686,1.79449 -0.75839,1.11985 -2.71573,2.6581 -3.00905,2.36478 -0.0833,-0.0833 0.18698,-0.32756 0.60069,-0.54274 0.4137,-0.21519 1.04485,-0.70449 1.40255,-1.08734 l 0.65035,-0.6961 -0.97258,0.40637 c -0.53493,0.22351 -1.27407,0.40638 -1.64255,0.40638 -0.49997,0 -0.66995,0.13822 -0.66995,0.54478 0,0.29963 -0.0893,0.48965 -0.19844,0.42226 -0.10914,-0.0674 -0.21509,0.15533 -0.23543,0.49491 -0.0252,0.42132 0.10081,0.60798 0.39687,0.58768 0.23863,-0.0164 0.7712,0.0563 1.18348,0.1615 0.61982,0.15813 0.77405,0.0978 0.89076,-0.34849 0.1756,-0.67148 0.60859,-0.71037 0.60859,-0.0547 0,0.82807 0.38516,0.91801 0.56,0.13078 0.0914,-0.41148 0.46633,-1.38116 0.83322,-2.15486 z m 2.13134,-0.11699 c -0.63731,-0.28759 -1.29275,-1.59232 -1.02089,-2.03219 0.0954,-0.15431 0.0312,-0.28056 -0.14249,-0.28056 -0.56767,0 1.01476,-1.05883 1.82446,-1.22077 0.43394,-0.0868 1.00914,-0.0282 1.27823,0.13008 0.39836,0.23439 0.33008,0.25811 -0.36755,0.12766 -1.24891,-0.23353 -2.1859,0.45154 -2.1859,1.59819 0,0.99026 0.34303,1.38561 1.32291,1.52469 0.45872,0.0651 0.53982,0.1428 0.26459,0.25347 -0.21829,0.0878 -0.65629,0.0425 -0.97336,-0.10057 z m 0.17961,-0.85754 c -0.27526,-0.33166 -0.23674,-0.39687 0.23442,-0.39687 0.50069,0 0.52653,-0.061 0.23084,-0.54528 -0.28264,-0.46286 -0.25909,-0.6001 0.15577,-0.90787 0.2688,-0.19943 0.6795,-0.28939 0.91266,-0.19992 0.29966,0.11499 0.32546,0.1955 0.088,0.27465 -0.2275,0.0758 -0.15914,0.23578 0.21182,0.49561 0.31191,0.21847 0.54773,0.67591 0.54773,1.0625 0,0.52254 -0.0782,0.61395 -0.33961,0.397 -0.21528,-0.17867 -0.48163,-0.19201 -0.7276,-0.0364 -0.55638,0.35188 -0.93753,0.3103 -1.31404,-0.14338 z m 1.71979,-0.67988 c 0,-0.20416 -0.23813,-0.409 -0.52917,-0.4552 -0.40156,-0.0637 -0.44124,-0.0239 -0.16454,0.16523 0.20707,0.14154 0.2769,0.39117 0.16161,0.57772 -0.13229,0.21404 -0.075,0.2858 0.16454,0.20597 0.20216,-0.0674 0.36756,-0.28956 0.36756,-0.49372 z m 2.08005,4.11946 c -0.0838,-0.21828 -0.31815,-0.39687 -0.52086,-0.39687 -0.52795,0 -0.45571,0.46759 0.0944,0.61136 0.25467,0.0666 0.48905,0.13482 0.52087,0.1517 0.0318,0.0169 -0.0107,-0.14791 -0.0945,-0.36619 z m -16.88103,-0.90065 c -0.3247,-0.52538 -0.67715,-0.30251 -0.67715,0.42818 0,0.6617 0.0337,0.6845 0.42818,0.28998 0.2355,-0.2355 0.34754,-0.55867 0.24897,-0.71816 z m 5.53603,0.42995 c 0.38969,-0.55635 0.27583,-1.20733 -0.2924,-1.67175 -0.59154,-0.48347 0.77288,-0.97343 1.62703,-0.58426 0.76775,0.34981 1.29515,0.0283 0.92801,-0.56578 -0.19497,-0.31545 -0.30313,-0.31978 -0.65684,-0.0262 -0.23289,0.19328 -0.48694,0.28791 -0.56456,0.21029 -0.0776,-0.0776 0.22104,-0.39902 0.66371,-0.71423 0.86123,-0.61325 2.65993,-3.1333 2.67325,-3.74535 0.006,-0.25584 0.0919,-0.22536 0.28085,0.0991 0.15004,0.25772 0.38454,0.39952 0.52112,0.31512 0.13658,-0.0844 0.24832,-0.0274 0.24832,0.12672 0,0.44418 0.98444,0.32522 1.16318,-0.14055 0.19398,-0.50551 -0.0439,-0.97103 -0.38771,-0.75858 -0.29565,0.18272 -0.28948,-0.0889 0.0183,-0.80505 0.18969,-0.44143 0.23047,-0.45377 0.24599,-0.0744 0.0119,0.29215 0.16048,0.40027 0.41547,0.30242 0.21828,-0.0838 0.39687,-0.0135 0.39687,0.15621 0,0.17638 0.14164,0.22341 0.33073,0.10981 0.19241,-0.1156 0.16474,0.009 -0.0661,0.2985 -0.36506,0.45734 -0.35445,0.48258 0.13229,0.31473 0.521,-0.17967 0.52124,-0.17635 0.0156,0.21504 -0.4173,0.32298 -0.43501,0.39752 -0.0945,0.39752 0.45309,0 0.74034,-0.52775 0.74034,-1.36017 0,-0.32807 -0.11391,-0.45275 -0.30547,-0.33436 -0.18312,0.11318 -0.23388,0.073 -0.12673,-0.10042 0.0983,-0.15906 0.007,-0.38581 -0.204,-0.5039 -0.21051,-0.11808 -0.43112,-0.69095 -0.49025,-1.27303 -0.0931,-0.916345 -0.11348,-0.864885 -0.15199,0.38365 -0.0287,0.92927 -0.13552,1.35093 -0.30053,1.18593 -0.16501,-0.16501 -0.1504,-0.89359 0.0411,-2.049135 0.2233,-1.34758 0.22118,-1.86902 -0.009,-2.09874 -0.23114,-0.231155 -0.30565,0.12643 -0.30565,1.46705 0,1.175925 -0.1002,1.750435 -0.29765,1.706555 -0.16371,-0.0364 -0.35137,0.11245 -0.41702,0.33073 -0.1061,0.35278 -0.0882,0.35278 0.16131,0 0.41893,-0.59236 0.3655,0.098 -0.0924,1.1939 -0.23513,0.56275 -0.27315,0.88897 -0.0992,0.85139 0.15509,-0.0335 0.3404,0.0995 0.4118,0.29551 0.10157,0.27882 0.0155,0.29525 -0.39516,0.0755 -0.28874,-0.15453 -0.61107,-0.19586 -0.71628,-0.0918 -0.10522,0.10403 0.0272,-0.19265 0.29418,-0.65928 0.38047,-0.6649 0.41607,-0.91784 0.16458,-1.16934 -0.25149,-0.25149 -0.38121,-0.18243 -0.59965,0.31926 -0.25935,0.59566 -0.26775,0.58498 -0.12079,-0.15359 0.0869,-0.43656 0.2682,-0.83344 0.40296,-0.88194 0.13476,-0.0485 0.24502,-0.25313 0.24502,-0.45472 0,-0.20159 0.15817,-0.30583 0.35149,-0.23164 0.26237,0.10068 0.36105,-0.22012 0.38915,-1.265075 0.035,-1.30158 -0.0306,-1.45975 -0.93364,-2.250968 -0.53421,-0.468058 -0.90117,-0.921137 -0.81546,-1.006841 0.0857,-0.08571 0.48171,0.146193 0.88001,0.515329 0.3983,0.369135 0.82005,0.611912 0.9372,0.539504 0.11716,-0.07241 0.29566,0.0021 0.39666,0.165497 0.13012,0.210535 0.24995,0.192513 0.41111,-0.06183 0.17302,-0.273059 0.23739,-0.232326 0.26897,0.170189 0.0228,0.291042 0.0638,0.76729 0.0911,1.05833 0.0273,0.29105 0.07,1.03519 0.0948,1.65365 0.0255,0.633315 0.17594,1.124475 0.34446,1.124475 0.29031,0 0.22374,-1.00884 -0.14839,-2.248955 -0.0873,-0.29104 0.0162,-0.17198 0.23014,0.26458 0.57794,1.179485 0.52534,0.0168 -0.058,-1.281347 -0.33165,-0.738074 -0.77929,-1.173203 -1.63315,-1.5875 -0.64695,-0.313903 -1.23149,-0.749326 -1.29899,-0.967608 -0.10287,-0.332658 -0.055,-0.340987 0.29581,-0.05147 0.35131,0.289913 0.46319,0.268661 0.69644,-0.132292 0.15284,-0.26273 0.28152,-0.335891 0.28594,-0.162578 0.004,0.173313 -0.12139,0.395111 -0.27959,0.492884 -0.20559,0.127062 -0.20245,0.262958 0.011,0.476424 0.22182,0.221817 0.35442,0.208427 0.5154,-0.05205 0.1732,-0.280242 0.24905,-0.266509 0.37755,0.06836 0.18934,0.493398 0.7271,0.571351 0.60935,0.08833 -0.0443,-0.181901 -0.0307,-0.241433 0.0304,-0.132292 0.061,0.109141 0.36894,0.194817 0.68424,0.190392 0.52558,-0.0074 0.53378,-0.03102 0.0986,-0.284221 -0.3363,-0.195691 -0.42156,-0.443334 -0.29256,-0.849775 0.16743,-0.527532 0.14359,-0.541892 -0.29688,-0.1788 -0.44594,0.367612 -0.46658,0.345237 -0.29968,-0.324913 0.15858,-0.636772 0.0645,-0.780258 -0.81601,-1.245078 -0.55495,-0.292944 -0.79732,-0.530537 -0.54784,-0.537057 0.24608,-0.0064 0.521,0.107369 0.61093,0.25289 0.31365,0.507485 0.58711,0.259503 0.45809,-0.415406 -0.0923,-0.482996 -0.212,-0.59797 -0.4131,-0.396875 -0.41476,0.414763 -0.70644,0.345943 -0.70644,-0.166678 0,-0.349838 -0.0706,-0.379236 -0.3175,-0.132291 -0.38231,0.382307 -0.83793,0.424066 -0.61042,0.05595 0.0927,-0.149982 -0.0135,-0.194339 -0.24897,-0.103984 -0.60759,0.233156 -0.49803,0.625523 0.1847,0.661424 0.48129,0.02531 0.44329,0.06999 -0.19844,0.233279 -0.74919,0.190637 -0.75662,0.204905 -0.13229,0.254168 0.3638,0.02871 0.51189,0.112493 0.32908,0.186194 -0.18281,0.0737 -0.27571,0.225695 -0.20644,0.337765 0.0693,0.112071 -0.18674,0.143995 -0.56888,0.07094 -0.47137,-0.09011 -0.8041,0.01664 -1.03467,0.331953 -0.29099,0.397965 -0.21123,0.651756 0.55492,1.765542 0.49213,0.715421 0.96935,1.535742 1.0605,1.822934 0.0911,0.287192 0.26562,0.522166 0.38772,0.522166 0.12209,0 0.15869,0.24204 0.0813,0.53787 -0.0812,0.31042 0.053,0.75189 0.3174,1.044 0.43679,0.48265 0.43343,0.50428 -0.0723,0.46618 -0.42209,-0.0318 -0.56338,-0.28918 -0.69233,-1.26125 -0.17804,-1.34213 -1.37369,-3.438167 -2.58073,-4.52415 -0.42465,-0.382054 -1.45186,-1.06349 -2.2827,-1.514303 -0.83084,-0.450813 -1.36179,-0.822833 -1.17989,-0.826711 0.1819,-0.0039 0.33073,-0.185645 0.33073,-0.403926 0,-0.282942 -0.28483,-0.395712 -0.99219,-0.392823 -0.73802,0.003 -0.89052,0.06975 -0.59531,0.260532 0.59796,0.386431 0.35067,0.323673 -2.38125,-0.604312 -1.38245,-0.469594 -2.54331,-1.00198 -2.57969,-1.183081 -0.091,-0.453222 0.1974,-0.412228 0.77454,0.110076 0.8954,0.810323 0.80916,0.138286 -0.18998,-1.480441 -0.54477,-0.882608 -1.03916,-1.604742 -1.09863,-1.604742 -0.0595,0 -0.0517,0.506015 0.0172,1.124479 0.069,0.618463 0.14364,1.124479 0.16598,1.124479 0.0223,0 0.0805,0.208359 0.12926,0.463021 0.10886,0.568686 -0.0852,0.577104 -1.22323,0.05305 -0.78367,-0.36088 -0.80315,-0.391957 -0.16267,-0.259543 0.72403,0.149688 0.72761,0.143255 0.72761,-1.309823 0,-0.85857 -0.11637,-1.460249 -0.28242,-1.460249 -0.16492,0 -0.2103,-0.227181 -0.10909,-0.546093 0.13664,-0.430502 0.0704,-0.528509 -0.3129,-0.463021 -0.31617,0.05402 -0.46354,-0.0592 -0.42138,-0.323742 0.0396,-0.248572 -0.15303,-0.423226 -0.49525,-0.449005 -0.52687,-0.03969 -0.54839,0.03935 -0.36292,1.332857 0.10844,0.756275 0.2164,1.758007 0.23992,2.226071 l 0.0428,0.851025 -0.80241,-0.468634 c -1.45703,-0.850955 -1.90399,-2.874296 -1.03803,-4.699159 0.4495,-0.947248 0.8077,-1.170323 0.8077,-0.503007 0,0.218281 -0.11906,0.396875 -0.26458,0.396875 -0.14553,0 -0.19541,0.06918 -0.11086,0.153728 0.0846,0.08455 0.41461,0.01411 0.73347,-0.15654 0.5167,-0.276528 0.69741,-0.187812 1.6618,0.815832 0.59513,0.619356 1.12531,0.996358 1.17816,0.837784 0.13832,-0.414955 -0.99029,-1.635853 -1.91917,-2.076111 -0.43656,-0.206915 -0.6046,-0.326039 -0.37342,-0.26472 0.23118,0.06132 0.82649,0.01572 1.32292,-0.101326 l 0.90258,-0.212814 -0.87929,-0.02708 c -0.67432,-0.02077 -0.85929,-0.131012 -0.79345,-0.472893 0.1762,-0.914925 4.75872,-1.57089 5.08235,-0.727514 0.11644,0.303438 0.0356,0.375794 -0.30242,0.270623 -0.25375,-0.07895 -0.63824,-0.03261 -0.85442,0.102988 -0.26599,0.166834 -0.0129,0.211745 0.78274,0.138913 0.65269,-0.05974 1.73849,0.07641 2.44053,0.306038 0.69559,0.227517 1.56618,0.338 1.93466,0.245519 0.77971,-0.195695 1.33782,0.05822 3.23878,1.47348 1.6224,1.207873 1.8892,0.978335 0.32446,-0.279132 -4.03661,-3.243901 -12.19055,-3.900754 -14.60499,-1.176528 -0.59039,0.666132 -1.26374,2.58388 -1.26374,3.599187 0,1.013071 0.90375,2.485039 1.81148,2.950415 0.38613,0.197964 2.51592,0.965622 4.73286,1.705908 4.44388,1.483914 5.67464,2.038983 7.55037,3.405188 1.76325,1.284289 2.74706,2.821758 3.12778,4.888005 0.28524,1.548045 0.26036,1.901645 -0.25267,3.590685 -0.43959,1.44726 -0.86417,2.19642 -1.86611,3.2927 -1.83325,2.00587 -3.67291,2.87624 -6.4335,3.04379 -3.82776,0.23231 -6.96038,-0.74903 -10.22334,-3.20262 l -1.42083,-1.0684 -0.4974,0.61426 c -0.27356,0.33784 -0.49343,0.74989 -0.48859,0.91567 0.005,0.16578 0.24645,0.016 0.5369,-0.33275 l 0.52809,-0.63417 0.58759,0.54294 c 0.88908,0.82153 3.99226,2.44654 5.69212,2.98072 0.83052,0.26099 1.30943,0.48539 1.06424,0.49867 -0.24518,0.0133 -0.76771,-0.0983 -1.16117,-0.24785 -1.13296,-0.43075 -1.10023,-0.0465 0.0365,0.42844 0.7108,0.29699 1.15151,0.34855 1.43987,0.16847 0.54748,-0.34191 6.30425,-0.21024 6.66698,0.15249 0.39821,0.39822 0.0544,1.1351 -0.44095,0.94502 -0.22379,-0.0859 -0.40689,-0.028 -0.40689,0.1287 0,0.50575 1.85332,0.25634 2.24443,-0.30205 z m -0.92151,-0.27013 c 0,-0.3347 -0.14089,-0.74943 -0.31309,-0.92163 -0.1722,-0.1722 -0.22526,-0.40092 -0.11791,-0.50828 0.10736,-0.10735 0.30595,-0.02 0.44133,0.19403 0.2569,0.40622 0.352,1.84442 0.12196,1.84442 -0.0728,0 -0.13229,-0.27384 -0.13229,-0.60854 z M 188.834,94.017655 c 0,-0.218281 0.20836,-0.395051 0.46302,-0.392823 0.36235,0.0032 0.38461,0.05373 0.10235,0.232555 -0.3045,0.192919 -0.3045,0.250841 0,0.371936 0.25146,0.100002 0.22047,0.149756 -0.10235,0.164319 -0.25466,0.01149 -0.46302,-0.157705 -0.46302,-0.375987 z m 2.51354,-0.414822 c -0.43656,-0.279638 -0.61516,-0.506413 -0.39688,-0.503943 0.21828,0.0025 0.69453,0.23732 1.05834,0.52189 0.84594,0.661705 0.37985,0.649058 -0.66146,-0.01795 z M 174.28222,82.508599 c 0,-0.114558 0.18833,-0.280556 0.41852,-0.368886 0.556,-0.213356 0.56367,-0.211517 0.71005,0.17013 0.0775,0.202138 -0.11721,0.345565 -0.50086,0.368886 -0.34524,0.02099 -0.62771,-0.05557 -0.62771,-0.17013 z m 9.16457,-0.448949 c -0.10123,-0.101226 -0.32943,-0.217194 -0.50712,-0.257707 -0.17769,-0.04051 -0.73979,-0.183629 -1.24911,-0.318036 -0.92182,-0.243262 -0.92243,-0.244406 -0.1323,-0.250954 1.04527,-0.0087 3.74304,0.960628 2.75608,0.990238 -0.37593,0.01128 -0.76633,-0.06231 -0.86755,-0.163541 z m -4.98486,28.26862 c 0.27591,-0.17503 0.26656,-0.2814 -0.0477,-0.5422 -0.31889,-0.26466 -0.44483,-0.22378 -0.68329,0.22179 -0.31609,0.59062 0.0512,0.75162 0.73098,0.32041 z m 3.49321,-0.43562 c 0.27854,-0.33562 0.22228,-0.39687 -0.36448,-0.39687 -0.67075,0 -0.88237,0.25246 -0.51746,0.61736 0.2738,0.2738 0.52353,0.21137 0.88194,-0.22049 z m 1.71979,0.13229 c -0.0899,-0.14552 -0.30532,-0.26276 -0.47863,-0.26053 -0.18934,0.002 -0.15671,0.10642 0.0818,0.26053 0.50829,0.32849 0.59989,0.32849 0.39687,0 z m 2.01721,-1.39347 c -0.26131,-0.25936 -0.2917,-0.22897 -0.14811,0.14811 0.0993,0.26094 0.2473,0.40778 0.32876,0.32632 0.0815,-0.0815 1.7e-4,-0.29495 -0.18065,-0.47443 z m -12.62555,-0.5909 c -0.86978,-0.8061 -1.19919,-0.82754 -1.64895,-0.10736 -0.33077,0.52964 -0.30729,0.54645 0.53166,0.38082 0.65051,-0.12842 0.77498,-0.10168 0.48084,0.10331 -0.3112,0.21687 -0.20829,0.27746 0.47665,0.28063 l 0.87353,0.004 z m -2.64612,0.0269 c 0.18556,0.0712 0.49011,-0.0545 0.67676,-0.27945 0.29677,-0.35758 0.20245,-0.40891 -0.75136,-0.40891 -1.09595,0 -1.49181,-0.38555 -0.62771,-0.61137 0.28487,-0.0744 0.18307,-0.13281 -0.26458,-0.15169 -0.40186,-0.017 -0.72761,0.10974 -0.72761,0.28299 0,0.43712 1.16011,1.62996 1.26862,1.30441 0.0487,-0.14599 0.24031,-0.20719 0.42588,-0.13598 z m 17.93304,-0.51348 c -0.13305,-0.16894 -0.29562,-0.4799 -0.36128,-0.69102 -0.0657,-0.21111 -0.18672,-0.27064 -0.26904,-0.13229 -0.22987,0.38636 0.27598,1.49898 0.59256,1.30333 0.1729,-0.10686 0.18732,-0.29011 0.0378,-0.48002 z m -21.7442,-0.1905 c 0,-0.13693 -0.11907,-0.24896 -0.26459,-0.24896 -0.14552,0 -0.26458,0.18562 -0.26458,0.41249 0,0.22687 0.11906,0.3389 0.26458,0.24896 0.14552,-0.0899 0.26459,-0.27555 0.26459,-0.41249 z m -0.79375,-0.11667 c 0,-0.21828 -0.11907,-0.39688 -0.26459,-0.39688 -0.14552,0 -0.26458,0.1786 -0.26458,0.39688 0,0.21828 0.11906,0.39687 0.26458,0.39687 0.14552,0 0.26459,-0.17859 0.26459,-0.39687 z m 2.40845,-3.6257 -0.054,-3.51805 0.84072,1.19062 c 1.0432,1.47737 3.16614,3.22231 5.18895,4.26503 4.99188,2.5732 9.81445,1.88844 11.60652,-1.64803 1.24535,-2.45758 1.08399,-4.709765 -0.46372,-6.472513 -1.08966,-1.24106 -1.95175,-1.647703 -6.91083,-3.259791 -6.04332,-1.964551 -7.50778,-2.82177 -8.65186,-5.064361 -0.81145,-1.590566 -0.90801,-2.783978 -0.37064,-4.580602 0.39013,-1.304316 0.77857,-1.919874 1.95244,-3.093963 1.84476,-1.845114 3.36586,-2.40022 7.04028,-2.569265 2.47361,-0.1138 2.84314,-0.06191 5.15937,0.724524 1.37221,0.465907 2.76282,1.0144 3.09024,1.218874 0.32743,0.204474 0.87858,0.554628 1.22479,0.778121 0.6024,0.388867 0.65379,0.368947 1.19459,-0.463021 l 0.5651,-0.869371 -0.0374,2.565197 c -0.0299,2.051116 0.0489,2.651424 0.39292,2.995461 0.51646,0.516458 0.53386,0.712203 0.10175,1.144318 -0.26164,0.261634 -0.24817,0.379316 0.0661,0.578032 0.55355,0.349961 0.7111,0.319714 0.90009,-0.172793 0.0908,-0.236726 0.0182,-0.623679 -0.16141,-0.859896 -0.17961,-0.236217 -0.22238,-0.341221 -0.095,-0.233343 0.26013,0.220385 0.94166,-0.252748 0.94166,-0.653722 0,-0.143271 -0.18722,-0.188651 -0.41604,-0.100843 -0.71679,0.275059 -1.40268,-0.296113 -1.37846,-1.147914 0.0122,-0.429338 0.13819,-0.756831 0.27996,-0.727764 0.14178,0.02907 0.31867,-0.11495 0.39309,-0.32004 0.0864,-0.238104 0.003,-0.322118 -0.23151,-0.232427 -0.28874,0.110561 -0.36789,-0.218413 -0.37181,-1.545339 -0.003,-0.927191 0.0866,-1.685802 0.19844,-1.685802 0.11188,0 0.20342,0.353451 0.20342,0.785447 0,0.589472 0.099,0.747447 0.39687,0.63315 0.51067,-0.19596 0.51185,-1.432504 0.002,-2.095631 -0.38303,-0.498189 -0.41675,-0.487733 -1.12448,0.348691 -0.40128,0.474254 -0.87141,0.861207 -1.04472,0.859895 -0.17331,-0.0013 -0.40121,0.136911 -0.50643,0.307161 -0.13352,0.216048 -0.0383,0.251272 0.31512,0.116617 0.35816,-0.136447 0.42445,-0.110247 0.22645,0.08949 -0.19809,0.199817 -1.01064,-0.04488 -2.77813,-0.836599 -1.37398,-0.61546 -2.5343,-1.138756 -2.57848,-1.162879 -0.0443,-0.02412 -0.0988,-0.287195 -0.12119,-0.584604 -0.045,-0.597721 -0.46005,-0.507806 -0.46005,0.09967 0,0.628236 -0.78816,0.430403 -1.05222,-0.264111 -0.13495,-0.354954 -0.49641,-0.779728 -0.80325,-0.943941 -0.54816,-0.293364 -0.55056,-0.28442 -0.13816,0.51308 0.31766,0.614291 0.33765,0.810664 0.0822,0.807597 -0.50255,-0.006 -0.8831,-0.328539 -1.0879,-0.92199 -0.15047,-0.435987 -0.0831,-0.412693 0.38251,0.132292 0.55514,0.649773 0.55847,0.650268 0.18825,0.02802 -0.219,-0.368076 -0.67421,-0.665137 -1.08663,-0.709108 -0.9423,-0.100465 -1.13362,0.28079 -0.3991,0.795274 0.48511,0.33978 0.50988,0.414979 0.13672,0.414979 -0.25066,0 -0.45574,-0.11104 -0.45574,-0.246754 0,-0.135715 -0.23986,-0.32288 -0.53301,-0.415924 -0.29316,-0.09304 -0.46472,-0.279661 -0.38126,-0.414705 0.0835,-0.135044 0.0257,-0.245534 -0.12845,-0.245534 -0.47187,0 -0.31247,0.475289 0.31511,0.939593 l 0.59531,0.440433 -0.75291,-0.172239 c -0.44625,-0.102087 -0.90882,-0.04285 -1.13569,0.14544 -0.296,0.245656 -0.45419,0.246275 -0.69773,0.0027 -0.24355,-0.243549 -0.18102,-0.349978 0.27579,-0.469438 0.75735,-0.198052 0.75534,-0.516109 -0.005,-0.719754 -1.04266,-0.279422 -1.27797,-0.184906 -1.561,0.626987 -0.34507,0.989859 -0.80015,1.039118 -0.69797,0.07555 0.0917,-0.86447 -0.70538,-1.168055 -1.21977,-0.464591 -0.31041,0.424514 -0.38357,0.423416 -1.23679,-0.01857 -1.12672,-0.583664 -2.86778,-0.608649 -4.65417,-0.06679 -1.27937,0.38807 -1.37374,0.384979 -1.48715,-0.04871 -0.0908,-0.347298 -0.39591,-0.46307 -1.22032,-0.46307 -1.19915,0 -1.56269,0.279323 -1.09578,0.841918 0.20637,0.248664 0.21349,0.415323 0.0228,0.533191 -0.41262,0.25501 -0.3356,0.933983 0.10594,0.933983 0.33478,0 0.33478,0.11631 0,0.917543 -0.21085,0.504649 -0.37467,1.367852 -0.36404,1.918229 l 0.0193,1.000686 0.47716,-1.340327 c 0.65825,-1.84902 1.12349,-2.532585 1.6003,-2.351298 0.25919,0.09855 0.30539,0.06256 0.13283,-0.103476 -0.14552,-0.140018 -0.50134,-0.297267 -0.79071,-0.349443 -0.28937,-0.05218 -0.56796,-0.331624 -0.61908,-0.620995 -0.0911,-0.51556 -0.0853,-0.515947 0.29002,-0.01931 0.36656,0.485091 0.4302,0.487927 1.48434,0.06615 1.22613,-0.490604 1.69427,-0.566188 1.09064,-0.176093 -0.35277,0.227983 -0.35277,0.254864 0,0.241936 0.66702,-0.02445 1.36695,-0.380425 1.27635,-0.649141 -0.0471,-0.139839 0.21193,-0.278251 0.57574,-0.307581 l 0.66145,-0.05333 -0.66145,0.248186 c -0.59586,0.22357 -0.57604,0.236047 0.19987,0.125801 0.87436,-0.124236 2.18138,0.29589 2.18138,0.701181 0,0.122163 -0.20241,0.222114 -0.4498,0.222114 -0.34068,0 -0.37549,0.07429 -0.1435,0.306286 0.23199,0.231994 0.41453,0.216452 0.75254,-0.06407 0.40091,-0.332722 0.42712,-0.310073 0.25797,0.222881 -0.16481,0.519262 -0.0953,0.592732 0.55714,0.589186 0.40999,-0.0022 0.8999,-0.102035 1.08869,-0.221793 0.4194,-0.266046 0.19617,-0.479709 -1.5349,-1.46911 -0.65428,-0.373957 -1.00942,-0.681356 -0.7892,-0.683109 0.22023,-0.0017 0.99413,0.392296 1.7198,0.875665 1.01391,0.675376 1.47252,0.834625 1.98084,0.687832 1.31404,-0.379475 1.42709,-0.208028 0.18328,0.277959 -0.69956,0.273336 -1.42861,0.627008 -1.62011,0.785939 -0.3516,0.2918 -0.83458,0.210905 -1.95383,-0.327251 -0.41157,-0.197889 -0.7488,-0.208568 -1.02785,-0.03255 -0.76666,0.483594 -0.34215,0.772369 1.05142,0.715232 1.25151,-0.05131 1.33508,-0.02074 0.88072,0.322253 -0.2761,0.20842 -0.62192,0.304833 -0.76849,0.214249 -0.14657,-0.09058 -0.19504,-0.04909 -0.10771,0.0922 0.0873,0.141294 -0.19143,0.784768 -0.61945,1.429942 -0.75214,1.133745 -1.06679,1.276358 -0.50659,0.22961 0.16995,-0.317547 0.17671,-0.511773 0.0178,-0.511773 -0.32988,0 -0.64124,0.971433 -0.42401,1.322917 0.29884,0.483529 -0.15013,1.322916 -0.7076,1.322916 -0.38971,0 -0.49374,0.119607 -0.37445,0.430492 0.0974,0.253729 -0.0268,0.587705 -0.30242,0.813371 -0.25719,0.210583 -0.3273,0.312753 -0.1558,0.227042 0.182,-0.09096 0.35976,0.09364 0.42699,0.4434 0.0997,0.518599 0.12002,0.501325 0.15121,-0.128367 0.0619,-1.249491 0.56421,-0.794159 0.58379,0.529166 0.0102,0.691224 0.11232,1.494896 0.22687,1.785938 0.11455,0.291042 0.0924,0.78541 -0.0493,1.098596 -0.17178,0.379786 -0.16144,0.820372 0.0311,1.322916 0.27996,0.730958 0.28791,0.73371 0.26597,0.09203 -0.0511,-1.492468 0.009,-1.674945 0.43282,-1.322917 0.43984,0.365029 0.55086,0.920145 0.1323,0.661458 -0.14552,-0.08994 -0.26459,0.0221 -0.26459,0.248969 0,0.226869 0.11533,0.41249 0.25628,0.41249 0.14096,0 0.18484,0.186186 0.0975,0.413747 -0.14144,0.368598 0.58883,1.172294 0.97795,1.076279 0.20263,-0.05 2.10785,1.890107 2.10785,2.146449 0,0.117992 -0.17731,0.467678 -0.39403,0.77708 -0.34997,0.499653 -0.34763,0.673571 0.0209,1.555543 0.22819,0.546147 0.51152,1.480347 0.62962,2.076007 l 0.21472,1.083015 0.0232,-0.926035 c 0.0127,-0.50932 -0.2162,-1.4537 -0.50877,-2.098621 -0.47786,-1.053342 -0.49073,-1.213809 -0.12648,-1.578051 0.36424,-0.364242 0.40599,-0.32572 0.41057,0.378827 0.003,0.431366 0.17859,1.379614 0.39062,2.107215 l 0.38551,1.32292 -0.0648,-1.10222 c -0.0356,-0.60623 0.0267,-1.045684 0.13855,-0.976576 0.11181,0.06911 0.2033,0.535346 0.2033,1.036076 0,0.50074 0.12528,0.91043 0.27839,0.91043 0.33121,0 0.0524,-4.366885 -0.3255,-5.098699 -0.13307,-0.257669 -0.15405,-0.614857 -0.0466,-0.79375 0.14402,-0.239837 0.0855,-0.23635 -0.22272,0.01328 -0.3293,0.266677 -0.3695,0.547496 -0.18939,1.322917 0.12575,0.541407 0.21767,1.282033 0.20427,1.645835 -0.0194,0.525992 -0.048,0.553085 -0.13962,0.132292 -0.0634,-0.291042 -0.22321,-0.767292 -0.35518,-1.058333 -0.13197,-0.291043 -0.27466,-0.826824 -0.31709,-1.190627 -0.0448,-0.383832 -0.32702,-0.771079 -0.67246,-0.922635 -0.32743,-0.143648 -0.59532,-0.401617 -0.59532,-0.573264 0,-0.171648 -0.0893,-0.35216 -0.19843,-0.401138 -0.10914,-0.04898 -0.4961,-0.43723 -0.8599,-0.862781 l -0.66146,-0.77373 0.92493,0.642295 c 1.62119,1.125789 2.65934,1.59192 6.14319,2.758312 1.87261,0.626947 3.25436,1.190033 3.07055,1.251302 -0.23317,0.07772 -0.13649,0.361 0.31982,0.937088 0.72766,0.918673 1.22912,1.038748 1.9925,0.477112 0.48625,-0.357736 0.4502,-0.407068 -0.67703,-0.926467 -0.65484,-0.301737 -0.89297,-0.473469 -0.52917,-0.381629 1.33461,0.336919 3.10163,1.407518 3.77052,2.28448 0.82855,1.08628 1.2245,2.798405 0.71937,3.110595 -0.1895,0.11712 -0.37956,0.83324 -0.42566,1.60383 -0.0966,1.61532 -0.81166,2.54916 -2.58214,3.37231 -2.42427,1.12711 -5.00655,0.88101 -8.22896,-0.78424 -2.71733,-1.40425 -4.15467,-2.69531 -6.2188,-5.585915 l -1.08637,-1.52136 h 0.80831 c 0.44458,0 0.80832,0.11906 0.80832,0.26459 0,0.14552 -0.13891,0.26458 -0.30868,0.26458 -0.50713,0 0.0114,0.36035 0.57865,0.40214 0.6513,0.048 0.65038,-0.0104 -0.0149,-0.94466 -0.32761,-0.460093 -0.69044,-0.698253 -0.92604,-0.607847 -0.21305,0.08176 -0.38737,0.01759 -0.38737,-0.142583 0,-0.31141 -0.91346,-0.263031 -1.24229,0.06579 -0.10867,0.108676 -0.0224,0.308358 0.19162,0.44374 0.26358,0.1667 0.28246,0.24746 0.0585,0.2502 -0.18191,0.002 -0.42003,0.006 -0.52917,0.007 -0.10914,0.002 -0.21145,-0.22578 -0.22734,-0.505888 -0.0159,-0.2801 -0.1,-0.69453 -0.18688,-0.920956 -0.0869,-0.226427 -0.0441,-0.482056 0.095,-0.568064 0.13916,-0.08601 0.25302,-0.275444 0.25302,-0.420965 0,-0.145521 -0.10946,-0.196931 -0.24325,-0.114245 -0.13379,0.08269 -0.40168,-0.0017 -0.59531,-0.187529 -0.19363,-0.185828 -0.64972,-0.485206 -1.01352,-0.665285 -0.58371,-0.288934 -0.59149,-0.309608 -0.0661,-0.175901 0.37532,0.09552 0.59532,0.032 0.59532,-0.171904 0,-0.201324 0.22474,-0.133143 0.59531,0.180608 l 0.59531,0.504028 -0.49838,-0.589074 c -0.27411,-0.32399 -0.59421,-0.529845 -0.71134,-0.457455 -0.11713,0.07239 -0.30958,-0.03764 -0.42766,-0.244519 -0.17252,-0.302238 -0.30669,-0.253212 -0.68292,0.249535 -0.46255,0.618097 -0.45777,0.631077 0.39512,1.072125 0.79467,0.410939 0.82139,0.464469 0.33593,0.672944 -0.41937,0.180094 -0.36084,0.209774 0.28572,0.144884 0.72151,-0.07241 0.80009,-0.01336 0.69735,0.52408 -0.0637,0.333128 -0.22318,0.539317 -0.35443,0.458197 -0.13126,-0.08112 -0.17015,-0.258325 -0.0864,-0.393791 0.0837,-0.135466 0.0332,-0.246301 -0.11236,-0.246301 -0.14552,0 -0.3464,0.132374 -0.44639,0.294164 -0.16968,0.274552 -0.0228,0.43503 0.9184,1.003172 0.53616,0.32366 -1.15898,2.667605 -1.83505,2.537415 -0.26313,-0.0507 -0.54469,0.0806 -0.62568,0.29163 -0.11826,0.30819 -0.0442,0.32863 0.37594,0.10377 0.28777,-0.15401 0.52321,-0.21468 0.52321,-0.13483 0,0.21293 -0.60101,1.25225 -1.05833,1.83016 -0.37479,0.47361 -0.36292,0.48369 0.21338,0.18113 0.33564,-0.17622 0.67554,-0.49052 0.75533,-0.69844 0.0798,-0.20793 0.25565,-0.30971 0.39081,-0.22617 0.13516,0.0835 -0.11544,0.56324 -0.55689,1.06602 -0.44145,0.50278 -0.80263,1.04982 -0.80263,1.21564 0,0.39847 1.27376,-0.80655 1.45449,-1.376 0.0774,-0.24377 0.31755,-0.44322 0.53372,-0.44322 0.21617,0 0.39304,0.0214 0.39304,0.0476 0,0.24237 -0.87654,1.71634 -1.02067,1.71634 -0.25998,0 -1.17893,1.59276 -1.01407,1.75762 0.0734,0.0734 0.51326,-0.0629 0.97744,-0.30294 0.61977,-0.3205 0.80859,-0.57167 0.71081,-0.94555 -0.17966,-0.68705 0.27922,-0.64326 0.9032,0.0862 0.32199,0.37642 0.48351,0.44939 0.43928,0.19844 -0.0385,-0.21828 0.0789,-0.36711 0.26078,-0.33073 0.1819,0.0364 0.33073,-0.0728 0.33073,-0.24253 0,-0.16978 0.0692,-0.2395 0.15373,-0.15495 0.0846,0.0845 0.0131,0.41641 -0.15869,0.73748 -0.17378,0.32471 -0.19332,0.51015 -0.044,0.41789 0.14762,-0.0912 0.32869,-0.0163 0.40239,0.16651 0.0737,0.1828 0.14158,-0.0248 0.15084,-0.46138 0.009,-0.43656 -0.0986,-0.97234 -0.23965,-1.19062 -0.14106,-0.21828 -0.2583,-0.26193 -0.26053,-0.097 -0.002,0.16493 -0.23803,0.36106 -0.52401,0.43585 -0.66141,0.17296 -0.9157,-0.53703 -0.54322,-1.51672 0.15027,-0.39524 0.20593,-0.82747 0.1237,-0.96053 -0.0822,-0.13305 0.036,-0.50674 0.26269,-0.83041 0.22672,-0.32368 0.41018,-0.770365 0.40769,-0.992655 -0.002,-0.22228 -0.35491,0.19117 -0.78318,0.918765 -0.42827,0.7276 -0.87273,1.26339 -0.98768,1.19063 -0.11495,-0.0728 -0.17628,-0.23044 -0.1363,-0.3504 0.04,-0.11996 -0.0411,-0.14778 -0.18015,-0.0618 -0.36289,0.22428 -0.55989,-0.20848 -0.29213,-0.64173 0.18347,-0.29686 0.30371,-0.30353 0.62752,-0.0348 0.3365,0.27927 0.46777,0.20248 0.82071,-0.480025 0.47317,-0.91501 0.30821,-1.03336 -0.48707,-0.34945 -0.40108,0.34491 -0.37265,0.25403 0.11146,-0.35624 0.35743,-0.4506 0.68925,-0.71944 0.73737,-0.59743 0.0481,0.12201 0.31333,0.10097 0.58936,-0.0468 0.41701,-0.22318 0.47274,-0.19269 0.32959,0.18034 -0.13633,0.35529 -0.0692,0.40938 0.32185,0.25932 0.46619,-0.17889 0.46891,-0.16175 0.0481,0.30324 -0.43149,0.47679 -1.51836,3.282815 -1.49931,3.870815 0.005,0.15912 0.17953,-0.008 0.3875,-0.37215 0.20797,-0.3638 0.38234,-0.51263 0.3875,-0.33073 0.0194,0.68432 0.53837,0.29897 0.53449,-0.39687 -0.003,-0.56699 -0.0607,-0.63999 -0.26053,-0.33073 -0.4193,0.64883 -0.30059,0.1378 0.2545,-1.09559 l 0.51909,-1.153365 8.5e-4,1.190625 c 4.7e-4,0.65484 -0.003,2.50031 -0.007,4.10104 -0.006,2.28672 0.061,2.84218 0.31442,2.59201 0.22731,-0.2244 0.3066,-1.35713 0.26855,-3.83646 z m -4.26054,0.89558 c 0,-0.31976 0.50197,-0.69257 0.68546,-0.50908 0.0666,0.0666 -0.0604,0.27169 -0.28219,0.45576 -0.25145,0.20869 -0.40327,0.22877 -0.40327,0.0533 z m 5.24206,-27.480826 c 0.191,-0.07643 0.4192,-0.06703 0.50712,0.02089 0.0879,0.08792 -0.0683,0.150453 -0.34727,0.138965 -0.30822,-0.01269 -0.37092,-0.07539 -0.15985,-0.159853 z m 1.95461,29.761156 c -0.24694,-0.24695 -0.38806,-0.24695 -0.635,0 -0.24694,0.24694 -0.17639,0.3175 0.3175,0.3175 0.49389,0 0.56444,-0.0706 0.3175,-0.3175 z m -1.16196,-0.76068 c -0.0522,-0.15644 -0.20792,-0.28443 -0.34617,-0.28443 -0.13824,0 -0.29401,0.12799 -0.34616,0.28443 -0.0521,0.15643 0.10363,0.28443 0.34616,0.28443 0.24254,0 0.39831,-0.128 0.34617,-0.28443 z m 8.7103,0.12457 c -0.0879,-0.0879 -0.31612,-0.0973 -0.50712,-0.0209 -0.21106,0.0845 -0.14837,0.14715 0.15986,0.15985 0.27891,0.0115 0.43518,-0.0511 0.34726,-0.13897 z m 2.13234,-0.30383 c 0.33301,-0.0721 0.7874,-0.48287 1.00976,-0.91286 0.43853,-0.84803 1.99476,-1.65481 2.79059,-1.4467 0.39365,0.10294 0.48897,-0.0237 0.48897,-0.64961 0,-0.42761 0.17859,-1.20491 0.39687,-1.72733 0.51321,-1.228265 0.49332,-1.688035 -0.044,-1.01752 -0.4284,0.5346 -0.419,0.4171 0.0613,-0.764905 0.12755,-0.31393 -1.41264,-2.432907 -1.61401,-2.220542 -0.0391,0.04127 -0.33039,1.310302 -0.64724,2.820082 -0.31685,1.509765 -0.63577,2.900555 -0.70871,3.090625 -0.10604,0.27634 0.0534,0.28849 0.79574,0.0607 1.08619,-0.33336 1.34014,-0.98077 0.94543,-2.41028 -0.28762,-1.041665 -0.16537,-1.501675 0.39908,-1.501675 0.24704,0 0.3273,0.36182 0.27878,1.256765 -0.0955,1.76222 -0.38566,2.71198 -0.82845,2.71198 -0.73054,0 -2.36287,1.01718 -2.72842,1.70021 -0.26388,0.49306 -0.65627,0.73574 -1.37565,0.85077 -0.55355,0.0885 -0.93705,0.27325 -0.85221,0.41052 0.0848,0.13726 0.35056,0.16661 0.5905,0.0652 0.23994,-0.1014 0.70872,-0.24333 1.04173,-0.31541 z m 2.89529,-4.84919 c 0.0936,-0.35777 0.21349,-0.47771 0.27954,-0.27955 0.0636,0.19089 -0.0101,0.47286 -0.16386,0.62661 -0.19634,0.19634 -0.23077,0.093 -0.11568,-0.34706 z m -0.78878,4.66101 c 1.61138,-0.75021 1.78187,-1.06862 0.45709,-0.85364 -0.55281,0.0897 -0.86939,0.05 -0.77814,-0.0977 0.0846,-0.1369 0.61604,-0.24891 1.18094,-0.24891 0.56491,0 1.10069,-0.11906 1.19063,-0.26458 0.2662,-0.43072 -1.54176,-0.30682 -2.19452,0.15039 -0.32585,0.22824 -0.53374,0.50998 -0.46198,0.6261 0.1708,0.27636 -0.63886,0.98583 -1.31225,1.14988 l -0.52917,0.12891 0.52917,0.0281 c 0.29104,0.0155 1.15424,-0.26291 1.91823,-0.61859 z m -4.68609,-0.0935 c -0.35816,-0.0549 -1.23424,-0.624 -1.94685,-1.2647 -0.71261,-0.64069 -1.47437,-1.16489 -1.6928,-1.16489 -0.21843,0 0.1736,0.39332 0.87118,0.87404 1.46014,1.00623 1.94977,1.81301 0.60142,0.99097 -0.48726,-0.29707 -1.18358,-0.5353 -1.54738,-0.52942 -0.59315,0.01 -0.55601,0.0663 0.35959,0.54931 0.56157,0.29623 1.3059,0.56897 1.65406,0.60609 0.34817,0.0371 0.69517,0.12963 0.77111,0.20558 0.076,0.0759 0.46271,0.0694 0.85948,-0.0145 l 0.72138,-0.15264 z m 1.47941,-0.64366 c -0.0877,-0.32742 -0.16482,-1.07156 -0.17128,-1.65364 l -0.0117,-1.05834 -0.5941,1.45521 c -0.59198,1.45001 -0.59219,1.45582 -0.058,1.62727 0.9027,0.28974 1.00046,0.24637 0.83514,-0.3705 z m -0.62611,-4.73975 -0.22045,-1.940975 -0.48765,1.984375 c -0.26822,1.0914 -0.58485,2.09082 -0.70364,2.22092 -0.26747,0.29296 -0.11004,-0.41351 0.71773,-3.220805 0.35525,-1.20478 0.57446,-2.306113 0.48714,-2.447397 -0.0873,-0.141285 -0.0327,-0.256881 0.12144,-0.256881 0.15411,0 0.2802,0.241862 0.2802,0.537471 0,0.621469 0.46367,0.860807 1.43175,0.739027 0.67442,-0.08483 0.66716,-0.102742 -0.59785,-1.474935 -1.19075,-1.291641 -2.15682,-1.782634 -2.15682,-1.096172 0,0.16109 0.18135,0.223301 0.403,0.138246 0.33161,-0.127254 0.35203,-0.05941 0.11525,0.383016 -0.15826,0.295714 -0.2669,0.79905 -0.24142,1.118525 0.0944,1.1832 -0.009,1.56482 -0.38426,1.42076 -0.20461,-0.0785 -0.58688,0.0947 -0.84949,0.38485 -0.26262,0.29019 -0.68376,0.47367 -0.93587,0.40774 -0.25212,-0.0659 -0.65494,0.0973 -0.89516,0.36275 -0.24243,0.26787 -0.61836,0.41294 -0.84489,0.32601 -0.2728,-0.10468 -0.36704,-0.033 -0.28425,0.21628 0.0681,0.205085 0.47133,0.487165 0.896,0.626855 0.42467,0.13968 0.8047,0.27146 0.84451,0.29286 0.0398,0.0214 -0.007,0.24555 -0.10386,0.49813 -0.12288,0.32024 -0.39091,0.42773 -0.88551,0.35514 -0.6185,-0.0908 -0.69438,-0.0262 -0.5929,0.50467 0.0666,0.34814 0.30707,0.60877 0.56178,0.60877 0.24497,0 0.59324,0.14784 0.77392,0.32852 0.43613,0.43613 0.64087,0.0957 1.52029,-2.52811 0.3811,-1.137015 0.74239,-2.017815 0.80287,-1.957335 0.0605,0.0605 -0.25311,1.22099 -0.69686,2.578925 -0.7157,2.1901 -0.76218,2.51361 -0.41158,2.86421 0.42497,0.42497 0.49171,0.34743 0.76537,-0.88933 0.0644,-0.29104 0.14061,0.0661 0.16936,0.79375 l 0.0523,1.32291 0.78501,-1.6309 c 0.74255,-1.54267 0.77309,-1.7359 0.56457,-3.57187 z m 1.78227,4.92176 c 0,-0.0818 -0.20836,-0.76641 -0.46302,-1.52135 -0.46024,-1.36437 -0.46354,-1.36723 -0.54867,-0.47613 -0.11709,1.2258 0.14873,2.1462 0.61985,2.1462 0.21551,0 0.39184,-0.0669 0.39184,-0.14872 z m 14.46248,-1.27846 c -0.25708,-0.39236 -0.31772,-0.68601 -0.15299,-0.74091 0.15008,-0.05 0.19243,-0.3006 0.0941,-0.55682 -0.11904,-0.31021 -0.3451,-0.41306 -0.6766,-0.30785 -0.3399,0.10788 -0.49784,0.0291 -0.49784,-0.2484 0,-0.23635 0.1524,-0.34792 0.36423,-0.26663 0.36541,0.14022 0.87529,-1.12171 0.57469,-1.42232 -0.0798,-0.0798 -0.14939,0.0235 -0.15454,0.22966 -0.005,0.20616 -0.17953,0.0772 -0.3875,-0.28663 -0.5079,-0.888465 -0.48575,-1.367445 0.0245,-0.529165 l 0.4026,0.661455 -0.16425,-0.774695 c -0.24162,-1.13963 -1.26757,-3.150887 -1.67069,-3.275193 -0.22157,-0.06832 -0.098,0.388624 0.33755,1.248108 0.53063,1.047155 0.62528,1.471355 0.41568,1.863005 -0.14927,0.27891 -0.25953,0.723295 -0.24503,0.987525 0.0194,0.3527 0.0887,0.30456 0.26082,-0.18104 0.17236,-0.486305 0.20389,-0.295165 0.11906,0.72185 -0.082,0.98366 -0.004,1.49476 0.27038,1.76907 0.24053,0.24052 0.28538,0.4478 0.11915,0.55053 -0.14664,0.0906 -0.26661,0.28384 -0.26661,0.42936 0,0.14552 0.12857,0.18512 0.28572,0.088 0.15715,-0.0971 0.46695,0.0821 0.68845,0.39837 0.55043,0.78585 0.79091,0.4543 0.25914,-0.35728 z m -13.66873,0.002 c 0,-0.18433 -0.29766,-0.61477 -0.66146,-0.95655 -0.76479,-0.71847 -0.81001,-0.60312 -0.27013,0.689 0.36371,0.87048 0.93159,1.03357 0.93159,0.26755 z m -6.74688,0.10179 c -0.0899,-0.14553 -0.45415,-0.26459 -0.80936,-0.26459 -0.35522,0 -0.64585,0.11906 -0.64585,0.26459 0,0.14552 0.36422,0.26458 0.80937,0.26458 0.4722,0 0.74124,-0.11022 0.64584,-0.26458 z m -1.73659,-1.21088 c -0.43967,-0.52976 -0.57476,-0.32046 -0.35593,0.55144 0.15527,0.61863 0.21892,0.6603 0.43066,0.28195 0.16561,-0.29594 0.14069,-0.57381 -0.0747,-0.83339 z m 23.18775,-0.5772 c -0.31923,-0.31923 -0.47135,0.20678 -0.26487,0.91586 l 0.21547,0.73992 0.1008,-0.75179 c 0.0554,-0.41348 0.0323,-0.82028 -0.0514,-0.90399 z m -24.01765,0.27908 c -0.0322,-0.85618 -0.0688,-0.90811 -0.29044,-0.41149 -0.13948,0.31259 -0.18255,0.75352 -0.0957,0.97984 0.26622,0.69377 0.42481,0.46034 0.38614,-0.56835 z m 9.75123,0.32978 c -0.0862,-0.22456 -0.35746,-0.40828 -0.60286,-0.40828 -0.40717,0 -0.40418,0.0464 0.0342,0.53078 0.52643,0.5817 0.81506,0.51952 0.56869,-0.1225 z m -10.14491,-1.86142 c -0.13975,-0.46368 -0.10653,-0.48365 0.27617,-0.16604 0.23927,0.19858 0.43504,0.50661 0.43504,0.68452 0,0.41919 1.01016,1.33561 1.22995,1.11582 0.0926,-0.0926 0.0508,-0.32008 -0.0928,-0.5055 -0.14367,-0.18542 -0.33603,-0.54689 -0.42747,-0.80326 -0.15452,-0.43324 -0.11165,-0.4379 0.60725,-0.0661 0.84505,0.43699 1.3301,0.51068 1.32688,0.20156 -0.003,-0.24951 -1.29419,-0.8599 -1.81957,-0.8599 -0.21627,0 -0.67505,-0.26477 -1.01952,-0.588375 -0.52707,-0.49516 -0.66415,-0.52712 -0.86523,-0.20177 -0.19127,0.309475 -0.23731,0.2817 -0.23076,-0.13923 0.013,-0.83618 -0.45569,-2.4111 -1.06604,-3.582081 -0.30951,-0.59381 -0.48702,-1.202182 -0.39446,-1.351937 0.18537,-0.299949 1.06121,1.496714 1.43952,2.952983 0.20565,0.791635 0.21868,0.734935 0.0898,-0.390665 -0.17628,-1.539236 -0.94477,-3.180379 -1.67136,-3.569238 -0.73541,-0.393579 -2.73955,-0.336505 -3.32941,0.09481 -0.40338,0.294957 -0.44023,0.444607 -0.18516,0.751948 0.17514,0.211038 0.23381,0.468339 0.13037,0.571782 -0.10344,0.103443 0.018,0.108997 0.26988,0.01234 0.36176,-0.13882 0.42135,-0.07228 0.28372,0.316745 -0.14477,0.40919 -0.11244,0.435041 0.19111,0.152852 0.30354,-0.282181 0.41572,-0.192676 0.66318,0.529167 0.18957,0.552937 0.44842,0.842195 0.71199,0.795632 0.22777,-0.04024 0.49324,0.05484 0.58993,0.211285 0.12147,0.196533 0.30432,0.178258 0.59163,-0.05913 0.36817,-0.304206 0.37774,-0.282405 0.0835,0.190251 -0.2819,0.452811 -0.23252,0.721566 0.32538,1.770826 0.36174,0.68035 0.71332,1.181385 0.78129,1.113415 0.068,-0.068 0.28221,0.0676 0.47609,0.30118 0.27489,0.33122 0.28413,0.53425 0.042,0.92198 -0.17078,0.27347 -0.23482,0.69449 -0.14229,0.9356 0.14321,0.37322 0.21951,0.34527 0.51328,-0.18798 0.18979,-0.3445 0.27358,-0.86355 0.1862,-1.15345 z m -3.38983,-4.812582 c -0.51915,-0.395955 -0.5179,-0.400233 0.0661,-0.226105 0.39164,0.116764 0.59531,0.06578 0.59531,-0.149023 0,-0.179581 0.0704,-0.256066 0.15654,-0.169966 0.0861,0.0861 0.0563,0.334776 -0.0661,0.552614 -0.19732,0.350937 -0.28299,0.35008 -0.75186,-0.0075 z m 0.39688,-1.980458 c 0,-0.121267 0.11203,-0.220486 0.24896,-0.220486 0.13694,0 0.31029,0.09922 0.38524,0.220486 0.075,0.121267 -0.0371,0.220486 -0.24897,0.220486 -0.21188,0 -0.38523,-0.09922 -0.38523,-0.220486 z m 13.83957,6.77851 c 0.22314,-1.210295 -0.0242,-1.376325 -1.84722,-1.239795 -1.2511,0.0937 -1.60076,0.20818 -1.49305,0.488865 0.17733,0.4621 2.4899,0.50064 2.94153,0.049 0.61796,-0.617955 0.33203,0.25963 -0.34784,1.06761 -0.46595,0.55376 -0.56506,0.82784 -0.33073,0.91462 0.47227,0.17489 0.90352,-0.33762 1.07731,-1.28031 z m -11.72696,0.21089 c 0.002,-0.1819 -0.23407,-0.33072 -0.52511,-0.33072 -0.58867,0 -0.69872,0.51836 -0.21314,1.00394 0.34149,0.3415 0.73016,-0.0129 0.73825,-0.67322 z m 10.52124,0.39241 c 0.61822,-0.48369 0.33349,-0.72313 -0.8599,-0.72313 -0.65484,0 -1.19062,0.11906 -1.19062,0.26458 0,0.14552 0.14883,0.23482 0.33073,0.19844 0.1819,-0.0364 0.31674,0.12694 0.29964,0.36293 -0.0332,0.45847 0.77782,0.39975 1.42015,-0.10282 z m 14.08501,-0.0189 c 0.002,0.16902 0.1792,0.28161 0.39327,0.25019 0.5095,-0.0748 0.85591,-0.42522 0.42032,-0.42522 -0.19585,0 -0.27099,-0.17197 -0.17942,-0.41062 0.0867,-0.22583 0.0607,-0.35077 -0.0576,-0.27763 -0.11834,0.0731 -0.47262,-0.39692 -0.78728,-1.044585 -0.69369,-1.42783 -0.53707,-1.57541 0.19675,-0.18539 0.28809,0.54571 0.52906,0.828775 0.53548,0.629065 0.01,-0.295135 0.0871,-0.300515 0.41463,-0.02869 0.33829,0.28076 0.37526,0.26229 0.23044,-0.1151 -0.0949,-0.24723 -0.33048,-0.38888 -0.52357,-0.31478 -0.24796,0.0951 -0.33507,-0.0879 -0.29658,-0.6231 0.0444,-0.61783 0.12314,-0.701 0.4261,-0.45025 0.27209,0.2252 0.25294,0.078 -0.0715,-0.54954 -0.24372,-0.471421 -0.43054,-0.93436 -0.41517,-1.028755 0.0154,-0.0944 -0.13103,-0.285468 -0.32537,-0.424606 -0.2655,-0.1901 -0.23924,-0.216342 0.10566,-0.10558 0.46861,0.150489 1.13583,-0.663429 0.81053,-0.988734 -0.27395,-0.273945 -0.91753,-0.189185 -0.74035,0.0975 0.0899,0.145521 0.0445,0.264583 -0.10106,0.264583 -0.60727,0 -0.47864,-0.463367 0.24774,-0.892453 0.42865,-0.253209 0.77937,-0.650696 0.77937,-0.883304 0,-0.37344 -0.06,-0.368657 -0.5125,0.04088 -0.28187,0.255091 -0.62544,0.393994 -0.76349,0.308674 -0.36666,-0.226608 -0.58629,1.25454 -0.22119,1.491678 0.22157,0.143918 0.19654,0.271331 -0.0903,0.459643 -0.32702,0.214675 -0.33091,0.261245 -0.022,0.264584 0.20615,0.0022 0.29519,0.08369 0.19785,0.181017 -0.0973,0.09733 -0.004,0.367942 0.20711,0.601356 0.2123,0.234595 0.2939,0.570277 0.18245,0.750607 -0.13538,0.21905 -0.39731,-0.022 -0.7973,-0.733645 -0.32763,-0.582927 -0.70713,-1.059867 -0.84334,-1.059867 -0.36686,0 -0.30585,0.233456 0.2737,1.047355 0.28674,0.402692 0.46406,0.789457 0.39405,0.859467 -0.07,0.07 0.0517,0.63463 0.27047,1.25469 0.21877,0.62007 0.32947,1.44231 0.246,1.82721 -0.11776,0.54305 -0.0886,0.61092 0.13018,0.30295 0.16429,-0.23128 0.28362,-0.26864 0.28598,-0.0896 z m -25.39595,-1.24605 c 0,-0.458765 -0.52993,-0.525815 -0.54593,-0.0691 -0.0128,0.36604 -0.0764,0.32956 -0.27027,-0.155085 -0.13942,-0.34855 -0.32012,-0.56711 -0.40154,-0.48568 -0.28983,0.28982 0.42967,1.232905 0.8249,1.081235 0.21607,-0.0829 0.39284,-0.25004 0.39284,-0.3714 z m 2.25039,-2.099685 c -0.24132,-0.726538 -0.53385,-1.379749 -0.65007,-1.451578 -0.39697,-0.245339 0.0577,2.372168 0.48607,2.798018 0.61331,0.609765 0.66709,0.16824 0.164,-1.34644 z m -7.43773,-0.11406 c -0.0775,-0.20202 -0.60896,-0.411938 -1.18097,-0.466488 -0.93477,-0.08915 -1.04002,-0.03823 -1.04002,0.503118 0,0.7212 0.18828,0.75337 0.85864,0.14671 0.39758,-0.3598 0.4854,-0.37371 0.4177,-0.0661 -0.0471,0.21419 -0.32384,0.53406 -0.61488,0.7108 -0.46463,0.28216 -0.4727,0.3225 -0.0661,0.33073 0.25466,0.005 0.46679,0.1582 0.47138,0.3401 0.005,0.18191 0.29791,0.002 0.65181,-0.4004 0.35389,-0.40212 0.58001,-0.89642 0.50249,-1.09843 z m 15.30126,0.63795 c -1.07106,-0.65303 -1.11808,-0.65299 -1.11808,9.9e-4 0,0.43527 0.17606,0.52899 0.99218,0.52818 l 0.99219,-0.001 -0.86629,-0.52818 z m 2.58608,0.31849 c 0,-0.46447 -0.68078,-0.84667 -1.50812,-0.84667 -1.0628,0 -1.12917,0.32584 -0.14552,0.71453 0.89599,0.35405 1.65364,0.41459 1.65364,0.13214 z m -7.75511,-1.309689 c -0.0666,-0.254661 -0.121,-0.0463 -0.121,0.463019 0,0.50932 0.0545,0.71768 0.121,0.46302 0.0666,-0.25466 0.0666,-0.67138 0,-0.926039 z m 0.98913,-1.213943 c -0.13426,-1.654632 -0.29131,-2.303526 -0.5848,-2.416149 -0.34777,-0.133451 -0.37759,0.153922 -0.22371,2.155914 0.10214,1.328776 0.31236,2.393197 0.49492,2.506037 0.17456,0.10787 0.35782,0.15569 0.40726,0.10625 0.0494,-0.0494 0.007,-1.107857 -0.0937,-2.352052 z m 0.86633,1.321988 c -0.0587,-0.168565 0.0942,-0.565812 0.33988,-0.88277 0.58273,-0.751907 0.40188,-2.123719 -0.30975,-2.349583 -0.2862,-0.09083 -0.54397,-0.124517 -0.57284,-0.07485 -0.19083,0.328317 0.18131,3.903027 0.39271,3.772367 0.14121,-0.0873 0.20872,-0.2966 0.15,-0.465164 z m 6.26822,-0.06354 c 0.3083,-0.803421 0.15469,-0.914935 -0.67168,-0.487603 -0.64161,0.33179 -0.74768,0.483952 -0.46302,0.664207 0.55579,0.35192 0.95578,0.28967 1.1347,-0.176604 z m 13.38977,-0.787726 c 0,-0.226869 -0.12101,-0.337705 -0.2689,-0.246301 -0.1479,0.0914 -0.2004,0.277024 -0.11668,0.41249 0.22681,0.366989 0.38558,0.298559 0.38558,-0.166189 z m -30.06682,-0.248968 c 0.0838,-0.218281 0.037,-0.396875 -0.10399,-0.396875 -0.14095,0 -0.25628,0.178594 -0.25628,0.396875 0,0.218281 0.0468,0.396875 0.10399,0.396875 0.0572,0 0.17251,-0.178594 0.25628,-0.396875 z m 0.7905,-0.273057 c -0.20988,-0.546923 -0.35702,-0.482474 -0.35702,0.15638 0,0.29963 0.11387,0.474411 0.25303,0.388402 0.13917,-0.08601 0.18596,-0.331161 0.10399,-0.544782 z m -3.37216,-0.316744 c -0.26896,-0.268953 -0.49087,0.135968 -0.2702,0.49302 0.1667,0.269721 0.22902,0.26993 0.31864,0.0011 0.0613,-0.183828 0.0395,-0.406167 -0.0484,-0.494086 z m -0.31379,-0.232257 c 0.5434,-0.208521 0.53326,-0.532505 -0.0233,-0.746096 -0.24359,-0.09347 -0.53859,-0.01713 -0.65741,0.17013 -0.44106,0.695117 -0.1879,0.909304 0.68076,0.575966 z m 11.16109,-1.848963 c -0.0785,-0.204428 -0.26962,-0.371688 -0.42483,-0.371688 -0.19701,0 -0.19952,0.154487 -0.008,0.511773 0.15064,0.281475 0.29294,0.847022 0.31623,1.256771 0.0381,0.670273 0.0532,0.656222 0.15094,-0.140085 0.0597,-0.486796 0.0444,-1.052343 -0.034,-1.256771 z m -2.58349,0.960427 c 0.0906,-0.619981 -0.31545,-1.056126 -0.99019,-1.06348 -0.2852,-0.0031 -0.26233,0.116848 0.0982,0.515261 0.26455,0.292321 0.39804,0.706757 0.30541,0.94815 -0.10557,0.275124 -0.046,0.389775 0.16635,0.31986 0.182,-0.05994 0.37109,-0.383845 0.4202,-0.719791 z m 22.33123,-0.133483 c 0.0687,-0.359398 0.023,-0.590496 -0.10145,-0.513551 -0.21923,0.135487 -0.32964,1.167003 -0.12492,1.167003 0.0558,0 0.15766,-0.294053 0.22637,-0.653452 z m -23.29806,-0.197625 c -0.18985,-0.189855 -0.31309,-0.205476 -0.31309,-0.03969 0,0.353161 0.3129,0.66606 0.48948,0.489479 0.0752,-0.07519 -0.004,-0.277592 -0.17639,-0.449792 z m 23.74395,-1.486625 c -0.13631,-0.04881 -0.18053,-0.197638 -0.0983,-0.33073 0.19243,-0.311354 -0.0577,-0.308009 -0.64942,0.0087 -0.29928,0.160169 -0.48107,0.5882 -0.50353,1.185569 l -0.0351,0.934901 0.76711,-0.85484 c 0.42191,-0.470163 0.65558,-0.894775 0.51927,-0.943584 z m 1.02546,0.697285 c 0.46033,-0.460326 0.40995,-1.362089 -0.0659,-1.17949 -0.25625,0.09833 -0.33461,0.01998 -0.23627,-0.236276 0.0809,-0.21087 0.25039,-0.3834 0.3766,-0.3834 0.46433,0 1.06996,-1.57623 0.79013,-2.056421 -0.23185,-0.39786 -0.26742,-0.374228 -0.27443,0.182289 -0.004,0.351675 -0.0832,0.564223 -0.17512,0.472329 -0.0919,-0.09189 -0.41932,-0.03271 -0.72761,0.131513 -0.50772,0.270465 -0.52582,0.256524 -0.19209,-0.147995 0.20264,-0.245623 0.29194,-0.523084 0.19844,-0.616582 -0.0935,-0.0935 -0.17,-0.03109 -0.17,0.138686 0,0.169774 -0.14883,0.278915 -0.33073,0.242535 -0.20425,-0.04085 -0.30449,0.173558 -0.26212,0.560669 0.0557,0.508934 -0.0303,0.600949 -0.45735,0.489273 -0.42403,-0.110885 -0.50523,-0.02725 -0.419,0.431518 0.0588,0.312983 0.11581,0.617279 0.12662,0.676214 0.0108,0.05893 0.24823,-0.09969 0.52758,-0.352501 0.48646,-0.440242 0.51187,-0.433594 0.60159,0.15743 0.0515,0.339396 0.23969,0.587319 0.41813,0.550938 0.56545,-0.115279 0.34962,0.394721 -0.23134,0.546646 -0.30604,0.08003 -0.47736,0.272237 -0.38126,0.427733 0.22722,0.367648 0.49189,0.357139 0.88413,-0.03511 z m -32.29755,-0.10658 c -0.0877,-0.08772 -0.0472,-0.454902 0.0901,-0.815953 0.13727,-0.361051 0.1602,-0.795293 0.051,-0.964982 -0.11775,-0.182905 -0.25927,0.06852 -0.34758,0.617515 -0.15025,0.934107 -0.0899,1.322917 0.20525,1.322917 0.0884,0 0.089,-0.07177 0.001,-0.159497 z m 2.5431,-0.226659 c 0.91859,-0.696023 2.47074,-0.774332 3.48512,-0.175831 0.72745,0.429206 0.92225,0.463632 0.92225,0.162983 0,-0.516142 -1.36648,-1.188496 -2.41547,-1.188496 -0.46984,0 -1.26908,0.148828 -1.7761,0.330729 -0.73887,0.265084 -0.94402,0.264757 -1.03357,-0.0016 -0.12393,-0.368716 -0.59569,-0.185525 -0.59569,0.231307 0,0.145521 0.11906,0.190999 0.26458,0.101062 0.14552,-0.08994 0.26458,0.08163 0.26458,0.38126 0,0.633485 0.20829,0.670848 0.8843,0.158626 z m 21.08352,-0.520415 c -0.14959,-0.393458 -0.25862,-1.09458 -0.24229,-1.558049 0.0238,-0.675366 0.0895,-0.564231 0.33073,0.559753 0.59608,2.77692 0.94707,1.120308 0.68954,-3.254508 -0.0418,-0.709146 -0.0884,-0.657406 -0.43776,0.485414 -0.21506,0.703541 -0.45292,1.21727 -0.52857,1.14162 -0.21741,-0.217407 0.69786,-2.742692 1.12149,-3.094277 0.54021,-0.448329 0.47899,-0.763789 -0.28574,-1.47252 -0.49538,-0.459097 -0.62665,-0.784424 -0.50773,-1.258246 0.0935,-0.372487 0.0293,-0.720097 -0.15398,-0.833343 -0.22538,-0.139297 -0.2631,-0.01641 -0.13325,0.434156 0.14471,0.502096 0.0749,0.461366 -0.34708,-0.202581 -0.72168,-1.135417 -0.88327,-1.200359 -2.46478,-0.990565 l -1.38183,0.183308 1.64199,0.422267 c 1.34184,0.345077 1.73531,0.576278 2.15247,1.264784 0.48609,0.802273 0.48951,0.895894 0.0715,1.959986 l -0.43896,1.11747 -0.3284,-0.769362 c -0.31205,-0.731046 -0.46882,-0.522332 -0.36611,0.48741 0.0259,0.254661 -0.12911,0.463021 -0.34448,0.463021 -0.25619,0 -0.49064,0.46191 -0.67809,1.335939 -0.48365,2.255185 -0.41352,2.51658 0.86719,3.232384 l 1.1537,0.644815 -0.0851,-1.217507 -0.0851,-1.217506 0.23044,1.243468 c 0.23484,1.267175 0.50558,1.924558 0.70889,1.721246 0.0623,-0.06226 -0.009,-0.43512 -0.15879,-0.828577 z m -1.82345,-1.772335 c -0.061,-0.727254 0.28159,-2.083594 0.52621,-2.083594 0.12733,0 0.22314,0.506016 0.21291,1.124479 -0.0139,0.841593 -0.0722,0.991356 -0.23161,0.595313 -0.19883,-0.493917 -0.22163,-0.485105 -0.34225,0.132291 -0.0711,0.363802 -0.14544,0.467982 -0.16526,0.231511 z m -0.54431,-0.385851 c 0.0127,-0.308224 0.0754,-0.370919 0.15985,-0.159852 0.0764,0.190996 0.067,0.419199 -0.0209,0.507118 -0.0879,0.08792 -0.15045,-0.06835 -0.13896,-0.347266 z m 1.73654,-1.43316 c 0.0931,-0.509323 0.27148,-1.126573 0.3965,-1.371668 0.12503,-0.245095 0.22732,-0.836155 0.22732,-1.313467 0,-0.790023 0.0374,-0.83045 0.41699,-0.450847 0.37961,0.379602 0.36774,0.508889 -0.13229,1.44184 -0.3021,0.563666 -0.55111,1.205204 -0.55333,1.425641 -0.002,0.220436 -0.12113,0.579387 -0.26422,0.797668 -0.18312,0.279345 -0.21006,0.122639 -0.091,-0.529167 z m -1.49285,-0.07241 c 0,-0.469484 0.87842,-1.07764 1.15584,-0.800222 0.29,0.290002 0.1808,0.647764 -0.13764,0.450953 -0.1676,-0.10358 -0.46526,0.03121 -0.66146,0.299538 -0.31201,0.426699 -0.35674,0.432934 -0.35674,0.04973 z m -0.26458,-6.013003 c -0.35278,-0.227983 -0.35278,-0.254864 0,-0.241936 0.21828,0.008 0.635,0.116871 0.92604,0.241936 l 0.52917,0.22739 -0.52917,0.01454 c -0.29104,0.008 -0.70776,-0.10087 -0.92604,-0.241934 z m 8.46667,10.036772 c 0,-0.300608 0.13094,-0.791226 0.29098,-1.090262 0.2183,-0.407898 0.21408,-0.496178 -0.0169,-0.353437 -0.22383,0.13833 -0.25894,-0.0705 -0.12864,-0.765049 0.15193,-0.809857 0.11444,-0.930458 -0.24619,-0.79207 -0.23397,0.08979 -0.37378,0.246772 -0.31069,0.348862 0.0631,0.10209 -0.94962,0.176985 -2.25048,0.166434 l -2.36519,-0.01918 v 0.716268 c 0,0.959321 0.38373,1.144861 0.74192,0.358729 0.23875,-0.523997 0.47923,-0.634149 1.35797,-0.622022 0.58732,0.0081 1.01587,0.09884 0.95235,0.20163 -0.0635,0.102791 0.14646,0.178074 0.46665,0.167297 0.34979,-0.01177 0.58215,0.138816 0.58215,0.377281 0,0.218281 0.11907,0.495236 0.26459,0.615455 0.17075,0.141067 0.14338,0.267476 -0.0772,0.356459 -0.26244,0.105875 -0.27028,0.224025 -0.0337,0.509024 0.44198,0.532557 0.7724,0.457519 0.7724,-0.175416 z m -0.52917,-1.056554 c 0,-0.154109 0.11906,-0.206614 0.26458,-0.116677 0.14552,0.08994 0.26459,0.216026 0.26459,0.280198 0,0.06417 -0.11907,0.116677 -0.26459,0.116677 -0.14552,0 -0.26458,-0.126089 -0.26458,-0.280198 z m 4.23333,1.021032 c 0,-0.427413 -0.0782,-0.503844 -0.29444,-0.287637 -0.16195,0.161945 -0.21445,0.423882 -0.11668,0.582083 0.27368,0.442828 0.41112,0.344393 0.41112,-0.294446 z m -23.8125,0.08122 c 0,-0.247494 -0.62863,-0.557474 -1.13054,-0.557474 -0.16143,0 -0.0624,0.174807 0.22008,0.38846 0.59193,0.447714 0.91046,0.506845 0.91046,0.169014 z m -8.38828,-2.029068 c -0.0887,-0.546691 -0.0381,-0.909656 0.12681,-0.909656 0.15094,0 0.22035,0.208359 0.15424,0.46302 -0.0661,0.254662 0.0603,0.701146 0.28094,0.992188 0.35787,0.472095 0.40204,0.479229 0.40955,0.06615 0.005,-0.254662 -0.11065,-0.463021 -0.25617,-0.463021 -0.14552,0 -0.26459,-0.193172 -0.26459,-0.429272 0,-0.303009 0.0973,-0.354279 0.33073,-0.174308 0.19139,0.147544 0.60941,0.163264 0.99219,0.03731 l 0.66146,-0.217651 -0.69582,0.08461 c -0.53523,0.06508 -0.8007,-0.09294 -1.15026,-0.684693 -0.46139,-0.781066 -0.40781,-1.195049 0.113,-0.873169 0.15758,0.09739 0.22309,0.279676 0.14558,0.405087 -0.0775,0.12541 -0.0199,0.302803 0.12797,0.394207 0.1479,0.0914 0.26708,-0.0492 0.26485,-0.312447 -0.005,-0.532141 -0.35985,-1.19762 -0.62084,-1.162692 -0.78374,0.104889 -0.99119,-0.337455 -0.28529,-0.608334 0.30149,-0.115693 0.55871,0.171624 0.95434,1.066003 0.39165,0.885393 0.60361,1.124055 0.76556,0.862009 0.16373,-0.264926 0.33817,-0.08903 0.64866,0.654078 0.23359,0.55905 0.48691,0.954251 0.56293,0.878225 0.076,-0.07602 0.01,-0.377925 -0.14684,-0.670888 -0.3092,-0.577749 -0.11479,-1.453084 0.26992,-1.215318 0.13028,0.08051 0.23686,0.0203 0.23686,-0.133812 0,-0.422656 -0.52432,-0.336088 -0.69748,0.115157 -0.0834,0.217446 -0.26024,0.328281 -0.39289,0.246301 -0.13265,-0.08198 -0.16131,-0.278286 -0.0637,-0.436235 0.0993,-0.160649 0.0557,-0.211902 -0.099,-0.116325 -0.16229,0.100297 -0.34596,-0.199642 -0.44476,-0.726283 -0.16224,-0.864811 -0.94805,-1.898656 -0.94805,-1.247293 0,0.163339 -0.10792,0.29698 -0.23981,0.29698 -0.1319,0 -0.17829,-0.23528 -0.10309,-0.522845 0.11155,-0.426582 0.23133,-0.472215 0.65056,-0.247854 0.2826,0.151246 0.71594,0.228155 0.96298,0.17091 0.3533,-0.08187 0.29803,-0.177305 -0.25894,-0.447185 -0.93339,-0.452267 -2.01421,-0.158768 -2.38117,0.646609 -0.23295,0.51128 -0.3903,0.591371 -0.76638,0.3901 -0.34232,-0.183204 -0.59201,-0.134499 -0.90256,0.17606 -0.58788,0.587876 -0.41443,1.502123 0.29461,1.552851 0.50449,0.03609 0.53959,-0.04301 0.33525,-0.755496 -0.12553,-0.437696 -0.19184,-0.832205 -0.14736,-0.876686 0.20283,-0.20283 1.23299,1.046847 1.23299,1.495728 0,0.276784 0.12485,0.580403 0.27743,0.674707 0.19056,0.117769 0.18299,0.285266 -0.0242,0.534888 -0.16589,0.199884 -0.34924,0.857857 -0.40745,1.462161 -0.0891,0.925179 -0.0465,1.049534 0.26948,0.787259 0.25281,-0.209819 0.32713,-0.608363 0.22769,-1.221134 z m -1.83479,0.545552 c -0.0838,-0.218281 -0.19908,-0.396875 -0.25628,-0.396875 -0.0572,0 -0.10398,0.178594 -0.10398,0.396875 0,0.218281 0.11533,0.396875 0.25628,0.396875 0.14095,0 0.18775,-0.178594 0.10398,-0.396875 z m 0.54414,-1.086641 c 0.23019,-0.08833 0.40912,-0.415751 0.39763,-0.727604 -0.014,-0.380752 -0.0675,-0.436637 -0.16273,-0.17013 -0.078,0.218281 -0.32949,0.545703 -0.55885,0.727604 -0.45344,0.359621 -0.33371,0.422499 0.32395,0.17013 z m 17.81487,-0.699297 c -0.25301,-0.381059 -0.66139,-0.595312 -1.1347,-0.595312 -1.05209,0 -1.09179,0.529088 -0.0644,0.858324 1.45473,0.466183 1.65421,0.422427 1.1991,-0.263012 z m 2.78864,0.06615 c 0.16224,-0.620388 -0.44915,-0.709762 -1.51942,-0.222113 -0.97349,0.443549 -0.82866,0.75128 0.35357,0.75128 0.80496,0 1.05744,-0.114599 1.16585,-0.529167 z m 7.93024,0.115117 c 0.69301,-0.0969 1.32512,-0.2815 1.40468,-0.41023 0.27566,-0.446041 0.59238,-0.231527 0.45181,0.306015 -0.11217,0.428957 0.0796,0.341804 0.93225,-0.423613 0.62839,-0.564115 1.01459,-1.117149 0.93145,-1.333818 -0.0828,-0.215749 0.0235,-0.370137 0.25484,-0.370137 0.55626,0 0.68662,-0.49608 0.51965,-1.977447 -0.12656,-1.122817 -0.18638,-1.223774 -0.48399,-0.816772 -0.18677,0.255422 -0.27491,0.63294 -0.19586,0.83893 0.079,0.20599 0.004,0.542772 -0.16657,0.748404 -0.17066,0.205632 -0.28426,0.531538 -0.25245,0.724235 0.0318,0.192697 -0.0324,0.556537 -0.14264,0.808533 -0.15748,0.359937 -0.30984,0.399638 -0.7106,0.185163 -0.28057,-0.150157 -0.43903,-0.388044 -0.35214,-0.528637 0.0869,-0.140593 0.25528,-0.19549 0.3742,-0.121993 0.11892,0.0735 0.28061,-0.112559 0.35929,-0.413458 0.11264,-0.430724 0.0487,-0.510337 -0.30065,-0.374296 -0.24404,0.09504 -0.56277,0.193739 -0.7083,0.219337 -0.14552,0.0256 -0.39184,0.396542 -0.54739,0.82432 -0.33644,0.925263 -1.06601,1.328083 -0.78143,0.431454 0.20907,-0.658706 -0.2474,-1.345416 -0.88638,-1.333478 -0.37764,0.0071 -0.37365,0.04124 0.0324,0.277731 0.25822,0.150397 0.46302,0.582486 0.46302,0.976867 v 0.707183 l -0.41187,-0.588038 c -0.28568,-0.407857 -0.68236,-0.588038 -1.29462,-0.588038 -0.86439,0 -1.39189,-0.540144 -1.05688,-1.08221 0.30455,-0.492765 -0.61291,-0.219631 -1.09822,0.326949 -0.50292,0.5664 -0.50242,0.56736 0.22357,0.433566 0.52604,-0.09694 0.72761,-0.02576 0.72761,0.256952 0,0.256012 -0.17628,0.344946 -0.51049,0.257547 -0.37601,-0.09833 -0.50076,-0.0043 -0.47354,0.357095 0.0292,0.387582 0.17706,0.455427 0.7042,0.323123 1.66737,-0.418483 3.16582,0.05098 2.44941,0.767394 -0.24694,0.246945 -0.3175,0.217546 -0.3175,-0.132291 0,-0.390251 -0.0733,-0.376505 -0.55363,0.103836 -0.30449,0.304496 -0.7609,0.499426 -1.01424,0.433177 -0.28058,-0.07337 -0.4606,0.02875 -0.4606,0.261295 0,0.28036 0.21666,0.344535 0.8158,0.241636 0.44869,-0.07706 1.3828,-0.219389 2.07582,-0.316286 z m -9.46869,-0.641783 c 0.59911,-0.227778 0.65055,-0.334548 0.39305,-0.815701 -0.28263,-0.528096 -0.31971,-0.532419 -0.8044,-0.09378 -0.27946,0.252908 -0.50811,0.619974 -0.50811,0.815701 0,0.425596 0.0369,0.429355 0.91946,0.09378 z m 7.81126,-0.227126 c -7.9e-4,-0.247553 -1.54554,-0.321048 -1.69414,-0.0806 -0.0684,0.110708 0.28488,0.212888 0.78513,0.227068 0.50025,0.01418 0.9093,-0.05173 0.90901,-0.146468 z M 179.17675,86.10589 c -0.34965,-1.722141 -0.69306,-3.188507 -0.76315,-3.25859 -0.0701,-0.07008 -0.26034,-0.04527 -0.42281,0.05514 -0.18505,0.11437 -0.2625,0.844356 -0.20734,1.954388 0.0719,1.446825 0.24698,2.030135 0.95453,3.18004 0.47656,0.774517 0.91328,1.361407 0.97049,1.304202 0.0572,-0.0572 -0.18207,-1.513034 -0.53172,-3.235175 z m 3.59167,1.463627 c 0.16721,-0.528107 0.45598,-1.203484 0.6417,-1.500839 0.27593,-0.441809 0.27207,-0.630349 -0.0212,-1.03135 -0.34242,-0.468284 -0.37005,-0.461715 -0.60476,0.143769 -0.13527,0.348962 -0.49622,1.263961 -0.80209,2.033333 -0.30588,0.769371 -0.55615,1.591496 -0.55615,1.826944 0,0.727438 0.98963,-0.357592 1.34245,-1.471857 z m -18.49186,0.966854 c -0.18985,-0.189855 -0.31309,-0.205477 -0.31309,-0.03969 0,0.353161 0.3129,0.66606 0.48948,0.489479 0.0752,-0.07519 -0.004,-0.277591 -0.17639,-0.449791 z m 16.35361,-1.26559 c 0.003,-0.654844 0.12991,-1.953985 0.28129,-2.88698 0.21719,-1.338559 0.20281,-1.742299 -0.0681,-1.914178 -0.4966,-0.31501 -1.10712,-0.274611 -1.58382,0.104804 -0.40916,0.325654 -0.32885,1.086088 0.41217,3.902604 0.0574,0.218281 0.19108,0.918486 0.29701,1.556011 0.24013,1.445223 0.65269,0.96982 0.66149,-0.762261 z m 3.83851,1.5875 c -0.0899,-0.145521 -0.28258,-0.264584 -0.4281,-0.264584 -0.14552,0 -0.191,0.119063 -0.10107,0.264584 0.0899,0.14552 0.28259,0.264583 0.42811,0.264583 0.14552,0 0.191,-0.119063 0.10106,-0.264583 z M 167.5838,88.279505 c -0.0845,-0.211067 -0.14716,-0.148372 -0.15986,0.159852 -0.0115,0.278915 0.0511,0.435184 0.13897,0.347266 0.0879,-0.08792 0.0973,-0.316122 0.0209,-0.507118 z m 14.37229,-1.67517 c 0.45585,-1.161424 0.90048,-2.280039 0.98807,-2.485812 0.10268,-0.241259 0.0493,-0.306189 -0.15031,-0.182823 -0.18762,0.115958 -0.30954,0.02269 -0.30954,-0.236794 0,-0.256225 0.12264,-0.352309 0.30546,-0.239318 0.19078,0.117905 0.23358,0.07248 0.11401,-0.120993 -0.1053,-0.170379 -0.29406,-0.246364 -0.41947,-0.168856 -0.12541,0.07751 -0.30281,0.01992 -0.39421,-0.127976 -0.36313,-0.587547 -0.56097,-0.18202 -0.8703,1.783825 -0.31825,2.022546 -0.43278,4.230669 -0.20776,4.005656 0.0634,-0.06338 0.4882,-1.065486 0.94405,-2.226909 z m -13.4947,1.872686 c 0,-0.06417 -0.11906,-0.190262 -0.26458,-0.280199 -0.14552,-0.08994 -0.26459,-0.03743 -0.26459,0.116677 0,0.154109 0.11907,0.280198 0.26459,0.280198 0.14552,0 0.26458,-0.0525 0.26458,-0.116676 z m 16.10858,-2.242497 c 0.4156,-0.295935 1.06885,-0.657145 1.45166,-0.802688 0.7438,-0.282795 0.82244,-0.462173 0.45617,-1.040497 -0.19423,-0.306674 -0.33158,-0.295967 -0.84857,0.06615 -0.71823,0.503069 -1.1414,0.564589 -0.8707,0.126582 0.12064,-0.195196 0.0722,-0.233387 -0.13428,-0.105797 -0.17769,0.109816 -0.25893,0.263798 -0.18055,0.342183 0.0784,0.07838 -0.15182,0.492316 -0.51156,0.919848 -0.45251,0.537771 -0.64673,1.076848 -0.63022,1.749217 l 0.0239,0.971888 0.24427,-0.844409 c 0.13435,-0.464424 0.58432,-1.086537 0.99992,-1.382473 z m 0.24901,1.572871 c 0.0798,-0.239515 -0.0232,-0.301878 -0.3142,-0.190204 -0.23813,0.09138 -0.43297,0.06928 -0.43297,-0.04912 0,-0.361146 1.04886,-1.188704 1.25073,-0.986834 0.10403,0.104035 0.0311,0.286859 -0.16216,0.406278 -0.21695,0.13408 -0.24992,0.27979 -0.0862,0.380969 0.29605,0.182967 0.66391,-0.549939 0.44986,-0.896277 -0.0753,-0.121912 0.11184,-0.300632 0.41596,-0.397156 0.30412,-0.09652 0.49551,-0.232939 0.4253,-0.303142 -0.18973,-0.18973 -1.56417,0.574592 -2.10205,1.168941 -0.27484,0.303699 -0.39792,0.702633 -0.29751,0.964312 0.19205,0.500472 0.67217,0.445462 0.85325,-0.09776 z m -17.01905,-0.272031 c -0.0899,-0.145521 -0.28258,-0.264583 -0.4281,-0.264583 -0.14552,0 -0.191,0.119062 -0.10107,0.264583 0.0899,0.145521 0.28259,0.264583 0.42811,0.264583 0.14552,0 0.191,-0.119062 0.10106,-0.264583 z m 7.01146,0.04976 c 0,-0.118154 -0.35052,-0.473975 -0.77893,-0.790712 l -0.77893,-0.575886 0.27565,0.790712 c 0.17575,0.504162 0.45803,0.790712 0.77893,0.790712 0.2768,0 0.50328,-0.09667 0.50328,-0.214826 z m -10.4227,-0.703557 c -0.0314,-0.214069 -0.15903,-0.48196 -0.28359,-0.595313 -0.12456,-0.113352 -0.14082,-0.05727 -0.0361,0.124634 0.11089,0.192686 0.0458,0.33242 -0.15602,0.334781 -0.25167,0.0029 -0.23785,0.07416 0.0505,0.260531 0.50736,0.32788 0.49229,0.332299 0.42522,-0.124633 z m 22.23959,-0.470679 c -0.0734,-0.181901 -0.13345,-0.03307 -0.13345,0.330729 0,0.363802 0.0601,0.51263 0.13345,0.330729 0.0734,-0.181901 0.0734,-0.479557 0,-0.661458 z m 7.18907,0.236479 c 0.11405,-0.598028 -0.4848,-1.277754 -0.67309,-0.763997 -0.067,0.182807 -0.24347,0.257194 -0.39215,0.165304 -0.17163,-0.106075 -0.20668,0.06238 -0.096,0.461372 0.15966,0.575532 0.14288,0.589461 -0.19926,0.165425 -0.38957,-0.482813 -0.97672,-0.626409 -0.97672,-0.238869 0,0.329439 1.10831,0.816908 1.71709,0.755229 0.28955,-0.02934 0.56861,-0.274345 0.62012,-0.544464 z m 1.70602,-0.170333 c 0.12173,0 0.13731,0.148828 0.0346,0.330729 -0.14824,0.262563 -0.11419,0.263472 0.16518,0.0044 0.19355,-0.179475 0.27437,-0.403861 0.1796,-0.498634 -0.22608,-0.226074 -1.77679,0.419565 -1.77679,0.739764 0,0.136117 0.26462,0.06214 0.58804,-0.164391 0.32342,-0.226533 0.68764,-0.411878 0.80936,-0.411878 z m -21.03861,-2.266903 c -0.0513,-0.05135 -0.35605,-0.02466 -0.67711,0.0593 -0.76428,0.199862 -0.759,1.060131 0.0115,1.883839 l 0.59531,0.63638 0.0818,-1.243079 c 0.045,-0.683693 0.0398,-1.28509 -0.0116,-1.336437 z m -10.78587,1.854413 c 0,-0.22687 -0.11906,-0.338906 -0.26458,-0.248969 -0.14552,0.08994 -0.26459,0.02941 -0.26459,-0.134506 0,-0.18346 0.21612,-0.229434 0.5622,-0.119593 0.64006,0.203146 1.01501,-0.215408 1.02125,-1.140004 0.003,-0.511372 -0.0956,-0.575351 -0.66807,-0.431662 -0.46338,0.116302 -0.84605,0.01516 -1.23216,-0.325688 -0.55493,-0.489866 -0.55825,-0.488341 -0.36344,0.167078 0.10813,0.363802 0.18389,0.996278 0.16837,1.405501 -0.0155,0.409224 0.0408,0.855708 0.12514,0.992188 0.24902,0.402928 0.91588,0.283268 0.91588,-0.164345 z m 25.96277,-0.05053 c -0.13728,-0.254662 -0.55819,-0.751666 -0.93535,-1.104454 -0.91547,-0.856302 -0.94705,-0.11465 -0.0369,0.867381 0.74853,0.807677 1.36028,0.956842 0.97228,0.237073 z M 165.74259,85.77025 c 0.0656,-0.197142 -0.0949,-0.25812 -0.44109,-0.167579 -0.29935,0.07828 -0.54428,0.256237 -0.54428,0.395456 0,0.351259 0.85867,0.152683 0.98537,-0.227877 z m 29.53238,0.148442 c 0.79251,-0.361089 1.38239,-1.514021 0.98033,-1.916074 -0.37667,-0.376673 -0.35527,-1.044617 0.0259,-0.809026 0.21243,0.131288 0.25191,-0.0169 0.13189,-0.495097 -0.13658,-0.544167 -0.0672,-0.69961 0.34256,-0.767067 0.49538,-0.08156 0.49073,-0.132122 -0.12947,-1.407518 -0.7551,-1.552819 -0.73685,-1.47295 -0.31742,-1.389063 0.19959,0.03992 0.30582,-0.169468 0.2679,-0.528061 -0.0376,-0.355482 0.0687,-0.568077 0.26459,-0.529167 0.18007,0.03577 0.3274,-0.113553 0.3274,-0.331834 0,-0.27937 -0.25459,-0.385324 -0.85989,-0.357863 -0.47295,0.02146 -0.8599,-0.06784 -0.8599,-0.198437 0,-0.354772 -0.73324,-0.28669 -0.85527,0.07941 -0.0818,0.245329 -0.28089,0.245977 -0.88195,0.0029 -0.97764,-0.395418 -5.83059,-0.266086 -6.26361,0.166927 -0.42249,0.422489 -0.73042,0.384638 -0.73042,-0.08979 0,-0.715132 -1.02468,-0.435673 -1.45521,0.396875 -0.49964,0.96619 -0.72995,1.02646 -0.50552,0.132292 0.13663,-0.544389 0.07,-0.661459 -0.37622,-0.661459 -0.74221,0 -0.8819,0.32595 -0.49997,1.166642 0.24204,0.532757 0.47312,0.684441 0.91869,0.603022 0.3791,-0.06927 0.59531,0.02203 0.59531,0.251401 0,0.552233 0.47423,0.428054 0.81794,-0.214182 0.25473,-0.475969 0.225,-0.634613 -0.17355,-0.926041 -0.40329,-0.294891 -0.41327,-0.351675 -0.0618,-0.351675 0.23053,0 0.49057,0.18614 0.57787,0.413645 0.0952,0.248059 0.28992,0.332563 0.48646,0.211098 0.18025,-0.1114 0.0545,0.144758 -0.27936,0.569241 -0.56802,0.722119 -0.57622,0.783052 -0.12742,0.946828 0.26381,0.09627 0.62849,0.05611 0.81039,-0.08924 0.2249,-0.179711 0.33073,-0.169779 0.33073,0.03104 0,0.162425 0.26789,0.254137 0.59532,0.203803 0.32742,-0.05034 0.59683,-0.279309 0.59868,-0.508833 0.002,-0.229523 0.0912,-0.505094 0.19844,-0.612378 0.10728,-0.107285 0.19506,-0.04913 0.19506,0.129232 0,0.178363 0.11907,0.250711 0.26459,0.160774 0.54538,-0.337065 0.23371,-0.605652 -0.65433,-0.563885 l -0.91891,0.04322 0.72047,-0.590048 c 0.82305,-0.67405 1.34356,-0.803578 0.85277,-0.212203 -0.28565,0.344184 -0.14545,0.396875 1.05605,0.396875 1.46834,0 3.28044,0.785206 3.57329,1.548353 0.11791,0.307268 0.0237,0.28671 -0.38625,-0.08431 -0.86687,-0.784506 -0.83618,-0.382641 0.11512,1.507492 0.71788,1.426353 0.94803,1.695322 1.19551,1.397133 0.23556,-0.283838 0.20458,-0.584013 -0.13392,-1.297341 -0.24222,-0.510433 -0.36929,-1.043107 -0.28239,-1.183719 0.21844,-0.353439 -1.9324,-2.147415 -2.60535,-2.173081 -0.3078,-0.01174 -0.39679,-0.08136 -0.20316,-0.158939 0.18948,-0.07593 0.93717,0.116901 1.66152,0.428508 1.34962,0.580592 1.98011,0.523053 1.71919,-0.156894 -0.0823,-0.214356 -0.0318,-0.312475 0.11425,-0.222205 0.44221,0.2733 0.28987,0.966304 -0.24306,1.105667 -0.48083,0.12574 -0.47459,0.176186 0.13229,1.070485 0.7195,1.060235 0.73771,1.17815 0.37648,2.437689 -0.20408,0.711603 -0.17402,1.003532 0.13897,1.349379 0.35623,0.393634 0.35578,0.477517 -0.004,0.776242 -0.32226,0.267452 -0.48349,0.268568 -0.80042,0.0055 -0.21828,-0.181157 -0.41176,-0.255267 -0.42995,-0.164689 -0.0182,0.09058 -0.048,0.27383 -0.0662,0.407224 -0.0182,0.133394 -0.11416,0.323628 -0.21328,0.422742 -0.16783,0.167824 -0.007,0.922222 0.19607,0.922222 0.0503,0 0.38166,-0.132191 0.73626,-0.293759 z m -28.40039,-0.31189 c 0.37609,0.09835 0.5485,-0.04347 0.67745,-0.557254 0.0951,-0.379049 0.3424,-0.68918 0.54947,-0.68918 0.54951,0 0.74069,-0.731412 0.32334,-1.237021 -0.28149,-0.34103 -0.28797,-0.460885 -0.0296,-0.547846 0.45917,-0.154541 0.4148,-0.845314 -0.0661,-1.029869 -0.21828,-0.08376 -0.39266,-0.347917 -0.3875,-0.587009 0.0142,-0.658267 0.696,-1.75763 1.09004,-1.75763 0.1917,0 0.39057,-0.218239 0.44194,-0.484975 0.08,-0.415226 0.0143,-0.442638 -0.45666,-0.190594 -0.95137,0.50916 -1.40314,1.755872 -1.30783,3.609135 0.093,1.80755 -0.36996,2.725536 -1.21156,2.402585 -0.69098,-0.265154 -0.48354,-0.732626 0.24407,-0.550009 l 0.66146,0.166016 v -2.136144 c 0,-2.031506 0.042,-2.183983 0.85751,-3.112799 l 0.85752,-0.976656 -1.05596,0.219332 c -0.58077,0.120634 -1.37345,0.228564 -1.7615,0.239846 -0.76167,0.02214 -1.14653,0.280667 -1.14653,0.770166 0,0.169774 -0.1437,0.30868 -0.31934,0.30868 -0.34927,0 -1.11505,0.899925 -1.12571,1.322917 -0.004,0.145521 0.22988,-0.0926 0.51901,-0.529167 0.59174,-0.893507 0.70288,-0.612126 0.15148,0.383545 -0.19741,0.35647 -0.30253,0.83272 -0.2336,1.058333 0.0838,0.274154 -0.0226,0.234699 -0.32052,-0.118961 -0.43904,-0.521091 -0.44297,-0.519576 -0.25784,0.09928 0.10959,0.366333 0.0858,0.565279 -0.0571,0.476995 -0.13794,-0.08525 -0.19503,0.189392 -0.13061,0.628325 0.14182,0.966292 0.58355,1.031332 0.58355,0.08592 0,-0.557469 0.0713,-0.634728 0.36245,-0.393051 0.29384,0.243865 0.39547,0.09433 0.53687,-0.789991 0.12393,-0.77502 0.47886,-1.401366 1.22604,-2.163603 0.57839,-0.590043 1.13702,-0.9874 1.2414,-0.883016 0.10439,0.104383 0.049,0.276784 -0.12301,0.383112 -0.49829,0.307957 -1.11348,2.021728 -0.95006,2.646631 0.11913,0.455573 0.033,0.570856 -0.42636,0.570856 -0.39714,0 -0.50993,-0.102554 -0.36373,-0.330729 0.11655,-0.181901 0.34695,-0.715594 0.51201,-1.185985 0.39685,-1.131005 -0.10136,-0.813364 -0.60141,0.383438 -0.33127,0.792842 -0.33268,0.996964 -0.0103,1.489055 0.28302,0.431989 0.30246,0.685228 0.0802,1.044394 -0.23853,0.385394 -0.17962,0.560745 0.31477,0.936915 0.33452,0.254531 0.56239,0.636485 0.50638,0.848786 -0.056,0.212301 -0.0561,0.309344 -2.2e-4,0.215651 0.0559,-0.09369 0.32863,-0.110983 0.6061,-0.03842 z m -1.4559,-6.802684 c 0.0899,-0.145521 0.28259,-0.264583 0.42811,-0.264583 0.14552,0 0.191,0.119062 0.10106,0.264583 -0.0899,0.145521 -0.28259,0.264584 -0.42811,0.264584 -0.14552,0 -0.191,-0.119063 -0.10106,-0.264584 z m 27.64896,6.057109 c 0,-0.327049 -0.18652,-0.500859 -0.53747,-0.500859 -0.57511,0 -0.92428,-0.559824 -0.69592,-1.115751 0.0878,-0.213726 0.20647,-0.118961 0.3204,0.255855 0.17432,0.573488 0.75057,0.806885 0.97987,0.396875 0.061,-0.10914 0.073,-0.0451 0.0265,0.142307 -0.12073,0.487027 0.70907,0.734699 0.98208,0.293123 0.14374,-0.232495 0.0924,-0.50523 -0.13858,-0.736294 -0.28272,-0.282815 -0.298,-0.477321 -0.0666,-0.847863 0.33289,-0.533053 0.19939,-0.775826 -0.48161,-0.875775 -0.31685,-0.0465 -0.48056,-0.367536 -0.54316,-1.065159 -0.0493,-0.549226 -0.23012,-1.167906 -0.40186,-1.374845 -0.25521,-0.307497 -0.22082,-0.347632 0.18818,-0.21963 0.30326,0.09491 0.23981,-0.0033 -0.16102,-0.249151 -0.3638,-0.223176 -0.95789,-0.409993 -1.32021,-0.41515 l -0.65875,-0.0094 0.7249,0.672166 c 0.47404,0.439561 0.71406,0.920249 0.69359,1.389062 l -0.0313,0.716897 -0.20198,-0.79375 c -0.20101,-0.789985 -0.20212,-0.789044 -0.23328,0.198437 -0.0172,0.545703 -0.1206,0.978088 -0.22974,0.960856 -0.91629,-0.144678 -1.20296,0.606801 -0.40238,1.054825 0.43296,0.242296 0.4326,0.283567 -0.007,0.768961 -0.40717,0.449915 -0.41604,0.552882 -0.0722,0.838221 0.21558,0.178913 0.51624,0.248489 0.66814,0.154613 0.15189,-0.09388 0.27617,-0.0089 0.27617,0.188888 0,0.52164 0.53503,0.975718 0.95828,0.813299 0.20054,-0.07696 0.36463,-0.36531 0.36463,-0.640783 z m -27.47698,0.160599 c 0,-0.138244 -0.12799,-0.294018 -0.28443,-0.346163 -0.15643,-0.05215 -0.28442,0.103629 -0.28442,0.346163 0,0.242535 0.12799,0.398309 0.28442,0.346163 0.15644,-0.05214 0.28443,-0.207918 0.28443,-0.346163 z m 28.40302,0.132292 c 0.0899,-0.145521 -0.0221,-0.264583 -0.24897,-0.264583 -0.22687,0 -0.41249,0.119062 -0.41249,0.264583 0,0.145521 0.11204,0.264583 0.24897,0.264583 0.13693,0 0.32255,-0.119062 0.41249,-0.264583 z m -9.52562,-1.279441 c -0.18922,-0.189218 -0.92542,0.192344 -0.92542,0.479629 0,0.174137 0.18982,0.156582 0.51713,-0.04783 0.28443,-0.177626 0.46816,-0.371937 0.40829,-0.431803 z m 10.90362,-0.127642 c -0.0784,-0.204364 -0.40442,-0.440042 -0.72444,-0.523729 l -0.58185,-0.152157 0.6046,0.643566 c 0.62535,0.665659 0.95047,0.680634 0.70169,0.03232 z m -18.17904,-0.180417 c -0.27965,-0.522536 -0.79375,-0.728175 -0.79375,-0.3175 0,0.278254 0.57466,0.846667 0.85598,0.846667 0.12153,0 0.0935,-0.238125 -0.0622,-0.529167 z m -12.07358,-0.207887 c 0.0707,-0.114338 -0.1009,-0.207887 -0.38126,-0.207887 -0.28036,0 -0.50974,0.09355 -0.50974,0.207887 0,0.114338 0.17156,0.207887 0.38126,0.207887 0.20969,0 0.43907,-0.09355 0.50974,-0.207887 z m 13.52482,-1.33889 c -0.2505,-0.05036 -0.64434,0.09732 -0.87521,0.328187 -0.38329,0.383287 -0.34371,0.391243 0.45545,0.09157 0.60252,-0.225933 0.73331,-0.356718 0.41976,-0.419757 z m 3.45913,0.347738 c -0.28248,-0.213654 -0.63966,-0.384242 -0.79375,-0.379085 -0.15409,0.0052 0.0175,0.179531 0.3813,0.387499 0.85705,0.489936 1.0657,0.485679 0.41245,-0.0084 z m -3.07374,-0.931326 0.67691,-0.205402 -0.66146,-0.01913 c -1.04074,-0.0301 -1.85208,0.26572 -1.85208,0.675272 0,0.304275 0.10977,0.316578 0.57986,0.06499 0.31892,-0.170683 0.88447,-0.402763 1.25677,-0.515734 z m -9.70798,-0.04464 c -0.32743,-0.157909 -0.59532,-0.47132 -0.59532,-0.696468 0,-0.317678 -0.0709,-0.338473 -0.31651,-0.09285 -0.24562,0.245623 -0.20118,0.403732 0.19844,0.705961 0.28322,0.214198 0.69354,0.38518 0.91182,0.379959 0.23941,-0.0057 0.16067,-0.123411 -0.19843,-0.296601 z M 195.3479,80.74574 c -0.22385,-0.413048 -0.41176,-0.667301 -0.41758,-0.565008 -0.0179,0.314504 0.59763,1.54294 0.71455,1.426022 0.0605,-0.06051 -0.0731,-0.447967 -0.29697,-0.861014 z m -1.75109,0.175046 c -0.15576,-0.291042 -0.3274,-0.529167 -0.38142,-0.529167 -0.054,0 -0.0359,0.238125 0.0402,0.529167 0.0761,0.291041 0.24774,0.529166 0.38142,0.529166 0.13426,0 0.11628,-0.236822 -0.0402,-0.529166 z m -23.8125,0.02831 c 0,-0.129951 -0.1786,-0.304808 -0.39688,-0.388571 -0.4033,-0.15476 -0.54186,0.127079 -0.22048,0.448458 0.25286,0.252862 0.61736,0.217504 0.61736,-0.05989 z m 12.5677,-2.938724 c -0.10009,-0.31538 -0.0475,-0.529166 0.13008,-0.529166 0.16392,0 0.215,-0.134352 0.11351,-0.298561 -0.25101,-0.406142 -0.7335,0.468232 -0.53861,0.976089 0.22403,0.583817 0.48565,0.452253 0.29502,-0.148362 z m 14.94896,26.045838 c 0,-0.22687 0.12101,-0.3377 0.2689,-0.2463 0.1479,0.0914 0.2004,0.27702 0.11668,0.41249 -0.22681,0.36699 -0.38558,0.29856 -0.38558,-0.16619 z m 1.45521,-24.458338 c 0.0899,-0.145521 0.21603,-0.264583 0.2802,-0.264583 0.0642,0 0.11668,0.119062 0.11668,0.264583 0,0.145521 -0.12609,0.264583 -0.2802,0.264583 -0.15411,0 -0.20662,-0.119062 -0.11668,-0.264583 z"
       id="path768" />
  </g>
</svg>
