<?xml version="1.0" encoding="UTF-8" standalone="no"?>
<!-- Created with Inkscape (http://www.inkscape.org/) -->

<svg
   width="36.948181mm"
   height="36.418217mm"
   viewBox="0 0 36.948194 36.418212"
   version="1.1"
   id="svg5"
   inkscape:version="1.1 (c4e8f9ed74, 2021-05-24)"
   sodipodi:docname="ornates.svg"
   xmlns:inkscape="http://www.inkscape.org/namespaces/inkscape"
   xmlns:sodipodi="http://sodipodi.sourceforge.net/DTD/sodipodi-0.dtd"
   xmlns="http://www.w3.org/2000/svg"
   xmlns:svg="http://www.w3.org/2000/svg">
  <sodipodi:namedview
     id="namedview7"
     pagecolor="#ffffff"
     bordercolor="#666666"
     borderopacity="1.0"
     inkscape:pageshadow="2"
     inkscape:pageopacity="0.0"
     inkscape:pagecheckerboard="0"
     inkscape:document-units="mm"
     showgrid="false"
     inkscape:zoom="1.3380612"
     inkscape:cx="-14.573325"
     inkscape:cy="199.16877"
     inkscape:window-width="2506"
     inkscape:window-height="1403"
     inkscape:window-x="1974"
     inkscape:window-y="0"
     inkscape:window-maximized="1"
     inkscape:current-layer="layer1" />
  <defs
     id="defs2" />
  <g
     inkscape:label="Layer 1"
     inkscape:groupmode="layer"
     id="layer1"
     transform="translate(138.54508,-43.536115)">
    <path
       style="fill:#000000;stroke-width:0.264583"
       d="m -138.099,79.886068 c -0.14669,-0.572542 -0.0824,-3.636552 0.0836,-3.984839 0.13116,-0.275207 0.0976,-0.692981 -0.0827,-1.029941 -0.37975,-0.709554 -0.35855,-4.894911 0.0324,-6.388952 0.54903,-2.098421 1.05394,-2.983522 1.73406,-3.03981 0.46291,-0.03831 0.63503,0.08171 0.63503,0.442787 0,0.272439 0.20836,0.568838 0.46302,0.658665 0.25466,0.08983 0.59669,0.227643 0.76007,0.306261 0.16337,0.07862 0.36058,-0.100053 0.43825,-0.397045 0.15362,-0.587446 0.83826,-0.726074 1.14385,-0.231611 0.11156,0.180512 -0.1288,0.565991 -0.5797,0.929686 -0.64443,0.519801 -0.70544,0.663282 -0.3734,0.878199 0.21828,0.141288 0.46711,0.25871 0.55296,0.260938 0.18358,0.0048 0.67977,-1.600184 0.88822,-2.872977 l 0.14619,-0.892654 -1.389,0.151604 c -0.76395,0.08338 -1.71642,0.231067 -2.1166,0.328186 -0.42328,0.102726 -0.72761,0.06685 -0.72761,-0.08577 0,-0.144295 0.36508,-0.335371 0.81129,-0.424612 0.45235,-0.09047 0.73789,-0.281008 0.6454,-0.430664 -0.11133,-0.180141 -0.3289,-0.181163 -0.6616,-0.0031 -0.27264,0.145914 -0.74167,0.265299 -1.04228,0.265299 -0.30061,0 -0.53246,0.0893 -0.51523,0.198437 0.0975,0.617391 -0.10587,0.859896 -0.72109,0.859896 -0.52028,0 -0.65031,-0.102839 -0.52917,-0.418514 0.0883,-0.230184 0.1606,-0.459075 0.1606,-0.508648 0,-0.04957 0.43096,-0.232364 0.9577,-0.406202 0.70514,-0.232717 0.86213,-0.377677 0.59531,-0.549686 -0.30624,-0.197422 -0.3056,-0.270209 0.004,-0.469801 0.25905,-0.16692 0.30684,-0.457893 0.16298,-0.992188 l -0.20356,-0.756003 -0.26074,0.926042 c -0.2454,0.871558 -0.27628,0.892253 -0.52476,0.351749 -0.20212,-0.439643 -0.12317,-0.885944 0.33671,-1.903512 0.56033,-1.239827 0.65584,-1.321373 1.42011,-1.212541 l 0.81939,0.116678 -0.84804,-0.26818 c -0.96616,-0.305533 -1.6655,-1.157741 -1.6655,-2.029553 0,-0.41955 -0.1167,-0.549505 -0.39688,-0.441988 -0.27227,0.104478 -0.39687,-0.01594 -0.39687,-0.383539 0,-0.294709 -0.0597,-0.694401 -0.13271,-0.888204 -0.1731,-0.459637 1.46588,-1.425334 1.72033,-1.013626 0.11916,0.1928 0.30358,0.138748 0.5524,-0.161899 0.5334,-0.644524 2.33111,-1.40791 3.41623,-1.450683 0.56715,-0.02236 0.72096,-0.08583 0.39687,-0.163784 -0.29104,-0.07001 -0.6367,-0.229215 -0.76814,-0.3538 -0.13314,-0.126206 -0.46539,-0.10534 -0.75026,0.04712 -0.64512,0.345255 -0.91117,0.105727 -0.47128,-0.424302 0.27646,-0.333121 0.26001,-0.403269 -0.0946,-0.403269 -0.2361,0 -0.42927,0.119063 -0.42927,0.264584 0,0.63052 -0.53266,0.19416 -0.5652,-0.463021 -0.0312,-0.629692 -0.0515,-0.646967 -0.15121,-0.128368 -0.0633,0.32958 -0.22616,0.530643 -0.36181,0.446806 -0.13566,-0.08384 -0.18721,-0.413024 -0.11457,-0.731528 0.086,-0.377037 -0.0939,-0.832975 -0.5155,-1.306702 -0.76573,-0.860351 -0.93755,-0.901069 -0.93755,-0.222182 0,0.670795 1.32285,2.669578 1.76679,2.669578 0.19244,0 0.34988,0.127086 0.34988,0.282413 0,0.52875 -1.18015,-0.05144 -2.07031,-1.017823 -0.73902,-0.802294 -0.85407,-1.091555 -0.71949,-1.808956 0.0881,-0.469674 0.0673,-0.911466 -0.0464,-0.98176 -0.11361,-0.07029 -0.20656,-1.180907 -0.20656,-2.468028 V 43.82051 l 0.92605,0.08062 c 0.50932,0.04434 1.74889,0.08018 2.7546,0.07965 1.00571,-5.32e-4 2.04934,0.117188 2.31918,0.261601 0.26983,0.144413 0.91531,0.296016 1.43439,0.336896 0.51907,0.04088 1.02326,0.191438 1.1204,0.334577 0.22935,0.337929 1.42512,1.155619 1.68995,1.155619 0.11272,0 0.65178,-0.399162 1.1979,-0.887026 0.82336,-0.735525 1.27286,-0.915329 2.6318,-1.052731 1.52621,-0.154314 1.67431,-0.120624 2.15475,0.490152 0.61538,0.782336 1.7156,0.866285 2.21067,0.168678 0.60848,-0.857428 1.44424,-1.130768 2.87649,-0.940774 1.32945,0.176358 1.73105,0.415654 2.47135,1.472581 0.38253,0.546144 0.38728,0.545356 1.58465,-0.262739 1.90617,-1.286454 4.50711,-1.805973 4.82992,-0.964739 0.13415,0.349582 0.19603,0.352949 0.45472,0.02474 0.47531,-0.603047 1.87408,-0.790799 2.27676,-0.305601 0.21862,0.263431 0.4484,0.324204 0.63747,0.168603 0.16259,-0.133814 0.71234,-0.28411 1.22166,-0.333992 l 0.92604,-0.09069 0.0821,1.293683 c 0.088,1.384986 -0.13512,1.860505 -0.70699,1.507072 -0.28249,-0.174588 -0.29125,-0.340596 -0.0425,-0.805393 0.48686,-0.909692 0.15265,-0.910801 -0.75564,-0.0025 -0.96378,0.96378 -1.04492,1.460046 -0.27179,1.662227 0.46509,0.121622 0.52553,0.275441 0.37591,0.956642 -0.1475,0.67157 -0.10614,0.784033 0.23956,0.651376 0.26713,-0.102501 0.41784,-0.484138 0.41784,-1.058068 0,-0.493754 0.13157,-0.897735 0.29238,-0.897735 0.19387,0 0.2359,0.378837 0.12475,1.12448 -0.0922,0.618463 -0.16868,1.456172 -0.16998,1.861575 -0.001,0.405403 -0.11698,0.666267 -0.25705,0.579698 -0.14008,-0.08657 -0.25468,0.154311 -0.25468,0.535289 0,0.456761 0.10418,0.628301 0.30588,0.503646 0.21991,-0.135917 0.26177,0.08276 0.14892,0.778135 -0.0962,0.592716 -0.0506,0.967178 0.11764,0.967178 0.17337,0 0.21636,0.463299 0.11662,1.25677 -0.22981,1.828225 -0.22954,1.787695 -0.0327,4.998109 0.12333,2.012092 0.0898,3.003726 -0.10552,3.124469 -0.15741,0.09728 -0.2862,0.423932 -0.2862,0.725882 0,1.585998 -1.04185,3.305677 -1.38289,2.282585 -0.0609,-0.182716 -0.30089,-0.236655 -0.57866,-0.130061 -0.26104,0.100168 -0.41475,0.338109 -0.34159,0.528758 0.0841,0.219028 -0.0664,0.339959 -0.40879,0.328499 -0.298,-0.01 -0.58849,0.115532 -0.64555,0.278905 -0.13201,0.377972 1.03411,0.698859 1.25295,0.344779 0.10114,-0.163651 0.659,-0.04786 1.46467,0.304017 1.00461,0.438757 1.19413,0.608218 0.83125,0.74323 -0.42685,0.158805 -0.43287,0.223 -0.0655,0.698117 0.32904,0.425546 0.37447,0.436788 0.24332,0.06021 -0.0903,-0.259234 -0.0323,-0.463021 0.13164,-0.463021 0.18233,0 0.28587,0.574283 0.2743,1.521354 -0.0121,0.987536 -0.0893,1.340649 -0.22013,1.006356 -0.19237,-0.491556 -0.20846,-0.488545 -0.35351,0.06615 -0.21587,0.82546 -0.6369,0.71933 -0.82222,-0.207251 -0.10746,-0.537308 -0.27721,-0.742527 -0.533,-0.644372 -0.21265,0.0816 -0.31961,0.357037 -0.2468,0.635495 0.0928,0.355063 -0.17228,0.690536 -0.95528,1.208696 -0.59609,0.394476 -1.0838,0.813443 -1.0838,0.931037 0,0.450477 0.62328,0.571545 0.91171,0.177091 0.27111,-0.370763 0.36925,-0.361897 0.95205,0.08599 0.35738,0.274648 0.97018,0.502007 1.36177,0.505243 0.39159,0.0032 0.79131,0.134229 0.88826,0.291095 0.097,0.156866 0.21883,1.471906 0.27084,2.922312 0.0724,2.019083 0.012,2.668768 -0.25756,2.772228 -0.19368,0.07432 -1.09758,-0.115994 -2.00868,-0.422921 -1.32019,-0.444741 -1.81704,-0.502094 -2.44702,-0.282482 -0.43477,0.151561 -0.90338,0.205795 -1.04135,0.120523 -0.13797,-0.08527 -0.47705,0.04966 -0.7535,0.299841 -0.59293,0.536591 -1.30861,0.344213 -1.50437,-0.404381 -0.11304,-0.43225 -0.38398,-0.53644 -1.49624,-0.575376 -2.18997,-0.07666 -3.02764,0.01926 -6.50904,0.74544 -2.59875,0.542057 -3.63745,0.646652 -4.89479,0.4929 -2.16977,-0.26533 -3.46482,-0.242758 -5.06174,0.08822 -1.29914,0.269263 -4.20375,0.05797 -4.87086,-0.35433 -0.15707,-0.09707 -0.46204,-0.03004 -0.67771,0.148949 -0.33534,0.27831 -4.04381,0.69745 -4.10367,0.463807 z m 2.00691,-1.274482 c 0.55549,-0.613815 0.31909,-1.040244 -0.34489,-0.62212 -0.49204,0.309851 -0.76878,1.152909 -0.37845,1.152909 0.13364,0 0.45914,-0.238856 0.72334,-0.530789 z m 1.6654,0.213289 c 0.17463,-0.174625 0.3175,-0.611736 0.3175,-0.971355 0,-1.078211 1.26095,-2.09941 1.70504,-1.380855 0.2492,0.40322 -0.12115,1.019405 -0.73115,1.216475 -0.47408,0.153154 -0.49797,0.20778 -0.13394,0.306213 0.38834,0.105005 1.20658,-0.255357 3.21365,-1.415333 0.51835,-0.299575 0.50801,-0.320805 -0.23431,-0.481333 -0.42712,-0.09236 -1.05007,-0.278757 -1.38434,-0.414208 -1.13551,-0.460123 -1.86687,-0.29523 -2.28607,0.515417 -0.21664,0.418928 -0.56379,0.826886 -0.77146,0.906573 -0.20766,0.07969 -0.55695,0.504476 -0.7762,0.943968 -0.41317,0.828204 -0.40287,0.845878 0.61826,1.061246 0.08,0.01688 0.2884,-0.112183 0.46302,-0.286808 z m 7.44253,-0.181364 c 0.11109,-0.179761 0.62655,-0.349414 1.14544,-0.377008 0.5189,-0.02759 0.92415,-0.15435 0.90056,-0.28168 -0.0236,-0.127331 0.1225,-0.291606 0.32466,-0.365054 0.24653,-0.08957 0.29841,-0.02167 0.15755,0.206245 -0.13631,0.220562 -0.10473,0.27473 0.09,0.154379 0.165,-0.101973 0.54757,-0.05291 0.85015,0.109027 0.30259,0.161938 0.8926,0.219218 1.31115,0.127291 0.72029,-0.158202 0.73715,-0.192651 0.31521,-0.643974 -0.38975,-0.416899 -0.51944,-0.431361 -1.03179,-0.115054 -1.03905,0.641469 -1.00479,0.388178 0.10314,-0.762704 1.26792,-1.317067 1.78885,-2.212578 1.41977,-2.440684 -0.14033,-0.08673 -0.49466,0.311777 -0.78739,0.885577 -0.61854,1.21244 -0.92828,1.371833 -1.96988,1.013724 -0.63496,-0.218302 -0.80793,-0.179961 -1.03732,0.229934 -0.49601,0.886314 -1.47308,1.700511 -2.04069,1.700511 -0.30625,0 -0.48323,0.119063 -0.39329,0.264584 0.10385,0.168029 -0.61461,0.264583 -1.96876,0.264583 -1.40353,0 -2.13228,0.101767 -2.13228,0.297762 0,0.422251 4.47338,0.170037 4.74377,-0.267459 z m 1.60622,-1.305976 c 0,-0.417107 0.65346,-0.840994 1.29646,-0.840994 0.36805,0 0.54997,0.09507 0.41011,0.214331 -0.44057,0.375672 -1.70657,0.840558 -1.70657,0.626663 z m 7.22919,0.988494 c 3.18641,-0.65678 4.41495,-0.798507 5.94954,-0.686348 1.7114,0.125082 1.92413,0.09028 1.84879,-0.302461 -0.0715,-0.372697 -0.48208,-0.452882 -2.56267,-0.500464 -4.25094,-0.09722 -5.3211,-0.813996 -5.3211,-3.564036 0,-1.878277 0.41487,-2.760631 1.89277,-4.025664 1.28005,-1.095675 1.99543,-1.205722 2.32259,-0.357286 0.2123,0.550537 0.2444,0.55848 0.42691,0.10559 0.21837,-0.541904 -0.2241,-0.954756 -1.0304,-0.961434 -0.83918,-0.007 -2.23461,0.8008 -2.90752,1.683027 -0.75644,0.991746 -1.50553,3.054474 -1.48053,4.076856 0.0243,0.995619 1.58101,3.077189 2.38421,3.188158 1.07156,0.148042 1.10149,0.466228 0.0467,0.496128 -0.54564,0.01548 -1.07981,-0.10976 -1.18704,-0.278278 -0.132,-0.207457 -0.19627,-0.174702 -0.19901,0.101431 -0.005,0.530706 -3.34308,1.421011 -5.15503,1.375015 -0.72298,-0.01836 -1.17424,0.05333 -1.00279,0.159285 0.66447,0.41067 2.10716,0.287636 5.97462,-0.509519 z m 8.55762,0.375373 c -0.097,-0.09701 -0.25576,-0.09701 -0.35278,0 -0.097,0.09701 -0.0176,0.176389 0.17639,0.176389 0.19403,0 0.2734,-0.07938 0.17639,-0.176389 z m 6.18972,-2.053157 c -0.16146,-0.19455 -0.20791,-0.714062 -0.10835,-1.211865 0.13516,-0.675765 0.0646,-0.951498 -0.31419,-1.228503 -0.79008,-0.577715 -1.95498,-0.452835 -2.22143,0.238143 -0.20396,0.528934 -0.25042,0.543685 -0.41665,0.132292 -0.19868,-0.491665 -0.65966,-0.636841 -0.65966,-0.207745 0,0.140401 0.24004,0.383735 0.53341,0.540744 0.44478,0.238041 0.56808,0.19176 0.74205,-0.278534 0.1864,-0.503886 0.24543,-0.519677 0.55379,-0.14813 0.29562,0.356195 0.22733,0.482936 -0.47579,0.883155 -0.45152,0.257006 -0.8217,0.542698 -0.82262,0.634873 -0.003,0.27949 1.26298,0.429205 1.63487,0.193374 0.26242,-0.166405 0.23413,-0.221565 -0.11518,-0.224624 -0.25467,-0.0022 -0.46303,-0.123113 -0.46303,-0.268634 0,-0.145521 0.23813,-0.264583 0.52917,-0.264583 0.29398,0 0.52917,-0.17639 0.52917,-0.396875 0,-0.218281 -0.11906,-0.396875 -0.26459,-0.396875 -0.14552,0 -0.26458,-0.119063 -0.26458,-0.264583 0,-0.353807 0.61552,-0.336982 0.97927,0.02677 0.18608,0.186079 0.21224,0.567195 0.0724,1.054764 -0.12694,0.442603 -0.11595,0.827069 0.0261,0.914887 0.54662,0.337833 0.19188,0.627925 -0.6148,0.502759 l -0.8599,-0.133427 0.8599,0.452625 c 0.47294,0.248944 0.85989,0.550088 0.85989,0.669208 0,0.319866 -0.37552,0.265163 -1.22652,-0.178665 -0.93993,-0.490209 -1.68389,-0.511257 -1.68389,-0.04763 0,0.213055 0.64951,0.501665 1.65365,0.7348 l 1.65364,0.383932 0.0832,-0.885558 c 0.0458,-0.487055 -0.044,-1.038796 -0.1994,-1.22609 z m -32.30229,0.369568 0.65445,-0.338603 -0.82991,-0.393042 c -0.50651,-0.239876 -1.0193,-0.311065 -1.31591,-0.182679 -0.45042,0.194967 -0.45232,0.218425 -0.0259,0.320541 0.42016,0.100618 0.4259,0.176278 0.0661,0.871955 -0.54953,1.062678 -0.49216,1.234355 0.20138,0.602657 0.32743,-0.298225 0.88982,-0.694597 1.24976,-0.880829 z m 6.82477,1.141759 c -0.39757,-0.06037 -1.11195,-0.06159 -1.5875,-0.0027 -0.47555,0.05889 -0.15026,0.108281 0.72287,0.109765 0.87312,0.0016 1.26221,-0.04669 0.86463,-0.107066 z m 20.5056,-0.141677 c 0.20196,-0.578987 -0.10847,-0.992187 -0.74542,-0.992187 -0.76834,0 -1.061,0.429337 -0.63915,0.93763 0.39185,0.472157 1.22741,0.505079 1.38457,0.05456 z m -10.32606,-0.70749 c 0.40725,-0.362101 -0.41568,-1.789076 -1.20318,-2.086322 -0.76184,-0.287562 -1.24203,-0.222869 -1.24203,0.167325 0,0.102603 0.47625,0.39288 1.05833,0.645057 0.95607,0.4142 1.43005,0.989243 0.81539,0.989243 -0.13362,0 -0.42086,0.06827 -0.63832,0.15172 -0.24416,0.09369 -0.44308,-0.03279 -0.52011,-0.330729 -0.0836,-0.323186 -0.13487,-0.244438 -0.15543,0.23854 -0.0287,0.674002 0.0254,0.71052 0.8292,0.560324 0.47294,-0.08836 0.94821,-0.239186 1.05615,-0.335158 z m -8.00146,-0.440148 c 0,-0.462838 -0.1402,-0.596357 -0.59531,-0.566965 -0.32743,0.02114 -0.75124,0.25236 -0.94181,0.513808 -0.24224,0.332338 -0.54076,0.426601 -0.99219,0.313301 -0.4014,-0.100745 -0.64569,-0.04807 -0.64569,0.139237 0,0.197157 0.54871,0.284834 1.5875,0.253664 1.46387,-0.04393 1.5875,-0.09478 1.5875,-0.653045 z m 5.82083,0.567942 c 0,-0.06417 -0.13746,-0.201631 -0.30546,-0.305464 -0.18926,-0.116967 -0.23365,-0.07258 -0.11668,0.116675 0.1885,0.304999 0.42214,0.409488 0.42214,0.188789 z m -4.19538,-1.879743 c 0.2921,-0.09271 0.4663,-0.233352 0.38712,-0.312537 -0.30953,-0.309528 -1.48277,0.751684 -1.46252,1.322867 0.0189,0.534389 0.0452,0.522639 0.2826,-0.126278 0.14394,-0.39352 0.5007,-0.791345 0.7928,-0.884052 z m -3.47754,0.689118 c 0,-0.136933 -0.11906,-0.322554 -0.26458,-0.412491 -0.14552,-0.08994 -0.26458,-0.442323 -0.26458,-0.783082 0,-0.488675 0.2096,-0.680011 0.99219,-0.905714 l 0.99218,-0.286155 -1.05833,0.143079 c -0.58208,0.07869 -1.74067,0.233048 -2.57463,0.343006 -0.83396,0.109961 -1.58304,0.266673 -1.66462,0.348255 -0.16666,0.166661 1.80337,1.008319 2.36012,1.008319 0.19752,0 0.50735,0.178594 0.6885,0.396875 0.37025,0.446117 0.79375,0.525031 0.79375,0.147908 z m 16.82999,-0.378016 c -0.14001,-0.772126 -0.73326,-1.754267 -1.05964,-1.754267 -0.13307,0 -0.0305,0.233691 0.22803,0.519311 0.26572,0.293619 0.39816,0.706456 0.30473,0.94992 -0.1842,0.480018 -10e-4,0.912019 0.38643,0.912019 0.13978,0 0.20299,-0.282141 0.14045,-0.626983 z m 3.97951,0.424495 c 0.53645,-0.342704 0.55745,-1.650844 0.0265,-1.647531 -0.30327,0.0019 -0.99219,1.139359 -0.99219,1.638183 0,0.263613 0.55925,0.269026 0.96574,0.0093 z m -26.63033,-0.286496 c 0,-0.123418 -0.48137,-0.441468 -1.06971,-0.706774 -0.99958,-0.450747 -1.09871,-0.453382 -1.51191,-0.04018 -0.4132,0.413197 -0.37878,0.44219 0.52493,0.44219 0.53192,0 1.04071,0.119063 1.13065,0.264584 0.19883,0.321722 0.92604,0.353277 0.92604,0.04018 z m 20.83594,0.05764 c 0.57759,-0.154787 0.82804,-0.981086 0.3811,-1.257314 -0.11782,-0.07281 -1.03549,0.118296 -2.03928,0.424686 -1.42259,0.434226 -1.71085,0.601744 -1.30714,0.759637 0.63802,0.249534 2.16619,0.28715 2.96532,0.07299 z m -9.81163,-0.274209 c -0.097,-0.09701 -0.25577,-0.09701 -0.35278,0 -0.097,0.09701 -0.0176,0.17639 0.17639,0.17639 0.19403,0 0.2734,-0.07937 0.17639,-0.17639 z m -3.61598,-0.485069 c 0,-0.218281 -0.11906,-0.396875 -0.26458,-0.396875 -0.14552,0 -0.26458,0.178594 -0.26458,0.396875 0,0.218281 0.11906,0.396875 0.26458,0.396875 0.14552,0 0.26458,-0.178594 0.26458,-0.396875 z m 16.16663,-0.437769 c -0.16996,-0.831027 -0.90163,-1.553969 -1.23516,-1.220435 -0.20069,0.200691 0.87876,2.055079 1.19628,2.055079 0.11527,0 0.13277,-0.375589 0.0389,-0.834644 z m -14.63599,-0.424503 c -0.24529,-0.295552 -0.3589,-0.29056 -0.67932,0.02985 -0.54612,0.546119 -0.17907,1.045075 0.47042,0.639467 0.38379,-0.239684 0.43344,-0.398765 0.2089,-0.66932 z m 16.57474,0.550715 c 0.0964,-0.2511 -0.006,-0.620422 -0.23628,-0.850448 -0.36574,-0.365739 -0.45011,-0.36308 -0.83965,0.02646 -0.23818,0.23818 -0.36098,0.620881 -0.27289,0.850447 0.2122,0.552987 1.1334,0.534916 1.34882,-0.02646 z m -13.47202,-0.449861 c 0.39916,-0.609203 0.36448,-0.680421 -1.09524,-2.248958 -1.48649,-1.597309 -2.2152,-1.99961 -2.2152,-1.22296 0,0.218281 0.11609,0.396875 0.25797,0.396875 0.14255,0 0.19044,0.337645 0.10703,0.754679 -0.11999,0.599943 -0.0101,0.865431 0.53578,1.29485 0.3777,0.297092 0.68672,0.6757 0.68672,0.841345 0,0.234972 0.59355,0.612987 1.25067,0.796521 0.033,0.0092 0.24555,-0.266335 0.47227,-0.612352 z m -11.67142,-0.0063 c -0.14962,-0.3899 -0.92473,-0.677841 -1.84105,-0.683919 -0.29961,-0.0021 -0.77586,-0.182898 -1.05834,-0.402029 -0.47905,-0.371623 -0.4635,-0.380521 0.23124,-0.132291 0.40966,0.14637 1.14529,0.266126 1.63475,0.266126 0.48945,0 1.0742,0.184287 1.29944,0.409527 0.31097,0.310962 0.53421,0.342802 0.92755,0.132292 0.28491,-0.152472 0.81764,-0.277228 1.18385,-0.277228 1.54936,0 3.41414,-0.606131 4.2244,-1.373103 0.4582,-0.433726 0.6566,-0.694801 0.44088,-0.580168 -0.9542,0.507064 -3.63899,0.7531 -4.09432,0.375209 -0.29734,-0.246769 -0.46297,-0.171892 -0.81786,0.369731 -0.53051,0.809659 -1.18857,0.869103 -1.82584,0.164928 -0.37414,-0.413425 -0.55951,-0.455449 -0.94556,-0.214358 -0.33761,0.210839 -0.58477,0.217348 -0.8324,0.02191 -0.24987,-0.197191 -0.60209,-0.173125 -1.21211,0.08282 -0.68896,0.289066 -0.8599,0.513006 -0.8599,1.126541 v 0.765754 l 1.5704,-0.107458 c 0.89275,-0.06109 1.6416,0.0078 1.73541,0.159528 0.24344,0.393896 0.40378,0.324385 0.23946,-0.103817 z m 9.41931,-0.01045 c 0,-0.06417 -0.13745,-0.201631 -0.30546,-0.305464 -0.18926,-0.116967 -0.23364,-0.07258 -0.11668,0.116676 0.1885,0.304998 0.42214,0.409487 0.42214,0.188788 z m 10.17522,-0.647134 c 1.48959,-0.662106 2.67635,-1.72724 3.51065,-3.150867 0.58484,-0.997948 0.70748,-1.520865 0.69154,-2.948678 -0.0372,-3.334515 -1.31001,-4.906896 -6.41948,-7.930426 -1.78316,-1.055184 -3.70089,-2.333006 -4.26164,-2.839605 -2.70705,-2.445657 -2.83815,-6.56399 -0.25153,-7.901582 0.77805,-0.402345 0.94309,-0.915959 0.35709,-1.111293 -0.57094,-0.190312 -2.10952,1.170139 -2.72315,2.407865 -0.4648,0.93754 -0.63076,1.68578 -0.60352,2.721024 0.0776,2.949031 1.42061,4.643234 6.21061,7.834585 1.63433,1.088879 3.59658,2.641298 4.36057,3.44982 l 1.38906,1.470041 v 1.970311 c 0,1.785648 -0.0806,2.089506 -0.85989,3.242097 -0.95768,1.416394 -2.70093,2.472595 -4.10105,2.484731 -0.9329,0.0081 -0.94138,0.0164 -0.6887,0.674868 0.13803,0.359709 0.37926,0.412837 1.24553,0.274317 0.59089,-0.09449 1.55565,-0.385731 2.14391,-0.647208 z m -4.88355,0.237961 c 0,-0.143695 -0.44648,-0.548092 -0.99219,-0.89866 -1.3125,-0.843171 -3.06265,-2.698983 -3.71395,-3.938169 l -0.52404,-0.997054 -0.13678,0.864762 c -0.12079,0.763654 0.0226,1.029584 1.22602,2.274464 1.27652,1.32044 3.44993,2.955923 3.92816,2.955923 0.11703,0 0.21278,-0.117568 0.21278,-0.261266 z m 11.98576,-0.622623 c 0.20498,-0.534175 -0.2111,-1.032489 -0.77267,-0.92538 -0.27485,0.05242 -0.5353,0.360074 -0.58201,0.687493 -0.0679,0.476213 0.0434,0.592609 0.567,0.592609 0.35836,0 0.71281,-0.159626 0.78768,-0.354722 z m -18.90904,-0.793043 c 0.52901,-1.103741 0.21912,-1.116005 -0.61358,-0.02429 -0.62386,0.817922 -0.65878,0.945023 -0.23734,0.863862 0.27177,-0.05234 0.65469,-0.430152 0.85092,-0.839581 z m 15.91911,0.237339 c 0,-0.209693 -0.11083,-0.44976 -0.2463,-0.533482 -0.31456,-0.194411 -0.63092,0.301035 -0.41515,0.650158 0.2433,0.393665 0.66145,0.319905 0.66145,-0.116676 z m 1.27331,-0.395954 c 0.0662,-0.198438 -0.0331,-0.297657 -0.23151,-0.231511 -0.19099,0.06366 -0.39936,0.272026 -0.46302,0.463021 -0.0661,0.198438 0.0331,0.297656 0.23151,0.23151 0.191,-0.06366 0.39936,-0.272026 0.46302,-0.46302 z m -23.49831,-0.148828 c 0,-0.218282 -0.0468,-0.396875 -0.10398,-0.396875 -0.0572,0 -0.17252,0.178593 -0.25628,0.396875 -0.0838,0.218281 -0.037,0.396875 0.10399,0.396875 0.14095,0 0.25627,-0.178594 0.25627,-0.396875 z m 15.94115,0.118379 c 0.5457,-0.15155 0.99219,-0.379362 0.99219,-0.506248 0,-0.354359 -0.90152,-1.857526 -1.11517,-1.859418 -0.24175,-0.0021 -0.73283,0.913633 -1.01208,1.887292 -0.24452,0.852617 -0.23181,0.857975 1.13506,0.478374 z m -2.71198,-0.320735 c 0,-0.184055 0.23465,-0.772449 0.52144,-1.30754 0.51338,-0.957855 0.51357,-0.975391 0.0121,-1.134562 -0.28016,-0.08892 -0.65761,-0.571601 -0.83878,-1.072626 -0.18117,-0.501026 -0.54696,-0.980005 -0.81286,-1.064399 -0.71829,-0.227974 -1.34368,-1.337452 -1.19432,-2.11877 0.17938,-0.938397 -0.88052,-1.474729 -1.6099,-0.814644 -0.26671,0.24137 -0.65781,0.438855 -0.86911,0.438855 -0.44759,0 -1.06524,-1.450733 -0.85306,-2.003659 0.18647,-0.485945 -0.1732,-0.475896 -1.78024,0.04974 -1.40103,0.458255 -1.66416,0.663267 -0.72097,0.561739 0.45733,-0.04923 0.61661,0.104228 0.7276,0.701 0.12465,0.670186 0.31979,0.809446 1.58886,1.133823 0.79572,0.203389 1.80624,0.579741 2.24559,0.836339 1.11844,0.653199 2.23917,2.59412 2.60282,4.507637 0.18506,0.973781 0.44257,1.621716 0.64453,1.621716 0.18499,0 0.33634,-0.15059 0.33634,-0.334647 z m -17.52455,-1.848165 c -0.0761,-1.055026 -0.0422,-2.156355 0.0755,-2.447396 0.12309,-0.304458 0.22183,-0.369998 0.23253,-0.15434 0.0102,0.206154 0.0807,0.312737 0.15657,0.23685 0.0759,-0.07589 0.0341,-0.418741 -0.0928,-0.761899 l -0.2308,-0.623923 -0.34339,0.641628 c -0.37932,0.708774 -0.68948,3.963647 -0.43971,4.614522 0.0871,0.227033 0.29838,0.412787 0.46948,0.412787 0.2225,0 0.27166,-0.546177 0.17265,-1.918229 z m 1.83395,0.132291 c -0.18601,-0.411138 -0.17996,-0.79148 0.0196,-1.229394 0.25665,-0.56328 0.21856,-0.647533 -0.34115,-0.754526 -0.76095,-0.145468 -0.92115,0.188617 -0.92115,1.921013 0,1.128948 0.0714,1.293019 0.59531,1.367422 0.72454,0.102899 1.0173,-0.487 0.64743,-1.304515 z m 4.32283,1.009582 c -0.43398,-0.810885 -0.32034,-2.12874 0.26525,-3.076245 0.46364,-0.750187 1.66285,-1.527846 3.16502,-2.052441 0.2651,-0.09258 0.20995,-0.145534 -0.16612,-0.159487 -1.79497,-0.0666 -3.80263,1.929665 -3.80263,3.78104 0,0.920734 0.36992,2.018906 0.68008,2.018906 0.0728,0 0.009,-0.230299 -0.1416,-0.511773 z m 10.04485,0.118694 c 0,-0.216193 -0.14882,-0.960334 -0.33072,-1.653646 -0.35769,-1.363313 -2.01532,-3.300221 -3.05764,-3.572795 -0.90101,-0.235618 -0.68718,0.186861 0.48828,0.964741 1.29519,0.857116 2.03409,2.007966 2.26108,3.521682 0.15859,1.057518 0.639,1.613884 0.639,0.740018 z m 14.11118,0.01556 c 0.22563,-0.587986 -0.40407,-0.962004 -0.9489,-0.56361 -0.25425,0.185909 -0.46228,0.473723 -0.46228,0.63958 0,0.43753 1.23974,0.370789 1.41118,-0.07597 z m -26.54659,-0.151646 c 0,-0.145521 -0.29766,-0.264584 -0.66146,-0.264584 -0.3638,0 -0.66146,0.119063 -0.66146,0.264584 0,0.145521 0.29766,0.264583 0.66146,0.264583 0.3638,0 0.66146,-0.119062 0.66146,-0.264583 z m 3.43904,-0.132948 c -0.19795,-0.238506 -0.26542,-0.720058 -0.16868,-1.203777 0.11159,-0.557949 0.0704,-0.750113 -0.13367,-0.623975 -0.17724,0.109537 -0.24551,0.0356 -0.17109,-0.185283 0.0685,-0.20338 0.49237,-0.374655 0.9489,-0.383447 0.56848,-0.01095 0.99917,-0.237223 1.3849,-0.727604 0.57136,-0.726361 1.27316,-0.912487 1.7275,-0.45815 0.33065,0.330654 1.03566,-0.101744 0.79659,-0.488568 -0.29335,-0.474656 -2.27392,-0.338135 -3.46593,0.238906 -1.08506,0.525266 -1.71173,1.393876 -1.71173,2.37257 0,0.767863 0.48067,1.856859 0.8196,1.856859 0.2166,0 0.20905,-0.113842 -0.0264,-0.397531 z m 14.81721,0.297635 c 0,-0.05494 -0.20836,-0.2633 -0.46302,-0.463021 -0.41965,-0.329107 -0.42901,-0.319749 -0.0999,0.0999 0.34564,0.44073 0.56291,0.580888 0.56291,0.363125 z m 6.35,-0.429271 c 0,-0.14552 -0.0525,-0.264583 -0.11668,-0.264583 -0.0642,0 -0.19026,0.119063 -0.2802,0.264583 -0.0899,0.145521 -0.0374,0.264584 0.11668,0.264584 0.15411,0 0.2802,-0.119063 0.2802,-0.264584 z m -19.63027,-0.668459 c -0.0815,-0.08146 -0.2294,0.06538 -0.32876,0.326319 -0.14359,0.377084 -0.1132,0.407474 0.14811,0.148114 0.18082,-0.179478 0.26211,-0.39297 0.18065,-0.474433 z m 0.98794,-0.55767 c -0.10176,-0.54242 -0.26527,-0.856372 -0.36335,-0.697669 -0.0981,0.158702 -0.53513,0.329059 -0.97122,0.378571 -0.79524,0.09029 -1.10863,0.734425 -0.46216,0.949915 0.1819,0.06064 0.33072,-0.02577 0.33072,-0.192003 0,-0.166238 -0.11906,-0.228663 -0.26458,-0.138726 -0.14552,0.08994 -0.26458,0.02953 -0.26458,-0.134252 0,-0.543158 1.44111,-0.162449 1.71077,0.45195 0.36445,0.830347 0.50059,0.534612 0.2844,-0.617786 z m 5.25495,0.236651 c -0.15302,-0.765101 -2.22304,-3.134753 -2.22304,-2.544822 0,0.379969 2.11467,3.624489 2.2646,3.474558 0.0662,-0.06618 0.0475,-0.484558 -0.0416,-0.929736 z m 7.75519,0.555834 c 0.11566,-0.34699 -1.22179,-1.796407 -1.44847,-1.56973 -0.24554,0.245546 0.7668,2.035426 1.09024,1.927611 0.14784,-0.04928 0.30905,-0.210328 0.35823,-0.357881 z m 4.83439,-0.574159 c -0.003,-0.556884 -0.0599,-0.62553 -0.26054,-0.315113 -0.33784,0.522779 -0.33784,1.399426 0,1.190625 0.14553,-0.08994 0.26276,-0.483918 0.26054,-0.875512 z m 5.70509,-0.738409 c -0.1671,-0.890747 -0.49058,-1.145805 -0.80596,-0.635501 -0.0898,0.145265 0.0222,0.528945 0.24897,0.85262 0.22671,0.323678 0.42601,0.8299 0.44289,1.124945 0.0276,0.481989 0.0435,0.486759 0.15678,0.047 0.0694,-0.269195 0.0501,-0.894273 -0.0427,-1.389062 z m -29.77813,0.952462 c 0,-0.14552 -0.11906,-0.264583 -0.26458,-0.264583 -0.14552,0 -0.26458,-0.238125 -0.26458,-0.529167 0,-0.291041 -0.11906,-0.529166 -0.26459,-0.529166 -0.29429,0 -0.36517,1.134131 -0.0882,1.41111 0.27053,0.270531 0.88195,0.209389 0.88195,-0.08819 z m 17.72709,0.147908 c 0,-0.06417 -0.13746,-0.201631 -0.30547,-0.305464 -0.18925,-0.116967 -0.23364,-0.07258 -0.11667,0.116676 0.1885,0.304998 0.42214,0.409487 0.42214,0.188788 z m -10.94531,-1.241579 c -0.24503,-0.561599 -0.39658,-0.713176 -0.41019,-0.41026 -0.0243,0.541697 0.48407,1.61567 0.67463,1.425109 0.0683,-0.0683 -0.0507,-0.524978 -0.26444,-1.014849 z m 18.87876,0.762971 c -0.002,-0.181901 -0.11699,-0.509323 -0.25502,-0.727604 -0.22074,-0.349078 -0.30368,-0.34417 -0.68871,0.04076 -0.24076,0.240696 -0.35711,0.568118 -0.25854,0.727604 0.24666,0.399103 1.20726,0.366538 1.20227,-0.04076 z m 1.80321,0.01323 c 0.82491,-0.824902 0.003,-2.261566 -0.87649,-1.531786 -0.47846,0.397084 -0.51943,1.489792 -0.0628,1.674058 0.51739,0.20877 0.60088,0.196123 0.93927,-0.142272 z m -20.00359,-0.93927 c -0.0767,-0.400183 -0.19045,-0.574847 -0.25285,-0.388147 -0.11254,0.336683 0.0888,1.115751 0.28833,1.115751 0.0572,0 0.0412,-0.327422 -0.0355,-0.727604 z m -5.87266,0.06614 c 0,-0.218281 -0.11906,-0.396875 -0.26458,-0.396875 -0.14552,0 -0.26458,0.178594 -0.26458,0.396875 0,0.218282 0.11906,0.396875 0.26458,0.396875 0.14552,0 0.26458,-0.178593 0.26458,-0.396875 z m 13.198,-0.10433 c -0.58601,-0.474517 -0.60336,-0.576659 -0.32592,-1.918229 0.16117,-0.779363 0.23419,-1.805434 0.16227,-2.280158 -0.25299,-1.66981 -0.46664,-1.039973 -0.46664,1.375662 0,2.37441 0.28217,3.32393 0.98775,3.32393 0.14383,0 -0.017,-0.225541 -0.35746,-0.501205 z m 5.50358,-0.342154 c -0.0845,-0.211066 -0.14716,-0.148373 -0.15985,0.159853 -0.0115,0.278914 0.051,0.435184 0.13896,0.347266 0.0879,-0.08792 0.0973,-0.316124 0.0209,-0.507119 z m -12.09104,-0.545703 c 0.002,-0.109141 -0.11501,-0.198438 -0.26054,-0.198438 -0.14552,0 -0.26276,0.267891 -0.26053,0.595313 0.003,0.481393 0.0531,0.519366 0.26053,0.198437 0.14107,-0.218281 0.25831,-0.486171 0.26054,-0.595312 z m 7.41238,0.63632 c 0,-0.122968 -0.23812,-0.439076 -0.52917,-0.702466 -0.42005,-0.380148 -0.52916,-0.399514 -0.52916,-0.09392 0,0.414996 0.50218,1.019966 0.84666,1.019966 0.11642,0 0.21167,-0.100611 0.21167,-0.223576 z m -13.99322,-0.948698 c 0.37183,0.229803 1.02864,-0.3939 1.02864,-0.97679 0,-0.850789 1.00716,-1.631483 1.87964,-1.456987 0.42141,0.08428 0.76619,0.086 0.76619,0.0038 0,-0.3959 -1.27756,-1.143655 -1.96732,-1.151473 -0.8944,-0.01014 -2.00143,0.898206 -2.00143,1.642212 0,0.275243 -0.10259,0.700973 -0.22798,0.946067 -0.12539,0.245095 -0.31063,0.802815 -0.41163,1.239377 -0.18314,0.791546 -0.18245,0.792083 0.24609,0.194011 0.23635,-0.329856 0.54586,-0.527966 0.6878,-0.440243 z m 4.56917,0.497073 c 0.0904,-0.235459 0.046,-0.341662 -0.10398,-0.248968 -0.14385,0.08891 -0.26155,0.273685 -0.26155,0.410618 0,0.380584 0.18964,0.296719 0.36553,-0.16165 z m 22.15382,-0.4592 c -0.21608,-0.216077 -0.29435,-0.186468 -0.29435,0.111345 0,0.525954 0.35578,0.881739 0.48727,0.487275 0.0558,-0.167349 -0.031,-0.436728 -0.19292,-0.59862 z m -12.44143,0.120453 c -0.1427,-0.26663 -0.4673,-0.653583 -0.72134,-0.859896 -0.28582,-0.232121 -0.22193,-0.04732 0.1676,0.484781 0.69492,0.949259 0.95547,1.125765 0.55374,0.375115 z m -17.3736,-0.661601 c -0.0931,-0.242615 -0.27559,-0.441118 -0.40555,-0.441118 -0.27665,0 -0.31941,0.887002 -0.0555,1.150938 0.29758,0.297571 0.64333,-0.234762 0.46103,-0.70982 z m 8.61859,0.765122 c 0,-0.06417 -0.13745,-0.201631 -0.30546,-0.305464 -0.18926,-0.116967 -0.23364,-0.07258 -0.11668,0.116677 0.1885,0.304999 0.42214,0.409487 0.42214,0.188787 z m 9.78827,-0.08176 c -0.003,-0.386861 -1.27709,-1.783036 -1.46116,-1.600613 -0.10284,0.101928 0.0948,0.541825 0.43931,0.977548 0.61008,0.771713 1.02451,1.024409 1.02185,0.623065 z m 8.98689,-0.311562 c 0.35558,-0.66441 0.084,-1.342084 -0.53791,-1.342084 -0.56554,0 -1.14895,0.920201 -0.93572,1.475884 0.20979,0.546687 1.1554,0.460829 1.47363,-0.1338 z m -6.29123,-0.341077 c -0.18986,-0.189855 -0.31309,-0.205476 -0.31309,-0.03969 0,0.353161 0.3129,0.666059 0.48948,0.489479 0.0752,-0.07519 -0.004,-0.277592 -0.17639,-0.449792 z m -0.84226,-0.207257 c 0.33557,-0.291041 0.77051,-0.529166 0.96653,-0.529166 0.63876,0 0.36911,-0.638599 -0.78207,-1.852084 -1.84265,-1.942388 -1.91628,-1.973321 -1.91628,-0.80506 0,0.556603 -0.16647,1.323061 -0.36993,1.70324 -0.33796,0.631472 -0.31629,0.74834 0.25057,1.351736 0.75041,0.798773 1.05657,0.820494 1.85118,0.131334 z m -10.70474,-1.04073 c -0.21428,-0.346699 -1.20151,-0.376283 -1.20151,-0.03601 0,0.1354 0.26789,0.288968 0.59531,0.341263 0.72393,0.115624 0.83252,0.06094 0.6062,-0.305258 z m 5.35244,0.197371 c -0.16353,-0.490596 -0.73312,-0.571966 -0.73312,-0.104731 0,0.230408 0.18852,0.418924 0.41893,0.418924 0.23041,0 0.37179,-0.141387 0.31419,-0.314193 z m 11.06484,-0.411463 c -0.18349,-0.183488 -0.68546,0.189321 -0.68546,0.509084 0,0.175444 0.15182,0.155372 0.40327,-0.05332 0.2218,-0.184076 0.34879,-0.389171 0.28219,-0.455766 z m -11.17675,-1.594918 c -1.43221,-1.176042 -4.34349,-2.971042 -4.79664,-2.957457 -0.25013,0.0075 -0.008,0.198827 0.53741,0.425174 0.54571,0.226347 0.99219,0.517868 0.99219,0.647825 0,0.315216 -0.0772,0.302456 -0.96194,-0.15896 -0.41682,-0.217385 -0.92268,-0.395979 -1.12413,-0.396875 -0.20145,-9e-4 0.45339,0.414011 1.45521,0.922016 1.00182,0.508006 2.4168,1.449776 3.1444,2.092823 1.21004,1.069414 1.33077,1.12118 1.41496,0.606678 0.0605,-0.369731 -0.16618,-0.774534 -0.66146,-1.181224 z m -1.41496,-0.58984 c 0,-0.194028 0.0794,-0.273403 0.17639,-0.176389 0.097,0.09701 0.097,0.255764 0,0.352778 -0.097,0.09701 -0.17639,0.01764 -0.17639,-0.176389 z m 4.21474,-0.01558 c 0.0234,-1.185651 -0.21242,-1.475801 -2.52061,-3.101042 l -1.87775,-1.322161 0.0348,1.579963 c 0.0291,1.321805 0.13551,1.655896 0.65093,2.044682 0.33885,0.255596 0.88574,0.413172 1.21532,0.35017 0.6484,-0.12395 1.45754,0.741576 1.45754,1.55912 0,0.599723 0.61511,0.785085 0.8413,0.253524 0.0989,-0.232451 0.18821,-0.846366 0.19844,-1.364256 z m 11.10746,0.897104 c 0.5862,-0.431735 0.11521,-0.801424 -0.51756,-0.406249 -0.3373,0.210643 -0.51714,0.225468 -0.51714,0.04263 0,-0.154179 0.41672,-0.454442 0.92605,-0.667251 1.04601,-0.437054 1.24465,-1.249024 0.41426,-1.693431 -0.68679,-0.36756 -0.81114,-0.346692 -0.81114,0.136122 0,0.225507 -0.18538,0.768501 -0.41196,1.206652 -0.34899,0.674882 -0.3592,0.915809 -0.0668,1.576368 0.18983,0.428852 0.39453,0.629999 0.45488,0.446994 0.0604,-0.183005 0.2986,-0.471831 0.52942,-0.641834 z m -21.07229,0.07579 c -0.0861,-0.450394 -0.25583,-0.594789 -0.59491,-0.506117 -0.26094,0.06824 -0.55766,-0.01058 -0.65937,-0.175155 -0.26784,-0.433372 0.30611,-1.00937 1.20182,-1.2061 0.42651,-0.09368 0.77547,-0.279924 0.77547,-0.413882 0,-0.37757 -0.34467,-0.29875 -1.99249,0.455646 l -1.52727,0.699206 0.76769,0.397706 c 0.42223,0.218738 1.05164,0.61847 1.39869,0.888293 0.7893,0.61367 0.77497,0.616844 0.63037,-0.139597 z m 10.42324,-0.494294 c -0.0734,-0.181901 -0.13345,-0.03307 -0.13345,0.330729 0,0.363802 0.0601,0.51263 0.13345,0.330729 0.0734,-0.181901 0.0734,-0.479557 0,-0.661458 z m 12.26019,0.220077 c 0,-0.3519 -0.077,-0.840488 -0.17112,-1.08575 -0.13527,-0.352496 -0.24755,-0.264158 -0.53589,0.42161 -0.29397,0.699136 -0.29927,0.909111 -0.0273,1.081698 0.55866,0.354545 0.73433,0.254659 0.73433,-0.417558 z m -3.28992,0.13876 c -0.0804,-0.130062 0.0316,-0.662019 0.24897,-1.182127 0.49276,-1.179345 0.50689,-2.020981 0.0339,-2.020981 -0.19866,0 -0.66835,-0.241608 -1.04376,-0.536907 l -0.68257,-0.536906 -0.27768,0.999927 c -0.4323,1.556698 -0.37304,1.82703 0.27243,1.242885 0.54278,-0.491207 0.56004,-0.490979 0.92803,0.01228 0.24313,0.332499 0.3174,0.819664 0.21124,1.385551 -0.10944,0.583383 -0.0611,0.872749 0.14592,0.872749 0.1703,0 0.24387,-0.106414 0.16349,-0.236475 z m -23.17779,-1.313186 -0.009,-0.699297 -0.37813,0.661458 c -0.48935,0.856035 -0.48935,1.077213 0,0.889431 0.21829,-0.08376 0.39266,-0.466979 0.3875,-0.851592 z m 21.17505,0.689766 c -0.002,-0.5306 -0.98355,-1.992411 -1.53756,-2.288909 -0.90017,-0.481753 -0.85858,0.02438 0.0881,1.072242 0.50671,0.560864 0.92128,1.138473 0.92128,1.283575 0,0.145101 0.11907,0.263821 0.26459,0.263821 0.14552,0 0.26414,-0.148828 0.26359,-0.330729 z m 1.16486,-0.770899 c -0.23591,-0.381714 -0.63527,0.03546 -0.62629,0.654222 0.008,0.560639 0.0209,0.563193 0.3884,0.0777 0.20899,-0.2761 0.31604,-0.605464 0.23789,-0.73192 z m -23.91804,0.579256 c 0,-0.141784 -0.34996,-0.438761 -0.77768,-0.659948 -0.42773,-0.221187 -0.96351,-0.667455 -1.19063,-0.991707 l -0.41294,-0.589549 v 0.572423 c 0,0.314832 0.12944,0.652418 0.28764,0.75019 0.1582,0.09777 0.22887,0.402455 0.15706,0.677073 -0.11151,0.426424 0.0203,0.499306 0.90299,0.499306 0.56846,0 1.03356,-0.116005 1.03356,-0.257788 z m 8.77094,-0.139087 c 0,-0.138244 -0.12799,-0.294018 -0.28443,-0.346163 -0.15643,-0.05214 -0.28442,0.103629 -0.28442,0.346163 0,0.242535 0.12799,0.398309 0.28442,0.346163 0.15644,-0.05214 0.28443,-0.207918 0.28443,-0.346163 z m 19.89224,-2.050521 c -0.0657,-0.10914 -0.36043,-0.198437 -0.65501,-0.198437 -0.29457,0 -0.49531,0.0893 -0.44608,0.198437 0.0492,0.109141 0.26751,0.661306 0.48507,1.227033 l 0.39555,1.028595 0.16994,-1.028595 c 0.0935,-0.565727 0.11621,-1.117892 0.0505,-1.227033 z m -28.33245,1.463083 c -0.1819,-0.06496 -0.33073,-0.286789 -0.33073,-0.492944 0,-0.206154 -0.0893,-0.384748 -0.19843,-0.396875 -0.10914,-0.01212 -0.46627,-0.05176 -0.79362,-0.08807 -0.69512,-0.0771 -0.70657,-0.09446 0.47467,0.719823 0.50284,0.346637 0.97379,0.573083 1.04655,0.503214 0.0728,-0.06987 -0.0165,-0.180188 -0.19844,-0.245153 z m 5.09234,-1.832501 c -0.39326,-0.393266 -0.48386,-0.375864 -1.13922,0.218832 -0.39158,0.35534 -1.03939,0.785043 -1.43957,0.954897 -0.40019,0.169853 -0.72761,0.472681 -0.72761,0.67295 0,0.259257 0.53765,0.107289 1.86682,-0.527656 1.71837,-0.820866 1.83285,-0.925758 1.43958,-1.319023 z m 10.36374,1.846675 c -0.097,-0.09701 -0.17639,-0.01764 -0.17639,0.176389 0,0.194028 0.0794,0.273403 0.17639,0.176389 0.097,-0.09701 0.097,-0.255764 0,-0.352778 z m -18.84532,-1.512182 c -0.19743,-0.786628 -0.64565,-0.936876 -0.64565,-0.216429 0,0.463385 0.52907,1.19954 0.72284,1.005769 0.0532,-0.05316 0.0184,-0.408366 -0.0772,-0.78934 z m 25.79408,-1.266352 c 0.0339,-1.767412 -0.2564,-1.947581 -0.90577,-0.562203 l -0.59443,1.268168 0.553,0.60815 c 0.51165,0.562676 0.56704,0.572568 0.7408,0.132291 0.1033,-0.261722 0.19618,-0.912604 0.2064,-1.446406 z m -20.97168,1.191034 c -0.097,-0.09701 -0.17639,-0.01764 -0.17639,0.176389 0,0.194028 0.0794,0.273403 0.17639,0.176389 0.097,-0.09701 0.097,-0.255764 0,-0.352778 z m -1.4993,-0.485069 c 0,-0.485069 -0.14111,-0.661458 -0.52917,-0.661458 -0.55332,0 -0.63691,0.205113 -0.36857,0.904402 0.25678,0.669158 0.89774,0.495704 0.89774,-0.242944 z m 1.30432,-0.595313 c 0.0102,-0.181901 -0.16,-0.330729 -0.37828,-0.330729 -0.44247,0 -0.46576,0.112309 -0.21652,1.044165 0.16035,0.599491 0.18801,0.60926 0.37467,0.132291 0.11084,-0.283248 0.2099,-0.663825 0.22013,-0.845727 z m 0.99506,0.516707 c -0.24346,-1.217284 0.0377,-1.379183 1.66283,-0.957621 1.62918,0.422602 2.55823,0.476564 2.7539,0.159957 0.073,-0.118147 -0.26468,-0.661549 -0.75044,-1.20756 -0.48576,-0.546011 -0.92543,-0.891903 -0.97704,-0.76865 -0.14565,0.347823 -2.07822,1.409585 -2.07822,1.141782 0,-0.130704 0.35719,-0.491984 0.79375,-0.802844 0.788,-0.561105 1.03662,-1.058333 0.52917,-1.058333 -0.14552,0 -0.26458,0.126749 -0.26458,0.281665 0,0.154915 -0.36147,0.585816 -0.80326,0.957558 -0.9738,0.819403 -1.63133,2.018074 -1.41552,2.580475 0.27415,0.714413 0.70623,0.457689 0.54941,-0.326429 z m -0.4473,-0.05369 c 0,-0.194027 0.0794,-0.273402 0.17639,-0.176389 0.097,0.09701 0.097,0.255764 0,0.352778 -0.097,0.09701 -0.17639,0.01764 -0.17639,-0.176389 z m -3.43958,0.132292 c 0,-0.220486 -0.23519,-0.396875 -0.52917,-0.396875 -0.5856,0 -0.71692,0.409311 -0.19844,0.618521 0.57576,0.232322 0.72761,0.186064 0.72761,-0.221646 z m 5.20347,0.220486 c -0.097,-0.09701 -0.25576,-0.09701 -0.35278,0 -0.097,0.09701 -0.0176,0.176389 0.17639,0.176389 0.19403,0 0.2734,-0.07937 0.17639,-0.176389 z m 17.12868,-0.995205 c 1.07794,-1.839363 0.85423,-2.64693 -0.37174,-1.341948 -0.44952,0.4785 -0.89706,0.661459 -1.618,0.661459 -0.54813,0 -1.08037,0.135542 -1.18275,0.301204 -0.13362,0.216194 0.0917,0.249086 0.79819,0.11654 1.14506,-0.214816 1.83219,0.191523 1.59383,0.942527 -0.26385,0.831338 0.0604,0.548907 0.78047,-0.679782 z m 8.09493,0.319911 c 0,-0.44443 -0.0672,-0.480221 -0.39351,-0.209447 -0.46441,0.38543 -1.19399,0.174763 -1.19399,-0.344767 0,-0.200295 0.23813,-0.579672 0.52917,-0.843061 0.76978,-0.696643 0.64972,-1.003407 -0.33073,-0.845053 -0.47294,0.07638 -1.3736,0.225182 -2.00146,0.330659 -0.94182,0.15822 -1.27499,0.09313 -1.90415,-0.372032 -1.00455,-0.742699 -1.25589,-0.294295 -0.51079,0.911296 0.78048,1.262839 2.7236,2.125627 4.50455,2.000115 1.0999,-0.07752 1.30091,-0.174505 1.30091,-0.62771 z m -18.55646,-0.08786 c 0.0836,-0.431562 0.039,-0.450994 -0.33073,-0.144116 -0.50569,0.419682 -0.56865,0.910207 -0.0967,0.753054 0.1819,-0.06056 0.37423,-0.334588 0.42739,-0.608938 z m -13.82093,-0.305204 c -0.21808,-0.218086 -0.96011,0.131247 -0.96011,0.452003 0,0.195675 0.16919,0.191649 0.55183,-0.01313 0.3035,-0.162431 0.48723,-0.359922 0.40828,-0.43887 z m 11.3064,0.318706 c -0.0838,-0.218281 -0.25861,-0.396875 -0.38857,-0.396875 -0.12995,0 -0.23627,0.178594 -0.23627,0.396875 0,0.218282 0.17485,0.396875 0.38857,0.396875 0.23669,0 0.32904,-0.155122 0.23627,-0.396875 z m 11.28141,0.132292 c 0,-0.145521 -0.12609,-0.264583 -0.2802,-0.264583 -0.15411,0 -0.20661,0.119062 -0.11668,0.264583 0.0899,0.145521 0.21603,0.264583 0.2802,0.264583 0.0642,0 0.11668,-0.119062 0.11668,-0.264583 z m -15.15291,-0.159853 c -0.0879,-0.08792 -0.31612,-0.09732 -0.50712,-0.02089 -0.21107,0.08446 -0.14837,0.147156 0.15985,0.159852 0.27892,0.01149 0.43519,-0.05105 0.34727,-0.138964 z m 5.57846,-0.700043 c 0.0655,-0.343881 -0.0869,-0.463021 -0.59261,-0.463021 -0.5121,0 -0.68086,0.135724 -0.68086,0.547569 0,0.415886 0.14252,0.527236 0.59261,0.463021 0.32594,-0.0465 0.63232,-0.292907 0.68086,-0.547569 z m -9.21097,-0.198437 c 0,-0.145521 -0.18562,-0.264584 -0.41249,-0.264584 -0.22687,0 -0.3389,0.119063 -0.24897,0.264584 0.0899,0.14552 0.27556,0.264583 0.41249,0.264583 0.13694,0 0.24897,-0.119063 0.24897,-0.264583 z m 0.88925,-0.779286 c -0.13473,-0.673638 -0.0352,-0.855762 0.73422,-1.343398 0.73555,-0.466182 0.77524,-0.532954 0.22861,-0.384623 -0.3638,0.09872 -0.81028,0.368817 -0.99218,0.600218 -0.35492,0.451501 -0.44324,1.441807 -0.15434,1.7307 0.30879,0.308792 0.34334,0.19538 0.18369,-0.602897 z m 6.51908,0.398026 c 0,-0.209694 -0.11906,-0.454845 -0.26458,-0.544782 -0.14552,-0.08994 -0.26458,0.08163 -0.26458,0.38126 0,0.29963 0.11906,0.544782 0.26458,0.544782 0.14552,0 0.26458,-0.171567 0.26458,-0.38126 z m 10.86831,-0.137161 c 1.18848,-0.235505 1.56711,-0.4672 1.56711,-0.958951 0,-0.534178 -1.24017,-0.979458 -1.80689,-0.64876 -0.25835,0.15075 -0.30462,0.261301 -0.11134,0.266003 0.69155,0.01682 0.29117,0.709799 -0.59531,1.030353 -0.50932,0.184173 -0.92604,0.458955 -0.92604,0.610626 0,0.160052 0.19428,0.194467 0.46302,0.08202 0.25466,-0.106561 0.88891,-0.278141 1.40945,-0.381289 z m -15.21207,-2.026609 c 0.086,-0.45388 0.10268,-1.108724 0.0371,-1.455208 -0.0773,-0.408681 -0.13329,-0.25821 -0.15929,0.428363 -0.0473,1.248609 -0.36742,1.846577 -0.99031,1.84977 -0.24823,0.0013 -0.5107,0.180907 -0.58327,0.399188 -0.11729,0.352778 -0.0783,0.352778 0.35127,0 0.4509,-0.370333 0.46262,-0.358226 0.17532,0.181043 -0.50866,0.954721 -0.33083,1.060748 0.36198,0.215832 0.35797,-0.436563 0.7212,-1.165107 0.80718,-1.618988 z m -6.62314,0.872753 c 0.0313,-0.901012 -0.0222,-0.973557 -0.71735,-0.973557 -0.59452,0 -0.75116,0.119797 -0.75116,0.574479 0,0.654478 0.7505,1.600701 1.16106,1.463849 0.1505,-0.05017 0.28885,-0.529315 0.30745,-1.064771 z m 2.41204,0.702138 c -0.097,-0.09701 -0.17639,-0.01764 -0.17639,0.176389 0,0.194027 0.0794,0.273402 0.17639,0.176389 0.097,-0.09701 0.097,-0.255764 0,-0.352778 z m 1.14653,-0.100221 c 0,-0.767327 1.16636,-1.840057 2.00066,-1.840057 0.53124,0 0.66276,-0.101709 0.54119,-0.418515 -0.0883,-0.230183 -0.1606,-0.633711 -0.1606,-0.89673 0,-0.263018 -0.2288,-0.759296 -0.50844,-1.102839 l -0.50845,-0.624624 -0.74832,0.696169 c -0.41158,0.382893 -1.10552,0.896487 -1.54208,1.141321 -0.43656,0.244833 -0.55563,0.369219 -0.26458,0.276415 0.91683,-0.292354 1.02442,-0.273166 1.12816,0.201199 0.0557,0.254661 -0.0336,0.463021 -0.19834,0.463021 -0.16478,0 -0.21646,-0.134509 -0.11486,-0.298909 0.11094,-0.179504 0.0419,-0.251296 -0.17283,-0.17972 -0.25124,0.08375 -0.33375,0.506333 -0.27749,1.421205 0.044,0.71611 0.13586,1.392297 0.20405,1.502638 0.24496,0.396345 0.62193,0.189911 0.62193,-0.340574 z m 16.47598,0.16874 c 0.42248,-0.320568 0.34758,-0.386118 -0.75979,-0.664958 -1.46832,-0.369726 -1.66418,-0.260933 -0.86712,0.48164 0.68964,0.642499 0.9788,0.675082 1.62691,0.183318 z m -17.5552,-1.575088 c -0.0143,-0.38775 -0.0674,-0.441013 -0.16859,-0.169126 -0.0812,0.218282 -0.31586,0.754063 -0.52137,1.190625 l -0.37366,0.79375 0.54225,-0.624624 c 0.29824,-0.343543 0.53286,-0.879324 0.52137,-1.190625 z m 9.81047,1.008807 c 0,-0.194124 -0.10557,-0.4182 -0.2346,-0.497946 -0.31602,-0.19531 -0.9117,0.551133 -0.70575,0.884368 0.21909,0.354486 0.94035,0.05809 0.94035,-0.386422 z m -11.05958,-0.437099 c -0.24695,-0.246945 -0.3175,-0.176389 -0.3175,0.3175 0,0.493889 0.0706,0.564444 0.3175,0.3175 0.24694,-0.246945 0.24694,-0.388056 0,-0.635 z m 8.67428,0.648229 c -0.002,-0.109141 -0.11947,-0.377031 -0.26053,-0.595313 -0.2074,-0.320928 -0.25726,-0.282955 -0.26053,0.198438 -0.002,0.327422 0.11501,0.595312 0.26053,0.595312 0.14552,0 0.26276,-0.0893 0.26053,-0.198437 z m 19.85896,-1.445775 c 0.36994,-0.686035 0.96347,-1.579004 1.31896,-1.984375 0.35548,-0.405371 0.47547,-0.58821 0.26665,-0.406309 -0.20883,0.181901 -0.61509,0.33073 -0.90281,0.33073 -0.28772,0 -0.83857,0.377849 -1.22412,0.839666 -0.77556,0.928998 -1.58651,0.901791 -1.58651,-0.05323 0,-0.76896 -0.44102,-0.421884 -0.59353,0.467093 -0.069,0.401963 -0.20666,0.918814 -0.30601,1.148558 -0.21969,0.508023 0.71809,1.039371 1.69329,0.959426 0.492,-0.04033 0.83379,-0.37379 1.33408,-1.301562 z m 2.10551,0.336911 c 0,-0.427975 -0.12553,-0.855719 -0.27896,-0.950542 -0.18368,-0.11352 -0.12451,-0.41256 0.17325,-0.875511 l 0.45221,-0.703104 -0.59828,0.529167 c -0.32905,0.291041 -0.82189,0.967277 -1.09518,1.502746 -0.46668,0.914386 -0.46899,0.980888 -0.038,1.093787 1.14189,0.299111 1.38495,0.194419 1.38495,-0.596543 z m -22.93925,0.158829 c 0.0749,-0.195098 0.0299,-0.52252 -0.0999,-0.727605 -0.12983,-0.205084 -0.23787,-0.70648 -0.2401,-1.114212 -0.002,-0.407733 -0.27194,-1.217512 -0.59937,-1.79951 l -0.59531,-1.058178 0.6155,-0.508203 c 0.63916,-0.527745 0.57652,-1.052153 -0.12568,-1.052153 -0.22275,0 -0.62848,-0.267891 -0.90163,-0.595313 -0.37168,-0.445539 -0.50734,-0.495463 -0.53919,-0.198437 -0.0234,0.218281 -0.0708,0.667329 -0.10525,0.997884 -0.0345,0.330555 -0.24991,0.807911 -0.47877,1.060791 -0.38152,0.42158 -0.36306,0.510827 0.22224,1.074156 0.61055,0.587636 1.17588,2.035093 1.17901,3.018731 9.2e-4,0.28614 0.20363,0.463021 0.53065,0.463021 0.29398,0 0.52916,0.176389 0.52916,0.396875 0,0.492778 0.42447,0.522174 0.60867,0.04215 z m 8.12258,0.08447 c 0,-0.148641 -0.29766,-0.405877 -0.66146,-0.571637 -0.3638,-0.165759 -0.66146,-0.467889 -0.66146,-0.671401 0,-0.21388 -0.12984,-0.28977 -0.30771,-0.179844 -0.20562,0.127085 -0.0287,0.439482 0.53334,0.941657 0.91175,0.814642 1.09729,0.896014 1.09729,0.481225 z m 3.83646,-0.258911 c 0.43066,-0.475877 0.43479,-0.529167 0.041,-0.529167 -0.24084,0 -0.43788,0.178594 -0.43788,0.396875 0,0.218281 -0.10633,0.396875 -0.23628,0.396875 -0.36717,0 -0.58219,-0.792317 -0.21844,-0.804934 0.264,-0.0092 -2.61329,-1.311733 -2.89752,-1.311733 -0.048,0 -0.0873,0.173698 -0.0873,0.385995 0,0.224309 0.55579,0.583394 1.32686,0.857252 0.8362,0.296992 1.27955,0.594534 1.19892,0.80463 -0.20554,0.535652 0.78227,0.388088 1.31068,-0.195793 z m 3.04271,-0.132292 c 0,-0.273816 -0.26663,-0.393175 -0.8599,-0.384941 l -0.85989,0.01193 0.79375,0.363452 c 0.43656,0.199899 0.82351,0.373123 0.85989,0.384942 0.0364,0.01182 0.0661,-0.157104 0.0661,-0.375385 z m 1.32291,0.132292 c 0,-0.145521 -0.11906,-0.264584 -0.26458,-0.264584 -0.14552,0 -0.26458,0.119063 -0.26458,0.264584 0,0.14552 0.11906,0.264583 0.26458,0.264583 0.14552,0 0.26458,-0.119063 0.26458,-0.264583 z m -23.30422,-0.610928 c -0.0149,-0.225542 -0.059,-0.220634 -0.15489,0.01726 -0.0737,0.182808 -0.24289,0.265078 -0.37598,0.182823 -0.56206,-0.347369 -0.15214,-0.976127 1.20051,-1.841402 1.65925,-1.061412 3.12341,-3.008127 3.16154,-4.203534 0.0147,-0.45956 0.24933,-1.00587 0.53364,-1.242344 0.49217,-0.409345 0.48818,-0.420688 -0.13229,-0.375989 -0.72461,0.0522 -1.29135,0.945839 -1.29732,2.045633 -0.007,1.325596 -2.29565,3.395051 -4.63411,4.190637 -1.33359,0.453713 -1.48434,0.467857 -2.05052,0.192404 -0.5415,-0.263446 -0.60242,0.0384 -0.13229,0.655526 0.26128,0.342989 0.52516,0.38707 1.25677,0.209944 0.50932,-0.123311 0.74745,-0.243935 0.52916,-0.268055 -0.23791,-0.02629 -0.14304,-0.145388 0.23686,-0.29735 0.73655,-0.294631 1.0589,-0.109133 0.60285,0.346918 -0.24447,0.244469 -0.18158,0.387392 0.2789,0.633835 0.6441,0.344712 1.01023,0.252423 0.97717,-0.246309 z m 9.54589,0.32895 c 0,-0.452389 -0.52478,-1.305522 -0.80306,-1.305522 -0.28741,0 -0.35108,1.138912 -0.0789,1.411111 0.27801,0.278007 0.88195,0.205703 0.88195,-0.105589 z m 14.02292,-0.481343 c 0,-0.128784 -0.30962,-0.437022 -0.68804,-0.684973 -0.66053,-0.432795 -0.72869,-0.815232 -0.37846,-2.123581 0.0389,-0.145521 0.0567,-0.655726 0.0395,-1.133789 -0.0283,-0.784005 -0.0832,-0.841445 -0.5605,-0.586003 -0.29104,0.155761 -0.52916,0.390324 -0.52916,0.521251 0,0.130928 -0.12104,0.556398 -0.26897,0.945491 -0.22314,0.586892 -0.33585,0.651934 -0.66146,0.381702 -0.2683,-0.222671 -0.39249,-0.23282 -0.39249,-0.03208 0,0.161514 0.47324,0.592404 1.05164,0.957533 0.5784,0.365129 1.24694,0.961935 1.48564,1.326235 0.42972,0.655832 0.9023,0.88011 0.9023,0.428211 z m -15.61042,-0.394908 c 0,-0.200463 -0.17859,-0.512697 -0.39687,-0.693855 -0.32977,-0.273684 -0.39688,-0.241881 -0.39688,0.18809 0,0.284606 0.0794,0.596841 0.17639,0.693855 0.29549,0.295491 0.61736,0.197427 0.61736,-0.18809 z m 12.92008,0.09401 c 0.33935,-0.0045 0.28847,-0.125517 -0.22008,-0.523412 -0.93806,-0.733944 -2.17531,-0.918422 -3.05797,-0.455951 l -0.73574,0.385491 0.90467,0.282636 c 1.37039,0.428141 1.92805,0.528807 2.31537,0.417962 0.1938,-0.05546 0.55099,-0.10349 0.79375,-0.106726 z m 3.74867,-0.06276 c 0,-0.183276 -0.2436,-0.485361 -0.54133,-0.671298 -0.29773,-0.185937 -0.643,-0.60153 -0.76725,-0.92354 -0.20266,-0.525205 -0.24531,-0.537464 -0.41431,-0.119096 -0.13107,0.324478 0.042,0.696509 0.56882,1.222744 0.85119,0.850262 1.15407,0.979171 1.15407,0.49119 z m -2.38125,-0.04803 c 0,-0.06417 -0.13746,-0.20163 -0.30546,-0.305463 -0.18926,-0.116967 -0.23365,-0.07258 -0.11668,0.116677 0.1885,0.304999 0.42214,0.409486 0.42214,0.188786 z m -8.7874,-1.242411 c -0.0661,-0.198158 -0.18599,-0.07822 -0.27955,0.279546 -0.11509,0.440094 -0.0806,0.543395 0.11569,0.347056 0.15375,-0.153749 0.22748,-0.43572 0.16386,-0.626602 z m 13.57488,-0.01049 c 0.2095,-0.391465 0.21031,-0.495625 0.003,-0.367404 -0.15926,0.09843 -0.42114,0.424819 -0.58197,0.725317 -0.2095,0.391465 -0.21031,0.495625 -0.003,0.367404 0.15926,-0.09843 0.42114,-0.424819 0.58197,-0.725317 z m -14.57706,0.04666 c 0,-0.299372 -0.17639,-0.529167 -0.40619,-0.529167 -0.32419,0 -0.34902,0.106812 -0.12298,0.529167 0.15576,0.291041 0.33854,0.529166 0.40619,0.529166 0.0676,0 0.12298,-0.238125 0.12298,-0.529166 z m 4.53166,0.06614 c 0.32911,-0.419644 0.31975,-0.429002 -0.0999,-0.09989 -0.25466,0.199719 -0.46302,0.408078 -0.46302,0.46302 0,0.217762 0.21727,0.0776 0.56292,-0.363126 z m -17.44688,-0.49827 c 0.82203,-0.413844 1.19804,-0.89344 0.69385,-0.884981 -0.52475,0.0088 -2.50449,0.956126 -2.71712,1.30016 -0.22695,0.367223 0.94814,0.126092 2.02327,-0.415179 z m 9.21105,-0.09704 c 0,-0.529167 -0.13229,-0.79375 -0.39687,-0.79375 -0.26459,0 -0.39688,0.264583 -0.39688,0.79375 0,0.529167 0.13229,0.79375 0.39688,0.79375 0.26458,0 0.39687,-0.264583 0.39687,-0.79375 z m 5.82083,0.529167 c 0,-0.145521 -0.11906,-0.264584 -0.26458,-0.264584 -0.14552,0 -0.26458,0.119063 -0.26458,0.264584 0,0.14552 0.11906,0.264583 0.26458,0.264583 0.14552,0 0.26458,-0.119063 0.26458,-0.264583 z m 10.84792,-1.782531 c 0,-0.04573 -0.35719,0.101567 -0.79375,0.327322 -0.83462,0.431602 -0.99513,0.883415 -0.49241,1.386135 0.2254,0.225401 0.42544,0.05794 0.79375,-0.664486 0.27083,-0.531206 0.49241,-1.003242 0.49241,-1.048971 z m -21.13383,1.182808 c -0.26131,-0.259362 -0.2917,-0.228971 -0.14812,0.148113 0.0994,0.260937 0.24731,0.407781 0.32877,0.326319 0.0815,-0.08146 1.7e-4,-0.294956 -0.18065,-0.474432 z m 12.10408,0.243717 c 0.1625,-0.195803 0.76437,-0.567454 1.33748,-0.825892 0.91339,-0.411881 1.00422,-0.530429 0.73575,-0.960308 -0.43954,-0.703827 0.10925,-1.227687 0.68401,-0.652929 0.9456,0.945609 0.97826,0.145869 0.044,-1.078942 -1.12118,-1.469939 -1.48372,-1.53895 -3.29125,-0.62651 -0.87603,0.442221 -1.59279,0.854506 -1.59279,0.916191 0,0.06168 0.36213,0.506454 0.80473,0.988378 0.77023,0.838654 0.81624,1.091824 0.38761,2.132997 -0.23229,0.564238 0.44354,0.645463 0.89041,0.107015 z m 3.48563,-0.415084 c -0.16243,-0.303505 -0.21176,-0.551827 -0.10963,-0.551827 0.10213,0 0.11786,-0.06784 0.0349,-0.150749 -0.0829,-0.08291 -0.65008,0.103987 -1.26036,0.415332 -1.19336,0.608802 -1.32583,1.024834 -0.15671,0.49215 0.59184,-0.269664 0.77586,-0.250974 1.14292,0.116086 0.55604,0.55604 0.7317,0.394401 0.34883,-0.320992 z m 6.06391,-0.668543 c 0.005,-0.136954 -0.16543,-0.01789 -0.37908,0.264584 -0.21365,0.282475 -0.38803,0.692184 -0.3875,0.910465 0.001,0.416524 0.74988,-0.731372 0.76658,-1.175049 z m -18.41364,0.05057 c 0.23494,-0.876669 0.20618,-0.990703 -0.20965,-0.831135 -0.44333,0.170122 -0.74679,0.842849 -0.53487,1.185741 0.25732,0.416349 0.57897,0.26315 0.74452,-0.354606 z m 6.89401,0.154195 c 0.29504,-0.768875 -0.27288,-0.948191 -0.74089,-0.233926 -0.4211,0.642691 -0.418,0.675044 0.0647,0.675044 0.27883,0 0.58314,-0.198504 0.67624,-0.441118 z m 12.2334,-0.418778 c -0.0734,-0.181901 -0.13345,-0.03307 -0.13345,0.330729 0,0.363802 0.0601,0.51263 0.13345,0.330729 0.0734,-0.181901 0.0734,-0.479557 0,-0.661458 z m 0.80188,-0.127256 c -0.0671,-0.257432 -0.12638,-0.110869 -0.13177,0.325693 -0.005,0.436563 0.0495,0.647188 0.12197,0.468057 0.0725,-0.179132 0.0769,-0.53632 0.01,-0.79375 z m 1.13956,0.193402 c 0,-1.046256 -0.65247,-1.045685 -0.68963,6.08e-4 -0.0179,0.505175 0.10213,0.793142 0.33073,0.793142 0.22239,0 0.3589,-0.301909 0.3589,-0.79375 z m -15.67656,0.196121 c 0.46124,-0.363874 0.41428,-1.254455 -0.0662,-1.254455 -0.21828,0 -0.39688,0.139453 -0.39688,0.309896 0,0.170443 -0.17908,0.507786 -0.39797,0.749653 -0.3566,0.394033 -0.34972,0.440592 0.0662,0.447789 0.25527,0.0044 0.61295,-0.109379 0.79485,-0.252883 z m 16.97683,-1.122163 -0.0145,-0.529167 -0.22739,0.529167 c -0.12507,0.291042 -0.23394,0.70776 -0.24194,0.926042 -0.0129,0.352777 0.0139,0.352777 0.24194,0 0.14106,-0.218282 0.24993,-0.635 0.24193,-0.926042 z m -5.34526,0.296728 c 0.0779,-0.07789 0.0679,-0.333694 -0.0222,-0.568458 -0.23951,-0.624155 -1.3375,-0.392593 -1.43677,0.30301 -0.0663,0.464504 0.0396,0.547319 0.61868,0.483755 0.38426,-0.04218 0.76238,-0.14042 0.84027,-0.218307 z m -22.14876,-1.51975 c 0,-0.418744 -0.12609,-0.761353 -0.2802,-0.761353 -0.15411,0 -0.19524,-0.137459 -0.0914,-0.305464 0.11791,-0.190775 0.0725,-0.233581 -0.12099,-0.114009 -0.17038,0.1053 -0.24933,0.289266 -0.17544,0.408814 0.16756,0.271119 -1.01711,1.068992 -1.58722,1.068992 -0.67517,0 -0.17803,0.499594 0.74693,0.750622 1.05105,0.285247 1.50833,-0.03235 1.50833,-1.047602 z m 6.35,1.09073 c 0,-0.145521 -0.0525,-0.264583 -0.11668,-0.264583 -0.0642,0 -0.19026,0.119062 -0.28019,0.264583 -0.0899,0.145521 -0.0374,0.264584 0.11667,0.264584 0.15411,0 0.2802,-0.119063 0.2802,-0.264584 z m 17.90347,-0.176389 c -0.097,-0.09701 -0.17639,-0.01764 -0.17639,0.176389 0,0.194028 0.0794,0.273403 0.17639,0.176389 0.097,-0.09701 0.097,-0.255764 0,-0.352778 z m 0.52917,0 c -0.097,-0.09701 -0.17639,-0.01764 -0.17639,0.176389 0,0.194028 0.0794,0.273403 0.17639,0.176389 0.097,-0.09701 0.097,-0.255764 0,-0.352778 z m 2.20486,-0.236101 c 0,-0.436582 -0.41816,-0.510342 -0.66146,-0.116677 -0.21577,0.349122 0.1006,0.844569 0.41516,0.65016 0.13546,-0.08372 0.2463,-0.32379 0.2463,-0.533483 z m -22.12832,-0.756205 c -0.41698,-0.366666 -0.8428,-0.670428 -0.94627,-0.675027 -0.10347,-0.0046 -0.44558,-0.276252 -0.76025,-0.603674 l -0.57213,-0.595312 0.30508,0.592574 c 0.16779,0.325915 0.63764,0.764549 1.04411,0.974742 0.40647,0.210192 0.89615,0.571489 1.08819,0.802882 0.19204,0.231393 0.40547,0.364412 0.47428,0.295598 0.0688,-0.06882 -0.21604,-0.425117 -0.63301,-0.791783 z m 6.31947,0.329036 c 0.25466,-0.130511 0.46302,-0.34658 0.46302,-0.480153 0,-0.220985 0.38476,-0.425985 2.38125,-1.268717 0.59156,-0.249704 0.56036,-0.264433 -0.29525,-0.139394 -0.85676,0.125205 -1.03097,0.04245 -1.66752,-0.792106 -0.39095,-0.512556 -0.90625,-1.006917 -1.14512,-1.098581 -0.40111,-0.153918 -0.40146,-0.130349 -0.005,0.308229 0.80715,0.891896 1.00064,1.802941 0.52933,2.492345 -0.56089,0.820432 -0.86351,1.015331 -1.58409,1.020235 -0.32742,0.0022 -0.59531,0.125382 -0.59531,0.273675 0,0.284167 1.10165,0.102954 1.91823,-0.315533 z m 14.27427,0.257576 c -0.17463,-0.174625 -0.3175,-0.615156 -0.3175,-0.978959 0,-0.508173 -0.0723,-0.58912 -0.31215,-0.349304 -0.23982,0.239816 -0.22946,0.466677 0.0447,0.978958 0.19627,0.366743 0.47961,0.666805 0.62965,0.666805 0.16249,0 0.14442,-0.128374 -0.0447,-0.3175 z m -4.94369,-0.621545 c 1.64703,-0.728392 2.50044,-0.647977 3.68297,0.347038 0.54356,0.457378 0.54383,0.45674 0.0513,-0.125637 -0.57778,-0.683221 -1.96741,-1.200644 -2.85371,-1.06257 -0.82485,0.1285 -3.1175,1.51563 -2.50503,1.51563 0.0546,0 0.78565,-0.303507 1.62444,-0.674461 z m 2.66113,0.271906 c -0.54374,-0.411364 -0.84758,-0.34598 -0.55936,0.120369 0.0959,0.155203 0.37573,0.2784 0.6218,0.273772 0.39282,-0.0074 0.3852,-0.05548 -0.0624,-0.394141 z m -16.70639,-0.361543 c 0.30476,-0.493123 -3.33138,-3.081939 -3.97946,-2.833246 -0.36375,0.139584 -0.32693,0.246077 0.23904,0.691265 0.37061,0.291529 0.85653,0.454308 1.08941,0.364946 0.29043,-0.11145 0.42179,-0.0094 0.42495,0.330013 0.002,0.270231 0.38779,0.759219 0.85617,1.086641 0.93568,0.654096 1.15302,0.711272 1.36989,0.360381 z m 11.71739,-1.227176 c -1.44995,-0.846243 -2.20106,-1.325572 -2.30636,-1.471831 -0.0728,-0.101061 -0.36224,0.130779 -0.64329,0.5152 -0.50494,0.690663 -0.50494,0.693913 0,0.274214 0.48279,-0.401284 0.56943,-0.35685 1.56933,0.804856 1.0465,1.215832 1.06046,1.222213 1.24802,0.570325 0.10433,-0.362596 0.16387,-0.67434 0.1323,-0.692764 z m -19.63657,0.932941 c 0.0899,-0.145521 -0.0151,-0.264583 -0.23335,-0.264583 -0.21828,0 -0.47046,0.119062 -0.5604,0.264583 -0.0899,0.145521 0.0151,0.264583 0.23336,0.264583 0.21828,0 0.47046,-0.119062 0.56039,-0.264583 z m 12.46516,-0.405132 c 0.24135,-0.368344 0.38133,-0.727199 0.31107,-0.797455 -0.1722,-0.172208 -1.53144,0.912196 -1.53144,1.221791 0,0.500212 0.79591,0.223465 1.22037,-0.424336 z m 8.16104,0.423414 c 0.0837,-0.135465 0.0312,-0.321086 -0.11667,-0.41249 -0.1479,-0.0914 -0.2689,0.01943 -0.2689,0.246302 0,0.464747 0.15876,0.533177 0.38557,0.166188 z m 7.54351,-1.142761 c 0.005,-0.109141 -0.24831,-0.455166 -0.56209,-0.768945 l -0.57051,-0.570508 0.17364,0.868164 c 0.0955,0.47749 0.17363,1.054631 0.17363,1.282536 0,0.331054 0.0781,0.311104 0.38846,-0.09922 0.21365,-0.282475 0.39224,-0.602887 0.39687,-0.712027 z m -29.18495,0.479908 c -0.0802,-0.208994 0.11498,-0.71501 0.43374,-1.12448 0.55847,-0.717419 0.53869,-0.712414 -0.54396,0.137638 -1.29477,1.016607 -1.40591,1.36683 -0.43373,1.36683 0.4908,0 0.6477,-0.10961 0.54395,-0.379988 z m 22.57878,0.115404 c 0,-0.14552 -0.11906,-0.264583 -0.26458,-0.264583 -0.14552,0 -0.26458,0.119063 -0.26458,0.264583 0,0.145521 0.11906,0.264584 0.26458,0.264584 0.14552,0 0.26458,-0.119063 0.26458,-0.264584 z m 3.88396,-0.437569 c -0.0769,-0.07695 -0.41677,-0.0485 -0.75516,0.06322 l -0.61525,0.203131 0.66145,0.168863 c 0.60982,0.155679 1.03738,-0.10679 0.70896,-0.435211 z m -28.3399,-3.204485 c -0.32295,-0.322954 -0.6819,0.58333 -0.52564,1.327169 0.10809,0.514545 0.0333,0.773701 -0.25511,0.884386 -0.36196,0.138899 -0.35688,0.234918 0.0451,0.851048 l 0.45308,0.694485 0.23084,-1.789004 c 0.12696,-0.983953 0.15025,-1.86959 0.0518,-1.968084 z m 11.49136,2.911949 c 0,-0.256037 -0.23812,-0.614233 -0.52917,-0.795992 -0.79433,-0.49607 -0.65438,-0.736672 0.72761,-1.250873 0.69122,-0.257186 1.36988,-0.571018 1.50812,-0.697404 0.13825,-0.126386 0.59256,-0.229792 1.00959,-0.229792 0.41702,0 1.01829,-0.136387 1.33614,-0.303083 0.55247,-0.289736 0.55835,-0.280997 0.13344,0.198438 -0.43085,0.486136 -0.39433,0.501572 1.19062,0.503224 0.89931,9.26e-4 1.97805,0.107037 2.39721,0.235778 1.0615,0.326034 0.82117,-0.299623 -0.35802,-0.932027 -0.48984,-0.262708 -0.98099,-0.623856 -1.09143,-0.802552 -0.15708,-0.254171 -0.36332,-0.245888 -0.94735,0.03805 -0.4106,0.199624 -0.80608,0.381155 -0.87884,0.403404 -1.70283,0.520695 -2.91042,0.30237 -2.91042,-0.526186 0,-0.325293 -0.34274,-0.393395 -1.78594,-0.354857 -1.4861,0.03968 -1.57459,0.06434 -0.52706,0.146875 0.87299,0.06878 1.47283,0.29747 1.95686,0.746059 0.64291,0.595824 0.65574,0.646876 0.16259,0.646876 -0.29447,0 -0.68601,-0.181471 -0.87009,-0.403269 -0.18407,-0.221798 -0.38949,-0.348462 -0.45648,-0.281476 -0.067,0.06699 -0.38259,0.02264 -0.70134,-0.09855 -0.44449,-0.168993 -0.8191,-0.04173 -1.60743,0.546059 -1.14489,0.853651 -1.72009,1.007549 -1.16444,0.311555 0.92655,-1.160595 -2.11761,1.161813 -3.20875,2.447973 -0.3638,0.428824 0.016,0.155799 0.84406,-0.606723 0.82803,-0.762521 1.55763,-1.386402 1.62133,-1.386402 0.60893,0 2.07072,0.96174 2.78481,1.832168 0.95484,1.163904 1.36438,1.347824 1.36438,0.612727 z m 18.24306,-0.08829 c -0.16301,-0.304596 -0.22446,-0.840377 -0.13656,-1.190625 0.1755,-0.699221 -0.29877,-0.876207 -0.85567,-0.319315 -0.41892,0.418922 -0.40288,0.740833 0.0369,0.740833 0.19493,0 0.49003,0.297657 0.65579,0.661459 0.16576,0.363802 0.36765,0.661458 0.44865,0.661458 0.081,0 0.0139,-0.249214 -0.14911,-0.55381 z m -27.90035,-0.88796 c 0.51283,-0.381338 0.50671,-0.393744 -0.19844,-0.401899 -0.40018,-0.0046 -0.7276,-0.134504 -0.7276,-0.288612 0,-0.154109 -0.11906,-0.206614 -0.26459,-0.116677 -0.14552,0.08994 -0.26458,0.572048 -0.26458,1.071359 0,0.836508 0.0364,0.877252 0.46302,0.518575 0.25466,-0.214094 0.70115,-0.56633 0.99219,-0.782746 z m 1.81729,0.833718 c 0.0919,0.09189 0.16708,-0.135842 0.16708,-0.506079 0,-0.370237 -0.16922,-0.813604 -0.37605,-0.98526 -0.30899,-0.256436 -0.35027,-0.213473 -0.23145,0.240887 0.0877,0.335427 -0.0506,0.7729 -0.35155,1.111953 -0.48941,0.551364 -0.48853,0.554971 0.0644,0.265193 0.30829,-0.161576 0.63571,-0.218588 0.7276,-0.126694 z m 19.77639,-0.617703 c -0.44929,-0.314695 -0.58159,-0.619152 -0.50267,-1.156831 0.10169,-0.69288 0.0703,-0.716916 -0.62087,-0.475961 -1.42289,0.496024 -1.45661,0.93135 -0.12235,1.579586 0.66866,0.324861 1.21575,0.709806 1.21575,0.855434 0,0.14623 0.14325,0.121526 0.31995,-0.05518 0.25022,-0.250215 0.18705,-0.413045 -0.28981,-0.747052 z m 2.54341,0.251979 c 0.15341,-0.460215 -1.00647,-0.742392 -1.27961,-0.311308 -0.12513,0.197473 -0.22933,0.441206 -0.23155,0.541628 -0.007,0.308564 1.40317,0.09366 1.51116,-0.23032 z m 1.3952,0.180026 c 0,-0.331502 -0.28079,-0.331502 -0.79375,0 -0.32093,0.2074 -0.28295,0.257256 0.19844,0.260532 0.32742,0.0022 0.59531,-0.115011 0.59531,-0.260532 z m -22.39594,-1.385446 c -0.0712,-0.115289 -0.60661,-0.452996 -1.18969,-0.750462 -0.84767,-0.43245 -1.20201,-0.486056 -1.76799,-0.267467 l -0.70784,0.273379 0.66146,-0.04436 c 0.3638,-0.0244 1.05916,0.165807 1.54523,0.422683 0.75741,0.400263 0.86048,0.568347 0.72081,1.175507 l -0.16297,0.708462 0.51527,-0.654061 c 0.2834,-0.359734 0.45698,-0.748388 0.38572,-0.863677 z m 7.6472,0.128675 c 0.29405,-0.371971 -0.0233,-0.434908 -0.53991,-0.107087 -0.20627,0.130886 -0.26514,0.409809 -0.14988,0.710175 0.14632,0.38131 0.21713,0.406773 0.30907,0.111139 0.0656,-0.210924 0.23692,-0.532326 0.38072,-0.714227 z m -3.50751,0.604622 c 0,-0.06764 -0.26789,-0.252803 -0.59531,-0.411471 -0.57167,-0.277029 -0.57491,-0.272144 -0.0817,0.122982 0.53982,0.432485 0.67703,0.490953 0.67703,0.288489 z M -116.03303,48.083 c 0.16057,-0.418447 -0.837,-0.690632 -2.53121,-0.690632 -0.89197,0 -1.00798,0.05986 -0.74054,0.382104 0.17442,0.210157 0.75454,0.428267 1.28917,0.484689 0.53463,0.05642 1.16767,0.122601 1.40676,0.147063 0.2391,0.02446 0.49821,-0.120988 0.57582,-0.323224 z m -20.54283,-0.624486 c 0.10592,-1.644179 0.40238,-2.466099 0.84422,-2.340549 0.23751,0.06749 0.90808,0.02367 1.49016,-0.09737 1.03989,-0.216242 1.03297,-0.219764 -0.39687,-0.202058 -0.80037,0.0099 -1.82333,-0.06709 -2.27325,-0.171112 l -0.81805,-0.189132 0.0216,1.587195 c 0.0179,1.315247 0.1127,1.63154 0.55346,1.846007 0.29255,0.142346 0.5319,0.266869 0.5319,0.276718 0,0.0098 0.0211,-0.309515 0.0469,-0.709697 z m -0.81433,-1.775402 c -0.22545,-0.898266 -0.12317,-1.030198 0.46516,-0.600001 0.39326,0.28756 0.40457,0.397092 0.086,0.832772 -0.34893,0.477197 -0.37581,0.465844 -0.55115,-0.232771 z m 26.13916,2.084492 c 0.26834,-0.699289 0.18475,-0.904403 -0.36857,-0.904403 -0.33675,0 -0.52917,0.176389 -0.52917,0.48507 0,0.85544 0.61937,1.144747 0.89774,0.419333 z m 5.01156,-1.235132 c -0.0658,-0.10914 -0.51485,-0.198437 -0.99781,-0.198437 -0.48296,0 -1.30555,-0.178594 -1.82797,-0.396875 -1.07942,-0.45101 -2.70801,-0.525824 -2.94925,-0.135484 -0.10234,0.165579 0.26219,0.203311 0.99449,0.102938 1.05819,-0.145041 1.21458,-0.08889 1.84754,0.663328 0.44379,0.527421 0.84016,0.764729 1.10655,0.662505 0.29142,-0.111829 0.41507,-0.0023 0.41507,0.367724 0,0.487079 0.058,0.474192 0.76554,-0.17013 0.42104,-0.383422 0.71167,-0.786428 0.64584,-0.895569 z m -8.90791,0.683507 c -0.097,-0.09701 -0.17639,-0.01764 -0.17639,0.176389 0,0.194028 0.0794,0.273403 0.17639,0.176389 0.097,-0.09701 0.097,-0.255764 0,-0.352778 z m 5.90498,0.242535 c -0.01,-0.488173 -0.50878,-0.922782 -0.89083,-0.776174 -0.5586,0.214356 -0.25124,0.974611 0.39402,0.974611 0.27547,0 0.49903,-0.0893 0.49681,-0.198437 z m -20.30324,-0.732186 c 0.10449,-0.546596 -0.0205,-0.732221 -0.69676,-1.035078 -0.45324,-0.202972 -1.30033,-0.436226 -1.88241,-0.518344 -0.74911,-0.105681 -0.90372,-0.07926 -0.52917,0.09044 0.29104,0.131861 0.84956,0.248114 1.24116,0.258342 0.39159,0.01023 0.78049,0.129432 0.86421,0.264898 0.28285,0.457663 -0.28271,0.520526 -1.32911,0.147734 -0.57246,-0.203945 -1.51709,-0.362223 -2.09917,-0.35173 -0.58209,0.01049 -0.84998,0.07353 -0.59532,0.140079 0.25467,0.06655 0.46339,0.201566 0.46384,0.300037 4.5e-4,0.09847 0.56917,0.179239 1.26381,0.179487 0.90838,3.17e-4 1.47533,0.167473 2.01924,0.595312 0.96065,0.755646 1.12336,0.746597 1.27968,-0.07118 z m 8.20764,0.49249 c -0.17914,-0.07248 -0.53632,-0.07689 -0.79375,-0.0098 -0.25744,0.06708 -0.11087,0.126381 0.32569,0.131773 0.43656,0.0054 0.64719,-0.04949 0.46806,-0.12197 z m -13.65313,-0.532 c -0.097,-0.09701 -0.17639,-0.01764 -0.17639,0.176389 0,0.194028 0.0794,0.273403 0.17639,0.176389 0.097,-0.09701 0.097,-0.255764 0,-0.352778 z m 20.01183,-0.605039 c -0.19891,-0.760627 -1.23037,-1.328859 -2.65757,-1.464049 -0.69233,-0.06558 -1.02065,-0.05645 -0.72961,0.02028 0.29104,0.07673 0.70776,0.210854 0.92604,0.298046 0.21829,0.08719 0.53216,0.137643 0.6975,0.112115 0.16535,-0.02553 0.36997,0.134287 0.45472,0.355145 0.0847,0.220858 0.32369,0.40156 0.53096,0.40156 0.20728,0 0.44541,0.178594 0.52917,0.396875 0.22124,0.576546 0.40745,0.486753 0.24879,-0.11997 z m 10.40405,-0.705532 c 0.66438,-0.620557 0.80631,-0.84508 0.40308,-0.637673 -0.3423,0.176067 -0.8556,0.259128 -1.14067,0.184581 -0.56823,-0.148596 -0.9024,0.368861 -0.65483,1.014011 0.20625,0.537491 0.22414,0.530287 1.39242,-0.560919 z m -1.84211,-0.807328 c -0.0711,-0.07108 -0.42046,0.06157 -0.77638,0.294775 -0.63069,0.413244 -1.51545,0.328321 -1.51545,-0.145461 0,-0.323313 -0.72151,-0.293998 -1.98437,0.08063 l -1.05833,0.313952 1.4552,0.212443 c 0.80037,0.116843 1.99099,0.303163 2.64584,0.414043 1.11696,0.189128 1.19595,0.163157 1.27668,-0.419766 0.0473,-0.341753 0.0279,-0.679528 -0.0432,-0.750612 z m 2.07647,27.689973 c 0.0914,-0.147894 0.27702,-0.2004 0.41249,-0.116675 0.36698,0.226808 0.29856,0.385574 -0.16619,0.385574 -0.22687,0 -0.33771,-0.121004 -0.2463,-0.268899 z m 1.18795,-0.524851 c 0,-0.194027 0.0794,-0.273402 0.17639,-0.17639 0.097,0.09701 0.097,0.255765 0,0.35278 -0.097,0.09701 -0.17639,0.01764 -0.17639,-0.17639 z m -34.75023,-12.917649 c -0.47019,-0.519553 -0.59474,-1.369851 -0.20065,-1.369851 0.24018,0 0.90083,1.594502 0.73101,1.764318 -0.0501,0.05006 -0.28872,-0.127455 -0.53036,-0.394467 z m 1.28044,-5.074018 c -0.0899,-0.145521 -0.0374,-0.264583 0.11668,-0.264583 0.15411,0 0.2802,0.119062 0.2802,0.264583 0,0.145521 -0.0525,0.264584 -0.11668,0.264584 -0.0642,0 -0.19026,-0.119063 -0.2802,-0.264584 z m 0.66146,-0.529166 c 0,-0.145521 0.11906,-0.264584 0.26458,-0.264584 0.14553,0 0.26459,0.119063 0.26459,0.264584 0,0.14552 -0.11906,0.264583 -0.26459,0.264583 -0.14552,0 -0.26458,-0.119063 -0.26458,-0.264583 z m 34.19797,-7.805209 c 0.003,-0.582083 0.0571,-0.789054 0.12041,-0.459936 0.0633,0.329119 0.0609,0.805369 -0.005,1.058333 -0.0662,0.252965 -0.118,-0.01631 -0.11507,-0.598397 z"
       id="path20373" />
  </g>
</svg>
