<?xml version="1.0" encoding="UTF-8" standalone="no"?>
<!-- Created with Inkscape (http://www.inkscape.org/) -->

<svg
   width="33.564274mm"
   height="38.540268mm"
   viewBox="0 0 33.564286 38.540264"
   version="1.1"
   id="svg5"
   inkscape:version="1.1 (c4e8f9ed74, 2021-05-24)"
   sodipodi:docname="ornateg.svg"
   xmlns:inkscape="http://www.inkscape.org/namespaces/inkscape"
   xmlns:sodipodi="http://sodipodi.sourceforge.net/DTD/sodipodi-0.dtd"
   xmlns="http://www.w3.org/2000/svg"
   xmlns:svg="http://www.w3.org/2000/svg">
  <sodipodi:namedview
     id="namedview7"
     pagecolor="#ffffff"
     bordercolor="#666666"
     borderopacity="1.0"
     inkscape:pageshadow="2"
     inkscape:pageopacity="0.0"
     inkscape:pagecheckerboard="0"
     inkscape:document-units="mm"
     showgrid="false"
     inkscape:zoom="1.3380612"
     inkscape:cx="-214.11577"
     inkscape:cy="102.76062"
     inkscape:window-width="2506"
     inkscape:window-height="1403"
     inkscape:window-x="1974"
     inkscape:window-y="0"
     inkscape:window-maximized="1"
     inkscape:current-layer="layer1" />
  <defs
     id="defs2" />
  <g
     inkscape:label="Layer 1"
     inkscape:groupmode="layer"
     id="layer1"
     transform="translate(85.747861,-69.16916)">
    <path
       style="fill:#000000;stroke-width:0.264583"
       d="m -84.935351,107.5151 c -0.85094,-0.43045 -0.97621,-1.23557 -0.6397,-4.1112 0.16134,-1.37879 0.2413,-2.59112 0.17768,-2.69405 -0.0636,-0.10294 -0.12313,-0.70694 -0.13225,-1.342229 -0.0318,-2.21761 -0.0378,-7.51551 -0.01,-8.827997 0.0154,-0.727604 0.0206,-3.525573 0.0116,-6.217708 -0.009,-2.692135 0.1024,-5.490104 0.24772,-6.217708 0.17944,-0.8984 0.17357,-2.044596 -0.0183,-3.571875 -0.25442,-2.025419 -0.2303,-2.380453 0.2427,-3.571875 0.62721,-1.579849 1.30195,-2.006992 2.68092,-1.697158 0.54466,0.122377 1.33073,0.131456 1.74683,0.02017 0.45934,-0.122849 1.54401,-0.03716 2.76118,0.218142 1.10256,0.231259 2.77855,0.383855 3.72444,0.339102 0.94589,-0.04475 5.76792,-0.111847 10.71563,-0.149096 9.50532,-0.07156 10.38165,0.01814 10.97307,1.12322 0.38266,0.714997 -0.17891,6.774633 -0.69937,7.546673 -0.52833,0.783715 -0.42685,1.40113 0.30963,1.883688 0.47352,0.310261 0.66104,0.669079 0.65998,1.26287 -0.002,1.241971 -0.48526,2.740945 -0.93945,2.915235 -0.47197,0.181109 -0.33553,1.993919 0.3309,4.396523 0.31007,1.117859 0.35772,2.037902 0.20555,3.96875 -0.22053,2.798324 -0.19941,8.056573 0.0448,11.158283 0.15273,1.93957 0.12886,2.06116 -0.53473,2.72475 -0.66477,0.66477 -0.82234,0.69535 -3.67041,0.71239 -2.44746,0.0146 -11.84943,-0.0243 -16.20498,-0.0671 -2.37404,-0.0233 -9.5877,0.2253 -10.45105,0.36023 -0.50932,0.0796 -1.1989,0.007 -1.53239,-0.162 z m 1.4001,-0.7036 c -0.0899,-0.14552 0.0221,-0.26459 0.24897,-0.26459 0.22687,0 0.41249,0.11609 0.41249,0.25797 0,0.32446 1.25344,0.11091 3.269,-0.55694 1.25525,-0.41592 1.62499,-0.45044 1.94854,-0.18192 0.33018,0.27403 0.49866,0.21837 0.97311,-0.32145 0.57803,-0.65769 1.95756,-1.07556 1.59061,-0.48181 -0.12867,0.20818 0.0287,0.26132 0.50456,0.17035 0.38036,-0.0727 0.72547,-0.0495 0.76693,0.0516 0.0415,0.10108 0.67069,0.10492 1.39829,0.009 1.59518,-0.2113 1.01699,-0.41612 -1.85208,-0.65607 -1.43123,-0.11971 -1.9573,-0.28038 -2.31511,-0.70709 -0.35759,-0.42647 -0.46302,-0.45872 -0.46302,-0.14162 0,0.22581 0.11907,0.48415 0.26459,0.57409 0.51991,0.32132 0.25154,0.5679 -0.49832,0.45784 -0.93549,-0.1373 -1.43303,-1.0892 -1.2049,-2.30524 0.22233,-1.18509 -0.40849,-2.30735 -1.85723,-3.304109 -0.64818,-0.44596 -1.3624,-1.07338 -1.58715,-1.39426 -0.31955,-0.45622 -0.40865,-0.48845 -0.40865,-0.14781 0,0.23959 0.36455,0.71257 0.81011,1.05106 2.64968,2.012939 2.75107,2.157709 2.77643,3.964469 0.013,0.92293 0.0745,1.84176 0.13674,2.04185 0.074,0.23784 -0.29907,0.50351 -1.07745,0.76729 -0.65484,0.22192 -1.2232,0.48335 -1.26301,0.58096 -0.10186,0.24975 -2.71533,0.10416 -2.98479,-0.16627 -0.29557,-0.29664 -0.51235,-2.7364 -0.24313,-2.7364 0.11592,0 0.18019,-0.20836 0.14282,-0.46303 -0.10588,-0.72138 -0.52875,-0.51656 -0.71381,0.34574 -0.30408,1.41679 -0.23532,2.63742 0.18213,3.23341 0.39465,0.56345 1.38056,0.8691 1.04333,0.32346 z m 7.55704,-1.8e-4 c 0.84221,-0.23396 2.72705,-0.49296 7.06608,-0.97094 0.76667,-0.0845 1.44321,-0.23327 1.50343,-0.3307 0.0602,-0.0974 -0.6266,-0.0908 -1.52624,0.0148 -5.11284,0.60004 -6.53443,0.79091 -7.80893,1.04844 -0.77589,0.15678 -1.72839,0.21144 -2.11667,0.12147 -0.52772,-0.12227 -0.60575,-0.0958 -0.30908,0.10499 0.50659,0.34282 1.98044,0.34832 3.19141,0.0119 z m 10.56692,-0.30949 c 1.48766,-0.43384 6.3668,-0.50594 7.6956,-0.11371 2.03261,0.59998 4.05319,0.15066 4.2541,-0.94598 0.062,-0.33826 0.0652,-1.18491 0.007,-1.88144 -0.0873,-1.04788 -0.16923,-1.2135 -0.47494,-0.95979 -0.29649,0.24607 -0.36946,0.19572 -0.36946,-0.25493 0,-0.30886 0.14288,-0.56157 0.3175,-0.56157 0.22813,0 0.23675,-0.0807 0.0306,-0.28689 -0.3369,-0.33689 -0.14719,-1.30061 0.25601,-1.30061 0.15281,0 0.19948,-0.0783 0.10373,-0.17409 -0.0958,-0.0957 -0.0581,-0.313879 0.0837,-0.484729 0.17191,-0.20712 0.13144,-0.47972 -0.12142,-0.81809 -0.36016,-0.48194 -0.37115,-0.47544 -0.21843,0.12923 0.10907,0.43183 0.0659,0.57803 -0.13412,0.4544 -0.16221,-0.10025 -0.27026,-0.53535 -0.24012,-0.96689 0.0571,-0.8177 0.30511,-1.02255 0.5507,-0.45493 0.0787,0.1819 0.11838,-0.93817 0.0882,-2.48906 -0.0302,-1.55089 0.0429,-2.758984 0.16247,-2.684665 0.11955,0.07432 0.18333,-0.778881 0.14172,-1.895999 -0.0416,-1.117119 -0.16918,-2.088937 -0.28351,-2.159596 -0.11433,-0.07066 -0.20787,0.07173 -0.20787,0.316415 0,0.363004 -0.0721,0.385006 -0.39201,0.119545 -0.3463,-0.287399 -0.3463,-0.390613 0,-0.885018 0.44435,-0.63441 0.51065,-1.965598 0.12743,-2.5586 -0.18551,-0.287043 -0.25761,-0.04907 -0.26054,0.859896 -0.002,0.691223 -0.12311,1.25677 -0.26863,1.25677 -0.14552,0 -0.26458,-0.469223 -0.26458,-1.042718 0,-0.573495 -0.11907,-1.116303 -0.26459,-1.20624 -0.41502,-0.256501 -0.31405,1.385835 0.13909,2.262098 0.2613,0.505291 0.30018,0.78061 0.11024,0.78061 -0.16138,0 -0.23886,0.148828 -0.17216,0.330729 0.0667,0.181902 0.23927,0.30628 0.38348,0.276397 0.1513,-0.03135 0.23297,0.472307 0.19307,1.190625 -0.038,0.684727 -0.0955,3.090431 -0.12773,5.346001 -0.0575,4.02519 -0.24323,5.959049 -0.67337,7.011459 -0.1925,0.47098 -0.16721,0.48925 0.22997,0.16617 0.4067,-0.33081 0.43077,-0.28391 0.27164,0.52917 -0.096,0.49069 -0.34779,1.16005 -0.55944,1.48747 -0.55254,0.85478 0.0523,0.74111 0.70393,-0.13229 l 0.54285,-0.72761 0.008,0.84207 c 0.006,0.60586 -0.13577,0.88782 -0.50551,1.00517 -0.78948,0.25057 -2.98042,0.0918 -3.71944,-0.26951 -0.36381,-0.17787 -0.89959,-0.24068 -1.19063,-0.13957 -0.29104,0.1011 -1.66026,0.21142 -3.04271,0.24516 -1.38244,0.0337 -2.97855,0.18438 -3.54689,0.33477 -0.56835,0.15039 -1.66968,0.28834 -2.4474,0.30655 -0.77773,0.0182 -1.41405,0.11941 -1.41405,0.22489 0,0.4617 2.81044,0.41104 4.49792,-0.0811 z m 4.29948,0.38753 c -0.32742,-0.0631 -0.8632,-0.0631 -1.19062,0 -0.32743,0.0631 -0.0595,0.11466 0.59531,0.11466 0.65484,0 0.92273,-0.0516 0.59531,-0.11466 z m 1.4497,-0.23771 c -0.0879,-0.0879 -0.31613,-0.0973 -0.50712,-0.0209 -0.21107,0.0845 -0.14837,0.14716 0.15985,0.15985 0.27892,0.0115 0.43519,-0.0511 0.34727,-0.13896 z m -21.79196,-1.68321 c 0.54902,-0.54901 -0.11093,-0.58212 -1.01155,-0.0508 -1.04269,0.61521 -1.21294,0.43733 -0.40817,-0.42649 0.59298,-0.63648 0.70264,-1.21989 0.19844,-1.05565 -0.45169,0.14713 -1.06891,1.47148 -0.8959,1.92232 0.10782,0.28098 0.33994,0.30913 0.99648,0.12084 0.47075,-0.13501 0.97507,-0.36463 1.1207,-0.51027 z m 14.89625,0.60834 c -0.097,-0.097 -0.25576,-0.097 -0.35277,0 -0.097,0.097 -0.0176,0.17638 0.17638,0.17638 0.19403,0 0.27341,-0.0794 0.17639,-0.17638 z m -13.74902,-0.25528 c -0.0919,-0.0919 -0.048,-0.38955 0.0975,-0.66146 0.33423,-0.62451 0.0229,-0.6465 -0.44405,-0.0314 -0.47395,0.62434 -0.45404,0.85989 0.0727,0.85989 0.24253,0 0.36578,-0.0752 0.27389,-0.16708 z m 18.53357,-0.24094 c 1.05013,-0.33192 -0.10946,-0.52227 -3.37557,-0.55412 -2.03612,-0.0199 -3.70203,0.0694 -3.70203,0.19844 0,0.12899 0.52875,0.23453 1.17501,0.23453 0.64625,0 1.23769,0.10144 1.31431,0.2254 0.13023,0.21071 3.85991,0.12596 4.58828,-0.10425 z m 5.6224,0.14344 c 0,-0.14552 -0.11906,-0.26459 -0.26458,-0.26459 -0.14553,0 -0.26459,0.11907 -0.26459,0.26459 0,0.14552 0.11906,0.26458 0.26459,0.26458 0.14552,0 0.26458,-0.11906 0.26458,-0.26458 z m -23.24959,-0.46302 c 0.32911,-0.41965 0.31975,-0.42901 -0.0999,-0.0999 -0.25466,0.19972 -0.46302,0.40808 -0.46302,0.46302 0,0.21776 0.21727,0.0776 0.56291,-0.36312 z m 19.20918,0.30317 c -0.0879,-0.0879 -0.31612,-0.0973 -0.50712,-0.0209 -0.21106,0.0845 -0.14837,0.14716 0.15986,0.15985 0.27891,0.0115 0.43518,-0.0511 0.34726,-0.13896 z m -10.33529,-0.50161 c 0,-0.21828 -0.0992,-0.39688 -0.22048,-0.39688 -0.26425,0 -0.29073,0.37074 -0.0441,0.61737 0.24525,0.24524 0.26458,0.22913 0.26458,-0.22049 z m 1.0859,0.0827 c -0.16353,-0.49059 -0.73312,-0.57196 -0.73312,-0.10473 0,0.23041 0.18852,0.41892 0.41892,0.41892 0.23041,0 0.3718,-0.14138 0.3142,-0.31419 z m 11.43771,0.078 c -0.63785,-0.35382 -2.11666,-0.56613 -2.11666,-0.30388 0,0.22617 0.78417,0.42077 1.98437,0.49244 0.41748,0.0249 0.4454,-0.0149 0.13229,-0.18856 z m -13.75833,-0.6898 c -0.66178,-0.70443 -1.34887,-0.93346 -0.79375,-0.26458 0.18116,0.21828 0.2255,0.3987 0.0985,0.40093 -0.38502,0.007 0.5347,0.51671 0.93977,0.52106 0.25949,0.003 0.18333,-0.20194 -0.24456,-0.65741 z m 16.27188,0.39688 c 0.0899,-0.14552 -0.0221,-0.26459 -0.24897,-0.26459 -0.22687,0 -0.41249,0.11907 -0.41249,0.26459 0,0.14552 0.11203,0.26458 0.24897,0.26458 0.13693,0 0.32255,-0.11906 0.41249,-0.26458 z m -21.82813,-0.11668 c 0,-0.0642 -0.11906,-0.19026 -0.26458,-0.2802 -0.14552,-0.0899 -0.26459,-0.0374 -0.26459,0.11668 0,0.15411 0.11907,0.2802 0.26459,0.2802 0.14552,0 0.26458,-0.0525 0.26458,-0.11668 z m 3.89709,-0.0432 c -0.0879,-0.0879 -0.31612,-0.0973 -0.50712,-0.0209 -0.21106,0.0845 -0.14837,0.14716 0.15986,0.15985 0.27891,0.0115 0.43518,-0.0511 0.34726,-0.13896 z m 16.8727,-0.10474 c 0.0899,-0.14552 0.0374,-0.26458 -0.11667,-0.26458 -0.15411,0 -0.2802,0.11906 -0.2802,0.26458 0,0.14553 0.0525,0.26459 0.11667,0.26459 0.0642,0 0.19027,-0.11906 0.2802,-0.26459 z m -24.73854,-0.58987 c 0,-0.15486 -0.16812,-0.12914 -0.39687,0.0607 -0.21829,0.18116 -0.39688,0.37059 -0.39688,0.42097 0,0.0504 0.17859,0.0231 0.39688,-0.0607 0.21828,-0.0838 0.39687,-0.2732 0.39687,-0.42097 z m 1.94776,0.193 c 0.0838,-0.21828 0.037,-0.39687 -0.10398,-0.39687 -0.14095,0 -0.25628,0.17859 -0.25628,0.39687 0,0.21828 0.0468,0.39687 0.10398,0.39687 0.0572,0 0.17252,-0.17859 0.25628,-0.39687 z m 21.95916,0.19357 c 0.0691,-0.11182 -0.34058,-0.15885 -0.91043,-0.1045 -0.56984,0.0543 -1.03607,0.14583 -1.03607,0.20331 0,0.19707 1.82076,0.10465 1.9465,-0.0988 z m -22.63075,-0.67852 c 0.0506,-0.26108 -0.0843,-0.44109 -0.33073,-0.44109 -0.24543,0 -0.41627,0.22622 -0.41627,0.55121 0,0.64481 0.61827,0.55366 0.747,-0.11012 z m 19.20599,0.21881 c 1.44253,-0.21743 3.04987,-0.39531 3.57187,-0.39529 l 0.9491,3e-5 -0.0214,-3.373469 c -0.0118,-1.8554 0.0477,-4.83212 0.13229,-6.61493 0.16873,-3.557863 0.23045,-3.427893 -1.46685,-3.088897 l -0.76067,0.151927 0.0754,6.03284 0.0754,6.032829 -2.98578,0.46108 c -5.03391,0.77736 -8.33305,0.2255 -11.4971,-1.92317 -4.3096,-2.926599 -5.87229,-6.728899 -5.56934,-13.551233 0.15391,-3.466035 0.74964,-5.457483 2.39251,-7.997892 1.71296,-2.648787 3.65727,-4.113556 6.63896,-5.001542 1.54943,-0.461439 2.36973,-0.530518 5.29346,-0.445773 3.556,0.103072 3.5221,0.09502 7.25939,1.723673 0.19794,0.08626 -0.1505,-0.502816 -0.77433,-1.309067 l -1.13424,-1.465909 -3.0006,-0.187485 c -5.44026,-0.33992 -9.37734,0.466502 -12.49363,2.559038 -3.31669,2.227102 -5.73797,6.180583 -6.53431,10.669255 -1.01888,5.743047 0.40812,10.329786 4.40841,14.169756 3.60093,3.456609 8.54265,4.594059 15.44157,3.554229 z m -13.35843,-0.57343 c -0.8861,-0.97705 -2.34535,-2.2883 -2.85941,-2.56939 -0.349,-0.19084 -0.3669,-0.16889 -0.0971,0.11906 0.52939,0.56508 0.38395,0.75126 -0.32867,0.42073 -0.36266,-0.1682 -0.66032,-0.43221 -0.66146,-0.58667 -0.001,-0.15446 -0.24018,-0.536429 -0.53123,-0.848829 -0.56185,-0.60308 -0.70532,-0.9948 -0.26458,-0.72241 0.54297,0.33557 0.21595,-0.31032 -0.91606,-1.80928 l -1.16654,-1.54469 0.026,0.88323 c 0.0143,0.48578 0.077,0.73165 0.13934,0.54639 0.0673,-0.20009 0.40967,0.0684 0.84329,0.66146 0.40149,0.54906 0.62124,1.06952 0.48834,1.15655 -0.13289,0.087 0.0636,0.52095 0.43656,0.96424 0.37301,0.443289 0.67913,0.907859 0.68026,1.032379 0.003,0.3424 1.30712,0.8765 1.73712,0.7115 0.20761,-0.0797 0.37748,-0.0201 0.37748,0.13242 0,0.52114 -0.5137,0.59542 -1.16527,0.16849 -0.64147,-0.4203 -0.64835,-0.41647 -0.46749,0.2598 0.27271,1.01971 1.52926,1.7285 3.06795,1.73055 l 1.30289,0.002 -0.64143,-0.70728 z m -1.8457,-0.3089 c -0.33079,-0.26785 -0.48587,-0.55842 -0.34464,-0.64571 0.14124,-0.0873 0.60705,0.12759 1.03514,0.47749 0.55791,0.45602 0.65551,0.6389 0.34464,0.64572 -0.23854,0.005 -0.70436,-0.20964 -1.03514,-0.4775 z m -7.35638,-0.23514 c -0.19417,-0.36282 -0.12051,-1.18855 0.26449,-2.964649 0.33422,-1.54181 0.44041,-2.55499 0.28416,-2.71124 -0.15626,-0.15625 -0.31628,0.16821 -0.42822,0.86825 -0.39312,2.458439 -1.31218,-0.80407 -1.08659,-3.85724 0.10655,-1.44211 0.0908,-1.505369 -0.1662,-0.66714 -0.39337,1.28306 -0.16004,4.82121 0.37142,5.63233 0.2342,0.35743 0.41883,1.15515 0.41031,1.772709 -0.0182,1.31733 -0.47095,0.89611 -0.47738,-0.44411 -0.002,-0.464349 -0.1417,-0.929349 -0.30994,-1.033319 -0.21974,-0.13581 -0.257,0.0554 -0.13229,0.67891 0.0955,0.477379 0.17404,1.061439 0.17458,1.297909 0.001,0.52492 1.0309,2.26438 1.22533,2.06995 0.0767,-0.0767 0.0184,-0.36577 -0.12967,-0.64236 z m 1.72557,0.32528 c 0,-0.21828 -0.15875,-0.39688 -0.35278,-0.39688 -0.37555,0 -0.46849,0.32526 -0.17638,0.61736 0.29545,0.29545 0.52916,0.19807 0.52916,-0.22048 z m 2.11667,-0.30868 c -0.097,-0.097 -0.25576,-0.097 -0.35278,0 -0.097,0.097 -0.0176,0.17638 0.17639,0.17638 0.19403,0 0.2734,-0.0794 0.17639,-0.17638 z m -1.13904,-0.74966 c 0.0838,-0.21828 0.037,-0.39687 -0.10399,-0.39687 -0.14095,0 -0.25628,0.17859 -0.25628,0.39687 0,0.21828 0.0468,0.39688 0.10399,0.39688 0.0572,0 0.17251,-0.1786 0.25628,-0.39688 z m 1.18078,-0.26087 c -0.16483,-0.36176 -0.57899,-0.83801 -0.92037,-1.05833 -0.34137,-0.22033 -0.92205,-0.595309 -1.2904,-0.833309 l -0.66973,-0.43272 0.47129,0.82792 c 0.31045,0.545369 0.67669,0.828499 1.07315,0.829599 0.39766,10e-4 0.68719,0.22609 0.85335,0.66313 0.13831,0.3638 0.37094,0.66146 0.51694,0.66146 0.16838,0 0.15586,-0.24055 -0.0342,-0.65775 z m 12.74645,0.54107 c 0,-0.0642 -0.11906,-0.19026 -0.26458,-0.2802 -0.14552,-0.0899 -0.26458,-0.0374 -0.26458,0.11668 0,0.15411 0.11906,0.2802 0.26458,0.2802 0.14552,0 0.26458,-0.0525 0.26458,-0.11668 z m 0.45733,-2.727589 c -0.0571,-0.54571 -0.10379,-0.0992 -0.10379,0.992179 0,1.09141 0.0467,1.5379 0.10379,0.99219 0.0571,-0.5457 0.0571,-1.438669 0,-1.984369 z m 0.99788,2.579679 c 0.0899,-0.14552 0.10399,-0.26458 0.0312,-0.26458 -0.0728,0 -0.20587,0.11906 -0.29581,0.26458 -0.0899,0.14553 -0.10399,0.26459 -0.0312,0.26459 0.0728,0 0.20588,-0.11906 0.29581,-0.26459 z m 0.92604,-0.13229 c 0,-0.21828 -0.0468,-0.39687 -0.10398,-0.39687 -0.0572,0 -0.17252,0.17859 -0.25628,0.39687 -0.0838,0.21828 -0.037,0.39688 0.10399,0.39688 0.14095,0 0.25627,-0.1786 0.25627,-0.39688 z m 0.65167,-3.638019 c -0.12339,-2.21919 -0.2235,-5.376913 -0.22246,-7.017158 0.001,-1.994234 -0.0914,-2.950004 -0.27981,-2.884892 -0.55474,0.191757 -0.11452,13.936949 0.44637,13.936949 0.19484,0 0.21188,-1.22972 0.0559,-4.034899 z m 0.59339,2.381249 c -0.0631,-0.32742 -0.11466,-0.0595 -0.11466,0.59531 0,0.65485 0.0516,0.92274 0.11466,0.59532 0.0631,-0.32742 0.0631,-0.86321 0,-1.19063 z m 0.88802,-1.837479 c -0.0234,-1.79066 -0.0871,-3.49387 -0.14154,-3.78491 -0.0544,-0.29105 -0.10807,-1.95197 -0.11921,-3.690941 -0.0137,-2.145593 -0.10683,-3.075184 -0.28965,-2.892363 -0.26383,0.263834 -0.35916,4.485464 -0.13671,6.054134 0.0619,0.43656 0.13925,2.16297 0.17186,3.83646 0.0326,1.67349 0.11378,3.255789 0.18038,3.516219 0.26686,1.04358 0.37538,0.0589 0.33487,-3.038599 z m -5.97056,0.77915 c -0.0675,-1.34607 -0.13639,-4.65005 -0.15303,-7.342188 -0.0217,-3.512276 -0.1039,-4.707965 -0.29095,-4.233334 -0.25514,0.647414 -0.0638,12.561371 0.21781,13.559891 0.27564,0.9775 0.34445,0.37379 0.22617,-1.984369 z m 0.58463,0.793749 c -0.0631,-0.327419 -0.11467,-0.0595 -0.11467,0.59531 0,0.65485 0.0516,0.92274 0.11467,0.59531 0.0631,-0.32742 0.0631,-0.8632 0,-1.19062 z m 6.55725,-5.967179 c -0.10421,-3.391088 -0.24117,-6.113928 -0.30434,-6.050755 -0.17868,0.17868 -0.009,12.846004 0.18158,13.539284 0.23892,0.87008 0.28788,-2.116149 0.12276,-7.488529 z m 5.61021,6.633669 c -0.0671,-0.25743 -0.12638,-0.11087 -0.13177,0.3257 -0.005,0.43656 0.0495,0.64718 0.12197,0.46805 0.0725,-0.17913 0.0769,-0.53632 0.01,-0.79375 z m -26.56335,-0.20486 c -0.27712,-0.58113 -0.51328,-0.812519 -0.63247,-0.619679 -0.25247,0.408509 0.28081,1.547109 0.72461,1.547109 0.27292,0 0.2526,-0.2045 -0.0921,-0.92743 z m 13.06147,0.0675 c -0.0734,-0.18191 -0.13345,-0.0331 -0.13345,0.33072 0,0.36381 0.0601,0.51264 0.13345,0.33073 0.0734,-0.1819 0.0734,-0.47955 0,-0.66145 z m 3.79352,-0.26324 c 0,-0.440369 -0.0666,-0.473889 -0.39687,-0.19979 -0.21828,0.18116 -0.39688,0.56751 -0.39688,0.85855 0,0.44037 0.0666,0.47389 0.39688,0.19979 0.21828,-0.18116 0.39687,-0.5675 0.39687,-0.85855 z m 5.02709,-1.317829 c 0,-1.17983 -0.0522,-2.09297 -0.11596,-2.02919 -0.26546,0.26545 -0.41522,4.502619 -0.15342,4.340829 0.14816,-0.0916 0.26938,-1.13181 0.26938,-2.311639 z m -9.41969,0.12586 c -0.0304,-1.12779 -0.0963,-4.15225 -0.14644,-6.721033 -0.0978,-5.011531 -0.48868,-6.293643 -0.48707,-1.59773 0.001,4.061623 0.31609,10.369282 0.51735,10.369282 0.0943,0 0.14655,-0.92274 0.11616,-2.050519 z m 2.71691,1.874129 c -0.097,-0.097 -0.25576,-0.097 -0.35278,0 -0.097,0.097 -0.0176,0.17639 0.17639,0.17639 0.19403,0 0.2734,-0.0794 0.17639,-0.17639 z m -3.97144,-0.94809 c -0.0815,-0.327419 -0.17688,-3.244449 -0.21186,-6.482289 -0.035,-3.237841 -0.15978,-5.886982 -0.27731,-5.886982 -0.24561,0 -0.29603,11.913012 -0.0531,12.546071 0.24772,0.64554 0.70956,0.49496 0.54227,-0.1768 z m -1.05129,-0.777209 c -0.0845,-0.21107 -0.14716,-0.14838 -0.15985,0.15985 -0.0115,0.27891 0.051,0.43518 0.13896,0.34726 0.0879,-0.0879 0.0973,-0.31612 0.0209,-0.50711 z m 5.04042,-0.59727 c -0.0422,-0.64682 -0.13289,-1.23197 -0.20154,-1.30033 -0.18609,-0.18528 -0.29708,1.93308 -0.11659,2.22512 0.30473,0.493069 0.39375,0.23432 0.31813,-0.92479 z m 2.10497,-0.0807 c -0.0666,-0.25466 -0.121,-0.0463 -0.121,0.46302 0,0.50932 0.0545,0.71768 0.121,0.46302 0.0666,-0.25466 0.0666,-0.67138 0,-0.92604 z m 1.5875,-0.26458 c -0.0666,-0.25466 -0.121,-0.0463 -0.121,0.46302 0,0.50932 0.0545,0.71768 0.121,0.46302 0.0666,-0.25466 0.0666,-0.67138 0,-0.92604 z m -9.4428,0.19843 c 0.15576,-0.29104 0.18376,-0.52916 0.0622,-0.52916 -0.28132,0 -0.85598,0.56841 -0.85598,0.84666 0,0.41068 0.5141,0.20504 0.79375,-0.3175 z m 4.9539,-1.91822 c -0.0587,-0.47295 -0.10671,-0.086 -0.10671,0.85989 0,0.94589 0.048,1.33284 0.10671,0.8599 0.0587,-0.47295 0.0587,-1.24685 0,-1.71979 z m 7.92684,1.86862 c -0.0845,-0.21107 -0.14715,-0.14838 -0.15985,0.15985 -0.0115,0.27891 0.051,0.43518 0.13896,0.34726 0.0879,-0.0879 0.0973,-0.31612 0.0209,-0.50711 z m 0.53081,-0.678 c -0.0666,-0.25466 -0.121,-0.0463 -0.121,0.46302 0,0.50932 0.0545,0.71768 0.121,0.46302 0.0666,-0.25466 0.0666,-0.67138 0,-0.92604 z m 4.00598,-3.50573 c -0.004,-2.11005 -0.0918,-3.5388 -0.19448,-3.174998 -0.28642,1.014714 -0.32081,8.172038 -0.0362,7.540628 0.13117,-0.29105 0.23499,-2.25558 0.23071,-4.36563 z m -24.83524,4.29948 c -0.005,-0.10914 -0.17953,-0.49609 -0.3875,-0.8599 -0.27006,-0.47241 -0.3808,-0.53531 -0.3875,-0.22007 -0.0132,0.62145 0.26846,1.27841 0.5481,1.27841 0.12995,0 0.23206,-0.0893 0.2269,-0.19844 z m 6.27815,-0.78871 c -0.0671,-0.25744 -0.12638,-0.11087 -0.13178,0.32569 -0.005,0.43656 0.0495,0.64719 0.12197,0.46806 0.0725,-0.17914 0.0769,-0.53632 0.01,-0.79375 z m -0.75264,-0.62632 c -0.49372,-0.30676 -0.62182,0.20852 -0.18333,0.73753 0.32587,0.39315 0.36348,0.38951 0.44792,-0.0433 0.0507,-0.25989 -0.0684,-0.57227 -0.26459,-0.69419 z m 2.60472,0.0971 c -0.0671,-0.25743 -0.12638,-0.11087 -0.13177,0.32569 -0.005,0.43657 0.0495,0.64719 0.12197,0.46806 0.0725,-0.17913 0.0769,-0.53632 0.01,-0.79375 z m -1.10939,0.45798 c 0.0899,-0.14552 0.10399,-0.26458 0.0312,-0.26458 -0.0728,0 -0.20588,0.11906 -0.29582,0.26458 -0.0899,0.14553 -0.10399,0.26459 -0.0312,0.26459 0.0728,0 0.20588,-0.11906 0.29582,-0.26459 z m 7.64202,-0.85284 c 0.13528,-0.5743 0.0885,-0.68939 -0.23042,-0.56701 -0.2378,0.0913 -0.40015,0.48558 -0.40015,0.97191 0,0.93459 0.37121,0.69623 0.63057,-0.4049 z m -0.9845,-0.27163 c -0.0734,-0.18191 -0.13346,-0.0331 -0.13346,0.33072 0,0.36381 0.0601,0.51264 0.13346,0.33073 0.0734,-0.1819 0.0734,-0.47955 0,-0.66145 z m -15.14066,-0.1323 c -0.27795,-1.27326 -0.68204,-2.14041 -1.06609,-2.28778 -0.20496,-0.0786 -0.37265,-0.0206 -0.37265,0.12889 0,0.14954 -0.13746,0.18694 -0.30546,0.0831 -0.19078,-0.11791 -0.23358,-0.0725 -0.11401,0.12099 0.1053,0.17038 0.28637,0.25112 0.40239,0.17941 0.11602,-0.0717 0.4239,0.10495 0.68419,0.39256 0.56853,0.62822 0.4779,0.64269 -0.76709,0.1225 -0.90909,-0.37984 -0.95835,-0.37412 -0.95835,0.11127 0,0.34873 0.24278,0.56502 0.76233,0.67913 0.41928,0.0921 0.98483,0.39213 1.25677,0.66676 0.65057,0.65699 0.66323,0.65178 0.47797,-0.19684 z m 6.15295,-0.25954 c -0.0671,-0.25744 -0.12638,-0.11087 -0.13178,0.32569 -0.005,0.43656 0.0495,0.64719 0.12197,0.46806 0.0725,-0.17914 0.0769,-0.53632 0.01,-0.79375 z m 1.57937,0.12725 c -0.0734,-0.1819 -0.13345,-0.0331 -0.13345,0.33073 0,0.3638 0.06,0.51263 0.13345,0.33073 0.0734,-0.1819 0.0734,-0.47956 0,-0.66146 z m -0.43981,0.23084 c 0,-0.0549 -0.20836,-0.2633 -0.46302,-0.46303 -0.41964,-0.3291 -0.429,-0.31974 -0.0999,0.0999 0.34564,0.44073 0.56291,0.58089 0.56291,0.36313 z m 1.73388,-1.00282 c 0.0916,-0.28857 0.0941,-0.59705 0.006,-0.68553 -0.21773,-0.21773 -0.583,0.20483 -0.80106,0.92668 -0.14017,0.46402 -0.0911,0.55979 0.22477,0.43858 0.22226,-0.0853 0.47904,-0.39117 0.57063,-0.67973 z m 0.56353,0.25935 c -0.0845,-0.21106 -0.14716,-0.14837 -0.15985,0.15986 -0.0115,0.27891 0.051,0.43518 0.13896,0.34726 0.0879,-0.0879 0.0973,-0.31612 0.0209,-0.50712 z m 7.13824,-0.28112 c -0.0734,-0.1819 -0.13346,-0.0331 -0.13346,0.33073 0,0.3638 0.0601,0.51263 0.13346,0.33073 0.0734,-0.1819 0.0734,-0.47956 0,-0.66146 z m 5.03259,0.28112 c -0.0845,-0.21106 -0.14715,-0.14837 -0.15985,0.15986 -0.0115,0.27891 0.051,0.43518 0.13896,0.34726 0.0879,-0.0879 0.0973,-0.31612 0.0209,-0.50712 z m -7.33718,-0.62714 c -0.46983,-0.56611 -0.61796,-0.27183 -0.229,0.45495 0.20903,0.39057 0.37185,0.4928 0.44333,0.27835 0.0621,-0.18641 -0.0343,-0.51639 -0.21433,-0.7333 z m 6.55578,-1.63245 c -0.0573,-0.54895 -0.10509,-0.16465 -0.10627,0.85399 -10e-4,1.01865 0.0457,1.46779 0.10414,0.99809 0.0585,-0.4697 0.0594,-1.30313 0.002,-1.85208 z m -15.30695,-1.759632 c 0.0541,-2.917957 -0.003,-3.561059 -0.32583,-3.685014 -0.3369,-0.129281 -0.37709,0.371757 -0.28902,3.603406 0.0563,2.06446 0.10771,3.87263 0.11434,4.01815 0.007,0.14552 0.10723,0.11467 0.22355,-0.0686 0.11631,-0.18323 0.24095,-1.92382 0.27696,-3.867992 z m 9.47377,3.490062 c -0.0845,-0.21107 -0.14716,-0.14838 -0.15985,0.15985 -0.0115,0.27891 0.051,0.43518 0.13896,0.34726 0.0879,-0.0879 0.0973,-0.31612 0.0209,-0.50711 z m 7.22759,-1.75191 c 0,-1.587036 -0.11893,-2.493325 -0.37274,-2.840435 -0.33128,-0.453044 -0.34727,-0.377721 -0.14382,0.677035 0.12591,0.652734 0.23412,1.93093 0.24046,2.84044 0.006,0.9095 0.0711,1.65364 0.14381,1.65364 0.0728,0 0.13229,-1.0488 0.13229,-2.33068 z m -6.43819,1.09596 c -0.097,-0.097 -0.17639,-0.0176 -0.17639,0.17639 0,0.19403 0.0794,0.2734 0.17639,0.17639 0.097,-0.097 0.097,-0.25577 0,-0.35278 z m -8.37848,-0.17948 c 0,-0.19573 -0.23812,-0.57137 -0.52916,-0.83476 -0.51202,-0.46337 -0.52917,-0.46213 -0.52917,0.0384 0,0.52503 0.46088,1.15226 0.84667,1.15226 0.11641,0 0.21166,-0.16014 0.21166,-0.35587 z m 3.35574,-0.22291 c -0.0845,-0.21106 -0.14715,-0.14837 -0.15985,0.15986 -0.0115,0.27891 0.0511,0.43518 0.13897,0.34726 0.0879,-0.0879 0.0973,-0.31612 0.0209,-0.50712 z m -10.75667,-0.59238 c -0.14959,-0.39345 -0.2796,-1.035043 -0.2889,-1.425754 l -0.0169,-0.710379 -0.42733,0.858565 c -0.41148,0.826738 -0.40428,0.883098 0.19435,1.520308 0.74524,0.79327 0.90528,0.72117 0.5388,-0.24274 z m 8.59156,0.64199 c 0.0899,-0.14552 0.10399,-0.26458 0.0312,-0.26458 -0.0728,0 -0.20588,0.11906 -0.29581,0.26458 -0.0899,0.14552 -0.10399,0.26459 -0.0312,0.26459 0.0728,0 0.20587,-0.11907 0.29581,-0.26459 z m 0.85097,-1.785936 c -0.0606,-0.400182 -0.11023,-0.07276 -0.11023,0.727606 0,0.80036 0.0496,1.12778 0.11023,0.7276 0.0606,-0.40018 0.0606,-1.05502 0,-1.455206 z m 8.45354,1.609546 c -0.097,-0.097 -0.17639,-0.0176 -0.17639,0.17639 0,0.19403 0.0794,0.2734 0.17639,0.17639 0.097,-0.097 0.097,-0.25576 0,-0.35278 z m -13.49375,-0.26458 c -0.097,-0.097 -0.17639,-0.0176 -0.17639,0.17639 0,0.19403 0.0794,0.2734 0.17639,0.17639 0.097,-0.097 0.097,-0.25577 0,-0.35278 z m 11.41737,-0.30605 c 0.0631,-0.42898 -0.0201,-0.53318 -0.33073,-0.41399 -0.49112,0.18846 -0.57339,1.25724 -0.0844,1.09619 0.1819,-0.0599 0.3687,-0.36689 0.41511,-0.6822 z m -3.73845,-1.038916 c -0.0666,-0.254661 -0.121,-0.0463 -0.121,0.463016 0,0.50933 0.0545,0.71769 0.121,0.46303 0.0665,-0.25467 0.0665,-0.67138 0,-0.926046 z m 2.63867,0.396876 c -0.0734,-0.181902 -0.13345,-0.0331 -0.13345,0.33073 0,0.3638 0.0601,0.51263 0.13345,0.33073 0.0734,-0.1819 0.0734,-0.47956 0,-0.66146 z m -8.71338,-2.243058 c -0.0573,-0.548949 -0.1051,-0.164651 -0.10628,0.853995 -0.001,1.018645 0.0457,1.467783 0.10414,0.998087 0.0584,-0.469696 0.0594,-1.303133 0.002,-1.852082 z m 1.12982,2.457108 c 0,-0.0642 -0.13746,-0.20163 -0.30546,-0.30546 -0.18926,-0.116969 -0.23365,-0.0726 -0.11668,0.11667 0.1885,0.305 0.42214,0.40949 0.42214,0.18879 z m 1.65195,-0.807768 c 0.10335,-0.540631 0.059,-0.61073 -0.23299,-0.368387 -0.39148,0.324903 -0.50951,1.416075 -0.12763,1.180065 0.12814,-0.0792 0.29042,-0.444452 0.36062,-0.811678 z m 12.71221,0.39528 c -0.0761,-0.291042 -0.18402,-0.529167 -0.23981,-0.529167 -0.0558,0 -0.10143,0.238125 -0.10143,0.529167 0,0.291038 0.10791,0.529168 0.23981,0.529168 0.1319,0 0.17754,-0.23813 0.10143,-0.529168 z m -23.7554,-0.527545 c -0.30746,-0.339744 -0.36243,-0.530789 -0.15272,-0.530789 0.1802,0 0.28498,-0.127992 0.23283,-0.284427 -0.11355,-0.340662 -0.63966,-0.295931 -0.5446,0.0463 0.11818,0.425445 -0.4291,0.251212 -0.70641,-0.224896 -0.14833,-0.254661 -0.27331,-0.350556 -0.27773,-0.213099 -0.009,0.274243 1.64535,1.915004 1.82037,1.805604 0.0597,-0.0374 -0.10754,-0.306762 -0.37174,-0.598695 z m 6.9218,0.351155 c -0.097,-0.09701 -0.17639,-0.01764 -0.17639,0.17639 0,0.194028 0.0794,0.273398 0.17639,0.176388 0.097,-0.097 0.097,-0.255763 0,-0.352778 z m 10.95408,-0.302689 c -0.22153,-0.07384 -0.2114,-0.214542 0.0371,-0.51572 0.28519,-0.345608 0.27607,-0.392455 -0.0551,-0.282988 -0.21828,0.07215 -0.40233,0.443103 -0.409,0.824336 -0.01,0.565969 0.0561,0.636519 0.35974,0.384535 0.2582,-0.214284 0.27875,-0.339657 0.0672,-0.410163 z m -11.56279,-2.007839 c -0.0973,-1.265752 -0.26901,-2.206269 -0.38159,-2.090037 -0.11258,0.116231 -0.0736,1.192503 0.0865,2.391714 0.16018,1.199213 0.3319,2.139727 0.38159,2.090038 0.0497,-0.04969 0.0107,-1.125963 -0.0865,-2.391715 z m 10.17416,1.91233 c -0.10699,-0.727103 -0.74601,-0.971492 -0.74601,-0.285308 0,0.549132 0.21383,0.859896 0.59167,0.859896 0.13139,0 0.20084,-0.258564 0.15434,-0.574588 z m -15.30214,-0.858572 c 0.005,-0.676923 -0.14603,-0.465736 -0.36364,0.507118 -0.12967,0.579681 -0.10512,0.686715 0.091,0.396875 0.14772,-0.218281 0.2704,-0.625078 0.27263,-0.903993 z m 8.20613,1.0519 c 0,-0.06417 -0.13746,-0.201631 -0.30546,-0.305464 -0.18926,-0.116967 -0.23365,-0.07258 -0.11668,0.116676 0.1885,0.304999 0.42214,0.409488 0.42214,0.188788 z m 0.0121,-1.18358 c -0.3003,-0.561113 -0.80588,-0.753176 -0.80588,-0.306143 0,0.319019 0.81957,1.139611 0.97898,0.980202 0.0672,-0.06723 -0.0107,-0.370554 -0.1731,-0.674059 z m 1.47498,-0.451438 c 0.0334,-0.227403 -0.0132,-0.339573 -0.10351,-0.249267 -0.0903,0.09031 -0.1915,0.350252 -0.22488,0.577655 -0.0334,0.227404 0.0132,0.339574 0.10352,0.249267 0.0903,-0.09031 0.1915,-0.350251 0.22487,-0.577655 z m 6.10458,-0.293791 c -0.0671,-0.257431 -0.12638,-0.110869 -0.13178,0.325694 -0.005,0.436562 0.0495,0.647187 0.12197,0.468056 0.0725,-0.179132 0.0769,-0.536319 0.01,-0.79375 z m -0.44794,0.605892 c 0,-0.06417 -0.13746,-0.201631 -0.30546,-0.305464 -0.18926,-0.116967 -0.23365,-0.07258 -0.11668,0.116677 0.1885,0.304999 0.42214,0.409486 0.42214,0.188787 z m 1.5875,-0.996102 c 0,-0.801148 -0.64927,-0.405884 -0.75011,0.456651 -0.0778,0.665903 -0.0376,0.715874 0.33073,0.41022 0.23066,-0.191429 0.41938,-0.581521 0.41938,-0.866871 z m -16.4178,-0.937742 -0.0136,-1.785938 -0.41341,0.996863 c -0.34179,0.824184 -0.35679,1.133547 -0.0866,1.785937 0.17977,0.433992 0.37194,0.789075 0.42704,0.789075 0.0551,0 0.0941,-0.803672 0.0866,-1.785937 z m -1.13289,1.080382 c -0.097,-0.09701 -0.17639,-0.01764 -0.17639,0.176389 0,0.194027 0.0794,0.273402 0.17639,0.176389 0.097,-0.09701 0.097,-0.255764 0,-0.352778 z m 12.44888,-1.341327 c -0.0608,-0.402184 -0.11219,-0.13593 -0.11418,0.591674 -0.002,0.727604 0.0478,1.056663 0.11057,0.731242 0.0628,-0.325421 0.0644,-0.920733 0.004,-1.322916 z m -3.7349,1.118162 c -0.0323,-0.219754 -0.22434,-0.547176 -0.42685,-0.727604 -0.31228,-0.278222 -0.31499,-0.257721 -0.0178,0.13497 0.25332,0.334778 0.26378,0.463021 0.0378,0.463021 -0.17193,0 -0.23901,0.119062 -0.14908,0.264583 0.2502,0.404833 0.62198,0.314584 0.556,-0.13497 z m 1.68455,-0.889614 c 0.007,-0.29284 -0.0684,-0.299372 -0.38846,-0.03375 -0.21829,0.181157 -0.39688,0.57568 -0.39688,0.876716 0,0.538073 0.007,0.538645 0.38846,0.03375 0.21365,-0.282475 0.39225,-0.676998 0.39688,-0.876716 z m -11.86409,0.561563 c 0.32911,-0.419643 0.31975,-0.429002 -0.0999,-0.09989 -0.25466,0.199719 -0.46302,0.408078 -0.46302,0.463021 0,0.217761 0.21728,0.0776 0.56292,-0.363127 z m 0.89229,-0.06615 c -0.0899,-0.145521 -0.0445,-0.264584 0.10099,-0.264584 0.1484,0 0.0979,-0.319393 -0.11505,-0.727604 -0.20875,-0.400182 -0.38029,-1.121584 -0.38118,-1.603115 -9e-4,-0.481531 -0.1005,-0.814405 -0.22135,-0.73972 -0.51055,0.315542 0.0747,3.599606 0.64152,3.599606 0.0762,0 0.065,-0.119063 -0.0249,-0.264583 z m 16.9844,-0.722569 c -0.0671,-0.257431 -0.12638,-0.110869 -0.13178,0.325694 -0.005,0.436562 0.0495,0.647187 0.12197,0.468056 0.0725,-0.179132 0.0769,-0.536319 0.01,-0.79375 z m 1.58489,0.408376 c -0.0845,-0.211067 -0.14716,-0.148372 -0.15986,0.159852 -0.0115,0.278915 0.051,0.435185 0.13897,0.347266 0.0879,-0.08792 0.0973,-0.316122 0.0209,-0.507118 z m -11.90461,-0.942578 c -0.0666,-0.254662 -0.121,-0.0463 -0.121,0.463021 0,0.509323 0.0545,0.717682 0.121,0.46302 0.0666,-0.254661 0.0666,-0.67138 0,-0.926041 z m 9.79984,0 c -0.10548,-0.440972 -0.12035,-0.440972 -0.31229,0 -0.11085,0.254661 -0.11085,0.67138 0,0.926041 0.19194,0.440973 0.20681,0.440973 0.31229,0 0.0609,-0.254661 0.0609,-0.67138 0,-0.926041 z m 3.69488,0.269619 c -0.0671,-0.257431 -0.12638,-0.110869 -0.13178,0.325693 -0.005,0.436563 0.0495,0.647188 0.12197,0.468057 0.0725,-0.179132 0.0769,-0.536319 0.01,-0.79375 z m -2.43231,0.457985 c 0.0899,-0.145521 0.10399,-0.264583 0.0312,-0.264583 -0.0728,0 -0.20588,0.119062 -0.29582,0.264583 -0.0899,0.145521 -0.10399,0.264583 -0.0312,0.264583 0.0728,0 0.20588,-0.119062 0.29582,-0.264583 z m 6.12951,-0.176389 c -0.097,-0.09701 -0.17639,-0.01764 -0.17639,0.176389 0,0.194028 0.0794,0.273403 0.17639,0.176389 0.097,-0.09701 0.097,-0.255764 0,-0.352778 z m 2.12102,-0.137804 c -0.0845,-0.211067 -0.14716,-0.148372 -0.15985,0.159853 -0.0115,0.278915 0.051,0.435184 0.13896,0.347265 0.0879,-0.08792 0.0973,-0.316122 0.0209,-0.507118 z m -16.58491,-0.214974 c 0,-0.293981 -0.17639,-0.529166 -0.39687,-0.529166 -0.47842,0 -0.5115,0.308714 -0.0794,0.740833 0.42698,0.426981 0.47625,0.405083 0.47625,-0.211667 z m 5.09031,-0.388868 c 0.0687,-0.359398 0.023,-0.590496 -0.10145,-0.513552 -0.21922,0.135488 -0.32963,1.167004 -0.12491,1.167004 0.0558,0 0.15766,-0.294053 0.22636,-0.653452 z m 4.08627,0.07468 c -0.0845,-0.211067 -0.14716,-0.148372 -0.15986,0.159852 -0.0115,0.278915 0.051,0.435184 0.13897,0.347266 0.0879,-0.08792 0.0973,-0.316122 0.0209,-0.507118 z m -17.77554,0.04961 c 0.0899,-0.145521 0.10399,-0.264583 0.0312,-0.264583 -0.0728,0 -0.20587,0.119062 -0.29581,0.264583 -0.0899,0.145521 -0.10399,0.264583 -0.0312,0.264583 0.0728,0 0.20588,-0.119062 0.29581,-0.264583 z m 10.89202,-0.176389 c -0.097,-0.09701 -0.17639,-0.01764 -0.17639,0.176389 0,0.194028 0.0794,0.273403 0.17639,0.176389 0.097,-0.09701 0.097,-0.255764 0,-0.352778 z m 14.11111,-0.103809 c 0,-0.136933 -0.23813,-0.248969 -0.52917,-0.248969 -0.29104,0 -0.52917,0.12609 -0.52917,0.280199 0,0.154109 0.11907,0.206613 0.26459,0.116676 0.14552,-0.08994 0.26458,-0.03041 0.26458,0.132292 0,0.162697 0.11906,0.222229 0.26458,0.132292 0.14553,-0.08994 0.26459,-0.275558 0.26459,-0.41249 z m 2.02847,-0.425358 c -0.097,-0.09701 -0.17639,-0.01764 -0.17639,0.176389 0,0.194028 0.0794,0.273403 0.17639,0.176389 0.097,-0.09701 0.097,-0.255764 0,-0.352778 z m -17.18012,-0.39642 c 0.87398,-0.264727 2.71623,-2.151651 2.71623,-2.782107 0,-0.435114 -0.3236,-0.448983 -0.74083,-0.03175 -0.77007,0.770067 -0.21805,-0.298881 0.71032,-1.375487 l 1.02639,-1.190279 2.28018,-0.09364 c 1.25411,-0.0515 2.28019,0.01382 2.28019,0.145175 0,0.364652 -0.58931,0.873817 -1.01135,0.873817 -0.30454,0 -0.31351,-0.07573 -0.047,-0.396875 0.18985,-0.228757 0.21556,-0.396875 0.0607,-0.396875 -0.36179,0 -0.60927,0.699925 -0.42097,1.190625 0.0961,0.250307 -0.003,0.396875 -0.26871,0.396875 -0.23155,0 -0.80984,0.353697 -1.28508,0.785994 -1.05728,0.961751 -0.8869,1.035309 0.32576,0.140637 l 0.89576,-0.660868 0.31684,0.753562 c 0.2901,0.689924 1.08387,1.271113 1.35955,0.995436 0.0629,-0.0629 -0.13274,-0.192787 -0.43475,-0.288641 -0.38139,-0.121051 -0.5491,-0.397794 -0.5491,-0.906102 0,-0.94448 0.24951,-1.177072 0.77228,-0.719911 0.27152,0.237446 0.60406,0.290605 0.94751,0.151465 0.49948,-0.202352 0.4953,-0.215423 -0.0745,-0.232976 -0.94966,-0.02926 -1.05234,-0.799276 -0.20391,-1.529067 0.40496,-0.348333 0.68998,-0.679642 0.63338,-0.736243 -0.11562,-0.115624 -1.98013,-0.126076 -4.2452,-0.0238 -0.82992,0.03748 -1.66336,-0.04287 -1.85209,-0.178552 -0.23969,-0.172312 -0.18361,-0.199081 0.18602,-0.08879 0.46519,0.13881 0.47801,0.117837 0.10604,-0.173479 -0.53636,-0.42005 -0.53659,-0.777587 -7.5e-4,-1.169397 0.5602,-0.409623 1.0642,0.01842 0.92031,0.781601 -0.0997,0.528689 -0.0884,0.535311 0.11601,0.06815 0.21809,-0.498424 0.23645,-0.499489 0.49975,-0.029 0.15034,0.268638 0.40808,0.405159 0.57277,0.303379 0.56918,-0.351772 0.29583,-0.924452 -0.6571,-1.376645 -0.7813,-0.370749 -1.05211,-0.394201 -1.47833,-0.128022 -0.47414,0.296101 -0.50526,0.269957 -0.34067,-0.286118 0.0996,-0.336598 0.4851,-1.088246 0.85663,-1.670329 0.59971,-0.939602 0.61167,-1.001788 0.10656,-0.554306 -0.31291,0.277216 -0.56893,0.384966 -0.56893,0.239445 0,-0.637408 2.38055,-1.864702 2.94284,-1.517185 0.24832,0.153471 -0.36726,0.905998 -0.74113,0.906012 -0.11953,4e-6 -0.54983,0.416723 -0.95622,0.926041 -0.63139,0.791322 -0.66988,0.925798 -0.26458,0.924408 0.44794,-0.0015 2.67011,-1.909724 3.52213,-3.024474 0.34672,-0.453636 0.34613,-0.494574 -0.005,-0.356112 -0.21828,0.08605 -0.635,0.243418 -0.92604,0.349717 -0.52155,0.190487 -0.52176,0.187503 -0.0145,-0.207298 0.48375,-0.376471 0.44893,-0.401474 -0.57882,-0.415658 -1.34159,-0.01852 -3.10517,1.139589 -3.30181,2.168228 -0.0712,0.372603 -0.0276,0.614505 0.0969,0.53756 0.29433,-0.181907 0.28732,0.04891 -0.0189,0.622524 -0.1349,0.252687 -0.3215,0.697556 -0.41467,0.988598 -0.16056,0.501555 -0.18343,0.504168 -0.43833,0.05007 -0.14791,-0.2635 -0.19671,-0.667294 -0.10844,-0.897319 0.1278,-0.333038 0.0853,-0.355782 -0.20891,-0.111657 -0.20316,0.168615 -0.59284,0.231428 -0.86595,0.139586 -0.37622,-0.126519 -0.33159,-0.01542 0.18415,0.458456 1.31072,1.2043 1.43894,1.516216 0.73856,1.79665 -0.44377,0.177688 -0.49369,0.255331 -0.1718,0.267229 0.38235,0.01413 1.00149,0.735439 1.00149,1.166746 0,0.06954 -0.48477,0.208331 -1.07727,0.308433 -0.81649,0.137945 -1.34489,0.472891 -2.18281,1.383649 -0.60805,0.660905 -1.06684,1.379541 -1.01955,1.596968 0.0538,0.24741 -0.0523,0.342262 -0.28357,0.253508 -0.20326,-0.078 -0.51086,0.08443 -0.68355,0.360951 -0.17269,0.276521 -0.60071,0.502766 -0.95115,0.502766 -0.35044,0 -0.69032,0.148828 -0.75528,0.33073 -0.065,0.181901 -0.20394,0.251289 -0.30883,0.154195 -0.10489,-0.09709 0.61886,-0.811468 1.60832,-1.5875 1.7158,-1.345697 1.76504,-1.414911 1.06443,-1.496239 -1.04535,-0.121347 -2.38065,0.975246 -2.77001,2.27483 -0.46364,1.547481 -0.44151,1.582415 0.87574,1.382507 1.22787,-0.186344 1.93177,-0.663948 2.82458,-1.916506 0.40897,-0.573768 0.43069,-0.69247 0.10373,-0.567005 -0.65374,0.250866 -0.48587,-0.10472 0.44637,-0.945513 1.02369,-0.92327 1.991,-1.481383 2.20192,-1.270457 0.0837,0.08371 -0.0438,0.531198 -0.28333,0.994418 -0.23954,0.46322 -0.36874,1.01625 -0.28712,1.228954 0.0883,0.230061 0.0352,0.31679 -0.13095,0.214082 -0.15365,-0.09496 -0.34477,0.07745 -0.42471,0.383133 -0.0799,0.305683 -0.25052,0.555788 -0.37906,0.555788 -0.30073,0 -0.30015,-0.352246 10e-4,-0.674688 0.12916,-0.138244 0.31902,-0.529463 0.42191,-0.869375 0.16739,-0.553003 0.13196,-0.588531 -0.3367,-0.337708 -0.28808,0.154172 -0.59665,0.570684 -0.68573,0.925583 -0.0891,0.354899 -0.71539,1.132432 -1.39183,1.727852 l -1.22987,1.082582 0.89837,-0.157901 c 0.49411,-0.08685 1.28341,-0.274527 1.75402,-0.417071 z m -0.6162,-0.711608 c 0.55995,-0.630645 0.6866,-0.688269 0.6866,-0.312392 0,0.140401 -0.26789,0.395851 -0.59532,0.567666 -0.59212,0.310717 -0.59261,0.309349 -0.0913,-0.255274 z m 11.70804,-0.407075 c -1.18024,-1.214374 -2.13183,-1.748091 -3.11678,-1.748091 -0.58856,0 -0.43119,0.458133 0.25835,0.752109 0.76223,0.324966 3.22402,1.971973 3.11318,2.082808 -0.18548,0.185479 -1.86827,-0.617934 -2.24449,-1.071583 -0.23168,-0.279369 -0.57827,-0.38077 -0.96754,-0.28307 -0.3336,0.08373 -0.86854,0.01201 -1.18876,-0.159361 -0.44164,-0.23636 -0.65521,-0.237491 -0.88454,-0.0047 -0.64924,0.659083 1.40491,1.52156 4.32789,1.817156 0.94588,0.09566 1.75581,0.09563 1.79983,-6.4e-5 0.044,-0.09569 -0.44969,-0.719039 -1.09714,-1.385218 z m 2.47231,1.218521 c 0,-0.197769 -0.19849,-0.321083 -0.4411,-0.274033 -0.64303,0.12471 -0.7163,0.633612 -0.0912,0.633612 0.29278,0 0.53232,-0.161811 0.53232,-0.359579 z m -7.90953,-0.01999 c 0.17656,0.278677 0.22943,0.250397 0.23256,-0.124402 0.004,-0.523093 -0.58343,-0.484429 -0.68717,0.0452 -0.0428,0.218717 -0.0169,0.224977 0.0816,0.01967 0.10149,-0.211521 0.21248,-0.193805 0.37298,0.05953 z m 10.35692,0.05315 c -0.1819,-0.0734 -0.47955,-0.0734 -0.66145,0 -0.18191,0.0734 -0.0331,0.133453 0.33073,0.133453 0.3638,0 0.51263,-0.06005 0.33072,-0.133453 z m -11.87725,-0.629347 c 1.06655,-0.471784 1.75694,-1.146761 1.75694,-1.717706 0,-0.0967 -0.39665,0.05821 -0.88144,0.344242 -0.48479,0.286034 -1.34799,0.671923 -1.91823,0.857532 -0.57023,0.185608 -1.27164,0.499122 -1.55868,0.696697 -0.48341,0.332743 -0.45176,0.359228 0.42939,0.359228 0.5232,0 1.50061,-0.242997 2.17202,-0.539993 z m -13.94167,-0.165563 c -0.097,-0.09701 -0.17639,-0.01764 -0.17639,0.176389 0,0.194028 0.0794,0.273403 0.17639,0.176389 0.097,-0.09701 0.097,-0.255764 0,-0.352778 z m 24.80821,-0.382757 c -0.22546,-0.364791 -0.90752,-0.275976 -0.90752,0.118174 0,0.194028 0.0784,0.431119 0.1741,0.526871 0.23927,0.239271 0.91348,-0.353699 0.73342,-0.645045 z m -0.64293,0.294563 c 0,-0.194028 0.0794,-0.273403 0.17639,-0.176389 0.097,0.09701 0.097,0.255764 0,0.352778 -0.097,0.09701 -0.17639,0.01764 -0.17639,-0.176389 z m 2.60029,0.230841 c -0.43808,-0.277732 -1.46942,-0.298204 -1.63242,-0.0324 -0.0669,0.109141 0.35203,0.211196 0.93103,0.22679 0.66279,0.01785 0.92259,-0.05415 0.70139,-0.194386 z m -27.20654,-0.627716 c 0,-0.218282 -0.11907,-0.396875 -0.26459,-0.396875 -0.14552,0 -0.26458,0.178593 -0.26458,0.396875 0,0.218281 0.11906,0.396875 0.26458,0.396875 0.14552,0 0.26459,-0.178594 0.26459,-0.396875 z m 23.01875,0.280198 c 0,-0.279261 -0.50777,-0.396587 -0.65879,-0.152223 -0.0914,0.147895 0.0194,0.2689 0.2463,0.2689 0.22687,0 0.41249,-0.0525 0.41249,-0.116677 z m 0.70555,-0.05971 c -0.097,-0.09701 -0.25576,-0.09701 -0.35277,0 -0.097,0.09701 -0.0176,0.176389 0.17638,0.176389 0.19403,0 0.27341,-0.07937 0.17639,-0.176389 z m -8.71516,-2.120843 c 0.16745,-0.502341 -1.06373,-0.07898 -1.58907,0.546424 -1.13042,1.345761 -1.05416,1.585679 0.2144,0.674474 0.69979,-0.502664 1.3184,-1.052069 1.37467,-1.220898 z m 10.83183,1.591676 c -0.097,-0.09701 -0.17639,-0.01764 -0.17639,0.176389 0,0.194028 0.0794,0.273403 0.17639,0.176389 0.097,-0.09701 0.097,-0.255764 0,-0.352778 z m -26.30714,-0.617361 c 0.15938,0 0.2206,-0.06918 0.13605,-0.153728 -0.21397,-0.213971 -1.25738,0.376122 -1.25738,0.711102 0,0.150796 0.1871,0.08707 0.41577,-0.1416 0.22868,-0.228676 0.54618,-0.415774 0.70556,-0.415774 z m 1.45284,0.633897 c -0.0879,-0.08792 -0.31612,-0.09732 -0.50712,-0.02089 -0.21106,0.08446 -0.14837,0.147156 0.15986,0.159852 0.27891,0.01149 0.43518,-0.05105 0.34726,-0.138964 z m 20.88555,-0.281119 c -0.097,-0.09701 -0.17639,-0.01764 -0.17639,0.176389 0,0.194027 0.0794,0.273402 0.17639,0.176389 0.097,-0.09701 0.097,-0.255764 0,-0.352778 z m 2.46944,0.01579 c 0,-0.05719 -0.17859,-0.103984 -0.39687,-0.103984 -0.21828,0 -0.39688,0.115326 -0.39688,0.25628 0,0.140954 0.1786,0.187746 0.39688,0.103984 0.21828,-0.08376 0.39687,-0.199088 0.39687,-0.25628 z m 3.44666,-1.051438 c 0.35008,-1.060781 0.1995,-1.405446 -0.39755,-0.909935 -0.42668,0.35411 -0.57717,2.260675 -0.15799,2.001611 0.1349,-0.08338 0.3849,-0.57463 0.55554,-1.091676 z m -26.33311,0.682871 c 0.0899,-0.145521 0.10399,-0.264583 0.0312,-0.264583 -0.0728,0 -0.20588,0.119062 -0.29582,0.264583 -0.0899,0.145521 -0.10399,0.264583 -0.0312,0.264583 0.0728,0 0.20588,-0.119062 0.29582,-0.264583 z m 24.47396,-0.147907 c 0,-0.226869 -0.11907,-0.338905 -0.26459,-0.248968 -0.14552,0.08994 -0.26458,0.275557 -0.26458,0.41249 0,0.136933 0.11906,0.248968 0.26458,0.248968 0.14552,0 0.26459,-0.18562 0.26459,-0.41249 z m 0.69554,-0.207361 c -0.14498,-0.577625 0.52527,-2.981138 1.21056,-4.341086 0.31335,-0.621851 0.73973,-0.80075 0.73973,-0.310377 0,0.156715 0.35719,0.642124 0.79375,1.078686 0.96019,0.960191 1.05722,0.577599 0.13229,-0.52162 -0.67337,-0.80025 -0.84417,-1.842576 -0.43347,-2.645333 0.53444,-1.044647 0.55667,-1.830353 0.0677,-2.394097 -0.61689,-0.711277 -1.08303,-0.729841 -0.90156,-0.0359 0.0761,0.291042 0.24356,0.529167 0.37211,0.529167 0.12854,0 0.23372,0.180862 0.23372,0.401916 0,0.41036 -0.61329,0.359861 -2.04822,-0.168653 -0.32616,-0.12013 -0.77264,-0.149489 -0.99219,-0.06524 -0.25379,0.09739 -0.39917,-0.0017 -0.39917,-0.272005 0,-0.794585 -0.46947,-0.429463 -0.644,0.500859 -0.21787,1.161345 -0.89478,1.235796 -1.11736,0.122894 -0.21049,-1.052472 -0.84769,-1.375142 -2.12315,-1.075139 -0.55566,0.130697 -0.81466,0.249591 -0.57557,0.264209 0.23909,0.01462 0.50971,0.222012 0.60137,0.460876 0.13935,0.363133 0.10063,0.379502 -0.23628,0.0999 -0.32743,-0.271748 -0.40684,-0.266366 -0.42382,0.02872 -0.0165,0.286082 -0.0502,0.28998 -0.15901,0.01837 -0.11028,-0.275233 -0.19943,-0.268233 -0.44213,0.03472 -0.16721,0.208709 -0.83979,0.456227 -1.49464,0.550041 l -1.19062,0.17057 1.12596,-0.755026 c 0.61927,-0.415264 1.03962,-0.841358 0.9341,-0.946875 -0.10552,-0.105518 0.0324,-0.105793 0.30651,-6.09e-4 0.34448,0.132188 0.43987,0.09659 0.30892,-0.115277 -0.1221,-0.197576 -0.0492,-0.252705 0.20511,-0.155114 0.217,0.08327 0.60846,0.03169 0.8699,-0.114618 0.42218,-0.236263 0.39126,-0.287127 -0.27643,-0.454706 -0.74564,-0.187144 -2.5473,0.428289 -2.54865,0.870601 -3.4e-4,0.111496 -0.35592,0.618444 -0.79017,1.126553 -0.70076,0.819941 -0.73789,0.944307 -0.33011,1.105883 0.72793,0.288433 1.9678,0.239383 2.97298,-0.117614 1.37536,-0.488463 1.62694,-0.709598 1.44815,-1.272912 -0.13001,-0.409631 -0.0305,-0.506903 0.5184,-0.506903 0.37361,0 0.67929,0.109325 0.67929,0.242944 0,0.133619 0.0723,0.431275 0.1606,0.661459 0.12219,0.318421 -0.0202,0.424991 -0.59531,0.445597 -0.74074,0.02654 -0.73816,0.03128 0.12849,0.23618 1.26462,0.298988 1.71496,0.818664 0.54489,0.628789 -0.73179,-0.118753 -1.00756,-0.02776 -1.43237,0.472627 l -0.52609,0.619696 0.55,-0.463021 c 1.06869,-0.899681 1.84783,-0.462588 2.00445,1.124479 0.0757,0.767407 7.9e-4,0.934885 -0.43779,0.977661 -2.99529,0.292183 -3.67053,0.424962 -3.175,0.624329 0.749,0.301344 2.6203,0.297002 3.42236,-0.0079 0.81156,-0.308553 0.88102,-0.03281 0.14952,0.593519 -0.49366,0.422682 -0.71339,0.987431 -0.38418,0.987431 0.0797,0 0.40716,-0.288794 0.7276,-0.641765 0.65201,-0.718198 2.30241,-1.196498 2.30241,-0.667258 0,0.493377 -1.02118,2.0319 -1.46056,2.200508 -0.21534,0.08263 -0.39152,0.270093 -0.39152,0.416579 0,0.176571 0.22874,0.17937 0.67868,0.0083 0.89457,-0.340117 0.90882,-0.336558 0.90882,0.227033 0,0.459134 0.21229,0.837847 0.46965,0.837847 0.0643,0 0.0469,-0.278933 -0.0387,-0.619851 z m -1.66568,-3.525288 c 0.097,-0.09701 0.25576,-0.09701 0.35277,0 0.097,0.09701 0.0176,0.176389 -0.17639,0.176389 -0.19402,0 -0.2734,-0.07937 -0.17638,-0.176389 z m -0.25399,-1.006125 c -0.1959,-0.510507 0.0774,-2.391236 0.44811,-3.083956 0.36329,-0.678815 1.52346,-0.631772 2.29501,0.09306 0.4834,0.454137 0.5869,0.484443 0.45176,0.132292 -0.10097,-0.26314 -0.0511,-0.456796 0.1176,-0.456796 0.70633,0 -0.24671,2.510634 -1.08826,2.866869 -0.1153,0.04881 -0.1468,0.190431 -0.07,0.314716 0.0768,0.124285 -0.0713,0.212769 -0.32908,0.196631 -0.25781,-0.01614 -0.73722,0.05881 -1.06536,0.166547 -0.4311,0.141547 -0.64188,0.07792 -0.7598,-0.229361 z m 0.69496,-0.257079 c 0,-0.06417 -0.13746,-0.201631 -0.30547,-0.305464 -0.18925,-0.116967 -0.23364,-0.07258 -0.11667,0.116677 0.1885,0.304999 0.42214,0.409486 0.42214,0.188787 z m 0.62485,-0.544782 c -0.0838,-0.218281 -0.25489,-0.396875 -0.38027,-0.396875 -0.12539,0 -0.15944,0.178594 -0.0757,0.396875 0.0838,0.218282 0.25488,0.396875 0.38027,0.396875 0.12538,0 0.15944,-0.178593 0.0757,-0.396875 z m 0.88075,-0.541766 c 0.22522,-0.22521 0.34144,-0.477509 0.25829,-0.560664 -0.15239,-0.152385 -0.97014,0.537927 -0.97014,0.818948 0,0.267691 0.29173,0.161843 0.71185,-0.258284 z m -0.87805,-0.803838 c 0.16417,0.03754 0.20422,0.01666 0.089,-0.04641 -0.11521,-0.06306 -0.0709,-0.281673 0.0985,-0.485803 0.43266,-0.521324 -0.1362,-0.483085 -0.66391,0.04463 -0.22868,0.228675 -0.41578,0.550144 -0.41578,0.714375 0,0.22069 0.0774,0.221153 0.29683,0.0018 0.16325,-0.163254 0.43114,-0.266111 0.59531,-0.228573 z m 1.48912,-0.226281 c 0,-0.06417 -0.13746,-0.201631 -0.30547,-0.305464 -0.18926,-0.116966 -0.23364,-0.07258 -0.11667,0.116677 0.18849,0.304999 0.42214,0.409487 0.42214,0.188787 z m 1.35342,3.441531 c -0.249,-0.505031 -0.52209,0.831011 -0.5102,2.495979 l 0.0123,1.719792 0.30985,-1.984375 c 0.17042,-1.091406 0.25504,-2.095535 0.18806,-2.231396 z m -5.18722,3.549997 c 0.0914,-0.147895 0.30679,-0.199023 0.47864,-0.113619 0.17184,0.0854 -0.20097,-0.322351 -0.82848,-0.906123 -1.30983,-1.21854 -3.33681,-2.112118 -3.93507,-1.734746 -0.6178,0.389697 -0.33447,0.752185 0.82568,1.056356 0.59143,0.155061 1.6111,0.542246 2.26594,0.860411 0.98572,0.478928 1.05402,0.554195 0.39688,0.437349 -2.32542,-0.413475 -3.11694,-0.458628 -2.93704,-0.167547 0.39823,0.644339 3.40367,1.101516 3.73345,0.567919 z m -24.22587,-8.501471 c 0.18019,-0.67636 0.28219,-1.450267 0.22667,-1.719792 -0.18283,-0.887442 -0.9875,3.963054 -1.01603,6.124537 -0.0505,3.82892 0.0934,4.033514 0.27922,0.396875 0.10038,-1.964531 0.32995,-4.125261 0.51014,-4.80162 z m 0.33852,7.555417 c -0.0924,-0.48328 -0.19428,-0.583562 -0.34505,-0.339603 -0.11818,0.191226 -0.0878,0.498195 0.0679,0.685787 0.39379,0.474485 0.42628,0.4339 0.27716,-0.346184 z m 2.03953,0.04485 c 0.23614,-0.284533 0.24098,-0.769874 0.0198,-1.989344 -0.16087,-0.887146 -0.22537,-1.721592 -0.14334,-1.854324 0.082,-0.132733 0.0126,-0.325704 -0.15422,-0.428825 -0.32432,-0.200443 -0.20332,2.293304 0.17422,3.590512 0.13235,0.454761 0.10661,0.578779 -0.0824,0.396875 -0.15119,-0.145521 -0.33328,-0.502709 -0.40464,-0.79375 -0.0714,-0.291042 -0.11268,-0.08292 -0.0918,0.46249 0.0409,1.068665 0.19295,1.206048 0.68235,0.616366 z m 28.07072,-0.432066 c 0.16007,-0.299109 0.23319,-0.686062 0.16248,-0.859896 -0.0726,-0.178537 -0.13765,-0.122815 -0.14945,0.128061 -0.0115,0.244267 -0.20798,0.63122 -0.43666,0.859896 -0.22867,0.228675 -0.2924,0.415774 -0.1416,0.415774 0.1508,0 0.40515,-0.244726 0.56523,-0.543835 z m -19.93373,-1.184501 c 0.33621,-0.220291 0.61129,-0.535301 0.61129,-0.700021 0,-0.172338 -0.2057,-0.113337 -0.48449,0.138968 -0.26647,0.241153 -0.55126,0.371694 -0.63286,0.290091 -0.0816,-0.0816 -0.59624,0.03876 -1.14363,0.267479 -0.5474,0.228717 -1.04468,0.366438 -1.10507,0.306048 -0.14782,-0.147821 2.31178,-2.013813 2.65445,-2.013813 0.14884,0 0.20412,-0.06651 0.12284,-0.147791 -0.19863,-0.198623 -2.05191,0.590276 -2.6427,1.124931 -0.25999,0.235285 -0.47271,0.754873 -0.47271,1.15464 v 0.726849 l 1.2408,-0.373425 c 0.68244,-0.205384 1.51588,-0.553664 1.85208,-0.773956 z m 4.05087,0.802294 c 0.18374,-0.221387 0.21239,-0.396875 0.0648,-0.396875 -0.14552,0 -0.41281,0.178594 -0.59396,0.396875 -0.18374,0.221387 -0.21239,0.396875 -0.0648,0.396875 0.14552,0 0.41281,-0.178594 0.59396,-0.396875 z m 1.23702,0.222782 c -0.0958,-0.09575 -0.0415,-0.333877 0.12059,-0.529167 0.21676,-0.261175 0.21615,-0.355073 -0.002,-0.355073 -0.16334,0 -0.29698,0.04979 -0.29698,0.110652 0,0.06086 -0.0723,0.298983 -0.1606,0.529167 -0.0946,0.24663 -0.0222,0.418514 0.17639,0.418514 0.18534,0 0.25864,-0.07834 0.16289,-0.174093 z m 0.87965,-0.09049 c 0,-0.145521 -0.11906,-0.264584 -0.26458,-0.264584 -0.14552,0 -0.26459,0.119063 -0.26459,0.264584 0,0.14552 0.11907,0.264583 0.26459,0.264583 0.14552,0 0.26458,-0.119063 0.26458,-0.264583 z m 8.77656,-0.173299 c 0.26612,-0.240835 0.48386,-0.542681 0.48386,-0.670767 0,-0.353218 -0.97406,0.242816 -1.1512,0.704424 -0.20218,0.526893 0.0627,0.513533 0.66734,-0.03366 z m 4.71314,-0.702212 c -0.003,-0.471285 -0.052,-0.505476 -0.26053,-0.182823 -0.33687,0.52126 -0.33687,1.134235 0,0.926042 0.14552,-0.08994 0.26276,-0.424385 0.26053,-0.743219 z m -29.62928,-0.05053 c 0,-0.218281 -0.11907,-0.396875 -0.26459,-0.396875 -0.14552,0 -0.26458,0.178594 -0.26458,0.396875 0,0.218281 0.11906,0.396875 0.26458,0.396875 0.14552,0 0.26459,-0.178594 0.26459,-0.396875 z m 0.79498,-2.889539 c -0.14231,-0.642149 -0.12227,-1.573429 0.0526,-2.444078 0.26851,-1.337 0.23964,-1.490159 -0.58319,-3.094433 -0.6965,-1.357981 -0.83141,-1.870478 -0.69032,-2.622551 0.14417,-0.76847 0.26924,-0.910191 0.70311,-0.796732 0.34769,0.09092 0.44691,0.239817 0.29082,0.436421 -0.32338,0.407312 -0.52897,2.018204 -0.25758,2.018204 0.12032,0 0.21876,-0.279203 0.21876,-0.620451 0,-0.907485 0.75952,-1.462042 1.78594,-1.303986 0.47294,0.07283 0.8599,0.191009 0.8599,0.262627 0,0.07162 -0.29766,0.483957 -0.66146,0.916311 -0.64455,0.766006 -0.94671,2.275939 -0.38611,1.929472 0.15144,-0.0936 0.20828,-0.381469 0.12631,-0.639719 -0.15577,-0.4908 0.50685,-1.265311 0.74829,-0.874647 0.0763,0.123458 0.1661,1.34963 0.19954,2.724827 0.0452,1.856621 -0.0501,2.738774 -0.36998,3.426399 l -0.4308,0.926042 0.10491,-1.058334 c 0.0577,-0.582083 0.1819,-1.891771 0.27598,-2.910416 l 0.17105,-1.852084 -0.54165,0.529167 c -0.61172,0.597633 -0.75307,2.409314 -0.37872,4.854124 l 0.2166,1.414541 0.59531,-0.808515 c 0.32742,-0.444683 0.59531,-0.904396 0.59531,-1.021584 0,-0.117188 0.23918,-0.659318 0.5315,-1.204734 0.5717,-1.06667 0.8284,-3.291959 0.39454,-3.420206 -0.14552,-0.04302 -0.30263,0.189681 -0.34913,0.517103 -0.0465,0.327422 -0.19305,0.595313 -0.32567,0.595313 -0.1337,0 -0.16812,-0.532565 -0.0773,-1.195466 0.12469,-0.909704 0.0595,-1.310838 -0.27294,-1.678122 -0.41272,-0.456045 -0.38191,-0.507054 0.55868,-0.925186 0.73933,-0.32866 1.55545,-0.419405 3.17163,-0.352658 1.19687,0.04943 2.31405,0.0046 2.48262,-0.09955 0.56031,-0.34629 -1.15953,-0.514393 -4.12959,-0.403643 -2.20202,0.08211 -3.11436,0.013 -3.7483,-0.283958 -0.46083,-0.215867 -1.15542,-0.353855 -1.54354,-0.30664 -1.03435,0.125832 -1.81738,2.403098 -1.53061,4.45147 l 0.20372,1.455208 0.13437,-1.572412 0.13436,-1.572412 0.7276,1.103718 c 0.58003,0.879863 0.7276,1.410271 0.7276,2.61517 0,1.385778 -0.0323,1.468747 -0.38846,0.99786 -0.45554,-0.602285 -0.53118,-0.317169 -0.11979,0.45153 0.22777,0.425586 0.18764,0.612276 -0.19844,0.923243 -0.44884,0.361526 -0.44077,0.36887 0.11138,0.101298 0.58607,-0.28401 0.59573,-0.260622 0.6224,1.506758 0.0234,1.554304 0.0567,1.670962 0.24786,0.869205 0.12143,-0.509323 0.11732,-1.392897 -0.009,-1.963497 z m 9.50054,1.487668 c 0.24469,-0.20009 0.061,-0.169633 -0.43979,0.07294 -0.47295,0.229062 -0.8599,0.479978 -0.8599,0.557589 0,0.07761 0.11906,0.06753 0.26458,-0.02241 0.14552,-0.08994 0.27399,-0.0077 0.28548,0.182823 0.0144,0.238419 0.069,0.222673 0.17521,-0.05053 0.0849,-0.218281 0.34337,-0.551467 0.57442,-0.740412 z m 17.84599,0.608121 c 0.0838,-0.218281 0.037,-0.396875 -0.10398,-0.396875 -0.14095,0 -0.25628,0.178594 -0.25628,0.396875 0,0.218281 0.0468,0.396875 0.10398,0.396875 0.0572,0 0.17252,-0.178594 0.25628,-0.396875 z m -24.97056,-0.727604 c 0.002,-0.109141 -0.11502,-0.198438 -0.26054,-0.198438 -0.14552,0 -0.26276,0.267891 -0.26053,0.595313 0.003,0.481393 0.0531,0.519366 0.26053,0.198437 0.14107,-0.218281 0.25831,-0.486172 0.26054,-0.595312 z m 8.7353,0.440972 c 0,-0.230408 -0.14139,-0.371795 -0.3142,-0.314193 -0.49059,0.163533 -0.57196,0.733117 -0.10473,0.733117 0.23041,0 0.41893,-0.188516 0.41893,-0.418924 z m -11.90625,-0.507118 c 0,-0.218281 -0.11907,-0.396875 -0.26459,-0.396875 -0.14552,0 -0.26458,0.178594 -0.26458,0.396875 0,0.218281 0.11906,0.396875 0.26458,0.396875 0.14552,0 0.26459,-0.178594 0.26459,-0.396875 z m 20.9593,-0.143739 c 1.17027,-0.325016 1.79486,-0.887784 1.79486,-1.617184 0,-0.490021 -0.0791,-0.470461 -0.99218,0.245198 -2.19814,1.722954 -3.1566,1.7995 -1.34237,0.107208 1.14877,-1.071568 1.24604,-1.56364 0.24637,-1.246356 -0.4452,0.141301 -2.14515,2.255699 -2.14515,2.668137 0,0.214285 1.43405,0.121952 2.43847,-0.157003 z m -2.6888,-0.754861 c 0.40917,-0.163417 0.48769,-0.264651 0.2135,-0.275254 -0.23854,-0.0092 -0.66087,0.191588 -0.93851,0.44625 -0.27765,0.254661 -0.37372,0.378525 -0.2135,0.275254 0.16022,-0.103272 0.58255,-0.304085 0.93851,-0.44625 z m -8.08404,0.04305 c 1.16868,-0.156755 1.79746,-0.524503 1.55834,-0.911406 -0.2405,-0.389148 -1.76315,-0.144467 -2.33584,0.375356 -0.2821,0.256059 -0.66905,0.465561 -0.85989,0.465561 -0.19085,0 -0.34699,0.131801 -0.34699,0.292891 0,0.173667 0.18848,0.216905 0.46302,0.106221 0.25466,-0.102668 0.93927,-0.250548 1.52136,-0.328623 z m 12.96458,0.194095 c 0.0899,-0.145521 0.10399,-0.264584 0.0312,-0.264584 -0.0728,0 -0.20588,0.119063 -0.29581,0.264584 -0.0899,0.14552 -0.10399,0.264583 -0.0312,0.264583 0.0728,0 0.20587,-0.119063 0.29581,-0.264583 z m -22.97465,-0.440973 c -0.097,-0.09701 -0.17639,-0.01764 -0.17639,0.176389 0,0.194028 0.0794,0.273403 0.17639,0.176389 0.097,-0.09701 0.097,-0.255764 0,-0.352778 z m 11.2676,-1.958184 c 0.78341,-0.01633 0.80934,-0.04202 0.29425,-0.291438 -0.79455,-0.384741 -2.38046,0.411553 -2.92668,1.469502 l -0.42554,0.824218 1.09942,-0.992188 c 0.77456,-0.699013 1.35327,-0.997478 1.95855,-1.010094 z m 5.58502,1.473115 c -0.0838,-0.218281 -0.19909,-0.396875 -0.25628,-0.396875 -0.0572,0 -0.10398,0.178594 -0.10398,0.396875 0,0.218281 0.11532,0.396875 0.25628,0.396875 0.14095,0 0.18774,-0.178594 0.10398,-0.396875 z m -15.46011,-0.330729 c -0.0102,-0.109141 -0.12092,-0.436563 -0.24599,-0.727604 -0.20149,-0.468908 -0.2295,-0.446311 -0.24598,0.198437 -0.0102,0.400182 0.10046,0.727604 0.24598,0.727604 0.14552,0 0.25622,-0.0893 0.24599,-0.198437 z m 2.92901,-0.330729 c 0.15576,-0.291042 0.22367,-0.529167 0.15091,-0.529167 -0.0728,0 -0.25973,0.238125 -0.41549,0.529167 -0.15576,0.291041 -0.22367,0.529166 -0.15091,0.529166 0.0728,0 0.25973,-0.238125 0.41549,-0.529166 z m 11.77396,0.264583 c 0.22228,-0.359655 1.12282,-0.335709 1.24577,0.03312 0.0669,0.200864 0.39689,0.22774 1.01423,0.08262 l 0.915,-0.215089 -0.79375,-0.183607 c -1.41263,-0.326764 -2.69936,-0.263052 -3.04271,0.150659 -0.26889,0.323996 -0.25341,0.396875 0.0843,0.396875 0.22752,0 0.48725,-0.119062 0.57718,-0.264583 z m -5.82083,-0.264583 c 0.0899,-0.145521 0.10399,-0.264584 0.0312,-0.264584 -0.0728,0 -0.20588,0.119063 -0.29581,0.264584 -0.0899,0.145521 -0.10399,0.264583 -0.0312,0.264583 0.0728,0 0.20587,-0.119062 0.29581,-0.264583 z m 2.56109,-2.704117 c -0.39034,-0.390344 -1.10995,-0.05011 -1.08499,0.513 0.0115,0.259229 0.0787,0.329186 0.14938,0.155459 0.21832,-0.536654 0.83619,-0.0829 0.7236,0.531391 -0.0677,0.369049 0.002,0.306635 0.19129,-0.17253 0.20678,-0.522186 0.21308,-0.834956 0.0207,-1.02732 z m -5.88752,-0.223869 c 2.59269,-1.981478 2.85093,-2.274312 2.49843,-2.833132 -0.34753,-0.55096 -0.89179,-0.729653 -0.89179,-0.292798 0,0.1871 -0.38696,0.750684 -0.8599,1.252408 -0.47294,0.501724 -0.6813,0.816829 -0.46302,0.700232 0.21828,-0.116596 -0.0794,0.210817 -0.66146,0.727586 -0.58208,0.516769 -1.11441,0.885468 -1.18296,0.819332 -0.0685,-0.06614 -0.003,-0.203071 0.14626,-0.304299 0.14899,-0.101229 0.55026,-0.643575 0.89172,-1.205214 0.34146,-0.56164 0.90072,-1.323167 1.2428,-1.692282 0.72271,-0.779818 0.78764,-1.123014 0.21247,-1.123014 -0.49137,0 -1.60252,1.150579 -2.17189,2.248958 -0.42853,0.826692 -1.15446,3.307292 -0.96785,3.307292 0.0589,0 1.0521,-0.722281 2.20719,-1.605069 z m 4.25247,0.78046 c 0,-0.356875 -0.42715,-0.278574 -0.77647,0.142335 -0.25609,0.30857 -0.21443,0.350515 0.23218,0.233724 0.29936,-0.07828 0.54429,-0.24751 0.54429,-0.376059 z m 13.05701,-0.639073 c -0.20987,-0.546923 -0.35701,-0.482473 -0.35701,0.15638 0,0.29963 0.11387,0.474411 0.25303,0.388402 0.13917,-0.08601 0.18596,-0.331161 0.10398,-0.544782 z m 2.79245,-0.895533 c -0.37595,-0.508491 -0.57728,-1.137277 -0.55489,-1.732963 0.0271,-0.720073 -0.0694,-0.935736 -0.41981,-0.938518 -0.25023,-0.002 -0.74621,-0.08151 -1.10219,-0.176725 l -0.64722,-0.173112 0.67205,0.724775 c 0.36963,0.398627 1.0776,1.352484 1.57326,2.119684 0.49567,0.767199 0.93893,1.30041 0.98502,1.184911 0.0461,-0.115497 -0.18171,-0.569121 -0.50622,-1.008052 z m -13.33592,0.507132 c 0.0899,-0.145521 0.0374,-0.264584 -0.11667,-0.264584 -0.15411,0 -0.2802,0.119063 -0.2802,0.264584 0,0.14552 0.0525,0.264583 0.11667,0.264583 0.0642,0 0.19027,-0.119063 0.2802,-0.264583 z m 16.0073,-0.858544 c 0,-0.147592 -0.17549,-0.118942 -0.39688,0.06479 -0.21828,0.181157 -0.39687,0.448439 -0.39687,0.59396 0,0.147592 0.17548,0.118942 0.39687,-0.06479 0.21828,-0.181157 0.39688,-0.448439 0.39688,-0.59396 z m -28.69069,-0.624681 c -0.11143,-0.44398 -0.0199,-0.923193 0.25704,-1.345873 0.43038,-0.656839 0.38076,-1.065466 -0.0938,-0.772194 -0.3396,0.209886 -0.62824,1.836377 -0.42149,2.375148 0.26334,0.686244 0.44866,0.50173 0.25821,-0.257081 z m 4.34497,-0.170421 c 0.002,-0.109141 -0.1634,-0.198438 -0.36806,-0.198438 -0.24687,0 -0.32356,0.185619 -0.22787,0.551534 0.10965,0.419327 0.19788,0.466893 0.36805,0.198437 0.1231,-0.194203 0.22565,-0.442393 0.22788,-0.551533 z m 23.45628,0.463021 c 0.0838,-0.218282 0.30542,-0.396875 0.49256,-0.396875 0.80882,0 0.8954,-2.030365 0.12198,-2.860527 -0.60359,-0.64788 -0.58155,-0.639921 -1.15867,-0.418457 -0.23019,0.08833 -0.41852,0.378959 -0.41852,0.645843 0,0.568172 0.5826,1.017631 0.73325,0.565681 0.17816,-0.534481 0.85694,0.375825 0.79933,1.071969 -0.0288,0.347815 -0.32651,0.839198 -0.66161,1.091962 -0.59275,0.447118 -0.61622,0.441283 -0.86586,-0.215325 -0.30293,-0.79676 -0.79886,-0.895391 -0.79886,-0.158877 0,0.881109 1.46172,1.442532 1.7564,0.674606 z m -17.56525,-1.11921 c 0.79415,-0.228343 0.50717,-0.600582 -0.46302,-0.600582 -0.76533,0 -0.92605,0.09675 -0.92605,0.557474 0,0.427155 0.10824,0.512914 0.46303,0.366857 0.25466,-0.104839 0.67138,-0.250526 0.92604,-0.323749 z m 17.16099,-0.677193 c -0.42667,-0.426666 -0.53185,-0.140502 -0.22266,0.605778 0.23734,0.572881 0.28968,0.595691 0.39084,0.170333 0.0642,-0.270119 -0.0114,-0.619369 -0.16818,-0.776111 z m -22.66125,0.249041 c 0.59514,-0.435172 0.32358,-0.977424 -0.46848,-0.935488 -0.46945,0.02486 -0.48886,0.05424 -0.10204,0.154512 0.63977,0.16584 0.4313,0.683082 -0.36499,0.905603 -0.5567,0.155571 -0.56958,0.182861 -0.0971,0.205736 0.29961,0.0145 0.76429,-0.134158 1.03261,-0.330363 z m 21.75008,-0.08424 c -0.097,-0.09701 -0.25576,-0.09701 -0.35277,0 -0.097,0.09701 -0.0176,0.176389 0.17639,0.176389 0.19402,0 0.2734,-0.07937 0.17638,-0.176389 z m -22.47304,-0.248047 c -0.0879,-0.08792 -0.31613,-0.09732 -0.50712,-0.02089 -0.21107,0.08446 -0.14837,0.147156 0.15985,0.159852 0.27892,0.01149 0.43518,-0.05104 0.34727,-0.138964 z m 11.47643,-0.371608 c 0.37904,0.0027 1.4506,-0.242206 2.38125,-0.544151 1.77068,-0.574486 6.21302,-0.902775 6.47522,-0.47852 0.0786,0.127168 -0.96545,0.250534 -2.32011,0.274145 l -2.46301,0.04293 3.04271,0.177726 c 3.58432,0.209362 4.13471,0.09937 2.73816,-0.547183 -1.46679,-0.679074 -5.21692,-0.648731 -7.56887,0.06124 -1.95849,0.591202 -7.26529,0.845538 -7.39988,0.35465 -0.11033,-0.402434 3.57166,-0.705755 3.8203,-0.314715 0.15398,0.242176 0.20104,0.241395 0.20415,-0.0034 0.003,-0.197945 0.57872,-0.358024 1.52541,-0.423787 0.83674,-0.05813 -0.086,-0.08824 -2.05052,-0.06691 -2.55598,0.02774 -3.73575,0.144166 -4.14806,0.409342 l -0.57619,0.370572 0.57619,0.504462 c 0.50623,0.443217 0.84922,0.48469 2.82514,0.341608 1.23693,-0.08957 2.55908,-0.160677 2.93811,-0.158015 z m 3.21345,-0.172934 c -0.1819,-0.0734 -0.47955,-0.0734 -0.66145,0 -0.18191,0.0734 -0.0331,0.133452 0.33072,0.133452 0.36381,0 0.51263,-0.06005 0.33073,-0.133452 z m -9.94392,-0.265744 c -0.097,-0.09701 -0.25576,-0.09701 -0.35278,0 -0.097,0.09701 -0.0176,0.176389 0.17639,0.176389 0.19403,0 0.2734,-0.07937 0.17639,-0.176389 z m 3.46163,-0.270579 c -0.25466,-0.06655 -0.67138,-0.06655 -0.92604,0 -0.25466,0.06655 -0.0463,0.121001 0.46302,0.121001 0.50932,0 0.71768,-0.05445 0.46302,-0.121001 z m 14.35365,-0.450766 c 0,-0.05719 -0.1786,-0.172517 -0.39688,-0.25628 -0.21828,-0.08376 -0.39687,-0.03697 -0.39687,0.103985 0,0.140953 0.17859,0.256279 0.39687,0.256279 0.21828,0 0.39688,-0.04679 0.39688,-0.103984 z m -23.94524,-0.690481 c 0.0902,0.145914 0.30577,0.261512 0.47908,0.256884 0.17331,-0.0046 0.10122,-0.170628 -0.1602,-0.368889 -0.49379,-0.37448 -1.50906,-0.271618 -1.50906,0.152888 0,0.136802 0.22428,0.123 0.51311,-0.03158 0.34122,-0.182614 0.56804,-0.185733 0.67707,-0.0093 z"
       id="path22803" />
  </g>
</svg>
