<?xml version="1.0" encoding="UTF-8" standalone="no"?>
<!-- Created with Inkscape (http://www.inkscape.org/) -->

<svg
   width="60.330677mm"
   height="59.804867mm"
   viewBox="0 0 60.330678 59.804867"
   version="1.1"
   id="svg5"
   inkscape:version="1.1 (c4e8f9ed74, 2021-05-24)"
   sodipodi:docname="ornateo4.svg"
   xmlns:inkscape="http://www.inkscape.org/namespaces/inkscape"
   xmlns:sodipodi="http://sodipodi.sourceforge.net/DTD/sodipodi-0.dtd"
   xmlns="http://www.w3.org/2000/svg"
   xmlns:svg="http://www.w3.org/2000/svg">
  <sodipodi:namedview
     id="namedview7"
     pagecolor="#ffffff"
     bordercolor="#666666"
     borderopacity="1.0"
     inkscape:pageshadow="2"
     inkscape:pageopacity="0.0"
     inkscape:pagecheckerboard="0"
     inkscape:document-units="mm"
     showgrid="false"
     inkscape:zoom="1.3380612"
     inkscape:cx="-75.108674"
     inkscape:cy="224.57867"
     inkscape:window-width="2506"
     inkscape:window-height="1403"
     inkscape:window-x="1974"
     inkscape:window-y="0"
     inkscape:window-maximized="1"
     inkscape:current-layer="layer1" />
  <defs
     id="defs2" />
  <g
     inkscape:label="Layer 1"
     inkscape:groupmode="layer"
     id="layer1"
     transform="translate(-199.17585,-61.714846)">
    <path
       style="fill:#000000;stroke-width:0.44054"
       d="m 225.2474,121.0672 c -2.96555,-0.52938 -4.04464,-1.10793 -4.04464,-2.16846 0,-1.35269 -0.77697,-1.44672 -1.40361,-0.16987 -0.91455,1.86351 -1.78663,2.19362 -4.13547,1.5654 -1.48131,-0.39618 -2.21156,-0.41586 -2.62734,-0.0708 -0.84254,0.69925 -13.42061,0.81408 -13.42031,0.12254 1.2e-4,-0.28856 0.19847,-0.6472 0.44077,-0.79693 0.2423,-0.14969 0.44054,-0.63585 0.44054,-1.08023 0,-0.44436 0.29877,-0.92259 0.66393,-1.06272 0.50512,-0.19383 0.63684,-0.86373 0.55068,-2.80051 -0.0901,-2.02554 -0.31581,-2.70982 -1.10447,-3.34866 -1.12975,-0.91513 -1.31342,-2.0606 -0.33041,-2.0606 0.36344,0 0.6608,-0.17512 0.6608,-0.38916 0,-0.21403 0.3965,-0.49284 0.88109,-0.61956 1.2556,-0.32835 1.09871,-0.91163 -0.6608,-2.45652 -1.28321,-1.12666 -1.54191,-1.65169 -1.54191,-3.12941 0,-0.9766 0.18374,-1.77563 0.40828,-1.77563 0.75783,0 1.57508,-2.410425 1.44091,-4.249924 -0.1034,-1.416962 -0.33864,-1.880675 -1.04844,-2.066293 -0.62962,-0.164672 -0.82859,-0.464962 -0.63769,-0.962458 0.15268,-0.39771 0.27749,-2.193735 0.27749,-3.991142 V 86.28827 h 1.23351 c 0.67844,0 1.42184,-0.181456 1.65203,-0.403222 0.23018,-0.221789 0.91412,-0.504862 1.51986,-0.629057 0.60574,-0.124212 0.25882,-0.185302 -0.77094,-0.135867 -1.9549,0.09391 -2.3828,-0.264608 -1.14343,-0.958195 0.90808,-0.508186 0.47127,-1.933374 -0.4806,-1.568098 -1.41446,0.542769 -2.66282,-2.085141 -1.52908,-3.218881 0.34811,-0.348109 0.33823,-0.748784 -0.0356,-1.44745 -0.62302,-1.16416 -0.31211,-1.551464 1.24553,-1.551464 0.87213,0 1.13919,-0.197423 1.04288,-0.770946 -0.11089,-0.660091 0.26926,-0.781597 2.64325,-0.845006 l 2.7727,-0.07406 -2.64325,-0.292425 -2.64324,-0.292424 2.42298,-0.140229 2.42297,-0.14023 -1.98244,-0.308208 c -2.32107,-0.360857 -2.26515,-0.422608 0.64121,-0.707975 1.58253,-0.155381 2.58691,0.0032 3.65112,0.576241 1.28799,0.693629 1.5192,0.709665 1.88517,0.130755 0.60839,-0.962399 0.54425,-1.127444 -0.64954,-1.671375 -0.59409,-0.270685 -1.39216,-1.095481 -1.77348,-1.832877 -0.82168,-1.588967 -0.8738,-1.595101 -3.78893,-0.446062 -1.24837,0.492062 -2.69298,0.77644 -3.21022,0.631952 -0.68778,-0.192119 -0.77532,-0.148572 -0.32585,0.162074 0.50053,0.345933 0.45965,0.464467 -0.22027,0.638567 -0.75304,0.192828 -0.74448,0.218794 0.0874,0.264887 0.50724,0.02811 2.04255,-0.334339 3.41182,-0.805436 2.46581,-0.84836 2.49395,-0.84836 2.94798,0 0.25212,0.471097 0.66797,0.856539 0.9241,0.856539 0.25613,0 0.96973,0.396487 1.5858,0.881082 0.68481,0.538671 0.87446,0.881081 0.488,0.881081 -0.34766,0 -0.82044,-0.183231 -1.05062,-0.407181 -0.56441,-0.549124 -8.99602,-0.763273 -9.03257,-0.229412 -0.015,0.228979 0.406,0.518895 0.93707,0.644259 0.8771,0.207059 0.89966,0.282615 0.24625,0.824889 -0.47097,0.390872 -0.71927,0.426246 -0.71927,0.102466 0,-0.271965 -0.50731,-0.494482 -1.12735,-0.494482 -0.67093,0 -1.01229,-0.186173 -0.84316,-0.45984 0.15635,-0.252911 0.0268,-0.769971 -0.28778,-1.149023 -0.47645,-0.57409 -0.446,-0.7813 0.18235,-1.240757 0.47492,-0.347268 0.75431,-1.150613 0.75431,-2.168858 0,-1.044264 0.23847,-1.708797 0.67306,-1.875562 0.37017,-0.142044 0.87275,-0.631436 1.11684,-1.087525 0.34829,-0.650787 0.29266,-0.829253 -0.2585,-0.829253 -0.4098,0 -0.5742,0.207294 -0.39473,0.497693 0.18652,0.301776 0.0668,0.418257 -0.3044,0.2959 -0.3366,-0.110991 -0.67694,-0.644437 -0.75631,-1.185444 -0.0794,-0.541007 -0.42628,-1.091857 -0.77094,-1.224113 -0.34465,-0.132254 -0.62664,-0.529879 -0.62664,-0.883608 0,-0.542895 0.73818,-0.595514 4.73581,-0.337581 2.94357,0.189922 5.17866,0.561222 5.90597,0.981112 0.97579,0.563344 1.39115,0.584015 2.50063,0.124445 0.73177,-0.303108 1.7249,-0.425921 2.20698,-0.272919 0.48206,0.153 1.00398,0.07188 1.15981,-0.180275 0.15585,-0.252153 1.20339,-0.458461 2.32789,-0.458461 2.47709,0 2.00412,0.939465 -0.50884,1.010697 -0.87324,0.02476 -1.58769,0.199003 -1.58769,0.387222 0,0.188219 -0.59242,0.223734 -1.31648,0.07892 -1.52702,-0.305404 -3.52948,0.779835 -3.52948,1.912818 0,0.399356 -0.33385,1.095013 -0.7419,1.545902 -0.70508,0.779098 -0.6321,0.933925 1.46994,3.118474 5.17357,5.376624 9.40441,11.397227 9.40441,13.382749 0,0.593635 0.11855,0.647966 0.52555,0.240898 0.40707,-0.407052 0.75434,-0.310646 1.54016,0.427598 1.02291,0.960975 2.06826,0.795737 1.09884,-0.173697 -0.72666,-0.726639 -0.65108,-1.666718 0.13403,-1.666718 0.72538,0 2.86904,-3.120811 2.86904,-4.176843 0,-0.368506 -1.21401,-1.611472 -2.6978,-2.762121 -2.87252,-2.227597 -6.81072,-7.614883 -6.38245,-8.730928 0.1367,-0.356325 -0.0188,-0.630105 -0.35805,-0.630105 -0.32993,0 -0.71009,-0.287269 -0.84483,-0.638375 -0.16367,-0.426674 -0.0333,-0.557138 0.3934,-0.393408 0.36356,0.139513 0.63993,-0.01232 0.64196,-0.352841 0.003,-0.424743 0.73589,-0.619634 2.53312,-0.673191 2.36072,-0.07035 2.45602,-0.03538 1.42816,0.523987 -0.60574,0.329652 -1.5474,0.490766 -2.09256,0.358029 -0.56377,-0.137265 -0.99122,-0.03673 -0.99122,0.233134 0,0.265286 0.3399,0.350521 0.77095,0.193327 0.73423,-0.267756 0.73423,-0.239224 0,0.59919 -0.67784,0.774014 -1.07691,2.352853 -0.59473,2.352853 0.0969,0 0.87008,-0.693853 1.71811,-1.541894 1.18867,-1.188673 1.87998,-1.530187 3.0177,-1.49079 0.8117,0.02811 1.12889,0.141761 0.70487,0.252574 -1.16955,0.305633 -0.97501,1.54888 0.21578,1.378992 1.26637,-0.180675 1.56233,-1.65685 0.49293,-2.458668 -0.59958,-0.449561 -0.64189,-0.59084 -0.15801,-0.527598 0.36344,0.0475 1.35466,0.03815 2.20269,-0.0208 1.30131,-0.09044 1.16383,-0.162407 -0.88107,-0.46123 -1.33264,-0.194739 -2.47945,-0.19882 -2.54849,-0.009 -0.1802,0.495397 -2.39555,-0.0027 -3.08689,-0.69397 -0.48581,-0.485809 0.22028,-0.5669 4.17741,-0.479744 4.57457,0.100752 4.75822,0.142011 4.66555,1.048292 -0.0631,0.6176 0.20295,1.02171 0.77051,1.170131 1.01262,0.264804 1.67814,-0.511401 0.86785,-1.012189 -0.30437,-0.188117 -0.41678,-0.563107 -0.24979,-0.833311 0.20871,-0.337692 1.98233,-0.42333 5.67333,-0.273931 7.94717,0.32167 9.42658,0.569124 9.70213,1.622834 0.29571,1.130803 1.85069,0.761213 3.24579,-0.771465 0.87871,-0.965371 1.31784,-1.065749 4.66238,-1.065749 3.96094,0 4.58185,0.206457 3.72519,1.238662 -0.73441,0.884938 -0.6959,3.099808 0.0589,3.389477 0.44671,0.171414 0.53005,0.706285 0.31734,2.036539 -0.1743,1.089926 -0.0972,2.034493 0.19461,2.386162 0.35748,0.43075 0.29829,0.864142 -0.22771,1.666911 -0.65596,1.001123 -2.43172,1.910686 -2.4321,1.245744 -8e-5,-0.159045 -0.9913,-0.330965 -2.20269,-0.382053 -1.21142,-0.05108 -2.20255,0.09759 -2.20255,0.330405 0,0.430482 0.88315,0.594386 2.36099,0.438178 0.54989,-0.05813 0.70837,0.09259 0.48218,0.458577 -0.25244,0.408455 0.01,0.475621 1.0496,0.267853 1.29447,-0.258895 1.35048,-0.219585 0.84361,0.592044 -0.58031,0.929246 -1.21206,1.152744 -1.21206,0.42882 0,-0.24231 -0.58137,-0.440552 -1.29194,-0.440552 -0.92066,0 -1.37532,0.262741 -1.58211,0.914288 -0.35674,1.123982 0.0631,1.632385 0.76679,0.92864 0.64762,-0.647599 1.66672,-0.681083 1.66672,-0.05478 0,0.256598 -0.24781,0.323932 -0.55068,0.149686 -0.30287,-0.174296 -0.39626,-0.147189 -0.20751,0.06011 0.5595,0.614815 1.63928,0.612717 1.63928,-0.0033 0,-0.556338 2.11994,-1.216875 2.7184,-0.847004 0.16518,0.102067 0.11656,0.827207 -0.10839,1.611256 -0.26551,0.925727 -0.25412,1.477153 0.0325,1.572676 0.24269,0.08092 0.44128,0.824427 0.44128,1.652283 0,1.311832 -0.14152,1.505176 -1.10135,1.505176 -0.68528,0 -1.10136,0.249639 -1.10136,0.660819 0,0.363444 0.19826,0.660803 0.44056,0.660803 0.24229,0 0.42488,0.346927 0.40575,0.770945 -0.0208,0.460573 -0.12421,0.549252 -0.25698,0.220268 -0.12222,-0.30287 -0.59048,-0.550678 -1.04057,-0.550678 -0.45011,0 -0.94089,-0.198239 -1.09065,-0.440535 -0.14968,-0.242296 -0.4705,-0.440535 -0.7128,-0.440535 -0.24229,0 -0.32729,0.183237 -0.18888,0.407201 0.13836,0.223948 -0.0977,0.492868 -0.52469,0.597582 -0.43734,0.107228 0.0413,0.338751 1.09596,0.530181 1.02978,0.186906 1.8723,0.512721 1.8723,0.724047 0,0.211327 0.3965,0.384241 0.88109,0.384241 0.48459,0 0.88135,0.247807 0.88169,0.550677 4.1e-4,0.392133 -0.6971,0.50722 -2.42298,0.399759 -1.55098,-0.09657 -2.42358,0.02248 -2.42358,0.330409 0,0.264724 0.66908,0.481312 1.48683,0.481312 1.31281,0 1.51905,0.161176 1.76216,1.376686 0.61283,3.064133 0.4392,3.469269 -1.48683,3.469269 -0.96918,0 -1.76216,0.198239 -1.76216,0.440535 0,0.242297 0.99122,0.440536 2.20271,0.440536 h 2.2027 l 0.0566,-2.533103 0.0566,-2.533103 0.43404,2.533403 c 0.36058,2.104589 0.30683,2.80149 -0.31749,4.117168 -0.73591,1.550815 -0.7278,1.629488 0.39049,3.784944 1.68201,3.242015 1.52852,4.420395 -0.88084,6.762015 -1.11258,1.08129 -1.79841,1.96599 -1.52406,1.96599 0.27435,0 1.07924,0.42913 1.78865,0.95362 l 1.28985,0.95363 -1.08742,1.00778 c -1.42963,1.32494 -1.49537,4.59695 -0.14985,7.45943 0.51565,1.09701 0.81648,2.11563 0.66853,2.2636 -0.31531,0.31531 -11.97552,0.18808 -12.83049,-0.14003 -0.3196,-0.12271 -0.71197,-0.0117 -0.87193,0.24759 -0.35873,0.58045 -2.29575,0.62231 -2.64502,0.0571 -0.14053,-0.22736 0.49207,-0.48264 1.40575,-0.56728 l 1.66126,-0.15385 -1.2115,-0.52315 c -0.99352,-0.42905 -1.21148,-0.80253 -1.21148,-2.07597 0,-0.85403 -0.19824,-1.55279 -0.44053,-1.55279 -0.2423,0 -0.44055,0.60094 -0.44055,1.33544 0,0.75459 -0.27532,1.4411 -0.633,1.57835 -0.34814,0.13354 -0.52517,0.52387 -0.3934,0.86727 0.41804,1.0894 -0.47412,0.68262 -1.65584,-0.75499 -0.96136,-1.16954 -1.27254,-1.31057 -1.98245,-0.89846 -0.76556,0.44443 -0.732,0.49006 0.36942,0.50224 0.89025,0.01 1.21149,0.23452 1.21149,0.84734 0,0.45867 -0.34693,0.97538 -0.77095,1.14824 -1.25411,0.51127 -10.26841,0.64978 -12.80604,0.19678 z m 12.78528,-1.23416 c 0.47772,-0.49916 0.33662,-0.54761 -0.86032,-0.29541 -1.41858,0.29892 -1.43175,0.28617 -1.43175,-1.38534 v -1.68704 h -5.96441 c -5.69264,0 -5.9614,0.0401 -5.89853,0.88109 0.1094,1.46437 -0.01,1.98243 -0.45838,1.98243 -0.2347,0 -0.31261,-0.29736 -0.17315,-0.66081 0.29422,-0.7667 -0.52075,-0.90193 -0.97789,-0.16217 -0.36203,0.58576 0.81643,1.3656 2.67911,1.77283 2.48938,0.54427 12.46305,0.20472 13.08532,-0.4455 z m 18.77095,0.0465 c -0.12671,-0.66181 -0.76516,-0.78891 -4.51145,-0.89792 -3.19711,-0.0931 -4.45816,0.0248 -4.71649,0.44055 -0.2756,0.44359 0.63031,0.62083 4.14873,0.81169 2.47573,0.13421 4.66455,0.28298 4.86404,0.3304 0.19949,0.0474 0.29631,-0.26068 0.21517,-0.68472 z m -45.84237,-0.22026 c -0.19425,-0.58616 -7.80171,-1.04153 -9.09691,-0.54454 -1.52959,0.58696 0.71999,1.08189 4.9474,1.08847 3.27153,0.005 4.28732,-0.12804 4.14951,-0.54393 z m 6.9014,0.28327 c 0.88401,-0.33922 0.90843,-1.05422 0.036,-1.05422 -0.41116,0 -0.6608,-0.41606 -0.6608,-1.10135 0,-0.60574 -0.19826,-1.10136 -0.44056,-1.10136 -0.24229,0 -0.44053,0.41506 -0.44053,0.92233 0,0.5849 -0.3612,1.01679 -0.98727,1.18051 -0.94361,0.24676 -0.92899,0.28303 0.3304,0.81997 0.72472,0.30898 1.35102,0.57072 1.39178,0.58166 0.0408,0.0117 0.38769,-0.1004 0.77095,-0.24754 z m -4.19222,-1.00851 1.49878,-0.79846 -1.27852,-0.24537 c -1.36494,-0.26198 -2.37985,0.28062 -2.37985,1.27234 0,0.78061 0.33111,0.74558 2.15959,-0.22851 z m 30.88097,-0.0456 c 0,-0.24229 -0.30906,-0.44053 -0.68681,-0.44053 -0.37774,0 -0.56428,0.19824 -0.41452,0.44053 0.14968,0.2423 0.4588,0.44054 0.68681,0.44054 0.22799,0 0.41452,-0.19824 0.41452,-0.44054 z m -3.30404,-0.44053 c 0.14968,-0.2423 -0.0368,-0.44055 -0.41455,-0.44055 -0.37774,0 -0.68681,0.19825 -0.68681,0.44055 0,0.2423 0.18655,0.44053 0.41455,0.44053 0.22799,0 0.53705,-0.19823 0.68681,-0.44053 z m 5.50675,0.026 c 0,-0.22799 -0.19824,-0.53705 -0.44053,-0.68681 -0.2423,-0.14968 -0.44055,0.0368 -0.44055,0.41455 0,0.37774 0.19825,0.68681 0.44055,0.68681 0.24229,0 0.44053,-0.18655 0.44053,-0.41455 z m -27.31353,-0.91721 c 0,-0.19137 -0.39648,-0.24425 -0.88107,-0.11756 -0.4846,0.12671 -0.88109,0.38697 -0.88109,0.57834 0,0.19134 0.39649,0.24422 0.88109,0.11755 0.48459,-0.12671 0.88107,-0.38697 0.88107,-0.57832 z m 36.63974,-1.86258 c 0.20821,-3.72425 0.11022,-3.81015 -4.15241,-3.64157 l -3.63191,0.14369 -0.12937,2.86958 c -0.15118,3.35092 -0.22315,3.30005 4.6097,3.25747 l 3.15864,-0.0278 0.14536,-2.6013 z m -4.03972,1.87272 -2.86351,-0.22027 -0.2325,-2.31284 -0.23249,-2.31285 3.31628,-2.8e-4 3.31629,-3e-4 -0.0594,2.44605 c -0.0328,1.34534 -0.13187,2.48537 -0.22027,2.5334 -0.0884,0.0481 -1.44935,-0.0117 -3.02429,-0.13286 z m -0.88108,-1.48795 c 0,-0.0916 -0.29736,-0.41313 -0.66081,-0.71476 -0.5412,-0.44916 -0.66082,-0.41906 -0.66082,0.16633 0,0.39312 0.29738,0.71475 0.66082,0.71475 0.36345,0 0.66081,-0.0749 0.66081,-0.16633 z m 3.32218,-0.30352 c 0.47413,-0.76718 -0.0659,-0.92965 -0.6701,-0.20162 -0.34747,0.41869 -0.38089,0.67146 -0.0887,0.67146 0.25766,0 0.59916,-0.21142 0.75887,-0.46984 z m -1.59098,-2.06326 c 0.017,-0.30287 -0.2664,-0.55068 -0.62985,-0.55068 -0.73673,0 -0.77551,0.187 -0.36051,1.73857 0.26699,0.99817 0.31306,1.01444 0.62384,0.22026 0.18455,-0.4716 0.34949,-1.10528 0.36652,-1.40815 z m 1.6225,-0.42761 c -0.18807,-0.18807 -0.62311,0.0426 -0.96674,0.51249 -0.97047,1.3272 -0.7357,1.87385 0.34195,0.79619 0.53171,-0.5317 0.81287,-1.12062 0.62479,-1.30868 z m -3.3537,0.758 c 0,-0.48948 -0.2937,-0.88107 -0.66081,-0.88107 -0.79658,0 -0.85166,0.51402 -0.1322,1.23351 0.71095,0.71094 0.79297,0.67447 0.79297,-0.35244 z m -40.9703,0.88109 v -3.08378 h -3.74458 c -2.05954,0 -3.76916,0.14869 -3.79917,0.33041 -0.22136,1.34064 -0.33582,4.838 -0.17299,5.28649 0.13869,0.38188 1.35189,0.55066 3.95832,0.55066 h 3.75842 z m -6.60622,0 -0.002,-2.42298 2.6691,0.0623 c 1.468,0.0343 2.73917,0.13336 2.82485,0.22026 0.0856,0.0869 0.21543,1.14921 0.28837,2.36069 l 0.13254,2.20271 h -2.95504 -2.95503 l -0.002,-2.42298 z m 1.0385,0.22027 c -0.13953,-0.36345 -0.33149,-0.66081 -0.42671,-0.66081 -0.0952,0 -0.17313,0.29736 -0.17313,0.66081 0,0.36344 0.19201,0.66082 0.42671,0.66082 0.23469,0 0.3126,-0.29738 0.17313,-0.66082 z m 3.97972,0.3904 c -0.26765,-0.11039 -0.39323,-0.68956 -0.27904,-1.28684 0.25971,-1.3586 -0.23693,-1.42233 -0.73868,-0.0947 -0.45255,1.19746 -0.23367,1.66362 0.75943,1.61725 0.40971,-0.0191 0.52595,-0.12521 0.25829,-0.23564 z m -3.10652,-1.40085 c -0.13986,-0.53459 -0.42931,-0.97198 -0.64335,-0.97198 -0.51025,0 -0.49092,0.30832 0.0871,1.38831 0.59198,1.10615 0.89507,0.87931 0.55627,-0.41633 z m 1.61074,-0.15368 c 0,-0.49049 -0.21311,-0.82076 -0.47359,-0.73393 -0.26046,0.0868 -0.4587,0.30159 -0.44053,0.47725 0.0182,0.17566 0.033,0.62847 0.033,1.00621 0,0.37775 0.19826,0.56428 0.44056,0.41453 0.24229,-0.14969 0.44053,-0.67357 0.44053,-1.16406 z m 5.28649,2.33803 c 0,-0.42762 -0.22949,-1.00697 -0.50999,-1.28746 -0.38627,-0.38627 -0.37661,-0.67066 0.0398,-1.1724 1.1091,-1.33637 2.10702,-1.23304 3.72588,0.38582 1.78251,1.78251 2.0308,1.87502 2.0308,0.75659 0,-1.67096 -3.2856,-3.78429 -5.16731,-3.32367 -1.64915,0.40368 -1.86675,0.84628 -1.8746,3.81306 -0.007,2.41296 0.0401,2.52351 0.87433,2.07707 0.48461,-0.25935 0.88109,-0.8214 0.88109,-1.24901 z m 27.28431,0.9685 c 0.93605,-0.1872 1.28764,-0.60521 1.64956,-1.96113 0.25298,-0.94777 0.43793,-1.72231 0.41103,-1.72118 -0.027,0.001 -1.23839,0.48501 -2.69218,1.0753 -2.20728,0.89624 -2.66714,1.26852 -2.78809,2.25714 -0.13287,1.08642 -0.0471,1.15933 1.04261,0.88583 0.6531,-0.16384 1.72278,-0.4051 2.37707,-0.53596 z m 5.31572,0.34624 c 0,-0.88911 -1.00459,-3.14951 -1.39973,-3.14951 -0.39543,0 -0.11822,2.35398 0.37618,3.19392 0.26564,0.45134 1.02355,0.41847 1.02355,-0.0445 z m 2.64324,-1.38735 c 0,-0.96919 -0.18498,-1.76216 -0.41108,-1.76216 -0.40315,0 -0.53489,2.54416 -0.16534,3.19392 0.39943,0.70235 0.57645,0.26268 0.57645,-1.43176 z m -31.79981,-0.11006 c 0.0766,-0.66633 -0.0534,-1.2115 -0.28917,-1.2115 -0.23572,0 -0.33072,0.37412 -0.21116,0.83137 0.26459,1.01178 -0.69392,1.71885 -1.20627,0.88986 -0.20203,-0.3269 -0.49708,-0.46461 -0.65567,-0.30602 -0.52792,0.52792 0.31016,1.28033 1.27322,1.1431 0.66583,-0.0949 0.99131,-0.49739 1.08905,-1.34681 z m 7.57005,0.41884 c 0,-0.31636 -1.03522,-0.9613 -2.30051,-1.43318 -1.26528,-0.47189 -2.45475,-0.92405 -2.64324,-1.00482 -0.1885,-0.0807 -0.34107,0.51396 -0.33904,1.32162 l 0.003,1.46848 2.63955,0.11156 c 1.93492,0.0817 2.63953,-0.042 2.63953,-0.46365 z m 22.90814,0.13187 c 0,-0.2423 -0.19826,-0.44054 -0.44055,-0.44054 -0.2423,0 -0.44054,0.19824 -0.44054,0.44054 0,0.24231 0.19824,0.44055 0.44054,0.44055 0.24229,0 0.44055,-0.19824 0.44055,-0.44055 z m -9.48658,-1.75701 c 3.13616,-1.079 5.81504,-2.61171 7.25052,-4.14836 1.09128,-1.16819 2.31237,-1.63605 1.39963,-0.53627 -0.39646,0.47769 -0.30873,0.658 0.41178,0.84642 0.75188,0.19662 0.82264,0.12754 0.39588,-0.38672 -0.41676,-0.50218 -0.35634,-0.63628 0.30523,-0.67727 0.72702,-0.0451 0.73447,-0.0748 0.0626,-0.25089 -0.64426,-0.16887 -0.47852,-0.58383 1.07081,-2.68111 1.00818,-1.36471 2.37548,-3.58118 3.03843,-4.92546 2.29117,-4.645918 2.78211,-13.288255 1.01732,-17.90927 -0.65752,-1.721698 -0.67825,-2.075534 -0.14353,-2.448469 0.5283,-0.36844 0.52278,-0.407468 -0.0358,-0.252087 -0.41318,0.114888 -1.05935,-0.491568 -1.7243,-1.618498 -1.45173,-2.460291 -3.61872,-5.196703 -3.89587,-4.919558 -0.12504,0.125094 0.59096,1.483622 1.59126,3.018936 1.00029,1.535296 2.35731,4.068815 3.01561,5.63002 1.08191,2.565844 1.19866,3.367609 1.21523,8.345318 0.0166,4.853681 -0.10956,5.820234 -1.05973,8.149998 -3.81574,9.35569 -11.77562,15.19866 -20.70511,15.19866 -12.74733,0 -22.84737,-9.31029 -23.98634,-22.110803 -0.53513,-6.014128 1.99335,-13.459128 5.95871,-17.54516 0.93722,-0.965738 1.69493,-2.003466 1.6838,-2.30606 -0.0373,-1.014482 -4.76972,4.665333 -6.13189,7.359445 -0.90273,1.785485 -1.51713,3.897633 -1.86398,6.407965 -0.43019,3.113618 -0.70775,3.908956 -1.64727,4.719978 -0.92454,0.798102 -0.98976,0.978242 -0.35893,0.991213 0.42402,0.0083 0.77095,-0.182405 0.77095,-0.424701 0,-0.242296 0.15618,-0.440535 0.34692,-0.440535 0.19082,0 0.37823,0.784798 0.41648,1.743992 0.15651,3.926239 3.44519,11.866316 5.68455,13.724826 0.33039,0.2742 0.60069,0.70323 0.60069,0.9534 0,0.25019 -0.40115,0.0917 -0.89149,-0.3519 -0.62239,-0.56327 -1.03104,-0.66722 -1.35387,-0.3444 -0.40397,0.40397 0.78754,1.01717 2.3298,1.19899 0.16757,0.0198 1.27045,0.77241 2.45083,1.67258 6.60197,5.03474 15.68806,6.75607 22.78089,4.31578 z m -22.35168,0.60976 c -0.14635,-0.14635 -0.52635,-0.162 -0.84437,-0.0348 -0.35144,0.14069 -0.24704,0.24502 0.26615,0.26615 0.46442,0.0191 0.72461,-0.0851 0.57822,-0.23137 z m 28.12864,-0.72504 c -0.027,-0.76458 0.24201,-1.02309 1.1765,-1.13062 0.74066,-0.0852 1.2115,-0.40481 1.2115,-0.8223 0,-0.49088 0.30968,-0.6237 1.10135,-0.47237 0.60574,0.11572 1.10134,0.0646 1.10134,-0.11389 0,-0.77529 -2.73416,-0.84802 -3.7487,-0.0997 -1.07546,0.79324 -1.75917,2.47491 -1.305,3.20977 0.39653,0.64157 0.50124,0.51245 0.46301,-0.57092 z m -29.09902,-1.12641 c -0.1357,-0.1357 -0.49112,-2.8e-4 -0.78994,0.30079 -0.43185,0.43509 -0.38125,0.48569 0.2466,0.24662 0.43448,-0.1655 0.67897,-0.41178 0.54334,-0.54741 z m 33.14822,-0.003 c 0.0959,-0.28757 -0.13953,-0.52297 -0.52315,-0.52297 -0.38363,0 -0.69752,0.31388 -0.69752,0.69752 0,0.77797 0.94837,0.64248 1.22067,-0.17438 z m -11.21733,-2.62851 c 5.91509,-2.59318 10.00943,-10.78707 9.98629,-19.985262 -0.01,-3.862301 -1.03229,-9.301948 -2.11098,-11.229461 -0.60658,-1.083888 -1.10474,0.0716 -0.50999,1.182842 1.1279,2.10752 1.83865,6.138829 1.86016,10.550759 0.021,4.308714 -0.0861,4.897354 -1.56223,8.590542 -0.87163,2.18068 -1.80827,3.9104 -2.0814,3.84381 -0.27315,-0.0666 -0.36388,0.0937 -0.20162,0.35627 0.43414,0.70248 -1.94678,3.90771 -3.82703,5.15201 -1.12455,0.74419 -1.94656,0.98933 -2.65072,0.79052 -0.7191,-0.20301 -0.84078,-0.16367 -0.4118,0.13304 0.84619,0.58541 -0.76262,1.07841 -2.44373,0.74887 -1.01503,-0.19899 -1.08393,-0.16687 -0.36787,0.17151 0.70696,0.33406 0.495,0.42246 -1.07245,0.4473 -2.57253,0.0408 -7.15259,-1.24104 -6.77823,-1.89701 0.15535,-0.27225 0.12638,-0.35422 -0.0643,-0.18216 -0.19071,0.17205 -0.89279,0.0305 -1.56019,-0.31466 -5.71041,-2.95297 -9.24982,-12.333085 -8.05849,-21.356549 0.25986,-1.968289 0.58181,-3.688045 0.71545,-3.821681 0.1337,-0.133703 0.89964,0.09208 1.7022,0.501459 0.80256,0.409449 1.91073,0.922913 2.46257,1.141039 0.89413,0.353404 0.95468,0.305634 0.55624,-0.438843 -0.24589,-0.459484 -1.16363,-1.278249 -2.03937,-1.819502 -1.31518,-0.812821 -1.65997,-0.877174 -1.98126,-0.369771 -0.32148,0.507703 -0.39015,0.495131 -0.39573,-0.07243 -0.003,-0.377697 0.67264,-1.814973 1.50301,-3.193923 0.83036,-1.3788 1.32845,-2.507028 1.10687,-2.507028 -0.60845,0 -2.65244,3.436485 -3.53138,5.937219 -1.06204,3.021698 -1.50697,9.861833 -0.87466,13.446573 1.40608,7.971497 7.26689,14.209157 14.46839,15.398707 2.82686,0.46696 5.12338,0.12821 8.16222,-1.20406 z m -24.1167,-0.14352 c 0.13886,-0.2248 -1.99308,-0.36941 -4.95865,-0.33636 -3.3461,0.0373 -4.65219,0.16952 -3.66044,0.37054 2.23373,0.45281 8.33307,0.4286 8.61909,-0.0341 z m 17.92348,0.19514 c -0.30287,-0.12222 -0.79847,-0.12222 -1.10135,0 -0.30287,0.12221 -0.0551,0.2222 0.55067,0.2222 0.60576,0 0.85355,-0.10007 0.55068,-0.2222 z m 28.30475,-0.14886 c 0.1758,-0.28443 -1.6194,-0.44053 -5.06622,-0.44053 -3.44681,0 -5.242,0.15601 -5.06621,0.44053 0.15452,0.25003 2.34546,0.44054 5.06621,0.44054 2.72077,0 4.91171,-0.19051 5.06622,-0.44054 z m -31.05812,-0.88108 c 0,-0.55196 -0.46752,-0.55196 -1.32162,0 -0.53436,0.34532 -0.47114,0.42834 0.33039,0.4338 0.54518,0.003 0.99123,-0.19149 0.99123,-0.4338 z m 2.42298,0 c -0.14969,-0.2423 -0.54625,-0.44054 -0.88109,-0.44054 -0.33485,0 -0.73133,0.19824 -0.88109,0.44054 -0.15501,0.25085 0.22437,0.44055 0.88109,0.44055 0.65672,0 1.0361,-0.1897 0.88109,-0.44055 z m 3.74458,0 c 0,-0.2423 -0.39648,-0.44054 -0.88107,-0.44054 -0.58739,0 -0.88109,-0.2937 -0.88109,-0.88109 0,-0.48459 -0.19824,-0.88107 -0.44053,-0.88107 -0.2423,0 -0.44055,0.59474 -0.44055,1.32163 0,1.17476 0.14685,1.32162 1.32162,1.32162 0.7269,0 1.32162,-0.19824 1.32162,-0.44055 z m -22.02703,-0.42074 c 0,-0.21468 -0.5617,-0.5137 -1.24821,-0.66448 -1.23975,-0.2723 -1.78507,-1.55803 -0.6608,-1.55803 0.32306,0 0.58674,-0.14869 0.58594,-0.33039 -7.8e-4,-0.18172 -1.43804,-0.36438 -3.19392,-0.4059 -3.11199,-0.0736 -3.1536,-0.0606 -1.65059,0.51716 0.84804,0.32596 1.29409,0.60773 0.99122,0.62617 -1.1599,0.0706 -0.48271,0.8672 0.88108,1.03645 1.23155,0.15285 1.16801,0.18753 -0.45437,0.24817 -1.276,0.0478 -1.96398,-0.13237 -2.1268,-0.55667 -0.20258,-0.52795 -0.37322,-0.51371 -1.07818,0.0899 -0.46063,0.39442 -0.66218,0.82533 -0.44787,0.9576 0.67082,0.41408 8.4025,0.45091 8.4025,0.04 z m -4.04747,-2.0829 c 0.31801,-0.1272 0.69798,-0.11155 0.84437,0.0348 0.14636,0.14636 -0.11388,0.25052 -0.57821,0.23139 -0.5132,-0.0211 -0.6176,-0.12554 -0.26616,-0.26615 z m 49.86371,2.0631 c 0,-0.26128 -1.62398,-0.44053 -3.99086,-0.44053 -2.54841,0 -3.89246,0.15917 -3.71859,0.44053 0.14968,0.2423 1.94562,0.44054 3.99085,0.44054 2.18538,0 3.7186,-0.18164 3.7186,-0.44054 z m -20.01867,-0.6468 c 0.79104,-0.59831 0.6983,-0.64785 -1.23742,-0.6608 -1.94719,-0.0133 -2.50911,0.30367 -1.79887,1.0139 0.50955,0.50957 2.1476,0.31908 3.03629,-0.3531 z m -13.66507,-0.20575 c -0.14003,-0.22659 0.39342,-0.49223 1.18549,-0.5903 0.97054,-0.12022 0.66837,-0.20129 -0.92666,-0.24881 -2.05805,-0.0613 -2.29525,0.015 -1.81835,0.59031 0.58989,0.71077 1.98233,0.93293 1.55952,0.2488 z m 2.28603,0.14586 c -0.14635,-0.14636 -0.52635,-0.16201 -0.84437,-0.0348 -0.35144,0.1407 -0.24704,0.24503 0.26615,0.26616 0.46442,0.0191 0.72461,-0.0849 0.57822,-0.23138 z m 1.88148,-0.39465 c 0,-0.36344 -0.29736,-0.6608 -0.66081,-0.6608 -0.36346,0 -0.66082,0.29736 -0.66082,0.6608 0,0.36345 0.29736,0.66082 0.66082,0.66082 0.36345,0 0.66081,-0.29737 0.66081,-0.66082 z m 2.20271,-0.0323 c 0,-0.41025 -0.29974,-0.63499 -0.73445,-0.55068 -1.10522,0.21434 -1.25697,1.24379 -0.18336,1.24379 0.54114,0 0.91781,-0.28446 0.91781,-0.69313 z m 3.25997,-0.7319 c 0.32445,-0.21669 0.28564,-0.3259 -0.11738,-0.33041 -0.38429,-0.005 -0.51866,-0.32566 -0.37149,-0.88843 0.12687,-0.48492 0.0508,-0.77059 -0.1689,-0.63481 -0.2197,0.1357 -0.38381,0.97859 -0.36468,1.8729 0.0191,0.89432 0.14802,1.32866 0.28634,0.96522 0.13836,-0.36344 0.46962,-0.80646 0.73616,-0.98447 z m 17.64369,0.49751 c 0.2563,-0.24138 0.12821,-0.39413 -0.33041,-0.39413 -0.92553,0 -0.98747,-0.8172 -0.0881,-1.16231 0.63736,-0.24458 0.95373,-1.48093 0.37898,-1.48093 -0.28416,0 -0.71458,0.49576 -2.43335,2.80267 l -0.93935,1.2608 1.49687,-0.31599 c 0.82326,-0.1738 1.68518,-0.49334 1.91537,-0.71011 z m 4.4054,0.0758 c -0.24491,-0.24064 -1.05809,-0.25934 -1.96041,-0.0451 l -1.54189,0.36613 1.96041,0.0451 c 1.21851,0.028 1.80202,-0.11056 1.54189,-0.36613 z m -17.37933,-1.35094 c 0,-0.7302 -0.29369,-0.88109 -1.71504,-0.88109 -2.22305,0 -2.87446,1.18536 -0.79422,1.44527 0.77434,0.0967 1.65571,0.20763 1.95858,0.24639 0.30287,0.0388 0.55068,-0.32598 0.55068,-0.81057 z m 1.30822,-0.77095 c -0.0117,-1.34803 -0.0969,-1.50852 -0.46741,-0.87219 -0.2497,0.42891 -0.32943,1.17233 -0.17718,1.65203 0.42286,1.33233 0.65939,1.04616 0.64459,-0.77984 z m -16.87543,-0.44053 c 0.37832,-0.90863 0.81424,-1.75115 0.96874,-1.8723 0.2697,-0.21151 0.44223,-1.15872 0.64194,-3.52433 0.0511,-0.605744 0.25848,-1.362353 0.46076,-1.681341 0.20227,-0.318987 0.28114,-0.666613 0.17526,-0.772476 -0.16483,-0.164839 -1.81835,1.781622 -5.35074,6.298677 -0.59861,0.76549 -0.69573,1.19414 -0.34907,1.54078 0.69661,0.69662 1.58111,-0.17869 3.25219,-3.21838 0.77749,-1.41423 1.49442,-2.4905 1.59321,-2.39171 0.0987,0.0987 -0.63631,1.59482 -1.63355,3.32451 -1.99871,3.46672 -2.13659,3.94858 -1.12988,3.94858 0.37582,0 0.99283,-0.7434 1.37114,-1.65201 z m 3.56247,1.10135 c -0.1009,-0.30288 -0.44788,-0.55067 -0.77095,-0.55067 -0.32307,0 -0.66999,0.24779 -0.77094,0.55067 -0.10923,0.32758 0.20313,0.55066 0.77094,0.55066 0.56781,0 0.88014,-0.22308 0.77095,-0.55066 z m 2.31283,-0.35641 c 0,-0.4989 -0.19824,-0.78455 -0.44053,-0.63482 -0.2423,0.14969 -0.44054,0.55794 -0.44054,0.9071 0,0.34914 0.19824,0.63479 0.44054,0.63479 0.24229,0 0.44053,-0.40818 0.44053,-0.90707 z m 1.76218,0.72284 c 0,-0.1014 0.12038,-0.49781 0.2674,-0.88107 0.17546,-0.45729 0.024,-0.69685 -0.44055,-0.69685 -0.38937,0 -0.70794,0.0829 -0.70794,0.18423 0,0.1014 -0.12038,0.49783 -0.26741,0.88109 -0.17547,0.45727 -0.024,0.69683 0.44054,0.69683 0.38937,0 0.70796,-0.0829 0.70796,-0.18423 z m 1.76215,-0.47657 c 0,-0.36344 -0.19824,-0.66082 -0.44053,-0.66082 -0.2423,0 -0.44055,0.29738 -0.44055,0.66082 0,0.36345 0.19825,0.6608 0.44055,0.6608 0.24229,0 0.44053,-0.29735 0.44053,-0.6608 z m 23.22871,0.3393 c -0.91402,-0.0954 -2.30173,-0.0937 -3.08378,0.003 -0.78207,0.0974 -0.0343,0.17535 1.66185,0.1734 1.69608,-0.002 2.33595,-0.0816 1.42193,-0.17696 z m -14.41788,-1.46664 c 0,-0.22801 -0.19826,-0.41455 -0.44056,-0.41455 -0.24229,0 -0.44053,0.30907 -0.44053,0.68681 0,0.37775 0.19824,0.56428 0.44053,0.41455 0.2423,-0.14969 0.44056,-0.45882 0.44056,-0.68681 z m 14.98929,-0.22295 c 0.53043,-1.39514 0.53189,-1.51322 0.0188,-1.51322 -0.22598,0 -0.53669,0.39648 -0.69049,0.88107 -0.19591,0.61723 -0.66656,0.88109 -1.57159,0.88109 -1.0923,0 -1.29192,-0.17418 -1.29192,-1.12735 0,-0.62004 -0.18958,-1.01019 -0.42131,-0.86697 -0.2317,0.1432 -0.33082,0.5514 -0.22026,0.90708 0.11055,0.35569 0.29394,0.94406 0.40748,1.3075 0.1327,0.42482 0.76597,0.66082 1.77306,0.66082 1.27632,0 1.64624,-0.20941 1.99627,-1.13002 z m -50.6731,0.19501 c 0,0.28696 0.69327,0.4726 1.65201,0.44235 1.59894,-0.0505 1.60956,-0.0611 0.33041,-0.33324 -0.92502,-0.19676 -1.36386,-0.57771 -1.4624,-1.26949 -0.15618,-1.0967 -0.96057,-1.37101 -0.96057,-0.32758 0,0.37982 -0.39758,0.6608 -0.93502,0.6608 -0.78457,0 -0.84606,0.10723 -0.38209,0.66625 0.42057,0.50675 0.69713,0.54658 1.1553,0.16633 0.44215,-0.36695 0.60236,-0.3684 0.60236,-0.005 z m 4.62567,0.0539 c 0.14969,-0.24229 0.0623,-0.44053 -0.19426,-0.44053 -0.2566,0 -0.46654,0.19824 -0.46654,0.44053 0,0.2423 0.0874,0.44054 0.19426,0.44054 0.10689,0 0.31679,-0.19824 0.46654,-0.44054 z m 48.58419,-0.36747 c 0.13171,-0.39936 -0.12871,-0.54057 -0.81207,-0.44054 -0.55318,0.0809 -1.09295,0.41168 -1.19948,0.73495 -0.1317,0.39936 0.12871,0.54056 0.81206,0.44054 0.55317,-0.0809 1.09295,-0.41168 1.19949,-0.73495 z m -32.72472,-0.0731 c 0.14969,-0.24229 -0.13587,-0.44055 -0.63481,-0.44055 -0.4989,0 -0.90708,0.19826 -0.90708,0.44055 0,0.2423 0.28567,0.44054 0.63481,0.44054 0.34914,0 0.75734,-0.19824 0.90708,-0.44054 z m 11.43565,-2.10244 c 0.47445,-0.25202 1.88461,-0.35273 3.13367,-0.22383 1.57847,0.16301 2.37669,0.0634 2.61753,-0.32629 0.26794,-0.43353 -0.10506,-0.50979 -1.64484,-0.33624 -1.84649,0.20813 -1.97711,0.15668 -1.79547,-0.70621 0.18277,-0.86833 0.15351,-0.87904 -0.43604,-0.15968 -0.34758,0.42404 -0.90746,0.77476 -1.24418,0.77941 -0.70888,0.01 -3.91632,2.70183 -3.91632,3.28701 0,0.21654 0.54518,-0.11239 1.2115,-0.7311 0.66631,-0.61864 1.59968,-1.331 2.07415,-1.58302 z m -28.39648,1.25739 c 0,-0.46478 -0.12437,-1.16939 -0.27656,-1.56578 -0.24443,-0.63696 -0.39438,-0.61009 -1.2898,0.23114 -1.20462,1.13167 -0.95838,2.17969 0.51215,2.17969 0.74555,0 1.05421,-0.24744 1.05421,-0.84505 z m 18.82395,0.57888 c -0.14635,-0.14635 -0.52635,-0.16201 -0.84437,-0.0348 -0.35144,0.1407 -0.24704,0.24503 0.26616,0.26616 0.46441,0.0191 0.7246,-0.0849 0.57821,-0.23137 z m 3.08378,0 c -0.14635,-0.14635 -0.52635,-0.16201 -0.84437,-0.0348 -0.35142,0.1407 -0.24704,0.24503 0.26617,0.26616 0.4644,0.0191 0.72459,-0.0849 0.5782,-0.23137 z m 2.44055,-0.0228 c -0.29826,-0.12071 -0.89299,-0.12804 -1.32162,-0.0166 -0.42863,0.11172 -0.18461,0.21043 0.54228,0.2194 0.72689,0.008 1.0776,-0.0824 0.77934,-0.20308 z m 4.61729,-0.015 c -0.42401,-0.1109 -1.11787,-0.1109 -1.54189,0 -0.42403,0.11089 -0.0771,0.20146 0.77095,0.20146 0.84803,0 1.19496,-0.0906 0.77094,-0.20146 z m 17.04904,-0.45886 c 0.16184,-0.42197 0.0719,-0.83613 -0.20162,-0.92729 -0.27181,-0.0906 -0.72004,-0.68912 -0.99604,-1.33003 l -0.50182,-1.16527 -0.16151,1.47369 c -0.0889,0.81052 -0.0546,1.75218 0.0759,2.09256 0.331,0.86253 1.43305,0.77383 1.78512,-0.14369 z m -13.65811,-0.59671 c -0.14186,-0.22951 -0.44566,-0.30124 -0.67517,-0.15934 -0.22951,0.14186 -0.30124,0.44568 -0.15934,0.67518 0.14186,0.22951 0.44568,0.30124 0.67519,0.15935 0.2295,-0.14186 0.30122,-0.44568 0.15934,-0.67519 z m -37.00674,0.0774 c 0.47442,-0.7676 -0.29716,-1.80192 -1.34419,-1.80192 -0.74523,0 -1.05421,0.24748 -1.05421,0.84438 0,1.13207 1.83721,1.86557 2.3984,0.95754 z m 17.21985,-2.70143 c 1.79186,-2.328641 2.78817,-4.386976 2.12347,-4.386976 -0.62602,0 -3.69666,2.560393 -4.3082,3.592296 -1.22912,2.07404 -0.74735,1.93626 1.83076,-0.523551 1.38806,-1.324353 2.03509,-1.813191 1.43786,-1.086302 -0.59721,0.726888 -1.85743,2.042853 -2.80047,2.924333 -0.97262,0.90915 -1.58167,1.81782 -1.40743,2.09976 0.43067,0.69682 0.82941,0.36247 3.12401,-2.61956 z m 6.37366,2.66169 c 0,-0.2423 -0.39649,-0.44055 -0.88109,-0.44055 -0.48459,0 -0.88108,0.19825 -0.88108,0.44055 0,0.2423 0.39649,0.44053 0.88108,0.44053 0.4846,0 0.88109,-0.19823 0.88109,-0.44053 z m 5.72703,0 c 0,-0.2423 -0.8921,-0.44055 -1.98243,-0.44055 -1.09035,0 -1.98244,0.19825 -1.98244,0.44055 0,0.2423 0.89209,0.44053 1.98244,0.44053 1.09033,0 1.98243,-0.19823 1.98243,-0.44053 z m 4.84595,0 c 0,-0.55196 -0.46752,-0.55196 -1.32162,0 -0.53436,0.34533 -0.47114,0.42833 0.33039,0.43379 0.54518,0.003 0.99123,-0.19149 0.99123,-0.43379 z m 21.50701,-0.80546 c 0.11339,-0.77021 -0.0799,-0.95672 -0.99123,-0.95672 -0.62259,0 -1.13199,0.0829 -1.13199,0.18426 0,0.1014 -0.11373,0.48048 -0.25262,0.84254 -0.15618,0.4069 0.0541,0.73659 0.55068,0.86327 1.24947,0.3188 1.67276,0.1024 1.82516,-0.93335 z m -25.65738,-3.638323 c -0.61518,-1.781922 -0.49743,-2.29437 0.50489,-2.197382 0.18778,0.01815 0.35902,0.181722 0.38054,0.363461 0.0215,0.181722 0.26038,0.826008 0.53084,1.431748 0.48324,1.082386 0.49045,1.076896 0.41872,-0.318888 -0.0401,-0.781135 -0.32858,-1.518329 -0.64097,-1.638212 -0.31238,-0.119883 -0.56798,-0.416193 -0.56798,-0.658489 0,-0.242296 0.34693,-0.310529 0.77094,-0.151684 0.68272,0.255866 0.69977,0.201469 0.14902,-0.475218 -0.4893,-0.601195 -0.69923,-0.642271 -0.98446,-0.192612 -0.33025,0.52059 -0.55776,0.180557 -0.42822,-0.639956 0.0964,-0.610619 -0.7319,-0.337537 -0.98618,0.325114 -0.13837,0.360531 -0.0356,0.608338 0.22821,0.550678 0.26386,-0.05761 0.5798,0.17055 0.70209,0.507137 0.1362,0.374833 0.0295,0.4928 -0.27533,0.304418 -0.27373,-0.169184 -0.51111,-0.04812 -0.52751,0.269087 -0.0166,0.317156 -0.24493,0.130705 -0.50786,-0.414544 -0.26292,-0.545166 -0.646,-0.99123 -0.85126,-0.99123 -0.20527,0 -0.37322,-0.209927 -0.37322,-0.466526 0,-0.256599 0.22887,-0.325099 0.5086,-0.152185 0.30798,0.190331 0.3893,0.121215 0.20617,-0.175045 -0.16634,-0.269153 -0.57849,-0.383441 -0.91586,-0.253968 -0.47119,0.180807 -0.31224,0.662651 0.68553,2.078215 0.71443,1.013541 1.40614,2.633588 1.53715,3.600094 0.13103,0.9665 0.36504,2.25289 0.5201,2.85863 0.27182,1.06191 0.28737,1.05265 0.43456,-0.25863 0.0839,-0.748 -0.14935,-2.23481 -0.51851,-3.304063 z m -27.0308,2.681603 c 0.26028,-0.41752 0.24113,-1.10681 -0.0519,-1.87228 -0.34748,-0.907327 -0.76216,-1.211496 -1.65167,-1.211496 -1.29159,0 -2.79896,1.104416 -2.79896,2.050706 0,0.80768 1.28777,0.75282 1.60285,-0.0683 0.13953,-0.36345 0.66674,-0.66082 1.17172,-0.66082 0.88055,0 0.88471,0.0245 0.10156,0.59711 -0.5192,0.37965 -0.71078,0.87281 -0.52606,1.35418 0.33695,0.8781 1.55392,0.77117 2.15257,-0.18914 z m 19.28657,0.44056 c 0,-0.2423 -0.18655,-0.44056 -0.41455,-0.44056 -0.22799,0 -0.53705,0.19826 -0.68681,0.44056 -0.14968,0.24229 0.0368,0.44053 0.41455,0.44053 0.37774,0 0.68681,-0.19824 0.68681,-0.44053 z m 2.64324,0 c 0,-0.2423 -0.29737,-0.44056 -0.66082,-0.44056 -0.36344,0 -0.6608,0.19826 -0.6608,0.44056 0,0.24229 0.29736,0.44053 0.6608,0.44053 0.36345,0 0.66082,-0.19824 0.66082,-0.44053 z m 4.40541,0 c 0,-0.2423 -0.78127,-0.44056 -1.73617,-0.44056 -0.95488,0 -1.85868,0.19826 -2.00843,0.44056 -0.16634,0.26908 0.50938,0.44053 1.73616,0.44053 1.10464,0 2.00844,-0.19824 2.00844,-0.44053 z m 2.06309,-0.52314 c -0.14069,-0.35144 -0.24501,-0.24706 -0.26615,0.26615 -0.0191,0.4644 0.0851,0.7246 0.23139,0.57821 0.14635,-0.14636 0.162,-0.52636 0.0348,-0.84436 z m 21.64451,-0.0275 c 0.10922,-0.57602 -0.14702,-0.77095 -1.01344,-0.77095 -0.66092,0 -1.04257,-0.18946 -0.88738,-0.44055 0.41309,-0.66841 1.59625,-0.5279 2.50882,0.29797 1.12971,1.02239 1.98711,0.18774 1.1629,-1.132021 -1.72072,-2.755302 -6.26725,-0.636177 -4.74351,2.210931 0.59026,1.10291 2.75494,0.98247 2.97261,-0.16533 z m -38.72635,-1.32163 c 0.50562,-1.029755 2.508,-3.706051 4.44973,-5.947307 1.94171,-2.241238 3.34161,-4.074993 3.11084,-4.074993 -0.23076,0 -0.54803,0.207863 -0.70505,0.461931 -0.19487,0.315308 -0.48452,0.296743 -0.91252,-0.05844 -0.88768,-0.736712 0.0809,-1.830192 1.31834,-1.488393 0.74309,0.205232 0.64034,-0.01332 -0.51333,-1.094661 l -1.44235,-1.351261 -1.37937,1.570995 c -0.75864,0.864054 -2.19114,2.126951 -3.18331,2.806419 -2.02815,1.388957 -4.08184,2.190538 -3.5953,1.403326 0.16584,-0.268254 0.10373,-0.487739 -0.1377,-0.487739 -0.65974,0 -0.43454,1.871084 0.33437,2.77803 0.54554,0.643469 0.57224,0.959327 0.1397,1.652032 -0.29418,0.471039 -0.34664,0.856428 -0.11655,0.856428 0.23006,0 0.5428,-0.201469 0.69498,-0.447728 0.15219,-0.246243 0.46125,-0.333674 0.68681,-0.19426 0.22555,0.139363 0.4101,-0.03913 0.4101,-0.396645 0,-0.357567 -0.2478,-0.76575 -0.55067,-0.907095 -0.44054,-0.205582 -0.44054,-0.308365 0,-0.513964 0.65455,-0.30545 0.74235,-1.505176 0.11022,-1.505176 -0.2423,0 -0.44055,0.309064 -0.44055,0.686811 0,0.377747 -0.19824,0.564298 -0.44054,0.414544 -0.72197,-0.446213 -0.5069,-0.929689 0.64759,-1.455708 0.90228,-0.411114 1.16029,-0.366807 1.51075,0.259413 0.30134,0.538456 0.22232,0.976544 -0.27533,1.526422 -0.3876,0.428314 -0.48326,0.771228 -0.21512,0.771228 0.26555,0 0.61128,-0.20788 0.76831,-0.461931 0.19516,-0.315791 0.48216,-0.298724 0.90708,0.05395 0.76473,0.634679 0.76031,0.848519 -0.0395,1.905118 -0.52342,0.691523 -0.74983,0.739393 -1.30762,0.276463 -0.41926,-0.347943 -0.67457,-0.382526 -0.67457,-0.09141 0,0.257665 0.19417,0.588491 0.43152,0.73518 0.61342,0.379112 -0.51131,2.051661 -1.20157,1.786791 -0.30337,-0.11639 -0.55158,-0.12804 -0.55158,-0.026 0,0.2753 1.00444,2.42989 1.13278,2.42989 0.0606,0 0.52393,-0.84254 1.02957,-1.8723 z m 1.55471,-5.309531 c -0.14902,-0.388137 -0.12154,-0.947139 0.0608,-1.242217 0.22546,-0.364809 0.10856,-0.450958 -0.36504,-0.269186 -0.8706,0.334072 -1.46885,-1.003251 -0.67434,-1.507374 0.31107,-0.19739 0.73531,-0.361913 0.94274,-0.365626 0.20743,-0.0033 0.76846,-0.504239 1.24676,-1.112294 0.4783,-0.608054 1.052,-0.992844 1.27489,-0.855079 0.22289,0.137698 0.40527,-0.146024 0.40527,-0.630616 0,-1.098741 0.7955,-1.635415 1.45162,-0.979291 0.36468,0.364659 -0.13486,1.142731 -1.91067,2.975819 -1.32246,1.365114 -2.08913,2.373093 -1.7037,2.23994 1.40331,-0.484792 1.77774,0.351722 0.63707,1.423323 -0.94309,0.885999 -1.13205,0.930639 -1.36538,0.322601 z m 1.34917,-0.747901 c 0.14968,-0.242296 0.0741,-0.440552 -0.16827,-0.440552 -0.2423,0 -0.56307,0.198256 -0.71282,0.440552 -0.14969,0.242296 -0.0741,0.440535 0.16827,0.440535 0.24229,0 0.56306,-0.198239 0.71282,-0.440535 z m -1.32163,-1.762175 c 0.14969,-0.242296 0.0623,-0.440535 -0.19427,-0.440535 -0.2566,0 -0.46655,0.198239 -0.46655,0.440535 0,0.242313 0.0874,0.440552 0.19428,0.440552 0.1069,0 0.31679,-0.198239 0.46654,-0.440552 z m 1.98243,-0.166337 c 0,-0.976044 1.26653,-1.82716 1.85027,-1.243399 0.3614,0.36138 0.34218,0.670993 -0.0726,1.170787 -0.70006,0.843524 -1.77765,0.887548 -1.77765,0.0726 z m 14.64313,8.329664 c 0.11438,-0.5984 0.0383,-0.98319 -0.16892,-0.85508 -0.36501,0.22559 -0.54885,1.94309 -0.20798,1.94309 0.0929,0 0.26251,-0.4896 0.3769,-1.08801 z m -8.91609,-0.26591 c 0,-0.63045 -0.23725,-0.867683 -0.7659,-0.76588 -1.14836,0.22116 -1.27643,1.67927 -0.14752,1.67927 0.63045,0 0.91339,-0.28292 0.91339,-0.91339 z m 1.70158,-0.35557 c -0.0959,-0.27924 -0.4022,-0.31431 -0.76681,-0.0877 -0.33391,0.20745 -0.46022,0.61485 -0.28068,0.90535 0.38604,0.62462 1.29828,-0.0874 1.04749,-0.81755 z m 3.94158,0.49801 c -0.1074,-0.55772 -0.57158,-0.77094 -1.67829,-0.77094 -1.10673,0 -1.5709,0.21322 -1.67831,0.77094 -0.12205,0.63417 0.17566,0.77095 1.67831,0.77095 1.50264,0 1.80042,-0.1367 1.67829,-0.77095 z m 4.91705,0.34761 c 0.35643,-0.22541 0.51366,-0.54423 0.34941,-0.70849 -0.40314,-0.40313 -1.65826,0.10956 -1.65826,0.67746 0,0.55953 0.45609,0.57036 1.30885,0.031 z m 3.97764,0.008 c 0,-0.22799 -0.20775,-0.54292 -0.46165,-0.69985 -0.64658,-0.39961 -1.8552,0.1327 -1.52271,0.67074 0.34651,0.56067 1.98436,0.5847 1.98436,0.0291 z m 1.1007,-2.669953 c -1.13064,-1.249344 -1.54019,-1.091099 -1.10481,0.426898 0.61514,2.144895 0.98685,2.503395 1.47087,1.418625 0.33058,-0.740838 0.24551,-1.169752 -0.36606,-1.845523 z m -8.28896,0.7992 c -0.1407,-0.351439 -0.24503,-0.247058 -0.26616,0.266156 -0.0191,0.464397 0.0849,0.724587 0.23137,0.578197 0.14636,-0.14635 0.16201,-0.526347 0.0348,-0.844353 z m 5.04281,-0.468075 c -0.45547,-1.272171 -5.82934,-7.289845 -6.55523,-7.340578 -0.30287,-0.02115 -0.55163,-0.286287 -0.55279,-0.589157 -0.003,-0.676121 -3.03876,-4.044506 -3.35792,-3.725335 -0.12621,0.12621 0.16731,0.693887 0.65227,1.261515 2.87322,3.36299 6.20072,7.53597 7.4345,9.32352 1.51402,2.193583 3.02469,2.873003 2.37917,1.070035 z m 1.60395,0.468075 c -0.0959,-0.287735 -0.40994,-0.60166 -0.69782,-0.697633 -0.32194,-0.107228 -0.42039,0.09407 -0.25575,0.523138 0.3073,0.800778 1.21787,0.967398 0.95357,0.174495 z m -24.32533,-0.396328 c 0.45398,-0.734564 -0.56708,-1.576923 -1.1748,-0.969201 -0.50836,0.508352 -0.1902,1.448115 0.49025,1.448115 0.21371,0 0.52174,-0.215505 0.68455,-0.478914 z m 9.64935,0.06877 c 0.13936,-0.225546 0.052,-0.53461 -0.19426,-0.686811 -0.24626,-0.152184 -0.44773,0.0323 -0.44773,0.410098 0,0.773826 0.26434,0.887764 0.64199,0.276713 z m 2.00125,-0.250705 c 0,-0.363444 -0.36344,-0.660819 -0.80766,-0.660819 -0.44421,0 -0.80765,0.297375 -0.80765,0.660819 0,0.363444 0.36344,0.660803 0.80765,0.660803 0.44422,0 0.80766,-0.297359 0.80766,-0.660803 z m 3.85748,0.110226 c -0.28075,-0.854946 -2.53585,-0.978925 -2.53585,-0.139364 0,0.477183 0.41902,0.690058 1.35833,0.690058 0.8894,0 1.2959,-0.190097 1.17752,-0.550661 z m 4.51279,-0.304419 c 0,-0.227993 -0.19824,-0.537057 -0.44053,-0.686811 -0.2423,-0.149686 -0.44055,0.0368 -0.44055,0.414544 0,0.377747 0.19825,0.686811 0.44055,0.686811 0.24229,0 0.44053,-0.186534 0.44053,-0.414544 z m 18.09891,-0.466543 c 0.67816,0 1.26388,-1.160147 1.27889,-2.533103 0.003,-0.308498 -0.52677,-0.550677 -1.20549,-0.550677 -0.95625,0 -1.21604,0.208828 -1.23314,0.991212 -0.0117,0.545183 -0.18287,1.486828 -0.37991,2.092568 -0.2932,0.901317 -0.25326,1.001336 0.2199,0.550677 0.31799,-0.30287 0.91187,-0.550677 1.31975,-0.550677 z m -51.13947,-1.54189 c 0,-1.090333 -0.19824,-1.982426 -0.44053,-1.982426 -0.48341,0 -0.5979,2.161118 -0.17315,3.268017 0.44356,1.155918 0.61368,0.79955 0.61368,-1.285591 z m 2.06736,0 c -0.57031,-2.49231 -1.62682,-2.68304 -1.62682,-0.293696 0,1.874848 0.23518,2.276138 1.33392,2.276138 0.65831,0 0.69294,-0.234321 0.2929,-1.982442 z m 38.45694,0.965221 c -0.007,-0.642804 -2.87696,-2.561625 -3.25956,-2.179049 -0.15118,0.151185 0.35482,0.924428 1.12437,1.7184 1.34735,1.390106 2.14665,1.562554 2.13519,0.460649 z m -3.86396,-0.825708 c -0.67293,-0.672941 -1.16948,-0.176394 -0.79624,0.796237 0.22037,0.574288 0.41143,0.631182 0.80335,0.239266 0.39191,-0.391916 0.39021,-0.638175 -0.007,-1.035503 z m -11.21632,0.190897 c 0.12205,-0.37172 -0.33223,-0.550678 -1.39783,-0.550678 -1.13794,0 -1.57861,0.192262 -1.57861,0.688726 0,0.846537 2.69425,0.721577 2.97644,-0.138032 z m 2.20013,0.220267 c -0.27756,-0.833583 -1.65223,-0.952101 -1.65223,-0.14236 0,0.408649 0.37664,0.693104 0.91778,0.693104 0.53834,0 0.84199,-0.227677 0.73445,-0.550677 z m 26.07087,-1.54189 c 0.017,-0.30287 -0.16729,-0.550677 -0.40958,-0.550677 -0.2423,0 -0.4266,0.644285 -0.40957,1.431764 0.026,1.199825 0.0922,1.289021 0.40957,0.550678 0.20824,-0.484609 0.39255,-1.128895 0.40958,-1.431765 z m -38.73664,0.954499 c 0,-0.777955 -0.94837,-0.642471 -1.22065,0.174396 -0.0959,0.287718 0.13953,0.523137 0.52314,0.523137 0.38364,0 0.69751,-0.313892 0.69751,-0.697533 z m 5.17637,-1.058181 c 0.54516,-0.233854 0.99121,-0.531879 0.99121,-0.662268 0,-0.130372 -0.71806,0.06294 -1.59569,0.429629 -0.87764,0.366708 -1.6494,0.666731 -1.71503,0.666731 -0.0656,0 -0.24376,0.324266 -0.39587,0.720594 -0.25501,0.664599 -0.19877,0.66425 0.72383,-0.005 0.55018,-0.398776 1.44638,-0.916369 1.99155,-1.15024 z m 1.8723,-0.100734 c 0,-0.62016 -0.82171,0.03913 -1.38336,1.110029 -0.50349,0.959977 -0.50045,0.960859 0.43817,0.127542 0.51985,-0.461565 0.94519,-1.018436 0.94519,-1.237488 z M 238.0324,95.06461 c -0.12921,-0.879856 -0.34939,-1.204288 -0.62827,-0.925428 -0.45922,0.459217 -0.0658,2.280284 0.49257,2.280284 0.184,0 0.24507,-0.609686 0.1357,-1.354856 z m 6.07848,0.77564 c 0,-0.567911 -3.01497,-2.279701 -3.37721,-1.917456 -0.2413,0.241297 2.44207,2.496672 2.97047,2.496672 0.2237,0 0.40674,-0.260645 0.40674,-0.579216 z m -16.04371,-0.301871 c 0.34363,0 0.62477,-0.198239 0.62477,-0.440535 0,-0.242296 -0.69385,-0.440536 -1.54189,-0.440536 -1.46831,0 -1.90645,0.369672 -1.23449,1.04163 0.16907,0.169068 0.58177,0.202102 0.9171,0.07343 0.33536,-0.128707 0.89088,-0.23397 1.23451,-0.23397 z m 11.63831,0.02597 c 0,-0.227994 -0.19826,-0.537058 -0.44056,-0.686811 -0.24229,-0.149687 -0.44053,0.0368 -0.44053,0.414544 0,0.377747 0.19824,0.686811 0.44053,0.686811 0.2423,0 0.44056,-0.186551 0.44056,-0.414544 z M 224.34786,93.79084 c 0.79033,-0.658405 0.87133,-0.869931 0.33737,-0.88107 -0.38647,-0.0083 -1.06149,0.381826 -1.50004,0.866418 -1.02647,1.134223 -0.1938,1.144729 1.16267,0.01498 z m 19.62197,-0.743089 c -0.12038,-0.120382 -0.78223,-0.152517 -1.47071,-0.07126 l -1.25175,0.147688 1.32162,0.731617 c 1.15255,0.638025 1.34069,0.647133 1.47069,0.07126 0.0821,-0.363195 0.0506,-0.758874 -0.0699,-0.879289 z M 227.176,93.541917 c -0.95579,-0.722925 -1.56784,-0.832102 -1.56784,-0.279693 0,0.616647 0.54182,0.955198 1.50518,0.940496 0.90173,-0.01332 0.90282,-0.02531 0.0626,-0.660803 z m 2.8228,0.252719 c 0.40404,-0.255533 0.84487,-0.243578 1.17683,0.03197 0.39335,0.326447 0.46942,0.205849 0.29379,-0.465744 -0.13037,-0.498445 -0.51123,-0.906262 -0.84642,-0.906262 -0.33519,0 -0.60943,-0.216022 -0.60943,-0.480064 0,-0.264024 -0.44605,-0.875359 -0.99122,-1.358486 -0.78568,-0.696302 -0.82662,-0.826174 -0.19739,-0.626337 0.46432,0.147356 0.6821,0.07126 0.52469,-0.183403 -0.4234,-0.685046 -1.857,-0.508619 -2.15389,0.265073 -0.34709,0.904531 0.10257,1.624027 0.83854,1.341603 0.7162,-0.274814 2.16777,1.261315 1.78188,1.885687 -0.37555,0.607655 -3.2357,-1.236972 -3.58687,-2.313301 -0.16601,-0.508686 0.11921,-1.236273 0.76903,-1.962329 l 1.0328,-1.153903 -1.10135,0.690707 c -0.68853,0.431794 -1.15064,1.175765 -1.23286,1.984806 -0.1089,1.072217 0.15551,1.490491 1.54189,2.439262 1.96844,1.347014 1.92997,1.335708 2.75998,0.810756 z m 9.62884,-0.312344 c -0.21434,-1.105217 -1.24379,-1.256969 -1.24379,-0.183354 0,0.541137 0.28446,0.917785 0.69311,0.917785 0.41025,0 0.63499,-0.299723 0.55068,-0.734431 z m -36.26679,-0.09124 c -1.26443,-0.26872 -1.32738,-0.391983 -1.45484,-2.84841 -0.12488,-2.40761 -0.0774,-2.549837 0.76205,-2.283398 0.4924,0.156347 1.2434,0.08941 1.6689,-0.148688 0.68368,-0.382625 0.63756,-0.467076 -0.39681,-0.726688 -2.45518,-0.616213 -2.77051,-0.269303 -2.91143,3.20313 l -0.12938,3.189244 1.8916,-0.05212 c 1.68632,-0.04645 1.74817,-0.08259 0.56998,-0.33299 z M 235.15322,92.6748 c 0,-0.363444 -0.26433,-0.660803 -0.58739,-0.660803 -0.74241,0 -0.7686,0.73453 -0.0368,1.029858 0.30287,0.122214 0.56719,0.23785 0.58739,0.256982 0.0202,0.01915 0.0368,-0.262593 0.0368,-0.626037 z m 2.01914,0.369055 c -0.30287,-0.122214 -0.79847,-0.122214 -1.10136,0 -0.30287,0.122214 -0.0551,0.222199 0.55068,0.222199 0.60576,0 0.85355,-0.100069 0.55068,-0.222199 z m 17.95203,-0.542186 c 0,-0.495182 -1.14589,-0.957096 -1.49881,-0.604175 -0.53032,0.530314 -0.24097,0.997573 0.61774,0.997573 0.4846,0 0.88107,-0.177026 0.88107,-0.393398 z m -10.90568,-1.148492 c -0.15269,-0.798501 -0.49212,-1.101355 -1.23454,-1.101355 -0.5632,0 -1.13664,0.182272 -1.27431,0.405037 -0.34854,0.563948 0.9766,1.797673 1.93086,1.797673 0.60355,0 0.73913,-0.258364 0.57799,-1.101355 z m 11.87507,-0.25898 c -0.17966,-1.224018 -0.26756,-1.292451 -0.87709,-0.682931 -0.55752,0.557538 -0.5771,0.798285 -0.11073,1.360351 0.87065,1.049056 1.20724,0.818216 0.98774,-0.67742 z m -52.6606,-0.592486 c -0.36158,-0.942244 -1.13141,-0.876875 -0.94814,0.08059 0.0811,0.424018 0.16284,0.959277 0.18129,1.189468 0.0185,0.230175 0.25828,0.193944 0.53274,-0.08059 0.27448,-0.274482 0.37982,-0.809741 0.23411,-1.189468 z m 13.61037,0.865486 c 0.79106,-0.598331 0.6983,-0.647849 -1.23742,-0.66082 -1.57259,-0.01 -2.09257,0.150186 -2.09257,0.6468 0,0.868799 2.18771,0.878007 3.32999,0.01332 z m 23.09588,-0.695153 c -1.09521,-0.841493 -1.46478,-0.914138 -5.40732,-1.062876 -1.85185,-0.06993 -2.27369,-0.278361 -3.44964,-1.704997 -0.73689,-0.893958 -1.52873,-1.508623 -1.75967,-1.365896 -0.61865,0.382343 2.24272,3.452803 3.31632,3.558666 4.14261,0.408466 5.91915,0.730867 6.86569,1.245963 1.49595,0.814103 1.78555,0.367107 0.43462,-0.67086 z m -2.52652,0.609653 c -0.30287,-0.122214 -0.79849,-0.122214 -1.10136,0 -0.30287,0.122214 -0.0551,0.222199 0.55068,0.222199 0.60574,0 0.85355,-0.100068 0.55068,-0.222199 z m 17.08469,-2.276954 c -1.20577,-0.181056 -1.52634,0.113889 -1.16033,1.067788 0.26071,0.679385 0.35924,0.671959 1.20733,-0.09108 l 0.92346,-0.830903 z m -50.2354,0.586276 c 0,-0.363444 -0.32163,-0.660819 -0.71475,-0.660819 -0.58539,0 -0.61549,0.119549 -0.16633,0.660819 0.30163,0.363444 0.62327,0.660803 0.71476,0.660803 0.0914,0 0.16634,-0.297359 0.16634,-0.660803 z m 14.72119,0.330627 c 0.1816,-0.181606 -0.82613,-0.533761 -2.23941,-0.782551 -2.45766,-0.432643 -3.5233,-0.158178 -2.95509,0.761288 0.27523,0.445314 4.75213,0.463629 5.1945,0.02131 z m 21.4793,-0.843574 c -1.01521,-1.883922 -2.64072,-2.877849 -5.21748,-3.19026 -1.41246,-0.171232 -2.99435,-0.544357 -3.5153,-0.829128 -1.53237,-0.837646 -1.68813,0.568693 -0.26106,2.357215 1.1068,1.387159 1.41165,1.516365 3.63121,1.53916 1.33264,0.01332 3.11683,0.273116 3.96486,0.576502 1.82926,0.654442 1.97019,0.60872 1.39777,-0.453489 z m 3.44819,0.07243 c 0,-0.811089 -0.34333,-0.811089 -1.76216,0 l -1.10135,0.629583 1.43174,0.01499 c 0.98592,0.01 1.43177,-0.190164 1.43177,-0.645202 z m -23.92802,-0.706658 c 1.23384,-0.483877 1.22372,-0.494233 -1.98074,-2.028864 -1.7715,-0.848376 -3.33239,-1.431022 -3.46862,-1.294788 -0.69671,0.696707 0.51201,1.531573 2.97382,2.053995 2.29002,0.485974 2.58593,0.645751 1.76107,0.950885 -0.63786,0.235969 -1.48734,0.147523 -2.38193,-0.247957 -2.43092,-1.074697 -2.93236,-1.160347 -2.93236,-0.500876 0,0.371187 0.75328,0.789743 1.8723,1.040348 2.57837,0.577401 2.75082,0.578534 4.15646,0.02731 z m 5.60881,-0.67802 c 0.15285,-0.398127 0.17877,-0.822861 0.0578,-0.943859 -0.3507,-0.350706 -1.57885,0.844973 -1.31178,1.2771 0.37803,0.611651 0.94972,0.459733 1.25401,-0.333241 z m 17.328,0.446197 c 1.08592,-0.291015 1.37462,-1.484497 0.35908,-1.484497 -1.17419,0 -2.94718,0.876259 -2.67244,1.32079 0.31078,0.502858 0.89383,0.544118 2.31336,0.163673 z m -16.18988,-0.603426 c 0,-0.242296 -0.0874,-0.440535 -0.19428,-0.440535 -0.1069,0 -0.31679,0.198239 -0.46653,0.440535 -0.14968,0.242313 -0.0623,0.440552 0.19426,0.440552 0.2566,0 0.46655,-0.198239 0.46655,-0.440552 z m -2.39281,-0.929873 c 0.1665,-0.269303 -0.26762,-0.952034 -0.96522,-1.518237 -1.07067,-0.868999 -1.34262,-0.931288 -1.75012,-0.400824 -0.39738,0.51731 -0.89669,0.241214 -2.83131,-1.56555 -2.55265,-2.383966 -2.85226,-2.52601 -3.23334,-1.532932 -0.17106,0.44583 0.2076,0.868349 1.16436,1.299211 1.88163,0.847337 4.27134,2.878837 3.40032,2.890609 -0.58739,0.0083 -0.58739,0.05644 0,0.435973 0.36345,0.234887 0.85906,0.427049 1.10136,0.427049 0.24229,0 0.17611,-0.167619 -0.14702,-0.372485 -0.47874,-0.303453 -0.466,-0.419157 0.0688,-0.624356 0.361,-0.138531 1.00307,0.131205 1.42684,0.599513 0.87795,0.970134 1.33204,1.063259 1.76544,0.362029 z m 18.14213,-0.439669 c 0.89703,-0.335555 1.41164,-1.27371 0.69872,-1.27371 -0.68819,0 -3.67235,1.52498 -3.67235,1.876653 0,0.368888 0.82063,0.202501 2.97363,-0.602943 z m 12.88584,0.488471 c 0,-0.242296 -0.60644,-0.440552 -1.34763,-0.440552 -0.78623,0 -1.2342,0.183521 -1.07535,0.440552 0.14969,0.242296 0.75618,0.440536 1.34761,0.440536 0.59146,0 1.07537,-0.19824 1.07537,-0.440536 z m -50.22166,-0.440552 c 0,-0.242296 -0.29737,-0.440535 -0.66082,-0.440535 -0.36344,0 -0.6608,0.198239 -0.6608,0.440535 0,0.242313 0.29736,0.440552 0.6608,0.440552 0.36345,0 0.66082,-0.198239 0.66082,-0.440552 z m 23.82432,-0.262576 c 0.50947,-0.613889 0.45081,-0.68377 -0.46223,-0.550684 -0.57517,0.08392 -1.12738,0.400265 -1.22711,0.703135 -0.26105,0.792607 0.9994,0.678868 1.68934,-0.152517 z m -2.09911,-0.344552 c 0.2261,-0.58919 -0.44298,-1.595571 -1.06078,-1.595571 -0.60943,0 -0.85561,1.480533 -0.30435,1.830331 0.80266,0.509301 1.09917,0.458318 1.36513,-0.23476 z m 14.27427,-0.554075 c 1.03787,-0.396361 1.88702,-0.991096 1.88702,-1.321622 0,-0.895989 -0.62872,-0.741591 -2.93446,0.720661 -2.30016,1.458728 -1.85993,1.711298 1.04744,0.600961 z m -3.75059,-0.191862 c 0.55657,-0.259579 1.55686,-1.361783 2.22287,-2.449318 0.74772,-1.220938 1.40571,-1.856948 1.7201,-1.662655 0.30127,0.186201 0.39024,0.122213 0.21787,-0.15668 -0.16018,-0.259213 0.17994,-1.033255 0.75586,-1.720082 0.57594,-0.686845 1.62454,-2.140887 2.33025,-3.231228 0.70569,-1.090339 1.57326,-2.048289 1.92793,-2.128777 0.85461,-0.193947 1.82969,-1.02139 1.54231,-1.30878 -0.12555,-0.125511 -0.65561,0.150536 -1.17797,0.613452 l -0.94975,0.84167 0.3447,-1.321623 c 0.4929,-1.889829 0.28923,-4.550587 -0.45907,-5.997649 -0.354,-0.684568 -0.59209,-1.473678 -0.52908,-1.753579 0.24244,-1.076931 -0.96857,-0.834811 -1.7247,0.344817 -0.43674,0.681361 -1.64685,2.297189 -2.68916,3.590726 -1.0423,1.293536 -2.69263,3.614697 -3.6674,5.158132 -1.11077,1.758793 -2.83069,3.637994 -4.60783,5.03461 -2.99286,2.35198 -3.15606,2.597823 -2.29589,3.457997 0.42583,0.425833 0.41997,0.731268 -0.0278,1.448232 -0.50216,0.804096 -0.47556,0.881054 0.2313,0.669112 0.43931,-0.131705 1.29433,0.04212 1.90007,0.386438 1.32098,0.750698 3.54397,0.8341 4.93537,0.185135 z m -4.93537,-1.243049 c 0,-0.695536 1.2402,-0.894741 1.49161,-0.239582 0.16051,0.41819 -0.0514,0.632997 -0.62434,0.632997 -0.477,0 -0.86727,-0.177044 -0.86727,-0.393415 z m 3.5203,-0.262543 c 0.55027,-0.663017 1.32566,-0.521806 1.32566,0.241414 0,0.227993 -0.42076,0.414544 -0.93502,0.414544 -0.77812,0 -0.84368,-0.110059 -0.39064,-0.655958 z m -4.55204,-0.522638 c -0.42753,-0.427532 -0.35252,-1.905201 0.0967,-1.905201 0.21263,0 0.61157,0.271068 0.88652,0.60236 0.37764,0.455054 0.354,0.723475 -0.0967,1.097542 -0.32816,0.272333 -0.72709,0.364726 -0.88652,0.205299 z m 2.47698,-0.473437 c -0.15918,-0.424018 -0.59893,-1.005399 -0.9774,-1.291968 -0.52383,-0.396628 -0.56581,-0.645135 -0.17581,-1.040931 0.66019,-0.670027 1.60823,-0.09407 1.2749,0.774475 -0.17043,0.444149 -0.0518,0.587225 0.35684,0.430412 0.91512,-0.351173 1.69837,0.589473 1.09559,1.315778 -0.66287,0.798702 -1.22933,0.731135 -1.57412,-0.187766 z m 2.82233,-0.90518 c -0.65108,-0.679585 -1.18377,-1.466331 -1.18377,-1.748338 0,-0.282007 -0.27731,-0.406335 -0.61626,-0.276279 -1.01746,0.390451 -1.18784,-0.530165 -0.25444,-1.374871 0.47888,-0.433392 0.87521,-0.608571 0.88072,-0.389285 0.005,0.219268 0.33198,-0.254551 0.72546,-1.052936 0.6425,-1.303663 2.03256,-1.852546 1.90214,-0.751088 -0.0286,0.242303 -0.33652,0.382283 -0.68408,0.311102 -0.34756,-0.07126 -0.63192,0.04446 -0.63192,0.256982 0,0.809357 0.61798,0.949787 1.33285,0.302837 0.62725,-0.567661 0.82204,-0.578267 1.24568,-0.06777 0.79135,0.953533 -0.88364,2.291173 -2.07239,1.654979 -1.15336,-0.617245 -1.24337,-0.604891 -1.55759,0.213974 -0.2033,0.529781 -0.0606,0.624855 0.61584,0.410165 1.12958,-0.358516 1.64261,0.824126 0.81531,1.879476 -0.54184,0.691173 -0.52582,0.707208 0.16533,0.165338 0.42093,-0.329977 1.06523,-0.484875 1.43175,-0.344229 0.76181,0.29233 0.88429,-0.203634 0.21547,-0.872429 -0.30756,-0.307582 -0.16417,-0.710471 0.45096,-1.267159 1.38814,-1.256254 2.13162,-0.224198 1.00693,1.397814 -0.47496,0.684979 -0.98871,1.592358 -1.1417,2.016376 -0.3998,1.108231 -1.28898,0.952101 -2.64632,-0.464645 z m 1.90001,0.354503 c 0,-0.242296 -0.20995,-0.440535 -0.46654,-0.440535 -0.2566,0 -0.34402,0.198239 -0.19426,0.440535 0.14968,0.242296 0.35968,0.440535 0.46652,0.440535 0.1069,0 0.19428,-0.198239 0.19428,-0.440535 z m -1.54189,-1.762158 c 0.14969,-0.242296 -0.0368,-0.440552 -0.41455,-0.440552 -0.37774,0 -0.68681,0.198256 -0.68681,0.440552 0,0.242296 0.18655,0.440535 0.41455,0.440535 0.22799,0 0.53706,-0.198239 0.68681,-0.440535 z m 3.3371,-1.002235 c -0.0545,-0.526751 -0.65874,-0.424734 -0.84806,0.143193 -0.0969,0.290765 0.0616,0.44936 0.35244,0.352438 0.29077,-0.0969 0.51378,-0.319953 0.49562,-0.495615 z m -5.09926,-0.319387 c 0.14969,-0.242297 0.0623,-0.440552 -0.19428,-0.440552 -0.25659,0 -0.46654,0.198255 -0.46654,0.440552 0,0.242296 0.0874,0.440535 0.19428,0.440535 0.10689,0 0.31679,-0.198239 0.46654,-0.440535 z m 3.74458,-1.321623 c 0,-0.242296 -0.0874,-0.440552 -0.19426,-0.440552 -0.10689,0 -0.31679,0.198256 -0.46654,0.440552 -0.14969,0.242296 -0.0623,0.440535 0.19426,0.440535 0.2566,0 0.46654,-0.198239 0.46654,-0.440535 z m 2.31624,-0.06277 c -0.3773,-0.377297 -0.21088,-0.901001 0.66501,-2.092569 0.64254,-0.874129 1.22915,-1.675231 1.30356,-1.780227 0.0744,-0.104997 0.36188,0.03568 0.63881,0.312614 0.37766,0.377659 0.20909,0.948421 -0.67441,2.283466 -1.328,2.006751 -1.25269,1.957017 -1.93297,1.276716 z m -2.27286,-1.948678 c -0.83001,-0.87479 -0.9423,-1.229142 -0.52102,-1.644417 0.4188,-0.41285 0.66231,-0.359683 1.10655,0.241605 0.31327,0.42402 0.81981,0.770947 1.12564,0.770947 0.41649,0 0.43233,-0.149071 0.0631,-0.593942 -0.37657,-0.45372 -0.27895,-0.7876 0.41349,-1.41424 0.74466,-0.67391 0.97337,-0.711986 1.28153,-0.213356 0.25234,0.408287 -0.0689,1.159556 -0.9817,2.295323 -0.74626,0.928607 -1.37321,1.684946 -1.39322,1.680767 -0.02,-0.005 -0.51252,-0.509395 -1.0944,-1.122687 z m 0.44704,-2.363203 c -0.44711,-0.276328 -0.46757,-0.571963 -0.0886,-1.280018 0.51711,-0.966246 1.80092,-0.865711 1.80092,0.141028 0,0.846811 -1.05237,1.546834 -1.71229,1.138987 z m 4.941,0.05874 c -0.3576,-0.221014 -0.26874,-0.604841 0.30373,-1.311819 0.95828,-1.183418 1.45916,-0.725155 0.719,0.657831 -0.29786,0.556545 -0.7316,0.83391 -1.02273,0.653988 z m -1.71054,-1.449574 c -0.16284,-0.263411 -0.0754,-0.699545 0.19427,-0.969191 0.36,-0.359991 0.49027,-0.342883 0.49027,0.06439 0,0.305056 0.21941,0.419046 0.48758,0.25331 0.34842,-0.215336 0.33498,-0.395634 -0.0471,-0.631743 -0.38471,-0.237759 -0.39702,-0.415438 -0.044,-0.633665 0.72206,-0.446254 1.11417,0.976263 0.47981,1.740628 -0.64432,0.776346 -1.1545,0.83396 -1.56097,0.176275 z m -1.9447,-1.393373 c 0.026,-1.017783 1.17259,-2.11673 1.91245,-1.832818 0.85794,0.329219 0.87507,0.596169 0.10356,1.612547 -0.67376,0.887576 -2.03674,1.036499 -2.01598,0.220271 z m 1.74816,-0.770946 c 0,-0.242298 -0.19824,-0.440542 -0.44054,-0.440542 -0.24229,0 -0.44055,0.198244 -0.44055,0.440542 0,0.242297 0.19826,0.44054 0.44055,0.44054 0.2423,0 0.44054,-0.198243 0.44054,-0.44054 z m 2.6479,0.22588 c -0.58794,-0.708409 -0.31627,-1.988045 0.42206,-1.988045 0.2499,0 0.45437,0.594731 0.45437,1.321623 0,1.500877 -0.11272,1.586604 -0.87643,0.666422 z m -2.13574,-1.681477 c -0.38962,-0.469455 -0.25981,-0.830596 0.5832,-1.622557 1.00173,-0.941091 1.10735,-0.958767 1.38622,-0.232015 0.5636,1.468709 -1.03798,2.976888 -1.96942,1.854572 z m 1.48839,-0.776418 c 0.47414,-0.767177 -0.0659,-0.929648 -0.67009,-0.201606 -0.34748,0.418682 -0.38091,0.671456 -0.0888,0.671456 0.25767,0 0.59915,-0.211431 0.75888,-0.46985 z M 228.91223,84.52474 c 0.14969,-0.242296 -0.14769,-0.440535 -0.66082,-0.440535 -0.5132,0 -0.81056,0.198239 -0.6608,0.440535 0.14968,0.242296 0.44711,0.440536 0.6608,0.440536 0.21369,0 0.51107,-0.19824 0.66082,-0.440536 z m -23.51274,-0.770945 c 0.55948,-0.713418 0.54092,-0.721626 -0.24883,-0.110225 -0.78997,0.611684 -0.82654,0.5953 -0.49185,-0.220268 0.19887,-0.484592 0.34438,-1.268424 0.32337,-1.741861 -0.021,-0.47342 0.1665,-1.107332 0.41652,-1.408687 0.31293,-0.377064 0.31068,-0.795504 -0.007,-1.341919 -0.42117,-0.723941 -0.46313,-0.706542 -0.47533,0.197207 -0.015,1.126813 -0.13937,1.171136 -1.47412,0.526367 -0.91013,-0.439669 -0.91759,-0.428946 -0.13787,0.197757 0.60318,0.484808 0.74615,0.974196 0.53288,1.82393 -0.31444,1.252857 0.0221,2.848561 0.60094,2.848561 0.19631,0 0.629,-0.346927 0.96155,-0.770945 z m 37.17809,-1.445667 c 0.12438,-0.201154 0.0117,-0.497996 -0.24944,-0.659621 -0.51435,-0.317889 -2.01151,0.853198 -2.67451,2.092018 -0.35657,0.666264 -0.20572,0.646533 1.14356,-0.14952 0.8549,-0.50439 1.65606,-1.081675 1.78039,-1.282844 z m 10.78466,1.776077 c 0,-0.242296 -0.0874,-0.440552 -0.19428,-0.440552 -0.1069,0 -0.31679,0.198256 -0.46653,0.440552 -0.14968,0.242296 -0.0623,0.440535 0.19426,0.440535 0.2566,0 0.46655,-0.198239 0.46655,-0.440535 z m 2.42297,-0.881087 c -0.12904,-0.208812 -0.0331,-0.504173 0.2131,-0.656374 0.61957,-0.382925 0.56448,-1.986871 -0.0683,-1.986871 -0.28379,0 -0.88707,0.335821 -1.34059,0.746252 -0.77715,0.703312 -0.80729,0.701197 -0.52409,-0.0368 0.16534,-0.430712 0.71898,-0.952201 1.23045,-1.158865 0.9212,-0.372219 0.92062,-0.376015 -0.0613,-0.403672 -0.54517,-0.01498 -1.00687,-0.27573 -1.026,-0.5786 -0.0278,-0.440552 -0.0793,-0.440552 -0.25698,0 -0.12221,0.30287 -0.49683,0.550661 -0.83249,0.550661 -0.3882,0 -0.5079,0.266756 -0.32896,0.733082 0.20427,0.532296 0.12155,0.634313 -0.30215,0.372486 -0.39113,-0.24173 -0.47838,-0.19058 -0.26471,0.155181 0.17533,0.283689 0.50333,0.40174 0.72889,0.262343 0.22554,-0.139363 0.4101,0.253851 0.4101,0.873894 0,1.38616 0.2859,1.415581 1.32322,0.1362 0.442,-0.545166 0.92927,-0.866135 1.0828,-0.713251 0.15352,0.15285 -0.0403,0.597398 -0.43069,0.987832 -0.71935,0.719346 -0.50233,1.828427 0.26501,1.354191 0.2295,-0.141861 0.31169,-0.428747 0.18263,-0.637559 z m -35.95993,-1.211481 c -1.41657,-2.319795 -3.02794,-3.501887 -3.02794,-2.221291 0,0.614082 3.07104,3.873307 3.64968,3.873307 0.21287,0 -0.0669,-0.743405 -0.62174,-1.652016 z m 7.54404,-0.04662 0.001,-1.478352 -1.32162,1.414798 c -0.72689,0.778138 -1.32162,1.464516 -1.32162,1.525256 0,0.06077 0.59428,0.08941 1.32062,0.0636 1.19525,-0.04246 1.32071,-0.187267 1.32162,-1.525257 z m 1.62631,-0.393964 c -0.11089,-0.424018 -0.20147,-0.07709 -0.20147,0.770945 0,0.848053 0.0907,1.19498 0.20147,0.770962 0.11072,-0.424035 0.11072,-1.117872 0,-1.541907 z m 1.45849,1.159498 c 0,-0.242296 -0.19826,-0.318022 -0.44055,-0.168268 -0.2423,0.149686 -0.44054,0.470506 -0.44054,0.712802 0,0.242296 0.19824,0.318021 0.44054,0.168268 0.24229,-0.149687 0.44055,-0.470506 0.44055,-0.712802 z m 22.22405,0.01498 c -0.14186,-0.229508 -0.44568,-0.301238 -0.67519,-0.159344 -0.2295,0.141862 -0.30122,0.445681 -0.15934,0.675189 0.14186,0.229509 0.44566,0.301222 0.67517,0.159344 0.22951,-0.141861 0.30124,-0.44568 0.15935,-0.675189 z m 4.90815,-1.612171 c -0.48125,-0.481245 -0.81124,0.284089 -0.46573,1.080126 0.32761,0.754794 0.35137,0.754111 0.53391,-0.01499 0.10506,-0.442982 0.0744,-0.92208 -0.0681,-1.06464 z m -28.91975,-5.288005 c 0.025,-3.141847 -0.12505,-3.446627 -1.4472,-2.939285 -0.4925,0.188988 -0.59961,0.671677 -0.41544,1.872298 0.13653,0.889715 0.43314,1.853433 0.65928,2.141618 0.22615,0.288168 0.36699,1.081141 0.31298,1.762158 -0.054,0.681016 -0.0455,1.832938 0.019,2.559843 0.11006,1.241967 0.13903,1.21541 0.4816,-0.440552 0.20047,-0.969184 0.37591,-3.199417 0.38987,-4.95608 z m -26.80189,5.045859 c -0.56543,-0.565413 -1.13882,-0.128374 -0.72021,0.548912 0.16217,0.262377 0.49665,0.352305 0.74332,0.199855 0.30089,-0.185952 0.29328,-0.432377 -0.0231,-0.748767 z m 1.71644,0.324765 c 0,-0.377747 -0.20147,-0.562283 -0.44773,-0.410098 -0.24624,0.152184 -0.33366,0.461248 -0.19426,0.686811 0.37765,0.611051 0.64199,0.497113 0.64199,-0.276713 z m 3.08379,0.246276 c 0,-0.242296 -0.19825,-0.440552 -0.44055,-0.440552 -0.24229,0 -0.44053,0.198256 -0.44053,0.440552 0,0.242296 0.19824,0.440535 0.44053,0.440535 0.2423,0 0.44055,-0.198239 0.44055,-0.440535 z m 23.45868,-4.07501 c 0.12421,-1.756653 0.37747,-3.56095 0.56275,-4.009545 0.26716,-0.646829 0.16401,-0.782562 -0.49836,-0.655855 -0.7319,0.140013 -0.85097,0.635992 -0.96251,4.009542 -0.15335,4.637159 0.57873,5.171753 0.89812,0.655858 z m -11.40476,1.652032 c -0.26812,-0.698682 -1.0404,-0.916702 -1.0404,-0.293695 0,0.465877 0.48154,0.954498 0.94068,0.954498 0.19431,0 0.23918,-0.297359 0.0997,-0.660803 z m 13.23001,-2.42684 0.65,-2.419109 0.0446,1.982437 c 0.0438,1.945212 0.0564,1.961745 0.67419,0.88107 0.36487,-0.638275 0.63614,-0.827706 0.6452,-0.450542 0.0117,0.451741 0.36907,0.297326 1.17127,-0.504869 1.14203,-1.142023 1.09651,-2.410669 -0.0704,-1.962878 -0.32329,0.124062 -0.6535,0.02844 -0.7338,-0.21248 -0.18359,-0.550761 -2.84588,-0.997628 -3.12216,-0.524055 -0.11256,0.192926 -0.34549,1.738479 -0.51764,3.434557 -0.36907,3.636039 0.25125,3.525597 1.25875,-0.224131 z m -24.40286,1.094112 c 0,-1.91812 -0.45006,-2.41187 -2.19848,-2.41187 -1.42473,0 -1.6939,0.158162 -1.87419,1.101353 -0.24496,1.281396 -0.0326,1.364964 1.0285,0.404704 0.70553,-0.638508 0.84499,-0.621458 1.67065,0.2042 0.49547,0.495465 0.71978,1.012758 0.49848,1.149524 -0.2213,0.1367 -0.62051,-0.158844 -0.88711,-0.657073 -0.26661,-0.498179 -0.67304,-0.789394 -0.90319,-0.647149 -0.62861,0.388502 -0.5031,1.087684 0.19525,1.087684 0.33752,0 0.7265,0.294029 0.8644,0.653394 0.37408,0.974862 1.60569,0.296227 1.60569,-0.884767 z m 45.37572,1.112461 c -0.36344,-0.234887 -1.0573,-0.427049 -1.54189,-0.427049 -0.7296,0 -0.76748,0.07343 -0.22028,0.427049 0.36346,0.23487 1.05729,0.427048 1.5419,0.427048 0.72959,0 0.76747,-0.07343 0.22027,-0.427048 z m 4.4054,-0.220268 c 0.68447,-0.824742 0.12105,-0.824742 -1.32162,0 -1.03742,0.593036 -1.04694,0.630483 -0.164,0.645202 0.51549,0.0083 1.18405,-0.281758 1.48569,-0.645202 z m -52.8649,-0.220284 c 0,-0.242296 -0.5073,-0.440536 -1.12734,-0.440536 -0.63939,0 -1.00951,0.19068 -0.85508,0.440536 0.14968,0.242312 0.65704,0.440552 1.12734,0.440552 0.47029,0 0.85508,-0.19824 0.85508,-0.440552 z m 45.3757,-0.686811 c 0,-0.37773 -0.20147,-0.562283 -0.44771,-0.410098 -0.24626,0.152184 -0.33369,0.461265 -0.19427,0.68681 0.37764,0.611052 0.64198,0.497114 0.64198,-0.276712 z m 1.76218,-0.841243 c 0,-0.394114 -0.2583,-0.54788 -0.66082,-0.393415 -0.36344,0.13953 -0.6608,0.430612 -0.6608,0.646983 0,0.216372 0.29736,0.393415 0.6608,0.393415 0.36344,0 0.66082,-0.291148 0.66082,-0.646983 z M 209.52843,76.5963 c 0.14968,-0.242296 0.0506,-0.440535 -0.22027,-0.440535 -0.2709,0 -0.38144,-0.179759 -0.24566,-0.399461 0.1357,-0.219701 -0.1362,-0.299288 -0.60434,-0.17686 -0.50624,0.132387 -0.75518,0.472809 -0.61428,0.839996 0.27424,0.714667 1.28649,0.820946 1.68455,0.17686 z m 40.21145,-1.12633 c 1.0736,-0.751974 1.29414,-1.525299 0.42843,-1.502256 -0.58907,0.01565 -2.5331,1.49552 -2.5331,1.928257 0,0.48822 1.12437,0.260626 2.10467,-0.426001 z M 226.3161,75.018382 c -0.14702,-0.383263 -0.2674,-0.977994 -0.2674,-1.321622 0,-0.728167 -1.13531,-0.842117 -1.55904,-0.15648 -0.31018,0.501865 0.97791,2.174945 1.67446,2.174945 0.23066,0 0.29906,-0.31358 0.15202,-0.696843 z m -15.54614,-0.03074 c 0.15785,-0.157862 -0.23509,-0.557897 -0.87321,-0.88896 -1.40691,-0.729917 -2.02633,-0.320587 -0.8341,0.551196 0.94995,0.694628 1.28429,0.760773 1.70731,0.337764 z m 38.28911,-1.034594 c 0.48347,-0.77418 1.02736,-0.881082 4.48256,-0.881082 2.16278,0 3.79475,-0.137582 3.6266,-0.305727 -0.16816,-0.168149 -2.08308,-0.329178 -4.25537,-0.357843 -3.78591,-0.04995 -3.99885,-7.48e-4 -5.13662,1.186809 -1.15279,1.20326 -1.15933,1.238925 -0.22719,1.238925 0.52788,0 1.20738,-0.396486 1.51002,-0.881082 z m -11.99684,-0.405135 c 0,-0.222825 -0.96597,-0.725977 -2.14658,-1.118116 -2.90943,-0.966358 -9.0355,-1.000351 -11.06964,-0.06142 l -1.54189,0.711713 1.54189,-0.326338 c 2.95176,-0.624737 9.37092,-0.397773 10.79324,0.381621 1.52922,0.837976 2.42298,0.990149 2.42298,0.412544 z m 20.26487,-1.797569 c 0,-0.242297 -0.34692,-0.454474 -0.77094,-0.471504 -0.66552,-0.02672 -0.65045,-0.08791 0.11022,-0.447312 0.76842,-0.363113 0.73918,-0.389507 -0.22872,-0.206433 -0.69039,0.130573 -1.83807,-0.203742 -3.03678,-0.88462 -1.05983,-0.601992 -2.00264,-1.018856 -2.09513,-0.926363 -0.51989,0.519904 1.74193,2.227807 3.61676,2.731011 1.20142,0.322462 2.23396,0.599674 2.29454,0.616028 0.0606,0.01632 0.11005,-0.16851 0.11005,-0.410807 z M 211.295,70.43332 c -0.69399,-0.724364 -1.35964,-1.219191 -1.47922,-1.099614 -0.29077,0.290772 1.72794,2.416642 2.29483,2.416642 0.2454,0 -0.12154,-0.592662 -0.81561,-1.317028 z m 37.63942,0.144093 c 0.50746,-0.645112 1.04047,-1.642385 1.18448,-2.216162 0.19514,-0.777535 0.4732,-0.976141 1.09176,-0.779815 0.85515,0.271411 1.0222,-0.103998 0.57032,-1.281578 -0.22687,-0.591219 -0.46231,-0.567969 -1.86577,0.18424 -0.88338,0.473461 -1.8218,0.860838 -2.08539,0.860838 -0.28567,0 -0.46624,0.889534 -0.44706,2.202397 0.0177,1.211319 0.1665,2.202535 0.33061,2.202705 0.16417,1.68e-4 0.71362,-0.527512 1.22105,-1.172625 z m 1.94996,0.19384 c 0.89964,-1.435293 -0.31737,-1.648914 -1.44292,-0.253275 l -1.05727,1.310958 1.01228,-0.149437 c 0.55674,-0.08219 1.2263,-0.4909 1.48791,-0.908253 z m 2.03732,0.805954 c 0,-0.417911 -1.31871,-0.628528 -1.55379,-0.248162 -0.1432,0.231715 0.14785,0.421299 0.6467,0.421299 0.49889,0 0.90709,-0.07791 0.90709,-0.173137 z m -45.81625,-0.6667 c 0,-0.219614 -0.39648,-0.295614 -0.88109,-0.16889 -0.48459,0.126726 -0.88107,0.306408 -0.88107,0.399297 0,0.09289 0.39648,0.16889 0.88107,0.16889 0.48461,0 0.88109,-0.179684 0.88109,-0.399297 z m 31.94279,-0.916538 c -0.14769,-0.239112 -1.3985,-0.784282 -2.77938,-1.211487 -3.37983,-1.045618 -12.78422,-1.033603 -15.0661,0.01925 -1.93226,0.891533 -1.45794,0.912759 2.39277,0.107078 3.72073,-0.778477 8.7843,-0.515633 12.41636,0.644518 3.03946,0.970861 3.39603,1.022607 3.03635,0.440636 z m 15.63562,-1.154897 c 0,-0.535827 0.2685,-0.641181 1.10135,-0.432149 0.83855,0.210464 1.10136,0.104481 1.10136,-0.444163 0,-0.543974 -0.24295,-0.645811 -0.99123,-0.415502 -0.54517,0.167794 -1.58595,0.448549 -2.31284,0.623899 -1.24786,0.301024 -1.27243,0.347582 -0.44053,0.834253 1.20167,0.70299 1.54189,0.666288 1.54189,-0.166338 z m 2.99308,-0.896666 c -0.12837,-0.605663 -0.23916,-0.494883 -0.42714,0.42715 -0.16384,0.803908 -0.10257,1.09358 0.17333,0.817741 0.23493,-0.234933 0.34914,-0.795133 0.25381,-1.244891 z m -53.65527,0.503882 c 0,-0.363446 -0.30907,-0.660811 -0.68681,-0.660811 -0.40697,0 -0.55874,-0.207232 -0.37249,-0.508607 0.18484,-0.299052 0.12188,-0.389627 -0.15285,-0.219833 -0.63904,0.394945 -0.15235,2.050062 0.60276,2.050062 0.33519,0 0.60944,-0.297364 0.60944,-0.660811 z m 2.05067,-0.019 c 0.14353,-0.373896 0.16567,-0.77505 0.0493,-0.891452 -0.39248,-0.392474 -1.65938,0.33862 -1.65938,0.957585 0,0.833654 1.28513,0.780871 1.61014,-0.06614 z m 34.07367,0.269269 c 0,-0.225798 -0.55589,-0.806368 -1.23531,-1.290156 -1.21376,-0.864282 -1.24448,-0.864908 -1.76215,-0.03598 -0.7063,1.130945 -0.68219,1.204937 0.46436,1.425771 1.79481,0.345695 2.5331,0.316655 2.5331,-0.09964 z m -17.25129,-0.911081 c 0.6519,0 0.81127,-0.219956 0.63839,-0.88108 -0.29013,-1.109474 -0.60582,-1.104552 -2.05067,0.03197 -1.36398,1.072911 -1.57979,1.985441 -0.30865,1.305149 0.46867,-0.250823 1.24308,-0.456042 1.72093,-0.456042 z m -13.64046,-0.603442 c 0.90834,-0.966885 0.92215,-1.060796 0.18692,-1.271642 -0.43661,-0.12521 -1.14077,-0.37048 -1.56479,-0.545041 -0.65039,-0.267759 -0.77094,-0.06893 -0.77094,1.271642 0,1.881697 0.72123,2.064635 2.14881,0.545041 z m 32.21337,0.239695 c 0,-1.391499 -4.52573,-3.475925 -6.27079,-2.888143 -0.54896,0.184909 -1.27843,0.347939 -1.62101,0.362287 -0.3426,0.01432 -0.71657,0.305482 -0.83107,0.646964 -0.14319,0.42716 0.0168,0.534564 0.51276,0.344232 0.46586,-0.178767 0.72091,-0.04774 0.72091,0.370342 0,0.957298 0.74223,0.785051 1.00873,-0.234098 0.32677,-1.249504 1.63399,-1.096058 3.64861,0.428286 1.70913,1.293185 2.83186,1.677811 2.83186,0.97013 z m -35.90407,-0.517323 c 0.14969,-0.242298 0.0741,-0.440542 -0.16827,-0.440542 -0.2423,0 -0.56307,0.198244 -0.71282,0.440542 -0.14969,0.242297 -0.0741,0.44054 0.16827,0.44054 0.2423,0 0.56307,-0.198243 0.71282,-0.44054 z m 21.54272,-0.991218 0.61954,-1.431758 0.32337,1.459293 c 0.22295,1.0061 0.46503,1.317638 0.77949,1.003166 0.31447,-0.314472 0.2986,-0.801867 -0.0511,-1.569427 -0.76778,-1.685085 -1.93988,-1.321845 -2.44915,0.758997 -0.40336,1.648119 0.0215,1.527837 0.77787,-0.220271 z m 2.77204,-0.211886 c -0.11173,-0.428632 -0.21043,-0.184601 -0.21941,0.542292 -0.008,0.726892 0.0824,1.077592 0.20309,0.779331 0.12071,-0.298262 0.12804,-0.892991 0.0166,-1.321623 z m 1.3081,0.211886 c -0.12222,-0.302872 -0.2222,-0.05506 -0.2222,0.550676 0,0.605745 0.0999,0.853549 0.2222,0.550677 0.12221,-0.302872 0.12221,-0.798481 0,-1.101353 z m 5.55176,1.168418 c 0.42872,-0.428711 -0.15984,-1.498823 -0.82444,-1.498823 -0.33752,0 -0.61368,0.396487 -0.61368,0.881081 0,0.829356 0.85797,1.197893 1.43812,0.617742 z m 17.94568,-1.058283 c 0,-1.116037 -0.17132,-1.321622 -1.10136,-1.321622 -0.72222,0 -1.10135,0.246044 -1.10135,0.714753 0,0.615792 0.1029,0.631042 0.7433,0.110143 0.65766,-0.534967 0.7067,-0.507174 0.42562,0.241242 -0.19479,0.51866 -0.0989,0.984685 0.24793,1.204742 0.795,0.504442 0.78586,0.515477 0.78586,-0.949251 z m -49.46901,-0.330404 c 0.15651,-0.424022 0.49715,-0.916594 0.75711,-1.094607 0.25998,-0.178014 -0.14419,-0.326695 -0.89799,-0.330406 -1.22573,-0.006 -1.3484,0.109709 -1.16013,1.094606 0.24431,1.278067 0.89078,1.442245 1.30101,0.330407 z m 45.36944,-0.292928 c 1.64429,-1.415241 1.08377,-1.849944 -0.92821,-0.719879 -0.88393,0.496469 -1.89847,0.902671 -2.25454,0.902671 -0.35608,0 -0.64742,0.198243 -0.64742,0.44054 0,0.858183 2.60061,0.434953 3.83017,-0.623332 z m -9.11666,0.182792 c 0,-0.242298 -0.20994,-0.440542 -0.46654,-0.440542 -0.2566,0 -0.34401,0.198244 -0.19426,0.440542 0.14969,0.242298 0.35968,0.44054 0.46653,0.44054 0.10689,0 0.19427,-0.198242 0.19427,-0.44054 z M 210.2349,64.91096 c -0.0503,-1.0587 -2.94275,-1.971228 -6.20637,-1.958025 -2.53853,0.01032 -3.12448,0.121831 -2.51173,0.478247 0.43957,0.255666 1.97632,0.39832 3.41501,0.317008 1.69477,-0.09579 2.61551,0.02235 2.61499,0.335516 -8.5e-4,0.509049 1.72421,1.499475 2.34507,1.346394 0.19989,-0.04928 0.35425,-0.2829 0.34303,-0.51914 z m 45.99085,0.231283 c 0.14969,-0.242296 0.0623,-0.44054 -0.19426,-0.44054 -0.2566,0 -0.46654,0.198244 -0.46654,0.44054 0,0.242298 0.0874,0.440542 0.19426,0.440542 0.10689,0 0.3168,-0.198244 0.46654,-0.440542 z m -12.65764,-0.88108 c 0.3048,-0.488066 0.35898,-0.881083 0.12138,-0.881083 -0.23583,0 -0.64097,0.396487 -0.90032,0.881083 -0.25934,0.484593 -0.31401,0.88108 -0.12138,0.88108 0.19253,0 0.59768,-0.396487 0.90032,-0.88108 z m -1.67269,0.0172 c 1.07175,-0.677793 0.40493,-0.83802 -3.73979,-0.898627 -5.37009,-0.07852 -5.49882,-0.06723 -5.49882,0.482218 0,0.31919 0.70649,0.390447 2.09257,0.211058 1.15092,-0.148954 2.6873,-0.08547 3.41421,0.141062 1.74719,0.544517 2.93998,0.565063 3.73183,0.06429 z m 14.9067,-0.490788 c -0.0867,-0.26047 -0.30157,-0.458714 -0.47725,-0.440542 -0.17566,0.01816 -1.22319,0.03303 -2.32782,0.03303 -1.22678,0 -1.90247,0.171454 -1.73617,0.44054 0.37627,0.608811 4.74461,0.577029 4.54124,-0.03303 z m -37.08216,14.23733 c -1.83397,-2.360672 -4.46671,-5.737498 -5.8505,-7.504072 -2.24783,-2.86959 -2.47155,-3.33916 -2.09895,-4.405408 0.31401,-0.898563 0.75432,-1.226482 1.78193,-1.327109 1.5644,-0.153183 2.26473,0.560663 5.37736,5.481137 1.06123,1.677614 2.98893,3.904996 4.33176,5.005223 3.33655,2.733729 3.54766,3.234555 2.09633,4.973286 -0.64941,0.778004 -1.43334,1.56182 -1.74209,1.741811 -0.37825,0.2205 -1.64897,-1.07275 -3.89584,-3.964868 z m 4.12605,3.223077 c 0,-0.106895 -0.19826,-0.31679 -0.44056,-0.466543 -0.24229,-0.149687 -0.44053,-0.06227 -0.44053,0.194277 0,0.256598 0.19824,0.466543 0.44053,0.466543 0.2423,0 0.44056,-0.08742 0.44056,-0.194277 z m 0.44053,-1.788165 c 0,-0.363444 0.20995,-0.660803 0.46654,-0.660803 0.2566,0 0.32394,0.247807 0.14969,0.550677 -0.17429,0.30287 -0.14719,0.396245 0.0601,0.207514 0.2074,-0.188732 0.42172,-0.6473 0.47627,-1.019019 0.0887,-0.604425 -0.0117,-0.603526 -0.94526,0.0083 -0.97388,0.638108 -1.08935,0.620259 -1.7089,-0.264258 -0.67274,-0.960476 -0.57293,-1.686116 0.23191,-1.686116 0.2423,0 0.31802,0.19824 0.16827,0.440536 -0.4086,0.661136 0.15918,1.31746 0.89519,1.034986 0.90576,-0.347576 0.80508,-0.919216 -0.26254,-1.49059 -0.64494,-0.345162 -1.0737,-0.350124 -1.47503,-0.01698 -0.41554,0.344879 -0.76659,0.247641 -1.32215,-0.366241 -0.49525,-0.547252 -0.59439,-0.935915 -0.28714,-1.125801 0.79153,-0.489194 0.52241,-0.970653 -0.52199,-0.933797 -0.60292,0.02128 -0.99121,-0.223876 -0.99121,-0.625832 0,-0.363446 -0.35493,-0.925467 -0.78874,-1.248937 -0.48441,-0.361202 -0.68991,-0.899546 -0.53258,-1.395247 0.20318,-0.640198 0.0733,-0.759274 -0.62859,-0.575755 -0.4866,0.127259 -1.13903,0.544425 -1.44984,0.927054 -0.47763,0.588004 -0.45219,0.653423 0.1645,0.422643 1.05918,-0.396404 2.30538,1.067649 1.57728,1.852987 -0.44164,0.476357 -0.40011,0.536649 0.21956,0.318768 0.85465,-0.300496 1.67766,0.852871 1.32179,1.852378 -0.12621,0.354564 -0.0213,0.490529 0.24938,0.323218 0.25698,-0.158828 0.59177,-0.0873 0.74395,0.158944 0.15218,0.246259 0.0551,0.447729 -0.21582,0.447729 -0.2709,0 -0.35695,0.219418 -0.19121,0.487572 0.21563,0.348892 0.3854,0.351556 0.59691,0.01 0.1912,-0.309363 0.56065,-0.168634 1.04628,0.398544 0.83463,0.974778 0.9858,1.504543 0.31018,1.086985 -0.2423,-0.149687 -0.44054,-0.07409 -0.44054,0.168269 0,0.242296 0.19824,0.563065 0.44054,0.712802 0.24229,0.149687 0.44053,0.05062 0.44053,-0.220268 0,-0.270901 0.20149,-0.368023 0.44773,-0.215822 0.24626,0.152184 0.33367,0.461248 0.19428,0.686811 -0.13937,0.225546 0.15468,0.410098 0.65362,0.410098 0.5126,0 0.90708,-0.287385 0.90708,-0.660819 z m -2.16966,-3.865748 c -0.0544,-0.526756 -0.65874,-0.424741 -0.84805,0.143176 -0.0969,0.290757 0.0616,0.44936 0.35244,0.352432 0.29076,-0.09692 0.51378,-0.319942 0.49561,-0.495608 z m -6.64116,-5.165342 c 0,-0.242296 -0.19824,-0.440541 -0.44054,-0.440541 -0.24229,0 -0.44053,0.198245 -0.44053,0.440541 0,0.242297 0.19824,0.440542 0.44053,0.440542 0.2423,0 0.44054,-0.198245 0.44054,-0.440542 z m 2.09252,-1.578664 c -0.41983,-0.419818 -1.26148,0.260183 -0.94862,0.766409 0.18595,0.30089 0.43237,0.29329 0.74876,-0.02309 0.25936,-0.259371 0.34931,-0.593862 0.19986,-0.74331 z m -1.45644,-0.05763 c 0.11955,-0.311525 -0.0495,-0.566409 -0.37569,-0.566409 -0.32618,0 -0.80457,0.254884 -1.06312,0.566409 -0.35527,0.428067 -0.26351,0.56641 0.3757,0.56641 0.46516,0 0.94357,-0.254884 1.06311,-0.56641 z m -1.07502,-0.928283 c 1.03637,-0.222619 1.61036,-0.959749 0.74732,-0.959749 -0.4119,0 -0.74892,0.209943 -0.74892,0.46654 0,0.256597 -0.20147,0.34202 -0.44772,0.189829 -0.24625,-0.152184 -0.33368,-0.461255 -0.19428,-0.686809 0.13936,-0.225556 0.0435,-0.410102 -0.21308,-0.410102 -0.25659,0 -0.46654,-0.209942 -0.46654,-0.466539 0,-0.256597 0.19824,-0.344019 0.44054,-0.194272 0.24229,0.149754 0.44055,0.07464 0.44055,-0.166891 0,-0.241539 -0.36603,-0.411589 -0.81337,-0.377892 -0.58431,0.04402 -0.80143,0.392432 -0.77095,1.237167 0.03,0.829236 0.23724,1.117184 0.70323,0.97674 0.48867,-0.147272 0.46177,-0.035 -0.10323,0.431041 -0.42026,0.346609 -0.62394,0.770359 -0.45264,0.941665 0.17131,0.171307 0.51588,0.05258 0.7657,-0.263828 0.24982,-0.316414 0.75086,-0.639018 1.11344,-0.7169 z"
       id="path2300" />
  </g>
</svg>
