<?xml version="1.0" encoding="UTF-8" standalone="no"?>
<!-- Created with Inkscape (http://www.inkscape.org/) -->

<svg
   width="114.0836mm"
   height="110.60852mm"
   viewBox="0 0 114.08364 110.60851"
   version="1.1"
   id="svg5"
   inkscape:version="1.1 (c4e8f9ed74, 2021-05-24)"
   sodipodi:docname="ornatef2.svg"
   xmlns:inkscape="http://www.inkscape.org/namespaces/inkscape"
   xmlns:sodipodi="http://sodipodi.sourceforge.net/DTD/sodipodi-0.dtd"
   xmlns="http://www.w3.org/2000/svg"
   xmlns:svg="http://www.w3.org/2000/svg">
  <sodipodi:namedview
     id="namedview7"
     pagecolor="#ffffff"
     bordercolor="#666666"
     borderopacity="1.0"
     inkscape:pageshadow="2"
     inkscape:pageopacity="0.0"
     inkscape:pagecheckerboard="0"
     inkscape:document-units="mm"
     showgrid="false"
     inkscape:zoom="0.66903058"
     inkscape:cx="281.75095"
     inkscape:cy="601.61674"
     inkscape:window-width="2506"
     inkscape:window-height="1403"
     inkscape:window-x="1974"
     inkscape:window-y="0"
     inkscape:window-maximized="1"
     inkscape:current-layer="layer1" />
  <defs
     id="defs2" />
  <g
     inkscape:label="Layer 1"
     inkscape:groupmode="layer"
     id="layer1"
     transform="translate(-60.848249,-83.997684)">
    <path
       style="fill:#000000;stroke-width:0.56499"
       d="m 62.127752,193.18484 c -0.68452,-1.04472 -1.00227,-2.4623 -0.93129,-4.15497 0.0592,-1.41308 0.13261,-3.20485 0.16293,-3.98171 0.0303,-0.77685 -0.10399,-2.31441 -0.29868,-3.41676 -0.30912,-1.75071 -0.11979,-2.23324 1.49679,-3.81369 1.01786,-0.99516 1.61024,-1.80939 1.31634,-1.80939 -0.89214,0 -1.84964,-2.92851 -2.032,-6.21491 -0.17766,-3.20049 0.31495,-4.79792 1.29298,-4.19345 0.30695,0.18962 1.17924,0.18898 1.93843,-0.002 1.20516,-0.30231 1.38037,-0.66545 1.38037,-2.86081 0,-1.3913 0.46374,-3.34239 1.03819,-4.3679 0.571,-1.01937 0.96848,-2.10766 0.88328,-2.4184 -0.0852,-0.31074 -0.44331,-2.0269 -0.79575,-3.81369 -0.42224,-2.1405 -0.91626,-3.24869 -1.44827,-3.24869 -0.44408,0 -0.80742,-0.35418 -0.80742,-0.78704 0,-0.43287 -0.38138,-0.93339 -0.8475,-1.11225 -1.29204,-0.49582 -0.98064,-3.25612 0.58252,-5.16309 0.94224,-1.14955 1.39025,-1.40499 1.39215,-0.79381 0.002,0.90526 2.06944,3.15462 2.4997,2.72073 0.12641,-0.1277 0.0192,-1.37607 -0.23947,-2.77442 -0.35473,-1.92107 -0.27369,-2.76045 0.33152,-3.43442 0.44056,-0.49059 0.80099,-1.15865 0.80099,-1.48455 0,-0.32591 0.38138,-0.90908 0.8475,-1.29593 1.38722,-1.15128 0.98222,-1.81434 -0.86097,-1.40952 -1.22756,0.26962 -2.27038,0.0438 -3.70475,-0.80259 -2.54142,-1.49947 -3.28114,-1.51365 -2.49666,-0.0478 0.48461,0.90552 0.42966,1.12999 -0.2766,1.12999 -0.48476,0 -1.12931,-0.65217 -1.43236,-1.44927 -0.92813,-2.44113 -0.6936,-3.07066 1.14395,-3.07066 1.22416,0 1.69498,-0.26904 1.69498,-0.96856 0,-0.91123 0.0579,-0.91068 0.97769,0.009 0.80588,0.80585 0.85653,1.17171 0.28821,2.08171 -0.5814,0.93099 -0.51909,1.1952 0.39766,1.68583 1.35696,0.72623 4.93813,0.76226 5.37582,0.054 0.77165,-1.24855 -1.5809,-5.19948 -4.14285,-6.95764 -1.43772,-0.98666 -3.01155,-2.28129 -3.49741,-2.87696 -0.83477,-1.02343 -0.88139,-0.96244 -0.84733,1.10846 0.0192,1.20533 0.24166,2.50931 0.49298,2.89774 0.29765,0.46005 0.14499,0.70624 -0.43789,0.70624 -1.2242,0 -2.16111,-2.59227 -1.43039,-3.95764 0.37875,-0.70769 0.37877,-1.17479 8e-5,-1.40883 -0.62992,-0.3893 -0.75241,-2.53151 -0.22357,-3.90968 0.54463,-1.41925 1.75679,-1.04169 2.57257,0.80129 0.73076,1.6509 1.60441,2.26621 1.60441,1.12997 0,-0.31075 0.38136,-0.56499 0.8475,-0.56499 1.05971,0 1.06482,-1.32696 0.0171,-4.23742 -1.24066,-3.44375 -1.10086,-4.21829 0.83119,-4.60469 2.55094,-0.51018 2.25688,-2.14556 -0.4109,-2.28506 -2.29675,-0.12001 -3.54403,-1.30366 -3.54403,-3.36298 0,-0.70368 -0.63962,-2.22194 -1.42139,-3.37391 -0.94175,-1.387774 -1.29934,-2.492414 -1.05977,-3.273804 0.1988,-0.6486 0.39355,-1.17927 0.43263,-1.17927 0.0391,0 0.63554,-0.31525 1.32546,-0.70052 1.09307,-0.61042 1.33674,-0.54668 1.89455,0.49559 0.44425,0.83005 0.45791,1.30874 0.0446,1.56411 -0.32749,0.20244 0.72682,0.97007 2.34289,1.70593 1.61605,0.735864 3.58999,1.879924 4.38652,2.542344 1.861,1.54771 5.80266,2.85029 7.10865,2.34913 0.87688,-0.3365 0.74925,-0.59042 -0.94673,-1.88364 -1.07812,-0.82208 -2.88385,-2.47127 -4.01273,-3.664854 -1.78855,-1.89109 -5.46878,-4.11235 -8.49976,-5.13021 -0.5211,-0.17489 -1.24908,0.0453 -1.61776,0.48952 -1.13266,1.36477 -1.67225,0.34 -1.67225,-3.17583 0,-1.85034 -0.31284,-3.8652 -0.6952,-4.47744 -0.5712,-0.91463 -0.53195,-1.27643 0.22003,-2.02841 1.12472,-1.12472 3.73454,-0.68254 5.46011,0.92507 1.39785,1.30232 2.69248,1.41688 3.32095,0.29388 0.29351,-0.52448 1.82373,-0.91748 4.36093,-1.11998 4.15213,-0.33139 5.41287,0.13368 5.41287,1.99715 0,1.29662 0.73744,1.34407 2.53937,0.16336 1.75534,-1.15014 4.57465,-0.61143 4.98355,0.95224 0.29919,1.14404 0.35956,1.14586 4.6244,0.13816 0.93296,-0.22044 0.98222,-0.16015 0.28249,0.34576 -0.73686,0.53274 -0.70295,0.72296 0.25965,1.45709 0.60893,0.46441 1.37165,0.75632 1.69497,0.64869 1.03406,-0.34422 0.9716,-1.9747 -0.0861,-2.24883 -0.69738,-0.18065 -0.55044,-0.28537 0.46355,-0.33013 0.81649,-0.0361 1.82148,0.34043 2.23327,0.83663 0.63135,0.76071 0.59791,0.98657 -0.21333,1.44054 -1.33133,0.74506 -1.30629,2.46143 0.0267,1.82905 0.5438,-0.25797 2.38084,-0.47587 4.082328,-0.48418 2.84625,-0.0149 3.13652,-0.13709 3.63063,-1.54152 0.71454,-2.03079 3.08197,-2.94497 6.55983,-2.53307 2.18791,0.25913 3.0019,0.12257 3.75429,-0.6298 0.82388,-0.82388 0.83932,-0.98403 0.10848,-1.12482 -1.02717,-0.19795 -6.57855,0.69554 -7.97206,1.28297 -0.77308,0.32586 -0.91515,0.21098 -0.63663,-0.5148 0.1971,-0.51384 0.645,-0.82956 0.99514,-0.70161 0.35014,0.12791 1.09655,-0.16848 1.65865,-0.65881 1.92858,-1.6822 17.5087,-0.72937 20.05399,1.22642 1.01705,0.78152 5.76944,0.71308 6.2659,-0.0901 0.67432,-1.09104 6.78967,-2.09553 8.03251,-1.31936 0.57868,0.36138 1.69122,0.65707 2.47228,0.65707 0.78109,0 1.42015,0.25426 1.42015,0.565 0,0.31074 0.68647,0.56498 1.52549,0.56498 0.99633,0 1.33338,0.19219 0.97171,0.55376 -0.36167,0.36167 -1.33057,0.33927 -2.79329,-0.0647 -1.23174,-0.3401 -4.14791,-0.49955 -6.48038,-0.35434 -7.068,0.44004 -15.27767,4.88713 -12.35576,6.69297 0.46287,0.28608 1.20951,0.145 1.89668,-0.35825 0.62333,-0.45655 2.53167,-1.51137 4.24076,-2.34409 3.83489,-1.86845 10.67995,-2.19444 12.93357,-0.61596 1.21801,0.85314 1.46243,0.85879 2.67824,0.0621 2.07507,-1.35963 1.57981,-0.0822 -0.91116,2.35014 -2.83662,2.76988 -4.24036,2.87954 -6.97468,0.54478 -2.68212,-2.29019 -4.76373,-2.89103 -5.94016,-1.7146 -0.77372,0.77372 -0.75559,0.98126 0.17574,2.01035 0.77338,0.85457 1.74199,1.14759 3.79366,1.14759 3.13056,0 3.0577,-0.10763 3.57859,5.2876 0.41734,4.322564 1.23968,4.390134 1.50838,0.124074 0.0963,-1.529444 0.47968,-2.880994 0.8519,-3.003464 0.77055,-0.25351 0.47079,2.50581 -0.70507,6.490484 -0.38971,1.32068 -0.58354,2.40121 -0.43069,2.40121 0.79121,0 2.4013,-2.74661 2.41768,-4.12422 0.0412,-3.467334 4.31205,-9.238394 8.18359,-11.058244 4.76926,-2.24181 7.46179,-1.1841 8.04447,3.16017 0.24203,1.80443 0.0256,2.50871 -1.22808,3.99879 -1.26832,1.50731 -1.91351,1.80653 -3.87285,1.79604 -2.43029,-0.0128 -4.2497,-1.06202 -5.36764,-3.09487 -0.61645,-1.12096 -0.62155,-1.12068 -0.63859,0.035 -0.0229,1.55237 2.74166,3.523174 5.57845,3.976794 2.08667,0.33366 2.46164,0.19112 4.27816,-1.625294 1.70655,-1.70657 1.991,-2.36598 1.991,-4.61564 0,-3.22061 -1.81295,-5.39825 -4.49424,-5.39825 -0.94637,0 -1.72066,-0.25424 -1.72066,-0.56498 0,-0.31075 0.39953,-0.56499 0.88785,-0.56499 0.48831,0 1.24402,-0.35618 1.67935,-0.7915 0.55646,-0.55647 1.34538,-0.66661 2.65664,-0.37086 5.3909,1.21583 7.04043,4.16409 5.4779,9.79074 -0.43953,1.58269 -1.52429,2.90017 -4.21605,5.120454 -1.99333,1.64419 -4.26808,3.93817 -5.05498,5.09773 -1.64086,2.41797 -1.81859,3.08336 -0.54014,2.02235 0.73803,-0.61252 0.97844,-0.60018 1.40381,0.072 0.37754,0.59665 0.51557,0.38269 0.52193,-0.80904 0.006,-1.12653 0.65685,-2.2455 2.13606,-3.67243 2.44873,-2.36222 5.11071,-4.594704 5.47866,-4.594704 0.13902,0 0.41803,0.881844 0.62023,1.959664 0.20222,1.07782 0.84933,2.51507 1.43808,3.19391 1.51394,1.74556 1.33202,3.23148 -0.62454,5.10126 -1.65715,1.58367 -2.2045,3.48834 -1.18375,4.1192 0.55477,0.34286 0.24202,4.42205 -0.47908,6.24813 -0.2454,0.62149 -0.67643,1.8912 -0.95781,2.82155 -0.37889,1.25269 -0.93607,1.76576 -2.14757,1.97748 -1.94582,0.34004 -2.6662,1.69837 -0.90071,1.69837 1.52047,0 4.53896,1.53388 4.53896,2.30651 0,0.32037 -0.56507,0.18663 -1.2557,-0.29701 -1.84326,-1.29106 -2.83588,-1.09279 -4.83027,0.96492 -1.80017,1.8573 -1.97681,3.52415 -0.56511,5.33271 0.29182,0.37386 0.44578,1.62403 0.34213,2.77815 -0.16998,1.89354 -0.0316,2.14097 1.41912,2.53448 0.88416,0.23985 2.19103,0.21427 2.9041,-0.0568 1.13377,-0.43107 1.28658,-0.32571 1.21737,0.83932 -0.0692,1.16317 -0.29426,1.29209 -1.77411,1.01579 -0.93223,-0.17404 -2.55232,-0.66336 -3.60018,-1.08737 -3.6136,-1.46213 -3.9391,-0.67732 -0.67615,1.63034 2.71194,1.91795 4.20441,1.95948 5.99699,0.16698 1.73939,-1.73938 1.92545,-5.06505 0.33109,-5.91832 -0.58063,-0.31076 -1.257,-0.38326 -1.50304,-0.16122 -0.24606,0.22213 -0.26449,0.0861 -0.041,-0.30237 0.22353,-0.38843 1.29066,-0.70624 2.37138,-0.70624 h 1.96497 l -0.16207,4.37868 -0.16208,4.37867 -2.09094,0.17361 c -1.49311,0.12407 -2.1922,0.49274 -2.44509,1.28952 -0.32757,1.03213 -0.61568,0.93409 -3.84146,-1.3072 -2.69301,-1.87114 -3.90556,-2.38191 -5.32352,-2.24247 -1.00994,0.0993 -1.83623,0.36575 -1.83623,0.59208 0,0.65038 6.11695,3.4787 6.31744,2.92102 0.62173,-1.72944 6.23236,6.35377 6.46091,9.3082 0.11211,1.44839 1.21147,4.23742 1.67041,4.23742 0.86051,0 -0.55953,-7.23892 -1.85647,-9.4636 -1.064,-1.8251 -1.20392,-2.40121 -0.58322,-2.40121 0.44916,0 1.65256,1.64688 2.67422,3.65973 l 1.85759,3.65973 -0.29582,6.65134 c -0.16272,3.65826 -0.57835,7.36484 -0.92367,8.23685 -0.49641,1.25365 -0.44548,1.93805 0.2434,3.27017 1.16037,2.24394 0.58241,7.95015 -0.9453,9.33269 -1.38141,1.25017 -1.33665,2.1492 0.21162,4.24802 l 1.27122,1.72337 -1.55372,1.24116 c -1.92021,1.53394 -1.93356,1.82839 -0.10378,2.28765 0.97029,0.24352 1.38835,0.68437 1.26363,1.33249 -0.13966,0.72584 -0.78619,0.97735 -2.57999,1.00372 -1.3165,0.0192 -2.39361,-0.1435 -2.39361,-0.36193 0,-0.6715 -4.18034,-0.9384 -5.16792,-0.32994 -0.67714,0.41717 -1.69107,0.25717 -3.72399,-0.58766 -1.60353,-0.66639 -3.13254,-0.97545 -3.58943,-0.72548 -1.78536,0.97673 -19.11092,1.61483 -32.01169,1.17897 -4.71515,-0.1593 -5.96067,-0.49492 -5.57418,-1.50206 0.47662,-1.24205 -0.73402,-1.5762 -3.00054,-0.82819 -1.75499,0.57921 -2.54571,0.54049 -4.83481,-0.23667 -1.64597,-0.55883 -2.86917,-0.71476 -3.06911,-0.39126 -0.18279,0.29583 -1.28807,0.71717 -2.45609,0.93628 -1.168,0.21912 -2.2493,0.60169 -2.40288,0.85019 -0.153528,0.24847 -1.300878,0.62439 -2.549598,0.83535 -2.69822,0.45586 -7.44291,-1.03168 -9.35308,-2.93235 -1.32207,-1.31549 -3.06836,-1.24725 -4.24101,0.1657 -0.35896,0.43255 -0.99397,0.78645 -1.41109,0.78645 -0.41713,0 -1.03057,0.50848 -1.36318,1.12997 -0.694,1.29676 -2.82496,1.53501 -2.82496,0.31584 0,-1.34491 -0.99727,-1.53896 -2.08502,-0.4057 -1.20855,1.25911 -2.91147,1.674 -8.73951,2.12933 -4.27502,0.334 -4.33964,0.31897 -5.36615,-1.24767 z m 4.61084,-0.79578 c 0.19346,-0.31294 -0.10934,-0.73933 -0.67289,-0.94754 -0.56351,-0.2082 -1.21135,-0.65131 -1.43964,-0.98473 -0.60073,-0.87731 -0.52497,-3.61496 0.1341,-4.84648 0.37895,-0.70808 0.37859,-1.17471 -10e-4,-1.40934 -0.80536,-0.49774 -1.69544,2.17614 -1.69544,5.09333 0,1.76358 0.28495,2.64358 0.98873,3.05349 1.27403,0.74205 2.24388,0.75693 2.68619,0.0412 z m 31.2839,-0.34913 c 1.23655,-0.2473 1.76559,-0.67586 1.76559,-1.43021 0,-1.37586 -1.53727,-1.97691 -2.89212,-1.1308 -1.52937,0.9551 -2.31547,0.80073 -1.94039,-0.38102 0.34378,-1.08316 -0.66409,-2.25664 -2.95744,-3.44345 -1.72698,-0.89369 -3.50987,-0.26808 -3.50987,1.23159 0,1.37056 2.07464,3.81202 3.23929,3.81202 0.43028,0 0.63539,0.23778 0.45578,0.52841 -0.17959,0.29061 0.50455,0.63129 1.52038,0.75706 1.01581,0.12578 2.00585,0.26936 2.20006,0.31909 0.19411,0.0498 1.14763,-0.0685 2.11872,-0.26269 z m 34.550748,-0.63563 c 0.92516,-1.0997 2.24428,-3.85501 2.24428,-4.68775 0,-0.29612 -1.16083,-0.5384 -2.57961,-0.5384 -2.79995,0 -4.77033,-0.76887 -4.75664,-1.85611 0.0171,-1.36548 1.08908,-2.34516 2.64283,-2.4155 3.90138,-0.17659 4.12841,-0.25039 4.12841,-1.34152 0,-0.60126 -0.27098,-1.80597 -0.6022,-2.67715 l -0.60223,-1.58393 -0.95149,1.18944 c -1.22204,1.5276 -4.07835,2.46987 -7.48702,2.46987 -5.26545,0 -5.62424,0.86552 -1.94885,4.70133 2.50431,2.61369 2.57418,2.64354 6.18155,2.64354 4.79061,0 5.20223,0.79834 0.52582,1.01987 -4.16266,0.19731 -6.80923,-1.01182 -8.50724,-3.8863 -1.27314,-2.15528 -1.96732,-2.12113 -1.2072,0.0594 0.59232,1.69914 0.45911,3.87218 -0.35392,5.77329 -0.54626,1.27729 1.10468,1.35777 2.348,0.11445 0.78905,-0.78902 0.97585,-0.78236 1.91607,0.0685 0.57299,0.51854 1.42448,0.79595 1.89222,0.61647 0.46773,-0.17959 0.99471,-0.0929 1.17103,0.1924 0.19411,0.31424 0.8674,0.31085 1.70772,-0.009 0.76293,-0.29005 1.35944,-0.34391 1.32557,-0.11959 -0.23771,1.57435 1.6661,1.74851 2.9129,0.26648 z m 14.26431,0.42866 c 3.513,-0.004 3.86985,-0.11573 4.34066,-1.35416 0.2879,-0.75723 1.89314,-2.13892 3.65845,-3.14892 1.73002,-0.9898 3.14547,-2.1979 3.14547,-2.68464 0,-0.97099 1.56808,-2.37568 2.6837,-2.40406 0.38845,-0.0107 0.70624,0.37842 0.70624,0.86285 0,0.48446 0.26767,0.71543 0.59482,0.51322 0.32716,-0.20222 0.49914,-0.65462 0.38221,-1.00543 -0.11702,-0.3508 1.1371,-2.62 2.78676,-5.04268 1.64966,-2.42267 3.1117,-4.97261 3.24896,-5.66655 1.60604,-8.11789 1.6272,-8.36024 0.86397,-9.898 -0.75166,-1.51442 -0.76614,-1.49484 -1.16271,1.57392 -0.22086,1.70911 -0.58764,3.87019 -0.81504,4.80242 -0.4536,1.8594 -1.94402,4.33819 -1.94402,3.23317 0,-0.37989 -0.25426,-0.6907 -0.56501,-0.6907 -0.31074,0 -0.56498,0.35023 -0.56498,0.77831 0,0.42806 -0.38136,1.0948 -0.84747,1.48165 -0.46614,0.38685 -0.8475,1.16358 -0.8475,1.72608 0,0.92141 -1.89835,2.05789 -2.9662,1.7758 -0.23305,-0.0615 -0.42375,0.39656 -0.42375,1.01805 0,0.62149 0.31782,1.06642 0.70624,0.98873 0.38843,-0.0777 0.70624,0.22785 0.70624,0.67895 0,1.14569 -4.29627,4.02837 -5.56623,3.73479 -0.57547,-0.13303 -2.4823,0.48523 -4.23742,1.37394 -1.75513,0.88869 -3.95388,1.80067 -4.88611,2.02662 -1.75327,0.42492 -2.51888,1.13667 -2.5338,2.35554 -0.0107,0.94688 1.99273,0.8782 5.00712,-0.17148 2.8637,-0.99727 3.49847,-0.7265 2.04975,0.87432 -0.8394,0.92751 -1.7393,1.13343 -4.95306,1.13343 -3.53735,0 -4.03991,-0.14307 -5.06128,-1.44159 -1.615,-2.05316 -2.89925,-1.59486 -3.07138,1.09602 l -0.1403,2.19149 2.93895,-0.35306 c 1.61643,-0.19411 4.66141,-0.35527 6.76663,-0.35796 z m -74.365418,-2.99634 c 0.5845,-1.13031 0.84801,-3.2201 0.82446,-6.53855 -0.0246,-3.46923 0.23156,-5.38609 0.88738,-6.63974 1.27007,-2.42774 0.66174,-3.86964 -1.37946,-3.26966 -2.63474,0.77444 -5.1698,0.47997 -6.9036,-0.80186 -0.91382,-0.67562 -1.79892,-1.22841 -1.96687,-1.22841 -0.54515,0 -0.32225,2.18284 0.25962,2.54247 0.31074,0.19197 0.56499,0.83372 0.56499,1.42593 0,0.59223 0.49082,1.33945 1.09069,1.66048 0.59988,0.32104 1.62792,1.33822 2.28456,2.26034 1.11504,1.56596 1.13629,1.78797 0.32178,3.36304 -1.07353,2.07602 -1.0804,2.30751 -0.0683,2.30751 1.17592,0 2.15502,3.51425 1.68235,6.03848 -0.37329,1.99357 -0.33086,2.09389 0.57005,1.34757 0.53534,-0.4435 1.35995,-1.55391 1.83244,-2.4676 z m 3.70131,0.72791 c 1.14241,-2.00768 2.53079,-2.18432 3.30243,-0.42018 0.39245,0.89723 0.45841,-0.10442 0.22418,-3.40457 -0.42964,-6.05388 -1.38835,-9.38038 -2.7807,-9.64852 -1.87127,-0.36039 -2.49028,1.32693 -2.14784,5.85464 0.27279,3.60714 0.15054,4.43225 -0.92707,6.25875 -0.98211,1.66454 -1.087,2.20168 -0.50237,2.57247 1.25068,0.79321 1.83157,0.54444 2.83137,-1.21259 z m 81.235048,1.27479 c -0.0213,-1.02557 -1.04609,-1.9494 -1.70874,-1.53986 -0.54148,0.33464 -0.46249,0.62484 0.32731,1.20236 1.19723,0.87543 1.39339,0.92337 1.38143,0.3375 z m 4.28013,-1.07509 c -2.10744,-1.43206 -3.70649,-1.44308 -3.70649,-0.0256 0,1.13772 0.2208,1.23238 3.13228,1.34276 l 2.66114,0.10079 z m 5.75953,-0.69468 c 0.78,-0.4365 0.35928,-0.79807 -2.29412,-1.97153 -4.57009,-2.02109 -6.29161,-1.28227 -3.35821,1.44126 2.38362,2.21307 3.72695,2.79851 4.25527,1.85447 0.24305,-0.43432 0.87173,-1.0302 1.39706,-1.3242 z m -99.884418,0.53568 c 0.73419,-1.37186 0.75943,-3.81751 0.044,-4.25969 -0.78876,-0.48749 -2.40327,2.9568 -1.99259,4.25079 0.44496,1.40191 1.20127,1.40537 1.94864,0.009 z m 15.20489,-0.62862 c 0.92539,-1.25168 1.57114,-1.62674 2.36621,-1.3744 1.16514,0.3698 1.5188,-0.52952 0.46447,-1.18113 -1.50663,-0.93115 -2.79718,-5.34279 -2.8338,-9.6872 -0.0434,-5.131 -1.15397,-8.08709 -2.87004,-7.63832 -0.8166,0.21354 -1.03168,0.70118 -0.90108,2.0429 0.14222,1.46116 0.44284,1.79352 1.75876,1.94441 1.97176,0.22611 1.7124,1.44645 -0.35956,1.69174 -1.77219,0.20991 -1.80595,0.40165 -0.57777,3.28341 0.62539,1.46745 0.94767,3.90838 0.97882,7.41389 0.0256,2.8744 0.19368,5.22615 0.37385,5.22615 0.18001,0 0.90013,-0.77465 1.60014,-1.72145 z m 35.881458,-2.24155 c 0,-3.60128 -1.03973,-4.80671 -3.6995,-4.28914 -1.03686,0.2018 -2.51755,0.85282 -3.29041,1.44678 l -1.4052,1.07993 1.36243,1.45024 c 0.74935,0.79763 1.79992,1.45025 2.33463,1.45025 0.5347,0 1.57095,0.62249 2.30273,1.38334 1.72651,1.79503 2.39532,1.09104 2.39532,-2.5214 z m -17.16703,2.51719 c 0,-0.48446 -0.25424,-0.72369 -0.56498,-0.53165 -0.31074,0.19197 -0.56501,0.58843 -0.56501,0.88083 0,0.29242 0.25427,0.53165 0.56501,0.53165 0.31074,0 0.56498,-0.39637 0.56498,-0.88083 z m 9.68579,0.37782 c -0.53439,-0.33861 -0.57716,-0.60278 -0.14137,-0.87219 1.19764,-0.74017 0.60332,-1.20583 -2.84582,-2.22976 -2.50766,-0.74442 -3.25255,-1.17421 -2.68371,-1.54842 0.64767,-0.42605 0.59275,-0.66652 -0.30929,-1.35474 -1.32894,-1.01393 -2.13053,-1.05597 -3.02771,-0.15887 -1.05173,1.05173 -0.80112,2.14695 0.49129,2.14695 0.88941,0 1.12606,0.30427 0.98873,1.27125 -0.15268,1.07564 0.25405,1.41758 2.64441,2.22258 3.05832,1.02995 6.21732,1.36832 4.88336,0.52309 z m -7.73958,-7.97185 c 0.66265,0 2.20219,0.5085 3.4212,1.12999 1.21902,0.62148 2.49462,1.12996 2.83466,1.12996 0.92046,0 4.37178,-2.67321 3.83912,-2.97358 -0.25238,-0.14243 -3.82936,-0.21311 -7.94887,-0.15717 -7.415488,0.1008 -7.506798,0.11788 -9.181098,1.7219 -1.92982,1.8489 -2.0392,2.34764 -0.81218,3.70349 0.82027,0.90637 1.07133,0.78677 3.76063,-1.79173 1.608918,-1.54261 3.413858,-2.76295 4.086538,-2.76295 z m 64.42799,4.66117 c -0.91587,-2.17892 -0.94058,-3.60833 -0.0788,-4.56055 0.51418,-0.56817 0.76355,-1.49525 0.58542,-2.1764 -0.17062,-0.65264 -0.034,-1.35745 0.30391,-1.56625 0.33782,-0.20884 0.6142,-0.63107 0.6142,-0.93844 0,-0.74899 -3.62223,2.84345 -4.43855,4.40208 -1.09363,2.08805 -0.77404,3.77256 0.90837,4.7879 2.0512,1.23794 2.60989,1.25164 2.10549,0.0517 z m -79.118698,-1.98552 c 0.54625,-1.01435 0.9041,-2.47283 0.7952,-3.24108 -0.1593,-1.12446 -0.61111,-1.46358 -2.31672,-1.73924 -1.42836,-0.23084 -2.11872,-0.12855 -2.11872,0.3136 0,1.31225 1.75092,6.511 2.19289,6.511 0.24977,0 0.90107,-0.82992 1.44735,-1.84428 z m 52.858858,0.75529 c 0,-1.20818 2.49126,-3.43094 3.84538,-3.43094 0.47743,0 1.29871,0.38973 1.82504,0.86605 0.8735,0.79053 1.01688,0.72147 1.64364,-0.79168 0.37766,-0.91175 1.30184,-2.23565 2.05372,-2.942 0.75187,-0.70634 1.36703,-1.62762 1.36703,-2.04727 0,-0.41965 0.66759,-1.01679 1.48355,-1.32702 1.41639,-0.5385 1.46627,-0.6977 1.10246,-3.51721 -0.52964,-4.10456 -1.28292,-6.74931 -2.29437,-8.05554 -0.84287,-1.0885 -0.89185,-1.07592 -2.26872,0.58245 -0.92966,1.11974 -1.43402,2.46195 -1.48617,3.95493 -0.082,2.34883 -0.16805,3.72352 -0.44205,7.06238 -0.15097,1.83886 -0.1924,1.87845 -0.59317,0.56501 -0.40647,-1.3324 -0.45655,-1.34842 -0.88311,-0.28249 -0.65493,1.63659 -2.60707,4.34696 -2.91155,4.04248 -0.14308,-0.14308 -0.006,-0.72971 0.30365,-1.30377 2.54776,-4.7178 3.96983,-10.84699 2.62208,-11.30119 -1.04889,-0.35347 -4.18222,2.00584 -5.69024,4.28465 -1.47008,2.22142 -1.49045,2.38006 -1.09085,8.4969 0.22396,3.4283 0.63366,6.23325 0.91043,6.23325 0.27679,0 0.50325,-0.49005 0.50325,-1.08899 z m 3.55539,0.38275 c 0.83637,-0.38843 1.52269,-1.02405 1.5251,-1.41248 0.006,-1.01833 -2.26946,-0.86879 -3.4823,0.22881 -2.00501,1.81453 -0.87402,2.49852 1.9572,1.18367 z m -9.21815,-1.2109 c -1.20748,-1.16652 -1.74868,-1.30225 -3.94209,-0.98873 -3.48158,0.49763 -3.19486,1.42376 0.56498,1.82504 1.70911,0.18236 3.48305,0.3731 3.94209,0.42375 0.53894,0.0594 0.33874,-0.387 -0.56498,-1.26006 z m -42.361468,-0.0149 c 0,-0.13005 0.15438,-0.63847 0.34294,-1.12999 0.25868,-0.67411 -0.0192,-0.89371 -1.12997,-0.89371 -1.38578,0 -1.97219,1.0074 -1.09627,1.88331 0.41147,0.41147 1.8833,0.52119 1.8833,0.1403 z m 45.367558,-2.72994 c -0.12706,-1.6314 -0.34874,-3.53825 -0.49283,-4.23742 -0.27216,-1.32064 -1.59606,-1.64752 -3.02074,-0.74581 -0.68418,0.43304 -0.66329,0.72104 0.14115,1.94894 0.51923,0.79244 0.94406,2.19986 0.94406,3.12761 0,1.47124 1.07293,2.79293 2.31828,2.85571 0.18748,0.009 0.23692,-1.31761 0.10997,-2.94903 z m 13.46829,0.37527 c 1.27287,-0.80352 2.44158,-1.94763 2.59712,-2.54246 0.15567,-0.59482 0.76165,-1.0815 1.3469,-1.0815 0.64303,0 1.06409,-0.3974 1.06409,-1.00426 0,-1.65328 1.65541,-3.51567 3.12499,-3.51567 1.62593,0 3.35392,-2.84235 2.8707,-4.72201 -0.38329,-1.49095 -5.06124,-4.7302 -7.54283,-5.22305 l -1.82963,-0.36338 1.12339,3.26521 c 0.65999,1.91825 1.12339,4.74364 1.12339,6.84918 0,3.20801 -0.11851,3.58399 -1.13061,3.58399 -1.26251,0 -5.64928,4.22081 -5.64928,5.43555 0,1.05769 0.2334,1.00287 2.90177,-0.6816 z m -87.509128,-0.0431 c -0.80327,-0.32413 -0.9703,-1.88579 -0.20158,-1.88579 0.2775,0 0.66821,0.4265 0.86823,0.94779 0.33631,0.87637 0.43317,0.87836 1.28534,0.0261 0.85217,-0.85218 0.81869,-1.00734 -0.4445,-2.05898 -0.75136,-0.62554 -1.52568,-1.14581 -1.72071,-1.15614 -0.61984,-0.0329 -1.51901,1.34805 -1.92122,2.95056 -0.35787,1.42583 -0.25925,1.54697 1.22581,1.50595 0.88824,-0.0246 1.29717,-0.17276 0.90874,-0.32958 z m 31.49824,-0.44681 c 0,-0.53592 -4.01457,-2.13267 -4.39801,-1.74926 -0.59381,0.59384 1.58362,2.00525 3.09351,2.00525 0.71748,0 1.3045,-0.11531 1.3045,-0.25599 z m 28.249538,-2.54136 c 2.33058,-0.22044 4.83126,-0.71882 5.55706,-1.10748 1.83341,-0.98179 1.23827,-1.30101 -0.91225,-0.48929 -1.53018,0.57757 -2.08683,0.50633 -3.99302,-0.51115 -1.90815,-1.0185 -2.49801,-1.09368 -4.25833,-0.54271 -1.12386,0.35177 -2.04338,0.93793 -2.04338,1.3026 0,0.36466 -0.17126,1.10931 -0.38057,1.6548 -0.31004,0.80793 -0.17916,0.90857 0.70624,0.54293 0.59774,-0.24688 2.99366,-0.62924 5.32425,-0.8497 z m -40.858388,-0.69853 c -0.18044,-0.4507 -0.31422,-0.31683 -0.34134,0.34134 -0.0246,0.59561 0.10912,0.92931 0.29676,0.74156 0.1877,-0.1877 0.20777,-0.67504 0.0446,-1.0829 z m 11.81802,0.80353 c 0.34192,-0.2283 0.90936,-0.96185 1.26102,-1.63008 0.5595,-1.06326 0.35838,-1.49595 -1.61039,-3.46473 -2.25761,-2.2576 -2.87495,-4.35642 -1.64359,-5.58778 0.33337,-0.33338 0.52404,-1.46018 0.42372,-2.50401 -0.22836,-2.37619 -2.42436,-3.41988 -4.66855,-2.21881 -1.5869,0.84927 -3.92794,4.11932 -4.46753,6.24036 -0.32849,1.29126 -0.29853,1.27953 0.36991,-0.14478 1.13227,-2.41268 4.42173,-5.51244 5.84977,-5.51244 1.94505,0 2.69475,1.86471 1.26858,3.15535 -0.64577,0.58444 -1.0311,1.47921 -0.8822,2.04859 0.36279,1.38726 -0.65097,1.27056 -1.85248,-0.21332 -1.07974,-1.33343 -2.64146,-1.13866 -3.23312,0.4032 -0.18983,0.4948 0.31102,2.42054 1.1131,4.27945 l 1.45831,3.37982 -1.24152,0.49998 c -1.10264,0.44404 -1.03411,0.504 0.61241,0.53579 2.39538,0.0463 2.94136,-1.275 1.26443,-3.06 -0.69411,-0.73883 -1.15023,-1.67864 -1.01363,-2.08846 0.16357,-0.49095 0.4893,-0.29494 0.95467,0.57459 0.82407,1.53982 4.53386,5.74367 5.05744,5.73103 0.19688,-0.004 0.63775,-0.19539 0.97965,-0.42375 z m 14.346528,-0.58734 c 0.002,-0.0948 -0.55578,-1.36598 -1.24007,-2.82496 -1.16196,-2.47752 -1.25628,-3.60424 -1.42816,-17.05998 -0.10121,-7.92399 -0.0327,-15.9671 0.15226,-17.87356 l 0.33622,-3.46629 4.90563,0.29369 c 3.17634,0.19026 5.65254,0.66925 7.02437,1.35907 1.1653,0.58595 2.13819,0.99663 2.16198,0.91263 0.32033,-1.13089 0.37175,-6.65012 0.0619,-6.65012 -0.23035,0 -1.04468,0.43839 -1.80965,0.97419 -1.01273,0.70935 -2.86775,1.03353 -6.82338,1.1924 -6.32264,0.25394 -6.08875,0.49213 -5.79287,-5.89893 l 0.18578,-4.01485 -2.81994,-1.75297 -2.81995,-1.75299 -0.0858,8.31029 c -0.0472,4.57065 -0.0226,14.98748 0.0547,23.14853 0.1625,17.17428 -0.13902,20.86421 -1.91966,23.48818 l -1.274128,1.87753 5.563328,-0.0448 c 3.05986,-0.0246 5.56519,-0.12236 5.56746,-0.21707 z m 4.52401,0.20905 c 0,-1.10938 -1.27071,-3.14424 -1.9635,-3.14424 -1.1292,0 -1.09597,1.06436 0.0737,2.35673 0.85854,0.94865 1.88991,1.37842 1.88991,0.78751 z m -27.212428,-2.3736 c 0.10421,-0.0628 -0.34061,-0.39789 -0.98873,-0.74474 -1.05711,-0.56575 -1.17838,-0.47611 -1.17838,0.8709 0,1.34167 0.10528,1.42096 0.98874,0.74474 0.54382,-0.41623 1.07408,-0.80814 1.17837,-0.8709 z m 30.602368,-0.20564 c 0,-0.81965 0.37667,-1.12999 1.37146,-1.12999 0.80868,0 1.85199,-0.61087 2.54247,-1.48867 1.70642,-2.16935 1.53239,-3.07529 -0.51222,-2.66636 -1.40989,0.28197 -2.01536,0.004 -3.72893,-1.70909 -1.12517,-1.12516 -2.52881,-2.04576 -3.11922,-2.04576 -1.36709,0 -1.39837,-0.95072 -0.0455,-1.38013 0.56543,-0.17937 1.44799,-1.2069 1.96124,-2.28318 0.55789,-1.16993 1.48329,-2.09498 2.30104,-2.30023 1.6011,-0.40184 4.57569,0.96699 5.10633,2.34983 0.45662,1.18991 -1.02565,3.51457 -2.661,4.1733 -1.17853,0.47472 -1.16525,0.50051 0.27508,0.53459 1.70586,0.0404 3.29582,-1.2645 3.27557,-2.68825 -0.0333,-2.34757 -1.16601,-5.5536 -2.28118,-6.45704 -1.79888,-1.45732 -4.81823,-1.2721 -6.48838,0.39806 -0.76273,0.76274 -1.3868,1.74859 -1.3868,2.19079 0,0.4422 -0.40888,1.14331 -0.90861,1.55807 -0.77201,0.64071 -1.02687,0.5924 -1.69497,-0.32129 -1.87413,-2.56301 -0.17083,-8.72246 3.36917,-12.18345 1.85816,-1.81669 1.7935,-3.04636 -0.32559,-6.19086 -1.33498,-1.98101 -2.52944,-2.18255 -2.22322,-0.37513 0.20008,1.18163 -1.40311,3.20026 -2.54177,3.20026 -0.61183,0 -0.75826,2.22961 -0.7514,11.44106 0.009,12.7911 0.46306,15.28821 2.82515,15.5539 0.77207,0.0869 1.49002,0.40918 1.59546,0.71632 0.74449,2.16881 4.04575,3.06903 4.04575,1.10325 z m -33.399438,-3.10745 c -0.0468,-1.66098 -0.0568,-1.66666 -0.5,-0.28249 -0.2488,0.77685 -0.47381,1.92096 -0.50003,2.54244 -0.0393,0.93091 0.0489,0.98069 0.50003,0.2825 0.30122,-0.46612 0.52622,-1.61022 0.5,-2.54245 z m 46.144998,2.27793 c 0.60318,-0.45625 1.55834,-0.83761 2.12258,-0.84749 0.56424,-0.0107 1.56636,-0.30722 2.22692,-0.66074 1.15113,-0.61606 1.1225,-0.66887 -0.68922,-1.27122 -2.91411,-0.9689 -3.335,-2.14424 -1.53418,-4.2844 0.83219,-0.98899 1.51306,-2.23647 1.51306,-2.77217 0,-1.14223 -1.2563,-4.01342 -1.75888,-4.01983 -0.52262,-0.006 -2.30884,9.52586 -1.90685,10.17629 0.19197,0.31078 -0.17574,1.2325 -0.81747,2.04827 -1.85007,2.35199 -1.36032,3.29857 0.84404,1.63129 z m -2.58038,-1.13925 c 0.4132,-0.77208 0.81528,-2.10687 0.89352,-2.9662 0.0781,-0.85935 0.28247,-2.32517 0.45388,-3.2574 0.17147,-0.93223 0.16891,-1.18649 -0.006,-0.56498 -0.17425,0.62148 -0.5466,1.3715 -0.82719,1.66672 -0.66735,0.70214 -0.64079,-1.56696 0.0525,-4.49168 0.45025,-1.89918 0.35789,-2.50436 -0.57848,-3.79083 -1.41389,-1.94248 -1.41436,-2.67926 -0.002,-2.30977 0.83908,0.21941 1.42213,-0.23327 2.37035,-1.84042 1.40556,-2.38223 2.12991,-1.78965 0.85452,0.69909 -0.44873,0.8756 -0.96699,3.24461 -1.15172,5.26446 l -0.33588,3.67244 1.37342,-4.71992 c 0.75538,-2.59593 1.7667,-5.32015 2.24738,-6.05376 0.97475,-1.48765 1.14823,-3.39742 0.35326,-3.88873 -0.2864,-0.17703 -1.32115,0.91345 -2.29946,2.42322 -1.51122,2.3322 -1.99448,2.7038 -3.21339,2.47079 -1.439,-0.27517 -4.70076,-4.57642 -4.70076,-6.19949 0,-0.51147 -0.52751,-0.71369 -1.55371,-0.59563 -1.35617,0.1561 -1.54343,0.4097 -1.47262,1.99498 0.0489,1.0968 1.0263,3.2228 2.46733,5.36741 2.89987,4.31568 3.56489,8.64473 1.97765,12.87357 -1.27357,3.39312 -1.33086,4.72757 -0.21268,4.95489 0.60675,0.12342 1.12947,-0.40342 1.52433,-1.5361 0.33052,-0.9481 0.8684,-1.72382 1.19531,-1.72382 0.85249,0 0.73368,0.95715 -0.31809,2.56233 -0.50186,0.76594 -0.67194,1.3926 -0.37796,1.3926 0.29398,0 0.87256,-0.6317 1.28578,-1.40377 z m 9.81579,0.23278 c 0.81877,-0.64404 1.48867,-1.51438 1.48867,-1.93412 0,-1.35764 2.91996,-4.28228 6.58888,-6.5994 1.96954,-1.24387 3.58095,-2.45447 3.58095,-2.69022 0,-0.23575 -1.04258,-0.83819 -2.31688,-1.33875 -1.90533,-0.74843 -2.79821,-0.799 -5.02649,-0.28465 -1.9165,0.4424 -3.38918,0.45297 -5.03128,0.0361 -2.83812,-0.72037 -3.49731,-0.0252 -1.74483,1.84029 l 1.25364,1.33445 -1.79104,2.65383 c -2.05788,3.04918 -1.91707,4.19847 0.5144,4.19847 2.26187,0 2.35897,1.87326 0.15908,3.0668 -1.38437,0.75102 -1.42347,0.84536 -0.3587,0.86552 0.65728,0.0128 1.86495,-0.50432 2.6837,-1.14838 z m -38.981778,-0.66522 c 0.60188,-2.24586 0.39786,-3.24871 -0.66087,-3.24871 -2.05583,0 -3.12146,2.41545 -1.69497,3.84194 1.04396,1.04396 1.98028,0.80819 2.35584,-0.59323 z m -12.63868,0.45708 c 0,-0.13709 -0.25424,-0.40628 -0.56498,-0.59834 -0.31074,-0.19197 -0.56501,-0.0799 -0.56501,0.24916 0,0.32909 0.25427,0.59834 0.56501,0.59834 0.31074,0 0.56498,-0.11211 0.56498,-0.24916 z m -8.47486,-1.72831 c 0,-0.46613 -0.25424,-0.84749 -0.56498,-0.84749 -0.31075,0 -0.56501,0.38136 -0.56501,0.84749 0,0.46612 0.25426,0.84748 0.56501,0.84748 0.31074,0 0.56498,-0.38136 0.56498,-0.84748 z m -3.22926,-1.91216 c 0.92651,-0.92651 0.13816,-3.61386 -1.3943,-4.75284 -1.44838,-1.0765 -1.60503,-1.08463 -3.50718,-0.18194 -1.0951,0.51965 -2.14403,1.19228 -2.33094,1.4947 -0.18685,0.30243 -0.8183,0.54988 -1.40313,0.54988 -1.84129,0 -1.96138,1.24165 -0.2615,2.70382 1.45767,1.25384 1.94439,1.35429 5.00948,1.03392 1.86721,-0.19518 3.61661,-0.57651 3.88757,-0.84748 z m 8.38315,-1.01167 c -0.49242,-0.84679 -0.60267,-0.8712 -0.61679,-0.13666 -0.0192,0.95149 0.57583,1.80821 0.97626,1.40778 0.13219,-0.13197 -0.0297,-0.70412 -0.35947,-1.27122 z m 82.809138,-1.73736 c -0.14221,-0.5438 -0.25838,-0.0989 -0.25838,0.98874 0,1.08762 0.11638,1.53255 0.25838,0.98873 0.14222,-0.5438 0.14222,-1.43367 0,-1.97747 z m -42.48652,1.56224 c 0.21247,-0.34395 -0.29985,-0.42772 -1.34169,-0.21937 -1.32779,0.26556 -1.9934,0.0293 -3.13554,-1.1128 -0.79746,-0.79746 -1.44993,-1.20725 -1.44993,-0.91062 0,1.92297 4.96395,3.80129 5.92716,2.24279 z m -46.838038,-4.94268 c -0.76447,-1.60311 -1.16964,-1.90505 -2.18947,-1.63166 -0.68828,0.1845 -1.56924,0.33898 -1.95766,0.34323 -0.38843,0.004 -0.70625,0.26195 -0.70625,0.57269 0,0.31074 0.30391,0.565 0.67532,0.565 1.1118,0 3.84127,2.9489 3.88923,4.20189 0.0352,0.92273 0.16784,0.82708 0.63575,-0.45926 0.4618,-1.26926 0.38591,-2.05517 -0.34692,-3.59189 z m 7.38562,3.09795 c -0.15674,-0.38843 -0.28497,-0.0707 -0.28497,0.70624 0,0.77686 0.12812,1.09467 0.28497,0.70624 0.15674,-0.38843 0.15674,-1.02405 0,-1.41248 z m 12.85689,0.92828 c 1.26971,-0.48721 1.10833,-2.29408 -0.23628,-2.64571 -0.93858,-0.24543 -1.12999,-0.0171 -1.12999,1.34658 0,1.77693 0.0348,1.81005 1.36627,1.29913 z m -16.68573,-0.75238 c 1.39433,-0.74624 2.73216,-4.93807 1.85571,-5.81452 -0.36355,-0.36356 -0.66101,-1.5566 -0.66101,-2.65121 0,-1.9469 -0.0192,-1.96337 -0.86386,-0.75685 -0.53998,0.77093 -0.72847,1.77285 -0.50271,2.67231 0.22789,0.90797 0.0254,1.95128 -0.54861,2.82741 -0.86422,1.31895 -1.27133,4.2532 -0.59014,4.2532 0.17575,0 0.76559,-0.23865 1.31062,-0.53034 z m 7.01252,-4.45998 c -1.28384,-0.30645 -2.42788,1.05231 -2.42788,2.88354 v 1.70979 l 1.60753,-2.20271 c 1.18845,-1.62849 1.40231,-2.25171 0.82035,-2.39062 z m 77.792158,1.76149 c 0.004,-0.68824 -0.49984,-1.52347 -1.12132,-1.85608 -2.00051,-1.07063 -1.06971,-3.95493 1.27632,-3.95493 0.57767,0 0.8932,-0.25426 0.70114,-0.56501 -0.86652,-1.40204 -5.20569,-0.0376 -8.71255,2.73968 l -1.36766,1.08311 1.65015,0.37457 c 0.90759,0.20607 2.79282,1.35792 4.1894,2.55981 2.62133,2.25588 3.36688,2.17194 3.38452,-0.38115 z m -78.702858,-2.73305 c 2.63638,-0.58331 2.76254,-0.66904 1.65472,-1.12463 -0.58604,-0.24102 -1.4759,-0.18322 -1.97746,0.12855 -1.25942,0.78258 -3.45707,4.10614 -3.44199,5.20538 0.006,0.49784 0.49887,-0.16635 1.09343,-1.4761 0.79537,-1.75205 1.50123,-2.47424 2.6713,-2.73311 z m 6.11021,4.26691 c 0.60839,-0.98444 -0.29341,-1.82429 -1.17407,-1.09339 -0.43504,0.36103 -0.65164,0.88188 -0.48136,1.15741 0.41215,0.66686 1.22309,0.63552 1.65543,-0.0641 z m 74.672928,-0.94165 c -0.20713,-0.20713 -0.37666,-0.0376 -0.37666,0.37667 0,0.41431 0.16955,0.58381 0.37666,0.37666 0.20713,-0.20713 0.20713,-0.54617 0,-0.75333 z m -49.71918,-0.565 c -0.20714,-0.20713 -0.37667,-0.0376 -0.37667,0.37666 0,0.41433 0.16956,0.58384 0.37667,0.37666 0.20713,-0.20713 0.20713,-0.54614 0,-0.75332 z m 4.04651,-0.37545 c 0.15268,-0.80101 -0.0997,-0.99236 -1.11843,-0.84749 -0.73095,0.10399 -1.40343,0.64698 -1.51302,1.22174 -0.15268,0.80101 0.0997,0.99237 1.11844,0.8475 0.73095,-0.10399 1.4034,-0.64698 1.51301,-1.22175 z m 1.60339,-0.18962 c -0.20714,-0.20713 -0.37666,-0.0376 -0.37666,0.37666 0,0.41433 0.16955,0.58382 0.37666,0.37667 0.20713,-0.20714 0.20713,-0.54615 0,-0.75333 z m -23.735188,-0.49798 c 0.19411,-0.50557 -0.11147,-1.20976 -0.72396,-1.66889 -0.92196,-0.6911 -1.15132,-0.67357 -1.76583,0.13517 -0.38843,0.51117 -0.70624,1.26219 -0.70624,1.66892 0,1.04515 2.78836,0.92725 3.19603,-0.13517 z m 20.598798,-1.38531 c 0.62648,0 1.6944,0.29586 2.37313,0.65749 1.11558,0.59434 1.15963,0.56722 0.45867,-0.2825 -1.3654,-1.65519 -5.19519,-0.90318 -5.1398,1.00924 0.009,0.32626 0.27632,0.14819 0.59306,-0.3955 0.31675,-0.5438 1.08846,-0.98873 1.71494,-0.98873 z m -41.028668,0.004 c 0.48472,-1.52724 -0.0777,-2.26506 -1.7267,-2.26506 -1.60287,0 -1.77071,0.8908 -0.44408,2.35673 1.20057,1.32659 1.72771,1.30432 2.17078,-0.0916 z m 16.10385,-0.28758 c 0,-0.46613 -0.22246,-0.84749 -0.49436,-0.84749 -0.2719,0 -1.28889,-0.15888 -2.25996,-0.35311 -1.37208,-0.27442 -1.76561,-0.15717 -1.76561,0.52569 0,0.81354 1.07718,1.25448 3.5312,1.44545 0.5438,0.0423 0.98873,-0.30442 0.98873,-0.77054 z m -24.05707,-2.56999 c 0.56415,-1.56886 1.15226,-2.72594 1.3069,-2.5713 0.15461,0.1546 -0.002,1.09484 -0.34913,2.0893 -0.77703,2.22901 -0.78978,2.76948 -0.0653,2.76948 0.31075,0 0.57103,-0.57205 0.57842,-1.27122 0.006,-0.69918 0.60081,-2.69923 1.31876,-4.44454 1.04594,-2.54264 1.17124,-3.35674 0.63054,-4.09618 -0.37116,-0.50759 -0.92361,-0.92288 -1.22766,-0.92288 -0.71515,0 -4.69,8.57841 -4.69,10.12179 0,2.18201 1.46358,1.20076 2.4975,-1.67445 z m 94.680928,1.37332 c 0,-0.46612 -0.25426,-0.69036 -0.56501,-0.4983 -0.31074,0.19197 -0.56498,0.73054 -0.56498,1.19666 0,0.46611 0.25424,0.69035 0.56498,0.49831 0.31075,-0.19197 0.56501,-0.73056 0.56501,-1.19667 z m 0.94165,0.5375 c -0.20714,-0.20714 -0.37667,-0.0376 -0.37667,0.37666 0,0.41433 0.16955,0.58384 0.37667,0.37666 0.20713,-0.20713 0.20713,-0.54615 0,-0.75332 z m -52.42279,-1.37161 c 0.5022,-1.13452 1.59192,-2.1203 3.10412,-2.80803 1.9153,-0.87105 2.02844,-0.99855 0.6353,-0.71604 -0.93225,0.18898 -2.1399,0.57177 -2.68372,0.85046 -0.73887,0.37867 -0.98874,0.28045 -0.98874,-0.38872 0,-1.74776 1.64785,-4.0311 5.63681,-7.81067 2.22229,-2.10563 3.93992,-4.13031 3.81694,-4.49926 -0.34081,-1.02245 -7.66749,6.28994 -9.51168,9.49317 -1.08867,1.89093 -1.62818,3.61888 -1.63172,5.22615 -0.006,2.84014 0.55465,3.06583 1.62269,0.65294 z m -28.491638,0.52761 c 1.97668,-0.90064 1.89914,-2.29726 -0.11467,-2.06555 -1.11248,0.12791 -1.60501,0.53979 -1.73426,1.45 -0.20799,1.46446 -0.0961,1.50172 1.84893,0.61555 z m 72.089908,-1.34624 c 1.61505,-1.46159 5.52362,-2.5278 7.08726,-1.93328 1.92897,0.73338 1.92558,0.73479 1.92558,-0.80016 0,-0.87367 -0.69337,-1.87428 -1.97747,-2.85372 -1.0876,-0.82956 -1.97746,-2.00384 -1.97746,-2.6095 0,-2.41832 -5.38857,-0.47425 -5.98087,2.15773 -0.99217,4.40881 -1.44658,5.71104 -2.21556,6.34925 -0.46387,0.38499 -0.84342,0.91679 -0.84342,1.18179 0,0.61318 2.8256,-0.44563 3.98194,-1.49211 z m -15.35238,1.0838 c 0.97108,-0.19411 1.76559,-0.5388 1.76559,-0.76577 0,-0.22695 -1.54799,-2.10203 -3.44,-4.16681 -1.892,-2.06478 -3.13495,-3.75415 -2.76211,-3.75415 0.37282,0 2.58981,2.03396 4.92664,4.51993 2.37038,2.52163 4.71558,4.51993 5.30458,4.51993 1.36882,0 1.34108,-0.84472 -0.0741,-2.25997 -0.62149,-0.62149 -1.12997,-1.63847 -1.12997,-2.25996 0,-0.91256 -0.37666,-1.12999 -1.95761,-1.12999 -1.37594,0 -2.13633,-0.334 -2.55919,-1.12412 -0.82575,-1.54293 -3.75736,-2.97066 -5.17554,-2.52053 -0.95666,0.30363 -1.09907,0.67803 -0.80921,2.12736 0.19347,0.9674 0.98288,2.41764 1.75421,3.22275 1.65701,1.72954 1.75891,2.55071 0.41371,3.33421 -0.85339,0.49706 -0.78572,0.57824 0.49437,0.59306 0.81572,0.009 2.27761,-0.14179 3.24871,-0.33594 z m -57.888418,-2.91238 c 0.82467,-0.37575 1.58826,-0.38004 2.24475,-0.0128 0.54722,0.30623 1.12476,0.42697 1.28344,0.26829 0.15866,-0.15866 -0.22512,-0.56339 -0.85286,-0.89935 -1.9437,-1.04024 -5.30881,1.03561 -5.13207,3.16586 0.0214,0.25347 0.3012,-0.0822 0.62258,-0.7459 0.32138,-0.66372 1.14675,-1.46302 1.83416,-1.77624 z m 11.48005,1.67505 c 0.38375,-0.24376 0.85574,-1.23324 1.04886,-2.19889 0.73569,-3.67843 -4.31036,-4.46076 -5.92432,-0.91847 -0.93261,2.04686 0.0818,3.58003 2.36139,3.56919 0.99898,-0.004 2.13032,-0.20799 2.51407,-0.45183 z m 41.959058,-0.16422 c 0,-0.34358 -0.62029,-1.36187 -1.37842,-2.26286 l -1.37842,-1.63815 -0.88154,1.25857 c -1.3326,1.90253 -1.18047,2.89036 0.30807,2.00067 1.00723,-0.60201 1.28831,-0.55943 1.83333,0.27771 0.7264,1.11572 1.49698,1.30313 1.49698,0.36406 z m -59.081878,-0.82817 c 1.27806,-1.27805 1.10075,-2.25259 -0.66212,-3.63927 l -1.54994,-1.21919 -0.68455,1.60192 c -1.20919,2.82976 -0.84111,3.95349 1.34287,4.09979 0.36624,0.0246 1.06542,-0.35492 1.55374,-0.84325 z m 75.095288,-0.14392 c 0.51357,-0.56748 1.15861,-2.23536 1.43343,-3.70637 0.64455,-3.45014 2.46938,-5.43164 5.00213,-5.43164 2.51953,0 1.95953,-0.73635 -1.90589,-2.506 -3.95418,-1.81028 -5.02186,-1.81586 -6.19045,-0.0325 -0.79606,1.21492 -0.82958,1.75788 -0.23556,3.8137 1.21842,4.21668 1.31925,6.34548 0.33908,7.15894 -0.493,0.40916 -0.89637,0.96704 -0.89637,1.23973 0,0.8612 1.4822,0.53739 2.45363,-0.53601 z m -4.12759,-2.58539 c -0.3223,-0.84771 -0.586,-2.16034 -0.586,-2.91698 0,-0.89029 -0.32227,-1.37569 -0.91337,-1.37569 -0.6873,0 -0.81585,0.31468 -0.5194,1.27123 0.2167,0.69917 0.52123,1.90684 0.67673,2.6837 0.52426,2.61947 0.76131,3.0457 1.36055,2.44646 0.37995,-0.37997 0.37384,-1.07675 -0.0192,-2.10872 z m -64.103138,-2.3152 c -0.1781,-1.24297 -0.34039,-2.70489 -0.3605,-3.24869 -0.0547,-1.48111 -0.42499,-1.20691 -1.34571,0.99668 -0.45625,1.09197 -1.19665,2.12628 -1.64534,2.29845 -1.03166,0.39588 -6.43791,-2.31336 -7.82195,-3.91982 -3.41151,-3.95982 -4.32029,-9.66496 -2.11556,-13.2813 0.63708,-1.04498 1.03121,-2.02707 0.87584,-2.18244 -0.46582,-0.46582 -2.5738,3.37833 -2.953,5.38517 -0.47242,2.5 -0.0171,4.99365 1.50618,8.2323 0.99992,2.12727 2.11733,3.26193 5.38118,5.46436 2.26557,1.5288 4.25679,3.00222 4.42493,3.27429 0.16998,0.27506 1.20968,0.21638 2.34179,-0.13218 1.98066,-0.6098 2.02726,-0.68834 1.71214,-2.88682 z m 14.07261,2.56715 c 0.46729,-1.47231 -0.24405,-5.1096 -0.99928,-5.1096 -0.32938,0 -1.05651,0.41414 -1.61581,0.92031 -0.97784,0.88493 -0.97413,0.97477 0.0967,2.33615 0.61254,0.77872 1.1137,1.76292 1.1137,2.18714 0,1.16386 1.00509,0.92486 1.40464,-0.334 z m 52.261778,-0.73092 c -0.0107,-1.87046 -0.61679,-3.8137 -1.18818,-3.8137 -0.56748,0 -0.67342,2.84326 -0.15609,4.19124 0.5072,1.32176 1.35318,1.0842 1.34431,-0.37754 z m -61.793848,-0.48474 c 1.06688,-1.00229 1.17017,-1.40511 0.65195,-2.54247 -0.74988,-1.64581 -1.23052,-1.68532 -2.69436,-0.2215 -1.20931,1.20932 -1.32501,1.65933 -0.78704,3.06124 0.46533,1.21261 1.31754,1.12307 2.82945,-0.29727 z m 30.162068,0.65256 c 0,-0.90308 -1.28348,-3.41653 -1.74464,-3.41653 -0.53614,0 -2.77529,2.79658 -2.77529,3.46615 0,0.26883 1.01698,0.4888 2.25997,0.4888 1.24298,0 2.25996,-0.24229 2.25996,-0.53842 z m 12.27275,-5.09372 c 1.54024,-2.85308 1.83548,-3.84444 1.34616,-4.51993 -0.34474,-0.4759 -0.86477,-1.41261 -1.15562,-2.08161 -0.29084,-0.66898 -0.79872,-1.38316 -1.12862,-1.58707 -0.89637,-0.55399 -0.72345,-3.45302 0.25437,-4.26454 0.46981,-0.38992 1.66234,-1.12023 2.65005,-1.6229 0.98773,-0.5027 1.90279,-1.25293 2.03348,-1.66717 0.18279,-0.57925 -0.16187,-0.54662 -1.49203,0.14115 -2.55551,1.32151 -4.63268,1.09849 -7.66198,-0.82262 -1.48914,-0.9444 -2.60262,-1.38931 -2.47439,-0.98875 0.12812,0.40058 1.16969,1.34297 2.31439,2.09422 1.70879,1.12141 2.08129,1.70288 2.08129,3.24869 0,1.03554 -0.1907,1.88502 -0.42373,1.88772 -0.67633,0.009 -4.75304,4.04651 -4.42038,4.37916 0.16549,0.1655 1.46971,-0.77613 2.89803,-2.09271 1.42833,-1.3166 2.76831,-2.21727 2.97777,-2.00151 0.20948,0.21576 -1.22918,1.84142 -3.19688,3.61258 l -3.57769,3.22027 1.26146,2.2298 c 2.64841,4.68144 2.80126,4.84729 4.29929,4.66514 1.1236,-0.13666 1.87778,-0.98245 3.41503,-3.83002 z m 11.12368,1.88808 c 0.46912,-1.22258 -0.63437,-2.47085 -2.18428,-2.47085 -1.99527,0 -2.149,0.6857 -0.46313,2.0657 1.89015,1.54722 2.19146,1.59333 2.64741,0.40515 z m -47.998798,-0.69629 c 0.78896,-2.48573 -1.17067,-4.00099 -3.12633,-2.4174 -1.74486,1.41291 -1.0491,3.4678 1.17413,3.4678 1.08172,0 1.72943,-0.34849 1.9522,-1.0504 z m 69.440968,0.20286 c -0.34386,-0.89605 -1.3343,-1.17564 -1.3343,-0.37666 0,0.59748 0.61758,1.22416 1.20641,1.22416 0.2492,0 0.30675,-0.38138 0.12791,-0.8475 z m -84.085618,-0.31461 c 0.20308,-0.3284 0.20906,-1.23477 0.0128,-2.01412 -0.26607,-1.06019 -0.66932,-1.37225 -1.60114,-1.23913 -1.5856,0.22652 -1.98111,2.13014 -0.64549,3.10679 1.23035,0.89964 1.74684,0.93351 2.23327,0.14649 z m 65.236588,-0.84871 c 0,-0.44777 -0.38136,-0.81414 -0.84748,-0.81414 -0.95051,0 -0.98901,0.10378 -0.50579,1.36302 0.39691,1.03433 1.35327,0.64641 1.35327,-0.54888 z m -58.759028,-0.8475 c 0,-1.17871 -0.83118,-1.47218 -1.4292,-0.50457 -0.5125,0.82924 0.17019,2.37928 0.8602,1.95286 0.31295,-0.19346 0.569,-0.84512 0.569,-1.44829 z m -3.92657,-0.88875 c 1.08038,-2.84164 -1.03938,-4.93599 -2.82195,-2.78812 -0.53417,0.64363 -0.43248,1.04916 0.49582,1.97746 0.64226,0.64228 1.16778,1.42203 1.16778,1.73277 0,1.04521 0.5885,0.57673 1.15835,-0.92211 z m 53.363258,0.42366 c -0.93223,-0.58161 -1.91436,-0.85668 -2.18248,-0.61123 -0.86779,0.79432 0.22483,1.67475 2.07458,1.67169 l 1.80287,-0.002 -1.69497,-1.05749 z m 13.43618,-1.38886 c 0.3463,-2.27147 0.031,-2.6407 -0.67322,-0.78839 -0.30028,0.78978 -0.8159,1.60277 -1.14579,1.80668 -1.00055,0.61837 -0.67125,1.34688 0.4735,1.04754 0.68147,-0.17831 1.17272,-0.93247 1.34551,-2.06583 z m -79.532518,-0.15909 c -0.4703,-1.12556 -0.85508,-2.14255 -0.85508,-2.25997 0,-0.73035 -1.11517,-0.0192 -1.40569,0.89516 -0.47942,1.51047 0.63398,3.41127 1.99816,3.41127 1.06524,0 1.07756,-0.0961 0.26261,-2.04646 z m 20.02972,0.95363 c 0.81437,-1.52166 0.73312,-2.11932 -0.34434,-2.53277 -0.52317,-0.20073 -1.38922,0.0598 -1.98203,0.59624 -0.98412,0.89061 -0.99151,1.02059 -0.11318,1.99109 1.19412,1.31948 1.71039,1.30795 2.43959,-0.0547 z m -13.97862,-0.17831 c 0.13602,-0.38842 0.0521,-4.86428 -0.18599,-9.94634 -0.39964,-8.52301 -0.54186,-9.39994 -1.83254,-11.29982 -2.95949,-4.35639 -4.34897,-13.10891 -2.34507,-14.772 0.46611,-0.38685 0.84747,-1.0386 0.84747,-1.44832 0,-1.44145 -1.23782,-1.48517 -2.72961,-0.0963 -0.82928,0.77203 -1.81272,1.29142 -2.18537,1.15418 -0.49855,-0.18364 -0.54685,0.20628 -0.18279,1.47535 0.31773,1.1078 0.28589,1.85393 -0.089,2.0856 -0.39262,0.24266 -0.37669,0.48868 0.0487,0.75157 0.34782,0.21495 1.11684,2.02645 1.70892,4.02557 0.5921,1.9991 1.88568,5.92293 2.87461,8.71964 1.63571,4.62577 1.79871,5.69714 1.80522,11.86481 0.006,6.19671 0.39219,8.19237 1.58312,8.19237 0.23944,0 0.5466,-0.31781 0.68254,-0.70624 z m -1.97919,-17.56093 c -0.62956,-1.60066 -0.52691,-2.41836 0.21097,-1.68052 0.33987,0.33989 0.52305,1.08991 0.40705,1.66672 -0.2035,1.01152 -0.22539,1.01201 -0.61798,0.0128 z m -5.19184,-16.36288 c -0.24186,-0.55721 -0.28119,-1.17165 -0.0873,-1.36539 0.57374,-0.57376 1.03622,0.23218 0.77216,1.34553 -0.2341,0.98701 -0.26455,0.98788 -0.68474,0.0192 z m 70.264298,33.28917 c 0.66107,-0.79656 0.29968,-2.61407 -0.5198,-2.61407 -0.25209,0 -0.84101,-0.14691 -1.3087,-0.32631 -1.3494,-0.51781 -2.283,1.72459 -1.17806,2.82954 1.09266,1.09266 2.15908,1.13199 3.00656,0.11082 z m -52.713828,-1.20158 c 1.57851,-1.46292 3.83697,-1.86613 4.4944,-0.8024 0.22302,0.36086 1.87063,-0.9283 4.03372,-3.15618 2.01118,-2.07143 3.54534,-3.87757 3.40925,-4.01366 -0.13602,-0.13602 -0.56904,0.14009 -0.9621,0.6137 -0.39309,0.47363 -0.98538,0.86114 -1.3162,0.86114 -0.33083,0 0.0816,-0.71308 0.91666,-1.58464 1.20475,-1.25749 1.50871,-2.10313 1.4723,-4.09618 -0.0446,-2.43827 -0.0658,-2.46694 -0.72424,-0.98299 -0.3731,0.8407 -1.64778,2.36657 -2.83265,3.3908 -1.77689,1.53599 -2.20672,2.32752 -2.45364,4.51801 l -0.29934,2.65577 -2.78086,0.16827 c -2.44,0.14777 -2.92296,0.39343 -3.94001,2.00454 -1.38871,2.19993 -1.07827,2.3338 0.98271,0.42375 z m 60.358468,0.32908 c 2.16213,-2.38913 0.0604,-5.31221 -2.82719,-3.93223 -1.91137,0.9134 -2.3995,2.77352 -1.0753,4.09772 1.22237,1.22237 2.70331,1.15957 3.90249,-0.16549 z m -80.177928,-0.6387 c 0.39349,-1.23974 -0.6555,-2.98849 -1.48511,-2.47578 -0.27553,0.17041 -0.50096,1.05737 -0.50096,1.97125 0,1.94097 1.41598,2.3007 1.98607,0.50453 z m 29.37091,0.0271 c 0.43502,-1.3706 1.16496,-1.45993 1.64782,-0.20158 0.72102,1.87892 0.97372,0.21807 0.26503,-1.7418 -0.90095,-2.49152 -1.51654,-2.35744 -2.52866,0.55072 -0.93635,2.69043 -0.91841,2.52269 -0.26974,2.52269 0.28979,0 0.6883,-0.5085 0.88555,-1.12998 z m 23.070288,-0.0923 c 0.78512,-1.24679 -1.97064,-5.5576 -3.55277,-5.5576 -1.76645,0 -1.86745,0.9734 -0.335,3.22859 0.7918,1.16524 1.43964,2.45961 1.43964,2.87638 0,1.0134 1.70543,0.63208 2.44813,-0.54737 z m -46.075578,-4.42764 0.0107,-1.41246 -0.45236,1.41246 c -0.2488,0.77688 -0.4476,2.17523 -0.44182,3.10746 l 0.0107,1.69497 0.43129,-1.69497 c 0.23722,-0.93223 0.43604,-2.33058 0.44183,-3.10746 z m 37.977548,2.25998 c 0,-1.12461 -1.32444,-2.44217 -1.88821,-1.8784 -0.20435,0.20435 -0.37175,1.04974 -0.37175,1.8784 0,0.82864 0.1672,1.67392 0.37175,1.8784 0.56377,0.56375 1.88821,-0.75381 1.88821,-1.8784 z m -31.904578,-1.07519 c -0.53345,-1.68073 -1.42989,-0.90985 -1.42989,1.2296 0,1.63542 0.0747,1.70789 0.90556,0.87714 0.58115,-0.58115 0.76898,-1.33587 0.52433,-2.10674 z m 6.36323,1.6172 c 0.39601,-0.63413 0.54807,-1.43121 0.33788,-1.77132 -0.35037,-0.5669 -1.84421,1.4032 -1.89606,2.50053 -0.0389,0.82365 0.84745,0.40883 1.55818,-0.72921 z m 36.276168,-0.47284 c 0,-0.27269 -0.38137,-0.81231 -0.84748,-1.19916 -0.70806,-0.58762 -0.8475,-0.50605 -0.8475,0.49582 0,0.68926 0.36037,1.19915 0.8475,1.19915 0.46611,0 0.84748,-0.2231 0.84748,-0.49581 z m 13.45828,-0.22937 c 0.72776,-0.8769 -0.0694,-2.40997 -0.96531,-1.85632 -0.74194,0.45855 -0.85078,2.5815 -0.13239,2.5815 0.27269,0 0.76665,-0.32633 1.09766,-0.72518 z m 5.73327,-0.66543 c 0.87831,-1.0583 -0.24436,-4.82429 -1.43815,-4.82429 -0.9386,0 -3.06364,1.98526 -3.06364,2.86209 0,2.39765 3.04051,3.72292 4.50179,1.9622 z m -57.639268,-0.55268 c 1.14681,-1.38182 0.50282,-3.896 -1.10163,-4.30078 -1.81802,-0.45869 -2.82496,0.34164 -2.82496,2.24533 0,2.58481 2.43108,3.8574 3.92659,2.05545 z m 15.84809,-0.59915 c 0,-1.39621 -0.76554,-1.89427 -1.38096,-0.89849 -0.40835,0.66073 0.21749,2.31094 0.87641,2.31094 0.27752,0 0.50455,-0.6356 0.50455,-1.41245 z m -27.87536,-0.98876 c -0.15674,-0.38843 -0.28497,-0.0707 -0.28497,0.70624 0,0.77688 0.12813,1.09467 0.28497,0.70624 0.15674,-0.38843 0.15674,-1.02403 0,-1.41248 z m 18.27051,1.10821 c 0,-2.62092 -4.50597,-8.2408 -8.0869,-10.08606 l -2.15451,-1.11022 0.69889,1.30097 c 0.3844,0.71555 0.86687,2.06372 1.07216,2.99597 0.23688,1.07568 0.6655,1.61869 1.17313,1.48625 2.1682,-0.56577 2.49619,-0.33959 2.67508,1.84471 0.11552,1.41141 0.62229,2.57008 1.41248,3.2299 1.43735,1.2002 3.20967,1.38711 3.20967,0.33848 z m 61.261158,-0.15973 c 1.13125,-1.13125 1.12017,-1.87392 -0.0472,-3.16387 -1.30415,-1.44105 -2.26835,-1.28839 -2.69897,0.42732 -0.76115,3.03267 0.84726,4.63545 2.74618,2.73655 z m -24.70735,-1.48252 c 0.32117,-0.4054 0.70631,-1.41722 0.85583,-2.24847 0.21247,-1.18077 -0.0801,-1.77154 -1.33666,-2.70064 l -1.60853,-1.18922 v 3.07816 c 0,1.69298 -0.1657,3.50989 -0.36816,4.03756 -0.3104,0.80887 -0.19219,0.86531 0.75271,0.35956 0.61646,-0.32994 1.38363,-0.93157 1.70481,-1.33695 z m -34.867488,-2.29081 c 0.006,-1.75494 0.20714,-2.11872 1.16433,-2.11872 0.6356,0 1.77642,-0.62076 2.53512,-1.37947 1.35316,-1.35316 1.36077,-1.41297 0.39806,-3.1376 -0.9618,-1.72306 -0.95482,-1.78007 0.34955,-2.85565 1.21873,-1.00496 3.694978,-5.05707 3.09037,-5.05707 -0.14265,0 -1.06862,0.60609 -2.0578,1.3469 -0.9892,0.74079 -2.43414,1.53191 -3.211,1.75803 -0.77688,0.22612 -3.06509,1.11002 -5.08492,1.96422 -2.01985,0.85421 -4.12322,1.70995 -4.67417,1.90166 -0.83746,0.2914 -0.51136,0.83704 1.98859,3.32751 1.86691,1.85984 3.28768,3.88796 3.78194,5.39861 0.90712,2.77255 1.7061,2.23907 1.71993,-1.14842 z m 21.195818,2.40121 c 0.20372,-0.32964 -0.37079,-0.565 -1.37913,-0.565 -0.95057,0 -1.72832,0.25426 -1.72832,0.565 0,0.31074 0.62061,0.56498 1.37912,0.56498 0.75854,0 1.53627,-0.25424 1.72833,-0.56498 z m 21.77201,-0.30645 c 0.52212,-0.62911 0.55193,-1.04274 0.10719,-1.4875 -0.89048,-0.89048 -2.38701,-0.13111 -2.38701,1.21122 0,1.35711 1.25647,1.50939 2.27984,0.27628 z m 11.73194,0.19347 c 0.79687,-0.79687 0.89595,-2.51057 0.17104,-2.9586 -0.8346,-0.5158 -3.91832,0.31508 -4.23532,1.14118 -0.67985,1.77161 2.63004,3.25168 4.0643,1.81742 z m 11.96916,0.25424 c -0.0213,-1.04415 -1.01075,-1.84319 -1.87274,-1.5124 -1.46849,0.56351 -1.13606,1.93615 0.46891,1.93615 0.77686,0 1.40857,-0.1907 1.40383,-0.42375 z m -85.029308,-2.97728 c -0.31675,-0.5125 -0.52672,-0.49687 -0.87398,0.0651 -0.59569,0.96383 -0.0107,1.91077 0.72586,1.17447 0.31075,-0.31075 0.37739,-0.86853 0.1482,-1.23952 z m 65.828258,-1.05111 c 0.15546,-0.12471 -0.47972,-0.0431 -1.41131,0.18108 -2.0475,0.49309 -2.20315,0.62567 -1.69661,1.44526 0.27576,0.44621 0.76227,0.33137 1.6103,-0.38014 0.66832,-0.56074 1.34225,-1.12156 1.49762,-1.24626 z m 14.12478,1.32696 c 0,-0.91081 -1.50377,-1.77428 -2.08235,-1.1957 -0.4024,0.4024 0.87436,2.06092 1.58654,2.06092 0.27269,0 0.49581,-0.38935 0.49581,-0.86522 z m 7.52278,-0.47842 c 0.54882,-1.43018 -0.77088,-2.01831 -1.92938,-0.85984 -1.39544,1.39547 -1.35412,1.63847 0.27854,1.63847 0.74363,0 1.4865,-0.35037 1.65084,-0.77863 z m -14.08204,-1.70155 c 2.17177,-0.90743 4.40858,-3.10079 3.93828,-3.86176 -0.17703,-0.2865 -0.69222,0.009 -1.14475,0.65378 -1.99713,2.85131 -7.87039,3.86204 -10.42439,1.79392 -1.20956,-0.97942 -1.2547,-1.19232 -0.53712,-2.53309 1.02379,-1.913 2.58347,-2.36026 4.30257,-1.23386 1.64223,1.07603 1.72747,1.80117 0.39607,3.36956 -0.78461,0.92428 -0.7994,1.01892 -0.0715,0.45847 0.5044,-0.38843 1.34363,-0.54259 1.86491,-0.34254 0.79676,0.30574 0.88871,0.10463 0.57698,-1.26149 -1.15085,-5.0439 -8.54945,-4.57172 -8.0535,0.51397 0.29301,3.00465 4.8788,4.22871 9.15255,2.44304 z m 3.66225,-0.025 c 2.16925,-1.12175 3.15845,-2.35848 2.18516,-2.73196 -0.40739,-0.15631 -1.55799,0.446 -2.55689,1.33853 -2.58643,2.31097 -2.44291,2.84896 0.37173,1.39343 z m -69.995448,-0.74346 c -0.0107,-1.12933 -0.92808,-2.7842 -1.32322,-2.38486 -0.14478,0.14649 -0.12898,0.96531 0.0352,1.81988 0.32855,1.71039 1.30182,2.1373 1.28805,0.56498 z m 78.219508,0.10079 c 1.7058,-1.7058 0.47545,-4.76206 -1.91701,-4.76206 -1.79452,0 -2.35615,3.23312 -0.82723,4.76206 0.48832,0.4883 1.10577,0.88784 1.37212,0.88784 0.26635,0 0.88382,-0.39954 1.37212,-0.88784 z m -28.67955,-1.83255 c -1.78602,-1.97356 -2.24454,-4.34712 -1.22181,-6.32488 0.5104,-0.98701 0.77761,-1.94499 0.59377,-2.12882 -0.40534,-0.40535 -8.22393,3.30721 -8.22393,3.90502 0,0.88487 1.0312,1.00646 1.70014,0.20051 1.05992,-1.27716 1.68955,-1.01207 1.69209,0.71246 0.002,1.25971 0.50967,1.84464 2.6837,3.09124 3.13285,1.79639 4.07648,1.98146 2.77604,0.54451 z m 11.7436,0.36974 c 1.50894,-0.68753 1.80719,-1.31009 0.89706,-1.87257 -0.71909,-0.44444 -2.84794,0.91354 -2.84794,1.81666 0,0.87415 0.14585,0.87834 1.95088,0.0559 z m -6.38778,-0.51873 c 1.07893,-0.57743 1.01354,-0.72499 -1.24507,-2.81014 -1.31109,-1.21039 -2.60297,-2.06523 -2.87083,-1.8997 -0.93131,0.57558 -0.47863,2.55409 0.89975,3.93247 1.58286,1.58286 1.67116,1.60422 3.21615,0.77737 z m -21.46917,-2.13064 c 1.97392,-1.19629 6.38563,-3.64536 9.80383,-5.44238 6.91392,-3.63483 11.81592,-6.64401 12.42283,-7.62602 0.22009,-0.35612 -0.0585,-1.15435 -0.61921,-1.77388 -1.16857,-1.29125 -3.17258,-1.05522 -5.02373,0.5917 -0.62149,0.55294 -4.5623,2.58121 -8.75736,4.50727 -11.06582,5.08063 -12.42979,5.9571 -12.42979,7.98725 0,2.22292 1.35931,2.20078 4.49862,-0.0733 1.53805,-1.11414 2.60414,-1.54857 2.95042,-1.20229 0.3463,0.3463 -0.79947,1.17007 -3.17092,2.27981 -2.04223,0.95568 -3.71313,2.00519 -3.71313,2.33226 0,0.85058 0.0769,0.82045 4.03844,-1.58038 z m 9.52133,-9.44108 c 0,-0.2393 8.93701,-4.76858 9.40915,-4.76858 0.10762,0 0.1956,0.24234 0.1956,0.53854 0,0.2962 -1.20768,1.08301 -2.68371,1.74845 -3.57092,1.60989 -6.92114,2.81112 -6.92114,2.48159 z m -4.23893,10.31929 c 1.07453,-0.55937 1.05629,-0.61152 -0.38153,-1.09079 -1.14374,-0.38125 -2.06846,-0.21845 -3.8122,0.67114 -1.26619,0.64596 -2.30215,1.31201 -2.30215,1.48011 0,0.4612 5.20509,-0.38854 6.49588,-1.06046 z m 29.57283,-0.14222 c 0.78264,-1.71774 0.82322,-3.07126 0.12513,-4.17453 -0.93966,-1.485 -2.29435,0.36918 -2.29435,3.14031 0,2.83389 1.10848,3.36236 2.16926,1.03422 z m -49.712138,-1.95511 c 0.19731,-1.39371 0.1892,-1.3964 -0.98873,-0.33041 -1.4453,1.30798 -1.53529,2.17873 -0.1988,1.92402 0.55215,-0.10528 1.07656,-0.80893 1.1876,-1.59361 z m 30.969808,0.75753 c -0.20713,-0.20713 -0.37666,-0.0376 -0.37666,0.37667 0,0.41433 0.16955,0.58382 0.37666,0.37666 0.20714,-0.20713 0.20714,-0.54615 0,-0.75333 z m 24.21572,0.35192 c 0.55377,-0.89599 -0.81848,-2.21479 -1.89282,-1.8191 -1.14444,0.42152 -1.82241,1.34226 -1.44178,1.95811 0.40564,0.65636 2.90752,0.55205 3.3346,-0.13901 z m -16.68252,-0.52574 c 0,-0.30275 0.78074,-0.9542 1.73497,-1.44765 1.38495,-0.71619 1.60349,-1.05559 1.08328,-1.68237 -0.3584,-0.43186 -0.50233,-1.25566 -0.31982,-1.83068 0.48888,-1.54028 -0.81975,-2.94755 -3.06527,-3.29633 -2.5151,-0.39067 -6.4725,2.03327 -7.32848,4.48872 -0.71136,2.04065 -0.71149,2.05884 -0.0149,2.05884 0.31075,0 0.56499,-0.34709 0.56499,-0.7713 0,-1.4834 2.3389,-3.72634 4.48972,-4.30548 2.38908,-0.64331 3.98514,-0.29631 3.98514,0.86644 0,1.19038 -0.92136,1.45621 -2.52099,0.72738 -3.25366,-1.48248 -3.91734,2.64016 -0.77891,4.83843 1.47606,1.03385 2.16991,1.14705 2.16991,0.354 z m -16.66721,-0.5795 c -0.19198,-0.31074 -0.73057,-0.56499 -1.19668,-0.56499 -0.46612,0 -0.69035,0.25425 -0.4983,0.56499 0.19198,0.31074 0.73055,0.565 1.19666,0.565 0.46611,0 0.69035,-0.25426 0.49832,-0.565 z m -40.920528,-5.93239 c -0.10421,-8.35904 -0.0128,-7.87093 -1.2288,-6.56584 -1.28339,1.37757 -2.37561,1.09533 -3.25832,-0.84199 -0.35415,-0.77728 -0.89708,-1.25679 -1.20652,-1.06556 -0.82087,0.50735 -0.68982,1.4639 0.35937,2.62327 0.85262,0.94214 0.85256,1.12465 -7.9e-4,2.42705 -0.86697,1.32318 -0.85098,1.53755 0.26455,3.54568 0.65301,1.17554 1.84074,3.00337 2.63938,4.06187 l 1.45207,1.92453 0.51068,-1.35953 c 0.28085,-0.74775 0.49163,-2.88503 0.46838,-4.74948 z m 6.64805,4.23697 c 1.97007,-0.93198 4.04651,-1.69453 4.61434,-1.69453 1.26153,0 6.21102,-2.07204 6.21102,-2.60016 0,-0.20927 -1.40866,-0.2148 -3.13035,-0.0128 -1.90661,0.22409 -3.58151,0.12642 -4.28444,-0.24973 -0.8983,-0.48076 -1.37268,-0.41984 -2.14031,0.27487 -1.38961,1.25758 -2.52398,1.1147 -4.52634,-0.57018 -0.95606,-0.80449 -1.77225,-1.24942 -1.81372,-0.98875 -0.0414,0.26069 -0.11425,1.61808 -0.16187,3.01644 -0.0474,1.39835 -0.29502,2.98738 -0.55003,3.53118 -0.72621,1.54862 1.6207,1.26177 5.78161,-0.70669 z m 74.556318,0.45245 c 0.37288,-0.37289 0.67799,-1.00851 0.67799,-1.41248 0,-1.23087 -1.50894,-0.8201 -2.49052,0.67798 -0.8705,1.32856 -0.86428,1.41248 0.10442,1.41248 0.5665,0 1.33509,-0.30508 1.708,-0.67798 z m -3.40268,-0.76653 c 1.38338,-0.96895 1.70151,-3.53359 0.57772,-4.65739 -1.81104,-1.81103 -4.97192,-0.079 -4.97192,2.72424 0,2.53015 2.17548,3.48721 4.3942,1.93315 z m -10.37062,-2.04712 c 3.07431,-3.59165 2.48624,-4.55104 -0.80347,-1.31079 -1.55373,1.53038 -2.82496,2.98272 -2.82496,3.22746 0,1.16557 1.8073,0.21098 3.62843,-1.91667 z m 4.84643,1.0034 c 0,-0.9406 -1.95401,-2.7143 -2.44706,-2.22126 -0.71693,0.71694 -0.37518,2.39489 0.59877,2.93995 1.1159,0.62448 1.84829,0.3397 1.84829,-0.71869 z m -10.67077,-4.30067 c -0.33552,-1.11986 -1.18637,-2.57608 -1.89077,-3.23604 l -1.28073,-1.19993 -2.21936,1.6575 -2.21936,1.6575 h 2.46544 c 3.02593,0 5.04465,1.64178 5.15768,4.19467 0.067,1.51207 0.11082,1.55753 0.33705,0.35009 0.14307,-0.76321 -0.0149,-2.3039 -0.34995,-3.42379 z m 3.03081,0.51666 c -0.31807,-1.44807 -0.18492,-1.60236 1.68455,-1.95307 1.71654,-0.32204 1.92218,-0.5106 1.33217,-1.22154 -0.38375,-0.46238 -1.27844,-1.06148 -1.9882,-1.33133 -0.70979,-0.26985 -3.26268,-1.86884 -5.67314,-3.55328 -6.32945,-4.42308 -9.50088,-6.05627 -12.03559,-6.19795 -2.08966,-0.11681 -3.10267,0.54125 -1.52816,0.9927 4.91765,1.40998 10.64479,4.6326 13.04991,7.34304 1.4187,1.59879 2.97085,4.7384 3.45796,6.99451 0.33451,1.54938 0.54068,1.74834 1.22403,1.1812 0.54239,-0.45014 0.70438,-1.21658 0.47647,-2.25428 z m -1.62194,-3.0963 c -0.59817,-1.5588 -0.3939,-2.11193 0.50455,-1.36627 0.92486,0.76757 1.15134,2.25995 0.34295,2.25995 -0.2775,0 -0.65888,-0.40216 -0.8475,-0.89368 z m -73.226758,5.21543 c 0,-0.10912 -0.27912,-0.99887 -0.62025,-1.97746 -0.62601,-1.79579 -1.90167,-2.3764 -2.35756,-1.07306 -0.17617,0.50359 -0.61856,0.382 -1.54178,-0.42373 l -1.29473,-1.12999 0.68326,1.30146 c 0.83599,1.59237 5.13106,4.35703 5.13106,3.30278 z m 37.854398,-1.64671 c -2.5186,-1.25335 -5.05252,-3.22855 -8.064928,-6.28659 -2.41586,-2.45249 -4.50657,-4.34496 -4.64601,-4.20552 -0.13944,0.13944 0.43881,1.02789 1.28502,1.9743 3.14493,3.5173 4.081018,4.73655 4.081018,5.31542 0,0.32673 0.19753,0.47202 0.43877,0.32289 0.2413,-0.14905 2.21169,0.84997 4.37867,2.22026 2.16696,1.3703 4.44842,2.49038 5.06991,2.4891 0.62148,-0.001 -0.52262,-0.82473 -2.54245,-1.82986 z m 6.19684,-0.32166 c -0.76693,-0.10399 -1.63595,-0.4218 -1.93117,-0.70624 -0.64487,-0.62133 -2.57426,-0.6917 -2.56205,-0.0935 0.0344,1.68216 2.36041,2.50414 4.49322,1.58782 l 1.39444,-0.59906 z m 51.31921,0.35858 c 0.80434,-0.80434 0.90635,-2.71196 0.145,-2.71196 -0.5693,0 -2.29201,2.21779 -2.29201,2.95068 0,0.67514 1.38737,0.52088 2.14697,-0.23872 z M 153.168,122.53544 c 0.50152,-0.68589 0.51773,-1.27255 0.0623,-2.25554 -0.80408,-1.73546 -1.91532,-1.7007 -2.3607,0.0739 -0.67387,2.6849 0.86342,4.14415 2.29841,2.1817 z m -65.218818,-0.81635 c 0.34685,-0.64811 0.50891,-1.30011 0.36009,-1.44891 -0.53186,-0.53188 -4.34092,0.50663 -4.34092,1.18351 0,1.81752 3.04164,2.0203 3.98083,0.2654 z m 36.133498,-3.74937 c 0,-1.09367 -1.18558,-0.86693 -2.64728,0.5063 l -1.30765,1.22845 v -2.68236 c 0,-2.25058 -0.15909,-2.65169 -0.98873,-2.49179 -0.77073,0.14862 -0.99465,0.78029 -1.01556,2.86496 -0.0149,1.47088 -0.33254,2.98009 -0.70624,3.35377 -1.50347,1.50349 -0.49507,1.4094 2.99302,-0.27925 2.01985,-0.97784 3.67244,-2.10288 3.67244,-2.50008 z m -30.210038,3.20534 c 0.2507,-0.40566 0.61517,-0.38576 1.15598,0.063 1.00532,0.83435 3.39714,0.25476 3.8532,-0.93372 0.5889,-1.53463 -4.83166,-7.5768 -6.79732,-7.5768 -0.48279,0 -0.77128,0.64325 -0.77128,1.71974 0,1.32444 0.22727,1.68159 0.98873,1.55374 1.67623,-0.28145 1.60975,2.59312 -0.091,3.93084 -0.78347,0.6163 -1.26364,1.28141 -1.06701,1.47804 0.56688,0.56688 2.32666,0.41538 2.72859,-0.23492 z m 13.604628,-10.14566 -0.0617,-10.73807 12.05892,-0.27967 c 13.55734,-0.314424 16.73234,0.17873 20.56928,3.19419 2.44292,1.91994 2.59539,1.56414 1.36719,-3.19052 -0.59592,-2.307044 -0.98236,-2.862284 -2.10781,-3.028554 -0.75795,-0.11189 -10.60449,-0.0192 -21.88121,0.20756 l -20.503128,0.41113 2.28216,2.10689 c 1.589718,1.467624 2.302108,2.604684 2.347868,3.747414 0.0361,0.90229 0.10827,2.65751 0.16037,3.90048 0.0521,1.24299 0.14948,4.34308 0.21681,6.88911 l 0.12214,4.62916 2.40122,1.43915 c 1.32068,0.79153 2.55615,1.44157 2.74552,1.44449 0.18941,0.002 0.31649,-4.82679 0.28249,-10.73272 z m 8.24801,10.03184 c 0.49414,-0.38843 1.08041,-1.3163 1.30285,-2.06192 0.38608,-1.29426 0.31053,-1.34045 -1.66744,-1.01946 -1.51535,0.24589 -2.15573,0.11766 -2.38405,-0.4773 -0.47833,-1.24648 -1.32375,-0.37769 -1.32375,1.36031 0,2.61646 2.09907,3.74957 4.07239,2.19837 z m 47.58392,-0.18151 c 1.03214,-1.03214 1.12332,-2.13638 0.30297,-3.66921 -0.65378,-1.22158 -2.78411,-1.45282 -3.82207,-0.41486 -0.72078,0.72078 -0.93338,3.96319 -0.30132,4.59527 0.68806,0.68806 2.91977,0.38945 3.82042,-0.5112 z m -5.51313,-2.17635 c 0.11317,-2.9312 -0.93488,-3.72473 -2.6517,-2.0079 -1.92021,1.92022 -1.11837,4.50712 1.39704,4.5071 0.97855,-2e-5 1.17319,-0.38772 1.25466,-2.4992 z m -47.27317,-0.0434 c 0,-1.0876 -0.25424,-1.97747 -0.56498,-1.97747 -0.31075,0 -0.56499,0.88987 -0.56499,1.97747 0,1.0876 0.25424,1.97746 0.56499,1.97746 0.31074,0 0.56498,-0.88986 0.56498,-1.97746 z m -18.967548,0.52462 c 1.17464,-1.17461 1.12741,-2.02685 -0.10079,-1.82062 -0.74585,0.12514 -1.03223,-0.28507 -1.16578,-1.6702 -0.29018,-3.00948 -1.07402,-2.08171 -1.07402,1.27123 0,3.29393 0.65,3.9103 2.34068,2.21959 z m 58.896828,-3.09925 c -0.68965,-1.82707 -2.5966,-2.30196 -2.70681,-0.67408 -0.10677,1.57731 0.13026,2.63019 0.76661,3.40421 0.47457,0.57724 0.78871,0.54277 1.58008,-0.1734 0.8245,-0.74617 0.88402,-1.1687 0.36012,-2.55671 z m -63.718188,1.83794 c 0.7902,-1.47648 0.0769,-2.08827 -2.43515,-2.08827 -2.50809,0 -3.34935,1.15523 -1.71274,2.35195 1.45963,1.06731 3.50515,0.93729 4.14789,-0.26368 z m 41.175678,-0.95395 c 0.53612,-0.43398 -0.74882,-1.9818 -1.64519,-1.9818 -1.22258,0 -1.90738,1.25276 -1.40315,2.56682 0.27472,0.71589 0.56349,0.75272 1.61419,0.20585 0.70378,-0.36622 1.34914,-0.72217 1.43415,-0.79098 z m 18.43155,-0.62031 c 0.4288,-1.1175 -0.035,-1.92649 -1.10473,-1.92649 -0.44777,0 -0.81414,0.46611 -0.81414,1.03582 0,1.82992 1.32281,2.44392 1.91887,0.89067 z m 7.9428,-0.53968 c 1.65814,-1.65816 1.83538,-2.80845 0.51107,-3.31664 -1.01242,-0.38851 -3.59285,1.03356 -3.59285,1.98001 0,0.68612 1.05883,2.77478 1.40667,2.77478 0.13026,0 0.88412,-0.64718 1.67511,-1.43815 z m 13.30296,-1.17349 c 0,-0.79293 -0.33357,-1.34329 -0.81415,-1.34329 -1.16009,0 -1.53654,0.85429 -1.11555,2.53164 0.29131,1.16068 0.52253,1.32278 1.14726,0.8043 0.43035,-0.35714 0.78244,-1.25384 0.78244,-1.99265 z m -50.86325,0.37795 c 0.48284,-0.90214 0.27248,-1.4661 -1.15187,-3.08839 -2.02357,-2.30469 -2.08891,-4.46383 -0.1435,-4.74079 1.46608,-0.20863 2.67542,1.64938 2.1503,3.30388 -0.26895,0.84739 0.009,1.24498 1.17703,1.68945 0.84084,0.31967 1.60659,0.50342 1.7017,0.40831 0.44295,-0.44297 -0.90724,-4.5881 -1.83317,-5.62789 -1.43606,-1.61261 -4.24505,-2.70568 -6.95318,-2.70568 -1.83766,0 -2.27811,0.20158 -2.27811,1.04242 0,0.57333 0.5457,1.52677 1.21269,2.11872 2.27034,2.01498 4.43721,5.47903 4.43721,7.09347 0,1.85946 0.82397,2.10773 1.6809,0.5065 z m 15.4144,-0.82234 c 0.18941,0.18941 0.65806,0.15033 1.04162,-0.0867 0.44901,-0.2775 -0.36825,-0.90129 -2.29482,-1.75154 -1.64573,-0.72629 -3.21386,-1.32055 -3.48476,-1.32055 -0.96074,0 -0.47421,2.48913 0.73891,3.78044 l 1.23144,1.31082 1.21169,-1.13832 c 0.66642,-0.62608 1.36659,-0.98341 1.55592,-0.79407 z m -55.055988,0.37882 c -0.104,-0.54024 -0.64686,-1.07039 -1.20625,-1.17812 -0.89693,-0.17276 -0.93016,-0.0566 -0.28136,0.98224 0.89384,1.43125 1.74716,1.54361 1.48761,0.19581 z m 22.53212,-2.13841 c -0.12129,-3.48593 -0.94002,-3.9005 -2.52545,-1.27898 -0.88754,1.46757 -0.86968,1.59378 0.41965,2.96622 0.74064,0.78837 1.54188,1.43341 1.78054,1.43341 0.23865,0 0.38503,-1.40431 0.32526,-3.12065 z m 23.916078,1.84942 c 0.3023,-0.69917 0.85738,-1.70127 1.23349,-2.2269 0.55531,-0.77602 0.48986,-1.16998 -0.34812,-2.09593 -1.979,-2.18678 0.26595,-5.44578 2.3297,-3.38203 0.94327,0.94327 1.99899,-0.0107 1.70625,-1.54248 -0.18813,-0.98369 -0.004,-1.34624 0.6863,-1.34624 0.519,0 1.43718,-0.37329 2.04037,-0.82952 1.00979,-0.76374 0.86157,-0.83094 -1.86948,-0.84749 -3.0821,-0.0192 -3.70163,0.60248 -2.25995,2.26587 0.38842,0.44817 -0.0566,0.17296 -0.98874,-0.61141 -1.61762,-1.36117 -2.01726,-1.42542 -8.75737,-1.40808 -3.88431,0.0107 -7.06238,0.23786 -7.06238,0.50641 0,0.26852 1.1441,0.56985 2.54247,0.66957 3.29346,0.23492 6.5482,1.62327 7.55745,3.22379 0.43987,0.69757 0.97357,2.98446 1.18604,5.08197 0.39836,3.93277 1.04699,4.75571 2.00397,2.54247 z m 20.92833,-0.71777 c 0.60152,-0.1909 1.09367,-0.82347 1.09367,-1.40567 0,-0.58221 0.2581,-1.21809 0.57354,-1.41305 0.68002,-0.42027 2.25142,-4.02767 2.25142,-5.1685 0,-1.40836 -2.03771,0.15866 -2.84254,2.18601 -0.40564,1.02178 -1.47453,2.97636 -2.37533,4.3435 -1.27577,1.93619 -1.47332,2.58862 -0.89369,2.95132 0.47385,0.29652 0.80864,0.17296 0.92171,-0.34043 0.0976,-0.44333 0.6697,-0.96225 1.27122,-1.15318 z m -59.118198,0.53616 c 2.32878,-2.32878 0.0762,-4.1386 -2.5271,-2.03049 l -1.28015,1.03661 1.34328,0.94085 c 1.61987,1.13461 1.38739,1.12961 2.46397,0.053 z m 25.509488,-0.10045 c 0.61725,-0.83138 0.91822,-0.87633 1.89083,-0.28252 1.36228,0.83176 1.73706,0.87977 1.73706,0.22251 0,-0.7586 -3.9441,-5.73115 -4.54582,-5.73115 -0.2965,0 -0.5391,1.52546 -0.5391,3.38994 0,3.57682 0.2627,4.00977 1.45703,2.40122 z m 50.18192,-0.3179 c 0.50722,-0.83424 0.36923,-1.23206 -0.74419,-2.14548 -1.86657,-1.53131 -3.76673,-1.22042 -3.56647,0.5835 0.31603,2.84685 2.94928,3.80101 4.31066,1.56198 z m -19.15837,-1.30539 c 0.53409,-0.81513 0.69046,-1.30862 0.3475,-1.09666 -0.80573,0.49798 -0.79915,-0.55753 0.0128,-2.0749 0.51986,-0.97137 0.44837,-1.32696 -0.39012,-1.94007 -0.92731,-0.67806 -1.15309,-0.49102 -2.33309,1.93275 l -1.30642,2.68344 1.19416,0.98874 c 1.48882,1.23272 1.32241,1.26588 2.47508,-0.4933 z m 22.7869,-0.64498 c 0.11083,-0.77683 -0.17745,-1.40549 -0.74423,-1.62299 -1.28057,-0.49139 -2.16896,0.5668 -1.70447,2.03028 0.49844,1.57043 2.20712,1.28623 2.4487,-0.40729 z M 78.994242,111.4065 c 0.90848,-0.90851 3.44928,-1.6185 5.96284,-1.66627 1.00991,-0.0192 1.83426,-0.18109 1.83187,-0.3598 -0.004,-0.25994 -3.64807,-2.60774 -5.1392,-3.31061 -0.1877,-0.0884 -1.40351,1.24637 -2.702,2.96619 -1.54153,2.04177 -2.07444,3.127 -1.53546,3.127 0.45399,0 1.16586,-0.34043 1.58195,-0.75651 z m 72.207998,-0.28591 c 0,-0.57333 0.5076,-1.50178 1.128,-2.06322 1.2838,-1.16183 0.64412,-2.54426 -1.17729,-2.54426 -1.85579,0 -2.95118,3.55341 -1.53268,4.97191 0.97538,0.97536 1.58197,0.83564 1.58197,-0.36443 z m -73.544568,-2.01616 c 0.98491,-1.37146 1.79074,-2.71874 1.79074,-2.994 0,-0.27523 -0.82629,-0.40692 -1.83623,-0.29265 -1.1996,0.13581 -2.75667,-0.28454 -4.49117,-1.21225 l -2.65494,-1.41999 -2.28406,1.24002 c -2.67963,1.45481 -2.8991,2.08755 -0.72411,2.08755 0.86308,0 2.14611,0.40403 2.85116,0.89787 0.70504,0.49383 1.62228,0.76725 2.03832,0.6076 1.09542,-0.42035 3.1461,1.19713 3.1461,2.48149 0,0.60386 0.0839,1.09795 0.18664,1.09795 0.10271,0 0.99255,-1.12211 1.97746,-2.49359 z m 18.62575,0.0854 c 0.43214,-0.90163 1.19982,-1.54682 1.84052,-1.54682 0.70686,0 1.09916,-0.38678 1.09916,-1.08376 0,-0.59607 0.14713,-1.4674 0.32712,-1.93625 0.24452,-0.63724 0.0352,-0.77611 -0.82937,-0.55003 -0.63607,0.16634 -2.85421,0.006 -4.9292,-0.35459 -2.64535,-0.46064 -3.95077,-0.47892 -4.36856,-0.0611 -0.41779,0.41777 -0.33158,0.59582 0.28845,0.59582 0.48636,0 1.55421,0.52695 2.37296,1.17099 1.16506,0.91643 1.48868,1.66238 1.48868,3.43137 0,1.84488 0.18086,2.22553 0.98444,2.0708 0.54143,-0.10421 1.31805,-0.88565 1.7258,-1.7364 z m 42.264168,-0.75014 c 1.1374,-2.72217 1.0656,-2.88177 -1.88278,-4.18598 -3.06016,-1.35368 -4.72643,-0.89572 -6.08499,1.67233 -0.74446,1.40725 -0.69268,1.46822 2.72816,3.21262 1.91785,0.978 3.70364,1.64614 3.96838,1.48477 0.26477,-0.16144 0.83682,-1.14406 1.27123,-2.18374 z m 16.28089,2.25032 c 0.49153,-0.18856 0.89369,-0.56998 0.89369,-0.84748 0,-0.82407 -2.06442,-0.57346 -2.82496,0.34295 -0.57342,0.69095 -0.54256,0.84748 0.1672,0.84748 0.47876,0 1.27261,-0.15439 1.76416,-0.34295 z m 14.57111,-2.23207 c 0.50404,-1.10626 0.44331,-1.57791 -0.31049,-2.41084 -0.51542,-0.56953 -0.93714,-1.57255 -0.93714,-2.22891 0,-1.77524 -0.80594,-1.95455 -2.61729,-0.58228 -0.89108,0.67509 -1.70042,1.2816 -1.79856,1.3478 -0.0982,0.0662 -0.26353,1.0359 -0.36753,2.15483 -0.12535,1.34819 0.0483,2.03446 0.51461,2.03446 0.38704,0 1.15647,0.5003 1.70986,1.11179 1.21041,1.33749 2.82233,0.73326 3.80654,-1.42685 z m -79.781338,-0.29923 c 0,-1.2973 -1.636,-2.21067 -3.95961,-2.21067 h -1.77394 l 2.16053,2.18238 c 2.22863,2.25111 3.57302,2.26177 3.57302,0.0282 z m 3.38994,1.02249 c 0,-0.70771 -0.39577,-1.85182 -0.87953,-2.54245 -1.13041,-1.61391 -2.20806,-1.67216 -1.35226,-0.073 0.34809,0.65045 0.47931,1.79455 0.29161,2.54247 -0.27613,1.10016 -0.12342,1.35985 0.79943,1.35985 0.81043,0 1.14075,-0.37261 1.14075,-1.28677 z m 50.566678,0.72179 c 0.19197,-0.31075 0.0799,-0.56501 -0.24916,-0.56501 -0.32908,0 -0.59834,0.25426 -0.59834,0.56501 0,0.31074 0.11211,0.56498 0.24916,0.56498 0.13709,0 0.40628,-0.25424 0.59834,-0.56498 z m 14.97226,-5.45498 c 0,-2.03675 -0.18322,-2.4549 -1.07545,-2.4549 -0.89087,0 -1.11579,0.5091 -1.31045,2.9662 -0.28931,3.65174 -0.0613,4.1583 1.31201,2.91543 0.7413,-0.67087 1.07389,-1.73212 1.07389,-3.42673 z m 3.76413,2.48876 c -0.15674,-0.38843 -0.28499,-0.0707 -0.28499,0.70624 0,0.77688 0.12834,1.09467 0.28499,0.70624 0.15674,-0.38843 0.15674,-1.02403 0,-1.41248 z m -7.15407,-1.30456 c 0,-1.52647 -0.82623,-1.85568 -1.33431,-0.53165 -0.41495,1.08135 0.16379,2.63425 0.82852,2.22338 0.27817,-0.1719 0.50579,-0.93321 0.50579,-1.69173 z m -87.367278,-1.98513 c 0.81877,-0.64405 1.48867,-1.35612 1.48867,-1.58239 0,-0.5678 -5.14763,-3.022154 -5.53211,-2.637674 -0.17084,0.17084 0.27414,0.932984 0.98877,1.693694 0.83185,0.88547 1.19051,1.79946 0.99678,2.54023 -0.38377,1.46755 0.17938,1.46375 2.05789,-0.0128 z m 18.29714,0.46475 c -0.12941,-0.38843 -0.5744,-0.70624 -0.98874,-0.70624 -0.41431,0 -0.85924,0.31781 -0.98873,0.70624 -0.14008,0.42012 0.26052,0.70624 0.98873,0.70624 0.72822,0 1.12878,-0.28612 0.98874,-0.70624 z m 67.915798,-1.24532 1.30262,-1.38656 -1.73892,-1.46322 c -0.9564,-0.804744 -1.89677,-1.960534 -2.08968,-2.568374 -0.56093,-1.76727 -1.23292,-1.29727 -2.19899,1.53794 -1.15758,3.397374 -1.13663,4.557244 0.0882,4.877314 2.20918,0.57733 3.39787,0.3217 4.63683,-0.9971 z m 7.63059,-1.47257 c -0.59545,-0.96347 -1.95585,0.19389 -1.93753,1.64836 l 0.0192,1.49328 1.10814,-1.3301 c 0.60949,-0.73154 0.97426,-1.54673 0.8106,-1.81154 z m -81.267548,-1.23706 c -0.76456,-1.320664 -1.66634,-3.449804 -2.00395,-4.731404 -0.43367,-1.64639 -1.19074,-2.72409 -2.57977,-3.67244 -1.08128,-0.73823 -2.09523,-1.67605 -2.25323,-2.08404 -0.16485,-0.42565 0.41038,-0.24504 1.34959,0.42375 2.34463,1.66952 2.87491,1.46764 2.87491,-1.09444 0,-2.12032 -0.10186,-2.25995 -1.64876,-2.25995 -2.41535,0 -3.45681,0.54574 -4.05773,2.12628 -0.47002,1.23627 -0.77918,1.36757 -2.54505,1.081 -2.24994,-0.36511 -2.2468,-0.35569 1.17517,3.54135 4.95372,5.64142 8.6707,9.071104 9.83097,9.071104 h 1.24797 z m 16.87974,1.95615 c -1.79063,-0.21909 -4.80242,-2.654624 -4.80242,-3.883564 0,-0.4 -0.7973,-1.13955 -1.77176,-1.64349 -1.73997,-0.89977 -1.79564,-0.88734 -3.10133,0.69174 -1.58901,1.92173 -2.28829,4.131814 -1.46646,4.634784 0.32631,0.19966 3.34811,0.37318 6.71512,0.38552 3.36699,0.0128 5.35908,-0.0709 4.42685,-0.18492 z m 68.081388,-3.325864 c 0,-1.14459 -0.96484,-0.8933 -1.94543,0.50669 -1.45037,2.070704 -1.09975,3.103104 0.53295,1.569264 0.77686,-0.72981 1.41248,-1.663994 1.41248,-2.075954 z m -81.146928,1.309174 c 0.18386,-0.732464 1.48263,-2.390304 2.88621,-3.684074 1.40357,-1.29378 2.55195,-2.43893 2.55195,-2.54482 0,-0.10592 -0.57205,-0.0844 -1.27123,0.048 -0.90573,0.17147 -1.83104,-0.33851 -3.21828,-1.77332 -1.94477,-2.01146 -3.64732,-2.6977 -3.09005,-1.24545 0.16208,0.42259 -0.38242,1.57327 -1.21021,2.55703 -1.39382,1.65645 -1.45088,1.92335 -0.77193,3.61032 1.73213,4.303874 3.48153,5.590304 4.12354,3.032314 z m 11.66438,-0.632034 c -0.39306,-0.47363 -0.9772,-0.86114 -1.29804,-0.86114 -0.32087,0 -0.12172,0.51006 0.44237,1.13344 1.16844,1.291114 1.94746,1.043214 0.85567,-0.2723 z m 61.347258,-2.77299 c -0.86616,-2.51945 -1.92997,-3.74273 -2.92334,-3.36154 -2.04977,0.78657 0.092,5.27339 2.51719,5.27339 0.96118,0 1.00022,-0.18386 0.40615,-1.91185 z m 10.60413,-0.48937 c 0.88109,-3.28776 0.40846,-5.34563 -1.64103,-7.1451 -1.72664,-1.51601 -3.65277,-2.30491 -3.65277,-1.49609 0,0.14158 0.63562,1.19403 1.41248,2.3388 1.39339,2.05329 1.64502,2.91586 1.43631,4.92361 -0.1089,1.04703 0.904,2.65001 1.67441,2.65001 0.23647,0 0.58324,-0.57206 0.7706,-1.27123 z m -5.48212,-0.2354 c -0.20714,-0.20714 -0.37666,-0.0376 -0.37666,0.37666 0,0.41431 0.16955,0.58382 0.37666,0.37666 0.20713,-0.20713 0.20713,-0.54617 0,-0.75332 z m -2.50551,-0.75333 c 0.38811,-0.62149 1.15301,-1.12999 1.69976,-1.12999 1.2337,0 1.28967,-1.31865 0.10613,-2.50209 -0.94549,-0.94549 -5.04642,-1.23404 -5.56701,-0.39171 -0.34856,0.564 1.99536,5.14199 2.63637,5.1491 0.23043,0.002 0.73652,-0.50382 1.12465,-1.12531 z m -53.80524,-0.21751 c 0,-0.11958 -0.65203,-0.64474 -1.44891,-1.16687 -1.66745,-1.09255 -4.765998,-0.71431 -4.765998,0.58179 0,0.59618 0.799168,0.80259 3.107448,0.80259 1.70909,0 3.10746,-0.0978 3.10746,-0.21751 z m 5.75504,-2.5691 c 1.37123,-2.77072 1.37245,-2.7884 0.21333,-3.09974 -1.84915,-0.49663 -4.7406,-0.37874 -5.10328,0.2082 -0.18236,0.29515 0.18386,0.8126 0.81414,1.14987 1.26734,0.67824 1.52438,2.79385 0.4678,3.8504 -0.52731,0.52731 -0.35499,0.67799 0.77554,0.67799 1.17846,0 1.71444,-0.5273 2.83256,-2.78661 z m 15.14961,2.22163 c 0,-0.52121 -1.92645,-0.84684 -3.95493,-0.66851 -2.9347,0.258 -5.13147,0.24529 -5.40807,-0.0314 -0.17617,-0.17617 -0.0107,-1.35384 0.36804,-2.61721 0.55723,-1.85987 0.54523,-2.46933 -0.0632,-3.20231 -0.67607,-0.81461 -0.89894,-0.74568 -2.22528,0.68831 -3.5539,3.8423 -4.18085,5.60326 -2.13518,5.99726 2.70117,0.52027 13.41852,0.38749 13.41852,-0.16635 z m 8.6726,0.17894 c 0.21226,-0.21226 -0.4195,-0.72479 -1.40407,-1.13878 -1.53347,-0.64477 -1.98039,-0.62805 -3.11687,0.11659 -0.72969,0.47812 -1.3267,0.99055 -1.3267,1.13876 0,0.42296 5.41607,0.31495 5.84764,-0.11659 z m -66.344258,-1.16765 c -0.41028,-0.54383 -1.48697,-1.79308 -2.39265,-2.77615 -1.0053,-1.09119 -1.47793,-2.06049 -1.21342,-2.48851 0.2849,-0.46094 0.20137,-0.55776 -0.24371,-0.28266 -0.37237,0.23013 -1.05342,0.10613 -1.51345,-0.27572 -1.27107,-1.05489 -1.64483,-0.18301 -0.6031,1.40684 1.10313,1.68361 1.18551,2.94527 0.21777,3.33577 -0.38843,0.15674 0.0566,0.31405 0.98873,0.34959 0.93223,0.0354 2.3306,0.42797 3.10746,0.87207 1.9226,1.09907 2.5478,1.04562 1.65237,-0.14115 z m 11.6786,-1.35378 c 0.81463,-0.91773 0.89571,-1.27556 0.33355,-1.47174 -0.40853,-0.14264 -0.99845,-0.93172 -1.31097,-1.75367 -0.47574,-1.25126 -0.65023,-1.34791 -1.07224,-0.59384 -0.54707,0.97755 -0.088,5.03177 0.56985,5.03177 0.22193,0 0.88783,-0.54564 1.47981,-1.21252 z m 18.02603,0.64754 c 0.19197,-0.31075 -0.0323,-0.56501 -0.49832,-0.56501 -0.46612,0 -1.00462,0.25426 -1.19666,0.56501 -0.19197,0.31074 0.0322,0.56498 0.4983,0.56498 0.46611,0 1.00462,-0.25424 1.19668,-0.56498 z m 23.126098,-0.92529 c 0.81752,-0.55239 1.28442,-0.57739 1.86017,-0.0995 0.56755,0.47102 0.93432,0.4723 1.40174,0.004 0.46739,-0.4674 0.22975,-0.78638 -0.90821,-1.21904 -2.3049,-0.87632 -4.11549,-0.71461 -4.50962,0.40276 -0.19176,0.5438 -0.49697,1.30671 -0.67809,1.69536 -0.37799,0.81094 1.06338,0.412 2.83401,-0.78442 z m 25.30261,0.46427 c 0.8544,-0.85439 -2.68904,-2.36395 -5.54898,-2.36395 h -2.0733 l 2.0809,1.6537 c 2.1237,1.68769 4.28671,1.96493 5.54138,0.71025 z m -53.796138,-0.12214 c 0,-0.67743 -2.32776,-1.67089 -2.99364,-1.27763 -0.24813,0.14649 -0.15354,0.62518 0.21055,1.06364 0.76488,0.92164 2.78319,1.07682 2.78319,0.21399 z m 13.559768,0.0192 c 0,-0.31074 -0.50848,-0.56499 -1.12996,-0.56499 -0.62149,0 -1.12999,0.25425 -1.12999,0.56499 0,0.31074 0.5085,0.565 1.12999,0.565 0.62148,0 1.12996,-0.25426 1.12996,-0.565 z m -18.644688,-0.84748 c 0,-0.46611 -0.38136,-0.84749 -0.84748,-0.84749 -0.88228,0 -1.12093,0.66823 -0.47083,1.31831 0.6501,0.6501 1.31831,0.41144 1.31831,-0.47082 z m 2.40121,-1.78666 c -0.38843,-0.15674 -1.02403,-0.15674 -1.41248,0 -0.38843,0.15673 -0.0707,0.28497 0.70624,0.28497 0.77688,0 1.09467,-0.12834 0.70624,-0.28497 z m 38.274448,-0.7333 c 1.56249,-1.20046 1.58284,-1.18495 -2.93021,-2.2322 -3.59586,-0.83442 -6.67312,-0.79238 -6.6623,0.091 0.0149,1.25 0.78906,1.87332 3.09881,2.49633 3.41145,0.92016 4.94281,0.83641 6.4937,-0.35512 z m -43.065088,-0.48155 c 0.123,-0.36902 -0.17894,-0.67092 -0.67094,-0.67092 -0.49199,0 -0.89456,0.40254 -0.89456,0.89456 0,0.99774 1.21628,0.82398 1.5655,-0.22364 z M 103.97156,192.3054 c -0.24978,-0.40412 -0.15503,-0.49891 0.24916,-0.24913 0.6513,0.40252 0.8744,0.90143 0.40312,0.90143 -0.13709,0 -0.43056,-0.29353 -0.65228,-0.6523 z M 63.628682,136.76098 c 0,-0.45518 0.50628,-1.09855 1.12508,-1.42973 0.99445,-0.53221 1.11134,-0.43611 1.00675,0.82761 -0.12791,1.54505 -2.13183,2.11106 -2.13183,0.60212 z M 166.01581,133.5689 c 0.14799,-0.43049 0.91015,-0.77527 1.6938,-0.76618 1.3774,0.0149 1.42175,-0.0967 1.33268,-3.38994 -0.0506,-1.87358 0.15909,-3.83259 0.46601,-4.35335 0.37942,-0.64365 0.34126,-1.42297 -0.11915,-2.4335 -0.46922,-1.0298 -0.50296,-1.81255 -0.10976,-2.54719 0.79024,-1.47657 0.7095,-5.4411 -0.13859,-6.80966 -0.58173,-0.93866 -0.55766,-1.23195 0.13645,-1.66377 0.52951,-0.32939 1.0545,-0.3123 1.41248,0.0459 0.67782,0.67837 0.57769,20.79594 -0.10677,21.45672 -0.24939,0.24076 -1.43954,0.61907 -2.64475,0.8407 -1.73922,0.31982 -2.13581,0.24147 -1.92233,-0.37978 z m 3.83112,-35.529654 c 0,-0.41433 0.16955,-0.58384 0.37666,-0.37666 0.20714,0.20713 0.20714,0.54615 0,0.75332 -0.20713,0.20714 -0.37666,0.0376 -0.37666,-0.37666 z m 4.23744,-2.25998 c 0.19198,-0.31074 0.46131,-0.56498 0.59834,-0.56498 0.13709,0 0.24914,0.25424 0.24914,0.56498 0,0.31075 -0.26925,0.56501 -0.59834,0.56501 -0.32906,0 -0.44119,-0.25426 -0.24914,-0.56501 z m -3.91326,-4.43936 c -1.00798,-1.94917 -1.1291,-2.90551 -0.36798,-2.90551 0.60332,0 1.99816,3.88388 1.55425,4.32779 -0.16335,0.16336 -0.69725,-0.4766 -1.18627,-1.42228 z m -17.2739,-0.24555 c 0,-0.59037 4.04233,-4.45587 4.34412,-4.15408 0.18536,0.18514 0.006,0.7362 -0.39974,1.22436 -0.82014,0.98821 -3.94438,3.30877 -3.94438,2.92972 z m -51.13166,-1.52997 c 0.19197,-0.31074 0.46131,-0.56501 0.59833,-0.56501 0.1371,0 0.24916,0.25427 0.24916,0.56501 0,0.31074 -0.26925,0.56498 -0.59834,0.56498 -0.32908,0 -0.44119,-0.25424 -0.24915,-0.56498 z m -2.777858,-2.11872 c -0.23303,-0.23306 -2.2288,-0.43626 -4.43503,-0.45157 -2.59728,-0.0171 -4.09102,-0.26697 -4.23744,-0.70624 -0.28365,-0.85092 6.97175,-0.9607 7.4954,-0.11339 0.19197,0.31074 1.73253,0.56498 3.423278,0.56498 1.69076,0 3.07411,0.25424 3.07411,0.56498 0,0.65196 -4.685248,0.77635 -5.320318,0.14137 z m 55.039508,-0.50116 c 0,-0.58478 0.45507,-1.34746 1.01128,-1.6948 1.76027,-1.0993 6.7262,-1.48929 9.74438,-0.76524 2.2128,0.53084 3.0083,0.52887 3.6564,-0.009 1.29386,-1.07379 2.64116,-0.23752 2.43424,1.51092 -0.18108,1.53072 -1.59155,2.61526 -1.59155,1.22386 0,-0.48388 -0.75779,-0.77338 -2.11872,-0.80938 -1.16529,-0.0308 -3.38995,-0.293 -4.94366,-0.5826 -2.95236,-0.55034 -5.48618,-0.0564 -7.25903,1.41487 -0.81156,0.67355 -0.93334,0.63588 -0.93334,-0.28864 z"
       id="path17945" />
  </g>
</svg>
