<?xml version="1.0" encoding="UTF-8" standalone="no"?>
<!-- Created with Inkscape (http://www.inkscape.org/) -->

<svg
   width="98.269089mm"
   height="98.424149mm"
   viewBox="0 0 98.269092 98.424142"
   version="1.1"
   id="svg5"
   inkscape:version="1.1 (c4e8f9ed74, 2021-05-24)"
   sodipodi:docname="ornateo.svg"
   xmlns:inkscape="http://www.inkscape.org/namespaces/inkscape"
   xmlns:sodipodi="http://sodipodi.sourceforge.net/DTD/sodipodi-0.dtd"
   xmlns="http://www.w3.org/2000/svg"
   xmlns:svg="http://www.w3.org/2000/svg">
  <sodipodi:namedview
     id="namedview7"
     pagecolor="#ffffff"
     bordercolor="#666666"
     borderopacity="1.0"
     inkscape:pageshadow="2"
     inkscape:pageopacity="0.0"
     inkscape:pagecheckerboard="0"
     inkscape:document-units="mm"
     showgrid="false"
     inkscape:zoom="0.66903058"
     inkscape:cx="-272.78275"
     inkscape:cy="365.45415"
     inkscape:window-width="2506"
     inkscape:window-height="1403"
     inkscape:window-x="1974"
     inkscape:window-y="0"
     inkscape:window-maximized="1"
     inkscape:current-layer="layer1" />
  <defs
     id="defs2" />
  <g
     inkscape:label="Layer 1"
     inkscape:groupmode="layer"
     id="layer1"
     transform="translate(-17.402404,-212.30096)">
    <path
       style="fill:#000000;stroke-width:0.264583"
       d="m 18.226658,310.39598 c -0.18796,-0.22832 -0.15866,-1.0271 0.0946,-2.57968 0.51065,-3.13039 0.47465,-3.7342 -0.28401,-4.7625 -1.12829,-1.52931 -0.83519,-2.43452 1.84191,-5.68855 1.8662,-2.26835 1.79471,-2.09528 1.1854,-2.86989 -0.31748,-0.40361 -1.06793,-0.84685 -1.78729,-1.05565 -1.00282,-0.29106 -1.2552,-0.48545 -1.31938,-1.01622 -0.11193,-0.92576 0.93422,-3.57733 1.59363,-4.0392 0.62848,-0.44021 1.52844,-0.13191 1.52844,0.52361 0,0.47709 0.12665,0.47695 1.45521,-0.002 0.58208,-0.20971 1.65364,-0.39029 2.38125,-0.40131 1.24685,-0.0189 1.29249,-0.0435 0.79375,-0.42925 -0.52034,-0.4024 -1.51093,-0.38722 -3.37344,0.0517 -0.6451,0.15202 -0.72761,0.0966 -0.72761,-0.48844 0,-1.59797 1.73842,-1.85387 4.99586,-0.73542 1.34187,0.46074 2.69961,0.80046 3.01719,0.75494 0.57743,-0.0828 0.57743,-0.0828 -0.0395,-0.65569 -0.33932,-0.31512 -1.40897,-0.77123 -2.37701,-1.0136 -3.26162,-0.8166 -4.9939,-1.42659 -6.39163,-2.25072 -0.76491,-0.45102 -1.7366,-0.88919 -2.15931,-0.97374 -1.01573,-0.20314 -1.3529,-0.85667 -0.87091,-1.68806 0.20557,-0.35458 0.6217,-1.15422 0.92475,-1.77697 0.55098,-1.13227 0.55098,-1.13227 -0.12631,-2.61166 -0.3725,-0.81376 -0.67728,-1.87735 -0.67728,-2.36362 0,-1.32611 0.98552,-3.69954 1.96929,-4.74264 0.99374,-1.05366 1.45798,-1.16036 1.66156,-0.38188 0.21423,0.81923 0.88667,0.52172 1.76004,-0.7787 0.42808,-0.6374 1.1044,-1.34604 1.50292,-1.57476 0.7036,-0.40381 0.70887,-0.42383 0.18204,-0.69125 -1.37428,-0.69757 -1.83452,-2.06596 -2.22197,-6.60632 -0.0921,-1.07945 -0.36019,-2.16717 -0.65208,-2.64584 -0.27261,-0.44705 -0.4961,-1.25155 -0.49665,-1.78778 -0.001,-1.4029 -0.39591,-2.24127 -1.14284,-2.42874 -0.3582,-0.0899 -1.01234,-0.57469 -1.45364,-1.07731 -0.97126,-1.10619 -1.25814,-2.84909 -1.02133,-6.20476 0.1941,-2.75043 0.64502,-3.50885 2.24901,-3.78267 2.21382,-0.37793 4.30462,-1.64775 3.87026,-2.35055 -0.10392,-0.16814 -0.83559,-0.59169 -1.62595,-0.94122 l -1.43701,-0.63552 0.17801,-1.18703 c 0.15887,-1.05944 0.12285,-1.18703 -0.33508,-1.18703 -0.2822,0 -0.79273,0.29766 -1.1345,0.66146 -0.76917,0.81875 -1.0751,0.82706 -1.80596,0.0491 -0.67869,-0.72243 -0.71546,-1.30507 -0.17841,-2.82722 0.21828,-0.61867 0.39687,-1.69548 0.39687,-2.39291 0,-1.12454 0.13718,-1.42769 1.21215,-2.67871 0.66668,-0.77587 1.38965,-1.74878 1.60658,-2.16204 0.39014,-0.74318 0.41224,-0.749 2.029,-0.53461 0.89901,0.11922 2.28941,0.21921 3.08977,0.2222 1.40858,0.005 1.458,-0.019 1.54229,-0.757 0.082,-0.71824 0.0437,-0.75112 -0.66146,-0.56693 -1.4254,0.37232 -3.90058,0.45434 -4.87755,0.16163 -1.10709,-0.33169 -2.61786,-1.88471 -2.61786,-2.69106 0,-0.2932 0.17,-0.86184 0.37778,-1.26365 0.54838,-1.06044 3.82248,-4.06451 5.19341,-4.76507 l 1.17568,-0.6008 -1.19062,0.18222 c -1.66102,0.25421 -2.31508,0.64484 -3.91854,2.34026 -1.36873,1.44723 -2.16945,2.84947 -2.1643,3.79016 0.001,0.25934 0.30301,1.11691 0.6702,1.90572 0.52045,1.11806 0.59278,1.48123 0.32814,1.6476 -0.50461,0.31724 -1.31778,0.006 -2.02534,-0.77416 -0.56356,-0.62171 -0.61063,-0.8541 -0.4617,-2.27907 0.0912,-0.87272 0.41242,-2.09611 0.71378,-2.71864 0.50557,-1.04435 0.51569,-1.17789 0.13097,-1.72716 -0.47829,-0.68286 -0.55311,-2.63921 -0.13108,-3.42777 0.47069,-0.8795 1.85999,-1.31116 3.33305,-1.0356 0.70172,0.13127 3.65711,0.18263 6.56753,0.11414 2.91041,-0.0685 7.73041,-0.0291 10.71111,0.0876 5.419439,0.21217 5.419439,0.21217 5.423953,0.87362 0.0062,0.90562 0.674039,0.95604 3.412328,0.2576 l 2.236439,-0.57044 1.225436,0.71815 c 0.953278,0.55866 1.436016,0.68398 2.173608,0.56429 1.217586,-0.19759 2.093642,0.18193 4.715039,2.04259 2.951901,2.09526 3.349212,2.49963 3.254775,3.31256 -0.07978,0.68671 -0.07978,0.68671 -2.924046,0.59478 l -2.844271,-0.0919 v 1.0685 c 0,0.58768 0.114599,1.13933 0.254662,1.2259 0.140065,0.0866 1.955768,-0.14133 4.034896,-0.50642 2.07913,-0.3651 4.911328,-0.73624 6.293776,-0.82476 1.382448,-0.0885 2.655951,-0.20459 2.83001,-0.25794 0.223639,-0.0685 0.126105,-0.58273 -0.332502,-1.75295 -0.356931,-0.91078 -0.751827,-1.75883 -0.877541,-1.88454 -0.128379,-0.12838 -0.75451,0.14213 -1.428364,0.61711 -0.820589,0.5784 -1.527715,0.85428 -2.237356,0.87289 -1.207387,0.0317 -2.452164,-0.67619 -2.452164,-1.39443 0,-0.69782 0.774425,-0.91546 1.362803,-0.38299 0.270888,0.24516 0.565681,0.37258 0.655095,0.28316 0.292666,-0.29266 0.849587,-3.09268 0.640799,-3.22172 -0.294169,-0.1818 -0.54203,0.1372 -0.54203,0.69761 0,0.56489 -0.09162,0.57185 -2.825126,0.21451 -3.141104,-0.41061 -3.260291,-0.45292 -3.260291,-1.1573 0,-0.34321 0.177218,-0.77109 0.393816,-0.95085 0.22351,-0.1855 2.025619,-0.46413 4.167188,-0.6443 l 3.773371,-0.31745 0.771007,0.76724 c 0.424055,0.42198 1.056883,0.87592 1.406287,1.00877 0.763939,0.29045 2.994951,0.32303 2.950749,0.0431 -0.08498,-0.53819 0.06763,-0.85989 0.407906,-0.85989 0.207118,0 0.751088,-0.31513 1.208826,-0.7003 0.813622,-0.68461 0.892542,-0.69676 3.52603,-0.54271 1.84716,0.10805 3.602009,0.41964 5.58359,0.99141 3.261169,0.94098 3.967231,0.92099 6.373162,-0.18048 1.354195,-0.61997 1.637278,-0.6658 2.402824,-0.38897 0.712451,0.25762 1.110372,0.23445 2.223013,-0.12948 2.06351,-0.67494 5.458206,-0.20547 4.444799,0.61469 -0.531061,0.4298 -6.293265,1.98553 -6.83215,1.8446 -0.298379,-0.078 -0.756878,0.16343 -1.211604,0.63806 -0.802045,0.83716 -1.95548,1.03655 -1.95548,0.33804 0,-0.34288 -0.141375,-0.38147 -0.727604,-0.19862 -1.491205,0.4651 -3.961506,0.17472 -5.699575,-0.66997 -0.903436,-0.43907 -2.178394,-0.86711 -2.833238,-0.95122 l -1.190625,-0.15291 1.05986,0.47153 c 2.673488,1.18944 3.676703,2.32676 3.063338,3.47284 -0.515821,0.96383 -0.304943,0.91933 0.897975,-0.18948 1.24165,-1.14452 1.725702,-1.3452 1.725702,-0.71546 0,0.43999 -0.797351,1.4507 -3.098707,3.92787 -1.663012,1.79005 -1.961491,2.31014 -1.32579,2.31014 0.430075,0 1.150964,-0.49924 3.695755,-2.55944 2.648236,-2.14394 2.844023,-2.23398 7.1246,-3.27653 l 3.617733,-0.8811 2.070809,0.96375 c 1.138944,0.53006 2.785184,1.22205 3.658309,1.53775 0.873128,0.3157 1.761728,0.7384 1.974678,0.93933 0.33665,0.31765 0.26759,0.46754 -0.52917,1.14857 -0.50399,0.43079 -0.759687,0.78809 -0.56822,0.794 0.53917,0.0166 1.42114,-0.50353 2.35959,-1.39168 l 0.85563,-0.80976 -1.84782,-0.77144 c -1.34082,-0.55978 -1.847813,-0.90536 -1.847813,-1.25954 0,-0.26845 0.12718,-0.5667 0.28262,-0.66277 0.155443,-0.0961 0.219173,-0.34 0.141633,-0.54208 -0.209623,-0.54626 0.88642,-0.72665 3.50438,-0.57677 2.9642,0.16972 4.68657,0.89348 6.24126,2.62268 1.57455,1.75128 2.00909,3.14752 2.19102,7.04013 0.0843,1.80331 0.26485,3.24115 0.40703,3.24115 0.74962,0 -1.51814,5.70083 -2.67446,6.72321 -0.82462,0.72909 -0.95386,0.37164 -0.31698,-0.87674 0.73456,-1.43985 0.51908,-1.37316 -0.49115,0.15202 -0.88502,1.33613 -1.00036,1.71147 -0.49424,1.60828 0.17845,-0.0364 0.36532,0.20175 0.41528,0.52917 0.0767,0.50243 0.25513,0.59531 1.1439,0.59531 h 1.05307 l -0.17535,1.54985 c -0.16662,1.47277 -0.13477,1.59448 0.64057,2.44739 0.61723,0.679 0.81779,0.78481 0.82366,0.43453 0.006,-0.36032 0.23613,-0.46302 1.03741,-0.46302 1.3287,0 1.40354,0.29852 1.06129,4.23333 -0.57529,6.61392 -0.7129,7.59068 -1.25949,8.93949 -0.31178,0.76937 -0.56687,1.44996 -0.56687,1.51243 0,0.0625 0.40038,-0.12266 0.88973,-0.41139 0.81526,-0.48101 0.91949,-0.48911 1.24512,-0.0967 0.29983,0.36127 0.2813,0.62049 -0.1185,1.65836 -0.26063,0.67658 -0.64766,1.69377 -0.86006,2.26042 -0.46713,1.24624 -2.33283,4.1718 -3.52998,5.53527 -0.80162,0.913 -0.90879,0.95983 -1.32818,0.58028 -0.42507,-0.38468 -0.47986,-0.29952 -0.80278,1.24774 -0.19061,0.91333 -0.56772,2.18347 -0.83803,2.82253 -0.54514,1.28887 -0.50016,1.51505 0.22369,1.12468 0.26883,-0.14498 0.69714,-0.32809 0.9518,-0.40691 0.30763,-0.0952 0.46302,-0.41247 0.46302,-0.94535 0,-0.80137 0.001,-0.80204 1.52136,-0.79047 4.22471,0.0322 5.82517,2.00414 4.16328,5.12974 -0.63161,1.18788 -0.64681,1.31407 -0.29963,2.4868 0.20115,0.67948 0.30823,1.62393 0.23795,2.09878 -0.0703,0.47484 -0.002,1.36781 0.1515,1.98437 0.47107,1.89083 -0.70625,7.06327 -1.69397,7.44229 -0.64516,0.24757 -0.39088,2.0131 0.28993,2.0131 0.59474,0 1.715,1.5773 1.715,2.41469 0,0.98778 -0.61921,2.23364 -1.65058,3.32097 -1.01811,1.07335 -0.87747,2.06944 0.32962,2.33456 0.43791,0.0962 0.91427,0.3955 1.05858,0.66514 0.35255,0.65875 0.33195,5.68783 -0.0286,6.9865 -0.35599,1.28216 -1.56182,2.53439 -2.4405,2.53439 -0.36054,0 -1.29244,0.2965 -2.07087,0.65888 -1.84518,0.85897 -2.7903,0.86506 -3.17512,0.0205 -0.29324,-0.64358 -0.29324,-0.64358 -1.24718,-0.1323 -1.17184,0.62807 -2.18046,0.64836 -3.40252,0.0685 -0.78841,-0.37412 -1.11338,-0.39465 -2.09431,-0.13229 -1.658907,0.44369 -2.117699,0.39359 -3.213331,-0.35091 -0.535382,-0.3638 -1.109856,-0.66146 -1.276607,-0.66146 -0.166751,0 -0.473641,-0.25672 -0.681974,-0.57049 -0.52347,-0.78838 -1.511633,-0.5022 -2.998597,0.86844 -1.024745,0.94458 -1.380987,1.10162 -2.960923,1.30529 -2.137699,0.27556 -7.484568,0.32499 -7.484568,0.0692 0,-0.0988 0.140438,-0.56803 0.312087,-1.04272 0.247314,-0.68393 0.236667,-1.09159 -0.0513,-1.96414 -0.337974,-1.02406 -0.320337,-1.18223 0.252142,-2.26136 0.694944,-1.30999 0.566074,-1.66851 -0.803677,-2.23588 -0.662093,-0.27425 -0.865307,-0.26767 -1.162354,0.0377 -0.478642,0.49201 -1.457315,3.46272 -1.457315,4.42361 0,1.02736 -0.995794,2.45411 -2.12194,3.04026 -1.091067,0.5679 -3.337065,0.46565 -4.280043,-0.19484 -0.852379,-0.59703 -3.277753,-0.566 -3.620426,0.0463 -0.213545,0.38159 -0.63636,0.46302 -2.404046,0.46302 -1.442591,0 -2.212571,-0.10945 -2.351509,-0.33425 -0.163285,-0.2642 -0.979111,-0.27855 -3.892952,-0.0685 -4.641543,0.33465 -8.724704,0.33484 -11.036835,5.3e-4 -1.440987,-0.20836 -1.981247,-0.18129 -2.74429,0.13753 -1.256353,0.52494 -2.546738,0.49576 -6.023514,-0.13621 -3.63538,-0.6608 -4.99486,-0.65856 -8.40239,0.0138 -2.52665,0.49857 -10.19852,1.3087 -12.42247,1.31177 -0.52789,7.9e-4 -1.08231,-0.1475 -1.23206,-0.3294 z m 8.40956,-2.17331 c 2.82325,-0.4316 4.91499,-1.01934 5.65886,-1.59004 0.48043,-0.36859 0.46632,-0.42098 -0.36972,-1.37317 -0.47806,-0.54449 -1.22443,-1.74906 -1.65859,-2.67684 -0.73178,-1.56378 -0.77639,-1.83016 -0.61143,-3.65055 0.10948,-1.20816 0.0797,-1.96369 -0.0774,-1.96369 -0.86673,0 -4.14765,4.21137 -4.76624,6.11791 -0.17105,0.52719 -0.96161,1.89324 -1.7568,3.03568 -0.79519,1.14243 -1.4458,2.1696 -1.4458,2.28261 0,0.32141 2.27261,0.23918 5.02709,-0.18191 z m 42.002602,-0.61398 c 0.40122,-0.51279 0.439987,-1.90906 0.05301,-1.90906 -0.82205,0 -2.897278,1.43682 -2.897278,2.00598 0,0.73732 2.251581,0.6606 2.844271,-0.0969 z m -27.036432,-0.90362 c -0.848994,-0.7567 -1.707796,-1.76873 -1.90845,-2.24896 -0.45609,-1.09158 -1.01355,-1.11359 -1.55761,-0.0615 -0.76983,1.48869 -0.49594,1.87556 1.993637,2.81611 1.236927,0.46731 2.421554,0.85426 2.632503,0.8599 0.21095,0.006 -0.311086,-0.60886 -1.16008,-1.36556 z m 9.269685,1.06838 c 0.235376,-0.38085 -0.826074,-1.28007 -1.511001,-1.28007 -0.61654,0 -0.642493,0.46218 -0.06197,1.10365 0.49538,0.54738 1.288712,0.63636 1.572975,0.17642 z m 10.542561,0.14401 c 1.148882,-0.44087 0.973212,-2.35678 -0.277466,-3.02612 -0.568743,-0.30438 -0.764976,-0.29389 -1.376402,0.0736 -2.123739,1.27639 -0.682614,3.84913 1.653868,2.95254 z m 14.150425,-0.26428 c 2.332157,-1.37763 1.123302,-2.90771 -1.448353,-1.8332 -1.070377,0.44723 -1.337143,0.94075 -0.924888,1.71106 0.357484,0.66796 1.361742,0.71965 2.373241,0.12214 z m -18.699483,-0.2864 c 0.368292,-0.20669 -0.304244,-1.06252 -1.091078,-1.38844 -0.939938,-0.38933 -1.886199,-0.005 -1.886199,0.76688 0,0.8179 1.915046,1.21771 2.977277,0.62156 z m -35.299908,-1.07184 c 0.97758,-1.52535 3.47395,-6.67215 3.47924,-7.17319 0.004,-0.42027 -1.39721,-0.23183 -2.87909,0.38706 -0.8715,0.36398 -0.8844,0.39085 -0.4291,0.89395 0.45024,0.49751 0.4469,0.57572 -0.0818,1.91559 -0.30314,0.7683 -0.75128,2.11128 -0.99586,2.9844 -0.24458,0.87313 -0.50081,1.73633 -0.56939,1.91823 -0.0686,0.1819 0.0542,0.33073 0.27291,0.33073 0.21868,0 0.76005,-0.56554 1.20305,-1.25677 z m 82.698762,1.09823 c 0.22724,-0.0872 0.66045,-0.55866 0.96269,-1.0477 0.73631,-1.19137 0.36908,-1.96876 -0.93,-1.96876 -1.45833,0 -2.29863,1.77031 -1.30971,2.75923 0.45513,0.45513 0.6559,0.49557 1.27702,0.25723 z m -17.065101,-2.28443 c 0.451122,-0.5138 0.820221,-1.04844 0.820221,-1.1881 0,-0.35139 -2.033156,-0.92901 -2.617364,-0.74359 -0.381273,0.12101 -1.086803,1.14691 -1.086803,1.5803 0,0.0501 0.297657,0.16587 0.661459,0.25718 0.776316,0.19484 0.810487,0.42319 0.231023,1.54375 l -0.430434,0.83237 0.800838,-0.67386 c 0.440462,-0.37063 1.169937,-1.09425 1.62106,-1.60805 z m 1.084804,1.51693 c 0.877332,-0.50153 1.574171,-0.49095 2.152767,0.0327 0.442743,0.40068 0.495379,0.38403 0.78322,-0.24771 0.911545,-2.00062 -1.858362,-2.05639 -3.70971,-0.0747 -0.721151,0.77193 -0.327599,0.91929 0.773723,0.28972 z m 12.497387,-0.37918 c 1.1772,-1.0573 0.77846,-1.49323 -0.964416,-1.05437 -1.599139,0.40267 -2.337173,0.0846 -3.05109,-1.31475 -0.570135,-1.11756 -0.740405,-1.20868 -2.777771,-1.48659 -0.719039,-0.0981 -1.909664,-0.41747 -2.645833,-0.70975 -0.736166,-0.29228 -2.035672,-0.6315 -2.887792,-0.75381 -1.822008,-0.26153 -2.069994,-0.4305 -1.37627,-0.93776 0.773036,-0.56526 2.966077,-0.47514 4.000892,0.16441 0.480253,0.29682 1.689108,0.70979 2.686341,0.91772 1.975437,0.41189 3.266014,0.83829 5.101886,1.68563 1.360753,0.62806 3.373263,0.72916 4.089483,0.20545 0.76589,-0.56003 0.36738,-1.40133 -1.83456,-3.87294 -1.09967,-1.23435 -2.107312,-2.63508 -2.239199,-3.11273 -0.131887,-0.47765 -0.563173,-1.25277 -0.958413,-1.72249 -0.589875,-0.70103 -1.703144,-2.83272 -1.703144,-3.26119 0,-0.30847 0.700646,-0.0415 1.253029,0.47744 l 0.625677,0.58779 -0.480727,-1.05082 c -0.95063,-2.07796 -2.270445,-4.3581 -2.522601,-4.3581 -0.387853,0 -2.766076,2.05766 -3.388469,2.93173 -0.524147,0.73609 -0.528016,0.79934 -0.09384,1.53435 0.477499,0.80834 0.364892,1.61934 -0.224846,1.61934 -0.192754,0 -0.464383,-0.37913 -0.603615,-0.84251 -0.426349,-1.41893 -0.917892,-1.24778 -0.739611,0.25751 0.151048,1.27537 0.136086,1.31077 -0.673235,1.5929 -0.486555,0.16961 -0.933444,0.56663 -1.084233,0.96324 -0.286102,0.7525 -0.758251,0.82359 -2.61964,0.39446 -1.745792,-0.40249 -1.580943,-0.13308 0.294331,0.481 1.852485,0.60663 4.796824,1.0779 3.652882,0.58469 -0.944388,-0.40718 -0.955852,-0.45683 -0.273293,-1.18338 0.858869,-0.91422 1.454068,-0.82726 2.238441,0.32705 0.803182,1.18199 0.849022,1.80906 0.159224,2.17823 -0.820711,0.43923 -1.876902,0.32675 -5.214348,-0.55529 -2.209094,-0.58383 -3.97763,-0.86783 -5.977028,-0.95983 -3.29524,-0.15163 -3.570623,0.0336 -2.467263,1.65949 0.372163,0.54841 0.676661,1.2247 0.676661,1.50286 0,0.33416 0.335989,0.64613 0.990304,0.91952 1.230598,0.51418 6.645802,1.67589 7.811984,1.67589 0.474562,0 1.277795,0.22165 1.784964,0.49256 0.507167,0.27092 1.585775,0.68487 2.396908,0.9199 0.811131,0.23503 1.685648,0.66033 1.94337,0.94511 0.257723,0.28478 1.057688,0.72962 1.777704,0.98854 0.720013,0.25891 1.690965,0.79774 2.157669,1.1974 1.114597,0.95447 2.075146,0.94599 3.159487,-0.0279 z m -7.20572,-7.66037 c 0,-0.12888 0.177861,-0.57537 0.395246,-0.99218 0.217384,-0.41682 0.397801,-1.11504 0.400925,-1.5516 0.0071,-0.98929 0.245838,-1.37625 0.922367,-1.49491 0.450622,-0.079 0.549087,0.09 0.672565,1.15469 0.09136,0.78773 0.369068,1.48615 0.753732,1.89561 0.604983,0.64398 0.60547,0.65026 0.07243,0.93553 -0.642599,0.34391 -3.217265,0.38621 -3.217265,0.0529 z m -57.150002,6.59519 c 0,-0.22945 0.28863,-0.84194 0.64141,-1.3611 0.78235,-1.15133 1.33514,-3.07956 1.73673,-6.05808 0.16678,-1.23693 0.65242,-3.27512 1.079211,-4.52932 1.203388,-3.53636 1.071428,-3.77797 -1.153601,-2.11213 -0.75774,0.56731 -2.2978,1.58665 -3.42237,2.26521 -2.36494,1.42701 -3.47927,2.64909 -3.88509,4.26075 -0.54546,2.16621 -0.23534,5.47493 0.57647,6.1505 0.25326,0.21076 0.30633,-0.0422 0.23735,-1.13122 -0.14681,-2.31772 1.07921,-3.84546 3.08602,-3.84546 1.63472,0 1.92222,1.35448 0.85383,4.02265 -0.79498,1.98539 -0.9942,3.11158 -0.61712,3.48867 0.24011,0.2401 0.86716,-0.59181 0.86716,-1.15047 z M 53.65572,304.375 c 1.052332,-1.10624 1.103606,-1.6488 0.201451,-2.13161 -0.387133,-0.20719 -0.498039,-0.1761 -0.498039,0.13964 0,0.29143 -0.274423,0.40618 -0.971354,0.40618 -0.534244,0 -1.189088,0.19705 -1.455208,0.43789 -0.613304,0.55503 -0.624311,1.57068 -0.02082,1.92217 0.916919,0.53406 1.713116,0.30939 2.743983,-0.77427 z m 13.746681,-0.24252 c 0.947148,-0.94714 0.957718,-1.183 0.09182,-2.0489 -0.586063,-0.58606 -0.847908,-0.66282 -1.868556,-0.54778 -3.164679,0.35671 -3.297701,3.37008 -0.14877,3.37008 0.920602,0 1.307512,-0.15541 1.925502,-0.7734 z M 42.34294,303.3703 c 0.802891,-1.15857 0.850392,-1.66855 0.300567,-3.22692 -0.507872,-1.43946 -0.502403,-2.23793 0.0189,-2.75923 0.634071,-0.63407 0.861184,-0.51071 1.169799,0.63541 0.42902,1.59325 1.739785,2.4715 3.893342,2.60862 l 1.711228,0.10897 -1.386319,-1.28907 c -1.749333,-1.62662 -2.83168,-3.30581 -4.072901,-6.31883 -0.538924,-1.30822 -1.086561,-2.48893 -1.21697,-2.6238 -0.317526,-0.3284 -1.33775,2.0485 -2.092659,4.87543 -0.49873,1.86761 -0.57849,2.6976 -0.470373,4.89479 0.203379,4.13314 0.814655,5.01488 2.145386,3.09463 z m 6.638738,0.51452 c 0.308099,-0.97073 -0.104426,-1.39342 -1.276176,-1.30762 -1.110292,0.0813 -1.465109,0.52899 -1.123926,1.41809 0.23068,0.60114 2.203059,0.51036 2.400102,-0.11047 z m 63.296172,0.18567 c 1.13586,-0.467 0.16013,-0.56253 -1.23955,-0.12137 -1.13445,0.35757 -1.15086,0.37651 -0.34795,0.40143 0.46347,0.0144 1.17784,-0.11164 1.5875,-0.28006 z M 71.100872,303.8397 c 0.279968,-0.14983 0.696608,-0.63515 0.925867,-1.07849 0.380851,-0.73648 0.379711,-0.86272 -0.0132,-1.46239 -0.350925,-0.53558 -0.609629,-0.64138 -1.406282,-0.57515 -0.959707,0.0798 -0.97759,0.10191 -1.055579,1.30585 -0.05566,0.85928 0.04866,1.35268 0.349629,1.65365 0.505785,0.50578 0.538908,0.51011 1.199568,0.15653 z m 4.489257,-0.53252 c 0.159056,-0.2972 0.252542,-0.98181 0.207745,-1.52136 -0.06426,-0.77395 -0.192034,-0.98098 -0.605454,-0.98098 -0.610621,0 -1.861026,2.0419 -1.625793,2.6549 0.230476,0.60061 1.678858,0.49141 2.023502,-0.15256 z m 31.562261,0.0324 c 0.93758,-0.40189 1.24998,-0.7047 1.49596,-1.45004 0.36176,-1.09615 0.20463,-1.48226 -0.60223,-1.47983 -1.15342,0.003 -2.80425,1.48666 -2.82024,2.53384 -0.0159,1.04098 0.28,1.1018 1.92651,0.39603 z m -46.387866,-0.44777 c 1.681083,-0.67263 1.863156,-2.48385 0.24969,-2.48385 -1.305293,0 -2.912219,2.00884 -2.187025,2.73403 0.276506,0.27651 0.785196,0.21081 1.937335,-0.25018 z m -26.267336,-0.43333 c 0.79842,-0.87232 1.02653,-1.78593 0.44592,-1.78593 -0.72293,0 -1.42773,0.8039 -1.42773,1.6285 0,0.90792 0.25716,0.94915 0.98181,0.15743 z m 79.285132,-0.21098 c 0.23125,-0.2469 0.0376,-0.28619 -0.85783,-0.17405 -0.63608,0.0797 -1.29092,0.28834 -1.4552,0.46373 -0.23126,0.24689 -0.0376,0.28619 0.85782,0.17405 0.63608,-0.0797 1.29093,-0.28834 1.45521,-0.46373 z m -56.729456,-0.24645 c 0.464225,-0.24845 1.068769,-1.54605 1.068769,-2.29403 0,-0.66083 -2.052064,-0.44605 -2.790151,0.29204 -0.763595,0.7636 -0.806048,1.12022 -0.21155,1.77713 0.485211,0.53616 1.196631,0.61891 1.932932,0.22486 z m -6.74597,-2.71757 c -0.101127,-0.47294 -0.303758,-1.00872 -0.450295,-1.19062 -0.280291,-0.34794 -1.52455,-0.46501 -1.52455,-0.14345 0,0.19175 1.879134,2.19397 2.059093,2.19397 0.05479,0 0.01688,-0.38695 -0.08425,-0.8599 z m 3.59247,0.31006 c 0.481063,-0.89888 0.124886,-1.34536 -0.998926,-1.2522 -0.704933,0.0584 -1.01822,0.21996 -1.082308,0.55798 -0.2189,1.15459 1.52376,1.73587 2.081234,0.69422 z m 57.480066,-0.69891 c 0.0777,-0.40459 0.0978,-0.77968 0.0447,-0.83353 -0.18627,-0.18881 -1.88643,0.2406 -2.37919,0.60091 -0.47163,0.34487 -0.45081,0.39256 0.39628,0.90771 1.06831,0.64967 1.72785,0.41994 1.9382,-0.67509 z m -43.53436,0.8174 c 1.222764,-0.32768 0.24933,-1.68532 -1.208386,-1.68532 -0.941726,0 -3.223385,1.1316 -3.223385,1.59865 0,0.27649 3.470254,0.34435 4.431771,0.0867 z m 5.864088,-0.31963 c 0.633391,-1.1835 -0.360508,-2.15944 -2.199193,-2.15944 -1.607291,0 -1.478243,0.73684 0.329877,1.88351 1.41536,0.8976 1.527734,0.91419 1.869316,0.27593 z m 32.751402,0.0892 c 0.80533,-0.56407 1.02985,-1.83842 0.47349,-2.68753 -0.39043,-0.59587 -0.58039,-0.66406 -1.5046,-0.5401 -1.22969,0.16494 -2.32865,1.07669 -2.32865,1.93196 0,0.74786 1.16864,1.69288 2.09348,1.69288 0.38455,0 0.95438,-0.17875 1.26628,-0.39721 z m -47.849242,-1.74534 c 1.280856,-0.44651 1.073314,-1.03245 -0.365696,-1.03245 -1.255975,0 -1.903942,0.60658 -1.154732,1.08098 0.473379,0.29974 0.526198,0.29806 1.520428,-0.0485 z m -32.55112,-0.77555 c 0.81606,-0.28683 2.4999,-1.10304 3.74186,-1.8138 1.24197,-0.71077 2.64507,-1.48773 3.11801,-1.72658 0.47294,-0.23886 0.8599,-0.54763 0.8599,-0.68617 0,-0.39462 -4.70835,-2.57964 -6.59294,-3.0596 -1.82458,-0.46469 -3.25548,-0.37131 -4.54734,0.29673 -1.15564,0.59761 -1.03038,1.34186 0.60694,3.60625 0.30036,0.4154 0.028,1.75933 -0.78947,3.89472 -0.18221,0.47598 1.45449,0.2436 3.60304,-0.51155 z m 23.285179,-0.6701 c 0.04801,-0.0385 -0.09926,-0.35477 -0.327269,-0.70275 -0.342233,-0.52232 -0.359754,-0.77788 -0.10043,-1.46491 0.272708,-0.72249 0.246089,-0.90787 -0.201896,-1.40602 -0.805638,-0.89585 -3.708524,-2.89229 -4.205475,-2.89229 -0.555274,0 -0.467461,0.32743 0.989443,3.68933 1.366393,3.15304 1.71798,3.53531 2.88824,3.14035 0.478554,-0.16151 0.909381,-0.32518 0.957387,-0.36371 z m 52.670653,0.198 c 0.5365,-1.00245 -0.99457,-2.53864 -1.59145,-1.59677 -0.26964,0.42547 -0.30692,1.65105 -0.0578,1.90016 0.35521,0.35522 1.3996,0.1631 1.64926,-0.30339 z m 8.26134,-0.74054 c 0.55719,-0.50426 0.69254,-2.33137 0.19546,-2.63858 -0.16549,-0.10227 -0.49291,0.0592 -0.7276,0.35894 -0.2347,0.29969 -0.87321,0.72746 -1.41891,0.95059 -1.03536,0.42335 -1.28845,1.08263 -0.66146,1.72297 0.42552,0.43458 1.95122,0.20453 2.61251,-0.39392 z m -57.622593,-0.22332 c 0.623409,-0.47241 0.478163,-1.21175 -0.294055,-1.49684 -0.852511,-0.31473 -1.784181,0.60307 -1.379593,1.35904 0.32526,0.60776 0.982091,0.66184 1.673648,0.1378 z m 21.341856,-0.82996 c 11.332126,-1.94261 20.792584,-8.85931 25.783454,-18.8507 2.401583,-4.80781 3.583173,-10.05673 3.583173,-15.91737 0,-5.23435 -1.04847,-10.69036 -2.78929,-14.51496 -0.55936,-1.2289 -0.725679,-1.39795 -1.246728,-1.26718 -0.330693,0.083 -1.211162,0.28171 -1.956597,0.44158 -0.745434,0.15986 -1.576803,0.45548 -1.847485,0.65693 -0.47054,0.35018 -0.471977,0.39886 -0.03268,1.1088 2.207016,3.56672 3.641571,9.93033 3.641571,16.15382 0,7.83097 -2.122172,13.3643 -7.440115,19.39927 -3.792799,4.3042 -8.420571,7.23224 -13.59426,8.60126 -10.229914,2.70694 -23.0983,-0.85165 -31.197609,-8.62731 -4.63884,-4.45347 -7.755659,-10.43234 -9.477149,-18.17964 -0.82957,-3.73335 -0.82369,-11.14378 0.0113,-14.22361 2.931816,-10.81403 14.764008,-20.89834 26.206377,-22.33509 3.975511,-0.49918 9.163913,0.46118 13.464287,2.49222 4.411443,2.08349 7.352131,4.21637 12.766763,9.25972 3.235751,3.01388 4.0503,3.56935 5.236062,3.5707 1.088464,10e-4 2.966021,-0.93191 2.966021,-1.47411 0,-0.77761 -2.214711,-3.70031 -4.60502,-6.07715 -2.754048,-2.73853 -6.583887,-5.39565 -10.231295,-7.09842 -13.715334,-6.40293 -29.572959,-3.76935 -40.11954,6.6629 -4.701765,4.65079 -7.838595,10.20087 -9.511605,16.82912 -0.93112,3.689 -1.16255,10.48233 -0.49352,14.48665 2.34482,14.03426 12.509254,24.93357 26.609903,28.53378 4.283789,1.09375 9.290389,1.2231 14.273993,0.36879 z m 31.584907,-0.67001 c 0.80229,-0.36555 1.04708,-1.22221 0.6636,-2.32228 -0.53876,-1.54549 -2.18321,-1.82136 -3.42927,-0.5753 -0.809,0.809 -0.98802,1.77079 -0.49951,2.68358 0.31771,0.59366 2.16605,0.71479 3.26518,0.214 z m -18.393644,-0.74122 c 1.038005,-0.52955 1.800214,-1.25564 1.565008,-1.49085 -0.306483,-0.30648 -3.114604,1.27502 -3.114604,1.75411 0,0.3747 0.448427,0.29851 1.549596,-0.26326 z m 26.370444,-1.31268 c -0.21446,-0.97644 -1.0298,-1.61707 -2.05805,-1.61707 -1.28407,0 -1.22037,0.73765 0.17777,2.05866 1.12415,1.06213 1.29783,1.14422 1.65832,0.78374 0.28243,-0.28244 0.3487,-0.64826 0.22196,-1.22533 z m -12.59579,-0.39153 c 0.30291,-0.49012 0.55075,-0.95714 0.55075,-1.03782 0,-0.0807 -0.41077,-0.28225 -0.91282,-0.44794 -1.167268,-0.38524 -2.424168,-1.81577 -2.79041,-3.17589 -0.273875,-1.01709 -0.603244,-1.32104 -0.90407,-0.8343 -0.260319,0.42121 2.80747,6.38707 3.28438,6.38707 0.12179,0 0.46926,-0.40101 0.77217,-0.89112 z m -63.558942,-0.94932 c 1.42148,-0.86673 2.756311,-3.5049 2.11035,-4.17091 -0.17453,-0.17995 -1.97188,-0.49744 -4.06143,-0.71743 -2.06159,-0.21704 -4.07296,-0.4761 -4.46971,-0.57568 -0.79292,-0.199 -0.7767,-0.12394 0.29188,1.35134 0.85197,1.17622 0.95611,1.67193 0.52599,2.50369 -0.45775,0.88518 -0.27495,1.11769 1.34562,1.71157 1.49962,0.54957 3.25721,0.50721 4.2573,-0.10258 z m 35.919732,-1.84458 c 0.08343,-0.13498 -0.143907,-0.58147 -0.50519,-0.99218 -0.69133,-0.78592 -0.847183,-0.5763 -0.415565,0.55894 0.263234,0.69236 0.648559,0.87367 0.920755,0.43324 z m 28.61337,0.043 c 0.91357,-0.61 1.14902,-2.39234 0.51613,-3.90705 -0.29133,-0.69727 -0.54089,-0.91754 -1.03949,-0.91754 -0.79589,0 -2.545883,1.57236 -2.545883,2.28747 0,0.70251 0.702405,1.63325 1.684523,2.23212 0.929,0.56648 0.97722,0.5771 1.38472,0.305 z m 8.34413,-0.49181 c 0.73688,-0.66686 0.64036,-1.42237 -0.18172,-1.42237 -1.19032,0 -3.44784,1.38936 -3.11985,1.92006 0.2432,0.3935 2.73125,0.0184 3.30157,-0.49769 z m -34.954739,-1.05705 c 0.453615,-2.18505 0.155376,-3.64472 -0.950251,-4.65082 -0.49961,-0.45463 -0.908384,-1.02485 -0.908384,-1.26714 0,-0.859 1.183159,-1.61154 2.919569,-1.85699 1.565402,-0.22126 2.094013,-0.52841 2.103464,-1.22221 0.0057,-0.41625 -0.66403,-2.26675 -1.471512,-4.06606 l -0.682487,-1.52079 -2.749699,0.89164 c -3.021674,0.97983 -3.510097,1.03921 -4.77756,0.5809 -0.941234,-0.34036 -1.160436,-0.21789 -3.736485,2.08766 l -1.118669,1.0012 1.483164,1.71102 c 0.815739,0.94106 1.597562,2.03919 1.737381,2.44028 0.139822,0.40109 0.690176,0.99079 1.223007,1.31043 0.532832,0.31965 1.509165,1.12653 2.169631,1.79306 0.660467,0.66653 1.710347,1.61234 2.333067,2.10179 0.622721,0.48946 1.240253,1.17406 1.372294,1.52136 0.385011,1.01266 0.722574,0.73858 1.05347,-0.85533 z m -5.681679,-1.04833 c -0.09485,-0.50556 -0.28549,-0.84933 -0.423658,-0.76393 -0.293357,0.1813 -0.342213,2.59066 -0.05829,2.87459 0.328223,0.32823 0.663786,-1.14136 0.481946,-2.11066 z m -4.129955,1.30408 c 0.303644,-0.38602 0.490408,-0.76352 0.415036,-0.83889 -0.164013,-0.16402 -1.45787,1.0095 -1.45787,1.32228 0,0.43597 0.503105,0.20276 1.042834,-0.48339 z m 16.013036,-0.32202 c 1.20169,-0.56313 2.263259,-1.15069 2.359049,-1.30567 0.386768,-0.62581 -3.993462,-3.08477 -5.191877,-2.91461 -0.560141,0.0795 -0.525817,0.16202 0.555946,1.33587 l 1.152945,1.2511 -0.689925,1.17726 c -1.072321,1.82978 -1.101799,1.82237 1.813862,0.45605 z m -17.990831,0.23997 c 0.258485,-0.28562 0.403042,-0.69372 0.321241,-0.90689 -0.218826,-0.57026 -3.91505,-3.57984 -4.62902,-3.7691 -0.450737,-0.11948 -0.817645,0.0341 -1.389063,0.58159 -0.427093,0.40918 -0.776531,0.83679 -0.776531,0.95023 0,0.50722 2.073146,2.20303 3.543779,2.89876 1.909263,0.90324 2.304323,0.93633 2.929594,0.24541 z m 14.855862,-1.22719 c 0.08636,-0.34391 -0.1198,-0.93811 -0.540657,-1.55828 -1.013484,-1.49345 -0.832533,-2.52532 0.574249,-3.27467 0.514842,-0.27424 0.849236,-0.17528 2.536113,0.75053 1.068695,0.58653 2.242127,1.06643 2.607628,1.06643 0.365501,0 0.939109,0.23812 1.274683,0.52916 0.659754,0.5722 1.058333,0.67692 1.058333,0.27805 0,-0.6328 -3.013789,-2.39471 -4.096205,-2.39471 -0.847799,0 -1.136668,-0.65698 -0.566092,-1.28746 0.235929,-0.2607 0.4234,-0.58369 0.416603,-0.71775 -0.0068,-0.13406 -0.665586,-1.55344 -1.463966,-3.15417 -1.506247,-3.01997 -1.753331,-2.66971 -0.32293,0.45777 0.65703,1.43656 0.752052,1.85585 0.491681,2.16958 -0.474112,0.57127 -2.459046,1.47369 -3.24148,1.47369 -1.178298,0 -1.341297,0.52467 -0.749524,2.41258 0.291089,0.92865 0.530788,2.13495 0.532667,2.68065 0.0024,0.72307 0.115898,0.99219 0.418118,0.99219 0.302215,0 0.370266,0.16148 0.250883,0.59531 -0.16147,0.58677 -0.157765,0.58772 0.258244,0.0662 0.232135,-0.29104 0.484881,-0.77931 0.561652,-1.08505 z m -9.812697,0.94117 c 0.183536,-0.29697 -0.318601,-1.04675 -0.701016,-1.04675 -0.2711,0 -0.314317,0.88801 -0.0558,1.14653 0.256511,0.25651 0.561461,0.21631 0.756814,-0.0998 z m 38.859283,-1.15058 c 1.72902,-0.72243 1.74142,-2.99849 0.0237,-4.34966 -1.02327,-0.80491 -1.64977,-0.71802 -2.67712,0.37129 -0.7254,0.76914 -0.89114,1.15519 -0.89114,2.07566 0,1.91831 1.53508,2.74233 3.54457,1.90271 z m 4.9221,-0.65782 c 0,-0.30401 -0.31158,-0.62612 -0.80224,-0.82936 -1.07827,-0.44664 -1.20521,-0.22401 -0.35632,0.62488 0.82789,0.82789 1.15856,0.88625 1.15856,0.20448 z m -48.290807,-1.687 c -1.483939,-1.79276 -4.046691,-3.41949 -3.332612,-2.11541 0.307721,0.56197 2.292638,2.4667 3.203289,3.07388 0.920745,0.61391 0.992241,0.084 0.129323,-0.95847 z m -25.445155,0.8994 c 0.45161,-0.17808 0.44517,-0.23503 -0.11004,-0.97359 -1.19191,-1.58553 -2.47551,-2.76882 -3.00354,-2.76882 -0.29817,0 -1.79206,0.24083 -3.31974,0.53518 -3.03604,0.58497 -3.96822,0.52575 -3.96822,-0.25212 0,-0.48284 -1.38225,-1.87056 -1.86318,-1.87056 -0.12929,0 -0.65594,-0.36953 -1.17032,-0.82116 -0.9151,-0.80347 -1.1986,-1.63069 -0.67067,-1.95697 0.6965,-0.43046 -0.23963,-2.60919 -1.43403,-3.33754 -1.02572,-0.62548 -1.2118,-0.62385 -1.2118,0.0106 0,0.73566 2.99728,6.58786 3.97385,7.75895 1.61001,1.9307 4.69058,3.09213 9.5484,3.59993 2.86531,0.29951 2.6741,0.295 3.22929,0.0761 z m 17.034226,-0.98754 c 0.55818,-0.51484 0.611073,-0.63389 0.21319,-0.47986 -0.291042,0.11267 -1.005417,0.21243 -1.5875,0.22169 -0.852641,0.0136 -1.109094,-0.0989 -1.319511,-0.57848 -0.143648,-0.32742 -0.352007,-0.59531 -0.463021,-0.59531 -0.407691,0 -0.186262,1.07392 0.327324,1.5875 0.738791,0.73879 1.930937,0.67326 2.829518,-0.15554 z m -29.287856,-0.21261 c 0,-0.20249 -0.82268,-1.34216 -1.82818,-2.53261 -1.00551,-1.19045 -1.90751,-2.4833 -2.00445,-2.87299 -0.34299,-1.37875 -2.2383,-5.11434 -2.50973,-4.94659 -0.71775,0.44359 -0.14215,2.26659 1.01642,3.21912 l 0.69155,0.56856 -0.9054,1.87155 c -0.85843,1.77447 -0.88204,1.89736 -0.45511,2.36912 0.67747,0.74859 3.04698,1.96228 4.5397,2.32528 0.7276,0.17694 1.35268,0.33183 1.38906,0.34421 0.0364,0.0124 0.0661,-0.14317 0.0661,-0.34565 z m 62.319326,-0.97316 1.312971,-1.34131 -0.79375,-0.6671 c -0.436562,-0.36691 -1.305854,-0.90267 -1.93176,-1.1906 -0.625906,-0.28792 -1.236874,-0.78312 -1.357707,-1.10044 -0.120832,-0.31732 -0.710057,-1.17008 -1.309386,-1.89501 -1.18996,-1.43936 -1.434541,-2.51839 -0.57083,-2.51839 0.598995,0 1.589942,0.96435 1.61458,1.57124 0.0104,0.25622 0.108024,0.18603 0.257032,-0.18482 0.389432,-0.9692 -0.115284,-1.91559 -1.021598,-1.91559 -0.418492,0 -1.320708,-0.29766 -2.004926,-0.66146 -1.595152,-0.84815 -2.170742,-0.84576 -2.385502,0.01 -0.327472,1.30476 0.845556,4.27108 2.716443,6.86925 1.023379,1.42122 3.716716,4.36563 3.993354,4.36563 0.09246,0 0.758947,-0.60359 1.481079,-1.34131 z m -37.501405,-0.56369 c 0.70539,-0.70539 0.04672,-2.59291 -0.904822,-2.59291 -0.390303,0 -0.894345,0.81033 -0.894345,1.43781 0,0.42998 0.899174,1.4726 1.27,1.4726 0.116417,0 0.354542,-0.14287 0.529167,-0.3175 z m 4.780995,-0.60976 c 0.947359,-1.07898 0.955241,-1.03907 -0.872776,-4.41996 -1.249865,-2.31161 -1.441008,-2.99817 -0.886196,-3.18311 0.370504,-0.1235 0.177996,-0.82525 -0.99442,-3.62495 -0.392523,-0.93734 -1.078098,-3.08046 -1.523503,-4.7625 -0.747636,-2.82341 -0.809696,-3.39351 -0.808164,-7.42389 0.0019,-4.81398 0.318923,-6.50536 1.957549,-10.44151 1.758897,-4.22506 3.3929,-5.68421 8.455819,-7.55097 3.795172,-1.39933 5.651063,-2.6396 5.153776,-3.44423 -0.27169,-0.43961 -1.429679,-0.28767 -2.499291,0.32792 -0.909,0.52316 -1.09364,0.54764 -1.696612,0.22493 -0.611989,-0.32752 -0.854607,-0.28251 -2.540471,0.4713 -1.025125,0.45837 -2.03953,0.8334 -2.254234,0.8334 -0.214707,0 -0.779206,-0.34736 -1.254443,-0.77191 -0.79003,-0.70576 -0.867933,-0.91547 -0.909148,-2.44739 -0.02479,-0.92152 -0.05456,-1.94338 -0.06614,-2.27081 -0.03973,-1.12264 -0.550236,-0.59617 -0.550236,0.56745 0,1.64212 -0.795435,4.02577 -3.071386,9.2039 -2.334086,5.31041 -2.859165,7.34113 -3.408233,13.18126 -0.526744,5.60267 -0.560533,5.80789 -1.380628,8.38511 l -0.689689,2.1674 0.853797,1.40447 c 1.824305,3.00094 2.235925,3.1406 1.047811,0.35552 -0.87992,-2.06263 -0.949021,-3.64825 -0.165463,-3.79674 0.577276,-0.1094 0.673579,0.13339 2.483999,6.26251 0.788966,2.67101 1.609677,5.19518 1.823804,5.60925 0.214128,0.41408 0.385559,0.96714 0.380961,1.22903 -0.007,0.39677 -0.10622,0.3612 -0.595313,-0.21336 -0.322823,-0.37923 -0.732433,-0.91501 -0.910243,-1.19063 -0.310452,-0.4812 -0.316344,-0.48008 -0.148344,0.0281 0.407836,1.2336 3.635041,6.21771 4.025961,6.21771 0.125023,0 0.593682,-0.41726 1.041461,-0.92726 z m -4.344512,-37.10659 c 1.20885,-3.33083 2.575147,-5.6224 3.352226,-5.6224 0.402323,0 0.509051,0.11754 0.389536,0.429 -0.194318,0.50638 -3.876072,6.18558 -4.010036,6.18558 -0.0505,0 0.07022,-0.44648 0.268274,-0.99218 z m 50.945598,37.87349 c 0,-0.0882 -0.35718,-0.61135 -0.79375,-1.16255 -0.43656,-0.55121 -0.79375,-1.14381 -0.79375,-1.3169 0,-0.57521 -0.58955,-0.12889 -1.158398,0.87698 -0.554082,0.97975 -0.554706,0.99769 -0.0478,1.37775 0.493348,0.36991 2.793698,0.55494 2.793698,0.22472 z m 7.6312,-1.0704 c -0.20687,-0.43293 -0.61238,-0.78959 -0.95295,-0.83816 -0.76366,-0.10891 -0.7467,0.0975 0.0992,1.20643 0.82952,1.08756 1.42642,0.83009 0.85379,-0.36827 z m -45.731197,0.73728 c 0,-0.36809 -1.052515,-1.60145 -1.63068,-1.91088 -0.886402,-0.47439 -0.855234,-0.0666 0.08108,1.06083 0.823499,0.99157 1.549601,1.38988 1.5496,0.85005 z m 0.01249,-6.98902 c 0.311452,-0.46853 -0.607012,0.33988 -2.04103,1.79647 -1.434018,1.45658 -2.883892,3.06393 -3.22194,3.57187 -0.338048,0.50795 0.580414,-0.30046 2.04103,-1.79646 1.460614,-1.496 2.910486,-3.10335 3.22194,-3.57188 z m 48.285987,4.7164 c 0.75113,-0.75113 0.79401,-1.1382 0.26606,-2.40177 -0.43735,-1.04672 -0.44552,-1.04978 -1.43498,-0.53812 -1.5093,0.7805 -1.71397,1.90909 -0.55617,3.06689 0.67803,0.67803 0.9393,0.65879 1.72509,-0.127 z m -77.850942,-0.14009 c 0.11723,-0.10583 -0.12089,-0.32484 -0.52917,-0.48669 -0.87524,-0.34697 -7.51191,-1.4351 -7.68672,-1.26029 -0.29988,0.29988 0.34554,0.71186 1.73234,1.10578 0.82934,0.23558 1.67884,0.59094 1.88778,0.7897 0.28556,0.27164 0.87691,0.32196 2.38125,0.20265 1.10075,-0.0873 2.09728,-0.24532 2.21452,-0.35115 z m 72.104202,-0.13618 c 1.51456,-0.70508 1.80698,-1.50601 0.61188,-1.67591 -1.41166,-0.20069 -2.94695,0.74117 -2.94695,1.80787 0,0.70772 0.60479,0.67355 2.33507,-0.13196 z m -2.75693,-1.65473 c 0.66859,-0.90991 1.21561,-1.76892 1.21561,-1.90891 0,-0.14 -0.24401,-0.38513 -0.54225,-0.54474 -1.56215,-0.83604 -3.16191,0.64867 -3.16191,2.9345 0,1.24704 0.31689,1.68515 0.96719,1.33715 0.16816,-0.09 0.85277,-0.90808 1.52136,-1.818 z m -12.807304,-0.37815 c 0.158628,-2.43719 0.694917,-3.31924 2.404311,-3.95443 0.913283,-0.33936 1.255366,-0.64803 1.61277,-1.45521 0.512532,-1.15753 1.17683,-4.51772 0.939964,-4.75459 -0.08542,-0.0854 -0.807537,0.0343 -1.604711,0.26605 -1.889522,0.5493 -2.376869,0.53152 -2.955459,-0.10782 -0.26339,-0.29104 -0.702519,-0.52917 -0.975845,-0.52917 -1.128453,0 -5.770366,2.78881 -6.502974,3.9069 -0.401727,0.61312 -0.397259,0.67859 0.06961,1.01997 0.274391,0.20064 0.810567,0.3648 1.191503,0.3648 1.234842,0 1.620092,0.53244 1.840937,2.54428 0.229891,2.09427 0.515508,2.77156 1.693436,4.01565 0.583388,0.61616 1.019691,0.84865 1.489604,0.79375 0.631873,-0.0738 0.671074,-0.17762 0.796857,-2.11018 z m -33.051257,1.15659 c -0.134395,-0.24583 -0.743622,-0.92321 -1.353836,-1.5053 -1.100986,-1.05023 -1.106286,-1.05199 -0.692009,-0.23015 0.591941,1.17429 1.763831,2.50773 2.049018,2.33147 0.144827,-0.0895 0.14356,-0.32762 -0.0032,-0.59602 z m -9.811962,-1.5053 c 0.487773,-0.51953 0.477801,-0.57455 -0.547936,-3.02361 -0.574609,-1.37194 -1.088189,-2.53788 -1.141288,-2.59098 -0.141468,-0.14147 -1.045975,1.46758 -1.578319,2.8077 -0.549069,1.38222 -0.397224,2.36553 0.536667,3.4754 0.660382,0.78482 0.666457,0.78618 1.448613,0.32439 0.431998,-0.25505 1.009015,-0.70185 1.282263,-0.9929 z M 33.853448,276.1325 c -0.6575,-1.45903 -1.64723,-2.44889 -2.43809,-2.43842 -0.37295,0.005 -1.15155,0.23283 -1.7302,0.50641 -1.11889,0.52901 -1.441,0.46412 -2.7539,-0.55483 -0.73691,-0.57192 -1.35338,-0.63676 -1.35338,-0.14235 0,0.50883 1.29608,1.60403 2.52419,2.13296 1.35801,0.58488 4.52993,1.43332 5.47518,1.46453 0.72332,0.0239 0.72332,0.0239 0.2762,-0.9683 z m 59.854646,-0.33073 c 0.345871,-0.66884 0.351396,-0.79375 0.0351,-0.79375 -0.384296,0 -0.69656,0.54345 -0.69656,1.21227 0,0.58271 0.213585,0.44758 0.661458,-0.41852 z M 61.877469,275.3554 c 0.408146,-0.39103 0.742082,-0.82305 0.742082,-0.96004 0,-0.44278 -4.206782,-0.0565 -4.69434,0.43111 -0.520812,0.52081 -0.373478,0.70611 0.778308,0.97889 1.667339,0.39488 2.400637,0.29092 3.17395,-0.44996 z m 48.093191,0.19918 c 0.68097,-1.2724 -0.0334,-2.92853 -1.26246,-2.92682 -0.98302,10e-4 -2.4324,0.93297 -2.4324,1.56345 0,1.35482 3.08935,2.49477 3.69486,1.36337 z m -59.77804,-1.80333 c -0.416574,-1.38303 -0.767353,-2.08819 -0.785464,-1.579 -0.01802,0.5066 0.666599,2.30661 0.8773,2.30661 0.07003,0 0.0287,-0.32743 -0.09184,-0.72761 z m 63.17389,-1.73661 c -0.0969,-1.28909 -1.10351,-2.19923 -2.1437,-1.93816 -1.13239,0.28421 -1.06568,0.892 0.25261,2.30136 1.43913,1.53854 2.0255,1.42593 1.89109,-0.3632 z m -50.030782,0.74362 c 4.473848,-0.47141 6.011696,-0.49566 6.739274,-0.10627 0.548426,0.29351 3.979167,-0.56788 9.2133,-2.31327 2.66396,-0.88833 6.867991,-2.93121 7.059583,-3.43049 0.296852,-0.77359 -0.32844,-0.9855 -1.614707,-0.54723 -1.228185,0.41849 -1.479923,0.31968 -0.880813,-0.34572 0.19014,-0.21118 0.04955,-0.17755 -0.33073,0.0791 -2.834701,1.91325 -5.994969,2.80958 -10.638793,3.01745 -2.991702,0.13391 -3.73616,0.0719 -6.746875,-0.56211 -1.86127,-0.39194 -3.771053,-0.90384 -4.243964,-1.13755 -0.472914,-0.23371 -1.353722,-1.06509 -1.957353,-1.84751 -1.196491,-1.55087 -1.637785,-1.66038 -1.760289,-0.43684 -0.143822,1.43646 2.526665,4.09972 4.645935,4.63336 1.941907,0.48898 0.973159,1.74643 -1.929405,2.50439 -0.865383,0.22598 -1.872253,0.57506 -2.237486,0.77573 -0.664062,0.36484 -0.664062,0.36484 0.129688,0.23894 0.436562,-0.0693 2.485247,-0.30414 4.552635,-0.52199 z m -18.260881,-3.37631 c 0.688425,-0.99585 0.688425,-0.99585 0.205902,-2.06591 -0.472422,-1.04763 -0.470824,-1.10713 0.07625,-2.84059 0.661527,-2.09612 1.004795,-4.4172 1.396608,-9.44347 0.158811,-2.03729 0.443196,-4.3856 0.631963,-5.21847 0.361648,-1.59565 0.322437,-1.79299 -0.356267,-1.79299 -0.231439,0 -1.074798,-0.54336 -1.874131,-1.20746 -1.630141,-1.35437 -3.437708,-2.38727 -3.437708,-1.96442 0,0.15315 0.178594,0.7059 0.396875,1.22832 0.561102,1.3429 0.495356,2.25951 -0.264583,3.68876 -0.363802,0.68422 -0.661458,1.44985 -0.661458,1.70139 0,0.25155 -0.175974,0.60341 -0.391054,0.78191 -0.296609,0.24617 -0.376485,0.84507 -0.330729,2.47979 0.05324,1.90206 -0.01375,2.25911 -0.570213,3.03932 -0.346794,0.48623 -0.686654,1.3819 -0.755234,1.99037 -0.19118,1.69614 1.604181,8.5964 3.239459,12.45049 l 0.440176,1.03743 0.782857,-1.43431 c 0.430572,-0.78886 1.09265,-1.88243 1.471284,-2.43016 z m -13.026499,2.48835 c 0.2026,-0.63835 -0.08,-1.36019 -0.5325,-1.36019 -0.54,0 -0.90952,0.83109 -0.61456,1.38223 0.32822,0.61328 0.9492,0.60135 1.14706,-0.022 z m 27.414327,-0.19743 c 1.963415,-0.58028 1.994236,-0.61609 1.135034,-1.31888 -1.060125,-0.86713 -1.797696,-0.80299 -2.555867,0.22226 -1.289119,1.74324 -1.144551,1.85482 1.420833,1.09662 z m -31.936497,-0.53739 c 0.38364,-0.38364 0.69754,-0.78803 0.69754,-0.89863 0,-0.33071 -1.84073,-1.84341 -2.24316,-1.84341 -0.53193,0 -1.19643,1.05086 -1.19643,1.89206 0,1.55347 1.55618,2.03586 2.74205,0.84998 z m 29.279004,-1.16362 0.571661,-0.80282 -0.662826,-0.86902 c -1.448975,-1.8997 -1.422437,-4.10428 0.06983,-5.80079 2.03527,-2.31385 9.195724,-5.51829 17.244325,-7.71719 0.817706,-0.22339 1.651143,-0.60531 1.852083,-0.8487 0.337299,-0.40855 0.223184,-0.43038 -1.486741,-0.28448 -3.548203,0.30278 -13.606233,4.01406 -18.286535,6.7475 -2.313138,1.35095 -2.699348,1.76947 -2.268902,2.45872 0.173146,0.27725 0.314811,0.84832 0.314811,1.26904 0,0.42072 0.178594,0.91316 0.396875,1.09432 0.218282,0.18116 0.396875,0.53853 0.396875,0.79417 0,0.25564 0.309084,1.13993 0.686854,1.96508 0.44614,0.9745 0.629824,1.72751 0.524126,2.14864 -0.215464,0.85847 -0.0447,0.81774 0.647568,-0.15447 z m 49.063488,-0.66249 c 1.35062,-1.03017 1.87455,-2.76802 0.83451,-2.76802 -0.49346,0 -1.40218,1.05838 -1.86996,2.17793 -0.22522,0.53904 -0.4095,1.04344 -0.4095,1.12087 0,0.3253 0.62225,0.0967 1.44495,-0.53078 z m -50.922036,-0.3362 c 0,-0.26322 -0.174807,-0.70971 -0.388461,-0.99218 -0.380116,-0.50256 -0.388641,-0.50127 -0.396875,0.0601 -0.0109,0.74245 0.249203,1.4107 0.549061,1.4107 0.12995,0 0.236275,-0.21537 0.236275,-0.4786 z M 29.931648,267.9645 c 0.23557,-0.0904 0.60161,-0.49949 0.81343,-0.9091 0.34101,-0.65944 0.33772,-0.79216 -0.0287,-1.15857 -0.75105,-0.75104 -3.37631,-0.38321 -3.72356,0.52172 -0.38993,1.01615 1.59644,2.06107 2.93881,1.54595 z m 43.870899,0.006 c 0.222287,-0.22228 -0.361399,-1.42881 -0.691224,-1.42881 -0.331218,0 -1.495938,1.06592 -1.495938,1.36904 0,0.24881 1.944973,0.30196 2.187162,0.0598 z m -4.199985,-2.41089 1.716892,-2.04042 -2.295533,-1.20858 c -2.627141,-1.38318 -3.151685,-2.04836 -2.543196,-3.22505 0.212161,-0.41027 0.26897,-0.74595 0.12624,-0.74595 -0.524862,0 -5.204899,2.18068 -6.037935,2.81339 -0.633775,0.48138 -0.859895,0.86176 -0.859895,1.44655 0,1.74163 1.381887,3.27927 3.18535,3.54437 0.660538,0.0971 1.851163,0.45114 2.645834,0.78677 0.79467,0.33562 1.64747,0.62353 1.895104,0.63978 0.258059,0.0169 1.183114,-0.84141 2.167139,-2.01086 z m 1.243343,1.31281 c 1.309802,-1.4607 1.639832,-1.91823 1.383678,-1.91823 -0.379753,0 -2.466281,1.98021 -2.466281,2.34061 0,0.50183 0.390477,0.34948 1.082603,-0.42238 z m 6.510565,-0.19049 c -0.08194,-0.50495 -0.647488,-2.08253 -1.25677,-3.50572 -0.609283,-1.42321 -1.165868,-2.73647 -1.236859,-2.91837 -0.0823,-0.21088 0.110951,-0.33073 0.533286,-0.33073 0.735219,0 2.29311,-1.55974 2.321566,-2.32431 0.05422,-1.45679 0.240927,-2.25333 0.679905,-2.90064 0.493699,-0.72799 0.493874,-0.727 0.660096,3.76974 0.112567,3.04526 0.308141,4.94653 0.605562,5.88698 0.509887,1.61227 0.834562,1.83777 0.571416,0.39687 -0.09966,-0.5457 -0.286073,-3.79015 -0.414251,-7.20989 -0.135054,-3.60318 -0.407186,-7.08973 -0.647168,-8.29151 -0.227764,-1.14058 -0.414118,-2.95628 -0.414118,-4.03489 0,-1.54588 -0.08206,-1.9611 -0.387567,-1.9611 -0.882753,0 -1.069578,1.06389 -0.998932,5.68854 0.107241,7.02032 -0.7851,9.82849 -2.60097,8.18515 -0.547526,-0.49551 -1.77427,-0.57178 -2.546774,-0.15835 -0.407593,0.21814 -0.608986,0.66483 -0.744736,1.65185 -0.163012,1.18524 -0.302884,1.42179 -1.128844,1.90912 -0.94278,0.55626 -0.94278,0.55626 -0.239946,0.74422 1.782009,0.47658 3.226589,1.85475 4.407088,4.20447 0.843627,1.6792 1.298247,2.11667 2.19964,2.11667 0.750779,0 0.780439,-0.0427 0.638376,-0.91809 z m -2.671622,-2.97287 c -0.964734,-1.23828 -1.428692,-2.33592 -1.118486,-2.64612 0.40536,-0.40536 1.881118,1.62255 2.39853,3.29594 0.296751,0.95974 -0.237242,0.68866 -1.280044,-0.64982 z m 4.489548,1.69753 c -0.207269,-1.65893 -1.088464,-5.18861 -1.357408,-5.43718 -0.313938,-0.29017 0.125468,4.01778 0.558562,5.47616 0.54133,1.82286 1.028497,1.79909 0.798846,-0.039 z m 15.020814,-0.68664 c 0.38693,-0.71092 0.703509,-1.40937 0.703509,-1.55212 0,-0.14276 -1.160859,-0.32262 -2.579688,-0.39969 -1.418828,-0.0771 -3.633912,-0.39807 -4.922409,-0.71332 -1.288497,-0.31524 -2.410137,-0.50575 -2.492536,-0.42335 -0.0824,0.0824 0.100692,0.41723 0.406868,0.74408 0.306176,0.32685 0.678006,0.91453 0.826291,1.30596 0.343856,0.90768 1.574639,1.26923 4.327462,1.27121 1.760805,10e-4 2.094659,0.0757 2.378747,0.53064 0.181758,0.29104 0.401971,0.52917 0.48936,0.52917 0.08739,0 0.475467,-0.58166 0.862396,-1.29258 z m 2.143716,0.43995 c 0.458549,-0.65467 0.550817,-1.94069 0.156712,-2.18426 -0.209722,-0.12962 -1.596919,2.15605 -1.596919,2.63122 0,0.39872 1.083363,0.0625 1.440207,-0.44696 z m 11.486844,-0.99565 c 3.10976,-2.02884 3.10808,-2.02741 3.59278,-3.04886 0.72285,-1.52329 0.45474,-1.79232 -1.57014,-1.57547 -1.93184,0.20688 -3.04344,-0.23946 -3.04344,-1.22202 0,-0.29628 -0.1055,-0.47348 -0.23445,-0.39379 -0.12895,0.0797 -0.37044,1.36665 -0.53664,2.85989 -0.16621,1.49324 -0.35976,3.16147 -0.43014,3.70717 -0.0704,0.54571 -0.0541,0.99219 0.0361,0.99219 0.0902,0 1.0739,-0.5936 2.18594,-1.31911 z m -1.08695,-2.67083 c -0.84452,-0.49189 -0.48098,-0.77256 1.00069,-0.77256 0.80504,0 1.89488,-0.18016 2.42187,-0.40035 1.07471,-0.44904 1.38834,-0.34816 0.86775,0.27911 -0.87353,1.05255 -3.18941,1.53501 -4.29031,0.8938 z m -23.726357,2.95232 c 0.488,-0.488 0.712962,-0.9296 0.610108,-1.19764 -0.178078,-0.46407 -2.423816,-1.88005 -2.639565,-1.6643 -0.07341,0.0734 0.0037,0.92131 0.171405,1.88423 0.349342,2.00607 0.664078,2.17168 1.858052,0.97771 z m -53.164415,-1.06247 c 0.80646,-0.66181 0.43209,-1.38123 -0.85583,-1.64467 -1.4202,-0.2905 -2.356,-0.004 -2.356,0.72012 0,1.29487 2.0437,1.88316 3.21183,0.92455 z m 65.976705,-2.2412 c 1.002207,-0.65667 0.738627,-1.20732 -1.059942,-2.21436 -0.872236,-0.48838 -1.975424,-1.26308 -2.451532,-1.72155 l -0.865647,-0.83359 -1.118728,0.56083 c -0.615299,0.30845 -1.429213,0.68123 -1.808694,0.8284 -0.455959,0.17683 -0.742924,0.53237 -0.846111,1.0483 -0.118372,0.59186 -0.42731,0.90835 -1.277125,1.30831 l -1.120984,0.52759 2.099384,0.45115 c 1.154663,0.24814 2.218449,0.50131 2.36397,0.56261 0.145521,0.0613 1.418156,0.0722 2.828078,0.0242 1.863149,-0.0634 2.753051,-0.21146 3.257331,-0.54188 z m -40.962865,-2.46206 c 0.50555,-0.7903 1.627455,-2.90443 2.493119,-4.69805 1.85983,-3.8535 2.420295,-4.63818 3.312864,-4.63818 0.360659,0 1.797928,-0.48614 3.193928,-1.08031 1.396003,-0.59417 3.12936,-1.17375 3.851905,-1.28798 0.722548,-0.11421 1.414785,-0.37119 1.538309,-0.57106 0.289904,-0.46907 0.542766,-2.52292 0.599072,-4.86586 l 0.04451,-1.85208 -0.882848,-0.0846 c -0.604285,-0.0579 -1.522601,0.22347 -2.910417,0.89181 -1.559211,0.75088 -2.522302,1.02409 -4.16932,1.18277 -2.662079,0.25649 -3.856495,0.84581 -5.615935,2.77092 -2.653443,2.90329 -3.664175,6.22109 -3.939662,12.93224 l -0.162877,3.96789 0.864084,-0.61528 c 0.475247,-0.33841 1.27772,-1.2619 1.78327,-2.0522 z m -28.83961,1.18096 c -0.58982,-1.44548 -2.22387,-0.9761 -1.6657,0.47847 0.0893,0.23262 0.51118,0.38142 1.08147,0.38142 0.9351,0 0.9351,0 0.58423,-0.85989 z m 42.315996,0.44626 c -0.0873,-0.2275 0.02209,-0.76329 0.24307,-1.19063 0.354293,-0.68513 0.355174,-0.77699 0.0074,-0.77699 -0.616609,0 -0.983914,0.91402 -0.684146,1.70247 0.141938,0.37333 0.333287,0.67878 0.42522,0.67878 0.09193,0 0.09572,-0.18614 0.0084,-0.41363 z m 16.388152,-1.11008 c 1.322978,-0.14912 1.272516,-0.0169 1.179677,-3.09185 -0.07185,-2.37987 -0.349348,-3.12016 -1.128123,-3.00956 -0.528375,0.075 -0.611722,0.27678 -0.745471,1.80429 -0.166743,1.90434 -0.426284,2.52396 -1.736474,4.14557 -0.490088,0.60657 -0.891066,1.17021 -0.891066,1.25252 0,0.0823 0.482623,-0.10189 1.072499,-0.40935 0.589872,-0.30746 1.601904,-0.61869 2.248958,-0.69162 z m -55.190118,0.73549 c 0.51718,-0.27679 1.2374,-2.69344 0.94413,-3.16797 -0.56086,-0.90748 -2.75128,0.22439 -3.31779,1.71442 -0.52677,1.38551 0.8852,2.25015 2.37366,1.45355 z M 81.91095,258.1767 c 0.798528,-1.01516 1.059225,-2.23656 0.787651,-3.69023 -0.354629,-1.89824 -0.494583,-1.7398 -0.427701,0.48421 0.0514,1.70928 -0.02043,2.08852 -0.49584,2.61775 -0.751374,0.83644 -0.983496,1.28035 -0.669494,1.28035 0.143547,0 0.505971,-0.31144 0.805384,-0.69208 z m -23.391271,-1.75532 c 1.05505,-2.37406 4.351261,-5.60291 7.024336,-6.88079 1.08368,-0.51807 2.195729,-1.01521 2.471219,-1.10477 0.275489,-0.0896 0.436335,-0.22739 0.357436,-0.30628 -0.254135,-0.25414 -2.379398,0.44388 -4.98729,1.63802 -1.397804,0.64004 -2.67099,1.16372 -2.829304,1.16372 -0.286636,0 -3.492775,6.28653 -3.492775,6.84856 0,0.16235 0.162335,0.29519 0.360744,0.29519 0.198408,0 0.691443,-0.74414 1.095634,-1.65365 z m 38.055067,1.27541 c 0.131715,-0.34324 -1.037241,-6.74409 -1.275072,-6.98192 -0.05544,-0.0554 -0.406233,0.50196 -0.77955,1.23867 -0.373314,0.7367 -1.036164,1.74652 -1.472996,2.24405 -0.436833,0.49752 -0.794242,1.08722 -0.794242,1.31045 0,0.38432 1.36181,1.60504 2.513541,2.25313 0.740434,0.41665 1.635967,0.38477 1.808319,-0.0644 z m 15.138514,-1.06847 c 0.44199,-1.05783 0.48211,-1.46371 0.14468,-1.46371 -0.24975,0 -0.81964,1.40719 -0.81964,2.02386 0,0.62051 0.27807,0.38974 0.67496,-0.56015 z M 26.645558,256.1568 c 1.05902,-1.71586 0.23101,-2.81926 -2.19641,-2.92689 -1.08579,-0.0482 -1.1228,-0.0228 -1.20413,0.82359 -0.0693,0.72094 0.0984,1.05554 0.96106,1.91823 0.57473,0.57473 1.23932,1.04496 1.47686,1.04496 0.23754,0 0.67072,-0.38695 0.96262,-0.85989 z m 82.815242,0.0551 c 0.91604,-0.80482 0.91604,-0.80482 0.10302,-0.41432 -0.44716,0.21478 -0.96775,0.57695 -1.15687,0.80482 -0.58649,0.70667 0.0906,0.45577 1.05385,-0.3905 z m -70.179072,-1.15917 c -0.0428,-0.42536 -0.22663,-0.82223 -0.40853,-0.88195 -0.23747,-0.0779 -0.32836,0.28935 -0.32232,1.30254 0.008,1.31704 0.0351,1.37583 0.40853,0.88195 0.22007,-0.29105 0.36511,-0.87719 0.32232,-1.30254 z m 24.062935,0.33494 c 1.56572,-0.60494 3.376991,-1.24179 4.025043,-1.41521 1.555755,-0.41633 1.901989,-0.96564 1.127972,-1.78954 -0.357429,-0.38047 -0.58646,-0.96038 -0.58646,-1.48493 0,-0.76954 -0.06304,-0.8416 -0.595312,-0.68054 -2.804742,0.84869 -7.606771,4.84136 -7.606771,6.32468 0,0.33322 0.944528,0.0853 3.635528,-0.95446 z m 26.283611,-0.41114 c 0.335251,-0.88177 0.10558,-1.92856 -0.423137,-1.92856 -0.293812,0 -0.391835,0.33095 -0.391835,1.32292 0,1.44688 0.386059,1.73377 0.814972,0.60564 z m 19.425656,-0.80225 c 1.01864,-0.35149 2.06155,-0.84242 2.31758,-1.09095 0.44143,-0.42852 0.41114,-0.45405 -0.58581,-0.4938 -0.57821,-0.0231 -1.28587,-0.16747 -1.57258,-0.32091 -1.40842,-0.75376 -2.54527,0.0535 -2.86694,2.0357 -0.13946,0.85936 -0.10631,0.92824 0.35083,0.72903 0.27766,-0.121 1.33827,-0.50758 2.35692,-0.85907 z m -16.510323,-1.41887 c 1.142648,-1.22321 1.033381,-1.58207 -0.356867,-1.17206 -1.110438,0.32749 -1.46064,0.8163 -1.155161,1.61237 0.225719,0.58821 0.672884,0.458 1.512028,-0.44031 z m 13.983003,-1.14263 c 1.20635,-1.75336 1.39524,-2.4105 0.97907,-3.40611 -0.19479,-0.46598 -0.52491,-0.98883 -0.73361,-1.16189 -0.32484,-0.26936 -0.36446,-0.0492 -0.27525,1.52953 0.0932,1.65026 0.0315,1.94914 -0.58757,2.84241 -0.74235,1.07121 -0.83746,1.36667 -0.43991,1.36667 0.13853,0 0.6143,-0.52677 1.05727,-1.17061 z m -32.893706,0.5642 c 0.068,-0.068 -0.0011,-1.11711 -0.153193,-2.33136 -0.152255,-1.21425 -0.280445,-3.69913 -0.284872,-5.52196 -0.0092,-3.77038 -0.323569,-3.82163 -0.779246,-0.127 -0.750072,6.0816 -1.304432,7.89413 -1.356487,4.43516 l -0.02711,-1.80155 -0.324025,1.4552 c -0.178215,0.80037 -0.484754,1.89386 -0.681202,2.42998 -0.302514,0.8256 -0.300564,1.04298 0.01275,1.42051 0.297792,0.35882 0.672169,0.41833 1.919841,0.3052 0.85245,-0.0773 1.605544,-0.19618 1.67354,-0.26418 z m -46.071566,-0.30219 c 1.48431,-0.62019 1.58142,-2.24177 0.23039,-3.84738 -0.5793,-0.68846 -0.8566,-0.81453 -1.64522,-0.748 -0.73815,0.0623 -1.08238,0.27938 -1.5523,0.97905 -1.08107,1.60957 -0.7026,3.02551 0.98911,3.70048 0.88456,0.35293 0.9373,0.35068 1.97802,-0.0841 z m 61.72119,-1.0887 c 4.150465,-1.05204 4.954733,-1.3941 4.954733,-2.1073 0,-0.86524 -2.141668,-0.60601 -6.38356,0.77266 -3.633918,1.18108 -4.56433,1.68375 -4.20192,2.27014 0.21985,0.35572 1.139439,0.20294 5.630747,-0.9355 z m -57.89952,0.0791 c 0.16535,-0.47294 0.37356,-1.55414 0.46269,-2.40268 0.16205,-1.54278 0.16205,-1.54278 -0.60549,-1.45521 -0.74913,0.0855 -0.76946,0.12862 -0.84781,1.79921 -0.12989,2.7694 0.37516,3.81899 0.99061,2.05868 z m 79.678222,0.52075 c 0.23089,-0.17727 0.55831,-0.58237 0.72761,-0.90023 0.33412,-0.62734 0.42143,-2.79213 0.12458,-3.08897 -0.31316,-0.31317 -2.99178,2.53547 -2.99178,3.18168 0,0.97537 1.28788,1.46144 2.13959,0.80752 z m -35.301367,-0.3401 c 0.239951,-0.6253 -0.32304,-1.07037 -0.825973,-0.65297 -0.224449,0.18627 -0.408088,0.50269 -0.408088,0.70316 0,0.50289 1.038024,0.46068 1.234061,-0.0502 z m 7.245745,-1.57651 c 0.955103,-0.4939 0.981615,-1.02977 0.114104,-2.30642 -1.359871,-2.00124 -2.4481,-1.84199 -2.700255,0.39513 -0.239382,2.12378 0.754636,2.85841 2.586151,1.91129 z m 22.297232,0.20524 c 0.0641,-0.10914 -0.0453,-0.82272 -0.24309,-1.58573 -0.40243,-1.5521 -0.17949,-2.58331 0.60558,-2.80116 0.263,-0.073 1.07349,-0.21207 1.8011,-0.30909 1.5072,-0.20097 3.57187,-1.02843 3.57187,-1.4315 0,-0.4525 -1.61511,-2.14075 -2.048,-2.14075 -0.22313,0 -1.44847,0.74414 -2.72298,1.65364 -1.27451,0.90951 -2.52047,1.77455 -2.76881,1.92232 -0.39799,0.23681 -0.41392,0.40833 -0.13434,1.4466 0.17445,0.64787 0.55686,1.68783 0.8498,2.31102 0.50959,1.08413 0.83627,1.36453 1.08887,0.93465 z m -64.424067,-2.34366 -0.08735,-0.7652 -0.61391,0.98736 c -0.714625,1.14935 -0.532535,1.86418 0.270345,1.0613 0.336316,-0.33632 0.487595,-0.7869 0.430912,-1.28346 z m 44.831591,-0.0424 -0.157681,-0.98734 0.727787,0.8599 c 1.718492,2.03043 1.543134,0.43046 -0.404831,-3.69373 -0.736172,-1.55861 -1.297811,-3.04507 -1.248088,-3.30327 0.05999,-0.31149 0.424254,-0.5237 1.082667,-0.63072 1.391817,-0.22623 1.460736,-0.41677 0.343461,-0.94956 -1.080164,-0.51509 -1.795555,-0.29595 -1.965203,0.60199 -0.268986,1.42374 -1.382501,1.51997 -3.191248,0.27577 -0.708803,-0.48757 -1.908831,-1.08931 -2.66673,-1.33721 -0.757897,-0.2479 -1.832864,-0.75174 -2.388817,-1.11965 -1.381906,-0.9145 -4.227928,-1.34032 -5.681504,-0.85006 -0.840404,0.28345 -1.075219,0.50312 -1.140336,1.06676 -0.105709,0.915 0.205872,1.06761 3.653877,1.7896 3.669814,0.76843 5.214433,1.50113 6.956714,3.29998 0.786625,0.81216 1.662126,1.47666 1.945561,1.47666 0.710673,0 2.278769,1.70131 3.118313,3.38323 0.779999,1.56262 1.255617,1.6177 1.016058,0.11765 z m -4.286134,-5.01637 c -0.801261,-0.97208 -1.039799,-1.65951 -0.575836,-1.65951 0.364397,0 1.879491,1.82035 1.879491,2.25816 0,0.64561 -0.44737,0.44017 -1.303655,-0.59865 z m -7.804835,-3.95271 c -0.0931,-0.24262 -0.06968,-0.54072 0.05206,-0.66245 0.309716,-0.30972 1.241665,0.42634 1.011449,0.79884 -0.276397,0.44722 -0.868701,0.37126 -1.063506,-0.13639 z m 37.251855,8.32877 c 1.39317,-1.44539 1.30461,-1.99172 -0.15982,-0.98597 -1.32772,0.91188 -2.05438,1.62212 -2.05438,2.00798 0,0.7337 0.94022,0.29973 2.2142,-1.02201 z m -84.565952,-0.74391 c 0.63309,0 1.16854,-0.56504 0.91109,-0.96145 -0.49438,-0.76125 -2.86927,-1.20906 -3.64942,-0.68814 -0.72052,0.4811 -1.21652,2.5673 -0.72681,3.05701 0.095,0.095 0.79408,-0.18283 1.55356,-0.61736 0.75948,-0.43453 1.61969,-0.79006 1.91158,-0.79006 z m 65.067226,0.88521 c 0.999234,-0.47247 1.326542,-1.10872 0.677463,-1.3169 -1.440341,-0.46197 -1.940898,-0.76655 -2.950646,-1.7954 -0.614,-0.62562 -1.267675,-1.57764 -1.452616,-2.11559 -0.184938,-0.53795 -0.4446,-0.97626 -0.577024,-0.97402 -0.562417,0.01 -0.333278,1.17101 0.671052,3.40148 0.589902,1.3101 1.072549,2.55478 1.072549,2.76597 0,0.86151 0.787633,0.87212 2.559222,0.0345 z M 75.95493,245.57675 c 0.274466,-1.39724 -0.08175,-4.47507 -0.535133,-4.62368 -0.682897,-0.22383 -1.169744,3.92692 -0.627785,5.35238 0.380156,0.99988 0.885579,0.68318 1.162918,-0.7287 z m -54.730172,-0.30749 c 0.20918,-1.11503 0.0887,-1.80098 -0.3416,-1.94424 -0.45678,-0.15208 -0.91779,1.19163 -0.71914,2.09607 0.22685,1.03285 0.85537,0.94288 1.06074,-0.15183 z m 10.67272,0.13025 c 0.29319,-0.18567 0.25472,-0.2919 -0.19239,-0.53118 -0.43116,-0.23075 -0.77187,-0.21011 -1.49096,0.0904 -0.51264,0.21419 -0.93208,0.45505 -0.93208,0.53524 0,0.23779 2.21727,0.15776 2.61543,-0.0944 z m -2.93293,-1.40022 c 0.46286,-0.46285 0.38929,-0.74083 -0.19605,-0.74083 -0.58146,0 -0.92137,0.39848 -0.67707,0.79375 0.2165,0.35032 0.48623,0.33397 0.87312,-0.0529 z m 16.787815,-0.40558 c 0.638313,-0.57523 0.58655,-0.74905 -0.336999,-1.1316 -0.44001,-0.18226 -0.901523,-0.51275 -1.025581,-0.73443 -0.315762,-0.56424 -1.034017,-0.21895 -1.23839,0.59534 -0.108772,0.43338 -0.0093,0.91895 0.278077,1.35756 0.363035,0.55406 0.580615,0.64961 1.153647,0.50663 0.388424,-0.0969 0.914585,-0.364 1.169246,-0.5935 z m 48.289545,0.27671 c -0.252965,-0.0662 -0.729215,-0.0686 -1.058333,-0.005 -0.329118,0.0633 -0.122148,0.11747 0.459936,0.1204 0.582083,0.003 0.851363,-0.0488 0.598397,-0.11506 z m -44.119457,-0.94269 c 0.288359,-0.47294 0.524735,-1.07498 0.525277,-1.33787 0.0011,-0.4604 -0.02864,-0.46048 -0.804095,-0.002 -0.919065,0.54291 -1.674381,1.56263 -1.439254,1.94307 0.334153,0.54067 1.207773,0.23416 1.718072,-0.60279 z m 50.097779,-0.55913 c 2.66563,-1.56217 5.2705,-5.45913 5.61642,-8.40231 0.41965,-3.5706 -2.19106,-8.76129 -5.17128,-10.28169 -3.276632,-1.67161 -9.475306,-1.35249 -13.636443,0.70205 -1.572564,0.77644 -1.837441,1.0049 -1.603666,1.38315 0.115245,0.18647 0.711065,0.0144 1.728848,-0.49942 3.515567,-1.77465 8.789787,-2.5851 11.330787,-1.74112 3.635644,1.20757 7.343144,6.86884 6.859544,10.47437 -0.3839,2.8622 -3.16253,6.39762 -6.596156,8.39269 -1.134137,0.65898 -2.062065,1.23591 -2.062065,1.28207 0,0.22098 2.508197,-0.70863 3.534011,-1.30979 z m 4.34778,0.37596 c 0.88761,-0.57369 1.79429,-1.39203 2.01485,-1.81854 0.70281,-1.3591 0.14325,-1.32881 -2.14337,0.11604 -1.44486,0.91297 -2.35985,2.00347 -2.07192,2.46935 0.26262,0.42493 0.46641,0.3539 2.20044,-0.76685 z m -77.866972,-0.37731 c 0.47948,-0.35061 0.47744,-0.37151 -0.0643,-0.66146 -1.05213,-0.56308 -2.71091,-0.24009 -2.71091,0.52785 0,0.51075 2.1199,0.6128 2.77524,0.13361 z m 7.21278,-0.16422 c 1.04582,-0.63765 1.08494,-0.98877 0.14979,-1.34432 -0.50576,-0.19228 -0.93146,-0.17829 -1.4793,0.0486 -0.73166,0.30306 -1.32193,1.19769 -1.0712,1.62352 0.22128,0.37581 1.54258,0.19538 2.40071,-0.32783 z m 14.831286,-1.80455 c 0.772271,-0.50017 1.036294,-1.54277 0.751403,-2.96721 -0.111392,-0.55696 -0.311581,-0.78739 -0.684051,-0.78739 -1.049356,0 -3.744253,3.02275 -3.314636,3.71788 0.495035,0.80099 2.040265,0.81846 3.247284,0.0367 z m -17.013216,-0.58103 c 0.0894,-0.14473 1.09961,-0.26316 2.24479,-0.26316 2.35164,0 2.72752,-0.21303 3.16684,-1.79486 0.30317,-1.0916 0.36303,-2.96224 0.11543,-3.60745 -0.28036,-0.73063 -1.24964,-0.45353 -2.74982,0.7861 -0.80036,0.66136 -2.13211,1.74557 -2.95944,2.40934 -1.75693,1.4096 -1.96093,1.79423 -1.40315,2.64551 0.33326,0.50862 0.5084,0.577 0.91731,0.35817 0.27797,-0.14877 0.57858,-0.38891 0.66804,-0.53365 z m -4.63109,-0.44191 c 0,-0.30467 0.18555,-0.37663 0.71174,-0.27604 l 0.71175,0.13606 -0.6456,-0.50288 c -0.35508,-0.27658 -0.94325,-0.576 -1.30706,-0.66538 -0.3638,-0.0894 -1.10096,-0.50574 -1.63813,-0.92525 -1.06193,-0.82934 -1.53687,-0.95755 -1.53687,-0.41488 0,0.19132 0.41134,0.54402 0.91409,0.78376 0.50347,0.24009 1.11432,0.82666 1.35983,1.30578 0.65803,1.28413 1.43025,1.58586 1.43025,0.55883 z m 24.870619,-0.27794 c 0.40063,-0.50932 0.47035,-0.75361 0.23726,-0.83131 -0.329676,-0.10989 -1.295376,0.87217 -1.295376,1.31731 0,0.45562 0.497007,0.22734 1.058116,-0.486 z m 50.261433,-0.19318 c 0.50107,-0.60375 0.0805,-0.93763 -1.18101,-0.93763 -1.234124,0 -1.555717,0.22396 -1.295465,0.90217 0.20864,0.54371 2.032985,0.56983 2.476475,0.0355 z m -50.639702,-2.63649 c 0.242083,-0.96454 0.03298,-1.60843 -0.522343,-1.60843 -0.824275,0 -1.11692,0.76609 -0.596218,1.56078 0.562851,0.85902 0.911196,0.87386 1.118561,0.0477 z m 7.665104,-0.77826 c 0.90002,-1.35553 1.780992,-2.02079 2.676014,-2.02079 0.295749,0 0.353912,-0.13124 0.205206,-0.46302 -0.114142,-0.25467 -0.257435,-1.02857 -0.318429,-1.7198 -0.06646,-0.75316 -0.240456,-1.25677 -0.434213,-1.25677 -0.870958,0 -3.25111,0.89023 -3.660508,1.36911 -0.632542,0.73989 -0.667179,4.47436 -0.04725,5.09429 0.228675,0.22867 0.465585,0.41577 0.526463,0.41577 0.06088,0 0.534601,-0.63845 1.052714,-1.41879 z m 20.389337,0.20436 c 0.636289,-1.52285 0.389123,-2.83447 -0.356992,-1.89442 -0.434586,0.54754 -0.91958,2.30901 -0.754327,2.73966 0.213511,0.55639 0.671095,0.20837 1.111319,-0.84524 z m 3.491976,0.48289 c -0.04366,-0.22165 -0.416663,-0.65375 -0.828889,-0.96021 -0.749504,-0.55721 -0.749504,-0.55721 -1.256771,0.0674 -0.670801,0.82598 -0.640972,1.3035 0.08804,1.40951 1.110115,0.16143 2.081699,-0.0899 1.997617,-0.51672 z m 19.815515,0.43737 c -0.65735,-0.3824 -4.635966,-0.65527 -4.284486,-0.29384 0.383231,0.39407 1.101384,0.52371 3.042706,0.54927 1.32135,0.0174 1.60905,-0.0418 1.24178,-0.25543 z m -68.738112,-3.78663 c 1.25462,-0.92097 2.47463,-1.2174 2.80571,-0.6817 0.19291,0.31214 1.19062,0.35902 1.19062,0.0559 0,-0.11475 -0.23812,-0.6757 -0.52917,-1.24656 -1.37028,-2.68773 0.19123,-6.66566 3.206371,-8.16816 1.804322,-0.89914 1.330957,-1.09226 -2.677201,-1.09226 -2.77349,0 -3.18153,0.065 -4.61172,0.73478 -3.31284,1.55144 -5.1405,3.86242 -4.82277,6.09814 0.0863,0.60752 0.53089,1.98761 0.98789,3.06687 0.69501,1.64135 0.81268,2.2143 0.71946,3.50306 l -0.11145,1.54076 1.27658,-1.43229 c 0.70212,-0.78776 1.85668,-1.85812 2.56568,-2.37858 z m -4.91571,2.04636 c -0.0473,-1.0809 -2.02407,-6.0274 -2.53491,-6.34311 -0.13722,-0.0848 -1.3385,0.95204 -2.6695,2.30412 -2.42001,2.45833 -2.42001,2.45833 -1.73092,2.74453 0.37899,0.1574 0.87924,0.44481 1.11166,0.63868 0.34549,0.28819 0.59109,0.29156 1.34628,0.0185 0.90093,-0.32578 0.95372,-0.30634 2.14178,0.78878 1.62005,1.49331 2.40535,1.44238 2.33561,-0.15148 z m 78.628182,-0.0797 c 0.86955,-1.37746 2.17334,-4.67701 2.65483,-6.71864 0.8748,-3.70944 0.3031,-5.86036 -2.23125,-8.39472 -1.54276,-1.54276 -1.93924,-1.79935 -3.034,-1.96352 -0.69263,-0.10386 -1.50197,-0.0806 -1.79854,0.0518 -0.48714,0.21737 -0.40701,0.3228 0.82951,1.09146 1.71093,1.06357 1.7551,1.79893 0.14144,2.3545 -1.2204,0.42017 -2.13017,1.22047 -1.86858,1.64373 0.25306,0.40946 1.46923,0.36202 2.80547,-0.10944 1.44546,-0.50998 1.95072,-0.33799 2.91418,0.99204 0.95515,1.31854 0.97146,1.78534 0.0986,2.82264 -0.63269,0.75191 -0.65668,0.87463 -0.34135,1.74666 0.27738,0.76708 0.27573,1.09336 -0.009,1.79125 -0.83876,2.05527 -1.09054,2.91796 -1.25161,4.28846 -0.20918,1.77974 0.14011,1.9091 1.09035,0.40382 z m -30.538337,0.0786 c 0.149024,-0.39196 0.235374,-1.1361 0.191889,-1.65364 -0.06148,-0.73174 -0.194527,-0.94099 -0.598307,-0.94099 -0.382363,0 -0.581401,0.26285 -0.75505,0.99711 -0.448365,1.89588 0.534207,3.24734 1.161468,1.59752 z m 26.174287,-0.20407 c 0,-0.78654 -1.99562,-1.25479 -2.90276,-0.6811 -0.463485,0.29312 -0.38772,0.37968 0.6538,0.74697 1.19371,0.42097 2.24896,0.39006 2.24896,-0.0659 z m -36.578651,-0.32398 c -0.254661,-0.0666 -0.67138,-0.0666 -0.926042,0 -0.254661,0.0666 -0.0463,0.121 0.463021,0.121 0.509323,0 0.717682,-0.0544 0.463021,-0.121 z m 1.572416,-0.80477 c -0.06708,-0.25743 -0.126381,-0.11087 -0.131773,0.32569 -0.0054,0.43656 0.04949,0.64719 0.12197,0.46806 0.07247,-0.17913 0.07689,-0.53632 0.0098,-0.79375 z m 2.391207,0.39184 c 0.302574,-0.32742 0.695904,-1.08979 0.874069,-1.69415 0.291634,-0.98928 0.271656,-1.15495 -0.200401,-1.66164 -0.457102,-0.49064 -0.566182,-0.51238 -0.850725,-0.16953 -0.350771,0.42266 -0.14093,1.05392 0.266613,0.80204 0.426564,-0.26363 0.271817,0.0387 -0.54745,1.06963 -0.765738,0.96356 -0.986213,1.70372 -0.61736,2.07257 0.288721,0.28872 0.495903,0.208 1.075254,-0.41892 z m 3.921233,-0.32223 c 0.45012,-1.07729 0.498494,-1.99288 0.105288,-1.99288 -0.262315,0 -0.756697,0.98392 -1.163259,2.31511 -0.306948,1.00503 0.621567,0.72223 1.057971,-0.32223 z m 23.929632,-0.18049 c 1.787113,-2.46704 0.148296,-4.24211 -2.784965,-3.01651 -0.762476,0.31858 -0.917543,0.51967 -0.917543,1.18986 0,0.95031 1.627182,2.92468 2.410378,2.92468 0.278334,0 0.846423,-0.48275 1.29213,-1.09803 z m -34.129592,-0.20568 c 0,-0.31948 -1.361959,-1.39128 -1.54074,-1.21249 -0.164016,0.16401 1.009504,1.45787 1.322276,1.45787 0.120155,0 0.218464,-0.11042 0.218464,-0.24538 z m -23.431202,-0.67225 c -0.569038,-0.4304 -1.175049,-0.52571 -1.175049,-0.1848 0,0.38597 0.333478,0.57326 1.020709,0.57326 0.644104,0 0.649609,-0.0139 0.15434,-0.38846 z M 23.659648,229.1377 c 0.90951,-1.03212 1.65365,-1.96811 1.65365,-2.07997 0,-0.45225 -1.28935,-0.15883 -2.3956,0.54517 -1.49391,0.95069 -1.86092,1.40633 -2.1182,2.62971 -0.1142,0.54304 -0.29776,1.28379 -0.40791,1.64611 -0.20027,0.65876 -0.20027,0.65876 0.70707,-0.10284 0.49904,-0.41888 1.65149,-1.60606 2.56099,-2.63818 z m 42.681464,2.99899 c 0.683948,-0.36604 0.644808,-0.68507 -0.147757,-1.20438 -0.810958,-0.53136 -1.986304,-0.3112 -1.986304,0.37206 0,0.98697 1.067306,1.40323 2.134061,0.83232 z m 36.093428,0.0171 c 0.23519,-0.38055 -0.60818,-1.85985 -1.06032,-1.85985 -0.40104,0 -0.57494,1.57903 -0.21369,1.94027 0.26457,0.26458 1.09312,0.21228 1.27401,-0.0804 z m -58.754337,-0.96212 c 0.640447,-0.24576 0.500525,-1.01856 -0.349097,-1.92809 -0.872758,-0.93429 -1.354494,-1.02344 -1.938211,-0.35871 -0.668046,0.76077 -0.796183,1.55343 -0.326968,2.02265 0.424934,0.42493 1.826295,0.56653 2.614276,0.26415 z m 50.282936,-1.09144 c 0.369049,-0.54311 0.670997,-1.32529 0.670997,-1.7382 0,-0.6272 -0.09796,-0.73682 -0.595313,-0.66618 -0.760116,0.10795 -1.641261,1.81974 -1.41033,2.73984 0.225841,0.89982 0.550744,0.81815 1.334646,-0.33546 z m -29.814685,-0.29196 c 0.134628,-0.40388 -0.540234,-0.39717 -0.946819,0.009 -0.174625,0.17462 -0.3175,0.4868 -0.3175,0.69373 0,0.32239 0.08311,0.32104 0.58081,-0.009 0.319448,-0.2121 0.627026,-0.52428 0.683509,-0.69373 z m 5.596229,0.52046 c 0.320834,-0.59949 0.130926,-0.82854 -0.686938,-0.82854 -0.637918,0 -0.732187,0.18665 -0.456761,0.9044 0.217948,0.56796 0.820526,0.52799 1.143699,-0.0759 z m -27.858029,-3.73456 c 0.852833,-0.63892 2.242827,-1.75921 3.088874,-2.48951 1.075325,-0.92822 1.598409,-1.23053 1.738096,-1.00452 0.145775,0.23587 1.017889,-0.059 3.224231,-1.09001 1.663422,-0.77734 3.322061,-1.54515 3.685863,-1.70624 0.661458,-0.29289 0.661458,-0.29289 -0.132292,-0.31059 -0.436562,-0.01 -1.54858,0.3394 -2.471153,0.77585 -2.098844,0.99291 -2.590554,0.99201 -3.620939,-0.007 l -0.825619,-0.80022 -1.117751,1.32559 c -0.614762,0.72907 -1.677652,1.64214 -2.361977,2.02903 -0.684325,0.3869 -1.68677,0.99739 -2.227655,1.35664 -1.262504,0.83854 -2.323864,2.91405 -2.323864,4.54438 v 1.20129 l 0.89679,-1.33166 c 0.493235,-0.73241 1.594563,-1.85442 2.447396,-2.49334 z m 49.307681,1.65557 c 0.40063,-0.50931 0.47035,-0.75361 0.23726,-0.8313 -0.329676,-0.10989 -1.295376,0.87216 -1.295376,1.31731 0,0.45561 0.497006,0.22733 1.058116,-0.48601 z m -44.195636,0.1977 c 0.948912,-0.50784 1.22451,-2.43174 0.426609,-2.9781 -1.415473,-0.96923 -3.943758,1.72035 -2.744507,2.9196 0.383437,0.38343 1.650973,0.41543 2.317898,0.0585 z m 52.609604,-0.0585 c 0.786087,-0.78609 -0.02928,-2.59292 -1.170107,-2.59292 -1.383342,0 -2.434484,1.18411 -1.921293,2.16434 0.357724,0.68327 2.534878,0.9851 3.0914,0.42858 z M 88.548719,227.3018 c 0,-0.61949 -0.684065,-1.30112 -1.205074,-1.20078 -0.755613,0.14551 -0.802259,0.97394 -0.07134,1.26699 0.878544,0.35223 1.276414,0.33159 1.276414,-0.0662 z m 17.734391,-0.72568 c 0.15977,-0.29855 0.25326,-0.80456 0.20774,-1.12448 -0.0694,-0.48804 -0.25251,-0.58166 -1.13746,-0.58166 -1.268,0 -1.47834,0.49352 -0.65595,1.53902 0.6679,0.84909 1.19117,0.90424 1.58567,0.16712 z m -55.569809,-0.82541 c 0,-0.31597 -0.197046,-0.79222 -0.437883,-1.05834 -0.548764,-0.60637 -1.269778,-0.64945 -1.044503,-0.0624 0.08895,0.2318 0.233656,0.70805 0.321572,1.05833 0.20856,0.83097 1.160814,0.88216 1.160814,0.0624 z m 43.284472,-0.65692 c 0.793583,-0.51998 0.381725,-0.95171 -0.684355,-0.71738 -1.726782,0.37956 -1.741739,0.38949 -1.191715,0.79168 0.649261,0.47475 1.063125,0.45836 1.87607,-0.0743 z m -41.432389,-0.70006 c 0,-0.72969 -0.459187,-1.24354 -1.11125,-1.24354 -0.607949,0 -0.598561,0.14341 0.07093,1.08363 0.658831,0.92525 1.040317,0.98388 1.040317,0.15991 z m 33.824954,-1.12305 c 1.338257,-0.53563 2.817844,-1.25416 3.287974,-1.59673 0.470131,-0.34258 1.119945,-0.81732 1.444033,-1.05498 0.840592,-0.61643 2.097839,-0.53559 3.978095,0.2558 1.662213,0.69962 3.073128,0.86789 3.739438,0.44599 0.540811,-0.34244 0.145246,-1.08099 -0.578977,-1.08099 -0.342746,0 -1.584785,-0.41672 -2.760088,-0.92604 -3.134474,-1.35834 -4.467768,-1.21643 -9.003136,0.95824 -2.634893,1.26341 -5.092708,3.15914 -5.092708,3.92805 0,0.57636 2.289958,0.14947 4.985369,-0.92934 z m -63.4676,-0.36768 c 0.15064,-0.28148 0.27389,-0.91251 0.27389,-1.40229 0,-1.44233 -0.92167,-1.97066 -1.89739,-1.08764 -0.63704,0.57651 -0.61277,1.44354 0.0645,2.30456 0.64989,0.8262 1.18216,0.88949 1.55899,0.18537 z m 4.94317,-0.3144 c 0.23457,-0.19468 0.35781,-0.89861 0.35781,-2.04388 v -1.74691 l -1.98438,1.97113 c -1.0914,1.08412 -1.98437,2.08037 -1.98437,2.21388 0,0.32818 3.1556,-0.0163 3.61094,-0.39422 z m 47.923938,-0.64404 c 1.18863,-0.83255 0.383699,-1.97649 -1.12441,-1.59798 -0.595554,0.14947 -1.334585,1.52046 -0.999975,1.85507 0.300236,0.30024 1.543498,0.14978 2.124385,-0.25709 z m -44.216448,-1.39527 c 1.3726,-1.08626 3.89616,-3.74485 4.33762,-4.56973 0.4092,-0.76461 -0.0924,-0.63159 -1.73768,0.46083 -0.96153,0.63842 -1.82097,0.98951 -2.54921,1.04138 -1.49751,0.10667 -1.88831,0.58615 -2.02569,2.4854 -0.14169,1.95888 0.13298,2.03984 1.97496,0.58212 z m 40.589685,-0.46414 c 0.191349,-0.23056 0.875485,-0.78219 1.520301,-1.22583 1.08349,-0.74546 1.295562,-0.79513 2.796604,-0.65496 0.893315,0.0834 1.826117,0.22915 2.072891,0.32385 0.330211,0.12671 0.492845,-0.004 0.615942,-0.49425 0.394211,-1.57065 -0.479202,-2.29211 -2.774894,-2.29211 -3.127322,0 -5.913382,2.12074 -5.411751,4.11941 0.185351,0.73849 0.676537,0.83162 1.180907,0.22389 z m -35.089475,-0.60583 c 1.16384,-0.51483 2.41148,-1.87986 2.56964,-2.81142 0.126691,-0.7462 -1.2354,-0.83516 -2.33979,-0.15282 -0.86986,0.53744 -2.99433,3.03269 -2.99433,3.51694 0,0.35507 1.29975,0.0952 2.76448,-0.5527 z m 6.231359,0.47448 c 0.654844,-0.15016 1.800879,-0.58134 2.546745,-0.95816 l 1.356116,-0.68514 0.929423,0.70891 0.929424,0.7089 1.780854,-0.67031 c 1.11134,-0.41831 2.324392,-0.67031 3.226613,-0.67031 1.038442,0 1.414999,-0.0932 1.336585,-0.33073 -0.07293,-0.22094 -0.949862,-0.37465 -2.641502,-0.46302 -1.985839,-0.10375 -2.651295,-0.24023 -3.083597,-0.63245 -0.468731,-0.42527 -0.799502,-0.474 -2.209195,-0.32546 -0.911857,0.0961 -2.610424,0.24853 -3.774591,0.33876 -2.288083,0.17734 -3.128771,0.57664 -4.107254,1.95078 -0.30603,0.42978 -0.48233,0.9013 -0.39178,1.04781 0.21212,0.34323 2.569118,0.33198 4.102159,-0.0196 z m -16.842459,-1.93691 c 0.22897,-0.34946 0.95704,-0.84188 1.61793,-1.09428 2.16008,-0.82494 1.16895,-1.26188 -1.21867,-0.53725 -1.49336,0.45323 -2.87139,1.14408 -2.87139,1.43952 0,0.26822 1.03669,0.7852 1.62322,0.80948 0.23792,0.01 0.61993,-0.26801 0.84891,-0.61747 z m 44.108818,-0.31376 c 0.808477,-1.30814 1.513983,-1.94027 2.829997,-2.53565 1.285941,-0.58177 1.461201,-0.83956 0.396875,-0.58375 -0.983166,0.2363 -2.657454,1.0785 -3.704167,1.86327 -0.630015,0.47235 -0.859896,0.8533 -0.859896,1.42499 0,1.07945 0.613577,1.00197 1.337191,-0.16886 z m 42.054474,17.18955 c 0,-0.1408 0.3169,-1.32241 0.70422,-2.62581 0.61855,-2.08149 0.70338,-2.82047 0.69728,-6.07397 -0.004,-2.35674 -0.16394,-4.47413 -0.4385,-5.82084 -0.23735,-1.16416 -0.52136,-2.94855 -0.63113,-3.9653 -0.1569,-1.4533 -0.2986,-1.86767 -0.6626,-1.93763 -0.31576,-0.0607 -0.46302,0.0786 -0.46302,0.43793 0,1.62797 -0.56747,1.70533 -3.21212,0.43792 -2.16892,-1.03943 -2.47918,-1.09337 -3.04338,-0.52917 -0.27646,0.27646 -0.97315,0.40037 -2.29621,0.4084 -2.80171,0.017 -4.167904,0.34705 -4.81958,1.16433 -0.585021,0.73368 -1.2718,0.71644 -1.561772,-0.0392 -0.351232,-0.91529 1.42146,-1.93038 3.371092,-1.93038 1.36564,0 1.58282,-0.15165 1.16813,-0.81567 -0.63004,-1.00886 0.0373,-1.16305 5.43723,-1.25623 2.7897,-0.0481 5.56865,-0.0131 6.17546,0.0779 l 1.10328,0.16545 0.18368,1.77416 c 0.10103,0.97579 0.43017,3.02431 0.73143,4.55228 0.65312,3.31264 0.82382,10.06571 0.26849,10.62228 -0.1819,0.18231 -0.33073,0.78865 -0.33073,1.34743 0,0.55878 -0.22654,1.4577 -0.50341,1.99761 -0.51805,1.01015 -1.87784,2.46458 -1.87784,2.00851 z"
       id="path8732" />
  </g>
</svg>
