<?xml version="1.0" encoding="UTF-8" standalone="no"?>
<!-- Created with Inkscape (http://www.inkscape.org/) -->

<svg
   width="57.284222mm"
   height="56.854031mm"
   viewBox="0 0 57.284222 56.854031"
   version="1.1"
   id="svg5"
   inkscape:version="1.1 (c4e8f9ed74, 2021-05-24)"
   sodipodi:docname="ornatec.svg"
   xmlns:inkscape="http://www.inkscape.org/namespaces/inkscape"
   xmlns:sodipodi="http://sodipodi.sourceforge.net/DTD/sodipodi-0.dtd"
   xmlns="http://www.w3.org/2000/svg"
   xmlns:svg="http://www.w3.org/2000/svg">
  <sodipodi:namedview
     id="namedview7"
     pagecolor="#ffffff"
     bordercolor="#666666"
     borderopacity="1.0"
     inkscape:pageshadow="2"
     inkscape:pageopacity="0.0"
     inkscape:pagecheckerboard="0"
     inkscape:document-units="mm"
     showgrid="false"
     inkscape:zoom="1.3380612"
     inkscape:cx="-10.089225"
     inkscape:cy="18.310075"
     inkscape:window-width="2506"
     inkscape:window-height="1403"
     inkscape:window-x="1974"
     inkscape:window-y="0"
     inkscape:window-maximized="1"
     inkscape:current-layer="layer1" />
  <defs
     id="defs2" />
  <g
     inkscape:label="Layer 1"
     inkscape:groupmode="layer"
     id="layer1"
     transform="translate(-181.8187,-100.2314)">
    <path
       style="fill:#000000;stroke-width:0.421204"
       d="m 236.3597,156.66467 c -0.15633,-0.25295 -1.20873,-0.33748 -2.5635,-0.20592 -1.64393,0.15966 -2.3435,0.0719 -2.45707,-0.308 -0.65369,-2.18699 -0.73997,-2.26963 -1.15119,-1.10254 -0.2852,0.80946 -0.76056,1.17089 -1.74107,1.32375 -1.90816,0.29748 -2.38402,-0.30752 -2.49666,-3.17431 -0.0681,-1.73569 -0.69975,-1.39484 -1.00995,0.54505 -0.21345,1.33484 -0.54967,1.84678 -1.55397,2.36611 -1.17424,0.60723 -1.32406,0.60464 -1.7888,-0.0309 -0.47003,-0.6428 -0.52668,-0.64294 -0.77262,-0.002 -0.21785,0.56771 -0.38016,0.59639 -0.90589,0.16007 -0.51592,-0.42817 -0.95939,-0.42629 -2.28031,0.01 -0.90192,0.29767 -1.98565,0.40721 -2.40828,0.24344 -0.7304,-0.28303 -0.72674,-0.32875 0.074,-0.92382 0.78902,-0.58638 0.79569,-0.65253 0.10523,-1.04386 -0.40541,-0.22975 -0.73711,-0.69266 -0.73711,-1.02864 0,-0.33599 -0.28732,-0.61088 -0.6385,-0.61088 -0.43873,0 -0.6106,0.36618 -0.54932,1.17037 0.0963,1.26361 -0.30645,2.19927 -0.94662,2.19927 -0.21996,0 -0.16614,-0.37437 0.11955,-0.83189 0.38683,-0.61942 0.3977,-0.95373 0.0427,-1.30885 -0.35512,-0.35511 -0.59829,-0.2502 -0.95199,0.4107 -0.60789,1.13584 -1.12639,1.12922 -1.42644,-0.0182 -0.22881,-0.87495 -0.2742,-0.88137 -1.33194,-0.18831 -0.62731,0.41102 -1.44669,0.60589 -1.91827,0.45623 -1.15412,-0.3663 -1.02713,-1.04691 0.19535,-1.04691 2.57778,0 3.14008,-1.09028 0.77155,-1.49604 -0.86873,-0.14885 -2.5746,-0.51852 -3.79084,-0.82151 -1.8106,-0.45108 -2.21132,-0.45183 -2.21132,-0.005 0,0.30072 0.32639,0.67201 0.72531,0.8251 0.5423,0.2081 0.59185,0.3608 0.19634,0.60524 -0.52859,0.32673 -0.26672,1.73383 0.32267,1.73383 0.17147,0 0.52782,-0.42647 0.79189,-0.94771 l 0.48012,-0.9477 -0.0998,1.01931 c -0.15044,1.5362 -2.47619,2.70033 -4.35714,2.18098 -1.069,-0.29517 -1.74808,-0.24695 -2.57672,0.18296 -0.99994,0.51877 -1.27309,0.49233 -2.45413,-0.2376 -1.27628,-0.78878 -1.35606,-0.79141 -2.01239,-0.0662 -0.52657,0.58188 -1.24154,0.73682 -3.11553,0.67523 -1.33765,-0.0439 -2.749,-0.21058 -3.13631,-0.37024 -0.3873,-0.15966 -1.08563,-0.0861 -1.55182,0.16334 -0.4662,0.2495 -1.41784,0.45364 -2.11475,0.45364 -1.10835,0 -1.23537,-0.11876 -1.01366,-0.94771 0.13946,-0.52123 0.2707,-1.78464 0.29173,-2.80758 0.021,-1.02291 0.25998,-1.93397 0.53098,-2.02455 0.27997,-0.0936 0.44,0.16387 0.3706,0.59625 -0.0672,0.41852 0.0559,1.10476 0.2736,1.52498 0.26449,0.51063 0.22924,0.96464 -0.10619,1.36892 -0.63116,0.76049 -0.44456,0.75697 1.43158,-0.0269 2.16977,-0.90658 2.91271,-0.71528 0.90739,0.23365 -1.93682,0.91652 -0.93849,1.11729 1.14402,0.23007 0.76076,-0.3241 2.18876,-0.89273 3.17332,-1.26361 0.98456,-0.37088 2.5009,-0.95213 3.36964,-1.29165 0.86873,-0.33954 2.67181,-0.92233 4.00685,-1.29508 1.33505,-0.37276 2.31704,-0.85622 2.18222,-1.07436 -0.13484,-0.21813 -0.4229,-0.28673 -0.64019,-0.15251 -0.88842,0.54906 -0.77663,-1.06126 0.22269,-3.20809 1.71029,-3.67417 1.31355,-8.04212 -0.9253,-10.18707 -1.17573,-1.12644 -2.65638,-1.30255 -2.9727,-0.35359 -0.1022,0.30666 0.12863,0.46367 0.56529,0.38439 0.40595,-0.0737 0.82113,0.10348 0.92262,0.39382 0.22056,0.63086 -1.61848,0.53709 -2.09142,-0.10666 -0.5788,-0.78783 -0.33509,0.64901 0.32739,1.9301 0.35736,0.69107 0.83122,1.14431 1.05301,1.00724 0.62,-0.38318 0.48063,-1.10093 -0.33383,-1.71919 -0.43901,-0.33326 -0.52687,-0.56497 -0.21726,-0.57295 0.28594,-0.008 1.10235,0.50784 1.81429,1.14492 1.11508,0.99782 1.29548,1.45009 1.30201,3.26433 0.0143,3.79804 -1.91378,6.57415 -6.01824,8.66808 -1.86904,0.95351 -5.54068,1.50022 -7.22918,1.07644 -0.79679,-0.19998 -0.99803,-0.4684 -0.83075,-1.10808 0.28568,-1.09243 0.96492,-1.09367 0.96492,-0.002 0,1.07199 0.68181,1.08712 1.24879,0.0277 0.59989,-1.12091 0.56748,-1.20956 -0.51169,-1.39955 -0.94396,-0.16618 -0.94355,-0.16859 0.10539,-0.60868 0.90913,-0.38148 1.09042,-0.31954 1.32693,0.45345 0.236,0.77137 0.27972,0.78646 0.3159,0.10905 0.0311,-0.58187 0.2696,-0.72671 0.91767,-0.55725 0.65412,0.17106 0.81465,0.0699 0.63446,-0.39961 -0.18481,-0.4816 -0.0202,-0.56822 0.70383,-0.37037 0.82466,0.22536 0.85007,0.19877 0.19946,-0.20873 -0.41009,-0.25687 -1.10812,-0.35195 -1.55117,-0.21134 -0.59216,0.18793 -1.06411,-0.11207 -1.78162,-1.13262 -0.76697,-1.09089 -1.22421,-1.35975 -2.13438,-1.25504 -1.30814,0.1506 -1.44454,-0.1178 -0.52651,-1.03585 0.34749,-0.34749 0.62578,-0.8552 0.61841,-1.12822 -0.008,-0.27303 -0.27776,-0.14757 -0.60086,0.27888 -0.70828,0.93473 -2.45427,0.57783 -2.25282,-0.46049 0.17352,-0.89432 1.18226,-1.19289 1.18226,-0.34989 0,1.57614 1.50158,0.26968 1.58772,-1.38143 0.0634,-1.21322 0.3097,-1.49994 0.94931,-1.10464 0.30265,0.18703 0.3881,0.8285 0.22571,1.69415 -0.31647,1.68687 0.28571,2.18736 1.59754,1.32782 0.66711,-0.4371 1.17171,-0.50277 1.67953,-0.21858 1.64441,0.92026 1.9097,0.19828 0.69972,-1.90416 l -1.17584,-2.04315 -1.09702,1.61442 c -0.60337,0.88793 -1.09703,1.40732 -1.09703,1.15421 0,-0.25312 0.46913,-1.15151 1.04251,-1.99642 0.88587,-1.3054 0.97064,-1.69397 0.5642,-2.58602 -0.97937,-2.14947 -2.94569,-0.85594 -3.95605,2.60247 l -0.59423,2.03402 0.17024,-1.80617 c 0.20326,-2.1564 1.17272,-3.77282 2.58476,-4.30967 1.23564,-0.46979 1.33279,-1.10268 0.22331,-1.45482 -1.50663,-0.47818 -2.98317,-1.95 -2.98317,-2.97361 0,-0.55332 0.42393,-1.40099 0.94206,-1.8837 0.80137,-0.74658 0.84854,-0.93769 0.31591,-1.2795 -0.87002,-0.55831 -1.71548,-0.33482 -2.26583,0.59899 -0.35185,0.59698 -0.33708,0.83829 0.0602,0.98281 0.59296,0.21572 0.71622,1.6392 0.17112,1.97609 -0.19546,0.12083 -0.57165,-0.48402 -0.83599,-1.34406 -0.30727,-0.99966 -0.331,-1.61435 -0.0658,-1.7041 0.22814,-0.0772 0.4148,-0.39312 0.4148,-0.70201 0,-0.30888 0.23691,-0.64448 0.5265,-0.74576 0.38965,-0.13627 0.34264,-0.39183 -0.18083,-0.98308 -0.51117,-0.57735 -0.59442,-1.00069 -0.30014,-1.52652 0.28644,-0.51183 0.21714,-1.01766 -0.23369,-1.7057 -0.56939,-0.86902 -0.57065,-1.07833 -0.0111,-1.877 0.37128,-0.53007 0.46428,-1.00111 0.22665,-1.14797 -0.49914,-0.30849 -0.44207,-3.62556 0.0742,-4.30727 0.2281,-0.30123 0.19944,-0.83374 -0.0721,-1.34122 -0.54676,-1.02164 -0.59565,-3.706 -0.0734,-4.02879 0.5277,-0.32613 0.83792,0.66901 0.59868,1.92046 -0.12417,0.64932 0.0537,1.26339 0.4646,1.6044 0.56094,0.46553 0.66567,0.44331 0.66567,-0.14137 0,-0.38159 0.47386,-0.87396 1.05302,-1.09415 1.29048,-0.49064 1.31509,-0.94323 0.13786,-2.5355 -0.72975,-0.98704 -1.03488,-1.13839 -1.50632,-0.74714 -0.81772,0.67865 -1.52653,-0.44313 -0.81881,-1.29589 0.2763,-0.33293 0.44849,-0.92343 0.38263,-1.31222 -0.0966,-0.56987 0.14837,-0.67319 1.26363,-0.53305 l 1.38341,0.17383 -1.47423,-0.77116 c -1.05448,-0.5516 -1.51223,-1.10162 -1.60772,-1.93185 -0.15298,-1.32959 0.83764,-1.96982 1.80523,-1.16679 0.33441,0.27752 0.78598,0.39459 1.00352,0.26015 0.50363,-0.31127 0.90499,0.7253 0.90499,2.33725 0,0.72876 0.17642,1.14498 0.4212,0.99371 0.23166,-0.14312 0.42122,-0.63489 0.42122,-1.0927 0,-0.4578 0.31649,-1.3154 0.70332,-1.90579 0.61243,-0.93467 0.92549,-1.04611 2.42194,-0.86206 6.04856,0.74385 13.68667,6.44201 13.71598,10.23233 0.003,0.49288 0.28343,1.12562 0.62137,1.40609 0.50519,0.41926 0.66085,0.32512 0.87531,-0.52934 0.17385,-0.69271 -0.10125,-1.75389 -0.82507,-3.18221 -0.59723,-1.1786 -1.07092,-2.57568 -1.05263,-3.10462 0.0183,-0.52895 0.12879,-0.72479 0.24571,-0.43521 0.11684,0.28959 0.3734,0.52651 0.57015,0.52651 0.53399,0 0.8953,-1.46061 0.57062,-2.30671 -0.25294,-0.65917 -0.34496,-0.63096 -0.83703,0.25657 -0.4567,0.82369 -0.55545,0.86329 -0.56779,0.22762 -0.008,-0.42322 0.53914,-1.32355 1.21629,-2.00072 0.692,-0.69199 0.9851,-1.23122 0.66926,-1.23122 -0.94782,0 -2.74288,2.50206 -2.74288,3.82316 0,1.42698 -0.41914,1.55473 -1.43132,0.43629 -0.39571,-0.43726 -1.64438,-1.23413 -2.77481,-1.77083 -1.13044,-0.53669 -1.97112,-1.11207 -1.86817,-1.27864 0.103,-0.16656 0.99338,0.14774 1.97876,0.69852 1.90175,1.0629 2.29358,0.99129 3.17702,-0.5806 0.72381,-1.28786 0.3417,-1.61282 -1.20849,-1.0277 -1.005,0.37935 -1.51977,0.33939 -2.60551,-0.20224 l -1.35305,-0.67501 1.21657,-0.32536 c 0.66913,-0.17895 1.38075,-0.22391 1.5814,-0.0998 0.20063,0.12402 2.15967,0.22178 4.35343,0.21729 2.19375,-0.005 3.98863,0.16434 3.98863,0.37521 0,0.21085 -0.3317,0.2631 -0.73711,0.11605 -0.46079,-0.16711 -0.34495,0.0587 0.30901,0.60224 1.0405,0.86486 1.04218,0.87785 0.30876,2.41582 -0.40555,0.85045 -0.56928,1.44239 -0.36385,1.31543 0.20542,-0.12704 0.62434,-0.85092 0.93094,-1.6088 0.30658,-0.75786 0.75774,-1.51719 1.00255,-1.68739 0.28935,-0.20117 0.25218,-0.31172 -0.10619,-0.31591 -0.30325,-0.003 -0.43422,-0.196 -0.29104,-0.42766 0.34897,-0.56463 1.89541,-0.53985 1.89541,0.0304 0,0.5518 4.63362,0.1377 5.23957,-0.46823 0.22252,-0.2225 0.69837,-0.3896 1.05744,-0.37132 0.43384,0.0221 0.47623,0.10459 0.1264,0.2457 -0.28958,0.11685 -0.52651,0.48098 -0.52651,0.80916 0,0.3282 -0.23693,0.59961 -0.5265,0.60316 -0.351,0.005 -0.31591,0.14264 0.10522,0.41475 0.3475,0.22458 0.43279,0.41122 0.18954,0.41477 -0.24325,0.003 -0.66972,-0.22101 -0.9477,-0.499 -0.39314,-0.39313 -0.50545,-0.24271 -0.50545,0.67687 0,0.9608 0.13802,1.12546 0.73711,0.87885 0.4054,-0.16688 1.07412,-0.4002 1.48602,-0.51847 0.48521,-0.13929 0.66682,-0.47371 0.51575,-0.94968 -0.167,-0.52615 0.0985,-0.86089 0.93591,-1.17952 2.14006,-0.81443 4.25002,-0.98555 5.16425,-0.41883 0.67032,0.41553 0.9473,0.42492 1.18696,0.0403 0.38584,-0.6193 13.56143,-0.7216 13.56143,-0.10523 0,0.21803 -0.47384,0.39643 -1.05299,0.39643 -1.18319,0 -1.29012,0.217 -0.52651,1.06848 0.28958,0.32292 0.76342,0.86999 1.053,1.21575 0.60765,0.72553 0.69923,4.79345 0.12831,5.69596 -0.23802,0.37619 -0.22062,0.91695 0.0455,1.41413 0.29908,0.55882 0.29008,0.94578 -0.0294,1.26525 -0.25312,0.25312 -0.46022,0.90212 -0.46022,1.44222 0,0.54008 -0.28432,1.09109 -0.63182,1.22443 -0.73696,0.2828 -0.83378,1.46669 -0.1739,2.12657 0.28935,0.28935 0.30693,0.55121 0.0478,0.71141 -0.2256,0.13945 -0.63505,-0.0175 -0.9099,-0.34864 -0.65415,-0.78819 -1.70175,-0.36604 -1.70175,0.68577 0,0.61634 0.2411,0.79239 0.94771,0.69205 0.87525,-0.12433 3.26583,1.71614 3.26344,2.51245 -4.3e-4,0.16576 -0.56018,1.36235 -1.24373,2.65909 -0.68357,1.29674 -1.33264,2.85296 -1.44239,3.45823 -0.18521,1.02129 -0.1108,1.08275 1.03313,0.85396 1.11233,-0.22246 1.23268,-0.13866 1.23268,0.85913 0,1.28883 -0.12529,1.34133 -1.03375,0.43295 -0.43085,-0.43085 -0.93386,-0.55564 -1.39899,-0.3471 -0.63709,0.28561 -0.61428,0.34541 0.18581,0.48674 1.3664,0.24137 1.53069,1.28759 0.3825,2.4358 -0.66141,0.66141 -0.93555,1.31179 -0.78904,1.87203 0.14264,0.54566 0.0143,0.87355 -0.35114,0.89983 -0.31659,0.0228 0.27731,0.26876 1.3198,0.54668 l 1.89541,0.50532 -0.12163,2.50073 c -0.0669,1.3754 -0.39162,2.91267 -0.7215,3.41615 -0.5206,0.79452 -0.51844,0.98293 0.0164,1.42682 1.64869,1.3683 -0.0678,3.64344 -2.36765,3.13829 -0.9216,-0.20241 -1.22821,-0.11541 -1.22821,0.34864 0,0.37338 0.58466,0.72808 1.47552,0.89522 1.184,0.22211 1.64995,0.61871 2.35841,2.00745 0.75581,1.48149 0.7938,1.78052 0.26388,2.07709 -0.54425,0.30457 -0.54354,0.57573 0.006,2.24464 0.34371,1.044 0.51463,2.18557 0.37986,2.53682 -0.27517,0.71707 -2.18402,0.87129 -2.59302,0.20952 z m -16.60552,-1.44952 c 0.23703,0.14646 0.715,0.0306 1.06215,-0.25752 0.47811,-0.39678 0.74948,-0.40558 1.11881,-0.0363 0.92585,0.92584 1.57118,0.4975 1.84675,-1.22578 0.18016,-1.12667 0.60822,-1.93237 1.25006,-2.35294 1.3173,-0.86311 1.85555,-0.41666 1.85555,1.53909 0,0.89931 0.18954,1.75225 0.4212,1.89543 0.25121,0.15521 0.4212,-0.35587 0.4212,-1.26645 0,-1.85931 0.57032,-3.07053 2.02205,-4.29437 1.97116,-1.66173 0.0497,-1.57405 -3.61977,0.16519 l -3.38578,1.60479 0.16214,2.10601 c 0.14917,1.9379 0.13452,1.97822 -0.18325,0.50509 -0.5604,-2.59749 -0.99656,-2.67706 -3.15818,-0.5762 -2.06717,2.00904 -2.61209,3.19501 -1.09499,2.38307 0.46811,-0.25053 1.04504,-0.33565 1.28206,-0.18916 z m 17.66343,0.38681 c 0,-0.12561 -1.20386,-0.76836 -2.67523,-1.42852 -2.69649,-1.20983 -3.22164,-1.79958 -3.22164,-3.61791 0,-1.58285 -0.65851,-1.57466 -2.06359,0.0256 -0.92314,1.05141 -1.30603,1.91542 -1.30603,2.94707 0,1.66237 0.44795,1.89053 1.05842,0.5391 0.74182,-1.64224 1.40463,-1.48441 2.91124,0.69319 0.49831,0.72026 0.71534,0.76011 1.69892,0.31196 0.92619,-0.422 1.28975,-0.40022 2.03528,0.12194 0.9275,0.64964 1.56263,0.81529 1.56263,0.40754 z m -44.64766,-0.83802 c 0,-0.35477 -0.29706,-0.75901 -0.66012,-0.89834 -0.79217,-0.30398 -1.65603,0.4414 -1.25799,1.08546 0.42909,0.69428 1.91811,0.54901 1.91811,-0.18712 z m 8.40728,-0.38775 c 0.73792,-0.88912 0.36271,-2.10566 -0.69611,-2.25711 -1.01479,-0.14518 -2.03651,1.26089 -1.64936,2.26979 0.29844,0.77772 1.69576,0.77018 2.34547,-0.0127 z m 36.66157,0.2227 c 0,-0.2139 -0.49036,-0.97169 -1.08972,-1.68396 -0.96698,-1.14921 -1.00923,-1.32595 -0.3751,-1.5693 0.64607,-0.24791 0.65014,-0.3103 0.0423,-0.65042 -0.74678,-0.41792 -4.05321,0.30613 -4.05321,0.88758 0,0.48782 0.83406,1.13492 2.9988,2.32665 2.06697,1.13791 2.47685,1.25199 2.47685,0.68945 z m -42.33102,-1.05025 c 0,-1.0397 -0.66866,-1.25142 -1.6609,-0.52587 -0.97219,0.71089 -0.49377,1.64024 0.75293,1.46258 0.56899,-0.081 0.90797,-0.43079 0.90797,-0.93671 z m 23.20388,-0.46388 1.61776,-1.4818 -1.4595,0.28082 c -0.80275,0.15442 -1.911,0.44702 -2.46282,0.65012 -0.97009,0.35704 -0.97838,0.39679 -0.25062,1.20097 0.41397,0.45743 0.79424,0.83168 0.84506,0.83168 0.0508,0 0.82036,-0.6668 1.71012,-1.48179 z m -20.85957,0.20337 c 1.04209,-0.5577 1.05799,-1.67 0.0239,-1.67 -0.94859,0 -1.91775,1.05061 -1.53719,1.66637 0.33805,0.54697 0.49734,0.54735 1.51331,0.003 z m 14.71445,-0.15075 c 0,-0.0911 -0.2843,-0.27465 -0.63179,-0.40799 -0.3475,-0.1334 -0.63182,-0.0589 -0.63182,0.16553 0,0.2244 0.28432,0.40799 0.63182,0.40799 0.34749,0 0.63179,-0.0745 0.63179,-0.16553 z m 7.58168,-2.76874 c 4.96158,-1.47995 7.58168,-2.80014 7.58168,-3.8202 0,-0.47797 0.26149,-1.38086 0.58108,-2.00643 0.3196,-0.62558 0.70597,-1.71801 0.8586,-2.42764 0.27024,-1.25637 0.21282,-1.22875 -2.18838,1.05302 -3.0124,2.86257 -5.98794,4.52406 -9.94144,5.55114 -4.96255,1.28923 -10.53643,0.82665 -15.00332,-1.2451 l -1.89541,-0.87909 -0.40178,0.87522 c -0.5163,1.12478 0.33159,1.77729 3.52129,2.70986 5.78118,1.69024 11.63549,1.75582 16.88768,0.18922 z m -29.1081,0.14709 c 0.34306,-0.29303 -1.24545,-0.6623 -1.85041,-0.43014 -1.13629,0.43603 -0.69796,1.14321 0.52651,0.84946 0.63707,-0.15283 1.23282,-0.34154 1.3239,-0.41932 z m 46.32379,-1.104 c -0.2155,-0.40267 -0.90759,-0.84043 -1.53797,-0.9728 -2.2863,-0.48005 -2.69488,-1.07541 -2.15414,-3.13892 0.20907,-0.7978 -2.55045,-1.10913 -3.81804,-0.43075 -1.21089,0.64806 -1.06929,1.52325 0.38552,2.38263 0.68518,0.40474 1.4467,1.22102 1.69229,1.81394 0.41313,0.99736 0.64777,1.07804 3.13536,1.07804 2.42328,0 2.65012,-0.0723 2.29698,-0.73214 z M 193.671,149.12215 c 0.87766,-0.71593 0.91074,-0.84369 0.28187,-1.08864 -1.18617,-0.462 -2.22815,-0.0417 -2.37053,0.95635 -0.16881,1.18325 0.73042,1.24021 2.08866,0.13229 z m 18.47434,-0.87371 c 0,-0.23166 -0.18953,-0.4212 -0.42119,-0.4212 -0.23167,0 -0.42122,0.18954 -0.42122,0.4212 0,0.23168 0.18955,0.42121 0.42122,0.42121 0.23166,0 0.42119,-0.18953 0.42119,-0.42121 z m -4.28805,-0.9147 c -0.074,-0.50311 -0.39791,-1.00155 -0.71972,-1.10767 -0.33587,-0.1108 -0.46751,-0.003 -0.30903,0.25381 0.15187,0.24571 0.0632,0.5783 -0.19694,0.73911 -0.33517,0.20714 -0.30648,0.39789 0.0984,0.65445 0.93363,0.59159 1.27003,0.43053 1.12726,-0.5397 z m 2.18203,-0.28952 c 0,-1.73833 -2.7068,-2.3722 -4.56676,-1.06944 -0.52985,0.37113 -1.06233,0.57581 -1.18328,0.45487 -0.4752,-0.47522 2.19108,-1.7423 3.66623,-1.7423 1.09199,0 1.50074,-0.16147 1.35699,-0.53607 -0.11319,-0.29485 -0.40436,-0.53608 -0.64713,-0.53608 -1.15371,0 1.27203,-1.68881 3.09791,-2.15676 1.13678,-0.29134 2.06688,-0.67322 2.06688,-0.84859 0,-0.17539 -0.99509,-0.0261 -2.21132,0.33173 -2.21922,0.65294 -9.45152,5.62205 -8.18264,5.62205 0.34983,0 0.71061,0.22364 0.80172,0.49699 0.10809,0.32428 0.44963,0.37422 0.98281,0.14375 0.44944,-0.19428 0.9734,-0.31845 1.16437,-0.27593 0.19096,0.0425 0.22633,-0.11828 0.0786,-0.35731 -0.50824,-0.82238 1.07411,-0.97369 1.73168,-0.1656 0.35354,0.43446 0.5047,0.52372 0.33589,0.19836 -0.20178,-0.38895 -0.14025,-0.48864 0.17936,-0.29106 0.26747,0.16531 0.4863,0.67962 0.4863,1.14296 0,0.46332 0.18954,0.72526 0.4212,0.58208 0.23166,-0.14311 0.4212,-0.59031 0.4212,-0.99362 z m 0.95348,0.67773 c 0.25293,-0.73467 -0.52297,-2.84313 -1.04626,-2.84313 -0.25412,0 -0.21681,0.25877 0.0907,0.62937 0.2873,0.34617 0.43156,1.10434 0.32059,1.68482 -0.20476,1.07116 0.30268,1.4939 0.6349,0.52894 z m 8.09746,-0.74067 1.68978,-0.79033 -1.68482,0.13277 c -0.92666,0.0731 -1.36688,0.0508 -0.9783,-0.0495 0.38858,-0.10029 0.93303,-0.4553 1.20989,-0.78888 0.69283,-0.83482 -0.11701,-1.74503 -2.54226,-2.85712 -1.04575,-0.47953 -2.04353,-0.94328 -2.21729,-1.03055 -0.17374,-0.0872 -0.31589,0.3182 -0.31589,0.90104 0,0.68981 0.29407,1.15307 0.8424,1.3271 1.358,0.43101 1.03203,1.47421 -0.46063,1.47421 -0.94881,0 -1.36294,0.22901 -1.52334,0.84242 -0.12115,0.46332 -0.41095,0.8424 -0.64395,0.8424 -0.23301,0 -0.17174,0.30353 0.13611,0.67452 0.70116,0.84485 3.96043,0.50422 6.48827,-0.67807 z m -4.10178,-0.69661 c 0.28957,-0.11685 0.76344,-0.11685 1.05301,0 0.28958,0.11685 0.0527,0.21246 -0.52651,0.21246 -0.57916,0 -0.81608,-0.0957 -0.5265,-0.21246 z m -20.11252,0.7844 c 0,-1.5743 -2.17069,-2.46329 -2.69276,-1.10279 -0.41013,1.0688 -0.29782,1.54607 0.30903,1.31319 0.31059,-0.11924 0.83183,-0.0476 1.15833,0.15903 0.8959,0.56715 1.2254,0.4678 1.2254,-0.36949 z m -3.44834,-1.45315 c 0.10427,-0.54744 -0.13835,-0.7371 -0.94341,-0.7371 -0.81524,0 -1.0839,0.21606 -1.0839,0.8717 0,0.66206 0.22689,0.83933 0.94341,0.73711 0.51888,-0.074 1.00662,-0.4663 1.0839,-0.87171 z m 6.02591,-0.0476 c 0.3887,-0.85314 0.25208,-1.25966 -0.95675,-2.84678 -3.56448,-4.67993 -5.58131,-11.89208 -4.68035,-16.73681 1.01771,-5.4724 3.97767,-10.06485 8.84585,-13.72453 2.76102,-2.07561 2.98657,-2.35364 2.39183,-2.94836 -0.89994,-0.89995 -1.32952,-0.83439 -3.75549,0.5732 -5.53555,3.21178 -9.01919,8.01832 -10.55653,14.56532 -1.22348,5.21032 -0.0938,11.74602 2.82132,16.32088 1.56795,2.46076 4.47834,5.79234 5.06005,5.79234 0.20712,0 0.58065,-0.44786 0.83007,-0.99526 z m 16.37134,-1.11077 c 0.32342,0 0.31984,-0.25466 -0.0127,-0.87532 -0.25766,-0.48142 -0.35695,-1.1659 -0.22066,-1.52106 0.26238,-0.68376 -0.57314,-0.6022 -2.90218,0.2833 -1.29214,0.49126 -1.3272,0.83213 -0.22918,2.22802 0.46332,0.58902 0.8424,1.30566 0.8424,1.59253 0,0.28687 0.4648,0.0201 1.0329,-0.59294 0.56809,-0.61298 1.23816,-1.11453 1.48904,-1.11453 z m -11.15661,1.29635 c 0.81558,-0.31881 0.81223,-0.33888 -0.10523,-0.63059 -0.52124,-0.16572 -0.94771,-0.47808 -0.94771,-0.69414 0,-0.21605 -0.18955,-0.39282 -0.42121,-0.39282 -0.47055,0 -0.57734,1.38828 -0.14041,1.82523 0.33488,0.33488 0.51272,0.32302 1.61462,-0.10762 z m 19.75412,-0.16019 c 0.68224,-0.49887 0.68955,-0.59913 0.0805,-1.10459 -0.74652,-0.61955 -0.98502,-4.48811 -0.24863,-4.03301 0.23166,0.14312 0.4212,-0.0368 0.4212,-0.39991 0,-0.55136 -0.13675,-0.57481 -0.82948,-0.14216 -0.45622,0.28491 -0.90808,0.80776 -1.00415,1.16189 -0.11208,0.41298 -0.19218,0.33045 -0.22353,-0.23017 -0.0406,-0.7263 -0.31532,-0.86866 -1.62554,-0.8424 -0.93121,0.0186 -1.89396,0.34773 -2.35171,0.80381 -0.90632,0.90299 -0.93974,0.85009 1.0602,1.6788 1.35511,0.56149 1.61942,0.56586 2.06076,0.0341 0.71303,-0.85916 0.97109,-0.41889 0.39042,0.66613 -0.38614,0.7215 -0.34811,1.11605 0.18618,1.93148 0.76941,1.17426 1.04338,1.23685 2.08377,0.47611 z m -33.56136,-0.80186 c 0.8779,-0.82475 1.13857,-0.87297 2.31601,-0.42854 1.52109,0.57415 1.72136,0.49787 1.33514,-0.5086 -0.18206,-0.47446 -0.58412,-0.65394 -1.16823,-0.52151 -0.48984,0.11112 -1.26971,0.0573 -1.73303,-0.11923 -1.62731,-0.62039 -3.55609,1.12734 -2.45702,2.22639 0.43223,0.43223 0.64124,0.35284 1.70713,-0.64851 z m 48.55659,0.25245 c 0,-0.0911 -0.61601,-0.15219 -1.36893,-0.13595 -1.11473,0.024 -1.21249,0.0915 -0.52649,0.3629 0.77162,0.3053 1.89542,0.17074 1.89542,-0.22698 z m -29.09404,-3.13238 c 1.02548,-0.6792 2.54181,-1.35548 3.36964,-1.50283 0.86112,-0.15331 1.99061,-0.78625 2.63972,-1.47934 1.32737,-1.41733 0.76297,-1.55122 -1.55577,-0.36905 -2.11596,1.07877 -2.58527,1.06061 -5.06771,-0.19616 -2.40069,-1.21537 -2.88778,-1.07385 -1.31637,0.38247 0.61546,0.5704 1.11901,1.19944 1.11901,1.39789 0,0.67292 -1.04908,1.7136 -1.89541,1.88021 -0.46332,0.0912 -0.79246,0.3992 -0.73142,0.68441 0.0611,0.2852 -0.10587,0.92383 -0.37101,1.41917 -0.47918,0.89536 -0.47489,0.8951 0.73143,-0.0406 0.66737,-0.51768 2.05242,-1.49694 3.07789,-2.17617 z m -4.25284,1.80853 c 0.63148,-1.22783 0.19032,-1.76553 -0.99691,-1.21506 -1.25021,0.57968 -1.3977,1.95216 -0.20979,1.95216 0.45517,0 0.99819,-0.3317 1.2067,-0.7371 z m 20.0916,-0.63624 c -0.40442,-0.5774 -0.56161,-1.50523 -0.44129,-2.60488 l 0.18688,-1.70803 -0.43944,1.68481 c -0.47612,1.82555 0.10364,4.278 0.89552,3.78855 0.27105,-0.16752 0.19755,-0.5905 -0.20167,-1.16045 z m 8.73822,0.77724 c 2.22133,0.45935 4.51706,0.69122 4.51706,0.45622 0,-0.13993 -0.52097,-0.52737 -1.15772,-0.86099 l -1.1577,-0.60659 1.1577,-0.52749 c 1.69486,-0.77222 1.41485,-1.16018 -0.6679,-0.92542 -1.23162,0.13882 -2.27222,-0.0251 -3.19818,-0.50401 -1.5585,-0.80593 -1.44578,-0.85179 -2.03106,0.82656 -0.24237,0.695 -0.57191,1.58698 -0.7323,1.9822 -0.25492,0.62809 -0.1264,0.67119 1.02081,0.34219 0.72186,-0.20703 1.73402,-0.28922 2.24929,-0.18267 z m -30.26674,-1.76558 c 1.12159,-0.4304 0.8248,-1.85036 -0.38677,-1.85036 -0.8424,0 -1.05301,0.2106 -1.05301,1.05302 0,1.08302 0.28459,1.24062 1.43978,0.79734 z m 24.59889,-0.43597 c 0.49919,-0.89202 0.14232,-2.2568 -0.5901,-2.2568 -0.31233,0 -0.80848,-0.42647 -1.10253,-0.9477 -0.51152,-0.90669 -0.54481,-0.87478 -0.76925,0.7371 -0.3451,2.47874 1.44916,4.27704 2.46188,2.4674 z m -28.99355,-0.67728 c -0.003,-0.28958 -0.1694,-0.78367 -0.36855,-1.09797 -0.46276,-0.73034 -1.07229,0.11701 -0.72856,1.01285 0.28726,0.74857 1.10601,0.8121 1.09711,0.0852 z m 7.99401,-0.0869 c 0.5714,-0.68849 0.25367,-1.49266 -0.58977,-1.49266 -0.75735,0 -1.63625,1.12509 -1.30172,1.66637 0.38735,0.62677 1.29645,0.54329 1.89149,-0.17371 z m 31.00922,-1.29712 c 0.75081,-1.58221 0.57087,-2.31187 -0.37628,-1.52579 -0.31452,0.26101 -1.58036,0.61973 -2.81299,0.79712 -1.23264,0.17739 -2.23802,0.51208 -2.2342,0.74374 0.0112,0.65095 1.86924,1.46111 3.3676,1.46801 1.13308,0.005 1.46236,-0.23233 2.05587,-1.48308 z m -20.72704,0.31086 c 0.37092,-0.60018 -0.47549,-1.47872 -1.16845,-1.2128 -0.95176,0.36523 -0.8423,1.54881 0.14328,1.54881 0.44966,0 0.91101,-0.15123 1.02521,-0.33601 z m 12.99336,-1.0291 c 0.98526,-1.17916 1.1518,-1.25394 1.18121,-0.5303 0.0197,0.48494 0.33829,0.038 0.75077,-1.05301 0.51874,-1.3722 1.09127,-2.06983 2.074,-2.52723 1.4651,-0.68191 1.85582,-1.3103 0.61255,-0.98518 -0.41974,0.10984 -1.74037,-0.17176 -2.93475,-0.62557 -1.86642,-0.70919 -2.24165,-0.74076 -2.66998,-0.22464 -0.38573,0.46478 -0.37193,0.83676 0.0611,1.6459 0.47799,0.89312 0.45656,1.26126 -0.14709,2.52716 -0.73662,1.54471 -0.93442,3.13524 -0.3907,3.14177 0.17375,0.002 0.83205,-0.61392 1.46289,-1.3689 z m -25.16468,0.26098 c 0.9024,-0.90241 0.64968,-2.02227 -0.49326,-2.18575 -1.18781,-0.16991 -2.117,1.36465 -1.37077,2.26379 0.64582,0.77819 1.02363,0.76237 1.86403,-0.078 z m 13.93901,-1.32267 c -0.14026,-0.1401 -0.48705,-0.0226 -0.77083,0.26111 -0.40714,0.40714 -0.38347,0.59875 0.11239,0.90853 0.44758,0.27965 0.66928,0.20456 0.77081,-0.26112 0.0785,-0.35952 0.0279,-0.76835 -0.11223,-0.90852 z m 3.02351,1.16894 c 0.76847,-0.008 0.64361,-0.71309 -0.1825,-1.03011 -0.44532,-0.17088 -1.03275,0.0675 -1.57952,0.64079 l -0.87051,0.91286 1.05301,-0.2589 c 0.57916,-0.14232 1.28995,-0.26148 1.57952,-0.26464 z m 6.42707,-1.91442 c 0.40934,-1.46202 0.42028,-2.12736 0.0466,-2.84314 -0.46451,-0.89001 -0.47981,-0.87791 -0.32163,0.25429 0.1291,0.9246 -0.0411,1.26752 -0.76663,1.54333 -0.92498,0.35168 -1.13829,1.39718 -0.49683,2.43508 0.5754,0.93103 0.99475,0.55225 1.53842,-1.38956 z m -15.20023,0.89407 c 0.36574,-0.32638 2.18144,-0.77463 4.0349,-0.99613 3.29186,-0.39339 7.792,-1.93794 7.792,-2.67439 0,-0.20313 0.20459,-0.36933 0.45466,-0.36933 0.29233,0 0.34996,0.48881 0.16141,1.36892 -0.39774,1.85644 0.10331,1.27572 1.04916,-1.21608 0.42763,-1.12655 0.99296,-2.04826 1.25632,-2.04826 0.68277,0 1.25589,-1.07428 0.97025,-1.81866 -0.19376,-0.50489 -0.41811,-0.42158 -1.11935,0.4156 -1.28108,1.52943 -3.61514,3.06627 -3.61374,2.37944 4.3e-4,-0.30535 0.71141,-0.93457 1.57952,-1.39826 0.95298,-0.50903 1.60181,-1.1766 1.63752,-1.68481 0.0325,-0.46296 0.45482,-1.69468 0.93845,-2.73716 0.48364,-1.04249 0.8763,-2.2745 0.87259,-2.73782 -0.003,-0.46334 -0.58218,0.62653 -1.28547,2.42191 -0.7033,1.79539 -1.42526,3.26434 -1.60438,3.26434 -0.17911,0 -0.76273,0.37909 -1.29694,0.84241 -0.60417,0.52398 -1.57588,0.8424 -2.57075,0.8424 -1.07892,0 -1.73917,0.23989 -2.02877,0.73711 -0.3385,0.58119 -0.4334,0.60346 -0.44858,0.10522 -0.0164,-0.53895 -0.0751,-0.54354 -0.39938,-0.0312 -0.20905,0.33033 -0.78633,0.6626 -1.28281,0.73838 -0.52378,0.0799 -0.79309,-0.0396 -0.64157,-0.28472 0.15585,-0.25226 -0.34285,-0.42247 -1.23799,-0.42247 -0.82448,0 -1.49906,0.16925 -1.49906,0.37614 0,0.55308 1.15724,0.90185 1.96452,0.59207 0.38549,-0.14789 0.5935,-0.0946 0.46224,0.1186 -0.13134,0.21311 0.29983,0.42632 0.95797,0.4738 0.79924,0.0576 1.52,-0.25467 2.1703,-0.94044 1.14668,-1.20923 2.57899,-1.4015 2.37037,-0.31821 -0.0887,0.46015 -0.98047,0.98684 -2.45282,1.44847 -2.63796,0.82713 -4.57938,0.95207 -5.97927,0.38482 -0.53214,-0.21563 -1.48529,-0.50269 -2.11812,-0.63789 -0.63282,-0.13516 -1.8118,-0.8264 -2.61997,-1.53598 -1.33284,-1.17023 -2.3369,-1.33779 -2.3369,-0.38997 0,0.20022 0.50032,0.95864 1.11184,1.68537 0.79868,0.94919 0.98324,1.44995 0.65523,1.77794 -1.36881,1.36883 -7.13115,-3.74768 -9.34983,-8.30191 -0.73298,-1.50458 -1.48441,-2.73561 -1.66984,-2.73561 -0.83198,0 -4e-4,2.59117 1.56341,4.87165 4.34119,6.33066 11.15712,10.57259 13.55288,8.43469 z m -3.12586,-1.51263 c -0.14312,-0.23166 -0.0595,-0.4212 0.18575,-0.4212 0.24532,0 0.45208,-0.3317 0.45945,-0.7371 0.0127,-0.67421 0.0651,-0.66888 0.61864,0.0626 0.46389,0.61284 0.73873,0.68884 1.17672,0.32532 0.38845,-0.32239 1.16835,-0.35719 2.4351,-0.10873 1.29451,0.25398 1.54204,0.39397 0.81059,0.45841 -0.57915,0.051 -1.47948,0.0583 -2.00072,0.0161 -0.52124,-0.0422 -0.94771,0.1264 -0.94771,0.37457 0,0.57027 -2.38777,0.59657 -2.73782,0.0301 z m 14.39177,1.44156 c 0.33799,-0.88078 -0.78612,-1.96592 -1.68087,-1.62258 -0.82874,0.31803 -0.91354,1.06919 -0.20114,1.7816 0.70436,0.70435 1.57906,0.63043 1.88201,-0.15903 z m 10.83443,0.24325 c 0.7476,0 1.72719,-0.2807 2.17687,-0.62379 0.70823,-0.54035 0.7331,-0.681 0.18582,-1.0514 -0.3475,-0.23518 -0.91613,-0.40651 -1.26362,-0.38072 -1.36957,0.10173 -1.65418,-0.0611 -1.37664,-0.7872 0.26322,-0.6886 0.21436,-0.6925 -0.7425,-0.0591 -1.16988,0.77437 -2.01514,3.54537 -0.95772,3.1396 0.3402,-0.13054 1.2302,-0.23736 1.97779,-0.23736 z m -32.66551,-1.6388 c 0.11239,-0.79467 -0.006,-0.95008 -0.56096,-0.73711 -0.38683,0.14837 -0.87735,0.2699 -1.09007,0.2699 -0.21272,0 -0.38677,0.39226 -0.38677,0.87171 0,1.30503 1.84796,0.93823 2.0378,-0.4045 z m -1.06239,-1.36668 c 1.35689,-0.70536 1.35628,-0.70146 0.28665,-1.84002 -1.13402,-1.2071 -1.96213,-1.29811 -4.01341,-0.44104 -1.55068,0.64793 -1.95288,1.48676 -0.72358,1.50911 0.40541,0.008 1.10504,0.29168 1.55472,0.6318 0.98246,0.74309 1.6716,0.77644 2.89562,0.14009 z m 6.59783,-0.58493 c -0.29304,-0.35309 -0.61954,-0.55524 -0.72556,-0.44923 -0.29211,0.29211 0.30139,1.09122 0.81045,1.09122 0.27929,0 0.24734,-0.24168 -0.0848,-0.64199 z m 7.80074,-0.26558 c -1.26887,-0.69403 -1.89543,-1.65497 -1.89543,-2.90697 0,-0.61947 -0.40076,-1.6358 -0.89059,-2.25849 -0.65119,-0.82787 -0.82242,-1.47304 -0.63699,-2.40017 0.23228,-1.1614 0.17437,-1.24362 -0.68893,-0.97831 -1.2881,0.39587 -1.29227,0.40519 -0.68023,1.51785 0.29765,0.54109 0.56077,1.17333 0.58471,1.40499 0.10698,1.03525 0.78542,1.92484 1.31336,1.72224 0.41676,-0.15991 0.57747,0.16261 0.57747,1.15891 0,1.45615 0.63272,2.558 1.68481,2.93401 1.11653,0.39903 1.50053,0.28109 0.63182,-0.19406 z m -20.84963,-1.27489 c 0,-0.70885 -0.11191,-0.77627 -0.60677,-0.36554 -0.33372,0.27697 -0.50341,0.77294 -0.37707,1.10216 0.31632,0.82432 0.98384,0.32455 0.98384,-0.73662 z m 11.79372,0.33861 c 0,-0.55078 -0.29383,-1.24529 -0.65294,-1.54333 -0.53869,-0.44707 -0.77219,-0.42265 -1.33436,0.13945 -0.62776,0.62776 -0.60122,0.74819 0.33703,1.52931 1.33318,1.10991 1.65027,1.08579 1.65027,-0.12545 z m 6.73928,0.23064 c 0,-0.19227 -0.93577,-1.29524 -2.07949,-2.45103 -2.02797,-2.04939 -2.08586,-2.07602 -2.33708,-1.0751 -0.30211,1.20373 0.48163,2.22754 2.44731,3.19695 1.52566,0.75242 1.96926,0.82657 1.96926,0.32918 z m -14.92924,-1.75643 c 1.44659,0 1.4544,-0.39121 0.0476,-2.38901 l -1.33478,-1.89564 -0.23792,1.40522 c -0.13086,0.77288 -0.46256,1.81924 -0.73711,2.32524 -0.7902,1.45635 -0.61351,1.94564 0.43693,1.20988 0.51488,-0.36062 1.33622,-0.65569 1.82522,-0.65569 z m 37.32521,0.56653 c 1.15945,-1.04929 0.97626,-1.90721 -0.38804,-1.81725 -2.21304,0.14598 -2.45575,0.0293 -2.43854,-1.1712 0.0127,-0.88304 -0.18359,-1.1583 -0.8258,-1.1583 -0.65741,0 -0.82499,0.25436 -0.76311,1.1583 0.0436,0.63707 -0.0986,1.15831 -0.31591,1.15831 -0.21735,0 -0.40278,-0.42647 -0.41206,-0.94771 -0.0159,-0.88368 -0.0603,-0.86753 -0.66001,0.23876 -0.8832,1.62932 -0.18772,2.39377 2.17781,2.39377 1.00043,0 1.93613,0.18954 2.0793,0.4212 0.36046,0.58325 0.6551,0.53068 1.54636,-0.27588 z m -48.58926,-1.51424 c -0.10029,-1.04066 -0.3326,-1.3689 -0.96862,-1.3689 -0.86586,0 -1.30991,1.05468 -0.89703,2.13062 0.12815,0.33396 0.63004,0.6072 1.11532,0.6072 0.74171,0 0.86128,-0.21816 0.75033,-1.36892 z m 7.66029,-0.55543 c 0,-0.62712 -1.19711,-1.65218 -1.53496,-1.31435 -0.13802,0.13802 -0.11637,0.96821 0.0481,1.84482 0.28048,1.49512 0.33579,1.54353 0.89297,0.78156 0.32667,-0.44677 0.59396,-1.03718 0.59396,-1.31203 z m 25.03653,0.92653 c 0.50289,-0.3295 1.46451,-0.4844 2.27178,-0.36591 1.19298,0.17509 1.61129,-0.0188 2.83148,-1.31244 2.38291,-2.52633 3.76871,-6.80394 2.53574,-7.82723 -0.36519,-0.30308 -0.664,-1.16496 -0.664,-1.9153 0,-1.21436 -0.11144,-1.34292 -1.01481,-1.17023 -1.08746,0.20788 -1.76337,1.71272 -1.07742,2.3987 0.68674,0.68672 0.45357,2.7852 -0.435,3.91482 -0.46332,0.58902 -0.8424,1.32971 -0.8424,1.64595 0,0.31626 0.37908,0.57501 0.8424,0.57501 0.49325,0 0.84242,0.28081 0.84242,0.67747 0,0.50725 -0.25738,0.61287 -1.02436,0.42036 -0.77536,-0.1946 -1.0865,-0.0613 -1.27993,0.54811 -0.14057,0.44286 -0.56182,1.05925 -0.93615,1.36975 -0.61575,0.51078 -0.61419,0.43614 0.0162,-0.78345 0.38329,-0.74141 0.68713,-1.59434 0.67519,-1.89543 -0.0111,-0.30107 -0.31653,0.16337 -0.67685,1.0321 -0.98115,2.36548 -1.38312,1.90281 -0.54891,-0.6318 0.70218,-2.13346 1.49071,-6.21728 0.95933,-4.96839 -0.14327,0.3369 -0.4282,0.81076 -0.63299,1.05301 -2.08412,2.4653 -2.35097,3.17356 -1.79633,4.76771 0.32395,0.93107 0.39213,1.72827 0.16762,1.95968 -0.20817,0.21455 -1.47286,0.64127 -2.81045,0.94828 l -2.43198,0.5582 2.07866,-0.2138 c 1.14326,-0.11764 2.47106,-0.47091 2.95065,-0.78517 z m -15.6497,-0.68043 c 0.1221,-0.46694 0.0734,-0.84897 -0.10825,-0.84897 -0.58183,0 -1.35796,1.21106 -1.07231,1.67324 0.36858,0.59637 0.90736,0.22018 1.18049,-0.82427 z m 7.47473,-0.0893 c -1.03348,-1.1093 -1.69265,-3.29607 -1.69585,-5.6259 -0.003,-2.30787 1.9089,-4.90543 4.31897,-5.86733 0.98238,-0.39209 2.07045,-1.02796 2.41794,-1.41305 0.78727,-0.87246 1.03563,-2.1744 0.41482,-2.1744 -0.25549,0 -0.33485,0.20982 -0.17637,0.46625 0.19971,0.32313 -0.14822,0.38714 -1.13346,0.20853 -1.21829,-0.22087 -1.27918,-0.19659 -0.42581,0.16976 0.82297,0.35331 0.90539,0.53641 0.47492,1.05509 -0.7337,0.88406 -2.3718,0.77953 -3.36614,-0.21481 -1.41527,-1.41527 -1.08459,-2.03017 1.05342,-1.95875 1.80304,0.0602 2.54098,-0.54074 1.47381,-1.20029 -0.23166,-0.14311 -0.4212,-0.72298 -0.4212,-1.28846 0,-2.3346 -2.67814,-0.15945 -3.19484,2.5948 -0.14773,0.78732 -0.50857,1.43149 -0.8019,1.43149 -1.00043,0 -1.64428,1.33595 -1.78216,3.6979 -0.0758,1.29752 -0.0493,2.27076 0.0586,2.16276 0.85027,-0.85024 2.35063,-3.52757 2.35063,-4.19454 0,-1.0167 -0.32495,-1.03684 -1.39729,-0.0866 -0.60473,0.53588 -0.77942,0.57285 -0.6399,0.13547 0.48499,-1.52063 2.87961,-1.66303 2.87961,-0.17124 0,0.40022 -0.49131,1.43662 -1.0918,2.30312 -1.27623,1.84164 -1.97752,4.54369 -1.60112,6.16922 0.35372,1.52756 2.19936,4.72615 2.72708,4.72615 0.23091,0 0.032,-0.41628 -0.44199,-0.92509 z m 6.14674,0.50389 c 0.38458,0 0.57915,-0.51151 0.57915,-1.52266 0,-1.52156 -7.6e-4,-1.52218 -1.03819,-0.84241 -0.571,0.37414 -1.32252,0.68024 -1.67001,0.68024 -0.72601,0 -1.62196,1.42631 -1.17605,1.87222 0.16398,0.16398 0.84442,0.18891 1.51205,0.0554 0.66763,-0.13357 1.4745,-0.24278 1.79305,-0.24278 z m -10.34448,-0.43604 c 1.08716,-0.58183 1.16018,-2.74475 0.0777,-2.29907 -0.40542,0.1669 -1.0688,0.39882 -1.47422,0.5154 -0.85512,0.24586 -0.95572,0.99021 -0.23167,1.71426 0.61283,0.61282 0.61292,0.61282 1.62827,0.0694 z m -10.97901,-1.93217 c 0,-0.64719 -1.0817,-0.79411 -1.45071,-0.19703 -0.13022,0.21075 -0.11924,0.68944 0.0244,1.06375 0.20221,0.52696 0.39267,0.57144 0.84378,0.19704 0.32043,-0.26594 0.58261,-0.74462 0.58261,-1.06376 z m 7.33663,0.84893 c 0.89643,-0.34399 0.84816,-0.9288 -0.0707,-0.85585 -0.45988,0.0365 -0.78606,-0.28625 -0.86769,-0.85862 -0.072,-0.50441 -0.40372,-1.14365 -0.73732,-1.42049 -0.33357,-0.27685 -0.60652,-0.78475 -0.60652,-1.12866 0,-0.40442 -0.24202,-0.53243 -0.68519,-0.36236 -0.37685,0.14455 -0.94547,0.047 -1.26361,-0.21711 -0.86655,-0.71918 -0.74297,0.17244 0.31497,2.2724 1.45727,2.89264 2.0548,3.2849 3.91601,2.57069 z m 25.43383,-1.20352 c 0.70016,-1.53668 -0.17852,-1.75526 -0.9624,-0.23941 -0.53657,1.0376 -0.55263,1.27738 -0.0855,1.27738 0.31626,0 0.78783,-0.46708 1.04795,-1.03797 z m 0.66541,0.3843 c 0.14391,-0.37484 0.0732,-0.54393 -0.16554,-0.39635 -0.22901,0.14152 -0.41639,0.43568 -0.41639,0.65369 0,0.60586 0.30192,0.47236 0.58193,-0.25734 z m -42.70236,-0.63479 c 0,-0.477 -0.18126,-0.75524 -0.40281,-0.61832 -0.22153,0.13691 -0.29604,0.52719 -0.16553,0.86727 0.3341,0.87067 0.56834,0.76807 0.56834,-0.24895 z m 26.13144,0.25566 c -0.30325,-0.3654 -0.3839,-1.00122 -0.20036,-1.57952 0.16897,-0.53235 0.27939,-1.0153 0.2454,-1.07321 -0.0339,-0.058 0.2699,-0.40008 0.67531,-0.76035 0.68667,-0.61023 0.67416,-0.62464 -0.18292,-0.2106 -1.44799,0.6995 -1.70471,0.50417 -0.55419,-0.42168 l 1.05301,-0.84738 -1.52304,0.75145 -1.52303,0.75145 1.08644,0.44608 c 0.73432,0.3015 0.92079,0.54846 0.57532,0.76196 -0.65484,0.40472 -0.65788,1.63575 -0.006,2.28796 0.7088,0.7088 0.96603,0.6316 0.35373,-0.10619 z m 2.57574,0.23966 c -0.41858,-0.26529 -0.28108,-0.43069 0.5265,-0.63339 0.60805,-0.15267 1.09304,-0.574 1.09304,-0.94968 0,-0.55257 0.11494,-0.58002 0.63181,-0.15108 0.99071,0.82223 0.73892,0.22453 -0.28302,-0.67182 -0.50313,-0.44132 -0.78313,-0.57657 -0.6222,-0.30058 0.20037,0.34364 -0.0704,0.47641 -0.85881,0.42122 -0.81207,-0.0568 -1.19778,0.14391 -1.30882,0.68108 -0.2138,1.03441 0.19239,1.97751 0.8483,1.96968 0.4185,-0.005 0.41248,-0.0871 -0.0267,-0.3655 z m 3.17088,-0.54945 c -0.13452,-0.336 -0.23427,-0.2362 -0.25447,0.25449 -0.0183,0.44401 0.0812,0.69279 0.22121,0.55282 0.13994,-0.13993 0.1549,-0.50325 0.0333,-0.80731 z m -24.06346,-0.78808 c 0.58753,-0.64922 0.67574,-1.03977 0.35109,-1.55445 -0.71674,-1.13627 -1.39559,-1.08404 -1.86222,0.14328 -0.79843,2.10002 0.11542,2.95341 1.51113,1.41115 z m 12.19494,0.44208 c 0.43895,-0.71023 -0.22286,-2.10225 -0.99948,-2.10225 -0.84843,0 -1.74067,0.78302 -1.74067,1.52758 0,0.80825 2.29793,1.29019 2.74015,0.57467 z m 1.59291,-1.15453 c -0.13596,-0.86874 -0.50314,-1.95339 -0.81593,-2.41034 -1.19648,-1.74795 -0.3483,-6.17349 1.42456,-7.43291 0.45025,-0.31986 0.92754,-1.26358 1.06066,-2.09718 l 0.24201,-1.51562 -1.63395,1.46684 c -0.89868,0.80676 -1.81407,2.05741 -2.03419,2.77922 -0.506,1.65933 -0.29782,7.24434 0.29674,7.96075 0.24637,0.29686 0.64376,1.05477 0.88309,1.68424 0.61321,1.61287 0.86752,1.42116 0.57701,-0.435 z m 26.98838,0.52651 c 0.33487,-0.87269 -0.11971,-1.89543 -0.84241,-1.89543 -0.32998,0 -0.70907,0.28431 -0.84242,0.63182 -0.33488,0.87267 0.11972,1.89541 0.84242,1.89541 0.32998,0 0.70905,-0.28431 0.84241,-0.6318 z m -39.13344,-1.61962 c -0.33252,-1.5801 -0.79332,-2.15866 -1.41385,-1.77516 -0.29784,0.1841 -0.14853,0.6936 0.43411,1.48173 0.51855,0.70135 0.75271,1.42015 0.56277,1.72747 -0.21596,0.34945 -0.15362,0.42022 0.18565,0.21056 0.33048,-0.20425 0.41218,-0.78515 0.23132,-1.6446 z m 20.62999,-0.29173 c 0.91085,0.46507 1.68448,0.80107 1.71919,0.74666 0.0347,-0.0545 0.37933,-0.56758 0.76584,-1.14036 0.95319,-1.41259 0.90614,-1.55042 -0.63456,-1.85856 -1.01386,-0.20277 -1.55623,-0.0618 -2.24257,0.58302 -0.49789,0.46775 -1.01939,0.73634 -1.15887,0.59685 -0.30343,-0.30342 -1.59267,2.07629 -1.54808,2.85751 0.0172,0.30109 0.34887,-0.16765 0.7371,-1.04164 l 0.70588,-1.58906 z m 14.31806,1.7519 c 0.12577,-0.20352 -0.0705,-0.96996 -0.43635,-1.70318 -0.53539,-1.07324 -0.78044,-1.23738 -1.25686,-0.842 -0.32548,0.27013 -0.5918,0.80911 -0.5918,1.19773 0,1.29062 1.70042,2.29334 2.28501,1.34745 z m -45.66905,-0.65811 c 0,-0.33382 -0.17645,-0.716 -0.3921,-0.84928 -0.50076,-0.30949 -1.00441,0.47924 -0.66091,1.03502 0.38732,0.62671 1.05301,0.50929 1.05301,-0.18574 z m 17.97831,-0.31443 c -0.13452,-0.33602 -0.23427,-0.2362 -0.25447,0.25447 -0.0183,0.44403 0.0812,0.69279 0.22122,0.55284 0.13993,-0.13993 0.15489,-0.50326 0.0333,-0.80731 z m 18.94543,-0.44753 c -0.11685,-0.28958 -0.21245,-0.0527 -0.21245,0.52651 0,0.57915 0.0955,0.81608 0.21245,0.5265 0.11685,-0.28957 0.11685,-0.76344 0,-1.05301 z m -35.23893,0.10523 c 0,-0.46801 -0.2808,-0.8424 -0.6318,-0.8424 -0.351,0 -0.63181,0.37439 -0.63181,0.8424 0,0.46801 0.28081,0.84241 0.63181,0.84241 0.351,0 0.6318,-0.3744 0.6318,-0.84241 z m 45.72567,-0.0404 c 0.45174,-0.73094 -0.95992,-1.93096 -1.56259,-1.32829 -0.37333,0.37334 -0.36172,0.6459 0.0486,1.14027 0.63538,0.76558 1.11987,0.82576 1.51401,0.18802 z m -30.1411,-1.20342 c 0,-0.2208 0.6634,-0.71625 1.47422,-1.10101 1.56396,-0.74215 1.99596,-2.17343 0.9244,-3.06276 -0.55249,-0.45851 -0.69664,-3.28557 -0.20786,-4.07644 0.14391,-0.23295 0.0285,-0.74248 -0.25652,-1.13232 -0.47475,-0.64926 -0.67498,-0.60279 -2.38457,0.55354 -1.48312,1.00315 -2.19057,1.2227 -3.44581,1.06941 -1.42794,-0.1744 -1.57952,-0.0989 -1.57952,0.78714 0,0.80282 0.55403,1.24303 3.06349,2.43418 2.80719,1.33245 4.80289,2.82368 3.77893,2.82368 -0.23166,0 -0.65122,-0.27716 -0.93236,-0.6159 -0.41591,-0.50115 -4.57253,-2.33253 -5.29406,-2.33253 -0.10713,0 -0.19479,0.29696 -0.19479,0.65991 0,0.98528 2.0871,3.53295 2.70121,3.29729 0.2934,-0.11255 0.77657,0.0882 1.07371,0.44627 0.60509,0.72908 1.27953,0.86061 1.27953,0.24954 z m 21.06021,-1.11085 c 0,-0.57275 -0.29249,-1.15361 -0.64996,-1.29079 -0.89329,-0.34279 -0.96539,-0.14725 -0.53429,1.44917 0.41809,1.54826 1.18425,1.44578 1.18425,-0.1584 z m 11.2899,-0.0459 c 0.0893,-0.89488 -0.086,-1.36484 -0.57989,-1.55435 -1.5621,-0.59943 -2.5846,1.80972 -1.12761,2.65683 1.0926,0.63523 1.56452,0.33054 1.7075,-1.10248 z m -48.78914,0.62671 c 0.95437,0.068 1.18363,-0.23897 2.20579,-2.95375 0.62739,-1.66629 1.04635,-3.12401 0.93099,-3.23935 -0.11525,-0.11542 -0.32326,0.2245 -0.46203,0.75521 -0.14264,0.54551 -0.37331,0.7692 -0.53065,0.5146 -0.49126,-0.79487 -2.17401,0.79591 -3.24788,3.07038 -0.73111,1.54845 -0.94798,1.79794 -0.77278,0.88896 0.13388,-0.69498 0.62235,-1.78891 1.08536,-2.43094 0.463,-0.64204 0.72719,-1.35281 0.58708,-1.57952 -0.14009,-0.2267 0.0449,-0.41217 0.41096,-0.41217 0.36613,0 1.44764,-0.51747 2.40334,-1.14994 l 1.73767,-1.14993 -1.41485,-0.28937 c -1.15789,-0.2368 -1.57822,-0.11303 -2.3143,0.68117 -0.4947,0.53378 -1.50602,1.10375 -2.2474,1.26657 -1.07603,0.23634 -1.25191,0.41174 -0.87196,0.86957 0.35435,0.42698 0.34975,0.92853 -0.018,1.96284 -0.58222,1.63754 0.0578,3.98244 0.93835,3.4382 0.28338,-0.17515 0.99452,-0.28427 1.58031,-0.24253 z m 27.26548,-1.01935 c 0.74215,-0.55586 1.50032,-0.97015 1.68483,-0.92067 0.18449,0.0495 0.74186,-0.0487 1.2386,-0.21832 l 0.90316,-0.3083 -0.86739,-0.9738 c -0.79015,-0.8871 -1.01054,-0.93153 -2.47506,-0.49911 -1.59749,0.47168 -3.72891,2.71702 -3.72891,3.92823 0,0.77318 1.48081,0.31315 3.24477,-1.00803 z m 2.11856,-1.47107 c 0.28572,-0.28786 0.62559,-0.41729 0.75528,-0.28759 0.12975,0.12974 -0.10411,0.36519 -0.51948,0.52337 -0.60031,0.22859 -0.64869,0.18021 -0.2358,-0.23578 z m -17.32398,1.36414 c -0.75815,-0.83775 -2.52386,-0.75041 -2.23747,0.11064 0.14678,0.44136 2.40541,1.10401 2.78792,0.81796 0.095,-0.0712 -0.15266,-0.489 -0.55045,-0.92861 z m 9.48485,0.0887 c -0.49655,-0.85387 -0.61646,-0.58057 -0.21,0.47864 0.14439,0.37643 0.35138,0.59569 0.45982,0.48723 0.10841,-0.10841 -0.003,-0.54308 -0.24982,-0.96587 z m -13.52997,0.0489 c 0,-0.36117 -0.18954,-0.53953 -0.4212,-0.39635 -0.23166,0.14311 -0.42121,0.43868 -0.42121,0.65666 0,0.21799 0.18955,0.39635 0.42121,0.39635 0.23166,0 0.4212,-0.2955 0.4212,-0.65666 z m 21.95635,-0.0804 c 0.52393,-0.66806 0.50903,-0.68296 -0.15903,-0.15903 -0.40541,0.31794 -0.73711,0.64964 -0.73711,0.7371 0,0.34667 0.34588,0.12354 0.89613,-0.57807 z m 13.4564,0.20006 c -0.0521,-0.50363 -0.62981,-0.40609 -0.81081,0.13691 -0.0927,0.278 0.0589,0.42964 0.33697,0.33697 0.27798,-0.0927 0.49123,-0.30589 0.47384,-0.47386 z m 2.49564,-0.96203 c 0,-0.33382 -0.37907,-0.60695 -0.84241,-0.60695 -0.94761,0 -1.0803,0.43604 -0.35376,1.16256 0.58061,0.58063 1.19617,0.29472 1.19617,-0.55561 z m 5.32334,0.44607 c 0.1334,-0.3475 0.12353,-0.94193 -0.022,-1.32096 -0.24106,-0.62817 -0.33805,-0.62252 -1.09659,0.064 -0.6346,0.57429 -0.72026,0.88788 -0.36085,1.32094 0.61765,0.7442 1.17862,0.71997 1.47944,-0.064 z m -42.13484,-1.36014 c -0.42816,-0.42817 -0.78144,0.21644 -0.43015,0.78485 0.26538,0.4294 0.36459,0.42972 0.50726,0.002 0.0976,-0.29265 0.0629,-0.64658 -0.077,-0.78655 z m 25.3358,0.41243 c 0.1135,-0.34487 -0.27468,-0.52651 -1.12532,-0.52651 -1.25136,0 -1.62596,0.37476 -1.00015,1.00058 0.45243,0.45243 1.92878,0.12306 2.12547,-0.47407 z m -23.87825,-3.19333 c -0.37704,-0.37577 -0.67227,-0.25615 -1.24783,0.50554 -0.73005,0.96617 -0.72601,1.02616 0.128,1.89541 l 0.88197,0.89767 0.36585,-1.40319 c 0.24973,-0.95779 0.20909,-1.55945 -0.12799,-1.89543 z m 31.98431,2.90484 c 0,-1.02447 -0.79722,-2.76524 -1.2664,-2.76524 -0.81051,0 -0.94264,1.25422 -0.24441,2.31987 0.76032,1.16039 1.51081,1.38163 1.51081,0.44537 z m -5.98109,-0.74346 c 0.78435,-0.78436 0.599,-1.25131 -0.43797,-1.10337 -0.51888,0.074 -1.00662,0.46628 -1.08389,0.87171 -0.16103,0.84491 0.76729,0.98621 1.52186,0.23166 z m 11.00851,-0.44228 c 0.51317,-1.32509 -0.86498,-2.83345 -1.8454,-2.01977 -0.6632,0.55038 -0.88887,2.17179 -0.37399,2.68669 0.60971,0.6097 1.87189,0.23043 2.21939,-0.66692 z m -3.34259,-0.34359 c 0,-0.47856 0.19621,-1.23673 0.43602,-1.68481 0.35746,-0.66792 0.29674,-0.81472 -0.33697,-0.81472 -1.54601,0 -2.34733,1.79528 -1.27843,2.86418 0.74877,0.74878 1.17938,0.61564 1.17938,-0.36465 z m -12.32076,-0.42841 c 0.0576,-0.32829 -0.0882,-0.88121 -0.3239,-1.22872 -0.3718,-0.54795 -0.51053,-0.52459 -1.04536,0.17606 -0.46609,0.61059 -0.50013,0.94826 -0.13945,1.38294 0.5664,0.68247 1.36142,0.50842 1.50863,-0.33028 z m 2.42246,0.45611 c 0.14311,-0.23166 -0.12991,-0.42122 -0.60695,-0.42122 -0.477,0 -0.86727,0.18956 -0.86727,0.42122 0,0.23166 0.27312,0.4212 0.60695,0.4212 0.33382,0 0.72409,-0.18954 0.86727,-0.4212 z m 0.0777,-1.72034 c 0.66689,-0.66689 0.16269,-2.0705 -0.74376,-2.0705 -0.85585,0 -1.64517,1.17161 -1.34789,2.00072 0.23217,0.64746 1.47258,0.68885 2.09165,0.0697 z m 2.46691,0.008 c 0.15267,-0.24707 0.19102,-0.53585 0.0852,-0.64171 -0.29378,-0.29378 -1.57667,0.28784 -1.57667,0.7148 0,0.52726 1.15549,0.47065 1.49153,-0.0731 z m 2.52723,-0.42119 c 0.38611,-0.62475 0.0229,-0.88424 -0.79703,-0.56957 -0.37932,0.1455 -0.5848,0.43433 -0.45664,0.64173 0.31526,0.51009 0.91515,0.47556 1.25367,-0.0721 z m 3.97783,-0.79495 c 0.57568,-0.44234 0.92035,-0.9306 0.7659,-1.08504 -0.30428,-0.3043 -2.4095,1.07431 -2.4312,1.5921 -0.0218,0.52071 0.55704,0.34445 1.6653,-0.50706 z m -15.26238,0.11144 c -0.40541,-0.10586 -1.0688,-0.10586 -1.47421,0 -0.40541,0.10602 -0.0737,0.19263 0.7371,0.19263 0.81083,0 1.14253,-0.0868 0.73711,-0.19263 z m 11.82503,-0.58574 c 1.94191,0.0528 1.64465,-1.00532 -0.66499,-2.36711 l -1.792,-1.05661 -0.61344,1.41281 c -0.43059,0.99168 -0.61642,1.1617 -0.62347,0.57038 -0.005,-0.46332 0.16408,-1.11765 0.37689,-1.45406 0.49195,-0.77765 -1.08156,-2.03413 -1.73236,-1.38333 -0.6527,0.65269 0.0314,4.41616 0.75234,4.13948 0.31911,-0.12242 0.58019,-0.0169 0.58019,0.23445 0,0.28949 0.4247,0.3487 1.15832,0.16149 0.63707,-0.16259 1.78841,-0.27845 2.55852,-0.2575 z m 7.48457,-0.0303 c 0.45582,-0.73754 -1.09412,-1.72273 -1.79505,-1.141 -0.30859,0.2561 -0.56107,0.72674 -0.56107,1.04588 0,0.70614 1.93032,0.78409 2.35612,0.0952 z m -48.35563,-0.77953 c 0.95737,-0.70755 1.37834,-0.77541 2.61268,-0.42122 2.0572,0.59033 2.95121,0.52684 2.95121,-0.20956 0,-0.34749 -0.28499,-0.63182 -0.63333,-0.63182 -0.34833,0 -1.34061,-0.37907 -2.20507,-0.84239 -2.13491,-1.14424 -2.4434,-1.08299 -3.67508,0.72957 -1.6271,2.39451 -1.22244,2.98063 0.94959,1.37542 z m 18.73958,-2.1218 c -0.18092,-0.16261 -0.84929,-0.41826 -1.48524,-0.56814 -0.94319,-0.22229 -1.44779,-3.5e-4 -2.73783,1.20412 -1.25896,1.17545 -1.46036,1.55569 -0.98742,1.86427 0.67822,0.44253 5.76758,-1.9996 5.21049,-2.50025 z m 15.0068,2.20764 c 0.83132,-0.50556 1.13394,-0.93856 0.90962,-1.3015 -0.25376,-0.41059 -0.60823,-0.27183 -1.44618,0.56614 -1.68563,1.68561 -1.48289,1.96345 0.53656,0.73536 z m 11.59829,-0.92722 c 0.59367,0 0.70637,-0.24421 0.53248,-1.15383 -0.12131,-0.6346 -0.0481,-1.47605 0.16263,-1.86986 0.23924,-0.44701 0.22453,-0.8141 -0.0392,-0.97705 -0.75739,-0.4681 -0.49576,-1.97262 0.31478,-1.81015 0.7877,0.15793 0.90765,1.34178 0.34146,3.37023 -0.27727,0.99337 -0.13723,1.24991 1.09179,1.99926 l 1.40987,0.85965 0.33695,-2.98876 c 0.41957,-3.72165 -0.12258,-4.79415 -2.63806,-5.21916 -1.31018,-0.22134 -2.13818,-0.0764 -3.59659,0.6296 -1.90996,0.92459 -2.54432,2.10562 -1.13099,2.10562 1.06287,0 2.91694,2.06309 3.21749,3.58024 0.24017,1.2123 0.23182,1.22087 -0.20586,0.2108 -0.25091,-0.57902 -0.85693,-1.47935 -1.34673,-2.00072 -1.04045,-1.10752 -2.22722,-1.28617 -1.83996,-0.27698 0.14168,0.36901 0.35142,1.12718 0.46626,1.68481 0.71535,3.47342 0.60377,3.27422 1.42019,2.53538 0.41271,-0.37349 1.08924,-0.67908 1.50342,-0.67908 z m 5.98166,-0.12624 c 0.31352,-0.18526 0.57004,-0.89603 0.57004,-1.57951 0,-0.68349 0.19621,-1.24269 0.43602,-1.24269 0.2842,0 0.26562,-0.31841 -0.0533,-0.91436 -0.40325,-0.75352 -0.35954,-1.00929 0.24862,-1.45397 1.14635,-0.83823 0.49798,-1.88002 -0.98539,-1.58335 -0.67572,0.13516 -1.34424,0.0586 -1.48561,-0.17021 -0.3641,-0.58908 0.86016,-1.49651 1.62373,-1.2035 0.35044,0.13452 0.63716,0.0841 0.63716,-0.11191 0,-0.47668 -1.26181,-1.50758 -1.27006,-1.03764 -0.003,0.20212 -0.17863,0.0954 -0.3891,-0.23725 -0.31712,-0.50116 -0.49634,-0.51036 -1.04655,-0.0537 -0.89236,0.7406 -0.83589,1.51297 0.21445,2.93362 0.75834,1.02573 0.81817,1.40605 0.43785,2.78346 -0.4165,1.50847 -0.13595,6.17119 0.29101,4.83652 0.11064,-0.34575 0.45764,-0.78021 0.77116,-0.96548 z m -28.69243,-0.36265 c 0.80463,-0.7322 1.46299,-1.62032 1.46299,-1.97358 0,-0.35325 0.41212,-1.08096 0.91583,-1.61713 0.9078,-0.96632 0.90826,-0.97485 0.0516,-0.97485 -0.47534,0 -1.1166,0.30404 -1.42502,0.67569 -0.30843,0.37162 -1.01043,0.84663 -1.56002,1.05559 -1.03254,0.39257 -1.06428,1.53638 -0.0357,1.28775 0.32675,-0.079 0.16612,0.29998 -0.36857,0.86955 -0.86983,0.9266 -1.26079,2.00827 -0.72587,2.00827 0.12195,0 0.88016,-0.59907 1.68482,-1.33129 z m 10.09768,0.0677 c 0.14311,-0.23166 0.0595,-0.4212 -0.18575,-0.4212 -0.24534,0 -0.44607,0.18954 -0.44607,0.4212 0,0.23166 0.0836,0.42121 0.18575,0.42121 0.10221,0 0.30289,-0.18955 0.44607,-0.42121 z m -26.72159,-0.79591 c -0.34305,-0.64099 -0.26395,-0.83828 0.40638,-1.01359 0.63663,-0.16647 0.83235,-0.57807 0.83235,-1.75044 0,-1.84458 -1.5313,-3.60052 -3.13989,-3.60052 -1.4376,0 -1.35537,0.6743 0.17897,1.46774 1.64955,0.85302 2.29174,2.05477 1.69444,3.17086 -0.38667,0.72249 -0.59112,0.77455 -1.38374,0.35223 -0.86889,-0.46294 -0.8885,-0.44492 -0.29822,0.27422 0.59216,0.72141 0.57159,0.73763 -0.32769,0.25842 -0.52773,-0.2812 -0.8534,-0.683 -0.72369,-0.89286 0.12975,-0.20986 -0.27187,-0.71422 -0.89238,-1.12079 -0.62051,-0.40658 -1.66904,-1.48582 -2.33005,-2.39832 -0.66101,-0.91251 -1.20184,-1.47525 -1.20184,-1.25053 0,0.22474 0.63407,1.1535 1.40905,2.06392 0.77498,0.91044 1.33431,1.87274 1.24297,2.13847 -0.2224,0.64697 2.27705,2.39293 3.01839,2.10846 0.32234,-0.12369 0.81267,0.0481 1.08964,0.38188 0.70813,0.85324 0.93029,0.75444 0.42531,-0.18915 z m -4.02632,-2.15252 c -0.14312,-0.23166 -0.0709,-0.4212 0.16088,-0.4212 0.23166,0 0.53833,0.18954 0.68151,0.4212 0.14312,0.23166 0.0709,0.4212 -0.16088,0.4212 -0.23166,0 -0.53835,-0.18954 -0.68151,-0.4212 z m 28.47161,1.42565 c 0.48852,-0.58866 0.45759,-0.65965 -0.22944,-0.52651 -0.43675,0.0847 -0.87298,0.39081 -0.9694,0.68038 -0.25018,0.75139 0.53072,0.65114 1.19884,-0.15394 z m 2.12887,0.0486 c 0,-0.22007 -0.20376,-0.46807 -0.45279,-0.55107 -0.24904,-0.0831 -0.4528,0.16497 -0.4528,0.55107 0,0.38611 0.20376,0.63409 0.4528,0.55109 0.24903,-0.0829 0.45279,-0.331 0.45279,-0.55109 z m 8.17387,-1.14227 c -0.6106,-1.46134 -0.69499,-1.50118 -5.98568,-2.82614 -2.9515,-0.73914 -6.5354,-1.45305 -7.96423,-1.58649 -3.44897,-0.32207 -7.34448,0.16967 -7.34448,0.92711 0,0.93623 0.4828,1.00844 4.3724,0.65391 2.57393,-0.23459 4.55674,-0.17211 6.50911,0.20515 2.83956,0.5487 8.18148,2.54047 9.88381,3.68525 0.50969,0.34276 0.97658,0.57826 1.03755,0.52332 0.061,-0.0549 -0.16787,-0.76689 -0.50848,-1.58211 z m -5.71626,-0.0161 c 0.003,-0.17375 -0.27788,-0.31591 -0.62537,-0.31591 -0.64496,0 -0.86298,0.89203 -0.34467,1.41034 0.28282,0.28283 0.95745,-0.47832 0.97004,-1.09443 z m -25.24787,-1.19349 c 0.45345,-0.88885 0.82445,-1.8911 0.82445,-2.22722 0,-0.33614 0.60182,-1.11755 1.33737,-1.73647 1.07166,-0.90175 1.2181,-1.2008 0.73711,-1.50521 -0.91636,-0.57995 -1.16149,-0.47676 -1.30806,0.55062 -0.14487,1.01532 -1.42967,1.51024 -2.12236,0.81755 -0.28463,-0.28462 -0.13134,-0.67465 0.46593,-1.18613 1.25751,-1.0767 1.10679,-1.50045 -0.48496,-1.36332 -0.75624,0.0651 -1.58932,-0.0143 -1.85128,-0.17591 -1.22967,-0.75998 -1.29841,2.67574 -0.0926,4.62682 0.63906,1.03402 0.82751,1.85004 0.66233,2.86792 -0.31118,1.91761 0.70113,1.54814 1.83205,-0.66865 z m 8.74662,1.68839 c -0.0829,-0.24903 -0.331,-0.45278 -0.55109,-0.45278 -0.22007,0 -0.46807,0.20375 -0.55107,0.45278 -0.0829,0.24905 0.16497,0.4528 0.55107,0.4528 0.38611,0 0.63409,-0.20375 0.55109,-0.4528 z m 9.53675,-2.17645 c 0.22009,-0.17555 0.0189,-0.31917 -0.44708,-0.31917 -1.04644,0 -2.69088,1.47391 -2.69088,2.41182 0,0.5341 0.3157,0.40966 1.36891,-0.53964 0.75291,-0.67862 1.54898,-1.37748 1.76905,-1.55301 z m -22.51337,1.02867 c 0,-0.89735 -0.77966,-1.76906 -1.58226,-1.76906 -0.44213,0 -0.40254,0.28584 0.17505,1.26362 0.84296,1.42701 1.40721,1.62968 1.40721,0.50544 z m 24.40216,-0.0842 c 0.71022,0 1.29132,0.1962 1.29132,0.43602 0,0.29527 0.25404,0.30005 0.78703,0.0143 0.43285,-0.23166 0.90671,-0.30151 1.05299,-0.15521 0.1463,0.1463 0.26599,0.067 0.26599,-0.17629 0,-0.24325 -0.34931,-0.53363 -0.77624,-0.64527 -1.16053,-0.30349 -4.66796,0.32162 -5.24651,0.93505 -0.40769,0.43228 -0.3273,0.44463 0.4141,0.0637 0.50602,-0.26003 1.5011,-0.47277 2.21132,-0.47277 z m -14.56865,-2.94844 c 0.22327,0 0.0629,-0.37908 -0.3564,-0.8424 -0.41931,-0.46332 -1.07905,-0.84242 -1.46608,-0.84242 -0.91996,0 -2.30544,1.55609 -2.85694,3.20874 l -0.43826,1.31332 2.35587,-1.41862 c 1.2957,-0.78024 2.53853,-1.41862 2.76181,-1.41862 z m 7.57312,2.11099 c 0.1913,-0.17687 -0.14312,-0.2277 -0.74333,-0.11303 -0.60016,0.11478 -1.20688,0.39581 -1.34831,0.62462 -0.2865,0.46358 1.51282,0.0234 2.09164,-0.51165 z m -20.76444,-2.08891 c -0.25446,-0.47547 -0.84627,-0.86448 -1.31511,-0.86448 -0.94349,0 -0.80792,0.43923 0.62885,2.03759 0.70049,0.77926 0.91255,0.84973 1.01697,0.33797 0.0726,-0.35563 -0.0762,-1.03562 -0.33071,-1.51108 z m 38.73897,0.43259 c 0,-0.21325 -0.56644,-0.51214 -1.25877,-0.66421 -0.69234,-0.15203 -1.36691,-0.45143 -1.49908,-0.66527 -0.41703,-0.67479 -1.03298,-0.42178 -1.03298,0.42431 0,0.50835 0.35522,0.88153 0.94772,0.99566 1.74335,0.33577 2.84311,0.30078 2.84311,-0.0904 z m -4.63323,-0.87587 c 0,-0.23166 -0.2955,-0.4212 -0.65667,-0.4212 -0.36116,0 -0.53953,0.18954 -0.39635,0.4212 0.14312,0.23166 0.43868,0.4212 0.65667,0.4212 0.21799,0 0.39635,-0.18954 0.39635,-0.4212 z m 6.92507,-0.64521 c 0.44968,-0.34012 1.16048,-0.61841 1.57951,-0.61841 0.41905,0 0.76191,-0.16774 0.76191,-0.37275 0,-0.71162 -2.08433,-1.73327 -3.53613,-1.73327 -1.1878,0 -1.48481,0.17459 -1.59432,0.93716 -0.074,0.51545 -0.59231,1.1645 -1.15172,1.44236 -1.00841,0.50086 -1.00481,0.50669 0.42122,0.68024 2.53322,0.30832 2.68806,0.29357 3.51953,-0.33533 z m -8.18869,-0.19721 c 0.51091,-0.33017 0.45045,-0.40953 -0.3159,-0.41475 -0.52124,-0.003 -0.94771,0.18309 -0.94771,0.41475 0,0.52775 0.44699,0.52775 1.26361,0 z m -34.23163,-0.25447 c -0.13993,-0.13993 -0.50324,-0.1549 -0.80731,-0.0333 -0.33601,0.13452 -0.2362,0.23427 0.25448,0.25447 0.44402,0.0183 0.6928,-0.0812 0.55283,-0.22122 z m 5.16854,-0.81807 c 0,-0.53052 0.12226,-1.28331 0.27179,-1.67289 0.16921,-0.44093 -0.14153,-0.29494 -0.82326,0.38676 -0.60229,0.60229 -1.48276,1.09506 -1.95663,1.09506 -1.68821,0 -0.8984,1.06631 0.82327,1.11145 1.48801,0.039 1.68483,-0.0684 1.68483,-0.92038 z m 27.37827,0.63721 c 0,-0.19312 0.52125,-0.4224 1.15832,-0.50951 0.98884,-0.13515 1.04588,-0.20929 0.38988,-0.50627 -0.7578,-0.34305 -3.9195,0.43686 -4.30596,1.06218 -0.10364,0.16759 0.47455,0.3047 1.28472,0.3047 0.81018,0 1.47304,-0.15792 1.47304,-0.3511 z m -11.79372,-0.74778 c 0,-0.41903 0.27829,-1.12982 0.61841,-1.5795 0.87301,-1.15425 0.79055,-1.52866 -0.3025,-1.37343 -0.73798,0.10475 -0.95111,0.41426 -0.96309,1.39823 -0.008,0.695 -0.16179,1.50055 -0.34075,1.79012 -0.20716,0.33519 -0.0868,0.52649 0.33127,0.52649 0.36116,0 0.65666,-0.34286 0.65666,-0.76191 z m 5.24027,0.14344 c -0.4497,-0.34012 -0.62808,-0.62734 -0.39642,-0.63826 0.23166,-0.0112 0.1619,-0.18411 -0.15505,-0.38487 -0.46239,-0.29294 -0.38698,-0.55429 0.38172,-1.32298 l 0.95794,-0.95794 -1.43473,0.28472 c -1.51663,0.30097 -2.88392,1.66876 -2.89957,2.90063 -0.008,0.60854 0.37199,0.73711 2.17715,0.73711 2.01298,0 2.12163,-0.049 1.36892,-0.61841 z m 3.8868,0.008 c 0.65583,-0.33565 1.57153,-0.7368 2.03485,-0.89145 0.46332,-0.15458 0.63972,-0.35825 0.39198,-0.45248 -0.24773,-0.0942 -1.47975,0.29603 -2.73782,0.86719 -1.25807,0.57117 -1.97108,1.04941 -1.58444,1.06275 0.38664,0.0127 1.23957,-0.25036 1.89543,-0.58601 z m 18.25122,-0.65334 c 0.26364,-0.49261 0.88192,-0.84241 1.48903,-0.84241 0.571,0 1.03819,-0.18954 1.03819,-0.4212 0,-0.61021 -2.18823,-0.49188 -3.05373,0.16513 -0.78332,0.59463 -1.01272,1.9409 -0.33073,1.9409 0.22351,0 0.60928,-0.3791 0.85724,-0.84242 z m -9.09225,-0.44056 c 0.33652,-0.34652 -0.0616,-0.39512 -1.50526,-0.18375 -1.16595,0.17072 -2.27746,0.10586 -2.73782,-0.15984 -0.63322,-0.36541 -0.42822,-0.45112 1.1204,-0.46846 5.48829,-0.0615 7.39448,-0.24473 7.7079,-0.74113 0.18527,-0.29342 0.60055,-0.53348 0.92286,-0.53348 0.3223,0 0.6888,-0.16633 0.81444,-0.36961 0.25159,-0.40708 -2.75311,-0.3156 -5.54036,0.16867 -0.97979,0.17024 -1.67939,0.47464 -1.55466,0.67644 0.12465,0.20179 0.0201,0.36691 -0.23252,0.36691 -0.25261,0 -0.55062,-0.23693 -0.66225,-0.52651 -0.27651,-0.71727 -2.64788,-0.83471 -3.58604,-0.1776 -0.88149,0.61743 -0.57867,1.34368 0.91541,2.19539 1.10943,0.63243 3.62281,0.4893 4.3379,-0.24703 z m 6.98622,0.44056 c 0,-0.23166 -0.0836,-0.4212 -0.18575,-0.4212 -0.1022,0 -0.30288,0.18954 -0.44605,0.4212 -0.14311,0.23166 -0.0595,0.4212 0.18574,0.4212 0.24533,0 0.44606,-0.18954 0.44606,-0.4212 z m -46.12187,-0.77221 c 0,-0.76181 -0.82442,-0.62274 -0.98795,0.16666 -0.0909,0.43921 0.0669,0.63176 0.42122,0.51366 0.3117,-0.10395 0.56673,-0.41004 0.56673,-0.68032 z m 27.93567,-0.21041 c 0.0788,-0.40628 -0.13261,-0.70219 -0.50164,-0.70219 -0.7825,0 -1.25477,0.68662 -0.88441,1.28584 0.38098,0.61646 1.22198,0.26233 1.38605,-0.58365 z m -23.48487,-0.7548 c 0.34192,-0.6389 0.275,-0.7898 -0.35031,-0.7898 -0.88194,0 -1.78388,0.76802 -1.78388,1.51902 0,0.75733 1.63817,0.19758 2.13419,-0.72922 z m -6.35267,-0.4739 c 0.003,-0.17374 -0.18309,-0.3159 -0.41475,-0.3159 -0.23166,0 -0.4183,0.42646 -0.41477,0.9477 0.005,0.76637 0.0845,0.82681 0.41477,0.31591 0.22456,-0.34749 0.4112,-0.77396 0.41475,-0.94771 z m 19.1665,0.26404 c 0.39816,-0.60768 0.51574,-0.9762 0.2613,-0.81894 -0.48623,0.30051 -1.46692,1.92381 -1.16222,1.92381 0.0973,0 0.50274,-0.49719 0.90092,-1.10487 z m 29.00956,0.47307 c 0.16155,-0.42101 -0.017,-0.63182 -0.53517,-0.63182 -0.42769,0 -1.01358,0.28433 -1.30196,0.63182 -0.44247,0.53313 -0.35888,0.6318 0.53517,0.6318 0.58273,0 1.16862,-0.28431 1.30196,-0.6318 z m 2.64489,-0.63182 c 0.51915,0 1.06107,-0.18953 1.20423,-0.42119 0.37355,-0.60442 -2.0416,-0.52775 -2.65358,0.0842 -0.278,0.27799 -0.50544,0.69498 -0.50544,0.92664 0,0.23401 0.22464,0.19656 0.50544,-0.0842 0.27799,-0.27799 0.93019,-0.50545 1.44935,-0.50545 z m -51.04265,49.73051 c 0.13357,-0.21606 0.80158,-0.37694 1.48458,-0.35752 1.62107,0.0462 1.18583,0.75034 -0.46374,0.75034 -0.695,0 -1.15437,-0.17677 -1.02084,-0.39282 z m 5.15769,-0.47044 c 0.97379,-0.19235 2.17466,-0.56602 2.66861,-0.83037 0.49394,-0.26436 1.00572,-0.373 1.13728,-0.24144 0.41179,0.41179 -2.74383,1.51613 -4.19396,1.46772 -1.30481,-0.0436 -1.28303,-0.0658 0.38807,-0.39591 z m 5.49527,-1.23815 c 0.7529,-0.45904 1.3689,-1.02697 1.3689,-1.26204 0,-0.23507 0.18956,-0.42739 0.42122,-0.42739 0.98679,0 0.30333,1.1638 -1.06731,1.8174 -2.01581,0.96127 -2.39825,0.89357 -0.72281,-0.12799 z M 182.49081,139.0451 c -0.20232,-0.59868 -0.15426,-1.17039 0.12146,-1.44613 0.63838,-0.63837 0.77629,-0.29683 0.47351,1.17263 -0.25385,1.23203 -0.26872,1.23888 -0.59494,0.2735 z m 1.16201,-3.34453 c 0.17115,-0.81734 0.0691,-0.9228 -0.66707,-0.68916 -0.72861,0.23125 -0.83155,0.13197 -0.63645,-0.61408 0.12799,-0.48946 0.061,-0.99609 -0.14901,-1.12583 -0.49124,-0.3036 -0.49556,-1.02856 -0.006,-1.02856 0.20656,0 0.49879,0.49108 0.64944,1.0913 0.17948,0.7151 0.48098,1.01184 0.87459,0.86082 0.90244,-0.34632 1.05021,0.24813 0.3537,1.42279 -0.60256,1.01621 -0.61516,1.01869 -0.41915,0.0828 z m -1.83412,-32.73133 c 0,-0.57917 0.18954,-1.05301 0.4212,-1.05301 0.23166,0 0.42121,0.47384 0.42121,1.05301 0,0.57915 -0.18955,1.053 -0.42121,1.053 -0.23166,0 -0.4212,-0.47385 -0.4212,-1.053 z m 12.69647,-1.00682 c -0.31432,-0.19915 -0.40909,-0.45832 -0.2106,-0.5759 0.39491,-0.23397 2.25629,0.36556 2.25629,0.72673 0,0.35333 -1.41463,0.24903 -2.04569,-0.15076 z m -11.01166,-1.30981 c 0,-0.23166 0.37909,-0.42121 0.84242,-0.42121 0.46332,0 0.84241,0.18955 0.84241,0.42121 0,0.23166 -0.37909,0.4212 -0.84241,0.4212 -0.46333,0 -0.84242,-0.18954 -0.84242,-0.4212 z m 2.52723,-0.0554 c 0,-0.51057 4.10382,-0.4605 4.42176,0.054 0.16184,0.26188 -0.62096,0.39947 -2.08116,0.3658 -1.28733,-0.0296 -2.3406,-0.21856 -2.3406,-0.41975 z"
       id="path57" />
  </g>
</svg>
