<?xml version="1.0" encoding="UTF-8" standalone="no"?>
<!-- Created with Inkscape (http://www.inkscape.org/) -->

<svg
   width="74.030594mm"
   height="78.472977mm"
   viewBox="0 0 74.030578 78.472963"
   version="1.1"
   id="svg5"
   inkscape:version="1.1 (c4e8f9ed74, 2021-05-24)"
   sodipodi:docname="ornatea5.svg"
   xmlns:inkscape="http://www.inkscape.org/namespaces/inkscape"
   xmlns:sodipodi="http://sodipodi.sourceforge.net/DTD/sodipodi-0.dtd"
   xmlns="http://www.w3.org/2000/svg"
   xmlns:svg="http://www.w3.org/2000/svg">
  <sodipodi:namedview
     id="namedview7"
     pagecolor="#ffffff"
     bordercolor="#666666"
     borderopacity="1.0"
     inkscape:pageshadow="2"
     inkscape:pageopacity="0.0"
     inkscape:pagecheckerboard="0"
     inkscape:document-units="mm"
     showgrid="false"
     inkscape:zoom="0.94615212"
     inkscape:cx="-354.59414"
     inkscape:cy="154.83768"
     inkscape:window-width="2506"
     inkscape:window-height="1403"
     inkscape:window-x="1974"
     inkscape:window-y="0"
     inkscape:window-maximized="1"
     inkscape:current-layer="layer1" />
  <defs
     id="defs2" />
  <g
     inkscape:label="Layer 1"
     inkscape:groupmode="layer"
     id="layer1"
     transform="translate(-7.786168,-139.51607)">
    <path
       style="fill:#000000;stroke-width:0.708452"
       d="m 47.665334,217.55741 c 0.511413,-0.20465 1.122453,-0.17949 1.357866,0.0559 0.235412,0.23542 -0.183017,0.40286 -0.929843,0.3721 -0.825306,-0.034 -0.993179,-0.20187 -0.428023,-0.42802 z M 8.6173143,211.9216 c -0.24216,-0.24216 -0.45631,-14.02774 -0.4759,-30.63462 -0.0196,-16.60688 -0.15074,-32.31245 -0.29144,-34.90126 -0.1407,-2.58881 -0.0408,-5.05478 0.22193,-5.47994 0.56853,-0.9199 57.7880327,-1.86814 67.5394577,-1.11925 l 6.205402,0.47656 -0.18356,35.87821 -0.183567,35.87822 -36.196017,0.17118 C 25.345811,212.2848 8.8594743,212.1638 8.6173143,211.9216 Z M 79.90512,209.71705 c 0.177155,-0.68189 0.254667,-3.47142 0.172253,-6.19896 -0.08241,-2.72754 -0.205876,-16.03758 -0.274355,-29.57787 -0.09029,-17.85343 -0.346001,-24.6187 -0.930502,-24.6187 -0.553273,0 -0.686009,1.27727 -0.423329,4.0736 0.210467,2.24048 0.230984,3.51569 0.04562,2.83381 -0.385638,-1.41841 -1.038243,-1.56826 -2.11978,-0.48672 -0.414189,0.41419 -1.782104,0.78233 -3.039804,0.81809 -2.46688,0.0701 -3.713219,1.70873 -2.084236,2.7402 1.512494,0.9577 -0.320342,0.77365 -2.838147,-0.28501 -1.220199,-0.51304 -2.064785,-1.08654 -1.876887,-1.27443 0.187898,-0.1879 -1.40081,-0.14985 -3.530462,0.0846 -2.129652,0.23441 -3.872095,0.22417 -3.872095,-0.0228 0,-0.24692 -0.80345,-0.87895 -1.785445,-1.40449 -2.294953,-1.22822 -1.17213,-2.71863 1.234888,-1.63916 1.678992,0.75297 3.384365,0.52371 3.384365,-0.45499 0,-1.08824 -3.91235,-1.32921 -5.881058,-0.36223 -1.091515,0.53613 -2.52613,0.81294 -3.188034,0.61512 -0.661904,-0.19781 -0.02861,0.29369 1.407327,1.09223 3.435146,1.91032 3.857267,2.74306 1.668897,3.2923 -0.990057,0.24849 -1.800104,0.71379 -1.800104,1.034 0,0.3202 1.019812,0.28971 2.266249,-0.0678 2.473096,-0.70927 3.370978,-0.0395 3.390518,2.52911 0.006,0.79241 0.719103,1.73675 1.604866,2.12535 2.013311,0.88329 2.40524,3.43861 0.883599,5.76093 -1.491146,2.27577 -0.821,3.02096 1.129404,1.25587 0.819693,-0.74181 2.215451,-1.25373 3.101686,-1.1376 1.802395,0.2362 2.785476,-1.39689 2.114159,-3.51203 -0.265175,-0.83549 -0.01233,-1.47669 0.688319,-1.74556 0.609101,-0.23373 0.931072,-0.71037 0.715489,-1.05919 -0.605231,-0.97928 -3.142355,-0.74957 -3.553452,0.32173 -0.680616,1.77366 -4.989209,-0.9549 -5.848364,-3.70367 l -0.748113,-2.39351 3.245008,0.44478 c 4.309495,0.59068 8.637157,3.0645 10.694612,6.11336 1.375216,2.03788 1.632504,3.20547 1.444325,6.55447 -0.392638,6.98766 1.351939,4.68568 2.00776,-2.64925 0.427806,-4.78474 -0.558416,-8.3477 -2.142394,-7.73987 -1.303871,0.50034 -2.259856,-1.0135 -1.267002,-2.00636 0.538883,-0.53888 1.058101,-0.50964 1.793906,0.10102 0.833012,0.69134 1.181025,0.60927 1.77961,-0.41968 0.409251,-0.70349 0.779857,-1.11967 0.823575,-0.92485 0.04371,0.19483 0.242964,11.91085 0.442783,26.03561 l 0.363315,25.68138 H 45.34497 11.585854 l 0.0848,-3.71937 c 0.0467,-2.04565 -0.14243,-17.18416 -0.42019,-33.64112 l -0.50502,-29.92174 3.67381,0.0828 c 2.02059,0.0455 3.87511,-0.11854 4.12115,-0.36458 0.69241,-0.69241 -7.09998,-0.50644 -8.209,0.19592 -0.7965697,0.50447 -0.8979697,2.5376 -0.5382897,10.79304 0.2437297,5.59431 0.4617697,20.37944 0.4845297,32.85583 0.0228,12.47639 0.28142,23.07276 0.57482,23.54748 0.40094,0.64873 7.29926,0.91139 27.77231,1.05746 14.981381,0.10688 30.325726,0.27013 34.098541,0.36278 6.02211,0.14787 6.898996,0.0171 7.181761,-1.07135 z M 65.509468,168.0955 c 0,-0.58448 0.478205,-1.06268 1.062678,-1.06268 0.584473,0 1.062678,0.4782 1.062678,1.06268 0,0.58447 -0.478205,1.06267 -1.062678,1.06267 -0.584473,0 -1.062678,-0.4782 -1.062678,-1.06267 z m -24.441593,37.84314 c 0,-1.35049 -0.420812,-1.76034 -1.9924,-1.94053 -1.702903,-0.19524 -1.861195,-0.38652 -1.089419,-1.31645 0.743677,-0.89608 0.693324,-1.24133 -0.285417,-1.957 -0.940501,-0.68771 -1.008813,-1.06292 -0.327485,-1.79874 0.693078,-0.7485 0.60792,-0.84037 -0.43682,-0.47126 -0.713754,0.25217 -2.14837,0.4809 -3.188034,0.50829 -1.617748,0.0426 -1.691474,0.1276 -0.511336,0.58943 1.277138,0.49979 1.25098,0.57387 -0.354226,1.00321 -0.953255,0.25497 -2.583333,0.46793 -3.622397,0.47325 -1.039062,0.005 -2.031527,0.40818 -2.205478,0.89524 -0.17395,0.48706 -0.504621,0.71429 -0.734823,0.50496 -0.230203,-0.20932 0.935238,-4.03497 2.589868,-8.50142 l 3.008418,-8.12083 7.590557,-0.35422 c 4.174806,-0.19483 8.525272,-0.15938 9.667703,0.0788 1.142431,0.23815 2.400194,0.10995 2.79503,-0.28489 0.787682,-0.78768 0.760836,-0.83896 4.558775,8.70754 1.317638,3.31201 2.68145,5.96871 3.030696,5.90377 0.349245,-0.065 0.59514,0.81177 0.546434,1.94824 -0.153028,3.57067 -0.163471,3.58777 -1.69158,2.76995 -1.15118,-0.61609 -1.282875,-1.03039 -0.683525,-2.15028 0.671431,-1.25458 0.505105,-1.38716 -1.740308,-1.38716 -1.365481,0 -3.781492,-0.67697 -5.368913,-1.50438 -3.549847,-1.85028 -4.455911,-1.35035 -1.260709,0.69562 1.587006,1.0162 1.936037,1.49716 1.092377,1.50528 -0.681885,0.007 -1.239791,0.49803 -1.239791,1.09215 0,0.59411 -0.753528,1.3667 -1.674507,1.71686 -1.683536,0.64007 -2.975443,2.70745 -2.185519,3.49738 0.233221,0.23322 0.735951,-0.13333 1.117178,-0.81454 0.534786,-0.95561 0.997563,-1.07565 2.025646,-0.52544 2.207578,1.18146 5.576651,0.85358 6.505085,-0.63308 0.805546,-1.28988 1.15341,-1.32058 3.953332,-0.34887 1.129914,0.39214 1.114216,0.4819 -0.177113,1.01288 -1.025478,0.42167 -0.43834,0.59739 2.125356,0.63608 1.948243,0.0294 6.650593,0.25929 10.449666,0.51087 5.001119,0.33118 6.907407,0.23241 6.907407,-0.35789 0,-0.49051 -1.234527,-0.8153 -3.09896,-0.8153 -1.704432,0 -4.478885,-0.48687 -6.165453,-1.08192 -2.311893,-0.81569 -3.580167,-0.90285 -5.153952,-0.35423 -3.358963,1.17094 -3.834405,0.83858 -1.167578,-0.81619 l 2.479582,-1.53859 -1.77113,-0.43962 c -1.639622,-0.40698 -1.667397,-0.47949 -0.374081,-0.97646 1.139567,-0.43789 1.211086,-0.65176 0.388052,-1.16043 -0.554949,-0.34297 -1.295129,-0.44675 -1.644843,-0.23062 -0.349716,0.21614 -0.248148,-0.33144 0.225704,-1.21684 0.761567,-1.423 0.717033,-1.55437 -0.383751,-1.13196 -1.056896,0.40557 -1.107797,0.31219 -0.336437,-0.61724 0.776125,-0.93518 0.713157,-1.02579 -0.431133,-0.62041 -1.074232,0.38057 -1.170937,0.292 -0.48759,-0.44654 0.650111,-0.70262 0.658197,-1.27379 0.03407,-2.40673 -0.450084,-0.81702 -0.891274,-1.92566 -0.980422,-2.46365 -0.08915,-0.53798 -0.549755,-1.33499 -1.02357,-1.77113 -0.652983,-0.60105 -0.724104,-0.55215 -0.293861,0.20206 0.395676,0.69361 0.301158,0.83034 -0.312022,0.45138 -0.591651,-0.36566 -0.645614,-0.77768 -0.164823,-1.25847 0.807557,-0.80756 0.277065,-2.85001 -0.599527,-2.30825 -0.312481,0.19313 -0.412792,-0.24294 -0.222912,-0.96904 0.191808,-0.73348 -0.07369,-1.45581 -0.597409,-1.62537 -0.910645,-0.29482 -7.091434,-0.30218 -19.751414,-0.0235 l -6.056633,0.13331 -0.894775,2.6567 c -0.492127,1.46118 -2.048146,5.81128 -3.457822,9.66689 l -2.563046,7.01021 1.622857,1.31411 c 1.122446,0.9089 1.297726,1.3141 0.56844,1.3141 -0.57993,0 -1.457253,-0.48538 -1.949608,-1.07863 -0.800662,-0.96474 -1.075067,-0.96078 -2.598622,0.0375 -0.93689,0.61387 -2.28875,0.93035 -3.00414,0.7033 -0.80678,-0.25606 -1.45865,-0.001 -1.71661,0.67096 -0.35586,0.92737 0.57785,1.08222 6.469288,1.07294 4.707077,-0.007 6.548998,-0.2281 5.822494,-0.6976 -0.584473,-0.37772 -0.78454,-0.69164 -0.444593,-0.69761 0.339947,-0.006 0.278482,-0.42004 -0.136588,-0.92017 -1.046567,-1.26104 0.133466,-2.95633 1.652147,-2.37356 1.040743,0.39937 1.076219,0.63258 0.248614,1.63434 -0.863863,1.04564 -0.761001,1.12966 0.97839,0.79917 1.187855,-0.2257 2.259154,0.0107 2.754808,0.60795 0.551183,0.66413 1.574131,0.83412 3.192533,0.5305 1.941876,-0.3643 2.381469,-0.22515 2.381469,0.75379 0,0.66032 0.398504,1.06773 0.885565,0.90538 0.48706,-0.16236 0.885565,-1.06563 0.885565,-2.00728 z m 10.759614,-1.81541 c -0.923892,-0.92389 -0.482804,-1.66781 0.988881,-1.66781 0.824456,0 1.352159,0.37134 1.195512,0.84128 -0.345097,1.03529 -1.528032,1.48289 -2.184393,0.82653 z M 34.08217,203.38076 c -0.797848,-0.79785 -0.48592,-1.6338 0.609637,-1.6338 0.584473,0 1.062678,0.29999 1.062678,0.66664 0,0.89335 -1.106311,1.53316 -1.672315,0.96716 z m -19.773116,3.60579 c -0.23541,-0.23541 -0.84645,-0.26057 -1.35787,-0.0559 -0.56515,0.22615 -0.39728,0.39402 0.42803,0.42801 0.74682,0.0307 1.16525,-0.13667 0.92984,-0.37209 z M 44.255908,204.935 c 0,-0.58448 -0.318803,-1.06268 -0.708451,-1.06268 -0.389649,0 -0.708452,0.4782 -0.708452,1.06268 0,0.58447 0.318803,1.06267 0.708452,1.06267 0.389648,0 0.708451,-0.4782 0.708451,-1.06267 z M 72.09913,204.29756 C 69.862791,202.4158 67.914817,198.15182 60.900691,179.78495 50.358397,152.17938 47.471218,145.09694 46.628144,144.77342 c -0.534001,-0.20492 -0.731855,0.0554 -0.500441,0.65848 0.210502,0.54855 0.02476,2.08203 -0.412754,3.40772 -0.800588,2.4258 -0.50719,3.48818 3.557051,12.87981 0.337242,0.7793 1.050087,2.69212 1.584101,4.25071 1.799664,5.25257 8.336627,21.72367 11.209165,28.24359 1.567935,3.5588 3.017009,7.01132 3.220166,7.67226 0.408689,1.32962 5.508515,4.11025 7.540024,4.11113 1.051261,4.5e-4 0.914943,-0.31852 -0.726326,-1.69956 z m -50.744016,-0.60235 c 1.497345,-1.66494 5.377958,-10.7338 5.38092,-12.57503 9.21e-4,-0.58447 0.248529,-1.38148 0.550198,-1.77113 0.301668,-0.38964 0.772559,-1.90748 1.046423,-3.37297 0.273864,-1.46548 0.785798,-2.84243 1.137631,-3.05987 0.351832,-0.21745 0.456279,-0.69213 0.232103,-1.05485 -0.224177,-0.36273 -0.123109,-0.6595 0.224594,-0.6595 0.347703,0 0.644772,-0.39851 0.660152,-0.88557 0.04445,-1.40748 0.52254,-2.98025 1.022941,-3.36515 0.253292,-0.19482 0.572095,-0.99183 0.708452,-1.77112 0.136358,-0.7793 0.467569,-1.5831 0.736026,-1.78622 0.268457,-0.20313 0.640779,-1.21128 0.827382,-2.24033 0.186605,-1.02906 0.652828,-2.45689 1.036053,-3.17295 0.383224,-0.71606 0.695196,-1.55471 0.693271,-1.86365 -0.0038,-0.59798 1.192388,-3.95228 2.452289,-6.87702 0.419624,-0.97413 0.804906,-2.08994 0.85618,-2.47959 0.478868,-3.63906 1.341565,-6.04642 1.865743,-5.20635 0.648763,1.03973 2.962494,0.0997 2.942349,-1.19544 -0.0058,-0.3755 0.290585,-1.47495 0.658723,-2.44323 l 0.669342,-1.7605 -1.63978,1.49486 c -0.901879,0.82217 -2.357087,1.86472 -3.233796,2.31677 -0.87671,0.45205 -1.594017,1.26082 -1.594017,1.79727 0,0.53646 -2.031491,6.5028 -4.514423,13.25855 -4.477642,12.1831 -6.978411,19.45933 -10.674047,31.05716 -1.320506,4.14408 -2.510079,6.5178 -3.814859,7.61234 -1.33526,1.12011 -1.56586,1.59154 -0.77971,1.59401 0.61397,0.002 1.7614,-0.71378 2.54986,-1.59049 z m -4.42521,-0.22772 c 0.6123,-0.61231 1.11328,-1.69827 1.11328,-2.41326 0,-0.99222 0.37736,-1.20697 1.59402,-0.90711 l 1.59402,0.39286 -1.71751,-1.87609 c -1.7137,-1.87192 -1.71409,-1.87609 -0.17712,-1.87609 0.84722,0 1.5404,-0.44102 1.5404,-0.98005 0,-0.53903 0.717307,-1.19809 1.594016,-1.46458 0.9657,-0.29355 1.244952,-0.62864 0.708452,-0.85012 -0.48706,-0.20107 -0.885565,-0.82723 -0.885565,-1.39146 0,-1.60964 -2.084573,-2.01644 -3.114593,-0.6078 -1.01957,1.39434 -2.55302,0.87559 -2.55302,-0.86366 0,-1.28273 2.6113,-3.76066 3.96307,-3.76066 0.50186,0 1.109501,0.31881 1.350317,0.70845 0.240817,0.38965 0.100229,0.70846 -0.312415,0.70846 -0.412642,0 -0.750262,0.3188 -0.750262,0.70845 0,0.38965 0.637606,0.70845 1.416903,0.70845 1.982935,0 1.778347,-1.99105 -0.301983,-2.93891 -1.9937,-0.90839 -4.78445,-0.37487 -6.37877,1.21945 -1.40268,1.40268 -1.4692,6.7671 -0.11636,9.38322 1.28875,2.49216 0.65751,5.7406 -1.26654,6.51782 l -1.50045,0.6061 1.54341,0.0449 c 0.84888,0.0247 2.0444,-0.45607 2.6567,-1.06838 z m -0.30362,-9.20108 c 0,-0.60747 0.324,-0.90425 0.72001,-0.6595 0.396,0.24474 0.53659,0.74176 0.31241,1.10449 -0.60731,0.98265 -1.03242,0.79942 -1.03242,-0.44499 z m -1.41691,7.83478 c 0,-0.59038 -0.62973,-1.06268 -1.4169,-1.06268 -0.7793,0 -1.4169,0.33762 -1.4169,0.75026 0,0.41265 0.3188,0.55324 0.70845,0.31242 0.38965,-0.24082 0.70845,-0.10023 0.70845,0.31241 0,0.41265 0.3188,0.75027 0.70845,0.75027 0.38965,0 0.70845,-0.47821 0.70845,-1.06268 z m 60.544097,-4.54973 c 1.945451,-3.76209 1.193649,-8.97329 -1.662737,-11.52548 -2.3504,-2.10008 -5.544227,-2.61862 -7.022672,-1.14017 -1.210214,1.21021 -1.051499,2.69211 0.288332,2.69211 0.691368,0 0.987162,-0.39431 0.753185,-1.00404 -0.511539,-1.33305 1.406424,-2.01029 3.110461,-1.09832 1.624779,0.86955 2.564406,4.02909 1.511389,5.08211 -1.052565,1.05257 -3.211776,0.0858 -2.712763,-1.21459 0.241236,-0.62865 9.66e-4,-1.0567 -0.593136,-1.0567 -1.175385,0 -1.431666,0.38167 -2.083624,3.10313 -0.433759,1.81063 -0.325098,1.99764 0.964729,1.66034 0.956918,-0.25024 1.453545,-0.0397 1.453545,0.61624 0,0.54799 -0.318804,0.99635 -0.708452,0.99635 -0.389649,0 -0.708452,0.34414 -0.708452,0.76475 0,0.48835 0.802142,0.58856 2.219427,0.27727 2.206657,-0.48466 2.212771,-0.47797 1.062678,1.16402 -1.735133,2.47725 -1.392775,3.22185 0.61438,1.33622 1.839163,-1.7278 2.341023,-0.9717 1.008125,1.51884 -0.419652,0.78413 -0.539766,1.95868 -0.266917,2.61012 0.409573,0.97788 0.585678,0.87476 1.009821,-0.59128 0.282555,-0.97665 1.075759,-2.86256 1.762681,-4.19092 z M 72.7711,194.16062 c -1.225647,-0.4494 -1.116419,-2.33198 0.135303,-2.33198 1.288615,0 2.170779,1.35965 1.361564,2.09852 -0.336217,0.307 -1.009806,0.41205 -1.496867,0.23346 z m 5.011455,8.44234 c 0.233506,0.58197 0.387552,0.46377 0.423116,-0.32466 0.03547,-0.78613 -0.462534,-1.23979 -1.360972,-1.23979 -0.834691,0 -1.416904,0.4723 -1.416904,1.14943 0,0.90596 0.210489,0.97473 0.993781,0.32465 0.763131,-0.63334 1.079015,-0.61236 1.360979,0.0904 z m -33.405318,-2.02848 c 0.712567,-0.64486 1.295575,-1.60127 1.295575,-2.12535 0,-0.52408 0.518056,-0.95288 1.151235,-0.95288 0.88275,0 1.058806,-0.46214 0.754913,-1.98161 -0.435486,-2.17743 0.582041,-4.50106 1.458999,-3.33178 0.703016,0.93736 4.97489,1.18851 5.509248,0.3239 0.230506,-0.37297 -0.216144,-0.67812 -0.992555,-0.67812 -1.013345,0 -1.47491,-0.54972 -1.635828,-1.94825 -0.160506,-1.39494 -0.676867,-2.01253 -1.818187,-2.17463 -0.876709,-0.12451 -1.594017,-0.52301 -1.594017,-0.88556 0,-0.36255 -0.288467,-0.65918 -0.641037,-0.65918 -0.352572,0 -0.480451,1.19728 -0.284176,2.66061 0.272249,2.02977 0.03527,2.95165 -0.999466,3.88807 -2.298274,2.07991 -5.270464,2.27269 -7.538148,0.48893 -1.696301,-1.33431 -1.961976,-1.99133 -1.741229,-4.30608 0.143272,-1.50234 0.01297,-2.73153 -0.289567,-2.73153 -0.302533,0 -0.55006,0.3188 -0.55006,0.70845 0,0.38965 -0.637607,0.70845 -1.416904,0.70845 -0.779297,0 -1.416904,0.31881 -1.416904,0.70846 0,0.38964 -0.669487,1.37794 -1.487749,2.1962 -1.72911,1.72911 -0.796084,3.65594 1.034603,2.1366 0.800211,-0.66411 1.089312,-0.65317 1.323731,0.0501 0.164957,0.49488 1.072669,0.90669 2.017137,0.91514 1.474076,0.0132 1.683117,0.30528 1.476391,2.0629 -0.208838,1.77557 -0.04417,1.9961 1.239791,1.66034 1.17147,-0.30635 1.480616,-0.0608 1.480616,1.17592 0,1.40091 1.160931,3.2634 2.034149,3.2634 0.183626,0 0.916873,-0.52761 1.629439,-1.17248 z m -2.246684,-4.14091 c 0,-0.58447 0.478205,-1.06267 1.062678,-1.06267 0.584472,0 1.062677,0.4782 1.062677,1.06267 0,0.58448 -0.478205,1.06268 -1.062677,1.06268 -0.584473,0 -1.062678,-0.4782 -1.062678,-1.06268 z m 13.973616,0.58627 c 0.130051,-0.39015 -0.888587,-0.75166 -2.263642,-0.80336 -2.593986,-0.0975 -3.266238,0.9387 -1.654564,2.55038 0.655078,0.65508 1.164963,0.63344 2.263641,-0.0961 0.779959,-0.51787 1.524513,-1.2608 1.654565,-1.65096 z m -23.59566,1.46329 c 1.53485,-0.58897 1.418135,-2.40378 -0.154594,-2.40378 -0.701367,0 -1.657777,-0.38257 -2.125356,-0.85014 -0.661221,-0.66123 -0.850142,-0.59539 -0.850142,0.29628 0,2.8797 0.962692,3.78935 3.130092,2.95764 z m 8.913592,-7.09234 c 0,-0.58447 -0.318804,-0.86565 -0.708452,-0.62483 -0.389649,0.24081 -0.708452,0.91605 -0.708452,1.50052 0,0.58448 0.318803,0.86565 0.708452,0.62483 0.389648,-0.24081 0.708452,-0.91605 0.708452,-1.50052 z m 2.913508,-0.47429 c -0.578569,-0.57857 -0.788152,-0.49928 -0.788152,0.29814 0,1.40831 0.952657,2.36096 1.304732,1.30474 0.149365,-0.4481 -0.0831,-1.16939 -0.51658,-1.60288 z m -0.353269,-1.06934 c 1.319409,0.15403 2.398924,0.0253 2.398924,-0.28614 0,-0.3114 -0.382564,-0.56619 -0.850142,-0.56619 -0.661222,0 -0.661222,-0.18892 0,-0.85014 1.203875,-1.20388 1.057982,-1.68005 -0.514748,-1.68005 -0.75069,0 -1.21008,0.25049 -1.020867,0.55664 0.533857,0.8638 -3.607792,0.65578 -4.489039,-0.22547 -0.570512,-0.57051 -0.762909,-0.10471 -0.711138,1.72167 0.06351,2.24038 0.21389,2.42728 1.429529,1.77669 0.747206,-0.39989 2.438073,-0.60105 3.757481,-0.44701 z m -30.475366,-4.01875 c -0.61222,-2.43931 2.1652,-4.25478 5.54052,-3.62157 1.40877,0.26429 2.616842,0.14897 2.878742,-0.27479 0.248206,-0.40161 -0.06455,-0.73019 -0.695012,-0.73019 -0.63047,0 -0.94606,-0.32401 -0.70131,-0.72001 0.24474,-0.39601 0.75578,-0.52793 1.135639,-0.29316 0.37986,0.23476 1.501739,-0.1046 2.493064,-0.75414 1.457096,-0.95472 1.711824,-1.54191 1.32958,-3.06489 -0.449155,-1.78958 -1.480327,-2.92611 -2.676458,-2.94993 -0.29966,-0.006 -0.345545,0.78319 -0.101968,1.75368 0.321062,1.27922 0.114811,1.89042 -0.749889,2.22224 -1.730598,0.66409 -3.447948,-1.40811 -3.422888,-4.13014 0.023,-2.50179 -0.96417,-4.33811 -1.99099,-3.7035 -0.34549,0.21353 -0.62817,1.13986 -0.62817,2.05852 0,0.91865 -0.39851,1.85978 -0.88557,2.0914 -0.48706,0.23161 -0.15004,0.28326 0.74894,0.11477 1.38405,-0.2594 1.49959,-0.14377 0.75401,0.7546 -0.52412,0.63152 -0.61219,1.25414 -0.2176,1.53827 0.72912,0.52504 2.43402,3.38761 2.43402,4.0868 0,0.24235 -0.7384,0.25531 -1.64089,0.0288 -2.49519,-0.62625 -4.73517,1.30229 -4.73517,4.07682 0,2.11886 0.44168,3.26593 1.25755,3.26593 0.17212,0 0.11536,-0.78728 -0.12615,-1.74951 z m 13.238797,-1.77702 c 0.420666,-1.60863 -2.206775,-2.56901 -2.799877,-1.02341 -0.473422,1.23371 -4.57274,1.34582 -5.76102,0.15754 -0.59073,-0.59073 -0.85014,-0.60874 -0.85014,-0.059 0,1.03186 3.21745,2.11491 6.48242,2.18211 1.947335,0.0401 2.670561,-0.2704 2.928617,-1.2572 z m 51.064555,-1.49702 c 0.914555,-2.60054 -1.087672,-5.42901 -4.26506,-6.02509 -1.757742,-0.32976 -2.340691,-0.75327 -2.05644,-1.49402 0.21819,-0.5686 0.396709,-1.32654 0.396709,-1.68432 0,-0.35778 0.717308,-0.67568 1.594017,-0.70644 0.87671,-0.0308 1.195513,-0.21673 0.708452,-0.41326 -0.48706,-0.19653 -0.885565,-0.96837 -0.885565,-1.7152 0,-0.97609 -0.49797,-1.35787 -1.77113,-1.35787 -1.990566,0 -2.086992,0.21141 -1.012326,2.21944 0.959249,1.79237 -0.846248,4.86508 -2.858681,4.86508 -1.765492,0 -2.562863,-1.30326 -1.133059,-1.85193 0.609169,-0.23376 1.107581,-0.70971 1.107581,-1.05767 0,-1.01793 -2.58205,-0.72696 -3.514015,0.39599 -1.376802,1.65894 -0.539723,3.51967 1.946208,4.3262 1.271281,0.41245 2.112939,0.94839 1.870351,1.19098 -0.242588,0.24259 -0.940404,0.24945 -1.550703,0.0153 -0.732211,-0.28098 -0.935399,-0.14389 -0.597379,0.40304 0.609428,0.98607 3.009248,1.10322 3.582981,0.1749 0.872223,-1.41129 4.694649,-1.64031 6.103108,-0.36568 1.690451,1.52984 1.714886,2.29512 0.129533,4.0571 -1.187372,1.31965 -1.1805,1.36665 0.162477,1.11158 0.771242,-0.14649 1.690564,-1.08613 2.042941,-2.0881 z m -7.194494,-0.73629 c 1.444731,-0.3601 2.81846,-0.96487 3.052732,-1.34393 0.607182,-0.98244 -0.506082,-0.85443 -3.519643,0.40472 -2.581939,1.0788 -5.347905,0.85475 -5.347905,-0.43321 0,-0.87889 -1.925551,-0.8487 -2.474056,0.0388 -0.237777,0.38473 -0.01749,1.15318 0.489528,1.70766 0.934899,1.02243 2.497225,0.9475 7.799344,-0.37405 z m -15.545807,0.37719 c 0.695637,-0.69563 -0.273942,-2.44041 -1.079486,-1.94256 -0.429537,0.26547 -0.533888,0.12017 -0.247034,-0.34397 0.52663,-0.8521 -1.28912,-6.92875 -2.509896,-8.39969 -0.397988,-0.47955 -0.530061,-1.18508 -0.293497,-1.56785 0.236565,-0.38277 -0.03261,-0.9549 -0.598167,-1.2714 -0.565556,-0.3165 -0.970766,-1.2128 -0.900466,-1.99178 0.09948,-1.10226 -0.264929,-1.38725 -1.643311,-1.28516 -1.023488,0.0758 -1.247781,-0.0209 -0.531339,-0.22906 1.538905,-0.44714 1.608881,-2.61985 0.131944,-4.09679 -0.609316,-0.60931 -0.921414,-1.4095 -0.693551,-1.77819 0.227862,-0.36869 0.0091,-0.92904 -0.48617,-1.24522 -0.88036,-0.56205 -2.671595,-3.34407 -2.671595,-4.14934 0,-0.22311 0.315152,-0.21088 0.700337,0.0272 0.401593,0.2482 0.520363,-0.0362 0.278429,-0.66664 -0.474123,-1.23555 -0.925106,-1.3366 -2.240321,-0.50202 -1.023484,0.64945 -2.2192,3.63402 -7.636895,19.06209 l -3.793879,10.80389 h 11.895705 c 6.542637,0 12.086274,-0.19057 12.319192,-0.42349 z m -21.4098,-1.87898 c 0.0171,-0.48706 0.505741,-2.16078 1.085863,-3.71937 0.580122,-1.5586 2.321163,-6.4751 3.868981,-10.92556 1.547818,-4.45046 2.958336,-8.23587 3.134484,-8.41202 0.397307,-0.39731 1.554293,2.20828 5.598133,12.60729 4.966808,12.77247 5.577345,11.33523 -4.815166,11.33523 -6.666996,0 -8.89558,-0.22244 -8.872295,-0.88557 z m 3.47869,-1.30047 c -0.434927,-0.81266 -0.931853,-1.3365 -1.104279,-1.16407 -0.495844,0.49584 0.509355,2.64165 1.237475,2.64165 0.361899,0 0.302007,-0.66439 -0.133196,-1.47758 z m 2.866282,0.41491 c 0,-0.58448 -0.125294,-1.06268 -0.27843,-1.06268 -0.153136,0 -0.461934,0.4782 -0.686217,1.06268 -0.224284,0.58447 -0.09899,1.06267 0.278429,1.06267 0.37742,0 0.686218,-0.4782 0.686218,-1.06267 z m 4.506906,0 c -0.224283,-0.58448 -0.533081,-1.06268 -0.686217,-1.06268 -0.153136,0 -0.278429,0.4782 -0.278429,1.06268 0,0.58447 0.308797,1.06267 0.686217,1.06267 0.37742,0 0.502713,-0.4782 0.278429,-1.06267 z m 4.702969,-1.93902 c 0,-0.92012 -3.015737,1.0679 -3.40882,2.24715 -0.194235,0.58271 0.348783,0.47124 1.55519,-0.31922 1.019497,-0.668 1.85363,-1.53557 1.85363,-1.92793 z m -5.90273,-1.54831 c -0.545823,-1.42239 -2.514851,-1.45199 -3.054412,-0.0459 -0.226188,0.58943 -0.0045,1.56184 0.492715,2.16091 0.796063,0.9592 1.028501,0.96468 1.947266,0.0459 0.573814,-0.57381 0.850309,-1.54622 0.614431,-2.16091 z m -4.105189,-0.11239 c 0.42868,-0.38175 -0.523916,-2.42263 -1.127965,-2.4166 -0.304465,0.003 -0.928723,0.81412 -1.38724,1.8024 -0.774886,1.67018 -0.724932,1.76349 0.708452,1.32337 0.848165,-0.26043 1.661204,-0.57955 1.806753,-0.70917 z m 8.138758,-0.65099 c -0.224283,-0.58448 -1.090987,-1.06756 -1.926008,-1.07353 -1.122016,-0.008 -1.267334,-0.16982 -0.556843,-0.62001 0.605955,-0.38395 0.783535,-1.16949 0.480334,-2.12479 -0.264575,-0.8336 -0.792377,-1.32323 -1.172893,-1.08805 -0.444136,0.27449 -0.428074,0.74541 0.04486,1.31526 0.405189,0.48822 0.526937,1.09745 0.270552,1.35383 -0.789603,0.7896 -4.144914,0.51561 -5.136033,-0.41941 -0.75756,-0.71468 -0.876866,-0.6805 -0.618266,0.17711 0.191072,0.63367 1.370841,1.15145 2.922364,1.28256 1.690215,0.14283 2.601931,0.57726 2.601931,1.23979 0,0.61215 0.699216,1.01991 1.748896,1.01991 1.263511,0 1.635719,-0.29493 1.341106,-1.06267 z m -4.506906,-7.43875 c 0.389648,0 0.708452,0.3188 0.708452,0.70845 0,0.38965 0.318803,0.70845 0.708451,0.70845 1.067529,0 0.851605,-1.95673 -0.432121,-3.91594 -0.627315,-0.9574 -0.964252,-2.20022 -0.748747,-2.76182 0.257598,-0.67128 -0.04424,-0.98823 -0.881075,-0.92519 -0.847375,0.0638 -1.163752,0.51327 -0.946394,1.34445 0.179579,0.68671 -0.185892,1.76097 -0.812159,2.38724 -0.626267,0.62626 -1.138667,2.0723 -1.138667,3.21342 v 2.07475 l 1.416904,-1.41691 c 0.779297,-0.77929 1.735707,-1.4169 2.125356,-1.4169 z m -29.064071,9.51798 c -1.11178,-2.92421 -0.80111,-7.55744 0.66832,-9.96726 1.80923,-2.96707 5.71421,-5.85918 9.424674,-6.9801 2.972186,-0.8979 2.992941,-0.92556 1.071296,-1.42772 -1.077785,-0.28165 -2.592101,-0.34669 -3.365146,-0.14453 -0.887374,0.23205 -1.405534,0.0162 -1.405534,-0.58553 0,-0.6835 -0.95186,-0.91523 -3.36515,-0.81924 -3.07182,0.12218 -3.36024,-0.005 -3.30889,-1.46017 0.0309,-0.87671 -0.20817,-1.59402 -0.53134,-1.59402 -0.68345,0 -0.78441,2.91347 -0.15757,4.547 0.23651,0.61634 1.21509,1.12062 2.17463,1.12062 1.40468,0 1.70005,0.31059 1.51593,1.59402 -0.16238,1.13186 -0.65682,1.55099 -1.70537,1.44564 -1.2289,-0.12348 -1.61486,0.45024 -2.30017,3.41919 -1.04846,4.54215 -1.04895,8.56561 -0.001,10.86489 1.07417,2.35754 2.18266,2.34652 1.28565,-0.0128 z m 4.05136,-16.34709 c -0.566,-0.566 0.0738,-1.67231 0.96715,-1.67231 0.36666,0 0.66665,0.4782 0.66665,1.06267 0,1.09556 -0.83595,1.40749 -1.6338,0.60964 z m 9.042878,11.4882 c -0.674467,-1.02936 -1.035655,-2.80058 -0.901897,-4.42279 0.176661,-2.14251 0.628698,-2.89927 2.171351,-3.63507 1.071534,-0.51109 1.948243,-1.19709 1.948243,-1.52444 0,-0.89445 -4.885491,0.38622 -6.276877,1.64541 -0.690447,0.62485 -1.855894,0.93093 -2.702058,0.70966 -1.58248,-0.41383 -2.87094,0.74955 -1.6594,1.49832 0.396,0.24474 0.72001,1.52317 0.72001,2.84095 0,2.74809 1.00245,3.70549 2.542012,2.42777 0.874211,-0.72553 1.253372,-0.61052 2.134495,0.64746 0.589298,0.84134 1.538927,1.52971 2.110288,1.52971 0.889114,0 0.876695,-0.24747 -0.08617,-1.71698 z m -4.575275,-4.25292 c 0,-0.65718 0.605724,-1.11462 1.475942,-1.11462 1.726529,0 1.482485,1.65549 -0.294857,2.00019 -0.699075,0.13558 -1.181085,-0.22583 -1.181085,-0.88557 z m 7.792972,2.93645 c 1.502915,-1.22057 1.786238,-4.75952 0.38104,-4.75952 -0.599221,0 -1.089492,0.44835 -1.089492,0.99635 0,0.67164 -0.497867,0.86616 -1.527686,0.59685 -1.046704,-0.27372 -1.368117,-0.14131 -1.020867,0.42055 0.27875,0.45103 0.947394,0.82005 1.485875,0.82005 0.538481,0 1.209571,0.37298 1.491311,0.82885 0.342419,0.55404 0.128918,0.68174 -0.643953,0.38517 -1.19985,-0.46043 -2.212614,0.37261 -1.418474,1.16675 0.633292,0.63329 1.118114,0.5391 2.342246,-0.45505 z m 31.566285,-1.92572 c 0.562378,0 1.022506,-0.3188 1.022506,-0.70845 0,-0.38965 -0.614835,-0.70845 -1.3663,-0.70845 -0.751466,0 -1.836313,-0.47001 -2.410772,-1.04447 -0.920328,-0.92033 -1.093334,-0.91714 -1.455564,0.0268 -0.229787,0.59882 0.05009,1.24827 0.634601,1.47256 0.723093,0.27748 0.914381,0.97953 0.620049,2.27565 l -0.425643,1.87439 1.179309,-1.59402 c 0.648619,-0.87671 1.639436,-1.59402 2.201814,-1.59402 z m -28.595807,-9.10678 -1.613291,-1.21691 1.748544,-1.64267 c 1.034011,-0.9714 2.10421,-1.42286 2.618902,-1.10476 0.53315,0.32951 0.688999,0.24447 0.402257,-0.21949 -0.257457,-0.41657 -0.06761,-0.91887 0.421876,-1.11621 0.546412,-0.22029 0.420886,-0.3804 -0.32516,-0.41474 -0.668327,-0.0308 -2.326612,0.91996 -3.685079,2.11271 -2.03423,1.78608 -2.717721,2.03602 -3.874563,1.4169 -2.109388,-1.12891 -2.366626,-0.91213 -0.78932,0.66517 0.779297,0.7793 1.834177,1.41691 2.344176,1.41691 0.509999,0 1.545609,0.45214 2.301355,1.00475 0.755746,0.55262 1.529223,0.84962 1.718838,0.66 0.189616,-0.18961 -0.381225,-0.89236 -1.268535,-1.56166 z m -8.5192,-3.55688 c -0.736471,-0.46686 -0.536122,-1.03816 0.912079,-2.60079 2.102683,-2.26884 2.112861,-4.20608 0.02224,-4.2347 -2.358186,-0.0323 -3.889975,1.0466 -3.831098,2.69835 0.03076,0.863 0.21673,1.17058 0.413264,0.68352 0.381553,-0.94559 2.371954,-1.24513 2.353765,-0.35422 -0.03008,1.47315 -1.402483,2.39345 -3.254063,2.18208 -2.18047,-0.24891 -2.24025,-0.50802 -1.26521,-5.48314 0.40189,-2.05063 0.29823,-2.34826 -0.68628,-1.97047 -0.83191,0.31923 -1.15967,0.0508 -1.15967,-0.94966 0,-0.76707 -0.3188,-1.39467 -0.70845,-1.39467 -0.96013,0 -0.9053,4.75388 0.0617,5.35153 0.42359,0.2618 0.62207,1.04233 0.44106,1.73452 -0.47874,1.83071 0.28121,2.6804 3.42785,3.83262 3.172813,1.16181 4.674365,1.39352 3.272789,0.50503 z m 7.125616,-1.53526 2.319592,-1.44679 -2.125356,0.53259 c -1.168946,0.29292 -2.842664,0.4995 -3.719373,0.45905 -1.576442,-0.0727 -2.037038,0.51431 -1.121715,1.42964 0.819463,0.81946 2.252474,0.51894 4.646852,-0.97449 z m 39.567817,-1.33252 c 2.492375,-2.49238 2.857857,-6.3067 0.731543,-7.6346 -1.455749,-0.90913 -1.379569,-1.16012 -1.490371,4.91029 -0.05725,3.13671 -1.929122,4.62294 -4.254832,3.37826 -1.649302,-0.88268 -1.91526,-3.54226 -0.354226,-3.54226 0.584473,0 1.062678,0.47821 1.062678,1.06268 0,0.58447 0.318803,1.06268 0.708452,1.06268 0.389648,0 0.708452,-0.63761 0.708452,-1.41691 0,-0.77929 -0.379736,-1.4169 -0.843859,-1.4169 -0.464122,0 -0.256424,-0.42954 0.46155,-0.95454 0.904514,-0.66139 1.054882,-1.10937 0.489632,-1.45871 -0.448676,-0.2773 -0.815775,-1.12297 -0.815775,-1.87927 0,-1.70322 -1.10156,-1.80182 -1.733445,-0.15516 -0.29584,0.77095 -0.649662,0.94035 -0.961361,0.46029 -1.049569,-1.61651 -3.552438,-2.40259 -5.406006,-1.69786 -2.316594,0.88077 -2.338102,1.33757 -0.04232,0.8987 2.691327,-0.51448 3.847537,0.90372 3.772789,4.62767 -0.05149,2.56529 0.271101,3.52737 1.522535,4.54072 2.2487,1.82088 4.05914,1.60034 6.44456,-0.78508 z m -6.430564,-5.36789 c 0.485069,-0.58447 1.200747,-1.06268 1.590396,-1.06268 0.395193,0 0.31848,0.46989 -0.173492,1.06268 -0.48507,0.58447 -1.200748,1.06268 -1.590396,1.06268 -0.395194,0 -0.318481,-0.46989 0.173492,-1.06268 z m -4.474126,0.31835 c 0.08395,-1.11358 -0.0011,-1.27566 -0.237352,-0.4524 -0.286001,0.99656 -0.813982,1.18493 -2.365836,0.84409 -1.12625,-0.24737 -2.199851,-0.11163 -2.461154,0.31116 -0.876437,1.41811 -1.962173,0.75113 -1.627468,-0.99976 0.183961,-0.96233 0.06173,-1.58112 -0.271637,-1.37509 -1.181222,0.73003 -0.586946,3.76631 0.947524,4.8411 1.409777,0.98744 1.754173,0.97144 3.719373,-0.17282 1.380915,-0.80405 2.213142,-1.88984 2.29655,-2.99628 z m -46.888646,2.86968 c 0.24082,-0.38964 0.10023,-0.70845 -0.31241,-0.70845 -0.41265,0 -0.75026,0.31881 -0.75026,0.70845 0,0.38965 0.14058,0.70846 0.31241,0.70846 0.17183,0 0.50945,-0.31881 0.75026,-0.70846 z m 23.841466,-1.0175 c 0.839663,-1.84286 0.413401,-3.94166 -0.800542,-3.94166 -0.466272,0 -0.419265,0.50828 0.12806,1.38469 0.475613,0.76157 0.59407,1.63828 0.263239,1.94824 -0.330831,0.30996 -0.743834,0.16505 -0.917784,-0.32201 -0.436612,-1.22251 -2.319249,-1.10906 -3.797626,0.22885 -1.129162,1.02188 -1.269952,0.99299 -1.69553,-0.34789 -0.255263,-0.80426 -0.278935,-1.76192 -0.0526,-2.12813 0.226331,-0.36622 0.08751,-0.86609 -0.308497,-1.11083 -1.183573,-0.73149 -0.829737,3.6784 0.393274,4.90141 0.612301,0.61231 2.213154,1.11329 3.557445,1.11329 1.902554,0 2.618427,-0.38246 3.230563,-1.72596 z m -11.825378,-2.56941 c 0.385314,0.62345 0.785447,0.39754 1.378448,-0.77824 0.619089,-1.22751 1.43041,-1.65454 3.131847,-1.64838 2.021275,0.007 2.149894,-0.0988 1.073869,-0.88557 -1.63191,-1.19328 -3.44945,-1.12864 -4.746906,0.16881 -1.214161,1.21416 -2.580789,1.40174 -2.580789,0.35423 0,-0.38965 -0.239102,-0.70845 -0.531339,-0.70845 -0.292236,0 -0.491488,0.95641 -0.442782,2.12535 0.131047,3.14513 0.181572,3.21963 1.220207,1.79921 0.711982,-0.97369 1.092494,-1.08219 1.497445,-0.42696 z M 15.047024,147.329 c 0.15573,-0.4672 -0.36599,-0.84129 -1.17328,-0.84129 -1.01883,0 -1.32828,0.32686 -1.03443,1.09262 0.46401,1.20917 1.77045,1.06044 2.20771,-0.25133 z m 26.847378,-0.79055 c 0,-1.81913 -0.247187,-2.06759 -2.007281,-2.01754 -2.273562,0.0646 -2.844534,1.9668 -0.590376,1.9668 0.787168,0 1.416904,0.4723 1.416904,1.06268 0,0.58447 0.265669,1.06268 0.590376,1.06268 0.324708,0 0.590377,-0.93358 0.590377,-2.07462 z m 37.784105,-0.52304 c 0,-3.03628 -0.328637,-2.93343 -0.943204,0.29519 -0.251834,1.32299 -0.144433,2.30247 0.252464,2.30247 0.379907,0 0.69074,-1.16895 0.69074,-2.59766 z m -2.125356,1.18075 c 0,-0.38965 -0.478205,-0.70845 -1.062678,-0.70845 -0.584473,0 -1.062678,0.3188 -1.062678,0.70845 0,0.38965 0.478205,0.70846 1.062678,0.70846 0.584473,0 1.062678,-0.31881 1.062678,-0.70846 z M 52.882369,145.0429 c 1.11694,-1.14538 1.057657,-1.21142 -0.994855,-1.10819 -1.657788,0.0834 -2.239461,0.48255 -2.419179,1.66018 -0.185251,1.21388 0.0307,1.45442 0.994854,1.10819 0.677306,-0.24322 1.765937,-0.9903 2.41918,-1.66018 z m 14.657995,-2.09745 c 6.026564,0 10.776683,-0.1807 10.555823,-0.40156 -0.619903,-0.61991 -33.163181,-0.89819 -35.965634,-0.30755 -1.706486,0.35965 -0.105072,0.55167 5.136276,0.61585 5.399332,0.0661 7.615859,0.34069 7.615859,0.9434 0,0.66123 0.188921,0.66123 0.850142,0 0.587934,-0.58793 4.229721,-0.85014 11.807534,-0.85014 z m -28.302657,-0.26458 c -0.162354,-0.14552 -4.71458,-0.49188 -10.11606,-0.76969 -7.004101,-0.36023 -9.684433,-0.28435 -9.345173,0.26458 0.30465,0.49294 3.942015,0.76969 10.116055,0.76969 5.302202,0 9.507531,-0.11906 9.345178,-0.26458 z"
       id="path10470" />
  </g>
</svg>
