<?xml version="1.0" encoding="UTF-8" standalone="no"?>
<!-- Created with Inkscape (http://www.inkscape.org/) -->

<svg
   width="35.811443mm"
   height="33.463303mm"
   viewBox="0 0 35.811456 33.463299"
   version="1.1"
   id="svg5"
   inkscape:version="1.1 (c4e8f9ed74, 2021-05-24)"
   sodipodi:docname="ornatet4.svg"
   xmlns:inkscape="http://www.inkscape.org/namespaces/inkscape"
   xmlns:sodipodi="http://sodipodi.sourceforge.net/DTD/sodipodi-0.dtd"
   xmlns="http://www.w3.org/2000/svg"
   xmlns:svg="http://www.w3.org/2000/svg">
  <sodipodi:namedview
     id="namedview7"
     pagecolor="#ffffff"
     bordercolor="#666666"
     borderopacity="1.0"
     inkscape:pageshadow="2"
     inkscape:pageopacity="0.0"
     inkscape:pagecheckerboard="0"
     inkscape:document-units="mm"
     showgrid="false"
     inkscape:zoom="1.3380612"
     inkscape:cx="-317.99742"
     inkscape:cy="78.845424"
     inkscape:window-width="2506"
     inkscape:window-height="1403"
     inkscape:window-x="1974"
     inkscape:window-y="0"
     inkscape:window-maximized="1"
     inkscape:current-layer="layer1" />
  <defs
     id="defs2" />
  <g
     inkscape:label="Layer 1"
     inkscape:groupmode="layer"
     id="layer1"
     transform="translate(58.334528,-75.507336)">
    <path
       style="fill:#000000;stroke-width:0.264583"
       d="m -57.353886,108.71899 c -0.0947,-0.15328 -0.0901,-0.98672 0.0104,-1.85208 0.15157,-1.30591 0.26815,-1.57338 0.6858,-1.57338 0.45922,0 0.50319,-0.21965 0.50319,-2.51354 0,-2.05787 -0.0719,-2.51355 -0.39688,-2.51355 -0.21828,0 -0.39687,-0.12133 -0.39687,-0.269618 0,-0.153842 -0.27771,-0.199925 -0.64671,-0.107313 l -0.6467,0.162311 0.0514,-3.200156 c 0.0283,-1.760085 -0.0144,-3.200076 -0.0948,-3.199979 -0.0804,9.8e-5 -0.0607,-0.684432 0.0438,-1.521177 0.10453,-0.836745 0.20085,-1.759479 0.21405,-2.050521 0.0132,-0.291041 0.35067,-0.737659 0.74993,-0.992484 0.39926,-0.254824 1.13049,-0.76084 1.62495,-1.124479 0.85086,-0.625741 0.86504,-0.661473 0.26459,-0.666972 -0.89126,-0.0082 -2.88454,-0.957314 -2.87775,-1.370316 0.003,-0.189016 0.47936,-0.678809 1.05833,-1.088428 1.13414,-0.802389 1.27828,-1.096428 0.65479,-1.335685 -0.35015,-0.134363 -0.34439,-0.28859 0.0479,-1.285078 0.2452,-0.622815 0.52979,-1.191922 0.63242,-1.264682 0.10263,-0.07276 0.59102,-0.787136 1.08531,-1.5875 2.39176,-3.872766 2.46836,-3.974731 2.86544,-3.814429 0.21835,0.08815 5.78686,0.226295 12.37446,0.306991 l 11.97746,0.14672 0.48787,1.085047 c 1.00255,2.229676 3.55411,5.715254 4.18376,5.715254 0.34276,0 0.37211,0.993926 0.22853,7.739062 -0.19973,9.382688 -0.26073,9.943462 -1.11706,10.269042 -0.61709,0.23461 -0.63629,0.32198 -0.56242,2.55867 l 0.0765,2.31577 0.79375,0.13571 c 0.75272,0.12869 0.79793,0.20868 0.87456,1.54743 l 0.0808,1.41172 -4.44644,-0.17808 c -2.44554,-0.0979 -4.68456,-0.18481 -4.9756,-0.19303 -0.29104,-0.008 -5.64885,0.11941 -11.90625,0.28363 -13.91971,0.36532 -13.29294,0.36416 -13.50247,0.0251 z m 12.84101,-0.78052 c 0.52524,-0.003 0.57973,-0.0575 0.26459,-0.26226 -0.255,-0.16571 -0.28083,-0.25936 -0.0722,-0.26197 0.17855,-0.002 0.49357,-0.27194 0.70006,-0.59936 0.50571,-0.80191 0.82487,-1.89737 0.49304,-1.69229 -0.14232,0.088 -0.32516,0.48983 -0.40632,0.89303 -0.26796,1.33125 -1.32224,1.67994 -5.14055,1.70021 l -3.37919,0.0179 0.0923,-1.02169 c 0.0954,-1.05623 -0.0872,-1.06796 -0.60036,-0.0386 -0.58535,1.1741 -3.06382,1.33789 -3.06382,0.20248 0,-0.28951 -0.17766,-0.52413 -0.39687,-0.52413 -0.21828,0 -0.39688,0.11906 -0.39688,0.26458 0,0.14552 0.099,0.26459 0.21988,0.26459 0.12093,0 0.3776,0.29471 0.57038,0.65492 l 0.3505,0.65493 5.05202,-0.12404 c 2.77861,-0.0682 5.34967,-0.12599 5.71347,-0.12837 z m 19.04234,-0.27403 c -0.48377,-0.30594 -1.84442,-0.33212 -1.84442,-0.0355 0,0.12032 0.34309,0.16841 0.76242,0.10686 0.41933,-0.0615 0.84797,0.0265 0.95253,0.19572 0.10457,0.16919 0.26405,0.23369 0.3544,0.14334 0.0904,-0.0904 -0.0109,-0.27505 -0.22493,-0.41043 z m 0.98477,-0.44765 c -0.0671,-0.25743 -0.12638,-0.11087 -0.13178,0.32569 -0.005,0.43657 0.0495,0.64719 0.12197,0.46806 0.0725,-0.17913 0.0769,-0.53632 0.01,-0.79375 z m -31.75262,0.14379 c -0.0845,-0.21106 -0.14715,-0.14837 -0.15985,0.15986 -0.0115,0.27891 0.0511,0.43518 0.13897,0.34726 0.0879,-0.0879 0.0973,-0.31612 0.0209,-0.50712 z m 17.46533,0.20752 c 0.0282,-0.022 -0.0732,-0.57252 -0.22543,-1.22341 -0.29467,-1.26036 -0.1389,-9.499222 0.31002,-16.396994 0.13733,-2.110052 0.25223,-5.421864 0.25535,-7.359581 0.003,-1.937718 0.12891,-3.753421 0.27955,-4.034896 0.2408,-0.449932 0.5685,-0.510991 2.71198,-0.505305 4.11383,0.01091 6.39605,0.840009 9.13498,3.31859 0.90061,0.815012 1.63748,1.419555 1.63748,1.343427 0,-0.07613 -0.65858,-1.056338 -1.46351,-2.178244 -0.80493,-1.121907 -1.66404,-2.379297 -1.90913,-2.794202 l -0.44562,-0.754372 -9.46795,-0.05918 c -5.20737,-0.03255 -10.44567,-0.06232 -11.64065,-0.06615 l -2.17269,-0.007 -1.91059,2.778125 c -1.05082,1.527969 -1.91858,2.857109 -1.92835,2.953644 -0.01,0.09654 0.61301,-0.439246 1.38395,-1.190625 1.54495,-1.505762 3.52555,-2.575205 5.72121,-3.089236 1.73822,-0.406936 7.03116,-0.499255 7.39546,-0.128991 0.17078,0.173568 0.0869,3.905174 -0.24388,10.847916 -0.27731,5.820833 -0.5069,11.599184 -0.51018,12.840774 -0.005,1.97213 -0.21521,3.20298 -0.9286,5.44322 -0.1722,0.54072 -0.11715,0.55321 1.89399,0.42966 1.13923,-0.07 2.09441,-0.14524 2.12261,-0.16721 z m 14.81384,-0.20752 c -0.0845,-0.21106 -0.14716,-0.14837 -0.15985,0.15986 -0.0115,0.27891 0.051,0.43518 0.13896,0.34726 0.0879,-0.0879 0.0973,-0.31612 0.0209,-0.50712 z m -12.59349,-0.0554 c -0.17776,-0.21418 -0.54695,-0.30673 -0.87812,-0.22013 -0.54816,0.14335 -0.55046,0.15763 -0.0564,0.35097 0.88798,0.34749 1.28535,0.29186 0.93454,-0.13084 z m 8.07078,-1.15179 c -0.0682,-0.69122 -0.13124,-2.1795 -0.14001,-3.30729 -0.0129,-1.6547 -0.0939,-2.05052 -0.41962,-2.05052 -0.34199,0 -0.39893,0.50549 -0.37259,3.30729 0.029,3.08456 0.0656,3.30729 0.54369,3.30729 0.45254,0 0.49806,-0.14724 0.38853,-1.25677 z m -19.96407,0.51667 c -0.3442,-0.0542 -0.7349,0.0106 -0.86821,0.14393 -0.14678,0.14679 0.10005,0.18561 0.62583,0.0984 0.73473,-0.1218 0.77199,-0.15907 0.24238,-0.24238 z m 1.67287,-0.0719 c -0.24881,-0.40257 -0.64634,-0.2796 -0.48184,0.14906 0.0834,0.21744 0.26024,0.32828 0.39288,0.2463 0.13265,-0.082 0.17268,-0.25989 0.089,-0.39536 z m 1.57716,0.38685 c 0.23018,-0.0883 0.41851,-0.44552 0.41851,-0.79375 0,-0.49897 -0.14018,-0.63315 -0.66146,-0.63315 -0.55856,0 -0.66146,0.12347 -0.66146,0.79375 0,0.80774 0.15913,0.91914 0.90441,0.63315 z m 12.53643,-0.1569 c 0.17462,-0.17463 0.3175,-0.53181 0.3175,-0.79375 0,-0.37985 -0.2159,-0.47625 -1.06664,-0.47625 -0.70804,0 -1.11827,0.13456 -1.22023,0.40024 -0.34953,0.91088 1.23046,1.60867 1.96937,0.86976 z m 1.84672,-3.18619 c 0.0675,-3.07059 0.0348,-3.34986 -0.37414,-3.19293 -0.32697,0.12547 -0.38958,0.0772 -0.23157,-0.17846 0.1423,-0.23024 0.11421,-0.287157 -0.0819,-0.16595 -0.20032,0.12379 -0.28524,1.31541 -0.2582,3.62305 0.0348,2.96986 0.097,3.42771 0.45604,3.35889 0.34723,-0.0666 0.42795,-0.63433 0.48977,-3.4446 z m 0.91064,-0.28132 c 0.0405,-1.99304 -0.0156,-3.623618 -0.12476,-3.623512 -0.10914,1.06e-4 -0.19844,1.686912 -0.19844,3.748452 0,2.06154 0.0561,3.69212 0.12476,3.62351 0.0686,-0.0686 0.15791,-1.75542 0.19844,-3.74845 z m 4.70389,0.61001 v -3.175 h -1.19063 -1.19062 v 3.04775 3.04775 l 0.64229,-0.16121 c 0.35326,-0.0887 0.85927,-0.035 1.12448,0.11921 0.2652,0.15422 0.51195,0.28403 0.54833,0.28845 0.0364,0.004 0.0662,-1.4207 0.0662,-3.16695 z m -28.05515,2.39864 c 0.15064,-0.28147 0.2739,-1.21552 0.2739,-2.07565 0,-1.21275 -0.11547,-1.66838 -0.51425,-2.02928 -0.28284,-0.25596 -0.55073,-0.77941 -0.59531,-1.16322 -0.048,-0.41295 -0.27039,-0.73374 -0.54482,-0.78579 -0.42153,-0.0799 -0.4604,0.18481 -0.4269,2.90815 0.0203,1.64786 0.0929,3.14494 0.16133,3.32684 0.1941,0.5157 1.34066,0.3896 1.64605,-0.18105 z m 3.14219,-0.26142 c 0.0694,-0.48876 0.14478,-0.54923 0.32668,-0.26188 0.19136,0.30229 0.23728,0.28523 0.24056,-0.0894 0.002,-0.25466 -0.14478,-0.47242 -0.32668,-0.48391 -0.26458,-0.0167 -0.26458,-0.0476 0,-0.15434 0.1819,-0.0734 0.33073,-0.29221 0.33073,-0.48623 0,-0.19403 -0.14883,-0.41317 -0.33073,-0.48698 -0.25471,-0.10335 -0.24588,-0.19348 0.0384,-0.39212 0.30111,-0.2104 0.27673,-0.2816 -0.13229,-0.38633 -0.4249,-0.1088 -0.41057,-0.13308 0.0939,-0.15909 0.38779,-0.02 0.58803,-0.1921 0.57443,-0.49371 -0.0125,-0.27661 -0.0746,-0.32987 -0.15435,-0.13229 -0.20921,0.51848 -0.61852,0.38716 -0.61852,-0.19844 0,-0.29398 0.17639,-0.52917 0.39688,-0.52917 0.21828,0 0.39687,-0.11906 0.39687,-0.26458 0,-0.43867 -0.41251,-0.30108 -1.15199,0.38424 -0.64633,0.59901 -0.70009,0.81382 -0.70009,2.79753 0,1.90361 0.0528,2.13863 0.46302,2.06045 0.25466,-0.0485 0.5036,-0.37423 0.55319,-0.72375 z m 12.47754,0.65652 c 0,-0.0642 -0.13746,-0.20163 -0.30546,-0.30546 -0.18926,-0.11697 -0.23365,-0.0726 -0.11668,0.11667 0.1885,0.305 0.42214,0.40949 0.42214,0.18879 z m 2.38125,-0.67707 c 0,-0.35278 -0.17639,-0.52917 -0.52917,-0.52917 -0.57903,0 -0.72933,0.66888 -0.19843,0.8831 0.60087,0.24246 0.7276,0.18082 0.7276,-0.35393 z m -16.40417,-1.5875 c 0,-0.43656 -0.12803,-0.79375 -0.28452,-0.79375 -0.15649,0 -0.24904,-0.33826 -0.20568,-0.7517 0.0538,-0.51253 -0.15034,-1.02407 -0.64151,-1.6078 -0.81835,-0.97255 -0.99554,-0.70752 -0.2017,0.30169 0.31674,0.40267 0.56359,1.21487 0.63405,2.0862 0.13569,1.67808 0.10252,1.55911 0.43478,1.55911 0.14552,0 0.26458,-0.35719 0.26458,-0.79375 z m 4.7625,0.39687 c 0.28247,-0.34035 0.19289,-0.39687 -0.62906,-0.39687 -0.90429,0 -1.18099,0.21842 -0.78205,0.61736 0.30898,0.30897 1.07044,0.19 1.41111,-0.22049 z m 3.11437,-0.0827 c 0.0576,-0.17281 -0.0838,-0.31419 -0.31419,-0.31419 -0.23041,0 -0.41893,0.18851 -0.41893,0.41892 0,0.46723 0.56959,0.38586 0.73312,-0.10473 z m 7.46897,0.36288 c 0,-0.27926 -0.50777,-0.39659 -0.65879,-0.15222 -0.0914,0.14789 0.0194,0.2689 0.2463,0.2689 0.22687,0 0.41249,-0.0525 0.41249,-0.11668 z m 3.0427,-0.14791 c -0.0899,-0.14552 -0.38759,-0.26458 -0.66145,-0.26458 -0.27387,0 -0.57153,0.11906 -0.66146,0.26458 -0.0957,0.15478 0.17884,0.26459 0.66146,0.26459 0.48261,0 0.75711,-0.10981 0.66145,-0.26459 z m -4.83003,-0.92604 c -0.0695,-0.3638 -0.1721,-0.66146 -0.22789,-0.66146 -0.0558,0 -0.10145,0.29766 -0.10145,0.66146 0,0.3638 0.10255,0.66146 0.22789,0.66146 0.12534,0 0.171,-0.29766 0.10145,-0.66146 z m 2.97795,0.39688 c 0.0899,-0.14552 -0.0816,-0.26459 -0.38126,-0.26459 -0.29963,0 -0.54478,0.11907 -0.54478,0.26459 0,0.14552 0.17157,0.26458 0.38126,0.26458 0.20969,0 0.45484,-0.11906 0.54478,-0.26458 z m -7.88905,-0.57878 c -0.0845,-0.21106 -0.14716,-0.14837 -0.15985,0.15986 -0.0115,0.27891 0.051,0.43518 0.13896,0.34726 0.0879,-0.0879 0.0973,-0.31612 0.0209,-0.50712 z m 10.73332,0.40355 c -0.1819,-0.0734 -0.47956,-0.0734 -0.66146,0 -0.1819,0.0734 -0.0331,0.13345 0.33073,0.13345 0.3638,0 0.51263,-0.0601 0.33073,-0.13345 z m -12.55101,-0.68467 c 0.0655,-0.34388 -0.0869,-0.46302 -0.59261,-0.46302 -0.5121,0 -0.68086,0.13572 -0.68086,0.54757 0,0.41588 0.14252,0.52723 0.59261,0.46302 0.32594,-0.0465 0.63232,-0.29291 0.68086,-0.54757 z m -2.13887,0.17088 c -0.0879,-0.0879 -0.31613,-0.0973 -0.50712,-0.0209 -0.21107,0.0845 -0.14837,0.14715 0.15985,0.15985 0.27891,0.0115 0.43518,-0.051 0.34727,-0.13897 z m 11.92762,-0.43546 c 0.074,-0.3844 -0.10889,-0.46302 -1.07684,-0.46302 -1.27485,0 -1.55146,0.13596 -1.34915,0.66317 0.21177,0.55187 2.31469,0.37837 2.42599,-0.20015 z m 2.69612,-0.0662 c 0,-0.41726 -0.52609,-0.49684 -1.52136,-0.23011 -0.95843,0.25685 -0.68509,0.62698 0.46302,0.62698 0.76436,0 1.05834,-0.11024 1.05834,-0.39687 z m -15.01511,-0.0429 c -0.1819,-0.0734 -0.47955,-0.0734 -0.66146,0 -0.1819,0.0734 -0.0331,0.13345 0.33073,0.13345 0.36381,0 0.51263,-0.0601 0.33073,-0.13345 z m 4.39788,-0.93385 c -0.28114,-0.19683 -0.28842,-0.28438 -0.0323,-0.38832 0.1819,-0.0738 0.3289,-0.33264 0.32667,-0.57517 -0.003,-0.37488 -0.041,-0.3826 -0.25035,-0.0515 -0.21684,0.34289 -0.26131,0.34289 -0.37186,0 -0.35698,-1.10725 -0.39125,-1.15554 -0.41118,-0.5794 -0.028,0.80887 0.79103,2.68066 0.96694,2.20986 0.0742,-0.19873 -0.0283,-0.47568 -0.22797,-0.61546 z m 4.95703,0.17538 c 0.0314,-0.21407 -0.0514,-0.38922 -0.18405,-0.38922 -0.13264,0 -0.24117,0.25797 -0.24117,0.57326 0,0.61103 0.32946,0.46843 0.42522,-0.18404 z m -8.77668,0.1676 c 0.0805,-0.13032 -0.30931,-0.2804 -0.86633,-0.33352 -0.68942,-0.0658 -1.01277,0.01 -1.01277,0.23693 0,0.38284 1.64978,0.46763 1.8791,0.0966 z m 3.19208,-0.0276 c -0.0899,-0.14553 -0.33508,-0.26459 -0.54478,-0.26459 -0.20969,0 -0.38126,0.11906 -0.38126,0.26459 0,0.14552 0.24515,0.26458 0.54478,0.26458 0.29963,0 0.4712,-0.11906 0.38126,-0.26458 z m 10.18646,-0.42519 c 0,-0.0572 -0.24515,-0.10398 -0.54478,-0.10398 -0.29963,0 -0.47441,0.11386 -0.3884,0.25303 0.14118,0.22844 0.93318,0.10194 0.93318,-0.14905 z m -3.10885,-0.0146 c -0.1819,-0.0734 -0.47956,-0.0734 -0.66146,0 -0.1819,0.0734 -0.0331,0.13346 0.33073,0.13346 0.3638,0 0.51263,-0.06 0.33073,-0.13346 z m -13.67329,-1.73794 c 0,-0.25742 -0.0935,-0.46805 -0.20789,-0.46805 -0.11433,0 -0.20788,0.1786 -0.20788,0.39688 0,0.21828 -0.23813,0.635 -0.52917,0.92604 -0.78046,0.78046 -0.64302,0.92829 0.20789,0.22359 0.40538,-0.33573 0.73705,-0.82103 0.73705,-1.07846 z m 5.27277,1.38403 c -0.0899,-0.14552 -0.39462,-0.26458 -0.67708,-0.26458 -0.28245,0 -0.51355,0.11906 -0.51355,0.26458 0,0.14553 0.30469,0.26459 0.67708,0.26459 0.384,0 0.60629,-0.11452 0.51355,-0.26459 z m 9.72847,-0.17355 c -0.17913,-0.0725 -0.53632,-0.0769 -0.79375,-0.01 -0.25743,0.0671 -0.11087,0.12638 0.32569,0.13178 0.43657,0.005 0.64719,-0.0495 0.46806,-0.12197 z m 2.6408,-0.002 c -0.1819,-0.0734 -0.47956,-0.0734 -0.66146,0 -0.1819,0.0734 -0.0331,0.13346 0.33073,0.13346 0.3638,0 0.51263,-0.0601 0.33073,-0.13346 z m -19.72916,-0.9328 c -0.0845,-0.21107 -0.14715,-0.14837 -0.15985,0.15985 -0.0115,0.27892 0.0511,0.43519 0.13897,0.34727 0.0879,-0.0879 0.0973,-0.31613 0.0209,-0.50712 z m 5.37551,0.20395 c 0,-0.45508 -0.44233,-0.62673 -1.22802,-0.47653 -0.8481,0.16212 -0.47361,0.85136 0.46258,0.85136 0.48399,0 0.76544,-0.13783 0.76544,-0.37483 z m 2.11667,-0.18265 c 0,-0.39964 -0.11849,-0.51201 -0.41851,-0.39687 -0.23019,0.0883 -0.52784,0.1606 -0.66146,0.1606 -0.13362,0 -0.24295,0.17859 -0.24295,0.39687 0,0.24694 0.24989,0.39688 0.66146,0.39688 0.49627,0 0.66146,-0.13923 0.66146,-0.55748 z m 7.9375,-0.29698 c 0,-0.15486 -0.16812,-0.12915 -0.39688,0.0607 -0.21828,0.18116 -0.39687,0.37059 -0.39687,0.42097 0,0.0504 0.17859,0.0231 0.39687,-0.0607 0.21829,-0.0838 0.39688,-0.2732 0.39688,-0.42097 z m 1.68527,0.31722 c -0.18054,-0.18054 -0.48892,-0.1862 -0.91282,-0.0168 -0.60151,0.24043 -0.58505,0.25689 0.27265,0.27265 0.62655,0.0115 0.82731,-0.0687 0.64017,-0.25587 z m 2.69842,0.0373 c -0.24883,-0.40262 -2.00244,-0.49755 -2.00244,-0.10839 0,0.22548 0.36949,0.34374 1.07395,0.34374 0.59067,0 1.00849,-0.1059 0.92849,-0.23535 z m -18.80348,-0.29381 c 0.0899,-0.14552 0.0374,-0.26459 -0.11668,-0.26459 -0.15411,0 -0.2802,0.11907 -0.2802,0.26459 0,0.14552 0.0525,0.26458 0.11668,0.26458 0.0642,0 0.19026,-0.11906 0.2802,-0.26458 z m 13.22916,0 c 0.0899,-0.14552 0.0374,-0.26459 -0.11667,-0.26459 -0.15411,0 -0.2802,0.11907 -0.2802,0.26459 0,0.14552 0.0525,0.26458 0.11668,0.26458 0.0642,0 0.19026,-0.11906 0.28019,-0.26458 z m 9.72451,-0.595316 c 0.0873,-0.259268 0.20444,-0.253862 0.54232,0.025 0.6157,0.508186 0.95711,0.289156 0.68357,-0.438547 -0.21615,-0.575003 -0.26571,-0.586991 -0.82044,-0.198437 -0.68139,0.477268 -1.00183,0.524912 -1.00183,0.14896 0,-0.145521 0.18562,-0.264583 0.41249,-0.264583 0.22687,0 0.34399,-0.110837 0.26027,-0.246301 -0.0837,-0.135466 -0.0312,-0.321087 0.11667,-0.41249 0.1479,-0.0914 0.2689,-0.283782 0.2689,-0.427509 0,-0.143727 -0.28599,-0.0474 -0.63554,0.214053 -0.34955,0.261454 -0.58871,0.523949 -0.53147,0.583319 0.0573,0.05937 -0.036,0.276805 -0.20733,0.483188 -0.24238,0.292052 -0.22721,0.428524 0.0684,0.615603 0.51666,0.32693 0.71266,0.30783 0.84395,-0.08226 z m 4.16612,0.164436 c 0,-0.0253 -0.41784,-0.292552 -0.92853,-0.593865 -0.51069,-0.301316 -0.89764,-0.658358 -0.85989,-0.793427 0.0685,-0.245179 -0.0468,-0.298498 -0.64575,-0.298498 -0.24694,0 -0.24694,0.07056 0,0.3175 0.17463,0.174625 0.3175,0.564285 0.3175,0.86591 0,0.46342 0.16401,0.54841 1.05834,0.54841 0.58208,0 1.05833,-0.0207 1.05833,-0.046 z m -11.75124,-0.825894 c 0.24047,-0.526129 0.30039,-0.785524 0.34364,-1.487604 0.0243,-0.394221 0.10633,-0.432501 0.40166,-0.187396 0.28506,0.236582 0.40013,0.228753 0.4961,-0.03375 0.10004,-0.273667 0.1948,-0.275868 0.47552,-0.01103 0.70053,0.660881 0.72179,0.304136 0.0532,-0.892174 l -0.6835,-1.222902 -0.49112,0.62759 c -0.27012,0.345175 -0.84713,1.154018 -1.28226,1.797429 -0.43512,0.643403 -0.79113,1.038106 -0.79113,0.87711 0,-0.638024 0.58698,-1.807972 1.13807,-2.268357 0.31995,-0.267289 0.41414,-0.397499 0.20932,-0.289356 -0.37423,0.197587 -0.34725,-0.17881 0.088,-1.228056 0.11816,-0.284835 -0.0391,-0.512334 -0.49915,-0.721932 -0.44549,-0.202976 -0.66465,-0.508428 -0.6508,-0.907024 0.0115,-0.330541 0.081,-0.452156 0.15434,-0.270255 0.18872,0.46768 1.14769,0.412411 1.14769,-0.06615 0,-0.261245 -0.26136,-0.396875 -0.7648,-0.396875 -0.67708,0 -0.7772,0.106218 -0.87291,0.926042 -0.0746,0.638622 -0.001,0.926041 0.23563,0.926041 0.47892,0 0.43058,0.921474 -0.0701,1.337033 -0.25785,0.213989 -0.35723,0.569227 -0.26362,0.942223 0.16292,0.649121 -0.23672,1.109649 -0.49174,0.566663 -0.0859,-0.182808 -0.0892,0.02482 -0.007,0.461373 0.0817,0.436562 0.16564,1.06164 0.18643,1.389062 0.0308,0.485177 0.19409,0.595313 0.88261,0.595313 0.54758,0 0.91927,-0.162907 1.05644,-0.463021 z m 1.96166,0.06615 c 0,-0.627735 -0.10435,-0.783257 -0.52917,-0.788684 -0.50524,-0.0065 -0.78397,0.374013 -0.60867,0.830837 0.18629,0.48546 1.13784,0.45021 1.13784,-0.04215 z m 1.85208,-0.116676 c 0,-0.282454 -0.13782,-0.598729 -0.30626,-0.702832 -0.20984,-0.129688 -0.25929,-0.0097 -0.15706,0.38126 0.0821,0.313796 0.0436,0.570539 -0.0856,0.570539 -0.12912,0 -0.30947,-0.297656 -0.40079,-0.661458 -0.0913,-0.363802 -0.26182,-0.661458 -0.37893,-0.661458 -0.1171,0 -0.0781,0.357187 0.0867,0.79375 0.34142,0.904523 1.24193,1.107689 1.24193,0.280199 z m -21.04817,-0.08176 c 0.056,-0.181901 0.17258,-0.653949 0.25898,-1.048993 0.21537,-0.984785 0.84158,-0.685007 0.82569,0.395271 -0.0125,0.846574 -0.004,0.852469 1.36693,0.899359 1.30098,0.04451 1.36134,0.01818 1.06083,-0.463021 -0.17525,-0.28062 -0.43145,-0.51022 -0.56934,-0.51022 -0.63653,0 -1.99975,-1.227069 -2.00145,-1.801552 -0.001,-0.33601 -0.11567,-0.540557 -0.25483,-0.454548 -0.13917,0.08601 -0.18596,0.331161 -0.10399,0.544782 0.082,0.21362 0.0173,0.388401 -0.14384,0.388401 -0.16109,0 -0.29289,-0.133641 -0.29289,-0.29698 0,-0.196194 -0.14454,-0.177029 -0.42589,0.05647 -0.26643,0.22112 -0.31596,0.390099 -0.13229,0.451321 0.16148,0.05383 0.29359,0.219744 0.29359,0.368708 0,0.148963 -0.17253,0.204636 -0.3834,0.123719 -0.24176,-0.09277 -0.33459,-0.01995 -0.25129,0.197138 0.12588,0.328054 -1.14012,1.381749 -1.37634,1.145529 -0.0622,-0.06217 0.15278,-0.450984 0.47768,-0.864023 l 0.59072,-0.750983 -0.8516,0.503053 c -0.46838,0.27668 -0.8516,0.715507 -0.8516,0.975174 0,0.390549 0.23001,0.47212 1.33122,0.47212 0.83425,0 1.36926,-0.123468 1.43311,-0.330729 z m 7.05833,-0.224896 c 0.0481,-0.730869 0.0813,-0.844634 0.41701,-1.426546 0.16718,-0.28983 0.3652,-0.46574 0.44002,-0.390914 0.30775,0.307748 0.39538,1.702509 0.12726,2.025571 -0.23167,0.279146 -0.026,0.347514 1.04518,0.347514 h 1.33359 l -0.0131,-1.455208 c -0.008,-0.932474 -0.12497,-1.455208 -0.32458,-1.455208 -0.59259,0 -1.20679,-0.645194 -0.97052,-1.019505 0.18121,-0.287097 0.34427,-0.294746 0.82288,-0.0386 0.56876,0.30439 0.59113,0.280191 0.47464,-0.513499 -0.0672,-0.458119 -0.023,-0.894259 0.0982,-0.969201 0.30034,-0.185622 0.28079,-1.427944 -0.0225,-1.427944 -0.13362,0 -0.42181,-0.06863 -0.64041,-0.15252 -0.27204,-0.104394 -0.42498,0.04086 -0.48466,0.460317 -0.12718,0.893801 -1.01324,0.988664 -1.01324,0.108478 0,-0.428818 -0.14692,-0.680858 -0.39688,-0.680858 -0.26206,0 -0.39687,0.262133 -0.39687,0.771701 0,0.601044 0.1609,0.830469 0.7276,1.037445 l 0.72761,0.265744 -0.71446,0.02089 c -0.41836,0.01223 -0.82622,-0.171003 -0.98414,-0.442134 -0.21256,-0.364935 -0.27216,-0.378947 -0.28134,-0.06615 -0.006,0.218281 -0.0883,0.683383 -0.18202,1.03356 -0.12412,0.463891 -0.0825,0.582363 0.15351,0.436526 0.19031,-0.117616 0.4768,0.0017 0.69472,0.289356 0.20397,0.269234 0.37464,0.347714 0.37927,0.174402 0.005,-0.173313 -0.11065,-0.388699 -0.25617,-0.478636 -0.51519,-0.318407 -0.2543,-0.661458 0.50304,-0.661458 0.60189,0 0.88982,-0.207121 1.33366,-0.959388 0.31133,-0.527663 0.64529,-0.88015 0.74214,-0.783305 0.30763,0.307632 -0.77414,1.978928 -1.42124,2.195767 -0.60056,0.201243 -0.60764,0.235584 -0.20681,1.002134 0.80171,1.533194 1.14217,2.513541 0.87292,2.513541 -0.14628,0 -0.50734,-0.545676 -0.80236,-1.212614 -0.29502,-0.666938 -0.60479,-1.144221 -0.68838,-1.060629 -0.0836,0.08359 -0.29676,0.03184 -0.4737,-0.115016 -0.23749,-0.197094 -0.51099,0.119837 -1.04458,1.210467 -0.48558,0.992489 -0.84393,1.431009 -1.09169,1.335934 -0.20467,-0.07854 -0.36883,0.01964 -0.36883,0.220578 0,0.237455 0.31879,0.362114 0.92604,0.362114 0.7218,0 0.93334,-0.110874 0.95912,-0.502709 z m 15.87567,0.109212 c 0.31966,-0.392972 0.30511,-0.424645 -0.12153,-0.264583 -0.26657,0.100007 -0.59399,0.18183 -0.72761,0.18183 -0.13361,0 -0.24294,0.119062 -0.24294,0.264583 0,0.421973 0.69507,0.306247 1.09208,-0.18183 z m 6.31625,0.18183 c 0,-0.145521 -0.0525,-0.264583 -0.11667,-0.264583 -0.0642,0 -0.19027,0.119062 -0.2802,0.264583 -0.0899,0.145521 -0.0374,0.264583 0.11667,0.264583 0.15411,0 0.2802,-0.119062 0.2802,-0.264583 z m -32.56478,-0.903655 c 0.33021,-0.351491 0.88675,-0.710946 1.23675,-0.798791 0.71906,-0.180472 0.83239,-0.54697 0.23949,-0.774484 -0.50839,-0.195088 -0.51249,-1.066487 -0.007,-1.486009 0.21443,-0.177961 0.46561,-0.72728 0.55818,-1.220707 0.0926,-0.493427 0.27431,-0.831624 0.40388,-0.751549 0.3548,0.219284 0.28282,1.374113 -0.0952,1.526633 -0.19758,0.07972 -0.14432,0.141862 0.13229,0.154341 0.27967,0.01262 0.46302,0.230433 0.46302,0.550054 0,0.618632 0.47677,0.708985 0.69807,0.132292 0.0838,-0.218281 0.29434,-0.396875 0.46795,-0.396875 0.80855,0 0.86124,-0.577864 0.12026,-1.318846 -0.41641,-0.416414 -0.75711,-0.984555 -0.75711,-1.262537 0,-0.603329 -0.24721,-0.90017 -0.57892,-0.69516 -0.13339,0.08244 -0.0875,0.337017 0.10305,0.571512 0.29297,0.360575 0.27727,0.398024 -0.10662,0.254253 -0.56136,-0.210235 -2.00178,1.704556 -2.73929,3.641403 -0.37986,0.997585 -0.52531,1.180854 -0.59145,0.745236 -0.0879,-0.578594 1.02912,-3.234001 1.62143,-3.854689 0.17327,-0.181571 0.71028,-0.836146 1.19336,-1.454609 0.48307,-0.618464 1.04691,-1.124479 1.25296,-1.124479 0.20605,0 0.37464,-0.173189 0.37464,-0.384863 0,-0.41326 3.10592,-3.05472 3.59185,-3.05472 0.16071,0 0.45177,0.506015 0.6468,1.124479 0.19502,0.618463 0.46703,1.273602 0.60445,1.455864 0.13743,0.182263 0.17849,0.688278 0.0913,1.124479 -0.0872,0.436202 -0.065,0.793094 0.0495,0.793094 0.11444,0 0.46866,0.242763 0.78714,0.539473 0.72491,0.675357 0.7706,0.181243 0.0499,-0.539473 -0.29105,-0.291042 -0.52917,-0.812282 -0.52917,-1.158313 0,-0.346031 -0.17859,-1.056581 -0.39688,-1.579002 -0.21828,-0.52242 -0.39687,-1.243025 -0.39687,-1.601342 0,-0.596972 -0.0659,-0.632582 -0.78776,-0.425561 -0.91587,0.262668 -4.23932,2.390951 -4.23932,2.714791 0,0.316739 -1.68062,2.55601 -1.92754,2.568275 -0.11426,0.0057 -0.0845,-0.219979 0.0661,-0.501454 0.36789,-0.687398 0.34674,-0.811144 -0.13859,-0.811144 -0.22687,0 -0.33891,0.119063 -0.24897,0.264583 0.20695,0.334856 -0.14331,0.334856 -0.66146,0 -0.21828,-0.141064 -0.27781,-0.26209 -0.13229,-0.268946 0.28193,-0.01328 -0.64091,-0.789387 -0.93864,-0.789387 -0.0968,0 -0.16592,0.327422 -0.15355,0.727604 0.0124,0.400182 -0.0665,1.055026 -0.1753,1.455208 -0.14891,0.547739 -0.1039,0.727605 0.18207,0.727605 0.53034,0 0.68554,0.583951 0.28128,1.058333 -0.42758,0.501757 -0.64596,3.645334 -0.26623,3.832447 0.17718,0.0873 0.15772,0.191786 -0.0541,0.290642 -0.36951,0.172437 -0.4515,0.639411 -0.11227,0.639411 0.12016,0 0.48864,-0.287584 0.81884,-0.639072 z m 0.90298,-5.622734 c 0.097,-0.09701 0.25576,-0.09701 0.35278,0 0.097,0.09701 0.0176,0.176389 -0.17639,0.176389 -0.19403,0 -0.27341,-0.07937 -0.17639,-0.176389 z m 6.40959,4.7339 c -0.35738,-0.357378 -0.60405,0.377942 -0.33503,0.998739 l 0.28663,0.661458 0.10251,-0.751792 c 0.0564,-0.413486 0.032,-0.822267 -0.0541,-0.908405 z m 25.4731,-0.737782 c -0.11201,-0.154722 -0.13242,-0.720268 -0.0454,-1.256771 0.15913,-0.980605 -0.2874,-1.416701 -0.60449,-0.590369 -0.1161,0.302544 -0.22179,0.316722 -0.49309,0.06615 -0.18993,-0.175419 -0.30215,-0.39063 -0.24937,-0.478247 0.0528,-0.08762 -0.12549,-0.593634 -0.39613,-1.12448 -0.47618,-0.934004 -0.47639,-0.965174 -0.006,-0.965174 0.26711,0 0.64692,0.230259 0.84404,0.511687 0.49726,0.709928 0.96712,0.318779 0.93938,-0.78201 -0.0162,-0.642277 -0.23117,-1.101661 -0.71163,-1.520626 -0.37864,-0.330178 -0.89561,-0.796246 -1.14882,-1.035707 -0.42871,-0.405424 -0.49491,-0.395581 -0.96206,0.143051 l -0.50168,0.578435 -0.16218,-0.646182 c -0.0892,-0.3554 -0.0986,-0.81189 -0.0209,-1.014422 0.0837,-0.218059 -0.13925,-0.518388 -0.54661,-0.736401 -0.59054,-0.316044 -0.72096,-0.314699 -0.92133,0.0095 -0.12838,0.207716 -0.1504,0.440338 -0.0489,0.516939 0.10146,0.0766 0.18447,0.364551 0.18447,0.639888 0,0.699492 1.06765,1.407609 2.76876,1.836367 1.4338,0.361386 1.43821,0.365558 0.52916,0.501347 -0.53262,0.07956 -0.99519,0.01342 -1.10409,-0.157863 -0.13682,-0.215209 -0.27006,-0.212145 -0.49356,0.01135 -0.2318,0.2318 -0.20235,0.504324 0.12127,1.122267 0.23508,0.448869 0.61003,1.203079 0.83323,1.676022 0.22319,0.472942 0.63002,1.30638 0.90406,1.852083 0.69267,1.379339 0.22071,1.243983 -0.69026,-0.197965 -0.41354,-0.654581 -0.87096,-1.192186 -1.01648,-1.194674 -0.14552,-0.0025 -0.086,-0.119941 0.13229,-0.261005 0.33917,-0.219188 0.32955,-0.25707 -0.0661,-0.260532 -0.25466,-0.0022 -0.47294,-0.15288 -0.48506,-0.334781 -0.0754,-1.13082 -0.19418,-1.576653 -0.49598,-1.861474 -0.27639,-0.260831 -0.28343,-0.210364 -0.0374,0.26802 0.24388,0.474224 0.23333,0.562587 -0.054,0.452319 -0.23872,-0.0916 -0.47564,0.239326 -0.7146,0.998142 -0.36665,1.164328 -0.96198,2.061222 -1.36816,2.061222 -0.12593,0 -0.005,-0.446484 0.26886,-0.992187 0.2738,-0.545703 0.44489,-1.141016 0.3802,-1.322917 -0.0647,-0.181901 -0.009,-0.330729 0.1232,-0.330729 0.13244,0 0.2048,-0.386953 0.1608,-0.859896 -0.0729,-0.783623 -0.0594,-0.801224 0.15175,-0.198437 l 0.23174,0.661458 0.0264,-0.743219 c 0.0145,-0.40877 0.12559,-0.681898 0.24686,-0.606951 0.12127,0.07495 0.22048,-0.03709 0.22048,-0.248968 0,-0.21188 -0.0879,-0.385237 -0.19523,-0.385237 -0.10737,0 -0.55961,-0.645648 -1.00496,-1.434773 -0.44536,-0.789125 -1.14268,-1.631446 -1.54961,-1.871825 -1.08455,-0.64066 -1.93314,-2.556094 -0.88356,-1.994377 0.28147,0.150641 0.63866,0.273892 0.79375,0.273892 0.55321,0 0.25665,-0.403322 -0.58365,-0.79375 -0.46979,-0.218281 -0.8244,-0.486172 -0.78802,-0.595312 0.0364,-0.109141 -0.18603,-0.450616 -0.49425,-0.758834 -0.45241,-0.452408 -0.49065,-0.604583 -0.19844,-0.789699 0.21402,-0.13558 0.2394,-0.230957 0.0621,-0.233353 -0.50651,-0.0068 -0.64154,-1.059901 -0.13838,-1.079156 0.29754,-0.01139 0.24121,-0.09578 -0.17544,-0.262856 -0.44135,-0.176976 -0.56929,-0.385964 -0.4556,-0.74418 0.11626,-0.366303 -10e-4,-0.54082 -0.44464,-0.659573 -1.11609,-0.29901 -1.74868,-0.172137 -2.56451,0.514342 l -0.81176,0.683045 0.168,-0.881482 c 0.0924,-0.484816 0.085,-0.805636 -0.0165,-0.712933 -0.10147,0.0927 -0.22713,0.985671 -0.27924,1.984375 -0.0521,0.998704 -0.0373,1.5777 0.0329,1.286658 0.0702,-0.291042 0.44665,-0.810124 0.83655,-1.153516 0.38989,-0.343393 0.56007,-0.544725 0.37817,-0.447406 -0.1819,0.09732 -0.33073,0.04791 -0.33073,-0.109803 0,-0.325084 1.10524,-0.802816 1.85732,-0.802816 0.35953,0 0.54757,0.253796 0.66947,0.903609 0.17193,0.91645 -0.30295,2.759918 -0.80558,3.127235 -0.16476,0.120404 -0.13763,0.195928 0.0713,0.198437 0.1855,0.0022 0.45045,-0.293605 0.58876,-0.657407 0.37809,-0.994447 0.68409,-0.808086 1.1947,0.727605 0.32966,0.991475 0.46631,2.282511 0.47742,4.510533 0.0132,2.641859 0.066,3.028063 0.34412,2.513541 0.20325,-0.376075 0.23461,-0.703791 0.0822,-0.859283 -0.32933,-0.336003 -0.30755,-2.55654 0.03,-3.055937 0.22408,-0.331553 0.39984,-0.244457 1.06784,0.529166 0.43978,0.509323 0.72124,0.717682 0.62545,0.463021 -0.0958,-0.254661 -0.0643,-0.463021 0.07,-0.463021 0.2326,0 1.39991,2.524854 1.39991,3.027969 0,0.131789 -0.2229,0.01042 -0.49533,-0.269697 -0.27244,-0.280123 -0.444,-0.59861 -0.38126,-0.707751 0.0627,-0.109141 -0.019,-0.198438 -0.18174,-0.198438 -0.1627,0 -0.22223,-0.119062 -0.1323,-0.264583 0.0899,-0.145521 0.0613,-0.264583 -0.0637,-0.264583 -0.45753,0 -0.86229,0.654188 -0.86229,1.393663 0,0.622341 0.0895,0.730271 0.49784,0.600657 0.68816,-0.218415 0.9421,0.565805 0.43421,1.340944 -0.51504,0.786047 -0.51121,1.162652 0.0118,1.162652 0.27098,0 0.36703,0.16048 0.27715,0.463021 -0.52426,1.764681 -0.51008,1.918229 0.1772,1.918229 0.36401,0 0.73037,0.178594 0.81413,0.396875 0.0838,0.218281 0.3276,0.396875 0.54186,0.396875 0.4911,0 0.83889,-0.532325 0.49471,-0.757185 -0.39942,-0.260945 -0.3111,-1.888648 0.10247,-1.888648 0.19403,0 0.35278,0.184279 0.35278,0.409508 0,0.22523 0.30146,0.688894 0.66991,1.030365 0.39474,0.365827 0.69362,0.958179 0.72761,1.44205 0.0512,0.729377 0.45456,1.224177 0.45456,0.55766 0,-0.145521 0.11907,-0.264583 0.26459,-0.264583 0.14552,0 0.26458,0.160398 0.26458,0.356444 0,0.196043 0.26789,0.477247 0.59531,0.624901 0.53661,0.241987 0.60972,0.187272 0.74144,-0.554882 0.0804,-0.452837 0.0545,-0.949928 -0.0575,-1.104651 z m -2.72046,-6.442964 c -0.0852,-0.137839 -0.0421,-0.320317 0.0957,-0.405507 0.13784,-0.08519 0.32032,-0.04211 0.40551,0.09573 0.0852,0.137839 0.0421,0.320317 -0.0957,0.405506 -0.13784,0.08519 -0.32031,0.04211 -0.4055,-0.09573 z m -20.64745,7.377964 c 0.56926,-1.100824 0.19612,-1.566703 -0.43009,-0.536982 -0.27499,0.452167 -0.49997,0.93831 -0.49997,1.080315 0,0.53754 0.53176,0.22689 0.93006,-0.543333 z m 16.42688,0.127741 c 0.20539,-0.818335 0.0465,-1.014622 -0.64381,-0.795515 -0.99436,0.315598 -1.02091,1.469295 -0.0338,1.469295 0.32424,0 0.5698,-0.244171 0.67762,-0.67378 z m 1.11074,-0.174749 c 0.0435,-0.224293 -0.10531,-0.478579 -0.33073,-0.565084 -0.30412,-0.116697 -0.40987,0.01693 -0.40987,0.517924 0,0.727578 0.60113,0.765855 0.7406,0.04716 z m -3.12185,-0.241033 c 0,-0.145521 -0.11906,-0.191 -0.26458,-0.101063 -0.14552,0.08994 -0.26458,0.282583 -0.26458,0.428104 0,0.145521 0.11906,0.191 0.26458,0.101063 0.14552,-0.08994 0.26458,-0.282583 0.26458,-0.428104 z m 5.99723,-0.145161 c -0.097,-0.09701 -0.17639,-0.01764 -0.17639,0.17639 0,0.194027 0.0794,0.273402 0.17639,0.176389 0.097,-0.09701 0.097,-0.255764 0,-0.352779 z m -23.0083,-0.752301 c 0.47239,-0.990624 0.35792,-1.268488 -0.64772,-1.572263 -0.46781,-0.141312 -0.65664,-0.03989 -0.89348,0.479918 -0.414,0.908642 -0.10031,2.021036 0.56993,2.021036 0.34368,0 0.68323,-0.324668 0.97127,-0.928691 z m -0.62782,-0.04145 c 0.097,-0.09701 0.25577,-0.09701 0.35278,0 0.097,0.09701 0.0176,0.176389 -0.17639,0.176389 -0.19402,0 -0.2734,-0.07937 -0.17639,-0.176389 z m 0.12678,-0.533518 c 0.191,-0.07643 0.4192,-0.06703 0.50712,0.02089 0.0879,0.08792 -0.0684,0.150453 -0.34726,0.138965 -0.30823,-0.0127 -0.37092,-0.07539 -0.15986,-0.159853 z m 0,-0.529167 c 0.191,-0.07643 0.4192,-0.06703 0.50712,0.02089 0.0879,0.08792 -0.0684,0.150453 -0.34726,0.138964 -0.30823,-0.0127 -0.37092,-0.07539 -0.15986,-0.159852 z m 16.22002,0.536437 c -0.29513,-0.559435 -0.54187,-0.931897 -0.5483,-0.827694 -0.0188,0.30425 0.86654,2.063207 0.9809,1.948851 0.0572,-0.0572 -0.13747,-0.561722 -0.4326,-1.121157 z m -14.07933,0.681224 c -0.20421,-0.129287 -0.2423,-0.236891 -0.0846,-0.239119 0.15764,-0.0022 0.28663,-0.182645 0.28663,-0.400927 0,-0.501595 -0.0532,-0.497139 -0.70253,0.0588 -0.69975,0.599142 -0.67176,0.726837 0.17001,0.77563 0.50218,0.02911 0.59621,-0.02619 0.33054,-0.194386 z m 16.81016,-0.396793 c 0.57597,-0.575968 0.28786,-0.904711 -0.79289,-0.904711 -0.94569,0 -1.1878,0.410544 -0.59293,1.005417 0.43179,0.431789 0.88636,0.398756 1.38582,-0.100706 z m -15.46165,-0.788034 c 0,-0.209693 -0.11907,-0.38126 -0.26459,-0.38126 -0.14552,0 -0.26458,0.245152 -0.26458,0.544781 0,0.29963 0.11906,0.471197 0.26458,0.38126 0.14552,-0.08994 0.26459,-0.335088 0.26459,-0.544781 z m -1.85209,-0.101062 c 0,-0.136933 -0.11906,-0.322553 -0.26458,-0.41249 -0.14552,-0.08994 -0.26458,0.0221 -0.26458,0.248969 0,0.226869 0.11906,0.412489 0.26458,0.412489 0.14552,0 0.26458,-0.112035 0.26458,-0.248968 z m 10.70433,0.0027 c 0.0837,-0.135465 0.0312,-0.321086 -0.11668,-0.41249 -0.14789,-0.0914 -0.2689,0.01943 -0.2689,0.246302 0,0.464747 0.15877,0.533177 0.38558,0.166188 z m 4.85752,-0.898582 c 0.06,-0.506404 -0.0363,-0.7072 -0.33903,-0.7072 -0.50104,0 -0.79254,0.62386 -0.56661,1.212627 0.23907,0.623003 0.80975,0.304508 0.90564,-0.505427 z m -2.42087,0.174745 c -0.097,-0.09701 -0.17639,-0.01764 -0.17639,0.176389 0,0.194027 0.0794,0.273402 0.17639,0.176388 0.097,-0.09701 0.097,-0.255763 0,-0.352777 z m -12.35128,-0.121944 c 0.003,0.298024 0.0776,0.302084 0.4143,0.02265 0.59469,-0.493546 0.38862,-1.689079 -0.30829,-1.788545 -0.44165,-0.06303 -0.59465,0.09594 -0.72642,0.754778 -0.19112,0.955617 0.0409,1.556263 0.3889,1.00697 0.19079,-0.301102 0.22811,-0.300433 0.23151,0.0041 z m 0.0922,-0.671806 c 0.097,-0.09701 0.25576,-0.09701 0.35278,0 0.097,0.09701 0.0176,0.176389 -0.17639,0.176389 -0.19403,0 -0.27341,-0.07937 -0.17639,-0.176389 z m 0,-0.529167 c 0.097,-0.09701 0.25576,-0.09701 0.35278,0 0.097,0.09701 0.0176,0.176389 -0.17639,0.176389 -0.19403,0 -0.27341,-0.07937 -0.17639,-0.176389 z m 12.62807,0.192657 c -0.67755,-0.677547 -0.74338,-0.105378 -0.0824,0.716266 0.34005,0.422712 0.48491,0.47646 0.54543,0.202373 0.0453,-0.205263 -0.16303,-0.618651 -0.46302,-0.918639 z m 3.92215,1.066412 c 0.47135,-0.298509 0.19526,-1.491944 -0.39779,-1.719519 -0.89193,-0.342266 -1.54753,0.936607 -0.84188,1.642256 0.37409,0.374092 0.73541,0.396612 1.23967,0.07726 z m -17.95027,-0.574188 c 0.16185,-0.302413 0.2261,-0.727482 0.14278,-0.944599 -0.20778,-0.54149 -1.31619,-0.345331 -1.43029,0.253125 -0.22668,1.188932 0.74266,1.709531 1.28751,0.691474 z m -0.54023,-0.243909 c 0,-0.194027 0.0794,-0.273402 0.17639,-0.176389 0.097,0.09701 0.097,0.255764 0,0.352778 -0.097,0.09701 -0.17639,0.01764 -0.17639,-0.176389 z m 0.0882,-0.705555 c 0.097,-0.09701 0.25577,-0.09701 0.35278,0 0.097,0.09701 0.0176,0.176389 -0.17639,0.176389 -0.19402,0 -0.2734,-0.07937 -0.17639,-0.176389 z m -1.53685,0.0079 c -0.0414,-0.992966 0.0414,-1.251061 0.43419,-1.353775 0.26692,-0.0698 0.4853,-0.2857 0.4853,-0.479778 0,-0.194078 0.20468,-0.46741 0.45483,-0.607405 0.4131,-0.231181 0.39489,-0.30441 -0.19843,-0.798094 -0.6862,-0.570955 -1.19118,-0.738833 -0.92451,-0.307343 0.17477,0.28277 -0.39869,1.333679 -0.72776,1.333679 -0.11563,0 -0.0804,-0.267891 0.0782,-0.595313 0.27703,-0.571665 0.27215,-0.574912 -0.12298,-0.08172 -0.25425,0.317358 -0.41147,1.042008 -0.41147,1.89659 0,1.594454 0.18385,2.220028 0.65245,2.220028 0.225,0 0.31485,-0.393518 0.28014,-1.226866 z m 13.00648,0.64809 c -0.0845,-0.211067 -0.14715,-0.148372 -0.15985,0.159853 -0.0115,0.278914 0.0511,0.435184 0.13897,0.347265 0.0879,-0.08792 0.0973,-0.316122 0.0209,-0.507118 z m 5.11093,-0.88574 c 0,-0.06764 -0.38695,-0.109172 -0.8599,-0.09229 -0.47294,0.01688 -0.65008,0.08542 -0.39363,0.152316 0.25644,0.06689 0.3909,0.243554 0.2988,0.39258 -0.10049,0.162591 0.0569,0.15086 0.39363,-0.02933 0.30861,-0.165159 0.5611,-0.355631 0.5611,-0.423271 z m -19.66736,-0.828539 c -0.097,-0.09701 -0.17639,-0.01764 -0.17639,0.176389 0,0.194028 0.0794,0.273403 0.17639,0.176389 0.097,-0.09701 0.097,-0.255764 0,-0.352778 z m 8.62101,-0.56339 c 0.41811,-0.361721 0.46302,-0.353825 0.46302,0.08141 0,0.265089 0.0738,0.408149 0.16406,0.317912 0.0902,-0.09024 0.0824,-0.489306 -0.0173,-0.88682 l -0.1814,-0.722752 -0.3134,0.623391 c -0.44734,0.889831 -0.922,0.949431 -1.02191,0.128313 -0.082,-0.673992 -0.0958,-0.666012 -0.36452,0.210675 -0.26026,0.849131 -0.24224,0.902255 0.26458,0.779821 0.29913,-0.07226 0.75223,-0.311638 1.0069,-0.531951 z m 6.28385,-0.510558 c 0,-1.167606 -0.13414,-1.066926 -0.37865,0.284194 -0.12547,0.693325 -0.0945,0.962726 0.0972,0.844281 0.1548,-0.09567 0.28146,-0.603487 0.28146,-1.128475 z m -10.58333,0.425358 c 0,-0.145521 -0.11907,-0.190999 -0.26459,-0.101062 -0.14552,0.08994 -0.26458,0.282584 -0.26458,0.428104 0,0.145521 0.11906,0.190999 0.26458,0.101062 0.14552,-0.08994 0.26459,-0.282584 0.26459,-0.428104 z m 6.02891,-1.978243 -0.0802,-2.091569 -0.13006,2.30313 c -0.0715,1.266722 -0.0354,2.207928 0.0802,2.091569 0.11567,-0.116359 0.1742,-1.152767 0.13007,-2.30313 z m 8.25859,1.745893 c 0,-0.259351 -0.23417,-0.752628 -0.52037,-1.096171 l -0.52036,-0.624625 -0.009,1.080382 c -0.005,0.59421 0.0624,1.151554 0.14935,1.238541 0.28809,0.28809 0.90018,-0.118614 0.90018,-0.598127 z m -1.6757,0.08719 c -0.097,-0.09701 -0.17639,-0.01764 -0.17639,0.176389 0,0.194028 0.0794,0.273403 0.17639,0.176389 0.097,-0.09701 0.097,-0.255764 0,-0.352778 z m 2.66788,-0.37397 c -0.25466,-0.148327 -0.46302,-0.462206 -0.46302,-0.69751 0,-0.235304 -0.0704,-0.357423 -0.15645,-0.271375 -0.29664,0.296642 0.19311,1.254643 0.6373,1.246615 0.4061,-0.0073 0.40453,-0.03173 -0.0178,-0.27773 z m -13.23467,-0.13866 c -0.0879,-0.08792 -0.31613,-0.09732 -0.50712,-0.02089 -0.21107,0.08446 -0.14837,0.147157 0.15985,0.159853 0.27891,0.01149 0.43518,-0.05105 0.34727,-0.138965 z m 9.85282,-1.54671 c 0.012,-1.114782 -0.49879,-0.506203 -0.66504,0.792336 -0.12285,0.959501 -0.10455,0.995068 0.26228,0.509822 0.21689,-0.2869 0.39813,-0.872871 0.40276,-1.302158 z m 1.34774,-0.527547 c 0.68669,0.621442 0.87612,0.376208 0.32129,-0.415927 -0.53671,-0.766249 -0.61588,-1.398464 -0.3391,-2.707776 0.11535,-0.545703 0.11063,-0.992187 -0.0105,-0.992187 -0.12114,0 -0.2871,0.506016 -0.36881,1.124479 -0.50602,3.830013 -0.59628,4.857251 -0.44753,5.093229 0.0917,0.145521 0.20321,-0.372927 0.24773,-1.152106 0.0792,-1.386208 0.092,-1.406642 0.59693,-0.949712 z m -18.80182,0.971859 c 0.0728,-0.06736 -0.26956,-0.03631 -0.76071,0.06901 -0.5844,0.125318 -0.83536,0.09824 -0.72622,-0.07836 0.0917,-0.14842 0.64758,-0.351084 1.23522,-0.450364 0.81256,-0.137283 1.00286,-0.259509 0.79465,-0.510388 -0.35529,-0.428101 -0.0883,-0.678063 0.72418,-0.678063 0.57509,0 0.60803,0.05058 0.28663,0.440193 -0.331,0.40125 -0.30761,0.410603 0.26444,0.105718 l 0.62757,-0.334475 -0.62757,-0.599964 c -0.56699,-0.542054 -0.69554,-0.565539 -1.33179,-0.243308 -0.49646,0.251437 -0.66529,0.505523 -0.57226,0.861261 0.1608,0.614912 -0.33902,0.980257 -0.80827,0.59081 -0.25467,-0.211355 -0.5513,-0.0966 -1.16378,0.450219 -0.81554,0.728115 -0.81744,0.735901 -0.24194,0.992259 0.51797,0.230732 1.73938,-0.09564 2.29985,-0.614547 z m 7.8292,-0.257155 c -0.18349,-0.183488 -0.68545,0.189321 -0.68545,0.509084 0,0.175444 0.15181,0.155372 0.40327,-0.05332 0.22179,-0.184076 0.34878,-0.389171 0.28218,-0.455766 z m 2.43663,0.143572 c 0.17462,-0.174625 0.30913,-0.502046 0.2989,-0.727604 -0.0128,-0.28289 -0.0822,-0.245957 -0.22366,0.119063 -0.13765,0.355191 -0.54472,0.582063 -1.23817,0.690058 l -1.03311,0.160892 0.93927,0.03755 c 0.5166,0.02065 1.08214,-0.10533 1.25677,-0.279955 z m -5.21429,-0.343958 c -0.002,-0.145521 -0.24575,-0.302553 -0.54184,-0.34896 -0.40311,-0.06318 -0.49707,0.02316 -0.37406,0.343718 0.17351,0.452174 0.92186,0.456457 0.9159,0.0052 z m 25.33525,-0.892454 c -0.006,-0.797606 -0.12653,-1.286242 -0.31558,-1.281235 -1.45054,0.03842 -1.61127,-0.341035 -0.37588,-0.887416 0.69434,-0.307088 0.86317,-0.540676 0.89508,-1.238374 0.0216,-0.472943 0.0119,-0.859896 -0.0217,-0.859896 -0.0336,0 -0.71591,0.654844 -1.51627,1.455209 -0.80037,0.800364 -1.34724,1.455208 -1.21528,1.455208 0.13197,0 0.16635,0.119062 0.0764,0.264583 -0.0899,0.145521 0.0609,0.264584 0.33514,0.264584 0.56069,0 1.83658,1.223763 1.56208,1.498262 -0.0976,0.09759 -0.17742,0.04776 -0.17742,-0.11073 0,-0.274446 -1.13023,-0.749733 -2.33426,-0.981607 -0.49413,-0.09516 -0.5222,-0.04777 -0.23969,0.404602 0.17599,0.281814 0.49971,0.516176 0.71937,0.520804 0.21965,0.0046 0.63049,0.183222 0.91296,0.396875 0.28248,0.213653 0.78167,0.38846 1.10933,0.38846 0.5378,0 0.59477,-0.125406 0.58575,-1.289329 z m -20.88077,0.616143 c 0.31236,0.193047 0.1829,-0.695344 -0.26818,-1.840355 -0.17502,-0.444251 -0.21174,-0.401794 -0.22885,0.264583 -0.0112,0.436562 -0.0886,1.091406 -0.17202,1.455208 -0.10868,0.474117 -0.0786,0.558187 0.10633,0.296832 0.14187,-0.200544 0.3951,-0.279865 0.56272,-0.176268 z m 12.98356,-0.136179 c 0,-0.136932 -0.11906,-0.248968 -0.26458,-0.248968 -0.14552,0 -0.26459,0.18562 -0.26459,0.41249 0,0.226869 0.11907,0.338905 0.26459,0.248968 0.14552,-0.08994 0.26458,-0.275557 0.26458,-0.41249 z m -6.22901,-0.26725 c -0.0837,-0.135466 -0.0191,-0.246302 0.14359,-0.246302 0.17191,0 0.20813,-0.138528 0.0865,-0.330729 -0.11514,-0.181901 -0.284,-0.926041 -0.37524,-1.653645 -0.15056,-1.200612 -0.16934,-1.1319 -0.20315,0.743219 -0.0242,1.340836 0.0571,2.007796 0.23165,1.899947 0.14789,-0.0914 0.20039,-0.277025 0.11667,-0.41249 z m -8.65931,0.123013 c -0.0879,-0.08792 -0.31613,-0.09732 -0.50712,-0.02089 -0.21107,0.08446 -0.14837,0.147157 0.15985,0.159852 0.27891,0.01149 0.43518,-0.05105 0.34727,-0.138964 z m 13.07816,-0.700044 c 0.062,-1.271551 -0.0124,-1.833626 -0.35458,-2.678655 -0.28759,-0.710277 -0.33106,-0.728753 -0.65908,-0.28016 -0.48798,0.667356 -0.43859,2.13389 0.10274,3.050284 0.59003,0.998836 0.85908,0.971819 0.91092,-0.09147 z m -12.62303,0.05135 c -0.43043,-0.475624 -0.44686,-0.616903 -0.13079,-1.124479 0.32991,-0.52979 0.3231,-0.548784 -0.0779,-0.217386 -0.51593,0.42639 -0.56986,1.120352 -0.12188,1.568332 0.54893,0.548925 0.84729,0.344514 0.33056,-0.226467 z m 2.79152,-1.142752 c 0,-0.636653 0.0694,-1.559388 0.15411,-2.050521 l 0.15412,-0.892968 -0.52945,0.652945 c -0.40497,0.49942 -0.46661,0.770366 -0.26219,1.152339 0.147,0.274667 0.19144,0.903575 0.0988,1.397575 -0.10427,0.55582 -0.0631,0.898182 0.10807,0.898182 0.15212,0 0.27657,-0.520898 0.27657,-1.157552 z m -2.11666,0.628386 c 0,-0.145521 -0.20836,-0.262761 -0.46302,-0.260532 -0.3957,0.0035 -0.40532,0.04134 -0.0662,0.260532 0.49932,0.322688 0.52917,0.322688 0.52917,0 z m 8.99583,-0.264584 c 0,-0.295302 -0.17639,-0.529166 -0.39912,-0.529166 -0.33288,0 -0.34427,0.08781 -0.0686,0.529166 0.18175,0.291042 0.36136,0.529167 0.39911,0.529167 0.0378,0 0.0687,-0.238125 0.0687,-0.529167 z m -14.9161,-0.927656 c 0.031,-1.121892 -0.27995,-1.515179 -0.79264,-1.002488 -0.10259,0.102587 -0.62845,0.204029 -1.16858,0.225426 -0.54013,0.0214 -1.42854,0.129307 -1.97424,0.239799 -0.67183,0.136029 -0.99219,0.105958 -0.99219,-0.09313 0,-0.161716 0.33337,-0.294029 0.74083,-0.294029 0.40746,0 0.85395,-0.111714 0.99219,-0.248252 0.13825,-0.136539 0.54901,-0.302574 0.91281,-0.368966 1.66442,-0.30375 2.2368,-0.701286 1.5875,-1.102574 -0.14552,-0.08994 -0.26458,-0.476426 -0.26458,-0.858866 v -0.695344 l 0.74208,0.710959 c 0.73354,0.702771 1.29444,0.958853 0.97771,0.446376 -0.0899,-0.14552 -0.0486,-0.264583 0.0919,-0.264583 0.14048,0 0.19628,-0.226191 0.12398,-0.502648 -0.28892,-1.10482 -2.92274,-0.703808 -2.8033,0.426816 0.0758,0.717612 -0.62258,1.337301 -1.03845,0.92143 -0.21846,-0.218466 -0.51791,-0.107958 -1.14164,0.421318 -0.46503,0.394603 -1.13039,0.952525 -1.47859,1.239829 -0.55231,0.455727 -0.574,0.534151 -0.17005,0.614713 0.25466,0.05079 0.46302,0.189936 0.46302,0.309218 0,0.385569 0.85004,0.556151 1.22416,0.245659 0.27267,-0.226298 0.45795,-0.22302 0.7425,0.01314 0.29687,0.246379 0.51655,0.224668 1.0121,-0.100025 0.59613,-0.3906 0.66905,-0.37625 1.25445,0.246882 0.34184,0.363874 0.69007,0.660862 0.77384,0.659974 0.0838,-9e-4 0.16711,-0.53667 0.18518,-1.190625 z m 1.60092,0.241005 c 0.089,-0.231919 0.33949,-0.326891 0.62401,-0.236587 0.80327,0.254949 1.84325,-0.140702 1.84325,-0.701249 0,-0.569722 -0.52093,-0.858658 -1.24131,-0.688491 -0.39041,0.09222 -0.34455,0.168187 0.24913,0.412703 0.40018,0.164823 0.7276,0.375407 0.7276,0.467964 0,0.166533 -1.55462,-0.05765 -2.24986,-0.324439 -0.34501,-0.132393 -1.18972,1.112191 -1.18972,1.75292 0,0.400974 1.04168,-0.174075 1.2369,-0.682821 z m 5.64226,0.157485 c 0,-0.291042 -0.10791,-0.529167 -0.23981,-0.529167 -0.1319,0 -0.17754,0.238125 -0.10143,0.529167 0.0761,0.291041 0.18402,0.529166 0.23981,0.529166 0.0558,0 0.10143,-0.238125 0.10143,-0.529166 z m 17.04829,0.236531 c -0.17736,-0.286982 2.13482,-2.57905 2.66317,-2.640005 0.34576,-0.03989 -0.9262,-0.446372 -1.50378,-0.480569 -0.28738,-0.01702 -0.47515,0.211267 -0.52917,0.64331 -0.0878,0.702634 -0.61065,0.926339 -0.61595,0.263559 -0.005,-0.59712 -0.42982,-0.854339 -1.66766,-1.009221 -1.27479,-0.159504 -1.7037,0.2778 -1.14691,1.16936 0.25008,0.400438 0.23291,0.494118 -0.0905,0.494118 -0.24933,0 -0.39911,0.248233 -0.39911,0.661458 0,0.578424 0.1152,0.661459 0.91774,0.661459 0.74727,0 0.88635,-0.08178 0.74878,-0.440279 -0.1136,-0.296039 -0.0675,-0.377603 0.1406,-0.248968 0.17025,0.10522 0.30954,0.06522 0.30954,-0.08889 0,-0.154109 -0.11532,-0.280199 -0.25628,-0.280199 -0.14095,0 -0.19248,-0.16624 -0.11451,-0.369423 0.078,-0.203183 -0.12695,-0.557632 -0.45537,-0.787664 -0.89548,-0.627218 -0.47778,-0.745337 0.48347,-0.136718 0.75366,0.477183 0.81917,0.622348 0.67975,1.506254 -0.0849,0.537997 -0.28472,1.06565 -0.44412,1.172562 -0.1594,0.106912 0.10417,0.196209 0.5857,0.198438 0.57299,0.0027 0.81302,-0.09706 0.69465,-0.288584 z m -0.63607,-0.911219 c 0.007,-0.684242 0.0431,-0.720261 0.29199,-0.292001 0.20351,0.350113 0.20123,0.57125 -0.008,0.780521 -0.21294,0.212946 -0.28982,0.08068 -0.28395,-0.48852 z m -19.32263,0.674688 c 0,-0.145521 -0.12609,-0.264584 -0.2802,-0.264584 -0.15411,0 -0.20662,0.119063 -0.11668,0.264584 0.0899,0.14552 0.21603,0.264583 0.2802,0.264583 0.0642,0 0.11668,-0.119063 0.11668,-0.264583 z m 4.6743,-0.440973 c -0.097,-0.09701 -0.17639,-0.01764 -0.17639,0.176389 0,0.194028 0.0794,0.273403 0.17639,0.176389 0.097,-0.09701 0.097,-0.255764 0,-0.352778 z m 11.37709,0 c -0.097,-0.09701 -0.17639,-0.01764 -0.17639,0.176389 0,0.194028 0.0794,0.273403 0.17639,0.176389 0.097,-0.09701 0.097,-0.255764 0,-0.352778 z m -14.2875,0 c -0.097,-0.09701 -0.25577,-0.09701 -0.35278,0 -0.097,0.09701 -0.0176,0.176389 0.17639,0.176389 0.19402,0 0.2734,-0.07937 0.17639,-0.176389 z m -0.69684,-0.749652 c 0.35904,-0.489481 0.35343,-0.501934 -0.0749,-0.166041 -0.25466,0.199719 -0.46302,0.487454 -0.46302,0.63941 0,0.151956 0.0337,0.226674 0.0749,0.16604 0.0412,-0.06063 0.24954,-0.348368 0.46302,-0.639409 z m 1.31266,0.06614 c -8.4e-4,-0.03638 -0.11586,-0.764258 -0.25559,-1.617507 -0.37475,-2.288302 0.26184,-3.593344 1.64619,-3.374762 0.10914,0.01723 0.19844,-0.08773 0.19844,-0.233251 0,-0.595795 0.50213,-0.211019 0.60424,0.463021 0.10601,0.69978 0.11174,0.695803 0.14986,-0.103984 0.0473,-0.991821 -0.60338,-1.371208 -1.28842,-0.751253 -0.25178,0.227861 -0.56199,0.395226 -0.68934,0.371922 -0.70545,-0.129087 -1.02901,0.08471 -1.06481,0.703599 -0.0217,0.375612 -0.28962,0.915948 -0.59531,1.200745 -0.71375,0.664961 -0.74029,1.143715 -0.0427,0.770376 0.64444,-0.344891 0.76462,-0.146017 0.84452,1.397511 0.0353,0.681851 0.16098,1.239729 0.27931,1.239729 0.11833,0 0.21446,-0.02976 0.21361,-0.06615 z m 8.07133,-0.198437 c 0.0899,-0.145521 -0.0221,-0.264583 -0.24897,-0.264583 -0.22687,0 -0.41249,0.119062 -0.41249,0.264583 0,0.145521 0.11204,0.264583 0.24897,0.264583 0.13693,0 0.32255,-0.119062 0.41249,-0.264583 z m -12.82827,-0.529167 c 0.16383,0.257554 0.25388,0.282111 0.25651,0.06996 0.002,-0.179806 0.54185,-0.462341 1.19917,-0.627855 0.65732,-0.165515 1.27216,-0.425587 1.36632,-0.577939 0.11437,-0.185055 0.003,-0.199112 -0.33522,-0.04235 -0.27854,0.12906 -1.01244,0.235438 -1.63091,0.236395 -0.61846,9.57e-4 -1.12448,0.09419 -1.12448,0.207183 0,0.411573 -0.98885,0.191594 -1.45521,-0.323724 -0.26338,-0.291042 -0.59268,-0.529167 -0.73177,-0.529167 -0.13909,0 0.0282,0.22928 0.37173,0.509511 0.49604,0.404618 0.54292,0.536476 0.22775,0.640496 -1.02064,0.336856 -1.12105,0.432308 -0.33073,0.314413 0.4742,-0.07074 0.8599,-0.01156 0.8599,0.131937 0,0.14667 0.23442,0.114921 0.53724,-0.07276 0.44422,-0.275318 0.58095,-0.264254 0.7897,0.0639 z m 5.82285,-1.337509 c 0.24765,-0.597861 0.47178,-0.785111 0.8282,-0.691905 0.26877,0.07029 0.48868,0.01988 0.48868,-0.112023 0,-0.131897 -0.30374,-0.239813 -0.67496,-0.239813 -0.52011,0 -0.76292,0.210514 -1.05834,0.917544 -0.44228,1.058543 -0.4744,1.286614 -0.15324,1.088123 0.12658,-0.07823 0.38292,-0.511093 0.56966,-0.961926 z m 5.73095,0.49415 c -0.0845,-0.211067 -0.14716,-0.148372 -0.15985,0.159852 -0.0115,0.278915 0.051,0.435185 0.13896,0.347266 0.0879,-0.08792 0.0973,-0.316122 0.0209,-0.507118 z m 0.79375,-0.264583 c -0.0845,-0.211067 -0.14716,-0.148372 -0.15985,0.159852 -0.0115,0.278915 0.051,0.435184 0.13896,0.347266 0.0879,-0.08792 0.0973,-0.316122 0.0209,-0.507118 z m 0.88228,-0.46321 c -0.1215,-0.423646 -0.17325,-0.839751 -0.115,-0.924678 0.0583,-0.08493 6.1e-4,-0.06412 -0.1281,0.04623 -0.28939,0.248142 -0.0497,1.966231 0.24855,1.781875 0.11851,-0.07324 0.11605,-0.47978 -0.005,-0.903427 z m 5.19879,0.601013 c -0.097,-0.09701 -0.17639,-0.01764 -0.17639,0.176389 0,0.194028 0.0794,0.273403 0.17639,0.176389 0.097,-0.09701 0.097,-0.255764 0,-0.352778 z m -24.12119,-0.352777 c 0.0899,-0.145521 0.0445,-0.264584 -0.10106,-0.264584 -0.14552,0 -0.33816,0.119063 -0.4281,0.264584 -0.0899,0.145521 -0.0445,0.264583 0.10106,0.264583 0.14552,0 0.33817,-0.119062 0.4281,-0.264583 z m 7.65974,-0.243253 c 0.21883,-0.354084 -0.59786,-1.079664 -1.21524,-1.079664 -0.29104,0 -0.69926,0.170089 -0.90714,0.377976 -0.59915,0.59915 -0.43973,0.781678 0.27417,0.313912 0.35868,-0.235018 0.80517,-0.423684 0.99219,-0.419259 0.20152,0.0048 0.15143,0.117899 -0.12299,0.277731 -0.25466,0.148326 -0.46302,0.382831 -0.46302,0.521121 0,0.322695 1.24329,0.329751 1.44203,0.0082 z m 16.23648,-0.618906 c 0.072,-0.624062 -0.0111,-0.725341 -0.59531,-0.725341 -0.53498,0 -0.67903,0.13097 -0.67903,0.617361 0,0.339549 0.0835,0.700852 0.18554,0.802896 0.39206,0.392064 1.00878,-0.0015 1.0888,-0.694916 z m 3.21303,0.213411 c 0.4582,-0.552102 0.22944,-1.335627 -0.38995,-1.335627 -0.39953,0 -0.54543,0.206192 -0.60846,0.859896 -0.0904,0.93739 0.41529,1.178338 0.99841,0.475731 z m -1.57695,-0.541877 c 0,-0.363802 -0.0498,-0.661459 -0.11066,-0.661459 -0.0609,0 -0.30193,-0.0734 -0.53571,-0.163112 -0.34118,-0.130921 -0.41267,-3.71e-4 -0.36224,0.661458 0.0803,1.054239 1.00861,1.204361 1.00861,0.163113 z m 3.175,0.544781 c 0,-0.06417 -0.11907,-0.190261 -0.26459,-0.280198 -0.14552,-0.08994 -0.26458,-0.03743 -0.26458,0.116677 0,0.154109 0.11906,0.280198 0.26458,0.280198 0.14552,0 0.26459,-0.0525 0.26459,-0.116677 z m -17.09542,-1.519031 c -0.20387,-0.329867 -0.89625,0.275079 -0.89625,0.78307 0,0.341403 0.0826,0.330695 0.52293,-0.06776 0.28761,-0.260284 0.4556,-0.582175 0.37332,-0.715313 z m 8.36417,0.297177 c 0,-0.531759 -0.38603,-0.694625 -0.64671,-0.272845 -0.2113,0.341903 0.12552,1.108505 0.40985,0.932783 0.13027,-0.08051 0.23686,-0.377485 0.23686,-0.659938 z m -13.49375,-0.248969 c 0,-0.145521 -0.17157,-0.264583 -0.38126,-0.264583 -0.2097,0 -0.45485,0.119062 -0.54479,0.264583 -0.0899,0.145521 0.0816,0.264583 0.38126,0.264583 0.29963,0 0.54479,-0.119062 0.54479,-0.264583 z m 1.68965,-0.139948 c 0.45341,-0.453412 0.29711,-1.182968 -0.25344,-1.182968 -0.36239,0 -0.90705,0.783934 -0.90705,1.305522 0,0.415998 0.69537,0.342563 1.16049,-0.122554 z m -5.40148,-0.114301 c 0.21406,-0.13538 0.32444,-0.31092 0.24527,-0.390089 -0.0792,-0.07917 -0.37338,0.02963 -0.6538,0.241782 -0.55784,0.422033 -0.21887,0.545088 0.40853,0.148307 z m 2.07936,-0.494532 c 0.0727,-0.512978 -0.0162,-0.601828 -0.52917,-0.529167 -0.41099,0.05822 -0.6456,0.29282 -0.70381,0.703813 -0.0727,0.512978 0.0162,0.601827 0.52917,0.529167 0.41099,-0.05822 0.64559,-0.29282 0.70381,-0.703813 z m 19.19712,0.344249 c 0.54415,-0.544154 0.2549,-1.182968 -0.53564,-1.182968 -0.68412,0 -1.04367,0.53933 -0.79375,1.190625 0.19616,0.511196 0.81409,0.507637 1.32939,-0.0077 z m 1.85831,-0.08594 c 0.0768,-0.124242 -0.15431,-0.359814 -0.51355,-0.523494 -0.69316,-0.315822 -0.8638,-0.09625 -0.33566,0.431888 0.37399,0.373996 0.65589,0.404405 0.84921,0.09161 z m -19.14907,-0.711361 c 0.23659,-0.285078 0.25492,-0.491851 0.0608,-0.68597 -0.36039,-0.360384 -1.39303,0.163334 -1.39303,0.706492 0,0.51134 0.90236,0.497439 1.33223,-0.02052 z m 3.31223,-0.408715 c 0.0978,-0.158201 0.0612,-0.404194 -0.0812,-0.546653 -0.16896,-0.168964 -0.30871,-0.06896 -0.40196,0.287637 -0.15024,0.574488 0.17913,0.751034 0.48321,0.259016 z m -1.00092,-0.456504 c 0.12199,-0.365973 -0.89385,-0.431699 -1.11603,-0.07221 -0.15805,0.25573 0.34368,0.549594 0.76325,0.447033 0.13642,-0.03335 0.29517,-0.20202 0.35278,-0.374826 z m 13.2519,-0.07863 c -0.19744,-0.125102 -0.5971,-0.225063 -0.88815,-0.222135 -0.46845,0.0047 -0.45365,0.04712 0.12898,0.36961 0.68953,0.381661 1.38196,0.247149 0.75917,-0.147475 z m -11.33919,0.176928 c 0,-0.06417 -0.13746,-0.201631 -0.30546,-0.305464 -0.18926,-0.116966 -0.23364,-0.07258 -0.11668,0.116677 0.1885,0.304999 0.42214,0.409487 0.42214,0.188787 z m 2.38125,-0.41249 c 0,-0.145521 -0.0525,-0.264583 -0.11667,-0.264583 -0.0642,0 -0.19027,0.119062 -0.2802,0.264583 -0.0899,0.145521 -0.0374,0.264584 0.11667,0.264584 0.15411,0 0.2802,-0.119063 0.2802,-0.264584 z m 7.32014,-0.176389 c -0.097,-0.09701 -0.25576,-0.09701 -0.35278,0 -0.097,0.09701 -0.0176,0.176389 0.17639,0.176389 0.19403,0 0.27341,-0.07937 0.17639,-0.176389 z"
       id="path22572" />
  </g>
</svg>
