<?xml version="1.0" encoding="UTF-8" standalone="no"?>
<!-- Created with Inkscape (http://www.inkscape.org/) -->

<svg
   width="80.891747mm"
   height="83.833702mm"
   viewBox="0 0 80.89176 83.833701"
   version="1.1"
   id="svg5"
   inkscape:version="1.1 (c4e8f9ed74, 2021-05-24)"
   sodipodi:docname="ornatec8.svg"
   xmlns:inkscape="http://www.inkscape.org/namespaces/inkscape"
   xmlns:sodipodi="http://sodipodi.sourceforge.net/DTD/sodipodi-0.dtd"
   xmlns="http://www.w3.org/2000/svg"
   xmlns:svg="http://www.w3.org/2000/svg">
  <sodipodi:namedview
     id="namedview7"
     pagecolor="#ffffff"
     bordercolor="#666666"
     borderopacity="1.0"
     inkscape:pageshadow="2"
     inkscape:pageopacity="0.0"
     inkscape:pagecheckerboard="0"
     inkscape:document-units="mm"
     showgrid="false"
     inkscape:zoom="1.3380612"
     inkscape:cx="440.56282"
     inkscape:cy="158.06452"
     inkscape:window-width="2506"
     inkscape:window-height="1403"
     inkscape:window-x="1974"
     inkscape:window-y="0"
     inkscape:window-maximized="1"
     inkscape:current-layer="layer1" />
  <defs
     id="defs2" />
  <g
     inkscape:label="Layer 1"
     inkscape:groupmode="layer"
     id="layer1"
     transform="translate(484.94513,-613.61444)">
    <path
       style="fill:#000000;stroke-width:0.264583"
       d="m -425.57152,696.85234 c 0.0554,-0.52304 -0.0976,-0.62069 -1.25989,-0.8044 -0.72761,-0.115 -1.73964,-0.29532 -2.24896,-0.40071 -0.50932,-0.10539 -1.64042,-0.1041 -2.51354,0.003 -0.90674,0.11107 -2.37072,0.0712 -3.41392,-0.093 -1.18495,-0.18654 -3.32224,-0.21715 -6.08542,-0.0872 -4.56194,0.21462 -9.25702,0.20241 -11.40275,-0.0296 -1.61828,-0.17501 -5.17501,-0.31356 -12.30312,-0.47924 -2.98318,-0.0693 -6.73365,-0.24813 -8.33438,-0.39731 -1.60073,-0.14919 -4.45823,-0.26503 -6.35,-0.25743 -1.89177,0.008 -3.65402,0.003 -3.9161,-0.01 -0.59162,-0.0294 -1.21854,-1.45574 -1.24793,-2.83911 -0.0119,-0.56159 0.10075,-2.33076 0.25041,-3.93149 0.20625,-2.20601 0.36549,-21.36922 0.22646,-27.25208 -0.0103,-0.43657 0.0242,-1.55033 0.0766,-2.47502 0.077,-1.35742 0.008,-1.74528 -0.35902,-2.01355 -0.70772,-0.5175 -0.63483,-3.22277 0.10814,-4.01363 0.54662,-0.58185 0.56136,-0.79596 0.52055,-7.55768 -0.0231,-3.82738 -0.0768,-8.50669 -0.11941,-10.39846 -0.0498,-2.21314 0.0477,-3.95517 0.27355,-4.88556 0.43789,-1.80416 0.48557,-9.6403 0.0763,-12.5482 -0.25167,-1.78837 -0.23582,-2.14594 0.11041,-2.49217 0.34916,-0.34916 0.60794,-0.35865 1.89918,-0.0697 1.12077,0.25081 12.06921,0.83964 15.46224,0.83158 0.21828,-5.3e-4 2.65906,-0.024 5.42396,-0.0521 3.20401,-0.0326 5.51156,0.0651 6.36303,0.26958 0.87536,0.21018 1.55949,0.23618 1.98437,0.0754 0.35664,-0.13495 1.06515,-0.20024 1.57447,-0.14509 0.50933,0.0552 3.18823,0.0944 5.95313,0.0873 5.59576,-0.0145 5.79898,-0.0114 8.59896,0.12878 2.54884,0.12761 18.22518,0.44598 25.90701,0.52614 5.93036,0.0619 5.931,0.062 6.15722,0.67351 0.12444,0.33639 0.14259,0.86225 0.0403,1.16859 -0.10226,0.30633 -0.16671,3.08148 -0.14322,6.167 0.0299,3.93196 -0.0469,5.6654 -0.25674,5.79511 -0.64499,0.39863 -0.94578,-0.72006 -0.98692,-3.67053 -0.0872,-6.25016 -0.16449,-8.09466 -0.34706,-8.2767 -0.3675,-0.36644 -6.12496,-0.33173 -6.73267,0.0406 -0.53824,0.32976 -1.60003,0.3292 -2.66218,-0.001 -0.2588,-0.0806 -0.63736,-0.0418 -0.84124,0.0862 -0.22837,0.14337 -0.78707,0.0842 -1.45521,-0.15408 -0.72908,-0.26002 -2.60202,-0.42631 -5.71473,-0.50736 -2.54661,-0.0663 -6.43589,-0.16874 -8.64285,-0.22761 -2.20695,-0.0589 -4.23101,-0.20855 -4.49791,-0.33262 -0.26691,-0.12407 -1.17622,-0.21234 -2.0207,-0.19614 -1.6425,0.0315 -2.50258,0.53078 -2.21323,1.28481 0.12938,0.33715 0.61584,0.41739 2.53058,0.41739 1.30372,0 3.24222,0.1182 4.30778,0.26266 1.9114,0.25913 15.99639,0.64943 19.79675,0.54857 0.3638,-0.01 2.0693,-0.002 3.78999,0.017 3.10971,0.0344 3.13009,0.0387 3.3892,0.72019 0.16444,0.43252 0.20058,3.96061 0.0979,9.55663 -0.0895,4.87904 -0.13912,9.94255 -0.11019,11.25223 0.0289,1.30969 0.0228,4.7625 -0.0137,7.67292 -0.0365,2.91042 -0.0884,7.61339 -0.11536,10.45104 -0.027,2.83766 -0.14506,7.71922 -0.26239,10.84792 -0.11732,3.1287 -0.24757,9.85573 -0.28943,14.94896 -0.0419,5.09323 -0.0896,9.36221 -0.10607,9.48663 -0.0165,0.12441 -0.98187,0.17105 -2.14532,0.10363 -1.6076,-0.0932 -2.18921,-0.0336 -2.42296,0.24802 -0.49871,0.60091 0.0237,0.81788 2.42167,1.00583 1.68639,0.13217 2.36072,0.0885 2.69577,-0.17455 0.39625,-0.31111 0.48217,-1.5486 0.75909,-10.93414 0.17175,-5.82084 0.33465,-12.90506 0.362,-15.74271 0.0506,-5.24936 0.16936,-6.08542 0.86447,-6.08542 0.34078,0 0.36863,1.05183 0.21539,8.13594 -0.0968,4.47476 -0.21535,12.02918 -0.26347,16.7876 -0.0481,4.75841 -0.16734,8.78087 -0.26494,8.93878 -0.1807,0.29238 -13.50131,0.15147 -14.48922,-0.15326 -0.51759,-0.15966 -4.36508,0.36504 -4.9179,0.67068 -0.19494,0.10777 -0.34377,0.27455 -0.33073,0.37061 0.0677,0.49848 -0.002,0.70382 -0.23776,0.70382 -0.14381,0 -0.2331,-0.26789 -0.19844,-0.59532 z m -0.20156,-2.28849 c 12.35485,0.15357 12.42898,0.15084 12.51632,-0.46182 0.0706,-0.49535 -0.0807,-0.58772 -1.19063,-0.72664 -0.69933,-0.0875 -1.50965,-0.1439 -1.80069,-0.12526 -0.29104,0.0186 -6.89901,0.0533 -14.68437,0.0771 -13.71003,0.0418 -16.79254,-0.0949 -16.17012,-0.71734 0.43558,-0.43559 16.82814,-0.36672 17.35787,0.0729 0.31983,0.26544 0.55861,0.26536 1.20022,-5.2e-4 0.62149,-0.25744 2.86882,-0.28821 10.03058,-0.13737 l 9.22963,0.19439 0.31564,-0.58978 c 0.20707,-0.38691 0.25645,-1.1471 0.14355,-2.20994 -0.0947,-0.89108 -0.0479,-2.93096 0.10399,-4.53306 0.3363,-3.54815 0.44836,-11.28211 0.17,-11.73252 -0.11106,-0.17969 -0.0829,-0.47032 0.0625,-0.64584 0.35501,-0.4285 0.68402,-23.94248 0.34739,-24.82787 -0.15536,-0.40863 -0.1554,-0.82154 -10e-5,-1.09904 0.32946,-0.58871 0.64816,-27.04898 0.32817,-27.24675 -0.39325,-0.24304 -7.55939,-0.50223 -23.78077,-0.8601 -3.78354,-0.0835 -8.24839,-0.20196 -9.92188,-0.26331 -1.67349,-0.0613 -8.04669,-0.15676 -14.16267,-0.21203 -6.97148,-0.063 -11.31459,-0.20292 -11.64167,-0.37504 -0.30762,-0.16189 -2.62646,-0.27609 -5.65077,-0.27828 l -5.12906,-0.004 -0.90869,0.90869 -0.90868,0.90868 -0.11137,3.20558 c -0.0613,1.76319 -0.22757,4.16986 -0.3696,5.34828 -0.15268,1.26686 -0.25768,13.44332 -0.25688,29.79154 7.4e-4,15.20693 -0.0713,28.46993 -0.16012,29.47334 -0.24957,2.81982 -0.15442,2.99399 1.65847,3.03579 0.8386,0.0193 3.72754,0.20943 6.41987,0.42245 2.69232,0.21302 6.80013,0.45361 9.12846,0.53464 2.32834,0.081 4.70959,0.20571 5.29167,0.27704 0.58208,0.0713 3.0657,0.18922 5.51916,0.26196 4.61602,0.13685 5.74184,0.3447 4.74801,0.87658 -0.51393,0.27505 -1.80375,0.262 -7.75363,-0.0785 -1.38245,-0.0791 -4.49476,-0.20188 -6.91625,-0.27282 -2.42149,-0.0709 -4.59438,-0.20254 -4.82865,-0.29244 -0.23426,-0.0899 -0.62014,-0.0889 -0.85751,0.002 -0.37794,0.14503 -0.36072,0.22707 0.13852,0.66006 0.66107,0.57334 2.55338,0.87283 6.11389,0.96763 1.38245,0.0368 4.53761,0.15105 7.01146,0.25386 2.47385,0.10282 6.324,0.22332 8.55588,0.26779 2.23188,0.0445 4.11957,0.14246 4.19488,0.21777 0.0753,0.0753 3.19032,0.0826 6.92225,0.0162 3.73193,-0.0664 8.09501,-0.10439 9.69574,-0.0845 z m 11.11134,-3.46806 c -0.0906,-0.14655 0.0266,-0.33985 0.26039,-0.42956 0.50658,-0.1944 0.78891,0.0198 0.5454,0.41382 -0.2197,0.35549 -0.59132,0.36275 -0.80579,0.0158 z m -3.57071,-0.26272 c 0,-0.14552 0.11906,-0.26458 0.26458,-0.26458 0.14552,0 0.26458,0.11906 0.26458,0.26458 0,0.14552 -0.11906,0.26459 -0.26458,0.26459 -0.14552,0 -0.26458,-0.11907 -0.26458,-0.26459 z m 7.40833,0 c 0,-0.14552 0.11906,-0.26458 0.26458,-0.26458 0.14552,0 0.26459,0.11906 0.26459,0.26458 0,0.14552 -0.11907,0.26459 -0.26459,0.26459 -0.14552,0 -0.26458,-0.11907 -0.26458,-0.26459 z m -39.83067,-0.28218 c -0.24351,-0.39401 0.0388,-0.60822 0.5454,-0.41383 0.23378,0.0897 0.35095,0.28301 0.26038,0.42956 -0.21446,0.34701 -0.58608,0.33976 -0.80578,-0.0157 z m 2.789,0.0176 c 0,-0.14552 0.1786,-0.26458 0.39688,-0.26458 0.21828,0 0.39687,0.11906 0.39687,0.26458 0,0.14552 -0.17859,0.26458 -0.39687,0.26458 -0.21828,0 -0.39688,-0.11906 -0.39688,-0.26458 z m 3.30729,0 c -0.10561,-0.17088 -0.0729,-0.42975 0.0726,-0.57527 0.17639,-0.17639 0.32859,-0.16102 0.4566,0.0461 0.10561,0.17088 0.073,0.42975 -0.0726,0.57528 -0.17639,0.17639 -0.3286,0.16102 -0.45661,-0.0461 z m 11.90625,0 c -0.0899,-0.14552 -0.0374,-0.26458 0.11668,-0.26458 0.15411,0 0.2802,0.11906 0.2802,0.26458 0,0.14552 -0.0525,0.26458 -0.11668,0.26458 -0.0642,0 -0.19026,-0.11906 -0.2802,-0.26458 z m 3.04271,0 c 0,-0.14552 0.1786,-0.26458 0.39688,-0.26458 0.21828,0 0.39687,0.11906 0.39687,0.26458 0,0.14552 -0.17859,0.26458 -0.39687,0.26458 -0.21828,0 -0.39688,-0.11906 -0.39688,-0.26458 z m -30.38739,-0.25135 c 0.11369,-0.34109 0.47659,-0.40236 0.50932,-0.086 0.0109,0.1055 -0.12303,0.23944 -0.29766,0.29765 -0.17462,0.0582 -0.26987,-0.037 -0.21166,-0.21166 z m 3.00302,-0.0132 c -0.0899,-0.14552 -0.0374,-0.26459 0.11667,-0.26459 0.15411,0 0.2802,0.11907 0.2802,0.26459 0,0.14552 -0.0525,0.26458 -0.11667,0.26458 -0.0642,0 -0.19027,-0.11906 -0.2802,-0.26458 z m 3.30729,0 c 0,-0.14552 0.11906,-0.26459 0.26458,-0.26459 0.14552,0 0.26458,0.11907 0.26458,0.26459 0,0.14552 -0.11906,0.26458 -0.26458,0.26458 -0.14552,0 -0.26458,-0.11906 -0.26458,-0.26458 z m 12.57037,-0.004 c 0.0914,-0.14789 0.27703,-0.2004 0.41249,-0.11667 0.36699,0.22681 0.29856,0.38557 -0.16619,0.38557 -0.22687,0 -0.3377,-0.121 -0.2463,-0.2689 z m -21.83079,-0.40817 c 0,-0.22687 0.11906,-0.33891 0.26458,-0.24897 0.14553,0.0899 0.26459,0.27556 0.26459,0.41249 0,0.13693 -0.11906,0.24897 -0.26459,0.24897 -0.14552,0 -0.26458,-0.18563 -0.26458,-0.41249 z m -5.40201,-0.0812 c -0.11398,-0.18442 -0.13577,-0.40675 -0.0484,-0.49409 0.23679,-0.23679 0.49497,0.11147 0.36708,0.49516 -0.0896,0.26886 -0.15194,0.26865 -0.31864,-10e-4 z m 2.49159,-0.0355 c 0,-0.14552 0.11907,-0.26458 0.26459,-0.26458 0.14552,0 0.26458,0.11906 0.26458,0.26458 0,0.14552 -0.11906,0.26458 -0.26458,0.26458 -0.14552,0 -0.26459,-0.11906 -0.26459,-0.26458 z m -5.1454,-0.24199 c -0.0852,-0.13784 -0.0421,-0.32031 0.0957,-0.4055 0.13784,-0.0852 0.32032,-0.0421 0.40551,0.0957 0.0852,0.13784 0.0421,0.32032 -0.0957,0.40551 -0.13784,0.0852 -0.32032,0.0421 -0.4055,-0.0957 z m 52.47197,-0.30741 c -0.13512,-0.0839 -3.16786,-0.15788 -6.73941,-0.16443 -6.06714,-0.0111 -7.62948,-0.17959 -6.74354,-0.72713 0.48592,-0.30032 0.3473,-1.46838 -0.17539,-1.47782 -0.47836,-0.009 -0.23197,-0.27666 1.57327,-1.71143 0.93184,-0.7406 1.31403,-1.58254 1.10854,-2.44197 -0.26048,-1.08937 -0.314,-1.12655 -1.12821,-0.78383 -1.87201,0.78798 -4.00761,4.94559 -2.54036,4.94559 0.57856,0 0.0369,1.41407 -0.68533,1.78914 -0.46676,0.2424 -1.77348,0.30337 -4.76725,0.22243 -2.26834,-0.0613 -4.28265,-0.0136 -4.47625,0.10605 -0.2055,0.127 -0.58126,0.0697 -0.90284,-0.1376 -0.70605,-0.45522 -3.28976,-0.35489 -3.59538,0.13962 -0.16354,0.26462 -0.3153,0.28366 -0.57331,0.072 -0.21422,-0.17578 -2.56659,-0.34935 -6.03944,-0.44564 -3.1287,-0.0867 -7.63162,-0.27712 -10.0065,-0.42307 -2.37488,-0.14595 -4.58839,-0.19749 -4.91891,-0.11453 -0.33052,0.0829 -1.30447,-0.0235 -2.16433,-0.23663 -0.85986,-0.2131 -1.74198,-0.39716 -1.96026,-0.40902 -1.47032,-0.0799 -3.35972,-0.40683 -3.63941,-0.62973 -0.25143,-0.20036 -0.33837,-2.1048 -0.35784,-7.83788 -0.0142,-4.16528 -0.0343,-8.109 -0.0448,-8.76385 -0.0996,-6.19809 0.0719,-20.84477 0.3268,-27.91354 0.11018,-3.05594 0.24706,-8.86984 0.30417,-12.91977 0.0967,-6.85833 0.13827,-7.38871 0.60583,-7.73059 0.2761,-0.20189 0.60183,-0.30537 0.72384,-0.22996 0.12202,0.0754 2.99174,0.18304 6.37717,0.23918 7.73466,0.12826 15.43684,0.33785 16.47407,0.44829 0.72302,0.077 0.78608,0.16114 0.70767,0.94441 -0.08,0.79926 -0.0298,0.8599 0.71264,0.8599 0.60945,0 0.91147,-0.19085 1.27445,-0.80533 l 0.47572,-0.80532 2.78039,0.0223 c 1.52921,0.0122 5.975,0.017 9.87954,0.0105 3.90453,-0.006 7.27671,0.0876 7.49371,0.20903 0.21701,0.12144 0.89192,0.15029 1.4998,0.0641 1.14453,-0.16228 15.67377,0.17229 16.24442,0.37406 0.2483,0.0878 0.29945,2.40415 0.22229,10.06762 -0.0551,5.47446 -0.17941,10.03277 -0.2762,10.12956 -0.0968,0.0968 -0.29204,-0.0314 -0.43387,-0.28482 -0.14184,-0.25345 -0.49812,-0.46082 -0.79174,-0.46082 -0.42847,0 -0.49971,0.11751 -0.36093,0.59531 0.0951,0.32743 0.44586,0.83344 0.77944,1.12448 0.71343,0.62245 1.02553,2.26132 0.96644,5.07489 -0.0231,1.1017 0.0784,1.97302 0.2418,2.07397 0.1671,0.10328 0.22166,0.62201 0.13412,1.27512 -0.0812,0.60556 -0.2002,3.37117 -0.26452,6.14579 -0.0643,2.77463 -0.23867,8.13244 -0.38744,11.90625 -0.14878,3.77382 -0.32286,9.46068 -0.38685,12.63749 -0.064,3.1768 -0.15637,5.81508 -0.20528,5.86285 -0.16519,0.16133 -6.09267,0.26872 -6.34049,0.11487 z m -17.58032,-2.13708 c 0.22894,-0.45892 0.41626,-0.87564 0.41626,-0.92605 0,-0.31335 -1.82976,0.005 -2.35641,0.40956 -0.88368,0.67938 -0.58099,1.35089 0.60893,1.35089 0.76215,0 0.98449,-0.13936 1.33122,-0.8344 z m 7.39693,-0.2247 c 1.05426,-1.16694 1.18544,-1.84285 0.51063,-2.63098 -0.43946,-0.51325 -0.45941,-0.5083 -1.3201,0.32771 -0.70593,0.68567 -0.87444,1.05649 -0.87672,1.92921 -0.005,1.77697 0.34806,1.85521 1.68619,0.37406 z m 8.5729,0.61035 c 1.63895,-1.02393 2.51181,-2.67035 1.24747,-2.35302 -0.54197,0.13602 -0.66146,0.0695 -0.66146,-0.36819 0,-0.29382 -0.16014,-0.53421 -0.35587,-0.53421 -0.58611,0 -1.18458,0.86079 -1.46443,2.10633 -0.38105,1.6959 -0.0838,1.97258 1.23429,1.14909 z m -26.66608,-0.39926 0.66146,-0.25143 -0.62462,-0.50862 c -0.8908,-0.72535 -1.69102,-0.64574 -2.08736,0.20766 -0.1819,0.39168 -0.33073,0.81693 -0.33073,0.945 0,0.2436 1.24943,0.0376 2.38125,-0.39261 z m 32.82692,-0.77032 c -0.75782,-1.24304 -0.71472,-1.82126 0.13576,-1.82126 0.9469,0 0.68761,-0.58868 -0.42059,-0.95488 -1.05058,-0.34716 -1.85042,-0.19629 -1.85042,0.34905 0,0.21493 -0.23812,0.45306 -0.52916,0.52917 -0.62098,0.16239 -0.61365,0.13094 -0.22804,0.97726 0.18374,0.40327 0.60884,0.7285 1.09045,0.83428 0.44636,0.098 0.84464,0.38492 0.91664,0.66028 0.13477,0.51535 0.85204,0.81339 1.2151,0.50489 0.11882,-0.10096 -0.0296,-0.58641 -0.32974,-1.07879 z m -10.00129,0.22037 c -0.13374,-0.17701 -0.4615,-1.06598 -0.72837,-1.97548 -0.47588,-1.62187 -0.93059,-2.17132 -0.93059,-1.12448 0,0.29398 -0.17639,0.52917 -0.39687,0.52917 -0.88505,0 0.0446,2.17472 1.24085,2.90256 0.8557,0.52065 1.3171,0.33282 0.81498,-0.33177 z m 6.71885,0.45413 c 0.20933,-0.54549 -0.33931,-1.11509 -0.71356,-0.74083 -0.303,0.303 -0.0744,1.15549 0.30986,1.15549 0.13452,0 0.31619,-0.1866 0.4037,-0.41466 z m -50.47167,-1.07681 c 0.37106,-1.05394 0.24114,-2.47728 -0.22611,-2.47728 -0.13263,0 -0.28981,0.26789 -0.3493,0.59531 -0.098,0.5393 -0.13949,0.5144 -0.44116,-0.26458 -0.25137,-0.64909 -0.50503,-0.86978 -1.03472,-0.9002 -0.38595,-0.0222 -0.82079,-0.068 -0.96631,-0.10177 -0.14552,-0.0338 -0.41341,-0.0752 -0.59531,-0.092 -0.1819,-0.0168 -0.33073,-0.20911 -0.33073,-0.4274 0,-0.81839 -1.14865,-0.39016 -2.29104,0.85413 -1.74143,1.89679 -1.50467,2.47199 0.74281,1.80456 0.75565,-0.22441 1.6711,-0.60274 2.03434,-0.84074 0.61784,-0.40482 0.68318,-0.40162 1.0132,0.0497 0.19403,0.26534 0.35277,0.77943 0.35277,1.14242 0,0.71555 0.98612,1.95119 1.43996,1.80433 0.15391,-0.0498 0.44713,-0.56573 0.6516,-1.1465 z m 5.38714,0.63026 c 0.56194,-0.45612 0.81723,-1.00693 1.09979,-2.37296 0.20238,-0.97844 0.61721,-2.09582 0.92183,-2.48308 0.30462,-0.38726 0.55385,-0.87476 0.55385,-1.08332 0,-0.83373 -1.52292,0.73321 -2.29052,2.35672 -1.23757,2.61752 -1.67823,3.64778 -1.67823,3.92366 0,0.43445 0.62693,0.281 1.39328,-0.34102 z m 7.33797,-0.0456 c 0,-0.71847 -1.10783,-1.73899 -1.88776,-1.73899 -0.50794,0 -0.65815,0.65431 -0.28496,1.24127 0.20467,0.32191 1.61554,1.1354 1.97428,1.13835 0.10914,7.9e-4 0.19844,-0.28739 0.19844,-0.64063 z m 5.55625,-0.13588 c 0,-0.39157 -0.51193,-0.60801 -0.99744,-0.4217 -0.38121,0.14628 -0.38867,0.20429 -0.0535,0.41627 0.5051,0.31942 1.05092,0.32225 1.05092,0.005 z m 8.52611,-0.36732 c 0.3242,-0.50966 0.23739,-0.70746 -0.42023,-0.95749 -1.16783,-0.44401 -1.04669,-1.40512 0.20657,-1.63889 0.27899,-0.0521 0.5568,-0.24345 0.61736,-0.42535 0.0783,-0.23523 -0.27269,-0.33073 -1.21564,-0.33073 -1.12601,0 -1.41064,0.1079 -1.88909,0.71615 -0.69075,0.87815 -0.53872,1.80333 0.43983,2.67663 0.71753,0.64035 1.84096,0.62032 2.2612,-0.0403 z m -29.78058,-0.8184 c -0.0881,-0.22957 -0.27495,-0.41739 -0.41523,-0.41739 -0.33997,0 -0.63673,0.9771 -0.40878,1.34593 0.26853,0.43449 1.02147,-0.41397 0.82401,-0.92854 z m 12.0498,0.8094 c 0.60252,-0.45776 0.94119,-1.40742 1.03272,-2.89582 0.0965,-1.5685 -0.13532,-1.78087 -0.78238,-0.71687 -0.4707,0.77401 -0.54013,0.80597 -0.78816,0.36278 -0.14959,-0.26731 -0.33994,-0.41807 -0.42298,-0.33502 -0.3239,0.3239 -0.44914,2.52848 -0.18282,3.21803 0.31337,0.81134 0.48582,0.86666 1.14362,0.3669 z m -6.40575,-0.286 c 0,-0.21017 -0.29389,-0.71618 -0.65309,-1.12448 -0.59056,-0.67127 -0.6539,-0.69099 -0.66146,-0.20592 -0.009,0.60137 0.68162,1.71252 1.06497,1.71252 0.13727,0 0.24958,-0.17195 0.24958,-0.38212 z m 11.82635,-0.74236 c -0.51724,-2.17466 -1.5357,-3.65972 -2.75976,-4.02408 -0.57295,-0.17055 -0.58772,-0.12714 -0.4913,1.44385 0.0547,0.89082 0.1419,1.65831 0.19383,1.70552 0.62191,0.56532 2.26865,1.47003 2.67573,1.47003 0.40803,0 0.49195,-0.13095 0.3815,-0.59532 z m 31.51758,-1.19062 c 0.10011,-0.70492 -0.37046,-0.77589 -1.2163,-0.18344 -0.84179,0.58961 -0.72561,0.95783 0.27186,0.86166 0.65906,-0.0635 0.87964,-0.22195 0.94444,-0.67822 z m -27.82733,0.0613 c 0.20149,-0.52509 -0.87452,-1.71496 -1.55086,-1.71496 -0.27176,0 -0.75702,0.24691 -1.07836,0.54868 l -0.58425,0.54867 0.55444,0.45283 c 0.75254,0.61462 2.44613,0.71957 2.65903,0.16478 z m 10.96134,0.20327 c 0.0108,-0.10914 0.0581,-1.53789 0.10518,-3.175 0.0788,-2.74213 0.0473,-2.97656 -0.39997,-2.97656 -0.43674,0 -0.49386,0.29399 -0.5682,2.92471 -0.0457,1.61739 0.0297,3.0366 0.1687,3.175 0.30125,0.29997 0.66708,0.32729 0.69429,0.0518 z m 3.1554,-0.20203 c 0,-0.22025 -0.14883,-0.65253 -0.33073,-0.96061 -0.23506,-0.39811 -0.24591,-0.59117 -0.0375,-0.66741 0.16126,-0.059 0.51845,-0.28155 0.79375,-0.49456 0.48287,-0.37363 0.47485,-0.40677 -0.22706,-0.93857 -0.83282,-0.63098 -0.91741,-1.18178 -0.28826,-1.87698 0.24164,-0.26701 0.35097,-0.57386 0.24295,-0.68188 -0.10802,-0.10802 -0.33549,-0.0173 -0.50549,0.20156 -0.17001,0.21888 -0.66629,0.51866 -1.10285,0.66617 -0.72806,0.24601 -0.80032,0.38124 -0.87309,1.63393 -0.0735,1.26584 -0.006,1.4438 0.92604,2.43323 1.08736,1.15455 1.40226,1.30841 1.40226,0.68512 z m 1.98437,-0.37486 c 0,-0.20416 -0.11906,-0.40895 -0.26458,-0.45509 -0.43408,-0.13764 -1.00868,0.35348 -0.80298,0.68632 0.25518,0.41289 1.06756,0.23693 1.06756,-0.23123 z m -12.03854,-1.03706 c 0,-0.47385 1.95146,-1.09803 3.43295,-1.09803 1.6342,0 1.97382,-0.18593 1.6901,-0.92528 -0.14591,-0.38026 -0.42465,-0.41833 -1.94493,-0.26565 l -1.77461,0.17821 -0.85628,-1.08114 c -0.47721,-0.60253 -1.0846,-1.08114 -1.37203,-1.08114 -0.28367,0 -0.93247,0.41672 -1.4418,0.92604 -0.50932,0.50933 -1.04113,0.92605 -1.1818,0.92605 -0.57454,0 -0.18227,0.69728 1.0728,1.90701 1.13029,1.08946 1.40669,1.23875 1.85208,1.00038 0.28794,-0.1541 0.52352,-0.373 0.52352,-0.48645 z m 27.84626,0.42333 c 0.18213,-0.49525 -0.0602,-0.99219 -0.48393,-0.99219 -0.20616,0 -0.37483,0.21828 -0.37483,0.48507 0,0.79279 0.61923,1.15846 0.85876,0.50712 z m -45.54399,-0.34888 c 0.72227,-0.44638 -1.98632,-2.23081 -3.38616,-2.23081 -0.84609,0 -0.7783,0.6866 0.11566,1.17158 0.51876,0.28143 0.59471,0.39777 0.26458,0.40533 -0.64523,0.0148 -0.57782,0.40116 0.1323,0.75828 0.5454,0.27429 2.36805,0.20809 2.87362,-0.10438 z m 43.00737,-0.16652 c -0.0836,-0.31985 -0.0277,-0.73135 0.12421,-0.91445 0.48266,-0.58156 -0.0224,-0.88526 -1.47227,-0.88526 -1.45113,0 -2.13995,0.40307 -1.86434,1.09095 0.20701,0.5167 1.70914,1.24972 2.60602,1.2717 0.65432,0.016 0.73758,-0.0612 0.60638,-0.56294 z m 6.83733,-0.40572 c 1.01406,-1.15231 0.86709,-1.35388 -1.0942,-1.50072 -0.79587,-0.0596 -1.3833,0.0328 -1.60252,0.25202 -0.57803,0.57803 -0.39138,0.91262 0.51382,0.92109 0.71227,0.007 0.7804,0.0543 0.39687,0.27773 -0.25466,0.14833 -0.46302,0.45725 -0.46302,0.68649 0,0.65351 1.48317,0.23368 2.24905,-0.63661 z m -14.05578,-0.47796 c 0.0905,-0.23579 -0.0163,-0.47308 -0.25406,-0.5643 -0.49407,-0.18959 -1.03471,0.28073 -0.78575,0.68355 0.25963,0.42009 0.85924,0.35132 1.03981,-0.11925 z m -46.40161,-0.12633 c 0.35278,-0.23158 0.35278,-0.28948 0,-0.52106 -0.21828,-0.1433 -0.51593,-0.27147 -0.66145,-0.28483 -0.14553,-0.0134 -0.47247,-0.0641 -0.72656,-0.11278 -0.60924,-0.11669 -0.85579,0.31843 -0.45445,0.80202 0.36656,0.44168 1.26107,0.49831 1.84246,0.11665 z m 4.7625,-0.39282 c 0,-0.41158 -0.14993,-0.66146 -0.39687,-0.66146 -0.39685,0 -0.55333,0.81369 -0.22049,1.14653 0.35973,0.35973 0.61736,0.1573 0.61736,-0.48507 z m 15.88675,-0.15424 c 0.27706,-0.51769 0.32458,-0.52431 0.78338,-0.10911 0.58861,0.5327 1.41475,0.42865 1.53452,-0.19326 0.0602,-0.31265 -0.14128,-0.49873 -0.65842,-0.60803 -0.40985,-0.0866 -0.92378,-0.26976 -1.14206,-0.40696 -0.80566,-0.5064 -1.68846,-0.79523 -2.03,-0.66417 -0.55526,0.21307 -0.46074,2.20065 0.11177,2.35026 0.8947,0.23381 1.10845,0.17754 1.40081,-0.36873 z m 22.88573,-0.14373 c 0.7191,-0.66644 0.72943,-0.70971 0.25265,-1.05833 -0.63536,-0.46459 -2.79351,-0.47109 -3.42366,-0.0103 -0.4572,0.33431 -0.44237,0.39088 0.27745,1.05834 0.96369,0.89358 1.93675,0.89704 2.89356,0.0103 z m 11.76294,-0.36349 c 0,-0.29398 0.17639,-0.52917 0.39688,-0.52917 0.21828,0 0.39687,0.1786 0.39687,0.39688 0,0.61148 0.44793,0.46971 0.62699,-0.19844 0.38584,-1.43976 -0.0616,-3.20767 -0.74545,-2.94526 -0.7881,0.30242 -1.53734,1.90292 -1.35237,2.88888 0.18424,0.9821 0.67708,1.26387 0.67708,0.38711 z m -53.31239,-0.002 c 0.0906,-0.14655 -0.0215,-0.33788 -0.24896,-0.42519 -0.74463,-0.28575 -0.44426,-0.68006 0.3801,-0.499 1.77728,0.39035 0.0939,-1.4703 -2.19583,-2.42707 -1.11803,-0.46717 -1.44134,-0.51172 -1.72427,-0.23763 -0.28663,0.27767 -0.20338,0.55199 0.47059,1.55062 1.25136,1.85417 2.83208,2.82509 3.31837,2.03825 z m 44.90775,-1.12263 c 0.0906,-0.86581 -0.0561,-1.47444 -0.63748,-2.64583 -0.41529,-0.83675 -0.6782,-1.52136 -0.58423,-1.52136 0.58213,0 4.56811,2.43222 5.92423,3.61494 1.54263,1.34537 2.11462,1.66988 2.11462,1.19969 0,-0.36887 -1.62054,-2.43338 -1.91008,-2.43338 -0.15224,0 -0.50814,-0.26789 -0.79088,-0.59531 -0.28274,-0.32742 -0.83582,-0.9525 -1.22907,-1.38906 -0.39324,-0.43657 -0.86377,-1.29477 -1.04561,-1.90712 -0.18183,-0.61236 -0.44723,-1.18545 -0.58977,-1.27354 -0.48014,-0.29675 -0.5561,0.59772 -0.13611,1.6029 0.4826,1.15503 0.40792,1.34006 -0.37234,0.92248 -0.30961,-0.1657 -1.18301,-0.31135 -1.94089,-0.32367 -0.75787,-0.0123 -1.49702,-0.11042 -1.64254,-0.21798 -0.43523,-0.32171 -2.33661,-0.46137 -2.99248,-0.21981 -0.91849,0.33828 -0.43584,0.75528 0.87421,0.75528 1.71007,0 2.32648,0.33565 3.42535,1.86519 0.89838,1.25049 0.97517,1.48846 0.81815,2.53554 -0.13716,0.91463 -0.093,1.15552 0.21202,1.15552 0.25845,0 0.42401,-0.37019 0.5029,-1.12448 z m 2.81968,0.29937 c 0.41008,-1.17635 0.12397,-2.08531 -0.65639,-2.08531 -0.83821,0 -1.08593,0.99429 -0.52026,2.08817 0.53665,1.03777 0.81412,1.03709 1.17665,-0.003 z m -33.49349,-0.44112 c -0.0836,-0.62306 0.0257,-1.3481 0.28921,-1.91823 1.09089,-2.36071 1.93043,-3.15344 3.3483,-3.16164 0.37108,-0.002 0.7878,-0.11141 0.92605,-0.2428 0.13824,-0.1314 0.48947,-0.29157 0.78052,-0.35593 l 0.52916,-0.11703 -0.52916,-0.19862 c -0.29105,-0.10924 -0.70776,-0.25865 -0.92605,-0.33203 -0.28892,-0.0971 -0.21695,-0.2049 0.26459,-0.39623 0.39266,-0.15601 1.52161,-0.18657 2.77812,-0.0752 2.32232,0.20584 6.21123,0.33375 15.08125,0.49602 3.20146,0.0586 6.14826,0.19088 6.54844,0.29401 l 0.72761,0.18753 0.0312,-4.59275 c 0.0172,-2.52601 0.0609,-4.94993 0.0972,-5.3865 0.0363,-0.43656 0.0927,-4.72281 0.12529,-9.525 0.0326,-4.80218 0.13872,-9.9682 0.2358,-11.48003 0.11069,-1.72386 0.077,-2.87272 -0.0903,-3.08119 -0.27487,-0.34241 -3.45268,-0.69759 -5.8393,-0.65266 -1.4335,0.027 -2.76192,-0.3482 -2.76192,-0.78007 0,-0.14538 0.33456,-0.43734 0.74347,-0.64879 0.77813,-0.40239 1.32644,-1.67652 1.16666,-2.71102 -0.0873,-0.56506 -0.7257,-0.87628 -1.81188,-0.88325 -0.74625,-0.005 -1.44354,-1.51178 -0.86807,-1.87608 0.20512,-0.12985 0.52178,-0.23792 0.70368,-0.24015 0.54037,-0.007 0.37849,-0.51751 -0.36723,-1.15895 -0.65928,-0.56709 -0.67976,-0.65549 -0.36959,-1.5953 l 0.32836,-0.99495 0.56803,0.52846 c 0.62097,0.57772 2.02324,0.516 2.02324,-0.0891 0,-1.14772 -2.74469,-1.21651 -3.8579,-0.0967 -0.51014,0.51317 -0.6409,0.97291 -0.73453,2.58264 -0.10472,1.80033 -0.062,2.01029 0.5301,2.60235 0.39969,0.39969 0.58753,0.822 0.49512,1.11317 -0.0851,0.26823 0.0392,0.62522 0.29023,0.8336 0.38193,0.31697 0.49031,0.28737 0.832,-0.22723 0.59922,-0.90248 1.17234,-0.76369 1.07268,0.25977 -0.11733,1.2049 -1.5175,2.13631 -2.83941,1.8888 -0.52122,-0.0976 -1.26377,-0.4109 -1.65012,-0.69625 -0.65012,-0.48017 -1.28192,-0.45347 -1.28192,0.0542 0,0.11818 0.4159,0.4981 0.92423,0.84428 0.50833,0.34618 0.92505,0.72647 0.92604,0.84508 10e-4,0.11862 -0.74233,0.19985 -1.65183,0.18053 -0.90951,-0.0193 -3.79678,0.0143 -6.41615,0.0747 -2.61938,0.0604 -6.13172,0.0137 -7.80521,-0.10374 -1.67349,-0.11745 -3.61923,-0.2481 -4.32388,-0.29034 l -1.28117,-0.0768 -0.11379,14.94896 c -0.0626,8.22193 -0.14772,15.81663 -0.18918,16.87713 -0.0441,1.12813 0.0407,2.02297 0.20434,2.15666 0.27494,0.22459 2.68967,0.54315 4.24847,0.56047 1.18494,0.0132 1.98438,0.22609 1.98438,0.52852 0,0.14792 -0.53578,0.49861 -1.19063,0.77931 -0.65484,0.28069 -1.19062,0.65218 -1.19062,0.82551 0,0.17334 -0.29042,0.69592 -0.64537,1.16129 -0.67588,0.88612 -0.78654,1.3848 -0.7187,3.23872 0.0282,0.76976 0.1584,1.12448 0.41285,1.12448 0.27741,0 0.33762,-0.25409 0.23735,-1.00165 z m 12.61861,-17.89582 c -1.92928,-0.53294 -4.2318,-2.02405 -4.23182,-2.74053 0,-0.18647 -0.18367,-0.40951 -0.40815,-0.49565 -0.22448,-0.0861 -0.6412,-0.61344 -0.92604,-1.17178 -1.02135,-2.00199 -0.41388,-5.59967 1.27626,-7.55856 0.76083,-0.8818 3.01298,-2.20893 3.74858,-2.20893 0.24026,0 0.56759,-0.13075 0.72739,-0.29054 0.211,-0.211 0.96795,-0.20339 2.76489,0.0278 3.3299,0.42843 4.12171,0.77658 4.31286,1.89628 0.1897,1.1112 -0.17168,3.53898 -0.51886,3.48575 -0.14372,-0.022 -0.50081,-0.66505 -0.79354,-1.42894 -0.76754,-2.00297 -1.55625,-2.49975 -3.96873,-2.49975 -1.80113,0 -2.00912,0.0594 -2.78139,0.79375 -1.46881,1.39678 -2.50655,4.02372 -2.22218,5.62524 0.25306,1.42521 1.41632,3.46191 2.41024,4.22001 1.83029,1.39603 5.05495,0.90604 5.80187,-0.88159 0.24485,-0.58601 0.55277,-0.89387 0.89406,-0.89387 0.72032,0 0.93177,1.04997 0.4916,2.44106 l -0.35782,1.13082 -1.63785,0.18067 c -0.90081,0.0994 -1.87525,0.30773 -2.16542,0.46302 -0.63534,0.34003 -0.87802,0.33056 -2.41595,-0.0943 z m -20.84361,17.19053 c 0.7135,-0.79329 1.55811,-1.52175 1.87692,-1.61879 0.31881,-0.0971 0.78875,-0.36007 1.0443,-0.5845 0.60742,-0.53345 0.85395,-0.26286 0.44933,0.49318 -0.26941,0.50341 -0.2441,0.65218 0.16143,0.9487 0.68076,0.49779 0.87615,0.44229 1.06294,-0.30196 0.10824,-0.43124 0.0157,-0.80203 -0.27209,-1.08978 -0.40513,-0.40513 -0.40385,-0.47182 0.018,-0.938 0.2498,-0.27603 1.17818,-0.72412 2.06307,-0.99577 0.88489,-0.27164 1.54936,-0.5972 1.47659,-0.72346 -0.18545,-0.32182 -1.55234,-0.15356 -2.4695,0.30398 -0.42337,0.2112 -0.86953,0.32236 -0.99145,0.247 -0.12193,-0.0753 -0.45924,0.0113 -0.74958,0.19267 -0.77513,0.48407 -0.83992,0.23469 -0.3883,-1.49473 0.26196,-1.00316 0.33598,-1.89358 0.208,-2.50228 l -0.19866,-0.94495 -0.20819,1.05833 c -0.11451,0.58209 -0.28991,1.47506 -0.38978,1.98438 -0.26915,1.37254 -1.41517,3.01747 -3.92034,5.62704 -1.34703,1.40318 -1.48299,1.78129 -0.64047,1.78129 0.35582,0 1.05857,-0.54269 1.86774,-1.44235 z m 51.53679,0.2213 c 0,-0.56214 -1.00309,-0.4349 -1.32585,0.16819 -0.15737,0.29405 -0.21488,0.64991 -0.1278,0.79081 0.21033,0.34031 1.45365,-0.47993 1.45365,-0.959 z m -26.0616,0.6921 c 0.0899,-0.14541 -0.26029,-0.51435 -0.77813,-0.81989 -0.94098,-0.55519 -1.26868,-1.29699 -0.57296,-1.29699 0.51839,0 0.71279,-0.66263 0.34087,-1.16184 -0.47953,-0.64364 -2.15581,-0.2844 -2.53269,0.54277 -0.42601,0.93498 -0.36617,1.32307 0.3019,1.95792 1.00633,0.9563 2.85636,1.40041 3.24101,0.77803 z m -28.7733,-1.78637 c 0.20629,-0.0686 0.33073,0.14126 0.33073,0.55787 0,0.36734 0.10658,0.73376 0.23686,0.81428 0.69738,0.431 0.72629,-2.69657 0.039,-4.2162 l -0.47868,-1.05834 -0.58864,1.32292 c -1.00639,2.26179 -1.08851,2.75412 -0.58704,3.51947 l 0.45157,0.68918 0.13276,-0.75958 c 0.073,-0.41777 0.28158,-0.80909 0.46348,-0.8696 z m 39.27035,-0.0738 c -0.10085,-1.07155 -0.42514,-1.4478 -1.45604,-1.68942 -0.80552,-0.18879 -0.78632,-0.29488 -0.27112,1.49783 0.20632,0.71792 0.87438,1.27396 1.41671,1.17916 0.28384,-0.0496 0.37226,-0.33088 0.31045,-0.98757 z m -24.2588,-0.42132 c 0.5104,-1.22155 0.53019,-1.15832 -0.36248,-1.15832 -0.62201,0 -0.7887,0.13438 -0.90258,0.72761 -0.13607,0.70879 0.1754,1.38906 0.636,1.38906 0.12575,0 0.40883,-0.43126 0.62906,-0.95835 z m 4.36918,0.45961 c 0,-0.12878 -0.29766,-0.42918 -0.66146,-0.66755 -0.47727,-0.31272 -0.66259,-0.67116 -0.66551,-1.28721 -0.003,-0.64857 -0.0657,-0.7584 -0.26053,-0.45692 -0.37753,0.58419 -0.31979,1.39095 0.14729,2.0578 0.3997,0.57064 1.44021,0.82631 1.44021,0.35388 z m 1.36213,-0.0304 c 0.14328,0 0.22284,-0.32742 0.1768,-0.7276 -0.06,-0.52097 -0.25279,-0.75162 -0.67904,-0.81215 -0.52474,-0.0745 -0.59531,0.0308 -0.59531,0.8882 0,0.77832 0.0836,0.94065 0.41852,0.81215 0.23018,-0.0883 0.53574,-0.1606 0.67903,-0.1606 z m 14.03477,-0.19844 c 0.97994,-1.14098 0.67162,-1.88565 -0.38486,-0.92955 -0.4821,0.43629 -0.52473,0.43629 -0.84375,0 -0.43526,-0.59525 -1.20487,-0.593 -1.19966,0.004 0.006,0.6516 0.30658,1.04171 0.92199,1.19547 0.93195,0.23284 1.10086,0.20262 1.50628,-0.26943 z m -36.56357,-0.47232 c 0,-0.69521 -0.69296,-1.97507 -1.06936,-1.97507 -0.45713,0 -0.38639,0.96534 0.13062,1.78266 0.6532,1.03262 0.93874,1.09115 0.93874,0.19241 z m 58.37375,-0.4821 c -0.0915,-0.36435 -0.60838,-1.1172 -1.14875,-1.67302 -0.94744,-0.97455 -0.98592,-0.98857 -1.07916,-0.39349 -0.0864,0.55126 -0.14381,0.57621 -0.53845,0.23397 -0.57146,-0.49559 -1.8211,-0.79099 -2.0155,-0.47644 -0.23035,0.37271 1.71152,1.85312 2.82601,2.15444 0.54323,0.14687 1.1198,0.51391 1.28128,0.81563 0.39164,0.73178 0.89929,0.23427 0.67457,-0.66109 z m -32.55192,-0.83056 c -0.95826,-1.4625 -3.62127,-2.52496 -4.83972,-1.93091 -1.21708,0.59338 -1.07554,1.02145 0.27646,0.83614 1.28586,-0.17625 2.21938,0.23267 3.7325,1.63498 0.93966,0.87085 1.51163,0.49892 0.83076,-0.54021 z m 6.27627,-0.19939 c 0.91535,-0.72497 1.30535,-0.8599 2.48547,-0.8599 1.44628,0 1.9309,-0.4574 0.80445,-0.75927 -1.43681,-0.38505 -2.23012,-0.17599 -3.46848,0.91405 -1.10568,0.97326 -1.50932,1.56502 -1.06751,1.56502 0.0882,0 0.64893,-0.38696 1.24607,-0.8599 z m 19.32969,-0.20587 c 0.35727,-0.33461 -1.05168,-1.58007 -1.78749,-1.58007 -0.72491,0 -1.56492,0.68776 -1.4109,1.15519 0.27224,0.82626 2.45958,1.11683 3.19839,0.42488 z m -54.80123,-0.25354 c 0.82078,-0.006 0.49178,-0.49646 -0.39084,-0.58216 -0.59707,-0.058 -0.95397,-0.28184 -1.18672,-0.74437 -0.28884,-0.57397 -0.3329,-0.59147 -0.33315,-0.13229 -6.6e-4,1.20434 0.30995,1.76782 0.88882,1.61244 0.30738,-0.0825 0.76723,-0.15163 1.02189,-0.15362 z m 2.51354,-1.0238 c 2.59745,-2.75454 2.59745,-2.65551 0,-1.74088 -1.16427,0.40998 -1.25677,0.50839 -1.25677,1.33722 0,1.02614 0.5141,1.19125 1.25677,0.40366 z m 7.54063,-0.50232 c 0.5645,-0.50179 0.58947,-0.95359 0.0762,-1.37953 -0.30987,-0.25717 -0.67814,-0.18761 -1.85208,0.34984 -1.54723,0.70835 -1.70887,0.94792 -1.07033,1.58646 0.31538,0.31539 0.59527,0.34055 1.38906,0.12489 0.54675,-0.14854 1.20245,-0.45529 1.45711,-0.68166 z m 23.0849,0.46418 c -0.0899,-0.14553 -0.28259,-0.26459 -0.42811,-0.26459 -0.14552,0 -0.191,0.11906 -0.10106,0.26459 0.0899,0.14552 0.28258,0.26458 0.4281,0.26458 0.14552,0 0.191,-0.11906 0.10107,-0.26458 z m 21.90104,-1.86787 c 0.54943,-0.15258 0.93986,-0.37304 0.86763,-0.48991 -0.0722,-0.11688 -1.12459,-0.27447 -2.33858,-0.35021 -1.25868,-0.0785 -2.56396,-0.32217 -3.0373,-0.56694 -1.78531,-0.92322 -1.89476,-0.28726 -0.14952,0.86874 1.34872,0.89335 2.78257,1.05907 4.65777,0.53832 z m 5.48257,-0.94105 c 1.77382,-1.60254 1.18815,-2.24932 -0.99142,-1.09488 -0.90619,0.47998 -1.12448,0.73693 -1.12448,1.32365 0,1.03997 0.8083,0.95257 2.1159,-0.22877 z m -50.86532,-1.19189 c 1.69533,-0.82069 2.40692,-2.05593 2.61717,-4.54309 0.11747,-1.38967 0.0814,-2.03944 -0.11319,-2.03944 -0.34209,0 -0.50677,0.56963 -0.56425,1.95176 -0.052,1.24917 -0.51717,2.19235 -1.69993,3.44644 -0.79825,0.84639 -1.04435,0.9518 -2.22223,0.9518 -1.14983,0 -1.45984,-0.12431 -2.35,-0.94236 -0.92378,-0.84894 -1.03362,-0.8899 -1.10786,-0.41315 -0.083,0.53274 0.5287,1.31631 1.44162,1.84678 0.81115,0.47133 2.74966,0.3459 3.99867,-0.25874 z m -6.94538,-0.2206 c 0,-0.21172 -0.29765,-0.46322 -0.66146,-0.55889 -0.56688,-0.14908 -0.59525,-0.20212 -0.19843,-0.37097 0.72816,-0.30984 0.53442,-0.76289 -0.536,-1.25338 -0.74971,-0.34354 -1.22765,-0.39653 -1.99851,-0.22157 -0.55723,0.12647 -1.0888,0.3056 -1.18126,0.39806 -0.32639,0.32639 0.41082,1.07113 1.31941,1.3329 0.506,0.14577 1.13321,0.47987 1.39379,0.74243 0.55427,0.5585 1.86246,0.51032 1.86246,-0.0686 z m 46.03864,-0.21037 c -0.17195,-0.424 -0.82334,-2.2832 -1.13556,-3.24114 -0.0723,-0.22182 -0.22976,0.0488 -0.35698,0.61341 -0.14964,0.66413 -0.12546,1.20805 0.0706,1.5875 0.40709,0.78796 1.05319,1.50326 1.35786,1.50326 0.13853,0 0.16738,-0.20836 0.0641,-0.46303 z m 10.60888,-1.11733 c 0.76508,-1.15613 0.75522,-1.89866 -0.0281,-2.11221 -0.44749,-0.122 -0.5394,-0.40553 -0.60419,-1.86368 -0.0986,-2.21923 -0.43009,-2.8483 -1.67807,-3.18434 -0.55071,-0.1483 -1.07289,-0.38546 -1.16038,-0.52702 -0.29411,-0.47588 -0.62938,-0.26331 -1.07895,0.68409 -0.50749,1.06946 -0.40657,1.22415 1.08339,1.66051 0.58209,0.17048 1.35341,0.53899 1.71405,0.81891 l 0.65572,0.50895 -0.72438,0.5698 c -0.81907,0.64428 -0.73231,1.0566 0.22231,1.0566 0.90738,0 0.81241,0.5768 -0.2802,1.70189 -1.04683,1.07795 -1.26851,2.15355 -0.39687,1.92561 0.29104,-0.0761 0.52917,-0.0263 0.52917,0.11074 0,0.49424 1.07694,-0.33813 1.74647,-1.34985 z m -7.19207,0.89059 c 0.64328,-0.24685 0.50746,-0.55363 -0.56895,-1.28507 -1.34171,-0.91172 -1.98357,-0.89234 -1.87438,0.0566 0.0801,0.69648 0.19193,0.77405 1.98031,1.37413 0.0245,0.008 0.23284,-0.0573 0.46302,-0.14567 z m 3.30406,-0.78081 c 0.52379,0.32372 0.85454,-0.85303 0.55374,-1.97011 -0.36121,-1.34145 -0.85623,-1.34191 -1.55491,-0.001 -0.43407,0.83278 -0.49467,1.20211 -0.28692,1.74855 0.21455,0.56431 0.33402,0.63415 0.6443,0.37665 0.20949,-0.17386 0.4992,-0.243 0.64379,-0.15364 z m 6.11029,-1.43984 c 0,-0.58208 -0.11907,-1.05833 -0.26459,-1.05833 -0.14552,0 -0.26458,0.47625 -0.26458,1.05833 0,0.58208 0.11906,1.05833 0.26458,1.05833 0.14552,0 0.26459,-0.47625 0.26459,-1.05833 z m -58.09769,0.36857 c 0.96387,-0.36987 0.0251,-2.50221 -1.78039,-4.04407 -2.13564,-1.8238 -2.60462,-1.27321 -1.30682,1.53425 0.71857,1.55445 0.73992,1.5728 1.72035,1.47857 0.93629,-0.09 0.98357,-0.0588 0.83122,0.54822 -0.17231,0.68655 -0.1193,0.73435 0.53564,0.48303 z m 3.21173,-0.3519 c -0.25509,-0.28187 -0.39373,-0.62588 -0.30808,-0.76446 0.0857,-0.13858 -0.0708,-0.83069 -0.34767,-1.53802 -0.27686,-0.70734 -0.57803,-1.51625 -0.66927,-1.79758 -0.16398,-0.50563 -0.17156,-0.50563 -0.65889,0 -0.70877,0.73537 -0.93514,2.06208 -0.42419,2.48613 0.22475,0.18652 0.40864,0.68401 0.40864,1.10553 0,0.68537 0.0699,0.74884 0.66146,0.60038 0.40756,-0.10229 0.66145,-0.0534 0.66145,0.12725 0,0.1613 0.25658,0.29327 0.57018,0.29327 0.54723,0 0.55151,-0.0206 0.10637,-0.5125 z m -1.18482,-0.70018 c 0.0127,-0.30822 0.0754,-0.37092 0.15985,-0.15985 0.0764,0.19099 0.067,0.4192 -0.0209,0.50712 -0.0879,0.0879 -0.15045,-0.0684 -0.13897,-0.34727 z m 4.69304,0.35278 c 0.0708,-0.61574 -0.0144,-0.7276 -0.55431,-0.7276 -0.73269,0 -1.65463,0.88097 -1.38259,1.32115 0.10068,0.16289 0.55883,0.25969 1.01811,0.21511 0.68992,-0.067 0.84962,-0.20753 0.91879,-0.80866 z m 41.79319,-0.72872 c 1.03929,-0.63365 1.46886,-1.58928 1.12314,-2.49859 -0.51264,-1.34834 -2.38005,-1.89402 -3.015,-0.88101 -0.43266,0.69027 0.26255,1.31716 0.74161,0.66874 0.83353,-1.1282 1.87805,0.16035 1.24905,1.54086 -0.41734,0.91596 -1.83815,0.88756 -2.7813,-0.0556 -0.6208,-0.6208 -0.81928,-1.31179 -0.76862,-2.6759 0.007,-0.1819 -0.15308,-0.33073 -0.35519,-0.33073 -0.42299,0 -0.47898,0.75825 -0.12121,1.6412 0.13545,0.33427 0.31307,0.92226 0.39471,1.30664 0.10384,0.48892 0.48691,0.86642 1.27508,1.25656 1.36231,0.67433 1.20062,0.67234 2.25773,0.0278 z m -52.56737,-0.69067 c 0.30413,-0.36645 0.26542,-0.49937 -0.27224,-0.93474 -0.34473,-0.27914 -0.75759,-0.46399 -0.91746,-0.41077 -0.42849,0.14265 -0.51415,0.94717 -0.14784,1.38855 0.41688,0.50231 0.89778,0.48684 1.33754,-0.043 z m 11.10047,-1.56397 c 0.42934,-0.22201 0.78061,-0.46014 0.78061,-0.52916 0,-0.069 -0.59531,-0.1255 -1.32292,-0.1255 -0.96495,0 -1.32291,0.10142 -1.32291,0.37483 0,0.34493 0.35061,0.61104 0.87303,0.66261 0.11637,0.0115 0.56285,-0.16076 0.99219,-0.38278 z m -7.26009,-1.5014 c -0.17032,-0.85158 -0.54102,-1.25837 -1.15357,-1.26588 -0.56212,-0.007 -0.37027,1.26117 0.25731,1.70074 0.87181,0.61064 1.0847,0.50735 0.89626,-0.43486 z m 8.88207,-0.79772 c -0.0219,-0.62352 -0.18052,-2.01869 -0.35245,-3.10039 -0.30141,-1.89645 -0.2921,-1.98033 0.26071,-2.34738 1.14947,-0.76322 0.2815,-1.7791 -1.25714,-1.47137 -0.88505,0.17701 -0.96983,0.37235 -0.52351,1.20631 0.21473,0.40122 0.21225,0.59464 -0.009,0.73162 -0.1657,0.10241 -0.37358,0.63176 -0.46195,1.17634 -0.14168,0.87302 -0.0623,1.07998 0.67083,1.74961 0.71538,0.6534 0.83151,0.94016 0.83151,2.05321 0,0.71155 0.0814,1.37509 0.1808,1.47453 0.36751,0.36751 0.69925,-0.37198 0.66057,-1.47248 z m -2.82574,0.18563 c 0,-0.34357 -0.20614,-0.55482 -0.59532,-0.61009 -0.43841,-0.0623 -0.59531,0.0481 -0.59531,0.41892 0,0.27691 0.0835,0.58696 0.18554,0.68901 0.35098,0.35098 1.00509,0.027 1.00509,-0.49784 z m 44.7041,-0.42629 c -0.11162,-0.35167 -0.044,-0.65079 0.18061,-0.79878 0.28892,-0.19037 0.25641,-0.3148 -0.16646,-0.63713 -0.48873,-0.37253 -0.53855,-0.3517 -0.71225,0.29779 -0.1091,0.40791 -0.0566,0.90667 0.12612,1.19932 0.42211,0.67592 0.79332,0.6362 0.57198,-0.0612 z m -5.32351,-0.68906 c 0.0871,-0.40321 0.52378,-1.14148 0.97046,-1.64059 0.90391,-1.01003 0.94006,-1.69733 0.0956,-1.81841 -0.65308,-0.0936 -1.23267,1.11813 -1.53875,3.21716 -0.19872,1.36275 0.18787,1.56055 0.47265,0.24184 z m -42.37799,0.28421 c 0.6537,-0.59159 0.62821,-1.57931 -0.0453,-1.75544 -0.80271,-0.20992 -0.63959,-0.97071 0.2766,-1.2901 0.44318,-0.15449 0.76128,-0.41618 0.70688,-0.58155 -0.18695,-0.56837 -1.26868,-0.47114 -2.44809,0.22004 -1.26042,0.73866 -1.48348,1.42801 -0.93167,2.87938 0.36609,0.96287 1.6533,1.24106 2.44159,0.52767 z m 53.95206,-0.98113 c -0.57869,-0.93633 -1.27197,-1.27908 -3.26352,-1.6134 -1.14453,-0.19214 -1.37181,0.25535 -0.33073,0.65116 0.36381,0.13832 0.66146,0.43496 0.66146,0.6592 0,0.37131 0.45414,0.63853 2.38125,1.40114 0.98299,0.389 1.20161,-0.0463 0.55154,-1.0981 z m -61.1425,-0.0336 c 0.30755,-0.57466 0.29111,-0.72687 -0.12859,-1.19063 -0.70204,-0.77574 -0.92837,-0.65812 -0.92837,0.4825 0,1.5083 0.46279,1.81835 1.05696,0.70813 z m 10.0355,-4.32527 c -0.0516,-3.56857 -0.16253,-4.27626 -0.6701,-4.27626 -0.2432,0 -0.36819,0.30907 -0.36819,0.91042 0,0.50074 -0.12484,0.98759 -0.27743,1.08189 -0.18745,0.11585 -0.19081,0.27584 -0.0104,0.49327 0.14689,0.17699 0.28893,1.14866 0.31564,2.15926 0.0501,1.8957 0.39985,3.12202 0.81689,2.86427 0.13101,-0.081 0.21811,-1.53575 0.19355,-3.23285 z m -7.38102,1.89064 c 0.35981,-0.24623 0.71372,-0.52102 0.78648,-0.61065 0.64447,-0.7939 1.49707,-1.02986 3.21856,-0.89075 1.5235,0.12311 1.80852,0.0812 1.80852,-0.26599 0,-0.5391 -0.89531,-1.00507 -1.79732,-0.93543 -1.98394,0.15318 -2.44974,-0.006 -3.54421,-1.20821 -0.5925,-0.65105 -1.27231,-1.15395 -1.51069,-1.11757 -0.50056,0.0764 -2.67278,2.11023 -2.67278,2.50251 0,0.14473 0.19479,0.4248 0.43286,0.62239 0.23808,0.19758 0.71582,0.80747 1.06166,1.35531 0.691,1.09462 1.22552,1.22684 2.21692,0.54839 z m 59.01326,-0.49505 c 0.66963,-0.60601 0.35988,-1.13329 -0.77159,-1.31348 -0.53166,-0.0847 -1.17339,-0.26651 -1.42608,-0.40408 -0.25268,-0.13757 -0.848,-0.26199 -1.32291,-0.2765 -1.41425,-0.0432 -2.19469,-0.3582 -2.10866,-0.8511 0.0902,-0.51691 -0.0513,-0.54901 -0.7566,-0.17155 -0.29347,0.15706 -0.51177,0.55207 -0.51177,0.92604 0,0.59778 0.10056,0.65215 1.20624,0.65215 0.73679,0 1.1426,0.10297 1.04272,0.26458 -0.0899,0.14553 -0.50666,0.26459 -0.92604,0.26459 -0.97702,0 -1.23652,0.41519 -0.50439,0.80701 1.53493,0.82147 5.21597,0.88344 6.07908,0.10234 z m -9.54344,-0.52809 c 0,-0.22687 -0.11907,-0.33891 -0.26459,-0.24897 -0.14552,0.0899 -0.26458,0.27556 -0.26458,0.41249 0,0.13693 0.11906,0.24897 0.26458,0.24897 0.14552,0 0.26459,-0.18562 0.26459,-0.41249 z m -1.06055,-0.90346 c 0.51277,-0.32419 0.12893,-0.69046 -0.96479,-0.92063 -0.97679,-0.20555 -1.33361,0.16275 -0.73632,0.76004 0.47067,0.47068 1.1145,0.53145 1.70111,0.16059 z m 0.94468,-1.73882 c -0.25111,-0.38325 -0.37057,-0.89638 -0.27718,-1.19062 0.10997,-0.34648 0.0408,-0.51711 -0.20957,-0.51711 -0.52815,0 -1.24478,-0.86331 -1.61813,-1.94932 -0.23239,-0.67598 -0.41549,-0.86597 -0.67815,-0.70364 -0.29915,0.18489 -0.28673,0.37638 0.0737,1.13592 0.23843,0.50245 0.52515,1.1507 0.63716,1.44055 0.31349,0.8112 1.74767,2.44485 2.15232,2.45166 0.28357,0.005 0.26636,-0.13861 -0.0802,-0.66744 z m -44.19761,-0.12708 c 0.0923,-0.14928 -0.20493,-0.40134 -0.66043,-0.56013 -0.68254,-0.23793 -0.81399,-0.41122 -0.74745,-0.98534 0.0568,-0.48986 0.25744,-0.72174 0.67604,-0.78119 0.74559,-0.10589 0.79913,-0.97838 0.0835,-1.36135 -1.51129,-0.80882 -3.72437,0.26528 -3.35783,1.62969 0.29232,1.08811 1.10847,1.86397 2.17767,2.07017 1.49781,0.28885 1.64319,0.28791 1.82846,-0.0118 z m 52.21101,-0.45617 c 0.76508,-0.64664 0.87266,-1.95544 0.17226,-2.09567 -0.96965,-0.19414 -1.82477,-0.12509 -4.01562,0.32428 -0.61924,0.12701 -1.52108,1.60433 -1.12777,1.84741 0.13071,0.0808 0.47042,0.0223 0.7549,-0.12993 0.80852,-0.43271 1.88898,-0.35668 1.70604,0.12005 -0.22568,0.58812 1.79923,0.53476 2.51019,-0.0661 z m -47.13056,-1.36205 c 1.26758,-1.88716 0.49483,-5.82153 -1.19117,-6.06469 -0.64982,-0.0937 -0.80798,0.41294 -0.20154,0.64565 0.21157,0.0812 0.63553,0.57278 0.94213,1.09243 0.81177,1.37584 0.51931,2.80933 -0.82809,4.05886 -1.08249,1.00385 -1.07892,1.37393 0.012,1.24507 0.40553,-0.0479 0.8972,-0.42726 1.26667,-0.97732 z m -12.7291,-1.23701 c 0.17877,-0.71227 -0.19565,-1.34447 -0.63531,-1.07274 -0.29516,0.18242 -0.57578,1.40883 -0.36955,1.61506 0.34794,0.34794 0.84934,0.0773 1.00486,-0.54232 z m 56.2241,-0.18042 c 1.20653,-0.75065 2.72434,-2.48089 2.36896,-2.70052 -0.14629,-0.0904 -0.53724,0.0105 -0.86877,0.22427 -0.33154,0.21376 -1.13857,0.59475 -1.79341,0.84663 -1.60905,0.61891 -1.79871,0.79875 -1.65194,1.56651 0.15694,0.82097 0.69877,0.83855 1.94516,0.0631 z m -53.19905,-1.26626 0.54,-0.54 -0.56304,-1.0018 -0.56304,-1.0018 0.69867,-1.02954 c 0.45316,-0.66778 0.64728,-1.23429 0.55244,-1.61218 -0.0804,-0.32044 -0.0767,-0.76395 0.008,-0.98557 0.2354,-0.61344 1.8992,-1.37288 3.81366,-1.74073 1.46309,-0.28113 1.85801,-0.2709 2.64583,0.0685 1.42077,0.61206 2.20645,1.42358 2.69147,2.77998 l 0.44252,1.23753 0.0205,-1.29652 c 0.0191,-1.20874 -0.062,-1.37446 -1.19787,-2.4474 -1.1361,-1.07315 -1.65351,-1.29307 -2.81443,-1.19628 -0.29484,0.0246 -0.59982,-0.29399 -0.84639,-0.88412 -0.26681,-0.63857 -0.55656,-0.92255 -0.94127,-0.92255 -0.83039,0 -1.86117,-0.62252 -3.03063,-1.83028 -0.57523,-0.59408 -1.23008,-1.08092 -1.4552,-1.08188 -0.22513,-9.6e-4 -0.76288,-0.2348 -1.195,-0.51964 -1.18634,-0.78199 -2.67595,-0.29261 -2.79508,0.91826 -0.14025,1.42554 -0.004,1.61127 0.53514,0.7276 0.73687,-1.20855 1.36875,-1.09719 2.56326,0.45175 0.95877,1.24325 1.91208,1.80975 1.5773,0.93731 -0.16939,-0.44141 -0.12519,-0.46502 0.45421,-0.24268 0.22099,0.0848 0.33653,0.32427 0.25676,0.53216 -0.0999,0.26046 -0.0159,0.32844 0.27018,0.21865 0.4154,-0.15941 2.55411,0.63679 2.55411,0.95084 0,0.0916 -0.61083,0.44256 -1.3574,0.77996 -0.75629,0.34181 -1.41438,0.83136 -1.48606,1.1055 -0.0708,0.27062 -0.32315,0.49418 -0.56084,0.4968 -0.9125,0.0101 -3.21028,3.62053 -3.21028,5.04425 0,0.5399 0.38945,0.68276 0.66146,0.24265 0.32284,-0.52238 0.66819,-0.25125 0.50552,0.39687 -0.19751,0.78696 0.0593,1.98438 0.42556,1.98438 0.14275,0 0.50254,-0.243 0.79955,-0.54001 z m 48.40791,0.27542 c 0,-0.14552 -0.11906,-0.26458 -0.26458,-0.26458 -0.14553,0 -0.26459,0.11906 -0.26459,0.26458 0,0.14553 0.11906,0.26459 0.26459,0.26459 0.14552,0 0.26458,-0.11906 0.26458,-0.26459 z m -40.90006,-0.69972 c 0.0918,-0.23932 -0.0145,-0.63565 -0.23627,-0.88073 -0.50806,-0.5614 -0.50974,-0.91221 -0.006,-1.32996 0.64362,-0.53416 0.45764,-0.83314 -0.46302,-0.74437 -0.82177,0.0792 -0.86343,0.13755 -0.93954,1.31522 -0.0668,1.03278 0.0177,1.30054 0.52189,1.65365 0.75601,0.52953 0.91558,0.52757 1.12332,-0.0138 z m 43.54392,-1.01828 c 0.66942,-0.60582 1.15345,-2.1082 0.94578,-2.93561 -0.0914,-0.36413 -0.4593,-0.76872 -0.82568,-0.90802 -0.36347,-0.13819 -0.73007,-0.43164 -0.81467,-0.6521 -0.0846,-0.22047 -0.3554,-0.40085 -0.60177,-0.40085 -0.24636,0 -0.57142,-0.12349 -0.72235,-0.27441 -0.3378,-0.33781 -1.6835,0.11276 -1.6835,0.56366 0,0.16629 -0.35719,0.70917 -0.79375,1.20638 -0.73229,0.83404 -1.0417,1.67937 -0.61468,1.67937 0.0985,0 0.81594,-0.43862 1.59432,-0.97472 1.20592,-0.83055 1.52018,-0.93781 2.12466,-0.72523 0.87795,0.30876 1.1749,1.30622 0.68333,2.29526 -0.52295,1.05216 -0.93758,0.92156 -0.72203,-0.22741 0.12781,-0.68128 0.0744,-1.02138 -0.18645,-1.18657 -0.65104,-0.41233 -0.76015,-0.2804 -1.39314,1.68457 -0.4049,1.25689 1.85629,1.89971 3.00993,0.85568 z m -48.0267,-0.65011 c 0.50147,-0.96972 0.55546,-3.28208 0.0729,-3.12363 -0.1819,0.0597 -0.36814,0.42408 -0.41386,0.80967 -0.0643,0.54232 -0.21408,0.68748 -0.66145,0.64105 -0.51062,-0.053 -0.56772,0.0484 -0.48764,0.86602 0.16343,1.66876 0.85161,2.04143 1.49001,0.80689 z m 54.60079,0.10671 c 0.41499,-0.91082 0.39754,-0.96325 -0.28826,-0.86585 -0.37896,0.0538 -0.69148,-0.10018 -0.8599,-0.42373 -0.41111,-0.78976 -1.02654,-0.88663 -0.78431,-0.12346 0.2215,0.6979 1.18864,2.08694 1.45306,2.08694 0.0948,0 0.31053,-0.30325 0.47941,-0.6739 z m -56.84295,-0.23652 c 0,-0.20969 -0.11907,-0.45485 -0.26459,-0.54478 -0.14552,-0.0899 -0.26458,0.0816 -0.26458,0.38126 0,0.29963 0.11906,0.54478 0.26458,0.54478 0.14552,0 0.26459,-0.17157 0.26459,-0.38126 z m 59.39896,-0.14791 c 0.0899,-0.14552 0.0374,-0.26458 -0.11668,-0.26458 -0.15411,0 -0.2802,0.11906 -0.2802,0.26458 0,0.14552 0.0525,0.26458 0.11668,0.26458 0.0642,0 0.19026,-0.11906 0.2802,-0.26458 z m -63.64557,-0.64546 c 0.17385,-0.20948 0.27772,-0.70828 0.23083,-1.10846 -0.0813,-0.6941 -0.10657,-0.70614 -0.54829,-0.26168 -0.47663,0.47959 -0.64424,1.75102 -0.23083,1.75102 0.1277,0 0.37443,-0.1714 0.54829,-0.38088 z m 58.74489,-1.55638 c 0.008,-0.29388 -1.33003,-2.56066 -1.51144,-2.56066 -0.0793,0 -0.3023,0.20836 -0.49561,0.46302 -0.23346,0.30754 -0.35431,0.34672 -0.3599,0.11668 -0.005,-0.19049 -0.12748,-0.27276 -0.273,-0.18282 -0.53747,0.33217 -0.23772,1.39134 0.70568,2.49348 l 0.97025,1.13353 0.47907,-0.62288 c 0.26349,-0.34259 0.48172,-0.72075 0.48495,-0.84035 z m 3.18089,0.12046 c 0,-0.5988 -1.03136,-3.22372 -1.43212,-3.64491 -0.15822,-0.16628 -0.573,-0.3882 -0.92173,-0.49315 -0.55517,-0.16707 -0.6155,-0.11988 -0.48494,0.37935 0.12271,0.46924 0.0593,0.54167 -0.35814,0.40917 -0.63929,-0.2029 -0.63549,-0.0212 0.0275,1.31249 0.51095,1.0279 2.13942,2.46826 2.83871,2.51081 0.1819,0.0111 0.33073,-0.20213 0.33073,-0.47376 z m -54.03682,-0.72675 c -0.17328,-0.38031 -0.36055,-0.55498 -0.41616,-0.38815 -0.14061,0.42182 0.1421,1.07961 0.464,1.07961 0.16769,0 0.14988,-0.25752 -0.0478,-0.69146 z m 3.64068,0.0576 c 0.47604,-0.34809 0.44623,-0.39383 -0.51953,-0.79736 -0.94685,-0.39561 -1.07509,-0.39496 -1.69094,0.009 -0.63825,0.4182 -0.64555,0.45187 -0.17307,0.79736 0.63617,0.46517 1.7411,0.46121 2.38354,-0.009 z m -10.07361,-0.73153 c 0.37065,-0.16888 0.67391,-0.51633 0.67391,-0.77211 0,-0.25578 0.0723,-0.65339 0.1606,-0.88357 0.27889,-0.72677 -1.22253,-0.51407 -2.06435,0.29244 -0.79798,0.76451 -0.94026,1.28164 -0.41135,1.49506 0.5486,0.22137 0.93395,0.19042 1.64119,-0.13182 z m 48.82808,-1.18117 c 0,-0.87013 0.41687,-1.63369 1.44275,-2.6426 1.43009,-1.40643 1.83759,-1.52477 3.47606,-1.00941 1.54595,0.48627 1.80577,0.44307 1.53765,-0.25564 -0.30106,-0.78456 -1.60407,-1.28033 -2.56561,-0.97618 -0.46648,0.14755 -1.1458,0.33199 -1.5096,0.40987 -0.70154,0.15016 -2.29162,1.5366 -2.84427,2.48001 -0.34494,0.58882 -0.45501,2.47595 -0.16154,2.76942 0.30276,0.30276 0.62456,-0.0968 0.62456,-0.77547 z m 4.96106,0.23145 c 0.0639,-0.19193 -0.11466,-0.33073 -0.42548,-0.33073 -0.57862,0 -0.92686,0.34553 -0.63869,0.6337 0.26622,0.26622 0.93837,0.0749 1.06417,-0.30297 z m -2.28139,-0.95312 c 0.49071,-0.1968 1.11397,-0.43634 1.38502,-0.5323 0.40286,-0.14264 0.43317,-0.24636 0.16604,-0.56823 -0.72398,-0.87235 -2.64323,-0.0994 -2.64323,1.06449 0,0.4792 -0.0119,0.47881 1.09217,0.036 z m -39.19217,-1.59426 c 0,-0.63707 -0.186,-1.60347 -0.41333,-2.14755 -0.5168,-1.23687 -0.33182,-1.84969 0.48269,-1.59906 1.37089,0.42183 3.53537,0.83703 3.83786,0.7362 0.17936,-0.0598 0.32611,-0.27737 0.32611,-0.48353 0,-0.52285 0.16553,-0.47917 1.43773,0.37943 1.14175,0.77056 2.18585,1.13581 3.2758,1.14596 0.82035,0.008 0.94188,-0.16223 0.58846,-0.82259 -0.23747,-0.44371 -0.39792,-0.50124 -0.79912,-0.28652 -0.66196,0.35426 -0.75669,0.15037 -0.96338,-2.07354 -0.1274,-1.37076 -0.31387,-2.00419 -0.69029,-2.34484 -0.4937,-0.44679 -0.53169,-0.44494 -0.88872,0.0433 -0.20514,0.28054 -0.37298,0.95364 -0.37298,1.49577 0,0.77027 0.15892,1.10146 0.72712,1.51537 0.7984,0.58159 0.7481,0.89685 -0.1074,0.67314 -0.30961,-0.081 -0.96609,-0.85034 -1.5098,-1.76943 -0.76936,-1.30053 -0.96032,-1.89228 -0.95359,-2.9551 0.005,-0.74649 0.17867,-1.55404 0.39688,-1.84253 0.21365,-0.28248 0.38846,-0.7417 0.38846,-1.0205 0,-0.34616 0.12829,-0.45767 0.40456,-0.35166 0.29134,0.1118 0.44895,-0.0667 0.56318,-0.63785 0.10075,-0.50376 0.55646,-1.10261 1.24909,-1.64146 1.55147,-1.207 1.72773,-1.52816 1.25135,-2.28002 -0.30973,-0.48884 -1.94044,0.0914 -2.9793,1.06004 -0.60904,0.56788 -0.72128,0.8496 -0.59335,1.48926 0.0915,0.45767 0.0355,0.86447 -0.13346,0.96889 -0.16018,0.099 -0.29124,0.41109 -0.29124,0.69355 0,0.28245 -0.11487,0.51355 -0.25527,0.51355 -0.33019,0 -0.85031,0.97462 -1.05899,1.98437 -0.10112,0.48931 -0.33004,0.79505 -0.59684,0.79713 -0.23804,0.002 -0.52058,0.0911 -0.62786,0.19843 -0.10729,0.10729 0.0629,0.19507 0.3782,0.19507 0.4187,0 0.57326,0.16107 0.57326,0.59742 0,0.32857 0.30172,1.16419 0.67049,1.85692 0.60076,1.12853 0.62463,1.2771 0.22953,1.42871 -0.24252,0.0931 -0.64802,0.0399 -0.90111,-0.11817 -0.32445,-0.20262 -0.54297,-0.20457 -0.74092,-0.007 -0.37912,0.37912 -1.11007,0.0673 -1.11007,-0.47353 0,-0.30073 0.15869,-0.39453 0.51144,-0.30229 0.44658,0.11679 0.48013,0.0514 0.26458,-0.51553 -0.13577,-0.3571 -0.24686,-0.97626 -0.24686,-1.37591 0,-0.76823 -0.92782,-1.99664 -1.3234,-1.75216 -0.39018,0.24114 -0.58544,2.33386 -0.29005,3.10855 0.39233,1.02893 0.0478,0.92842 -2.04054,-0.59531 -2.86926,-2.09348 -3.13376,-1.81313 -0.97621,1.03473 0.80036,1.05644 1.4552,2.14175 1.4552,2.4118 0,0.27004 0.0964,0.55056 0.2142,0.62337 0.1178,0.0728 0.37714,0.91327 0.57631,1.8677 0.42902,2.05586 1.06158,2.39968 1.06158,0.577 z m 49.2125,1.00072 c 0,-0.3459 -1.12797,-1.71314 -1.63897,-1.98662 -0.40584,-0.2172 -0.7033,-0.20571 -1.17223,0.0453 -0.65565,0.3509 -0.83965,0.77605 -0.33585,0.77605 0.1609,0 0.64628,0.29766 1.07863,0.66146 0.69766,0.58704 2.06842,0.92095 2.06842,0.50386 z m -53.18125,-3.0174 c 0.33557,-0.29104 0.83105,-0.52917 1.10106,-0.52917 0.42322,0 0.44575,-0.0723 0.1634,-0.52444 -0.50385,-0.8068 -1.5488,-1.06529 -2.57022,-0.63582 -0.82287,0.346 -0.85043,0.39992 -0.49148,0.96184 0.20914,0.32741 0.46798,0.74412 0.5752,0.92603 0.26883,0.4561 0.51307,0.41644 1.22204,-0.19844 z m 19.70782,-0.44843 c 0.5588,-0.26647 0.92968,-0.63488 0.92968,-0.92349 0,-0.69051 -0.95906,-0.61074 -1.86968,0.1555 -0.67178,0.56526 -0.87845,0.60802 -1.86625,0.38607 -1.41838,-0.31868 -1.92424,0.0805 -0.85731,0.67645 0.87626,0.48949 2.25126,0.37895 3.66356,-0.29453 z m 14.97393,0.41078 c 0.55482,-0.16623 1.4959,-0.77032 2.09128,-1.34241 1.03037,-0.99007 1.08386,-1.11968 1.11064,-2.69092 0.0283,-1.66358 -0.41905,-3.07131 -1.04044,-3.27372 -0.42294,-0.13777 -0.44339,1.2517 -0.0317,2.15521 0.46569,1.02208 -0.20883,2.92961 -1.42424,4.02776 -0.92465,0.83544 -1.48626,1.02886 -2.64507,0.91098 -0.25467,-0.0259 -0.46302,0.0795 -0.46302,0.23412 0,0.36821 1.13663,0.35827 2.40258,-0.021 z m 4.88645,-1.83546 c 0.28449,-0.46032 0.0135,-0.50734 -1.04741,-0.18174 -1.03806,0.31859 -1.92073,1.28979 -1.61775,1.78001 0.16863,0.27285 2.29792,-1.00406 2.66516,-1.59827 z m 1.21138,1.43933 c 0.19972,-0.23858 0.66078,-0.93455 1.02459,-1.5466 1.32254,-2.22502 1.7237,-2.75924 2.25309,-3.00045 0.29665,-0.13516 0.9231,-0.56864 1.3921,-0.96327 0.94432,-0.7946 1.14703,-1.94893 0.44463,-2.53188 -0.28312,-0.23496 -0.32363,-0.42314 -0.13229,-0.61448 0.49923,-0.49922 0.28994,-0.69913 -0.73196,-0.69913 -1.19243,0 -2.05749,0.53781 -1.8278,1.13636 0.0885,0.23051 0.76264,0.63287 1.49819,0.89411 0.73556,0.26124 1.33737,0.55687 1.33737,0.65695 0,0.26914 -1.80047,0.81529 -2.09258,0.63476 -0.13796,-0.0853 -0.28912,0.11054 -0.3359,0.43512 -0.0468,0.32458 -0.50178,0.86864 -1.0111,1.20902 -0.50933,0.34038 -1.34276,0.99329 -1.85209,1.45092 -0.75723,0.68037 -0.84163,0.85008 -0.46302,0.93097 0.56545,0.12081 0.58148,0.48821 0.0645,1.47943 -0.21739,0.41682 -0.39525,0.80377 -0.39525,0.8599 0,0.25957 0.50045,0.059 0.8275,-0.33173 z m 9.83445,-0.0724 c 1.34542,-0.57671 2.30264,-1.48693 2.30264,-2.18957 0,-0.57467 -0.2244,-0.5929 -0.91047,-0.074 -0.78746,0.59561 -1.2062,0.47535 -1.2062,-0.34642 0,-0.76693 -0.64257,-1.91096 -1.07334,-1.91096 -0.41588,0 -0.27897,0.87459 0.28058,1.79234 0.63306,1.03831 0.64243,1.11808 0.1313,1.11808 -0.21828,0 -0.39687,0.16014 -0.39687,0.35587 0,0.19573 -0.23532,0.56883 -0.52293,0.82911 -0.49674,0.44954 -0.50324,0.93169 -0.0126,0.93169 0.12487,0 0.7584,-0.22777 1.40785,-0.50616 z m -35.96533,-1.25819 c -0.31695,-0.75858 -0.34055,-1.11323 -0.10804,-1.62353 l 0.29749,-0.65293 0.63725,0.59867 c 0.36601,0.34384 0.81192,0.53164 1.04759,0.44121 0.55351,-0.2124 0.51908,-1.30408 -0.0638,-2.02394 -0.43611,-0.53857 -0.55875,-0.56024 -1.52779,-0.26991 -1.4853,0.44501 -2.37469,1.80986 -1.97284,3.02749 0.26535,0.804 1.0084,1.41216 1.77849,1.45563 0.22922,0.0129 0.20471,-0.25137 -0.0883,-0.95269 z m 9.9017,-1.10837 c -0.0457,-0.23758 -0.43715,-0.49728 -0.87342,-0.57954 -0.82879,-0.15625 -0.94728,-0.72644 -0.23442,-1.12807 0.58639,-0.33038 0.17004,-0.71134 -0.77743,-0.71134 -1.12829,0 -1.94475,0.60784 -2.16531,1.61201 -0.14724,0.67038 -0.0492,0.95364 0.54423,1.57309 0.97743,1.02021 2.17772,1.14166 2.98042,0.30156 0.33486,-0.35046 0.57153,-0.83093 0.52593,-1.06771 z m 21.43172,0.92598 c 0.37659,-0.23651 0.17922,-1.22756 -0.31101,-1.56162 -0.81624,-0.55622 -2.46539,0.54999 -2.03063,1.36209 0.24305,0.454 1.73414,0.58106 2.34164,0.19953 z m -11.25961,-0.28597 c 0.30045,-0.43407 0.23736,-1.94785 -0.0896,-2.14992 -0.16065,-0.0993 -0.58461,0.11199 -0.94213,0.46951 -0.80795,0.80795 -0.65889,1.94372 0.2565,1.95445 0.31947,0.004 0.66833,-0.11957 0.77524,-0.27404 z m -37.57296,-1.35718 c 0.79825,-1.44388 0.99727,-3.28928 0.35474,-3.28928 -0.20848,0 -0.45463,0.23813 -0.547,0.52917 -0.0924,0.29104 -0.27097,0.52916 -0.39688,0.52916 -0.1259,0 -0.3045,-0.23812 -0.39687,-0.52916 -0.20003,-0.63023 -0.47904,-0.6709 -0.92406,-0.13469 -0.26017,0.3135 -0.25962,0.76163 0.003,2.18282 0.18154,0.98358 0.38473,1.88391 0.45153,2.00073 0.24641,0.43092 0.75308,-0.0176 1.45585,-1.28875 z m 51.02435,0.37801 c 0.51555,-0.96331 0.76934,-2.13859 0.60403,-2.79723 -0.1496,-0.59604 -0.18463,-0.60601 -0.65001,-0.18485 -0.45314,0.41008 -0.50497,0.41105 -0.658,0.0123 -0.0914,-0.23809 -0.31924,-0.43289 -0.50638,-0.43289 -0.68814,0 -0.88821,1.6291 -0.32933,2.68174 0.79676,1.5007 1.05714,1.62262 1.53969,0.72097 z m -21.86178,-0.29385 c 0.056,-0.1819 0.17028,-1.78925 0.25404,-3.57188 l 0.15229,-3.24114 h -0.65923 c -0.70713,0 -0.77696,0.19891 -0.67345,1.91823 l 0.0597,0.99218 h -1.57718 c -2.25776,0 -3.06126,-0.21742 -4.01177,-1.08558 -0.46156,-0.42157 -1.03455,-0.7665 -1.27331,-0.7665 -0.59436,0 -2.17908,1.57997 -2.17908,2.17255 0,0.52109 2.12215,2.85453 2.59605,2.85453 0.15919,0 0.67322,-0.47756 1.14228,-1.06125 l 0.85285,-1.06126 2.10062,0.061 c 1.49919,0.0435 2.14077,0.16562 2.24088,0.4265 0.0771,0.20105 0.007,0.44782 -0.15556,0.54837 -0.21006,0.12983 -0.1669,0.46727 0.14886,1.16393 0.45591,1.00585 0.80206,1.2351 0.98198,0.65036 z m 13.29154,-1.30638 c -0.0845,-0.21107 -0.14716,-0.14837 -0.15986,0.15985 -0.0115,0.27892 0.051,0.43518 0.13897,0.34727 0.0879,-0.0879 0.0973,-0.31613 0.0209,-0.50712 z m 13.57759,-0.54533 c 0,-0.50506 -1.06675,-1.99555 -1.74741,-2.44154 -0.77252,-0.50617 -1.14302,-0.35517 -0.63384,0.25835 0.45128,0.54377 0.1788,0.77577 -0.49045,0.4176 -0.29467,-0.15771 -0.59696,-0.18773 -0.67175,-0.0667 -0.22172,0.35876 1.38589,2.11924 2.02669,2.2194 0.79722,0.12463 1.51676,-0.059 1.51676,-0.38709 z m -18.27157,-0.31265 c 0.25136,-0.30286 0.20351,-0.43759 -0.23959,-0.67474 -0.30452,-0.16297 -0.48593,-0.4059 -0.40314,-0.53986 0.0828,-0.13395 -0.18177,-0.31652 -0.5879,-0.4057 -0.40614,-0.0892 -0.89588,-0.2113 -1.08832,-0.27139 -0.43667,-0.13633 -1.3699,0.34422 -1.3699,0.70542 0,0.14783 0.40858,0.43949 0.90795,0.64814 0.49937,0.20865 0.98265,0.50023 1.07395,0.64796 0.24525,0.39682 1.34521,0.32605 1.70695,-0.10983 z m 6.53764,-1.14234 c 0.38025,-1.51435 -0.59691,-1.8517 -1.3442,-0.46407 -0.48709,0.90448 -0.48717,0.93806 -0.003,1.47274 0.47484,0.5247 0.5096,0.52743 0.84666,0.0666 0.19332,-0.2643 0.41869,-0.74818 0.50083,-1.07527 z m -47.38309,0.0572 c 0.30058,-0.0602 0.79968,-0.32911 1.10911,-0.59747 0.54559,-0.47319 0.5499,-0.52737 0.14262,-1.79314 -0.23098,-0.71787 -0.53329,-1.53049 -0.6718,-1.80582 -0.21452,-0.42642 -0.16961,-0.4791 0.30304,-0.3555 0.30518,0.0798 0.55488,0.0782 0.55488,-0.004 0,-0.39232 -1.43676,-1.96371 -2.1172,-2.31558 -0.82198,-0.42506 -2.6453,-0.5435 -2.6453,-0.17183 0,0.12362 0.35502,0.7487 0.78894,1.38906 0.43391,0.64036 0.7911,1.25899 0.79375,1.37472 0.003,0.11574 -0.41191,0.13225 -0.92123,0.0367 -0.74334,-0.13945 -0.92604,-0.0906 -0.92604,0.24756 0,0.53371 1.05308,0.80545 2.25069,0.58078 1.04549,-0.19614 1.31119,0.27256 0.29859,0.52671 -0.34414,0.0864 -1.14781,0.69161 -1.78594,1.34496 -1.07164,1.09723 -1.12446,1.2144 -0.69189,1.53469 0.43221,0.32003 1.94314,0.32336 3.51778,0.008 z m 8.1946,-0.13992 c 0.49201,-0.79609 -1.42022,-2.62986 -2.74239,-2.62986 -0.43018,0 -0.38784,0.39993 0.0838,0.79133 0.5445,0.45189 0.28212,0.75087 -0.52375,0.59682 -1.20267,-0.22991 -0.46584,0.69111 0.88581,1.10724 1.51136,0.4653 2.07181,0.49811 2.29656,0.13447 z m 11.4995,-0.25112 c 0.0728,-0.10491 0.40712,-0.27656 0.74303,-0.38143 0.42937,-0.13406 0.58651,-0.35752 0.52917,-0.75249 -0.0978,-0.6733 -1.79856,-1.14196 -2.59582,-0.71528 -0.27152,0.14531 -0.74189,0.26421 -1.04528,0.26421 -0.46749,0 -0.5251,0.11094 -0.37778,0.7276 0.28305,1.18487 0.59955,1.41836 1.65884,1.22372 0.52555,-0.0966 1.01508,-0.26141 1.08784,-0.36633 z m 28.62351,-0.0548 c -0.18986,-0.18985 -0.31309,-0.20548 -0.31309,-0.0397 0,0.35316 0.3129,0.66606 0.48948,0.48948 0.0752,-0.0752 -0.004,-0.27759 -0.17639,-0.44979 z m -7.45684,-1.08038 c 0,-0.18918 -0.14883,-0.49526 -0.33073,-0.68018 -0.26666,-0.27109 -0.18978,-0.30141 0.39687,-0.15653 0.56297,0.13904 0.72761,0.0849 0.72761,-0.23906 0,-0.41972 -1.0978,-1.11397 -2.36579,-1.49614 -0.37231,-0.11221 -0.89133,-0.29101 -1.15338,-0.39733 -0.41389,-0.16793 -0.45266,-0.0934 -0.29519,0.56775 0.2191,0.91992 0.77034,1.59864 1.82998,2.25317 0.94002,0.58065 1.19063,0.61187 1.19063,0.14832 z m 6.46251,-2.30188 c 0.4592,-2.40817 0.47823,-3.175 0.0788,-3.175 -0.61123,0 -0.89689,0.51773 -1.38687,2.51355 -0.25008,1.01864 -0.61917,2.04005 -0.8202,2.26979 -0.77706,0.88803 -0.31145,0.99012 0.79308,0.17389 0.85361,-0.6308 1.20507,-1.09996 1.33517,-1.78223 z m 7.56041,2.11667 c 0,-0.29398 -0.17639,-0.52917 -0.39688,-0.52917 -0.4028,0 -0.54273,0.5597 -0.22048,0.88195 0.33543,0.33543 0.61736,0.17433 0.61736,-0.35278 z m -43.0061,0.0183 c 0.0837,-0.13546 0.0312,-0.32108 -0.11667,-0.41249 -0.1479,-0.0914 -0.2689,0.0194 -0.2689,0.2463 0,0.46475 0.15876,0.53318 0.38557,0.16619 z m 18.92901,-4.5e-4 c 0,-0.13571 -0.21929,-0.31635 -0.48732,-0.40142 -0.26802,-0.0851 -0.76175,-0.44679 -1.09716,-0.80383 -0.50581,-0.5384 -0.55256,-0.71818 -0.27404,-1.05378 0.1847,-0.22255 0.5631,-0.40463 0.84089,-0.40463 0.27779,0 0.57945,-0.19383 0.67036,-0.43073 0.25178,-0.65613 -0.91941,-1.43802 -2.0321,-1.35665 -1.03583,0.0758 -1.41133,0.61877 -1.71159,2.47516 l -0.17543,1.08466 1.2733,0.54757 c 1.33534,0.57426 2.99309,0.76459 2.99309,0.34365 z m -27.19266,-0.16544 c 0.30592,-0.30592 -0.14074,-1.17531 -0.60383,-1.17531 -0.58102,0 -0.87956,0.41337 -0.67797,0.93872 0.14392,0.37505 0.98761,0.53077 1.2818,0.23659 z m 55.76766,-0.24926 c 0,-0.26459 -0.26458,-0.39688 -0.79375,-0.39688 -0.7586,0 -0.99666,0.23806 -0.61736,0.61736 0.34635,0.34635 1.41111,0.17998 1.41111,-0.22048 z m -50.27083,-0.39688 c 0,-0.14552 -0.12609,-0.26458 -0.2802,-0.26458 -0.15411,0 -0.20661,0.11906 -0.11668,0.26458 0.0899,0.14552 0.21603,0.26458 0.2802,0.26458 0.0642,0 0.11668,-0.11906 0.11668,-0.26458 z m 1.5875,-0.52917 c 0,-0.29398 0.17639,-0.52916 0.39687,-0.52916 0.61658,0 0.46855,-0.93256 -0.29139,-1.83569 -0.75188,-0.89356 -0.69138,-1.56941 0.16044,-1.79217 0.95404,-0.24948 0.57758,-0.68279 -0.44854,-0.51627 -1.20574,0.19566 -2.03763,0.988 -2.05398,1.9563 -0.01,0.59384 -0.13766,0.73805 -0.67382,0.76131 -1.40241,0.0608 -1.55716,0.12037 -1.73027,0.6658 -0.30452,0.95944 0.82227,1.36633 1.60797,0.58064 0.41649,-0.41649 0.46155,-0.41448 0.71127,0.0317 0.21704,0.38783 0.31098,0.40902 0.50527,0.11394 0.18795,-0.28546 0.35473,-0.20787 0.78491,0.36513 0.64493,0.85906 1.03127,0.9334 1.03127,0.19843 z m 12.17513,0.0497 c 0.7175,-0.581 0.58821,-1.10862 -0.60823,-2.48234 l -0.85128,-0.97741 -2.11666,0.61333 c -1.60944,0.46635 -2.20695,0.77064 -2.49341,1.26981 -0.3407,0.5937 -0.32393,0.71317 0.17539,1.24912 0.40428,0.43395 0.7177,0.54485 1.17048,0.41416 1.08658,-0.31361 2.25508,-0.90811 2.59869,-1.32214 0.4128,-0.49739 1.06239,-0.52545 1.06239,-0.0459 0,0.19573 -0.23532,0.56883 -0.52293,0.82911 -0.28761,0.26029 -0.45918,0.5764 -0.38126,0.70247 0.24247,0.39232 1.34681,0.25183 1.96682,-0.25022 z m 34.83726,-0.64504 c 0.4639,-0.48998 0.88975,-1.28672 0.98994,-1.85208 0.17394,-0.98159 0.1665,-0.99217 -0.69607,-0.99056 -0.47954,9e-4 -1.21292,0.17949 -1.62973,0.39688 -0.9565,0.49884 -0.96195,0.49817 -0.96195,-0.11831 0,-0.53583 -0.45021,-0.97651 -0.721,-0.70573 -0.24272,0.24272 -0.15041,2.45041 0.12288,2.93875 0.24736,0.44201 1.29283,1.11754 1.80299,1.16501 0.15336,0.0143 0.64518,-0.36102 1.09294,-0.83396 z m -13.41031,0.34795 c 0,-0.56294 -0.59648,-1.74585 -1.37776,-2.7323 -0.7871,-0.9938 -0.85293,-1.02433 -1.20157,-0.55722 -0.45874,0.61462 -0.26322,2.08722 0.37002,2.78694 0.4513,0.49868 0.4644,0.49751 0.76739,-0.0686 0.30689,-0.57342 0.30902,-0.57289 0.48325,0.1213 0.16111,0.64194 0.95867,1.01624 0.95867,0.44991 z m 8.38197,-0.51565 c 0.0883,-0.33763 0.29369,-0.45571 0.63669,-0.36601 0.88754,0.23209 0.5726,-0.62511 -0.59772,-1.62686 -0.60723,-0.51976 -1.14704,-0.90205 -1.19957,-0.84951 -0.25264,0.25264 -0.10489,2.59228 0.18583,2.94257 0.44737,0.53904 0.81756,0.50099 0.97477,-0.10019 z m -47.01916,-1.48594 c 0.11322,-0.14553 0.2855,-0.81544 0.38284,-1.48871 0.23063,-1.59517 -0.19361,-1.77101 -1.80591,-0.74852 -0.8652,0.54869 -1.21357,0.94334 -1.21069,1.3715 0.005,0.77358 0.5075,1.5376 0.6996,1.06416 0.24361,-0.60038 0.63261,-0.34371 0.46872,0.30928 -0.13224,0.52688 -0.0513,0.65548 0.45798,0.7276 0.4501,0.0637 0.64353,-0.0566 0.71011,-0.44156 0.0503,-0.29105 0.18413,-0.64823 0.29735,-0.79375 z m 45.25178,0.70392 c 0,-0.26768 -0.29766,-0.62231 -0.66146,-0.78807 -0.57059,-0.25998 -0.66146,-0.23674 -0.66146,0.16919 0,0.5522 0.49,1.10558 0.97896,1.10558 0.18917,0 0.34396,-0.21901 0.34396,-0.4867 z m -15.39286,-1.04016 c 0.0672,-0.47336 -0.11345,-0.68386 -0.8514,-0.99219 -2.07833,-0.86838 -3.17781,-0.24775 -1.72162,0.97181 1.12753,0.94431 2.44042,0.9547 2.57302,0.0204 z m 4.12673,0.0675 c 0.49206,-0.37232 0.49284,-0.40083 0.0251,-0.91763 -0.47441,-0.52423 -1.98818,-0.75605 -1.98818,-0.30447 0,0.30182 1.046,1.62556 1.27597,1.61476 0.0986,-0.005 0.40776,-0.18133 0.68707,-0.39266 z m -14.39846,-0.65726 c 0.29104,-0.29104 0.52917,-0.70776 0.52917,-0.92604 0,-0.46889 -0.029,-0.47333 -0.90882,-0.13884 -0.48118,0.18295 -0.67868,0.45243 -0.67868,0.92604 0,0.80508 0.34663,0.85055 1.05833,0.13884 z m -22.53733,-0.7303 c 0.0929,-0.65138 -0.20039,-0.76781 -0.69309,-0.27511 -0.47398,0.47398 -0.38522,1.05712 0.14552,0.95597 0.25467,-0.0485 0.50107,-0.35493 0.54757,-0.68086 z m -11.06475,64.62718 c 0,-0.47261 0.143,-0.66146 0.50086,-0.66146 0.53384,0 0.81827,0.44884 0.62874,0.99219 -0.0634,0.1819 -0.34357,0.33073 -0.62248,0.33073 -0.36454,0 -0.50712,-0.18598 -0.50712,-0.66146 z m 69.20707,-0.63148 c -0.0797,-0.12903 0.0217,-0.37294 0.22541,-0.54201 0.41242,-0.34228 0.83473,0.051 0.54981,0.51203 -0.20246,0.32759 -0.58221,0.34228 -0.77522,0.03 z m -68.92377,-1.60591 c -0.4381,-0.27076 -0.18299,-1.0699 0.34154,-1.0699 0.20728,0 0.44207,0.16989 0.52175,0.37753 0.192,0.50035 -0.40251,0.97715 -0.86329,0.69237 z m 69.19177,-2.35731 c -0.11397,-0.18441 -0.13577,-0.40675 -0.0484,-0.49408 0.23679,-0.23679 0.49497,0.11147 0.36708,0.49515 -0.0896,0.26886 -0.15194,0.26865 -0.31864,-0.001 z m -69.37224,-0.41375 c -0.16814,-0.43815 0.30431,-1.20926 0.74089,-1.20926 0.36712,0 0.13962,1.39559 -0.24827,1.52295 -0.18183,0.0597 -0.40351,-0.0815 -0.49262,-0.31369 z m 69.48259,-3.59051 c 0,-0.14552 0.11906,-0.26458 0.26458,-0.26458 0.14552,0 0.26458,0.11906 0.26458,0.26458 0,0.14552 -0.11906,0.26459 -0.26458,0.26459 -0.14552,0 -0.26458,-0.11907 -0.26458,-0.26459 z m -69.18855,-1.05833 c 0.0899,-0.14552 0.27556,-0.26458 0.41249,-0.26458 0.13693,0 0.24897,0.11906 0.24897,0.26458 0,0.14552 -0.18562,0.26458 -0.41249,0.26458 -0.22687,0 -0.3389,-0.11906 -0.24897,-0.26458 z m 69.29682,-2.21613 c -0.22415,-0.58415 0.0741,-0.88237 0.47822,-0.47821 0.23863,0.23863 0.23964,0.38653 0.004,0.62192 -0.23538,0.23537 -0.35012,0.2012 -0.48248,-0.14371 z m 0.15631,-3.75904 c 0,-0.23041 0.14139,-0.3718 0.31419,-0.3142 0.4906,0.16353 0.57197,0.73312 0.10473,0.73312 -0.2304,0 -0.41892,-0.18852 -0.41892,-0.41892 z m -0.081,-3.71903 c -0.21139,-0.21138 0.0276,-0.62455 0.3612,-0.62455 0.13693,0 0.24897,0.17859 0.24897,0.39687 0,0.40916 -0.3122,0.52565 -0.61017,0.22768 z m 0.081,-4.21847 c 0,-0.23041 0.14139,-0.3718 0.31419,-0.3142 0.4906,0.16353 0.57197,0.73312 0.10473,0.73312 -0.2304,0 -0.41892,-0.18852 -0.41892,-0.41892 z m -69.58542,-2.88837 c 0,-0.21828 0.17859,-0.39688 0.39688,-0.39688 0.21828,0 0.39687,0.1786 0.39687,0.39688 0,0.21828 -0.17859,0.39687 -0.39687,0.39687 -0.21829,0 -0.39688,-0.17859 -0.39688,-0.39687 z m 0.0507,-3.06256 c 0.0522,-0.15643 0.20792,-0.28442 0.34617,-0.28442 0.13824,0 0.29401,0.12799 0.34616,0.28442 0.0521,0.15644 -0.10363,0.28443 -0.34616,0.28443 -0.24254,0 -0.39831,-0.12799 -0.34617,-0.28443 z m 69.58542,-0.79375 c 0.0522,-0.15643 0.20792,-0.28442 0.34616,-0.28442 0.13825,0 0.29402,0.12799 0.34617,0.28442 0.0521,0.15644 -0.10363,0.28443 -0.34617,0.28443 -0.24253,0 -0.3983,-0.12799 -0.34616,-0.28443 z m -69.37155,-2.82442 c 0,-0.28041 0.1823,-0.50712 0.40779,-0.50712 0.47451,0 0.41132,0.74151 -0.0771,0.90412 -0.18785,0.0625 -0.33073,-0.10897 -0.33073,-0.397 z m 69.4558,-0.86421 c 0.0914,-0.1479 0.27702,-0.2004 0.41249,-0.11668 0.36699,0.22681 0.29856,0.38557 -0.16619,0.38557 -0.22687,0 -0.3377,-0.121 -0.2463,-0.26889 z m -0.0743,-3.74946 c 0.16354,-0.4906 0.73312,-0.57197 0.73312,-0.10473 0,0.2304 -0.18852,0.41892 -0.41892,0.41892 -0.23041,0 -0.3718,-0.14139 -0.3142,-0.31419 z m -69.34261,-1.88796 c -0.31378,-0.37807 -0.15985,-1.23744 0.22164,-1.23744 0.11213,0 0.35706,0.18457 0.54427,0.41016 0.27981,0.33715 0.26976,0.48079 -0.0565,0.80703 -0.34241,0.34241 -0.43977,0.34519 -0.70944,0.0203 z m 69.37083,-2.44585 c -0.22051,-0.57466 0.33932,-1.11508 0.74003,-0.71437 0.33868,0.33868 0.12887,1.12903 -0.29971,1.12903 -0.15466,0 -0.3528,-0.18659 -0.44032,-0.41466 z m -69.24049,-1.09183 c -0.29797,-0.29797 -0.18148,-0.61017 0.22768,-0.61017 0.21828,0 0.39687,0.11203 0.39687,0.24897 0,0.33363 -0.41317,0.57258 -0.62455,0.3612 z m 69.41622,-2.31435 c 0,-0.22687 0.11907,-0.41249 0.26459,-0.41249 0.14552,0 0.26458,0.11204 0.26458,0.24897 0,0.13693 -0.11906,0.32255 -0.26458,0.41249 -0.14552,0.0899 -0.26459,-0.0221 -0.26459,-0.24897 z m -69.49998,-1.8944 c -0.18719,-0.48779 0.45269,-0.99621 0.80738,-0.64152 0.28879,0.28879 0.0237,1.0651 -0.36365,1.0651 -0.15465,0 -0.35433,-0.19061 -0.44373,-0.42358 z m 69.49998,-1.5608 c 0,-0.21828 0.11907,-0.39687 0.26459,-0.39687 0.14552,0 0.26458,0.17859 0.26458,0.39687 0,0.21828 -0.11906,0.39688 -0.26458,0.39688 -0.14552,0 -0.26459,-0.1786 -0.26459,-0.39688 z m -69.44449,-1.97041 c -0.23264,-0.3764 0.064,-0.80771 0.55555,-0.80771 0.23181,0 0.36461,0.18588 0.31511,0.44109 -0.10306,0.53141 -0.63134,0.75386 -0.87066,0.36662 z m 0.12366,-4.64417 c 0,-0.21828 0.17859,-0.39688 0.39687,-0.39688 0.21828,0 0.39688,0.1786 0.39688,0.39688 0,0.21828 -0.1786,0.39687 -0.39688,0.39687 -0.21828,0 -0.39687,-0.17859 -0.39687,-0.39687 z m 69.58542,-1.05833 c 0,-0.21829 0.11906,-0.39688 0.26458,-0.39688 0.14552,0 0.26458,0.17859 0.26458,0.39688 0,0.21828 -0.11906,0.39687 -0.26458,0.39687 -0.14552,0 -0.26458,-0.17859 -0.26458,-0.39687 z m -0.26459,-2.89481 c 0,-0.20969 0.11907,-0.45484 0.26459,-0.54478 0.14552,-0.0899 0.26458,0.0816 0.26458,0.38126 0,0.29963 -0.11906,0.54478 -0.26458,0.54478 -0.14552,0 -0.26459,-0.17156 -0.26459,-0.38126 z m -69.2602,-2.31418 c 0.16353,-0.4906 0.73312,-0.57196 0.73312,-0.10473 0,0.23041 -0.18852,0.41892 -0.41893,0.41892 -0.2304,0 -0.37179,-0.14138 -0.31419,-0.31419 z m 69.2602,-1.38355 c 0,-0.44463 0.14513,-0.68351 0.41528,-0.68351 0.27579,0 0.38688,0.19301 0.33073,0.57459 -0.12464,0.84706 -0.74601,0.93779 -0.74601,0.10892 z m -68.87986,-1.91823 c -0.097,-0.097 -0.17639,-0.29942 -0.17639,-0.44979 0,-0.16579 0.12324,-0.15017 0.31309,0.0397 0.1722,0.1722 0.25158,0.3746 0.17639,0.44979 -0.0752,0.0752 -0.21608,0.0573 -0.31309,-0.0397 z m 68.87986,-1.67569 c 0,-0.29398 0.17639,-0.52917 0.39688,-0.52917 0.22048,0 0.39687,0.23519 0.39687,0.52917 0,0.29398 -0.17639,0.52916 -0.39687,0.52916 -0.22049,0 -0.39688,-0.23518 -0.39688,-0.52916 z m -16.26057,-0.51089 c -0.19567,-0.3166 0.30205,-0.6303 0.65447,-0.41249 0.2959,0.18288 0.10165,0.65879 -0.2689,0.65879 -0.12834,0 -0.30185,-0.11083 -0.38557,-0.2463 z m 11.49807,-0.0339 c 0,-0.15411 0.11907,-0.20662 0.26459,-0.11668 0.14552,0.0899 0.26458,0.21602 0.26458,0.2802 0,0.0642 -0.11906,0.11667 -0.26458,0.11667 -0.14552,0 -0.26459,-0.12609 -0.26459,-0.28019 z m -17.06678,-0.25084 c -0.0906,-0.14655 0.0266,-0.33985 0.26038,-0.42956 0.50658,-0.1944 0.78891,0.0198 0.54541,0.41382 -0.21971,0.35549 -0.59132,0.36275 -0.80579,0.0157 z m -26.94944,-0.18171 c -0.29797,-0.29797 -0.18147,-0.61017 0.22768,-0.61017 0.21828,0 0.39687,0.11203 0.39687,0.24897 0,0.33363 -0.41317,0.57258 -0.62455,0.3612 z m 12.5308,-0.081 c 0,-0.14552 0.11907,-0.26458 0.26459,-0.26458 0.14552,0 0.26458,0.11906 0.26458,0.26458 0,0.14552 -0.11906,0.26459 -0.26458,0.26459 -0.14552,0 -0.26459,-0.11907 -0.26459,-0.26459 z m 3.04271,0 c -0.0899,-0.14552 -0.0374,-0.26458 0.11668,-0.26458 0.15411,0 0.2802,0.11906 0.2802,0.26458 0,0.14552 -0.0525,0.26459 -0.11668,0.26459 -0.0642,0 -0.19026,-0.11907 -0.2802,-0.26459 z m 2.77813,0 c 0,-0.14552 0.11906,-0.26458 0.26458,-0.26458 0.14552,0 0.26459,0.11906 0.26459,0.26458 0,0.14552 -0.11907,0.26459 -0.26459,0.26459 -0.14552,0 -0.26458,-0.11907 -0.26458,-0.26459 z m 2.91042,-0.0156 c 0,-0.15411 0.11906,-0.20662 0.26458,-0.11668 0.14552,0.0899 0.26458,0.21603 0.26458,0.2802 0,0.0642 -0.11906,0.11668 -0.26458,0.11668 -0.14552,0 -0.26458,-0.12609 -0.26458,-0.2802 z m -31.30352,-0.15526 c -0.37452,-0.37452 -0.1626,-0.88746 0.36666,-0.88746 0.36988,0 0.52071,0.14368 0.46303,0.4411 -0.0944,0.48696 -0.54611,0.72994 -0.82969,0.44636 z m 3.7078,0.004 c -0.41574,-0.41573 -0.1515,-0.89109 0.49532,-0.89109 0.50431,0 0.65789,0.11928 0.59228,0.45998 -0.0928,0.48164 -0.76901,0.7497 -1.0876,0.43111 z m 2.98946,-0.21402 c 0,-0.20969 0.10558,-0.4465 0.23461,-0.52625 0.29134,-0.18006 0.88431,0.49415 0.64504,0.73342 -0.31479,0.31479 -0.87965,0.18176 -0.87965,-0.20717 z m 6.2095,0.10339 c -0.25141,-0.40679 0.093,-0.66925 0.43255,-0.32966 0.19002,0.19002 0.19458,0.33801 0.0139,0.44969 -0.14815,0.0916 -0.34904,0.0376 -0.44643,-0.12003 z m -19.30637,-0.25129 c -0.21577,-0.34912 0.1006,-0.84457 0.41516,-0.65016 0.32136,0.19861 0.31928,0.91474 -0.003,0.91474 -0.13693,0 -0.32255,-0.11906 -0.41249,-0.26458 z m -3.57188,-0.52917 c -0.3251,-0.60745 -0.28388,-0.624 0.66016,-0.26508 0.38203,0.14525 0.62088,0.38337 0.53077,0.52917 -0.27031,0.43738 -0.88892,0.30021 -1.19093,-0.26409 z m 9.2508,73.69805 c 0.49975,-0.60216 0.0774,-0.94314 -1.13141,-0.9133 -0.60936,0.015 -2.47715,-0.11353 -4.15064,-0.28571 -1.67349,-0.17219 -4.07677,-0.30381 -5.34063,-0.29249 -2.07227,0.0186 -2.31436,-0.0312 -2.46523,-0.50653 -0.092,-0.2899 -0.1068,-0.73546 -0.0329,-0.99012 0.26427,-0.91029 0.43896,-6.41615 0.20357,-6.41615 -0.65246,0 -0.81078,0.86993 -0.7798,4.28477 0.042,4.63098 0.14776,4.80867 2.9048,4.88128 5.29517,0.13944 9.55867,0.35051 9.68775,0.4796 0.26245,0.26244 0.78026,0.14929 1.10446,-0.24135 z m -12.68113,-10.79336 c 0.0437,-2.81415 0.34047,-8.4748 0.4889,-9.32656 0.10144,-0.58209 0.13742,-2.10678 0.08,-3.3882 -0.0988,-2.20446 -0.13502,-2.32552 -0.67202,-2.24896 -0.53245,0.0759 -0.57008,0.23959 -0.60838,2.64603 -0.0224,1.41083 -0.18203,2.99301 -0.35463,3.51597 -0.23235,0.70404 -0.23679,1.04365 -0.0171,1.30837 0.20499,0.24699 0.22493,0.81532 0.0645,1.83835 -0.12772,0.81445 -0.16119,1.55202 -0.0744,1.63904 0.0868,0.087 0.18369,0.65414 0.21528,1.26027 0.0957,1.83631 0.3813,3.351 0.63181,3.351 0.13023,0 0.24095,-0.26789 0.24604,-0.59531 z m 0.53816,-16.86719 c 0.01,-0.14552 0.0183,-1.69333 0.0183,-3.43958 0,-11.27339 -0.041,-12.74259 -0.3528,-12.63866 -0.17397,0.058 -0.40815,0.44887 -0.52041,0.86863 -0.26395,0.98692 -0.36531,8.81711 -0.12375,9.55934 0.12296,0.3778 0.0335,0.71858 -0.26762,1.01973 -0.36508,0.36507 -0.39232,0.54834 -0.14127,0.95033 0.17106,0.27392 0.31102,1.27355 0.31102,2.22141 0,1.547 0.0542,1.72339 0.52917,1.72339 0.29104,0 0.53738,-0.11907 0.54741,-0.26459 z m 0.0146,-18.45469 c 0.0181,-1.12778 0.0688,-6.07578 0.11286,-10.99555 0.044,-4.91977 0.21822,-10.4973 0.38711,-12.39452 0.16888,-1.89722 0.22563,-4.15107 0.12611,-5.00855 -0.17323,-1.49257 -0.15282,-1.56976 0.47854,-1.8098 0.36272,-0.13791 1.23745,-0.1839 1.94384,-0.10222 2.97224,0.34369 5.10371,-0.0169 3.89244,-0.65844 -0.72771,-0.38546 -6.9278,-0.55326 -7.67372,-0.20769 -0.62715,0.29055 -0.81442,0.79854 -0.39087,1.06031 0.12762,0.0789 0.36825,0.68436 0.53474,1.34552 0.22996,0.91326 0.22765,1.34232 -0.01,1.78562 -0.21824,0.40779 -0.34329,3.54996 -0.41523,10.43385 -0.0941,9.00494 -0.0636,9.91039 0.35565,10.55023 0.40202,0.61355 0.4096,0.72734 0.0615,0.92216 -0.32146,0.1799 -0.39062,0.81951 -0.36295,3.35663 0.0188,1.72391 0.12299,3.27807 0.23152,3.45368 0.46241,0.7482 0.69735,0.18957 0.72809,-1.73123 z m 38.18274,-29.4078 c 0.0807,-0.13062 -0.2992,-0.45804 -0.84429,-0.72761 -0.82319,-0.4071 -1.47528,-0.47475 -3.85001,-0.39946 -2.49053,0.079 -2.84822,0.14716 -2.77569,0.52917 0.0646,0.34027 0.49768,0.47251 1.93291,0.59023 3.10266,0.25449 5.38258,0.25765 5.53708,0.008 z m -8.8468,-0.55032 c 0,-0.89246 -1.21957,-1.00632 -12.83229,-1.19808 -2.47386,-0.0408 -4.79558,-0.0965 -5.15938,-0.12375 -1.83401,-0.13718 -3.43958,0.17066 -3.43958,0.65947 0,0.48869 -0.79403,0.43239 8.86354,0.62855 12.48029,0.25351 12.56771,0.25374 12.56771,0.0338 z m 46.69896,43.38573 c -0.21577,-0.34912 0.1006,-0.84457 0.41516,-0.65016 0.32136,0.19862 0.31927,0.91474 -0.003,0.91474 -0.13693,0 -0.32255,-0.11906 -0.41249,-0.26458 z m -0.39366,-3.43358 c -0.39328,-0.73484 -0.0973,-2.6226 0.54143,-3.45388 l 0.50192,-0.65317 0.0372,0.79375 c 0.0205,0.43657 0.01,0.91282 -0.0237,1.05834 -0.0335,0.14552 -0.0863,0.79341 -0.11725,1.43975 -0.0624,1.30242 -0.48339,1.66766 -0.93961,0.81521 z m 0.41611,-9.17104 c -0.30566,-0.79652 -0.22815,-14.94447 0.0836,-15.2562 0.15512,-0.15512 0.36179,-0.20227 0.45928,-0.10478 0.32617,0.32616 0.25842,15.60553 -0.0697,15.7164 -0.16397,0.0554 -0.3769,-0.10454 -0.47317,-0.35542 z"
       id="path12508" />
  </g>
</svg>
