<?xml version="1.0" encoding="UTF-8" standalone="no"?>
<!-- Created with Inkscape (http://www.inkscape.org/) -->

<svg
   width="97.81192mm"
   height="95.571342mm"
   viewBox="0 0 97.811914 95.571345"
   version="1.1"
   id="svg5"
   inkscape:version="1.1 (c4e8f9ed74, 2021-05-24)"
   sodipodi:docname="ornatea2.svg"
   xmlns:inkscape="http://www.inkscape.org/namespaces/inkscape"
   xmlns:sodipodi="http://sodipodi.sourceforge.net/DTD/sodipodi-0.dtd"
   xmlns="http://www.w3.org/2000/svg"
   xmlns:svg="http://www.w3.org/2000/svg">
  <sodipodi:namedview
     id="namedview7"
     pagecolor="#ffffff"
     bordercolor="#666666"
     borderopacity="1.0"
     inkscape:pageshadow="2"
     inkscape:pageopacity="0.0"
     inkscape:pagecheckerboard="0"
     inkscape:document-units="mm"
     showgrid="false"
     inkscape:zoom="0.66903058"
     inkscape:cx="-546.31284"
     inkscape:cy="286.23505"
     inkscape:window-width="2506"
     inkscape:window-height="1403"
     inkscape:window-x="1974"
     inkscape:window-y="0"
     inkscape:window-maximized="1"
     inkscape:current-layer="layer1" />
  <defs
     id="defs2" />
  <g
     inkscape:label="Layer 1"
     inkscape:groupmode="layer"
     id="layer1"
     transform="translate(-280.24756,-136.49184)">
    <path
       style="fill:#000000;stroke-width:0.756047"
       d="m 283.92164,231.84555 -2.37431,-0.31312 -0.43909,-10.35393 c -0.2415,-5.69466 -0.53395,-27.02476 -0.64988,-47.40024 l -0.2108,-37.04631 46.41239,-0.19486 c 33.65211,-0.14129 46.69545,0.0401 47.44196,0.65961 0.84844,0.70414 1.02958,9.08511 1.02958,47.63682 v 46.78235 l -22.11438,0.0919 c -12.16291,0.0506 -26.83649,0.1934 -32.60795,0.31743 -5.77147,0.12404 -11.21501,-0.0659 -12.09676,-0.42202 -0.9727,-0.39288 4.78941,-0.68523 14.65183,-0.74338 11.76094,-0.0693 15.73245,-0.30679 14.3649,-0.85881 -1.03957,-0.41962 -5.97277,-0.69077 -10.96269,-0.60256 -4.98991,0.0882 -10.43345,0.0337 -12.09675,-0.12112 -1.6633,-0.15485 10.58466,-0.45752 27.2177,-0.67261 l 30.24189,-0.39107 0.18098,-43.09469 c 0.0995,-23.70208 -0.11644,-43.56168 -0.47995,-44.13246 -0.54873,-0.8616 -7.94899,-1.02132 -43.59486,-0.94088 -23.61367,0.0533 -43.07936,0.2423 -43.25709,0.42003 -0.52719,0.52719 -0.18932,87.4872 0.34326,88.34895 0.30146,0.48777 0.007,0.60535 -0.76979,0.30731 -0.82148,-0.31523 -1.2581,-0.0974 -1.2581,0.62756 0,0.88578 1.24872,1.11035 6.17439,1.11035 3.39591,0 6.03262,0.12751 5.85936,0.28336 -0.56841,0.5113 -8.57853,1.02248 -11.00584,0.70236 z m 60.0229,-1.50689 c -0.72769,-0.19016 -1.91847,-0.19016 -2.64616,0 -0.7277,0.19017 -0.13231,0.34576 1.32308,0.34576 1.45539,0 2.05078,-0.15559 1.32308,-0.34576 z m 15.24696,-0.71842 c 0.17325,-0.14988 -2.88874,-0.2673 -6.80443,-0.26093 -4.79096,0.008 -6.74854,0.24641 -5.98537,0.7296 1.00525,0.63647 11.97705,0.23442 12.7898,-0.46867 z m 13.5848,0.55334 c 0.64495,-0.40846 -0.37121,-0.52515 -2.64617,-0.30386 -5.12055,0.49807 -5.83438,0.86183 -1.80306,0.91884 1.87121,0.0265 3.87337,-0.25028 4.44923,-0.61498 z m -90.09609,-10.45505 c -0.17378,-1.14924 -0.32061,-0.38842 -0.32629,1.69071 -0.006,2.07913 0.13651,3.01941 0.31597,2.08952 0.17945,-0.92989 0.1841,-2.631 0.0103,-3.78023 z m -0.15272,-53.74097 c -0.21439,-0.21439 -0.47486,-0.24805 -0.57882,-0.0748 -0.10396,0.17326 -0.0189,10.18144 0.18901,22.24039 l 0.37803,21.92537 0.20079,-21.85058 c 0.11044,-12.01782 0.0254,-22.026 -0.18901,-22.24039 z m 4.35277,-27.55475 3.95197,-0.27707 -4.34728,-0.13986 -4.34727,-0.13986 -0.0773,8.50554 c -0.0425,4.67804 -0.21957,10.36843 -0.39347,12.64531 -0.1739,2.27688 -0.0541,4.65843 0.2663,5.29233 0.32037,0.6339 0.67532,-4.86887 0.78878,-12.22838 l 0.2063,-13.38093 z m 86.3922,0.24956 c -0.31486,-0.50946 -3.61353,-0.74764 -8.95926,-0.6469 l -8.46091,0.15945 7.92913,0.24701 c 4.36101,0.13585 8.25087,0.56876 8.64413,0.96202 0.89461,0.89461 1.51768,0.36375 0.84691,-0.72158 z m -32.35211,-0.61629 c -7.79673,-0.12288 -20.55503,-0.12288 -28.35177,0 -7.79673,0.12288 -1.41759,0.22341 14.17589,0.22341 15.59347,0 21.97262,-0.10053 14.17588,-0.22341 z m -50.08812,91.24681 c -2.75433,-0.34511 -1.43775,-0.50589 4.8513,-0.59243 4.74734,-0.0653 8.48978,0.005 8.31652,0.15692 -0.6744,0.59023 -9.5818,0.88482 -13.16782,0.43551 z m -4.17716,-2.84262 c -1.56114,-1.26413 -1.68493,-1.74214 -1.03572,-3.99943 0.44972,-1.56366 1.22078,-2.56746 1.97669,-2.57334 0.68164,-0.005 1.49017,-0.26047 1.79674,-0.56703 0.30656,-0.30657 0.0944,-0.5574 -0.47155,-0.5574 -0.56592,0 0.0561,-0.8005 1.38222,-1.77889 l 2.41115,-1.77889 -2.99181,-4.62892 c -2.03111,-3.14252 -3.15788,-5.88082 -3.50899,-8.52763 -0.64161,-4.83669 0.95258,-4.92881 2.36749,-0.1368 0.7555,2.5587 5.59294,9.60288 6.18678,9.00905 0.0938,-0.0938 -0.63648,-1.76474 -1.62289,-3.71315 -0.98641,-1.9484 -2.17832,-6.01437 -2.64869,-9.03548 -1.4708,-9.44661 -2.23071,-13.7435 -2.77648,-15.69955 -0.51841,-1.85797 -0.50082,-1.86669 1.03432,-0.51238 0.85894,0.75776 1.97657,2.37932 2.48363,3.60347 0.75769,1.82922 1.11765,2.06329 2.02059,1.31391 0.85987,-0.71363 1.43336,-0.7028 2.63851,0.0498 1.85725,1.15987 2.0548,0.96667 5.13265,-5.0198 1.33561,-2.59777 2.72012,-4.54292 3.07669,-4.32255 0.7535,0.46569 2.98084,-3.52787 2.98084,-5.34458 0,-0.67904 0.40401,-1.09995 0.89781,-0.93535 1.54971,0.51657 3.3204,-1.92381 3.0057,-4.14251 -0.17434,-1.22918 0.059,-2.07913 0.57069,-2.07913 1.53109,0 1.84529,2.39845 0.63195,4.82401 -0.64887,1.29714 -1.37329,2.95698 -1.60982,3.68854 -0.23654,0.73155 -0.6947,1.28665 -1.01814,1.23355 -1.44633,-0.23745 -2.47819,0.15025 -2.47819,0.93114 0,0.6184 0.27152,0.62328 1.00085,0.018 0.72934,-0.6053 1.23531,-0.59617 1.86512,0.0336 0.96008,0.9601 1.60777,-0.35436 10.40895,-21.1245 5.20599,-12.28576 5.20599,-12.28576 7.72609,-12.28576 2.34234,0 2.65492,0.30665 4.43128,4.34727 5.91256,13.44905 9.68535,21.35833 10.1881,21.35833 0.31319,0 0.67709,-0.86113 0.80867,-1.91362 0.37185,-2.97443 1.72514,-2.23296 1.98093,1.08535 0.12628,1.63825 0.68079,3.35309 1.23223,3.81075 0.81358,0.67521 1.10328,-0.37629 1.53648,-5.57673 0.51807,-6.21945 0.472,-6.48992 -1.55916,-9.1529 -2.093,-2.74407 -2.093,-2.74407 -0.67194,-5.51609 0.78158,-1.5246 1.54327,-3.02573 1.69264,-3.33583 0.14937,-0.3101 -0.58809,-0.95551 -1.63879,-1.43424 -2.24295,-1.02196 -4.22328,0.13561 -4.22328,2.46866 0,0.80538 -0.53069,1.41952 -1.22664,1.41952 -1.00463,0 -1.0563,0.20526 -0.28545,1.13407 0.51766,0.62374 1.40987,1.13407 1.98269,1.13407 1.25709,0 1.39132,1.26948 0.17703,1.67424 -0.64403,0.21468 -0.63724,0.71271 0.0266,1.95312 0.59863,1.11854 0.65152,2.11257 0.16117,3.02879 -0.42062,0.78593 -0.45303,1.8118 -0.0765,2.42106 0.8119,1.31366 0.27907,2.2635 -1.26973,2.2635 -0.7754,0 -1.05216,-0.4798 -0.81029,-1.40471 0.20204,-0.77259 0.0241,-2.01798 -0.39533,-2.76754 -0.61815,-1.10457 -0.53237,-1.27444 0.45267,-0.89645 0.66844,0.25651 1.43042,0.11838 1.69329,-0.30696 0.5792,-0.93715 -1.91495,-2.90363 -3.10404,-2.44734 -1.44536,0.55464 -3.63433,-5.39994 -3.12925,-8.51238 0.24798,-1.52811 0.14177,-3.35595 -0.23602,-4.06186 -0.6292,-1.17567 -0.071,-1.25685 6.64569,-0.96644 4.03293,0.17438 7.79101,0.34615 8.35128,0.38171 0.56027,0.0356 1.38039,0.85851 1.82246,1.82877 1.07183,2.35241 5.09735,2.54637 5.09735,0.24561 0,-1.32924 0.18846,-1.4008 1.5121,-0.57418 0.83165,0.51937 1.51209,1.54292 1.51209,2.27455 0,0.73162 0.36315,1.33023 0.807,1.33023 0.47756,0 0.59982,-0.65276 0.29949,-1.599 -0.46763,-1.47336 -0.27095,-1.57643 2.50326,-1.31187 2.44394,0.23307 2.93026,0.0715 2.58314,-0.85816 -0.35041,-0.93849 -0.22044,-0.97713 0.71985,-0.21401 0.94933,0.77047 1.01338,1.58589 0.3709,4.72225 -0.69508,3.39317 -0.62213,3.90898 0.69519,4.91566 1.443,1.10272 1.43851,1.13406 -0.22934,1.60333 -1.73543,0.48828 -2.03496,1.6256 -1.22458,4.64954 0.26468,0.98765 1.04313,1.70111 1.85607,1.70111 0.9316,0 1.2551,0.37807 0.96666,1.12972 -0.23843,0.62136 -0.7117,0.9578 -1.05171,0.74767 -0.34001,-0.21014 -0.33315,0.72742 0.0153,2.08347 0.3484,1.35605 0.77402,5.23669 0.94583,8.62366 l 0.31238,6.15812 -2.92513,-1.03205 c -1.60882,-0.56762 -2.73572,-0.72557 -2.50421,-0.35099 0.78467,1.26963 -1.12001,1.64542 -2.30973,0.45571 -0.65025,-0.65025 -1.58324,-1.19225 -2.07333,-1.20444 -0.49008,-0.0122 -2.02298,-1.05147 -3.40645,-2.30952 -1.96775,-1.78937 -2.32898,-2.51195 -1.65917,-3.31902 0.65922,-0.79431 0.54361,-1.20659 -0.50251,-1.79203 -2.02893,-1.13545 -0.67697,-1.88061 2.37368,-1.3083 2.88902,0.54198 3.19538,1.14414 1.75529,3.45009 -0.70668,1.13158 -0.7167,1.69239 -0.0423,2.36679 0.6744,0.67441 0.8023,0.45495 0.53972,-0.92618 -0.18924,-0.99551 -0.14185,-1.38474 0.10533,-0.86496 0.53427,1.12351 2.59154,1.27356 2.59154,0.18901 0,-0.41582 0.66847,-0.75605 1.48549,-0.75605 1.84069,0 3.30094,-2.5571 2.64337,-4.62891 -0.49794,-1.56886 -0.52703,-1.56995 -5.45194,-0.20312 -1.32319,0.36723 -1.70368,0.15859 -1.71269,-0.93915 -0.01,-1.16621 -0.13393,-1.21778 -0.71622,-0.29701 -0.59694,0.94393 -0.98165,0.85404 -2.51666,-0.58803 -1.16337,-1.09293 -2.59847,-1.64253 -4.00907,-1.53537 -2.11791,0.16091 -2.18864,0.29104 -1.96339,3.61222 0.33947,5.00534 0.87911,6.13505 1.82629,3.82333 0.74605,-1.82085 0.80795,-1.76527 1.68894,1.51639 1.28492,4.78636 2.68496,7.25533 3.43028,6.04936 0.89453,-1.44738 2.40341,-0.10012 1.84794,1.65001 -0.47735,1.50401 1.33607,5.97088 3.25865,8.02678 2.15853,2.30822 0.46351,-2.24958 -1.96771,-5.29105 -0.56245,-0.70364 -0.88494,-1.69247 -0.71662,-2.1974 0.16831,-0.50494 1.394,0.72447 2.72375,2.73203 1.32976,2.00756 2.41773,3.12733 2.41773,2.48838 0,-1.5498 2.97127,-5.26784 3.80032,-4.75546 0.36028,0.22267 0.19577,1.70659 -0.36557,3.29761 -0.56135,1.59101 -1.44195,5.50447 -1.95689,8.69657 -0.51494,3.1921 -1.2654,6.00724 -1.6677,6.25587 -0.83241,0.51446 -0.23327,-3.89189 1.39611,-10.26774 1.03521,-4.05081 0.95565,-6.35524 -0.1018,-2.94837 -0.30012,0.96694 -1.14995,3.11896 -1.88849,4.78227 -0.73855,1.6633 -1.50961,4.44968 -1.71346,6.19196 -0.20385,1.74228 -0.89871,4.22633 -1.54414,5.52011 -1.15354,2.31232 -0.98547,4.54294 0.34227,4.54294 0.37134,0 0.70202,-0.59539 0.73485,-1.32308 0.0328,-0.7277 0.225,-0.91667 0.42705,-0.41994 0.20206,0.49673 -0.007,1.60245 -0.46431,2.45715 -0.88875,1.66065 -0.33868,1.96991 1.46971,0.82629 0.73295,-0.4635 1.33935,-0.39487 1.77243,0.2006 0.42931,0.59028 0.50626,0.43451 0.22122,-0.44782 -0.6008,-1.85977 1.02731,-4.2759 2.50833,-3.72237 1.00339,0.37502 1.03537,0.25589 0.20552,-0.76542 -0.81063,-0.99768 -0.78428,-1.6847 0.15043,-3.9218 1.60925,-3.85146 2.99529,-3.5522 2.32033,0.50098 -0.51838,3.1129 -1.778,5.88322 -4.9688,10.92808 l -1.53223,2.42255 3.4516,3.30722 c 2.69161,2.57902 3.4516,3.84051 3.4516,5.72932 0,1.81709 -0.42492,2.58285 -1.70111,3.06565 -2.40299,0.90911 -2.59876,0.35194 -0.48512,-1.38064 1.7868,-1.46469 1.79079,-1.49847 0.33752,-2.85409 -1.42136,-1.32585 -1.43567,-1.32555 -0.42664,0.009 0.8912,1.17857 0.88514,1.48125 -0.0414,2.06754 -1.44672,0.91545 -19.39681,0.90832 -19.96308,-0.008 -0.24404,-0.39487 -2.22039,-0.57025 -4.39189,-0.38976 -3.90814,0.32485 -3.91751,0.32054 -0.924,-0.42433 4.73596,-1.17845 7.26608,-2.38027 6.94056,-3.2968 -0.32513,-0.91544 -1.55789,-0.94046 -3.91637,-0.0795 -0.83165,0.3036 -0.23626,-0.35132 1.32308,-1.45536 2.80318,-1.98471 3.89519,-4.03349 1.70111,-3.19154 -1.36421,0.52349 -1.41816,0.16096 -0.25353,-1.70389 0.71337,-1.14229 0.53395,-2.10919 -0.94506,-5.09306 -1.56285,-3.15302 -2.18196,-3.7174 -4.30163,-3.92142 l -2.47603,-0.23832 1.52815,2.50646 c 0.84048,1.37855 1.55244,3.35702 1.58214,4.39658 0.054,1.89012 0.054,1.89012 0.87495,0.1878 0.65891,-1.36632 0.55024,-2.00146 -0.55057,-3.21784 -0.75434,-0.83353 -1.19288,-1.69416 -0.97454,-1.9125 0.21834,-0.21833 0.96498,0.46989 1.6592,1.5294 1.09029,1.664 1.13423,2.36233 0.3226,5.12692 -0.51678,1.76029 -0.95443,3.70121 -0.97255,4.31315 -0.0181,0.61194 -0.8827,1.54253 -1.92129,2.06799 l -1.88834,0.95537 1.89012,0.0591 1.89012,0.0591 -1.89012,0.75705 c -1.87182,0.74973 -3.6789,0.61688 -6.23739,-0.45853 -0.74135,-0.31162 -1.32308,-0.22849 -1.32308,0.18907 0,0.40987 1.03157,1.1725 2.29238,1.69475 3.01107,1.24722 2.27392,1.92399 -0.89312,0.81996 -2.03126,-0.70811 -2.56969,-0.65763 -3.10035,0.29061 -0.97716,1.7461 -2.28892,1.44009 -1.3497,-0.31486 1.1121,-2.07798 0.97065,-3.88116 -0.42549,-5.42388 -0.66447,-0.73423 -0.96182,-1.73351 -0.66078,-2.22061 0.37449,-0.60593 1.05452,-0.28178 2.1532,1.02637 2.56373,3.05253 5.66428,3.2621 8.59943,0.58125 3.1243,-2.85361 3.23974,-4.63451 0.13085,-2.01854 -2.91024,2.44879 -4.51681,2.46346 -7.36459,0.0672 -2.451,-2.06239 -4.33305,-2.4232 -4.92949,-0.94506 -0.20974,0.51978 -0.4082,0.17956 -0.44103,-0.75605 -0.0389,-1.10754 0.37999,-1.70111 1.20039,-1.70111 0.69304,0 1.03252,-0.22755 0.7544,-0.50568 -0.27813,-0.27813 -0.039,-1.04362 0.53132,-1.7011 1.39214,-1.60479 2.03257,-5.35366 0.91458,-5.35366 -0.47642,0 -1.46914,1.02067 -2.20604,2.26814 -1.67144,2.82952 -2.30221,2.83482 -4.3709,0.0368 -1.71857,-2.32449 -3.68786,-3.54378 -3.68786,-2.28334 0,0.40158 1.19077,2.04819 2.64616,3.65913 3.08708,3.41703 3.32324,4.63584 0.89823,4.63584 -1.06548,0 -2.40267,0.88557 -3.42485,2.26814 -2.06334,2.79082 -5.0331,2.99784 -8.13416,0.56704 l -2.17016,-1.70111 2.21849,2.91457 c 2.01242,2.64384 2.47616,2.88 4.99255,2.54249 2.52232,-0.33832 2.90638,-0.14055 4.23214,2.17926 l 1.45809,2.55133 1.04208,-4.69726 c 0.57315,-2.58349 1.18007,-4.28329 1.34873,-3.77733 0.16865,0.50596 -0.0803,2.09247 -0.55331,3.52559 -0.47297,1.43312 -0.63258,3.81763 -0.35469,5.29893 0.61843,3.2965 -0.3288,3.45333 -2.56766,0.42511 -0.9223,-1.24748 -2.17706,-2.26815 -2.78835,-2.26815 -0.61129,0 -1.11144,-0.34022 -1.11144,-0.75604 0,-0.41583 -1.20145,-0.75605 -2.66989,-0.75605 -1.70856,0 -2.83104,-0.41993 -3.11744,-1.16628 -0.24614,-0.64145 -1.70417,-1.80736 -3.24005,-2.5909 -1.53588,-0.78355 -3.23668,-1.95983 -3.77956,-2.61396 -0.54288,-0.65413 -1.35236,-1.18933 -1.79884,-1.18933 -0.44648,0 0.34236,1.19077 1.75298,2.64616 1.41062,1.45539 2.98828,2.64617 3.50591,2.64617 0.51762,0 1.17393,0.37667 1.45846,0.83704 0.74584,1.2068 -2.57394,0.0731 -5.19691,-1.77476 -1.16746,-0.82246 -2.28119,-1.33685 -2.47495,-1.14309 -0.82079,0.82079 0.80208,2.9896 2.99142,3.99775 l 2.36224,1.08778 -2.35971,-0.40696 c -2.1641,-0.37322 -2.33093,-0.25646 -2.01263,1.40865 0.323,1.68961 0.067,1.84922 -3.68867,2.30023 -2.21966,0.26655 -5.75387,0.4876 -7.85379,0.49121 -2.09992,0.004 -4.17184,0.36037 -4.60426,0.7928 -0.54428,0.54427 -1.33187,0.3444 -2.55928,-0.6495 z m 1.5508,-0.86453 c -0.93966,-0.59424 -0.8306,-1.00658 0.69603,-2.63161 2.32012,-2.46965 1.39296,-3.51312 -1.06761,-1.20153 -1.46282,1.37424 -1.69769,2.04477 -1.10449,3.15318 0.41438,0.77427 1.16672,1.40255 1.67187,1.39619 0.585,-0.008 0.51391,-0.26742 -0.1958,-0.71623 z m 15.85718,-1.62843 c 0,-0.36737 -0.59539,-0.69482 -1.32308,-0.72765 -0.7277,-0.0328 -0.95795,-0.21124 -0.51167,-0.39647 0.44627,-0.18524 0.66069,-1.3637 0.47647,-2.61881 -0.37714,-2.56967 1.58868,-10.29038 3.65678,-14.3619 l 1.36838,-2.69396 19.52489,0.31641 c 10.7387,0.17402 19.73145,0.53574 19.9839,0.80383 0.25245,0.26809 1.52828,3.1005 2.83518,6.29424 2.48849,6.0813 3.17122,12.26954 1.43112,12.97169 -0.51979,0.20973 2.5422,0.40819 6.80442,0.44102 4.26222,0.0328 7.74948,-0.16569 7.74948,-0.44115 0,-0.27547 -0.97481,-2.06163 -2.16624,-3.96925 -2.35073,-3.76381 -3.34609,-5.87738 -12.13681,-25.7718 -4.75809,-10.7681 -6.15231,-13.27579 -7.49035,-13.47242 -0.90423,-0.13287 -1.63704,0.0372 -1.62846,0.37803 0.009,0.34079 3.66596,9.11528 8.12751,19.49886 7.81444,18.18692 8.2228,18.94197 11.13609,20.58984 3.55156,2.00891 3.03565,2.26685 -0.96934,0.48465 -1.54599,-0.68796 -3.04437,-1.20552 -3.32973,-1.15013 -0.28536,0.0554 -0.46947,-0.55472 -0.40913,-1.35579 0.0603,-0.80107 -0.79556,-3.43056 -1.90202,-5.8433 -1.10645,-2.41275 -2.68938,-6.00287 -3.51761,-7.97804 -1.26332,-3.01278 -1.84761,-3.60781 -3.62751,-3.69418 -1.78302,-0.0865 -1.85014,-0.15526 -0.42054,-0.43061 0.93561,-0.18021 1.70111,-0.595 1.70111,-0.92176 0,-0.52539 -4.95118,-12.04215 -7.58143,-17.63486 -0.89597,-1.90512 -2.86562,-2.72078 -3.95044,-1.63596 -0.24375,0.24375 0.57903,2.71036 1.82841,5.48135 2.92512,6.48762 5.20056,12.43923 4.87882,12.76098 -0.13886,0.13886 -2.58305,0.4701 -5.43152,0.7361 -3.80725,0.35552 -4.78698,0.65515 -3.69883,1.13119 1.19387,0.5223 1.11458,0.56915 -0.40991,0.24221 -1.03957,-0.22294 -6.82333,-0.77963 -12.8528,-1.23707 -6.02948,-0.45745 -11.25417,-1.10085 -11.61043,-1.42978 -0.66713,-0.61596 0.89325,-5.31687 4.36772,-13.15853 1.95208,-4.40572 1.76599,-6.63548 -0.44,-5.27211 -0.55551,0.34333 -1.6419,0.6369 -2.41418,0.65237 -1.09519,0.0219 -3.10857,3.85432 -9.15034,17.41722 -9.93977,22.31336 -11.4402,25.42446 -12.6106,26.1478 -0.53001,0.32757 2.33852,0.5776 6.37452,0.55564 4.03599,-0.022 7.33817,-0.34053 7.33817,-0.7079 z m -4.50949,-11.35483 c -0.0147,-0.26412 0.47022,-1.62501 1.07769,-3.02419 0.60746,-1.39917 1.10573,-2.03362 1.10728,-1.40988 0.003,1.08956 -2.1301,5.41773 -2.18497,4.43407 z m 5.11067,-12.24747 c 0.20344,-0.7738 0.57626,-1.0446 0.8433,-0.61252 0.26326,0.42595 2.34244,0.88566 4.6204,1.02156 l 4.14176,0.2471 -4.98506,0.36543 c -4.55616,0.33399 -4.95368,0.2461 -4.6204,-1.02157 z m 33.60996,0.48781 c 0.72769,-0.19016 1.91847,-0.19016 2.64616,0 0.7277,0.19017 0.13231,0.34576 -1.32308,0.34576 -1.45539,0 -2.05078,-0.15559 -1.32308,-0.34576 z m -32.66488,-3.07006 c 0.046,-0.76377 3.66855,-7.49816 3.71191,-6.90053 0.053,0.73045 -3.01753,7.46757 -3.40343,7.46757 -0.18845,0 -0.32727,-0.25517 -0.30848,-0.56704 z m 5.28496,-11.94554 c 0.0147,-0.39504 0.53926,-1.5688 1.16561,-2.60837 l 1.13882,-1.89011 -0.49454,1.89011 c -0.51598,1.97205 -1.85832,3.90659 -1.80989,2.60837 z m 56.67675,33.80326 c 0,-0.34908 -0.93561,-1.03504 -2.07913,-1.52435 l -2.07913,-0.88966 1.78486,1.52435 c 1.9689,1.68151 2.3734,1.83314 2.3734,0.88966 z m -57.01129,-5.49998 c -1.29467,-2.59522 -1.01877,-4.73074 0.89237,-6.90715 1.24911,-1.42248 3.95166,-1.81027 3.95166,-0.56703 0,0.41582 -0.35118,0.75604 -0.78041,0.75604 -1.31894,0 -2.08392,3.25712 -1.2959,5.51764 1.07877,3.09457 3.90512,4.75386 6.26554,3.67838 2.64112,-1.20337 2.46147,-4.24646 -0.40899,-6.92788 -1.24748,-1.16531 -2.26815,-2.83281 -2.26815,-3.70554 0,-1.41497 -0.44024,-1.58679 -4.06568,-1.58679 -4.4953,0 -5.10221,0.45227 -6.52408,4.86164 -0.9473,2.93769 -0.92621,3.00084 1.85203,5.54691 3.27811,3.00416 4.09819,2.77476 2.38161,-0.66622 z m 30.3119,1.4666 c 2.26277,-2.12577 2.39199,-6.25879 0.23774,-7.60415 -0.83166,-0.51937 -1.52542,-1.62797 -1.54169,-2.46356 -0.0217,-1.11365 -0.31176,-0.87028 -1.0865,0.91157 -0.66391,1.52695 -1.78599,2.61379 -3.01769,2.92294 -1.3308,0.334 -1.85449,0.88902 -1.62994,1.72744 0.18197,0.67943 0.53281,2.14603 0.77966,3.25912 0.39654,1.78811 1.36263,2.50044 3.80126,2.80282 0.38903,0.0482 1.49475,-0.65205 2.45716,-1.55618 z m -28.94614,-5.41291 c 0.33759,-1.40525 0.24411,-1.97525 -0.27166,-1.65648 -0.4325,0.26729 -0.78635,1.37317 -0.78635,2.45749 0,2.36989 0.36214,2.09572 1.05801,-0.80101 z m -16.8074,-5.92859 c -0.86571,-1.7983 -1.90441,-5.14085 -2.30821,-7.4279 -0.88006,-4.98443 -2.08876,-9.81371 -2.57893,-10.30388 -0.51458,-0.51457 0.13801,6.20839 1.07356,11.05993 1.05536,5.47278 3.73831,11.59079 4.67303,10.65607 0.44873,-0.44873 0.12899,-1.93098 -0.85945,-3.98422 z m 34.46156,1.12351 c -0.7277,-0.19017 -1.91847,-0.19017 -2.64617,0 -0.7277,0.19016 -0.13231,0.34575 1.32308,0.34575 1.45539,0 2.05078,-0.15559 1.32309,-0.34575 z m -30.41798,-6.91058 c -0.63696,-6.34261 0.32159,-10.23088 3.38755,-13.74127 l 2.30793,-2.64248 -2.25557,3.68942 c -2.49227,4.0766 -3.45241,8.74698 -2.4925,12.12422 0.58269,2.05007 0.90405,1.55671 4.57981,-7.03109 2.17423,-5.07973 3.75296,-9.55978 3.50828,-9.95568 -0.6196,-1.00253 2.94243,-2.22908 6.47345,-2.22908 3.95078,0 8.24711,3.61845 8.39657,7.07176 0.0849,1.96207 0.16295,2.06104 0.4454,0.56489 0.18833,-0.99767 0.003,-2.52866 -0.41243,-3.40221 -0.41517,-0.87355 -0.92837,-2.13996 -1.14045,-2.81424 -0.44046,-1.40045 -8.17502,-3.06184 -12.78995,-2.74728 -2.1178,0.14435 -2.83264,0.5266 -2.83518,1.51609 -0.002,0.7277 -0.4964,1.32309 -1.09898,1.32309 -0.60258,0 -1.90815,1.10571 -2.90126,2.45715 -2.33347,3.17538 -6.16445,10.6905 -5.12093,10.04557 0.53472,-0.33047 0.80126,1.23824 0.80126,4.71573 0,4.6796 0.33091,6.21901 1.33681,6.21901 0.18082,0 0.0954,-2.32362 -0.18981,-5.1636 z m 59.21344,-2.56408 c -0.45754,-7.18542 -3.44324,-12.78235 -8.67011,-16.2528 -3.29193,-2.18572 -4.75532,-2.70001 -7.39825,-2.60004 -4.54683,0.17198 -8.75786,2.0302 -8.75786,3.86463 0,0.80153 -0.34022,1.6676 -0.75604,1.92459 -0.88004,0.5439 -1.02667,2.64617 -0.18456,2.64617 0.31431,0 1.03917,-1.05659 1.61079,-2.34796 1.90885,-4.31238 7.8404,-5.5954 13.40794,-2.9002 7.03692,3.40651 10.81992,10.76566 9.67299,18.81701 -0.38768,2.72152 -0.29433,3.25677 0.4459,2.5565 0.6236,-0.58993 0.83371,-2.49606 0.6292,-5.7079 z m -61.87253,4.70349 c 0,-0.41583 -0.53041,-0.75605 -1.17869,-0.75605 -0.64828,0 -0.96842,0.34022 -0.71143,0.75605 0.257,0.41582 0.78741,0.75605 1.17869,0.75605 0.39129,0 0.71143,-0.34023 0.71143,-0.75605 z m 59.01069,-9.98589 c -0.82687,-2.77037 -5.72546,-8.77319 -6.51502,-7.98362 -0.22439,0.22439 0.57748,2.57316 1.78194,5.2195 1.20446,2.64633 2.83842,6.34188 3.63101,8.21233 l 1.44109,3.40082 0.24886,-3.02279 c 0.13687,-1.66254 -0.12768,-4.28435 -0.58788,-5.82624 z m -13.21961,6.72542 c 0.20944,-0.54578 -0.3041,-2.50205 -1.14119,-4.34727 -0.8371,-1.84522 -1.52946,-2.94164 -1.53859,-2.43649 -0.0303,1.67786 -2.77544,2.57224 -4.90993,1.59971 -1.39916,-0.63751 -2.18987,-1.82158 -2.77913,-4.16174 -0.45297,-1.7989 -1.12341,-3.27073 -1.48987,-3.27073 -1.04162,0 -0.7295,5.45934 0.43212,7.55825 0.80356,1.45194 0.84102,2.13932 0.16222,2.97673 -0.72307,0.89202 -0.63075,0.99433 0.51071,0.56603 0.76633,-0.28754 2.2489,-0.73754 3.2946,-0.99999 1.71713,-0.43097 1.82275,-0.33045 1.09043,1.03789 -0.44596,0.83329 -0.596,1.72992 -0.33341,1.99251 0.90829,0.90829 6.31532,0.49289 6.70204,-0.5149 z m -21.97559,-1.27581 c -0.57628,-1.81568 0.82677,-1.98236 2.97968,-0.35398 2.24811,1.70038 2.80365,1.34703 2.27901,-1.44956 -0.2641,-1.40777 -0.15398,-2.76118 0.2447,-3.00759 0.96545,-0.59668 0.22233,-17.94029 -0.82484,-19.25099 -0.55915,-0.69986 -0.56112,-1.15654 -0.007,-1.5121 0.43697,-0.28018 1.05072,-1.35996 1.36386,-2.39953 0.31314,-1.03956 1.02223,-2.40822 1.57575,-3.04146 1.11769,-1.27866 0.24986,-3.51584 -1.05178,-2.71138 -0.4354,0.26909 -1.49521,2.36973 -2.35514,4.6681 -0.85992,2.29836 -2.25146,5.52736 -3.09231,7.17555 -1.5288,2.9967 -1.5288,2.9967 0.31699,3.8377 1.5312,0.69766 1.92999,1.56647 2.33981,5.09756 0.59287,5.10816 -0.38136,8.10587 -3.02592,9.31081 -1.58383,0.72165 -2.15183,0.66224 -3.14276,-0.32869 -1.22662,-1.22662 -0.92233,-3.59492 0.46188,-3.59492 0.41583,0 0.57342,0.47592 0.35021,1.0576 -0.22321,0.58168 -0.0699,1.26525 0.3408,1.51904 1.05926,0.65466 3.13669,-1.63785 3.13669,-3.46144 0,-2.03385 -2.29052,-6.79422 -3.13387,-6.5131 -0.49983,0.16661 -7.4508,14.57901 -7.4508,15.44875 0,0.31386 3.44621,0.81737 6.28834,0.91876 2.56182,0.0914 2.8322,-0.067 2.40621,-1.40913 z m -25.05418,-3.40222 c 0.23935,-0.62374 0.10564,-1.13407 -0.29713,-1.13407 -0.40278,0 -0.73232,-0.91859 -0.73232,-2.04132 0,-1.22972 -0.26836,-1.75576 -0.67496,-1.32309 -0.77995,0.82997 -0.20025,5.63255 0.67988,5.63255 0.32414,0 0.78518,-0.51033 1.02453,-1.13407 z m 42.41098,-1.83787 c 0.23923,-0.3871 0.0267,-0.95612 -0.47224,-1.26449 -0.65841,-0.40693 -0.57947,-0.68042 0.28788,-0.9973 1.07994,-0.39455 1.0843,-0.71286 0.0453,-3.30362 -1.39501,-3.4784 -2.7701,-3.28398 -3.08556,0.43628 -0.33568,3.95869 1.82448,7.39465 3.22464,5.12913 z m 23.46975,-0.80829 c -0.257,-0.41583 -0.78741,-0.75605 -1.1787,-0.75605 -0.39128,0 -0.71142,0.34022 -0.71142,0.75605 0,0.41582 0.53041,0.75605 1.17869,0.75605 0.64828,0 0.96842,-0.34023 0.71143,-0.75605 z m -32.13201,-5.62574 c 0,-2.67832 -0.34022,-5.07995 -0.75605,-5.33695 -0.47676,-0.29465 -0.75604,1.50425 -0.75604,4.86969 0,3.05394 0.32341,5.33695 0.75604,5.33695 0.42578,0 0.75605,-2.12726 0.75605,-4.86969 z m 26.7896,-3.25782 c -1.9661,-3.63847 -3.72242,-6.78482 -3.90292,-6.99188 -0.99265,-1.13874 0.99818,4.48143 2.19339,6.19198 0.78215,1.1194 1.92787,3.24579 2.54605,4.7253 0.61819,1.47951 1.48717,2.69002 1.93109,2.69002 0.44392,0 -0.8015,-2.97694 -2.76761,-6.61542 z m -22.79155,-6.95448 c -1.18281,-3.01117 -2.37141,-3.97786 -2.60429,-2.11808 -0.46015,3.67473 -0.48928,5.90251 -0.11478,8.77654 l 0.4294,3.2952 1.74645,-3.44526 c 1.67487,-3.30404 1.69714,-3.57082 0.54322,-6.5084 z m 35.58505,0.52748 c -0.0602,-1.76693 -0.14521,-4.48843 -0.18901,-6.04777 -0.0438,-1.55935 -0.35154,-2.83518 -0.68387,-2.83518 -0.33233,0 -0.45926,1.2418 -0.28207,2.75955 0.25919,2.22008 -0.0292,3.04556 -1.4749,4.22262 -1.79705,1.46308 -1.79705,1.46308 -0.0528,1.08018 1.13418,-0.24897 1.63269,-0.0731 1.42525,0.50267 -0.26732,0.74201 0.68461,3.53306 1.20434,3.53113 0.0893,-3.3e-4 0.1132,-1.44627 0.053,-3.2132 z m -30.09192,1.63603 c 0.27932,-0.45194 -0.0919,-2.2381 -0.82488,-3.96924 -5.06294,-11.95717 -9.07586,-20.71915 -9.97719,-21.78464 -0.7342,-0.8679 -0.80401,-1.40361 -0.22922,-1.75885 0.87084,-0.53821 2.38055,2.53176 8.80476,17.90434 2.03392,4.867 4.06911,9.00323 4.52264,9.19163 0.45354,0.1884 1.27647,0.0633 1.82874,-0.27805 0.78112,-0.48276 -0.0481,-2.94393 -3.73391,-11.08174 -8.84881,-19.53737 -9.05468,-19.91175 -10.94964,-19.91175 -1.48496,0 -2.23735,1.19973 -5.3341,8.50553 -1.9829,4.67804 -4.21731,9.86641 -4.96535,11.52972 -2.82865,6.28964 -4.52152,10.447 -4.33018,10.63407 0.109,0.10657 1.38896,0.41079 2.84435,0.67606 l 2.64616,0.48229 3.78024,-8.48486 c 2.07913,-4.66668 4.16727,-8.61141 4.64031,-8.76607 0.47304,-0.15466 1.89691,2.20101 3.16417,5.23482 1.26726,3.03381 3.02253,7.13207 3.9006,9.10724 1.53408,3.45082 3.13922,4.50611 4.2125,2.7695 z m 10.91345,-5.60467 c -0.48726,-3.37744 -0.55613,-3.48473 -0.64638,-1.0069 -0.0896,2.46015 0.54824,5.60226 1.01678,5.00875 0.0962,-0.12189 -0.0704,-1.92272 -0.3704,-4.00185 z m -20.23905,-0.85788 c -0.19916,-1.0418 -0.63193,-1.6152 -0.96173,-1.2742 -0.32979,0.34099 -0.41004,1.58687 -0.17833,2.76863 0.25132,1.28178 0.63933,1.79586 0.96172,1.27421 0.29724,-0.48094 0.37749,-1.72683 0.17834,-2.76864 z m 35.3385,-5.91023 c 0.50107,-0.60376 0.79399,-1.70557 0.65092,-2.44847 -0.33053,-1.71631 -2.88892,-2.30742 -2.88892,-0.66747 0,0.68547 -0.64072,1.1895 -1.5121,1.1895 -1.86508,0 -1.9655,1.17288 -0.18901,2.20759 1.83977,1.07156 2.87795,0.99747 3.93911,-0.28115 z m -6.50416,-1.53985 c 0.42531,-1.10835 -5.7353,-7.94706 -7.15908,-7.94706 -1.38506,0 -0.57681,1.79339 2.42307,5.37642 3.30184,3.94369 4.05272,4.35125 4.73601,2.57064 z m -5.98249,-2.2347 c -0.71328,-1.08862 -1.467,-1.8092 -1.67491,-1.60129 -0.20791,0.20791 0.20558,1.26871 0.91887,2.35734 0.71329,1.08862 1.46701,1.8092 1.67492,1.60128 0.20791,-0.20791 -0.20558,-1.26871 -0.91888,-2.35733 z m 12.51679,-3.82224 c 2.43521,-2.5125 2.47747,-2.64617 0.83654,-2.64617 -0.95053,0 -2.36684,0.7655 -3.14735,1.70111 -0.87919,1.05388 -1.42869,1.31115 -1.44427,0.67618 -0.0138,-0.56372 0.8254,-2.03576 1.86496,-3.27121 3.2898,-3.9097 1.62159,-5.15977 -2.33956,-1.75316 -1.2082,1.03905 -2.44121,1.88961 -2.74003,1.89011 -0.91377,0.002 0.21193,-2.12333 1.35781,-2.56305 1.17384,-0.45045 1.47309,-3.14951 0.42125,-3.79958 -0.3599,-0.22243 -1.67201,1.23263 -2.91579,3.23347 -2.47637,3.98362 -2.38209,4.42718 1.59299,7.49512 2.89564,2.23483 3.50087,2.14537 6.51345,-0.96282 z m -12.47808,-4.1636 c -0.25881,-0.41876 0.0613,-0.96549 0.71143,-1.21496 1.54394,-0.59246 1.51593,-2.27001 -0.0479,-2.87011 -2.21753,-0.85095 -4.48388,2.66091 -2.80236,4.34243 0.80488,0.80487 2.65756,0.58195 2.13883,-0.25736 z m 15.50227,-4.34908 c 0,-0.87532 -3.10363,-2.62258 -3.66366,-2.06255 -0.27072,0.27072 0.16766,0.97474 0.97417,1.56448 1.61764,1.18284 2.68949,1.38134 2.68949,0.49807 z m -20.71422,-2.93469 c 3.03184,0.41556 3.3819,0.32999 2.58384,-0.6316 -1.05542,-1.27171 -11.69737,-1.56068 -10.91601,-0.29641 0.24412,0.39499 1.18071,0.49597 2.08133,0.2244 1.33461,-0.40243 1.46268,-0.31023 0.69242,0.49848 -1.54651,1.6237 -1.07173,2.5509 0.5532,1.08036 1.18664,-1.07389 2.22769,-1.25593 5.00522,-0.87523 z m -18.10003,82.38597 c -0.22202,-0.22202 -0.0711,-1.27834 0.33533,-2.34739 0.40645,-1.06905 0.519,-2.99034 0.25011,-4.26953 -0.32124,-1.52822 -0.23391,-2.06654 0.25467,-1.56977 1.22173,1.24223 1.64084,7.79323 0.52596,8.22106 -0.52932,0.20312 -1.14405,0.18765 -1.36607,-0.0343 z m -16.75522,-3.97389 c -1.08701,-0.4279 -0.55566,-0.60076 1.89012,-0.6149 1.87121,-0.0108 3.91254,0.27062 4.53628,0.62539 1.46874,0.8354 -4.30149,0.82598 -6.4264,-0.0105 z m 11.4601,-5.7634 c 0.45889,-1.19586 1.77072,-1.50731 1.77072,-0.4204 0,0.37134 -0.493,0.86434 -1.09556,1.09556 -0.73225,0.28099 -0.95615,0.0571 -0.67516,-0.67516 z m 38.88176,-12.81429 c 0.0787,-1.43212 1.33877,-3.84363 1.38266,-2.64617 0.0228,0.62374 -0.28824,1.64441 -0.69133,2.26814 -0.4031,0.62374 -0.7142,0.79385 -0.69133,0.37803 z m -65.84083,-19.46459 c 0,-0.68061 0.34022,-1.44774 0.75605,-1.70473 0.41582,-0.257 0.74242,-1.04257 0.72577,-1.74573 -0.0205,-0.86588 -0.39427,-0.60749 -1.15821,0.80067 -0.98329,1.81249 -2.59175,2.8492 -2.59175,1.67049 0,-1.14739 3.47216,-4.88369 4.53843,-4.88369 1.51352,0 3.77809,-4.54709 3.77809,-7.58612 0,-2.37979 0.6499,-2.80227 2.09214,-1.36002 1.41662,1.41661 1.98433,-1.19152 0.79922,-3.67173 -1.20874,-2.52966 -4.09043,-3.22017 -5.48417,-1.31412 -0.5974,0.81699 -1.32979,1.08044 -1.9456,0.69985 -0.66191,-0.40908 -0.80494,-0.31487 -0.43377,0.28569 0.40783,0.65989 -0.60747,0.84012 -3.85244,0.68386 -4.40621,-0.21219 -4.40621,-0.21219 -4.40621,2.05595 0,1.62699 0.48087,2.47911 1.70111,3.01446 0.93561,0.41047 1.7011,1.00586 1.7011,1.32308 0,1.0138 2.04876,0.61802 3.05079,-0.58935 0.73303,-0.88325 0.75549,-1.3784 0.0926,-2.04132 -1.29213,-1.29213 -1.06693,-2.08489 0.59226,-2.08489 0.80711,0 1.67774,-0.34022 1.93474,-0.75605 0.25699,-0.41582 0.91245,-0.75605 1.45657,-0.75605 0.67757,0 0.93588,0.947 0.81975,3.00522 -0.17859,3.16521 -1.57777,5.57195 -2.96449,5.09926 -0.45316,-0.15446 -2.18481,0.14413 -3.84812,0.66354 -2.91775,0.91115 -2.94302,0.94644 -0.71824,1.00249 1.26827,0.032 2.78286,-0.36717 3.36575,-0.88695 0.90161,-0.80399 0.91036,-0.74756 0.0586,0.37802 -0.55065,0.7277 -1.78171,1.32308 -2.73571,1.32308 -0.954,0 -1.88855,0.42528 -2.07679,0.94506 -0.27131,0.74917 -0.68843,0.74017 -2.01237,-0.0434 -1.18151,-0.69928 -1.95004,-0.75615 -2.62693,-0.19438 -0.75845,0.62946 -0.95884,-0.49795 -0.96656,-5.43793 -0.009,-6.04657 0.81968,-5.44487 1.30964,0.95042 0.18689,2.43935 0.22771,2.47999 0.52225,0.51991 0.27966,-1.86112 0.47766,-2.00415 1.58782,-1.1471 1.096,0.84612 1.08856,0.7674 -0.0548,-0.57944 -0.74507,-0.8777 -1.32308,-2.79068 -1.32308,-4.37887 0,-1.96075 -0.26957,-2.65366 -0.88453,-2.27359 -0.56938,0.3519 -0.73403,0.15449 -0.46213,-0.55409 0.23232,-0.60541 -0.0501,-1.74692 -0.62756,-2.53667 -1.51948,-2.078 -1.31634,-3.34314 0.46213,-2.87806 1.5341,0.40117 1.58145,0.27461 1.82711,-4.88426 0.0408,-0.85743 -0.40265,-1.24489 -1.26008,-1.10093 -1.46925,0.2467 -1.83591,-1.70608 -0.47793,-2.54536 0.5229,-0.32317 0.68154,-1.71593 0.41607,-3.65279 -0.62336,-4.54789 0.0806,-5.29441 3.99773,-4.23963 2.68964,0.72425 3.41864,0.67263 4.51515,-0.3197 1.81941,-1.64654 2.32265,-1.48599 2.32265,0.74097 0,1.81238 0.16502,1.89404 2.83518,1.40304 3.19597,-0.58767 3.95119,-1.34305 3.41038,-3.41111 -0.43454,-1.66169 -0.16803,-1.72717 2.35358,-0.57826 1.18971,0.54207 1.70911,1.25863 1.4333,1.97737 -0.34104,0.88872 -0.0484,1.00891 1.38292,0.56803 2.47755,-0.76312 2.71115,-1.08621 1.41555,-1.95784 -0.75703,-0.5093 0.33637,-0.58666 3.42411,-0.24226 2.49496,0.27828 4.58851,0.54843 4.65233,0.60033 0.0638,0.0519 0.35111,1.99392 0.63841,4.31561 0.45788,3.70025 0.36077,4.22127 -0.78682,4.22127 -0.72004,0 -1.46195,-0.58422 -1.64867,-1.29826 -0.22192,-0.8486 -0.84064,-1.1672 -1.78639,-0.91988 -1.15291,0.30149 -1.44688,-0.0236 -1.44688,-1.59993 0,-1.75985 -0.29452,-1.97829 -2.66723,-1.97829 h -2.66722 l 0.49354,4.81716 c 0.43751,4.27039 0.29799,5.08165 -1.22918,7.14725 -1.68006,2.27241 -1.69175,2.41112 -0.47247,5.60376 0.68762,1.80052 1.22631,4.28297 1.19709,5.51654 -0.0403,1.70247 -0.18345,1.91237 -0.59399,0.87116 -0.40588,-1.02941 -0.94827,-0.18041 -2.17352,3.40221 -1.50319,4.39533 -1.63876,4.56407 -1.70952,2.12776 l -0.0769,-2.64617 -1.3506,3.40221 c -1.72077,4.33467 -6.13914,11.27495 -6.13914,9.64323 z m -2.32413,-20.17729 c 0.59295,-0.37526 1.18977,-1.4141 1.32627,-2.30852 0.2024,-1.3262 -0.0321,-1.53728 -1.27082,-1.14412 -1.01086,0.32084 -1.67128,0.0853 -1.97419,-0.70409 -0.541,-1.40982 -2.30601,-1.57481 -2.7454,-0.25663 -0.17043,0.51127 0.0459,1.87215 0.48077,3.02419 0.80547,2.13394 2.2491,2.61332 4.18337,1.38917 z m 10.21096,-3.00044 c -0.16847,-0.16848 0.40843,-1.4628 1.282,-2.87627 2.14459,-3.47002 1.22916,-4.10202 -0.98723,-0.68156 -0.96536,1.48979 -2.00011,2.71293 -2.29945,2.71808 -0.29934,0.005 0.29605,-1.22889 1.32308,-2.74231 2.12688,-3.13413 2.38224,-4.80881 0.73327,-4.80881 -0.62374,0 -1.13565,0.42528 -1.13757,0.94506 -0.004,1.13006 -4.30393,5.85937 -5.32716,5.85937 -0.39475,0 -0.71772,0.5275 -0.71772,1.17223 0,0.93066 0.76629,1.12569 3.71855,0.94638 2.0452,-0.12422 3.58071,-0.36369 3.41223,-0.53217 z m -7.40763,-3.55209 c 1.14229,-0.30653 1.50195,-0.8586 1.23197,-1.89103 -0.28936,-1.1065 -0.0859,-1.34475 0.84388,-0.98797 0.88081,0.338 1.22519,0.0401 1.22519,-1.05984 0,-0.84148 0.42527,-1.70418 0.94505,-1.9171 0.61934,-0.2537 0.12774,-1.1223 -1.42631,-2.52016 -1.30425,-1.17316 -2.73985,-2.81347 -3.19021,-3.64512 -0.77844,-1.43751 -0.81997,-1.42126 -0.84183,0.32929 -0.0126,1.01277 0.7155,2.62748 1.6181,3.58825 2.64483,2.8153 0.85709,3.02844 -2.01911,0.24072 -1.44293,-1.39855 -2.83771,-2.32862 -3.0995,-2.06682 -0.2618,0.26179 0.41851,2.07644 1.5118,4.03254 2.4195,4.32895 1.94573,5.22552 -1.03613,1.9608 -1.21288,-1.32794 -2.81045,-2.41443 -3.55015,-2.41443 -1.18363,0 -1.1559,0.13239 0.2312,1.10396 0.86687,0.60718 2.00451,2.13817 2.52809,3.40221 0.94898,2.29103 1.96944,2.66543 5.02796,1.8447 z m 9.66478,-7.59428 c 0.52539,-1.36915 -1.48271,-4.04892 -3.03409,-4.04892 -1.84763,0 -1.92765,1.56271 -0.17466,3.41113 2.08344,2.19685 2.57313,2.29418 3.20875,0.63779 z m -17.25321,-4.42815 c -0.27455,-2.57516 -1.20729,-3.35304 -1.20729,-1.00686 0,1.63089 0.52845,2.89818 1.2085,2.89818 0.11024,0 0.1097,-0.85109 -0.001,-1.89132 z m 18.103,0.42953 c -0.27409,-0.44349 -0.86015,-0.80635 -1.30235,-0.80635 -0.50133,0 -0.44397,0.43381 0.15236,1.15234 1.03695,1.24945 1.9637,0.97062 1.14999,-0.34599 z m -13.26191,-0.85097 c 0,-0.39128 -0.34022,-0.71142 -0.75605,-0.71142 -0.41583,0 -0.75605,0.53041 -0.75605,1.17869 0,0.64828 0.34022,0.96842 0.75605,0.71142 0.41583,-0.25699 0.75605,-0.7874 0.75605,-1.17869 z m 23.05944,-2.22352 c -0.257,-0.41582 -1.04257,-0.75084 -1.74573,-0.74447 -1.10177,0.01 -1.12172,0.11287 -0.14439,0.74447 1.48062,0.95685 2.48148,0.95685 1.89012,0 z m -3.84157,18.63596 c -0.21554,-0.5617 -0.30269,-1.32719 -0.19367,-1.7011 0.10902,-0.37392 -0.18132,-1.3614 -0.64521,-2.19441 -0.75035,-1.3474 -0.86647,-6.8809 -0.14167,-6.75055 0.15721,0.0283 1.13639,0.32024 2.17595,0.6488 1.03957,0.32857 2.14529,0.56061 2.45716,0.51563 0.75349,-0.10865 0.69952,0.8065 -0.12429,2.10754 -0.38657,0.6105 -1.20702,0.84844 -1.94677,0.56458 -1.68273,-0.64573 -2.69625,0.0372 -2.15366,1.45112 0.24269,0.63245 0.97914,0.95951 1.66809,0.74081 1.1657,-0.37005 1.36094,0.71371 0.91371,5.07181 -0.0988,0.96327 -1.5955,0.62499 -2.00964,-0.45423 z m 64.09471,-11.45351 c 0.0154,-1.24748 0.18486,-1.66628 0.37655,-0.93067 0.19168,0.73561 0.17908,1.75627 -0.0281,2.26814 -0.20707,0.51187 -0.3639,-0.09 -0.3485,-1.33747 z"
       id="path11745" />
  </g>
</svg>
