<?xml version="1.0" encoding="UTF-8" standalone="no"?>
<!-- Created with Inkscape (http://www.inkscape.org/) -->

<svg
   width="62.730446mm"
   height="62.945271mm"
   viewBox="0 0 62.730447 62.945269"
   version="1.1"
   id="svg5"
   inkscape:version="1.1 (c4e8f9ed74, 2021-05-24)"
   sodipodi:docname="ornatew3.svg"
   xmlns:inkscape="http://www.inkscape.org/namespaces/inkscape"
   xmlns:sodipodi="http://sodipodi.sourceforge.net/DTD/sodipodi-0.dtd"
   xmlns="http://www.w3.org/2000/svg"
   xmlns:svg="http://www.w3.org/2000/svg">
  <sodipodi:namedview
     id="namedview7"
     pagecolor="#ffffff"
     bordercolor="#666666"
     borderopacity="1.0"
     inkscape:pageshadow="2"
     inkscape:pageopacity="0.0"
     inkscape:pagecheckerboard="0"
     inkscape:document-units="mm"
     showgrid="false"
     inkscape:zoom="0.94615212"
     inkscape:cx="-60.772468"
     inkscape:cy="109.39044"
     inkscape:window-width="2506"
     inkscape:window-height="1403"
     inkscape:window-x="1974"
     inkscape:window-y="0"
     inkscape:window-maximized="1"
     inkscape:current-layer="layer1" />
  <defs
     id="defs2" />
  <g
     inkscape:label="Layer 1"
     inkscape:groupmode="layer"
     id="layer1"
     transform="translate(-179.72475,-124.85573)">
    <path
       style="fill:#000000;stroke-width:0.463985"
       d="m 235.9758,187.71653 c -0.89318,-0.10522 -1.93714,-0.31653 -2.31993,-0.46963 -0.38278,-0.15309 -1.35346,-0.23527 -2.15707,-0.18259 -0.80361,0.0526 -1.5989,-0.12731 -1.76732,-0.39974 -0.42607,-0.68937 -2.91545,-0.62267 -3.15235,0.0845 -0.14959,0.44649 -2.53458,0.5461 -10.36233,0.43283 -5.59244,-0.081 -10.3664,-0.34192 -10.60885,-0.57998 -0.55402,-0.54405 -5.21805,-0.57232 -5.55097,-0.0337 -0.36319,0.58766 -4.04835,0.99926 -6.04526,0.6752 -1.49923,-0.24328 -1.70555,-0.42452 -1.52983,-1.34378 0.36956,-1.93323 -0.32022,-2.33324 -2.29203,-1.32917 -0.97491,0.49642 -1.86171,0.95694 -1.97068,1.02337 -0.1089,0.0665 0.2039,0.41475 0.69525,0.77404 1.11437,0.81485 0.61346,1.39776 -0.87919,1.02313 -0.88259,-0.22152 -1.18574,-0.6846 -1.42417,-2.17564 -0.23267,-1.45509 -0.48742,-1.85867 -1.09894,-1.7409 -0.43783,0.0844 -0.87091,0.56848 -0.96242,1.07593 -0.25115,1.39294 -1.0563,2.04658 -0.90158,0.73194 0.0712,-0.60443 -0.1317,-1.19157 -0.45065,-1.30476 -0.33463,-0.11873 -0.57998,0.17273 -0.57998,0.68892 0,0.4921 -0.38765,1.24554 -0.86145,1.67432 -0.78972,0.71468 -0.91295,0.71752 -1.48004,0.0342 -0.46342,-0.55838 -0.49079,-0.95 -0.10908,-1.56117 0.28022,-0.4487 0.36736,-1.0458 0.19362,-1.32691 -0.17378,-0.28111 -0.25066,-1.72399 -0.17098,-3.2064 0.0796,-1.48241 0.20616,-3.94805 0.28104,-5.47919 0.0749,-1.53116 0.57944,-4.34318 1.12127,-6.24894 1.03193,-3.62966 0.82907,-4.46934 -0.94631,-3.91689 -0.91799,0.28567 -1.02919,-0.29813 -0.84746,-4.44971 0.0672,-1.53457 0.37398,-2.75729 0.76958,-3.06706 0.75907,-0.59438 0.89296,-3.27304 0.17554,-3.51218 -0.67957,-0.22652 -1.11405,-12.12319 -0.48563,-13.2974 0.34273,-0.64043 0.3377,-1.34119 -0.0175,-2.35856 -0.37396,-1.07274 -0.36351,-1.61741 0.0403,-2.10406 0.39546,-0.4765 0.40884,-0.91095 0.0488,-1.58375 -0.27291,-0.50993 -0.49618,-2.60385 -0.49618,-4.65319 0,-3.20898 0.12451,-3.79272 0.89746,-4.20637 1.09182,-0.58433 7.09509,-0.64085 7.70946,-0.0726 0.24243,0.22424 1.19953,0.54235 2.12689,0.7069 1.27922,0.22699 1.75158,0.12854 1.95737,-0.40771 0.42915,-1.11832 6.09874,-0.99018 7.08364,0.16011 0.69781,0.81497 0.82981,0.82193 2.19938,0.11592 1.22358,-0.63069 3.53872,-0.76879 14.44865,-0.8619 14.13478,-0.12065 13.55042,-0.28799 7.77198,2.22565 -1.33963,0.58274 -2.78135,1.44148 -3.2038,1.9083 -1.03686,1.14571 -0.49425,1.06794 1.58884,-0.22773 4.01012,-2.49426 8.21238,-3.35411 9.39981,-1.92332 0.32502,0.39162 0.57325,1.33494 0.55161,2.09627 -0.0217,0.76132 0.15555,1.26376 0.39382,1.11651 1.2376,-0.76487 0.0573,-3.71343 -1.79894,-4.49388 l -1.24776,-0.5246 1.13398,-0.19321 c 0.72354,-0.12329 1.35329,0.10662 1.73993,0.63548 0.54288,0.74242 0.60599,0.74826 0.60599,0.0561 0,-0.67505 0.57102,-0.75945 4.52384,-0.66867 l 4.52386,0.10399 0.0921,3.5518 c 0.0835,3.2154 -0.0265,3.70835 -1.15995,5.20477 -0.68866,0.90912 -1.53053,1.5552 -1.87084,1.43572 -0.34031,-0.11942 -0.54389,0.007 -0.45239,0.28187 0.0915,0.27449 0.31296,0.46513 0.49213,0.42364 1.66873,-0.38654 2.20296,-0.62992 2.20296,-1.00361 0,-0.24049 0.20879,-0.30822 0.46398,-0.15046 0.79154,0.4892 0.51387,1.04684 -0.66909,1.34375 -0.88185,0.22132 -1.22374,0.72111 -1.54206,2.25422 l -0.40901,1.96985 -0.57361,-2.31993 c -1.2349,-4.99438 -1.22699,-4.57158 -0.074,-3.95449 0.94057,0.50339 1.00751,0.4657 0.72938,-0.41063 -0.23106,-0.72797 -0.13942,-0.90087 0.37314,-0.70416 0.82625,0.31706 1.09591,-0.0747 1.30148,-1.8905 0.1168,-1.03125 -0.0181,-1.35301 -0.52028,-1.24163 -0.51349,0.11381 -0.4751,-0.0738 0.15835,-0.77371 0.85657,-0.94649 0.89711,-2.89927 0.0658,-3.16298 -0.25519,-0.081 -0.83009,0.72366 -1.27755,1.788 -0.80269,1.90933 -0.79959,1.95042 0.23199,3.07617 l 1.04556,1.14099 -1.23756,-0.29662 c -0.796,-0.1908 -1.32095,-0.09 -1.47131,0.28256 -0.13924,0.34505 -0.24858,0.25095 -0.2704,-0.2328 -0.0202,-0.44658 0.15257,-0.81197 0.38391,-0.81197 0.23131,0 0.31198,-0.41524 0.17924,-0.92275 -0.46664,-1.78446 -1.06376,-0.38294 -1.06376,2.49675 0,2.23932 -0.1559,2.91119 -0.67557,2.91119 -0.37156,0 -0.57695,-0.15958 -0.45642,-0.35458 0.12047,-0.19504 0.007,-0.48575 -0.25241,-0.64605 -0.25934,-0.16028 -0.47474,-0.0181 -0.47865,0.31594 -0.005,0.40162 -0.12258,0.43873 -0.34798,0.1096 -0.1875,-0.27381 -0.7104,-0.63422 -1.16203,-0.80092 -0.97426,-0.35962 -3.13496,1.33245 -3.0984,2.42639 0.0181,0.53808 0.21454,0.45562 0.75256,-0.31567 0.40054,-0.57418 1.02634,-1.04396 1.39068,-1.04396 2.14304,0 5.72018,3.66112 5.72018,5.85449 0,1.43295 1.21661,3.65612 1.57502,2.8781 0.15519,-0.33707 0.18167,0.22233 0.0587,1.24309 -0.19942,1.65484 -0.16484,1.7387 0.3192,0.77386 0.41604,-0.82928 0.41083,-1.85204 -0.0223,-4.37799 -0.4768,-2.78053 -0.46135,-3.39974 0.0987,-3.95989 0.57597,-0.57598 0.73364,-0.53382 1.18957,0.31811 0.42917,0.80191 0.39492,0.98212 -0.1867,0.98212 -0.79071,0 -0.96531,1.41733 -0.26132,2.12131 0.71289,0.71289 1.10425,11.61955 0.55548,15.48056 -0.26971,1.89769 -0.3469,3.67243 -0.17151,3.94388 0.17537,0.27145 0.25011,3.62543 0.16607,7.45332 -0.13731,6.25995 -0.24428,7.03168 -1.06349,7.67483 -0.97315,0.76401 -0.78718,2.2024 0.37545,2.90388 0.44108,0.26613 0.61497,1.61091 0.61497,4.75585 0,3.97805 -0.0807,4.38481 -0.86997,4.38481 -0.47849,0 -1.47025,0.078 -2.20392,0.17344 -0.73369,0.0954 -2.06474,0.0873 -2.95791,-0.0179 z m 4.10965,-1.38892 c 1.02981,-0.27569 1.08283,-0.46428 0.90694,-3.22659 -0.14187,-2.22727 -0.43633,-3.19936 -1.22287,-4.03661 -0.64915,-0.69097 -0.92328,-1.39669 -0.73406,-1.88976 0.22511,-0.58665 -0.0668,-0.92613 -1.14685,-1.33382 -1.54352,-0.5826 -1.93043,-1.27139 -0.71419,-1.27139 1.35473,0 0.3739,-1.15516 -1.34985,-1.58979 -0.9376,-0.23639 -1.70472,-0.60178 -1.70472,-0.81197 0,-0.52383 -2.6776,-0.48092 -4.61217,0.0738 -2.13536,0.61241 -2.25303,0.32493 -0.50595,-1.23609 1.40718,-1.25731 1.45069,-1.40304 1.07969,-3.61595 -0.30389,-1.81267 -0.65641,-2.45729 -1.64822,-3.01399 -1.00052,-0.56157 -1.44386,-0.59436 -2.1419,-0.15835 -0.48413,0.30234 -1.32612,0.43311 -1.87109,0.29059 -0.64602,-0.16887 -1.6738,0.20416 -2.95336,1.07213 -2.42508,1.64499 -2.64253,1.93737 -2.65139,3.56516 -0.004,0.74933 -0.20433,1.18145 -0.4711,1.01657 -0.25519,-0.15765 -0.46398,-0.69202 -0.46398,-1.18734 0,-1.04156 -1.34466,-1.1923 -3.60544,-0.40418 -2.7508,0.95893 -2.09888,1.59978 2.22666,2.18888 l 4.08655,0.55656 2.61074,-2.54889 c 3.12,-3.0461 4.27302,-3.35927 1.95561,-0.53116 -0.90935,1.10976 -1.78719,2.55087 -1.95074,3.20249 -0.26285,1.04729 -0.12468,1.22267 1.1908,1.51158 1.89232,0.41564 4.69475,2.05393 4.38122,2.56126 -0.13135,0.21257 0.005,0.53758 0.30436,0.72223 0.35574,0.21988 0.41837,0.13363 0.18147,-0.24963 -0.2708,-0.43815 -0.0845,-0.50108 0.74028,-0.25024 0.60613,0.18432 1.20646,0.3533 1.33405,0.37549 0.12767,0.0223 1.13961,-0.43401 2.24889,-1.01378 2.4516,-1.28132 2.98497,-0.96419 1.31318,0.78079 -0.68318,0.71307 -1.24214,1.5091 -1.24214,1.76892 0,0.25984 1.16386,1.50117 2.58635,2.75853 4.56917,4.03874 4.71637,5.66631 0.18487,2.04395 -2.88571,-2.30675 -4.29633,-2.74065 -4.47494,-1.37647 -0.45482,3.47379 -0.73977,4.37136 -1.10306,3.47456 -0.20673,-0.5104 -0.39057,-2.12592 -0.40851,-3.59008 -0.0314,-2.5597 -0.0996,-2.70401 -1.77255,-3.75206 -2.34948,-1.47183 -5.96193,-2.80318 -6.57613,-2.42359 -0.68909,0.42589 -0.61227,3.12621 0.19772,6.9498 0.37471,1.76874 0.59444,3.30273 0.48831,3.40886 -0.1061,0.10609 -0.66116,-0.71463 -1.23341,-1.82393 -0.7436,-1.44145 -1.09998,-3.1011 -1.24905,-5.8169 -0.16151,-2.94161 -0.37921,-3.86968 -0.96386,-4.10845 -0.41538,-0.16958 -2.58221,-0.41995 -4.81512,-0.55622 -3.61777,-0.22079 -4.05988,-0.16134 -4.05988,0.5457 0,0.43643 -0.32029,1.11375 -0.71174,1.5052 -0.39145,0.39147 -0.61847,1.05512 -0.50449,1.47482 0.11399,0.4197 0.34321,1.56679 0.5094,2.5491 0.29953,1.77033 0.3172,1.78324 2.01245,1.47116 0.99055,-0.18234 2.16331,-0.83633 2.78681,-1.55401 l 1.07651,-1.23917 -0.24485,1.46746 c -0.158,0.94716 -0.0158,1.6583 0.40359,2.00565 0.35663,0.29598 0.71315,0.97783 0.79227,1.51522 0.15941,1.08322 4.1327,3.5546 5.75577,3.5801 1.03552,0.0158 1.9421,-0.85859 2.9169,-2.81487 0.70374,-1.41231 0.13573,-4.15047 -1.1573,-5.57931 -1.07135,-1.18383 -0.3875,-1.75061 0.73899,-0.61247 0.49114,0.49621 1.16772,2.15044 1.50352,3.67607 0.54973,2.49767 0.79452,2.8781 2.45803,3.82025 2.30576,1.3059 3.00747,1.32747 3.00747,0.0924 0,-0.93021 0.0582,-0.92028 1.44477,0.24649 0.80049,0.67356 1.78334,1.1105 2.20393,0.9798 0.41754,-0.12977 1.07234,-0.0351 1.45512,0.2104 0.81154,0.52037 1.66209,0.56181 3.18169,0.15502 z m -45.74482,-1.2665 c -0.11644,-0.60939 0.051,-1.60115 0.3723,-2.20393 0.53221,-0.99861 0.51552,-1.0394 -0.18785,-0.45917 -0.763,0.62941 -1.06147,2.86289 -0.46261,3.46174 0.47658,0.47659 0.50587,0.39254 0.27816,-0.79864 z m 5.67883,-0.0837 c 1.86859,-1.26806 3.43649,-2.92692 3.46194,-3.66277 0.009,-0.2456 -0.97634,0.5108 -2.1885,1.68087 -1.21217,1.17008 -2.62152,2.35646 -3.1319,2.63638 -0.51038,0.27991 -0.69611,0.51529 -0.41274,0.52304 0.28339,0.007 1.30541,-0.52211 2.2712,-1.17752 z m 14.29876,0.70975 c -4.55069,-0.37365 -5.25357,-0.59064 -5.25357,-1.62194 0,-0.51503 -0.25945,-0.55849 -1.19986,-0.20094 -0.88745,0.3374 -1.15185,0.31217 -1.01547,-0.097 0.10137,-0.30423 1.21553,-0.93384 2.47582,-1.39913 1.26029,-0.46528 1.71725,-0.73602 1.01546,-0.60166 -1.1933,0.2285 -1.27595,0.14029 -1.27595,-1.36216 0,-1.13412 -0.30322,-1.81886 -1.03121,-2.32877 -1.42815,-1.00031 -2.06181,-0.90493 -1.09386,0.16467 1.09624,1.21133 0.79898,3.39025 -0.54285,3.97893 -1.12742,0.49463 -1.31399,0.94428 -0.57997,1.39793 1.09748,0.6783 0.32607,1.1541 -1.50796,0.93009 -1.63115,-0.19922 -1.77148,-0.16099 -0.81197,0.22094 1.69949,0.67657 7.11582,1.28458 11.36765,1.27607 l 3.71187,-0.007 z m 12.14589,-0.44609 c 0.15765,-0.25519 -0.0388,-0.46398 -0.43661,-0.46398 -0.39785,0 -0.72336,0.20879 -0.72336,0.46398 0,0.25519 0.19648,0.46398 0.4366,0.46398 0.24013,0 0.56564,-0.20879 0.72337,-0.46398 z m -29.46308,-0.464 c 0,-0.25519 -0.42991,-0.46399 -0.95535,-0.46399 -0.52544,0 -0.82632,0.2088 -0.66859,0.46399 0.15765,0.25519 0.58762,0.46398 0.95535,0.46398 0.36774,0 0.66859,-0.20879 0.66859,-0.46398 z m -8.34467,-1.31227 c -0.3092,-0.10311 -0.90707,0.16485 -1.32859,0.59542 -0.71744,0.73281 -0.68152,0.74479 0.56218,0.18739 0.73073,-0.32747 1.0756,-0.67975 0.76641,-0.78281 z m 27.10837,-0.25692 c -0.16765,-0.66811 -0.4729,-1.21472 -0.67825,-1.21472 -0.20537,0 -0.13995,0.61841 0.14537,1.37425 0.62151,1.64655 0.96074,1.54499 0.53293,-0.15959 z m -1.28807,0.37803 c 0.15345,-0.39994 0.0426,-0.96368 -0.24656,-1.25275 -0.39147,-0.39147 -0.5256,-0.3243 -0.5256,0.26319 0,0.43381 -0.20879,0.78877 -0.46398,0.78877 -0.25519,0 -0.46398,0.20879 -0.46398,0.46398 0,0.74803 1.39494,0.53211 1.70012,-0.26319 z m -14.69782,-0.3168 c -0.004,-0.31898 -1.30236,-1.20635 -2.88669,-1.97193 -1.58432,-0.76558 -2.93482,-1.60075 -3.00112,-1.85594 -0.19331,-0.74397 2.77142,-2.61212 3.30252,-2.08102 0.83955,0.83956 1.54469,0.47075 1.83031,-0.95729 0.23318,-1.16593 0.73704,-1.6223 2.86847,-2.5981 1.42207,-0.65106 3.9308,-1.41415 5.57493,-1.69577 1.64414,-0.28164 2.98935,-0.65148 2.98935,-0.8219 0,-0.29747 -2.51897,0.0675 -5.37119,0.7782 -1.23467,0.30766 -1.29854,0.26757 -0.71051,-0.44611 0.35536,-0.43129 0.50353,-0.92675 0.32927,-1.10101 -0.5792,-0.57918 -4.5237,1.93166 -6.54657,4.16715 -2.40414,2.65682 -3.19272,2.91884 -1.19556,0.39722 1.66808,-2.10613 1.80532,-3.11577 0.48071,-3.53619 -1.06985,-0.33956 -2.4456,0.55231 -1.98974,1.28989 0.18448,0.29851 0.51853,0.17972 0.87831,-0.31232 0.77453,-1.05924 1.33623,-0.12802 0.67172,1.11369 -0.73396,1.37138 -6.60423,6.094 -7.26146,5.84179 -0.30705,-0.11785 -0.89203,0.29516 -1.29996,0.91773 -0.73593,1.12318 -0.72948,1.13196 0.83039,1.13196 0.86463,0 2.07908,-0.39881 2.69877,-0.88625 1.10492,-0.86914 1.14871,-0.86934 2.2665,-0.0105 0.62689,0.48176 1.2709,0.88057 1.43113,0.88625 0.16028,0.005 1.0998,0.36876 2.08792,0.80685 l 1.79661,0.79655 -2.08792,0.29373 -2.08794,0.29374 2.20392,0.0696 c 1.49378,0.0472 2.20197,-0.11715 2.19783,-0.5103 z m 11.60574,0.11592 c 0,-0.25519 -0.2088,-0.464 -0.46399,-0.464 -0.25519,0 -0.46398,0.20881 -0.46398,0.464 0,0.25519 0.20879,0.46398 0.46398,0.46398 0.25519,0 0.46399,-0.20879 0.46399,-0.46398 z m -28.41909,-0.33233 c -0.70179,-0.10627 -1.27597,-0.34074 -1.27597,-0.52096 0,-0.38049 2.53696,-1.73151 4.05988,-2.16203 0.65499,-0.18515 1.04396,-0.65601 1.04396,-1.26373 0,-0.90899 -0.0523,-0.92135 -0.84852,-0.20072 -0.9651,0.8734 -1.95186,1.06274 -1.10022,0.2111 0.65708,-0.65707 0.74067,-2.52271 0.12995,-2.90014 -0.52092,-0.32194 -2.35707,1.92183 -2.35707,2.88032 0,0.56092 -0.13048,0.58202 -0.69599,0.11259 -0.58147,-0.48259 -0.69597,-0.41558 -0.69597,0.40718 0,0.56602 0.29593,0.98477 0.69597,0.98477 0.91128,0 0.88324,0.45674 -0.0709,1.15441 -1.03898,0.75973 -0.39054,1.64532 1.14224,1.55999 l 1.24858,-0.0694 z m 3.0159,-0.43894 c -0.31899,-0.12872 -0.84098,-0.12872 -1.15997,0 -0.31898,0.12872 -0.058,0.23402 0.57999,0.23402 0.63797,0 0.89897,-0.10539 0.57998,-0.23402 z m 6.50462,0.004 c -0.31413,-0.12714 -0.94052,-0.13486 -1.39196,-0.0175 -0.45144,0.11767 -0.19442,0.22163 0.57115,0.23108 0.76559,0.009 1.13494,-0.0868 0.82081,-0.21389 z m 1.03514,-1.08746 c 0.15765,-0.25519 -0.051,-0.46398 -0.464,-0.46398 -0.41289,0 -0.6217,0.20879 -0.46398,0.46398 0.15766,0.25521 0.36652,0.464 0.46398,0.464 0.0975,0 0.30628,-0.20879 0.464,-0.464 z m 7.65575,0.0526 c 0,-0.40465 -2.84143,-1.02956 -3.19926,-0.70361 -0.22247,0.20267 1.8086,1.04442 2.61927,1.08554 0.31899,0.0158 0.57999,-0.15572 0.57999,-0.38193 z m -14.61882,-0.51132 c 0.16256,-0.26302 -0.0237,-0.34081 -0.43659,-0.18235 -0.80382,0.30845 -0.9509,0.64101 -0.28348,0.64101 0.24013,0 0.56417,-0.2064 0.72007,-0.45866 z m 19.59699,0.17834 c -0.15414,-0.15414 -0.55436,-0.17063 -0.8893,-0.0367 -0.37013,0.14818 -0.26019,0.25805 0.28033,0.28032 0.48911,0.0202 0.76315,-0.0896 0.60897,-0.2437 z m -6.12651,-2.79655 c 0.64438,-0.41632 1.84494,-0.91693 2.66792,-1.11246 l 1.49632,-0.35552 -1.33547,-0.0475 c -1.43624,-0.051 -6.32028,2.48961 -6.32028,3.28782 0,0.26581 0.52199,0.14608 1.15997,-0.26605 0.63797,-0.41214 1.68716,-1.08996 2.33154,-1.50629 z m 6.71616,1.26053 c 0,-0.40653 -5.56153,-0.90212 -6.50825,-0.57994 -0.25151,0.0856 -0.33928,0.34659 -0.19504,0.57998 0.34249,0.55415 6.70329,0.55412 6.70329,-4e-5 z m 26.18109,-1.4692 c -0.36516,-0.4035 -0.50687,-0.90186 -0.31492,-1.1075 0.19196,-0.20561 0.0358,-0.26908 -0.34697,-0.14099 -0.38279,0.12802 -1.11357,0.0407 -1.62395,-0.19408 -0.85956,-0.39541 -0.8681,-0.37845 -0.11591,0.22985 0.44658,0.3612 0.81197,0.9469 0.81197,1.30156 0,0.37344 0.47427,0.64483 1.12691,0.64483 0.998,0 1.05096,-0.0838 0.46296,-0.73364 z m -42.88456,-0.6516 c 0,-0.37339 -0.62638,-1.00279 -1.39195,-1.39867 -1.35666,-0.70157 -1.39196,-0.69206 -1.39196,0.37473 0,1.35794 0.12416,1.48267 1.59794,1.60464 0.77632,0.0642 1.18597,-0.13626 1.18597,-0.5807 z m 15.69539,-0.81871 c 0.79989,-2.64614 0.93211,-3.59588 0.50066,-3.59588 -0.2313,0 -0.4228,0.1566 -0.42557,0.34799 -0.004,0.19139 -0.30596,1.33977 -0.67379,2.55192 -0.36781,1.21216 -0.48614,2.20393 -0.26294,2.20393 0.22319,0 0.61092,-0.67857 0.86164,-1.50796 z m -20.22321,-0.78884 0.90465,1.11719 -0.3358,-2.31011 c -0.18468,-1.27055 -0.40839,-2.39204 -0.49713,-2.49221 -0.27767,-0.31346 -1.5757,0.9634 -1.5757,1.55001 0,0.30705 -0.52199,1.04867 -1.15996,1.64801 -0.63798,0.59936 -1.15385,1.41872 -1.14636,1.82083 0.009,0.48856 0.4933,0.2033 1.45963,-0.85992 l 1.44602,-1.59101 z m 7.42774,-0.61111 c 0.90009,-0.34459 1.06372,-1.05761 0.34471,-1.50198 -0.257,-0.15888 -0.59206,0.0365 -0.7446,0.43394 -0.15256,0.3975 -0.45628,0.61214 -0.67497,0.47697 -0.2187,-0.1352 -0.19682,-0.77393 0.0486,-1.41948 0.54526,-1.43415 0.58053,-2.96929 0.0682,-2.96929 -0.48585,0 -1.93869,3.0331 -1.95219,4.07562 -0.009,0.63191 -0.19755,0.55686 -0.91765,-0.36374 l -0.90734,-1.15996 -0.0105,1.27597 c -0.009,1.05445 0.19106,1.27595 1.14964,1.27595 0.88903,0 1.16358,0.24384 1.1754,1.04396 l 0.0158,1.04398 0.79654,-0.95054 c 0.4381,-0.5228 1.16193,-1.09042 1.60851,-1.2614 z m 28.97217,-2.11937 c 0.26412,-0.16975 0.33595,-0.71228 0.15959,-1.20572 -0.21232,-0.59413 -0.43208,-0.71682 -0.65064,-0.36319 -0.1871,0.30273 -0.97529,0.44283 -1.81997,0.32347 -1.23162,-0.17396 -1.28884,-0.148 -0.33,0.15011 1.01636,0.31594 1.18327,0.67418 1.34831,2.89364 l 0.18836,2.53307 0.31206,-2.01138 c 0.17168,-1.10627 0.52816,-2.15023 0.79228,-2.31993 z m -18.93026,2.76794 c 0.61062,-0.17098 1.27345,-0.75221 1.47298,-1.29154 0.34394,-0.9298 0.28049,-0.95539 -1.22419,-0.49359 -0.87282,0.26787 -1.93339,0.86988 -2.35684,1.33779 -0.72121,0.79693 -0.714,0.84782 0.11398,0.80448 0.48613,-0.0254 1.38347,-0.18615 1.99409,-0.35714 z m 5.62785,-1.25163 c 0.30042,-0.91027 0.40394,-1.79731 0.23003,-1.97122 -0.47614,-0.47613 -1.63224,1.33354 -1.63224,2.55497 0,1.61358 0.78486,1.28683 1.40221,-0.58375 z m 31.76998,-1.60736 0.24665,-1.60946 -0.66663,1.62395 c -0.80831,1.96908 -0.90518,2.67346 -0.28195,2.05024 0.25042,-0.25041 0.56628,-1.17954 0.70193,-2.06473 z m -56.38929,-0.73265 c 0.8371,-0.95342 1.35734,-1.9688 1.20803,-2.35788 -0.14415,-0.37584 -0.26222,-1.02764 -0.26222,-1.44846 0,-1.36276 -2.81336,1.9302 -3.23095,3.78175 -0.50661,2.24626 0.32661,2.25522 2.28514,0.0246 z m 55.23208,0.5642 c 0,-0.10031 -0.32404,-0.3067 -0.72009,-0.45867 -0.41291,-0.15853 -0.59915,-0.0807 -0.4366,0.18235 0.27248,0.44088 1.15669,0.65211 1.15669,0.27632 z m -50.83449,-3.33205 c -0.39365,-1.51217 -0.91377,-2.94775 -1.15579,-3.1902 -0.58438,-0.58533 -0.56294,-0.38952 0.28032,2.56052 1.00707,3.523 1.12879,3.84151 1.37432,3.596 0.11924,-0.11924 -0.10522,-1.45414 -0.49885,-2.96632 z m 47.4789,1.65846 c -0.5152,-0.82499 -1.28426,-1.26161 -1.28426,-0.72912 0,0.26105 1.39934,1.65709 1.66102,1.65709 0.11153,0 -0.058,-0.41759 -0.37676,-0.92797 z m -44.74614,-1.61157 c 0.63801,-1.14153 1.3094,-2.75559 1.49197,-3.58678 0.30119,-1.37133 0.26062,-1.45207 -0.43815,-0.87214 -0.60548,0.50251 -1.01969,0.52536 -1.93811,0.10697 -0.64243,-0.29272 -1.32595,-0.53221 -1.51894,-0.53221 -0.19299,0 -0.0477,1.56595 0.32286,3.4799 0.37059,1.91394 0.72924,3.47988 0.79705,3.47988 0.0679,0 0.64529,-0.934 1.28332,-2.07555 z m 5.31511,-0.38764 c -0.97163,-0.81694 -1.01396,-0.81076 -1.59261,0.23199 -1.01417,1.82758 -0.7621,2.17694 0.98171,1.36055 l 1.60905,-0.7533 z m 20.63133,2.15591 c -0.31901,-0.12872 -0.84098,-0.12872 -1.15997,0 -0.31898,0.12872 -0.058,0.23403 0.57999,0.23403 0.63797,0 0.89897,-0.1054 0.57998,-0.23403 z m 22.43382,-0.0479 c 0.65181,-0.43524 1.57763,-2.18406 1.57668,-2.97831 -3.8e-4,-0.33577 -0.36577,0.1203 -0.81197,1.01347 -0.60275,1.20654 -1.10939,1.62395 -1.97122,1.62395 -0.81995,0 -1.14106,-0.23801 -1.09552,-0.81198 0.0354,-0.44658 -0.12118,-0.81197 -0.34798,-0.81197 -0.63427,0 -0.48877,1.74781 0.16748,2.01264 0.87533,0.3532 1.91179,0.33325 2.48246,-0.0479 z m -52.24489,-0.48867 c 0,-0.78232 -1.46319,-5.27148 -1.65549,-5.07917 -0.34338,0.34338 0.83321,5.45894 1.25557,5.45894 0.21996,0 0.39992,-0.17098 0.39992,-0.37977 z m 15.06711,-0.64066 c 2.74529,-1.33377 2.72416,-1.99791 -0.0261,-0.81902 -1.16953,0.50131 -2.68327,0.91468 -3.3639,0.91857 -0.96941,0.005 -1.08671,0.10452 -0.5415,0.4569 1.01885,0.65842 1.60025,0.57614 3.93146,-0.55645 z m 11.49605,0.71313 c -0.31899,-0.12871 -0.84098,-0.12871 -1.15996,0 -0.31899,0.12872 -0.0581,0.23405 0.57998,0.23405 0.63797,0 0.89897,-0.1054 0.57998,-0.23405 z m -18.91432,-5.60852 c 0.20653,-1.27073 0.14731,-1.97194 -0.16642,-1.97194 -0.55152,0 -1.29067,2.47027 -1.66598,5.56782 l -0.25298,2.08795 0.88245,-1.85594 c 0.48534,-1.02078 1.02667,-2.74331 1.20293,-3.82789 z m 11.48681,4.28501 c -0.24912,-1.30318 -1.04023,-2.05339 -1.04023,-0.98644 0,0.97305 0.50058,2.15327 0.91328,2.15327 0.1925,0 0.24962,-0.52508 0.12697,-1.16683 z m 28.04932,-0.0307 c 1.83047,-1.39617 4.03077,-4.53423 3.7564,-5.35734 -0.10434,-0.31308 -0.67212,0.21128 -1.26171,1.16525 -0.60052,0.97167 -1.33199,1.63471 -1.66318,1.50762 -0.5851,-0.22455 -2.54592,1.49818 -2.54592,2.23676 0,0.21061 -0.36539,0.6603 -0.81198,0.9993 -0.76546,0.58108 -0.76132,0.61723 0.0722,0.63113 0.48631,0.009 1.59068,-0.52411 2.4542,-1.18274 z m -23.45829,-0.0959 c -0.33474,-0.11153 -0.82922,0.0177 -1.09884,0.28735 -0.34431,0.34431 -0.16309,0.40469 0.60862,0.20288 0.6274,-0.16414 0.83772,-0.3744 0.49022,-0.49023 z m 0.34215,-1.22702 c 1.94607,-0.8759 4.58227,-1.84386 5.85823,-2.15103 2.33866,-0.563 3.81531,-1.3603 2.51939,-1.3603 -2.50449,0 -12.49507,3.68944 -12.49507,4.61433 0,0.71007 0.22027,0.65104 4.11745,-1.103 z m -8.76666,-0.0915 c 1.81041,-0.67105 3.19515,-1.31659 3.07722,-1.43452 -0.11802,-0.11802 -1.44453,0.22231 -2.948,0.7561 -3.05104,1.08326 -4.39486,1.19846 -5.7182,0.49023 -1.15139,-0.61621 -1.14058,-1.5965 0.0305,-2.76758 1.27955,-1.27957 4.55434,-1.26179 6.20122,0.0337 0.6724,0.5289 1.22254,0.74954 1.22254,0.4903 0,-1.90672 -6.19328,-2.68243 -7.88774,-0.98797 -1.534,1.534 -1.13184,3.2961 0.94106,4.12335 1.58429,0.63225 1.41379,0.65586 5.08139,-0.70358 z m 36.4322,-0.17186 c -0.46474,-0.51352 -0.94936,-0.82927 -1.07695,-0.70167 -0.12767,0.12767 0.14818,0.65215 0.61297,1.16565 0.46471,0.51352 0.94933,0.82926 1.07693,0.70167 0.12766,-0.12767 -0.14819,-0.65215 -0.61295,-1.16565 z m -6.07014,-1.45397 c -0.55661,-0.90062 -1.58563,-0.36204 -1.58563,0.8299 0,1.19758 0.0256,1.20877 0.91703,0.40197 0.50437,-0.45644 0.80524,-1.01078 0.6686,-1.23187 z M 184.457,164.94173 c 0.009,-0.31898 -0.1858,-0.57998 -0.43299,-0.57998 -0.24718,0 -0.33733,0.29207 -0.20036,0.64904 0.13696,0.35697 0.0261,0.7869 -0.24656,0.95535 -0.27259,0.16853 -0.48821,0.65939 -0.47917,1.09091 0.0123,0.57143 0.19661,0.46943 0.67954,-0.37537 0.36471,-0.63797 0.67049,-1.42096 0.67954,-1.73995 z m 13.92888,2.31994 c -0.0175,-0.82487 -0.81039,-1.5981 -1.12224,-1.09351 -0.17449,0.28243 -0.18832,0.72231 -0.0307,0.9775 0.33449,0.54121 1.16325,0.6246 1.15286,0.11592 z m 2.32704,-0.81198 c 0,-0.38666 -0.41244,-0.69598 -0.92798,-0.69598 -0.51553,0 -0.92796,0.30932 -0.92796,0.69598 0,0.38665 0.41243,0.69597 0.92796,0.69597 0.51554,0 0.92798,-0.30932 0.92798,-0.69597 z m 17.50578,0.41565 c -0.15415,-0.15414 -0.55437,-0.17063 -0.88931,-0.0367 -0.37013,0.14818 -0.26019,0.25807 0.28033,0.28032 0.48911,0.0202 0.76316,-0.0894 0.60898,-0.24369 z m 21.93297,-0.18366 c 0,-0.25519 -0.2088,-0.46399 -0.464,-0.46399 -0.25519,0 -0.46397,0.2088 -0.46397,0.46399 0,0.25519 0.20878,0.46398 0.46397,0.46398 0.2552,0 0.464,-0.20879 0.464,-0.46398 z m -37.11882,-0.41435 c 0,-0.22788 -0.3132,-0.53453 -0.69599,-0.68141 -0.42394,-0.16274 -0.69597,-7.4e-4 -0.69597,0.41435 0,0.37477 0.31319,0.68141 0.69597,0.68141 0.38279,0 0.69599,-0.18646 0.69599,-0.41435 z m 5.25944,-0.0494 c -0.55238,-0.22273 -1.2246,-0.78369 -1.49384,-1.24656 -0.39218,-0.6743 -0.4923,-0.69862 -0.50361,-0.12241 -0.0198,1.00707 0.92528,1.83814 2.05062,1.80335 0.92237,-0.0286 0.92076,-0.0417 -0.0531,-0.43438 z m 5.22162,-0.96254 c 0.90828,-0.75381 0.82194,-1.13508 -0.3894,-1.71928 -0.98958,-0.47725 -0.9671,-0.50512 0.43172,-0.53487 1.10744,-0.0235 1.51269,0.19053 1.62396,0.85798 0.13871,0.83265 0.26671,0.84791 2.00421,0.23899 1.1775,-0.41267 3.83537,-0.65297 7.27091,-0.65741 l 5.41495,-0.007 0.31261,-1.42329 c 0.17203,-0.78283 0.60611,-1.53595 0.96483,-1.67359 0.87465,-0.33563 0.83171,-1.07899 -0.0624,-1.07899 -0.53993,0 -0.70116,-0.4819 -0.65976,-1.97194 0.0302,-1.08456 0.0444,-4.96928 0.0314,-8.63272 -0.02,-5.711 0.10715,-6.93087 0.89175,-8.55487 1.11535,-2.30857 1.11608,-2.18378 -0.0123,-2.18378 -0.74563,0 -0.92796,-0.30933 -0.92796,-1.5743 0,-0.97136 0.26655,-1.67661 0.69597,-1.84138 0.89362,-0.34293 0.90539,-1.22417 0.0158,-1.22417 -0.3738,0 -0.90314,0.41758 -1.17629,0.92796 -0.43333,0.80971 -0.9715,0.92798 -4.22269,0.92798 -2.04933,0 -4.15233,-0.22813 -4.67334,-0.50696 -0.68506,-0.36664 -1.08761,-0.36664 -1.45424,0 -0.74066,0.74063 -2.62735,0.61923 -2.9375,-0.18901 -0.34449,-0.89773 -1.28533,-0.88973 -2.03812,0.0175 -0.47847,0.57651 -1.6573,0.70051 -6.14675,0.64663 -4.2246,-0.0507 -5.65195,0.084 -5.96061,0.56266 -0.33736,0.52311 -0.4799,0.51414 -0.84462,-0.0531 -0.24132,-0.37541 -0.60359,-0.51771 -0.80505,-0.31627 -0.20144,0.20145 0.10645,0.72294 0.6844,1.15882 0.98554,0.74341 1.03544,1.03627 0.80455,4.72411 -0.13538,2.16239 -0.23779,4.88364 -0.22759,6.04727 0.014,1.5548 -0.23179,2.34224 -0.92583,2.97034 -0.59035,0.53425 -0.79137,1.04568 -0.53623,1.36421 0.68953,0.86083 1.44451,5.26767 1.44451,8.43162 0,2.74284 0.0968,3.04134 1.1113,3.42706 0.61122,0.23239 1.20732,0.697 1.32467,1.03249 0.14801,0.42326 0.50875,0.25493 1.17841,-0.55 0.82269,-0.98888 1.09985,-1.07791 1.87907,-0.60362 0.70688,0.43024 1.24426,0.4317 2.37101,0.007 1.01575,-0.38338 1.55607,-0.40111 1.78411,-0.0586 0.17991,0.27028 0.72741,0.63964 1.21666,0.82079 1.18789,0.4398 0.49092,1.07684 -1.82554,1.66856 l -1.84792,0.47203 1.78135,-0.20239 c 0.97972,-0.11136 2.07589,-0.44688 2.43592,-0.74567 z m -2.38096,-11.19366 c -2.01169,-6.13972 -4.52836,-12.01676 -5.41038,-12.63455 -1.55588,-1.08979 -0.7411,-2.1206 1.67619,-2.1206 2.23034,0 2.99701,0.57911 2.1376,1.61464 -0.41717,0.50268 -0.10802,1.81065 1.39378,5.89547 1.06145,2.88722 1.98492,5.3059 2.05217,5.37483 0.0673,0.0689 0.56543,-1.03274 1.1071,-2.44819 l 0.98484,-2.57354 -0.97678,-2.65565 c -0.53723,-1.4606 -1.26301,-2.98527 -1.61284,-3.38815 -0.34984,-0.40288 -0.63607,-0.87267 -0.63607,-1.04396 0,-0.17133 1.87914,-0.31147 4.17587,-0.31147 3.94065,0 5.04659,0.39443 3.51306,1.25291 -0.36453,0.20407 -1.10147,1.39448 -1.63761,2.64534 l -0.97483,2.2743 1.22438,3.20414 c 0.6734,1.76227 1.28272,3.13995 1.35404,3.06153 0.31781,-0.34947 3.94473,-9.99641 3.94473,-10.49229 0,-0.30467 -0.2088,-0.55397 -0.46399,-0.55397 -0.25519,0 -0.46398,-0.31319 -0.46398,-0.69597 0,-0.47945 0.48116,-0.69599 1.54661,-0.69599 0.85064,0 1.66391,0.11732 1.80727,0.26065 0.14327,0.14327 -0.21421,1.13513 -0.79456,2.20394 -0.58037,1.0688 -2.15912,4.71562 -3.50836,8.10403 -1.34922,3.38843 -2.65018,6.09508 -2.89104,6.01479 -0.24085,-0.0803 -0.9519,-1.77626 -1.58014,-3.76884 -0.62823,-1.99258 -1.24035,-3.52474 -1.3603,-3.40479 -0.11995,0.11995 -0.80564,1.74786 -1.5238,3.61761 -0.71817,1.86975 -1.5243,3.47239 -1.79142,3.56144 -0.26711,0.0891 -0.8483,-0.94491 -1.29154,-2.29766 z m 6.0313,-11.85753 c 0.22385,-0.74088 0.0978,-1.13001 -0.43186,-1.33328 -1.06911,-0.41025 -1.30576,0.0181 -0.93716,1.69623 0.33798,1.53883 0.83412,1.40728 1.36902,-0.36295 z m -29.77435,22.61434 c -0.24621,-0.9415 -0.95924,-1.64068 -1.31271,-1.2872 -0.18971,0.1897 1.08624,2.2224 1.39503,2.2224 0.0893,0 0.0523,-0.42084 -0.0822,-0.9352 z m 47.65793,0.51918 c -0.8754,-0.48779 -4.94556,-1.12698 -4.52998,-0.7114 0.36714,0.36714 2.99566,1.01896 4.29799,1.06581 0.73727,0.0265 0.78495,-0.0463 0.23199,-0.35441 z m 6.24599,-1.61831 c 0.91004,-2.5752 -1.79496,-4.02995 -3.96213,-2.13084 l -1.1239,0.9849 1.51908,-0.8364 c 1.15762,-0.63738 1.70963,-0.7164 2.31992,-0.33207 1.14462,0.7208 1.24931,1.94551 0.26153,3.05909 -0.64439,0.72647 -0.68265,0.90709 -0.1566,0.73955 0.38279,-0.12188 0.89675,-0.78984 1.14215,-1.48423 z m -49.26123,0.14222 c 0.56351,-0.53029 1.65095,-1.22871 2.41652,-1.55207 1.66184,-0.70191 2.7471,-1.89642 2.33249,-2.56728 -0.43612,-0.70567 -1.17252,-0.59236 -1.17252,0.1804 0,0.36558 -0.46979,0.8271 -1.04397,1.02558 -1.59187,0.55026 -7.76019,0.28886 -8.54456,-0.36211 -0.55214,-0.45823 -0.77015,-0.44265 -1.09194,0.078 -0.59905,0.96927 0.43408,1.95198 1.71432,1.63066 0.72598,-0.1822 1.07841,-0.0679 1.07841,0.34999 0,0.47238 2.13213,1.92791 3.1513,2.15127 0.0745,0.0158 0.59645,-0.4042 1.15995,-0.93448 z m 43.52274,-1.03387 c -0.36735,-0.36733 -0.5075,-0.24694 -0.5075,0.43594 0,1.22666 0.64886,1.87777 0.85548,0.85845 0.0877,-0.43278 -0.0689,-1.01526 -0.34798,-1.29439 z m 4.31357,0.52391 c -0.29516,-0.47756 -2.37151,-0.50398 -2.65967,-0.0339 -0.11732,0.19139 0.48622,0.36322 1.34119,0.38182 0.85494,0.0186 1.44826,-0.13801 1.31848,-0.34799 z m -56.53597,-0.18501 c 0.76568,-0.20571 0.91272,-0.55177 0.76654,-1.80393 -0.14749,-1.26295 0.004,-1.60781 0.81479,-1.8654 0.5622,-0.17843 1.28897,-0.0726 1.66937,0.24311 1.12775,0.93595 0.75071,-0.24837 -0.43314,-1.36053 -0.89986,-0.84538 -1.41901,-0.98129 -2.77595,-0.72671 -1.42569,0.26745 -1.73754,0.55953 -2.13844,2.00292 -0.95788,3.44853 -0.50358,4.20914 2.09683,3.51054 z m 50.652,-0.0224 c -0.15923,-0.15923 0.17133,-0.68608 0.73463,-1.17066 0.85066,-0.73176 0.72436,-0.71128 -0.74524,0.12082 -1.32118,0.74811 -1.90306,0.86836 -2.29672,0.4747 -0.66249,-0.66249 -0.0493,-1.30424 1.51429,-1.58474 l 1.15997,-0.20808 -1.21915,-0.0631 c -0.67054,-0.0347 -1.47687,0.24736 -1.79186,0.6269 -0.90528,1.09078 -0.21075,2.09383 1.44983,2.09383 0.81611,0 1.35353,-0.13029 1.19425,-0.28958 z m -34.81576,-1.19455 c 1.51208,-0.54677 1.53614,-0.59964 1.42475,-3.1319 -0.10698,-2.43236 -0.18433,-2.58391 -1.38912,-2.72255 -1.40453,-0.16169 -1.65875,0.41133 -0.57982,1.30678 0.99307,0.82418 0.86016,1.50659 -0.22628,1.16177 -0.81313,-0.25807 -0.88995,-0.13117 -0.64923,1.07242 0.1573,0.78608 0.0565,1.49904 -0.23771,1.6808 -0.55981,0.34598 -0.69854,1.18885 -0.19567,1.18885 0.17326,0 1.00715,-0.25028 1.85308,-0.55617 z m 39.12655,-4.79566 c 0,-1.04611 -0.36993,-0.81576 -1.16781,0.72714 -0.40021,0.77393 -0.93769,1.27732 -1.1944,1.11866 -0.29847,-0.18446 -0.24953,-0.55171 0.13573,-1.0186 0.47687,-0.57786 0.48157,-0.77083 0.0226,-0.92533 -0.31899,-0.10732 -0.57998,-0.7121 -0.57998,-1.34387 0,-1.55038 -0.73718,-1.00389 -1.10122,0.81634 -0.2195,1.09748 -0.0891,1.61479 0.51932,2.05966 0.95116,0.69549 0.59637,1.28838 -0.51566,0.86167 -0.4215,-0.16169 -0.88562,-0.76915 -1.03135,-1.34977 -0.1915,-0.76297 -0.51201,-0.99109 -1.15595,-0.82268 -1.11213,0.29082 -1.15188,0.98561 -0.0791,1.38145 0.4466,0.16484 0.91639,0.42498 1.04398,0.57826 0.12767,0.15327 0.74367,0.49821 1.36907,0.76655 0.97869,0.41991 1.31802,0.30279 2.43594,-0.84082 0.71433,-0.73077 1.2988,-1.63467 1.2988,-2.00866 z m -47.32909,1.29195 c -0.001,-0.95696 -0.22564,-2.54324 -0.49826,-3.52504 -0.41644,-1.49977 -0.6532,-1.74389 -1.48122,-1.52737 -0.54205,0.1417 -1.24824,0.0396 -1.56933,-0.22678 -0.32109,-0.26648 -0.84438,-0.32348 -1.16286,-0.12661 -0.31848,0.19683 -1.215,0.37138 -1.99227,0.38792 -1.25592,0.0267 -1.42972,0.20253 -1.5617,1.5796 -0.13135,1.37138 -0.0407,1.51534 0.78879,1.25205 1.24605,-0.39549 3.45803,0.79633 4.69056,2.52724 0.54787,0.76943 1.39951,1.39896 1.89251,1.39896 0.72694,0 0.89589,-0.32888 0.89378,-1.73995 z m 3.41509,0.5127 c 0.80218,-0.675 1.80422,-1.79575 2.22676,-2.49055 0.42254,-0.69481 1.31009,-1.39927 1.97236,-1.56549 0.91112,-0.22868 1.2041,-0.59666 1.2041,-1.51237 0,-1.17099 -0.0744,-1.20301 -2.29726,-0.98942 -1.66014,0.15958 -2.36384,0.0472 -2.53734,-0.40495 -0.38044,-0.99137 -1.57164,-0.72971 -2.3944,0.52597 -0.60783,0.92768 -0.69098,1.78498 -0.42759,4.40786 0.17986,1.79091 0.43228,3.2562 0.56094,3.2562 0.12872,0 0.89024,-0.55226 1.69243,-1.22725 z m 44.82723,-0.5695 c -0.0123,-0.63442 -0.12363,-0.61116 -0.69599,0.14555 -0.88666,1.17228 -0.87728,1.92761 0.014,1.18729 0.38279,-0.31769 0.68932,-0.91744 0.68122,-1.33277 z m 1.80427,-2.14713 c 0.24521,-1.53114 0.28697,-2.95138 0.0928,-3.15607 -0.1942,-0.20468 -0.48152,0.85655 -0.63849,2.35829 -0.15695,1.50175 -0.42736,3.13078 -0.60088,3.62006 -0.22328,0.62953 -0.16695,0.75396 0.19262,0.42563 0.27948,-0.25521 0.70875,-1.71675 0.95398,-3.24791 z m -8.50178,-1.97194 c -0.17585,-0.95696 -0.53989,-1.94873 -0.80897,-2.20393 -0.34056,-0.32298 -0.40009,0.0123 -0.19588,1.10198 0.16133,0.86127 0.29335,1.85304 0.29335,2.20393 0,0.35088 0.23202,0.63797 0.51562,0.63797 0.34335,0 0.40879,-0.58133 0.19588,-1.73995 z m 5.99645,0.84405 c 0.14678,-0.23757 0.0766,-0.54956 -0.1559,-0.69332 -0.2326,-0.1438 -0.54264,0.0507 -0.68897,0.43192 -0.28846,0.75172 0.40865,0.96736 0.84496,0.2614 z m 1.63668,-3.93728 c 0.009,-3.57274 -0.25414,-3.19073 -0.61314,0.8893 -0.18917,2.14971 -0.13504,3.01257 0.1601,2.55193 0.24525,-0.38279 0.44911,-1.93135 0.45302,-3.44123 z m -3.39749,1.93327 c -0.12872,-0.31899 -0.23403,-0.0581 -0.23403,0.57998 0,0.63799 0.1054,0.89897 0.23403,0.57998 0.12871,-0.31898 0.12871,-0.84096 0,-1.15996 z m -0.66239,-0.0626 c 0.57691,-0.87572 0.42347,-10.84115 -0.1545,-10.02913 -0.37352,0.52487 -0.43557,0.26564 -0.25236,-1.05436 0.14379,-1.03612 0.0649,-1.64027 -0.19357,-1.48058 -0.24008,0.14835 -0.4365,1.33622 -0.4365,2.63965 0,3.4688 -0.48403,2.40834 -0.71261,-1.56132 -0.12679,-2.2023 -0.0442,-3.17283 0.23274,-2.73271 0.53221,0.84596 1.15921,0.31594 0.78374,-0.66252 -0.41575,-1.08344 -1.1784,-0.85852 -1.50529,0.44399 -0.16011,0.63797 -0.59482,1.15994 -0.96598,1.15994 -0.37956,0 -0.62181,0.35529 -0.55363,0.81198 0.0666,0.4466 -0.23341,1.4802 -0.66682,2.29689 -0.89148,1.67988 -0.9879,2.17329 -0.34731,1.77737 0.73534,-0.45446 1.32795,1.2347 1.92136,5.47663 0.52836,3.77688 0.62772,4.01823 1.53732,3.73472 0.53486,-0.16677 1.12586,-0.53595 1.31334,-0.82055 z m -3.78414,-10.29979 c 0.0223,-0.54052 0.13223,-0.65046 0.28032,-0.28033 0.13398,0.33494 0.1175,0.73512 -0.0367,0.88931 -0.15415,0.15414 -0.26384,-0.11995 -0.24369,-0.60898 z m 0.61471,8.50639 c -0.16976,-1.33975 -0.50009,-2.74912 -0.73411,-3.1319 -0.32985,-0.53946 -0.37714,-0.48731 -0.21039,0.232 0.11837,0.51039 0.34989,1.91974 0.51457,3.13189 0.16467,1.21217 0.39822,2.20393 0.51898,2.20393 0.12082,0 0.0807,-1.09615 -0.0891,-2.43592 z m 5.55565,-0.94751 c -0.33665,-1.01759 -0.34116,-1.01668 -0.67479,0.13556 -0.28879,0.99737 -0.34988,0.89981 -0.43594,-0.69597 -0.0551,-1.02078 -0.20028,-1.46605 -0.32275,-0.9895 -0.12241,0.47656 -0.078,1.83132 0.0989,3.01061 l 0.32153,2.14415 0.67602,-1.29021 c 0.41056,-0.78357 0.54292,-1.69248 0.33708,-2.31462 z m 3.06561,-1.14041 c -0.005,-2.19337 -0.14186,-2.92335 -0.45689,-2.43594 -0.5945,0.91995 -0.5945,5.56782 0,5.56782 0.2642,0 0.46093,-1.34855 0.45689,-3.13188 z m -59.31456,-1.24186 c -0.25552,-0.52908 -0.69069,-1.58833 -0.96705,-2.3539 l -0.50247,-1.39196 0.26029,1.62395 c 0.1431,0.89316 0.39107,2.6679 0.55088,3.94387 l 0.29058,2.31992 0.41617,-1.58996 c 0.261,-0.99714 0.24295,-1.94862 -0.0484,-2.55192 z m 4.10742,0.63431 c 0,-1.12125 0.86041,-1.6162 1.21288,-0.69771 0.2888,0.7526 1.57103,1.0239 1.57103,0.33241 0,-0.21616 0.4375,-0.89473 0.97222,-1.50796 0.96633,-1.10822 0.98382,-1.41672 0.32304,-5.70487 -0.22125,-1.43587 0.96209,-1.40522 1.27725,0.0331 0.67863,3.09697 1.2322,3.95128 2.41397,3.72537 0.6208,-0.11872 1.69282,0.0656 2.38227,0.40957 0.82209,0.41012 1.72599,0.49933 2.62621,0.25922 1.34353,-0.35836 1.37506,-0.43641 1.4851,-3.6768 0.14977,-4.41125 -0.32982,-5.51272 -2.89446,-6.64717 -1.14939,-0.50843 -2.08981,-1.1458 -2.08981,-1.41635 0,-0.30313 0.3116,-0.34689 0.81197,-0.11398 1.16672,0.54303 4.20245,0.46036 4.79334,-0.13048 0.70123,-0.70124 -0.42275,-2.42364 -1.81166,-2.77616 -0.59299,-0.15046 -1.55906,-0.0545 -2.14681,0.21326 -1.47965,0.67418 -4.43237,3.3249 -4.42322,3.9708 0.004,0.29256 1.47229,2.49147 3.26254,4.88648 3.30522,4.42176 4.07082,6.65578 0.97376,2.84136 -0.93055,-1.1461 -2.54052,-2.99901 -3.5777,-4.11761 -1.65945,-1.78974 -1.99356,-1.96557 -2.78391,-1.4651 -1.13939,0.7215 -3.45005,4.43896 -3.45005,5.55057 0,0.46345 0.3132,1.5922 0.69599,2.50834 0.38278,0.91614 0.69597,2.01117 0.69597,2.43341 0,0.65193 -0.11224,0.67456 -0.74432,0.14994 -0.40937,-0.33976 -0.93911,-1.13011 -1.1772,-1.75633 -0.58491,-1.53844 -1.13686,-0.89894 -2.52511,2.92569 l -1.1237,3.09575 1.6252,-1.2396 c 0.89386,-0.68179 1.62521,-1.62009 1.62521,-2.08512 z m 2.55191,2.92048 c 0.25519,-0.18748 0.51881,-0.67782 0.5858,-1.08962 0.0926,-0.56943 -0.15905,-0.69506 -1.05082,-0.52459 -1.30815,0.25007 -1.8226,0.80683 -1.39092,1.50533 0.33551,0.54286 1.19651,0.59336 1.85594,0.1089 z m 2.46571,-1.00249 c -0.43505,-0.69663 -0.43426,-1.18239 0.004,-2.20392 0.51853,-1.20972 0.50764,-1.24118 -0.14187,-0.40967 -0.84675,1.08399 -0.90201,2.19516 -0.14678,2.95042 0.8119,0.81188 0.92147,0.68237 0.28498,-0.33683 z m 40.16599,-0.29045 c 0.15853,-0.41292 0.0807,-0.59917 -0.18236,-0.43661 -0.25226,0.1559 -0.45867,0.47994 -0.45867,0.72008 0,0.66741 0.33258,0.52035 0.64103,-0.28347 z m -35.53272,-0.3007 c 0.30622,-0.30622 0.55043,-0.88042 0.54266,-1.27595 -0.0105,-0.53329 -0.15011,-0.47931 -0.54031,0.20879 -0.28942,0.51038 -0.75286,1.08136 -1.02986,1.26885 -0.33686,0.22801 -0.34232,0.34324 -0.0158,0.34799 0.26796,0.004 0.73774,-0.24344 1.04397,-0.54968 z m 4.00354,-0.17238 c 0.85079,-0.85082 0.91036,-1.55108 0.21426,-2.51878 -0.41707,-0.57979 -0.4549,-0.5548 -0.22656,0.14959 0.40943,1.26309 -0.48518,2.54764 -1.92632,2.76593 l -1.27615,0.19331 1.24283,0.0694 c 0.68353,0.0382 1.57091,-0.25859 1.97194,-0.6596 z m -6.78359,-0.23366 c -0.0914,-0.27432 -0.3646,-0.49879 -0.60705,-0.49879 -0.24242,0 -0.5156,0.22447 -0.60704,0.49879 -0.0914,0.27432 0.18173,0.49879 0.60704,0.49879 0.42533,0 0.6985,-0.22447 0.60705,-0.49879 z m 0.68341,-2.21934 c -0.93717,-1.64634 -1.84554,-2.01729 -1.01322,-0.41377 0.71785,1.38303 1.43636,2.26895 1.65931,2.04599 0.0993,-0.0993 -0.19155,-0.8337 -0.64609,-1.63222 z m 4.52568,0.18587 c -0.92743,-1.11748 -1.44526,-0.84047 -0.85413,0.45691 0.35064,0.76959 0.69127,1.01552 0.99116,0.71564 0.29988,-0.29989 0.25279,-0.70284 -0.13696,-1.17255 z m 41.13423,-1.52762 c -0.11679,-0.44658 -0.21221,-0.0812 -0.21221,0.81197 0,0.89319 0.0956,1.25858 0.21221,0.81197 0.11662,-0.44658 0.11662,-1.17736 0,-1.62394 z m -55.56671,-1.39196 c 0.0363,-0.64437 -1.63048,-0.80338 -2.00859,-0.1916 -0.13205,0.21359 0.10136,0.87577 0.51863,1.4715 0.72239,1.03134 0.77535,1.04051 1.108,0.1916 0.19215,-0.49033 0.36402,-1.15251 0.38196,-1.4715 z m 55.20715,-0.57998 c 0.0226,-0.61863 -0.0244,-0.61863 -0.42426,0 -0.24739,0.38279 -0.43831,1.11357 -0.42428,1.62396 l 0.0254,0.92796 0.39876,-0.92796 c 0.21933,-0.51039 0.41025,-1.24117 0.42428,-1.62396 z m -52.8546,-0.94078 c 0,-0.23213 -0.31199,-0.30233 -0.69332,-0.15607 -0.38131,0.14625 -0.57568,0.45637 -0.43192,0.68899 0.3007,0.48653 1.12524,0.0959 1.12524,-0.53299 z m -2.72216,-0.64322 c 1.11938,-0.47067 2.16727,-1.61784 3.7085,-4.05988 l 2.14825,-3.40382 -4.23521,-4.09311 -4.23521,-4.09312 2.91244,2.00517 c 1.60183,1.10285 3.86954,2.58689 5.03932,3.29784 l 2.12691,1.29266 2.53318,-1.95433 c 1.99519,-1.53928 2.47828,-2.15868 2.27475,-2.91661 -0.14222,-0.52925 -0.26125,-1.22325 -0.26473,-1.54224 -0.0105,-0.91197 -1.62987,-0.67787 -2.58087,0.37296 -0.47433,0.52413 -0.87207,1.41149 -0.88389,1.97194 -0.0281,1.33086 -0.94944,1.33174 -0.94944,8.8e-4 0,-0.55994 -0.20879,-1.2133 -0.46398,-1.4519 -1.16888,-1.09289 -7.7177,-2.24108 -9.30596,-1.63161 -0.82034,0.3148 -0.9217,3.89603 -0.13258,4.68511 0.40683,0.40683 0.40332,0.69832 -0.014,1.20172 -0.93259,1.12372 1.03164,3.88696 3.23155,4.54606 0.99749,0.29888 1.81362,0.68608 1.81362,0.8605 0,0.17431 -0.82641,0.56469 -1.83647,0.86732 -2.05752,0.61644 -2.3125,0.89999 -2.81572,3.13127 -0.39864,1.76748 -0.25895,1.83358 1.93004,0.91319 z m 53.14952,-2.21487 c -0.14818,-0.37014 -0.25807,-0.26019 -0.28032,0.28032 -0.0202,0.48911 0.0894,0.76315 0.24368,0.60899 0.15415,-0.15414 0.17063,-0.55438 0.0367,-0.88931 z m -2.86888,-3.62489 c 0.15766,-0.25519 -0.051,-0.46398 -0.46398,-0.46398 -0.41291,0 -0.6217,0.20879 -0.46398,0.46398 0.15766,0.25519 0.3665,0.46398 0.46398,0.46398 0.0975,0 0.30626,-0.20879 0.46398,-0.46398 z m -41.99065,-1.56982 c 0,-0.35303 -0.4176,-0.75107 -0.92798,-0.88454 -1.02976,-0.26929 -1.04609,-0.24927 -0.64634,0.79247 0.34659,0.90318 1.57432,0.97497 1.57432,0.0921 z m 23.31276,-1.91339 c 1.72116,-0.68932 3.01472,-1.43888 2.87455,-1.66566 -0.14011,-0.2268 -1.48163,0.22613 -2.98105,1.00648 -2.93799,1.52906 -7.52489,2.33232 -8.09069,1.41684 -0.20195,-0.32677 0.0782,-0.53605 0.74853,-0.55897 0.68983,-0.0237 0.82349,-0.12784 0.37537,-0.29254 -0.38279,-0.14082 -1.06264,-0.57537 -1.5108,-0.96582 -0.99094,-0.86338 -1.63745,-0.39905 -0.81843,0.5878 0.69137,0.83305 -0.014,0.96163 -0.82586,0.15046 -0.74928,-0.74928 -0.73055,-2.82701 0.0231,-2.57296 0.31898,0.1075 0.94993,-0.40964 1.40211,-1.14922 1.36188,-2.22751 3.49383,-2.80779 9.36709,-2.54955 2.81725,0.12381 5.64426,0.38222 6.28226,0.57409 0.87072,0.26187 1.0353,0.21426 0.66007,-0.19096 -0.27496,-0.29691 -2.44141,-0.76937 -4.81435,-1.04996 -7.84327,-0.92736 -16.19977,0.62132 -20.98976,3.88999 -2.99193,2.04168 -2.50033,2.12323 0.80411,0.13345 3.11078,-1.87322 4.57588,-2.19265 3.22859,-0.70391 -1.13097,1.2497 -0.62744,1.16837 1.43609,-0.23199 2.19639,-1.49051 2.61114,-1.46359 1.78714,0.11592 -1.27351,2.44133 -0.62367,4.03182 2.12214,5.19386 1.7346,0.73409 5.4205,0.26411 8.91968,-1.13731 z m -11.94513,0.6993 c 0.15765,-0.25519 0.0656,-0.46398 -0.20462,-0.46398 -0.27025,0 -0.49137,0.20879 -0.49137,0.46398 0,0.25519 0.0921,0.46398 0.20462,0.46398 0.11258,0 0.33365,-0.20879 0.49137,-0.46398 z m 15.5435,-0.18234 c 0,-0.3555 -0.31318,-0.76652 -0.69597,-0.91342 -0.47339,-0.18166 -0.69598,0.0251 -0.69598,0.64634 0,0.50259 0.31302,0.9134 0.69598,0.9134 0.38279,0 0.69597,-0.29084 0.69597,-0.64632 z m 10.45458,-0.026 c 2.10759,-0.88061 2.04791,-1.3018 -0.13082,-0.92394 l -1.73993,0.30173 1.27595,-1.22746 c 1.31687,-1.2668 1.79561,-4.06186 0.80103,-4.67655 -0.31041,-0.19185 -0.37486,0.33228 -0.18604,1.51308 0.2557,1.59908 0.148,1.89899 -0.93817,2.61062 -0.70668,0.46303 -1.61165,0.68195 -2.13389,0.5162 -1.01548,-0.3223 -1.21678,-1.41484 -0.32684,-1.77394 0.34647,-0.13976 0.25307,-0.24877 -0.23199,-0.27065 -0.59531,-0.0268 -0.81197,0.3229 -0.81197,1.31074 v 1.34738 l -2.31993,-0.88151 c -1.27596,-0.48483 -2.31994,-0.70747 -2.31994,-0.49477 0,0.21272 1.14838,0.77708 2.55193,1.25417 2.91308,0.99018 3.40678,1.79959 0.81197,1.33118 -3.29813,-0.59537 -4.60346,-1.99781 -4.11812,-4.4245 0.33146,-1.65734 -0.043,-1.73977 -0.64997,-0.1431 -0.70363,1.85068 -0.0719,3.37938 1.80673,4.37205 2.05786,1.08736 6.36923,1.21645 8.66009,0.25927 z m 4.85693,-0.48765 c -0.69646,-0.83919 0.0328,-0.93625 0.87148,-0.11591 0.32617,0.31898 0.21135,-0.0975 -0.25519,-0.92554 -0.54761,-0.97189 -0.90145,-1.25968 -0.99828,-0.81198 -0.18852,0.87151 -0.59351,0.87439 -1.73325,0.0123 -1.80093,-1.36216 -1.77937,-0.63345 0.0273,0.92373 1.89217,1.63086 3.13222,2.17573 2.08793,0.91744 z m -20.77273,-0.99772 c 2.21973,-0.8579 3.59568,-1.86638 1.80724,-1.32461 -0.82462,0.24979 -1.011,0.18646 -0.74028,-0.25155 0.23691,-0.38333 0.17431,-0.4695 -0.18147,-0.24963 -0.29879,0.18466 -0.42691,0.52399 -0.28471,0.75407 0.31071,0.50272 -1.74049,1.07963 -3.87055,1.08861 -1.89806,0.009 -2.65216,-0.99251 -1.61329,-2.14045 0.40943,-0.4524 1.18184,-0.85101 1.71647,-0.88574 0.87147,-0.0566 0.86008,-0.0845 -0.11013,-0.26929 -1.15065,-0.21912 -2.86165,0.9779 -2.86165,2.00201 0,0.82928 1.84708,2.04233 3.10976,2.04233 0.57603,0 1.93893,-0.34459 3.02867,-0.76575 z m 23.55664,-0.8226 c 0,-1.03738 -0.42238,-2.09032 -1.21769,-3.03549 -1.47566,-1.75373 -1.23646,-2.33655 0.29145,-0.71015 1.45014,1.54361 1.88815,1.46156 1.24821,-0.23383 -0.43743,-1.15888 -0.78153,-1.39196 -2.05501,-1.39196 -1.43427,0 -1.52414,0.094 -1.44235,1.50796 0.048,0.82937 0.44488,1.92554 0.88201,2.43592 0.43713,0.51038 0.93724,1.39776 1.11136,1.97194 0.47797,1.57614 1.18202,1.25189 1.18202,-0.54439 z m -34.52588,-1.07721 c -0.49902,-0.49902 -0.76392,0.19986 -0.41363,1.09121 0.3286,0.83612 0.35341,0.83757 0.51592,0.0302 0.0938,-0.46656 0.0479,-0.97115 -0.10224,-1.1213 z m 8.91011,0.51419 c -0.42887,-0.42887 -1.09083,-0.63226 -1.52079,-0.46726 -1.09307,0.41944 -0.40329,1.22667 1.0482,1.22667 1.14087,0 1.17582,-0.0561 0.47259,-0.75941 z m 1.70107,-1.15783 c -0.38832,-1.2235 0.55479,-2.26022 2.04823,-2.2515 0.99368,0.005 1.09043,0.0996 0.52316,0.50775 -0.5904,0.42469 -0.57467,0.46173 0.10382,0.24416 0.47516,-0.1524 0.98725,0.0652 1.26185,0.53621 0.43289,0.74251 0.46303,0.74128 0.47625,-0.0193 0.007,-0.44658 0.22291,-0.81197 0.4781,-0.81197 0.25519,0 0.46398,-0.23436 0.46398,-0.5208 0,-0.37444 -0.18399,-0.36811 -0.65467,0.0224 -0.48962,0.40635 -0.73739,0.40949 -0.98278,0.0123 -0.20014,-0.32383 -0.9853,-0.4311 -2.01324,-0.27502 -0.92683,0.14064 -2.68004,0.32786 -3.89602,0.41586 -1.41966,0.10276 -2.49896,0.4746 -3.0159,1.03907 -0.67385,0.73581 -0.67985,0.78533 -0.0368,0.30394 1.02963,-0.77076 4.76426,-1.22769 4.33317,-0.53016 -0.45174,0.73093 0.16835,2.87564 0.73084,2.52796 0.25811,-0.1594 0.33912,-0.70004 0.18007,-1.20119 z m 10.92312,1.02723 c 0,-0.23432 0.13679,-0.7823 0.30379,-1.21771 0.28051,-0.73099 0.20728,-0.72843 -0.95565,0.0335 -0.94404,0.61855 -1.10727,0.92174 -0.65178,1.2106 0.80252,0.50896 1.30364,0.49879 1.30364,-0.0265 z m 3.94388,-0.0379 c 0.15765,-0.25519 0.078,-0.46399 -0.17722,-0.46399 -0.25521,0 -0.59303,0.2088 -0.75076,0.46399 -0.15765,0.2552 -0.078,0.46398 0.17723,0.46398 0.25521,0 0.59303,-0.20878 0.75075,-0.46398 z m -10.18676,-0.43013 c -0.32971,-0.53348 -3.47829,-1.60301 -3.79289,-1.2884 -0.17186,0.17186 2.50433,1.3214 3.91536,1.6819 0.0789,0.0202 0.0237,-0.15695 -0.1224,-0.3935 z m 10.88273,-0.91644 c 0,-0.46441 -2.81132,-1.5646 -3.14511,-1.23079 -0.158,0.15783 1.85302,1.22778 3.02912,1.61154 0.0638,0.0209 0.11592,-0.15046 0.11592,-0.38075 z m 3.24791,-0.48199 c 0,-0.49533 -0.20881,-1.02963 -0.464,-1.18734 -0.26315,-0.16273 -0.46398,0.22717 -0.46398,0.90059 0,0.65304 0.20879,1.18734 0.46398,1.18734 0.25519,0 0.464,-0.40527 0.464,-0.90059 z m 7.15359,-1.01713 c -0.11486,-0.18595 0.004,-0.46924 0.26259,-0.62952 0.68759,-0.42494 0.57656,-1.16465 -0.17484,-1.16465 -0.83067,0 -1.31376,1.26084 -0.93741,2.4466 0.22475,0.70812 0.38261,0.7793 0.67587,0.30478 0.21046,-0.34052 0.28864,-0.77127 0.17379,-0.95721 z m -10.63349,0.0617 c -0.15765,-0.25519 -0.49554,-0.464 -0.75074,-0.464 -0.25519,0 -0.33494,0.20881 -0.17722,0.464 0.15765,0.25519 0.49555,0.46398 0.75074,0.46398 0.25519,0 0.33494,-0.20879 0.17722,-0.46398 z m -29.46306,-0.69599 c 0,-0.38278 -0.3132,-0.69596 -0.69598,-0.69596 -0.38279,0 -0.69597,0.31318 -0.69597,0.69596 0,0.38279 0.31318,0.69599 0.69597,0.69599 0.38278,0 0.69598,-0.3132 0.69598,-0.69599 z m 26.44716,-1.15996 c 0,-0.25519 -0.67857,-0.44317 -1.50796,-0.41774 -1.42873,0.0438 -1.447,0.0658 -0.34798,0.41774 1.63731,0.52436 1.85594,0.52436 1.85594,0 z m 14.42017,15.96883 c 0.0223,-0.54051 0.13222,-0.65046 0.28032,-0.28032 0.13398,0.33493 0.11749,0.73513 -0.0366,0.88931 -0.15415,0.15414 -0.26386,-0.11995 -0.24371,-0.60899 z"
       id="path4504" />
  </g>
</svg>
