<?xml version="1.0" encoding="UTF-8" standalone="no"?>
<!-- Created with Inkscape (http://www.inkscape.org/) -->

<svg
   width="36.425858mm"
   height="35.973541mm"
   viewBox="0 0 36.42587 35.973537"
   version="1.1"
   id="svg5"
   inkscape:version="1.1 (c4e8f9ed74, 2021-05-24)"
   sodipodi:docname="ornatee2.svg"
   xmlns:inkscape="http://www.inkscape.org/namespaces/inkscape"
   xmlns:sodipodi="http://sodipodi.sourceforge.net/DTD/sodipodi-0.dtd"
   xmlns="http://www.w3.org/2000/svg"
   xmlns:svg="http://www.w3.org/2000/svg">
  <sodipodi:namedview
     id="namedview7"
     pagecolor="#ffffff"
     bordercolor="#666666"
     borderopacity="1.0"
     inkscape:pageshadow="2"
     inkscape:pageopacity="0.0"
     inkscape:pagecheckerboard="0"
     inkscape:document-units="mm"
     showgrid="false"
     inkscape:zoom="1.3380612"
     inkscape:cx="-170.02212"
     inkscape:cy="149.84367"
     inkscape:window-width="2506"
     inkscape:window-height="1403"
     inkscape:window-x="1974"
     inkscape:window-y="0"
     inkscape:window-maximized="1"
     inkscape:current-layer="layer1" />
  <defs
     id="defs2" />
  <g
     inkscape:label="Layer 1"
     inkscape:groupmode="layer"
     id="layer1"
     transform="translate(97.452393,-56.594674)">
    <path
       style="fill:#000000;stroke-width:0.264583"
       d="m -96.923233,92.088144 c 0,-0.257299 0.18373,-0.538321 0.40829,-0.624491 0.2993,-0.114853 0.34158,-0.281321 0.1584,-0.62362 -0.13743,-0.256821 -0.33291,-1.020739 -0.43441,-1.697593 -0.15623,-1.041959 -0.1003,-1.314868 0.36476,-1.779937 0.57711,-0.577107 0.50335,-1.355042 -0.12847,-1.355042 -0.20271,0 -0.36857,-0.07093 -0.36857,-0.157615 0,-0.226547 0.85621,-1.747341 1.27977,-2.27311 0.49947,-0.620006 0.16509,-1.089496 -0.48625,-0.682728 -0.66616,0.416023 -0.9491,0.09349 -0.59662,-0.680106 0.17097,-0.375248 0.18957,-0.768139 0.047,-0.993307 -0.3742,-0.59109 -0.28198,-1.731347 0.17039,-2.10678 0.61101,-0.50709 1.17318,-1.712424 1.17318,-2.515369 0,-0.659822 -0.0575,-0.693252 -0.91578,-0.532241 l -0.91579,0.171803 0.29374,-0.842621 c 0.21699,-0.62245 0.21515,-0.968462 -0.007,-1.324232 -0.22588,-0.361689 -0.22227,-0.664967 0.0145,-1.217966 l 0.31527,-0.736354 0.0951,0.859896 c 0.0523,0.472943 0.22055,0.859896 0.37381,0.859896 0.15367,0 0.22263,0.293142 0.15373,0.653547 -0.10654,0.557342 0.0155,0.701736 0.82905,0.980904 0.5247,0.180046 1.25164,0.338287 1.61545,0.351646 0.3638,0.01336 0.91459,0.111073 1.22397,0.217141 0.43429,0.148892 0.5945,0.07054 0.70283,-0.343735 0.17959,-0.68675 0.63445,-0.690714 0.85132,-0.0074 0.20319,0.640194 0.54541,0.684048 0.77004,0.09868 0.22289,-0.580854 -0.61037,-1.190353 -1.38508,-1.013134 -0.33827,0.07738 -1.00672,-9.26e-4 -1.48543,-0.174044 -0.7302,-0.264045 -0.97089,-0.244346 -1.49435,0.122299 -0.34318,0.240371 -0.80583,0.435032 -1.02811,0.43258 -0.22228,-0.0025 -0.008,-0.258151 0.47639,-0.568221 0.67312,-0.430966 0.84537,-0.694793 0.73122,-1.120022 -0.0821,-0.305941 -0.15278,-0.734851 -0.15699,-0.953133 -0.007,-0.341914 -0.0411,-0.343997 -0.24925,-0.01504 -0.19558,0.309125 -0.37115,0.3228 -0.92199,0.07182 -0.37422,-0.170506 -0.68041,-0.483135 -0.68041,-0.69473 0,-0.211595 -0.23812,-0.460296 -0.52916,-0.552669 -0.55898,-0.177413 -0.71034,-0.782842 -0.26459,-1.058333 0.34624,-0.213989 0.3417,-1.120824 -0.006,-1.236789 -0.15684,-0.05228 -0.20091,-0.439619 -0.10473,-0.92053 0.12952,-0.647612 0.33461,-0.86398 0.93224,-0.983506 0.67715,-0.135429 0.76619,-0.265391 0.76619,-1.118291 0,-0.872512 -0.0428,-0.930232 -0.44641,-0.601927 -0.39297,0.319656 -0.42465,0.305107 -0.26458,-0.121534 0.1,-0.266564 0.18183,-0.598174 0.18183,-0.736913 0,-0.149632 0.21527,-0.137042 0.52916,0.03095 0.37143,0.198783 0.52917,0.553991 0.52917,1.19163 0,0.675041 0.0963,0.871476 0.37483,0.764595 0.24655,-0.09461 0.37482,-0.551365 0.37482,-1.334721 0,-0.847888 0.19577,-1.473382 0.67971,-2.171706 1.11402,-1.607526 2.59765,-2.898928 3.82943,-3.333247 1.43423,-0.505708 4.25735,-0.52957 5.41525,-0.04577 1.08723,0.454276 2.81971,2.445869 2.81971,3.241438 0,0.329021 0.11906,0.671804 0.26458,0.76174 0.14552,0.08994 0.26276,0.305323 0.26054,0.478636 -0.002,0.18934 -0.10643,0.156706 -0.26054,-0.08176 -0.18858,-0.291811 -0.25755,-0.108967 -0.26053,0.690682 -0.004,1.146285 -0.87198,2.749849 -1.94298,3.590701 -0.31169,0.244709 -0.48978,0.521855 -0.39575,0.615881 0.26982,0.269821 2.23577,-1.64088 2.70436,-2.628363 0.23324,-0.491516 0.42729,-1.411453 0.43123,-2.044304 l 0.007,-1.150639 0.96804,1.041946 0.96805,1.041946 -0.71062,0.236874 c -0.39084,0.13028 -0.71062,0.405545 -0.71062,0.611699 0,0.502431 0.18186,0.472508 0.83683,-0.137692 0.54417,-0.506969 0.56048,-0.506969 1.50637,0 0.56045,0.300382 1.39593,0.494109 2.0185,0.468041 l 1.06226,-0.04448 -1.05834,-0.116963 c -0.88687,-0.09801 -0.9726,-0.155765 -0.52916,-0.356464 0.41697,-0.188722 0.36938,-0.208138 -0.22445,-0.09157 -1.02222,0.200651 -2.27863,-0.785261 -3.31984,-2.605109 -0.44425,-0.776467 -1.22173,-1.934941 -1.72775,-2.574388 -0.65213,-0.824096 -0.82745,-1.22147 -0.60212,-1.364704 0.21623,-0.13744 0.16981,-0.203369 -0.14512,-0.206124 -0.6763,-0.0059 -0.57482,0.374064 0.46303,1.733716 0.50932,0.66725 0.91664,1.412421 0.90515,1.655936 -0.0171,0.362755 -0.0474,0.371045 -0.1677,0.04588 -0.0807,-0.218281 -0.53604,-0.879063 -1.01177,-1.468404 -0.47573,-0.589341 -1.04614,-1.505144 -1.26757,-2.035118 -0.39882,-0.954513 -0.39595,-0.966028 0.30505,-1.222686 0.48889,-0.178996 0.55914,-0.265556 0.22725,-0.279987 -0.26422,-0.01149 -0.71071,0.102364 -0.99218,0.253005 -0.39494,0.211362 -0.51178,0.187622 -0.51178,-0.103985 0,-0.870063 2.72425,-0.959289 4.86252,-0.159259 0.89428,0.334593 1.70276,0.474569 2.1266,0.368192 0.42729,-0.107243 0.6838,-0.06161 0.6838,0.121643 0,0.161296 -0.26789,0.295089 -0.59531,0.297318 -0.4814,0.0033 -0.51937,0.05313 -0.19844,0.260531 0.58169,0.375919 1.05833,0.320078 1.05833,-0.123987 0,-0.236695 0.15513,-0.329045 0.39688,-0.236276 0.29023,0.111373 0.39687,-0.03305 0.39687,-0.537471 0,-1.023102 0.99616,-0.94708 1.36257,0.103984 0.36785,1.055215 0.69097,1.002423 0.90682,-0.148157 0.13875,-0.739554 0.26922,-0.901862 0.60731,-0.755504 0.53248,0.230508 1.03666,0.220109 1.86103,-0.03839 0.47958,-0.150378 0.58566,-0.117074 0.42989,0.134965 -0.15233,0.24648 -0.0587,0.287604 0.3555,0.15614 0.33012,-0.104775 0.5623,-0.06353 0.5623,0.09989 0,0.366773 3.22524,0.04776 3.53069,-0.349224 0.13608,-0.176863 0.16518,-0.109372 0.0744,0.172673 -0.096,0.298401 -0.0108,0.463021 0.23962,0.463021 0.21372,0 0.38857,-0.0893 0.38857,-0.198437 0,-0.109141 0.44649,-0.214235 0.99219,-0.233543 0.5457,-0.01931 1.29887,-0.11852 1.67371,-0.220472 l 0.68152,-0.185368 0.0182,1.940264 c 0.01,1.067146 0.0838,2.892764 0.16395,4.056931 0.0802,1.164167 0.0845,1.848776 0.01,1.521354 -0.0954,-0.416687 -0.32925,-0.595312 -0.77935,-0.595312 -0.35368,0 -0.64306,0.13197 -0.64306,0.293266 0,0.181636 -0.27696,0.233447 -0.7276,0.136114 -0.65291,-0.141017 -0.67566,-0.123588 -0.22166,0.169755 0.27827,0.179798 0.71774,0.528246 0.97659,0.774327 0.44582,0.423828 0.4762,0.402901 0.57618,-0.396875 l 0.10556,-0.844296 0.0423,0.859896 c 0.0233,0.472943 0.15601,0.859896 0.29494,0.859896 0.13892,0 0.32867,0.405561 0.42166,0.901248 0.13429,0.71582 0.0506,1.019758 -0.40693,1.477257 -0.31681,0.316805 -0.64332,0.508696 -0.7256,0.426424 -0.0823,-0.08227 -0.60847,0.264994 -1.16933,0.771702 -1.07786,0.973781 -1.51744,1.109996 -2.00586,0.62157 -0.32538,-0.325374 -1.12904,-0.135576 -1.12904,0.266642 0,0.136464 0.23813,0.185846 0.52917,0.109737 0.29104,-0.07611 0.52916,-0.0734 0.52916,0.006 0,0.07942 -0.68461,0.284738 -1.52135,0.456271 -1.73668,0.356022 -3.39349,0.984401 -3.17407,1.203829 0.0816,0.08158 0.52449,-0.04619 0.98424,-0.283936 0.45975,-0.237745 1.15542,-0.395352 1.54594,-0.350238 0.76198,0.08803 0.86683,0.536401 0.51676,2.209859 -0.14029,0.670635 -0.0829,0.811353 0.34371,0.843492 0.42798,0.03224 0.46692,-0.04582 0.23707,-0.475294 -0.31745,-0.59316 0.0707,-2.402359 0.60658,-2.827606 0.18086,-0.143507 0.75781,-0.398957 1.28211,-0.567665 0.52431,-0.168709 1.22314,-0.593993 1.55296,-0.945075 l 0.59969,-0.638332 0.77834,0.57545 c 0.71181,0.526268 0.77414,0.7002 0.72931,2.035073 -0.027,0.802792 0.0371,1.782933 0.14248,2.178091 0.14228,0.533765 0.0487,0.900036 -0.36404,1.424744 -0.65533,0.833108 -0.6986,1.545009 -0.15705,2.583385 0.46692,0.895281 0.51438,2.059892 0.10079,2.473474 -0.33399,0.333989 -0.0647,0.959364 0.31273,0.726128 0.13547,-0.08372 0.2463,0.04614 0.2463,0.288576 0,0.242438 -0.14882,0.385797 -0.33073,0.318574 -0.45309,-0.167441 -1.66528,1.003758 -1.28326,1.239862 0.16009,0.09894 0.29108,0.515477 0.29108,0.925631 0,0.410157 0.17859,0.893958 0.39687,1.075116 0.44395,0.368443 0.5356,1.058333 0.1406,1.058333 -0.14096,0 -0.19063,0.171077 -0.1104,0.38017 0.0802,0.209092 0.31463,0.315415 0.52087,0.236275 0.23111,-0.08869 0.37497,0.02521 0.37497,0.296905 0,0.242438 -0.11906,0.367213 -0.26458,0.277275 -0.15415,-0.09527 -0.27739,0.201912 -0.29527,0.711989 -0.0195,0.555342 -0.0788,0.68603 -0.16231,0.357373 -0.0724,-0.284975 -0.28254,-0.761225 -0.467,-1.058334 -0.18446,-0.297106 -0.40775,-1.28905 -0.49619,-2.204315 -0.0884,-0.915265 -0.3375,-1.986828 -0.55346,-2.38125 l -0.39265,-0.717129 0.19125,0.926041 c 0.37974,1.838701 0.22506,3.524486 -0.40438,4.406916 -0.429,0.601443 -0.74357,0.796356 -1.12448,0.696746 -0.79083,-0.206806 -0.63766,-0.804384 0.25652,-1.000776 0.63855,-0.140253 0.81786,-0.34576 0.95925,-1.099431 0.21986,-1.171964 -0.0395,-3.110005 -0.55435,-4.14201 -0.49332,-0.988877 -0.49328,-1.071861 2.6e-4,-0.88243 0.78843,0.302546 0.37169,-0.288653 -0.79313,-1.125159 -0.6545,-0.470029 -1.30219,-0.785266 -1.4393,-0.700527 -0.13711,0.08474 -0.64341,-0.08621 -1.1251,-0.379889 -0.48169,-0.293679 -1.13377,-0.534407 -1.44906,-0.534951 -0.3153,-5.55e-4 -0.61295,-0.118933 -0.66146,-0.263088 -0.0874,-0.260048 -2.77988,-1.060817 -3.56675,-1.060817 -0.22557,0 -0.80141,-0.185675 -1.27964,-0.412612 -0.52594,-0.249575 -1.37811,-0.380257 -2.15665,-0.330729 -1.18133,0.07515 -1.29398,0.141276 -1.37037,0.804382 l -0.0832,0.7225 -0.57823,-0.638483 c -0.49878,-0.550754 -0.85998,-0.650734 -2.62875,-0.727642 -1.52759,-0.06642 -2.05052,-0.0035 -2.05052,0.246713 0,0.184729 0.14883,0.337694 0.33073,0.339923 0.22049,0.0027 0.19844,0.08954 -0.0662,0.260531 -0.26458,0.170987 -0.28663,0.257831 -0.0661,0.260532 0.56355,0.0069 0.36359,0.965674 -0.26459,1.268629 -0.32742,0.15791 -0.44266,0.295167 -0.25608,0.305016 0.37152,0.01961 1.66504,-0.555362 2.70348,-1.201703 0.52104,-0.324306 0.54913,-0.385342 0.13229,-0.287523 -0.29104,0.0683 -0.73752,0.209958 -0.99219,0.314797 -0.30717,0.126458 -0.46294,0.06977 -0.4628,-0.168419 1.4e-4,-0.237715 0.40246,-0.38497 1.19062,-0.435781 0.69698,-0.04493 1.19041,0.03732 1.19041,0.198437 0,0.15135 0.29063,0.275182 0.64585,0.275182 0.76606,0 1.0803,0.417326 0.99615,1.322917 -0.0523,0.562847 0.0189,0.513541 0.47751,-0.330729 0.51739,-0.952461 0.59433,-0.992004 1.92171,-0.987594 1.72021,0.0057 4.66253,0.614415 5.65941,1.170804 0.41273,0.230358 0.92901,0.518946 1.14729,0.641306 0.21828,0.12236 0.81359,0.4276 1.32292,0.678312 0.50932,0.250712 1.31299,0.935865 1.78593,1.522566 0.93751,1.162999 1.08092,1.14605 0.46015,-0.05438 -0.44345,-0.857546 -2.11858,-2.111116 -2.82105,-2.111116 -0.24868,0 -0.53721,-0.137647 -0.64118,-0.305884 -0.31274,-0.506024 1.38325,-0.04661 2.28262,0.618321 0.98689,0.729642 1.79692,2.065247 1.84785,3.046817 0.18627,3.589964 0.18142,3.618386 -0.66536,3.898016 -0.43657,0.144166 -0.83314,0.286438 -0.88127,0.316159 -0.2003,0.123674 1.65234,1.686988 1.99919,1.686988 0.20789,0 0.74052,0.36253 1.18361,0.805622 0.951,0.951003 1.2961,0.815663 0.66112,-0.259273 -0.50077,-0.84773 -0.58781,-1.604682 -0.18453,-1.604682 0.14552,0 0.26458,0.17009 0.26458,0.377976 0,0.207888 0.18674,0.564711 0.41497,0.792937 0.52253,0.522531 0.29668,1.348949 -0.64268,2.351723 -0.47332,0.505264 -0.55051,0.688131 -0.24022,0.569061 0.67246,-0.258046 1.4753,-1.699705 1.69604,-3.045582 0.16317,-0.994826 0.21821,-1.076087 0.35331,-0.521624 0.088,0.361233 0.0879,1.219076 -2.7e-4,1.906321 -0.0882,0.687242 -0.0568,1.43443 0.0696,1.660414 0.12647,0.225985 0.15191,0.537138 0.0565,0.691454 -0.23304,0.377073 -3.7294,0.123113 -4.24968,-0.308682 -0.21885,-0.181631 -0.3771,-0.220787 -0.35165,-0.08701 0.11479,0.603522 -0.0644,0.669478 -0.69557,0.255952 -0.54088,-0.354401 -0.75808,-0.37951 -1.06676,-0.12333 -0.33232,0.275802 -0.35038,0.223787 -0.12663,-0.364731 0.20431,-0.537363 0.16305,-0.791297 -0.19001,-1.169469 -0.24804,-0.265684 -0.36168,-0.367432 -0.25254,-0.22611 0.32558,0.42159 0.22608,1.121714 -0.21096,1.484429 -0.327,0.271386 -0.34031,0.383598 -0.0661,0.557514 0.259,0.164293 0.23492,0.218734 -0.0981,0.221793 -0.62755,0.0058 -1.27842,-0.276003 -1.27842,-0.553424 0,-0.12995 0.26789,-0.238099 0.59531,-0.240326 0.42722,-0.0029 0.49561,-0.06725 0.24222,-0.227878 -0.26382,-0.16723 -0.19808,-0.264361 0.26002,-0.384157 0.39322,-0.10283 0.51986,-0.249626 0.35309,-0.40931 -0.16318,-0.15625 -1.19615,-0.05946 -2.77356,0.259895 -3.71309,0.751723 -6.15863,0.463743 -8.52755,-1.004189 -0.54282,-0.336357 -1.12682,-0.611561 -1.29778,-0.611561 -0.64929,0 0.71969,1.101368 2.39242,1.924738 1.6575,0.815875 1.87023,0.853168 4.83966,0.848387 3.32282,-0.0053 3.82244,0.307001 0.92399,0.577662 -1.83743,0.171582 -5.73907,-0.333116 -5.73907,-0.742381 0,-0.525243 -0.53183,-0.17552 -0.55986,0.368157 -0.0231,0.447984 -0.0606,0.480724 -0.15169,0.132291 -0.0665,-0.254661 -0.29087,-0.46302 -0.49848,-0.46302 -0.20761,0 -0.37747,-0.171567 -0.37747,-0.38126 0,-0.657116 -0.55436,-0.758856 -0.96219,-0.176591 -0.21491,0.306819 -0.56258,0.557851 -0.77261,0.557851 -0.21003,0 -0.38187,0.178593 -0.38187,0.396875 0,0.299228 -0.32164,0.396875 -1.3073,0.396875 -0.71902,0 -1.38874,-0.131773 -1.48828,-0.292831 -0.11635,-0.188251 -0.24004,-0.198842 -0.34635,-0.02965 -0.0964,0.153363 -0.60696,0.189301 -1.22369,0.08612 -0.64516,-0.107928 -1.31658,-0.05298 -1.7198,0.140743 -0.42954,0.206372 -2.07613,0.313642 -4.69635,0.305956 -3.67767,-0.01079 -4.0349,-0.05325 -4.0349,-0.479655 z m 7.01146,0.0908 c -0.29104,-0.06442 -1.04714,-0.285586 -1.68023,-0.491474 -0.99145,-0.322429 -1.10803,-0.32248 -0.84068,-2.65e-4 0.17071,0.205695 0.56963,0.424455 0.88648,0.486135 0.77969,0.151776 2.31859,0.157131 1.63443,0.0057 z m -4.63021,-0.482939 c 0,-0.218281 -0.17859,-0.396875 -0.39687,-0.396875 -0.41317,0 -0.52493,0.312923 -0.22049,0.617361 0.30444,0.30444 0.61736,0.19268 0.61736,-0.220486 z m 1.5875,0.1416 c 0,-0.140401 -0.23812,-0.382715 -0.52916,-0.538475 -0.40935,-0.219075 -0.52917,-0.201213 -0.52917,0.07889 0,0.199146 0.0794,0.441462 0.17639,0.538475 0.26643,0.266432 0.88194,0.211378 0.88194,-0.07889 z m 3.40169,-0.244869 c 0.25024,-0.158565 0.27028,-0.282279 0.0661,-0.40844 -0.3356,-0.207415 -0.82199,0.02634 -0.82199,0.395033 0,0.307645 0.28354,0.312674 0.75585,0.01342 z m 4.07053,-1.057434 c -0.13584,-0.08922 -0.32712,-0.489635 -0.42506,-0.889818 -0.13154,-0.537469 -0.34096,-0.727604 -0.80142,-0.727604 -0.48794,0 -0.65966,0.1816 -0.79054,0.83601 -0.092,0.459806 -0.10685,0.896368 -0.0331,0.970139 0.0738,0.07377 0.13413,-0.06431 0.13413,-0.306842 0,-0.652931 0.72826,-0.534988 0.94672,0.153323 0.10374,0.326864 0.37965,0.735544 0.61314,0.908182 0.35114,0.259631 0.43995,0.219245 0.51381,-0.233645 0.0491,-0.301144 -0.0219,-0.620527 -0.1577,-0.709745 z m 1.72333,0.830114 c 0.15799,-0.479729 -0.73552,-0.746413 -1.01611,-0.303278 -0.12861,0.203107 -0.23566,0.466862 -0.23788,0.586123 -0.006,0.342099 1.1328,0.08515 1.25399,-0.282845 z m 1.52008,-0.06629 c 0,-0.57381 -1.03224,-0.494765 -1.1444,0.08763 -0.0724,0.375724 0.0456,0.464831 0.52555,0.396875 0.34037,-0.0482 0.61885,-0.266226 0.61885,-0.484508 z m -8.57912,-0.07276 c -0.0327,-0.316362 -0.39562,-0.255096 -0.50932,0.08599 -0.0582,0.174625 0.037,0.269875 0.21167,0.211667 0.17462,-0.05821 0.30857,-0.192154 0.29765,-0.297657 z m 28.96628,0.04971 c 0.0978,-0.158202 0.0612,-0.404193 -0.0812,-0.546653 -0.16897,-0.168963 -0.30872,-0.06896 -0.40197,0.287637 -0.15023,0.574487 0.17913,0.751033 0.48321,0.259016 z m -31.71028,-1.135748 c -0.32072,-0.491818 -0.6245,-0.85725 -0.67506,-0.812067 -0.14193,0.126839 0.84189,1.706285 1.06283,1.706285 0.10745,0 -0.067,-0.402397 -0.38777,-0.894218 z m 1.53354,0.629635 c -0.0899,-0.145521 -0.28259,-0.264584 -0.42811,-0.264584 -0.14552,0 -0.191,0.119063 -0.10106,0.264584 0.0899,0.14552 0.28258,0.264583 0.4281,0.264583 0.14552,0 0.191,-0.119063 0.10107,-0.264583 z m 3.5455,-1.256771 c 0.0165,-0.206611 -0.32116,-0.330729 -0.89967,-0.330729 -1.11503,0 -1.1723,0.34163 -0.19844,1.183648 l 0.72761,0.629099 0.17206,-0.575646 c 0.0946,-0.316603 0.18393,-0.724471 0.19844,-0.906372 z m 7.17012,0.976572 c 0,-0.136933 -0.17486,-0.248968 -0.38857,-0.248968 -0.23603,0 -0.32901,0.155205 -0.23686,0.395356 0.15618,0.406998 0.62543,0.297167 0.62543,-0.146388 z m 17.60198,0.268562 c 0.26422,-0.427508 -0.59933,-1.548384 -1.33519,-1.733074 -0.36292,-0.09109 -1.08739,-0.0854 -1.60993,0.01262 -0.90839,0.170416 -0.93045,0.199938 -0.50257,0.672735 0.24613,0.271976 0.58515,0.443569 0.75338,0.381323 0.16823,-0.06225 0.66306,-0.0049 1.09962,0.127391 0.7661,0.232191 0.75228,0.242671 -0.39687,0.300858 l -1.19063,0.06029 1.05834,0.189492 c 1.61775,0.289655 1.93873,0.287896 2.12385,-0.01164 z m -31.4413,-0.782113 c -0.33639,-0.891194 -0.57778,-0.997982 -0.82131,-0.363339 -0.18681,0.486817 0.26469,1.157089 0.77942,1.157089 0.26963,0 0.27844,-0.16704 0.0419,-0.79375 z m 12.11953,0.264583 c 0.0899,-0.145521 -0.0221,-0.264583 -0.24897,-0.264583 -0.22687,0 -0.41249,0.119062 -0.41249,0.264583 0,0.145521 0.11204,0.264583 0.24897,0.264583 0.13693,0 0.32255,-0.119062 0.41249,-0.264583 z m 8.33437,0 c 0,-0.145521 -0.18562,-0.264583 -0.41249,-0.264583 -0.22687,0 -0.3389,0.119062 -0.24896,0.264583 0.0899,0.145521 0.27555,0.264583 0.41249,0.264583 0.13693,0 0.24896,-0.119062 0.24896,-0.264583 z m -16.06201,-0.53263 c 0.0877,-0.33555 -0.0232,-0.616019 -0.29987,-0.757997 -0.60348,-0.309695 -1.10062,-0.08526 -1.10062,0.496877 0,0.849133 1.18876,1.070777 1.40049,0.26112 z m 5.94644,0.0035 c -0.18175,-0.291041 -0.42089,-0.529166 -0.5314,-0.529166 -0.11052,0 -0.20094,0.238125 -0.20094,0.529166 0,0.353523 0.17639,0.529167 0.53141,0.529167 0.46517,0 0.49022,-0.06595 0.20093,-0.529167 z m 8.95371,0.15275 c 0.24575,-0.640417 0.88406,-0.69514 1.4545,-0.124701 0.63199,0.631991 0.65937,0.619993 0.91565,-0.401106 l 0.19297,-0.768847 -1.67801,0.175387 c -1.60428,0.167679 -2.09154,0.437927 -2.10044,1.164955 -0.006,0.45707 1.03745,0.417859 1.21533,-0.04569 z m 3.54311,-0.285041 c 0.30467,-0.801347 1.05834,-0.884434 1.05834,-0.116676 0,0.29963 0.11906,0.471196 0.26458,0.381259 0.14552,-0.08994 0.26096,-0.60298 0.25654,-1.140095 -0.007,-0.791771 -0.0591,-0.888952 -0.27773,-0.513551 -0.14833,0.254662 -0.55292,0.463021 -0.8991,0.463021 -0.7008,0 -1.46096,0.629338 -1.46096,1.209524 0,0.633061 0.79035,0.42136 1.05833,-0.283482 z m 0.66146,0.396875 c 0.0899,-0.145521 0.0374,-0.264584 -0.11667,-0.264584 -0.15411,0 -0.2802,0.119063 -0.2802,0.264584 0,0.14552 0.0525,0.264583 0.11667,0.264583 0.0642,0 0.19026,-0.119063 0.2802,-0.264583 z m -21.29896,-0.248968 c 0,-0.136932 -0.11906,-0.322554 -0.26458,-0.412491 -0.14552,-0.08994 -0.26458,0.02209 -0.26458,0.248968 0,0.22687 0.11906,0.412491 0.26458,0.412491 0.14552,0 0.26458,-0.112036 0.26458,-0.248968 z m 15.61042,-0.280199 c 0.24859,-0.464487 0.20121,-0.529167 -0.38757,-0.529167 -0.95285,0 -0.92164,0.681265 0.0475,1.037445 0.0313,0.01149 0.18428,-0.217236 0.34004,-0.508278 z m 13.50709,-0.338079 -0.61873,-0.587963 0.50113,0.701691 c 0.27563,0.385929 0.55405,0.650513 0.61873,0.587963 0.0647,-0.06255 -0.16084,-0.378312 -0.50113,-0.701691 z m -19.76141,0.205787 c -0.15914,-0.414705 -0.88943,-0.559533 -0.88943,-0.17639 0,0.323242 0.3041,0.573265 0.69725,0.573265 0.1975,0 0.2795,-0.169336 0.19218,-0.396875 z m 2.02099,0 c 0,-0.264583 -0.26459,-0.396875 -0.79375,-0.396875 -0.7586,0 -0.99666,0.238062 -0.61736,0.61736 0.34634,0.346348 1.41111,0.179978 1.41111,-0.220485 z m 13.47732,-0.568248 c 1.32706,-0.99074 1.57677,-1.877677 0.44296,-1.573347 -0.30735,0.0825 -0.70765,0.151622 -0.88955,0.153609 -0.18886,0.0021 -0.33073,0.337677 -0.33073,0.782359 0,0.504799 -0.20686,0.923637 -0.58804,1.190625 -0.32342,0.226531 -0.43939,0.411877 -0.25771,0.411877 0.18168,0 0.91206,-0.434305 1.62307,-0.965123 z m -10.63856,0.276103 c -0.0879,-0.08792 -0.31613,-0.09732 -0.50712,-0.02087 -0.21107,0.08446 -0.14837,0.147156 0.15985,0.15985 0.27891,0.01148 0.43518,-0.05105 0.34727,-0.138964 z m -16.5971,-0.766188 c 0,-0.218281 -0.17859,-0.396875 -0.39687,-0.396875 -0.21828,0 -0.39688,0.178594 -0.39688,0.396875 0,0.218281 0.1786,0.396875 0.39688,0.396875 0.21828,0 0.39687,-0.178594 0.39687,-0.396875 z m 2.5306,-0.427286 c 0.73758,-0.673492 1.33355,-0.627415 2.12528,0.164319 0.49096,0.490956 0.83188,0.620707 1.31339,0.499856 0.35767,-0.08977 0.69878,-0.241641 0.75802,-0.337489 0.0892,-0.144256 -0.34788,-1.582933 -1.04805,-3.450087 -0.10298,-0.274622 -0.42319,-0.100026 -1.19027,0.649009 -0.57716,0.563581 -1.04938,0.88147 -1.04938,0.706417 0,-0.175054 0.46071,-0.778997 1.02381,-1.342094 0.91581,-0.915813 1.04363,-1.208873 1.21168,-2.778125 0.21113,-1.971469 -0.08,-2.260732 -1.13985,-1.132565 -0.51788,0.551254 -0.53811,0.659921 -0.17842,0.958437 0.24551,0.203756 0.39004,0.715653 0.36605,1.296483 -0.0311,0.753856 -0.0627,0.809577 -0.14721,0.259691 -0.0592,-0.385054 -0.33336,-0.904433 -0.60932,-1.154179 -0.47837,-0.432916 -0.50771,-0.42495 -0.62957,0.170934 -0.0703,0.343757 -0.18965,1.252466 -0.26524,2.019353 -0.0756,0.766887 -0.312,1.719387 -0.52538,2.116667 -0.21338,0.39728 -0.45233,0.928677 -0.53099,1.180886 -0.0811,0.260082 -0.30437,0.39665 -0.51578,0.315523 -0.20501,-0.07867 -0.44689,0.05019 -0.53752,0.286345 -0.13217,0.344446 -0.0473,0.393774 0.42888,0.249381 0.32651,-0.099 0.83945,-0.404445 1.13987,-0.678762 z M -69.406563,87.595 c 0,-0.582084 0.11906,-1.058334 0.26458,-1.058334 0.14552,0 0.26459,-0.119062 0.26459,-0.264583 0,-0.517607 -0.74005,-0.253661 -1.18263,0.421796 -0.51144,0.780563 -0.35404,1.959454 0.26163,1.959454 0.28075,0 0.39183,-0.300032 0.39183,-1.058333 z m 2.29306,0.881943 c -0.097,-0.09701 -0.25577,-0.09701 -0.35278,0 -0.097,0.09701 -0.0176,0.17639 0.17639,0.17639 0.19402,0 0.2734,-0.07937 0.17639,-0.17639 z m 2.38125,0 c -0.097,-0.09701 -0.25577,-0.09701 -0.35278,0 -0.097,0.09701 -0.0176,0.17639 0.17639,0.17639 0.19402,0 0.2734,-0.07937 0.17639,-0.17639 z m -0.89896,-0.261744 c -0.17913,-0.07247 -0.53632,-0.07689 -0.79375,-0.0098 -0.25743,0.06708 -0.11087,0.126381 0.32569,0.131773 0.43656,0.0054 0.64719,-0.04949 0.46806,-0.12197 z m -6.15397,-0.555316 c 0.98654,-1.224513 1.62244,-2.303256 1.75837,-2.982899 0.1621,-0.810482 0.1384,-0.798957 -1.28618,0.625623 -1.54637,1.546376 -3.13674,2.168044 -4.39465,1.717858 -0.89783,-0.321318 -4.19281,-0.267256 -5.37942,0.08826 -0.82085,0.24593 -1.16252,0.234561 -1.70692,-0.05679 -1.17042,-0.626391 -1.50226,-1.676969 -1.63853,-5.187435 l -0.12488,-3.216951 -0.69131,-0.132152 c -0.38021,-0.07268 -0.78848,-0.07209 -0.90726,0.0013 -0.11877,0.07341 -0.17898,1.759096 -0.1338,3.745979 0.0748,3.287125 0.0297,3.717433 -0.49993,4.777354 l -0.58209,1.164841 7.71387,-0.173916 c 4.24263,-0.09565 7.78536,-0.262644 7.87273,-0.371091 z m -21.48209,-1.74489 c 0.62011,-1.241644 0.74015,-2.02416 0.3105,-2.02416 -0.14678,0 -0.75714,0.35515 -1.35636,0.78922 -0.85367,0.618392 -0.99663,0.824852 -0.66048,0.953844 0.34123,0.130943 0.39419,0.388991 0.25888,1.261301 -0.16668,1.074512 -0.15961,1.087371 0.34999,0.636275 0.28605,-0.253219 0.77992,-0.980636 1.09747,-1.61648 z m 5.81504,-1.146871 c 0.17522,-0.317854 0.31859,-0.944684 0.31859,-1.392952 0,-0.63215 -0.18876,-0.929819 -0.84121,-1.326597 -0.46266,-0.28136 -0.93891,-0.451178 -1.05833,-0.377372 -0.42017,0.25968 -0.21065,2.634977 0.37813,4.286832 l 0.59537,1.670325 0.14443,-1.141158 c 0.0794,-0.627637 0.28779,-1.401223 0.46302,-1.719078 z m 6.11159,1.405205 c 0.31445,-0.378888 0.12946,-1.226074 -0.33549,-1.536427 -0.40409,-0.269735 -1.22418,0.264734 -1.22418,0.797824 0,0.950402 0.99344,1.42086 1.55967,0.738603 z m 4.52575,-0.265046 c 0,-1.300112 -0.32835,-2.282071 -0.76068,-2.274872 -0.47862,0.008 -2.09935,1.455214 -2.615,2.335096 -0.32748,0.558787 -0.30238,0.568161 1.52135,0.568161 1.77553,0 1.85433,-0.0267 1.85433,-0.628385 z m 3.3014,0.02693 c 0.47859,-0.251891 0.44256,-0.303363 -0.42174,-0.602588 -0.51976,-0.179946 -1.33776,-0.530273 -1.81779,-0.778502 l -0.87277,-0.451329 0.16642,0.621623 c 0.0915,0.341891 0.16804,0.899977 0.17003,1.240192 0.003,0.580228 0.0733,0.607023 1.12809,0.432294 0.61847,-0.102452 1.35996,-0.31021 1.64776,-0.46169 z m -13.704,-0.506492 c -0.0845,-0.211066 -0.14715,-0.148373 -0.15985,0.159854 -0.0115,0.278913 0.0511,0.435184 0.13897,0.347265 0.0879,-0.08792 0.0973,-0.316124 0.0209,-0.507119 z m 20.55134,-0.0038 c 0.15597,-0.247682 0.21009,-0.523822 0.12027,-0.613643 -0.24177,-0.241781 -1.27318,0.473086 -1.27318,0.882425 0,0.477071 0.80079,0.290373 1.15291,-0.268793 z m 1.18255,-0.628407 c 0.0693,-0.619246 0.02,-0.708265 -0.24722,-0.446746 -0.41617,0.407281 -0.51562,1.441664 -0.12635,1.314135 0.15789,-0.05172 0.326,-0.442047 0.37357,-0.867389 z m -3.15143,0.278363 c -0.22642,-0.943414 -0.32476,-1.18401 -0.48395,-1.18401 -0.14524,0 -0.18967,1.200737 -0.0571,1.543402 0.0826,0.21359 0.59663,-0.127831 0.54106,-0.359392 z m -3.82981,-0.244837 c -0.48798,-0.364601 -0.49167,-0.423027 -0.074,-1.171297 0.54669,-0.979358 0.2995,-1.107692 -1.56568,-0.812845 -2.44908,0.387146 -2.54239,0.632023 -0.59235,1.554538 0.94512,0.447111 1.94952,0.813025 2.232,0.813138 0.5084,2.07e-4 0.5084,-0.0037 0,-0.383534 z m -21.56159,-0.873027 c 0.73478,-0.545703 1.33609,-1.196359 1.33625,-1.445901 4e-4,-0.633121 -0.94047,-1.069363 -1.86731,-0.865796 -0.84526,0.18565 -1.01053,0.512294 -0.38136,0.753732 0.54715,0.209963 0.49838,1.124 -0.0823,1.542963 -0.26357,0.190151 -0.56825,0.494559 -0.67708,0.67646 -0.36595,0.611714 0.32632,0.337817 1.67184,-0.661458 z m 13.70593,0.396875 c -0.0606,-0.181901 -0.33459,-0.374227 -0.60894,-0.427392 -0.43156,-0.08363 -0.45099,-0.03904 -0.14411,0.330729 0.41968,0.505687 0.9102,0.56865 0.75305,0.09666 z m 1.65352,-0.756862 c 0,-0.353505 -1.33472,-2.204382 -1.76269,-2.444343 -0.3346,-0.187616 -0.35318,-0.135969 -0.11272,0.313333 0.44163,0.825204 0.35626,1.628624 -0.17511,1.647873 -0.36725,0.01331 -0.34469,0.06448 0.10903,0.247449 0.31462,0.126873 0.65283,0.485208 0.75156,0.7963 0.17109,0.539033 0.20327,0.544129 0.68473,0.108419 0.27786,-0.251463 0.5052,-0.552527 0.5052,-0.669031 z m 11.5768,0.62471 c 0.13081,-0.397184 -0.57292,-0.711914 -1.12129,-0.501483 -0.58028,0.222671 -0.1744,1.007898 0.47151,0.912207 0.2975,-0.04407 0.5899,-0.228899 0.64978,-0.410724 z m -4.16846,-0.05067 c 0,-0.357286 -0.48232,-0.604967 -0.79807,-0.409824 -0.14789,0.0914 -0.2004,0.277024 -0.11667,0.412491 0.19861,0.321365 0.91474,0.319278 0.91474,-0.0027 z m -11.53769,-0.434131 c 0.26835,-0.699289 0.18476,-0.904402 -0.36856,-0.904402 -0.38806,0 -0.52917,0.17639 -0.52917,0.661459 0,0.738648 0.64095,0.912103 0.89773,0.242943 z m 1.16933,-0.358698 c 0.0661,-0.198438 -0.0331,-0.297657 -0.23151,-0.231511 -0.191,0.06366 -0.39936,0.272026 -0.46302,0.463021 -0.0662,0.198438 0.0331,0.297656 0.23151,0.23151 0.19099,-0.06366 0.39935,-0.272026 0.46302,-0.46302 z m 14.44109,-0.699635 c 0.26203,-0.68284 0.18753,-0.904637 -0.30242,-0.900351 -0.72482,0.0063 -1.21732,0.430702 -1.03905,0.895289 0.20943,0.545756 1.13265,0.549241 1.34147,0.0051 z m 0.95435,-0.110652 c 0,-0.291042 -0.11906,-0.529167 -0.26458,-0.529167 -0.14552,0 -0.26459,0.238125 -0.26459,0.529167 0,0.291042 0.11907,0.529167 0.26459,0.529167 0.14552,0 0.26458,-0.238125 0.26458,-0.529167 z m -11.05363,-0.147293 c -0.32342,-0.226534 -0.58804,-0.548003 -0.58804,-0.714375 0,-0.218607 0.0881,-0.214445 0.3175,0.015 0.59498,0.594977 0.8354,0.319974 0.25779,-0.294864 -0.71561,-0.761728 -0.72896,-1.350627 -0.0461,-2.033469 0.72042,-0.720415 1.52818,-0.687741 1.63524,0.06615 0.0643,0.452546 0.25904,0.595312 0.81216,0.595312 0.40018,0 0.7276,-0.0893 0.7276,-0.198437 0,-0.109141 0,-0.674688 0,-1.256771 v -1.058333 h -1.5814 c -1.39759,0 -1.6321,0.07738 -2.01762,0.665761 -0.31459,0.480124 -0.40074,1.03506 -0.30897,1.990192 0.14607,1.52013 0.0955,1.531353 -0.46045,0.102291 -0.38154,-0.98068 -0.39685,-0.991125 -0.2752,-0.187738 0.16136,1.065588 1.20786,2.71353 1.72595,2.717885 0.25634,0.0021 0.18847,-0.137605 -0.19844,-0.408601 z m 3.95372,-0.04286 c 1.15559,0.104783 1.54366,0.05427 1.54366,-0.200954 0,-0.187508 -0.24696,-0.405508 -0.5488,-0.484441 -0.30184,-0.07893 -0.61618,-0.401167 -0.69853,-0.716074 -0.14931,-0.570947 -0.59937,-0.611532 -1.6827,-0.151741 -0.26573,0.112778 -0.67277,-0.07952 -1.12448,-0.531223 -0.78344,-0.78344 -0.94531,-0.563233 -0.28206,0.383699 0.27628,0.394443 0.37112,0.882216 0.26991,1.38825 -0.14624,0.731205 -0.12042,0.761085 0.41166,0.476324 0.34152,-0.182774 1.18267,-0.248049 2.11134,-0.16384 z m 3.66033,0.190153 c 0,-0.145521 -0.23813,-0.264583 -0.52917,-0.264583 -0.29104,0 -0.52917,0.119062 -0.52917,0.264583 0,0.145521 0.23813,0.264583 0.52917,0.264583 0.29104,0 0.52917,-0.119062 0.52917,-0.264583 z m -11.64188,-0.46691 c 5e-4,-0.163703 -1.74837,-1.118698 -2.05031,-1.1196 -0.1819,-5.3e-4 -0.33073,0.301437 -0.33073,0.671068 0,0.631475 0.0719,0.667422 1.19041,0.595312 0.65473,-0.04221 1.19051,-0.108259 1.19063,-0.14678 z m -5.88615,-1.538899 c -0.0579,-0.05794 -0.48362,-0.180999 -0.94595,-0.273465 -1.12737,-0.225475 -1.11124,0.375184 0.0295,1.097592 l 0.84971,0.538107 0.0861,-0.628444 c 0.0473,-0.345643 0.0386,-0.675849 -0.0193,-0.73379 z m 6.15625,0.821579 c -0.24894,-0.299955 -0.25878,-0.494731 -0.0384,-0.760275 0.23438,-0.282403 0.0753,-0.456663 -0.76135,-0.833932 -0.5817,-0.262311 -1.05764,-0.57791 -1.05764,-0.70133 0,-0.12342 -0.17859,-0.2244 -0.39687,-0.2244 -0.26225,0 -0.39688,0.262304 -0.39688,0.773231 0,0.64382 0.14963,0.822614 0.89405,1.068293 0.49173,0.162285 1.10615,0.529437 1.36539,0.815893 0.54093,0.597715 0.89788,0.472432 0.3917,-0.13748 z m 1.87961,0.05534 c -0.26131,-0.25936 -0.2917,-0.22897 -0.14811,0.148114 0.0994,0.260937 0.2473,0.407781 0.32876,0.326319 0.0815,-0.08146 1.7e-4,-0.294955 -0.18065,-0.474433 z m 10.02133,0.508082 c 0,-0.405254 -0.88748,-1.73374 -1.0791,-1.615315 -0.34494,0.213188 -0.30251,1.013256 0.0737,1.389456 0.28776,0.287764 1.00541,0.44898 1.00541,0.225859 z m -7.51294,-1.536628 c -0.36336,-0.518776 -0.42436,-0.532178 -0.57971,-0.12736 -0.10462,0.272637 0.0231,0.670396 0.3215,1.00095 0.41792,0.463013 0.5083,0.48287 0.57971,0.127363 0.0465,-0.231643 -0.0982,-0.682072 -0.3215,-1.000953 z m 5.8787,0.922591 c -0.12874,-0.663778 -0.74701,-0.754922 -0.74701,-0.110119 0,0.324995 0.17084,0.551214 0.41628,0.551214 0.24639,0 0.38136,-0.180014 0.33073,-0.441095 z m -20.85305,-0.528682 c 0.8628,-0.768755 1.00017,-1.14689 0.41665,-1.14689 -0.20614,0 -0.60437,-0.315147 -0.88496,-0.700327 l -0.51015,-0.700328 -1.27592,0.43475 c -1.49297,0.508704 -2.24583,1.115118 -2.24583,1.808966 0,0.643615 0.58861,0.857033 1.51263,0.548449 l 0.73633,-0.245903 -0.79375,-0.429919 c -0.72251,-0.39133 -0.7401,-0.430869 -0.19603,-0.44051 0.32875,-0.0058 0.97149,0.346593 1.42831,0.783156 0.45682,0.436562 0.87348,0.79375 0.92592,0.79375 0.0524,0 0.4515,-0.317336 0.8868,-0.705194 z m 23.65628,0.544594 c 0.89336,-0.342815 0.17951,-1.691484 -0.89531,-1.691484 -0.52957,0 -0.60963,0.805519 -0.13247,1.332773 0.53545,0.591658 0.47537,0.57069 1.02778,0.358711 z m 5.29167,0 c 0.68508,-0.26289 0.50063,-0.840052 -0.22418,-0.701495 -0.41529,0.07939 -0.59251,0.253646 -0.50086,0.492477 0.16248,0.423431 0.16465,0.424058 0.72504,0.209018 z m -1.25718,-0.544957 c -0.097,-0.09701 -0.17639,-0.01764 -0.17639,0.17639 0,0.194027 0.0794,0.273402 0.17639,0.17639 0.097,-0.09701 0.097,-0.255765 0,-0.35278 z m -15.21916,-1.609187 c -0.12801,-2.076644 -0.90928,-2.474275 -2.59999,-1.323277 -1.06512,0.725112 -1.08866,0.925502 -0.15047,1.280944 0.40018,0.151612 0.96573,0.490699 1.25677,0.753525 0.46184,0.41707 1.01887,0.71919 1.45521,0.789275 0.0728,0.0117 0.0901,-0.663524 0.0385,-1.500467 z m 7.36985,0.86593 c 0,-0.214764 -0.23768,-0.780311 -0.52818,-1.25677 -0.57869,-0.949151 -0.70491,-0.520514 -0.23969,0.814019 0.30006,0.860751 0.76787,1.130488 0.76787,0.442751 z m 1.32292,-0.123071 c 0,-0.312172 -0.51603,-0.646112 -0.70556,-0.456588 -0.18952,0.189525 0.14442,0.705556 0.45659,0.705556 0.13693,0 0.24897,-0.112035 0.24897,-0.248968 z m -2.52545,-0.610928 c -0.28405,-0.940174 -0.64955,-1.180863 -0.64955,-0.427743 0,0.699248 0.18708,1.023056 0.59109,1.023056 0.13107,0 0.15738,-0.267891 0.0585,-0.595313 z m 10.85746,0 c -0.0343,-0.327422 -0.0776,-0.697347 -0.0962,-0.822057 -0.0186,-0.12471 -0.20467,-0.161164 -0.41355,-0.08101 -0.20888,0.08015 -0.41951,0.02655 -0.46807,-0.119126 -0.12172,-0.365156 -0.92835,-0.0202 -1.11988,0.478911 -0.12206,0.318082 -0.01,0.379966 0.50871,0.280816 0.42994,-0.08219 0.66527,-0.0076 0.66527,0.210962 0,0.299642 0.34901,0.564831 0.82377,0.625929 0.0893,0.01149 0.13423,-0.247003 0.0999,-0.574425 z m -28.44035,-1.256771 c 0,-1.295577 -0.3367,-1.777652 -0.60058,-0.859895 -0.0732,0.254661 -0.21302,0.656028 -0.31066,0.891926 -0.1512,0.365309 0.42086,1.290886 0.79785,1.290886 0.0624,0 0.11339,-0.595312 0.11339,-1.322917 z m 3.14275,1.083864 c 0.20055,-0.127023 0.28282,-0.363325 0.18283,-0.525116 -0.27401,-0.443353 -0.62849,-0.355137 -0.94433,0.235002 -0.31061,0.580393 0.0727,0.726414 0.7615,0.290114 z m -1.26983,-0.840168 c 0.24857,-0.01381 0.2689,-0.06447 0.06,-0.149451 -0.40865,-0.166227 -1.40373,0.365307 -1.40373,0.749821 0,0.167033 0.21108,0.105262 0.48385,-0.1416 0.26612,-0.240835 0.65308,-0.447282 0.8599,-0.45877 z m 17.70625,0.313779 c 0,-0.268205 -0.80587,-0.633555 -0.9904,-0.449014 -0.0665,0.0665 -0.0424,0.247901 0.0535,0.403103 0.21109,0.341546 0.93692,0.377113 0.93692,0.04591 z m 6.35,-0.1606 c 0,-0.218281 -0.11203,-0.396875 -0.24897,-0.396875 -0.33363,0 -0.57258,0.413171 -0.3612,0.624555 0.29797,0.297969 0.61017,0.181475 0.61017,-0.22768 z m -29.17031,-0.299054 c 0.74367,-0.199298 0.75914,-0.520691 0.0435,-0.903698 -0.62906,-0.336667 -0.64072,-0.330435 -0.88834,0.475148 -0.1944,0.632426 -0.0981,0.681259 0.84486,0.42855 z m 26.92223,-0.0964 c -0.0894,-0.144738 -0.4239,-0.400188 -0.74322,-0.567666 -0.57654,-0.302391 -0.57707,-0.300563 -0.0766,0.263161 0.50496,0.568717 1.12553,0.799226 0.81977,0.304505 z m -25.28667,-1.271512 c -1.0958,-0.450306 -1.28397,-0.214065 -0.49685,0.623785 0.59975,0.638404 0.65244,0.648975 0.98388,0.197395 0.3115,-0.424424 0.2577,-0.515139 -0.48703,-0.82118 z m 6.30194,1.080581 c -0.40018,-0.06062 -1.05503,-0.06062 -1.45521,0 -0.40018,0.06062 -0.0728,0.110222 0.7276,0.110222 0.80037,0 1.12779,-0.0496 0.72761,-0.110222 z m 21.85441,-0.480423 c -0.19078,-0.497165 -0.88618,-0.507818 -0.88618,-0.01358 0,0.385372 0.51608,0.693825 0.84834,0.507037 0.10278,-0.05778 0.11981,-0.279841 0.0378,-0.493462 z m 1.75965,0.288671 c 0,-0.397183 -0.47502,-0.819418 -0.68529,-0.609145 -0.18454,0.184541 0.18081,0.990405 0.44901,0.990405 0.12995,0 0.23628,-0.171567 0.23628,-0.38126 z m -26.47693,-0.610927 c -0.0102,-0.400182 -0.11059,-0.963074 -0.22303,-1.25087 -0.19895,-0.509229 -0.21282,-0.5076 -0.51698,0.06072 -0.37436,0.699507 -0.12635,1.917757 0.39041,1.917757 0.22979,0 0.36121,-0.273517 0.3496,-0.727604 z m 23.23711,0.396875 c -0.16758,-0.508841 -1.2581,-0.582128 -1.2581,-0.08455 0,0.270146 0.23888,0.415277 0.68351,0.415277 0.42851,0 0.64287,-0.123387 0.57459,-0.330729 z m -21.63101,-0.586004 c 0,-0.396178 -0.2229,-0.771438 -0.56788,-0.956068 -0.51949,-0.278024 -0.55362,-0.250638 -0.40049,0.32142 0.0921,0.343937 0.16902,0.774168 0.171,0.956069 0.002,0.181901 0.18221,0.330729 0.40049,0.330729 0.24544,0 0.39688,-0.24885 0.39688,-0.65215 z m 2.64583,-1.064267 v -1.716418 l 2.05052,0.16031 c 1.12779,0.08817 2.31422,0.324777 2.63653,0.525792 0.3223,0.201016 0.64972,0.365483 0.7276,0.365483 0.0779,0 0.1416,-0.605235 0.1416,-1.344966 0,-0.739731 -0.0893,-1.298999 -0.19844,-1.242818 -1.60894,0.828207 -2.37867,1.017049 -3.8569,0.946232 l -1.6332,-0.07824 v -6.085417 -6.085417 l 0.86492,-0.08328 c 1.65103,-0.15898 0.54773,-0.578175 -1.52172,-0.578175 h -2.08077 l 0.44274,0.859896 c 0.37639,0.731025 0.45373,1.950338 0.51608,8.135938 0.0403,4.001823 0.12589,7.42487 0.19013,7.606771 0.0642,0.181901 0.47773,0.330729 0.91886,0.330729 h 0.80205 z m 15.5875,0.855207 c -1.72181,-1.494443 -3.16529,-5.885826 -2.66267,-8.100455 0.1941,-0.85528 0.18509,-1.07909 -0.0346,-0.859386 -0.1668,0.166799 -0.30265,1.208518 -0.30979,2.375557 -0.0116,1.888999 0.0752,2.247021 0.95121,3.927101 l 0.96394,1.848612 -0.69935,0.277577 -0.69935,0.277577 0.66145,0.04008 c 0.36381,0.02205 1.01865,0.203633 1.45521,0.403532 1.10881,0.507715 1.15247,0.485508 0.37396,-0.190196 z m 1.08125,-0.710675 c 0,-0.667067 -0.45365,-0.936832 -0.9219,-0.548215 -0.48175,0.399815 -0.21925,1.061766 0.42104,1.061766 0.3194,0 0.50086,-0.186063 0.50086,-0.513551 z m 1.69148,0.09504 c 0.29237,-0.761902 0.16727,-1.168986 -0.35926,-1.168986 -0.56012,0 -1.1943,0.903923 -0.93197,1.328385 0.25249,0.408527 1.11412,0.302161 1.29123,-0.159399 z m 3.0181,0.101014 c 0.52504,-0.525034 0.3607,-1.005416 -0.34395,-1.005416 -0.52917,0 -0.66146,0.132291 -0.66146,0.661458 0,0.704652 0.48038,0.868993 1.00541,0.343958 z m -8.61218,-0.122311 c -0.1819,-0.0734 -0.47956,-0.0734 -0.66146,0 -0.1819,0.0734 -0.0331,0.133452 0.33073,0.133452 0.3638,0 0.51263,-0.06005 0.33073,-0.133452 z m 7.0776,-0.221647 c 0,-0.218281 -0.19317,-0.396875 -0.42927,-0.396875 -0.35158,0 -0.36966,0.07183 -0.0999,0.396875 0.18116,0.218281 0.37433,0.396875 0.42927,0.396875 0.055,0 0.0999,-0.178594 0.0999,-0.396875 z m -8.55486,-0.0441 c -0.097,-0.09701 -0.25576,-0.09701 -0.35278,0 -0.097,0.09701 -0.0176,0.176389 0.17639,0.176389 0.19403,0 0.2734,-0.07937 0.17639,-0.176389 z m -0.79375,-0.264584 c -0.097,-0.09701 -0.25576,-0.09701 -0.35278,0 -0.097,0.09701 -0.0176,0.176389 0.17639,0.176389 0.19403,0 0.2734,-0.07937 0.17639,-0.176389 z m 2.64583,0 c -0.097,-0.09701 -0.25576,-0.09701 -0.35278,0 -0.097,0.09701 -0.0176,0.176389 0.17639,0.176389 0.19403,0 0.27341,-0.07937 0.17639,-0.176389 z m -15.86495,-0.703951 c -0.0789,-0.205698 -0.77271,-0.597786 -1.54173,-0.871307 -0.76902,-0.273521 -1.77315,-0.870682 -2.23142,-1.327025 -1.21313,-1.208049 -1.93506,-1.552377 -2.13923,-1.020317 -0.19793,0.515804 0.86454,1.717739 1.51843,1.717739 0.25451,0 0.82663,0.30619 1.27138,0.680421 0.44475,0.374231 0.92298,0.609754 1.06273,0.523382 0.13975,-0.08637 0.64269,0.07928 1.11764,0.368118 0.9164,0.557294 1.1758,0.537744 0.9422,-0.07101 z m 6.16356,0.351174 c -0.21828,-0.141065 -0.81359,-0.241408 -1.32291,-0.222986 l -0.92604,0.03349 1.05833,0.189492 c 1.56259,0.279778 1.62355,0.279778 1.19062,0 z m 8.20209,-0.167208 c 0,-0.237485 0.26086,-0.853878 0.57969,-1.369761 0.31884,-0.515884 0.4362,-0.849281 0.26081,-0.740883 -0.29259,0.180828 -1.36967,2.067833 -1.36967,2.399603 0,0.07856 0.11906,0.142832 0.26458,0.142832 0.14552,0 0.26459,-0.194306 0.26459,-0.431791 z m 1.62654,-0.648009 -0.43592,-0.763652 -0.45713,0.590997 c -0.6875,0.888807 -0.57603,1.158704 0.43003,1.041252 l 0.89894,-0.104946 z m -2.26811,0.223376 c 0.10331,-0.325512 0.48899,-1.0469 0.85705,-1.603085 l 0.66921,-1.011244 -0.81113,-0.811138 c -0.83239,-0.832381 -1.39648,-0.819546 -1.39648,0.03178 0,0.264635 -0.1663,0.619173 -0.36956,0.787863 -0.20326,0.16869 -0.30694,0.546174 -0.2304,0.838855 0.0877,0.335561 -0.0856,0.771422 -0.46933,1.179854 -0.63019,0.670801 -0.548,1.223477 0.10175,0.684234 0.28341,-0.23521 0.44461,-0.213435 0.70025,0.09459 0.46053,0.554901 0.72889,0.50067 0.94864,-0.191703 z m 4.74261,0.327257 c 0.0899,-0.14552 -0.0221,-0.264583 -0.24897,-0.264583 -0.22687,0 -0.41249,0.119063 -0.41249,0.264583 0,0.145521 0.11204,0.264584 0.24897,0.264584 0.13693,0 0.32255,-0.119063 0.41249,-0.264584 z m 1.45521,-0.264583 c 0,-0.145521 -0.0525,-0.264583 -0.11668,-0.264583 -0.0642,0 -0.19026,0.119062 -0.2802,0.264583 -0.0899,0.145521 -0.0374,0.264583 0.11668,0.264583 0.15411,0 0.2802,-0.119062 0.2802,-0.264583 z m 2.91041,-0.0083 c 0,-0.376958 -0.69863,-0.610876 -1.09424,-0.366375 -0.23383,0.144514 -0.18138,0.25795 0.18576,0.401724 0.72381,0.283446 0.90848,0.27626 0.90848,-0.03535 z m -12.43541,-0.396875 c 0,-0.222847 -0.1866,-0.476782 -0.41466,-0.564298 -0.49761,-0.190951 -1.04025,0.27727 -0.79022,0.681841 0.26954,0.436114 1.20488,0.344866 1.20488,-0.117542 z m 14.50351,-0.45698 c 0.0667,-0.577647 -0.0244,-0.72534 -0.44741,-0.72534 -0.66803,0 -0.91044,0.378414 -0.68912,1.075748 0.24651,0.77667 1.03448,0.533728 1.13653,-0.350406 z m -29.14724,0.29753 c -0.35011,-0.203504 -0.57125,-0.201225 -0.78052,0.008 -0.21295,0.212946 -0.0807,0.289823 0.48852,0.283955 0.68424,-0.0071 0.72026,-0.04307 0.292,-0.292 z m 23.30883,-0.415546 c 0.47694,-0.64011 0.4412,-0.699218 -0.72942,-1.206367 -1.83851,-0.7965 -2.27601,-0.444575 -1.51954,1.222302 0.28284,0.623233 0.44567,0.706978 1.12448,0.578352 0.43656,-0.08272 0.94258,-0.350152 1.12448,-0.594287 z m 2.18281,0.186426 c 0,-0.145521 -0.12609,-0.264583 -0.2802,-0.264583 -0.1541,0 -0.20661,0.119062 -0.11667,0.264583 0.0899,0.145521 0.21603,0.264583 0.2802,0.264583 0.0642,0 0.11667,-0.119062 0.11667,-0.264583 z m -21.16666,-0.79375 c 0,-0.959902 -0.29025,-1.019602 -0.69656,-0.143274 -0.31873,0.687445 -0.22717,0.937024 0.34378,0.937024 0.21559,0 0.35278,-0.308681 0.35278,-0.79375 z m 11.78965,-0.239194 c -0.26618,-0.430687 -0.93494,-0.350974 -1.12089,0.133605 -0.22556,0.587809 0.47907,0.977124 0.93806,0.518285 0.19912,-0.199054 0.28139,-0.492404 0.18283,-0.65189 z m 11.14187,0.614035 c 0.19372,-0.504828 -0.78977,-1.576477 -1.209,-1.317377 -0.38564,0.238341 -0.37117,1.021391 0.0262,1.418786 0.44292,0.442919 0.99196,0.395845 1.18277,-0.101409 z m -28.75236,-0.226934 c 0,-0.06417 -0.13746,-0.201631 -0.30546,-0.305464 -0.18926,-0.116967 -0.23364,-0.07258 -0.11668,0.116677 0.1885,0.304999 0.42214,0.409486 0.42214,0.188787 z m 4.49792,-0.709471 c 0,-0.127702 -0.23812,-0.232186 -0.52917,-0.232186 -0.50844,0 -0.7173,0.517423 -0.35507,0.879649 0.2003,0.200298 0.88424,-0.300501 0.88424,-0.647463 z m 10.62153,0.207279 c -0.13864,-0.168945 -0.3068,-0.60483 -0.37369,-0.968632 -0.0936,-0.509383 -0.12989,-0.443484 -0.15764,0.286632 -0.038,1.001062 0.14464,1.383956 0.54289,1.137828 0.14263,-0.08815 0.13793,-0.273673 -0.0116,-0.455828 z m 11.86805,-0.04259 c 0,-0.218281 -0.10632,-0.396875 -0.23627,-0.396875 -0.12995,0 -0.30481,0.178594 -0.38857,0.396875 -0.0928,0.241753 -5.3e-4,0.396875 0.23627,0.396875 0.21372,0 0.38857,-0.178594 0.38857,-0.396875 z m -24.16527,-0.308681 c -0.097,-0.09701 -0.25577,-0.09701 -0.35278,0 -0.097,0.09701 -0.0176,0.176389 0.17639,0.176389 0.19402,0 0.2734,-0.07937 0.17639,-0.176389 z m 9.99154,-0.05822 c 0.0797,-0.129032 -0.0323,-0.381736 -0.24897,-0.561563 -0.21668,-0.179828 -0.39396,-0.615722 -0.39396,-0.968655 0,-0.352932 -0.31094,-0.929858 -0.69097,-1.282057 -0.64948,-0.601923 -0.73683,-0.616639 -1.4552,-0.245155 -0.70141,0.362711 -0.76425,0.514301 -0.76425,1.84362 v 1.448414 h 1.70418 c 0.93729,0 1.76942,-0.105572 1.84917,-0.234604 z m 3.80161,-0.452709 c 0.11077,-0.771504 -0.60737,-1.339947 -1.13725,-0.900187 -0.21828,0.181158 -0.39688,0.543002 -0.39688,0.804098 0,0.90738 1.40501,0.995381 1.53413,0.09609 z m 13.28254,-0.106437 c 0,-0.621449 -0.11667,-0.79375 -0.53747,-0.79375 -0.59303,0 -0.92606,0.574852 -0.68977,1.190625 0.0838,0.218282 0.39416,0.396875 0.68977,0.396875 0.4208,0 0.53747,-0.172301 0.53747,-0.79375 z m 1.05833,0.132292 c 0,-0.363802 -0.11906,-0.661458 -0.26458,-0.661458 -0.14552,0 -0.26458,0.297656 -0.26458,0.661458 0,0.363802 0.11906,0.661458 0.26458,0.661458 0.14552,0 0.26458,-0.297656 0.26458,-0.661458 z m -32.89652,0.220486 c -0.097,-0.09701 -0.25577,-0.09701 -0.35278,0 -0.097,0.09701 -0.0176,0.176389 0.17639,0.176389 0.19402,0 0.2734,-0.07937 0.17639,-0.176389 z m 27.02532,-0.286632 c -0.1074,-0.5577 -0.57697,-0.522534 -0.69663,0.05217 -0.0499,0.239709 0.0959,0.410851 0.35013,0.410851 0.27251,0 0.40228,-0.173407 0.3465,-0.463021 z m -26.15179,0 c -0.0175,-0.41276 -0.68638,-1.066568 -1.18881,-1.162039 -0.40943,-0.0778 -0.54061,-0.350917 -0.60588,-1.261417 -0.0538,-0.750589 0.0399,-1.240242 0.26458,-1.382728 0.26334,-0.166992 0.23659,-0.221593 -0.11008,-0.22466 -0.54571,-0.0048 -0.80243,0.840333 -0.68492,2.254822 0.0747,0.899379 0.18462,1.043558 0.94446,1.239115 0.47294,0.12172 0.85989,0.336966 0.85989,0.478326 0,0.14136 0.11907,0.257019 0.26459,0.257019 0.14552,0 0.26079,-0.0893 0.25617,-0.198438 z m 3.18341,-0.188131 c 0,-0.202008 -1.14189,-1.200931 -1.37281,-1.200931 -0.47489,0 -0.17115,0.523227 0.51291,0.883537 0.91403,0.48144 0.8599,0.461459 0.8599,0.317394 z m 3.57058,-0.140503 c 0.0892,-0.144368 0.0575,-0.449548 -0.0704,-0.678176 -0.2077,-0.371124 -0.2684,-0.372591 -0.56627,-0.01369 -0.33474,0.40334 -0.19554,0.954351 0.24109,0.954351 0.12834,0 0.30636,-0.118119 0.39558,-0.262488 z m 8.07109,-0.08147 c 0,-0.38125 -0.51694,-0.978958 -0.84667,-0.978958 -0.25566,0 -0.28331,0.898499 -0.0353,1.146527 0.30291,0.30291 0.88195,0.192893 0.88195,-0.167569 z m 4.38901,-0.646889 c -0.28903,-0.289031 -0.48722,0.170618 -0.27971,0.648707 0.19676,0.453328 0.21103,0.452915 0.32066,-0.0093 0.0631,-0.266052 0.0447,-0.553786 -0.041,-0.63941 z m 9.88918,0.479075 c 0.39759,-0.742913 0.3404,-0.865359 -0.25528,-0.546561 -0.29104,0.155761 -0.52916,0.457606 -0.52916,0.670767 0,0.55234 0.46146,0.479272 0.78444,-0.124206 z m -24.68238,-0.176389 c 0.19162,-0.499336 -0.4724,-1.016464 -0.743,-0.578636 -0.21946,0.355101 -0.003,1.002214 0.33588,1.002214 0.13452,0 0.31773,-0.19061 0.40712,-0.423578 z m -3.48644,-0.105589 c 0.0899,-0.145521 0.0374,-0.264583 -0.11668,-0.264583 -0.1541,0 -0.28019,0.119062 -0.28019,0.264583 0,0.145521 0.0525,0.264584 0.11667,0.264584 0.0642,0 0.19026,-0.119063 0.2802,-0.264584 z m 20.0112,-0.889768 c -0.61186,-0.631277 -0.92536,-1.265416 -1.07911,-2.182812 -0.21056,-1.256252 -0.21761,-1.264317 -0.24784,-0.283463 -0.0362,1.173699 0.28412,1.868793 1.25548,2.724578 1.02413,0.902272 1.06238,0.764052 0.0715,-0.258303 z m 3.21874,0.645484 c 0.72193,-0.274476 1.16574,-1.343216 0.55779,-1.343216 -0.20466,0 -0.3721,-0.174857 -0.3721,-0.388571 0,-0.236694 -0.15513,-0.329045 -0.39688,-0.236276 -0.27316,0.104822 -0.39687,-0.01661 -0.39687,-0.389564 0,-0.298022 -0.10457,-0.606484 -0.23237,-0.685471 -0.41605,-0.257132 -0.78354,2.712445 -0.38499,3.110993 0.2352,0.235206 0.46113,0.222689 1.22542,-0.06789 z m -23.64085,-0.400261 c 0.23407,-0.282036 0.24002,-0.520703 0.0231,-0.926042 -0.44786,-0.836832 -0.80992,-0.650306 -0.7365,0.379432 0.0719,1.008486 0.22973,1.12941 0.71341,0.54661 z m 16.144,-0.0053 c 0.47023,-0.566585 0.10139,-0.937631 -0.93204,-0.937631 -0.72248,0 -0.91042,0.105231 -0.91042,0.509767 0,0.459326 0.36772,0.694327 1.22437,0.782458 0.16408,0.01688 0.44222,-0.142686 0.61809,-0.354593 z m -13.86211,-0.408464 c 0,-0.291042 -0.0865,-0.529167 -0.19227,-0.529167 -0.30775,0 -0.53417,0.505123 -0.35579,0.79375 0.26896,0.435196 0.54806,0.300458 0.54806,-0.264583 z m 3.22358,0.06615 c 0.15677,-0.476032 -0.60024,-0.40772 -1.01461,0.09156 -0.30598,0.368688 -0.27074,0.410665 0.27761,0.330729 0.34544,-0.05036 0.67709,-0.240385 0.737,-0.422286 z m 12.76482,0.08176 c 0,-0.209694 -0.11907,-0.454845 -0.26459,-0.544782 -0.14552,-0.08994 -0.26458,0.08163 -0.26458,0.38126 0,0.29963 0.11906,0.544782 0.26458,0.544782 0.14552,0 0.26459,-0.171567 0.26459,-0.38126 z m 12.43541,-0.147907 c 0,-0.589385 -0.51853,-0.69855 -1.00541,-0.211667 -0.49322,0.493216 -0.37825,0.740834 0.34396,0.740834 0.48506,0 0.66145,-0.141111 0.66145,-0.529167 z m -11.72551,-0.314193 c -0.0845,-0.211067 -0.14715,-0.148372 -0.15985,0.159853 -0.0115,0.278915 0.0511,0.435184 0.13897,0.347265 0.0879,-0.08792 0.0973,-0.316122 0.0209,-0.507118 z m 7.09531,0.314193 c 0.0899,-0.145521 -0.0746,-0.264583 -0.36565,-0.264583 -0.29104,0 -0.60275,0.119062 -0.69269,0.264583 -0.0899,0.145521 0.0746,0.264583 0.36565,0.264583 0.29104,0 0.60275,-0.119062 0.69269,-0.264583 z m -19.71146,-0.582083 c 0,-0.427413 -0.0782,-0.503844 -0.29445,-0.287637 -0.16194,0.161945 -0.21445,0.423882 -0.11668,0.582083 0.27369,0.442828 0.41113,0.344393 0.41113,-0.294446 z m 7.54188,0.31547 c 0.2617,-0.423447 -0.63691,-1.18794 -0.98601,-0.838842 -0.20932,0.209315 -0.19566,0.402083 0.0494,0.697366 0.39207,0.472411 0.70305,0.519384 0.93661,0.141476 z m -9.53998,-0.240351 c 0.23576,-0.381463 -0.32971,-1.609703 -0.74108,-1.609703 -0.70621,0 -0.98394,0.648949 -0.54558,1.274802 0.41904,0.598256 1.02622,0.756298 1.28666,0.334901 z m 17.0415,-1.286227 c 0.20333,-0.953337 0.17805,-1.337637 -0.11553,-1.756788 -0.521,-0.743829 -0.47564,-1.053259 0.28733,-1.959996 0.61206,-0.727384 0.67865,-1.633775 0.12004,-1.633775 -0.2615,0 -2.10608,2.209101 -2.10608,2.52227 0,0.120347 0.426,-0.278869 0.94666,-0.887145 0.52066,-0.608278 1.07872,-1.105959 1.24013,-1.105959 0.16141,0 -0.01,0.327422 -0.3803,0.727605 -1.06662,1.151845 -1.58234,2.406629 -1.2468,3.033581 0.20217,0.377765 0.20045,0.611592 -0.006,0.818053 -0.37343,0.373434 -0.36975,1.0551 0.008,1.432586 0.51574,0.515736 0.98379,0.07099 1.25283,-1.190432 z m -4.08483,1.103425 c 0.47442,-0.182054 0.5677,-1.303467 0.13087,-1.573441 -0.37863,-0.234009 -0.69187,0.111309 -0.91295,1.006436 -0.1836,0.743435 -0.009,0.87038 0.78208,0.567005 z m 11.79559,-0.103984 c 0,-0.145521 -0.17859,-0.264583 -0.39687,-0.264583 -0.21828,0 -0.39688,0.119062 -0.39688,0.264583 0,0.145521 0.1786,0.264583 0.39688,0.264583 0.21828,0 0.39687,-0.119062 0.39687,-0.264583 z m -1.98437,-0.264583 c -0.0899,-0.145521 -0.27556,-0.264584 -0.41249,-0.264584 -0.13693,0 -0.24897,0.119063 -0.24897,0.264584 0,0.14552 0.18562,0.264583 0.41249,0.264583 0.22687,0 0.33891,-0.119063 0.24897,-0.264583 z m -21.29896,-0.396875 c 0,-0.246945 -0.24988,-0.396875 -0.66146,-0.396875 -0.64237,0 -0.8448,0.257632 -0.48507,0.617361 0.33284,0.33284 1.14653,0.176361 1.14653,-0.220486 z m 6.61458,0.132291 c 0,-0.145521 -0.11906,-0.264583 -0.26458,-0.264583 -0.14552,0 -0.26458,0.119062 -0.26458,0.264583 0,0.145521 0.11906,0.264584 0.26458,0.264584 0.14552,0 0.26458,-0.119063 0.26458,-0.264584 z m 3.80362,-0.325764 c 0.44082,-0.700008 -0.36262,-1.422712 -1.12692,-1.013672 -0.63079,0.33759 -0.71689,0.81216 -0.23481,1.294242 0.41899,0.418992 0.99606,0.300093 1.36173,-0.28057 z m 9.79498,0.169596 c 0.18562,-0.483728 -0.0386,-0.974318 -0.35577,-0.778313 -0.11791,0.07287 -0.27713,0.372465 -0.35383,0.665775 -0.1676,0.64091 0.46815,0.741737 0.7096,0.112538 z m -23.65276,-0.108415 c 0,-0.145521 -0.11907,-0.264583 -0.26459,-0.264583 -0.14552,0 -0.26458,0.119062 -0.26458,0.264583 0,0.145521 0.11906,0.264583 0.26458,0.264583 0.14552,0 0.26459,-0.119062 0.26459,-0.264583 z m 11.90625,0.01562 c 0,-0.136934 -0.11907,-0.322554 -0.26459,-0.412491 -0.14552,-0.08994 -0.26458,0.0221 -0.26458,0.248968 0,0.22687 0.11906,0.41249 0.26458,0.41249 0.14552,0 0.26459,-0.112035 0.26459,-0.248967 z m -14.81667,-0.44335 c 0,-0.05579 -0.23812,-0.101433 -0.52917,-0.101433 -0.29104,0 -0.52916,0.107916 -0.52916,0.239813 0,0.131898 0.23812,0.177542 0.52916,0.101433 0.29105,-0.07611 0.52917,-0.184025 0.52917,-0.239813 z m 25.40405,-0.03529 c 0.002,-0.254661 0.11113,-0.6322 0.242,-0.838975 0.20326,-0.321131 0.3336,-0.313289 0.89381,0.05378 l 0.65585,0.42973 0.17657,-1.177478 c 0.21349,-1.423629 0.14172,-1.553751 -1.39422,-2.527819 -1.35283,-0.857937 -1.88509,-0.989466 -1.33839,-0.330737 0.26088,0.314346 0.33849,1.057591 0.27629,2.645834 -0.0571,1.456385 0.0106,2.208689 0.19876,2.208689 0.1569,0 0.2871,-0.208359 0.28933,-0.463021 z m -14.15926,-1.597436 c 0,-0.764856 0.13176,-1.040056 0.59531,-1.243429 0.61054,-0.267858 0.75084,-0.983596 0.42855,-2.186218 -0.13165,-0.491249 -0.34409,-0.595313 -1.21532,-0.595313 -0.85403,0 -1.02509,0.07997 -0.89518,0.418515 0.0883,0.230183 0.1606,1.565384 0.1606,2.967113 0,2.427422 0.022,2.52656 0.46302,2.085091 0.27459,-0.274878 0.46302,-0.863243 0.46302,-1.445759 z m 2.74343,1.4408 c 0.32376,-0.390107 0.14285,-0.70326 -0.40628,-0.70326 -0.19402,0 -0.35277,0.238125 -0.35277,0.529167 0,0.610484 0.33342,0.686956 0.75905,0.174093 z m 15.9097,0.09049 c 0,-0.145521 0.22839,-0.264583 0.50752,-0.264583 0.74853,0 1.3625,-0.286089 1.19513,-0.556891 -0.0805,-0.130273 -0.3573,-0.236859 -0.61509,-0.236859 -0.2578,0 -1.05444,-0.297158 -1.77033,-0.660351 -0.71588,-0.363193 -1.33137,-0.660849 -1.36775,-0.661459 -0.0364,-6.09e-4 -0.0661,0.594206 -0.0661,1.32181 v 1.322917 h 1.05833 c 0.58209,0 1.05834,-0.119063 1.05834,-0.264584 z m -28.34214,-0.239377 c 0.3019,-0.191214 0.27898,-0.349476 -0.1323,-0.913676 -0.78975,-1.083407 -1.10301,-0.84327 -0.72755,0.557741 0.17415,0.649851 0.30819,0.705336 0.85985,0.355935 z m 17.7588,0.1227 c 0,-0.06417 -0.11906,-0.190261 -0.26458,-0.280198 -0.14552,-0.08994 -0.26458,-0.03743 -0.26458,0.116677 0,0.154109 0.11906,0.280198 0.26458,0.280198 0.14552,0 0.26458,-0.0525 0.26458,-0.116677 z m 5.07635,-1.801552 c -0.12983,-2.482511 -0.47436,-2.87585 -1.44904,-1.654326 -0.85968,1.077405 -0.76957,2.020144 0.23693,2.478736 0.35669,0.16252 0.71746,0.475115 0.8017,0.694655 0.3428,0.893306 0.50515,0.29238 0.41041,-1.519065 z m -24.21454,1.477257 c -0.097,-0.09701 -0.25576,-0.09701 -0.35278,0 -0.097,0.09701 -0.0176,0.176389 0.17639,0.176389 0.19403,0 0.2734,-0.07937 0.17639,-0.176389 z m 2.5552,-0.194619 c 0.16539,-0.431017 -0.0568,-0.736436 -0.38724,-0.532226 -0.30055,0.185749 -0.29372,0.903234 0.009,0.903234 0.12995,0 0.30034,-0.166954 0.37865,-0.371008 z m 3.03709,-0.587504 c 0.10781,-0.755621 -0.67755,-1.033548 -1.30809,-0.462914 -0.38169,0.345426 -0.42221,0.525067 -0.18333,0.812897 0.44768,0.53942 1.39628,0.316818 1.49142,-0.349983 z m 10.3709,-0.142291 c 0,-0.122163 -0.29765,-0.222114 -0.66145,-0.222114 -0.48269,0 -0.66146,0.14149 -0.66146,0.523494 0,0.462374 0.0772,0.488307 0.66146,0.222114 0.3638,-0.165759 0.66145,-0.401331 0.66145,-0.523494 z m 2.38125,0.571636 c 0,-0.145521 -0.22838,-0.264583 -0.50752,-0.264583 -0.27914,0 -0.69586,-0.07227 -0.92605,-0.160599 -0.23018,-0.08833 -0.41851,-0.03708 -0.41851,0.113889 0,0.244194 0.52829,0.431655 1.52135,0.539845 0.18191,0.01982 0.33073,-0.08303 0.33073,-0.228552 z m -11.64166,-0.761353 c 0,-0.273223 -0.1786,-0.64499 -0.39688,-0.826147 -0.42887,-0.35593 -0.47846,-0.199116 -0.23011,0.727604 0.19331,0.721348 0.62699,0.789508 0.62699,0.09854 z m 5.29166,-0.460502 c 0,-0.218281 -0.11906,-0.32329 -0.26458,-0.233353 -0.14552,0.08994 -0.26458,0.342115 -0.26458,0.560396 0,0.218282 0.11906,0.323291 0.26458,0.233354 0.14552,-0.08994 0.26458,-0.342115 0.26458,-0.560397 z m 18.81054,0.129531 c -0.36019,-0.386618 -0.67445,-0.501095 -1.0025,-0.365178 -0.41287,0.171067 -0.36993,0.246 0.31592,0.551224 1.1266,0.501374 1.28661,0.458015 0.68658,-0.186046 z m -28.7574,-0.592655 c -0.22428,-0.730977 -0.28101,-0.783668 -0.61887,-0.574859 -0.30328,0.187439 -0.38369,1.011801 -0.12402,1.271469 0.36463,0.364631 0.91125,-0.147929 0.74289,-0.69661 z m 17.79617,0.71484 c -0.097,-0.09701 -0.25576,-0.09701 -0.35278,0 -0.097,0.09701 -0.0176,0.176389 0.17639,0.176389 0.19403,0 0.2734,-0.07937 0.17639,-0.176389 z m -15.91207,-0.418923 c 0.0675,-0.181901 0.0306,-0.668781 -0.0821,-1.081955 l -0.20483,-0.751226 -0.62126,0.503067 c -0.46002,0.3725 -0.57357,0.65331 -0.43753,1.081954 0.199,0.626977 1.14074,0.800639 1.34573,0.24816 z m 15.4364,-0.02434 c 0.32376,-0.390107 0.14285,-0.703259 -0.40628,-0.703259 -0.19402,0 -0.35277,0.238125 -0.35277,0.529166 0,0.610484 0.33342,0.686956 0.75905,0.174093 z m -1.68509,-0.438676 c 0.0899,-0.145521 0.0374,-0.264583 -0.11668,-0.264583 -0.15411,0 -0.2802,0.119062 -0.2802,0.264583 0,0.145521 0.0525,0.264583 0.11668,0.264583 0.0642,0 0.19026,-0.119062 0.2802,-0.264583 z m 11.90823,0.09492 c 0.377,-0.144671 0.33493,-0.255147 -0.28563,-0.749959 -0.90258,-0.719698 -0.65796,-1.31922 0.44803,-1.098023 0.41891,0.08378 0.76006,0.06601 0.75812,-0.03949 -0.003,-0.163533 -0.79806,-0.480417 -3.23761,-1.290427 -0.31343,-0.10407 -0.46302,-0.01555 -0.46302,0.273995 0,0.235254 -0.11609,0.427734 -0.25797,0.427734 -0.14459,0 -0.18931,-0.343279 -0.10176,-0.781046 0.13277,-0.663822 0.0623,-0.8044 -0.46963,-0.936647 -0.67872,-0.168746 -2.6605,0.413302 -2.79651,0.821332 -0.0461,0.138229 0.21908,0.276391 0.58924,0.307026 0.9102,0.07533 1.83524,0.59942 3.5658,2.020235 1.56962,1.288684 1.59088,1.298558 2.25094,1.04527 z m -24.07907,-0.88867 c 0,-0.754229 -0.8351,-1.074025 -1.08744,-0.41643 -0.24072,0.627299 0.0999,1.260828 0.62362,1.159965 0.2929,-0.05641 0.46382,-0.330405 0.46382,-0.743535 z m -4.51999,0.09442 c 0.2215,-0.57723 -0.0726,-0.84553 -0.38513,-0.351343 -0.31288,0.494734 -0.31955,0.786088 -0.018,0.786088 0.12995,0 0.31135,-0.195636 0.40311,-0.434745 z m 15.41201,0.258356 c -0.097,-0.09701 -0.25577,-0.09701 -0.35278,0 -0.097,0.09701 -0.0176,0.176389 0.17639,0.176389 0.19402,0 0.2734,-0.07937 0.17639,-0.176389 z m -9.84872,-0.683507 c -0.21349,-0.694529 -0.33528,-0.862356 -0.50364,-0.694001 -0.20211,0.20211 0.16476,1.289313 0.43507,1.289313 0.1387,0 0.16946,-0.26707 0.0686,-0.595312 z m 11.18817,0.170876 c -0.0879,-0.08792 -0.31612,-0.09732 -0.50712,-0.02089 -0.21107,0.08446 -0.14837,0.147157 0.15985,0.159853 0.27892,0.01149 0.43519,-0.05105 0.34727,-0.138963 z m 2.18832,-0.237022 c 0,-0.277183 -0.27928,-0.396875 -0.92604,-0.396875 -1.43388,0 -1.125,0.721783 0.33073,0.772862 0.36206,0.0127 0.59531,-0.134613 0.59531,-0.375987 z m -17.28677,-0.282368 c 0.0875,-0.228063 0.0476,-0.526165 -0.0887,-0.66245 -0.33413,-0.334129 -1.28462,0.373203 -1.03791,0.772388 0.2718,0.439771 0.94069,0.374497 1.12658,-0.109938 z m 14.70709,0.08739 c 0.25466,-0.02789 0.46302,-0.147992 0.46302,-0.266897 0,-0.118904 -0.20836,-0.291359 -0.46302,-0.383232 -0.25467,-0.09187 -0.77906,-0.385793 -1.16533,-0.653155 -0.73237,-0.506929 -2.07582,-0.664177 -2.07582,-0.242971 0,0.133728 0.20836,0.616851 0.46302,1.073607 0.41653,0.747071 0.55601,0.815045 1.38906,0.676909 0.50933,-0.08446 1.1344,-0.176373 1.38907,-0.204261 z m -13.28134,-0.598872 c -0.0207,-0.392718 -0.61268,-0.320571 -0.75,0.09141 -0.0742,0.222547 0.0468,0.32173 0.32265,0.264583 0.24273,-0.05028 0.43504,-0.210476 0.42735,-0.355997 z m 15.19957,-0.132292 c 0.0899,-0.145521 -0.0887,-0.264583 -0.39688,-0.264583 -0.30822,0 -0.48681,0.119062 -0.39687,0.264583 0.0899,0.145521 0.26853,0.264583 0.39687,0.264583 0.12834,0 0.30694,-0.119062 0.39688,-0.264583 z m 11.04635,-0.537411 c -0.87926,-0.353417 -0.77648,-1.292255 0.18103,-1.653674 0.82462,-0.311261 1.30942,-1.248498 0.64579,-1.248498 -0.20922,0 -0.4435,0.164409 -0.52061,0.365355 -0.10485,0.27323 -0.37487,0.312428 -1.07087,0.155454 -1.13455,-0.255882 -3.55869,0.442132 -2.96627,0.854116 0.7697,0.535274 3.55402,1.798759 3.92937,1.783095 0.22579,-0.0094 0.14024,-0.119714 -0.19844,-0.255848 z m 1.78189,0.07439 c -0.002,-0.10914 -0.11947,-0.377031 -0.26054,-0.595312 -0.2074,-0.320929 -0.25725,-0.282956 -0.26053,0.198437 -0.002,0.327422 0.11501,0.595313 0.26053,0.595313 0.14552,0 0.26276,-0.0893 0.26054,-0.198438 z m -30.29074,-0.330729 c 0.0899,-0.145521 0.10399,-0.264583 0.0312,-0.264583 -0.0728,0 -0.20587,0.119062 -0.29581,0.264583 -0.0899,0.145521 -0.10399,0.264583 -0.0312,0.264583 0.0728,0 0.20588,-0.119062 0.29582,-0.264583 z m 16.27187,0 c 0,-0.145521 -0.0525,-0.264583 -0.11668,-0.264583 -0.0642,0 -0.19026,0.119062 -0.28019,0.264583 -0.0899,0.145521 -0.0374,0.264583 0.11667,0.264583 0.15411,0 0.2802,-0.119062 0.2802,-0.264583 z m 2.27727,-0.153931 c -0.0883,-0.230183 -0.1606,-0.646902 -0.1606,-0.926042 0,-0.47536 -0.22738,-0.507527 -3.58749,-0.507527 -2.32429,0 -3.52991,0.09316 -3.42397,0.264583 0.09,0.145678 1.26852,0.264584 2.62232,0.264584 2.17483,0 2.56263,0.07378 3.35782,0.6388 1.06784,0.75875 1.41045,0.835097 1.19192,0.265602 z m -13.91894,0.04995 c 0,-0.05719 -0.17859,-0.172517 -0.39687,-0.256279 -0.21828,-0.08376 -0.39688,-0.03697 -0.39688,0.103984 0,0.140953 0.1786,0.256279 0.39688,0.256279 0.21828,0 0.39687,-0.04679 0.39687,-0.103984 z m 24.74942,-0.40758 c -0.2141,-0.346434 -0.93692,-0.374981 -0.93692,-0.037 0,0.134851 0.20836,0.291529 0.46302,0.348174 0.5774,0.128431 0.69704,0.04987 0.4739,-0.311171 z m -27.21886,-0.193992 c -0.097,-0.09701 -0.17639,-0.01764 -0.17639,0.176389 0,0.194028 0.0794,0.273403 0.17639,0.176389 0.097,-0.09701 0.097,-0.255764 0,-0.352778 z m 1.23452,0.05669 c 0.46709,-0.353981 0.4653,-0.377933 -0.0488,-0.653044 -0.75439,-0.403734 -0.83299,-0.368264 -0.83299,0.375873 0,0.747714 0.18437,0.805672 0.88174,0.277171 z m -1.67549,-0.277171 c 0,-0.445307 -0.0485,-0.463202 -0.63982,-0.236275 -0.59119,0.226859 -0.52018,0.63315 0.11065,0.63315 0.29398,0 0.52917,-0.176389 0.52917,-0.396875 z m 17.99166,0.280199 c 0,-0.06417 -0.11906,-0.190262 -0.26458,-0.280199 -0.14552,-0.08994 -0.26458,-0.03743 -0.26458,0.116677 0,0.154109 0.11906,0.280198 0.26458,0.280198 0.14552,0 0.26458,-0.0525 0.26458,-0.116676 z m 0.55061,-0.637019 c -0.15731,-0.293938 -0.28785,-0.988745 -0.29007,-1.544015 -0.005,-1.317766 -0.39054,-1.978697 -0.62013,-1.063906 -0.28711,1.143938 -1.4385,1.20532 -1.9702,0.105036 -0.19447,-0.402411 -0.28571,-0.452289 -0.29813,-0.162978 -0.0257,0.597608 1.19572,1.666028 1.68842,1.476961 0.25534,-0.09798 0.41034,-0.01145 0.41034,0.229097 0,0.411973 1.07687,1.783157 1.25809,1.601935 0.0592,-0.05923 -0.021,-0.348191 -0.17832,-0.64213 z m 2.62439,-0.469042 c 1.62375,-0.554623 1.8422,-0.74994 1.84804,-1.652392 0.003,-0.5209 -0.096,-0.59935 -0.59127,-0.466634 -0.32742,0.08775 -0.80367,0.161164 -1.05833,0.163151 -0.28783,0.0022 -0.46302,0.206971 -0.46302,0.541083 0,0.295609 -0.19478,0.612214 -0.43284,0.703566 -0.62533,0.239963 -1.29792,-0.294853 -1.21997,-0.970073 0.0904,-0.782931 -0.56801,-0.55393 -0.68399,0.237902 -0.1141,0.779008 0.4754,2.197056 0.85326,2.052506 0.1611,-0.06163 0.94776,-0.33573 1.74812,-0.609109 z m -7.14375,-0.863899 c 0,-0.28021 -1.56319,-0.547997 -1.71979,-0.294614 -0.19399,0.313894 -1.83411,-0.06011 -2.48308,-0.56623 -0.3984,-0.310711 -0.49105,-0.492103 -0.25135,-0.492103 0.2088,0 0.50878,0.129143 0.66662,0.286984 0.15785,0.157842 0.56861,0.240048 0.91282,0.182681 0.48058,-0.0801 0.28809,-0.207448 -0.82938,-0.54873 -1.02136,-0.311926 -1.69186,-0.375745 -2.24896,-0.21406 l -0.79375,0.230366 1.05833,0.436006 c 0.58209,0.239804 1.41552,0.603498 1.85209,0.808209 0.87629,0.410907 3.83645,0.543227 3.83645,0.171491 z m 1.5875,-0.01441 c 0,-0.443554 -0.46925,-0.553386 -0.62543,-0.146387 -0.0922,0.240151 8.3e-4,0.395355 0.23686,0.395355 0.21372,0 0.38857,-0.112036 0.38857,-0.248968 z m 9.80729,-0.559392 c 0.51905,-0.261734 1.09141,-0.653809 1.27189,-0.871277 0.27653,-0.333203 0.24189,-0.372839 -0.22026,-0.251985 -0.30163,0.07888 -0.61311,0.248104 -0.6922,0.37606 -0.0791,0.127955 -0.67254,0.232645 -1.31879,0.232645 -1.08518,0 -1.17501,0.05193 -1.17501,0.679289 0,0.762399 0.34917,0.73545 2.13437,-0.164732 z m -15.9809,0.367388 c -0.097,-0.09701 -0.25576,-0.09701 -0.35278,0 -0.097,0.09701 -0.0176,0.176389 0.17639,0.176389 0.19403,0 0.27341,-0.07937 0.17639,-0.176389 z m 17.5507,-0.08819 c 0.21828,-0.141064 0.28912,-0.258303 0.15743,-0.260531 -0.1317,-0.0022 -0.0233,-0.242907 0.24091,-0.534841 0.2642,-0.291934 0.40171,-0.609434 0.30559,-0.705555 -0.0961,-0.09612 -0.20453,-0.124563 -0.24091,-0.0632 -0.0364,0.06136 -0.41585,0.497923 -0.84325,0.970139 -0.75765,0.837079 -0.53475,1.185295 0.38023,0.59399 z m -6.61459,-0.544781 c 0,-0.29963 -0.11906,-0.471197 -0.26458,-0.38126 -0.14552,0.08994 -0.26458,0.335088 -0.26458,0.544781 0,0.209693 0.11906,0.38126 0.26458,0.38126 0.14552,0 0.26458,-0.245151 0.26458,-0.544781 z m 2.11667,-1.054807 c 0.28984,-0.196138 0.18281,-0.220685 -0.39687,-0.09102 -0.97286,0.217612 -1.18404,0.369048 -0.50712,0.36364 0.27891,-0.0022 0.68571,-0.124907 0.90399,-0.27262 z m 2.82873,0.06817 c 0.17337,-0.110227 -0.15402,-0.200399 -0.7276,-0.200399 -0.57354,0 -1.0428,0.092 -1.0428,0.204451 0,0.262312 1.35635,0.259208 1.7704,-0.0041 z m -11.1631,18.99392 -1.85209,-0.17114 1.77032,-0.04672 c 0.97368,-0.0257 1.84391,0.07234 1.93385,0.217862 0.0899,0.145521 0.12673,0.243558 0.0818,0.217861 -0.045,-0.0257 -0.9152,-0.123734 -1.93384,-0.217861 z m -18.75711,-13.383098 c -0.0883,-0.230184 -0.14439,-0.79573 -0.12457,-1.256771 0.0268,-0.622611 0.0655,-0.68511 0.15069,-0.242944 0.15354,0.797158 0.46539,0.756825 0.51289,-0.06633 0.0247,-0.428588 -0.1016,-0.661271 -0.35904,-0.661271 -0.23405,0 -0.33809,-0.154019 -0.2533,-0.374979 0.0791,-0.206238 -0.0272,-0.440626 -0.23627,-0.520862 -0.29413,-0.112869 -0.38017,0.111253 -0.38017,0.990316 0,0.869371 -0.15509,1.281904 -0.66042,1.756628 -0.71124,0.668184 -1.25865,0.559336 -0.58332,-0.115991 0.62358,-0.623585 0.85643,-2.034858 0.39222,-2.377231 -0.36855,-0.271821 -1.00056,-1.275804 -1.00056,-1.589446 0,-0.08233 0.13005,-0.149685 0.28899,-0.149685 0.15895,0 0.57443,-0.224521 0.92329,-0.498935 0.56308,-0.442915 0.74601,-0.461223 1.62924,-0.16306 0.75176,0.253781 1.05681,0.5374 1.24809,1.160393 0.13923,0.453485 0.39901,0.824518 0.57729,0.824518 0.33754,0 1.21015,-1.116323 1.49945,-1.918229 0.21337,-0.59144 0.939,-0.582568 1.72363,0.02107 l 0.61394,0.472326 -0.71428,0.325447 c -0.39285,0.178995 -0.78299,0.256734 -0.86697,0.172754 -0.084,-0.08398 0.10866,-0.221037 0.42809,-0.30457 0.31943,-0.08353 0.51427,-0.259501 0.43298,-0.391039 -0.19262,-0.311663 -2.91144,2.012972 -3.40642,2.912548 -0.21005,0.381736 -0.58855,1.081019 -0.84112,1.553962 -0.51026,0.955483 -0.75533,1.064267 -0.99435,0.441381 z m 1.13101,-3.087215 c -0.0287,-1.031781 -0.0465,-1.059045 -0.21516,-0.330729 -0.10113,0.436562 -0.13383,0.942578 -0.0727,1.124479 0.21067,0.626701 0.31906,0.327799 0.28784,-0.79375 z m -1.04672,-1.723676 c -0.62297,-0.436343 -1.56781,-0.192052 -1.56781,0.40536 0,0.33597 0.0706,0.361406 0.3175,0.114462 0.3926,-0.392601 1.00542,-0.415337 1.00542,-0.0373 0,0.154109 -0.13746,0.195244 -0.30547,0.09141 -0.18728,-0.11575 -0.23372,-0.07271 -0.12002,0.111259 0.1375,0.222485 0.31468,0.219331 0.68542,-0.0122 0.4888,-0.305261 0.48847,-0.320318 -0.015,-0.672988 z m 9.61084,0.28018 c -0.32743,-0.06306 -0.59532,-0.242101 -0.59532,-0.39786 0,-0.184347 -0.49724,-0.231876 -1.42457,-0.136168 -1.28296,0.132413 -2.01346,-0.08103 -2.01563,-0.588934 -3.5e-4,-0.08004 0.98192,-0.105914 2.18281,-0.0575 1.71799,0.06925 2.28214,0.193798 2.64646,0.584249 0.74123,0.794405 0.63796,0.871978 -0.79375,0.596218 z m -11.51576,-1.152001 c 0.0738,-0.282346 0.29895,-0.513357 0.50026,-0.513357 0.51872,0 0.45345,0.347273 -0.13425,0.714296 -0.43418,0.271155 -0.48253,0.244615 -0.36601,-0.200939 z m 27.85378,-0.777941 c 0,-0.14552 0.11906,-0.264583 0.26458,-0.264583 0.14552,0 0.26458,0.119063 0.26458,0.264583 0,0.145521 -0.11906,0.264584 -0.26458,0.264584 -0.14552,0 -0.26458,-0.119063 -0.26458,-0.264584 z"
       id="path20840" />
  </g>
</svg>
