<?xml version="1.0" encoding="UTF-8" standalone="no"?>
<!-- Created with Inkscape (http://www.inkscape.org/) -->

<svg
   width="76.673538mm"
   height="75.581482mm"
   viewBox="0 0 76.673542 75.581482"
   version="1.1"
   id="svg5"
   inkscape:version="1.1 (c4e8f9ed74, 2021-05-24)"
   sodipodi:docname="ornatey.svg"
   xmlns:inkscape="http://www.inkscape.org/namespaces/inkscape"
   xmlns:sodipodi="http://sodipodi.sourceforge.net/DTD/sodipodi-0.dtd"
   xmlns="http://www.w3.org/2000/svg"
   xmlns:svg="http://www.w3.org/2000/svg">
  <sodipodi:namedview
     id="namedview7"
     pagecolor="#ffffff"
     bordercolor="#666666"
     borderopacity="1.0"
     inkscape:pageshadow="2"
     inkscape:pageopacity="0.0"
     inkscape:pagecheckerboard="0"
     inkscape:document-units="mm"
     showgrid="false"
     inkscape:zoom="0.94615212"
     inkscape:cx="-80.853806"
     inkscape:cy="-153.78077"
     inkscape:window-width="2506"
     inkscape:window-height="1403"
     inkscape:window-x="1974"
     inkscape:window-y="0"
     inkscape:window-maximized="1"
     inkscape:current-layer="layer1" />
  <defs
     id="defs2" />
  <g
     inkscape:label="Layer 1"
     inkscape:groupmode="layer"
     id="layer1"
     transform="translate(-185.03614,-194.38715)">
    <path
       style="fill:#000000;stroke-width:0.613948"
       d="m 186.41753,269.38926 c -1.36321,-0.54846 -1.37967,-0.69135 -1.25104,-10.85918 l 0.13034,-10.30341 0.33012,10.13014 0.33012,10.13013 14.42776,0.32408 14.42777,0.32407 -12.6892,0.13639 c -6.97906,0.075 -13.05714,0.25725 -13.50684,0.40497 -0.44971,0.14772 -1.43927,0.0185 -2.19903,-0.28719 z m 62.55475,0.34233 c 0.15261,-0.15262 2.47507,-0.36364 5.16102,-0.46894 l 4.88354,-0.19145 0.3196,-20.24543 0.31961,-20.24542 0.14086,20.67052 0.14085,20.67052 -5.62149,0.0438 c -3.09181,0.0241 -5.49661,-0.081 -5.34399,-0.23365 z m -32.12598,-0.74312 c 0.4432,-0.17735 0.97273,-0.15554 1.17674,0.0484 0.20401,0.20401 -0.15861,0.34912 -0.80581,0.32246 -0.71521,-0.0295 -0.86069,-0.17494 -0.37093,-0.37092 z m 9.51119,-0.039 c 3.64832,-0.10874 9.45013,-0.10833 12.8929,6.1e-4 3.44278,0.10923 0.45779,0.19819 -6.6333,0.19769 -7.0911,-5e-4 -9.90791,-0.0899 -6.2596,-0.1986 z m -39.85536,-1.49613 c -0.52896,-0.8533 0.58391,-28.12887 1.14769,-28.12887 0.34636,0 0.5173,4.97329 0.4273,12.43244 -0.0825,6.83784 -0.10969,12.98499 -0.0604,13.66034 0.0883,1.21066 0.57199,1.22959 34.47045,1.34846 l 34.38087,0.12058 0.004,-2.26939 c 0.002,-1.24817 0.18435,-16.83707 0.40485,-34.64201 l 0.40116,-32.37261 -26.03716,-0.16661 c -14.32044,-0.0916 -29.9741,-0.09 -34.78591,0.004 l -8.74876,0.17035 v 20.24341 c 0,12.64191 -0.22319,20.24342 -0.59437,20.24342 -0.58466,0 -1.13935,-26.95562 -0.76119,-36.99035 l 0.17932,-4.75809 h 35.92891 35.9289 l -0.3062,10.28362 c -0.1684,5.65599 -0.324,21.76668 -0.34577,35.80153 l -0.0396,25.51791 -35.6668,-0.0391 c -19.61675,-0.0215 -35.78389,-0.22795 -35.92698,-0.45878 z m 3.11338,-2.99786 c -0.22258,-0.36014 -0.30795,-0.73204 -0.18972,-0.82644 0.76473,-0.61061 4.53815,-2.20245 5.22087,-2.20245 0.45463,0 0.82659,-0.26761 0.82659,-0.59469 0,-0.32706 -0.48348,-0.42454 -1.0744,-0.21661 -0.87176,0.30676 -0.9312,0.2236 -0.31511,-0.4409 0.62751,-0.67681 1.00735,-0.58593 2.18839,0.52359 0.78599,0.73841 1.89476,1.34255 2.46392,1.34255 0.56916,0 1.03484,0.27628 1.03484,0.61395 0,0.33767 -0.29258,0.61395 -0.65018,0.61395 -0.3576,0 -0.47944,0.27628 -0.27074,0.61395 0.21393,0.34615 -0.28355,0.61395 -1.1405,0.61395 -0.83597,0 -1.65929,-0.34535 -1.82961,-0.76744 -0.24773,-0.61395 -0.31936,-0.61395 -0.35814,0 -0.0267,0.42209 -0.34336,0.76744 -0.70379,0.76744 -0.36665,0 -0.51206,-0.6085 -0.3301,-1.38139 0.22008,-0.93479 0.0959,-0.83554 -0.38412,0.30698 -0.52943,1.26014 -1.13722,1.68835 -2.39643,1.68835 -0.9279,0 -1.8692,-0.29466 -2.09177,-0.65479 z m 3.40195,-0.5731 c 0,-0.33767 -0.27627,-0.61395 -0.61394,-0.61395 -0.33768,0 -0.61395,0.27628 -0.61395,0.61395 0,0.33767 0.27627,0.61395 0.61395,0.61395 0.33767,0 0.61394,-0.27628 0.61394,-0.61395 z m 48.65536,0.77835 c -1.43511,-0.12925 -2.60928,-0.4954 -2.60928,-0.81365 0,-0.31826 -0.29258,-0.57865 -0.65018,-0.57865 -0.3576,0 -0.47944,0.27628 -0.27074,0.61395 0.20869,0.33767 -0.0217,0.61395 -0.51203,0.61395 -0.49031,0 -1.0335,-0.37014 -1.2071,-0.82252 -0.22905,-0.5969 0.37875,-0.84971 2.21596,-0.9217 1.39237,-0.0546 3.02437,-0.2556 3.62665,-0.44676 1.05386,-0.33448 1.57866,0.59031 0.63461,1.11827 -0.25325,0.14163 -0.14878,0.18624 0.23216,0.0991 0.38094,-0.0871 1.03362,0.16538 1.45039,0.56108 0.59328,0.5633 0.67068,0.43066 0.35656,-0.61104 -0.32721,-1.08514 -0.1901,-1.2753 0.74351,-1.03116 0.62959,0.16465 2.15949,-0.29937 3.39976,-1.03116 l 2.25505,-1.33051 0.61,1.44074 0.61001,1.44075 -0.14737,-1.53487 c -0.12298,-1.2808 -0.46673,-1.53454 -2.07662,-1.53289 l -1.92926,0.002 1.17474,-1.64977 c 1.7253,-2.42281 2.99075,-6.42689 2.99075,-9.46303 0,-2.11782 0.18944,-2.59361 0.92092,-2.31292 0.5065,0.19437 0.92092,0.0476 0.92092,-0.32624 0,-0.3738 -0.44344,-0.67963 -0.98541,-0.67963 -0.77938,0 -0.93644,-0.51346 -0.75121,-2.45579 0.12881,-1.35069 0.0197,-2.45579 -0.24248,-2.45579 -0.26218,0 -0.47669,-0.69069 -0.47669,-1.53487 0,-1.71617 0.87254,-1.97793 2.19267,-0.6578 0.70463,0.70462 0.87707,3.42056 0.87707,13.81382 v 12.93675 l -5.37205,-0.10726 c -2.95462,-0.059 -6.54621,-0.21302 -7.98131,-0.34228 z m 7.65902,-1.3923 c -0.0509,-0.67534 -0.30998,-1.2279 -0.57579,-1.2279 -0.58111,0 -0.59725,0.21657 -0.11064,1.48466 0.5092,1.32697 0.7976,1.21909 0.68643,-0.25676 z m 2.0677,0.0352 c -0.45557,-0.28156 -0.63847,-0.81909 -0.40645,-1.19451 0.23203,-0.37543 0.12929,-0.68259 -0.22831,-0.68259 -0.9157,0 -0.81328,2.29522 0.11725,2.62755 1.11293,0.39747 1.49005,-0.14939 0.51751,-0.75045 z m 3.01269,0.57871 c 0,-0.33767 -0.27628,-0.61395 -0.61395,-0.61395 -0.33767,0 -0.61395,0.27628 -0.61395,0.61395 0,0.33767 0.27628,0.61395 0.61395,0.61395 0.33767,0 0.61395,-0.27628 0.61395,-0.61395 z m -3.06974,-5.52553 c 0,-0.33767 -0.12183,-0.61395 -0.27074,-0.61395 -0.1489,0 -0.44149,0.27628 -0.65018,0.61395 -0.20869,0.33767 -0.0869,0.61395 0.27074,0.61395 0.3576,0 0.65018,-0.27628 0.65018,-0.61395 z m 2.14882,0 c -0.2087,-0.33767 -0.63942,-0.61395 -0.95716,-0.61395 -0.31774,0 -0.57771,0.27628 -0.57771,0.61395 0,0.33767 0.43072,0.61395 0.95715,0.61395 0.52644,0 0.78641,-0.27628 0.57772,-0.61395 z m 0.92092,-1.49864 c 0,-0.1489 -0.27628,-0.44149 -0.61395,-0.65018 -0.33767,-0.20869 -0.61395,-0.0869 -0.61395,0.27074 0,0.3576 0.27628,0.65018 0.61395,0.65018 0.33767,0 0.61395,-0.12183 0.61395,-0.27074 z m -0.21844,-3.72035 c 0.0487,-0.84394 -0.12895,-1.53444 -0.39477,-1.53444 -0.66513,0 -1.31058,1.8265 -0.88742,2.5112 0.62616,1.01314 1.19226,0.58189 1.28219,-0.97676 z m 0.21844,-3.03307 c 0,-0.14891 -0.27628,-0.44149 -0.61395,-0.65018 -0.33767,-0.2087 -0.61395,-0.0869 -0.61395,0.27074 0,0.3576 0.27628,0.65018 0.61395,0.65018 0.33767,0 0.61395,-0.12183 0.61395,-0.27074 z m 0,-2.18505 c 0,-0.33767 -0.27628,-0.61395 -0.61395,-0.61395 -0.33767,0 -0.61395,0.27628 -0.61395,0.61395 0,0.33767 0.27628,0.61395 0.61395,0.61395 0.33767,0 0.61395,-0.27628 0.61395,-0.61395 z m -0.30698,-3.68369 c 0.2087,-0.33767 0.0869,-0.61394 -0.27073,-0.61394 -0.3576,0 -0.65019,0.27627 -0.65019,0.61394 0,0.33767 0.12184,0.61395 0.27074,0.61395 0.14891,0 0.44149,-0.27628 0.65018,-0.61395 z m -0.30697,-4.91158 c -0.48695,-0.30095 -1.0235,-0.40904 -1.19233,-0.24021 -0.16884,0.16884 0.0914,0.55321 0.57838,0.85416 0.48695,0.30095 1.0235,0.40904 1.19234,0.24021 0.16883,-0.16884 -0.0914,-0.55321 -0.57839,-0.85416 z m -53.6198,24.04723 c 0.1135,-0.4497 0.2067,-0.86412 0.20712,-0.92092 0.003,-0.46535 8.58592,0.15591 9.59197,0.69433 1.58016,0.84568 2.23182,0.34073 1.44871,-1.12254 -0.45092,-0.84256 -0.24553,-1.30381 0.92092,-2.06809 0.8257,-0.54103 1.79939,-0.98368 2.16374,-0.98368 0.36436,0 0.58556,-0.34535 0.49156,-0.76744 -0.23035,-1.03438 1.37837,-4.80992 1.90958,-4.48161 0.23216,0.14348 0.44904,-0.68945 0.48197,-1.85095 0.0329,-1.1615 -0.17702,-2.25822 -0.46655,-2.43715 -0.28952,-0.17894 -0.37077,-0.73091 -0.18055,-1.2266 0.19021,-0.49569 0.0988,-0.90126 -0.20314,-0.90126 -0.30194,0 -0.59061,0.55255 -0.64148,1.2279 -0.0509,0.67534 0.16661,1.22789 0.4833,1.22789 0.31668,0 0.57579,0.24558 0.57579,0.54573 0,0.30016 -0.45375,0.50736 -1.00833,0.46046 -0.55458,-0.0469 -1.15206,0.32915 -1.32774,0.83565 -0.27395,0.78987 -0.17413,0.80101 0.70136,0.0783 1.95331,-1.6124 1.0069,0.32198 -1.04734,2.14066 -1.67137,1.47972 -2.31914,1.71895 -3.37671,1.24704 -1.37451,-0.61332 -1.73111,-1.90453 -0.7017,-2.54075 0.34803,-0.21509 0.45095,0.0314 0.24129,0.57772 -0.20767,0.54118 -0.0411,0.95281 0.38558,0.95281 0.46778,0 0.64184,-0.5721 0.46135,-1.5163 -0.15942,-0.83395 -0.0535,-1.3702 0.2354,-1.19166 0.28889,0.17855 0.52526,1.00136 0.52526,1.82847 0,1.35015 0.12549,1.42547 1.22789,0.73701 1.51428,-0.94569 1.5817,-1.69627 0.15349,-1.70877 -0.91819,-0.008 -0.9405,-0.0959 -0.15349,-0.60455 0.8186,-0.52902 0.8186,-0.60051 0,-0.64346 -0.5065,-0.0266 -0.23023,-0.32612 0.61395,-0.66566 1.47722,-0.59416 1.49112,-0.6496 0.37001,-1.47629 -0.64067,-0.47241 -1.40043,-0.71334 -1.68835,-0.5354 -0.28793,0.17795 -0.5235,0.031 -0.5235,-0.32664 0,-0.3576 0.34534,-0.65441 0.76743,-0.65958 0.59114,-0.007 0.58446,-0.12547 -0.0291,-0.51465 -0.63618,-0.40356 -0.60529,-0.66395 0.15349,-1.29367 0.52249,-0.43363 0.94998,-1.32345 0.94998,-1.97737 0,-0.68689 0.27693,-1.0178 0.6558,-0.78365 0.36069,0.22292 0.5075,0.79178 0.32624,1.26413 -0.45694,1.19078 0.25862,1.07606 1.18428,-0.18987 0.98467,-1.34661 0.48798,-2.635 -1.01581,-2.635 -0.95056,0 -1.09943,-0.29672 -0.78247,-1.5596 0.26467,-1.05454 0.0455,-1.94184 -0.67671,-2.7399 -0.59172,-0.65384 -0.89936,-1.62013 -0.68974,-2.16641 0.36833,-0.95984 0.77299,-0.94 4.06815,0.19944 0.5065,0.17514 0.30432,-0.23616 -0.4493,-0.91402 -0.75361,-0.67785 -1.17645,-1.42622 -0.93963,-1.66304 0.23682,-0.23682 -0.0225,-0.25671 -0.57626,-0.0442 -0.67008,0.25713 -1.0976,0.0113 -1.27816,-0.73499 -0.22321,-0.92252 -0.25453,-0.90363 -0.17665,0.10655 0.11436,1.48319 -1.87368,3.68087 -2.32566,2.5709 -0.16328,-0.40098 -0.31869,-0.0911 -0.34535,0.68856 -0.0267,0.77969 0.21971,1.25187 0.54748,1.0493 0.71218,-0.44016 1.53382,2.40302 0.96188,3.32844 -0.26917,0.43552 -0.96844,0.35244 -2.14213,-0.2545 -2.79567,-1.4457 -6.67229,-2.1102 -8.78154,-1.50528 -2.64866,0.75963 -2.86563,0.21383 -0.37525,-0.94395 1.13671,-0.52846 1.56891,-0.8218 0.96045,-0.65188 -0.63622,0.17767 -0.94691,0.0511 -0.7312,-0.29796 0.58433,-0.94547 3.37016,-0.71309 3.76429,0.314 0.19437,0.50651 0.94546,0.90151 1.66909,0.87777 1.28506,-0.0422 1.2871,-0.0566 0.0878,-0.62245 -1.0576,-0.49896 -0.99631,-0.54785 0.44188,-0.35251 1.03166,0.14012 1.52108,-0.0138 1.28067,-0.4028 -0.23583,-0.38159 0.0104,-0.47628 0.62516,-0.24038 0.55785,0.21406 0.98487,0.19194 0.94893,-0.0492 -0.23853,-1.60036 0.17692,-2.51148 1.00099,-2.19525 0.50651,0.19436 0.92093,0.0475 0.92093,-0.32625 0,-0.37379 -0.27628,-0.67963 -0.61395,-0.67963 -0.88829,0 -0.75595,-2.29617 0.15349,-2.66313 0.45846,-0.185 0.33487,-0.32918 -0.30698,-0.35814 -1.90253,-0.0858 -1.20667,-3.12659 0.89255,-3.90027 0.79202,-0.2919 1.6493,0.53774 3.5302,3.41637 2.03524,3.11484 2.48417,4.33776 2.48417,6.76713 0,3.05901 -0.74937,4.36453 -2.80619,4.8889 -1.11236,0.28358 -1.10785,0.30631 0.0741,0.37319 0.69223,0.0392 1.59012,-0.26031 1.99533,-0.66552 0.57302,-0.57302 0.73674,-0.51617 0.73674,0.25581 0,0.5459 -0.34535,1.1319 -0.76744,1.30222 -0.61395,0.24773 -0.61395,0.31936 0,0.35813 0.5706,0.036 0.75501,1.89874 0.71897,7.26236 -0.0267,3.96763 -0.18782,6.86854 -0.35814,6.44645 -0.35928,-0.89039 -1.43524,-1.03834 -1.43524,-0.19734 0,0.31355 0.44731,1.01739 0.99401,1.5641 0.54671,0.54671 0.8004,1.18763 0.56375,1.42427 -0.23664,0.23664 -0.80647,-0.0842 -1.26629,-0.71308 -0.74659,-1.02102 -0.81129,-0.87314 -0.60484,1.38235 0.25403,2.77518 0.0736,2.98757 -1.33844,1.57553 -0.52258,-0.52259 -1.10437,-0.79595 -1.29285,-0.60747 -0.18848,0.18849 0.18976,0.82327 0.84053,1.41062 0.93938,0.84785 2.3219,1.06793 6.70874,1.06793 4.09299,0 5.48574,0.19896 5.37205,0.76743 -0.0844,0.42209 0.15234,0.76744 0.52614,0.76744 0.3738,0 0.52061,-0.41442 0.32624,-0.92092 -0.19436,-0.50651 -0.0657,-0.92093 0.28585,-0.92093 0.35158,0 0.0666,-0.72795 -0.63321,-1.61766 -1.32872,-1.68919 -1.83854,-6.9776 -0.67266,-6.9776 0.89636,0 2.63594,2.91839 2.17965,3.65668 -0.21787,0.35252 0.0509,0.64095 0.59726,0.64095 0.54637,0 0.81986,0.28078 0.60776,0.62396 -0.2121,0.34318 -0.64281,0.46502 -0.95715,0.27074 -0.31434,-0.19427 -0.57153,-0.0606 -0.57153,0.29696 0,0.3576 0.69303,0.65018 1.54007,0.65018 1.3799,0 1.46132,0.12611 0.78281,1.21258 -0.59755,0.95683 -0.59865,1.37118 -0.005,1.96463 1.4251,1.42508 0.73807,1.73438 -3.85253,1.73438 -2.66044,0 -4.6046,-0.25923 -4.6046,-0.61395 0,-0.33767 -0.29259,-0.61395 -0.65019,-0.61395 -0.35759,0 -0.47943,0.27628 -0.27074,0.61395 0.2087,0.33767 0.0869,0.61395 -0.27074,0.61395 -0.3576,0 -0.65018,-0.27628 -0.65018,-0.61395 0,-0.33767 -0.29258,-0.61395 -0.65018,-0.61395 -0.3576,0 -0.47943,0.27628 -0.27074,0.61395 0.20869,0.33767 -0.0676,0.61395 -0.61395,0.61395 -0.54636,0 -0.82264,-0.27628 -0.61395,-0.61395 0.2087,-0.33767 0.0868,-0.61395 -0.27074,-0.61395 -0.3576,0 -0.65018,0.27628 -0.65018,0.61395 0,0.33767 -0.29258,0.61395 -0.65018,0.61395 -0.3576,0 -0.47943,-0.27628 -0.27074,-0.61395 0.20869,-0.33767 0.0869,-0.61395 -0.27074,-0.61395 -0.3576,0 -0.65018,0.27628 -0.65018,0.61395 0,0.33767 -0.27628,0.61395 -0.61395,0.61395 -0.33767,0 -0.61395,-0.43415 -0.61395,-0.96478 0,-0.53062 -0.41441,-1.37919 -0.92092,-1.8857 -0.50651,-0.5065 -0.92092,-0.64121 -0.92092,-0.29935 0,0.34186 0.26421,0.78486 0.58713,0.98444 0.32293,0.19957 0.43151,0.76843 0.24129,1.26413 -0.44866,1.16919 -7.32289,1.28727 -7.79091,0.13382 -0.23448,-0.57785 -0.47461,-0.53994 -0.97209,0.15349 -0.58728,0.81859 -0.72786,0.81859 -1.26523,0 -0.40426,-0.61582 -0.60766,-0.66668 -0.61395,-0.15349 -0.005,0.42209 -0.30198,0.76744 -0.65958,0.76744 -0.3576,0 -0.47944,-0.27628 -0.27074,-0.61395 0.20869,-0.33767 0.10988,-0.61395 -0.21958,-0.61395 -0.32946,0 -0.7149,0.20721 -0.85653,0.46046 -0.14164,0.25325 -0.16466,0.0925 -0.0512,-0.35719 z m 23.53637,-0.10327 c 0,-0.33767 -0.12183,-0.61395 -0.27074,-0.61395 -0.14891,0 -0.44149,0.27628 -0.65018,0.61395 -0.2087,0.33767 -0.0869,0.61395 0.27074,0.61395 0.3576,0 0.65018,-0.27628 0.65018,-0.61395 z m 3.96958,-7.27537 c -0.34593,-0.36415 -1.51379,0.55878 -1.51379,1.19633 0,0.33106 0.38655,0.24568 0.859,-0.18972 0.47245,-0.4354 0.7671,-0.88837 0.65479,-1.00661 z m -13.1788,-9.91516 c 0,-0.33768 -0.29258,-0.61395 -0.65018,-0.61395 -0.3576,0 -0.47943,0.27627 -0.27074,0.61395 0.20869,0.33767 0.50127,0.61394 0.65018,0.61394 0.14891,0 0.27074,-0.27627 0.27074,-0.61394 z m 2.45579,0 c 0,-0.33768 -0.41441,-0.61395 -0.92092,-0.61395 -0.50651,0 -0.92092,0.27627 -0.92092,0.61395 0,0.33767 0.41441,0.61394 0.92092,0.61394 0.50651,0 0.92092,-0.27627 0.92092,-0.61394 z m -5.1926,-9.07018 c -0.3944,-0.4214 -2.12963,0.6652 -1.83182,1.14708 0.18475,0.29892 0.70785,0.2009 1.16245,-0.21782 0.4546,-0.41873 0.75581,-0.8369 0.66937,-0.92926 z m 3.91624,-1.21345 c -0.0308,-0.68326 -0.16432,-0.78568 -0.36668,-0.28135 -0.24435,0.60899 -0.5181,0.62717 -1.17943,0.0783 -0.54649,-0.45355 -0.86122,-0.48161 -0.86122,-0.0768 0,0.59281 0.91583,1.19213 1.99533,1.30576 0.25326,0.0267 0.43865,-0.43501 0.412,-1.02594 z m -3.02127,-4.72186 c 0,-0.14891 -0.27628,-0.44149 -0.61395,-0.65018 -0.33767,-0.20869 -0.61395,-0.0869 -0.61395,0.27074 0,0.3576 0.27628,0.65018 0.61395,0.65018 0.33767,0 0.61395,-0.12183 0.61395,-0.27074 z m 0.61394,-2.72739 c 0,-0.63996 -0.5483,-1.29968 -1.22789,-1.47739 -1.50631,-0.39391 -1.53321,-0.15651 -0.15349,1.35462 1.36906,1.49944 1.38138,1.50054 1.38138,0.12277 z m 18.97671,35.58476 c 0.47589,-0.30126 1.23878,-0.40441 1.69532,-0.22922 0.56278,0.21597 0.70783,-3e-5 0.45045,-0.67075 -0.20879,-0.5441 -0.10335,-0.98928 0.23432,-0.98928 0.52116,0 1.35927,1.35591 1.35927,2.19904 0,0.14121 -1.03604,0.25252 -2.3023,0.24736 -1.58914,-0.007 -2.03428,-0.17908 -1.43706,-0.55715 z m -1.41273,-1.63045 c -0.47536,-1.23878 0.73014,-1.69871 1.75809,-0.67077 0.78298,0.78299 0.74915,0.93215 -0.27203,1.1992 -0.65589,0.17152 -1.3062,-0.0597 -1.48606,-0.52843 z m -40.89398,-7.01222 c 0,-4.98843 0.20056,-6.75588 0.76743,-6.76282 0.49555,-0.006 0.542,-0.16921 0.13113,-0.46047 -0.99474,-0.70513 -1.13787,-5.1402 -0.18538,-5.74393 0.61311,-0.38862 0.62688,-0.52321 0.0542,-0.53023 -0.42209,-0.005 -0.76744,-0.70009 -0.76744,-1.54427 0,-1.06892 0.3356,-1.53487 1.1055,-1.53487 1.92026,0 4.19641,-1.41223 5.25833,-3.26251 0.74437,-1.29699 1.35885,-1.69936 2.24234,-1.46832 1.40091,0.36634 1.52459,0.0967 0.47234,-1.02973 -0.60689,-0.64967 -0.96778,-0.58928 -1.95065,0.32641 -1.56705,1.45992 -2.00087,0.99216 -0.74403,-0.80223 0.54095,-0.77231 0.98354,-1.88661 0.98354,-2.47622 0,-0.58961 0.34535,-0.98783 0.76744,-0.88494 0.42209,0.1029 0.56022,0.0712 0.30697,-0.0704 -0.25325,-0.14163 -0.46046,-0.77404 -0.46046,-1.40536 0,-0.63131 -0.32688,-1.86526 -0.7264,-2.74211 -0.58738,-1.28918 -1.08672,-1.55906 -2.60927,-1.41027 -1.71131,0.16723 -1.89125,0.39216 -1.97468,2.46847 -0.0787,1.95774 0.0311,2.16158 0.76743,1.42523 0.47258,-0.47258 0.85923,-1.15524 0.85923,-1.51703 0,-0.36179 0.55256,-0.6578 1.2279,-0.6578 0.90801,0 1.2279,0.40929 1.2279,1.5711 0,0.89106 -0.26575,1.40686 -0.61395,1.19166 -0.33767,-0.20869 -0.61395,-0.0869 -0.61395,0.27074 0,0.3576 0.29258,0.65018 0.65018,0.65018 0.3576,0 0.47665,0.28078 0.26455,0.62396 -0.21209,0.34318 -0.6855,0.43863 -1.05201,0.21212 -0.38787,-0.23972 -0.49059,-0.1274 -0.24577,0.26872 0.59007,0.95476 -0.23235,3.87836 -0.96382,3.42628 -0.33107,-0.20461 -0.4656,-0.8934 -0.29896,-1.53063 0.19837,-0.75859 -0.0178,-1.15861 -0.62615,-1.15861 -0.59091,0 -0.79488,0.34985 -0.56033,0.96107 0.28947,0.75437 0.0725,0.87776 -1.00873,0.57373 -1.0792,-0.30345 -1.17808,-0.24771 -0.45659,0.25743 0.62323,0.43634 0.67285,0.6478 0.15348,0.65416 -0.42209,0.005 -0.76743,0.31951 -0.76743,0.69853 0,0.47126 0.29583,0.4436 0.93576,-0.0875 1.21188,-1.00578 1.48441,-0.67365 1.09791,1.33802 -0.1757,0.91449 -0.82702,1.76693 -1.48065,1.93786 -1.11705,0.29211 -1.16697,-0.20446 -1.16697,-11.60934 0,-10.18137 0.13396,-11.9145 0.92092,-11.9145 0.54373,0 0.92369,0.56579 0.92768,1.38138 0.004,0.75976 0.14436,2.48649 0.31255,3.83718 0.16818,1.35068 0.14212,2.11044 -0.0579,1.68835 -0.20004,-0.42209 -0.59579,-0.76743 -0.87944,-0.76743 -0.28365,0 -0.10226,0.82883 0.4031,1.84184 0.90344,1.81099 1.80872,2.57685 1.27,1.07441 -0.15135,-0.42209 -0.017,-1.26876 0.29863,-1.88149 0.45608,-0.88549 0.75395,-0.96453 1.4519,-0.38528 0.48296,0.40082 0.87811,1.12565 0.87811,1.61074 0,0.48509 0.27628,0.71123 0.61395,0.50254 0.33767,-0.20869 0.61394,-0.0955 0.61394,0.25147 0,0.34701 0.37814,0.48581 0.84031,0.30846 0.59881,-0.22979 0.79088,0.12788 0.6683,1.24452 -0.19148,1.74436 0.63019,2.66993 1.15534,1.30143 0.18524,-0.48275 0.007,-0.99589 -0.39613,-1.14032 -0.40312,-0.14442 -0.54646,-0.46387 -0.31853,-0.70989 0.48255,-0.52085 2.17025,0.30309 2.45822,1.20012 0.10841,0.33767 0.40431,0.54488 0.65756,0.46046 0.25326,-0.0844 0.46046,0.0932 0.46046,0.39478 0,0.87487 -1.73714,1.29996 -2.00921,0.49165 -0.13568,-0.40312 -0.27453,0.21223 -0.30856,1.36744 -0.0362,1.22849 0.43204,2.72829 1.12795,3.613 0.98051,1.24651 1.18982,1.32094 1.18982,0.42309 0,-0.59924 -0.48348,-1.466 -1.07441,-1.92615 -1.02324,-0.79678 -1.02324,-0.8188 0,-0.46246 1.20957,0.42124 1.50096,-0.71066 0.30698,-1.19244 -0.42209,-0.17031 -0.14581,-0.33148 0.61395,-0.35813 0.95592,-0.0336 1.38138,-0.42666 1.38138,-1.27637 0,-0.67534 0.12234,-1.22789 0.27188,-1.22789 0.47705,0 4.6397,2.56561 4.6397,2.85964 0,0.15541 -0.27628,0.11181 -0.61395,-0.0969 -0.33767,-0.20869 -0.61395,-0.008 -0.61395,0.44706 0,0.45458 -0.57463,0.86979 -1.27695,0.9227 -1.67819,0.12641 -3.02068,1.28234 -3.02068,2.60092 0,1.03438 -1.79707,3.08972 -2.70147,3.08972 -0.25079,0 -0.87039,0.41441 -1.3769,0.92092 -0.5065,0.50651 -0.71489,0.92092 -0.46307,0.92092 0.25182,0 -0.18302,0.68218 -0.96631,1.51595 -0.78329,0.83377 -1.70296,1.34364 -2.04372,1.13303 -0.34394,-0.21256 -0.43155,-0.0787 -0.19694,0.30093 0.23245,0.3761 0.0939,1.31669 -0.30796,2.09019 -1.50675,2.90037 -1.76679,3.56329 -1.76679,4.50399 0,0.56978 -0.2886,0.78712 -0.70416,0.53029 -0.71322,-0.44079 -0.49415,3.02263 0.41128,6.50221 0.30429,1.1694 0.247,1.31743 -0.24063,0.62169 -0.51953,-0.74126 -0.62034,-0.65172 -0.53542,0.47557 0.0643,0.85372 0.40863,1.27209 0.89374,1.08594 0.77806,-0.29857 1.04838,0.37881 0.81582,2.04431 -0.0745,0.53369 0.23427,0.7153 0.82852,0.48727 0.52102,-0.19994 1.13726,-0.0562 1.3694,0.31943 0.29352,0.47491 -0.24007,0.5755 -1.75161,0.33021 -1.95526,-0.31729 -2.1411,-0.22806 -1.84926,0.88795 0.29479,1.12727 -0.64043,2.30886 -1.84696,2.33349 -0.25325,0.005 -0.46046,-3.02964 -0.46046,-6.74402 z m 1.84184,4.91158 c 0,-0.33767 -0.27628,-0.61395 -0.61395,-0.61395 -0.33767,0 -0.61395,0.27628 -0.61395,0.61395 0,0.33767 0.27628,0.61395 0.61395,0.61395 0.33767,0 0.61395,-0.27628 0.61395,-0.61395 z m 1.22789,-2.93909 c 0,-0.26581 -0.61813,-0.52985 -1.37364,-0.58677 -1.07956,-0.0813 -1.17814,0.0201 -0.46046,0.4739 1.12254,0.70973 1.8341,0.75353 1.8341,0.11287 z m -2.04918,-3.96782 c -0.17032,-0.42209 -0.30967,-0.0767 -0.30967,0.76744 0,0.84417 0.13935,1.18952 0.30967,0.76743 0.17032,-0.42209 0.17032,-1.11278 0,-1.53487 z m 1.43524,-8.23713 c 0,-0.45023 0.34534,-0.84041 0.76743,-0.86707 0.61395,-0.0388 0.61395,-0.1104 0,-0.35813 -1.21774,-0.49137 -0.9577,-3.27542 0.30697,-3.28648 0.83935,-0.007 0.89164,-0.12521 0.23902,-0.5387 -0.45947,-0.29111 -1.41932,-0.3766 -2.13299,-0.18997 -0.71367,0.18663 -0.95936,0.45206 -0.54598,0.58986 0.41338,0.13779 0.7516,1.07264 0.7516,2.07745 0,1.0048 -0.21893,1.69161 -0.4865,1.52624 -0.26758,-0.16537 -0.52322,0.18669 -0.56809,0.78236 -0.0449,0.59567 0.3122,1.08304 0.79348,1.08304 0.48128,0 0.87506,-0.36837 0.87506,-0.8186 z m 5.81142,-10.54975 c -0.34593,-0.36416 -1.51379,0.55878 -1.51379,1.19633 0,0.33105 0.38655,0.24568 0.859,-0.18972 0.47245,-0.43541 0.76711,-0.88838 0.65479,-1.00661 z m 1.81169,-3.38085 c -0.3566,-0.92928 -1.48364,-1.44273 -1.48364,-0.67591 0,0.43757 1.48594,2.04486 1.70281,1.84188 0.0924,-0.0864 -0.006,-0.61113 -0.21917,-1.16597 z m 4.6481,-2.21891 c 0.71768,-0.45377 0.6191,-0.55522 -0.46046,-0.4739 -0.75551,0.0569 -1.37364,0.32096 -1.37364,0.58677 0,0.64065 0.71156,0.59686 1.8341,-0.11287 z m 1.23563,-1.85962 c -0.5065,-0.32733 -1.19719,-0.59515 -1.53487,-0.59515 -0.33767,0 -0.19953,0.26782 0.30698,0.59515 0.5065,0.32733 1.1972,0.59514 1.53487,0.59514 0.33767,0 0.19953,-0.26781 -0.30698,-0.59514 z m -14.52288,-4.01714 c -0.19995,-0.52107 -0.49522,-0.81573 -0.65616,-0.65479 -0.16093,0.16093 -0.11049,0.58726 0.11208,0.9474 0.60538,0.97953 0.95922,0.78923 0.54408,-0.29261 z m 2.65054,-2.27582 c -0.17032,-0.42209 -0.30967,-0.0767 -0.30967,0.76743 0,0.84418 0.13935,1.18952 0.30967,0.76743 0.17031,-0.42208 0.17031,-1.11278 0,-1.53486 z m 8.80261,40.36705 c 0,-0.5065 -0.29259,-0.92092 -0.65019,-0.92092 -0.3576,0 -0.47943,0.27628 -0.27074,0.61395 0.91921,1.48731 -0.76306,0.42478 -2.18714,-1.3814 -2.39534,-3.03807 -2.58355,-3.51122 -1.7812,-4.47799 0.60104,-0.72422 0.54001,-0.89403 -0.32128,-0.89403 -0.85191,0 -1.01383,0.42351 -0.81455,2.13046 0.23047,1.97412 0.17193,2.06097 -0.79765,1.18351 -0.57551,-0.52083 -1.39198,-1.78133 -1.81439,-2.80111 -0.63594,-1.5353 -0.61919,-1.95193 0.0974,-2.42265 0.72235,-0.47451 0.68722,-0.67347 -0.21255,-1.20368 -0.78119,-0.46033 -0.97675,-1.09106 -0.71037,-2.29107 0.81857,-3.68748 0.96273,-3.92296 2.20298,-3.59863 0.83221,0.21763 1.11995,0.0649 0.90971,-0.48301 -0.7308,-1.90442 2.50349,-2.9336 3.9065,-1.24307 1.05804,1.27486 1.47316,0.6927 0.62978,-0.88318 -0.56147,-1.04911 -0.50844,-1.28048 0.29346,-1.28048 0.59095,0 0.80286,0.28461 0.53484,0.71829 -0.29849,0.48296 -0.10923,0.58984 0.57771,0.32624 0.5619,-0.21562 1.02164,-0.13311 1.02164,0.18337 0,0.31648 0.45973,0.39899 1.02163,0.18337 0.74659,-0.28649 0.88476,-0.17057 0.51323,0.43058 -0.36952,0.59791 -0.2347,0.71758 0.49358,0.43812 0.55108,-0.21147 1.16526,-0.12028 1.36484,0.20264 0.19958,0.32292 0.0703,0.58713 -0.28731,0.58713 -0.3576,0 -0.65018,0.24558 -0.65018,0.54573 0,0.30016 0.46956,0.50736 1.04347,0.46046 1.39878,-0.1143 2.64143,3.14576 1.47408,3.86722 -0.67265,0.41572 -0.66877,0.55587 0.0223,0.80398 0.60794,0.21828 0.34357,0.8265 -0.96632,2.22314 -1.76932,1.88649 -4.02928,2.58368 -4.02928,1.243 0,-0.37379 -0.41441,-0.52061 -0.92092,-0.32624 -0.54547,0.20931 -0.92092,0.007 -0.92092,-0.4971 0,-0.46777 -0.34535,-1.01165 -0.76744,-1.20863 -0.61394,-0.2865 -0.61394,-0.42976 0,-0.71627 1.09304,-0.51008 0.95278,-2.7116 -0.17275,-2.7116 -0.51711,0 -1.11409,0.45317 -1.32664,1.00706 -0.35698,0.93028 -0.44338,0.92918 -1.13328,-0.0143 -0.67556,-0.92388 -0.7812,-0.88992 -1.10697,0.35582 -0.60056,2.29653 0.17368,4.27105 1.5086,3.84736 0.63976,-0.20305 1.15664,-0.0742 1.15664,0.28822 0,0.36043 0.41441,0.65533 0.92092,0.65533 0.5065,0 0.92092,0.41441 0.92092,0.92092 0,0.5065 0.27627,0.92092 0.61395,0.92092 0.33767,0 0.61394,-0.27628 0.61394,-0.61395 0,-0.33767 0.3191,-0.61395 0.70911,-0.61395 0.40661,0 0.2439,0.51404 -0.38144,1.20503 -1.10763,1.22392 -0.92129,3.09261 0.30838,3.09261 0.3952,0 0.51319,0.50855 0.28487,1.22789 -0.23227,0.73182 -0.11032,1.2279 0.30184,1.2279 0.38035,0 0.5196,-0.27823 0.30943,-0.61829 -0.21016,-0.34005 0.0498,-0.78402 0.57772,-0.9866 0.52791,-0.20258 0.95983,-0.60637 0.95983,-0.89732 0,-0.29095 -0.3781,-0.3839 -0.84023,-0.20657 -1.16717,0.44788 -1.70154,-1.9811 -0.63126,-2.86935 0.62065,-0.5151 0.85754,-0.52133 0.85754,-0.0226 0,0.37901 0.60536,0.68912 1.34524,0.68912 1.31966,0 1.32258,-0.0185 0.15349,-0.97105 -1.09054,-0.88857 -1.09624,-0.94071 -0.0671,-0.61395 0.61854,0.19641 1.24016,0.3571 1.38138,0.3571 0.14122,0 0.25676,0.55255 0.25676,1.2279 0,0.67534 -0.33153,1.22789 -0.73673,1.22789 -0.57302,0 -0.57302,0.16372 0,0.73674 1.04009,1.04009 0.91458,2.74733 -0.2344,3.18823 -1.89769,0.72821 -4.5544,0.4084 -4.5544,-0.54826 z m 3.68368,-0.30697 c 0,-0.33767 -0.29258,-0.61395 -0.65018,-0.61395 -0.3576,0 -0.47943,0.27628 -0.27074,0.61395 0.20869,0.33767 0.50127,0.61395 0.65018,0.61395 0.14891,0 0.27074,-0.27628 0.27074,-0.61395 z m -5.06507,-2.75157 c 0,-0.84096 -0.27017,-1.35669 -0.60298,-1.15101 -0.37152,0.22961 -0.43465,-0.1577 -0.16445,-1.009 0.29873,-0.94123 0.22185,-1.24775 -0.2412,-0.96157 -0.37385,0.23104 -0.67972,0.8182 -0.67972,1.30478 0,0.48658 -0.34535,0.90338 -0.76744,0.92624 -0.42209,0.0228 -0.14581,0.34134 0.61395,0.70776 0.75976,0.36642 1.38138,0.90027 1.38138,1.18634 0,0.28608 0.10361,0.52013 0.23023,0.52013 0.12663,0 0.23023,-0.68565 0.23023,-1.52367 z m -5.91104,-3.18837 c -0.72375,-1.24461 -0.89852,-0.84624 -0.30607,0.69765 0.21055,0.54868 0.51215,0.86828 0.67022,0.71021 0.15807,-0.15808 -0.006,-0.79161 -0.36415,-1.40786 z m 3.60874,1.02836 c 0,-0.33767 -0.29258,-0.61395 -0.65018,-0.61395 -0.3576,0 -0.47943,0.27628 -0.27074,0.61395 0.20869,0.33767 0.50127,0.61395 0.65018,0.61395 0.14891,0 0.27074,-0.27628 0.27074,-0.61395 z m 4.91158,-4.91158 c 0,-0.67535 -0.36837,-1.2279 -0.8186,-1.2279 -1.15476,0 -1.60753,0.59082 -1.22223,1.5949 0.50112,1.3059 2.04083,1.02902 2.04083,-0.367 z m 3.99066,0 c 0.20869,-0.33767 0.0869,-0.61395 -0.27074,-0.61395 -0.3576,0 -0.65018,0.27628 -0.65018,0.61395 0,0.33767 0.12183,0.61394 0.27074,0.61394 0.14891,0 0.44149,-0.27627 0.65018,-0.61394 z m -13.40722,-3.22323 c -0.17031,-0.42209 -0.30966,-0.0767 -0.30966,0.76744 0,0.84417 0.13935,1.18952 0.30966,0.76743 0.17032,-0.42209 0.17032,-1.11278 0,-1.53487 z m 10.63505,1.53487 c -0.005,-0.25325 -0.27721,-0.87487 -0.60454,-1.38138 -0.48126,-0.74469 -0.59695,-0.65658 -0.60455,0.46046 -0.005,0.75976 0.26688,1.38138 0.60455,1.38138 0.33767,0 0.60971,-0.20721 0.60454,-0.46046 z m -8.58586,-0.42423 c 0,-0.1489 -0.27628,-0.44148 -0.61395,-0.65018 -0.33767,-0.20869 -0.61395,-0.0869 -0.61395,0.27074 0,0.3576 0.27628,0.65018 0.61395,0.65018 0.33767,0 0.61395,-0.12183 0.61395,-0.27074 z m 6.5314,-0.65018 c -0.19436,-0.5065 -0.0858,-0.92092 0.24129,-0.92092 0.32707,0 0.59468,-0.41441 0.59468,-0.92092 0,-1.17952 -1.77152,-1.20461 -2.22169,-0.0315 -0.18772,0.4892 0.0282,1.30752 0.47973,1.81849 1.05464,1.19337 1.34975,1.21123 0.90599,0.0548 z m 3.29176,-0.65018 c 0,-0.52643 -0.28078,-0.78362 -0.62396,-0.57152 -0.34318,0.21209 -0.46501,0.64281 -0.27074,0.95715 0.5263,0.85157 0.8947,0.69279 0.8947,-0.38563 z m 1.53487,0.34321 c 0.20869,-0.33767 0.0869,-0.61395 -0.27074,-0.61395 -0.3576,0 -0.65018,0.27628 -0.65018,0.61395 0,0.33767 0.12183,0.61395 0.27074,0.61395 0.14891,0 0.44149,-0.27628 0.65018,-0.61395 z m -7.66203,-0.93576 c 0.42713,-0.51467 0.5991,-1.11327 0.38215,-1.33022 -0.21696,-0.21695 -0.39447,-0.0193 -0.39447,0.43915 0,0.54302 -0.32103,0.41818 -0.92092,-0.35813 -0.87603,-1.13367 -0.962,-1.13887 -1.76383,-0.10668 -0.52209,0.67207 -1.28155,0.94653 -1.99533,0.72108 -1.06918,-0.3377 -1.07446,-0.3139 -0.0731,0.32954 0.59359,0.38144 1.33426,0.53593 1.64593,0.34331 0.31166,-0.19262 0.74019,-0.0694 0.95229,0.27375 0.54362,0.87959 1.26465,0.77586 2.16732,-0.3118 z m 5.51321,-0.90608 c 0,-0.33768 -0.27627,-0.61395 -0.61394,-0.61395 -0.33768,0 -0.61395,0.27627 -0.61395,0.61395 0,0.33767 0.27627,0.61394 0.61395,0.61394 0.33767,0 0.61394,-0.27627 0.61394,-0.61394 z m 1.84185,0 c 0,-0.33768 -0.27628,-0.61395 -0.61395,-0.61395 -0.33767,0 -0.61395,0.27627 -0.61395,0.61395 0,0.33767 0.27628,0.61394 0.61395,0.61394 0.33767,0 0.61395,-0.27627 0.61395,-0.61394 z m -4.60461,-1.84185 c 0.20869,-0.33767 0.0869,-0.61394 -0.27074,-0.61394 -0.3576,0 -0.65018,0.27627 -0.65018,0.61394 0,0.33767 0.12183,0.61395 0.27074,0.61395 0.14891,0 0.44149,-0.27628 0.65018,-0.61395 z m 33.46015,16.95517 c 0,-0.12945 0.55255,-0.37986 1.22789,-0.55647 0.67535,-0.17661 1.2279,-0.0707 1.2279,0.23537 0,0.30606 -0.55255,0.55647 -1.2279,0.55647 -0.67534,0 -1.22789,-0.10592 -1.22789,-0.23537 z m 2.85526,-0.66589 c -0.19021,-0.4957 -0.0816,-1.06455 0.24129,-1.26413 0.32292,-0.19958 0.58713,0.0678 0.58713,0.59428 0,0.52644 0.29259,0.95716 0.65019,0.95716 0.3576,0 0.47943,-0.27628 0.27074,-0.61395 -0.2087,-0.33767 0.20572,-0.61395 0.92092,-0.61395 0.88986,0 1.14713,-0.24226 0.81498,-0.76743 -0.72374,-1.14428 -0.76207,-4.11492 -0.0512,-3.9663 0.33972,0.071 0.6613,-0.63063 0.71464,-1.55923 0.10439,-1.81735 -0.51331,-2.26116 -1.08253,-0.77779 -0.21644,0.56403 -0.74709,0.75798 -1.3943,0.50962 -0.70722,-0.27139 -0.90142,-0.16884 -0.60095,0.31732 0.302,0.48862 -0.15656,0.71829 -1.43414,0.71829 -1.03294,0 -1.87807,-0.15788 -1.87807,-0.35083 0,-0.88827 1.85021,-2.06322 2.72212,-1.72863 1.27779,0.49033 5.25919,-1.42001 5.25919,-2.52345 0,-0.47388 -0.48118,-1.13089 -1.06929,-1.46002 -0.58811,-0.32912 -0.8418,-0.8259 -0.56375,-1.10395 0.27805,-0.27805 0.86226,-0.0177 1.29827,0.57857 1.08198,1.4797 2.80044,0.73432 2.64472,-1.14715 -0.13749,-1.66129 -0.61503,-1.85533 -1.61142,-0.65475 -0.73568,0.88643 -2.38497,0.95683 -3.67906,0.15704 -0.4669,-0.28856 -1.11262,-0.19275 -1.52408,0.22613 -0.54457,0.55439 -0.38622,0.99472 0.66744,1.85606 1.33792,1.09371 1.99458,2.91873 0.78013,2.16816 -0.3307,-0.20438 -1.10033,-0.10451 -1.71029,0.22193 -0.89045,0.47656 -1.10902,0.36116 -1.10902,-0.58556 0,-0.64849 0.21707,-1.17908 0.48239,-1.17908 0.26531,0 0.48238,0.32232 0.48238,0.71627 0,0.39395 0.17751,0.53876 0.39447,0.32181 0.21695,-0.21695 0.056,-0.8023 -0.3577,-1.30076 -0.42446,-0.51144 -0.5788,-1.52098 -0.35425,-2.31714 0.30966,-1.09791 0.25491,-1.20658 -0.24685,-0.48992 -0.35462,0.5065 -0.64899,1.4044 -0.65416,1.99533 -0.005,0.59092 -0.25981,1.07441 -0.56587,1.07441 -0.30606,0 -0.41159,0.55402 -0.23451,1.23116 0.17707,0.67715 -0.0415,1.66906 -0.48564,2.20426 -0.73302,0.88324 -0.88144,0.8721 -1.60733,-0.12062 -1.04801,-1.43324 -1.01057,-2.96807 0.12603,-5.16601 0.65032,-1.25758 1.24399,-1.68795 1.99533,-1.44646 0.81608,0.26229 0.87215,0.20272 0.23658,-0.25136 -0.93309,-0.66664 0.0988,-1.69902 1.08752,-1.08799 0.30883,0.19087 0.70143,-3e-5 0.87245,-0.42423 0.18758,-0.46529 0.33017,-0.34502 0.35941,0.30315 0.0267,0.59093 0.29888,1.07441 0.60494,1.07441 0.30606,0 0.41198,-0.55255 0.23537,-1.22789 -0.37492,-1.43371 1.49128,-1.77831 2.02985,-0.37482 0.19163,0.49938 0.82838,0.72205 1.53578,0.53706 1.37374,-0.35924 3.80099,1.51024 3.20754,2.47046 -0.2219,0.35903 -0.0846,0.43963 0.32145,0.18869 1.02892,-0.63591 0.86956,0.61383 -0.2168,1.70019 -0.75038,0.75038 -0.78984,1.22359 -0.20842,2.49964 0.39444,0.86572 1.08725,1.57404 1.53955,1.57404 1.11924,0 1.03312,1.506 -0.22115,3.86766 -0.85952,1.61839 -1.08669,1.76131 -1.28831,0.81052 -0.13462,-0.63488 0.12776,-1.42071 0.58307,-1.74627 0.64059,-0.45805 0.5985,-0.51902 -0.18607,-0.26954 -0.64914,0.20641 -1.12267,-0.0935 -1.31621,-0.83357 -0.16626,-0.63579 0.008,-1.25937 0.38697,-1.38573 0.45415,-0.15138 0.31083,-0.80733 -0.42016,-1.92296 -1.04218,-1.59057 -1.15856,-1.62601 -1.91999,-0.5847 -0.68911,0.94241 -0.63463,1.33218 0.36358,2.6012 1.53864,1.95606 0.93967,2.53257 -0.64911,0.62477 -0.67255,-0.80759 -1.23201,-1.12301 -1.24324,-0.70092 -0.0112,0.42209 0.25585,0.76744 0.59352,0.76744 0.68974,0 0.56594,1.34327 -0.17428,1.89093 -0.57587,0.42606 0.0908,2.4067 0.81006,2.4067 0.27742,0 0.93856,-0.43415 1.46918,-0.96477 0.53063,-0.53063 0.96478,-0.78836 0.96478,-0.57273 0,0.77471 -4.19874,4.33323 -4.8548,4.11455 -0.3689,-0.12297 -0.67073,0.0757 -0.67073,0.44153 0,1.00054 -2.27284,0.79954 -2.67027,-0.23615 z m 5.12606,-2.13225 c 0,-0.72437 -1.19742,-1.49926 -1.6372,-1.05948 -0.43978,0.43978 0.33511,1.6372 1.05948,1.6372 0.31775,0 0.57772,-0.25997 0.57772,-0.57772 z m 5.52553,-4.94781 c 0,-0.33767 -0.41442,-0.61395 -0.92093,-0.61395 -0.5065,0 -0.92092,0.27628 -0.92092,0.61395 0,0.33767 0.41442,0.61395 0.92092,0.61395 0.50651,0 0.92093,-0.27628 0.92093,-0.61395 z m -12.55287,-3.6302 c -0.22688,-0.36709 -0.74154,-0.64562 -1.1437,-0.61896 -0.56372,0.0374 -0.56332,0.11676 0.002,0.34664 0.40312,0.16399 0.56966,0.7638 0.3701,1.33291 -0.28313,0.80741 -0.19289,0.87789 0.41076,0.3208 0.42548,-0.39267 0.58797,-1.01429 0.3611,-1.38139 z m 0.32635,-2.1699 c 0.30883,0.19087 0.56151,0.0708 0.56151,-0.26691 0,-0.33767 -0.27628,-0.7847 -0.61395,-0.99339 -0.33767,-0.20869 -0.61394,-0.24759 -0.61394,-0.0865 0,0.16115 -0.0929,0.66094 -0.20636,1.11065 -0.11349,0.4497 -0.0899,0.60871 0.0524,0.35336 0.14234,-0.25536 0.51147,-0.30812 0.8203,-0.11726 z m 5.47309,-4.02306 c 0,-0.33768 -0.27627,-0.61395 -0.61395,-0.61395 -0.33767,0 -0.61394,0.27627 -0.61394,0.61395 0,0.33767 0.27627,0.61394 0.61394,0.61394 0.33768,0 0.61395,-0.27627 0.61395,-0.61394 z m -33.76712,16.59073 c 0,-0.34545 0.30583,-0.6281 0.67963,-0.6281 0.3738,0 0.50881,-0.44517 0.30001,-0.98927 -0.27164,-0.70789 -0.11569,-0.88801 0.54827,-0.63322 1.28075,0.49147 1.16977,-0.61676 -0.14653,-1.4631 -1.0034,-0.64515 -1.00008,-0.66746 0.0502,-0.33748 0.61854,0.19434 1.24017,0.35334 1.38138,0.35334 0.93971,0 -0.0214,2.49685 -1.27811,3.32025 -0.84417,0.55313 -1.53486,0.72304 -1.53486,0.37758 z m 25.99968,-0.29991 c 0.22004,-0.57341 0.4043,-1.91786 0.40947,-2.98768 0.007,-1.48167 0.1512,-1.72569 0.60455,-1.02419 0.46745,0.72334 0.59716,0.74014 0.60454,0.0783 0.008,-0.67931 0.18788,-0.69449 0.93033,-0.0783 0.5065,0.42036 0.92092,0.5585 0.92092,0.30697 0,-0.25153 0.41162,-0.11571 0.9147,0.30182 0.79579,0.66045 0.73593,0.89777 -0.46046,1.82548 -0.75634,0.58649 -2.03868,1.41595 -2.84964,1.84325 -1.30654,0.68842 -1.42891,0.65816 -1.07441,-0.26565 z m 3.91623,-2.58837 c 0.1314,-0.39419 -0.4175,-0.52745 -1.39946,-0.33973 -1.17648,0.2249 -1.3917,0.45064 -0.79177,0.83046 0.97507,0.61731 1.8902,0.41237 2.19123,-0.49073 z m -23.16249,2.26018 c 0,-0.33767 0.29258,-0.61394 0.65018,-0.61394 0.3576,0 0.47944,0.27627 0.27074,0.61394 -0.20869,0.33768 -0.50127,0.61395 -0.65018,0.61395 -0.1489,0 -0.27074,-0.27627 -0.27074,-0.61395 z m 15.758,-0.4093 c -0.22512,-0.22511 -0.4093,-0.69478 -0.4093,-1.04371 0,-0.3847 0.28596,-0.34845 0.7265,0.0921 0.39958,0.39959 0.58376,0.86926 0.4093,1.04372 -0.17446,0.17446 -0.50139,0.13302 -0.7265,-0.0921 z m 1.43254,-0.81157 c 0,-0.83292 -1.97792,-3.07676 -2.71213,-3.07676 -0.88538,0 -4.04129,-3.17777 -4.04129,-4.06929 0,-0.4234 0.30587,-0.95887 0.67972,-1.18991 0.45741,-0.2827 0.54428,0.007 0.2656,0.88468 -0.55328,1.74325 0.17835,1.67768 0.85481,-0.0766 0.49261,-1.27748 0.56711,-1.29591 0.9906,-0.24501 0.292,0.7246 0.14851,1.3276 -0.39598,1.66411 -0.697,0.43077 -0.63652,0.6867 0.32916,1.39282 0.87787,0.64192 1.37521,0.68777 1.9279,0.17773 0.40966,-0.37804 0.60116,-0.92405 0.42556,-1.21335 -0.1756,-0.28931 -0.546,-0.15917 -0.8231,0.28919 -0.66039,1.06853 -1.32092,0.38568 -0.83978,-0.86815 0.2887,-0.75233 0.71078,-0.84557 1.85629,-0.41004 0.93938,0.35714 1.48264,0.3443 1.48264,-0.0351 0,-0.32932 -0.27628,-0.59875 -0.61395,-0.59875 -0.89894,0 -0.74928,-1.00486 0.30698,-2.06111 0.99185,-0.99186 1.2551,-1.90158 0.39675,-1.37109 -0.2883,0.17818 -0.83493,-0.35807 -1.21474,-1.19166 -0.42242,-0.92712 -0.45728,-1.51562 -0.0898,-1.51562 0.33043,0 0.60078,0.41442 0.60078,0.92092 0,0.84333 0.7497,1.20273 2.04097,0.97842 0.58607,-0.10181 0.0166,1.00873 -1.30858,2.55178 -0.5918,0.6891 -0.6684,1.07441 -0.21359,1.07441 0.41778,0 0.69137,0.94586 0.66595,2.3023 -0.0319,1.69935 -0.16452,1.99249 -0.50659,1.1193 -0.44512,-1.13625 -0.48064,-1.13819 -0.89857,-0.0491 -0.23932,0.62366 -0.17139,1.29692 0.15094,1.49614 0.6775,0.41868 1.61569,3.72659 1.05695,3.72659 -0.20544,0 -0.37353,-0.27312 -0.37353,-0.60693 z M 208.0854,254.1016 c -0.19427,-0.31434 -0.0724,-0.74506 0.27074,-0.95716 0.34318,-0.21209 0.62396,0.0451 0.62396,0.57153 0,1.07841 -0.3684,1.2372 -0.8947,0.38563 z m 27.29445,-0.3494 c 0,-0.50651 0.10858,-0.92092 0.24129,-0.92092 0.13271,0 0.40032,0.41441 0.59468,0.92092 0.19437,0.50651 0.0858,0.92092 -0.24129,0.92092 -0.32707,0 -0.59468,-0.41441 -0.59468,-0.92092 z m -9.76779,-3.17206 c -0.0329,-1.5181 0.25664,-2.68401 0.71207,-2.86778 0.61394,-0.24774 0.61394,-0.31936 0,-0.35814 -0.42209,-0.0267 -0.76744,-0.71614 -0.76744,-1.53218 0,-0.81603 0.34535,-1.64486 0.76744,-1.84184 0.61394,-0.28651 0.61394,-0.42976 0,-0.71627 -0.52517,-0.24508 -0.76744,-1.99624 -0.76744,-5.54713 0,-5.47355 0.97342,-8.16678 2.98686,-8.264 0.55209,-0.0267 0.68737,-0.17818 0.30063,-0.33672 -0.99145,-0.40641 3.96608,-8.81075 5.23369,-8.87249 0.58608,-0.0285 0.6924,-0.17148 0.25869,-0.34777 -0.52913,-0.21508 -0.38236,-0.97838 0.52163,-2.71272 0.69187,-1.32739 1.50354,-2.26165 1.8037,-2.07614 0.30016,0.18551 0.41436,-0.0224 0.25378,-0.46203 -0.34385,-0.94138 5.14673,-9.16632 6.39726,-9.58316 0.58742,-0.19581 0.73631,0.0308 0.47231,0.71874 -0.24556,0.63993 -0.0687,1.0047 0.48723,1.0047 1.82728,0 3.90697,1.37062 3.53813,2.33181 -0.2618,0.68226 -0.0908,0.8459 0.60486,0.57894 0.54292,-0.20834 1.35948,0.0825 1.85504,0.66085 1.73632,2.02619 1.79531,2.56603 0.344,3.1481 l -1.42083,0.56984 1.41762,0.0389 c 0.77969,0.0214 1.2629,0.28926 1.0738,0.59523 -0.18911,0.30597 -0.858,0.42185 -1.48644,0.25751 -0.67824,-0.17736 -1.29071,0.0871 -1.50701,0.65079 -0.29489,0.76849 -0.0183,0.88037 1.4502,0.58666 1.50972,-0.30194 1.8146,-0.16344 1.8146,0.82438 0,1.93543 -1.38924,3.26757 -3.81877,3.66183 -2.07413,0.33659 -2.25742,0.25338 -2.03105,-0.92203 0.13685,-0.7106 -0.0105,-1.45225 -0.3274,-1.64812 -0.31691,-0.19586 -0.57621,0.21275 -0.57621,0.90802 0,0.69527 -0.29258,1.26412 -0.65018,1.26412 -0.3576,0 -0.46034,-0.30716 -0.22831,-0.68258 0.23202,-0.37543 0.0411,-0.92375 -0.42423,-1.2185 -0.66916,-0.42384 -0.62142,-0.53787 0.22832,-0.5453 0.59092,-0.005 1.0744,-0.28568 1.0744,-0.62335 0,-0.33767 0.29259,-0.61395 0.65019,-0.61395 0.3576,0 0.45041,0.32323 0.20625,0.71828 -0.29914,0.48403 -0.10825,0.58948 0.58531,0.32333 0.84388,-0.32383 0.96059,-0.12149 0.64811,1.12356 -0.40838,1.62712 0.11419,1.90163 1.59383,0.83725 0.79471,-0.57167 0.78319,-0.61875 -0.084,-0.34351 -0.75827,0.24068 -0.92693,0.0207 -0.68717,-0.89608 0.35359,-1.35216 -2.02445,-4.12007 -2.44801,-2.84936 -0.18067,0.54198 -0.35208,0.53724 -0.69602,-0.0193 -0.28897,-0.46757 0.12012,-0.95751 1.11549,-1.33595 1.48451,-0.56441 2.11846,-2.0618 1.11135,-2.62502 -0.25325,-0.14163 -0.11511,-0.17333 0.30698,-0.0704 1.0832,0.26406 0.95868,-0.79752 -0.14314,-1.22033 -0.57671,-0.2213 -0.75909,-0.74416 -0.49742,-1.42605 0.34129,-0.88939 0.17199,-0.85197 -0.9735,0.21522 -0.87296,0.81329 -1.85771,1.16866 -2.65829,0.9593 -1.16565,-0.30483 -1.23657,-0.14559 -0.85088,1.91036 0.26623,1.41915 0.18507,2.24291 -0.221,2.24291 -0.35297,0 -0.60904,-0.20721 -0.56906,-0.46046 0.20927,-1.32537 -0.19269,-1.90998 -1.25806,-1.82973 -0.65195,0.0491 -1.04886,0.31017 -0.88201,0.58013 0.16684,0.26996 -0.11113,0.64989 -0.61772,0.84428 -1.33706,0.51308 -0.531,2.01699 0.8829,1.64725 0.65353,-0.1709 1.18824,-0.002 1.18824,0.37482 0,1.36335 0.10279,1.62337 1.05983,2.68088 0.5977,0.66045 0.69911,1.07441 0.26322,1.07441 -0.39001,0 -0.7091,0.30583 -0.7091,0.67963 0,0.3738 0.40034,0.52601 0.88965,0.33824 0.62471,-0.23972 0.77647,-0.0464 0.50962,0.64898 -0.25313,0.65964 -0.14018,0.84213 0.33824,0.54645 0.39505,-0.24416 0.71828,-0.20682 0.71828,0.083 0,0.28979 1.03604,0.43003 2.3023,0.31165 2.17372,-0.20323 2.23552,-0.16189 1.10662,0.7401 -0.67763,0.54143 -1.70847,0.79261 -2.37919,0.57973 -0.77834,-0.24703 -1.03968,-0.14293 -0.76341,0.3041 0.23105,0.37385 0.12751,0.67972 -0.23009,0.67972 -0.3576,0 -0.65441,-0.34534 -0.65958,-0.76743 -0.006,-0.51163 -0.20778,-0.46046 -0.60455,0.15348 -0.39676,0.61395 -0.59828,0.66511 -0.60454,0.15349 -0.005,-0.42209 -0.30199,-0.76743 -0.65959,-0.76743 -0.3576,0 -0.4552,0.34534 -0.2169,0.76743 0.32591,0.57726 0.24682,0.59569 -0.31919,0.0743 -0.41386,-0.3812 -0.83384,-1.76258 -0.9333,-3.06974 -0.0995,-1.30715 -0.0593,-1.75502 0.0892,-0.99526 0.14854,0.75976 0.54429,1.38138 0.87946,1.38138 0.33518,0 0.43866,0.27628 0.22997,0.61395 -0.2087,0.33767 -0.0869,0.61395 0.27073,0.61395 0.84346,0 0.83972,-1.03829 -0.006,-1.56074 -0.3607,-0.22292 -0.51526,-0.77158 -0.34347,-1.21924 0.47024,-1.22544 -0.93617,-2.0637 -2.84698,-1.69689 -1.77644,0.34102 -2.69853,1.20648 -2.01435,1.89066 0.22101,0.22101 0.6322,0.0291 0.91376,-0.42648 0.53805,-0.87073 1.87701,-0.4218 1.87701,0.62936 0,0.33768 -0.22201,0.47674 -0.49336,0.30904 -0.27134,-0.1677 -0.5212,0.6776 -0.55524,1.87844 -0.048,1.69274 0.21249,2.2551 1.1592,2.50267 0.90841,0.23756 1.01656,0.44573 0.42235,0.81297 -0.43931,0.27151 -1.15335,0.19935 -1.58677,-0.16035 -0.55922,-0.46411 -0.78802,-0.46019 -0.78802,0.0135 0,0.91781 -2.32923,2.08931 -3.14798,1.58329 -0.45486,-0.28111 -0.40204,-0.57987 0.16618,-0.93991 0.64889,-0.41115 0.59553,-0.52988 -0.24143,-0.5372 -1.20236,-0.0105 -1.4649,-1.00481 -0.36236,-1.37232 0.5372,-0.17907 0.53345,-0.53084 -0.0153,-1.43255 -0.7152,-1.17524 -0.72452,-1.17469 -0.55857,0.0327 0.0989,0.71967 -0.14887,1.16437 -0.59866,1.07441 -1.06348,-0.2127 -0.95876,0.82561 0.27287,2.70531 0.92105,1.4057 0.93428,1.66713 0.11544,2.2807 -1.25347,0.93923 -1.85825,2.71462 -1.08708,3.19123 0.34595,0.21381 0.49114,0.74799 0.32265,1.18707 -0.16928,0.44113 0.22516,0.93731 0.8816,1.10897 0.78859,0.20623 1.06092,0.64168 0.81008,1.29536 -0.27165,0.70791 -0.11311,0.8831 0.56406,0.62324 1.16826,-0.4483 1.02972,1.43477 -0.15964,2.16983 -0.44159,0.27291 -0.61304,0.80337 -0.38102,1.1788 0.60462,0.9783 -1.80483,0.86479 -2.62518,-0.12367 -0.38114,-0.45924 -0.5118,-1.77575 -0.30358,-3.05885 0.28241,-1.74027 0.13903,-2.33953 -0.63041,-2.63479 -0.54778,-0.21021 -0.8431,-0.62952 -0.65628,-0.9318 0.18682,-0.30229 0.0657,-0.54962 -0.26913,-0.54962 -0.33484,0 -0.79052,0.57253 -1.01262,1.2723 -0.24278,0.76493 -0.74894,1.13986 -1.26927,0.94019 -0.476,-0.18266 -0.86545,-0.0967 -0.86545,0.19096 0,0.75167 2.38888,1.27125 2.79838,0.60865 0.18911,-0.30597 0.67286,-0.5345 1.07502,-0.50784 0.56372,0.0374 0.56332,0.11677 -0.002,0.34664 -0.40312,0.16399 -0.56237,0.7427 -0.35388,1.28601 0.2828,0.73696 0.11811,0.88771 -0.64844,0.59355 -1.30903,-0.50232 -1.29218,-0.32746 0.22954,2.38184 l 1.25705,2.23806 -2.17797,-0.25427 c -1.19791,-0.13984 -2.17799,-0.20318 -2.17799,-0.14075 0,0.0624 0.3532,0.79432 0.78489,1.62641 0.65095,1.2547 0.91702,1.37145 1.55908,0.68412 0.4258,-0.45582 1.10863,-0.81997 1.51741,-0.80923 0.42525,0.0112 0.28356,0.36846 -0.33118,0.83511 -1.31562,0.9987 -1.4117,1.86195 -0.15349,1.37913 0.50651,-0.19436 0.92092,-0.0858 0.92092,0.24129 0,0.32707 -0.3101,0.59468 -0.68912,0.59468 -0.47612,0 -0.45288,0.28465 0.0752,0.92092 0.52806,0.63627 0.5513,0.92092 0.0752,0.92092 -0.37902,0 -0.68912,0.27628 -0.68912,0.61395 0,0.33767 0.56885,0.61395 1.26413,0.61395 0.69527,0 1.09338,-0.27628 0.88468,-0.61395 -0.20869,-0.33767 -0.0869,-0.61395 0.27074,-0.61395 0.69713,0 0.89185,1.39553 0.28008,2.0073 -0.20355,0.20355 -1.02998,0.11921 -1.83651,-0.18743 -2.06143,-0.78375 -3.22791,-0.15709 -3.8769,2.08276 l -0.55917,1.92987 z m 3.15855,-4.3519 c -0.42118,-0.14039 -0.60961,-0.50794 -0.41875,-0.81677 0.19087,-0.30883 0.0545,-0.56151 -0.30315,-0.56151 -0.35759,0 -0.65018,0.84856 -0.65018,1.8857 0,1.79221 0.053,1.8327 1.06893,0.81677 0.77289,-0.7729 0.85685,-1.13962 0.30315,-1.32419 z m -0.14418,-6.28986 c 0,-0.33767 -0.27628,-0.61395 -0.61395,-0.61395 -0.33767,0 -0.61395,0.27628 -0.61395,0.61395 0,0.33767 0.27628,0.61395 0.61395,0.61395 0.33767,0 0.61395,-0.27628 0.61395,-0.61395 z m -0.61395,-1.2279 c 0.74469,-0.48125 0.65658,-0.59694 -0.46046,-0.60454 -0.75976,-0.005 -1.38138,0.26687 -1.38138,0.60454 0,0.76923 0.65155,0.76923 1.84184,0 z m 3.68369,-6.13947 c 0,-0.33767 -0.27628,-0.61395 -0.61395,-0.61395 -0.33767,0 -0.61395,0.27628 -0.61395,0.61395 0,0.33767 0.27628,0.61395 0.61395,0.61395 0.33767,0 0.61395,-0.27628 0.61395,-0.61395 z m -0.61395,-3.06974 c 0,-0.33767 -0.29258,-0.61395 -0.65018,-0.61395 -0.3576,0 -0.47943,0.27628 -0.27074,0.61395 0.20869,0.33767 0.50127,0.61395 0.65018,0.61395 0.14891,0 0.27074,-0.27628 0.27074,-0.61395 z m 0,-1.49864 c 0,-0.1489 -0.27628,-0.44148 -0.61395,-0.65018 -0.33767,-0.20869 -0.61395,-0.0869 -0.61395,0.27074 0,0.3576 0.27628,0.65018 0.61395,0.65018 0.33767,0 0.61395,-0.12183 0.61395,-0.27074 z m 1.08446,-1.33376 c -0.40209,-0.88248 -0.8367,-1.2876 -0.96581,-0.90028 -0.1291,0.38732 0.10149,1.10935 0.51243,1.6045 1.11356,1.34177 1.27286,1.09434 0.45338,-0.70422 z m 3.52015,-3.30708 c 0.20869,-0.33767 0.0869,-0.61394 -0.27074,-0.61394 -0.3576,0 -0.65018,0.27627 -0.65018,0.61394 0,0.33767 0.12183,0.61395 0.27074,0.61395 0.1489,0 0.44148,-0.27628 0.65018,-0.61395 z m 1.53487,-1.49863 c 0,-0.14891 -0.27628,-0.44149 -0.61395,-0.65018 -0.33767,-0.2087 -0.61395,-0.0869 -0.61395,0.27074 0,0.3576 0.27628,0.65018 0.61395,0.65018 0.33767,0 0.61395,-0.12184 0.61395,-0.27074 z m 13.71682,-4.22622 c 0.22218,0.22219 0.40397,0.0816 0.40397,-0.3123 0,-0.82138 -0.14946,-0.85597 -1.48465,-0.34361 -0.53413,0.20496 -0.97114,0.6532 -0.97114,0.99609 0,0.39197 0.30591,0.36956 0.82392,-0.0603 0.45316,-0.37609 1.00571,-0.50201 1.2279,-0.27983 z m -1.43787,-4.983 c 0,-0.1489 -0.27628,-0.44149 -0.61395,-0.65018 -0.33767,-0.20869 -0.61395,-0.0869 -0.61395,0.27074 0,0.3576 0.27628,0.65018 0.61395,0.65018 0.33767,0 0.61395,-0.12183 0.61395,-0.27074 z m -8.59527,-2.18505 c 0,-0.33767 -0.29258,-0.61394 -0.65018,-0.61394 -0.3576,0 -0.47943,0.27627 -0.27074,0.61394 0.20869,0.33767 0.50128,0.61395 0.65018,0.61395 0.14891,0 0.27074,-0.27628 0.27074,-0.61395 z m 9.20922,0.34321 c 0,-0.14891 -0.27628,-0.44149 -0.61395,-0.65018 -0.33767,-0.20869 -0.61395,-0.0869 -0.61395,0.27074 0,0.3576 0.27628,0.65018 0.61395,0.65018 0.33767,0 0.61395,-0.12183 0.61395,-0.27074 z m -51.83456,40.94477 c 0.3056,-0.25325 0.76183,-0.73674 1.01384,-1.07441 0.26149,-0.35036 0.46224,-0.15267 0.46761,0.46046 0.005,0.59725 -0.44505,1.07441 -1.01385,1.07441 -0.56278,0 -0.77321,-0.20721 -0.4676,-0.46046 z m 50.64116,-1.31691 c -0.45149,-0.84363 -0.39971,-1.34845 0.18838,-1.83652 1.02372,-0.84962 1.61896,-0.27334 1.61896,1.5674 0,1.72882 -0.95039,1.87034 -1.80734,0.26912 z m -37.94577,-0.47108 c -0.87822,-0.35437 -1.04328,-1.43523 -0.21917,-1.43523 0.30154,0 0.70729,0.41441 0.90165,0.92092 0.19437,0.5065 0.29299,0.89911 0.21917,0.87245 -0.0738,-0.0267 -0.47956,-0.18782 -0.90165,-0.35814 z m -25.79249,-28.60242 -0.1468,-26.86021 27.78113,-0.0843 c 15.27963,-0.0464 31.5033,-0.0464 36.05261,0 4.54931,0.0464 8.90067,0.0843 9.66968,0.0843 0.88044,0 1.3982,0.36886 1.3982,0.9961 0,0.7158 -0.21595,0.82292 -0.76744,0.38068 -0.49198,-0.39453 -13.82161,-0.63165 -37.13733,-0.66065 l -36.3699,-0.0452 -0.16668,26.52476 -0.16668,26.52476 z m 24.20646,24.3021 c -0.22511,-0.22512 -0.40507,-0.7086 -0.3999,-1.07441 0.005,-0.36581 0.243,-0.2966 0.52851,0.1538 0.42961,0.67773 0.57513,0.67292 0.84407,-0.0279 0.20326,-0.52969 -0.12799,-0.88094 -0.88454,-0.93793 -0.66523,-0.0501 -1.60881,-0.42251 -2.09685,-0.82755 -0.76881,-0.63805 -0.74955,-0.88871 0.14421,-1.8763 1.30177,-1.43844 0.41257,-1.49784 -1.15711,-0.0773 -1.14026,1.03192 -1.15198,1.01395 -0.40624,-0.62276 0.59967,-1.31614 1.04804,-1.59678 2.04671,-1.28106 2.08237,0.65832 3.96816,2.09854 4.35862,3.32877 0.68195,2.14863 -1.59346,4.62668 -2.97748,3.24266 z m 0.8186,-3.27439 c 0,-0.33767 -0.29259,-0.61395 -0.65018,-0.61395 -0.3576,0 -0.47944,0.27628 -0.27074,0.61395 0.20869,0.33767 0.50127,0.61395 0.65018,0.61395 0.1489,0 0.27074,-0.27628 0.27074,-0.61395 z m 0,-1.49864 c 0,-0.1489 -0.27628,-0.44148 -0.61395,-0.65018 -0.33767,-0.20869 -0.61395,-0.0869 -0.61395,0.27074 0,0.3576 0.27628,0.65018 0.61395,0.65018 0.33767,0 0.61395,-0.12183 0.61395,-0.27074 z m 23.32322,3.94174 c -0.36517,-0.68232 -0.49672,-1.51115 -0.29234,-1.84184 0.20438,-0.33069 0.079,-0.60126 -0.27858,-0.60126 -0.3576,0 -0.65019,0.32232 -0.65019,0.71627 0,0.39395 -0.1775,0.53877 -0.39446,0.32181 -0.21695,-0.21695 -0.0392,-0.82252 0.39501,-1.34571 0.7106,-0.85623 0.90332,-0.8482 1.92933,0.0803 0.62692,0.56736 1.13986,0.72878 1.13986,0.3587 0,-0.37008 -0.30035,-0.8585 -0.66744,-1.08537 -1.10146,-0.68074 0.19063,-1.41788 3.12323,-1.78181 1.51952,-0.18857 2.41742,-0.17969 1.99533,0.0197 -1.05702,0.49941 -0.97306,1.52853 0.0914,1.12006 0.47235,-0.18126 1.04121,-0.0345 1.26413,0.32624 0.23269,0.3765 -0.0875,0.6558 -0.7518,0.6558 -0.63641,0 -1.81363,0.69884 -2.61605,1.55297 -0.80241,0.85413 -1.81754,1.41535 -2.25583,1.24716 -0.4383,-0.16819 -0.7969,-0.0612 -0.7969,0.23772 0,0.29893 0.34534,0.68286 0.76743,0.85318 0.46674,0.18833 0.35492,0.32866 -0.28537,0.35814 -0.57905,0.0267 -1.35158,-0.5098 -1.71675,-1.19212 z m 1.23469,-1.2152 c 0,-0.33768 -0.27628,-0.61395 -0.61395,-0.61395 -0.33767,0 -0.61395,0.27627 -0.61395,0.61395 0,0.33767 0.27628,0.61394 0.61395,0.61394 0.33767,0 0.61395,-0.27627 0.61395,-0.61394 z m 1.84184,0 c 0,-0.33768 -0.27628,-0.61395 -0.61395,-0.61395 -0.33767,0 -0.61395,0.27627 -0.61395,0.61395 0,0.33767 0.27628,0.61394 0.61395,0.61394 0.33767,0 0.61395,-0.27627 0.61395,-0.61394 z m 0,-2.4558 c 0,-0.33767 -0.29258,-0.61394 -0.65018,-0.61394 -0.3576,0 -0.47944,0.27627 -0.27074,0.61394 0.20869,0.33768 0.50127,0.61395 0.65018,0.61395 0.14891,0 0.27074,-0.27627 0.27074,-0.61395 z m 13.01569,4.17485 c -0.40521,-0.40521 -0.73674,-1.05808 -0.73674,-1.45083 0,-0.39275 -1.519,-1.19187 -3.37557,-1.77583 -3.33666,-1.04951 -4.494,-1.87853 -3.71292,-2.65961 0.22101,-0.22101 0.61611,-0.0551 0.87799,0.36862 0.28252,0.45712 0.93411,0.59472 1.6022,0.33834 0.84383,-0.3238 0.99863,-0.22593 0.61764,0.39052 -0.37153,0.60114 -0.23335,0.71707 0.51324,0.43057 0.56189,-0.21562 1.02163,-0.15665 1.02163,0.13104 0,0.28769 0.52888,0.66138 1.17529,0.83042 0.64642,0.16904 1.62047,1.16823 2.16458,2.22042 1.0607,2.05115 1.0236,2.34728 -0.14734,1.17634 z m 1.54116,-0.49116 c -0.17661,-0.67534 -0.0707,-1.22789 0.23537,-1.22789 0.30606,0 0.55647,0.55255 0.55647,1.22789 0,0.67534 -0.10592,1.2279 -0.23537,1.2279 -0.12945,0 -0.37986,-0.55256 -0.55647,-1.2279 z m -55.0774,-3.11797 c 0,-0.26564 0.55657,-0.65962 1.23681,-0.87552 0.69128,-0.2194 1.05306,-0.68987 0.82021,-1.06663 -0.26755,-0.43289 -0.0511,-0.53381 0.60503,-0.28204 0.56266,0.21591 1.02164,0.0954 1.02164,-0.26832 0,-0.3632 0.41441,-0.50134 0.92092,-0.30698 0.50651,0.19437 0.92092,0.0858 0.92092,-0.24128 0,-0.32708 0.29258,-0.59468 0.65018,-0.59468 0.3576,0 0.48201,0.27211 0.27647,0.60468 -0.51821,0.83848 -6.45218,3.62583 -6.45218,3.03077 z m 52.64795,-0.7192 c -0.49869,-0.75976 -1.79788,-2.33438 -2.88709,-3.49915 -1.84169,-1.96946 -1.90452,-2.17325 -0.89708,-2.90991 0.59583,-0.43568 0.90944,-0.96602 0.69691,-1.17855 -0.21252,-0.21252 -0.83316,0.0603 -1.3792,0.60639 -0.75316,0.75316 -1.27888,0.83968 -2.17805,0.35846 -1.25046,-0.66922 -1.61158,-1.81902 -0.57131,-1.81902 0.33767,0 0.59213,-0.62162 0.56548,-1.38138 -0.0267,-0.75976 -0.18839,-1.03432 -0.35942,-0.61013 -0.47107,1.16845 -1.43526,0.26671 -1.00981,-0.94441 0.30218,-0.86019 0.21796,-0.91319 -0.45658,-0.28731 -1.50363,1.39517 -4.87915,0.56692 -4.87915,-1.1972 0,-0.85749 1.86598,-0.52868 2.2189,0.391 0.34639,0.90268 2.07874,0.64049 2.07874,-0.31462 0,-0.29095 -0.45212,-0.3555 -1.0047,-0.14346 -0.69637,0.26723 -0.90833,0.12001 -0.69069,-0.47973 0.1727,-0.47589 0.66857,-0.78161 1.10192,-0.67937 0.43335,0.10224 1.03854,-0.17403 1.34486,-0.61395 0.37834,-0.54335 0.44116,-0.38465 0.19588,0.49486 -0.38997,1.39841 0.493,2.43166 2.37856,2.78338 1.27888,0.23855 2.13144,1.75442 0.98673,1.75442 -0.38574,0 -0.5306,-0.27627 -0.3219,-0.61395 0.20869,-0.33767 0.0546,-0.61394 -0.34232,-0.61394 -0.43881,0 -0.60673,0.60169 -0.42834,1.53487 0.16137,0.84417 0.009,1.53487 -0.33773,1.53487 -0.34712,0 -0.47385,0.15728 -0.28162,0.34951 0.19223,0.19223 0.94596,-0.015 1.67494,-0.46046 1.03014,-0.62953 1.24871,-1.20279 0.98108,-2.57319 -0.29586,-1.51499 -0.21474,-1.65567 0.5762,-0.99924 1.16948,0.97058 1.20879,0.20022 0.049,-0.9596 -0.51701,-0.51701 -0.95699,-0.61541 -1.0815,-0.24187 -0.1318,0.3954 -0.61947,0.33023 -1.31064,-0.17517 -1.49048,-1.08986 -0.78104,-2.67531 1.56272,-3.49235 2.32836,-0.81167 2.11491,-0.83579 2.54601,0.28764 0.23267,0.60631 -0.0987,1.11506 -0.92537,1.42088 -1.18522,0.43844 -1.20886,0.55533 -0.29675,1.46745 1.182,1.18199 1.29035,2.69752 0.22362,3.12795 -0.5882,0.23734 -0.59188,0.32098 -0.0158,0.35813 0.41342,0.0267 1.21586,0.94637 1.78322,2.0438 0.93033,1.79951 0.93355,1.91403 0.0329,1.16693 -0.84352,-0.6997 -1.14441,-0.68267 -1.93671,0.10963 -1.26235,1.26235 -1.18525,1.494 0.44334,1.33209 0.75976,-0.0755 0.8938,-0.0175 0.29787,0.12903 -0.59594,0.1465 -0.93243,0.51082 -0.74778,0.8096 0.18466,0.29878 0.73216,0.39112 1.21667,0.2052 1.12183,-0.43049 3.96229,2.74217 3.92346,4.38233 -0.016,0.67534 -0.16842,0.88255 -0.33873,0.46046 -0.17032,-0.42209 -0.57922,-0.76744 -0.90869,-0.76744 -0.32946,0 -0.42827,0.27628 -0.21958,0.61395 0.77949,1.26124 -0.20177,0.55907 -1.07246,-0.76743 z m 0.48252,-1.99024 c -0.99982,-0.81709 -1.94201,-1.36146 -2.09376,-1.20971 -0.38775,0.38774 2.42027,2.74422 3.23811,2.71741 0.37042,-0.0122 -0.14453,-0.69061 -1.14435,-1.5077 z m -2.47979,-6.45154 c 0.2087,-0.33767 0.0869,-0.61395 -0.27073,-0.61395 -0.3576,0 -0.65019,0.27628 -0.65019,0.61395 0,0.33767 0.12183,0.61395 0.27074,0.61395 0.14891,0 0.44149,-0.27628 0.65018,-0.61395 z m -0.87706,-6.75343 c 0.31355,0 0.57009,-0.2676 0.57009,-0.59468 0,-0.71713 -1.96571,-0.0693 -2.59988,0.85687 -0.82339,1.20249 -0.48515,1.68265 0.49492,0.70259 0.53062,-0.53063 1.22131,-0.96478 1.53487,-0.96478 z m -41.9526,14.18806 c -0.21221,-0.81147 0.0564,-1.28533 0.84557,-1.4917 1.35408,-0.3541 1.43458,0.0856 0.29147,1.59223 -0.78464,1.03413 -0.84164,1.02909 -1.13704,-0.10053 z m 30.51633,-1.23952 c 0.23441,-0.37929 0.68339,-0.53066 0.99773,-0.33639 0.31433,0.19427 0.57152,-0.21564 0.57152,-0.91091 0,-0.83686 0.39805,-1.26413 1.17768,-1.26413 1.65989,0 3.11995,0.63611 3.11995,1.35927 0,0.33767 -0.39656,0.46177 -0.88125,0.27578 -0.48469,-0.186 -0.96818,-0.11102 -1.07441,0.16662 -0.10623,0.27764 -1.12561,0.70607 -2.26529,0.95208 -1.46961,0.31723 -1.94821,0.24677 -1.64593,-0.24232 z m 3.41109,-1.28353 c 0,-0.33767 -0.27627,-0.61395 -0.61394,-0.61395 -0.33768,0 -0.61395,0.27628 -0.61395,0.61395 0,0.33767 0.27627,0.61395 0.61395,0.61395 0.33767,0 0.61394,-0.27628 0.61394,-0.61395 z m 15.00558,-0.95271 c -1.15821,-0.9259 -1.15287,-0.94201 0.18963,-0.57258 0.83995,0.23115 1.38138,0.10909 1.38138,-0.31141 0,-0.38036 -0.24497,-0.54016 -0.54438,-0.35511 -0.29941,0.18504 -0.86981,-0.0557 -1.26754,-0.5349 -0.57561,-0.69356 -0.46454,-1.00975 0.54438,-1.54971 0.69715,-0.3731 1.24573,-1.01399 1.21907,-1.4242 -0.0365,-0.56215 -0.12473,-0.55683 -0.35814,0.0216 -0.17031,0.42209 -0.83393,0.76744 -1.4747,0.76744 -0.74555,0 -1.31072,0.58042 -1.56962,1.612 -0.35668,1.42111 -0.47557,1.48515 -1.00404,0.54083 -0.42795,-0.7647 -0.35946,-1.22321 0.2394,-1.6026 0.67644,-0.42853 0.64991,-0.53325 -0.137,-0.54083 -2.03608,-0.0196 -3.19943,-5.33577 -1.47993,-6.76283 0.74244,-0.61617 0.92274,-0.60099 0.93032,0.0783 0.007,0.66182 0.13709,0.64502 0.60455,-0.0783 0.3576,-0.55334 0.5989,-0.62907 0.60454,-0.18972 0.005,0.40216 -0.27138,0.90474 -0.61456,1.11683 -0.34318,0.2121 -0.45672,0.65624 -0.25231,0.98697 0.4825,0.78071 2.10417,-0.53065 2.10417,-1.70155 0,-0.47575 -0.41283,-1.02343 -0.9174,-1.21705 -0.50457,-0.19362 -0.76454,-0.59936 -0.57771,-0.90165 0.18682,-0.30229 0.0471,-0.54962 -0.3105,-0.54962 -0.3576,0 -0.65018,0.27628 -0.65018,0.61395 0,0.33767 -0.41259,0.61395 -0.91687,0.61395 -0.69625,0 -0.58832,-0.37785 0.44862,-1.57043 l 1.36546,-1.57043 0.52348,1.57043 c 0.55232,1.65697 1.30742,2.00593 1.98127,0.91563 0.22258,-0.36014 -0.0327,-0.98176 -0.56726,-1.38138 -0.88283,-0.65997 -0.8845,-0.9781 -0.0183,-3.46994 0.58034,-1.6695 0.80176,-3.55291 0.56565,-4.81148 -0.36313,-1.93565 -0.29708,-2.04246 1.03124,-1.66754 1.11167,0.31377 1.21965,0.25881 0.49829,-0.2536 -0.76406,-0.54274 -0.77904,-0.74566 -0.0879,-1.19137 0.51258,-0.33057 0.59637,-0.68344 0.21782,-0.91739 -0.33834,-0.20911 -0.77358,0.0326 -0.9672,0.5372 -0.19363,0.50457 -0.67082,0.9174 -1.06044,0.9174 -0.48219,0 -0.43933,-0.33077 0.13422,-1.03587 0.73788,-0.90713 0.70907,-0.98583 -0.2318,-0.63322 -0.79576,0.29823 -1.07441,0.0892 -1.07441,-0.80597 0,-0.66475 0.29258,-1.20863 0.65018,-1.20863 0.3576,0 0.47944,0.27628 0.27074,0.61395 -0.20869,0.33767 -0.0573,0.61395 0.33643,0.61395 0.39372,0 0.55443,-0.42068 0.35713,-0.93485 -0.1973,-0.51416 0.14912,-1.4427 0.76984,-2.06342 1.09546,-1.09546 1.07125,-1.17431 -0.82537,-2.68766 -1.87938,-1.49959 -1.98155,-1.51488 -2.67737,-0.4007 -0.94354,1.51085 -0.91283,1.78899 0.1975,1.78899 0.50651,0 0.92092,-0.29258 0.92092,-0.65018 0,-0.3576 0.27628,-0.47943 0.61395,-0.27074 0.33767,0.20869 0.61395,0.65572 0.61395,0.99339 0,0.33767 -0.27628,0.4432 -0.61395,0.23451 -0.33767,-0.20869 -0.61395,-0.0869 -0.61395,0.27074 0,0.3576 0.34535,0.66888 0.76744,0.69173 0.42208,0.0229 0.1634,0.3335 -0.57485,0.69032 -1.45872,0.70505 -4.74365,0.17487 -4.21512,-0.68031 0.17893,-0.28951 -0.13777,-0.90303 -0.70379,-1.36338 -0.89876,-0.73098 -0.97811,-0.70091 -0.62646,0.23741 0.26023,0.69435 0.10695,1.07441 -0.43331,1.07441 -1.60106,0 -1.62571,-1.84793 -0.0343,-2.57302 2.35101,-1.07118 1.80487,-1.81839 -1.08651,-1.48652 -1.4351,0.16472 -4.20496,0.31667 -6.15524,0.33767 l -3.54596,0.0382 0.93669,1.81136 c 1.25406,2.42509 1.24253,5.55602 -0.0205,5.55602 -0.52643,0 -0.79226,0.2668 -0.59072,0.59289 0.56988,0.9221 -2.07141,5.65885 -2.87763,5.16058 -0.4432,-0.27392 -0.56499,-0.0913 -0.33638,0.5045 0.37454,0.97603 -1.49158,4.35645 -2.30609,4.17738 -0.258,-0.0567 -0.72953,0.26582 -1.04784,0.71675 -0.39314,0.55692 -0.46063,0.27838 -0.21044,-0.86848 0.21342,-0.97828 0.1052,-1.68836 -0.25731,-1.68836 -0.34411,0 -0.62565,-0.43467 -0.62565,-0.96594 0,-0.59585 0.41165,-0.88024 1.07441,-0.74227 0.70563,0.1469 1.02151,0.70445 0.92028,1.62439 -0.13706,1.24552 -0.052,1.29861 0.76743,0.47915 0.50686,-0.50686 0.92157,-1.63199 0.92157,-2.50029 0,-1.09067 0.33215,-1.58163 1.07441,-1.58813 0.828,-0.007 0.88542,-0.12918 0.25038,-0.53166 -1.15206,-0.73018 0.3565,-3.13948 1.70089,-2.71647 0.71565,0.22518 0.76294,0.15801 0.18303,-0.25995 -0.60723,-0.43766 -0.50435,-0.81479 0.46047,-1.68794 1.24009,-1.12227 1.65351,-2.22686 0.78194,-2.08924 -0.25325,0.04 -1.01301,0.0358 -1.68836,-0.009 -0.93236,-0.0623 -1.0274,-0.20914 -0.39491,-0.60991 0.51747,-0.32789 0.59826,-0.67287 0.21329,-0.91079 -0.34083,-0.21064 -0.9085,0.44551 -1.2615,1.45813 -0.353,1.01261 -0.40294,1.84111 -0.11097,1.84111 0.29197,0 0.65419,-0.34535 0.80493,-0.76744 0.15075,-0.42209 0.4944,-0.56192 0.76367,-0.31074 0.26927,0.25119 -0.01,1.00838 -0.61988,1.68265 -1.04226,1.15169 -1.15649,1.16162 -1.88596,0.16402 -0.42707,-0.58406 -0.62826,-1.30178 -0.44708,-1.59493 0.18118,-0.29315 -0.29233,-0.33567 -1.05225,-0.0945 -0.94122,0.29873 -1.24775,0.22184 -0.96157,-0.2412 0.23105,-0.37385 0.95634,-0.67973 1.61176,-0.67973 1.3299,0 1.61242,-0.95579 0.42422,-1.43523 -0.61394,-0.24774 -0.61394,-0.31936 0,-0.35814 0.42209,-0.0267 0.76744,-0.34105 0.76744,-0.69865 0,-0.3576 -0.24152,-0.50091 -0.53671,-0.31848 -0.29519,0.18244 -1.27639,-0.35381 -2.18045,-1.19166 -1.69678,-1.57252 -2.55192,-1.98455 -1.88745,-0.90942 0.20869,0.33767 0.10988,0.61395 -0.21958,0.61395 -0.32946,0 -0.7149,-0.20721 -0.85653,-0.46046 -0.14163,-0.25325 -0.18329,-0.14107 -0.0926,0.24929 0.0907,0.39036 -0.43804,1.21625 -1.17503,1.8353 -0.73699,0.61905 -1.14592,0.8884 -0.90875,0.59854 0.23717,-0.28985 0.0505,-0.90773 -0.41484,-1.37307 -1.08515,-1.08515 -2.97785,-0.41111 -2.48104,0.88356 0.31156,0.8119 0.19062,0.79962 -0.78049,-0.0792 -0.63205,-0.57199 -1.46409,-1.03998 -1.849,-1.03998 -0.40123,0 -0.53851,-0.45843 -0.32176,-1.07441 0.29707,-0.84422 0.21115,-0.92027 -0.40105,-0.35495 -0.42852,0.3957 -1.2052,0.55596 -1.72595,0.35613 -0.55604,-0.21338 -0.78757,-0.10565 -0.56096,0.261 0.21222,0.34338 -0.43315,1.40899 -1.43416,2.36801 -1.00101,0.95903 -1.7982,2.31362 -1.77154,3.0102 0.0267,0.69659 0.18782,0.92118 0.35814,0.49909 0.44355,-1.09926 1.43523,-0.94782 1.43523,0.21917 0,0.58598 0.34358,0.85476 0.84611,0.66192 0.46536,-0.17857 1.10128,-0.0695 1.41316,0.24237 0.34677,0.34677 0.59025,-0.25138 0.62678,-1.53979 0.0444,-1.56789 -0.16001,-2.02252 -0.79922,-1.77724 -0.56846,0.21814 -0.85893,-0.10785 -0.85893,-0.96397 0,-0.84115 0.37577,-1.27663 1.07441,-1.24511 0.64184,0.029 0.76543,0.17314 0.30697,0.35813 -1.2532,0.50568 -0.87174,1.34756 0.45356,1.00099 0.67154,-0.17562 1.06965,-0.56416 0.88468,-0.86345 -0.5401,-0.87389 0.17921,-0.62735 1.22719,0.42063 0.59964,0.59965 0.93782,1.93569 0.89355,3.5302 -0.0392,1.41098 -0.19756,2.08194 -0.35199,1.49102 -0.15442,-0.59093 -0.48894,-1.07441 -0.74337,-1.07441 -0.25443,0 -0.33519,-0.86808 -0.17947,-1.92906 0.18204,-1.24032 0.0551,-1.7881 -0.35567,-1.53425 -0.35134,0.21713 -0.48308,0.99027 -0.29275,1.71808 0.23708,0.90657 0.12226,1.18498 -0.36461,0.88408 -0.39086,-0.24157 -0.71066,-0.17619 -0.71066,0.14528 0,0.32147 0.48348,0.77986 1.07441,1.01865 0.94728,0.38278 0.90585,0.49907 -0.35017,0.9828 -1.60912,0.61972 -1.68621,3.04623 -0.11029,3.47116 0.75713,0.20415 0.77044,0.14302 0.0748,-0.34373 -0.95894,-0.67101 -0.42228,-1.95722 0.81664,-1.95722 0.45045,0 0.97803,0.41441 1.17239,0.92092 0.19437,0.50651 0.79385,0.92092 1.33218,0.92092 0.56451,0 0.93252,0.45475 0.86949,1.07441 -0.0601,0.59092 -0.0775,3.13267 -0.0386,5.64832 0.055,3.55748 0.23441,4.41019 0.80743,3.83717 0.92299,-0.92299 3.09717,-0.95489 3.99347,-0.0586 0.4949,0.4949 0.3458,1.24145 -0.5518,2.76277 -0.67647,1.14654 -1.30409,2.08461 -1.3947,2.08461 -0.47115,0 -3.64801,-5.37235 -3.72107,-6.29266 -0.0469,-0.59076 -0.31362,-1.28145 -0.5927,-1.53487 -0.27908,-0.25342 -0.30889,0.0918 -0.0662,0.76713 0.63924,1.77919 -0.18522,0.7823 -4.5642,-5.51876 -5.14944,-7.40971 -6.33893,-9.78877 -5.85609,-11.71257 0.30422,-1.2121 0.66407,-1.47764 1.59994,-1.1806 0.68584,0.21767 1.20745,0.10013 1.20745,-0.2721 0,-0.36042 -0.20721,-0.6226 -0.46046,-0.58261 -0.25326,0.04 -0.5986,0.0212 -0.76744,-0.0416 -0.49443,-0.18419 -14.73505,-0.35418 -14.73489,-0.17589 8e-5,0.0892 0.89786,0.96424 1.99505,1.94459 1.1232,1.00357 1.75716,2.00583 1.45082,2.29365 -0.29925,0.28116 -0.66743,0.16586 -0.81817,-0.25623 -0.15075,-0.42209 -0.64245,-0.76744 -1.09268,-0.76744 -0.45023,0 -0.95795,-0.34534 -1.12827,-0.76743 -0.17031,-0.42209 -0.3357,-0.21488 -0.36753,0.46046 -0.0489,1.03851 -0.15833,1.08585 -0.70916,0.30697 -0.49012,-0.69303 -0.72835,-0.73101 -0.96268,-0.15349 -0.17127,0.42209 -0.68649,0.76744 -1.14492,0.76744 -1.38976,0 -1.66204,-1.17351 -0.53402,-2.30153 0.77039,-0.77039 1.1347,-0.85279 1.31948,-0.29844 0.14039,0.42118 0.51006,0.6083 0.82148,0.41583 0.31142,-0.19246 0.10282,-0.81334 -0.46356,-1.37972 -0.74794,-0.74794 -1.0993,-0.82124 -1.28377,-0.26783 -0.13969,0.41907 -0.64538,0.76195 -1.12374,0.76195 -0.47837,0 -0.86976,0.55255 -0.86976,1.2279 0,0.67534 -0.27628,1.22789 -0.61395,1.22789 -0.33767,0 -0.61395,0.30584 -0.61395,0.67963 0,0.3738 0.44518,0.50881 0.98928,0.30002 0.70788,-0.27164 0.888,-0.11569 0.63322,0.54826 -0.19584,0.51033 -0.11148,0.92788 0.18745,0.92788 0.29894,0 0.68287,-0.34534 0.85318,-0.76743 0.24363,-0.60377 0.32001,-0.60052 0.35814,0.0152 0.0392,0.63294 -2.25238,1.98014 -3.36821,1.98014 -0.14685,0 -0.26701,-2.21021 -0.26701,-4.91158 v -4.91158 h 32.91132 32.91131 l -0.2186,11.99442 c -0.16916,9.28182 -0.40787,12.11139 -1.0555,12.51161 -0.70658,0.43664 -0.70658,0.57656 0,0.89847 0.64809,0.29528 0.66377,0.46209 0.0695,0.73943 -0.42209,0.19698 -0.76744,0.6277 -0.76744,0.95716 0,0.32946 0.27628,0.42827 0.61395,0.21958 0.33767,-0.2087 0.61395,-0.10989 0.61395,0.21957 0,0.32946 -0.34535,0.76018 -0.76744,0.95716 -0.61395,0.28651 -0.61395,0.42976 0,0.71627 0.85959,0.40114 1.11814,8.85108 0.27083,8.85108 -0.27313,0 -1.03289,-0.42872 -1.68835,-0.95271 z m -0.89418,-5.34025 c 0.005,0.42208 0.28567,0.76743 0.62335,0.76743 0.91223,0 0.74385,-1.01028 -0.35083,-2.10496 -0.65668,-0.65668 -0.72203,-0.96478 -0.20465,-0.96478 0.41807,0 0.59666,-0.16346 0.39687,-0.36325 -0.19979,-0.19979 -0.86745,-0.0701 -1.4837,0.28831 -0.6721,0.39083 -0.79681,0.65902 -0.31165,0.67022 0.54254,0.0125 0.68089,0.47343 0.42024,1.40005 -0.30417,1.08138 -0.24853,1.18138 0.2562,0.46046 0.43635,-0.62323 0.6478,-0.67285 0.65417,-0.15348 z m -1.83244,-0.46047 c 0,-0.33767 -0.12184,-0.61394 -0.27074,-0.61394 -0.14891,0 -0.44149,0.27627 -0.65019,0.61394 -0.20869,0.33768 -0.0869,0.61395 0.27074,0.61395 0.3576,0 0.65019,-0.27627 0.65019,-0.61395 z m 4.29763,-0.61394 c 0,-0.33767 -0.27628,-0.61395 -0.61395,-0.61395 -0.33767,0 -0.61395,0.27628 -0.61395,0.61395 0,0.33767 0.27628,0.61394 0.61395,0.61394 0.33767,0 0.61395,-0.27627 0.61395,-0.61394 z m -4.91158,-1.2279 c 0,-0.33767 -0.27628,-0.61395 -0.61395,-0.61395 -0.33767,0 -0.61395,0.27628 -0.61395,0.61395 0,0.33767 0.27628,0.61395 0.61395,0.61395 0.33767,0 0.61395,-0.27628 0.61395,-0.61395 z m -24.40442,-2.24845 c -0.88143,-0.35566 -1.05056,-2.04918 -0.20465,-2.04918 0.30953,0 0.70323,0.28318 0.87488,0.62929 0.17165,0.34612 0.2421,0.27705 0.15656,-0.15348 -0.15533,-0.78174 -2.82212,-1.52365 -2.82212,-0.78512 0,0.95525 1.34036,2.7606 2.01693,2.71663 0.56216,-0.0365 0.55684,-0.12473 -0.0216,-0.35814 z m 29.62297,-6.34682 c 0.21159,-0.34235 -0.24767,-0.60978 -1.03817,-0.60454 -1.14049,0.008 -1.23759,0.12574 -0.4967,0.60454 1.1424,0.73828 1.07859,0.73828 1.53487,0 z m -34.49669,-2.67009 0.36514,-2.36311 -1.19917,1.38265 c -1.31415,1.51523 -1.53849,2.09089 -0.58521,1.50174 0.33905,-0.20955 0.61395,0.23238 0.61395,0.98701 0,1.9557 0.38002,1.24392 0.80529,-1.50829 z m -0.80529,-2.13153 c 0,-0.25343 -0.55256,-0.46078 -1.2279,-0.46078 -0.77834,0 -1.2279,0.40929 -1.2279,1.11793 0,0.92769 0.20896,1.00611 1.2279,0.46079 0.67534,-0.36143 1.2279,-0.8645 1.2279,-1.11794 z m 35.30198,1.11794 c 0.2087,-0.33767 0.0869,-0.61395 -0.27074,-0.61395 -0.3576,0 -0.65018,0.27628 -0.65018,0.61395 0,0.33767 0.12183,0.61395 0.27074,0.61395 0.14891,0 0.44149,-0.27628 0.65018,-0.61395 z m 0,-1.84184 c 0.2087,-0.33768 0.0869,-0.61395 -0.27074,-0.61395 -0.3576,0 -0.65018,0.27627 -0.65018,0.61395 0,0.33767 0.12183,0.61394 0.27074,0.61394 0.14891,0 0.44149,-0.27627 0.65018,-0.61394 z m -34.07409,-0.61395 c -0.50651,-0.32733 -1.1972,-0.59515 -1.53487,-0.59515 -0.33767,0 -0.19953,0.26782 0.30698,0.59515 0.5065,0.32733 1.19719,0.59514 1.53486,0.59514 0.33768,0 0.19954,-0.26781 -0.30697,-0.59514 z m 34.38107,-5.18232 c 0,-0.14891 -0.27628,-0.44149 -0.61395,-0.65018 -0.33767,-0.2087 -0.61395,-0.0869 -0.61395,0.27074 0,0.3576 0.27628,0.65018 0.61395,0.65018 0.33767,0 0.61395,-0.12184 0.61395,-0.27074 z m 0,-2.18505 c 0,-0.33767 -0.12184,-0.61395 -0.27074,-0.61395 -0.14891,0 -0.44149,0.27628 -0.65019,0.61395 -0.20869,0.33767 -0.0869,0.61394 0.27074,0.61394 0.3576,0 0.65019,-0.27627 0.65019,-0.61394 z m -6.33403,-1.34301 c -0.19599,-0.48977 -0.34147,-0.34429 -0.37093,0.37092 -0.0266,0.64721 0.11845,1.00982 0.32246,0.80581 0.20401,-0.20401 0.22582,-0.73354 0.0484,-1.17673 z m -35.0822,-0.53968 c 0.61194,-0.99013 -0.18815,-1.45696 -1.1413,-0.66592 -0.46132,0.38286 -1.02055,0.51432 -1.24273,0.29214 -0.22219,-0.22219 -0.40398,-0.0816 -0.40398,0.3123 0,0.89698 2.2411,0.9464 2.78801,0.0615 z m 20.21396,-1.70899 c -0.34594,-0.36416 -1.5138,0.55878 -1.5138,1.19633 0,0.33105 0.38655,0.24568 0.859,-0.18972 0.47245,-0.43541 0.76711,-0.88838 0.6548,-1.00661 z m -9.38256,-0.83898 c -0.44054,-0.44054 -0.7265,-0.47679 -0.7265,-0.0921 0,0.81948 0.72606,1.54555 1.1358,1.1358 0.17447,-0.17446 -0.01,-0.64413 -0.4093,-1.04371 z m 6.89763,0.98826 c 0.53412,-0.20496 0.97113,-0.65321 0.97113,-0.9961 0,-0.34594 -0.43072,-0.26596 -0.96771,0.1797 -0.801,0.66477 -1.05967,0.65434 -1.50149,-0.0605 -0.29357,-0.47502 -0.748,-0.64944 -1.00983,-0.3876 -0.26184,0.26183 -0.0696,0.73308 0.42708,1.04722 1.08984,0.68924 0.90209,0.66963 2.08082,0.21731 z m 22.58209,-0.97803 c -0.39395,-0.39395 -0.92008,-0.51246 -1.16918,-0.26336 -0.24911,0.24911 -0.0545,0.69915 0.43244,1.0001 1.14661,0.70864 1.66436,0.19089 0.73674,-0.73674 z m -61.30306,-0.54952 c 0.60573,-0.70744 0.96643,-1.42115 0.80155,-1.58603 -0.30169,-0.30169 -2.85789,1.99282 -2.85789,2.56532 0,0.70922 1.03098,0.21824 2.05634,-0.97929 z m 21.88762,0.67231 c 0,-0.33767 -0.27628,-0.61394 -0.61395,-0.61394 -0.33767,0 -0.61395,0.27627 -0.61395,0.61394 0,0.33767 0.27628,0.61395 0.61395,0.61395 0.33767,0 0.61395,-0.27628 0.61395,-0.61395 z m 5.21856,0 c 0.20869,-0.33767 0.0869,-0.61394 -0.27074,-0.61394 -0.3576,0 -0.65018,0.27627 -0.65018,0.61394 0,0.33767 0.12183,0.61395 0.27074,0.61395 0.14891,0 0.44149,-0.27628 0.65018,-0.61395 z m -16.26962,-1.22789 c 0,-0.33767 -0.29258,-0.61395 -0.65018,-0.61395 -0.3576,0 -0.47943,0.27628 -0.27074,0.61395 0.20869,0.33767 0.50127,0.61395 0.65018,0.61395 0.14891,0 0.27074,-0.27628 0.27074,-0.61395 z m 2.45579,0 c 0,-0.33767 -0.29258,-0.61395 -0.65018,-0.61395 -0.3576,0 -0.47943,0.27628 -0.27074,0.61395 0.20869,0.33767 0.50128,0.61395 0.65018,0.61395 0.14891,0 0.27074,-0.27628 0.27074,-0.61395 z m 6.13948,0 c 0,-0.33767 -0.29258,-0.61395 -0.65018,-0.61395 -0.3576,0 -0.47943,0.27628 -0.27074,0.61395 0.20869,0.33767 0.50127,0.61395 0.65018,0.61395 0.14891,0 0.27074,-0.27628 0.27074,-0.61395 z m 4.60461,0 c 0.20869,-0.33767 0.0869,-0.61395 -0.27074,-0.61395 -0.3576,0 -0.65019,0.27628 -0.65019,0.61395 0,0.33767 0.12184,0.61395 0.27075,0.61395 0.1489,0 0.44148,-0.27628 0.65018,-0.61395 z m 4.60461,0 c 0,-0.33767 -0.29258,-0.61395 -0.65018,-0.61395 -0.3576,0 -0.47944,0.27628 -0.27074,0.61395 0.20869,0.33767 0.50127,0.61395 0.65018,0.61395 0.1489,0 0.27074,-0.27628 0.27074,-0.61395 z m 12.8929,0 c 0,-0.33767 -0.29258,-0.61395 -0.65018,-0.61395 -0.3576,0 -0.47944,0.27628 -0.27074,0.61395 0.20869,0.33767 0.50127,0.61395 0.65018,0.61395 0.1489,0 0.27074,-0.27628 0.27074,-0.61395 z m -36.22292,-0.27074 c 0,-0.14891 -0.27627,-0.44149 -0.61394,-0.65018 -0.33767,-0.2087 -0.61395,-0.0869 -0.61395,0.27074 0,0.3576 0.27628,0.65018 0.61395,0.65018 0.33767,0 0.61394,-0.12183 0.61394,-0.27074 z m 1.84185,-0.34321 c 0,-0.33767 -0.27628,-0.61395 -0.61395,-0.61395 -0.33767,0 -0.61395,0.27628 -0.61395,0.61395 0,0.33767 0.27628,0.61395 0.61395,0.61395 0.33767,0 0.61395,-0.27628 0.61395,-0.61395 z m 19.03238,0 c 0,-0.33767 -0.12184,-0.61395 -0.27074,-0.61395 -0.14891,0 -0.44149,0.27628 -0.65019,0.61395 -0.20869,0.33767 -0.0869,0.61395 0.27075,0.61395 0.3576,0 0.65018,-0.27628 0.65018,-0.61395 z m 5.52553,0 c 0,-0.33767 -0.27628,-0.61395 -0.61395,-0.61395 -0.33767,0 -0.61395,0.27628 -0.61395,0.61395 0,0.33767 0.27628,0.61395 0.61395,0.61395 0.33767,0 0.61395,-0.27628 0.61395,-0.61395 z m 2.45579,0.34321 c 0,-0.14891 -0.27628,-0.44149 -0.61395,-0.65018 -0.33767,-0.2087 -0.61395,-0.0869 -0.61395,0.27074 0,0.3576 0.27628,0.65018 0.61395,0.65018 0.33767,0 0.61395,-0.12183 0.61395,-0.27074 z m 11.665,0 c 0,-0.14891 -0.27628,-0.44149 -0.61395,-0.65018 -0.33767,-0.2087 -0.61394,-0.0869 -0.61394,0.27074 0,0.3576 0.27627,0.65018 0.61394,0.65018 0.33767,0 0.61395,-0.12183 0.61395,-0.27074 z m 1.84184,0 c 0,-0.14891 -0.27627,-0.44149 -0.61394,-0.65018 -0.33768,-0.2087 -0.61395,-0.0869 -0.61395,0.27074 0,0.3576 0.27627,0.65018 0.61395,0.65018 0.33767,0 0.61394,-0.12183 0.61394,-0.27074 z m 10.43711,0 c 0,-0.14891 -0.27627,-0.44149 -0.61394,-0.65018 -0.33768,-0.2087 -0.61395,-0.0869 -0.61395,0.27074 0,0.3576 0.27627,0.65018 0.61395,0.65018 0.33767,0 0.61394,-0.12183 0.61394,-0.27074 z m -10.1027,35.05476 c -1.05905,-0.7744 -1.04018,-0.81846 0.30805,-0.71914 0.78993,0.0582 1.54411,0.42942 1.67594,0.82495 0.31979,0.95932 -0.59398,0.91059 -1.98399,-0.10581 z m -35.67254,-1.89398 c -1.17685,-0.8661 -1.1764,-0.88287 0.0361,-1.34095 0.67534,-0.25513 1.58891,-0.96555 2.03014,-1.57871 0.44124,-0.61317 1.27007,-1.11061 1.84184,-1.10544 0.89562,0.008 0.91205,0.0918 0.11868,0.60454 -0.68185,0.44065 -0.71,0.59759 -0.10847,0.60455 0.44685,0.005 0.72312,0.43841 0.61395,0.96275 -0.10918,0.52435 -0.44995,0.91401 -0.75726,0.86592 -0.30732,-0.0481 -0.80453,0.35173 -1.10492,0.88849 -0.67302,1.20262 -1.14651,1.22015 -2.6701,0.0989 z m 1.57101,-0.35082 c -0.50651,-0.32733 -1.1972,-0.59514 -1.53487,-0.59514 -0.33767,0 -0.19953,0.26781 0.30698,0.59514 0.5065,0.32733 1.19719,0.59515 1.53486,0.59515 0.33768,0 0.19954,-0.26782 -0.30697,-0.59515 z m 2.45579,-1.33022 c 0,-0.28139 -0.41441,-0.51162 -0.92092,-0.51162 -0.50651,0 -0.92092,0.23023 -0.92092,0.51162 0,0.2814 0.41441,0.51163 0.92092,0.51163 0.50651,0 0.92092,-0.23023 0.92092,-0.51163 z m 25.57399,1.43537 c -1.20426,-1.33069 -1.3229,-2.55718 -0.24865,-2.57034 0.57462,-0.007 0.56169,-0.13983 -0.0515,-0.52851 -0.65689,-0.4164 -0.62263,-0.59443 0.17314,-0.89979 0.68638,-0.26339 1.17048,0.0886 1.57115,1.14246 0.3185,0.83772 0.88194,1.52314 1.25209,1.52314 0.91472,0 2.45989,1.60443 1.99393,2.0704 -0.20611,0.2061 -0.74551,0.067 -1.19866,-0.30906 -0.60604,-0.50297 -0.82392,-0.50156 -0.82392,0.005 0,1.06497 -1.53759,0.81503 -2.66761,-0.43363 z m 4.81642,-1.94699 c 0.20869,-0.33767 0.50128,-0.61395 0.65018,-0.61395 0.14891,0 0.27074,0.27628 0.27074,0.61395 0,0.33767 -0.29258,0.61395 -0.65018,0.61395 -0.3576,0 -0.47943,-0.27628 -0.27074,-0.61395 z m -35.30199,-0.54148 c 0,-0.33767 0.27628,-0.7847 0.61395,-0.99339 0.33767,-0.20869 0.61395,-0.10316 0.61395,0.23451 0,0.33767 -0.27628,0.78469 -0.61395,0.99339 -0.33767,0.20869 -0.61395,0.10316 -0.61395,-0.23451 z m 55.41011,-5.29102 c 0.007,-1.35069 0.13255,-1.83095 0.2794,-1.06725 0.14685,0.76369 0.14128,1.8688 -0.0124,2.45579 -0.15365,0.58699 -0.27381,-0.0379 -0.267,-1.38854 z m -51.93323,-0.10448 c -0.2263,-0.2263 0.005,-1.04681 0.51367,-1.82336 0.77138,-1.17727 0.77985,-1.35616 0.051,-1.07648 -0.5202,0.19962 -0.98464,-0.11858 -1.14711,-0.78592 -0.15014,-0.61674 -0.18118,-0.3723 -0.069,0.54321 0.23072,1.88226 -0.33371,2.49328 -1.58742,1.71844 -0.70157,-0.43359 -0.71138,-0.69624 -0.0555,-1.48654 0.47619,-0.57378 0.60632,-1.39522 0.32351,-2.04212 -0.26022,-0.59523 -0.41468,-1.33319 -0.34325,-1.63991 0.0714,-0.30673 -0.23005,-0.80831 -0.66997,-1.11463 -0.53821,-0.37477 -0.36489,-0.43521 0.52987,-0.18478 1.7923,0.50164 2.43562,-0.69939 0.67454,-1.25929 -1.34378,-0.42723 -1.34922,-0.45808 -0.16241,-0.92197 1.16227,-0.4543 1.15407,-0.48226 -0.15348,-0.5231 -0.86029,-0.0269 -1.38139,0.31791 -1.38139,0.914 0,0.52643 -0.24674,0.80466 -0.54831,0.61828 -0.56341,-0.34821 0.0682,3.29044 0.76754,4.42206 0.20966,0.33924 -0.0512,0.97568 -0.57975,1.41432 -0.79333,0.65841 -1.05825,0.64377 -1.51871,-0.0839 -0.38728,-0.61204 -0.56063,-0.64689 -0.56715,-0.11401 -0.005,0.42209 -0.27976,0.76743 -0.61019,0.76743 -0.36751,0 -0.33265,-0.5885 0.0898,-1.51561 0.37981,-0.83359 0.92644,-1.36984 1.21473,-1.19167 0.2883,0.17818 0.52417,0.0193 0.52417,-0.35314 0,-0.3724 -0.34534,-0.63224 -0.76743,-0.57743 -1.74896,0.22711 -2.96416,-0.0856 -2.60309,-0.6698 0.2121,-0.34317 0.63965,-0.46696 0.95012,-0.27508 0.31047,0.19188 0.39996,-0.0799 0.19887,-0.60393 -0.2011,-0.52405 -0.0598,-0.95281 0.314,-0.95281 0.3738,0 0.67964,-0.82883 0.67964,-1.84185 0,-1.3633 0.27915,-1.82925 1.07441,-1.79337 0.64184,0.029 0.76543,0.17314 0.30697,0.35814 -0.90487,0.36512 -1.0324,1.43523 -0.17104,1.43523 0.32802,0 0.8137,-0.83863 1.07931,-1.86363 0.47849,-1.84655 0.52115,-1.8065 4.65318,4.36894 2.29364,3.42792 4.01531,6.38753 3.82592,6.57691 -0.18938,0.18938 -0.7333,-0.18762 -1.20871,-0.83778 -0.47541,-0.65016 -1.07116,-0.97533 -1.32388,-0.72261 -0.25272,0.25272 -0.14309,0.45949 0.24362,0.45949 0.52717,0 0.52812,0.38407 0.004,1.53487 -0.68173,1.49623 -1.72057,1.95374 -2.55089,1.12342 z m -1.02109,-2.04434 c 0,-0.33767 -0.29258,-0.61395 -0.65018,-0.61395 -0.3576,0 -0.47943,0.27628 -0.27074,0.61395 0.20869,0.33767 0.50127,0.61395 0.65018,0.61395 0.14891,0 0.27074,-0.27628 0.27074,-0.61395 z m 3.06974,-2.35346 c 0,-0.2814 -0.41442,-0.51163 -0.92092,-0.51163 -0.50651,0 -0.92092,0.23023 -0.92092,0.51163 0,0.28139 0.41441,0.51162 0.92092,0.51162 0.5065,0 0.92092,-0.23023 0.92092,-0.51162 z m -6.75342,-2.82886 c 0,-0.14891 -0.27628,-0.44149 -0.61395,-0.65018 -0.33767,-0.20869 -0.61395,-0.0869 -0.61395,0.27074 0,0.3576 0.27628,0.65018 0.61395,0.65018 0.33767,0 0.61395,-0.12183 0.61395,-0.27074 z m 24.5579,4.22517 c 0,-0.52644 0.28079,-0.78363 0.62397,-0.57153 0.34318,0.2121 0.46501,0.64282 0.27074,0.95716 -0.5263,0.85157 -0.89471,0.69278 -0.89471,-0.38563 z m -28.25099,-1.3013 c -0.007,-0.8195 -0.14398,-0.90613 -0.51312,-0.32425 -0.39352,0.6203 -0.82797,0.52404 -1.98593,-0.44004 -0.81521,-0.67872 -1.13686,-1.24323 -0.71478,-1.25447 0.42209,-0.0112 0.76744,0.25585 0.76744,0.59352 0,0.33768 0.29258,0.61395 0.65018,0.61395 0.3576,0 0.47259,-0.28735 0.25553,-0.63855 -0.25885,-0.41883 0.20402,-0.49474 1.34515,-0.22061 2.30295,0.55324 2.358,0.63564 1.19894,1.7947 -0.91605,0.91605 -0.99475,0.90631 -1.00341,-0.12425 z m 24.15801,0.10963 c 0,-0.5065 0.43744,-0.92515 0.97208,-0.93032 0.53465,-0.005 1.3865,-0.30308 1.89301,-0.66201 0.72324,-0.51253 0.56821,-0.59653 -0.72222,-0.39136 -1.19507,0.19002 -1.65347,-0.006 -1.68105,-0.71937 -0.0208,-0.53934 -0.20956,-2.01666 -0.41936,-3.28293 -0.29957,-1.8081 -0.18345,-2.3023 0.54096,-2.3023 0.50732,0 1.08143,-0.41441 1.27579,-0.92092 0.35263,-0.91894 2.29894,-1.33364 2.16107,-0.46046 -0.19996,1.26639 0.16304,1.99533 0.99363,1.99533 0.5065,0 0.92092,0.29258 0.92092,0.65018 0,0.3576 -0.25401,0.4932 -0.56445,0.30133 -0.92359,-0.57081 -2.63419,1.5798 -2.24599,2.8237 1.16392,3.72948 1.17024,3.78925 0.34702,3.28048 -0.59251,-0.3662 -0.70797,-0.22481 -0.42295,0.51794 0.45153,1.17668 -0.51389,1.40971 -1.05313,0.2542 -0.28651,-0.61395 -0.42976,-0.61395 -0.71627,0 -0.49389,1.05834 -1.27906,0.96412 -1.27906,-0.15349 z m 2.25114,-4.6046 c 0,-0.33767 -0.29258,-0.61395 -0.65018,-0.61395 -0.3576,0 -0.47943,0.27628 -0.27074,0.61395 0.20869,0.33767 0.50127,0.61394 0.65018,0.61394 0.14891,0 0.27074,-0.27627 0.27074,-0.61394 z m 0,-1.87808 c 0,-0.3576 -0.25268,-0.49402 -0.56151,-0.30315 -0.30883,0.19087 -0.70143,-3e-5 -0.87245,-0.42423 -0.18759,-0.46528 -0.33017,-0.34502 -0.35941,0.30315 -0.0267,0.59093 0.36594,1.07441 0.87245,1.07441 0.50651,0 0.92092,-0.29258 0.92092,-0.65018 z m -31.2922,2.33854 c -0.32203,-0.80117 -0.57554,-0.99458 -0.60356,-0.46046 -0.043,0.81859 -0.11445,0.81859 -0.64347,0 -0.90255,-1.3966 -0.72951,-5.36303 0.32274,-7.39786 0.90851,-1.75686 2.13305,-2.44427 2.13305,-1.19741 0,0.33767 -0.24925,0.61395 -0.55388,0.61395 -0.61918,0 -1.91211,3.32956 -1.88324,4.84971 0.0168,0.88384 0.078,0.88121 0.60781,-0.0261 0.32402,-0.55491 0.67385,-1.564 0.77738,-2.24243 0.10354,-0.67843 0.53041,-1.64578 0.94861,-2.14968 0.41819,-0.5039 0.68159,-1.2906 0.58533,-1.74823 -0.12569,-0.59751 0.58038,-0.83771 2.5048,-0.85208 2.29628,-0.0172 2.89107,0.25693 4.15572,1.91496 1.65032,2.16369 1.40531,4.22892 -0.44433,3.74523 -0.61259,-0.1602 -1.24337,0.0247 -1.40173,0.41099 -0.15837,0.38624 -0.30976,-0.16343 -0.33642,-1.2215 -0.0401,-1.59246 -0.33922,-1.98081 -1.73682,-2.25507 -0.9286,-0.18222 -1.87601,-0.14536 -2.10537,0.0819 -0.72001,0.71347 -1.27833,3.78994 -0.68781,3.78994 0.30974,0 1.07084,0.37123 1.69134,0.82494 1.06572,0.77928 1.0525,0.81937 -0.23872,0.72425 -0.75179,-0.0554 -1.60606,-0.48768 -1.89837,-0.96065 -0.29231,-0.47298 -0.68958,-0.70185 -0.88282,-0.50862 -0.54388,0.54389 1.26092,3.64453 1.82423,3.13401 0.27381,-0.24814 0.32434,0.0323 0.1123,0.62324 -0.21203,0.59093 -0.13713,1.07441 0.16646,1.07441 0.30359,0 0.64853,-0.62162 0.76655,-1.38138 0.19589,-1.26115 0.24564,-1.23443 0.57151,0.30697 0.32453,1.53509 0.19567,1.68836 -1.41955,1.68836 -1.26847,0 -1.93527,-0.39503 -2.33174,-1.38138 z m 8.57614,-6.70226 c 0,-0.2814 -0.41442,-0.51163 -0.92093,-0.51163 -0.5065,0 -0.92092,0.23023 -0.92092,0.51163 0,0.28139 0.41442,0.51162 0.92092,0.51162 0.50651,0 0.92093,-0.23023 0.92093,-0.51162 z m -4.91159,-2.96742 c 0,-0.33767 -0.29258,-0.61395 -0.65018,-0.61395 -0.3576,0 -0.47943,0.27628 -0.27074,0.61395 0.2087,0.33767 0.50128,0.61395 0.65018,0.61395 0.14891,0 0.27074,-0.27628 0.27074,-0.61395 z m 62.05719,6.39529 c 0.0295,-0.71521 0.17494,-0.86069 0.37092,-0.37093 0.17735,0.4432 0.15554,0.97273 -0.0484,1.17674 -0.20401,0.20401 -0.34911,-0.15861 -0.32246,-0.80581 z m -61.03394,-0.0512 c -0.22511,-0.22511 -0.4009,-0.84674 -0.39063,-1.38138 0.0153,-0.79832 0.13514,-0.7718 0.67023,0.14837 0.66108,1.13684 0.46942,1.98203 -0.2796,1.23301 z m 40.46224,-0.66511 c 0.30561,-0.25326 0.76184,-0.73674 1.01384,-1.07441 0.26149,-0.35037 0.46225,-0.15268 0.46761,0.46046 0.006,0.59724 -0.44504,1.07441 -1.01384,1.07441 -0.56279,0 -0.77321,-0.20721 -0.46761,-0.46046 z m -11.54317,-2.02743 c -0.87972,-1.54579 -1.26005,-1.76021 -2.21531,-1.24897 -1.07474,0.57518 -1.1192,0.44126 -0.65304,-1.96712 0.27511,-1.42137 0.51224,-2.7818 0.52694,-3.02317 0.0147,-0.24138 0.56011,-0.72431 1.212,-1.0732 0.89468,-0.47881 1.42148,-0.3981 2.14882,0.32923 1.33768,1.33768 1.20424,2.3099 -0.26434,1.92586 -1.37502,-0.35958 -1.54655,0.27715 -0.56748,2.10656 0.60518,1.13079 0.54944,1.17461 -0.66653,0.52385 -0.72982,-0.39059 -1.4513,-0.58581 -1.60329,-0.43382 -0.47067,0.47066 4.04207,2.36569 4.68594,1.96775 0.78169,-0.48311 0.77148,0.0848 -0.0284,1.57944 -0.86654,1.61915 -1.33414,1.49452 -2.57531,-0.68641 z m -1.08677,-4.26554 c 0,-0.33767 -0.27628,-0.61394 -0.61395,-0.61394 -0.33767,0 -0.61395,0.27627 -0.61395,0.61394 0,0.33768 0.27628,0.61395 0.61395,0.61395 0.33767,0 0.61395,-0.27627 0.61395,-0.61395 z m 0.61394,-1.84184 c 0,-0.33767 -0.27627,-0.61395 -0.61394,-0.61395 -0.33767,0 -0.61395,0.27628 -0.61395,0.61395 0,0.33767 0.27628,0.61395 0.61395,0.61395 0.33767,0 0.61394,-0.27628 0.61394,-0.61395 z m -37.4508,5.8325 c 0,-0.84417 0.11554,-1.53486 0.25676,-1.53486 0.14121,0 0.64766,-0.15001 1.12543,-0.33335 0.66388,-0.25475 0.80403,0.1071 0.59448,1.53487 -0.3328,2.26751 -1.97667,2.54473 -1.97667,0.33334 z m 70.08696,-1.53486 c 0,-0.84418 0.13936,-1.18953 0.30967,-0.76744 0.17032,0.42209 0.17032,1.11278 0,1.53487 -0.17031,0.42209 -0.30967,0.0767 -0.30967,-0.76743 z m -38.70441,-0.46047 c -0.0438,-0.85025 0.28287,-1.38138 0.8497,-1.38138 0.55852,0 0.90394,0.54361 0.87777,1.38138 -0.0409,1.30948 -0.0686,1.31747 -0.53119,0.15349 l -0.48804,-1.22789 -0.31851,1.22789 c -0.29042,1.11958 -0.3248,1.10604 -0.38973,-0.15349 z m -7.279,-1.71782 c -0.41873,-0.4546 -0.51674,-0.9777 -0.21782,-1.16244 0.29893,-0.18475 0.7171,0.11646 0.92926,0.66936 0.50785,1.32342 0.23046,1.51567 -0.71144,0.49308 z m 47.28997,-3.65422 c 0.005,-1.68835 0.12384,-2.30618 0.26496,-1.37294 0.14112,0.93324 0.13735,2.31462 -0.008,3.06974 -0.14576,0.75512 -0.26122,-0.008 -0.25661,-1.6968 z"
       id="path6568" />
  </g>
</svg>
