<?xml version="1.0" encoding="UTF-8" standalone="no"?>
<!-- Created with Inkscape (http://www.inkscape.org/) -->

<svg
   width="108.13249mm"
   height="108.61482mm"
   viewBox="0 0 108.13252 108.61481"
   version="1.1"
   id="svg5"
   inkscape:version="1.1 (c4e8f9ed74, 2021-05-24)"
   sodipodi:docname="ornateb.svg"
   xmlns:inkscape="http://www.inkscape.org/namespaces/inkscape"
   xmlns:sodipodi="http://sodipodi.sourceforge.net/DTD/sodipodi-0.dtd"
   xmlns="http://www.w3.org/2000/svg"
   xmlns:svg="http://www.w3.org/2000/svg">
  <sodipodi:namedview
     id="namedview7"
     pagecolor="#ffffff"
     bordercolor="#666666"
     borderopacity="1.0"
     inkscape:pageshadow="2"
     inkscape:pageopacity="0.0"
     inkscape:pagecheckerboard="0"
     inkscape:document-units="mm"
     showgrid="false"
     inkscape:zoom="0.66903058"
     inkscape:cx="-47.083049"
     inkscape:cy="91.924049"
     inkscape:window-width="2506"
     inkscape:window-height="1403"
     inkscape:window-x="1974"
     inkscape:window-y="0"
     inkscape:window-maximized="1"
     inkscape:current-layer="layer1" />
  <defs
     id="defs2" />
  <g
     inkscape:label="Layer 1"
     inkscape:groupmode="layer"
     id="layer1"
     transform="translate(-147.84931,-219.13408)">
    <path
       style="fill:#000000;stroke-width:0.554776"
       d="m 247.07997,327.70323 c -3.01639,-0.15873 -3.13802,-0.22572 -3.47577,-1.91446 l -0.35,-1.74999 -0.91737,1.30972 -0.91737,1.30975 -0.44328,-1.19832 c -0.29435,-0.7957 -0.91525,-1.1983 -1.8481,-1.1983 -1.06454,0 -1.40481,-0.28686 -1.40481,-1.18438 0,-1.11165 -0.0721,-1.09262 -1.17578,0.31039 -1.09127,1.38731 -1.43502,1.48311 -4.78251,1.33279 -2.38303,-0.10694 -3.70366,-0.41456 -3.89241,-0.90643 -0.69308,-1.80609 2.82805,-8.64804 3.55264,-6.90317 0.15831,0.38141 0.95371,0.69729 1.76737,0.70196 0.81368,0.004 1.85388,0.24686 2.31157,0.53819 0.65837,0.41904 0.4796,0.60075 -0.85595,0.87002 -1.15586,0.23306 -1.91394,0.85053 -2.40429,1.95835 -0.52867,1.19429 -1.10351,1.62258 -2.19533,1.63558 -1.42037,0.0168 -1.43635,0.0499 -0.40225,0.83218 0.59231,0.44798 2.18172,0.81452 3.53208,0.81452 2.11581,0 2.41804,-0.14195 2.18672,-1.02649 -0.14761,-0.56458 0.14468,-1.57412 0.64951,-2.24344 0.85526,-1.13387 1.06695,-1.16794 3.10088,-0.49915 1.20065,0.39479 2.43956,1.22273 2.75316,1.83984 0.31362,0.61711 0.96258,1.04427 1.44215,0.94922 0.50045,-0.0992 1.1454,0.42735 1.51374,1.23579 0.69855,1.53315 1.06539,1.66837 2.3299,0.85882 2.32434,-1.48803 -5.85803,-9.46881 -11.01254,-10.74121 -2.05874,-0.5082 -2.61684,-0.90062 -2.76448,-1.94371 -0.18242,-1.28936 -0.16187,-1.29496 1.52565,-0.41609 0.94084,0.48998 2.47684,1.28968 3.41336,1.7771 0.93649,0.48742 1.77646,0.79949 1.86656,0.69347 0.34086,-0.40101 1.42369,-2.62965 1.42369,-2.93016 0,-0.17257 -0.35665,-0.31387 -0.79255,-0.31387 -0.43588,0 -1.12244,-0.32259 -1.52563,-0.7169 -0.40321,-0.3943 -1.51735,-1.03747 -2.47585,-1.42928 -1.39465,-0.5701 -1.96367,-0.57442 -2.84867,-0.0218 -0.90672,0.56623 -1.45731,0.5239 -3.05671,-0.23506 -2.19239,-1.04036 -3.09747,-1.13032 -4.22013,-0.41942 -0.59101,0.37426 -0.25778,0.81436 1.41705,1.87164 1.20436,0.76028 2.67551,1.52591 3.2692,1.70139 0.63952,0.18892 0.45767,0.24547 -0.44618,0.13859 -1.48597,-0.17592 -2.04376,0.38944 -1.01292,1.02655 0.282,0.17425 -0.34213,1.58717 -1.38694,3.13977 -1.04481,1.55259 -1.89966,3.32046 -1.89966,3.92864 0,0.63916 -0.46817,1.22815 -1.10956,1.39587 -0.61025,0.15957 -1.10954,0.53741 -1.10954,0.8396 0,0.31377 -0.41642,0.36887 -0.97088,0.12854 -0.53397,-0.23153 -2.34392,-0.71969 -4.02211,-1.08482 -2.43596,-0.53001 -3.0152,-0.86264 -2.87236,-1.64945 0.15663,-0.86285 -0.0851,-0.93114 -1.94172,-0.54856 -1.16636,0.24036 -3.24408,0.60279 -4.61714,0.80544 -1.91761,0.28301 -2.26005,0.47314 -1.47682,0.81995 0.57593,0.25502 1.89775,0.18201 3.03723,-0.16774 1.311,-0.40237 2.20701,-0.42972 2.55862,-0.078 0.35161,0.35163 0.10735,0.5411 -0.69723,0.5411 -0.68108,0 -2.07786,0.35077 -3.10395,0.7795 -1.36315,0.56958 -2.03089,0.61422 -2.47929,0.16586 -1.07692,-1.07691 -5.67615,-0.42965 -7.42931,1.0455 -0.87446,0.73581 -1.30032,1.33784 -0.94636,1.33784 1.23446,0 0.18934,1.32971 -1.37378,1.74775 -2.15362,0.57596 -6.56238,-0.60233 -5.78017,-1.54484 0.42,-0.50608 0.15663,-0.90433 -0.99342,-1.50258 -0.8607,-0.44771 -2.17491,-1.46694 -2.92048,-2.26498 -1.22856,-1.31499 -1.29356,-1.62263 -0.69348,-3.28208 1.06794,-2.95331 0.73088,-3.58485 -0.68433,-1.28219 -1.08983,1.77328 -1.39667,1.98284 -1.81329,1.23839 -0.68376,-1.22184 -3.58849,-0.22394 -4.34114,1.49137 -0.36977,0.84268 -1.34103,1.43058 -3.03989,1.84002 -1.37307,0.33092 -2.42725,0.76518 -2.34263,0.96503 1.14215,2.69715 0.79974,3.93405 -1.15124,4.1587 -0.84847,0.0977 -2.61028,-0.33918 -3.91516,-0.97086 -2.83109,-1.37051 -3.10177,-1.38732 -5.14872,-0.31974 -2.3586,1.23011 -5.5745,1.09036 -6.30467,-0.27397 -0.47188,-0.88172 -1.18783,-1.1182 -3.48686,-1.15174 -1.5912,-0.0233 -3.76686,-0.35535 -4.8348,-0.73808 -1.8704,-0.6703 -1.96023,-0.8319 -2.44582,-4.40044 -0.27726,-2.03752 -0.36287,-3.84581 -0.19018,-4.01844 0.17256,-0.17257 1.07362,0.079 2.00219,0.55921 2.19932,1.13731 2.29823,1.11661 2.29823,-0.48113 0,-0.74482 0.24964,-1.50849 0.55477,-1.69708 0.7958,-0.49183 0.65164,-3.70934 -0.2175,-4.85429 -0.40535,-0.53397 -1.27118,-0.97086 -1.92408,-0.97086 -1.42356,0 -1.60057,-1.4847 -0.21622,-1.81373 0.77715,-0.18473 0.67722,-0.35203 -0.50089,-0.83863 -2.01506,-0.83226 -2.50472,-1.80729 -1.33658,-2.66144 0.60946,-0.44566 0.84308,-1.09847 0.63156,-1.76488 -0.24617,-0.77564 0.0432,-1.23023 1.08534,-1.70507 0.78156,-0.35612 1.78374,-0.64747 2.22709,-0.64747 0.44333,0 0.80605,-0.37447 0.80605,-0.83215 0,-0.46572 -0.49465,-0.83218 -1.12327,-0.83218 -0.6536,0 -1.32291,-0.52193 -1.60068,-1.24824 -0.26256,-0.68654 -0.96058,-1.68335 -1.55119,-2.21514 -1.814,-1.63334 -1.47671,-11.7478 0.43109,-12.92687 0.3102,-0.19165 0.92458,-0.0493 1.3653,0.31642 1.20499,1.00007 1.61808,-0.6309 0.79299,-3.13091 -1.07308,-3.25144 -0.75218,-11.29242 0.56523,-14.16383 2.47667,-5.39808 2.81269,-5.72874 5.99508,-5.89951 4.42061,-0.23718 5.54332,-0.84351 5.99218,-3.23611 0.30831,-1.64348 0.18179,-2.20463 -0.63097,-2.79897 -0.55913,-0.40883 -0.75795,-0.74335 -0.44177,-0.74335 1.30064,0 2.51841,2.13191 2.1572,3.77652 -0.55418,2.52326 -4.69944,5.6547 -7.48541,5.6547 -0.62541,0 -1.13712,0.26096 -1.13712,0.57991 0,0.36725 0.76299,0.44177 2.08042,0.20318 3.86098,-0.69905 6.17431,-2.40438 7.30855,-5.38761 1.0726,-2.82118 -1.80287,-7.17908 -4.14417,-6.28064 -0.42407,0.16271 -0.9186,0.057 -1.09893,-0.23467 -0.18032,-0.29182 0.4021,-0.53056 1.29435,-0.53056 1.9916,0 4.41026,1.81031 4.64734,3.47842 0.0967,0.68045 0.55031,1.23719 1.00799,1.23719 1.16339,0 1.43451,-4.61557 0.35755,-6.08743 -0.6944,-0.94906 -0.97407,-1.00187 -2.10481,-0.3976 -1.88053,1.00495 -4.0391,0.53911 -4.25517,-0.91833 -0.23411,-1.57895 -1.63831,-1.53939 -1.86512,0.0526 -0.14363,1.00732 -0.49482,1.22499 -1.82012,1.12776 -0.90326,-0.0663 -1.83537,0.18347 -2.07137,0.55477 -0.63038,0.9921 -0.53982,5.94565 0.10883,5.94565 0.30512,0 0.55479,-0.59356 0.55479,-1.31901 0,-1.44469 1.25149,-2.7945 2.27475,-2.45342 0.45544,0.15181 0.40516,0.45849 -0.16942,1.03305 -0.98201,0.98201 -1.59466,3.7562 -0.9214,4.17231 0.26422,0.16334 0.48038,-0.16942 0.48038,-0.73937 0,-0.56995 0.37006,-1.52087 0.82236,-2.11315 0.76456,-1.00118 0.7976,-0.94467 0.46992,0.80378 l -0.35248,1.8807 2.0266,-0.38019 c 1.12982,-0.21196 2.02659,-0.15621 2.02659,0.12623 0,0.81106 -5.70139,1.76428 -6.51862,1.08985 -0.48371,-0.39917 -0.94924,-0.36002 -1.53905,0.12958 -0.46507,0.38598 -0.99908,0.54825 -1.18672,0.36061 -0.18766,-0.18766 -0.83182,0.65057 -1.4315,1.86267 -1.1688,2.36233 -1.76959,2.71375 -2.29566,1.34283 -0.18955,-0.49372 -0.0965,-0.71639 0.21805,-0.52202 0.84666,0.52325 0.64931,-0.72115 -0.35822,-2.25884 -0.7015,-1.07064 -0.82381,-2.08843 -0.54057,-4.49842 0.3137,-2.66897 0.25209,-3.02014 -0.43039,-2.45371 -0.65387,0.54265 -0.85921,0.37549 -1.1467,-0.93345 -0.19269,-0.87697 -0.0849,-2.29207 0.2392,-3.14472 0.42758,-1.12459 0.40892,-2.04938 -0.0679,-3.36814 -0.51651,-1.42834 -0.50453,-2.18685 0.0558,-3.53962 0.54307,-1.31109 0.55976,-1.90658 0.07,-2.49672 -0.50862,-0.61283 -0.3447,-1.00975 0.78346,-1.89716 l 1.42666,-1.1222 -1.40577,-1.40578 c -1.51137,-1.51139 -1.79788,-3.0613 -0.75806,-4.1011 0.49376,-0.49378 0.47017,-1.38783 -0.0994,-3.76159 -0.60362,-2.51622 -0.61127,-3.19776 -0.0398,-3.5509 0.97054,-0.59983 6.83496,-0.25439 9.25825,0.54537 1.45276,0.47946 2.15066,0.49038 2.60036,0.0407 0.869,-0.86899 2.61185,-0.76399 2.61185,0.15726 0,0.83467 -2.36705,1.7126 -4.16084,1.54324 -7.13875,-0.67403 -8.14426,-0.67168 -7.9301,0.0189 0.12246,0.3946 1.70755,1.46642 3.52249,2.3818 1.81493,0.91537 4.1967,2.5381 5.29282,3.60604 1.09612,1.06794 2.84325,2.44667 3.88253,3.06382 l 1.88959,1.12208 1.12265,-1.66349 c 0.61746,-0.91494 2.36982,-2.29365 3.89414,-3.06382 1.52431,-0.77017 3.6479,-2.07457 4.71909,-2.89865 1.07119,-0.82408 2.5167,-1.70885 3.21225,-1.96617 0.82578,-0.30546 -0.33513,-0.42749 -3.34525,-0.35159 -5.77356,0.14552 -7.52309,0.76791 -7.76022,2.7605 -0.25887,2.17538 -1.75652,2.9435 -3.19713,1.63977 -1.38514,-1.25354 -1.61312,-4.745 -0.30986,-4.745 0.5178,0 0.83218,0.52397 0.83218,1.38694 0,0.76282 0.18724,1.38314 0.41608,1.37846 0.85095,-0.0168 1.52563,-0.85614 1.52563,-1.89664 0,-1.38669 5.31748,-3.3556 7.45285,-2.75957 0.78297,0.21855 3.10798,0.33654 5.16667,0.26221 2.74964,-0.0992 3.79481,0.0621 3.93802,0.60803 0.10714,0.40874 0.46035,1.55347 0.78474,2.54381 0.34862,1.06433 0.383,1.92842 0.0841,2.11317 -0.79903,0.49381 -0.58906,1.35658 0.33014,1.35658 0.45972,0 1.374,-0.61895 2.03177,-1.37543 1.8058,-2.07686 5.20077,-3.14861 9.3563,-2.95367 2.73651,0.12832 3.59043,0.36564 3.60066,1.00044 0.0105,0.61925 0.56974,0.79775 2.18777,0.69762 2.50479,-0.15495 4.39942,1.23403 5.63355,4.13015 0.92557,2.172 0.42605,3.70128 -1.94147,5.94372 -1.3492,1.27793 -2.35128,1.67104 -4.77142,1.87173 -1.9148,0.15872 -3.06357,0.0375 -3.06357,-0.32318 0,-0.3175 0.31207,-0.70316 0.69348,-0.85707 0.41428,-0.16711 0.30261,-0.29745 -0.27739,-0.32362 -0.66928,-0.0302 -0.97086,0.37332 -0.97086,1.29899 0,1.2413 0.26883,1.37157 3.5569,1.72369 4.40875,0.47214 6.59086,1.75516 8.13588,4.78363 0.9326,1.82805 1.1324,2.96562 0.90515,5.15346 -0.2789,2.6848 -0.25994,2.73504 0.43343,1.14877 0.80175,-1.83415 0.53894,-4.73467 -0.64139,-7.07893 -0.92437,-1.83593 -0.43641,-1.95534 1.305,-0.31938 1.21985,1.146 1.28444,1.15292 1.29251,0.1386 0.006,-0.76984 0.13524,-0.86759 0.46337,-0.35056 0.25017,0.39434 1.18255,0.9346 2.07191,1.20056 l 1.61704,0.48356 -1.80301,0.0476 c -0.99168,0.0262 -1.80303,0.31206 -1.80303,0.6352 0,0.32314 0.20863,0.45857 0.46362,0.30097 0.25499,-0.15767 1.19117,-0.069 2.08042,0.19689 1.19431,0.35715 1.31922,0.49596 0.478,0.53119 -1.05957,0.0444 -1.11107,0.26958 -0.74029,3.23764 0.60251,4.82296 0.58647,6.13614 -0.0627,5.13169 -0.29578,-0.45768 -0.55916,-1.83077 -0.58528,-3.05127 -0.0262,-1.22051 -0.26204,-2.71842 -0.52429,-3.32867 -0.43869,-1.02091 -0.4819,-0.99874 -0.5408,0.27739 -0.0629,1.36277 -0.0774,1.35792 -0.8261,-0.27739 l -0.76208,-1.66433 -0.0451,1.44285 c -0.0646,2.06492 -1.11851,4.83701 -2.92048,7.6809 -2.3968,3.78268 -1.99325,9.25123 0.85728,11.61696 0.66583,0.55261 1.16271,0.5153 2.52586,-0.18955 2.57214,-1.33011 5.59482,-4.32079 5.59482,-5.53561 0,-1.04624 -0.0241,-1.04785 -0.75319,-0.0507 -0.73218,1.00133 -0.77194,1.0004 -1.42511,-0.0327 -0.6317,-0.99908 -0.65615,-0.98797 -0.40831,0.18557 0.35253,1.66926 -0.0858,1.58733 -0.74206,-0.1386 -0.60501,-1.5913 -1.23176,-1.74445 -2.22774,-0.54437 -0.57007,0.68691 -0.53137,1.0281 0.20947,1.84671 1.11206,1.22883 1.15949,2.08879 0.13692,2.48122 -0.45668,0.17529 -1.47614,-0.58014 -2.4965,-1.84983 -1.82139,-2.26651 -2.26884,-3.35343 -0.91945,-2.23353 0.65519,0.54376 1.17014,0.30322 2.76477,-1.2914 1.9374,-1.93739 1.95342,-1.99222 1.41396,-4.83684 -0.66393,-3.50088 -0.66454,-3.28057 0.008,-3.28057 0.30513,0 0.55861,1.06103 0.56327,2.35781 0.004,1.2968 0.2505,2.73229 0.54629,3.18998 0.40888,0.63271 0.53982,0.65336 0.54628,0.0862 0.004,-0.41028 0.86921,0.28424 1.92119,1.54339 1.83006,2.19044 1.93927,2.23973 2.52723,1.14109 0.338,-0.63155 0.45632,-1.64678 0.26294,-2.25606 -0.21333,-0.67213 0.10442,-1.8806 0.80785,-3.0729 0.6377,-1.08081 1.03018,-2.17429 0.87218,-2.42993 -0.15789,-0.25565 0.0264,-0.59124 0.40967,-0.74577 0.55383,-0.22329 0.55454,-0.28997 0.004,-0.32477 -0.4116,-0.026 -0.69348,-0.81788 -0.69348,-1.94814 0,-1.42538 -0.28275,-1.99407 -1.12421,-2.26114 -0.61833,-0.19626 -1.06775,-0.64996 -0.99871,-1.00826 0.069,-0.35828 -0.41552,-1.68654 -1.07681,-2.95171 -1.78548,-3.41593 -7.61728,-6.43158 -8.78473,-4.5426 -0.23199,0.37537 0.21968,1.14041 1.07681,1.82386 2.03441,1.62218 1.84809,2.00063 -0.45626,0.92672 -1.3715,-0.63915 -1.89505,-1.22287 -1.80302,-2.01024 0.0916,-0.78475 -0.15453,-1.06184 -0.84119,-0.94654 -1.25011,0.20991 -1.21134,-0.37868 0.13881,-2.10474 0.59668,-0.76281 1.09197,-1.63659 1.10063,-1.94172 0.008,-0.30512 0.39338,-1.27889 0.85492,-2.16391 0.7495,-1.43719 0.74913,-1.70864 -0.004,-2.54018 -1.17303,-1.2961 -1.0571,-1.67585 0.51151,-1.67585 1.47648,0 2.32946,0.82469 1.42874,1.38135 -0.79085,0.48878 -0.70331,1.39255 0.13482,1.39255 0.3843,0 1.02573,-0.52362 1.4254,-1.16358 0.39965,-0.63998 0.87678,-1.01346 1.06027,-0.82999 0.18347,0.18347 -0.25183,0.95674 -0.96732,1.71836 -1.08546,1.15542 -1.14583,1.38475 -0.3645,1.38475 0.51501,0 1.3699,0.21263 1.89972,0.47251 4.78721,2.34807 6.47826,3.30834 7.74923,4.40046 1.52076,1.30676 2.94593,1.43943 3.3222,0.30926 0.11784,-0.35363 -0.54812,-0.81033 -1.47966,-1.01494 -0.93155,-0.20464 -1.69371,-0.69544 -1.69371,-1.09075 0,-0.39531 -0.74896,-0.86851 -1.66433,-1.05161 -1.3075,-0.26149 -1.66433,-0.62518 -1.66433,-1.69628 0,-0.87619 -0.39653,-1.48927 -1.10957,-1.71558 -1.28827,-0.4089 -1.50724,-1.94174 -0.27738,-1.94174 0.45769,0 0.83215,0.24967 0.83215,0.55479 0,0.30513 0.36873,0.55477 0.81939,0.55477 0.45064,0 1.21608,0.60545 1.70094,1.34543 0.48484,0.74001 1.59048,1.59258 2.45694,1.89463 0.86646,0.30204 1.74059,1.06968 1.9425,1.70584 0.59431,1.87251 2.94314,1.73015 5.6613,-0.34309 2.36173,-1.80138 2.47908,-3.96823 0.32318,-5.9673 -0.83599,-0.77516 -1.93899,-1.4094 -2.45113,-1.4094 -0.51212,0 -1.33681,-0.15558 -1.83264,-0.34593 -0.82553,-0.31678 -0.82212,-0.43364 0.0407,-1.38694 0.89896,-0.99332 0.87464,-1.041 -0.53082,-1.041 -0.81012,0 -1.47292,-0.27671 -1.47292,-0.61493 0,-0.37476 0.52838,-0.4823 1.35294,-0.27535 0.74411,0.18683 1.50781,0.0889 1.69706,-0.21725 0.5069,-0.82016 2.68143,-0.67709 3.91736,0.25772 0.60661,0.4588 0.77406,0.82222 0.38342,0.83215 -0.96742,0.0245 -0.86453,1.5016 0.27741,3.98241 1.1079,2.40691 1.57362,2.62495 2.09539,0.98105 0.25082,-0.79027 -0.0147,-1.5627 -0.83652,-2.43799 -1.31525,-1.40001 -0.86289,-2.10024 1.2469,-1.93012 1.98252,0.15977 2.40725,-0.002 1.51636,-0.57769 -0.64847,-0.41909 -0.49538,-0.53967 0.69346,-0.5463 0.83911,-0.004 1.52565,0.24117 1.52565,0.5463 0,0.30513 -0.002,0.73937 -0.004,0.96501 -0.002,0.22563 -0.31466,0.43724 -0.69347,0.47027 -0.37881,0.0331 -0.89816,0.0981 -1.15414,0.14447 -0.25598,0.0465 0.18095,0.8526 0.97086,1.79139 1.66552,1.97936 1.73344,2.34881 0.60411,3.2861 -1.03446,0.85851 -1.08717,2.2191 -0.086,2.2191 2.26007,0 3.17035,-4.32648 1.36967,-6.5099 -0.64844,-0.78627 -0.59451,-0.81225 0.48844,-0.23526 2.65885,1.4166 2.94892,4.05118 0.69427,6.30582 -0.89883,0.89884 -1.63424,1.77274 -1.63424,1.94201 0,0.16921 0.99866,0.17383 2.21925,0.0105 1.26124,-0.16922 2.08528,-0.0809 1.90897,0.20443 -0.17047,0.27611 -0.79456,0.502 -1.38683,0.502 -0.59224,0 -1.0768,0.25767 -1.0768,0.57261 0,1.42066 1.86329,4.78954 3.82788,6.92087 3.13178,3.39757 3.40082,4.08592 2.55663,6.54146 -0.39709,1.15506 -0.88873,2.98894 -1.09252,4.07527 -0.20381,1.08633 -0.50727,1.83843 -0.67437,1.67131 -0.16711,-0.16711 -0.0189,-1.94224 0.3302,-3.94474 0.72415,-4.15841 0.53798,-4.72702 -2.71411,-8.28863 -1.14391,-1.25278 -2.38345,-3.21395 -2.75456,-4.35817 -0.37111,-1.14424 -1.02986,-2.08042 -1.4639,-2.08042 -0.43403,0 -0.78915,-0.23182 -0.78915,-0.51514 0,-0.98711 -1.75317,-2.25875 -3.1141,-2.25875 -0.75377,0 -1.89866,0.49205 -2.54418,1.09345 -1.11623,1.03993 -1.12351,1.11271 -0.14867,1.48676 0.61294,0.23522 1.11263,0.13021 1.24311,-0.26128 0.11994,-0.36002 0.43922,-0.6546 0.70932,-0.6546 0.61363,0 -0.0168,1.79999 -0.82051,2.34514 -0.32738,0.22188 -1.02536,0.26962 -1.55107,0.1061 -0.5257,-0.16355 -2.07608,0.19814 -3.44526,0.80384 l -2.48944,1.10122 0.85071,1.70528 c 0.49463,0.99156 1.28439,1.7053 1.88688,1.7053 0.56989,0 1.19048,0.24965 1.37905,0.55477 0.4893,0.79173 2.91026,0.68723 3.21308,-0.13859 0.37485,-1.02232 1.6358,0.31414 2.37852,2.52093 0.47971,1.42528 1.33378,2.14039 4.29955,3.59997 3.94325,1.94065 4.23372,2.47371 2.82859,5.19095 -0.48534,0.93857 -0.69726,2.09531 -0.47775,2.60764 0.21702,0.50644 0.44299,1.35755 0.5022,1.89137 0.16712,1.50718 0.63835,1.68696 2.31405,0.88286 1.07146,-0.51411 1.73965,-1.41922 2.16339,-2.9304 0.3372,-1.2026 0.90676,-2.28439 1.26564,-2.40404 0.82279,-0.27426 0.82778,0.48212 0.0168,2.47403 -0.34991,0.85895 -0.67546,2.18587 -0.72348,2.94868 -0.295,4.68768 -1.06503,8.32166 -1.7633,8.32166 -0.41825,0 -0.76049,0.24967 -0.76049,0.55479 0,0.30513 1.37307,0.55477 3.05128,0.55477 2.77907,0 3.05128,0.10946 3.05128,1.22742 0,0.67507 0.61197,1.73607 1.35994,2.35779 0.96754,0.80425 1.56318,2.14712 2.06436,4.65421 0.65615,3.2822 0.63172,3.57699 -0.35642,4.29952 -0.58347,0.42664 -1.38761,0.77571 -1.78697,0.77571 -1.0229,0 -0.90672,-1.62986 0.14489,-2.03343 1.42855,-0.54818 0.56907,-4.50735 -1.42515,-6.56487 -0.91578,-0.94484 -1.66505,-2.14289 -1.66505,-2.66235 0,-0.77839 -0.55319,-0.94444 -3.14628,-0.94444 -2.15337,0 -3.46753,-0.29074 -4.16424,-0.92122 -0.55986,-0.50669 -1.1832,-0.75598 -1.38518,-0.554 -0.20192,0.20192 0.65909,1.30308 1.91349,2.44688 1.5344,1.39906 2.77748,3.30574 3.79866,5.82651 1.07224,2.64679 2.30317,4.49039 4.19246,6.27915 1.47099,1.39273 2.67453,2.78167 2.67453,3.0865 0,0.30731 0.50958,0.39252 1.14374,0.19123 1.03927,-0.32985 1.11228,-0.19395 0.79942,1.48824 -0.18934,1.01821 -0.41491,3.84848 -0.50118,6.28949 -0.0864,2.44103 -0.56722,5.56164 -1.06875,6.93471 -0.50151,1.37309 -0.91548,3.05822 -0.91993,3.74475 -0.004,0.68653 -0.25774,1.24824 -0.56286,1.24824 -0.30513,0 -0.55477,-0.49928 -0.55477,-1.10954 0,-1.2743 -0.94891,-1.40665 -2.36743,-0.33024 -1.20147,0.91171 -0.71168,2.54935 0.76245,2.54935 0.67144,0 1.05021,0.39023 1.05021,1.08198 0,0.5951 0.43479,1.32533 0.96622,1.62273 1.47629,0.82616 0.48358,1.30998 -1.1555,0.56316 -1.852,-0.84383 -3.13939,0.10358 -3.13939,2.31044 0,1.7745 1.27626,2.44635 3.55887,1.87345 1.10382,-0.27705 1.43413,-0.15118 1.43413,0.54608 0,0.49833 0.63287,1.14668 1.40642,1.44078 1.3946,0.53023 1.40509,0.58249 1.24825,6.2275 l -0.1581,5.6928 -2.49649,0.27738 c -1.37309,0.15265 -3.9031,0.20339 -5.62228,0.11302 z m 5.60507,-2.12991 c 0.14426,-0.14426 -0.0887,-0.47951 -0.51797,-0.7448 -0.64349,-0.3977 -0.65397,-0.63468 -0.0598,-1.35065 0.977,-1.17723 1.61428,-0.65875 1.28802,1.04791 -0.16397,0.85822 -0.0147,1.40018 0.38801,1.40018 0.8218,0 0.4804,-5.87252 -0.3921,-6.74501 -0.9154,-0.91542 -1.92792,0.0514 -1.56561,1.49503 0.31611,1.25951 -0.81589,3.03088 -1.9369,3.03088 -0.28331,0 -0.51514,0.65118 -0.51514,1.44708 0,1.30136 0.15349,1.40854 1.5245,1.06446 0.83847,-0.21046 1.64261,-0.50074 1.78695,-0.64508 z m -54.90574,-1.03431 c 0.55101,-0.6639 0.55101,-1.0004 0,-1.66433 -1.38636,-1.67045 -3.36249,-0.39235 -2.57325,1.66433 0.17571,0.45769 0.67105,0.83218 1.10098,0.83218 0.42991,0 1.09243,-0.37449 1.47227,-0.83218 z m -24.17817,-0.0593 c 1.17963,-0.45267 1.10476,-1.2916 -0.2434,-2.72665 l -1.12093,-1.19318 3.06265,-0.68538 c 2.3196,-0.5191 3.06266,-0.92664 3.06266,-1.67976 0,-0.75927 0.59553,-1.07599 2.51886,-1.3396 1.38537,-0.18997 3.0081,-0.60709 3.60605,-0.9271 1.49386,-0.79949 1.38891,-1.86068 -0.14426,-1.45971 -1.46552,0.38323 -3.86643,-0.12874 -3.48649,-0.74352 0.53076,-0.85878 -2.00133,-0.99749 -3.605,-0.19752 -2.6795,1.33671 -2.60942,1.96577 0.19982,1.79303 1.39668,-0.086 2.71397,0.0189 2.92732,0.23172 0.21333,0.21335 -0.21543,0.38982 -0.95283,0.39214 -0.73738,0.002 -2.96342,0.49973 -4.94676,1.10533 -1.98331,0.6056 -4.15301,1.10298 -4.82156,1.1053 -0.66852,0.002 -1.39506,0.29479 -1.61453,0.64989 -0.37237,0.60251 0.17152,1.17292 3.76719,3.95082 1.244,0.96109 1.22446,0.9632 -0.65976,0.0717 -1.06794,-0.50524 -2.36986,-1.29376 -2.89314,-1.75227 -0.5485,-0.48061 -1.54701,-0.71979 -2.3578,-0.56481 -1.53699,0.29382 -1.93201,-0.36642 -0.53905,-0.90096 0.47702,-0.18305 0.69253,-0.61564 0.47891,-0.96131 -0.26977,-0.43649 -1.33975,-0.49124 -3.50253,-0.17928 -1.71274,0.24704 -4.95894,0.4657 -7.21375,0.48587 -3.23001,0.0289 -4.22615,0.23698 -4.69598,0.98092 -0.32798,0.51934 -0.40833,1.13225 -0.17865,1.36202 0.72014,0.72012 7.6198,0.93439 8.29656,0.25763 0.90286,-0.90286 1.50858,-0.76378 1.51831,0.34868 0.004,0.53397 0.2353,1.32928 0.5125,1.76737 0.40269,0.63637 0.66894,0.65958 1.3245,0.11553 0.61923,-0.51393 0.87374,-0.5212 1.03758,-0.0298 0.15726,0.47149 0.67966,0.41207 1.89274,-0.21523 1.9284,-0.99722 5.92579,-0.70069 6.9342,0.51441 0.72738,0.87641 0.68297,0.86618 1.83665,0.42346 z m 20.68503,-3.08038 c 0.70962,-0.8163 0.66544,-0.96341 -0.38981,-1.29833 -1.62888,-0.51699 -3.88392,0.12308 -3.88392,1.10224 0,1.06731 2.96703,2.67287 3.26236,1.76538 0.11616,-0.35677 0.57121,-1.06295 1.01137,-1.56929 z m 6.51831,0.55419 c 0.8982,-0.40926 1.41305,-1.0938 1.41305,-1.87875 0,-0.96864 -0.38881,-1.29253 -1.80301,-1.50196 -0.99168,-0.14677 -2.1151,-0.14845 -2.49651,-0.004 -1.03169,0.39189 -0.83859,2.77892 0.27738,3.42893 1.21181,0.7058 0.95235,0.71025 2.60909,-0.0447 z m 48.60559,0.0696 c 0.63052,-0.33746 1.07307,-1.15812 1.07307,-1.98992 0,-1.06343 0.41406,-1.57189 1.66434,-2.04381 0.91539,-0.34553 1.66433,-0.94796 1.66433,-1.33876 0,-1.16964 -1.27116,-0.79488 -3.26513,0.96266 -1.03303,0.91051 -2.46852,1.65546 -3.18998,1.65546 -1.53685,0 -1.62555,0.4147 -0.44815,2.09566 0.99073,1.41446 1.05685,1.43188 2.50152,0.65871 z m -25.6956,-0.61778 c 0.47987,-0.47989 0.43445,-1.02955 -0.18389,-2.22531 -0.69343,-1.34094 -1.05584,-1.53194 -2.32938,-1.22771 -2.11396,0.50499 -2.34035,0.68764 -2.34035,1.8881 0,0.72031 0.57886,1.22807 1.80301,1.58155 2.43402,0.70278 2.33061,0.70335 3.05061,-0.0168 z m 16.5053,0.0826 c -0.1885,-0.30512 -0.57779,-0.55477 -0.86491,-0.55477 -0.28711,0 -0.52204,0.24965 -0.52204,0.55477 0,0.30515 0.38921,0.5548 0.86491,0.5548 0.4757,0 0.71063,-0.24965 0.52204,-0.5548 z m -8.95319,-1.38692 c -0.17571,-0.45771 -0.41745,-0.83218 -0.53737,-0.83218 -0.11994,0 -0.21804,0.37447 -0.21804,0.83218 0,0.45769 0.24182,0.83215 0.53736,0.83215 0.29555,0 0.39368,-0.37446 0.21805,-0.83215 z m -13.09646,-1.24827 c -0.14405,-0.83909 -0.47243,-2.02424 -0.72975,-2.63368 -0.45595,-1.07984 -0.4302,-1.08337 1.01158,-0.13859 2.00883,1.31624 4.08686,1.26028 4.44774,-0.11973 0.15663,-0.59903 -0.0639,-1.37856 -0.49006,-1.73227 -0.42619,-0.35371 -0.77489,-0.86218 -0.77489,-1.12994 0,-0.63845 1.84855,-0.62814 2.52423,0.0147 0.28988,0.2755 1.02634,0.62352 1.63659,0.77336 1.05485,0.25899 1.04802,0.29219 -0.1386,0.67332 -0.68653,0.2205 -1.24825,0.62143 -1.24825,0.89097 0,0.26954 0.56172,0.4939 1.24825,0.49858 1.0094,0.006 1.08901,0.11134 0.41609,0.54628 -0.55477,0.35853 -0.60101,0.54061 -0.1386,0.54627 0.38141,0.004 1.2144,-0.51243 1.85111,-1.14912 1.94321,-1.94321 0.35516,-5.49971 -2.45572,-5.49971 -1.13523,0 -8.28184,3.32229 -8.58506,3.99098 -0.096,0.21171 -0.59528,0.23178 -1.10956,0.0447 -0.83794,-0.30498 -0.83178,-0.22251 0.0596,0.79452 0.54703,0.62415 1.14141,2.03955 1.32085,3.14534 0.17949,1.10581 0.57157,2.01053 0.87141,2.01053 0.29984,0 0.42731,-0.68653 0.28328,-1.52563 z m 8.12267,0.64343 c 0.42108,-1.09732 -0.0344,-1.89167 -1.08476,-1.89167 -0.86425,0 -0.991,0.5195 -0.46267,1.89634 0.43143,1.12426 1.11501,1.12219 1.54743,-0.004 z m -11.15634,-0.86722 c 0.57505,-0.30776 0.92071,-0.68439 0.76814,-0.83695 -0.15264,-0.15265 -0.84027,0.0239 -1.52827,0.39206 -0.68798,0.36819 -2.58128,0.70049 -4.20734,0.73842 -1.62605,0.038 -2.9569,0.28844 -2.95745,0.5567 -0.001,0.60883 6.50242,-0.0889 7.92492,-0.85023 z m -20.96319,0.0851 c 0.19563,-0.31651 -0.32641,-0.5736 -1.21549,-0.59857 -0.85711,-0.0241 -1.23107,-0.17487 -0.83101,-0.33494 0.56522,-0.22622 0.51512,-0.52567 -0.22467,-1.34314 -0.52363,-0.57862 -1.28309,-1.05201 -1.68769,-1.05201 -1.0763,0 -1.64571,2.77643 -0.69313,3.3797 1.05097,0.66561 4.23064,0.63072 4.65199,-0.051 z m -43.14547,-0.88996 c -0.18431,-0.18431 -0.66286,-0.20402 -1.06333,-0.0438 -0.44257,0.17718 -0.3111,0.30854 0.33518,0.33517 0.58483,0.0241 0.9125,-0.10715 0.72815,-0.29139 z m 9.30103,-0.4046 c 3.51475,-0.73069 3.5188,-0.91519 0.0447,-2.0363 -1.19758,-0.38648 -3.00636,-1.6051 -4.01947,-2.70805 -1.17167,-1.27555 -1.85846,-1.70252 -1.88714,-1.1732 -0.0247,0.45771 -0.13671,1.32297 -0.24853,1.92284 -0.11197,0.59987 0.0493,1.39527 0.35834,1.76756 0.38122,0.45936 0.36482,1.04487 -0.051,1.82193 -0.55184,1.03107 -0.45905,1.1426 0.93236,1.1208 0.84983,-0.0126 3.04169,-0.33532 4.87077,-0.71558 z m 53.79031,0.096 c 1.56065,-0.71107 1.76936,-1.2792 0.71958,-1.95862 -0.77414,-0.50103 -9.29203,-0.62694 -9.29233,-0.13734 -1e-4,0.17131 0.50883,0.85786 1.13099,1.52565 1.2875,1.38198 5.03076,1.66886 7.44176,0.57033 z m 34.70583,-0.47719 c 0.65124,-1.21688 0.31831,-2.21493 -0.73235,-2.19531 -1.15106,0.0214 -3.33493,2.02519 -2.92688,2.68543 0.64475,1.04324 3.008,0.72671 3.65923,-0.49012 z m -45.51739,-0.50684 c 0.86587,-1.61793 0.77221,-1.70082 -1.92219,-1.70082 -1.67857,0 -2.49651,0.23631 -2.49651,0.72122 0,2.05169 3.43713,2.81369 4.4187,0.9796 z m 39.87558,-1.6354 c -0.40357,-0.64623 -0.92339,-1.17496 -1.1551,-1.17496 -0.71262,0 -0.46553,2.66522 0.27214,2.93571 1.17548,0.43099 1.65481,-0.52483 0.88296,-1.76075 z m -71.06227,1.24925 c 0.68653,-0.18389 1.24825,-0.6711 1.24825,-1.08245 0,-0.8561 -2.15392,-2.19884 -3.18999,-1.98862 -0.3814,0.0774 -0.69347,-0.0853 -0.69347,-0.36144 0,-0.27619 -0.62411,-0.38286 -1.38692,-0.23705 -1.60854,0.3075 -1.57717,0.2209 -0.74313,2.0514 0.70335,1.54371 1.32731,1.79843 1.76265,0.71958 0.16712,-0.41426 0.29745,-0.30259 0.32362,0.27739 0.0463,1.02684 0.64625,1.16594 2.67899,0.62119 z m 24.41364,-0.62119 c 0.15789,-0.48095 -0.48736,-0.69348 -2.10556,-0.69348 -2.04494,0 -2.24506,0.10631 -1.61935,0.86023 0.81739,0.98491 3.38448,0.86999 3.72491,-0.16669 z m -31.06367,-1.67574 c 0.13084,-0.39879 -0.49811,-0.95922 -1.44859,-1.29056 -0.92402,-0.32211 -2.57367,-1.04127 -3.66589,-1.59811 -1.89831,-0.96782 -2.00909,-0.96904 -2.51297,-0.0275 -0.59503,1.1118 0.43848,2.33702 2.77725,3.29237 1.79565,0.73348 4.55615,0.51937 4.8502,-0.37619 z m 10.36847,-0.88648 1.41781,-1.31398 -2.08271,-0.34425 c -1.14548,-0.18934 -2.70681,-0.337 -3.46963,-0.32813 l -1.38694,0.0168 1.45985,0.7932 c 0.80293,0.43626 1.60644,1.17521 1.78561,1.64213 0.4293,1.1187 0.60608,1.08257 2.27601,-0.46507 z m 71.09714,0.43644 c -0.18515,-0.48266 -0.33675,-1.48126 -0.33675,-2.21912 0,-1.88732 -2.02802,-1.81318 -2.90253,0.1061 -0.56622,1.24275 -0.51026,1.55691 0.39533,2.2191 1.48289,1.08434 3.27511,1.01743 2.84395,-0.1061 z m -34.11179,-1.20458 c 8.26742,-1.55325 14.61339,-5.23214 16.98334,-9.84559 2.9703,-5.78217 3.57973,-10.83299 2.00382,-16.60692 -1.06637,-3.90704 -4.70039,-9.38404 -7.91635,-11.93114 -1.93312,-1.53104 -2.34046,-1.65691 -3.34072,-1.03225 -1.62489,1.01476 -1.45293,1.54374 1.40117,4.30971 1.39717,1.35403 2.91188,3.18044 3.36604,4.05868 1.21499,2.34952 2.97009,8.09521 2.97009,9.72318 0,3.17115 -2.95916,10.11003 -5.58875,13.10499 -3.55631,4.0504 -10.78848,6.92471 -17.50384,6.95665 -5.53076,0.0262 -6.49365,-0.35027 -8.87368,-3.47016 l -2.15253,-2.82168 v -16.95668 -16.95668 l 4.70496,-0.16313 c 4.19904,-0.14573 9.53784,0.335 14.87282,1.33905 1.3279,0.2499 2.12114,0.0753 2.91259,-0.64088 1.38014,-1.24902 1.38393,-1.92192 0.0105,-1.92192 -1.83264,0 -1.7802,-0.95092 0.11406,-2.06856 2.31851,-1.36797 7.68405,-7.50193 9.21787,-10.53805 1.87179,-3.70514 1.79402,-8.96621 -0.19751,-13.36783 -2.23068,-4.92988 -6.89892,-9.03836 -12.35707,-10.8753 -2.21218,-0.74451 -4.02214,-1.2664 -4.02214,-1.15976 0,0.10673 -0.13482,0.5455 -0.29982,0.97524 -0.20611,0.53714 0.42641,1.02102 2.02381,1.54821 3.39129,1.11923 7.652,5.30479 9.85592,9.6821 1.75274,3.48117 1.85548,3.98993 1.62166,8.0291 -0.28283,4.88586 -1.50463,7.46725 -5.46812,11.55305 -4.03774,4.1623 -5.84786,4.79484 -14.11339,4.93187 -3.96665,0.0658 -7.6853,-0.021 -8.26366,-0.19039 -1.01078,-0.29795 -1.04024,-0.96396 -0.75946,-17.17003 0.20968,-12.10149 0.48369,-17.09088 0.97086,-17.67789 0.54112,-0.652 1.66867,-0.75739 5.56087,-0.51982 3.31577,0.20234 5.00589,0.0977 5.26795,-0.32628 0.21221,-0.34335 0.28049,-0.72963 0.15181,-0.85837 -0.35797,-0.35796 -19.29423,-0.60191 -19.29423,-0.24855 0,0.17026 0.43688,0.92682 0.97085,1.68125 0.89469,1.26405 0.98323,4.02734 1.12848,35.2131 0.1646,35.33212 -0.0732,40.14988 -2.12403,43.02994 -1.02767,1.44322 -1.03572,1.55725 -0.12183,1.72616 2.68019,0.49535 23.03271,0.0971 26.28734,-0.51432 z m -28.92762,-0.39892 c 1.02632,-1.23663 -0.42862,-2.41786 -2.5878,-2.10095 -2.09363,0.30729 -4.05669,-1.36814 -4.05669,-3.46229 0,-2.0405 0.93186,-1.69104 2.2191,0.83218 0.67368,1.3205 1.5207,2.21163 2.0917,2.20065 0.85367,-0.0168 0.83708,-0.1235 -0.15013,-0.97086 -0.61036,-0.52382 -1.42446,-1.65672 -1.80914,-2.51754 -0.45179,-1.01107 -1.0403,-1.4995 -1.66236,-1.37969 -1.07471,0.20695 -2.98741,3.66939 -2.62277,4.74786 0.35897,1.06171 -0.70841,0.82532 -1.97007,-0.43633 -0.62136,-0.62138 -0.95773,-1.40816 -0.74746,-1.74839 0.25559,-0.41357 0.63002,-0.27979 1.12977,0.40368 0.64363,0.88019 0.74749,0.89642 0.74749,0.11679 0,-1.2347 -0.99613,-1.75569 -1.90876,-0.99829 -1.06729,0.88578 -0.39971,2.79472 1.18855,3.39858 1.78374,0.67818 3.64691,0.65352 3.21671,-0.0426 -0.5949,-0.96255 0.78609,-0.60084 1.87911,0.49218 2.27771,2.27771 3.96215,2.76706 5.04277,1.46501 z m -2.02135,-1.21748 c 0.20339,-0.20339 0.5363,-0.20339 0.73971,0 0.20339,0.20339 0.0369,0.36985 -0.36986,0.36985 -0.40684,0 -0.57326,-0.16649 -0.36985,-0.36985 z m -12.60193,0.2639 c 0.22461,-0.3634 0.11448,-0.75868 -0.24463,-0.87839 -1.03261,-0.34421 -0.78202,-2.894 0.31785,-3.23439 0.53397,-0.16523 1.40435,-0.53192 1.93419,-0.81475 1.50319,-0.80251 3.08818,-0.60734 3.70785,0.45657 0.50887,0.8737 0.56716,0.8499 0.58234,-0.23775 0.0222,-1.58633 1.58012,-3.11114 2.72359,-2.66564 0.49463,0.1927 1.14336,0.39433 1.44161,0.448 0.29827,0.0537 0.79756,0.83421 1.10956,1.73452 0.33465,0.96572 1.36346,2.06662 2.50898,2.68482 1.32065,0.71272 1.59728,0.76583 0.86483,0.16606 -0.59231,-0.48499 -1.25212,-0.88178 -1.46629,-0.88178 -0.21417,0 -0.53529,-0.38026 -0.71365,-0.84501 -0.26738,-0.69681 -0.12517,-0.73845 0.81094,-0.23746 1.04926,0.56156 1.12183,0.46838 0.95838,-1.23087 -0.21429,-2.22807 -1.89722,-2.8998 -2.27754,-0.90906 -0.22752,1.19087 -0.24998,1.1979 -0.32022,0.10044 -0.0415,-0.64917 0.29892,-1.4911 0.75661,-1.87095 1.18741,-0.98546 2.49648,0.23096 2.49648,2.31979 0,0.94481 0.23304,1.48511 0.5548,1.28625 0.30512,-0.1885 0.57965,0.23359 0.61008,0.93813 0.0545,1.26374 0.0612,1.26231 0.49946,-0.10589 0.24429,-0.76281 0.46907,-2.63519 0.49947,-4.16084 l 0.0554,-2.77387 h -2.73745 c -2.25953,0 -3.02824,-0.27858 -4.40289,-1.5956 l -1.66545,-1.59559 -0.17403,2.42775 -0.17404,2.42777 -2.77389,0.16984 c -1.52563,0.0935 -4.08454,0.78731 -5.68647,1.54188 -2.55207,1.20216 -2.91257,1.57595 -2.91257,3.02006 0,0.90642 -0.24965,1.64806 -0.55477,1.64806 -0.30515,0 -0.55479,0.26438 -0.55479,0.58752 0,0.32314 0.22301,0.4497 0.4956,0.28122 0.27258,-0.16837 0.65181,0.31612 0.84274,1.07681 0.36883,1.46958 2.15073,1.9153 2.88798,0.72239 z m 15.45883,-7.79027 c -0.40713,-0.9176 -0.97215,-1.22889 -2.08994,-1.15143 -0.84257,0.0585 -1.38669,-0.12874 -1.20918,-0.41609 0.85701,-1.38663 4.5792,0.65888 4.05586,2.22889 -0.10925,0.32792 -0.44983,0.0302 -0.75674,-0.66137 z m 57.98368,7.23049 c 0,-0.89619 -0.16397,-1.05645 -0.6174,-0.60312 -0.33956,0.33957 -0.44966,0.88881 -0.24466,1.22052 0.57387,0.92852 0.86206,0.72211 0.86206,-0.6174 z m -78.2321,-0.0277 c -0.0168,-1.32964 -0.8349,-1.84742 -2.44882,-1.54886 -1.54794,0.28634 -1.57901,0.34673 -0.65385,1.27148 1.12114,1.12061 3.11519,1.29888 3.10267,0.27738 z m 7.22061,-1.281 c 0,-0.4757 -0.24964,-0.7106 -0.55479,-0.52201 -0.30512,0.1885 -0.55477,0.57777 -0.55477,0.8649 0,0.28712 0.24965,0.52202 0.55477,0.52202 0.30515,0 0.55479,-0.38921 0.55479,-0.86491 z m 68.6927,0.15286 c 0.79312,-0.95563 -0.15327,-2.58562 -1.00602,-1.73281 -0.4263,0.4263 -1.54162,0.14719 -3.89886,-0.97549 -4.02948,-1.91922 -4.61245,-1.94101 -5.74363,-0.21461 -0.98451,1.50254 -0.85581,1.67175 1.68589,2.21652 1.34067,0.28737 1.79978,0.17425 1.94171,-0.47853 0.15768,-0.72488 0.60766,-0.65231 2.95976,0.47732 3.33967,1.6039 3.32013,1.60048 4.06115,0.7076 z m -81.82757,-2.0618 c 0.31077,0 1.02552,-0.41676 1.58839,-0.92613 0.9588,-0.86772 1.07419,-0.85898 1.82905,0.1386 0.71929,0.95062 0.8076,0.96272 0.82335,0.1128 0.0105,-0.52363 -0.39992,-1.82767 -0.91026,-2.89789 -1.06691,-2.23735 -0.5121,-4.23633 1.47027,-5.29726 0.97612,-0.5224 1.4041,-0.36464 2.80139,1.03265 0.90707,0.90709 1.64923,2.04293 1.64923,2.52408 0,1.1958 0.54743,1.09717 2.47632,-0.44616 1.28447,-1.02774 2.09784,-1.25466 3.71818,-1.03733 l 2.07407,0.27821 -0.2641,-2.4273 c -0.1453,-1.335 -0.26981,-3.09296 -0.27679,-3.90656 -0.006,-0.81359 -0.37552,-1.78034 -0.81893,-2.14833 -0.91328,-0.75797 -1.09547,-2.75234 -0.25142,-2.75234 0.75411,0 0.67001,-0.63363 -0.24416,-1.8395 -0.81538,-1.07555 -0.74729,-1.09333 -4.85424,1.26708 l -2.04715,1.17657 1.16991,2.05572 c 1.64347,2.88783 3.09892,4.40614 4.58011,4.77791 0.70023,0.17571 1.41989,0.70194 1.59925,1.16932 0.2521,0.65696 0.10861,0.7384 -0.63229,0.35892 -1.96117,-1.00451 -4.00964,-1.25155 -4.00964,-0.48358 0,0.40519 -0.3145,1.1668 -0.69886,1.69245 -0.59356,0.81175 -0.66965,0.58832 -0.50493,-1.48269 0.13294,-1.67175 -0.16313,-3.1384 -0.94184,-4.66472 -1.13975,-2.23409 -2.06616,-2.91792 -3.95298,-2.91792 -1.28179,0 -3.7947,2.94344 -4.18072,4.89705 -0.16124,0.81559 -0.56678,2.23183 -0.90137,3.14722 -2.45566,6.71837 -2.65559,7.51649 -2.31251,9.23188 0.34458,1.7229 0.39256,1.75414 0.9107,0.59295 0.30083,-0.67418 0.80123,-1.22578 1.11197,-1.22578 z m 45.31194,0.83216 c -1.57004,-0.89752 -3.88343,-1.0903 -3.88343,-0.32362 0,0.71387 1.06765,1.06423 3.32866,1.09232 l 1.94172,0.0241 z m 5.90986,-0.021 c 0.36419,-0.94907 -1.24994,-3.03058 -2.35017,-3.03058 -1.38888,0 -2.49324,1.65674 -1.87472,2.81243 0.70687,1.32081 3.74162,1.47755 4.22489,0.21819 z m 37.04,0.5161 c 1.10528,-0.42414 1.17481,-3.46745 0.0887,-3.88423 -1.27127,-0.48782 -3.09464,0.81213 -3.09464,2.20632 0,1.945 0.941,2.47027 3.0059,1.67791 z m -89.96589,-8.34275 c 0.5158,-0.95962 1.10839,-2.81163 1.3169,-4.11555 0.2501,-1.56406 1.02588,-3.08667 2.27984,-4.47466 1.06578,-1.17968 1.81478,-2.53996 1.70505,-3.09655 -0.20045,-1.01709 -0.59035,-1.04961 -7.21541,-0.60174 -1.42624,0.0965 -2.57327,-0.24748 -3.76557,-1.12898 l -1.71457,-1.26763 0.87036,2.08308 c 0.47872,1.14569 0.72849,2.45281 0.55509,2.90469 -0.19501,0.50818 0.69408,1.84639 2.33054,3.50783 2.93703,2.98186 2.90494,4.07934 -0.14803,5.0632 -2.38729,0.76935 -3.01163,1.43616 -3.01163,3.21642 0,1.22656 0.25705,1.59642 1.10954,1.59642 0.61027,0 1.10956,0.23048 1.10956,0.5122 0,0.28173 0.68654,1.33063 1.52565,2.3309 l 1.52563,1.8187 0.2946,-3.30176 c 0.16208,-1.81597 0.7166,-4.08693 1.23237,-5.04657 z m 57.8286,7.10086 c 0.55278,-0.31774 -1.42398,-1.03711 -3.13245,-1.13994 -0.65384,-0.0394 -0.83561,0.26325 -0.63015,1.04894 0.22897,0.87558 0.59157,1.03202 1.75108,0.75546 0.80429,-0.19186 1.70945,-0.49082 2.01152,-0.66446 z m -36.50811,-0.74446 c -0.17717,-0.44257 -0.30856,-0.31113 -0.33519,0.33517 -0.0241,0.58482 0.10694,0.91248 0.29139,0.72813 0.18431,-0.18431 0.20402,-0.66284 0.0438,-1.0633 z m 27.08633,-2.09162 c 3.32096,-1.51271 7.23759,-3.0578 8.70361,-3.43354 2.62871,-0.67373 3.20457,-1.18427 2.10342,-1.86483 -1.44134,-0.8908 -18.73756,6.33779 -18.00416,7.52445 0.49176,0.79567 0.71455,0.72677 7.19713,-2.22608 z m 13.88309,0.004 c -0.16292,-0.26356 -1.45836,-0.87522 -2.87882,-1.3592 -1.96753,-0.67041 -2.76584,-0.72797 -3.35181,-0.24166 -1.2252,1.01682 -0.60354,2.25167 1.49753,2.97473 1.57503,0.54202 2.23326,0.52065 3.48548,-0.11323 0.84908,-0.42978 1.4105,-0.99709 1.24762,-1.26066 z m 17.69584,0.38778 c -1.62948,-1.9489 -2.58591,-2.63518 -3.67256,-2.63518 -1.83905,0 -1.0342,1.60824 1.35428,2.70614 3.12486,1.43639 3.56726,1.42284 2.31828,-0.0709 z m -38.2401,-0.45487 c 0,-0.42811 -0.43689,-0.86248 -0.97086,-0.96533 -0.95628,-0.1841 -1.35163,0.99302 -0.58945,1.75521 0.58153,0.58153 1.56031,0.086 1.56031,-0.78988 z m 42.33366,-0.88116 c 0.13482,-0.94673 -0.19249,-1.27691 -1.5653,-1.57843 -2.12104,-0.46584 -2.449,-0.1885 -1.98122,1.6752 0.29619,1.18014 0.64178,1.41565 1.86964,1.27407 1.05111,-0.12119 1.55784,-0.53544 1.67688,-1.37084 z m -75.35139,-0.32846 c -0.006,-1.02387 -0.1103,-1.09866 -0.57536,-0.41609 -0.40907,0.60052 -0.46673,0.25304 -0.20717,-1.24825 0.28382,-1.64147 0.18368,-2.08042 -0.47484,-2.08042 -1.79297,0 -1.73015,4.14317 0.07,4.62069 0.50512,0.13399 0.98082,0.27256 1.0571,0.30796 0.0763,0.0354 0.13483,-0.49736 0.13022,-1.18389 z m 55.84955,-0.16272 c 0.43616,-1.13663 0.33819,-1.19609 -2.72114,-1.65149 -3.07803,-0.4582 -3.45281,0.23505 -0.83217,1.53929 2.30941,1.14936 3.14519,1.17574 3.55331,0.11218 z m 27.80684,-1.11708 c 2.00364,-1.40339 1.48772,-4.68414 -0.7366,-4.68414 -1.27194,0 -3.02339,1.81616 -3.02339,3.13509 0,0.72278 1.4956,2.41267 2.13529,2.41267 0.21545,0 0.94658,-0.38862 1.6247,-0.86362 z m -44.5318,-0.34883 1.44345,-0.65768 -1.27867,-0.75604 c -1.16569,-0.68926 -1.04407,-0.72591 1.37638,-0.41491 2.32919,0.29927 2.78394,0.18347 3.70538,-0.94409 0.84261,-1.03105 1.18976,-1.14808 1.75545,-0.59173 0.89682,0.88204 1.68446,0.877 2.90927,-0.0189 0.9254,-0.67668 0.91852,-0.8903 -0.13881,-4.29953 -0.61195,-1.9731 -1.25684,-4.27398 -1.43312,-5.11309 -0.21094,-1.00416 -0.67401,-1.52563 -1.35476,-1.52563 -1.14185,0 -1.68962,1.40705 -1.72776,4.43822 -0.021,1.61611 -0.12119,1.77536 -0.60178,0.94966 -0.31754,-0.54563 -0.42301,-1.79387 -0.23438,-2.77389 0.32463,-1.68666 0.29689,-1.72401 -0.51954,-0.69922 -0.88556,1.1116 -0.7205,3.92172 0.35238,5.99904 0.36547,0.70762 0.26833,1.07016 -0.35041,1.3076 -0.47086,0.18074 -0.85608,0.70335 -0.85608,1.16146 0,0.63321 -0.36589,0.7396 -1.52565,0.44368 -2.81084,-0.71721 -8.72991,-1.93075 -9.46471,-1.94048 -0.50094,-0.006 -0.67342,0.63026 -0.55477,2.04861 0.16481,1.9704 0.30236,2.09829 3.22345,2.99687 3.85513,1.18595 3.57302,1.16508 5.2747,0.38975 z m 31.70906,-1.24675 c -0.18347,-0.4782 -0.84077,-0.86946 -1.46061,-0.86946 -1.41781,0 -1.55278,2.04027 -0.15621,2.36003 1.27716,0.29238 2.03337,-0.40481 1.61672,-1.49057 z m -13.48248,-0.0373 c -0.20213,-0.52697 0.008,-0.83218 0.57217,-0.83218 0.49034,0 0.89154,-0.39791 0.89154,-0.88422 0,-0.74673 -0.45293,-0.82314 -2.91259,-0.49136 -3.25805,0.43949 -3.74473,0.63042 -3.74473,1.46901 0,0.33931 0.8111,0.48805 1.94171,0.35606 1.33906,-0.15642 1.94172,-0.002 1.94172,0.49407 0,0.39642 0.36664,0.72077 0.81475,0.72077 0.49629,0 0.68993,-0.32525 0.49543,-0.83215 z m 19.01997,0.14677 c 0.60145,-0.97314 0.21148,-4.50639 -0.551,-4.99249 -1.14751,-0.73155 -1.77126,-0.45129 -2.77412,1.2464 -1.17582,1.99049 -0.78678,3.7139 0.91276,4.04348 0.67213,0.13042 1.39451,0.27099 1.60537,0.31255 0.21083,0.0415 0.57397,-0.23291 0.80699,-0.60994 z m 3.66457,-3.89142 c -0.1126,-0.22885 -0.66024,-0.41609 -1.2169,-0.41609 -1.23048,0 -1.70477,1.51252 -1.03881,3.31281 0.48966,1.32371 0.49635,1.32109 1.47618,-0.57546 0.54138,-1.04786 0.89215,-2.09242 0.77953,-2.32126 z m -59.63916,2.20375 c 0.38141,-0.29512 0.69348,-1.47174 0.69348,-2.61472 0,-2.02391 -0.0612,-2.08636 -2.34709,-2.39293 -2.31254,-0.3102 -3.17245,0.13566 -3.19219,1.65471 -0.0126,1.05202 1.61609,2.37787 2.50406,2.03712 0.50965,-0.19563 0.81609,0.0216 0.81609,0.57834 0,1.44584 -2.60686,1.1074 -3.64228,-0.47287 -1.09555,-1.67201 -0.64191,-4.44869 1.02295,-6.2616 0.62937,-0.68534 1.0021,-1.38827 0.82829,-1.56207 -0.45854,-0.45855 -3.25129,3.36529 -3.33445,4.56552 -0.29378,4.24104 3.58087,6.84419 6.65114,4.4685 z m 51.07417,-0.92083 c 0.1386,-0.41608 -0.0694,-0.62413 -0.48543,-0.48543 -0.40049,0.13357 -0.83735,0.57037 -0.97086,0.97086 -0.13881,0.41609 0.0694,0.62411 0.48543,0.48543 0.40049,-0.13356 0.83738,-0.57039 0.97086,-0.97086 z m -0.4631,-2.88561 c 0.006,-0.195 0.44924,-0.31978 0.98321,-0.2774 0.74352,0.0589 1.01204,-0.42452 1.14672,-2.06501 0.12832,-1.56232 0.46609,-2.21797 1.24824,-2.42251 1.41093,-0.36896 1.35331,-0.80326 -0.31454,-2.37014 -0.76281,-0.71662 -1.38695,-1.89141 -1.38695,-2.61061 0,-2.64763 3.57764,-2.33965 5.14424,0.44284 0.88749,1.57629 1.15808,1.70679 2.77389,1.33788 0.98476,-0.22482 2.74311,-0.47941 3.90746,-0.56573 1.16436,-0.0864 2.26545,-0.30538 2.44688,-0.48682 0.45528,-0.45527 -1.51925,-2.55578 -2.40251,-2.55578 -1.03389,0 -3.115,-3.04887 -4.92285,-7.2121 -0.86124,-1.98331 -1.84049,-3.78945 -2.1761,-4.01364 -1.23851,-0.82729 -3.02995,-0.43075 -3.40595,0.75392 -0.2057,0.64819 -1.38066,2.64536 -2.61097,4.43816 l -2.23695,3.25964 -0.0681,8.6047 c -0.0656,8.27939 -0.0317,8.55732 0.89692,7.35089 0.53083,-0.68962 0.97069,-1.41335 0.97746,-1.60829 z m 16.55213,0.7278 c 0.12769,-1.29236 -0.0539,-1.7603 -0.68291,-1.7603 -0.94289,0 -1.76005,2.35009 -1.15665,3.32642 0.67235,1.08788 1.66053,0.24658 1.83956,-1.56612 z m -27.8899,0.97667 c 0.55511,-0.89819 -0.0126,-1.16597 -1.61785,-0.76307 -0.79672,0.20004 -1.31074,0.58658 -1.14227,0.85916 0.42507,0.68777 2.31635,0.62193 2.76012,-0.096 z m -18.31274,-1.1285 c 0.20339,-0.64097 0.12203,-1.41332 -0.18117,-1.71635 -0.8921,-0.8921 -2.59646,-0.25642 -2.78167,1.03747 -0.15516,1.0843 0.30699,1.45583 2.21418,1.77993 0.20821,0.0354 0.54514,-0.46008 0.74857,-1.10105 z m 12.8712,-0.0235 c 0.88436,0.47331 1.46805,0.32009 2.9522,-0.77489 1.01747,-0.75066 2.21147,-1.36483 2.65335,-1.36483 0.64818,0 0.73807,-0.62514 0.4652,-3.23584 -0.40506,-3.87525 -0.85663,-5.20252 -1.67698,-4.92908 -0.33597,0.11197 -0.77087,0.98593 -0.96641,1.94211 -0.35078,1.71508 -2.92361,5.28936 -4.22584,5.87072 -0.51336,0.22916 -0.52493,-0.0189 -0.0497,-1.06146 0.34088,-0.74818 0.83981,-1.36032 1.10873,-1.36032 0.76321,0 3.83235,-7.26311 3.49127,-8.26207 -0.75319,-2.20585 -1.71816,-2.85286 -3.38622,-2.27039 -1.46082,0.51009 -1.61122,0.80599 -1.68212,3.30977 -0.0604,2.13431 -0.46785,3.27987 -1.82064,5.11939 -1.51525,2.0604 -1.63184,2.45093 -0.89299,2.99117 0.46874,0.34276 0.84977,1.44997 0.84977,2.46929 0,1.76277 0.0396,1.79829 0.8609,0.77101 0.8282,-1.03601 0.84788,-1.02422 0.51844,0.31003 -0.23476,0.95077 -0.17886,1.15085 0.17801,0.63619 0.39143,-0.5645 0.79402,-0.60438 1.62288,-0.16082 z m 29.99535,-0.0315 c 0.9064,-0.90641 0.84205,-4.04508 -0.099,-4.82603 -0.53609,-0.44492 -1.19945,-0.46935 -2.2191,-0.0816 -1.22252,0.4648 -1.45442,0.89427 -1.45442,2.69336 0,1.1772 0.16648,2.30681 0.36985,2.51022 0.60279,0.60279 2.68501,0.42173 3.40262,-0.29588 z m -47.39114,-1.98473 c -0.81966,-1.30873 -4.53554,-1.61407 -4.99734,-0.41065 -0.45333,1.18139 -0.0575,1.49862 2.42467,1.94306 2.45753,0.44001 3.4411,-0.14573 2.57267,-1.53241 z m 41.3937,0.71581 c 0.84157,-1.01403 0.34993,-2.50358 -0.82631,-2.50358 -1.01797,0 -1.64112,1.31136 -1.18632,2.49651 0.40571,1.05725 1.13889,1.05983 2.01263,0.006 z m -56.7598,-3.0447 c 0.0895,-0.58701 -0.0998,-1.2297 -0.42105,-1.42819 -0.89523,-0.55328 -1.15656,0.0241 -0.74789,1.6523 0.39946,1.59159 0.9067,1.49436 1.16894,-0.22411 z m 66.19687,-0.25908 c 0,-0.82293 -0.40148,-1.39447 -1.10956,-1.57964 -1.25326,-0.32773 -1.46957,0.67056 -0.52695,2.43187 0.72241,1.34983 1.63651,0.87381 1.63651,-0.85223 z m -69.34716,1.11034 c 0,-0.58555 -1.06466,-0.83157 -1.38134,-0.31917 -0.19165,0.31009 0.0407,0.56383 0.51644,0.56383 0.4757,0 0.8649,-0.11009 0.8649,-0.24466 z m 20.80416,-0.31014 c 0.1885,-0.30512 0.0933,-0.55477 -0.21192,-0.55477 -0.30513,0 -0.70906,0.24965 -0.89764,0.55477 -0.1885,0.30515 -0.0933,0.5548 0.2119,0.5548 0.30512,0 0.70907,-0.24965 0.89766,-0.5548 z m -23.72516,-2.35778 1.73485,-1.80303 -0.78391,-2.99509 c -0.43114,-1.64728 -0.8508,-3.03352 -0.93255,-3.08048 -0.0818,-0.047 -0.87682,-0.54217 -1.76678,-1.10044 -1.57207,-0.98615 -1.6403,-0.98531 -2.39844,0.0291 -1.38884,1.85852 -1.82394,2.911 -1.32973,3.21644 0.26504,0.16376 0.36566,0.9058 0.22361,1.6489 -0.18578,0.97157 0.069,1.52618 0.90657,1.97447 1.4765,0.7902 1.50036,2.06744 0.0472,2.52865 -1.51699,0.48149 -0.83769,1.38441 1.04152,1.38441 0.99227,0 2.12716,-0.62813 3.25763,-1.80301 z m 15.91149,-0.30626 c -0.30724,-1.92131 0.0168,-3.11936 1.89385,-6.98704 0.13273,-0.27349 -0.40802,-0.0239 -1.20157,0.55479 -1.27611,0.93049 -1.44482,1.4419 -1.46023,4.42692 -0.0147,2.96334 0.24036,4.1146 0.91374,4.1146 0.10526,0 0.0396,-0.94915 -0.14573,-2.10927 z m 48.58978,1.27712 c 0.57702,-0.69526 0.49692,-0.83218 -0.48683,-0.83218 -0.67681,0 -1.1775,0.35386 -1.1775,0.83218 0,0.45769 0.21909,0.83215 0.48685,0.83215 0.26776,0 0.79764,-0.37446 1.17748,-0.83215 z m -42.30176,-0.3907 c 0.68653,-0.34593 1.24919,-1.02367 1.25032,-1.50608 10e-4,-0.48241 0.45819,-1.62607 1.01569,-2.54145 0.55747,-0.91537 1.19081,-2.37237 1.40743,-3.23774 0.2166,-0.86539 0.999,-2.17857 1.73862,-2.91822 1.44882,-1.44882 1.31479,-3.22432 -0.20737,-2.74722 -0.58694,0.18389 -1.12875,-0.19626 -1.54113,-1.08176 -0.58907,-1.26478 -0.55487,-1.32209 0.4636,-0.77701 1.2576,0.67303 1.28788,0.65582 1.80518,-1.02707 0.37228,-1.21119 0.26971,-1.24824 -3.45571,-1.24824 h -3.83938 l 0.26573,2.76559 c 0.23536,2.44939 0.0293,3.16253 -1.80258,6.23767 -2.22489,3.73492 -3.00334,6.65462 -2.07274,7.77406 0.77091,0.92731 3.41742,1.09096 4.97234,0.30747 z m 4.56841,-2.24449 c 0.004,-0.22887 -0.24115,-0.41609 -0.54627,-0.41609 -0.30513,0 -0.55096,0.56171 -0.54628,1.24824 0.006,1.00938 0.11134,1.08902 0.54628,0.41609 0.29579,-0.45769 0.54162,-1.0194 0.54627,-1.24824 z m -21.35041,0.69345 c -0.1885,-0.30512 -0.57779,-0.55477 -0.86491,-0.55477 -0.28713,0 -0.52203,0.24965 -0.52203,0.55477 0,0.30515 0.3892,0.55479 0.8649,0.55479 0.4757,0 0.71061,-0.24964 0.52204,-0.55479 z m 56.86466,0.0679 c 0,-0.64443 -1.61405,-1.96747 -1.96818,-1.61334 -0.50239,0.50239 0.40703,2.10019 1.19536,2.10019 0.42504,0 0.77282,-0.21909 0.77282,-0.48685 z m 6.52141,-0.48401 c 0.32871,-0.99815 -1.25858,-0.8549 -2.12741,0.19186 -0.6416,0.77307 -0.56771,0.86109 0.58209,0.69347 0.72432,-0.10567 1.4197,-0.50402 1.54532,-0.88543 z m -80.30679,-0.52744 c 0.76284,-0.34679 1.8295,-0.77001 2.37039,-0.94048 1.06219,-0.33475 1.87009,-1.82734 1.29848,-2.39894 -0.19333,-0.19354 -0.66114,0.0394 -1.0394,0.51748 -0.37827,0.47803 -1.62393,1.1657 -2.76815,1.52817 -1.19119,0.37732 -2.08042,1.01607 -2.08042,1.49439 0,0.45945 0.18724,0.74413 0.41609,0.63264 0.22884,-0.11155 1.0402,-0.48648 1.80301,-0.83326 z m 37.95483,-1.40578 c 1.17876,-0.79783 4.08169,-0.40644 5.54959,0.74822 1.81725,1.42945 2.64681,0.90445 1.06706,-0.67531 -1.73699,-1.73699 -5.11589,-1.9837 -6.98531,-0.51005 -0.83911,0.66145 -1.51806,1.62141 -1.50877,2.13324 0.0147,0.77084 0.12497,0.74012 0.64607,-0.17907 0.34603,-0.61025 0.90015,-1.29297 1.23136,-1.51714 z m -20.75672,-0.59048 c 0,-1.00692 -0.29959,-2.13034 -0.66574,-2.49649 -0.5178,-0.5178 -0.49276,-0.66573 0.1126,-0.66573 0.44257,0 -0.11448,-0.91441 -1.29152,-2.11971 -2.36263,-2.41956 -4.28608,-6.91393 -3.87632,-9.05745 0.31141,-1.62908 -0.51145,-2.48877 -1.37634,-1.43792 -0.31114,0.37806 -0.74225,1.8732 -0.95803,3.32257 -0.39547,2.65655 -0.2181,2.92828 1.75601,2.68993 0.34945,-0.0421 0.91879,0.73629 1.26518,1.72996 0.34639,0.99365 1.30872,2.36269 2.1385,3.04231 1.25695,1.02942 1.33856,1.23895 0.4891,1.25558 -0.88931,0.0168 -0.96977,0.32131 -0.62948,2.37775 0.48856,2.95253 0.63439,3.18998 1.95923,3.18998 0.84836,0 1.07681,-0.38841 1.07681,-1.83078 z m -26.96796,0.69773 c 1.35635,-0.0189 1.99284,-0.44238 2.97451,-1.98118 1.57201,-2.46419 1.21724,-4.65266 -0.75428,-4.65266 -0.94058,0 -1.32681,0.31146 -1.32681,1.06993 0,1.27806 -1.41034,2.8135 -2.58432,2.8135 -0.46238,0 -1.11155,-0.71754 -1.44259,-1.59453 l -0.60187,-1.59455 -2.25099,1.00779 c -1.88064,0.84201 -2.26509,1.28827 -2.33671,2.71262 -0.1105,2.19771 1.05483,2.9074 4.16222,2.53467 1.33939,-0.16062 3.21177,-0.30267 4.16084,-0.31559 z m 57.20331,-0.84731 c 0,-0.58065 -0.43689,-1.13986 -0.97086,-1.24269 -0.97637,-0.18808 -1.40554,1.49388 -0.58945,2.30998 0.65542,0.65541 1.56031,0.0365 1.56031,-1.06729 z m -49.37518,-0.14447 c 2.4754,-0.82671 2.7739,-1.099 2.7739,-2.53025 0,-3.37813 -3.41201,-3.20015 -5.41062,0.28221 -1.00763,1.75571 -1.27233,3.29576 -0.55324,3.21889 0.22885,-0.0245 1.66434,-0.46135 3.18996,-0.97085 z m 46.22887,-2.27922 c 0.44281,-1.2702 0.39057,-1.77773 -0.23651,-2.29817 -0.91037,-0.75554 -0.87015,-0.78565 -1.78228,1.33478 -0.37078,0.86195 -0.53143,1.79814 -0.35698,2.08042 0.63663,1.03007 1.82151,0.47297 2.37577,-1.11703 z m -4.51299,-1.14368 c 0.34551,-0.91537 0.40902,-1.66433 0.14111,-1.66433 -0.54495,0 -1.63567,1.82541 -1.63567,2.73743 0,1.18327 0.88183,0.5501 1.49452,-1.0731 z m 1.83415,0.21193 c 0,-0.45769 -0.24967,-0.67788 -0.55479,-0.48931 -0.30513,0.1885 -0.55477,0.71735 -0.55477,1.17504 0,0.45769 0.24964,0.67788 0.55477,0.48929 0.30512,-0.1885 0.55479,-0.71733 0.55479,-1.17502 z m -36.61167,-2.99091 c 1.40968,-1.97974 1.39804,-3.35733 -0.0438,-5.19045 -1.97923,-2.51618 -3.60202,-1.50422 -2.93511,1.83029 0.24872,1.24363 0.0631,1.77791 -0.80597,2.32071 -1.12325,0.70148 -1.12214,0.71335 0.21658,2.30434 0.7401,0.87958 1.36149,1.89215 1.38082,2.25013 0.0189,0.35801 0.27063,0.0631 0.55842,-0.6555 0.28778,-0.71853 1.02091,-2.00531 1.62917,-2.85952 z m 1.12395,1.36287 c 0.66995,-1.084 1.09327,-2.09573 0.94071,-2.24829 -0.27406,-0.27405 -2.62307,3.19036 -2.62307,3.86859 0,0.76229 0.51845,0.26296 1.68236,-1.6203 z m 23.83738,-3.53987 c 0,-2.83242 -0.98208,-4.30095 -2.48942,-3.72253 -0.64401,0.24713 -0.83925,1.27251 -0.83925,4.40782 0,2.24718 0.18452,4.27032 0.41012,4.49587 0.22555,0.22557 0.9745,-0.24604 1.66433,-1.04802 0.92743,-1.07822 1.25422,-2.15511 1.25422,-4.13314 z m 34.55875,3.98513 c 0.15873,-0.8391 0.46576,-2.08734 0.68245,-2.77388 0.35803,-1.13441 0.21393,-1.24826 -1.57973,-1.24826 -2.62278,0 -2.89085,0.64787 -1.37007,3.31084 1.5049,2.63511 1.88125,2.75318 2.26735,0.7113 z m -51.47945,-0.1386 c -0.1885,-0.30513 -0.69289,-0.55479 -1.12068,-0.55479 -0.42781,0 -1.31762,-0.56171 -1.97738,-1.24825 -1.29366,-1.34614 -3.83665,-6.59197 -3.83665,-7.91442 0,-0.89562 6.46253,-4.34577 9.28616,-4.9576 2.31778,-0.50222 2.88521,-1.41349 0.88015,-1.41349 -0.85222,0 -3.67551,0.98118 -6.27399,2.18038 -2.59845,1.1992 -5.4022,2.32517 -6.23054,2.50214 -1.72263,0.36805 -1.58982,1.70982 0.2263,2.28622 0.6402,0.20318 1.69071,1.61284 2.46925,3.31338 1.38886,3.03369 4.56649,6.3612 6.07465,6.3612 0.46509,0 0.69131,-0.24965 0.50273,-0.55477 z m -23.12336,-1.19159 c -0.1864,-1.25227 -1.81842,-2.62259 -2.4141,-2.02689 -0.43708,0.43706 1.34476,3.21848 2.06182,3.21848 0.29126,0 0.44978,-0.53622 0.35228,-1.19159 z m 41.43537,-0.67496 c 0.58645,-1.40359 0.64176,-2.36682 0.22299,-3.88345 -0.30628,-1.10929 -0.63334,-2.01689 -0.72677,-2.01689 -0.0935,0 -0.0535,1.21184 0.0889,2.693 0.14342,1.49319 -0.0252,3.22336 -0.37834,3.88343 -0.3504,0.65475 -0.49076,1.19046 -0.31188,1.19046 0.17886,0 0.67615,-0.83996 1.1051,-1.86655 z m 15.32925,0.73853 c -1.17706,-0.98058 -3.40589,-1.51411 -3.40589,-0.81529 0,0.32494 3.35533,1.84067 4.16082,1.87959 0.30512,0.0147 -0.0346,-0.46419 -0.75493,-1.0643 z m 4.00781,-0.81626 c 0.15307,-0.39896 -0.1994,-1.15774 -0.78338,-1.68622 -0.86765,-0.78521 -1.21576,-0.83304 -1.90431,-0.2616 -0.99141,0.82281 -1.07893,1.76951 -0.24103,2.60741 0.73749,0.73749 2.54918,0.32947 2.92872,-0.65959 z m -32.93346,-0.89883 c 0,-0.61231 -0.25843,-1.59617 -0.57429,-2.18637 -0.39588,-0.73969 -0.39588,-1.07308 0,-1.07308 0.76373,0 0.75585,-7.58918 -0.008,-8.06151 -0.32048,-0.19814 -1.4439,0.0486 -2.49651,0.54806 -1.79569,0.85214 -1.91383,1.07497 -1.91383,3.61066 0,3.79902 0.36929,4.52527 2.08231,4.09532 0.94031,-0.236 1.28854,-0.15474 1.04267,0.243 -0.20297,0.32854 -0.11553,0.75417 0.19458,0.94582 0.31012,0.19165 0.56383,1.09742 0.56383,2.0128 0,0.96828 0.23201,1.52093 0.55477,1.32146 0.30513,-0.1885 0.55479,-0.84385 0.55479,-1.45616 z m -31.06753,-1.57058 c 0,-0.22405 -0.49929,-0.85921 -1.10954,-1.41148 -0.61025,-0.55228 -1.10956,-1.58956 -1.10956,-2.3051 0,-1.36667 -1.38689,-1.83115 -1.81381,-0.60748 -0.2283,0.65429 1.01879,5.6533 1.68322,6.74738 0.30062,0.495 2.34969,-1.6183 2.34969,-2.42332 z m 10.5005,1.2876 c 1.1411,-1.45065 1.58033,-4.08603 0.68104,-4.08603 -0.25784,0 -0.92066,0.49931 -1.47294,1.10956 -0.55227,0.61025 -1.44999,1.10956 -1.99495,1.10956 -1.6156,0 -1.89139,1.20522 -0.52835,2.30895 1.64783,1.33432 1.94956,1.2941 3.3152,-0.44204 z m 18.68079,-0.53544 c -0.26853,-0.69981 -0.53567,-0.7958 -0.9795,-0.35197 -0.33563,0.33563 -0.4441,1.04324 -0.24102,1.57247 0.26856,0.69981 0.53569,0.7958 0.9795,0.35197 0.33565,-0.33564 0.4441,-1.04326 0.24102,-1.57247 z m 27.57054,-0.87019 c 0.75566,-1.32742 0.83314,-1.85187 0.32039,-2.16878 -0.87338,-0.53978 -2.91977,2.00944 -2.49716,3.11074 0.47717,1.24351 1.08148,0.98199 2.17677,-0.94196 z m 2.60933,1.26124 c 0,-0.70855 4.37411,-5.16047 6.56629,-6.68307 1.01784,-0.70696 3.01504,-1.74076 4.4382,-2.29732 l 2.58755,-1.01189 -1.93375,-0.026 c -2.79819,-0.0375 -7.56178,2.57401 -10.94232,5.99895 -3.09973,3.14046 -3.65574,4.51587 -1.82551,4.51587 0.61025,0 1.10954,-0.22345 1.10954,-0.49658 z m -55.27646,-1.04456 c 0.43767,-0.70815 -1.65728,-3.09129 -2.34423,-2.66673 -0.93761,0.57947 -0.76393,1.85615 0.33995,2.49911 1.18645,0.69104 1.65651,0.73036 2.00428,0.16754 z m 70.5019,-0.0732 c 0.53007,-0.85769 -0.22393,-1.93821 -2.26422,-3.24469 -2.85714,-1.82953 -3.41698,-0.91061 -0.9712,1.59411 2.183,2.23557 2.70825,2.50354 3.23542,1.65058 z m 2.04432,-2.41943 c -0.92364,-0.92364 -1.44675,-0.006 -0.58709,1.02984 0.51995,0.62648 0.82063,0.7013 0.97365,0.24225 0.12183,-0.36529 -0.0522,-0.93773 -0.38656,-1.27209 z m -21.70796,0.42764 c 0,-0.45769 -0.24967,-0.83217 -0.55479,-0.83217 -0.30513,0 -0.55477,0.37448 -0.55477,0.83217 0,0.45769 0.24964,0.83216 0.55477,0.83216 0.30512,0 0.55479,-0.37447 0.55479,-0.83216 z m 26.84718,-0.41608 c 0.83587,-1.3334 -0.21744,-2.91258 -1.94268,-2.91258 -1.3794,0 -2.04578,1.65425 -1.37284,3.40792 0.4141,1.0791 2.52639,0.76353 3.31552,-0.49534 z m -73.1014,-0.72195 c 1.14533,-1.74802 0.61797,-2.34017 -2.2888,-2.56998 -1.95669,-0.15475 -2.24053,-0.0241 -2.40039,1.10335 -0.41131,2.90146 3.04146,3.98138 4.68919,1.46663 z m 5.51975,-1.04955 c 0.35912,-1.43084 -0.0344,-2.52803 -0.90657,-2.52803 -0.28711,0 -0.52204,0.87378 -0.52204,1.94172 0,2.22491 0.92234,2.60344 1.42861,0.58631 z m 7.9856,-1.41846 c 0,-0.73971 -0.0598,-0.73971 -0.53778,0 -0.29578,0.45768 -0.53779,1.20664 -0.53779,1.66433 0,0.73968 0.0598,0.73968 0.53779,0 0.29579,-0.45769 0.53778,-1.20665 0.53778,-1.66433 z m 53.31208,1.64481 c 1.52645,-0.81694 1.34688,-2.65342 -0.33435,-3.41944 -1.1545,-0.52602 -1.57099,-0.47771 -2.31749,0.26879 -0.74652,0.74652 -0.79481,1.16299 -0.26879,2.3175 0.70088,1.5383 1.28939,1.70617 2.92063,0.83315 z m -73.26705,-1.52138 c 0,-1.32209 -1.53959,-3.4521 -2.49523,-3.4521 -1.20744,0 -1.34893,0.70073 -0.53325,2.64069 0.83827,1.99365 3.02848,2.58046 3.02848,0.81141 z m 67.36931,0.44507 c 1.19415,-0.45402 2.08493,-2.23284 1.11812,-2.23284 -0.93553,0 -3.56403,1.79371 -3.28652,2.24274 0.4046,0.65462 0.42076,0.65455 2.1684,-0.0105 z m -72.3623,-2.23284 c 0,-0.91539 -0.22295,-1.66433 -0.49543,-1.66433 -0.70134,0 -1.19375,1.50884 -0.81476,2.49649 0.54104,1.40993 1.31019,0.92141 1.31019,-0.83216 z m 85.99046,0.86491 c 0,-0.88357 -1.00656,-1.70761 -1.49239,-1.22178 -0.45639,0.45639 0.25604,2.02121 0.9202,2.02121 0.31471,0 0.57219,-0.35975 0.57219,-0.79943 z m -70.70887,-1.67186 c 1.56964,-1.56966 1.71333,-2.64563 0.51351,-3.84546 -0.83627,-0.83624 -2.48045,-0.6698 -2.48045,0.25109 0,0.26013 -0.66743,1.09185 -1.48319,1.84827 -1.25235,1.16124 -1.37128,1.51009 -0.76424,2.24155 1.04114,1.25447 2.65404,1.06486 4.21437,-0.49545 z m -5.95668,-2.40911 c 0.13063,-1.30022 -0.1235,-1.86089 -1.07394,-2.36955 -1.09075,-0.58375 -1.40416,-0.48136 -2.5289,0.82624 -1.57532,1.83143 -1.58992,2.2342 -0.13357,3.69049 1.03347,1.03347 1.27278,1.0693 2.35781,0.35312 0.70796,-0.46731 1.27835,-1.50177 1.37866,-2.5003 z m 60.43831,1.82975 c 1.99455,-0.80641 2.3578,-1.19537 2.3578,-2.52463 0,-0.86424 -0.19186,-1.68987 -0.42617,-1.83474 -0.52378,-0.32372 -5.67636,4.46978 -5.67636,5.28076 0,0.321 0.31204,0.45949 0.69345,0.30775 0.38143,-0.15181 1.75449,-0.70484 3.05128,-1.22914 z m -47.71083,-0.26317 c 1.70982,-0.77611 2.35779,-1.39771 2.35779,-2.26177 0,-1.74292 -1.48671,-4.58746 -2.83913,-5.43205 -1.74124,-1.08742 -2.41066,-0.008 -1.06022,1.70749 0.61902,0.78695 1.12548,1.77275 1.12548,2.19071 0,1.29989 -1.67494,3.2259 -2.80535,3.2259 -0.59295,0 -1.07811,0.37448 -1.07811,0.83217 0,1.11846 1.45268,1.02978 4.29954,-0.26245 z m 58.1129,-2.45097 c 0,-2.53131 -1.31005,-3.77941 -2.91257,-2.77486 -2.2424,1.40568 -1.12804,5.4003 1.42425,5.10545 1.33012,-0.15369 1.48832,-0.40141 1.48832,-2.33059 z m 5.16854,0.633 c 0.20171,-1.75244 -0.22111,-1.90739 -1.65749,-0.60748 -1.42887,1.29311 -1.30388,2.52878 0.2337,2.3104 0.89374,-0.12686 1.29811,-0.61055 1.42379,-1.70292 z m 5.68609,1.22873 c 0.6905,-0.36954 1.07308,-1.16071 1.07308,-2.21911 0,-0.90464 -0.11721,-1.64481 -0.2603,-1.64481 -0.52227,0 -4.7327,2.33982 -4.7327,2.63006 0,0.40222 1.82686,1.76839 2.39429,1.79051 0.24889,0.0105 0.93545,-0.24077 1.52563,-0.55665 z m -38.31841,-0.20633 c -0.001,-0.0283 -0.59912,-1.22767 -1.32851,-2.66526 l -1.32618,-2.61378 -0.66561,1.60692 c -0.39357,0.95019 -1.3244,1.83657 -2.27756,2.16884 -2.59367,0.90416 -1.87168,1.44805 1.9955,1.50328 1.98258,0.0283 3.60364,0.0283 3.60236,0 z m -50.83044,-2.68666 c -0.19856,-1.29679 -0.43282,-2.44342 -0.52042,-2.54805 -0.0876,-0.10463 -0.57023,0.60442 -1.07249,1.5757 -1.07316,2.07524 -0.76395,3.33015 0.82054,3.33015 1.02034,0 1.09746,-0.23539 0.77237,-2.3578 z m 51.92547,0.95286 c -1.93444,-2.05911 -2.28482,-8.00131 -0.60572,-10.27243 1.29873,-1.75661 1.67957,-3.47103 0.51161,-2.30308 -1.02413,1.02412 -4.1961,0.80509 -5.29814,-0.36585 -0.53397,-0.56735 -1.66802,-1.94043 -2.52014,-3.05125 -0.85211,-1.11084 -1.80951,-2.01972 -2.12755,-2.01972 -0.31806,0 0.44569,1.1633 1.69723,2.58512 2.37464,2.69773 2.57662,4.31212 0.67752,5.4151 -2.77306,1.61059 -3.47112,2.99856 -3.30126,6.56391 0.15642,3.28107 0.24306,3.47517 1.62443,3.63528 1.74745,0.20255 4.12641,-1.74927 4.60135,-3.7752 l 0.32513,-1.38694 -0.68578,1.38694 c -1.46767,2.96816 -3.9379,3.64948 -4.97546,1.37225 -0.80112,-1.75825 0.46102,-4.73465 2.60283,-6.13801 1.37313,-0.89972 1.48378,-0.88567 2.80583,0.35635 0.75699,0.71115 1.72646,2.47199 2.1544,3.913 0.8813,2.96765 2.37239,5.48941 3.24583,5.48941 0.32325,0 -0.006,-0.63219 -0.73211,-1.40488 z m 21.09837,0.34069 c 0,-1.39426 -0.56083,-2.81925 -1.10956,-2.81925 -0.78965,0 -1.11644,1.72441 -0.53325,2.81407 0.7352,1.37374 1.64281,1.37661 1.64281,0.004 z m -47.71084,-0.63449 c 0,-0.32404 -0.62147,-1.90284 -1.38105,-3.50848 -1.16335,-2.45908 -1.81893,-3.12442 -4.15843,-4.22018 -3.06707,-1.43652 -4.68426,-3.37377 -4.16975,-4.99488 0.58224,-1.83447 -0.83746,-5.73793 -2.84288,-7.81644 -1.05561,-1.09411 -2.15861,-2.71684 -2.45109,-3.60605 -0.53011,-1.6117 -0.53093,-1.61096 -0.25786,0.23518 0.16187,1.09459 1.18309,2.88483 2.49711,4.37763 1.9214,2.18284 2.22319,2.87995 2.22319,5.13549 0,1.90523 -0.29955,2.88087 -1.10956,3.61393 -1.41242,1.27821 -1.41035,1.94172 0.006,1.94172 1.63137,0 5.82326,2.09715 7.45654,3.73045 0.77825,0.77822 1.7039,2.37927 2.057,3.55786 0.57383,1.91524 2.13074,3.05055 2.13074,1.55377 z m -14.9985,-1.03873 c 0.88803,-1.65928 0.72295,-1.97894 -1.42253,-2.75475 -2.8135,-1.01739 -3.49729,-0.0996 -1.50886,2.02502 1.89804,2.02811 2.19673,2.10246 2.93139,0.72973 z m -7.19258,-0.86864 c 1.20807,-1.28594 1.22522,-1.38632 0.23539,-1.37846 -1.60738,0.0126 -2.65815,0.87972 -2.27536,1.87724 0.44221,1.15242 0.50262,1.13766 2.03997,-0.49878 z m 24.96497,0.92886 c 0,-0.64043 -2.70893,-3.12047 -3.04326,-2.78612 -0.56614,0.56612 1.14149,3.23571 2.07241,3.23986 0.53397,0.002 0.97085,-0.20171 0.97085,-0.45374 z m 61.58027,-2.71281 c 0,-1.10472 -1.10046,-0.84275 -2.25043,0.53571 -1.52821,1.83186 -1.30366,2.2763 0.5861,1.15998 0.91537,-0.54072 1.66433,-1.30378 1.66433,-1.69569 z m -44.78877,1.09048 c 1.20668,-1.339 1.76072,-3.8055 0.96526,-4.29714 -1.02076,-0.63084 -3.33256,1.9361 -3.33256,3.70037 0,1.79812 1.04684,2.06201 2.3673,0.59677 z m 38.40883,-0.91041 c 0,-1.77542 -1.29794,-2.9227 -2.69847,-2.38527 -1.06847,0.41 -1.20417,2.63848 -0.22059,3.62206 0.37785,0.37785 1.1892,0.61501 1.80302,0.52703 0.82395,-0.11805 1.11604,-0.5797 1.11604,-1.76382 z m -52.09768,-0.62244 c 0.19983,-0.7964 0.0585,-1.74524 -0.32972,-2.21304 -0.57578,-0.69379 -0.83951,-0.50526 -1.72627,1.23407 -1.29336,2.53683 -1.31612,2.37311 0.32972,2.37311 1.00735,0 1.47019,-0.37377 1.72627,-1.39414 z m 43.70018,0.68603 c 0.62088,-0.45397 0.83297,-1.06102 0.591,-1.69154 -0.56435,-1.4707 -2.15225,-0.87816 -2.35503,0.87876 -0.19291,1.67056 0.28799,1.89209 1.76403,0.81278 z m -58.77016,-0.71844 c 0.99453,-0.99453 0.98577,-0.95958 0.53504,-2.13412 -0.51613,-1.34503 -1.84665,-1.0437 -2.45485,0.55596 -0.87786,2.30897 0.25648,3.24146 1.91981,1.57816 z m 64.02701,-3.08598 c 1.43107,-1.75359 0.95992,-1.97661 -1.95165,-0.92379 -1.96159,0.70933 -2.47445,2.35829 -1.14894,3.69426 0.5572,0.56161 0.80249,0.5143 1.24824,-0.24075 0.30513,-0.51684 1.13869,-1.65521 1.85235,-2.52972 z m -67.88568,1.95165 c 0.93769,-0.9377 0.90454,-1.9506 -0.0744,-2.27697 -0.90458,-0.30152 -3.18725,1.80528 -2.74003,2.5289 0.56121,0.90808 1.76202,0.80058 2.81455,-0.25193 z m 15.54862,-1.03755 c 0,-1.22395 -1.72476,-1.83344 -2.62909,-0.92909 -0.93244,0.93244 -0.0126,2.40617 1.37835,2.20863 0.8184,-0.11616 1.25074,-0.5585 1.25074,-1.27954 z m 57.97422,-0.43662 c 0,-1.1017 -0.0707,-1.12512 -0.89781,-0.29789 -0.4938,0.49379 -0.7262,1.17548 -0.51646,1.51487 0.55817,0.90311 1.41427,0.16649 1.41427,-1.21698 z m -62.91022,-2.17981 c -0.48904,-0.27367 -0.88917,-0.76428 -0.88917,-1.09025 0,-0.32597 -0.74896,-1.44567 -1.66433,-2.48824 -1.86412,-2.12311 -2.09078,-3.77514 -0.77559,-5.65284 0.48883,-0.69788 0.7529,-1.40475 0.58681,-1.57081 -0.2149,-0.21492 -5.36117,-0.67664 -5.35872,-0.48078 1.5e-4,0.0126 0.49946,1.33564 1.10957,2.94084 0.6101,1.60518 1.11721,3.60238 1.12692,4.43823 0.0189,1.54689 1.09119,3.43545 1.98522,3.49338 0.2715,0.0168 1.36741,0.61091 2.43535,1.31849 1.61512,1.07012 1.97463,1.1438 2.13741,0.43806 0.10756,-0.46666 -0.20444,-1.07238 -0.69347,-1.34608 z m 52.36094,1.01848 c -0.0147,-1.11617 -0.95934,-2.16878 -1.59381,-1.77666 -0.33924,0.20968 -0.6168,0.96723 -0.6168,1.68348 0,1.02913 0.23271,1.24141 1.10957,1.0121 0.61025,-0.15957 1.10572,-0.5731 1.10104,-0.91892 z m 8.88494,-0.66152 c 0,-0.43968 -0.3511,-0.79942 -0.78023,-0.79942 -0.50563,0 -0.67867,0.38832 -0.4917,1.10331 0.31571,1.20733 1.27193,0.97889 1.27193,-0.30389 z m -87.22032,-3.57334 c 0.14636,-3.61632 -0.42613,-5.04151 -1.20729,-3.00586 -0.45404,1.1832 -0.4293,6.0571 0.0331,6.51948 0.81846,0.81847 1.0238,0.20402 1.17418,-3.51362 z m 30.83978,0.9709 c -0.41934,-2.73776 -0.48969,-2.86866 -1.27938,-2.38061 -0.801,0.49505 -0.75095,3.24768 0.074,4.07269 1.20778,1.20777 1.57134,0.69739 1.20535,-1.69208 z m 15.18832,1.27955 c 0.68654,-0.57272 1.24825,-1.64433 1.24825,-2.38133 0,-1.3655 -2.48395,-4.22739 -3.11842,-3.5929 -0.26923,0.26923 -0.4462,5.16476 -0.24491,6.7751 0.0671,0.5372 0.88013,0.22937 2.11508,-0.80087 z m 36.17971,0.004 c 1.34958,-2.52174 0.34557,-5.02946 -2.01364,-5.02946 -2.32472,0 -3.14131,3.1472 -1.2955,4.99299 1.40024,1.40026 2.57235,1.41318 3.30914,0.0365 z m -53.79388,0.28629 c 0,-0.86941 -0.79508,-1.98709 -1.41355,-1.98709 -0.92935,0 -1.53565,0.93182 -1.08294,1.66433 0.32662,0.52848 2.49649,0.80901 2.49649,0.32276 z m 6.52447,-2.26447 c 0.18054,-2.07996 -0.58345,-3.32089 -1.76546,-2.86731 -1.19555,0.45878 -1.63009,1.71858 -1.19318,3.45934 0.53271,2.12252 2.76165,1.67649 2.95864,-0.59203 z m -32.599,-1.94172 c 0,-1.52565 -0.24965,-2.77389 -0.55477,-2.77389 -0.30513,0 -0.55477,1.24824 -0.55477,2.77389 0,1.52563 0.24964,2.77387 0.55477,2.77387 0.30512,0 0.55477,-1.24824 0.55477,-2.77387 z m 84.82255,2.01202 c 0.59109,-0.7122 0.32129,-2.56681 -0.3734,-2.56681 -0.80357,0 -2.23474,1.85344 -1.96797,2.54863 0.3812,0.99338 1.52467,1.00225 2.34137,0.0189 z m -35.5055,-4.50853 c -0.0891,-2.75359 -0.30995,-3.60605 -0.93406,-3.60605 -0.62753,0 -0.7482,0.48308 -0.51963,2.08042 l 0.2977,2.08042 -0.75486,-1.66433 c -1.19276,-2.62982 -0.99822,-3.4287 0.92877,-3.81411 0.95352,-0.19081 2.32659,-0.34673 3.05128,-0.34673 4.02451,0 -1.54421,-3.67675 -6.08469,-4.01744 -3.6296,-0.27233 -4.54879,0.48822 -2.85376,2.36122 0.69513,0.7681 0.88642,1.61651 0.668,2.96248 -0.25957,1.59956 -0.10631,1.97716 1.00824,2.485 0.72287,0.32936 1.75066,1.42104 2.28396,2.42593 0.74574,1.40519 1.0178,1.60132 1.17823,0.84943 0.26791,-1.25566 1.23417,-0.68177 1.23417,0.733 0,0.59226 0.13797,1.07681 0.3067,1.07681 0.16879,0 0.25415,-1.62271 0.18997,-3.60605 z m 2.84422,3.04476 c 1.16647,-0.62428 2.25716,-3.84227 1.84128,-5.43259 -0.23598,-0.90242 -0.5007,-0.95515 -2.17067,-0.43246 -1.99545,0.62457 -2.10845,0.94221 -1.54584,4.34594 0.38095,2.30476 0.39139,2.31323 1.87523,1.51911 z m -26.9437,-1.02487 c 0.48918,-1.5413 -0.16292,-2.70927 -1.73275,-3.10326 -2.37085,-0.59505 -3.95661,1.80463 -2.29232,3.46892 1.058,1.058 3.64788,0.82272 4.02507,-0.36566 z m 57.59367,-0.21685 c 0.40225,-1.15318 -0.19773,-2.07688 -1.93106,-2.97324 -3.22232,-1.66632 -4.4004,0.34341 -1.38697,2.36609 2.08721,1.40097 2.98389,1.56505 3.31803,0.60715 z m -6.28919,-1.10957 c 0.33352,-0.86406 0.24386,-1.49704 -0.29131,-2.05664 -1.05934,-1.10767 -1.88171,-0.13608 -1.50585,1.77926 0.3628,1.84881 1.14405,1.96939 1.79716,0.27738 z m -47.03444,-1.05431 c 1.15051,-1.15051 1.15674,-1.22117 0.17131,-1.94171 -0.56244,-0.41127 -1.29945,-0.74776 -1.63779,-0.74776 -1.62631,0 -2.675,2.94231 -1.25317,3.51603 1.20352,0.48564 1.49644,0.39661 2.71961,-0.82656 z m 3.24425,-1.30253 c 0,-1.54946 -0.80932,-1.86 -1.32759,-0.50939 -0.53271,1.38822 -0.39996,1.89634 0.49543,1.89634 0.51778,0 0.83216,-0.52395 0.83216,-1.38695 z m -34.65831,-1.03707 c 0.60186,-0.41783 2.09289,-0.7299 3.31339,-0.69347 1.7003,0.0507 2.35265,-0.19312 2.79027,-1.04333 0.84394,-1.63946 3.80623,-1.53787 4.04434,0.1386 0.11176,0.78666 0.56121,1.24824 1.21552,1.24824 1.53948,0 1.82092,-0.90067 0.77854,-2.49156 -0.6273,-0.95737 -0.82499,-2.03634 -0.61273,-3.34434 0.31039,-1.91274 0.29403,-1.93094 -1.73218,-1.92754 -1.12504,0.002 -2.68629,0.33779 -3.46944,0.74648 -0.78316,0.4087 -2.0908,0.91045 -2.90585,1.11501 -0.99889,0.25071 -1.8743,1.13755 -2.68578,2.72086 -1.4266,2.7835 -2.08279,1.90444 -0.72084,-0.96565 1.62562,-3.42575 6.54643,-5.74963 10.75113,-5.07727 1.65783,0.2651 2.25563,0.1711 2.25563,-0.35459 0,-1.11713 -1.64024,-3.18126 -2.52796,-3.18126 -0.44039,0 -0.8007,-0.24966 -0.8007,-0.55479 0,-0.30512 -0.34862,-0.55477 -0.77471,-0.55477 -0.42607,0 -1.59509,-0.93618 -2.5978,-2.08042 -1.41941,-1.61973 -7.68325,-5.47882 -8.04947,-4.95921 -0.0407,0.0577 -0.23359,1.14801 -0.42872,2.42291 -0.46932,3.06639 0.51104,4.06195 4,4.06195 2.93174,0 5.0768,1.18085 5.0768,2.79478 0,1.3977 -1.79815,1.81029 -5.13167,1.17741 -1.97449,-0.37484 -2.63519,-0.33098 -2.63519,0.17508 0,0.37143 -0.38867,1.45438 -0.86367,2.40658 -0.70813,1.41949 -0.75934,2.29559 -0.28435,4.86507 0.31863,1.72361 0.44288,3.35456 0.27615,3.62435 -0.45543,0.7369 0.48138,0.59025 1.71929,-0.26914 z m 80.46008,-0.6096 c 1.15225,-0.87154 0.86625,-1.02729 -1.58623,-0.86386 -0.85446,0.057 -1.91548,-0.19689 -2.3578,-0.56391 -0.84291,-0.69958 -1.07819,-0.13504 -0.37965,0.91084 0.91716,1.3733 2.88104,1.60808 4.32368,0.51693 z m -53.01754,-0.15642 c -0.002,-0.22885 -0.45899,-1.10663 -1.01552,-1.95063 -1.00235,-1.52011 -1.0212,-1.5242 -2.00533,-0.43674 -1.35652,1.49893 -0.73168,2.80343 1.34277,2.80343 0.92495,0 1.68009,-0.18724 1.67808,-0.41606 z m 27.18775,-0.71883 c 0.60773,-0.41126 0.38331,-0.46274 -0.83216,-0.19081 -2.03989,0.45629 -2.48269,0.77383 -1.06333,0.76248 0.58482,-0.004 1.4378,-0.26191 1.89549,-0.57162 z m -10.7257,-0.89929 c -0.20339,-0.20339 -0.36986,-0.0369 -0.36986,0.36985 0,0.40684 0.16649,0.57329 0.36986,0.36986 0.20339,-0.20339 0.20339,-0.53628 0,-0.73971 z m -12.33719,-0.50193 c 1.7589,-1.75888 0.44372,-4.67598 -2.10814,-4.67598 -1.66012,0 -2.56784,1.01002 -2.56784,2.85728 0,2.42073 2.93312,3.56155 4.67598,1.8187 z m -9.83129,-0.2643 c 2.21401,-0.77181 3.16732,-2.66839 2.78266,-5.53613 -0.37644,-2.80658 -0.56119,-3.01496 -1.92048,-2.16607 -1.4645,0.9146 -4.10802,-0.0105 -4.97787,-1.74005 -0.90011,-1.79079 -0.21874,-2.34512 3.0098,-2.4487 1.53328,-0.0493 3.8272,-0.65764 5.42904,-1.44006 2.75182,-1.34409 2.77522,-1.37785 2.94093,-4.24305 l 0.16711,-2.88819 -1.83136,0.6093 c -1.00726,0.33513 -2.70514,1.43318 -3.77308,2.44011 -1.06796,1.00692 -3.24475,2.48103 -4.83733,3.2758 -3.40148,1.69748 -4.59389,3.18044 -4.59389,5.71318 0,2.76473 2.241,4.7986 4.82517,4.37926 1.08337,-0.17592 2.43811,-0.7435 3.01052,-1.26151 0.5724,-0.51804 1.04074,-0.67165 1.04074,-0.34138 0,1.13558 -2.91467,2.90014 -4.79042,2.90014 -2.06614,0 -2.46565,0.98633 -0.9951,2.45688 1.01877,1.01877 2.20539,1.09513 4.51365,0.29047 z m 12.9222,-2.74735 c 0,-0.30513 -0.24965,-0.55477 -0.55477,-0.55477 -0.30513,0 -0.55479,0.24964 -0.55479,0.55477 0,0.30513 0.24966,0.55477 0.55479,0.55477 0.30512,0 0.55477,-0.24964 0.55477,-0.55477 z m -0.6932,-2.63519 c 0.16418,-0.49308 -0.54395,-0.68624 -2.45053,-0.66846 l -2.68142,0.025 1.66433,0.76858 c 1.93844,0.89521 3.14234,0.85174 3.46762,-0.12518 z m 0.13839,-1.77028 c 0,-0.80192 -0.55698,-0.9847 -4.29955,-1.41104 -2.93224,-0.33402 -3.46734,-0.26223 -3.46734,0.46517 0,0.66429 0.78963,0.90504 3.46734,1.05714 1.90706,0.10841 3.65461,0.24508 3.88346,0.30387 0.22884,0.0587 0.41609,-0.12811 0.41609,-0.41514 z m -30.51276,-2.25186 c 0,-0.30512 -0.56171,-0.55095 -1.24825,-0.54627 -1.00937,0.006 -1.08901,0.11134 -0.41608,0.54627 1.07557,0.69509 1.66433,0.69509 1.66433,0 z m 20.34858,-0.7153 c 0.22673,-0.36685 10e-4,-0.44508 -0.60836,-0.21114 -0.53269,0.20443 -1.46216,0.37167 -2.06547,0.37167 -0.60329,0 -0.96331,0.21616 -0.80004,0.48038 0.3785,0.61239 2.99796,0.12916 3.47387,-0.64091 z m 8.43981,-0.13734 c -0.4823,-0.4823 -1.25669,-0.69745 -1.7832,-0.49541 -1.53387,0.58859 -1.05357,1.34797 0.85254,1.34797 1.60403,0 1.69754,-0.0858 0.93066,-0.85256 z m -3.20367,-0.75323 c 1.43555,-1.33742 0.53143,-1.95776 -1.54903,-1.0628 -2.14615,0.9232 -2.20264,0.99327 -1.27376,1.58071 1.16448,0.73644 1.55291,0.66517 2.82279,-0.51791 z m 54.61892,-0.67534 c 0.20968,-0.33924 0.073,-0.80739 -0.30401,-1.0403 -0.40898,-0.25275 -0.53582,-0.89422 -0.31465,-1.59111 0.20381,-0.64219 0.11323,-1.60954 -0.20108,-2.14968 -0.50067,-0.86 -0.57383,-0.80624 -0.58861,0.43263 -0.008,0.77808 -0.29131,1.68914 -0.62675,2.02457 -0.33543,0.33544 -0.44343,1.13432 -0.24,1.77529 0.39744,1.25227 1.65315,1.55505 2.27517,0.5486 z m -46.37772,-3.00791 c -0.8163,-0.98359 -2.84153,-1.06324 -3.75699,-0.14783 -1.12118,1.12118 -0.74493,1.70793 0.88602,1.38173 0.85348,-0.17068 1.91448,-0.0851 2.3578,0.19018 1.05184,0.65328 1.41073,-0.34272 0.51317,-1.42421 z m 16.65881,0.87327 c 0,-0.72006 -2.88232,-3.35112 -3.67115,-3.35112 -0.34717,0 -0.91055,0.33658 -1.25196,0.74797 -0.47094,0.56744 -0.38692,0.95165 0.34816,1.59193 1.64191,1.43025 4.57495,2.07853 4.57495,1.01122 z m -11.09276,-3.14142 c 1.20897,-0.80005 2.04788,-1.69775 1.86424,-1.99487 -0.56636,-0.9164 -9.07912,0.69735 -9.07912,1.72112 0,0.48662 2.65846,1.58677 4.03402,1.66938 0.54051,0.0325 1.97189,-0.59557 3.18086,-1.39563 z m 33.74644,-1.25053 c 0.58976,-0.37385 0.55143,-0.54143 -0.18871,-0.82548 -1.09839,-0.42148 -2.09103,0.0606 -1.63708,0.7951 0.39166,0.63374 0.8617,0.64154 1.82585,0.0304 z m -19.60242,102.56505 c -0.1885,-0.30512 0.20171,-0.55477 0.86736,-0.55477 1.04905,0 1.11162,-0.11889 0.46977,-0.89218 -0.62913,-0.75806 -0.5817,-1.00831 0.3155,-1.66434 1.39997,-1.02369 2.26716,-0.98647 1.39865,0.06 -0.57144,0.68855 -0.51135,0.83889 0.34815,0.87116 0.98895,0.0371 0.98734,0.0591 -0.034,0.45907 -0.74874,0.29322 -0.87168,0.54433 -0.40703,0.83151 0.36614,0.22628 0.52208,0.64382 0.34652,0.92787 -0.42618,0.68955 -2.87263,0.66118 -3.30497,-0.0384 z m 14.14683,0 c 0,-0.30512 0.62413,-0.55477 1.38694,-0.55477 0.76282,0 1.56795,-0.0189 1.78916,-0.0415 0.22121,-0.0229 0.49168,0.22676 0.601,0.55477 0.11721,0.35136 -0.61796,0.59639 -1.78915,0.59639 -1.09338,0 -1.98795,-0.24965 -1.98795,-0.55479 z m 6.65732,0 c 0,-0.30512 1.13817,-0.55477 2.52924,-0.55477 1.5449,0 2.3958,0.21591 2.18637,0.55477 -0.1885,0.30515 -1.32674,0.55479 -2.52924,0.55479 -1.20251,0 -2.18637,-0.24964 -2.18637,-0.55479 z m -50.26987,-0.97086 c -0.16775,-0.53397 -0.54381,-1.56481 -0.83553,-2.29079 -0.63011,-1.568 -0.70839,-1.48077 1.73023,-1.92825 1.06794,-0.19605 1.68148,-0.16942 1.36342,0.0589 -0.76172,0.54703 -0.94308,3.31801 -0.24537,3.74922 0.93652,0.57879 0.59908,1.38168 -0.58068,1.38168 -0.61984,0 -1.26427,-0.43687 -1.43207,-0.97086 z m 3.85351,0.0461 c 0.20339,-0.20339 0.5363,-0.20339 0.73971,0 0.20339,0.20339 0.0369,0.36988 -0.36986,0.36988 -0.40684,0 -0.57326,-0.16649 -0.36985,-0.36986 z m 38.64948,-0.73228 c -0.45769,-0.26516 -1.28488,-0.62319 -1.83818,-0.79561 -0.55332,-0.17236 -0.85593,-0.55636 -0.67246,-0.85321 0.36958,-0.59802 4.17497,0.99175 4.17497,1.74418 0,0.56389 -0.58421,0.53043 -1.66433,-0.0954 z m -7.83963,-1.30668 c 0.33985,-0.40949 0.45364,-0.9088 0.25288,-1.10956 -0.45849,-0.45849 1.09937,-0.47788 2.27099,-0.0283 1.11508,0.42789 1.15014,1.88236 0.0453,1.88236 -0.45769,0 -0.83215,-0.29957 -0.83215,-0.66574 0,-0.51778 -0.14804,-0.51778 -0.66573,0 -0.91284,0.91282 -1.83787,0.8448 -1.07136,-0.0788 z m 18.19547,-6.83744 c -0.75952,-0.75955 -0.32643,-1.13231 1.01709,-0.8755 0.76282,0.14573 1.38695,0.48568 1.38695,0.75525 0,0.57089 -1.86034,0.66395 -2.40404,0.12014 z m -85.25076,-40.68341 c 0,-0.91538 0.23283,-1.66434 0.51741,-1.66434 0.67418,0 1.31913,2.04646 0.87262,2.76893 -0.67863,1.09803 -1.39003,0.53273 -1.39003,-1.10459 z m 0.27034,-9.99742 c -0.21756,-0.35201 -0.11784,-0.91785 0.22182,-1.25743 0.33958,-0.33955 0.6174,-1.19159 0.6174,-1.89336 0,-0.7018 0.27877,-1.27601 0.61948,-1.27601 0.38046,0 0.47899,0.48166 0.25539,1.24827 -0.20025,0.68653 -0.47119,1.71891 -0.60208,2.29416 -0.3189,1.40148 -0.63637,1.65398 -1.11201,0.88437 z m 101.80196,-12.76099 c -0.79156,-1.47904 -0.70383,-1.6518 0.83889,-1.6518 0.76281,0 1.38692,-0.24964 1.38692,-0.55477 0,-0.30512 0.24967,-0.55477 0.55479,-0.55477 1.19595,0 0.52286,2.50729 -0.84322,3.14094 -1.18205,0.54829 -1.47109,0.49166 -1.93738,-0.3796 z m -33.83469,-3.25668 c 0,-0.24407 0.40099,-1.24758 0.89112,-2.23005 0.5862,-1.17509 1.17121,-1.67882 1.70971,-1.47218 0.45022,0.17277 0.8996,0.31412 0.99866,0.31412 0.099,0 0.065,0.44016 -0.0757,0.97813 -0.25956,0.99256 -3.52379,3.22502 -3.52379,2.40998 z m 36.95204,-2.04654 c -0.5281,-1.37621 -0.39434,-3.56067 0.21802,-3.56067 0.92559,0 0.62196,-1.43157 -0.52348,-2.46818 -0.59306,-0.5367 -1.15477,-1.63062 -1.24827,-2.43094 -0.21005,-1.79832 -2.13216,-2.8485 -5.23372,-2.85959 -2.4465,-0.008 -3.88061,-1.08197 -3.33739,-2.4976 0.40925,-1.06649 1.89691,-1.06637 4.44995,3.8e-4 1.10522,0.46177 2.00522,0.64902 2.00002,0.41609 -0.004,-0.23296 -0.74989,-1.67178 -1.65487,-3.19743 -0.90498,-1.52563 -1.64968,-3.27995 -1.65488,-3.89849 -0.004,-0.61853 -0.73452,-1.91846 -1.62071,-2.88871 -1.74047,-1.90557 -1.31524,-3.1812 0.77908,-2.33705 0.61025,0.24598 2.04574,0.46478 3.18998,0.48621 1.83885,0.0344 2.0804,0.20003 2.0804,1.42594 0,1.67304 -0.59666,1.78081 -1.53557,0.27739 -0.38111,-0.61025 -0.90678,-1.10956 -1.16816,-1.10956 -0.92165,0 -0.0977,5.30481 1.24929,8.04427 0.75021,1.52565 1.62866,3.46043 1.95212,4.29952 0.32345,0.83912 0.8431,1.52565 1.15476,1.52565 0.94285,0 0.64267,-1.90921 -0.82026,-5.21718 -0.76282,-1.72487 -1.3655,-3.69072 -1.33927,-4.36855 0.0413,-1.06825 0.10904,-1.02827 0.50866,0.30018 0.25355,0.84293 0.98734,2.61994 1.6307,3.94889 0.64332,1.32895 1.32543,4.13438 1.5158,6.23428 0.20821,2.29685 0.64468,3.99473 1.09551,4.26163 0.87116,0.51571 1.00816,2.937 0.19458,3.43979 -0.30512,0.18851 -0.55477,0.95226 -0.55477,1.69707 0,1.52258 -0.81408,1.81488 -1.32758,0.47666 z m -6.99407,-13.54666 c 0,-0.30513 -0.24967,-0.55477 -0.55479,-0.55477 -0.30513,0 -0.55477,0.24964 -0.55477,0.55477 0,0.30512 0.24964,0.55477 0.55477,0.55477 0.30512,0 0.55479,-0.24965 0.55479,-0.55477 z m -4.43823,10.00132 c 0,-0.75204 0.9859,-1.21902 1.34543,-0.63728 0.17194,0.27812 -0.0606,0.64883 -0.51644,0.82379 -0.45594,0.17487 -0.82899,0.091 -0.82899,-0.18662 z M 228.7081,238.4579 c 0.38141,-0.1539 1.00552,-0.1539 1.38693,0 0.38142,0.15391 0.0694,0.27982 -0.69346,0.27982 -0.76283,0 -1.07488,-0.12602 -0.69347,-0.27982 z m 3.18996,-0.18745 c -0.1885,-0.30513 0.061,-0.55477 0.55477,-0.55477 0.49371,0 0.74336,0.24964 0.55479,0.55477 -0.1885,0.30512 -0.43823,0.55479 -0.55479,0.55479 -0.11658,0 -0.36618,-0.24967 -0.55477,-0.55479 z m 22.7919,-4.36375 c -0.239,-0.38669 -0.28471,-0.85289 -0.1017,-1.036 0.49652,-0.4965 1.03787,0.23373 0.76969,1.03822 -0.18787,0.56377 -0.31858,0.56333 -0.6681,-0.002 z m -1.651,-3.72588 c -0.18515,-0.48266 -0.33675,-1.28154 -0.33675,-1.77529 0,-1.15194 0.85642,-0.26873 1.36198,1.40458 0.42401,1.40345 -0.50063,1.73778 -1.02523,0.37071 z m -38.77736,-6.04739 c -1.36866,-2.87009 -0.81576,-3.61584 2.68071,-3.61584 3.43155,0 5.99187,0.81681 5.66235,1.80643 -0.30527,0.91683 -2.1239,1.23854 -2.60459,0.46075 -0.43492,-0.7037 -3.91315,-0.19164 -3.91315,0.57606 0,0.26698 0.24965,0.48543 0.55477,0.48543 0.89544,0 0.63575,1.51453 -0.32276,1.88235 -0.48266,0.18515 -0.93571,0.33675 -1.00682,0.33675 -0.0711,0 -0.54382,-0.86935 -1.05051,-1.93193 z m 4.09066,1.22017 c 0.12706,-0.0864 0.66804,-0.49138 1.20201,-0.90009 0.83104,-0.63611 0.97086,-0.6135 0.97086,0.15705 0,0.55332 -0.46308,0.90011 -1.20201,0.90011 -0.66112,0 -1.09801,-0.0707 -0.97086,-0.15705 z m 34.54733,-2.33992 c -0.0916,-1.58901 0.94829,-1.82595 2.25948,-0.51474 1.28135,1.28135 1.06792,1.90213 -0.65384,1.90169 -1.23592,-3.2e-4 -1.54083,-0.2637 -1.60564,-1.38695 z m -63.99672,-1.31641 c 0,-0.63319 0.96016,-1.31976 2.20935,-1.57983 2.69302,-0.56064 6.25822,-0.76617 7.09071,-0.40877 1.05702,0.45379 1.77379,0.57175 4.33821,0.71402 1.16299,0.0646 1.71057,0.3807 1.71057,0.9877 0,0.74526 -0.37439,0.8215 -2.26534,0.46125 -3.07099,-0.58505 -10.29814,-0.62682 -11.83526,-0.0683 -0.76902,0.27937 -1.24824,0.23869 -1.24824,-0.10589 z"
       id="path17234" />
  </g>
</svg>
