<?xml version="1.0" encoding="UTF-8" standalone="no"?>
<!-- Created with Inkscape (http://www.inkscape.org/) -->

<svg
   width="105.17132mm"
   height="103.95756mm"
   viewBox="0 0 105.17134 103.95755"
   version="1.1"
   id="svg5"
   inkscape:version="1.1 (c4e8f9ed74, 2021-05-24)"
   sodipodi:docname="ornatew2.svg"
   xmlns:inkscape="http://www.inkscape.org/namespaces/inkscape"
   xmlns:sodipodi="http://sodipodi.sourceforge.net/DTD/sodipodi-0.dtd"
   xmlns="http://www.w3.org/2000/svg"
   xmlns:svg="http://www.w3.org/2000/svg">
  <sodipodi:namedview
     id="namedview7"
     pagecolor="#ffffff"
     bordercolor="#666666"
     borderopacity="1.0"
     inkscape:pageshadow="2"
     inkscape:pageopacity="0.0"
     inkscape:pagecheckerboard="0"
     inkscape:document-units="mm"
     showgrid="false"
     inkscape:zoom="0.66903058"
     inkscape:cx="-322.10785"
     inkscape:cy="144.23855"
     inkscape:window-width="2506"
     inkscape:window-height="1403"
     inkscape:window-x="1974"
     inkscape:window-y="0"
     inkscape:window-maximized="1"
     inkscape:current-layer="layer1" />
  <defs
     id="defs2" />
  <g
     inkscape:label="Layer 1"
     inkscape:groupmode="layer"
     id="layer1"
     transform="translate(-220.56112,-173.68816)">
    <path
       style="fill:#000000;stroke-width:0.53387"
       d="m 224.03018,277.28914 c -1.93267,-0.26567 -2.93629,-1.44448 -2.93629,-3.44882 0,-1.15862 0.30819,-1.56675 1.38765,-1.83768 l 1.38765,-0.34828 -1.44994,-1.15614 c -1.28028,-1.02086 -1.42037,-1.43423 -1.19716,-3.53246 0.13904,-1.30697 0.57556,-3.14506 0.97005,-4.08463 0.62233,-1.48224 0.60473,-1.83553 -0.13296,-2.66936 -1.32151,-1.49372 -1.78903,-6.31168 -0.76424,-7.8757 0.46148,-0.7043 0.62279,-1.35855 0.35847,-1.45389 -0.26431,-0.0953 -0.63817,-0.80879 -0.83079,-1.58543 -0.29479,-1.18863 -0.0898,-1.5659 1.29521,-2.38406 2.04811,-1.20985 2.05417,-1.5707 0.0438,-2.6103 -1.68894,-0.87338 -2.13834,-2.56624 -0.87875,-3.31017 0.39758,-0.23481 1.01891,-0.99039 1.38073,-1.67908 0.57178,-1.08832 0.51212,-1.35424 -0.45593,-2.03229 -1.35583,-0.94966 -1.45755,-3.14058 -0.17952,-3.86666 0.78838,-0.4479 0.83006,-0.701 0.26693,-1.62089 -0.98064,-1.60192 -0.81582,-3.4412 0.45293,-5.05415 1.06292,-1.35128 1.07658,-1.51622 0.26693,-3.22243 -0.96109,-2.02535 -1.1662,-8.32971 -0.32231,-9.90653 0.65451,-1.22297 0.7428,-3.74892 0.24657,-7.05432 -0.20734,-1.3811 -0.19821,-2.94267 0.0203,-3.47016 1.126,-2.71825 1.17806,-10.90412 0.0859,-13.50503 -0.62663,-1.49226 -0.67121,-2.44136 -0.22135,-4.71307 0.46129,-2.32947 0.41151,-3.16282 -0.27496,-4.60236 -0.89316,-1.87298 -0.70482,-5.90766 0.3049,-6.5317 0.30156,-0.18637 0.99946,0.2183 1.55088,0.89928 0.76063,0.93934 1.15206,1.08868 1.62193,0.61882 0.893,-0.89301 1.64568,-0.76875 3.00293,0.49573 1.15757,1.07843 1.25984,1.08518 3.11376,0.20544 1.54476,-0.73304 2.29062,-0.80063 3.84209,-0.34817 1.05887,0.30879 3.59214,0.43199 5.62949,0.27375 2.74985,-0.21356 3.85345,-0.10166 4.28326,0.43432 0.31844,0.39711 1.05393,0.9819 1.63442,1.29955 0.5805,0.31765 1.29259,1.09843 1.58244,1.73508 0.68111,1.49603 1.17066,1.47689 1.11701,-0.0437 -0.0348,-0.98528 0.24551,-1.20371 1.55922,-1.21511 0.88088,-0.008 2.18228,0.18185 2.89199,0.42109 0.85379,0.28782 1.42542,0.21649 1.68951,-0.21081 0.29997,-0.48536 0.7554,-0.41239 1.83301,0.29369 1.13895,0.74627 1.38695,1.25916 1.20576,2.49367 -0.25066,1.70788 0.0201,1.89263 1.29957,0.88682 2.19748,-1.7274 1.26236,-4.67136 -1.48379,-4.67136 -0.80838,0 -1.29655,-0.30783 -1.29655,-0.81757 0,-1.30919 1.59946,-1.56188 3.47906,-0.54965 1.31853,0.71007 1.9913,0.80046 2.78728,0.37446 0.57708,-0.30885 2.72441,-0.91082 4.77183,-1.33772 3.1247,-0.65152 4.18782,-0.66483 6.61922,-0.0829 3.56201,0.85257 5.6275,1.64908 6.05029,2.33317 0.19222,0.31102 0.90946,0.3423 1.78694,0.0779 0.80621,-0.2429 2.41698,-0.73584 3.5795,-1.09543 2.0837,-0.64453 2.13749,-0.62624 3.79367,1.28968 1.82822,2.11494 2.36765,2.37528 2.36765,1.14267 0,-1.07247 0.66425,-1.00905 2.05379,0.19609 0.88072,0.76384 1.15134,1.60629 1.15761,3.60362 0.004,1.43371 0.24105,2.9671 0.52569,3.40754 0.42663,0.66015 0.51896,0.60858 0.5257,-0.29363 0.004,-0.60194 0.29646,-1.38272 0.64882,-1.73508 0.49827,-0.49828 0.49827,-0.78301 0,-1.28129 -0.35236,-0.35235 -0.64065,-1.14515 -0.64065,-1.76177 0,-2.09889 2.35209,-3.31686 2.83521,-1.46814 0.15022,0.5748 0.26798,0.36938 0.30609,-0.53387 0.0493,-1.16985 -0.1736,-1.46814 -1.09725,-1.46814 -0.63754,0 -1.55022,0.3003 -2.02817,0.66733 -0.47796,0.36704 -0.3033,0.1268 0.38813,-0.53387 l 1.25715,-1.2012 h -1.63139 c -0.89726,0 -1.63138,-0.21913 -1.63138,-0.48695 0,-0.80192 4.07824,-1.25537 5.3189,-0.59139 0.62033,0.33199 1.61105,0.45026 2.20159,0.26283 0.63195,-0.20057 1.64264,0.032 2.45649,0.56525 1.20552,0.78989 1.65031,0.81773 3.46985,0.21723 1.41263,-0.46621 2.53906,-0.52904 3.48576,-0.19442 1.99148,0.70391 2.07748,1.66023 0.17442,1.93954 -0.89362,0.13115 -1.62477,0.0398 -1.62477,-0.20295 0,-0.77833 -1.44469,-0.47273 -2.74368,0.58038 -1.37906,1.11803 -1.07662,2.02921 0.4517,1.36081 1.77102,-0.77455 3.89359,-0.70835 3.89359,0.12144 0,0.43885 0.38765,0.7023 0.89003,0.60487 1.2282,-0.2382 1.55412,-1.50729 0.38709,-1.50729 -0.87521,0 -0.87014,-0.0564 0.0666,-0.74142 0.55767,-0.40778 1.29709,-0.63276 1.64315,-0.49997 0.34607,0.1328 1.14555,-0.48368 1.77663,-1.36994 1.29913,-1.82447 2.22507,-1.72052 3.30209,0.37069 0.40785,0.79191 0.98217,1.62458 1.27627,1.85038 0.33401,0.25644 0.18403,0.67932 -0.39955,1.1266 -0.51385,0.39382 -0.93428,0.84404 -0.93428,1.00047 0,0.65508 1.79376,0.90381 2.47009,0.34251 0.83372,-0.69193 1.01715,-2.85174 0.19926,-2.34626 -0.95143,0.58802 -0.56424,-1.67557 0.44244,-2.58661 1.47574,-1.33552 1.69305,-1.11364 1.69305,1.72869 0,1.82949 -0.23996,2.70431 -0.80081,2.91953 -0.59769,0.22935 -0.80081,1.18372 -0.80081,3.7627 0,1.94994 -0.25743,3.61451 -0.59086,3.82058 -0.42486,0.26258 -0.41349,0.47481 0.0405,0.75537 0.34724,0.21461 0.76049,1.35308 0.91835,2.52994 0.24434,1.82174 0.0995,2.27136 -0.97476,3.02532 -1.23975,0.87014 -1.24546,0.91406 -0.32748,2.51836 1.04887,1.83307 1.19695,3.79499 0.39896,5.28605 -0.31553,0.58956 -0.33606,1.12339 -0.05,1.30017 0.74229,0.45876 1.24411,5.20677 0.70448,6.66552 -0.32827,0.88741 -0.24404,1.76319 0.26838,2.79035 0.41075,0.82337 0.7554,2.40316 0.76589,3.51066 0.0218,2.30149 -1.87832,7.73788 -3.04213,8.70375 -0.89466,0.7425 -1.03686,2.43126 -0.24588,2.92011 0.32026,0.19794 0.39934,1.48275 0.19715,3.20308 -0.26578,2.26141 -0.15326,3.05693 0.52889,3.73907 0.47657,0.47657 1.11726,0.7115 1.42377,0.52207 0.37904,-0.23426 0.44186,0.78225 0.19639,3.17814 -0.30061,2.93417 -0.20593,3.69379 0.56685,4.5477 1.06114,1.17255 0.69942,2.16017 -0.79118,2.16017 -0.5596,0 -1.30211,0.54055 -1.65003,1.20121 -0.34792,0.66066 -0.87184,1.35713 -1.16427,1.5477 -0.29243,0.19057 0.18007,0.71455 1.04999,1.1644 1.73455,0.89698 3.71531,4.58283 3.19352,5.94259 -0.17676,0.46064 -0.92815,1.06822 -1.66974,1.35018 -1.61301,0.61326 -1.78437,2.34834 -0.4238,4.29084 0.50851,0.726 0.85336,1.32 0.76634,1.32 -0.087,0 0.009,0.43666 0.21415,0.97035 0.50125,1.30624 -0.0861,6.66638 -0.82847,7.56091 -0.4101,0.49414 -0.42088,0.82374 -0.0348,1.06238 0.30789,0.19028 0.55612,0.99246 0.55162,1.78261 -0.0186,3.27697 -1.49335,3.81092 -9.61814,3.48248 -3.6612,-0.148 -7.89566,-0.23588 -9.40992,-0.1953 -3.04095,0.0815 -6.26748,-1.03659 -7.82944,-2.71316 -1.01589,-1.09043 -1.01589,-1.09043 -2.42388,0.22126 -2.64158,2.46093 -5.45091,3.08139 -9.1491,2.02065 -0.73407,-0.21055 -2.08088,-0.2197 -2.9929,-0.0203 -0.99147,0.21673 -2.15559,0.0963 -2.89514,-0.2995 -1.23691,-0.66197 -1.23691,-0.66197 -0.0773,-1.03003 0.93852,-0.29787 1.05793,-0.55815 0.6262,-1.36486 -0.78767,-1.47176 -0.66887,-2.83479 0.21744,-2.49468 0.47757,0.18326 0.99077,-0.29094 1.40987,-1.30274 0.67313,-1.62508 3.42512,-3.50402 3.93168,-2.68438 0.15428,0.24962 -0.30595,0.72105 -1.02271,1.04763 -1.71342,0.78069 -2.23625,2.92259 -1.12674,4.61593 2.03628,3.10775 8.94125,2.79315 9.30979,-0.42417 0.11929,-1.04149 0.40669,-1.42041 0.92612,-1.22109 0.77017,0.29554 2.18329,-1.63855 1.6135,-2.20834 -0.1706,-0.17061 -0.31019,-0.0299 -0.31019,0.31265 0,0.34257 -0.24024,0.62285 -0.53387,0.62285 -0.29363,0 -0.53387,-0.5085 -0.53387,-1.13 0,-0.84859 0.25341,-1.06374 1.01757,-0.86391 0.7626,0.19943 1.08165,-0.0691 1.27332,-1.07181 0.43266,-2.26328 -1.0806,-6.54394 -2.31335,-6.54394 -0.44459,0 -1.79202,3.84066 -2.37928,6.78178 -0.51488,2.57867 -2.2044,4.4295 -4.04345,4.4295 -0.85957,0 -1.56286,-0.25643 -1.56286,-0.56985 0,-0.32191 0.45268,-0.42617 1.04043,-0.23963 0.67833,0.21529 1.43654,-0.0659 2.17858,-0.80793 1.0769,-1.07689 1.08736,-1.17528 0.19444,-1.8282 -0.88487,-0.64703 -0.87092,-0.71315 0.22384,-1.06062 1.36513,-0.43327 1.54309,-1.64187 0.31135,-2.11453 -0.47091,-0.18071 -0.73033,-0.65656 -0.5765,-1.05746 0.39596,-1.03184 -2.00609,-2.17264 -4.34681,-2.06443 -2.78119,0.12857 -9.31583,2.97568 -8.56137,3.73015 0.62451,0.62451 0.19965,1.74153 -0.6624,1.74153 -0.28918,0 -0.48678,-0.3003 -0.43911,-0.66733 0.18334,-1.41192 -0.07,-2.00202 -0.85944,-2.00202 -0.65923,0 -0.70567,0.21287 -0.23736,1.08791 0.61962,1.15779 0.25019,3.18305 -0.58064,3.18305 -0.27384,0 -0.4979,-0.4663 -0.4979,-1.03623 0,-0.56993 -0.24024,-1.18471 -0.53387,-1.36618 -0.32242,-0.19927 -0.53387,0.52833 -0.53387,1.83703 0,2.10444 -1.36371,4.30248 -2.66935,4.30248 -0.80101,0 -0.64395,-0.6026 0.34566,-1.32623 0.6329,-0.46278 0.77708,-1.05132 0.51418,-2.09879 -0.42503,-1.69346 -1.74161,-1.57186 -1.49362,0.13795 0.10346,0.71331 -0.11902,1.15158 -0.58459,1.15158 -0.41339,0 -1.18645,0.48049 -1.71791,1.06775 -1.18036,1.30427 -2.02401,1.3403 -3.82057,0.16314 -1.27017,-0.83224 -1.30069,-0.93599 -0.38162,-1.29715 0.908,-0.35681 0.91389,-0.40205 0.0647,-0.49681 -0.51385,-0.0574 -1.13949,-0.13429 -1.39031,-0.171 -0.25081,-0.0367 -1.11302,-0.84752 -1.916,-1.80181 -1.49853,-1.7809 -3.50054,-2.33457 -3.50054,-0.9681 0,0.47043 0.65497,0.83167 1.69397,0.93428 0.93168,0.092 1.80032,0.49092 1.93031,0.88647 0.18691,0.56873 0.006,0.59594 -0.86443,0.13006 -0.89941,-0.48135 -1.46148,-0.34434 -3.07255,0.74896 -1.08448,0.73595 -2.49081,1.33809 -3.12518,1.33809 -0.63437,0 -1.41943,0.26603 -1.74458,0.59118 -0.32515,0.32514 -1.39423,0.78104 -2.37573,1.01309 l -1.78454,0.42191 1.60161,0.0628 c 1.23998,0.0486 1.4208,0.17968 0.80081,0.58035 -1.72873,1.11718 1.35201,0.49195 4.00402,-0.81262 3.22862,-1.58821 5.17408,-1.66507 7.0954,-0.2803 2.43861,1.75759 3.92687,1.83509 6.15843,0.32071 2.23194,-1.51464 2.49535,-1.60219 2.49535,-0.8294 0,0.29362 -0.33466,0.53387 -0.74369,0.53387 -0.40903,0 -0.87042,0.33027 -1.02533,0.73394 -0.21224,0.55309 0.32187,0.74607 2.16744,0.78311 1.347,0.027 2.69729,0.29737 3.00065,0.60073 0.66613,0.66613 1.42728,0.69073 2.39516,0.0774 0.58282,-0.36932 0.59616,-0.69379 0.069,-1.67881 -0.57988,-1.08352 -0.7093,-1.12122 -1.14939,-0.33482 -0.27275,0.48739 -0.88158,0.88617 -1.35294,0.88617 -0.75036,0 -0.73676,-0.13289 0.10927,-1.06774 1.27237,-1.40596 2.00075,-1.3487 4.58316,0.36025 1.71933,1.1378 1.99274,1.5204 1.3454,1.88267 -0.44685,0.25006 -0.68593,0.78437 -0.53129,1.18735 0.44683,1.16442 -0.43033,1.3324 -2.72932,0.52272 -1.17375,-0.41338 -3.81577,-0.74284 -5.87117,-0.73212 -6.21907,0.0324 -8.10492,-0.23189 -9.28681,-1.3016 -0.96123,-0.87 -1.12367,-0.89367 -1.12367,-0.16374 0,0.99205 -2.08203,2.61148 -2.79275,2.17223 -0.26579,-0.16427 -0.36256,-0.61321 -0.21504,-0.99765 0.4601,-1.19901 -2.92663,-0.69216 -3.60855,0.54004 -0.325,0.58726 -0.64949,1.16637 -0.7211,1.28692 -0.0716,0.12054 -0.61501,-0.21958 -1.20756,-0.75583 -0.92693,-0.83886 -1.41368,-0.89804 -3.48593,-0.42385 -1.32471,0.30314 -2.52581,0.36144 -2.66912,0.12957 -0.14331,-0.23188 -0.96193,-0.57564 -1.81916,-0.76392 -0.85723,-0.18828 -1.84266,-0.6846 -2.18985,-1.10294 -0.77315,-0.93159 -1.48712,-0.54706 -2.13159,1.14804 -0.49393,1.29913 -2.78022,1.8334 -3.41947,0.79907 -0.16443,-0.26607 -0.77922,-0.35817 -1.36618,-0.20467 -0.59649,0.15598 -1.06721,0.0161 -1.06721,-0.31706 0,-0.87728 -1.12261,-0.73066 -3.61102,0.47161 -1.21549,0.58726 -2.28164,1.03175 -2.36923,0.98775 -0.0876,-0.044 -0.87998,-0.17907 -1.76087,-0.30015 z m 87.1243,-2.49284 c -1.04914,-2.79862 -1.03851,-3.15923 0.0845,-2.86557 0.61065,0.15968 1.09003,0.1348 1.0653,-0.0553 -0.26146,-2.00957 0.91777,-2.23853 1.78022,-0.34565 0.97606,2.14222 2.05146,1.68928 1.81511,-0.76449 -0.14764,-1.53283 0.0199,-2.18438 0.6208,-2.41498 0.93675,-0.35947 0.85501,-0.41661 1.68438,1.17746 0.78192,1.50287 2.75649,1.57113 4.05161,0.14004 0.65391,-0.72256 0.97497,-1.96615 1.0062,-3.89735 0.0491,-3.03483 -0.0631,-3.24428 -4.33694,-8.09751 -1.87223,-2.12605 -2.26895,-2.37671 -2.26895,-1.43364 0,1.47619 -0.78683,1.45752 -1.83827,-0.0436 -0.83059,-1.18584 -0.83108,-1.18559 -0.83108,0.42709 0,0.8875 0.28829,1.90192 0.64064,2.25428 1.15007,1.15006 -1.43131,0.74532 -2.97106,-0.46585 -0.77367,-0.60858 -1.40667,-0.86255 -1.40667,-0.5644 0,1.1376 2.21988,4.23777 3.22214,4.49986 1.42561,0.37281 1.31786,1.11756 -0.28585,1.97585 -0.9764,0.52255 -1.33687,1.15585 -1.34285,2.35916 -0.004,0.90468 -0.24106,2.00523 -0.5257,2.44567 -0.41551,0.64295 -0.51913,0.55525 -0.5257,-0.44489 -0.005,-0.76124 -0.2677,-1.15607 -0.67551,-1.01523 -0.36703,0.12676 -1.05062,-0.34301 -1.51907,-1.04393 -0.75175,-1.12479 -0.93178,-1.17796 -1.53352,-0.45291 -0.37497,0.45182 -1.07505,0.82148 -1.55572,0.82148 -0.48067,0 -1.17402,0.48049 -1.54077,1.06774 -0.36675,0.58726 -0.43871,1.06774 -0.15992,1.06774 0.27878,0 0.65536,-0.24024 0.83683,-0.53387 0.51217,-0.8287 3.26053,-0.62892 4.02534,0.29262 0.42121,0.50753 0.64227,2.03613 0.57281,3.96096 -0.1064,2.94844 -0.0464,3.11702 1.01125,2.84044 0.61841,-0.16172 1.02363,-0.56275 0.9005,-0.8912 z m 10.55965,0.4086 c 1.27124,-1.27125 0.69374,-2.09085 -1.37119,-1.94604 -0.99975,0.0701 -2.73463,0.14226 -3.85528,0.16034 -2.28715,0.0369 -2.42815,0.89902 -0.32271,1.97326 1.81415,0.92561 4.52772,0.8339 5.54918,-0.18756 z m -19.11618,-0.43288 c -0.16077,-0.41897 -0.006,-0.98683 0.34329,-1.2619 0.82705,-0.65078 2.50415,-0.6161 2.50415,0.0518 0,0.28573 -0.42043,0.83866 -0.93428,1.22872 -0.86181,0.65422 -0.8374,0.71054 0.31483,0.7262 2.62369,0.0357 4.47916,-4.6471 2.30285,-5.81182 -1.07246,-0.57396 -2.21727,0.14769 -2.21727,1.39767 0,0.38172 -0.26826,0.69404 -0.59614,0.69404 -0.33343,0 -0.473,-0.47086 -0.31672,-1.06848 0.15367,-0.58766 0.0616,-0.93385 -0.20467,-0.7693 -0.26625,0.16455 -0.48408,0.76549 -0.48408,1.33541 0,1.16165 -1.28102,1.37782 -2.33429,0.39391 -0.55347,-0.51702 -0.34078,-0.98916 1.09027,-2.42021 0.97784,-0.97784 1.77789,-2.01766 1.77789,-2.31072 0,-0.99542 -1.63719,-1.16648 -2.62328,-0.27408 -0.77871,0.70473 -1.03849,0.74111 -1.2554,0.17585 -0.15043,-0.39202 0.0471,-1.15116 0.43889,-1.687 0.61016,-0.83446 0.95771,-0.88874 2.42205,-0.37826 1.93986,0.67624 3.15322,0.071 3.15322,-1.57291 0,-0.53397 0.24024,-1.11934 0.53387,-1.30081 0.29363,-0.18148 0.53387,-0.9022 0.53387,-1.60162 0,-0.69941 -0.24024,-1.42013 -0.53387,-1.60161 -0.29363,-0.18147 -0.53387,-1.03649 -0.53387,-1.90005 0,-0.86356 -0.24024,-1.5701 -0.53387,-1.5701 -0.29363,0 -0.54471,-0.90091 -0.55795,-2.00202 l -0.0241,-2.00201 -0.68822,1.60161 c -0.56508,1.31505 -0.56077,1.90898 0.0241,3.31954 0.39176,0.94487 0.7123,2.08601 0.7123,2.53589 0,1.42469 -1.02543,0.88491 -1.78855,-0.94147 -0.86044,-2.05933 -2.90256,-3.54133 -5.44925,-3.95459 -1.60024,-0.25968 -1.87695,-0.12562 -2.3593,1.14305 -0.30054,0.79048 -0.54644,1.50012 -0.54644,1.57697 0,0.0768 0.77073,0.0266 1.71274,-0.11166 1.49158,-0.21892 1.96451,0.0409 3.66255,2.01252 1.71328,1.98926 1.8779,2.41906 1.35702,3.54289 -0.64034,1.38156 -2.09874,1.82096 -1.58299,0.47694 0.17104,-0.44572 0.0142,-1.52681 -0.34846,-2.40242 -0.66183,-1.5978 -1.9887,-2.02304 -3.95639,-1.26797 -1.37931,0.52929 -0.96191,1.27756 0.71266,1.27756 1.75987,0 2.4099,1.03763 1.20581,1.92481 -0.99179,0.73076 -0.44341,2.44688 0.64806,2.02804 0.59395,-0.22791 0.70868,-0.001 0.47697,0.94328 -0.1678,0.68385 -0.49689,1.49168 -0.73132,1.79515 -0.23442,0.30348 -0.2034,0.90408 0.0689,1.33468 0.72764,1.15048 0.64591,1.35108 -0.82317,2.02044 -1.81767,0.82818 -1.68087,1.69875 0.26693,1.69875 0.95608,0 1.60161,0.279 1.60161,0.69222 0,0.38072 0.42043,1.21838 0.93428,1.86147 1.05446,1.31967 3.09514,1.64747 2.62473,0.42162 z m 0.95552,-12.08892 c -0.20024,-0.324 -0.12862,-0.82455 0.15916,-1.11233 0.34174,-0.34174 0.63233,-0.23894 0.83774,0.29635 0.37349,0.97329 -0.47197,1.66532 -0.9969,0.81598 z m -74.73787,11.83191 c 0.82964,-0.32438 0.55121,-0.49989 -1.33468,-0.84137 -3.33546,-0.60394 -4.68952,-0.34814 -4.00657,0.7569 0.40004,0.64727 3.76565,0.70049 5.34125,0.0845 z m 8.03815,-3.25624 c 0.76643,-0.29139 1.97846,-0.52981 2.69342,-0.52981 0.89586,0 1.29992,-0.2987 1.29992,-0.96096 0,-0.52853 0.28829,-1.24926 0.64064,-1.60161 2.01515,-2.01515 -3.72005,1.2946 -6.11281,3.52766 -0.80748,0.75359 -1.45874,1.86576 -1.44725,2.47149 0.0158,0.83021 0.20697,0.67319 0.77675,-0.63782 0.42026,-0.967 1.37452,-1.97437 2.14933,-2.26895 z m -0.0107,2.7624 c 0,-0.96559 -1.04494,-0.78931 -1.25219,0.21124 -0.11531,0.55667 0.0848,0.80073 0.53387,0.65104 0.39508,-0.13169 0.71832,-0.51972 0.71832,-0.86228 z m 19.83591,-0.33289 c -0.17387,-0.45311 -0.56392,-0.82383 -0.86676,-0.82383 -0.78241,0 -0.68477,1.46472 0.11671,1.75096 0.90695,0.32391 1.12615,0.053 0.75005,-0.92713 z m -11.31252,0.26979 c -1.79005,-0.72558 -2.51816,-2.01176 -2.28235,-4.03167 0.28643,-2.45348 -0.80071,-2.16837 -1.18635,0.31113 -0.28741,1.84792 -0.46739,1.94269 -2.38534,1.256 -0.95873,-0.34326 -0.98598,-0.29589 -0.26693,0.46392 1.28971,1.36283 3.87898,2.50442 5.60564,2.47148 1.37414,-0.0262 1.44733,-0.0931 0.51533,-0.47086 z m -14.04553,-1.43499 c 0.19274,-0.10656 0.71564,-1.26557 1.162,-2.57558 0.78906,-2.31576 0.78304,-2.36402 -0.21696,-1.7395 -0.56569,0.35328 -1.02854,0.82478 -1.02854,1.04778 0,0.22299 -0.34417,0.40544 -0.76482,0.40544 -0.42066,0 -0.91733,0.48049 -1.10372,1.06774 -0.18639,0.58726 -0.68306,1.06775 -1.10372,1.06775 -0.79761,0 -1.01444,0.64016 -0.41863,1.23597 0.31184,0.31185 2.59408,-0.0229 3.47439,-0.5096 z m 15.72799,-0.6481 c 2.26921,0.20516 2.87397,-0.083 2.87397,-1.36928 0,-2.39724 -0.52947,-2.97996 -2.70768,-2.97996 -2.23422,0 -3.16489,0.98395 -3.16489,3.34608 0,1.59904 0.50807,2.14478 1.34786,1.44781 0.35492,-0.29456 1.09775,-0.49465 1.65074,-0.44465 z m 19.06816,-1.45198 c -0.38001,-0.99029 -1.05088,-0.97209 -1.43888,0.039 -0.16902,0.44045 -0.0604,0.80081 0.24132,0.80081 0.30174,0 0.36821,0.3003 0.1477,0.66734 -0.29086,0.48414 -0.16167,0.47342 0.47063,-0.039 0.47936,-0.38851 0.74001,-1.04917 0.57923,-1.46814 z m -29.40747,-1.06742 c 5.22486,-3.44098 10.75274,-4.32353 13.20126,-2.10766 0.9122,0.82554 1.05935,0.78711 2.36097,-0.61663 2.21726,-2.39121 1.73926,-3.06121 -0.92892,-1.30205 -1.27457,0.84033 -1.78517,0.9036 -3.20322,0.39689 -0.92783,-0.33154 -1.82301,-0.78581 -1.98928,-1.00947 -0.4399,-0.59176 -3.57314,0.14234 -4.28898,1.00487 -0.81677,0.98416 -1.74066,0.9403 -1.35515,-0.0643 0.49125,-1.28019 -0.37327,-0.93902 -2.72803,1.07657 -2.13772,1.82981 -2.19857,1.84671 -2.40196,0.66734 -0.17361,-1.00671 -0.40432,-0.77647 -1.37296,1.3701 -0.64036,1.41908 -1.16429,2.69453 -1.16429,2.83433 0,0.29003 0.1175,0.22172 3.87056,-2.24996 z m 17.39173,0.68405 c 0.42438,-0.51134 0.30886,-0.85373 -0.44739,-1.32602 -1.16781,-0.7293 -2.66332,-0.34 -2.66332,0.69331 0,1.26129 2.21511,1.71184 3.11071,0.63271 z m -25.66647,-0.89736 c 0.3855,-0.61728 0.99077,-0.92494 1.4631,-0.74369 0.44308,0.17003 0.80559,0.0432 0.80559,-0.28185 0,-0.32504 0.36037,-0.59099 0.80081,-0.59099 0.73792,0 1.04863,-0.65842 0.84529,-1.79127 -0.0451,-0.25113 0.19614,-0.79167 0.53602,-1.20121 0.9087,-1.09491 0.0604,-0.90628 -1.52203,0.33844 -0.94481,0.74318 -1.54947,0.91047 -1.92686,0.53308 -0.37739,-0.37739 0.10114,-1.21679 1.52492,-2.67486 2.01692,-2.06552 2.33269,-3.73909 0.37043,-1.96326 -0.53877,0.48758 -1.32103,0.87947 -1.73835,0.87086 -0.45967,-0.01 -0.12743,-0.59317 0.84284,-1.48072 1.9148,-1.75156 3.67762,-4.3467 3.24588,-4.77844 -0.17028,-0.17027 -0.30959,-0.0293 -0.30959,0.31326 0,0.34257 -0.35442,0.62285 -0.7876,0.62285 -0.63164,0 -0.68274,-0.29071 -0.25809,-1.46815 l 0.52949,-1.46814 -1.00332,1.27799 c -0.55897,0.71199 -1.27221,1.11181 -1.61045,0.90276 -0.39128,-0.24182 -0.60713,0.0957 -0.60713,0.94936 0,0.88762 -0.71362,1.93542 -2.16318,3.1762 -2.34502,2.00725 -4.24326,5.20731 -4.24326,7.15333 0,2.74491 3.86255,4.45484 5.20549,2.30445 z m 35.89435,-0.68225 c -0.007,-0.97135 -0.10722,-1.04797 -0.5257,-0.40041 -0.6689,1.03505 -0.6689,1.60161 0,1.60161 0.29363,0 0.53019,-0.54054 0.5257,-1.2012 z m 2.87141,0.54915 c -0.22165,-0.35864 -0.34757,-1.37946 -0.27983,-2.2685 0.11648,-1.5286 0.0733,-1.56655 -0.79489,-0.69838 -0.80111,0.80111 -0.826,1.09012 -0.19534,2.2685 0.3975,0.74274 0.93655,1.35043 1.19789,1.35043 0.26134,0 0.29382,-0.29342 0.0722,-0.65205 z m 4.07707,-2.0173 c -0.8552,-2.06465 -0.60972,-2.29661 1.35905,-1.28417 1.41378,0.72703 1.49399,0.72667 0.77401,-0.003 -0.44177,-0.448 -1.36243,-0.89989 -2.04591,-1.0042 -0.68349,-0.10431 -1.4595,-0.53222 -1.72449,-0.95093 -0.26498,-0.41869 -0.48875,-0.52103 -0.49725,-0.2274 -0.008,0.29363 -0.17015,1.11198 -0.35921,1.81856 -0.20241,0.75649 -0.13585,1.15621 0.16189,0.97219 0.2781,-0.17187 0.96973,0.37802 1.53696,1.22199 1.28345,1.90963 1.69449,1.62909 0.79495,-0.54258 z m -11.79578,-2.75968 c -2.86839,-2.26734 -3.42155,-2.4378 -3.89627,-1.20068 -0.54029,1.40797 -0.37334,1.82488 0.73074,1.82488 0.58014,0 1.82813,0.84985 2.77333,1.88855 1.70937,1.87846 1.7219,1.88226 2.34902,0.71047 0.57266,-1.07002 0.39319,-1.36565 -1.95682,-3.22322 z m 4.02012,2.28025 c -0.33511,-0.33511 -1.28806,1.02081 -1.27498,1.81411 0.005,0.29363 0.35905,0.0709 0.78712,-0.4949 0.42807,-0.56582 0.64761,-1.15947 0.48786,-1.31921 z m -8.77432,1.04481 c 0,-0.62989 -1.04123,-1.30371 -1.42365,-0.92129 -0.38242,0.38242 0.2914,1.42365 0.92129,1.42365 0.2763,0 0.50236,-0.22606 0.50236,-0.50236 z m 12.85972,-3.64177 c 1.25549,0.28348 1.01776,-1.07383 -0.3444,-1.96636 -1.38965,-0.91053 -1.40104,-0.90702 -1.05982,0.32609 0.33379,1.2062 0.31815,1.213 -0.48351,0.21019 -1.09556,-1.37043 -1.0459,-1.759 0.2785,-2.17935 0.74524,-0.23653 1.36874,-0.0302 1.90814,0.63136 0.44065,0.54049 0.64907,0.68239 0.46315,0.31536 -0.40214,-0.79389 0.58036,-0.90898 1.06504,-0.12476 0.18443,0.29841 0.55897,0.40436 0.83231,0.23542 0.27334,-0.16893 0.49698,0.17334 0.49698,0.7606 0,0.58726 0.3003,1.26209 0.66734,1.49964 0.84045,0.54396 4.13713,0.56906 4.13734,0.0315 8e-5,-0.22022 -0.58301,-0.4004 -1.29577,-0.4004 -0.71523,0 -1.73194,-0.55098 -2.26895,-1.22959 -0.53516,-0.67627 -1.39345,-1.38946 -1.9073,-1.58486 -0.51385,-0.19539 -0.93427,-0.65109 -0.93427,-1.01266 0,-0.51131 0.14237,-0.51503 0.64065,-0.0168 0.91451,0.91452 1.66699,0.79159 1.28281,-0.20956 -0.21764,-0.56718 0.0299,-0.94336 0.74369,-1.13001 1.06542,-0.27861 1.51308,-1.223 0.57974,-1.223 -0.26962,0 -0.90963,-0.16095 -1.42226,-0.35766 -0.61623,-0.23648 -0.80686,-0.1551 -0.56258,0.24015 0.54472,0.88136 -1.47406,1.82743 -2.248,1.05349 -0.46496,-0.46497 -0.61566,-0.32046 -0.61566,0.59036 0,0.73432 -0.22756,1.06538 -0.58182,0.84644 -0.34984,-0.21621 -0.44718,-1.07722 -0.24414,-2.15951 0.48592,-2.59019 -0.38424,-3.9627 -2.20382,-3.47607 -1.70081,0.45488 -2.31136,1.66121 -0.84078,1.66121 0.56279,0 1.02325,0.36036 1.02325,0.8008 0,0.48303 -0.49432,0.80081 -1.2457,0.80081 -0.68513,0 -1.24569,0.24024 -1.24569,0.53387 0,0.29363 0.38038,0.53387 0.84529,0.53387 1.43596,0 0.48084,1.33308 -0.9745,1.36013 -1.44002,0.0268 -3.07401,1.0728 -3.07401,1.96788 0,0.31189 0.74755,0.38767 1.82691,0.18518 1.05958,-0.19878 1.96975,-0.11162 2.16699,0.20752 0.19997,0.32356 -0.27775,0.57627 -1.15958,0.61341 l -1.49965,0.0632 1.55757,0.33724 c 2.28948,0.4957 2.49839,1.75596 0.22041,1.32961 -1.47846,-0.2767 -1.66396,-0.21135 -1.10116,0.38796 0.37225,0.39639 1.33321,0.75848 2.13548,0.80463 0.92166,0.053 1.40616,0.35418 1.31606,0.81802 -0.0784,0.40376 0.45316,0.0705 1.18131,-0.74067 0.72815,-0.81113 1.60314,-1.41173 1.94441,-1.33468 z m -3.41186,-0.33671 c -0.21846,-0.55588 -0.27142,-1.13646 -0.11769,-1.29018 0.48692,-0.48692 0.91535,0.31101 0.71132,1.32481 -0.18698,0.92911 -0.21554,0.92744 -0.59363,-0.0346 z m -23.03475,-4.19455 c 0.17165,-0.51385 0.53614,-0.93427 0.80999,-0.93427 0.71809,0 0.64533,0.2784 -0.83741,3.20445 -1.01162,1.99635 -1.13552,2.55843 -0.51113,2.31883 2.05484,-0.78852 5.23436,-10.13005 5.14105,-15.1046 -0.0691,-3.68605 -2.05395,-11.26622 -3.5464,-13.54398 -0.97578,-1.48922 -4.70337,-4.12448 -5.74281,-4.05994 -0.53521,0.0332 -0.53763,0.0991 -0.0114,0.31143 0.96092,0.38774 0.82086,1.12962 -0.26694,1.41389 -0.51385,0.13429 -0.002,0.27203 1.13817,0.30609 1.64162,0.0491 2.44624,0.45826 3.87056,1.96848 0.98896,1.04861 1.79812,2.28285 1.79812,2.74277 0,0.49116 -0.67943,-0.0202 -1.6466,-1.23923 -0.90562,-1.14148 -2.03995,-2.29733 -2.52072,-2.56856 -0.48078,-0.27123 -0.11624,0.46378 0.81008,1.63336 0.92632,1.16958 1.84807,2.77934 2.04834,3.57725 0.27609,1.10003 0.5289,1.31397 1.04581,0.88498 0.92951,-0.77143 2.11014,7.48905 1.60024,11.19641 -0.50167,3.64758 -1.43755,3.46226 -1.00719,-0.19943 0.42268,-3.59631 -0.2134,-9.3629 -0.91294,-8.2765 -0.41343,0.64207 -0.56213,0.63502 -1.01046,-0.0479 -0.28913,-0.44044 -0.52937,-1.35328 -0.53387,-2.02853 -0.0125,-1.87284 -1.61281,-4.70297 -2.15934,-3.81867 -0.35355,0.57207 -0.72077,0.58759 -1.83975,0.0777 -1.75273,-0.7986 -4.74675,-0.85174 -4.26716,-0.0757 0.19078,0.30868 -0.27553,1.13806 -1.03623,1.84305 -0.97898,0.90729 -1.3831,1.82602 -1.3831,3.14434 0,1.88406 0.77557,3.02933 1.21584,1.79541 0.16713,-0.4684 0.63403,-0.3084 1.54815,0.53054 1.26305,1.15918 2.93661,1.68482 2.35187,0.73869 -0.15721,-0.25439 0.18897,-0.89222 0.7693,-1.41742 0.58034,-0.52519 1.05161,-1.4582 1.04728,-2.07336 -0.007,-1.02337 -0.0651,-1.00499 -0.6807,0.21621 -0.8573,1.70061 -2.56249,1.95581 -3.81568,0.57105 -0.90504,-1.00006 -0.91354,-1.17163 -0.11823,-2.38542 1.16992,-1.78552 2.65119,-2.14131 4.63786,-1.11397 1.87408,0.96913 4.06693,5.06382 2.71185,5.06382 -0.2618,0 -0.63693,-0.6412 -0.83362,-1.42489 l -0.35762,-1.42489 -0.96201,1.55836 c -0.52911,0.8571 -0.86164,1.67152 -0.73897,1.80983 0.12268,0.13831 0.42001,-0.0672 0.66073,-0.45672 0.61788,-0.99974 3.14648,0.7091 3.57487,2.41591 0.96074,3.82793 -1.53087,11.32049 -5.26702,15.83849 -2.13307,2.57945 -2.31743,3.82296 -0.38816,2.61811 1.373,-0.85745 1.58234,-0.8198 1.59663,0.28714 0.0119,0.91928 3.40752,-4.04275 4.01876,-5.87257 z m 10.28427,5.07177 c 0.84041,-0.51385 1.42752,-1.23243 1.30468,-1.59684 -0.16784,-0.49793 -0.42115,-0.46477 -1.01938,0.13346 -0.43782,0.43783 -1.3653,0.79604 -2.06107,0.79604 -1.42343,0 -2.22394,0.83327 -1.19791,1.24693 1.10875,0.447 1.38167,0.39381 2.97368,-0.57959 z m 60.11127,-0.4004 1.33468,-1.33468 h -1.84428 c -1.79242,0 -2.41543,-0.65173 -1.28869,-1.3481 0.30557,-0.18885 0.40166,-0.82832 0.21354,-1.42104 -0.18812,-0.59272 -0.34204,-1.9263 -0.34204,-2.96351 0,-1.03722 -0.57658,-2.97025 -1.28128,-4.29562 -0.70471,-1.32538 -1.28129,-2.78241 -1.28129,-3.23784 0,-1.51029 -0.91907,0.12272 -1.23158,2.1883 -0.2114,1.39723 -0.10351,2.00202 0.35714,2.00202 0.43996,0 0.5873,0.62301 0.44189,1.86854 -0.11998,1.0277 0.0175,1.86855 0.30536,1.86855 0.28793,0 0.688,1.26127 0.88906,2.80282 0.7479,5.73424 1.29535,6.3027 3.72749,3.87056 z m -63.43717,-1.4685 c 0.22002,-0.22003 0.11976,-0.40005 -0.22281,-0.40005 -0.34257,0 -0.62285,-0.36036 -0.62285,-0.8008 0,-1.54516 -2.21751,-0.50954 -4.13986,1.93339 -0.60571,0.76975 -0.41863,0.79452 1.95788,0.25928 1.44518,-0.32548 2.80761,-0.77181 3.02764,-0.99182 z m 43.99944,0.37547 c 0,-0.41969 2.05417,-6.83198 4.56482,-14.24952 2.51064,-7.41755 5.89008,-17.69068 7.50985,-22.82918 3.42252,-10.85744 5.69273,-17.65646 7.39783,-22.15562 0.66768,-1.76177 1.63861,-4.64467 2.15764,-6.40644 1.35722,-4.60698 2.62593,-6.88061 4.87297,-8.73281 l 1.97607,-1.62884 -2.83684,0.2112 c -2.65767,0.19787 -3.18915,-0.40358 -0.81737,-0.92498 0.92916,-0.20426 0.86561,-0.31761 -0.48958,-0.87331 -1.2291,-0.504 -1.64492,-0.49684 -1.97299,0.034 -0.22861,0.36991 -0.56549,0.52273 -0.74861,0.33961 -0.54458,-0.54457 0.75806,-2.20455 2.98767,-3.80722 1.84214,-1.32415 3.20127,-3.7065 2.50932,-4.39845 -0.13466,-0.13466 -1.45689,0.91727 -2.93829,2.33762 -3.10789,2.97982 -4.06991,5.58894 -2.48739,6.7461 0.8232,0.60194 0.24056,0.69098 -3.95336,0.6041 -2.70537,-0.056 -4.91885,-0.0577 -4.91885,-0.004 0,0.054 0.35864,0.78625 0.79698,1.62729 0.49272,0.94537 0.68426,2.24253 0.5017,3.39771 -1.01411,6.41708 -2.66494,11.41975 -3.58147,10.8533 -0.35516,-0.2195 -0.44107,-0.0202 -0.22925,0.53177 0.34539,0.90006 -1.2796,6.46357 -5.09501,17.44393 -1.17333,3.37673 -2.24438,6.49987 -2.38011,6.94031 -0.25901,0.84053 -2.36585,-4.25604 -3.64143,-8.80886 -1.53849,-5.4912 -2.8986,-10.2253 -3.68117,-12.81288 -4.45446,-14.72897 -4.56746,-15.23325 -3.86843,-17.26462 l 0.67265,-1.95471 -7.85,-0.13724 -7.85001,-0.13724 0.58081,1.89248 c 0.43507,1.41758 0.40986,2.55955 -0.10048,4.55079 -1.14989,4.48663 -10.8187,32.81197 -11.39809,33.39136 -0.27241,0.27241 -1.64226,-3.81525 -6.54821,-19.54002 -1.97064,-6.31641 -3.98666,-14.37657 -3.98447,-15.93022 0.001,-0.78131 0.47805,-2.20135 1.05989,-3.15564 l 1.0579,-1.73508 h -10.68814 -10.68813 l 1.78267,1.5652 c 0.98047,0.86087 2.39931,2.84286 3.15299,4.40443 2.02554,4.19678 7.28826,21.55336 11.14,36.73999 1.95523,7.70907 3.50078,13.21001 6.37487,22.68949 1.24636,4.1108 2.5195,8.49521 2.8292,9.74313 0.30969,1.24792 0.70409,2.26895 0.87642,2.26895 0.17234,0 0.83594,-1.74175 1.47468,-3.87056 0.63873,-2.12881 2.95151,-9.03575 5.13949,-15.34877 2.18799,-6.31301 4.50411,-13.03978 5.14692,-14.94837 0.64282,-1.90858 1.37453,-3.95064 1.62603,-4.53789 0.74539,-1.74049 2.95605,-7.70044 4.55453,-12.27902 1.68488,-4.82607 2.1609,-5.60689 2.55517,-4.19124 0.15134,0.54341 0.81086,2.90995 1.46559,5.25898 0.65474,2.34903 2.24845,7.75447 3.54159,12.01208 4.66113,15.34664 5.56728,18.83843 4.43338,17.08385 -0.44228,-0.68437 -0.51871,-0.66496 -0.5257,0.13347 -0.004,0.51385 0.33514,0.93427 0.75475,0.93427 0.75448,0 1.379,1.7374 3.23115,8.98893 0.65115,2.5494 0.71465,3.56342 0.25762,4.11411 -0.33359,0.40195 -0.45154,0.98158 -0.26212,1.28807 0.47799,0.7734 -0.41374,0.6991 -1.32117,-0.11008 -0.63308,-0.56453 -0.64351,-0.5283 -0.0677,0.23525 0.37436,0.49641 1.32374,0.9769 2.10973,1.06774 1.14215,0.132 1.58423,0.61396 2.20183,2.40046 0.728,2.10584 1.62966,2.62738 1.62966,0.94263 z m -1.88979,-5.98075 c -0.46854,-1.68837 -1.42516,-4.99169 -2.12583,-7.34072 -0.70066,-2.34903 -1.64316,-5.59229 -2.09444,-7.20725 -0.45128,-1.61496 -2.16466,-7.38076 -3.80751,-12.81289 -4.32389,-14.29703 -4.27497,-14.12418 -5.8727,-20.75169 -1.69121,-7.01531 -1.53515,-7.07532 -4.67974,1.7993 -1.04043,2.93628 -2.64883,7.26063 -3.57422,9.60966 -0.9254,2.34903 -4.35684,12.13256 -7.62543,21.74117 -3.26859,9.60861 -6.09598,17.29635 -6.28308,17.08385 -0.47625,-0.54088 -1.59412,-3.76595 -2.07695,-5.99199 -0.22291,-1.0277 -1.49382,-5.47217 -2.82425,-9.8766 -1.33043,-4.40443 -2.72417,-9.32939 -3.0972,-10.94435 -2.9887,-12.93902 -10.83599,-38.35361 -12.87604,-41.70092 -0.82508,-1.35381 -1.50015,-2.62185 -1.50015,-2.81789 0,-0.19603 3.29558,-0.28958 7.32352,-0.20789 l 7.32353,0.14854 -0.14408,2.40241 c -0.14979,2.49761 0.7781,7.21408 2.67826,13.61369 4.93706,16.62763 7.97274,25.42537 8.69085,25.18703 0.5443,-0.18066 2.06063,-4.0516 6.83392,-17.44591 4.37784,-12.28463 6.33002,-18.71352 6.36296,-20.9544 l 0.0294,-2.00202 h 5.46106 5.46107 l 0.59411,3.87056 c 0.32677,2.12881 1.0681,5.43213 1.64742,7.34072 0.57931,1.90858 1.51689,5.03173 2.08351,6.94031 4.39461,14.80272 7.85371,24.88028 8.47181,24.68135 0.24543,-0.079 0.60176,-0.6796 0.79184,-1.33468 0.19008,-0.65508 1.2412,-3.59347 2.33583,-6.52975 1.09464,-2.93629 2.56053,-7.14052 3.25754,-9.34273 0.69701,-2.20222 2.01822,-6.16621 2.93602,-8.80886 2.54049,-7.31485 3.67098,-11.75179 3.67098,-14.40774 v -2.40918 h 4.30731 4.30732 l -1.00497,1.46815 c -0.55274,0.80747 -6.12148,16.90366 -12.37498,35.7693 -6.2535,18.86564 -11.45659,34.30117 -11.56241,34.30117 -0.10583,0 -0.57577,-1.38139 -1.0443,-3.06975 z m -56.01759,5.7391 c 1.35399,0 6.55345,-10.72114 6.0007,-12.37328 -0.13001,-0.38859 -0.64929,0.53541 -1.15394,2.05334 -0.81385,2.44794 -5.46751,9.84041 -6.57674,10.44734 -0.23267,0.12731 -0.10309,0.15073 0.28796,0.0521 0.39105,-0.0987 1.03996,-0.17946 1.44202,-0.17946 z m 24.4914,-0.8008 c -0.48098,-0.73408 -1.20725,-1.33468 -1.61392,-1.33468 -1.05386,0 -0.91777,0.48085 0.4618,1.63174 1.6842,1.40502 2.18308,1.27638 1.15212,-0.29706 z m -7.25616,-0.93884 c 0.15622,-1.35352 0.0257,-1.46358 -1.73508,-1.46358 -2.05406,0 -2.57725,0.76715 -0.83407,1.22301 0.74451,0.19469 0.96439,0.55486 0.72291,1.18415 -0.26226,0.68344 -0.0998,0.85741 0.66514,0.71217 0.64423,-0.12232 1.07358,-0.7242 1.1811,-1.65575 z m 27.74669,-0.8697 c -0.32732,-0.11381 -0.91638,0.23241 -1.30902,0.76937 -1.13613,1.55375 -0.82969,1.86186 0.59513,0.59836 0.73691,-0.65347 1.04892,-1.25124 0.71389,-1.36773 z m -5.76001,1.03924 c 0,-1.04742 -0.90268,-1.97614 -1.41894,-1.45988 -0.41922,0.41923 0.34713,2.49611 0.92105,2.49611 0.27384,0 0.49789,-0.4663 0.49789,-1.03623 z m 3.73709,-0.63075 c 0,-0.25768 -0.6006,-0.4685 -1.33467,-0.4685 -0.91832,0 -1.33212,0.29145 -1.3265,0.93427 0.007,0.79843 0.0834,0.81784 0.52569,0.13347 0.43529,-0.67356 0.51882,-0.64196 0.5257,0.19883 0.007,0.82784 0.14581,0.88542 0.80898,0.33504 0.44044,-0.36554 0.8008,-0.87543 0.8008,-1.13311 z m 5.60564,0.88545 c 1.60161,-0.73336 1.60161,-0.73336 0.17713,-0.77672 -1.72023,-0.0524 -3.11341,0.43158 -3.11341,1.0815 0,0.66576 1.05612,0.55614 2.93628,-0.30478 z m 6.67338,-0.0193 c 0,-0.46818 -0.48589,-0.80081 -1.16978,-0.80081 -1.14319,0 -1.14622,0.0178 -0.13347,0.78383 1.29964,0.98299 1.30325,0.98304 1.30325,0.017 z m -43.03292,-2.00202 c 1.69909,-1.16259 2.11069,-2.77853 0.55574,-2.18184 -1.05884,0.40632 -0.95928,-0.18515 0.33778,-2.00671 1.0631,-1.49297 0.67167,-2.24849 -0.45758,-0.88322 -0.65928,0.79708 -2.78526,6.27298 -2.43544,6.27298 0.13418,0 1.03396,-0.54054 1.9995,-1.20121 z m 38.78503,-0.48907 c -1.35196,-1.09475 -1.94995,-1.21464 -2.40291,-0.48173 -0.44177,0.71479 1.81407,2.15073 2.79028,1.77613 0.68085,-0.26127 0.61444,-0.48318 -0.38737,-1.2944 z m -57.46043,-0.93074 c 1.08949,-1.13718 1.3594,-1.78331 1.00757,-2.41199 -0.41763,-0.74629 -0.71305,-0.65116 -2.25613,0.72651 -1.12646,1.0057 -1.65959,1.88748 -1.45832,2.412 0.45478,1.18511 1.02102,1.03314 2.70688,-0.72652 z m 32.23868,0.91263 c 1.08967,-1.08967 0.71467,-1.56964 -1.09006,-1.39519 -2.12947,0.20584 -2.86444,2.03584 -0.81763,2.03584 0.69688,0 1.55534,-0.28829 1.90769,-0.64065 z m 19.0906,-0.14318 c 0.56997,-0.4311 1.51679,-0.79515 2.10405,-0.80898 0.84345,-0.0199 0.90801,-0.12625 0.30733,-0.50641 -0.57215,-0.36211 -0.3739,-0.53853 0.80081,-0.71263 0.85867,-0.12727 -0.72108,-0.24344 -3.51055,-0.25817 -2.78948,-0.0147 -4.47854,0.13855 -3.75348,0.34062 1.31661,0.36692 1.31611,0.36829 -0.39362,1.07648 -0.94155,0.39 -1.58066,0.92146 -1.42025,1.18101 0.47332,0.76585 4.7408,0.53893 5.86571,-0.31192 z m -1.75635,-1.18775 c 0.51944,-0.13536 1.24017,-0.12646 1.60161,0.0198 0.36145,0.14624 -0.0635,0.25699 -0.94443,0.24611 -0.88089,-0.0109 -1.17662,-0.13053 -0.65718,-0.26589 z m -52.40676,-1.76551 c 0.2873,0 1.05287,-0.49602 1.70125,-1.10227 0.71408,-0.66766 1.6525,-1.01259 2.3801,-0.87484 1.60176,0.30327 1.49887,-0.71781 -0.19684,-1.95352 -1.30777,-0.953 -1.45004,-0.95577 -3.42194,-0.0666 -1.91082,0.86166 -3.26632,2.39559 -2.11692,2.39559 0.27707,0 0.36111,0.71331 0.18674,1.58513 -0.17436,0.87183 -0.12002,2.01298 0.12076,2.53589 0.34994,0.75996 0.47658,0.60258 0.63113,-0.78433 0.10635,-0.9543 0.42842,-1.73508 0.71572,-1.73508 z m 11.28679,0.34297 c 0.80501,-1.27245 1.62702,-3.13036 1.82669,-4.12869 0.19967,-0.99834 0.68156,-2.13369 1.07088,-2.52301 0.38932,-0.38932 0.67186,-1.5916 0.62787,-2.67173 -0.0711,-1.74562 -0.10563,-1.79121 -0.31065,-0.41025 -0.34229,2.30563 -1.62138,3.93825 -3.66418,4.67693 -1.13433,0.41018 -1.81775,1.01213 -1.81775,1.60105 0,0.61954 0.27509,0.83817 0.8008,0.63644 1.11004,-0.42597 1.01288,0.76681 -0.26693,3.27709 -1.26025,2.47191 -1.25432,2.44051 -0.39906,2.11231 0.36777,-0.14112 1.32732,-1.29769 2.13233,-2.57014 z m 60.58474,0.93588 c -0.37365,-0.37365 -1.99068,0.38384 -1.99068,0.93253 0,0.27272 0.50067,0.22758 1.11347,-0.10037 0.6124,-0.32775 1.00715,-0.70222 0.87721,-0.83216 z m -45.97833,-1.01192 c -0.61438,-1.96292 -1.59155,-2.44029 -2.12889,-1.04001 -0.19925,0.51924 -0.0996,0.69358 0.26701,0.46701 0.38704,-0.2392 0.46778,0.008 0.23863,0.72966 -0.3243,1.02177 -0.029,1.27996 1.88735,1.64996 0.17641,0.0341 0.0576,-0.77892 -0.2641,-1.80662 z m 62.03464,0.049 c 0.0408,-1.08531 -0.35326,-2.35561 -0.97653,-3.14797 -1.23705,-1.57266 -3.07724,-5.73056 -3.70411,-8.36943 -0.41436,-1.74427 -0.4471,-1.66875 -0.45881,1.05794 -0.0155,3.61191 0.70517,5.84737 3.0549,9.4762 0.99819,1.54155 1.86016,2.80282 1.91551,2.80282 0.0554,0 0.13142,-0.8188 0.16904,-1.81956 z m 7.57878,0.48486 c 0,-0.44044 -0.24024,-0.8008 -0.53387,-0.8008 -0.29363,0 -0.53387,-0.74075 -0.53387,-1.6461 0,-1.07818 -0.23023,-1.57028 -0.66734,-1.42633 -1.05459,0.34731 -1.11049,2.52669 -0.0936,3.65033 1.11151,1.2282 1.8287,1.31562 1.8287,0.2229 z m -59.92693,-0.10108 c -0.51385,-0.13427 -1.3547,-0.13427 -1.86855,0 -0.51385,0.13429 -0.0934,0.24416 0.93428,0.24416 1.0277,0 1.44812,-0.10987 0.93427,-0.24416 z m 10.09377,-3.27702 c -1.35465,-0.26089 -2.48853,0.89077 -2.47047,2.5092 0.0156,1.40277 0.0156,1.40277 1.71096,-0.46311 1.43527,-1.57968 1.55177,-1.89352 0.75951,-2.04609 z m 16.87438,3.32591 c 0.68611,-0.68611 -0.32592,-1.81635 -1.62637,-1.81635 -1.35411,0 -1.35833,0.0128 -0.34329,1.03601 1.11635,1.12539 1.48038,1.26962 1.96966,0.78034 z m 35.807,-2.41892 c 0.26481,-0.18698 0.15136,-1.01458 -0.25614,-1.86855 -0.60661,-1.27119 -1.10966,-1.56052 -2.94641,-1.69463 -1.79677,-0.13119 -2.3732,0.0643 -3.05348,1.03553 -0.91951,1.31278 -0.68839,2.10127 0.32027,1.09261 1.07674,-1.07675 2.50932,-0.7274 2.86739,0.69924 0.18373,0.73204 0.54866,1.19835 0.81097,1.03623 0.26231,-0.16211 0.49319,0.38009 0.51306,1.2049 l 0.0361,1.49965 0.61643,-1.33467 c 0.33904,-0.73407 0.83034,-1.48572 1.09178,-1.67031 z m -61.57394,0.90764 c 0,-0.41948 0.37752,-1.1402 0.83894,-1.60161 0.76267,-0.76268 0.6292,-0.83167 -1.46815,-0.75895 -1.58981,0.0551 -1.85064,0.14913 -0.83894,0.30239 1.97491,0.29918 1.87419,1.21923 -0.13346,1.21923 -1.06774,0 -1.60161,0.26693 -1.60161,0.8008 0,0.53387 0.53387,0.80081 1.60161,0.80081 1.03215,0 1.60161,-0.27118 1.60161,-0.76267 z m 22.42255,-0.0381 c 0,-1.04319 -5.83303,-1.04319 -8.54193,0 -1.77841,0.68487 -1.61748,0.72153 3.33669,0.76019 4.28901,0.0335 5.20524,-0.10034 5.20524,-0.76019 z m 18.88875,-0.66734 c -0.52333,-2.18948 -0.87875,-2.58137 -1.29935,-1.4327 -0.23386,0.63866 -0.0654,1.38856 0.44177,1.96657 1.11751,1.2736 1.26731,1.18034 0.85758,-0.53387 z m -27.53745,-0.24024 c 0.99133,-0.99133 0.76421,-1.37039 -0.65817,-1.09848 -1.55533,0.29731 -2.32359,1.73913 -0.92669,1.73913 0.51932,0 1.23251,-0.28829 1.58486,-0.64065 z m 40.14704,-0.0934 c 0,-0.40373 0.15015,-1.48482 0.33367,-2.40241 0.32192,-1.60962 0.26909,-1.66835 -1.50094,-1.66835 -3.46644,0 -5.14742,-3.1464 -3.55186,-6.64826 0.69103,-1.51665 1.01887,-1.64328 1.92038,-0.74177 0.46811,0.46811 0.81775,0.45225 1.44145,-0.0654 1.06728,-0.88577 1.0454,-2.09185 -0.0601,-3.31343 -1.93899,-2.14257 -4.77153,-0.59476 -5.34172,2.91892 -0.56729,3.49581 3.40332,11.87036 5.12389,10.80699 0.33058,-0.20431 0.56751,0.10818 0.56751,0.74851 0,0.60458 0.24024,1.09925 0.53387,1.09925 0.29363,0 0.53387,-0.33034 0.53387,-0.73408 z m -84.00185,-1.64531 c -0.17387,-0.45311 -0.57237,-0.82384 -0.88554,-0.82384 -0.39483,0 -0.38671,0.34139 0.0265,1.11347 0.66269,1.23825 1.35569,1.00461 0.85904,-0.28963 z m 37.55514,-1.04079 c 0,-0.11932 -0.48048,-0.0913 -1.06774,0.0623 -0.59095,0.15454 -1.06774,0.72821 -1.06774,1.28469 0,0.96397 0.0441,0.96139 1.06774,-0.0623 0.58726,-0.58726 1.06774,-1.16537 1.06774,-1.2847 z m 9.37574,0.87281 c -0.17895,-0.17895 -0.74007,0.10882 -1.24693,0.6395 -0.881,0.92239 -0.86668,0.93671 0.32537,0.32536 0.68581,-0.35171 1.10052,-0.7859 0.92156,-0.96486 z m 4.23795,0.94576 c -0.18147,-0.29363 -1.02232,-0.53387 -1.86854,-0.53387 -0.84623,0 -1.68708,0.24024 -1.86855,0.53387 -0.19957,0.3229 0.53883,0.53387 1.86855,0.53387 1.32971,0 2.06811,-0.21097 1.86854,-0.53387 z m 4.00403,-0.26694 c 0,-0.49828 -0.50421,-0.8008 -1.33468,-0.8008 -1.39616,0 -1.81572,0.78465 -0.66733,1.24803 1.27146,0.51305 2.00201,0.34985 2.00201,-0.44723 z m -37.0183,-0.47551 c 0.0471,-0.0321 -0.24957,-1.01933 -0.6593,-2.19384 -0.40974,-1.17452 -0.7486,-2.60395 -0.75302,-3.17653 -0.0167,-2.15803 -0.94996,0.0683 -1.28058,3.05475 -0.34114,3.08144 -0.34114,3.08144 1.13304,2.72771 0.8108,-0.19455 1.51273,-0.37999 1.55986,-0.41209 z m 50.60589,0.27191 c -0.11172,-0.11198 0.14874,-0.70598 0.57882,-1.32 1.07107,-1.52916 0.9858,-2.22667 -0.13516,-1.10571 -0.50441,0.50441 -1.8858,1.36457 -3.06975,1.91145 l -2.15264,0.99433 2.49093,-0.13823 c 1.37002,-0.076 2.39953,-0.22986 2.2878,-0.34184 z M 272.8793,251.7766 c 0,-0.44044 -0.21082,-0.80081 -0.4685,-0.80081 -0.25767,0 -0.76757,0.36037 -1.13311,0.80081 -0.55526,0.66905 -0.47817,0.80081 0.46851,0.80081 0.65129,0 1.1331,-0.34052 1.1331,-0.80081 z m -7.28022,-0.14886 c 0.34152,-0.55259 0.96966,-20.14511 0.63513,-19.81059 -0.14303,0.14304 -1.57289,4.21194 -3.17746,9.04202 -1.60458,4.83007 -3.07427,9.18838 -3.26599,9.68512 -0.29236,0.75751 0.0677,0.93573 2.23249,1.10498 1.41958,0.11099 2.74707,0.24511 2.94996,0.29804 0.20289,0.0529 0.48453,-0.0909 0.62587,-0.31957 z m 12.32687,-0.20377 c 0.74789,-0.34076 1.3598,-0.82124 1.3598,-1.06774 0,-0.2465 0.26825,-0.44818 0.59613,-0.44818 0.3333,0 0.47303,0.47078 0.31692,1.06774 -0.2221,0.84929 -0.0164,1.06775 1.00547,1.06775 1.16671,0 1.29124,-0.23291 1.35594,-2.53589 0.0392,-1.39473 0.14526,-4.28084 0.23573,-6.41357 0.11974,-2.82298 -0.12326,-4.7107 -0.89342,-6.94031 -0.58186,-1.68445 -1.67584,-5.46505 -2.43108,-8.40133 -0.75525,-2.93629 -1.57917,-5.69907 -1.83094,-6.13951 -0.26726,-0.46753 -0.50619,4.08717 -0.57412,10.94434 -0.064,6.45983 -0.13136,12.46587 -0.1497,13.34676 -0.0184,0.88088 0.17254,1.7518 0.42418,1.93536 0.58401,0.42601 -0.0202,2.35584 -1.06451,3.40018 -0.95932,0.95932 -0.23008,1.04084 1.6496,0.1844 z m 22.66746,-2.37805 c 0.61319,-0.77954 1.10548,-2.04561 1.09399,-2.81349 -0.0206,-1.37795 -0.0304,-1.37438 -0.74762,0.27374 -0.3997,0.91843 -1.5915,2.35988 -2.64844,3.20322 -1.05694,0.84333 -1.92172,1.71969 -1.92173,1.94745 -3e-5,0.74541 3.08259,-1.1601 4.2238,-2.61092 z m 3.50922,-3.91245 c 0.36363,-1.64973 0.32144,-1.75455 -0.41128,-1.02183 -0.85971,0.85971 -1.10909,2.52997 -0.90528,6.06335 0.12317,2.13548 0.12317,2.13548 0.51726,-0.53387 0.21676,-1.46814 0.57644,-3.49659 0.7993,-4.50765 z m -18.20076,5.93497 c 0.55401,-0.89641 -0.35087,-2.762 -1.33969,-2.762 -0.69744,0 -1.00547,0.38163 -1.00547,1.2457 0,0.68514 0.16016,1.40586 0.35591,1.60161 0.49512,0.49512 1.66143,0.4451 1.98925,-0.0853 z m -52.38534,-0.44286 c -0.36144,-0.14624 -1.08217,-0.15514 -1.60161,-0.0198 -0.51944,0.13536 -0.22371,0.25501 0.65718,0.26589 0.88089,0.0109 1.30588,-0.0999 0.94443,-0.24611 z m -2.48857,-1.11796 c 0.51582,-0.82912 0.34307,-0.93744 -1.53487,-0.96244 -2.11611,-0.0282 -2.11611,-0.0282 -0.92755,0.93427 1.47437,1.19388 1.73533,1.19686 2.46242,0.0282 z m 6.1231,-0.62627 c 0.89659,-0.89659 1.53791,-2.08909 1.50733,-2.80282 -0.0487,-1.13559 -0.083,-1.15058 -0.4004,-0.17453 -0.53396,1.64213 -1.29185,2.64968 -2.73493,3.63585 -0.72599,0.49612 -1.00782,0.90204 -0.62627,0.90204 0.38155,0 1.39598,-0.70224 2.25427,-1.56054 z m 30.92341,0.25738 c 0,-0.71674 -0.21507,-1.43609 -0.47793,-1.59855 -0.62818,-0.38823 -1.17497,1.07912 -0.78287,2.10091 0.48009,1.2511 1.2608,0.94002 1.2608,-0.50236 z m 5.76672,-0.0923 c 0.13527,-0.94779 -0.19059,-1.18479 -2.03441,-1.47963 -2.64409,-0.42281 -3.19844,-0.14529 -3.19844,1.60121 0,1.25647 0.14454,1.32314 2.53588,1.1697 2.11179,-0.13551 2.56283,-0.35146 2.69697,-1.29128 z m 1.77894,-0.33958 c -0.17326,-1.08342 -0.356,-1.37248 -0.48656,-0.76963 -0.19872,0.9176 0.16423,2.5047 0.5728,2.5047 0.10518,0 0.0664,-0.78078 -0.0862,-1.73507 z m 30.09041,-2.00762 c -0.19279,-0.60744 -0.0932,-1.06214 0.23274,-1.06214 0.31342,0 0.5504,-0.78078 0.52663,-1.73508 l -0.0432,-1.73508 -1.01052,2.13549 c -0.55579,1.17451 -1.01683,2.96972 -1.02453,3.98935 -0.0138,1.83292 -0.005,1.8404 0.821,0.66173 0.47869,-0.68342 0.69115,-1.64537 0.4979,-2.25427 z m -81.9473,2.17259 c 0,-0.2763 -0.24024,-0.65084 -0.53387,-0.83231 -0.29363,-0.18148 -0.53387,0.0446 -0.53387,0.50236 0,0.45777 0.24024,0.83231 0.53387,0.83231 0.29363,0 0.53387,-0.22606 0.53387,-0.50236 z m 11.94765,-1.03199 c 1.47,-1.53435 1.47,-1.53435 0.1597,-1.28387 -0.72066,0.13776 -1.84825,-0.0374 -2.50575,-0.38932 -0.9219,-0.49338 -1.28513,-0.49471 -1.58729,-0.006 -0.50062,0.81005 -2.67561,-1.84413 -2.67561,-3.26508 0,-0.70621 -0.38808,-0.99574 -1.33467,-0.99574 -1.665,0 -1.80537,1.54403 -0.26694,2.93629 0.58726,0.53146 1.06774,0.76088 1.06774,0.50984 0,-0.25106 0.30031,-0.152 0.66734,0.22013 0.53471,0.54212 0.47854,0.81605 -0.28262,1.37831 -0.82421,0.60883 -0.84126,0.74344 -0.12884,1.01682 0.45163,0.17331 1.43529,0.0816 2.18593,-0.20379 1.81174,-0.68882 1.82916,-0.6836 1.82916,0.54884 0,1.51168 1.15656,1.32377 2.87185,-0.46661 z m 82.23706,0.77297 c 2.02065,-0.18857 3.51354,-2.07295 3.51354,-4.4349 0,-1.57738 0.12283,-1.77284 0.77428,-1.23218 0.66059,0.54825 0.72956,0.34228 0.46972,-1.40277 -0.16751,-1.12495 -0.65644,-2.60857 -1.08652,-3.29693 -0.73623,-1.1784 -0.71688,-1.23091 0.33109,-0.89829 0.61218,0.19429 1.11304,0.22787 1.11304,0.0746 0,-0.3112 -2.60825,-2.99652 -2.91053,-2.99652 -0.10595,0 -0.15509,2.42084 -0.1092,5.37966 0.0818,5.27287 0.0538,5.40526 -1.41003,6.66956 -1.91491,1.65389 -3.90722,2.14285 -5.80792,1.42541 -1.91906,-0.72436 -1.93872,-0.40008 -0.0393,0.64859 0.80748,0.44582 1.94863,0.67526 2.53589,0.50988 0.58725,-0.16539 1.76894,-0.36614 2.62597,-0.44612 z m -17.84127,-2.24027 c 0,-0.40449 -0.33033,-0.73544 -0.73407,-0.73544 -0.42855,0 -0.73407,0.55965 -0.73407,1.34466 0,1.08039 0.14427,1.22493 0.73407,0.73544 0.40374,-0.33507 0.73407,-0.94017 0.73407,-1.34466 z m -73.33638,-1.00237 c -1.35586,-1.27158 -1.63903,-0.95082 -0.89296,1.01151 0.45572,1.19863 0.672,1.32413 1.28952,0.7482 0.62889,-0.58653 0.56846,-0.85468 -0.39656,-1.75971 z m 58.38802,1.91221 c 0,-0.92376 -0.64802,-2.17915 -1.12486,-2.17915 -0.26221,0 -0.47675,0.60061 -0.47675,1.33468 0,0.83046 0.30253,1.33467 0.8008,1.33467 0.44045,0 0.80081,-0.22059 0.80081,-0.4902 z m 32.95875,-1.09444 c 1.89689,-1.76722 2.30375,-9.08653 0.50563,-9.09614 -0.34725,-0.002 -1.04061,-0.72258 -1.54081,-1.60161 -0.50019,-0.87903 -1.17503,-1.59823 -1.49965,-1.59823 -0.32461,0 -0.44173,0.24024 -0.26025,0.53387 0.40822,0.66051 -0.9327,0.70993 -1.62831,0.06 -0.27895,-0.26063 -1.10778,-0.65292 -1.84185,-0.87176 -1.30458,-0.38892 -1.31306,-0.37367 -0.37586,0.67649 0.52735,0.59092 1.88682,1.22279 3.02105,1.40415 1.39402,0.22291 2.51049,0.86249 3.44562,1.97382 1.45247,1.72617 1.74439,2.62987 0.8495,2.62987 -0.29363,0 -0.53387,0.81423 -0.53387,1.8094 0,1.95949 -1.82562,4.7042 -2.52503,3.79624 -0.22619,-0.29363 -0.89174,-0.56146 -1.47899,-0.59517 -0.58726,-0.0337 -1.49089,-0.24064 -2.00807,-0.45985 -0.75768,-0.32113 -0.86895,-0.20552 -0.57281,0.59517 0.51823,1.40123 1.23646,1.77698 3.41448,1.78635 1.16227,0.005 2.33976,-0.40027 3.02922,-1.0426 z m -45.77164,-0.80797 c 0,-1.25746 -0.17276,-1.34448 -2.66935,-1.34448 -2.44318,0 -2.66935,0.10592 -2.66935,1.25 0,1.1315 0.25308,1.25897 2.66935,1.34449 2.5216,0.0892 2.66935,0.0201 2.66935,-1.25001 z m 3.64076,0.12366 c -0.10964,-0.77195 -0.59985,-1.26217 -1.37181,-1.3718 -0.97831,-0.13894 -1.20121,0.084 -1.20121,1.20121 0,1.11724 0.25456,1.3718 1.37181,1.3718 1.11725,0 1.34015,-0.2229 1.20121,-1.20121 z m -29.31539,-3.59894 c -0.78481,-3.65941 -1.17674,-3.06686 -0.70857,1.07125 0.25887,2.28807 0.51965,3.06707 0.83694,2.50009 0.26809,-0.47905 0.21439,-1.97309 -0.12837,-3.57134 z m 68.38971,2.39112 c 0.52763,-0.63575 0.83355,-0.67171 1.43905,-0.16919 0.65896,0.54688 0.74554,0.11636 0.60518,-3.00909 -0.16061,-3.5763 -0.19862,-3.66183 -1.95333,-4.395 -1.41942,-0.59307 -2.17506,-0.62047 -3.65362,-0.13251 -1.98768,0.656 -3.94453,3.20661 -3.86904,5.04302 0.0316,0.76723 0.17256,0.63839 0.50105,-0.45776 0.67289,-2.24543 2.08142,-3.54626 3.83987,-3.54626 2.39649,0 3.61925,0.89343 3.61925,2.64447 0,2.37405 -0.52676,3.2281 -1.99103,3.2281 -1.13318,0 -1.23913,0.12508 -0.67832,0.80081 0.83805,1.00979 1.2986,1.00838 2.14094,-0.007 z m -12.99545,-0.0815 c -0.57139,-0.5714 -3.02612,-0.6869 -3.02612,-0.14239 0,0.2736 0.76077,0.49745 1.69059,0.49745 0.92983,0 1.53081,-0.15978 1.33553,-0.35506 z m -31.85511,-2.25202 c 0,-1.13133 -0.30757,-1.61978 -1.16039,-1.8428 -1.53322,-0.40094 -2.04283,-0.0248 -2.04283,1.50797 0,1.19597 0.20941,1.33057 2.80282,1.80147 0.22022,0.04 0.4004,-0.62001 0.4004,-1.46664 z m 5.59109,0.51746 c 0.51111,-1.61037 -0.24877,-2.71521 -1.86745,-2.71521 -2.27644,0 -3.18977,0.5259 -3.18977,1.83668 0,1.5725 0.1263,1.65727 2.61721,1.7566 1.63497,0.0652 2.20582,-0.14023 2.44001,-0.87807 z m 30.82367,-3.08197 c -0.172,-0.89978 -0.0338,-1.17148 0.49315,-0.96928 0.90412,0.34694 2.29755,-1.66021 1.49634,-2.15539 -1.30614,-0.80723 -4.35551,2.3659 -5.07195,5.27779 l -0.37384,1.51943 1.84765,-1.21116 c 1.43389,-0.93995 1.79413,-1.49113 1.60865,-2.46139 z m -71.19279,2.5608 c 0.57349,-0.36339 0.58445,-0.54542 0.0526,-0.87412 -0.50779,-0.31384 -0.43165,-0.59073 0.31197,-1.13448 0.93861,-0.68633 0.93183,-0.71931 -0.14792,-0.71931 -1.65297,0 -3.01882,1.50696 -2.22871,2.45898 0.71371,0.85996 1.01561,0.90032 2.01206,0.26893 z m 66.03249,-2.59343 c -0.15534,-0.40481 -0.53605,-0.57929 -0.84601,-0.38772 -0.39313,0.24297 -0.38753,0.5604 0.0185,1.04966 0.42519,0.51231 0.4067,0.75982 -0.0686,0.91825 -0.40272,0.13424 -0.47943,0.49398 -0.2013,0.944 0.34332,0.55551 0.55916,0.43031 0.9146,-0.53053 0.25587,-0.69169 0.33813,-1.58884 0.18279,-1.99366 z m -74.62607,-0.041 c -0.54889,-1.45418 -0.49571,-1.97894 0.362,-3.57161 0.55299,-1.02684 0.86591,-2.00651 0.69537,-2.17704 -0.50868,-0.50868 -1.89075,2.03595 -2.28899,4.21441 -0.29992,1.64067 -0.17981,2.16921 0.62701,2.75917 1.3038,0.95336 1.37351,0.81213 0.60461,-1.22493 z m 76.16238,-1.7944 c -0.23033,-1.56035 -0.52108,-2.35652 -0.64612,-1.76926 -0.12503,0.58726 -0.4757,1.37354 -0.77927,1.7473 -0.41636,0.51264 -0.3352,0.59639 0.33044,0.34096 0.65546,-0.25152 0.79748,-0.11737 0.55227,0.52165 -0.36367,0.94769 0.15984,2.79797 0.65229,2.30551 0.17005,-0.17004 0.12072,-1.58581 -0.10961,-3.14616 z m -72.83104,0.58152 c 0,-0.96248 2.43066,-2.61769 3.84405,-2.61769 0.41503,0 0.69385,-0.6436 0.69385,-1.60161 0,-1.07138 -0.26512,-1.59891 -0.8008,-1.59344 -1.3732,0.014 -2.40242,0.97548 -2.40242,2.24424 0,1.0391 -0.24843,1.19869 -1.69345,1.08789 -1.49318,-0.1145 -1.73553,0.0617 -2.04924,1.49001 -0.43742,1.99159 0.55359,3.51829 1.67804,2.58508 0.40149,-0.3332 0.72997,-1.05072 0.72997,-1.59448 z m 38.43866,-1.01608 c 0,-1.44738 -0.23458,-2.13548 -0.72801,-2.13548 -0.49342,0 -0.728,0.6881 -0.728,2.13548 0,1.44738 0.23458,2.13548 0.728,2.13548 0.49343,0 0.72801,-0.6881 0.72801,-2.13548 z m 5.76487,0.75408 c 0.22092,-1.54621 -0.9041,-2.27993 -3.00444,-1.95942 -1.83467,0.27995 -2.5596,1.16901 -2.04554,2.50862 0.20312,0.52932 1.01222,0.73755 2.593,0.66733 1.883,-0.0836 2.32649,-0.30323 2.45698,-1.21653 z m -29.8019,-3.47621 c -1.0128,-3.37594 -1.10507,-3.49202 -2.60123,-3.27244 -1.11737,0.164 -1.89914,-0.12029 -2.79536,-1.0165 -0.68429,-0.6843 -1.48886,-1.27208 -1.78791,-1.3062 -0.29906,-0.0341 -0.87206,-0.0986 -1.27332,-0.14334 -0.47618,-0.0531 -0.6422,-0.53842 -0.478,-1.39737 0.13837,-0.72383 -0.0138,-1.40545 -0.33816,-1.51472 -1.12098,-0.37763 -2.45829,0.28935 -2.45829,1.22606 0,1.0345 1.43635,2.48179 1.95164,1.96651 0.98874,-0.98874 8.44609,5.44813 9.29624,8.02413 1.11833,3.38855 1.56343,1.03056 0.48439,-2.56613 z m 31.51121,2.45519 c 0,-1.0277 -0.24024,-1.86854 -0.53387,-1.86854 -0.59388,0 -0.70928,1.59103 -0.20981,2.89262 0.50862,1.32544 0.74368,1.00175 0.74368,-1.02408 z m 29.36287,-1.40004 c 0,-0.25768 -0.36037,-0.4685 -0.80081,-0.4685 -0.46029,0 -0.8008,0.48181 -0.8008,1.1331 0,0.94668 0.13176,1.02377 0.8008,0.46851 0.44044,-0.36554 0.80081,-0.87544 0.80081,-1.13311 z m -67.80152,-0.20157 c 0,-1.45323 -0.0453,-1.48866 -1.29101,-1.01062 -1.48638,0.57038 -0.88876,2.11585 0.8906,2.30315 0.22023,0.0232 0.40041,-0.55846 0.40041,-1.29253 z m 73.01787,-0.16683 c 0.11623,-0.34869 -0.16905,-0.63397 -0.63397,-0.63397 -0.46491,0 -0.84529,-0.24025 -0.84529,-0.53387 0,-0.29363 0.33375,-0.53387 0.74166,-0.53387 0.77951,0 3.57382,-2.08701 2.83545,-2.11772 -0.75598,-0.0315 -3.80659,1.67455 -5.09179,2.8475 l -1.24774,1.13876 1.51468,0.33386 c 1.88041,0.41448 2.45725,0.30857 2.727,-0.50069 z m 8.09315,-1.23745 c -0.72172,-1.34854 -0.60922,-1.7562 0.2808,-1.01754 0.9532,0.79108 1.95567,0.27283 1.54457,-0.7985 -0.34879,-0.90893 -4.19857,-1.10064 -4.73314,-0.2357 -0.4512,0.73005 2.56809,4.22516 3.04124,3.52051 0.19973,-0.29745 0.13967,-0.9584 -0.13347,-1.46877 z m -44.92208,-0.46426 c 0.14207,-1.24188 -0.0157,-1.33929 -2.26895,-1.40099 -2.57547,-0.0705 -2.58456,-0.0625 -2.07781,1.82946 0.27836,1.03927 0.62796,1.20432 2.26165,1.06774 1.6123,-0.13478 1.9577,-0.38263 2.08511,-1.49621 z m -43.38932,-0.13351 c 0.28985,-0.66067 1.06754,-1.27798 1.72821,-1.37181 1.83281,-0.2603 1.46644,-1.81855 -0.93428,-3.97372 -2.08996,-1.8762 -2.13548,-1.88944 -2.13548,-0.62145 0,0.79574 0.30897,1.29561 0.80081,1.29561 1.72503,0 0.68416,1.01294 -1.20121,1.16898 -2.50168,0.20705 -2.36358,1.25554 0.15443,1.17255 1.89936,-0.0626 2.46729,0.50966 1.04678,1.05476 -0.44044,0.16901 -0.80081,0.79532 -0.80081,1.39179 0,1.43829 0.6855,1.37865 1.34155,-0.11671 z m 38.06521,-0.84192 c 0.0934,-0.94557 -0.0835,-1.69397 -0.4004,-1.69397 -0.31224,0 -0.58555,0.30031 -0.60737,0.66734 -0.0218,0.36704 -0.14357,1.22845 -0.27056,1.91425 -0.15446,0.83416 -0.009,1.17398 0.44007,1.02662 0.36904,-0.12115 0.74625,-0.98256 0.83826,-1.91424 z m 7.57382,0.17458 c 0,-1.0277 -0.24024,-1.86855 -0.53387,-1.86855 -0.29362,0 -0.53387,0.84085 -0.53387,1.86855 0,1.0277 0.24025,1.86855 0.53387,1.86855 0.29363,0 0.53387,-0.84085 0.53387,-1.86855 z m 29.41292,1.09867 c 0.27188,0.16803 1.70965,-0.48199 3.19503,-1.44449 2.09531,-1.35771 2.49603,-1.8218 1.78763,-2.0703 -0.56398,-0.19783 -1.38518,0.15179 -2.14783,0.91444 -1.51574,1.51574 -2.42843,1.55625 -3.68865,0.16373 -0.53309,-0.58905 -1.08937,-0.95089 -1.23619,-0.80408 -0.14681,0.14682 0.19206,0.78963 0.75304,1.42847 1.00438,1.14378 1.0043,1.1558 -0.005,0.78601 -0.62106,-0.22754 -1.19646,-0.10542 -1.45997,0.30987 -0.76156,1.20022 -0.48952,1.47435 0.92822,0.93533 0.75871,-0.28847 1.60192,-0.387 1.8738,-0.21898 z m 9.02574,-0.29786 c 0,-0.29363 -0.37454,-0.53387 -0.83231,-0.53387 -0.45778,0 -0.68384,0.24024 -0.50236,0.53387 0.18147,0.29362 0.55601,0.53387 0.83231,0.53387 0.2763,0 0.50236,-0.24025 0.50236,-0.53387 z m -87.55472,-1.06775 c 0.64757,-0.41848 0.57094,-0.51908 -0.4004,-0.52569 -0.66066,-0.005 -1.20121,0.23207 -1.20121,0.52569 0,0.6689 0.56657,0.6689 1.60161,0 z m 87.98097,-1.17642 c 0.0894,-0.46067 -0.31658,-0.94545 -0.92501,-1.10456 -0.9028,-0.23609 -0.99965,-0.12533 -0.5785,0.66158 0.2782,0.51983 0.3341,1.12974 0.12421,1.35536 -0.20989,0.22563 -0.0212,0.29736 0.41918,0.15943 0.44044,-0.13794 0.8725,-0.62025 0.96012,-1.07181 z m -88.85065,-1.59737 c 0.3145,-0.20425 0.39288,-0.55032 0.17417,-0.76902 -0.62697,-0.62698 -2.16152,1.20562 -1.67233,1.99714 0.34101,0.55176 0.47844,0.53507 0.67709,-0.0822 0.13708,-0.42598 0.50657,-0.94163 0.82107,-1.14589 z m 9.41161,0.6068 c 0,-0.27629 -0.24025,-0.50236 -0.53387,-0.50236 -0.29363,0 -0.53387,0.37455 -0.53387,0.83232 0,0.45777 0.24024,0.68383 0.53387,0.50236 0.29362,-0.18147 0.53387,-0.55602 0.53387,-0.83232 z m 38.5717,-0.9613 c 0.25393,-0.98649 0.38794,-1.85544 0.29779,-1.93098 -0.0901,-0.0756 -1.33219,-0.263 -2.7601,-0.41655 l -2.5962,-0.27918 0.30833,1.90003 c 0.35216,2.17007 1.12237,2.85614 2.98467,2.6586 0.98415,-0.10439 1.41703,-0.57807 1.76551,-1.93192 z m 33.59221,1.177 c 1.25519,-1.13593 1.24154,-3.48857 -0.0398,-6.85756 l -1.01524,-2.66936 0.28253,3.53597 c 0.24986,3.12699 0.14897,3.66953 -0.87234,4.69084 -1.85933,1.85933 -0.31868,3.07709 1.64485,1.30011 z m 12.97497,-0.16247 c 0.17409,-0.28168 0.008,-1.01169 -0.3689,-1.62224 -0.49547,-0.80245 -1.03013,-1.02462 -1.92923,-0.80166 -1.06276,0.26353 -1.19351,0.14997 -0.89829,-0.78017 0.51031,-1.60786 -0.5066,-1.32246 -1.35234,0.37953 -1.08218,2.17782 -0.95796,2.50383 1.09202,2.86601 2.88331,0.50941 3.11802,0.50659 3.45674,-0.0415 z m -78.02378,-0.37447 c 0.19402,-0.19401 -0.18637,-0.62 -0.84529,-0.94664 -0.71407,-0.35398 -1.26664,-1.18564 -1.36785,-2.05872 -0.0934,-0.80565 -0.39369,-1.32645 -0.66734,-1.15733 -0.71312,0.44074 -0.61426,3.11742 0.14311,3.8748 0.69637,0.69637 2.17354,0.85173 2.73737,0.28789 z m 25.98485,-2.13864 c 0,-2.23442 -0.35218,-2.13908 -1.04695,0.28341 -0.37847,1.31968 -0.31847,1.67411 0.28342,1.67411 0.52331,0 0.76353,-0.61587 0.76353,-1.95752 z m 7.47418,0.88978 c 0,-0.58725 0.018,-1.24191 0.04,-1.45479 0.022,-0.21288 -0.21821,-0.47315 -0.53387,-0.57836 -0.32657,-0.10886 -0.57391,0.5181 -0.57391,1.4548 0,0.90535 0.24025,1.64609 0.53387,1.64609 0.29363,0 0.53387,-0.48048 0.53387,-1.06774 z m 35.23544,0.23543 c 0,-0.45777 -0.24024,-0.68384 -0.53387,-0.50236 -0.29363,0.18147 -0.53387,0.55601 -0.53387,0.83231 0,0.2763 0.24024,0.50236 0.53387,0.50236 0.29363,0 0.53387,-0.37454 0.53387,-0.83231 z m -85.31246,-0.7693 c 0.52853,0 0.96096,-0.24024 0.96096,-0.53387 0,-0.29363 -0.43243,-0.53387 -0.96096,-0.53387 -1.0479,0 -2.24226,0.96687 -2.24226,1.81516 0,0.2966 0.28473,0.24914 0.64065,-0.10677 0.35235,-0.35236 1.07308,-0.64065 1.60161,-0.64065 z m 16.65059,-1.20121 c -0.52381,-3.03164 -0.79538,-3.47367 -1.31162,-2.13488 -0.49448,1.28235 -0.1401,2.81878 0.79835,3.46139 0.83655,0.57281 0.83993,0.56409 0.51327,-1.32651 z m 63.21639,1.09444 c 0.74653,-0.74653 0.86036,-3.43152 0.16372,-3.86206 -0.2623,-0.16211 -0.63407,0.36425 -0.82615,1.1697 -0.19208,0.80545 -0.47414,1.88488 -0.6268,2.39873 -0.31971,1.07615 0.3534,1.22946 1.28923,0.29363 z m 5.71241,-0.96097 1.60162,-1.0607 -1.73508,-0.004 c -0.9543,-0.002 -1.73508,0.097 -1.73508,0.21975 0,0.1228 -0.14582,0.60329 -0.32406,1.06774 -0.43336,1.12934 0.25627,1.05912 2.1926,-0.22327 z m 3.38175,0.21539 c 1.73009,-1.21181 1.3514,-3.05288 -0.71239,-3.46338 l -1.60162,-0.31857 1.60162,-0.61882 c 2.61674,-1.01103 3.19426,-1.46909 3.37382,-2.67599 0.21788,-1.46451 -0.30533,-1.44984 -1.94451,0.0545 -0.8206,0.75311 -1.20886,0.90247 -1.04082,0.4004 0.45718,-1.36595 -0.59618,-2.67044 -2.14235,-2.65312 -1.23579,0.0138 -1.31266,0.0959 -0.52164,0.55674 1.81129,1.05527 2.16381,2.5314 0.96769,4.05203 -1.36504,1.73536 -1.36922,2.11897 -0.0268,2.47 1.2543,0.328 1.45073,1.98079 0.23542,1.98079 -0.45777,0 -0.68383,0.24024 -0.50236,0.53387 0.45373,0.73415 0.89857,0.67293 2.314,-0.31848 z m -83.3733,-1.817 c 0,-1.13892 -0.25705,-1.60161 -0.88979,-1.60161 -1.40975,0 -1.67728,-0.63311 -0.71626,-1.69503 0.48822,-0.53947 0.71592,-1.15262 0.50601,-1.36254 -0.20992,-0.20991 -0.60885,-0.0282 -0.88651,0.40368 -0.44312,0.68932 -0.56912,0.68743 -1.03054,-0.0155 -0.42464,-0.64687 -0.52727,-0.56316 -0.53387,0.4355 -0.0107,1.62337 0.9128,3.30159 1.81689,3.30159 0.39586,0 0.8454,0.48048 0.99897,1.06774 0.40511,1.54912 0.7351,1.30946 0.7351,-0.53387 z m -3.02527,0.29845 c 0,-0.42312 -0.22636,-0.9092 -0.50302,-1.08019 -0.27666,-0.17099 -0.6643,-1.38638 -0.86142,-2.70086 -0.19712,-1.31448 -0.57137,-2.38997 -0.83166,-2.38997 -0.68556,0 -0.5811,3.98401 0.14632,5.58052 0.665,1.45952 2.04978,1.85844 2.04978,0.5905 z m 67.48054,-3.23474 c 0.58431,-2.01852 0.8645,-4.48664 0.75758,-6.67337 l -0.16966,-3.47016 -2.13548,-0.23393 -2.13548,-0.23393 2.40241,-0.35322 2.40242,-0.35323 -2.67973,-0.0802 -2.67973,-0.0802 0.18595,4.1375 c 0.19572,4.35483 2.03769,11.80265 2.72277,11.00919 0.22093,-0.25589 0.81896,-1.9067 1.32895,-3.66848 z m 23.90754,3.06976 c 2.18211,-2.56238 2.48643,-7.23224 0.65919,-10.11566 -0.72465,-1.14351 -3.14203,-2.51331 -5.29335,-2.99943 -0.95745,-0.21635 -0.94366,-0.24767 0.13346,-0.30321 0.66067,-0.0341 1.20121,-0.39427 1.20121,-0.80047 0,-0.96055 -2.04155,-1.48477 -3.25443,-0.83566 -1.14085,0.61057 -1.57169,0.64129 -1.48718,0.10606 0.37269,-2.36038 -0.9784,-2.2306 -1.99028,0.19117 -0.92693,2.21845 -0.73892,2.6662 0.7785,1.8541 0.5931,-0.31742 1.39446,-0.57675 1.7808,-0.5763 0.38634,4.6e-4 -0.13841,0.42088 -1.16611,0.93428 -3.04463,1.52096 -4.71795,6.37814 -3.18444,9.24353 0.71639,1.33859 2.40544,1.42986 1.82048,0.0984 -0.85799,-1.95295 -0.8469,-4.6654 0.0234,-5.73911 0.85145,-1.05038 0.85637,-1.04878 0.30221,0.0984 -0.99659,2.063 -0.68825,3.87164 0.77361,4.5377 0.73531,0.33503 1.48571,0.46036 1.66756,0.27851 0.63328,-0.63326 -0.30914,-1.97829 -1.38611,-1.97829 -1.48488,0 -1.36105,-0.86192 0.27815,-1.93596 1.29675,-0.84967 1.43873,-0.83659 2.93628,0.27061 0.86551,0.63989 1.57365,0.93566 1.57365,0.65725 0,-0.2784 0.15845,-0.91909 0.3521,-1.42375 0.29858,-0.77808 0.0897,-0.87904 -1.37428,-0.66418 -1.50255,0.22053 -1.69124,0.11898 -1.45532,-0.78317 0.22945,-0.87743 0.0527,-0.9948 -1.15145,-0.76461 -1.33488,0.25517 -1.3593,0.2257 -0.39635,-0.47842 1.68733,-1.23381 2.75732,-0.88213 5.59552,1.83911 3.0338,2.90878 3.29576,4.0573 1.633,7.15965 -0.58725,1.0957 -1.06774,2.23328 -1.06774,2.52798 0,0.82727 0.81741,0.63544 1.69788,-0.39847 z m -46.00911,-0.0681 c 0,-1.15457 -1.62489,-1.82776 -2.95209,-1.22305 -1.97441,0.8996 -1.59209,1.69155 0.81661,1.69155 1.17452,0 2.13548,-0.21082 2.13548,-0.4685 z m -38.00146,-0.89067 c 0.0936,-0.0759 0.33535,-1.29222 0.53713,-2.70284 0.30711,-2.14695 0.58378,-2.61845 1.69829,-2.89428 1.33141,-0.32951 1.33141,-0.32951 0.13021,-0.72661 -2.0145,-0.66597 -3.33669,0.0781 -3.33669,1.87781 0,0.92882 -0.2234,1.45908 -0.53387,1.26719 -0.29363,-0.18147 -0.53387,-0.90792 -0.53387,-1.61433 0,-1.8693 -1.83056,-2.71229 -3.50596,-1.61452 -1.39213,0.91216 -1.72309,1.9 -0.63154,1.88503 0.9366,-0.0129 5.6932,2.32618 5.71837,2.81197 0.0114,0.22022 -0.4117,0.4004 -0.94023,0.4004 -0.98257,0 -2.24225,0.95226 -2.24225,1.69504 0,0.35191 3.14137,0.0198 3.64041,-0.38486 z m 1.7436,-0.83227 c -0.47032,-1.17576 -0.51423,-1.18916 -0.54534,-0.16649 -0.0186,0.61173 0.12632,1.2724 0.32207,1.46815 0.63764,0.63764 0.74609,0.005 0.22327,-1.30166 z m 38.39334,0.87352 c 0,-0.4776 -0.313,-0.66394 -0.8008,-0.47675 -0.44044,0.16902 -0.80081,0.52183 -0.80081,0.78405 0,0.26221 0.36037,0.47675 0.80081,0.47675 0.44044,0 0.8008,-0.35282 0.8008,-0.78405 z m 34.92395,-0.62704 c 0.46722,-1.21755 0.20421,-1.24757 -0.88972,-0.10154 -0.71151,0.74539 -0.75695,0.97876 -0.19059,0.97876 0.40903,0 0.89517,-0.39475 1.08031,-0.87722 z m -70.42335,-0.72766 c 1.40911,-1.55706 0.74385,-1.76279 -0.73423,-0.22706 -0.68714,0.71394 -1.02113,1.29807 -0.74219,1.29807 0.27894,0 0.94333,-0.48196 1.47642,-1.07101 z m 77.99972,0.13674 c 1.06526,-1.4033 0.8918,-4.11552 -0.35471,-5.5465 -1.0328,-1.18563 -1.06445,-1.19122 -0.53387,-0.0942 0.86669,1.7919 0.67323,3.64133 -0.49114,4.69507 -1.05076,0.95093 -1.00454,1.87994 0.0935,1.87994 0.31734,0 0.89612,-0.42042 1.28619,-0.93427 z m -48.23,-0.71247 c -0.22127,-0.84611 -0.39928,-0.94209 -0.74265,-0.4004 -0.65765,1.03747 -0.56872,1.51327 0.28285,1.51327 0.49813,0 0.65288,-0.37454 0.4598,-1.11287 z m 6.03705,-1.19079 c 0.0822,-0.55995 -0.23168,-0.89956 -0.83136,-0.89956 -0.97179,0 -1.61149,0.99684 -1.61149,2.5112 0,0.72345 0.13883,0.73007 1.15541,0.0551 0.63548,-0.42194 1.21482,-1.17197 1.28744,-1.66673 z m -17.71527,0.92532 c 0.64138,-1.67139 0.3592,-2.2174 -1.01062,-1.95555 -0.73407,0.14033 -1.33467,0.44773 -1.33467,0.68311 0,1.00722 0.69963,2.11691 1.33467,2.11691 0.37761,0 0.83239,-0.38001 1.01062,-0.84447 z m 14.4145,0 c 0.63531,-1.6556 0.33404,-2.35875 -1.01062,-2.35875 -1.34467,0 -1.64594,0.70315 -1.01062,2.35875 0.17822,0.46446 0.63301,0.84447 1.01062,0.84447 0.37761,0 0.83239,-0.38001 1.01062,-0.84447 z m -32.79225,-2.09182 c 0,-0.67734 -0.14626,-0.83777 -0.40002,-0.43877 -0.22001,0.34593 -0.85114,0.58617 -1.40251,0.53387 -1.46197,-0.13868 -1.58744,0.89517 -0.18514,1.52551 1.35951,0.6111 1.98767,0.099 1.98767,-1.62061 z m 82.85243,-2.82617 c 0.1097,-4.08406 -0.78104,-5.98269 -2.80678,-5.98269 -0.52442,0 -1.11492,-0.26119 -1.31222,-0.58043 -0.23718,-0.38377 0.2192,-0.51981 1.34702,-0.4015 1.3607,0.14272 1.8463,-0.0837 2.40064,-1.11953 1.1009,-2.05704 0.12957,-4.00923 -2.41221,-4.84809 -1.16203,-0.38351 -2.26139,-0.54868 -2.44302,-0.36705 -0.57569,0.5757 0.26881,1.98762 1.45025,2.42467 1.12188,0.41501 1.11818,0.43434 -0.2551,1.33415 -1.94169,1.27225 -1.97486,4.18924 -0.0576,5.06281 1.95514,0.89083 3.46459,3.70279 3.46693,6.45854 0.003,3.80712 0.50992,2.19358 0.62206,-1.98088 z m -96.95527,-3.01477 c 0.51454,-0.7853 1.8598,-1.89934 2.98947,-2.47565 2.33001,-1.18869 2.6027,-1.68087 0.85272,-1.53912 -1.93695,0.1569 -2.17123,0.0255 -1.46705,-0.82302 0.40406,-0.48685 0.53549,-1.45325 0.33439,-2.45873 -0.28487,-1.42436 -0.20063,-1.60574 0.60087,-1.2938 1.71979,0.66935 2.00066,0.55724 1.85672,-0.74108 -0.2052,-1.85088 -1.10162,-2.71231 -2.82247,-2.71231 -1.04884,0 -1.60592,0.3329 -1.85141,1.10635 -0.19312,0.60849 -0.63981,0.99558 -0.99264,0.86018 -0.42372,-0.16259 -0.66946,0.45518 -0.72388,1.81976 -0.0622,1.55871 0.19536,2.26047 1.04886,2.85829 1.00349,0.70287 1.0304,0.83105 0.23825,1.13503 -0.49116,0.18847 -0.89301,0.89012 -0.89301,1.55921 0,0.66909 -0.35888,1.90466 -0.79751,2.7457 -0.8758,1.67927 -0.98349,2.96873 -0.41751,4.99933 0.31977,1.14726 0.42372,0.98735 0.74033,-1.13883 0.20258,-1.36043 0.78932,-3.11602 1.30387,-3.90131 z m 30.1353,3.70546 c 0,-0.73407 -0.24025,-1.33467 -0.53387,-1.33467 -0.59643,0 -0.73178,1.75961 -0.17796,2.31343 0.58851,0.58851 0.71183,0.41895 0.71183,-0.97876 z m 3.41303,0.49021 c 0.56186,-1.46417 0.36209,-1.82488 -1.01062,-1.82488 -1.06774,0 -1.33467,0.26693 -1.33467,1.33467 0,1.53565 1.79977,1.91183 2.34529,0.49021 z m 12.03168,-0.62368 c -0.0332,-1.30095 -0.0898,-1.34655 -0.49635,-0.4004 -0.62661,1.4582 -0.62661,1.86855 0,1.86855 0.29363,0 0.51699,-0.66067 0.49635,-1.46815 z m 4.84235,0.97794 c 0,-1.49404 -0.77325,-2.17914 -2.45953,-2.17914 -1.57627,0 -1.81143,0.17326 -1.81143,1.33467 0,1.20121 0.21355,1.33468 2.13548,1.33468 1.17452,0 2.13548,-0.2206 2.13548,-0.49021 z m -45.3136,-2.17914 c 0.88354,0 2.05655,0.24089 2.60668,0.53531 0.66863,0.35784 1.10993,0.35784 1.33109,0 0.51881,-0.83945 3.01881,-0.62692 4.09635,0.34824 1.59868,1.44678 1.12373,-0.17077 -0.60965,-2.07634 -1.48836,-1.6362 -1.58693,-1.66957 -1.60161,-0.54229 -0.009,0.70487 -0.34654,1.20121 -0.81646,1.20121 -0.44044,0 -0.8008,-0.10048 -0.8008,-0.22328 0,-0.12279 -0.16095,-0.64269 -0.35766,-1.15531 -0.23314,-0.60754 -0.15349,-0.80586 0.22876,-0.56962 0.34255,0.2117 0.65781,-0.10708 0.75807,-0.76652 0.17163,-1.12895 0.17163,-1.12895 1.63978,0.0308 1.14895,0.90763 1.46814,0.98516 1.46814,0.35658 0,-0.44176 -0.72073,-1.3164 -1.60161,-1.94365 -0.88089,-0.62724 -1.60161,-0.88985 -1.60161,-0.58357 0,0.33022 -0.63244,0.43039 -1.55382,0.24612 -0.8546,-0.17092 -2.40416,-0.0301 -3.44347,0.31287 -2.25876,0.74546 -5.15475,3.8621 -5.12487,5.51533 0.0199,1.10202 0.0754,1.08301 0.81434,-0.2788 0.88406,-1.62932 3.28888,-3.07646 5.11238,-3.07646 1.1665,0 1.17048,-0.0195 0.15998,-0.78383 -0.9989,-0.75553 -0.98717,-0.78444 0.32506,-0.80081 1.67679,-0.0209 2.60029,0.83053 2.27014,2.09301 -0.20427,0.78114 -0.65958,0.90592 -2.53446,0.69459 -1.95024,-0.21982 -2.41365,-0.0746 -3.1594,0.99012 -0.48067,0.68624 -0.87394,1.60808 -0.87394,2.04852 0,0.54664 0.26378,0.42421 0.83108,-0.38572 0.54572,-0.77912 1.38268,-1.18653 2.43751,-1.18653 z m 27.16202,-1.06774 c 1.13992,-0.36507 1.00819,-0.43521 -0.90277,-0.48066 -1.23059,-0.0293 -2.38592,0.18703 -2.56739,0.48066 -0.38457,0.62224 1.52721,0.62224 3.47016,0 z m 3.40375,-2.65024 c 0.80927,-2.34892 0.7493,-3.35662 -0.14198,-2.38594 -0.4187,0.456 -1.26811,5.35595 -0.85723,4.94507 0.0986,-0.0986 0.54825,-1.25022 0.99921,-2.55913 z m 13.94703,2.11637 c -0.18147,-0.29363 -1.02232,-0.53387 -1.86855,-0.53387 -0.84622,0 -1.68707,0.24024 -1.86854,0.53387 -0.19957,0.3229 0.53883,0.53387 1.86854,0.53387 1.32972,0 2.06812,-0.21097 1.86855,-0.53387 z m -0.64612,-2.13549 c -0.15357,-0.58725 -0.37132,-1.06774 -0.48389,-1.06774 -0.11256,0 -0.20467,0.48049 -0.20467,1.06774 0,0.58726 0.21775,1.06775 0.48389,1.06775 0.26614,0 0.35825,-0.48049 0.20467,-1.06775 z m -17.7724,-2.63784 c 0,-0.56993 -0.24025,-1.18471 -0.53387,-1.36618 -0.30279,-0.18714 -0.53387,0.26139 -0.53387,1.03623 0,0.7514 0.24024,1.36618 0.53387,1.36618 0.29362,0 0.53387,-0.4663 0.53387,-1.03623 z m 0.91145,-1.76036 c -0.1277,-0.66409 -0.23702,-0.24647 -0.24295,0.92805 -0.006,1.17451 0.0986,1.71786 0.23218,1.20743 0.13362,-0.51043 0.13847,-1.47139 0.0108,-2.13548 z m -20.40658,1.06152 c -0.14194,-0.51385 -0.39549,-1.41825 -0.56344,-2.00977 -0.37166,-1.30895 -1.29624,-0.87621 -1.29624,0.60669 0,0.69914 -0.3237,1.03686 -0.93428,0.97475 -1.73152,-0.17613 -2.26894,0.0241 -2.26894,0.84556 0,0.645 0.56175,0.78591 2.66048,0.66734 2.23935,-0.12651 2.61964,-0.29819 2.40242,-1.08457 z m 25.32321,-0.21016 c 0.12234,-0.10463 -0.52414,-0.19025 -1.43664,-0.19025 -0.91249,0 -1.80532,0.23663 -1.98406,0.52583 -0.29461,0.4767 2.82929,0.17023 3.4207,-0.33558 z m 32.47115,0.19304 c -0.41059,-0.29376 -0.003,-0.35998 1.0737,-0.17465 1.95128,0.33574 2.39287,-0.44169 0.53387,-0.93989 -1.90576,-0.51072 -5.64435,-0.38786 -6.00604,0.19738 -0.18148,0.29363 0.17888,0.53387 0.8008,0.53387 0.62192,0 0.99698,0.21645 0.83348,0.481 -0.16349,0.26455 0.54037,0.45725 1.56416,0.42823 1.23313,-0.035 1.63819,-0.21248 1.20003,-0.52594 z m 20.29327,-1.05063 c -0.33211,-0.99745 -1.822,-1.10632 -2.18527,-0.15967 -0.23546,0.61363 0.0342,0.82701 1.04506,0.82701 0.85252,0 1.27925,-0.24975 1.14021,-0.66734 z m -84.3206,-0.44044 c -0.10522,-0.31565 -0.41953,-0.57391 -0.69848,-0.57391 -0.27895,0 -0.59326,0.25826 -0.69848,0.57391 -0.10522,0.31565 0.2091,0.57391 0.69848,0.57391 0.48938,0 0.8037,-0.25826 0.69848,-0.57391 z m 2.7635,-0.42263 c -0.0444,-1.83692 -2.1273,-1.92472 -2.1273,-0.0897 0,0.72341 0.28455,0.91184 1.06774,0.70703 0.58725,-0.15357 1.06406,-0.43138 1.05956,-0.61736 z m 21.36299,0.46267 c 0,-0.29363 -0.30031,-0.53715 -0.66734,-0.54116 -0.36704,-0.004 -1.26794,-0.14196 -2.00202,-0.30656 -1.28817,-0.28884 -1.29856,-0.26998 -0.29836,0.54116 1.15906,0.93998 2.96772,1.12681 2.96772,0.30656 z m 44.31122,0.29192 c 0,-0.13307 -1.09646,-0.72697 -2.4366,-1.31978 -2.43613,-1.07761 -6.02431,-1.0798 -7.76382,-0.005 -1.34219,0.82952 -0.10386,1.05089 2.51284,0.4492 2.14503,-0.49323 2.95211,-0.45465 4.48436,0.21434 1.8997,0.82942 3.20322,1.09839 3.20322,0.66096 z m 13.12721,-1.2233 c -0.0888,-0.0888 -0.57639,-0.002 -1.08348,0.19231 -0.71565,0.27462 -0.76577,0.45034 -0.22397,0.78519 0.60216,0.37215 1.778,-0.50695 1.30745,-0.9775 z m 4.90204,-0.0363 c 0.11622,-0.34868 -0.16079,-0.63397 -0.61558,-0.63397 -0.5882,0 -0.92824,-0.76388 -1.17792,-2.64605 -0.19637,-1.48026 -0.76915,-3.02446 -1.30006,-3.50494 -1.08876,-0.9853 -1.31336,-0.7391 -1.80297,1.97637 -0.33411,1.85302 -0.26972,1.97461 1.13109,2.13548 1.03064,0.11837 1.46267,0.45661 1.41122,1.10487 -0.0408,0.51385 0.1394,0.93427 0.4004,0.93427 0.261,0 0.47455,0.38038 0.47455,0.8453 0,0.94277 1.1493,0.77859 1.47927,-0.21133 z m -54.02214,-0.56378 c -0.1197,-0.19368 -1.35066,-0.26203 -2.73547,-0.15189 -1.38482,0.11013 -2.25748,0.36116 -1.93926,0.55783 0.72065,0.44539 4.97269,0.0762 4.67473,-0.40594 z m 25.31549,0.19679 c 0.54432,-0.65587 0.50784,-0.80081 -0.20157,-0.80081 -0.47639,0 -0.86617,0.36036 -0.86617,0.80081 0,0.44044 0.0907,0.8008 0.20157,0.8008 0.11086,0 0.50063,-0.36036 0.86617,-0.8008 z m 10.6774,-0.26694 c -0.42343,-0.2617 -0.89,-0.35569 -1.03681,-0.20888 -0.14682,0.14682 0.0795,0.48105 0.50294,0.74275 0.42344,0.2617 0.89001,0.35569 1.03682,0.20888 0.14682,-0.14681 -0.0795,-0.48105 -0.50295,-0.74275 z m -63.88503,-1.20121 c -0.25218,-0.41655 -1.781,-0.5686 -1.781,-0.17713 0,0.1228 0.14171,0.59258 0.31492,1.04396 0.24786,0.6459 0.46333,0.68362 1.01171,0.17713 0.38323,-0.35395 0.58769,-0.82374 0.45437,-1.04396 z m 20.10768,1.20121 c 0,-0.29363 -0.66067,-0.53019 -1.46815,-0.52569 -1.14405,0.006 -1.29136,0.12241 -0.66734,0.52569 1.04454,0.67503 2.13549,0.67503 2.13549,0 z m 56.46599,-0.63969 c -0.26666,-0.79995 -1.19251,-0.57049 -1.38268,0.34268 -0.11883,0.57063 0.0951,0.72454 0.68991,0.4963 0.47418,-0.18196 0.78593,-0.5595 0.69277,-0.83898 z m 2.25973,-0.2056 c 0,-0.46492 -0.28529,-0.7502 -0.63397,-0.63397 -0.98991,0.32997 -1.1541,1.47926 -0.21132,1.47926 0.46491,0 0.84529,-0.38038 0.84529,-0.84529 z m -60.85768,-0.25927 c 1.02576,-0.31388 3.90707,-0.90348 6.40292,-1.31021 4.28179,-0.69779 4.34958,-0.7287 1.20121,-0.54768 -1.83518,0.10552 -3.33669,-0.0256 -3.33669,-0.2914 0,-0.26578 -0.81283,-0.48324 -1.80628,-0.48324 -1.3573,0 -1.87569,0.26541 -2.0855,1.06774 -0.18868,0.72152 -0.72821,1.06774 -1.66388,1.06774 -0.76156,0 -1.38466,0.24024 -1.38466,0.53387 0,0.6742 0.36572,0.66916 2.67288,-0.0368 z m 9.47267,0.2342 c 2.27689,-0.61018 1.19495,-1.2141 -1.60161,-0.89398 -4.21757,0.48277 -5.50414,1.15716 -2.26895,1.18934 1.46815,0.0146 3.2099,-0.11831 3.87056,-0.29536 z m 29.09593,-0.0171 c -0.97022,-0.39149 -0.81755,-1.24804 0.22245,-1.24804 1.41724,0 0.60368,-0.43284 -1.84964,-0.98406 -1.97086,-0.44282 -2.33306,-0.37977 -2.79691,0.48694 -0.45408,0.84845 -0.27498,1.07005 1.21156,1.49903 1.80993,0.52231 4.38615,0.71969 3.21254,0.24613 z m 4.13749,-0.71417 c -0.44044,-0.28464 -1.28129,-0.49725 -1.86854,-0.47248 -0.87963,0.0371 -0.8326,0.12035 0.26693,0.47248 1.8876,0.60451 2.53703,0.60451 1.60161,0 z m 3.39813,-0.93427 c -0.53154,-2.1719 -2.07991,-3.009 -2.67883,-1.44826 -0.35826,0.93362 1.21217,2.9164 2.3099,2.9164 0.52563,0 0.62827,-0.40846 0.36893,-1.46814 z m -64.74252,-1.20121 c 0.21078,0 0.25189,-0.50222 0.0914,-1.11604 -0.27925,-1.06786 -0.34541,-1.05058 -1.53243,0.4004 -1.60649,1.96373 -1.6867,3.27257 -0.11057,1.80418 0.64263,-0.5987 1.34086,-1.08854 1.55163,-1.08854 z m 17.83397,1.06774 c 0.18147,-0.29363 -0.15053,-0.53387 -0.73779,-0.53387 -0.58726,0 -1.21622,0.24024 -1.39769,0.53387 -0.18147,0.29363 0.15053,0.53387 0.73779,0.53387 0.58726,0 1.21622,-0.24024 1.39769,-0.53387 z m 43.50225,-1.20121 c -0.007,-0.97134 -0.10721,-1.04796 -0.5257,-0.4004 -0.39128,0.60546 -0.53126,0.345 -0.57384,-1.06774 l -0.0563,-1.86855 -0.55474,1.86855 -0.55474,1.86854 -0.50933,-1.46814 c -0.69454,-2.00196 -1.50177,-1.85087 -1.42618,0.26694 0.0341,0.95429 0.16895,1.32942 0.29976,0.83363 0.21615,-0.81929 0.33216,-0.80712 1.27274,0.13346 1.40325,1.40325 2.63851,1.32509 2.62836,-0.16629 z m -63.74483,-0.93427 c 0.83734,0 0.93473,-1.62565 0.30383,-5.07177 l -0.39095,-2.13548 -0.64602,1.81474 c -0.60214,1.69146 -0.88366,7.52502 -0.29245,6.05985 0.1481,-0.36704 0.60962,-0.66734 1.02559,-0.66734 z m 18.86576,-1.46814 c -0.0464,-2.79131 -0.30558,-2.56549 -0.61277,0.53387 -0.10913,1.1011 -0.006,2.00201 0.22825,2.00201 0.23466,0 0.4077,-1.14115 0.38452,-2.53588 z m 10.5923,2.16907 c -0.51042,-0.13363 -1.47139,-0.13847 -2.13548,-0.0108 -0.66408,0.1277 -0.24646,0.23703 0.92805,0.24296 1.17452,0.006 1.71786,-0.0986 1.20743,-0.23218 z m 28.95624,-1.2348 c 0,-1.16665 -0.25373,-1.60359 -0.93427,-1.6089 -0.51385,-0.004 -1.47482,-0.15215 -2.13548,-0.3292 -1.00856,-0.27029 -1.20121,-0.11026 -1.20121,0.9978 0,1.01882 0.3956,1.44661 1.73508,1.87631 2.52991,0.81157 2.53588,0.80937 2.53588,-0.93601 z m 29.93183,1.04896 c 0.75439,-0.40374 1.03264,-1.12303 1.03264,-2.66936 0,-1.26155 -0.25262,-2.11669 -0.6253,-2.11669 -0.34391,0 -1.05402,-0.38799 -1.57801,-0.86219 -0.90117,-0.81556 -0.9358,-0.75806 -0.64025,1.06322 0.34394,2.11945 -0.49356,3.65603 -1.73336,3.18027 -0.92742,-0.35588 -1.0004,0.43749 -0.12113,1.31676 0.78705,0.78705 2.2917,0.82317 3.66541,0.088 z m -67.9929,-2.77782 c -0.1277,-0.66408 -0.23703,-0.24646 -0.24295,0.92805 -0.006,1.17452 0.0986,1.71786 0.23218,1.20744 0.13362,-0.51043 0.13847,-1.4714 0.0108,-2.13549 z m 5.82671,1.99339 c 0.53654,-0.15981 0.59723,-2.71676 0.0768,-3.23716 -0.11495,-0.11494 -1.27284,-0.0274 -2.5731,0.1946 -2.37224,0.40497 -3.10842,1.32192 -2.4464,3.04711 0.25888,0.67465 2.66978,0.67243 4.94266,-0.005 z m -28.6301,-1.30556 c 0.002,-1.01732 -0.13911,-1.16562 -0.63739,-0.66734 -1.01932,1.01932 -2.96284,0.74496 -3.86698,-0.54588 -0.82974,-1.18462 -0.83108,-1.1839 -0.83108,0.44489 0,2.11856 0.13813,2.21871 2.95375,2.14152 2.14944,-0.0589 2.37875,-0.19114 2.3817,-1.37319 z m 69.71315,1.10549 c -0.3989,-0.64543 -2.44225,-1.13696 -2.44225,-0.58748 0,0.24461 0.42043,0.55462 0.93428,0.6889 1.55411,0.40613 1.81098,0.38886 1.50797,-0.10142 z m 2.66078,-0.0138 c -0.76713,-1.24125 -5.42352,-3.33587 -9.45734,-4.25427 -7.38079,-1.68041 -8.48075,-1.81402 -8.16523,-0.99179 0.1657,0.43181 1.93438,0.98643 4.39638,1.3786 4.04442,0.64423 6.26993,1.34227 10.52558,3.30141 2.42249,1.11522 3.13192,1.26392 2.70061,0.56605 z m -42.10398,-2.04249 c -0.13536,-0.51944 -0.25501,-0.22371 -0.26589,0.65717 -0.0109,0.88089 0.0999,1.30588 0.24611,0.94444 0.14624,-0.36145 0.15514,-1.08218 0.0198,-1.60161 z m 2.29939,0.39024 c 0,-0.88089 -0.24024,-1.60161 -0.53387,-1.60161 -0.29363,0 -0.53387,0.72072 -0.53387,1.60161 0,0.88088 0.24024,1.60161 0.53387,1.60161 0.29363,0 0.53387,-0.72073 0.53387,-1.60161 z m 1.60161,0 c 0,-0.88089 -0.24024,-1.60161 -0.53387,-1.60161 -0.29363,0 -0.53387,0.72072 -0.53387,1.60161 0,0.88088 0.24024,1.60161 0.53387,1.60161 0.29363,0 0.53387,-0.72073 0.53387,-1.60161 z m 1.87117,-1.38075 c 0.12694,-1.14918 0.1006,-1.66899 -0.0585,-1.15514 -0.15913,0.51385 -0.51195,0.93428 -0.78404,0.93428 -0.27211,0 -0.49473,0.76877 -0.49473,1.70838 0,2.37675 1.03799,1.22216 1.3373,-1.48752 z m -16.13098,1.38075 c 0.15357,-0.58726 0.0615,-1.06774 -0.20467,-1.06774 -0.26614,0 -0.48389,0.48048 -0.48389,1.06774 0,0.58725 0.0921,1.06774 0.20467,1.06774 0.11257,0 0.33032,-0.48049 0.48389,-1.06774 z m 53.23234,0.0636 c 0,-1.38379 -10.45361,-5.10095 -16.01611,-5.69511 -4.74409,-0.50674 -3.56213,0.47231 1.60161,1.32666 4.39178,0.72662 9.51696,2.37997 12.01208,3.87501 1.78008,1.06661 2.40242,1.19443 2.40242,0.49344 z m 14.13692,-0.0809 c 0.49226,0.7965 1.34531,0.14881 1.34531,-1.02144 0,-0.64732 -0.49405,-1.06045 -1.46814,-1.22766 -0.80748,-0.13861 -1.85756,-0.41993 -2.33353,-0.62515 -0.57185,-0.24656 -0.98811,-0.0533 -1.22725,0.5699 -0.46183,1.20351 1.74866,3.05011 2.70304,2.25805 0.41403,-0.34361 0.74937,-0.32778 0.98057,0.0463 z m -88.45592,-0.81929 c 1.13574,-0.7955 2.79959,-3.94722 2.76351,-5.23473 -0.034,-1.21496 -2.65248,2.43617 -2.65248,3.69859 0,1.42555 -0.50484,1.65425 -1.48593,0.67316 -0.78701,-0.78701 -1.42325,-0.22943 -0.99919,0.87566 0.39865,1.03886 0.87645,1.03631 2.37409,-0.0127 z m 75.04036,-2.84362 c 0.72338,-2.09962 0.72145,-2.47237 -0.0186,-3.60189 -0.45404,-0.69295 -1.01565,-1.25991 -1.24801,-1.25991 -0.51886,0 -0.0316,2.15068 0.69847,3.08266 0.29306,0.37413 0.38164,0.83144 0.19684,1.01624 -0.60549,0.60549 -1.95163,-3.47701 -1.95163,-5.91879 0,-1.31343 -0.24025,-2.53653 -0.53387,-2.718 -0.33079,-0.20444 -0.53388,0.76875 -0.53388,2.55833 0,2.06751 0.38527,3.61286 1.35576,5.4381 1.65856,3.11933 1.42067,3.70685 -0.38738,0.95675 -1.68423,-2.56175 -2.91829,-8.4241 -2.00499,-9.52456 0.34841,-0.41981 1.093,-0.7633 1.65464,-0.7633 0.85572,0 0.92858,-0.17298 0.44972,-1.06774 -0.75639,-1.41332 -2.40667,-1.35633 -3.43989,0.11879 -1.22483,1.74869 -1.01953,5.10659 0.49468,8.09119 1.35145,2.66377 3.98507,6.41034 4.29103,6.10438 0.0936,-0.0936 0.53336,-1.22415 0.97715,-2.51225 z m -48.76968,1.22205 c 1.08895,0.17037 1.57215,0.10734 1.15814,-0.15106 -1.04,-0.64911 1.89629,-1.12795 6.91664,-1.12795 3.50439,0 4.20423,-0.14272 4.20423,-0.85734 0,-0.73661 -0.5826,-0.81942 -4.13749,-0.58805 -5.60386,0.36471 -12.87002,1.53911 -14.05539,2.27171 -1.2516,0.77353 -0.27543,1.14612 1.77637,0.67801 1.24792,-0.2847 3.10979,-0.3861 4.1375,-0.22532 z m 8.80885,-0.21127 c 0.78214,-0.3361 0.30961,-0.46886 -1.76658,-0.49635 -1.76212,-0.0233 -2.70951,0.16444 -2.50438,0.49635 0.3952,0.63943 2.78291,0.63943 4.27096,0 z m 53.65396,-0.55063 c 0,-0.30284 -0.35122,-0.6854 -0.78048,-0.85012 -0.42927,-0.16473 -0.93836,-0.79693 -1.13132,-1.40489 -0.32198,-1.01447 -0.39347,-1.02921 -0.86913,-0.17923 -0.37812,0.67565 -0.26635,1.20456 0.41325,1.95551 0.99956,1.1045 2.36768,1.38112 2.36768,0.47873 z m -17.61772,-0.55641 c 0,-0.92306 -6.41897,-6.92133 -9.55222,-8.92615 -10.52893,-6.73698 -26.15959,-7.19648 -36.09368,-1.06105 -6.50098,4.0151 -6.67338,4.17436 -6.67338,6.16493 0,1.8642 0.002,1.86548 2.00202,1.50526 5.35298,-0.96397 8.84515,-1.35463 13.36188,-1.49475 4.0068,-0.12429 4.98371,-0.31663 5.2107,-1.0259 0.41961,-1.31121 -0.82054,-3.58807 -2.05393,-3.77089 -0.59744,-0.0886 -1.19729,-0.49775 -1.33301,-0.90931 -0.18541,-0.56224 0.0697,-0.65784 1.02592,-0.3845 1.46531,0.41886 19.10049,0.43014 19.776,0.0127 0.87378,-0.54002 0.4315,0.45303 -0.91387,2.0519 -0.86387,1.02666 -1.30371,2.1228 -1.2012,2.99352 0.14989,1.27315 0.45495,1.41973 4.16576,2.00158 2.20221,0.3453 5.68572,1.22133 7.74112,1.94672 4.55867,1.60885 4.53789,1.60475 4.53789,0.89599 z m -73.81173,-1.99366 c -0.0535,-1.34136 0.31937,-2.59533 1.09603,-3.68604 1.90901,-2.68096 1.32417,-3.1781 -1.09731,-0.93278 -1.57295,1.45853 -1.83639,3.112 -0.84312,5.29198 0.8266,1.81421 0.93999,1.72382 0.8444,-0.67316 z m 4.36957,-0.98313 c 0.7034,-0.53241 0.71237,-0.79754 0.0678,-2.00202 -0.91118,-1.70256 -1.40941,-1.74473 -2.21077,-0.18713 -0.51001,0.99132 -0.49464,1.0846 0.088,0.53387 1.10224,-1.04188 1.83018,-0.78281 0.84847,0.30197 -0.48247,0.53311 -1.02685,1.79438 -1.20974,2.80282 l -0.33253,1.83351 0.96903,-1.33467 c 0.53296,-0.73408 1.33387,-1.61083 1.7798,-1.94835 z m 21.66078,2.22982 c 1.76177,-0.42327 6.02606,-0.93605 9.4762,-1.1395 3.4842,-0.20547 6.27297,-0.60226 6.27297,-0.89255 0,-0.32976 -1.8224,-0.38692 -4.9383,-0.15489 -10.29217,0.76641 -14.38312,1.41095 -14.68397,2.31348 -0.27493,0.82479 -0.0569,0.81767 3.8731,-0.12654 z m 68.03088,-2.34676 c 0.29363,-0.54865 0.36215,-1.18777 0.15226,-1.42027 -0.20989,-0.2325 -0.0813,-0.24991 0.28572,-0.0387 0.36703,0.21122 0.66733,0.73022 0.66733,1.15333 0,0.96035 0.75074,0.99374 1.51937,0.0676 0.43595,-0.52529 0.24622,-1.19638 -0.75468,-2.66935 -0.73538,-1.0822 -1.4116,-1.96764 -1.50271,-1.96764 -0.73041,0 -3.49091,1.78977 -3.73281,2.42017 -0.92868,2.42008 2.17324,4.68266 3.36552,2.45486 z m -14.91079,-1.90897 c 0,-0.42407 -0.59302,-1.4451 -1.31781,-2.26895 -1.19161,-1.35447 -1.31942,-1.39426 -1.33467,-0.4155 -0.0189,1.21343 1.37536,3.45548 2.14888,3.45548 0.27698,0 0.5036,-0.34696 0.5036,-0.77103 z m -10.97159,-3.74972 c -0.42545,-1.01827 -0.77356,-2.57984 -0.77356,-3.47015 0,-1.37077 -0.20447,-1.61876 -1.33467,-1.61876 -0.73408,0 -1.33468,0.1002 -1.33468,0.22267 0,0.86403 2.35202,5.51065 3.06254,6.0503 1.23214,0.93584 1.24691,0.88985 0.38037,-1.18406 z m -70.0561,-0.23834 c -0.22835,-1.55587 -0.22835,-1.55587 3.02875,-1.26053 2.22368,0.20164 3.2571,0.10566 3.2571,-0.3025 0,-0.79794 -2.28568,-1.33468 -3.83202,-0.89987 -1.23696,0.34783 -1.23676,0.34622 0.0915,-0.71947 1.22161,-0.98016 1.25091,-1.09889 0.35594,-1.44232 -1.42802,-0.54798 -3.04721,1.34148 -3.39933,3.96674 -0.16935,1.26256 -0.0771,2.21382 0.21476,2.21382 0.28144,0 0.40895,-0.70014 0.28335,-1.55587 z m 27.62008,-1.17503 c 1.41476,-1.41476 1.65176,-2.01441 1.51608,-3.83594 -0.18861,-2.53211 -1.31754,-3.31855 -1.31754,-0.91783 0,0.96399 -0.50566,2.15904 -1.2478,2.94902 -0.68629,0.73052 -1.0845,1.49153 -0.8849,1.69112 0.19959,0.1996 -0.17984,0.95387 -0.84319,1.67617 -1.19237,1.29833 -1.19297,1.30645 -0.0528,0.71382 0.63429,-0.3297 1.90787,-1.35406 2.83017,-2.27636 z m 38.52264,-2.33986 c -1.02203,-3.47134 -2.53647,-4.17322 -2.01804,-0.93528 0.25153,1.5709 1.88216,3.87056 2.74452,3.87056 0.0757,0 -0.25117,-1.32088 -0.72648,-2.93528 z m 14.88497,2.40141 c 0,-0.29363 -0.22607,-0.53387 -0.50236,-0.53387 -0.2763,0 -0.65085,0.24024 -0.83232,0.53387 -0.18147,0.29363 0.0446,0.53387 0.50236,0.53387 0.45777,0 0.83232,-0.24024 0.83232,-0.53387 z m 2.13548,-1.03388 c 0,-1.38885 -1.29621,-2.27411 -3.03747,-2.07445 -1.23057,0.1411 -1.51019,0.44105 -1.55468,1.66775 -0.038,1.04608 0.11451,1.32693 0.50718,0.93427 0.83202,-0.83202 2.32343,-0.68051 2.6894,0.27321 0.40524,1.05602 1.39557,0.48777 1.39557,-0.80078 z m 3.85455,0.90041 c -0.75659,-0.92278 -0.97955,-2.66251 -0.44959,-3.50808 0.33988,-0.54228 0.0284,-0.66565 -1.348,-0.53387 -0.98452,0.0943 -1.66991,0.41163 -1.52309,0.70526 0.14681,0.29363 0.57567,0.4991 0.953,0.4566 0.43957,-0.0495 0.51523,0.14231 0.21058,0.53387 -0.26152,0.33613 -0.60782,1.15169 -0.76956,1.81235 -0.263,1.07432 -0.095,1.20121 1.58987,1.20121 1.44305,0 1.75589,-0.15617 1.33679,-0.66734 z m 7.89059,0.13347 c 0,-0.29363 -0.37454,-0.53387 -0.83231,-0.53387 -0.45777,0 -0.68384,0.24024 -0.50236,0.53387 0.18147,0.29363 0.55601,0.53387 0.83231,0.53387 0.2763,0 0.50236,-0.24024 0.50236,-0.53387 z m 3.11374,-0.99197 c 0.21548,-1.51551 -1.77952,-3.81286 -3.31106,-3.81286 -0.98502,0 -4.07364,2.42311 -4.07364,3.1959 0,0.17973 0.85579,0.22688 1.90176,0.10477 1.40193,-0.16367 1.82278,-0.42785 1.60125,-1.00515 -0.18223,-0.47489 -0.0377,-0.69923 0.36719,-0.56997 0.36723,0.11723 0.89971,0.98579 1.18328,1.93012 0.59901,1.99481 2.05596,2.09305 2.33122,0.15719 z m -84.79786,-0.3406 c 1.33937,-1.4257 1.12012,-2.48629 -0.27468,-1.32871 -1.29246,1.07265 -2.04583,-0.10994 -2.03692,-3.19744 0.007,-2.61732 -0.0309,-2.6832 -1.56784,-2.6832 h -1.57557 l 1.24303,1.00655 c 1.06988,0.86633 1.14262,1.12755 0.52219,1.87513 -0.54746,0.65964 -0.89504,0.72402 -1.44495,0.26763 -0.39826,-0.33052 -0.59244,-0.81397 -0.43153,-1.07432 0.16091,-0.26036 0.0382,-0.47338 -0.27282,-0.47338 -0.78413,0 -0.70624,0.67742 0.21845,1.89997 0.43111,0.56997 0.79147,1.6828 0.80081,2.47295 0.009,0.79015 0.25891,1.58616 0.55462,1.76892 0.83949,0.51883 1.26207,-1.25584 0.51375,-2.15752 -0.95654,-1.15255 -0.28806,-1.54311 0.79221,-0.46284 0.58241,0.58241 0.79089,1.34955 0.58725,2.1609 -0.42416,1.69002 0.74887,1.65311 2.372,-0.0746 z m 3.65736,0.0912 c 0.58658,-0.47055 0.53739,-0.64352 -0.26693,-0.93862 -0.98504,-0.3614 -2.85458,0.79446 -2.85458,1.76488 0,0.56566 2.06911,0.018 3.12151,-0.82626 z m 3.326,-0.31913 c 2.77761,-2.77762 1.68362,-6.98138 -1.81685,-6.98138 -1.92993,0 -3.56292,1.33477 -3.56292,2.91225 0,2.50651 2.93943,3.39641 3.5241,1.06691 0.18767,-0.74775 0.20823,-1.49253 0.0457,-1.65507 -0.52515,-0.52515 -1.516,0.43008 -1.22709,1.18297 0.33812,0.88111 -0.52723,1.54185 -1.0056,0.76783 -0.18605,-0.30105 -0.18203,-1.03966 0.009,-1.64136 0.2562,-0.80719 0.72011,-1.05087 1.76954,-0.92949 1.20598,0.13948 1.44656,0.45287 1.58168,2.06034 0.11538,1.37253 -0.14251,2.16902 -0.93427,2.88556 -0.6015,0.54435 -1.09364,1.19273 -1.09364,1.44085 0,0.90133 1.18451,0.4165 2.71042,-1.10941 z m 4.7447,0.15788 c 0.68395,-0.64116 0.67272,-0.73282 -0.0898,-0.73282 -0.47935,0 -1.21602,-0.13219 -1.63705,-0.29375 -0.45045,-0.17285 -1.12926,0.26143 -1.64937,1.05521 -0.88387,1.34897 -0.88387,1.34897 0.8553,1.02657 0.95655,-0.17732 2.09096,-0.65216 2.52092,-1.05521 z m 6.05377,-1.48617 c 0.50328,-1.50982 -0.33665,-4.05148 -1.33887,-4.05148 -0.25434,0 -0.21375,0.46469 0.0902,1.03264 0.75,1.40138 0.69609,3.4066 -0.11469,4.26602 -0.53755,0.56981 -0.51808,0.66195 0.1001,0.47381 0.4221,-0.12846 0.99056,-0.90291 1.26325,-1.72099 z m 32.69705,-2.3164 c 0.14361,-0.66067 0.6169,-1.20121 1.05175,-1.20121 0.99148,0 1.01929,-0.74724 0.0575,-1.54545 -1.07441,-0.89169 -2.47008,-0.13701 -2.47008,1.33563 0,0.70266 -0.24024,1.27756 -0.53387,1.27756 -0.91385,0 -0.5844,2.5877 0.4004,3.14503 0.75629,0.42801 0.96275,0.30593 1.08373,-0.64081 0.0822,-0.64325 0.26696,-1.71009 0.41058,-2.37075 z m -57.41722,1.77874 c 0,-1.87406 -0.51382,-2.93166 -1.74425,-3.59016 -1.02047,-0.54614 -1.06574,-0.46333 -0.76383,1.39714 0.50626,3.11973 2.50808,4.87008 2.50808,2.19302 z m 26.90333,-0.0873 c 0.55593,-1.44873 0.36383,-2.99466 -0.34328,-2.76253 -0.78441,0.2575 -1.24068,3.607 -0.49135,3.607 0.28082,0 0.6564,-0.38001 0.83463,-0.84447 z m 27.01757,-1.04083 c 0,-0.74329 0.35898,-1.48919 0.79774,-1.65755 1.14198,-0.43823 0.43871,-1.26198 -1.0774,-1.26198 -1.57439,0 -2.42459,1.44198 -1.80994,3.06975 0.62925,1.66644 2.0896,1.56146 2.0896,-0.15022 z m 19.94067,0.29868 c 0.54759,-0.53424 -0.0804,-3.75208 -0.73226,-3.75208 -0.59826,0 -1.16804,0.91526 -1.9397,3.11581 -0.61867,1.76428 -0.61113,1.77782 0.79648,1.43037 0.78159,-0.19293 1.62555,-0.55027 1.87548,-0.7941 z m -66.33875,-1.21525 c 0.27299,-1.02075 0.1488,-1.48396 -0.46057,-1.7178 -1.22122,-0.46862 -1.91015,0.50028 -1.5046,2.11609 0.43065,1.71585 1.4553,1.50818 1.96517,-0.39829 z m 62.51654,1.06679 c 0.46217,-0.36704 0.9617,-1.74842 1.11007,-3.06975 0.14837,-1.32133 0.1516,-2.08743 0.007,-1.70245 -0.20329,0.54193 -0.49117,0.49311 -1.27496,-0.21621 -0.55679,-0.5039 -1.01236,-0.72525 -1.01236,-0.49189 0,0.23336 0.41496,0.72771 0.92213,1.09856 0.74079,0.54169 0.81953,0.96461 0.4004,2.15071 -0.64284,1.81922 -1.8564,2.34701 -1.8564,0.80738 0,-1.287 -0.80969,-1.487 -1.2608,-0.31143 -0.77035,2.0075 1.18259,3.15042 2.96477,1.73508 z m -73.93675,-0.7527 c 0.22804,-0.59426 -0.16293,-1.28724 -1.18688,-2.10371 -1.99984,-1.59461 -2.56698,-1.15477 -1.47195,1.14154 0.94464,1.98092 2.10655,2.40139 2.65883,0.96217 z m 48.61525,-0.0145 c -0.51043,-0.13363 -1.47139,-0.13847 -2.13548,-0.0108 -0.66409,0.1277 -0.24647,0.23703 0.92805,0.24296 1.17451,0.006 1.71786,-0.0986 1.20743,-0.23218 z m 3.86434,-0.15001 c 0,-0.28425 -0.66067,-0.89363 -1.46815,-1.35418 -1.4204,-0.81013 -1.42474,-0.82599 -0.13346,-0.48778 0.73407,0.19228 1.75509,0.71877 2.26894,1.16999 1.07468,0.94369 1.25814,0.20884 0.26694,-1.06921 -2.04256,-2.63367 -14.05582,-2.69578 -16.66543,-0.0862 -0.45036,0.45035 -0.81882,1.05906 -0.81882,1.35268 0,0.29363 0.387,0.14687 0.86001,-0.32614 0.77085,-0.77085 0.92306,-0.77499 1.46814,-0.04 0.5049,0.68084 0.96654,0.72036 2.71933,0.23277 1.20333,-0.33474 3.6139,-0.44794 5.60564,-0.26325 1.92194,0.17822 3.91486,0.33813 4.42871,0.35536 0.51385,0.0172 0.93428,0.25663 0.93428,0.53201 0,0.27538 0.12012,0.50069 0.26693,0.50069 0.14682,0 0.26694,-0.23257 0.26694,-0.51682 z m -9.72903,-2.54413 c 1.25569,-0.11277 3.17762,-0.11119 4.27097,0.004 1.09334,0.11471 0.066,0.20699 -2.28306,0.20505 -2.34903,-0.002 -3.24359,-0.0958 -1.98791,-0.20858 z m 36.47469,0.54184 c -0.48566,-0.83439 -0.55554,-0.78187 -0.56979,0.42812 -0.009,0.75854 0.16395,1.56087 0.38417,1.78297 0.64136,0.64681 0.79359,-1.16655 0.18562,-2.21109 z m 5.15931,2.1523 c -0.51043,-0.13363 -1.4714,-0.13848 -2.13548,-0.0108 -0.66409,0.1277 -0.24647,0.23703 0.92804,0.24296 1.17452,0.006 1.71786,-0.0986 1.20744,-0.23218 z m -34.57433,89.62303 c 0,-1.12861 0.22213,-1.4376 0.9185,-1.27769 0.37571,0.0863 0.68312,-0.19985 0.68312,-0.63583 0,-0.94825 0.87664,-1.59683 1.2788,-0.94612 0.15666,0.25348 -0.42734,1.1432 -1.29779,1.97714 -0.87044,0.83394 -1.58263,1.23106 -1.58263,0.8825 z m 10.25596,-0.921 c -0.48466,-0.54951 -0.50573,-0.7805 -0.0712,-0.7805 0.3505,0 0.49876,-0.4529 0.34311,-1.04811 -0.33559,-1.28327 0.91385,-2.54412 1.53122,-1.5452 0.22624,0.36607 0.13752,0.75224 -0.19856,0.86427 -0.3703,0.12343 -0.48539,0.81325 -0.29472,1.76658 0.33724,1.6862 -0.2061,1.99439 -1.30984,0.74296 z m 4.42548,0.28724 c 0.18147,-0.29362 0.67613,-0.53387 1.09925,-0.53387 0.42311,0 0.76929,0.24025 0.76929,0.53387 0,0.29363 -0.49466,0.53387 -1.09925,0.53387 -0.60458,0 -0.95077,-0.24024 -0.76929,-0.53387 z m -14.47162,-2.44608 c 0.17823,-0.46445 0.32405,-1.06506 0.32405,-1.33467 0,-0.26961 0.36037,-0.49021 0.80081,-0.49021 0.97646,0 0.99316,0.50268 0.0576,1.73508 -0.88399,1.16452 -1.61623,1.22013 -1.18249,0.0898 z m 16.47895,-0.51583 c -0.42063,-0.45665 -0.46792,-0.8387 -0.1297,-1.04773 0.29278,-0.18094 0.68043,0.057 0.86144,0.52868 0.44109,1.14945 0.0829,1.40351 -0.73174,0.51905 z m -42.0137,-89.76875 c -0.27737,-0.72282 1.61408,-1.76438 3.20407,-1.76438 1.49621,0 0.73714,1.3494 -1.07879,1.91778 -1.46905,0.4598 -1.90196,0.42856 -2.12528,-0.1534 z"
       id="path15071" />
  </g>
</svg>
