<?xml version="1.0" encoding="UTF-8" standalone="no"?>
<!-- Created with Inkscape (http://www.inkscape.org/) -->

<svg
   width="92.021507mm"
   height="90.984207mm"
   viewBox="0 0 92.021508 90.984208"
   version="1.1"
   id="svg5"
   inkscape:version="1.1 (c4e8f9ed74, 2021-05-24)"
   sodipodi:docname="ornatew9.svg"
   xmlns:inkscape="http://www.inkscape.org/namespaces/inkscape"
   xmlns:sodipodi="http://sodipodi.sourceforge.net/DTD/sodipodi-0.dtd"
   xmlns="http://www.w3.org/2000/svg"
   xmlns:svg="http://www.w3.org/2000/svg">
  <sodipodi:namedview
     id="namedview7"
     pagecolor="#ffffff"
     bordercolor="#666666"
     borderopacity="1.0"
     inkscape:pageshadow="2"
     inkscape:pageopacity="0.0"
     inkscape:pagecheckerboard="0"
     inkscape:document-units="mm"
     showgrid="false"
     inkscape:zoom="0.66903058"
     inkscape:cx="-380.40114"
     inkscape:cy="88.934649"
     inkscape:window-width="2506"
     inkscape:window-height="1403"
     inkscape:window-x="1974"
     inkscape:window-y="0"
     inkscape:window-maximized="1"
     inkscape:current-layer="layer1" />
  <defs
     id="defs2" />
  <g
     inkscape:label="Layer 1"
     inkscape:groupmode="layer"
     id="layer1"
     transform="translate(-205.06845,-115.68756)">
    <path
       style="fill:#000000;stroke-width:0.946643"
       d="m 210.57713,206.49019 c -5.10053,-0.50912 -5.83265,-1.89627 -5.40554,-10.24189 0.72604,-14.18656 1.00727,-50.87351 0.49583,-64.68256 -0.34118,-9.21184 -0.19171,-14.78503 0.40887,-15.2451 0.52065,-0.39885 20.96813,-0.68071 45.43885,-0.62637 l 44.49221,0.0988 0.18764,31.71253 c 0.1032,17.44189 0.41718,37.3093 0.69773,44.1498 0.39153,9.54628 0.22427,12.67449 -0.71955,13.45779 -0.83111,0.68976 -13.11524,1.0297 -37.9013,1.04885 -20.1694,0.0156 -38.24758,0.18605 -40.17372,0.37881 -1.92614,0.19277 -5.3106,0.16996 -7.52102,-0.0506 z m 82.37278,-3.08008 c 1.58169,-0.0496 1.66141,-2.45733 1.41997,-42.88815 l -0.25581,-42.83558 -40.70565,-0.0471 c -22.3881,-0.0259 -41.8771,0.11445 -43.3089,0.31188 l -2.60327,0.35897 v 42.36593 c 0,23.30126 0.29662,42.66255 0.65916,43.02509 0.48025,0.48024 67.54341,0.25007 84.7945,-0.29104 z m -81.96585,-2.56017 c -0.78887,-0.78887 -0.81298,-38.68139 -0.0296,-46.50569 0.62995,-6.29181 1.28543,-6.98865 1.86793,-1.9858 0.41118,3.53148 1.12162,4.54121 2.09127,2.97227 0.384,-0.62132 2.01254,-0.94554 3.68574,-0.73379 2.38631,0.30201 2.88465,0.0847 2.44325,-1.06562 -0.32715,-0.85255 -1.27724,-1.25601 -2.31724,-0.98405 -1.23305,0.32245 -1.76274,-0.0468 -1.76274,-1.22885 0,-0.99518 -1.19972,-2.18675 -2.91855,-2.89871 -2.88646,-1.19561 -2.9157,-1.27754 -2.65969,-7.45133 0.27366,-6.59938 1.75196,-9.55567 4.77832,-9.55567 0.96061,0 1.77822,0.31949 1.81691,0.70998 0.53245,5.37399 2.11119,7.90021 3.8503,6.16109 1.93007,-1.93006 -2.28783,-9.08646 -5.81718,-9.86986 -0.77919,-0.17296 -1.73621,-0.74045 -2.1267,-1.26111 -0.44981,-0.59975 -1.01916,-0.46684 -1.55372,0.3627 -0.62257,0.96612 -1.0199,0.50733 -1.51573,-1.75019 -0.3696,-1.68274 -0.3094,-3.41038 0.13376,-3.8392 0.44316,-0.42882 18.48264,-0.89912 40.08774,-1.0451 l 39.28199,-0.26543 0.30407,39.95102 c 0.24799,32.5816 0.074,39.94661 -0.94296,39.92713 -0.68587,-0.0131 -15.19818,0.19077 -32.24958,0.45313 -19.14098,0.29451 -31.00255,0.13523 -31.00255,-0.41632 0,-0.49133 4.34804,-1.01474 9.66231,-1.16311 9.43348,-0.26339 9.6754,-0.32583 10.21521,-2.63639 0.82785,-3.54341 4.03521,-3.5947 5.35971,-0.0857 1.02472,2.71481 1.29621,2.82676 6.79103,2.80048 4.26329,-0.0204 6.25993,-0.4925 7.8256,-1.85039 1.15607,-1.00266 2.34082,-1.58416 2.63275,-1.29222 0.29194,0.29193 -0.0348,0.88037 -0.72615,1.30763 -1.64208,1.01486 -0.21024,1.79369 2.49509,1.35718 1.17147,-0.18902 2.97324,-0.47699 4.00395,-0.63994 1.0307,-0.16294 2.16667,-0.58893 2.52438,-0.94664 1.1698,-1.1698 2.18106,-0.6826 1.61968,0.78032 -0.39284,1.02374 -0.11513,1.2642 0.97635,0.84536 1.8614,-0.71428 2.00755,-4.484 0.231,-5.95839 -0.98451,-0.81708 -1.57879,-0.73152 -2.48251,0.35741 -0.65349,0.7874 -1.80012,1.43164 -2.54808,1.43164 -0.74795,0 -1.09664,0.42599 -0.77486,0.94664 1.03808,1.67964 -1.36133,1.00528 -3.29178,-0.92517 -1.84321,-1.84321 -1.76904,-3.81308 0.24139,-6.41131 0.63154,-0.81619 0.51253,-1.18732 -0.38361,-1.19623 -0.71457,-0.007 -2.18315,-0.25029 -3.26351,-0.54041 -1.72782,-0.46398 -2.10594,0.10545 -3.14087,4.73 -0.64711,2.89161 -1.54824,5.48718 -2.0025,5.76793 -1.21379,0.75016 -4.85522,-3.50759 -4.28058,-5.00507 0.27018,-0.70408 -0.30519,-3.06197 -1.2786,-5.23978 -0.97341,-2.1778 -2.32953,-6.19608 -3.01358,-8.92951 -0.68406,-2.73343 -1.58921,-4.96988 -2.01143,-4.96988 -0.42222,0 -0.76768,0.42599 -0.76768,0.94665 0,1.61285 -0.0376,1.76179 -1.46742,5.81434 -0.766,2.17108 -1.28168,3.98746 -1.14596,4.03641 0.13573,0.0489 1.20525,0.62509 2.37672,1.28032 1.27545,0.71339 2.12995,0.80833 2.12995,0.23666 0,-0.52506 -0.45113,-0.95466 -1.00252,-0.95466 -0.55138,0 -0.73494,-0.43294 -0.40791,-0.96209 0.86931,-1.40657 2.35707,-0.16653 2.35707,1.9646 0,1.01058 0.42599,1.83741 0.94664,1.83741 1.45078,0 1.12456,2.46045 -0.50559,3.81336 -2.11987,1.75933 -6.43104,-0.6319 -5.76071,-3.19524 0.97617,-3.73285 -1.12689,0.0179 -2.65908,4.74246 -1.54496,4.76391 -3.14162,6.46341 -4.88678,5.20157 -0.47344,-0.34232 -0.8963,-1.36788 -0.93969,-2.27902 -0.0434,-0.91114 -0.14988,-2.50812 -0.23666,-3.54883 -0.25498,-3.05799 -7.08796,-9.4521 -10.22341,-9.56677 -2.48684,-0.091 -2.39706,-0.19667 1.07253,-1.26295 3.08861,-0.9492 3.84384,-1.65013 4.09724,-3.80264 0.38276,-3.25129 -1.38131,-5.43631 -2.7022,-3.34702 -1.28097,2.02615 -1.13741,2.63682 0.73491,3.12611 1.3299,0.34754 1.26381,0.45458 -0.33509,0.54274 -1.09545,0.0604 -3.09979,1.13674 -4.45411,2.39188 -1.35432,1.25513 -3.86596,2.58441 -5.58143,2.95394 -4.38035,0.94357 -7.98913,2.93489 -8.70646,4.80422 -0.33567,0.87475 -0.40713,1.79365 -0.1588,2.04198 0.96844,0.96844 5.54234,-0.91567 7.59209,-3.12739 2.56172,-2.76414 3.36067,-2.91764 3.36067,-0.64567 0,2.32767 2.64762,5.89049 4.37737,5.89049 1.86379,0 0.84348,-3.57138 -1.71748,-6.0117 -2.91483,-2.77751 -1.21904,-2.94953 2.33717,-0.23708 1.77546,1.35422 3.82689,2.50467 4.55873,2.55657 0.73183,0.0519 0.26563,0.40167 -1.036,0.77728 -2.29984,0.66365 -2.25475,0.74081 1.59857,2.73519 2.80522,1.45191 3.92323,2.60916 3.82178,3.95593 -0.15415,2.04641 -0.43328,2.12853 -8.14509,2.39634 -3.6092,0.12533 -5.34526,0.63052 -5.96356,1.73535 -0.66544,1.18907 -2.28234,1.55855 -6.82057,1.55855 -3.2716,0 -6.22481,-0.27644 -6.56268,-0.61432 z m 76.97683,-2.69893 c 0.64815,-0.78098 0.80681,-1.47433 0.35257,-1.54078 -4.63538,-0.67808 -5.01369,-0.56665 -4.06903,1.19847 1.14155,2.133 2.153,2.22616 3.71646,0.34231 z m -70.45837,-0.3657 c -0.2852,-0.46146 0.3715,-1.07177 1.45934,-1.35625 1.09138,-0.2854 1.6973,-0.97122 1.35187,-1.53015 -0.4368,-0.70675 -1.18092,-0.71594 -2.46186,-0.0304 -1.93662,1.03645 -2.53999,3.75583 -0.83332,3.75583 0.55138,0 0.76916,-0.37756 0.48397,-0.83902 z m 13.58818,-1.86206 c 2.8242,-0.0844 5.36779,-0.38626 5.65244,-0.67091 1.23726,-1.23726 -2.6104,-2.31362 -6.39189,-1.78808 -2.33779,0.32489 -3.8978,0.20667 -3.60139,-0.27293 0.28761,-0.46536 -0.73187,-1.58734 -2.26552,-2.49329 -2.28703,-1.35099 -2.78845,-1.40306 -2.78845,-0.28961 0,0.74667 0.63899,1.88789 1.41997,2.53604 0.78098,0.64816 1.41996,1.5523 1.41996,2.0092 0,0.4569 -0.63898,0.83073 -1.41996,0.83073 -0.78098,0 -1.41997,0.6488 -1.41997,1.44179 0,1.24799 0.28629,1.26763 2.12995,0.14611 1.17147,-0.71261 4.44065,-1.36469 7.26486,-1.44905 z m -16.96795,-2.03214 c 0,-1.56196 -0.16464,-2.83992 -0.36588,-2.83992 -0.20123,0 -0.55344,1.27796 -0.78269,2.83992 -0.22924,1.56196 -0.0646,2.83993 0.36588,2.83993 0.43048,0 0.78269,-1.27797 0.78269,-2.83993 z m 75.41588,-0.38487 c 0,-0.68753 -0.78098,-1.73778 -1.73552,-2.3339 -1.08133,-0.6753 -1.73551,-0.72399 -1.73551,-0.12918 0,0.52507 0.53249,0.9883 1.18331,1.0294 0.87946,0.0556 0.89311,0.19279 0.0532,0.53449 -1.50633,0.61279 -0.46778,3.18621 1.05069,2.60352 0.65112,-0.24986 1.18385,-1.01681 1.18385,-1.70433 z m -13.36558,-2.11996 c 1.27678,-1.37766 2.32141,-3.10676 2.32141,-3.84244 0,-0.73568 0.42599,-1.07433 0.94664,-0.75255 0.52066,0.32179 0.94665,1.5397 0.94665,2.70647 0,2.10606 1.57711,4.39335 3.02925,4.39335 1.29888,0 0.82906,-4.20952 -0.71602,-6.41543 l -1.47334,-2.10348 3.40704,2.0102 c 1.87388,1.10562 3.69328,1.72397 4.04313,1.37413 1.04657,-1.04657 -1.20506,-3.77225 -3.64644,-4.41414 l -2.27702,-0.59867 2.51131,-1.02109 c 1.38123,-0.5616 2.79269,-1.47636 3.13659,-2.03281 0.95588,-1.54665 -1.92851,-2.22896 -4.22562,-0.99959 -1.86694,0.99916 -1.95302,0.93072 -1.02061,-0.81151 1.23865,-2.31444 1.33752,-5.81375 0.16426,-5.81375 -0.99462,0 -2.93253,5.13486 -2.93253,7.77027 0,0.99435 0.42599,1.54462 0.94664,1.22284 0.52065,-0.32178 0.94664,-0.35786 0.94664,-0.0802 0,0.27768 -1.17147,1.1495 -2.60327,1.93737 -4.77201,2.62589 -9.04093,6.92242 -8.43828,8.49289 0.82022,2.13748 2.28717,1.83363 4.93357,-1.02189 z m 0.42813,-6.95041 c 0,-0.5145 -1.73048,-1.21217 -3.84549,-1.55037 -2.65858,-0.42512 -3.54208,-0.91833 -2.86246,-1.59796 0.67962,-0.67962 0.67265,-1.35702 -0.0226,-2.19473 -0.55309,-0.66643 -0.73081,-1.65634 -0.39493,-2.1998 0.77849,-1.25962 4.93397,-1.28982 5.70549,-0.0415 0.32178,0.52065 1.1989,0.94664 1.94915,0.94664 0.75026,0 1.3641,-0.42599 1.3641,-0.94664 0,-0.52066 -0.63898,-0.94665 -1.41996,-0.94665 -0.88354,0 -1.41997,-0.89405 -1.41997,-2.3666 0,-1.6173 -0.52452,-2.3712 -1.65662,-2.38111 -0.9355,-0.008 -1.24456,-0.31724 -0.70998,-0.70998 0.52065,-0.38252 0.94664,-1.29897 0.94664,-2.03656 0,-2.90061 2.2511,-1.87273 3.34796,1.52871 1.67772,5.20273 1.87105,5.3625 3.87981,3.20636 1.49676,-1.60658 2.13723,-1.75782 3.59325,-0.84852 1.18512,0.74011 1.63448,1.86411 1.357,3.39429 -0.28472,1.57014 -0.0327,2.16013 0.80339,1.88089 1.388,-0.46357 1.82584,-6.57343 0.60641,-8.4622 -0.60005,-0.92942 -0.99251,-0.96782 -1.52412,-0.14913 -0.53926,0.83046 -1.11975,0.80736 -2.3519,-0.0936 -0.89975,-0.65792 -1.38806,-1.44406 -1.08514,-1.74698 0.30292,-0.30292 -1.22815,-1.08375 -3.40237,-1.73516 -2.39294,-0.71694 -4.20399,-0.83624 -4.58872,-0.30227 -0.34956,0.48516 -1.27456,0.88211 -2.05554,0.88211 -0.88316,0 -1.52796,1.07361 -1.70563,2.83993 -0.15712,1.56196 -0.88485,4.14487 -1.61718,5.7398 -0.73233,1.59492 -1.6167,4.68335 -1.96527,6.86316 l -0.63376,3.96329 h 4.85421 c 2.66981,0 4.85421,-0.42096 4.85421,-0.93546 z m -40.58337,-3.10749 c -1.57603,-1.57603 -2.46864,-0.0102 -1.00176,1.75727 0.88718,1.06898 1.40027,1.19664 1.66136,0.41337 0.20777,-0.62331 -0.0891,-1.60009 -0.6596,-2.17064 z m -22.19504,0.0789 c -0.30219,-0.75516 -0.5265,-0.53085 -0.57193,0.57193 -0.0411,0.99792 0.18264,1.55703 0.4972,1.24247 0.31456,-0.31456 0.34819,-1.13104 0.0747,-1.8144 z m 34.16331,-2.66243 c 1.03025,-4.05884 0.70873,-4.45915 -1.95743,-2.43714 -1.22713,0.93065 -1.52769,1.97543 -1.08068,3.75646 0.88126,3.51124 1.92729,3.057 3.03811,-1.31932 z m 29.53312,1.83981 c -1.21075,-2.26231 -2.94835,-3.09767 -5.35929,-2.57652 -1.36747,0.2956 -1.04527,0.78717 1.60134,2.44313 4.13623,2.58801 5.08973,2.62185 3.75795,0.13339 z m -51.54197,-1.26636 c 0.81678,-1.24657 1.70857,-3.909 1.98176,-5.91652 0.46765,-3.43647 0.40973,-3.54252 -0.98991,-1.81248 -0.81764,1.01066 -1.48662,2.60812 -1.48662,3.54991 0,0.9418 -0.42599,1.71236 -0.94664,1.71236 -0.52065,0 -0.96019,-0.95848 -0.97675,-2.12995 -0.0345,-2.44172 -2.03294,-5.4432 -3.62416,-5.4432 -1.54018,0 -1.30978,1.76618 0.85195,6.53079 2.15087,4.74067 1.98672,5.69552 -0.50568,2.94144 -1.91062,-2.11121 -7.52571,-2.69603 -6.87254,-0.71578 0.58214,1.76491 4.56759,3.52014 8.02877,3.53595 2.18735,0.01 3.47645,-0.62962 4.53982,-2.25252 z m 39.61422,0.13653 c 1.04523,-3.90029 0.6777,-5.44319 -1.29663,-5.44319 -2.08155,0 -2.16526,0.29677 -1.30164,4.61488 0.69494,3.47471 1.79507,3.82543 2.59827,0.82831 z m -48.00101,-5.91651 c 0.16651,-0.52066 -0.7586,-1.43905 -2.05579,-2.04089 -2.17314,-1.00822 -2.35854,-0.91002 -2.35854,1.24915 0,1.8669 0.41801,2.28187 2.0558,2.04088 1.13068,-0.16638 2.19203,-0.72849 2.35853,-1.24914 z m 30.94654,-0.90145 c 2.65318,-2.45888 3.33124,-5.25173 1.27504,-5.25173 -0.67638,0 -1.75885,1.46309 -2.40549,3.25132 -0.64663,1.78823 -1.90368,3.44277 -2.79343,3.67676 -1.37036,0.36038 -1.38555,0.44223 -0.0994,0.53525 0.83511,0.0604 2.64557,-0.93482 4.02323,-2.2116 z m -2.51396,-3.8049 c -0.4554,-2.8063 -0.31479,-3.01138 1.78895,-2.60922 2.52726,0.48311 2.75181,0.0202 1.30326,-2.68642 -0.53898,-1.00708 -1.92344,-1.85805 -3.07659,-1.89105 l -2.09664,-0.06 2.12994,-0.85613 c 2.3465,-0.94318 2.38922,-1.03329 1.53967,-3.24719 -0.54055,-1.40866 -0.73995,-1.40282 -2.36661,0.0693 -1.6915,1.53079 -1.77632,1.49658 -1.77632,-0.71645 0,-1.27819 0.42534,-2.74933 0.9452,-3.2692 0.62917,-0.62917 0.12398,-3.77844 -1.51098,-9.41909 -3.0105,-10.38632 -3.00709,-10.3807 -5.14022,-8.45024 -1.08786,0.9845 -2.46044,1.33559 -3.69259,0.94452 -2.65463,-0.84254 -2.50664,-2.33971 0.16882,-1.70789 2.10131,0.49624 2.10449,0.48273 0.23666,-1.00516 -1.44282,-1.14932 -1.55543,-1.52249 -0.47332,-1.56837 1.09025,-0.0462 0.99329,-0.38294 -0.41759,-1.45007 -1.01066,-0.76442 -1.57799,-1.38986 -1.26073,-1.38986 0.31726,0 1.25065,-0.25857 2.07422,-0.5746 0.9383,-0.36006 1.49738,-0.0655 1.49738,0.78887 0,0.74991 0.63899,1.36347 1.41997,1.36347 0.78098,0 1.41996,-0.32457 1.41996,-0.72125 0,-1.01438 -2.79651,-3.69642 -3.85419,-3.69642 -0.48346,0 -0.87902,-0.39281 -0.87902,-0.87292 0,-0.48011 4.0469,-0.88122 8.9931,-0.89136 4.94621,-0.0101 8.99311,0.18021 8.99311,0.42303 0,0.24281 -1.06497,0.84637 -2.36661,1.34125 -5.71076,2.17123 0.22901,11.40434 6.55821,10.19443 1.41618,-0.27071 2.46281,-0.0253 2.5016,0.58657 0.0367,0.57862 0.69275,-0.65192 1.45791,-2.73454 1.55834,-4.24148 1.05269,-8.04646 -1.06932,-8.04646 -0.77106,0 -1.40193,-0.36682 -1.40193,-0.81516 0,-1.11358 11.62557,-2.1062 12.66759,-1.0816 0.47596,0.46801 -0.62813,1.43176 -2.56958,2.24295 -2.43285,1.01651 -3.57135,2.18291 -3.99021,4.08798 -0.32234,1.46611 -0.75012,3.19814 -0.95062,3.84896 -0.4441,1.44153 0.0869,1.48311 2.49337,0.19523 1.53006,-0.81887 1.98951,-0.61623 2.68288,1.1833 0.77012,1.99872 0.89279,2.03206 1.54273,0.41921 0.44961,-1.11574 0.22617,-2.0613 -0.61517,-2.60327 -1.11904,-0.72085 -1.10393,-1.00547 0.0987,-1.85975 1.12017,-0.7957 0.97027,-0.88217 -0.70998,-0.40953 -2.79983,0.78755 -2.69725,0.11435 0.27981,-1.83629 2.64613,-1.73381 7.54406,-1.15732 5.0518,0.5946 -0.92106,0.64746 -0.53774,0.7516 1.29489,0.3518 1.58129,-0.34498 2.60327,-0.16729 2.60327,0.45262 0,0.5613 0.42599,0.75727 0.94664,0.43549 0.52065,-0.32179 0.94664,-1.63554 0.94664,-2.91947 0,-1.86937 -0.60405,-2.45521 -3.03228,-2.94086 -2.59213,-0.51842 -2.76389,-0.71144 -1.1833,-1.32976 1.01694,-0.39782 4.08542,-0.75325 6.81885,-0.78984 2.73343,-0.0366 4.96988,-0.49253 4.96988,-1.01318 0,-0.54029 -2.82425,-0.94664 -6.57947,-0.94664 -5.26747,0 -6.77186,0.33034 -7.54435,1.65662 -0.86085,1.47799 -0.968,1.4881 -0.99368,0.0938 -0.0263,-1.42762 -2.54726,-1.52584 -29.13806,-1.13528 -16.47778,0.24202 -29.4995,0.81749 -30.00857,1.32617 -0.56754,0.5671 3.0994,0.90638 9.93975,0.91966 10.72963,0.0208 10.81611,0.0387 8.56587,1.76874 -2.43271,1.87035 -2.43602,4.13128 -0.0147,10.04325 0.63973,1.56196 1.20842,3.26591 1.26377,3.78657 0.2932,2.75819 3.68224,10.88639 4.53906,10.88639 3.12571,0 6.24268,8.73826 3.44912,9.66945 -0.81209,0.2707 -0.81209,0.86585 0,2.38326 0.59532,1.11236 1.08239,2.80766 1.08239,3.76735 0,2.39221 2.74554,6.1228 3.95568,5.37489 0.54241,-0.33523 0.76379,-1.98006 0.49195,-3.65519 z m -5.17733,-18.6639 c 0.20609,-0.61827 0.88086,-1.29285 1.49949,-1.49906 0.69176,-0.23059 0.90332,0.20219 0.54954,1.12414 -0.66031,1.72072 -2.61698,2.07875 -2.04903,0.37492 z m -8.19799,20.8978 c 0.35775,-0.57886 0.2764,-1.32434 -0.1808,-1.65662 -0.45719,-0.33228 -0.87386,-1.13663 -0.92592,-1.78745 -0.0521,-0.65082 -0.15857,-2.03528 -0.23666,-3.07659 -0.0781,-1.04131 -0.64703,-1.89329 -1.26429,-1.89329 -1.84869,0 -5.50421,3.97921 -5.50421,5.99159 0,1.75933 0.10723,1.77795 1.73837,0.30179 1.63628,-1.48081 1.80186,-1.43384 2.81963,0.79993 1.15448,2.5338 2.496,3.03232 3.55388,1.32064 z m 32.59376,-0.40898 c 0,-0.83545 0.66355,-1.34231 1.54909,-1.1833 0.88433,0.15879 1.66086,-0.43276 1.80953,-1.37847 0.16796,-1.06846 -0.35385,-1.65662 -1.46975,-1.65662 -1.00991,0 -2.2507,-1.17594 -2.98053,-2.82475 -1.78957,-4.04292 -4.06062,-4.71377 -3.31363,-0.97883 0.32308,1.61538 0.17028,2.85693 -0.35159,2.85693 -0.50764,0 -0.92298,0.85198 -0.92298,1.89329 0,1.29977 0.6677,1.92771 2.12995,2.00309 1.80489,0.0931 1.85615,0.17992 0.33592,0.5692 -1.44148,0.36911 -1.53449,0.62372 -0.47332,1.29566 2.03374,1.28777 3.68731,1.0204 3.68731,-0.5962 z m -49.80459,-3.44302 c 0.53221,0.86115 1.17736,0.86438 2.76656,0.0139 1.13988,-0.61004 2.27484,-1.00523 2.52215,-0.8782 0.24731,0.12703 0.60231,-0.22698 0.78887,-0.78668 0.45474,-1.36422 -2.94135,-1.30277 -4.32232,0.0782 -0.83004,0.83004 -1.45001,0.80192 -2.55594,-0.11591 -1.25953,-1.04533 -1.45094,-0.83828 -1.39355,1.50741 0.0548,2.24002 0.19285,2.39663 0.78335,0.88873 0.49403,-1.26156 0.93252,-1.48142 1.41088,-0.70742 z m 9.67285,-5.71567 c -0.47918,-2.39593 -0.36288,-2.80048 0.54432,-1.89328 1.40166,1.40166 4.56164,1.52888 4.56164,0.18365 0,-0.53354 -1.17147,-1.45257 -2.60327,-2.04228 -2.05606,-0.84683 -2.25505,-1.15497 -0.94664,-1.46595 2.46334,-0.58548 1.74847,-3.1821 -1.18331,-4.29813 -1.13104,-0.43055 -1.08289,-0.55573 0.23666,-0.61526 2.04106,-0.0921 2.181,-1.82622 0.20845,-2.58316 -0.91183,-0.3499 -1.2395,-1.21318 -0.88474,-2.33094 0.44625,-1.40598 0.20599,-1.64904 -1.15509,-1.16853 -1.32566,0.46799 -1.47305,0.34018 -0.64472,-0.55911 1.18838,-1.29019 0.60061,-5.06171 -0.66676,-4.27843 -0.43873,0.27115 -0.55771,1.11834 -0.26442,1.88264 0.31096,0.81037 -0.0144,1.38965 -0.78045,1.38965 -0.72254,0 -1.79608,1.27797 -2.38566,2.83993 -0.58957,1.56196 -0.68296,2.83993 -0.20754,2.83993 0.47543,0 0.86442,-0.6426 0.86442,-1.42799 0,-1.12496 0.35154,-1.20736 1.65662,-0.38831 1.14575,0.71907 1.74127,2.50881 1.93111,5.80368 0.24584,4.26679 0.0976,4.68853 -1.41997,4.04099 -3.11543,-1.32932 -6.67011,-1.59464 -7.31806,-0.54622 -0.41407,0.66997 0.43374,1.03763 2.39273,1.03763 h 3.03403 l -2.72852,2.52871 c -1.84511,1.70998 -2.32769,2.66231 -1.49053,2.94137 0.6809,0.22696 2.27252,-0.55922 3.53693,-1.74708 1.68019,-1.57845 2.29894,-1.78411 2.29894,-0.76409 0,1.56176 1.80726,3.66759 3.14759,3.66759 0.4816,0 0.60141,-1.37115 0.26624,-3.04701 z m 42.80442,0.83862 c 0.18116,-0.93411 -0.30175,-1.57818 -1.18331,-1.57818 -0.87813,0 -1.48937,0.80937 -1.48937,1.97217 0,2.30701 2.21209,1.98092 2.67268,-0.39399 z m 14.78448,-0.18832 c 2.37542,-1.79668 4.6783,-1.80712 3.99179,-0.0181 -0.35182,0.91684 -0.0715,1.19719 0.84537,0.84536 1.68418,-0.64628 1.93049,-11.71064 0.32737,-14.70609 -0.65461,-1.22316 -0.705,-2.17148 -0.13502,-2.54103 0.50015,-0.32428 0.91719,-4.95599 0.92676,-10.29268 0.0138,-7.71752 -0.25518,-9.70309 -1.31465,-9.70309 -0.73263,0 -1.57726,0.63898 -1.87695,1.41996 -0.29969,0.78098 -1.03431,1.41997 -1.63249,1.41997 -1.45814,0 -3.09317,3.90904 -4.75139,11.35971 -0.7532,3.38425 -2.29283,9.27768 -3.4214,13.09652 -1.12857,3.81883 -1.83753,7.15776 -1.57545,7.41984 0.60046,0.60046 6.30519,-3.56279 6.30519,-4.60146 0,-0.42274 -0.4547,-0.76862 -1.01044,-0.76862 -0.61999,0 -0.74539,-0.82303 -0.32453,-2.12994 0.37725,-1.17147 0.68995,-2.66861 0.69489,-3.32697 0.005,-0.72875 0.6879,-0.98154 1.74449,-0.64619 0.95453,0.30296 1.73551,0.13602 1.73551,-0.37098 0,-0.507 0.85198,-0.69901 1.89329,-0.4267 1.48326,0.38788 1.89329,1.29123 1.89329,4.17126 0,2.59781 -0.40687,3.67617 -1.38703,3.67617 -1.56644,0 -8.0794,5.42079 -8.0794,6.72456 0,1.30991 3.10275,0.94758 5.1508,-0.60149 z m 2.24484,-24.75595 c 0.68336,-0.27346 1.49984,-0.23983 1.8144,0.0747 0.31456,0.31456 -0.24455,0.5383 -1.24247,0.49719 -1.10278,-0.0454 -1.32709,-0.26974 -0.57193,-0.57193 z m -2.18911,-2.19326 c -0.32178,-0.52066 -0.13392,-0.94665 0.41746,-0.94665 0.55138,0 1.00251,0.42599 1.00251,0.94665 0,0.52065 -0.18786,0.94664 -0.41746,0.94664 -0.2296,0 -0.68073,-0.42599 -1.00251,-0.94664 z m -68.3009,25.05571 c -0.7509,-1.95682 -1.27734,-1.72622 -1.27734,0.55951 0,1.07203 0.40738,1.69737 0.9053,1.38964 0.49791,-0.30772 0.66533,-1.18484 0.37204,-1.94915 z m 56.46787,1.16645 c 0,-0.67676 -1.16816,-3.03205 -2.59592,-5.23397 -2.18855,-3.37524 -2.76199,-3.77635 -3.65427,-2.55609 -1.1609,1.58762 -3.75134,1.9325 -4.56969,0.60837 -0.2852,-0.46146 0.38084,-1.07421 1.48009,-1.36167 1.60096,-0.41866 1.91658,-1.08178 1.58622,-3.33265 -0.40069,-2.73011 -0.31964,-2.79494 2.85098,-2.28042 2.53114,0.41075 3.1654,0.23164 2.82668,-0.7982 -0.24019,-0.73028 -1.57533,-1.46258 -2.96697,-1.62732 -2.9686,-0.35143 -2.97122,-0.36174 -1.0405,-4.09534 1.7149,-3.31625 1.36384,-4.08397 -1.45799,-3.18835 -1.39933,0.44413 -1.8397,1.15434 -1.45917,2.35329 0.30476,0.96021 -0.12171,2.38391 -0.96744,3.22964 -0.83185,0.83185 -1.23219,1.96592 -0.88965,2.52016 0.84044,1.35987 -0.34569,5.84171 -1.37729,5.20414 -1.06587,-0.65874 -1.96473,1.74958 -1.96473,5.26412 0,2.78129 0.005,2.78395 2.79292,1.34254 3.53779,-1.82946 3.51107,-1.83317 4.14057,0.57404 0.39816,1.52259 1.03226,1.8864 2.58166,1.48123 1.50425,-0.39337 2.18206,-0.0469 2.53294,1.29493 0.53709,2.05384 2.15156,2.50523 2.15156,0.60155 z m -30.32268,-3.26608 c -0.0317,-1.74449 -2.09758,-4.96987 -3.18323,-4.96987 -0.79666,0 -0.30862,3.85054 0.68991,5.44319 1.08002,1.72265 2.52823,1.44773 2.49332,-0.47332 z M 274.3454,147.8359 c 1.75453,-3.99788 1.68363,-4.24689 -1.01628,-3.56926 -1.92623,0.48345 -2.42863,0.17237 -2.92674,-1.81223 -0.39885,-1.58915 -1.06586,-2.21761 -1.98095,-1.86646 -1.7484,0.67093 -1.25471,3.60444 0.6066,3.60444 1.87991,0 2.24038,2.47671 0.67254,4.62085 -1.07898,1.4756 -1.04674,2.22232 0.2093,4.84731 l 1.48477,3.10301 0.82081,-2.97234 c 0.45146,-1.63478 1.40993,-4.31468 2.12995,-5.95532 z m -58.23827,-2.37513 c -1.15831,-0.42848 -1.82256,-1.2377 -1.47612,-1.79825 0.34644,-0.56055 1.13874,-0.82392 1.76066,-0.58527 0.68519,0.26294 1.20967,-0.60147 1.33099,-2.19363 0.16903,-2.21836 -0.21418,-2.68837 -2.46074,-3.0181 -2.5004,-0.36698 -2.65788,-0.18646 -2.61004,2.99182 0.0565,3.75341 2.15758,6.68861 4.22106,5.89677 0.96818,-0.37152 0.7556,-0.73053 -0.76581,-1.29334 z m -1.21523,-4.28167 c 0.68336,-0.27346 1.49984,-0.23983 1.8144,0.0747 0.31456,0.31456 -0.24455,0.5383 -1.24247,0.49719 -1.10279,-0.0454 -1.3271,-0.26973 -0.57193,-0.57193 z m 41.49071,3.21117 c -0.74757,-2.97857 -4.19531,-7.29772 -5.82536,-7.29772 -2.12066,0 1.18689,8.48623 3.67487,9.42866 2.547,0.96478 2.85169,0.66286 2.15049,-2.13094 z m 2.23235,-4.01418 c 0,-1.43235 -2.49584,-2.99653 -3.37636,-2.11601 -0.25013,0.25012 -0.18618,1.15473 0.14211,2.01023 0.75316,1.9627 3.23425,2.04385 3.23425,0.10578 z m 18.71592,-2.1594 c 0.20609,-0.61828 -0.29977,-1.12414 -1.12414,-1.12414 -0.82437,0 -1.49885,0.67448 -1.49885,1.49885 0,1.6717 2.03789,1.38058 2.62299,-0.37471 z m -2.14967,-3.01742 c 0.32178,-0.52066 -0.0539,-0.94665 -0.83491,-0.94665 -0.78098,0 -1.68324,0.42599 -2.00502,0.94665 -0.32178,0.52065 0.0539,0.94664 0.83491,0.94664 0.78098,0 1.68324,-0.42599 2.00502,-0.94664 z m -22.24611,60.55542 c 0,-0.50431 0.63899,-0.91693 1.41997,-0.91693 0.78098,0 1.41996,0.16742 1.41996,0.37204 0,0.20462 -0.63898,0.61724 -1.41996,0.91693 -0.78098,0.29969 -1.41997,0.13227 -1.41997,-0.37204 z m -41.57754,-64.8942 c 0.0454,-1.10279 0.26973,-1.3271 0.57193,-0.57193 0.27346,0.68335 0.23982,1.49983 -0.0747,1.8144 -0.31456,0.31456 -0.5383,-0.24455 -0.4972,-1.24247 z"
       id="path406" />
  </g>
</svg>
