<?xml version="1.0" encoding="UTF-8" standalone="no"?>
<!-- Created with Inkscape (http://www.inkscape.org/) -->

<svg
   width="90.505219mm"
   height="90.222702mm"
   viewBox="0 0 90.505221 90.222701"
   version="1.1"
   id="svg5"
   inkscape:version="1.1 (c4e8f9ed74, 2021-05-24)"
   sodipodi:docname="ornatet.svg"
   xmlns:inkscape="http://www.inkscape.org/namespaces/inkscape"
   xmlns:sodipodi="http://sodipodi.sourceforge.net/DTD/sodipodi-0.dtd"
   xmlns="http://www.w3.org/2000/svg"
   xmlns:svg="http://www.w3.org/2000/svg">
  <sodipodi:namedview
     id="namedview7"
     pagecolor="#ffffff"
     bordercolor="#666666"
     borderopacity="1.0"
     inkscape:pageshadow="2"
     inkscape:pageopacity="0.0"
     inkscape:pagecheckerboard="0"
     inkscape:document-units="mm"
     showgrid="false"
     inkscape:zoom="0.66903058"
     inkscape:cx="-57.545949"
     inkscape:cy="326.59195"
     inkscape:window-width="2506"
     inkscape:window-height="1403"
     inkscape:window-x="1974"
     inkscape:window-y="0"
     inkscape:window-maximized="1"
     inkscape:current-layer="layer1" />
  <defs
     id="defs2" />
  <g
     inkscape:label="Layer 1"
     inkscape:groupmode="layer"
     id="layer1"
     transform="translate(39.73764,-222.77347)">
    <path
       style="fill:#000000;stroke-width:0.264583"
       d="m -38.729378,312.49545 c -0.43336,-0.43942 -0.46302,-1.85367 -0.46302,-22.07699 0,-14.22861 -0.0904,-21.60749 -0.26459,-21.60749 -0.14552,0 -0.26458,-0.17859 -0.26458,-0.39688 0,-0.21828 0.14883,-0.39869 0.33073,-0.40092 0.22422,-0.003 0.20292,-0.0944 -0.0661,-0.28473 -0.29866,-0.21122 -0.31503,-0.31388 -0.0661,-0.41487 0.39271,-0.15935 0.44693,-0.88385 0.0661,-0.88385 -0.14552,0 -0.26458,-0.35719 -0.26458,-0.79375 0,-0.43656 0.11906,-0.79375 0.26458,-0.79375 0.14552,0 0.26459,-0.47625 0.26459,-1.05833 0,-0.58209 -0.11907,-1.05834 -0.26459,-1.05834 -0.14552,0 -0.26458,-0.65484 -0.26458,-1.45521 0,-0.80036 0.11906,-1.4552 0.26458,-1.4552 0.14552,0 0.26459,-0.41672 0.26459,-0.92605 0,-0.50932 -0.11907,-0.92604 -0.26459,-0.92604 -0.14552,0 -0.26458,-0.35718 -0.26458,-0.79375 0,-0.43656 0.11906,-0.79375 0.26458,-0.79375 0.14552,0 0.26459,-0.65484 0.26459,-1.45521 0,-0.80036 -0.11907,-1.4552 -0.26459,-1.4552 -0.41506,0 -0.35039,-7.32961 0.0661,-7.49769 0.26458,-0.10676 0.26458,-0.13763 0,-0.15434 -0.45297,-0.0286 -0.45297,-2.83017 0,-3.04155 0.26458,-0.12347 0.26458,-0.18521 0,-0.30868 -0.25494,-0.11897 -0.33073,-2.18696 -0.33073,-9.0239 v -8.86956 l 0.66146,-0.5203 c 0.3638,-0.28617 0.66146,-0.69026 0.66146,-0.89798 0,-0.32381 2.82969,-0.37767 19.84375,-0.37767 13.0527699,0 19.8437479,0.0906 19.8437479,0.26458 0,0.15434 0.881944,0.26459 2.116667,0.26459 1.234723,0 2.116667,-0.11025 2.116667,-0.26459 0,-0.14552 0.238125,-0.26458 0.529166,-0.26458 0.291042,0 0.529167,0.11906 0.529167,0.26458 0,0.15679 0.97014,0.26459 2.38125,0.26459 1.4111101,0 2.3812501,-0.1078 2.3812501,-0.26459 0,-0.14552 0.178594,-0.26458 0.396875,-0.26458 0.218281,0 0.396875,0.11906 0.396875,0.26458 0,0.15564 0.926042,0.26459 2.248958,0.26459 1.322917,0 2.248959,-0.10895 2.248959,-0.26459 0,-0.17233 4.012848,-0.26458 11.509375,-0.26458 7.496527,0 11.509376,0.0922 11.509376,0.26458 0,0.3833 1.250349,0.32559 1.43316,-0.0661 0.123471,-0.26459 0.185209,-0.26459 0.308679,0 0.187918,0.40268 3.549827,0.46532 3.549827,0.0661 0,-0.14552 0.178594,-0.26458 0.396875,-0.26458 0.218282,0 0.396876,0.11906 0.396876,0.26458 0,0.14552 0.178593,0.26459 0.396875,0.26459 0.218281,0 0.396875,-0.11907 0.396875,-0.26459 0,-0.14552 0.535781,-0.26458 1.190625,-0.26458 0.654843,0 1.190625,0.0908 1.190625,0.20184 0,0.11102 0.26789,0.31938 0.595312,0.46302 0.583401,0.25596 0.596757,0.36162 0.667512,5.28109 0.04042,2.81034 0.185997,5.1337 0.330729,5.27844 0.350766,0.35076 0.345012,11.18051 -0.0061,11.39748 -0.172312,0.1065 -0.264583,6.6238 -0.264583,18.68814 0,17.50008 -0.02561,18.51969 -0.463021,18.43546 -0.437062,-0.0842 -0.466796,-1.68953 -0.530357,-28.63487 -0.0485,-20.55935 -0.150093,-28.64542 -0.363128,-28.90211 -0.222138,-0.26766 -1.226502,-0.35742 -4.033702,-0.36046 -2.055855,-0.002 -3.874731,-0.0915 -4.041947,-0.19844 -0.167212,-0.10691 -1.457421,-0.13485 -2.867123,-0.0621 -1.409703,0.0728 -2.596505,0.0985 -2.637338,0.0572 -0.07497,-0.0758 -9.671741,-0.0211 -21.552485,0.12291 -3.552394,0.043 -6.5884881,-0.0241 -6.7468761,-0.14925 -0.158387,-0.12514 -0.526102,-0.18179 -0.817144,-0.1259 -0.669782,0.12864 -25.6011689,0.0944 -35.5496889,-0.0488 -4.72527,-0.068 -7.68747,-0.01 -7.99971,0.15737 -0.47705,0.2553 -0.49734,0.97996 -0.53515,19.10973 -0.0216,10.3644 -0.0124,29.73858 0.0205,43.05373 0.0502,20.32032 0.11925,24.27123 0.42986,24.59443 0.30198,0.31423 1.38036,0.38105 5.86253,0.36327 3.02086,-0.012 18.35122,-0.0101 34.0674719,0.004 15.7162511,0.0142 32.4683791,0.0294 37.2269501,0.0336 6.522567,0.006 8.732373,-0.0727 8.978715,-0.3191 0.248106,-0.24816 0.352889,-3.65566 0.435277,-14.15521 0.05968,-7.6056 0.151546,-13.87284 0.204145,-13.9272 0.0526,-0.0544 0.279363,-0.0283 0.50392,0.0578 0.361077,0.13856 0.408286,1.82252 0.408286,14.56313 0,7.92355 -0.07227,14.59479 -0.160599,14.82497 -0.144518,0.37662 -2.197661,0.41853 -20.505209,0.41853 -13.386684,0 -20.3446101,-0.0905 -20.3446101,-0.26459 0,-0.17079 -2.954515,-0.26458 -8.33437503,-0.26458 -5.37986197,0 -8.33437197,0.0938 -8.33437197,0.26458 0,0.14552 -0.23813,0.26459 -0.52917,0.26459 -0.29104,0 -0.52917,-0.11907 -0.52917,-0.26459 0,-0.14552 -0.29765,-0.26458 -0.66145,-0.26458 -0.36381,0 -0.66146,0.11906 -0.66146,0.26458 0,0.1733 -4.9063599,0.25916 -14.2213599,0.24886 -13.25633,-0.0147 -14.25277,-0.0476 -14.68437,-0.48521 z m 1.88272,-2.35834 c -0.43434,-0.30419 -0.49098,-0.70158 -0.47133,-3.30729 0.0123,-1.62886 0.10781,-3.64588 0.21231,-4.48227 0.10449,-0.83639 0.0834,-1.62728 -0.0468,-1.75753 -0.13937,-0.13937 -0.132,-0.43904 0.0179,-0.72825 0.14011,-0.27028 0.21281,-0.67002 0.16155,-0.8883 -0.0513,-0.21828 -0.16835,-0.72231 -0.26022,-1.12007 -0.0919,-0.39775 -0.10728,-0.87892 -0.0342,-1.06925 0.11925,-0.31078 0.5387,-25.08524 0.43553,-25.72422 -0.18933,-1.17252 -0.32723,-44.84123 -0.14304,-45.29534 0.12955,-0.31942 0.42467,-0.65333 0.65581,-0.74203 0.23114,-0.0887 5.72166,-0.1468 12.20114,-0.12912 59.865284,0.16333 71.798641,0.24507 72.047066,0.4935 0.345651,0.34565 0.554516,56.82548 0.210928,57.03783 -0.130154,0.0804 -0.422852,0.0748 -0.650438,-0.0125 -0.372161,-0.14282 -0.408501,-2.94983 -0.36118,-27.89893 0.02894,-15.25708 -0.01013,-27.80287 -0.08679,-27.87955 -0.347679,-0.34768 -13.147612,-0.44746 -55.5110661,-0.43272 l -27.6177799,0.01 0.09,21.23402 c 0.0495,11.67872 0.0561,30.16372 0.0146,41.07778 -0.0415,10.91406 0.002,20.0429 0.0977,20.28631 0.0952,0.24341 0.33968,0.5065 0.54331,0.58463 0.57065,0.21898 81.677399,0.24169 82.22048,0.023 0.452837,-0.18233 0.476771,-0.8681 0.446458,-12.79227 -0.01762,-6.92979 -0.02458,-12.80797 -0.01548,-13.06263 0.0093,-0.25963 0.221475,-0.46302 0.483037,-0.46302 0.425661,0 0.473363,0.42247 0.545192,4.82864 0.0433,2.65576 -0.0029,8.83856 -0.10269,13.73956 l -0.181409,8.9109 -42.2034561,-0.0474 c -34.2518019,-0.0384 -42.2964619,-0.11251 -42.6971119,-0.3931 z m 61.154259,-1.67562 c 0,-0.50034 -0.642229,-1.25437 -1.088099,-1.27752 -0.08913,-0.005 -0.611516,0.34877 -1.16086,0.78533 -1.525394,1.21223 -2.520492,1.01322 -1.984383,-0.39685 0.385482,-1.0139 -0.145647,-1.95748 -2.647143,-4.70282 -1.163441,-1.27685 -2.115349,-2.45029 -2.115349,-2.60764 0,-0.15735 -0.286509,-0.62659 -0.636685,-1.04275 -0.350179,-0.41616 -0.975114,-1.74304 -1.388745,-2.94861 -0.752057,-2.19195 -0.752057,-2.19195 -0.752377,-9.53412 -2.2e-4,-5.06297 0.08803,-7.34217 0.284292,-7.34218 0.156533,-2e-5 0.56424,0.29763 0.906015,0.66143 0.341776,0.3638 0.750348,0.66146 0.907944,0.66146 0.270328,0 1.737876,-2.18749 1.7379,-2.59047 8e-6,-0.10321 -0.437107,-0.55465 -0.971367,-1.0032 -1.128186,-0.9472 -1.072664,-1.55568 0.166793,-1.82791 1.149255,-0.25242 2.926403,-1.29016 3.836863,-2.24047 0.423979,-0.44254 0.972781,-0.80462 1.21956,-0.80462 0.283729,0 0.700924,-0.53272 1.134758,-1.449 0.510477,-1.07814 0.907781,-1.54167 1.552329,-1.81109 0.476444,-0.19916 1.043107,-0.57533 1.259253,-0.83595 0.216146,-0.26061 0.845571,-0.75955 1.398728,-1.10874 0.553154,-0.34919 1.477637,-1.06123 2.054405,-1.5823 0.8739,-0.78952 1.048668,-1.11605 1.048668,-1.95934 0,-0.55656 0.138345,-1.09743 0.307433,-1.20193 0.447204,-0.27639 1.280067,0.87888 1.280067,1.77558 0,1.06768 0.585523,0.97082 1.376852,-0.22775 2.207546,-3.34361 3.635079,-6.2919 3.643535,-7.52501 0.0037,-0.53711 0.125759,-1.05015 0.27128,-1.14009 0.358105,-0.22132 0.337693,-3.12835 -0.0245,-3.49055 -0.209071,-0.20908 -0.20602,-0.44433 0.01103,-0.84987 0.250412,-0.4679 0.18892,-0.70656 -0.37128,-1.44102 -0.369268,-0.48414 -0.806725,-1.28637 -0.972129,-1.78274 -0.165423,-0.49637 -0.687057,-1.31921 -1.159206,-1.82853 -0.472149,-0.50932 -1.025991,-1.28323 -1.230754,-1.71979 -0.282554,-0.60241 -0.529574,-0.77936 -1.024713,-0.73403 -0.358825,0.0328 -1.51125,-0.0644 -2.560942,-0.21611 -2.717189,-0.39269 -4.228814,-0.10878 -5.340943,1.00313 -0.525915,0.52581 -1.059593,0.83785 -1.285018,0.75134 -0.550642,-0.2113 -2.369669,1.82189 -3.133748,3.50269 -0.619843,1.36352 -0.857714,3.2336 -0.411309,3.2336 0.375865,0 1.018538,-0.88508 1.201346,-1.65448 0.270915,-1.1402 2.226046,-2.96747 3.734454,-3.49022 0.727604,-0.25215 1.52966,-0.56697 1.782347,-0.69959 0.635823,-0.3337 1.101373,-0.30292 2.11128,0.13959 0.47788,0.20939 1.181931,0.44618 1.564558,0.52619 1.022715,0.21388 3.18502,2.27931 3.913717,3.73838 0.539805,1.08086 0.594905,1.41679 0.370361,2.25804 -0.207256,0.77649 -0.176067,1.13285 0.145537,1.66288 0.380121,0.62647 0.369967,0.71777 -0.142351,1.27972 -0.329597,0.36153 -0.604478,1.10589 -0.68285,1.84911 -0.2852,2.70466 -2.880572,4.96549 -5.706555,4.97098 -0.773552,0.002 -1.642518,0.12907 -1.931038,0.28348 -0.43204,0.23123 -0.687303,0.13788 -1.447019,-0.52916 -1.026605,-0.90137 -1.561481,-1.01756 -1.801763,-0.3914 -0.518466,1.3511 0.532181,2.75648 2.060718,2.75648 1.193531,0 1.356601,0.30697 0.560414,1.05495 -0.520919,0.48938 -0.917366,0.59634 -2.108512,0.56888 -1.157179,-0.0267 -1.466969,0.0519 -1.466969,0.37234 0,1.26594 -2.123183,3.90085 -3.401542,4.22138 -0.881607,0.22105 -1.687896,1.06848 -1.574895,1.65525 0.04748,0.24656 0.382934,0.59616 0.745448,0.77689 0.362513,0.18073 0.647208,0.45161 0.632656,0.60196 -0.01455,0.15034 -0.04432,0.39242 -0.06615,0.53794 -0.02183,0.14552 -0.568717,0.26458 -1.215311,0.26458 -0.914916,0 -1.266957,-0.1304 -1.5875,-0.58804 -0.524285,-0.74852 -0.530529,-2.42449 -0.01199,-3.2159 0.356807,-0.54455 0.356807,-0.73245 0,-1.74375 -0.561387,-1.59114 -0.502136,-2.4661 0.212469,-3.13744 0.793517,-0.74547 1.342242,-0.72582 2.406824,0.0862 0.47697,0.3638 0.945277,0.66146 1.040681,0.66146 0.09541,0 0.173463,-0.46973 0.173463,-1.04384 0,-1.04383 0,-1.04383 -1.256771,-1.12448 -1.053502,-0.0676 -1.25677,-0.16623 -1.25677,-0.60981 0,-0.29104 0.121599,-0.52916 0.270219,-0.52916 0.148621,0 0.614132,-0.25053 1.03447,-0.55672 0.653113,-0.47576 0.815316,-0.85488 1.115428,-2.60714 l 0.351179,-2.05042 -0.922626,-1.57422 c -0.507442,-0.86583 -0.922623,-1.74644 -0.922623,-1.95693 0,-0.81901 -0.545804,-0.31465 -1.232231,1.13866 -0.395214,0.83674 -1.321435,2.15978 -2.058273,2.94008 l -1.339705,1.41873 v 14.58856 c 0,15.5682 0.161623,21.98705 0.607163,24.11356 0.416518,1.98801 1.307082,3.77537 2.737501,5.4942 0.978877,1.17624 1.285545,1.75786 1.285545,2.43814 0,1.78393 0.278286,1.74199 -10.8601971,1.63647 -7.621711,-0.0722 -10.119601,-0.1758 -10.428911,-0.43251 -0.78147,-0.64855 -0.49582,-2.04918 0.74772,-3.66629 1.2488,-1.62396 2.11265,-3.34183 2.41802,-4.80855 0.10604,-0.50932 0.30539,-1.06606 0.44299,-1.23719 0.35207997,-0.43789 0.32035997,-18.97903 -0.0336,-19.64041 -0.18889,-0.35296 -0.18806,-0.53942 0.003,-0.60301 0.18509,-0.0617 0.26946,-3.04544 0.25586,-9.04885 l -0.0203,-8.9568 -1.30298,-1.17149 c -0.73009,-0.65641 -1.61443,-1.80805 -2.01132,-2.61928 -0.87895,-1.7965 -1.06995,-1.92241 -1.27413,-0.83992 -0.089,0.47167 -0.58575,1.56055 -1.10395,2.41974 -0.90508,1.50064 -0.93049,1.61092 -0.64515,2.80033 0.46941,1.95673 1.16744,2.91355 2.12551,2.91355 0.782,0 0.8037,0.0316 0.63591,0.92604 -0.13307,0.70931 -0.0847,0.92604 0.20647,0.92604 0.20911,0 0.66283,0.30084 1.00826,0.66854 0.58803,0.62593 0.60683,0.73975 0.29502,1.78594 -0.63278,2.12312 -0.64418,2.31254 -0.17071,2.83572 0.25343,0.28004 0.52015,1.03586 0.59271,1.6796 0.10703,0.94961 0.0262,1.27611 -0.42816,1.73053 -0.30805,0.30805 -0.73166,0.56009 -0.94135,0.56009 -0.66931,0 -0.77293,-0.58688 -0.18228,-1.03241 0.57091,-0.43064 0.57091,-0.43064 -0.36474,-1.39394 -0.65043,-0.66964 -1.33955,-1.06019 -2.26059,-1.28114 -1.63864,-0.3931 -2.81481,-1.49669 -3.0388,-2.85124 -0.0893,-0.54004 -0.2934499,-1.32522 -0.4536799,-1.74485 -0.26178,-0.68563 -0.22045,-0.81456 0.4078,-1.27221 0.4221899,-0.30754 0.7677399,-0.87509 0.8723699,-1.43282 0.36086,-1.92354 -0.9941799,-6.16307 -2.2020899,-6.88973 -0.27752,-0.16695 -1.1211,-0.62591 -1.87462,-1.01991 -1.43817,-0.75201 -1.73012,-1.30472 -0.83862,-1.58767 0.39167,-0.12431 0.93086,0.16668 2.05052,1.10665 2.3885599,2.00523 2.9838499,2.92457 3.1254899,4.82689 0.0496,0.66601 0.30375,1.86577 0.5648,2.66613 0.37803,1.15898 0.60205,1.47323 1.10052,1.54376 l 0.62587,0.0885 -0.66857,-0.8823 c -0.40608,-0.53589 -0.79248,-1.55754 -0.98416,-2.60209 -0.17357,-0.94589 -0.54446,-2.35777 -0.8242,-3.13752 -1.3542799,-3.77492 -4.7129899,-6.42448 -6.1421299,-4.8453 -1.02241,1.12975 -0.0973,4.11985 1.36991,4.42755 2.21551,0.46464 3.81198,2.08601 4.1278199,4.19219 0.17519,1.16826 0.13429,1.30906 -1.0964299,3.77415 -0.48445,0.97033 -1.09838,1.21186 -1.97258,0.77602 -0.96394,-0.48057 -0.776,-1.07293 0.37056,-1.16793 1.21285,-0.1005 1.78992,-0.82726 1.78992,-2.25426 0,-0.87068 -0.0708,-1.00039 -0.46302,-0.84864 -0.25466,0.0985 -0.78436,0.24399 -1.1771,0.32326 -0.39275,0.0793 -0.91722,0.36859 -1.16549,0.64293 -0.54204,0.59894 -1.14628,0.63517 -1.84018,0.11034 -0.28247,-0.21366 -0.91231,-0.39225 -1.39964,-0.39688 -1.9633,-0.0187 -4.48192,-2.13596 -5.09366,-4.28206 -0.18035,-0.63267 -0.54579,-1.39611 -0.81211,-1.69653 -0.52117,-0.58791 -0.65139,-1.83278 -0.21964,-2.09962 0.14552,-0.0899 0.26459,-0.80358 0.26459,-1.58589 0,-1.80677 0.26519,-2.48571 1.50954,-3.86468 1.04646,-1.15966 2.2631,-1.82547 3.33574,-1.82547 0.34593,0 0.84445,-0.23812 1.10784,-0.52916 0.55984,-0.61861 1.37998,-0.66938 2.0933,-0.12958 0.27882,0.211 0.7697,0.31653 1.09386,0.23517 1.22721,-0.30801 3.31056,1.24887 4.6384299,3.46628 0.44472,0.74262 0.65932,0.92574 0.7194,0.61386 0.144,-0.74749 -1.29292,-3.99407 -2.2335099,-5.04639 -0.8331,-0.93207 -0.88752,-0.95433 -0.88752,-0.36313 0,1.1971 -0.61607,1.30065 -1.60748,0.27019 -0.49833,-0.51797 -1.38231,-1.17678 -1.96439,-1.46402 -1.29888,-0.64095 -3.42518,-0.94421 -3.68401,-0.52542 -0.10103,0.16346 -0.8315,0.2972 -1.62328,0.2972 -1.19436,0 -1.43972,0.0789 -1.44035,0.46302 -4.2e-4,0.25467 -0.3583,0.70115 -0.79529,0.99219 -0.43699,0.29104 -0.86139,0.73753 -0.94311,0.99219 -0.0817,0.25466 -0.2461,0.46302 -0.36529,0.46302 -0.1192,0 -0.29766,0.53975 -0.39658,1.19944 -0.11947,0.79667 -0.43309,1.45848 -0.93397,1.97087 -0.77746,0.79533 -1.27428,1.85677 -0.86908,1.85677 0.12622,0 0.37039,-0.14089 0.54259,-0.31309 0.53845,-0.53845 0.70468,0.017 0.37451,1.25144 -0.91463,3.4197 0.39662,7.52268 3.65316,11.43092 1.8511,2.22155 2.39903,2.43809 2.18799,0.86472 -0.24812,-1.84991 0.38844,-1.59066 3.3881,1.37987 1.51618,1.50146 3.28719,3.08506 3.93559,3.51913 0.64839,0.43406 1.41349,1.23468 1.7002099,1.77915 0.41529,0.78862 0.67406,0.98995 1.27239,0.98995 0.56014,0 0.881,0.21365 1.26219,0.84046 0.59955,0.98588 2.49512,2.33278 3.29123,2.33859 0.91589,0.007 1.29526,0.38806 1.08168,1.08739 -0.25163,0.82392 -0.90673,1.55439 -1.39401,1.55439 -0.29692,0 -0.34865,0.20149 -0.21862,0.85163 0.25363,1.26815 0.63509,1.50029 0.95541,0.58142 0.32643,-0.93641 1.28997,-1.64785 1.58508,-1.17036 0.24033,0.38887 0.65507,9.93236 0.56349,12.96648 -0.10569,3.50167 -0.71488,5.36516 -2.97891,9.11246 -0.25855,0.42795 -0.69495,0.9042 -0.96977,1.05833 -0.27483,0.15414 -1.0674,0.9243 -1.76127,1.71148 -1.20969,1.37235 -1.25645,1.48485 -1.13638,2.73436 0.14759,1.53598 -0.19301,1.81171 -1.47803,1.19654 -0.8274999,-0.39614 -0.8413999,-0.39138 -1.2346499,0.42244 -0.51829,1.07258 -1.06181,1.14713 -2.0852,0.286 -0.8014,-0.67433 -0.8953,-0.69066 -2.42343,-0.42149 -0.87434,0.15402 -1.77372,0.46403 -1.9986,0.68891 -0.56017,0.56017 -1.15257,0.51265 -1.85679,-0.14894 -0.56468,-0.53048 -0.63558,-0.53696 -1.44677,-0.13229 -0.91912,0.45852 -2.24131,0.56574 -2.4673,0.20008 -0.0766,-0.124 0.0934,-0.68189 0.37779,-1.23977 0.45955,-0.90137 0.47332,-1.06273 0.12373,-1.44903 -0.21638,-0.23909 -0.39341,-0.85923 -0.39341,-1.37808 0,-0.68103 -0.2187,-1.17749 -0.78643,-1.78525 -0.43253,-0.46303 -0.90278,-0.76996 -1.04499,-0.68206 -0.14806,0.0915 -0.19139,0.72707 -0.10137,1.48709 0.1431,1.20825 0.0885,1.39955 -0.60865,2.13292 -0.98221,1.03322 -1.98574,1.55213 -3.00167,1.55213 -0.96345,0 -0.99006,-0.20485 -0.21616,-1.66419 0.46923,-0.88481 0.59167,-1.55454 0.59531,-3.25608 0.003,-1.19032 -0.12704,-2.30717 -0.29165,-2.51355 -0.16292,-0.20426 -0.38194,-0.84764 -0.4867,-1.42972 -0.10475,-0.58209 -0.32864,-1.22529 -0.49752,-1.42935 -0.19917,-0.24066 -0.32708,-1.86743 -0.36405,-4.63021 -0.0479,-3.57473 0.0162,-4.40801 0.39868,-5.18523 0.83278,-1.69235 1.93214,-3.2126 3.12987,-4.32816 l 1.18435,-1.10309 -0.90924,-1.02202 c -1.18689,-1.3341 -1.534,-3.33457 -0.75946,-4.37689 0.55908,-0.75237 1.73193,-1.02209 2.32047,-0.53365 0.48842,0.40535 0.48823,0.78047 -4e-4,0.78047 -0.57736,0 -0.76598,0.50007 -0.36912,0.97862 0.49732,0.59968 1.81104,1.11056 4.71852,1.83491 2.94716,0.73424 3.33248,0.75922 3.53588,0.22918 0.22146,-0.57711 0.82451,-0.48614 1.31543,0.19844 0.23479,0.32742 1.08384,1.48828 1.88678,2.57969 1.62391,2.20732 2.65888,4.20461 2.93133,5.65686 0.0993,0.52928 0.40626,1.24929 0.68214,1.60002 0.8260199,1.05011 0.8813299,2.01501 0.1755199,3.06187 -0.7410799,1.09918 -1.4997599,1.50193 -3.5395399,1.87901 -2.39879,0.44344 -3.08679,0.18946 -5.16065,-1.90508 -1.6273,-1.64354 -1.82627,-1.95621 -1.82627,-2.87006 0,-0.82041 0.16286,-1.16262 0.81405,-1.71056 0.44773,-0.37674 1.04304,-0.68498 1.32292,-0.68498 0.27988,0 0.50887,-0.11487 0.50887,-0.25528 0,-0.42954 -0.96746,-0.80305 -2.08007,-0.80305 -0.82624,0 -1.17605,0.15195 -1.6049,0.69714 -0.3016,0.38342 -0.54837,0.85967 -0.54837,1.05833 0,0.43564 -0.57443,0.47467 -0.98236,0.0668 -0.16194,-0.16195 -0.43603,-0.20695 -0.60908,-0.1 -0.48639,0.30061 -1.05439,1.86256 -1.05439,2.89949 0,0.65431 -0.119,0.93454 -0.39687,0.93454 -1.19543,0 0.39108,3.48906 2.04505,4.49749 0.96682,0.58947 2.76292,0.69071 3.3789,0.19045 0.21829,-0.17728 0.65691,-0.79595 0.97472,-1.37483 0.71091,-1.29488 1.02676,-1.42685 1.25343,-0.52373 0.23672,0.94319 1.31547,1.97312 2.06665,1.97312 0.33808,0 0.82636,-0.24722 1.08506,-0.54937 0.54935,-0.64158 1.07975,-0.36871 1.3461,0.69251 0.0898,0.35783 0.36938,0.66912 0.62127,0.69175 0.90898,0.0817 1.78863,-0.0874 2.17777,-0.41854 0.2182899,-0.18576 0.9028799,-0.61547 1.5213299,-0.95492 1.60754,-0.88233 2.18284,-2.19416 2.18284,-4.97742 0,-1.36673 -0.15257,-2.53918 -0.41091,-3.15762 -0.48945,-1.1717 -1.59492,-2.39775 -2.46734,-2.73648 -0.56145,-0.21798 -0.6133,-0.36356 -0.48097,-1.3502 0.19462,-1.45096 -0.5421199,-3.07638 -2.0654599,-4.55689 -1.10257,-1.07157 -1.18547,-1.10481 -1.95201,-0.7825 -0.72067,0.30302 -0.88759,0.27303 -1.67287,-0.30053 -0.47977,-0.35042 -2.04584,-1.44048 -3.48014,-2.42234 -2.50394,-1.7141 -2.68048,-1.78932 -4.43177,-1.88827 -2.06248,-0.11654 -2.31498,-0.45142 -1.0302,-1.36627 0.43657,-0.31086 0.79375,-0.67373 0.79375,-0.80639 0,-0.66199 -4.29231,-2.10494 -6.2559,-2.10303 -1.60196,0.002 -3.26146,1.24137 -2.57731,1.92551 0.0894,0.0894 0.44576,-0.0229 0.79182,-0.24965 0.81876,-0.53648 1.5977,-0.32285 2.88717,0.79181 0.96546,0.83458 1.01647,0.94757 0.72075,1.5966 -0.47099,1.03372 -1.8303,1.75342 -3.31389,1.75458 -0.89723,7.9e-4 -1.31078,0.12009 -1.42225,0.41058 -0.19254,0.50175 0.61006,1.1579 1.43055,1.1695 0.71048,0.01 0.78271,0.64693 0.20007,1.7641 -0.27371,0.52481 -0.39575,1.57551 -0.39688,3.41691 -10e-4,1.64145 -0.1175,2.77494 -0.30441,2.96185 -0.3696,0.3696 0.14235,1.80154 0.72388,2.02469 0.51095,0.19607 0.45809,0.69681 -0.15651,1.48253 -0.67007,0.85663 -0.66194,1.45473 0.0292,2.14584 0.47266,0.47266 0.51238,0.65923 0.25881,1.21576 -0.17719,0.38889 -0.23123,1.17234 -0.13231,1.9181 0.10479,0.7899 0.0484,1.4828 -0.15109,1.85548 -0.20838,0.38937 -0.34518,2.38982 -0.39608,5.79179 -0.0428,2.85834 -0.0912,5.27354 -0.10771,5.36711 -0.0614,0.34861 -0.84978,0.46832 -1.48747,0.22588 -0.62498,-0.23762 -0.65916,-0.35797 -0.65916,-2.32092 0,-1.23775 -0.12552,-2.19582 -0.31215,-2.38245 -0.23982,-0.23982 -0.23356,-0.45901 0.027,-0.94588 0.26709,-0.49907 0.27146,-0.76024 0.0206,-1.22905 -0.25001,-0.46714 -0.24723,-0.72866 0.0129,-1.21468 0.26596,-0.49694 0.26546,-0.69891 -0.003,-1.02182 -0.19511,-0.23509 -0.26405,-0.68122 -0.16577,-1.07278 0.0925,-0.36868 0.0532,-0.88529 -0.0874,-1.14803 -0.14061,-0.26274 -0.32236,-1.43223 -0.40388,-2.59886 -0.13236,-1.89433 -0.0916,-2.17241 0.38155,-2.60058 0.68781,-0.62246 0.66958,-0.82562 -0.17325,-1.93063 -0.56276,-0.73781 -0.64261,-1.00673 -0.40024,-1.34789 0.91999,-1.29497 1.16511,-1.98618 0.87122,-2.45677 -0.36806,-0.58935 -0.38759,-1.71873 -0.0335,-1.93756 0.16598,-0.10258 0.11447,-0.45135 -0.13908,-0.94166 -0.36065,-0.69741 -0.36055,-0.86026 9.8e-4,-1.55935 0.52457,-1.0144 0.5117,-1.98354 -0.0375,-2.82167 -0.36039,-0.55002 -0.43799,-1.34128 -0.42399,-4.32305 0.0178,-3.79835 0.11905,-4.23753 1.21212,-5.25978 1.06143,-0.99266 4.4015,-1.67628 5.44956,-1.11538 0.45459,0.24329 0.59179,0.22091 0.72174,-0.11774 0.0882,-0.22998 -0.0156,-0.62207 -0.23073,-0.87131 -0.49236,-0.57036 -1.78966,-3.34194 -1.78966,-3.82345 0,-0.19819 -0.12185,-0.48219 -0.27078,-0.63112 -0.28878,-0.28878 -0.3766,-0.63743 -0.66884,-2.65539 -0.102,-0.70439 -0.2734,-1.39977 -0.38088,-1.54529 -0.10748,-0.14552 -0.27271,-1.41487 -0.36719,-2.82079 -0.0945,-1.40591 -0.35568,-2.99636 -0.58046,-3.53433 -0.22477,-0.53796 -0.34192,-1.04488 -0.26031,-1.12648 0.2874,-0.28741 -0.73648,-1.11736 -1.37845,-1.11736 -0.59944,0 -0.63641,0.0719 -0.47617,0.92604 0.14883,0.79332 0.10196,0.92605 -0.327,0.92605 -1.41783,0 -1.02044,-2.63391 0.53335,-3.53504 0.91217,-0.52901 0.91217,-0.52901 2.14758,0.16147 0.99044,0.55357 1.51477,0.61188 1.19069,0.13242 -0.0246,-0.0364 0.12233,-0.3638 0.32648,-0.7276 0.45782,-0.81583 1.04337,-3.22193 0.85735,-3.52293 -0.0751,-0.12157 -0.40326,0.0295 -0.72917,0.33564 -0.85724,0.80534 -3.0397,1.02886 -3.62868,0.37165 -0.39423,-0.4399 -0.40125,-0.60307 -0.0667,-1.54999 0.20566,-0.58208 0.48237,-1.65364 0.6149,-2.38125 0.13254,-0.7276 0.32366,-1.62057 0.42472,-1.98437 0.10106,-0.36381 0.29643,-1.4949 0.43416,-2.51355 0.13773,-1.01864 0.35277,-2.0902 0.47787,-2.38125 0.49393,-1.14913 0.49066,-1.4466 -0.0231,-2.09977 -0.6737,-0.85647 -2.18167,-0.95298 -2.60254,-0.16658 -0.4969,0.92847 -0.34292,1.14757 0.67263,0.95705 0.87102,-0.1634 0.9396,-0.13047 0.85989,0.41285 -0.0546,0.37219 -0.36255,0.68191 -0.83314,0.83794 -0.61842,0.20504 -0.85677,0.14394 -1.38906,-0.35613 -0.90249,-0.84785 -0.83187,-1.85101 0.20143,-2.86125 0.94827,-0.92711 1.99116,-1.06816 3.2074,-0.43378 0.73068,0.38111 0.75101,0.37154 1.12803,-0.5308 0.46061,-1.10239 0.68858,-1.12339 3.625,-0.33394 1.885,0.50678 2.86536,0.58634 7.33518,0.59531 l 5.15937,0.0104 1.28771,-0.89951 c 1.16593,-0.81446 1.46618,-0.90053 3.1749999,-0.91015 1.86038,-0.0105 2.69184,0.25097 4.93,1.55019 0.54468,0.31618 2.35895,0.38465 10.276692,0.38787 l 9.6152321,0.004 1.063617,-0.91042 c 1.960329,-1.67797 4.249655,-1.74293 6.256401,-0.17752 1.361887,1.06237 2.505318,1.58789 2.950559,1.35608 0.218281,-0.11365 2.54,-0.26183 5.159375,-0.3293 2.926612,-0.0754 5.866141,-0.31488 7.62547,-0.62131 l 2.862969,-0.49865 0.476612,0.63186 c 0.352991,0.46797 0.605491,0.57698 0.973489,0.42029 1.567943,-0.6676 3.275003,0.38586 3.275003,2.02107 0,1.14257 -0.835068,1.91769 -1.902932,1.76632 -0.79911,-0.11327 -0.729821,-0.52777 0.161859,-0.96829 0.551913,-0.27267 0.695172,-0.51255 0.632058,-1.05834 -0.07324,-0.63339 -0.190127,-0.70575 -1.139944,-0.70575 h -1.058333 l 0.05793,1.58905 c 0.03186,0.87398 0.430099,3.37429 0.884968,5.55625 0.454869,2.18196 0.884523,4.63551 0.954786,5.45233 0.11884,1.38155 0.0848,1.49662 -0.488093,1.65003 -1.237406,0.33134 -1.86931,0.15064 -3.098943,-0.8862 -1.651063,-1.3922 -1.981716,-1.37966 -1.744683,0.0661 0.101393,0.61847 0.330374,1.30308 0.508846,1.52136 0.606319,0.74156 1.006859,2.11717 0.847892,2.912 -0.236754,1.18378 0.486542,1.02829 1.853615,-0.39846 0.964504,-1.00661 1.297948,-1.19063 2.157484,-1.19063 1.156388,0 2.16724,0.84096 2.16724,1.80299 0,0.65768 -0.468578,0.77944 -0.698069,0.18139 -0.483537,-1.26008 -2.641963,0.76638 -3.109209,2.9191 -0.09372,0.43179 -0.229584,1.02319 -0.301921,1.31423 -0.07234,0.29104 -0.418463,1.89839 -0.769165,3.57188 -0.676238,3.22688 -2.173846,7.48797 -3.078009,8.75775 -0.299067,0.42 -0.46967,0.88351 -0.379119,1.03003 0.09055,0.14651 1.080346,0.27825 2.199545,0.29276 2.633855,0.0341 2.969802,0.14631 4.569126,1.52565 l 1.339377,1.15516 -0.115827,2.15213 c -0.140525,2.61098 -0.778727,5.96549 -1.182415,6.21498 -0.392755,0.24274 -0.496538,2.82153 -0.131294,3.26235 0.158467,0.19125 0.331459,1.50856 0.384429,2.92736 0.08615,2.3074 0.158374,2.6231 0.684429,2.99156 0.719432,0.50391 0.755902,1.35471 0.08937,2.08467 -0.814522,0.89203 -0.932992,1.65998 -0.30771,1.99462 0.575622,0.30807 0.767802,1.68804 0.277299,1.99118 -0.360876,0.22304 -0.334262,1.2797 0.0417,1.65567 0.231992,0.23199 0.221647,0.40827 -0.04266,0.72673 -0.265017,0.31933 -0.344215,1.70612 -0.329279,5.7659 0.01553,4.21905 -0.06041,5.4709 -0.360317,5.94077 -0.425839,0.66715 -1.2089,0.77897 -1.6588,0.23687 -0.348996,-0.42051 -0.587651,-3.06126 -0.661041,-7.31448 -0.03087,-1.78938 -0.184573,-3.28076 -0.373139,-3.62062 -0.388033,-0.69939 -0.434589,-5.27355 -0.05606,-5.5075 0.44689,-0.2762 0.293749,-1.31263 -0.264583,-1.79069 -0.291042,-0.2492 -0.529167,-0.67393 -0.529167,-0.94384 0,-0.26991 0.238125,-0.70625 0.529167,-0.96964 0.615752,-0.55725 0.670359,-1.12762 0.178012,-1.85936 -0.248187,-0.36886 -0.340979,-1.43946 -0.316458,-3.65112 0.02408,-2.17142 -0.06833,-3.26471 -0.301889,-3.57187 -0.185121,-0.24346 -0.340371,-0.60216 -0.345001,-0.79711 -0.01103,-0.4654 1.056158,-1.34533 1.645232,-1.35653 0.254661,-0.005 0.463021,-0.18739 0.463021,-0.40568 0,-0.30066 -0.325641,-0.39687 -1.343269,-0.39687 -1.13189,0 -1.464974,-0.1217 -2.116666,-0.7734 -1.026367,-1.02636 -1.010984,-1.96736 0.04833,-2.95691 0.876919,-0.81916 2.243129,-1.0365 2.829517,-0.45011 0.233135,0.23314 0.39574,0.23926 0.611947,0.0231 0.707639,-0.70763 -1.10857,-1.66346 -3.160816,-1.66346 -0.956804,0 -1.789763,0.24708 -3.183498,0.94434 -2.004367,1.00274 -2.265712,1.44281 -1.314344,2.21318 0.913807,0.73996 0.477051,1.34039 -0.975,1.34039 -1.386933,0 -2.319999,0.42314 -4.186582,1.89859 -0.725207,0.57325 -1.651855,1.10892 -2.059218,1.19039 -0.407366,0.0815 -0.93346,0.44238 -1.169104,0.80202 -0.402084,0.61366 -0.524787,0.64271 -1.994455,0.47213 -1.174279,-0.13629 -1.566014,-0.0989 -1.566014,0.14939 0,0.18213 -0.597463,0.96287 -1.327697,1.73499 -0.730232,0.77211 -1.56495,1.95733 -1.854925,2.63382 -0.52723,1.22997 -0.52723,1.22997 -1.216414,0.7784 -0.616879,-0.40419 -0.731409,-0.40934 -1.091671,-0.0491 -0.624573,0.62457 -0.218609,1.23727 0.819798,1.23727 1.047017,0 1.65717,0.52666 1.172115,1.01171 -0.171164,0.17116 -0.443712,0.31121 -0.605663,0.31121 -0.351409,0 -1.715678,1.37718 -1.718006,1.73427 -7.94e-4,0.13755 -0.180943,0.59393 -0.4001,1.01417 -0.21916,0.42023 -0.377624,0.89648 -0.352145,1.05833 0.02548,0.16185 -0.0477,0.63041 -0.162613,1.04124 -0.126709,0.45301 -0.09974,0.85617 0.06852,1.02443 0.152598,0.1526 0.211405,0.44957 0.13068,0.65994 -0.08072,0.21036 -0.02788,0.64234 0.117433,0.95994 0.145314,0.31761 0.488556,1.16142 0.762762,1.87515 0.636572,1.65691 2.835598,3.3153 4.410083,3.32583 0.869572,0.006 1.073976,-0.1168 1.555676,-0.93322 0.554564,-0.93992 0.554564,-0.93992 1.132607,-0.39688 0.367107,0.34488 0.933884,0.54305 1.553178,0.54305 0.84223,0 0.975136,-0.0833 0.975136,-0.61089 0,-0.33599 0.172024,-0.84201 0.382275,-1.12448 0.3703,-0.49751 0.407128,-0.48666 1.17571,0.3463 0.674355,0.73084 0.976339,0.8599 2.012114,0.8599 1.673109,0 2.565197,-0.53459 3.822835,-2.29086 1.203953,-1.6813 1.283476,-1.94247 0.591458,-1.94247 -0.416637,0 -0.480438,-0.22506 -0.468802,-1.65365 0.0075,-0.91393 -0.159435,-2.03527 -0.37307,-2.50678 l -0.386546,-0.85314 -0.568397,0.71284 -0.568396,0.71283 -0.511747,-0.8415 c -0.643141,-1.05756 -1.616567,-1.83182 -2.614774,-2.07979 l -0.772869,-0.19199 0.992188,1.10239 c 0.943811,1.04865 1.149667,1.68301 1.023101,3.15281 -0.04785,0.55567 -1.664663,2.44598 -2.092087,2.44598 -0.105296,0 -0.595968,0.44076 -1.090379,0.97947 -0.829083,0.90337 -1.006653,0.97696 -2.285305,0.94702 -1.631735,-0.0382 -3.296039,-0.95217 -4.079335,-2.2402 -0.411964,-0.67742 -0.482973,-1.20878 -0.398896,-2.98496 0.08509,-1.79757 0.261696,-2.50123 1.050552,-4.18573 1.182788,-2.52569 3.741409,-6.00935 4.413647,-6.00935 0.269126,0 0.705892,0.13525 0.970594,0.30056 0.369131,0.23052 0.784448,0.2039 1.782348,-0.11427 0.715589,-0.22815 1.955916,-0.49642 2.756281,-0.59616 1.751182,-0.21823 2.756273,-0.69641 3.341677,-1.58985 0.413485,-0.63106 0.406712,-0.69723 -0.1298,-1.26832 -0.72836,-0.77531 -0.713287,-0.9653 0.07658,-0.9653 0.366213,0 1.049036,0.3833 1.5875,0.89114 0.835303,0.78779 0.94488,1.04249 0.94488,2.19621 0,1.7027 -0.469479,2.67583 -1.389062,2.8792 -0.85435,0.18894 -1.002485,1.0543 -0.22284,1.30175 0.811604,0.25759 2.663769,2.44321 3.360936,3.96602 0.353809,0.77283 0.781031,2.35019 0.949383,3.50525 0.329755,2.26246 0.275302,2.67189 -1.221743,9.18611 -0.549312,2.39028 -0.61646,3.07802 -0.38749,3.96875 0.152329,0.5926 0.338228,1.39088 0.413107,1.77397 0.07488,0.38309 0.464767,1.05632 0.866415,1.49607 1.38883,1.52057 1.242608,2.12685 -0.403344,1.67238 -1.168892,-0.32275 -3.610483,-2.53947 -3.891155,-3.53279 -0.291632,-1.0321 -0.72004,-0.90454 -0.72004,0.21438 0,1.26894 -0.415788,1.96698 -1.171625,1.96698 -0.657755,0 -0.945042,0.43911 -0.945042,1.44445 0,1.08612 -0.505103,1.23925 -3.113106,0.94381 -1.965613,-0.22267 -2.548448,-0.20059 -3.330403,0.12613 -0.521306,0.21781 -1.427904,0.39603 -2.014659,0.39603 -0.91367,0 -1.066832,-0.0813 -1.066832,-0.56615 z m 2.226151,-0.45528 c 0.07739,-0.12523 0.07278,-0.29562 -0.01027,-0.37865 -0.206462,-0.20647 -0.892968,0.078 -0.892968,0.37005 0,0.30232 0.717483,0.30914 0.903234,0.009 z m -44.2949,-0.69837 c 0.27518,-0.33157 0.23698,-0.39687 -0.23219,-0.39687 -0.32278,0 -0.56156,0.16876 -0.56156,0.39687 0,0.21829 0.10448,0.39688 0.23218,0.39688 0.12771,0 0.38041,-0.17859 0.56157,-0.39688 z m 6.17123,-0.81946 c -0.17663,-0.46029 -1.05719,-0.48947 -1.21987,-0.0404 -0.0659,0.1819 0.0688,0.54698 0.29941,0.81128 0.38859,0.44543 0.44275,0.44839 0.74106,0.0404 0.177,-0.24207 0.25773,-0.60715 0.1794,-0.81128 z m 41.718352,0.68717 c 0,-0.35277 -0.176389,-0.52916 -0.529166,-0.52916 -0.579036,0 -0.729338,0.66888 -0.198438,0.8831 0.600874,0.24246 0.727604,0.18081 0.727604,-0.35394 z m 2.513542,0.26459 c 0.09274,-0.15007 -0.129545,-0.26459 -0.513551,-0.26459 -0.37239,0 -0.677074,0.11907 -0.677074,0.26459 0,0.14552 0.231098,0.26458 0.513551,0.26458 0.282453,0 0.587137,-0.11906 0.677074,-0.26458 z m -18.277891,-0.42519 c 0.474951,-0.18225 0.578226,-1.4269 0.118399,-1.4269 -0.165063,0 -1.444985,-0.54096 -2.844271,-1.20214 -1.9964401,-0.94333 -2.9278531,-1.58183 -4.3264491,-2.96585 l -1.782294,-1.76371 -0.863539,0.82221 c -0.949664,0.90421 -4.17233903,3.04934 -6.750519,4.4934 -1.12185,0.62836 -1.65365,1.08764 -1.65365,1.42815 0,0.4779 0.32609,0.50553 6.813026,0.57721 3.747161,0.0414 7.7260181,0.10294 8.8419011,0.13675 1.115886,0.0338 2.217214,-0.0108 2.447396,-0.0991 z m 7.293632,-1.21284 c 0.0021,-0.3916 0.123113,-0.78558 0.268634,-0.87552 0.145521,-0.0899 0.264583,-0.45188 0.264583,-0.80432 0,-0.46286 -0.183676,-0.6869 -0.661458,-0.80682 -0.462447,-0.11606 -0.661459,-0.34665 -0.661459,-0.76639 0,-0.33021 -0.178593,-0.7486 -0.396875,-0.92976 -0.767188,-0.63671 -0.446675,-0.96542 0.921785,-0.94536 1.217467,0.0178 1.405279,-0.069 2.447396,-1.13158 0.964348,-0.98329 1.032401,-1.11923 0.467278,-0.93347 -0.363802,0.1196 -1.316302,0.22078 -2.116667,0.22487 -1.408893,0.007 -1.495795,0.051 -2.730482,1.37755 -1.27527,1.37014 -1.27527,1.37014 -0.812691,2.11667 0.254418,0.41059 0.876014,1.18666 1.381323,1.7246 0.656498,0.69888 0.940655,1.2653 0.995514,1.98437 0.04222,0.55347 0.08562,1.06584 0.09644,1.1386 0.06282,0.42254 0.533312,-0.78152 0.536681,-1.37344 z m 3.972801,0.71607 c 0,-0.18489 -0.177187,-0.48322 -0.393745,-0.66295 -0.318874,-0.26464 -0.424876,-0.24564 -0.557475,0.0999 -0.241207,0.62858 0.07233,1.23649 0.54433,1.05536 0.22379,-0.0859 0.40689,-0.30741 0.40689,-0.49231 z m -45.555676,-0.21827 c 0.21379,-1.11011 -1.35013,-1.72739 -1.68705,-0.66587 -0.12835,0.40439 -0.037,0.6816 0.30779,0.93369 0.62875,0.45975 1.26286,0.33662 1.37926,-0.26782 z m -1.12134,-0.14718 c -0.11397,-0.18442 -0.13577,-0.40675 -0.0484,-0.49409 0.23679,-0.23679 0.49498,0.11147 0.36708,0.49516 -0.0896,0.26886 -0.15194,0.26865 -0.31864,-10e-4 z m 5.40201,0.24469 c 0,-0.28245 -0.12943,-0.59355 -0.28763,-0.69132 -0.40457,-0.25004 -0.8728,0.2926 -0.68184,0.79021 0.2268,0.59103 0.96947,0.51528 0.96947,-0.0989 z m 44.132185,-0.298 c 0.0588,-0.50522 -0.08541,-0.75418 -0.562856,-0.97172 -0.71574,-0.32612 -1.23599,-0.021 -1.23599,0.72494 0,1.1801 1.663658,1.40834 1.798846,0.24678 z m -41.753345,-0.11158 c 0.17983,-0.21668 0.44989,-0.31798 0.60015,-0.22512 0.28749,0.17768 0.14554,-0.63541 -0.32872,-1.88279 -0.30189,-0.79403 -0.35241,-0.80404 -1.21282,-0.24028 -0.61332,0.40186 -0.63009,0.46657 -0.23419,0.90403 0.32437,0.35842 0.36028,0.59477 0.15006,0.98757 -0.45152,0.84368 0.39242,1.21942 1.02552,0.45659 z m 46.74367,-0.0177 c 0.19667,-0.51252 -0.850527,-1.54443 -1.291031,-1.27219 -0.57875,0.35769 -1.264807,1.0054 -1.264807,1.19412 0,0.53988 2.351064,0.6117 2.555838,0.0781 z m -51.28608,-0.84508 c 0.4208,-0.40018 0.96874,-0.84666 1.21765,-0.99219 0.61501,-0.35955 0.26839,-1.19062 -0.49658,-1.19062 -0.32568,0 -0.80765,-0.23813 -1.07104,-0.52917 -0.53852,-0.59506 -1.17511,-0.69852 -1.22092,-0.19843 -0.11881,1.2971 0.0326,2.92514 0.30231,3.25009 0.41469,0.49968 0.37473,0.51038 1.26858,-0.33968 z m 41.057325,0.3652 c 0,-0.19933 0.238125,-1.1078 0.529167,-2.01884 0.564465,-1.76693 0.683236,-2.65528 0.298918,-2.23573 -0.240408,0.26244 -1.357251,3.82327 -1.357251,4.32732 0,0.15931 0.119062,0.28966 0.264583,0.28966 0.145521,0 0.264583,-0.16309 0.264583,-0.36241 z m -32.8083351,-0.67054 c 0,-0.2599 0.25098,-0.69935 0.55772,-0.97657 0.30675,-0.27721 0.79566,-0.83785 1.08648,-1.24585 0.50586,-0.70971 0.50858,-0.76411 0.0627,-1.25677 -0.54255,-0.59951 -1.44235,-0.68583 -1.44235,-0.13837 0,0.20711 -0.29765,0.73032 -0.66145,1.16267 -0.6807599,0.80903 -0.8633699,1.74432 -0.3968799,2.03263 0.14552,0.0899 0.26458,0.40164 0.26458,0.69268 0,0.29105 0.1190699,0.45559 0.2645899,0.36565 0.14552,-0.0899 0.26458,-0.37617 0.26458,-0.63607 z m 35.5864611,-0.029 c 0,-0.21629 -0.267891,-0.4313 -0.595313,-0.4778 -0.579123,-0.0822 -0.826418,0.4267 -0.409776,0.84335 0.308247,0.30824 1.005089,0.0548 1.005089,-0.36555 z m 4.183229,-0.59169 c 0.180869,-1.33928 -0.09967,-1.73399 -0.936736,-1.31798 -0.330364,0.16418 -0.828919,0.33442 -1.107901,0.3783 -0.278984,0.0439 -0.54991,0.20795 -0.602056,0.3646 -0.159073,0.47784 1.174797,1.69956 1.855575,1.69956 0.551855,0 0.660019,-0.15374 0.791118,-1.12448 z m 9.178229,1.0245 c 0,-0.055 -0.178593,-0.52741 -0.396875,-1.04984 -0.645721,-1.54542 -0.482938,-3.92064 0.55585,-8.1106 1.132652,-4.56855 1.138031,-7.00977 0.02098,-9.525 -0.802103,-1.80607 -3.326173,-4.31208 -4.215332,-4.18517 -1.111176,0.1586 -0.845476,0.94089 0.644099,1.89639 1.860233,1.19327 2.243151,1.65673 2.898048,3.50765 0.910005,2.57192 0.395761,6.25773 -1.414886,10.1411 -0.769593,1.65058 -0.780227,1.7258 -0.34752,2.45832 0.324803,0.54984 0.397857,1.04279 0.26824,1.80999 -0.158945,0.94079 -0.08289,1.16515 0.706194,2.08334 0.776857,0.90396 1.281198,1.2873 1.281198,0.97382 z m -65.510469,-1.96887 c -0.0876,-0.3901 -0.27675,-1.1772 -0.42034,-1.7491 -0.23489,-0.93551 -0.20034,-1.08564 0.34433,-1.49649 l 0.60541,-0.45666 -0.77856,-1.12346 c -0.42821,-0.61791 -0.92942,-1.67089 -1.1138,-2.33997 -0.18438,-0.66908 -0.40308,-1.45464 -0.48599,-1.74568 -0.0829,-0.29104 -0.15585,-1.58545 -0.16207,-2.87646 -0.0195,-4.03949 1.09476,-6.14072 4.41836,-8.33201 l 1.05834,-0.69778 -0.97326,-0.081 c -1.07958,-0.0898 -2.74957,0.79853 -3.01218,1.60235 -0.0832,0.25466 -0.24786,0.46302 -0.36592,0.46302 -0.11806,0 -0.36261,0.35718 -0.54344,0.79375 -0.18083,0.43656 -0.4171,0.79375 -0.52504,0.79375 -0.10795,0 -0.42093,0.68461 -0.69551,1.52135 -0.79795,2.43164 -0.63252,6.42294 0.40568,9.78727 0.67279,2.18024 0.81487,3.08847 0.81487,5.20903 v 2.56838 l 0.79419,-0.56551 c 0.64947,-0.46246 0.76517,-0.69477 0.63493,-1.27479 z m 5.47239,-0.51084 c 0.46124,-0.98226 0.94256,-1.99268 1.0696,-2.24537 0.12704,-0.25268 0.23098,-0.65422 0.23098,-0.89229 0,-0.80568 -0.76666,0.14197 -0.95453,1.17987 -0.0961,0.53108 -0.57553,1.51734 -1.06533,2.19168 -0.99822,1.37429 -1.05605,1.55205 -0.50495,1.55205 0.21684,0 0.75263,-0.78163 1.22423,-1.78594 z m 55.275579,1.64797 c 0,-0.0759 -0.571815,-0.87956 -1.270696,-1.78594 -0.698883,-0.90638 -1.478021,-1.97918 -1.731417,-2.384 -0.253394,-0.40482 -0.573225,-0.6665 -0.710737,-0.58152 -0.299384,0.18503 0.185168,0.99456 1.936821,3.23578 1.122302,1.43598 1.776029,1.99387 1.776029,1.51568 z m -21.166667,-0.24716 c 0,-0.0663 -0.297786,-0.55935 -0.661744,-1.09567 -0.363959,-0.53633 -0.988359,-1.9406 -1.387557,-3.12061 l -0.725813,-2.14547 -0.07918,-18.85156 c -0.07918,-18.85156 -0.07918,-18.85156 -0.6322691,-18.85156 -0.899766,0 -2.561257,-0.57795 -2.96908,-1.03279 -0.488802,-0.54516 -0.769591,-2.16797 -0.457092,-2.64175 0.195443,-0.29632 0.477208,-0.1985 1.458786,0.50641 1.06685,0.76616 1.298202,0.83647 1.880044,0.57136 l 0.6634881,-0.3023 v -9.36531 c 0,-5.15092 0.07543,-9.74245 0.167621,-10.20341 l 0.167619,-0.8381 10.481861,0.0774 c 9.401046,0.0694 10.563704,0.125 11.275608,0.53882 0.436563,0.25376 0.927764,0.46212 1.091557,0.46302 0.315132,0.002 2.866758,1.14371 3.538652,1.58373 1.207748,0.79094 3.255584,1.86509 3.358861,1.76182 0.196623,-0.19663 -0.613248,-1.56751 -1.428398,-2.41788 -0.418481,-0.43656 -1.391531,-1.52922 -2.162336,-2.42812 -0.770803,-0.89891 -1.789735,-1.81862 -2.264294,-2.04382 -0.742818,-0.35249 -2.791325,-0.41226 -14.727606,-0.42976 l -13.8647701,-0.0203 v 32.41846 32.41846 l 1.963327,1.97647 c 1.9722021,1.9854 5.3127151,4.1688 5.3127151,3.47246 z m -25.615392,-1.54967 c -0.28831,-0.65176 -0.6056,-1.55566 -0.7051,-2.00867 -0.0995,-0.45301 -0.27788,-0.76371 -0.39641,-0.69046 -0.30519,0.18862 0.079,1.656 0.7833,2.99171 0.77174,1.46363 1.00158,1.2523 0.31821,-0.29258 z m 13.07660187,-0.66488 c 1.14826303,-0.85942 2.56399803,-1.98163 3.14608103,-2.4938 l 1.058333,-0.93123 0.132292,-20.07254 c 0.124254,-18.85307 0.02384,-25.90736 -0.40758,-28.63219 -0.112048,-0.70769 -0.06584,-1.37035 0.119909,-1.71979 0.19753,-0.37159 0.25255,-1.43904 0.158856,-3.08202 -0.160247,-2.81007 -0.161322,-2.561 0.02716,-6.30127 0.0933,-1.85148 0.03999,-2.84694 -0.165759,-3.09484 -0.166814,-0.201 -0.264186,-0.68057 -0.216381,-1.06572 l 0.08692,-0.70026 -14.287503,-0.12076 c -7.8581199,-0.0664 -14.6559899,-0.0533 -15.1063699,0.0291 -0.8464,0.15488 -1.245,0.64067 -3.78595,4.61405 -1.44179,2.2546 -1.44167,3.11057 2.7e-4,1.85099 0.80142,-0.70007 2.78043,-1.71969 5.00142,-2.57683 1.71275,-0.661 1.76268,-0.66414 12.1911,-0.76638 8.7405199,-0.0857 10.52207987,-0.0415 10.77849987,0.2675 0.2183,0.26303 0.3273,3.23506 0.37662,10.26886 l 0.0694,9.89869 1.16831003,0.0835 c 0.881161,0.063 1.362822,-0.0603 1.959737,-0.50162 0.570955,-0.42213 0.904468,-0.51383 1.197195,-0.32919 0.659162,0.41579 0.62484,0.72389 -0.208846,1.87476 -0.700043,0.96638 -0.973159,1.12716 -2.387288,1.40537 l -1.59681803,0.31416 -0.002,18.28797 c -8e-4,10.58345 -0.10992,18.94983 -0.2588,19.859 -0.14149,0.86406 -0.67659,2.454 -1.18908997,3.53319 -0.51251,1.07919 -0.93183,2.01353 -0.93183,2.0763 0,0.21872 0.99786,-0.42288 3.07162597,-1.97499 z m 31.05962413,1.69086 c 0,-0.53318 -0.593802,-1.51363 -0.794917,-1.31251 -0.342458,0.34245 -0.01644,1.42758 0.4289,1.42758 0.201308,0 0.366017,-0.0518 0.366017,-0.11507 z m -64.291656,-1.47636 c 0.22649,-0.42319 0.19747,-0.56679 -0.14076,-0.69659 -0.54423,-0.20883 -1.03788,0.27543 -0.83081,0.81503 0.21863,0.56976 0.63011,0.5196 0.97157,-0.11844 z m 11.10909,-1.35051 c 9e-4,-0.28988 -0.31952,-0.48144 -0.99087,-0.5924 -1.39966,-0.23135 -2.4474,-0.20843 -2.4474,0.0535 0,0.12285 0.50602,0.72454 1.12448,1.33708 l 1.12448,1.11372 0.594,-0.74176 c 0.3267,-0.40798 0.59459,-0.93455 0.59531,-1.17017 z m 7.67423,1.63464 c 0,-0.13693 -0.11906,-0.32256 -0.26458,-0.41249 -0.14552,-0.0899 -0.26459,-0.39462 -0.26459,-0.67708 0,-0.28245 -0.10517,-0.51355 -0.23372,-0.51355 -0.37553,0 -0.56455,1.13095 -0.25197,1.50759 0.33043,0.39815 1.01486,0.46258 1.01486,0.0955 z m 40.889007,-0.0332 c 0.216792,-0.35078 0.162869,-0.39544 -0.738484,-0.61168 -0.61114,-0.14661 -0.727604,-0.089 -0.727604,0.35966 0,0.38999 0.174358,0.53421 0.645842,0.53421 0.355214,0 0.724324,-0.12699 0.820246,-0.28219 z m 8.206809,-0.42595 c 0.468389,-0.58742 0.517946,-0.83187 0.290698,-1.43392 -0.173466,-0.45956 -0.52251,-0.77406 -0.951585,-0.85741 -0.98053,-0.19048 -2.132843,0.0949 -2.132843,0.52831 0,0.77968 1.340816,2.47116 1.958861,2.47116 0.148619,0 0.524312,-0.31867 0.834869,-0.70814 z m 9.18849,-0.11548 c -0.446564,-0.44656 -0.97722,-0.0216 -0.576281,0.46151 0.221406,0.26678 0.40359,0.30008 0.594931,0.10874 0.191339,-0.19134 0.185629,-0.36597 -0.01865,-0.57025 z m -55.770766,-0.51773 c 0,-0.39515 -0.17524,-0.66953 -0.46302,-0.72495 -0.33741,-0.065 -0.46302,0.0836 -0.46302,0.54759 0,0.35022 0.0819,0.71862 0.1819,0.81866 0.3419,0.3419 0.74414,-0.005 0.74414,-0.6413 z m -4.89479,-0.27701 c 0,-0.3492 0.18946,-0.49831 0.63315,-0.49831 0.78242,0 1.04066,-0.58042 0.54772,-1.23105 -0.20366,-0.26881 -0.37408,-0.70084 -0.3787,-0.96007 -0.0114,-0.64125 -0.8037,-0.90783 -1.17776,-0.39628 -0.16448,0.22495 -0.53422,0.45597 -0.82163,0.51338 -0.45212,0.0903 -0.51012,0.28172 -0.43022,1.41993 0.0508,0.72355 0.204,1.45208 0.34046,1.61896 0.36484,0.44618 1.28698,0.11188 1.28698,-0.46656 z m 44.450002,-0.0858 c 0,-0.35521 0.119063,-0.71943 0.264584,-0.80937 0.478438,-0.29569 0.309782,-1.4552 -0.211667,-1.4552 -0.261938,0 -0.611121,-0.13488 -0.775965,-0.29972 -0.438343,-0.43834 -1.041548,-0.10777 -1.53122,0.83915 -0.498592,0.96417 -0.358085,1.57723 0.361484,1.57723 0.277791,0 0.653293,0.1786 0.834451,0.39688 0.505701,0.60933 1.058333,0.47933 1.058333,-0.24897 z m 1.751542,0.26164 c 0.08109,-0.21132 0.07354,-0.50377 -0.01677,-0.64991 -0.255656,-0.41366 -0.941014,-0.0253 -0.941014,0.53325 0,0.58683 0.742662,0.67728 0.957792,0.11666 z m -48.384354,-0.74028 c -0.0606,-0.1819 -0.26899,-0.33073 -0.46302,-0.33073 -0.19403,0 -0.40239,0.14883 -0.46302,0.33073 -0.0656,0.19675 0.122,0.33073 0.46302,0.33073 0.34102,0 0.5286,-0.13398 0.46302,-0.33073 z m 11.1503999,-0.52916 c -0.50897,-0.47295 -1.08246,-1.24685 -1.27443,-1.71979 -0.33402,-0.82295 -0.81399,-1.16622 -0.81399,-0.58218 0,0.56115 0.8587,1.98782 1.54399,2.56524 1.11265,0.9375 1.58886,0.70722 0.54443,-0.26327 z m 25.5954411,-0.34957 c 0.850384,-0.90167 1.189514,-1.96554 0.626554,-1.96554 -0.145521,0 -0.264583,0.1905 -0.264583,0.42334 0,0.23283 -0.416719,0.84005 -0.926042,1.34937 -1.006628,1.00663 -1.078815,1.13771 -0.626554,1.13771 0.164719,0 0.7005,-0.4252 1.190625,-0.94488 z m 26.291138,0.11873 c 0,-0.1277 -0.238125,-0.23218 -0.529166,-0.23218 -0.508439,0 -0.717299,0.51742 -0.355074,0.87965 0.200298,0.20029 0.88424,-0.30051 0.88424,-0.64747 z m -77.442799,-0.0963 c 0.0287,-0.14353 -0.15619,-0.30109 -0.41085,-0.35013 -0.28961,-0.0558 -0.46302,0.074 -0.46302,0.34651 0,0.46032 0.78192,0.46356 0.87387,0.004 z m 22.9302199,-0.0698 c -0.0165,-0.90561 -0.6022099,-1.30308 -1.9186399,-1.30195 -0.69607,5.2e-4 -1.4045,-0.13782 -1.57427,-0.3076 -0.44218,-0.44218 -0.74302,-0.38065 -0.55351,0.11322 0.15801,0.41175 3.06648,1.93584 3.7240999,1.95148 0.1819,0.004 0.32694,-0.20049 0.32232,-0.45515 z m -11.3559899,-0.74289 c 0.18814,-0.22669 0.7385,-0.5778 1.22303,-0.78025 0.48452,-0.20245 0.88095,-0.49322 0.88095,-0.64617 0,-0.35431 -0.0225,-0.35224 -1.10948,0.10194 -1.90053,0.79409 -4.67899,-0.67303 -5.97053,-3.15265 -0.64746,-1.24303 -0.78594,-5.87619 -0.20899,-6.99189 0.59077,-1.14243 0.31928,-1.38235 -0.33913,-0.29969 -1.43972,2.36743 -1.25092,6.66273 0.43841,9.97409 0.67756,1.32812 1.15049,1.71756 2.37494,1.95568 1.62271,0.31556 2.35116,0.27228 2.7108,-0.16106 z m 15.5135699,-0.58116 c 2.86582,-4.34152 3.11101,-5.44355 2.85392,-12.82677 -0.18603,-5.34218 -0.43027,-6.41088 -0.81597,-3.57032 -0.0943,0.69449 -0.27482,1.32659 -0.40116,1.40467 -0.38215,0.23618 -0.25979,1.4987 0.29946,3.08987 0.9066,2.57944 0.6264,6.06304 -0.71307,8.86533 -1.05256,2.20205 -1.40016,2.69234 -1.79998,2.53891 -0.73647,-0.28261 -0.68313,-0.97487 0.1406,-1.82474 0.97285,-1.00373 2.232,-5.20339 2.02012,-6.73779 -0.3183,-2.30521 -0.73855,-3.43959 -1.27425,-3.43959 -0.28897,0 -0.93741,-0.31426 -1.44099,-0.69835 -1.19764,-0.91349 -1.39961,-0.66628 -0.36261,0.44384 1.00621,1.07715 1.47763,1.96345 1.71372,3.22193 0.11608,0.61874 0.30041,0.91893 0.51395,0.83699 0.25994,-0.0998 0.28156,0.20004 0.0986,1.36681 -0.25946,1.65456 -0.95598,3.19438 -2.10629,4.65644 -0.81145,1.03137 -0.96044,2.02707 -0.43031,2.87593 0.45924,0.73538 1.13817,0.65444 1.70427,-0.20316 z m 23.2556721,0.43104 c 0.398532,-0.64483 0.165003,-2.27459 -0.471199,-3.28843 -0.647348,-1.03159 -1.366247,-3.13911 -1.644126,-4.8199 -0.106198,-0.64236 -0.0081,-1.00038 0.380579,-1.38907 0.28801,-0.28801 0.523656,-0.75497 0.523656,-1.03769 0,-0.28273 0.266655,-0.96599 0.592569,-1.51837 l 0.592566,-1.00433 -0.791004,0.54927 c -0.435054,0.3021 -0.999366,0.62445 -1.254027,0.71632 -0.400391,0.14445 -0.462627,0.535 -0.460108,2.88733 0.004,3.72547 0.178168,4.56022 1.14975,5.51012 0.859747,0.84057 0.81721,1.32576 -0.170876,1.94903 -0.67682,0.42692 -0.897652,0.004 -1.494367,-2.86279 -0.594884,-2.85786 -0.682818,-5.19409 -0.263906,-7.01143 0.184751,-0.80149 0.182727,-1.25279 -0.0065,-1.44198 -0.151471,-0.15146 -0.275391,-1.13751 -0.275391,-2.19122 0,-1.77717 -0.268872,-2.58229 -0.654167,-1.95887 -0.08886,0.14377 -0.156765,2.83608 -0.150902,5.9829 0.0081,4.3339 0.10114,5.92386 0.383736,6.55592 0.205195,0.45894 0.433773,1.13209 0.507955,1.49589 0.157075,0.77032 0.749453,2.36644 1.055613,2.84427 0.263732,0.41161 2.2,0.43771 2.450105,0.033 z m 16.096669,-0.21284 c 0.275061,-0.22828 0.531482,-0.2418 0.895069,-0.0472 0.603952,0.32323 1.243659,-0.27103 2.105354,-1.95578 1.597078,-3.12254 1.90332,-4.35309 1.612519,-6.47946 -0.194805,-1.42446 -0.769827,-2.91325 -1.125197,-2.91325 -0.05191,0 -0.03357,1.28288 0.04075,2.85084 0.127058,2.6807 0.09432,2.93136 -0.548455,4.19983 -0.747707,1.47552 -2.790436,3.44742 -3.845594,3.71225 -0.614077,0.15413 -1.875227,-0.0837 -3.014597,-0.56838 -0.28353,-0.12063 -0.46302,-0.0815 -0.46302,0.10106 0,0.39851 2.623193,1.54892 3.367902,1.477 0.324377,-0.0313 0.763249,-0.20092 0.975273,-0.37689 z m 10.936589,-0.74609 c 0.144664,-0.43448 -0.684339,-0.74463 -1.039913,-0.38906 -0.152162,0.15217 -0.19259,0.41269 -0.08984,0.57895 0.233772,0.37825 0.982482,0.25241 1.129749,-0.18989 z m -77.35733,-0.20859 c 0.0899,-0.23431 -0.0151,-0.47262 -0.24768,-0.56186 -0.51769,-0.19865 -0.75393,0.0402 -0.55429,0.56046 0.20084,0.52339 0.6014,0.52409 0.80197,0.001 z m 16.04006,-0.51916 c 0,-0.21828 -0.10448,-0.39687 -0.23218,-0.39687 -0.12771,0 -0.38041,0.17859 -0.56157,0.39687 -0.27518,0.33158 -0.23698,0.39688 0.23219,0.39688 0.32278,0 0.56156,-0.16876 0.56156,-0.39688 z m -15.76123,-1.68981 c 0.0797,-0.12903 -0.0323,-0.38173 -0.24897,-0.56156 -0.31275,-0.25956 -0.47518,-0.25956 -0.78793,0 -0.47955,0.398 -0.28253,0.79617 0.39397,0.79617 0.27386,0 0.56318,-0.10558 0.64293,-0.23461 z m 77.012278,-0.29456 c 0,-0.57381 -1.032235,-0.49477 -1.144395,0.0876 -0.07236,0.37573 0.04564,0.46483 0.525545,0.39688 0.340368,-0.0482 0.61885,-0.26623 0.61885,-0.48451 z m -60.044868,-1.66921 c -0.28249,-0.17334 -0.79391,-0.58306 -1.1365,-0.91048 -0.71868,-0.68685 -0.86343,-0.72848 -0.86343,-0.24833 0,0.62938 1.05662,1.50559 1.79625,1.48954 0.66752,-0.0145 0.68165,-0.0374 0.20368,-0.33073 z m -16.72416,-0.58822 c -0.20988,-0.54693 -0.35702,-0.48248 -0.35702,0.15638 0,0.29963 0.11387,0.47441 0.25303,0.3884 0.13917,-0.086 0.18596,-0.33116 0.10399,-0.54478 z m 75.517768,0.19037 c 0.15874,-0.47621 -0.388144,-0.37614 -0.572696,0.10479 -0.09888,0.25768 -0.03975,0.37864 0.153594,0.3142 0.172905,-0.0576 0.361502,-0.24618 0.419102,-0.41899 z m 1.644084,0.28112 c -0.0021,-0.10914 -0.114819,-0.37358 -0.250198,-0.58765 -0.304834,-0.48201 -0.662464,-0.18056 -0.448199,0.3778 0.158242,0.41237 0.70589,0.57693 0.698397,0.20985 z m -18.841133,-0.2141 c -0.269645,-0.26965 -1.815359,-0.36796 -1.652921,-0.10513 0.08603,0.1392 0.526423,0.25309 0.978649,0.25309 0.452228,0 0.75565,-0.0666 0.674272,-0.14796 z m 1.530551,-0.24051 c 0.282474,-0.21365 0.374499,-0.39224 0.204502,-0.39687 -0.502653,-0.0137 -1.14612,0.29458 -1.14612,0.54906 0,0.34676 0.358585,0.2888 0.941618,-0.15219 z m -38.92823,-0.29189 c 0.22868,-0.22868 0.41578,-0.65453 0.41578,-0.94634 0,-0.4629 -0.0844,-0.4303 -0.66146,0.25553 -0.3638,0.43235 -0.66146,0.85821 -0.66146,0.94634 0,0.29967 0.48996,0.16165 0.90714,-0.25553 z m -2.06471,-0.78817 c 0.36847,-0.56235 0.4154,-1.10236 0.2817,-3.24115 -0.18891,-3.02195 -0.65654,-4.53443 -1.8777,-6.07308 -0.69208,-0.87202 -0.92948,-1.031 -1.0542,-0.70597 -0.27949,0.72833 -0.17499,1.66487 0.21026,1.88443 0.75054,0.42776 1.74543,2.75964 1.74543,4.09104 0,0.70791 0.14311,1.51626 0.31803,1.79635 0.25142,0.40259 0.24205,0.65121 -0.0447,1.18704 -0.42334,0.79101 -0.71236,0.84136 -1.37697,0.2399 -0.58689,-0.53113 -0.62329,-1.23368 -0.087,-1.67878 0.21828,-0.18116 0.39688,-0.5559 0.39688,-0.83276 0,-0.94674 -1.06098,-3.52349 -1.72367,-4.18617 -0.56715,-0.56716 -0.73683,-0.61512 -1.18532,-0.33503 -0.28788,0.17978 -1.03105,0.33115 -1.65149,0.33639 -0.82154,0.007 -1.34374,0.19485 -1.92181,0.69159 -0.54854,0.47135 -0.63028,0.62199 -0.26459,0.48761 0.29104,-0.10695 1.10011,-0.25524 1.79793,-0.32953 1.23075,-0.13102 1.30409,-0.0982 2.4474,1.09502 1.61299,1.68341 1.53605,2.76334 -0.18403,2.58292 -0.8704,-0.0913 -1.14174,0.29994 -0.69932,1.00836 0.35591,0.56991 1.12502,0.72112 1.40052,0.27535 0.0899,-0.14552 0.34556,-0.26459 0.56804,-0.26459 0.32472,0 0.36957,0.20685 0.22735,1.04863 -0.23014,1.36218 -0.0538,1.59721 1.1985,1.59721 0.81922,0 1.12935,-0.14152 1.47875,-0.67478 z m 40.98188,-0.79829 c 1.371074,-1.12349 1.803792,-2.3767 1.018974,-2.95107 -0.440325,-0.32226 -0.510077,-0.29547 -0.638542,0.24524 -0.193072,0.81262 -0.803379,0.76816 -1.287172,-0.0938 -0.364755,-0.64985 -0.34626,-0.76976 0.254439,-1.64959 0.35628,-0.52184 0.992974,-1.06969 1.41487,-1.21744 0.998374,-0.34962 2.686495,-0.34322 3.417496,0.013 0.401558,0.19566 0.314233,0.0342 -0.286152,-0.52917 -0.497446,-0.46675 -1.150334,-0.81076 -1.538748,-0.81076 -0.371073,0 -0.917715,-0.13007 -1.214763,-0.28904 -0.815922,-0.43667 -2.234824,1.05176 -2.775453,2.91146 l -0.418475,1.4395 0.892214,0.73408 0.892213,0.73408 -0.667991,0.67506 c -0.624615,0.63123 -0.706224,0.64828 -1.256771,0.26267 -0.493993,-0.34601 -0.58878,-0.66035 -0.58878,-1.95258 0,-1.77223 0.404667,-2.8953 1.572644,-4.36456 0.74437,-0.93639 0.809251,-1.16036 0.651462,-2.24896 -0.09638,-0.66495 -0.202914,-1.24201 -0.236736,-1.28235 -0.149188,-0.17794 -1.533903,1.9114 -2.444065,3.68775 -0.903441,1.76323 -0.993047,2.12716 -0.974167,3.95647 0.01691,1.63915 0.130895,2.16925 0.611553,2.84427 0.845137,1.18689 2.061149,1.14832 3.60195,-0.11425 z m 1.959557,0.25892 c 0.447728,-0.37674 0.814052,-0.81573 0.814052,-0.97554 0,-0.15981 -0.333936,0.0294 -0.742082,0.42039 -0.408144,0.39103 -0.884394,0.71096 -1.058334,0.71096 -0.173937,0 -0.316251,0.11907 -0.316251,0.26459 0,0.4434 0.447808,0.29887 1.302615,-0.4204 z m -41.421467,-0.17492 c 0.25753,-0.96096 0.18995,-3.10885 -0.0978,-3.10885 -0.14552,0 -0.2662,0.56555 -0.26819,1.25677 -0.002,0.69122 -0.0754,1.52466 -0.16315,1.85208 -0.0877,0.32743 -0.0405,0.59532 0.10504,0.59532 0.14553,0 0.33638,-0.26789 0.42412,-0.59532 z m 56.523019,0.0661 c 0,-0.14552 -0.357187,-0.26458 -0.79375,-0.26458 -0.436562,0 -0.79375,0.11906 -0.79375,0.26458 0,0.14552 0.357188,0.26458 0.79375,0.26458 0.436563,0 0.79375,-0.11906 0.79375,-0.26458 z m -77.472699,-1.45521 c 0.0882,-0.75526 0.0203,-0.92604 -0.36793,-0.92604 -0.34632,0 -0.47604,0.20428 -0.47604,0.74965 0,1.38761 0.68583,1.53095 0.84397,0.17639 z m 13.58785,-0.14537 c 0,-0.94173 -0.0415,-1.01471 -0.34258,-0.6029 -0.18842,0.25768 -0.28042,0.63049 -0.20445,0.82846 0.076,0.19798 0.13813,0.46929 0.13813,0.60291 0,0.13362 0.092,0.24294 0.20445,0.24294 0.11245,0 0.20445,-0.48213 0.20445,-1.07141 z m 63.575298,-0.20654 c 0.07266,-0.51297 -0.01619,-0.60182 -0.529167,-0.52916 -0.410993,0.0582 -0.645597,0.29282 -0.703813,0.70381 -0.07266,0.51298 0.01619,0.60183 0.529167,0.52917 0.410993,-0.0582 0.645596,-0.29282 0.703813,-0.70382 z m -69.805038,-0.6444 c 0,-0.7009 0.98976,-2.0137 2.70531,-3.58831 1.36089,-1.24908 1.96747,-1.63309 2.57969,-1.63309 0.93623,0 1.06588,-0.39631 0.20511,-0.62698 -0.94014,-0.25195 -1.06437,-0.20908 -2.15659,0.74418 -0.56765,0.49544 -1.4224,1.11099 -1.89942,1.36789 -0.69064,0.37193 -0.97895,0.79755 -1.41529,2.08934 -0.6269,1.8559 -0.6449,1.98182 -0.28339,1.98182 0.14552,0 0.26458,-0.15068 0.26458,-0.33485 z m 61.689676,-1.38062 c -0.0784,-0.98581 -0.257598,-1.32175 -1.060241,-1.98771 -0.531238,-0.44077 -1.459388,-1.27615 -2.062559,-1.8564 -0.798658,-0.76831 -1.319922,-1.055 -1.918229,-1.055 -0.886439,0 -1.112936,0.44547 -0.358537,0.70517 0.254661,0.0877 0.820208,0.50061 1.256771,0.91766 0.436562,0.41705 1.346091,1.23754 2.021176,1.82333 0.675081,0.58577 1.374137,1.41925 1.553453,1.85215 0.465058,1.12275 0.677349,0.97359 0.568166,-0.3992 z m 8.424913,0.12797 c 0.539121,-0.17265 0.429017,-0.21671 -0.595312,-0.23821 -0.691224,-0.0145 -1.256771,0.0927 -1.256771,0.23821 0,0.30621 0.895969,0.30621 1.852083,0 z m -77.522919,-1.17501 c 0,-0.20969 -0.11906,-0.45484 -0.26458,-0.54478 -0.14552,-0.0899 -0.26459,-0.1067 -0.26459,-0.0372 0,0.0694 -0.0723,0.3146 -0.1606,0.54478 -0.10538,0.27463 -0.0144,0.41851 0.26459,0.41851 0.23385,0 0.42518,-0.17156 0.42518,-0.38126 z m 76.993753,-0.54478 c 0,-0.21828 -0.119063,-0.39687 -0.264584,-0.39687 -0.14552,0 -0.264583,0.17859 -0.264583,0.39687 0,0.21828 0.119063,0.39688 0.264583,0.39688 0.145521,0 0.264584,-0.1786 0.264584,-0.39688 z m -28.16255,-0.80216 c -0.586481,-0.4436 -0.941618,-0.49863 -0.941618,-0.14593 0,0.27353 0.465913,0.50329 1.058334,0.52191 0.295745,0.009 0.266004,-0.0865 -0.116716,-0.37598 z m 0.604144,-1.07276 c -0.2349,-0.2349 -0.696756,-0.37161 -1.048882,-0.31047 l -0.629172,0.10924 0.661459,0.2937 c 0.363802,0.16153 0.8358,0.30125 1.048885,0.31047 0.325379,0.0141 0.320209,-0.0504 -0.03229,-0.40294 z m -49.236787,-0.30789 c 0.0646,-0.19399 -0.11778,-0.33073 -0.44109,-0.33073 -0.325,0 -0.55122,0.17084 -0.55122,0.41627 0,0.48628 0.82562,0.4151 0.99231,-0.0855 z m 76.706338,0.0484 c 0.08752,-0.22806 0.02339,-0.55038 -0.142486,-0.71626 -0.372385,-0.37239 -1.25458,0.38854 -0.974977,0.84095 0.264081,0.42729 0.934347,0.3525 1.117463,-0.12469 z m -50.9757281,-0.0616 c 0,-0.27384 -0.57283,-0.84667 -0.84667,-0.84667 -0.34182,0 -0.24243,0.73724 0.11906,0.88311 0.51018,0.20586 0.72761,0.19497 0.72761,-0.0364 z m 2.11666,-0.46541 c 0,-0.20969 -0.11906,-0.38126 -0.26458,-0.38126 -0.14552,0 -0.26458,0.24516 -0.26458,0.54479 0,0.29963 0.11906,0.47119 0.26458,0.38125 0.14552,-0.0899 0.26458,-0.33508 0.26458,-0.54478 z M 17.045526,282.6314 c 0.153202,-0.10691 0.536245,-0.61884 0.851207,-1.1376 0.433255,-0.71361 0.533654,-1.18357 0.412433,-1.93058 -0.188603,-1.16222 -0.743646,-1.21229 -1.388491,-0.12527 -0.230056,0.38781 -0.680514,1.12917 -1.001017,1.64746 -0.582737,0.94234 -0.582737,0.94234 -0.0073,1.34541 0.650748,0.4558 0.743812,0.47227 1.133144,0.20058 z m -22.4806441,-1.75284 c -0.20487,-1.09203 -0.55316,-1.39336 -1.09283,-0.94547 -0.54408,0.45154 -0.47873,1.04743 0.19329,1.76277 0.7377,0.78524 1.13283,0.42624 0.89954,-0.8173 z m -11.6209299,0.7647 c 0.1056,-0.32866 -1.36682,-1.19062 -2.03385,-1.19062 -0.27066,0 -0.55807,-0.10674 -0.6387,-0.2372 -0.0806,-0.13046 -0.95086,-0.37719 -1.93384,-0.5483 -2.27328,-0.3957 -3.3979,-0.93246 -3.96493,-1.89236 -0.82426,-1.39536 -1.14182,-0.71283 -0.4976,1.06947 0.24678,0.68275 0.56876,0.98879 1.31038,1.24555 0.54077,0.18722 1.15562,0.27424 1.36634,0.19338 0.2412,-0.0926 0.50023,0.10999 0.69922,0.54673 0.17386,0.38156 0.56358,0.74805 0.86605,0.81442 1.80657,0.3964 4.69943,0.39576 4.82693,-0.001 z m -15.45676,-0.19844 c 0.17961,-0.4884 -0.0582,-0.99218 -0.46832,-0.99218 -0.53888,0 -0.74264,0.50166 -0.38082,0.93763 0.39225,0.47264 0.6884,0.49166 0.84914,0.0545 z m 24.4731499,-1.85485 c 0.38546,-0.42779 0.37397,-0.51448 -0.1408,-1.06243 -0.38534,-0.41017 -0.48651,-0.71635 -0.32373,-0.97972 0.20456,-0.331 0.36348,-0.32268 1.16843,0.0612 0.56065,0.26736 0.99455,0.34252 1.08958,0.18876 0.0869,-0.14054 0.43398,-0.25553 0.77137,-0.25553 0.3374,0 0.76167,-0.17859 0.94282,-0.39688 0.27395,-0.33008 0.24109,-0.39687 -0.19526,-0.39687 -0.28855,0 -0.96326,-0.29766 -1.49935,-0.66146 -0.5361,-0.3638 -1.07804,-0.66146 -1.20433,-0.66146 -0.12628,0 -0.76571,0.75128 -1.42094,1.66951 l -1.1913399,1.66951 0.7050899,1.53511 c 0.70503,1.53498 0.7051,1.53504 0.79192,0.6456 0.0478,-0.48924 0.2757,-1.09913 0.50654,-1.35531 z M 33.792249,281.097 c 0.170181,-0.37351 0.675209,-0.67478 1.464157,-0.87344 1.396439,-0.35163 2.179312,-1.07915 2.340097,-2.17464 0.159843,-1.08909 -0.0028,-1.11915 -0.848021,-0.15679 -0.752341,0.85654 -1.964979,1.32606 -4.238798,1.64122 -1.240978,0.172 -3.401946,0.85901 -3.805444,1.20982 -0.128463,0.11168 -0.173365,0.35989 -0.09978,0.55158 0.09655,0.25151 0.800931,0.35184 2.530896,0.36047 2.20377,0.011 2.418059,-0.034 2.656895,-0.55822 z m 10.305945,-0.16998 c 0.09533,-0.49124 -0.517432,-0.77583 -1.012156,-0.47007 -0.297021,0.18357 -0.297423,0.29036 -0.0024,0.64579 0.410837,0.49503 0.900909,0.41016 1.014598,-0.17572 z m -22.939916,-1.71787 c 0.24455,-0.45314 0.240081,-0.76075 -0.02019,-1.38906 -0.183846,-0.44387 -0.422699,-0.80704 -0.530773,-0.80704 -0.108074,0 -0.527521,0.47767 -0.932103,1.06148 -0.687573,0.99217 -0.7072,1.09287 -0.300567,1.54219 0.239268,0.26439 0.437684,0.70946 0.44092,0.98904 0.0052,0.44995 0.06461,0.43236 0.517242,-0.15312 0.281247,-0.36381 0.652709,-0.92338 0.825468,-1.24349 z m -53.603806,-0.34401 c 0,-0.19403 -0.14883,-0.40239 -0.33073,-0.46302 -0.19674,-0.0656 -0.33073,0.122 -0.33073,0.46302 0,0.34102 0.13399,0.5286 0.33073,0.46302 0.1819,-0.0606 0.33073,-0.269 0.33073,-0.46302 z m 76.453287,0.0183 c 0.195673,-0.3166 -0.302053,-0.6303 -0.654473,-0.41249 -0.295899,0.18287 -0.101645,0.65879 0.268899,0.65879 0.128344,0 0.301852,-0.11084 0.385574,-0.2463 z m -76.056407,-1.03252 c 0,-0.34451 -0.31453,-0.57363 -0.57039,-0.4155 -0.27364,0.16912 -0.0377,0.63599 0.32142,0.63599 0.13693,0 0.24897,-0.0992 0.24897,-0.22049 z m 22.0691899,-0.59357 c 0.37673,-0.44772 0.68497,-0.94381 0.68497,-1.10242 0,-0.15861 -0.0298,-0.23746 -0.0661,-0.17522 -0.0364,0.0622 -0.47646,0.55833 -0.9779499,1.10243 -0.50149,0.54409 -0.77996,0.98927 -0.61883,0.98927 0.16113,0 0.60121,-0.36633 0.9779499,-0.81406 z m 31.8869471,-1.07002 c -0.46018,-0.78047 -0.941623,-1.69502 -1.069878,-2.03236 -0.21428,-0.56359 -0.763344,-0.59954 -0.763344,-0.05 0,0.25382 1.421321,2.47831 2.070442,3.24041 0.726831,0.85335 0.608684,0.27657 -0.23722,-1.15809 z m -35.188927,0.36272 c 1.29083,-1.5424 1.34112,-1.61391 1.34112,-1.90706 0,-0.4389 -0.52907,-0.31927 -0.7135,0.16132 -0.0922,0.2404 -0.6233,0.84867 -1.18013,1.35173 -0.55682,0.50306 -0.94683,1.02075 -0.86669,1.15042 0.26011,0.42086 0.57392,0.2536 1.4192,-0.75641 z m 32.892684,0.28467 c 0.841833,-0.16926 0.875803,-0.28607 0.315728,-1.08569 -0.472025,-0.67391 -0.909286,-0.71891 -2.295163,-0.23622 -1.352672,0.47113 -1.432901,0.61147 -0.703879,1.23126 0.427607,0.36353 0.847275,0.48917 1.294252,0.38745 0.363802,-0.0828 0.98888,-0.21634 1.389062,-0.2968 z m -30.287134,-0.54925 c 0.62211,-0.89331 1.1616499,-2.42539 0.9657499,-2.74237 -0.3061499,-0.49536 -0.6920499,-0.18985 -1.1942599,0.94547 -0.287,0.64882 -0.63749,1.25116 -0.77887,1.33853 -0.39912,0.24668 -0.30265,1.18597 0.12181,1.18597 0.20837,0 0.60688,-0.32742 0.88557,-0.7276 z m 53.79637,-0.14452 c -0.33959,-0.33959 -0.683961,-0.0771 -0.432552,0.32967 0.09739,0.15757 0.298278,0.21159 0.446424,0.12003 0.18071,-0.11169 0.176146,-0.25968 -0.01386,-0.4497 z M 25.22816,274.68584 c -0.651645,-0.83007 -1.184886,-1.60235 -1.184976,-1.71616 -5.29e-4,-0.551 -0.81357,-2.06111 -1.035846,-1.92373 -0.363707,0.22478 0.644014,2.40488 1.874798,4.05593 0.572402,0.76785 1.151003,1.32794 1.285785,1.24464 0.134778,-0.0833 -0.288113,-0.8306 -0.939761,-1.66068 z m -39.880458,1.00722 c 0.9128,-0.55655 1.11197,-1.3164 0.48208,-1.83917 -0.2078,-0.17246 -1.19298,-0.33586 -2.1893,-0.36312 -1.42895,-0.0391 -1.9713,-0.17528 -2.56828,-0.64488 -0.54929,-0.43209 -1.10975,-0.59532 -2.04403,-0.59532 -0.70798,0 -1.2833,0.0893 -1.27849,0.19844 0.005,0.10914 0.68942,0.52127 1.52135,0.91586 0.83194,0.39457 2.27833,1.19825 3.21422,1.78593 0.93588,0.58769 1.76932,1.06808 1.85208,1.06753 0.0828,-5.3e-4 0.53743,-0.23692 1.01037,-0.52527 z m 38.695315,0.23638 c 0,-0.15944 -0.219424,-0.60592 -0.487608,-0.99219 -0.268187,-0.38627 -0.654439,-1.08926 -0.85834,-1.5622 -0.427067,-0.99057 -0.66583,-1.07802 -0.90301,-0.33073 -0.206243,0.64982 0.03828,1.48774 0.714187,2.4474 0.502859,0.71396 1.534771,1.00826 1.534771,0.43772 z m -32.5531251,-1.39616 c -0.009,-0.53024 -0.0313,-0.52452 -0.3875,0.0985 -0.49532,0.86648 -0.49532,1.20484 0,0.79375 0.21828,-0.18115 0.39265,-0.58269 0.3875,-0.89229 z m 38.9289121,-0.69493 c 1.073137,-0.72745 2.339785,-1.39555 2.81477,-1.48465 0.474985,-0.0891 0.86361,-0.27374 0.86361,-0.4103 0,-0.28426 -3.158098,-0.004 -3.571875,0.31678 -0.145521,0.11288 -0.667475,0.26808 -1.159896,0.3449 -0.492421,0.0768 -1.022249,0.2666 -1.177396,0.42174 -0.155146,0.15515 -0.794052,0.28209 -1.419791,0.28209 -1.346232,0 -1.504096,0.46714 -0.440568,1.30371 1.078664,0.84848 1.936877,0.68605 4.091146,-0.77427 z m -62.418622,-0.0675 c -1.72357,-0.87532 -2.05892,-2.18425 -0.99245,-3.87365 0.74717,-1.18358 1.45708,-1.44834 3.76367,-1.40364 1.20085,0.0233 1.66813,-0.0693 1.7766,-0.35194 0.1802,-0.4696 -1.06398,-0.85243 -1.46548,-0.45093 -0.14832,0.14832 -0.71554,0.20987 -1.26049,0.13678 -1.13173,-0.1518 -2.19359,0.3061 -3.1936,1.37715 -0.54217,0.58068 -0.65894,0.96682 -0.64747,2.14113 0.0166,1.69691 0.69979,2.81014 1.86606,3.04048 1.22592,0.24211 1.29501,-0.0355 0.15316,-0.61538 z m 76.790882,-0.52835 c 0.01196,-0.0362 0.170574,-0.33212 0.352475,-0.65757 0.181901,-0.32545 0.330729,-1.20266 0.330729,-1.94935 0,-1.21782 -0.102182,-1.4588 -0.992187,-2.33986 -1.693635,-1.67663 -5.579698,-2.09343 -7.583792,-0.81342 -0.449202,0.28691 -1.397014,0.85207 -2.10625,1.25592 -0.709235,0.40385 -1.602203,0.9984 -1.984376,1.32122 l -0.694854,0.58695 0.877549,0.008 c 0.541121,0.005 1.213832,-0.24813 1.754714,-0.66068 0.482442,-0.36798 1.575827,-1.00597 2.429743,-1.41775 3.098708,-1.4943 6.818353,-0.92194 7.503682,1.15463 0.369652,1.12005 -0.0265,2.63929 -0.795523,3.05086 -1.057217,0.56581 -2.906623,0.12778 -2.906623,-0.68841 0,-0.22175 -0.114572,-0.33237 -0.254606,-0.24583 -0.429749,0.2656 0.274344,1.42386 1.015789,1.67101 0.556987,0.18566 2.973184,-0.0328 3.05353,-0.27608 z m -73.893832,-0.63566 c -0.24893,-0.42826 -0.28495,-0.39224 -0.292,0.292 -0.006,0.56921 0.071,0.70147 0.28395,0.48852 0.20927,-0.20927 0.21155,-0.4304 0.008,-0.78052 z m 17.9632,0.42444 c 0.15962,-0.29824 0.246,-0.86379 0.19197,-1.25677 -0.0881,-0.64094 -0.11903,-0.66003 -0.30021,-0.18536 -0.11108,0.29105 -0.31234,0.73591 -0.44724,0.9886 -0.1349,0.25269 -0.24527,0.58011 -0.24527,0.72761 0,0.46263 0.49764,0.2923 0.80075,-0.27408 z m -1.34151,-0.22984 c 0.48909,-0.91388 0.005,-2.1683 -1.2797,-3.31311 -0.66277,-0.5908 -1.83572,-1.72283 -2.60657,-2.51564 l -1.40153,-1.44146 0.16955,0.91229 c 0.10541,0.56715 0.60737,1.36619 1.32678,2.11201 0.638,0.66142 1.15723,1.45574 1.15723,1.77033 0,0.31383 0.11906,0.64419 0.26458,0.73413 0.14552,0.0899 0.26459,0.38598 0.26459,0.65787 0,0.46717 1.14001,1.59109 1.61387,1.59109 0.12078,0 0.34182,-0.22838 0.4912,-0.50751 z m 27.246907,-0.88156 c -0.01569,-0.8043 -0.03283,-0.81983 -0.265097,-0.24015 -0.136578,0.34087 -0.181536,0.72782 -0.0999,0.8599 0.270888,0.43831 0.38196,0.24972 0.365001,-0.61975 z m 10.864689,-0.16113 c 0,-0.59547 0.507293,-1.09564 1.11125,-1.09564 0.35171,0 0.47625,-0.20549 0.47625,-0.78583 0,-0.57013 0.222702,-0.95048 0.811355,-1.38569 0.901724,-0.66667 2.283643,-3.12015 1.757413,-3.12014 -0.175895,1e-5 -0.62873,0.38696 -1.006301,0.8599 -0.377571,0.47294 -1.028795,1.03848 -1.44717,1.25676 -0.418372,0.21828 -0.961313,0.57547 -1.206532,0.79375 -0.245221,0.21828 -0.767638,0.62044 -1.160933,0.89368 -0.641528,0.44571 -0.697355,0.60764 -0.542767,1.57437 0.186077,1.16365 0.597498,1.84643 0.972831,1.61447 0.129032,-0.0797 0.234604,-0.35228 0.234604,-0.60563 z m -41.275006,0.2429 c 0,-0.13694 -0.12891,-0.32865 -0.28648,-0.42603 -0.15756,-0.0974 -0.50591,-0.68898 -0.77411,-1.31466 -0.34604,-0.80727 -1.10155,-1.64551 -2.60183,-2.88672 -2.98057,-2.46589 -5.92797,-6.91371 -6.28608,-9.48611 -0.18452,-1.3255 -0.45154,-1.43401 -0.5753,-0.23379 -0.26682,2.58758 0.0821,3.74358 1.68459,5.58101 0.91302,1.04688 1.43088,1.88025 1.43088,2.30265 0,0.98018 0.4304,1.61654 1.58729,2.34685 0.56945,0.35948 1.53713,1.31819 2.1504,2.13046 1.05448,1.39665 2.16819,2.16527 3.20762,2.21372 0.25466,0.0119 0.46302,-0.0904 0.46302,-0.22738 z m 44.36812,-0.55589 c 0.434954,-0.15162 1.13733,-0.76893 1.560835,-1.37178 0.423505,-0.60286 1.580785,-1.87114 2.571732,-2.81841 1.427802,-1.36488 1.771636,-1.84219 1.656754,-2.29992 -0.09993,-0.39816 0.111379,-0.89592 0.680215,-1.60225 1.165572,-1.44734 1.756503,-2.87275 1.637739,-3.95047 -0.05577,-0.5061 0.02913,-1.16408 0.188664,-1.46218 0.379233,-0.7086 0.759714,-3.13504 0.515281,-3.28611 -0.104502,-0.0646 -0.375682,0.63498 -0.60262,1.5546 -1.041871,4.22195 -3.306099,8.00268 -7.235571,12.08171 -0.635651,0.65984 -1.155727,1.45359 -1.155727,1.76387 0,0.31029 -0.327422,0.80844 -0.727604,1.10701 -0.821886,0.61319 -0.406175,0.74286 0.910302,0.28393 z m -49.59459,-0.39239 c 0.0404,-0.40833 -2.78383,-2.01078 -3.05896,-1.73566 -0.36691,0.36691 -0.002,0.76105 1.35832,1.46883 1.26824,0.65966 1.65579,0.72047 1.70064,0.26683 z m 63.699393,-0.12567 c 0,-0.14552 -0.245153,-0.26459 -0.544783,-0.26459 -0.29963,0 -0.471196,0.11907 -0.381259,0.26459 0.08994,0.14552 0.33509,0.26458 0.544782,0.26458 0.209693,0 0.38126,-0.11906 0.38126,-0.26458 z m -63.624833,-1.57543 c -0.0858,-0.13888 -0.72634,-0.56289 -1.42335,-0.94225 -1.31811,-0.71741 -2.15723,-1.78435 -2.09255,-2.6607 0.0518,-0.7015 -0.82239,-1.96524 -1.55105,-2.24228 -1.18333,-0.4499 -1.72918,-1.91249 -2.02827,-5.43466 -0.0505,-0.59475 -0.35166,-1.50177 -0.66922,-2.01561 -0.45527,-0.73663 -0.57841,-1.34737 -0.58221,-2.88739 -0.005,-1.98729 -0.35071,-2.83379 -1.98682,-4.86356 -0.42654,-0.52917 -0.42654,-0.52917 -0.23787,0 0.42208,1.18385 1.19417,4.89435 1.43843,6.91278 0.46093,3.80898 2.01214,8.26855 3.78081,10.86941 0.31749,0.46688 1.17366,1.15168 1.90261,1.52178 0.72895,0.3701 1.68255,0.96609 2.11911,1.32443 0.78245,0.64226 1.6344,0.90997 1.33038,0.41805 z m 16.0124099,-0.55471 c 0.93857,-1.00474 1.18745,-1.74595 0.75942,-2.2617 -0.45355,-0.54649 -1.93077,-0.38367 -2.04617,0.22554 -0.0762,0.40203 0.009,0.42719 0.63623,0.18861 1.06164,-0.40364 1.41933,0.0741 0.73836,0.98616 -0.59926,0.80265 -1.74321,1.21303 -2.77422,0.99523 -0.6866,-0.14505 -1.11976,-1.00899 -1.38691,-2.7662 -0.0553,-0.36381 -0.11677,-0.0526 -0.13659,0.69152 -0.0302,1.13597 0.0759,1.46487 0.6615,2.05052 1.02157,1.02157 2.53535,0.97478 3.54838,-0.10968 z m 23.0721301,0.0796 c 0.89281,-0.93588 1.256959,-1.92269 1.256959,-3.40628 0,-1.55597 -0.425429,-1.27215 -0.585179,0.39039 -0.229415,2.38756 -1.837415,3.76818 -3.28448,2.82003 -0.600985,-0.39378 -0.672809,-0.58678 -0.552415,-1.48438 0.149312,-1.1132 -0.220877,-1.40101 -0.574048,-0.4463 -0.308224,0.83321 -0.08289,1.44049 0.814768,2.19582 1.03514,0.87101 2.050307,0.84696 2.924395,-0.0693 z m 16.788279,-1.5875 c 2.895798,-2.87495 4.350559,-6.1216 5.756312,-12.84658 0.340572,-1.62925 0.804593,-3.49341 1.031161,-4.14257 0.226565,-0.64916 0.341381,-1.24448 0.255143,-1.32292 -0.08624,-0.0784 -0.20995,0.006 -0.274916,0.18811 -0.06496,0.1819 -0.282599,0.33073 -0.483634,0.33073 -0.560994,0 -0.835203,0.74756 -1.0418,2.84019 -0.103934,1.05279 -0.415197,2.35788 -0.691695,2.90021 -0.276497,0.54234 -0.502724,1.36949 -0.502724,1.83812 0,1.26899 -1.491356,5.07441 -2.389619,6.09747 -0.482243,0.54925 -0.785381,1.18886 -0.785381,1.65713 0,0.61043 -0.382815,1.10963 -1.918229,2.5014 -1.534959,1.39137 -1.801871,1.73937 -1.335868,1.74171 0.36727,0.002 1.246767,-0.65669 2.38125,-1.783 z m -42.2542391,0.0568 c 0,-0.2234 0.19629,-0.70576 0.43621,-1.07192 0.46868,-0.71531 0.33007,-0.99664 -0.63465,-1.28811 -0.50396,-0.15226 -0.59531,-0.0807 -0.59531,0.46635 0,1.03107 0.31018,2.29987 0.56224,2.29987 0.12733,0 0.23151,-0.18279 0.23151,-0.40619 z m 23.6957861,-0.79285 c -0.282474,-0.21366 -0.639662,-0.38468 -0.79375,-0.38005 -0.154088,0.005 -0.04904,0.18322 0.233431,0.39688 0.282475,0.21365 0.639662,0.38467 0.793751,0.38004 0.154088,-0.005 0.04904,-0.18322 -0.233432,-0.39687 z m 4.672894,-2.70357 c -0.718225,-1.03086 -0.839676,-1.74097 -0.519287,-3.03618 0.381288,-1.54139 1.604118,-2.68406 3.445089,-3.21924 2.300629,-0.66881 2.76642,-1.69231 1.798167,-3.95115 -0.559856,-1.30609 -1.172528,-1.64694 -2.490129,-1.38534 -2.011119,0.39928 -3.964607,3.51953 -4.317098,6.89556 -0.07597,0.7276 -0.359452,1.82972 -0.629968,2.44916 -0.447696,1.02515 -0.451548,1.10448 -0.04292,0.88381 0.24691,-0.13333 0.733325,-0.99733 1.080927,-1.91999 1.249844,-3.31754 2.856716,-5.85626 4.165116,-6.58053 0.65978,-0.36522 1.685173,-0.11704 1.685173,0.40787 0,0.48727 -1.035142,1.1878 -1.755143,1.1878 -0.718785,0 -1.85875,1.31827 -2.515057,2.90843 -0.270722,0.65594 -0.611304,1.39936 -0.756846,1.65205 -0.145542,0.25268 -0.264621,1.08939 -0.264621,1.85935 0,1.477 0.522044,2.57601 1.223645,2.57601 0.330843,0 0.312362,-0.12563 -0.10705,-0.72761 z m -34.98731,-2.11666 c -0.002,-0.10915 -0.11634,-0.37604 -0.25357,-0.59311 -0.20306,-0.32119 -0.31272,-0.33145 -0.58905,-0.0551 -0.27632,0.27632 -0.26606,0.38598 0.0551,0.58905 0.47903,0.30285 0.79294,0.32644 0.78749,0.0592 z m 38.263902,-0.78824 c -0.268954,-0.26895 -0.490868,0.13596 -0.270198,0.49302 0.166696,0.26972 0.229018,0.26993 0.318638,0.001 0.06128,-0.18383 0.03948,-0.40617 -0.04844,-0.49408 z m -39.841262,-0.61555 c 0.46527,-1.12325 0.0317,-1.4899 -0.89755,-0.75896 -0.62414,0.49095 -0.81694,0.52322 -1.4814,0.24799 -0.42014,-0.17402 -0.96266,-0.53605 -1.2056,-0.80449 -0.60909,-0.67304 -0.6115,-2.22018 -0.005,-2.8909 0.48346,-0.53422 0.47928,-0.54142 -0.31436,-0.54142 -0.86338,0 -1.65893,0.86585 -1.65893,1.80553 0,0.67862 2.03138,2.94375 3.03011,3.37878 1.39406,0.60723 2.15417,0.47619 2.53223,-0.43653 z m 43.457632,0.5475 c 0.527259,-0.004 2.837469,-2.02526 2.83999,-2.4847 7.94e-4,-0.16337 0.171384,-0.62244 0.37886,-1.02016 0.219027,-0.41986 0.273825,-0.78703 0.130662,-0.87551 -0.135613,-0.0838 -0.246568,-0.37646 -0.246568,-0.65032 0,-0.59125 -0.112596,-0.67045 -1.322777,-0.93045 l -0.925901,-0.19893 0.869153,0.81191 c 0.720614,0.67316 0.839558,0.93923 0.695987,1.55688 -0.247714,1.06567 -0.759447,1.79843 -1.821876,2.60878 -1.050153,0.80099 -2.047023,0.74286 -2.523342,-0.14715 -0.376653,-0.70378 -0.793038,-0.66718 -0.788027,0.0693 0.0071,1.0479 0.692518,1.59836 1.715741,1.37797 0.291042,-0.0627 0.740185,-0.1156 0.998098,-0.11759 z m -39.294942,-0.73121 c 0.0675,-0.20562 -0.14266,-0.33073 -0.55566,-0.33073 -0.39345,0 -0.87644,-0.26969 -1.1846,-0.66146 -0.28617,-0.3638 -0.59247,-0.66146 -0.68066,-0.66146 -0.30009,0 -0.16179,1.48024 0.16923,1.81126 0.40981,0.40981 2.10425,0.2912 2.25169,-0.15761 z m 35.162833,-0.20985 c 0.08617,-0.22456 0.09648,-0.46848 0.02291,-0.54205 -0.261654,-0.26165 -1.519116,0.22022 -1.519116,0.58214 0,0.50822 1.299149,0.47341 1.496198,-0.0401 z m 4.664173,-1.24536 c 0.93594,-0.87935 1.315355,-1.9298 0.839632,-2.32462 -0.496705,-0.41222 -1.179169,-0.13589 -1.179169,0.47746 0,0.65977 -0.510701,1.11955 -1.243542,1.11955 -0.723765,0 -0.814607,0.64744 -0.145521,1.03714 0.695627,0.40517 1.03201,0.34494 1.7286,-0.30953 z m -44.855306,-0.1285 c 0.059,-0.17981 -0.19968,-0.46681 -0.57491,-0.63778 -0.42856,-0.19527 -0.68224,-0.52461 -0.68224,-0.88574 0,-0.75632 -0.26442,-0.9926 -0.70326,-0.62839 -0.48938,0.40615 -0.44581,1.68885 0.0751,2.20973 0.48236,0.48236 1.72046,0.44439 1.88534,-0.0578 z m 4.43139,0.19464 c -0.0899,-0.14552 -0.36485,-0.26276 -0.61093,-0.26053 -0.38557,0.003 -0.39255,0.0395 -0.0505,0.26053 0.51816,0.33486 0.86841,0.33486 0.66146,0 z m 11.48300987,-0.52677 c -1.11088997,-0.58715 -2.30234997,-1.88203 -2.93012997,-3.18445 -0.88572,-1.83755 -1.54142,-3.67771 -1.54142,-4.32586 0,-0.36462 -0.10342,-0.72686 -0.22983,-0.80498 -0.1264,-0.0781 -0.30752,-0.62792 -0.40248,-1.22176 -0.12753,-0.79752 -0.36161,-1.18817 -0.89561,-1.49464 -0.39762,-0.22821 -1.00299,-0.85809 -1.34526,-1.39975 -0.82493,-1.30548 -3.1213299,-3.64602 -3.7834399,-3.85617 -1.05412,-0.33456 -0.79081,0.16908 1.00659,1.92537 1.7507799,1.71073 3.2687799,4.09575 3.2687799,5.13576 0,0.25389 0.11906,0.53519 0.26458,0.62513 0.39473,0.24395 0.31975,2.79795 -0.14871,5.06591 -0.37675,1.82399 -0.36469,2.54714 0.0358,2.14663 0.36732,-0.36731 0.94845,-4.17604 0.84906,-5.56466 -0.15162,-2.11821 0.29661,-1.82248 1.14289,0.75407 0.37864,1.15278 1.01244,2.69128 1.40844,3.41888 0.94056,1.72812 2.65013997,3.31093 3.55954997,3.2956 0.66197,-0.0112 0.65017,-0.0346 -0.25883,-0.51508 z M 12.322015,257.89692 c 1.350891,-1.4197 2.387849,-3.38453 2.950731,-5.59106 0.676008,-2.64997 1.097355,-3.14548 1.097355,-1.2905 0,0.74812 0.119062,1.43381 0.264583,1.52374 0.145521,0.0899 0.264583,0.41393 0.264583,0.71998 0,0.79672 1.319387,2.96126 1.62111,2.65954 0.150307,-0.15031 -0.0296,-0.73638 -0.465418,-1.51614 -0.52851,-0.94561 -0.741836,-1.76034 -0.833046,-3.18159 -0.177072,-2.75913 0.758198,-4.64009 3.676076,-7.39311 1.182691,-1.11586 2.082755,-2.09643 2.000145,-2.17904 -0.338847,-0.33885 -2.117731,1.12828 -3.770117,3.10938 -0.96797,1.16054 -2.108666,2.2904 -2.534881,2.5108 -0.834874,0.43173 -1.281369,1.29328 -1.281369,2.47249 0,1.04619 -1.12871,4.41605 -1.981369,5.91554 -0.395865,0.69616 -1.260216,1.67843 -1.92078,2.18281 -1.07683,0.82222 -1.134062,0.91705 -0.553426,0.91705 0.3864,0 0.977622,-0.34683 1.465823,-0.85989 z m 26.107722,-0.4961 c 0.417208,-2.08604 0.05267,-6.27087 -0.603409,-6.92695 -0.541589,-0.54159 -0.60375,0.0596 -0.148032,1.43158 0.360998,1.08686 0.428318,1.9164 0.312746,3.8536 -0.142965,2.39627 0.103399,3.31826 0.438695,1.64177 z m -53.867235,-0.42994 c -1.45346,-2.83601 -1.5011,-3.66423 -0.29334,-5.09957 0.38637,-0.45918 0.52358,-0.78741 0.32914,-0.78741 -0.51876,0 -1.30112,0.82228 -1.30112,1.36751 0,0.27046 -0.14471,0.72347 -0.32158,1.00669 -0.34482,0.55214 -0.0238,1.8804 0.75317,3.1159 0.33398,0.53111 1.08598,0.88908 0.83373,0.39688 z m -11.47818,-1.7198 c -0.0828,-0.9095 -0.19812,-1.80718 -0.25623,-1.99483 -0.0581,-0.18766 -0.004,-0.54484 0.11916,-0.79375 0.49436,-0.9951 0.80855,-2.29456 0.60421,-2.49891 -0.11899,-0.11899 -0.55028,0.0931 -0.95841,0.47137 -0.7143,0.66199 -0.73531,0.7538 -0.5617,2.45426 0.22208,2.1752 0.66866,4.01551 0.97443,4.01551 0.12602,0 0.16136,-0.74414 0.0785,-1.65365 z m 18.9441099,-0.16113 c 0,-0.83653 -0.42784,-1.36022 -1.11125,-1.36022 -0.59693,0 -0.59439,0.0541 0.0631,1.3428 0.588,1.15258 1.04819,1.16022 1.04819,0.0174 z m 6.87917,-0.41856 c 0,-0.79178 -0.11906,-1.51318 -0.26459,-1.60312 -0.16632,-0.10279 -0.26458,-2.9491 -0.26458,-7.66404 v -7.50053 l -1.48165,-0.0906 c -1.20502,-0.0737 -1.52828,-0.003 -1.7314,0.37668 -0.13735,0.25701 -0.86959,0.8233 -1.6272,1.25841 -0.7576,0.43511 -1.77727,1.12522 -2.26593,1.53358 l -0.88848,0.74247 1.48379,1.70133 c 0.81608,0.93574 1.48379,1.78909 1.48379,1.89634 0,0.10726 0.47051,0.43505 1.04558,0.72843 0.80487,0.41061 1.1091,0.76211 1.32144,1.52673 0.15173,0.54632 0.27653,1.17901 0.27733,1.40596 0.006,1.78637 2.0072,7.12798 2.66993,7.12798 0.13308,0 0.24197,-0.64782 0.24197,-1.43959 z m 13.8886581,0.12048 c 0.698381,-1.35052 1.181301,-3.05792 1.468011,-5.19026 0.385342,-2.86588 0.407271,-2.91374 1.543497,-3.36836 0.552866,-0.22122 1.197396,-0.69552 1.43229,-1.05402 0.234892,-0.35849 1.09858,-1.3771 1.919307,-2.26358 l 1.492226,-1.61179 -0.619392,-0.77468 c -0.465556,-0.58228 -1.058093,-0.88506 -2.385778,-1.21911 -0.971513,-0.24443 -1.97223,-0.67188 -2.22382,-0.94988 -0.325212,-0.35936 -0.812668,-0.50546 -1.686425,-0.50546 -1.509522,0 -1.93734,0.34329 -1.53321,1.23026 0.214445,0.47065 0.209121,0.71692 -0.02045,0.9465 -0.405599,0.4056 -0.449022,15.93186 -0.04386,15.68145 0.146556,-0.0906 0.442481,-0.50506 0.657611,-0.92107 z m 15.215508,-0.14357 c 0,-0.7499 -0.884381,-2.53913 -1.531462,-3.09836 -0.556543,-0.48097 -1.596498,-0.75621 -1.773737,-0.46943 -0.0719,0.11634 0.160753,0.28468 0.517003,0.37409 0.900248,0.22595 2.014281,1.78302 2.184692,3.05351 0.150407,1.12139 0.603504,1.22664 0.603504,0.14019 z m -49.477086,0.40435 c 0,-0.14552 -0.17859,-0.26459 -0.39687,-0.26459 -0.21829,0 -0.39688,0.11907 -0.39688,0.26459 0,0.14552 0.17859,0.26458 0.39688,0.26458 0.21828,0 0.39687,-0.11906 0.39687,-0.26458 z m 41.323654,-0.92716 c 0.166039,-0.36442 0.225896,-0.73858 0.133014,-0.83146 -0.269468,-0.26946 -0.975416,0.45229 -0.975416,0.99726 0,0.70952 0.487275,0.61361 0.842402,-0.1658 z m -38.810114,-0.26011 c -1.51345,-0.71083 -1.79973,-1.08177 -1.61106,-2.08749 0.095,-0.50637 0.52831,-1.30133 0.96291,-1.76657 0.72922,-0.78064 0.89187,-0.83613 2.10823,-0.71925 1.44227,0.13859 1.51529,0.0745 0.90617,-0.79514 -0.30517,-0.43569 -0.67759,-0.58803 -1.4375,-0.58803 -0.88766,0 -1.14785,0.15125 -1.93439,1.12448 -1.49501,1.84985 -1.76281,2.63924 -1.4071,4.14774 0.20285,0.86027 0.60207,1.07085 2.01587,1.06337 1.19062,-0.006 1.19062,-0.006 0.39687,-0.37911 z m 50.588441,-0.70882 c 0.189118,-0.15696 0.343855,-0.74258 0.343855,-1.3014 0,-0.80412 -0.237429,-1.3078 -1.138399,-2.415 -1.350521,-1.65965 -2.360115,-2.23491 -3.326114,-1.89518 -0.498491,0.17531 -0.727446,0.50245 -0.886114,1.26613 -0.117671,0.56636 -0.157572,1.08611 -0.08867,1.15502 0.06891,0.0689 0.496631,-0.18719 0.950505,-0.5691 1.112346,-0.93598 1.655197,-0.87543 2.617447,0.29194 1.065622,1.29279 1.038651,1.98608 -0.113022,2.905 -0.509318,0.40639 -0.926037,0.8434 -0.926042,0.97114 -1.1e-5,0.30107 2.117698,-0.036 2.566554,-0.40855 z m -49.515101,-0.55131 c 0.10062,-0.32742 0.41269,-0.81426 0.69349,-1.08187 0.68839,-0.65606 0.48832,-1.08337 -0.55518,-1.1857 -1.52263,-0.14931 -2.55801,1.38423 -1.58889,2.35335 0.67661,0.67661 1.22627,0.64411 1.45058,-0.0858 z m 9.9068699,-0.19844 c 0,-0.14552 -0.17859,-0.26458 -0.39687,-0.26458 -0.21829,0 -0.39688,0.11906 -0.39688,0.26458 0,0.14552 0.17859,0.26459 0.39688,0.26459 0.21828,0 0.39687,-0.11907 0.39687,-0.26459 z m -1.32292,-1.29911 c 0,-0.72905 -1.8821499,-2.81485 -3.1034199,-3.43921 -1.17727,-0.60186 -2.45283,0.20207 -2.45283,1.54593 0,0.68834 0.39085,0.69377 1.25072,0.0174 1.68617,-1.32634 4.0992799,0.30871 3.6272799,2.45773 -0.1657599,0.75469 -0.1408899,0.80314 0.24697,0.48125 0.23721,-0.19687 0.43128,-0.67526 0.43128,-1.06309 z m 39.0468251,0.63765 c 0.303377,-0.46397 0.252865,-0.64269 -0.409982,-1.45062 -0.747663,-0.91131 -0.762069,-0.91596 -1.307873,-0.42202 -0.665832,0.60257 -0.691182,1.0172 -0.11588,1.89523 0.50881,0.77654 1.317731,0.76658 1.833735,-0.0226 z m -40.601425,-0.23111 c 0.73591,-1.61515 -1.69614,-2.96372 -2.63466,-1.46092 -0.39239,0.62831 -0.19782,1.03058 0.49847,1.03058 0.28122,0 0.66002,0.23812 0.84178,0.52916 0.44132,0.70667 0.94492,0.66822 1.29441,-0.0988 z m 32.246272,-0.51652 c 0,-1.3277 0.675566,-2.12906 2.037551,-2.41697 0.66974,-0.14158 0.944967,-0.0645 1.315572,0.36831 0.257754,0.30103 0.570709,0.54734 0.695452,0.54734 0.312222,0 -0.07583,-1.67374 -0.443794,-1.91418 -0.950481,-0.62107 -3.273189,0.50548 -4.020068,1.94978 -0.515171,0.99623 -0.503786,2.61023 0.01842,2.61023 0.291613,0 0.396875,-0.30356 0.396875,-1.14451 z m 18.256251,-0.17841 c 0,-1.14589 -0.398481,-1.62232 -0.662125,-0.79164 -0.217784,0.68617 0.09754,2.16768 0.41907,1.96896 0.133681,-0.0826 0.243055,-0.61241 0.243055,-1.17732 z m -16.044271,-0.52916 c 0.522047,0 0.698437,-0.13364 0.698437,-0.52917 0,-0.37358 -0.175038,-0.52798 -0.595313,-0.52512 -0.739608,0.005 -1.094388,0.23474 -1.472435,0.95335 -0.355799,0.67632 -0.05484,1.09341 0.369861,0.5126 0.165558,-0.22642 0.615312,-0.41166 0.99945,-0.41166 z m -50.815192,-1.45521 c 0.0287,-0.14552 -0.29824,-0.30448 -0.72651,-0.35323 -0.69304,-0.0789 -0.73936,-0.0413 -0.4212,0.34207 0.37639,0.45353 1.05917,0.46017 1.14771,0.0112 z m 66.065498,-0.26419 c 0.459436,-0.85846 0.284401,-0.99784 -0.646543,-0.51486 -1.113698,0.57779 -1.207429,0.17864 -0.163555,-0.69648 1.209016,-1.01358 0.943422,-1.18735 -0.451819,-0.29563 -1.098571,0.70213 -1.467665,1.37428 -0.754639,1.37428 0.200462,0 0.512696,0.1786 0.693854,0.39688 0.478419,0.57646 0.920006,0.48826 1.322702,-0.26419 z m -65.087288,-0.40667 c 0,-0.29523 -2.37633,-1.40663 -2.57748,-1.20548 -0.2521,0.2521 0.23105,0.65131 0.98998,0.818 0.43323,0.0952 0.85561,0.28291 0.93862,0.41724 0.20427,0.3305 0.64888,0.31011 0.64888,-0.0298 z m 10.84792,-0.96956 c 0,-0.53207 -0.0765,-0.63789 -0.29972,-0.41466 -0.16484,0.16485 -0.22811,0.48631 -0.14059,0.71438 0.2422,0.63118 0.44031,0.49633 0.44031,-0.29972 z m -8.52285,-2.41039 c -0.0419,-0.2095 -0.44043,-0.66151 -0.8857,-1.00444 l -0.8096,-0.62353 -0.88869,0.74191 c -0.53147,0.4437 -0.81129,0.86714 -0.69614,1.05345 0.25008,0.40465 1.28894,0.401 1.69589,-0.006 0.24695,-0.24694 0.3175,-0.051 0.3175,0.88195 0,0.65969 0.0872,1.28663 0.19376,1.3932 0.23658,0.23658 1.17933,-1.90427 1.07298,-2.43658 z m -2.32507,1.94976 c 0,-0.47423 -0.43714,-0.76518 -0.8066,-0.53684 -0.18965,0.11721 -0.1794,0.28957 0.0324,0.54478 0.39977,0.48169 0.7742,0.47785 0.7742,-0.008 z m 63.453256,-0.50056 c 0.05064,-0.26109 -0.08434,-0.4411 -0.330729,-0.4411 -0.245436,0 -0.416274,0.22622 -0.416274,0.55122 0,0.6448 0.61827,0.55365 0.747003,-0.11012 z m -1.540753,-0.50203 c 0,-0.56718 -0.690894,-1.52657 -1.099342,-1.52657 -0.344723,0 -0.266202,0.627 0.194067,1.54963 0.448344,0.89873 0.905275,0.88709 0.905275,-0.0231 z m 2.38125,-0.6746 c 0,-0.3051 -1.759453,-1.9103 -2.093879,-1.9103 -0.158054,0 -0.287371,0.21967 -0.287371,0.48816 0,0.7541 0.87662,1.39578 2.182812,1.59781 0.109141,0.0169 0.198438,-0.0622 0.198438,-0.17567 z m -65.503743,-1.31499 c 0.0817,-0.25466 0.50612,-0.70115 0.94311,-0.99219 0.43699,-0.29104 0.79487,-0.67494 0.79529,-0.8531 10e-4,-0.44592 1.51116,-1.20549 1.72115,-0.86572 0.35228,0.57 1.17115,0.20885 2.10191,-0.92701 0.85982,-1.0493 1.10098,-1.19063 2.03171,-1.19063 0.58084,0 1.89447,-0.13008 2.91916,-0.28906 1.02469,-0.15899 2.28339,-0.21022 2.79712,-0.11384 1.57529,0.29553 0.59127,0.71441 -1.94592,0.82836 -2.83375,0.12727 -3.11684,0.20898 -3.47915,1.00416 -0.45022,0.98812 0.70202,1.89503 2.68706,2.11496 0.85593,0.0948 2.16102,0.46185 2.90021,0.81561 1.56853,0.75067 1.84701,0.69042 0.8016,-0.17343 -0.40927,-0.33818 -1.07757,-0.95749 -1.48512,-1.37623 -0.65421,-0.67219 -0.85655,-0.73825 -1.72779,-0.56408 -1.72424,0.34469 -2.57431,0.30303 -2.57431,-0.12614 0,-0.4805 2.45097,-0.90781 3.83646,-0.66886 4.16617,0.71852 5.00545,0.66243 5.7380499,-0.3835 0.19057,-0.27207 0.88246,-0.69937 1.53755,-0.94955 0.66582,-0.25428 1.19107,-0.62652 1.19107,-0.84411 0,-0.26417 -0.14877,-0.33031 -0.46302,-0.20585 -3.3192799,1.31466 -5.1303999,1.65668 -5.6238999,1.06204 -0.3508,-0.42269 -0.33268,-0.43229 1.02481,-0.54324 0.49006,-0.0401 1.01989,-0.20169 1.1774,-0.35919 0.46857,-0.46857 -8.94243,-0.36033 -10.2705,0.11812 -0.58208,0.20971 -1.27847,0.38308 -1.54751,0.38527 -0.49269,0.004 -1.44688,0.38361 -3.5786,1.42368 -1.21284,0.59174 -1.68065,1.31893 -2.02283,3.14436 -0.19055,1.01648 0.22244,1.44083 0.51499,0.52917 z m 62.174371,-0.76547 c 0.252077,-0.6569 -0.02577,-0.7466 -0.362667,-0.11709 -0.162533,0.3037 -0.184901,0.55183 -0.04974,0.55183 0.13507,0 0.320656,-0.19564 0.412411,-0.43474 z m -56.733841,-0.22335 c 0.46853,-0.56455 0.153,-1.18373 -0.51431,-1.00923 -0.73383,0.1919 -0.9204,0.54898 -0.53161,1.01745 0.40444,0.48732 0.63617,0.4855 1.04592,-0.008 z m 59.83403,-0.0695 c -0.136292,-0.25467 -0.260966,-0.58209 -0.277058,-0.72761 -0.113604,-1.02744 -1.131604,-1.92147 -2.702237,-2.37316 -0.34539,-0.0993 -1.104231,-0.4012 -1.686314,-0.67083 -1.653945,-0.76613 -8.309478,-1.50427 -8.338598,-0.92481 -0.0073,0.14549 0.977789,0.39587 2.189112,0.5564 1.211323,0.16053 2.458617,0.42899 2.771762,0.59658 0.434311,0.23244 0.739463,0.22721 1.286518,-0.0221 0.627129,-0.28574 0.753583,-0.26383 1.007308,0.17448 0.762514,1.31726 1.632882,2.0218 2.586564,2.09374 0.674101,0.0509 1.238811,0.33283 1.836164,0.91686 0.954135,0.93284 1.743572,1.15918 1.326779,0.38039 z m -4.40699,-0.0565 c 0.08666,-0.14021 -0.10279,-0.51528 -0.420991,-0.83348 -0.586915,-0.58691 -1.256377,-0.47617 -1.497685,0.24775 -0.177747,0.53324 1.613212,1.07998 1.918676,0.58573 z m -64.01062,-1.26642 c 0.83079,-2.30376 1.91504,-4.50953 3.00726,-6.1179 0.59466,-0.87567 1.0812,-1.67108 1.0812,-1.76757 0,-0.39708 -2.73273,-3.57436 -2.90373,-3.3761 -0.1021,0.11837 -0.39519,1.22725 -0.65131,2.46417 -0.25612,1.23693 -0.69332,3.28087 -0.97154,4.5421 -0.97765,4.43173 -1.06143,5.06389 -0.70139,5.29245 0.56429,0.35824 0.67148,0.26067 1.13951,-1.03715 z m 57.591897,0.7276 c 1.73477,0 1.792193,-0.0219 2.217391,-0.8441 0.419018,-0.81029 0.413994,-0.86233 -0.125473,-1.29916 -0.382593,-0.30981 -1.30097,-0.51366 -2.877106,-0.63865 -3.826973,-0.30347 -5.412621,-0.57489 -7.022828,-1.20211 -1.191215,-0.46401 -1.603367,-0.52637 -1.849871,-0.27986 -0.448926,0.44892 0.09521,0.73276 1.817209,0.94791 0.767823,0.0959 1.538015,0.34549 1.711536,0.55457 0.173525,0.20909 0.211622,0.38394 0.08466,0.38857 -0.126958,0.005 2.64e-4,0.18322 0.282757,0.39687 0.596697,0.45132 2.246847,0.49469 4.556864,0.11977 1.091308,-0.17712 1.862513,-0.17662 2.331027,0.002 1.124328,0.42747 0.492519,0.8273 -1.210202,0.76585 -1.323038,-0.0477 -1.679308,0.0422 -2.291445,0.57834 -0.398659,0.34917 -0.835867,0.72387 -0.971571,0.83265 -0.135705,0.10878 0.161165,0.0808 0.659712,-0.0622 0.498546,-0.14298 1.707848,-0.25997 2.687338,-0.25997 z m 16.081979,0.0644 c 0,-0.25562 -0.117806,-0.87553 -0.261789,-1.37757 -0.143987,-0.50205 -0.690203,-3.00007 -1.213819,-5.55115 -0.523615,-2.55109 -1.012293,-4.73585 -1.08595,-4.85504 -0.07366,-0.11918 -0.751877,0.35556 -1.507152,1.05498 -0.755274,0.69942 -1.726369,1.52724 -2.157986,1.8396 -0.783625,0.56711 -0.783995,0.56868 -0.255596,1.08509 1.220372,1.19267 2.513542,2.70711 2.513542,2.94362 0,0.13973 0.09872,0.29375 0.219379,0.34225 0.27259,0.10959 2.691038,4.08839 2.691038,4.42727 0,0.23174 0.411395,0.48762 0.859896,0.53483 0.10914,0.0115 0.198437,-0.18826 0.198437,-0.44388 z m -63.352706,-0.38785 c -0.22653,-0.32342 -0.41188,-0.79967 -0.41188,-1.05833 0,-0.25867 -0.11906,-0.4703 -0.26458,-0.4703 -0.14552,0 -0.26459,0.21163 -0.26459,0.4703 0,0.56312 0.71609,1.64637 1.08834,1.64637 0.14552,0 0.0792,-0.26462 -0.14729,-0.58804 z m 51.446456,-1.17977 c 0,-0.53223 -0.435626,-0.20597 -0.608706,0.45589 -0.11775,0.45028 -0.07612,0.49256 0.232645,0.23631 0.206833,-0.17166 0.376061,-0.48315 0.376061,-0.6922 z M 1.7990009,232.66111 c 7.256172,-0.0726 11.0525831,-0.0182 11.2315631,0.16076 0.175263,0.17526 4.064831,0.27037 11.05712,0.27037 h 10.786751 l 1.794187,-1.16411 c 1.890671,-1.22671 3.560797,-2.78491 2.621712,-2.44601 -1.398101,0.50454 -5.610387,0.89582 -10.207967,0.9482 -5.147109,0.0587 -5.147109,0.0587 -5.934348,0.82832 -1.270378,1.24203 -2.523111,1.38439 -1.785241,0.20287 0.23291,-0.37295 0.256063,-0.6347 0.07239,-0.81837 -0.1764,-0.1764 -5.872533,-0.29147 -16.4258901,-0.33183 -15.7278659,-0.0601 -16.1558459,-0.0484 -16.1558459,0.44184 0,0.27699 0.17859,0.57215 0.39688,0.65591 0.55848,0.21431 0.49384,0.82299 -0.10766,1.0139 -0.2775,0.0881 -1.04361,0.0244 -1.70249,-0.14151 -0.96771,-0.24367 -1.27993,-0.47442 -1.62454,-1.20064 l -0.4266,-0.89899 h -3.74635 c -3.61613,0 -8.5625,-0.55861 -9.52055,-1.07519 -0.61345,-0.33077 -0.73119,-0.31324 -0.73119,0.10888 0,0.19613 0.70554,1.02956 1.56786,1.85208 l 1.56786,1.49548 6.43578,0.004 c 3.9119,0.002 6.59143,0.10942 6.83267,0.27273 0.22765,0.15412 0.96094,0.19666 1.71979,0.0998 0.7275999,-0.0929 6.2554499,-0.21822 12.2841119,-0.27851 z m -14.2684889,-2.31768 c 0,-0.34768 0.22788,-0.91323 0.5064,-1.25677 0.4674,-0.57654 0.69249,-0.62336 2.9238199,-0.60815 2.09727,0.0143 2.33681,-0.0283 1.80871,-0.32135 -1.22077,-0.67752 -4.1920099,-0.31464 -5.3050699,0.64793 -0.49431,0.42748 -0.65367,2.17048 -0.19844,2.17048 0.14552,0 0.26458,-0.28446 0.26458,-0.63214 z m 34.660422,-1.35612 c 0,-0.52174 -1.533091,-1.45102 -2.38125,-1.44339 -0.363802,0.003 -1.137708,0.2416 -1.719792,0.52962 -0.941244,0.46574 -0.970515,0.50653 -0.264583,0.36863 2.369976,-0.46294 2.674953,-0.44072 3.463364,0.25233 0.915821,0.80506 0.902261,0.80066 0.902261,0.29281 z"
       id="path7559" />
  </g>
</svg>
