<?xml version="1.0" encoding="UTF-8" standalone="no"?>
<!-- Created with Inkscape (http://www.inkscape.org/) -->

<svg
   width="216.2231mm"
   height="40.695786mm"
   viewBox="0 0 216.22305 40.695775"
   version="1.1"
   id="svg5"
   inkscape:version="1.1 (c4e8f9ed74, 2021-05-24)"
   sodipodi:docname="divider29.svg"
   xmlns:inkscape="http://www.inkscape.org/namespaces/inkscape"
   xmlns:sodipodi="http://sodipodi.sourceforge.net/DTD/sodipodi-0.dtd"
   xmlns="http://www.w3.org/2000/svg"
   xmlns:svg="http://www.w3.org/2000/svg">
  <sodipodi:namedview
     id="namedview7"
     pagecolor="#ffffff"
     bordercolor="#666666"
     borderopacity="1.0"
     inkscape:pageshadow="2"
     inkscape:pageopacity="0.0"
     inkscape:pagecheckerboard="0"
     inkscape:document-units="mm"
     showgrid="false"
     inkscape:zoom="0.94615212"
     inkscape:cx="359.8787"
     inkscape:cy="379.96004"
     inkscape:window-width="2506"
     inkscape:window-height="1403"
     inkscape:window-x="1974"
     inkscape:window-y="0"
     inkscape:window-maximized="1"
     inkscape:current-layer="layer1" />
  <defs
     id="defs2" />
  <g
     inkscape:label="Layer 1"
     inkscape:groupmode="layer"
     id="layer1"
     transform="translate(181.42326,-102.04393)">
    <path
       style="fill:#000000;stroke-width:0.264583"
       d="m -139.75138,142.52522 c -11.05959,-0.0728 -19.21537,-0.21789 -18.12396,-0.32252 3.00452,-0.28803 7.50899,-1.95425 10.3396,-3.82467 l 0.94691,-0.62569 1.77111,0.66665 c 5.25454,1.9778 10.63355,-0.50139 11.82021,-5.44793 0.44488,-1.85448 0.12797,-4.46061 -0.68877,-5.66414 -0.35263,-0.51963 -0.64115,-1.04896 -0.64115,-1.17629 0,-0.12734 0.56555,-0.86619 1.25677,-1.6419 1.54656,-1.73559 2.4474,-3.00221 2.4474,-3.44115 0,-0.4274 2.67989,2.19771 3.82883,3.75056 1.01687,1.37435 3.31492,5.60676 3.31492,6.10521 0,0.20761 -0.2286,0.12289 -0.59531,-0.22063 -1.81512,-1.70033 -5.36846,-1.40844 -6.55556,0.5385 -1.36268,2.23492 0.27146,4.65504 2.12809,3.15164 0.44678,-0.36179 0.54465,-0.62891 0.39878,-1.08851 -0.16561,-0.52177 -0.3221,-0.58816 -1.09195,-0.46323 -1.53872,0.2497 -0.94068,-1.00313 0.79361,-1.66251 1.01265,-0.38501 2.31729,0.044 3.15265,1.03681 0.51131,0.60765 0.66137,1.17011 0.80268,3.00855 0.0956,1.24364 0.28448,2.55226 0.41975,2.90803 0.30437,0.80057 1.55684,1.71795 2.64166,1.93491 0.7412,0.14824 0.81602,0.10126 0.81602,-0.51243 0,-1.86256 2.01798,-1.95359 4.93187,-0.22248 2.10419,1.25007 5.91721,2.61738 7.97289,2.85898 0.76805,0.0903 1.32341,0.23667 1.23412,0.32533 -0.19716,0.19577 -7.05371,0.20172 -33.32117,0.0289 z m 41.407284,0 c -2.609164,-0.12425 -2.692734,-0.14504 -1.374045,-0.34183 1.742345,-0.26003 4.506021,-1.24358 6.391423,-2.27462 l 1.429298,-0.78162 1.055148,0.90317 c 1.202102,1.02896 3.391868,1.93756 5.330467,2.21178 1.256409,0.17772 1.196555,0.19663 -1.190625,0.37616 -2.506919,0.18854 -6.37826,0.1576 -11.641666,-0.093 z m 16.66875,0.0383 c 0,-0.11157 0.589055,-0.35382 1.309012,-0.53834 1.87842,-0.48143 4.079865,-2.13568 4.612013,-3.46565 0.510771,-1.27654 0.531622,-1.84803 0.117817,-3.22919 -0.458814,-1.53138 -1.542672,-2.33013 -3.161866,-2.33013 -1.652053,0 -2.704833,0.53315 -3.143372,1.59187 -0.301712,0.7284 -0.280165,0.90484 0.187338,1.53384 0.580967,0.78165 1.744996,1.06232 2.344015,0.56518 0.588518,-0.48843 0.481468,-1.59746 -0.170656,-1.76799 -0.419327,-0.10966 -0.466894,-0.19788 -0.198437,-0.36805 1.214794,-0.77005 2.869218,0.42696 2.862585,2.07115 -0.0046,1.14639 -0.10368,1.32956 -1.15611,2.13781 -1.156232,0.88797 -2.616785,0.79688 -3.522549,-0.21969 -1.010452,-1.13406 -2.248937,-1.83995 -3.228179,-1.83995 -1.442606,0 -1.433668,1.59602 0.01654,2.95071 l 0.806577,0.75345 h -0.906891 c -1.663139,0 -5.235075,-1.53782 -5.223709,-2.24895 0.0024,-0.14553 0.62593,-0.64542 1.385787,-1.11089 2.120628,-1.29904 5.45931,-4.27919 8.005146,-7.14549 2.436302,-2.74299 2.84389,-3.08115 2.760239,-2.29006 -0.112098,1.06011 0.03783,1.48796 0.782281,2.23241 0.89036,0.89036 1.607852,1.00778 1.607852,0.26313 0,-0.68168 0.708874,-1.35778 1.218549,-1.1622 0.225218,0.0864 0.516482,0.43856 0.647253,0.78251 0.130772,0.34396 0.349191,0.62538 0.48538,0.62538 0.405988,0 1.617568,-1.58892 1.617568,-2.12135 0,-0.94688 0.426701,-0.73982 1.730017,0.8395 1.679253,2.03488 5.268778,5.49583 7.728837,7.45199 1.055026,0.83892 1.918229,1.62311 1.918229,1.74264 0,0.65444 -4.736412,2.78483 -5.187815,2.33343 -0.06682,-0.0668 0.299196,-0.54218 0.813371,-1.05635 0.734687,-0.7347 0.934847,-1.1454 0.934847,-1.91819 v -0.98332 l -1.719889,0.10952 c -1.55189,0.0988 -1.816799,0.20366 -2.711979,1.0734 -1.205958,1.17168 -2.290411,1.61288 -3.436073,1.39796 -0.910825,-0.17088 -1.657059,-1.18622 -1.657059,-2.25465 0,-1.57369 1.555909,-2.83054 2.892132,-2.33623 l 0.640432,0.23691 -0.575657,0.4032 c -0.67165,0.47045 -0.735322,0.96965 -0.182219,1.42869 0.635268,0.52722 1.710989,0.0927 2.107986,-0.85147 0.727218,-1.72954 -0.949931,-3.34724 -3.054464,-2.94619 -2.865432,0.54604 -4.11258,2.58274 -3.253652,5.31349 0.535532,1.70259 1.494967,2.74368 3.432648,3.72478 l 1.412857,0.71536 -5.943365,0.0544 c -3.26885,0.0299 -5.943364,-0.0369 -5.943364,-0.14842 z m 24.870833,-0.0449 c -3.856302,-0.0764 -6.829504,-0.1657 -6.607119,-0.19843 0.691327,-0.10177 4.329821,-1.92366 4.894667,-2.4509 0.527304,-0.4922 0.560377,-0.48973 1.928209,0.144 2.673654,1.23872 4.823151,1.72973 8.949039,2.04421 4.70013,0.35826 6.460609,0.0971 10.354858,-1.53599 4.094234,-1.71698 5.619308,-2.22959 6.633215,-2.22959 1.077188,0 1.628381,0.37086 1.628381,1.09563 0,1.55654 2.661748,-0.0692 3.795268,-2.31802 0.228851,-0.45403 0.608862,-1.67304 0.844465,-2.70891 0.504555,-2.21836 1.198528,-2.94787 2.804282,-2.94787 1.064183,0 2.080985,0.70341 2.080985,1.43959 0,0.54737 -0.446056,0.74613 -0.62543,0.27868 -0.08843,-0.23044 -0.486275,-0.39535 -0.953767,-0.39535 -0.702051,0 -0.802053,0.0924 -0.802053,0.74083 0,0.96186 0.438565,1.37583 1.457555,1.37583 1.313434,0 1.849737,-0.56411 1.849737,-1.94567 0,-2.72317 -3.378513,-4.15274 -6.27471,-2.65506 -0.874557,0.45225 -0.872131,0.46252 -0.239467,-1.01342 0.946962,-2.20918 5.245362,-8.33394 5.890374,-8.39316 0.09347,-0.009 1.034841,1.02619 2.091933,2.2995 1.05709,1.27331 2.084052,2.44884 2.282132,2.61228 0.29572,0.24402 0.196458,0.54043 -0.554847,1.65686 -2.076191,3.08521 -1.316001,7.45537 1.648272,9.47555 3.52393,2.40158 6.6304449,2.74962 10.005155,1.12094 l 1.0905093,-0.5263 1.95219903,1.13531 c 2.17432737,1.2645 6.01827077,2.58241 9.62511567,3.30003 1.753426,0.34886 2.137095,0.49036 1.455209,0.53668 -2.0299263,0.1379 -60.648811,0.19263 -67.204167,0.0628 z M -181.42326,122.28463 V 102.044 l 36.04948,0.0188 c 35.75354,0.0186 36.03516,0.0229 34.30545,0.51675 -2.55006,0.7281 -5.34376,2.07634 -8.04555,3.8828 -2.72806,1.82401 -3.34022,2.07426 -4.09105,1.67243 -0.75067,-0.40175 -0.71847,-1.66781 0.0562,-2.20816 l 0.59531,-0.41527 -0.60381,-0.0139 c -1.65094,-0.0379 -3.7501,1.8071 -5.24705,4.61187 -1.26817,2.3761 -2.41149,3.21885 -3.9702,2.92643 -0.89036,-0.16703 -1.68831,-1.16381 -1.68831,-2.10898 0,-0.56551 1.21692,-1.30755 1.78389,-1.08777 0.44274,0.17163 0.44283,0.19666 0.002,0.52128 -0.55119,0.40594 -0.60693,1.09687 -0.10405,1.28984 0.52189,0.20027 1.60556,-0.41261 1.71264,-0.9686 0.3027,-1.57181 -0.89018,-2.48356 -2.63474,-2.0138 -1.3052,0.35145 -2.08031,1.50562 -2.08172,3.09971 -7.9e-4,0.95208 0.15488,1.28034 1.01567,2.14113 0.78208,0.78208 1.29785,1.0552 2.23534,1.1837 1.20761,0.16552 3.026,-0.26871 3.79387,-0.90599 0.18957,-0.15733 0.46865,-0.24473 0.62018,-0.19422 0.15153,0.0505 -0.47965,0.99652 -1.40262,2.10224 l -1.67812,2.01041 -1.35787,-0.75836 c -3.08803,-1.7246 -8.11307,-1.98158 -11.61446,-0.59395 -3.24592,1.28638 -4.85055,2.8121 -6.51403,6.19368 -1.08894,2.21365 -1.10624,2.29294 -1.10179,5.04981 0.004,2.65869 0.0508,2.89368 0.91703,4.63021 0.50188,1.00614 1.19876,2.21654 1.54862,2.68976 l 0.63611,0.8604 -1.55314,0.69395 c -2.12124,0.94778 -4.28772,1.00693 -5.20986,0.14223 -0.36248,-0.33992 -0.71921,-0.84802 -0.79273,-1.12914 -0.14705,-0.56233 0.43518,-1.29555 1.02876,-1.29555 0.20789,0 0.37798,-0.12201 0.37798,-0.27113 0,-0.46259 -1.39923,-0.83939 -2.62092,-0.7058 -1.03047,0.11268 -1.3528,0.32947 -2.77813,1.86844 -1.90641,2.05842 -2.98776,2.44183 -4.19921,1.48891 -1.3934,-1.09605 -0.66493,-3.32633 1.02164,-3.12786 0.79676,0.0938 1.22935,0.71747 0.45365,0.65406 -0.33483,-0.0274 -0.50082,0.17687 -0.55971,0.68869 -0.0715,0.62171 0.0124,0.72761 0.57642,0.72761 0.94862,0 1.56942,-0.71258 1.35725,-1.55791 -0.3613,-1.43955 -1.52099,-2.07494 -2.93521,-1.6082 -2.05242,0.67735 -2.59491,3.72581 -1.00568,5.6512 0.42241,0.51176 1.03592,1.00832 1.36334,1.10346 0.32742,0.0951 0.59531,0.26356 0.59531,0.37426 0,0.41305 -1.83697,0.47728 -3.81688,0.13346 -3.62676,-0.6298 -6.23729,-2.45419 -6.23729,-4.35898 0,-0.82059 0.72463,-1.58938 1.49809,-1.58938 0.79601,0 0.90095,-0.25158 0.4265,-1.02251 -0.49056,-0.7971 -3.27439,-3.73999 -3.53785,-3.73999 -0.096,0 -0.32257,0.35719 -0.5034,0.79375 -0.25894,0.62512 -0.49257,0.79375 -1.09975,0.79375 -1.72296,0 -2.81938,-1.6488 -2.47032,-3.71489 0.26846,-1.589 1.32758,-2.46814 1.50114,-1.24604 0.12602,0.88727 1.18465,0.95117 1.57473,0.0951 0.62138,-1.36378 -1.03825,-2.72152 -2.30893,-1.88894 -0.36331,0.23805 -0.79331,0.72417 -0.95556,1.08028 -0.48073,1.05509 -0.68386,0.75859 -0.87057,-1.27077 -0.17969,-1.95308 0.14869,-4.06273 1.13718,-7.30577 0.71486,-2.34528 2.66024,-4.00546 3.59649,-3.06921 0.52695,0.52696 0.53619,0.93224 0.0363,1.59316 -0.55124,0.72881 -0.49844,0.91047 0.26467,0.91047 0.83709,0 2.31326,-0.6063 3.24811,-1.33407 1.53939,-1.1984 3.11829,-3.71863 2.1012,-3.35394 -1.12784,0.4044 -1.68644,-1.33733 -0.78566,-2.44974 1.01559,-1.25421 4.61325,-1.29596 7.13566,-0.0828 1.47726,0.71049 1.76829,1.12978 0.79375,1.14355 -0.76454,0.0108 -1.38969,0.49844 -1.57848,1.23124 -0.33447,1.29825 1.23821,2.19545 3.8536,2.19846 2.14331,0.002 4.13882,1.35991 4.57935,3.1151 0.2191,0.87299 -0.29029,2.81451 -0.99992,3.81109 -0.66353,0.93184 -2.8312,2.07112 -3.94066,2.07112 -1.55538,0 -3.10455,-1.21545 -3.65851,-2.87038 -0.31962,-0.95485 -0.0802,-1.72507 0.72951,-2.34673 0.62721,-0.48156 0.81668,-0.40895 0.81668,0.31301 0,0.89484 0.80202,1.29698 1.54659,0.77547 1.29106,-0.90429 0.29245,-2.75054 -1.48772,-2.75054 -1.22793,0 -1.97337,0.49477 -2.53792,1.68448 -0.82147,1.73111 -0.33304,4.24518 1.07151,5.51533 1.8004,1.62811 5.49329,1.65497 7.09664,0.0516 0.82906,-0.82905 0.84067,-0.37255 0.0346,1.35854 -1.1048,2.37253 -2.89084,3.00494 -5.28618,1.87177 -2.04445,-0.96719 -3.32347,-0.89464 -2.3911,0.13562 0.54238,0.59932 0.30384,1.69117 -0.45864,2.09923 -0.67126,0.35925 -2.18065,0.11523 -2.73863,-0.44275 -0.63963,-0.63962 -0.50901,-1.65463 0.2579,-2.00405 0.6065,-0.27634 0.62816,-0.34101 0.25303,-0.75552 -0.22563,-0.24933 -1.00515,-0.53223 -1.73226,-0.62869 -2.44061,-0.32376 -3.1528,-1.05678 -3.1528,-3.24501 0,-2.49847 2.21815,-4.60669 4.09082,-3.88808 0.39513,0.15163 0.39428,0.20438 -0.0104,0.65161 -0.55963,0.61839 -0.30914,1.30129 0.47539,1.29603 0.84596,-0.006 1.19467,-0.28479 1.40555,-1.12501 0.25726,-1.02498 -0.38879,-1.87804 -1.72562,-2.27856 -3.22145,-0.96517 -6.41114,2.63241 -5.9433,6.70331 0.36683,3.19192 2.04743,5.40126 5.51517,7.25032 1.29798,0.69211 1.85275,0.83107 3.31784,0.83107 4.37473,0 8.27157,-2.24001 10.04362,-5.77334 1.40948,-2.8104 1.89478,-5.79533 1.33616,-8.21835 -0.14701,-0.63767 -0.21752,-1.20916 -0.1567,-1.26999 0.0608,-0.0608 0.8351,0.13349 1.72062,0.4318 5.26182,1.77258 9.80168,-1.21287 9.90462,-6.51336 0.0287,-1.47562 -0.0914,-2.05088 -0.65321,-3.13072 -0.80525,-1.54765 -1.34001,-2.06268 -2.57093,-2.47607 -2.97763,-1.00002 -5.8459,0.83702 -5.84709,3.74487 -4.2e-4,1.0349 0.90731,2.30308 1.64848,2.30308 0.76252,0 1.55761,-0.83383 1.47507,-1.54694 -0.0669,-0.57797 -0.23321,-0.71667 -0.94115,-0.78493 -0.75717,-0.073 -0.85989,-0.17619 -0.85989,-0.86379 0,-1.37753 2.29034,-2.30497 3.7877,-1.53378 2.13406,1.09911 2.33146,2.44269 0.59414,4.04391 -2.25211,2.07568 -2.33459,4.32929 -0.11798,3.22349 1.02023,-0.50895 1.0278,-0.5095 1.0278,-0.0739 0,0.48303 -1.30387,1.67845 -2.20003,2.01704 -1.33875,0.50581 -4.28269,0.34609 -5.6742,-0.30785 -1.42981,-0.67193 -4.93143,-3.98537 -5.33586,-5.0491 -0.20101,-0.5287 -0.15539,-1.14512 0.17913,-2.42055 0.43945,-1.67552 0.43738,-1.72658 -0.0993,-2.44854 -0.37502,-0.50449 -0.83229,-0.76418 -1.44799,-0.82234 -0.72551,-0.0685 -0.8358,-0.0198 -0.56915,0.25135 0.48832,0.49664 0.40207,1.40687 -0.18352,1.93682 -0.28284,0.25596 -0.55073,0.78043 -0.59531,1.16549 -0.0966,0.83387 -0.23489,0.83021 -2.81839,-0.0745 -2.72143,-0.95301 -6.15876,-0.96259 -8.65207,-0.0241 -2.78193,1.04711 -4.36962,2.29894 -5.87111,4.62913 -1.21895,1.89171 -1.75714,3.17936 -2.57318,6.15648 -1.87095,6.82566 0.30163,15.80505 4.99557,20.64698 1.69998,1.75357 3.24659,2.6349 6.41867,3.65764 0.99267,0.32005 2.04298,0.67475 2.33403,0.78822 0.29104,0.11347 -2.89389,0.21437 -7.07761,0.22421 l -7.60677,0.0179 z m 197.776039,19.97633 c 0.436562,-0.1229 1.805781,-0.47616 3.042708,-0.78503 2.996679,-0.7483 4.646681,-1.53629 6.946773,-3.3176 4.633042,-3.58806 7.265384,-8.95939 7.538109,-15.38161 0.119353,-2.81061 0.06268,-3.45546 -0.453406,-5.15938 -1.668857,-5.50985 -5.470811,-9.34715 -11.024095,-11.12657 -2.367436,-0.7586 -6.962251,-0.81513 -8.916807,-0.10972 l -1.279221,0.46168 -0.89258,-1.0103 c -1.039987,-1.17715 -1.148014,-2.00744 -0.335256,-2.57672 0.710451,-0.49762 0.476946,-0.8058 -0.436777,-0.57647 -1.9955592,0.50085 -3.0017326,2.7165 -2.1207865,4.67009 0.4168722,0.92446 0.4300114,1.13832 0.1070028,1.74187 -0.5023961,0.93873 -3.8404271,3.87691 -5.1402483,4.52451 -2.94320117,1.46636 -5.5213329,1.32982 -7.0151466,-0.37154 -1.1401081,-1.29851 -1.0765869,-1.78389 0.1299924,-0.9933 0.7832805,0.51322 1.8226829,0.40152 1.9388985,-0.20838 0.1398323,-0.73385 -0.6879379,-2.14329 -1.6765985,-2.85474 -0.989449,-0.71201 -1.3360902,-1.49984 -1.0768489,-2.4474 0.3140763,-1.14797 0.8859785,-1.5926 2.212393,-1.72006 1.092192,-0.10494 1.39710049,-0.0226 2.09701336,0.56634 0.76764092,0.64593 1.34506234,1.89809 1.02354594,2.21961 -0.0789517,0.079 -0.3828865,-0.073 -0.67540983,-0.33779 -0.43968194,-0.3979 -0.64632152,-0.42918 -1.1922469,-0.18044 -0.84525637,0.38513 -0.87596927,1.41165 -0.0650716,2.1748 0.74449777,0.70066 2.09148363,0.55417 3.04104143,-0.33073 0.5747068,-0.53557 0.6322325,-0.75869 0.4963028,-1.92495 -0.1719236,-1.47506 -0.7238021,-2.36724 -2.00283502,-3.23785 -0.74686584,-0.50837 -1.0849028,-0.56623 -2.48921318,-0.42604 -1.9623061,0.19589 -2.7440917,0.56165 -3.8202314,1.7873 -1.4455723,1.64642 -1.686732,3.42034 -0.847905,6.23696 0.5922248,1.98859 1.2116329,2.78597 2.9267309,3.7677 2.4036549,1.37585 4.8972814,1.53961 7.2948192,0.47907 0.6135026,-0.27139 1.1743875,-0.4345 1.2464071,-0.36248 0.072019,0.072 0.00622,0.48878 -0.1462564,0.92612 -0.4072731,1.16831 -0.1114796,5.66346 0.4670213,7.09734 0.6875304,1.70412 2.361266,3.88242 3.7178509,4.83862 2.0841925,1.46908 3.3852755,1.84798 6.4542885,1.87962 2.484533,0.0256 2.935669,-0.0452 4.268888,-0.67033 1.892668,-0.88739 3.767495,-2.72923 4.60139,-4.5204 0.826238,-1.77473 0.894929,-4.55663 0.152053,-6.15772 -1.251063,-2.69636 -4.13399,-4.03672 -6.137238,-2.85337 -0.780669,0.46115 -0.898678,0.7487 -0.789686,1.92419 0.08291,0.8942 0.490845,1.32606 1.252586,1.32606 0.880882,0 1.11607,-0.7608 0.411546,-1.33128 -0.669994,-0.54253 -0.505788,-0.78539 0.531032,-0.78539 1.065995,0 2.247082,0.67063 2.687219,1.52583 1.369391,2.66077 0.945105,4.20605 -1.397989,5.09157 -2.075972,0.78457 -2.742589,1.13745 -2.868658,1.51854 -0.06017,0.1819 0.07109,0.33073 0.291687,0.33073 1.186797,0 0.526574,2.15901 -0.816358,2.66959 -0.845392,0.32142 -2.096268,-0.11648 -2.316703,-0.81102 -0.210534,-0.66333 0.304427,-1.85857 0.800757,-1.85857 0.23047,0 0.345453,-0.11907 0.255516,-0.26459 -0.08994,-0.14552 -0.628603,-0.26458 -1.197034,-0.26458 -0.771062,0 -1.263081,0.20157 -1.937543,0.79375 -1.350555,1.1858 -3.5156516,1.03224 -4.7133516,-0.33431 -0.6422178,-0.73275 -1.8823913,-3.28543 -1.7641491,-3.63119 0.047892,-0.14005 0.6777541,0.12935 1.3996935,0.59866 1.1838279,0.76958 1.5018808,0.8517 3.2415982,0.83696 1.698221,-0.0144 2.062978,-0.11051 3.049093,-0.80358 2.447811,-1.72039 3.044029,-4.02396 1.497409,-5.78546 -0.726929,-0.82792 -0.967652,-0.93525 -2.097767,-0.93525 -1.897163,0 -2.714175,1.18675 -1.737013,2.5231 0.516371,0.70618 1.888003,0.25098 1.856806,-0.61622 -0.02673,-0.74288 0.816292,-0.7935 1.202325,-0.0722 0.402857,0.75275 0.333449,2.19587 -0.137986,2.86894 -0.484748,0.69208 -1.482267,0.76456 -2.821413,0.20503 -1.527802,-0.63835 -2.728167,0.13655 -1.740877,1.12384 0.897419,0.89742 -1.4678951,-0.25153 -2.4941953,-1.21155 -1.132459,-1.05933 -1.3813181,-2.16147 -0.8785569,-3.89092 0.5388028,-1.85341 1.7179793,-3.21577 3.1071532,-3.58984 0.584044,-0.15726 1.248683,-0.21426 1.476976,-0.12665 0.661752,0.25393 2.670437,-0.14387 3.299814,-0.65351 0.510442,-0.41333 0.539001,-0.54834 0.250121,-1.18236 -0.20167,-0.44262 -0.728107,-0.87366 -1.379548,-1.12955 -0.579387,-0.22759 -1.05343,-0.50496 -1.05343,-0.61637 0,-0.11141 0.565547,-0.42077 1.256771,-0.68747 0.92407,-0.35653 1.972598,-0.4849 3.960809,-0.4849 3.033546,0 3.609256,0.27949 3.935463,1.91053 0.147955,0.73977 0.07997,0.89142 -0.522735,1.16603 -0.951846,0.4337 -0.87459,0.83834 0.431671,2.2609 1.090184,1.18725 3.782356,2.73168 4.7625,2.73212 0.540507,2.5e-4 0.563872,-0.11072 0.17594,-0.83558 -0.433414,-0.80984 -0.08662,-1.81004 0.627578,-1.81004 0.861457,0 2.366103,1.12246 2.886626,2.15341 0.960747,1.90288 1.535377,4.47415 1.535377,6.87029 0,1.29436 -0.08162,2.35338 -0.181385,2.35338 -0.09976,0 -0.460203,-0.26194 -0.800984,-0.58208 -1.380432,-1.29685 -3.611957,-0.4188 -3.462237,1.36231 0.07413,0.88181 0.135744,0.93956 1.002424,0.93956 0.818393,0 0.939448,-0.0903 1.064136,-0.79375 l 0.140695,-0.79375 0.721799,0.71558 c 0.399677,0.39623 0.721802,1.00845 0.721802,1.37184 0,1.77276 -1.435645,3.60112 -2.827626,3.60112 -0.847733,0 -1.934874,-0.7433 -1.934874,-1.32291 0,-0.54997 -0.625933,-0.22339 -1.901656,0.99218 -1.204322,1.14754 -2.067094,2.35747 -2.067094,2.89884 0,0.11722 0.357452,0.37136 0.79434,0.56474 1.007578,0.446 1.267655,1.39499 0.705429,2.57399 -0.892633,1.87187 -4.252582,3.30028 -7.692752,3.2704 -2.88983,-0.0251 -3.523258,-0.29371 -1.758934,-0.74589 3.094243,-0.79303 3.86353,-4.57895 1.310415,-6.44898 -0.611704,-0.44804 -0.810157,-0.46771 -1.781678,-0.17664 -1.483029,0.44433 -1.949873,1.01834 -1.846943,2.27093 0.08197,0.99749 0.105122,1.01814 1.141998,1.01814 0.905997,0 1.070866,-0.0885 1.14541,-0.61461 0.06259,-0.44181 -0.06759,-0.65506 -0.463021,-0.75847 -0.677603,-0.17719 -0.70513,-0.50971 -0.07032,-0.84945 0.651262,-0.34854 1.672815,0.18495 2.113331,1.10367 0.29174,0.60843 0.278405,0.85628 -0.08755,1.62748 -0.909471,1.91657 -3.383989,1.76867 -5.08218,-0.30375 -0.519811,-0.63436 -1.2891935,-1.39839 -1.7097381,-1.69784 -0.9472718,-0.67452 -2.4465439,-0.75106 -3.0422823,-0.15533 -0.411869,0.41187 -0.4083871,0.47745 0.052398,0.98661 0.3909166,0.43196 0.4413621,0.69394 0.2425065,1.25939 -0.5707036,1.62278 -2.5859607,1.79223 -5.38149271,0.45251 l -1.94925949,-0.93415 0.53780266,-0.5872 c 0.64816302,-0.70769 1.45487231,-2.27913 2.22049184,-4.32543 0.4816581,-1.28735 0.5422001,-1.85306 0.4047966,-3.78255 -0.2002472,-2.81197 -0.7657041,-4.52449 -2.06350394,-6.24946 -2.35426506,-3.12916 -5.68537196,-5.03548 -9.27973126,-5.31059 -2.7323308,-0.20914 -4.7363008,0.17424 -7.3101968,1.3985 -1.06771,0.50785 -1.964827,0.88413 -1.993595,0.83618 -0.02877,-0.048 -0.507958,-0.65925 -1.064869,-1.35845 -1.050311,-1.31867 -1.119402,-1.75593 -0.199676,-1.26371 0.807919,0.43238 2.704325,0.3424 3.738949,-0.17741 1.171586,-0.58863 2.12194,-2.00305 2.12194,-3.15811 0,-1.05766 -0.852974,-2.85762 -1.465577,-3.0927 -1.413373,-0.54236 -3.03234,0.25953 -3.03234,1.50195 0,0.80569 0.474459,1.24354 1.347526,1.24354 0.7694,0 1.237668,-0.69564 0.777814,-1.15549 -0.150291,-0.15029 -0.273256,-0.36851 -0.273256,-0.48493 0,-0.34552 0.461311,-0.24172 0.907142,0.20411 0.600734,0.60073 0.518692,1.84898 -0.163282,2.48434 -1.203285,1.12103 -3.011141,0.42845 -3.915802,-1.50012 -1.272773,-2.71332 -2.327365,-3.97607 -4.032054,-4.82791 -1.649727,-0.82438 -2.585588,-1.01713 -2.585588,-0.53253 0,0.15009 0.178594,0.34142 0.396875,0.42518 0.475375,0.18242 0.524209,1.18543 0.07937,1.63027 -0.647504,0.6475 -2.412381,0.36623 -4.06369,-0.64764 -3.807833,-2.33792 -5.96016,-3.45379 -8.184724,-4.24334 l -2.383044,-0.8458 37.5915896,-0.0156 37.5915904,-0.0156 0.07178,4.29948 c 0.158155,9.47372 0.06804,19.3383 -0.213265,23.34496 -0.163295,2.32585 -0.296899,6.10609 -0.296899,8.40052 v 4.17171 l -0.859896,0.0172 c -8.354481,0.16706 -17.620253,0.15785 -16.999479,-0.0169 z m -122.700519,-2.18095 c -0.83674,-0.14336 -1.52135,-0.3704 -1.52135,-0.50452 0,-0.13412 0.19393,-0.53984 0.43096,-0.90159 0.29642,-0.4524 0.38688,-0.98639 0.28976,-1.71048 l -0.1412,-1.05275 1.62847,0.004 c 2.67353,0.006 2.74859,0.0568 2.7154,1.84048 -0.0217,1.16831 0.0924,1.67145 0.47543,2.09563 l 0.50403,0.5582 -1.43007,-0.034 c -0.78654,-0.0187 -2.11468,-0.15126 -2.95143,-0.29462 z m 59.075159,0.0739 c -0.329777,-0.20855 -0.295942,-0.34666 0.219303,-0.89511 0.482287,-0.51337 0.591111,-0.88713 0.522232,-1.7936 l -0.08701,-1.1451 1.509229,-0.21541 c 0.830077,-0.11848 1.898351,-0.11459 2.373939,0.009 0.734716,0.19038 0.871093,0.35096 0.907161,1.06816 0.02336,0.46425 0.244512,1.15248 0.491474,1.52939 0.246962,0.37691 0.409742,0.71724 0.361733,0.7563 -0.04801,0.0391 -0.674042,0.26685 -1.391189,0.50621 -1.414288,0.47204 -4.279207,0.57743 -4.906873,0.1805 z m -52.584953,-0.79307 c -1.058266,-0.45445 -1.243486,-2.44061 -0.302536,-3.24432 0.716199,-0.61175 0.51679,-0.83278 -1.28447,-1.42374 -2.06956,-0.67898 -5.52831,-0.66919 -7.41674,0.021 -1.41765,0.51813 -1.69873,0.83009 -0.99219,1.10121 0.4411,0.16927 0.52534,1.33491 0.14046,1.94361 -0.52645,0.83261 -3.50593,0.14369 -4.44894,-1.02869 -1.04268,-1.29631 -1.15507,-1.5738 -0.86039,-2.12441 0.36053,-0.67366 1.46749,-0.72412 1.84039,-0.0839 0.22184,0.38089 0.27111,0.30432 0.27773,-0.43169 0.006,-0.71652 -0.22025,-1.11172 -1.13827,-1.98437 -0.63047,-0.59932 -1.64714,-1.41926 -2.25927,-1.8221 -1.20179,-0.79089 -1.60183,-1.50013 -1.41055,-2.50079 0.21179,-1.10785 1.99941,-1.91133 2.84564,-1.27903 0.5059,0.37801 0.50417,0.39295 -0.0951,0.82054 -0.83204,0.59369 -0.68869,1.54715 0.24894,1.6558 0.5041,0.0584 0.85594,-0.12141 1.27172,-0.65 0.72131,-0.91699 0.55412,-1.80651 -0.52704,-2.80419 -1.48112,-1.36677 -3.92613,-0.72276 -4.97983,1.31168 -0.43766,0.84501 -0.54968,0.92715 -0.70958,0.52026 -0.28808,-0.73305 0.0473,-4.66189 0.5057,-5.9242 0.98785,-2.72025 3.52223,-5.06871 5.05488,-4.68405 0.55222,0.1386 0.67162,0.32644 0.67162,1.05662 0,0.63599 -0.16034,0.97386 -0.56492,1.19038 -0.72656,0.38885 -0.21874,0.76472 1.04108,0.77057 1.07733,0.005 1.94289,-0.43097 3.63601,-1.83142 2.41149,-1.99464 4.95631,-2.53808 6.96195,-1.48671 0.84513,0.44302 1.97367,1.47508 1.80138,1.64737 -0.0682,0.0682 -0.82662,-0.0142 -1.6853,-0.18309 -2.66484,-0.52428 -4.97316,0.51715 -5.64266,2.54575 -0.37476,1.13551 -0.13552,1.48789 0.44625,0.6573 0.5771,-0.82393 1.92669,-1.34515 3.48301,-1.34515 3.33032,0 5.496618,3.84466 4.050097,7.18796 -1.038637,2.4006 -4.702507,3.99499 -6.901607,3.00333 -1.00105,-0.45141 -1.86279,-1.7341 -1.86279,-2.77273 0,-0.58759 1.18363,-1.59772 1.87215,-1.59772 0.65872,0 0.84788,0.40279 0.37389,0.79616 -0.62069,0.51513 -0.48085,1.28861 0.26691,1.47629 0.8882,0.22292 1.40041,-0.009 1.75971,-0.7979 0.45325,-0.99478 -0.11339,-2.10202 -1.36443,-2.66616 -2.5801,-1.16347 -4.97094,0.90358 -4.21437,3.64363 0.83541,3.0256 4.87483,4.3849 8.12948,2.73564 1.76359,-0.89368 2.591735,-1.78206 3.514242,-3.76983 1.800931,-3.88056 1.440368,-7.38926 -1.127749,-10.97435 -1.181103,-1.64883 -2.146653,-2.41254 -4.184993,-3.31019 -1.56287,-0.68825 -1.99158,-0.7565 -4.76026,-0.75785 -2.72169,-0.001 -3.23811,0.077 -4.89479,0.74228 -5.30333,2.12972 -8.40842,6.65777 -8.83397,12.88228 l -0.17185,2.51354 -0.49869,-0.92538 c -1.06477,-1.97583 -3.81974,-5.46155 -6.08382,-7.69755 -0.087,-0.0859 0.49749,-0.81196 1.29891,-1.61338 0.80142,-0.80142 1.45713,-1.41189 1.45713,-1.3566 0,0.0553 -0.1786,0.52796 -0.39688,1.05039 -0.58062,1.38961 -0.50002,2.39363 0.25256,3.14621 1.38211,1.38211 4.11307,0.50179 4.11307,-1.32584 0,-0.89376 -0.33956,-1.19973 -1.33141,-1.19973 -0.74772,0 -1.10419,0.82432 -0.59825,1.38338 0.37697,0.41655 0.37331,0.47336 -0.0407,0.63224 -0.28566,0.10962 -0.65652,-0.027 -0.99678,-0.36728 -1.18034,-1.18034 0.51552,-3.44619 3.02106,-4.03648 2.87122,-0.67644 4.9732,-2.1959 4.9732,-3.59499 0,-0.5611 -0.0613,-0.59216 -0.64459,-0.32641 -0.91312,0.41604 -1.47208,0.11659 -1.47208,-0.78865 0,-0.92353 1.71173,-2.9816 3.14108,-3.77663 0.52798,-0.29367 1.60954,-0.94354 2.40347,-1.44415 1.93069,-1.21739 2.16147,-1.18765 1.66289,0.21429 -0.35932,1.01034 -0.35761,1.22459 0.0169,2.11087 0.2301,0.54461 0.80903,1.22989 1.29259,1.53005 1.62315,1.00756 3.65393,0.11017 3.65393,-1.61467 0,-0.58919 -0.14813,-0.79658 -0.66087,-0.92527 -0.36348,-0.0912 -0.83973,-0.0972 -1.05833,-0.0133 -0.44866,0.17216 -0.54948,1.22746 -0.11727,1.22746 0.15411,0 0.20661,0.11906 0.11667,0.26458 -0.53919,0.87244 -1.98437,-0.22472 -1.98437,-1.5065 0,-1.78586 2.26123,-3.17196 4.7798,-2.92996 1.75711,0.16884 2.58802,0.91343 2.21327,1.98336 -0.16172,0.46172 -0.481,0.76536 -0.86208,0.81986 -0.84791,0.12125 -0.58745,0.61972 0.62681,1.19961 1.18016,0.5636 3.64955,0.64391 5.38985,0.17529 l 1.108006,-0.29835 -0.792583,-0.74039 c -1.469734,-1.37293 -0.337698,-2.61679 2.089007,-2.29535 1.133018,0.15007 3.704167,0.89497 3.704167,1.07315 0,0.0462 -0.295346,0.60219 -0.656325,1.23551 -0.360979,0.63331 -0.852337,2.02887 -1.091904,3.10123 -0.36748,1.64491 -0.387048,2.24471 -0.125161,3.83645 0.561006,3.40982 2.002147,5.85526 4.230349,7.17839 0.735189,0.43656 1.339069,0.86393 1.341958,0.94971 0.0029,0.0858 -0.301278,0.29563 -0.675923,0.46633 -1.521346,0.69318 -2.966196,2.22964 -3.982725,4.23525 -0.986719,1.9468 -1.024644,2.11955 -1.024644,4.66746 0,2.27094 0.09994,2.88312 0.70535,4.32052 l 0.705353,1.6747 -1.763686,0.79529 c -1.878418,0.84704 -4.032293,1.17492 -4.996913,0.76068 z m 47.154063,0.0915 c -0.291042,-0.0715 -1.277086,-0.38523 -2.191208,-0.69712 -1.295403,-0.44198 -1.622822,-0.65776 -1.484254,-0.9782 1.309994,-3.02936 1.481939,-3.84977 1.347052,-6.4272 -0.101719,-1.94368 -0.284012,-2.88596 -0.742204,-3.83646 -0.806628,-1.67332 -2.978624,-3.81315 -4.647663,-4.57884 l -1.348288,-0.61854 1.225989,-0.65194 c 3.163081,-1.68203 5.051637,-4.25804 5.555319,-7.57753 0.323816,-2.13409 -0.08483,-4.98379 -0.920914,-6.42198 l -0.654807,-1.12637 0.607574,-0.22963 c 0.334163,-0.1263 1.302038,-0.44796 2.150829,-0.7148 1.387721,-0.43626 1.614385,-0.44543 2.248959,-0.0909 0.919882,0.51385 1.112197,1.87542 0.341172,2.41547 -0.336505,0.2357 -0.449374,0.4937 -0.312711,0.71482 0.28798,0.46596 2.544432,0.86372 3.707164,0.65349 1.632982,-0.29526 3.716949,-1.1772 3.716949,-1.57301 0,-0.20782 -0.116319,-0.37786 -0.258485,-0.37786 -0.142166,0 -0.453514,-0.29766 -0.691888,-0.66146 -0.3987,-0.6085 -0.399351,-0.71343 -0.0081,-1.31055 0.536776,-0.81923 1.83325,-1.07812 3.363741,-0.67171 1.895019,0.50321 3.144998,2.10653 2.77904,3.56462 -0.228904,0.91203 -1.215557,0.93067 -1.215557,0.023 0,-0.42154 -0.191786,-0.7045 -0.555799,-0.82003 -1.036492,-0.32897 -1.584394,1.04923 -0.801489,2.01608 0.776493,0.95893 2.514951,0.88359 3.401793,-0.14743 0.598849,-0.6962 0.65211,-0.93952 0.532315,-2.43188 l -0.13311,-1.65828 0.960957,0.4114 c 0.528529,0.22627 1.139552,0.48325 1.357833,0.57105 0.877896,0.35316 4.395013,2.7688 4.822762,3.3124 0.251425,0.31952 0.459785,0.95987 0.463021,1.42301 0.0068,0.96944 -0.578835,1.28838 -1.852145,1.00871 -0.95269,-0.20925 -0.967033,-0.0864 -0.152291,1.30382 0.75937,1.29576 2.18894,2.15599 3.994695,2.40376 1.882955,0.25837 3.454683,1.06058 3.823787,1.95168 0.386673,0.93351 0.116057,2.07878 -0.540432,2.28714 -0.71323,0.22637 -1.139161,-0.0917 -0.750263,-0.56032 0.237598,-0.28629 0.233042,-0.46583 -0.01956,-0.77019 -0.458927,-0.55297 -1.251643,-0.49526 -1.578192,0.1149 -0.40319,0.75337 -0.343836,1.02983 0.375542,1.74921 0.852316,0.85232 1.99013,0.84318 3.021031,-0.0243 0.667964,-0.56206 0.813829,-0.89709 0.880197,-2.02167 l 0.07955,-1.34796 1.113325,1.1156 1.113327,1.11559 -0.848744,0.8522 c -2.29267,2.30202 -5.422331,6.60281 -5.463805,7.50838 -0.0083,0.1819 -0.116379,0.33073 -0.240109,0.33073 -0.12373,0 -0.301839,-1.0418 -0.395801,-2.31511 -0.202448,-2.74346 -0.57813,-4.07019 -1.89044,-6.67609 -1.096946,-2.17824 -3.131531,-4.4854 -4.836747,-5.48473 -2.653136,-1.55484 -6.809335,-2.12914 -9.377696,-1.29581 -0.623549,0.20232 -1.444853,0.43862 -1.82512,0.52512 -1.195255,0.27188 -3.866274,2.25016 -4.808071,3.56107 -1.114103,1.55075 -1.931197,3.85803 -2.171695,6.13235 -0.148265,1.4021 -0.07589,2.03837 0.388755,3.41764 1.621052,4.81202 5.310449,7.11903 9.062987,5.66717 2.914785,-1.12773 4.287692,-4.26293 2.695398,-6.15527 -0.859383,-1.02131 -2.049116,-1.36394 -3.282839,-0.94542 -1.030222,0.34949 -1.524402,1.41739 -1.219002,2.6342 0.220575,0.87883 1.294247,1.4193 1.87011,0.94138 0.632954,-0.52531 0.492365,-1.25005 -0.280099,-1.44393 -0.56424,-0.14162 -0.628409,-0.23983 -0.364479,-0.55785 0.696362,-0.83906 2.519405,-0.11024 2.674548,1.06923 0.194911,1.48181 -0.979199,2.76087 -3.062306,3.33604 -1.470665,0.40607 -3.667627,-0.127 -4.474271,-1.08564 -1.069514,-1.27105 -1.863365,-3.19175 -1.863365,-4.50838 0,-1.59162 1.017164,-3.6443 2.191412,-4.42236 1.616543,-1.07113 4.502888,-0.62459 5.466238,0.84567 0.249312,0.3805 0.504524,0.64058 0.567135,0.57797 0.285811,-0.28581 -0.521912,-2.23534 -1.242968,-3.00004 -1.113864,-1.18128 -2.329571,-1.38027 -4.442179,-0.7271 -0.564978,0.17468 -0.584978,0.14342 -0.30348,-0.4744 0.424331,-0.93131 2.072849,-1.78655 3.443658,-1.78655 1.262848,0 2.30841,0.60446 4.300535,2.4862 1.717386,1.62222 2.981978,2.13137 4.367279,1.75835 1.210463,-0.32595 1.377034,-0.63806 0.570801,-1.06955 -0.371994,-0.19908 -0.529167,-0.55399 -0.529167,-1.19489 0,-0.75368 0.115528,-0.94069 0.666594,-1.079 1.39029,-0.34894 3.074175,1.01324 4.116626,3.33014 0.470143,1.04492 1.471385,6.53568 1.234906,6.77216 -0.08426,0.0842 -0.623528,-0.31714 -1.19838,-0.892 -1.568517,-1.56851 -3.565041,-1.57942 -4.653508,-0.0254 -0.874943,1.24915 -0.259223,3.00492 0.991222,2.82652 0.653285,-0.0932 0.938157,-1.2214 0.393411,-1.55807 -0.255455,-0.15788 -0.173979,-0.28179 0.307581,-0.46777 1.231527,-0.47563 2.288834,0.6464 2.009947,2.13299 -0.208222,1.10993 -0.780587,1.82378 -1.941703,2.42171 -0.468286,0.24115 -1.145021,0.75508 -1.503857,1.14207 -1.016945,1.09673 -1.286584,2.83893 -0.284247,1.83659 0.535016,-0.53501 0.772988,-0.53732 1.297717,-0.0126 0.582131,0.58213 0.521576,1.00539 -0.280148,1.95818 -0.711579,0.84567 -2.922119,2.12396 -3.672933,2.12396 -0.695947,0 -1.70108,-1.19267 -1.536269,-1.82291 0.0803,-0.30709 0.251185,-0.55834 0.379733,-0.55834 0.593765,0 0.135496,-0.5993 -0.758462,-0.99188 -0.725157,-0.31846 -1.811084,-0.43926 -4.034896,-0.44885 -2.657115,-0.0115 -3.182935,0.0618 -4.149236,0.57773 -1.21203,0.64719 -1.676344,1.1701 -1.18455,1.33403 1.08454,0.36152 1.385623,1.50325 0.637432,2.4172 -0.472205,0.57682 -2.481345,0.93768 -3.638021,0.65342 z m 60.7880202,-0.007 c -0.448527,-0.1888 -0.418174,-1.01609 0.051583,-1.40595 0.2102696,-0.17451 0.656754,-0.27838 0.9921875,-0.23083 0.4820364,0.0683 0.6098751,0.25283 0.6098751,0.8802 0,0.65667 -0.1142312,0.80256 -0.6614583,0.84477 -0.3638021,0.0281 -0.8102865,-0.0116 -0.9921875,-0.0882 z m -151.3661592,-2.88113 -0.8844,-0.38405 1.35824,-1.15937 c 1.25423,-1.07059 1.44739,-1.14933 2.5223,-1.02817 1.45036,0.16347 2.37987,-0.0601 3.05436,-0.73455 0.73587,-0.73587 0.69949,-2.2205 -0.0676,-2.75778 l -0.59002,-0.41327 1.0946,-1.09461 1.0946,-1.0946 0.55376,1.08546 c 1.31465,2.57691 0.10088,6.08759 -2.53598,7.33503 -1.60328,0.75847 -4.16089,0.87078 -5.59986,0.24591 z m 133.5781873,-0.0382 c -1.6949363,-0.43377 -3.4374553,-1.77503 -4.1360033,-3.18359 -0.637879,-1.28621 -0.636625,-3.59485 0.0026,-4.80605 l 0.470778,-0.89202 1.167223,1.14555 c 0.641972,0.63004 1.16722,1.21158 1.16722,1.29229 0,0.0807 -0.267891,0.26429 -0.595313,0.40793 -1.236459,0.54247 -0.723437,2.35283 0.905449,3.19515 0.56006,0.28962 1.1888762,0.38389 1.912919,0.28678 0.964311,-0.12935 1.2282647,-0.0292 2.4909966,0.94498 l 1.4123934,1.08965 -0.679704,0.35614 c -0.9893168,0.51835 -2.4972936,0.5781 -4.1185677,0.16319 z m -81.6138693,-0.0613 c -0.08667,-0.14024 -0.18098,-0.79251 -0.209574,-1.44947 -0.04289,-0.98543 0.0992,-1.39362 0.811832,-2.33232 1.327208,-1.74823 1.913456,-3.22851 2.083932,-5.26195 0.100539,-1.19922 0.325697,-2.07434 0.63481,-2.46731 0.550738,-0.70015 3.013175,-1.47837 4.677862,-1.47837 0.938014,0 1.156949,0.10949 1.484154,0.74224 0.447405,0.86519 1.456523,1.4007 2.248966,1.19347 0.305689,-0.0799 0.555797,-0.0537 0.555797,0.0584 0,0.22225 -1.726396,2.14378 -4.466992,4.97189 -2.610893,2.69427 -7.53463,6.48644 -7.820787,6.02343 z m 30.645714,-1.24926 c -5.806395,-4.85737 -10.009164,-9.36862 -8.931757,-9.58736 0.827908,-0.16809 1.622587,-0.831 1.953305,-1.62943 0.315995,-0.76287 0.343321,-0.77165 1.944987,-0.6246 2.284798,0.20977 3.190118,0.53694 4.121298,1.48937 0.737198,0.75403 0.810614,0.98593 0.811958,2.56469 0.0021,2.40155 0.353952,3.41615 1.611501,4.64613 1.057939,1.03474 1.079651,1.09233 0.974143,2.58363 -0.05935,0.83891 -0.233024,1.6504 -0.385935,1.80331 -0.194307,0.19431 -0.826487,-0.1808 -2.0995,-1.24574 z m 86.681648,0.0541 c 0,-0.35264 -0.309988,-1.00956 -0.688864,-1.45982 -0.65669,-0.78044 -0.668763,-0.84935 -0.258482,-1.47551 0.500825,-0.76436 0.857772,-0.81992 1.504921,-0.23426 0.256821,0.23242 0.891276,0.43461 1.409896,0.44931 0.51862,0.0147 0.942946,0.12456 0.942946,0.24413 0,0.46281 -1.302118,2.24907 -1.947966,2.67225 -0.886356,0.58076 -0.962451,0.56525 -0.962451,-0.1961 z m -201.6471,-0.3511 c -0.67099,-0.73664 -1.5529,-2.04612 -1.5529,-2.3058 0,-0.0779 0.2499,-0.1416 0.55533,-0.1416 0.30543,0 0.97749,-0.20033 1.49347,-0.44517 0.93034,-0.44148 0.94318,-0.43931 1.5451,0.26046 l 0.60697,0.70564 -0.77752,0.77752 c -0.42763,0.42763 -0.77751,1.0248 -0.77751,1.32704 0,0.74054 -0.30081,0.69152 -1.09294,-0.17809 z m 144.695538,0.44823 c -0.740071,-0.44128 -0.586319,-1.7547 0.310377,-2.65139 0.84917,-0.84918 1.629625,-0.9879 2.134611,-0.37943 0.372486,0.44882 0.177215,1.86773 -0.353004,2.56505 -0.440251,0.57899 -1.504644,0.81597 -2.091984,0.46577 z m -89.621178,-0.68186 c -0.69035,-0.58089 -0.81462,-0.85567 -0.7479,-1.65365 0.0772,-0.92276 0.12042,-0.95991 1.2094,-1.03859 0.95833,-0.0692 1.24885,0.0379 1.91823,0.70725 0.81973,0.81974 1.01855,1.81694 0.47135,2.36414 -0.55538,0.55537 -1.96291,0.36819 -2.85108,-0.37915 z m 117.20399,-0.3218 c 0,-0.14785 -0.2083593,-0.33919 -0.4630208,-0.42521 -0.2546615,-0.086 -0.857795,-0.51607 -1.3402945,-0.95566 l -0.8772737,-0.79928 0.4502124,-1.17886 c 0.8460052,-2.21523 0.1211924,-4.50977 -1.8227384,-5.77024 -1.4077765,-0.91282 -2.5120653,-1.09417 -4.133,-0.67874 -0.731203,0.1874 -1.370701,0.289 -1.421109,0.22577 -2.59928,-3.26023 -4.175861,-5.33777 -4.10468,-5.40895 0.05006,-0.0501 1.003824,-0.39744 2.119469,-0.77195 4.939562,-1.65816 7.9411983,-0.16108 9.3115812,4.64419 0.3149097,1.10423 0.698582,1.73623 1.4857518,2.44739 0.5836656,0.52731 1.2096962,0.95495 1.3911765,0.95033 0.4797663,-0.0122 1.1197114,-0.55947 1.5093262,-1.29067 0.32492948,-0.6098 0.35239858,-0.61557 0.62964485,-0.13229 0.38116669,0.66443 0.35161803,4.17867 -0.0468656,5.57404 -0.50505525,1.76855 -2.68817995,4.66792 -2.68817995,3.57013 z m -143.32711,-0.8108 c -0.63186,-0.80187 -1.70622,-3.32027 -1.62873,-3.81793 0.0262,-0.16827 -0.0471,-0.52399 -0.16296,-0.79049 -0.27448,-0.63157 0.0219,-4.14621 0.37976,-4.50412 0.19233,-0.19234 0.27654,-0.11016 0.27654,0.26986 0,0.64165 0.95232,1.94068 1.42271,1.94068 0.17928,0 0.74699,-0.38695 1.26157,-0.8599 0.70113,-0.64439 1.11815,-1.40923 1.66398,-3.05184 0.4006,-1.20558 1.02906,-2.54931 1.39657,-2.98607 1.30757,-1.55395 3.34606,-2.20922 5.58511,-1.79531 1.21425,0.22447 4.12912,1.30982 4.49183,1.67253 0.058,0.058 -0.87954,1.30894 -2.08341,2.77989 -1.57263,1.92152 -2.30623,2.629 -2.60579,2.513 -2.31174,-0.89514 -5.44593,0.21871 -6.48689,2.30535 -0.6504,1.30376 -0.75638,2.60662 -0.31275,3.84485 l 0.39956,1.1152 -1.21287,1.06761 c -0.66708,0.58718 -1.34493,1.06102 -1.50635,1.05297 -0.16141,-0.008 -0.55646,-0.34838 -0.87788,-0.75628 z m 136.35975,-0.99297 c -0.280863,-0.28086 -0.206216,-0.5493 0.195625,-0.7035 0.2046097,-0.0785 0.5802496,0.0873 0.8347576,0.36856 0.4455795,0.49236 0.4383246,0.51133 -0.1956277,0.51133 -0.3621008,0 -0.7377429,-0.0794 -0.8347549,-0.17639 z m -129.11699,-0.72019 c 0.66906,-0.5755 0.76422,-0.59324 1.06467,-0.19844 0.5294,0.69566 0.41153,0.83043 -0.72632,0.83043 h -1.07309 z m 130.0576709,-2.92611 c -2.2637429,-2.37397 -2.2821709,-2.52731 -0.3037232,-2.52731 1.5980066,0 2.7987202,1.51843 2.8644453,3.6224 0.014499,0.46436 -0.078071,0.90883 -0.2057241,0.98773 -0.1276535,0.0789 -1.1874024,-0.85838 -2.354998,-2.08282 z m -132.6298909,1.41358 c -0.94591,-1.76744 1.049,-3.94089 3.61715,-3.94089 0.73151,0 0.87722,0.08 0.70533,0.3871 -0.24208,0.43258 -3.74595,4.11081 -3.91594,4.11081 -0.0596,0 -0.24258,-0.25066 -0.40654,-0.55702 z m 83.471078,-0.88315 c -0.200687,-0.7996 0.02961,-1.20566 0.683794,-1.20566 0.603126,0 1.034886,0.68453 0.858118,1.3605 -0.198869,0.76047 -1.340972,0.64578 -1.541912,-0.15484 z m -33.348314,5.3e-4 c -0.0805,-0.20978 -0.104899,-0.59673 -0.05422,-0.85989 0.128619,-0.66786 1.62823,-0.6702 1.75677,-0.003 0.189817,0.98564 -1.354995,1.76835 -1.702552,0.86264 z m 6.232938,-8.07166 c -2.044459,-0.62037 -2.630382,-1.55964 -2.630382,-4.21667 0,-2.23191 -0.256847,-2.9737 -1.570426,-4.53545 -0.554101,-0.65879 -1.091647,-1.58112 -1.194546,-2.04961 -0.180727,-0.82284 0.199731,-2.5693 0.670978,-3.08007 0.70576,-0.76496 7.739195,5.73988 10.229932,9.46111 1.706324,2.54929 1.739323,2.81612 0.324792,2.62639 -1.241994,-0.16658 -2.11073,0.41981 -2.11073,1.42474 0,0.58158 -0.09531,0.61902 -1.521354,0.59771 -0.836745,-0.0125 -1.825963,-0.11518 -2.198264,-0.22815 z m 17.746168,-0.79867 c -0.452975,-1.09359 -0.901602,-1.39532 -2.122189,-1.42732 -0.581043,-0.0152 -1.056444,-0.0988 -1.056444,-0.18575 0,-0.0869 0.603848,-0.80331 1.341882,-1.59198 0.738034,-0.78866 1.534697,-1.71566 1.770361,-2.05998 0.605867,-0.88524 5.993882,-5.49954 7.684477,-6.581 0.777449,-0.49733 1.576697,-0.84162 1.776105,-0.7651 0.199409,0.0765 0.440942,0.55692 0.536739,1.06757 0.18433,0.98256 0.0037,1.43972 -1.666917,4.21738 -0.642972,1.06908 -0.892376,1.84096 -0.986666,3.05361 -0.0694,0.89258 -0.305466,1.96957 -0.524592,2.39331 -0.75153,1.4533 -3.161519,2.66423 -5.302347,2.66423 -0.998043,0 -1.162019,-0.0887 -1.450409,-0.78497 z m -4.50155,-3.2572 c 0,-1.34862 -1.477565,-2.38849 -1.77542,-1.24949 -0.08955,0.34244 -0.360897,0.52916 -0.76898,0.52916 -0.49625,0 -0.6306,-0.14092 -0.6306,-0.66145 0,-0.36381 -0.0893,-0.65724 -0.198437,-0.65209 -0.490117,0.0232 -1.462971,0.75183 -1.906537,1.42801 l -0.485598,0.74025 -0.990881,-1.55184 c -1.0058,-1.5752 -5.063355,-6.20167 -6.572287,-7.4938 -0.454556,-0.38924 -1.392015,-1.10696 -2.083239,-1.59492 -0.691224,-0.48795 -1.256771,-0.96845 -1.256771,-1.06776 0,-0.21312 3.277262,-1.7166 4.233334,-1.94209 0.800396,-0.18878 3.439583,0.0902 3.439583,0.36363 0,0.1073 -0.364916,0.26807 -0.810921,0.35727 -0.446009,0.0892 -1.160222,0.51148 -1.587143,0.9384 -1.483011,1.48301 -0.187799,2.25266 2.559137,1.52071 3.353514,-0.89358 4.34725,-0.45925 5.235456,2.28829 0.271378,0.83946 -0.496856,2.17492 -1.534358,2.66725 -0.9119,0.43273 -2.010088,0.38392 -2.010088,-0.0893 0,-0.11874 0.238125,-0.27816 0.529167,-0.35427 0.817383,-0.21375 0.717582,-1.45347 -0.13422,-1.66726 -0.988582,-0.24812 -1.982447,0.50261 -1.982447,1.49746 0,1.21398 1.027295,2.09878 2.435371,2.09755 1.529413,-0.001 2.698649,-0.7671 3.46067,-2.26651 l 0.624777,-1.22936 0.453266,1.18687 c 0.587959,1.53954 1.134821,2.0065 2.58219,2.20488 1.028629,0.14099 1.294014,0.069 2.031183,-0.55133 1.068517,-0.8991 1.135996,-1.98999 0.182096,-2.94389 -0.492342,-0.49234 -0.819851,-0.61781 -1.25677,-0.48148 -1.249014,0.38974 -1.329664,1.77849 -0.111395,1.91817 0.611057,0.0701 0.688049,0.15284 0.430622,0.46302 -0.172408,0.20774 -0.657828,0.37771 -1.078711,0.37771 -0.579417,0 -0.892559,-0.20882 -1.289532,-0.8599 -1.239398,-2.03276 -0.128566,-4.43177 2.052082,-4.43177 0.567354,0 1.59244,0.19111 2.277967,0.4247 1.504077,0.51249 2.94925,0.3162 3.362926,-0.45676 0.435422,-0.8136 0.127362,-1.24824 -1.379516,-1.94639 -1.332088,-0.61717 -1.35045,-0.64049 -0.643758,-0.81786 1.190299,-0.29875 3.288969,0.0819 5.084508,0.92209 0.926259,0.43345 1.684105,0.88364 1.684105,1.00042 -3e-6,0.11679 -0.803674,0.80514 -1.785937,1.52966 -2.556794,1.88591 -5.988723,5.27662 -8.135935,8.03822 -1.018646,1.31012 -1.941381,2.39022 -2.050521,2.40023 -0.109141,0.01 -0.198438,-0.25297 -0.198438,-0.5844 z m -19.39063,-0.3554 c -0.36803,-0.36803 -0.193749,-1.70245 0.244301,-1.87055 0.667948,-0.25631 1.286954,0.29085 1.286954,1.13758 0,0.62196 -0.12547,0.77955 -0.671359,0.84321 -0.36925,0.0431 -0.756203,-0.007 -0.859896,-0.11024 z m 33.325353,-0.54132 c -0.26222,-0.26222 -0.213465,-1.62155 0.06432,-1.79322 0.390348,-0.24125 1.049308,0.12622 1.226288,0.68384 0.261271,0.82319 -0.727159,1.67283 -1.290606,1.10938 z m -67.025573,-2.59057 c -0.74037,-0.52387 -0.55537,-1.24834 0.61854,-2.42225 1.92138,-1.92138 3.84199,-0.2568 2.00304,1.73601 -0.89986,0.97515 -1.85858,1.22611 -2.62158,0.68624 z m 100.122419,-0.28079 c -0.53947,-0.36658 -1.102892,-0.89454 -1.252045,-1.17323 -0.367496,-0.68668 -0.342464,-1.95191 0.04631,-2.34068 1.08304,-1.08304 3.915833,0.94496 3.915833,2.80335 0,0.57487 -0.785543,1.37706 -1.348478,1.37706 -0.20942,0 -0.82215,-0.29992 -1.36162,-0.6665 z m -148.631569,-0.7695 c 0,-0.20772 -0.29693,-0.61124 -0.65985,-0.89671 l -0.65984,-0.51904 1.11072,-1.00347 1.11073,-1.00348 0.23443,0.908 c 0.12894,0.4994 0.35403,1.05284 0.50021,1.22987 0.18951,0.2295 0.0498,0.51185 -0.48687,0.98383 -0.86459,0.76039 -1.14953,0.835 -1.14953,0.301 z m 198.345076,-0.30206 c -0.738455,-0.64944 -0.746747,-0.68717 -0.405257,-1.84372 0.191744,-0.6494 0.444352,-1.18072 0.561356,-1.18072 0.117001,0 0.749229,0.49453 1.404948,1.09895 l 1.192218,1.09895 -0.8674,0.74238 c -0.47707,0.40831 -0.92693,0.74346 -0.999691,0.74478 -0.07276,0.001 -0.471537,-0.29597 -0.886174,-0.66062 z m -99.244983,-5.0604 c -0.333849,-1.97604 -2.683971,-4.0863 -5.569884,-5.00139 -0.91648,-0.2906 -0.189487,-0.33526 5.423958,-0.33315 5.244407,0.002 6.330715,0.0619 5.688542,0.31364 -2.377107,0.93202 -4.133525,2.6136 -4.659263,4.46073 -0.456528,1.60397 -0.682765,1.74744 -0.883353,0.56017 z m 25.68018,-1.77134 c -0.204663,-0.48983 -0.525187,-0.9852 -0.712277,-1.10083 -0.505044,-0.31213 0.418119,-0.6071 1.970247,-0.62952 l 1.2872,-0.0186 -0.437475,0.66768 c -0.240612,0.36722 -0.418793,0.8137 -0.395957,0.99218 0.08851,0.6918 -0.04438,0.87248 -0.6804,0.92512 -0.52148,0.0432 -0.736976,-0.13153 -1.031338,-0.83603 z m -52.350583,0.44992 c -0.28476,-0.0744 -0.46302,-0.37489 -0.46302,-0.78045 0,-0.3627 -0.12847,-0.89949 -0.28548,-1.19288 -0.2757,-0.51514 -0.23264,-0.52701 1.25677,-0.34644 0.84824,0.10284 1.623291,0.23357 1.72234,0.29051 0.260583,0.1498 -1.14621,2.21748 -1.48386,2.18095 -0.15605,-0.0169 -0.49209,-0.0851 -0.74675,-0.15169 z m 9.099566,-1.80563 c -1.684419,-0.78414 -4.516305,-1.66917 -6.297565,-1.96813 -0.817819,-0.13727 1.348928,-0.21946 5.995393,-0.22743 6.246156,-0.0107 7.144565,0.036 6.347171,0.32999 -1.615493,0.59561 -4.230505,1.9987 -4.230505,2.26989 0,0.3814 -0.242956,0.32726 -1.814494,-0.40432 z m 32.638453,-0.59104 c -0.873125,-0.53322 -2.123282,-1.11553 -2.778125,-1.29403 -1.016582,-0.27709 -0.146376,-0.32291 5.953125,-0.3134 4.630293,0.007 6.745052,0.0897 6.010568,0.23441 -0.623247,0.12281 -2.349653,0.65429 -3.836458,1.18107 -1.486802,0.52678 -2.941402,1.00361 -3.232444,1.05961 -0.292687,0.0563 -1.238602,-0.33142 -2.116666,-0.86766 z"
       id="path21993" />
  </g>
</svg>
