<?xml version="1.0" encoding="UTF-8" standalone="no"?>
<!-- Created with Inkscape (http://www.inkscape.org/) -->

<svg
   width="303.94431mm"
   height="48.168045mm"
   viewBox="0 0 303.94431 48.168047"
   version="1.1"
   id="svg997"
   inkscape:version="1.1 (c4e8f9ed74, 2021-05-24)"
   sodipodi:docname="divider12.svg"
   xmlns:inkscape="http://www.inkscape.org/namespaces/inkscape"
   xmlns:sodipodi="http://sodipodi.sourceforge.net/DTD/sodipodi-0.dtd"
   xmlns="http://www.w3.org/2000/svg"
   xmlns:svg="http://www.w3.org/2000/svg">
  <sodipodi:namedview
     id="namedview999"
     pagecolor="#ffffff"
     bordercolor="#666666"
     borderopacity="1.0"
     inkscape:pageshadow="2"
     inkscape:pageopacity="0.0"
     inkscape:pagecheckerboard="0"
     inkscape:document-units="mm"
     showgrid="false"
     inkscape:zoom="1.5385816"
     inkscape:cx="484.53719"
     inkscape:cy="273.30367"
     inkscape:window-width="2506"
     inkscape:window-height="1403"
     inkscape:window-x="1974"
     inkscape:window-y="0"
     inkscape:window-maximized="1"
     inkscape:current-layer="layer1" />
  <defs
     id="defs994" />
  <g
     inkscape:label="Layer 1"
     inkscape:groupmode="layer"
     id="layer1"
     transform="translate(28.558568,-115.70979)">
    <path
       style="fill:#000000;stroke-width:0.264583"
       d="m 196.49448,163.72166 c -1.01864,-0.13686 -2.86411,-0.18384 -4.10104,-0.1044 -4.29863,0.27606 -9.0415,-0.7119 -10.9221,-2.27511 l -0.82892,-0.68903 0.64999,-0.35493 c 0.48353,-0.26404 1.90741,-0.34757 5.55996,-0.32615 2.70048,0.0158 5.31986,-0.0579 5.82083,-0.16378 l 0.91086,-0.19256 -1.05833,-0.37976 c -1.50458,-0.53988 -16.09771,-0.43875 -18.78541,0.13018 -4.26226,0.90222 -7.03894,1.21189 -14.68438,1.63766 -2.53448,0.14115 -3.51951,0.0741 -5.89727,-0.40132 -1.57001,-0.31393 -3.48884,-0.80809 -4.26408,-1.09815 -1.38521,-0.51827 -1.42954,-0.51883 -2.5694,-0.0326 -2.23261,0.95243 -3.98013,1.21876 -8.03904,1.22516 -3.33497,0.005 -4.4969,-0.10785 -7.27604,-0.70828 -2.5968,-0.56104 -4.55777,-0.77327 -9.12813,-0.9879 -3.20145,-0.15034 -6.89239,-0.25849 -8.20208,-0.24033 l -2.38125,0.033 1.45521,0.25056 c 2.12133,0.36524 5.32867,1.35747 5.37984,1.6643 0.0243,0.14552 -0.64596,0.33873 -1.48938,0.42935 -1.63891,0.17609 -16.27131,0.34933 -22.747481,0.26931 -2.337165,-0.0289 -5.368219,0.12945 -7.540625,0.39388 -3.996192,0.48642 -12.708196,0.55918 -14.99291,0.12521 -0.736807,-0.13995 -4.971055,-0.34118 -9.40944,-0.44718 -4.438386,-0.106 -8.665104,-0.22016 -9.392708,-0.25369 -0.748771,-0.0345 -2.011892,0.16069 -2.910417,0.44975 -1.997175,0.64251 -5.513527,0.69259 -7.540625,0.10739 -0.800364,-0.23105 -2.134785,-0.55754 -2.965378,-0.72553 -1.338921,-0.2708 -2.082874,-0.81239 -1.675514,-1.21975 0.134065,-0.13407 4.193321,0.2526 7.683601,0.7319 2.433862,0.33423 4.626901,0.34514 4.113675,0.0205 -0.211333,-0.13369 -0.479224,-0.18437 -0.595312,-0.11263 -0.116089,0.0718 -0.211072,-0.0529 -0.211072,-0.277 0,-0.2241 0.267891,-0.46189 0.595313,-0.52843 3.509496,-0.7132 5.863301,-1.46176 4.630324,-1.47255 -0.254595,-0.002 -1.532493,0.18053 -2.83977,0.40613 -2.931697,0.50593 -8.382963,0.39234 -14.326409,-0.29852 -3.890878,-0.45227 -4.250608,-0.45472 -6.085416,-0.0414 -2.190912,0.49349 -6.78456,0.99466 -7.300865,0.79653 -0.536842,-0.206 -0.391626,-1.07857 0.211347,-1.26995 1.080288,-0.34286 0.269422,-0.4185 -1.38153,-0.12886 -2.720581,0.4773 -2.733029,0.48361 -2.173981,1.10135 0.7668,0.8473 0.229981,0.99821 -5.052557,1.42029 -1.038241,0.083 -1.654096,0.26433 -1.803395,0.53111 -0.297582,0.53175 -2.17956,1.71137 -3.2123533,2.0135 -1.3716347,0.40125 -8.3104778,0.54992 -11.531539,0.24708 -1.6734895,-0.15734 -4.4128497,-0.39743 -6.0874672,-0.53353 -2.0587217,-0.16732 -3.4296745,-0.42205 -4.2333325,-0.78658 -0.653716,-0.29651 -1.501418,-0.54173 -1.883782,-0.54493 -0.840787,-0.007 -1.565136,-0.71026 -0.967718,-0.93952 0.209576,-0.0804 0.669469,-0.0403 1.021986,0.0892 0.35333,0.12977 1.531389,0.14316 2.625314,0.0298 1.091406,-0.11305 3.9489062,-0.39365 6.3499999,-0.62355 2.4010936,-0.2299 4.72281229,-0.49265 5.15937477,-0.5839 l 0.79374996,-0.16589 -0.6614583,-0.24907 c -0.42180931,-0.15883 -2.83367153,-0.13228 -6.65700923,0.0733 -6.6533271,0.35774 -18.2201301,0.21145 -19.2721561,-0.24374 -0.363802,-0.15741 -1.005116,-0.57526 -1.425142,-0.92855 -0.626224,-0.52672 -0.763684,-0.84936 -0.763684,-1.79249 0,-0.63258 -0.152685,-1.38907 -0.339301,-1.68108 -0.423366,-0.66249 -0.521297,-1.61628 -0.271843,-2.64761 0.105595,-0.43656 0.32597,-1.36291 0.489724,-2.05855 0.216929,-0.92153 0.445168,-1.29835 0.840969,-1.38843 0.29878,-0.068 4.909004,-0.15369 10.244943,-0.19041 5.33594,-0.0367 9.7899732,-0.15519 9.8978536,-0.26324 0.1078802,-0.10806 -0.013359,-1.17962 -0.2694183,-2.38125 -0.8028482,-3.76758 -0.8095993,-3.90458 -0.1924143,-3.90458 0.2983744,0 0.6171983,-0.12086 0.7084978,-0.26859 0.091299,-0.14772 0.5448107,-0.42895 1.0078021,-0.62494 1.7230539,-0.7294 1.8533004,-1.0915 1.9304926,-5.36701 0.07589,-4.20341 0.3879691,-5.2541 0.8789669,-2.95925 0.2624561,1.22668 1.2824327,4.39512 1.5105988,4.6925 0.076089,0.0992 2.28285933,-2.26371 2.9162586,-3.12255 0.686763,-0.93121 0.5956775,0.0752 -0.2792995,3.08611 -1.06703011,3.67174 -1.58868259,7.17898 -1.17156698,7.87681 0.0850768,0.14234 0.22811051,0.79458 0.31785188,1.44942 0.16554183,1.20799 0.11250873,1.15652 -0.61338351,-0.59531 -0.22832483,-0.55103 -0.24800718,-0.5338 -0.26458332,0.23151 -0.009842,0.45475 -0.0923211,1.19889 -0.18327158,1.65365 -0.12651316,0.63256 -0.0719587,0.82682 0.23218774,0.82682 0.21865166,0 0.55044708,-0.18423 0.73731964,-0.4094 0.21451626,-0.25847 0.40204226,-0.30864 0.50868526,-0.13609 0.172421,0.27898 41.21329457,0.4409 41.49050157,0.16369 0.07402,-0.074 -0.01016,-0.30897 -0.187052,-0.52211 -0.256212,-0.30872 -0.219187,-0.61944 0.182057,-1.52775 0.31015,-0.7021 0.460354,-1.50944 0.390916,-2.10115 -0.06266,-0.53395 0.01603,-1.04055 0.177115,-1.1401 0.162774,-0.10059 0.289883,0.002 0.289883,0.23334 0,0.22687 0.119062,0.41249 0.264583,0.41249 0.145521,0 0.264583,-0.11907 0.264583,-0.26459 0,-0.14552 0.112988,-0.26458 0.251082,-0.26458 0.138097,0 0.07845,0.41316 -0.132535,0.91813 -0.225896,0.54064 -0.364048,1.62847 -0.336016,2.64583 l 0.0476,1.72771 h 1.039659 c 1.001551,0 1.033041,-0.0267 0.85912,-0.72761 -0.0993,-0.40018 -0.299503,-0.77019 -0.444907,-0.82225 -0.145402,-0.052 -0.0141,-0.36102 0.291758,-0.68661 0.345866,-0.36815 0.617199,-1.10763 0.717662,-1.95587 0.175953,-1.48567 0.616992,-1.87007 0.616992,-0.53777 0,0.70436 0.05851,0.77759 0.396875,0.49677 0.322778,-0.26788 0.396875,-0.25528 0.396875,0.0675 0,0.21828 -0.192122,0.55632 -0.426937,0.7512 -0.329015,0.27306 -0.392388,0.64604 -0.276302,1.6262 0.08285,0.69953 0.222465,1.3881 0.310259,1.53016 0.09496,0.15365 2.243304,0.25828 5.303387,0.25828 h 5.143759 l 0.0084,-1.12448 c 0.0046,-0.61847 0.168328,-1.33523 0.363778,-1.59281 0.224449,-0.29579 0.308957,-0.88062 0.229399,-1.5875 -0.107579,-0.95584 -0.01588,-1.24042 0.628409,-1.94995 0.414907,-0.45693 1.081797,-1.03617 1.481979,-1.2872 0.721233,-0.45242 0.727604,-0.48164 0.727604,-3.33641 0,-1.7436 0.1044,-2.87999 0.264584,-2.87999 0.14552,0 0.264583,0.40175 0.264583,0.89278 0,0.49103 0.170736,1.37669 0.379412,1.96815 0.246333,0.69818 0.283639,1.10729 0.106355,1.16639 -0.150183,0.0501 -0.222504,0.38478 -0.160718,0.74383 l 0.112342,0.65281 0.257423,-0.61493 c 0.141584,-0.33822 0.348295,-0.59755 0.459359,-0.57629 0.111064,0.0212 0.819544,-0.49789 1.574401,-1.15366 0.754856,-0.65577 1.667533,-1.446 2.028171,-1.75608 0.872001,-0.74975 0.977381,-0.2857 0.196448,0.86507 -0.345056,0.50847 -1.016095,2.33753 -1.491194,4.06457 -0.475102,1.72704 -0.978453,3.42738 -1.118561,3.77852 -0.140107,0.35115 -0.325194,1.39295 -0.411308,2.31511 -0.176577,1.89095 -0.264932,1.8253 2.301203,1.70992 0.902698,-0.0406 1.320996,-0.21104 1.729729,-0.70486 0.296511,-0.35823 0.735698,-0.65133 0.975977,-0.65133 0.64013,0 0.831154,-1.79819 0.605898,-5.70361 -0.229896,-3.98586 -0.18071,-4.08597 2.007418,-4.08597 1.436571,0 1.562333,-0.0489 1.71763,-0.66764 0.09217,-0.36721 0.0529,-1.5876 -0.08725,-2.71198 -0.244933,-1.96501 -0.230706,-2.06695 0.366639,-2.62702 0.341804,-0.32047 0.621461,-0.71445 0.621461,-0.87551 0,-0.16106 0.113588,-0.22263 0.252415,-0.13683 0.138829,0.0858 0.555548,0.0799 0.926042,-0.0131 0.556135,-0.13958 0.673626,-0.32558 0.673626,-1.06642 0,-0.63692 0.119891,-0.89736 0.413086,-0.89736 0.33691,0 0.381572,-0.21017 0.242189,-1.13964 -0.130469,-0.87003 -0.07171,-1.22197 0.24837,-1.48761 0.2306,-0.19138 0.419272,-0.51198 0.419272,-0.71244 0,-0.20046 0.119062,-0.36448 0.264583,-0.36448 0.145521,0 0.264583,0.16402 0.264583,0.36448 0,0.20046 0.178594,0.5127 0.396875,0.69385 0.651841,0.54098 0.494596,1.56345 -0.286088,1.86026 -0.992712,0.37743 -0.657532,0.93576 0.49957,0.83217 0.864677,-0.0774 0.972524,-0.0135 1.115245,0.66145 0.229217,1.08394 0.526053,1.54049 1.003903,1.54406 0.231585,0.002 0.669325,0.26962 0.972754,0.59531 0.303427,0.32569 0.669171,0.59217 0.81276,0.59217 0.143587,0 0.06711,0.37508 -0.169957,0.83352 -0.341744,0.66086 -0.393483,1.23418 -0.249775,2.76777 l 0.181256,1.93426 2.161206,0.0765 2.161209,0.0765 v 0.79375 0.79375 l 1.984375,0.0861 c 1.091406,0.0474 2.490391,0.0103 3.108854,-0.0823 l 1.124479,-0.16845 v -1.55371 c 0,-1.28259 0.14541,-1.78762 0.8333,-2.89421 0.906267,-1.45788 1.11787,-1.57949 1.526757,-0.87747 0.210754,0.36184 0.271444,0.18761 0.277731,-0.79734 0.0044,-0.6932 0.118416,-1.46711 0.253314,-1.71979 0.134898,-0.25269 0.309756,-0.66779 0.388573,-0.92246 0.08908,-0.28784 0.40754,-0.46302 0.841745,-0.46302 0.596381,0 0.676161,-0.0888 0.545949,-0.60759 -0.186571,-0.74336 0.148376,-2.10009 0.551656,-2.23451 0.180695,-0.0602 0.366792,0.47308 0.479304,1.3736 0.181821,1.45526 0.195318,1.47389 1.181639,1.63161 0.901456,0.14415 1.013094,0.25247 1.157004,1.1227 0.0876,0.52973 0.1606,1.36854 0.1622,1.86402 l 0.003,0.90086 7.02287,-0.15303 c 6.74052,-0.14689 7.01665,-0.13344 6.86809,0.33464 -0.14818,0.46687 0.10563,0.48185 5.94925,0.35116 5.29791,-0.11849 6.18917,-0.0807 6.74865,0.28585 0.35453,0.2323 1.04984,0.42236 1.54512,0.42236 0.85278,0 0.90815,-0.057 1.0446,-1.07427 0.0793,-0.59085 0.037,-1.44764 -0.0939,-1.90399 -0.18098,-0.63106 -0.1328,-0.99022 0.20123,-1.50001 0.26482,-0.40416 0.48225,-0.54113 0.54763,-0.34497 0.19156,0.57467 0.59352,0.34703 0.59352,-0.33613 0,-0.48507 -0.14111,-0.66146 -0.52917,-0.66146 -0.38981,0 -0.52917,-0.17639 -0.52917,-0.66977 0,-0.36836 0.18214,-0.73965 0.40476,-0.82508 0.24056,-0.0923 0.34564,-0.3416 0.25902,-0.61451 -0.0802,-0.25255 0.0865,-0.98259 0.3703,-1.62231 0.45746,-1.03108 0.51816,-1.0823 0.53473,-0.45114 0.0103,0.3916 0.14813,0.79199 0.30633,0.88976 0.15819,0.0978 0.22193,0.42902 0.14162,0.7361 -0.0928,0.35497 0.0521,0.76917 0.39777,1.13716 0.56175,0.59796 0.57335,1.60272 0.0172,1.48593 -0.19023,-0.0399 -0.31501,0.25949 -0.31501,0.75591 0,0.60069 0.10098,0.78331 0.37498,0.67817 0.50937,-0.19547 0.68335,0.37116 0.68335,2.22558 0,1.85414 0.51718,2.142 0.55532,0.30909 0.0593,-2.8516 0.16007,-3.44877 0.7401,-4.38728 0.61836,-1.00051 1.84947,-1.84664 2.80562,-1.92826 0.31322,-0.0267 0.93318,0.38351 1.51916,1.00527 1.28556,1.36407 1.85761,1.27194 2.08765,-0.33625 0.24517,-1.71392 1.0639,-3.1563 2.31417,-4.07691 0.64613,-0.47577 1.08048,-1.01198 1.08423,-1.3385 0.003,-0.29961 0.175,-0.77552 0.38125,-1.05758 0.25761,-0.3523 0.29154,-0.6134 0.10839,-0.83408 -0.32244,-0.38852 0.14563,-1.99229 0.72077,-2.46962 0.21084,-0.17498 0.38334,-0.59419 0.38334,-0.93159 0,-0.3374 0.11906,-0.68703 0.26458,-0.77697 0.15384,-0.0951 0.26459,0.16734 0.26459,0.62695 0,0.43475 0.17813,0.96859 0.39585,1.18631 0.50797,0.50797 0.97513,1.73137 0.78105,2.0454 -0.0824,0.13331 -0.33129,0.24238 -0.55311,0.24238 -0.22182,0 -0.35049,0.14883 -0.28595,0.33073 0.0645,0.1819 0.37213,0.30237 0.68351,0.26771 0.48232,-0.0537 0.56615,0.0736 0.56615,0.85989 0,0.6432 0.12006,0.92292 0.39611,0.92292 0.60072,0 2.48631,1.81829 3.06801,2.95852 0.28346,0.55563 0.62088,1.01023 0.74982,1.01023 0.12894,0 0.17535,0.22596 0.10313,0.50212 -0.0722,0.27617 0.024,0.78218 0.21383,1.12448 0.45142,0.81401 0.42517,0.59129 0.46311,3.92965 0.0198,1.74184 0.13931,2.91042 0.29765,2.91042 0.14553,0 0.26459,-0.2311 0.26459,-0.51355 0,-1.25654 0.76835,-0.68899 0.81408,0.60134 0.0131,0.37125 0.12986,0.21518 0.33073,-0.44234 0.33854,-1.10814 0.70727,-1.04639 0.70727,0.11845 0,0.76491 0.55051,1.3627 0.73772,0.80107 0.0815,-0.24449 0.19618,-0.24886 0.47425,-0.0181 0.29184,0.24221 0.42037,0.16339 0.62918,-0.38583 0.44914,-1.18134 0.77728,-0.76369 0.85874,1.09299 0.0924,2.10695 0.18614,2.16021 2.8996,1.64822 1.45106,-0.2738 2.00666,-0.27097 3.04843,0.0155 0.70067,0.19269 1.33349,0.43184 1.40625,0.53145 0.0728,0.0996 0.54901,0.39069 1.05833,0.64685 0.50932,0.25617 1.93947,1.10371 3.17811,1.88343 l 2.25207,1.41767 3.43647,-0.25129 c 1.89006,-0.13821 3.70437,-0.25476 4.03179,-0.259 0.36012,-0.005 0.59531,-0.17108 0.59531,-0.42123 0,-0.24466 0.18906,-0.38431 0.46302,-0.342 0.25466,0.0393 1.02657,-0.1472 1.71536,-0.4145 1.00835,-0.39131 1.65269,-0.45307 3.30729,-0.31696 3.32776,0.27372 4.33477,0.46577 4.4842,0.85518 0.21267,0.55419 4.31763,0.52599 4.31763,-0.0297 0,-0.29694 0.31646,-0.39712 1.25677,-0.39784 0.69122,-5.3e-4 2.95341,-0.0786 5.02708,-0.17345 3.44831,-0.15775 3.77032,-0.13383 3.77032,0.28005 0,0.37478 0.2159,0.43867 1.25677,0.37188 l 1.25677,-0.0806 0.14942,-1.11957 c 0.0822,-0.61576 0.20125,-1.16575 0.26459,-1.2222 0.0633,-0.0564 2.02015,-0.20749 4.34849,-0.33564 l 4.23333,-0.23301 -0.0788,-1.19062 c -0.0772,-1.16691 -0.0553,-1.20297 1.10139,-1.81046 1.69088,-0.88806 2.16561,-1.52568 2.67471,-3.59246 0.48228,-1.95791 1.4694,-4.12708 1.45262,-3.19212 -0.0104,0.58107 -0.61943,3.1723 -0.91629,3.89868 -0.27661,0.67682 0.31274,0.57494 0.76526,-0.13229 0.26692,-0.41715 0.43105,-1.82262 0.54843,-4.69635 0.11496,-2.81428 0.27541,-4.21011 0.5114,-4.44864 0.28262,-0.28567 0.37248,-0.0412 0.50447,1.37223 0.17937,1.92086 1.20401,5.72223 1.54239,5.72223 0.52007,0 3.87376,-3.50635 4.46983,-4.6733 0.60956,-1.19335 0.6593,-1.23155 0.73618,-0.56531 0.0454,0.39299 -0.0495,0.9612 -0.21091,1.26268 -0.25734,0.48086 -1.58071,8.67756 -1.58842,9.83841 -0.003,0.39336 0.41259,0.42879 4.03198,0.34403 4.91842,-0.11518 5.70881,0.0212 6.24811,1.07777 0.37875,0.74208 0.50657,0.79301 2.15932,0.86026 3.3996,0.13834 3.96184,0.2967 3.96184,1.11588 0,0.72618 0.42386,0.88356 2.2253,0.82632 2.19853,-0.0699 9.8234,-0.79607 10.30709,-0.98167 0.21521,-0.0826 0.45627,-0.31954 0.53572,-0.52657 0.11036,-0.28756 0.7161,-0.37642 2.56612,-0.37642 1.33191,0 4.4015,-0.17562 6.82133,-0.39027 4.99938,-0.44347 8.53662,-0.42904 8.69124,0.0354 0.0561,0.16865 -0.26143,0.38647 -0.70569,0.48405 -0.94846,0.20831 -1.01272,0.5972 -0.25744,1.55738 0.51831,0.65895 0.53951,0.9034 0.36462,4.20399 -0.20484,3.86491 0.13581,6.54483 0.8319,6.54483 0.61204,0 0.74314,0.76423 0.2286,1.33277 -0.29199,0.32266 -0.81169,0.51931 -1.37239,0.51931 -1.08548,0 -1.8764,0.37767 -2.58744,1.2355 -0.36066,0.43511 -1.14763,0.79701 -2.47124,1.13642 -1.90428,0.48831 -3.0598,1.02673 -1.49751,0.69776 1.72058,-0.36229 4.47087,-0.35639 4.83764,0.0104 0.19775,0.19774 0.64868,0.35953 1.00208,0.35953 0.76229,0 0.75708,-0.0323 0.21386,1.32528 -0.53268,1.33132 -1.39072,1.8994 -1.60887,1.06518 -0.13547,-0.51795 -0.18122,-0.52797 -0.61561,-0.13485 -0.31763,0.28745 -0.52678,0.33166 -0.6472,0.13682 -0.12091,-0.19564 -0.48958,-0.12326 -1.15075,0.22593 -1.55157,0.81945 -3.16008,1.08129 -5.07386,0.82593 -1.71561,-0.2289 -3.85318,-0.63992 -4.93847,-0.94957 -0.43077,-0.1229 -0.68644,0.01 -1.03082,0.53554 -0.37563,0.57325 -0.59261,0.66941 -1.20637,0.5346 -0.41161,-0.0904 -1.65814,0.038 -2.77005,0.28541 -1.77583,0.39509 -2.45372,0.41255 -5.57462,0.14358 -4.49251,-0.38718 -7.15047,-0.928 -9.42758,-1.91825 -1.89235,-0.82294 -2.17603,-0.81842 -3.92281,0.0625 -1.42375,0.71803 -6.52191,1.68189 -6.96241,1.31631 -0.23373,-0.19399 -0.56784,-0.20816 -1.00336,-0.0426 -0.83004,0.31558 -5.44238,0.18365 -7.34168,-0.20999 -0.79638,-0.16506 -1.80841,-0.27821 -2.24896,-0.25144 -0.44055,0.0268 -1.45584,-0.25329 -2.2562,-0.62237 -1.98431,-0.91505 -3.175,-1.16443 -3.175,-0.66498 0,0.61411 -1.05128,1.77649 -1.6067,1.77649 -0.56708,0 -0.69601,0.41434 -0.17924,0.57604 0.1819,0.0569 1.64042,0.0359 3.24115,-0.0468 2.60177,-0.13433 6.64264,0.0721 6.92426,0.3537 0.29347,0.29347 -0.61414,1.49763 -1.50708,1.99948 -0.80317,0.45141 -1.40856,0.56022 -2.94932,0.53009 -1.11841,-0.0219 -2.27454,0.1105 -2.73245,0.31285 -0.49737,0.21979 -2.6214,0.42575 -5.68854,0.55161 -2.69213,0.11047 -5.90682,0.25476 -7.14375,0.32064 -1.23692,0.0659 -3.08239,0.008 -4.10104,-0.12902 z m -25.11839,-7.08689 c 0.1652,0.2673 2.23108,0.32229 2.87175,0.0764 0.23019,-0.0883 0.41852,-0.31653 0.41852,-0.50712 0,-0.19058 0.14882,-0.39967 0.33073,-0.46463 0.1819,-0.065 0.25312,-0.2021 0.15828,-0.30474 -0.2402,-0.25994 -5.57108,0.37783 -5.99164,0.71683 -0.53744,0.4332 0.11732,0.68565 1.16528,0.4493 0.49532,-0.11171 0.9665,-0.0965 1.04708,0.0339 z M -5.5189346,147.80983 c -0.00212,-0.1819 -0.1194673,-0.50932 -0.2605325,-0.7276 -0.1998623,-0.30927 -0.2573748,-0.23626 -0.2605318,0.33073 -0.00223,0.40018 0.115011,0.7276 0.2605318,0.7276 0.1455208,0 0.2627603,-0.14883 0.2605325,-0.33073 z m 3.3398459,-11.04635 c -0.1379855,-1.00015 -0.6329944,-2.41695 -0.6933141,-1.98438 -0.020294,0.14552 -0.086577,1.00924 -0.1473015,1.91937 -0.107352,1.60897 -0.095472,1.6456 0.4289822,1.32292 0.4260611,-0.26214 0.5125481,-0.52644 0.4116334,-1.25791 z M 222.93328,130.70967 c 0.0792,-0.12813 -0.0858,-1.1104 -0.3667,-2.18281 -0.51331,-1.95992 -0.62163,-1.90103 -0.55026,0.29912 0.0598,1.84291 0.44856,2.64157 0.91696,1.88369 z m -91.394,-1.07433 c 0,-0.28245 -0.11907,-0.58713 -0.26459,-0.67707 -0.15006,-0.0927 -0.26458,0.12954 -0.26458,0.51355 0,0.37239 0.11906,0.67707 0.26458,0.67707 0.14552,0 0.26459,-0.23109 0.26459,-0.51355 z m 13.67448,-9.59022 c -0.0845,-0.21107 -0.14715,-0.14837 -0.15985,0.15985 -0.0115,0.27891 0.0511,0.43518 0.13897,0.34727 0.0879,-0.0879 0.0973,-0.31613 0.0209,-0.50712 z m 0.97328,0.1819 c -0.0838,-0.21828 -0.25862,-0.39688 -0.38857,-0.39688 -0.12995,0 -0.23628,0.1786 -0.23628,0.39688 0,0.21828 0.17486,0.39687 0.38857,0.39687 0.2367,0 0.32905,-0.15512 0.23628,-0.39687 z m -0.65934,43.13669 c -0.0675,-0.0675 -1.30772,-0.18957 -2.75608,-0.27132 -3.20029,-0.18062 -4.5703,-0.37347 -4.75298,-0.66907 -0.25517,-0.41287 0.35434,-0.53672 4.55297,-0.92512 4.49609,-0.41592 7.99708,-0.49455 9.97126,-0.22396 1.09816,0.15052 1.21596,0.23046 1.07227,0.72761 -0.37071,1.28256 -0.99639,1.48454 -4.59858,1.48454 -1.8514,0 -3.42138,-0.0552 -3.48886,-0.12268 z M 16.595387,161.9425 c -0.281384,-0.1193 -0.3991,-0.28644 -0.261594,-0.37142 0.894832,-0.55304 9.121161,-1.41103 14.395169,-1.50139 2.00768,-0.0344 3.714208,-0.18263 3.902604,-0.33898 0.52451,-0.43531 0.400765,0.17704 -0.128222,0.6345 -0.254661,0.22023 -0.87974,0.54845 -1.389062,0.72938 -1.54104,0.54743 -15.533568,1.26566 -16.518895,0.84791 z M 136.19821,125.96204 c -0.0716,-0.11589 -0.004,-0.70787 0.15021,-1.31552 0.29342,-1.156 0.74711,-1.26905 0.74711,-0.18617 0,0.34663 0.12534,0.7077 0.27855,0.80238 0.1532,0.0947 0.23621,0.29917 0.18446,0.45441 -0.11506,0.34518 -1.17987,0.53688 -1.36033,0.2449 z"
       id="path2801" />
  </g>
</svg>
