<?xml version="1.0" encoding="UTF-8" standalone="no"?>
<!-- Created with Inkscape (http://www.inkscape.org/) -->

<svg
   width="408.58765mm"
   height="59.592064mm"
   viewBox="0 0 408.58772 59.592061"
   version="1.1"
   id="svg5"
   inkscape:version="1.1 (c4e8f9ed74, 2021-05-24)"
   sodipodi:docname="divider2.svg"
   xmlns:inkscape="http://www.inkscape.org/namespaces/inkscape"
   xmlns:sodipodi="http://sodipodi.sourceforge.net/DTD/sodipodi-0.dtd"
   xmlns="http://www.w3.org/2000/svg"
   xmlns:svg="http://www.w3.org/2000/svg">
  <sodipodi:namedview
     id="namedview7"
     pagecolor="#ffffff"
     bordercolor="#666666"
     borderopacity="1.0"
     inkscape:pageshadow="2"
     inkscape:pageopacity="0.0"
     inkscape:pagecheckerboard="0"
     inkscape:document-units="mm"
     showgrid="false"
     inkscape:zoom="0.66903058"
     inkscape:cx="559.76514"
     inkscape:cy="290.71915"
     inkscape:window-width="2506"
     inkscape:window-height="1403"
     inkscape:window-x="1974"
     inkscape:window-y="0"
     inkscape:window-maximized="1"
     inkscape:current-layer="layer1" />
  <defs
     id="defs2" />
  <g
     inkscape:label="Layer 1"
     inkscape:groupmode="layer"
     id="layer1"
     transform="translate(12.93872,-135.00757)">
    <path
       style="fill:#000000;stroke-width:0.264583"
       d="m 212.65425,194.26452 c -0.2419,-0.2673 -0.43982,-0.69201 -0.43982,-0.9438 0,-0.25179 -0.1188,-0.38438 -0.264,-0.29464 -0.1452,0.0897 -1.34882,0.2255 -2.67472,0.30168 -1.82276,0.10474 -2.36333,0.0618 -2.21641,-0.17589 0.13223,-0.21394 0.0358,-0.27019 -0.30184,-0.17601 -0.27288,0.0761 -1.08638,0.21893 -1.80777,0.31736 -0.72139,0.0984 -1.4406,0.35537 -1.59825,0.57097 -0.24037,0.32873 -0.40553,0.33784 -1.0231,0.0565 -0.59334,-0.27035 -0.84039,-0.27064 -1.27136,-0.002 -0.44416,0.27739 -0.61452,0.262 -1.0043,-0.0907 -0.36619,-0.33141 -1.08224,-0.42765 -3.25676,-0.43774 -1.53305,-0.007 -3.02117,0.1122 -3.30693,0.26513 -0.28576,0.15294 -0.58225,0.21538 -0.65886,0.13877 -0.26445,-0.26446 -5.09542,-0.32033 -7.05846,-0.0816 -1.20615,0.14666 -2.0277,0.1441 -2.12084,-0.007 -0.0841,-0.13604 -2.24901,-0.25006 -4.84405,-0.25511 -2.84592,-0.006 -4.90285,-0.12196 -5.22785,-0.29589 -0.2947,-0.15772 -1.09844,-0.27542 -1.78609,-0.26156 -4.49318,0.0906 -32.04406,-0.31138 -33.66174,-0.49108 -2.66904,-0.2965 -11.09334,-0.20319 -16.13958,0.17877 -5.313,0.40214 -16.28028,0.39865 -21.16667,-0.007 -4.101098,-0.34024 -26.068495,-0.46271 -30.735648,-0.17136 -5.433443,0.3392 -37.52369,0.31778 -39.775813,-0.0265 -1.164167,-0.17799 -3.009636,-0.46497 -4.101042,-0.63774 -1.962822,-0.31071 -3.242961,-0.22759 -5.55625,0.36079 -4.356047,1.10795 -8.9344,1.36334 -14.2875008,0.79698 -3.0797898,-0.32584 -7.6734931,-0.19058 -8.8609775,0.26089 -0.3427288,0.13031 -2.6377312,0.27313 -5.1000062,0.31739 -3.4978885,0.0629 -4.5727215,0.001 -4.9152305,-0.28266 -0.607071,-0.50287 -0.573175,-2.78106 0.102853,-6.91292 0.297615,-1.81901 0.488415,-3.51151 0.424,-3.7611 -0.171627,-0.66504 0.631096,-0.81376 2.4551995,-0.45489 1.131946,0.2227 3.728407,0.26061 9.07076163,0.13246 7.19319237,-0.17245 29.76950687,-0.37259 43.86506787,-0.38875 3.710782,-0.004 9.009063,0.12184 11.773959,0.28023 5.661006,0.32428 9.019148,0.18162 14.022917,-0.59575 2.889604,-0.44891 3.778033,-0.49026 5.55625,-0.25861 4.839777,0.6305 10.406999,0.85704 21.256334,0.86496 l 11.473156,0.008 2.0238,-2.101 c 1.11309,-1.15555 3.11805,-3.28245 4.45548,-4.72643 2.45742,-2.65323 3.00855,-3.22333 5.04279,-5.21632 0.61847,-0.60592 1.12448,-1.24715 1.12448,-1.42495 0,-0.17779 -0.3663,-0.86602 -0.814,-1.52939 -0.88866,-1.31675 -3.23627,-5.96323 -3.54807,-7.02249 -0.20186,-0.68577 -0.40493,-1.17887 -1.56997,-3.8122 -0.81849,-1.85 -0.71181,-2.5378 0.39362,-2.5378 0.43972,0 0.77969,0.1433 0.78461,0.33073 0.005,0.1819 0.8339,1.20561 1.84249,2.2749 1.00859,1.0693 1.90567,2.17063 1.99352,2.4474 0.0878,0.27677 0.24508,0.50322 0.34942,0.50322 0.10434,0 0.4007,0.35719 0.65859,0.79375 0.25788,0.43656 0.63016,0.79375 0.82727,0.79375 0.19712,0 0.64247,0.32742 0.98968,0.7276 0.97215,1.1205 2.29115,1.96616 2.79857,1.79427 0.24951,-0.0845 0.86961,-0.71627 1.37801,-1.40391 0.50839,-0.68764 0.99534,-1.30978 1.08211,-1.38254 0.0868,-0.0728 0.534,-0.65618 0.99387,-1.29647 0.71234,-0.99185 0.83612,-1.39519 0.83612,-2.72476 0,-1.01911 0.1836,-1.9406 0.52916,-2.65584 0.688,-1.42399 0.68361,-1.45386 -0.36317,-2.47048 -1.33309,-1.29469 -1.39285,-1.95274 -0.40411,-4.45011 1.00679,-2.54296 1.42777,-3.06119 3.61667,-4.45215 1.89094,-1.20163 2.49099,-1.99446 1.80153,-2.3803 -0.37172,-0.20802 -0.4103,-0.54505 -0.2606,-2.2763 0.22537,-2.60629 0.58857,-3.07204 2.22356,-2.85139 0.65523,0.0884 1.69973,0.42799 2.32111,0.7546 1.12312,0.59033 1.12887,0.60083 0.97695,1.78445 -0.0841,0.65484 -0.40516,1.75769 -0.71357,2.45078 -0.56075,1.26016 -0.56075,1.26016 0.0152,2.28499 0.31679,0.56365 0.57598,1.33603 0.57598,1.7164 0,0.38037 0.236,0.92758 0.52446,1.21603 0.52288,0.52289 0.53011,0.51715 2.41499,-1.91823 1.0398,-1.34347 2.06566,-2.80795 2.2797,-3.2544 0.43984,-0.91743 1.70379,-1.55222 2.16745,-1.08855 0.38585,0.38584 0.36061,1.14157 -0.0665,1.99174 -0.19405,0.38625 -0.66941,1.35712 -1.05635,2.15749 -0.38693,0.80036 -1.36139,2.20938 -2.16545,3.13115 -0.80407,0.92177 -1.63602,2.01259 -1.84879,2.42404 -0.21276,0.41144 -0.66363,0.96695 -1.00192,1.23447 -0.44764,0.35398 -0.61474,0.7553 -0.61383,1.47429 7.9e-4,0.60448 -0.22468,1.29349 -0.58084,1.77523 -0.48618,0.65759 -0.58208,1.13781 -0.58208,2.91469 0,1.78787 -0.0861,2.21343 -0.53926,2.66664 -0.41192,0.41192 -0.74216,0.5012 -1.39849,0.37807 -0.85922,-0.16119 -0.85922,-0.16119 -1.47167,1.64355 -0.33685,0.99261 -0.76766,2.16193 -0.95736,2.59849 -0.59282,1.36425 -1.18947,3.37538 -1.18947,4.00933 0,0.51967 0.0863,0.5756 0.59531,0.38581 0.32742,-0.12209 1.19063,-0.30524 1.91823,-0.407 0.72761,-0.10176 1.97776,-0.4046 2.77813,-0.67297 2.63696,-0.88421 8.33043,-2.65382 8.53811,-2.65376 0.11206,2e-5 1.18362,-0.46166 2.38125,-1.02597 4.68385,-2.20699 5.76526,-2.67815 6.14697,-2.67815 0.21789,0 0.39617,-0.10418 0.39617,-0.23151 0,-0.12733 0.35346,-0.3022 0.78548,-0.3886 0.43201,-0.0864 1.02733,-0.39895 1.32292,-0.69454 0.29559,-0.29559 0.72021,-0.53743 0.94361,-0.53743 0.2234,0 0.70982,-0.19895 1.08092,-0.4421 0.5682,-0.3723 0.71079,-0.38375 0.90314,-0.0725 0.17813,0.28822 0.2896,0.22536 0.5063,-0.2855 0.21109,-0.49762 0.26205,-0.52789 0.21203,-0.12592 -0.0479,0.38493 -0.91308,0.96186 -3.17418,2.11666 -1.70957,0.87313 -3.10855,1.68383 -3.10885,1.80156 -2.6e-4,0.11773 0.1103,0.14555 0.24576,0.0618 0.34859,-0.21545 0.6775,0.40883 0.5865,1.11318 -0.0423,0.32742 0.0561,0.59531 0.21863,0.59531 0.16254,0 0.58778,0.29224 0.94497,0.64943 0.86755,0.86755 0.87274,2.14147 0.0115,2.81893 -0.35087,0.27599 -0.60445,0.70984 -0.56352,0.96412 0.16893,1.04949 -0.27856,1.31555 -2.16143,1.28511 -1.79647,-0.0291 -1.79647,-0.0291 -1.72099,-0.83229 0.0596,-0.63465 -0.0931,-0.92784 -0.7276,-1.39698 -0.58765,-0.43447 -0.80309,-0.80922 -0.80309,-1.39697 0,-0.96885 0.42002,-1.82677 0.89434,-1.82677 0.43195,0 1.28239,-0.91007 1.0591,-1.13336 -0.0904,-0.0904 -1.19199,0.35803 -2.44797,0.99654 -1.25598,0.6385 -3.11703,1.459 -4.13568,1.82333 -2.92336,1.04559 -9.79746,3.07411 -10.48672,3.09459 -0.34418,0.0102 -0.8639,0.11618 -1.15495,0.23544 -0.48587,0.19911 -0.46422,0.24229 0.26459,0.52777 0.43656,0.171 1.86531,0.82296 3.175,1.4488 3.70159,1.76881 4.99013,2.24786 7.47924,2.78056 1.27069,0.27195 3.62003,0.79463 5.22076,1.1615 4.17272,0.95637 7.73508,1.58377 8.13064,1.43198 0.18759,-0.072 0.49107,-0.69174 0.67441,-1.37724 0.35207,-1.31632 1.74494,-3.85031 3.38376,-6.1559 l 0.98354,-1.38371 0.0834,-4.43713 c 0.0459,-2.44042 -7.9e-4,-4.82577 -0.10388,-5.30078 l -0.18731,-0.86366 -0.97815,0.66522 c -1.13697,0.77323 -1.27081,0.80213 -1.27081,0.27444 0,-0.21492 0.32307,-0.60188 0.71793,-0.85989 0.39486,-0.25802 1.00756,-0.73701 1.36155,-1.06444 0.7341,-0.67899 1.62469,-0.78777 1.62469,-0.19843 0,0.21828 -0.10764,0.39687 -0.2392,0.39687 -0.13384,0 -0.22723,1.89374 -0.21203,4.29948 0.0149,2.36471 -0.0569,4.72198 -0.15967,5.23838 -0.25203,1.26651 0.19601,1.80908 1.53694,1.86123 2.44243,0.095 30.43407,-0.34144 30.65496,-0.47795 0.32334,-0.19984 8.49756,-0.15296 12.50911,0.0717 2.20462,0.12348 3.50751,0.0824 4.15424,-0.13106 0.68231,-0.22518 1.0893,-0.23226 1.47534,-0.0257 0.67955,0.36369 1.77689,0.38927 5.71052,0.13315 4.08365,-0.26589 4.66405,-0.26688 5.23121,-0.009 0.44126,0.20066 0.46451,-0.0948 0.39688,-5.04286 l -0.0718,-5.25601 -0.92604,0.0434 c -1.47214,0.0689 -4.08399,0.66129 -4.28202,0.97113 -0.28967,0.4532 0.0455,0.74326 0.80253,0.69444 1.0618,-0.0685 1.18782,-0.019 0.88412,0.34692 -0.20206,0.24347 -0.0972,0.6946 0.38067,1.63725 0.72959,1.43926 0.67325,2.32726 -0.19925,3.14069 -0.34692,0.32342 -0.46198,0.66327 -0.3471,1.02521 0.2384,0.75114 -0.26698,0.99568 -2.0676,1.00048 -1.46387,0.004 -1.52135,-0.022 -1.52135,-0.68536 0,-0.37917 -0.29766,-1.04315 -0.66146,-1.47551 -0.86846,-1.0321 -0.83474,-1.69423 0.13229,-2.59758 0.55166,-0.51532 0.79375,-0.99153 0.79375,-1.56136 0,-0.6435 0.11385,-0.81989 0.52917,-0.81989 0.65039,0 0.71364,-0.78353 0.0661,-0.81939 -0.25466,-0.0141 -1.50481,-0.004 -2.77812,0.022 -1.95554,0.0402 -2.31511,-0.0174 -2.31511,-0.37124 0,-0.35641 0.46352,-0.42389 3.10886,-0.45262 1.70987,-0.0186 3.34698,-0.0754 3.63802,-0.12632 1.80842,-0.31628 4.29642,-0.85527 4.65722,-1.00891 0.28945,-0.12326 0.57086,0.0438 0.88734,0.52682 0.2549,0.38903 0.33194,0.62605 0.17121,0.52671 -0.21045,-0.13007 -0.27367,1.3419 -0.22588,5.25928 0.0396,3.24566 -0.0334,5.43982 -0.18104,5.43971 -0.13606,-1.1e-4 1.29878,1.51785 3.18855,3.37324 1.88976,1.85539 3.66838,3.6711 3.95248,4.0349 0.2841,0.3638 0.97089,1.05204 1.52619,1.52941 l 1.00965,0.86795 0.80549,-0.67778 c 0.5048,-0.42476 0.98664,-0.62029 1.29072,-0.52378 0.39391,0.12502 0.54169,-0.0602 0.78525,-0.98392 0.16502,-0.62586 0.56666,-1.61417 0.89255,-2.19626 0.70074,-1.25164 0.62404,-1.98437 -0.20773,-1.98437 -0.76574,0 -1.62045,-0.62735 -1.38148,-1.01401 0.10216,-0.16529 0.56683,-0.39859 1.0326,-0.51844 0.65926,-0.16965 0.86572,-0.37876 0.93192,-0.94397 0.11192,-0.95549 1.09085,-1.33602 2.68684,-1.04444 0.93282,0.17042 1.26836,0.37763 1.54451,0.95376 0.22667,0.47293 0.62955,0.79139 1.12704,0.89089 0.94594,0.18919 1.02423,0.61788 0.11282,0.61788 -1.11091,0 -0.73697,0.6562 0.59531,1.04469 1.8927,0.55189 3.18262,1.30086 3.59376,2.08661 0.20293,0.38784 0.56306,1.06234 0.80028,1.4989 0.23726,0.43657 0.4321,1.01894 0.43297,1.29417 0.003,0.4741 0.18235,0.49118 3.43948,0.32484 1.89081,-0.0966 3.76605,-0.30691 4.16718,-0.46743 0.40114,-0.16052 1.77398,-0.38415 3.05073,-0.49695 2.94574,-0.26026 3.47075,-0.59193 3.83241,-2.42103 0.30438,-1.53938 0.16849,-1.79413 -0.96102,-1.80142 -0.59817,-0.004 -0.62241,-0.0724 -0.50898,-1.44041 0.10448,-1.25983 0.0553,-1.45307 -0.40066,-1.57229 -0.59317,-0.15512 -1.80639,0.61347 -1.65465,1.04827 0.20627,0.59111 -0.29025,0.84505 -1.83473,0.9384 -1.48952,0.09 -1.59284,0.0583 -1.67401,-0.51432 -0.0476,-0.33565 -0.36188,-0.73573 -0.69843,-0.88908 -1.40234,-0.63895 -1.41832,-2.6443 -0.0265,-3.30807 0.46135,-0.22 0.95168,-0.65708 1.08966,-0.9713 0.20841,-0.47472 0.47244,-0.57129 1.56181,-0.57129 1.18065,0 1.3264,0.0658 1.46605,0.66146 0.21098,0.89998 1.1801,1.02878 1.61391,0.21449 0.17912,-0.33625 0.49363,-0.73525 0.69887,-0.88667 0.31694,-0.23383 0.30048,-0.40294 -0.10938,-1.1228 -0.42148,-0.74029 -0.62204,-0.84772 -1.58536,-0.84919 -1.44267,-0.002 -1.93987,0.20808 -1.93987,0.82039 0,0.63369 -0.42701,0.65554 -0.59052,0.0302 -0.10499,-0.40143 -0.46948,-0.47837 -2.47825,-0.52315 -2.67832,-0.0597 -3.88313,-0.26197 -3.6648,-0.61523 0.0826,-0.13368 1.54218,-0.24541 3.24345,-0.2483 5.08093,-0.009 8.56972,-0.74277 8.86323,-1.86513 0.0905,-0.34613 -0.003,-0.51087 -0.28586,-0.51087 -0.23072,0 -0.78513,-0.13213 -1.23201,-0.29361 -0.71887,-0.25976 -1.03751,-0.18408 -2.76415,0.65643 -1.07342,0.52252 -2.06283,0.88133 -2.19869,0.79736 -0.30184,-0.18656 -0.0404,-2.65816 0.47072,-4.44935 0.69332,-2.42961 0.46554,-3.06083 -1.10448,-3.06083 -0.39232,0 -0.63981,-0.15351 -0.63981,-0.39688 0,-0.21828 0.16743,-0.39687 0.37206,-0.39687 0.28583,0 0.36248,-0.39918 0.33073,-1.72201 -0.0337,-1.40602 -0.12907,-1.75004 -0.51951,-1.87473 -0.55431,-0.17703 -0.97703,-1.13738 -0.97703,-2.21968 0,-1.46571 0.17005,-1.59192 2.14498,-1.59192 h 1.82377 v 1.40464 c 0,1.43555 -0.2775,2.03214 -1.16097,2.49601 -0.45738,0.24015 -0.39137,0.37688 0.7823,1.6204 0.70501,0.74696 1.41504,1.35812 1.57787,1.35812 0.16282,0 0.5847,0.31073 0.93749,0.69052 0.73795,0.79442 3.04888,2.33117 3.92256,2.60847 0.40158,0.12745 0.75811,0.0391 1.10347,-0.27344 0.70472,-0.63777 0.63807,-1.29485 -0.16862,-1.6624 -0.86855,-0.39574 -0.81775,-1.62581 0.0835,-2.0212 0.61103,-0.26807 0.80225,-1.03491 0.33073,-1.32633 -0.3929,-0.24283 -0.32035,-1.37719 0.0984,-1.53787 0.19963,-0.0766 0.62088,-0.67208 0.93613,-1.3233 0.56382,-1.16472 1.08357,-1.52563 2.70232,-1.87645 0.44273,-0.096 0.81174,-0.43444 1.01894,-0.93465 0.34649,-0.83647 1.43086,-1.70233 1.92547,-1.53746 0.42202,0.14067 0.25221,2.9402 -0.26807,4.42018 -0.23244,0.66113 -0.40989,1.91643 -0.39439,2.78955 0.0204,1.14582 -0.11853,1.83919 -0.49921,2.49212 -0.58516,1.00371 -0.47943,2.13809 0.19933,2.13809 0.22942,0 0.74044,0.23021 1.13557,0.51158 0.39515,0.28136 1.06836,0.59807 1.49606,0.70378 0.42767,0.10572 1.22026,0.4699 1.76128,0.80929 0.89881,0.56384 1.01295,0.57983 1.32291,0.18534 1.01214,-1.28807 2.17297,-2.19907 3.28502,-2.57797 1.66954,-0.56888 2.56058,-0.53648 3.14973,0.11453 0.44294,0.48944 0.46199,0.72748 0.20256,2.52839 -0.15753,1.09344 -0.36279,2.06444 -0.45611,2.15777 -0.0933,0.0933 -0.51181,-0.0324 -0.92999,-0.27943 -0.93733,-0.5537 -1.70119,-0.57355 -2.13124,-0.0554 -0.26734,0.32214 -0.23715,0.42164 0.16605,0.54711 0.27104,0.0843 1.01367,0.38907 1.65029,0.67717 1.15747,0.52382 1.15747,0.52382 0.97073,1.76801 -0.10271,0.6843 -0.20685,1.60136 -0.23143,2.03793 -0.0625,1.10921 -0.74827,1.31379 -2.22073,0.66245 -3.12386,-1.38183 -4.04167,-0.26532 -4.04167,4.91671 0,3.69135 -0.66807,6.13698 -1.93532,7.08474 -0.41569,0.31089 -1.3707,1.10951 -2.12222,1.7747 -2.16382,1.91523 -4.9905,2.98566 -10.22996,3.87393 -0.50932,0.0863 -1.20999,0.3769 -1.55705,0.64567 -0.34702,0.26877 -0.91257,0.48867 -1.25677,0.48867 -0.45693,0 -0.62576,0.14814 -0.62576,0.54903 0,0.53166 0.0774,0.54219 2.44739,0.33284 1.34607,-0.1189 4.3524,-0.18438 6.68073,-0.14552 2.32833,0.0389 5.66208,0.0937 7.40833,0.12176 1.74625,0.0281 5.03534,-0.15207 7.30909,-0.4004 2.86097,-0.31246 4.69429,-0.38583 5.95313,-0.23825 1.00047,0.1173 6.40294,0.15475 12.00549,0.0832 17.1481,-0.21889 18.3913,-0.19898 21.26856,0.34056 2.19136,0.41092 3.13516,0.45362 5.82084,0.26336 1.76297,-0.12489 4.09836,-0.22209 5.18977,-0.21598 1.09141,0.006 4.72324,-0.0872 8.07075,-0.20744 4.02267,-0.14444 7.02802,-0.12185 8.86354,0.0666 3.64323,0.37411 5.19525,0.32165 8.78877,-0.29707 3.22506,-0.55529 6.13415,-0.66466 7.17304,-0.26968 0.35824,0.13621 1.77683,0.43937 3.1524,0.67369 2.06587,0.35191 3.90065,0.40238 10.54452,0.29006 4.42389,-0.0748 8.82491,-0.20853 9.78006,-0.29721 1.28405,-0.11921 1.80885,-0.0697 2.01377,0.1899 0.18489,0.23422 0.21376,1.66647 0.0867,4.30195 -0.10474,2.17295 -0.13639,4.15754 -0.0703,4.4102 0.0661,0.25265 -0.003,0.67743 -0.15105,0.94396 -0.24935,0.44561 -0.81008,0.49248 -6.97053,0.58264 -10.61844,0.15542 -24.51251,-0.033 -31.70264,-0.43 -2.1018,-0.11605 -4.82433,-0.0837 -6.61458,0.0785 -1.70022,0.15406 -4.79351,0.19942 -7.0113,0.10281 -2.18282,-0.0951 -6.05235,-0.13828 -8.59896,-0.096 -9.69878,0.16107 -19.1257,0.40025 -24.61678,0.62456 -3.1977,0.13064 -6.21705,0.13288 -6.87917,0.005 -0.64905,-0.12523 -2.2053,-0.23289 -3.45832,-0.23922 -1.25301,-0.006 -3.93192,-0.20369 -5.95312,-0.43856 -2.89629,-0.33656 -4.74001,-0.38429 -8.70199,-0.22528 -2.76489,0.11096 -7.76552,0.23584 -11.1125,0.2775 -3.34698,0.0417 -6.91885,0.0896 -7.9375,0.10651 -1.01864,0.0169 -3.42151,-0.0199 -5.33969,-0.0817 -1.91817,-0.0619 -4.59708,-0.0279 -5.95312,0.0754 -1.95075,0.14866 -2.5576,0.10968 -2.90653,-0.18671 -0.34213,-0.29061 -0.56581,-0.30781 -0.99766,-0.0767 -0.30615,0.16385 -0.66988,0.22793 -0.80828,0.14239 -0.1384,-0.0855 -0.54462,0.0364 -0.90268,0.27105 -0.61346,0.40195 -1.86574,0.40834 -2.50576,0.0128 -0.1451,-0.0897 -0.77748,-0.0471 -1.40526,0.0947 -0.72263,0.16316 -1.17379,0.16505 -1.22962,0.005 -0.0489,-0.14014 -1.40944,-0.25259 -3.05594,-0.25259 -1.67856,0 -3.08584,-0.11808 -3.23959,-0.27184 -0.14952,-0.14951 -1.57683,-0.2865 -3.17182,-0.30441 -2.64898,-0.0298 -3.00454,0.0258 -4.1082,0.64198 -0.68622,0.38312 -1.34883,0.58765 -1.53367,0.47341 -0.22161,-0.13696 -0.12982,-0.2523 0.28766,-0.36147 0.47875,-0.1252 0.54315,-0.2303 0.29385,-0.4796 -0.44209,-0.44209 -4.92871,-0.4305 -5.46444,0.0141 -0.22093,0.18336 -0.50902,0.26705 -0.6402,0.18597 -0.13118,-0.0811 -0.61946,-0.0381 -1.08508,0.0954 -0.46562,0.13354 -1.02349,0.17491 -1.23972,0.0919 -0.34246,-0.13141 -0.33847,-0.21126 0.031,-0.6195 0.39248,-0.43368 0.3727,-0.52004 -0.26518,-1.15793 -0.37912,-0.37908 -0.80295,-0.68926 -0.94186,-0.68926 -0.40786,0 -0.28943,1.24824 0.16119,1.69886 0.48661,0.48661 0.2884,0.94697 -0.40772,0.94697 -0.64086,0 -1.32894,0.26853 -1.32894,0.51864 0,0.10859 0.59531,0.14023 1.32291,0.0703 1.09759,-0.10547 1.32292,-0.0538 1.32292,0.30342 0,0.33347 -0.28334,0.43658 -1.25677,0.45735 -2.00467,0.0428 -3.0869,-0.0581 -3.4017,-0.31703 -0.37229,-0.3062 -1.95729,-0.0149 -2.50848,0.46097 -0.35978,0.31064 -0.4832,0.29294 -0.8599,-0.1233 z m -17.70363,-1.76164 c 0.76412,-0.10319 1.33336,-0.27815 1.26498,-0.38879 -0.15908,-0.25741 -3.28856,-0.59089 -3.62041,-0.3858 -0.15106,0.0934 -0.13125,0.29797 0.05,0.51637 0.16511,0.19895 0.21606,0.49788 0.11321,0.6643 -0.13508,0.21855 -0.0496,0.23023 0.30795,0.0421 0.27222,-0.14329 1.12014,-0.34495 1.88426,-0.44813 z m 13.40572,0.49525 c 0.23018,-0.0883 0.41851,-0.32645 0.41851,-0.52916 0,-0.20271 0.23813,-0.36857 0.52917,-0.36857 0.29882,0 0.52916,-0.17639 0.52916,-0.40522 0,-0.31614 -0.27627,-0.39094 -1.25677,-0.3403 -0.69122,0.0357 -1.76278,-0.0306 -2.38125,-0.14721 -0.79643,-0.15023 -1.12448,-0.12294 -1.12448,0.0935 0,0.17853 0.20646,0.24015 0.49637,0.14813 0.35352,-0.1122 0.53675,-0.003 0.63669,0.37905 0.0772,0.29512 0.31732,0.53658 0.53366,0.53658 0.21633,0 0.46187,0.1786 0.54563,0.39688 0.1649,0.42971 0.42182,0.48627 1.07331,0.23627 z m -27.23045,-0.61259 c -0.50045,-0.19562 -0.49374,-0.2181 0.12365,-0.41436 0.35904,-0.11414 1.09668,-0.20752 1.63918,-0.20752 0.58886,0 1.04217,-0.1454 1.12482,-0.3608 0.0761,-0.19843 0.32078,-0.36079 0.54363,-0.36079 0.22285,0 0.40518,-0.11906 0.40518,-0.26459 0,-0.42855 -2.27477,-0.31481 -2.64583,0.1323 -0.18915,0.22791 -0.76615,0.39687 -1.35531,0.39687 -0.56427,0 -1.02594,0.11906 -1.02594,0.26458 0,0.14553 0.14883,0.27399 0.33073,0.28548 0.26458,0.0167 0.26458,0.0476 0,0.15434 -0.63931,0.25796 -0.32146,0.61832 0.52916,0.59992 0.69711,-0.0151 0.75972,-0.0577 0.33073,-0.22543 z m -7.54062,-0.2867 c 0,-0.33338 -1.60668,-0.79746 -2.22426,-0.64246 -1.23663,0.31038 -0.77506,0.77631 0.76905,0.77631 0.80036,0 1.45521,-0.0602 1.45521,-0.13385 z m 71.08161,-0.3839 c -0.0862,-0.22456 -0.28366,-0.40829 -0.43887,-0.40829 -0.19568,0 -0.19163,0.16919 0.0132,0.55183 0.32843,0.61367 0.67189,0.49788 0.42574,-0.14354 z m 8.34218,-0.36348 c 0.66035,0.0665 0.89074,-0.0238 0.95877,-0.37554 0.0587,-0.30345 -0.0767,-0.46442 -0.39285,-0.46707 -0.40042,-0.003 -0.41625,-0.0459 -0.0931,-0.25024 0.2141,-0.1354 0.89871,-0.19464 1.52136,-0.13163 0.99168,0.10034 1.13207,0.0493 1.13207,-0.41122 0,-0.46025 -0.17949,-0.52578 -1.44021,-0.52578 -1.18401,0 -1.51275,0.10357 -1.84801,0.58222 -0.27821,0.3972 -0.31691,0.63839 -0.12178,0.75898 0.15957,0.0986 -0.0761,0.303 -0.53325,0.46235 -0.45058,0.15708 -0.81925,0.42543 -0.81925,0.59634 0,0.23445 0.0942,0.23259 0.38354,-0.008 0.21095,-0.17508 0.7747,-0.27895 1.25275,-0.23083 z m -60.10921,-0.1771 c 0.27411,-0.33028 0.24058,-0.39688 -0.19979,-0.39688 -0.29104,0 -0.67738,0.1786 -0.85854,0.39688 -0.27411,0.33028 -0.24058,0.39687 0.19979,0.39687 0.29104,0 0.67738,-0.17859 0.85854,-0.39687 z m 42.47987,0.10924 c 0.44195,-0.71508 -1.81586,-1.25568 -2.64076,-0.6323 -0.28042,0.21191 -0.43212,0.46303 -0.33713,0.55803 0.095,0.095 0.3542,0.0221 0.576,-0.16195 0.24683,-0.20485 0.40327,-0.22662 0.40327,-0.0561 0,0.24609 0.50901,0.42996 1.50574,0.54393 0.17331,0.0198 0.39511,-0.0934 0.49288,-0.2516 z m 26.44409,0.0231 c 0.0899,-0.14552 0.75181,-0.26458 1.47082,-0.26458 0.99626,0 1.30731,-0.0962 1.30731,-0.40425 0,-0.33603 -0.30134,-0.38141 -1.78594,-0.26896 -1.20706,0.0914 -1.57155,0.0595 -1.12448,-0.0985 0.66146,-0.23383 0.66146,-0.23383 -0.0661,-0.2602 -0.46376,-0.0168 -0.7276,0.10954 -0.7276,0.34845 0,0.20615 -0.14015,0.42154 -0.31144,0.47864 -0.45913,0.15305 -0.003,0.73403 0.57602,0.73403 0.27387,0 0.57153,-0.11906 0.66146,-0.26458 z m -90.88438,-0.54478 c 0,-0.13693 -0.11906,-0.24897 -0.26458,-0.24897 -0.14552,0 -0.26458,0.18562 -0.26458,0.41249 0,0.22687 0.11906,0.33891 0.26458,0.24897 0.14552,-0.0899 0.26458,-0.27556 0.26458,-0.41249 z m 71.43751,0.2802 c 0,-0.14552 -0.23813,-0.26459 -0.52917,-0.26459 -0.29104,0 -0.52917,0.11907 -0.52917,0.26459 0,0.14552 0.23813,0.26458 0.52917,0.26458 0.29104,0 0.52917,-0.11906 0.52917,-0.26458 z m -36.60399,-0.39688 c 0.52242,-0.21828 1.14368,-0.39754 1.38057,-0.39835 0.23689,-7.9e-4 0.89146,-0.12941 1.45461,-0.28578 0.71146,-0.19754 0.93961,-0.3686 0.74766,-0.56056 -0.19196,-0.19196 -0.53665,-0.18549 -1.12954,0.0212 -1.14059,0.39761 -1.43244,0.37477 -1.05301,-0.0824 0.17339,-0.20892 0.67273,-0.45838 1.10965,-0.55434 1.06993,-0.235 0.74728,-0.4955 -0.35709,-0.28831 -0.63604,0.11932 -0.96933,0.37988 -1.22514,0.9578 -0.2898,0.6547 -0.50715,0.79389 -1.23966,0.79389 -0.87127,0 -1.33534,0.2897 -1.00048,0.62455 0.22644,0.22644 0.22495,0.2267 1.31243,-0.22768 z m 3.92794,-0.19937 c 0.17804,-0.17998 -0.0275,-0.21276 -0.62838,-0.1002 -0.49114,0.092 -1.05668,0.16728 -1.25677,0.16728 -0.20009,0 -0.36381,0.12446 -0.36381,0.27657 0,0.33541 1.8581,0.0515 2.24896,-0.34365 z m 56.08847,-0.2027 c -0.14833,-0.23999 -0.24667,-0.23268 -0.40928,0.0305 -0.27895,0.45137 -0.005,0.89482 0.33991,0.55001 0.14552,-0.14552 0.17674,-0.40673 0.0694,-0.58047 z m -33.08529,0.12908 c 0.28247,-0.21366 1.02661,-0.38847 1.65364,-0.38847 0.62703,0 1.14006,-0.11046 1.14006,-0.24546 0,-0.31157 -2.92614,-0.0394 -3.37344,0.31371 -0.36369,0.28715 -0.44545,0.73037 -0.13229,0.71709 0.10914,-0.005 0.42955,-0.18322 0.71203,-0.39687 z m -58.48547,-0.27828 c 0.0989,-0.25768 0.0397,-0.37864 -0.1536,-0.3142 -0.39551,0.13184 -0.61327,0.73318 -0.26551,0.73318 0.14208,0 0.33068,-0.18854 0.41911,-0.41898 z m 21.0625,-0.13807 c 0,-0.3952 -0.19333,-0.50128 -0.91359,-0.50128 -0.90105,0 -2.26141,0.46448 -2.26141,0.77214 0,0.0869 0.71438,0.17433 1.5875,0.19423 1.39441,0.0318 1.5875,-0.0248 1.5875,-0.46509 z m 48.88236,0.0964 c 0.0778,-0.23635 -0.13883,-0.28571 -0.77306,-0.17616 -0.66869,0.1155 -0.78547,0.084 -0.4843,-0.1306 0.21828,-0.15555 0.90289,-0.28463 1.52136,-0.28686 0.61846,-0.002 1.12448,-0.12373 1.12448,-0.27 0,-0.28265 -3.75031,-0.16486 -4.23215,0.13292 -0.17846,0.1103 -0.17354,0.34014 0.0148,0.69207 0.23029,0.43028 0.50564,0.51226 1.5014,0.44696 0.67284,-0.0441 1.26783,-0.22714 1.32747,-0.40833 z m -70.6996,-0.35069 c 0.26404,-0.42723 0.0528,-0.51746 -1.41752,-0.60542 -0.91097,-0.0545 -1.3914,0.0287 -1.47864,0.25602 -0.12123,0.31595 0.0867,0.36963 2.27435,0.58711 0.24607,0.0245 0.52588,-0.0825 0.62181,-0.23771 z m 46.47492,-0.17464 c 0.99922,-0.0949 1.55824,-0.27766 1.65987,-0.5425 0.0843,-0.21963 0.11121,-0.44136 0.0599,-0.49272 -0.19182,-0.19182 -4.3811,-0.21953 -4.57041,-0.0302 -0.10841,0.10842 -0.0559,0.50696 0.1166,0.88564 0.22838,0.50124 0.43799,0.63881 0.77058,0.50576 0.25128,-0.10053 1.13486,-0.2472 1.96351,-0.32595 z m -25.71601,-0.47534 c 0.912,-0.15309 1.06782,-0.24355 0.66584,-0.38658 -0.28864,-0.1027 -0.98177,-0.16094 -1.5403,-0.12942 -0.68635,0.0387 -0.92855,-0.0297 -0.74722,-0.21099 0.14756,-0.14756 0.98952,-0.25806 1.87102,-0.24556 1.11349,0.0158 1.60274,-0.0777 1.60274,-0.30628 0,-0.22808 -0.42086,-0.30966 -1.3721,-0.26596 -2.32356,0.10674 -2.59665,0.24353 -2.59665,1.30068 0,0.80225 0.0637,0.89684 0.46302,0.68714 0.25466,-0.13374 0.9988,-0.3331 1.65365,-0.44303 z m 58.0544,0.50698 c 0.67278,-0.25817 0.48104,-0.70679 -0.24294,-0.56839 -0.68342,0.13064 -0.91498,-0.17226 -0.33073,-0.43264 0.1819,-0.0811 0.0331,-0.12076 -0.33073,-0.0882 -0.9556,0.0855 -1.11615,1.24983 -0.17232,1.24983 0.362,0 0.84653,-0.0723 1.07672,-0.1606 z m 10.59577,-0.10398 c 0.18939,0 0.40843,-0.24497 0.48672,-0.54438 0.12391,-0.47382 0.0362,-0.53384 -0.67632,-0.46302 -0.63789,0.0634 -0.82823,0.21541 -0.86191,0.68834 -0.0302,0.42504 0.0693,0.56383 0.33197,0.46302 0.20632,-0.0792 0.53012,-0.14396 0.71954,-0.14396 z m -79.65141,-0.43749 c 0.15302,-0.39875 0.19881,-0.3952 0.51709,0.0401 0.47188,0.64534 0.77455,0.11307 0.43842,-0.77101 -0.20043,-0.52719 -0.44309,-0.68367 -1.06022,-0.68367 -0.73824,0 -0.8003,0.0718 -0.8003,0.92605 0,0.98443 0.59208,1.30405 0.90501,0.48855 z m -1.51163,-1.21307 c -0.0633,-0.32912 -0.11747,-0.12215 -0.12041,0.45993 -0.003,0.58209 0.0488,0.85137 0.11507,0.5984 0.0662,-0.25297 0.0686,-0.72922 0.005,-1.05833 z m 52.99412,1.12139 c 0,-0.14552 -0.40969,-0.26458 -0.91043,-0.26458 -0.50073,0 -0.98401,0.11906 -1.07395,0.26458 -0.0987,0.15979 0.26184,0.26458 0.91043,0.26458 0.59067,0 1.07395,-0.11906 1.07395,-0.26458 z m 0.19844,-0.67402 c 0.1819,-0.0567 0.33073,-0.23917 0.33073,-0.40546 0,-0.20258 -0.30745,-0.24465 -0.93186,-0.12751 -0.65879,0.12359 -1.04682,0.0599 -1.32413,-0.21745 -0.34663,-0.34663 -0.30748,-0.4051 0.33655,-0.5026 0.67982,-0.10292 0.67101,-0.113 -0.13109,-0.14998 -0.53105,-0.0245 -0.86127,0.0868 -0.8635,0.29108 -0.002,0.1819 -0.0719,0.58517 -0.15533,0.89614 -0.14268,0.53172 -0.0755,0.55807 1.12809,0.44216 0.70389,-0.0678 1.42864,-0.16966 1.61054,-0.22638 z m 10.12031,0.14485 c 0.63169,-0.2023 0.62346,-0.21302 -0.18283,-0.23821 -0.46434,-0.0145 -0.91786,0.0927 -1.0078,0.23821 -0.18804,0.30427 0.24056,0.30427 1.19063,0 z m 9.38141,-0.2463 c 0.26935,-0.43583 -0.24051,-0.51177 -0.91805,-0.13673 l -0.65815,0.36428 0.71199,0.009 c 0.39158,0.005 0.7805,-0.10146 0.86421,-0.23692 z m -44.86679,-0.66045 c 0.16269,-0.10055 0.29579,-0.36453 0.29579,-0.58664 0,-0.34341 -0.30682,-0.37585 -2.05052,-0.2168 -1.12778,0.10288 -2.09725,0.22922 -2.15437,0.28077 -0.24921,0.22491 0.60179,0.87645 1.24769,0.95525 0.76486,0.0933 2.18362,-0.13729 2.66141,-0.43258 z m 31.51663,-0.0349 c 0,-0.2097 -0.11906,-0.38126 -0.26458,-0.38126 -0.14553,0 -0.26459,0.24515 -0.26459,0.54478 0,0.29963 0.11906,0.4712 0.26459,0.38126 0.14552,-0.0899 0.26458,-0.33509 0.26458,-0.54478 z m 22.75417,0.12011 c 0,-0.13023 -0.47625,-0.23679 -1.05834,-0.23679 -0.68196,0 -1.05833,0.1201 -1.05833,0.33772 0,0.23444 0.32366,0.30686 1.05833,0.23679 0.58209,-0.0555 1.05834,-0.20748 1.05834,-0.33772 z m -18.58698,0.0511 c 0.1819,-0.0128 0.33073,-0.195 0.33073,-0.40482 0,-0.31128 -0.35296,-0.35323 -1.91823,-0.22798 -2.12167,0.16977 -2.17906,0.18745 -1.92771,0.59414 0.10597,0.17147 0.77338,0.24028 1.68014,0.17323 0.8274,-0.0612 1.65317,-0.12174 1.83507,-0.13457 z m 8.06484,-0.11057 c 1.45759,-0.50767 1.49609,-0.70652 0.13684,-0.70652 -1.46296,0 -2.05012,0.19756 -2.05012,0.68977 0,0.45803 0.63047,0.46355 1.91328,0.0168 z m -31.43824,-0.17481 c -0.14413,-0.14412 -0.82278,-0.3389 -1.50813,-0.43284 -1.04685,-0.14348 -1.24608,-0.10159 -1.24608,0.26205 0,0.3501 0.28827,0.43283 1.50813,0.43283 0.99567,0 1.41908,-0.089 1.24608,-0.26204 z m -89.14067,-4.54248 c 9.01741,0.0494 11.77396,-0.0647 11.77396,-0.48717 0,-0.27898 -2.40156,-1.18356 -3.83136,-1.44314 -1.42547,-0.25879 -5.41205,-1.80468 -7.67802,-2.97733 -1.01864,-0.52715 -2.3333,-1.20671 -2.92147,-1.51013 -0.58816,-0.30341 -1.43998,-0.81955 -1.89293,-1.14698 -0.45294,-0.32742 -0.94148,-0.59531 -1.08565,-0.59531 -0.14416,0 -0.5425,-0.2956 -0.8852,-0.65688 -0.34269,-0.36129 -0.73457,-0.65895 -0.87085,-0.66146 -0.13627,-0.003 -0.98698,-0.80825 -1.89048,-1.79051 l -1.64271,-1.78594 -3.40119,3.46616 c -1.87065,1.90639 -3.55506,3.6328 -3.74314,3.83646 -0.18807,0.20366 -0.66432,0.71903 -1.05833,1.14526 -0.39401,0.42623 -1.40217,1.42716 -2.24036,2.22428 -0.8382,0.79713 -1.48646,1.48684 -1.4406,1.5327 0.10099,0.10099 6.71925,0.85281 8.38854,0.95291 0.65484,0.0393 2.14312,0.0211 3.30729,-0.0404 1.16417,-0.0615 6.16479,-0.0896 11.1125,-0.0625 z M 243.5606,174.3072 c -0.21955,-1.3289 -0.24598,-1.36862 -0.77539,-1.16547 -0.25603,0.0983 -0.40827,0.48861 -0.40827,1.04693 0,1.0231 0.15234,1.24302 0.86111,1.24302 0.45077,0 0.48728,-0.12729 0.32255,-1.12448 z m 32.78058,-5.02708 c 0.48662,-0.76398 1.04524,-1.86531 1.24137,-2.4474 0.19611,-0.58208 0.45133,-1.17144 0.56714,-1.30968 0.32956,-0.39338 0.24672,-0.9954 -0.12015,-0.87335 -0.1819,0.0605 -0.39055,0.45739 -0.46371,0.88195 -0.0792,0.45979 -0.36983,0.87599 -0.71879,1.0293 -0.39405,0.17313 -0.80523,0.84934 -1.25608,2.06566 -0.76547,2.06508 -0.76103,2.04258 -0.40241,2.04258 0.14735,0 0.66601,-0.62508 1.15263,-1.38906 z m -13.00956,-1.954 c 0.74721,-0.20545 0.86945,-1.14419 0.23196,-1.78126 -0.65469,-0.65429 -2.41716,-0.73786 -4.05487,-0.19226 -1.44682,0.482 -1.1692,1.81235 0.46302,2.21869 0.52993,0.13193 2.51526,-0.0129 3.35989,-0.24517 z m -106.48125,-1.10487 c 0.74587,-0.93752 0.17881,-2.26007 -1.10745,-2.58289 -0.87932,-0.2207 -2.74126,0.35033 -3.05524,0.937 -0.40992,0.76595 -0.32684,1.16777 0.32623,1.57775 1.33486,0.83799 3.19767,0.87107 3.83646,0.0681 z m -26.04283,-0.82609 c -0.24547,-0.3007 -0.66186,0.52864 -0.48036,0.95676 0.18029,0.42525 0.22522,0.40438 0.3889,-0.18065 0.10179,-0.36381 0.14294,-0.71306 0.0915,-0.77611 z m 92.25481,-2.73965 c 0.95918,-0.48283 1.01213,-1.56572 0.11122,-2.27438 -1.05422,-0.82926 -2.53697,-0.74905 -3.5928,0.19434 l -0.8441,0.7542 0.59336,0.8333 c 0.52189,0.73293 0.74255,0.83282 1.83211,0.8294 0.68131,-0.002 1.53641,-0.15374 1.90021,-0.33686 z m -1.94028,31.3852 c -0.40505,-0.40505 -0.0866,-0.55348 1.54636,-0.72079 0.94751,-0.0971 2.0348,-0.29514 2.4162,-0.44015 0.73121,-0.27801 1.78238,-0.0977 1.55694,0.26712 -0.13351,0.21601 -2.9142,0.67734 -3.49312,0.57952 -0.17093,-0.0289 -0.38632,0.0697 -0.47864,0.21909 -0.18709,0.30272 -1.2734,0.36954 -1.54774,0.0952 z m 26.36288,-25.68663 c -0.0919,-0.25466 -0.38578,-0.77906 -0.65315,-1.16533 -0.70532,-1.01898 -0.61539,-2.00618 0.25774,-2.82956 0.40909,-0.38581 0.82208,-0.90983 0.91773,-1.16449 0.0957,-0.25466 0.3634,-0.46302 0.59505,-0.46302 0.32443,0 0.4023,-0.22622 0.33903,-0.98521 -0.0748,-0.89772 -0.1747,-1.01105 -1.12463,-1.2762 -0.57336,-0.16005 -0.93054,-0.35629 -0.79375,-0.43609 0.43743,-0.25514 3.79558,-0.20292 3.95904,0.0616 0.0866,0.14008 0.92429,0.25469 1.86158,0.25469 1.3984,0 1.70418,0.0773 1.70418,0.431 0,0.38007 -0.28067,0.40905 -2.37514,0.2452 -1.30635,-0.10219 -2.47711,-0.12279 -2.60173,-0.0458 -0.12462,0.077 -0.17436,0.49577 -0.11054,0.93054 0.0912,0.62134 0.26577,0.80786 0.81576,0.87155 0.54195,0.0628 0.6862,0.2117 0.63958,0.6604 -0.0383,0.36836 0.11999,0.63657 0.43455,0.73641 0.27213,0.0864 0.64331,0.51562 0.82484,0.9539 0.39823,0.96139 0.0453,1.9592 -0.78618,2.22312 -0.3538,0.11229 -0.54531,0.3991 -0.54531,0.8167 0,0.61064 -0.0818,0.64363 -1.59581,0.64363 -1.27979,0 -1.62888,-0.0917 -1.76284,-0.46302 z m 3.96965,-1.89424 c 0.13743,-0.13741 0.17312,-0.55548 0.0794,-0.92905 -0.37169,-1.48088 -3.09973,-1.71269 -4.4355,-0.3769 -0.53578,0.53577 -0.53578,0.53577 0.0501,1.15944 0.83992,0.89404 3.469,0.98349 4.30598,0.14651 z m -16.87264,1.08867 c -0.0784,-0.0784 -0.14252,-0.4534 -0.14252,-0.83338 0,-0.37996 -0.25233,-0.90689 -0.56073,-1.17095 -0.46057,-0.39435 -0.53444,-0.67613 -0.41354,-1.57746 0.0892,-0.66541 0.36769,-1.27589 0.70739,-1.55097 0.30812,-0.2495 0.52398,-0.66743 0.47969,-0.92874 -0.0668,-0.39395 0.1377,-0.48904 1.1968,-0.5566 1.31642,-0.084 2.02997,0.24425 2.02997,0.93376 0,0.21484 0.36506,0.73164 0.81124,1.14844 1.13879,1.06378 1.02266,2.26723 -0.29141,3.01982 -0.6201,0.35515 -0.90339,0.69177 -0.84049,0.99873 0.0522,0.25466 -0.003,0.4776 -0.12296,0.49541 -0.83615,0.12434 -2.73644,0.13895 -2.85344,0.0219 z m 3.57478,-2.0455 c 1.57164,-0.81272 0.73623,-2.38564 -1.48775,-2.80112 -1.04639,-0.19549 -1.34277,-0.14867 -1.99391,0.31498 -1.41814,1.00981 -0.77818,2.35848 1.25282,2.64021 0.70931,0.0984 1.32534,0.19481 1.36895,0.21425 0.0436,0.0195 0.43055,-0.1463 0.85989,-0.36832 z m -28.4211,-0.0466 c -0.10216,-0.10216 -0.60768,-0.15732 -1.12339,-0.12259 -0.88474,0.0596 -0.93319,0.0207 -0.85872,-0.68933 0.0555,-0.52956 -0.13771,-0.98313 -0.65234,-1.53106 -0.61222,-0.65183 -0.70416,-0.92932 -0.56475,-1.70461 0.0916,-0.50933 0.33504,-1.11401 0.54101,-1.34375 0.20597,-0.22974 0.37448,-0.67918 0.37448,-0.99874 0,-0.38864 0.23796,-0.6715 0.71864,-0.85425 1.4416,-0.5481 -0.0429,-0.7639 -5.2827,-0.76796 -4.53621,-0.004 -5.22552,0.0498 -5.22552,0.40442 0,0.24225 0.18842,0.37684 0.46302,0.33073 0.35022,-0.0588 0.46302,0.10468 0.46302,0.67105 0,0.41184 0.18023,0.88809 0.40052,1.05834 0.72241,0.55831 1.35172,1.77486 1.18684,2.29434 -0.0882,0.27802 -0.51951,0.80764 -0.95839,1.17693 -0.57546,0.48422 -0.75195,0.8164 -0.63295,1.19133 0.15406,0.48543 0.0456,0.51624 -1.6353,0.46466 -1.8003,-0.0552 -1.8003,-0.0552 -1.88174,-0.89542 -0.0448,-0.46211 -0.25315,-0.9827 -0.46302,-1.15688 -0.65007,-0.53951 -0.47995,-2.29424 0.29782,-3.07201 0.37367,-0.37367 0.78744,-0.96357 0.91949,-1.31089 0.13205,-0.34732 0.42164,-0.63149 0.64352,-0.63149 0.22188,0 0.40342,-0.11088 0.40342,-0.24639 0,-0.20754 -11.81098,-0.54938 -12.14616,-0.35155 -0.0592,0.0349 0.17894,0.35122 0.52917,0.70285 2.50422,2.51425 2.96073,4.45935 1.25377,5.34204 -0.58532,0.30269 -0.73598,0.52815 -0.61262,0.91681 0.14876,0.46869 0.0301,0.51541 -1.30945,0.51541 -1.31977,0 -1.47304,-0.0578 -1.47304,-0.55531 0,-0.30541 -0.35719,-0.88896 -0.79375,-1.29677 -1.02285,-0.95549 -1.03746,-1.9607 -0.0462,-3.18087 0.41114,-0.5061 0.82413,-1.12854 0.91773,-1.3832 0.0936,-0.25466 0.35253,-0.46302 0.57538,-0.46302 0.22285,0 0.40518,-0.17859 0.40518,-0.39687 0,-0.32141 -0.42436,-0.39688 -2.23173,-0.39688 -1.22746,0 -2.56691,-0.12743 -2.97657,-0.28319 -1.3324,-0.50659 -0.13496,-0.69246 3.22393,-0.50043 1.74625,0.0998 9.15789,0.20516 16.47031,0.23406 11.36795,0.0449 13.29531,0.10774 13.29531,0.43334 0,0.22709 -0.26005,0.38081 -0.64423,0.38081 -0.35433,0 -0.97941,0.13458 -1.38907,0.29908 l -0.74482,0.29908 0.85989,0.23765 c 0.67408,0.18629 0.8599,0.37895 0.8599,0.89154 0,0.39979 0.15159,0.6539 0.39008,0.6539 0.5819,0 1.1522,1.32797 1.00066,2.33012 -0.08,0.52909 -0.38101,1.03788 -0.76152,1.2872 -0.41263,0.27037 -0.62922,0.66529 -0.62922,1.1473 0,0.42616 -0.17586,0.80249 -0.41852,0.89561 -0.52023,0.19963 -0.51232,0.1999 -0.73736,-0.0251 z m 1.45328,-2.62208 c 0.77774,-0.70386 0.62828,-1.61743 -0.36355,-2.22216 -1.04337,-0.63616 -2.11195,-0.67158 -2.98587,-0.099 -1.11413,0.73001 -0.74975,2.27098 0.67077,2.83671 0.64499,0.25687 2.14388,-0.0316 2.67865,-0.51558 z m -12.32431,-0.0197 c 0.53337,-0.53338 0.48151,-1.49293 -0.12087,-2.23637 -0.41713,-0.5148 -0.74325,-0.62121 -1.85487,-0.60523 -1.00651,0.0145 -1.44662,0.14874 -1.73443,0.52916 -0.56513,0.74698 -0.49636,1.86925 0.14195,2.31633 0.71672,0.50202 3.06487,0.49945 3.56822,-0.004 z m -12.38705,-0.18697 c 0.3587,-0.3587 0.16905,-2.02919 -0.28148,-2.47936 -0.55298,-0.55255 -2.83093,-0.60328 -3.46485,-0.0772 -0.63676,0.52846 -0.53075,2.02019 0.17888,2.51723 0.59191,0.41459 3.16383,0.44293 3.56745,0.0393 z m -16.59646,1.9598 c 0,-0.30427 -0.47625,-1.04885 -1.05833,-1.65463 -0.58209,-0.60577 -1.05671,-1.28578 -1.05472,-1.51113 0.008,-0.90019 0.32804,-1.50882 1.04806,-1.99275 0.41555,-0.27929 0.8222,-0.84103 0.90366,-1.24832 0.0861,-0.43034 0.32059,-0.74052 0.55989,-0.74052 0.55796,0 0.8267,-0.79029 0.3676,-1.08099 -0.20311,-0.1286 -0.63718,-0.23565 -0.9646,-0.23788 -0.32742,-0.002 -0.59531,-0.11724 -0.59531,-0.25559 0,-0.15299 1.26982,-0.19621 3.24115,-0.11032 3.57979,0.15596 3.9026,0.20927 3.9026,0.64446 0,0.20725 -0.73193,0.2708 -2.38138,0.20675 -2.12687,-0.0826 -2.38137,-0.043 -2.38125,0.37054 8e-5,0.28659 0.20177,0.46303 0.5293,0.46303 0.38659,0 0.52916,0.17638 0.52916,0.65466 0,0.45368 0.23385,0.77559 0.76169,1.04855 0.87432,0.45213 1.0904,0.88153 1.0904,2.16691 0,0.89173 -0.93153,2.21529 -1.55914,2.21529 -0.14315,0 -0.23786,0.32742 -0.21046,0.72761 0.0478,0.69859 -0.006,0.73079 -1.33926,0.80757 -1.2583,0.0725 -1.38906,0.0279 -1.38906,-0.47324 z m 2.82818,-1.88177 c 1.15203,-0.42398 1.32687,-1.60424 0.39789,-2.6859 -0.51275,-0.59701 -3.52318,-0.66456 -4.00023,-0.0898 -0.53321,0.64248 -0.64858,2.12493 -0.19467,2.50163 0.91779,0.76171 2.21714,0.85548 3.79701,0.27402 z m 63.58224,-3.11547 c 0,-0.5946 -0.14812,-0.83341 -0.59531,-0.95984 -3.11404,-0.88038 -5.16022,-1.59399 -5.49011,-1.91469 -0.34876,-0.33904 -0.25254,-0.36333 0.79375,-0.20034 0.65485,0.10201 1.30374,0.29228 1.44198,0.42282 0.13825,0.13054 0.50536,0.23735 0.8158,0.23735 0.31044,0 0.65358,0.0891 0.76253,0.19809 0.10895,0.10894 0.93246,0.33666 1.83003,0.50604 0.89758,0.16937 2.40586,0.48385 3.35175,0.69883 0.94588,0.21497 2.73182,0.46982 3.96875,0.56631 2.58958,0.20201 3.175,0.33667 3.175,0.73036 0,0.38195 -5.6505,0.0305 -7.57684,-0.47122 -1.85506,-0.48318 -1.94816,-0.47662 -1.94816,0.13723 0,0.28245 -0.11907,0.58713 -0.26459,0.67707 -0.15387,0.0951 -0.26458,-0.1677 -0.26458,-0.62801 z m -172.253061,0.0876 c -0.257728,-0.31054 -0.26502,-0.48175 -0.03051,-0.71626 0.378574,-0.37858 1.265322,0.37522 0.981549,0.83438 -0.247581,0.40059 -0.551918,0.36279 -0.951039,-0.11812 z m 164.624101,-3.26331 c -0.28152,-0.17846 -0.26376,-0.25792 0.0878,-0.39282 0.58794,-0.22562 0.58315,-0.22706 0.75768,0.22776 0.16622,0.43316 -0.28389,0.52104 -0.84547,0.16506 z m -61.89424,-0.75109 c -0.83707,-0.15821 -0.46451,-0.60459 0.50461,-0.60459 0.50009,0 0.76091,0.11783 0.69545,0.31419 -0.12517,0.37553 -0.39905,0.4418 -1.20006,0.2904 z"
       id="path14722" />
  </g>
</svg>
