<?xml version="1.0" encoding="UTF-8" standalone="no"?>
<!-- Created with Inkscape (http://www.inkscape.org/) -->

<svg
   width="195.78401mm"
   height="283.61963mm"
   viewBox="0 0 195.78408 283.6196"
   version="1.1"
   id="svg5"
   inkscape:version="1.1 (c4e8f9ed74, 2021-05-24)"
   sodipodi:docname="frame9.svg"
   xmlns:inkscape="http://www.inkscape.org/namespaces/inkscape"
   xmlns:sodipodi="http://sodipodi.sourceforge.net/DTD/sodipodi-0.dtd"
   xmlns="http://www.w3.org/2000/svg"
   xmlns:svg="http://www.w3.org/2000/svg">
  <sodipodi:namedview
     id="namedview7"
     pagecolor="#ffffff"
     bordercolor="#666666"
     borderopacity="1.0"
     inkscape:pageshadow="2"
     inkscape:pageopacity="0.0"
     inkscape:pagecheckerboard="0"
     inkscape:document-units="mm"
     showgrid="false"
     inkscape:zoom="0.66903058"
     inkscape:cx="112.84985"
     inkscape:cy="435.70504"
     inkscape:window-width="2506"
     inkscape:window-height="1403"
     inkscape:window-x="1974"
     inkscape:window-y="0"
     inkscape:window-maximized="1"
     inkscape:current-layer="layer1" />
  <defs
     id="defs2" />
  <g
     inkscape:label="Layer 1"
     inkscape:groupmode="layer"
     id="layer1"
     transform="translate(-105.55697,-128.26419)">
    <path
       style="fill:#000000;stroke-width:0.264583"
       d="m 273.76665,411.75886 c -2.57561,-0.3084 -4.69563,-0.91234 -6.97278,-1.98636 -1.8041,-0.8509 -4.00743,-1.24243 -4.00743,-0.7121 0,0.11306 1.00963,0.6786 2.24363,1.25677 1.234,0.57814 2.24603,1.1131 2.24896,1.1888 0.003,0.0757 -2.0485,0.11467 -4.55874,0.0867 -2.51023,-0.028 -10.57672,-0.1193 -17.92552,-0.20283 -7.3488,-0.0835 -22.52927,-0.22235 -33.73437,-0.30855 -11.20511,-0.0862 -22.51604,-0.19537 -25.13542,-0.2426 -2.61937,-0.0473 -14.16844,-0.10427 -25.66458,-0.12674 -15.55805,-0.0304 -20.73297,-0.11586 -20.24063,-0.3343 0.3638,-0.16142 1.13771,-0.50562 1.71979,-0.76488 0.58209,-0.25924 1.52238,-0.75782 2.08955,-1.10792 l 1.0312,-0.63653 -1.24262,-0.18635 c -1.07664,-0.16145 -1.53872,-0.0592 -3.45918,0.76568 -3.99734,1.71691 -6.02494,2.08362 -10.58219,1.91394 -3.16295,-0.11774 -4.41189,-0.28069 -6.10557,-0.79653 -6.96784,-2.12214 -12.56952,-7.14332 -15.4524,-13.85104 -1.46508,-3.40881 -1.91784,-5.7032 -1.89562,-9.60607 0.0174,-3.05388 0.43844,-6.21832 0.80175,-6.02549 0.0851,0.0451 0.48669,0.24831 0.89249,0.45146 0.51597,0.25831 0.68356,0.49443 0.55735,0.78526 -0.0993,0.22874 -0.2975,1.24934 -0.44053,2.26798 -0.5092,3.62663 0.82033,10.77114 2.55537,13.73174 4.29319,7.32579 12.79488,12.1412 20.66707,11.70602 10.81162,-0.5977 19.63824,-8.32837 21.47059,-18.80471 1.18063,-6.75016 -0.76221,-13.78969 -5.18681,-18.79347 -3.05614,-3.45618 -7.41975,-6.21872 -11.38899,-7.21021 -4.78933,-1.19634 -11.46371,-0.73738 -13.30571,0.91495 -0.50755,0.45529 -0.51361,0.44163 -0.32214,-0.72661 0.10733,-0.65484 0.23855,-1.26469 0.2916,-1.35521 0.0531,-0.0905 1.17561,-0.37419 2.49458,-0.63038 1.89882,-0.36882 3.23576,-0.43757 6.42145,-0.33022 3.81648,0.12859 4.14577,0.18347 6.40459,1.0672 6.3787,2.4956 10.95763,6.48986 13.88065,12.10827 2.03275,3.90719 3.04089,9.88594 2.41163,14.30211 -0.31006,2.17606 -1.4984,6.1459 -2.32286,7.75996 -0.99761,1.95297 -3.2285,4.81926 -5.1794,6.65451 -1.16043,1.09165 -2.06508,2.02266 -2.01036,2.06891 0.0547,0.0463 0.52776,0.15005 1.05117,0.23064 0.87692,0.13502 1.07189,0.0301 2.4826,-1.33636 0.84202,-0.81558 1.86424,-1.94299 2.27161,-2.50534 l 0.74066,-1.02245 0.084,0.87307 c 0.16718,1.73701 -4.28884,1.59522 60.8059,1.93482 14.47933,0.0755 29.84945,0.21449 34.15583,0.30882 l 7.82979,0.17145 0.60051,-0.60053 c 0.47877,-0.47873 0.57132,-0.79565 0.45649,-1.56292 l -0.14404,-0.96239 0.70957,0.91186 c 0.39026,0.50152 1.53335,1.78144 2.54021,2.84427 1.56136,1.64814 1.96049,1.93241 2.71331,1.93241 h 0.88265 l -2.19183,-2.18281 c -5.05505,-5.03426 -7.3286,-10.49227 -7.33382,-17.60595 -0.005,-6.17234 2.09547,-11.66076 6.14201,-16.05231 3.26466,-3.54301 7.45981,-6.13335 11.8954,-7.34494 3.1954,-0.87284 8.57906,-0.85959 12.13841,0.0299 2.40975,0.60217 2.55656,0.68006 3.11676,1.65342 0.32334,0.56181 0.53994,1.02148 0.48133,1.02148 -0.0586,0 -0.62771,-0.22873 -1.26467,-0.50829 -2.10604,-0.92432 -5.17967,-1.42026 -8.83103,-1.42491 -2.97684,-0.004 -3.75226,0.0906 -5.76371,0.70129 -6.37402,1.93529 -10.1836,4.84523 -13.44302,10.26841 -1.60382,2.6685 -3.03019,6.97258 -3.27463,9.88121 -0.33017,3.92877 0.66702,8.92606 2.50949,12.57596 1.0804,2.14027 3.65253,5.27897 5.73103,6.99342 2.05479,1.69489 5.51998,3.55274 8.10269,4.34422 5.41669,1.65999 10.92281,1.23676 16.43674,-1.26336 5.01196,-2.27254 9.72002,-7.38487 11.72179,-12.72837 1.37565,-3.67212 1.60768,-9.57592 0.53617,-13.64257 l -0.63179,-2.39778 0.83125,-0.26017 0.83123,-0.26017 0.49556,2.92253 c 1.64512,9.70206 -0.61615,17.16101 -7.06226,23.29532 -4.36473,4.15362 -9.15139,6.22491 -15.16846,6.56371 -1.30969,0.0738 -3.21469,0.0343 -4.23333,-0.0877 z m -12.87612,-2.21906 -0.70528,-0.62119 -14.77284,-0.18015 c -8.12507,-0.0991 -15.206,-0.22424 -15.73541,-0.27819 -0.52941,-0.0539 -19.28176,-0.1824 -41.67188,-0.28551 l -40.70931,-0.18746 -0.50402,0.56605 -0.50403,0.56605 15.58528,0.0241 c 8.5719,0.0132 16.06152,0.0534 16.64361,0.089 0.58208,0.0356 12.66692,0.16004 26.85521,0.27649 25.43845,0.20875 55.83382,0.54178 56.09166,0.61457 0.0728,0.0206 -0.18508,-0.2422 -0.57299,-0.58388 z m -2.60201,-2.07896 c 0,-0.0657 -0.41337,-0.5578 -0.91861,-1.09353 -0.86454,-0.91667 -0.9541,-0.95099 -1.52136,-0.58287 -0.52719,0.34208 -3.37167,0.36097 -22.69544,0.15054 -12.15099,-0.13229 -35.30865,-0.31297 -51.46146,-0.4015 -19.66996,-0.10782 -29.61322,-0.25363 -30.10904,-0.44154 -0.65081,-0.24667 -0.83435,-0.19045 -1.51859,0.46509 -0.42807,0.41013 -0.72979,0.7942 -0.67049,0.85349 0.0593,0.0593 8.66033,0.15896 19.11339,0.22148 26.20793,0.15672 80.60747,0.63352 80.6818,0.70718 0.11979,0.11872 9.0998,0.23879 9.0998,0.12166 z m -150.4529,-27.16057 c -0.45707,-0.2787 -0.93093,-0.66521 -1.05304,-0.8589 -0.1221,-0.1937 -0.24416,-1.89999 -0.27122,-3.79176 -0.0572,-3.99525 -0.12841,-4.7874 -0.60337,-6.70881 -0.44849,-1.81436 -0.19945,-4.06924 0.56855,-5.1478 0.45776,-0.64287 0.48628,-0.77384 0.13951,-0.64077 -0.56266,0.21591 -0.71908,-0.2896 -0.99028,-3.20019 -0.29544,-3.1709 0.42636,-93.5608 0.91838,-115.0066 0.16114,-7.02365 0.34887,-29.3648 0.55914,-66.54271 0.086,-15.20693 0.26338,-28.22436 0.39415,-28.92762 0.82932,-4.45992 4.58565,-7.82027 10.55784,-9.44484 1.4697,-0.3998 1.94715,-0.4231 3.23832,-0.15806 1.66922,0.34265 2.43426,0.83169 1.72616,1.10341 -0.23086,0.0886 -0.72665,-0.04 -1.10177,-0.28581 -1.14064,-0.74738 -3.8311,-0.44624 -6.23989,0.69841 -4.05614,1.92747 -6.33533,4.56903 -6.71106,7.77805 -0.1686,1.4399 -0.35439,19.70149 -0.56396,55.43021 -0.13843,23.60238 -0.21553,31.24467 -0.68592,67.99792 -0.42298,33.04794 -0.69642,85.18682 -0.45368,86.50664 0.30557,1.6615 1.07572,3.03829 1.75591,3.13906 0.69056,0.10231 1.36705,1.00626 1.36705,1.82672 0,0.51228 -0.13878,0.60258 -0.92605,0.60258 -0.56347,0 -1.12685,0.20082 -1.43893,0.5129 -0.50748,0.50747 -0.51409,0.50677 -0.62543,-0.0661 -0.0619,-0.31847 -0.12875,-0.0797 -0.14856,0.53069 -0.0496,1.5283 0.78774,2.50037 2.18809,2.54007 0.79369,0.0225 1.1512,-0.12526 1.61899,-0.6691 0.33021,-0.38389 0.67215,-0.6262 0.75988,-0.53847 0.62292,0.62292 -1.13161,-5.21072 -1.91191,-6.35694 -0.4165,-0.61181 -0.98401,-1.70769 -1.26115,-2.43529 -0.48183,-1.26498 -0.50219,-2.27305 -0.46499,-23.01875 0.0214,-11.93271 0.22524,-35.32849 0.45298,-51.99063 0.51745,-37.85773 0.78892,-67.46135 1.22225,-133.28385 0.004,-0.57723 0.13339,-0.8599 0.39423,-0.8599 0.2433,0 0.32937,-0.15428 0.23021,-0.41267 -0.20199,-0.5264 1.07765,-1.91055 2.21699,-2.39804 1.1257,-0.48166 2.46366,-0.4617 3.19077,0.0476 0.77486,0.54273 0.74333,1.20216 -0.0951,1.9894 -0.54042,0.50742 -0.955,0.63739 -1.98437,0.6221 -0.71568,-0.0106 -1.30123,0.0787 -1.30123,0.19844 0,0.11977 0.41672,0.21776 0.92604,0.21776 0.50933,0 0.92605,0.11907 0.92605,0.26459 0,0.14552 -0.1786,0.26458 -0.39688,0.26458 -0.34995,0 -0.39687,2.92512 -0.39687,24.73854 v 24.73855 l 2.05052,0.0112 c 1.12778,0.006 4.19364,0.0614 6.81302,0.12277 6.51343,0.15264 50.01843,0.36815 107.2856,0.53148 26.26489,0.0749 51.46296,0.21074 55.99571,0.30185 l 8.24136,0.16566 0.19157,-4.34298 c 0.10537,-2.38864 0.14855,-7.19769 0.096,-10.68677 -0.0526,-3.48909 -0.0629,-12.71364 -0.0228,-20.49901 0.04,-7.78536 0.0698,-14.40659 0.0661,-14.71383 -0.005,-0.46015 -0.13489,-0.53812 -0.73423,-0.4423 -0.56872,0.0909 -0.64094,0.0549 -0.33073,-0.16493 0.33006,-0.2339 0.29913,-0.28193 -0.18368,-0.2853 -0.31931,-0.002 -0.90289,-0.28131 -1.29684,-0.62017 -0.94838,-0.81576 -0.73052,-1.8671 0.50942,-2.45839 1.09509,-0.52221 2.51716,-0.19174 4.09578,0.95181 2.12296,1.53786 1.93533,-2.32894 1.92181,39.60499 -0.007,20.63989 -0.0146,65.98302 -0.0176,100.7625 -0.003,34.77948 -0.1113,64.42604 -0.24069,65.88125 -0.12939,1.45521 -0.49155,3.36021 -0.8048,4.23334 -0.31324,0.87312 -0.60601,2.00422 -0.65059,2.51354 -0.0446,0.50932 -0.29619,1.64041 -0.55913,2.51354 -0.29517,0.98014 -0.48701,2.49853 -0.50142,3.96875 -0.0199,2.02675 0.0643,2.5222 0.56546,3.32801 1.31702,2.11764 3.49068,2.06517 4.8783,-0.11774 0.31466,-0.49501 0.47177,-0.61582 0.38995,-0.29985 -0.0754,0.29104 -0.26447,1.02297 -0.42025,1.62651 -0.19666,0.76199 -0.20142,1.67412 -0.0156,2.98462 0.31651,2.23173 0.0199,3.21647 -1.30454,4.33091 -1.01344,0.85276 -1.97027,1.03026 -1.24731,0.23139 0.44131,-0.48764 0.56947,-1.51122 0.28275,-2.25838 -0.0853,-0.22235 -0.92185,-0.96718 -1.85895,-1.65517 -2.55443,-1.8754 -2.88155,-2.54871 -2.87676,-5.92134 0.004,-2.47624 0.1,-3.04582 0.88792,-5.24159 0.4862,-1.3549 0.83066,-2.51678 0.76549,-2.58196 -0.2499,-0.2499 -2.02545,3.63231 -2.32818,5.09052 -0.3099,1.49281 -0.23381,4.25077 0.14292,5.18042 0.32968,0.81351 -0.58574,0.52978 -1.28049,-0.39687 -0.97306,-1.29785 -1.67503,-2.82344 -2.15957,-4.69333 -0.59046,-2.27866 -1.53738,-4.06987 -2.52225,-4.77117 -0.44896,-0.31969 -0.76978,-0.62776 -0.71294,-0.68461 0.0568,-0.0568 0.96797,0.15658 2.02471,0.47428 1.55417,0.46723 2.06826,0.52217 2.69001,0.28749 0.42275,-0.15957 0.76685,-0.27071 0.76466,-0.24697 -0.002,0.0237 -0.17556,0.51941 -0.38526,1.1015 -0.41527,1.15268 -0.48854,4.36584 -0.12368,5.42395 0.17394,0.50444 0.21003,0.34743 0.15201,-0.66145 -0.15282,-2.65735 0.28881,-4.81898 1.42338,-6.96712 l 1.07149,-2.02872 -0.0645,-73.84769 -0.0645,-73.84768 -5.30197,-0.16725 c -2.91609,-0.092 -19.88714,-0.16886 -37.71344,-0.17083 -17.8263,-0.002 -44.43677,-0.0643 -59.13437,-0.13845 -43.23386,-0.21821 -77.96956,-0.18313 -78.2317,0.079 -0.13279,0.13278 -0.2981,5.72339 -0.37016,12.5185 -0.0716,6.7532 -0.26187,21.56543 -0.42278,32.91605 -0.33016,23.28862 -0.62597,65.83169 -0.61936,89.07589 0.005,16.28415 0.004,16.29006 -1.07137,14.21017 -0.31923,-0.61732 -0.37916,-3.74779 -0.37772,-19.73073 0.002,-21.21137 0.43991,-74.31097 0.6434,-77.99908 0.0723,-1.30968 0.20848,-13.63265 0.3027,-27.38437 0.0942,-13.75172 0.26263,-25.10217 0.37423,-25.22321 0.11161,-0.12105 12.21254,-0.14761 26.89096,-0.059 14.67843,0.0886 55.67977,0.2173 91.11409,0.28603 35.43432,0.0687 64.66417,0.17938 64.95521,0.24588 0.5278,0.12059 0.529,0.31064 0.46344,73.48822 -0.0385,42.9544 0.0319,73.2028 0.16977,72.97044 0.85944,-1.44847 0.87051,-2.71676 0.87882,-100.63447 0.005,-53.42787 -0.0167,-99.07635 -0.0472,-101.44106 -0.0597,-4.6259 -0.0532,-4.60763 -1.45063,-4.06075 -0.51028,0.19969 -0.51028,0.20277 0,0.33672 0.59722,0.15676 0.55462,-2.78668 0.44885,31.01342 l -0.0661,21.13782 -25.06927,-0.16864 c -13.7881,-0.0928 -48.88177,-0.24396 -77.98594,-0.336 -29.10416,-0.0921 -53.57151,-0.19527 -54.37187,-0.22937 -0.80037,-0.0341 -7.01741,-0.0783 -13.81564,-0.0982 l -12.36043,-0.0362 0.16665,-26.19376 c 0.15471,-24.31655 0.13511,-26.19375 -0.27343,-26.19375 -0.37949,0 -0.44644,0.38242 -0.48637,2.77813 -0.0255,1.52797 -0.0703,3.10555 -0.0997,3.50573 -0.0294,0.40018 -0.12822,13.34823 -0.21968,28.77344 -0.0915,15.42521 -0.22949,32.39161 -0.30673,37.70312 -0.0772,5.31151 -0.25186,20.96823 -0.38805,34.79271 -0.13619,13.82448 -0.34026,31.50526 -0.45348,39.29063 -0.11323,7.78536 -0.19707,24.45411 -0.18632,37.04166 0.0212,24.84984 0.008,24.61726 1.49532,26.86228 0.99658,1.50457 2.78874,3.45044 2.9913,3.24787 0.0828,-0.0828 0.59047,-0.0513 1.12818,0.07 0.88968,0.20065 1.53432,0.12071 3.49378,-0.43326 0.64323,-0.18186 0.63824,-0.16231 -0.18134,0.70963 -0.78982,0.84027 -1.46804,2.5186 -2.19712,5.43698 -0.2612,1.04554 -2.64863,4.02637 -2.64863,3.30696 0,-0.60091 -0.4749,-0.29414 -0.65162,0.42093 -0.20208,0.81763 -1.90646,2.98695 -3.24079,4.12485 -1.60865,1.37185 -2.07371,2.89669 -1.14091,3.74086 0.28761,0.26028 0.45918,0.57639 0.38126,0.70246 -0.20433,0.33061 -0.40731,0.28822 -1.33834,-0.27949 z m 3.11159,-8.3851 c 0.72413,-0.69377 1.30248,-2.38009 1.27752,-3.72491 -0.0116,-0.62268 -0.0971,-0.5262 -0.5292,0.59687 -0.70777,1.83951 -1.73458,2.77479 -3.10643,2.8295 -0.74452,0.0297 -1.26254,-0.11828 -1.66464,-0.4755 -0.58086,-0.51602 -0.58238,-0.51595 -0.3052,0.0135 0.93792,1.79159 2.89313,2.13516 4.32795,0.76051 z m 3.08866,-3.10911 c -0.11064,-1.30478 -1.65411,-4.93041 -2.09893,-4.93041 -0.10988,0 0.15714,0.76273 0.59337,1.69495 0.5438,1.16207 0.84334,2.29346 0.95277,3.59868 0.11852,1.4138 0.22502,1.78685 0.41379,1.44953 0.13981,-0.24982 0.20236,-1.06555 0.139,-1.81275 z m 178.03113,0.18487 c -0.097,-0.097 -0.17639,-0.0176 -0.17639,0.17639 0,0.19403 0.0794,0.2734 0.17639,0.17639 0.097,-0.097 0.097,-0.25577 0,-0.35278 z m -176.36308,-3.34429 c -0.32698,-1.58306 -0.85815,-2.70254 -1.14582,-2.41487 -0.0806,0.0806 0.0386,0.51761 0.26491,0.97119 0.22628,0.45358 0.473,1.72635 0.54828,2.82838 0.12629,1.84891 0.15727,1.93497 0.40093,1.11407 0.18615,-0.62714 0.166,-1.36438 -0.0683,-2.49877 z m -8.05151,-3.00571 c -0.097,-0.097 -0.17639,-0.0176 -0.17639,0.17639 0,0.19403 0.0794,0.2734 0.17639,0.17639 0.097,-0.097 0.097,-0.25577 0,-0.35278 z m 5.82083,-153.9875 c -0.097,-0.097 -0.17639,-0.0176 -0.17639,0.17639 0,0.19402 0.0794,0.2734 0.17639,0.17639 0.097,-0.097 0.097,-0.25577 0,-0.35278 z m 183.90052,161.24149 c -0.64273,-0.4844 -1.1856,-1.97972 -1.39695,-3.84783 -0.1305,-1.1534 -0.0969,-1.64227 0.11295,-1.64227 0.16432,0 0.29876,0.23149 0.29876,0.51441 0,0.28293 0.27487,0.83397 0.61082,1.22453 1.24686,1.44957 2.63726,-0.0805 2.66224,-2.92957 0.008,-0.87312 0.11582,-1.65902 0.24037,-1.74644 0.12455,-0.0874 -0.14498,-0.31279 -0.59895,-0.50083 -0.59711,-0.24733 -0.77738,-0.4595 -0.65176,-0.7671 0.0955,-0.23387 0.25955,-0.72287 0.36455,-1.08667 0.15639,-0.54186 0.26405,-53.29346 0.40417,-198.04063 l 0.0113,-11.64166 -0.63657,-1.58082 c -1.37004,-3.40228 -4.94454,-5.93654 -9.09763,-6.45008 -2.04525,-0.2529 -3.69103,-0.0487 -4.03018,0.50007 -0.31628,0.51175 -0.95883,0.26884 -0.87225,-0.32975 0.10987,-0.7596 1.57174,-1.09718 3.92101,-0.90546 4.59449,0.37494 9.51112,3.55675 11.29693,7.31083 0.5502,1.1566 0.7177,1.97538 0.81629,3.99021 0.0839,1.71458 0.0191,2.73106 -0.20015,3.14078 -0.20968,0.3918 -0.22142,0.54226 -0.0332,0.42595 0.43674,-0.26992 0.43536,-1.06925 0.1659,95.89514 -0.0738,26.55756 -0.12619,51.20349 -0.11641,54.76875 0.01,3.56526 0.0502,17.49558 0.0898,30.95625 0.0426,14.46381 -0.0267,24.60146 -0.16935,24.78569 -0.15336,0.19807 -0.0697,0.63217 0.22937,1.19062 0.69502,1.2977 0.63665,3.99948 -0.11741,5.43412 -0.83551,1.58959 -2.22063,2.14797 -3.30359,1.33176 z m 3.1599,-166.79774 c -0.097,-0.097 -0.17639,-0.0176 -0.17639,0.17639 0,0.19402 0.0794,0.2734 0.17639,0.17638 0.097,-0.097 0.097,-0.25576 0,-0.35277 z m -0.0371,-48.72043 c -0.0815,-0.0815 -0.29496,-1.7e-4 -0.47444,0.18065 -0.25936,0.26131 -0.22897,0.2917 0.14812,0.14811 0.26093,-0.0994 0.40778,-0.2473 0.32632,-0.32876 z m -13.1472,212.73729 c -1.57386,-1.71239 -2.68184,-4.48957 -2.08032,-5.21437 0.56297,-0.67833 1.15917,-0.46448 2.49983,0.89665 l 1.28234,1.30191 -0.76312,0.0872 c -0.64654,0.0738 -0.77584,0.2192 -0.84637,0.9516 -0.0458,0.47545 0.10356,1.23892 0.33188,1.6966 0.54146,1.08539 0.40094,1.17828 -0.42424,0.28046 z m -167.00244,-0.58719 c 0.11839,-0.5919 0.0576,-0.92416 -0.19862,-1.08643 -0.64946,-0.41124 -1.63896,-0.25939 -2.3032,0.35346 l -0.64523,0.59531 0.20141,-0.66145 c 0.29316,-0.96284 1.64536,-2.85167 2.39144,-3.34052 0.83248,-0.54546 1.8968,-0.28637 2.28019,0.55506 0.39105,0.85827 -0.45854,3.50248 -1.30139,4.05039 -0.58179,0.37819 -0.59131,0.36775 -0.4246,-0.46582 z m 178.58891,-2.38661 c -0.36932,-1.05837 -0.71013,-1.37534 -1.1163,-1.03825 -0.49295,0.40911 -0.80082,-0.90585 -0.41192,-1.75939 0.70913,-1.55638 1.96592,-0.15879 1.83984,2.04597 -0.0678,1.18602 -0.1179,1.30682 -0.31162,0.75167 z M 202.28505,207.85968 c 0.097,-0.097 0.25576,-0.097 0.35278,0 0.097,0.097 0.0176,0.17639 -0.17639,0.17639 -0.19403,0 -0.2734,-0.0794 -0.17639,-0.17639 z m -85.08559,-58.22335 c 0.47294,-0.0587 1.24685,-0.0587 1.71979,0 0.47294,0.0587 0.086,0.10671 -0.8599,0.10671 -0.94588,0 -1.33284,-0.048 -0.85989,-0.10671 z m 5.99096,-0.22711 c 0.0883,-0.23019 0.1606,-0.65393 0.1606,-0.94166 0,-0.28773 0.11906,-0.44956 0.26458,-0.35962 0.14552,0.0899 0.26459,0.44624 0.26459,0.79179 0,0.48227 0.16907,0.65388 0.7276,0.73849 0.49677,0.0753 0.36187,0.1228 -0.42518,0.14987 -0.95147,0.0327 -1.12474,-0.0334 -0.99219,-0.37887 z m 164.21837,0.22053 c -1.66463,-0.0467 -3.17364,-0.2069 -3.35336,-0.35606 -0.25805,-0.21416 -0.24753,-0.4608 0.05,-1.17299 0.23274,-0.55702 0.3768,-1.82629 0.3768,-3.31986 0,-2.20396 0.041,-2.40006 0.46302,-2.21479 0.25466,0.11179 0.76068,0.16231 1.12448,0.11226 0.3638,-0.05 1.85209,-0.0951 3.30729,-0.10019 2.33903,-0.008 2.80716,0.0715 4.03701,0.68693 2.30955,1.15564 4.82654,3.54454 4.82654,4.58092 0,0.0887 -0.56555,-0.30806 -1.25677,-0.88156 -0.69123,-0.57351 -1.71219,-1.18809 -2.2688,-1.36574 -2.1171,-0.67568 -4.67652,0.37619 -4.67652,1.92195 0,0.7337 0.8597,1.59495 1.98438,1.98796 0.76222,0.26636 0.74645,0.27596 -0.39688,0.24171 -0.65484,-0.0196 -2.55259,-0.0739 -4.21723,-0.12054 z m 0.76648,-2.42245 c 2.08351,-2.19873 2.44803,-2.39913 4.42555,-2.43303 2.12856,-0.0365 0.83039,-0.44269 -1.50396,-0.47061 -2.62526,-0.0314 -4.42763,0.90061 -5.74172,2.969 -0.75876,1.19428 -0.64143,1.76132 0.36443,1.76132 0.55279,0 1.13539,-0.43337 2.4557,-1.82668 z m 6.53756,-2.31846 c -0.097,-0.097 -0.25577,-0.097 -0.35278,0 -0.097,0.097 -0.0176,0.17639 0.17639,0.17639 0.19403,0 0.2734,-0.0794 0.17639,-0.17639 z m -175.99202,4.15899 -2.91042,-0.14614 0.95358,-0.43339 c 2.59464,-1.17922 0.39143,-3.76404 -2.80036,-3.2854 -1.45955,0.21887 -3.23965,1.49522 -3.73337,2.67686 -0.43163,1.03303 -0.63755,1.15367 -0.63755,0.37351 0,-0.29487 0.53805,-1.07418 1.19567,-1.7318 0.65762,-0.65762 0.94508,-1.06156 0.6388,-0.89765 -0.95551,0.51137 -0.83496,0.10529 0.26328,-0.8869 2.1674,-1.95812 4.6075,-2.84977 8.0887,-2.95573 1.45521,-0.0443 2.82443,-0.12269 3.04271,-0.17419 0.33373,-0.0787 0.40236,0.3905 0.43131,2.94906 0.0189,1.67349 -0.0573,3.28084 -0.1693,3.57188 -0.18821,0.48886 -0.2261,0.47244 -0.49745,-0.21566 -0.16155,-0.40966 -0.29372,-0.89962 -0.29372,-1.0888 0,-0.65737 -1.14547,-1.7944 -2.31103,-2.29402 -0.79399,-0.34034 -1.74182,-0.49405 -2.93643,-0.47619 -2.43671,0.0364 -3.64272,0.41982 -1.42038,0.45153 0.91659,0.0131 1.92862,0.10332 2.24895,0.20053 1.00961,0.30637 2.2116,1.37301 2.57161,2.28202 0.49115,1.24017 1.03867,1.80205 1.75599,1.80205 0.34125,0 0.62045,0.11906 0.62045,0.26458 0,0.14552 -0.26789,0.24105 -0.59531,0.21228 -0.32742,-0.0288 -1.905,-0.11806 -3.50573,-0.19843 z m -5.81383,-4.19608 c -0.0815,-0.0815 -0.29496,-1.7e-4 -0.47443,0.18065 -0.25937,0.26131 -0.22897,0.2917 0.14811,0.14811 0.26094,-0.0994 0.40778,-0.2473 0.32632,-0.32876 z m 0.83084,-0.22749 c -0.097,-0.097 -0.25576,-0.097 -0.35277,0 -0.097,0.097 -0.0176,0.17639 0.17639,0.17639 0.19402,0 0.2734,-0.0794 0.17638,-0.17639 z m 9.94451,0.0441 c 0.003,-0.58209 0.0571,-0.78906 0.1204,-0.45994 0.0633,0.32912 0.0609,0.80537 -0.005,1.05833 -0.0662,0.25297 -0.118,-0.0163 -0.11507,-0.59839 z m -13.56048,-0.94268 c 0,-0.32727 1.11056,-1.47405 2.77813,-2.86873 0.58208,-0.48684 0.87974,-0.78959 0.66146,-0.67279 -0.21829,0.1168 0.17709,-0.40796 0.8786,-1.16612 2.48608,-2.68683 3.0748,-5.51266 1.63442,-7.84518 -0.5329,-0.86298 -1.16004,-1.46609 -1.90588,-1.83286 -0.61139,-0.30065 -1.11717,-0.63594 -1.12396,-0.74508 -0.007,-0.10914 1.65178,-0.19844 3.68572,-0.19844 3.66486,0 3.702,0.006 4.13691,0.66976 0.3257,0.49708 0.39925,1.00405 0.28529,1.96628 -0.30157,2.54625 -1.92246,4.87787 -5.06346,7.28369 -1.09916,0.84189 -1.99848,1.57679 -1.99848,1.63312 0,0.17378 1.63512,-0.72204 3.45147,-1.89092 2.80928,-1.80786 4.46922,-4.3641 4.48022,-6.89938 0.003,-0.77572 -0.15752,-1.55443 -0.38265,-1.85208 -0.60761,-0.80334 -0.49754,-0.91047 0.93546,-0.91047 1.24753,0 1.32831,0.0392 1.16192,0.56344 -0.0984,0.3099 -0.22855,2.18513 -0.2893,4.16719 -0.17562,5.72921 -0.21622,6.32431 -0.44727,6.55572 -0.12006,0.12024 -0.32913,0.0205 -0.4646,-0.22152 -0.67834,-1.21213 -3.78641,-0.76461 -7.51921,1.08265 -1.47612,0.7305 -3.14295,1.78974 -3.77031,2.39597 -0.61846,0.59764 -1.12448,0.95122 -1.12448,0.78575 z m 185.8698,-0.67 c -1.20472,-1.01326 -4.60458,-2.6631 -6.50659,-3.15744 -1.94999,-0.50681 -3.73477,-0.39646 -4.47884,0.27692 -0.46658,0.42225 -0.52779,0.42541 -0.67765,0.0349 -0.0906,-0.23611 -0.10046,-0.99646 -0.0219,-1.68966 0.0786,-0.6932 0.15775,-3.12838 0.17597,-5.4115 l 0.0331,-4.15113 4.94418,-0.003 c 3.94682,-0.002 4.84255,0.0614 4.44033,0.31468 -2.18216,1.37429 -3.36072,3.07893 -3.36761,4.87084 -0.005,1.25033 0.57536,3.06384 1.07993,3.37569 0.14255,0.0881 0.0848,-0.25712 -0.12829,-0.76716 -0.56833,-1.36023 -0.4755,-2.78403 0.27815,-4.26583 0.76691,-1.50788 1.58313,-2.49155 2.64442,-3.18693 0.61897,-0.40557 1.178,-0.47651 3.27458,-0.41552 1.3905,0.0404 2.5505,0.0968 2.57778,0.1253 0.0273,0.0285 0.12198,2.40623 0.21046,5.28391 0.13989,4.54992 0.10811,5.2524 -0.24374,5.38741 -0.93407,0.35845 -1.5917,-1.0946 -0.79473,-1.75602 0.64085,-0.53185 0.52187,-2.9131 -0.19844,-3.97144 -0.98904,-1.45321 -1.91796,-1.98427 -3.43109,-1.96156 -1.21557,0.0182 -1.43447,0.12056 -2.34394,1.09557 -1.15277,1.23583 -1.5178,2.58858 -1.11037,4.11498 0.23596,0.88406 0.21697,0.9976 -0.14376,0.85918 -0.4654,-0.17859 -0.1261,0.27786 1.5304,2.05883 0.51408,0.55272 0.90075,1.06481 0.85925,1.13798 -0.0415,0.0732 0.48649,0.52029 1.1733,0.99359 1.16245,0.80109 1.7513,1.50628 1.2393,1.48419 -0.12126,-0.005 -0.57767,-0.30994 -1.01423,-0.67712 z m -2.38125,-2.56215 c -1.37116,-1.0126 -4.71895,-4.02787 -5.7845,-5.20996 -1.47158,-1.63252 -2.12137,-3.23789 -1.91626,-4.73429 0.12827,-0.93589 0.0944,-1.13457 -0.15152,-0.88865 -0.45902,0.45902 -0.37667,3.45093 0.12742,4.62928 0.61744,1.44332 2.87119,3.5657 5.60819,5.2813 2.37817,1.49067 3.61754,2.03072 2.11667,0.92232 z m -179.2457,-1.85758 c -0.005,-0.11637 0.17118,-0.56101 0.39203,-0.98808 0.6248,-1.20823 0.56619,-3.21887 -0.1265,-4.33967 -0.73787,-1.1939 -1.33848,-1.51623 -2.82518,-1.51623 -1.40499,0 -2.20816,0.47276 -3.01155,1.77267 -0.50488,0.81692 -0.57022,1.19367 -0.43365,2.50034 0.12638,1.20917 0.073,1.61136 -0.24939,1.87892 -0.6006,0.49845 -0.94733,-0.16057 -0.77741,-1.47763 0.0751,-0.58208 0.15486,-2.57638 0.17726,-4.43177 l 0.0407,-3.37344 h 2.32317 c 2.21837,0 2.37457,0.0392 3.46255,0.86904 2.23806,1.70703 3.36747,4.63728 2.636,6.83918 -0.28584,0.86046 -1.58871,2.69694 -1.60806,2.26667 z m 157.87484,-2.71607 c -0.0804,-0.0663 -102.60758,-0.37978 -128.05258,-0.39147 l -20.04219,-0.009 v -1.18011 c 0,-1.08239 0.0548,-1.18011 0.66146,-1.18011 0.3638,0 0.75075,0 0.85989,0 0.10914,0 0.19844,0.10914 0.19844,0.24253 0,0.1334 0.0595,0.29562 0.13229,0.36049 0.47949,0.42753 156.18024,0.624 156.32248,0.19726 0.0497,-0.14911 0.43764,-0.27111 0.86207,-0.27111 0.73994,0 0.77171,0.0498 0.77171,1.20879 v 1.2088 l -5.82659,-0.068 c -3.20462,-0.0374 -5.85376,-0.0904 -5.88698,-0.11784 z m 9.3188,-2.58338 c -0.15864,-0.13909 -65.45063,-0.44118 -95.46323,-0.4417 -22.35828,-3.7e-4 -23.89581,-0.0294 -23.73497,-0.44859 0.15321,-0.39926 0.1202,-0.40648 -0.30242,-0.0661 -0.40703,0.32779 -3.14212,0.36326 -19.25982,0.24975 l -18.78542,-0.13229 -0.0871,-0.76221 -0.0871,-0.76221 25.61935,0.16682 c 34.66505,0.22572 120.5859,0.67667 131.99415,0.69277 l 2.39354,0.003 -0.0123,0.70243 c -0.011,0.62561 -0.1295,0.71334 -1.08414,0.80228 -0.58952,0.0549 -1.1253,0.053 -1.19063,-0.004 z m 0.62512,-2.39198 c 0.21749,-0.56676 -6.3504,-0.64083 -60.53973,-0.68278 -27.06687,-0.021 -49.62922,-0.0793 -50.13854,-0.12967 -0.50932,-0.0504 -10.96316,-0.1831 -23.23076,-0.29496 l -22.30472,-0.20337 -0.14415,0.55123 c -0.10767,0.41173 -0.32186,0.53229 -0.84632,0.47637 -0.64181,-0.0684 -0.70218,-0.17469 -0.70218,-1.23601 v -1.16114 l 20.90209,0.0926 c 11.49614,0.0509 21.61646,0.14648 22.48958,0.21232 0.87313,0.0658 16.3041,0.14398 34.29106,0.17365 27.90577,0.046 32.7704,0.10943 33.15923,0.43212 0.35007,0.29054 0.50177,0.30358 0.6546,0.0563 0.15385,-0.24892 5.6146,-0.32235 24.0908,-0.32394 13.14052,-0.001 23.94796,0.0541 24.01654,0.12264 0.0686,0.0686 0.0429,0.60896 -0.0571,1.20084 -0.16569,0.98072 -0.25267,1.07617 -0.98062,1.07617 -0.56755,0 -0.75854,-0.10491 -0.65975,-0.36238 z"
       id="path18659" />
  </g>
</svg>
