<?xml version="1.0" encoding="UTF-8" standalone="no"?>
<!-- Created with Inkscape (http://www.inkscape.org/) -->

<svg
   width="64.876274mm"
   height="62.411034mm"
   viewBox="0 0 64.87627 62.411036"
   version="1.1"
   id="svg5"
   inkscape:version="1.1 (c4e8f9ed74, 2021-05-24)"
   sodipodi:docname="frame28.svg"
   xmlns:inkscape="http://www.inkscape.org/namespaces/inkscape"
   xmlns:sodipodi="http://sodipodi.sourceforge.net/DTD/sodipodi-0.dtd"
   xmlns="http://www.w3.org/2000/svg"
   xmlns:svg="http://www.w3.org/2000/svg">
  <sodipodi:namedview
     id="namedview7"
     pagecolor="#ffffff"
     bordercolor="#666666"
     borderopacity="1.0"
     inkscape:pageshadow="2"
     inkscape:pageopacity="0.0"
     inkscape:pagecheckerboard="0"
     inkscape:document-units="mm"
     showgrid="false"
     inkscape:zoom="0.94615212"
     inkscape:cx="-299.63469"
     inkscape:cy="199.228"
     inkscape:window-width="2506"
     inkscape:window-height="1403"
     inkscape:window-x="1974"
     inkscape:window-y="0"
     inkscape:window-maximized="1"
     inkscape:current-layer="layer1" />
  <defs
     id="defs2" />
  <g
     inkscape:label="Layer 1"
     inkscape:groupmode="layer"
     id="layer1"
     transform="translate(-106.81481,-87.221438)">
    <path
       style="fill:#000000;stroke-width:0.264583"
       d="m 108.04651,148.3757 c -0.90515,-2.01519 -0.62349,-3.5551 1.37388,-7.51151 1.04349,-2.06694 0.94582,-4.46088 -0.18199,-4.46088 -0.50012,0 -0.49572,0.37461 0.009,0.79375 0.55276,0.45875 0.49335,1.55831 -0.14036,2.59772 -0.61986,1.01669 -1.15909,1.02057 -1.91005,0.0138 -0.369,-0.49473 -0.46096,-0.87703 -0.3182,-1.32292 0.18526,-0.57863 0.22386,-0.5453 0.49942,0.43123 0.40214,1.42512 1.16925,1.44923 1.70049,0.0534 0.36193,-0.95094 0.35187,-1.02631 -0.18744,-1.40406 -0.31345,-0.21955 -0.5699,-0.57102 -0.5699,-0.78105 0,-0.50252 -0.50364,-0.49169 -0.69807,0.015 -0.49929,1.30111 -0.9261,-0.58121 -0.55789,-2.46038 0.13404,-0.68408 0.2631,-1.95816 0.28681,-2.83128 l 0.0431,-1.5875 0.92604,-0.085 c 0.50932,-0.0468 1.02862,-0.18506 1.154,-0.30734 0.12683,-0.12369 -0.0762,-1.14239 -0.45758,-2.29624 -1.14928,-3.47687 -1.51557,-5.77911 -1.50864,-9.48225 0.006,-3.06288 0.17979,-4.4944 1.01335,-8.33437 0.31308,-1.44229 2.22188,-5.71169 3.41107,-7.62952 4.07512,-6.572063 9.3122,-10.673433 16.97115,-13.290813 3.26457,-1.11564 5.85178,-1.40825 10.80527,-1.22203 3.77649,0.14197 4.55786,0.25277 6.62107,0.93891 6.50654,2.16382 9.13977,3.68363 13.45426,7.76536 3.36821,3.1865 5.52555,6.545663 7.35584,11.453713 2.00858,5.38614 2.02571,15.33899 0.0346,20.10437 -0.20981,0.50216 -0.38148,0.99295 -0.38148,1.09066 0,0.0977 0.58897,0.10788 1.30883,0.0226 l 1.30882,-0.15501 0.16914,1.1279 c 0.093,0.62035 0.12913,1.31145 0.0802,1.53577 -0.0489,0.22433 0.28768,0.76053 0.74796,1.19156 1.16266,1.08879 1.53724,2.60605 1.11222,4.50521 -0.29736,1.32874 -1.03383,2.45922 -1.6021,2.45922 -0.11808,0 -0.45282,-0.23813 -0.74386,-0.52917 -0.63349,-0.63349 -0.70122,-2.06482 -0.11789,-2.49136 0.47905,-0.35029 0.25585,-1.21281 -0.31384,-1.21281 -1.09584,0 -1.04865,2.8456 0.0878,5.29167 0.88423,1.90327 0.91474,4.08494 0.0841,6.01573 -0.32556,0.75677 -0.76987,1.52362 -0.98736,1.70413 -0.21749,0.1805 -0.49915,0.60097 -0.62591,0.93437 l -0.23047,0.60619 h -29.23061 -29.23063 z m 44.26213,0.57525 c 0.40019,-0.0254 0.84617,-0.061 0.99108,-0.0791 0.14491,-0.0182 0.46216,-0.7477 0.70499,-1.62114 0.24284,-0.87343 0.48929,-1.54029 0.54767,-1.48191 0.0584,0.0584 -0.0269,0.60026 -0.18953,1.20419 -0.46644,1.73223 -0.21127,2.13037 1.36537,2.13037 1.16785,0 1.30917,-0.0575 1.13826,-0.46302 -0.10733,-0.25466 -0.25376,-1.08675 -0.32541,-1.84909 -0.10725,-1.14119 -0.002,-1.64765 0.59416,-2.86673 1.18573,-2.42356 -0.19409,-2.57319 -1.64395,-0.17828 -0.33013,0.54532 -0.60085,0.88866 -0.60159,0.76298 -8e-4,-0.12568 -0.57297,0.38034 -1.27161,1.12448 -0.78143,0.83233 -1.49416,1.35299 -1.85209,1.35299 -0.61454,0 -0.77843,-0.37643 -0.29419,-0.6757 0.17843,-0.11028 0.19371,-0.2717 0.0402,-0.42516 -0.38265,-0.38265 -1.63831,0.30923 -2.06752,1.13923 -0.47377,0.91618 -0.47118,1.01997 0.0255,1.01997 0.2214,0 0.53895,0.29936 0.70566,0.66525 0.2364,0.51885 0.4244,0.62362 0.85422,0.47603 0.30311,-0.10408 0.87853,-0.20997 1.27872,-0.23531 z m -41.82902,-1.94046 c -0.0855,-1.27707 -0.029,-1.42127 0.93333,-2.38364 1.72251,-1.72251 4.35178,-2.24903 7.34182,-1.47022 0.85165,0.22183 1.6208,0.33021 1.70923,0.24087 0.19229,-0.19429 -1.11835,-1.29359 -2.19496,-1.84104 -1.02152,-0.51943 -2.06753,-0.48977 -4.05626,0.11503 -2.11102,0.64199 -3.5632,1.80078 -4.43522,3.53916 l -0.69181,1.37912 0.14218,-1.25762 c 0.27856,-2.46396 1.75524,-4.33411 4.36908,-5.53323 1.89573,-0.86968 2.08632,-1.76103 0.403,-1.88479 -0.64028,-0.0471 -0.85427,0.11944 -1.39375,1.08451 -0.83111,1.48677 -1.00673,1.27711 -0.28912,-0.34517 0.59771,-1.35123 0.59276,-3.4548 -0.009,-3.82671 -0.16747,-0.1035 -0.63783,-0.89245 -1.04524,-1.75321 -0.65419,-1.38214 -1.61831,-2.63161 -1.61831,-2.09729 0,0.10671 -0.20941,-0.0646 -0.46534,-0.38066 -0.67288,-0.83097 -1.38675,-0.47646 -1.38675,0.68867 0,0.61763 0.2124,1.12216 0.66146,1.57122 0.77285,0.77285 0.90499,1.46897 0.14897,0.78478 -0.5615,-0.50815 -1.19755,-0.31917 -0.96505,0.28672 0.0803,0.20931 0.0101,0.59822 -0.15601,0.86423 -0.52825,0.84587 -0.11373,1.31858 1.02261,1.16617 0.81223,-0.10894 1.11438,-0.0209 1.53844,0.44809 0.88723,0.98132 0.65369,2.81087 -0.70382,5.51383 -1.01282,2.01663 -1.14972,2.49932 -1.14972,4.05383 0,1.50415 0.0948,1.86555 0.64239,2.44841 0.57716,0.61437 0.69804,0.64645 1.19062,0.31602 0.45972,-0.30839 0.53355,-0.58724 0.45723,-1.72708 z m 1.39228,1.93222 c 0.50147,-0.19243 0.52766,-0.69061 0.0987,-1.87694 -0.29953,-0.82833 -0.2693,-0.93503 0.47614,-1.68046 0.90914,-0.90914 2.51656,-1.30644 3.15201,-0.77907 0.30415,0.25243 0.32977,0.42143 0.10493,0.69234 -0.37159,0.44775 -0.1227,1.1589 0.4056,1.1589 0.21773,0 0.53127,-0.253 0.69675,-0.56221 0.24473,-0.45728 0.20439,-0.69183 -0.21615,-1.25677 -0.28437,-0.38201 -0.82595,-0.80461 -1.2035,-0.93912 -0.9501,-0.33846 -2.72878,0.23356 -3.6781,1.18288 -0.70777,0.70776 -0.75049,0.86926 -0.64118,2.42353 0.1468,2.08732 0.0649,1.92084 0.80482,1.63692 z m 3.78329,-0.39948 c 1.07727,-0.34042 2.19177,-1.64755 2.19049,-2.56908 l -9.8e-4,-0.7073 -0.52429,0.8599 c -1.03248,1.69337 -3.0277,0.75857 -2.25888,-1.05834 0.24264,-0.57341 -0.16232,-0.60057 -1.1306,-0.0758 -1.19423,0.64719 -1.32719,0.7817 -1.51592,1.53368 -0.14355,0.57189 -0.0893,0.72496 0.25674,0.72496 0.32915,0 0.37799,0.10849 0.19558,0.43445 -0.13373,0.23895 -0.18263,0.66582 -0.10869,0.94859 0.11299,0.43208 0.28694,0.48731 1.08988,0.34604 0.52549,-0.0924 1.33849,-0.28913 1.80667,-0.43708 z m 4.52432,-0.0455 c 0.048,-0.24904 0.24905,-0.45279 0.44685,-0.45279 0.45279,0 0.72795,-0.82554 0.49465,-1.48408 -0.11957,-0.33755 -0.0897,-0.41423 0.0918,-0.23572 0.14799,0.14552 0.33546,0.70392 0.41661,1.24089 0.12882,0.85246 0.0745,0.98919 -0.42856,1.07793 -0.53275,0.094 -0.53925,0.11798 -0.0864,0.31902 0.30997,0.13761 0.56155,0.10117 0.68544,-0.0993 0.15192,-0.24582 0.35139,-0.24574 0.8915,2.7e-4 0.55168,0.25136 0.78193,0.24553 1.11171,-0.0282 0.31504,-0.26145 0.49022,-0.27089 0.72221,-0.0389 0.41575,0.41576 2.36874,0.38806 2.95678,-0.0419 0.57427,-0.41992 0.4713,-1.20587 -0.21066,-1.6078 -0.375,-0.22101 -0.52658,-0.21173 -0.61736,0.0378 -0.0662,0.1819 -0.50503,0.33073 -0.97522,0.33073 -0.65959,0 -1.28874,-0.36518 -2.75386,-1.59846 -1.04443,-0.87915 -2.40598,-1.78868 -3.02566,-2.02117 -1.17745,-0.44177 -3.90604,-0.88054 -3.90314,-0.62764 9.2e-4,0.0804 0.35712,0.34849 0.79156,0.59569 1.54994,0.88194 2.01168,3.23665 0.90159,4.5978 -0.31913,0.3913 -0.3841,0.40886 -0.28101,0.0759 0.0994,-0.32109 0.005,-0.39921 -0.36661,-0.30213 -0.27539,0.072 -0.6348,0.2925 -0.79869,0.48998 -0.24731,0.29799 0.0546,0.34763 1.77562,0.29191 1.71396,-0.0555 2.08872,-0.14566 2.1608,-0.51993 z m 0.46753,-3.00376 c -0.13935,-0.36313 -0.10063,-0.3795 0.23628,-0.0999 0.45911,0.38103 0.5069,0.53419 0.16665,0.53419 -0.12995,0 -0.31127,-0.19544 -0.40293,-0.4343 z m 28.68504,3.39763 c 0,-0.11641 -0.14745,-0.35911 -0.32766,-0.53932 -0.18021,-0.18021 -0.32904,-0.53145 -0.33073,-0.78052 -0.004,-0.57683 -0.66451,-0.53854 -3.44265,0.19955 -4.09299,1.08742 -10.37125,1.02593 -14.92929,-0.14621 -0.78954,-0.20304 -1.5022,-0.3025 -1.58368,-0.22102 -0.0815,0.0815 -0.1657,0.49713 -0.18715,0.92367 l -0.039,0.77552 H 138.912 c 5.73105,0 10.42008,-0.0953 10.42008,-0.21167 z m 9.42932,-0.18521 c -0.0838,-0.21828 -0.0469,-0.39687 0.0819,-0.39687 0.12883,0 0.28064,0.13923 0.33737,0.30941 0.0567,0.17017 0.66805,0.34268 1.3585,0.38336 1.1393,0.0671 1.24024,0.0263 1.09171,-0.44171 -0.13191,-0.41562 -0.0376,-0.51564 0.48632,-0.51564 0.35748,0 0.92719,-0.22448 1.26601,-0.49884 0.55235,-0.44727 0.5759,-0.54747 0.22775,-0.96908 -0.29747,-0.36024 -0.31093,-0.49626 -0.0576,-0.58153 0.18191,-0.0612 0.33073,-0.33952 0.33073,-0.61844 0,-0.36453 -0.18597,-0.50711 -0.66145,-0.50711 -0.36381,0 -0.64736,0.0893 -0.63013,0.19843 0.14225,0.90095 -0.079,1.38839 -0.62665,1.38065 -1.93313,-0.0273 -2.64845,-2.74241 -1.03907,-3.94391 l 0.70835,-0.52883 -0.72579,-0.008 c -1.162,-0.0134 -2.71474,0.80168 -3.38187,1.77528 -0.47795,0.69752 -0.6192,1.26821 -0.6274,2.53483 -0.0127,1.96932 0.39113,2.82525 1.33309,2.82525 0.49615,0 0.6392,-0.10749 0.52816,-0.39687 z m 5.12276,0.28623 c 0,-0.55209 -0.3786,-0.85251 -0.93929,-0.74532 -0.94156,0.17998 -0.82662,0.85597 0.14554,0.85597 0.43657,0 0.79375,-0.0498 0.79375,-0.11065 z m 3.04949,-0.63067 c 1.55452,-1.16581 2.42246,-3.63483 1.98707,-5.65265 -0.13607,-0.63066 -0.53661,-2.09515 -0.89009,-3.25441 -0.35347,-1.15927 -0.58827,-2.46896 -0.52177,-2.91042 0.16653,-1.10559 0.78585,-1.99328 1.39066,-1.99328 0.85631,0 1.17452,1.74545 0.39877,2.18736 -0.43458,0.24757 -0.0299,1.65875 0.53814,1.87674 1.01037,0.38771 1.42735,-2.25902 0.52512,-3.33315 -0.28834,-0.34328 -0.18034,-0.27065 0.24001,0.16141 l 0.76427,0.78555 -0.17578,-0.9051 c -0.0967,-0.49781 -0.21147,-1.13126 -0.25508,-1.40767 -0.0889,-0.56351 -1.10331,-1.48181 -1.6369,-1.48181 -0.19156,0 -0.71415,0.44384 -1.16131,0.98632 -0.56615,0.68685 -0.81301,0.84752 -0.81301,0.52917 0,-0.25144 0.11404,-0.45716 0.25343,-0.45716 0.13938,0 0.57076,-0.54148 0.9586,-1.20329 0.54588,-0.93147 0.67049,-1.41702 0.55164,-2.14945 -0.0845,-0.52039 -0.19886,-0.99147 -0.25425,-1.04686 -0.27752,-0.27753 -1.81879,0.57297 -2.37597,1.31109 -0.71325,0.94491 -1.32612,3.06648 -1.09686,3.79706 0.14302,0.45576 0.13486,0.4565 -0.14954,0.0135 -0.42301,-0.65891 -0.79747,-0.3206 -0.79747,0.72048 0,0.5695 -0.15208,0.94048 -0.42913,1.04679 -0.95535,0.3666 0.25238,2.79906 1.6599,3.34316 1.20194,0.46463 2.4734,2.86658 2.4734,4.67257 0,1.01314 -0.92582,3.2533 -1.34454,3.2533 -0.15013,0 -0.0876,-0.26462 0.13891,-0.58804 0.22653,-0.32342 0.41188,-0.8592 0.41188,-1.19063 0,-0.33142 0.11906,-0.60258 0.26458,-0.60258 0.14552,0 0.26458,-0.12609 0.26458,-0.2802 0,-0.15411 -0.11216,-0.21088 -0.24925,-0.12615 -0.13709,0.0847 -0.44974,-0.26845 -0.69478,-0.78483 -0.24504,-0.51638 -0.97114,-1.45706 -1.61354,-2.09039 -0.93572,-0.9225 -1.08326,-1.18404 -0.74187,-1.31504 0.6348,-0.2436 0.38956,-1.33762 -0.32257,-1.43897 -0.40553,-0.0577 -0.60396,-0.29584 -0.66146,-0.79375 -0.0675,-0.5847 -0.23207,-0.72582 -0.92447,-0.7929 -0.96464,-0.0934 -1.55747,0.64477 -1.26295,1.57271 0.13911,0.4383 0.34607,0.52487 1.05652,0.44193 0.69513,-0.0812 0.91143,0.004 1.01436,0.39714 0.10713,0.40968 0.0263,0.46972 -0.44656,0.33153 -0.31756,-0.0928 -0.96434,-0.23924 -1.43728,-0.32538 -0.54166,-0.0986 -0.8599,-0.31148 -0.8599,-0.57506 0,-0.26361 -0.48953,0.0637 -1.32291,0.88456 -1.32116,1.3013 -1.8069,2.49909 -0.8599,2.12044 1.12756,-0.45084 3.48745,-0.46961 4.40327,-0.035 1.1209,0.5319 2.70248,2.32271 2.88236,3.26366 0.18,0.94161 -0.27677,2.13573 -0.8916,2.33087 -0.56655,0.17982 -0.6884,1.06331 -0.17632,1.27846 0.48901,0.20546 1.50824,-0.0606 2.18959,-0.57159 z m -23.67387,-0.63121 c 4.18238,-0.75764 9.41422,-3.04561 12.68688,-5.54817 6.7508,-5.16225 10.79751,-11.97756 12.05846,-20.30833 0.47964,-3.16886 0.4757,-5.18998 -0.0165,-8.46701 -1.23309,-8.2098 -5.40567,-15.181283 -12.04195,-20.119473 -3.29768,-2.45387 -8.8356,-4.73061 -12.87242,-5.29208 -3.29522,-0.45833 -8.01364,-0.34274 -11.03081,0.27021 -10.63778,2.16113 -19.85349,10.63365 -22.78037,20.943293 -1.80686,6.3645 -1.51789,13.26274 0.81524,19.46129 3.75598,9.97874 12.11242,16.92566 22.84961,18.99548 2.04581,0.39438 8.2961,0.43357 10.33187,0.0648 z m -34.35737,-29.18681 c 0.005,-0.43656 0.0647,-0.58312 0.13177,-0.32569 0.0671,0.25743 0.0627,0.61462 -0.01,0.79375 -0.0725,0.17913 -0.12736,-0.0315 -0.12197,-0.46806 z m 17.67187,28.3148 c 0.26993,-0.32524 0.20788,-0.43729 -0.36219,-0.65403 -0.78814,-0.29965 -1.48626,-0.11584 -1.48626,0.39133 0,0.67411 1.34801,0.8657 1.84845,0.2627 z m 38.6328,-1.41009 c 0,-1.90939 -2.53486,-3.34898 -4.09592,-2.32614 -1.09794,0.7194 -0.79194,2.54123 0.42684,2.54123 0.25213,0 0.53391,-0.23785 0.62618,-0.52856 0.24144,-0.76072 1.44066,-1.00515 1.89344,-0.38593 0.19564,0.26755 0.35571,0.76136 0.35571,1.09735 0,0.36662 0.15869,0.61089 0.39688,0.61089 0.28338,0 0.39687,-0.28848 0.39687,-1.00884 z m -40.56547,0.33583 c 0.0506,-0.15188 -0.44559,-0.53729 -1.10255,-0.85646 -1.3721,-0.66662 -1.49333,-0.53122 -0.47554,0.53113 0.70321,0.73399 1.39461,0.87652 1.57809,0.32533 z m 28.77766,-0.37002 c 0.25577,-0.28262 0.42305,-0.6363 0.37173,-0.78595 -0.14007,-0.40853 -1.39416,0.2969 -1.49941,0.84343 -0.11859,0.6158 0.54918,0.58176 1.12768,-0.0575 z m 14.43364,-1.7351 c 0,-0.21828 -0.11906,-0.39687 -0.26458,-0.39687 -0.14552,0 -0.26458,0.17859 -0.26458,0.39687 0,0.21828 0.11906,0.39688 0.26458,0.39688 0.14552,0 0.26458,-0.1786 0.26458,-0.39688 z m -56.86557,-0.9988 c -0.0327,-0.31636 -0.39563,-0.2551 -0.50932,0.086 -0.0582,0.17462 0.037,0.26987 0.21167,0.21166 0.17462,-0.0582 0.30857,-0.19215 0.29765,-0.29765 z m 56.60099,-0.0816 c 0,-0.23041 -0.14139,-0.3718 -0.31419,-0.31419 -0.4906,0.16353 -0.57197,0.73311 -0.10473,0.73311 0.23041,0 0.41892,-0.18851 0.41892,-0.41892 z m -55.29792,-0.7911 c 0,-0.24639 -0.18001,-0.38137 -0.44109,-0.33073 -0.66378,0.12873 -0.75492,0.747 -0.11012,0.747 0.325,0 0.55121,-0.17084 0.55121,-0.41627 z m 54.65071,-0.13595 c 0.27266,-0.44117 -0.34057,-0.94708 -0.70557,-0.58208 -0.30531,0.30531 -0.11422,0.86972 0.29445,0.86972 0.12834,0 0.31335,-0.12944 0.41112,-0.28764 z m -53.32779,-0.6511 c 0,-0.49712 -0.52203,-0.76173 -0.85193,-0.43183 -0.39511,0.39511 -0.0475,1.12995 0.44504,0.94093 0.22379,-0.0859 0.40689,-0.31497 0.40689,-0.5091 z m 52.3134,-0.87034 c -0.24309,-0.2929 -0.35473,-0.2736 -0.6351,0.10983 -0.25227,0.345 -0.26395,0.55703 -0.0452,0.82058 0.24309,0.2929 0.35473,0.2736 0.6351,-0.10984 0.25227,-0.34499 0.26396,-0.55703 0.0452,-0.82057 z m -51.01962,0.65356 c 0.22874,-0.27561 0.20227,-0.44308 -0.1111,-0.70316 -0.5057,-0.4197 -1.07001,0.0228 -0.82924,0.65027 0.19598,0.51071 0.54414,0.53029 0.94034,0.0529 z m 1.61664,-0.53597 c 0,-0.20271 -0.18833,-0.44083 -0.41852,-0.52916 -0.60706,-0.23295 -0.63982,-0.21408 -0.63982,0.36857 0,0.35277 0.17639,0.52916 0.52917,0.52916 0.29104,0 0.52917,-0.16585 0.52917,-0.36857 z m -2.38125,-2.95611 c 0,-0.0823 -0.13186,-0.39607 -0.29303,-0.69721 -0.23502,-0.43915 -0.33895,-0.47498 -0.52511,-0.18104 -0.38688,0.61089 -0.26964,1.02793 0.28897,1.02793 0.29104,0 0.52917,-0.0674 0.52917,-0.14968 z m 49.32271,-1.3434 c 0.25208,-0.65689 -0.0258,-0.74659 -0.36267,-0.11708 -0.16253,0.3037 -0.1849,0.55183 -0.0498,0.55183 0.13507,0 0.32066,-0.19564 0.41242,-0.43475 z"
       id="path2637" />
  </g>
</svg>
