<?xml version="1.0" encoding="UTF-8" standalone="no"?>
<!-- Created with Inkscape (http://www.inkscape.org/) -->

<svg
   width="198.01869mm"
   height="75.066399mm"
   viewBox="0 0 198.01868 75.066402"
   version="1.1"
   id="svg5"
   inkscape:version="1.1 (c4e8f9ed74, 2021-05-24)"
   sodipodi:docname="frame27.svg"
   xmlns:inkscape="http://www.inkscape.org/namespaces/inkscape"
   xmlns:sodipodi="http://sodipodi.sourceforge.net/DTD/sodipodi-0.dtd"
   xmlns="http://www.w3.org/2000/svg"
   xmlns:svg="http://www.w3.org/2000/svg">
  <sodipodi:namedview
     id="namedview7"
     pagecolor="#ffffff"
     bordercolor="#666666"
     borderopacity="1.0"
     inkscape:pageshadow="2"
     inkscape:pageopacity="0.0"
     inkscape:pagecheckerboard="0"
     inkscape:document-units="mm"
     showgrid="false"
     inkscape:zoom="0.94615212"
     inkscape:cx="174.91902"
     inkscape:cy="311.26073"
     inkscape:window-width="2506"
     inkscape:window-height="1403"
     inkscape:window-x="1974"
     inkscape:window-y="0"
     inkscape:window-maximized="1"
     inkscape:current-layer="layer1" />
  <defs
     id="defs2" />
  <g
     inkscape:label="Layer 1"
     inkscape:groupmode="layer"
     id="layer1"
     transform="translate(18.655739,-57.577171)">
    <path
       style="fill:#000000;stroke-width:0.264583"
       d="m -8.5120735,132.6256 c -0.1455208,-0.0418 -0.681302,-0.14714 -1.1906249,-0.23395 -1.2549456,-0.21392 -1.5167296,-0.41881 -1.7163836,-1.34335 l -0.170839,-0.79109 0.62047,0.72465 c 0.4114,0.48048 1.0228462,0.79983 1.8146242,0.94775 l 1.194154,0.22309 -0.011118,-1.52987 c -0.00623,-0.85661 -0.1566622,-1.6754 -0.3418462,-1.86056 -0.9212095,-0.9211 0.2844633,-2.24065 2.8814079,-3.15357 1.4262666,-0.50138 1.874429,-0.56115 2.38125,-0.31757 0.6145236,0.29534 0.611633,0.30033 -0.1842,0.31796 -1.3282081,0.0294 -3.9144,1.04274 -4.4158986,1.73024 -0.4439248,0.60858 -0.438771,0.67778 0.1322916,1.77642 0.6104229,1.17436 2.5337759,2.86125 3.2623357,2.86125 0.2251551,0 0.649868,-0.12871 0.9438063,-0.28602 0.2939383,-0.15731 0.6055953,-0.21486 0.6925712,-0.12788 0.2495235,0.24952 -0.295325,0.66588 -1.2174349,0.93034 -0.7656343,0.21958 -0.9602372,0.14375 -2.0487661,-0.79836 -1.3819896,-1.19611 -1.8250018,-1.31145 -1.6004288,-0.41668 0.1610265,0.64158 -0.492647,1.50042 -1.0253708,1.3472 z m 6.8130206,-0.63205 c -0.8524718,-0.5333 -1.1047242,-1.15693 -0.5953124,-1.47176 0.1455208,-0.0899 0.2645833,0.019 0.2645833,0.24217 0,0.75292 1.42871022,1.23555 3.1017899,1.04783 0.8406299,-0.0943 1.6584356,-0.2733 1.8173456,-0.39773 0.1589101,-0.12442 0.3655925,-0.14956 0.4592939,-0.0558 0.093702,0.0937 0.5466453,0.15966 1.0065419,0.14659 0.9353227,-0.0266 2.0293351,-1.03429 2.5885229,-2.38429 0.4523396,-1.09204 0.2022687,-1.70935 -1.041669,-2.5714 -0.8850603,-0.61335 -1.2159382,-0.69905 -2.1328416,-0.55243 -0.8198101,0.13109 -1.0577814,0.0909 -0.9729012,-0.16422 0.128026,-0.38483 1.3720931,-0.67253 2.2381365,-0.51759 0.3200601,0.0573 1.0642007,0.54935 1.6536455,1.09352 1.2424485,1.14702 1.4044855,2.16378 0.5233485,3.28397 -0.3016038,0.38342 -0.4760913,0.69714 -0.3877522,0.69714 0.3724063,0 -1.5036043,1.5909 -1.9172708,1.62589 -0.2496441,0.0211 -0.8706172,0.0567 -1.3799401,0.0791 -0.5093229,0.0224 -1.6999479,0.1299 -2.64583328,0.23885 -1.4846032,0.171 -1.8373859,0.12453 -2.57968742,-0.33984 z m 7.8071962,0.36026 c -0.083794,-0.0838 0.4321429,-0.93427 1.1465284,-1.88995 1.1370152,-1.52106 1.2988792,-1.89711 1.2988792,-3.01761 0,-1.44733 -0.08113,-1.3997 2.8756051,-1.68821 1.458873,-0.14235 1.760776,-0.0932 2.249829,0.36624 0.520922,0.48938 1.130583,0.55169 7.840019,0.80124 4.712925,0.17529 9.185437,0.18318 12.69913,0.0224 2.983177,-0.13651 10.186458,-0.2609 16.007291,-0.27642 15.87256,-0.0423 24.072156,-0.33958 25.473296,-0.92343 1.009052,-0.42046 1.295649,-0.43397 2.645834,-0.12471 1.656386,0.37941 8.607699,0.41324 62.236075,0.30284 25.97203,-0.0535 29.43396,-0.10827 31.00531,-0.49085 1.39261,-0.33906 1.85083,-0.36263 2.15423,-0.11084 0.63068,0.52342 0.69078,1.31024 0.15237,1.99472 -0.639,0.81235 -0.6399,1.21818 -0.003,1.21818 1.31219,0 1.01979,-3.06639 -0.79474,-8.33437 -0.36488,-1.05933 -1.59739,-7.06896 -1.6849,-8.21545 -0.0228,-0.29838 -0.12967,-0.68534 -0.23755,-0.85989 -0.10788,-0.17455 -0.0647,-0.31737 0.096,-0.31737 0.18194,0 0.24886,-0.37733 0.17734,-0.99986 -0.0632,-0.54993 0.0567,-2.60375 0.2665,-4.56407 0.39913,-3.7301 1.44798,-8.038998 3.14673,-12.927378 l 0.95516,-2.74861 -0.56506,-1.54972 c -0.4055,-1.11211 -0.49176,-1.6807 -0.30548,-2.01355 0.2191,-0.39152 0.34997,-0.25764 0.83946,0.85874 0.72775,1.65979 0.99124,1.10038 0.38681,-0.82124 -0.44847,-1.4258 -0.40514,-2.22181 0.12094,-2.22181 0.15008,0 0.27288,0.17157 0.27288,0.38126 0,0.20969 0.11907,0.45484 0.26459,0.54478 0.15979,0.0988 0.26458,-0.26184 0.26458,-0.91042 10e-6,-0.89758 -0.0869,-1.07396 -0.52916,-1.07396 -0.77663,0 -0.64483,-0.3695 0.25265,-0.70826 0.53528,-0.20204 0.83306,-0.5332 0.94435,-1.05019 0.0894,-0.4153 0.25264,-0.99322 0.36277,-1.28426 0.2911,-0.76935 -0.0613,-4.17482 -0.44528,-4.30281 -0.1764,-0.0588 -0.32074,-0.30205 -0.32074,-0.54054 0,-0.35706 0.10255,-0.33107 0.58085,0.14722 0.78018,0.78018 1.0903,3.59687 0.6029,5.47584 -0.23602,0.90989 -0.26096,1.43822 -0.0783,1.65833 0.49589,0.59752 0.40001,3.09748 -0.23122,6.02862 -0.34472,1.60073 -0.69776,3.23998 -0.78453,3.64278 -0.13079,0.60715 -0.0825,0.70346 0.28272,0.56332 0.4029,-0.1546 0.43797,0.30718 0.41103,5.41233 -0.0162,3.069738 0.0249,5.673748 0.0914,5.786668 0.0665,0.11293 0.15193,1.75313 0.18991,3.6449 0.038,1.89178 0.0818,4.02408 0.0975,4.73847 0.0756,3.45888 -1.33841,0.1037 -1.71072,-4.05919 -0.12451,-1.39225 -0.23246,-4.1387 -0.23988,-6.10323 -0.007,-1.964528 -0.11421,-3.730768 -0.23732,-3.924968 -0.38311,-0.60439 -0.5547,0.65439 -0.55306,4.057258 0.002,3.6232 0.48978,7.36015 1.31303,10.05417 2.53228,8.28665 2.90773,12.86812 1.32283,16.14209 -0.91453,1.88917 -1.81614,2.67561 -3.4953,3.04879 -1.23789,0.27512 -1.58798,0.27314 -1.93027,-0.011 -0.22997,-0.19086 -0.35454,-0.51272 -0.27683,-0.71524 0.0824,-0.21482 0.0249,-0.2963 -0.13806,-0.19557 -0.15364,0.095 -0.34603,-0.0823 -0.42752,-0.39392 l -0.14816,-0.56658 -0.38068,0.5435 c -0.20938,0.29892 -0.87883,0.80101 -1.48768,1.11574 -1.08164,0.55915 -1.40081,0.57451 -13.93928,0.67075 -7.05776,0.0542 -29.91776,0.15491 -50.8,0.22384 -20.882241,0.0689 -44.276741,0.24175 -51.987781,0.38404 -15.22749,0.28099 -47.0489333,0.35255 -47.2951257,0.10635 z m 68.0598287,-3.9716 c 1.237342,-0.0893 2.150914,-0.29577 2.43132,-0.54954 0.595436,-0.53886 2.02648,-0.51458 3.530763,0.0599 1.142614,0.43637 2.502824,0.45513 21.112495,0.29122 10.94016,-0.0964 30.84496,-0.24455 44.23287,-0.32932 23.71097,-0.15011 24.37791,-0.16815 25.74024,-0.69622 1.70571,-0.66116 1.61551,-0.91037 -0.17411,-0.48105 -1.7827,0.42767 -3.47335,0.45844 -35.22342,0.64121 -15.20693,0.0875 -33.80208,0.22641 -41.322576,0.3086 -12.071913,0.13193 -13.767231,0.10103 -14.472798,-0.26383 -0.858281,-0.44384 -4.129717,-0.5817 -4.375274,-0.18439 -0.478086,0.77357 -9.784778,0.96174 -47.565726,0.96174 H 13.34642 l -0.554657,-0.59531 c -0.640418,-0.68736 -1.194324,-0.78945 -0.959228,-0.1768 0.08833,0.23018 0.160599,0.53167 0.160599,0.66998 0,0.13831 0.267891,0.36272 0.595313,0.49868 0.617791,0.25654 57.873718,0.11254 61.579525,-0.15488 z M 177.23024,93.855042 c 0.26837,-1.22185 -0.028,-1.21279 -0.33843,0.0103 -0.14878,0.58615 -0.17351,1.00578 -0.0549,0.93251 0.11855,-0.0733 0.29558,-0.49756 0.39338,-0.94286 z M -18.02207,131.65354 c -0.713038,-1.018 -0.464269,-2.58696 0.410179,-2.58696 0.451551,0 0.680814,0.71238 0.532192,1.65365 -0.05408,0.3425 0.442025,0.21644 0.882777,-0.22431 0.457982,-0.45798 0.307922,-0.51607 2.193348,0.84914 0.549659,0.398 0.645022,0.39656 1.279727,-0.0193 0.890287,-0.58334 1.225708,-0.25012 0.41215,0.40945 -0.781183,0.63331 -1.572632,0.63609 -2.388995,0.008 -0.614112,-0.47218 -0.646576,-0.47202 -1.124479,0.006 -0.668662,0.66866 -1.692678,0.62395 -2.196899,-0.0959 z m 1.553906,-0.17563 c 0.164932,-0.26686 -0.882238,-0.60606 -1.222266,-0.39591 -0.122641,0.0758 -0.154483,0.24865 -0.07076,0.38411 0.193486,0.31307 1.101712,0.32136 1.293026,0.0118 z m 4.825188,-1.52939 c -0.09701,-0.097 -0.176389,-0.67958 -0.176389,-1.2946 0,-1.06249 0.282803,-1.43942 1.079973,-1.43942 0.392978,0 0.27836,0.69956 -0.176462,1.07703 -0.262556,0.2179 -0.378642,0.62581 -0.310408,1.09073 0.105423,0.71829 -0.05148,0.9315 -0.416714,0.56626 z m 0.749653,-2.20486 c 0.08994,-0.14552 0.03743,-0.26458 -0.116677,-0.26458 -0.154109,0 -0.280198,0.11906 -0.280198,0.26458 0,0.14552 0.0525,0.26459 0.116676,0.26459 0.06417,0 0.190262,-0.11907 0.280199,-0.26459 z m -6.416146,0.80669 c -0.618463,-0.69087 -1.124479,-1.40452 -1.124479,-1.58588 0,-0.52635 1.057806,-1.86664 1.473225,-1.86664 0.506705,0 0.47818,0.18714 -0.150308,0.98614 -0.71849,0.91341 -0.675728,1.14925 0.396875,2.18886 0.84379,0.81784 1.221315,1.62756 0.727604,1.56058 -0.109141,-0.0148 -0.704453,-0.59218 -1.322917,-1.28306 z m 15.7313307,-0.1889 c -0.077075,-0.12471 0.01647,-0.44092 0.2078765,-0.70268 0.2429698,-0.33228 0.40505942,-0.38364 0.53701132,-0.17013 0.103949,0.16819 0.010406,0.4844 -0.20787652,0.70268 -0.2182813,0.21828 -0.4599363,0.29484 -0.5370113,0.17013 z m 1.04766192,-1.32334 c -0.3804566,-0.38046 -0.1450187,-0.61957 0.4604258,-0.46761 0.3502482,0.0879 0.8860294,0.0264 1.19062488,-0.13656 0.3480022,-0.18625 0.5538102,-0.19807 0.5538102,-0.0318 0,0.57001 -1.76246148,1.07838 -2.20486088,0.63598 z m -9.74002962,-0.53963 c -0.716299,-0.11006 -1.756042,-1.01708 -1.481091,-1.29203 0.08399,-0.084 0.400765,0.0953 0.703933,0.3985 0.360327,0.36032 0.894814,0.55262 1.5434031,0.55526 0.7380237,0.003 0.8905218,0.0698 0.5953124,0.26054 -0.2182812,0.14106 -0.4564062,0.24046 -0.5291666,0.22089 -0.07276,-0.0196 -0.4473366,-0.084 -0.8323909,-0.14316 z m 8.3573274,-0.99435 c -0.2068726,-1.10273 -0.1585743,-1.06153 -3.2462897,-2.76845 -3.0118457,-1.66497 -3.5178396,-1.63545 -3.1870951,0.18593 0.1604486,0.88358 0.4678185,1.46906 1.0482003,1.99662 0.7866927,0.7151 0.9172948,1.37942 0.1452131,0.73865 -0.2859958,-0.23736 -0.5374655,-0.23547 -1.0719043,0.008 -0.5341104,0.24336 -0.7711961,0.2452 -1.0085712,0.008 -0.1706777,-0.17067 -0.5630175,-0.31032 -0.8718665,-0.31032 -0.852626,0 -2.03669,-1.92905 -1.710568,-2.78682 0.1365,-0.35902 0.356304,-0.65276 0.488454,-0.65276 0.132151,0 0.302545,-0.23812 0.378654,-0.52917 0.165079,-0.63126 1.4459772,-0.74146 1.6751984,-0.14412 0.1251194,0.32605 0.2218886,0.31592 0.6316885,-0.0661 0.8433099,-0.78624 0.8538548,-1.64483 0.044536,-3.62618 -0.7266087,-1.77887 -0.7947874,-1.85533 -1.7245929,-1.93421 -0.628055,-0.0533 -0.968077,-0.2159 -0.968077,-0.46302 0,-0.57123 1.9311229,-0.50567 2.4188622,0.0821 0.7787901,0.93854 1.6192928,3.50774 1.4821182,4.53046 -0.1323596,0.98681 -0.1269542,0.99324 1.7086117,2.03313 1.0127651,0.57375 2.1889825,1.32166 2.6138163,1.66201 0.4248337,0.34036 0.7724251,0.48919 0.7724251,0.33073 0,-0.15845 0.1357024,-0.2881 0.3015607,-0.2881 0.1658585,0 0.4635941,-0.20836 0.6616347,-0.46302 0.33876042,-0.43561 0.38998082,-0.42778 0.86532912,0.13229 0.2778902,0.32742 0.6523844,0.59531 0.8322087,0.59531 0.69516828,0 -1.126196,-1.30474 -2.58304872,-1.85037 -1.1662012,-0.43678 -1.6427957,-0.50565 -1.9923235,-0.28791 -0.7615282,0.47439 -1.1174375,0.33001 -0.5989026,-0.24297 0.263389,-0.29104 0.7607064,-0.52916 1.10515,-0.52916 0.7554901,0 4.05422482,1.45707 4.05422482,1.79078 0,0.13005 0.3264641,0.40541 0.72547578,0.6119 0.3990118,0.2065 0.9957001,0.6622 1.3259739,1.01269 0.5541256,0.58803 0.5677942,0.67338 0.1770026,1.1052 -0.5459037,0.60322 -2.28486968,0.90112 -3.00632008,0.51501 -0.4425977,-0.23687 -0.58415582,-0.21445 -0.70957342,0.11238 -0.2608368,0.67973 -0.5953714,0.46093 -0.7772053,-0.50833 z m -6.8150293,-2.04341 c -0.084462,-0.21107 -0.1471567,-0.14837 -0.1598525,0.15985 -0.011488,0.27892 0.051045,0.43519 0.1389644,0.34727 0.087919,-0.0879 0.097319,-0.31612 0.020888,-0.50712 z m 12.0656926,0.94771 c -0.5181592,-0.56031 -0.5319176,-0.63352 -0.1190625,-0.63352 0.548895,0 1.1017956,0.49126 1.1017956,0.97896 0,0.49136 -0.3094964,0.38257 -0.9827331,-0.34544 z m -20.6302057,-0.56737 c -0.588677,-1.39308 -0.754943,-3.14706 -0.34513,-3.64085 0.275119,-0.3315 0.250963,-0.49713 -0.134639,-0.92321 -0.342254,-0.37819 -0.393526,-0.61128 -0.188737,-0.85803 0.199129,-0.23994 0.191441,-0.67496 -0.02635,-1.49091 -0.301749,-1.1305 -0.278906,-1.20739 1.217462,-4.09794 1.210826,-2.33897 1.522723,-3.19111 1.514022,-4.13646 -0.01298,-1.40991 -0.150509,-1.64266 -1.174543,-1.98781 -0.5114,-0.17236 -0.840933,-0.50851 -0.969305,-0.98875 -0.117846,-0.44086 -0.08948,-0.7276 0.07198,-0.7276 0.14656,0 0.329084,0.23942 0.405609,0.53206 0.144824,0.5538 1.131144,0.95019 1.761992,0.70811 0.547797,-0.21021 0.708862,-1.79646 0.255174,-2.51308 -0.212906,-0.33629 -0.336134,-0.75301 -0.273841,-0.92604 0.06229,-0.17303 0.337686,0.0796 0.611983,0.56149 1.206623,2.11961 1.439598,2.43121 1.817751,2.43121 0.28392,0 0.400763,-0.27836 0.400763,-0.95473 0,-0.87517 0.05282,-0.94147 0.633874,-0.79563 0.784014,0.19677 0.953626,-0.17475 0.953626,-2.08884 0,-0.95777 -0.139994,-1.55467 -0.433457,-1.84813 -0.367226,-0.367228 -0.386884,-0.588908 -0.128656,-1.450788 0.167641,-0.55954 0.407578,-1.53385 0.533194,-2.16513 0.125616,-0.63129 0.303928,-1.32649 0.39625,-1.5449 0.235448,-0.55699 -1.189351,-1.15205 -2.217671,-0.9262 -0.437521,0.0961 -0.795493,0.28433 -0.795493,0.41829 0,0.13395 -0.119062,0.24356 -0.264583,0.24356 -0.145521,0 -0.264584,-0.39023 -0.264584,-0.86717 0,-0.47695 -0.185491,-1.132 -0.412203,-1.45568 -0.226711,-0.32367 -0.331759,-0.71866 -0.233438,-0.87774 0.218229,-0.35311 1.170545,1.01013 1.173065,1.67923 0.0021,0.54691 -0.03505,0.54056 1.016142,0.17411 0.706327,-0.24623 0.969468,-0.20197 1.780981,0.29958 0.7599174,0.46965 0.9172665,0.70164 0.7792021,1.14881 -0.095149,0.30817 -0.3231881,1.2981 -0.5067511,2.19983 -0.183564,0.90174 -0.468355,1.80171 -0.632869,1.99993 -0.229874,0.27698 -0.17884,0.4634 0.220461,0.80529 0.431129,0.369148 0.519577,0.784568 0.519577,2.440368 0,1.82634 -0.05046,2.01456 -0.595313,2.22048 -0.327421,0.12375 -0.684609,0.17241 -0.793749,0.10815 -0.457259,-0.26924 -0.148333,0.24803 0.470007,0.78698 0.490709,0.4277 0.735662,1.00195 0.921239,2.15969 0.4056928,2.53094 0.102507,3.23327 -3.375621,7.81951 -0.472943,0.62362 -0.859896,1.36194 -0.859896,1.64072 0,0.27877 -0.118973,0.72916 -0.264384,1.00087 -0.209538,0.39152 -0.15956,0.52727 0.240913,0.65438 0.582481,0.18487 1.474245,1.42322 1.212728,1.68405 -0.09677,0.0965 -0.454296,-0.14792 -0.794508,-0.54318 -0.369861,-0.42971 -1.10955,-0.84229 -1.83971,-1.02615 -1.322582,-0.33303 -1.874983,-0.13504 -1.134311,0.40655 0.493548,0.36089 0.635844,1.20597 0.203063,1.20597 -0.50768,0 -0.578514,1.31756 -0.141559,2.63311 0.243996,0.7346 0.605627,1.33564 0.803625,1.33564 0.197998,0 0.433581,0.11906 0.523518,0.26458 0.09306,0.15058 -0.134045,0.26459 -0.527053,0.26459 -0.547071,0 -0.777699,-0.20618 -1.109845,-0.99219 z m 1.826028,-6.61458 c -0.09173,-1.01767 0.286968,-1.73497 2.339767,-4.43177 1.686438,-2.21551 2.237765,-4.33471 1.578693,-6.0682 -0.417398,-1.09784 -0.774074,-0.79704 -0.470951,0.39717 0.464661,1.83063 -0.121768,3.18716 -2.966294,6.86165 -1.200983,1.5514 -1.327252,1.84285 -1.289608,2.97656 0.03202,0.96423 0.141371,1.25677 0.46978,1.25677 0.334146,0 0.408429,-0.21766 0.338613,-0.99218 z m -1.644338,-1.24116 c 0,-0.0642 -0.119063,-0.19026 -0.264584,-0.2802 -0.145521,-0.0899 -0.264583,-0.0374 -0.264583,0.11668 0,0.15411 0.119062,0.2802 0.264583,0.2802 0.145521,0 0.264584,-0.0525 0.264584,-0.11668 z m 2.982177,8.49638 c 0.05609,-0.17045 0.373759,-0.34969 0.705934,-0.39831 0.731982,-0.10713 0.516483,0.36188 -0.259514,0.56481 -0.349502,0.0914 -0.511412,0.031 -0.44642,-0.1665 z m 186.728054,0.3178 c 0.002,-0.0542 0.17556,-0.57479 0.38526,-1.15688 0.3804,-1.0559 0.3813,-1.05643 0.39289,-0.23083 0.006,0.45512 -0.16698,0.97572 -0.38526,1.15687 -0.21828,0.18116 -0.39508,0.28504 -0.39289,0.23084 z m -184.81544,-0.49542 c 0.08994,-0.14552 0.216026,-0.26458 0.280198,-0.26458 0.06417,0 0.116677,0.11906 0.116677,0.26458 0,0.14552 -0.126089,0.26458 -0.280198,0.26458 -0.154109,0 -0.206614,-0.11906 -0.116677,-0.26458 z m -1.695226,-6.3959 c 0.169272,-0.31629 0.580942,-0.84824 0.914823,-1.18212 0.333881,-0.33388 0.683848,-0.84901 0.777705,-1.14473 0.187967,-0.59223 0.664156,-0.73539 0.664156,-0.19966 0,0.41157 -0.49919,1.14279 -1.542992,2.26018 -0.912169,0.97648 -1.253555,1.08822 -0.813692,0.26633 z m -3.734029,-8.95983 c -0.254891,-0.47627 0.394054,-1.31302 1.018318,-1.31302 0.513759,0 0.348198,0.45743 -0.219271,0.60583 -0.53695,0.14041 -0.749724,0.71709 -0.264583,0.71709 0.14552,0 0.264583,-0.11907 0.264583,-0.26459 0,-0.14552 0.187324,-0.26458 0.416275,-0.26458 0.246422,0 0.38137,0.18003 0.330729,0.4412 -0.114715,0.59164 -1.240766,0.6485 -1.546051,0.0781 z m 0.0212,-4.99241 c -0.708375,-1.10391 -0.828058,-1.52948 -0.799892,-2.84427 0.01822,-0.85037 -0.05157,-2.306888 -0.15508,-3.236698 -0.123618,-1.11042 -0.09705,-1.63422 0.07743,-1.52639 0.157154,0.0971 0.338031,-0.38157 0.442907,-1.17216 0.139855,-1.05428 0.398209,-1.57602 1.224043,-2.47195 0.575725,-0.62458 1.046772,-1.27112 1.046772,-1.43675 0,-0.16563 0.238125,-0.30114 0.529167,-0.30114 0.563737,0 0.757902,0.52445 0.198437,0.53599 -0.762986,0.0157 -2.593812,3.59186 -2.570166,5.02026 0.0052,0.31141 0.06465,0.29716 0.276255,-0.0661 0.610172,-1.0476 1.453513,-0.23869 1.125309,1.07936 -0.158333,0.63586 -0.131825,0.67024 0.264819,0.34346 0.379393,-0.31257 0.440763,-0.30336 0.440763,0.0661 0,0.27874 -0.226487,0.42927 -0.645844,0.42927 -0.704154,0 -1.110952,-0.3933 -0.681389,-0.65879 0.147895,-0.0914 0.268899,-0.4228 0.268899,-0.73643 0,-0.52514 -0.03383,-0.53642 -0.427664,-0.14259 -0.531172,0.53117 -0.878712,2.31481 -0.598586,3.07207 0.118206,0.319538 0.09918,0.633568 -0.04372,0.721898 -0.468956,0.28983 -0.254884,1.83733 0.401614,2.90322 l 0.651845,1.05833 0.04941,-1.05833 c 0.02717,-0.58209 0.02638,-1.32623 -0.0017,-1.65365 -0.03952,-0.45979 0.08664,-0.59439 0.554163,-0.59126 0.33293,0.002 0.486264,0.0915 0.340743,0.19844 -0.14552,0.10691 -0.307226,0.90876 -0.359345,1.78188 -0.147347,2.46844 -0.397137,2.57497 -1.60913,0.68624 z m 2.646515,-2.47217 c 0.0059,-0.32742 -0.0436,-1.25016 -0.109908,-2.050518 -0.129326,-1.56099 0.271028,-2.38125 1.162238,-2.38125 0.606036,0 1.316769,1.11653 1.140298,1.79136 -0.07706,0.29468 -0.0076,0.78336 0.15432,1.08594 0.240214,0.448838 0.195873,0.648708 -0.240799,1.085378 -0.294376,0.29438 -0.53523,0.6543 -0.53523,0.79982 0,0.14552 -0.355854,0.26458 -0.790786,0.26458 -0.646842,0 -0.788847,-0.10836 -0.780133,-0.59531 z m 1.046779,-0.0722 c 0.279608,-0.33691 0.263239,-0.37563 -0.09989,-0.23628 -0.238865,0.0917 -0.434299,0.27298 -0.434299,0.40293 0,0.34024 0.15316,0.29246 0.534193,-0.16665 z m 0.921015,-0.91999 c 0.08994,-0.14552 0.03743,-0.26458 -0.116677,-0.26458 -0.154109,0 -0.280198,0.11906 -0.280198,0.26458 0,0.14552 0.05251,0.26458 0.116677,0.26458 0.06417,0 0.190261,-0.11906 0.280198,-0.26458 z m -1.432753,-1.086068 c -0.139423,-0.34855 -0.261043,-0.49463 -0.270268,-0.32463 -0.02241,0.41291 0.285811,1.196308 0.418475,1.063648 0.05791,-0.0579 -0.0088,-0.390468 -0.148207,-0.739018 z m -2.305885,1.019918 c 0.08775,-0.32742 0.161163,-0.887008 0.16315,-1.243538 0.0027,-0.48027 0.08076,-0.57108 0.30135,-0.35049 0.360039,0.36004 0.07546,2.189348 -0.340584,2.189348 -0.164833,0 -0.21669,-0.24913 -0.123916,-0.59532 z m 1.732707,-3.571868 c 0.136131,-0.25466 0.33416,-0.70115 0.440063,-0.99219 0.166756,-0.45827 0.207032,-0.46899 0.300628,-0.08 0.125938,0.52339 -0.355639,1.53522 -0.730686,1.53522 -0.163155,0 -0.166821,-0.16966 -0.01,-0.46302 z m -2.52161,-4.612 c -0.10623,-0.17188 -0.24089,-4.93866 -0.299243,-10.59284 -0.08946,-8.66801 -0.04088,-10.56705 0.309726,-12.10856 0.469077,-2.06237 1.757095,-4.43873 3.169385,-5.847424 0.818722,-0.816638 7.0112243,-4.476157 7.5743865,-4.476157 0.1094295,0 0.2739337,0.19537 0.3655644,0.434156 0.1815177,0.473027 -0.3251469,1.403525 -1.3843637,2.542406 -0.7684169,0.82621 -0.4397663,0.97732 0.5110917,0.234993 1.2799266,-0.999227 3.5951762,-2.137287 5.5257854,-2.716198 L 0.21918022,59.116905 32.366054,59.043845 c 17.680781,-0.04019 32.563593,-0.131873 33.072916,-0.203751 0.509323,-0.07188 9.677135,-0.137376 20.372916,-0.145552 10.695781,-0.0082 22.185304,-0.128735 25.532284,-0.267907 7.69635,-0.320026 29.79242,-0.66055 37.13259,-0.572254 3.02612,0.0364 3.27607,0.07814 3.40429,0.568454 0.1575,0.602297 0.30649,0.627407 1.63347,0.2753 0.5262,-0.139627 1.43299,-0.335843 2.01507,-0.436036 0.98714,-0.169917 1.01384,-0.196805 0.39687,-0.399743 -0.52668,-0.173243 -0.44582,-0.200157 0.39688,-0.132098 0.58208,0.04701 1.29646,-0.0014 1.5875,-0.107625 0.45516,-0.166093 3.12005,0.138146 5.82083,0.66454 1.29246,0.251905 2.49491,0.685207 2.66493,0.960305 0.2948,0.476998 -0.47458,1.02742 -1.44055,1.03058 -1.60991,0.0053 -3.63227,0.680913 -6.64163,2.218874 -1.57967,0.807304 -3.74306,1.709175 -4.80753,2.004156 -4.49532,1.245714 -9.67723,0.200338 -14.56987,-2.939262 -1.41251,-0.906402 -1.49789,-1.331071 -0.31894,-1.586333 0.596,-0.129043 0.45535,-0.174268 -0.61714,-0.198437 -1.30359,-0.02938 -1.38906,0.0083 -1.38906,0.612324 0,0.784802 -0.54556,0.992085 -2.44026,0.927162 -0.76791,-0.02631 -5.92057,0.02874 -11.45036,0.122336 -5.52979,0.0936 -19.44596,0.289342 -30.924809,0.434986 -11.478855,0.145643 -20.971345,0.327043 -21.094424,0.40311 -0.123079,0.07607 -15.555819,0.198726 -34.294981,0.272574 -28.1956711,0.111115 -34.4657884,0.200924 -36.35935518,0.520784 -2.36174962,0.398945 -3.43565442,0.760811 -7.50142702,2.5277 -3.4226308,1.48739 -3.9813558,1.34794 -2.6209028,-0.65414 1.0576411,-1.556457 0.07292,-0.855538 -2.326223,1.65578 -1.221973,1.27912 -2.16965,2.53084 -2.369041,3.12912 -0.235164,0.70561 -0.358807,3.84151 -0.422884,10.72541 l -0.09055,9.72825 -0.800297,1.18581 c -0.828939,1.22826 -1.124715,1.40592 -1.453891,0.8733 z M 144.15251,60.274914 c 0.55681,-0.141684 0.16191,-0.200922 -1.32292,-0.198449 -1.5751,0.0026 -1.87973,0.0534 -1.19063,0.198449 1.17918,0.248205 1.53812,0.248205 2.51355,0 z M -14.023037,91.281202 c -0.384904,-0.42531 -0.436573,-1.62137 -0.460051,-10.64948 -0.01455,-5.59369 0.05746,-10.50373 0.160018,-10.91119 0.123335,-0.49002 0.332391,-0.71273 0.617481,-0.65781 0.390159,0.0752 0.431628,1.15487 0.437479,11.39032 0.0036,6.21901 -0.06729,11.30729 -0.157431,11.30729 -0.09014,0 -0.359014,-0.21561 -0.597496,-0.47913 z m 185.010507,-4.0611 c -0.0111,-0.0495 -0.061,-0.30455 -0.11091,-0.5668 -0.0499,-0.26226 -0.2997,-0.79586 -0.55519,-1.18579 -0.30365,-0.46343 -0.44313,-1.12236 -0.40273,-1.90265 l 0.0618,-1.19369 -0.74313,0.69207 c -1.08996,1.01507 -2.74175,1.19873 -4.06954,0.45247 -1.12764,-0.63377 -1.16094,-0.68945 -0.76559,-1.28038 0.22352,-0.33409 0.35195,-0.28177 0.81177,0.33073 0.447,0.59541 0.75206,0.7276 1.67912,0.7276 0.71407,0 1.37015,-0.18664 1.77471,-0.50487 0.35301,-0.27767 0.87508,-0.54556 1.16016,-0.59531 0.44823,-0.0782 0.52948,0.0856 0.60079,1.21105 0.0454,0.71583 0.25372,1.54599 0.46302,1.84481 0.20931,0.29882 0.38056,0.75495 0.38056,1.01361 0,0.50738 0.27324,0.56117 1.55175,0.30547 0.62027,-0.12406 1.02117,-0.48503 1.62057,-1.45919 0.43804,-0.71189 0.79643,-1.59022 0.79643,-1.95183 0,-0.65793 0.36006,-0.88056 0.65426,-0.40455 0.23115,0.37401 -0.50212,1.96324 -1.49899,3.2488 -0.7807,1.00677 -1.0106,1.13817 -2.13184,1.21845 -0.69122,0.0495 -1.26588,0.0495 -1.27701,0 z m 3.31085,-5.54093 c -0.0991,-0.16037 -0.61216,-0.48207 -1.14009,-0.71489 -0.82535,-0.36397 -0.87896,-0.43661 -0.38249,-0.51822 0.74415,-0.12234 2.20072,0.62862 2.20072,1.13461 0,0.45738 -0.41874,0.51821 -0.67814,0.0985 z m -10.02565,-0.4649 c -0.20867,-0.65746 0.0125,-1.16551 0.69232,-1.59003 0.52355,-0.32697 0.54867,-0.30864 0.3704,0.27027 -0.10518,0.34157 -0.25503,0.88892 -0.33301,1.21634 -0.17213,0.72278 -0.51759,0.77174 -0.72971,0.10342 z m 3.27258,-0.46171 c -0.19373,-0.23344 -0.62503,-0.52815 -0.95843,-0.65491 -0.33341,-0.12676 -0.60619,-0.41201 -0.60619,-0.6339 0,-0.22188 -0.11821,-0.40342 -0.26268,-0.40342 -0.14447,0 -0.24344,-0.49093 -0.21993,-1.09096 0.0572,-1.46005 1.01834,-2.46417 2.4161,-2.52415 0.80318,-0.0345 1.05788,0.0728 1.25614,0.52917 0.13678,0.31482 0.39693,0.78035 0.57812,1.0345 0.24401,0.34228 0.25407,0.58278 0.0388,0.92745 -0.18428,0.29506 -0.20111,0.61004 -0.046,0.86081 0.1611,0.26045 0.10169,0.73421 -0.17403,1.38766 -0.4621,1.09519 -1.37211,1.35072 -2.02192,0.56775 z m 2.78811,-3.01599 c -0.007,-0.58162 0.0727,-1.05749 0.17742,-1.05749 0.26799,0 0.57117,1.51791 0.36863,1.84563 -0.33278,0.53845 -0.5334,0.24889 -0.54605,-0.78814 z m -7.57571,-0.14097 c -0.39019,-0.21187 -0.79163,-0.64419 -0.89209,-0.96071 -0.32822,-1.03413 -0.2998,-2.98342 0.054,-3.70276 0.46216,-0.93972 1.60458,-1.8093 2.37698,-1.8093 0.79423,0 0.81396,0.43644 0.0305,0.67404 -0.32742,0.0993 -0.8632,0.42572 -1.19062,0.72541 -0.50683,0.46388 -0.59531,0.81532 -0.59531,2.36434 v 1.81946 l 0.92604,0.38693 c 0.97953,0.40927 1.24079,0.91619 0.46302,0.89839 -0.25466,-0.006 -0.78227,-0.18394 -1.17246,-0.3958 z m 9.42878,-1.15808 c 0.30954,-0.59858 0.68043,-0.83388 1.66045,-1.05345 0.69403,-0.1555 1.53154,-0.3588 1.86112,-0.45179 0.47932,-0.13523 0.5662,-0.083 0.43414,0.2612 -0.0948,0.24702 -0.60351,0.50035 -1.19456,0.59486 -0.60082,0.0961 -1.02945,0.31191 -1.02945,0.51837 0,0.43071 -0.82353,0.90154 -1.5769,0.90154 -0.52599,0 -0.53365,-0.0381 -0.1548,-0.77073 z m 1.14196,-0.23818 c 0.0644,-0.19334 -0.0565,-0.25247 -0.31419,-0.15359 -0.23044,0.0884 -0.41899,0.27702 -0.41899,0.4191 0,0.34777 0.60134,0.13 0.73318,-0.26551 z m 4.60603,-1.71194 c -0.15501,-0.18678 -0.28111,-1.2881 -0.28022,-2.44739 0.003,-3.39011 -0.0109,-3.49835 -0.45824,-3.67 -0.32708,-0.12551 -0.38169,-0.0551 -0.23456,0.30242 0.41868,1.01745 0.40395,1.28409 -0.10086,1.82594 -0.52379,0.56222 -0.52375,0.56483 0.0178,1.14617 0.42611,0.45737 0.51234,0.80997 0.40104,1.63982 -0.14185,1.05759 -0.33855,1.47857 -0.57864,1.23848 -0.0703,-0.0703 -0.0148,-0.5217 0.1233,-1.00318 0.22998,-0.80189 0.16947,-0.96151 -0.72051,-1.9007 -1.06698,-1.12601 -1.92085,-1.34689 -1.92085,-0.49689 0,0.52405 -1.81419,2.77268 -2.0482,2.53867 -0.067,-0.0671 0.18778,-0.52792 0.56627,-1.02415 0.3785,-0.49624 0.68818,-1.08618 0.68818,-1.31099 0,-0.2248 0.22603,-0.68787 0.50229,-1.02903 0.49173,-0.60727 0.52188,-0.61096 1.43455,-0.17574 0.84204,0.40154 0.96532,0.40471 1.27406,0.0327 0.28435,-0.34262 0.24311,-0.59207 -0.24532,-1.48377 -0.5763,-1.05213 -0.58945,-1.62664 -0.0243,-1.06148 0.20579,0.20579 0.43449,0.13877 0.81087,-0.2376 0.49894,-0.49894 0.54873,-0.50207 1.03187,-0.0648 0.45216,0.4092 0.50765,0.84534 0.50765,3.99028 0,3.38758 -0.12822,3.93591 -0.74622,3.19127 z m -6.8771,-0.20611 c 0.0637,-0.19099 0.27203,-0.39935 0.46302,-0.46302 0.19844,-0.0661 0.29766,0.0331 0.23151,0.23151 -0.0637,0.191 -0.27202,0.39936 -0.46302,0.46302 -0.19843,0.0662 -0.29765,-0.0331 -0.23151,-0.23151 z m -3.98366,-0.8677 c -0.16208,-0.19529 -0.21738,-0.43238 -0.12289,-0.52687 0.19857,-0.19857 0.88194,0.3049 0.88194,0.64976 0,0.34834 -0.42508,0.27952 -0.75905,-0.12289 z m -1.31149,-1.58021 c -0.31641,-0.3368 -0.57529,-0.82099 -0.57529,-1.07599 0,-0.4724 1.09126,-2.12015 1.83699,-2.77378 0.30793,-0.2699 0.32844,-0.3924 0.0812,-0.48507 -0.47832,-0.1793 -0.40715,-0.70511 0.19991,-1.47686 0.38358,-0.48765 0.43857,-0.70688 0.19844,-0.79107 -0.21812,-0.0765 -0.10584,-0.30269 0.32695,-0.65876 0.63066,-0.518845 0.63924,-0.564309 0.19844,-1.051387 -0.56245,-0.621499 -0.583,-0.864301 -0.0731,-0.864301 0.39406,0 0.99984,0.86486 0.87277,1.246053 -0.1086,0.32581 0.14836,0.39345 0.69615,0.183245 0.33318,-0.127854 0.60914,-0.04486 0.82292,0.247504 0.1769,0.241926 0.63593,0.439865 1.02007,0.439865 0.38414,0 0.69844,0.119061 0.69844,0.264581 0,0.14552 -0.13295,0.26459 -0.29545,0.26459 -0.17054,0 -0.23357,0.23659 -0.14909,0.55965 0.13686,0.52332 -0.1384,1.25602 -0.73908,1.96739 -0.14756,0.17476 -0.71257,0.2591 -1.32291,0.19748 -1.39384,-0.14072 -2.67621,0.55333 -3.39164,1.83564 l -0.55139,0.9883 0.57894,0.61626 c 0.31843,0.33894 0.57895,0.69788 0.57895,0.79764 0,0.36007 -0.44843,0.16914 -1.01221,-0.43098 z m 4.58409,-4.41472 c 0.0899,-0.14552 0.0374,-0.26458 -0.11668,-0.26458 -0.15411,0 -0.2802,0.11906 -0.2802,0.26458 0,0.14552 0.0525,0.26459 0.11668,0.26459 0.0642,0 0.19026,-0.11907 0.2802,-0.26459 z m -0.73312,-0.15985 c -0.0879,-0.0879 -0.31612,-0.0973 -0.50712,-0.0209 -0.21107,0.0845 -0.14837,0.14716 0.15985,0.15985 0.27892,0.0115 0.43519,-0.051 0.34727,-0.13896 z m 3.23017,2.38806 c -0.20922,-0.28411 -0.70781,-0.66101 -1.10799,-0.83755 -0.40018,-0.17654 -0.72761,-0.44259 -0.72761,-0.59124 0,-0.34757 0.0206,-0.3452 1.16983,0.13498 0.97691,0.40818 1.35224,0.89212 1.15374,1.4876 -0.0709,0.21275 -0.23726,0.14669 -0.48797,-0.19379 z m -8.55932,-0.63668 c -0.88445,-0.41208 -1.12331,-0.71674 -1.64042,-2.09228 l -0.60523,-1.60996 0.5181,-1.505887 c 0.28495,-0.828236 0.71497,-1.723428 0.9556,-1.989316 0.54026,-0.596987 1.86154,-1.273252 2.48766,-1.273252 0.25682,0 0.72454,-0.416807 1.03939,-0.926238 0.89763,-1.45241 1.46581,-1.719595 3.65676,-1.719595 1.8421,0 1.99472,0.04612 2.71925,0.821731 0.42219,0.451952 0.76761,1.034014 0.76761,1.293471 0,0.546591 1.41484,0.91504 2.48364,0.646786 0.57774,-0.145002 0.71649,-0.03903 1.07624,0.821995 0.71786,1.718072 0.78426,3.565055 0.16365,4.551955 -0.37657,0.59882 -0.74276,0.8599 -1.2061,0.8599 -0.86687,0 -0.83983,-0.16077 0.10966,-0.65177 0.95469,-0.49369 1.17969,-1.13859 0.85273,-2.44408 -0.13846,-0.552858 -0.32549,-1.332618 -0.41562,-1.7328 -0.15508,-0.688603 -0.24402,-0.727605 -1.65934,-0.727605 -1.02228,0 -1.6491,0.139021 -1.98096,0.439351 -0.65163,0.589717 -0.95572,0.23003 -0.36105,-0.427067 0.50026,-0.552785 0.43387,-1.377898 -0.17584,-2.185214 -0.37162,-0.49207 -2.01897,-0.638336 -3.64951,-0.324033 -1.04064,0.200594 -2.05716,1.006916 -2.40509,1.907753 -0.17568,0.454865 -0.37838,0.566284 -0.83182,0.457242 -1.93819,-0.466079 -4.02961,3.320107 -2.96317,5.364363 0.20679,0.3964 0.37672,0.86714 0.37762,1.04608 7.9e-4,0.17895 0.48208,0.57046 1.06931,0.87004 0.58722,0.29958 0.99691,0.65919 0.91042,0.79913 -0.0865,0.13994 -0.17999,0.2448 -0.20778,0.23302 -0.0278,-0.0118 -0.51636,-0.23845 -1.08571,-0.50372 z m 9.4643,-1.50992 c -0.41069,-0.0804 -0.52967,-0.25256 -0.43216,-0.62543 0.10746,-0.41091 0.36808,-0.51451 1.29432,-0.51451 1.33092,0 1.59921,0.50891 0.29987,0.56881 -0.80035,0.0369 -0.80951,0.0473 -0.13229,0.14986 0.40018,0.0606 0.7276,0.22138 0.7276,0.35724 0,0.24718 -0.69258,0.27242 -1.75734,0.064 z m -1.68224,-1.00765 c 0,-0.57081 0.10681,-0.89125 0.26458,-0.79375 0.14552,0.0899 0.26458,0.44712 0.26458,0.79375 0,0.34663 -0.11906,0.70381 -0.26458,0.79375 -0.15777,0.0975 -0.26458,-0.22294 -0.26458,-0.79375 z m -190.058974,-0.34809 c -1.033315,-1.1418 -0.760225,-3.340927 0.62477,-5.0311 1.387063,-1.692697 3.510512,-2.285928 4.953477,-1.383859 1.06511,0.665853 1.101777,1.395406 0.105777,2.104621 -0.537731,0.382899 -1.012231,0.498318 -1.653646,0.402241 -0.634307,-0.09501 -1.162678,0.02971 -1.792036,0.423023 -0.850956,0.531793 -0.886005,0.615454 -0.752831,1.796973 0.217998,1.934071 -0.512087,2.763721 -1.485511,1.688101 z M 171.80146,63.200946 c 0,-0.29963 0.11907,-0.544782 0.26459,-0.544782 0.14552,0 0.26458,0.171567 0.26458,0.38126 0,0.209693 -0.11906,0.454845 -0.26458,0.544782 -0.14552,0.08994 -0.26459,-0.08163 -0.26459,-0.38126 z m -17.24752,-5.488023 c 0.19099,-0.07643 0.4192,-0.06703 0.50712,0.02089 0.0879,0.08792 -0.0684,0.150453 -0.34727,0.138965 -0.30823,-0.0127 -0.37092,-0.07539 -0.15985,-0.159853 z"
       id="path2406" />
  </g>
</svg>
