<?xml version="1.0" encoding="UTF-8" standalone="no"?>
<!-- Created with Inkscape (http://www.inkscape.org/) -->

<svg
   width="161.66046mm"
   height="105.44179mm"
   viewBox="0 0 161.66046 105.44181"
   version="1.1"
   id="svg997"
   inkscape:version="1.1 (c4e8f9ed74, 2021-05-24)"
   sodipodi:docname="frame23.svg"
   xmlns:inkscape="http://www.inkscape.org/namespaces/inkscape"
   xmlns:sodipodi="http://sodipodi.sourceforge.net/DTD/sodipodi-0.dtd"
   xmlns="http://www.w3.org/2000/svg"
   xmlns:svg="http://www.w3.org/2000/svg">
  <sodipodi:namedview
     id="namedview999"
     pagecolor="#ffffff"
     bordercolor="#666666"
     borderopacity="1.0"
     inkscape:pageshadow="2"
     inkscape:pageopacity="0.0"
     inkscape:pagecheckerboard="0"
     inkscape:document-units="mm"
     showgrid="false"
     inkscape:zoom="1.5385816"
     inkscape:cx="366.24642"
     inkscape:cy="168.66184"
     inkscape:window-width="2506"
     inkscape:window-height="1403"
     inkscape:window-x="1974"
     inkscape:window-y="0"
     inkscape:window-maximized="1"
     inkscape:current-layer="layer1" />
  <defs
     id="defs994" />
  <g
     inkscape:label="Layer 1"
     inkscape:groupmode="layer"
     id="layer1"
     transform="translate(-41.683889,-133.94755)">
    <path
       style="fill:#000000;stroke-width:0.264583"
       d="m 41.683889,239.12492 c 0,-0.25637 1.239229,-0.3117 6.482292,-0.28943 l 2.38125,0.0101 -0.859896,-0.43751 c -0.472943,-0.24064 -0.87363,-0.62428 -0.890416,-0.85254 -0.01678,-0.22826 -0.04655,-0.59361 -0.06614,-0.81189 -0.0196,-0.21828 0.03586,-0.45641 0.123232,-0.52917 0.08737,-0.0728 0.551164,-0.84666 1.030648,-1.71979 0.693045,-1.26201 0.756426,-1.48508 0.309126,-1.08796 -0.724615,0.64332 -1.366341,0.19121 -1.366341,-0.96262 0,-0.77051 -0.03077,-0.79028 -0.992187,-0.63745 -1.111165,0.17663 -1.437601,0.0376 -1.87862,-0.8003 -0.475461,-0.9033 -0.366208,-2.23238 0.236217,-2.87363 0.456646,-0.48608 0.493437,-0.67833 0.237363,-1.24035 -0.222331,-0.48797 -0.225325,-0.81035 -0.01124,-1.21036 0.497872,-0.93029 0.363287,-2.61662 -0.242707,-3.04108 -0.432123,-0.30267 -0.486017,-0.4956 -0.281354,-1.00719 0.233006,-0.58243 0.254491,-0.58893 0.269927,-0.0816 0.02248,0.73901 0.288764,0.96264 0.720031,0.60472 0.46743,-0.38793 0.454589,-1.79754 -0.02119,-2.32572 -0.597379,-0.66319 -0.770031,-1.73513 -0.337311,-2.09425 0.297343,-0.24678 0.451258,-0.22703 0.715891,0.0918 0.282944,0.34093 0.267327,0.37942 -0.09719,0.23954 -0.342327,-0.13136 -0.43036,-0.007 -0.415702,0.58926 0.01626,0.66103 0.04714,0.68949 0.245987,0.22674 l 0.22739,-0.52917 0.02265,0.52917 c 0.01832,0.42807 0.06928,0.45544 0.26676,0.14324 0.142705,-0.2256 0.249852,-8.02929 0.257929,-18.78541 0.01685,-22.44787 0.291414,-65.64466 0.419921,-66.06689 0.07057,-0.23187 9.791778,-0.27597 39.732204,-0.18026 21.801327,0.0697 43.627367,0.18015 48.502317,0.24545 4.87494,0.0653 19.57916,0.16492 32.67604,0.22137 l 23.8125,0.10265 0.0669,42.47236 0.067,42.47236 0.59451,0.0844 c 0.42539,0.0604 0.61832,0.29141 0.67822,0.81205 0.046,0.40018 0.19488,0.7276 0.33073,0.7276 0.42239,0 0.2714,0.68967 -0.25536,1.16637 -0.53118,0.48072 -1.27113,3.51299 -1.13088,4.63433 0.0441,0.35273 0.25105,0.88524 0.45986,1.18336 0.2088,0.29811 0.37465,0.78341 0.36855,1.07846 -0.009,0.41146 -0.1297,0.32069 -0.52018,-0.3896 l -0.50909,-0.92605 0.15161,1.20089 c 0.15996,1.26705 -0.0845,1.69498 -1.0737,1.8795 -0.85196,0.15892 -0.81863,0.75607 0.0422,0.75607 1.29633,0 2.44942,-1.61504 2.44942,-3.43071 0,-0.87712 -0.11373,-1.12997 -0.59531,-1.32354 l -0.59532,-0.23929 0.58032,-0.0168 c 0.31916,-0.009 0.75025,0.22586 0.95797,0.52242 0.78494,1.12067 -0.55313,4.44612 -1.96994,4.8958 -0.44327,0.14069 -0.48587,0.22878 -0.19862,0.41071 0.25832,0.1636 0.13263,0.23772 -0.42806,0.25243 -0.7629,0.02 -0.76966,0.0305 -0.174,0.26915 0.34086,0.13658 0.71494,0.18949 0.8313,0.11758 0.11635,-0.0719 0.36948,0.40411 0.56249,1.05782 0.19302,0.65371 0.43677,1.18856 0.54168,1.18856 0.10489,0 0.74099,0.47625 1.41353,1.05834 0.67255,0.58208 1.34232,1.05833 1.48838,1.05833 0.14607,0 0.56613,-0.35719 0.93347,-0.79375 0.36735,-0.43656 0.87163,-0.79375 1.12063,-0.79375 0.249,0 0.58063,-0.1279 0.73696,-0.28423 0.37669,-0.37668 1.6554,-0.504 2.32707,-0.2317 0.39637,0.1607 0.19036,0.22768 -0.78568,0.25546 -1.34687,0.0383 -1.35602,0.0902 -0.0661,0.37466 0.62599,0.13807 0.7276,0.29088 0.7276,1.09425 0,0.80043 -0.12279,0.98714 -0.85989,1.30752 l -0.8599,0.37375 1.52136,0.0103 c 0.83674,0.006 1.52135,0.12942 1.52135,0.27494 0,0.17531 -14.61088,0.26458 -43.30347,0.26458 -23.81691,0 -43.25386,-0.048 -43.19323,-0.10676 0.0606,-0.0587 9.887,-0.14802 21.83637,-0.19844 17.97842,-0.0759 21.64103,-0.15131 21.23281,-0.4374 -0.28964,-0.20298 -0.49331,-0.66443 -0.49331,-1.11767 0,-0.94871 1.04494,-1.57929 2.61707,-1.57929 1.2943,0 1.59646,0.40198 0.85756,1.14087 -0.4452,0.4452 -0.62502,0.49165 -0.88744,0.22923 -0.26242,-0.26241 -0.2094,-0.36041 0.26164,-0.48359 0.98682,-0.25806 0.6833,-0.70619 -0.36328,-0.53635 -1.0376,0.16838 -2.22097,0.8309 -2.22097,1.24344 0,0.59526 1.092,1.31681 1.99287,1.31681 1.4343,0 2.49364,-0.58844 4.19468,-2.33004 0.9339,-0.95618 1.70575,-1.53753 1.92808,-1.45222 0.20391,0.0783 0.59364,-0.0594 0.86606,-0.30598 0.40482,-0.36636 0.45056,-0.60181 0.25038,-1.28885 -0.21059,-0.72276 -0.16086,-0.90528 0.35473,-1.30182 0.32981,-0.25366 0.89731,-0.74618 1.26112,-1.09449 0.3638,-0.34831 0.84005,-0.69692 1.05833,-0.77468 0.21828,-0.0778 -12.87859,-0.15375 -29.10417,-0.16885 -16.22557,-0.0151 -39.91901,-0.0897 -52.65208,-0.16575 l -23.151042,-0.1383 1.508249,0.63917 c 1.777921,0.75346 4.801222,3.05099 4.936236,3.75126 0.06365,0.33011 -0.411332,0.0378 -1.455208,-0.89558 -1.52272,-1.36154 -4.917046,-3.21683 -5.841646,-3.19297 -0.258801,0.007 0.243827,0.34707 1.116952,0.75644 1.472168,0.69023 3.031588,1.97656 2.744377,2.26377 -0.06822,0.0682 -0.436099,-0.16534 -0.817523,-0.51902 -0.790383,-0.73288 -2.336569,-1.71712 -2.69982,-1.7186 -0.134089,-5.3e-4 0.312395,0.36742 0.992188,0.8177 0.679792,0.45027 1.235986,0.92652 1.235986,1.05833 0,0.40779 -0.273691,0.27309 -1.394628,-0.68639 -0.595029,-0.50932 -1.268799,-0.93441 -1.497267,-0.94464 -0.294318,-0.0132 -0.261157,-0.0789 0.11377,-0.22543 0.506554,-0.198 0.502589,-0.21529 -0.09278,-0.40456 -0.36638,-0.11648 -0.741468,-0.0782 -0.912813,0.0931 -0.396901,0.3969 -0.791223,0.36831 -0.549878,-0.0399 0.107553,-0.1819 -0.195311,0.0819 -0.67303,0.58625 -0.477719,0.50434 -0.754168,0.95512 -0.614332,1.00173 0.703875,0.23463 1.150602,0.82425 1.294,1.70791 0.137522,0.84745 0.05053,1.08739 -0.647147,1.78507 -0.443313,0.44331 -0.964011,0.79796 -1.157106,0.78812 -0.193095,-0.01 -0.08319,-0.14711 0.244231,-0.30502 0.327422,-0.15791 0.595312,-0.3741 0.595312,-0.48042 0,-0.38496 -1.325598,-0.43522 -1.846985,-0.07 -0.293846,0.20582 -0.534265,0.26298 -0.534265,0.12702 0,-0.46126 0.764039,-0.88403 1.50803,-0.83445 1.27057,0.0847 1.402387,0.0142 1.402387,-0.74988 0,-0.86996 -0.447277,-1.52272 -1.190625,-1.7376 -0.653567,-0.18893 -1.143045,0.10121 -1.550905,0.91929 -0.464888,0.93247 -1.602592,1.25352 -2.277541,0.6427 -0.619953,-0.56105 -0.707711,-1.19787 -0.165074,-1.19787 0.241842,0 0.323662,0.18524 0.233724,0.52916 -0.115683,0.44238 -0.0081,0.52917 0.655799,0.52917 0.947136,0 1.648789,-0.8968 1.648789,-2.10736 0,-0.78726 0.337763,-1.06222 0.661458,-0.53847 0.275088,0.4451 1.155995,0.2945 1.445899,-0.24719 0.351372,-0.65655 0.348915,-1.07573 -0.0063,-1.07573 -0.154109,0 -0.190786,0.14883 -0.0815,0.33073 0.151956,0.25293 0.10895,0.26083 -0.182823,0.0336 -0.209835,-0.16342 -1.18336,-0.30784 -2.16339,-0.32093 -1.514117,-0.0202 -1.82364,0.0542 -2.05983,0.49557 -0.37565,0.70191 -0.871857,0.66964 -0.645988,-0.042 0.16238,-0.51161 0.09944,-0.54924 -0.709774,-0.42446 -0.488374,0.0753 -1.174461,0.22763 -1.524639,0.33849 -0.453583,0.14359 -0.582251,0.11348 -0.447406,-0.10471 0.111755,-0.18082 0.02401,-0.30626 -0.214233,-0.30626 -0.565671,0 -2.27355,0.84356 -2.27355,1.12295 0,0.12716 0.140665,0.14426 0.312588,0.038 0.171923,-0.10626 -0.0208,0.2439 -0.428278,0.77813 -0.694997,0.91119 -1.202979,1.34203 -0.785086,0.66586 0.117906,-0.19077 0.07248,-0.23358 -0.120993,-0.11401 -0.170378,0.1053 -0.243024,0.29947 -0.161434,0.43149 0.08159,0.13201 -0.04171,0.57027 -0.274002,0.9739 l -0.422346,0.73388 0.141366,-0.79375 c 0.0905,-0.50813 -0.189028,-0.12731 -0.77682,1.05833 -1.158424,2.33667 -1.183684,2.99087 -0.130828,3.38828 0.436562,0.16479 0.79375,0.40203 0.79375,0.52721 0,0.12518 0.372083,0.14588 0.826851,0.046 0.454768,-0.0999 0.76408,-0.0796 0.687361,0.0451 -0.125409,0.20384 2.638618,0.22041 18.990997,0.11385 l 4.7625,-0.031 -1.082223,-0.4915 c -0.59522,-0.27033 -1.954281,-1.338 -3.020131,-2.37261 -1.89288,-1.8374 -1.926855,-1.89332 -1.462104,-2.40686 0.529037,-0.58458 1.144836,-0.44933 0.652913,0.1434 -0.343133,0.41345 -0.156449,1.17044 0.288647,1.17044 0.158676,0 0.203549,-0.13746 0.09972,-0.30546 -0.227843,-0.36866 0.08438,-0.19022 1.749851,1.00009 1.45484,1.03976 3.26925,1.53069 5.031446,1.36137 1.813648,-0.17427 2.318891,-0.6952 2.332461,-2.40488 0.0145,-1.82714 -0.85439,-2.82632 -2.457265,-2.82571 -2.289677,8e-4 -3.793818,1.52983 -2.265603,2.30298 0.591918,0.29947 0.604435,0.33506 0.119063,0.33855 -0.752142,0.005 -1.177396,-0.49499 -1.177396,-1.38544 0,-0.62131 0.174963,-0.82771 0.992187,-1.17043 2.192428,-0.91944 4.044514,-0.62671 4.930897,0.77934 0.433679,0.68793 0.812549,3.89263 0.555829,4.70149 -0.09689,0.30527 -0.552482,0.7845 -1.012434,1.06495 -0.474498,0.28933 -0.664583,0.52152 -0.439396,0.53673 0.218281,0.0147 7.45893,0.0625 16.090329,0.10608 8.631404,0.0436 15.765224,0.15104 15.852954,0.23876 0.0877,0.0877 -15.695662,0.1595 -35.074185,0.1595 -23.312733,0 -35.233682,-0.0895 -35.233682,-0.26458 z m 37.63698,-0.17523 c -0.181901,-0.0734 -0.479557,-0.0734 -0.661458,0 -0.181901,0.0734 -0.03307,0.13345 0.330729,0.13345 0.363802,0 0.51263,-0.06 0.330729,-0.13345 z M 193.11335,238.8402 c 3.10219,-0.0179 3.38433,-0.0562 2.57402,-0.34895 -0.50054,-0.18086 -0.96191,-0.48434 -1.02526,-0.6744 -0.0634,-0.19007 -0.011,-0.29465 0.11631,-0.23241 2.45266,1.19895 3.81509,1.36472 5.78776,0.70421 0.83777,-0.28051 1.0753,-0.50092 1.13971,-1.0576 0.0689,-0.59562 -0.0424,-0.73042 -0.72761,-0.88091 -0.98001,-0.21525 -2.25253,0.0336 -2.65562,0.51927 -0.21854,0.26333 -0.21594,0.40561 0.01,0.54523 0.22319,0.13794 0.20881,0.2503 -0.0533,0.41638 -0.71001,0.44989 -1.50291,0.2177 -2.80969,-0.82277 -1.31389,-1.04614 -2.00491,-1.29029 -2.3001,-0.81267 -0.0835,0.13512 0.11661,0.28395 0.44471,0.33073 0.58955,0.0841 1.03794,1.01111 0.48903,1.01111 -0.15619,0 -0.28398,-0.1786 -0.28398,-0.39688 0,-0.48069 -0.43067,-0.52634 -0.62405,-0.0661 -0.0995,0.23684 -0.22219,0.19928 -0.43207,-0.1323 -0.1612,-0.25466 -0.49553,-0.45465 -0.74296,-0.44442 -0.37632,0.0156 -0.36623,0.0513 0.0617,0.21894 0.34464,0.13496 0.41118,0.26241 0.2039,0.39052 -0.16923,0.10459 -0.57805,0.0461 -0.90848,-0.12997 -0.54141,-0.2885 -0.56558,-0.27746 -0.24454,0.11176 0.19594,0.23754 1.05914,0.57018 1.91823,0.7392 0.8591,0.16901 1.56199,0.42378 1.56199,0.56614 0,0.14237 -0.26789,0.19454 -0.59531,0.11593 -0.32742,-0.0786 -1.06705,-0.22855 -1.6436,-0.33323 -0.57656,-0.10468 -1.23141,-0.38631 -1.45521,-0.62585 -0.22381,-0.23953 -0.30305,-0.28108 -0.17609,-0.0923 0.14073,0.20923 0.12335,0.3432 -0.0445,0.3432 -0.15144,0 -0.48321,0.0798 -0.73726,0.17725 -0.3419,0.1312 -0.40499,0.0851 -0.24282,-0.17725 0.16217,-0.2624 0.0991,-0.30845 -0.24282,-0.17725 -0.25406,0.0975 -0.7796,0.19292 -1.16788,0.21208 -0.61153,0.0302 -0.58208,0.0609 0.22007,0.22975 l 0.92604,0.19493 -0.96971,0.0348 c -0.62619,0.0225 -1.18856,-0.15233 -1.5875,-0.49352 -1.61002,-1.37692 -1.9187,-1.58832 -2.31919,-1.58832 -1.24311,0 -2.10164,-1.64044 -1.23497,-2.35971 0.30574,-0.25374 0.36386,-0.16184 0.33073,0.52287 -0.029,0.59962 0.12929,0.94541 0.56904,1.243 0.57152,0.38676 0.61846,0.37696 0.75846,-0.1584 0.1495,-0.57169 0.61669,-0.80358 0.61669,-0.30609 0,0.14552 0.19211,0.26458 0.42691,0.26458 0.35319,0 0.40197,-0.21704 0.28247,-1.25677 -0.0794,-0.69122 -0.0842,-1.04841 -0.0106,-0.79375 0.14713,0.50912 0.32384,0.56162 0.82318,0.24456 0.23981,-0.15226 0.13021,-0.35902 -0.39687,-0.7487 -1.5005,-1.10935 -2.94344,-1.65582 -4.76116,-1.80314 -0.32637,-0.0265 -0.67363,-0.12833 -0.7717,-0.2264 -0.27911,-0.27911 0.69649,-0.20286 2.3332,0.18237 1.47083,0.34619 1.50226,0.34144 1.78027,-0.26871 0.26954,-0.5916 0.23611,-0.62093 -0.70352,-0.61708 -0.73436,0.003 -0.88507,0.0696 -0.58964,0.26054 0.30927,0.19986 0.23626,0.25737 -0.33073,0.26053 -0.40018,0.002 -0.7276,-0.13002 -0.7276,-0.29389 0,-0.42638 -7.3374,-0.0982 -9.61519,0.43005 -0.98177,0.22769 -1.91729,0.33225 -2.07893,0.23235 -0.16164,-0.0999 -0.22155,-0.0646 -0.13313,0.0785 0.0884,0.14306 -0.3067,0.54841 -0.87805,0.90078 -1.18286,0.7295 -1.25826,0.90908 -0.54252,1.29213 0.41991,0.22473 0.61949,0.13765 1.12448,-0.49062 0.6005,-0.74709 2.87237,-2.09081 2.85326,-1.68759 -0.005,0.1121 -0.52619,0.53086 -1.15749,0.93057 -0.63131,0.39971 -1.99618,1.51219 -3.03305,2.47217 -1.39193,1.28871 -1.8874,1.61778 -1.89358,1.25762 -0.007,-0.40696 -0.1172,-0.36405 -0.66524,0.25896 -0.36128,0.41072 -0.58943,0.85588 -0.507,0.98926 0.0824,0.13338 -0.41542,0.60101 -1.10635,1.03918 -1.31138,0.83166 -1.27283,0.99553 0.12,0.50999 0.45233,-0.15769 0.89486,-0.51495 0.9834,-0.79393 0.17497,-0.55126 1.90621,-1.98909 2.12797,-1.76732 0.075,0.075 -0.21935,0.43549 -0.65399,0.80122 -0.43464,0.36572 -0.73105,0.72415 -0.6587,0.79651 0.0724,0.0723 -0.18842,0.38325 -0.57952,0.69088 l -0.71107,0.55933 h 1.09402 c 0.91762,0 1.09401,-0.0853 1.09401,-0.52916 0,-0.29105 0.11906,-0.52917 0.26458,-0.52917 0.14553,0 0.26459,-0.29063 0.26459,-0.64584 0,-0.35522 0.11727,-0.71832 0.2606,-0.80691 0.31364,-0.19384 0.0473,1.46104 -0.29559,1.8364 -0.12628,0.13824 -0.2296,0.3452 -0.2296,0.45991 0,0.1832 19.95014,0.45214 20.85758,0.28116 0.1938,-0.0365 1.92021,-0.0754 3.83646,-0.0865 z m -23.39916,-0.94375 c -0.0154,-0.12471 -0.008,-0.54364 0.0175,-0.93096 0.0326,-0.50463 -0.11064,-0.75379 -0.50544,-0.8791 -0.53672,-0.17035 -0.53204,-0.19505 0.18095,-0.9556 0.40255,-0.42941 1.20816,-1.10503 1.79025,-1.50139 0.58208,-0.39636 1.15401,-0.87067 1.27096,-1.05401 0.38329,-0.60093 2.25915,-1.38819 3.28256,-1.37762 l 1.00273,0.0103 -0.92604,0.4165 c -0.50933,0.22908 -0.78665,0.46933 -0.61627,0.53388 0.22239,0.0843 0.18904,0.32774 -0.11819,0.86306 -0.39474,0.68779 -0.39432,0.79706 0.005,1.40707 0.42118,0.64281 1.78741,0.96252 1.78741,0.41827 0,-0.13371 0.20836,-0.20812 0.46302,-0.16536 0.32342,0.0543 0.48635,-0.12177 0.54038,-0.58396 0.0881,-0.75344 -0.68373,-1.93166 -0.90978,-1.38882 -0.1557,0.3739 -0.88737,0.45516 -0.88737,0.0985 0,-0.47596 0.8045,-0.88081 1.43556,-0.72243 0.7206,0.18086 1.17888,-0.2222 0.534,-0.46966 -0.35508,-0.13626 -0.34335,-0.2269 0.0894,-0.69144 0.38373,-0.41189 0.69178,-0.4959 1.34171,-0.36591 1.16742,0.23349 1.32587,0.63338 0.17709,0.44696 -0.74707,-0.12122 -0.93196,-0.0656 -0.93196,0.28027 0,0.49387 0.0466,0.50022 1.3872,0.18888 0.54467,-0.12649 0.93443,-0.13956 0.86613,-0.0291 -0.0683,0.11052 0.12479,0.42521 0.42911,0.69932 0.30431,0.27411 0.66867,0.79604 0.8097,1.15984 l 0.25642,0.66146 0.33785,-0.79375 c 0.21558,-0.5065 0.25211,-0.96122 0.10093,-1.25651 -0.19127,-0.37358 -0.1345,-0.44713 0.29459,-0.38164 0.69438,0.10597 0.84547,0.27606 1.22447,1.37851 0.33144,0.96408 0.0766,1.2542 -0.40243,0.45808 -0.25307,-0.42062 -0.33941,-0.39034 -0.94284,0.33073 -0.55536,0.66363 -0.70636,0.72869 -0.92114,0.39687 -0.14129,-0.21828 -0.25871,-0.58678 -0.26094,-0.81888 -0.006,-0.6312 -0.87623,-1.29778 -1.69415,-1.29778 -0.41421,0 -0.65262,0.11287 -0.55886,0.26458 0.0912,0.14754 -0.10673,0.26279 -0.4474,0.26053 -0.50403,-0.003 -0.54149,-0.0532 -0.21406,-0.28472 0.34066,-0.24092 0.34163,-0.26566 0.007,-0.17462 -0.24844,0.0676 -0.42485,0.53113 -0.48591,1.27691 -0.0527,0.64398 -0.27787,1.37398 -0.50032,1.62224 -0.5938,0.66268 -2.40181,0.85423 -3.53959,0.37499 -1.12374,-0.47333 -1.48127,-0.86129 -1.61496,-1.75241 -0.17677,-1.17833 -1.32896,1.74691 -1.22452,3.10885 0.077,1.00474 0.0249,1.12448 -0.48934,1.12448 -0.31657,0 -0.76391,0.0723 -0.9941,0.1606 -0.23018,0.0883 -0.43113,0.0586 -0.44655,-0.0661 z m 1.5809,-1.49916 c -0.0325,-0.62707 0.0286,-1.28191 0.13572,-1.45521 0.10978,-0.17763 0.0546,-0.31508 -0.12648,-0.31508 -0.19507,0 -0.12328,-0.22291 0.18283,-0.56767 0.49759,-0.56042 0.49724,-0.56411 -0.0281,-0.28909 -0.29267,0.15322 -0.76576,0.5575 -1.05132,0.8984 -0.28555,0.3409 -0.3497,0.47099 -0.14256,0.28909 0.72218,-0.63417 0.81149,-0.32314 0.21255,0.74021 -0.59404,1.05466 -0.5954,1.07678 -0.0896,1.45521 0.80662,0.60351 0.97029,0.46711 0.90698,-0.75586 z m 3.09989,-4.34948 c -0.32221,-0.32221 -0.94859,0.58696 -0.94859,1.37687 0,1.33894 0.34094,1.33629 0.73225,-0.006 0.19712,-0.67601 0.29447,-1.29304 0.21634,-1.37116 z m 24.716,5.75419 c 0,-0.14552 0.11906,-0.26458 0.26458,-0.26458 0.14552,0 0.26458,0.11906 0.26458,0.26458 0,0.14552 -0.11906,0.26458 -0.26458,0.26458 -0.14552,0 -0.26458,-0.11906 -0.26458,-0.26458 z m -13.91894,-4.65185 c 0.0883,-0.23018 0.16243,-0.49807 0.16465,-0.59531 0.005,-0.23672 0.5159,0.56209 0.52107,0.81539 0.002,0.10914 -0.18728,0.19844 -0.42113,0.19844 -0.27901,0 -0.36997,-0.14388 -0.26459,-0.41852 z m -106.359364,4.78414 c 1.080193,-0.73304 1.215797,-0.77825 1.215797,-0.40532 0,0.14087 -0.327422,0.44288 -0.727604,0.67112 -0.707935,0.40377 -0.709721,0.41056 -0.06615,0.25123 1.131888,-0.28023 1.979412,-1.04804 2.059848,-1.86611 l 0.07548,-0.76759 -0.340509,0.64669 c -0.305133,0.57951 -0.54107,0.65666 -2.271191,0.74263 -2.338652,0.11621 -4.268401,-0.38921 -5.844056,-1.53061 l -1.127294,-0.8166 0.604737,0.81795 c 0.974378,1.31792 3.575746,2.81824 5.02013,2.89533 0.234355,0.0125 0.864722,-0.27492 1.400812,-0.63872 z m 110.471034,-0.81921 c 0.32786,-0.30689 0.3115,-0.42974 -0.12086,-0.90748 l -0.50004,-0.55254 -0.21058,0.56926 c -0.11582,0.31309 -0.44839,0.63145 -0.73904,0.70745 -0.29066,0.076 -0.52846,0.29993 -0.52846,0.4976 0,0.44734 1.53009,0.21823 2.09898,-0.31429 z m -1.31591,-0.95007 0.5391,-0.57866 -0.58872,-0.62665 c -0.45857,-0.48814 -0.48707,-0.58766 -0.12892,-0.45022 0.34653,0.13297 0.41996,0.0726 0.29806,-0.24505 -0.21118,-0.55032 -1.16337,-0.0884 -1.17559,0.57032 -0.005,0.24954 -0.17941,0.67961 -0.3884,0.95571 -0.77388,1.02237 0.52673,1.35962 1.44447,0.37455 z m 2.31087,-0.22223 c -0.52383,-0.74787 -1.49289,-1.41752 -1.72109,-1.18932 -0.0992,0.0992 0.27516,0.59795 0.83201,1.10826 1.07594,0.98603 1.55344,1.02956 0.88908,0.0811 z m 2.52474,-0.0263 c 0.2567,-0.13738 0.46673,-0.44494 0.46673,-0.68347 0,-0.35533 -0.11597,-0.32474 -0.64187,0.16932 -0.35303,0.33165 -0.76975,0.52397 -0.92604,0.42738 -0.46935,-0.29008 -0.32213,-0.63137 0.31114,-0.72131 0.42625,-0.0605 0.61909,-0.29118 0.67903,-0.81215 0.0461,-0.40018 -0.0135,-0.73753 -0.13229,-0.74965 -0.1188,-0.0121 -0.49451,-0.0525 -0.8349,-0.0898 -0.34039,-0.0373 -0.77837,0.0917 -0.97329,0.28663 -0.50778,0.50778 -0.70224,0.43851 -0.60726,-0.21633 0.0455,-0.31389 -0.066,-0.62147 -0.24795,-0.6835 -0.19281,-0.0658 -0.33073,0.11056 -0.33073,0.42281 0,0.29458 -0.11907,0.60918 -0.26459,0.69912 -0.14552,0.0899 -0.26458,-0.0221 -0.26458,-0.24897 0,-0.22687 -0.17859,-0.41249 -0.39688,-0.41249 -0.70728,0 -0.42267,0.486 0.76192,1.30102 0.63733,0.43849 1.21765,0.95023 1.28959,1.13719 0.15844,0.41173 1.46654,0.51964 2.11197,0.17422 z M 51.010947,231.75324 c 0.58367,-0.52948 1.372997,-1.17027 1.754059,-1.42398 l 0.692842,-0.46127 -1.5875,0.002 c -0.945035,0.001 -1.447264,0.0912 -1.240984,0.22207 0.260343,0.1651 0.172297,0.33391 -0.354047,0.67878 -0.555388,0.3639 -0.666119,0.59626 -0.534349,1.12128 0.107154,0.42693 0.06843,0.60181 -0.108974,0.49217 -0.322299,-0.19919 -0.341045,-0.0892 -0.09434,0.55374 0.12658,0.32986 0.215541,0.36721 0.296461,0.12444 0.06359,-0.19076 0.593162,-0.78005 1.176832,-1.30953 z m 136.938143,0.2737 c 0.0613,-0.62033 -0.0251,-0.83952 -0.33072,-0.83952 -0.22751,0 -0.41364,-0.11907 -0.41364,-0.26459 0,-0.42424 0.57221,-0.30529 0.9546,0.19844 0.19332,0.25466 0.35527,0.73091 0.3599,1.05833 0.005,0.35469 0.17228,0.59532 0.41381,0.59532 0.22298,0 0.50514,-0.26789 0.62705,-0.59532 0.68509,-1.84012 -1.69108,-2.52987 -3.49841,-1.01551 -0.45798,0.38375 -0.43852,0.43923 0.39688,1.13188 1.06736,0.88497 1.38218,0.82814 1.49053,-0.26903 z m 3.50296,0.11113 c -0.57883,-0.16726 -0.9266,-0.14388 -1.14764,0.0772 -0.51004,0.51004 0.25949,0.80841 1.18669,0.46011 l 0.79145,-0.2973 z m -139.713994,-0.2892 c 0.341774,-0.3638 0.561876,-0.66145 0.489116,-0.66145 -0.07276,0 -0.411925,0.29765 -0.753699,0.66145 -0.341775,0.36381 -0.561877,0.66146 -0.489117,0.66146 0.07276,0 0.411926,-0.29765 0.7537,-0.66146 z m -5.03239,-0.80014 c -0.184076,-0.2218 -0.389171,-0.34878 -0.455766,-0.28219 -0.183488,0.18349 0.189321,0.68546 0.509084,0.68546 0.175444,0 0.155372,-0.15181 -0.05332,-0.40327 z m 1.220935,-0.52277 c -0.392549,-0.3638 -0.816732,-0.66146 -0.942629,-0.66146 -0.125896,0 -0.343207,-0.32742 -0.482913,-0.7276 l -0.254011,-0.72761 -0.204976,0.77295 c -0.17225,0.64954 -0.09062,0.87132 0.5113,1.38906 0.393951,0.33887 1.024678,0.61612 1.401615,0.61612 h 0.685339 z m 144.239059,0.1359 c 0.1819,-0.002 0.33073,-0.11592 0.33073,-0.25319 0,-0.13728 -0.59531,-0.23603 -1.32291,-0.21946 -0.72761,0.0166 -1.32292,0.14163 -1.32292,0.2779 0,0.13626 0.17859,0.17922 0.39687,0.0955 0.21829,-0.0838 0.39688,-0.0231 0.39688,0.13484 0,0.16866 0.24565,0.22131 0.59531,0.1276 0.32742,-0.0877 0.74414,-0.16116 0.92604,-0.16315 z M 49.356806,230.26137 c 0,-0.24559 -0.248962,-0.39687 -0.653155,-0.39687 -0.471879,0 -0.610887,0.11015 -0.500859,0.39687 0.08376,0.21829 0.377682,0.39688 0.653155,0.39688 0.275472,0 0.500859,-0.17859 0.500859,-0.39688 z m 137.318754,0.1323 c 0.34202,-0.22104 0.33504,-0.25704 -0.0505,-0.26054 -0.24607,-0.002 -0.52099,0.11502 -0.61093,0.26054 -0.20695,0.33485 0.14331,0.33485 0.66146,0 z m -12.50707,-0.15986 c -0.0879,-0.0879 -0.31613,-0.0973 -0.50712,-0.0209 -0.21107,0.0845 -0.14838,0.14715 0.15985,0.15985 0.27891,0.0115 0.43518,-0.0511 0.34727,-0.13897 z M 47.732053,224.63898 c -0.02522,-3.53827 -0.100391,-4.75566 -0.232794,-3.77031 -0.107548,0.80036 -0.135289,2.12131 -0.06165,2.93544 0.10894,1.20434 0.0537,1.511 -0.296372,1.64534 -0.554444,0.21276 -0.55302,1.19504 0.0026,1.80901 0.400798,0.44288 0.400798,0.49066 0,0.64446 -0.741516,0.28454 -0.387762,1.96158 0.413779,1.96158 0.116417,0 0.194903,-2.35148 0.174414,-5.22552 z m -0.735609,1.36701 c 0.0127,-0.30822 0.07539,-0.37092 0.159852,-0.15985 0.07643,0.191 0.06703,0.4192 -0.02089,0.50712 -0.08792,0.0879 -0.150453,-0.0684 -0.138965,-0.34727 z M 192.52818,215.55213 c 0.0949,-42.19353 -0.0904,-79.93079 -0.39439,-80.32005 -0.0189,-0.0241 -13.78599,-0.11481 -30.59365,-0.20151 -16.80765,-0.0867 -33.05969,-0.21273 -36.11562,-0.28006 -4.73578,-0.10435 -73.034195,-0.25426 -75.85863,-0.1665 l -0.981541,0.0305 -0.01544,10.88093 c -0.0085,5.98452 -0.06682,10.96407 -0.129615,11.06568 -0.09487,0.1535 -0.229653,57.88503 -0.161678,69.24909 0.01826,3.05202 0.07652,3.49699 0.467699,3.57188 0.245765,0.0471 32.690297,0.13388 72.098955,0.19296 l 71.65212,0.10742 z m -131.198978,11.46526 -11.178646,-0.069 -0.01431,-9.5883 c -0.0079,-5.27357 -0.02379,-12.44581 -0.03538,-15.93831 -0.01159,-3.4925 -0.0051,-11.18791 0.01431,-17.10091 0.03453,-10.49215 0.04804,-10.75422 0.561449,-10.88848 0.512226,-0.13395 0.527979,-0.41159 0.598474,-10.54805 0.03982,-5.72576 0.07202,0.95999 0.07155,14.85723 -4.76e-4,13.89724 -0.03267,18.74904 -0.07157,10.78177 -0.03889,-7.96726 -0.169748,-14.48593 -0.290793,-14.48593 -0.121045,0 -0.299595,3.7207 -0.396779,8.26823 -0.220267,10.30704 -0.223677,42.47367 -0.0046,43.56896 l 0.162064,0.81033 14.188738,0.0684 c 7.803805,0.0376 12.700457,0.12796 10.881447,0.20072 -1.819011,0.0728 -8.337683,0.10125 -14.485938,0.0633 z m 19.360282,-0.0914 c -0.279796,-0.10964 24.107456,-0.20771 54.193886,-0.21793 36.27962,-0.0123 54.70261,-0.10771 54.70261,-0.28318 0,-0.14552 0.11906,-0.26459 0.26458,-0.26459 0.14552,0 0.26458,0.17232 0.26458,0.38293 0,0.31159 -0.7024,0.40156 -3.77031,0.48291 -7.19903,0.19091 -105.149486,0.0981 -105.655346,-0.10014 z m -29.575356,-1.75788 c -0.278548,-1.68521 -0.196451,-13.77679 0.09476,-13.95678 0.17403,-0.10755 0.264584,2.4226 0.264584,7.39272 0,4.15593 -0.04395,7.55624 -0.09767,7.55624 -0.05372,0 -0.171472,-0.44648 -0.261671,-0.99218 z M 190.21615,177.60929 c 5.3e-4,-1.74625 0.0433,-2.42619 0.0952,-1.51098 0.0518,0.9152 0.0514,2.34395 -0.001,3.175 -0.0523,0.83104 -0.0947,0.0822 -0.0942,-1.66402 z M 50.144808,171.24606 c -0.01141,-0.49878 0.103147,-21.48729 0.132782,-24.32844 0.0167,-1.60072 0.05448,-4.48799 0.08395,-6.41614 l 0.0536,-3.50573 h 45.874351 c 45.651829,0 45.875019,-0.003 46.012729,-0.52917 0.0845,-0.32323 0.3609,-0.52916 0.71015,-0.52916 0.45136,0 0.5364,0.11143 0.40381,0.52916 -0.16709,0.52647 -0.0475,0.52917 23.3978,0.52917 h 23.56575 l -0.0642,17.13177 -0.0642,17.13177 -0.0701,-16.86719 -0.0701,-16.86718 H 120.52777 50.944306 l -0.0022,3.63802 c -0.0066,10.95149 -0.357923,29.86624 -0.558779,30.08312 -0.14702,0.15875 -0.234899,0.15875 -0.238529,0 z m 1.150902,-21.41802 c 0.0012,-1.01864 0.049,-1.40294 0.106272,-0.85399 0.05728,0.54895 0.05632,1.38238 -0.0021,1.85208 -0.05844,0.4697 -0.105302,0.0206 -0.104128,-0.99809 z m -0.06593,-2.93246 c 0.0127,-0.30823 0.07539,-0.37092 0.159853,-0.15986 0.07643,0.191 0.06703,0.4192 -0.02089,0.50712 -0.08792,0.0879 -0.150453,-0.0683 -0.138965,-0.34726 z m 142.95872,74.70474 c 0.21153,-0.14069 0.20986,-0.1955 -0.006,-0.19844 -0.39752,-0.005 -0.78848,0.50927 -1.00187,1.31887 -0.153,0.58051 -0.11988,0.56432 0.27066,-0.13229 0.24475,-0.43656 0.57653,-0.88123 0.73727,-0.98814 z m -0.36919,-1.17888 c 0,-0.88179 -0.63595,-0.65338 -0.74502,0.26757 -0.0651,0.54946 0.008,0.67041 0.33073,0.5466 0.22786,-0.0874 0.41429,-0.45381 0.41429,-0.81417 z M 43.214806,238.45097 c -0.269185,-0.26918 0.500447,-1.64303 1.100261,-1.96404 0.890869,-0.47678 1.337572,-0.32997 1.337572,0.4396 0,0.64231 -0.03307,0.6668 -0.337709,0.25018 -0.455493,-0.62292 -1.190707,-0.30954 -1.594304,0.67957 -0.175408,0.42987 -0.403027,0.69749 -0.50582,0.59469 z m 3.438806,-0.26816 c 0.324252,-0.22711 0.784195,-0.79266 1.022095,-1.25677 0.407711,-0.79538 0.371414,-0.77927 -0.632171,0.28065 -1.015543,1.07254 -1.65548,1.41183 -1.65548,0.87772 0,-0.13571 0.236237,-0.32173 0.524972,-0.41337 0.288734,-0.0916 0.962186,-0.70018 1.496558,-1.35231 0.648588,-0.79152 1.059664,-1.09762 1.236523,-0.92076 0.17686,0.17686 0.152343,0.4006 -0.07375,0.67303 -0.186276,0.22444 -0.261516,0.40808 -0.1672,0.40808 0.333981,0 -0.649025,1.57593 -1.150367,1.84424 -0.796991,0.42654 -1.257192,0.31898 -0.601183,-0.14051 z m 6.206103,-0.0981 c 0.420921,-0.60094 0.332562,-1.59127 -0.172409,-1.93235 -0.158286,-0.10691 -0.615214,-0.1962 -1.015396,-0.19843 -0.400182,-0.002 -0.727604,-0.12312 -0.727604,-0.26864 0,-0.3356 0.311276,-0.33432 1.203601,0.005 0.626344,0.23814 0.686002,0.21503 0.512367,-0.19843 -0.404268,-0.96267 -0.412698,-1.54142 -0.02994,-2.05546 0.365314,-0.49061 0.383303,-0.44817 0.246913,0.58254 -0.130264,0.98442 -0.05476,1.20406 0.659414,1.91823 0.443587,0.44359 0.654311,0.80652 0.468274,0.80652 -0.186036,0 -0.446549,0.37763 -0.578917,0.83917 -0.132368,0.46154 -0.405591,0.89414 -0.607162,0.96133 -0.290711,0.0969 -0.282263,0.002 0.04086,-0.45941 z m 107.886675,-0.415 c 0,-0.44512 0.0486,-0.46315 0.6383,-0.23686 0.48437,0.18587 0.30272,0.63373 -0.25704,0.63373 -0.20969,0 -0.38126,-0.17859 -0.38126,-0.39687 z m -98.69298,-0.36175 c -0.491945,-0.26383 -0.939706,-0.61548 -0.995026,-0.78143 -0.0641,-0.19231 0.170688,-0.16026 0.647358,0.0884 1.186784,0.61899 2.270081,0.49633 3.079688,-0.34872 0.391028,-0.40815 0.710959,-0.95095 0.710959,-1.20624 0,-0.25529 0.113825,-0.39381 0.252943,-0.30783 0.598986,0.37019 -1.060647,2.59864 -2.136416,2.86864 -0.417768,0.10485 -0.997647,-0.0114 -1.559506,-0.31278 z m 3.943407,-0.85889 c 0.657508,-0.61256 0.600622,-1.69605 -0.118034,-2.24811 -0.525961,-0.40404 -0.47883,-0.63229 0.130561,-0.63229 0.764229,0 1.06666,2.18822 0.40368,2.92081 -0.258215,0.28532 -0.592542,0.51877 -0.742949,0.51877 -0.150406,0 -0.0034,-0.25163 0.326742,-0.55918 z m 8.826135,-0.4809 c -0.472943,-0.2968 -0.859896,-0.66856 -0.859896,-0.82613 0,-0.15757 0.3663,-0.0257 0.814002,0.29313 1.100764,0.78381 3.388442,0.862 4.184322,0.14301 0.895297,-0.80881 0.729035,-1.31277 -0.374045,-1.13376 -0.545229,0.0885 -0.86891,0.0492 -0.780007,-0.0947 0.08358,-0.13523 -0.02077,-0.17959 -0.231892,-0.0986 -0.211119,0.081 -0.462454,0.0201 -0.558524,-0.13532 -0.09607,-0.15544 -0.02582,-0.28262 0.156099,-0.28262 0.18456,0 0.111908,-0.16004 -0.16436,-0.36205 -0.479478,-0.3506 -0.477443,-0.37151 0.06433,-0.66145 0.778637,-0.41672 0.919107,-0.37699 0.733603,0.20748 -0.186682,0.58818 0.185994,0.88525 1.156848,0.92215 0.532072,0.0202 0.702784,0.1762 0.752602,0.68762 0.115536,1.186 -0.548957,1.68479 -2.381866,1.78791 -1.314456,0.074 -1.826734,-0.0172 -2.511214,-0.44674 z m -19.645313,-0.0183 c 0,-0.14552 0.148828,-0.26837 0.330729,-0.273 0.186298,-0.005 0.10644,-0.17806 -0.182861,-0.39688 -0.5045,-0.38158 -0.50383,-0.38846 0.03784,-0.38846 0.648146,0 1.042638,0.78724 0.550859,1.09928 -0.461073,0.29256 -0.736566,0.27724 -0.736566,-0.0409 z m -1.049919,-1.12448 c -0.0046,-0.25466 0.123387,-0.46302 0.284477,-0.46302 0.177193,0 0.215496,-0.18291 0.09697,-0.46302 -0.269171,-0.63612 -0.20947,-1.4107 0.135306,-1.75548 0.206975,-0.20697 0.26634,-0.0395 0.211909,0.59765 -0.09636,1.12805 0.497104,1.58456 1.564071,1.20313 0.673725,-0.24085 0.740045,-0.3791 0.72494,-1.51119 -0.0091,-0.68535 0.06557,-1.24609 0.16604,-1.24609 0.385524,0 0.813975,0.78371 0.608409,1.11289 -0.117577,0.18827 -0.2407,0.52075 -0.273608,0.73885 -0.096,0.6362 -1.137389,1.32326 -2.005712,1.32326 -0.452966,0 -0.954238,0.20132 -1.152899,0.46302 -0.334745,0.44097 -0.351884,0.44097 -0.359898,0 z m 13.683774,-0.66261 c -0.400183,-0.24868 -0.727604,-0.55732 -0.727604,-0.68588 0,-0.12855 0.293467,-0.0414 0.652149,0.19358 0.733473,0.48059 1.464517,0.56181 1.464517,0.16272 0,-0.14552 0.178594,-0.26458 0.396875,-0.26458 0.218281,0 0.396875,0.17859 0.396875,0.39687 0,0.21828 -0.168857,0.39688 -0.375234,0.39688 -0.206381,0 -0.533803,0.0568 -0.727605,0.12627 -0.193804,0.0695 -0.679791,-0.0772 -1.079973,-0.32586 z m -3.241146,-1.91708 c -0.206953,-0.33486 0.143306,-0.33486 0.661458,0 0.342024,0.22103 0.33504,0.25704 -0.05053,0.26053 -0.246073,0.002 -0.52099,-0.11501 -0.610928,-0.26053 z m -9.134928,-0.40507 c -0.224604,-0.27063 -0.572033,-0.36717 -0.965752,-0.26836 -0.783976,0.19677 -0.849846,-0.50515 -0.08578,-0.91407 0.4891,-0.26176 0.639992,-0.17272 0.560499,0.33073 -0.04667,0.2956 0.705502,0.24 0.89471,-0.0661 0.321976,-0.52096 0.695061,-0.25153 0.612886,0.44262 -0.100601,0.8498 -0.536559,1.0536 -1.016564,0.47523 z m 4.544832,-0.35829 c -0.196219,-0.12435 -0.315,-0.44295 -0.263956,-0.70799 0.0761,-0.39514 0.15122,-0.3537 0.417236,0.23014 0.359129,0.7882 0.355296,0.80015 -0.15328,0.47785 z"
       id="path5917" />
  </g>
</svg>
