<?xml version="1.0" encoding="UTF-8" standalone="no"?>
<!-- Created with Inkscape (http://www.inkscape.org/) -->

<svg
   width="102.97833mm"
   height="104.32166mm"
   viewBox="0 0 102.97834 104.32166"
   version="1.1"
   id="svg5"
   inkscape:version="1.1 (c4e8f9ed74, 2021-05-24)"
   sodipodi:docname="ornatee.svg"
   xmlns:inkscape="http://www.inkscape.org/namespaces/inkscape"
   xmlns:sodipodi="http://sodipodi.sourceforge.net/DTD/sodipodi-0.dtd"
   xmlns="http://www.w3.org/2000/svg"
   xmlns:svg="http://www.w3.org/2000/svg">
  <sodipodi:namedview
     id="namedview7"
     pagecolor="#ffffff"
     bordercolor="#666666"
     borderopacity="1.0"
     inkscape:pageshadow="2"
     inkscape:pageopacity="0.0"
     inkscape:pagecheckerboard="0"
     inkscape:document-units="mm"
     showgrid="false"
     inkscape:zoom="0.66903058"
     inkscape:cx="-589.65914"
     inkscape:cy="223.45765"
     inkscape:window-width="2506"
     inkscape:window-height="1403"
     inkscape:window-x="1974"
     inkscape:window-y="0"
     inkscape:window-maximized="1"
     inkscape:current-layer="layer1" />
  <defs
     id="defs2" />
  <g
     inkscape:label="Layer 1"
     inkscape:groupmode="layer"
     id="layer1"
     transform="translate(-291.58438,-152.40797)">
    <path
       style="fill:#000000;stroke-width:0.516403"
       d="m 314.23287,255.41024 c -0.20277,-0.80788 -0.68957,-1.291 -1.30085,-1.291 -0.53726,0 -0.97681,-0.23437 -0.97681,-0.52079 0,-0.33843 -0.31644,-0.34915 -0.90371,-0.0306 -0.49706,0.26958 -2.56688,0.87224 -4.59964,1.33926 -2.76469,0.63516 -3.95968,0.70794 -4.74279,0.28884 -1.34441,-0.7195 -4.36008,-0.72322 -5.07704,-0.006 -0.30471,0.30471 -1.33692,0.479 -2.29377,0.38731 -1.9785,-0.18952 -2.6925,-1.74453 -1.27649,-2.77992 0.67312,-0.4922 0.73624,-0.89465 0.31435,-2.00427 -0.94278,-2.47971 -0.27977,-10.68057 1.07692,-13.32056 0.25346,-0.49316 0.46083,-1.87096 0.46083,-3.06174 0,-1.8173 -0.29212,-2.43263 -1.81873,-3.83094 -1.63981,-1.50201 -1.76061,-1.79339 -1.22805,-2.96221 0.5924,-1.3002 1.79744,-1.88009 3.93427,-1.89325 0.81271,-0.006 1.05795,-0.23571 0.84381,-0.7938 -0.22756,-0.59298 -0.74324,-0.70398 -2.09366,-0.45064 -1.79174,0.33613 -1.79174,0.33613 -1.63827,-1.78932 0.0851,-1.17968 -0.12492,-2.40383 -0.47217,-2.75107 -0.3441,-0.34409 -0.62562,-1.01546 -0.62562,-1.49192 0,-0.99349 1.21975,-2.18288 1.72276,-1.67987 0.18522,0.18523 -0.0349,-0.75394 -0.48913,-2.087 -0.88118,-2.58618 -0.64213,-5.77041 0.46103,-6.14087 0.48353,-0.16239 0.46602,-0.51755 -0.0755,-1.53442 -0.46895,-0.88046 -0.59193,-2.07496 -0.36757,-3.57024 0.18542,-1.2359 0.40479,-3.47388 0.48745,-4.97329 0.0826,-1.49942 0.42236,-2.9983 0.75488,-3.33082 0.94194,-0.94194 0.72467,-1.34841 -0.81552,-1.52563 -1.40392,-0.16161 -1.44261,-0.28428 -0.80065,-2.53934 0.1294,-0.45469 -0.13058,-1.19267 -0.57788,-1.63993 -0.88813,-0.88813 -0.58619,-2.43918 0.47482,-2.43918 1.42081,0 1.66946,-2.77939 0.53129,-5.93865 -1.58229,-4.39205 -0.85473,-13.68842 1.43123,-18.28775 0.48972,-0.98527 0.48234,-1.29246 -0.0351,-1.4662 -2.3,-0.77218 -3.25843,-4.50032 -1.79986,-7.00123 0.89865,-1.54088 1.16755,-1.65597 4.17153,-1.78553 3.17581,-0.13701 3.21426,-0.12199 3.51237,1.36852 0.27303,1.3652 0.43589,1.46843 1.73084,1.09702 0.78619,-0.22546 2.04213,-0.81138 2.79096,-1.30204 1.89891,-1.24423 11.67697,-1.57817 13.81632,-0.47185 0.81299,0.4204 1.47817,0.54169 1.47817,0.26951 0,-0.68378 1.73964,-1.17353 2.76746,-0.77912 0.46645,0.17898 0.84736,0.89383 0.84736,1.5902 0,1.19216 0.064,1.22014 1.11264,0.48571 0.75477,-0.52865 1.39559,-0.6279 1.99232,-0.30855 0.68089,0.36441 1.01043,0.18386 1.4583,-0.79915 0.60608,-1.33018 1.35181,-1.62724 1.89179,-0.75356 0.17546,0.28403 0.87546,0.5164 1.5554,0.5164 1.95432,0 3.48563,0.9704 5.17648,3.28035 1.18363,1.61704 2.00616,2.20518 3.35662,2.4001 1.14803,0.16571 1.84073,0.57138 1.93377,1.13247 0.13175,0.79478 -0.4199,0.84678 -6.06774,0.57183 -3.95538,-0.19264 -6.21273,-0.11691 -6.21273,0.20827 0,0.61942 9.63794,1.18373 20.34992,1.19154 11.3441,0.008 11.47336,0.0435 13.05753,3.55445 0.7184,1.59221 1.61819,3.53396 1.9995,4.31504 0.77165,1.58061 0.27768,1.81006 -1.47155,0.6835 -2.33437,-1.50334 -7.58892,-2.42902 -13.22011,-2.32892 -3.01475,0.0537 -8.21187,-0.0796 -11.54913,-0.29614 -4.41594,-0.28642 -6.06774,-0.23388 -6.06774,0.19303 0,0.32265 0.0582,0.62386 0.12901,0.6694 0.0711,0.0455 5.93865,0.23444 13.03921,0.41984 14.04684,0.36674 16.6387,0.78521 19.38608,3.13006 0.95898,0.81849 1.80515,1.42662 1.88035,1.3514 0.20729,-0.20729 -4.04123,-11.34827 -4.59908,-12.06029 -0.34677,-0.44259 -3.24506,-0.62792 -10.08242,-0.64473 -5.27766,-0.0137 -9.72973,-0.15751 -9.89346,-0.3213 -0.16376,-0.16375 0.10695,-0.5242 0.6017,-0.80102 1.92095,-1.07503 0.4831,-5.09967 -1.82189,-5.09967 -1.17504,0 -1.64046,0.97676 -0.64707,1.35798 0.66768,0.25621 0.56344,0.45529 -0.53741,1.02642 -0.75116,0.3897 -1.57395,0.57988 -1.82842,0.42261 -0.77994,-0.48203 -0.53497,-2.80701 0.29575,-2.80701 0.41712,0 0.64137,-0.30494 0.49835,-0.67767 -0.14443,-0.37628 0.33713,-0.99729 1.08264,-1.39627 1.56397,-0.83701 3.08129,-0.19459 3.08535,1.30622 0.002,0.50798 0.46075,1.08434 1.02083,1.2808 0.56008,0.19647 1.1943,0.91665 1.40941,1.60039 0.25478,0.80983 0.30389,0.49108 0.14091,-0.91448 -0.178,-1.5349 -0.0156,-2.39194 0.56149,-2.96933 1.02518,-1.02517 0.81554,-1.08458 2.77271,0.78578 1.66753,1.59359 1.67391,1.59494 2.63841,0.55967 1.44183,-1.54764 8.50532,-2.05176 22.43798,-1.60145 0.56806,0.0176 1.88408,-0.11535 2.92452,-0.29723 1.56055,-0.27274 1.93426,-0.16609 2.13482,0.60918 0.16824,0.65059 0.26154,0.69872 0.30301,0.15654 0.0728,-0.95303 3.62175,-1.21275 6.09028,-0.44571 1.19669,0.37185 1.92758,0.33088 2.69972,-0.15126 0.87047,-0.54361 1.43898,-0.52557 3.19619,0.10149 2.09198,0.74639 2.1398,0.81746 2.25056,3.34462 0.0759,1.73223 -0.17527,3.00693 -0.76345,3.87304 -1.11565,1.64301 -1.70147,4.6789 -1.56739,8.12244 0.0687,1.7656 -0.17566,3.10121 -0.7064,3.85883 -0.99399,1.41913 -1.03691,2.0157 -0.11964,1.66372 1.79451,-0.68862 2.32453,2.41074 1.83052,10.70421 -0.14424,2.42286 -0.49069,3.75098 -1.17569,4.50787 -0.95433,1.05454 -0.95004,1.09004 0.24909,2.06103 1.06777,0.86465 1.14199,1.14002 0.59437,2.20539 -0.34417,0.66955 -0.61303,2.1469 -0.59747,3.28298 0.0156,1.1361 0.0117,2.76276 -0.008,3.61484 -0.0201,0.85207 0.21567,2.63805 0.52405,3.96884 0.86722,3.74246 -0.44255,9.15392 -2.2247,9.19155 -0.20599,0.004 -0.1253,-0.63114 0.17956,-1.4122 0.7827,-2.00633 0.58155,-8.19473 -0.32323,-9.94439 -1.3053,-2.52419 -4.8618,-5.02077 -7.74419,-5.43624 -3.4867,-0.5026 -3.63863,-0.65919 -2.16692,-2.23376 2.30897,-2.47032 3.08829,-4.61668 2.71047,-7.46485 -0.44578,-3.36052 -1.49273,-5.31439 -3.36687,-6.28356 -2.90028,-1.49979 -4.71302,-0.55651 -4.63181,2.41023 0.0328,1.19585 0.0328,1.19585 0.49977,0.034 0.86016,-2.13997 4.02056,-1.25931 5.45832,1.52099 1.20477,2.32976 0.69723,5.68117 -1.2866,8.49564 -0.92519,1.3126 -1.60579,2.92838 -1.60579,3.81228 0,1.4774 0.0872,1.5341 2.35987,1.5341 2.83679,0 6.22808,2.09024 7.97358,4.91454 1.38782,2.24554 1.06586,4.04648 -0.91563,5.12162 -1.22479,0.66456 -1.27563,0.77768 -0.38075,0.84713 0.56804,0.0441 1.44173,0.0385 1.94154,-0.0117 1.63788,-0.16727 -2.01856,4.61106 -3.80132,4.96761 -1.9969,0.39938 -2.0709,1.93525 -0.0767,1.59293 0.78106,-0.13409 1.84315,-0.42398 2.36021,-0.64424 0.8422,-0.35875 0.90331,-0.20445 0.58697,1.48186 -0.39955,2.12974 0.33192,3.42017 1.93869,3.42017 0.94081,0 0.91748,-0.11652 -0.31695,-1.58353 -1.2632,-1.50121 -1.29174,-1.66223 -0.54905,-3.09842 0.43087,-0.83319 1.05627,-1.5149 1.38981,-1.5149 0.41352,0 0.43831,0.16805 0.0779,0.52848 -0.29066,0.29066 -0.42726,1.21805 -0.30356,2.0609 0.194,1.32135 0.39478,1.48982 1.458,1.22296 1.13827,-0.28568 1.23449,-0.15634 1.2514,1.683 0.01,1.09588 0.3504,2.57346 0.75629,3.28351 0.4059,0.71008 0.74625,1.76756 0.7563,2.34999 0.0484,2.80281 -2.84574,5.67627 -4.88752,4.85255 -2.53632,-1.02325 -2.52642,0.43786 0.0117,1.80501 1.0019,0.53956 1.95533,1.52062 2.12158,2.18304 0.1661,0.66171 0.62535,1.20311 1.0206,1.20311 0.82733,0 0.92715,1.54906 0.24717,3.83637 -1.55799,5.24091 -1.65002,6.51602 -0.56939,7.8898 0.76531,0.97296 1.04084,2.09764 1.04084,4.24872 0,1.64709 0.28209,3.21149 0.64551,3.57996 0.51721,0.52436 0.46301,0.78924 -0.27265,1.33267 -0.65874,0.48661 -2.40943,0.6279 -6.19684,0.50008 -2.90329,-0.098 -5.62729,-0.18971 -6.05332,-0.20392 -0.42603,-0.0137 -2.3524,0.1214 -4.28084,0.30123 -2.90174,0.27061 -3.6756,0.17371 -4.48847,-0.56189 -0.90255,-0.81679 -1.11319,-0.82357 -2.59688,-0.0833 -2.25712,1.12599 -32.13137,1.18583 -33.72795,0.0675 -0.87417,-0.61231 -1.23783,-0.60155 -2.54687,0.0753 -1.12974,0.58422 -2.41984,0.71259 -4.95795,0.49333 -9.51939,-0.8223 -12.5886,-0.9056 -13.13765,-0.35655 -0.88194,0.88194 -1.34742,0.68444 -1.70024,-0.72136 z m 18.77999,-1.57849 c 1.52887,-1.07088 1.45238,-2.19839 -0.17683,-2.60732 -1.0222,-0.25654 -1.67064,-0.001 -2.84023,1.11959 -0.83358,0.79862 -1.5156,1.64094 -1.5156,1.87183 0,0.73441 3.33991,0.45139 4.53273,-0.3841 z m 37.5566,-0.46604 c 3.88341,-1.01151 6.7369,-2.45634 9.2498,-4.68353 l 2.02255,-1.7926 h -1.62749 c -0.90808,0 -2.75142,0.69157 -4.1701,1.56447 -1.39844,0.86048 -3.66766,1.94179 -5.0427,2.40292 -1.37505,0.46114 -2.95846,1.1514 -3.51869,1.53395 -1.62252,1.10786 -3.78728,0.8424 -5.27675,-0.64707 -0.73841,-0.73841 -1.20277,-0.97824 -1.0319,-0.53295 0.42717,1.11315 -0.41645,1.5207 -1.19813,0.57883 -0.50681,-0.61066 -0.50583,-0.92835 0.004,-1.54353 0.86859,-1.04659 1.21811,-0.98652 3.00425,0.5164 1.72106,1.44819 3.33199,1.73877 2.86294,0.51642 -0.178,-0.46378 -0.004,-0.77462 0.4339,-0.77462 0.40214,0 1.18224,-0.33795 1.73357,-0.75102 0.92385,-0.69217 0.85412,-0.72791 -0.88973,-0.45603 -1.30059,0.20275 -2.26482,0.034 -3.08423,-0.53999 -1.89296,-1.32589 -3.99048,-1.08694 -4.6031,0.52442 -0.48275,1.26972 -0.67234,1.33807 -2.87424,1.03627 -3.17839,-0.43566 -6.53884,-1.98674 -9.98331,-4.60804 -1.57339,-1.19739 -3.30486,-2.29853 -3.84769,-2.447 -1.14722,-0.31379 -2.24897,-1.83636 -1.71511,-2.3702 0.20123,-0.20125 0.78922,0.0176 1.30663,0.4855 1.89698,1.71673 6.35849,1.75653 7.00857,0.0625 0.26389,-0.68774 -0.0256,-0.7596 -1.91761,-0.47589 -4.58571,0.68768 -8.49931,-2.21658 -11.80953,-8.76379 -3.24151,-6.41127 -5.98116,-9.60892 -9.89579,-11.55013 -2.82409,-1.40042 -4.5498,-1.76677 -5.47909,-1.16317 -0.64606,0.41963 -0.58479,0.68201 0.40522,1.73582 0.64145,0.68281 2.05546,1.53493 3.14222,1.89358 3.67814,1.2139 6.68889,5.87807 6.91157,10.7072 0.0831,1.80427 0.33849,2.50975 0.95066,2.62692 0.50239,0.0962 0.95295,-0.28344 1.12717,-0.94959 0.36127,-1.38154 1.16584,-0.93092 2.18572,1.22416 1.63046,3.44527 3.24746,5.59243 6.21107,8.24737 3.09138,2.76942 6.96216,5.54996 8.60156,6.17891 0.48859,0.18737 1.03662,0.9317 1.2179,1.65393 0.25693,1.02368 0.65515,1.31312 1.80659,1.31312 1.10076,0 1.40131,-0.19734 1.17978,-0.77461 -0.355,-0.92512 0.49378,-0.99948 2.02917,-0.17781 2.71165,1.45124 9.41039,1.54266 14.56962,0.19885 z m -19.42351,-1.77113 c -0.67928,-0.55069 -1.05431,-1.18265 -0.83341,-1.40433 0.2209,-0.22169 0.90515,0.10032 1.52052,0.7158 1.45276,1.45276 0.91737,1.98926 -0.68711,0.68853 z m 6.08067,0.63118 c -0.64302,-0.64303 -0.34768,-1.20494 0.63329,-1.20494 0.53766,0 1.11132,0.34856 1.2748,0.77459 0.30348,0.79086 -1.20693,1.13152 -1.90809,0.43035 z m 18.64446,1.47354 c 0.12588,-0.37735 -0.11028,-0.49276 -0.61325,-0.29977 -0.44976,0.17254 -0.81775,0.54068 -0.81775,0.81798 0,0.67877 1.17368,0.25373 1.431,-0.51821 z m 4.76585,0.2963 c 0.71005,0.006 2.29159,0.18444 3.5145,0.3971 1.51857,0.26406 2.627,0.17078 3.49618,-0.29446 0.97773,-0.52327 1.41383,-0.53992 1.8819,-0.0718 1.26931,1.26931 1.75103,0.60924 1.72236,-2.3601 -0.0336,-3.46968 -0.46288,-4.33086 -2.73977,-5.49464 -2.13287,-1.09016 -2.13328,-1.75477 -10e-4,-1.96049 1.6239,-0.15672 1.69532,-0.26419 2.25172,-3.38935 0.31605,-1.77513 0.52177,-3.22751 0.45715,-3.22751 -0.0646,0 -0.73865,0.9386 -1.49781,2.08577 -1.66809,2.52064 -4.11628,4.10653 -6.34342,4.10914 -0.90632,10e-4 -1.79147,0.23431 -1.96701,0.51833 -0.48874,0.7908 -3.14946,0.61364 -3.87276,-0.25788 -0.55477,-0.66846 -0.4046,-0.73836 1.09868,-0.51133 0.95771,0.14463 1.45081,0.12511 1.09578,-0.0433 -0.35502,-0.16843 -0.64551,-0.63994 -0.64551,-1.0477 0,-0.52409 0.36215,-0.65053 1.23539,-0.43136 2.34179,0.58775 5.66293,-2.05876 3.92865,-3.13061 -0.28402,-0.17546 -0.5164,-1.10505 -0.5164,-2.06561 0,-0.96056 -0.23238,-1.89009 -0.5164,-2.06561 -0.30192,-0.18659 -0.51641,0.34673 -0.51641,1.28401 0,1.93814 -1.99578,4.13822 -3.75391,4.13822 -0.88674,0 -1.45596,0.49723 -2.08909,1.82494 -0.47863,1.00371 -0.87025,1.94511 -0.87025,2.09196 0,0.71267 3.91006,1.76377 6.56757,1.76549 3.57877,0.002 5.85808,1.19662 6.84889,3.58866 0.61598,1.48707 0.57956,1.74984 -0.37466,2.70405 -0.87217,0.87217 -1.31457,0.96896 -2.53083,0.55364 -1.22954,-0.41984 -1.46127,-0.77243 -1.39776,-2.12658 0.0449,-0.95877 -0.17702,-1.62328 -0.54222,-1.62328 -0.91083,0 -1.85774,1.1055 -1.85774,2.16889 0,0.70877 -0.40788,0.92953 -1.7174,0.92953 -1.19807,0 -2.09596,0.41352 -2.96931,1.3675 l -1.25194,1.36753 1.29101,-0.40175 c 0.71005,-0.22096 1.87197,-0.39705 2.58203,-0.39129 z m -56.39996,-1.12851 c 2.63263,-1.35335 5.79236,-4.03482 5.79236,-4.9156 0,-0.83921 -4.42285,-0.66397 -5.14303,0.20379 -0.34203,0.41211 -1.64858,0.90325 -2.90344,1.09144 -2.84597,0.42678 -2.98866,1.25768 -0.21599,1.25768 1.55525,0 2.06561,0.2056 2.06561,0.83208 0,0.68015 -0.35356,0.76747 -1.9365,0.4782 -1.06509,-0.19459 -2.4512,-0.68525 -3.08027,-1.09028 -0.62905,-0.40503 -1.45908,-0.7364 -1.84451,-0.7364 -0.38544,0 -1.61362,-0.69069 -2.72929,-1.53484 -1.39623,-1.05645 -2.63211,-1.53932 -3.96503,-1.54922 -2.57187,-0.0195 -2.48125,0.91913 0.12902,1.33655 1.13608,0.18171 2.0656,0.52717 2.0656,0.76779 0,0.24063 -0.63904,0.31269 -1.4201,0.16004 -0.86416,-0.16883 -1.82443,0.032 -2.45292,0.51289 -1.03281,0.79025 -1.03281,0.79025 0,0.81802 0.56805,0.0156 2.07853,0.51144 3.35663,1.10261 5.73459,2.65243 8.94069,2.98268 12.28176,1.26515 z m -6.85953,-0.29706 c 0.17546,-0.28404 0.71212,-0.51286 1.19239,-0.50851 0.75254,0.008 0.76616,0.0771 0.0986,0.50851 -1.0113,0.65355 -1.69493,0.65355 -1.29101,0 z m 9.4502,0.92953 c 1.03529,-1.0353 0.69543,-1.4583 -0.67133,-0.83557 -0.71005,0.32352 -1.29101,0.7833 -1.29101,1.02173 0,0.64355 1.25133,0.52483 1.96234,-0.1862 z m -20.30435,-0.39752 c 0.37441,-0.60577 -2.42022,-1.83387 -5.26788,-2.31498 -1.77455,-0.29981 -2.28882,-0.15907 -3.56225,0.97473 l -1.48827,1.32513 2.06561,-0.26888 c 1.13608,-0.14794 3.22751,-0.0591 4.64763,0.19723 1.4201,0.25634 2.7426,0.49342 2.93885,0.52682 0.19625,0.0334 0.4961,-0.16454 0.66631,-0.44005 z m 37.39621,-0.76827 c -3.0506,-2.20631 -4.61601,-2.92507 -5.65351,-2.59579 -0.55385,0.17586 -1.007,0.74386 -1.007,1.2624 0,1.22458 3.13918,2.54063 6.14412,2.57584 l 2.27109,0.0265 -1.7547,-1.26904 z m -47.2667,-3.72106 c -1.09248,-2.61466 -0.7683,-8.95279 0.45792,-8.95279 0.33301,0 0.39228,1.44721 0.1657,4.04481 -0.40645,4.65947 -0.12998,5.12363 3.45234,5.79785 1.20416,0.22662 2.65415,0.58414 3.22219,0.7945 0.96717,0.35815 0.98037,0.31947 0.20759,-0.60881 -0.45387,-0.5452 -0.96944,-1.39795 -1.14571,-1.89499 -0.18815,-0.53056 -0.84765,-0.9037 -1.59722,-0.9037 -1.67481,0 -2.27908,-1.01837 -0.82925,-1.39752 1.00237,-0.2621 1.08292,-0.50402 0.71926,-2.15996 -0.64699,-2.94617 -0.5405,-6.90631 0.19245,-7.1545 0.47416,-0.16063 0.66172,0.7867 0.70656,3.56839 0.0611,3.78697 0.0611,3.78697 0.56228,1.38868 0.27569,-1.31906 1.14808,-3.1731 1.93865,-4.12008 1.25888,-1.50793 1.54335,-1.63386 2.29041,-1.01384 0.94625,0.78531 0.69395,1.31873 -0.62851,1.32876 -1.15507,0.01 -1.43224,2.46574 -0.37696,3.34156 0.61254,0.50835 0.97085,0.52334 1.52466,0.0636 0.99479,-0.82561 1.51714,-3.17155 0.85386,-3.83484 -0.88437,-0.88436 -0.63029,-1.37125 0.71553,-1.37125 1.489,0 1.63189,-0.18405 2.1067,-2.71504 0.44182,-2.35519 -0.48521,-2.60997 -2.33441,-0.64158 -0.66707,0.71007 -1.40472,1.29101 -1.63923,1.29101 -0.81685,0 -0.41732,-0.93261 0.91696,-2.14052 2.99358,-2.71004 3.38086,-3.11907 3.16125,-3.33868 -0.12608,-0.12609 -1.48156,0.41623 -3.01235,1.20494 -2.64384,1.36221 -2.78558,1.53752 -2.82953,3.49966 -0.0607,2.70749 -0.61213,3.87303 -1.83261,3.87303 -1.61381,0 -1.72387,-1.47224 -0.40003,-5.35201 2.62372,-7.68936 8.73601,-10.88067 16.02798,-8.36838 1.10069,0.37921 2.00126,0.49746 2.00126,0.26276 0,-0.65368 -2.18088,-2.03449 -3.21335,-2.03449 -1.33102,0 -1.12769,-1.38459 0.2543,-1.73145 1.47282,-0.36965 3.47544,-2.20202 3.47544,-3.17997 0,-0.56541 -0.56632,-0.43886 -2.40072,0.53652 -1.32041,0.70205 -3.23757,1.29415 -4.26035,1.31576 -2.91031,0.0615 -6.77545,1.87724 -10.19835,4.79095 -1.40381,1.19499 -1.73112,1.84606 -1.73112,3.44348 0,2.24474 -0.41258,3.60358 -1.09416,3.60358 -0.25699,0 -0.31862,-0.92953 -0.13701,-2.06563 0.2636,-1.64848 0.17195,-2.06561 -0.45433,-2.06561 -0.43154,0 -0.94411,-0.63905 -1.13903,-1.4201 -0.19499,-0.78108 -0.72091,-1.82679 -1.16884,-2.32383 -0.88594,-0.98308 -2.98272,-1.21548 -3.49455,-0.38731 -0.17546,0.28404 -0.11691,0.51642 0.13038,0.51642 1.22426,0 2.58897,2.1573 2.91382,4.60616 0.42428,3.19832 0.79626,4.25379 1.37346,3.89707 0.24001,-0.14834 0.6701,0.16707 0.95578,0.7008 0.57518,1.07475 -0.79689,6.28809 -1.65494,6.28809 -0.44137,0 -0.38764,-0.39855 0.47096,-3.4934 0.24887,-0.89713 0.14599,-1.10109 -0.44186,-0.87552 -0.57015,0.21879 -0.84953,-0.2261 -1.09125,-1.73785 -0.39336,-2.45989 -1.85482,-4.40469 -3.11861,-4.14998 -0.86974,0.17527 -0.86193,0.26973 0.12589,1.52247 1.54457,1.95895 1.8996,5.8866 0.93743,10.37122 -0.89174,4.1564 -0.99493,5.30454 -0.91389,10.16846 0.0547,3.28473 0.0547,3.28473 1.01904,2.09385 0.86392,-1.06692 0.8908,-1.36678 0.25819,-2.88084 z m 18.68108,-28.54045 c -0.35274,-0.57076 0.46187,-1.18705 0.93872,-0.71019 0.49099,0.49098 0.39949,1.19091 -0.15575,1.19091 -0.26725,0 -0.61962,-0.21634 -0.78303,-0.48072 z m 20.3913,30.97731 c -0.29555,-0.55223 -0.8044,-1.16909 -1.13077,-1.3708 -0.39763,-0.24575 -0.45539,-0.12745 -0.17507,0.35854 1.10756,1.91998 2.27659,2.82623 1.30578,1.01226 z m 11.84566,0.61674 c -0.01,-0.21302 -0.63073,-0.83563 -1.38179,-1.38359 -1.2406,-0.90513 -1.33362,-0.91307 -1.01657,-0.0868 0.19186,0.50017 0.34897,1.12279 0.34897,1.38358 0,0.2608 0.46478,0.47416 1.03282,0.47416 0.56804,0 1.02551,-0.17429 1.01657,-0.3873 z m 40.71368,-1.03292 c 0.12804,-0.86677 -0.0511,-1.02598 -0.9037,-0.80303 -1.05062,0.27475 -1.39766,1.20051 -0.70841,1.88976 0.60797,0.60797 1.4451,0.0437 1.61211,-1.08673 z m -44.29809,-0.10246 c -1.2017,-2.24537 -4.73508,-3.36309 -6.7006,-2.11962 -0.49413,0.31261 -0.0562,0.38469 1.29101,0.21251 1.73141,-0.22127 2.31126,-0.0244 3.84619,1.30546 2.15248,1.86498 2.26207,1.90714 1.5634,0.60165 z m 38.52833,-1.42762 c 1.64864,-1.74806 1.64864,-1.74806 3.62934,-0.92387 1.79385,0.74645 1.90424,0.74721 1.17032,0.008 -0.44571,-0.44889 -1.60761,-0.92725 -2.58203,-1.06303 -1.5438,-0.21514 -2.1037,0.0568 -4.35366,2.11401 -2.42782,2.2199 -2.49037,2.33857 -1.04731,1.98688 0.84409,-0.20572 2.27661,-1.16066 3.18334,-2.12207 z m -75.1202,0.1255 c 0.67912,-1.49051 -0.11867,-2.85551 -1.66897,-2.85551 -1.40927,0 -1.6503,0.82524 -0.74969,2.56684 0.98146,1.89791 1.64912,1.97761 2.41866,0.28867 z m 66.01271,-0.40402 1.29101,-0.509 -1.44998,-0.50783 c -1.1532,-0.4039 -1.65529,-0.32206 -2.45292,0.39978 -2.04346,1.8493 -1.08676,2.07531 2.61189,0.61705 z m -40.64629,-0.386 c -0.3148,-1.20381 -0.82573,-1.31024 -1.63113,-0.33978 -0.67361,0.81166 -0.2638,1.3726 1.00282,1.3726 0.64416,0 0.82196,-0.2923 0.62831,-1.03282 z m 26.18698,-1.13151 c 0,-0.22975 -1.85905,-0.4177 -4.13124,-0.4177 -2.27216,0 -4.13121,0.12198 -4.13121,0.27098 0,0.39853 2.53879,1.30706 4.90583,1.75559 1.99476,0.378 3.35662,-0.27477 3.35662,-1.60887 z m -41.82872,0.87331 c 0,-0.99251 0.38528,-0.97951 1.41243,0.0476 0.92869,0.92868 3.5306,0.65288 4.67953,-0.49604 0.5671,-0.56713 -0.12804,-0.74115 -4.08085,-1.02173 -2.62041,-0.18601 -4.90013,-0.2018 -5.06605,-0.0351 -0.33625,0.33777 1.87484,2.27975 2.59575,2.27975 0.25256,0 0.45919,-0.34856 0.45919,-0.77459 z m 19.36514,-0.2582 c 0.90722,-1.00246 0.90197,-1.03281 -0.1782,-1.03281 -0.76856,0 -1.11283,0.3195 -1.11283,1.03281 0,0.56805 0.0802,1.0328 0.17819,1.0328 0.098,0 0.59876,-0.46475 1.11284,-1.0328 z m 31.47339,0.0441 c 0.40007,-0.64732 -0.61121,-0.91801 -2.43149,-0.65085 -1.08574,0.15926 -1.3199,0.34903 -0.82108,0.66514 0.92607,0.58684 2.88638,0.57825 3.25257,-0.0137 z m 9.06434,-1.66227 c 0,-0.74829 -1.48451,-0.84451 -1.76469,-0.11438 -0.54267,1.41417 -0.31741,1.75161 0.73187,1.09633 0.56805,-0.35475 1.03282,-0.79661 1.03282,-0.98193 z M 340.5799,245.8727 c -0.55631,-0.55631 -14.09762,-1.17531 -25.42037,-1.162 l -6.34912,0.008 1.85228,-2.14181 c 3.05824,-3.53628 3.5396,-5.07298 3.7702,-12.03586 0.1294,-3.90721 -7.8e-4,-6.63826 -0.34456,-7.22966 -0.41694,-0.71724 -0.55637,0.45199 -0.56822,4.76538 -0.0203,7.35397 -0.83454,10.14324 -3.984,13.64622 -1.32489,1.47359 -3.00735,2.94855 -3.73883,3.2777 -1.08934,0.49018 0.35162,0.64515 7.96534,0.85665 20.16075,0.56002 27.36567,0.56429 26.81728,0.0156 z m 33.86018,0.0353 c 0,-0.25582 0.90343,-2.40536 2.00763,-4.77673 4.11546,-8.83844 5.80676,-13.53811 4.0437,-11.2364 -1.3684,1.78647 -6.95378,6.00293 -9.14975,6.90724 -2.09102,0.86107 -3.77237,0.94886 -16.78313,0.8764 -9.92966,-0.0554 -14.18671,0.0828 -13.58912,0.4409 1.20299,0.7209 6.21969,0.99663 6.99419,0.38442 0.41412,-0.32735 1.20363,-0.30338 2.27177,0.0689 0.92047,0.32088 5.11136,0.57069 9.57424,0.57069 7.42515,0 8.17383,-0.0915 11.60557,-1.42012 2.3314,-0.90252 4.39808,-2.14803 5.67048,-3.41738 1.10112,-1.09849 2.00212,-1.79564 2.00218,-1.54921 5e-5,0.24644 -1.21995,3.19476 -2.71112,6.55183 l -2.71125,6.10377 -13.03919,-0.20734 c -11.68905,-0.18581 -14.44617,-0.002 -12.39369,0.82611 1.17437,0.47386 26.20749,0.35625 26.20749,-0.12316 z m -68.77412,-2.79313 c 0.0978,-0.50742 -0.12101,-1.28252 -0.48614,-1.72245 -0.59299,-0.71448 -0.70391,-0.69807 -1.03916,0.15399 -0.20644,0.52458 -0.39166,1.37748 -0.41163,1.89534 -0.0476,1.23629 1.69245,0.94268 1.93693,-0.3268 z m 3.17689,-1.51847 c 0.41299,-0.63905 1.25117,-2.36935 1.86262,-3.84509 l 1.11173,-2.68319 -1.14339,0.86246 c -0.70749,0.53366 -1.04829,1.2261 -0.89394,1.81633 0.13721,0.52462 -0.20357,1.57633 -0.75725,2.33712 -1.52286,2.09251 -1.81728,2.67427 -1.35335,2.67427 0.23245,0 0.76056,-0.52286 1.17358,-1.1619 z m 76.11206,0.3873 c 0.16356,-0.42603 0.10071,-0.77461 -0.13974,-0.77461 -0.24034,0 -0.72625,0.34858 -1.07984,0.77461 -0.52334,0.63058 -0.49736,0.7746 0.13975,0.7746 0.43042,0 0.91633,-0.34856 1.07983,-0.7746 z m 4.80552,-4.04875 c 0.79323,-1.52503 0.57015,-3.22988 -0.34837,-2.66219 -0.61371,0.37929 -2.27104,3.54844 -2.83437,5.41993 l -0.3886,1.29101 1.40422,-1.29101 c 0.77231,-0.71005 1.74753,-1.95104 2.16712,-2.75774 z m -56.11997,-0.0826 c -0.002,-0.28402 -0.75728,-0.52975 -1.67832,-0.54607 -4.63832,-0.0822 -5.57251,-1.25211 -6.01685,-7.53552 -0.43607,-6.16665 -1.07999,-6.3403 -1.07999,-0.29124 0,5.48445 0.45497,7.00839 2.45459,8.2217 1.47191,0.89309 6.32672,1.00918 6.32057,0.15107 z m 47.4096,-0.36149 c 0.89879,-0.89878 0.78141,-2.99513 -0.16766,-2.99513 -0.70796,0 -1.79464,1.89648 -1.79464,3.13203 0,0.68442 1.2266,0.59886 1.96234,-0.13682 z m 8.19803,-2.80579 c 0.68503,-0.17195 1.15907,-0.57534 1.05346,-0.89649 -0.30625,-0.93107 -2.38429,-0.99405 -3.7289,-0.113 -1.36955,0.89734 -2.239,0.27443 -1.02421,-0.73377 1.13045,-0.93817 0.93664,-3.25431 -0.40272,-4.81301 -1.12878,-1.31365 -1.19438,-1.32716 -1.79268,-0.36914 -0.4943,0.7915 -0.4666,1.29043 0.13565,2.44513 1.018,1.95175 1.01144,3.37146 -0.01,2.02301 -0.40675,-0.53732 -0.84644,-1.23447 -0.97707,-1.54922 -0.31386,-0.75623 -1.33044,0.6694 -1.34104,1.88065 -0.006,0.61837 0.39397,0.9037 1.26494,0.9037 1.35489,0 2.34198,1.28477 2.34198,3.04826 0,0.72167 0.24251,0.9575 0.77462,0.75333 0.45197,-0.17352 0.77949,-0.006 0.78636,0.4035 0.006,0.38542 0.38563,-0.0578 0.8426,-0.9848 0.47427,-0.96214 1.36539,-1.81968 2.07636,-1.99813 z m -43.21022,1.10167 c -1.371,-1.45935 -2.06563,-1.64165 -2.06563,-0.54206 0,0.81443 1.36826,1.79228 2.54293,1.81736 0.50377,0.0117 0.35337,-0.39109 -0.4773,-1.2753 z m 4.27914,0.30082 c -1.48076,-0.50474 -3.04934,-1.21405 -3.48573,-1.57622 -0.55096,-0.45726 -0.79341,-0.47904 -0.79341,-0.0712 0,0.99565 3.25796,2.63568 5.16403,2.59951 1.75714,-0.0334 1.73252,-0.0597 -0.88489,-0.95203 z m 11.09187,-0.0324 c 2.5169,-1.1424 7.76989,-5.89461 8.43105,-7.62727 0.29804,-0.78108 0.8707,-1.16192 1.74714,-1.16192 1.67991,0 1.65598,0.69012 -0.0675,1.94555 -1.13834,0.82923 -1.41296,1.50194 -1.61686,3.96087 -0.23889,2.88067 -0.21188,2.95723 0.98392,2.78813 1.10285,-0.15594 1.21221,-0.39488 1.06102,-2.31795 -0.17253,-2.19368 1.01814,-5.34377 2.01971,-5.34377 0.29348,0 0.38871,0.23446 0.21161,0.52102 -0.49604,0.80263 0.24108,2.5774 1.07046,2.5774 0.46087,0 0.74278,-0.53542 0.74772,-1.42012 0.0137,-2.38923 0.65138,-2.90284 3.11663,-2.50864 1.83242,0.29302 2.09897,0.23322 1.60633,-0.36039 -0.32488,-0.39145 -0.4184,-0.89159 -0.20785,-1.11141 0.21054,-0.21983 -1.18575,-0.30364 -3.10291,-0.1862 -1.91714,0.11749 -3.48573,0.0281 -3.48573,-0.1983 0,-0.22646 -0.49093,-0.41177 -1.09096,-0.41177 -0.68839,0 -2.84889,1.76268 -5.85482,4.77673 -2.62011,2.62721 -5.78918,5.28518 -7.04239,5.90662 -2.81987,1.3983 -1.55407,1.5456 1.47338,0.17156 z m 2.96131,0.5061 c -0.17546,-0.28402 -0.65399,-0.5164 -1.06328,-0.5164 -0.40926,0 -0.74413,0.23238 -0.74413,0.5164 0,0.28402 0.4785,0.51639 1.06331,0.51639 0.5848,0 0.91965,-0.23237 0.7441,-0.51639 z m 3.25978,-0.653 c 0.20552,-1.06719 -1.28524,-1.7863 -2.07203,-0.9995 -0.78681,0.78681 -0.0677,2.27757 0.99948,2.07203 0.49465,-0.0953 0.97729,-0.5779 1.07255,-1.07253 z m -27.27255,-0.1216 c -0.35358,-0.42603 -0.83951,-0.77462 -1.07983,-0.77462 -0.24032,0 -0.30321,0.34859 -0.13975,0.77462 0.16356,0.42603 0.64941,0.7746 1.07983,0.7746 0.63708,0 0.66307,-0.14404 0.13975,-0.7746 z m 2.73093,-0.26097 c -0.14892,-0.56954 0.034,-1.40265 0.40622,-1.85132 0.59423,-0.71599 0.49168,-0.79461 -0.83835,-0.64276 -1.8115,0.20683 -2.36104,1.82939 -0.96524,2.85 1.30228,0.95227 1.71216,0.84785 1.39737,-0.35592 z m 12.63872,0.40995 c -0.11477,-0.3441 -0.88931,-0.63456 -1.72136,-0.64551 -1.26408,-0.0176 -1.51279,-0.23214 -1.51279,-1.3109 0,-1.55538 -0.85972,-1.99784 -1.32849,-0.6837 -0.46042,1.2907 -0.025,2.23607 1.27122,2.75981 1.65656,0.66936 3.5317,0.60116 3.29142,-0.11964 z m -26.93494,-1.30013 c -0.52495,-0.52495 -0.95806,0.26536 -0.52737,0.96224 0.32536,0.52645 0.447,0.52686 0.62191,0.002 0.11965,-0.35879 0.0771,-0.79275 -0.0945,-0.96435 z m 28.60662,-1.47391 c 0,-2.07705 -0.18054,-2.82311 -0.64551,-2.66816 -0.68112,0.22697 -0.94559,2.43662 -0.52535,4.38952 0.47135,2.19044 1.17086,1.16206 1.17086,-1.72136 z m -53.22591,0.68854 c -0.0305,-1.40644 -0.10813,-1.51102 -0.48011,-0.64551 -0.61305,1.42666 -0.61305,2.32381 0,2.32381 0.28402,0 0.50008,-0.75523 0.48011,-1.6783 z m 45.81253,0.41366 c -0.0429,-0.73072 -0.26694,-1.07242 -0.53035,-0.80932 -0.25073,0.25043 -0.31611,0.81953 -0.14541,1.26464 0.45691,1.19068 0.76054,0.98607 0.67566,-0.45532 z m 10.15703,-3.18354 c 1.17535,0.22533 1.42438,0.17039 0.87117,-0.19225 -0.42603,-0.27928 -1.29745,-0.51134 -1.9365,-0.5157 -1.05551,-0.008 -1.15365,0.21671 -1.07169,2.44502 l 0.0902,2.45291 0.2005,-2.25276 c 0.19809,-2.2255 0.22044,-2.24894 1.84631,-1.93722 z m -0.1616,2.27929 c 0,-1.2012 -0.15497,-1.49746 -0.56771,-1.08477 -0.31223,0.31222 -0.41276,1.05584 -0.2234,1.65247 0.49307,1.55355 0.79111,1.33968 0.79111,-0.5677 z m -19.82582,0.23239 c 1.05548,-1.39041 0.86875,-1.67832 -1.08856,-1.67832 -1.8755,0 -2.35607,0.794 -1.18772,1.96234 0.85384,0.85382 1.471,0.77682 2.27628,-0.28402 z m 8.46494,0.38729 c 0,-0.28402 -0.36231,-0.5164 -0.80511,-0.5164 -0.44279,0 -0.66145,0.23238 -0.48591,0.5164 0.17547,0.28404 0.53783,0.51642 0.80508,0.51642 0.26726,0 0.48594,-0.23238 0.48594,-0.51642 z m 6.71324,-0.41311 c 0,-0.87956 -0.90708,-2.17028 -1.52339,-2.16773 -0.15614,5.3e-4 -0.30877,0.6978 -0.33902,1.54922 -0.042,1.18362 0.17078,1.54804 0.9037,1.54804 0.57894,0 0.95871,-0.36822 0.95871,-0.92953 z m 19.88156,-0.10325 c 0.66276,-0.73234 0.73542,-1.03281 0.24978,-1.03281 -0.37667,0 -1.10983,-0.38458 -1.62923,-0.85464 -0.89853,-0.81314 -0.94438,-0.763 -0.94438,1.03281 0,2.15469 0.86081,2.47127 2.32383,0.85464 z m -45.70177,-0.2744 c 0,-0.43495 -0.36418,-0.93058 -0.80931,-1.10138 -0.97122,-0.37269 -2.03033,0.54117 -1.54231,1.33079 0.52606,0.85119 2.35162,0.67309 2.35162,-0.22941 z m 33.9794,-0.34528 c 0.34082,-0.34082 0.61968,-1.81081 0.61968,-3.26661 0,-2.1557 -0.23959,-2.872 -1.29101,-3.85977 -0.71007,-0.66705 -1.29101,-1.51273 -1.29101,-1.87925 0,-0.67898 -1.55124,-1.73557 -2.54807,-1.73557 -0.84866,0 -0.65997,0.87775 0.61155,2.84462 0.63904,0.98853 1.45238,1.6897 1.80741,1.55817 0.40667,-0.15068 0.64551,0.23253 0.64551,1.03566 0,0.78889 0.29526,1.2748 0.77461,1.2748 0.42603,0 0.7746,0.21578 0.7746,0.47952 0,0.26373 -0.34857,0.82808 -0.7746,1.25411 -0.81195,0.81195 -1.07271,2.914 -0.36148,2.914 0.22722,0 0.69197,-0.27885 1.03281,-0.61968 z m -15.37082,-1.44593 c 0.22869,-1.69772 -0.0644,-2.57049 -1.03814,-3.09163 -0.87029,-0.46577 -1.06826,-0.35413 -1.34795,0.76019 -0.20977,0.83586 -0.0117,1.78952 0.55181,2.6486 0.86798,1.32474 1.63087,1.19284 1.83428,-0.31716 z m 3.9841,-0.74832 c 0.63904,-0.19479 1.16192,-0.57082 1.16192,-0.83569 0,-0.69167 -1.22225,-0.59337 -2.03811,0.16395 -0.55635,0.51642 -0.62255,0.51642 -0.331,0 0.20045,-0.35503 0.12648,-0.64551 -0.16434,-0.64551 -0.59074,0 -1.59787,1.65648 -1.59787,2.62813 0,0.43407 0.28143,0.38327 0.90373,-0.16317 0.49704,-0.43645 1.42656,-0.95289 2.06561,-1.14763 z m -43.75127,-2.61138 c 1.65228,-0.3629 2.0764,-1.74517 0.84821,-2.76448 -0.80598,-0.66889 -2.79494,1.19766 -4.15985,3.90382 -1.1742,2.32802 -1.03863,2.54332 0.47141,0.74873 0.71774,-0.85298 1.99584,-1.7026 2.84023,-1.88807 z m 32.5195,2.32689 c 0.50941,-0.95186 0.39271,-1.03282 -1.48883,-1.03282 -1.12285,0 -2.4327,-0.15009 -2.91076,-0.33353 -0.65458,-0.2512 -0.82285,-0.0927 -0.68144,0.64152 0.11437,0.59357 0.79146,1.10427 1.73069,1.30526 2.52696,0.54078 2.7731,0.49813 3.35034,-0.58043 z m 38.9421,-1.62428 c -0.15009,-0.24274 -0.84002,-0.44133 -1.5333,-0.44133 -0.9763,0 -1.26053,0.2717 -1.26053,1.20494 0,0.66272 0.15712,1.36198 0.34899,1.55393 0.46253,0.46253 2.79596,-1.7494 2.44484,-2.31754 z m -50.8194,1.64245 c 0,-0.27403 -0.46478,-0.74698 -1.03282,-1.05099 -0.87554,-0.46858 -1.03279,-0.39271 -1.03279,0.49825 0,0.70669 0.3383,1.05097 1.03279,1.05097 0.56804,0 1.03282,-0.2242 1.03282,-0.49823 z m 15.49212,-0.27637 c 0,-0.42603 -0.2461,-0.77462 -0.54689,-0.77462 -0.30078,0 -0.41412,0.21481 -0.25187,0.47733 0.16219,0.26253 -0.11457,0.58414 -0.61504,0.71471 -0.69253,0.18054 -0.63231,0.2517 0.25189,0.29728 0.71515,0.0369 1.16191,-0.23792 1.16191,-0.7147 z m -32.02496,-0.90371 c -0.006,-0.90718 -0.11184,-0.99748 -0.48232,-0.41195 -0.26095,0.41246 -0.35987,0.93532 -0.21983,1.1619 0.44791,0.72473 0.71029,0.44451 0.70215,-0.74995 z m 54.42989,-0.55037 c 1.1045,-1.47938 0.8222,-2.20528 -0.97416,-2.5049 -0.88228,-0.14716 -1.05634,0.15556 -1.19425,2.07627 -0.18425,2.56508 0.4759,2.69556 2.16841,0.42863 z m -6.25749,0.85715 c -0.34962,-0.1415 -1.04677,-0.15009 -1.54921,-0.0195 -0.50244,0.13097 -0.21639,0.24667 0.63569,0.25719 0.85206,0.01 1.26314,-0.0966 0.91352,-0.23806 z m -9.3864,-2.08116 c 0.54255,0.14189 0.85622,0.0472 0.69705,-0.21029 -0.15907,-0.25753 -1.3351,-0.46824 -2.61321,-0.46824 -2.41818,0 -2.66933,0.71881 -0.5317,1.52179 0.79966,0.30039 1.15821,0.20489 1.28525,-0.3423 0.10794,-0.46452 0.55885,-0.65886 1.16261,-0.50096 z m 10.02209,0.87068 c 0.1903,-0.30793 -0.43515,-0.51642 -1.54921,-0.51642 -1.11409,0 -1.73953,0.20849 -1.54921,0.51642 0.17546,0.28402 0.87267,0.5164 1.54921,0.5164 0.67652,0 1.37367,-0.23238 1.54921,-0.5164 z m -16.03059,-0.48072 c 0.55855,-0.90376 -0.93084,-1.23898 -6.00519,-1.35162 -3.70337,-0.0822 -5.07544,0.0572 -5.07544,0.51556 0,0.34554 0.15497,0.78317 0.34427,0.97251 0.53211,0.53211 10.40069,0.40669 10.73636,-0.13643 z m 9.57554,0.27065 c 0,-0.20148 -0.87087,-2.15281 -4.74608,-10.63442 -0.97327,-2.13017 -2.03069,-4.45398 -2.34983,-5.16405 -0.57578,-1.28106 -0.58053,-1.27795 -0.61521,0.40351 -0.0221,1.06919 0.2566,1.80641 0.75504,1.99769 0.49858,0.19127 0.67625,0.66157 0.48162,1.27479 -0.17039,0.53701 -0.0619,0.97165 0.2428,0.97165 0.30316,0 0.55121,0.68343 0.55121,1.51874 0,0.8353 0.22223,1.65607 0.49386,1.82396 0.2716,0.16786 0.36978,0.62851 0.21815,1.02366 -0.15419,0.40162 0.19744,0.97169 0.79715,1.29266 0.64073,0.3429 1.07287,1.08686 1.07287,1.84701 0,0.70006 0.23238,1.27284 0.5164,1.27284 0.28402,0 0.51639,0.58096 0.51639,1.29102 0,0.94674 0.27542,1.29101 1.03282,1.29101 0.56804,0 1.03281,-0.0945 1.03281,-0.21007 z m 37.4843,-1.07718 c 0.89962,-1.373 0.64513,-3.7978 -0.47327,-4.50921 -0.77731,-0.49446 -3.53341,-0.4978 -4.27118,-0.006 -0.9007,0.60142 -1.75982,2.52732 -1.70904,3.83117 0.0384,0.98988 0.12706,0.91796 0.51433,-0.4175 0.67843,-2.33999 1.73451,-3.07242 3.36129,-2.33122 1.73697,0.79142 1.60513,3.33995 -0.186,3.59421 -1.50856,0.21413 -0.96468,1.12498 0.67173,1.12498 0.76105,0 1.57798,-0.50266 2.09208,-1.28725 z m -32.83668,-0.56944 c 0,-0.16922 -0.43532,-0.92442 -0.96739,-1.67831 -1.02466,-1.45189 -5.38667,-10.52824 -6.02242,-12.53127 -0.20685,-0.65173 -0.70738,-1.51627 -1.11227,-1.92116 -0.40489,-0.40489 -0.62271,-1.03188 -0.48402,-1.39331 0.28074,-0.73156 -1.58688,-1.42761 -2.00694,-0.74797 -0.50508,0.81724 5.27292,13.91031 7.54969,17.10773 0.89938,1.26306 3.04335,2.08327 3.04335,1.16429 z m 30.88628,-0.85587 c 0.22182,-1.15221 -1.22457,-1.73317 -2.23245,-0.8967 -1.20412,0.99932 -0.9028,1.85224 0.64506,1.82595 0.92395,-0.0156 1.47345,-0.33736 1.58739,-0.92925 z m -7.85302,-0.73414 c -0.16453,-0.51844 -1.7884,-1.95244 -3.60851,-3.18668 -6.45398,-4.3765 -8.95465,-8.33813 -8.30749,-13.16086 0.44208,-3.29424 1.47831,-5.88195 3.03337,-7.57506 0.82864,-0.90221 1.09194,-1.65279 0.87422,-2.49229 -0.31154,-1.20127 -0.31154,-1.20127 -1.56137,0.12901 -1.54965,1.64952 -2.1026,1.68092 -2.1026,0.11945 0,-2.74595 -4.6966,-4.13537 -5.07086,-1.50014 -0.16941,1.19264 0.61395,1.59022 1.2155,0.61691 0.18523,-0.29975 0.72182,-0.47032 1.19238,-0.37905 0.75404,0.14619 0.85555,1.14935 0.85555,8.45422 0,8.17295 0.0197,8.31814 1.4177,10.43422 0.77973,1.18025 2.23212,2.88703 3.22754,3.79282 2.12609,1.93473 2.26016,2.51378 0.58203,2.51378 -0.67527,0 -1.47723,0.30059 -1.78213,0.66795 -0.43954,0.52963 -0.18523,0.62487 1.22779,0.45991 1.086,-0.12686 1.78214,0.0156 1.78214,0.36484 0,0.3402 1.00877,0.57291 2.4833,0.57291 1.36583,0 2.93405,0.32957 3.48493,0.73239 1.18574,0.86704 1.46373,0.71855 1.05651,-0.56437 z m 2.77902,0.21928 c -0.006,-0.93956 -0.10364,-1.01367 -0.50849,-0.38731 -0.64703,1.0012 -0.64703,1.54922 0,1.54922 0.28402,0 0.51284,-0.52286 0.50849,-1.16191 z m -40.10779,-0.12198 c 0.54858,-0.23527 1.18142,-0.15946 1.52339,0.18249 0.32174,0.32173 1.23564,0.58496 2.0309,0.58496 1.10166,0 1.44593,-0.2459 1.44593,-1.03281 0,-0.9842 -0.35842,-1.03481 -7.61695,-1.07527 -4.18933,-0.0234 -8.27507,-0.15009 -9.07943,-0.28154 -1.19337,-0.19518 -1.43,-0.0685 -1.28602,0.68798 0.12121,0.63707 0.82099,1.02598 2.23708,1.24335 2.66122,0.4085 9.53266,0.21077 10.7451,-0.3092 z m -33.21366,-0.73338 c 0,-0.77089 -0.25208,-0.91545 -1.16193,-0.66639 -0.94479,0.25865 -0.99304,0.35317 -0.2582,0.50592 0.49704,0.10325 0.90371,0.40319 0.90371,0.66639 0,0.26321 0.11613,0.47855 0.2582,0.47855 0.14209,0 0.25822,-0.44301 0.25822,-0.98447 z m -6.09772,-4.56687 c 1.07163,-2.39503 1.80243,-2.79354 2.05965,-1.12316 0.13897,0.90251 0.46308,0.67845 2.05412,-1.4201 1.84264,-2.43042 2.22108,-3.77516 2.06182,-7.32638 l -0.0779,-1.73625 -1.8923,2.76907 c -1.04076,1.52298 -2.08647,2.84653 -2.32381,2.94121 -0.23735,0.0947 -0.43153,0.36695 -0.43153,0.60508 0,0.23814 -1.04574,1.9924 -2.32383,3.89838 -1.27809,1.90599 -2.32381,3.93543 -2.32381,4.5099 0,1.02947 0.0156,1.03033 1.10777,0.0607 0.60928,-0.54105 1.54968,-1.97136 2.08979,-3.17845 z m 59.80372,3.75441 c 0,-0.42915 -4.04946,-2.33431 -4.96164,-2.33431 -1.31841,0 2.40165,2.4846 3.79973,2.5378 0.63905,0.0244 1.16191,-0.0671 1.16191,-0.20349 z m 0.30818,-2.68051 c -2.49402,-2.14526 -8.82884,-3.00843 -8.82884,-1.20301 0,0.58805 0.64447,0.77618 2.67585,0.7811 2.14647,0.006 3.11704,0.31852 4.90585,1.58375 1.77021,1.25208 2.2686,1.41529 2.4173,0.79154 0.10305,-0.43216 -0.42355,-1.31117 -1.17016,-1.95338 z m 3.66387,-0.25701 c -0.0586,-1.88626 -0.34458,-3.2668 -0.70115,-3.38521 -0.77054,-0.25588 -0.99249,0.91797 -0.76814,4.06241 0.11906,1.6682 0.41157,2.50804 0.87363,2.50804 0.51761,0 0.66946,-0.81195 0.59566,-3.18524 z m 2.35937,-0.56488 -1.42559,-1.49419 -0.16356,1.90186 c -0.09,1.04601 -0.0258,2.26078 0.14268,2.6995 0.25701,0.66973 0.51187,0.60434 1.58909,-0.40765 l 1.28299,-1.20531 z m 13.80833,3.41974 c 0,-0.1817 -0.40659,-0.62768 -0.90356,-0.99108 -0.76484,-0.55926 -0.81364,-0.89898 -0.31781,-2.21256 0.79702,-2.11159 -0.48866,-1.66954 -1.37621,0.47317 -0.49444,1.19368 -0.49108,1.67578 0.0156,2.2867 0.62985,0.75895 2.58163,1.09443 2.58163,0.44377 z m -85.39391,-2.37847 c -1.78774,-1.3023 -1.72202,-2.81587 0.22486,-5.17776 1.4568,-1.76736 1.50019,-1.92508 0.52965,-1.92508 -0.95095,0 -2.72386,-2.35861 -2.61606,-3.48031 0.0207,-0.21598 -0.29386,-0.46221 -0.69916,-0.54715 -1.22586,-0.25695 -1.42385,1.37345 -0.39898,3.28565 0.73486,1.37108 0.86717,2.24197 0.55252,3.63702 -0.4384,1.94389 -0.84304,2.61835 -1.29794,2.16343 -0.15263,-0.15263 -0.0117,-0.85909 0.31131,-1.56986 0.48273,-1.05952 0.39457,-1.73153 -0.48941,-3.72986 -1.20137,-2.7159 -0.88034,-4.10739 1.13491,-4.91934 1.12814,-0.45455 1.12814,-0.45455 -0.0677,-0.48728 -0.65773,-0.0176 -1.64536,0.20782 -2.19472,0.50184 -1.29222,0.69157 -1.34759,3.93817 -0.10422,6.10476 0.87423,1.52327 0.86625,1.58934 -0.34824,2.88207 -1.2316,1.311 -1.13272,1.5279 0.61539,1.3501 0.49704,-0.0505 0.90371,0.12608 0.90371,0.39238 0,0.26636 0.68661,0.62164 1.52577,0.78947 0.85261,0.17058 1.92448,0.91362 2.42942,1.68427 0.58032,0.88567 0.98363,1.13915 1.1272,0.70845 0.12296,-0.36888 -0.38932,-1.11715 -1.13841,-1.6628 z m 48.72924,0.96524 c 0,-1.12579 -1.95459,-1.33832 -11.50244,-1.25077 -5.90075,0.0541 -8.60423,0.256 -8.48029,0.63321 0.2627,0.7997 3.19478,1.10146 12.10756,1.24611 6.6296,0.10754 7.87517,0.008 7.87517,-0.62855 z m 32.81843,0.23773 c -0.59558,-0.96369 0.79066,-3.20187 2.66982,-4.31059 1.49017,-0.87923 1.72173,-1.18499 1.00233,-1.32355 -0.51455,-0.0992 -1.34323,0.18874 -1.84149,0.63971 -1.14143,1.03297 -2.82783,1.0538 -3.66485,0.0453 -0.8198,-0.98778 -2.52722,-1.00188 -2.9025,-0.024 -0.37535,0.97812 0.74848,2.54359 2.94743,4.10569 2.01941,1.43456 2.19127,1.51788 1.78926,0.86742 z m 6.94467,-1.07615 c 0.66526,-0.42991 0.6496,-0.5017 -0.11086,-0.50849 -0.48705,-0.004 -1.14229,-0.48767 -1.45612,-1.07405 -0.45636,-0.85273 -0.71844,-0.94345 -1.30918,-0.45318 -0.40622,0.33714 -0.73859,1.04928 -0.73859,1.58254 0,0.71538 0.37232,0.96751 1.42011,0.96168 0.78105,-0.004 1.76869,-0.23316 2.19472,-0.5085 z m -86.7676,-3.86931 c 0.52766,-0.16746 1.55949,-0.77653 2.29297,-1.35349 1.74452,-1.37224 1.91118,-4.75982 0.27717,-5.63431 -0.9568,-0.51206 -0.99837,-0.47242 -0.44087,0.42029 0.89996,1.44107 0.1618,3.58649 -1.53588,4.46443 -1.70641,0.88243 -2.96352,3.45737 -2.34399,4.80122 0.33565,0.72803 0.45843,0.57807 0.60608,-0.74034 0.11769,-1.05011 0.53518,-1.7644 1.14452,-1.9578 z m 49.60507,0.98806 c -0.55561,-1.11352 -1.01946,-1.84283 -1.03078,-1.62068 -0.0371,0.72947 1.53631,4.14999 1.7916,3.8947 0.13721,-0.13721 -0.20519,-1.16048 -0.76082,-2.27402 z m -47.52771,-0.85401 c 0,-0.28734 -0.40667,-0.20349 -0.90371,0.18639 -1.29224,1.01344 -1.65424,1.62094 -1.30376,2.18803 0.32647,0.52822 2.20747,-1.49498 2.20747,-2.37434 z m 37.49883,2.18605 c 0.85366,0 1.11342,-0.22312 0.90179,-0.7746 -0.4297,-1.1198 -12.32772,-1.14517 -12.75674,-0.0271 -0.3416,0.89019 2.81116,1.30291 7.61082,0.99633 1.67479,-0.10696 3.58465,-0.19459 4.24413,-0.19459 z m 6.2998,-0.38731 c -0.22857,-1.20498 -4.55194,-1.6419 -4.55194,-0.46003 0,0.9323 0.76706,1.26976 3.00718,1.32299 1.36688,0.0324 1.68129,-0.14326 1.54476,-0.86296 z m 19.10784,-0.51639 c -0.16336,-1.42011 -0.16336,-1.42011 -5.76377,-1.56717 -4.38957,-0.11535 -5.5479,-0.004 -5.35769,0.5164 0.1335,0.3649 0.56221,0.57778 0.95274,0.47304 2.90219,-0.7783 4.96269,-0.59772 7.1651,0.62791 2.98358,1.66034 3.20003,1.65673 3.00362,-0.0502 z m -38.14073,-3.17847 c 0.0156,-0.54932 -0.22919,-0.49854 -1.01117,0.20915 -0.62292,0.56373 -1.02422,1.56898 -1.01117,2.53294 l 0.0217,1.59828 0.98952,-1.80741 c 0.54423,-0.99407 0.99927,-2.1339 1.01117,-2.53296 z m -1.89844,-7.97371 c 1.84016,-0.45353 9.25157,0.20433 10.68036,0.94803 1.75676,0.9144 3.42691,2.76605 4.1967,4.6528 0.85915,2.10574 0.89857,1.70245 1.12139,-11.46606 0.18678,-11.04348 0.16219,-11.39558 -0.66735,-9.55347 -2.11109,4.68761 -6.29912,6.95733 -12.38909,6.71434 l -3.86215,-0.15419 -0.13701,-14.87218 c -0.0884,-9.59352 -0.31753,-14.76064 -0.64551,-14.55793 -0.31488,0.19459 -0.50845,6.05581 -0.50845,15.39559 v 15.08135 l 5.29314,0.0947 c 5.93826,0.10618 8.92994,-0.83584 10.20175,-3.21225 0.37848,-0.70722 0.86531,-1.28586 1.08182,-1.28586 0.21651,0 0.35153,3.36919 0.30005,7.48708 -0.0515,4.11789 -0.2274,7.48743 -0.3909,7.48786 -0.16356,4.3e-4 -0.83196,-0.56833 -1.48545,-1.26394 -1.70939,-1.81957 -4.76904,-2.66182 -10.23333,-2.817 l -4.78639,-0.13584 0.0695,6.11097 c 0.09,7.90001 0.68142,8.84252 0.8699,1.38608 0.13799,-5.4598 0.20478,-5.7723 1.29099,-6.04 z m 19.99421,9.21566 c 0,-0.5164 -0.51639,-0.7746 -1.54921,-0.7746 -1.03279,0 -1.54921,0.2582 -1.54921,0.7746 0,0.51641 0.51642,0.77461 1.54921,0.77461 1.03282,0 1.54921,-0.2582 1.54921,-0.77461 z m 35.78585,0.44851 c 0.17937,-0.17937 0.0705,-0.80366 -0.24184,-1.38731 -0.47834,-0.89379 -0.35325,-1.23242 0.79277,-2.14622 1.70699,-1.36112 1.72093,-1.74646 0.0515,-1.42734 -1.7054,0.326 -3.14152,-0.98879 -3.569,-3.26745 -0.40138,-2.13954 -1.15047,-2.27982 -1.88815,-0.35354 -0.59418,1.55147 0.004,3.08162 1.10239,2.81868 0.9185,-0.21997 2.56544,1.44198 2.56544,2.58879 0,1.65844 -2.66775,0.99773 -3.58931,-0.88895 -0.58438,-1.19637 -0.7997,-1.34339 -0.94538,-0.6455 -0.10383,0.49703 -0.39584,0.9037 -0.64904,0.9037 -0.79909,0 -1.60101,2.0296 -1.13263,2.86656 0.38017,0.67931 0.57113,0.64299 1.39288,-0.26505 1.24501,-1.3757 1.9915,-1.3273 3.68128,0.23872 1.44838,1.34232 1.88007,1.51381 2.42897,0.96491 z M 314.25762,206.9973 c -0.14248,-5.46744 -0.33502,-15.51795 -0.42806,-22.33448 -0.15614,-11.44586 -0.25627,-12.59117 -1.30817,-14.97572 -2.12217,-4.81084 -2.32082,-5.1623 -3.89722,-6.89531 l -1.5748,-1.73125 8.00426,0.33213 c 5.3806,0.22326 7.73716,0.16395 7.1894,-0.18112 -0.64924,-0.40899 -10.18655,-0.72873 -17.47693,-0.58594 -1.07708,0.0211 -0.90589,0.25271 1.23474,1.67061 3.00039,1.98738 5.20805,5.30036 5.91437,8.87555 0.2876,1.45564 0.65125,8.22381 0.80815,15.04034 0.15692,6.81653 0.39806,16.22799 0.53592,20.91435 0.13779,4.68636 0.24941,8.81114 0.24789,9.16619 -10e-4,0.35502 0.22496,0.64548 0.5033,0.64548 0.32192,0 0.41186,-3.61714 0.24715,-9.94076 z m 27.88139,9.46154 c -0.5084,-0.49663 -9.29231,-1.07548 -10.43136,-0.68743 -0.35502,0.12101 -0.6455,0.43294 -0.6455,0.69328 0,0.26035 2.60267,0.47336 5.78371,0.47336 3.56484,0 5.59553,-0.18385 5.29315,-0.47921 z m 32.6963,-3.402 c -0.0753,-0.0605 -0.65989,-0.38214 -1.29893,-0.71464 -0.67855,-0.35304 -1.15875,-1.08032 -1.1543,-1.74825 0.008,-1.07593 0.24163,-1.60828 1.98897,-4.51574 0.61182,-1.01802 0.60302,-1.1347 -0.0662,-0.8779 -0.42445,0.16297 -1.01384,0.0541 -1.30971,-0.24181 -0.78051,-0.78051 -1.6177,2.65143 -1.31166,5.37709 0.13662,1.21718 0.62033,3.09472 1.07482,4.17234 l 0.82635,1.9593 0.69384,-1.65014 c 0.3816,-0.90757 0.63215,-1.69969 0.55679,-1.76025 z m -24.88999,1.1701 c -0.39793,-0.92307 -1.00639,-2.44099 -1.35218,-3.37318 -0.34578,-0.93218 -0.75268,-1.57087 -0.90422,-1.41934 -0.15145,0.15166 -0.0363,0.79806 0.25613,1.43668 0.29242,0.63861 0.90871,2.03256 1.3695,3.09764 0.46081,1.06508 0.95402,1.93652 1.09603,1.93652 0.14209,0 -0.0673,-0.75525 -0.46526,-1.67832 z m -8.55509,0.14501 c 0,-1.12384 -2.41478,-2.08157 -5.24846,-2.08157 -3.03082,0 -3.75016,0.37571 -3.24413,1.6944 0.2179,0.56781 1.30565,0.76794 4.39112,0.80788 2.25581,0.0291 4.10147,-0.16005 4.10147,-0.42071 z m 15.18398,-1.64229 c -0.22592,-0.66762 -0.35501,-1.50436 -0.28687,-1.85938 0.0681,-0.35503 -0.23488,-0.64551 -0.67336,-0.64551 -0.88577,0 -1.08901,1.30795 -0.28084,1.80741 0.28402,0.17546 0.5164,0.93289 0.5164,1.68299 0,0.99136 0.15497,1.20876 0.56771,0.7961 0.34612,-0.34614 0.40739,-1.04146 0.15692,-1.78161 z m 2.73701,-0.17741 c -0.0853,-1.88558 -0.28646,-2.3209 -1.07331,-2.32383 -0.80945,-0.004 -0.91532,0.26111 -0.64551,1.61017 0.17761,0.88758 0.32275,1.93329 0.32275,2.32382 0,0.39053 0.33775,0.71005 0.75057,0.71005 0.5607,0 0.72399,-0.58691 0.6455,-2.32021 z m 2.33283,0.97363 c -0.0792,-0.53747 -0.16649,-1.50008 -0.19361,-2.13915 -0.0496,-1.16418 -0.65642,-1.54353 -1.16158,-0.72615 -0.47453,0.7678 0.32341,4.26017 0.92459,4.04667 0.31613,-0.11223 0.50992,-0.64389 0.43064,-1.18137 z m 2.65477,0.94567 c 0.44492,-0.71989 -0.93734,-4.24672 -1.66441,-4.24672 -0.49715,0 -0.60106,0.34657 -0.34837,1.1619 0.19807,0.63907 0.48465,1.68478 0.63684,2.32383 0.27706,1.16337 0.91068,1.51381 1.37594,0.76099 z m 2.24205,-1.93213 c -0.0792,-1.75889 -0.29567,-2.29724 -0.87966,-2.18763 -0.42603,0.08 -0.75137,0.43269 -0.72295,0.78383 0.0283,0.35112 0.0865,1.33557 0.12901,2.18763 0.0488,0.97522 0.35553,1.54921 0.82801,1.54921 0.56123,0 0.72405,-0.58853 0.64551,-2.33304 z m 1.93289,1.17114 c -0.56596,-1.84994 -1.39169,-2.96918 -1.04771,-1.42012 0.1577,0.71007 0.28986,1.58149 0.29372,1.93652 0.004,0.35502 0.2551,0.6455 0.55826,0.6455 0.33268,0 0.41028,-0.46065 0.19573,-1.1619 z m -21.91949,-1.90605 c 0,-1.40336 -0.23238,-2.69517 -0.5164,-2.87071 -0.32062,-0.19815 -0.51642,0.76924 -0.51642,2.55154 0,1.57889 0.2324,2.87071 0.51642,2.87071 0.28402,0 0.5164,-1.14821 0.5164,-2.55154 z m 7.66315,-0.0308 c -0.3771,-0.85193 -0.86128,-1.54892 -1.07595,-1.54892 -0.55403,0 -0.50096,0.24944 0.49959,2.3476 1.0489,2.19956 1.57859,1.4655 0.57636,-0.7987 z m -26.9162,-0.64521 c 0.0265,-2.38758 -0.0254,-2.52623 -0.43511,-1.16191 -0.40001,1.33218 -0.23944,3.87302 0.24475,3.87302 0.0882,0 0.17371,-1.21999 0.1903,-2.71111 z m 1.69532,-0.12902 c 0,-1.56213 -0.2324,-2.84022 -0.51642,-2.84022 -0.5689,0 -0.72325,4.78504 -0.17215,5.33616 0.62102,0.62101 0.68855,0.37618 0.68855,-2.49594 z m 2.582,0 c 0,-2.18037 -0.17995,-2.84022 -0.77459,-2.84022 -0.59465,0 -0.77462,0.65985 -0.77462,2.84022 0,2.18038 0.17995,2.84021 0.77462,2.84021 0.59464,0 0.77459,-0.65983 0.77459,-2.84021 z m 48.77293,1.76331 c -0.16629,-0.26904 -0.52243,-0.35312 -0.79146,-0.18679 -0.26903,0.16629 -0.3531,0.52243 -0.18679,0.79146 0.16629,0.26903 0.52243,0.35311 0.79146,0.18678 0.26903,-0.16629 0.35311,-0.52242 0.18679,-0.79145 z m -77.82065,-0.15829 c -1.15282,-0.87513 -1.13586,-1.44923 0.11535,-3.90171 1.26073,-2.47123 2.01026,-2.77547 3.49953,-1.42054 1.16191,1.0571 1.16191,1.0571 1.16191,-0.22064 0,-2.29077 -2.2569,-3.3787 -3.61482,-1.74252 -0.35358,0.42603 -0.8468,0.7746 -1.09604,0.7746 -0.81482,0 -0.47767,-1.1614 0.83784,-2.88611 1.34414,-1.76225 1.73492,-4.90761 0.79448,-6.39468 -0.40188,-0.63548 -0.5338,-0.59314 -0.8044,0.2582 -0.178,0.56008 -0.52321,1.39639 -0.76706,1.85847 -0.24385,0.46208 -0.60134,1.68208 -0.79439,2.71111 -0.41383,2.20594 -0.84796,2.33209 -1.99597,0.57999 -0.5753,-0.878 -1.31748,-1.29101 -2.31998,-1.29101 -1.75983,0 -2.50686,0.78765 -2.97714,3.13904 l -0.34991,1.74959 1.67748,-1.41151 c 1.99417,-1.67799 2.68266,-1.74821 3.90429,-0.39834 0.76794,0.84855 0.85938,1.55027 0.56288,4.31898 -0.37694,3.51983 0.28488,5.01586 2.2029,4.97952 0.79376,-0.0156 0.79066,-0.0742 -0.0369,-0.70244 z m 83.5682,-2.52906 c -1.72965,-1.25996 -1.694,-2.32201 0.0849,-2.52734 0.90107,-0.10403 1.48326,-0.51928 1.60158,-1.14244 0.14716,-0.77505 -0.0137,-0.89768 -0.77019,-0.58846 -0.52584,0.21483 -1.94903,0.51195 -3.16265,0.66024 -2.62351,0.3206 -2.90737,0.66887 -2.46539,3.02475 0.31987,1.7052 0.41923,1.77671 2.04468,1.47177 1.31834,-0.24733 1.78427,-0.12297 2.04043,0.54463 0.18249,0.47584 0.19735,1.13466 0.0328,1.46406 -0.16453,0.3294 0.20119,0.0281 0.81278,-0.66941 1.11199,-1.26834 1.11199,-1.26834 -0.21885,-2.2378 z m -41.52,1.82781 c 0.11594,-0.49704 0.0666,-3.45991 -0.10988,-6.58416 -0.28902,-5.11738 -0.32999,-5.29654 -0.41329,-1.80741 -0.0509,2.13016 -0.23903,5.09303 -0.41812,6.58416 -0.20607,1.71546 -0.13175,2.71111 0.20245,2.71111 0.29047,0 0.62299,-0.40667 0.73894,-0.9037 z m 31.56495,-1.4399 c -0.057,-0.55717 0.12023,-1.8618 0.39365,-2.89922 0.63403,-2.40534 -0.10871,-4.56887 -1.56836,-4.56887 -1.37043,0 -1.34704,0.83352 0.0336,1.19456 0.85884,0.22459 1.00247,0.52676 0.70358,1.48034 -0.20654,0.65897 -0.80835,1.75235 -1.33731,2.42969 -1.61647,2.0699 -1.06617,3.81011 1.10384,3.49059 0.43077,-0.0634 0.72867,-0.56373 0.67109,-1.12709 z m -67.23896,-1.88218 c 1.17195,-2.29722 1.41591,-4.52397 0.7486,-6.83271 -0.37047,-1.28172 -0.30861,-1.45652 0.41688,-1.17812 1.63255,0.62647 0.87905,-1.20512 -1.57516,-3.82886 -1.83038,-1.95683 -2.25725,-2.69966 -1.73636,-3.0216 0.65339,-0.4038 -0.57899,-1.51545 -4.42931,-3.99528 -0.83485,-0.53769 -0.85923,-0.68891 -0.1862,-1.154 0.42603,-0.29438 1.40636,-0.53878 2.17852,-0.54313 1.03394,-0.006 1.326,0.19498 1.10832,0.76234 -0.36628,0.95451 0.38665,1.24423 3.68462,1.41772 2.52576,0.13291 2.58533,0.10207 2.73411,-1.41337 0.15204,-1.54921 0.15204,-1.54921 -3.12794,-1.617 -4.10338,-0.0849 -6.84737,-1.40919 -9.417,-4.54507 -1.04269,-1.27247 -2.22468,-3.40635 -2.62664,-4.74198 -0.807,-2.68147 -0.9956,-9.78573 -0.27165,-10.23316 0.25256,-0.15614 0.61836,-0.92503 0.81289,-1.70878 0.19459,-0.78375 0.79534,-1.89847 1.33512,-2.47714 0.9714,-1.04139 0.96704,-1.05195 -0.42558,-1.03282 -3.43344,0.0472 -5.47444,10.06448 -3.47607,17.06068 1.39134,4.87103 1.49966,6.32314 0.57679,7.73163 -1.1114,1.6962 -1.0515,2.18096 0.13662,1.10573 0.53248,-0.4819 1.28773,-0.8084 1.6783,-0.72554 0.48911,0.10383 0.79962,-0.57261 0.99765,-2.17317 0.28749,-2.32381 0.28749,-2.32381 0.91684,-0.8355 0.34616,0.81857 0.50172,1.8905 0.34571,2.38205 -0.19264,0.60663 1.02243,2.45099 3.78209,5.74133 2.23615,2.66619 4.33313,5.63753 4.65995,6.60299 0.82685,2.44271 0.71993,8.28873 -0.18034,9.8637 -0.40591,0.71007 -0.74626,1.47903 -0.75631,1.70881 -0.0396,0.90644 1.08461,-0.33816 2.09555,-2.31975 z m 29.2289,1.36924 c -0.7969,-0.70109 -1.84262,-1.27786 -2.32383,-1.28174 -0.48118,-0.004 -1.39777,-0.14716 -2.03682,-0.31843 -1.02299,-0.27416 -1.1619,-0.11906 -1.1619,1.29806 0,1.60944 0,1.60944 3.48573,1.59312 l 3.48571,-0.0156 z m -32.29243,-1.91452 c -0.29155,-0.29156 -0.91787,-0.38132 -1.39182,-0.19945 -0.75334,0.28909 -0.709,0.4553 0.35259,1.32167 1.03404,0.84389 1.24065,0.8735 1.39184,0.19945 0.0976,-0.43536 -0.0611,-1.0301 -0.35261,-1.32167 z m 5.03879,-0.0666 c 1.10392,-1.78617 1.48075,-5.49038 0.55852,-5.49038 -0.28402,0 -0.5164,0.94106 -0.5164,2.09125 0,1.15019 -0.35454,2.77687 -0.78787,3.61484 -1.07099,2.07106 -0.57973,1.92897 0.74575,-0.21571 z m 50.97172,0.80969 c -0.14053,-0.22724 -2.3037,-0.43793 -4.80721,-0.46819 -3.25794,-0.0394 -4.03808,0.0588 -2.74445,0.34519 2.4632,0.54542 7.86712,0.63345 7.55166,0.12296 z m 3.43175,-0.44196 c -0.34962,-0.1415 -1.04677,-0.15009 -1.54922,-0.0195 -0.50244,0.13096 -0.21639,0.24666 0.63567,0.25718 0.85209,0.01 1.26317,-0.0966 0.91355,-0.23806 z m -65.72223,-1.98507 c 0,-1.57678 -0.16239,-1.80744 -1.27284,-1.80744 -0.75005,0 -1.50298,0.43002 -1.83314,1.04693 -0.48995,0.91546 -0.34632,1.13989 1.14374,1.78721 0.93721,0.40716 1.76212,0.74938 1.83313,0.76049 0.071,0.0117 0.12901,-0.79312 0.12901,-1.78719 z m 58.24465,-3.52741 c 0.11886,-3.56852 0.002,-4.47687 -0.57532,-4.47687 -1.06256,0 -1.97965,8.00837 -1.02628,8.96177 0.98051,0.98049 1.46463,-0.37519 1.6016,-4.4849 z m 2.17462,0.17078 c 0,-2.75415 -0.2104,-4.64763 -0.51642,-4.64763 -0.57317,0 -0.73449,8.38864 -0.17215,8.951 0.64174,0.64174 0.68855,0.34923 0.68855,-4.30337 z m 1.86266,3.83081 c -0.17234,-0.44926 -0.33662,-2.5988 -0.36494,-4.77675 -0.0283,-2.17793 -0.20259,-3.43335 -0.38729,-2.78981 -0.50086,1.74505 -0.0761,8.38339 0.53641,8.38339 0.29108,0 0.3882,-0.36758 0.21582,-0.81683 z m 4.53428,-2.82653 c -0.0632,-2.5166 -0.348,-3.92659 -0.92049,-4.5592 -0.95703,-1.05748 -1.05464,-2.28788 -0.29425,-3.70868 0.65531,-1.22444 0.12804,-1.29117 -1.13942,-0.14424 -0.8043,0.72789 -0.94436,1.68531 -0.94436,6.45507 v 5.60039 h 1.69511 1.69508 z m -14.30344,0.67404 c -0.12999,-0.49703 -0.23616,-0.0904 -0.23616,0.90371 0,0.99407 0.10617,1.40074 0.23616,0.9037 0.12999,-0.49703 0.12999,-1.31037 0,-1.80741 z m 1.57468,-1.19481 c -0.0949,-4.93649 -0.89785,-5.16522 -0.89785,-0.25578 0,2.14692 0.2178,3.90351 0.484,3.90351 0.2662,0 0.45242,-1.64147 0.41385,-3.64773 z m 3.10087,-6.38521 c 0.79017,-0.90575 0.93341,-1.32794 0.45052,-1.32794 -1.88245,0 -3.06614,4.1822 -2.48469,8.77885 0.35926,2.84023 0.35926,2.84023 0.61748,-1.64137 0.21179,-3.6762 0.46639,-4.72024 1.41669,-5.80954 z m 10.95981,2.86917 c -0.27426,-0.90667 -0.40271,0.0995 -0.38711,3.03253 0.023,4.34371 0.0273,4.35784 0.41044,1.35691 0.21293,-1.6679 0.20243,-3.64314 -0.0234,-4.38944 z m -21.53357,-0.41992 -0.50849,-4.03539 -0.0203,5.68043 c -0.0156,4.58262 0.0818,5.36253 0.5085,4.03541 0.35574,-1.10657 0.3624,-2.96598 0.0203,-5.68045 z m 33.13641,5.98038 c -0.45062,-0.72914 -1.25758,-0.53912 -1.25758,0.2961 0,0.46067 0.30294,0.64215 0.77165,0.46229 0.42439,-0.16277 0.64307,-0.50414 0.48593,-0.75839 z m 7.03884,-0.48047 c 0.54936,-0.29401 0.99886,-0.86403 0.99886,-1.26667 0,-0.57142 -0.54648,-0.66739 -2.48971,-0.43726 -3.37714,0.39998 -5.56065,-0.75736 -6.80656,-3.60771 -1.71556,-3.92479 -1.39418,-6.86777 1.4356,-13.147 0.69615,-1.54473 0.68142,-1.78413 -0.16746,-2.72213 -0.92168,-1.01845 -0.95037,-1.00863 -2.949,1.00998 -3.15889,3.19049 -7.08697,3.30416 -11.00152,0.31839 -2.84144,-2.16727 -3.62324,-6.76908 -1.74525,-10.27301 1.07486,-2.00543 1.05641,-2.80353 -0.049,-2.12035 -1.87797,1.16065 -2.71516,7.79339 -1.32173,10.4715 1.54782,2.97488 5.3529,5.27843 8.68224,5.25616 2.13324,-0.0137 5.80946,-1.65482 6.50892,-2.90466 0.29192,-0.52164 0.7071,-0.77209 0.92261,-0.55656 0.21554,0.21551 -0.35908,1.90072 -1.2769,3.74493 -3.38598,6.80345 -1.79734,14.0586 3.54479,16.1888 1.71798,0.68505 4.47813,0.70708 5.71414,0.0457 z m -38.71299,-5.42612 -0.42314,-5.14199 -0.0652,4.13123 c -0.0589,3.73763 0.2956,6.76866 0.73988,6.3244 0.0945,-0.0945 -0.0195,-2.48553 -0.25153,-5.31364 z m 2.65727,4.79878 c 0.13038,-0.35502 0.12687,-2.66489 -0.008,-5.13302 -0.17507,-3.20947 -0.45208,-4.567 -0.9724,-4.76669 -0.59992,-0.23021 -0.71503,0.67018 -0.65623,5.13302 0.0531,4.02938 0.24099,5.4122 0.73543,5.4122 0.36525,0 0.77075,-0.29048 0.90111,-0.64551 z m -42.82789,-1.54921 c -0.18171,-0.92306 -0.60678,-2.34194 -0.94457,-3.15303 -0.61415,-1.47473 -0.61415,-1.47473 -0.92364,0.77459 -0.26347,1.91496 -0.14033,2.38198 0.82839,3.14156 0.62583,0.49071 1.19017,0.89738 1.25407,0.90371 0.0638,0.006 -0.0324,-0.74376 -0.21425,-1.66683 z M 351.991,200.0506 c -0.51263,-2.73262 -0.97389,-1.60203 -0.50683,1.24237 0.22365,1.36224 0.50554,2.04692 0.6264,1.52152 0.12081,-0.52541 0.0669,-1.76915 -0.11965,-2.76389 z m 33.50912,1.98077 c 0.52824,-0.85474 -1.73635,-2.25831 -4.06763,-2.52108 -2.71986,-0.30656 -3.02377,0.3101 -0.92467,1.87621 1.43765,1.07261 4.48468,1.46619 4.9923,0.64487 z m -83.64041,-3.62706 c 0.60803,-1.3484 0.76997,-2.40951 0.49253,-3.22754 -0.22734,-0.67027 -0.38186,-1.34931 -0.34338,-1.50896 0.0384,-0.15966 -0.48805,-0.973 -1.17012,-1.80741 l -1.24009,-1.51715 -0.0176,1.71226 c -0.01,0.94175 -0.2698,2.18167 -0.57683,2.75537 -0.30703,0.57368 -0.39141,1.19746 -0.18756,1.38616 0.20392,0.18873 0.47449,0.0525 0.60128,-0.30245 0.36392,-1.01895 0.95946,-0.75972 1.62863,0.70894 0.50429,1.10681 0.47006,1.57888 -0.18718,2.58203 -0.44239,0.67515 -0.6019,1.22758 -0.35446,1.22758 0.24743,0 0.85751,-0.90398 1.35574,-2.00883 z m 89.14524,-2.49916 c -0.30598,-0.67158 -0.55635,-1.67488 -0.55635,-2.22957 0,-0.55468 -0.23238,-1.0085 -0.5164,-1.0085 -0.28402,0 -0.5164,0.46475 -0.5164,1.03279 0,0.56807 -0.18034,1.03282 -0.40095,1.03282 -0.58348,0 -0.10168,4.26298 0.57638,5.10013 0.91631,1.13128 2.15311,-2.30487 1.41372,-3.92767 z m -91.54673,3.37189 c 0.95529,-0.95527 0.73496,-1.96232 -0.42933,-1.96232 -1.47582,0 -1.68636,-0.98471 -0.76741,-3.58928 0.43706,-1.23876 0.68144,-2.36548 0.54308,-2.50384 -0.13838,-0.13838 -0.41276,0.18835 -0.60981,0.72606 -0.19705,0.53769 -0.78346,1.53182 -1.30317,2.20916 -0.91484,1.19237 -1.30441,4.69188 -0.60064,5.39563 0.56109,0.56111 2.49931,0.39258 3.16728,-0.27541 z m 10.87735,-3.94044 c -1.63003,-1.45642 -1.65714,-1.54583 -0.84474,-2.78569 0.8288,-1.26492 0.82039,-1.28032 -0.6708,-1.22791 -0.83055,0.0291 -1.50715,0.0531 -1.50352,0.0531 0.004,0 0.29358,0.81964 0.64433,1.82142 0.35076,1.00178 1.15793,2.37895 1.79373,3.06036 0.63581,0.6814 1.32767,1.72082 1.53747,2.3098 0.34743,0.97535 0.39689,0.94614 0.55453,-0.32772 0.13018,-1.05224 -0.24397,-1.77123 -1.511,-2.90333 z m 62.45201,2.39123 c 0.90303,-0.90301 0.75994,-1.44593 -0.38102,-1.44593 -0.68238,0 -0.97596,0.32854 -0.92291,1.03282 0.0892,1.1854 0.42521,1.29183 1.30393,0.41311 z m -41.20904,-1.96233 c 0,-1.72135 -0.17214,-2.06563 -1.03279,-2.06563 -1.06371,0 -1.39879,1.54383 -0.71936,3.31441 0.64234,1.67391 1.75215,0.88292 1.75215,-1.24878 z m 4.78516,1.18392 c 0.71279,-0.40073 -0.17312,-1.18409 -1.32991,-1.17601 -1.51104,0.01 -2.63921,0.77276 -2.19874,1.48547 0.31742,0.51358 2.38769,0.33203 3.52865,-0.30946 z m 18.8796,-0.69609 c 0.66065,-0.83635 1.02421,-1.52064 0.80789,-1.52064 -0.54444,0 -2.78368,2.14942 -2.78368,2.67204 0,0.8156 0.78198,0.35991 1.97579,-1.1514 z m -26.66516,-0.74603 c -0.11613,-0.99409 -0.30178,-1.80743 -0.41272,-1.80743 -0.11086,0 -0.2017,0.81334 -0.2017,1.80743 0,0.99408 0.18581,1.80742 0.4127,1.80742 0.22699,0 0.31777,-0.81334 0.20172,-1.80742 z m 24.70616,-0.0271 c 1.19963,-1.94105 1.01431,-2.87423 -0.39434,-1.98569 -1.26146,0.79571 -1.89291,2.02515 -1.52825,2.97546 0.45383,1.18267 0.6388,1.08745 1.92259,-0.98977 z m 34.58229,0.90505 c 0,-1.18974 -0.97918,-2.1689 -2.16889,-2.1689 -1.29314,0 -1.16195,1.26111 0.23237,2.23374 1.53231,1.06888 1.93652,1.05535 1.93652,-0.0648 z M 344.9166,195.2809 c 0.41009,-1.17637 0.3634,-1.65488 -0.20769,-2.12885 -0.61769,-0.51265 -0.73667,-0.26756 -0.73667,1.51746 0,2.52086 0.2274,2.66808 0.94436,0.61139 z m 15.58057,0.60848 c 0,-0.21592 0.59035,-1.02926 1.31192,-1.80741 0.92012,-0.99231 1.08553,-1.41483 0.55387,-1.41483 -0.41691,0 -1.23964,0.61229 -1.82831,1.36065 -1.16823,1.48518 -1.3572,2.25417 -0.55387,2.25417 0.28402,0 0.51639,-0.17663 0.51639,-0.39258 z m 3.61567,-2.1031 c -0.77048,-0.25681 -2.63914,1.47044 -2.258,2.08714 0.16531,0.26741 0.87076,-0.0496 1.56773,-0.7043 0.71784,-0.67435 1.01709,-1.27389 0.69027,-1.38284 z m 9.80981,1.59197 c -0.002,-0.58133 -3.01692,-0.6771 -3.36927,-0.10695 -0.17273,0.27943 0.49345,0.4943 1.53241,0.4943 1.01084,0 1.83743,-0.17429 1.83686,-0.38731 z m -61.96744,-1.38963 c 0,-1.57779 -0.71714,-2.06588 -1.55394,-1.0576 -0.50681,0.61066 -0.50584,0.92835 0.004,1.54353 0.94327,1.13657 1.54922,0.94651 1.54922,-0.48593 z m 25.2593,0.50244 c 3.88149,-0.023 4.02997,-1.10606 0.1952,-1.42408 -3.07695,-0.25516 -4.79835,0.31419 -4.79835,1.58703 0,0.49007 0.27608,0.57548 0.9037,0.27959 0.49704,-0.23432 2.1618,-0.43346 3.69945,-0.44254 z m 22.72981,-0.85226 c 1.52505,-2.06276 0.92178,-2.50225 -3.44927,-2.51297 -3.28104,-0.008 -4.29299,0.64553 -1.9212,1.2408 0.71846,0.18034 1.8061,0.90267 2.41692,1.6052 0.61085,0.70252 1.25741,1.27732 1.43679,1.27732 0.17937,0 0.86194,-0.72465 1.51676,-1.61035 z m 22.75822,0.77251 c 0,-0.68618 -0.14014,-0.72147 -0.7746,-0.19498 -0.42603,0.35356 -0.77461,0.7306 -0.77461,0.83783 0,0.10716 0.34858,0.19499 0.77461,0.19499 0.42603,0 0.7746,-0.37703 0.7746,-0.83784 z m -16.68281,-1.50229 c -0.79691,-0.70109 -1.72643,-1.26634 -2.06563,-1.25611 -0.33918,0.01 0.0804,0.58999 0.93251,1.28843 2.02045,1.65613 3.01993,1.62762 1.13312,-0.0324 z m 3.25632,-1.10255 c 0,-1.32544 -0.15341,-2.25643 -0.34103,-2.06887 -0.40304,0.40304 -0.66216,3.53293 -0.33871,4.09144 0.48973,0.84568 0.67974,0.28033 0.67974,-2.02257 z m 2.999,0.21961 c -0.11574,-1.59771 -0.40327,-2.23664 -1.0625,-2.36167 -0.75391,-0.14306 -0.90371,0.22 -0.90371,2.19025 0,2.03942 0.14502,2.36169 1.0625,2.36169 0.93035,0 1.04275,-0.27243 0.90371,-2.19027 z m 14.72744,1.53912 c 1.11578,0.50838 1.31354,0.44661 1.55756,-0.48661 0.23308,-0.89129 0.54886,-1.01505 1.90014,-0.74479 1.76918,0.35383 1.94212,-0.4413 0.31264,-1.43718 -0.7202,-0.44015 -1.10045,-0.3157 -1.85947,0.6086 -1.11283,1.35518 -1.56318,1.46676 -1.56318,0.3873 0,-1.03652 -2.27156,-1.01128 -3.31974,0.0369 -1.38557,1.3856 -0.81652,2.62134 0.75514,1.63981 0.69795,-0.43588 1.26681,-0.43692 2.21691,-0.004 z m -57.02712,-3.35098 c 2.10039,-2.53553 2.97962,-3.22753 4.10075,-3.22753 0.7849,0 1.70596,0.27887 2.04679,0.61968 0.48197,0.48199 0.61969,0.44756 0.61969,-0.15497 0,-1.123 -1.0636,-2.01398 -2.40417,-2.01398 -2.43353,0 -7.14809,4.19521 -7.51366,6.68598 -0.1294,0.88235 -0.0751,1.53994 0.12082,1.46128 0.19589,-0.0787 1.55934,-1.59539 3.02983,-3.37052 z m 43.72437,-0.52518 c -0.66065,-0.66065 -0.90597,0.46993 -0.5009,2.30851 l 0.43194,1.9606 0.18074,-1.98832 c 0.0993,-1.09359 0.0492,-2.11994 -0.11184,-2.28079 z m 5.89389,1.44946 c 0.5738,-1.12478 1.02372,-2.57717 0.9998,-3.22753 -0.0346,-0.94193 -0.23318,-0.76227 -0.97579,0.88313 -1.94233,4.3036 -1.96115,6.14149 -0.024,2.3444 z m -82.73725,0.10149 c 0.73051,-1.10204 0.70943,-1.15902 -0.36808,-0.99456 -1.08336,0.16531 -2.06565,1.1426 -2.08294,2.07232 -0.0156,0.8246 1.68584,0.0765 2.45102,-1.07776 z m 36.27138,0.91079 c 0,-0.28402 -0.75524,-0.50006 -1.67831,-0.48009 -1.40644,0.0304 -1.51101,0.10812 -0.6455,0.48009 1.42666,0.61307 2.32381,0.61307 2.32381,0 z m 34.15646,-0.64551 c -0.46154,-1.31008 -4.30616,-3.48571 -6.15973,-3.48571 -2.19577,0 -1.05165,1.56875 1.86177,2.55273 1.51101,0.51033 3.00987,1.19046 3.33082,1.51139 0.9461,0.9461 1.40708,0.67041 0.96714,-0.57841 z m -28.00263,0.46041 c -0.53846,-0.46322 -4.08446,-0.743 -3.81111,-0.30071 0.16512,0.26719 1.13862,0.48581 2.16325,0.48581 1.02466,0 1.76619,-0.0833 1.64786,-0.18503 z m 6.23986,-0.5895 c -0.35356,-0.42603 -0.90487,-0.76721 -1.22512,-0.75818 -0.32026,0.01 -0.13116,0.3576 0.42012,0.7746 1.28775,0.97401 1.62133,0.96719 0.805,-0.0156 z m 4.46585,-2.45291 c -0.17917,-1.49113 -0.32766,-3.23398 -0.33012,-3.87304 -0.002,-0.72106 -0.31935,-1.16191 -0.83434,-1.16191 -0.54456,0 -0.72209,0.28082 -0.51642,0.81685 0.17234,0.44926 0.31346,2.19213 0.31346,3.87302 0,2.48776 0.1575,3.05619 0.84653,3.05619 0.71831,0 0.79722,-0.41069 0.52089,-2.71111 z m -16.659,1.03279 c 1.55503,-0.99198 2.49677,-2.45292 1.58124,-2.45292 -0.84464,0 -3.37589,1.701 -3.85026,2.58738 -0.72711,1.35862 -0.004,1.3158 2.26902,-0.13448 z m 6.73206,0.70839 c 0.15419,-0.24945 -0.44213,-0.59802 -1.32509,-0.77461 -2.27591,-0.45517 -3.54188,-0.3982 -3.54188,0.15946 0,0.8294 4.39152,1.3845 4.86697,0.61519 z m 7.52672,-0.51989 c 0,-0.93963 -1.98451,-2.64142 -3.08027,-2.64142 -0.98711,0 -0.54655,1.93129 0.62735,2.75016 1.5759,1.09931 2.45292,1.06043 2.45292,-0.10872 z m 9.29527,-1.43538 c 0,-0.97584 -2.38603,-0.86379 -4.18065,0.19633 -2.55875,1.51148 -1.86493,2.176 1.34043,1.28383 1.63017,-0.45373 2.84022,-1.08434 2.84022,-1.48016 z m 19.60505,-0.88196 c 0.01,-0.24778 -0.33027,-0.16122 -0.7563,0.19244 -0.42604,0.35356 -0.76638,1.13727 -0.75631,1.74154 0.0176,1.0349 0.0611,1.02374 0.75631,-0.19225 0.4059,-0.71005 0.74623,-1.49376 0.7563,-1.74156 z m 9.74272,1.97982 c 0.0941,-0.0824 -0.0802,-0.61921 -0.38731,-1.19289 -0.30703,-0.5737 -0.55824,-1.61087 -0.55824,-2.30482 0,-0.69395 -0.30089,-1.51145 -0.66862,-1.81664 -0.5358,-0.44467 -0.66405,0.1052 -0.64551,2.76769 0.0215,3.07786 0.0992,3.29956 1.05593,3.00956 0.56804,-0.17214 1.10973,-0.38049 1.20375,-0.4629 z m 1.3852,-1.07594 c -1.01277,-2.4239 -0.98878,-3.61994 0.0808,-4.03041 1.09212,-0.41909 1.8118,0.64654 1.45669,2.15695 -0.21537,0.916 -0.049,1.16192 0.78567,1.16192 1.43513,0 1.79259,-1.2002 0.894,-3.00148 -0.64215,-1.28723 -0.64365,-1.55546 -0.0117,-1.95627 0.40329,-0.25547 0.77483,-0.92925 0.82562,-1.4973 0.0734,-0.82001 -0.17371,-0.99848 -1.1987,-0.86621 -0.71005,0.0915 -1.57778,0.53765 -1.9283,0.99117 -0.58223,0.75336 -0.71956,0.75012 -1.58987,-0.0375 -1.19836,-1.08449 -2.61622,-1.10926 -3.02164,-0.0527 -0.36654,0.95522 0.33877,1.78476 1.69559,1.99422 0.74792,0.11554 0.93539,0.51187 0.81541,1.72432 -0.14775,1.49217 1.0619,5.28382 1.68558,5.28382 0.16024,0 -0.0603,-0.84172 -0.49004,-1.87048 z m -28.66031,-0.58245 c 0.004,-0.78106 0.14716,-1.94296 0.31843,-2.58201 0.25113,-0.93706 0.0999,-1.16192 -0.78166,-1.16192 -1.17592,0 -1.33433,0.73008 -0.77029,3.55028 0.39859,1.99292 1.22395,2.1225 1.23352,0.19361 z m -16.10681,-0.30098 c 0.0988,-0.50957 -0.16453,-0.86092 -0.64551,-0.86092 -0.47902,0 -0.81246,0.44152 -0.81246,1.07585 0,1.25849 1.20672,1.08061 1.45797,-0.21493 z m -15.40087,0.18054 c 0,-0.27922 1.14545,-1.08815 2.54547,-1.7976 2.51627,-1.27508 3.71879,-2.34233 2.63919,-2.34233 -0.33596,0 -0.42824,-0.5119 -0.23269,-1.29101 0.24502,-0.97627 0.12159,-1.29101 -0.50656,-1.29101 -0.49514,0 -0.83059,-0.43083 -0.83059,-1.06676 0,-1.48455 -0.85845,-2.93481 -2.14466,-3.62317 -1.05415,-0.56416 -1.06186,-0.5448 -0.24635,0.61947 1.19961,1.71271 1.04484,4.98449 -0.35136,7.4271 -1.58253,2.7686 -1.97395,3.87302 -1.37265,3.87302 0.2751,0 0.5002,-0.22847 0.5002,-0.50771 z m 10.84448,-0.5251 c 0,-0.56805 -0.089,-1.0328 -0.19799,-1.0328 -0.10891,0 -0.3195,0.46475 -0.46805,1.0328 -0.14853,0.56806 -0.0595,1.03281 0.19797,1.03281 0.25743,0 0.46807,-0.46475 0.46807,-1.03281 z m 2.30236,-0.84186 c 0.36935,-1.96884 -0.1497,-2.99088 -1.36749,-2.6923 -0.56851,0.13936 -0.62922,0.649 -0.28267,2.37225 0.54091,2.68959 1.1823,2.81398 1.65016,0.32005 z m 13.42988,0.63011 c 1.12615,-0.39194 2.13574,-0.97719 2.24354,-1.3006 0.37362,-1.12086 -1.05659,-2.10248 -3.0633,-2.10248 -1.99185,0 -2.00239,0.0117 -2.00239,2.06561 0,2.3204 -0.001,2.31997 2.82215,1.33747 z m 9.27789,-1.07925 c -2.2603,-2.13173 -2.80477,-2.24193 -2.80477,-0.56771 0,0.99685 0.37937,1.34047 1.93652,1.75405 2.91588,0.77444 2.9287,0.75691 0.86825,-1.18634 z m -16.23128,-0.5447 c 0,-1.83571 0,-1.83571 -2.41255,-1.67832 -1.32689,0.0867 -2.4886,0.38977 -2.58156,0.67381 -0.1253,0.38262 3.93813,2.74513 4.86502,2.82859 0.0711,0.006 0.12902,-0.81445 0.12902,-1.82408 z m -35.26785,-2.61282 c 0.10579,-2.52293 0.10579,-2.52293 -0.89223,-1.23192 -0.54891,0.71006 -1.0032,1.68397 -1.00951,2.16424 -0.006,0.48027 -0.24766,1.01919 -0.53632,1.1976 -0.9493,0.5867 0.0156,1.25016 1.18677,0.81669 0.94545,-0.34969 1.16395,-0.86424 1.25129,-2.94661 z m 60.05525,2.68414 c 0,-0.40236 0.29048,-0.84878 0.6455,-0.99204 1.00742,-0.4065 -1.19639,-0.32675 -3.48573,0.12608 -2.01894,0.39941 -2.03643,0.42133 -0.7746,0.97032 1.8574,0.80809 3.61483,0.75731 3.61483,-0.10442 z m -65.77187,-1.37152 c -1.57485,-1.23879 -1.99624,-4.61016 -0.57619,-4.61016 0.55547,0 0.69947,-0.33914 0.49336,-1.16191 -0.16004,-0.63905 0.0295,-1.5999 0.42143,-2.13521 0.67488,-0.92191 0.77153,-0.8778 1.83044,0.83555 1.23464,1.99771 1.39916,3.4994 0.57038,5.20664 -0.41861,0.86231 -0.22611,0.77503 0.81736,-0.37064 1.14209,-1.25397 1.31,-1.80192 1.02854,-3.35662 -0.32801,-1.81182 -1.93843,-3.6309 -3.23485,-3.65395 -1.36428,-0.0242 -0.4143,-2.59351 0.95896,-2.59351 1.17836,0 1.28266,-0.81074 0.18346,-1.42588 -0.6891,-0.38565 -0.65499,-0.57028 0.2582,-1.39672 1.4857,-1.34453 1.31697,-2.08327 -0.75511,-3.30584 -1.43994,-0.84956 -1.80742,-0.91332 -1.80742,-0.31357 0,0.41405 0.46476,1.04306 1.0328,1.39782 1.76108,1.0998 1.23193,2.26164 -0.90371,1.98432 -0.35502,-0.0461 -0.6455,0.27492 -0.6455,0.7134 0,1.03742 -0.74239,1.01389 -1.81378,-0.0576 -1.29228,-1.29228 -1.77713,-2.98926 -1.47908,-5.1767 l 0.26882,-1.97281 -1.07,1.21911 c -0.72797,0.82943 -1.07,1.92989 -1.07,3.44266 0,1.82295 0.25584,2.4156 1.42013,3.28968 1.20008,0.90095 1.30009,1.14869 0.64548,1.59898 -0.71502,0.49188 -1.22244,0.4444 -3.7516,-0.35116 -0.71897,-0.22615 -0.83475,-0.0828 -0.5484,0.67927 0.97127,2.58472 3.48758,2.90325 5.59102,0.70773 1.96538,-2.05142 2.34648,-1.95374 1.51103,0.38731 -0.3801,1.06507 -0.70129,2.24921 -0.71376,2.6314 -0.0117,0.3822 -0.51251,1.38283 -1.11123,2.22365 -0.81557,1.14537 -1.42961,1.48911 -2.44849,1.37072 -1.67007,-0.19401 -2.06446,-1.6589 -0.81759,-3.03667 0.49494,-0.5469 0.65995,-0.99438 0.36669,-0.99438 -0.97121,0 -1.76956,1.46538 -1.6007,2.93808 0.15224,1.32798 0.34201,1.44848 2.23204,1.41769 1.98551,-0.0324 2.06705,0.0314 2.10293,1.64389 0.047,2.11247 1.00824,3.29561 2.67756,3.29561 h 1.29744 z m 31.56331,0.42478 c -0.11652,-0.35503 -0.89117,-0.71179 -1.72133,-0.79281 l -1.5094,-0.14736 1.29101,0.74218 c 1.65266,0.95008 2.20522,1.00647 1.93972,0.19793 z m -34.98957,-1.6783 c 0,-0.94674 -0.27541,-1.29102 -1.03281,-1.29102 -1.25651,0 -1.29984,0.39822 -0.1782,1.63765 1.10862,1.22501 1.21097,1.19571 1.21097,-0.34663 z m 5.34598,0.77805 c -1.54146,-0.62195 -2.01445,-1.55267 -0.78906,-1.55267 1.29357,0 1.75292,-1.7446 0.77551,-2.94533 -0.69654,-0.85569 -0.73163,-0.81747 -0.45195,0.49241 0.25206,1.18043 0.12726,1.42011 -0.73942,1.42011 -0.65976,0 -1.04263,0.34134 -1.04263,0.92952 0,1.24509 1.0017,2.17626 2.29798,2.13617 1.03231,-0.0318 1.03106,-0.0439 -0.0503,-0.48021 z m 20.32147,-2.49834 c 0.15516,-1.15694 0.10032,-2.52126 -0.12179,-3.03185 -0.33875,-0.77834 -0.46449,-0.67802 -0.77821,0.6209 -0.2058,0.85206 -0.40167,2.46713 -0.43528,3.589 -0.08,2.66978 0.93995,1.77001 1.33535,-1.17805 z m 40.13182,2.18143 c 1.22494,-0.47004 0.98316,-1.24118 -0.34507,-1.10056 -0.91786,0.0972 -1.19587,-0.17156 -1.32357,-1.27909 -0.13526,-1.17234 0.0763,-1.45523 1.29101,-1.72631 2.89023,-0.64506 3.27024,-0.83149 3.83117,-1.87961 0.55028,-1.02823 0.52846,-1.03594 -0.63186,-0.22322 -0.661,0.463 -2.00327,0.84179 -2.98278,0.84179 -1.80189,0 -3.66969,1.18808 -3.66969,2.33421 0,0.77386 1.98124,3.34624 2.57727,3.34624 0.24016,0 0.80426,-0.14111 1.25352,-0.31345 z m 3.14066,-0.20294 c 0.99575,-0.42789 0.99222,-0.44512 -0.0986,-0.48012 -0.62228,-0.0199 -1.27504,0.1961 -1.45059,0.48012 -0.37749,0.61078 0.12784,0.61078 1.54922,0 z m -35.25991,-3.84884 c 1.43482,-2.07795 1.53256,-2.98366 0.20288,-1.88012 -0.4603,0.38202 -0.85865,0.42486 -1.05135,0.11301 -0.17059,-0.27609 0.38963,-1.00036 1.24505,-1.60944 1.61038,-1.1467 2.1945,-2.94215 0.78066,-2.39962 -0.51987,0.19951 -0.77459,-0.0232 -0.77459,-0.6771 0,-1.44659 -0.56074,-2.64162 -1.08692,-2.31641 -0.25428,0.15711 -0.46229,0.86043 -0.46229,1.56289 0,0.84182 -0.39608,1.43636 -1.16193,1.74419 -0.89022,0.35784 -0.95059,0.47469 -0.2582,0.49977 0.49704,0.0176 0.90371,0.26511 0.90371,0.54913 0,0.28402 -0.40667,0.53476 -0.90371,0.55719 -0.49703,0.0225 -0.62932,0.15263 -0.29397,0.28931 0.42816,0.17449 0.2976,0.77756 -0.43831,2.02484 -1.04804,1.7763 -1.04804,1.7763 0.0769,1.7763 0.99632,0 1.08346,0.18834 0.76265,1.64906 -0.30967,1.4099 -0.25945,1.54045 0.34628,0.90021 0.38965,-0.41186 1.34061,-1.66434 2.11324,-2.78327 z m 37.58373,2.55782 c 0,-0.51639 -0.51641,-0.77461 -1.54921,-0.77461 -1.77559,0 -1.90014,-0.30551 -0.67599,-1.65818 0.84638,-0.93525 0.82651,-0.94056 -0.64551,-0.17293 -0.83529,0.43558 -1.91167,0.79339 -2.39196,0.79515 -0.48027,0.002 -1.00692,0.2195 -1.17032,0.4839 -0.45523,0.73656 0.76535,1.26225 1.41722,0.61038 0.79165,-0.79166 1.40093,-0.71962 1.40093,0.16551 0,0.41117 0.63136,0.83594 1.42013,0.95544 0.78105,0.11828 1.59439,0.24994 1.80741,0.29249 0.21301,0.0426 0.3873,-0.27119 0.3873,-0.69723 z m -16.91224,-0.25115 c 4.67233,-0.01 4.46534,-0.91382 -0.2582,-1.12816 -4.98023,-0.22601 -6.08632,-0.0445 -5.70976,0.93669 0.19439,0.50658 0.68684,0.68043 1.39155,0.49128 0.59987,-0.16102 2.65927,-0.29593 4.57641,-0.29981 z m -10.45717,-0.44988 c 0,-0.60677 -5.57584,-1.14223 -7.92479,-0.76105 -3.74004,0.60694 -2.3862,1.20388 2.73027,1.20388 2.85699,0 5.19452,-0.19927 5.19452,-0.44283 z m 18.64708,-3.73429 c 0.39494,-0.25008 1.52693,-0.45825 2.51555,-0.46261 l 1.79748,-0.008 -1.62219,-1.62219 c -2.61757,-2.61757 -4.36082,-0.92719 -4.2372,4.10871 l 0.0593,2.41931 0.38446,-1.99031 c 0.21146,-1.09467 0.70759,-2.19491 1.10253,-2.44501 z m 20.02466,0.8463 c -0.25181,-0.26981 -0.48118,-1.08315 -0.50972,-1.80741 -0.04,-1.01337 -0.15848,-0.86346 -0.51474,0.65055 -0.25459,1.08203 -0.72767,2.46214 -1.05131,3.06688 -0.54937,1.02647 -0.48474,1.01583 0.97256,-0.16005 0.93917,-0.75773 1.37865,-1.4549 1.10321,-1.75006 z m -1.61325,-4.53256 c 0.20242,-2.70783 1.2e-4,-4.30221 -0.91725,-7.22966 -1.38333,-4.41432 -3.52348,-6.96545 -7.43908,-8.86764 -3.32524,-1.61538 -9.70114,-2.97138 -10.21922,-2.1734 -0.52465,0.80812 -0.0264,1.13418 3.57077,2.33669 1.76273,0.58925 3.97035,1.53422 4.90583,2.09988 0.93548,0.56568 2.22375,1.25803 2.86279,1.53855 0.63905,0.28053 1.16191,0.74817 1.16191,1.03922 0,0.29107 0.42985,0.95906 0.95525,1.48445 2.14551,2.14552 3.2661,7.35526 2.53329,11.7776 -0.43095,2.60075 -0.39713,3.41959 0.16941,4.1023 0.63823,0.76901 0.7792,0.68136 1.43224,-0.89053 0.39838,-0.95894 0.84118,-3.3068 0.98401,-5.21746 z m -8.66776,3.18993 c 0.006,-0.44024 -0.2635,-1.07543 -0.5996,-1.41152 -0.89966,-0.89966 -0.0219,-1.46587 1.14397,-0.73784 1.35825,0.84825 2.33087,0.78685 3.32776,-0.21001 0.77036,-0.77038 0.76698,-0.91224 -0.0431,-1.80743 -0.52682,-0.58216 -1.57132,-0.97143 -2.6065,-0.97143 -2.03645,0 -2.27234,-0.85117 -0.43001,-1.55162 2.04326,-0.77686 2.61068,-2.59947 1.46404,-4.70275 l -0.95399,-1.74989 -0.15536,2.1232 c -0.11418,1.56196 -0.56511,2.51584 -1.70568,3.60856 -1.52316,1.45927 -1.57711,1.47003 -3.07221,0.61194 -1.68723,-0.96833 -1.82184,-0.87137 -0.88123,0.63477 0.50988,0.81646 0.50988,1.23513 0,2.05159 -0.89443,1.43221 -0.81242,1.61901 0.55959,1.27466 1.80628,-0.45334 2.6009,0.85321 2.27539,3.74124 -0.2726,2.41854 -0.2726,2.41854 0.69643,1.15774 0.53297,-0.69344 0.9742,-1.62097 0.98052,-2.06121 z m -71.61446,0.28402 c 1.00785,-2.11353 0.65068,-2.25595 -1.31611,-0.52485 -1.64042,1.44382 -1.82439,2.33226 -0.48295,2.33226 0.5626,0 1.28163,-0.72237 1.79906,-1.80741 z m 87.47209,0.68458 c 1.65974,-1.55925 1.50073,-1.96283 -0.72141,-1.83105 -2.48436,0.14736 -2.79906,-1.05311 -0.96852,-3.69457 0.90196,-1.30155 1.32919,-2.5897 1.31523,-3.96559 l -0.0207,-2.03786 -0.81529,1.54922 c -0.4484,0.85206 -1.35384,2.13017 -2.01207,2.84022 -1.23568,1.33292 -2.29535,3.62411 -2.29535,4.96292 0,1.0515 2.33624,3.29954 3.42897,3.29954 0.49165,0 1.43174,-0.50527 2.08909,-1.12283 z m -30.58948,0.11886 c -0.79452,-0.78974 -20.70387,-0.93605 -21.48223,-0.1579 -0.51656,0.5164 1.61608,0.64551 10.66357,0.64551 7.09667,0 11.12652,-0.18171 10.81866,-0.48763 z m 19.5742,-1.19069 c 0.84583,-2.02047 0.66289,-2.39497 -0.60804,-1.24482 -0.52114,0.47165 -1.45209,0.85751 -2.06877,0.85751 -0.77697,0 -1.12125,0.31712 -1.12125,1.03281 0,0.80308 0.34428,1.03282 1.54773,1.03282 1.25778,0 1.67936,-0.31443 2.25033,-1.67832 z m -81.13599,-0.2842 c 0.13604,-0.5202 -0.21957,-1.51144 -0.79023,-2.20278 l -1.03757,-1.25695 0.33617,1.74286 c 0.18483,0.95857 0.33615,2.07611 0.33615,2.48341 0,0.98679 0.84326,0.42737 1.15548,-0.76654 z m 33.42705,-0.0176 c -0.65821,-0.22666 -0.64525,-2.51727 0.0156,-2.92628 1.34358,-0.83038 0.13877,-6.47429 -2.42781,-11.37293 -1.0782,-2.05788 -1.10618,-4.56365 -0.0582,-5.21136 0.80813,-0.49944 1.05665,0.16161 0.47169,1.25451 -0.62853,1.17444 0.30804,1.86404 1.51693,1.11692 0.38496,-0.23794 1.06103,-0.25535 1.50237,-0.0386 0.44133,0.21664 1.70225,0.44199 2.80204,0.5008 l 1.99961,0.10696 -1.41841,-1.69874 c -2.13872,-2.56146 -4.22473,-3.76831 -5.16481,-2.98811 -0.4177,0.34667 -1.11309,0.49461 -1.54529,0.32875 -0.4621,-0.17722 -1.04306,0.11028 -1.41029,0.69838 -0.42903,0.68702 -0.98187,0.91025 -1.76656,0.71329 -0.98769,-0.24789 -1.16444,-0.0535 -1.30741,1.43857 -0.10695,1.11577 -0.43895,1.7252 -0.93993,1.7252 -0.51509,0 -0.733,-0.43253 -0.65044,-1.29101 0.17254,-1.79371 -1.67604,-3.95335 -2.67454,-3.12469 -0.57885,0.4804 -1.04455,0.41031 -2.16886,-0.3265 -1.13103,-0.74118 -2.46689,-0.93825 -6.3605,-0.93825 -4.18624,0 -5.45473,0.21396 -8.41995,1.42013 -1.92012,0.78105 -4.0412,1.4201 -4.71351,1.4201 -1.50898,0 -2.60415,-1.22903 -2.1799,-2.44634 0.30168,-0.86565 0.28273,-0.86598 -0.38647,-0.006 -0.38703,0.49704 -1.05764,0.90371 -1.49025,0.90371 -1.11557,0 -1.44641,1.80298 -0.56244,3.06501 0.77583,1.10766 2.97219,1.4499 3.52846,0.54981 0.17546,-0.28402 1.53707,-0.5164 3.02562,-0.5164 1.48855,0 2.92724,-0.21383 3.19705,-0.47519 0.26983,-0.26136 1.83944,-0.92672 3.48805,-1.47856 2.64372,-0.88497 2.95782,-0.90505 2.66158,-0.17039 -0.97205,2.41092 -0.97096,2.40108 -0.20439,1.80942 2.10842,-1.62732 7.91583,-1.06937 11.31758,1.08733 2.20578,1.39846 6.72357,6.15453 6.72564,7.08035 8.2e-4,0.36721 0.69728,1.13239 1.54772,1.70044 1.51449,1.01159 1.99709,1.80741 1.09604,1.80741 -0.24924,0 -0.72163,-0.32345 -1.04972,-0.7188 -0.32811,-0.39533 -1.08032,-0.84531 -1.67157,-0.99993 -1.07501,-0.28111 -1.07501,-0.28111 -0.0271,0.84791 0.58375,0.62897 1.21546,2.27263 1.42627,3.71104 0.41188,2.81064 1.77823,5.19997 2.40428,4.20441 0.20392,-0.32426 0.1458,-0.66703 -0.12901,-0.76171 z m 0.56958,-18.89067 c -0.81665,-0.98402 -0.57227,-1.46896 0.42857,-0.8504 0.38141,0.23573 0.59857,0.71335 0.48257,1.06137 -0.15009,0.45005 -0.41309,0.38916 -0.91114,-0.21097 z m -20.43459,-2.36755 c 0.17547,-0.28402 0.75649,-0.51642 1.29102,-0.51642 0.53451,0 1.11547,0.2324 1.29099,0.51642 0.18678,0.3021 -0.34905,0.5164 -1.29099,0.5164 -0.94196,0 -1.47772,-0.2143 -1.29102,-0.5164 z m -1.01794,16.70227 c -0.22189,-1.47969 -0.59536,-2.24296 -1.09749,-2.24296 -0.61065,0 -0.64758,0.21217 -0.18679,1.07315 0.714,1.33411 0.29751,2.54167 -0.87659,2.54167 -0.7027,0 -0.57169,0.33094 0.62928,1.58969 1.47487,1.5458 1.52158,1.55782 1.69234,0.43556 0.0966,-0.63478 0.0242,-2.16348 -0.16083,-3.39711 z m 31.55494,1.87213 c 0.34671,-1.79127 0.34671,-1.79127 -0.76494,-0.80754 -1.09704,0.97085 -1.44602,2.38279 -0.75877,3.07003 0.55751,0.5575 1.14741,-0.31845 1.52371,-2.26249 z m 9.18275,0.42906 c 0.19069,-1.19299 0.58906,-2.46092 0.88507,-2.8176 0.56716,-0.68339 0.20255,-1.72655 -0.60349,-1.72655 -0.71237,0 -2.56204,3.89974 -2.56204,5.40168 0,0.93745 0.27577,1.31156 0.96681,1.31156 0.7363,0 1.0495,-0.51714 1.31365,-2.16909 z m 4.72139,1.42475 c 1.30999,-0.97278 0.4559,-2.54184 -1.51134,-2.77652 -0.75723,-0.0904 -1.24295,-0.38081 -1.07935,-0.64551 0.46261,-0.74852 1.86649,-0.56819 2.90694,0.37339 0.99815,0.90332 1.12536,0.64803 0.61888,-1.24194 -0.22757,-0.84919 -0.6951,-1.16193 -1.73713,-1.16193 -1.45697,0 -2.16819,0.57308 -2.75715,2.22154 -0.21612,0.60493 -0.13448,0.80817 0.23337,0.58085 0.3796,-0.23461 0.44859,0.0197 0.20962,0.77256 -0.37581,1.18406 0.44738,2.6219 1.50108,2.6219 0.33697,0 1.06377,-0.33496 1.61508,-0.74434 z m 4.90158,-1.63347 c 0.95438,-1.97148 1.02845,-2.45547 0.43337,-2.8323 -0.39474,-0.24998 -0.88602,-0.45806 -1.09176,-0.46241 -0.62294,-0.0137 -1.94977,2.95104 -1.94977,4.35588 0,2.10199 1.34102,1.55638 2.60816,-1.06117 z m 10.06497,1.82706 c 0.18718,-0.30291 0.23419,-0.65696 0.10442,-0.78677 -0.36018,-0.36018 -1.93302,0.3529 -1.93302,0.87638 0,0.64642 1.41664,0.577 1.82864,-0.0896 z m -24.06141,-0.70724 c 0.91489,-1.10237 -0.22432,-2.98375 -1.68059,-2.77546 -1.91169,0.27342 -1.83854,3.51706 0.0794,3.51706 0.54218,0 1.26275,-0.33372 1.60127,-0.7416 z m -18.56314,-1.08241 c 0,-0.71918 -0.39955,-2.17157 -0.88788,-3.22753 l -0.88786,-1.91991 -0.17585,2.51639 c -0.2071,2.96379 0.0802,3.93866 1.16073,3.93866 0.50196,0 0.79082,-0.47766 0.79082,-1.30761 z m 13.35256,-2.51636 c 1.59552,-1.41819 1.37607,-1.85648 -0.92959,-1.85648 -1.49345,0 -2.24209,0.29374 -2.80808,1.10183 -0.67117,0.95821 -0.67498,1.19861 -0.0293,1.8443 0.40835,0.40836 0.74333,1.24873 0.74439,1.8675 0.002,1.00383 0.105,0.95814 0.95888,-0.4242 0.52631,-0.85206 1.45496,-1.99189 2.06368,-2.53295 z m -7.67213,-0.59596 c 0,-0.69328 -0.22303,-1.26052 -0.49561,-1.26052 -0.27259,0 -0.44688,0.67451 -0.38731,1.49889 0.12882,1.78149 0.88292,1.57787 0.88292,-0.23837 z m 13.45374,0.10208 c -0.58965,-1.55091 -2.09872,-1.79939 -3.34697,-0.55114 -1.17322,1.17323 -1.01729,1.91702 0.25869,1.23414 0.82405,-0.44102 1.32882,-0.3988 2.19472,0.18366 1.41282,0.95022 1.53811,0.8287 0.89356,-0.86658 z m 31.50015,-1.90933 c -0.74271,-2.51934 -0.99211,-2.95048 -1.02798,-1.7771 -0.0262,0.85206 -0.25172,1.87188 -0.50149,2.26627 -0.31573,0.49858 -0.038,1.07523 0.91161,1.89259 0.75116,0.64654 1.4181,1.12355 1.4821,1.06004 0.064,-0.0634 -0.32491,-1.61232 -0.86424,-3.4418 z m 7.89384,0.0962 c 0.47206,-0.3898 0.85829,-1.23742 0.85829,-1.88357 0,-0.992 -0.25574,-1.16297 -1.64338,-1.09866 -1.35324,0.0626 -1.69915,-0.15127 -1.95916,-1.21217 -0.17371,-0.70856 -0.70196,-1.36266 -1.17395,-1.45357 -0.77823,-0.1499 -0.78816,-0.025 -0.10657,1.34156 0.41344,0.82878 0.90164,2.94127 1.08489,4.69446 0.33317,3.18762 0.33317,3.18762 1.20732,1.75415 0.4808,-0.78842 1.26039,-1.75239 1.73246,-2.1422 z m -37.69016,0.53398 c -1.0677,-0.23948 -1.22548,0.0219 -0.85911,1.42286 l 0.3146,1.20299 0.66179,-1.22555 c 0.55939,-1.03592 0.54124,-1.25259 -0.1173,-1.4003 z m 9.62982,1.17707 c 0,-0.40926 -0.23238,-0.74413 -0.5164,-0.74413 -0.28402,0 -0.5164,0.4785 -0.5164,1.06331 0,0.5848 0.23238,0.91965 0.5164,0.74412 0.28402,-0.17546 0.5164,-0.65401 0.5164,-1.0633 z m 10.32809,0.54689 c 0,-0.43033 -0.45904,-0.7746 -1.03282,-0.7746 -1.2721,0 -1.36621,0.86994 -0.12901,1.19323 0.49704,0.12999 0.96181,0.26312 1.03281,0.29608 0.0711,0.033 0.12902,-0.28868 0.12902,-0.71471 z m -69.69637,-1.25706 c -0.29402,-0.54938 -0.53457,-1.9669 -0.53457,-3.15006 0,-1.75815 0.32097,-2.47218 1.75666,-3.90788 0.96617,-0.96616 1.57443,-1.86928 1.3517,-2.00694 -0.75668,-0.46766 -3.16106,1.91208 -3.96704,3.92638 -0.44147,1.10337 -1.00982,2.00612 -1.26302,2.00612 -0.25319,0 -0.46033,0.2324 -0.46033,0.51642 0,0.28402 0.34857,0.51639 0.77462,0.51639 0.42603,0 0.77459,0.41829 0.77459,0.92953 0,0.96808 0.92498,2.1689 1.67067,2.1689 0.2372,0 0.19069,-0.44949 -0.10324,-0.99886 z m 68.85885,-1.34722 c 0.24535,-0.6394 0.52014,-0.68216 1.39049,-0.21637 0.59658,0.31929 1.20258,0.46262 1.34666,0.31855 0.14404,-0.14404 -0.47407,-0.64258 -1.37365,-1.10777 -0.92705,-0.47939 -1.86456,-1.5026 -2.16412,-2.3619 -0.54663,-1.56807 -0.82837,-1.72616 -2.16318,-1.21394 -0.60573,0.23243 -0.67503,0.5898 -0.30043,1.54921 0.2678,0.68589 0.71354,1.82802 0.99054,2.53807 0.56291,1.44296 1.80593,1.71311 2.27369,0.49415 z m 4.45234,-1.22924 c 0,-0.51281 -0.66635,-1.69557 -1.48077,-2.62836 -0.99854,-1.14368 -1.38981,-2.04941 -1.20146,-2.78111 0.24746,-0.96138 0.18073,-1.0043 -0.58485,-0.37636 -1.45096,1.19001 -1.08151,3.67514 0.81416,5.47646 1.80019,1.7106 2.45292,1.79293 2.45292,0.30937 z m -67.87024,-2.31744 c 0,-2.27178 -0.14229,-2.71655 -0.79304,-2.47781 -1.59413,0.58489 -1.95946,2.10881 -1.06779,4.45406 0.84017,2.20981 1.86083,1.12584 1.86083,-1.97625 z m 69.44135,1.96216 c 0.38124,-1.00272 0.31173,-1.75145 -0.27098,-2.91956 -1.03001,-2.0647 -1.01826,-2.09616 0.63639,-1.70471 1.35335,0.32018 1.33889,0.28535 -0.30744,-0.74097 -1.34725,-0.83986 -1.88726,-0.94444 -2.45294,-0.47496 -0.99066,0.82218 -0.91116,1.64922 0.30746,3.19845 0.56804,0.72215 1.03281,1.9154 1.03281,2.65167 0,1.70951 0.4024,1.70574 1.0547,-0.01 z m 12.88821,-2.78265 c 0.71005,-0.55541 1.56778,-1.01501 1.90604,-1.02133 1.11674,-0.0209 1.36691,-1.18873 0.40526,-1.89191 -0.5197,-0.38001 -0.84568,-0.75141 -0.7244,-0.82536 0.12121,-0.074 0.68527,-0.39055 1.25331,-0.70357 1.22783,-0.67662 1.61865,-2.54508 0.75102,-3.59052 -0.69532,-0.83782 -2.55843,-1.01695 -2.55843,-0.24598 0,0.2751 0.34858,0.36644 0.77461,0.20294 0.42603,-0.16356 0.7746,-0.04 0.7746,0.27442 0,0.31441 -0.20942,0.57165 -0.46538,0.57165 -0.25597,0 -0.96044,0.83902 -1.56549,1.8645 -0.89869,1.52318 -1.33571,1.81947 -2.38716,1.61848 -0.70789,-0.13526 -1.41142,-0.0449 -1.5634,0.20111 -0.15204,0.24592 -0.78551,0.45453 -1.40781,0.46356 -1.10598,0.0156 -1.10887,0.0336 -0.12901,0.77462 0.55133,0.41699 1.54338,0.75818 2.20456,0.75818 1.02444,0 1.15425,0.19088 0.87813,1.29101 -0.38789,1.54545 0.11789,1.61589 1.85355,0.2582 z m -2.19472,-1.90519 c -0.49703,-0.12979 -0.9037,-0.48054 -0.9037,-0.77924 0,-0.64166 3.06349,-0.13916 3.83106,0.62849 0.52498,0.52498 -1.16277,0.61189 -2.92736,0.15067 z m -19.66327,0.0515 c 0.19854,-0.5174 -0.27084,-1.40662 -1.26981,-2.40559 -1.24045,-1.24046 -2.05722,-1.59508 -3.75918,-1.63212 -1.73303,-0.0377 -2.20436,0.14521 -2.32207,0.90095 -0.12999,0.83471 0.17136,0.92748 2.51547,0.7746 2.33365,-0.15224 2.68395,-0.0459 2.83131,0.85912 0.3982,2.44572 1.36447,3.17033 2.00428,1.50304 z m 1.44507,-2.43391 c -0.26985,-1.43845 -0.73898,-2.02691 -2.14958,-2.69626 -1.35309,-0.6421 -1.7399,-1.10281 -1.54657,-1.84208 0.23682,-0.90566 -0.0428,-0.98164 -3.4378,-0.93435 -2.03257,0.0283 -4.24409,0.20541 -4.9145,0.39356 -1.15572,0.32436 -1.11555,0.39252 0.7746,1.31418 1.09644,0.53464 3.06768,1.01772 4.38053,1.07355 2.97789,0.12666 5.54282,1.82995 5.96972,3.96448 0.18913,0.94572 0.48976,1.34597 0.78738,1.04835 0.26478,-0.26478 0.32609,-1.30942 0.13624,-2.32143 z m 3.72541,-0.47155 c -1.02526,-0.65194 -2.29124,-0.45115 -2.62407,0.41622 -0.53724,1.40002 0.16161,1.73746 1.7319,0.83625 1.00841,-0.57876 1.30247,-0.99156 0.89217,-1.25247 z m -71.10117,1.05817 c 0,-0.23669 -0.34857,-0.43034 -0.7746,-0.43034 -0.42605,0 -0.77462,0.19361 -0.77462,0.43034 0,0.23667 0.34857,0.43033 0.77462,0.43033 0.42603,0 0.7746,-0.19362 0.7746,-0.43033 z m 53.1896,-1.48418 c 0.99409,-0.26653 2.50456,-0.54829 3.35662,-0.62616 l 1.54922,-0.14151 -1.73208,-0.93768 c -1.32126,-0.7153 -2.31502,-0.85751 -4.18994,-0.59964 -2.20058,0.30266 -2.48723,0.22586 -2.73813,-0.73355 -0.3628,-1.38737 -1.40972,-1.39097 -1.40972,-0.004 0,1.21718 -0.9146,3.14305 -1.75561,3.6968 -0.73,0.48064 4.54915,-0.0176 6.91964,-0.65335 z m 3.61484,0.53744 c -1.01499,-0.65595 -2.58202,-0.65595 -2.58202,0 0,0.28402 0.75523,0.51284 1.67832,0.50849 1.27356,-0.006 1.4915,-0.12862 0.9037,-0.50849 z m 26.63581,-0.64551 c -0.0291,-0.82755 0.29335,-1.20941 1.1209,-1.32692 1.3927,-0.1978 1.5651,-1.126 0.20913,-1.126 -0.52401,0 -1.37338,0.46476 -1.88745,1.0328 -0.51408,0.56806 -1.50807,1.03281 -2.20887,1.03281 -1.07408,0 -1.17324,0.1216 -0.63134,0.77462 0.35356,0.42603 1.27191,0.7746 2.04075,0.7746 1.11754,0 1.38965,-0.23302 1.35688,-1.16191 z m 3.83202,0.12901 c 0.58802,-1.09872 0.40108,-1.19551 -1.38437,-0.71666 -0.69321,0.186 -1.01941,0.58027 -0.84847,1.02576 0.40337,1.05117 1.59299,0.88648 2.23284,-0.3091 z m -71.43758,-0.63165 c -1.34287,-0.35578 -2.50759,-0.35557 -3.61482,6.9e-4 -1.43582,0.46192 -1.19596,0.52547 1.98123,0.5249 3.40464,-6.2e-4 3.49963,-0.0312 1.63359,-0.52557 z m -7.05582,-0.41098 c 0,-0.31242 -0.57706,-0.38781 -1.42012,-0.18561 -2.0274,0.48638 -2.09553,0.71181 -0.21516,0.71181 0.89941,0 1.63528,-0.23681 1.63528,-0.52624 z m 74.34807,-1.65642 c 1.96007,-1.1281 2.01826,-1.13148 3.07162,-0.1782 0.59055,0.53444 1.07371,0.73176 1.07371,0.43849 0,-1.15131 -1.5457,-1.80529 -3.47861,-1.47179 -1.069,0.18444 -2.81507,0.46702 -3.88015,0.62796 -1.87172,0.28285 -2.31326,0.66807 -1.59224,1.38909 0.6838,0.6838 2.84824,0.32097 4.80567,-0.80557 z m -8.76477,-2.19056 c 0,-0.47982 -0.30043,-0.64313 -0.8179,-0.44456 -0.65853,0.25272 -0.68369,0.39895 -0.12901,0.7505 0.91719,0.58141 0.94701,0.57179 0.94701,-0.30594 z"
       id="path13416" />
  </g>
</svg>
