<?xml version="1.0" encoding="UTF-8" standalone="no"?>
<!-- Created with Inkscape (http://www.inkscape.org/) -->

<svg
   width="68.973877mm"
   height="72.636642mm"
   viewBox="0 0 68.973893 72.63664"
   version="1.1"
   id="svg5"
   inkscape:version="1.1 (c4e8f9ed74, 2021-05-24)"
   sodipodi:docname="ornatec9.svg"
   xmlns:inkscape="http://www.inkscape.org/namespaces/inkscape"
   xmlns:sodipodi="http://sodipodi.sourceforge.net/DTD/sodipodi-0.dtd"
   xmlns="http://www.w3.org/2000/svg"
   xmlns:svg="http://www.w3.org/2000/svg">
  <sodipodi:namedview
     id="namedview7"
     pagecolor="#ffffff"
     bordercolor="#666666"
     borderopacity="1.0"
     inkscape:pageshadow="2"
     inkscape:pageopacity="0.0"
     inkscape:pagecheckerboard="0"
     inkscape:document-units="mm"
     showgrid="false"
     inkscape:zoom="1.8923042"
     inkscape:cx="-52.05294"
     inkscape:cy="206.89062"
     inkscape:window-width="2506"
     inkscape:window-height="1403"
     inkscape:window-x="1974"
     inkscape:window-y="0"
     inkscape:window-maximized="1"
     inkscape:current-layer="layer1" />
  <defs
     id="defs2" />
  <g
     inkscape:label="Layer 1"
     inkscape:groupmode="layer"
     id="layer1"
     transform="translate(534.3175,-694.74518)">
    <path
       style="fill:#000000;stroke-width:0.264583"
       d="m -530.46361,767.10378 c -0.84686,-0.49326 -0.49913,-4.96011 0.56478,-7.25485 0.26987,-0.58209 0.58052,-1.35599 0.69034,-1.71979 l 0.19967,-0.66146 -0.62817,0.56436 c -0.66566,0.59804 -2.15358,1.42001 -2.57047,1.42001 -0.36524,0 -0.51752,-1.83188 -0.17585,-2.11544 0.16039,-0.13311 0.79046,-0.22214 1.40014,-0.19782 1.67934,0.067 1.82027,-0.27719 0.85413,-2.08574 -0.62574,-1.17135 -0.79199,-1.75884 -0.67501,-2.38532 0.0854,-0.45715 -0.009,-1.35012 -0.20942,-1.98437 -0.20055,-0.63425 -0.59045,-1.89732 -0.86645,-2.80683 -0.49171,-1.62038 -1.00504,-2.11106 -1.24557,-1.19062 -0.0968,0.37036 -0.12714,0.3512 -0.15169,-0.0958 -0.0261,-0.4741 0.19654,-0.60442 1.46864,-0.8599 0.82463,-0.16561 1.94172,-0.3011 2.48241,-0.3011 0.79971,0 1.18742,-0.20435 2.07858,-1.0955 1.77972,-1.77972 0.88354,-2.81965 -1.23735,-1.43584 -1.42929,0.93256 -2.65032,1.0782 -3.67943,0.43885 -1.00145,-0.62217 -1.10906,-1.19336 -0.76504,-4.06079 0.20401,-1.70041 0.16755,-2.30179 -0.21266,-3.50797 -0.25239,-0.80066 -0.3827,-1.57901 -0.28959,-1.72967 0.0931,-0.15066 0.0532,-0.41754 -0.0887,-0.59307 -0.14189,-0.17553 -0.33901,-1.15258 -0.43805,-2.17122 l -0.18007,-1.85209 0.94444,-0.9118 c 0.97636,-0.94261 1.2149,-1.60174 0.57966,-1.60174 -0.46473,0 -0.87848,-1.07223 -1.10027,-2.85134 -0.18969,-1.52154 0.0301,-2.04462 1.51652,-3.60836 0.71126,-0.74829 0.89585,-0.80879 2.21432,-0.72571 l 1.43837,0.0906 v 0.90155 c 0,0.71982 0.10481,0.90155 0.51992,0.90155 0.28596,0 1.05792,0.18266 1.71548,0.40591 1.07453,0.36481 1.27501,0.36481 1.98048,0 0.43171,-0.22325 1.14803,-0.40591 1.59182,-0.40591 0.64878,0 0.81456,-0.11665 0.84606,-0.59531 0.0216,-0.32742 0.0513,-0.78443 0.0661,-1.01557 0.0148,-0.23114 0.18605,-0.61287 0.38048,-0.8483 0.51082,-0.61855 0.21561,-0.89253 -1.21015,-1.12314 -2.93758,-0.47512 -3.80011,-0.2913 -4.44007,0.94624 -0.35342,0.68344 -0.40152,0.69509 -1.97856,0.47942 -1.59566,-0.21822 -2.88669,-0.86445 -2.90288,-1.45305 -0.005,-0.16633 -0.17016,-0.36453 -0.36798,-0.44044 -0.53381,-0.20484 -1.32817,-4.64217 -1.13399,-6.33452 0.32345,-2.81894 1.05833,-6.15641 1.46294,-6.64393 0.36058,-0.43447 0.0508,-1.45577 -0.6072,-2.00186 -0.6375,-0.52908 -1.77962,-2.94165 -1.68952,-3.56886 0.11895,-0.82804 0.95104,-0.85693 1.15604,-0.0401 0.23416,0.93293 0.59756,0.85059 1.05261,-0.23851 0.54591,-1.30654 0.49941,-1.42216 -0.60881,-1.51388 -0.86005,-0.0712 -0.99219,-0.17021 -0.99219,-0.74357 0,-0.57139 0.13295,-0.67251 0.97629,-0.74263 2.35245,-0.19559 5.55932,2.37098 5.94043,4.75432 0.25198,1.57582 0.56687,1.19745 0.53118,-0.63826 -0.0177,-0.9095 0.0839,-1.83224 0.22567,-2.05052 0.1418,-0.21828 0.2592,-0.81359 0.26088,-1.32291 0.003,-0.80846 0.0938,-0.93652 0.71757,-1.0085 0.92072,-0.10626 1.79902,0.36739 1.79902,0.97018 0,0.25972 -0.53578,0.95366 -1.19062,1.54209 -0.94024,0.84488 -1.19063,1.24796 -1.19063,1.91665 v 0.84677 l 1.05833,-0.59482 c 0.58209,-0.32715 1.05834,-0.69195 1.05834,-0.81068 0,-0.11872 0.21537,-0.21586 0.47859,-0.21586 0.26323,0 0.70972,-0.17481 0.99219,-0.38846 0.28248,-0.21365 0.97038,-0.39225 1.52867,-0.39688 0.70871,-0.006 1.36752,-0.26151 2.18281,-0.84701 0.64226,-0.46123 1.16774,-0.93285 1.16774,-1.04803 0,-0.51133 1.13297,-1.20713 1.92552,-1.18254 l 0.8526,0.0265 0.21961,2.24896 c 0.21497,2.20138 -0.0149,3.84774 -0.64195,4.59724 -1.33307,1.59347 -1.32871,1.58204 -1.27178,3.3322 0.0614,1.8871 -0.52227,3.73867 -1.36442,4.32854 -0.26502,0.18562 -0.44469,0.56938 -0.39928,0.85278 0.0857,0.53507 -0.27814,1.17674 -0.66731,1.17674 -0.12314,0 -0.15535,-0.17859 -0.0716,-0.39687 0.20094,-0.52366 -0.14098,-0.50416 -0.745,0.0425 -0.94948,0.85927 -0.76193,0.12833 0.2293,-0.89367 0.97524,-1.00551 0.99231,-1.05486 0.52145,-1.50702 -0.46624,-0.44772 -0.51653,-0.44132 -1.19062,0.15162 -0.3871,0.3405 -0.96743,0.91675 -1.28962,1.28055 -0.32219,0.36381 -0.59008,0.53913 -0.59531,0.3896 -0.0158,-0.45001 0.7891,-1.44793 1.1678,-1.44793 0.35185,0 0.79323,-0.76348 0.57027,-0.98644 -0.0643,-0.0643 -0.59081,0.37133 -1.16998,0.96812 -0.95497,0.98403 -1.02473,1.14754 -0.74917,1.756 l 0.30385,0.67093 0.98093,-1.12737 c 0.53951,-0.62005 1.07489,-1.03341 1.18973,-0.91857 0.11484,0.11484 -0.22313,0.60464 -0.75105,1.08844 -0.87872,0.80528 -0.92417,0.91531 -0.53772,1.30176 0.55341,0.55341 0.0606,0.5476 -1.11525,-0.0131 -1.10844,-0.52858 -1.47678,-1.79094 -0.85843,-2.94198 0.21385,-0.39809 0.45396,-0.93215 0.53357,-1.18681 0.0847,-0.27089 0.40628,-0.46302 0.77502,-0.46302 0.70098,0 2.35574,0.51522 2.56133,0.79748 0.0728,0.0999 0.41081,0.3284 0.75123,0.50778 0.54591,0.28767 0.60813,0.27002 0.52733,-0.14952 -0.0504,-0.26162 -0.47296,-0.73267 -0.93907,-1.04679 -0.90055,-0.60688 -0.88074,-0.9027 0.0605,-0.9027 0.71949,0 1.45212,-0.78116 1.45212,-1.54829 0,-0.56981 -0.0135,-0.57195 -0.7276,-0.1151 -0.40019,0.25602 -0.85826,0.63399 -1.01795,0.83993 -0.23697,0.30562 -0.32985,0.31053 -0.50525,0.0267 -0.14343,-0.23207 0.0851,-0.61123 0.68721,-1.13994 3.39309,-2.97962 3.94639,-3.63519 3.94202,-4.67063 -0.003,-0.62798 -0.0725,-0.59321 -1.1459,0.57057 -0.62869,0.68161 -1.4845,1.69364 -1.9018,2.24896 -0.4173,0.55531 -0.94651,1.18825 -1.17603,1.40653 -0.22951,0.21828 -0.63741,0.74272 -0.90643,1.16542 -0.42306,0.66474 -0.43107,0.74627 -0.0593,0.60361 0.23639,-0.0907 0.4298,-0.0734 0.4298,0.0384 0,0.45449 -0.68484,0.83836 -1.49568,0.83836 -2.19375,0 -2.99933,1.244 -3.42671,5.29167 -0.21177,2.0056 -0.35917,2.44174 -0.77171,2.28343 -0.38931,-0.14939 -1.71423,1.32587 -1.71423,1.90873 0,0.51787 0.30507,0.3461 1.21917,-0.68643 l 0.87839,-0.99219 0.86945,0.96972 c 0.47819,0.53335 1.12951,1.0989 1.44736,1.25677 0.72554,0.36037 2.20021,0.37543 2.20021,0.0225 0,-0.14552 0.19133,-0.26459 0.42518,-0.26459 0.27556,0 0.36974,-0.14449 0.26762,-0.41061 -0.0904,-0.23546 -0.046,-0.34166 0.10398,-0.24897 0.14571,0.0901 0.26155,-0.13132 0.26155,-0.49981 0,-0.86929 0.47235,-1.13529 0.9247,-0.52075 0.30873,0.41941 0.29673,0.5653 -0.0838,1.01869 -0.66631,0.79398 -1.10515,1.65653 -1.10872,2.17922 -0.002,0.25663 -0.31163,1.00239 -0.68863,1.65723 -0.37699,0.65485 -0.72613,1.60735 -0.77585,2.11667 -0.0497,0.50932 -0.27905,2.05714 -0.50962,3.43958 -0.27628,1.6566 -0.36849,3.28029 -0.27047,4.7625 0.0818,1.23693 0.19697,3.02287 0.25591,3.96876 0.13813,2.21642 0.68517,4.27533 1.73509,6.5303 0.46199,0.99224 0.94393,2.07196 1.07099,2.39938 0.12705,0.32742 0.34499,0.59532 0.48431,0.59532 0.13931,0 0.32421,0.22341 0.41087,0.49647 0.36878,1.1619 3.83601,5.14528 5.89653,6.7743 1.20009,0.94878 2.2892,1.72506 2.42024,1.72506 0.13105,0 0.93509,0.34034 1.78677,0.75631 2.07179,1.01188 4.39776,1.42279 7.85878,1.38835 3.00101,-0.0299 4.8772,-0.41999 7.06548,-1.46916 0.6627,-0.31773 1.79379,-0.73895 2.51354,-0.93605 0.71974,-0.19709 1.64518,-0.63582 2.05653,-0.97494 0.41135,-0.33913 0.87636,-0.61659 1.03336,-0.61659 0.157,0 0.6757,-0.29766 1.15267,-0.66146 0.47697,-0.3638 0.99668,-0.66146 1.15491,-0.66146 0.15823,0 0.67218,0.54679 1.14213,1.21509 l 0.85444,1.2151 0.058,-1.67812 c 0.0591,-1.71012 0.53324,-8.77978 0.75359,-11.23648 0.0669,-0.74595 0.0276,-1.61053 -0.0874,-1.92129 -0.16116,-0.43566 -0.37885,0.0868 -0.95091,2.28232 -0.78103,2.99746 -1.22286,4.34765 -1.49453,4.56713 -0.0901,0.0728 -0.44132,0.8249 -0.78057,1.67142 -1.4229,3.55052 -6.7987,7.05802 -11.82862,7.71771 -2.64795,0.34729 -6.33215,-0.56532 -7.72123,-1.91262 -0.19569,-0.1898 -0.68666,-0.5162 -1.09106,-0.72532 -1.49659,-0.77391 -5.17442,-5.86788 -6.89244,-9.54636 -1.60744,-3.44169 -2.17784,-7.95565 -1.7197,-13.609 0.17921,-2.21141 0.74706,-5.17763 1.19032,-6.21771 0.12403,-0.29104 0.36255,-1.12448 0.53004,-1.85208 0.52231,-2.26905 3.57125,-7.54063 4.36131,-7.54063 0.19874,0 0.40143,-0.0893 0.45041,-0.19843 0.24332,-0.5422 1.61276,-1.46182 2.89099,-1.94137 2.15525,-0.80859 6.65209,-0.81441 10.29322,-0.0133 2.97283,0.65406 5.02708,1.41971 5.02708,1.87367 0,0.15371 0.17254,0.27946 0.38341,0.27946 0.36744,0 1.73326,1.55338 1.73326,1.97127 0,0.11085 0.27504,0.41789 0.61121,0.68231 0.33617,0.26443 0.94418,1.35313 1.35114,2.41933 0.40696,1.06621 0.95843,2.47433 1.22548,3.12918 0.26705,0.65484 0.62077,1.63711 0.78604,2.18281 0.16528,0.5457 0.33409,0.99219 0.37515,0.99219 0.0411,0 0.0381,-0.50602 -0.007,-1.12448 -0.0447,-0.61846 -0.16498,-3.59503 -0.26728,-6.61458 -0.10231,-3.01956 -0.2711,-5.49011 -0.3751,-5.49011 -0.104,0 -0.50691,0.25 -0.89536,0.55556 -0.83134,0.65393 -1.62981,0.54184 -3.12973,-0.43937 -0.54258,-0.35495 -1.05096,-0.64536 -1.12973,-0.64536 -0.0788,0 -0.64504,-0.31678 -1.25837,-0.70396 -1.2392,-0.78227 -4.38138,-1.57462 -7.20871,-1.8178 -2.32967,-0.20037 -8.23811,0.46766 -10.18646,1.15172 -1.6642,0.5843 -3.85229,1.7118 -4.55347,2.34635 -0.26249,0.23756 -0.70692,0.56156 -0.98762,0.72 -1.05954,0.59805 -3.37608,2.25572 -3.70331,2.65002 -0.52685,0.63481 -0.81658,0.22854 -0.45325,-0.63557 0.49667,-1.18123 2.99956,-3.2093 5.20616,-4.21851 1.08787,-0.49754 2.03748,-0.98428 2.11024,-1.08163 0.17994,-0.24078 3.75067,-1.58353 4.23894,-1.59403 0.80156,-0.0172 -0.55931,-0.73321 -2.27781,-1.19839 -2.16903,-0.58713 -3.01947,-0.2719 -3.01947,1.11922 0,0.48473 -0.0893,0.87755 -0.19843,0.87292 -0.38733,-0.0164 -1.13398,-0.72527 -1.83331,-1.74049 -0.90465,-1.31329 -0.89405,-2.98823 0.0299,-4.72595 0.3549,-0.66747 0.68261,-1.53729 0.72825,-1.93293 0.13173,-1.14212 1.69677,-1.78199 4.3163,-1.76473 1.19279,0.008 2.3864,0.16157 2.73464,0.35216 0.33989,0.18603 0.67885,0.27735 0.75324,0.20296 0.22031,-0.22031 -1.95622,-1.23052 -2.65119,-1.23052 -0.35178,0 -0.79091,-0.18232 -0.97584,-0.40515 -0.27802,-0.33499 -0.24928,-0.47097 0.16604,-0.78533 0.93753,-0.70965 1.74592,-0.45703 3.4127,1.06644 1.52999,1.39844 1.60064,1.43177 1.9505,0.91981 0.19965,-0.29215 0.64613,-0.53119 0.99218,-0.53119 0.72305,0 0.75095,-0.0753 0.29846,-0.80541 -0.27257,-0.43981 -0.26093,-0.5787 0.0661,-0.78983 0.62409,-0.40285 1.18237,-0.17733 1.28093,0.51742 0.0724,0.51046 2.13556,2.89555 2.25786,2.6102 0.86645,-2.02156 2.45538,-3.91668 2.90604,-3.46602 0.0921,0.0921 0.58464,0.1517 1.09461,0.13253 0.58278,-0.0219 0.92722,0.0877 0.92722,0.29504 0,0.47161 -1.55275,1.77065 -2.11646,1.77065 -0.47631,0 -2.11687,1.64754 -2.11687,2.12588 0,0.48933 0.43748,0.24896 1.28104,-0.70385 0.82061,-0.9269 0.89394,-0.9533 2.176,-0.78323 1.46083,0.19379 2.62838,0.63971 2.62838,1.00386 0,0.12915 0.29221,0.49699 0.64935,0.81743 0.48168,0.43218 0.66535,0.89285 0.71129,1.78403 0.0749,1.45358 -0.13129,1.8413 -0.97938,1.8413 -0.35522,0 -0.64585,0.11679 -0.64585,0.25954 0,0.14275 -0.32742,0.34149 -0.7276,0.44165 -1.06456,0.26644 -3.77031,2.06887 -3.77031,2.51158 0,0.11156 0.44648,0.27403 0.99218,0.36105 2.34287,0.37358 3.45725,0.75405 4.78359,1.63319 1.1723,0.77703 1.6632,0.93959 2.91042,0.96377 1.29705,0.0251 1.68648,-0.0951 2.87501,-0.88804 0.75611,-0.50441 1.38119,-1.00414 1.38907,-1.11051 0.0225,-0.30374 -1.31334,-0.58937 -2.78314,-0.59511 -1.0271,-0.004 -1.60038,0.16559 -2.44172,0.72236 -0.60472,0.40018 -1.16764,0.7276 -1.25095,0.7276 -0.29317,0 -0.91821,-1.84525 -0.91821,-2.71075 0,-0.94271 0.40579,-1.65486 1.77217,-3.11008 0.8306,-0.8846 0.95045,-1.21763 1.26601,-3.51779 0.0758,-0.55284 0.43619,-1.32588 0.80167,-1.71979 0.36515,-0.39355 0.72409,-0.90484 0.79766,-1.1362 0.0736,-0.23136 0.39967,-0.55277 0.72468,-0.71425 0.66626,-0.33101 4.95656,-0.56076 4.95656,-0.26543 0,0.1051 0.24803,0.32383 0.55117,0.48607 0.42707,0.22856 0.65049,0.20878 0.99219,-0.0878 0.58902,-0.5113 1.27026,-0.46943 1.79492,0.11031 0.60886,0.67278 0.2963,1.209 -0.91649,1.57237 -1.07097,0.32086 -1.49702,0.86195 -1.70371,2.1637 -0.1686,1.06183 0.1936,0.89203 0.98772,-0.46302 0.40726,-0.69494 0.89138,-1.19063 1.16285,-1.19063 0.2558,0 0.58418,-0.11908 0.72971,-0.26462 0.14554,-0.14554 0.9311,-0.27998 1.7457,-0.29876 1.30696,-0.0301 1.60933,0.0689 2.57217,0.84269 0.6001,0.48225 1.04383,1.00365 0.98607,1.15865 -0.0578,0.15501 0.17611,0.58428 0.51974,0.95393 0.54285,0.58397 1.16129,2.64063 1.16129,3.86193 0,0.40476 -0.99151,0.47871 -1.56351,0.11661 -1.05839,-0.67002 -1.42815,0.64276 -0.55316,1.96395 0.55122,0.83231 0.71789,2.24895 0.26459,2.24895 -0.14552,0 -0.26459,0.11907 -0.26459,0.26459 0,0.14552 0.14883,0.26503 0.33073,0.26557 0.35039,10e-4 1.25677,1.94697 1.25677,2.69816 0,0.24454 0.11907,0.51821 0.26459,0.60814 0.14552,0.0899 0.26458,1.08709 0.26458,2.21589 0,2.0267 -0.012,2.063 -0.95964,2.90197 -0.56072,0.49642 -1.13815,0.79313 -1.38906,0.71376 -0.72991,-0.23089 -4.08317,-0.388 -5.06627,-0.23738 -1.12463,0.17231 -2.35473,1.72962 -1.84825,2.33988 0.18645,0.22466 0.1988,0.41142 0.0339,0.51331 -0.14253,0.0881 -0.33619,0.0355 -0.43034,-0.11684 -0.0978,-0.15827 -0.73393,0.32185 -1.48407,1.12016 -1.5681,1.66878 -1.69873,2.66791 -0.36567,2.79689 0.67325,0.0651 0.854,-0.0554 1.19062,-0.79375 l 0.39688,-0.87055 0.0829,0.85989 c 0.0456,0.47294 0.16467,0.85312 0.26459,0.84483 0.32374,-0.0268 2.21484,-2.67017 2.03731,-2.84769 -0.0946,-0.0946 -0.39937,0.12383 -0.67723,0.48546 -0.46497,0.60517 -0.50632,0.61539 -0.51948,0.12834 -0.014,-0.52041 -0.0207,-0.52073 -0.40003,-0.0193 -0.5178,0.68442 -0.7519,0.38749 -0.36463,-0.4625 0.46963,-1.03071 1.56271,-1.30004 3.36395,-0.82887 l 1.50428,0.39349 0.68121,-0.83073 c 0.55641,-0.67854 0.79878,-0.79448 1.32292,-0.63287 0.96104,0.29632 2.20477,1.93422 2.39979,3.16037 0.0938,0.58988 0.25202,1.32311 0.35154,1.6294 0.14531,0.44719 -0.002,0.66469 -0.74642,1.10407 -0.51006,0.30094 -1.12428,0.84766 -1.36492,1.21494 -0.38154,0.5823 -0.39102,0.76271 -0.0741,1.40948 0.28952,0.59081 0.52259,0.72993 1.14567,0.68383 0.58418,-0.0432 0.68174,0.006 0.38534,0.19439 -0.33852,0.21516 -0.3288,0.25285 0.0661,0.2563 0.47714,0.004 0.6435,0.42063 0.23062,0.57732 -0.12783,0.0485 -0.10699,0.38585 0.0463,0.74965 0.71614,1.69965 0.34775,3.19518 -1.20388,4.88724 -0.75753,0.8261 -0.47891,1.33047 0.73498,1.33047 0.8894,0 1.06494,0.0919 1.13643,0.59531 0.0569,0.40041 -0.0514,0.59531 -0.33073,0.59531 -0.2284,0 -0.41527,0.11042 -0.41527,0.24537 0,0.4403 -2.81819,1.59125 -4.3319,1.76916 -1.22841,0.14438 -1.50612,0.10064 -1.64411,-0.25895 -0.36477,-0.95058 -0.83722,-0.41136 -1.0148,1.15823 -0.26313,2.32578 0.17738,2.8189 0.97345,1.08971 0.25572,-0.55545 0.76734,-1.14769 1.13693,-1.31609 0.97098,-0.44241 2.96638,-0.37842 4.41741,0.14166 1.23563,0.44287 1.25677,0.46966 1.25677,1.59252 0,1.54662 -0.89962,2.92488 -2.05345,3.14597 -0.47455,0.0909 -0.92806,0.27089 -1.0078,0.39992 -0.23553,0.3811 -2.47709,0.26792 -3.40387,-0.17187 -0.83033,-0.39402 -1.79562,-1.74943 -2.4403,-3.42653 -0.35359,-0.91985 -0.1742,-2.65675 0.35946,-3.48046 0.34705,-0.53568 0.30745,-0.58618 -0.72625,-0.92604 -1.0388,-0.34154 -1.56202,-0.92459 -1.95926,-2.18328 -0.0869,-0.27549 -0.2056,-0.45337 -0.26368,-0.39528 -0.0581,0.0581 -0.14213,2.42661 -0.18677,5.26339 l -0.0812,5.15778 0.65602,-0.0715 c 2.32829,-0.25369 3.09313,-0.1659 4.49248,0.51564 0.82877,0.40363 2.41815,0.85402 3.69208,1.04624 2.40656,0.3631 3.18709,0.83253 3.18709,1.91679 0,0.79082 -0.34241,1.05457 -1.92504,1.48284 -0.69498,0.18806 -1.32819,0.44646 -1.40715,0.57421 -0.31055,0.50249 0.83335,4.72222 1.28011,4.72222 0.11,0 0.2,0.21431 0.2,0.47625 0,0.61939 0.50439,1.11125 1.13955,1.11125 0.38385,0 0.45451,0.11078 0.29535,0.46302 -0.11506,0.25466 -0.19555,1.39088 -0.17886,2.52493 0.0384,2.6075 -0.37563,3.62414 -1.90421,4.67582 -1.91125,1.31498 -4.18659,1.88411 -7.34766,1.83789 -2.59182,-0.0379 -2.68868,-0.0595 -2.05834,-0.45935 1.34432,-0.85273 3.70417,-3.39717 3.70417,-3.99392 0,-0.5294 -0.0916,-0.57315 -0.8599,-0.41066 -0.96259,0.20357 -2.57969,1.10912 -2.57969,1.44457 0,0.12008 -0.8632,0.57495 -1.91823,1.01084 -1.6726,0.69104 -2.30783,0.8043 -4.96093,0.88458 l -3.04271,0.0921 0.0831,-0.85989 c 0.112,-1.1593 -0.37618,-1.09913 -0.59616,0.0735 l -0.1751,0.93338 -1.3757,-0.19792 c -0.75663,-0.10886 -1.94424,-0.1927 -2.63914,-0.18631 -1.10503,0.0102 -1.28274,-0.0652 -1.41729,-0.60134 -0.17822,-0.71011 -0.62656,-0.56749 -0.62656,0.19931 0,1.21196 -2.69074,1.08691 -4.43332,-0.20605 -0.9713,-0.72067 -1.36514,-0.64157 -1.21347,0.24371 0.1429,0.83414 -0.12391,1.09292 -1.48999,1.44514 -2.33622,0.60236 -2.1392,-0.54896 0.41335,-2.41543 0.27769,-0.20305 0.42394,-0.45014 0.325,-0.54908 -0.0989,-0.0989 -0.73047,0.24052 -1.4034,0.75434 -0.67294,0.51382 -1.5727,1.01092 -1.99948,1.10466 -0.42677,0.0937 -0.84387,0.28032 -0.92689,0.41465 -0.27598,0.44653 -0.94195,0.25361 -2.3494,-0.68061 -1.17647,-0.7809 -1.4614,-1.13563 -1.83077,-2.27934 -0.2406,-0.74498 -0.43746,-1.61165 -0.43746,-1.92593 0,-0.50667 -0.22494,-0.60722 -1.98474,-0.88722 -1.09161,-0.17368 -2.15928,-0.24881 -2.3726,-0.16695 -0.62785,0.24093 -1.77782,2.49825 -1.46482,2.87538 0.14688,0.17699 0.41563,0.74038 0.59722,1.25198 l 0.33015,0.93019 1.32291,-0.33919 c 1.39822,-0.3585 1.75824,-0.24476 2.27367,0.71832 0.20312,0.37955 0.11531,0.63163 -0.3993,1.14624 -0.52652,0.52652 -0.92559,0.65969 -1.97692,0.65969 -1.23031,0 -1.37737,-0.0742 -2.22871,-1.12448 -0.50131,-0.61846 -0.99356,-1.39237 -1.09387,-1.71979 -0.2314,-0.75524 -1.03459,-0.76779 -4.20976,-0.0658 -1.90312,0.42076 -2.53375,0.69019 -3.35763,1.43451 -1.08373,0.97909 -2.3891,1.74525 -2.95111,1.7321 -0.18912,-0.004 -0.55222,-0.12941 -0.80689,-0.27773 z m 2.65616,-2.56405 c 0.93431,-0.94941 1.32544,-1.45711 3.96262,-5.1436 0.62077,-0.86777 1.30815,-1.75724 1.52752,-1.97661 0.21937,-0.21937 0.57773,-0.74476 0.79635,-1.16753 0.21863,-0.42278 0.52054,-0.76869 0.67091,-0.76869 0.15037,0 0.19204,-0.13164 0.0926,-0.29254 -0.18824,-0.30458 -1.43793,0.83481 -1.43793,1.31102 0,0.1363 -0.16891,0.31264 -0.37535,0.39186 -0.20645,0.0792 -0.83153,0.7374 -1.38907,1.46263 -0.55753,0.72522 -2.00249,2.51943 -3.211,3.98713 -1.86437,2.26423 -2.37251,3.19407 -1.74551,3.19407 0.0698,0 0.56884,-0.44898 1.10886,-0.99774 z m 53.6709,-0.92581 c 0.21942,-0.4243 0.35194,-0.81846 0.29449,-0.87591 -0.13468,-0.13468 -1.10448,1.1929 -1.34755,1.84469 -0.16152,0.43312 -0.13007,0.45351 0.23375,0.15157 0.2312,-0.19189 0.5999,-0.69604 0.81931,-1.12035 z m -33.33309,-1.44989 c 0.54778,-1.12778 1.04983,-2.16958 1.11565,-2.3151 0.0658,-0.14552 -0.0655,-0.11181 -0.29177,0.0749 -0.22629,0.18672 -0.56526,0.7225 -0.75326,1.19062 -0.18801,0.46812 -0.61754,1.26572 -0.95451,1.77244 -0.66285,0.99676 -0.75317,1.32764 -0.36239,1.32764 0.13766,0 0.69848,-0.92273 1.24628,-2.05052 z m 0.97762,0.43244 c 1.00587,-2.12205 0.71828,-2.30329 -0.32906,-0.20738 -0.90143,1.80392 -0.91089,1.8314 -0.62378,1.81218 0.10914,-0.007 0.53792,-0.72947 0.95284,-1.6048 z m -2.89314,0.91875 c 0.25207,-0.65689 -0.0258,-0.74659 -0.36267,-0.11708 -0.16254,0.3037 -0.1849,0.55183 -0.0498,0.55183 0.13507,0 0.32066,-0.19564 0.41242,-0.43475 z m 11.79603,0.20725 c 0,-0.12512 0.77391,-1.15836 1.71979,-2.29609 1.65054,-1.98529 1.96355,-2.50349 1.51219,-2.50349 -0.21147,0 -3.76114,4.60261 -3.76114,4.8768 0,0.0826 0.11906,0.15028 0.26458,0.15028 0.14552,0 0.26458,-0.10237 0.26458,-0.2275 z m 11.71767,-0.6324 c 0.68857,-0.93671 1.23656,-1.83024 2.68297,-4.37473 1.03294,-1.81711 1.0661,-1.90912 0.68797,-1.90912 -0.14148,0 -0.51771,0.6055 -0.83607,1.34555 -0.36462,0.84757 -0.80799,1.43268 -1.19798,1.58096 -0.39338,0.14956 -0.62256,0.45485 -0.62852,0.83725 -0.0126,0.80958 -0.50013,1.62888 -1.37968,2.31864 -0.79863,0.62629 -0.93972,1.06135 -0.3442,1.06135 0.21088,0 0.66786,-0.38695 1.01551,-0.8599 z m 1.84223,-0.2928 c 0.40018,-0.63346 0.7276,-1.26081 0.7276,-1.39412 0,-0.1333 0.53578,-1.15765 1.19063,-2.27631 0.65484,-1.11867 1.18095,-2.18775 1.16913,-2.37572 -0.0118,-0.18798 -0.17099,-0.004 -0.35373,0.4097 -0.18273,0.41331 -0.45658,0.83002 -0.60856,0.92604 -0.15197,0.096 -0.72672,1.06754 -1.27721,2.15894 -0.55049,1.09141 -1.21947,2.26833 -1.48662,2.61537 -0.26715,0.34705 -0.48572,0.734 -0.48572,0.8599 0,0.52086 0.4404,0.15905 1.12448,-0.9238 z m 1.40898,-0.21291 c 0.35204,-0.63136 1.42416,-2.69574 2.38249,-4.58752 1.25779,-2.48292 1.55913,-3.25561 1.08347,-2.77812 -0.36242,0.3638 -1.03261,1.57072 -1.48932,2.68204 -0.45671,1.11131 -1.06301,2.23109 -1.34732,2.4884 -0.28432,0.2573 -0.52099,0.5982 -0.52592,0.75755 -0.005,0.15934 -0.23903,0.76597 -0.52019,1.34805 -0.92549,1.91598 -0.63626,1.97815 0.41679,0.0896 z m -14.85667,-0.68491 c 0.65789,-0.98227 1.4516,-2.10102 1.7638,-2.48612 0.31219,-0.38511 0.51908,-0.8458 0.45976,-1.02376 -0.10707,-0.32123 -2.33577,2.41101 -2.33577,2.86351 0,0.12994 -0.35793,0.73036 -0.79541,1.33427 -0.43747,0.60392 -0.68136,1.09804 -0.54198,1.09804 0.13938,0 0.7917,-0.80368 1.4496,-1.78594 z m -30.76365,0.79375 c 0.36762,-0.40018 0.94957,-1.14432 1.29323,-1.65365 0.34366,-0.50932 1.31532,-1.69829 2.15923,-2.64216 0.84392,-0.94386 1.5344,-1.80546 1.5344,-1.91467 0,-0.1092 0.43648,-0.59855 0.96997,-1.08745 0.69683,-0.6386 0.91917,-1.02128 0.78957,-1.35899 -0.23782,-0.61977 -1.25745,0.50126 -5.20908,5.72712 -2.18273,2.88656 -2.69674,3.6574 -2.43881,3.6574 0.1282,0 0.53387,-0.32742 0.90149,-0.7276 z m 35.86324,0.26458 c 0.0925,-0.25466 0.5854,-0.93246 1.09543,-1.50622 0.56961,-0.64079 0.80432,-1.0842 0.60844,-1.14949 -0.46322,-0.15441 -0.98797,0.36265 -1.74787,1.72226 -0.76006,1.35988 -0.77046,1.39647 -0.39699,1.39647 0.15009,0 0.34853,-0.20836 0.44099,-0.46302 z m 4.52529,-0.70232 c 1.48797,-1.39513 1.91914,-2.66086 1.47323,-4.32476 -0.22237,-0.82979 -1.02594,-0.77407 -1.0963,0.076 -0.1115,1.34728 -0.93913,3.3333 -1.68079,4.03331 -0.41817,0.39468 -0.76031,0.85568 -0.76031,1.02442 0,0.51248 1.12502,0.0716 2.06417,-0.80898 z m -36.35444,-0.002 c 0.45126,-0.49655 1.26408,-1.47881 1.80626,-2.18281 0.54218,-0.704 1.40539,-1.79728 1.91823,-2.42951 1.11376,-1.37303 1.27473,-2.41079 0.26226,-1.6907 -0.35313,0.2512 -2.24023,2.85513 -2.24023,3.09124 0,0.099 -0.36146,0.48422 -0.80325,0.85597 -0.44179,0.37174 -0.99043,1.04866 -1.21919,1.50427 -0.22877,0.45561 -0.67098,1.03409 -0.98269,1.28551 -0.52943,0.42704 -0.53366,0.45753 -0.0643,0.46303 0.27635,0.003 0.87166,-0.40039 1.32292,-0.89694 z m 20.10011,-0.2216 c 1.01709,-1.71685 2.03917,-3.63802 1.93547,-3.63802 -0.17497,0 -1.99379,2.77787 -2.3387,3.57187 -0.18964,0.43657 -0.46628,0.88123 -0.61477,0.98814 -0.1747,0.12579 -0.16025,0.19582 0.0409,0.19844 0.171,0.002 0.61068,-0.50197 0.97706,-1.12043 z m 5.80039,-1.05833 c 1.18115,-1.79868 2.16237,-3.60393 1.68538,-3.10079 -0.59947,0.63233 -3.57046,5.2836 -3.37489,5.2836 0.14085,0 0.90113,-0.98227 1.68951,-2.18281 z m -24.31617,1.66501 c 0.36631,-0.13927 0.86297,-0.63409 1.10369,-1.09959 0.24072,-0.46551 0.67595,-1.0957 0.96718,-1.40043 0.29122,-0.30473 0.80154,-0.97077 1.13403,-1.4801 0.33249,-0.50932 0.85546,-1.18895 1.16216,-1.51029 0.70698,-0.74073 0.69999,-0.87096 -0.0468,-0.87096 -0.40356,0 -0.76958,0.28576 -1.10143,0.8599 -0.27336,0.47294 -1.05125,1.57427 -1.72865,2.44739 -1.57228,2.02659 -2.45878,3.3073 -2.28929,3.3073 0.0732,0 0.43279,-0.11395 0.79909,-0.25322 z m 13.30147,-2.04153 c -0.20533,-0.20533 -0.6491,0.60835 -0.81862,1.501 -0.17189,0.90514 -0.16352,0.89977 0.37102,-0.23784 0.30079,-0.64013 0.50221,-1.20855 0.4476,-1.26316 z m 10.51244,-1.37964 c -0.0969,-0.0891 -0.23124,-0.008 -0.29845,0.1809 -0.0672,0.18863 -0.52716,0.94473 -1.02211,1.68023 -0.49495,0.73549 -0.89967,1.47413 -0.89938,1.64141 2.7e-4,0.16727 0.53956,-0.5159 1.19836,-1.51816 0.65881,-1.00227 1.11852,-1.89524 1.02158,-1.98438 z m 5.34494,3.07907 c 1.08042,-1.25159 1.68532,-2.28986 1.42705,-2.44947 -0.14463,-0.0894 -0.63756,0.44005 -1.09539,1.17654 -0.45783,0.73649 -0.93368,1.33908 -1.05745,1.33908 -0.12377,0 -0.22504,0.11906 -0.22504,0.26458 0,0.44047 0.40744,0.29874 0.95083,-0.33073 z m -1.55929,-0.0426 c 0.11638,-0.20536 0.59854,-0.79749 1.07148,-1.31586 1.04282,-1.14298 1.13236,-1.73848 0.14457,-0.96148 -0.81314,0.63961 -2.09843,2.65072 -1.69406,2.65072 0.14653,0 0.36164,-0.16802 0.47801,-0.37338 z m 14.47929,-0.18782 c -0.17147,-0.27744 -0.64166,-0.0547 -0.64166,0.30393 0,0.13237 0.17791,0.17239 0.39536,0.089 0.21744,-0.0834 0.32828,-0.26024 0.2463,-0.39288 z m -20.15393,-1.28944 c 1.23677,-1.97854 1.29069,-2.55068 0.0924,-0.98089 -1.30028,1.70346 -1.73189,2.56695 -1.28306,2.56695 0.10955,0 0.64533,-0.71373 1.19062,-1.58606 z m 26.55025,0.63735 c 0.21802,-0.52179 0.73799,-1.65389 1.1555,-2.51579 0.41751,-0.8619 0.6489,-1.49897 0.5142,-1.41572 -0.13471,0.0833 -0.46321,0.59028 -0.73001,1.12673 -0.2668,0.53645 -0.8017,1.55864 -1.18867,2.27154 -0.80001,1.47381 -0.80234,1.48195 -0.4255,1.48195 0.15295,0 0.45646,-0.42692 0.67448,-0.94871 z m -45.92486,0.005 c 0.1421,-0.37375 0.55587,-1.06959 0.9195,-1.54633 0.36362,-0.47673 0.66113,-1.00811 0.66113,-1.18084 0,-0.17273 0.17859,-0.38259 0.39688,-0.46635 0.44107,-0.16926 0.54248,-0.62485 0.13908,-0.62485 -0.14178,0 -0.45737,0.38695 -0.70129,0.8599 -0.24393,0.47294 -0.8423,1.38303 -1.32972,2.02242 -0.92083,1.20796 -1.07603,1.6156 -0.61507,1.6156 0.14912,0 0.3874,-0.3058 0.52949,-0.67954 z m 12.42723,-0.9741 c 0.003,-0.45543 -0.46409,-0.14699 -0.80139,0.52917 -0.60641,1.21563 -0.58699,1.29008 0.1208,0.46302 0.3736,-0.43656 0.67987,-0.88305 0.68059,-0.99219 z m 34.6011,1.17409 c 0.15874,-0.47621 -0.38814,-0.37615 -0.5727,0.10479 -0.0989,0.25768 -0.0398,0.37864 0.1536,0.31419 0.1729,-0.0576 0.3615,-0.24618 0.4191,-0.41898 z m -53.91437,-2.68368 c 0.80037,-0.94849 1.63381,-1.91322 1.85209,-2.14384 0.21828,-0.23062 0.75406,-0.8659 1.19062,-1.41174 0.43656,-0.54584 1.00211,-1.24015 1.25677,-1.54292 0.25466,-0.30277 0.46302,-0.77889 0.46302,-1.05806 0,-0.63025 -0.23876,-0.40892 -1.77654,1.64688 -0.59869,0.80036 -1.51317,1.93146 -2.03217,2.51354 -0.519,0.58208 -0.94592,1.14763 -0.94871,1.25677 -0.003,0.10914 -0.13117,0.19844 -0.28527,0.19844 -0.15411,0 -0.20662,-0.11906 -0.11668,-0.26458 0.0899,-0.14552 0.0459,-0.26459 -0.0978,-0.26459 -0.36595,0 -1.09456,0.76822 -1.08443,1.14338 0.005,0.17151 0.18199,0.0824 0.39414,-0.19802 0.21215,-0.28042 0.45981,-0.43577 0.55035,-0.34523 0.0905,0.0905 -0.26542,0.68943 -0.79102,1.33085 -0.5256,0.64143 -0.94939,1.39209 -0.94176,1.66815 0.0121,0.4373 0.0717,0.41782 0.46302,-0.15129 0.24703,-0.35926 1.10399,-1.42924 1.90435,-2.37774 z m 55.56611,2.56792 c 0.002,-0.1819 0.0777,-0.62838 0.16829,-0.99218 0.11505,-0.46214 0.0797,-0.58173 -0.11718,-0.39688 -0.4292,0.4029 -0.69566,1.71979 -0.34798,1.71979 0.16129,0 0.29489,-0.14883 0.29687,-0.33073 z m -39.16194,-0.53901 c 0,-0.42375 -0.16541,-0.61761 -0.55182,-0.64672 -0.39428,-0.0297 -0.50758,0.0737 -0.39687,0.36222 0.0852,0.22207 0.15494,0.5131 0.15494,0.64672 0,0.13361 0.17859,0.24294 0.39688,0.24294 0.23709,0 0.39687,-0.24363 0.39687,-0.60516 z m 6.34259,-0.74657 c 0.87815,-1.42718 0.95077,-2.11373 0.0895,-0.84632 -0.54292,0.79896 -1.19546,2.19805 -1.02517,2.19805 0.0572,0 0.4782,-0.60828 0.93565,-1.35173 z m 1.85949,1.12519 c 0,-0.12459 0.42841,-0.7876 0.95201,-1.47334 0.5236,-0.68574 0.89783,-1.30098 0.83162,-1.36719 -0.25576,-0.25576 -0.97822,0.23264 -1.14849,0.77641 -0.0983,0.31398 -0.40051,0.85482 -0.67153,1.20186 -0.54731,0.70083 -0.62862,1.0888 -0.22819,1.0888 0.14552,0 0.26458,-0.10194 0.26458,-0.22654 z m 23.82353,-1.42711 c 0.43027,-0.9095 0.7824,-1.79397 0.78251,-1.96547 1.2e-4,-0.17151 0.15144,-0.46917 0.33628,-0.66146 0.18483,-0.1923 0.68661,-1.22924 1.11507,-2.30431 0.78698,-1.97468 1.55755,-3.20469 2.00765,-3.20469 0.40383,0 0.2786,0.68 -0.24924,1.35338 -0.27204,0.34704 -0.75735,1.28583 -1.07847,2.0862 -0.32112,0.80036 -0.87811,2.09447 -1.23775,2.87578 -0.35965,0.78132 -0.59016,1.48433 -0.51224,1.56225 0.0779,0.0779 0.39397,-0.44228 0.70236,-1.156 0.30838,-0.71371 1.19687,-2.61378 1.97442,-4.22238 1.49463,-3.09209 2.23077,-4.89539 1.63192,-3.99767 -0.79465,1.19123 -0.95447,1.35319 -1.14618,1.16149 -0.11211,-0.11211 0.0552,-0.737 0.3718,-1.38865 0.62634,-1.2892 0.4362,-1.65652 -0.21124,-0.4081 -0.75682,1.45933 -3.17897,5.97213 -3.41737,6.36703 -0.13177,0.21828 -0.5619,1.17078 -0.95584,2.11667 -0.39394,0.94588 -0.88241,2.10674 -1.08549,2.57968 -0.69036,1.60774 0.167,0.90748 0.97181,-0.79375 z m 4.84797,-1.85992 c 0.94702,-2.07698 0.85899,-2.27477 -0.14371,-0.32289 -0.44853,0.87313 -0.90301,1.64703 -1.00995,1.71979 -0.10694,0.0728 -0.28477,0.42995 -0.39519,0.79375 l -0.20076,0.66146 0.52618,-0.66146 c 0.2894,-0.3638 0.83994,-1.34959 1.22343,-2.19065 z m -31.20442,1.62084 c 0.52384,-1.05006 0.52036,-1.30688 -0.008,-0.62081 -0.68214,0.88505 -0.94165,1.45521 -0.66234,1.45521 0.13998,0 0.44183,-0.37548 0.67076,-0.8344 z m 25.63161,-1.36216 c 0.10874,-0.2903 0.0747,-0.41257 -0.087,-0.31264 -0.24876,0.15375 -1.05248,1.84549 -1.0503,2.21078 0.001,0.22296 0.91224,-1.29737 1.13728,-1.89814 z m 3.35965,1.35362 c 0,-0.1554 0.50601,-1.19017 1.12448,-2.29949 0.98915,-1.77423 2.06076,-4.14894 2.04442,-4.53049 -0.0113,-0.26228 -1.04061,1.19775 -1.04635,1.48411 -0.003,0.16142 -0.36633,0.96894 -0.80687,1.79449 -1.02026,1.91192 -1.93195,4.21479 -1.5833,3.99931 0.14719,-0.091 0.26762,-0.29253 0.26762,-0.44793 z m -31.89972,-0.72918 c 0.4169,-0.34462 3.12128,-1.33801 3.643,-1.33817 0.5728,-1.7e-4 1.79838,-0.5521 1.79838,-0.80989 0,-0.10761 -0.40448,-0.19566 -0.89885,-0.19566 -0.49437,0 -1.15225,-0.0804 -1.46196,-0.17872 -0.40846,-0.12964 -0.92472,0.0811 -1.87988,0.76729 -0.72423,0.52031 -1.44695,0.94602 -1.60605,0.94602 -0.15911,0 -0.60687,0.22614 -0.99505,0.50255 -0.38817,0.2764 -1.00186,0.56769 -1.36376,0.64731 -0.36189,0.0796 0.0485,0.088 0.91209,0.0186 0.86354,-0.0694 1.69698,-0.23109 1.85208,-0.35931 z m 9.9393,-0.57578 c 0,-0.14552 -0.11906,-0.191 -0.26458,-0.10106 -0.14552,0.0899 -0.26459,0.28258 -0.26459,0.4281 0,0.14552 0.11907,0.191 0.26459,0.10106 0.14552,-0.0899 0.26458,-0.28258 0.26458,-0.4281 z m 8.10331,-0.1765 c 0.91314,-0.47125 1.63924,-1.2803 1.36177,-1.51734 -0.0398,-0.034 -0.74313,-0.37625 -1.56295,-0.76053 -1.46503,-0.68673 -1.517,-0.69183 -3.03215,-0.29718 -0.84787,0.22084 -2.03746,0.40153 -2.64354,0.40153 -1.43365,0 -2.75561,0.26972 -2.75561,0.56224 0,0.12733 0.53572,0.23151 1.19049,0.23151 0.76406,0 1.68809,0.25197 2.57969,0.70343 3.11112,1.57535 3.11836,1.57635 4.8623,0.67634 z m -21.72935,0.0946 c 2.10617,-0.59129 3.11165,-1.01189 4.06831,-1.70182 l 0.89331,-0.64425 -0.62873,-0.34854 c -0.3458,-0.1917 -0.85128,-0.35277 -1.12328,-0.35792 -0.27201,-0.005 -1.18055,-0.4261 -2.01899,-0.93542 -0.83843,-0.50933 -1.64828,-0.92604 -1.79966,-0.92604 -0.15137,0 -0.79064,-0.50622 -1.42059,-1.12494 -0.62996,-0.61871 -1.59925,-1.46385 -2.15399,-1.87808 -0.55474,-0.41423 -1.11734,-1.03911 -1.25023,-1.38861 -0.13288,-0.3495 -0.35411,-0.63546 -0.49162,-0.63546 -0.57329,0 -3.19345,1.76677 -3.45181,2.32756 -0.43318,0.9402 -0.33107,2.21566 0.25422,3.17564 0.6528,1.07072 1.05327,0.8885 1.05327,-0.47928 0,-1.43319 0.42511,-2.22067 1.44943,-2.68495 1.86586,-0.84572 3.84223,0.89995 3.84223,3.39372 0,1.16678 -0.10197,1.4188 -0.81216,2.00715 -0.49178,0.40741 -0.70015,0.74207 -0.5282,0.84834 0.15618,0.0965 0.21732,0.44108 0.13585,0.76567 -0.13173,0.52485 -0.0378,0.5976 0.84895,0.65731 0.54839,0.0369 1.05117,0.12125 1.11729,0.18737 0.1916,0.19161 0.60473,0.13886 2.0164,-0.25745 z m 27.28182,-0.29204 c 0.63714,-0.97239 0.26599,-1.09671 -0.41577,-0.13927 -0.31682,0.44494 -0.45162,0.80898 -0.29954,0.80898 0.15207,0 0.47396,-0.30137 0.71531,-0.66971 z m 6.20993,-2.50529 c 0.25012,-0.50932 1.17648,-2.34933 2.05858,-4.0889 0.88209,-1.73957 1.54591,-3.22077 1.47513,-3.29154 -0.24471,-0.24471 -0.81947,0.64143 -1.69802,2.61794 -0.48513,1.09141 -1.08005,2.28203 -1.32205,2.64584 -0.49935,0.75067 -1.60315,3.59309 -1.57603,4.05843 0.01,0.16896 0.15059,0.01 0.31276,-0.35427 0.16217,-0.3638 0.4995,-1.07817 0.74963,-1.5875 z m -7.16571,1.5875 c 0,-0.14552 -0.11906,-0.26458 -0.26458,-0.26458 -0.14552,0 -0.26459,0.11906 -0.26459,0.26458 0,0.14552 0.11907,0.26459 0.26459,0.26459 0.14552,0 0.26458,-0.11907 0.26458,-0.26459 z m -41.16866,-0.90474 c 0.20792,-0.49761 0.63606,-1.04284 0.95144,-1.21163 0.53862,-0.28826 0.54516,-0.32754 0.10788,-0.64729 -0.40977,-0.29963 -0.58808,-0.18538 -1.48852,0.95376 -0.56264,0.71179 -0.95127,1.41021 -0.86361,1.55204 0.32704,0.52917 0.92682,0.22906 1.29281,-0.64688 z m 26.08741,0.64016 c 0,-0.14552 -0.41672,-0.26458 -0.92604,-0.26458 -0.50932,0 -0.92604,0.11906 -0.92604,0.26458 0,0.14552 0.41672,0.26458 0.92604,0.26458 0.50932,0 0.92604,-0.11906 0.92604,-0.26458 z m -27.67814,-1.12448 c 0.18144,-0.1819 0.73971,-0.86651 1.24061,-1.52135 2.22305,-2.90632 3.75697,-4.69496 4.74026,-5.52742 1.16534,-0.98658 1.31778,-1.35175 0.5643,-1.35175 -0.46062,0 -1.29915,0.82965 -3.38713,3.35129 -0.46195,0.55788 -1.31611,1.57668 -1.89814,2.26399 -0.58204,0.6873 -1.13484,1.49098 -1.22846,1.78593 -0.0936,0.29496 -0.34078,0.53629 -0.54925,0.53629 -0.39794,0 -0.50225,0.31777 -0.20266,0.61736 0.24517,0.24517 0.34284,0.22424 0.72047,-0.15434 z m 47.2399,-0.7276 c 0.99091,-0.55868 1.25582,-0.89209 1.7048,-2.14572 0.48743,-1.36098 0.50151,-1.60965 0.16944,-2.99387 -0.24074,-1.00349 -0.58189,-1.68245 -1.01759,-2.02517 -0.3605,-0.28356 -0.68063,-0.48414 -0.7114,-0.44572 -0.0308,0.0384 -0.12858,1.59428 -0.21734,3.45747 -0.0888,1.86319 -0.23802,3.51162 -0.3317,3.66319 -0.097,0.15694 -0.72384,-0.30476 -1.45611,-1.07251 -0.70719,-0.74145 -1.39417,-1.34809 -1.52663,-1.34809 -0.13245,0 -0.99833,0.33999 -1.92417,0.75553 -0.92584,0.41554 -2.18937,0.9694 -2.80783,1.23081 -0.61846,0.2614 -1.12448,0.58899 -1.12448,0.72798 0,0.13899 0.19657,0.17728 0.43681,0.0851 0.25699,-0.0986 0.61721,0.0259 0.87501,0.30242 0.37256,0.39964 0.91151,0.47004 3.59808,0.47004 2.8813,0 3.26333,-0.0583 4.33311,-0.66145 z m -35.97334,-1.08715 c 0.45745,-0.74345 0.77143,-1.41203 0.69772,-1.48574 -0.17365,-0.17365 -1.42296,1.24307 -1.62724,1.84528 -0.0864,0.25466 -0.3574,0.46485 -0.60225,0.46707 -0.38413,0.003 -0.39076,0.0392 -0.0483,0.26054 0.62034,0.40089 0.6969,0.34821 1.58009,-1.08715 z m 0.84648,0.91385 c 0.48017,-0.43456 0.70206,-1.84488 0.2459,-1.56296 -0.13087,0.0809 -0.48404,0.56417 -0.78483,1.07395 -0.58153,0.98562 -0.29605,1.24465 0.53893,0.48901 z m -10.89323,-3.05057 c 0,-0.16122 0.51961,-0.84864 1.15468,-1.52759 1.21472,-1.29863 1.92522,-2.39229 1.55416,-2.39229 -0.55986,0 -4.61378,4.97092 -4.96051,6.08257 -0.1665,0.53382 0.0274,0.41909 1.02312,-0.60547 0.6757,-0.69525 1.22855,-1.39599 1.22855,-1.55722 z m 8.46687,2.49626 c 1.1e-4,-0.10914 0.41683,-0.66655 0.92604,-1.23868 0.50921,-0.57214 0.92339,-1.16745 0.92039,-1.32292 -0.006,-0.30483 -2.34876,2.23214 -2.36564,2.5616 -0.006,0.10914 0.1089,0.19844 0.25442,0.19844 0.14552,0 0.26468,-0.0893 0.26479,-0.19844 z m -4.40451,-2.44739 c 0.33094,-0.36381 0.83221,-1.12651 1.11394,-1.69491 0.28173,-0.56839 0.83891,-1.22323 1.23817,-1.4552 0.77515,-0.45037 0.89028,-0.68791 0.46177,-0.95275 -0.29642,-0.18319 -1.06,0.54677 -3.03978,2.90596 -0.72761,0.86704 -1.62685,1.89342 -1.99831,2.28085 -0.5895,0.61483 -0.62315,0.73998 -0.26459,0.98411 0.3233,0.22012 0.56806,0.10009 1.14895,-0.56345 0.40598,-0.46374 1.00891,-1.14081 1.33985,-1.50461 z m 4.85492,-0.16675 c -0.25679,-0.25679 -1.24437,0.69077 -1.24437,1.19393 0,0.30472 0.19088,0.22512 0.71358,-0.29757 0.39246,-0.39247 0.63132,-0.79583 0.53079,-0.89636 z m -8.59048,-2.32893 c 1.23598,-1.31906 1.48449,-1.73766 1.03159,-1.73766 -0.48364,0 -4.00401,4.05237 -3.99536,4.59913 0.008,0.47432 0.13914,0.40066 0.85815,-0.48022 0.4671,-0.57226 1.41463,-1.64382 2.10562,-2.38125 z m 26.92528,1.93731 c 0,-0.63988 -0.0949,-0.74679 -0.59531,-0.67064 -0.60326,0.0918 -0.88652,0.69784 -0.63388,1.35621 0.0829,0.21601 0.35741,0.30364 0.68384,0.21828 0.39133,-0.10234 0.54535,-0.3576 0.54535,-0.90385 z m 2.61276,0.65758 c 0.64753,-0.1295 0.82682,-0.30162 0.82682,-0.79375 0,-0.55672 -0.12068,-0.62838 -1.05833,-0.62838 -0.99954,0 -1.05833,0.0441 -1.05833,0.79375 0,0.85562 0.0447,0.87741 1.28984,0.62838 z m -5.25859,-0.62838 c 0,-0.54777 -0.63831,-0.73014 -0.92604,-0.26458 -0.22147,0.35834 0.0774,0.79375 0.54478,0.79375 0.20969,0 0.38126,-0.23813 0.38126,-0.52917 z m 25.81053,-1.61462 c 0.52049,-1.03356 0.89326,-1.93228 0.82838,-1.99716 -0.13697,-0.13697 -2.03266,3.23993 -2.03266,3.62089 0,0.57326 0.30495,0.16209 1.20428,-1.62373 z m -16.03974,1.29813 c 1.4939,-0.50041 3.15039,-1.89813 4.34298,-3.66452 1.34526,-1.99251 3.08414,-5.00551 3.08414,-5.34395 0,-0.13688 0.23813,-0.5516 0.52917,-0.92159 0.66275,-0.84256 0.66829,-1.13053 0.0217,-1.13053 -0.88931,0 -3.01888,-1.2557 -4.46692,-2.63391 -1.10688,-1.05349 -1.58756,-1.33484 -2.2805,-1.33484 -0.80107,0 -0.89139,-0.0825 -1.0307,-0.9409 -0.084,-0.51749 -0.0893,-1.49975 -0.0118,-2.18281 0.0775,-0.68306 0.0331,-1.52505 -0.0987,-1.8711 l -0.23966,-0.62918 -0.97382,0.85503 c -1.08553,0.95311 -1.09849,0.99276 -0.66651,2.03975 0.16902,0.40966 0.28346,0.848 0.25431,0.97409 -0.0292,0.1261 -0.0629,0.78094 -0.0749,1.45521 -0.0182,1.01808 -0.18471,1.40906 -0.98191,2.30588 -2.31875,2.60849 -3.04409,3.97417 -3.32454,6.25952 -0.21892,1.78385 -0.0281,2.58242 0.61708,2.58242 0.36514,0 0.74192,-0.8353 1.74325,-3.86462 1.29054,-3.90426 1.66613,-4.53499 3.16898,-5.32165 0.66946,-0.35043 0.97752,-0.3616 2.11666,-0.0768 1.51426,0.37863 2.01403,0.74856 3.06042,2.26532 0.60683,0.87961 0.72628,1.30709 0.66537,2.38125 -0.0408,0.72005 -0.16211,1.51754 -0.26954,1.7722 -0.27846,0.66013 -0.75877,0.57463 -0.58143,-0.10351 0.1237,-0.47302 -0.005,-0.41844 -0.78101,0.33073 l -0.92916,0.89726 0.85577,0.0862 0.85577,0.0862 -1.12924,0.64142 c -0.62109,0.35278 -1.39885,0.64142 -1.72837,0.64142 -0.578,0 -0.59445,0.0653 -0.46661,1.85208 l 0.13252,1.85209 h -1.88764 c -1.71124,0 -1.88763,0.0494 -1.88763,0.52916 0,0.62786 0.88512,0.70755 2.36246,0.21268 z m -35.1885,-2.04706 c 1.14571,-1.1457 1.48497,-1.6402 1.25579,-1.8304 -0.54548,-0.45271 -3.09017,2.11508 -3.09017,3.11822 0,0.48199 0.21672,0.32985 1.83438,-1.28782 z m 23.03678,0.57761 c 1.8e-4,-0.10914 0.29783,-0.54438 0.66146,-0.96719 0.75771,-0.88106 0.78252,-0.95224 0.3304,-0.94776 -0.1819,0.002 -0.59862,0.41685 -0.92604,0.92233 -0.66647,1.02891 -0.71149,1.19106 -0.33073,1.19106 0.14552,0 0.26473,-0.0893 0.26491,-0.19844 z m 1.9664,-0.72918 c 0.27476,-0.5102 0.40459,-1.01621 0.28853,-1.12448 -0.11607,-0.10827 -0.26565,-0.0436 -0.33241,0.14365 -0.0667,0.18727 -0.41823,0.69329 -0.78104,1.12448 -0.59294,0.70466 -0.60985,0.78397 -0.16716,0.78397 0.29166,0 0.69625,-0.37831 0.99208,-0.92762 z m 1.40671,0.0495 c 0.69863,-1.02621 0.73357,-1.23859 0.20382,-1.23859 -0.21533,0 -0.63446,0.47625 -0.93142,1.05834 -0.67796,1.32891 -0.14437,1.4611 0.7276,0.18025 z m 1.38907,-0.11738 c 0.8877,-1.32716 0.92646,-1.4514 0.41953,-1.34491 -0.55842,0.11731 -1.91636,2.34173 -1.42672,2.33709 0.19015,-0.002 0.64338,-0.44828 1.00719,-0.99218 z m 1.56592,0.10433 c 0.30291,-0.49011 0.55074,-1.03582 0.55074,-1.21267 0,-0.53295 -0.54248,-0.18192 -1.01308,0.65556 -0.24317,0.43273 -0.53142,0.82647 -0.64056,0.87497 -0.34446,0.1531 -0.21483,0.57327 0.17686,0.57327 0.20641,0 0.62313,-0.40101 0.92604,-0.89113 z m 0.87905,0.29582 c 0.52647,-0.80535 0.81873,-1.78594 0.53228,-1.78594 -0.12838,0 -0.43406,0.42076 -0.67929,0.93502 -0.67449,1.41441 -0.57976,1.96266 0.14701,0.85092 z m 20.55924,-0.62407 c 0.29666,-0.67066 0.46923,-1.33291 0.38347,-1.47166 -0.23066,-0.37323 -1.42727,1.37145 -1.42727,2.08098 0,0.97713 0.4611,0.70795 1.0438,-0.60932 z m -18.82913,-0.10557 c 0.78412,-1.37309 0.33716,-1.3715 -0.5718,0.002 -0.43551,0.65809 -0.57388,1.05757 -0.36589,1.0563 0.18397,-0.001 0.60593,-0.47737 0.93769,-1.05834 z m 1.08477,0.002 c 0.48371,-0.60191 0.70249,-1.05692 0.5073,-1.05506 -0.29699,0.003 -1.53382,1.59735 -1.53382,1.97739 0,0.28501 0.20248,0.10308 1.02652,-0.92233 z m 0.82556,0.79367 c 0,-0.14552 -0.11906,-0.26458 -0.26458,-0.26458 -0.14552,0 -0.26458,0.11906 -0.26458,0.26458 0,0.14552 0.11906,0.26459 0.26458,0.26459 0.14552,0 0.26458,-0.11907 0.26458,-0.26459 z m 1.5875,-0.26458 c 0,-0.29104 -0.11906,-0.52917 -0.26458,-0.52917 -0.14552,0 -0.26458,0.0498 -0.26458,0.11065 0,0.0609 -0.0723,0.29899 -0.1606,0.52917 -0.10539,0.27464 -0.0144,0.41852 0.26458,0.41852 0.24879,0 0.42518,-0.21953 0.42518,-0.52917 z m -13.75833,-0.66146 c 0,-0.5479 0.13505,-0.93871 0.33073,-0.95706 0.1819,-0.0171 0.9762,-0.0485 1.76511,-0.0698 0.82188,-0.0222 1.47812,-0.17001 1.53682,-0.34609 0.1984,-0.59522 -0.94562,-2.39578 -1.63161,-2.56795 -0.9243,-0.23199 -1.96904,0.68183 -1.79863,1.57323 0.10696,0.55953 0.0253,0.6479 -0.59857,0.6479 -0.75576,0 -2.77885,-0.9986 -2.77885,-1.37164 0,-0.36185 0.70834,-0.2407 1.05833,0.18101 0.41006,0.49409 1.05834,0.51823 1.05834,0.0394 0,-0.19661 0.31031,-0.94075 0.68957,-1.65364 0.84047,-1.57981 1.78956,-4.06462 1.61802,-4.23615 -0.14371,-0.14372 -1.24926,1.65191 -1.24926,2.02905 0,0.1372 -0.11906,0.24946 -0.26458,0.24946 -0.14552,0 -0.26459,0.17541 -0.26459,0.3898 0,0.51475 -1.10866,2.7852 -1.36002,2.7852 -0.40106,0 -0.52689,-0.56527 -0.21066,-0.94631 0.35995,-0.43371 2.09985,-4.33283 2.09985,-4.70577 0,-0.56881 -0.80734,0.51478 -1.22043,1.63802 -0.24999,0.67977 -0.55392,1.34904 -0.67538,1.48729 -0.12147,0.13824 -0.22086,0.42823 -0.22086,0.6444 0,0.40582 -1.00412,1.61779 -1.34035,1.61779 -0.10438,0 -0.26119,-0.28453 -0.34847,-0.63228 -0.0873,-0.34775 -0.3445,-0.70357 -0.57159,-0.79072 -0.2271,-0.0871 -0.37039,-0.0705 -0.31843,0.037 1.07284,2.21901 1.61948,3.06653 2.80578,4.35012 0.77966,0.84361 1.5238,1.53383 1.65364,1.53383 0.12985,0 0.23609,-0.41672 0.23609,-0.92604 z m -22.56015,-0.56559 c 0.87691,-0.71856 1.08496,-1.01925 0.821,-1.18657 -0.571,-0.36194 -0.68402,-0.2918 -1.54418,0.95841 -0.45055,0.65484 -0.73642,1.19063 -0.63528,1.19063 0.10115,0 0.71245,-0.43311 1.35846,-0.96247 z m 35.47659,0.30101 c 0.35417,-0.77731 -0.0647,-0.91023 -0.47172,-0.14969 -0.33196,0.62029 -0.34414,0.81115 -0.0518,0.81115 0.12216,0 0.35773,-0.29766 0.52349,-0.66146 z m -11.85811,-0.13229 c 0,-0.14553 -0.11906,-0.26459 -0.26458,-0.26459 -0.14552,0 -0.26458,0.11906 -0.26458,0.26459 0,0.14552 0.11906,0.26458 0.26458,0.26458 0.14552,0 0.26458,-0.11906 0.26458,-0.26458 z m 26.79958,-0.52917 c 0.10265,-0.39251 0.008,-0.52917 -0.36601,-0.52917 -0.48973,0 -0.68498,0.52498 -0.32801,0.88195 0.31184,0.31184 0.55217,0.18968 0.69402,-0.35278 z m -51.72333,-0.0529 c 0.50395,-0.50394 0.38017,-0.97226 -0.21579,-0.81641 -0.63002,0.16475 -0.88466,0.50151 -0.65733,0.86933 0.21651,0.35032 0.48624,0.33397 0.87312,-0.0529 z m 10.06108,-2.12418 c -0.3385,-0.62161 -0.76428,-1.28752 -0.94618,-1.47982 -0.1819,-0.1923 -0.34446,-0.48995 -0.36125,-0.66146 -0.14566,-1.48828 -1.03014,-3.05165 -1.33649,-2.36235 -0.17655,0.39723 -1.77557,1.12448 -2.47243,1.12448 -0.57879,0 -0.678,0.0883 -0.52047,0.46302 0.66802,1.58926 0.28908,2.84071 -0.94204,3.11111 -0.98617,0.2166 -0.79303,0.45452 0.71737,0.88366 0.83154,0.23625 1.3865,0.24003 2.24896,0.0153 0.90431,-0.23563 1.45089,-0.21819 2.6002,0.083 0.80037,0.20972 1.49404,0.285 1.5415,0.16729 0.0475,-0.1177 -0.19067,-0.7226 -0.52917,-1.34421 z m 26.80962,1.22591 c 0.45475,-0.28105 0.54014,-1.9283 0.13029,-2.51343 l -0.41096,-0.58674 -1.33059,1.43037 c -1.75239,1.88379 -1.74671,2.21397 0.034,1.97775 0.75562,-0.10024 1.46539,-0.23882 1.57725,-0.30795 z m -7.04361,-1.23162 c -0.15451,-1.23767 -0.56414,-2.44419 -1.23515,-3.63802 -0.12268,-0.21829 -0.45077,-0.8136 -0.72907,-1.32292 -0.27831,-0.50932 -0.88185,-1.28323 -1.34121,-1.71979 -0.85365,-0.81129 -1.86249,-2.72762 -1.86249,-3.53787 0,-0.24821 0.23318,-0.90865 0.51818,-1.46766 0.46567,-0.91338 0.47969,-1.09081 0.13835,-1.75088 -0.2089,-0.40398 -0.73974,-0.89381 -1.17964,-1.08853 -0.43989,-0.19472 -0.79981,-0.44403 -0.79981,-0.55403 0,-0.10999 -0.24118,-0.19999 -0.53596,-0.19999 -0.50833,0 -0.51515,0.0402 -0.13229,0.78061 0.22202,0.42934 0.40367,0.96673 0.40367,1.19421 0,0.22749 0.1418,0.64067 0.31512,0.91819 0.26318,0.42143 0.19778,0.6739 -0.39688,1.53199 -0.39159,0.56507 -0.71215,1.25912 -0.71236,1.54234 -2e-4,0.28323 -0.48744,1.05073 -1.08275,1.70558 -1.04396,1.14835 -1.8273,2.53212 -1.8273,3.22792 0,0.18397 0.28634,-0.0801 0.63631,-0.58682 1.66563,-2.41171 3.25767,-2.76853 5.69377,-1.27611 1.29906,0.79583 2.61534,4.10843 2.90076,7.30011 0.0163,0.1819 0.33841,0.33073 0.71587,0.33073 0.67353,0 0.68306,-0.0258 0.51288,-1.38906 z m 9.91333,-0.30082 c 0,-0.17069 0.40936,-0.69647 0.9097,-1.16839 1.05229,-0.99256 1.81324,-2.35452 1.44325,-2.58318 -0.13749,-0.085 -0.3776,0.21163 -0.5336,0.6591 -0.15599,0.44748 -0.45056,0.8136 -0.65461,0.8136 -0.49862,0 -0.46557,-0.2488 0.15818,-1.19063 0.28912,-0.43656 0.52646,-0.94257 0.52742,-1.12448 0.003,-0.5298 -0.47573,-0.38125 -0.66195,0.20549 -0.19124,0.60254 -1.37674,1.4803 -1.64158,1.21545 -0.0947,-0.0947 0.20672,-0.56293 0.66971,-1.04062 0.82034,-0.84637 1.08434,-1.50479 0.60337,-1.50479 -0.22189,0 -0.93658,0.99791 -1.87822,2.62255 -0.21828,0.37661 -0.51594,0.77221 -0.66146,0.87912 -0.14552,0.10692 0.0866,0.19621 0.51594,0.19844 0.60707,0.003 0.70996,0.0746 0.46302,0.32155 -0.17463,0.17463 -0.31388,0.56158 -0.30946,0.8599 0.007,0.49543 0.0314,0.5023 0.27773,0.0794 0.14833,-0.25466 0.43835,-0.46302 0.64449,-0.46302 0.2905,0 0.25161,0.2088 -0.17289,0.92827 -0.44846,0.76009 -0.47081,0.89877 -0.12337,0.76545 0.23338,-0.0896 0.42433,-0.30249 0.42433,-0.47318 z m 17.08927,-0.0299 c 0.0913,-0.3638 0.26052,-0.66146 0.37603,-0.66146 0.18152,0 0.79095,-1.39706 0.79095,-1.81316 0,-0.2186 -1.83742,2.70648 -1.84531,2.93764 -0.0171,0.50047 0.53028,0.12685 0.67833,-0.46302 z m -0.95374,-0.74322 c 0.002,-0.11773 -0.11501,-0.14047 -0.26053,-0.0505 -0.14552,0.0899 -0.26276,0.36485 -0.26053,0.61093 0.003,0.38556 0.0395,0.39255 0.26053,0.0505 0.14107,-0.21829 0.2583,-0.4932 0.26053,-0.61093 z m -19.19026,-1.50574 c 0.66599,0 0.93806,-0.11752 0.93806,-0.40518 0,-0.22285 0.17613,-0.47277 0.39141,-0.55538 0.21527,-0.0826 0.65309,-0.67418 0.97294,-1.31461 0.31984,-0.64043 0.67949,-1.16441 0.79922,-1.16441 0.11972,0 0.21768,-0.11907 0.21768,-0.26459 0,-0.54549 -0.71832,-0.23746 -1.07977,0.46302 -0.20649,0.40019 -0.76136,1.14433 -1.23304,1.65365 -0.76592,0.82704 -0.85784,0.86543 -0.85989,0.35904 -0.001,-0.31186 0.1763,-0.63554 0.39458,-0.71931 0.21828,-0.0838 0.39687,-0.27991 0.39687,-0.43589 0,-0.15598 0.25944,-0.6345 0.57652,-1.06338 0.71346,-0.96501 0.52443,-1.1933 -0.66347,-0.80126 -0.97995,0.32342 -2.2943,1.98341 -2.2943,2.89766 0,0.28204 -0.10199,0.55248 -0.22665,0.60099 -0.12466,0.0485 -0.30865,0.53465 -0.40886,1.08033 l -0.1822,0.99214 0.66142,-0.66141 c 0.45675,-0.45676 0.95167,-0.66141 1.59948,-0.66141 z m -0.60047,-2.31307 c 0.33687,-0.61734 0.70179,-1.12336 0.81093,-1.12448 0.4146,-0.004 0.16909,0.55006 -0.6125,1.38285 l -0.81093,0.86407 z m -14.51995,1.32088 c 1.06969,-2.23308 1.25287,-3.00553 0.58036,-2.44739 -0.21828,0.18115 -0.39688,0.48488 -0.39688,0.67495 0,0.19007 -0.16974,0.51533 -0.37721,0.72279 -0.43147,0.43147 -1.21029,2.19183 -1.21029,2.73561 0,0.82288 0.47609,0.25119 1.40402,-1.68596 z m 35.44341,0.76616 c 0.25698,-0.43774 0.36715,-0.85774 0.24482,-0.93333 -0.12232,-0.0756 -0.49067,0.41473 -0.81856,1.08962 -0.63199,1.30083 -0.21497,1.18723 0.57374,-0.15629 z m -31.70624,0.15988 c 0.56958,-1.39269 0.72972,-2.05055 0.49904,-2.04999 -0.11895,2.6e-4 -0.47323,0.65513 -0.78729,1.4552 -0.31407,0.80008 -0.45682,1.45469 -0.31723,1.45469 0.13959,0 0.41205,-0.38695 0.60548,-0.8599 z m 0.95947,0.15836 c 0.42043,-1.10581 0.1517,-1.2951 -0.34874,-0.24566 -0.24843,0.52096 -0.33161,0.9472 -0.18484,0.9472 0.14677,0 0.38688,-0.31569 0.53358,-0.70154 z m 0.77851,0.43696 c 0,-0.14553 -0.0525,-0.26459 -0.11668,-0.26459 -0.0642,0 -0.19026,0.11906 -0.28019,0.26459 -0.0899,0.14552 -0.0374,0.26458 0.11667,0.26458 0.15411,0 0.2802,-0.11906 0.2802,-0.26458 z m -7.67292,-1.11125 c 0,-0.54533 -0.0911,-0.75559 -0.25591,-0.59075 -0.14076,0.14075 -0.1864,0.52175 -0.10144,0.84666 0.21793,0.83335 0.35735,0.7335 0.35735,-0.25591 z m -18.76477,-0.0195 c 0.50548,-0.34064 1.19387,-1.20438 1.58713,-1.99142 0.38196,-0.76442 0.95037,-1.66225 1.26314,-1.99518 0.31277,-0.33293 0.56488,-0.77624 0.56026,-0.98514 -0.006,-0.28489 -0.0989,-0.26051 -0.37039,0.0975 -1.0475,1.38144 -3.79574,4.2445 -4.43905,4.62451 -0.40612,0.2399 -0.7384,0.52958 -0.7384,0.64372 0,0.42308 1.27308,0.18839 2.13731,-0.39402 z m 54.42289,0.122 c 0.15874,-0.47621 -0.38814,-0.37614 -0.5727,0.10479 -0.0989,0.25768 -0.0397,0.37864 0.1536,0.3142 0.1729,-0.0576 0.3615,-0.24618 0.4191,-0.41899 z m -51.85046,-1.49467 c 0.15198,-0.33356 0.64673,-1.02835 1.09946,-1.54398 0.58457,-0.66579 0.73022,-0.99493 0.50252,-1.13566 -0.34334,-0.21219 -0.53187,2.7e-4 -1.92626,2.17174 -0.67149,1.04566 -0.76514,1.32699 -0.41088,1.23435 0.25236,-0.066 0.58318,-0.3929 0.73516,-0.72645 z m 27.76731,0.18829 c 0.27418,-0.40018 0.84196,-1.44198 1.26174,-2.3151 0.41977,-0.87313 0.91768,-1.7752 1.10647,-2.00461 0.18878,-0.22941 0.63298,-0.98942 0.9871,-1.6889 l 0.64386,-1.27178 -0.56078,-0.75851 c -0.30843,-0.41717 -0.62769,-0.75756 -0.70947,-0.75642 -0.15809,0.002 -3.98514,7.75893 -3.98514,8.07714 0,0.10322 0.1786,0.0394 0.39688,-0.14171 0.21828,-0.18116 0.39687,-0.48348 0.39687,-0.67181 0,-0.18834 0.0915,-0.38212 0.20331,-0.43063 0.11183,-0.0485 0.5949,-0.92163 1.0735,-1.94027 0.4786,-1.01865 0.98329,-2.03068 1.12153,-2.24896 0.13823,-0.21828 0.38865,-0.66477 0.55647,-0.99219 0.30053,-0.58633 0.74936,-0.80877 0.74936,-0.37138 0,0.3022 -0.83785,1.99166 -1.06988,2.15732 -0.10191,0.0728 -0.44284,0.7276 -0.75761,1.45521 -0.65761,1.52006 -0.7371,1.67551 -1.72494,3.37343 -0.777,1.33553 -0.52996,1.75623 0.31073,0.52917 z m -30.1293,-1.45521 c 2.19554,-2.32387 2.9548,-3.27436 2.76623,-3.46293 -0.0896,-0.0896 -1.22871,0.9059 -2.53133,2.21224 -1.30262,1.30635 -2.47614,2.37517 -2.60782,2.37517 -0.13168,0 -0.23941,0.11906 -0.23941,0.26459 0,0.74143 1.20467,0.10087 2.61233,-1.38907 z m 5.52069,0.60758 c 0.17754,-0.28429 0.22359,-0.57822 0.10233,-0.65316 -0.12126,-0.0749 -0.35439,0.15766 -0.51807,0.5169 -0.3533,0.77541 -0.0463,0.87604 0.41574,0.13626 z m 12.50292,0.31846 c -8.5e-4,-0.10914 -0.17581,-1.35439 -0.38877,-2.76722 -0.3568,-2.36705 -0.96973,-4.44267 -1.31191,-4.44267 -0.25603,0 0.16643,3.26828 0.67483,5.22066 0.27403,1.05235 0.49824,1.97508 0.49824,2.05052 0,0.0754 0.11906,0.13715 0.26458,0.13715 0.14552,0 0.26388,-0.0893 0.26303,-0.19844 z m -17.63538,-3.30729 c 1.08643,-1.34607 1.93811,-2.48621 1.89262,-2.53365 -0.12812,-0.13361 -2.31051,2.29907 -2.8324,3.15725 -0.25603,0.42101 -0.55768,0.76547 -0.67033,0.76547 -0.11266,0 -0.35354,0.23812 -0.5353,0.52916 -0.18176,0.29104 -0.21785,0.52917 -0.0802,0.52917 0.13765,0 1.13917,-1.10133 2.2256,-2.4474 z m 4.54706,1.96933 c -0.0815,-0.0815 -0.29495,-1.7e-4 -0.47443,0.18065 -0.25936,0.26131 -0.22897,0.2917 0.14811,0.14812 0.26094,-0.0994 0.40778,-0.24731 0.32632,-0.32877 z m 24.04236,-0.83998 c 0.78981,-1.5105 0.80817,-1.59237 0.35705,-1.59237 -0.29006,0 -0.53548,0.51514 -1.166,2.4474 -0.29102,0.89186 0.126,0.45108 0.80895,-0.85503 z m 26.57114,0.36356 c 0.33783,-0.52136 0.55821,-1.00395 0.48973,-1.07243 -0.132,-0.132 -1.50085,1.55844 -1.50085,1.85346 0,0.43321 0.4491,0.0863 1.01112,-0.78103 z m 0.90191,0.16074 c 0.3124,-0.29104 0.44494,-0.52917 0.29453,-0.52917 -0.15041,0 -0.48896,0.23813 -0.75235,0.52917 -0.2634,0.29104 -0.39593,0.52917 -0.29453,0.52917 0.1014,0 0.43996,-0.23813 0.75235,-0.52917 z m -11.70262,0 c 0,-0.14552 -0.12081,-0.26458 -0.26847,-0.26458 -0.14766,0 -0.49439,-0.3715 -0.77051,-0.82555 l -0.50205,-0.82554 -0.42011,0.8124 c -0.53532,1.03521 -0.53394,1.04454 0.17521,1.18113 1.12019,0.21575 1.78593,0.18673 1.78593,-0.0779 z m 10.32899,-1.3373 c 0.31962,-0.44886 0.87055,-0.92615 1.22429,-1.06064 0.6427,-0.24435 1.41889,-1.65772 1.40289,-2.5545 -0.008,-0.42695 -0.0448,-0.4215 -0.3929,0.0576 -1.05927,1.45785 -1.7002,2.20998 -2.97212,3.48779 -0.76399,0.76752 -1.38906,1.46067 -1.38906,1.54033 0,0.36931 1.60889,-0.74314 2.1269,-1.47063 z m -48.60024,0.34511 c -0.0759,-0.5457 -0.26412,-1.34937 -0.41827,-1.78594 -0.57074,-1.61633 -0.4299,-9.90792 0.2146,-12.63385 0.21283,-0.90017 -0.2972,-0.97527 -1.2947,-0.19063 -0.66546,0.52345 -0.67302,0.56424 -0.30026,1.62076 0.51574,1.46177 0.46781,2.78762 -0.14678,4.05997 -0.28117,0.58209 -0.51525,1.25064 -0.52019,1.48568 -0.005,0.23503 -0.2471,0.73006 -0.53815,1.10006 -0.67579,0.85914 -0.66257,1.86932 0.0441,3.36739 0.30889,0.65484 0.58452,1.36922 0.61251,1.5875 0.11557,0.90148 0.47218,1.49376 1.14481,1.90135 1.13984,0.69069 1.35679,0.59826 1.20234,-0.51229 z m 21.4794,0.18068 c 0.2308,-0.44634 0.37858,-1.01188 0.3284,-1.25677 -0.0745,-0.36333 -0.1697,-0.32355 -0.5176,0.2162 -0.58686,0.91047 -0.84414,1.85208 -0.50607,1.85208 0.15159,0 0.46446,-0.36518 0.69527,-0.81151 z m 5.61184,-0.78922 c 0.33959,-0.64217 0.583,-1.39661 0.54091,-1.67654 -0.0497,-0.33054 -0.37063,0.11358 -0.91551,1.26695 -0.92056,1.94854 -0.61557,2.28202 0.3746,0.40959 z m -34.4472,0.0794 c 0.48811,-0.5457 1.04196,-1.28984 1.23078,-1.65364 0.18882,-0.3638 0.58143,-0.86586 0.87247,-1.11568 0.29105,-0.24982 0.4253,-0.45818 0.29834,-0.46302 -0.12696,-0.005 -0.0826,-0.1874 0.0985,-0.40568 0.19098,-0.23011 0.21616,-0.39687 0.0599,-0.39687 -0.14819,0 -0.66879,0.49071 -1.15688,1.09047 -0.48809,0.59976 -1.21639,1.44389 -1.61845,1.87585 -0.70147,0.75363 -1.25336,1.59513 -1.25336,1.91108 0,0.42815 0.68206,0.0369 1.46862,-0.84251 z m 43.77513,-1.21701 c 0,-0.39405 -0.17974,-0.28323 -0.79375,0.48941 -0.43656,0.54934 -0.78891,1.19079 -0.783,1.42544 0.0156,0.62046 1.57675,-1.2754 1.57675,-1.91485 z m 12.43325,-0.83351 c 0.006,-0.14552 0.54472,-0.78011 1.19716,-1.41019 0.65244,-0.63009 1.18626,-1.3147 1.18626,-1.52136 0,-0.59646 -0.41636,-0.43692 -0.74561,0.28572 -0.16576,0.3638 -0.41798,0.66146 -0.56049,0.66146 -0.1425,0 -0.58224,0.56555 -0.97719,1.25677 -0.39496,0.69122 -1.06189,1.60523 -1.48208,2.03113 -0.42019,0.42591 -0.88878,1.02122 -1.0413,1.32292 -0.15252,0.30171 0.32786,-0.10629 1.06751,-0.90665 0.73966,-0.80037 1.34974,-1.57428 1.35574,-1.7198 z m -28.41042,1.91823 c 0.24233,-0.47294 0.55585,-0.93437 0.69672,-1.02539 0.27714,-0.17908 2.31312,-5.19195 2.31483,-5.69943 5.3e-4,-0.16978 0.14118,-0.3554 0.31246,-0.41249 0.33532,-0.11178 0.0732,-0.73404 -0.30921,-0.73404 -0.12713,0 -0.3151,0.26789 -0.41773,0.59531 -0.21968,0.70087 -2.04116,4.67306 -2.7767,6.05529 -0.46795,0.87939 -0.69107,2.08065 -0.38645,2.08065 0.069,0 0.32376,-0.38695 0.56608,-0.8599 z m 19.28901,-0.79375 c 0.26687,-0.9095 0.58089,-1.78192 0.69784,-1.93869 0.1282,-0.17188 -0.10033,-0.51643 -0.57561,-0.86782 -0.43353,-0.32052 -0.78824,-0.8103 -0.78824,-1.0884 0,-0.2781 -0.11906,-0.57921 -0.26458,-0.66915 -0.32863,-0.2031 -0.35089,-1.89981 -0.0276,-2.09964 0.13808,-0.0853 0.14071,-0.56132 0.006,-1.1401 -0.1269,-0.54647 -0.23539,-1.46984 -0.24109,-2.05193 -0.0164,-1.67646 -0.28087,-1.76158 -1.52036,-0.48937 -0.61667,0.63296 -1.01333,1.15083 -0.88147,1.15083 0.13186,0 0.49916,0.41974 0.81622,0.93276 0.95942,1.55237 0.15548,2.34809 -1.06249,1.05162 -0.75765,-0.80649 -1.27424,-0.82844 -2.49841,-0.10616 -1.0705,0.63161 -1.22362,1.00914 -0.34586,0.85275 1.41421,-0.25196 4.41192,3.9057 4.42792,6.14129 0.004,0.61827 1.01196,1.97566 1.46645,1.97566 0.16814,0 0.52405,-0.74414 0.79091,-1.65365 z m -26.65293,0.18812 c 0.47755,-0.64917 0.75411,-1.1803 0.61457,-1.1803 -0.28039,0 -1.87973,1.85222 -1.87973,2.17694 0,0.46697 0.44821,0.11389 1.26516,-0.99664 z m 0.42632,0.78243 c 0.24838,-0.64724 0.19453,-0.73276 -0.23627,-0.37523 -0.43984,0.36503 -0.52658,0.79375 -0.1606,0.79375 0.12995,0 0.30855,-0.18834 0.39687,-0.41852 z m 33.0043,-0.89076 c 2.16757,-2.54237 2.73249,-3.24928 3.16508,-3.96063 0.25346,-0.41677 0.58955,-0.83732 0.74686,-0.93455 0.15732,-0.0972 0.28548,-0.31858 0.2848,-0.49189 -0.001,-0.33144 -1.31054,0.95948 -1.73527,1.71097 -0.13633,0.24122 -0.96225,1.23777 -1.83537,2.21455 -1.74766,1.95514 -2.13549,2.50624 -1.76373,2.50624 0.13582,0 0.64775,-0.47011 1.13763,-1.04469 z m -0.2261,-1.35372 c 0.43101,-0.58609 0.72148,-1.12779 0.64549,-1.20378 -0.076,-0.076 -0.35823,0.18428 -0.62719,0.57839 -0.26896,0.3941 -0.87597,1.07899 -1.34892,1.52198 -0.47294,0.44299 -0.85989,0.91123 -0.85989,1.04054 0,0.39488 1.35999,-0.80781 2.19051,-1.93713 z m -26.75279,1.00935 c 0.19409,-0.47294 0.84957,-1.83362 1.45661,-3.02374 1.61468,-3.16562 2.19583,-4.55659 1.96369,-4.70006 -0.11312,-0.0699 -0.47526,0.41265 -0.80474,1.07237 -0.32948,0.65972 -0.765,1.26317 -0.96784,1.34101 -0.20282,0.0778 -0.36878,0.30705 -0.36878,0.50937 0,0.20233 -0.35718,1.12385 -0.79375,2.04784 -0.43656,0.92399 -0.79375,1.80877 -0.79375,1.96618 0,0.15742 -0.18618,0.47239 -0.41374,0.69995 -0.22756,0.22757 -0.3396,0.53373 -0.24897,0.68036 0.29475,0.47692 0.61144,0.28348 0.97127,-0.59328 z m 15.79179,0.0638 c 0.45814,-0.43782 0.83299,-0.90632 0.83299,-1.04111 0,-0.56998 -0.54767,-1.62221 -0.77214,-1.48348 -0.46751,0.28893 -1.86135,2.77013 -1.47228,2.62084 0.20989,-0.0805 0.63233,-0.5521 0.93874,-1.04789 0.30642,-0.49579 0.6718,-0.83056 0.81196,-0.74394 0.27127,0.16765 0.0539,0.52808 -1.06391,1.76403 -0.88829,0.98219 -0.31843,0.92836 0.72464,-0.0684 z m 9.06377,-0.59301 c 0.32772,-0.59623 0.008,-0.58091 -0.7976,0.0382 -0.45755,0.35176 -0.58247,0.62918 -0.44413,0.9863 0.18608,0.48032 0.20573,0.47925 0.58985,-0.0323 0.21856,-0.29104 0.5119,-0.73753 0.65188,-0.99219 z m -52.77646,0.19844 c 0.0838,-0.21828 0.26533,-0.39687 0.40349,-0.39687 0.30516,0 2.86719,-2.63756 2.86719,-2.95172 0,-0.37636 -0.4632,-0.24767 -0.62485,0.17359 -0.0838,0.21828 -0.27784,0.39688 -0.43128,0.39688 -0.15442,0 -0.0855,-0.29535 0.15442,-0.66146 0.23837,-0.36381 0.62919,-0.66146 0.86849,-0.66146 0.45739,0 0.9397,-0.62449 1.38317,-1.7909 l 0.26512,-0.69732 -0.6045,0.51651 c -1.15149,0.98388 -5.27689,5.14671 -5.10043,5.14671 0.0975,0 0.62823,-0.35719 1.17944,-0.79375 1.34538,-1.06556 1.92311,-1.01374 0.77931,0.0699 -1.38212,1.30942 -1.96059,2.04677 -1.60576,2.04677 0.17264,0 0.38242,-0.1786 0.46619,-0.39688 z m 21.55164,-1.23907 c 0.28336,-0.55544 0.6131,-1.00989 0.73275,-1.00989 0.27874,0 1.24833,-1.78656 1.06766,-1.96724 -0.19974,-0.19974 -3.14804,3.80597 -3.14804,4.27709 0,0.61922 0.72563,-0.0807 1.34763,-1.29996 z m 10.60393,1.19806 c 0.26612,-0.24083 0.48757,-0.62779 0.49211,-0.85989 0.005,-0.23211 0.30159,-0.89827 0.66011,-1.48035 0.69901,-1.13491 0.86277,-2.09788 0.32635,-1.91907 -0.18051,0.0602 -0.4484,0.5366 -0.59531,1.05872 -0.28823,1.02439 -0.66577,1.57865 -0.66112,0.97059 0.002,-0.20615 0.17447,-0.94037 0.38422,-1.63159 0.54106,-1.78311 0.12077,-1.55924 -0.63234,0.33682 -0.61968,1.56012 -0.62236,1.60162 -0.12772,1.97596 0.48194,0.36471 0.47308,0.38275 -0.19191,0.39078 -0.6002,0.007 -1.55178,0.89905 -1.55178,1.45432 0,0.33172 1.4544,0.10461 1.89739,-0.29629 z m 10.14115,-1.14961 c 0.53411,-0.72761 1.08003,-1.32292 1.21316,-1.32292 0.46247,0 0.23821,-0.70512 -0.42134,-1.32473 -0.75138,-0.70588 -0.66616,-0.76152 -2.19082,1.43045 -0.39472,0.56748 -0.83252,1.18684 -0.97289,1.37638 -0.14038,0.18953 -0.17227,0.42756 -0.0709,0.52895 0.21246,0.21246 2.21227,-1.9141 2.45103,-2.60636 0.16493,-0.47823 0.6532,-0.64642 0.6532,-0.22501 0,0.13091 -0.47625,0.87185 -1.05834,1.64653 -0.58208,0.77468 -1.05833,1.50101 -1.05833,1.61406 0,0.52707 0.56855,0.0905 1.45521,-1.11735 z m -21.43457,-0.7885 c 0.36563,-0.57919 0.66478,-1.12143 0.66478,-1.20497 0,-0.0835 0.35157,-0.52809 0.78128,-0.98787 0.4297,-0.45978 0.71565,-0.89981 0.63544,-0.97784 -0.0802,-0.078 -0.68724,0.45345 -1.34896,1.18105 -0.66172,0.7276 -1.36439,1.28793 -1.56149,1.24517 -0.24863,-0.0539 -0.35836,0.20935 -0.35836,0.8599 0,1.2217 0.36565,1.18615 1.18731,-0.11544 z m 6.64059,0.008 c 0.91231,-1.37859 0.69638,-1.96176 -0.23092,-0.62365 -0.65679,0.94774 -0.9114,1.66881 -0.58927,1.66881 0.0707,0 0.43978,-0.47032 0.82019,-1.04516 z m 23.95871,0.67121 c 1.69745,-0.70924 2.2542,-1.47382 2.45783,-3.37532 0.17035,-1.59064 0.12611,-1.82458 -0.5715,-3.02231 -0.83334,-1.43077 -2.06063,-2.22318 -3.44429,-2.22384 -0.82621,-2.7e-4 -0.8599,0.0409 -0.8599,1.05288 0,0.92922 0.0857,1.0744 0.72761,1.23248 2.52495,0.62182 3.15734,3.02976 1.3823,5.26336 -0.70417,0.88608 -0.9704,1.4467 -0.68701,1.4467 0.055,0 0.50272,-0.16827 0.99496,-0.37395 z m -27.81255,-0.55849 c 0.18408,-0.22179 0.26106,-0.47688 0.17108,-0.56687 -0.19216,-0.19216 -0.97014,0.39962 -0.97014,0.73796 0,0.36445 0.43123,0.27212 0.79906,-0.17109 z m -21.03294,-3.55262 c 3.16512,-3.15571 4.02898,-4.24618 3.36379,-4.24618 -0.11074,0 -0.49769,0.37963 -0.85989,0.84362 -0.64138,0.82163 -3.32719,3.54478 -5.5227,5.59948 -1.02961,0.96357 -1.41575,1.64742 -0.81766,1.44805 0.14923,-0.0497 1.87564,-1.68998 3.83646,-3.64497 z m 38.47605,1.95135 c 0.92433,-1.36959 0.94389,-1.43503 0.42897,-1.43503 -0.47364,0 -1.37658,1.24263 -1.62651,2.23841 -0.25231,1.00528 0.16652,0.7243 1.19754,-0.80338 z m 15.82294,-0.1138 c 0.98143,-1.50097 1.15658,-2.08813 0.26458,-0.887 -0.32742,0.4409 -0.80367,1.00831 -1.05833,1.26093 -0.25466,0.25262 -0.46302,0.56986 -0.46302,0.70499 0,0.54673 0.44182,0.16743 1.25677,-1.07892 z m -5.86633,0.33241 c 0.4903,-0.74573 0.55706,-1.84322 0.13764,-2.26264 -0.13761,-0.13761 -0.31471,0.24247 -0.42606,0.91435 -0.10481,0.63242 -0.29998,1.35822 -0.43372,1.61288 -0.39714,0.7562 0.1932,0.5399 0.72214,-0.26459 z m -32.16753,-0.50909 c 0,-0.44128 0.3384,-0.98627 0.97378,-1.56825 0.53558,-0.49057 0.92253,-0.94066 0.85989,-1.0002 -0.0626,-0.0595 -0.56707,-0.23203 -1.12097,-0.3833 -0.7491,-0.20458 -1.03783,-0.19473 -1.12706,0.0385 -0.17442,0.45586 -0.31387,3.59813 -0.16623,3.74577 0.26549,0.2655 0.58059,-0.18632 0.58059,-0.83249 z m 30.93681,-0.28466 c 0.16937,-0.69122 0.37012,-1.46513 0.44611,-1.71979 0.22317,-0.74792 -0.28256,-0.53024 -0.6147,0.26459 -0.16723,0.40018 -0.52075,1.05917 -0.78561,1.46441 -0.42168,0.64518 -0.43221,0.76807 -0.0847,0.98814 0.63569,0.40255 0.71436,0.32703 1.03889,-0.99735 z m -28.7394,-0.37922 c 0.86852,-1.18708 0.89285,-1.38884 0.1177,-0.97593 -0.82224,0.43799 -1.23843,1.03973 -1.24836,1.80495 -0.009,0.69616 0.0423,0.65848 1.13066,-0.82902 z m -21.40286,0.25063 c 0.74034,-0.47091 1.581,-1.15552 1.86812,-1.52136 0.28712,-0.36583 0.82732,-0.96281 1.20043,-1.32661 0.96187,-0.93786 3.17232,-3.87361 3.17232,-4.21323 0,-0.54177 -0.41718,-0.2811 -0.92058,0.57521 -0.76617,1.30332 -5.56735,5.9774 -6.33884,6.17103 -0.42876,0.10762 -0.67808,0.35421 -0.67808,0.67068 0,0.6687 0.12841,0.64177 1.69663,-0.35572 z m 57.19861,-1.15011 c 0.5197,-0.81243 0.88539,-1.53668 0.81262,-1.60944 -0.1205,-0.1205 -2.02869,2.66314 -2.02869,2.95943 0,0.38267 0.37157,-0.0298 1.21607,-1.34999 z m -26.80083,-1.97452 c 0.0892,-0.34124 -0.14537,-0.70608 -0.75113,-1.16812 -0.48449,-0.36954 -0.99614,-0.67189 -1.13699,-0.67189 -0.14086,0 -0.5123,0.43423 -0.82543,0.96494 -0.69956,1.18566 -1.22795,0.88366 -0.95932,-0.5483 0.16737,-0.89216 0.2358,-0.9458 1.20656,-0.9458 0.56602,0 1.36429,0.12743 1.77395,0.28318 0.92681,0.35238 0.9756,0.31606 1.03076,-0.76719 0.0562,-1.104 -0.29521,-1.24255 -1.76663,-0.69656 -0.64083,0.23778 -1.675,0.56209 -2.29816,0.72069 -0.88831,0.22608 -1.44564,0.64444 -2.5805,1.93706 -1.67827,1.91158 -1.08643,2.11177 0.63881,0.21608 0.58268,-0.64025 1.1259,-1.1641 1.20717,-1.1641 0.33003,0 0.11931,1.97414 -0.25486,2.38759 -0.3666,0.40509 -0.2913,0.54747 0.84197,1.59208 l 1.24457,1.1472 1.24973,-1.39531 c 0.68735,-0.76743 1.30812,-1.61862 1.3795,-1.89155 z m 6.38053,2.40273 c 1.39884,-0.59961 1.53198,-0.95553 0.44662,-1.19392 -0.66874,-0.14688 -0.78866,-0.31969 -0.94491,-1.3616 -0.29118,-1.94173 0.57993,-2.82882 3.2063,-3.26507 0.88021,-0.1462 1.07047,-0.10924 0.95718,0.18596 -0.15601,0.40657 1.42775,2.18564 1.94569,2.18564 0.60109,0 1.42265,-1.36156 1.41846,-2.35078 -0.006,-1.45615 -0.3659,-1.84235 -0.92345,-0.9914 -0.67472,1.02974 -1.35024,0.90754 -1.54281,-0.27911 -0.18435,-1.13602 0.0948,-1.57147 1.15678,-1.80472 1.17566,-0.25822 2.01833,0.50918 2.40314,2.18849 l 0.31914,1.39269 0.62041,-1.09224 0.6204,-1.09225 -0.95716,-2.68169 c -1.91111,-5.35441 -4.54072,-7.44756 -11.41583,-9.08692 -1.34536,-0.3208 -1.35969,-0.26326 -0.47497,1.90731 l 0.64706,1.5875 h 1.65406 c 1.63607,0 1.65675,0.009 1.90174,0.85364 0.1514,0.52184 0.46489,0.91012 0.8065,0.99894 0.30736,0.0799 1.59888,0.64826 2.87003,1.26302 2.28046,1.10287 2.92131,1.77919 1.68586,1.77919 -0.34823,0 -0.70168,0.17859 -0.78544,0.39688 -0.0838,0.21828 -0.30984,0.39687 -0.50239,0.39687 -0.19255,0 -0.87592,0.53578 -1.5186,1.19063 -1.23088,1.25417 -1.95039,1.60444 -1.22285,0.59531 0.77502,-1.07501 1.99554,-3.57089 1.82809,-3.73833 -0.0902,-0.0902 -0.68791,0.80036 -1.32827,1.97901 -0.64037,1.17865 -1.10103,2.20627 -1.0237,2.2836 0.33145,0.33145 -0.4695,1.14875 -1.63022,1.66351 -1.46977,0.65182 -2.54355,0.54628 -4.19499,-0.4123 -0.5993,-0.34787 -1.16485,-0.55728 -1.25677,-0.46536 -0.0919,0.0919 -0.16712,0.68306 -0.16712,1.31365 0,1.23389 0.28555,1.41402 1.17505,0.74124 0.74785,-0.56565 1.89513,-0.47883 2.51881,0.1906 0.58026,0.62284 0.62025,0.81218 0.36936,1.74886 -0.26397,0.98547 -0.99957,0.609 -1.15281,-0.59001 -0.0728,-0.5693 -0.25457,-1.07523 -0.40402,-1.12429 -0.14944,-0.0491 -0.66612,0.24004 -1.14816,0.64247 l -0.87644,0.73168 1.78021,1.91653 c 0.97911,1.0541 1.81333,1.91653 1.85383,1.91653 0.0405,0 0.61928,-0.23389 1.28619,-0.51976 z m 0.3692,-16.85889 c 0.191,-0.0764 0.4192,-0.067 0.50712,0.0209 0.0879,0.0879 -0.0684,0.15045 -0.34727,0.13896 -0.30822,-0.0127 -0.37092,-0.0754 -0.15985,-0.15985 z m 3.48919,16.8778 c 0,-0.12996 -0.17859,-0.30481 -0.39687,-0.38858 -0.4033,-0.15476 -0.54187,0.12708 -0.22049,0.44846 0.25286,0.25286 0.61736,0.21751 0.61736,-0.0599 z m 8.25354,-0.70422 c 0.39212,-0.8651 0.39207,-0.9339 -5.3e-4,-0.8583 -0.23898,0.046 -0.50403,0.45988 -0.60233,0.94049 -0.2318,1.1334 0.0705,1.09218 0.60283,-0.0822 z m 8.7852,-1.73108 c 0.2714,-0.45943 0.38393,-0.79042 0.25008,-0.73553 -0.46274,0.18977 -2.47215,2.54149 -2.47215,2.89328 0,0.45985 1.585,-1.07927 2.22207,-2.15775 z m -55.13251,-0.99876 c 0.003,-0.0914 0.65722,-0.8805 1.45287,-1.75363 0.79565,-0.87312 1.4477,-1.69137 1.44898,-1.81833 0.003,-0.31017 -0.7511,0.29878 -1.70084,1.3732 -1.18987,1.34607 -2.84513,2.99881 -3.95124,3.94521 -0.54911,0.46982 -0.92167,0.97837 -0.8279,1.13009 0.15705,0.25411 3.56343,-2.48436 3.57813,-2.87654 z m 37.65761,1.11287 c 0.54271,-0.60623 0.88336,-1.16614 0.757,-1.24423 -0.21596,-0.13347 -2.17292,1.98548 -2.17292,2.35278 0,0.32711 0.43698,-0.015 1.41592,-1.10855 z m -0.093,-1.88508 c 0,-0.53892 -0.40008,-0.17498 -1.29822,1.18096 -1.14768,1.73268 -1.01906,1.97447 0.23988,0.45097 0.58209,-0.7044 1.05834,-1.43877 1.05834,-1.63193 z m -14.55209,1.53112 c 0,-0.36451 -0.72883,-0.0206 -0.89963,0.42446 -0.11775,0.30686 -0.0433,0.32714 0.37642,0.10253 0.28777,-0.15401 0.52321,-0.39116 0.52321,-0.52699 z m 15.61545,0.39182 c 0.2796,-0.3369 0.26324,-0.37562 -0.0999,-0.23627 -0.23886,0.0917 -0.4343,0.27298 -0.4343,0.40293 0,0.34024 0.15316,0.29246 0.5342,-0.16666 z m 15.34716,-0.39762 c 0.41131,-0.44031 0.7865,-0.89807 0.83376,-1.01725 0.0473,-0.11918 0.44203,-0.38509 0.87726,-0.59091 0.86031,-0.40684 1.3797,-1.26835 1.60156,-2.65651 0.12683,-0.79354 0.10564,-0.83332 -0.19945,-0.37429 -0.18775,0.28249 -0.59679,0.78146 -0.90899,1.10882 -0.31219,0.32737 -0.96704,1.1678 -1.45521,1.86764 -0.48817,0.69984 -1.09594,1.46499 -1.3506,1.70034 -0.46584,0.43051 -0.59851,0.76271 -0.30459,0.76271 0.0871,0 0.49495,-0.36025 0.90626,-0.80055 z m -33.10157,-0.7208 c 1.39206,-1.62409 1.40109,-2.09375 0.0125,-0.64861 -0.93652,0.97466 -1.57766,1.37623 -1.57766,0.98816 0,-0.0679 0.41672,-0.54019 0.92604,-1.04951 0.50932,-0.50933 0.92604,-1.0327 0.92604,-1.16306 0,-0.38705 -1.32661,-0.12388 -1.87435,0.37182 -0.79918,0.72324 -0.5637,2.75797 0.31918,2.75797 0.10509,0 0.67583,-0.56555 1.26829,-1.25677 z m 15.58669,-0.85289 c 0.33849,-0.44041 0.49732,-0.80076 0.35296,-0.80076 -0.32573,0 -1.74337,1.79606 -1.98396,2.51355 -0.18372,0.54791 0.21666,0.12745 1.631,-1.71279 z m -37.93799,0.35072 c 2.85686,-2.93742 3.34517,-3.53273 2.8978,-3.53273 -0.54324,0 -4.60129,4.15576 -4.60129,4.71208 0,0.44762 0.37083,0.19089 1.70349,-1.17935 z m 19.57874,0.36988 c -0.069,-0.51298 0.0745,-1.2335 0.3559,-1.78594 0.4534,-0.89018 0.52543,-0.92461 1.86041,-0.88902 1.22704,0.0327 1.34928,-0.0109 1.04979,-0.37413 -0.40371,-0.48969 -3.40877,-2.7056 -3.66915,-2.7056 -0.0999,0 -0.23932,0.32742 -0.30985,0.72761 -0.0705,0.40018 -0.33713,1.71556 -0.59245,2.92307 -0.45032,2.12972 -0.44936,2.20673 0.0321,2.57127 0.27296,0.20669 0.69716,0.37959 0.94267,0.38422 0.35208,0.007 0.42193,-0.17325 0.33063,-0.85148 z m 35.73318,-0.77753 c 0.16182,-0.10022 0.70479,-0.7846 1.2066,-1.52084 0.5018,-0.73625 0.99861,-1.33886 1.10401,-1.33914 0.10541,-2.7e-4 0.37635,-0.3577 0.60211,-0.79426 0.22575,-0.43656 0.31811,-0.78997 0.20523,-0.78534 -0.3319,0.0136 -1.13127,0.68999 -1.13127,0.95721 0,0.13521 -0.78573,1.10674 -1.74607,2.15895 -1.21239,1.32839 -1.69478,2.04676 -1.57827,2.35038 0.14361,0.37424 0.2309,0.34488 0.60562,-0.20374 0.2408,-0.35255 0.57022,-0.723 0.73204,-0.82322 z m -18.46069,-0.3773 c -0.25742,-0.25743 -0.98388,0.41839 -0.98388,0.91529 0,0.34018 0.11398,0.30929 0.58061,-0.15734 0.31934,-0.31933 0.50081,-0.66041 0.40327,-0.75795 z m 17.00778,0.18148 c 0,-0.13516 0.43142,-0.70071 0.9587,-1.25677 1.374,-1.44901 2.31417,-2.72115 2.13985,-2.89546 -0.0826,-0.0826 -0.32967,0.0694 -0.54898,0.33793 -0.21931,0.26849 -1.00174,1.21998 -1.73874,2.11441 -1.37996,1.67474 -1.52969,1.94563 -1.07541,1.94563 0.14552,0 0.26458,-0.11058 0.26458,-0.24574 z m -53.60967,-1.57446 c 0.84667,-0.85559 1.43719,-1.61878 1.31228,-1.69598 -0.28316,-0.175 -1.57043,0.97029 -2.55097,2.26961 -1.10629,1.46595 -0.50327,1.1867 1.23869,-0.57363 z m 53.08051,0.74603 c 0,-0.15423 0.61258,-0.92813 1.36129,-1.71979 0.74872,-0.79165 1.2425,-1.43937 1.09729,-1.43937 -0.32903,0 -2.98775,2.8325 -2.98775,3.18304 0,0.1411 0.11906,0.25654 0.26458,0.25654 0.14552,0 0.26459,-0.12619 0.26459,-0.28042 z m -53.90886,-1.73 c 0.69123,-0.66572 1.25677,-1.31915 1.25677,-1.45207 0,-0.51968 -0.98968,-0.20591 -1.26645,0.40152 -0.16118,0.35375 -0.65654,0.91192 -1.1008,1.24038 -0.44426,0.32846 -0.80775,0.69386 -0.80775,0.81202 0,0.51408 0.75207,0.12129 1.91823,-1.00185 z m 54.00494,-0.0949 c 0.67476,-0.72137 1.22683,-1.43574 1.22683,-1.5875 0,-0.4588 -0.50605,-0.31076 -0.99477,0.29102 -0.25324,0.31181 -0.78786,0.95261 -1.18804,1.42399 -0.40018,0.47138 -0.7276,0.93064 -0.7276,1.02057 0,0.4328 0.56569,0.047 1.68358,-1.14808 z m -27.19412,0.0548 c 0.28498,-0.40018 0.74016,-1.15364 1.0115,-1.67435 0.27134,-0.52071 0.82674,-1.41368 1.23423,-1.98438 0.69768,-0.97712 3.42106,-5.86108 3.42106,-6.13514 0,-0.39439 -0.92419,0.74231 -1.45466,1.78914 -0.3408,0.67253 -1.10925,1.95991 -1.70766,2.86084 -0.59842,0.90094 -1.1735,1.85183 -1.27796,2.11309 -0.3224,0.80634 -1.76518,2.94479 -1.9937,2.955 -0.32428,0.0145 0.058,-1.09063 0.63729,-1.84243 0.28034,-0.3638 0.63565,-0.95911 0.78957,-1.32291 0.15393,-0.3638 0.49792,-0.89959 0.76443,-1.19063 0.26651,-0.29104 1.01972,-1.50285 1.67381,-2.69292 0.65409,-1.19006 1.38061,-2.43694 1.61448,-2.77085 0.23388,-0.3339 0.42523,-0.7592 0.42523,-0.9451 0,-0.63244 -0.52074,-0.34078 -0.93182,0.52189 -0.22536,0.47295 -0.70038,1.33615 -1.0556,1.91823 -0.35522,0.58209 -0.76479,1.32623 -0.91016,1.65365 -0.28517,0.64228 -0.80659,0.80861 -0.80659,0.25731 0,-0.37808 0.70142,-1.50517 1.18924,-1.91096 0.58504,-0.48665 1.93245,-3.49462 1.71965,-3.83894 -0.14938,-0.2417 -0.29675,-0.16434 -0.53499,0.2808 -0.18084,0.33792 -0.43583,0.74096 -0.56663,0.89564 -0.1308,0.15469 -0.40261,0.51919 -0.60403,0.81 -0.20142,0.29082 -0.43715,0.45782 -0.52385,0.37112 -0.0867,-0.0867 0.0863,-0.46776 0.38449,-0.84682 l 0.54213,-0.6892 -0.56878,-0.65416 c -0.31283,-0.35978 -0.73372,-0.59086 -0.9353,-0.51351 -0.56968,0.21861 -0.43123,0.58058 0.16266,0.42528 0.64238,-0.16799 0.67239,0.13027 0.0959,0.9533 -0.28476,0.40655 -0.44821,1.24063 -0.47691,2.43359 -0.0344,1.43079 -0.16042,1.94245 -0.5952,2.41689 -0.30335,0.33101 -0.94171,1.31622 -1.41859,2.18935 -0.47687,0.87312 -1.0964,1.84477 -1.37674,2.15921 -0.28034,0.31443 -0.45783,0.79068 -0.39442,1.05833 0.11027,0.4654 0.12477,0.46463 0.33266,-0.0176 0.53531,-1.24182 3.0948,-5.17648 3.37026,-5.18102 0.44498,-0.007 0.14762,0.75563 -0.6762,1.73503 -0.74857,0.88995 -2.30037,3.76302 -2.30037,4.25903 0,0.17863 0.83847,0.86004 1.07472,0.87341 0.0818,0.005 0.38185,-0.319 0.66683,-0.71919 z m 8.60014,-2.57166 c 0.45222,-1.15975 0.98925,-2.3471 1.19339,-2.63855 0.4298,-0.61363 0.48577,-1.20593 0.11395,-1.20593 -0.14148,0 -0.52556,0.62508 -0.85352,1.38906 -0.32796,0.76398 -1.0427,2.26841 -1.5883,3.34317 -0.54561,1.07475 -0.91839,2.07322 -0.82842,2.2188 0.26896,0.43517 1.08625,-0.85829 1.9629,-3.10655 z m -6.61096,1.56549 c 0.405,-0.71991 0.99253,-1.77242 1.30561,-2.33892 0.31308,-0.56649 0.95461,-1.57852 1.42562,-2.24896 0.91602,-1.30385 1.40356,-2.67418 0.95142,-2.67418 -0.1483,0 -0.26963,0.14243 -0.26963,0.31651 0,0.17408 -0.281,0.73963 -0.62445,1.25677 -0.34344,0.51715 -1.19076,1.89277 -1.88291,3.05693 -2.46127,4.1397 -2.50384,4.22804 -1.94858,4.04296 0.16861,-0.0562 0.63792,-0.6912 1.04292,-1.41111 z m 7.98219,1.00617 c 0.60174,-0.6668 2.82289,-5.17009 2.67114,-5.41563 -0.30451,-0.49271 -0.64828,-0.0512 -1.95074,2.50522 -0.75994,1.49159 -1.50165,2.8608 -1.64824,3.04271 -0.42834,0.5315 0.44061,0.4076 0.92784,-0.1323 z m -6.94126,-0.1407 c 0.47682,-0.37851 3.52621,-6.53244 3.33279,-6.72586 -0.24739,-0.24739 -0.63726,0.17991 -0.81679,0.8952 -0.0986,0.39291 -0.51197,1.13817 -0.91857,1.65615 -0.40661,0.51798 -0.98047,1.49196 -1.27525,2.1644 -0.29477,0.67245 -0.66851,1.30455 -0.83052,1.40468 -0.32906,0.20336 -0.40565,0.94928 -0.0961,0.93616 0.10914,-0.005 0.38115,-0.15346 0.60447,-0.33073 z m 3.63205,-1.18221 c 0.31418,-0.69123 0.6763,-1.43537 0.80471,-1.65365 0.12842,-0.21828 0.47874,-0.93266 0.7785,-1.5875 0.29976,-0.65484 0.72249,-1.57043 0.93939,-2.03463 0.2169,-0.4642 0.32768,-0.91069 0.24618,-0.99219 -0.24584,-0.24584 -0.58915,-0.16683 -0.58915,0.13559 0,0.15607 -0.64196,1.61459 -1.42657,3.24114 -0.7846,1.62656 -1.507,3.22527 -1.60532,3.5527 -0.32451,1.08061 0.27026,0.619 0.85226,-0.66146 z m 2.34,0.39687 c 0.21887,-0.47294 0.86764,-1.74104 1.44171,-2.818 1.1167,-2.09496 1.18118,-2.2591 0.79325,-2.01935 -0.68584,0.42387 -2.9245,4.70179 -2.9245,5.5885 0,0.36528 0.34862,-0.0145 0.68954,-0.75115 z m -35.22578,-1.8377 c 0.14156,-0.10122 0.18312,-0.2583 0.0924,-0.34906 -0.25825,-0.25825 -1.16963,0.41581 -1.64093,1.21365 -0.71401,1.20873 -0.4797,1.38286 0.43176,0.32086 0.47269,-0.55077 0.97526,-1.08422 1.11681,-1.18545 z m 32.10227,0.44156 c 0.32004,-0.65873 0.5824,-1.40288 0.58302,-1.65364 6.2e-4,-0.25077 0.3573,-0.99173 0.79262,-1.64657 0.80343,-1.2086 0.99354,-1.85209 0.54718,-1.85209 -0.24832,0 -1.34093,1.39067 -1.34093,1.70673 0,0.0934 -0.41906,1.06488 -0.93123,2.15884 -0.849,1.81339 -0.96481,2.48443 -0.4288,2.48443 0.10794,0 0.4581,-0.53896 0.77814,-1.1977 z m -8.22453,-0.27098 c 0.23716,-0.31786 0.69105,-1.08229 1.61044,-2.71228 0.75469,-1.33798 0.62686,-1.80149 -0.14525,-0.52669 -0.2902,0.47916 -0.95981,1.57857 -1.488,2.44313 -0.92821,1.51932 -1.33695,2.6809 -0.56409,1.60307 0.20869,-0.29105 0.47279,-0.6543 0.5869,-0.80723 z m -1.04542,-0.0822 c 1.13046,-1.86415 2.55713,-4.7737 2.41193,-4.91889 -0.25698,-0.25698 -1.46905,0.30549 -1.64471,0.76325 -0.0885,0.23069 -0.0517,0.70684 0.0819,1.05811 0.17078,0.44917 0.14254,0.7219 -0.0952,0.91918 -0.54264,0.45036 -1.81084,2.93547 -1.49802,2.93547 0.15674,0 0.49159,-0.3407 0.74412,-0.75712 z m -0.89885,-0.3904 c 0.78233,-1.87237 0.71647,-2.12159 -0.20641,-0.78114 -1.06947,1.55338 -1.10645,1.66408 -0.55583,1.66408 0.21633,0 0.55934,-0.39732 0.76224,-0.88294 z m -0.63723,-1.36602 c -0.004,-0.14552 -0.30098,0.0926 -0.65883,0.52917 -0.35784,0.43656 -0.64694,0.91281 -0.64242,1.05833 0.004,0.14552 0.30098,-0.0926 0.65883,-0.52916 0.35784,-0.43657 0.64694,-0.91282 0.64242,-1.05834 z m 29.20005,-0.6535 c 0.70307,-1.31906 1.21077,-4.09948 1.08269,-5.92944 -0.10915,-1.55946 -0.48544,-2.38251 -1.82891,-4.00039 l -0.65912,-0.79375 -0.009,0.66146 c -0.005,0.3638 -0.0793,1.97114 -0.16478,3.57187 -0.0854,1.60073 -0.18716,3.80339 -0.22605,4.89479 -0.0974,2.73207 -0.0776,2.6434 -0.59455,2.66673 -0.36843,0.0166 -0.38194,0.0516 -0.0661,0.17108 0.21828,0.0826 0.48996,0.30755 0.60374,0.49985 0.26092,0.44102 1.13432,-0.37594 1.86255,-1.7422 z m -29.58609,0.24368 c 0.29104,-0.25487 0.76256,-0.50576 1.04781,-0.55755 0.3287,-0.0597 0.57852,-0.38428 0.68212,-0.88631 0.3567,-1.7286 1.02356,-2.2366 2.9454,-2.24375 0.84688,-0.003 0.98963,-0.0967 1.11543,-0.73121 0.39397,-1.987 0.46718,-2.71198 0.27386,-2.71198 -0.49277,0 -3.77485,2.1858 -4.66043,3.10376 -0.52916,0.5485 -1.2335,1.53306 -1.5652,2.1879 -0.33171,0.65485 -0.74753,1.27965 -0.92404,1.38844 -0.40503,0.24965 -0.15446,1.31263 0.25523,1.08277 0.16536,-0.0928 0.53878,-0.3772 0.82982,-0.63207 z m -19.97189,-0.45007 c 0.002,-0.10914 0.5481,-0.79375 1.21292,-1.52136 1.75993,-1.92611 2.48709,-3.1623 2.48709,-4.22807 0,-1.13923 -0.35284,-1.202 -0.79233,-0.14096 -0.18006,0.43468 -0.73028,1.35703 -1.22273,2.04967 -0.49244,0.69264 -0.89535,1.36941 -0.89535,1.50393 0,0.38247 -0.83761,1.21231 -1.22366,1.21231 -0.2315,0 -0.12925,-0.3222 0.30559,-0.96297 0.35942,-0.52963 0.65348,-1.07384 0.65348,-1.20935 0,-0.13552 0.53017,-0.98937 1.17816,-1.89744 0.64799,-0.90807 1.30069,-1.97334 1.45046,-2.36726 0.14977,-0.39392 0.5639,-0.82708 0.92028,-0.96258 0.51013,-0.19395 0.68644,-0.50288 0.8288,-1.45222 0.15632,-1.04243 0.62229,-1.87827 1.93335,-3.46797 0.12758,-0.15469 0.38205,-0.57141 0.5655,-0.92604 0.41194,-0.79637 2.44338,-3.52287 2.7146,-3.64341 0.28998,-0.12888 0.24284,-0.83785 -0.0557,-0.83785 -0.44711,0 -1.68063,1.73237 -2.79264,3.92202 -0.39342,0.77467 -0.87764,1.47078 -1.07605,1.54692 -0.19841,0.0761 -0.69139,0.79418 -1.09552,1.59565 -0.40412,0.80148 -0.98663,1.71271 -1.29446,2.02497 -0.30783,0.31225 -0.81997,1.08102 -1.13809,1.70836 -0.64165,1.26534 -2.09286,3.52897 -2.91569,4.54792 -0.29377,0.3638 -0.53678,0.76214 -0.54002,0.8852 -0.003,0.12305 -0.26088,0.58185 -0.57255,1.01954 -0.45468,0.63855 -0.49639,0.83923 -0.21107,1.01557 0.19558,0.12088 0.45142,0.16055 0.56854,0.0882 0.11711,-0.0724 0.28436,0.0545 0.37166,0.28204 0.16119,0.42004 0.62785,0.57809 0.63544,0.21521 z m 57.3896,-1.38907 c 0.21904,0 0.81458,-1.18349 0.81458,-1.61878 0,-0.14904 -0.41672,0.17087 -0.92604,0.71091 -1.02528,1.08712 -1.12986,1.30729 -0.50753,1.06847 0.23018,-0.0883 0.50873,-0.1606 0.61899,-0.1606 z m -0.2511,-1.67894 c 0.004,-0.12306 0.25358,-0.56954 0.55453,-0.99219 0.89364,-1.255 0.15838,-0.87262 -0.81177,0.42218 -0.49065,0.65484 -0.9295,1.19062 -0.97521,1.19062 -0.26573,0 0.005,-0.59307 0.58517,-1.28278 0.76675,-0.91124 0.46807,-1.38564 -0.31166,-0.495 -1.32072,1.5086 -1.67438,2.47585 -0.96294,2.6336 0.4552,0.10094 1.90669,-1.01413 1.92188,-1.47643 z m -52.44079,1.10017 c -0.1633,-0.48991 -0.65121,-0.54545 -0.8245,-0.0939 -0.10975,0.28599 0.006,0.40806 0.38632,0.40806 0.3015,0 0.49634,-0.13971 0.43818,-0.31419 z m -5.56225,-1.47175 c 0.55483,-0.83674 1.16843,-1.9083 1.36356,-2.38125 0.19513,-0.47294 0.43747,-0.85989 0.53854,-0.85989 0.10107,0 0.44273,-0.46078 0.75925,-1.02395 0.31652,-0.56317 0.75517,-1.17306 0.97477,-1.35531 0.21959,-0.18225 0.39927,-0.53349 0.39927,-0.78051 0,-0.24703 0.41672,-0.93599 0.92604,-1.53102 0.50932,-0.59503 0.92604,-1.19102 0.92604,-1.32442 0,-0.1334 0.30805,-0.5312 0.68456,-0.88398 0.37651,-0.35279 0.8571,-0.99863 1.06798,-1.43519 0.21088,-0.43656 0.66971,-1.32953 1.01962,-1.98437 0.68753,-1.2867 0.77653,-1.58785 0.46899,-1.58687 -0.10914,3.4e-4 -0.54046,0.65519 -0.95848,1.4552 -0.41802,0.80002 -0.85286,1.45458 -0.96631,1.45458 -0.11344,0 -0.33997,0.32743 -0.50339,0.72761 -0.16343,0.40018 -0.76743,1.44198 -1.34224,2.3151 -0.57481,0.87313 -1.45901,2.303 -1.96488,3.17749 -0.50588,0.87449 -1.15684,1.84445 -1.4466,2.15546 -0.28975,0.31102 -0.76382,1.00767 -1.05348,1.54812 -0.28967,0.54045 -0.80251,1.30488 -1.13965,1.69875 -0.6206,0.725 -1.27445,1.75106 -1.27445,1.99993 0,0.51217 0.66315,-0.0919 1.52086,-1.38548 z m 55.36455,0.95981 c 0,-0.28146 1.70028,-2.94043 2.57239,-4.02282 0.33144,-0.41134 0.60261,-0.85783 0.60261,-0.99218 0,-0.50968 -0.41971,-0.20512 -1.03319,0.74971 -0.34997,0.54471 -1.15365,1.76587 -1.78594,2.71369 -1.24227,1.8622 -1.365,2.17919 -0.75274,1.94424 0.21828,-0.0838 0.39687,-0.26045 0.39687,-0.39264 z m 0.1323,-2.2725 c 0.87312,-1.4038 1.66845,-2.757 1.76739,-3.00709 0.0989,-0.25009 0.3073,-0.53346 0.46302,-0.6297 0.34173,-0.21119 0.37577,-0.67291 0.0496,-0.67291 -0.12843,0 -0.74989,0.80367 -1.38102,1.78593 -0.63114,0.98227 -1.65731,2.42213 -2.28039,3.1997 -1.07352,1.33967 -1.22962,1.90419 -0.52124,1.88499 0.17331,-0.005 1.02949,-1.15711 1.90262,-2.56092 z m -7.40834,2.0403 c 0.0899,-0.14552 -0.0221,-0.26459 -0.24897,-0.26459 -0.22687,0 -0.41249,0.11907 -0.41249,0.26459 0,0.14552 0.11204,0.26458 0.24897,0.26458 0.13693,0 0.32255,-0.11906 0.41249,-0.26458 z m -48.18367,-2.71455 c 0.67107,-0.98368 1.22013,-1.865 1.22013,-1.95848 0,-0.0935 0.36049,-0.65788 0.80108,-1.25421 0.44059,-0.59632 1.53179,-2.21531 2.42488,-3.59776 0.89309,-1.38245 2.08042,-3.21676 2.63851,-4.07625 0.55808,-0.85949 1.0147,-1.67308 1.0147,-1.80799 0,-0.39262 -0.59761,-0.0839 -0.90714,0.46863 -0.15592,0.27832 -0.67044,1.03249 -1.14338,1.67595 -0.47295,0.64346 -0.8599,1.33139 -0.8599,1.52875 0,0.19735 -0.11031,0.35882 -0.24512,0.35882 -0.13482,0 -0.55315,0.62957 -0.92961,1.39904 -0.37647,0.76947 -1.21741,2.10892 -1.86876,2.97656 -0.65136,0.86764 -1.18553,1.70784 -1.18706,1.86711 -0.002,0.15926 -0.31133,0.63551 -0.68843,1.05833 -0.37711,0.42281 -0.85156,1.14757 -1.05433,1.61056 -0.20277,0.46299 -0.48954,0.9165 -0.63726,1.0078 -0.33018,0.20406 -0.35927,0.74205 -0.0335,0.61984 0.1293,-0.0485 0.78414,-0.89302 1.45521,-1.8767 z m 53.99697,0.61275 c 0.36456,-0.71943 0.82192,-1.40403 1.01635,-1.52135 0.38817,-0.23423 2.68016,-4.28545 2.51688,-4.44873 -0.32068,-0.32067 -1.54132,1.43225 -1.54132,2.21343 0,0.28059 -0.1625,0.57252 -0.36111,0.64874 -0.66396,0.25478 -2.33488,2.53915 -2.54779,3.48317 -0.30101,1.33464 0.14249,1.15315 0.91699,-0.37526 z m -53.94073,-2.73318 c 0.74231,-1.05154 1.50414,-2.20955 1.69296,-2.57336 0.18881,-0.3638 0.62326,-0.99801 0.96545,-1.40936 0.34218,-0.41135 0.61786,-1.00666 0.61263,-1.32292 -0.009,-0.5333 -0.0568,-0.51744 -0.66222,0.21874 -0.35899,0.43656 -1.39651,1.95278 -2.30559,3.36937 -0.90909,1.41659 -1.80171,2.57745 -1.98361,2.57969 -0.1819,0.002 -0.33073,0.24219 -0.33073,0.53323 0,0.9808 0.65407,0.52698 2.01111,-1.39539 z m 53.99494,0.40321 c 0.53137,-0.83675 1.04163,-1.58089 1.13389,-1.65365 0.58037,-0.45768 2.38276,-4.23333 2.02088,-4.23333 -0.0463,0 -1.80016,2.37543 -3.4681,4.69709 -1.12456,1.56532 -1.51369,2.71124 -0.92068,2.71124 0.14732,0 0.70263,-0.68461 1.23401,-1.52135 z m 4.84812,1.10886 c 0,-0.22687 -0.11907,-0.3389 -0.26459,-0.24897 -0.14552,0.0899 -0.26458,0.27556 -0.26458,0.41249 0,0.13694 0.11906,0.24897 0.26458,0.24897 0.14552,0 0.26459,-0.18562 0.26459,-0.41249 z m -59.16244,-3.42397 c 0.51456,-0.7276 1.29768,-1.93404 1.74026,-2.68097 0.44259,-0.74694 0.98254,-1.50566 1.1999,-1.68605 0.40557,-0.33659 0.55233,-1.32192 0.19676,-1.32101 -0.10914,2.9e-4 -0.60403,0.5956 -1.09975,1.32292 -0.84882,1.2454 -1.34765,1.64182 -1.34765,1.07097 0,-0.13829 0.15223,-0.34665 0.33828,-0.46302 0.18606,-0.11637 0.56387,-0.72323 0.83957,-1.34856 0.27571,-0.62534 0.67765,-1.23567 0.89322,-1.35631 0.25503,-0.14272 0.32485,-0.39251 0.19988,-0.71511 -0.17384,-0.44878 -0.2655,-0.41386 -0.96691,0.3683 -0.88738,0.98952 -1.02588,0.60919 -0.24472,-0.67203 0.56643,-0.92903 0.66806,-1.52957 0.29759,-1.75854 -0.12683,-0.0784 -0.60791,0.56539 -1.06906,1.43061 -0.46116,0.86522 -0.96063,1.64862 -1.10993,1.74089 -0.60749,0.37545 -0.47385,-0.16749 0.41415,-1.68263 0.87101,-1.48615 1.17038,-2.43592 0.76783,-2.43592 -0.27511,0 -0.86056,0.83772 -1.55451,2.22433 -0.63877,1.27634 -0.64226,1.31937 -0.20648,2.54634 0.46836,1.31868 0.38972,2.03991 -0.61739,5.66225 -0.62759,2.25728 -0.4136,2.21759 1.32896,-0.24646 z m 53.73848,0.48595 c 0.58208,-0.82258 1.38575,-1.87946 1.78594,-2.34862 0.40018,-0.46916 0.7276,-0.94699 0.7276,-1.06184 0,-0.11485 0.19771,-0.42729 0.43935,-0.6943 0.24164,-0.26701 0.36146,-0.56336 0.26626,-0.65856 -0.16493,-0.16493 -1.23222,0.8781 -1.23712,1.209 -0.004,0.26074 -2.89511,3.35199 -2.90185,3.10258 -0.0127,-0.46887 3.5256,-4.8914 4.016,-5.01965 0.27957,-0.0731 0.48686,-0.29098 0.46065,-0.48416 -0.0977,-0.72003 0.0252,-1.24968 0.37013,-1.59456 0.57761,-0.57761 1.022,-1.5348 0.71255,-1.5348 -0.15064,0 -0.27389,0.0966 -0.27389,0.2147 0,0.11808 -0.22546,0.4567 -0.50104,0.75249 -0.27556,0.29579 -0.69058,0.90434 -0.92224,1.35233 -0.23167,0.448 -0.86941,1.33999 -1.41719,1.98222 -1.09649,1.28552 -2.64751,3.41428 -3.20794,4.40286 -0.31682,0.55887 -0.30998,0.61566 0.0572,0.47476 0.34044,-0.13064 0.38832,-0.0164 0.26065,0.62197 -0.23401,1.17007 0.18601,0.94962 1.36496,-0.71642 z m -4.89479,0.0525 c 0,-0.335 -0.74707,-0.93535 -1.16392,-0.93535 -0.0772,0 -0.27265,0.24713 -0.4343,0.54919 -0.26935,0.50328 -0.24768,0.52445 0.2592,0.25317 0.44285,-0.237 0.58435,-0.21462 0.70979,0.11227 0.19885,0.51819 0.62923,0.53236 0.62923,0.0207 z m 3.17933,-1.60383 c 0.31717,-0.51318 0.71951,-1.07873 0.8941,-1.25677 0.17459,-0.17804 0.7851,-1.03809 1.35669,-1.91121 0.5716,-0.87313 1.18185,-1.70656 1.35613,-1.85208 0.49037,-0.40947 1.97891,-3.07328 1.88117,-3.36647 -0.0479,-0.14361 -0.46528,0.31697 -0.92758,1.02351 -1.41248,2.15873 -2.81963,4.13928 -4.25433,5.98794 -0.75286,0.97009 -1.36885,1.88628 -1.36885,2.03597 0,0.55667 0.50383,0.24334 1.06267,-0.66089 z m -38.6335,-0.43395 c 0,-0.3153 -0.0828,-0.49045 -0.18405,-0.38922 -0.28596,0.28596 -0.32611,0.96248 -0.0571,0.96248 0.13264,0 0.24117,-0.25797 0.24117,-0.57326 z m 38.52461,-1.09599 c 1.64012,-1.9891 4.95039,-7.06686 4.74251,-7.27474 -0.17379,-0.17379 -2.2567,1.79623 -2.2567,2.13439 0,0.12472 -0.38696,0.7496 -0.8599,1.38863 -0.47294,0.63903 -1.26318,1.87557 -1.75608,2.74787 -0.4929,0.8723 -1.05845,1.64827 -1.25677,1.72437 -0.47505,0.1823 -0.46093,-0.23605 0.0243,-0.72131 0.21171,-0.21171 0.81757,-1.14295 1.34635,-2.06942 1.0757,-1.88469 2.42493,-3.95589 3.30342,-5.07105 0.32094,-0.40739 0.50806,-0.81617 0.41584,-0.9084 -0.22266,-0.22266 -0.27915,-0.15171 -2.68251,3.36891 -1.14241,1.67349 -2.15923,3.10224 -2.25961,3.175 -0.10037,0.0728 -0.42518,0.56595 -0.7218,1.09597 -0.50729,0.90648 -0.51304,0.99657 -0.0968,1.51785 0.24336,0.30479 0.50202,0.54873 0.57478,0.54207 0.0728,-0.007 0.74008,-0.74922 1.48294,-1.65014 z m -43.11128,-0.85421 c 0.46051,-0.79491 0.7508,-1.44529 0.64507,-1.44529 -0.26979,0 -1.31002,1.44771 -1.6132,2.24514 -0.43575,1.14611 0.0947,0.7079 0.96813,-0.79985 z m 33.7443,-0.92263 c 0.68425,-1.16059 1.13634,-2.11016 1.00464,-2.11016 -0.65125,0 -1.63979,0.70677 -2.11496,1.51213 -0.51166,0.86719 -0.73937,2.72804 -0.33221,2.7147 0.10914,-0.004 0.75828,-0.95607 1.44253,-2.11667 z m -10.6368,1.60463 c 0,-0.13968 -0.47625,-0.39665 -1.05833,-0.57105 -0.58208,-0.1744 -1.05833,-0.43188 -1.05833,-0.57218 0,-0.14031 -0.1786,-0.10688 -0.39688,0.0743 -0.75442,0.62612 -0.45036,1.02513 0.8599,1.12844 0.69122,0.0545 1.34607,0.12056 1.45521,0.14679 0.10914,0.0262 0.19843,-0.0666 0.19843,-0.20627 z m 17.19387,-1.74984 c 1.41155,-2.13152 1.78788,-3.25783 0.78538,-2.35058 -1.49299,1.35113 -3.04406,4.35438 -2.2489,4.35438 0.0751,0 0.73368,-0.90171 1.46352,-2.0038 z m 1.18154,0.0249 c 0.65786,-1.00162 1.13903,-1.87821 1.06927,-1.94797 -0.16397,-0.16397 -1.18843,0.75967 -1.18843,1.07148 0,0.13069 -0.29765,0.67565 -0.66145,1.21103 -0.36381,0.53539 -0.66146,1.14423 -0.66146,1.35298 0,0.49489 0.0374,0.4511 1.44207,-1.68752 z m -6.37606,0.58051 c 2.05962,-3.3744 2.78873,-4.72524 2.80461,-5.19619 0.0236,-0.7008 -1.27003,0.79893 -2.12916,2.46833 -0.45647,0.88698 -1.11379,1.9917 -1.46071,2.45493 -0.34691,0.46323 -0.63075,0.97344 -0.63075,1.13379 0,0.44283 0.98625,-0.15676 1.41601,-0.86086 z m -33.39524,-0.15417 c 0.48988,-0.56286 1.486,-1.77107 2.2136,-2.68491 0.72761,-0.91385 1.65034,-2.02768 2.05052,-2.47518 0.69269,-0.77459 0.95602,-1.50783 0.52917,-1.47349 -0.10914,0.009 -0.73422,0.73099 -1.38906,1.60492 -0.65485,0.87393 -1.43979,1.84901 -1.74432,2.16685 -0.30453,0.31784 -0.8371,0.99461 -1.18349,1.50393 -0.34639,0.50933 -0.9009,1.14305 -1.23225,1.40827 -0.33134,0.26522 -0.60244,0.59265 -0.60244,0.7276 0,0.49932 0.4917,0.21768 1.35827,-0.77799 z m 18.92209,-1.62246 c 0.92587,-1.38245 1.86123,-2.70212 2.0786,-2.93261 0.21736,-0.23049 0.3952,-0.61042 0.3952,-0.84428 0,-0.89783 -0.50761,-0.6708 -1.19773,0.53569 -1.05512,1.84459 -3.02213,4.75272 -3.46104,5.11699 -0.88294,0.73277 -0.52958,-0.0956 1.08623,-2.54633 0.94625,-1.43522 1.72046,-2.69034 1.72046,-2.78916 0,-0.0988 0.17859,-0.32789 0.39687,-0.50905 0.40617,-0.33709 0.556,-1.32962 0.19844,-1.31455 -0.10914,0.005 -0.55562,0.56314 -0.99218,1.2412 -0.43657,0.67806 -0.91433,1.41844 -1.06171,1.64528 -0.14737,0.22685 -0.59197,0.95546 -0.98799,1.61915 -0.75456,1.26457 -2.05135,2.64887 -2.05135,2.18978 0,-0.1472 0.47625,-0.93271 1.05834,-1.74558 0.58208,-0.81287 1.05833,-1.54537 1.05833,-1.62778 0,-0.0824 0.47609,-0.8357 1.05799,-1.67398 0.58189,-0.83828 1.05814,-1.68289 1.05833,-1.87692 7.9e-4,-0.76578 -0.71254,-0.053 -1.73587,1.73459 -0.59111,1.03259 -1.3713,2.2752 -1.73374,2.76135 -0.94504,1.26762 -1.86512,2.91308 -1.7136,3.0646 0.0713,0.0713 0.52261,0.22519 1.00294,0.342 1.79362,0.4362 2.02897,0.28906 3.82348,-2.39039 z m -8.58354,-1.15704 c 1.35611,-2.2405 2.37948,-4.16944 2.27007,-4.27884 -0.26686,-0.26686 -1.30249,1.09135 -2.43984,3.19985 -0.38865,0.72049 -1.11716,1.90394 -1.61892,2.62988 -0.50177,0.72594 -0.9123,1.49721 -0.9123,1.71393 0,0.53487 1.49469,-1.27184 2.70099,-3.26482 z m 14.21381,2.54727 c 0.43037,-0.94456 2.95089,-4.30065 3.22991,-4.30065 0.41835,0 0.23553,0.43009 -0.45839,1.07836 -0.37763,0.35279 -0.87049,0.99862 -1.09525,1.43519 -0.22476,0.43656 -0.54087,0.88122 -0.70247,0.98813 -0.19342,0.12797 -0.16051,0.19577 0.0964,0.19844 0.39261,0.004 2.12338,-1.75709 2.12338,-2.16068 0,-0.11909 0.29766,-0.21652 0.66146,-0.21652 0.76761,0 0.86615,0.38365 0.19844,0.77256 -0.41351,0.24084 -0.39936,0.27054 0.13229,0.27773 0.51466,0.007 0.59531,-0.12861 0.59531,-1.00053 0,-0.81078 -0.15357,-1.12212 -0.78303,-1.5875 -0.99432,-0.73513 -1.09749,-0.72752 -1.73386,0.12788 -0.2892,0.38875 -0.9723,1.24977 -1.518,1.91338 -0.54571,0.66362 -0.99219,1.33683 -0.99219,1.49603 0,0.1592 -0.29399,0.56565 -0.6533,0.90321 -0.35932,0.33756 -0.59733,0.70432 -0.52891,0.81503 0.24091,0.3898 1.12131,-0.0664 1.42826,-0.74006 z m 10.06009,0.66029 c 0.83266,-1.00933 2.32309,-3.09727 2.72621,-3.81914 0.3511,-0.62873 0.38342,-0.85953 0.13229,-0.94456 -0.1896,-0.0642 -0.88329,0.75003 -1.61502,1.89564 -0.70547,1.10449 -1.5299,2.27606 -1.83206,2.60348 -0.46453,0.50336 -0.48257,0.59531 -0.11682,0.59531 0.23791,0 0.55534,-0.14883 0.7054,-0.33073 z m 1.86646,0 c 0.001,-0.1819 0.59196,-1.10463 1.31329,-2.05052 1.15276,-1.51161 1.59485,-2.38125 1.21051,-2.38125 -0.26038,0 -1.45483,1.35488 -1.91106,2.16773 -0.26522,0.47252 -0.69057,1.09351 -0.94524,1.37997 -0.56783,0.63873 -0.5992,1.2148 -0.0661,1.2148 0.21828,0 0.39767,-0.14883 0.39864,-0.33073 z m -12.60042,-1.98437 c 0.80334,-1.12779 1.70364,-2.36598 2.00065,-2.75153 0.66884,-0.86821 0.94287,-1.54795 0.62405,-1.54795 -0.29518,0 -1.88231,1.61349 -2.29402,2.33212 -0.58742,1.02533 -2.34056,3.49237 -2.59234,3.64798 -0.5369,0.33182 -0.44364,-0.0938 0.24092,-1.0995 0.39089,-0.57428 1.28032,-1.83261 1.97651,-2.7963 1.36092,-1.88382 1.61917,-2.57405 0.76303,-2.03939 -0.27652,0.17269 -0.44788,0.45702 -0.38079,0.63185 0.0671,0.17482 -0.18401,0.55855 -0.558,0.85273 -0.37398,0.29418 -1.11652,1.17171 -1.65008,1.95008 -0.53356,0.77837 -1.15754,1.56405 -1.38663,1.74595 -0.37459,0.29743 -0.36482,0.37068 0.0971,0.7276 1.04811,0.80993 1.61679,0.5123 3.15963,-1.65364 z m -29.48857,0.31705 c 0.81991,-1.21487 1.60597,-2.62222 1.60597,-2.8753 0,-0.0754 -0.17483,-0.07 -0.38851,0.012 -0.21368,0.082 -0.36868,0.22709 -0.34445,0.32242 0.0826,0.32513 -0.36037,1.36397 -0.58165,1.36397 -0.24515,0 -1.33122,1.73922 -1.33122,2.13179 0,0.46058 0.22249,0.25629 1.03986,-0.95484 z m 13.90657,-0.29515 c 0.28964,-0.55775 0.59684,-1.07362 0.68266,-1.14638 0.32995,-0.27975 2.31785,-4.23334 2.12856,-4.23334 -0.24993,0 -0.96775,0.82467 -2.13031,2.4474 -0.49521,0.69122 -0.94278,1.25677 -0.99461,1.25677 -0.16649,0 0.76896,-1.68115 1.14429,-2.05648 0.19941,-0.19941 0.36256,-0.55493 0.36256,-0.79004 0,-0.32103 -0.19469,-0.24095 -0.78186,0.32159 -1.18124,1.1317 -1.92936,3.73843 -1.43937,5.01531 0.2108,0.54933 0.3958,0.4027 1.02808,-0.81483 z m 5.95565,0.38355 c 0,-0.14605 0.53094,-1.02505 1.17986,-1.95334 1.22162,-1.74755 2.14298,-3.35771 1.38526,-2.42086 -0.20597,0.25466 -0.5617,0.46302 -0.79052,0.46302 -0.22881,0 -0.48249,0.20942 -0.56373,0.46539 -0.0812,0.25597 -0.56551,1.0998 -1.07616,1.87518 -0.9909,1.5046 -1.18754,2.24016 -0.53158,1.98844 0.21828,-0.0838 0.39687,-0.27179 0.39687,-0.41783 z m -1.5875,0.0622 c 0,-0.14297 0.64937,-1.21906 1.44305,-2.39131 0.81435,-1.20279 1.37837,-2.29988 1.29461,-2.51817 -0.24289,-0.63296 -0.56828,-0.44674 -1.05781,0.60538 -0.25391,0.5457 -0.53525,1.05172 -0.6252,1.12448 -0.21916,0.17727 -1.8484,3.06251 -1.8484,3.27335 0,0.0914 0.1786,0.16623 0.39688,0.16623 0.21828,0 0.39687,-0.11698 0.39687,-0.25996 z m 8.29922,-0.7927 c 0.38314,-0.57896 0.69662,-1.30247 0.69662,-1.6078 0,-0.50775 -0.0518,-0.49129 -0.60666,0.19276 -0.68836,0.84865 -1.51001,2.11435 -1.51001,2.3261 0,0.0779 0.16277,0.1416 0.36171,0.1416 0.19895,0 0.6752,-0.4737 1.05834,-1.05266 z m -20.47005,-0.47292 c 0.50932,-0.68219 0.96353,-1.32579 1.00935,-1.43022 0.0458,-0.10443 0.55183,-0.70243 1.12448,-1.3289 1.09656,-1.19962 1.25381,-1.53874 0.71044,-1.53208 -0.56519,0.007 -0.84385,0.32063 -2.46321,2.77298 -1.78521,2.70353 -1.82906,2.78301 -1.52759,2.7689 0.12127,-0.006 0.63721,-0.56848 1.14653,-1.25068 z m 10.74372,0.79392 c 0.37843,-0.25134 2.62493,-3.98156 2.86575,-4.75844 0.48199,-1.555 -1.04733,0.0736 -2.83263,3.01644 -0.54299,0.89506 -0.98726,1.69873 -0.98726,1.78594 0,0.21927 0.5994,0.19167 0.95414,-0.0439 z m 37.14586,-1.578 c 0,-0.32642 -0.0738,-0.33973 -0.39687,-0.0716 -0.21828,0.18116 -0.39688,0.43012 -0.39688,0.55326 0,0.12314 0.1786,0.15535 0.39688,0.0716 0.21828,-0.0838 0.39687,-0.33273 0.39687,-0.55326 z m -13.91717,-1.07214 c 0.42196,-0.68662 1.0074,-1.66513 1.30097,-2.17445 l 0.53376,-0.92604 -0.5414,0.54995 c -0.29778,0.30247 -0.85494,1.04661 -1.23815,1.65364 -0.3832,0.60704 -0.8143,1.1037 -0.95799,1.1037 -0.1437,0 -0.26127,0.23813 -0.26127,0.52917 0,0.82747 0.33244,0.61729 1.16408,-0.73597 z m 8.29087,-0.54144 c 0.51212,-0.5322 0.92598,-1.39444 0.75255,-1.56787 -0.29842,-0.29842 -1.37968,0.50883 -1.79684,1.3415 -0.8938,1.78402 -0.80572,2.537 0.15164,1.29637 0.305,-0.39525 0.70669,-0.87675 0.89265,-1.07 z m -53.76412,-0.51522 c 0.77168,-1.42093 0.82977,-1.64696 0.42326,-1.64696 -0.3162,0 -0.704,0.50433 -1.17908,1.5334 -0.77791,1.68499 -0.84917,1.99737 -0.42326,1.8554 0.15656,-0.0522 0.68715,-0.83602 1.17908,-1.74184 z m 44.95992,0.27398 c 0.3697,-0.3987 0.67217,-0.85889 0.67217,-1.02266 0,-0.16376 0.23812,-0.60047 0.52917,-0.97047 0.59273,-0.75354 0.65426,-0.98614 0.26085,-0.98614 -0.43109,0 -1.83211,1.67475 -1.8406,2.20021 -0.004,0.26422 -0.131,0.71071 -0.28164,0.99218 -0.38501,0.71939 -0.12753,0.63625 0.66005,-0.21312 z m 5.80324,0.0418 c 0.0883,-0.23018 0.16104,-0.7362 0.16159,-1.12448 5.3e-4,-0.38828 0.23429,-1.0886 0.51943,-1.55626 0.67749,-1.11112 0.28965,-1.30876 -0.93603,-0.47699 -0.53963,0.3662 -1.0836,0.66583 -1.20882,0.66583 -0.12521,0 -0.22766,0.17859 -0.22766,0.39687 0,0.21828 -0.10517,0.39688 -0.23372,0.39688 -0.12855,0 -0.30722,0.20836 -0.39705,0.46302 -0.0898,0.25466 -0.23269,0.61185 -0.31749,0.79375 -0.10378,0.22263 0.0908,0.33205 0.59549,0.33478 0.4123,0.002 0.92824,0.11947 1.14652,0.26053 0.55121,0.35622 0.7126,0.32854 0.89774,-0.15393 z m -35.02899,-2.52021 c 0,-0.30232 -0.71748,-0.30915 -0.90323,-0.009 -0.0774,0.12523 -0.0728,0.29562 0.0103,0.37865 0.20648,0.20647 0.89298,-0.078 0.89298,-0.37005 z m 46.56667,68.02623 c 0,-0.14552 0.11906,-0.26459 0.26458,-0.26459 0.14552,0 0.26459,0.11907 0.26459,0.26459 0,0.14552 -0.11907,0.26458 -0.26459,0.26458 -0.14552,0 -0.26458,-0.11906 -0.26458,-0.26458 z m -64.43318,-1.06989 c -0.23948,-0.38748 0.10871,-0.77738 0.54478,-0.61004 0.21362,0.082 0.3884,0.24263 0.3884,0.35701 0,0.32786 -0.75964,0.53383 -0.93318,0.25303 z m 65.08748,-17.72712 c -0.0939,-0.1519 -0.0424,-0.43074 0.11438,-0.61966 0.15678,-0.18891 0.21569,-0.41285 0.13091,-0.49764 -0.21903,-0.21902 0.14497,-1.25236 0.44116,-1.25236 0.13571,0 0.24675,0.59531 0.24675,1.32292 0,0.97545 -0.10014,1.32291 -0.38126,1.32291 -0.20969,0 -0.45807,-0.12428 -0.55194,-0.27617 z m -51.98347,-33.95906 c 0,-0.0572 0.18478,-0.17489 0.41062,-0.26156 0.23546,-0.0904 0.34166,-0.046 0.24897,0.10399 -0.15538,0.25141 -0.65959,0.37186 -0.65959,0.15757 z m 49.42748,-7.48509 c 0.19099,-0.0764 0.4192,-0.067 0.50712,0.0209 0.0879,0.0879 -0.0684,0.15045 -0.34727,0.13896 -0.30823,-0.0127 -0.37092,-0.0754 -0.15985,-0.15985 z m 4.86369,-8.15364 c 0.005,-0.43656 0.0647,-0.58312 0.13177,-0.32569 0.0671,0.25743 0.0627,0.61462 -0.01,0.79375 -0.0725,0.17913 -0.12735,-0.0315 -0.12195,-0.46806 z"
       id="path19785" />
  </g>
</svg>
