<?xml version="1.0" encoding="UTF-8" standalone="no"?>
<!-- Created with Inkscape (http://www.inkscape.org/) -->

<svg
   width="115.81174mm"
   height="117.20966mm"
   viewBox="0 0 115.81174 117.20967"
   version="1.1"
   id="svg5"
   inkscape:version="1.1 (c4e8f9ed74, 2021-05-24)"
   sodipodi:docname="ornatea3.svg"
   xmlns:inkscape="http://www.inkscape.org/namespaces/inkscape"
   xmlns:sodipodi="http://sodipodi.sourceforge.net/DTD/sodipodi-0.dtd"
   xmlns="http://www.w3.org/2000/svg"
   xmlns:svg="http://www.w3.org/2000/svg">
  <sodipodi:namedview
     id="namedview7"
     pagecolor="#ffffff"
     bordercolor="#666666"
     borderopacity="1.0"
     inkscape:pageshadow="2"
     inkscape:pageopacity="0.0"
     inkscape:pagecheckerboard="0"
     inkscape:document-units="mm"
     showgrid="false"
     inkscape:zoom="0.66903058"
     inkscape:cx="-577.70154"
     inkscape:cy="283.24565"
     inkscape:window-width="2506"
     inkscape:window-height="1403"
     inkscape:window-x="1974"
     inkscape:window-y="0"
     inkscape:window-maximized="1"
     inkscape:current-layer="layer1" />
  <defs
     id="defs2" />
  <g
     inkscape:label="Layer 1"
     inkscape:groupmode="layer"
     id="layer1"
     transform="translate(-288.60517,-136.65111)">
    <path
       style="fill:#000000;stroke-width:0.584845"
       d="m 296.21133,253.33617 c 0,-0.40882 -0.82416,-0.49939 -2.33939,-0.2571 -2.09667,0.33526 -2.33938,0.24841 -2.33938,-0.8372 0,-0.66621 0.49078,-1.55518 1.09063,-1.9755 1.27317,-0.89211 0.81915,-2.87662 -0.9071,-3.96487 -0.75159,-0.4738 -0.8477,-0.75829 -0.32975,-0.97595 1.09746,-0.46119 0.91187,-6.22418 -0.28099,-8.72565 -0.95951,-2.01212 -0.95951,-2.16073 0,-2.86235 0.55663,-0.40701 1.01205,-1.08709 1.01205,-1.5113 0,-0.4242 0.30751,-1.62164 0.68333,-2.66102 0.55613,-1.53791 0.51488,-2.2376 -0.22159,-3.75823 -0.89326,-1.84442 -0.8075,-3.80232 0.19363,-4.42108 0.67304,-0.41594 0.66227,-2.78397 -0.0155,-3.49469 -1.09713,-1.14981 -1.7312,-9.0593 -1.44981,-18.08515 0.16026,-5.13795 0.41243,-9.46287 0.5605,-9.61097 0.1481,-0.1481 0.55872,0.0199 0.9125,0.37398 0.54058,0.54056 0.50265,6.12608 -0.0944,13.89992 -0.11538,1.50204 1.16904,10.78118 1.78095,12.86663 1.17583,4.00717 2.40045,6.14087 3.52455,6.14087 1.01908,0 1.01634,-0.15871 -0.0681,-3.94772 -1.60334,-5.6025 -1.92651,-8.27278 -1.96415,-16.22946 -0.0413,-8.75657 0.7044,-11.48167 4.01338,-14.66404 2.59778,-2.49838 6.87446,-4.17429 8.96166,-3.51184 0.67255,0.21353 1.43144,0.0234 1.83153,-0.45865 0.54943,-0.66203 0.40509,-0.89291 -0.73758,-1.17969 -1.93915,-0.48669 -4.95152,0.14434 -7.2372,1.51599 -1.73432,1.04078 -1.90076,1.05341 -1.90076,0.14412 0,-1.67103 -1.47826,0.009 -2.8847,3.27831 -2.62894,6.11114 -2.26249,1.03486 0.42494,-5.88621 0.99737,-2.56862 3.69367,-4.8021 5.48055,-4.53985 0.87792,0.12887 1.46298,0.0177 1.30016,-0.24474 -0.59167,-0.95734 -4.13256,-0.48687 -5.19821,0.69067 -1.07019,1.18255 -2.05584,1.53639 -2.03635,0.73106 0.0294,-1.21581 7.2493,-7.89441 9.64374,-8.92079 3.50359,-1.50181 9.7287,-1.60025 11.49752,-0.18192 0.42892,0.34397 1.36044,0.80326 2.07006,1.02063 0.70962,0.21729 1.95973,1.19094 2.77801,2.16343 1.84462,2.19218 1.94773,1.37217 0.16424,-1.30556 -2.16378,-3.24864 -5.09655,-4.34922 -11.17789,-4.19479 -3.96069,0.10057 -5.65862,0.40778 -7.16435,1.29618 -1.0854,0.64038 -1.97344,1.02325 -1.97344,0.85082 0,-0.17242 0.81585,-1.49935 1.81302,-2.94867 3.16167,-4.59533 7.66745,-6.28594 9.55831,-3.58637 0.66379,0.94768 0.91043,1.05146 0.91043,0.38307 0,-2.91133 -4.69977,-3.7436 -7.55811,-1.33849 -0.98969,0.83276 -1.79941,1.2768 -1.79941,0.98674 0,-0.89649 6.98141,-7.71541 8.93197,-8.7241 2.67335,-1.38243 9.07455,-1.39223 11.17451,-0.0177 2.17998,1.42755 1.64234,1.79203 -1.0092,0.68416 -1.17522,-0.49105 -2.13677,-0.64382 -2.13677,-0.33953 0,0.30432 0.54242,0.72545 1.20536,0.93586 0.66293,0.21043 1.49472,1.01769 1.84841,1.79395 0.71917,1.57843 1.62501,1.87616 1.62501,0.53411 0,-1.41285 1.14883,-1.00832 1.76902,0.62292 0.78948,2.07651 0.78307,2.10384 -1.17353,4.99131 -1.93944,2.86222 -2.11314,3.45088 -1.01815,3.45088 1.14061,0 3.79542,-3.31153 4.22581,-5.27115 0.21044,-0.95863 0.0727,-2.68262 -0.30634,-3.83112 -0.79492,-2.40865 -0.81636,-2.3644 1.4166,-2.92483 1.20894,-0.30341 1.57569,-0.23327 1.28018,0.24489 -0.26905,0.43537 0.0981,0.67014 1.04795,0.67014 0.80416,0 1.62478,0.26318 1.82357,0.58484 0.7407,1.19846 1.35462,0.48884 2.65644,-3.07044 0.7353,-2.01039 1.82547,-4.64221 2.42258,-5.84845 l 1.08563,-2.19318 -2.20504,0.002 c -2.16438,0.002 -2.20554,0.0436 -2.23071,2.25804 -0.0531,4.6694 -3.27274,6.93824 -7.20043,5.07411 l -2.13146,-1.01163 1.41784,1.51755 c 1.78752,1.91325 0.95352,1.95094 -1.79795,0.0813 -3.16785,-2.1526 -7.06119,-2.97879 -9.95362,-2.11221 -1.29487,0.38795 -2.47857,0.58117 -2.63038,0.42933 -0.51678,-0.51678 10.42975,-5.5914 13.58389,-6.29728 3.94805,-0.88351 3.53815,-1.93433 -0.53665,-1.37573 -3.45622,0.47378 -8.52196,2.57271 -11.27236,4.67053 -1.04046,0.79361 -2.17251,1.44293 -2.51564,1.44293 -0.74996,0 -0.79956,-1.15648 -0.097,-2.26537 0.75513,-1.19214 -0.40913,-4.80497 -2.1398,-6.64001 -2.79057,-2.95888 -8.11415,-3.69969 -14.55746,-2.02574 -2.15314,0.5594 -4.5001,0.78888 -5.84847,0.57191 -2.05193,-0.3302 -2.18078,-0.2758 -1.44945,0.61205 0.44147,0.53596 1.42841,0.97447 2.19318,0.97447 1.60604,0 1.78893,0.6958 0.47049,1.79001 -0.50602,0.41994 -1.48579,1.83387 -2.17731,3.14204 -1.78849,3.38345 -1.8365,11.20437 -0.0831,13.55573 1.5899,2.13219 3.65375,3.58781 5.81233,4.09939 1.56241,0.3703 1.66995,0.31313 0.9821,-0.52201 -0.66662,-0.80938 -0.53658,-1.05984 0.94914,-1.82815 1.73701,-0.89823 2.79477,-2.99754 1.81535,-3.60284 -0.29147,-0.18015 -0.52993,-1.07337 -0.52993,-1.98498 0,-0.97558 -0.38263,-1.80427 -0.93004,-2.01433 -1.63211,-0.62628 -2.13951,0.29408 -0.89344,1.6205 1.02469,1.09072 1.08946,1.46559 0.4693,2.7163 -1.56827,3.16283 -6.23681,1.66844 -7.03106,-2.25063 -0.17419,-0.85911 -0.50239,-2.35156 -0.72952,-3.31655 -0.40935,-1.73928 -0.40239,-1.74516 0.80116,-0.67721 1.18789,1.05405 1.2071,1.05054 0.88957,-0.16379 -0.62963,-2.40766 1.49406,-6.3033 5.27712,-9.68021 2.15935,-1.92753 3.67642,-2.91378 3.77684,-2.45534 0.12202,0.55703 1.08003,0.70257 3.50908,0.53312 3.11809,-0.21751 3.4682,-0.10787 5.242,1.64198 1.72116,1.69791 1.90075,2.20365 1.90075,5.35318 0,3.7742 -0.40097,4.83698 -3.14517,8.33626 -0.99341,1.26676 -1.81066,2.58266 -1.81612,2.92422 -0.004,0.34155 -0.27308,0.69231 -0.59474,0.77944 -0.84859,0.22989 -1.04492,-3.50476 -0.32485,-6.17893 0.34013,-1.26314 1.53673,-3.45183 2.65912,-4.86377 2.28697,-2.87698 2.86005,-4.9418 0.87229,-3.14292 -1.14886,1.03971 -1.22249,1.02675 -2.81001,-0.49419 -0.89664,-0.85904 -2.09983,-1.56187 -2.67372,-1.56187 -0.89941,0 -0.83445,0.24841 0.47064,1.79941 1.73111,2.0573 1.86166,3.25478 0.66667,6.11479 -1.15528,2.76497 -2.0768,2.54903 -2.0768,-0.48668 0,-3.00454 -0.76636,-3.91845 -3.28579,-3.91845 -2.65808,0 -3.73236,0.53294 -3.73236,1.85162 0,0.6531 0.2645,0.97817 0.61809,0.75964 1.2687,-0.78411 3.52203,0.40788 5.00375,2.6469 1.36013,2.05529 1.50474,2.76177 1.30153,6.35822 -0.17595,3.11498 -0.66245,4.88718 -2.11389,7.70147 -1.03689,2.01048 -1.88526,4.50738 -1.88526,5.54865 0,1.0573 -0.43088,2.24757 -0.97589,2.69585 -0.88524,0.7281 -0.94094,0.62609 -0.59947,-1.09808 0.53937,-2.72348 -0.1092,-5.61116 -1.07936,-4.80596 -0.5218,0.43307 -0.86561,0.43592 -1.12923,0.009 -0.48344,-0.78225 -3.81904,-0.80706 -3.81904,-0.0285 0,0.32167 0.34889,0.58484 0.77531,0.58484 1.35577,0 3.31927,2.62893 3.30423,4.42405 -0.009,0.94425 -0.53669,3.27835 -1.17509,5.18686 -1.13995,3.40793 -1.08882,5.5951 0.13086,5.5951 0.38349,0 0.34147,0.33205 -0.11096,0.87725 -1.05237,1.26802 -1.75454,1.0787 -1.75454,-0.47305 0,-0.74269 -0.38356,-1.86119 -0.85235,-2.4856 -0.77049,-1.02624 -0.81795,-0.83281 -0.49403,2.0142 0.29036,2.55204 0.20247,3.09804 -0.46355,2.87841 -0.45204,-0.14898 -0.90606,-0.84315 -1.00894,-1.5424 -0.10278,-0.69927 -0.69505,-1.54324 -1.3159,-1.87551 -0.62086,-0.33228 -1.12885,-1.11199 -1.12885,-1.73268 0,-1.52176 1.99851,-2.56299 3.43932,-1.79187 0.9445,0.50548 1.15111,0.33276 1.46212,-1.22222 0.53968,-2.69844 0.48693,-2.83439 -1.09994,-2.83439 -1.2445,0 -1.46212,-0.26927 -1.46212,-1.80929 0,-1.31742 0.31797,-1.89244 1.1697,-2.11517 1.69501,-0.44326 1.43917,-1.22845 -0.29242,-0.89744 -1.24857,0.23869 -1.46212,0.063 -1.46212,-1.20296 0,-2.2493 0.6029,-3.36847 2.12671,-3.94783 1.77952,-0.67657 1.74665,-1.351 -0.12555,-2.57775 -0.91868,-0.60195 -1.37841,-1.32576 -1.1764,-1.8522 0.18236,-0.47524 0.11848,-0.73231 -0.14213,-0.57126 -0.9693,0.59905 -2.43869,-2.08787 -2.79371,-5.10851 -0.38559,-3.28071 0.83924,-8.85839 2.45038,-11.15859 0.74267,-1.06033 0.65399,-1.32485 -0.92873,-2.77046 -2.9183,-2.66546 -1.96659,-6.59253 1.17615,-4.8532 1.77158,0.98046 4.8494,1.06941 7.60513,0.21972 4.69399,-1.44722 12.45792,-0.855 13.62287,1.03917 0.58632,0.95332 2.87041,0.9899 3.79948,0.0608 0.7313,-0.73131 5.62104,-1.17883 12.87193,-1.1781 3.1007,3.3e-4 4.55694,0.25787 5.30966,0.93908 1.33053,1.20412 5.73837,1.22949 8.10936,0.0466 1.38104,-0.68895 3.69749,-0.87259 10.17844,-0.80688 4.61478,0.0469 9.31164,0.0533 10.43746,0.0133 6.85571,-0.23727 8.41641,-0.10102 8.90837,0.77812 0.279,0.49856 0.89724,0.90648 1.37385,0.90648 0.47662,0 1.01804,0.39478 1.20321,0.87728 0.39991,1.04215 1.94517,1.12816 3.93989,0.21927 1.04861,-0.47779 1.94148,-0.48455 3.26065,-0.0248 2.22755,0.77653 3.18949,0.45102 4.01383,-1.35822 0.46611,-1.023 1.08453,-1.37888 2.33433,-1.34336 0.93513,0.0265 2.00591,-0.14058 2.37952,-0.37148 1.02092,-0.63097 7.03416,0.27208 7.95704,1.19494 0.97874,0.97874 2.18157,1.035 3.07287,0.14368 0.36436,-0.36439 1.07496,-0.50422 1.57907,-0.31079 1.1107,0.42622 1.26806,4.4818 0.21485,5.53508 -0.54584,0.54587 -0.54584,0.85778 0,1.40363 1.01643,1.01643 0.87145,1.82072 -0.61408,3.40702 -0.72374,0.77284 -1.57907,1.92021 -1.90074,2.5497 -0.945,1.84934 -2.16853,1.92487 -1.71194,0.10566 0.59346,-2.36455 0.58984,-2.94672 -0.0199,-3.15158 -0.309,-0.10389 -0.90843,0.8122 -1.33201,2.03575 -0.42361,1.22354 -1.6041,3.085 -2.62333,4.13657 -1.54599,1.59506 -1.67211,1.91197 -0.76099,1.91197 0.60068,0 1.5525,-0.4166 2.11515,-0.9258 0.94034,-0.851 1.07712,-0.82461 1.69322,0.32659 0.50552,0.94457 1.11678,1.20803 2.4871,1.072 0.99927,-0.0993 1.94572,-0.57513 2.10321,-1.05763 0.24129,-0.73919 0.13926,-0.75582 -0.64863,-0.10566 -0.70825,0.58451 -1.2277,0.61499 -2.14207,0.12555 -1.63843,-0.87686 -1.52103,-1.35002 0.56386,-2.2729 2.47605,-1.09601 3.37572,-0.56497 3.37572,1.99255 0,1.84709 -0.24614,2.25355 -1.69605,2.80083 -1.88398,0.7111 -2.13801,1.25869 -0.81879,1.76493 0.48249,0.18523 0.87725,0.73968 0.87725,1.23225 0,0.4926 0.39479,0.89563 0.87728,0.89563 0.9474,0 1.08062,1.34629 0.31833,3.21666 -0.42885,1.05221 -0.52038,0.99346 -0.9115,-0.58484 -0.65157,-2.62948 -3.09572,-4.96739 -5.2185,-4.99169 -0.98523,-0.0111 -3.29347,0.71247 -5.12939,1.60832 -3.33419,1.62693 -4.20104,2.50609 -2.47099,2.50609 0.70239,0 0.80493,0.30765 0.43864,1.31592 -0.83537,2.2995 -0.44788,6.78245 0.69547,8.04583 1.92777,2.13018 6.79998,1.29474 6.67573,-1.14466 -0.0307,-0.60239 -0.14522,-0.66125 -0.34116,-0.17551 -0.40214,0.9966 -3.98569,0.92689 -4.83297,-0.0939 -0.87522,-1.0546 -1.47162,-4.67555 -0.98075,-5.95471 0.34918,-0.90997 0.46233,-0.90517 1.53449,0.065 1.04498,0.94569 1.15749,0.95343 1.15749,0.0796 0,-1.31557 0.99252,-1.22209 1.73396,0.16335 0.94417,1.76419 0.75432,1.97019 -1.48135,1.60739 -2.08679,-0.33862 -2.08679,-0.33862 -1.68621,1.53181 0.47447,2.21564 0.34682,2.02182 1.4336,2.17656 1.76559,0.25137 2.33938,-0.0389 2.33938,-1.18339 0,-0.64332 0.38977,-1.1697 0.86614,-1.1697 0.90624,0 1.19905,0.90394 1.70505,5.26362 0.25983,2.23876 0.20667,2.43168 -0.35575,1.29176 -0.45226,-0.91661 -0.95295,-1.21011 -1.58451,-0.92883 -2.50965,1.11771 -5.01625,0.87319 -6.6256,-0.64629 l -1.60832,-1.51851 v 5.87213 c 0,5.87213 0,5.87213 1.49662,5.87213 2.39981,0 1.12523,0.96687 -1.40531,1.06603 -2.89068,0.11317 -3.4762,-0.60392 -3.74961,-4.59284 l -0.21928,-3.19893 -0.10809,3.75276 c -0.13395,4.64789 -0.94154,4.16812 -1.05909,-0.62922 -0.13483,-5.50361 -1.09607,-5.14724 -1.09607,0.40636 0,6.57447 -1.11757,6.79649 -1.33663,0.26552 -0.1198,-3.57426 0.065,-5.29447 0.65588,-6.10252 0.79165,-1.08265 0.85967,-1.06028 1.79663,0.59092 0.8783,1.54784 0.9359,1.57275 0.58714,0.25407 -0.21265,-0.80416 -0.70984,-2.09174 -1.10483,-2.86129 -0.71813,-1.39916 -0.71813,-1.39916 -1.50327,0.58486 -0.43181,1.09121 -0.95189,4.74741 -1.15569,8.1249 -0.30013,4.97356 -0.36183,4.08417 -0.32458,-4.67877 l 0.046,-10.81965 1.75453,0.17661 c 0.96502,0.097 2.04674,0.5577 2.40386,1.02348 0.35716,0.46579 1.24472,0.84689 1.97238,0.84689 1.07624,0 1.19454,0.15473 0.63419,0.83 -0.37886,0.45652 -0.67436,2.1014 -0.65665,3.65529 0.0177,1.5539 0.0522,4.66554 0.0767,6.91475 0.042,3.85864 0.22953,4.90769 0.77633,4.34206 0.12953,-0.13395 0.32695,-3.84524 0.43864,-8.24714 l 0.20314,-8.00345 -2.04696,-1.0491 c -1.12582,-0.57701 -2.8365,-1.18634 -3.80149,-1.35409 -1.75454,-0.30498 -1.75454,-0.30498 -1.54749,-4.10647 0.11384,-2.09084 0.45033,-3.95325 0.74766,-4.1387 0.29733,-0.18546 -0.0986,-0.62843 -0.87982,-0.98438 -1.09932,-0.50088 -1.66493,-0.46191 -2.50218,0.17242 -0.59498,0.45075 -0.81861,0.82798 -0.49695,0.83831 0.32167,0.0111 0.65648,1.72936 0.74406,3.8201 0.11958,2.85439 -0.0347,3.80134 -0.61928,3.80134 -1.24189,0 -3.0268,1.51851 -2.30748,1.96307 0.34446,0.21287 1.02549,-0.0111 1.51342,-0.50006 0.48794,-0.48791 1.01944,-0.67304 1.18118,-0.41137 0.1618,0.26165 0.37122,5.92206 0.46558,12.57868 0.0944,6.65659 0.37359,12.10291 0.62052,12.10291 0.24693,0 0.44896,0.81769 0.44896,1.8171 0,1.41669 -0.2038,1.73889 -0.92509,1.46212 -0.5088,-0.19519 -1.01053,-0.355 -1.11495,-0.355 -0.10433,0 -0.0623,-0.48776 0.0937,-1.08391 0.25871,-0.98931 0.0369,-1.0434 -2.54035,-0.61972 -1.55307,0.25533 -3.16829,0.47991 -3.58936,0.49907 -1.57089,0.0716 0.0263,1.20456 1.69793,1.20456 1.56531,0 1.67691,0.11914 1.10814,1.18179 -0.34786,0.64998 -0.47319,1.43951 -0.27849,1.75454 0.19474,0.31501 0.0754,0.57275 -0.26537,0.57275 -0.34065,0 -0.61936,0.26319 -0.61936,0.58486 0,0.32166 0.39476,0.58483 0.87726,0.58483 0.60984,0 0.87728,0.61351 0.87728,2.01246 0,1.10683 0.30325,2.19985 0.67392,2.42894 0.48921,0.30237 0.56746,-0.24914 0.2855,-2.01245 -0.28312,-1.77052 -0.18833,-2.42906 0.34956,-2.4293 0.52385,-2.6e-4 0.67851,0.85803 0.53302,2.9581 -0.2414,3.48476 0.31674,6.98464 1.11382,6.98464 0.33891,0 0.4128,-1.28192 0.18546,-3.21665 -0.26276,-2.2356 -0.17507,-3.21666 0.28731,-3.21666 0.44216,0 0.66537,1.57934 0.66537,4.70782 0,4.21624 1.00785,8.15878 2.08566,8.15878 0.16556,0 1.07922,-0.57531 2.03031,-1.27845 1.18148,-0.87352 2.84906,-1.35949 5.26463,-1.5342 4.01339,-0.2903 4.49261,-1.3964 0.80849,-1.8661 -1.92403,-0.24531 -2.29603,-0.51245 -2.30827,-1.65765 -0.009,-0.7533 -0.53234,-1.63785 -1.1697,-1.97346 -1.2669,-0.66711 -2.61721,-2.17055 -2.61721,-2.91398 0,-1.04424 2.46237,-0.42156 2.75479,0.69662 0.16821,0.64332 0.37369,1.1697 0.45658,1.1697 0.0829,0 1.14121,-0.9073 2.35187,-2.01621 2.17457,-1.99181 3.25154,-2.18323 6.57233,-1.1682 1.41229,0.4317 0.7132,1.47226 -0.87728,1.3058 -1.54086,-0.16137 -1.61603,-0.0464 -1.7919,2.73988 -0.2164,3.43019 0.85997,10.18134 1.80505,11.32007 1.12049,1.35012 1.54048,-1.04773 0.6355,-3.62839 -0.9246,-2.63671 -1.06415,-8.90234 -0.20999,-9.43023 0.35699,-0.22061 0.58484,0.66938 0.58484,2.28429 0,2.02299 0.26797,2.78916 1.13846,3.25505 0.8945,0.47869 1.2667,0.3891 1.73677,-0.41806 0.56839,-0.97602 0.59916,-0.97622 0.61607,-0.004 0.009,0.56291 0.37052,1.02348 0.80164,1.02348 0.47454,0 1.08959,-1.32702 1.5586,-3.36288 0.42611,-1.84956 1.10346,-4.02082 1.50523,-4.82497 l 0.73046,-1.46212 0.36976,1.46338 c 0.33411,1.32228 -0.95241,8.47996 -1.64947,9.17702 -0.15761,0.1576 0.19385,1.40768 0.78125,2.77788 1.42903,3.33375 0.54875,4.94741 -0.95833,1.75675 -0.92145,-1.9508 -4.58185,-4.89162 -6.13705,-4.93061 -0.90838,-0.0228 0.36961,2.48158 1.53807,3.01396 1.51729,0.69134 3.23215,3.38702 3.23215,5.08077 0,0.659 0.30334,1.86388 0.67408,2.67755 0.61448,1.34863 0.73826,1.3916 1.40038,0.48612 1.10809,-1.51541 1.88495,7.55977 0.81784,9.55373 -0.58634,1.09556 -0.60332,1.58592 -0.0732,2.11603 0.82949,0.82949 0.91725,3.75565 0.12732,4.24389 -0.3095,0.19121 -0.77392,-0.4672 -1.03201,-1.46327 -0.73121,-2.82182 -1.58884,-2.10405 -1.96128,1.64146 -0.40345,4.05717 -1.81271,6.66872 -4.61956,8.56057 -4.05346,2.73213 -5.61852,2.95602 -12.94408,1.85186 -4.62884,-0.6977 -7.10652,-0.83167 -8.12264,-0.43919 -1.74156,0.67266 -1.30988,0.87025 4.0328,1.84579 5.76087,1.05192 12.11879,0.83506 15.80532,-0.53906 4.07601,-1.51933 6.20882,-3.60061 7.41687,-7.23776 0.79403,-2.39062 1.06941,-2.7341 1.53088,-1.90951 0.37651,0.67277 0.32366,1.58256 -0.15981,2.74952 -0.54236,1.3094 -0.5556,1.91086 -0.053,2.41334 0.88568,0.88568 0.86103,6.44297 -0.0325,7.33652 -0.94821,0.94821 -5.32318,0.88811 -7.70195,-0.10588 -1.32843,-0.55506 -2.25149,-0.62936 -2.9516,-0.23756 -1.72737,0.9667 -15.56186,-0.15672 -17.09993,-1.38871 -0.84448,-0.67637 -3.43825,-0.0619 -4.34369,1.02914 -0.87832,1.05832 -2.66098,1.05569 -3.06781,-0.004 -0.25504,-0.66459 -0.74901,-0.70427 -2.54818,-0.20469 -4.41347,1.22554 -11.60808,1.21382 -15.05189,-0.0245 -2.72607,-0.98025 -3.57764,-1.04751 -6.09202,-0.48124 -1.60761,0.36207 -3.12015,0.85553 -3.36117,1.09656 -0.82483,0.8248 -10.54098,0.48795 -12.30372,-0.42655 -1.55115,-0.80476 -1.69706,-0.78321 -2.10166,0.31054 -0.40887,1.10525 -0.84941,1.16181 -7.38597,0.94822 -3.82314,-0.12489 -7.21972,-0.39313 -7.54795,-0.59598 -0.32823,-0.20292 -1.43993,-0.0749 -2.47044,0.28433 -2.17102,0.75681 -6.97113,0.32918 -8.76112,-0.78053 -0.88942,-0.5514 -1.34926,-0.58248 -1.65299,-0.11163 -0.60615,0.93995 -3.05258,1.61506 -3.05258,0.8428 z m 14.53388,-2.42912 c 1.013,-0.35312 1.8418,-0.86387 1.8418,-1.135 0,-0.27113 -0.72374,-0.11538 -1.60831,0.34602 -2.1041,1.09762 -2.4856,1.06292 -2.4856,-0.22601 0,-1.48069 0.6227,-1.9638 1.54481,-1.19853 0.59952,0.49755 0.90991,0.289 1.36972,-0.92043 0.83243,-2.18944 0.82448,-2.19324 -1.4151,-0.67343 -2.0216,1.37191 -6.36134,2.42738 -7.38338,1.79572 -0.94713,-0.58537 -0.59941,-1.44019 0.58581,-1.44019 0.62436,0 1.29784,-0.26318 1.49664,-0.58484 0.20801,-0.33663 -0.33581,-0.58639 -1.28139,-0.58846 -0.90356,-0.002 -2.39667,-0.39676 -3.31803,-0.87726 -0.92135,-0.48053 -2.03986,-0.87368 -2.48559,-0.87368 -0.44574,0 -0.81042,-0.26317 -0.81042,-0.58484 0,-0.32166 0.2811,-0.58484 0.62467,-0.58484 0.34357,0 0.12313,-0.72376 -0.48985,-1.60833 -1.67127,-2.41171 -2.73556,-6.81057 -1.96749,-8.13193 0.51399,-0.88424 0.63064,-0.5983 0.6452,1.58166 0.0199,3.0753 0.76512,4.06467 3.05899,4.06467 1.95918,0 2.12372,-0.67271 0.35948,-1.46964 -1.65754,-0.74874 -2.14242,-2.17366 -0.68731,-2.01981 2.04092,0.21574 2.13623,-0.0199 0.58868,-1.45381 -2.08586,-1.93309 -2.04804,-4.4205 0.10389,-6.82887 1.47222,-1.64771 1.88387,-1.8046 3.7944,-1.44618 2.65335,0.49777 3.74745,2.1802 2.78768,4.28669 -0.55615,1.2206 -0.80096,1.33033 -1.56086,0.69967 -0.49569,-0.41139 -1.28772,-1.4953 -1.76006,-2.40872 -0.72658,-1.40507 -1.0363,-1.56574 -2.01182,-1.04366 -1.09724,0.58723 -1.10694,0.70796 -0.20048,2.49541 1.21253,2.39086 5.00289,7.43438 5.58713,7.43438 0.8815,0 1.79333,-2.43491 1.15202,-3.07625 -0.42516,-0.42516 -0.26358,-1.05334 0.53066,-2.06305 2.08084,-2.64534 1.29149,-6.43786 -1.65341,-7.9441 -1.25942,-0.64415 -2.35722,-0.68882 -5.26768,-0.21442 -2.63872,0.43018 -4.08342,0.41406 -5.1174,-0.057 -1.12211,-0.51127 -1.44072,-0.49107 -1.44072,0.0913 0,1.10835 1.24437,2.1514 2.56663,2.1514 1.12465,0 1.12103,0.0391 -0.10986,1.18588 -0.70009,0.65223 -1.43212,1.90232 -1.62675,2.77801 -0.19452,0.87567 -0.50197,2.11851 -0.683,2.76184 -0.28676,1.01899 -0.27063,3.50229 0.0588,9.06511 0.0475,0.80416 0.46715,1.75946 0.93225,2.12291 0.68809,0.53766 0.73046,1.16432 0.22737,3.36287 -0.65001,2.84042 -0.12224,3.58039 1.02502,1.4369 0.6771,-1.26519 0.6771,-1.26519 1.64291,0.0155 0.77985,1.03387 1.10858,1.13765 1.70724,0.53902 0.59863,-0.59863 0.83077,-0.5968 1.20553,0.009 1.02573,1.65969 6.68265,2.36002 9.92711,1.22898 z m 11.74715,-1.16446 c -1.75041,-2.45826 -5.67255,-5.21163 -7.42386,-5.21163 -1.15748,0 -1.34563,0.19916 -0.96742,1.02348 0.25824,0.56291 0.46647,1.82032 0.46275,2.79422 -0.007,1.64819 0.12246,1.75564 1.86173,1.55259 1.02765,-0.12003 2.62406,0.1912 3.54753,0.69145 0.92346,0.50027 2.15753,0.92012 2.74234,0.93301 0.97786,0.0221 0.95993,-0.1218 -0.22307,-1.78312 z m 80.05317,0.21529 c 0.16711,-1.17622 0.0292,-1.24982 -1.46212,-0.7794 -0.90573,0.2857 -2.37052,0.67783 -3.2551,0.87138 -2.81473,0.61589 -1.80469,1.57176 1.46212,1.38367 2.66212,-0.15318 3.095,-0.34949 3.2551,-1.47565 z m -57.30123,-0.69956 c 3.65284,-1.45319 5.89832,-2.96791 5.92418,-3.99623 0.0265,-1.052 -0.78491,-0.90847 -3.30633,0.58484 -3.24453,1.92158 -5.98029,2.7617 -8.95707,2.75063 -3.74482,-0.0133 -5.77707,-1.88359 -4.57915,-4.21273 0.67352,-1.30958 -0.27175,-1.35266 -1.55358,-0.0707 -0.52399,0.52396 -0.80595,1.33504 -0.62662,1.80237 0.17927,0.46731 0.32604,1.07361 0.32604,1.34728 0,0.27368 0.52637,0.66466 1.1697,0.86884 1.58444,0.5029 1.48312,1.46212 -0.15451,1.46212 -1.96818,0 -7.45025,-2.13761 -8.85421,-3.45249 -0.67436,-0.63161 -1.95713,-1.42531 -2.85056,-1.76382 -1.4556,-0.55148 -1.56761,-0.50927 -1.07766,0.40623 0.93486,1.74678 2.66267,2.99875 6.25657,4.53344 3.12112,1.33283 4.04207,1.45456 9.31214,1.23084 4.12219,-0.17507 6.77012,-0.61494 8.97101,-1.49052 z m 16.82654,1.22529 c -0.16335,-0.26441 -1.7275,-0.51837 -3.47579,-0.56437 -1.74826,-0.046 -4.31042,-0.47354 -5.69365,-0.95011 -2.45527,-0.84591 -5.0761,-0.4601 -3.49838,0.51499 2.09694,1.29598 13.40235,2.18796 12.66782,0.99949 z m 15.43408,-2.67432 c 3.05582,-0.0338 7.3983,0.17175 9.64997,0.45699 4.98101,0.63099 4.74387,0.12577 -0.64744,-1.37925 -4.81282,-1.34355 -12.12911,-1.2602 -17.45946,0.19894 -5.31337,1.45445 -8.38073,1.25776 -11.52986,-0.73935 -4.4502,-2.82225 -5.44695,-5.10437 -3.69586,-8.46193 1.78427,-3.42121 0.78539,-4.44701 -1.31952,-1.35508 -0.86327,1.26808 -1.3159,2.802 -1.3159,4.4595 0,2.12368 0.32226,2.83049 2.02089,4.43251 2.05121,1.93453 6.41663,3.78821 8.9213,3.78821 0.75697,0 1.52346,0.38353 1.70335,0.8523 0.27268,0.71057 0.97462,0.59927 4.22176,-0.66946 3.15329,-1.23203 4.95243,-1.53347 9.45077,-1.58336 z m -5.84845,2.27777 c 0.59268,-0.71415 0.56326,-0.87726 -0.15827,-0.87726 -0.48747,0 -1.0378,0.39477 -1.22295,0.87726 -0.18524,0.48252 -0.11384,0.87728 0.15827,0.87728 0.27217,0 0.8225,-0.39476 1.22295,-0.87728 z m -62.13989,-3.58346 c 1.88,-1.18559 1.62578,-1.97257 -0.63718,-1.97257 -1.52536,0 -2.10174,0.32624 -2.63182,1.48964 -0.3733,0.8193 -0.67872,1.62657 -0.67872,1.79395 0,0.45084 2.43757,-0.35865 3.94772,-1.31102 z m 4.24013,0.62472 c 0,-0.50148 -0.26319,-0.74912 -0.58486,-0.55033 -0.32166,0.19871 -0.58484,0.6091 -0.58484,0.91178 0,0.3027 0.26318,0.55033 0.58484,0.55033 0.32167,0 0.58486,-0.4103 0.58486,-0.91178 z m 16.96052,-0.5025 c 0,-0.77785 0.15164,-1.80962 0.33714,-2.29285 0.23106,-0.60208 -0.0911,-0.93921 -1.02348,-1.07131 -0.9092,-0.12887 -1.30487,-0.52679 -1.19258,-1.19961 0.10986,-0.65793 -0.33468,-1.13302 -1.28265,-1.37096 -2.07638,-0.52113 -2.68688,0.0884 -2.68688,2.68264 0,2.11645 0.18103,2.36597 2.4856,3.42528 3.24888,1.49339 3.36285,1.48751 3.36285,-0.1733 z m 23.10144,0.82945 c -0.19872,-0.32167 -0.80651,-0.58082 -1.35043,-0.57589 -0.85228,0.007 -0.86773,0.0873 -0.11163,0.57589 1.14534,0.74018 1.91957,0.74018 1.46212,0 z m -10.61675,-0.5073 c 0.87999,-0.34629 0.9342,-0.54045 0.29242,-1.04777 -1.13111,-0.89415 -6.34379,-1.49705 -6.34379,-0.73371 0,0.3469 -0.50779,0.4519 -1.1697,0.24182 -1.30386,-0.41384 -1.54205,0.27095 -0.46787,1.34514 0.75759,0.75758 5.92582,0.88835 7.68894,0.19452 z m 51.90434,-0.49607 c 0.93423,-0.55186 1.69857,-1.20979 1.69857,-1.46212 0,-0.25232 -3.09236,-0.44043 -6.87193,-0.41801 -6.87195,0.0407 -6.87195,0.0407 -3.94771,0.87776 1.60831,0.46037 3.58217,1.07198 4.38633,1.35916 2.2073,0.78824 2.88248,0.73738 4.73474,-0.35679 z m -29.29827,-0.14743 c 0,-0.31135 -1.38168,-0.50874 -3.07044,-0.43864 -2.02569,0.084 -3.02859,-0.0977 -2.94744,-0.534 0.0676,-0.3638 -0.38798,-1.12386 -1.01249,-1.68905 -0.93325,-0.84458 -1.29512,-0.89518 -2.03156,-0.28399 -0.78271,0.6496 -0.6588,0.91868 0.97992,2.12768 1.4176,1.04587 2.63416,1.38405 4.97899,1.38405 1.70666,0 3.10302,-0.25474 3.10302,-0.56605 z m -19.62322,-1.23845 c -0.18833,-0.30469 -0.59164,-0.39991 -0.89633,-0.21154 -0.30469,0.18833 -0.39991,0.59167 -0.21154,0.89636 0.18833,0.30469 0.59167,0.39989 0.89636,0.21154 0.30468,-0.18833 0.39991,-0.59165 0.21154,-0.89634 z m 23.61041,0.71313 c 0.55376,-0.35112 0.2247,-0.70327 -1.16969,-1.25168 -1.06712,-0.41972 -3.17174,-1.77492 -4.67694,-3.01155 -3.01533,-2.47731 -3.40417,-2.63947 -3.40417,-1.41988 0,0.45569 -0.1974,0.93891 -0.43862,1.07384 -0.24125,0.13483 -0.10389,0.1629 0.30548,0.0621 0.40929,-0.1008 1.72519,0.69085 2.92424,1.75918 3.50709,3.12468 4.94801,3.74659 6.4597,2.78803 z m -6.9427,-1.89134 c -0.32708,-0.61116 -1.11181,-1.11123 -1.74382,-1.11123 -1.39282,0 -1.44729,0.4557 -0.21685,1.81526 1.24946,1.38064 2.78191,0.83039 1.96071,-0.70403 z m 12.17367,0.82633 c -0.55917,-0.14633 -1.6119,-0.15164 -2.3394,-0.011 -0.72748,0.13992 -0.26998,0.25966 1.01667,0.26616 1.28666,0.007 1.88188,-0.10787 1.32273,-0.25436 z m -29.96141,-1.03044 c 1.13361,-0.47365 2.02819,-1.26625 2.02819,-1.79698 0,-0.80975 -0.2269,-0.77109 -1.54098,0.26258 -1.95618,1.53871 -4.63654,1.54198 -7.15147,0.009 -2.34819,-1.43159 -3.3125,-0.94032 -1.2412,0.63236 2.38261,1.80901 5.0047,2.10532 7.90546,0.89331 z m 4.25238,0.10897 c 1.13082,-1.36256 1.08803,-5.30685 -0.0701,-6.46503 -0.84032,-0.84032 -1.23795,-0.91709 -1.90073,-0.36702 -1.10737,0.91904 -1.06948,2.67784 0.067,3.11396 0.68973,0.26468 0.81345,0.83645 0.51974,2.40198 -0.39469,2.10396 0.23405,2.70182 1.38409,1.31611 z m 35.49837,-0.1271 c 9.9177,-0.25194 10.44285,-0.29098 9.99084,-0.74268 -0.2414,-0.24125 -3.64082,-0.45776 -7.55425,-0.48113 -3.91345,-0.0234 -8.48038,-0.0891 -10.14876,-0.14611 l -3.03338,-0.10367 0.0528,-3.65529 c 0.0553,-3.82869 -0.42231,-5.06945 -10.23888,-26.60114 l -2.46214,-5.40046 -6.1409,-0.0491 c -3.37746,-0.027 -10.55331,-0.17484 -15.9463,-0.32864 l -9.80543,-0.27969 -1.19412,2.78577 c -1.18816,2.77185 -5.16603,12.98389 -6.79537,17.44518 -0.46989,1.28666 -1.21251,3.12893 -1.65027,4.09392 -2.74716,6.05617 -3.33175,9.29261 -1.93141,10.69292 0.38063,0.38066 0.578,0.80551 0.43861,0.94412 -0.13925,0.1386 -3.61484,0.34041 -7.72326,0.44839 -5.96605,0.15672 -7.27392,0.0535 -6.49657,-0.51364 0.53528,-0.39047 1.14306,-0.78523 1.3506,-0.87726 1.36603,-0.60566 4.43976,-5.90691 7.04852,-12.15665 5.32312,-12.75241 5.85971,-14.10012 5.85971,-14.71752 0,-0.33227 0.36657,-1.43342 0.81461,-2.44704 0.44801,-1.0136 2.31186,-5.52746 4.14181,-10.03077 1.82998,-4.50331 3.70134,-9.05396 4.15857,-10.11255 0.45723,-1.0586 1.63913,-4.08518 2.62643,-6.72573 0.98731,-2.64057 2.01528,-5.32738 2.2844,-5.97071 0.9308,-2.22525 1.14156,-3.21666 0.6838,-3.21666 -0.25281,0 -1.47412,2.56602 -2.71405,5.70226 -2.47889,6.27005 -6.78205,16.58717 -8.53497,20.46323 -0.61667,1.36357 -1.12121,2.63993 -1.12121,2.83635 0,0.32679 -1.2143,3.48394 -7.51567,19.54039 -1.3627,3.47225 -2.50083,5.55842 -3.03465,5.56242 -0.52248,0.004 -0.79059,0.47087 -0.69041,1.20248 0.29752,2.17324 -1.67116,5.6557 -5.18203,9.16657 -1.90409,1.90409 -3.46201,3.56478 -3.46201,3.6904 0,0.12555 2.6976,0.12135 5.99467,-0.009 3.29707,-0.13085 7.64881,-0.25479 9.67055,-0.27517 3.61646,-0.0365 3.66458,-0.0581 2.9781,-1.34081 -1.07752,-2.01336 -1.17177,-4.46426 -0.2733,-7.10622 1.23451,-3.63003 2.70421,-7.46577 3.61237,-9.42784 0.44665,-0.96499 2.00516,-4.91271 3.46337,-8.77269 1.4582,-3.85999 2.88562,-7.5714 3.172,-8.24765 0.51307,-1.21143 0.734,-1.22613 15.04756,-1.00082 7.98978,0.12578 14.87194,0.34799 15.29369,0.49382 0.66864,0.23119 2.06964,2.97848 6.55222,12.84858 0.58435,1.28666 1.84795,4.05006 2.80799,6.14088 2.87441,6.26008 3.80635,9.69205 3.37107,12.41421 -0.21463,1.34273 -0.67425,2.78337 -1.0212,3.20141 -0.6891,0.83035 -0.47177,0.9124 2.14424,0.80968 0.96499,-0.0378 2.1493,0.19585 2.6318,0.51945 0.48251,0.32359 1.27204,0.42976 1.75453,0.23595 0.48252,-0.19386 3.50908,-0.41926 6.72574,-0.50096 z m -25.6218,-4.54853 c 2.75655,-3.87389 3.31365,-5.11306 2.2987,-5.11306 -0.46623,0 -1.65361,1.30982 -2.63865,2.91071 -0.98504,1.60089 -2.3235,3.24327 -2.97439,3.64975 -0.65089,0.4065 -1.18343,1.20818 -1.18343,1.78154 0,0.95803 0.11075,0.96997 1.3661,0.14744 0.75135,-0.49229 2.1606,-2.01166 3.13167,-3.37634 z m 12.46278,0.0858 c 0,-0.92935 -0.19917,-1.68975 -0.44247,-1.68975 -0.4687,0 -1.91042,4.14712 -1.87746,5.40062 0.0407,1.54461 2.31993,-2.10131 2.31993,-3.71087 z m 27.71455,2.21752 c 0.18811,-0.70151 0.34567,-1.96687 0.35007,-2.81195 0.007,-1.47348 -0.0988,-1.52445 -2.5959,-1.24297 -2.31687,0.26114 -2.80036,0.097 -4.38635,-1.48898 -0.98035,-0.98035 -1.78246,-2.21301 -1.78246,-2.73922 0,-0.52624 -0.26317,-0.79413 -0.58486,-0.59534 -0.97679,0.60371 -0.67204,1.80648 1.30151,5.13676 1.83027,3.08847 5.20532,5.73614 6.6825,5.24228 0.37038,-0.12379 0.82736,-0.7991 1.01549,-1.50058 z m -95.2723,-2.0596 c 0.16755,-0.43128 -0.25,-1.56287 -0.92772,-2.51465 -1.15127,-1.6168 -1.28259,-1.66158 -1.99913,-0.68165 -0.57436,0.78548 -0.59589,1.15568 -0.0858,1.4745 0.98897,0.61801 -0.28464,2.45785 -1.86411,2.69282 -1.40575,0.20911 -1.57985,0.71764 -0.58601,1.71148 0.50367,0.50365 1.2277,0.35109 2.91418,-0.6141 1.2342,-0.70633 2.38102,-1.63712 2.54851,-2.0684 z m 30.08577,1.97547 c 1.7911,-0.92622 2.38122,-1.95799 2.38122,-4.16339 0,-1.4834 0.88548,-1.93714 1.33329,-0.68323 0.14368,0.40208 0.43219,0.57408 0.64127,0.38223 0.20911,-0.19186 -0.0307,-1.33212 -0.53283,-2.53394 -0.75546,-1.80805 -1.0595,-2.06349 -1.7622,-1.48028 -0.46709,0.38762 -0.84923,1.56145 -0.84923,2.60852 0,1.04706 -0.37885,2.21815 -0.84189,2.60246 -1.31458,1.09098 -4.04485,0.5143 -4.70663,-0.99415 -0.7535,-1.71747 -1.35944,-1.66614 -1.81623,0.15385 -0.43029,1.71437 0.58172,3.20905 2.17275,3.20905 0.60394,0 1.09808,0.39477 1.09808,0.87726 0,1.1037 0.77865,1.10953 2.8824,0.0221 z m 8.43555,-2.2148 c 0.20292,-1.68875 0.37109,-3.6438 0.37387,-4.34458 0.007,-1.72927 -1.60175,-3.23792 -2.98458,-2.79901 -0.80442,0.2553 -1.26229,-0.0223 -1.65584,-1.00363 -0.38798,-0.96753 -0.55458,-1.07094 -0.58104,-0.36057 -0.0199,0.54777 0.20469,1.60049 0.5002,2.33938 0.2955,0.73888 0.6934,1.83363 0.8842,2.43277 0.26793,0.84129 0.52744,0.93952 1.13966,0.43143 0.59934,-0.49739 0.97187,-0.44211 1.52682,0.22655 1.12721,1.3582 -0.31141,2.7907 -2.35244,2.34243 -1.09622,-0.24079 -1.68838,-0.0849 -1.91433,0.50389 -0.49817,1.29821 1.33252,2.66316 4.3375,3.23394 0.19651,0.0374 0.52313,-1.31386 0.72598,-3.0026 z m 2.76119,0.21817 c 0.18988,-1.39613 0.89006,-3.01937 1.61493,-3.74426 1.08796,-1.08794 1.45387,-1.17083 2.44276,-0.55328 1.00776,0.62938 1.16309,0.57786 1.16309,-0.38572 0,-0.61163 -0.41629,-1.27182 -0.92511,-1.46705 -1.42587,-0.54717 -3.16883,-0.42075 -3.16883,0.22984 0,0.32167 -0.26317,0.58484 -0.58484,0.58484 -0.32166,0 -0.58483,-0.34553 -0.58483,-0.76784 0,-1.40365 -3.33936,-4.10317 -4.49766,-3.63589 -0.93879,0.37872 -0.89317,0.48895 0.40372,0.97545 2.53562,0.95115 2.90753,2.00054 2.51462,7.09552 -0.29881,3.87499 -0.21928,4.63293 0.463,4.40649 0.45314,-0.15053 0.97476,-1.38259 1.15915,-2.7381 z m 23.27509,1.82439 c 0.30252,-0.5653 0.64076,-2.19373 0.75162,-3.61873 0.19275,-2.47674 0.0922,-2.665 -2.28034,-4.27195 -2.68783,-1.82054 -5.66056,-2.55193 -7.99293,-1.96654 -2.47844,0.62204 -1.17715,1.81438 2.0533,1.88137 4.75132,0.0986 6.99125,3.22586 5.50639,7.68779 -0.331,0.99452 -0.21199,1.31589 0.48696,1.31589 0.50871,0 1.17244,-0.46253 1.475,-1.02783 z m -46.75846,-4.47194 c 0.40272,-0.48526 0.58736,-1.11674 0.41026,-1.40326 -0.48995,-0.79275 2.6252,-3.42408 4.60762,-3.89203 0.96499,-0.22777 2.74147,-0.38592 3.94771,-0.35144 1.55936,0.0447 2.19318,-0.18347 2.19318,-0.7893 0,-1.82634 -5.61235,-2.27267 -8.67337,-0.68975 -3.30448,1.7088 -5.61837,7.43128 -4.43147,10.95946 0.42274,1.25668 0.49412,1.18948 0.83795,-0.78887 0.20668,-1.18937 0.70538,-2.55953 1.10812,-3.04481 z m 1.23652,3.39988 c 0.32268,-0.84872 1.34519,-1.80538 2.3249,-2.17519 0.96189,-0.36306 1.74888,-0.91068 1.74888,-1.21691 0,-1.09711 1.96137,-2.69586 3.3073,-2.69586 0.82918,0 1.37147,-0.34686 1.37147,-0.87725 0,-0.98168 -0.91355,-1.18003 -1.44848,-0.31448 -0.21817,0.35292 -0.88528,0.3179 -1.78906,-0.0939 -1.67311,-0.76233 -5.23902,0.38427 -3.8551,1.2396 0.54514,0.33689 0.26572,0.93453 -1.05398,2.2542 -1.22629,1.22629 -1.79577,2.36644 -1.79577,3.59529 0,2.19773 0.42388,2.29908 1.18984,0.28448 z m 69.57654,1.00181 c 0,-0.28227 -0.33265,-0.7893 -0.73924,-1.12675 -0.40656,-0.33742 -1.7598,-2.80405 -3.00717,-5.48143 -1.24738,-2.67735 -3.25105,-6.97337 -4.45263,-9.5467 -1.20157,-2.57333 -2.91749,-6.38943 -3.81316,-8.48027 -0.89567,-2.09081 -2.50704,-5.70207 -3.58085,-8.02498 -1.07379,-2.32293 -1.95233,-4.37356 -1.95233,-4.55694 0,-0.45818 -3.27382,-7.71736 -4.61228,-10.22707 -0.60045,-1.12582 -1.79654,-3.88923 -2.65802,-6.14087 -2.49961,-6.53334 -3.42764,-8.33829 -3.69172,-7.18009 -0.12644,0.55425 0.43311,2.52811 1.24331,4.38633 0.81019,1.85823 2.76776,6.40518 4.35012,10.10433 3.94093,9.21272 11.52783,26.43967 13.52251,30.7044 0.90268,1.93001 2.39227,5.21976 3.31023,7.3106 2.55849,5.82754 6.08123,10.61206 6.08123,8.25944 z m -36.53804,-3.55669 c -0.49284,-0.79743 -2.01325,0.91347 -2.0432,2.29915 -0.0133,0.63356 0.30917,0.53325 1.22206,-0.37964 0.68236,-0.68239 1.05188,-1.54616 0.82114,-1.91951 z m 9.93664,1.70191 c 0.37845,-1.1924 -1.02001,-4.06529 -1.9789,-4.06529 -0.26439,0 -0.95955,0.52912 -1.54481,1.17582 -1.0331,1.14157 -1.02425,1.21825 0.30371,2.6318 1.66221,1.76935 2.7135,1.85348 3.22,0.25767 z m -34.22259,-2.89559 c 0,-0.64335 -0.26317,-1.1697 -0.58484,-1.1697 -0.32166,0 -0.58486,0.52635 -0.58486,1.1697 0,0.64333 0.2632,1.16968 0.58486,1.16968 0.32167,0 0.58484,-0.52635 0.58484,-1.16968 z m 2.33938,-1.11773 c 0,-3.63054 4.5486,-7.69543 9.49656,-8.48664 3.21496,-0.51408 4.17944,0.34567 2.89615,2.58167 -1.68726,2.93986 -0.24373,2.61813 2.63902,-0.58818 2.93586,-3.2654 7.45675,-5.82502 10.30574,-5.83488 1.25657,-0.004 1.6039,-0.25033 1.45323,-1.02918 -0.15296,-0.79023 -0.65972,-0.97691 -2.22405,-0.81912 -2.2887,0.23085 -6.99667,2.45054 -8.15309,3.84393 -0.95791,1.15423 -2.20473,1.17896 -3.31785,0.0659 -1.59445,-1.59446 -7.40029,-0.0199 -11.16825,3.03034 -1.7982,1.45531 -3.53567,5.6313 -3.22464,7.75041 0.31486,2.14525 1.29718,1.75588 1.29718,-0.51418 z m 23.97869,0.39059 c 0,-0.36196 -0.55201,-1.7984 -1.22668,-3.19208 -0.67468,-1.39368 -1.36769,-3.58536 -1.54004,-4.87036 -0.26086,-1.9447 -0.45367,-2.21992 -1.15031,-1.64178 -0.51064,0.42381 -0.70392,1.22454 -0.49576,2.0539 0.18987,0.75643 0.0769,1.35931 -0.25484,1.35931 -0.32779,0 -0.59598,-0.39478 -0.59598,-0.87728 0,-1.32397 -1.05885,-1.05714 -2.65974,0.67025 -1.63999,1.76959 -1.75498,2.29882 -0.64229,2.95598 0.43553,0.25723 1.11444,1.08168 1.50865,1.83212 0.68307,1.30027 0.76912,1.31705 1.83047,0.35655 0.75035,-0.67907 1.02054,-1.5058 0.82814,-2.53412 -0.18811,-1.00546 0.16424,-0.61848 1.03294,1.1342 0.72516,1.46325 1.53405,2.98083 1.79753,3.37241 0.53731,0.79854 1.56791,0.3916 1.56791,-0.6191 z m 40.92811,-0.23661 c 3.43945,-2.03173 4.51552,-7.61789 2.28991,-11.88778 -1.39744,-2.68106 -2.13714,-3.31491 -2.93613,-2.51592 -0.35064,0.35064 0.0177,1.65929 0.99808,3.54968 1.88776,3.63854 1.62972,6.15296 -0.87798,8.55549 -2.56098,2.45357 -4.64646,1.4491 -4.15524,-2.00133 0.20049,-1.40814 0.53307,-1.46057 2.37227,-0.37412 1.64048,0.96904 2.90505,0.89317 2.90505,-0.17418 0,-0.52184 -2.28555,-1.493 -4.80658,-2.04238 -1.32023,-0.28774 -1.73252,-0.0707 -2.43045,1.27885 -2.32147,4.48925 2.14793,8.26597 6.64107,5.6118 z m -27.47664,-0.42695 c 0,-0.4569 -1.87892,-4.87815 -3.54049,-8.33104 -0.94773,-1.96946 -1.72313,-3.862 -1.72313,-4.20561 0,-0.34363 -0.22805,-0.76572 -0.50679,-0.93798 -0.28417,-0.17573 -0.29452,0.77249 -0.0234,2.15865 0.86468,4.42299 1.6419,6.41497 2.8268,7.24492 0.66216,0.46378 1.01992,1.18935 0.83022,1.6837 -0.34469,0.89828 0.71981,2.60836 1.62366,2.60836 0.28225,0 0.51322,-0.0995 0.51322,-0.22104 z m -71.81705,-2.68997 c -0.54797,-0.9577 -1.07916,-1.49864 -1.18042,-1.20211 -0.25192,0.73761 0.97682,2.94338 1.63962,2.94338 0.2954,0 0.0886,-0.78355 -0.4592,-1.74127 z m 96.96541,0.6061 c 0,-0.30267 -0.26317,-0.71298 -0.58483,-0.91178 -0.32167,-0.19872 -0.58486,0.0489 -0.58486,0.55033 0,0.50148 0.26319,0.91178 0.58486,0.91178 0.32166,0 0.58483,-0.24765 0.58483,-0.55033 z m -30.46804,-3.39738 c -0.59345,-1.20624 -1.24898,-3.77225 -1.45674,-5.70225 -0.20778,-1.92999 -0.89853,-4.42186 -1.53504,-5.53749 -0.72333,-1.2678 -0.92087,-2.10724 -0.52677,-2.2386 0.38433,-0.12821 0.0634,-1.27541 -0.82167,-2.93812 -0.7987,-1.50036 -1.45219,-3.05901 -1.45219,-3.46365 0,-0.40465 -0.39477,-0.73571 -0.87726,-0.73571 -1.32423,0 -1.19406,4.01375 0.14611,4.50824 1.01954,0.37618 1.87478,1.28736 1.89181,2.01562 0.004,0.21065 -1.00644,0.24679 -2.24747,0.0805 -1.90171,-0.25509 -2.54203,-0.0396 -4.07305,1.37155 -1.82958,1.68613 -3.11619,4.89085 -1.96356,4.89085 0.89165,0 2.44458,-1.70635 2.44458,-2.68611 0,-0.46642 0.64717,-1.14291 1.43815,-1.5033 3.4616,-1.57721 5.80747,3.08231 4.46479,8.86818 -0.81455,3.51007 -0.7657,4.01777 0.25654,2.66624 0.47226,-0.62439 0.85867,-1.61133 0.85867,-2.19318 0,-0.58185 0.29385,-1.05789 0.65303,-1.05789 0.63557,0 0.49423,1.66335 -0.29998,3.53022 -0.33851,0.79565 1.06114,1.61626 3.8137,2.236 0.20092,0.0451 -0.12025,-0.90471 -0.71373,-2.11095 z m 24.47337,0.25223 c 1.50178,-2.20597 1.61966,-2.75127 0.58486,-2.70547 -1.02343,0.0453 -3.51884,3.33605 -3.0747,4.05468 0.59622,0.9647 1.10069,0.69134 2.48984,-1.34921 z m -30.51322,-1.86055 c 0.75025,-2.64846 0.37018,-3.19318 -2.23816,-3.2077 -1.36871,-0.007 -1.60712,0.23063 -1.60034,1.59936 0.0155,2.99723 0.63855,4.31465 1.95257,4.12462 0.86594,-0.12533 1.41681,-0.86022 1.88593,-2.51628 z m -55.51473,0.61006 c -0.19054,-0.49635 -0.62704,-0.90248 -0.9701,-0.90248 -0.43253,0 -0.42363,0.37399 0.029,1.21977 0.72598,1.3565 1.48513,1.10053 0.94107,-0.31729 z m 41.01976,-0.63384 c -0.18921,-0.18922 -1.33119,-0.15893 -2.5377,0.0674 l -2.19366,0.41154 1.69525,0.72316 c 1.37711,0.58745 1.85337,0.57478 2.53772,-0.0674 0.46335,-0.43484 0.68763,-0.94545 0.49839,-1.13469 z m -12.58267,0.24494 c -0.36086,-0.36088 -0.51694,-1.01882 -0.34682,-1.46212 0.18369,-0.47872 -0.0723,-0.806 -0.63055,-0.806 -1.25595,0 -1.19956,1.54513 0.0836,2.29254 1.35739,0.79059 1.69941,0.78126 0.89373,-0.0245 z m -7.2978,-0.63055 c 1.2831,-1.2831 0.50045,-3.41175 -1.24675,-3.39095 -0.0542,5.9e-4 -0.16402,0.92179 -0.24426,2.04698 -0.15185,2.13064 0.29841,2.53654 1.49101,1.34397 z m 72.29762,-0.23802 c 0.5088,-0.19519 0.92509,-0.85823 0.92509,-1.47326 0,-0.90078 -0.28435,-1.04689 -1.4621,-0.75131 -3.25777,0.81764 -5.6158,-0.97169 -4.36367,-3.31126 0.6708,-1.25341 0.0133,-1.51376 -1.0754,-0.42551 -0.77552,0.77551 -0.92571,3.32726 -0.25423,4.31935 1.10803,1.63703 4.15236,2.43936 6.23031,1.64199 z m -61.94583,-0.81471 c 0.19872,-0.32166 -0.18037,-0.58484 -0.84276,-0.58484 -0.66231,0 -1.20422,0.26318 -1.20422,0.58484 0,0.32167 0.37924,0.58484 0.84275,0.58484 0.46353,0 1.00542,-0.26317 1.20423,-0.58484 z m 53.80581,-0.5903 c 0,-0.48963 -0.99105,-1.1914 -2.27795,-1.613 -2.56002,-0.83868 -2.88803,-0.73939 -2.33323,0.70641 0.72755,1.89594 4.61118,2.65947 4.61118,0.90659 z m -79.33425,-1.89529 c -0.0614,-1.74524 -0.16025,-2.00653 -0.33127,-0.87728 -0.2955,1.95071 -1.75173,2.12193 -2.4871,0.29244 -0.31417,-0.78161 -0.54399,-0.95319 -0.56601,-0.42257 -0.0526,1.2649 1.62379,3.493 2.62791,3.493 0.61691,0 0.82051,-0.66901 0.75647,-2.48559 z m 19.38754,-0.6222 c 0,-0.95036 -2.03681,-0.0782 -2.23628,0.95741 -0.17882,0.92843 -0.0586,0.96285 1.01676,0.29125 0.67074,-0.4189 1.21952,-0.9808 1.21952,-1.24866 z m 3.21666,1.35326 c 0.20159,-0.32613 -0.23594,-0.58089 -0.98897,-0.57589 -1.08644,0.007 -1.17892,0.1198 -0.47315,0.57589 1.08825,0.70327 1.02746,0.70327 1.46212,0 z m 3.50908,0 c 0.2049,-0.3317 -0.28637,-0.58484 -1.13518,-0.58484 -0.82314,0 -1.49664,0.26317 -1.49664,0.58484 0,0.32166 0.51083,0.58483 1.13519,0.58483 0.62434,0 1.29782,-0.26317 1.49663,-0.58483 z m -23.68628,-1.4276 c 0,-0.46353 -0.24498,-0.99416 -0.54443,-1.17924 -0.69532,-0.42974 -1.39461,0.66543 -0.91766,1.43714 0.53777,0.87018 1.46209,0.70714 1.46209,-0.2579 z m 83.97695,-2.18113 c 1.71221,-3.31108 1.97934,-4.46014 1.11409,-4.79219 -0.55153,-0.21154 -1.29621,0.73946 -2.306,2.94515 -1.76619,3.85786 -1.97718,5.41728 -0.5756,4.25406 0.50369,-0.41804 1.29907,-1.5012 1.76751,-2.40702 z m -45.51969,1.41555 c 0.18237,-0.55516 -1.31132,-0.73106 -6.20747,-0.73106 -7.81959,0 -9.37647,1.03353 -2.00425,1.33055 7.15478,0.28824 7.93904,0.23097 8.21172,-0.59949 z m 39.04151,-1.35531 c 0.22104,-1.30834 0.24023,-2.54046 0.0427,-2.73805 -0.19762,-0.19762 -1.22317,0.47811 -2.27908,1.50153 -1.0559,1.02343 -2.30206,1.88214 -2.76924,1.90827 -1.08747,0.0608 2.3369,1.64552 3.63171,1.68067 0.68811,0.0177 1.08948,-0.66853 1.37397,-2.35242 z m -83.93206,1.16733 c 0,-0.34465 -0.44584,-1.06839 -0.99076,-1.60834 -0.92799,-0.91952 -0.96504,-0.91384 -0.58484,0.0895 0.22325,0.58922 0.4059,1.31299 0.4059,1.60834 0,0.29534 0.26318,0.53701 0.58484,0.53701 0.32166,0 0.58486,-0.28199 0.58486,-0.62662 z m 20.15043,-0.002 c -0.21353,-0.34547 0.21154,-1.2666 0.9447,-2.04695 1.53159,-1.63032 0.4166,-2.01394 -1.31053,-0.45091 -1.30741,1.18342 -1.40544,3.12625 -0.15782,3.12625 0.50148,0 0.73709,-0.28267 0.52358,-0.62814 z m 5.29036,0.0436 c -0.19872,-0.32169 -0.60911,-0.58486 -0.91178,-0.58486 -0.30268,0 -0.55034,0.26317 -0.55034,0.58486 0,0.32166 0.4103,0.58484 0.91179,0.58484 0.50148,0 0.74914,-0.26318 0.55033,-0.58484 z m 5.26361,0 c 0.20646,-0.33402 -0.34312,-0.60248 -1.28139,-0.62598 -1.34983,-0.0338 -1.44357,-0.11914 -0.52558,-0.47918 0.99221,-0.38903 0.88626,-0.58083 -0.94629,-1.71342 -2.06879,-1.27859 -4.55731,-1.70593 -4.55731,-0.78261 0,0.27103 0.92545,0.99114 2.05653,1.60027 1.15969,0.62452 1.93283,1.42983 1.77289,1.84663 -0.34443,0.89757 2.93204,1.04278 3.48115,0.15429 z m -34.79833,-5.65351 c 0,-6.95923 -0.71155,-6.70239 -1.14375,0.41282 -0.24132,3.97269 -0.14147,5.24091 0.41269,5.24082 0.53441,-1.1e-4 0.73106,-1.5208 0.73106,-5.65364 z m 1.5886,1.12093 c -0.13396,-0.88457 -0.24364,-0.16092 -0.24364,1.60834 0,1.76915 0.10964,2.49292 0.24364,1.60832 0.13395,-0.88458 0.13395,-2.33206 0,-3.21666 z m 4.64245,-6.52767 c 0.37127,0.454 0.79601,1.48338 0.94384,2.28756 0.23066,1.25456 0.28013,1.197 0.34848,-0.40548 0.0564,-1.32247 -0.29751,-2.13175 -1.21245,-2.77261 -0.71064,-0.49774 -1.46199,-0.71006 -1.66964,-0.47179 -0.20756,0.23826 -0.21839,3.06502 -0.0239,6.28167 l 0.35374,5.84846 0.29242,-5.79662 c 0.22692,-4.49796 0.44365,-5.61171 0.96744,-4.97119 z m 4.88103,9.0478 c 0,-0.46351 -0.28612,-1.01959 -0.63581,-1.23571 -0.82582,-0.51039 -1.95303,0.61685 -1.44264,1.44265 0.57328,0.92759 2.07845,0.77772 2.07845,-0.2069 z m 17.13386,0.19739 c -0.46257,-0.46258 -0.95139,-0.46762 -1.72529,-0.0177 -0.94664,0.55022 -0.86702,0.62984 0.64545,0.64544 1.25818,0.0133 1.55056,-0.15694 1.07984,-0.62767 z m 8.45868,-1.98924 c 0.0853,-1.47932 -0.10632,-2.62893 -0.43864,-2.62893 -0.32471,0 -0.59037,0.37985 -0.59037,0.84411 0,0.46425 -0.59215,1.26023 -1.31592,1.76886 l -1.31589,0.92476 1.31589,0.34631 c 0.72377,0.19054 1.31592,0.5788 1.31592,0.86293 0,0.28415 0.1974,0.51534 0.43862,0.51375 0.24127,-0.002 0.50692,-1.1859 0.59039,-2.63179 z m 7.08225,1.0542 c 0.1187,-0.065 -0.21021,-0.54445 -0.73106,-1.06526 -0.5208,-0.52078 -0.9469,-1.45444 -0.9469,-2.0748 0,-0.738 -0.40434,-1.1279 -1.16968,-1.1279 -1.37207,0 -1.57306,1.83632 -0.45933,4.1963 0.61019,1.29297 0.87827,1.41251 1.90076,0.84766 0.65471,-0.3617 1.28749,-0.71088 1.40621,-0.776 z m 3.43945,1.16159 c -0.88457,-0.13396 -2.33208,-0.13396 -3.21666,0 -0.88457,0.13395 -0.16092,0.24363 1.60832,0.24363 1.76917,0 2.49292,-0.10964 1.60834,-0.24363 z m 37.56961,-1.03604 c 0.95288,-1.0143 1.38228,-2.19196 1.41785,-3.88845 0.0612,-2.92249 -1.10317,-3.65309 -1.62934,-1.02229 -0.50296,2.51485 -1.37894,3.44593 -3.21624,3.41856 -1.49543,-0.0223 -1.48563,-0.0451 0.36402,-0.84905 1.43104,-0.62197 1.90076,-1.19443 1.90076,-2.31648 0,-2.03488 -1.38778,-1.84578 -4.60205,0.62713 -0.1187,0.0913 0.27612,1.36187 0.87725,2.82355 1.27998,3.11226 2.75554,3.47665 4.88775,1.20703 z m -28.01803,0.28524 c 0.61703,0 1.12185,-0.24545 1.12185,-0.54543 0,-0.91631 -2.34208,-1.35009 -3.24471,-0.60097 -1.13458,0.94162 -1.08378,1.9464 0.0758,1.5014 0.5088,-0.19519 1.42993,-0.355 2.04696,-0.355 z m -7.17142,-0.75023 c 1.10778,-1.33479 1.90326,-3.91186 1.10378,-3.57587 -1.18645,0.49859 -3.40288,4.3261 -2.50516,4.3261 0.42832,0 1.05892,-0.3376 1.40138,-0.75023 z m 41.48906,-0.29765 c 0.50351,0.41549 0.8069,0.49105 0.67418,0.16777 -0.13262,-0.32317 -0.73764,-1.83646 -1.34426,-3.36286 -0.60661,-1.52642 -1.46196,-2.77529 -1.90075,-2.77529 -1.18266,0 -0.96703,1.58532 0.40179,2.95414 0.7802,0.78018 1.0888,1.64926 0.88267,2.4856 -0.1744,0.7073 -0.16224,0.94602 0.027,0.53053 0.28103,-0.6174 0.51121,-0.6174 1.2594,0 z m -78.81378,-0.96455 c 0,-1.14704 -0.72169,-1.5043 -2.23787,-1.10779 -1.53133,0.40045 -1.65602,1.17936 -0.24773,1.54738 1.92302,0.50254 2.4856,0.40305 2.4856,-0.43959 z m 31.96531,-0.61179 c -0.51028,-1.09788 -0.726,-1.22261 -0.8798,-0.50871 -0.15695,0.7283 0.70608,1.87978 1.46463,1.9543 0.0502,0.004 -0.21308,-0.6456 -0.58483,-1.44559 z m -4.49927,-5.45198 c 0.40281,-1.70775 0.57987,-3.25753 0.39341,-3.44396 -0.63773,-0.63776 -1.70688,3.03699 -1.90537,6.54896 -0.21022,3.71889 0.009,3.27051 1.51196,-3.105 z m 9.04051,3.89946 c 1.30951,-2.62499 1.83327,-6.93378 0.84379,-6.94176 -0.4386,-0.004 -1.74543,-0.16313 -2.90408,-0.35491 -2.31796,-0.38342 -2.72282,0.0884 -3.19526,3.7242 -0.1828,1.40641 -0.0199,1.90076 0.62671,1.90076 0.57531,0 0.87367,0.58254 0.87367,1.70579 0,2.8849 2.30943,2.86394 3.75517,-0.034 z m -44.69438,-0.20955 c 0,-1.12585 -0.2632,-2.04696 -0.58486,-2.04696 -0.64852,0 -0.81103,3.08792 -0.19496,3.70402 0.67312,0.67312 0.7798,0.44646 0.7798,-1.65706 z m 21.86425,-0.58486 c 0.43137,-2.01307 -0.40455,-0.89917 -1.09722,1.46212 -0.28176,0.96057 -0.23163,1.2615 0.14611,0.87728 0.3163,-0.32167 0.74426,-1.37439 0.95105,-2.3394 z m 2.11442,1.15509 c 0,-0.81221 0.51254,-2.93496 1.13898,-4.71726 0.69845,-1.98723 0.88296,-3.15521 0.4771,-3.01993 -1.50522,0.50175 -3.58629,9.21392 -2.20092,9.21392 0.32167,0 0.58484,-0.66453 0.58484,-1.47673 z m 2.04698,0.30703 c 0,-0.42887 -0.32898,-0.88944 -0.73106,-1.02348 -0.4349,-0.14501 -0.73106,0.26967 -0.73106,1.02348 0,0.7538 0.29616,1.16844 0.73106,1.02348 0.40208,-0.13396 0.73106,-0.59459 0.73106,-1.02348 z m 4.75015,0.14611 c 0.33124,-1.03643 0.7132,-2.03989 1.90275,-4.99872 1.07027,-2.66214 0.84286,-3.33533 -1.12671,-3.33533 -1.50151,0 -1.92624,0.3395 -2.67916,2.1415 -0.81128,1.94165 -0.7289,5.32689 0.1649,6.77294 0.4828,0.78119 1.40115,0.47456 1.73831,-0.58039 z m -23.51901,-2.19318 c -0.5269,-0.80416 -1.32253,-1.46212 -1.76802,-1.46212 -1.30831,0 -0.92803,1.74479 0.50591,2.32116 2.08314,0.83734 2.28402,0.7006 1.26211,-0.85904 z m 42.34556,0.13196 c 0.66674,-0.80338 0.25104,-5.68804 -0.48408,-5.68804 -0.58683,0 -1.14307,2.18675 -1.15293,4.53256 -0.009,1.99034 0.59229,2.41431 1.63701,1.15548 z m -21.93867,-2.60542 c 0.17993,-0.89127 0.51896,-2.14687 0.75358,-2.7902 0.23459,-0.64333 0.23508,-0.99821 10e-4,-0.78862 -0.63044,0.56459 -2.13916,5.8529 -1.5693,5.50073 0.26821,-0.16578 0.63484,-1.03064 0.8147,-1.92191 z m 11.13026,-1.91292 c 0.23709,-1.30924 0.1828,-1.7308 -0.15076,-1.1697 -0.28678,0.4825 -0.68183,1.92998 -0.87792,3.21666 -0.43294,2.84088 0.46822,1.04759 1.02863,-2.04696 z m 12.5004,0.43862 c -0.13948,-0.72374 -0.25345,-0.13152 -0.25345,1.31592 0,1.44748 0.11405,2.03964 0.25345,1.3159 0.13947,-0.72375 0.13947,-1.90806 0,-2.63182 z m -41.29269,-3.03956 c 0.97266,-1.64854 1.41166,-1.9815 1.83454,-1.39143 0.41293,0.57622 0.47102,0.51194 0.22588,-0.24984 -0.18148,-0.56406 0.32001,-2.24815 1.11453,-3.74241 1.79112,-3.36865 1.98332,-8.79305 0.42016,-11.85858 -1.28674,-2.52346 -3.9933,-4.61536 -4.8557,-3.75297 -0.42781,0.42783 -0.14545,0.9198 0.93358,1.62684 0.85075,0.55743 2.06522,2.18539 2.69879,3.61769 1.63547,3.69725 0.72224,8.1583 -2.1943,10.71908 -1.1176,0.98125 -2.56226,1.78409 -3.21038,1.78409 -1.48111,0 -4.69352,-1.63516 -5.63426,-2.8679 -0.88219,-1.15601 -0.95246,-3.84818 -0.14014,-5.36613 0.40073,-0.74877 0.41481,-1.48699 0.0411,-2.15474 -0.49693,-0.88796 -0.65363,-0.79501 -1.24574,0.73882 -0.37252,0.96499 -0.55588,3.06066 -0.40745,4.65702 0.35865,3.85722 2.882,6.16263 6.74523,6.16263 2.21736,0 2.51281,0.14058 2.15184,1.02347 -1.06983,2.61686 -1.49052,4.97637 -1.0985,6.16097 0.38148,1.15263 0.47932,1.06183 0.88548,-0.82184 0.25115,-1.16471 1.03201,-3.09285 1.73527,-4.28477 z m -13.10758,2.74714 c -0.14722,-0.56291 -0.26747,-0.10234 -0.26747,1.02348 0,1.12584 0.12047,1.58639 0.26747,1.02348 0.14721,-0.56291 0.14721,-1.48405 0,-2.04696 z m 13.27816,1.85292 c 0.63937,-1.66616 0.33575,-2.31528 -0.54087,-1.1563 -0.47228,0.62441 -0.85867,1.34815 -0.85867,1.60834 0,0.83714 1.03285,0.50354 1.39954,-0.45204 z m -4.90861,-1.94008 c 0,-0.28919 -1.05273,-1.07449 -2.3394,-1.74514 -2.79833,-1.45858 -3.14323,-0.67308 -0.43862,0.99896 2.15655,1.33323 2.77802,1.50014 2.77802,0.74618 z m 1.12095,-2.00034 c -0.13395,-0.10278 -1.27933,-0.78055 -2.54512,-1.50626 -1.51926,-0.87107 -2.04039,-1.005 -1.53338,-0.3941 0.82527,0.99441 3.67707,2.58536 4.0785,2.27532 0.13396,-0.10345 0.13396,-0.27224 0,-0.37496 z m 78.3598,-1.42158 c -0.0522,-1.9573 -0.10875,-2.03592 -0.52655,-0.73106 -0.3647,1.13874 -0.48114,1.2142 -0.52655,0.34116 -0.032,-0.61651 -0.20269,-0.97655 -0.37918,-0.80007 -0.47316,0.47315 0.36044,3.38315 0.96913,3.38315 0.28678,0 0.4952,-0.98694 0.46315,-2.19318 z m -89.42314,0.43864 c 0,-0.32166 -0.65796,-0.58483 -1.46212,-0.58483 -0.80416,0 -1.46212,0.26317 -1.46212,0.58483 0,0.32167 0.65796,0.58484 1.46212,0.58484 0.80416,0 1.46212,-0.26317 1.46212,-0.58484 z m 4.09391,0.0626 c 0,-0.52237 -1.37525,-1.23228 -2.38721,-1.23228 -0.29536,0 -0.537,0.39479 -0.537,0.87728 0,0.54585 0.55234,0.87726 1.46211,0.87726 0.80416,0 1.4621,-0.23501 1.4621,-0.52226 z m -7.01815,-2.63182 c 0,-0.88219 -1.42063,-1.66362 -1.98977,-1.09448 -0.77019,0.77019 -0.28093,1.90918 0.82009,1.90918 0.64333,0 1.16968,-0.36662 1.16968,-0.8147 z m 1.75454,-2.34258 c 0,-0.71066 -2.34338,-2.10633 -3.5366,-2.10633 -1.19518,0 -0.47332,1.76119 1.04875,2.55867 1.71428,0.89822 2.48785,0.75757 2.48785,-0.45234 z m 12.28176,-0.35179 c 0,-0.32167 -0.67347,-0.58484 -1.49662,-0.58484 -0.84883,0 -1.34017,0.25314 -1.13517,0.58484 0.19872,0.32166 0.87228,0.58484 1.49662,0.58484 0.62436,0 1.13517,-0.26318 1.13517,-0.58484 z m -12.04644,-2.56973 c -0.20734,-0.54043 -1.13471,-1.37441 -2.06073,-1.85328 -1.5611,-0.80727 -1.68367,-0.79213 -1.68367,0.20801 0,0.63965 0.77355,1.45027 1.90076,1.99187 2.17488,1.04496 2.36398,1.00942 1.84364,-0.34655 z m 9.70707,1.12819 c 0,-0.14943 -0.52635,-0.55354 -1.1697,-0.89784 -0.93358,-0.49965 -1.16968,-0.44478 -1.16968,0.27184 0,0.50794 0.50794,0.89784 1.16968,0.89784 0.64335,0 1.1697,-0.12224 1.1697,-0.27184 z m 6.10771,-1.61283 c 1.24417,-1.77629 1.13898,-4.45903 -0.26514,-6.76203 -1.11882,-1.83502 -3.3018,-3.20363 -4.23426,-2.6546 -0.89759,0.52851 -0.38775,1.26225 1.28146,1.84412 1.30153,0.45372 1.80905,1.07392 2.08575,2.54889 0.43493,2.31831 -0.50581,5.15375 -1.70988,5.15375 -0.47147,0 -1.01988,0.2632 -1.21869,0.58486 -0.21021,0.34028 0.37277,0.58484 1.39444,0.58484 1.15151,0 2.06928,-0.44742 2.66632,-1.29983 z m 41.06759,0.48599 c 0.0524,-0.0349 -0.72615,-1.96937 -1.73002,-4.29882 -1.00389,-2.32948 -2.04618,-4.01447 -2.31621,-3.74445 -0.42516,0.42516 0.18899,2.78244 1.55927,5.98482 0.35734,0.83515 -0.68557,0.90192 -10.30225,0.65975 -5.8849,-0.14832 -10.81271,-0.3722 -10.95068,-0.49775 -0.13794,-0.12555 0.31879,-1.60677 1.01505,-3.29154 0.69625,-1.6848 1.66743,-4.42058 2.15817,-6.07951 0.49074,-1.65894 1.28245,-3.76439 1.75935,-4.67878 0.92751,-1.77834 1.15569,-3.71591 0.43568,-3.69951 -0.60303,0.0133 -7.69585,18.95682 -7.17511,19.16285 1.57553,0.62332 24.68046,1.06013 25.54675,0.48294 z m -48.1322,-2.39946 c -0.18435,-0.48066 -0.57096,-0.72829 -0.85891,-0.55033 -0.82578,0.51035 -0.6106,1.42425 0.33534,1.42425 0.52173,0 0.72726,-0.34308 0.52357,-0.87392 z m 27.25439,-0.84217 c 0.33298,-0.62218 0.60541,-1.8238 0.60541,-2.67026 0,-0.84647 0.27246,-2.04806 0.60544,-2.67026 0.33298,-0.62217 0.39744,-1.13124 0.14324,-1.13124 -0.42058,0 -3.08803,6.20851 -3.08803,7.18743 0,0.85087 1.14947,0.37644 1.73396,-0.71567 z m 5.42172,-1.85896 c 1.52313,-1.19718 3.5446,-2.34694 4.49215,-2.55505 0.94755,-0.20823 2.06789,-0.79421 2.48969,-1.30244 0.67451,-0.81273 0.59133,-0.87111 -0.69066,-0.48468 -0.80163,0.24164 -2.58396,0.92626 -3.96071,1.52138 -1.37675,0.59509 -2.95582,0.93689 -3.50907,0.75953 -0.70527,-0.22611 -0.78699,-0.16424 -0.27339,0.20667 0.54925,0.39682 0.29319,0.95012 -1.02348,2.21155 -1.76037,1.68655 -2.3959,3.08852 -1.02492,2.26093 0.40208,-0.24271 1.97724,-1.42079 3.50039,-2.61794 z m 5.12608,-2.08021 c 0,-0.44555 -3.83485,1.72866 -5.11739,2.90139 -2.50934,2.29446 -1.29994,2.12102 1.90074,-0.27257 1.76917,-1.32309 3.21665,-2.50603 3.21665,-2.62882 z m 2.64579,3.85665 c 0.56371,-1.77609 -0.007,-1.95834 -0.78371,-0.25082 -0.36702,0.80551 -0.4275,1.46457 -0.1344,1.46457 0.29311,0 0.70626,-0.54618 0.91813,-1.21375 z m 2.91025,0.62891 c -0.19872,-0.32166 -0.7407,-0.58483 -1.20421,-0.58483 -0.46351,0 -0.84275,0.26317 -0.84275,0.58483 0,0.32167 0.54189,0.58484 1.2042,0.58484 0.66232,0 1.04156,-0.26317 0.84276,-0.58484 z m -51.48185,-0.55994 c 0.29257,-0.47335 -2.47841,-2.36429 -3.46462,-2.36429 -0.65774,0 -0.29397,2.25301 0.40959,2.5369 1.23506,0.49836 2.69121,0.41609 3.05503,-0.17264 z m 9.78233,-0.14192 c -0.38599,-0.386 -0.70181,-1.954 -0.70181,-3.48445 0,-2.42797 0.28662,-3.08394 2.24883,-5.14663 1.53208,-1.61058 2.79029,-2.39113 3.9477,-2.44904 3.04503,-0.1523 5.7612,0.12997 7.40113,0.76948 1.71241,0.66773 2.16829,1.65493 0.76422,1.65493 -0.79855,0 -2.66496,2.11506 -2.66496,3.02 0,0.23119 1.06393,-0.27624 2.36431,-1.12762 2.73744,-1.79225 2.86602,-3.19426 0.45728,-4.98582 -2.5503,-1.89683 -6.80511,-1.98938 -10.64471,-0.23155 -3.9254,1.79711 -5.62297,4.19818 -5.62615,7.9577 -0.002,2.51736 1.18683,4.72482 2.54481,4.72482 0.37463,0 0.33955,-0.27162 -0.0906,-0.70182 z m 37.44024,-3.09968 c 0.36485,-0.70599 -0.23605,-0.37071 -1.51581,0.84579 -1.16619,1.10851 -2.12032,2.2729 -2.12032,2.58754 0,0.76068 2.86833,-1.94767 3.63613,-3.43333 z m -0.052,2.4856 c 0.63579,-1.19322 0.61046,-1.24107 -0.27184,-0.51324 -0.53517,0.44147 -0.97303,1.03362 -0.97303,1.3159 0,0.89335 0.51972,0.55824 1.24487,-0.80266 z m -42.77414,-1.59578 c 0.40259,-0.97189 0.9632,-1.7671 1.24585,-1.7671 0.28265,0 0.51388,-0.43554 0.51388,-0.9679 0,-0.89974 -0.0756,-0.89954 -1.07233,0.002 -0.58981,0.53375 -1.35482,1.89081 -1.70007,3.0157 -0.74684,2.4335 -0.0296,2.23284 1.01267,-0.28324 z m 8.54457,0.30712 c -0.20557,-0.81915 -0.76357,-1.48935 -1.23994,-1.48935 -0.47635,0 -1.06351,0 -1.30476,0 -0.75527,0 -0.4775,1.4582 0.29242,1.53521 0.4021,0.0402 0.99425,0.10588 1.31592,0.14611 0.32166,0.0402 0.58484,0.51174 0.58484,1.04786 0,0.5361 0.16313,0.81155 0.36266,0.61207 0.19938,-0.19938 0.19452,-1.03287 -0.0111,-1.85199 z m 38.85373,0.88846 c -1.42353,-2.65989 -0.75655,-4.23246 3.60375,-8.49643 5.16889,-5.05475 6.90022,-7.53455 6.91185,-9.90006 0.0177,-3.54643 0.99534,-3.53131 1.42253,0.0221 0.40703,3.38575 1.62693,7.73128 2.67185,9.51767 0.38072,0.65089 0.54511,0.0362 0.55765,-2.08489 0.0133,-2.14627 -0.23349,-3.10429 -0.85947,-3.3445 -1.40201,-0.538 -1.05122,-1.67709 0.37691,-1.22381 1.25416,0.39805 1.25416,0.39805 0,-0.94813 -1.47337,-1.58148 -1.56475,-3.56524 -0.38862,-8.43622 0.46603,-1.93 0.84565,-4.16703 0.84361,-4.97119 -0.004,-1.40087 -0.0455,-1.38371 -1.00263,0.40959 -0.54943,1.02943 -1.23847,1.8703 -1.53117,1.86858 -0.29273,-0.002 -0.85682,0.94101 -1.25352,2.09495 -1.63356,4.75176 -5.04456,7.90865 -8.54522,7.90865 -1.15232,0 -1.66724,0.25128 -1.49801,0.73105 0.15937,0.45195 1.18283,0.68878 2.68053,0.62032 2.75556,-0.12599 2.97906,0.27538 1.10679,1.98734 -2.45135,2.24146 -5.28434,3.29082 -9.01625,3.33974 -3.93348,0.0515 -4.20037,0.24586 -1.24824,0.90875 l 1.93044,0.43347 -1.73988,0.70396 c -0.95692,0.38718 -3.42152,0.64302 -5.47685,0.5685 -3.08337,-0.11184 -3.84036,0.0493 -4.32798,0.92054 -0.53855,0.96234 -0.39516,1.01928 1.61621,0.64196 l 2.20719,-0.41408 -2.25498,2.12673 c -1.70041,1.60367 -2.06299,2.24541 -1.47426,2.60925 0.47728,0.29496 0.59432,0.79211 0.30113,1.27898 -0.38358,0.63694 -0.27591,0.6311 0.5376,-0.0292 0.69174,-0.56145 0.80803,-0.95493 0.36344,-1.22971 -0.84644,-0.52312 2.16626,-1.95023 6.88551,-3.26159 2.01042,-0.55865 3.65529,-1.31889 3.65529,-1.6894 0,-0.37054 1.05273,-1.26537 2.33938,-1.98849 2.33611,-1.31298 3.36787,-0.99395 1.18809,0.36735 -2.68222,1.67507 -3.58713,6.88632 -1.62507,9.35852 0.91901,1.15799 1.71313,0.8531 1.0424,-0.40017 z m 20.07569,0.25398 c 0.20513,-0.53437 10e-4,-0.87726 -0.52228,-0.87726 -0.47239,0 -0.85891,0.39477 -0.85891,0.87726 0,0.4825 0.23503,0.87728 0.52228,0.87728 0.28725,0 0.67374,-0.39478 0.85891,-0.87728 z m -71.56271,-1.73396 c 0,-1.0088 -2.10945,-2.27868 -2.93631,-1.76764 -0.92303,0.57045 -0.66613,1.23086 0.74313,1.91053 1.81285,0.87431 2.19318,0.84953 2.19318,-0.1428 z m 68.93534,-7.47737 -0.0765,-5.40981 -0.52925,4.64115 c -0.49275,4.32104 -0.38108,6.1785 0.37146,6.1785 0.17087,0 0.27635,-2.43443 0.23429,-5.40984 z m 7.00984,4.51649 c 0.11428,-0.11229 0.17993,-3.51883 0.14611,-7.57006 -0.0435,-5.20342 -0.32708,-8.00124 -0.96594,-9.53023 -0.71418,-1.70929 -1.0197,-1.98195 -1.45299,-1.29671 -0.72996,1.15447 -0.71722,2.49196 0.0199,2.03672 1.09833,-0.67882 1.75341,2.69904 1.75341,9.04128 0,5.23504 -0.16026,6.39419 -0.92509,6.68765 -2.34338,0.89925 -2.45843,0.59313 -2.37353,-6.31563 0.0451,-3.66882 -0.1114,-6.36642 -0.3477,-5.99465 -0.23634,0.37175 -0.47107,2.25503 -0.52164,4.18501 -0.0869,3.31418 -0.11517,3.37914 -0.51081,1.1697 -0.31842,-1.77837 -0.4289,-1.07709 -0.46075,2.92423 -0.0272,3.41838 0.1344,4.85356 0.46075,4.09392 0.47082,-1.09565 0.50524,-1.08228 0.54374,0.21132 0.038,1.27458 0.20999,1.34943 2.23427,0.97133 1.20626,-0.22533 2.28662,-0.50157 2.40081,-0.61386 z m -76.53002,-0.60328 c 0,-0.50148 -0.2632,-0.74914 -0.58486,-0.55033 -0.32166,0.19872 -0.58484,0.60911 -0.58484,0.91178 0,0.30268 0.26318,0.55034 0.58484,0.55034 0.32166,0 0.58486,-0.41033 0.58486,-0.91179 z m 4.57544,-0.0418 c -0.27779,-1.40089 -2.35934,-2.61734 -3.38938,-1.98076 -0.6798,0.42014 -0.52995,0.65102 0.73451,1.13177 0.87367,0.33216 1.58851,0.87363 1.58851,1.20325 0,0.32965 0.28247,0.59934 0.62772,0.59934 0.34525,0 0.54264,-0.42913 0.43864,-0.9536 z m 1.35442,-2.57495 c -1.49669,-1.24686 -2.42078,-1.47379 -2.42078,-0.59443 0,0.69735 1.76024,1.74857 2.92421,1.74634 0.60986,-0.001 0.45641,-0.35228 -0.50343,-1.15191 z m 68.93041,-5.89803 c 0,-3.75004 -0.20977,-5.71877 -0.58484,-5.487 -0.32681,0.20203 -0.58484,2.94181 -0.58484,6.20992 0,3.75004 0.20978,5.71877 0.58484,5.48701 0.32682,-0.20204 0.58484,-2.94181 0.58484,-6.20993 z m -30.86669,3.25253 c -1.58482,-1.11006 -1.80111,-2.92324 -0.27635,-2.31659 0.56291,0.22399 1.64804,0.52633 2.41135,0.67191 1.57138,0.29969 1.63816,0.62936 -1.11681,-5.51324 -2.21336,-4.93507 -3.09214,-4.85211 -3.02671,0.28573 0.0517,4.06325 -0.79149,6.54135 -2.45476,7.21395 -0.87695,0.35464 -0.23477,0.50502 2.2701,0.53161 3.32386,0.0351 3.43005,-0.007 2.19318,-0.87337 z m -15.66533,-8.27138 c 3.15801,-2.71644 6.34321,-2.46652 9.55978,0.75004 1.86824,1.86823 1.99567,2.21953 1.63164,4.49808 -0.31627,1.97969 -0.24908,2.32593 0.33766,1.73975 0.69289,-0.69225 0.85584,-3.3284 0.40668,-6.57874 -0.21552,-1.55885 -1.84934,-2.86949 -3.61969,-2.9035 -0.59301,-0.0111 -1.21587,-0.54711 -1.38411,-1.19044 -0.23621,-0.90325 -0.79775,-1.16968 -2.46528,-1.16968 -1.18765,0 -2.67026,0.38639 -3.29464,0.85867 -0.62441,0.47226 -1.58657,0.86703 -2.13816,0.87726 -2.06195,0.0382 -3.36469,5.65546 -2.13781,9.21781 l 0.75951,2.20529 0.39501,-3.48375 c 0.3133,-2.76329 0.71644,-3.76024 1.94941,-4.82079 z m -29.23639,6.20762 c -0.18833,-0.30468 -0.59166,-0.39991 -0.89635,-0.21153 -0.30469,0.18833 -0.39992,0.59166 -0.21154,0.89635 0.18833,0.30469 0.59167,0.39991 0.89635,0.21154 0.30469,-0.18833 0.3999,-0.59167 0.21154,-0.89636 z m 3.4921,0.2798 c 1.38374,-0.53099 1.12463,-1.26632 -0.79624,-2.25964 -2.09665,-1.08422 -2.97683,-0.19209 -1.46194,1.48181 1.16857,1.29125 1.03771,1.24618 2.25818,0.77783 z m 46.5382,-0.37606 c -0.0111,-0.33375 -5.62133,-13.07744 -6.07852,-13.80757 -0.35007,-0.55906 -0.82056,0.12224 -1.58661,2.29751 -1.15168,3.27033 -1.05117,4.69405 0.14589,2.06674 0.38913,-0.85404 0.98791,-1.45935 1.33064,-1.34512 0.34271,0.11428 1.64262,2.62128 2.88869,5.57118 1.2461,2.94992 2.49944,5.36348 2.78521,5.36348 0.28576,0 0.51737,-0.0659 0.51467,-0.14611 z m -42.98129,-1.41252 c -0.96499,-0.50988 -2.21672,-1.33112 -2.78159,-1.825 -0.56488,-0.49388 -1.21256,-0.71247 -1.43927,-0.48577 -0.66735,0.66735 2.92,3.24281 4.51328,3.24022 1.43719,-0.002 1.43221,-0.0177 -0.29242,-0.92945 z m 8.15883,-0.45042 c -1.48643,-2.26857 -0.89792,-4.54586 1.48166,-5.73335 l 2.03747,-1.01678 -2.76853,0.12047 c -2.76853,0.12046 -2.76853,0.12046 -2.76853,2.3327 0,1.57648 -0.2521,2.21218 -0.87728,2.21218 -0.4825,0 -0.87726,0.26318 -0.87726,0.58484 0,1.02048 2.29329,2.92424 3.52256,2.92424 1.11923,0 1.13274,-0.0769 0.24991,-1.42432 z m 2.95518,0.25776 c -0.19761,-0.31994 -0.937,-0.86114 -1.64282,-1.2027 -1.21585,-0.58835 -1.21072,-0.55776 0.0973,0.5817 1.49008,1.29799 2.12041,1.55127 1.54548,0.621 z m 11.70142,-2.08013 c 0.92109,-2.30936 0.92109,-2.30936 -0.26072,-0.84724 -0.65001,0.80415 -1.18767,1.96654 -1.19481,2.58307 -0.0177,1.48376 0.34248,1.05478 1.45553,-1.73583 z m -7.317,0.69469 c 0,-2.28177 -1.42311,-6.53605 -2.47948,-7.41218 -1.65867,-1.37571 -6.84273,-2.60006 -8.86254,-2.09311 -1.78502,0.44801 -2.06475,2.1149 -0.35491,2.1149 0.64335,0 1.1697,0.30398 1.1697,0.67549 0,0.3745 0.55928,0.17905 1.25513,-0.43864 0.90275,-0.8013 1.32693,-0.90886 1.51086,-0.38307 0.14058,0.40208 0.77743,0.73106 1.41512,0.73106 2.97798,0 4.60542,2.75187 2.3984,4.05552 -0.93407,0.55175 -0.90851,0.63687 0.29242,0.97454 0.72376,0.20358 1.31592,0.73407 1.31592,1.17905 0,0.44498 0.52635,0.80904 1.16968,0.80904 0.64335,0 1.1697,-0.0957 1.1697,-0.21264 z m 1.21932,-2.77293 c -0.30818,-0.77045 -0.57701,-1.09335 -0.59742,-0.71757 -0.0495,0.91271 0.63179,2.64437 0.92503,2.35113 0.12798,-0.12798 -0.0199,-0.86311 -0.32761,-1.63356 z m 47.84063,0.7615 c 0.88804,0.22369 3.08818,-5.75586 2.83993,-7.71833 -0.13285,-1.04959 -0.55705,-0.26576 -1.50365,2.77801 -0.72529,2.33206 -1.57074,4.24014 -1.87879,4.24014 -0.30805,0 -0.56008,-1.71632 -0.56008,-3.81405 0,-3.50077 0.12002,-3.86876 1.46212,-4.48021 1.3874,-0.63215 2.00007,-1.64813 0.99386,-1.64813 -1.29064,0 -3.59374,1.5483 -3.33346,2.24101 0.16092,0.42839 0.29666,2.79701 0.30159,5.26362 0.004,2.58968 0.21309,4.16277 0.49224,3.72278 0.26579,-0.41906 0.79961,-0.68223 1.18624,-0.58484 z m -62.8417,-0.63891 c 0.17794,-0.28795 -0.0913,-0.68274 -0.59817,-0.87726 -1.46006,-0.56028 -1.99576,-0.41976 -1.99576,0.52355 0,0.94158 2.05723,1.22211 2.59393,0.35371 z m 59.23379,-4.00899 c -0.13395,-0.88457 -0.24365,-0.16092 -0.24365,1.60832 0,1.76917 0.10963,2.49291 0.24365,1.60834 0.13396,-0.8846 0.13396,-2.33208 0,-3.21666 z m -57.60921,2.34959 c -0.41397,-0.14766 -1.53247,-0.92447 -2.48559,-1.72646 -0.9531,-0.802 -1.73292,-1.20719 -1.73292,-0.90045 0,0.69125 4.27612,3.61352 4.67875,3.1974 0.16092,-0.16622 -0.0462,-0.42294 -0.46024,-0.57049 z M 295.406,173.29363 c -0.67984,-0.67986 -1.11811,-0.76386 -1.57927,-0.30268 -0.46119,0.46119 -0.26033,0.90306 0.72383,1.59241 1.63146,1.14271 2.292,0.14677 0.85544,-1.28973 z m 11.33245,1.61398 c 0.64067,-0.43356 0.40406,-0.48783 -0.87728,-0.20115 -2.15043,0.48101 -2.61726,0.81576 -1.12096,0.8038 0.61653,-0.004 1.51574,-0.27611 1.99824,-0.60261 z m 78.43736,-2.7513 c -0.5949,-2.11636 -1.01166,-2.89727 -1.12432,-2.10677 -0.16556,1.16225 1.27195,5.46963 1.82553,5.46963 0.13418,0 -0.18125,-1.51329 -0.70121,-3.36286 z m -26.69173,-4.92813 c -2.43329,-4.88857 -3.48372,-7.3163 -7.32761,-16.9355 -1.16521,-2.91586 -3.26606,-6.89335 -4.10766,-7.77695 -0.76247,-0.80051 -4.96518,8.55759 -10.77445,23.99138 -0.84564,2.24672 -1.16339,3.74595 -0.7658,3.61341 0.37374,-0.12467 1.26678,-1.92163 1.98453,-3.99345 0.71775,-2.0718 2.27768,-6.13557 3.4665,-9.03056 1.18882,-2.89497 2.53839,-6.28219 2.99902,-7.52711 1.25195,-3.38354 2.50918,-5.63191 3.14922,-5.63191 0.31342,0 0.56983,0.39763 0.56983,0.88364 0,0.83106 0.4502,1.92844 3.88147,9.46116 0.76019,1.66881 1.38214,3.18752 1.38214,3.37488 0,0.18744 1.0281,2.5065 2.28467,5.15362 1.25657,2.64713 3.0079,6.39204 3.89186,8.32202 1.00416,2.19243 1.696,3.14124 1.84386,2.52868 0.13019,-0.53921 -0.98475,-3.43421 -2.47758,-6.43331 z m 24.55708,1.81992 c 0.40506,-1.37239 0.38915,-1.3817 -0.4363,-0.25466 -0.47117,0.64332 -1.03004,2.09083 -1.24191,3.21665 l -0.38524,2.04696 0.82151,-1.79229 c 0.45184,-0.98577 1.01071,-2.43328 1.24194,-3.21666 z m -53.21339,1.77275 c 0.26147,0.42306 0.65318,0.46298 1.08762,0.11097 0.37346,-0.30268 1.18086,-0.64443 1.79424,-0.75944 0.76565,-0.14368 1.559,-1.40076 2.531,-4.01065 1.89008,-5.075 1.90774,-5.55606 0.20402,-5.55606 -1.77025,0 -2.93829,2.78627 -1.87905,4.48236 0.57065,0.91375 0.48751,1.0737 -0.55807,1.0737 -0.67575,0 -1.89777,0.52635 -2.71564,1.16968 -0.81786,0.64332 -1.85281,1.1697 -2.29989,1.1697 -0.83493,0 -1.95362,2.26128 -1.95362,3.94899 0,0.72019 0.40706,0.55863 1.69037,-0.67089 1.12149,-1.07445 1.82793,-1.39695 2.09904,-0.95827 z m 48.19403,-0.71152 c -0.0374,-1.36706 -0.18877,-2.0218 -0.33667,-1.45495 -0.14788,0.56687 -0.51212,0.88031 -0.80944,0.69655 -0.71298,-0.44065 -0.68186,-0.0453 0.13815,1.75439 0.93007,2.04125 1.08663,1.88654 1.00796,-0.99599 z m -14.64718,0.41112 c 1.14121,-2.50467 0.89187,-3.26254 -0.9296,-2.82558 -2.16263,0.51883 -2.1621,0.51782 -1.32368,2.54194 0.89574,2.16248 1.37003,2.22218 2.25328,0.28364 z m 9.99515,-1.03046 c 0.0226,-0.26023 -0.22208,-0.3105 -0.54374,-0.11163 -0.32167,0.19872 -0.56634,0.93809 -0.54373,1.64285 0.0396,1.23541 0.059,1.23941 0.54373,0.11163 0.27646,-0.64333 0.52113,-1.38261 0.54374,-1.64283 z m -47.85212,-1.29381 c 0.3662,-1.45432 1.42271,-3.68908 2.3478,-4.96611 1.93122,-2.66597 2.00115,-2.9169 0.81302,-2.9169 -1.85704,0 -5.37544,7.18868 -4.64493,9.49035 0.49695,1.5657 0.75568,1.28548 1.48411,-1.60734 z m -4.15806,-0.5869 c 0,-0.16888 -0.62531,-0.54465 -1.38957,-0.83521 -0.89331,-0.33964 -1.5199,-1.1699 -1.75454,-2.32492 -0.20071,-0.98812 -0.52021,-2.54369 -0.70993,-3.45683 -0.21331,-1.02619 -0.0429,-1.97542 0.44622,-2.48559 0.43515,-0.45394 1.25953,-1.55693 1.83195,-2.45107 1.04076,-1.62572 1.04076,-1.62572 -0.58384,-1.21796 -2.14015,0.53714 -6.75403,3.26679 -7.05673,4.17486 -0.13837,0.41502 0.28455,0.71577 1.00644,0.71577 0.68475,0 1.92231,0.67728 2.7501,1.50509 1.19801,1.19799 1.44174,1.89545 1.19456,3.41849 -0.2912,1.7945 -0.17749,1.9508 1.8312,2.51493 1.17794,0.33084 2.2075,0.63477 2.28792,0.67542 0.0805,0.0407 0.14611,-0.0641 0.14611,-0.23298 z m -20.46962,-0.8283 c 0,-0.69003 -1.14065,-1.42818 -1.55958,-1.00924 -0.41894,0.41892 0.31921,1.55958 1.00927,1.55958 0.30268,0 0.55031,-0.24764 0.55031,-0.55034 z m 13.68986,-1.20984 c 0.75233,-0.75064 -0.7099,-2.33374 -2.15555,-2.33374 -1.22587,0 -5.101,2.62115 -5.101,3.4503 0,0.59627 6.54998,-0.41156 7.25655,-1.11656 z m 8.74351,0.30401 c 0.18922,-0.49324 -0.29109,-1.49676 -1.10712,-2.31279 -0.79282,-0.79282 -1.44147,-1.76546 -1.44147,-2.16144 0,-1.13977 2.43312,-3.42713 3.64553,-3.42713 0.60625,0 0.93961,-0.26318 0.7408,-0.58484 -0.19872,-0.32166 -1.01941,-0.58486 -1.82357,-0.58486 -0.82582,0 -1.3048,-0.25451 -1.10064,-0.58484 0.19872,-0.32166 0.0919,-0.58484 -0.23734,-0.58484 -0.79096,0 -1.80964,1.95368 -1.80964,3.47062 0,0.68402 -0.3806,1.20814 -0.87726,1.20814 -1.12609,0 -1.10785,0.77367 0.0732,3.09948 1.73933,3.42554 3.21413,4.34787 3.93761,2.4625 z m 39.28578,-1.08624 c 1.47322,-2.1033 1.10602,-3.30604 -1.00937,-3.30604 -1.95063,0 -5.1494,-2.42943 -5.1494,-3.91092 0,-0.42232 -0.26318,-0.76786 -0.58484,-0.76786 -0.95144,0 -0.69587,0.98665 1.43391,5.5357 1.72474,3.68392 2.19585,4.26562 3.23454,3.994 0.66868,-0.17485 1.6025,-0.87005 2.07516,-1.54488 z m 14.16462,-0.56043 c 0.40208,-0.30219 0.73106,-1.60217 0.73106,-2.88883 0,-2.06342 -0.10875,-2.24914 -0.92184,-1.57432 -0.76397,0.63404 -1.01283,0.62127 -1.45317,-0.0745 -0.43349,-0.68508 -0.53296,-0.64653 -0.54027,0.20933 -0.004,0.57701 -0.33791,1.00641 -0.74002,0.9542 -1.45752,-0.18921 -2.25504,0.0553 -1.92454,0.58999 0.18568,0.30049 1.28929,0.39191 2.4524,0.20314 1.65343,-0.26833 2.05613,-0.16424 1.84611,0.47715 -0.14787,0.45117 -1.03842,1.08349 -1.97925,1.40515 -2.3703,0.81039 -3.17273,1.39888 -3.17273,2.32687 0,0.64883 0.45878,0.6227 2.4856,-0.14147 1.36709,-0.51548 2.81457,-1.18447 3.21665,-1.48668 z m -10.41785,0.44825 c 0.90495,0.55931 0.76488,-1.47403 -0.17662,-2.56296 -0.65663,-0.75949 -0.66647,-1.23464 -0.0555,-2.67786 l 0.74282,-1.75454 0.41565,2.20748 c 0.45672,2.42561 2.39216,4.26529 3.51071,3.33697 0.37317,-0.3097 0.78873,-0.4996 0.92346,-0.42197 0.13461,0.0776 -0.3588,-0.34775 -1.09671,-0.94528 -0.73791,-0.59752 -2.40874,-3.03069 -3.71295,-5.40702 -2.56011,-4.66463 -3.04442,-5.18738 -4.34398,-4.68868 -0.69165,0.26541 -0.5313,0.95478 0.86225,3.70711 1.50434,2.97119 1.65122,3.70015 1.21161,6.01289 -0.27516,1.44748 -0.69518,3.15816 -0.9334,3.80149 -0.42344,1.14344 -0.40551,1.14545 0.79885,0.0889 0.67761,-0.59443 1.51177,-0.90787 1.85372,-0.69655 z m 22.84584,0.60763 c 0,-0.48249 -0.26318,-0.87726 -0.58486,-0.87726 -0.32167,0 -0.58484,0.39477 -0.58484,0.87726 0,0.4825 0.26317,0.87728 0.58484,0.87728 0.32168,0 0.58486,-0.39478 0.58486,-0.87728 z m -85.70746,-3.67408 c 0.39856,-1.29526 0.36545,-1.28947 -1.12032,0.19628 -1.10078,1.1008 -1.42156,1.87583 -1.14152,2.75813 0.38153,1.20206 0.40438,1.19805 1.1203,-0.19629 0.40197,-0.78287 0.91565,-2.02404 1.14154,-2.75812 z m 83.25716,1.81855 c -0.0999,-1.18139 -0.53811,-2.26524 -0.97394,-2.40859 -0.58106,-0.19098 -0.68254,0.0858 -0.38042,1.03754 0.38053,1.19892 0.27346,1.26771 -1.40073,0.89998 -2.37088,-0.52071 -2.54026,1.08617 -0.20447,1.93927 2.81277,1.0273 3.15603,0.85701 2.95954,-1.4682 z m -60.83732,-3.55428 c -0.86536,-1.04773 -1.87717,-0.9042 -3.0924,0.43862 -1.02182,1.12909 -1.02121,1.21096 0.0177,2.35911 1.07642,1.18944 1.07642,1.18944 2.3774,-0.43862 0.93309,-1.16771 1.13024,-1.83477 0.69715,-2.35911 z m 11.84174,-1.58356 c -0.91592,-1.10361 -4.9126,-1.25361 -4.55605,-0.17109 0.1324,0.40208 0.87809,0.81912 1.65705,0.92677 0.77898,0.10765 1.66632,0.43663 1.97192,0.73106 0.93293,0.8989 1.77982,-0.45935 0.92708,-1.48685 z m 23.48355,0.82971 c -0.85332,-0.79499 -1.27998,-1.88588 -1.27998,-3.27263 0,-7.75798 9.45707,-9.15907 19.01225,-2.81672 3.12795,2.07623 5.87381,3.34635 8.67072,4.01078 2.38973,0.56769 1.41822,-0.6548 -1.42421,-1.79211 -1.26454,-0.50597 -3.36603,-2.13195 -4.66993,-3.61328 -2.1073,-2.39402 -2.32846,-2.92269 -1.99004,-4.75764 0.20933,-1.1354 0.93162,-2.65651 1.60498,-3.38025 1.22202,-1.31347 1.22207,-1.3159 0.0325,-1.3159 -0.65553,0 -1.89115,0.69927 -2.74581,1.55394 l -1.55395,1.55392 -1.62832,-1.82384 c -1.61481,-1.80869 -6.01892,-4.19294 -7.70509,-4.1713 -0.48249,0.007 0.30706,0.59258 1.75454,1.30306 2.11601,1.03862 2.99515,1.97953 4.48565,4.80088 1.01959,1.92998 1.87494,3.70646 1.90074,3.94771 0.0855,0.80031 -1.86005,0.45372 -2.52042,-0.44901 -0.37254,-0.50928 -2.02041,-1.03983 -3.86597,-1.24472 -1.76915,-0.19651 -4.03726,-0.84969 -5.0402,-1.45175 -2.06544,-1.23986 -3.1442,-1.44214 -2.09491,-0.39284 1.19267,1.19267 0.79848,1.88071 -1.89669,3.31049 -2.08957,1.10854 -2.76988,1.88148 -3.47357,3.94672 -0.7562,2.21929 -0.76073,2.5682 -0.0334,2.5682 0.46309,0 0.84178,0.5481 0.84178,1.21842 0,0.67014 0.30354,1.11725 0.67456,0.99357 0.371,-0.12356 1.28018,0.38077 2.02037,1.12096 0.74021,0.74019 1.53899,1.34581 1.77511,1.34581 0.2361,0 -0.14677,-0.53661 -0.85069,-1.19247 z m 26.79263,0.91508 c 0,-0.50341 -3.43023,-2.0623 -4.50351,-2.04665 -0.58018,0.009 -0.002,0.51214 1.28685,1.12235 2.46151,1.16479 3.21666,1.38179 3.21666,0.9243 z m 2.42081,-0.91176 c -1.46029,-1.21654 -3.34263,-1.58379 -2.6879,-0.52441 0.40018,0.64753 2.45764,1.62613 3.48375,1.65704 0.32166,0.009 -0.0365,-0.50001 -0.79585,-1.13263 z m 4.0125,-0.2426 c 0,-0.46581 -1.31983,-2.43283 -2.93294,-4.37119 -1.61314,-1.93836 -3.20968,-4.25212 -3.5479,-5.14169 -2.00597,-5.27615 4.22153,-10.57475 8.72296,-7.42182 2.6955,1.888 0.52646,6.77973 -2.24011,5.05199 -1.18168,-0.73798 -1.51716,-0.37523 -0.72412,0.78293 0.94789,1.38429 2.47727,1.36303 4.00811,-0.0557 1.1388,-1.0554 1.93115,-1.33621 3.00779,-1.06599 1.84123,0.46212 1.57815,-0.97257 -0.33696,-1.83765 -1.62646,-0.73468 -1.62951,-1.33656 -0.009,-1.57518 2.64596,-0.38932 1.49486,-1.41561 -3.04873,-2.71809 -4.70694,-1.34932 -4.70694,-1.34932 -7.20484,-0.14014 -1.37386,0.66508 -2.74551,1.20922 -3.04814,1.20922 -0.88634,0 -2.02105,4.45086 -1.63139,6.39914 0.4288,2.144 -0.5004,2.38129 -1.42014,0.36267 -0.83131,-1.82452 -2.80578,-2.97062 -3.22694,-1.87309 -0.40537,1.05635 0.04,1.59084 3.18074,3.81706 1.48968,1.05593 4.1053,3.60839 5.81251,5.67215 3.00562,3.63337 4.63806,4.65596 4.63806,2.90538 z m -95.43543,-1.34627 c 0.14213,-1.00095 -0.10279,-1.3159 -1.02348,-1.3159 -1.53688,0 -1.55522,-1.26117 -0.0382,-2.63396 1.57224,-1.42286 3.8358,-0.4237 4.97433,2.19572 0.70955,1.63248 0.8292,1.71077 0.84885,0.55542 0.0524,-3.08118 -3.35719,-6.9134 -4.83562,-5.43497 -1.24185,1.24185 -2.15963,0.68205 -2.15963,-1.31729 0,-1.948 0.69353,-2.84325 3.35492,-4.33079 1.71628,-0.95926 1.55863,-1.00267 3.93532,1.08407 1.9283,1.69309 2.06729,1.73157 2.06729,0.57231 0,-0.79846 -0.57505,-1.48977 -1.60832,-1.93354 -2.1909,-0.94092 -2.16086,-0.89788 -1.32763,-1.90187 1.0855,-1.30794 4.09791,-1.10256 5.68404,0.38752 1.02204,0.96017 1.52814,1.11211 2.03062,0.60964 0.50248,-0.5025 0.48269,-0.89411 -0.0793,-1.57134 -0.87384,-1.0529 -7.31763,-1.28544 -7.93509,-0.28634 -0.20933,0.33864 -0.68539,0.50939 -1.05798,0.37947 -1.60463,-0.55956 -6.80828,5.49641 -6.81535,7.93163 -0.002,0.56729 0.32598,1.56882 0.72805,2.22563 0.61689,1.00772 0.57125,1.285 -0.29241,1.77567 -1.29506,0.73572 -1.30795,2.16387 -0.0323,3.57347 1.31287,1.45071 3.34122,1.13104 3.58202,-0.56455 z m 76.38848,0.40745 c 0.3147,-0.30767 -0.27553,-0.29781 -1.39532,0.0234 -1.0674,0.30615 -2.10237,0.73334 -2.29994,0.94934 -0.54152,0.59207 3.06612,-0.35754 3.69526,-0.97266 z m -11.94989,0.29456 c 0,-0.17683 -0.42136,-1.13625 -0.93632,-2.13212 -0.69735,-1.3485 -1.06068,-1.60945 -1.42353,-1.02235 -0.26797,0.43355 -0.41355,0.93245 -0.32354,1.10864 0.09,0.17618 0.32757,0.78091 0.5279,1.34382 0.32462,0.91216 2.15549,1.50845 2.15549,0.70201 z m 35.67559,-0.18236 c 0,-0.27705 -0.65793,-0.37796 -1.46209,-0.22425 -0.80418,0.15363 -1.46212,0.38042 -1.46212,0.50376 0,0.12335 0.65794,0.22423 1.46212,0.22423 0.80416,0 1.46209,-0.22668 1.46209,-0.50374 z m -24.85749,-1.87797 c 2.09167,-0.98826 3.80304,-1.99224 3.80304,-2.23106 0,-1.29333 -10.01257,-4.33793 -12.29932,-3.73994 -1.06614,0.27881 -1.10378,0.41864 -0.34005,1.26268 0.47237,0.52204 1.39468,2.19925 2.04956,3.72718 0.68069,1.58806 1.57472,2.77801 2.08721,2.77801 0.49306,0 2.60786,-0.80858 4.69956,-1.79687 z m -62.22762,-5.11425 c 0.35446,-1.06696 0.50601,-2.07843 0.33674,-2.24769 -0.41437,-0.41437 -3.89586,5.71061 -3.87623,6.81944 0.023,1.29593 2.76804,-2.24973 3.53949,-4.57175 z m 44.29696,-1.93241 c -1.15405,-0.73148 -1.66007,-0.62229 -1.66007,0.35824 0,0.47978 -0.5099,1.19077 -1.13313,1.57996 -1.07565,0.67178 -1.08383,0.79114 -0.16115,2.35319 l 0.97202,1.6455 1.38252,-2.72035 c 1.11272,-2.18944 1.22976,-2.8172 0.59976,-3.21654 z m 29.75908,4.31091 c -0.51079,-0.56291 -1.80166,-1.52518 -2.86866,-2.13838 l -1.94,-1.1149 1.46212,1.61749 c 1.21444,1.3435 2.91228,2.44596 4.03837,2.6222 0.13019,0.0199 -0.18104,-0.4235 -0.69183,-0.98641 z m 9.53651,-1.1697 1.27105,-1.60832 -1.51462,-0.18435 c -2.77446,-0.33786 -4.34285,-4.34789 -2.34806,-6.00342 0.78745,-0.65352 1.02122,-0.6189 1.49116,0.22082 0.62596,1.11851 1.98644,1.31665 2.56893,0.37414 0.60533,-0.97945 -1.50951,-2.88872 -3.18387,-2.87437 -1.87802,0.0155 -3.92561,1.56079 -4.62723,3.49077 -0.92368,2.54086 2.07631,8.19316 4.34858,8.19316 0.39766,0 1.29501,-0.72377 1.99406,-1.60834 z m -59.28742,-0.42177 c 1.48973,-1.04344 2.00841,-3.35444 1.3025,-5.80336 -0.41326,-1.43374 -0.31972,-1.96665 0.44399,-2.52912 0.86437,-0.63661 0.79861,-0.77686 -0.61676,-1.31497 -0.8714,-0.3313 -2.86323,-1.15253 -4.4263,-1.82494 -2.33687,-1.00531 -3.55187,-1.16022 -6.83629,-0.87171 -2.19687,0.19297 -4.97852,0.4204 -6.18139,0.50539 -2.31767,0.1638 -4.35243,1.63863 -3.70528,2.68576 0.26556,0.42964 1.1079,0.33762 2.68478,-0.29333 1.68462,-0.67403 3.77261,-0.86517 7.82406,-0.71618 4.85548,0.1786 5.70539,0.37164 7.00217,1.59079 3.28332,3.08681 2.95036,7.21603 -0.60995,7.56419 -1.36877,0.13396 -2.06696,-0.15738 -2.76469,-1.15361 -0.76485,-1.09198 -0.93345,-1.14918 -0.93345,-0.31668 0,1.07277 3.17988,3.33228 4.69485,3.33599 0.49134,0.001 1.44614,-0.38499 2.12176,-0.85822 z m -7.28449,-0.42624 c -0.38599,-0.38601 -0.70181,-1.45646 -0.70181,-2.37881 0,-1.46555 -0.16601,-1.62746 -1.3159,-1.28425 -0.72375,0.21596 -1.97386,0.81636 -2.77802,1.33411 l -1.46212,0.94139 2.04696,0.34617 c 1.12582,0.19032 2.57333,0.6525 3.21666,1.02691 1.51948,0.88429 1.86915,0.88937 0.99423,0.0155 z m 5.62414,-3.53832 c 0.16666,-1.44826 0.004,-1.60834 -1.62669,-1.60834 -2.05191,0 -2.89276,1.28504 -1.74543,2.66749 1.18816,1.43164 3.15664,0.81336 3.37212,-1.05915 z m 19.40982,-1.60834 c 0.28229,0 0.68596,0.27942 0.89702,0.62093 0.21109,0.34149 1.04814,0.87353 1.86019,1.18226 1.80306,0.68552 3.47705,-0.33813 2.49265,-1.52426 -0.84631,-1.01974 -5.67975,-2.98451 -8.32383,-3.38361 -2.02296,-0.30533 -2.14738,-0.24376 -1.59466,0.789 0.32971,0.61607 1.25129,1.77195 2.04793,2.5686 0.79666,0.79664 1.49059,1.92098 1.54205,2.49853 0.0515,0.57752 0.19982,0.19474 0.32948,-0.85069 0.12976,-1.04541 0.46685,-1.90076 0.74917,-1.90076 z m -27.78273,-2.34305 c 3.907,-1.20661 3.5801,-1.6727 -0.95332,-1.35924 -5.15773,0.35663 -7.739,1.61042 -8.00553,3.88852 l -0.18612,1.59114 3.40282,-1.69897 c 1.87153,-0.93444 4.45554,-2.02408 5.74219,-2.42145 z m 46.28938,2.52709 c -0.68848,-0.68851 -4.64842,-1.89112 -7.39713,-2.24647 -2.26245,-0.29251 -2.46765,-0.23771 -1.46212,0.39034 1.98387,1.23915 9.90101,2.89789 8.85925,1.85613 z m -11.93132,-1.80348 c -0.2122,-1.44653 -0.48718,-1.626 -2.57446,-1.68073 l -2.33674,-0.0612 2.52952,1.67821 c 1.39125,0.92304 2.54974,1.67936 2.57445,1.68073 0.0248,0.001 -0.0621,-0.72624 -0.19275,-1.61693 z m 23.57319,0.39879 c 0.21618,-0.34969 0.11118,-0.91753 -0.23314,-1.26188 -0.72982,-0.72982 -2.62841,0.51893 -2.0968,1.37912 0.44516,0.72025 1.85622,0.64925 2.32994,-0.11715 z m -39.15207,-2.64407 c 0.48493,-1.16059 0.79569,-2.19614 0.69061,-2.30122 -0.105,-0.10522 -1.56939,0.25825 -3.25399,0.80743 l -3.06292,0.9985 1.30272,1.30275 c 1.91466,1.91466 3.29382,1.6571 4.32358,-0.80746 z m 25.86082,0.57395 c -1.82043,-1.82046 -6.81389,-2.8511 -16.908,-3.48983 -6.18824,-0.39158 -6.49401,-0.3576 -6.29054,0.69892 0.17308,0.89886 0.76965,1.12693 3.13007,1.19676 6.41598,0.18987 17.31717,1.60929 18.75142,2.4417 2.17001,1.25944 2.93303,0.76841 1.31705,-0.84755 z m 9.23458,65.97151 c -0.3674,-2.76971 -0.0626,-4.78011 0.72487,-4.78179 0.2069,-4.4e-4 0.35022,1.38126 0.31864,3.07046 -0.0471,2.52083 -0.0155,2.62579 0.17816,0.58564 0.12953,-1.3671 0.43857,-2.4856 0.68654,-2.4856 0.5445,0 2.99413,2.54289 2.99413,3.10812 0,0.91387 -1.76132,0.31716 -1.83752,-0.62252 -0.0455,-0.56291 -0.24304,0.0267 -0.43864,1.31024 -0.22712,1.49041 -0.69693,2.39859 -1.30009,2.51325 -0.72744,0.13837 -1.03219,-0.48166 -1.32618,-2.6978 z m 20.14917,-5.15705 c -0.0223,-0.68933 -0.42536,-1.40091 -0.89547,-1.58133 -0.65005,-0.24943 -0.35969,-0.83776 1.21247,-2.45664 1.13696,-1.17076 2.23772,-1.95814 2.44612,-1.74974 0.20844,0.20844 0.0842,0.562 -0.27591,0.78574 -0.36015,0.22377 -1.05794,1.72276 -1.55065,3.33107 -0.4927,1.60834 -0.91415,2.36022 -0.93656,1.6709 z m -15.64973,-2.48416 c -0.95769,-0.8012 -1.11242,-1.23889 -0.61408,-1.73721 0.36638,-0.3664 1.03745,-0.66618 1.49125,-0.66618 0.52699,0 0.34384,-0.3897 -0.50692,-1.07861 -1.3903,-1.12578 -1.96723,-4.18501 -0.78924,-4.18501 0.37332,0 1.00639,-0.39476 1.40684,-0.87726 0.61678,-0.74317 0.48526,-0.87728 -0.86042,-0.87728 -1.11808,0 -1.68289,0.36101 -1.9073,1.21913 -0.21242,0.81269 -0.46183,0.98771 -0.74781,0.52498 -0.23594,-0.38177 -0.0283,-1.49744 0.46149,-2.47923 0.79267,-1.58891 0.96829,-1.67874 1.59813,-0.8174 0.38917,0.53223 1.05785,0.96769 1.48595,0.96769 0.48285,0 0.34735,-0.32005 -0.3569,-0.84302 -0.9084,-0.67456 -1.00586,-1.05438 -0.48773,-1.90074 0.35614,-0.58176 1.07989,-1.14284 1.60831,-1.24684 0.7472,-0.147 0.96082,0.27553 0.96082,1.90076 0,1.1494 0.26317,2.08984 0.58483,2.08984 0.32167,0 0.58484,-0.52638 0.58484,-1.1697 0,-1.39442 0.89811,-1.55136 1.39954,-0.24459 0.6749,1.75869 0.36285,2.58399 -0.97697,2.58399 -1.87509,0 -3.93164,1.59434 -3.93164,3.04802 0,1.15181 0.0657,1.16775 1.06954,0.25926 0.58824,-0.53234 1.70675,-0.96389 2.4856,-0.95896 1.08844,0.007 1.21954,0.13329 0.56671,0.54627 -0.46713,0.29551 -1.03172,0.42458 -1.25462,0.28683 -0.62421,-0.38579 -1.07017,1.24118 -0.71378,2.60403 0.17551,0.67074 0.59691,1.04773 0.93666,0.83776 0.37498,-0.23175 0.48172,-0.0274 0.27164,0.52014 -0.19032,0.49606 -0.0508,1.19719 0.31001,1.55805 0.48491,0.48492 0.40918,0.65612 -0.2903,0.65612 -0.52053,0 -1.29691,0.12379 -1.72529,0.27509 -0.4284,0.15142 -1.35502,-0.20689 -2.05916,-0.79593 z m 7.65748,-3.81558 c 0.0427,-1.96389 0.22719,-2.43991 0.77094,-1.9888 0.53636,0.44501 0.81056,-0.004 1.09823,-1.80447 0.23278,-1.45573 0.69863,-2.39753 1.1859,-2.39753 0.99145,0 0.99112,0.0221 -0.0316,2.10332 -0.45877,0.934 -1.01443,2.68511 -1.23479,3.89135 -0.32125,1.75852 -0.22211,2.19318 0.50022,2.19318 0.59215,0 1.23175,-1.13825 1.86647,-3.32159 0.70315,-2.41877 1.1094,-3.09437 1.49466,-2.4856 0.83444,1.31855 0.63477,3.30895 -0.37065,3.69476 -0.60983,0.23404 -0.79277,0.74538 -0.54542,1.52469 0.33411,1.05261 0.10809,1.17258 -2.20892,1.17258 h -2.58109 l 0.0562,-2.58189 z m -10.44027,0.29244 c -0.18833,-0.30468 -0.0931,-0.70802 0.21154,-0.89633 0.30469,-0.18833 0.70805,-0.0931 0.89636,0.21154 0.18833,0.30469 0.0931,0.70805 -0.21154,0.89635 -0.30469,0.18833 -0.70805,0.0931 -0.89636,-0.21154 z m -5.75636,-3.55901 c -0.16822,-0.64335 -0.0674,-1.1697 0.2242,-1.1697 0.29156,0 0.53011,0.11008 0.53011,0.24459 0,0.13461 0.15981,0.6609 0.355,1.1697 0.19518,0.5088 0.0944,0.92509 -0.22423,0.92509 -0.31855,0 -0.71685,-0.52635 -0.88508,-1.16968 z m 24.73298,-1.49664 c 0,-0.50149 0.2632,-0.74912 0.58486,-0.55034 0.32166,0.19872 0.58484,0.60911 0.58484,0.91181 0,0.30268 -0.26318,0.55031 -0.58484,0.55031 -0.32166,0 -0.58486,-0.4103 -0.58486,-0.91178 z m -4.9019,-3.2024 c -0.92688,-0.2775 -2.47543,-0.34653 -3.44119,-0.15341 -1.35069,0.27014 -1.68944,0.16203 -1.46776,-0.46863 0.18502,-0.5262 0.97315,-0.763 2.20072,-0.66117 1.91252,0.15871 1.91252,0.15871 0.94636,-1.3159 -0.94475,-1.44187 -0.93345,-1.47456 0.50941,-1.47456 1.19316,0 1.47561,-0.28647 1.47561,-1.49664 0,-0.94015 0.23936,-1.34868 0.64376,-1.09877 0.61944,0.38285 0.45597,2.35346 -0.37296,4.49615 -0.30029,0.77619 -0.0981,1.02348 0.83632,1.02348 0.70544,0 1.23225,0.37504 1.23225,0.87728 0,0.97597 -0.15628,0.99257 -2.56252,0.27215 z m 3.68605,-6.28519 c -0.0254,-1.19614 -0.17949,-1.8442 -0.34238,-1.44011 -0.46333,1.14928 -1.36599,0.2317 -1.36599,-1.38857 0,-0.80416 0.24499,-1.31071 0.54444,-1.12565 0.29942,0.18502 0.73437,0.0292 0.96653,-0.34651 0.70138,-1.13482 1.99811,1.22578 1.99811,3.63735 0,1.38495 -0.31609,2.28633 -0.87728,2.50167 -0.67858,0.26041 -0.88771,-0.15584 -0.92343,-1.83818 z m -9.03764,-1.94126 c -0.21441,-0.67571 -0.13329,-1.4851 0.18015,-1.79866 0.37023,-0.37022 0.66265,0.0606 0.83409,1.22857 0.29874,2.03548 -0.42078,2.43993 -1.01424,0.57009 z m 1.4808,-0.54432 c 0,-0.75385 1.66627,-1.43455 2.20147,-0.89938 0.21795,0.21817 0.009,0.64131 -0.46386,0.94056 -1.13213,0.71599 -1.73761,0.70162 -1.73761,-0.0411 z m 10.56436,-1.34614 c -0.30004,-0.78917 -0.72719,-2.40319 -0.94923,-3.58668 -0.35515,-1.89315 -0.27188,-2.12914 0.69284,-1.96318 1.56378,0.26899 1.95467,1.02686 1.96484,3.80939 0.0111,2.85732 -0.92248,3.80772 -1.70845,1.74047 z m -1.69779,-7.27944 c -0.3733,-0.12445 -0.67872,-0.86225 -0.67872,-1.63962 0,-0.77735 -0.27871,-1.41338 -0.61937,-1.41338 -0.34065,0 -0.44697,-0.27891 -0.23627,-0.61983 0.24209,-0.39173 0.67845,-0.23028 1.18562,0.43862 1.53663,2.02673 0.96949,-2.38854 -0.60478,-4.70835 -1.65536,-2.43931 -1.00639,-2.90594 0.8172,-0.5876 0.77381,0.98373 1.21214,2.39888 1.21214,3.91327 0,2.12541 0.0816,2.26084 0.7832,1.3012 0.74165,-1.01424 0.8042,-1.0164 1.17857,-0.0409 0.44438,1.15803 -1.89108,3.73872 -3.03759,3.35653 z"
       id="path13185" />
  </g>
</svg>
