<?xml version="1.0" encoding="UTF-8" standalone="no"?>
<!-- Created with Inkscape (http://www.inkscape.org/) -->

<svg
   width="62.336605mm"
   height="62.249916mm"
   viewBox="0 0 62.336606 62.249915"
   version="1.1"
   id="svg5"
   inkscape:version="1.1 (c4e8f9ed74, 2021-05-24)"
   sodipodi:docname="ornatet5.svg"
   xmlns:inkscape="http://www.inkscape.org/namespaces/inkscape"
   xmlns:sodipodi="http://sodipodi.sourceforge.net/DTD/sodipodi-0.dtd"
   xmlns="http://www.w3.org/2000/svg"
   xmlns:svg="http://www.w3.org/2000/svg">
  <sodipodi:namedview
     id="namedview7"
     pagecolor="#ffffff"
     bordercolor="#666666"
     borderopacity="1.0"
     inkscape:pageshadow="2"
     inkscape:pageopacity="0.0"
     inkscape:pagecheckerboard="0"
     inkscape:document-units="mm"
     showgrid="false"
     inkscape:zoom="0.94615212"
     inkscape:cx="53.374081"
     inkscape:cy="149.55312"
     inkscape:window-width="2506"
     inkscape:window-height="1403"
     inkscape:window-x="1974"
     inkscape:window-y="0"
     inkscape:window-maximized="1"
     inkscape:current-layer="layer1" />
  <defs
     id="defs2" />
  <g
     inkscape:label="Layer 1"
     inkscape:groupmode="layer"
     id="layer1"
     transform="translate(-149.54207,-114.24083)">
    <path
       style="fill:#000000;stroke-width:0.465104"
       d="m 204.67003,176.22146 c -0.76742,-0.11215 -1.65693,-0.42041 -1.9767,-0.68492 -0.40542,-0.33535 -0.58137,-0.32288 -0.58137,0.0411 0,0.76865 -2.11755,0.6354 -2.79063,-0.17561 -0.73389,-0.88427 -2.28894,-0.87149 -3.4798,0.0286 -0.77732,0.58753 -2.37595,0.65323 -10.20463,0.41927 -5.10559,-0.15258 -9.64788,-0.47275 -10.09394,-0.71147 -1.09964,-0.58851 -5.22014,-0.55111 -5.82411,0.0529 -0.27876,0.27874 -1.95896,0.42788 -3.93013,0.34883 l -3.44323,-0.13817 -0.14432,-1.74415 c -0.11303,-1.36636 -0.33974,-1.74414 -1.04648,-1.74414 -0.49618,0 -0.90214,0.26805 -0.90214,0.59569 0,0.32763 -0.68021,0.85969 -1.51158,1.18233 l -1.5116,0.58665 1.16276,0.66162 1.16277,0.66159 -1.24771,0.0158 c -0.86296,0.0105 -1.34215,-0.28115 -1.55405,-0.94878 -0.1684,-0.53089 -0.23492,-1.0189 -0.14766,-1.08443 0.0874,-0.0656 0.68199,-0.49224 1.3215,-0.94822 1.11777,-0.79695 1.12227,-0.81966 0.1162,-0.58697 -0.70393,0.16278 -1.04648,0.0279 -1.04648,-0.41205 0,-0.35976 -0.22165,-0.6541 -0.49256,-0.6541 -0.27091,0 -0.36319,0.20929 -0.20511,0.4651 0.16296,0.26378 -0.22771,0.4651 -0.90276,0.4651 -0.95948,0 -1.1902,0.22541 -1.1902,1.16276 0,0.63952 -0.18604,1.16277 -0.41344,1.16277 -0.22738,0 -0.38436,-0.35826 -0.34881,-0.79611 0.0359,-0.44081 -0.32897,-0.87702 -0.8172,-0.97738 -0.62561,-0.12868 -0.80508,0.0186 -0.61774,0.50688 0.29715,0.77435 -0.46805,1.7317 -1.38412,1.7317 -0.33255,0 -0.60464,-0.41858 -0.60464,-0.93019 0,-0.51162 0.23493,-0.93022 0.52206,-0.93022 0.38278,0 0.3845,-0.16577 0.007,-0.62127 -0.79732,-0.96069 -0.1912,-10.53015 0.92457,-14.59718 1.0374,-3.78129 0.71117,-5.08778 -1.12484,-4.50506 -0.89784,0.28497 -0.92468,0.15065 -0.66258,-3.31517 0.1503,-1.98668 0.46606,-3.73766 0.70178,-3.89105 0.23573,-0.15347 0.57356,-1.06714 0.75071,-2.03055 0.24189,-1.31527 0.17193,-1.7208 -0.28068,-1.62786 -0.82542,0.16946 -1.08733,-12.50277 -0.27855,-13.4773 0.32649,-0.3934 0.37002,-0.78084 0.10881,-0.96889 -0.64345,-0.46336 -0.75427,-2.43936 -0.17585,-3.13628 0.35797,-0.43133 0.35955,-0.87372 0.005,-1.5353 -0.64238,-1.20028 -0.67128,-8.12946 -0.0324,-7.73453 0.25581,0.15803 0.4683,1.05996 0.47222,2.00414 0.004,0.94419 0.20124,2.02363 0.43851,2.39876 0.27377,0.43286 0.24937,0.90135 -0.0668,1.28228 -0.78546,0.94641 1.63442,4.27537 3.35845,4.62018 1.78145,0.35628 1.75088,0.84844 -0.0854,1.37508 -1.60432,0.46012 -2.93889,2.03913 -3.37725,3.99591 l -0.28186,1.2581 2.17509,-0.793 c 1.49193,-0.54392 2.45692,-1.26755 3.07233,-2.30389 0.49347,-0.831 1.07157,-1.40315 1.28466,-1.27145 0.21309,0.13166 0.53889,-0.005 0.724,-0.30512 0.21019,-0.34009 0.135,-0.41995 -0.20042,-0.21268 -0.93415,0.57734 -0.58168,-0.52875 0.62579,-1.96374 0.63951,-0.76002 1.16276,-1.47592 1.16276,-1.59086 0,-0.11497 -1.68253,-1.62889 -3.73896,-3.36426 -2.05644,-1.7354 -3.64445,-3.24979 -3.52891,-3.36532 0.1155,-0.11549 1.91514,0.95768 3.99914,2.38491 2.08398,1.42724 4.07453,2.59498 4.42343,2.59498 0.34889,0 1.28714,-0.54928 2.085,-1.22063 0.79785,-0.67135 1.56743,-1.10386 1.71017,-0.96112 0.14274,0.14274 1.3944,-0.35446 2.78147,-1.10488 2.70389,-1.46287 4.86555,-1.94317 3.17198,-0.70478 -1.65351,1.20906 -0.41317,1.19489 1.3683,-0.0158 0.96463,-0.65547 1.83545,-1.11022 1.93514,-1.01051 0.0997,0.0997 -0.0534,0.94589 -0.3402,1.88042 -0.47373,1.54357 -0.40848,1.8473 0.71276,3.31732 0.67884,0.89 1.23424,1.72363 1.23424,1.85252 0,0.12885 -0.73254,0.11549 -1.62786,-0.0299 -1.13503,-0.18419 -1.62787,-0.0877 -1.62787,0.31874 0,0.46478 -0.14361,0.46367 -0.70889,-0.005 -0.3899,-0.32359 -0.86082,-0.43585 -1.04649,-0.24948 -0.18568,0.18639 0.16313,0.74482 0.77512,1.24096 1.06394,0.86254 1.09716,1.05958 0.75763,4.49473 -0.1953,1.97596 -0.32983,4.45404 -0.29895,5.50685 0.0376,1.28131 -0.25404,2.30853 -0.88208,3.10694 -0.57474,0.73064 -0.75487,1.3061 -0.46494,1.48528 0.26031,0.16085 0.47329,1.10499 0.47329,2.09803 0,0.99304 0.2268,1.94569 0.504,2.11701 0.31225,0.19298 0.44815,1.64957 0.3572,3.8286 -0.11655,2.79244 -0.005,3.56067 0.5425,3.72854 0.3791,0.11638 1.16018,0.63989 1.73576,1.16353 0.92424,0.84088 1.04648,0.85942 1.04648,0.15873 0,-1.05219 1.22735,-1.48254 2.11861,-0.74286 0.53888,0.44722 0.84204,0.45984 1.24985,0.052 0.83925,-0.83924 2.11976,-0.63408 2.44535,0.3918 0.33867,1.06705 0.74207,1.16484 1.53484,0.37207 0.40883,-0.40881 0.55812,-0.41466 0.55812,-0.0218 0,0.60867 -2.83918,1.50371 -4.7823,1.50761 -0.90135,0.002 -1.42921,-0.31496 -1.73951,-1.0439 -0.43899,-1.03122 -0.44386,-1.02953 -0.33383,0.1162 0.0997,1.03776 0.34837,1.17799 2.31378,1.30424 2.35373,0.15118 5.63813,-1.03868 5.33953,-1.93442 -0.093,-0.2788 -0.67669,-0.6488 -1.29724,-0.82221 -0.93652,-0.26172 -0.83184,-0.32317 0.61586,-0.36167 1.31529,-0.035 1.74414,0.13852 1.74414,0.70552 0,0.58002 0.29236,0.68602 1.27904,0.46373 3.87358,-0.87264 7.04041,-1.24071 8.43246,-0.98003 2.67408,0.50075 0.94709,1.22571 -3.36881,1.41419 -3.07449,0.1343 -5.19857,0.58077 -9.21298,1.93671 -2.86951,0.96922 -5.2987,2.02386 -5.39819,2.34362 -0.3009,0.9669 1.47635,0.66296 4.6117,-0.78869 3.53398,-1.63622 5.8112,-2.27255 5.32657,-1.4884 -0.19373,0.31347 -0.0308,0.53294 0.39574,0.53294 0.39881,0 0.7251,-0.31394 0.7251,-0.69765 0,-0.38373 0.37673,-0.69767 0.83719,-0.69767 0.46046,0 1.07004,-0.23284 1.35462,-0.51743 0.28458,-0.28458 0.79736,-0.41417 1.13951,-0.28799 0.39489,0.14573 0.17814,0.40653 -0.59353,0.71435 -1.31341,0.52393 -1.80759,1.38573 -1.80759,3.15229 0,0.6186 -0.20929,1.12473 -0.4651,1.12473 -0.2558,0 -0.4651,-0.40115 -0.4651,-0.89146 0,-0.49029 -0.25622,-0.97685 -0.56937,-1.08123 -0.85876,-0.28625 -4.08476,0.39441 -4.67722,0.98687 -0.87774,0.87774 0.16805,1.32484 3.81466,1.63077 1.89844,0.15926 3.55583,0.39371 3.68311,0.52098 0.12727,0.12727 0.64512,-0.13536 1.15077,-0.58353 0.89314,-0.79173 0.9035,-0.78477 0.36328,0.24447 -0.49944,0.95154 -0.80233,1.03435 -2.97459,0.81331 l -2.4185,-0.24608 2.09296,0.582 c 1.95216,0.54281 2.112,0.70716 2.37581,2.44239 0.26593,1.74925 0.28676,1.77009 0.34883,0.34883 0.0538,-1.2333 0.25865,-1.5142 1.11247,-1.52573 0.9205,-0.0123 0.9505,-0.0701 0.2493,-0.47884 -0.59034,-0.34414 -0.69819,-0.73269 -0.41561,-1.49745 0.20987,-0.56802 0.30244,-1.25569 0.20571,-1.52817 -0.18936,-0.5334 3.47788,-3.7003 3.85186,-3.32633 0.12375,0.12376 -0.40655,0.91651 -1.17845,1.76164 -0.7719,0.84513 -1.60535,2.11573 -1.8521,2.82354 -0.39033,1.11973 -0.31677,1.32561 0.56623,1.58458 0.55818,0.16366 2.45823,1.03194 4.22235,1.92938 l 3.20747,1.63171 2.14122,-0.95266 c 1.17769,-0.52397 2.60359,-0.91169 3.16868,-0.86159 1.60744,0.14256 1.30807,-0.78992 -0.41103,-1.28023 -0.85063,-0.2426 -1.77862,-0.7484 -2.06216,-1.124 -0.44415,-0.58833 -0.91278,-0.59861 -3.38355,-0.0742 -1.57737,0.33473 -3.01062,0.46597 -3.18497,0.29163 -0.17438,-0.17438 0.15311,-0.43996 0.72781,-0.59023 1.39578,-0.365 2.66296,-2.76946 1.92694,-3.65631 -0.2939,-0.35412 -0.39366,-0.87154 -0.22169,-1.14981 0.43558,-0.70479 -1.01301,-2.77882 -1.98746,-2.84558 -0.44177,-0.0302 -0.17526,-0.18858 0.59209,-0.35182 1.03441,-0.22002 1.43457,-0.59678 1.54707,-1.45656 0.0835,-0.63786 0.60672,-1.52139 1.16277,-1.96335 l 1.01101,-0.8036 -1.00496,-0.0105 c -0.99642,-0.0105 -1.0041,-0.0824 -0.90622,-8.4985 0.0993,-8.54091 0.1561,-8.88973 2.04217,-12.55931 0.099,-0.19266 -0.30852,-0.29731 -0.90567,-0.23255 -0.91928,0.0997 -1.10848,-0.11936 -1.23412,-1.429 -0.11901,-1.24118 0.0417,-1.59645 0.81395,-1.79839 0.52926,-0.13835 0.9623,-0.54118 0.9623,-0.89506 0,-0.91146 -0.64653,-0.79757 -1.62787,0.2868 -0.72095,0.79665 -1.43251,0.93021 -4.9557,0.93021 -2.26261,0 -4.11385,-0.16682 -4.11385,-0.37087 0,-0.20397 1.30811,-0.30269 2.90691,-0.21935 2.21208,0.11532 3.35159,-0.0728 4.76733,-0.78656 1.84378,-0.92969 1.84689,-0.93572 0.34881,-0.6739 -1.8123,0.31673 -1.91358,-0.0573 -0.34881,-1.28814 1.97471,-1.55331 1.40625,-4.97217 -0.69735,-4.19399 -0.78744,0.29129 -0.92413,0.5053 -0.49294,0.77179 0.34955,0.21603 0.75446,0.11339 0.97778,-0.24798 0.272,-0.4401 0.47528,-0.24166 0.70985,0.69294 0.27319,1.08853 0.0865,1.53594 -1.10558,2.65008 -0.78887,0.73726 -1.81192,1.32576 -2.27345,1.30778 -0.74657,-0.029 -0.73651,-0.0768 0.0911,-0.43242 0.79542,-0.34181 0.81228,-0.40446 0.1162,-0.43242 -0.92974,-0.0373 -1.10996,-1.24476 -0.23255,-1.55812 0.31975,-0.11426 0.43832,-0.36191 0.26348,-0.55044 -0.54984,-0.59293 -1.30998,0.22272 -1.30998,1.40567 0,1.38925 -0.36448,1.40452 -3.3071,0.13869 -1.58854,-0.68337 -2.27152,-1.23162 -2.17282,-1.74414 0.0791,-0.41112 0.38528,-0.74749 0.68021,-0.74749 0.96112,0 1.2324,-0.66796 0.40085,-0.98704 -1.06373,-0.40818 -1.63143,0.53859 -1.64038,2.73573 -0.005,1.1641 0.29578,2.00804 0.89893,2.52446 0.84555,0.724 0.85332,0.81585 0.11619,1.37598 -1.12455,0.85461 -2.75925,0.76783 -3.28659,-0.17438 -0.41427,-0.74024 -0.51791,-0.74485 -1.30215,-0.0578 -0.93194,0.81637 -7.89192,1.71702 -7.42452,0.96076 0.14696,-0.2377 1.47651,-0.54269 2.95466,-0.67776 2.58457,-0.23617 7.10608,-1.99827 7.10608,-2.76933 0,-0.56078 -0.28986,-0.47689 -2.86997,0.83055 -1.40127,0.71007 -3.44348,1.28492 -4.9844,1.40299 -1.72459,0.1322 -2.29481,0.0629 -1.68029,-0.20393 0.91475,-0.39726 0.91366,-0.40923 -0.0661,-0.72074 -1.00695,-0.32017 -1.54384,-1.50487 -1.55546,-3.43226 -0.009,-1.47603 2.47752,-2.89613 5.0746,-2.89833 l 2.05777,-0.002 -1.05337,1.12126 c -1.11887,1.19098 -1.16178,2.61347 -0.0897,2.97049 0.4885,0.16261 0.57266,-0.0807 0.34352,-0.99374 -0.4048,-1.61287 1.43633,-2.98477 2.93165,-2.1845 0.52877,0.28299 0.9614,0.8306 0.9614,1.21689 0,0.54702 -0.38577,0.64581 -1.74415,0.44664 l -1.74413,-0.25571 1.62787,0.66437 c 1.81903,0.74238 3.42031,0.97307 2.44183,0.35175 -0.45647,-0.28982 -0.43467,-0.56307 0.10143,-1.27191 0.37555,-0.49653 0.68627,-1.11207 0.69049,-1.36788 0.004,-0.25582 -0.17508,-0.17668 -0.3983,0.17586 -0.43358,0.68454 -1.44019,0.33512 -1.44019,-0.4999 0,-0.56789 4.7549,-0.15681 5.955,0.5147 0.57922,0.32416 0.43426,0.5463 -0.75912,1.16342 -0.81128,0.41953 -1.47506,0.96669 -1.47506,1.21594 0,0.66711 0.2189,0.58882 2.63139,-0.94113 1.20922,-0.76688 2.3153,-1.21468 2.45795,-0.99512 0.39448,0.60714 3.33494,2.02696 3.61591,1.74598 0.13571,-0.13589 -0.51154,-0.6086 -1.43854,-1.05065 -0.92699,-0.44205 -1.68545,-0.96478 -1.68545,-1.16162 0,-0.39271 2.98509,-1.06224 4.33939,-0.97327 1.50288,0.0988 2.26522,1.11233 2.07326,2.75663 -0.20989,1.79778 0.4118,2.07296 0.83889,0.37128 0.66886,-2.66495 -2.25173,-4.47527 -5.68889,-3.52623 -0.96469,0.26636 -1.8679,0.31138 -2.00714,0.10003 -0.13923,-0.21137 -0.56711,-0.50381 -0.95082,-0.64987 -0.38371,-0.14608 1.1233,-0.28209 3.34889,-0.30229 3.3858,-0.0308 4.1249,0.0962 4.52627,0.77721 0.40224,0.68248 0.54964,0.70744 0.91271,0.15452 0.2991,-0.45547 1.50184,-0.68782 3.88912,-0.75132 4.08679,-0.10863 4.39213,0.16964 4.83501,4.40693 0.25503,2.44002 0.16207,2.91011 -0.8217,4.15407 -0.61011,0.77148 -1.3709,1.41427 -1.69066,1.42842 -0.31977,0.0141 -0.58138,0.33969 -0.58138,0.7234 0,0.8831 0.34609,0.8831 1.22919,0 1.21872,-1.21872 2.02654,-0.84793 2.02654,0.93022 0,1.18908 -0.20267,1.62786 -0.75188,1.62786 -0.58703,0 -0.68236,0.28043 -0.43485,1.27903 0.84333,3.40219 1.22466,8.72003 0.94224,13.13921 -0.17174,2.68598 -0.28492,5.40684 -0.25166,6.04636 0.0332,0.63953 0.0396,4.40657 0.0141,8.37125 -0.0371,5.73481 -0.18272,7.28464 -0.71238,7.58106 -0.91083,0.50971 -0.88416,3.11699 0.0318,3.11699 1.05953,0 1.02321,8.61254 -0.038,9.01979 -0.78766,0.30225 -3.72784,0.27237 -6.00831,-0.0612 z m 5.08833,-1.00543 c 0.77287,-0.30257 0.88419,-0.74566 0.77571,-3.0875 -0.0696,-1.50383 -0.47336,-3.3708 -0.89711,-4.14882 -0.42376,-0.77803 -0.77835,-1.62391 -0.78801,-1.87971 -0.0369,-0.97729 -0.78856,-1.62787 -1.88085,-1.62787 -0.62442,0 -1.13531,-0.21412 -1.13531,-0.47582 0,-0.6659 -2.18522,0.83466 -2.53217,1.73879 -0.16454,0.42869 0.11549,1.16802 0.66286,1.75076 0.52119,0.55476 0.78873,1.18368 0.59453,1.39756 -0.19419,0.2139 -0.1169,0.25408 0.17175,0.0893 0.55422,-0.3164 5.09977,4.21556 4.66465,4.65071 -0.1394,0.1394 -1.63761,-0.92078 -3.3293,-2.35596 -3.2147,-2.72722 -4.13039,-3.10012 -4.60101,-1.8737 -0.92814,2.41869 0.84086,5.30493 3.25931,5.31777 0.73808,0.004 1.65592,0.21001 2.03963,0.45799 0.81379,0.52589 1.73418,0.54018 2.99535,0.0464 z m -41.39998,-0.75942 c 1.73854,-0.82499 5.23239,-4.24293 4.7897,-4.68564 -0.16471,-0.16471 -0.84995,0.35469 -1.52272,1.15422 -1.10305,1.3109 -2.5167,2.08648 -1.85676,1.01868 0.14784,-0.23927 -0.98787,-0.99902 -2.52389,-1.68836 -3.8498,-1.72767 -4.1168,-2.16078 -2.24243,-3.63739 1.26542,-0.9969 1.61273,-1.09281 2.01368,-0.55613 0.70171,0.93924 2.07356,0.0322 2.07356,-1.37096 0,-2.06569 4.78757,-3.80827 12.09273,-4.40152 l 3.95337,-0.32105 -3.48827,-0.0626 c -1.91857,-0.0344 -4.27316,0.11972 -5.23243,0.34244 -1.54428,0.35861 -1.74415,0.30404 -1.74415,-0.47621 0,-1.79982 -2.76705,-0.45285 -6.68357,3.25353 l -2.75722,2.60927 1.73978,-2.30064 c 1.62451,-2.14819 1.68484,-2.3408 0.91067,-2.90691 -0.45603,-0.33344 -1.07744,-0.60626 -1.38093,-0.60626 -0.7201,0 -1.67647,1.15974 -1.28183,1.55439 0.555,0.55498 1.08122,0.3191 1.08122,-0.48465 0,-0.57182 0.14063,-0.65001 0.50818,-0.28249 0.80476,0.80476 -0.2015,2.19506 -3.64365,5.03429 -2.11164,1.74178 -3.36282,2.46959 -3.9339,2.28834 -0.55384,-0.17579 -0.83742,-0.0281 -0.83742,0.43578 0,0.94484 -0.56257,1.2306 -1.79054,0.90947 -0.95887,-0.25075 -0.971,-0.3047 -0.19699,-0.87646 0.68093,-0.50302 0.71832,-0.71613 0.21443,-1.22195 -0.50474,-0.50668 -0.68983,-0.47185 -1.0696,0.20124 -0.25259,0.44766 -0.7,0.81393 -0.99427,0.81393 -0.39044,0 -0.3842,-0.15083 0.0232,-0.55813 0.60218,-0.60217 0.75327,-2.34745 0.24706,-2.85366 -0.48412,-0.48412 -2.01444,1.12632 -2.01444,2.11991 0,0.6778 -0.22135,0.8192 -0.93022,0.59421 -1.19031,-0.37778 -1.28323,0.9048 -0.11619,1.60477 0.77517,0.46496 0.77517,0.51145 0,0.97643 -0.44767,0.26851 -0.81394,0.79176 -0.81394,1.16276 0,0.75053 1.79655,0.84064 3.72085,0.18664 0.80228,-0.27268 0.47784,-0.31403 -1.0465,-0.13343 -2.54416,0.3015 -2.82368,-0.1884 -0.77329,-1.35541 1.54716,-0.88057 2.49316,-1.06209 2.08387,-0.39986 -0.1408,0.22775 1.1826,0.43597 2.94076,0.46274 2.31551,0.0352 3.35571,-0.14309 3.7737,-0.64663 0.77436,-0.93305 0.77447,-0.93301 4.20556,0.9662 2.86061,1.58346 2.91968,1.65036 1.25744,1.42456 -0.95927,-0.13026 -1.74414,-0.0408 -1.74414,0.19894 0,0.23972 0.83719,0.43587 1.86041,0.43587 2.22913,0 2.38809,0.63345 0.41502,1.65377 -2.74189,1.41787 -4.55283,-0.0668 -3.18928,-2.61456 0.27702,-0.51762 0.29815,-0.89964 0.0497,-0.89964 -1.03265,0 -1.40928,3.94181 -0.41495,4.34302 1.13066,0.45624 2.78462,0.29935 4.26874,-0.40491 z m 19.56787,0.24782 c 0.17892,-0.28946 -0.73273,-0.46703 -2.41434,-0.47021 -4.05986,-0.007 -6.2828,-0.48152 -6.52033,-1.38983 -0.14397,-0.5505 -0.5808,-0.73883 -1.44951,-0.62492 -1.09714,0.14397 -1.05225,0.0752 0.38171,-0.58408 2.131,-0.97968 4.2507,-1.2643 5.11661,-0.68701 0.60148,0.40099 0.57625,0.55073 -0.18674,1.10862 -0.68492,0.50084 -0.74662,0.72877 -0.276,1.01964 0.38253,0.23642 0.84531,0.0482 1.25453,-0.51038 0.98555,-1.34515 -0.8437,-2.69047 -3.22413,-2.37118 -1.67703,0.22494 -1.75133,0.17758 -1.75133,-1.11615 0,-1.30846 -1.37804,-3.21148 -2.32553,-3.21148 -0.68709,0 -0.56484,0.73354 0.23255,1.39531 1.41827,1.17706 0.55974,3.72085 -1.25578,3.72085 -0.96553,0 -1.07722,0.50412 -0.28681,1.29453 0.84005,0.84007 0.25505,1.06366 -1.48059,0.56588 -1.64752,-0.4725 -2.49942,-0.21727 -1.44659,0.43342 1.81418,1.12121 15.07322,2.33158 15.63228,1.42699 z m 5.42836,-0.30464 c 0.46782,-0.42334 0.85057,-1.05124 0.85057,-1.39531 0,-0.34405 0.23592,-0.62556 0.52428,-0.62556 0.79012,0 0.22788,-4.49317 -0.68901,-5.50632 -0.93171,-1.02953 -0.97099,-1.47025 -0.13097,-1.47025 0.73982,0 2.15616,3.42512 2.15616,5.21421 0,1.33318 1.33629,2.63506 3.71672,3.62107 1.74282,0.72191 2.29525,0.31833 1.20832,-0.88272 -0.55853,-0.61715 -0.80554,-1.67481 -0.80554,-3.44911 0,-1.80639 -0.2296,-2.76574 -0.78071,-3.26193 -1.01623,-0.91501 -5.07599,-2.94088 -6.7108,-3.34877 -1.27147,-0.31723 -1.27903,-0.30491 -1.27903,2.08427 0,1.48383 -0.17797,2.29342 -0.46512,2.11594 -0.25935,-0.16032 -0.46195,0.18764 -0.45798,0.78649 0.005,0.7255 0.12903,0.8819 0.3828,0.48201 0.24325,-0.38328 0.55711,0.19047 0.89045,1.62787 0.28314,1.22088 0.66968,2.62039 0.85902,3.11002 0.25115,0.64953 0.18669,0.79287 -0.23842,0.53014 -1.12052,-0.69252 -2.41115,-4.65068 -2.6883,-8.24457 l -0.27947,-3.62414 -1.67585,-0.33917 c -0.92171,-0.18654 -3.03628,-0.34723 -4.69902,-0.35709 -2.36279,-0.0141 -2.99241,0.12516 -2.88235,0.63712 0.0775,0.36026 -0.11198,0.81128 -0.42098,1.00224 -0.7559,0.46719 -0.91589,3.11798 -0.29747,4.92912 0.44083,1.29102 0.63419,1.42 1.58631,1.058 0.59634,-0.22674 1.08428,-0.30542 1.08428,-0.17491 0,0.13061 0.4051,0.0206 0.90022,-0.24438 0.49511,-0.26499 1.16505,-1.21419 1.48875,-2.10933 0.32369,-0.89517 0.77818,-1.62757 1.00995,-1.62757 0.2318,0 0.27973,0.36627 0.10653,0.81394 -0.63078,1.6305 -0.83988,3.47335 -0.42753,3.76792 0.23233,0.16594 0.629,0.90727 0.88148,1.64737 0.32702,0.95854 1.19492,1.72494 3.01715,2.66429 3.01161,1.55247 3.15743,1.57193 4.26559,0.56904 z m 2.95608,-0.60525 c -0.15118,-0.24463 -0.58214,-0.32689 -0.95766,-0.18278 -0.96141,0.36892 -0.84812,0.62758 0.2749,0.62758 0.52671,0 0.83397,-0.20016 0.68276,-0.4448 z m -29.5467,-0.48542 c 0,-0.25581 -0.41859,-0.4651 -0.9302,-0.4651 -0.51163,0 -0.93022,0.20929 -0.93022,0.4651 0,0.25581 0.41859,0.46512 0.93022,0.46512 0.51161,0 0.9302,-0.20931 0.9302,-0.46512 z m 18.81581,-1.04648 c -0.17385,-0.57557 -0.53274,-1.25578 -0.79746,-1.51158 -0.32828,-0.31726 -0.38559,-0.19428 -0.18027,0.38685 0.16559,0.4686 0.301,1.14881 0.301,1.5116 0,0.36279 0.22341,0.65961 0.49646,0.65961 0.29844,0 0.37034,-0.41737 0.18027,-1.04648 z m -4.19186,-0.75511 c -0.35961,-0.37732 -1.64191,0.42892 -1.37336,0.86346 0.18211,0.29468 0.51495,0.25347 0.91279,-0.11303 0.34439,-0.31721 0.55164,-0.65493 0.46057,-0.75049 z m -19.14987,-0.3639 c -0.31489,-0.12745 -0.94279,-0.13518 -1.39532,-0.0176 -0.45253,0.11795 -0.19489,0.22216 0.57253,0.23165 0.76743,0.009 1.13768,-0.087 0.82279,-0.21441 z m 8.94441,-1.09024 c 0.15803,-0.2558 -0.0912,-0.46796 -0.55393,-0.47144 -0.46276,-0.004 -1.36462,-0.12376 -2.00413,-0.26708 -1.12227,-0.25164 -1.13132,-0.23522 -0.25994,0.47145 1.0234,0.82996 2.39006,0.95948 2.818,0.26707 z m -7.67422,-0.20511 c 0,-0.4909 -0.8926,-0.69714 -1.15807,-0.26758 -0.16067,0.25999 0.0341,0.47269 0.43296,0.47269 0.39881,0 0.72511,-0.0923 0.72511,-0.20511 z m 4.80835,-1.92686 c 0.97271,-0.66096 2.64334,-1.49511 3.71253,-1.85363 l 1.94397,-0.65187 -1.86042,0.16823 c -1.75792,0.15891 -6.23249,2.43773 -6.26421,3.19026 -0.0258,0.61422 0.65557,0.37874 2.46813,-0.85293 z m 8.12424,0.31723 c 0.16419,-0.49781 -0.10899,-0.5872 -1.15491,-0.37802 -0.75341,0.15065 -2.08953,0.11216 -2.96919,-0.0856 -1.70428,-0.38317 -2.76214,-0.22009 -2.76214,0.42582 0,1.00467 6.55565,1.04067 6.88624,0.0378 z m 26.43472,-0.50124 c 0.83161,0.64672 0.83353,0.63589 0.0503,-0.28673 -0.44768,-0.52734 -0.81395,-1.15164 -0.81395,-1.3873 0,-0.23566 -0.50832,-0.42848 -1.12961,-0.42848 -1.0076,0 -1.05662,0.0807 -0.45388,0.74668 0.39322,0.43451 0.54765,1.11505 0.36938,1.62786 -0.28901,0.83137 -0.26621,0.82959 0.40356,-0.0315 0.63099,-0.81119 0.80598,-0.83792 1.57417,-0.24056 z m -36.80923,-0.47465 c 0.15803,-0.2558 0.0782,-0.4651 -0.17765,-0.4651 -0.25583,0 -0.59446,0.2093 -0.75257,0.4651 -0.15803,0.25581 -0.0782,0.4651 0.17765,0.4651 0.25581,0 0.59446,-0.20929 0.75257,-0.4651 z m 9.46103,-1.79809 c 0.29629,-0.98897 0.52165,-2.29707 0.50078,-2.90692 -0.0355,-1.03688 -0.0772,-1.0183 -0.64292,0.28652 -0.87706,2.02286 -1.32439,4.41849 -0.82503,4.41849 0.23565,0 0.67086,-0.80915 0.96717,-1.79809 z m -21.95688,-1.22508 c 0.6804,-0.92528 0.68854,-0.92477 1.53232,0.0965 1.03722,1.25537 1.5253,0.91533 0.93075,-0.64844 -0.24131,-0.63468 -0.34641,-1.30338 -0.23356,-1.48599 0.11286,-0.18259 0.0257,-0.6225 -0.19377,-0.97754 -0.32995,-0.53386 -0.52579,-0.54028 -1.13207,-0.0371 -0.4032,0.33463 -0.7331,0.86027 -0.7331,1.16806 0,0.3078 -0.52325,1.05119 -1.16277,1.652 -0.63951,0.60079 -1.1561,1.52678 -1.14796,2.05777 0.0158,1.06293 0.0158,1.06285 2.14016,-1.82522 z m 6.21692,1.85044 c 0,-0.38919 -0.51351,-0.94161 -1.14112,-1.22756 -0.62763,-0.28597 -1.23125,-0.85705 -1.34137,-1.26906 -0.11022,-0.41203 -0.2245,9.1e-4 -0.25419,0.91749 -0.0631,1.94756 0.18193,2.28676 1.65144,2.28676 0.66138,0 1.08524,-0.27637 1.08524,-0.70763 z m 2.35178,-1.5734 c 0.92935,-0.84885 1.34574,-1.56638 1.12047,-1.93089 -0.2678,-0.4333 -0.52385,-0.3563 -1.01205,0.30434 -0.57955,0.78426 -0.6174,0.60789 -0.33419,-1.55741 0.18913,-1.44615 0.14046,-2.44179 -0.11953,-2.44179 -0.53756,0 -2.00561,2.9857 -2.0088,4.08544 -0.002,0.59418 -0.28154,0.44917 -1.09489,-0.56733 l -1.09259,-1.36551 0.21747,1.48177 c 0.16049,1.09352 0.45878,1.48179 1.13845,1.48179 0.52981,0 1.02428,0.39508 1.16421,0.93019 0.30762,1.17634 0.26276,1.18567 2.02143,-0.4206 z m 16.6,-3.1077 c -0.65244,-0.65244 -1.74289,0.51922 -1.74289,1.87268 0,2.28164 0.60424,2.401 1.3178,0.26031 0.35173,-1.0552 0.54302,-2.01505 0.42509,-2.13299 z m 20.58214,3.77281 c 0,-0.1213 -0.62789,-0.54531 -1.39531,-0.94215 -1.74921,-0.90456 -1.85505,-0.51167 -0.1162,0.43162 1.46161,0.79295 1.51159,0.80982 1.51159,0.51053 z m -26.30871,-0.69809 c 0.65618,-0.24948 1.19305,-0.79541 1.19305,-1.21318 0,-0.99531 -2.16876,-0.51736 -3.47537,0.76589 -0.9125,0.89618 -0.91206,0.90087 0.086,0.90087 0.55182,0 1.54016,-0.2041 2.19633,-0.45358 z m 37.29145,-2.81668 c 0.22026,-1.17367 0.16155,-1.48261 -0.21511,-1.13369 -0.28483,0.2638 -0.65414,1.20564 -0.82066,2.09298 -0.22027,1.17366 -0.16155,1.48261 0.21511,1.13369 0.28484,-0.26381 0.65414,-1.20564 0.82066,-2.09298 z m -58.14533,1.48354 c -0.13307,-0.21527 0.48248,-1.0935 1.36786,-1.95165 1.58158,-1.53292 1.97643,-2.87001 1.20627,-4.08465 -0.51896,-0.81847 -2.56209,1.58123 -3.33167,3.91308 -0.4564,1.38291 -0.44235,1.7691 0.0763,2.09768 0.80713,0.51133 0.98559,0.51803 0.68123,0.0255 z m 13.20993,-0.56625 c 0,-0.2407 -0.20929,-0.43766 -0.4651,-0.43766 -0.2558,0 -0.4651,0.3263 -0.4651,0.72511 0,0.39881 0.2093,0.59576 0.4651,0.43766 0.25581,-0.15803 0.4651,-0.4844 0.4651,-0.72511 z m 30.23182,0.49256 c -0.38371,-0.24797 -0.90696,-0.45086 -1.16276,-0.45086 -0.25581,0 -0.15118,0.20289 0.23254,0.45086 0.38371,0.24798 0.90696,0.45086 1.16277,0.45086 0.25581,0 0.15118,-0.20288 -0.23255,-0.45086 z m 12.57226,-1.78925 c -1.11737,-0.15821 -1.10871,-0.17922 0.3218,-0.78069 1.14054,-0.47957 1.58741,-1.05373 1.99331,-2.56114 0.28776,-1.06865 0.35795,-2.28732 0.1561,-2.70817 -0.24864,-0.51813 -0.41715,-0.0499 -0.5219,1.4502 -0.12059,1.72628 -0.40122,2.37691 -1.27128,2.94701 -1.1946,0.78272 -2.08769,0.55223 -2.08769,-0.53879 0,-0.36863 -0.20929,-0.67021 -0.4651,-0.67021 -0.77339,0 -0.52156,1.31621 0.34884,1.82316 0.44766,0.26075 0.56943,0.48043 0.27059,0.48822 -1.05255,0.0274 -2.01474,-0.55804 -2.01474,-1.22584 0,-0.37144 -0.21272,-0.54387 -0.47269,-0.3832 -0.25997,0.16067 -0.3407,0.50572 -0.17936,0.76677 0.4448,0.71969 4.07564,2.17375 4.60544,1.84438 0.25581,-0.15909 -0.0517,-0.36232 -0.68323,-0.4517 z m -49.98778,-3.07576 c -0.41708,-1.43467 -0.61339,-2.84296 -0.43627,-3.12955 0.21075,-0.34101 0.10916,-0.38951 -0.29399,-0.14028 -0.45242,0.27961 -0.53371,0.1663 -0.30608,-0.42693 0.3883,-1.01189 -0.42483,-2.60069 -1.33096,-2.60069 -0.51129,0 -0.44493,0.23636 0.26588,0.94718 0.52095,0.52094 0.82084,1.15158 0.66643,1.40141 -0.15434,0.24985 0.057,1.65497 0.46969,3.1225 1.04171,3.70388 1.15849,3.99999 1.45896,3.6995 0.14556,-0.14555 -0.0766,-1.43843 -0.49366,-2.87309 z m 6.2535,2.14904 c 0,-0.21474 0.544,-0.63832 1.2089,-0.94126 0.96196,-0.43829 1.4768,-0.41716 2.52044,0.10354 1.1997,0.59849 1.51311,0.55106 3.6747,-0.55619 3.04283,-1.55864 3.05586,-2.19587 0.0204,-0.99942 -2.95241,1.16375 -3.95375,1.16004 -5.45408,-0.02 -0.65974,-0.51896 -1.3444,-0.78057 -1.52147,-0.58139 -0.63122,0.7101 -1.33439,3.38536 -0.8898,3.38536 0.24249,0 0.44091,-0.17579 0.44091,-0.39044 z m -7.65504,-2.28391 c -0.32684,-1.21507 -0.93886,-2.94178 -1.36003,-3.83711 -0.42119,-0.89533 -0.6414,-1.20927 -0.48938,-0.69766 0.15206,0.51161 0.45858,2.03205 0.6812,3.37874 0.43256,2.61655 0.73669,3.36528 1.36692,3.36528 0.21756,0 0.12815,-0.99417 -0.19871,-2.20925 z m 3.7447,1.04054 c 0.16137,-0.64278 0.55911,-1.32299 0.88395,-1.51158 0.32485,-0.1886 0.74652,-1.27998 0.93703,-2.42529 0.31683,-1.90448 0.28061,-2.02778 -0.42375,-1.44321 -0.61445,0.50996 -1.01465,0.5278 -1.97926,0.0882 -0.66501,-0.303 -1.29123,-0.46877 -1.39163,-0.36838 -0.31735,0.31735 0.94013,6.82888 1.31876,6.82888 0.19887,0 0.49356,-0.52592 0.6549,-1.16871 z m 4.14122,-4.76138 c 0.4786,-2.02463 0.46997,-2.4418 -0.0506,-2.4418 -0.34527,0 -0.7567,0.57557 -0.91429,1.27904 -0.15768,0.70348 -0.47438,2.01159 -0.70393,2.90691 -0.22956,0.89532 -0.40146,2.15111 -0.38202,2.79063 0.0322,1.05834 0.0999,1.01658 0.75445,-0.4651 0.39552,-0.89534 0.97885,-2.72668 1.29631,-4.06968 z m 40.73556,2.71156 c 1.51437,-1.51438 2.75341,-3.08411 2.75341,-3.48828 0,-1.22114 -0.79484,-0.83116 -1.87801,0.92146 -0.58734,0.95035 -1.28307,1.55678 -1.63228,1.42278 -0.33944,-0.13026 -1.35713,0.67991 -2.30114,1.83195 -1.55456,1.89715 -1.61113,2.06552 -0.69398,2.06552 0.59882,0 2.1008,-1.10224 3.752,-2.75343 z m -29.34594,1.47438 c -0.009,-0.92965 -0.76401,-2.29197 -1.08929,-1.96321 -0.11918,0.12041 -0.10617,0.79465 0.029,1.49811 0.27048,1.40803 1.07167,1.75945 1.06035,0.4651 z m 4.89071,-0.11619 c 0.36599,-0.59218 -0.71155,-0.59218 -1.62786,0 -0.56718,0.36653 -0.50708,0.45219 0.32137,0.45798 0.56048,0.004 1.1484,-0.20218 1.30649,-0.45798 z m 28.60395,-0.39303 c 0,-0.52604 -1.80729,-2.14067 -2.08512,-1.86282 -0.30785,0.30784 1.11386,2.25585 1.64639,2.25585 0.24131,0 0.43873,-0.17686 0.43873,-0.39303 z m -36.25836,-1.52026 c 3.14769,-1.35411 2.57972,-1.66545 -0.82986,-0.45491 -3.0584,1.08586 -4.40546,1.20135 -5.73199,0.49142 -1.15417,-0.6177 -1.14334,-1.60035 0.0306,-2.77428 1.21282,-1.21281 3.94542,-1.21517 5.93009,-0.005 0.83137,0.50691 1.51158,0.70367 1.51158,0.43722 0,-0.26642 -0.9394,-0.89996 -2.08758,-1.40784 -1.75888,-0.77806 -2.38009,-0.84468 -3.94546,-0.42316 -3.11617,0.83909 -3.88307,3.75245 -1.29236,4.90956 1.76028,0.78621 3.19165,0.61374 6.415,-0.77291 z m 29.03019,-1.474 c -1.0596,-0.59298 -1.78374,0.24303 -1.36186,1.57223 l 0.33935,1.06921 0.89538,-1.10576 c 0.81989,-1.0125 0.83061,-1.142 0.12709,-1.53568 z m -48.1193,-0.59356 c 0,-0.88023 -0.22165,-1.60041 -0.49256,-1.60041 -0.27089,0 -0.36587,0.20497 -0.21103,0.45548 0.15486,0.25054 0.0529,0.88274 -0.22661,1.40493 -0.27947,0.5222 -0.37933,1.15783 -0.22193,1.41251 0.52681,0.85239 1.15213,-0.0554 1.15213,-1.67251 z m 23.02269,1.65532 c 0.15804,-0.25581 0.0658,-0.4651 -0.20511,-0.4651 -0.2709,0 -0.49255,0.20929 -0.49255,0.4651 0,0.2558 0.0923,0.4651 0.20511,0.4651 0.11285,0 0.33445,-0.2093 0.49255,-0.4651 z m 32.13335,-1.27668 c -0.50808,-0.50808 -0.85649,0.29991 -0.49171,1.14034 0.3459,0.7969 0.37096,0.79617 0.56368,-0.0158 0.11092,-0.4677 0.0786,-0.9735 -0.0719,-1.12401 z m -41.38568,0.54099 c -0.15522,-0.40465 -0.28232,-0.83559 -0.28232,-0.95767 0,-0.122 -0.20015,-0.0983 -0.44479,0.0529 -0.53997,0.33371 -0.10636,1.64041 0.5443,1.64041 0.25583,0 0.33808,-0.33106 0.18281,-0.73569 z m 2.50831,-0.42708 c 0,-0.38757 -0.41343,-0.69765 -0.93022,-0.69765 -0.51678,0 -0.93019,0.31008 -0.93019,0.69765 0,0.3876 0.41341,0.69767 0.93019,0.69767 0.51679,0 0.93022,-0.31007 0.93022,-0.69767 z m 2.32553,0.007 c 0,-0.0693 -0.31396,-0.38639 -0.69767,-0.70483 -0.58231,-0.48328 -0.69764,-0.41822 -0.69764,0.39355 0,0.67341 0.21458,0.89021 0.69764,0.70486 0.38371,-0.14731 0.69767,-0.32437 0.69767,-0.39358 z m 31.87153,-0.80053 c -1.18017,-0.68433 -4.43036,-1.28462 -4.43036,-0.81828 0,0.38936 2.92994,1.26258 4.4185,1.31686 0.92311,0.0336 0.9232,0.0299 0.0123,-0.49858 z m -24.42986,-0.9675 c 0.60265,-0.22346 0.59893,-0.26368 -0.0274,-0.2954 -0.39878,-0.0202 -1.13132,0.28877 -1.62787,0.6866 -0.88839,0.71174 -0.88795,0.71645 0.0274,0.29539 0.51161,-0.23535 1.24415,-0.54431 1.62786,-0.68659 z m 30.13879,0.50507 c 0.60171,-0.60172 0.7307,-2.1718 0.27581,-3.35723 -0.39879,-1.03924 -2.65147,-0.92313 -3.96838,0.20453 l -1.09801,0.94026 1.70187,-0.77368 c 0.93602,-0.42551 2.03483,-0.6459 2.4418,-0.48973 1.09238,0.41918 0.91068,2.4663 -0.29376,3.30994 -0.7221,0.50578 -0.82024,0.72404 -0.32558,0.72404 0.38946,0 0.95928,-0.25117 1.26625,-0.55813 z m -5.16592,-1.64228 c -0.11795,-0.45253 -0.22216,-0.19489 -0.23164,0.57254 -0.009,0.76742 0.087,1.13767 0.21441,0.82278 0.12745,-0.31489 0.13518,-0.94279 0.0176,-1.39532 z m -42.92075,0.10741 c 0.83845,-0.63952 1.7381,-1.16277 1.99921,-1.16277 0.26112,0 1.03411,-0.43998 1.71775,-0.97773 0.98462,-0.77448 1.13084,-1.11287 0.70343,-1.62786 -0.29675,-0.35757 -0.8802,-0.64693 -1.29654,-0.64301 -0.60209,0.005 -0.62786,0.0889 -0.12604,0.40696 0.53132,0.33667 0.53132,0.46368 0,0.80372 -1.17539,0.75225 -4.45288,1.39879 -5.33503,1.05244 -0.4825,-0.18945 -1.54512,-0.35915 -2.36141,-0.37713 -0.81627,-0.0179 -1.62475,-0.26022 -1.79664,-0.53832 -0.47951,-0.77587 -1.31856,0.29365 -0.96113,1.22514 0.20679,0.53886 0.65985,0.71325 1.45708,0.56086 0.77331,-0.14783 1.15697,-0.0123 1.15697,0.41066 0,0.48491 1.86236,1.65494 3.17048,1.99187 0.081,0.0209 0.83333,-0.48532 1.67178,-1.12483 z m 47.24948,0.11619 c 0,-0.19185 -0.15697,-0.35169 -0.34883,-0.35517 -0.19185,-0.004 -0.79088,-0.12499 -1.33117,-0.27003 -0.59435,-0.15962 -1.07615,-0.0193 -1.21982,0.35518 -0.16876,0.43968 0.21667,0.61886 1.33117,0.61886 0.86276,0 1.56865,-0.15698 1.56865,-0.34884 z m -55.37704,-0.59966 c 0.22898,0.14151 0.17906,-0.3713 -0.11092,-1.13958 -0.44146,-1.16958 -0.39604,-1.5281 0.27925,-2.20339 0.66771,-0.66771 0.96423,-0.70802 1.7229,-0.23422 1.20207,0.75072 1.42233,0.72192 1.09058,-0.14256 -0.84272,-2.19612 -4.99806,-2.32103 -6.08482,-0.18293 -1.31251,2.58229 -0.1459,5.16137 1.85117,4.09257 0.45956,-0.24595 1.02289,-0.3314 1.25187,-0.18989 z m 49.60165,0.31299 c -0.13694,-0.22162 0.16453,-0.7773 0.67021,-1.23484 0.50558,-0.45756 0.91924,-1.10605 0.91924,-1.44112 0,-0.33505 0.39658,-0.82144 0.8813,-1.08085 0.48469,-0.25941 1.10983,-1.12731 1.38919,-1.92867 0.44262,-1.2697 0.41901,-1.38322 -0.18363,-0.88307 -0.38035,0.31566 -0.69154,0.83662 -0.69154,1.15768 0,0.32108 -0.27209,0.80958 -0.60464,1.08556 -0.47479,0.39405 -0.60464,0.18076 -0.60464,-0.99308 0,-1.92016 -0.51485,-3.25479 -1.11297,-2.88513 -0.25761,0.15927 -0.46838,0.69572 -0.46838,1.19225 0,0.49651 -0.20274,0.90275 -0.45051,0.90275 -0.24777,0 -0.33004,0.31394 -0.1828,0.69765 0.14731,0.38371 0.53478,0.69767 0.8612,0.69767 0.37254,0 0.56574,0.55122 0.51899,1.48073 -0.0561,1.11548 -0.41554,1.67387 -1.45715,2.26363 -1.49606,0.84707 -2.08036,0.76744 -2.08036,-0.28352 0,-0.41935 0.47876,-0.67288 1.27903,-0.67733 0.93086,-0.005 1.10061,-0.12006 0.62355,-0.42209 -0.71464,-0.4524 -1.94992,-0.14871 -2.45151,0.60276 -0.6074,0.90995 0.54002,2.15196 1.98805,2.15196 0.77352,0 1.29434,-0.18132 1.15737,-0.40294 z m 5.77539,-0.99237 c 0,-0.25581 -0.22165,-0.4651 -0.49255,-0.4651 -0.27091,0 -0.3632,0.20929 -0.20511,0.4651 0.15803,0.2558 0.37975,0.46511 0.49256,0.46511 0.11285,0 0.2051,-0.20931 0.2051,-0.46511 z m -40.1307,-0.28912 c 1.23806,-0.33191 1.75471,-1.67208 1.10943,-2.87779 -0.32404,-0.60548 -0.30933,-1.0363 0.0476,-1.39317 0.37879,-0.37878 0.35778,-0.70807 -0.0788,-1.23401 -0.69834,-0.84146 -2.60642,-0.95307 -3.08395,-0.18041 -0.19379,0.31357 -0.12868,0.41143 0.15645,0.23522 0.26852,-0.16594 0.60909,0.0141 0.75679,0.39813 0.41278,1.07569 0.29585,1.40067 -0.44898,1.24768 -0.50947,-0.10459 -0.60941,0.14907 -0.39505,1.00317 0.15786,0.62879 0.0524,1.58133 -0.23408,2.11677 -0.43854,0.8194 -0.38956,0.97252 0.30928,0.96718 0.45666,-0.004 1.29427,-0.13079 1.86138,-0.28277 z m -8.44635,-4.45543 c -0.41171,-3.63907 -0.94487,-4.69776 -2.17001,-4.30892 -0.50832,0.16137 -1.24407,0.028 -1.635,-0.29657 -0.50922,-0.42261 -0.80119,-0.44362 -1.02959,-0.074 -0.17543,0.2837 -1.04891,0.47955 -1.94124,0.4352 -1.55593,-0.0773 -1.62837,-0.009 -1.7668,1.66351 -0.14591,1.76234 0.23423,2.16588 1.16417,1.23595 0.70466,-0.70468 2.27752,0.16295 4.39144,2.42228 0.92972,0.99371 2.05557,1.80675 2.50188,1.80675 0.71971,0 0.77457,-0.32607 0.48515,-2.88414 z m 42.37281,1.57132 c -0.42478,-0.46938 -0.77233,-1.07895 -0.77233,-1.35462 0,-0.27567 -0.4186,-0.39175 -0.93021,-0.25796 -1.14737,0.30004 -1.20459,0.99027 -0.1162,1.40237 0.44766,0.16946 1.10047,0.59151 1.45069,0.93777 0.93886,0.92825 1.27156,0.27073 0.36813,-0.72756 z m 5.49199,-1.01272 c 0.29581,-1.08227 0.25118,-1.06618 -0.64467,0.23257 -0.52936,0.76742 -0.96386,1.59714 -0.96553,1.8438 -0.005,0.78836 1.2804,-0.86967 1.6102,-2.07637 z m -45.33312,1.40727 c 0,-0.24925 0.62789,-0.77786 1.39531,-1.1747 0.76742,-0.39686 1.39532,-0.96131 1.39532,-1.25437 0,-0.92209 1.4972,-2.23393 2.5496,-2.23393 0.8636,0 0.97963,-0.20776 0.79991,-1.43228 -0.19933,-1.35817 -0.30948,-1.42618 -2.12869,-1.31452 -1.05516,0.0647 -2.28476,-0.0457 -2.73242,-0.24535 -2.12754,-0.94913 -3.32408,1.30342 -2.86198,5.38782 0.20868,1.84453 0.51307,2.72049 0.94537,2.72049 0.35066,0 0.63758,-0.20393 0.63758,-0.45316 z m 46.69797,-0.82589 c 0.47146,-2.03758 0.90256,-13.40811 0.49379,-13.02345 -0.20358,0.19155 -0.52248,3.12172 -0.70864,6.51145 -0.18618,3.38975 -0.48786,6.52944 -0.67044,6.97712 -0.18382,0.45074 -0.12639,0.81393 0.12868,0.81393 0.25336,0 0.59383,-0.57556 0.75659,-1.27905 z m -8.28333,-4.4769 c -0.20407,-1.3533 -0.1524,-1.71281 0.17526,-1.22062 0.38874,0.58374 0.47154,0.54577 0.5071,-0.23255 0.029,-0.63584 0.2409,-0.41507 0.6694,0.69765 0.34477,0.89532 0.6428,1.34386 0.66226,0.99673 0.0207,-0.37161 0.32951,-0.51827 0.75065,-0.35667 0.9412,0.36117 1.03933,-0.0557 1.2798,-5.43741 0.14661,-3.28252 0.0396,-4.72929 -0.38161,-5.15038 -0.34031,-0.34031 -0.48201,-1.15574 -0.33829,-1.94668 0.14098,-0.77596 0.0712,-1.19558 -0.16243,-0.97609 -0.22539,0.21173 -0.52834,1.57217 -0.67323,3.02317 -0.26296,2.6335 -0.2638,2.63134 -0.46772,-1.21056 -0.17385,-3.27561 -0.11233,-3.7258 0.4137,-3.02318 0.56644,0.75674 0.60524,0.73165 0.46512,-0.30075 -0.20937,-1.5425 -1.21621,-1.75737 -1.57302,-0.33568 -0.16049,0.63918 -0.60845,1.2837 -0.99563,1.43228 -0.41213,0.15821 -0.58757,0.57335 -0.42322,1.00165 0.15434,0.40235 -0.0332,1.1797 -0.41685,1.72743 -0.83545,1.19279 -0.91921,2.69567 -0.14116,2.53309 0.31955,-0.0668 0.79553,0.8737 1.11812,2.20924 0.70334,2.91193 0.77327,4.08385 0.22339,3.74402 -0.86252,-0.53308 -1.99486,1.23621 -1.70827,2.66917 0.15153,0.75752 0.27546,1.67746 0.27546,2.04429 0,0.36945 0.22983,0.52492 0.51522,0.34855 0.32281,-0.19952 0.40719,-1.03475 0.22594,-2.2367 z m 6.06617,-1.94014 c -0.002,-1.91264 -0.17069,-3.21111 -0.37518,-2.88891 -0.20434,0.32189 -0.37794,1.21313 -0.38579,1.98057 -0.0105,1.09435 -0.11601,1.24482 -0.48635,0.69765 -0.34078,-0.5036 -0.37638,-0.30953 -0.12797,0.69766 0.18929,0.76742 0.3234,1.8508 0.29801,2.4075 -0.028,0.61408 0.17544,0.92714 0.51738,0.79595 0.37218,-0.14292 0.56229,-1.39591 0.55988,-3.69042 z m 1.50241,-1.14091 c -0.0264,-1.91855 -0.18012,-4.10452 -0.3417,-4.85768 -0.16155,-0.75318 -0.29381,1.05789 -0.29381,4.02459 0,2.9667 0.15381,5.15267 0.34171,4.8577 0.18794,-0.29498 0.32015,-2.10605 0.2938,-4.02461 z m -48.89086,0.72463 c -0.44727,-0.32703 -0.81321,-1.04425 -0.81321,-1.59378 0,-0.80725 -0.15627,-0.91559 -0.81393,-0.56405 -0.44766,0.2393 -1.1802,0.54844 -1.62786,0.687 -1.40005,0.4333 -0.88905,1.21132 0.7956,1.21132 0.88523,0 1.87939,0.29282 2.20924,0.65074 0.32985,0.35791 0.70403,0.5501 0.83155,0.42708 0.12744,-0.12305 -0.13413,-0.49126 -0.58139,-0.81831 z m -8.18157,-1.73356 c 0.0742,-1.1647 -0.8948,-5.03743 -1.26047,-5.03743 -0.12165,0 -0.12182,1.30811 -4.1e-4,2.90692 0.12147,1.59878 0.23531,3.32549 0.25317,3.83711 0.0288,0.82741 0.0826,0.84441 0.48555,0.15381 0.24918,-0.42702 0.48415,-1.26421 0.52216,-1.86041 z m 4.02726,-1.52595 c 0.17332,-1.39698 0.4572,-1.47805 1.30265,-0.37201 0.57571,0.75314 0.73084,0.69235 2.07734,-0.81394 1.29756,-1.45156 1.42831,-1.85609 1.20724,-3.73515 -0.13641,-1.159 -0.31556,-2.31013 -0.3982,-2.55808 -0.0826,-0.24793 0.0396,-0.51379 0.27154,-0.5908 0.23199,-0.077 0.75522,0.86484 1.16275,2.09298 0.63785,1.9222 0.91323,2.23297 1.97868,2.23297 0.68074,0 1.39583,0.15698 1.58911,0.34884 0.19327,0.19185 1.363,0.34881 2.5994,0.34881 1.81944,0 2.25374,-0.15522 2.27805,-0.81393 0.0158,-0.44766 0.13044,-1.89717 0.25326,-3.22111 0.32756,-3.53256 -0.58991,-5.39807 -3.01165,-6.12364 -1.05748,-0.31684 -1.92269,-0.77696 -1.92269,-1.0225 0,-0.56903 0.17016,-0.56085 1.56627,0.0752 1.65347,0.75337 4.12095,-0.3575 3.73135,-1.67987 -0.32573,-1.10563 -1.479,-2.09753 -2.43875,-2.09753 -0.37631,0 -1.59208,0.53206 -2.70174,1.18237 -1.10965,0.65029 -2.01756,1.05463 -2.01756,0.89853 0,-0.1561 -0.6549,0.18251 -1.45533,0.75246 -1.22289,0.87077 -1.60176,0.94483 -2.37219,0.46368 -0.90196,-0.56328 -0.90288,-0.55368 -0.0563,0.59073 0.47333,0.63983 1.25702,1.27091 1.74153,1.40238 0.66124,0.17945 0.74824,0.10635 0.34883,-0.29305 -0.7819,-0.78191 -0.66992,-1.08059 0.74694,-1.99243 l 1.27903,-0.82315 -0.88008,0.99565 c -0.8683,0.98233 -0.86271,1.02217 0.41887,2.9789 0.71442,1.09079 2.06906,2.9251 3.01031,4.07623 0.94126,1.15113 1.88629,2.39078 2.10008,2.75477 0.86305,1.46932 -1.54891,-0.71447 -3.68401,-3.33552 -3.60458,-4.425 -4.14857,-4.44859 -6.81359,-0.29552 l -1.48102,2.30797 0.94665,2.77244 c 1.02157,2.9919 0.81648,3.61017 -0.45587,1.37418 -0.43576,-0.7658 -0.98397,-1.39238 -1.21825,-1.39238 -0.42574,0 -2.87305,5.21541 -2.87305,6.1227 0,1.03736 3.02697,-1.45575 3.17036,-2.61122 z m 5.62787,2.40329 c -0.10652,-0.0724 -0.61239,-0.43866 -1.124,-0.81395 -0.86045,-0.63115 -0.88233,-0.62127 -0.29188,0.13166 0.35108,0.44766 0.85688,0.81393 1.124,0.81393 0.26713,0 0.39846,-0.0592 0.29188,-0.13166 z m 38.96017,-0.88582 c -0.14854,-0.37103 -0.25867,-0.26081 -0.281,0.281 -0.0202,0.49029 0.0897,0.76499 0.2443,0.61046 0.15451,-0.15452 0.17104,-0.55572 0.0367,-0.89146 z m -34.2807,-1.94101 c -0.005,-0.29142 -0.41962,-0.007 -0.91986,0.63291 -1.18896,1.51998 -1.1749,2.42381 0.0158,0.99496 0.5031,-0.60392 0.91007,-1.33645 0.90439,-1.62787 z m 3.00031,1.76245 c 0.81511,-0.81513 0.92995,-1.95525 0.29755,-2.95445 -0.29049,-0.459 -0.39533,-0.1735 -0.34171,0.9302 0.0717,1.47727 -0.0325,1.60294 -1.44304,1.73877 -0.83624,0.0805 -1.39946,0.34214 -1.25159,0.58138 0.4179,0.67617 1.93008,0.51279 2.73879,-0.2959 z m 32.02269,-2.11599 c -0.23396,-0.23396 -0.30503,0.33584 -0.16665,1.33569 0.22225,1.60516 0.25467,1.63758 0.40802,0.40803 0.0916,-0.73463 -0.0176,-1.51931 -0.24142,-1.74372 z m -38.26839,1.96641 c 0,-0.22843 -0.31394,-0.53582 -0.69767,-0.68306 -0.42496,-0.16313 -0.69765,-7.4e-4 -0.69765,0.41535 0,0.37568 0.31394,0.68306 0.69765,0.68306 0.38373,0 0.69767,-0.18691 0.69767,-0.41535 z m -1.86755,-2.0539 c 0.004,-0.20696 -0.20218,-0.24693 -0.45798,-0.0888 -0.25581,0.15803 -0.4619,0.64136 -0.45798,1.07394 0.007,0.67778 0.0694,0.69005 0.45798,0.0888 0.24798,-0.38371 0.45408,-0.86699 0.45798,-1.07394 z m 2.12309,-0.56432 c -0.65217,-0.96101 -1.18576,-1.43237 -1.18576,-1.04744 0,0.77074 1.8454,3.32085 2.16899,2.99726 0.11145,-0.11145 -0.33107,-0.9888 -0.98323,-1.94982 z m 4.86062,0.92952 c 0,-0.70519 -1.41648,-1.63648 -2.41123,-1.58531 -0.33658,0.0176 -0.14098,0.25859 0.43453,0.53617 0.57556,0.27759 1.04648,0.90367 1.04648,1.39129 0,0.48762 0.20929,0.75724 0.4651,0.59914 0.25581,-0.15804 0.46512,-0.58168 0.46512,-0.94129 z M 153.6645,135.353 c 0.16999,0.10371 0.34722,-0.53253 0.3938,-1.41374 0.0765,-1.44659 -0.0141,-1.57193 -0.9302,-1.29054 -1.41883,0.43569 -1.42168,0.44376 -0.71807,2.03333 0.34706,0.78405 0.70174,1.21336 0.78819,0.95402 0.0865,-0.25934 0.29628,-0.38672 0.46628,-0.28307 z m 54.35103,-1.45285 c -0.11796,-0.45253 -0.22216,-0.1949 -0.23164,0.57254 -0.009,0.76742 0.087,1.13766 0.21441,0.82277 0.12745,-0.31488 0.13518,-0.94278 0.0176,-1.39531 z m 2.44879,-2.253 c -0.60742,-2.61899 -0.54299,-5.2015 0.13588,-5.44392 0.31976,-0.11426 0.42441,-0.37583 0.23255,-0.58138 -0.88134,-0.94429 -1.71915,2.39869 -1.25336,5.00114 0.17051,0.95237 0.15733,1.63729 -0.0292,1.52204 -0.18648,-0.11531 -0.48127,-1.31306 -0.65511,-2.66179 -0.29928,-2.32205 -0.86797,-4.556 -1.68987,-6.63818 -0.22778,-0.57706 -0.27002,-0.26806 -0.11127,0.81393 0.19919,1.3577 0.10038,1.74415 -0.44567,1.74415 -0.79625,0 -1.85525,-1.09078 -1.50909,-1.55439 0.12569,-0.1684 0.10231,-0.21474 -0.0519,-0.10319 -0.15417,0.11163 -0.76438,0.0188 -1.35596,-0.20609 -0.84825,-0.3225 -1.33521,-0.1684 -2.30389,0.72941 -0.70247,0.65103 -1.08473,1.37062 -0.89297,1.68092 0.2212,0.35789 0.46247,0.19889 0.70887,-0.46715 0.82866,-2.2401 5.22648,-0.44545 6.33558,2.58541 0.25932,0.70865 0.73627,2.17103 1.05989,3.24973 0.32363,1.07871 0.73625,1.86991 0.91696,1.75821 0.18071,-0.11162 0.2322,0.36619 0.11444,1.0619 -0.20935,1.23674 -0.19815,1.24344 0.50166,0.29986 0.55549,-0.74894 0.62097,-1.37397 0.29243,-2.79063 z m -54.0133,0.40282 c -0.67768,-0.81655 -1.81438,-0.76679 -1.49502,0.0654 0.14045,0.36627 0.64654,0.63647 1.12446,0.60047 0.65481,-0.0494 0.74613,-0.2134 0.37056,-0.66592 z m 50.3697,-3.98024 c -0.45935,-0.45592 -0.51278,-0.4025 -0.26036,0.26038 0.17473,0.45868 0.43472,0.71682 0.57792,0.57363 0.14326,-0.14327 3e-4,-0.51851 -0.31756,-0.83401 z m -2.84834,-2.38428 c 0,-0.10055 -0.31396,-0.30327 -0.69767,-0.45051 -0.38371,-0.14731 -0.69765,-0.065 -0.69765,0.18279 0,0.24779 0.31394,0.45051 0.69765,0.45051 0.38371,0 0.69767,-0.0823 0.69767,-0.18279 z m -14.88336,-3.09525 c 0,-0.21335 -0.22752,-0.52852 -0.50562,-0.70039 -0.64579,-0.39913 -1.55627,0.48554 -1.15985,1.12696 0.33013,0.53416 1.66547,0.19213 1.66547,-0.42657 z m 19.83464,0.26352 c -0.18895,-0.49238 0.0202,-0.65829 0.73274,-0.58138 0.78451,0.0847 1.06605,-0.21641 1.32027,-1.41184 0.1777,-0.83569 0.14872,-1.62726 -0.0645,-1.75903 -0.21322,-0.13184 -0.26959,-0.5473 -0.12534,-0.9234 0.14432,-0.37608 0.13114,-1.20657 -0.0292,-1.84552 -0.37481,-1.49334 -2.5547,-1.66559 -2.92973,-0.23152 -0.13377,0.51163 -0.42813,0.93022 -0.65411,0.93022 -0.22599,0 -0.41086,-0.41859 -0.41086,-0.93022 0,-0.75302 -0.31008,-0.93019 -1.62789,-0.93019 -1.53267,0 -1.62786,0.09 -1.62786,1.54016 0,0.88133 0.38594,1.95441 0.90221,2.50856 0.49622,0.53262 0.78525,1.08537 0.64228,1.22832 -0.14292,0.14291 0.054,0.57386 0.43774,0.95756 1.66243,1.66243 1.7644,-1.85902 0.11075,-3.82426 -1.60561,-1.90815 -1.46058,-2.40461 0.22942,-0.78549 l 1.39219,1.33381 1.16589,-1.09531 c 0.64124,-0.60241 1.16589,-0.84952 1.16589,-0.54911 0,0.30038 -0.20929,0.54617 -0.46509,0.54617 -0.25583,0 -0.44033,0.15698 -0.41005,0.34883 0.17823,1.12879 -0.12041,2.4563 -0.49987,2.2218 -0.24462,-0.15118 -0.32598,-0.58451 -0.18076,-0.96293 0.18129,-0.47243 0.0453,-0.60409 -0.43402,-0.42017 -1.00164,0.38436 -0.46234,2.03918 0.59801,1.83496 0.46408,-0.0893 1.22869,0.14573 1.69915,0.52241 0.78811,0.63101 0.73998,0.66272 -0.61192,0.40319 -1.70215,-0.32679 -2.28202,0.27632 -1.56101,1.62355 0.5763,1.07684 1.63504,1.29178 1.23559,0.25083 z m -35.6482,-0.24121 c 0,-0.25581 -0.20929,-0.4651 -0.4651,-0.4651 -0.25582,0 -0.46512,0.20929 -0.46512,0.4651 0,0.2558 0.2093,0.4651 0.46512,0.4651 0.25581,0 0.4651,-0.2093 0.4651,-0.4651 z m 29.65726,-1.17535 c -0.95553,-0.8884 -2.00201,-1.60742 -2.32552,-1.59783 -0.6829,0.0202 2.90164,3.22725 3.59773,3.21878 0.2558,-0.004 -0.31668,-0.73254 -1.27221,-1.62095 z m 1.5994,-0.21703 c -0.73189,-1.28622 -1.48996,-1.8354 -1.48996,-1.07941 0,0.30637 1.88566,2.47179 2.15242,2.47179 0.0714,0 -0.22668,-0.62656 -0.66246,-1.39238 z m -19.54184,-0.7069 c 1.05731,-0.78392 1.0584,-0.7935 0.0638,-0.56449 -0.77211,0.1778 -0.94614,0.0621 -0.73489,-0.48835 0.18206,-0.47445 0.0905,-0.60622 -0.26736,-0.38501 -0.29928,0.18496 -0.54415,0.6284 -0.54415,0.98543 0,0.77865 -2.75802,1.38215 -4.41544,0.96616 -1.83235,-0.45989 -1.18403,-2.60041 0.78762,-2.60041 0.46046,0 0.83719,-0.20929 0.83719,-0.46509 0,-1.09507 -2.48636,-0.0422 -3.24414,1.37367 -0.36024,0.67313 -0.28506,1.07703 0.31158,1.67367 1.00454,1.00454 5.60958,0.68783 7.20571,-0.49558 z m -12.3749,-1.50646 c -0.53661,-0.53661 -0.8119,0.3038 -0.44598,1.36144 l 0.3742,1.08153 0.17087,-1.08642 c 0.094,-0.59753 0.0494,-1.20798 -0.0992,-1.35655 z m 9.03197,1.33716 c 0,-0.74135 -1.26409,-1.47343 -2.03403,-1.17797 -1.40086,0.53756 -0.77365,1.58613 0.94878,1.58613 0.59689,0 1.08525,-0.18368 1.08525,-0.40816 z m 12.20386,-1.20564 c 0.21998,-1.15072 -0.0394,-1.16515 -1.43527,-0.0798 -0.50928,0.39594 -0.46577,0.5503 0.23255,0.82511 0.47246,0.18593 0.88695,0.35275 0.92107,0.37073 0.0341,0.0179 0.16085,-0.48422 0.28165,-1.116 z m 3.84224,0.68359 c 0.15804,-0.25581 -0.0265,-0.4651 -0.4102,-0.4651 -0.38371,0 -0.82701,0.20929 -0.98511,0.4651 -0.15803,0.25581 0.0265,0.4651 0.41022,0.4651 0.38371,0 0.82701,-0.20929 0.98509,-0.4651 z m 3.68634,-2.48031 c -0.46554,-1.21317 -1.0247,-0.90853 -0.77076,0.41992 0.13589,0.7111 0.3986,1.02523 0.64841,0.77542 0.23095,-0.23095 0.28601,-0.76885 0.12235,-1.19534 z m -20.95324,-0.31032 c 0.64124,0 1.29524,-0.20929 1.45335,-0.4651 0.36133,-0.58465 -0.0287,-0.58112 -2.19245,0.0199 -0.95004,0.26385 -1.8648,0.70216 -2.03282,0.97402 -0.20733,0.33545 0.002,0.32993 0.65027,-0.0176 0.52568,-0.28133 1.48042,-0.51151 2.12165,-0.51151 z m 2.86633,28.39997 c -0.14837,-0.24007 0.0529,-0.6171 0.44734,-0.83784 0.57272,-0.32049 0.7766,-1.77804 1.0124,-7.2377 l 0.29527,-6.83638 h -2.16143 c -1.65773,0 -2.29683,0.21678 -2.74236,0.93019 -0.85948,1.37624 -1.3657,1.13111 -1.20058,-0.58138 0.0802,-0.83137 0.30272,-1.45927 0.49458,-1.39531 0.19185,0.064 3.27898,0.11619 6.86029,0.11619 h 6.51147 v 1.31779 c 0,1.76275 -0.42254,2.08325 -1.33678,1.01391 -0.45326,-0.53017 -1.50145,-0.94101 -2.61661,-1.02561 l -1.86042,-0.14116 -0.12902,6.63632 c -0.10899,5.60372 -0.0186,6.67873 0.58138,6.90896 0.39076,0.14995 0.71048,0.56419 0.71048,0.92053 0,0.75265 -4.41292,0.94435 -4.86594,0.21137 z m 9.07878,-23.13242 c -1.13633,-0.33505 -2.27352,-0.81664 -2.52707,-1.0702 -0.86678,-0.86677 0.0304,-0.95445 1.84737,-0.18057 0.99856,0.4253 2.44345,0.91034 3.21086,1.07786 1.1527,0.25162 1.23356,0.34611 0.46512,0.54334 -0.51161,0.13132 -1.85994,-0.0353 -2.99628,-0.37043 z m -18.00549,-1.33402 c -0.15153,-0.39475 -0.17157,-0.82165 -0.0445,-0.94866 0.1271,-0.12709 0.34258,0.19595 0.47903,0.71771 0.28982,1.10832 -0.0322,1.27945 -0.43455,0.23095 z m -13.27163,-2.8383 c -0.1336,-1.56831 -0.3015,-1.74239 -2.23732,-2.31864 -1.15115,-0.34268 -3.30107,-0.65362 -4.7776,-0.69095 -1.47654,-0.0374 -2.80729,-0.26641 -2.95722,-0.509 -0.35616,-0.57628 6.42075,-0.21024 8.89756,0.48059 1.52816,0.42623 1.95265,0.39688 2.37681,-0.16436 0.33507,-0.44337 1.34509,-0.68329 2.87662,-0.68329 4.65258,0 6.4111,1.65828 3.45205,3.25524 -0.95089,0.51319 -2.25214,1.29169 -2.89165,1.72999 -1.14157,0.7824 -1.14865,0.78026 -0.38779,-0.11742 0.88564,-1.04495 0.65291,-3.39991 -0.37499,-3.79436 -0.35186,-0.13501 -1.16136,0.0963 -1.79891,0.51404 -0.8676,0.56848 -1.15916,1.16628 -1.15916,2.37666 0,2.14702 -0.83443,2.08274 -1.0184,-0.0784 z m 7.87892,-1.90897 c 0.11356,-0.34101 -0.20706,-0.58138 -0.7754,-0.58138 -0.57131,0 -0.96896,0.30031 -0.96896,0.73177 0,0.8548 1.45132,0.72967 1.74436,-0.15048 z m 22.99603,-0.4475 c -0.88237,-0.61478 -2.53447,-0.75315 -9.3021,-0.77906 -4.82562,-0.0185 -7.45971,-0.1691 -6.36875,-0.36402 2.92523,-0.52283 17.33579,-0.4539 16.51122,0.0789 -0.62014,0.40078 -0.62014,0.45779 0,0.51309 0.38371,0.0343 0.95927,0.0283 1.27903,-0.0141 0.83849,-0.10882 0.71641,0.74416 -0.15434,1.07828 -0.87929,0.3374 -0.66115,0.39447 -1.96508,-0.51402 z m -20.55444,-0.14854 c 0,-0.64694 1.22147,-1.07795 1.8878,-0.66615 0.39186,0.2422 0.36646,0.43998 -0.0941,0.73175 -0.86558,0.54846 -1.79381,0.51452 -1.79381,-0.0656 z"
       id="path4735" />
  </g>
</svg>
