<?xml version="1.0" encoding="UTF-8" standalone="no"?>
<!-- Created with Inkscape (http://www.inkscape.org/) -->

<svg
   width="37.578762mm"
   height="37.028561mm"
   viewBox="0 0 37.578762 37.028562"
   version="1.1"
   id="svg997"
   inkscape:version="1.1 (c4e8f9ed74, 2021-05-24)"
   sodipodi:docname="ornatel2.svg"
   xmlns:inkscape="http://www.inkscape.org/namespaces/inkscape"
   xmlns:sodipodi="http://sodipodi.sourceforge.net/DTD/sodipodi-0.dtd"
   xmlns="http://www.w3.org/2000/svg"
   xmlns:svg="http://www.w3.org/2000/svg">
  <sodipodi:namedview
     id="namedview999"
     pagecolor="#ffffff"
     bordercolor="#666666"
     borderopacity="1.0"
     inkscape:pageshadow="2"
     inkscape:pageopacity="0.0"
     inkscape:pagecheckerboard="0"
     inkscape:document-units="mm"
     showgrid="false"
     inkscape:zoom="1.5385816"
     inkscape:cx="-317.50023"
     inkscape:cy="76.369041"
     inkscape:window-width="2506"
     inkscape:window-height="1403"
     inkscape:window-x="1974"
     inkscape:window-y="0"
     inkscape:window-maximized="1"
     inkscape:current-layer="layer1" />
  <defs
     id="defs994" />
  <g
     inkscape:label="Layer 1"
     inkscape:groupmode="layer"
     id="layer1"
     transform="translate(-222.44242,-158.26748)">
    <path
       style="fill:#000000;stroke-width:0.264583"
       d="m 222.68805,195.10111 c -0.0813,-0.60215 0.0993,-2.08076 0.27671,-2.26549 0.24098,-0.25087 0.61224,1.34546 0.39476,1.69735 -0.0807,0.13058 0.10545,0.23741 0.41367,0.23741 0.30821,0 0.48681,0.11906 0.39687,0.26459 -0.18914,0.30604 -1.44205,0.36196 -1.48201,0.0661 z m 2.68005,-0.0416 c -0.34289,-0.22949 -0.34289,-0.27537 0,-0.38366 0.96355,-0.30431 1.56873,-0.36572 1.43255,-0.14538 -0.19645,0.31786 -0.0148,0.30255 0.79655,-0.0671 0.37064,-0.16888 0.6739,-0.46654 0.6739,-0.66146 0,-0.47977 0.43582,-0.45015 0.62485,0.0425 0.0838,0.21828 0.037,0.39688 -0.10398,0.39688 -0.14096,0 -0.25628,0.10946 -0.25628,0.24325 0,0.14438 0.38651,0.13654 0.95085,-0.0193 1.05695,-0.29184 1.47676,-0.1436 0.72545,0.25617 -0.72822,0.38748 -4.38842,0.643 -4.84389,0.33816 z m 26.24004,-0.0767 c -0.17506,-0.17505 -0.31829,-0.4768 -0.31829,-0.67054 0,-0.19375 -0.17859,-0.4208 -0.39687,-0.50456 -0.47661,-0.18289 -0.51976,-0.9253 -0.0794,-1.36568 0.24695,-0.24695 0.24395,-0.3175 -0.0135,-0.3175 -0.18205,0 -0.50154,0.38695 -0.70999,0.85989 -0.78584,1.78305 -1.06358,1.92576 -3.90733,2.0077 -1.45029,0.0418 -3.02478,-0.0601 -3.57187,-0.2312 -1.83349,-0.57332 -2.44247,-0.90863 -2.30428,-1.26874 0.0744,-0.19393 0.1353,-0.47466 0.1353,-0.62385 0,-0.14919 0.17277,-0.20495 0.38394,-0.12392 0.21117,0.081 0.65766,-0.0809 0.99219,-0.35976 0.33453,-0.2789 0.48323,-0.51106 0.33043,-0.5159 -0.1528,-0.005 -0.43821,0.14002 -0.63425,0.32192 -0.29117,0.27017 -0.32618,0.24482 -0.19117,-0.13841 0.13774,-0.39096 0.0828,-0.42502 -0.32939,-0.2044 -1.1686,0.62541 -2.51031,2.88523 -1.47779,2.48902 0.21828,-0.0838 0.39687,-0.0205 0.39687,0.14059 0,0.16109 -0.36857,0.29289 -0.81905,0.29289 -0.90119,0 -2.35595,-0.89221 -2.35595,-1.44492 0,-0.1928 -0.18833,-0.42282 -0.41851,-0.51115 -0.60456,-0.23198 -0.63982,-0.21308 -0.63982,0.34304 0,0.41748 -0.23761,0.52206 -1.38907,0.61138 -0.76398,0.0593 -1.44514,0.0643 -1.51369,0.0111 -0.26592,-0.20613 0.69502,-0.5891 1.48781,-0.59295 0.68718,-0.003 0.88273,-0.14379 1.11072,-0.7978 0.34283,-0.98346 -0.21995,-1.13037 -0.72379,-0.18894 -0.25895,0.48385 -0.76434,0.69551 -2.52697,1.05833 -2.95042,0.60732 -2.87316,0.62356 -2.40169,-0.50482 0.50251,-1.20267 0.51278,-2.49102 0.0252,-3.15785 -0.48797,-0.66734 -0.81858,-0.33552 -0.41572,0.41723 0.49049,0.9165 0.094,2.23626 -0.94623,3.14959 -1.21233,1.06444 -3.12871,1.1548 -4.23888,0.19987 -0.64448,-0.55435 -0.71524,-0.7924 -0.72745,-2.44739 -0.0143,-1.94223 0.6342,-3.66646 2.10765,-5.60362 0.62683,-0.8241 0.54731,-1.20341 -0.11371,-0.5424 -0.17639,0.17639 -0.3175,0.19991 -0.3175,0.0529 0,-0.14552 0.1223,-0.38688 0.27176,-0.53635 0.18596,-0.18595 0.0504,-0.37263 -0.42947,-0.59126 -0.66872,-0.30469 -0.69529,-0.2884 -0.57303,0.35114 0.0705,0.36885 0.0298,0.67063 -0.0904,0.67063 -0.34038,0 -0.78048,-0.97827 -0.6238,-1.38658 0.0774,-0.20163 -0.10165,-0.58589 -0.39782,-0.85393 -0.58004,-0.52492 -0.7756,-2.60879 -0.27391,-2.91885 0.1572,-0.0972 0.26458,0.21359 0.26458,0.76569 0,1.16056 0.44355,2.16127 1.16526,2.62895 0.30499,0.19765 1.37904,0.62434 2.38676,0.94821 1.00773,0.32386 2.52652,0.95018 3.37509,1.39182 1.59532,0.83027 2.45865,0.85296 2.15305,0.0566 -0.14458,-0.37677 -0.0509,-0.41945 0.59977,-0.27333 0.69676,0.15647 0.62029,0.0327 -0.79308,-1.28331 -0.8603,-0.80107 -1.66397,-1.45648 -1.78593,-1.45648 -0.47845,0 -0.17859,0.49927 0.70429,1.17268 1.95956,1.49463 0.84098,1.70542 -2.80143,0.5279 -3.49373,-1.12944 -4.7392,-2.0424 -4.7392,-3.47392 0,-0.69336 0.20563,-1.11686 0.82173,-1.69239 0.4776,-0.44614 0.66597,-0.76761 0.4498,-0.76761 -0.20457,0 -0.51283,0.14089 -0.68503,0.31309 -0.1722,0.1722 -0.38028,0.24591 -0.46239,0.16379 -0.29978,-0.29978 0.72814,-1.00604 1.46423,-1.00604 0.75182,0 0.75597,-0.009 0.63156,-1.37801 -0.0689,-0.75791 -0.17683,-1.42962 -0.2399,-1.49269 -0.0631,-0.0631 -0.32602,0.13076 -0.58432,0.43075 -0.2583,0.29999 -0.83522,0.61928 -1.28204,0.70953 l -0.81241,0.1641 0.10062,-2.1934 c 0.14929,-3.25413 0.10653,-4.21061 -0.20497,-4.58596 -0.19897,-0.23974 -0.19543,-0.39129 0.0122,-0.51958 0.16118,-0.0996 0.25993,-0.43764 0.21945,-0.75116 -0.0405,-0.31352 0.0287,-0.73455 0.15381,-0.93561 0.15038,-0.24172 0.0804,-0.44786 -0.2066,-0.60846 -0.43649,-0.24427 -0.61276,-1.66251 -0.23558,-1.89539 0.17302,-0.10682 0.1686,-2.25888 -0.0106,-5.17821 -0.0551,-0.89702 -0.0462,-0.90444 1.16863,-0.97784 0.99297,-0.06 1.33208,0.041 1.79582,0.53457 0.672,0.71532 1.76952,0.64061 2.01641,-0.13727 0.1896,-0.5974 0.91677,-0.67243 0.91677,-0.0946 0,0.22295 -0.18133,0.83934 -0.40295,1.36976 -0.25021,0.59883 -0.30909,1.05824 -0.15535,1.21199 0.3678,0.36779 0.82288,-0.0236 0.82288,-0.70766 0,-0.83329 1.0466,-1.73984 1.99475,-1.72782 0.43086,0.005 1.17033,-0.0704 1.64327,-0.1686 0.70847,-0.14708 0.8599,-0.0976 0.8599,0.28078 0,0.38493 0.0664,0.40417 0.41026,0.11881 0.34653,-0.28759 0.43354,-0.25152 0.56003,0.23219 0.0824,0.31497 0.24132,0.57267 0.35324,0.57267 0.3559,0 1.49034,-0.65941 1.98439,-1.15346 0.4377,-0.4377 0.82766,-0.46046 4.73609,-0.2765 2.34251,0.11026 4.55677,0.17918 4.92057,0.15315 1.71441,-0.12264 2.49686,1.9e-4 3.20265,0.50275 0.92775,0.66061 2.23971,0.60907 2.18456,-0.0858 -0.0283,-0.35712 0.16834,-0.46302 0.8599,-0.46302 0.49315,0 0.89664,0.10948 0.89664,0.2433 0,0.13381 0.46796,0.0595 1.03992,-0.1652 1.35866,-0.53369 2.78505,-0.27892 3.36117,0.60035 0.33547,0.51199 0.50712,0.58833 0.79175,0.35211 0.19987,-0.16588 0.36341,-0.46562 0.36341,-0.66609 0,-0.20046 0.23813,-0.36447 0.52917,-0.36447 0.40921,0 0.52916,0.17639 0.52916,0.77813 0,0.82357 -0.37459,1.27352 -0.66673,0.80083 -0.12183,-0.19713 -0.28234,-0.19194 -0.53446,0.0173 -0.29489,0.24474 -0.21435,0.44175 0.44351,1.08482 0.56122,0.54862 0.74565,0.92141 0.61105,1.23516 -0.10604,0.24716 -0.24998,0.80657 -0.31989,1.24313 -0.0699,0.43656 -0.30964,1.00211 -0.53275,1.25677 -0.37079,0.42323 -0.35665,0.46302 0.16452,0.46302 0.32005,0 0.57017,0.16725 0.57017,0.38126 0,0.47469 -0.59586,0.87385 -0.72521,0.48581 -0.0637,-0.19105 -0.43938,-0.14966 -1.14009,0.12559 -1.21198,0.47607 -1.39493,0.91616 -0.28891,0.69495 0.90318,-0.18063 1.0137,0.0881 1.26446,3.07489 0.0916,1.09141 0.33028,2.17341 0.53032,2.40445 0.31275,0.36121 0.28926,0.48745 -0.16759,0.9009 -0.29222,0.26446 -0.53396,0.67074 -0.5372,0.90285 -0.005,0.33305 -0.10224,0.30305 -0.46302,-0.14234 -0.69631,-0.85961 -1.57582,-1.21243 -2.52317,-1.0122 -0.85827,0.18141 -2.03501,1.06385 -2.03501,1.52606 0,0.13978 0.24677,-0.0596 0.54837,-0.44299 0.43954,-0.55879 0.77272,-0.69714 1.67879,-0.69714 1.26933,0 1.81706,0.43685 2.30589,1.83913 0.27835,0.79847 0.24845,0.92555 -0.32742,1.39143 -0.43072,0.34845 -0.52727,0.55606 -0.30137,0.64804 0.18281,0.0744 0.26507,0.24424 0.18282,0.37733 -0.0823,0.13309 0.0897,0.24198 0.38208,0.24198 0.2924,0 0.65299,0.20836 0.80132,0.46302 0.25451,0.43697 0.27013,0.43609 0.27773,-0.0156 0.004,-0.26325 0.10792,-0.41691 0.22999,-0.34147 0.32253,0.19934 0.23397,3.23088 -0.0896,3.06906 -0.14553,-0.0728 -0.23437,-0.45971 -0.19743,-0.85989 0.078,-0.84546 0.003,-0.8724 -0.85858,-0.30793 -0.35228,0.23083 -0.76481,0.34286 -0.91673,0.24897 -0.17715,-0.10948 -0.26521,0.23821 -0.24553,0.96938 0.0169,0.62705 0.0841,0.93714 0.14938,0.68907 0.0815,-0.30986 0.35464,-0.43408 0.87252,-0.39688 0.41461,0.0298 0.70561,0.10273 0.64667,0.1621 -0.059,0.0594 -8e-4,0.23797 0.1293,0.39688 0.3164,0.38658 0.47088,1.38813 0.22196,1.439 -0.10914,0.0223 -0.40085,0.0405 -0.64823,0.0405 -0.33569,0 -0.37357,-0.0762 -0.1493,-0.30049 0.22426,-0.22426 0.20093,-0.40005 -0.092,-0.69295 -0.21586,-0.21586 -0.42801,-0.34853 -0.47144,-0.29483 -0.22822,0.28217 -0.9443,1.9155 -0.87164,1.98816 0.0466,0.0466 0.46388,-0.0239 0.92718,-0.15678 0.78197,-0.22426 0.84238,-0.19547 0.84238,0.4014 0,0.38346 0.15389,0.64299 0.38126,0.64299 0.20969,0 0.45754,0.12343 0.55078,0.2743 0.30879,0.49963 -0.17795,2.37807 -0.81124,3.13069 -0.71587,0.85076 -0.62677,1.76184 0.19327,1.97628 0.44536,0.11647 0.50133,0.27838 0.35139,1.01665 -0.0981,0.48297 -0.49119,1.14038 -0.87357,1.46092 -0.43699,0.36632 -0.69944,0.85771 -0.70658,1.32292 -0.0108,0.70492 -0.0711,0.74012 -1.26761,0.74012 -0.69094,0 -1.25648,-0.0808 -1.25677,-0.17956 -5.3e-4,-0.20967 -2.00643,-0.10752 -2.79342,0.14226 -0.2966,0.0941 -0.6825,0.0279 -0.85756,-0.14713 z m -4.28704,-0.74161 c 0.33047,-0.21357 0.30833,-0.26116 -0.13229,-0.2844 -0.35827,-0.0189 -0.26588,-0.10436 0.2861,-0.26463 0.4484,-0.1302 1.03898,-0.48392 1.3124,-0.78605 0.42518,-0.46981 0.44121,-0.58468 0.11077,-0.79369 -0.21249,-0.13441 -0.54976,-0.24621 -0.74948,-0.24843 -0.29281,-0.003 -0.29934,0.0728 -0.0337,0.39282 0.4451,0.53631 -0.13543,1.26727 -0.8311,1.04648 -0.44299,-0.1406 -0.52665,-0.0339 -0.4762,0.60717 0.009,0.10914 -0.2593,0.27586 -0.59531,0.3705 -0.60749,0.17109 -0.60721,0.17219 0.0505,0.19438 0.3638,0.0123 0.84005,-0.0931 1.05833,-0.23415 z m 5.29167,-0.0178 c 0,-0.15532 0.20836,-0.22201 0.46302,-0.14819 0.25466,0.0738 1.29646,0.1693 2.31511,0.21216 l 1.85208,0.0779 -0.0815,-0.7577 c -0.0634,-0.5894 0.008,-0.72321 0.32307,-0.60244 0.46698,0.17919 1.29549,-0.53413 1.06102,-0.91351 -0.0866,-0.14017 -0.0136,-0.42823 0.16225,-0.64013 0.60515,-0.72915 -0.0494,-0.38322 -1.35004,0.71348 -1.09398,0.92246 -1.2502,1.16292 -0.97352,1.49853 0.28677,0.34784 0.25452,0.35977 -0.24835,0.0918 -0.31785,-0.16934 -1.04741,-0.30789 -1.62124,-0.30789 -0.61737,0 -1.18161,-0.16662 -1.38202,-0.40809 -0.21741,-0.26197 -0.43003,-0.31674 -0.5938,-0.15297 -0.14032,0.14031 -0.41821,0.19254 -0.61753,0.11605 -0.4975,-0.19091 -0.76552,0.62612 -0.36407,1.10983 0.37752,0.45488 1.05554,0.52624 1.05554,0.11109 z m -7.9375,-0.24675 c 0,-0.14552 0.29347,-0.26458 0.65215,-0.26458 0.38646,0 0.7703,-0.22077 0.94216,-0.54188 0.19481,-0.36402 0.4511,-0.49076 0.78079,-0.38612 0.26993,0.0857 0.56736,0.0319 0.66096,-0.11957 0.0962,-0.15568 -0.0598,-0.27535 -0.359,-0.27535 -0.29104,0 -0.60275,-0.11906 -0.69268,-0.26458 -0.2522,-0.40806 -3.64265,-0.34407 -3.50501,0.0661 0.061,0.18191 0.3291,0.33124 0.59569,0.33186 0.26659,5.2e-4 0.53416,0.14944 0.59459,0.33072 0.0717,0.21509 -0.17069,0.32961 -0.69763,0.32961 -0.60907,0 -0.77007,-0.0975 -0.6552,-0.39687 0.19895,-0.51846 -0.28698,-0.50507 -1.10425,0.0304 -0.91518,0.59965 -0.81893,0.82712 0.47233,1.11629 1.53688,0.34417 2.3151,0.35893 2.3151,0.0439 z m 4.45538,-0.40917 0.30699,-0.67376 -0.65308,0.47532 c -0.72759,0.52955 -0.85146,0.8722 -0.3153,0.8722 0.19492,0 0.49255,-0.3032 0.66139,-0.67376 z m -20.66035,-1.11447 c 0.14226,-0.42678 -0.56824,-0.69223 -1.32427,-0.49475 -0.32709,0.0854 -1.01144,0.42243 -1.52076,0.74887 l -0.92604,0.59353 1.05833,0.15651 c 1.10079,0.1628 2.4959,-0.35362 2.71274,-1.00416 z m 5.55549,-0.22483 c 0.1819,-0.0479 0.33073,-0.2098 0.33073,-0.35989 0,-0.40971 -2.00576,-0.32845 -2.35763,0.0955 -0.16816,0.20263 -0.65899,0.51473 -1.09073,0.69356 -1.46942,0.60865 -0.79139,0.74413 1.00096,0.2 0.98227,-0.29821 1.93477,-0.58134 2.11667,-0.62919 z m 4.29948,0.98558 c 0,-0.12855 -0.23862,-0.29612 -0.53026,-0.37239 -0.37875,-0.099 -0.47902,-0.27218 -0.35094,-0.60596 0.13755,-0.35844 0.0781,-0.42847 -0.25502,-0.30062 -0.23888,0.0917 -0.5059,0.0509 -0.59338,-0.0907 -0.0875,-0.14154 -0.27957,-0.18286 -0.42687,-0.0918 -0.14887,0.092 0.12364,0.50043 0.6136,0.91961 0.87891,0.75194 1.54287,0.98512 1.54287,0.54186 z m 0.76874,-0.52144 c -0.39103,-0.1344 -0.58967,0.13816 -0.36529,0.50123 0.14226,0.23017 0.24953,0.21762 0.41489,-0.0485 0.13101,-0.21085 0.11054,-0.39764 -0.0496,-0.45268 z m 16.35071,0.2485 c 0.85539,-0.24532 2.72428,-1.57668 2.72429,-1.94073 2e-5,-0.43634 -0.85463,-0.16 -1.43203,0.46302 -0.71647,0.77308 -1.47838,0.86853 -1.47838,0.18521 0,-0.72225 0.53378,-1.1083 1.57427,-1.1386 l 0.93928,-0.0273 -1.01479,-0.26887 c -0.96416,-0.25545 -1.06372,-0.22108 -1.99553,0.68881 -0.53941,0.52671 -1.18408,0.95767 -1.43261,0.95767 -0.5897,0 -0.58226,0.6915 0.0112,1.03714 0.58256,0.33931 1.04044,0.34881 2.10434,0.0437 z m -30.71166,-3.50988 c -0.26676,-0.70807 -0.22999,-0.84753 0.34667,-1.31476 0.3548,-0.28747 0.96933,-0.58752 1.36563,-0.66677 0.65155,-0.13031 1.01653,-0.67777 1.0284,-1.54255 0.002,-0.14552 -0.38018,-0.25324 -0.84927,-0.23938 -0.77756,0.023 -0.93112,0.17967 -1.73818,1.77379 -0.93007,1.8371 -1.25405,4.03511 -0.74879,5.08017 0.42385,0.87671 0.98773,-2.04948 0.59554,-3.0905 z m 6.44846,2.53303 c 0,-0.0572 -0.17859,-0.10398 -0.39687,-0.10398 -0.21829,0 -0.39688,0.11532 -0.39688,0.25628 0,0.14095 0.17859,0.18774 0.39688,0.10398 0.21828,-0.0838 0.39687,-0.19909 0.39687,-0.25628 z m 7.67292,0.18891 c 0,-0.12996 -0.1786,-0.30481 -0.39688,-0.38858 -0.24175,-0.0928 -0.39687,-5.3e-4 -0.39687,0.23628 0,0.21371 0.17859,0.38857 0.39687,0.38857 0.21828,0 0.39688,-0.10632 0.39688,-0.23627 z m 1.35666,-0.20392 c 0.32927,-0.39915 0.30762,-0.41062 -0.23218,-0.12298 -0.61568,0.32806 -0.76728,0.56317 -0.36313,0.56317 0.1277,0 0.39559,-0.19808 0.59531,-0.44019 z m -11.90673,-0.88272 c 0.4996,0 0.76048,-0.13615 0.76048,-0.39688 0,-0.2877 -0.29591,-0.39687 -1.07572,-0.39687 -0.59165,0 -1.29498,-0.11734 -1.56296,-0.26076 -0.40856,-0.21866 -0.5339,-0.12685 -0.77635,0.56865 -0.43135,1.23738 -0.38343,1.2894 0.80247,0.87099 0.60037,-0.21182 1.43381,-0.38513 1.85208,-0.38513 z m 24.24563,-0.19796 0.25391,-0.72809 h -5.90882 c -5.79499,0 -5.92043,-0.0116 -6.51171,-0.60229 -0.59715,-0.59654 -0.60364,-0.67849 -0.68043,-8.59037 -0.0816,-8.4129 -0.078,-8.38968 -1.31153,-8.39808 -0.65673,-0.004 -0.66396,0.12851 -0.60708,11.1589 0.0224,4.33831 -0.30493,5.73267 -1.47025,6.26362 -0.36275,0.16528 -1.78504,0.30052 -3.16064,0.30052 -2.0128,0 -2.5011,0.0752 -2.5011,0.38509 0,0.32985 1.3716,0.38602 9.56046,0.39154 9.36552,0.006 11.19738,0.0988 11.49512,0.58059 0.22149,0.35837 0.55751,0.0545 0.84207,-0.76143 z m 1.55847,0.0737 c 0.30531,-0.21385 0.81113,-0.93347 1.12404,-1.59916 0.51868,-1.10344 0.53328,-1.26125 0.16522,-1.78672 -0.22204,-0.31701 -0.40828,-0.93684 -0.41387,-1.3774 l -0.0102,-0.80103 -1.17502,1.32292 c -0.64626,0.7276 -1.17747,1.59081 -1.18046,1.91823 -0.007,0.73297 0.10916,0.73814 1.07819,0.0481 0.87532,-0.62329 0.93205,-0.53665 0.36571,0.55852 -0.6256,1.20978 -0.92673,2.10533 -0.70792,2.10533 0.10954,0 0.44897,-0.17497 0.75428,-0.38882 z m -2.15036,-2.19767 c -0.16498,-0.42551 -0.2011,-0.42332 -0.53669,0.0325 -0.19789,0.2688 -0.29689,0.6527 -0.21999,0.85309 0.11627,0.30299 0.20667,0.29751 0.53669,-0.0325 0.2302,-0.2302 0.32259,-0.58848 0.21999,-0.8531 z m 5.53335,0.92014 c -0.0725,-0.18888 0.16571,-0.62291 0.52932,-0.9645 0.3636,-0.34159 0.60029,-0.71946 0.52597,-0.83972 -0.0743,-0.12026 0.0645,-0.52339 0.30857,-0.89584 0.51494,-0.78589 0.3247,-1.18031 -0.27839,-0.57721 -0.22607,0.22607 -0.63483,0.48207 -0.90835,0.56888 -0.47839,0.15183 -2.07015,2.17475 -1.85397,2.35613 0.76528,0.64211 1.87776,0.87581 1.67685,0.35226 z m -32.13077,-0.67447 c 0,-0.2688 0.26789,-0.61793 0.59531,-0.77584 0.32742,-0.15791 0.44648,-0.29517 0.26458,-0.30502 -0.38727,-0.021 -1.38906,0.9202 -1.38906,1.30501 0,0.14552 0.11906,0.26459 0.26458,0.26459 0.14552,0 0.26459,-0.21993 0.26459,-0.48874 z m 2.64583,0.0635 c 0,-0.27713 -0.14422,-0.36984 -0.41418,-0.26624 -0.3243,0.12444 -0.37897,0.0301 -0.25195,-0.43472 0.13396,-0.49018 0.11384,-0.51691 -0.11541,-0.15336 -0.1527,0.24215 -0.20518,0.6291 -0.11662,0.85989 0.21017,0.54768 0.89816,0.54341 0.89816,-0.006 z m 1.32292,-0.48878 0.66146,-0.78167 -0.66146,0.41641 c -0.36381,0.22903 -0.70414,0.64031 -0.7563,0.91396 -0.0522,0.27366 -0.0522,0.43803 0,0.36527 0.0522,-0.0728 0.39249,-0.48405 0.7563,-0.91397 z m 2.5852,0.59977 c -0.0576,-0.1728 -0.26269,-0.36684 -0.45576,-0.4312 -0.20746,-0.0692 -0.27623,0.004 -0.16816,0.17887 0.11706,0.1894 0.0327,0.23824 -0.2345,0.13572 -0.32263,-0.1238 -0.34842,-0.24324 -0.11364,-0.52613 0.23354,-0.2814 0.21982,-0.36504 -0.0594,-0.36193 -0.63652,0.007 -1.04809,0.42058 -0.87295,0.877 0.20089,0.5235 2.07829,0.64936 1.9044,0.12767 z m 3.10334,-0.47955 c 0,-0.61383 -0.0953,-0.66337 -1.32292,-0.68797 -2.1083,-0.0423 -2.31668,0.0613 -1.63282,0.81134 0.45947,0.50393 0.81287,0.62088 1.76511,0.58409 1.08135,-0.0418 1.19063,-0.10672 1.19063,-0.70746 z m 1.16974,-0.19844 c -0.0115,-0.54571 -0.0831,-0.83705 -0.15902,-0.64744 -0.10377,0.259 -0.23383,0.22609 -0.52287,-0.13229 -0.35064,-0.43475 -0.35789,-0.42186 -0.0818,0.14532 0.16663,0.3423 0.24388,0.84831 0.17166,1.12448 -0.083,0.31732 0.006,0.50212 0.2408,0.50212 0.25731,0 0.36566,-0.30609 0.35122,-0.99219 z m 6.22359,0.40415 c 0.84832,-1.21114 0.32955,-2.47855 -1.37406,-3.35696 -0.55136,-0.2843 -0.59531,-0.25006 -0.59531,0.46371 0,0.82254 0.59033,1.52157 1.04674,1.23949 0.1519,-0.0939 0.40795,-0.0892 0.569,0.0103 0.20796,0.12852 0.19726,0.24005 -0.0369,0.38477 -0.37019,0.2288 -0.5806,1.84674 -0.24017,1.84674 0.12035,0 0.40417,-0.26462 0.6307,-0.58804 z m 3.31147,-1.27431 c 0.75757,-1.04155 1.756,-2.06284 2.3233,-2.37648 l 0.99482,-0.54999 -1.05635,0.13923 c -1.41064,0.18592 -2.17668,-0.21239 -3.44157,-1.78949 -0.97781,-1.21915 -3.31608,-3.08592 -3.86535,-3.08592 -0.46849,0 -0.22292,1.02672 0.28405,1.18763 0.68363,0.21697 2.62462,2.43464 2.82312,3.22552 0.0857,0.34144 0.0115,0.79471 -0.16493,1.00727 -0.28106,0.33865 -0.41544,0.3375 -1.08608,-0.009 -1.22878,-0.63541 -2.09185,-0.91691 -2.09185,-0.68225 0,0.11982 0.48917,0.43844 1.08704,0.70804 1.705,0.76885 2.17058,1.91882 1.4512,3.58445 -0.14322,0.33161 -0.0109,0.42727 0.61585,0.44509 0.69248,0.0197 0.97435,-0.21937 2.12675,-1.80379 z m -2.10584,1.20719 c 0,-0.23199 0.20209,-0.74503 0.44908,-1.14009 0.247,-0.39506 0.34807,-0.63085 0.2246,-0.52397 -0.12347,0.10688 -0.3813,-0.0122 -0.57296,-0.26458 -0.4607,-0.6067 -0.45151,-0.85579 0.0316,-0.85579 0.21828,0 0.39687,0.1786 0.39687,0.39688 0,0.78088 0.47366,0.37884 0.6479,-0.54994 0.13283,-0.70802 0.0345,-1.22134 -0.3897,-2.03526 -0.75326,-1.44515 0.0169,-0.83108 0.86841,0.69238 l 0.61428,1.09907 -0.60586,0.89902 c -0.33322,0.49446 -0.60586,1.12657 -0.60586,1.40468 0,0.27811 -0.11906,0.43207 -0.26458,0.34213 -0.14552,-0.0899 -0.26459,0.0151 -0.26459,0.23335 0,0.21829 -0.11906,0.47046 -0.26458,0.5604 -0.14552,0.0899 -0.26458,-0.0263 -0.26458,-0.25828 z m 2.29021,-0.008 c 0.3908,-0.84258 0.0999,-0.83674 -0.51663,0.0104 -0.3394,0.46634 -0.37724,0.65256 -0.13229,0.65108 0.1887,-0.001 0.48071,-0.29879 0.64892,-0.66145 z m 1.94312,0.51383 c 0,-0.0823 -0.12854,-0.38986 -0.28564,-0.68341 -0.27225,-0.50871 -0.30945,-0.51218 -0.79375,-0.0739 -0.71513,0.64718 -0.6333,0.90699 0.28564,0.90699 0.43656,0 0.79375,-0.0674 0.79375,-0.14969 z m 3.09123,-0.31334 c 0.0903,-0.25466 0.34315,-0.67138 0.56187,-0.92604 0.49312,-0.57416 0.10415,-0.60305 -0.68428,-0.0508 -0.3326,0.23297 -0.73211,0.32213 -0.91876,0.20505 -0.18165,-0.11394 -0.52808,-0.17467 -0.76985,-0.13496 -0.24177,0.0397 -0.51669,-0.0526 -0.61093,-0.20504 -0.0942,-0.15249 -0.49174,-0.26785 -0.88333,-0.25636 -0.3916,0.0115 -0.56066,0.0818 -0.3757,0.1562 0.18497,0.0744 0.51545,0.48174 0.7344,0.90515 0.35023,0.67726 0.54148,0.76985 1.59024,0.76985 0.89642,0 1.23287,-0.11486 1.35634,-0.46303 z m -24.39019,-0.33072 c 0.0899,-0.14553 0.0445,-0.26459 -0.10106,-0.26459 -0.14552,0 -0.33817,0.11906 -0.4281,0.26459 -0.0899,0.14552 -0.0445,0.26458 0.10106,0.26458 0.14552,0 0.33816,-0.11906 0.4281,-0.26458 z m 10.3309,-2.58959 c -0.0843,-0.0843 -0.28232,-0.0242 -0.44006,0.13354 -0.20602,0.20602 -0.18615,0.56843 0.0705,1.28659 l 0.35736,0.99978 0.0827,-1.13333 c 0.0455,-0.62333 0.0137,-1.20229 -0.0706,-1.28658 z m 4.08889,2.07603 c 0,-0.13693 -0.11906,-0.32255 -0.26458,-0.41249 -0.14552,-0.0899 -0.26458,0.0221 -0.26458,0.24897 0,0.22687 0.11906,0.41249 0.26458,0.41249 0.14552,0 0.26458,-0.11203 0.26458,-0.24897 z M 229.75518,187.502 c 0.41295,-0.21424 1.28976,-0.47231 1.94847,-0.57349 l 1.19766,-0.18395 -1.32291,-0.38105 c -0.72761,-0.20957 -1.75508,-0.43889 -2.28327,-0.5096 -0.93586,-0.12528 -0.96321,-0.10411 -1.0723,0.83032 -0.15843,1.35708 0.1626,1.5284 1.53235,0.81777 z m 20.50491,-0.23751 c -0.24265,-0.29238 -0.22177,-0.46488 0.0946,-0.78124 0.2233,-0.22331 0.40601,-0.59311 0.40601,-0.82178 0,-0.74552 -0.54692,-0.43793 -0.9541,0.5366 -0.36724,0.87894 -0.36113,0.97928 0.0792,1.30128 0.57879,0.42322 0.80344,0.28225 0.37427,-0.23486 z m -18.48326,0.18722 c -0.1819,-0.0734 -0.47955,-0.0734 -0.66146,0 -0.1819,0.0734 -0.0331,0.13346 0.33073,0.13346 0.36381,0 0.51263,-0.0601 0.33073,-0.13346 z m 3.43959,-0.52431 c 0.40018,-0.20481 0.7276,-0.55398 0.7276,-0.77593 0,-0.31272 -0.19352,-0.25902 -0.8599,0.23861 -0.47294,0.35319 -1.33614,0.77133 -1.91822,0.92921 l -1.05834,0.28705 1.19063,-0.15327 c 0.65484,-0.0843 1.51804,-0.32086 1.91823,-0.52567 z m 17.61434,0.0815 c 0.10404,-0.53646 -0.66984,-0.88802 -1.07123,-0.48664 -0.20828,0.20828 -0.19229,0.40443 0.0575,0.7054 0.41317,0.49784 0.89492,0.39388 1.01373,-0.21876 z m 4.20257,-0.59113 c 0.741,-1.31395 0.42371,-1.70651 -0.83251,-1.02999 -0.7827,0.42151 -0.89995,0.60097 -0.76448,1.17008 0.33737,1.41731 0.73855,1.38212 1.59699,-0.14009 z m -8.41053,-0.0405 c 0.4023,-0.88295 0.23863,-0.99297 -0.73116,-0.49147 -0.89024,0.46036 -1.20248,0.83167 -0.98934,1.17653 0.27067,0.43796 1.41674,-0.0184 1.7205,-0.68506 z m 1.76474,-2.38663 c -0.14527,-0.14527 -1.47894,2.4344 -1.47894,2.86066 0,0.16514 0.35986,-0.38385 0.79969,-1.21998 0.43983,-0.83613 0.74549,-1.57443 0.67925,-1.64068 z m -16.59808,2.01982 c -0.19744,-0.1251 -0.53758,-0.22549 -0.75586,-0.22309 -0.3052,0.003 -0.28092,0.0921 0.10513,0.38434 0.2761,0.20899 0.61623,0.30939 0.75585,0.2231 0.14632,-0.0904 0.10179,-0.25324 -0.10512,-0.38435 z m -6.06406,-1.12597 c -0.2516,-0.23175 -0.28688,-0.18968 -0.1547,0.18444 0.0942,0.26657 0.18745,0.68329 0.20727,0.92605 0.0198,0.24275 0.0894,0.15975 0.15469,-0.18445 0.0653,-0.34421 -0.028,-0.76093 -0.20726,-0.92604 z m 30.65963,0.71238 c -0.046,-0.38897 -0.2124,-0.74936 -0.36967,-0.80088 -0.17868,-0.0585 -0.24185,0.20677 -0.16841,0.7072 0.14486,0.98698 0.65433,1.07567 0.53808,0.0937 z m -23.1157,-0.3214 c -0.13824,-0.12917 -0.54901,-0.32255 -0.91281,-0.42974 l -0.66146,-0.19489 0.64473,0.69782 c 0.43543,0.4713 0.73175,0.6108 0.91281,0.42974 0.16892,-0.16892 0.17511,-0.35496 0.0167,-0.50293 z m 16.81427,0.52774 c 0,-0.3246 -0.7454,-0.58517 -0.91037,-0.31824 -0.0735,0.11887 -0.0574,0.29226 0.0356,0.38532 0.25215,0.25215 0.87475,0.20441 0.87475,-0.0671 z m 1.26214,-0.0784 c -0.23883,-0.7165 -2.58505,-1.89252 -2.58505,-1.29574 0,0.15256 0.28889,0.34988 0.64198,0.4385 0.3531,0.0886 0.8478,0.38855 1.09934,0.6665 0.50997,0.56351 1.00531,0.67549 0.84373,0.19074 z m 0.85453,-0.87599 c 0,-0.7745 -0.36374,-1.02493 -1.18814,-0.81802 l -0.62889,0.15784 0.71008,0.73981 c 0.8104,0.84433 1.10695,0.823 1.10695,-0.0796 z m -27.25208,0.13229 c 0,-0.14552 -0.11907,-0.26458 -0.26459,-0.26458 -0.14552,0 -0.26458,0.11906 -0.26458,0.26458 0,0.14552 0.11906,0.26458 0.26458,0.26458 0.14552,0 0.26459,-0.11906 0.26459,-0.26458 z m 10.05416,-0.39242 c 0,-0.96245 -2.1473,-2.01194 -3.36511,-1.6447 -0.67199,0.20265 -0.99765,0.16109 -1.54431,-0.19709 -0.381,-0.24965 -0.75227,-0.39438 -0.82503,-0.32162 -0.20067,0.20067 1.09261,0.97899 3.18949,1.91948 2.32932,1.04475 2.54496,1.06542 2.54496,0.24393 z m 18.94337,-0.52558 c -0.18881,-0.7523 -0.71944,-1.07983 -1.35457,-0.8361 -0.3385,0.12989 -0.34907,0.24981 -0.0661,0.75062 0.78173,1.38376 1.76135,1.4427 1.42071,0.0855 z m -12.51562,0.75205 c 0.38648,-0.38647 -2.12403,-3.27363 -2.84656,-3.27363 -0.0779,0 -0.1416,0.50909 -0.1416,1.13132 0,1.06854 0.0624,1.16177 1.12448,1.67988 1.25879,0.61408 1.62194,0.70418 1.86368,0.46243 z m -12.24858,-0.6278 c 0,-0.14552 -0.11906,-0.26458 -0.26458,-0.26458 -0.14552,0 -0.26459,0.11906 -0.26459,0.26458 0,0.14552 0.11907,0.26458 0.26459,0.26458 0.14552,0 0.26458,-0.11906 0.26458,-0.26458 z m 18.25625,-0.26961 c 0.63274,-0.17562 0.61267,-0.20516 -0.46214,-0.68048 -1.04506,-0.46216 -1.13528,-0.58502 -1.29085,-1.75778 -0.0958,-0.72193 -0.30481,-1.26088 -0.48905,-1.26088 -0.17698,0 -0.54859,-0.25859 -0.82581,-0.57465 -0.32151,-0.36656 -0.36031,-0.49491 -0.10715,-0.35445 0.23592,0.13089 0.30746,0.12251 0.17639,-0.0207 -0.12127,-0.13247 -0.29986,-0.24268 -0.39688,-0.24491 -0.097,-0.002 -0.33091,-0.10207 -0.51978,-0.22188 -0.46578,-0.29546 -1.11181,-0.0153 -1.11181,0.48221 0,0.48712 0.43107,0.53901 0.61852,0.0745 0.0822,-0.20363 0.14148,-0.1588 0.15434,0.11668 0.0307,0.65823 -0.49735,0.86754 -0.97747,0.38742 -0.34604,-0.34604 -0.36363,-0.53863 -0.10166,-1.11358 0.28305,-0.62123 0.2458,-0.75098 -0.35014,-1.21975 -0.36679,-0.28852 -0.98829,-1.08141 -1.38111,-1.76199 -0.39283,-0.68058 -0.869,-1.33264 -1.05815,-1.44901 -0.18915,-0.11637 -0.34392,-0.37723 -0.34392,-0.57969 0,-0.20247 -0.11906,-0.4417 -0.26458,-0.53164 -0.16623,-0.10274 -0.26458,0.48908 -0.26458,1.59216 v 1.75568 l 0.91997,-0.0793 c 0.9853,-0.0849 1.30579,0.11643 1.56686,0.98426 0.13849,0.46036 -0.051,0.64987 -1.17749,1.17748 l -1.34254,0.62881 1.21435,0.61715 c 1.54301,0.78418 2.09593,1.24748 3.21546,2.6943 1.38301,1.78733 2.16581,2.0154 4.59922,1.34002 z m -19.05,-0.42425 c 0,-0.35157 -0.0718,-0.36965 -0.39687,-0.0999 -0.21829,0.18116 -0.39688,0.37433 -0.39688,0.42927 0,0.0549 0.17859,0.0999 0.39688,0.0999 0.21828,0 0.39687,-0.19318 0.39687,-0.42928 z m -0.91516,-0.11749 c 0.0959,-0.15521 0.12751,-0.32908 0.0702,-0.38639 -0.18173,-0.18173 -1.27171,0.19097 -1.27171,0.43485 0,0.33109 0.99165,0.29109 1.20151,-0.0485 z m 20.89335,-0.28213 c -1.68151,-0.68171 -1.91399,-0.88436 -2.12698,-1.85414 -0.23549,-1.07215 -0.43796,-0.80434 -0.21912,0.28983 0.14404,0.72023 0.40089,0.97231 1.52319,1.49488 0.74246,0.34572 1.52852,0.62324 1.7468,0.61673 0.21829,-0.007 -0.19747,-0.2528 -0.92389,-0.5473 z m 3.93327,-0.23567 c 0.50112,-0.43998 0.962,-0.70787 1.02418,-0.59531 0.0622,0.11257 0.073,0.0461 0.0241,-0.1477 -0.0489,-0.1938 -0.10111,-0.72959 -0.11601,-1.19063 l -0.0271,-0.83825 -0.20375,0.85826 c -0.27086,1.14096 -0.72077,1.64273 -1.99104,2.22057 -0.97244,0.44235 -1.00003,0.48189 -0.33994,0.48723 0.42834,0.003 1.08627,-0.31719 1.62952,-0.79417 z m -17.29688,0.40848 c 0,-0.0698 -0.47625,-0.36987 -1.05833,-0.66683 -0.58208,-0.29696 -1.05563,-0.44821 -1.05232,-0.33611 0.0102,0.34667 2.11065,1.34476 2.11065,1.00294 z m -6.27615,-1.56417 c 1.63287,-0.78458 3.14159,-1.47716 3.35271,-1.53906 0.2203,-0.0646 0.27181,-0.18179 0.1209,-0.27506 -0.34806,-0.21511 -2.68167,0.74811 -5.13814,2.12082 -2.78907,1.55857 -1.86196,1.38774 1.66453,-0.3067 z m 22.24573,0.84388 c 0.15597,-0.24768 0.19923,-0.53468 0.0961,-0.63778 -0.2094,-0.20941 -1.24903,0.63644 -1.24903,1.01623 0,0.39033 0.84306,0.11359 1.15291,-0.37845 z m -25.61129,-0.0835 c 0.48472,-0.37897 0.46268,-0.39756 -0.39208,-0.33073 -0.49811,0.0389 -0.95452,0.21964 -1.01423,0.40154 -0.15183,0.46251 0.78447,0.41536 1.40631,-0.0708 z m 24.79769,-0.45835 c 0.36669,-0.47295 1.33332,-1.54198 2.14807,-2.37563 0.81476,-0.83366 1.48137,-1.65266 1.48137,-1.82002 0,-0.16735 0.41672,-0.76554 0.92604,-1.3293 0.50933,-0.56376 0.92604,-1.15831 0.92604,-1.32123 0,-0.53048 -0.7655,0.30451 -1.76763,1.92809 -0.5271,0.85397 -1.00864,1.5024 -1.07008,1.44096 -0.1237,-0.1237 0.34878,-1.00567 1.50356,-2.80673 0.84099,-1.31165 0.93489,-1.5875 0.5404,-1.5875 -0.14552,0 -0.26458,0.17157 -0.26458,0.38126 0,0.2097 -0.13182,0.46273 -0.29293,0.5623 -0.20044,0.12388 -0.23194,-0.0111 -0.0998,-0.42748 0.15652,-0.49317 0.0392,-0.43318 -0.61901,0.31646 -0.44667,0.50874 -1.35188,1.26614 -2.01156,1.68313 -0.65969,0.41698 -1.14444,0.81313 -1.07724,0.88033 0.1339,0.1339 2.00964,-1.06633 3.01235,-1.9275 0.4471,-0.38399 0.59628,-0.42652 0.5107,-0.14558 -0.0665,0.21828 -0.86146,0.89491 -1.76657,1.50362 -1.61694,1.08744 -1.82526,1.1473 -5.17585,1.48747 -0.27964,0.0284 -0.56368,0.21912 -0.63119,0.42383 -0.10198,0.30924 0.2887,0.34557 2.30892,0.21468 3.01156,-0.19511 3.15928,0.007 1.49676,2.04815 -0.66596,0.81763 -1.21084,1.54149 -1.21084,1.60859 0,0.37184 0.55072,0.0132 1.13306,-0.7379 z m 1.02054,-3.33688 c -0.59832,-0.16792 -0.58445,-0.19439 0.33073,-0.6308 0.94771,-0.45194 1.10384,-0.36543 0.79465,0.44031 -0.17296,0.45072 -0.18866,0.45338 -1.12538,0.19049 z m -20.87287,3.44712 c -0.54215,-0.56797 -0.67249,-0.55309 -0.44094,0.0503 0.0918,0.23911 0.33268,0.43475 0.53539,0.43475 0.28069,0 0.25817,-0.11566 -0.0944,-0.48507 z m 2.19484,-0.16436 c 0.74823,-0.74823 0.8589,-2.04766 0.28907,-3.39396 -0.53132,-1.25534 -1.26114,-1.77507 -2.73825,-1.95001 -1.19071,-0.14102 -1.40158,-0.0823 -2.16652,0.60348 -0.71063,0.63708 -0.87255,1.00528 -1.00316,2.28106 -0.106,1.03551 -0.0615,1.52136 0.13924,1.52136 0.18464,0 0.23737,-0.28808 0.14097,-0.77007 -0.22201,-1.11009 0.32659,-2.53663 1.11339,-2.89512 1.24622,-0.56781 2.7215,-0.38079 3.55267,0.45038 1.39074,1.39074 1.1986,3.91278 -0.34548,4.53461 -0.47236,0.19022 -0.49232,0.2373 -0.10641,0.25093 0.26128,0.009 0.76729,-0.27548 1.12448,-0.63266 z m 2.41216,-0.21047 c -0.0734,-0.1819 -0.13345,-0.0331 -0.13345,0.33073 0,0.3638 0.0601,0.51263 0.13345,0.33073 0.0734,-0.1819 0.0734,-0.47956 0,-0.66146 z m 13.84769,0.23084 c 0,-0.34599 0.17859,-0.77728 0.39687,-0.95844 0.21828,-0.18116 0.39688,-0.59647 0.39688,-0.92291 0,-0.54655 -0.0786,-0.57703 -0.99219,-0.38501 -1.83045,0.38469 -2.21923,0.5668 -2.06549,0.96746 0.081,0.21105 0.14726,0.54879 0.14726,0.75052 0,0.37337 1.18501,1.1476 1.78594,1.16685 0.1819,0.006 0.33073,-0.27249 0.33073,-0.61847 z m 5.91651,0.23218 c 0.20461,-0.5332 -0.0708,-1.19062 -0.49881,-1.19062 -0.48217,0 -0.62708,0.57155 -0.28511,1.12448 0.351,0.56753 0.58398,0.58719 0.78392,0.0661 z m -31.96074,-0.90699 c -0.53084,-0.58657 -0.52381,-1.04678 0.0252,-1.65348 0.52153,-0.57628 0.27938,-0.96893 -0.30066,-0.48754 -0.70509,0.58517 -0.3049,3.2132 0.42099,2.76457 0.16792,-0.10378 0.11338,-0.33742 -0.14557,-0.62355 z m 11.94032,-0.019 c 0.27989,-0.74151 0.25876,-0.79375 -0.32104,-0.79375 -0.63415,0 -1.11228,0.79918 -0.79006,1.32055 0.31127,0.50365 0.81171,0.26638 1.1111,-0.5268 z m -8.12109,0.0156 c 0,-0.70624 -0.43872,-0.91922 -0.6026,-0.29255 -0.13745,0.52559 -0.004,0.8061 0.38211,0.8061 0.12127,0 0.22049,-0.2311 0.22049,-0.51355 z m 25.61497,-0.26366 c 0.0661,-0.19844 -0.0331,-0.29766 -0.23151,-0.23151 -0.19099,0.0637 -0.39936,0.27202 -0.46302,0.46302 -0.0661,0.19843 0.0331,0.29765 0.23151,0.23151 0.191,-0.0637 0.39936,-0.27203 0.46302,-0.46302 z m -28.78997,-0.46633 c 0,-0.53208 -0.0765,-0.63789 -0.29972,-0.41466 -0.16484,0.16484 -0.22811,0.48631 -0.14059,0.71437 0.2422,0.63119 0.44031,0.49634 0.44031,-0.29971 z m 2.02228,0.31413 c 0.17766,-0.463 -0.33856,-1.18726 -0.84623,-1.18726 -0.39944,0 -0.76077,0.9246 -0.51606,1.32055 0.25268,0.40884 1.18942,0.31719 1.36229,-0.13329 z m 6.97355,0.13566 c 0,-0.14552 -0.18562,-0.26458 -0.41249,-0.26458 -0.22687,0 -0.33891,0.11906 -0.24897,0.26458 0.0899,0.14552 0.27556,0.26458 0.41249,0.26458 0.13693,0 0.24897,-0.11906 0.24897,-0.26458 z m -3.65157,-1.46498 c 0.24914,-0.5468 0.22827,-0.7488 -0.11258,-1.08964 -0.58215,-0.58216 -0.99835,-0.22763 -0.99835,0.85044 0,1.1071 0.65156,1.24739 1.11093,0.2392 z m 1.5349,-0.7134 c 0,-0.46113 -0.72654,0.30367 -0.88374,0.93028 -0.14612,0.58244 -0.14348,0.58217 0.36829,-0.038 0.2835,-0.34355 0.51545,-0.74508 0.51545,-0.8923 z m 4.7625,0.83706 c 0,-0.41589 -0.14251,-0.52724 -0.59261,-0.46302 -0.8794,0.12547 -0.9567,1.01059 -0.0882,1.01059 0.5121,0 0.68086,-0.13572 0.68086,-0.54757 z m 15.82808,-0.0687 c 0.0595,-0.30695 -0.0406,-0.39184 -0.33073,-0.2805 -0.48912,0.1877 -0.57185,0.99276 -0.0854,0.83079 0.1819,-0.0606 0.36915,-0.3082 0.4161,-0.55029 z m -4.47304,0.25665 c -0.0606,-0.0523 -0.46743,-0.17496 -0.90399,-0.27262 -0.57968,-0.12966 -0.68672,-0.10511 -0.39688,0.091 0.35729,0.24178 1.56637,0.41057 1.30087,0.1816 z m 8.81944,-0.0802 c -0.1819,-0.0734 -0.47955,-0.0734 -0.66146,0 -0.1819,0.0734 -0.0331,0.13345 0.33073,0.13345 0.36381,0 0.51263,-0.06 0.33073,-0.13345 z m 1.20903,-0.5731 c 0.0629,-0.42724 -0.0519,-0.57459 -0.44741,-0.57459 -0.29257,0 -0.60553,0.11906 -0.69547,0.26458 -0.0899,0.14552 0.0348,0.26459 0.27727,0.26459 0.29346,0 0.38706,0.14005 0.28002,0.41898 -0.10195,0.26569 -0.0397,0.37911 0.17013,0.31 0.182,-0.0599 0.36896,-0.36754 0.41546,-0.68356 z m -24.82309,0.10248 c 0,-0.0642 -0.11906,-0.19026 -0.26458,-0.2802 -0.14552,-0.0899 -0.26459,-0.0374 -0.26459,0.11668 0,0.15411 0.11907,0.2802 0.26459,0.2802 0.14552,0 0.26458,-0.0525 0.26458,-0.11668 z m -6.92954,-0.61093 c -0.1074,-0.5577 -0.57697,-0.52253 -0.69663,0.0522 -0.0499,0.2397 0.0959,0.41085 0.35013,0.41085 0.27251,0 0.40228,-0.17341 0.3465,-0.46303 z m 7.46659,-0.0514 c -0.2777,-0.51889 -0.80163,-0.9687 -0.80163,-0.68821 0,0.28984 0.65782,1.20265 0.8667,1.20265 0.11564,0 0.0864,-0.2315 -0.0651,-0.51444 z m 14.88638,-1.3912 c 0.1756,-0.11161 0.61694,-0.20837 0.98074,-0.21503 0.59002,-0.0108 0.60991,-0.0421 0.18421,-0.28974 -0.61034,-0.35507 -1.6877,0.3029 -2.0481,1.25084 -0.40684,1.07007 -0.2699,1.37907 0.1659,0.37435 0.21888,-0.50462 0.54164,-1.00881 0.71725,-1.12042 z m -20.44396,0.96237 c 0.38006,-0.99964 0.32489,-1.1734 -0.37257,-1.1734 -0.41775,0 -0.67956,0.18722 -0.77565,0.55469 -0.33372,1.27612 0.68879,1.82709 1.14822,0.61871 z m 7.8648,0.51192 c 0.93719,-0.25116 0.75833,-1.07534 -0.26458,-1.21918 -0.47294,-0.0665 -1.09802,-0.21878 -1.38906,-0.3384 -0.4961,-0.20388 -0.50275,-0.18573 -0.10637,0.29042 0.23255,0.27933 0.4967,0.71624 0.58701,0.9709 0.17946,0.50604 0.28796,0.53344 1.173,0.29626 z m 6.08218,-1.23679 c -0.0571,-0.17393 -0.57086,-0.3314 -1.14169,-0.34993 -0.86496,-0.0281 -0.89461,-0.0143 -0.17799,0.0829 0.95596,0.12963 1.12981,0.49091 0.35462,0.73695 -0.2779,0.0882 -0.64445,0.32807 -0.81456,0.53304 -0.20195,0.24333 0.0712,0.18883 0.78707,-0.15703 0.603,-0.29134 1.04965,-0.67201 0.99255,-0.84594 z m 14.47012,0.48602 c 0.0947,-0.50465 0.36023,-1.10563 0.59011,-1.33552 0.22989,-0.22989 0.34305,-0.49291 0.25146,-0.5845 -0.33363,-0.33363 -1.88104,2.14455 -1.61146,2.58074 0.30753,0.49759 0.59962,0.24691 0.76989,-0.66072 z m -24.64952,0.23021 c 0.087,-0.087 0.0903,-0.3351 0.007,-0.55135 -0.12298,-0.3205 -0.19224,-0.32794 -0.37459,-0.0403 -0.38997,0.6152 -0.10893,1.06787 0.36732,0.59163 z m 14.61441,-0.10643 c 0.0899,-0.14552 0.0374,-0.26458 -0.11668,-0.26458 -0.15411,0 -0.2802,0.11906 -0.2802,0.26458 0,0.14552 0.0525,0.26459 0.11668,0.26459 0.0642,0 0.19026,-0.11907 0.2802,-0.26459 z m -15.74271,-0.26458 c 0,-0.14552 -0.20836,-0.26276 -0.46302,-0.26053 -0.3957,0.003 -0.40532,0.0413 -0.0661,0.26053 0.49933,0.32269 0.52917,0.32269 0.52917,0 z m 9.65729,0 c 0.0899,-0.14552 0.0374,-0.26458 -0.11667,-0.26458 -0.15411,0 -0.2802,0.11906 -0.2802,0.26458 0,0.14552 0.0525,0.26458 0.11667,0.26458 0.0642,0 0.19027,-0.11906 0.2802,-0.26458 z m 10.71563,-0.005 c 0.41091,-0.13468 0.0601,-0.16088 -0.92604,-0.0692 -0.87313,0.0812 -1.63711,0.19062 -1.69775,0.24317 -0.21343,0.18497 1.97041,0.0401 2.62379,-0.174 z m -24.46094,-1.29688 c -0.26619,-0.43071 -0.67448,-0.0794 -0.67448,0.5804 0,0.52542 0.0337,0.53659 0.42818,0.14207 0.2355,-0.2355 0.34634,-0.56061 0.2463,-0.72247 z m 17.97865,0.3758 c 0,-0.26679 -0.1786,-0.53382 -0.39688,-0.59341 -0.35278,-0.0963 -0.35278,-0.0745 0,0.19653 0.35278,0.271 0.35278,0.29283 0,0.19653 -0.21828,-0.0596 -0.39997,-0.21747 -0.40375,-0.35087 -0.004,-0.13339 -0.23114,-0.57805 -0.50524,-0.98813 -0.33315,-0.49842 -0.48481,-1.15626 -0.45747,-1.98437 0.0378,-1.14431 0.0158,-1.18993 -0.28851,-0.59822 -0.18117,0.35231 -0.49079,0.69384 -0.68804,0.75896 -0.2782,0.0918 -0.31526,-0.0815 -0.1652,-0.77286 0.10639,-0.49018 0.2815,-0.95078 0.38912,-1.02354 0.10763,-0.0728 0.27929,-0.40018 0.38147,-0.7276 0.10218,-0.32742 0.30484,-0.59531 0.45036,-0.59531 0.14974,0 0.18879,0.25841 0.09,0.59531 -0.17408,0.59347 -0.17321,0.59338 0.28181,-0.0286 1.60442,-2.19327 7.00071,-2.15079 8.19372,0.0645 0.39838,0.73973 0.4193,1.00605 0.14449,1.83874 -0.26723,0.80971 -1.0385,1.57619 -1.6019,1.59194 -0.0728,0.002 -0.34929,0.27958 -0.61451,0.61675 -0.65903,0.83782 -1.88112,0.82367 -2.43931,-0.0283 -0.38198,-0.58296 -0.38253,-0.71413 -0.006,-1.44206 0.22774,-0.44043 0.41408,-1.05264 0.41408,-1.36048 0,-0.30783 0.13364,-0.81976 0.29697,-1.13761 0.24217,-0.47128 0.23357,-0.51806 -0.0466,-0.25349 -0.25159,0.23757 -0.43738,0.2466 -0.69385,0.0337 -0.41522,-0.34461 -0.45152,-0.11574 -0.089,0.56155 0.18375,0.34335 0.13982,0.82854 -0.14818,1.63626 -0.22516,0.63149 -0.3466,1.47098 -0.26987,1.86552 0.0767,0.39454 0.0235,0.78904 -0.11829,0.87667 -0.14179,0.0876 -0.44436,0.53873 -0.67238,1.00245 l -0.41457,0.84312 0.70022,-0.8599 c 0.59928,-0.73594 0.86959,-0.85989 1.87525,-0.85989 1.13348,0 1.86129,0.26418 2.80483,1.0181 0.48386,0.38662 1.00886,0.21424 1.00886,-0.33125 0,-0.18714 0.23813,-0.55576 0.52917,-0.81915 0.29104,-0.26338 0.52917,-0.68622 0.52917,-0.93964 0,-0.59489 1.71426,-2.10306 2.39045,-2.10306 0.4477,0 0.51996,-0.18422 0.51996,-1.32542 v -1.32541 l -1.12448,0.0336 c -0.61846,0.0185 -1.3626,-0.0102 -1.65364,-0.0636 -0.55116,-0.10126 -0.57244,0.023 -0.243,1.41925 0.23382,0.99093 -0.0265,1.8634 -0.84677,2.83827 -0.69409,0.82487 -2.15588,1.74822 -2.39272,1.51138 -0.0693,-0.0693 0.24211,-0.34348 0.69206,-0.60927 0.44994,-0.26579 1.12878,-0.93161 1.50854,-1.4796 1.18788,-1.71411 0.55302,-3.77175 -1.42159,-4.60752 -1.01705,-0.43046 -3.77254,-0.46934 -5.1987,-0.0734 -1.36187,0.37815 -2.28428,0.13368 -2.28428,-0.60542 0,-0.3151 0.19582,-1.27079 0.43515,-2.12376 0.33838,-1.20598 0.67303,-1.75448 1.50487,-2.4665 l 1.06973,-0.91565 -1.25542,0.17208 c -1.18704,0.1627 -1.29895,0.12317 -2.05488,-0.72586 l -0.79948,-0.89794 0.55002,0.8346 c 0.3025,0.45903 0.55941,1.11387 0.5709,1.45521 0.0115,0.34133 0.0809,0.47178 0.15434,0.28988 0.0734,-0.1819 0.39142,-0.3289 0.70671,-0.32668 0.3268,0.002 0.45095,0.0876 0.28876,0.19844 -0.55327,0.37801 -1.12637,1.80784 -1.58168,3.94609 -0.25345,1.19031 -0.55501,2.31659 -0.67012,2.50285 -0.15799,0.25563 -0.78865,0.0332 -2.57263,-0.90743 -1.29983,-0.68534 -2.58707,-1.24228 -2.86053,-1.23763 -0.27346,0.005 0.33624,0.36598 1.35489,0.80297 2.54253,1.09072 3.39565,1.81404 3.09575,2.62474 -0.15059,0.40707 -0.29686,0.51566 -0.42196,0.31324 -0.29508,-0.47745 -4.76301,-0.40601 -5.72516,0.0915 -1.04302,0.53936 -1.67162,1.79929 -1.46013,2.92661 0.18524,0.98741 1.24424,1.97091 2.09978,1.95007 0.40014,-0.01 0.27834,-0.13034 -0.42736,-0.42311 -0.76807,-0.31864 -1.045,-0.61955 -1.24852,-1.35662 -0.34315,-1.24279 0.0911,-2.16131 1.30977,-2.77029 1.77701,-0.88801 5.67977,-0.37625 6.1156,0.80192 0.10836,0.29292 0.32613,0.61237 0.48392,0.7099 0.1578,0.0975 0.51136,0.61728 0.7857,1.15502 0.59859,1.17334 1.85012,2.47833 2.24922,2.3453 0.15793,-0.0526 0.28714,-0.31399 0.28714,-0.58078 z m -3.57188,-4.49792 c 0,-0.21828 0.11906,-0.39687 0.26458,-0.39687 0.14552,0 0.26459,0.17859 0.26459,0.39687 0,0.21828 -0.11907,0.39688 -0.26459,0.39688 -0.14552,0 -0.26458,-0.1786 -0.26458,-0.39688 z m 0.52917,-1.07147 c 0,-0.08 0.18165,-0.49671 0.40367,-0.92604 0.40306,-0.77944 1.00698,-1.01622 1.31612,-0.51603 0.0899,0.14552 -0.0247,0.26458 -0.25464,0.26458 -0.22999,0 -0.55379,0.29766 -0.71954,0.66146 -0.2654,0.58249 -0.74561,0.91484 -0.74561,0.51603 z m 5.82083,5.4371 c 0.32265,-0.20852 0.28846,-0.25724 -0.18282,-0.26054 -0.31883,-0.002 -0.65328,0.11501 -0.74322,0.26054 -0.20819,0.33686 0.40478,0.33686 0.92604,0 z m -17.88045,-0.36362 c 0.68958,-0.35776 0.69146,-0.36608 0.11662,-0.51641 -0.69464,-0.18165 -1.02159,-0.022 -1.02159,0.49877 0,0.46858 0.0345,0.46926 0.90497,0.0176 z m 7.02412,-0.62857 c -0.008,-0.69693 -0.0248,-0.70595 -0.39688,-0.21402 -0.49497,0.65442 -0.49241,0.94162 0.008,0.94162 0.2586,0 0.39394,-0.25349 0.38846,-0.7276 z m 9.11155,-0.39688 c 0.0962,-0.61846 0.36376,-1.62533 0.59455,-2.23748 0.57919,-1.5363 0.33006,-2.36123 -0.76541,-2.53436 -0.61319,-0.0969 -1.00757,0.003 -1.36444,0.3466 -0.58998,0.56761 -0.98941,2.77363 -0.65942,3.64198 0.21694,0.57087 1.49674,1.88118 1.85516,1.89938 0.0906,0.005 0.24335,-0.49765 0.33956,-1.11612 z m -17.61755,0.11157 c 0.0681,-0.46259 -0.048,-0.57459 -0.59531,-0.57459 -0.49362,0 -0.67986,0.13892 -0.67986,0.50712 0,0.94593 1.13706,1.00609 1.27517,0.0675 z m 7.1915,0.37622 c 0,-0.24114 -0.1852,-0.32367 -0.52619,-0.2345 -0.28941,0.0757 -0.46098,0.24313 -0.38126,0.37211 0.23102,0.3738 0.90745,0.27123 0.90745,-0.13761 z m 17.90782,-0.20667 c -0.0845,-0.21106 -0.14716,-0.14837 -0.15985,0.15986 -0.0115,0.27891 0.051,0.43518 0.13896,0.34726 0.0879,-0.0879 0.0973,-0.31612 0.0209,-0.50712 z m -26.90366,-0.34726 c 0,-0.21828 -0.11906,-0.39688 -0.26458,-0.39688 -0.14552,0 -0.26458,0.1786 -0.26458,0.39688 0,0.21828 0.11906,0.39687 0.26458,0.39687 0.14552,0 0.26458,-0.17859 0.26458,-0.39687 z m 28.8734,-0.98923 c 0.37498,-0.70065 -0.20381,-0.58462 -0.98612,0.1977 -0.78679,0.78678 -0.59419,1.47275 0.20933,0.74558 0.29007,-0.26252 0.63963,-0.68699 0.77679,-0.94328 z m -24.90465,0.33607 c 0,-0.58947 -0.099,-0.74744 -0.39687,-0.63315 -0.21828,0.0838 -0.39688,0.43722 -0.39688,0.78545 0,0.38641 0.15467,0.63315 0.39688,0.63315 0.26365,0 0.39687,-0.26366 0.39687,-0.78545 z m 1.79917,0.46795 c 0.45243,-0.45243 0.39246,-1.18462 -0.11291,-1.37855 -0.52932,-0.20312 -1.15709,0.28007 -1.15709,0.8906 0,0.81893 0.67838,1.07957 1.27,0.48795 z m 2.91042,-0.26458 c 0.45599,-0.456 0.39105,-1.25839 -0.11764,-1.45359 -0.49571,-0.19022 -1.15236,0.54627 -1.15236,1.29249 0,0.54832 0.7834,0.64769 1.27,0.1611 z m 14.62318,-0.41011 c 0.36585,-0.40018 0.87764,-0.84666 1.1373,-0.99219 0.29465,-0.16513 0.48944,-0.61267 0.51821,-1.19062 0.0383,-0.76951 -0.0372,-0.91175 -0.44645,-0.84152 -0.2709,0.0465 -0.75841,-0.16523 -1.08335,-0.4705 -1.01723,-0.95564 -1.48614,-0.52581 -1.86426,1.70889 -0.0985,0.58209 -0.28953,1.19207 -0.42454,1.35553 -0.41391,0.50112 0.035,1.15802 0.79138,1.15802 0.43311,0 0.96394,-0.28158 1.37171,-0.72761 z M 225.456,174.13318 c 0.49239,0 0.55118,-0.34472 0.17778,-1.04242 -0.1931,-0.36083 -0.12805,-0.59433 0.26459,-0.94966 0.60319,-0.54588 0.71679,-1.14591 0.12378,-0.65375 -0.21829,0.18116 -0.39688,0.21636 -0.39688,0.0782 0,-0.44432 -1.59285,-0.0334 -1.86873,0.48205 -0.18609,0.34771 -0.17849,0.49806 0.0252,0.49806 0.17949,0 0.22245,0.22903 0.11166,0.59532 -0.12535,0.41442 0.01,0.32013 0.44519,-0.31034 0.34389,-0.4981 0.80119,-0.96354 1.01623,-1.03431 0.31214,-0.10274 0.29844,-1.6e-4 -0.068,0.50876 -0.25242,0.3506 -0.64981,0.90442 -0.88308,1.23072 -0.24527,0.34307 -0.34811,0.78939 -0.24386,1.05833 0.17162,0.44274 0.19665,0.44283 0.52128,0.002 0.18755,-0.25466 0.53623,-0.46302 0.77485,-0.46302 z m 11.50056,-0.11538 c 0.061,-0.51876 -0.0171,-0.70197 -0.26458,-0.62065 -0.1931,0.0635 -0.39001,0.4466 -0.43759,0.85142 -0.061,0.51876 0.0171,0.70197 0.26459,0.62065 0.19309,-0.0635 0.39001,-0.4466 0.43758,-0.85142 z m -7.68776,-0.0996 c 0.0585,-0.17551 -0.13857,-0.31419 -0.44648,-0.31419 -0.54963,0 -0.71436,0.27783 -0.36932,0.62287 0.24513,0.24513 0.68692,0.078 0.8158,-0.30868 z m -1.30598,-0.92914 c 0.31774,-0.33821 0.51912,-0.67352 0.44752,-0.74512 -0.0716,-0.0716 -0.0147,-0.53294 0.12649,-1.02518 0.18835,-0.65674 0.17013,-0.94848 -0.0685,-1.09594 -0.21676,-0.13396 -0.23694,-0.28914 -0.0605,-0.46553 0.14552,-0.14552 0.41743,-0.17012 0.60424,-0.0547 0.26143,0.16157 0.27764,0.47895 0.0704,1.37804 -0.33457,1.4515 -0.34814,1.90157 -0.0518,1.71843 0.12672,-0.0783 0.30316,-0.71042 0.39209,-1.40468 0.0889,-0.69426 0.23182,-1.67901 0.31752,-2.18833 0.112,-0.66558 0.0808,-0.81757 -0.11092,-0.54039 -0.14671,0.21212 -0.58906,0.39071 -0.983,0.39688 -0.58883,0.009 -0.77897,0.19168 -1.06875,1.02559 -0.48518,1.39623 -0.75837,3.61584 -0.44504,3.61584 0.13891,0 0.51252,-0.27673 0.83026,-0.61495 z m 2.76965,0.22169 c 0.0287,-0.14352 -0.15618,-0.30108 -0.41085,-0.35013 -0.28961,-0.0558 -0.46302,0.074 -0.46302,0.34651 0,0.46032 0.78193,0.46356 0.87387,0.004 z m 27.81892,-0.96966 -0.20032,-0.88604 -0.20642,0.74999 c -0.2436,0.88507 -0.0309,1.66006 0.35085,1.27832 0.14709,-0.14709 0.17089,-0.63362 0.0559,-1.14227 z m -22.34279,0.55355 c 0,-0.13693 -0.17859,-0.24897 -0.39687,-0.24897 -0.40916,0 -0.52565,0.3122 -0.22768,0.61017 0.21138,0.21138 0.62455,-0.0276 0.62455,-0.3612 z m -2.65638,-0.36855 c 0.17536,-0.21129 0.2776,-0.59824 0.22721,-0.85989 -0.1252,-0.65015 -1.36689,-0.64787 -1.49218,0.003 -0.21274,1.10466 0.6016,1.65646 1.26497,0.85715 z m 9.18712,-0.19461 c -0.0845,-0.21107 -0.14715,-0.14837 -0.15985,0.15985 -0.0115,0.27892 0.0511,0.43519 0.13897,0.34727 0.0879,-0.0879 0.0973,-0.31612 0.0209,-0.50712 z m 14.90051,-1.81809 c 0,-1.51437 -0.0923,-2.09586 -0.33073,-2.08245 -0.44856,0.0252 -1.4566,0.4681 -1.12447,0.49403 0.41961,0.0328 0.89751,1.26215 0.60452,1.55513 -0.16195,0.16196 -0.1497,0.31808 0.0339,0.43153 0.1582,0.0978 0.28764,0.59449 0.28764,1.10381 0,0.54999 0.10744,0.85964 0.26458,0.76252 0.14552,-0.0899 0.26458,-1.10899 0.26458,-2.26457 z m -26.06145,1.20624 c 0,-0.28705 -0.20836,-0.56205 -0.46303,-0.61109 -0.3468,-0.0668 -0.46302,0.0866 -0.46302,0.61109 0,0.52449 0.11622,0.67788 0.46302,0.61109 0.25467,-0.049 0.46303,-0.32403 0.46303,-0.61109 z m 25.18386,-0.1819 c -0.0845,-0.21107 -0.14716,-0.14837 -0.15985,0.15985 -0.0115,0.27892 0.051,0.43519 0.13896,0.34727 0.0879,-0.0879 0.0973,-0.31612 0.0209,-0.50712 z m -19.75991,-1.41913 c 0,-1.24738 -0.71819,-1.26287 -1.90466,-0.0411 -0.9436,0.97169 -0.95829,1.01526 -0.41051,1.2179 0.31246,0.11559 0.9612,0.0895 1.44164,-0.0579 0.75164,-0.23068 0.87353,-0.38682 0.87353,-1.11888 z m 2.64584,0.81408 c 0,-0.32854 -1.2384,-1.19742 -1.70666,-1.19742 -0.08,0 -0.14543,0.35718 -0.14543,0.79375 0,0.73075 0.0735,0.79375 0.92605,0.79375 0.63959,0 0.92604,-0.12067 0.92604,-0.39008 z m -13.16918,-0.33753 c 0.22362,-0.25466 0.48337,-0.71562 0.57722,-1.02436 0.14762,-0.48564 0.0206,-0.59943 -0.9422,-0.84381 -0.80011,-0.20309 -1.26679,-0.20046 -1.66069,0.009 -0.50042,0.26654 -0.51497,0.25195 -0.168,-0.16855 0.3257,-0.39472 0.3268,-0.49315 0.008,-0.69039 -0.44894,-0.27746 -0.40579,-0.33367 -0.61373,0.79953 -0.0935,0.50933 -0.0808,0.80698 0.0281,0.66146 0.3527,-0.47114 1.31052,-0.39262 1.79933,0.14749 0.36525,0.40361 0.4038,0.59911 0.16519,0.83772 -0.17118,0.17119 -0.31124,0.4065 -0.31124,0.52292 0,0.38025 0.70231,0.2224 1.11832,-0.25136 z m 24.54626,0.19844 c 0,-0.14552 -0.0525,-0.26458 -0.11668,-0.26458 -0.0642,0 -0.19026,0.11906 -0.28019,0.26458 -0.0899,0.14552 -0.0374,0.26458 0.11667,0.26458 0.15411,0 0.2802,-0.11906 0.2802,-0.26458 z m -26.08354,-0.43474 c 0.0918,-0.23911 0.11242,-0.48916 0.0459,-0.55567 -0.21027,-0.21027 -0.68529,0.21197 -0.68529,0.60915 0,0.51899 0.43362,0.48271 0.63938,-0.0535 z m 5.44604,0.0379 c 0,-0.21828 -0.0468,-0.39687 -0.10398,-0.39687 -0.0572,0 -0.17252,0.17859 -0.25628,0.39687 -0.0838,0.21829 -0.037,0.39688 0.10398,0.39688 0.14095,0 0.25628,-0.17859 0.25628,-0.39688 z m 2.35366,0.15495 c 0.5548,-0.3513 0.16714,-1.06794 -0.48539,-0.8973 -0.53528,0.13998 -0.71717,0.61463 -0.36896,0.96284 0.23115,0.23115 0.4071,0.21765 0.85435,-0.0655 z m 2.06106,-0.59794 c 0.43584,-0.40945 0.60359,-0.84801 0.58194,-1.52136 l -0.0304,-0.94606 -0.19025,0.97832 c -0.23412,1.20388 -0.77933,1.93354 -1.16018,1.55268 -0.18301,-0.183 -0.11398,-0.44144 0.215,-0.80496 0.51135,-0.56504 0.2057,-0.76192 -0.3383,-0.21792 -0.24694,0.24695 -0.3175,0.19535 -0.3175,-0.23218 0,-0.30233 -0.17859,-0.69791 -0.39687,-0.87907 -0.33837,-0.28082 -0.39688,-0.20758 -0.39688,0.49677 0,0.58241 0.12544,0.82615 0.42518,0.82615 0.27996,0 0.37004,0.14371 0.26373,0.42075 -0.37811,0.98534 0.43361,1.18267 1.34456,0.32688 z m 14.09232,0.32483 c 0.29973,-0.18963 0.2251,-0.282 -0.34306,-0.4246 -0.8336,-0.20922 -1.27078,0.0559 -0.69382,0.42081 0.48217,0.30493 0.56042,0.30522 1.03688,0.004 z m -1.90995,-0.17398 c -0.0879,-0.0879 -0.31612,-0.0973 -0.50712,-0.0209 -0.21106,0.0845 -0.14837,0.14716 0.15986,0.15985 0.27891,0.0115 0.43518,-0.051 0.34726,-0.13896 z m -5.22001,-0.21972 c 0,-0.0633 0.18003,-0.97079 0.40005,-2.01676 0.41991,-1.99618 0.57593,-3.85963 0.34268,-4.09288 -0.28374,-0.28375 -1.01434,0.22042 -1.53112,1.05659 -0.41134,0.66556 -0.53452,1.32007 -0.53452,2.84007 0,1.08635 0.0794,2.05457 0.17639,2.15158 0.19412,0.19413 1.14652,0.24513 1.14652,0.0614 z m 13.93473,-0.23677 c 0,-0.22143 -0.21913,-0.30986 -0.59147,-0.23868 -0.72093,0.13781 -1.70159,-0.76045 -1.70159,-1.55862 0,-0.46917 -0.0653,-0.50737 -0.39687,-0.23219 -0.21829,0.18116 -0.39688,0.60322 -0.39688,0.93792 0,0.61216 0.68748,0.97601 2.38125,1.26026 0.3638,0.061 0.67138,0.12722 0.68351,0.14704 0.0121,0.0198 0.022,-0.12226 0.022,-0.31573 z m -3.35139,-0.17741 c 0,-0.14552 -0.1786,-0.26458 -0.39688,-0.26458 -0.21828,0 -0.39687,0.11906 -0.39687,0.26458 0,0.14552 0.17859,0.26459 0.39687,0.26459 0.21828,0 0.39688,-0.11907 0.39688,-0.26459 z m -20.52685,-0.42518 c 0.23018,-0.0883 0.41851,-0.39472 0.41851,-0.68086 0,-0.73425 -0.90202,-0.51214 -1.01059,0.24885 -0.0913,0.64026 -0.0428,0.67565 0.59208,0.43201 z m 8.42495,-4.41005 0.44438,-0.67822 -1.84475,-0.0875 c -1.95703,-0.0929 -2.07774,-8.3e-4 -1.44669,1.10308 0.20797,0.3638 0.38234,1.26505 0.3875,2.00277 0.009,1.25569 0.0643,1.36547 0.86927,1.71979 l 0.8599,0.37848 0.143,-1.88007 c 0.0832,-1.09417 0.32876,-2.16358 0.58739,-2.55829 z m 15.01231,4.04461 c 0,-0.40963 0.23558,-0.56371 1.06453,-0.69626 l 1.06452,-0.17023 -0.67841,-0.35196 c -1.06899,-0.5546 -2.51936,-0.58164 -2.86099,-0.0533 -0.23247,0.3595 -0.16324,0.5879 0.34085,1.12448 0.7608,0.80984 1.0695,0.85236 1.0695,0.14731 z m 2.82919,-0.46111 c -0.0671,-0.25743 -0.12638,-0.11087 -0.13177,0.32569 -0.005,0.43656 0.0495,0.64719 0.12197,0.46806 0.0725,-0.17913 0.0769,-0.53632 0.01,-0.79375 z m -13.63538,-0.73121 c -0.0781,-1.25331 0.004,-1.56723 0.59531,-2.26962 0.82007,-0.9746 0.91397,-1.59211 0.13487,-0.88704 -0.63962,0.57885 -1.14021,1.68132 -1.40468,3.09358 -0.19839,1.05944 -0.0628,1.51663 0.44995,1.51722 0.21657,2.4e-4 0.28679,-0.45454 0.22455,-1.45414 z m 1.65844,0.74808 c 0.0931,-0.24262 0.0543,-0.55609 -0.0862,-0.6966 -0.38962,-0.38961 -1.0848,-0.005 -1.0848,0.60024 0,0.66364 0.92413,0.73968 1.171,0.0964 z m 5.87372,0.053 c 0.29614,-0.77172 -0.068,-0.99076 -0.51442,-0.30944 -0.40054,0.61129 -0.4062,0.69758 -0.0458,0.69758 0.2262,0 0.4783,-0.17466 0.56022,-0.38814 z m -25.18053,-0.0408 c 0.44127,-0.16934 1.20248,-1.41948 1.20248,-1.97486 0,-0.17237 -0.24677,3.2e-4 -0.54837,0.38374 -0.64077,0.8146 -1.07136,0.86431 -2.12019,0.24475 -0.617,-0.36447 -0.83061,-0.38741 -1.09916,-0.11801 -0.2682,0.26905 -0.20409,0.43266 0.32814,0.83741 0.3638,0.27667 0.89958,0.55169 1.19062,0.61115 0.29104,0.0595 0.5492,0.12432 0.57367,0.14414 0.0245,0.0198 0.23725,-0.0379 0.47281,-0.12832 z m 7.93014,-0.0691 c 0.29659,-0.4799 -0.92426,-1.61859 -1.73539,-1.61859 -0.4594,0 -0.72172,0.11075 -0.62664,0.26458 0.0899,0.14552 0.39717,0.26458 0.68274,0.26458 0.29708,0 0.64817,0.283 0.82061,0.66146 0.31175,0.68422 0.6088,0.83228 0.85868,0.42797 z m 16.29109,-0.70186 c 0,-0.49385 -0.13157,-0.48692 -0.95114,0.0501 -0.48253,0.31617 -0.57571,0.49465 -0.33567,0.643 0.43147,0.26666 1.28681,-0.19403 1.28681,-0.69308 z m -21.29896,0.40618 c 0.0899,-0.14552 0.43034,-0.26458 0.75645,-0.26458 0.64547,0 1.22793,-0.45063 1.22793,-0.95001 0,-0.17326 -0.41672,-0.36366 -0.92604,-0.42312 -0.7125,-0.0832 -0.92605,-0.0119 -0.92605,0.30905 0,0.22945 -0.18534,0.68179 -0.41187,1.00521 -0.22654,0.32342 -0.2931,0.58804 -0.14791,0.58804 0.14518,0 0.33755,-0.11907 0.42749,-0.26459 z m 18.58862,-0.0661 c -0.0597,-0.1819 -0.4261,-0.36834 -0.81417,-0.4143 -0.54946,-0.0651 -0.67041,0.008 -0.5466,0.33073 0.19022,0.49572 1.52299,0.57756 1.36077,0.0836 z m -19.24177,-0.47854 c 0.4297,-0.8029 0.0729,-2.10115 -0.57739,-2.10115 -0.47913,0 -0.48925,0.0378 -0.11127,0.41577 0.49346,0.49346 0.5435,1.46734 0.0983,1.91256 -0.23629,0.23629 -0.23867,0.3175 -0.009,0.3175 0.16951,0 0.43937,-0.24511 0.5997,-0.54468 z m 7.92919,-0.74255 c 0,-0.90163 -0.16427,-1.49607 -0.54837,-1.98438 -0.57325,-0.72877 -1.11761,-0.94493 -0.89073,-0.35371 0.0725,0.18889 -0.1634,0.62074 -0.52418,0.95967 l -0.65596,0.61625 0.8466,1.01993 c 1.21176,1.45985 1.77264,1.37829 1.77264,-0.25776 z m 12.66217,0.52246 c 0.50364,-0.31912 0.12659,-1.35189 -0.49355,-1.35189 -0.6303,0 -0.87172,0.38887 -0.65849,1.0607 0.17831,0.56179 0.56909,0.66057 1.15204,0.29119 z m 3.73238,-0.41426 c 0.36008,-0.43387 0.15883,-0.93763 -0.37456,-0.93763 -0.33353,0 -0.67415,0.54567 -0.67415,1.07997 0,0.37934 0.69393,0.28515 1.04871,-0.14234 z m -6.86955,0.004 c 0,-0.0642 -0.11906,-0.19026 -0.26458,-0.2802 -0.14552,-0.0899 -0.26458,-0.0374 -0.26458,0.11668 0,0.15411 0.11906,0.2802 0.26458,0.2802 0.14552,0 0.26458,-0.0525 0.26458,-0.11668 z m -19.2049,-1.26833 c 0.16338,-0.11059 0.0306,-0.19613 -0.30812,-0.19844 -0.47595,-0.003 -0.5937,0.14184 -0.58726,0.72355 0.007,0.67807 0.0285,0.69158 0.30811,0.19844 0.16504,-0.29104 0.42931,-0.61664 0.58727,-0.72355 z m 20.52782,0.87748 c 0,-0.13362 0.0723,-0.43127 0.1606,-0.66146 0.11384,-0.29666 0.005,-0.41851 -0.37483,-0.41851 -0.56429,0 -0.8485,0.43752 -0.64453,0.99219 0.13967,0.37978 0.85876,0.45329 0.85876,0.0878 z m 4.22928,-0.50027 c -0.003,-0.38557 -0.0395,-0.39256 -0.26053,-0.0505 -0.33486,0.51815 -0.33486,0.86841 0,0.66145 0.14552,-0.0899 0.26276,-0.36485 0.26053,-0.61092 z m 4.87041,0.58523 c 0.35725,-0.1371 0.3616,-0.2081 0.0329,-0.53683 -0.55104,-0.55104 -0.21413,-1.11488 0.72201,-1.20833 0.55844,-0.0557 0.83614,-0.23733 0.88519,-0.57883 0.0393,-0.27368 0.19879,-0.62492 0.3544,-0.78052 0.68021,-0.68021 0.28197,-0.89799 -0.91907,-0.50259 -0.87446,0.28788 -1.31546,0.62045 -1.61845,1.2205 -0.22906,0.45364 -0.65314,1.08387 -0.9424,1.40052 -0.28927,0.31665 -0.44691,0.7036 -0.35031,0.8599 0.19138,0.30965 1.18045,0.37764 1.83575,0.12618 z m -31.06011,-0.34954 c 0,-0.13362 0.0754,-0.43952 0.16763,-0.67977 0.15348,-0.39997 0.0883,-0.4037 -0.77217,-0.0442 -0.51689,0.21597 -1.0388,0.31549 -1.15981,0.22116 -0.12101,-0.0943 -0.10096,-0.0362 0.0446,0.12913 0.2277,0.25873 0.77913,0.47109 1.52136,0.58589 0.10914,0.0169 0.19843,-0.0786 0.19843,-0.21225 z m 25.13542,-0.28622 c 0,-0.29399 -0.17639,-0.52917 -0.39687,-0.52917 -0.40281,0 -0.54273,0.5597 -0.22049,0.88194 0.33544,0.33544 0.61736,0.17434 0.61736,-0.35277 z m -16.93874,-0.47074 c 0.7479,-0.47335 0.31573,-0.77271 -0.4917,-0.34058 -0.28954,0.15496 -0.89145,0.28174 -1.33758,0.28174 -0.87215,0 -1.1093,0.4144 -0.34813,0.60833 0.60772,0.15483 1.36756,-0.0369 2.17741,-0.54949 z m -3.43418,0.20574 c 0,-0.14552 -0.12609,-0.26458 -0.28019,-0.26458 -0.15411,0 -0.20662,0.11906 -0.11668,0.26458 0.0899,0.14552 0.21602,0.26459 0.2802,0.26459 0.0642,0 0.11667,-0.11907 0.11667,-0.26459 z m -5.22197,-0.63693 c 1.14834,-0.27418 1.2232,-0.33803 0.84251,-0.71872 -0.22979,-0.22979 -0.5659,-1.00104 -0.74691,-1.71389 -0.27611,-1.08737 -0.43795,-1.30901 -1.00505,-1.37634 -0.56701,-0.0673 -0.7019,0.0495 -0.83695,0.72471 -0.17261,0.86307 0.0101,1.6218 0.46324,1.92339 0.17796,0.11846 0.0642,0.38794 -0.31143,0.73792 -0.71109,0.66248 -0.78614,1.19889 -0.12875,0.92016 0.25466,-0.10797 1.03016,-0.33172 1.72334,-0.49723 z m 21.88241,-0.50595 c 0.005,-0.11926 -0.25958,-0.17879 -0.587,-0.13229 -0.39228,0.0557 -0.62545,0.29751 -0.68367,0.70897 -0.0882,0.6231 -0.0869,0.62338 0.58699,0.13229 0.37145,-0.27067 0.67911,-0.58971 0.68368,-0.70897 z m 7.81466,0.54757 c 0.73939,-1.04127 2.22494,-3.65511 1.99745,-3.51451 -0.12036,0.0744 -0.36861,-0.0452 -0.55167,-0.26579 -0.28874,-0.34791 -0.39734,-0.29495 -0.81984,0.39979 -0.26785,0.44045 -0.65277,0.80082 -0.85538,0.80082 -0.56058,0 -0.99302,-0.6664 -0.79378,-1.22323 0.1309,-0.36584 -0.0411,-0.29282 -0.6536,0.27739 -0.47334,0.4407 -0.90397,1.16144 -1.0001,1.67389 -0.17199,0.91681 0.25796,2.31796 0.63902,2.08246 0.11547,-0.0714 0.38285,-0.0204 0.59419,0.11332 0.60976,0.38574 0.98976,0.29516 1.44371,-0.34414 z m -6.01956,-0.23897 c 0.37228,-0.37228 -0.0373,-1.28238 -0.57716,-1.28238 -0.5016,0 -0.75101,0.78682 -0.38804,1.22416 0.36768,0.44303 0.56828,0.45513 0.9652,0.0582 z m 1.12363,-0.35634 c 0,-0.3638 -0.0893,-0.66146 -0.19844,-0.66146 -0.10914,0 -0.19843,0.29766 -0.19843,0.66146 0,0.3638 0.0893,0.66146 0.19843,0.66146 0.10914,0 0.19844,-0.29766 0.19844,-0.66146 z m 1.85408,0.26698 c -0.21937,-0.26432 -0.2682,-0.78915 -0.148,-1.59069 0.14449,-0.96353 0.08,-1.32252 -0.33135,-1.84551 -0.62012,-0.78836 -0.97428,-0.58048 -0.42896,0.25178 0.34339,0.52407 0.34217,0.63271 -0.0103,0.92526 -0.23093,0.19166 -0.67987,0.26108 -1.06429,0.1646 -1.03679,-0.26022 -0.78117,0.23957 0.39344,0.76924 0.79875,0.36019 1.05834,0.62963 1.05834,1.09852 0,0.3967 0.15517,0.62128 0.42927,0.62128 0.35041,0 0.36913,-0.0725 0.10189,-0.39448 z m -21.42251,-0.54128 c 0.76457,-0.69192 0.68929,-2.06643 -0.14303,-2.61179 -0.3638,-0.23837 -0.66987,-0.69855 -0.68015,-1.02262 -0.0139,-0.43844 -0.14653,-0.30147 -0.51831,0.53527 -0.39332,0.8852 -0.6389,1.12448 -1.15411,1.12448 -0.4221,0 -0.71411,-0.18788 -0.82243,-0.52917 -0.22307,-0.70284 -0.55851,-0.66767 -1.06945,0.11213 -0.3815,0.58224 -0.3822,0.71478 -0.008,1.43915 0.63813,1.23401 1.42903,1.67854 2.74145,1.54083 0.62436,-0.0655 1.36851,-0.33024 1.65364,-0.58828 z m 3.21533,0.20815 c 0.21872,-0.25466 0.47946,-0.70114 0.57943,-0.99219 0.1301,-0.37874 -0.0503,-0.28473 -0.63465,0.33073 -0.44903,0.47295 -1.04851,0.8599 -1.33217,0.8599 -0.69489,0 -0.65255,-0.43851 0.0796,-0.82405 0.61377,-0.32322 0.98106,-0.73573 0.98814,-1.10979 0.002,-0.11773 -0.12071,-0.13695 -0.2732,-0.0427 -0.15249,0.0942 -0.45704,0.10236 -0.67678,0.018 -0.33003,-0.12665 -0.2818,-0.30765 0.27726,-1.04061 0.83869,-1.09959 0.8379,-1.12646 -0.032,-1.08838 -0.79014,0.0346 -1.09579,0.55693 -1.12473,1.92207 -0.0102,0.48251 -0.14995,1.12273 -0.31049,1.42271 -0.22413,0.41878 -0.20877,0.5981 0.0661,0.77231 0.61298,0.38843 1.97553,0.25861 2.39349,-0.22804 z m 13.83956,-1.38906 c 0,-0.2143 -0.20836,-0.42975 -0.46302,-0.4788 -0.32487,-0.0626 -0.46302,0.0803 -0.46302,0.4788 0,0.3985 0.13815,0.54136 0.46302,0.4788 0.25466,-0.0491 0.46302,-0.2645 0.46302,-0.4788 z m -9.52347,-0.002 c 0.0908,-0.14688 0.60382,-0.4988 1.14009,-0.78205 0.7403,-0.39102 0.84328,-0.51782 0.42775,-0.5267 -0.79823,-0.0171 -3.08162,0.70218 -3.69064,1.16249 -0.49043,0.37069 -0.44379,0.39704 0.71659,0.40491 0.68264,0.005 1.31543,-0.11177 1.40621,-0.25865 z m 1.52172,-0.12002 c 1.5166,-0.63366 2.57779,-1.67569 2.57779,-2.53123 0,-0.41504 -0.12383,-0.83115 -0.27519,-0.92469 -0.17565,-0.10856 -0.21809,0.0574 -0.11733,0.45886 0.21254,0.84684 -0.64705,1.90289 -2.21251,2.71819 -1.38513,0.72137 -1.37127,0.86322 0.0272,0.27888 z m 2.30924,-0.1495 c -0.15794,-0.29511 -0.4006,-0.46647 -0.53924,-0.38078 -0.13864,0.0857 -0.57915,0.32641 -0.97891,0.53494 -0.72401,0.37769 -0.72191,0.37917 0.53924,0.38079 1.19011,0.002 1.24885,-0.0306 0.97891,-0.53495 z m 4.11764,-0.26764 c 0.21837,-0.18123 0.33719,-0.38935 0.26405,-0.46249 -0.14114,-0.14114 -3.84856,-0.52568 -3.84856,-0.39918 0,0.0409 0.23969,0.35004 0.53263,0.68696 0.41234,0.47422 0.77229,0.60034 1.59374,0.5584 0.58361,-0.0298 1.23977,-0.20246 1.45814,-0.38369 z m 12.5369,-0.14772 c 0.0633,-0.0634 -0.027,-0.25741 -0.20084,-0.43123 -0.24498,-0.24498 -0.4492,-0.17729 -0.9084,0.30111 l -0.59237,0.61715 0.7932,-0.18592 c 0.43627,-0.10226 0.84505,-0.23776 0.90841,-0.30111 z m -21.28078,-0.56086 c 0.7276,-0.22934 1.56104,-0.52006 1.85208,-0.64605 0.54686,-0.23673 0.0332,-0.19296 -1.85208,0.15782 -0.61765,0.11492 -0.51621,0.0157 0.45721,-0.44699 1.31943,-0.62722 1.49262,-1.06479 0.48005,-1.21287 -0.65259,-0.0954 -2.81876,0.63456 -3.06493,1.03288 -0.0818,0.13239 0.0658,0.16456 0.32799,0.0715 0.26222,-0.0931 5.1e-4,0.27224 -0.58157,0.81181 l -1.05833,0.98103 1.05833,-0.16607 c 0.58208,-0.0913 1.65364,-0.35371 2.38125,-0.58304 z m 11.77396,-0.0967 c 0,-0.6448 -0.61827,-0.55365 -0.74701,0.11012 -0.0506,0.26109 0.0843,0.4411 0.33073,0.4411 0.24544,0 0.41628,-0.22622 0.41628,-0.55122 z m 4.05895,-0.7717 c 0.45918,-0.77732 0.45755,-0.79375 -0.0788,-0.79375 -0.30125,0 -0.77946,0.14473 -1.0627,0.32161 -0.47624,0.29742 -0.48284,0.35712 -0.0877,0.79375 0.57245,0.63256 0.68261,0.60374 1.22922,-0.32161 z m 2.43821,-0.20561 c -0.22082,-0.22082 -0.67616,0.24567 -0.66792,0.68425 0.007,0.39281 0.0555,0.38519 0.39415,-0.0624 0.21215,-0.28042 0.33534,-0.56023 0.27377,-0.6218 z m -29.0446,-0.28333 c -0.32232,-0.0506 -0.86548,-0.31187 -1.20702,-0.58053 -0.34154,-0.26865 -0.79999,-0.41977 -1.01877,-0.33581 -0.31129,0.11945 -0.21047,0.33744 0.4637,1.00258 0.83833,0.82709 0.88147,0.83859 1.60481,0.42788 0.71233,-0.40445 0.71889,-0.42589 0.15728,-0.51412 z m 5.27169,0.0801 0.58364,-0.9156 -0.7653,0.39575 c -0.42091,0.21766 -0.8406,0.51759 -0.93264,0.66652 -0.092,0.14893 -0.30795,0.18646 -0.4798,0.0834 -0.17799,-0.10676 -0.15619,0.005 0.0507,0.26027 0.52926,0.65247 0.88751,0.53866 1.54342,-0.49033 z m 14.36533,0.54111 c -0.8969,-0.34539 -0.90315,-0.35725 -0.19844,-0.37674 0.84632,-0.0234 0.95041,-0.41144 0.21583,-0.80457 -0.74841,-0.40054 -3.45798,-0.35594 -3.45292,0.0568 0.008,0.67234 0.43043,0.92523 1.98032,1.18616 2.19179,0.369 2.53574,0.35442 1.45521,-0.0617 z m 3.85985,-0.59397 c -0.28456,-0.28456 -0.43563,0.11397 -0.23587,0.62225 0.18738,0.4768 0.20153,0.47762 0.2942,0.0172 0.0535,-0.26605 0.0273,-0.55378 -0.0583,-0.63941 z m -25.55568,0.37551 c 0,-0.0474 -0.29766,-0.3658 -0.66146,-0.70758 -0.55718,-0.52344 -0.66146,-0.55022 -0.66146,-0.16988 0,0.24833 0.26789,0.5592 0.59531,0.6908 0.72964,0.29328 0.72761,0.29276 0.72761,0.18666 z m 15.7941,-0.84823 c -0.4083,-0.3592 -0.85053,-0.6531 -0.98274,-0.6531 -0.40336,0 0.90322,1.26566 1.32822,1.28662 0.24905,0.0123 0.12037,-0.22368 -0.34548,-0.63352 z m 16.33418,-0.15401 c -0.19282,-0.312 -1.7012,-0.30253 -1.7012,0.0107 0,0.13485 0.20836,0.28984 0.46302,0.34443 0.65471,0.14033 1.41043,-0.0764 1.23818,-0.35511 z m -7.78662,0.0301 c 0,-0.14552 -0.23812,-0.26458 -0.52916,-0.26458 -0.29104,0 -0.52917,0.11906 -0.52917,0.26458 0,0.14552 0.23813,0.26458 0.52917,0.26458 0.29104,0 0.52916,-0.11906 0.52916,-0.26458 z m -7.67291,-0.26458 c 0,-0.14552 -0.1786,-0.26459 -0.39688,-0.26459 -0.21828,0 -0.39687,0.11907 -0.39687,0.26459 0,0.14552 0.17859,0.26458 0.39687,0.26458 0.21828,0 0.39688,-0.11906 0.39688,-0.26458 z m -17.4625,34.80832 c 0,-0.22687 0.11906,-0.41249 0.26458,-0.41249 0.14552,0 0.26458,0.11203 0.26458,0.24897 0,0.13693 -0.11906,0.32255 -0.26458,0.41249 -0.14552,0.0899 -0.26458,-0.0221 -0.26458,-0.24897 z m 7.14375,0.13451 c 0,-0.15533 0.16885,-0.28242 0.37523,-0.28242 0.20638,0 0.59333,-0.0771 0.8599,-0.17123 0.33059,-0.1168 0.40055,-0.0842 0.22008,0.10255 -0.40907,0.42329 -1.45521,0.67569 -1.45521,0.3511 z m -8.46667,-3.32513 c 0,-0.65484 0.11906,-1.19062 0.26458,-1.19062 0.14552,0 0.26459,0.53578 0.26459,1.19062 0,0.65485 -0.11907,1.19063 -0.26459,1.19063 -0.14552,0 -0.26458,-0.53578 -0.26458,-1.19063 z m 0.5493,-2.43178 c -0.0111,-0.46435 0.10685,-0.92276 0.26205,-1.01868 0.44414,-0.27449 0.46702,-0.0593 0.0996,0.93692 l -0.34154,0.92604 z M 258.95505,177.573 c -0.009,-0.0728 -0.0584,-0.72484 -0.11052,-1.44907 -0.0851,-1.18329 -0.0571,-1.26533 0.27636,-0.80932 0.42957,0.58747 0.47427,1.42466 0.10646,1.9938 -0.14106,0.21828 -0.2636,0.33735 -0.2723,0.26459 z"
       id="path3994" />
  </g>
</svg>
