<?xml version="1.0" encoding="UTF-8" standalone="no"?>
<!-- Created with Inkscape (http://www.inkscape.org/) -->

<svg
   width="62.706131mm"
   height="187.57434mm"
   viewBox="0 0 62.706132 187.57434"
   version="1.1"
   id="svg5"
   inkscape:version="1.1 (c4e8f9ed74, 2021-05-24)"
   sodipodi:docname="ornatec2.svg"
   xmlns:inkscape="http://www.inkscape.org/namespaces/inkscape"
   xmlns:sodipodi="http://sodipodi.sourceforge.net/DTD/sodipodi-0.dtd"
   xmlns="http://www.w3.org/2000/svg"
   xmlns:svg="http://www.w3.org/2000/svg">
  <sodipodi:namedview
     id="namedview7"
     pagecolor="#ffffff"
     bordercolor="#666666"
     borderopacity="1.0"
     inkscape:pageshadow="2"
     inkscape:pageopacity="0.0"
     inkscape:pagecheckerboard="0"
     inkscape:document-units="mm"
     showgrid="false"
     inkscape:zoom="1.3380612"
     inkscape:cx="-223.83132"
     inkscape:cy="289.59812"
     inkscape:window-width="2506"
     inkscape:window-height="1403"
     inkscape:window-x="1974"
     inkscape:window-y="0"
     inkscape:window-maximized="1"
     inkscape:current-layer="layer1" />
  <defs
     id="defs2" />
  <g
     inkscape:label="Layer 1"
     inkscape:groupmode="layer"
     id="layer1"
     transform="translate(-238.53373,-28.648601)">
    <path
       style="fill:#000000;stroke-width:0.264583"
       d="m 269.15817,216.0859 c -2.26904,-0.56528 -4.53951,-2.14774 -6.06049,-4.22402 -0.77859,-1.06285 -1.21174,-2.1714 -1.65105,-4.22549 l -0.30955,-1.44736 -1.82492,-0.62606 c -2.29924,-0.78878 -4.49945,-2.27408 -6.14062,-4.14535 -0.70199,-0.80043 -1.45146,-1.45682 -1.66548,-1.45865 -0.21402,-0.002 -1.03215,-0.15217 -1.81807,-0.33407 -1.21657,-0.28158 -1.64121,-0.55991 -2.85718,-1.87274 -1.40827,-1.52045 -2.47625,-3.23499 -2.47625,-3.97539 0,-0.41595 -0.55023,-0.70031 -1.35509,-0.70031 -0.9008,0 -2.5872,-1.03344 -3.00508,-1.84154 -0.75249,-1.45515 -0.41459,-3.23868 0.87128,-4.59884 1.87933,-1.9879 5.07718,-2.61882 9.94271,-1.96162 0.66036,0.0892 0.87238,-0.54908 0.24891,-0.74935 -1.45265,-0.46662 -4.32403,-1.89535 -5.2319,-2.60328 -1.39978,-1.0915 -2.87341,-2.61726 -4.2689,-4.4199 -1.4225,-1.83752 -1.85677,-2.74277 -1.54031,-3.21083 0.13054,-0.19307 0.0394,-0.13679 -0.20244,0.12507 -0.51446,0.55694 -1.28001,0.36867 -1.28001,-0.31478 0,-0.25766 0.18364,-0.62088 0.40809,-0.80715 0.28312,-0.23497 0.32363,-0.42314 0.13229,-0.61448 -0.40022,-0.40022 -0.33282,-2.74126 0.1221,-4.24079 0.63259,-2.08521 2.65203,-5.4983 3.81932,-6.45513 0.58286,-0.47776 1.64696,-1.14072 2.36469,-1.47325 l 1.30494,-0.60459 -1.1931,-0.31911 c -1.61216,-0.43119 -3.2475,-1.61484 -4.04438,-2.92731 -0.6052,-0.99677 -0.72711,-1.07063 -1.52135,-0.92162 -0.85762,0.16089 -0.86343,0.15487 -0.86343,-0.8934 0,-0.58047 0.16161,-1.18952 0.35914,-1.35345 0.2168,-0.17993 0.41914,-1.1103 0.51054,-2.3475 0.19139,-2.59062 0.79749,-4.32925 1.9266,-5.52644 0.90601,-0.96066 1.33462,-1.03702 1.78784,-0.31852 0.38002,0.60246 -0.01,1.897 -0.51333,1.70386 -1.14708,-0.44018 -2.36471,1.54094 -2.65519,4.32006 l -0.16892,1.61623 0.76572,-0.39933 c 1.04262,-0.54374 2.01232,-0.50398 2.67081,0.10949 0.32179,0.2998 0.76518,0.45572 1.06956,0.37613 0.52153,-0.13638 1.66167,1.03911 2.43246,2.50789 0.6948,1.32397 0.47319,0.31335 -0.418,-1.90618 -1.22401,-3.04843 -1.69777,-5.99621 -1.40886,-8.76596 0.19163,-1.83707 0.16299,-2.15162 -0.21678,-2.38125 -0.24066,-0.14552 -1.18571,-0.96856 -2.1001,-1.82898 -2.89759,-2.72654 -3.75631,-5.73376 -2.42672,-8.4983 0.5771,-1.19993 0.60539,-1.42561 0.31429,-2.50713 -0.17594,-0.65368 -0.2992,-2.10552 -0.27391,-3.22631 0.0253,-1.1208 -0.0391,-2.12291 -0.14313,-2.22691 -0.29456,-0.29456 -0.22279,-1.01973 0.13646,-1.37899 0.30449,-0.30449 0.69605,-1.96261 1.66012,-7.03015 0.90705,-4.76781 0.29727,-9.83595 -1.31015,-10.88917 -0.36905,-0.24181 -0.60546,-0.54569 -0.52536,-0.6753 0.29377,-0.47532 1.35655,-0.21609 2.01695,0.49197 0.88553,0.94943 1.1709,1.54382 1.39728,2.91041 0.11523,0.69564 0.32684,1.12448 0.55485,1.12448 1.07785,0 0.67873,3.09033 -0.9397,7.27604 -0.56267,1.45521 -1.10917,3.00302 -1.21443,3.43959 -0.1824,0.75642 -0.11734,0.72364 1.3834,-0.69687 1.74856,-1.65507 3.72274,-2.77255 5.36086,-3.03449 1.2371,-0.19782 1.55244,0.3124 0.35259,0.5705 -3.77102,0.81121 -7.66793,4.39624 -7.5125,6.91126 0.0286,0.46199 -0.0703,0.9155 -0.21961,1.0078 -0.44465,0.27481 -0.30921,2.6047 0.25821,4.44178 l 0.52973,1.71509 1.12391,-0.11681 c 2.5489,-0.26491 4.98805,2.14014 5.05841,4.98769 l 0.0342,1.38616 1.25632,0.38994 1.25633,0.38995 2.05097,-1.98745 c 1.12803,-1.09309 2.40815,-2.21251 2.84471,-2.48759 0.43656,-0.27509 0.85328,-0.57659 0.92604,-0.67001 0.67162,-0.86229 6.12792,-2.72985 8.77814,-3.00454 1.67298,-0.1734 1.78181,-0.22654 2.0521,-1.00189 0.23133,-0.66359 0.20062,-0.94835 -0.16201,-1.50236 -0.57678,-0.88118 -5.33553,-5.62312 -9.81177,-9.7771 -3.16688,-2.9389 -5.34078,-5.42806 -5.02038,-5.74846 0.0662,-0.0662 0.5794,0.44815 1.14039,1.14307 1.28899,1.59675 4.25124,4.46439 5.20634,5.04007 0.40019,0.24121 0.72761,0.52165 0.72761,0.6232 0,0.10154 0.74414,0.79678 1.65364,1.54495 0.90951,0.74818 2.86944,2.56886 4.35541,4.04597 1.48596,1.47711 2.7576,2.6298 2.82587,2.56153 0.0683,-0.0683 0.29194,-1.09584 0.49704,-2.28351 l 0.37292,-2.15938 -1.21442,-0.44993 c -5.11918,-1.8966 -12.88341,-6.56165 -12.6759,-7.61617 0.0333,-0.1693 -0.42021,-0.78407 -1.00783,-1.36615 -0.58763,-0.58209 -1.17758,-1.23693 -1.31101,-1.45521 -0.13343,-0.21828 -0.48072,-0.52754 -0.77176,-0.68723 -0.90601,-0.49712 -2.08895,-2.44121 -3.96891,-6.52267 -0.43694,-0.94861 -0.98984,-1.26628 -1.30799,-0.7515 -0.20164,0.32627 0.73304,2.45702 1.27519,2.90696 0.86353,0.71667 2.40035,3.03058 2.08305,3.13635 -0.18164,0.0606 0.11699,0.55195 0.71129,1.17043 0.98375,1.0238 1.80381,3.01813 1.30897,3.18337 -0.12818,0.0428 -0.0168,0.64739 0.24743,1.34352 0.42935,1.13097 0.64758,1.345 2.05011,2.01064 0.91609,0.43478 2.04919,1.26718 2.72147,1.99925 1.4445,1.57297 2.6846,4.24209 2.6846,5.77819 0,0.62894 0.13897,1.28249 0.30882,1.45235 0.23538,0.23538 0.19537,0.35236 -0.16825,0.4919 -0.92133,0.35354 -1.29727,-0.22303 -1.33946,-2.05428 -0.0682,-2.95814 -1.97205,-5.98201 -4.48966,-7.13073 l -1.05833,-0.48289 -0.22049,0.65005 c -0.12126,0.35752 -0.36524,0.65004 -0.54216,0.65004 -0.17692,0 -0.47277,0.41786 -0.65745,0.92857 -0.34092,0.9428 -1.40624,1.71726 -2.36221,1.71726 -0.67583,0 -1.43086,-0.87487 -1.22284,-1.41694 0.19701,-0.51341 0.42106,-0.54778 0.83998,-0.12886 0.23199,0.232 0.41336,0.21743 0.74771,-0.0601 0.36165,-0.30014 0.41404,-0.67828 0.2899,-2.09223 -0.16833,-1.91718 -0.93746,-4.03138 -2.40854,-6.62066 -0.5374,-0.94588 -1.40012,-2.61276 -1.91716,-3.70417 -2.20329,-4.6509 -2.21252,-5.62647 -0.0619,-6.53922 1.14543,-0.486132 2.51017,0.34866 4.88053,2.98535 5.47541,6.09064 6.96783,7.2406 9.41195,7.25223 1.4635,0.007 2.61537,-0.75637 2.61537,-1.73318 0,-0.50521 -0.13834,-0.64226 -0.64831,-0.64226 -0.35657,0 -0.76642,0.20836 -0.91076,0.46302 -0.24588,0.43379 -0.28794,0.42962 -0.66619,-0.0661 -0.53423,-0.70019 -0.51954,-1.01905 0.0716,-1.55402 0.38026,-0.34413 0.63594,-0.38559 1.12448,-0.18234 1.79515,0.74683 2.60468,2.60005 1.69999,3.89169 -0.21315,0.3043 -0.33148,0.60934 -0.26296,0.67785 0.32325,0.32325 -1.04945,1.08047 -2.18304,1.20423 -0.69713,0.0761 -1.36272,0.30016 -1.47909,0.49788 -0.29718,0.50493 -0.95423,0.4479 -2.13582,-0.18539 -1.14251,-0.61235 -1.09206,-0.62367 -1.31147,0.29418 -0.13459,0.56303 -0.0198,0.75612 0.69039,1.16117 0.4685,0.26721 1.44713,0.87153 2.17473,1.34292 1.74021,1.12744 4.71528,2.3762 7.58005,3.18166 1.27224,0.35771 2.43937,0.65037 2.59362,0.65037 0.32468,0 0.0815,-4.38011 -0.27908,-5.02708 -0.17093,-0.30667 -0.22303,-0.31467 -0.22925,-0.0352 -0.0105,0.47159 -2.01662,2.41643 -2.49258,2.41643 -0.20199,0 -0.64406,-0.22414 -0.98237,-0.49808 -0.54289,-0.43961 -0.57806,-0.5794 -0.29957,-1.19063 0.17355,-0.3809 0.48211,-0.69254 0.6857,-0.69254 0.55801,0 0.99672,0.66548 0.79141,1.2005 -0.12483,0.32531 -0.0848,0.41385 0.12773,0.2825 0.76295,-0.47153 0.38248,-2.10056 -1.95299,-8.36217 -0.82061,-2.20012 -0.76717,-3.21552 0.19636,-3.73118 0.78518,-0.42022 2.15508,0.33047 2.90773,1.5934 1.10241,1.84981 2.07901,2.66695 3.1874,2.66695 0.65015,0 1.06853,-0.14018 1.16446,-0.39016 0.1401,-0.36509 -0.78972,-2.19799 -1.29081,-2.5445 -0.1245,-0.0861 -0.19905,-0.26469 -0.16566,-0.39688 0.0334,-0.13218 -0.0932,-0.77611 -0.2813,-1.43096 -0.21286,-0.74103 -0.28887,-1.90568 -0.2013,-3.08424 l 0.14071,-1.893608 -1.89596,-0.189733 c -1.04278,-0.104354 -2.46151,-0.336113 -3.15274,-0.515025 l -1.25677,-0.325294 v 0.977527 c 0,0.537638 0.16747,1.533993 0.37216,2.214113 0.34488,1.14594 0.33645,1.25571 -0.1149,1.49726 -0.26788,0.14337 -0.54093,0.26067 -0.60678,0.26067 -0.27602,0 -0.75417,-3.511721 -0.59423,-4.364262 0.0957,-0.510074 0.0793,-0.924123 -0.0365,-0.920109 -0.11573,0.004 -0.68627,0.718817 -1.26785,1.588455 -2.13638,3.194496 -5.80052,4.839216 -8.83929,3.967716 -2.29806,-0.65908 -3.46474,-2.21682 -3.46474,-4.626103 0,-1.152273 0.13299,-1.583986 0.69297,-2.249485 1.26531,-1.503735 2.90728,-1.969878 4.5201,-1.283221 1.02211,0.43516 1.93068,1.279787 1.93068,1.794793 0,0.236572 0.11997,0.550101 0.2666,0.69673 0.14663,0.146627 0.29545,0.735986 0.33073,1.309688 0.0561,0.912802 -0.008,1.044101 -0.51238,1.051208 -0.31708,0.0045 -0.79333,0.203549 -1.05833,0.442407 -0.26501,0.238853 -0.79847,0.513293 -1.18547,0.609863 -0.57175,0.14266 -0.85691,0.0152 -1.52135,-0.680089 -0.87523,-0.915839 -0.9763,-1.309396 -0.54383,-2.117487 0.35849,-0.669843 1.04903,-0.658392 1.04903,0.01739 0,0.660413 0.68728,0.693309 1.0319,0.04939 0.35227,-0.65822 -0.18808,-1.674318 -1.13075,-2.126314 -0.62752,-0.300881 -0.89671,-0.29932 -1.70917,0.0099 -1.82371,0.694105 -2.21948,2.966503 -0.79854,4.58487 1.12545,1.28181 2.08976,1.73244 3.74975,1.75226 2.72326,0.0325 4.74372,-1.00531 6.75106,-3.467761 l 1.1721,-1.437841 -0.63057,-0.25781 c -3.63131,-1.484662 -5.86191,-2.735485 -8.70036,-4.878779 -2.0811,-1.571421 -6.10998,-6.393842 -6.86544,-8.217678 -0.18838,-0.454795 -0.43491,-0.8269 -0.54784,-0.8269 -0.49736,0 -1.20992,6.888097 -0.88002,8.506918 0.13029,0.639352 0.21351,0.681485 0.9365,0.474136 1.08934,-0.312417 1.53596,-0.734393 1.53596,-1.451187 0,-1.011613 -0.28846,-1.44445 -0.96265,-1.44445 -0.75509,0 -1.08593,-0.635048 -0.62205,-1.193993 0.81908,-0.986938 2.65589,0.136731 2.69895,1.651087 0.0427,1.501431 -1.53841,3.247073 -2.94101,3.247073 -0.453,0 -0.55108,0.157382 -0.53589,0.859895 0.0102,0.472943 0.11458,1.098021 0.23188,1.389063 0.25422,0.630703 -0.12032,1.190625 -0.79643,1.190625 -0.67442,0 -0.77688,-0.264118 -0.82846,-2.135539 -0.0435,-1.578777 -0.0925,-1.69046 -1.18216,-2.694869 -3.09012,-2.848374 -4.05167,-8.602567 -2.61196,-15.630681 0.37029,-1.807641 0.99478,-3.876384 1.47759,-4.894792 1.09353,-2.30664 1.2654,-2.918177 1.57401,-5.600369 0.23877,-2.075217 1.09275,-5.270722 1.84195,-6.892396 0.27881,-0.603496 0.18356,-0.891434 -0.90269,-2.728754 -1.09089,-1.845155 -1.92645,-4.222786 -2.36638,-6.733667 -0.14304,-0.816414 -0.1129,-0.862734 0.43845,-0.673674 0.32564,0.111661 0.91948,0.183544 1.31967,0.15974 0.72088,-0.04288 0.97277,0.281829 0.46302,0.596876 -0.60979,0.376867 -0.0161,4.206298 1.01528,6.548438 0.30438,0.691223 0.65279,1.25677 0.77424,1.25677 0.12146,0 0.36803,-0.407037 0.54792,-0.904528 0.1799,-0.497488 0.91819,-1.715331 1.64065,-2.706313 1.37116,-1.880782 1.40607,-1.970185 1.14681,-2.937596 -0.11112,-0.414628 -0.35887,-0.595313 -0.8163,-0.595313 -1.46657,0 -3.0119,-1.213027 -2.19136,-1.720146 0.14755,-0.09119 0.19684,-0.596866 0.11113,-1.140094 -0.11953,-0.7576 -0.016,-1.17804 0.46245,-1.877434 0.70864,-1.03596 1.42367,-1.554775 1.72605,-1.252394 0.11491,0.114908 0.002,0.324973 -0.25189,0.46681 -0.61781,0.345744 -0.60211,1.850565 0.0274,2.628002 l 0.48824,0.60295 0.18431,-1.152607 c 0.22464,-1.404811 1.27875,-3.574312 2.21498,-4.558732 l 0.69198,-0.727605 h -1.00084 c -1.2458,0 -2.16138,0.616591 -4.3902,2.956554 -1.4093,1.479576 -1.86964,1.805946 -2.54729,1.805946 -1.19252,0 -1.55879,-0.598848 -1.52179,-2.488122 0.0243,-1.243719 0.2593,-2.12771 1.02643,-3.861878 0.79351,-1.793793 1.00921,-2.62928 1.06574,-4.128122 l 0.0709,-1.879164 -1.03701,0.05851 c -0.57036,0.03218 -1.10801,-0.05635 -1.19477,-0.196747 -0.30095,-0.486946 0.57302,-0.977986 1.87605,-1.054057 1.16869,-0.06823 1.34589,-0.0052 1.64531,0.584995 0.2489,0.490616 0.50856,0.639483 1.00536,0.576377 0.56696,-0.07202 0.6698,0.02069 0.6698,0.603811 0,0.37889 -0.17252,1.101786 -0.38337,1.606435 -0.36113,0.864284 -0.35345,0.917544 0.13229,0.917544 0.32906,0 0.51566,0.180748 0.51566,0.499477 0,0.523935 -1.40857,2.729707 -2.68317,4.201729 -0.7393,0.853823 -1.22274,2.064406 -0.93808,2.349068 0.29639,0.29639 0.71337,-0.233054 1.5282,-1.940374 0.87507,-1.833542 2.83063,-4.051567 3.57214,-4.051567 0.44001,0 0.43593,0.47279 -0.0148,1.719792 -0.10987,0.30394 -0.0962,0.402572 0.0321,0.231733 0.53228,-0.708695 2.13463,-1.420432 3.19996,-1.421369 1.20875,-0.0011 1.26,0.04515 0.86621,0.780949 -0.20001,0.373733 -0.15318,0.510046 0.20766,0.604407 0.72233,0.188894 3.49019,-0.100297 3.49019,-0.364661 0,-0.129638 -0.39434,-0.666003 -0.87631,-1.191921 -1.21108,-1.321524 -2.91403,-1.504968 -4.76009,-0.512765 -1.49245,0.802146 -1.50735,0.804848 -1.50735,0.273191 0,-0.600466 2.04867,-1.429756 3.54863,-1.436462 1.45975,-0.0065 3.44747,0.964269 3.71771,1.815711 0.27162,0.855797 1.02804,1.499508 2.14536,1.8257 0.69882,0.204014 1.50639,0.767687 2.29856,1.604365 l 1.22123,1.28985 1.43303,-0.364979 c 0.78816,-0.200739 2.12524,-0.452172 2.97128,-0.55874 2.20422,-0.277645 2.12838,-0.740735 -0.15607,-0.953053 -2.19431,-0.203939 -4.27783,-1.017225 -5.01861,-1.958981 -0.62437,-0.793753 -0.67259,-2.104732 -0.10711,-2.912063 0.39035,-0.557295 0.37531,-0.602785 -0.28181,-0.852621 -1.08553,-0.412718 -6.67116,-0.321848 -8.47547,0.137883 -0.86732,0.22099 -2.27517,0.762997 -3.12856,1.204461 -0.85338,0.441463 -1.60076,0.753507 -1.66084,0.693429 -0.18654,-0.186534 1.74212,-1.540611 3.31095,-2.324566 3.20324,-1.60068 8.09783,-1.986168 10.52465,-0.828899 0.84943,0.405068 1.01007,0.405666 2.15875,0.008 2.84242,-0.983911 6.14527,-0.824687 9.73617,0.469361 1.00298,0.361444 2.74742,0.970407 3.87653,1.353249 l 2.05293,0.696078 2.18041,-0.461615 c 1.19922,-0.253889 2.67434,-0.569446 3.27804,-0.701239 0.98506,-0.215047 3.3723,-0.29254 10.41174,-0.337978 1.87188,-0.01208 2.46427,0.09334 3.53317,0.628743 1.53479,0.76877 2.02308,1.394308 2.02308,2.591751 0,0.663506 -0.23166,1.125285 -0.89959,1.793212 -0.49477,0.494771 -1.09711,0.899583 -1.33853,0.899583 -0.25357,0 -0.36249,0.123708 -0.25791,0.292929 0.12032,0.194682 0.002,0.236241 -0.35149,0.12391 -0.49513,-0.157149 -0.53322,-0.0502 -0.54229,1.522729 -0.0155,2.69006 -0.81334,4.993326 -2.45048,7.074454 l -0.7428,0.94423 1.55546,-0.250499 c 1.34576,-0.216728 1.67337,-0.181627 2.43019,0.260376 2.05256,1.19876 1.60579,3.231695 -1.35626,6.171455 -3.07156,3.048436 -5.88435,4.224406 -10.11814,4.230192 -1.26384,0.0019 -2.59696,-0.110569 -2.96251,-0.249549 -0.55813,-0.212201 -0.69195,-0.166608 -0.83513,0.284522 -0.20198,0.636368 -0.34194,0.50369 1.49851,1.420543 l 1.48841,0.741476 0.91101,-0.694859 c 1.37303,-1.047261 3.01756,-1.523331 5.31921,-1.539838 1.737,-0.01246 2.17632,-0.108781 2.77812,-0.609124 1.72163,-1.431388 3.13406,-1.609566 4.00293,-0.504973 0.68551,0.871484 0.68952,1.278376 0.0192,1.948693 -0.63912,0.639114 -1.37679,0.697995 -1.26837,0.10124 0.0428,-0.23536 -0.11219,-0.550548 -0.34432,-0.700418 -0.43483,-0.280728 -1.83222,-0.07075 -1.82007,0.273489 0.004,0.106368 0.58768,0.58729 1.29762,1.068713 1.49425,1.013285 2.46937,2.314308 3.22493,4.302776 0.62074,1.633667 0.85386,4.957458 0.40344,5.752285 -0.16643,0.293695 -0.60026,1.100923 -0.96406,1.793841 -0.43597,0.830371 -1.20159,1.658326 -2.24588,2.42875 l -1.58442,1.168903 0.086,1.672119 c 0.0905,1.760059 -0.79362,5.27663 -1.84494,7.33806 l -0.50508,0.990386 0.61924,0.993989 c 0.34058,0.546695 0.84861,1.559092 1.12893,2.249771 0.55104,1.357651 1.08178,1.714912 0.78759,0.530158 -0.0994,-0.400182 -0.24619,-1.471744 -0.32625,-2.38125 -0.12383,-1.406522 -0.0817,-1.653645 0.28212,-1.653645 0.3267,0 0.4277,-0.265198 0.4277,-1.123014 0,-0.8837 0.23962,-1.477732 1.12447,-2.787565 1.13552,-1.68089 2.06629,-2.264905 2.66133,-1.669862 0.51968,0.519671 -0.35951,1.754687 -1.20769,1.69649 -0.5706,-0.03915 -0.72297,0.09269 -0.86747,0.750583 -0.27897,1.27014 -0.17849,5.677482 0.19509,8.557326 0.42123,3.247186 0.45086,10.929496 0.0432,11.193036 -0.1566,0.10123 -0.43127,0.63355 -0.61038,1.18295 -0.73856,2.26538 -2.45815,3.26842 -3.32783,1.94112 -0.33766,-0.51534 -0.40112,-1.35702 -0.3441,-4.56407 0.0728,-4.097128 -0.0851,-4.857755 -1.2512,-6.023803 -0.541,-0.541001 -1.86565,-0.550627 -2.07117,-0.01506 -0.17076,0.445006 0.43206,0.804201 0.88248,0.525828 0.42289,-0.261366 0.62016,0.539726 0.28644,1.163275 -0.32652,0.610116 -1.05792,0.720061 -1.54564,0.232341 -0.46149,-0.461486 -0.40405,-2.720879 0.0794,-3.122083 0.21828,-0.181158 0.39688,-0.540184 0.39688,-0.79784 0,-0.502 0.50327,-0.78966 1.38153,-0.78966 0.29948,0 0.69686,-0.208359 0.88308,-0.463021 0.31681,-0.433252 0.38335,-0.420955 1.03508,0.191304 0.76244,0.716267 1.71765,2.658547 1.74416,3.546497 0.0156,0.522009 0.0349,0.516252 0.27377,-0.08152 0.1693,-0.423717 0.16358,-0.911191 -0.0168,-1.428546 -0.15058,-0.431934 -0.27378,-1.053126 -0.27378,-1.380421 0,-0.748802 -2.31471,-5.411372 -2.68645,-5.411372 -0.15148,0 -0.79864,0.581951 -1.43814,1.293228 -0.6395,0.711274 -2.05667,1.977935 -3.14927,2.814802 -1.0926,0.836864 -1.98655,1.605679 -1.98655,1.708472 0,0.102796 0.25475,0.413714 0.56612,0.690928 0.69762,0.621109 2.39745,4.084923 2.22507,4.534131 -0.0691,0.1801 0.10804,0.45252 0.39366,0.60538 0.33676,0.18023 0.51931,0.55368 0.51931,1.06237 0,0.79177 -0.372,1.06465 -0.61852,0.45371 -0.0734,-0.1819 -0.14285,0.0281 -0.15434,0.46676 -0.055,2.09843 -2.08361,5.70755 -4.25422,7.56859 -2.20047,1.88664 -5.27324,3.1433 -7.68594,3.1433 -2.14438,0 0.35872,1.35542 2.81305,1.52326 2.17298,0.1486 3.98923,-0.47169 4.74109,-1.61917 0.42574,-0.64976 0.33658,-1.3848 -0.13278,-1.09472 -0.4746,0.29332 -0.58964,-0.49205 -0.12215,-0.83388 1.20448,-0.88074 2.42613,-0.0435 2.07739,1.42377 -0.25506,1.0731 -0.73853,1.51573 -2.53731,2.32297 -2.74417,1.23151 -6.04864,0.70536 -8.49425,-1.35248 -0.41463,-0.34888 -0.99231,-0.63434 -1.28375,-0.63434 -1.28446,0 -5.51493,-2.08736 -5.51493,-2.72113 0,-0.13221 -0.44781,-0.74911 -0.99514,-1.37091 -0.54732,-0.62179 -1.1724,-1.4735 -1.38906,-1.89268 -0.21666,-0.41918 -0.60229,-0.99296 -0.85695,-1.27506 -0.4163,-0.46116 -0.46302,-0.4669 -0.46302,-0.0568 0,0.63342 0.74492,1.74544 1.79957,2.68642 1.20042,1.07103 2.46108,4.6302 1.64001,4.6302 -0.14552,0 -0.26458,0.11907 -0.26458,0.26459 0,0.14552 0.13607,0.23482 0.30237,0.19844 0.37525,-0.0821 0.97735,2.01975 1.22837,4.28803 0.16858,1.52335 0.26069,1.72823 0.85051,1.89186 0.96582,0.26794 5.55625,0.27577 5.55625,0.009 0,-0.12473 -1.06203,-1.15202 -2.36006,-2.28287 -2.13812,-1.86272 -4.78369,-4.63529 -4.78369,-5.01331 0,-0.0825 0.1786,-0.14996 0.39688,-0.14996 0.21828,0 0.39687,0.0943 0.39687,0.20954 0,0.72428 6.60004,6.37743 7.94343,6.8038 0.62348,0.19789 2.93698,-0.43039 5.15345,-1.39953 1.58351,-0.69239 5.53941,-3.2053 5.34769,-3.39702 -0.0556,-0.0556 -0.68625,0.0765 -1.40147,0.29342 -1.54005,0.46719 -2.18373,0.51626 -1.80509,0.13762 0.14442,-0.14442 1.09097,-0.47421 2.10343,-0.73287 2.25682,-0.57654 3.21303,-1.26129 4.32617,-3.09797 l 0.85883,-1.41705 0.77365,0.44013 c 0.42551,0.24208 0.7744,0.50175 0.77532,0.57706 8e-4,0.0753 -0.54594,0.70839 -1.21524,1.40687 -0.6693,0.69848 -1.17531,1.30077 -1.12448,1.33844 0.0508,0.0377 0.86634,0.34339 1.81223,0.67939 1.75635,0.6239 3.3862,1.73193 3.42048,2.32536 0.0105,0.1819 0.12972,0.33073 0.26492,0.33073 0.13521,0 0.38481,0.66948 0.55468,1.48774 0.25731,1.23944 0.24156,1.64791 -0.0943,2.4474 -0.22176,0.52781 -0.46681,1.25731 -0.54456,1.62111 -0.20687,0.96801 -1.86555,2.5455 -3.22069,3.06303 -1.37799,0.52626 -3.54767,0.40325 -4.86034,-0.27556 -2.51265,-1.29934 -2.51784,-5.53824 -0.009,-7.64898 0.88344,-0.74337 1.19324,-0.83995 1.43574,-0.44758 0.084,0.13594 0.56176,0.18079 1.06167,0.0997 0.76501,-0.12414 1.03654,-0.0199 1.71494,0.65852 0.87236,0.87236 1.00505,1.31614 0.45647,1.52665 -0.22085,0.0847 -0.30708,0.42356 -0.2342,0.92016 0.13243,0.90231 -0.31229,1.57492 -1.04131,1.57492 -0.39077,0 -0.47543,-0.14625 -0.38221,-0.66029 0.13815,-0.76189 -0.51304,-1.56115 -1.09118,-1.3393 -0.21142,0.0811 -0.55867,0.14751 -0.77166,0.14751 -0.213,0 -0.67951,0.29225 -1.0367,0.64943 -0.51539,0.5154 -0.64943,0.921 -0.64943,1.96518 0,1.73692 0.77066,2.41315 2.74766,2.411 4.22367,-0.005 6.06409,-2.2105 5.36402,-6.42922 -0.29347,-1.76846 -1.87918,-3.40882 -3.86022,-3.99326 -0.7904,-0.23318 -1.56431,-0.42058 -1.7198,-0.41645 -0.15549,0.004 -0.78323,0.45319 -1.39498,0.99792 -2.22218,1.97873 -6.84928,4.31571 -9.33039,4.71246 -0.58669,0.0938 -1.06671,0.24714 -1.06671,0.34072 0,0.0936 0.53578,0.46283 1.19062,0.82055 0.65485,0.35773 1.19063,0.68764 1.19063,0.73315 0,0.32946 -1.11706,1.19512 -1.26862,0.9831 -0.10262,-0.14357 -0.72237,-0.67776 -1.37722,-1.18708 l -1.19062,-0.92604 -3.9026,-0.053 c -3.696,-0.0502 -3.90261,-0.026 -3.90261,0.45709 0,0.38628 0.65838,0.82483 2.71198,1.80648 1.49159,0.71299 3.12207,1.60862 3.62328,1.9903 0.58075,0.44224 1.24623,0.69395 1.83469,0.69395 3.07456,0 6.67579,4.01914 7.0818,7.90362 0.15172,1.45155 0.11098,1.62854 -0.52009,2.2596 -0.37658,0.37659 -0.90977,0.6847 -1.18488,0.6847 -0.64517,0 -1.37595,-0.81077 -1.37595,-1.52657 0,-0.63268 0.40777,-1.00059 0.6588,-0.59441 0.47864,0.77446 1.45814,-0.34219 1.45766,-1.66178 -2.6e-4,-0.89117 -1.42069,-3.65528 -2.36469,-4.60181 -1.29376,-1.29722 -3.9851,-2.44643 -3.9851,-1.70165 0,0.12789 0.41672,0.92455 0.92604,1.77037 1.2069,2.00425 1.34249,3.51672 0.39992,4.46082 -0.42964,0.43034 -0.6152,0.46257 -1.18041,0.20504 -0.37791,-0.17219 0.15327,0.47111 1.21693,1.47378 1.86347,1.75661 2.42525,2.48809 3.70334,4.82204 0.70191,1.28176 1.66299,3.85779 1.93465,5.1855 0.16603,0.81149 0.17836,0.81704 1.20624,0.54268 1.44378,-0.38537 2.64784,0.21973 3.57067,1.79442 0.59683,1.01842 0.67715,1.38946 0.53265,2.46072 -0.19011,1.40935 -0.95538,2.88649 -1.4392,2.77799 -0.17409,-0.039 -0.57461,0.10979 -0.89005,0.33073 -0.74274,0.52024 -1.0617,0.50633 -1.783,-0.0777 -0.83767,-0.67831 -0.51835,-1.63723 0.5452,-1.63723 1.86372,0 2.50036,-4.10745 0.7794,-5.02848 -0.48619,-0.2602 -1.55131,-0.14965 -1.86576,0.19364 -0.10309,0.11255 -0.25479,1.2762 -0.33712,2.58589 -0.18921,3.00986 -0.73518,5.36314 -1.77766,7.66229 -0.9258,2.04182 -0.79422,2.3859 0.80816,2.11319 3.15427,-0.53684 6.17947,-4.25488 7.41567,-9.11403 0.61452,-2.4155 0.8297,-7.06122 0.45343,-9.78958 -0.17569,-1.27399 -0.15461,-1.39621 0.16929,-0.98148 0.89183,1.14191 0.99853,7.47999 0.18121,10.76391 -1.08625,4.36444 -3.5654,8.49282 -5.78646,9.63583 -1.59877,0.82277 -2.57342,0.92551 -3.75624,0.39594 l -1.11675,-0.49998 -1.54671,1.38924 c -1.27231,1.14278 -1.63807,1.6709 -2.06165,2.97675 -0.28322,0.87312 -0.76464,2.21258 -1.06982,2.97656 -0.30519,0.76399 -0.77954,1.95461 -1.05412,2.64584 l -0.49923,1.25677 0.56538,0.0278 c 0.31096,0.0153 1.25296,0.12135 2.09334,0.23565 1.23025,0.16731 1.74576,0.11284 2.64583,-0.27956 1.41496,-0.61688 3.25789,-1.8188 4.32919,-2.8234 0.45654,-0.42811 0.89996,-0.66531 0.98537,-0.52711 0.26316,0.4258 -3.4229,3.44533 -4.85057,3.97346 -0.56492,0.20898 -0.47088,0.30681 1.15298,1.19939 0.97244,0.53453 1.80829,0.97186 1.85744,0.97186 0.0492,0 0.16239,-0.44648 0.25164,-0.99219 0.21046,-1.2869 1.47496,-3.92936 2.41095,-5.03825 1.14154,-1.35241 1.10334,-0.79852 -0.0874,1.26675 -1.11408,1.93235 -1.88904,3.87917 -1.88904,4.74557 0,0.2709 0.80821,1.30854 1.79603,2.30585 1.58709,1.60237 2.86518,3.59115 3.35642,5.22277 0.14462,0.48033 0.16987,0.48127 0.6739,0.0251 0.63648,-0.57601 0.67745,-1.33785 0.0896,-1.66681 -0.55981,-0.31328 -0.23369,-0.84292 0.51578,-0.83769 0.76981,0.005 1.13111,0.26874 1.35562,0.98814 0.10218,0.32742 0.29682,0.59531 0.43253,0.59531 1.01215,0 -0.97027,2.56744 -2.08143,2.69567 -0.5855,0.0676 -0.72908,0.23219 -0.79514,0.91164 -0.0462,0.47549 -0.46944,1.28343 -0.99219,1.89414 -1.02268,1.19477 -1.06346,1.37349 -0.54381,2.38305 0.20226,0.39295 0.42759,1.16309 0.50072,1.71142 0.0731,0.54832 0.28195,1.17645 0.46402,1.39583 0.26715,0.3219 0.25161,0.56352 -0.0806,1.252 -0.22638,0.46922 -0.58374,1.34044 -0.79416,1.93604 -0.51458,1.45661 -2.06148,3.78136 -2.63786,3.96429 -0.25617,0.0813 -0.46576,0.23981 -0.46576,0.35224 0,0.11242 -0.4674,0.35866 -1.03866,0.54719 -1.06699,0.35214 -2.03083,0.21335 -1.74378,-0.2511 0.091,-0.14732 -0.30653,-0.33618 -0.91125,-0.43288 -1.3418,-0.21456 -2.77012,-1.54898 -2.51605,-2.35062 0.0925,-0.29193 0.15387,-0.9289 0.13632,-1.41548 -0.043,-1.19078 0.22753,-1.95966 0.63446,-1.80351 0.18373,0.0705 0.529,-0.0995 0.76726,-0.37773 0.4497,-0.52523 0.94537,-0.61101 1.95972,-0.33917 0.799,0.21412 0.84812,1.42073 0.0578,1.42073 -1.29197,0 -0.78286,2.08453 0.63426,2.59697 2.32806,0.84184 4.20531,-0.35811 4.78716,-3.05999 0.11919,-0.55344 0.0834,-0.85989 -0.10042,-0.85989 -0.38091,0 -0.36371,-0.94046 0.0287,-1.56879 0.24563,-0.39332 0.23542,-0.74225 -0.0468,-1.59729 -0.60038,-1.81917 -0.80792,-1.98566 -1.98918,-1.59581 -0.66559,0.21966 -1.71405,0.28149 -3.03983,0.17925 l -2.02381,-0.15606 -0.5749,1.18333 c -0.7526,1.54907 -2.52691,3.45607 -3.42543,3.68158 -0.97289,0.24418 -1.65067,-0.6091 -1.64721,-2.07375 0.003,-1.08903 1.00051,-3.64441 1.55772,-3.98878 0.43471,-0.26867 0.3533,-0.62308 -0.18217,-0.79303 -0.84192,-0.26722 -3.74179,-3.18278 -5.20834,-5.23653 l -0.42976,-0.60183 -0.62626,0.71692 c -0.97536,1.11654 -1.53998,3.44309 -1.40592,5.79318 0.12575,2.2045 0.0791,2.2557 -1.46414,1.6078 -1.16507,-0.48912 -1.17559,-0.37868 -0.0522,0.5472 0.57385,0.47294 1.20795,0.82223 1.40912,0.7762 0.9018,-0.20636 2.15234,1.75909 2.70665,4.25401 0.38317,1.7246 1.04685,2.60445 1.04685,1.38782 0,-0.80693 -1.45674,-4.07837 -2.49916,-5.61242 -0.96727,-1.42347 -0.90311,-2.09397 0.4607,-4.8148 0.82973,-1.65532 2.95713,-2.11467 2.78145,-0.60057 -0.0908,0.78294 -1.00757,1.1832 -1.00757,0.43993 0,-0.24108 -0.14883,-0.38739 -0.33073,-0.32513 -0.21598,0.0739 -0.32749,0.65531 -0.3214,1.67569 0.007,1.1958 0.26853,2.21892 1.11379,4.3595 0.60746,1.53835 1.18403,3.29452 1.28126,3.9026 0.12227,0.76467 0.30915,1.10838 0.606,1.11459 0.49328,0.0103 1.95066,0.69274 3.00045,1.40498 1.04009,0.70566 2.324,2.76605 2.32096,3.72463 -0.005,1.45085 -1.15486,3.44906 -2.68569,4.66555 -2.67521,2.12587 -5.30242,2.8798 -10.07296,2.89062 -1.83754,0.004 -5.85268,0.44456 -6.23315,0.68366 -0.20398,0.1282 0.75926,3.87537 1.16418,4.52889 0.84795,1.36853 2.33839,2.7689 3.675,3.45291 3.22262,1.64918 7.55563,0.32954 7.53221,-2.29397 -0.0149,-1.66314 -0.8791,-2.27616 -2.05139,-1.45505 -0.53966,0.37799 -0.60477,0.37492 -0.76244,-0.036 -0.24655,-0.6425 0.22015,-1.25089 1.26011,-1.6427 l 0.90067,-0.33933 -0.90868,0.14404 c -1.2696,0.20124 -1.91295,0.85448 -1.81613,1.84402 0.0593,0.60579 0.22756,0.82837 0.67429,0.89182 0.81888,0.1163 0.78024,1.03316 -0.0597,1.41585 -0.54296,0.24739 -0.88552,0.18985 -2.00271,-0.3364 -1.26619,-0.59643 -1.33802,-0.68285 -1.18729,-1.42858 0.0882,-0.43657 0.18579,-1.07858 0.21677,-1.42671 0.0936,-1.05108 1.24087,-1.67524 3.34081,-1.81749 1.569,-0.10628 1.89405,-0.0565 2.0354,0.31187 0.28601,0.74534 1.60049,1.27991 2.26835,0.92248 0.79303,-0.42442 1.36904,0.34863 1.09945,1.47553 -0.10512,0.4394 -0.19785,1.12591 -0.20607,1.52559 -0.0453,2.20197 -5.15214,4.64154 -8.15195,3.89421 z m -7.86492,-11.11318 c 0.43865,-0.81964 0.0839,-1.4913 -1.27978,-2.42287 -0.68151,-0.46558 -1.92021,-1.49263 -2.75265,-2.28234 l -1.51353,-1.43585 -1.19845,0.56334 c -0.65914,0.30984 -1.19844,0.68612 -1.19844,0.83619 0,0.42126 2.1119,2.47084 3.43958,3.33808 1.05155,0.68687 2.49611,1.37771 3.70417,1.77147 0.21828,0.0712 0.42245,0.13876 0.45371,0.15025 0.0313,0.0115 0.18668,-0.22173 0.34539,-0.51827 z m 3.9634,0.41042 c 0,-0.15338 -1.69925,-0.88115 -2.56425,-1.09826 -0.52103,-0.13076 -0.61075,-0.0519 -0.61075,0.53686 0,0.66711 0.053,0.69014 1.5875,0.69014 0.87312,0 1.5875,-0.0579 1.5875,-0.12874 z m 8.78208,-0.92457 c 3.37956,-1.28413 5.49922,-3.58147 5.70814,-6.18665 0.13324,-1.66134 -0.59339,-2.91057 -2.19734,-3.77772 -1.81215,-0.9797 -2.1525,-1.00407 -2.36091,-0.16905 -0.25365,1.01626 -0.89804,1.66173 -1.65896,1.66173 -0.6321,0 -1.98512,-1.11234 -2.22372,-1.82817 -0.095,-0.28489 -0.29867,-0.30919 -0.90303,-0.10774 -0.67839,0.22613 -0.80435,0.4276 -0.96367,1.54134 -0.13848,0.96814 -0.40751,1.50545 -1.10095,2.1989 -0.79649,0.79649 -1.13921,0.93886 -2.59498,1.07803 l -1.67729,0.16035 -0.89198,1.7761 c -0.49058,0.97685 -0.8266,1.94646 -0.7467,2.15467 0.19862,0.5176 2.97747,1.75777 3.93864,1.75777 0.42945,0 1.30457,-0.30694 1.94471,-0.6821 1.31622,-0.77135 3.82512,-3.3887 3.82512,-3.99045 0,-0.30882 0.19028,-0.35582 0.8599,-0.21236 0.47294,0.10132 0.90168,0.22203 0.95276,0.26823 0.0511,0.0462 -0.22533,0.50118 -0.61423,1.01105 -0.83613,1.09623 -2.58449,2.56685 -4.16555,3.50382 l -1.13392,0.672 2.35768,-0.17007 c 1.29673,-0.0935 2.93756,-0.39039 3.64628,-0.65968 z m -1.4399,-5.31789 c -0.25466,-0.14832 -0.46302,-0.50991 -0.46302,-0.80353 0,-0.42719 0.11458,-0.49748 0.57345,-0.35184 l 0.57345,0.182 -0.57345,-0.72902 c -0.59774,-0.7599 -0.75234,-1.45141 -0.32448,-1.45141 0.13693,0 0.32255,0.11906 0.41249,0.26458 0.25266,0.40882 1.22765,0.31309 1.7651,-0.1733 0.45495,-0.41172 0.48386,-0.40278 0.48386,0.14969 0,0.79574 -0.46548,1.61111 -0.91974,1.61111 -0.20457,0 -0.45342,0.13182 -0.55299,0.29293 -0.12183,0.19712 0.003,0.23456 0.38126,0.11446 0.63284,-0.20085 0.78215,0.32527 0.2448,0.86261 -0.3837,0.3837 -0.97626,0.39544 -1.60073,0.0317 z m -10.78177,3.18136 c 0,-0.15369 0.36512,-1.01532 0.81137,-1.91476 l 0.81137,-1.63532 -0.61293,-0.45515 c -1.79136,-1.33019 -2.14663,-1.70463 -2.80231,-2.95356 -0.60732,-1.15682 -0.71281,-1.67795 -0.7039,-3.47741 0.0147,-2.95814 0.91191,-4.64127 3.1163,-5.84574 0.41371,-0.22604 0.68922,-0.47396 0.61226,-0.55093 -0.22599,-0.22599 -3.03258,1.1543 -4.42418,2.17582 l -1.28276,0.94164 0.58375,1.11044 c 0.77692,1.4779 0.81712,4.57879 0.0805,6.21223 -0.27677,0.61375 -0.57555,1.11591 -0.66396,1.11591 -0.0884,0 -0.30943,0.23807 -0.49115,0.52904 -0.28529,0.45682 -0.23077,0.64273 0.39938,1.362 1.50832,1.72163 3.7403,3.58471 4.36778,3.64587 0.10915,0.0106 0.19844,-0.1064 0.19844,-0.26008 z m -10.40919,-3.3586 c -0.81224,-2.47157 -1.49706,-5.00983 -1.49706,-5.54876 0,-0.55057 -0.0988,-0.63644 -0.59531,-0.51726 -0.32742,0.0786 -1.05497,0.22629 -1.61677,0.32821 l -1.02146,0.18529 0.10876,1.50372 c 0.11107,1.53552 0.98813,3.24214 1.62601,3.16397 0.72176,-0.0884 0.96961,0.0572 0.96961,0.56972 0,0.29963 0.0893,0.49312 0.19843,0.42998 0.10914,-0.0631 0.43657,-0.019 0.72761,0.0981 0.896,0.36046 1.26514,0.28901 1.10018,-0.21295 z m 2.96138,-0.092 c 0.45827,-0.15975 0.83323,-0.38644 0.83323,-0.50375 0,-0.1173 -0.39039,-0.90933 -0.86754,-1.76005 -0.47714,-0.85073 -1.02557,-2.08255 -1.21872,-2.7374 -0.6332,-2.14672 -0.57782,-2.08796 -1.57517,-1.67131 -0.88171,0.36835 -0.88297,0.3715 -0.69687,1.74777 0.16155,1.19465 1.13154,4.22472 1.58979,4.96618 0.20395,0.33 0.91332,0.31482 1.93528,-0.0414 z m 13.43584,-1.44816 c 0.59387,-0.62969 0.89114,-1.20338 0.89114,-1.71979 0,-0.42621 -0.0781,-0.77492 -0.17347,-0.77492 -0.47345,0 -3.79528,2.82436 -3.79528,3.22691 0,0.11697 0.49196,0.21268 1.09324,0.21268 0.91082,0 1.24193,-0.15766 1.98437,-0.94488 z m -2.37309,-0.90052 c 0.79209,-0.72393 1.79445,-1.52552 2.22746,-1.7813 0.92957,-0.54911 0.90569,-1.09861 -0.0716,-1.64714 -1.04588,-0.58703 -2.21725,-0.12065 -2.14914,0.85568 0.0571,0.81775 0.0634,0.81452 -0.81656,0.41357 -0.82805,-0.37728 -0.94708,-0.69159 -0.76788,-2.02761 0.11193,-0.8345 0.27758,-1.10392 0.75192,-1.22297 0.3346,-0.084 0.79794,-0.0799 1.02963,0.009 0.2317,0.0889 0.59074,0.021 0.79787,-0.15089 0.27001,-0.22409 0.52306,-0.23416 0.89413,-0.0356 0.71425,0.38226 1.89753,1.8304 1.89753,2.32227 0,0.30991 0.17107,0.36232 0.72707,0.22277 0.39988,-0.10036 0.76305,-0.21847 0.80705,-0.26247 0.044,-0.044 -0.19388,-0.56675 -0.52862,-1.16167 -1.30362,-2.31689 -3.4151,-3.92105 -5.33091,-4.05007 -1.19127,-0.0802 -1.33071,0.0636 -0.92506,0.95388 0.26868,0.58967 0.25885,0.75748 -0.0562,0.9599 -1.1675,0.75005 -1.63035,-0.46591 -0.79822,-2.09702 0.64981,-1.27373 0.80838,-1.38457 2.12093,-1.48247 0.56128,-0.0419 1.27854,-0.25684 1.59392,-0.47774 0.53245,-0.37295 0.45404,-0.39242 -1.09794,-0.27263 -3.56505,0.27515 -5.83527,3.21118 -5.43587,7.03009 0.24194,2.31327 2.0792,5.21865 3.30008,5.21865 0.21464,0 1.03832,-0.5923 1.83042,-1.31623 z m -8.20254,-0.68688 c 0.57064,-1.24642 0.65987,-1.76955 0.57809,-3.38902 -0.0619,-1.22654 -0.26048,-2.16503 -0.55221,-2.61026 l -0.45549,-0.69518 -1.59244,1.06338 c -0.96223,0.64256 -1.59243,1.25168 -1.59243,1.53916 0,0.58734 1.20709,3.83294 1.79684,4.8313 0.6384,1.08073 1.06355,0.90779 1.81764,-0.73938 z m -13.13948,-3.95932 c 0,-0.85336 0.0464,-0.91053 0.52917,-0.65215 0.48111,0.25749 0.52916,0.20121 0.52916,-0.61975 0,-1.15353 0.69174,-1.82706 1.18443,-1.15327 0.29548,0.4041 0.37116,0.41048 0.66522,0.0562 0.74913,-0.90264 2.4016,-0.26206 2.72255,1.0554 0.0709,0.29104 0.14273,-0.0394 0.15961,-0.73421 0.0169,-0.69486 0.26731,-1.93661 0.55651,-2.75943 0.2892,-0.82283 0.45978,-1.56208 0.37907,-1.64279 -0.37416,-0.37417 -4.05508,-0.30964 -5.62856,0.0987 -4.98058,1.29242 -6.52406,5.44699 -2.55237,6.87019 1.46465,0.52484 1.45521,0.5282 1.45521,-0.51882 z m 5.51548,-0.27249 c 0.0717,-0.39821 0.0201,-0.44269 -0.23209,-0.20019 -0.24885,0.2393 -0.44333,0.2393 -0.83666,0 -0.43128,-0.26238 -0.59353,-0.21283 -1.02438,0.31286 -0.77023,0.93978 -0.63401,1.07148 0.74453,0.71981 0.88765,-0.22644 1.2835,-0.4708 1.3486,-0.83248 z m 2.22358,-0.48339 c 0.38464,-0.29199 0.46302,-0.78322 0.46302,-2.902 0,-1.91545 -0.0856,-2.55052 -0.34372,-2.55052 -0.4992,0 -0.92889,1.4264 -1.13578,3.77031 -0.19246,2.18047 -0.0187,2.46803 1.01648,1.68221 z m 2.98927,-1.61278 c 0.79338,-0.50751 1.43882,-1.01353 1.43432,-1.12448 -0.01,-0.24667 -2.08037,-1.8258 -2.71109,-2.06783 -0.40815,-0.15662 -0.45573,0.049 -0.45573,1.97009 0,1.17974 0.0652,2.14498 0.145,2.14498 0.0798,0 0.79413,-0.41524 1.5875,-0.92276 z m 24.69126,-0.76023 c 0.74993,-0.79827 1.92511,-3.06782 1.74197,-3.36415 -0.0831,-0.13449 -0.29293,-0.24526 -0.46624,-0.24616 -0.17331,-7.9e-4 -0.64477,-0.17359 -1.04768,-0.38376 -0.71401,-0.37244 -0.74863,-0.35667 -1.36677,0.62251 -0.75995,1.20384 -1.14275,3.30488 -0.69946,3.83901 0.38599,0.46509 1.14294,0.27259 1.83818,-0.46745 z m -17.90798,-3.53855 c 2.33859,-0.98039 4.83652,-0.99789 6.75807,-0.0473 l 1.38323,0.68426 -0.14672,-0.58456 c -0.51534,-2.05327 0.13244,-5.27332 1.39782,-6.94847 0.36263,-0.48006 0.59775,-1.03333 0.52248,-1.22948 -0.0888,-0.23135 -1.00322,0.51815 -2.60303,2.13353 -2.50502,2.52938 -3.43259,2.99862 -3.5995,1.82088 -0.0518,-0.36566 0.15601,-0.63069 0.67261,-0.85773 0.97356,-0.42787 4.22715,-3.39962 4.43336,-4.04932 0.19924,-0.62776 -1.79039,-4.12953 -2.45283,-4.31699 -0.25381,-0.0718 -1.21224,-0.21115 -2.12984,-0.30961 -1.59792,-0.17146 -1.7264,-0.1403 -3.04271,0.73778 -1.99627,1.33166 -5.06486,4.26339 -6.04395,5.77438 -0.66905,1.03253 -0.956,1.27336 -1.36319,1.14412 -0.36081,-0.11452 -0.45674,-0.0682 -0.31932,0.15415 0.10804,0.17481 0.48014,0.26361 0.82688,0.19733 0.68182,-0.13034 0.84128,0.28318 0.31295,0.81151 -0.4831,0.4831 -1.66126,0.37927 -2.17823,-0.19198 -0.55776,-0.61631 -0.4638,-1.31452 0.23027,-1.71112 0.28196,-0.16111 0.81171,-0.65012 1.17721,-1.08669 1.54716,-1.84796 3.47595,-3.55384 5.53122,-4.89195 l 2.19402,-1.42845 -0.8711,-0.30746 c -1.79971,-0.63522 -2.77425,-0.91276 -3.20499,-0.91276 -0.59221,0 -0.56088,-0.34159 0.0849,-0.92604 0.29104,-0.26339 0.52917,-0.63903 0.52917,-0.83476 0,-0.47995 -0.0124,-0.48402 1.74859,0.57636 1.86187,1.12116 3.32,1.54976 4.51179,1.32618 0.86784,-0.16281 0.87736,-0.17936 0.50691,-0.88144 -1.38367,-2.62233 -6.30556,-7.04345 -9.51132,-8.5436 -2.56126,-1.19856 -2.87142,-0.98349 -1.36851,0.94892 1.37042,1.76207 2.26045,3.55907 2.26045,4.56395 0,0.54804 0.0655,0.60589 0.38529,0.34046 0.49225,-0.40853 0.8344,-0.19234 1.04903,0.66282 0.32391,1.29055 -1.47143,2.97573 -2.37306,2.22744 -0.49282,-0.409 -0.4966,-1.04779 -0.006,-1.04779 0.44737,0 1.20953,-0.70786 1.20953,-1.12335 0,-0.1605 -0.2679,-0.0494 -0.59532,0.24696 -0.91008,0.82363 -1.75259,0.9159 -3.06446,0.3356 -1.48685,-0.65771 -4.35614,-3.56455 -5.94901,-6.02688 -1.16946,-1.8078 -1.25499,-1.87987 -1.92746,-1.6242 -3.55351,1.35104 -6.79781,6.69229 -6.35474,10.46211 0.11657,0.99189 0.0687,1.4282 -0.1671,1.52337 -0.18175,0.0734 0.0327,0.14276 0.47652,0.15425 0.44384,0.0115 0.94986,0.16376 1.12448,0.33839 0.40279,0.40278 0.4116,1.19454 0.0148,1.32681 -0.98557,0.32853 1.85898,4.84418 4.21765,6.69542 1.34973,1.05936 5.01227,3.03735 5.6241,3.03735 0.50842,0 0.22878,-0.45412 -0.47704,-0.77467 -1.40223,-0.63683 -3.28265,-2.27975 -4.06732,-3.55362 -0.43554,-0.70707 -0.73156,-1.34592 -0.65782,-1.41965 0.0737,-0.0737 0.5151,-0.001 0.98081,0.1611 0.4657,0.16235 1.12662,0.29517 1.46871,0.29517 0.72494,0 0.81711,0.39367 0.17617,0.75237 -0.41734,0.23355 -0.4168,0.29376 0.008,0.94272 0.5085,0.77606 2.77108,2.52156 3.28167,2.53169 0.1819,0.004 0.33132,-0.14227 0.33204,-0.32417 7.1e-4,-0.1819 0.26861,-0.66382 0.59531,-1.07094 0.51954,-0.64742 0.6539,-0.69626 1.07186,-0.38957 0.44169,0.32409 0.44682,0.41015 0.0678,1.13708 -0.65276,1.25185 -0.54281,1.44468 0.84343,1.47926 0.69123,0.0172 1.42269,0.008 1.62548,-0.0203 0.20278,-0.0284 0.45582,0.0893 0.56231,0.2616 0.14601,0.23625 0.57576,0.20245 1.74796,-0.13748 2.09993,-0.60895 2.95983,-1.15845 3.14709,-2.01108 0.21013,-0.95673 1.13339,-1.81131 1.43305,-1.32645 0.15103,0.24436 0.26943,0.26097 0.39634,0.0556 0.0995,-0.16105 0.38817,-0.29283 0.6414,-0.29283 0.37015,0 0.43929,0.18105 0.35263,0.92336 -0.0787,0.67395 0.007,0.96746 0.31771,1.08664 0.6523,0.25031 0.51155,0.90042 -0.19494,0.90042 -0.73806,0 -1.40169,-0.67173 -1.56835,-1.5875 -0.1181,-0.6489 -0.12107,-0.64765 -0.15642,0.0661 -0.035,0.70613 0.59935,1.60086 1.30066,1.83463 0.49844,0.16615 0.0509,0.74506 -0.57595,0.74506 -0.29202,0 -0.76124,-0.12325 -1.04272,-0.27389 -0.35277,-0.1888 -0.51177,-0.1888 -0.51177,0 0,0.15064 -0.38695,0.27462 -0.8599,0.27552 -0.47294,8e-4 -1.15755,0.15439 -1.52135,0.34109 -0.43164,0.22152 -1.74146,0.33587 -3.76991,0.3291 -1.70965,-0.006 -3.10864,0.0692 -3.10886,0.16644 -2.2e-4,0.0972 -0.0685,0.35437 -0.15182,0.57141 -0.0954,0.24863 0.0496,0.45841 0.39196,0.56707 0.29886,0.0949 1.15547,0.63238 1.90357,1.19449 l 1.36018,1.02202 1.53811,-1.0499 c 0.84596,-0.57745 2.28992,-1.36508 3.2088,-1.7503 z m -13.54286,-7.49686 c -0.3638,-0.12468 -0.98866,-0.29282 -1.38856,-0.37364 -0.46206,-0.0934 -0.98109,-0.53077 -1.42388,-1.19985 -0.65874,-0.99543 -0.69521,-1.2226 -0.66828,-4.16228 0.0301,-3.287 -0.23457,-4.35075 -1.12524,-4.52228 -0.40969,-0.0789 -0.46287,0.02 -0.31905,0.59297 0.15012,0.59811 0.0895,0.68764 -0.4656,0.68764 -0.82138,0 -1.08389,-0.69662 -0.56242,-1.49248 0.53887,-0.82243 2.45466,-0.89087 3.15876,-0.11286 0.2545,0.28123 0.62101,0.45059 0.81446,0.37636 0.41507,-0.15928 0.92148,0.67976 0.92148,1.52674 0,0.56576 0.0187,0.5715 0.35673,0.10927 0.54684,-0.74785 1.03206,-0.25045 0.9184,0.94145 -0.063,0.66062 0.0218,1.0677 0.23974,1.15135 0.49804,0.19112 0.40818,1.21698 -0.19295,2.20292 -0.62474,1.02468 -0.75441,2.95814 -0.16561,2.46948 0.19941,-0.1655 0.42618,-0.77521 0.50394,-1.35492 0.11148,-0.83115 0.43168,-1.33382 1.51433,-2.37733 1.2987,-1.25173 2.11708,-1.65793 2.11708,-1.0508 0,0.14987 0.36177,0.005 0.80394,-0.32187 0.67245,-0.49717 0.88821,-0.54174 1.31932,-0.27251 0.28347,0.17703 0.85801,0.32187 1.27675,0.32187 0.58876,0 0.9265,0.2383 1.48984,1.05121 0.78115,1.12719 0.74043,1.85921 -0.10343,1.85921 -0.65217,0 -0.97341,-0.47926 -0.58295,-0.86972 0.46799,-0.46799 0.34554,-0.71778 -0.35189,-0.71778 -1.04995,0 -2.45263,1.00853 -3.28569,2.36243 -0.42779,0.69525 -1.24747,1.75781 -1.8215,2.36124 -1.07155,1.12644 -1.62501,1.27777 -2.97772,0.81418 z m 1.05357,-6.911 c -0.3865,-1.72706 -0.27584,-2.49203 0.34508,-2.38557 0.24939,0.0428 0.45343,-0.0887 0.45343,-0.29209 0,-0.20341 0.30903,-0.70328 0.68672,-1.11082 0.79462,-0.8574 1.15447,-0.59025 1.16131,0.86215 0.002,0.47294 0.12312,0.85989 0.26864,0.85989 0.53621,0 0.2687,1.30219 -0.33073,1.60994 -0.32742,0.16811 -0.97095,0.66094 -1.43007,1.09518 l -0.83476,0.78954 z m 3.44435,13.94086 c 0,-0.21828 -0.11907,-0.39688 -0.26459,-0.39688 -0.14552,0 -0.26458,0.1786 -0.26458,0.39688 0,0.21828 0.11906,0.39687 0.26458,0.39687 0.14552,0 0.26459,-0.17859 0.26459,-0.39687 z m 34.7927,-0.12374 c 0,-0.53493 -2.67733,-1.82981 -3.96875,-1.91946 l -1.05833,-0.0735 -0.081,1.26653 -0.081,1.26653 2.59458,-0.0759 c 2.07001,-0.0606 2.59458,-0.15442 2.59458,-0.46423 z m -5.65719,-0.47158 c 0.0362,-0.53424 -0.0459,-1.21955 -0.1602,-1.33841 -0.15366,-0.15974 -1.98782,0.72028 -1.98782,0.95375 0,0.29183 1.02349,0.80541 1.65365,0.82978 0.2604,0.0101 0.47674,-0.18472 0.49437,-0.44512 z m 7.57877,-0.329 c 0.56065,-0.52233 1.21206,-2.28638 0.98184,-2.65888 -0.0657,-0.1063 -0.53047,-0.27038 -1.03283,-0.36463 -2.20714,-0.41406 -4.38413,-3.77468 -4.38413,-6.76778 v -1.30305 l -1.91823,-0.91663 c -2.43209,-1.16218 -3.50595,-1.36067 -4.69635,-0.86808 -0.50933,0.21076 -1.55405,0.46751 -2.32161,0.57057 -1.21479,0.16309 -1.45096,0.29543 -1.82315,1.02154 -0.23517,0.4588 -0.76767,1.33136 -1.18334,1.93904 -0.43323,0.63336 -0.68755,1.28262 -0.59594,1.52136 0.1934,0.50399 0.0973,0.50248 1.25302,0.0196 1.97596,-0.8256 5.0227,-0.35313 6.47953,1.00482 0.79144,0.73771 1.79727,2.69961 2.03574,3.97073 0.16508,0.88 0.26628,0.97773 1.01384,0.97906 1.38295,0.002 2.74112,0.50112 3.93262,1.44391 1.34445,1.06381 1.5212,1.09577 2.25899,0.40841 z m -9.32991,-1.06006 c 0.43656,-0.28912 1.00211,-0.52646 1.25677,-0.52742 0.56696,-0.002 0.56852,-0.0796 0.0375,-1.86772 -0.46609,-1.5695 -1.71885,-2.97858 -3.19739,-3.59636 -1.08822,-0.45468 -3.21535,-0.46141 -4.28054,-0.0135 l -0.82044,0.34497 1.12079,1.69774 c 1.09118,1.65286 4.10361,4.49325 4.76171,4.48974 0.18031,-9.6e-4 0.68503,-0.23831 1.12159,-0.52743 z m -26.59873,-0.66146 c 0,-0.14552 -0.11541,-0.086 -0.25648,0.13229 -0.14106,0.21829 -0.25648,0.51594 -0.25648,0.66146 0,0.14552 0.11542,0.086 0.25648,-0.13229 0.14107,-0.21828 0.25648,-0.51594 0.25648,-0.66146 z m 36.78519,-2.85861 c 0,-0.33532 -0.34001,-1.13899 -0.75557,-1.78594 -0.87753,-1.36615 -3.27993,-3.95441 -3.67045,-3.95441 -0.42628,0 -0.0786,2.11247 0.58795,3.57188 0.57841,1.2665 1.53554,2.10574 2.91203,2.55331 0.86132,0.28007 0.92604,0.25318 0.92604,-0.38484 z m -17.1218,-6.51026 0.4596,-0.77803 -1.72307,0.01 c -0.94769,0.005 -1.72307,0.056 -1.72307,0.11237 0,0.0563 0.32743,0.69851 0.72761,1.42704 l 0.7276,1.32461 0.53587,-0.65895 c 0.29473,-0.36242 0.74269,-1.00907 0.99546,-1.43699 z m 1.44522,-2.33968 c 0.66094,-0.86153 -0.37027,-0.95759 -4.64604,-0.43278 -0.71126,0.0873 -1.1017,0.25742 -1.03766,0.45211 0.24881,0.75635 5.10128,0.73985 5.6837,-0.0193 z m 2.84429,-0.083 0.52916,-0.21349 -0.52916,-0.0204 c -0.29105,-0.0112 -0.78687,-0.0895 -1.10183,-0.174 -0.41536,-0.11141 -0.65796,0.006 -0.88319,0.42663 -0.29785,0.55654 -0.27446,0.57237 0.57265,0.38749 0.48576,-0.10602 1.12132,-0.28883 1.41237,-0.40625 z m -4.01228,-1.53453 2.07313,-0.16771 1.0096,-2.38125 c 1.06575,-2.51366 1.92721,-5.15937 1.67993,-5.15937 -0.0809,0 -0.84422,0.37154 -1.6962,0.82564 -0.85199,0.4541 -1.71533,0.76183 -1.91855,0.68385 -0.9088,-0.34874 -0.59462,-2.47102 0.3227,-2.17988 0.27888,0.0885 1.26709,-0.14516 2.20972,-0.52252 l 1.70521,-0.68264 0.30556,-2.48635 c 0.3765,-3.06372 0.39258,-8.17407 0.0327,-10.39177 -0.14787,-0.91123 -0.57264,-2.59858 -0.94392,-3.74966 l -0.67505,-2.09287 -0.90748,0.53543 c -0.49911,0.29448 -1.51782,1.08417 -2.26379,1.75486 -0.74597,0.6707 -1.53713,1.24598 -1.75813,1.27842 -0.56744,0.0833 -0.87198,0.67692 -0.54772,1.06764 0.32981,0.39739 -0.68987,1.43922 -1.89869,1.93993 -0.43258,0.17918 -0.78652,0.48875 -0.78652,0.68792 0,0.19918 -0.74414,0.70151 -1.65364,1.1163 -1.92512,0.87795 -3.9026,2.72215 -3.9026,3.63956 0,0.94997 0.62147,0.53607 1.43248,-0.95403 0.72218,-1.32689 1.88935,-2.37608 2.64325,-2.37608 0.2322,0 0.42218,0.11504 0.42218,0.25566 0,0.14061 0.38695,0.0311 0.8599,-0.24331 1.22567,-0.71121 2.45879,-0.81451 2.40915,-0.20181 -0.0261,0.3219 0.10012,0.43106 0.39688,0.34329 1.53361,-0.45362 1.83955,-0.44849 2.1912,0.0367 0.19832,0.27364 0.74994,0.65581 1.22583,0.84926 1.05995,0.43089 2.02792,1.54185 2.4453,2.80652 0.26947,0.8165 0.2484,1.02108 -0.15056,1.46192 -0.55214,0.61011 -1.17562,0.67147 -1.17562,0.11571 0,-0.21828 -0.22354,-0.39688 -0.49677,-0.39688 -0.63595,0 -1.16242,-0.63157 -1.03702,-1.24406 0.071,-0.34665 0.29824,-0.45413 0.83759,-0.39612 0.59139,0.0636 0.72201,-0.0162 0.64977,-0.39688 -0.0677,-0.35683 -0.3835,-0.49746 -1.25754,-0.56003 -1.70063,-0.12175 -2.038,0.0187 -4.62689,1.92664 -1.33753,0.98571 -2.90219,1.89566 -3.63249,2.11254 -1.19393,0.35456 -1.37011,0.34266 -2.5405,-0.17158 -0.69168,-0.3039 -1.54155,-0.77362 -1.8886,-1.04382 -0.34704,-0.2702 -0.98403,-0.49127 -1.41552,-0.49127 -1.01772,0 -2.42113,-1.37961 -2.83867,-2.79054 -0.64165,-2.16825 -0.65351,-5.46188 -0.0294,-8.16279 0.47557,-2.05804 0.52297,-2.62549 0.26087,-3.12303 -0.56047,-1.06391 -1.29942,-1.33445 -1.29942,-0.47573 0,0.29399 0.17639,0.52917 0.39688,0.52917 0.6231,0 0.46811,1.03722 -0.20051,1.34186 -0.8002,0.3646 -2.57762,-0.34889 -2.57762,-1.03471 0,-0.93838 1.86824,-2.15923 3.30422,-2.15923 0.717,0 2.25203,1.18828 2.25203,1.74331 0,0.45278 0.31496,0.48173 0.72962,0.0671 0.5942,-0.5942 1.12247,0.25006 1.12247,1.79389 0,1.05114 0.0979,1.42281 0.37482,1.42281 0.20616,0 0.43541,-0.14883 0.50946,-0.33073 0.23017,-0.56544 0.0101,1.18373 -0.34122,2.71198 -0.18399,0.80037 -0.43618,1.6338 -0.56042,1.85208 -0.12424,0.21829 -0.53044,0.92163 -0.90266,1.56298 -0.71728,1.23593 -0.96639,2.45066 -0.5476,2.67036 0.13869,0.0728 0.69728,-1.0419 1.24131,-2.47702 1.0712,-2.82575 2.01626,-4.3918 3.065,-5.07896 0.50079,-0.32813 0.71642,-0.3581 0.86357,-0.12001 0.13847,0.22404 0.59716,0.0292 1.56038,-0.6628 0.94892,-0.68173 1.53854,-0.93455 1.93671,-0.83042 1.04659,0.27368 2.82758,-0.11777 2.99945,-0.65926 0.24702,-0.77833 0.71176,-0.25831 0.5947,0.66545 -0.10092,0.79643 -0.0299,0.7529 1.82679,-1.11946 1.06248,-1.07145 1.93179,-2.11886 1.93179,-2.32757 0,-0.62374 -1.97362,-4.0199 -3.89622,-6.70454 l -1.80007,-2.51354 -1.39004,-0.14009 c -1.61112,-0.16238 -2.02482,0.01 -2.57438,1.07274 -0.22015,0.42573 -1.01952,1.36782 -1.77636,2.09354 -0.9935,0.95263 -1.21272,1.27677 -0.78851,1.16583 0.90142,-0.23572 2.1033,0.39781 2.75493,1.45218 0.74405,1.20389 0.76924,3.18278 0.0603,4.73993 -0.49219,1.08113 -3.47704,4.77886 -3.88501,4.81287 -0.41035,0.0342 -0.16965,-0.50744 0.71833,-1.61653 2.25687,-2.81881 2.96256,-4.8686 2.26004,-6.56462 -0.44575,-1.07616 -1.73423,-1.14733 -2.1258,-0.11743 -0.16722,0.43982 -0.42238,0.64972 -0.72105,0.59315 -0.65394,-0.12388 -0.77105,-1.69862 -0.17527,-2.35694 0.66011,-0.72942 0.30835,-0.62403 -1.27403,0.38172 -2.52934,1.60761 -5.9307,2.6897 -9.06712,2.88457 l -1.05833,0.0658 -1.28338,2.5956 c -1.24565,2.51929 -1.26938,2.61106 -0.80737,3.12158 0.47139,0.52088 0.48436,0.51687 1.33603,-0.41278 0.88652,-0.96768 1.83249,-1.21038 2.42159,-0.62128 0.47723,0.47723 0.38364,1.12853 -0.24314,1.69202 -0.55322,0.49735 -0.56591,0.49614 -0.95831,-0.0913 -0.49142,-0.73565 -0.76092,-0.74994 -1.1302,-0.0599 -0.23939,0.44731 -0.13754,0.71932 0.6192,1.65365 1.15417,1.42503 1.61222,2.35644 2.02758,4.12292 0.40857,1.73765 0.18333,3.99062 -0.55086,5.50984 l -0.53456,1.10614 0.53323,1.04522 c 0.43072,0.84427 0.72604,1.08547 1.53608,1.25459 1.16542,0.24331 1.04252,0.20735 2.06119,0.60314 0.43656,0.16962 0.97234,0.42576 1.19063,0.56919 0.21828,0.14344 0.75406,0.4248 1.19062,0.62525 2.1258,0.97607 7.81153,6.32235 8.40447,7.90272 0.18558,0.49462 0.33942,0.52308 1.85208,0.34267 0.90734,-0.10821 2.58261,-0.27221 3.72284,-0.36445 z m -0.41575,-5.31937 c -0.39254,-0.30878 -1.45926,-0.64444 -2.61537,-0.82297 -4.24951,-0.65622 -7.9053,-2.94884 -9.13459,-5.72849 -0.38426,-0.86887 -0.84591,-1.50157 -1.15452,-1.58227 -0.41294,-0.10799 -0.46153,-0.23295 -0.24665,-0.63444 0.29652,-0.55406 1.6832,-0.69738 1.98727,-0.20539 0.10013,0.16201 0.70247,0.52477 1.33853,0.80613 1.12733,0.49867 1.52851,1.01597 0.78791,1.01597 -0.44429,0 -0.80896,0.82078 -0.46081,1.03718 0.13578,0.0844 0.28864,0.44812 0.33969,0.80828 0.0511,0.36016 0.36,0.7875 0.68656,0.94966 0.32656,0.16215 0.52557,0.36299 0.44225,0.44631 -0.25427,0.25427 2.13951,1.52107 2.87424,1.52107 0.37881,0 0.76924,0.13024 0.86762,0.28942 0.18265,0.29553 1.75282,0.21554 2.52836,-0.12881 0.32772,-0.14551 0.47825,0.0138 0.64719,0.68478 0.21404,0.85018 0.22268,0.83776 0.31204,-0.44852 0.0992,-1.42787 0.54083,-1.98437 1.57471,-1.98437 0.72816,0 0.72168,-0.0388 0.17604,1.05495 -0.52018,1.04273 -0.25996,2.08817 0.63023,2.53198 0.44601,0.22236 0.51042,0.36393 0.27341,0.60094 -0.45386,0.45386 -1.10235,0.37992 -1.85411,-0.21141 z m 3.81068,-14.90352 c -0.16726,-0.20153 -0.23596,-0.43457 -0.15267,-0.51785 0.0833,-0.0833 0.0186,-0.39976 -0.1439,-0.70326 -0.43747,-0.81743 -2.6524,-0.75919 -4.64523,0.12213 -2.31832,1.02527 -2.65529,0.66759 -0.52627,-0.55861 3.44785,-1.98578 4.97048,-2.35235 6.49543,-1.56377 0.62136,0.32132 0.77981,0.57771 0.77671,1.25677 -0.008,1.65808 -1.08485,2.83119 -1.80407,1.96459 z m -10.20174,-5.58912 c 0.0795,-0.20713 0.95901,-1.10048 1.95451,-1.98523 2.08601,-1.85394 2.94934,-3.51075 2.42688,-4.65742 -0.16381,-0.35952 -0.47195,-0.65367 -0.68477,-0.65367 -0.63394,0 -0.76669,-0.52703 -0.27078,-1.07501 0.55116,-0.60903 1.84836,-0.68008 2.06591,-0.11316 0.0843,0.21963 0.24585,0.38412 0.35904,0.36554 0.68552,-0.11254 0.86725,0.11026 0.86725,1.06321 0,0.77782 -0.27887,1.44963 -1.12447,2.70883 -0.61847,0.92096 -1.36261,1.7974 -1.65365,1.94763 -1.08773,0.56147 -2.66253,1.66756 -3.14986,2.21239 -0.57557,0.64347 -1.00417,0.74485 -0.79006,0.18689 z m -11.19025,22.09808 c -0.0724,-0.27694 -0.8964,-1.17909 -1.83107,-2.00478 -1.63662,-1.44581 -2.63724,-2.80816 -2.30589,-3.1395 0.0872,-0.0872 -0.16286,-0.58013 -0.55579,-1.09529 -0.39294,-0.51517 -1.00498,-1.59366 -1.3601,-2.39665 -0.51865,-1.17275 -0.57361,-1.48764 -0.27937,-1.60055 0.31198,-0.11972 0.31202,-0.32098 2.9e-4,-1.35678 -0.20131,-0.66891 -0.36602,-1.59571 -0.36602,-2.05954 0,-0.46384 -0.19451,-1.23325 -0.43225,-1.7098 -0.34562,-0.69281 -0.39477,-1.27095 -0.24527,-2.88492 0.10283,-1.11016 0.20805,-2.28874 0.23381,-2.61906 0.0325,-0.41716 -0.21581,-0.76855 -0.81306,-1.15046 l -0.8599,-0.54987 -0.0483,1.28275 c -0.16178,4.29823 0.52507,8.79974 1.70217,11.15569 0.24069,0.48175 0.23058,0.65916 -0.0474,0.83094 -0.2679,0.16557 -0.17949,0.33235 0.36548,0.68943 0.48873,0.32023 1.25139,1.57891 2.38221,3.93157 1.6997,3.53622 2.06519,4.04062 3.45159,4.76351 1.02629,0.53513 1.16824,0.52293 1.00882,-0.0867 z m -9.96988,-8.32427 c -1.46446,-2.05227 -3.2113,-3.60763 -4.05174,-3.60763 -0.33761,0 -0.61383,0.0643 -0.61383,0.14283 0,0.47036 1.15629,2.25637 2.02459,3.12718 0.91275,0.91538 3.50954,2.39655 3.76093,2.14516 0.0545,-0.0545 -0.44945,-0.86792 -1.11995,-1.80754 z m 35.98221,-1.37831 c -1.04955,-3.08026 -0.0353,-6.99008 2.48866,-9.59395 l 1.11175,-1.14693 -0.33556,-1.6312 c -1.09675,-5.3314 -5.51374,-10.63897 -10.3826,-12.47598 -0.69447,-0.26203 -1.32921,-0.40987 -1.41053,-0.32854 -0.0813,0.0813 0.41518,0.83913 1.10335,1.68402 1.41506,1.73731 3.23654,4.50652 3.9418,5.99274 0.39051,0.82295 0.57131,0.96627 1.03377,0.81949 1.43653,-0.45594 3.55401,0.28553 3.22961,1.13091 -0.0842,0.21935 -0.15304,0.74208 -0.15304,1.16161 0,0.86174 -0.77034,1.43765 -1.5795,1.18084 -0.34006,-0.10793 -0.4857,-0.37711 -0.45302,-0.83732 0.0277,-0.39029 -0.14304,-0.80242 -0.40218,-0.97071 -0.68004,-0.44164 -0.75877,-0.14705 -0.30849,1.15436 1.02044,2.9493 1.56456,8.36199 1.16927,11.63134 -0.13196,1.0914 -0.31489,2.75828 -0.40651,3.70416 l -0.16658,1.7198 0.97546,-0.9647 0.97545,-0.96469 z m -28.21966,-1.26816 c 0.23641,-1.13878 0.20984,-1.81397 -0.13777,-3.50112 -0.4143,-2.01076 -1.58366,-4.60296 -2.07668,-4.60352 -0.36731,-5.3e-4 0.0125,6.07634 0.45477,7.27577 0.82445,2.23595 0.97979,2.54071 1.21951,2.39256 0.136,-0.0841 0.37908,-0.78772 0.54017,-1.56369 z m 30.96705,-1.77589 c 0.3619,-1.06923 0.6217,-2.63033 0.70102,-4.21236 l 0.12602,-2.51354 -0.90986,0.95057 c -1.73755,1.81528 -2.85534,6.46735 -2.03173,8.45571 l 0.33046,0.7978 0.60455,-0.88968 c 0.3325,-0.48932 0.8633,-1.65414 1.17954,-2.5885 z m -34.66392,-3.83061 c 0,-0.66316 0.13514,-1.74246 0.30032,-2.39843 0.22776,-0.90455 0.2251,-1.26789 -0.011,-1.50401 -0.23873,-0.23873 -0.36953,-0.2193 -0.56085,0.0833 -0.33857,0.53553 -0.33235,5.02487 0.007,5.02487 0.14552,0 0.26459,-0.54258 0.26459,-1.20575 z m -0.22339,-7.38419 c 0.29048,-0.86043 0.6977,-1.80649 0.90493,-2.10236 0.52292,-0.74657 0.48088,-0.86962 -0.35082,-1.02689 -0.40018,-0.0757 -0.9713,-0.2158 -1.26915,-0.31141 -0.47781,-0.15337 -0.61062,0.0384 -1.12831,1.62891 -0.32272,0.99151 -0.58504,1.98352 -0.58293,2.20447 0.004,0.41179 1.28409,1.35548 1.67859,1.2374 0.12075,-0.0361 0.45721,-0.76969 0.74769,-1.63012 z m -2.5889,-1.53037 c 0.84778,-2.32928 0.85526,-2.5201 0.10301,-2.62743 -0.68041,-0.0971 -0.92358,-0.85578 -0.45518,-1.42017 0.39082,-0.4709 1.48372,-0.50595 1.66631,-0.0534 0.0734,0.1819 0.14285,-0.14736 0.15434,-0.7317 0.0259,-1.31993 -0.90873,-3.13956 -1.97306,-3.84114 -0.96994,-0.63936 -3.03313,-0.72389 -3.03313,-0.12428 0,0.21786 0.41711,0.85781 0.92691,1.42209 0.80421,0.89017 0.87426,1.06968 0.52916,1.35608 -0.21876,0.18155 -0.39774,0.49411 -0.39774,0.69458 0,0.20046 -0.10324,0.36447 -0.22942,0.36447 -0.28025,0 -1.5444,-1.87636 -1.9074,-2.83113 -0.4476,-1.17727 -0.90771,-0.2901 -0.89235,1.72056 0.0156,2.04326 0.67136,3.71529 2.19957,5.60849 1.08892,1.34901 2.13809,2.38125 2.42029,2.38125 0.10478,0 0.50469,-0.8632 0.88869,-1.91823 z m -1.80292,-3.16772 c -0.90682,-1.29468 -0.20071,-3.11613 1.20802,-3.11613 0.99237,0 1.81969,0.42525 1.81969,0.93535 0,0.24955 -0.26807,0.38756 -0.75275,0.38756 -1.00395,0 -1.74321,0.82986 -1.52253,1.70914 0.20817,0.82939 -0.19855,0.87484 -0.75243,0.0841 z m 11.62666,0.011 c 0.58209,-0.1398 1.62455,-0.35774 2.31658,-0.48431 1.95482,-0.35753 3.74591,-1.49549 5.89607,-3.74603 1.08559,-1.13628 1.97381,-2.1698 1.97381,-2.2967 0,-0.46312 -4.53238,0.77725 -6.78913,1.85798 -2.30506,1.10385 -5.81958,3.76356 -6.56334,4.96699 -0.19243,0.31136 1.15835,0.18425 3.16601,-0.29793 z m 23.41563,-5.94613 c 0,-0.84531 -0.65247,-2.36977 -1.47686,-3.45059 -0.80169,-1.05108 -0.991,-1.07833 -1.39109,-0.20024 -0.42582,0.93457 -0.38683,1.47736 0.20532,2.85879 0.83827,1.9556 2.66263,2.49828 2.66263,0.79204 z m -3.05363,-0.32826 c -0.75129,-1.4958 -0.80825,-2.31311 -0.25366,-3.64041 0.21828,-0.52242 0.39687,-0.99041 0.39687,-1.03997 0,-0.20295 -3.15538,-2.2109 -4.69103,-2.98517 l -1.64832,-0.83108 -0.13548,0.59643 c -0.0745,0.32804 -0.2665,1.13222 -0.42665,1.78706 -0.63609,2.60095 -0.6233,2.70312 0.46692,3.73031 0.58993,0.55582 1.72648,1.20976 2.73039,1.57099 0.94589,0.34035 2.25558,0.9514 2.91042,1.3579 0.65484,0.40649 1.21548,0.74134 1.24585,0.74411 0.0304,0.003 -0.23751,-0.57781 -0.59531,-1.29017 z m -7.00054,-1.70651 c 0,-0.0502 -0.22865,-0.29821 -0.50811,-0.55112 -0.48464,-0.43859 -0.52173,-0.43437 -0.80306,0.0913 -0.26875,0.50217 -0.22362,0.55112 0.50811,0.55112 0.44169,0 0.80306,-0.0411 0.80306,-0.0913 z m 0,-8.3566 c 0,-0.39641 -0.33978,-0.60393 -1.52135,-0.92921 -0.83675,-0.23034 -2.46907,-0.76944 -3.62739,-1.19798 -1.15831,-0.42855 -2.15242,-0.73279 -2.20912,-0.67609 -0.19556,0.19556 6.35991,3.16584 7.29172,3.30387 0.0364,0.005 0.0661,-0.21988 0.0661,-0.50059 z m 11.97895,-8.9385 c 3.317,-1.21729 5.93267,-4.40027 6.61029,-8.044 0.20478,-1.10111 0.43243,-1.58753 0.83422,-1.78242 0.38826,-0.18834 0.43063,-0.27337 0.14248,-0.28595 -0.22556,-0.01 -0.551,0.12298 -0.7232,0.29518 -0.48184,0.48185 -0.70872,0.0333 -0.36488,-0.7213 0.48977,-1.07493 0.36439,-2.039367 -0.48648,-3.742117 -1.27396,-2.549416 -1.40792,-2.604828 -3.42456,-1.416555 -2.32625,1.370711 -2.75012,2.467512 -1.26309,3.268332 1.27575,0.68704 2.28933,2.09802 2.47377,3.44371 0.32017,2.33584 -2.07735,5.982 -4.44786,6.76434 -0.51093,0.16862 -1.08658,0.60109 -1.27922,0.96104 -0.44336,0.82842 -0.72289,0.82665 -1.10273,-0.007 -0.16576,-0.3638 -0.49918,-0.66146 -0.74094,-0.66146 -0.82028,0 -3.04342,-0.86215 -3.93643,-1.52659 l -0.88906,-0.66149 0.1954,0.63102 c 0.53138,1.71598 1.93876,3.91599 2.72904,4.26601 0.77815,0.34466 3.70371,-0.058 5.67325,-0.78075 z m -7.89721,-1.05273 c -0.49871,-0.82819 -0.90674,-1.78982 -0.90674,-2.13697 0,-0.61415 -0.0189,-0.60867 -0.70202,0.20312 -0.4559,0.54181 -0.8699,0.7904 -1.18089,0.70908 -0.26339,-0.0689 -0.60663,0.0287 -0.76277,0.21683 -0.21559,0.25978 -0.071,0.47362 0.60098,0.88894 1.11321,0.688 3.13594,1.61131 3.54675,1.61897 0.17129,0.003 -0.0966,-0.67179 -0.59531,-1.49997 z m 9.39192,-5.53544 c 0.73709,-0.71123 1.3402,-1.41221 1.34025,-1.55773 6e-5,-0.14552 -0.46616,-0.66033 -1.03603,-1.14402 -1.37294,-1.16531 -1.87163,-2.29232 -1.87163,-4.229777 v -1.589654 l 2.25311,-1.218237 c 5.97011,-3.227977 9.54413,-6.974144 10.87376,-11.397482 0.65517,-2.179614 0.63977,-6.460072 -0.0286,-7.9375 l -0.47875,-1.058334 -0.19306,1.190625 c -0.66717,4.114369 -4.21372,8.017026 -9.65885,10.628691 -1.94657,0.933643 -2.23533,0.78128 -2.2538,-1.189236 -0.0499,-5.325361 0.0649,-12.736666 0.27946,-18.038413 0.13543,-3.346979 0.26562,-7.383497 0.28931,-8.970036 0.0656,-4.394619 -0.11883,-4.131596 3.29655,-4.701243 1.99877,-0.333371 3.40548,-0.739573 4.53739,-1.310218 3.04825,-1.536755 5.87665,-5.084459 6.33406,-7.944907 l 0.18205,-1.138497 -0.90132,0.758417 c -1.32411,1.11416 -2.98484,1.735369 -5.12234,1.916054 -3.39473,0.286961 -6.26398,-1.0131 -8.48456,-3.844372 -0.64192,-0.818463 -1.38042,-1.760423 -1.6411,-2.093244 l -0.47397,-0.605129 -1.05834,1.025134 c -2.883,2.792564 -8.87163,6.807202 -12.96113,8.688836 l -2.17505,1.000773 -0.18549,4.111299 c -0.10201,2.261214 -0.24063,8.099893 -0.30804,12.974841 -0.0674,4.874948 -0.24223,9.447808 -0.38849,10.161913 -0.27033,1.31985 -1.39073,3.641958 -2.00198,4.149252 -0.25514,0.211754 -0.67842,-0.188484 -1.75367,-1.658208 -2.7256,-3.725537 -3.87601,-7.211758 -4.08801,-12.388373 -0.19702,-4.810993 0.25509,-7.390088 2.01409,-11.48951 2.38366,-5.555194 6.1114,-9.344094 12.91656,-13.128459 l 2.83362,-1.575781 -2.11058,0.0011 c -10.65455,0.0054 -20.93594,6.189591 -25.09852,15.096675 -2.03218,4.348443 -3.20122,9.712534 -2.90838,13.344969 0.44533,5.524037 1.61409,9.521955 3.94479,13.49375 0.87561,1.49216 0.83912,1.442609 2.92307,3.96875 1.89755,2.30019 2.66798,3.020661 5.00555,4.680985 5.18832,3.685151 12.10996,5.654519 19.18229,5.457812 l 3.04271,-0.08463 -0.0864,1.322917 c -0.0939,1.438587 -0.70641,2.559547 -2.24857,4.115427 l -0.93213,0.94043 1.59433,1.56113 c 0.87688,0.85863 2.06716,2.25742 2.64507,3.10843 l 1.05075,1.54729 1.28492,-1.82966 c 0.7067,-1.00631 1.88798,-2.41158 2.62506,-3.12281 z m -5.01651,1.47014 c -0.47214,-0.73576 -1.25837,-1.6428 -1.74719,-2.01563 l -0.88875,-0.67789 0.93391,-0.96093 c 1.49135,-1.53448 1.97613,-2.80287 1.97613,-5.170328 v -2.057961 l -1.38906,0.223266 c -0.76399,0.122796 -2.87734,0.212939 -4.69636,0.200321 -8.32649,-0.05777 -16.79614,-4.016208 -21.7463,-10.163513 -2.67946,-3.327453 -4.66622,-7.541133 -5.53085,-11.730226 -1.10655,-5.361167 -0.26819,-12.051659 2.10045,-16.76265 3.46097,-6.88354 8.66523,-11.293395 16.16786,-13.699925 3.30366,-1.059674 5.78723,-1.501023 5.45912,-0.970122 -0.10614,0.171745 -0.86893,0.653943 -1.69507,1.071551 -8.4123,4.252329 -13.83713,14.3032 -13.17795,24.415446 0.20083,3.080869 1.91612,8.663405 3.43836,11.190388 2.10819,3.499688 5.31142,6.375746 9.23733,8.293832 3.48458,1.702467 4.47011,1.951377 8.29946,2.096138 3.20797,0.121272 3.49889,0.09288 3.74141,-0.365114 0.14583,-0.2754 0.34128,-4.150159 0.43878,-8.698693 0.0967,-4.511146 0.28744,-11.952552 0.42389,-16.536459 0.13644,-4.583906 0.24893,-9.172024 0.24996,-10.195816 l 0.002,-1.861441 -1.69237,-0.834546 c -0.93081,-0.459 -2.10739,-1.19893 -2.61462,-1.644288 -1.05838,-0.929268 -1.39548,-0.996127 -1.74352,-0.345806 -0.13656,0.255166 -0.38303,5.566979 -0.54772,11.804034 -0.16468,6.237052 -0.42948,11.94653 -0.58844,12.687726 -0.40286,1.878454 -1.75971,3.788992 -4.22825,5.953635 -2.10586,1.846615 -5.55984,3.920236 -6.0378,3.62484 -0.139,-0.08591 0.20313,-0.758489 0.7603,-1.494632 1.05153,-1.389308 1.75277,-3.380959 1.99114,-5.655164 0.0763,-0.727604 0.14896,-4.716198 0.16155,-8.863542 0.0126,-4.147343 0.0931,-9.473784 0.17883,-11.836535 l 0.15594,-4.29591 1.34779,-0.506796 c 1.5418,-0.579735 3.97575,-1.929547 5.71345,-3.168528 0.65484,-0.466905 1.60734,-1.127971 2.11666,-1.469037 0.50933,-0.341065 1.92925,-1.492218 3.15539,-2.558117 l 2.22935,-1.937998 0.54878,0.76423 c 3.02125,4.207406 8.49047,6.216797 12.63485,4.642053 0.75688,-0.287589 1.42387,-0.475155 1.48221,-0.416814 0.53602,0.536019 -2.37266,3.493058 -4.6456,4.722834 -1.86156,1.007205 -4.78507,1.595276 -6.85078,1.378055 l -1.63226,-0.171642 -0.15093,1.407832 c -0.083,0.774308 -0.27145,7.777675 -0.41875,15.56304 -0.1473,7.785365 -0.33296,15.286302 -0.41258,16.66875 -0.0796,1.382448 -0.0372,2.67113 0.0943,2.863739 0.34375,0.503608 3.82779,-0.706001 6.53374,-2.268419 2.30302,-1.329766 5.6315,-4.471738 6.20569,-5.85797 0.90006,-2.172935 1.12115,0.421915 0.23903,2.80533 -1.63402,4.414961 -6.02485,8.431186 -11.91626,10.899637 l -1.23821,0.518798 -0.0847,2.567315 c -0.0963,2.918152 0.0449,3.388142 1.46466,4.876582 l 1.02021,1.06954 -0.68183,0.53633 c -0.37501,0.29498 -1.17877,1.24477 -1.78615,2.11064 -0.60737,0.86587 -1.19372,1.57431 -1.30298,1.57431 -0.10927,0 -0.58496,-0.60199 -1.0571,-1.33775 z M 268.11745,64.505498 c 0.0662,-0.198438 -0.0331,-0.297656 -0.23151,-0.231511 -0.191,0.06366 -0.39935,0.272024 -0.46302,0.463021 -0.0661,0.198438 0.0331,0.297656 0.23151,0.231511 0.191,-0.06367 0.39936,-0.272026 0.46302,-0.463021 z M 254.93384,54.236357 c -0.002,-0.264234 -0.0888,-0.34943 -0.20151,-0.198437 -0.10861,0.14552 -0.30522,0.35388 -0.43692,0.46302 -0.1317,0.109141 -0.041,0.198438 0.20151,0.198438 0.24513,0 0.43918,-0.205637 0.43692,-0.463021 z m 19.12687,33.782474 c -3.39778,-0.328711 -9.09679,-2.497527 -9.53013,-3.626795 -0.0845,-0.220236 0.0424,-0.543814 0.28209,-0.719058 0.23966,-0.175247 0.35823,-0.396155 0.26347,-0.490908 -0.0948,-0.09475 -0.005,-0.172275 0.20026,-0.172275 0.6029,0 3.1532,-1.842635 5.02067,-3.627517 1.83438,-1.753246 3.18942,-4.041347 3.66163,-6.182932 0.29872,-1.354775 0.50245,-5.831821 0.69665,-15.308731 0.0759,-3.701851 0.19816,-6.790882 0.27179,-6.864512 0.0736,-0.07363 0.80248,0.19404 1.61966,0.594823 l 1.48579,0.728698 -0.17155,9.046231 c -0.0944,4.975426 -0.23852,12.915763 -0.32037,17.64519 -0.0819,4.729427 -0.1966,8.747786 -0.255,8.929687 -0.0584,0.181901 -0.31826,0.314505 -0.57749,0.294677 -0.25923,-0.01984 -1.45059,-0.130789 -2.64747,-0.246578 z m 2.78176,-2.958516 c 0.0854,-2.586884 0.0305,-2.649802 -1.59185,-1.822696 -0.71346,0.363739 -1.04783,0.415592 -1.27964,0.198438 -0.23443,-0.219607 -0.28343,-0.193577 -0.1937,0.102904 0.0661,0.218282 0.38177,0.528495 0.70157,0.689367 0.50905,0.256069 0.53158,0.333883 0.18091,0.624911 -0.2203,0.182833 -0.59574,0.257517 -0.83432,0.165966 -0.23858,-0.09155 -0.58967,-0.03708 -0.78021,0.121052 -0.7099,0.589169 -1.96775,-0.707213 -1.96775,-2.028029 0,-0.473792 1.28791,-1.717601 1.69464,-1.636607 0.15935,0.03173 0.56008,-0.09185 0.89051,-0.274634 0.60435,-0.334304 1.11901,-0.225338 1.11901,0.236923 0,0.136933 -0.17156,0.248968 -0.38125,0.248968 -0.3924,0 -0.8204,0.474041 -0.61418,0.680254 0.0637,0.06374 0.46261,0.0061 0.88638,-0.128021 0.42378,-0.134144 1.0878,-0.312999 1.47559,-0.397452 l 0.70506,-0.153551 0.0272,-4.167804 c 0.0149,-2.292289 0.0973,-5.447723 0.18313,-7.012072 l 0.15597,-2.844271 h -0.82205 c -0.45213,0 -0.91135,-0.0019 -1.02049,-0.0039 -0.10914,-0.0021 -0.26763,1.218245 -0.35218,2.711979 -0.31831,5.622854 -2.44967,8.94941 -8.24678,12.871278 -0.69122,0.46763 -1.25677,0.944655 -1.25677,1.060056 0,0.115403 0.60558,0.539422 1.34574,0.942266 l 1.34573,0.732441 1.28722,-1.31454 1.28722,-1.314543 0.27429,0.786834 c 0.29179,0.837028 0.18323,1.251511 -0.3303,1.261099 -0.17331,0.0032 -0.59644,0.22224 -0.94028,0.486677 l -0.62516,0.480793 1.60609,0.340837 c 2.03013,0.430823 4.47463,0.754941 5.33278,0.707077 0.64609,-0.03604 0.66323,-0.09069 0.73791,-2.351997 z m -4.04323,-1.759563 c -10e-4,-0.713097 -0.0913,-1.241851 -0.20041,-1.17501 -0.36678,0.224632 -0.20463,2.471553 0.17836,2.471553 0.0132,0 0.0231,-0.583444 0.022,-1.296543 z m 4.41039,-18.34877 c 0.16784,-4.038568 0.13853,-4.237061 -0.6652,-4.505314 -0.51391,-0.171522 -0.8445,-0.156821 -1.04792,0.0466 -0.28545,0.285451 -0.52288,4.966946 -0.2731,5.38476 0.0652,0.10914 0.52832,0.198437 1.02906,0.198437 0.88737,0 0.91161,-0.02848 0.95716,-1.124479 z m 0.0495,-7.006849 c -0.0287,-1.103379 -0.18989,-1.569516 -0.79375,-2.296001 -0.41673,-0.501351 -0.84699,-0.920144 -0.95613,-0.930651 -0.10914,-0.0105 -0.19844,1.059646 -0.19844,2.37812 v 2.39722 l 0.99219,-0.08212 0.99219,-0.08212 z m -0.14623,-5.242278 c -0.19078,-0.180364 -0.61477,-0.408268 -0.94219,-0.506452 -0.53776,-0.161258 -0.59532,-0.08923 -0.59532,0.745001 0,0.688639 0.2187,1.142842 0.8599,1.785864 l 0.8599,0.862346 0.0823,-1.279412 c 0.052,-0.808574 -0.0453,-1.400095 -0.26458,-1.607347 z m 0.60193,55.484895 c -0.44549,-0.8324 -3.76582,-4.27587 -4.12297,-4.27587 -0.44914,0 -0.75614,1.71152 -0.41975,2.34007 0.35562,0.6645 1.41578,1.33303 3.04353,1.91926 1.69568,0.61069 1.81789,0.61204 1.49919,0.0165 z m 4.80077,-1.03473 c 1.12118,-1.14393 1.97814,-2.61308 1.69145,-2.89977 -0.13187,-0.13186 -2.66145,2.85389 -3.07923,3.63452 -0.47305,0.8839 0.0973,0.58195 1.38778,-0.73475 z m -9.42,-5.09323 c 0.56239,-1.51022 1.77777,-3.072017 2.80332,-3.60235 1.36524,-0.705993 0.54865,-0.993659 -2.07481,-0.730912 l -2.31871,0.232225 -0.24284,0.926042 c -0.32963,1.256945 -0.0649,4.127435 0.51345,5.566945 l 0.47404,1.17993 0.20109,-1.19063 c 0.1106,-0.65484 0.40061,-1.7264 0.64446,-2.38125 z m 23.81947,0.0726 c 0.14029,-1.18454 -0.0965,-5.016884 -0.29596,-4.789789 -0.042,0.04783 -0.16071,1.575237 -0.2638,3.394249 -0.13738,2.42414 -0.10889,3.23123 0.10669,3.02244 0.16177,-0.15666 0.36565,-0.88877 0.45307,-1.6269 z m -20.91695,-2.07066 c 0.26406,-0.49032 0.39901,-0.97259 0.29989,-1.071711 -0.25245,-0.25245 -1.13999,0.844331 -1.94884,2.408291 l -0.68419,1.32291 0.92652,-0.88399 c 0.50959,-0.4862 1.14257,-1.28517 1.40662,-1.7755 z m 8.30852,1.06811 c 0,-0.22042 -0.41349,-0.8455 -0.91888,-1.38907 -1.19344,-1.283596 -1.29685,-0.49484 -0.11204,0.85458 0.92079,1.04872 1.03092,1.10582 1.03092,0.53449 z M 243.8254,89.246648 c 0,-1.657408 0.47744,-4.885012 1.03904,-7.024092 0.26451,-1.007504 0.37747,-1.923754 0.25256,-2.048661 -0.12429,-0.124285 -0.52286,-1.075727 -0.88572,-2.114317 -0.56842,-1.626941 -0.86227,-3.111791 -1.63683,-8.271206 -0.17811,-1.186415 -0.38713,-0.818573 -1.28588,2.262931 -1.75388,6.013437 -1.27888,12.489151 1.24534,16.977762 0.42964,0.763985 0.89148,1.389063 1.02632,1.389063 0.13484,0 0.24517,-0.527166 0.24517,-1.17148 z m 40.40265,-3.651165 c 0.84406,-0.370364 3.51818,-2.021769 3.51818,-2.172653 0,-0.232754 -3.35154,-1.206785 -4.15242,-1.206785 h -0.87467 v 1.852083 c 0,2.020665 0.11632,2.138407 1.50891,1.527355 z m 3.20483,-4.107042 c -1.81107,-1.852409 -3.00006,-3.763558 -3.77748,-6.071847 l -0.58613,-1.740315 -0.17557,3.660833 c -0.0966,2.013461 -0.086,3.749149 0.0234,3.857091 0.10942,0.107939 1.03239,0.369459 2.05103,0.581152 1.01865,0.211695 2.2688,0.566332 2.77813,0.788085 0.50932,0.221755 0.98184,0.412901 1.05005,0.424773 0.0682,0.01188 -0.54533,-0.663028 -1.3634,-1.499773 z m 3.22843,-0.529167 c 0.93664,-1.062437 2.112,-2.920992 2.112,-3.33964 0,-0.06577 -0.44656,-0.195024 -0.99236,-0.287234 -0.5458,-0.09221 -1.54661,-0.512633 -2.22403,-0.934268 -2.24982,-1.400323 -3.12933,-3.161117 -3.13213,-6.270564 l -0.002,-1.637432 -1.17184,-0.175728 c -0.64451,-0.09665 -1.29936,-0.09692 -1.45521,-5.29e-4 -0.16664,0.102989 -0.28337,1.132554 -0.28337,2.499346 0,2.446631 0.36825,3.903562 1.68238,6.656158 0.74546,1.561451 3.43288,4.74673 4.00481,4.74673 0.19429,0 0.85184,-0.565546 1.46123,-1.25677 z M 261.8245,79.155559 c 0.97999,-1.768734 1.11147,-2.635663 1.20775,-7.963569 l 0.0964,-5.335511 -1.0733,-0.181335 c -0.88359,-0.149281 -1.17835,-0.08264 -1.66762,0.376997 -0.65872,0.618842 -1.07016,0.475027 -0.68734,-0.240263 0.13528,-0.252775 0.17078,-0.534776 0.0789,-0.626671 -0.26277,-0.262768 -1.65487,-0.195114 -2.00828,0.0976 -0.17576,0.145571 -0.61722,0.492368 -0.98102,0.77066 -0.58534,0.447757 -0.65411,0.67846 -0.59761,2.004753 0.0351,0.824323 0.31315,2.531353 0.61785,3.793403 0.66255,2.744205 2.73201,6.968929 3.30583,6.748732 0.63035,-0.24189 0.4272,-1.090499 -0.51189,-2.138233 -1.53089,-1.707999 -1.88133,-2.62079 -1.87735,-4.88987 0.002,-1.417752 -0.10004,-2.084602 -0.33433,-2.174507 -0.38691,-0.148474 -0.43889,-0.900121 -0.0993,-1.436217 0.12678,-0.200141 0.67516,-0.412893 1.21863,-0.472784 0.83656,-0.09219 0.96219,-0.04129 0.81902,0.331814 -1.19671,3.118564 -0.61708,6.081014 1.14953,5.8752 0.51574,-0.06008 0.69504,-0.250558 0.75898,-0.806273 0.0674,-0.58602 -0.0227,-0.727604 -0.46302,-0.727604 -0.3096,0 -0.54674,-0.172135 -0.54674,-0.396875 0,-0.409527 0.6917,-0.520959 1.44336,-0.232521 1.1975,0.459528 1.27986,2.820379 0.12656,3.628181 -0.40685,0.284972 -0.49539,0.545491 -0.3637,1.070189 0.23036,0.917821 -0.002,1.760001 -0.6888,2.497267 -0.45647,0.489964 -0.50041,0.676069 -0.23512,0.995736 0.43456,0.5236 0.79385,0.368046 1.31264,-0.568296 z m 31.51282,-3.443634 c 0.44645,-2.061967 0.28702,-2.717734 -0.99359,-4.086807 -1.14273,-1.221669 -3.52504,-2.63824 -4.43684,-2.63824 -0.61376,0 -0.78227,1.540851 -0.31295,2.861752 0.76242,2.145879 2.04076,3.545633 3.95707,4.332946 1.35455,0.556509 1.57678,0.498081 1.78631,-0.469651 z m 3.8526,-0.346567 c 1.41069,-1.021895 2.06909,-1.902301 2.71635,-3.63224 0.99472,-2.658634 0.51488,-5.466538 -1.33284,-7.799477 -0.84856,-1.071394 -2.73857,-2.61968 -3.19787,-2.61968 -0.23374,0 -1.27655,1.561912 -1.27834,1.914679 -5.3e-4,0.107188 0.38596,0.35841 0.8589,0.558271 1.62901,0.688403 2.8468,2.532094 2.84328,4.304622 -0.002,0.889656 -0.99781,2.218262 -1.66301,2.218262 -1.39078,0 -3.0985,-2.866734 -3.0985,-5.201426 0,-0.68844 -0.10991,-0.883991 -0.49685,-0.883991 -0.64899,0 -2.41356,0.740161 -2.41356,1.012383 0,0.116343 0.36776,0.561229 0.81726,0.988637 1.10365,1.049427 2.74222,3.918138 3.16416,5.539605 0.18934,0.727604 0.4888,1.561042 0.66547,1.852083 0.17667,0.291042 0.46278,0.975651 0.6358,1.521355 0.17303,0.545703 0.40656,0.992187 0.51896,0.992187 0.1124,0 0.67976,-0.344371 1.26079,-0.76527 z m -4.1486,-4.649677 c -0.82768,-2.176954 -2.82542,-4.903803 -3.59262,-4.903803 -0.36984,0 -1.70247,1.585008 -1.70247,2.02488 0,0.140327 0.80367,0.629102 1.78593,1.08617 0.98227,0.457068 2.20266,1.189382 2.71198,1.627365 1.12892,0.970788 1.10121,0.965039 0.79718,0.165388 z m 4.06622,-2.359382 c 0.36303,-1.446421 -0.89359,-3.483501 -2.53022,-4.101669 -0.64979,-0.24543 -0.72315,-0.205954 -0.87136,0.46885 -0.24976,1.137137 0.63764,3.215529 1.66995,3.911201 0.98887,0.666398 1.51577,0.581694 1.73163,-0.278382 z m -9.47821,-1.744416 c 0.42809,-0.578644 0.86765,-1.054894 0.97679,-1.058334 0.61114,-0.01926 0.0349,-0.873566 -0.99731,-1.478454 -1.00626,-0.589706 -1.26179,-0.645946 -1.6125,-0.354883 -0.42716,0.354512 -1.9473,2.859423 -1.95177,3.216145 -10e-4,0.109141 0.32494,0.200261 0.72512,0.202488 0.40019,0.0021 0.9062,0.119468 1.12448,0.260533 0.66198,0.427802 0.92407,0.308853 1.73519,-0.787495 z m -3.58673,-0.995146 c 0.30496,-0.689411 0.79926,-1.514036 1.09844,-1.832499 0.29918,-0.31846 0.46765,-0.702487 0.37439,-0.853395 -0.14996,-0.242633 -2.0361,-0.900625 -2.14936,-0.749816 -0.0244,0.03244 -0.12105,1.100773 -0.21486,2.37408 -0.19449,2.639835 0.0595,2.94231 0.89139,1.06163 z m -27.02041,-0.431863 0.58904,-0.627002 -0.58883,-0.153985 c -0.77788,-0.203419 -1.02617,-0.01901 -1.02617,0.762148 0,0.811697 0.27635,0.816772 1.02596,0.01884 z m 6.06922,-1.293487 c 0.10303,-0.892681 -0.20404,-0.921539 -0.98299,-0.09238 -0.44373,0.472331 -0.5058,0.669237 -0.24456,0.775906 0.69159,0.282395 1.14521,0.02981 1.22755,-0.683524 z m 27.40171,0.365186 c 0.45374,-0.273334 1.2479,-0.571964 1.7648,-0.663623 0.78684,-0.139526 0.9975,-0.327798 1.29416,-1.156674 0.19489,-0.544512 0.40979,-1.138851 0.47755,-1.320752 0.20153,-0.540954 -3.13059,-0.420677 -4.68255,0.169021 -1.29254,0.491127 -2.13964,1.103193 -2.12012,1.531871 0.009,0.196565 2.09878,1.922696 2.34012,1.932869 0.0556,0.0024 0.4723,-0.219377 0.92604,-0.492712 z m -28.7917,-0.596181 c 0.4274,-0.455713 0.65407,-0.783135 0.50369,-0.727604 -1.33024,0.491236 -2.7675,1.196152 -2.76831,1.357736 -5.2e-4,0.10914 0.33392,0.198437 0.74326,0.198437 0.49207,0 1.00756,-0.280749 1.52136,-0.828569 z m -0.82829,-0.825077 2.20609,-1.124479 0.12072,-3.307291 c 0.0664,-1.819011 0.10726,-3.329694 0.0908,-3.357073 -0.0164,-0.02738 -0.59286,0.135562 -1.28095,0.362093 -1.22459,0.403148 -1.25101,0.435033 -1.24704,1.504989 0.005,1.278641 0.19837,1.656477 0.91895,1.79315 0.73423,0.139264 0.78493,0.79529 0.12619,1.632739 -1.27167,1.616665 -2.49138,0.378547 -2.46501,-2.502197 0.0158,-1.729038 -0.0126,-1.814951 -0.5999,-1.814951 -0.40565,0 -0.74581,0.25001 -0.99451,0.730948 -0.43521,0.841589 -1.55843,5.870676 -1.43682,6.433127 0.24768,1.145437 1.87054,1.02054 4.56145,-0.351055 z m 28.59289,-3.470735 c 5.77313,-1.248418 11.66465,-6.933354 9.06925,-8.751241 -2.11926,-1.484386 -7.61404,1.443093 -7.61404,4.056564 0,0.409433 0.16115,0.514935 0.72733,0.47616 0.56134,-0.03844 0.74585,0.07956 0.80843,0.517039 0.11705,0.818266 -1.32142,1.800627 -2.27757,1.5554 -0.39237,-0.100631 -1.10035,-0.172892 -1.5733,-0.160578 -0.75247,0.01958 -0.85989,-0.0624 -0.85989,-0.656307 0,-0.832054 0.38453,-1.610024 1.25995,-2.54908 l 0.66612,-0.714551 -1.69064,0.514092 c -0.92985,0.282749 -2.01031,0.515001 -2.40102,0.516112 -0.39071,0.0011 -1.01579,0.118136 -1.38906,0.260056 -0.65511,0.249068 -0.67869,0.336225 -0.67869,2.508502 0,2.239761 0.003,2.251228 0.72761,2.410941 0.40018,0.08826 0.84666,0.200192 0.99219,0.248735 0.6137,0.204721 2.75741,0.08732 4.23333,-0.231844 z m -29.75096,-4.400619 c 0.33372,-0.658937 1.83742,-4.473012 1.83742,-4.660552 0,-0.09609 -0.36934,0.288146 -0.82075,0.853858 -0.73853,0.925524 -2.35425,3.817881 -2.35425,4.214425 0,0.323324 1.14394,-0.02537 1.33758,-0.407731 z m 3.12345,-0.509428 c 0.50005,-0.267619 0.56605,-0.53121 0.56605,-2.260781 0,-2.249933 0.31555,-3.315207 0.98201,-3.315207 0.25626,0 1.38341,-0.446485 2.50478,-0.992188 2.17284,-1.057395 2.59863,-1.570348 2.59863,-3.130613 0,-0.873788 -0.0317,-0.906181 -0.59531,-0.608705 -1.06388,0.561496 -4.52438,3.25119 -5.46054,4.24423 -0.60643,0.643278 -1.20814,1.785701 -1.79394,3.406044 -1.11937,3.096166 -1.1339,3.466691 -0.12459,3.177226 0.41628,-0.119388 1.01159,-0.35339 1.32291,-0.520006 z m -11.60155,-6.240888 0.62464,-0.664899 -0.8431,0.293907 c -0.46371,0.161649 -0.8431,0.460854 -0.8431,0.6649 0,0.551703 0.36107,0.451737 1.06156,-0.293908 z m 0.33325,-1.769152 c 2.33445,-0.699416 5.21977,-4.355279 5.21977,-6.613731 0,-0.935548 -0.0543,-1.006384 -0.77211,-1.006384 -1.27801,0 -1.60914,0.245994 -1.60914,1.195413 0,0.651871 -0.20758,1.048878 -0.81615,1.560961 -0.97168,0.817611 -1.25368,0.723925 -1.09408,-0.363475 0.21594,-1.471318 -0.95441,-0.897235 -1.86413,0.914393 -0.50667,1.008997 -1.07819,3.749333 -0.88626,4.249481 0.17773,0.463162 0.45541,0.472815 1.8221,0.06334 z m 22.02081,-2.556371 c 2.34819,-1.754971 5.16585,-4.020581 6.21771,-4.999494 1.06121,-0.98762 0.91943,-1.073353 2.61237,1.579682 0.92681,1.452418 2.82989,3.130417 4.15966,3.667676 0.42273,0.170791 1.0304,0.431629 1.35038,0.579639 0.33165,0.153408 1.58391,0.211972 2.91261,0.136213 1.80666,-0.103012 2.63683,-0.287964 3.69159,-0.822451 1.59002,-0.805725 2.4713,-1.811052 2.4713,-2.81915 v -0.717779 l -3.50573,-0.03224 c -2.1315,-0.0196 -4.05023,-0.181579 -4.89479,-0.413217 l -1.38906,-0.380979 v 0.74049 c 0,1.022131 0.74192,1.842057 1.90379,2.103968 1.17606,0.26511 2.09072,-0.223157 1.88582,-1.006702 -0.19191,-0.733853 1.64132,-0.955192 2.56039,-0.309136 0.95001,0.667802 0.86037,1.575653 -0.228,2.309107 -2.81087,1.894244 -6.32782,0.276057 -6.712,-3.088266 -0.0997,-0.872982 -0.16179,-0.915611 -2.33589,-1.603566 -1.22842,-0.388709 -2.97705,-1.022439 -3.88584,-1.408288 l -1.65236,-0.701546 -3.22904,1.193962 c -1.77597,0.656678 -3.90774,1.334145 -4.73727,1.505481 -1.03586,0.213953 -1.46735,0.418049 -1.37771,0.651653 0.0908,0.236623 0.90151,0.363086 2.66401,0.41556 1.40626,0.04187 2.57297,0.194643 2.62221,0.343366 0.0488,0.147365 -0.71546,0.645102 -1.69835,1.106082 -2.56991,1.205315 -2.69898,1.337987 -2.8926,2.973319 l -0.17012,1.436922 1.03471,-0.626927 c 0.56909,-0.344811 1.74908,-1.160832 2.62221,-1.813381 z m -13.63538,-1.239554 c 0.79523,-0.326235 1.48476,-0.709835 1.5323,-0.852447 0.15169,-0.455065 -1.18873,-1.801636 -2.2859,-2.29639 -1.38358,-0.623909 -1.88289,-0.418541 -1.88289,0.774435 0,1.180879 -0.81537,2.933612 -2.0187,4.339426 l -0.9304,1.086973 2.06986,-1.229422 c 1.13842,-0.676182 2.7205,-1.496341 3.51573,-1.822575 z m 36.65465,-3.361169 c -0.22273,-0.791906 -2.71312,-3.156497 -3.9352,-3.736413 -1.08655,-0.515601 -1.58832,-0.433903 -3.27374,0.533031 -1.1296,0.648055 -2.15494,2.100873 -1.74378,2.470786 0.22389,0.201436 3.10872,0.973095 4.32199,1.156083 0.3638,0.05487 1.59222,0.115977 2.72981,0.135794 2.02526,0.03528 2.06486,0.02363 1.90092,-0.559281 z m 2.15146,-0.100638 c 2.44843,-1.161856 2.18683,-3.459408 -0.49152,-4.316814 -0.54196,-0.173493 -1.94094,-0.282868 -3.10886,-0.243055 -2.10037,0.0716 -2.68189,0.294771 -1.52816,0.586465 0.85239,0.215507 3.04291,2.465039 3.42245,3.514659 0.36867,1.019528 0.46803,1.046245 1.70609,0.458745 z M 267.56821,38.60846 c 0.45377,-0.28821 -1.80218,-2.455516 -3.46785,-3.331593 -1.41197,-0.742642 -1.65949,-0.704605 -2.04698,0.31457 -0.50325,1.323626 0.52727,2.557686 2.54181,3.043853 0.8743,0.210996 2.62343,0.19521 2.97302,-0.02683 z m 6.48583,-1.372353 c 1.70987,-0.483405 3.10885,-0.962431 3.10885,-1.064501 0,-0.249031 -5.99723,-2.35265 -7.15408,-2.509402 -2.91206,-0.394582 -3.76458,-0.443551 -4.86058,-0.279195 -1.30182,0.19522 -1.56608,0.531622 -0.64682,0.823385 0.76921,0.244136 2.73822,2.090266 3.43933,3.224678 0.54237,0.877584 0.63176,0.91778 1.78768,0.803865 0.66922,-0.06595 2.61575,-0.515425 4.32562,-0.99883 z m 13.00662,0.3315 c 0.5292,-0.996633 1.61636,-2.106673 2.26481,-2.312484 1.22619,-0.389177 0.38364,-0.6034 -1.90997,-0.48562 -2.17545,0.111711 -6.74137,1.039726 -6.46674,1.314354 0.13394,0.133943 5.27659,2.17422 5.5339,2.195503 0.10541,0.0087 0.3655,-0.311571 0.578,-0.711753 z m 6.55652,136.977923 c -0.68252,-0.63586 -1.74263,-2.61892 -1.51937,-2.84217 0.0853,-0.0853 0.29604,-0.0143 0.46824,0.15793 0.53271,0.53271 2.18285,0.37963 2.74594,-0.25473 0.36252,-0.4084 0.41117,-0.60031 0.1733,-0.68351 -0.50161,-0.17546 -0.39603,-0.52196 0.20709,-0.67968 0.83231,-0.21765 1.30492,0.74193 1.12501,2.28424 -0.11763,1.00842 -0.28145,1.33953 -0.77373,1.56383 -0.34349,0.1565 -0.62452,0.44403 -0.62452,0.63895 0,0.54036 -1.15018,0.42237 -1.80196,-0.18486 z m -2.39693,-1.45673 c -0.43995,-0.3702 -0.87382,-0.90598 -0.96417,-1.19063 -0.0903,-0.28465 -0.3981,-0.51754 -0.6839,-0.51754 -0.59067,0 -0.80375,-0.40845 -0.86044,-1.64938 -0.0217,-0.47529 -0.21597,-1.00186 -0.43169,-1.17016 -0.33477,-0.26118 -0.34311,-0.48961 -0.0569,-1.55959 0.18441,-0.68948 0.59903,-1.62261 0.92139,-2.07362 0.32236,-0.45101 0.71176,-1.17795 0.86534,-1.61541 0.15359,-0.43746 0.82242,-1.50976 1.48631,-2.38288 1.29276,-1.70022 2.60008,-4.09037 2.60008,-4.75371 0,-0.757 -0.69377,-0.4102 -1.28547,0.6426 -0.32404,0.57655 -0.77483,1.67787 -1.00176,2.44739 -0.47812,1.62132 -0.77744,2.06059 -1.40411,2.06059 -0.28233,0 -0.68177,0.49155 -1.06592,1.31172 -0.82249,1.75604 -1.95959,2.85654 -2.49362,2.41333 -0.31535,-0.26172 -0.53439,-0.21988 -1.13405,0.21658 -0.40876,0.29753 -1.19249,0.72577 -1.74163,0.95166 -0.92936,0.38229 -1.01173,0.37824 -1.19063,-0.0585 -0.13419,-0.32761 -0.50755,-0.47971 -1.23728,-0.50405 -0.7873,-0.0263 -1.20016,-0.21515 -1.67374,-0.76572 -0.49028,-0.56999 -0.5518,-0.77834 -0.27953,-0.94661 0.19604,-0.12116 0.3136,-0.55436 0.26812,-0.98799 -0.0609,-0.58071 0.096,-0.91146 0.6327,-1.33363 0.88747,-0.69808 1.33814,-0.70961 1.69472,-0.0433 0.22384,0.41825 0.17466,0.57297 -0.25527,0.80307 -0.64484,0.3451 -0.6688,0.62148 -0.10293,1.18735 0.56168,0.56168 1.73088,0.31372 3.14227,-0.66638 1.54953,-1.07603 2.76967,-2.46022 4.62082,-5.24209 2.35491,-3.5389 3.31437,-4.5375 4.35968,-4.5375 1.3021,0 1.99971,0.90713 1.99971,2.60033 0,0.75658 -0.1031,1.58234 -0.22912,1.83503 -0.12601,0.25269 -0.34962,0.81662 -0.4969,1.25318 -0.14728,0.43656 -0.88979,2.40109 -1.65003,4.36562 -1.73608,4.48622 -2.18106,6.49484 -1.83871,8.3 0.13963,0.73629 0.37117,1.456 0.51453,1.59935 0.14335,0.14336 0.26065,0.3559 0.26065,0.47232 0,0.38988 -0.48184,0.21734 -1.28848,-0.46141 z m 4.19889,-19.97283 c -0.3638,-0.27994 -0.92935,-0.51164 -1.25677,-0.51487 -0.80293,-0.008 -0.75528,-0.64181 0.0768,-1.02091 0.54255,-0.2472 0.79548,-0.22533 1.3126,0.11349 0.70752,0.46359 1.10304,1.35983 0.7536,1.70763 -0.12359,0.12301 -0.52237,-0.005 -0.88618,-0.28534 z m 0.1323,-1.90079 c -1.0413,-0.36721 -1.0588,-0.39017 -0.662,-0.86828 0.1975,-0.23797 0.39352,-1.4426 0.46874,-2.88054 0.19045,-3.64116 -0.76085,-8.35069 -2.46532,-12.20479 -0.72883,-1.64803 -1.18327,-1.89795 -0.50669,-0.27866 0.31463,0.75302 0.34098,1.07724 0.11016,1.35537 -0.17538,0.21131 -0.24866,0.8396 -0.17366,1.4889 0.13156,1.13886 -0.16247,2.38742 -0.53573,2.27494 -0.11234,-0.0338 -0.54906,0.26294 -0.97049,0.65953 -0.42144,0.39658 -0.96049,0.72106 -1.1979,0.72106 -0.80903,0 -1.60774,-0.78835 -1.60774,-1.58689 0,-0.90268 0.49688,-1.31543 0.84174,-0.69921 0.39047,0.69773 1.2397,0.53421 1.44354,-0.27796 0.46053,-1.83489 -1.30276,-5.48891 -5.2135,-10.80383 -0.64505,-0.87666 -1.39309,-2.08337 -1.66231,-2.68157 -0.26922,-0.5982 -0.77524,-1.21783 -1.12448,-1.37696 -1.23847,-0.56428 -0.4759,-2.9465 0.9432,-2.9465 0.42685,0 1.31879,1.00025 1.02293,1.14715 -0.84754,0.4208 -1.1605,0.72474 -1.23046,1.19498 -0.0465,0.31256 0.0428,0.56829 0.19844,0.56829 0.15564,0 0.28298,-0.18115 0.28298,-0.40255 0,-0.2214 0.28855,-0.53401 0.64121,-0.6947 1.1142,-0.50766 2.31448,-0.0558 4.14959,1.56217 3.3705,2.97168 3.8242,3.31468 5.20477,3.93482 1.90265,0.85466 4.29193,0.8337 4.29193,-0.0377 0,-0.20668 -0.19913,-0.29172 -0.4993,-0.21323 -0.63197,0.16527 -0.92007,-0.28893 -0.71119,-1.12119 0.18457,-0.73536 0.9627,-0.86692 1.4752,-0.2494 0.18122,0.21836 0.38694,0.90671 0.45716,1.52966 0.11107,0.98546 0.0243,1.24331 -0.66784,1.98423 -0.5012,0.53654 -1.04988,0.85159 -1.4831,0.85159 -0.5112,0 -0.68759,0.13575 -0.68759,0.52917 0,0.69907 -0.90943,0.69863 -2.05692,-0.001 -1.0465,-0.63798 -1.11808,-0.64458 -1.11808,-0.10293 0,0.27901 -0.14388,0.36997 -0.41852,0.26459 -0.23018,-0.0883 -0.4709,-0.1606 -0.53494,-0.1606 -0.064,0 -0.58369,-0.72297 -1.1548,-1.60659 -1.29332,-2.00101 -3.20424,-4.40028 -3.65644,-4.59087 -0.18741,-0.079 -0.41628,0.0532 -0.5086,0.29378 -0.1192,0.31065 0.32459,0.90511 1.53137,2.05127 2.42966,2.30762 3.47577,3.68982 3.08692,4.07866 -0.23711,0.23712 -0.13371,0.48058 0.4392,1.03413 l 0.74932,0.72399 -0.42914,-0.68258 c -0.23603,-0.37541 -0.35502,-0.7567 -0.26443,-0.84729 0.6877,-0.6877 4.01019,6.32662 4.47966,9.45727 0.099,0.6604 0.26083,1.20073 0.35956,1.20073 0.0987,0 0.21407,1.96453 0.25633,4.36562 0.0423,2.4011 0.0373,4.35623 -0.0111,4.34474 -0.0484,-0.0115 -0.44513,-0.14685 -0.8817,-0.30081 z m 0.52509,-14.86333 c -0.4388,-0.1912 -1.42106,-1.02957 -2.18281,-1.86304 -1.73589,-1.89935 -1.87379,-2.78447 -0.19234,-1.23456 1.34356,1.23845 2.14308,1.61388 3.43695,1.61388 0.65862,0 0.93479,-0.13801 1.05894,-0.52917 0.29188,-0.91964 0.66146,-0.57379 0.66146,0.61899 0,0.9736 -0.10246,1.19484 -0.67391,1.45521 -0.83863,0.3821 -1.10872,0.37425 -2.10829,-0.0613 z m -46.10019,-4.95147 c -1.51947,-0.75213 -3.29472,-2.78895 -3.97096,-4.55608 -0.30557,-0.7985 -0.63884,-2.32613 -0.7406,-3.39473 -0.23104,-2.42608 -0.48537,-2.96127 -1.33051,-2.79971 -0.80541,0.15397 -0.87435,-0.56711 -0.11954,-1.25021 0.74179,-0.67131 1.76681,-0.33479 2.43626,0.79984 0.42106,0.71365 0.62517,0.85862 0.89437,0.6352 0.51919,-0.43089 1.44254,0.60407 1.44254,1.61692 0,0.44696 0.19166,1.00432 0.42593,1.23858 0.32116,0.32117 0.39343,0.75579 0.29379,1.76704 -0.2179,2.21162 0.87651,4.6484 2.08771,4.6484 0.60279,0 0.41684,-0.52353 -0.28006,-0.78849 -1.21493,-0.46192 -2.00806,-2.45019 -1.32948,-3.33286 0.21516,-0.27987 0.66763,-0.92558 1.00547,-1.4349 0.47185,-0.71136 0.77836,-0.91449 1.32211,-0.87623 0.38932,0.0274 0.70786,-0.0503 0.70786,-0.17256 0,-0.1223 0.36171,-0.34846 0.80381,-0.50257 1.54964,-0.54021 2.80293,0.64713 2.08973,1.97976 -0.38034,0.71067 -0.77687,0.82963 -0.77687,0.23306 0,-0.61813 -0.68696,-0.46698 -1.1602,0.25527 -0.58882,0.89866 -0.53512,1.7549 0.17652,2.81445 0.86667,1.29038 2.16251,1.37396 3.47227,0.22398 0.96116,-0.84391 1.74474,-0.90095 1.74474,-0.12701 0,0.64207 -1.95349,2.42491 -3.31872,3.02881 -1.70681,0.75501 -4.34425,0.75233 -5.87617,-0.006 z m 8.62479,-4.11796 c -0.65593,-0.74598 -0.7951,-1.51596 -0.37695,-2.08546 0.36513,-0.49729 0.38843,-0.48888 0.66697,0.24076 0.25422,0.66596 0.39755,0.74334 1.20281,0.64933 1.01129,-0.11806 1.31258,0.22611 0.80527,0.91989 -0.51259,0.70102 -1.78935,0.85406 -2.2981,0.27548 z m -8.81977,-2.63079 c 0.12071,-0.27452 0.26992,-0.99497 0.33159,-1.601 0.0939,-0.92246 0.0191,-1.15164 -0.45896,-1.40751 -0.45771,-0.24497 -0.50874,-0.38077 -0.25703,-0.68407 0.5134,-0.6186 1.54419,-0.46476 1.88407,0.2812 0.24901,0.54651 0.19059,0.91727 -0.34069,2.16219 -0.35268,0.82642 -0.8071,1.55787 -1.00983,1.62544 -0.27391,0.0913 -0.31222,-0.005 -0.14915,-0.37625 z m 44.77429,-15.38215 c -0.25664,-0.0584 -0.65462,-0.46969 -0.88441,-0.91405 -0.39356,-0.76107 -0.38634,-0.8394 0.12443,-1.35017 l 0.54224,-0.54224 0.28064,0.73816 c 0.238,0.62597 0.40058,0.72055 1.06979,0.62233 0.77846,-0.11425 0.98516,0.14828 0.58665,0.74511 -0.30105,0.45086 -1.20263,0.81838 -1.71934,0.70086 z m -34.45838,-0.85969 c -0.0899,-0.14552 -0.0374,-0.26458 0.11668,-0.26458 0.15411,0 0.2802,0.11906 0.2802,0.26458 0,0.14553 -0.0525,0.26459 -0.11668,0.26459 -0.0642,0 -0.19026,-0.11906 -0.2802,-0.26459 z m 3.57851,-5.15137 c -0.41129,-0.49557 -0.0464,-1.02767 1.11758,-1.62957 0.59625,-0.30833 0.84957,-0.32659 1.14375,-0.0824 0.59464,0.49351 0.45072,1.04256 -0.27328,1.04256 -0.35814,0 -0.87635,0.24172 -1.1516,0.53716 -0.44404,0.47663 -0.5383,0.49154 -0.83645,0.1323 z m -19.41783,-4.392829 c -0.41272,-0.324646 -0.69714,-0.811673 -0.69714,-1.193752 0,-0.601104 0.0702,-0.634154 1.02354,-0.481711 0.87593,0.140068 1.08688,0.07374 1.46267,-0.459894 0.37118,-0.527073 0.47829,-0.562152 0.6922,-0.226689 0.30009,0.470611 0.33305,1.600009 0.0587,2.010912 -0.22192,0.332349 -1.22856,0.899503 -1.59652,0.899503 -0.13546,0 -0.56001,-0.24676 -0.94344,-0.548369 z m -0.16197,-2.356046 c -0.66793,-0.667924 -0.45819,-1.450562 0.26731,-0.997479 0.39219,0.244925 0.59119,0.215718 0.99013,-0.145322 0.54555,-0.493713 0.85323,-0.359513 0.85323,0.372144 0,0.437002 -0.91508,1.293823 -1.38179,1.293823 -0.11314,0 -0.44114,-0.235423 -0.72888,-0.523166 z M 241.7676,46.614583 c -0.63933,-0.447803 -0.79887,-1.652704 -0.28666,-2.164914 0.22544,-0.225445 0.41876,-0.156405 0.76731,0.274026 0.35078,0.433205 0.734,0.568373 1.5507,0.546958 1.25092,-0.0328 1.3423,0.199427 0.43535,1.106377 -0.74571,0.745708 -1.62088,0.82999 -2.4667,0.237553 z m 6.02655,-11.123968 c 0,-0.146386 0.37574,-0.777089 0.83498,-1.401561 1.02113,-1.388516 1.29181,-3.226379 0.65622,-4.455481 -0.35392,-0.684408 -0.36158,-0.834103 -0.0488,-0.954114 0.20402,-0.07829 0.66757,-0.0024 1.03011,0.168732 1.48796,0.702205 0.75793,3.754171 -1.40264,5.863915 -0.58841,0.574566 -1.06983,0.924895 -1.06983,0.778509 z"
       id="path1230" />
  </g>
</svg>
