<?xml version="1.0" encoding="UTF-8" standalone="no"?>
<!-- Created with Inkscape (http://www.inkscape.org/) -->

<svg
   width="39.371735mm"
   height="56.08762mm"
   viewBox="0 0 39.371734 56.087626"
   version="1.1"
   id="svg997"
   inkscape:version="1.1 (c4e8f9ed74, 2021-05-24)"
   sodipodi:docname="ornament12.svg"
   xmlns:inkscape="http://www.inkscape.org/namespaces/inkscape"
   xmlns:sodipodi="http://sodipodi.sourceforge.net/DTD/sodipodi-0.dtd"
   xmlns="http://www.w3.org/2000/svg"
   xmlns:svg="http://www.w3.org/2000/svg">
  <sodipodi:namedview
     id="namedview999"
     pagecolor="#ffffff"
     bordercolor="#666666"
     borderopacity="1.0"
     inkscape:pageshadow="2"
     inkscape:pageopacity="0.0"
     inkscape:pagecheckerboard="0"
     inkscape:document-units="mm"
     showgrid="false"
     inkscape:zoom="1.5385816"
     inkscape:cx="220.65778"
     inkscape:cy="62.720106"
     inkscape:window-width="2506"
     inkscape:window-height="1403"
     inkscape:window-x="1974"
     inkscape:window-y="0"
     inkscape:window-maximized="1"
     inkscape:current-layer="layer1" />
  <defs
     id="defs994" />
  <g
     inkscape:label="Layer 1"
     inkscape:groupmode="layer"
     id="layer1"
     transform="translate(-80.087047,-162.06428)">
    <path
       style="fill:#000000;stroke-width:0.264583"
       d="m 117.36186,210.01603 c -0.003,-4.47476 -0.1175,-8.85031 -0.25462,-9.72343 -0.97052,-6.17988 -1.56921,-8.86249 -2.22925,-9.98876 -1.23335,-2.10454 -3.7839,-4.63258 -5.94371,-5.89122 -2.55865,-1.49108 -4.14134,-1.60194 -6.33136,-0.44349 -1.60938,0.85131 -2.34949,1.82322 -2.58517,3.39484 -0.133311,0.889 -0.0638,1.20393 0.35905,1.62678 0.52277,0.52277 0.52476,0.52092 0.65178,-0.60604 0.1445,-1.28197 1.28021,-2.96226 2.25188,-3.3317 1.34476,-0.51127 2.95636,-0.27443 4.67587,0.68718 0.91043,0.50914 1.8554,1.14679 2.09993,1.41698 0.74309,0.82111 2.28216,4.09347 2.28303,4.85417 0.002,1.61544 -0.57745,3.38795 -1.34356,4.11103 -0.42477,0.40091 -0.7723,0.85929 -0.7723,1.01863 0,0.15934 -0.70797,0.63597 -1.57326,1.05919 -1.49974,0.73352 -1.57394,0.81604 -1.5875,1.76557 -0.0119,0.8326 -0.15536,1.08212 -0.87413,1.52036 -1.07728,0.65683 -1.91022,0.70261 -1.67595,0.0921 0.17825,-0.46453 -0.48038,-1.68251 -0.90984,-1.68251 -0.14216,0 -0.25907,0.20836 -0.2598,0.46302 -7.1e-4,0.25466 -0.27504,0.80509 -0.60959,1.22318 -0.76002,0.94979 -2.45873,1.11186 -3.335661,0.31825 -0.75767,-0.68568 -0.69147,-1.12465 0.2424,-1.60757 0.436561,-0.22576 0.793751,-0.5343 0.793751,-0.68565 0,-0.65879 -0.588621,-1.26924 -1.386861,-1.43828 -1.00268,-0.21233 -2.84647,-1.1818 -2.84647,-1.49667 0,-0.11872 -0.15784,-0.21586 -0.35076,-0.21586 -0.99305,0 -2.4782,-2.9249 -2.05236,-4.04198 0.12334,-0.32353 0.54644,-0.90996 0.94024,-1.30319 0.39379,-0.39322 0.63682,-0.84306 0.54005,-0.99963 -0.20308,-0.3286 0.54737,-3.51727 1.06305,-4.51684 0.56042,-1.08634 2.69215,-2.89024 4.268051,-3.61171 1.31751,-0.60318 1.71162,-0.65744 4.08333,-0.56218 2.53652,0.10188 2.60886,0.0892 2.14453,-0.3751 -0.42492,-0.42492 -0.63939,-0.44647 -1.85296,-0.18621 -2.08424,0.44699 -3.72132,-0.18611 -5.698741,-2.20385 l -1.54578,-1.5773 -0.75861,0.56087 c -0.41724,0.30848 -0.93784,0.56087 -1.1569,0.56087 -0.21905,0 -0.52116,0.22961 -0.67135,0.51024 -0.22187,0.41456 -0.49771,0.49193 -1.47109,0.41262 -0.65891,-0.0537 -1.46295,-0.17702 -1.78675,-0.27407 -0.87703,-0.26284 -2.73164,-2.14327 -4.03223,-4.08838 -1.44948,-2.16775 -3.54154,-4.40037 -4.44535,-4.744 -0.58449,-0.22222 -0.75744,-0.17269 -1.09877,0.31463 -0.22281,0.3181 -0.4051,0.79 -0.4051,1.04866 0,0.3455 -0.2093,0.4703 -0.78871,0.4703 -0.62044,0 -0.8241,-0.141 -0.95458,-0.66087 -0.24986,-0.99552 0.0344,-1.43185 1.29637,-1.99009 0.92985,-0.41132 1.3291,-0.45697 2.11023,-0.24129 0.52987,0.1463 1.03426,0.38066 1.12087,0.52079 0.0866,0.14014 0.27752,0.25479 0.42426,0.25479 0.34479,0 0.0279,-1.0494 -0.49763,-1.64813 -0.35948,-0.40953 -0.35837,-0.47409 0.0106,-0.61569 0.8594,-0.32978 2.71195,1.10209 2.97491,2.29936 0.18225,0.82978 0.65366,0.7855 0.65366,-0.0614 0,-0.28809 0.4677,-1.0252 1.03934,-1.63803 0.9562,-1.0251 1.14629,-1.11423 2.37616,-1.11423 1.14648,0 1.45539,0.11856 2.16954,0.83271 0.79694,0.79695 0.82476,0.89642 0.64749,2.31527 -0.28906,2.31352 -1.36112,2.94102 -2.64995,1.55107 -1.1444,-1.23418 -0.57989,-2.90236 0.61593,-1.82015 0.9754,0.88273 1.14334,-0.33923 0.17914,-1.30343 -0.67945,-0.67945 -1.99215,-0.88839 -2.00229,-0.3187 -0.003,0.1819 -0.23871,0.62838 -0.52328,0.99218 -0.77546,0.99137 -0.67468,2.19711 0.27396,3.27755 0.73572,0.83794 0.92018,0.91197 2.19781,0.88205 1.61692,-0.0378 3.262,0.7937 3.39826,1.71776 0.0457,0.30992 0.24998,0.61852 0.45395,0.68578 0.28192,0.093 0.32339,-0.029 0.17293,-0.50844 -0.10886,-0.34691 -0.28241,-1.76183 -0.38567,-3.14428 -0.10327,-1.38245 -0.33956,-2.79163 -0.5251,-3.13151 -0.54998,-1.00749 -0.0391,-1.04209 0.78967,-0.0535 0.42237,0.50382 0.76794,1.02128 0.76794,1.1499 0,0.75101 0.90214,3.13443 1.39936,3.69703 l 0.58502,0.66196 1.719791,-0.43434 c 0.94588,-0.2389 1.69002,-0.52365 1.65364,-0.63279 -0.0364,-0.10914 -0.0669,-0.46633 -0.0678,-0.79375 -0.001,-0.37707 -0.2788,-0.75294 -0.75762,-1.02529 -0.5048,-0.28713 -0.89596,-0.84089 -1.17738,-1.66684 -0.46811,-1.37381 -0.37089,-1.8387 0.721,-3.44769 0.82686,-1.21845 0.86704,-1.96714 0.14704,-2.73998 -0.59497,-0.63862 -1.08562,-0.71916 -1.859171,-0.30516 -0.71867,0.38462 -0.63636,1.22341 0.19573,1.99457 0.562391,0.52121 0.640021,0.72212 0.378471,0.97955 -0.260371,0.25627 -0.463251,0.16893 -0.972091,-0.4185 -0.75216,-0.86831 -0.82442,-1.91758 -0.19537,-2.83679 0.62843,-0.91829 0.86962,-1.04241 2.034621,-1.04701 0.84317,-0.003 1.19138,0.17015 1.94456,0.96876 0.81478,0.86391 0.89937,1.08604 0.75572,1.98438 -0.089,0.55636 -0.0612,1.01156 0.0617,1.01156 0.12288,0 0.59819,-0.46634 1.05623,-1.03631 1.8661,-2.32212 6.0192,-3.2405 8.78076,-1.94171 1.15688,0.5441 3.175,2.23369 3.175,2.65815 0,0.11574 0.38695,0.32436 0.85989,0.4636 1.16487,0.34293 1.30321,1.39464 0.33483,2.54549 -0.43441,0.51627 -0.6278,0.98369 -0.51734,1.25043 0.4256,1.02775 0.35566,1.34939 -0.68647,3.15695 -1.09945,1.90698 -1.2133,2.81434 -0.33182,2.64458 0.24994,-0.0481 0.56518,-0.47365 0.70053,-0.9456 0.366,-1.27618 1.13129,-1.15446 1.36296,0.21679 0.14092,0.83406 0.0777,1.1897 -0.28233,1.5875 -0.55791,0.61647 -1.14242,0.64418 -2.41068,0.11427 -0.87584,-0.36595 -0.98128,-0.36057 -1.29565,0.0661 -0.50094,0.67994 -0.69349,2.0206 -0.40078,2.79048 0.28275,0.74368 1.24664,1.18446 1.66823,0.76287 0.44106,-0.44106 0.30955,-1.63004 -0.22507,-2.03488 -0.48158,-0.36467 -0.48061,-0.37581 0.0331,-0.38047 1.17035,-0.0106 1.65275,0.30605 1.9809,1.30035 0.30346,0.91949 0.27926,1.07515 -0.2859,1.83957 -0.33957,0.4593 -0.88331,0.90183 -1.2083,0.9834 -0.64544,0.16199 -2.25777,-0.27333 -3.19868,-0.86364 -0.32742,-0.20542 -0.59531,-0.33641 -0.59531,-0.29109 0,0.74011 1.22481,3.12837 2.04267,3.983 1.8135,1.89505 3.18341,3.95277 3.73086,5.60409 1.18872,3.58564 1.37466,5.96011 1.34165,17.13315 l -0.0311,10.51581 h -1.02851 -1.02852 l -0.005,-8.13594 z m -11.03253,-14.18876 c 1.92795,-0.82492 2.81636,-2.5152 2.82946,-5.38333 0.0122,-2.6648 -1.75318,-4.83572 -3.93232,-4.83572 -0.98722,0 -1.09033,0.40492 -0.16241,0.63782 0.3638,0.0913 0.66146,0.2743 0.66146,0.40665 0,0.40613 -0.82034,1.087 -1.10081,0.91365 -0.14542,-0.0899 -0.45345,0.1065 -0.68451,0.43639 l -0.42011,0.59979 -0.62072,-0.76955 c -0.51934,-0.64385 -0.66268,-0.70472 -0.87761,-0.37267 -0.37334,0.57679 -0.32182,1.52791 0.096,1.77279 0.19856,0.11638 0.57457,0.62831 0.83557,1.13763 l 0.47454,0.92604 0.30164,-0.89376 c 0.33812,-1.00183 1.52697,-2.15354 2.20916,-2.14014 1.38616,0.0272 3.18869,3.19687 2.17446,3.82369 -0.14199,0.0878 -0.68475,0.80223 -1.20612,1.58772 -0.68552,1.03276 -1.20816,1.51402 -1.88782,1.73833 -1.17673,0.38835 -3.25421,0.13515 -4.62376,-0.56354 -1.465501,-0.74764 -1.261021,-0.20358 0.23682,0.63011 1.00786,0.56097 1.61217,0.70079 3.0512,0.70595 0.98694,0.004 2.17757,-0.1575 2.64584,-0.35785 z m -1.76712,-2.19635 c 0.35737,-0.13714 0.22435,-0.24759 -0.56478,-0.469 -0.72031,-0.2021 -1.29477,-0.63382 -1.90103,-1.42869 l -0.8688,-1.13906 v 0.79402 c 0,1.10553 1.15157,2.42211 2.11855,2.42211 0.41172,0 0.95895,-0.0807 1.21606,-0.17938 z m 2.06909,-2.54834 c 0.32429,-0.5141 -0.0769,-1.37332 -0.6412,-1.37332 -0.50486,0 -1.01802,0.96061 -0.59531,1.1144 0.1819,0.0662 0.33073,0.29892 0.33073,0.5172 0,0.49211 0.52729,0.34176 0.90578,-0.25828 z m 3.7321,-11.01537 -0.94755,-1.88159 -0.64623,0.47015 c -0.35542,0.25859 -0.64996,0.60946 -0.65454,0.77972 -0.011,0.41013 3.00409,3.08865 3.11208,2.76468 0.0461,-0.13826 -0.34261,-1.09809 -0.86376,-2.13296 z m 1.17843,-1.35393 c -0.39761,-1.38638 -0.31285,-2.74113 0.26289,-4.20178 0.51849,-1.31543 0.51854,-1.32909 0.006,-1.60336 -0.71431,-0.38229 -1.1111,-1.21429 -1.1111,-2.3298 0,-0.68601 -0.17696,-1.08208 -0.64961,-1.45386 -0.45402,-0.35713 -0.62529,-0.72082 -0.56885,-1.20789 0.10897,-0.94042 0.84922,-0.91671 0.95823,0.0307 0.13673,1.18833 0.6154,0.82772 0.5268,-0.39687 -0.075,-1.03593 -0.14423,-1.13065 -0.87979,-1.20281 -0.74477,-0.0731 -2.77344,0.57527 -2.77344,0.88634 0,0.0767 0.26297,0.49515 0.58438,0.92988 0.51804,0.70069 0.54788,0.88714 0.26282,1.64235 -0.17686,0.46855 -0.23147,0.88242 -0.12136,0.9197 0.8089,0.27387 1.97806,1.2423 2.19791,1.82054 0.3587,0.94347 0.0985,1.61332 -0.80908,2.08263 -1.02218,0.52859 -1.59839,0.27946 -1.43464,-0.62027 0.0704,-0.38702 0.0149,-0.87461 -0.12352,-1.08354 -0.39399,-0.59485 -1.08788,0.14086 -1.07507,1.13987 0.009,0.67316 0.26075,1.02489 1.35172,1.88583 0.7376,0.58208 1.58575,1.41552 1.88476,1.85208 0.68639,1.00214 1.58017,2.00781 1.68832,1.89966 0.0454,-0.0454 -0.0344,-0.49067 -0.17743,-0.98939 z m -6.9394,0.32598 c 0.25256,-0.16035 0.1258,-0.66808 -0.52916,-2.1195 -0.69157,-1.53253 -0.96557,-1.89424 -1.39046,-1.83561 -0.39412,0.0544 -0.55108,0.30936 -0.61503,0.99907 -0.0472,0.50932 -0.33543,1.19346 -0.64046,1.52031 -0.61977,0.66412 -0.63203,0.63192 0.46174,1.21231 0.85642,0.45445 2.17807,0.56327 2.71337,0.22342 z m 9.51967,-8.91846 c 0.894,-0.894 0.92813,-0.99624 0.77213,-2.3134 -0.22542,-1.90332 -1.25425,-3.29202 -2.91879,-3.93975 -1.19942,-0.46673 -1.38819,-0.47391 -2.66911,-0.10154 -1.01657,0.29553 -1.73694,0.75925 -2.74419,1.7665 -0.75119,0.75119 -1.36397,1.49761 -1.36174,1.65872 0.003,0.21006 0.059,0.20873 0.19844,-0.005 0.10691,-0.1637 0.78324,-0.66972 1.50296,-1.12448 1.53243,-0.96829 2.89572,-1.06914 4.51226,-0.33379 1.95947,0.89135 2.37554,1.99896 1.2019,3.19959 -0.91482,0.93584 -1.0108,1.45288 -0.342,1.84242 0.70152,0.4086 0.83793,0.36066 1.84814,-0.64956 z"
       id="path5229" />
  </g>
</svg>
