<?xml version="1.0" encoding="UTF-8" standalone="no"?>
<!-- Created with Inkscape (http://www.inkscape.org/) -->

<svg
   width="76.288216mm"
   height="77.585983mm"
   viewBox="0 0 76.288219 77.585983"
   version="1.1"
   id="svg5"
   inkscape:version="1.1 (c4e8f9ed74, 2021-05-24)"
   sodipodi:docname="ornatel.svg"
   xmlns:inkscape="http://www.inkscape.org/namespaces/inkscape"
   xmlns:sodipodi="http://sodipodi.sourceforge.net/DTD/sodipodi-0.dtd"
   xmlns="http://www.w3.org/2000/svg"
   xmlns:svg="http://www.w3.org/2000/svg">
  <sodipodi:namedview
     id="namedview7"
     pagecolor="#ffffff"
     bordercolor="#666666"
     borderopacity="1.0"
     inkscape:pageshadow="2"
     inkscape:pageopacity="0.0"
     inkscape:pagecheckerboard="0"
     inkscape:document-units="mm"
     showgrid="false"
     inkscape:zoom="0.94615212"
     inkscape:cx="-277.43953"
     inkscape:cy="109.39044"
     inkscape:window-width="2506"
     inkscape:window-height="1403"
     inkscape:window-x="1974"
     inkscape:window-y="0"
     inkscape:window-maximized="1"
     inkscape:current-layer="layer1" />
  <defs
     id="defs2" />
  <g
     inkscape:label="Layer 1"
     inkscape:groupmode="layer"
     id="layer1"
     transform="translate(-236.99492,-124.89452)">
    <path
       style="fill:#000000;stroke-width:0.549658"
       d="m 267.7019,202.2449 c -1.70216,-0.23495 -4.54664,-0.90413 -6.32106,-1.48706 -1.77443,-0.58294 -4.2689,-1.21545 -5.54327,-1.40557 -2.10396,-0.3139 -2.42456,-0.20026 -3.48631,1.23585 -1.24241,1.68044 -1.31844,1.68898 -8.89055,0.99855 -4.19193,-0.38222 -5.36465,-3.53852 -2.32479,-6.257 1.86929,-1.67168 1.69833,-2.26751 -0.70777,-2.46664 -1.75003,-0.14484 -2.08601,-0.38364 -2.22545,-1.58171 -0.12397,-1.06524 0.17916,-1.56757 1.23673,-2.04944 1.3748,-0.62639 1.92737,-1.7612 0.85759,-1.7612 -2.27751,0 -3.57939,-4.15845 -1.98466,-6.33937 0.45945,-0.62834 0.65666,-1.75075 0.48908,-2.78347 -0.15774,-0.97201 -0.0152,-1.89476 0.32531,-2.10517 0.41752,-0.25804 0.26532,-1.04271 -0.48908,-2.52144 -1.54645,-3.03129 -1.43769,-6.98267 0.29081,-10.56568 l 1.38602,-2.8731 -1.43239,-2.75819 c -1.34291,-2.58588 -1.40841,-3.06219 -1.0484,-7.62391 0.27891,-3.53418 0.19176,-5.2249 -0.31848,-6.1783 -0.59878,-1.11883 -0.56101,-1.46893 0.25583,-2.37153 0.80322,-0.88755 0.84885,-1.2635 0.28189,-2.32287 -0.7725,-1.44342 -0.74569,-6.22587 0.0424,-7.55598 0.38118,-0.64338 0.45246,-0.35662 0.25681,1.03326 l -0.2708,1.9238 0.63068,-1.60104 c 0.52245,-1.32627 0.48073,-1.7107 -0.2431,-2.23997 -0.52729,-0.38557 -0.75626,-1.08835 -0.5774,-1.77228 0.16301,-0.62335 0.0275,-1.29955 -0.30117,-1.50266 -0.32865,-0.20312 -0.5966,-0.54021 -0.59545,-0.74911 0.004,-0.64693 14.04052,-0.76391 16.37082,-0.13643 2.79703,0.75317 4.14033,2.69558 3.86449,5.58807 -0.16442,1.72404 -0.0234,2.13859 0.72765,2.13859 0.51237,0 1.44809,-0.83571 2.07937,-1.85715 0.63128,-1.02143 2.25368,-2.87652 3.60533,-4.12243 2.30023,-2.12027 2.66512,-2.26528 5.70046,-2.26528 2.1211,0 3.46558,0.26829 3.88658,0.77555 0.41354,0.49829 0.44806,0.89643 0.0966,1.11368 -0.30091,0.18597 -1.31958,1.48272 -2.26372,2.88167 -1.72648,2.55816 -1.92647,5.15475 -0.39262,5.09783 0.98919,-0.0367 3.26245,-5.0623 2.50236,-5.53206 -0.35785,-0.22117 0.32231,-0.98563 1.67108,-1.87821 1.25101,-0.82787 2.27456,-1.70032 2.27456,-1.93876 0,-0.23844 3.05389,-0.41488 6.78641,-0.39207 3.73253,0.0228 7.10466,-0.15523 7.49362,-0.39562 1.09335,-0.67573 7.41586,-0.33537 9.87278,0.53149 1.21123,0.42734 2.33622,0.56019 2.49999,0.29521 0.16376,-0.26497 1.71609,-0.64302 3.44961,-0.84009 1.73353,-0.19708 3.60979,-0.48636 4.16946,-0.64285 0.89249,-0.24954 0.97164,-0.0582 0.64377,1.55659 -0.2056,1.0126 -0.84902,2.51128 -1.42983,3.3304 -1.39987,1.97425 -1.33227,2.52558 0.33522,2.73404 0.76518,0.0956 1.4109,0.29759 1.43493,0.44875 0.024,0.15115 -0.14968,2.50094 -0.38604,5.22174 -0.29527,3.3991 -0.54968,4.51697 -0.8131,3.57278 -0.21085,-0.75578 -0.25583,-2.92624 -0.0999,-4.82325 0.24289,-2.95588 0.16192,-3.40247 -0.56623,-3.12306 -0.46731,0.17933 -1.01544,0.0578 -1.21807,-0.27005 -0.20262,-0.32785 -0.63687,-0.43017 -0.96501,-0.22737 -0.37131,0.22949 -0.43709,0.11062 -0.17418,-0.31477 0.57663,-0.93301 -3.03851,-4.26862 -6.08862,-5.61782 -5.86673,-2.59514 -11.88788,-1.66335 -16.59413,2.56797 -1.52226,1.36864 -3.28186,3.55045 -3.91022,4.84847 -1.36534,2.82042 -1.51231,7.3986 -0.31202,9.7197 1.06895,2.06712 4.38123,4.31892 6.96824,4.73723 1.115,0.18029 2.15846,0.66965 2.31879,1.08746 0.16033,0.41782 0.89702,0.75967 1.6371,0.75967 0.74007,0 1.45938,0.30918 1.59845,0.68707 0.13908,0.37789 0.44603,-0.055 0.68211,-0.9619 0.23609,-0.90694 1.36241,-2.71545 2.50295,-4.01892 1.38862,-1.58699 2.26794,-3.27564 2.66164,-5.11139 0.74303,-3.46463 0.75577,-6.53493 0.0271,-6.53493 -0.30846,0 -0.0439,-1.01335 0.588,-2.2519 1.35015,-2.64651 1.07478,-3.52476 -0.3493,-1.11399 -1.08627,1.83891 -1.94534,1.82404 -1.46172,-0.0253 0.23399,-0.8948 0.11005,-1.11415 -0.49775,-0.88092 -0.44513,0.17082 -1.41244,-0.15298 -2.14957,-0.71955 -0.73713,-0.56657 -1.11236,-1.03562 -0.83386,-1.04234 0.27851,-0.007 0.95871,0.39713 1.51156,0.89745 0.79671,0.72102 1.00343,0.74952 0.99676,0.13742 -0.004,-0.42475 -0.19013,-1.03148 -0.41224,-1.34829 -0.53532,-0.76359 -3.01492,-0.91585 -2.5455,-0.15631 0.23405,0.37871 -0.0881,0.43448 -0.9427,0.16323 -1.01726,-0.32286 -0.79422,0.0579 1.03048,1.75946 1.2808,1.19432 2.32322,2.52814 2.3165,2.96403 -0.008,0.52362 -0.337,0.3706 -0.96938,-0.45099 l -0.95717,-1.24351 -1.7789,1.62477 c -1.09542,1.00051 -1.7789,2.15138 -1.7789,2.99535 0,1.25794 0.15722,1.34506 1.91315,1.06011 1.29016,-0.20937 2.3641,-0.015 3.29795,0.59688 1.20951,0.79251 1.38479,0.80139 1.38479,0.0702 0,-0.46044 -0.46823,-0.83716 -1.04051,-0.83716 -1.25676,0 -1.85926,-1.27763 -1.00524,-2.13165 1.55858,-1.55858 3.14739,0.12643 3.142,3.33224 -0.008,4.62685 -2.66544,9.2429 -5.32152,9.2429 -1.05631,0 -1.28082,-0.3021 -1.32757,-1.78639 l -0.0563,-1.78638 -0.44212,1.87507 c -0.24316,1.03129 -0.31505,2.20618 -0.15975,2.61087 0.15529,0.40469 -0.006,0.7358 -0.35856,0.7358 -0.35249,0 -0.48803,-0.24734 -0.30119,-0.54965 0.2025,-0.32766 -0.46144,-0.54966 -1.64383,-0.54966 -2.49562,0 -4.68079,-1.1161 -6.56175,-3.35149 -1.24066,-1.47445 -1.44067,-2.17397 -1.3022,-4.55442 0.0998,-1.71561 0.40554,-2.76749 0.78398,-2.69723 0.3412,0.0633 0.77283,-0.83826 0.95918,-2.00357 0.51012,-3.19016 5.33333,-7.43322 9.41206,-8.27996 2.96043,-0.61458 5.50389,-0.34939 4.96784,0.51797 -0.41258,0.66757 1.76353,2.9316 2.4249,2.52286 0.94209,-0.58225 0.66496,-1.39298 -0.6579,-1.9247 -0.80627,-0.32408 -0.93132,-0.50923 -0.35928,-0.53195 0.97363,-0.0387 4.295,1.49825 5.19935,2.40592 2.84496,2.85539 5.46155,9.88174 4.25239,11.41896 -0.30552,0.38841 -0.5889,1.76699 -0.62972,3.0635 -0.0986,3.13267 -1.12561,4.96797 -4.45488,7.96127 -1.52412,1.37032 -2.77113,2.74829 -2.77113,3.06216 0,0.955 1.10072,1.31864 1.9238,0.63554 0.42698,-0.35436 1.00648,-0.50205 1.28778,-0.3282 0.2813,0.17385 0.81711,-0.0522 1.1907,-0.50234 0.37358,-0.45014 0.47024,-0.81843 0.21481,-0.81843 -0.25544,0 0.0899,-0.38824 0.76731,-0.86275 1.48963,-1.04338 3.7273,-5.30913 4.25192,-8.10561 0.21017,-1.12032 0.59772,-2.17017 0.86121,-2.33302 0.5133,-0.31723 0.16656,2.33136 -0.6411,4.89714 -0.30452,0.96742 -0.28653,1.95136 0.0471,2.57474 0.29698,0.55492 0.53997,2.20689 0.53997,3.67106 0,1.51696 0.36716,3.18631 0.85351,3.88068 0.57286,0.81787 0.69016,1.51045 0.35673,2.10627 -0.45615,0.81508 -0.52457,0.81533 -0.83626,0.003 -0.42161,-1.09868 -2.21545,-1.15282 -3.09468,-0.0934 -0.88887,1.07102 -0.5179,3.86681 0.52207,3.93454 1.84164,0.11993 2.08834,0.28186 2.63971,1.73269 0.31595,0.83136 0.72507,3.02047 0.90917,4.86469 0.26344,2.63915 0.15532,3.502 -0.50777,4.05232 -1.13988,0.94601 -1.05929,2.38105 0.25478,4.53631 1.40054,2.29711 1.40977,2.23121 -0.59253,4.23349 -0.93164,0.93165 -1.58343,2.0019 -1.44841,2.37833 0.13501,0.37644 0.0361,1.09256 -0.21984,1.59139 -0.31521,0.61438 -0.21061,1.0047 0.32426,1.20995 1.00137,0.38426 3.18851,4.61507 2.75141,5.32232 -0.18043,0.29194 -0.74631,0.53903 -1.25752,0.54909 -0.80963,0.0159 -0.78773,0.13995 0.16986,0.9619 0.75882,0.65135 1.09931,1.62459 1.09931,3.14225 0,2.3846 -0.98725,3.53828 -1.27742,1.49276 -0.16921,-1.19265 -3.71295,-3.96624 -5.06757,-3.96624 -0.34062,0 -0.5217,0.76439 -0.42316,1.78639 0.11713,1.21482 0.43604,1.74788 0.99673,1.66604 0.45346,-0.0662 1.3867,0.31019 2.07386,0.83639 1.23103,0.94269 1.20462,0.95562 -1.79906,0.88114 -2.0296,-0.0504 -3.39844,-0.39234 -4.09568,-1.02334 -0.59443,-0.53795 -1.48021,-0.81035 -2.04855,-0.62996 -1.59974,0.50773 -2.0707,0.15775 -1.9056,-1.41614 0.10497,-1.00077 -0.18643,-1.65468 -0.90992,-2.04188 -1.22686,-0.65659 -1.99812,-0.18512 -1.22367,0.74804 0.2975,0.35846 0.33931,1.33396 0.0964,2.2492 -0.34521,1.30074 -0.76962,1.64976 -2.17437,1.7881 -0.95999,0.0945 -2.29729,-0.21465 -2.97177,-0.68707 -1.41909,-0.99398 -0.92611,-1.08155 1.75682,-0.3121 l 1.90681,0.54687 -1.7892,-1.7836 c -1.49571,-1.49102 -1.87533,-1.64835 -2.31427,-0.95911 -0.28878,0.45347 -0.52885,0.55653 -0.53348,0.22903 -0.004,-0.32751 0.1771,-0.7815 0.40383,-1.00889 0.22673,-0.22737 0.42775,-1.31982 0.44672,-2.42765 0.019,-1.10783 0.23093,-2.44709 0.47104,-2.97613 0.39028,-0.85988 0.0734,-0.96191 -2.98747,-0.96191 -2.93697,0 -3.32947,0.11397 -2.75916,0.80116 0.42867,0.51651 1.21006,0.69213 2.19928,0.49428 1.67453,-0.3349 2.64046,0.5396 1.78308,1.61434 -0.83079,1.04144 -0.14192,6.98406 0.8096,6.98406 0.43387,0 0.64267,0.23655 0.46399,0.52565 -0.57951,0.93767 -1.86235,-0.0263 -2.22355,-1.67088 -0.19365,-0.88168 -0.45046,-1.60306 -0.5707,-1.60306 -0.12023,0 -1.83303,0.60767 -3.80621,1.35037 -5.86918,2.20915 -12.77468,3.14448 -17.94585,2.4307 z m -21.21401,-1.99468 c -0.20033,-0.52905 -0.68726,-1.28875 -1.08207,-1.68823 -0.3948,-0.39949 -0.71782,-1.07969 -0.71782,-1.51156 0,-1.07896 -1.08492,-0.98585 -2.05861,0.17667 -0.54529,0.65105 -0.51637,0.47342 0.0895,-0.54965 1.11582,-1.88421 0.38617,-1.96295 -1.32372,-0.14285 -1.12459,1.19707 -1.20367,1.54902 -0.63065,2.80667 0.57609,1.26439 0.88045,1.39572 2.5213,1.08789 1.07813,-0.20226 2.01396,-0.11087 2.21625,0.21644 0.58592,0.94804 1.37474,0.63168 0.98583,-0.39538 z m 3.43167,0.0687 c -0.82842,-0.82842 -2.48328,-1.02683 -2.48328,-0.29774 0,0.76261 0.52942,1.05352 1.91726,1.05352 1.12152,0 1.20729,-0.11451 0.56602,-0.75578 z m 28.40791,0.30445 c 4.45173,-0.89979 9.62449,-2.67984 10.35883,-3.56466 0.91267,-1.0997 0.0216,-1.01032 -3.04882,0.3058 -4.24664,1.82032 -4.14097,1.19748 0.13742,-0.80998 2.19176,-1.02838 3.98501,-2.13256 3.98501,-2.45371 0,-0.80985 -0.94683,-0.73393 -1.28649,0.10316 -0.21694,0.53465 -0.3945,0.52206 -0.80039,-0.0568 -0.4064,-0.57954 -0.77982,-0.60562 -1.69082,-0.11807 -0.64307,0.34416 -1.16921,0.81272 -1.16921,1.04124 0,0.22852 -1.32328,1.08553 -2.94062,1.90446 -3.71741,1.8823 -9.85284,2.16098 -10.74809,0.48819 -0.29458,-0.55042 -1.60184,-1.46474 -2.90504,-2.03181 -2.9522,-1.28462 -2.82094,-1.18378 -2.40884,-1.85058 0.35019,-0.56661 3.16217,0.99947 5.76046,3.2082 0.80922,0.68789 2.10581,1.12532 3.3356,1.12532 2.01304,0 8.00863,-1.53147 7.59905,-1.94104 -0.1195,-0.1195 -1.42712,0.14683 -2.90582,0.59185 -2.94772,0.88713 -5.72969,0.81047 -6.93096,-0.19099 -1.98241,-1.65267 -5.81532,-4.32211 -6.68151,-4.65337 -0.71493,-0.2734 -0.9619,-0.09 -0.9619,0.71422 0,1.30489 -0.20945,1.33032 -1.88955,0.22948 -1.2669,-0.83011 -6.35532,-1.01362 -6.35532,-0.22921 0,0.19897 0.48819,0.80356 1.08486,1.34354 1.45175,1.31382 1.12528,3.2567 -0.58728,3.49499 -2.44889,0.34074 -2.23483,1.0368 0.42979,1.39751 1.45497,0.19697 4.12948,0.8267 5.94335,1.3994 3.77278,1.19121 10.30127,1.43712 14.67629,0.55282 z m -7.53074,-0.45478 c 1.20925,-0.25317 3.80638,-0.61058 5.7714,-0.79424 2.72423,-0.25463 3.32831,-0.19115 2.54348,0.26728 -0.56612,0.33067 -3.16325,0.68808 -5.77141,0.79424 -3.54519,0.1443 -4.18716,0.0768 -2.54347,-0.26728 z m -7.42038,-1.8122 c -1.3604,-0.29665 -2.7208,-0.79679 -3.02311,-1.11142 -0.37846,-0.39388 -0.0361,-0.46296 1.09931,-0.22179 1.51952,0.32277 1.55722,0.29598 0.48026,-0.34128 -0.64279,-0.38034 -1.87952,-1.54894 -2.74829,-2.59687 -1.32285,-1.59567 -1.37651,-1.76448 -0.33018,-1.03869 0.68717,0.47665 2.16551,1.70507 3.2852,2.72982 1.16167,1.06317 3.10333,2.13015 4.52201,2.48495 2.03279,0.50838 2.18548,0.62295 0.83723,0.62821 -0.90693,0.003 -2.76203,-0.23628 -4.12243,-0.53293 z m 42.49275,-0.03 c -0.0747,-1.58714 -0.33824,-3.59642 -0.58564,-4.46508 l -0.44983,-1.57937 -1.76545,2.01075 c -2.22504,2.53417 -2.29677,1.77157 -0.11648,-1.23823 1.79719,-2.48096 1.99747,-3.36647 0.98938,-4.37456 -2.00965,-2.00965 -4.97948,0.40722 -3.76791,3.06633 0.44095,0.96777 0.45807,1.56268 0.0565,1.96421 -0.40152,0.40152 -0.57597,0.23746 -0.57597,-0.54167 0,-1.82083 -0.65673,-1.95361 -2.22608,-0.45007 -1.23243,1.18074 -1.53252,1.27329 -1.80725,0.55736 -0.18119,-0.47214 -0.83188,-0.85846 -1.446,-0.85846 -0.9126,0 -1.11656,0.35639 -1.11656,1.9511 0,2.2274 1.21482,4.91024 2.43553,5.37866 1.08264,0.41545 1.67476,-0.57954 0.90025,-1.51277 -0.89312,-1.07614 -0.11186,-2.51904 1.36395,-2.51904 0.70629,0 1.64282,0.51204 2.08116,1.13787 0.58064,0.82897 0.87575,0.94088 1.08709,0.41224 0.15955,-0.39909 0.30962,-0.17686 0.33349,0.49385 0.0287,0.80559 0.30267,1.11998 0.80732,0.92633 0.42017,-0.16123 1.39831,0.34122 2.17365,1.11657 0.77534,0.77534 1.48957,1.40971 1.58717,1.40971 0.0976,0 0.11634,-1.29857 0.0416,-2.8857 z m -53.03897,0 c 0.25941,-1.36102 -1.36847,-1.2218 -2.11936,0.18125 -0.54512,1.01856 -0.47295,1.1234 0.66212,0.9619 0.70065,-0.0997 1.35641,-0.6141 1.45724,-1.14315 z m 58.54716,-0.97318 c -0.78806,-1.33409 -0.85324,-1.8644 -0.33177,-2.69941 0.77957,-1.2483 0.0116,-1.68657 -2.95526,-1.68657 -1.65526,0 -1.89309,0.16308 -1.74143,1.19409 0.15486,1.05281 4.39226,4.71904 5.56588,4.81565 0.24382,0.0201 0.002,-0.71062 -0.53742,-1.62376 z m -63.49053,-0.44399 c 0.11416,-0.77583 -0.115,-1.19367 -0.65464,-1.19367 -1.06886,0 -1.63095,0.92074 -1.2184,1.99583 0.4476,1.16642 1.65976,0.6473 1.87304,-0.80216 z m 3.84967,-1.37664 c 0.25721,-1.32622 -0.81835,-1.12912 -1.16967,0.21435 -0.1881,0.71927 -0.0614,1.05271 0.34813,0.91636 0.35411,-0.1179 0.7238,-0.62671 0.82154,-1.13071 z m 5.80374,0.4284 c 0.18246,-0.47548 -0.15686,-1.37395 -0.76568,-2.02745 -0.60134,-0.64545 -1.09334,-1.37427 -1.09334,-1.61957 0,-0.24531 -0.19435,-0.44602 -0.43188,-0.44602 -0.83317,0 -0.42548,2.19882 0.41225,2.22342 0.46426,0.0136 0.10555,0.33971 -0.79715,0.72459 -1.56032,0.66529 -1.58742,0.73101 -0.54965,1.33264 1.53513,0.88997 2.84109,0.81401 3.22545,-0.18761 z m 23.97488,-0.95196 c 2.64418,-0.9009 3.61383,-1.503 3.73072,-2.31659 0.16415,-1.14252 -0.20004,-1.16694 -12.66265,-0.84902 -0.52905,0.0135 -0.9619,0.27964 -0.9619,0.59144 0,0.90563 1.71613,1.3131 2.20422,0.52336 0.35297,-0.57112 0.63937,-0.52382 1.39326,0.23007 0.70825,0.70824 0.79061,1.10732 0.32471,1.57322 -0.4659,0.46589 -0.62425,0.44754 -0.62425,-0.0724 0,-0.44517 -0.39456,-0.5714 -1.09307,-0.3497 -0.76194,0.24183 -1.48871,-0.08 -2.39907,-1.06228 -1.24077,-1.3388 -3.55498,-2.03433 -2.82184,-0.84809 0.71363,1.15469 6.10045,3.8253 7.68812,3.81153 0.90694,-0.008 3.25673,-0.56207 5.22175,-1.23156 z m -35.73616,-0.25538 c -0.005,-0.22673 -0.22432,-0.75311 -0.4882,-1.16973 -0.61,-0.96307 -1.75749,-0.30148 -1.34437,0.7751 0.31445,0.81944 1.84799,1.14969 1.83257,0.39463 z m 3.74513,-1.56527 c 0.23013,-1.60275 -1.26177,-2.78367 -2.36256,-1.87008 -0.45347,0.37634 -0.82449,1.12805 -0.82449,1.67046 0,1.88504 2.91881,2.06785 3.18705,0.19962 z m 4.40473,-0.36484 c 0.25251,-1.31117 -0.57766,-1.20186 -1.44724,0.19056 -0.6312,1.01071 -0.59885,1.12363 0.27372,0.95559 0.54422,-0.10481 1.0723,-0.62058 1.17352,-1.14615 z m -1.82038,-0.40593 c 0.18684,-0.30231 -0.0459,-0.54966 -0.51722,-0.54966 -0.4713,0 -0.85692,0.24735 -0.85692,0.54966 0,0.30231 0.23275,0.54966 0.51722,0.54966 0.28447,0 0.67008,-0.24735 0.85692,-0.54966 z m 59.12985,-0.47181 c -0.30068,-0.56182 -1.19975,-1.44939 -1.99794,-1.97238 -1.06213,-0.69594 -1.38546,-1.29504 -1.2059,-2.2344 0.17476,-0.91415 -0.0467,-1.35989 -0.76969,-1.54894 -1.29782,-0.33939 -1.33727,-2.49851 -0.0532,-2.90891 0.52905,-0.16908 1.50174,-0.5652 2.16155,-0.88027 0.65981,-0.31507 1.56317,-0.43336 2.00748,-0.26286 1.62006,0.62167 1.37181,-0.34604 -0.57335,-2.23504 -2.01899,-1.96071 -5.69634,-3.27386 -6.92883,-2.47424 -0.35852,0.23261 -2.13594,0.42293 -3.94981,0.42293 -2.91039,0 -3.31696,0.13297 -3.4598,1.13153 -0.089,0.62233 0.38838,1.83104 1.06089,2.686 l 1.22276,1.55448 1.06118,-1.31186 c 2.80104,-3.46275 6.85949,-4.25989 9.56591,-1.87889 0.84822,0.74622 1.26331,1.36459 0.92244,1.37414 -0.34087,0.01 -0.92226,-0.3471 -1.29196,-0.79257 -1.93326,-2.32944 -6.58228,-1.24294 -8.48834,1.98376 -0.90005,1.52366 -0.89363,1.57447 0.19874,1.57447 0.62085,0 2.12545,-0.9004 3.34355,-2.00089 1.21811,-1.10048 2.32533,-1.8903 2.46049,-1.75514 0.13516,0.13516 -0.37499,1.15923 -1.13366,2.27572 -0.75867,1.11648 -1.19177,2.02996 -0.96245,2.02996 0.22932,0 -0.16444,0.40722 -0.87501,0.90492 l -1.29196,0.90493 1.25327,0.67072 c 0.6893,0.3689 1.77217,0.5586 2.40639,0.42154 0.71245,-0.15396 0.90986,-0.073 0.51658,0.21195 -0.35009,0.25361 -0.61084,1.36752 -0.57944,2.47533 0.0568,2.00445 0.0688,2.01421 2.46872,2.01421 1.3264,0 2.55592,0.14428 2.73226,0.32064 0.63195,0.63194 0.7161,0.30259 0.17908,-0.70084 z m -67.4889,-0.62223 c -0.22262,-0.8513 -0.60757,-1.02791 -1.73493,-0.79596 l -1.44883,0.29809 1.51156,-0.87057 c 0.83136,-0.47881 1.51156,-0.95807 1.51156,-1.06502 0,-0.73633 -1.7425,-3.30523 -2.69404,-3.97171 -1.4594,-1.02221 -1.45474,-2.05239 0.0201,-4.43875 l 1.17368,-1.89905 -1.23348,-1.18894 -1.23348,-1.18895 0.24747,1.84113 c 0.15289,1.13751 -0.13768,2.59658 -0.76032,3.81786 -0.77828,1.52655 -0.85232,2.07547 -0.32508,2.4103 0.37549,0.23846 0.4933,0.43736 0.26179,0.44199 -0.2315,0.004 0.38687,0.75455 1.37415,1.6665 l 1.79506,1.65808 -1.88046,1.62101 c -1.95402,1.68443 -1.85838,1.90011 1.05597,2.38139 2.56083,0.4229 2.65035,0.39568 2.35927,-0.7174 z m 2.85546,-0.54357 c 0.18297,-0.29607 0.0498,-1.06696 -0.29605,-1.7131 -0.54705,-1.02218 -0.7315,-1.07204 -1.41976,-0.38378 -0.43714,0.43714 -0.63273,1.20354 -0.43719,1.7131 0.38836,1.01206 1.62812,1.23305 2.153,0.38378 z m 52.72634,-2.62627 2.67924,-2.88973 -2.68987,1.24076 c -2.60093,1.19975 -3.22992,1.24076 -19.02625,1.24076 -16.26597,0 -16.3418,-0.006 -17.58904,-1.25165 -1.20885,-1.20787 -1.26498,-1.6972 -1.60517,-13.99327 l -0.35252,-12.74162 -1.57128,-1.3527 -1.57128,-1.35271 -0.27483,14.79632 c -0.23855,12.84306 -0.4047,15.03411 -1.2586,16.5977 l -0.98377,1.80138 19.88348,-0.051 c 13.54639,-0.0347 20.07233,0.13785 20.47601,0.54153 0.77353,0.77353 0.76239,0.78094 3.88388,-2.58579 z m -49.25648,1.40566 c 0.62626,-0.62626 0.93942,-2.63836 0.41062,-2.63836 -0.85185,0 -3.04898,1.38388 -3.04898,1.92043 0,1.42206 1.52048,1.83581 2.63836,0.71793 z m 2.85822,-0.43973 c 0,-0.30231 -0.24735,-0.54965 -0.54966,-0.54965 -0.30231,0 -0.54966,0.24734 -0.54966,0.54965 0,0.30232 0.24735,0.54966 0.54966,0.54966 0.30231,0 0.54966,-0.24734 0.54966,-0.54966 z m 1.34131,-1.85894 c -0.41016,-1.63418 -1.34131,-1.94631 -1.34131,-0.44962 0,0.96266 1.09912,2.49198 1.50166,2.08943 0.11045,-0.11044 0.0383,-0.84835 -0.16035,-1.63981 z m -9.27438,-3.46468 c -0.26222,-0.68334 -0.4824,-0.71562 -1.14278,-0.16755 -1.09305,0.90715 -1.03354,2.01661 0.14391,2.68298 0.76576,0.43337 0.99879,0.3187 1.14279,-0.56232 0.0995,-0.60868 0.0347,-1.48758 -0.14392,-1.95311 z m 4.39062,1.93015 c 0.48302,-1.52189 -1.17997,-2.97369 -2.32127,-2.02648 -0.77527,0.64341 -0.9799,2.24072 -0.36573,2.85488 0.78399,0.784 2.32614,0.30855 2.687,-0.8284 z m 6.19226,-2.85544 c -0.14453,-3.31947 -0.32512,-3.9969 -1.00084,-3.75441 -0.57933,0.20792 -0.49761,-0.0864 0.27483,-0.9899 l 1.09932,-1.2858 -1.83244,1.33001 c -2.77075,2.01105 -6.92343,1.87009 -10.0706,-0.34182 -3.00862,-2.11454 -4.84061,-5.28277 -4.85248,-8.39186 -0.005,-1.30267 0.21718,-2.22867 0.49367,-2.05779 0.27649,0.17088 0.61375,-3e-5 0.74946,-0.37981 0.13571,-0.37977 0.4728,0.41728 0.74908,1.77122 0.69895,3.42526 3.19334,5.12829 7.0681,4.82571 1.51156,-0.11803 3.24298,-0.40394 3.8476,-0.63536 1.07951,-0.41316 1.08024,-0.40518 0.0401,0.44293 -0.58256,0.47503 -0.88918,1.03369 -0.68139,1.24148 0.42182,0.42182 2.03811,-1.53399 1.70847,-2.06736 -0.1152,-0.1864 0.40143,-0.22213 1.14806,-0.0794 0.85,0.16249 1.35751,0.006 1.35751,-0.41834 0,-0.40723 -0.43888,-0.56307 -1.09932,-0.39036 -1.17136,0.30631 -1.50704,-0.39206 -0.49044,-1.02035 0.38541,-0.2382 0.47704,-1.2007 0.24966,-2.62267 -0.44133,-2.75993 0.25083,-2.26749 0.83208,0.59198 l 0.42022,2.06729 -0.0935,-2.47346 c -0.0667,-1.76476 -0.32975,-2.48786 -0.918,-2.52373 -0.45347,-0.0276 -1.54317,-0.24962 -2.42156,-0.49329 -1.96663,-0.54554 -3.21211,0.80189 -2.74389,2.96848 0.23962,1.10882 0.17824,1.24079 -0.27825,0.5982 -0.363,-0.51099 -0.5889,-0.5749 -0.59411,-0.16807 -0.014,1.08897 2.51904,3.71834 2.93448,3.04614 0.20604,-0.33338 -0.12134,-0.75656 -0.73629,-0.95174 -0.60901,-0.19329 -1.1073,-0.59082 -1.1073,-0.8834 0,-0.31676 0.46376,-0.28376 1.1464,0.0816 0.63051,0.33744 1.26752,0.4924 1.41556,0.34435 0.14805,-0.14805 -0.21745,-0.42362 -0.81221,-0.61239 -1.27761,-0.4055 -1.81141,-1.98225 -1.1009,-3.25186 0.70284,-1.2559 1.8806,-1.126 2.89276,0.31906 1.17668,1.67994 1.07358,2.86098 -0.39921,4.57321 -2.29975,2.67361 -8.85503,2.37917 -10.3778,-0.46615 -0.82872,-1.54847 -0.60968,-7.84173 0.33663,-9.67168 0.42975,-0.83106 1.74374,-2.38046 2.91997,-3.44311 1.89732,-1.71411 2.58996,-1.97404 6.13947,-2.30393 4.53541,-0.42152 6.2343,0.26776 9.31891,3.78094 2.45065,2.79113 3.14015,5.55789 2.04078,8.18904 -1.15711,2.76938 -1.11439,2.93081 0.39927,1.50879 1.2787,-1.20127 2.02044,-1.10008 2.02044,0.27566 0,0.40308 -0.44522,0.73287 -0.98938,0.73287 -1.42772,0 -2.30856,1.09057 -2.30856,2.85822 0,1.82399 0.19307,1.86781 2.13547,0.4847 2.43804,-1.73604 9.67922,-4.99186 11.10333,-4.99234 1.65312,-5.5e-4 6.3144,-1.73597 6.60691,-2.45977 0.11923,-0.29503 -0.48048,-0.78164 -1.3327,-1.08135 -1.16282,-0.40894 -2.18656,-0.31583 -4.10249,0.37314 -3.5684,1.28319 -3.58615,0.77212 -0.0207,-0.59767 1.60844,-0.61794 2.62091,-1.13643 2.24992,-1.15218 -1.16792,-0.0496 -8.05279,2.70037 -9.6221,3.84326 -1.50069,1.09292 -1.50313,1.09291 -2.61087,-0.0148 -0.672,-0.672 -1.10878,-1.8364 -1.10878,-2.95588 0,-1.92282 -1.88579,-5.21462 -4.02252,-7.02164 -0.65957,-0.5578 -2.49779,-1.66402 -4.08493,-2.45828 -1.58713,-0.79426 -2.8857,-1.62847 -2.8857,-1.85381 0,-0.42678 -6.65089,-3.85855 -7.47801,-3.85855 -0.25981,0 0.4291,0.61257 1.53092,1.36127 2.23386,1.51795 2.34658,3.2599 0.25375,3.92136 -0.64756,0.20466 -1.91942,0.93563 -2.82635,1.62438 -2.48136,1.88439 -4.48177,2.21977 -5.90939,0.99075 l -1.19301,-1.02704 0.94033,1.49221 c 1.27076,2.0166 1.1781,3.50056 -0.42166,6.75265 -1.70217,3.46027 -1.72259,5.86 -0.0795,9.34418 1.65842,3.51674 3.44872,5.13979 6.99292,6.33962 2.70215,0.91477 3.82129,0.8706 6.58727,-0.25995 0.65061,-0.26592 0.85901,-0.0373 0.82449,0.90465 -0.0269,0.73297 0.24135,1.20303 0.64087,1.12312 0.47637,-0.0953 0.68707,0.7054 0.68707,2.61088 0,1.51156 0.1412,2.74828 0.31377,2.74828 0.17257,0 0.23441,-1.82263 0.13741,-4.05028 z M 239.7495,165.6218 c 0.005,-0.22674 0.24818,-0.78327 0.54124,-1.23673 0.43086,-0.66672 0.53443,-0.58783 0.54124,0.41224 0.005,0.6802 -0.23893,1.23673 -0.54124,1.23673 -0.30232,0 -0.54587,-0.18551 -0.54124,-0.41224 z m 23.22156,-4.94219 c -0.67637,-1.31838 -0.9838,-2.24504 -0.68316,-2.05923 0.71707,0.44317 2.30309,3.52462 2.08374,4.04844 -0.0939,0.22432 -0.7242,-0.67082 -1.40058,-1.98921 z m -21.03135,-1.51629 c 0,-0.45347 0.23958,-0.82449 0.5324,-0.82449 0.29283,0 0.39004,0.37102 0.21603,0.82449 -0.17402,0.45347 -0.4136,0.82449 -0.53241,0.82449 -0.11881,0 -0.21602,-0.37102 -0.21602,-0.82449 z m 9.01858,-5.85354 c -0.49794,-0.80569 0.75222,-0.95305 1.75618,-0.20701 0.99832,0.74185 0.98826,0.77119 -0.23565,0.68676 -0.70319,-0.0485 -1.38743,-0.26439 -1.52053,-0.47975 z m 16.05017,32.09969 c 0.40161,-0.52905 0.73806,-1.31345 0.74767,-1.74311 0.01,-0.42966 0.42821,-1.23505 0.93021,-1.78976 0.89825,-0.99255 0.73169,-1.95323 -0.23507,-1.35575 -1.06676,0.6593 -3.51047,4.71941 -3.17106,5.26858 0.50303,0.81393 0.88585,0.72976 1.72825,-0.37996 z m 4.93575,-0.40845 c 0.19452,-0.77503 0.61694,-1.23441 0.97237,-1.05743 0.34564,0.17209 0.0317,-0.21102 -0.6977,-0.85137 -1.48309,-1.30209 -3.14799,-1.26498 -2.92645,0.0652 0.0796,0.47775 -0.22962,1.17928 -0.68707,1.55893 -1.3319,1.10538 -0.97271,1.655 1.08158,1.655 1.58106,0 1.97306,-0.23798 2.25727,-1.37035 z m 5.37698,0.57863 c -0.94622,-0.41179 -1.88836,-1.02047 -2.09365,-1.35263 -0.59145,-0.95699 -1.18195,-0.71212 -1.85734,0.7702 l -0.6261,1.37415 3.14875,-0.0215 c 3.1389,-0.0214 3.14337,-0.0239 1.42834,-0.77021 z m 11.57246,-0.59185 c 1.92932,-1.78803 1.65175,-2.96428 -1.0622,-4.50134 -2.73849,-1.55095 -3.56811,-1.57623 -3.56811,-0.10872 0,1.619 -1.52279,4.00985 -3.22803,5.06816 -1.41866,0.88045 -1.37538,0.89647 2.46069,0.91084 3.42143,0.0128 4.08955,-0.15663 5.39765,-1.36894 z m 7.46215,0.86759 c 0,-0.81118 -4.5089,-1.27584 -6.18364,-0.63725 -0.83136,0.31699 -1.51156,0.70616 -1.51156,0.86479 0,0.15864 1.73142,0.28844 3.8476,0.28844 2.11618,0 3.8476,-0.23219 3.8476,-0.51598 z m -42.97247,-2.13795 c 0.1306,-0.88756 -0.10775,-1.19368 -0.92946,-1.19368 -1.44664,0 -1.98806,0.93808 -1.13481,1.96619 0.89256,1.07547 1.84479,0.71912 2.06427,-0.77251 z m 14.12544,-3.17456 c 0.75029,-0.49161 1.36416,-1.31696 1.36416,-1.83412 0,-0.51716 0.59503,-1.49929 1.32228,-2.18251 1.09853,-1.03201 1.51871,-1.1371 2.48303,-0.621 0.91137,0.48774 1.42116,0.43881 2.3728,-0.22774 1.54177,-1.0799 2.55654,-1.07351 3.76896,0.0237 0.53036,0.47996 1.39024,0.78914 1.91086,0.68707 1.48735,-0.29162 -1.58579,-3.60224 -3.94974,-4.25496 -2.45088,-0.67669 -7.21911,0.49008 -10.65648,2.60762 -2.24963,1.38586 -2.47465,1.7199 -2.48663,3.69139 -0.007,1.1922 -0.22526,2.61627 -0.4845,3.1646 -0.29063,0.61474 -0.21264,1.563 0.20344,2.47345 l 0.67477,1.47651 1.05645,-2.05509 c 0.58104,-1.1303 1.67032,-2.45731 2.4206,-2.94891 z m 14.41562,3.49244 c 1.68639,-1.8126 2.04945,-4.6867 0.94175,-7.45512 -1.15887,-2.89632 -6.90075,-8.1789 -6.83288,-6.28632 0.008,0.22674 1.01484,1.02945 2.23712,1.7838 3.04836,1.88134 4.34399,4.15563 4.34399,7.62526 0,2.08795 -0.28562,3.10644 -1.09932,3.92014 -1.95669,1.95669 -4.86555,1.06583 -6.28466,-1.92474 -1.19033,-2.50842 -0.77562,-4.38381 1.20731,-5.45973 1.99084,-1.08022 1.08875,-1.09995 -0.99618,-0.0218 -0.89192,0.46121 -1.62167,1.10639 -1.62167,1.43371 0,0.35862 -0.54026,0.45953 -1.35951,0.25391 -1.09119,-0.27387 -1.29319,-0.1684 -1.02351,0.53436 0.20234,0.52729 0.74312,0.7691 1.3595,0.60792 0.77641,-0.20304 1.02352,0.0338 1.02352,0.9809 0,0.68671 0.52885,1.92089 1.17523,2.74262 2.10402,2.67483 5.10754,3.22317 6.92931,1.26506 z m -39.64075,-1.25486 c -0.17019,-0.4435 -0.56454,-0.80635 -0.87634,-0.80635 -0.80927,0 -0.70374,2.05959 0.12017,2.3452 0.82706,0.28672 1.18061,-0.43278 0.75617,-1.53885 z m 68.22214,0.84262 c 0.17159,-0.62928 0.10689,-0.6574 -0.27322,-0.1188 -0.29565,0.41893 -0.9077,0.54849 -1.50616,0.31884 -0.71757,-0.27536 -0.88816,-0.19275 -0.59188,0.28664 0.54479,0.88149 2.08437,0.56551 2.37126,-0.48668 z m -17.44792,0.0588 c 0,-0.26997 -0.39125,-0.64099 -0.86944,-0.82449 -1.22852,-0.47143 -1.32919,-0.43425 -1.32919,0.49085 0,0.45805 0.48858,0.82449 1.09931,0.82449 0.60463,0 1.09932,-0.22089 1.09932,-0.49085 z m 2.33262,0.12568 c -0.37977,-0.15311 -0.55835,-0.49219 -0.39685,-0.75352 0.38124,-0.61686 -1.65596,-1.71304 -2.22645,-1.19802 -0.23938,0.2161 -0.25905,0.0866 -0.0437,-0.28787 0.27125,-0.47166 0.0873,-0.58236 -0.59894,-0.36039 -0.57248,0.18518 -0.75849,0.12453 -0.4408,-0.14371 0.30231,-0.25525 0.62438,-1.08246 0.7157,-1.83824 0.0913,-0.75578 0.30303,-2.30398 0.47046,-3.44045 0.25069,-1.7016 0.15607,-2.00938 -0.53613,-1.74376 -0.53215,0.20421 -1.08686,-0.14684 -1.51189,-0.95681 -0.36924,-0.70365 -1.40741,-2.21831 -2.30705,-3.36592 -2.11582,-2.69902 -1.62491,-3.2205 0.62231,-0.66106 0.94713,1.07876 1.72209,1.69691 1.72209,1.37365 0,-0.85368 -7.14382,-7.86455 -9.81474,-9.63208 -1.25275,-0.82903 -2.27773,-1.74793 -2.27773,-2.04201 0,-0.29407 -0.63109,-1.2847 -1.40244,-2.20139 -1.56704,-1.86233 -1.62743,-4.03277 -0.10885,-3.91222 0.5289,0.042 0.96164,-0.12892 0.96164,-0.3798 0,-0.91769 -0.94965,-1.00419 -2.10906,-0.19211 -1.22279,0.85648 -1.61598,3.18985 -0.63923,3.79352 0.30231,0.18683 0.54966,0.71072 0.54966,1.16419 0,0.45347 -0.22659,0.68444 -0.50354,0.51328 -0.61466,-0.37988 -3.34992,0.60163 -3.32915,1.19462 0.008,0.23422 1.94338,1.33825 4.30038,2.45341 4.8776,2.30771 9.20163,5.93803 10.77306,9.04472 0.58965,1.16572 1.37488,2.49052 1.74495,2.94399 0.37008,0.45346 1.03291,2.38549 1.47296,4.29339 0.73344,3.17997 0.72544,3.4405 -0.096,3.12796 -1.20474,-0.45838 -0.33508,0.3126 2.39206,2.12065 1.20385,0.79813 2.44058,1.43162 2.74829,1.40775 0.30771,-0.0239 0.24875,-0.16866 -0.13102,-0.32177 z m 0.95326,-2.28287 c -0.92487,-1.7744 -1.03853,-2.46219 -0.55591,-3.36397 0.48433,-0.90498 0.44442,-1.13354 -0.19791,-1.13354 -0.94457,0 -2.53206,1.46234 -2.53206,2.33245 0,0.55453 3.91084,4.63095 4.28544,4.46687 0.0897,-0.0392 -0.36015,-1.07508 -0.99956,-2.30181 z m -14.84803,1.0352 c 0.98979,-1.84943 0.71201,-3.88374 -0.53032,-3.88374 -0.60462,0 -1.09931,0.33766 -1.09931,0.75036 0,0.4127 -0.49469,1.37926 -1.09932,2.14791 -1.4498,1.84313 -1.39659,2.04865 0.53032,2.04865 1.04862,0 1.8325,-0.37906 2.19863,-1.06318 z m -34.92887,0.17989 c 1.34793,-0.51725 1.02648,-1.70641 -0.56956,-2.10699 -1.80595,-0.45326 -2.11125,-0.15717 -1.33448,1.29423 0.68372,1.27754 0.68803,1.27938 1.90404,0.81276 z m 31.9641,-1.57256 c 0.48886,-0.74609 0.76143,-1.67363 0.60572,-2.06121 -0.18096,-0.45043 -0.29877,-0.36534 -0.3265,0.2358 -0.0239,0.51727 -0.58473,1.44482 -1.24636,2.06122 -0.66162,0.6164 -0.91467,1.12072 -0.56232,1.12072 0.35234,0 1.0406,-0.61043 1.52946,-1.35653 z m -34.94226,-0.56727 c 0,-0.85502 -0.31147,-1.37414 -0.82449,-1.37414 -0.88712,0 -1.01864,0.50343 -0.49085,1.87884 0.5135,1.33814 1.31534,1.03047 1.31534,-0.5047 z m 8.47474,1.04051 c 1.37633,-0.52814 1.01054,-1.18987 -0.4983,-0.90143 -0.75225,0.1438 -1.23235,0.48052 -1.06687,0.74826 0.35706,0.57775 0.43807,0.58568 1.56517,0.15317 z m 19.83262,-0.21602 c -0.18683,-0.30231 0.0459,-0.54966 0.51722,-0.54966 0.47131,0 0.85693,-0.24734 0.85693,-0.54966 0,-0.72754 -0.73054,-0.69857 -1.48812,0.059 -0.44512,0.44511 -0.77688,0.29437 -1.23467,-0.56102 -0.7288,-1.36179 -0.37852,-2.1355 1.26747,-2.79962 l 1.18049,-0.4763 -1.21739,-0.0349 c -1.34224,-0.0384 -2.63266,1.7879 -2.02237,2.86222 0.51932,0.91417 1.98329,2.59952 2.25807,2.59952 0.12215,0 0.0692,-0.24735 -0.11763,-0.54966 z m 5.75207,-1.06318 c 0.80599,-1.50601 0.73016,-1.68511 -0.71354,-1.68511 -1.62852,0 -1.9648,0.34962 -1.61669,1.6808 0.35836,1.37037 1.59791,1.37265 2.33023,0.004 z m -26.08939,-1.68511 c 0.19266,-0.31174 -0.26913,-0.54966 -1.06688,-0.54966 -0.77362,0 -1.40658,0.24735 -1.40658,0.54966 0,0.30231 0.48009,0.54966 1.06687,0.54966 0.58678,0 1.21975,-0.24735 1.40659,-0.54966 z m 37.95058,-1.51156 c -0.20513,-1.13366 -0.9562,-2.95551 -1.66905,-4.04855 -1.16124,-1.78055 -1.60063,-2.01725 -4.22289,-2.27489 -3.60722,-0.35441 -4.13953,-0.0768 -2.75101,1.43452 0.59561,0.6483 1.59273,2.03018 2.21581,3.07082 0.73968,1.2354 1.95204,2.21717 3.49307,2.82872 3.30102,1.30997 3.35085,1.29281 2.93407,-1.01062 z m -41.52336,1.29554 c 0,-0.11881 -0.37102,-0.35839 -0.82448,-0.53241 -0.45347,-0.17401 -0.82449,-0.0768 -0.82449,0.21602 0,0.29283 0.37102,0.53241 0.82449,0.53241 0.45346,0 0.82448,-0.0972 0.82448,-0.21602 z m 30.58502,-1.31978 c -0.56115,-0.11895 -1.26011,0.0236 -1.55323,0.31668 -0.34416,0.34417 0.0173,0.42077 1.02029,0.21627 1.15041,-0.23455 1.28862,-0.37277 0.53294,-0.53295 z m 3.34488,0.65406 c -0.18264,-0.18265 -0.65672,-0.20217 -1.05351,-0.0434 -0.43848,0.17546 -0.30823,0.30571 0.33209,0.33208 0.57943,0.0239 0.90407,-0.10604 0.72142,-0.28869 z m -35.57887,-2.24048 c 0,-1.58363 -1.43438,-1.59709 -2.41455,-0.0226 -0.46634,0.7491 -0.42753,1.09046 0.16607,1.4607 1.19032,0.74241 2.24848,0.0657 2.24848,-1.43805 z m 3.8476,0.0403 c 0,-1.46271 -0.92841,-1.68859 -2.42936,-0.59107 -0.91798,0.67125 -0.92451,0.79026 -0.0891,1.62562 1.17856,1.17857 2.51851,0.62815 2.51851,-1.03454 z m 2.94706,1.15813 c -0.35045,-0.91326 -1.07514,-1.08024 -1.52553,-0.35149 -0.36758,0.59476 0.18908,1.17598 1.12629,1.17598 0.41029,0 0.58063,-0.35179 0.39924,-0.82449 z m 50.19554,-0.92755 c -0.17546,-0.43847 -0.30571,-0.30823 -0.33208,0.33209 -0.0239,0.57943 0.10604,0.90407 0.28869,0.72143 0.18265,-0.18266 0.20217,-0.65674 0.0434,-1.05352 z m 6.77007,0.0858 c 0,-1.22852 -1.19334,-1.92418 -2.46419,-1.43651 -1.00633,0.38617 -0.51923,1.85377 0.7246,2.18319 1.63112,0.43199 1.73959,0.38543 1.73959,-0.74668 z m -54.41609,-1.3569 c 0,-1.53213 -1.13516,-1.83106 -2.17865,-0.57373 -0.83132,1.00168 -0.29127,1.94787 1.11177,1.94787 0.77156,0 1.06688,-0.38036 1.06688,-1.37414 z m 13.20741,-2.43373 c 1.3518,-0.6132 2.8847,-1.12033 3.40644,-1.12697 0.52174,-0.007 1.75847,-0.52964 2.74829,-1.16223 l 1.79967,-1.15016 -1.64897,0.33991 c -2.53726,0.52301 -10.36667,4.50307 -11.56946,5.8813 -0.91641,1.05009 -0.79015,1.0182 0.86677,-0.21891 1.06669,-0.79643 3.04545,-1.94976 4.39726,-2.56294 z m 28.31924,1.86642 c -0.3671,-1.06781 -0.95631,-2.23033 -1.30938,-2.58339 -1.31578,-1.31578 -0.0227,-4.81848 1.77931,-4.81976 0.33103,-2.4e-4 1.57435,-0.86595 2.76294,-1.9238 2.44256,-2.17391 2.66604,-2.2395 3.79252,-1.11302 0.71404,0.71405 0.84937,0.7087 1.13858,-0.045 0.18051,-0.47042 0.32821,-1.22261 0.32821,-1.67152 0,-0.44891 0.63019,-1.64242 1.40042,-2.65224 0.77022,-1.00982 1.54604,-2.78657 1.72403,-3.94834 l 0.32364,-2.11231 -1.72404,1.61439 c -1.10123,1.03119 -1.72405,2.14617 -1.72405,3.08641 0,3.06154 -3.56182,5.53378 -5.369,3.7266 -0.48949,-0.48949 -1.15145,-0.4893 -2.78732,8.2e-4 l -2.14536,0.64277 -0.382,4.37917 c -0.21011,2.40855 -0.21393,5.5 -0.009,6.8699 0.31683,2.11283 0.56269,2.49073 1.62047,2.49073 1.18679,0 1.21476,-0.0937 0.57952,-1.94146 z m 5.19424,1.09972 c 0,-0.46296 -0.38765,-0.99049 -0.86144,-1.1723 -1.03375,-0.39669 -2.16106,0.57601 -1.64162,1.41649 0.55994,0.906 2.50306,0.71644 2.50306,-0.24419 z m -58.2637,-1.32747 c 0,-0.22145 -0.61484,-0.68277 -1.3663,-1.02515 -0.75147,-0.34239 -1.73767,-1.43332 -2.19155,-2.42428 l -0.82526,-1.80174 0.30879,1.9238 c 0.50466,3.14416 0.78,3.76624 1.7641,3.98565 1.11175,0.24789 2.31022,-0.0936 2.31022,-0.65828 z m 61.56164,-1.71326 c 0,-1.7493 -0.59055,-2.3245 -1.87894,-1.83009 -1.39455,0.53513 -1.76648,2.99976 -0.58325,3.86496 1.3288,0.97165 2.46219,0.035 2.46219,-2.03487 z m -6.36185,1.31709 c 0.19341,-0.50402 0.13519,-1.13286 -0.12938,-1.39744 -0.61462,-0.61462 -1.97181,0.96648 -1.49368,1.74011 0.52305,0.84632 1.22356,0.69843 1.62306,-0.34267 z m -5.35389,-0.0455 c -0.47592,-0.82502 0.71546,-13.02334 1.55353,-15.9062 0.65918,-2.26748 1.27482,-3.21417 2.62592,-4.03799 1.94125,-1.18363 1.7875,-1.37507 -0.42788,-0.53278 -1.73395,0.65925 -3.30541,3.97439 -3.85358,8.12948 -0.32692,2.478 -0.53056,2.85878 -1.384,2.5879 -1.03311,-0.32789 -2.03348,1.39366 -1.40281,2.41411 0.16893,0.27334 -0.0731,0.64291 -0.53788,0.82125 -0.65838,0.25265 -0.71653,0.56437 -0.26329,1.41127 0.90777,1.69619 2.12998,0.76261 2.36347,-1.80533 0.17631,-1.9391 0.22274,-1.8086 0.30411,0.85481 0.0753,2.46315 -0.067,3.08071 -0.65753,2.85411 -0.83324,-0.31974 -1.55195,0.95937 -0.98197,1.74766 0.31691,0.4383 2.26632,1.75341 2.72987,1.84163 0.0934,0.0178 0.0628,-0.15319 -0.068,-0.37992 z m -45.07696,-1.15635 c 1.00381,0.83309 0.91719,-0.0592 -0.11665,-1.20157 -0.46435,-0.5131 -0.92155,-1.7941 -1.016,-2.84667 -0.0945,-1.05256 -0.33517,-2.1782 -0.53493,-2.50142 -0.55232,-0.89369 3.3013,-1.94625 5.86609,-1.60223 1.46727,0.1968 1.96804,0.12669 1.44747,-0.20264 -1.69607,-1.07302 -6.74008,-0.24549 -8.66906,1.42226 -0.0979,0.0846 0.23746,0.95715 0.74518,1.93897 0.60554,1.17099 0.81545,2.44868 0.61014,3.71383 -0.23426,1.44361 -0.15539,1.77111 0.31357,1.30215 0.45649,-0.45649 0.82406,-0.46265 1.35419,-0.0226 z m 59.184,-0.33929 c 0.17066,-0.44472 -0.0797,-1.19854 -0.55629,-1.67515 -1.09446,-1.09446 -1.26039,-0.91481 -0.89791,0.97217 0.3179,1.65487 0.96828,1.96927 1.4542,0.70298 z m 2.23584,0.47494 c 0.47819,-0.18349 0.86944,-0.94367 0.86944,-1.68927 0,-1.94699 -1.86644,-1.48784 -2.09773,0.51605 -0.18623,1.61352 -0.10967,1.68665 1.22829,1.17322 z m -63.99015,-2.311 c 0,-1.36865 -0.4003,-2.52466 -1.15458,-3.33429 -0.63503,-0.68161 -1.06788,-1.31042 -0.96191,-1.39735 0.10598,-0.0869 1.32748,-0.81261 2.71444,-1.61263 2.64469,-1.5255 4.97309,-1.81702 7.3363,-0.91853 1.26581,0.48126 1.40993,0.40389 1.40993,-0.75697 0,-1.21042 -0.1606,-1.27492 -2.514,-1.00966 -2.3724,0.26741 -2.60837,0.16888 -4.1895,-1.7493 l -1.67549,-2.03266 -1.35931,1.26954 c -1.99527,1.8635 -2.70825,3.5985 -3.10385,7.55303 -0.31509,3.14979 -0.22313,3.67414 0.84348,4.80951 1.78447,1.89947 2.65449,1.63048 2.65449,-0.82069 z m 52.36392,0.666 c 0.42878,-0.42879 -0.72727,-2.96828 -1.35125,-2.96828 -0.68463,0 -1.16762,1.50259 -0.79506,2.47346 0.31807,0.82888 1.53231,1.10882 2.14631,0.49482 z m -19.38447,-0.73721 c 0,-0.28447 -0.24734,-0.67009 -0.54966,-0.85692 -0.30231,-0.18684 -0.54965,0.0459 -0.54965,0.51721 0,0.47131 0.24734,0.85693 0.54965,0.85693 0.30232,0 0.54966,-0.23275 0.54966,-0.51722 z m 23.38989,-0.25819 c 0.42648,-0.42648 1.07097,-0.87393 1.4322,-0.99434 0.96685,-0.32228 0.02,-1.5282 -1.19991,-1.5282 -1.14318,0 -2.18311,1.5163 -1.79063,2.61088 0.31612,0.88162 0.60474,0.86526 1.55834,-0.0883 z m -17.39044,-1.19819 c -0.64326,-0.68472 -1.45241,-1.15979 -1.79812,-1.05572 -0.3457,0.10407 -1.30876,0.33826 -2.14011,0.52042 -3.17282,0.69523 -1.17666,1.76658 3.30967,1.77633 l 1.79812,0.004 -1.16956,-1.24493 z m -1.34996,0.28806 c -0.19927,-0.32243 -0.24442,-0.70411 -0.10034,-0.84819 0.14408,-0.14409 0.40843,0.11972 0.58744,0.58622 0.37167,0.96856 0.0549,1.13892 -0.4871,0.26197 z m -31.04147,-0.10085 c -0.0156,-1.27742 -0.96854,-2.22578 -1.88361,-1.87463 -0.72033,0.27641 -0.78342,0.57145 -0.31097,1.45423 0.65077,1.21597 2.20798,1.51427 2.19458,0.4204 z m 47.95507,-1.9238 c 0.40395,-0.49755 0.30707,-0.68707 -0.35122,-0.68707 -1.11816,0 -1.68549,1.31888 -1.12311,2.61087 0.38175,0.87701 0.44066,0.86488 0.66761,-0.13741 0.1369,-0.60463 0.49993,-1.4085 0.80672,-1.78639 z m 6.93577,0.34963 c -0.86908,-0.55016 -1.695,-0.3738 -1.95903,0.4183 -0.103,0.30899 0.37624,0.81658 1.06496,1.12797 0.98407,0.44493 1.29324,0.39022 1.44373,-0.25546 0.10532,-0.4519 -0.14202,-1.03277 -0.54966,-1.29081 z m 2.06439,-0.88784 c -0.55874,-0.55873 -1.01975,0.28247 -0.56132,1.02423 0.3463,0.56033 0.47577,0.56076 0.66195,0.002 0.1273,-0.3819 0.082,-0.8438 -0.10063,-1.02644 z m -47.03585,-2.48491 c -0.40594,-1.00992 -0.4971,-0.78312 -0.4971,1.23673 0,2.01986 0.0912,2.24666 0.4971,1.23673 0.29637,-0.73732 0.29637,-1.73613 0,-2.47346 z m 42.30651,2.33605 c 0,-0.30231 -0.43286,-0.54587 -0.96191,-0.54124 -0.82204,0.007 -0.84202,0.0859 -0.13741,0.54124 1.03732,0.67037 1.09932,0.67037 1.09932,0 z m -36.2774,-0.56691 c 0,-0.70847 -1.56602,-1.34824 -2.06901,-0.84525 -0.20494,0.20494 -0.009,0.60273 0.43595,0.88397 1.064,0.6729 1.63306,0.6594 1.63306,-0.0387 z m 21.18442,-0.0193 c 0.50587,-0.81852 -0.0807,-1.26355 -1.13305,-0.8597 -0.48567,0.18636 -0.72908,0.58794 -0.54093,0.89239 0.44554,0.72089 1.21755,0.70582 1.67398,-0.0327 z m 13.444,-1.12155 c 0,-0.26997 -0.37102,-0.49085 -0.82448,-0.49085 -0.45347,0 -0.82449,0.36326 -0.82449,0.80723 0,0.49172 0.32226,0.68358 0.82449,0.49085 0.45346,-0.17401 0.82448,-0.53726 0.82448,-0.80723 z m 3.48908,0.539 c 0.46473,0.38569 0.59466,-0.0849 0.48693,-1.76345 -0.17066,-2.65908 1.54024,-5.33863 2.7604,-4.32326 0.53517,0.44534 0.64355,-0.10857 0.49819,-2.54615 -0.20364,-3.41483 -1.07843,-5.18277 -1.07843,-2.17948 0,1.06185 -0.8553,3.54854 -1.97877,5.75302 -1.08832,2.13553 -1.95924,4.34864 -1.93537,4.91802 0.0259,0.61925 0.15787,0.74994 0.32828,0.32524 0.18797,-0.46847 0.50053,-0.53105 0.91877,-0.18394 z m -35.91887,-0.90755 c 0,-0.53736 0.36746,-1.50164 0.81659,-2.14285 0.68774,-0.9819 0.69622,-1.21203 0.0537,-1.45858 -1.00441,-0.38542 -1.41998,0.0871 -1.41998,1.6145 0,0.68755 -0.24735,1.40296 -0.54966,1.5898 -0.83072,0.51342 -0.65858,1.37414 0.27483,1.37414 0.45347,0 0.82449,-0.43965 0.82449,-0.97701 z m 3.67954,-0.90083 1.5422,-1.32818 -1.59708,-0.40184 c -1.22758,-0.30887 -1.76804,-0.16804 -2.33604,0.60875 -1.82722,2.49887 -0.13186,3.29395 2.39092,1.12127 z m -5.42942,-0.72833 c -0.1956,-1.69466 -1.90056,-2.3948 -2.43571,-1.00022 -0.3934,1.02518 0.67997,2.50708 1.81594,2.50708 0.54111,0 0.73834,-0.47955 0.61977,-1.50686 z m 21.53755,0.68237 c 0.75578,-0.43204 1.142,-0.79429 0.85826,-0.80501 -0.28374,-0.0107 0.0255,-0.5238 0.68707,-1.1402 1.62951,-1.51812 1.61016,-2.96422 -0.0337,-2.52366 -0.6802,0.18229 -1.43684,0.33481 -1.68141,0.33894 -0.24458,0.004 -0.32376,0.20315 -0.17597,0.44229 0.14779,0.23913 -0.55044,0.33915 -1.55161,0.22227 -1.00118,-0.11688 -1.98551,0.0548 -2.1874,0.38142 -0.24654,0.3989 0.22853,0.50112 1.44663,0.31129 l 1.81369,-0.28265 -1.9238,0.9602 c -1.05809,0.52811 -2.02089,1.02407 -2.13954,1.10213 -0.11866,0.0781 0.0971,0.51893 0.47954,0.9797 0.86273,1.03953 2.60389,1.04477 4.40829,0.0133 z m 13.77337,-3.63244 c 0.33374,-0.62359 0.46308,-1.27751 0.28743,-1.45316 -0.17565,-0.17565 -0.31936,-0.0308 -0.31936,0.3219 0,0.3527 -0.50036,1.14163 -1.11192,1.75318 -0.88314,0.88315 -1.33549,0.99226 -2.19863,0.53032 -0.59769,-0.31987 -1.08671,-0.98513 -1.08671,-1.47835 0,-0.49321 -0.14626,-0.7505 -0.32502,-0.57174 -0.17875,0.17876 -0.16713,0.82245 0.0258,1.43042 0.65385,2.06009 3.5132,1.73803 4.72839,-0.53257 z m -53.15904,0.31079 c -0.17901,-0.4665 -0.44337,-0.73031 -0.58745,-0.58622 -0.14408,0.14408 -0.0989,0.52576 0.10035,0.84819 0.54199,0.87695 0.85877,0.70659 0.4871,-0.26197 z m 34.129,-0.32185 c 1.67368,-1.31652 1.45647,-1.71668 -1.43267,-2.63928 -1.10948,-0.35429 -2.31466,-1.00254 -2.67817,-1.44054 -1.15611,-1.39302 -1.68536,-0.85725 -0.81527,0.82531 0.46123,0.89192 0.8386,1.95551 0.8386,2.36353 0,0.91117 1.09327,2.06102 1.95961,2.06102 0.35223,0 1.30979,-0.52652 2.1279,-1.17004 z m -30.34727,-1.02709 c -0.18344,-1.61259 -1.20857,-2.3468 -2.16658,-1.55172 -0.90175,0.74838 -0.91293,2.47232 -0.0184,2.84149 1.42109,0.58651 2.33697,0.0459 2.18502,-1.28977 z m 42.4297,1.31384 c 0.85443,-0.32787 1.26346,-2.97235 0.4572,-2.95589 -1.17213,0.0239 -2.63164,2.26106 -1.93173,2.96096 0.40448,0.40448 0.40728,0.40447 1.47453,-0.005 z m 5.56414,-0.25259 c 0.59158,-0.9572 -0.0822,-1.15991 -0.83607,-0.25154 -0.43354,0.52238 -0.47524,0.83777 -0.11076,0.83777 0.32148,0 0.74755,-0.26381 0.94683,-0.58623 z m -37.67415,-0.51309 c 0,-0.30231 -0.26194,-0.54966 -0.58209,-0.54966 -0.32016,0 -0.42923,0.24735 -0.24239,0.54966 0.18684,0.30231 0.44878,0.54966 0.58209,0.54966 0.13332,0 0.24239,-0.24735 0.24239,-0.54966 z m 3.95687,-0.84479 c 0.51624,-1.13302 0.47453,-1.55527 -0.22249,-2.25229 -0.68084,-0.68084 -1.09789,-0.72937 -2.02128,-0.23518 -1.1128,0.59555 -1.59408,2.71841 -0.797,3.51548 0.82579,0.82579 2.44564,0.27816 3.04077,-1.02801 z m 11.18625,-0.16778 c -0.54795,-1.72643 -2.49427,-3.93435 -3.46821,-3.93435 -0.67667,0 -0.53665,0.36614 0.58955,1.54164 0.81234,0.8479 1.47698,1.94034 1.47698,2.42765 0,0.48731 0.30918,0.99644 0.68707,1.1314 0.96237,0.34371 1.11488,0.0948 0.71461,-1.16634 z m -37.44003,-1.17245 c 0.96178,-0.36567 1.40993,-0.9469 1.40993,-1.82861 0,-1.13374 -0.21009,-1.26172 -1.70987,-1.0416 -1.83222,0.26892 -2.80966,-0.58248 -2.27331,-1.98017 0.26083,-0.67973 0.43416,-0.64748 1.05052,0.19544 0.57805,0.79053 0.88259,0.86503 1.40413,0.34349 0.52154,-0.52155 0.28811,-1.04386 -1.07629,-2.40826 l -1.74228,-1.74228 -0.57474,1.51169 c -0.77475,2.03774 -0.72392,3.31701 0.2217,5.5802 0.86139,2.06159 1.15255,2.18283 3.29021,1.3701 z m 8.28065,-0.0136 c 0.18683,-0.30231 -0.16959,-0.54966 -0.79205,-0.54966 -0.62247,0 -1.13176,0.24735 -1.13176,0.54966 0,0.30231 0.35642,0.54966 0.79205,0.54966 0.43563,0 0.94492,-0.24735 1.13176,-0.54966 z m 13.79869,-0.95045 c -0.55874,-0.55873 -1.01975,0.28247 -0.56132,1.02422 0.3463,0.56033 0.47577,0.56077 0.66195,0.002 0.1273,-0.38189 0.082,-0.84379 -0.10063,-1.02644 z m 7.08829,0.14313 c 0,-0.5448 -0.55653,-1.19642 -1.23673,-1.44805 -1.38038,-0.51063 -1.58056,0.0362 -0.64986,1.77525 0.69296,1.29481 1.88659,1.08779 1.88659,-0.3272 z m 13.92687,-0.86696 c -1.79794,-1.816 -2.08016,-2.37053 -1.53857,-3.02312 0.36479,-0.43954 1.00399,-0.79917 1.42044,-0.79917 0.98096,0 0.98053,-0.896 -5.5e-4,-1.2725 -0.74452,-0.2857 -3.57426,0.22776 -5.38336,0.97682 -2.41346,0.99929 -0.91183,3.03636 3.9331,5.33551 3.41685,1.62146 3.9614,1.19889 1.56899,-1.21754 z m 8.06037,1.12166 c 0.7125,-2.24486 3.05001,-4.3943 4.77882,-4.3943 1.3584,0 1.59001,0.17426 1.27852,0.9619 -0.20922,0.52905 -0.48527,1.82762 -0.61345,2.88571 -0.25052,2.06794 0.0288,1.74244 0.55317,-0.64471 0.43694,-1.98904 2.92666,-4.85187 4.21953,-4.85187 0.57775,0 1.05045,-0.22419 1.05045,-0.4982 0,-0.79218 -2.34935,-0.01 -3.78559,1.26114 -0.9062,0.80173 -1.23779,0.90579 -1.07185,0.33638 0.13216,-0.45347 1.34098,-1.38289 2.68628,-2.06538 3.17864,-1.61257 3.76927,-2.48087 3.42639,-5.03724 -0.16726,-1.24704 -0.0329,-2.25269 0.33093,-2.47757 0.33686,-0.20819 0.61247,-1.11825 0.61247,-2.02236 0,-2.02535 -1.49264,-5.04867 -2.2588,-4.57516 -0.30965,0.19138 -0.51716,0.0139 -0.46112,-0.39427 0.18409,-1.34114 -0.0153,-1.93308 -1.05474,-3.13159 -1.33203,-1.53585 -1.44381,-1.51052 -2.66139,0.60297 -0.83261,1.44526 -0.98942,2.62549 -0.82119,6.18058 0.20308,4.29136 0.22549,4.35245 0.95777,2.61087 0.4124,-0.98083 0.96628,-1.78332 1.23082,-1.78332 0.26455,0 0.39423,-0.6802 0.28818,-1.51156 -0.11417,-0.89496 0.22609,-2.0428 0.83411,-2.81388 l 1.02694,-1.30233 -0.24028,1.63712 c -0.19214,1.30913 -0.01,1.69739 0.91005,1.93794 1.37105,0.35854 1.52931,2.15325 0.28122,3.18907 -0.68159,0.56567 -1.09508,0.58019 -1.91634,0.0673 -1.33318,-0.83258 -1.42913,-0.82355 -1.81057,0.17048 -0.50903,1.3265 0.1676,2.3787 1.33358,2.07379 1.29129,-0.33768 1.51117,1.36183 0.23933,1.84988 -0.45347,0.17401 -0.82448,0.63065 -0.82448,1.01476 0,0.91852 -1.56487,2.19962 -2.06993,1.69457 -0.2169,-0.21691 0.0364,-0.63547 0.56295,-0.93013 1.44365,-0.80791 1.18492,-2.13009 -0.41683,-2.13009 -0.75578,0 -1.37414,0.21252 -1.37414,0.47227 0,0.25975 -0.95117,1.55831 -2.11371,2.8857 -1.16253,1.32739 -2.01519,2.69995 -1.89478,3.05013 0.12041,0.35019 -0.0415,0.79764 -0.35975,0.99434 -0.31828,0.1967 -0.57868,0.96141 -0.57868,1.69935 0,0.73793 -0.49469,1.83639 -1.09931,2.44102 -1.30474,1.30473 -1.36984,1.64897 -0.31187,1.64897 0.43309,0 0.94487,-0.49603 1.13729,-1.10228 z m -31.05659,-0.54669 c -0.32358,-0.60463 -0.7033,-1.09932 -0.84382,-1.09932 -0.14052,0 -0.25549,0.49469 -0.25549,1.09932 0,0.62192 0.36644,1.09931 0.84382,1.09931 0.6735,0 0.72507,-0.2219 0.25549,-1.09931 z m 27.76271,-0.13742 c -0.3459,-1.47123 0.44505,-2.90716 1.30769,-2.37402 0.91174,0.56348 0.73824,1.4264 -0.21338,1.06123 -0.45346,-0.17401 -0.82448,-0.0426 -0.82448,0.29208 0,0.93281 1.63972,0.72247 2.01621,-0.25864 0.63637,-1.65834 -1.09784,-2.58471 -4.07277,-2.17555 -2.52338,0.34706 -2.7037,0.47338 -2.46417,1.72636 0.14213,0.74355 0.90826,1.70501 1.70251,2.13658 2.1283,1.15647 2.88764,1.03489 2.54839,-0.40804 z m -17.26767,-1.67987 c -0.43517,-0.43517 -0.6012,-0.29254 -0.6012,0.51643 0,1.45315 0.76867,2.22448 1.01345,1.01695 0.10392,-0.5127 -0.0816,-1.20272 -0.41225,-1.53338 z m 25.2327,0.69863 c 0,-0.29167 -0.37102,-0.53032 -0.82448,-0.53032 -0.45347,0 -0.82449,0.10345 -0.82449,0.22988 0,0.12643 -0.16118,0.64989 -0.35817,1.16326 -0.30925,0.80588 -0.19662,0.84692 0.82448,0.30044 0.65047,-0.34812 1.18266,-0.87158 1.18266,-1.16326 z m -37.22662,-16.63312 0.97457,-1.48624 h -3.81815 -3.81814 l 0.76329,1.53007 c 0.51251,1.02733 0.78966,3.78148 0.84352,8.38228 l 0.0802,6.85221 1.72523,1.11296 1.72523,1.11296 0.27482,-8.00901 c 0.22016,-6.4156 0.46873,-8.30469 1.24941,-9.49523 z m -14.54654,16.06158 c -0.10833,-0.32499 -0.43194,-0.59088 -0.71913,-0.59088 -0.2872,0 -0.61081,0.26589 -0.71914,0.59088 -0.10833,0.32498 0.21528,0.59088 0.71914,0.59088 0.50385,0 0.82746,-0.2659 0.71913,-0.59088 z m 20.16785,-0.78326 c 0,-1.39325 -2.18312,-1.82425 -2.68011,-0.52912 -0.48917,1.27476 0.1098,1.99471 1.49525,1.79728 0.76214,-0.10861 1.18486,-0.56105 1.18486,-1.26816 z m -29.0312,-0.37789 c -0.17546,-0.43848 -0.30571,-0.30824 -0.33208,0.33208 -0.0239,0.57943 0.10604,0.90407 0.28869,0.72143 0.18265,-0.18265 0.20217,-0.65673 0.0434,-1.05351 z m 34.69855,-1.72052 c -0.25318,-1.7784 -2.85051,-1.68432 -3.10456,0.11245 -0.10203,0.72159 0.13199,1.5082 0.52004,1.74803 1.11893,0.69154 2.77783,-0.50263 2.58452,-1.86048 z m 30.65991,0.31607 c -0.38119,-0.38119 -1.424,0.3933 -1.424,1.05759 0,0.36448 0.31538,0.32278 0.83777,-0.11076 0.46077,-0.38241 0.72457,-0.80848 0.58623,-0.94683 z m -57.12183,0.0907 c 0.3983,-1.03794 -1.10821,-2.71718 -1.96347,-2.1886 -0.82058,0.50714 -0.76262,2.34979 0.0847,2.69168 1.19137,0.48073 1.53677,0.38824 1.8788,-0.50308 z m 17.77146,0.5693 c 0,-0.1638 -0.49469,-0.8288 -1.09932,-1.47779 -1.08065,-1.15995 -1.09931,-1.16111 -1.09931,-0.0686 0,0.61125 0.16489,1.27625 0.36644,1.47779 0.43882,0.43882 1.83219,0.49101 1.83219,0.0686 z m 15.58286,-1.6069 c 0.55932,-0.42374 0.85349,-1.03491 0.65372,-1.35815 -0.49553,-0.80178 -2.49514,0.28684 -2.49514,1.3584 0,0.99753 0.52449,0.99746 1.84142,-2.5e-4 z m -24.74732,-0.65686 c 0.19962,-0.19962 -0.14617,-0.71954 -0.76842,-1.15538 -1.27602,-0.89376 -1.90626,-0.59639 -1.42026,0.67013 0.33311,0.86805 1.53861,1.13532 2.18868,0.48525 z m 13.82953,-0.17536 c 0.46304,-0.74922 -0.6982,-2.75964 -1.59399,-2.75964 -1.06954,0 -2.14755,1.49738 -1.77568,2.46645 0.35382,0.92204 2.84695,1.13896 3.36967,0.29319 z m -25.55206,-0.56101 c 0,-0.30232 -0.24734,-0.54966 -0.54966,-0.54966 -0.30231,0 -0.54965,0.24734 -0.54965,0.54966 0,0.30231 0.24734,0.54965 0.54965,0.54965 0.30232,0 0.54966,-0.24734 0.54966,-0.54965 z m 8.44842,-0.67195 c 0.78672,-1.24928 -0.10867,-2.14198 -1.72459,-1.7194 -1.17462,0.30717 -1.65333,1.78205 -0.84181,2.59357 0.60727,0.60727 1.91372,0.16227 2.5664,-0.87417 z m 22.88206,0.12229 c 0,-0.60462 -0.11497,-1.09932 -0.25549,-1.09932 -0.14052,0 -0.52024,0.4947 -0.84382,1.09932 -0.46958,0.87742 -0.41801,1.09931 0.25549,1.09931 0.47738,0 0.84382,-0.47738 0.84382,-1.09931 z m 1.64897,0 c 0,-0.60462 -0.22419,-1.09932 -0.4982,-1.09932 -0.274,0 -0.36883,0.4947 -0.21072,1.09932 0.15812,0.60462 0.38231,1.09931 0.4982,1.09931 0.1159,0 0.21072,-0.49469 0.21072,-1.09931 z m 7.14555,0.54966 c 0.45347,-0.29306 0.57714,-0.53283 0.27483,-0.53283 -0.30231,0 -0.92068,0.23977 -1.37414,0.53283 -0.45347,0.29305 -0.57714,0.53282 -0.27483,0.53282 0.30231,0 0.92067,-0.23977 1.37414,-0.53282 z m -19.23801,-1.06688 c 0,-0.28447 -0.24735,-0.67009 -0.54966,-0.85693 -0.30231,-0.18683 -0.54966,0.0459 -0.54966,0.51722 0,0.47131 0.24735,0.85693 0.54966,0.85693 0.30231,0 0.54966,-0.23275 0.54966,-0.51722 z m 8.60484,-0.33097 c 0.17902,-0.46651 0.17723,-0.99645 -0.004,-1.17765 -0.3915,-0.39148 -2.005,0.85063 -2.005,1.54348 0,0.82949 1.66674,0.52597 2.00895,-0.36583 z m 7.69129,-0.074 c 1.13862,-0.27371 1.14838,-0.34036 0.27483,-1.87595 -1.12724,-1.98156 -1.49357,-1.9962 -2.19067,-0.0876 -0.30364,0.83135 -0.57159,1.13374 -0.59546,0.67196 -0.0239,-0.46178 0.30369,-1.33513 0.7279,-1.94077 0.76291,-1.08922 0.60267,-4.09035 -0.21841,-4.09035 -0.69339,0 -1.76893,1.56506 -1.44062,2.09629 0.16843,0.27252 0.0833,1.27273 -0.18914,2.22271 -0.31929,1.1133 -0.30046,1.72723 0.053,1.72723 0.31066,0 0.38603,0.51137 0.17388,1.17979 -0.33014,1.04018 -0.2207,1.13249 0.92486,0.78011 0.71462,-0.21983 1.83056,-0.52739 2.47986,-0.68347 z m -33.47263,-1.35891 c 0.48997,-1.2981 0.9005,-1.63882 1.71725,-1.42523 1.2471,0.32612 1.69867,-0.81814 1.7103,-4.33381 0.0115,-3.47034 -1.83676,-4.27043 -4.52717,-1.95978 -1.08875,0.93508 -1.30761,4.62181 -0.4139,6.97244 0.75311,1.98082 -0.23959,1.25143 -1.08955,-0.80056 l -0.6847,-1.653 -1.72292,1.20249 c -3.83185,2.67437 -3.49921,3.31042 1.87159,3.57872 2.33172,0.11648 2.53737,0.0129 3.1391,-1.58127 z m 41.70257,-1.70391 c -0.0364,-1.88945 0.14566,-3.86821 0.40474,-4.39726 0.74426,-1.51982 -2.03944,-1.2388 -3.78884,0.38249 -0.79784,0.73942 -1.71536,1.43264 -2.03893,1.5405 -0.36766,0.12255 -0.43548,0.80371 -0.18082,1.81614 l 0.40749,1.62003 0.7521,-1.78638 c 0.51894,-1.23259 1.12048,-1.78639 1.94037,-1.78639 1.10213,0 1.16053,0.18485 0.80579,2.55048 -0.27941,1.8632 -0.18514,2.67557 0.34983,3.0147 1.29089,0.81832 1.41581,0.54459 1.34827,-2.95431 z m 2.14988,2.28072 c 0.20156,-0.63506 0.0945,-1.42657 -0.23779,-1.75891 -0.33234,-0.33234 -0.61178,-1.35866 -0.62097,-2.28071 -0.0141,-1.41466 -0.10499,-1.52485 -0.58199,-0.70559 -0.62139,1.06725 -0.11021,5.89985 0.62407,5.89985 0.24761,0 0.61512,-0.51959 0.81668,-1.15464 z m -42.72218,-0.7837 c -0.16923,-0.16924 -0.47657,0.13582 -0.68299,0.67791 -0.29829,0.78337 -0.23515,0.8465 0.3077,0.30769 0.37564,-0.37285 0.54453,-0.81637 0.37529,-0.9856 z m 6.78506,-1.24431 c -0.19197,-2.6587 -2.00113,-6.71118 -2.99609,-6.71118 -0.4462,0 -0.68368,0.82278 -0.67425,2.33604 0.008,1.28482 -0.1995,2.92999 -0.46112,3.65592 -0.39389,1.09296 -0.32321,1.26137 0.41115,0.97957 0.58152,-0.22315 1.19738,0.13367 1.78892,1.03647 1.27956,1.95286 2.12503,1.38517 1.93139,-1.29682 z m 11.15911,1.44545 c 1.54439,-0.70367 1.62612,-0.90481 0.85758,-2.1104 -0.69762,-1.09434 -2.41071,-0.0833 -2.65634,1.56769 -0.20316,1.36555 -0.0853,1.40112 1.79876,0.54271 z m 4.97278,-1.29344 c 0,-1.38203 -0.21599,-1.64145 -1.36662,-1.64145 -1.56603,0 -2.13891,1.50472 -1.06536,2.79827 1.10409,1.33035 2.43198,0.69872 2.43198,-1.15682 z m 4.73068,-1.88006 c -0.56296,-0.34793 -0.44536,-0.76485 0.53318,-1.89027 0.69049,-0.79414 1.57061,-1.44389 1.95582,-1.44389 0.39119,0 0.10478,-0.5956 -0.64878,-1.34916 -1.28337,-1.28337 -1.53878,-2.52697 -1.54656,-7.53031 -0.002,-1.46266 -2.26694,0.3002 -3.36891,2.62242 -1.04727,2.20697 -0.4537,3.50876 1.59988,3.50876 2.39099,0 3.58442,3.12149 1.41076,3.68991 -0.60793,0.15898 -1.22629,0.87786 -1.37414,1.59752 -0.14785,0.71965 -0.39206,1.90636 -0.5427,2.63712 -0.40304,1.95518 0.95564,2.10725 1.90104,0.21276 0.65706,-1.31667 0.67165,-1.68946 0.0804,-2.05486 z m 10.3849,1.88758 c 0,-1.05809 -0.1298,-1.9238 -0.28843,-1.9238 -0.49518,0 -1.38481,2.814 -1.05721,3.34407 0.68127,1.10231 1.34564,0.4011 1.34564,-1.42027 z m 9.86164,0.46575 c 0.6308,-0.80193 1.01721,-1.58775 0.8587,-1.74626 -0.15851,-0.15851 -0.63651,0.18813 -1.06222,0.77032 -0.7429,1.01597 -0.78903,0.99869 -1.14756,-0.42982 -0.20546,-0.8186 -0.76662,-1.80768 -1.24702,-2.19797 -0.74951,-0.60891 -0.81987,-0.56672 -0.49573,0.29724 0.20776,0.55377 0.37774,1.85233 0.37774,2.8857 0,2.31252 1.09466,2.48211 2.71609,0.42079 z m -55.78053,-2.66036 c -1.00945,-0.78267 -0.98001,-0.80032 0.47051,-0.28205 0.85104,0.30408 1.61082,0.55286 1.68841,0.55286 0.0776,0 0.67914,-1.19058 1.33679,-2.64573 0.865,-1.91396 1.73294,-2.90192 3.13803,-3.57196 1.06827,-0.50942 2.09961,-1.33614 2.29186,-1.83714 0.47178,-1.22942 -1.42439,-2.69578 -4.06139,-3.14079 -2.14946,-0.36274 -5.09127,-2.20467 -4.48671,-2.80922 0.18623,-0.18623 0.74584,0.0686 1.24358,0.56638 0.49775,0.49775 1.88759,1.03678 3.08856,1.19787 2.09952,0.2816 2.18547,0.23191 2.23314,-1.29106 0.0487,-1.5577 0.0586,-1.55239 0.59597,0.32057 0.30053,1.04747 1.02026,2.23639 1.5994,2.64204 0.57915,0.40565 1.053,1.12482 1.053,1.59816 0,0.67612 0.16528,0.72346 0.77096,0.22079 0.42403,-0.35191 0.85875,-1.74367 0.96605,-3.09279 0.18663,-2.34662 0.15717,-2.40268 -0.67959,-1.29336 -1.11425,1.4772 -2.83627,1.17305 -3.24864,-0.57378 -0.27707,-1.17371 -0.64917,-1.35055 -3.04721,-1.44825 -2.21987,-0.0904 -5.25451,0.49085 -6.2115,1.1898 -0.3344,0.24423 1.15702,2.69465 1.91116,3.14005 0.88207,0.52095 0.99877,3.46069 0.15802,3.98031 -0.32243,0.19927 -0.90823,-0.0781 -1.30179,-0.61628 -0.67962,-0.92944 -0.74526,-0.92309 -1.30699,0.12651 -0.44352,0.82872 -0.39288,1.4878 0.20247,2.63535 1.04303,2.01042 1.0017,2.88169 -0.16799,3.54167 -0.77044,0.43471 -0.82514,0.68085 -0.27483,1.23656 0.37789,0.3816 0.68707,1.19401 0.68707,1.80535 0,1.08461 0.0294,1.08212 1.21424,-0.10271 1.19988,-1.19987 1.2015,-1.22412 0.13742,-2.04915 z m 22.83327,0.82047 c 0,-0.30231 -0.24734,-0.54966 -0.54966,-0.54966 -0.30231,0 -0.54965,0.24735 -0.54965,0.54966 0,0.30231 0.24734,0.54966 0.54965,0.54966 0.30232,0 0.54966,-0.24735 0.54966,-0.54966 z m 28.81182,-2.45788 c -0.19328,-0.77006 -0.57061,-1.53558 -0.83851,-1.70116 -0.26791,-0.16557 -0.24051,0.34756 0.0609,1.14029 0.70395,1.85153 0.70295,3.00974 -0.002,1.91944 -0.61394,-0.95 -0.71347,-0.5168 -0.19294,0.83969 0.31933,0.83214 0.40741,0.83903 0.84018,0.0657 0.26589,-0.47513 0.32531,-1.49392 0.13204,-2.26399 z m -23.44982,1.22115 c 0.30233,-0.37789 0.72621,-1.26221 0.94196,-1.96515 0.35351,-1.1518 0.23843,-1.26042 -1.16476,-1.09932 -1.57975,0.18138 -2.23775,1.37582 -1.63016,2.95916 0.37403,0.97472 1.12333,1.0173 1.85296,0.10531 z m 28.76173,0.13742 c 0.89345,0 0.53734,-1.99872 -0.52788,-2.96273 -0.56792,-0.51396 -1.73312,-0.98515 -2.58934,-1.04709 -2.06144,-0.14913 -2.41769,1.38731 -0.52195,2.25107 0.76757,0.34972 1.39558,1.03865 1.39558,1.53094 0,0.59037 0.29598,0.7815 0.86944,0.56144 0.47819,-0.1835 1.09656,-0.33363 1.37415,-0.33363 z m -31.9251,-1.99111 c 0,-0.41645 -0.34455,-0.75718 -0.76568,-0.75718 -0.87336,0 -1.59883,1.48554 -1.11097,2.27492 0.42066,0.68065 1.87665,-0.49688 1.87665,-1.51774 z m 8.15522,0.67651 c 0.23547,-1.22271 -0.74206,-1.95041 -2.13181,-1.58699 -1.40256,0.36678 -1.76071,1.66671 -0.64142,2.32806 1.32929,0.78544 2.54164,0.46147 2.77323,-0.74107 z m 11.90728,-1.43369 c 1.14123,-0.90694 2.56084,-1.64897 3.15469,-1.64897 0.89619,0 0.71983,-0.36509 -1.03748,-2.14776 -2.50391,-2.54003 -3.22408,-2.25299 -3.64163,1.45146 -0.16019,1.42123 -0.56293,2.67461 -0.89498,2.7853 -0.71236,0.23745 -0.81654,1.20894 -0.12964,1.20894 0.26075,0 1.40781,-0.74204 2.54904,-1.64897 z m -31.03934,-1.6185 c -0.33255,-0.62139 -0.96696,-1.12979 -1.40979,-1.12979 -0.60904,0 -0.53739,0.26776 0.29417,1.09932 0.60462,0.60462 1.11884,1.40849 1.14271,1.78638 0.0323,0.51119 0.11176,0.51899 0.31047,0.0305 0.1469,-0.36113 -0.005,-1.16501 -0.33756,-1.78639 z m 21.65667,0.4569 c -0.37512,-0.60696 -2.43496,-0.64727 -2.43496,-0.0477 0,0.24185 0.29093,0.73066 0.64651,1.08624 0.73376,0.73376 2.31597,-0.18505 1.78845,-1.03859 z m 29.44517,0.30295 c 0,-0.43468 -0.45346,-0.79032 -1.0077,-0.79032 -0.55424,0 -1.00771,0.32148 -1.00771,0.71441 0,0.39293 0.45347,0.74858 1.00771,0.79033 0.55424,0.0417 1.0077,-0.27974 1.0077,-0.71442 z m -40.67465,-0.24067 c 0,-0.30231 -0.10908,-0.54965 -0.24239,-0.54965 -0.13332,0 -0.39526,0.24734 -0.5821,0.54965 -0.18684,0.30231 -0.0778,0.54966 0.24239,0.54966 0.32015,0 0.5821,-0.24735 0.5821,-0.54966 z m 3.8476,-1.22577 c 0,-0.92266 -2.46004,-0.15987 -2.64695,0.82074 -0.16228,0.85138 -0.0127,0.89075 1.23111,0.32402 0.77871,-0.35481 1.41584,-0.86995 1.41584,-1.14476 z m 3.8476,0.61201 c 0,-0.26705 -0.49469,-0.48555 -1.09931,-0.48555 -0.60463,0 -1.09932,0.34786 -1.09932,0.77303 0,0.50241 0.38484,0.67239 1.09932,0.48555 0.60462,-0.15812 1.09931,-0.50598 1.09931,-0.77303 z m 19.81954,-4.55045 c 1.90401,-1.60212 2.01582,-2.27893 0.50963,-3.08501 -1.23958,-0.66341 -1.48112,-0.32232 -1.75459,2.47782 -0.12002,1.22885 -0.44113,1.64897 -1.26037,1.64897 -0.93253,0 -1.07486,-0.3127 -0.93811,-2.06121 0.17835,-2.28039 -0.13637,-2.50279 -1.62948,-1.15154 -1.38145,1.2502 -1.28834,1.66678 0.91862,4.10962 1.05809,1.17118 1.96538,2.43788 2.0162,2.8149 0.0508,0.37702 0.18883,-0.23213 0.3067,-1.35368 0.14906,-1.41848 0.70651,-2.45334 1.8314,-3.39987 z m -12.67399,3.48869 c 0,-0.31692 0.47224,-1.55365 1.04943,-2.74829 l 1.04944,-2.17208 h -2.14875 -2.14875 v 2.38185 c 0,1.31002 0.1649,2.54675 0.36644,2.74829 0.57347,0.57347 1.83219,0.42936 1.83219,-0.20977 z m -13.49897,-0.81542 c 0.85414,-0.64604 0.89498,-0.807 0.20472,-0.807 -0.47423,0 -1.17016,0.37102 -1.5465,0.82448 -0.87057,1.04897 -0.0541,1.03833 1.34178,-0.0175 z m -14.39615,-0.0717 c -0.37789,-0.15249 -0.99626,-0.15249 -1.37415,0 -0.37788,0.15248 -0.0687,0.27723 0.68708,0.27723 0.75578,0 1.06496,-0.12475 0.68707,-0.27723 z m 17.00322,-1.30203 -0.47202,-1.276 -0.31302,1.19696 c -0.17215,0.65832 -0.0887,1.05834 0.18539,0.88893 0.27412,-0.16942 0.4984,-0.005 0.4984,0.36568 0,0.37053 0.12898,0.54472 0.28663,0.38707 0.15765,-0.15765 0.0742,-0.86084 -0.18538,-1.56264 z m -27.7738,-0.7837 c -0.17902,-0.46651 -0.74754,-0.84819 -1.26339,-0.84819 -0.84129,0 -0.82891,0.10594 0.12016,1.0284 1.18838,1.15506 1.62897,1.08561 1.14323,-0.18021 z m 13.26734,-0.85339 c 0.0884,-0.75347 -0.19194,-1.85222 -0.62296,-2.44166 -0.72474,-0.99115 -0.7992,-0.87635 -0.99033,1.52688 -0.16627,2.09052 -0.0445,2.56792 0.62295,2.44167 0.45629,-0.0863 0.90194,-0.77342 0.99034,-1.52689 z m 2.30433,-1.33659 c -0.0108,-1.4507 -0.56492,-2.18845 -1.80098,-2.39778 -0.85644,-0.14503 -0.89475,-0.0224 -0.29372,0.93998 0.49685,0.79558 0.81004,0.91975 1.11391,0.44162 0.65647,-1.03298 0.53245,1.68827 -0.14044,3.08117 -0.56025,1.15977 -0.55091,1.16432 0.27483,0.13364 0.47015,-0.58682 0.85102,-1.57621 0.8464,-2.19863 z m 11.00156,2.45484 c 0,-0.29543 -0.69956,-0.396 -1.559,-0.22411 -2.06472,0.41294 -3.64455,-1.03135 -2.81783,-2.57609 0.73438,-1.37219 0.9011,-1.33766 0.8477,0.17559 -0.062,1.75801 2.77459,1.98847 4.80611,0.39047 1.52725,-1.20133 3.41702,-4.26197 2.93138,-4.74761 -0.14848,-0.14848 -1.28015,-0.40546 -2.51483,-0.57106 -2.79125,-0.37439 -5.94209,1.50774 -8.0112,4.78542 -1.6674,2.64133 -1.83177,3.68809 -0.21662,1.37951 1.0482,-1.49823 1.08875,-1.2096 0.15442,1.09931 -0.27488,0.6793 0.2575,0.82449 3.02312,0.82449 1.84621,0 3.35675,-0.24116 3.35675,-0.53592 z m -2.74828,-2.67041 c 0,-1.53827 -0.6293,-1.8389 -1.74179,-0.83211 -0.59567,0.53908 -1.0065,0.65316 -1.0065,0.27948 0,-1.17204 4.47406,-3.93624 6.37109,-3.93624 2.32642,0 2.65517,0.60434 1.46389,2.69102 -1.19404,2.09151 -2.27229,2.55642 -3.14883,1.35769 -0.51601,-0.70569 -0.76975,-0.75712 -1.0999,-0.22293 -0.24936,0.40348 -0.11181,0.89538 0.32835,1.17417 0.59909,0.37946 0.55634,0.48155 -0.20441,0.4882 -0.56938,0.005 -0.9619,-0.4028 -0.9619,-0.99928 z m 2.74789,-1.8377 c 2.2e-4,-0.20457 -0.43246,-0.48506 -0.96151,-0.62331 -0.59885,-0.1565 -0.39791,-0.27544 0.53241,-0.31513 1.11644,-0.0476 1.4143,0.14472 1.17792,0.76072 -0.17401,0.45347 -0.0426,0.82449 0.29208,0.82449 0.33466,0 0.60847,-0.10344 0.60847,-0.22987 0,-0.12643 0.13766,-0.58862 0.30591,-1.02708 0.18703,-0.48738 -0.10311,-0.90417 -0.74655,-1.07243 -1.29869,-0.33962 -4.69951,1.0224 -4.27359,1.71155 0.35137,0.56852 3.06427,0.54291 3.06486,-0.0289 z m 23.18974,1.47635 c 0.12385,-1.06089 0.0275,-1.92889 -0.2141,-1.92889 -0.24161,0 -0.44266,0.43285 -0.44679,0.9619 -0.004,0.52904 -0.16677,1.5571 -0.36142,2.28458 -0.22925,0.85682 -0.15121,1.1974 0.22161,0.96699 0.31653,-0.19562 0.67684,-1.22369 0.8007,-2.28458 z m -8.34859,-0.69508 c 0,-0.53038 -3.95293,-1.78325 -4.52019,-1.43267 -0.2347,0.14505 -0.42673,0.62015 -0.42673,1.05578 0,0.57228 0.68629,0.79205 2.47346,0.79205 1.3604,0 2.47346,-0.18682 2.47346,-0.41516 z m 27.61415,-0.93826 c 0.3763,-0.67242 0.3764,-0.88414 2.9e-4,-0.6517 -0.30641,0.18937 -0.5232,-0.0721 -0.48175,-0.581 0.0893,-1.09693 -4.36493,-2.2628 -5.25284,-1.3749 -0.33564,0.33564 0.0366,0.45882 1.02667,0.33973 0.85428,-0.10276 1.09598,-0.0492 0.53712,0.119 -0.9289,0.27958 -0.88928,0.43823 0.46155,1.84819 1.63747,1.70915 2.86505,1.80867 3.70896,0.30068 z m -30.68307,-1.93791 c 0.57943,-0.004 0.90629,-0.15383 0.72637,-0.33375 -0.60727,-0.60728 -3.4396,0.34972 -5.08873,1.7194 l -1.63807,1.36051 2.47346,-1.36977 c 1.3604,-0.75337 2.94753,-1.37275 3.52697,-1.37639 z m -27.82149,0.82572 1.18798,-1.3663 -1.38928,-0.34869 c -0.76411,-0.19178 -1.54266,-0.19531 -1.73012,-0.008 -0.18747,0.18747 0.25691,0.35652 0.98749,0.37568 l 1.32834,0.0349 -1.23673,0.4971 c -0.6802,0.27341 -1.23673,0.87609 -1.23673,1.3393 0,1.22007 0.73225,1.03637 2.08905,-0.52409 z m 34.21594,0.0533 c 0.85823,-0.72216 1.40924,-1.46419 1.22447,-1.64897 -0.18478,-0.18478 -1.71698,-0.29565 -3.40488,-0.24637 l -3.06892,0.0896 3.02311,0.36197 c 2.89028,0.34605 2.94462,0.38136 1.23673,0.8036 -1.75816,0.43466 -2.14253,0.86418 -1.41995,1.58675 0.54663,0.54663 0.71216,0.4816 2.40944,-0.94657 z m -3.87519,-0.33596 c 0,-0.68868 -0.58332,-0.68868 -1.64897,0 -0.66672,0.43086 -0.58783,0.53444 0.41224,0.54124 0.6802,0.005 1.23673,-0.23893 1.23673,-0.54124 z m 29.13185,-1.09931 c 0,-0.62193 -0.36644,-1.09932 -0.84382,-1.09932 -0.67351,0 -0.72507,0.2219 -0.2555,1.09932 0.32359,0.60462 0.70331,1.09931 0.84383,1.09931 0.14052,0 0.25549,-0.49469 0.25549,-1.09931 z m -64.17252,-0.36403 c -0.37789,-0.15248 -0.99625,-0.15248 -1.37414,0 -0.37789,0.15248 -0.0687,0.27724 0.68707,0.27724 0.75578,0 1.06496,-0.12476 0.68707,-0.27724 z m 45.48416,23.44964 c 0,-0.30231 0.24735,-0.54966 0.54966,-0.54966 0.30231,0 0.54966,0.24735 0.54966,0.54966 0,0.30231 -0.24735,0.54966 -0.54966,0.54966 -0.30231,0 -0.54966,-0.24735 -0.54966,-0.54966 z m 16.86428,-14.49087 c -0.52225,-0.79706 -0.72679,-1.4492 -0.45453,-1.4492 0.75956,0 1.85938,1.53251 1.61848,2.25521 -0.11792,0.35376 -0.6417,-0.009 -1.16395,-0.80601 z m -38.6169,-1.72403 c 0.21357,-0.90693 0.75466,-2.01999 1.2024,-2.47345 0.66483,-0.67333 0.64761,-0.42141 -0.0939,1.37414 -1.14489,2.77218 -1.61136,3.2348 -1.10846,1.09931 z"
       id="path7233" />
  </g>
</svg>
