<?xml version="1.0" encoding="UTF-8" standalone="no"?>
<!-- Created with Inkscape (http://www.inkscape.org/) -->

<svg
   width="40.045746mm"
   height="35.720284mm"
   viewBox="0 0 40.045746 35.720285"
   version="1.1"
   id="svg997"
   inkscape:version="1.1 (c4e8f9ed74, 2021-05-24)"
   sodipodi:docname="ornatew5.svg"
   xmlns:inkscape="http://www.inkscape.org/namespaces/inkscape"
   xmlns:sodipodi="http://sodipodi.sourceforge.net/DTD/sodipodi-0.dtd"
   xmlns="http://www.w3.org/2000/svg"
   xmlns:svg="http://www.w3.org/2000/svg">
  <sodipodi:namedview
     id="namedview999"
     pagecolor="#ffffff"
     bordercolor="#666666"
     borderopacity="1.0"
     inkscape:pageshadow="2"
     inkscape:pageopacity="0.0"
     inkscape:pagecheckerboard="0"
     inkscape:document-units="mm"
     showgrid="false"
     inkscape:zoom="1.5385816"
     inkscape:cx="34.772287"
     inkscape:cy="169.96174"
     inkscape:window-width="2506"
     inkscape:window-height="1403"
     inkscape:window-x="1974"
     inkscape:window-y="0"
     inkscape:window-maximized="1"
     inkscape:current-layer="layer1" />
  <defs
     id="defs994" />
  <g
     inkscape:label="Layer 1"
     inkscape:groupmode="layer"
     id="layer1"
     transform="translate(-90.432789,-142.97677)">
    <path
       style="fill:#000000;stroke-width:0.264583"
       d="m 123.78243,178.50309 c -0.24537,-0.24541 -1.87042,-0.31087 -4.53527,-0.18267 -3.87316,0.18634 -16.07327,0.13845 -16.32416,-0.0641 -0.20209,-0.16312 -0.48053,-0.16419 -0.76865,-0.003 -0.28081,0.15715 -0.78522,0.16076 -1.33292,0.01 -0.57414,-0.15853 -1.062144,-0.14643 -1.400654,0.0347 -0.885459,0.47388 -8.530441,0.0517 -8.860878,-0.48939 -0.05468,-0.0895 -0.01605,-0.96446 0.08584,-1.94429 0.121093,-1.16446 0.08902,-1.82189 -0.0926,-1.89809 -0.178457,-0.0749 -0.157815,-0.20142 0.0577,-0.35375 0.241019,-0.17036 0.340453,-1.23829 0.352924,-3.79046 0.02148,-4.39614 0.01505,-5.18581 -0.04568,-5.60378 -0.02643,-0.1819 0.02815,-1.29083 0.121284,-2.4643 0.09313,-1.17346 0.154111,-3.01893 0.135505,-4.10104 -0.03775,-2.19564 -0.03326,-2.41776 0.165631,-8.18518 0.170662,-4.94895 0.39335,-5.47151 2.279499,-5.34914 1.815331,0.11778 4.286843,0.87764 4.759443,1.46328 0.297219,0.36831 0.708379,0.52026 1.322916,0.48888 0.85029,-0.0434 1.87471,-0.20601 2.01615,-0.32002 0.0364,-0.0293 0.15544,-0.0727 0.26458,-0.0965 1.26177,-0.27459 1.65107,-0.4863 1.63276,-0.88789 -0.0126,-0.27625 -0.0738,-0.32675 -0.15434,-0.12726 -0.0734,0.18191 -0.36166,0.33073 -0.64057,0.33073 -0.27892,0 -0.50782,0.0893 -0.50867,0.19844 -8.5e-4,0.10914 -0.85199,0.22606 -1.89141,0.25981 -1.039422,0.0338 -1.812948,-0.0155 -1.718948,-0.10954 0.094,-0.094 1.249729,-0.44361 2.568288,-0.77692 1.31856,-0.33331 2.80715,-0.85928 3.308,-1.16882 0.80882,-0.49988 0.91062,-0.51285 0.91062,-0.11603 0,0.31902 0.13239,0.39428 0.46302,0.26321 0.7681,-0.3045 2.18281,-0.42262 2.18281,-0.18227 0,0.12375 -0.64564,0.36949 -1.43476,0.54609 -1.76095,0.39408 -2.63213,1.152 -1.03412,0.89968 0.55752,-0.088 1.08809,-0.27342 1.17904,-0.41197 0.10144,-0.15454 0.23256,-0.14319 0.3392,0.0293 0.19258,0.31159 0.97421,0.1049 1.27732,-0.33777 0.12695,-0.1854 0.19579,-0.15932 0.19844,0.0752 0.002,0.20042 0.16971,0.29546 0.37903,0.21514 0.20624,-0.0791 0.44613,0.0415 0.5331,0.26816 0.11945,0.31129 0.0277,0.37794 -0.37535,0.27255 -0.2934,-0.0767 -0.46674,-0.0315 -0.38519,0.10041 0.0816,0.13195 0.39211,0.23991 0.69013,0.23991 0.41502,0 0.49556,0.10838 0.34406,0.46302 -0.62555,1.46434 -0.85977,2.98158 -0.62297,4.03548 0.31992,1.42387 0.98086,2.70607 1.29486,2.512 0.13398,-0.0828 0.0103,-0.53317 -0.27486,-1.00083 -0.50817,-0.83345 -0.72615,-2.83467 -0.30876,-2.83467 0.11642,0 0.35454,0.14287 0.52917,0.3175 0.21241,0.21241 0.3175,0.22178 0.3175,0.0283 0,-0.15905 -0.1786,-0.35772 -0.39688,-0.44148 -0.22468,-0.0862 -0.39687,-0.4804 -0.39687,-0.90853 0,-0.6932 0.0717,-0.74956 0.85989,-0.67623 0.72855,0.0678 0.76094,0.0493 0.21205,-0.12068 -0.53959,-0.16715 -0.6523,-0.37823 -0.6745,-1.26314 -0.0237,-0.94606 0.0447,-1.06836 0.62461,-1.11635 0.3582,-0.0296 1.07486,0.0631 1.59258,0.20601 0.6148,0.16975 1.03126,0.16996 1.20063,5.8e-4 0.14263,-0.14262 0.36324,-0.25932 0.49025,-0.25932 0.12701,0 -0.13493,0.44385 -0.58208,0.98633 -0.98716,1.1976 -1.07098,1.72951 -0.1338,0.84907 0.64142,-0.60258 1.40843,-0.82612 1.70203,-0.49604 0.0728,0.0818 0.72761,0.26039 1.45521,0.39687 1.01416,0.19023 1.31434,0.35621 1.28617,0.71117 -0.0202,0.25466 0.11569,0.46302 0.302,0.46302 0.34203,0 1.18996,1.79489 1.18996,2.5189 0,0.24225 -0.25468,0.39152 -0.66801,0.39152 -0.47361,0 -0.7431,0.1975 -0.92604,0.67868 -0.33449,0.87977 -0.33005,0.90882 0.13884,0.90882 0.47476,0 0.52621,0.82316 0.0794,1.27 -0.17463,0.17462 -0.59135,0.3175 -0.92604,0.3175 -0.54914,0 -0.73961,0.26342 -0.63416,0.87704 0.0204,0.11857 -0.2122,0.53244 -0.51682,0.91971 -0.41318,0.52528 -0.46504,0.73071 -0.20416,0.80876 0.19235,0.0575 0.70691,0.25928 1.14347,0.44831 1.29181,0.55934 1.98437,0.70565 1.98437,0.41921 0,-0.14674 -0.11906,-0.34039 -0.26458,-0.43032 -0.14552,-0.0899 -0.26458,-0.39462 -0.26458,-0.67708 0,-0.46598 0.28653,-0.64134 0.87956,-0.53833 0.11996,0.0208 0.14591,-0.0789 0.0577,-0.22169 -0.0882,-0.14277 -0.33521,-0.19252 -0.54883,-0.11054 -0.21939,0.0842 -0.3884,-0.001 -0.3884,-0.19677 0,-0.26896 -0.0706,-0.27525 -0.3175,-0.0283 -0.17463,0.17462 -0.42126,0.3175 -0.54807,0.3175 -0.29698,0 0.27303,-0.54318 1.17623,-1.12086 0.38914,-0.2489 0.78412,-0.69384 0.87772,-0.98876 0.35817,-1.12848 0.75179,-0.59077 1.0601,1.44816 0.15522,1.02652 0.14839,1.03855 -0.22726,0.40019 -0.21301,-0.36197 -0.33627,-0.7407 -0.2739,-0.84161 0.27742,-0.44889 -0.34348,-0.36582 -0.82128,0.10988 -0.52899,0.52665 -0.52895,0.52676 0.10101,0.33414 0.60751,-0.18575 0.62346,-0.15596 0.44351,0.8284 -0.10267,0.56159 -0.35818,1.3702 -0.5678,1.79689 -0.29463,0.59973 -0.30808,0.82095 -0.0593,0.97473 0.17702,0.10941 0.39954,0.15092 0.49447,0.0922 0.0949,-0.0587 0.44535,0.18364 0.7787,0.53847 0.63159,0.6723 1.32553,0.64075 0.76489,-0.0348 -0.24172,-0.29126 -0.24484,-0.45882 -0.0129,-0.69082 0.232,-0.23199 0.30937,-0.21322 0.319,0.0774 0.0109,0.32778 0.2933,-0.0976 1.19018,-1.79236 0.0943,-0.17817 -0.0256,-0.52094 -0.26637,-0.76172 -0.24078,-0.24079 -0.37277,-0.60722 -0.29331,-0.81429 0.08,-0.20856 0.0278,-0.3044 -0.11707,-0.21486 -0.27904,0.17246 -0.36926,-0.46743 -0.1034,-0.73329 0.21016,-0.21017 0.92911,0.0737 0.78348,0.30931 -0.0625,0.10115 0.1098,0.32346 0.38292,0.49402 0.42232,0.26375 0.52116,0.22221 0.66097,-0.27777 0.24654,-0.88163 0.72032,-1.85047 1.17806,-2.40899 0.38042,-0.46418 0.36899,-0.48596 -0.16739,-0.31913 -0.40622,0.12634 -0.65295,0.041 -0.8382,-0.29006 -0.25055,-0.44771 -0.2869,-0.44706 -0.79672,0.0143 -0.59324,0.53688 -1.17433,0.35729 -1.03757,-0.32068 0.12351,-0.61226 -1.05572,-1.53196 -1.45383,-1.13386 -0.22178,0.22179 -0.21291,0.29863 0.0345,0.29863 0.18322,0 0.25953,0.11907 0.1696,0.26459 -0.0899,0.14552 -0.0176,0.26458 0.16077,0.26458 0.17836,0 0.24466,0.0796 0.14733,0.17697 -0.0973,0.0973 0.021,0.39571 0.26296,0.66308 0.69373,0.76656 0.24695,0.83184 -0.51033,0.0746 -0.40704,-0.40705 -0.75192,-1.12694 -0.8575,-1.78995 -0.0971,-0.60997 -0.47078,-1.5638 -0.83032,-2.11962 -0.35954,-0.55581 -0.59642,-1.15112 -0.52639,-1.32291 0.0967,-0.2371 0.13236,-0.23607 0.14821,0.004 0.0144,0.21761 0.383,0.27227 1.17893,0.17479 0.78102,-0.0957 1.4228,-0.005 1.97124,0.2787 1.10263,0.57019 1.37097,0.51503 0.60355,-0.12407 -0.72005,-0.59965 -0.58599,-0.87729 0.4473,-0.92633 0.39307,-0.0187 1.10864,-0.0525 1.59017,-0.0753 0.50799,-0.024 0.80687,-0.1524 0.71199,-0.30592 -0.18623,-0.30132 -1.27369,-0.3579 -1.5509,-0.0807 -0.10114,0.10114 -0.86512,0.20941 -1.69774,0.2406 -0.83262,0.0312 -2.24384,0.14229 -3.13605,0.24688 -1.26047,0.14777 -1.8947,0.0861 -2.84427,-0.27655 -0.67213,-0.25669 -1.22207,-0.55515 -1.22207,-0.66325 0,-0.29879 -1.35518,-0.77543 -2.24896,-0.79101 -0.43656,-0.008 -1.53789,-0.0212 -2.44739,-0.0301 -0.90951,-0.009 -1.65365,-0.12466 -1.65365,-0.25712 0,-0.27773 2.1425,-0.28518 5.07904,-0.0177 1.48248,0.13506 2.25288,0.34561 2.83252,0.77416 0.99678,0.73695 1.74336,0.7806 5.78063,0.33797 2.29061,-0.25112 3.24114,-0.45566 3.24114,-0.69741 0,-0.39469 0.4914,-0.76385 0.71677,-0.53848 0.0838,0.0838 7.9e-4,0.33501 -0.18439,0.5582 -0.20823,0.2509 -0.28398,0.79947 -0.19846,1.43714 0.081,0.60386 0.013,1.15805 -0.16394,1.33703 -0.22834,0.23093 -0.1405,0.24466 0.35919,0.0562 0.77554,-0.29257 0.88043,-0.31293 1.61227,-0.31293 0.33142,0 0.60952,-0.21257 0.69232,-0.52917 0.16503,-0.6311 0.42379,-0.67043 0.87041,-0.13229 0.2727,0.32858 0.24412,0.39833 -0.16604,0.40529 -0.45407,0.008 -0.45884,0.0362 -0.0572,0.34177 0.30383,0.23112 0.36573,0.46291 0.20184,0.75576 -0.15998,0.28586 -0.1092,0.52797 0.15708,0.74896 0.34026,0.28239 0.39347,0.12662 0.39347,-1.15174 0,-1.23147 -0.0929,-1.528 -0.55621,-1.77597 -0.30592,-0.16373 -0.78217,-0.23859 -1.05834,-0.16637 -0.45039,0.11778 -0.62431,-0.10361 -0.53345,-0.67905 0.0172,-0.10914 -0.0877,-0.19844 -0.23325,-0.19844 -0.14552,0 -0.25518,-0.20836 -0.24369,-0.46302 0.0126,-0.27933 0.074,-0.33116 0.15489,-0.13064 0.0737,0.1828 0.26095,0.25391 0.41612,0.15801 0.15517,-0.0959 0.44778,0.0522 0.65025,0.32908 0.20247,0.2769 0.39277,0.45621 0.42289,0.39848 0.15566,-0.29841 1.30513,0.36054 1.49183,0.85521 0.29039,0.76941 0.0767,17.42064 -0.245,19.09351 -0.4425,2.30085 -0.4667,3.41793 -0.0902,4.16583 0.31359,0.623 0.30827,0.97327 -0.0374,2.46381 -0.52495,2.26354 -0.52664,3.0585 -0.006,2.85875 0.25132,-0.0964 0.39688,0.004 0.39688,0.27288 0,0.23385 -0.0908,0.42518 -0.20174,0.42518 -0.11096,0 -0.18506,0.83096 -0.16467,1.84656 0.0267,1.3295 -0.0708,1.93606 -0.34809,2.16621 -0.42849,0.35562 -5.52702,0.48791 -5.86274,0.15212 z m -29.400794,-1.11578 c -0.184076,-0.2218 -0.438002,-0.40327 -0.56428,-0.40327 -0.126279,0 -0.02876,0.23456 0.216707,0.52124 0.245467,0.28669 0.499393,0.46816 0.56428,0.40327 0.06489,-0.0649 -0.03263,-0.29944 -0.216707,-0.52124 z m 17.986364,0.39048 c 0,-0.14552 -0.38696,-0.2505 -0.8599,-0.23328 l -0.8599,0.0313 0.79375,0.20198 c 0.43657,0.11108 0.82352,0.21606 0.8599,0.23328 0.0364,0.0172 0.0661,-0.0878 0.0661,-0.23328 z m 5.94067,-0.0425 c 0.37065,-0.16888 0.67029,-0.4963 0.66586,-0.72761 -0.007,-0.35796 -0.0482,-0.35164 -0.27773,0.0425 -0.14832,0.25467 -0.45694,0.46302 -0.68581,0.46302 -0.33989,0 -0.35578,-0.0727 -0.0868,-0.39687 0.28082,-0.33837 0.20759,-0.39688 -0.49677,-0.39688 -0.63778,0 -0.82614,0.11563 -0.82614,0.50712 0,0.45229 0.29969,0.73339 0.84744,0.79491 0.1023,0.0115 0.48925,-0.11728 0.8599,-0.28616 z m 6.28308,-0.0105 c -0.24695,-0.24694 -0.38806,-0.24694 -0.635,0 -0.24695,0.24695 -0.17639,0.3175 0.3175,0.3175 0.49389,0 0.56444,-0.0705 0.3175,-0.3175 z m 4.23694,0.004 c -0.24212,-0.24213 -0.2307,-0.40847 0.05,-0.7276 0.28048,-0.31891 0.31218,-0.7775 0.13832,-2.00122 -0.12404,-0.87313 -0.17412,-2.24234 -0.11128,-3.04271 0.10807,-1.37663 0.10076,-1.39806 -0.13542,-0.39687 -0.13732,0.58208 -0.18611,1.91458 -0.10844,2.9611 0.12452,1.67753 0.0768,1.96724 -0.40339,2.4474 -0.66276,0.66276 -0.66963,0.73774 -0.0816,0.8914 0.82845,0.2165 0.97107,0.18773 0.65184,-0.1315 z m -37.021531,-0.48017 c -0.07611,-0.29104 -0.184025,-0.52917 -0.239813,-0.52917 -0.05579,0 -0.101433,0.23813 -0.101433,0.52917 0,0.29104 0.107916,0.52917 0.239813,0.52917 0.131897,0 0.177542,-0.23813 0.101433,-0.52917 z m 6.802504,0.27289 c 0,-0.14095 0.163229,-0.19364 0.362732,-0.11709 0.199503,0.0766 0.422057,-0.0165 0.494565,-0.20674 0.09404,-0.24678 -0.161611,-0.34963 -0.891899,-0.35882 -0.945639,-0.0119 -1.301525,0.30836 -0.847343,0.76254 0.266879,0.26688 0.881945,0.21116 0.881945,-0.0799 z m 6.077757,0.002 c 0.56184,-0.35532 0.26938,-0.49649 -0.71724,-0.34621 -0.47146,0.0718 -0.79186,0.23629 -0.71199,0.36551 0.18811,0.30438 0.93333,0.29432 1.42923,-0.0193 z m 5.21548,-0.32452 c -0.0845,-0.21107 -0.14715,-0.14838 -0.15985,0.15985 -0.0115,0.27891 0.0511,0.43518 0.13897,0.34727 0.0879,-0.0879 0.0973,-0.31613 0.0209,-0.50712 z m 16.50804,-0.10448 c 0.41277,-0.43969 0.49995,-0.65191 0.24456,-0.59531 -0.21829,0.0484 -0.48234,0.2963 -0.58679,0.55096 -0.26238,0.63969 -0.7184,0.58467 -0.54821,-0.0661 0.0962,-0.36801 0.008,-0.52916 -0.28935,-0.52916 -0.50256,0 -0.56314,0.55252 -0.11024,1.00541 0.44301,0.44301 0.56261,0.4091 1.29003,-0.36575 z m 0.83987,0.50802 c -0.1819,-0.0734 -0.47956,-0.0734 -0.66146,0 -0.1819,0.0734 -0.0331,0.13346 0.33073,0.13346 0.3638,0 0.51263,-0.0601 0.33073,-0.13346 z m -24.72531,-0.40694 c 0.3927,-0.3927 0.41901,-1.72123 0.0366,-1.84869 -0.15449,-0.0515 -0.74981,-0.0489 -1.32292,0.006 -0.8447,0.0805 -1.04202,0.20289 -1.04202,0.64606 0,1.17868 1.54984,1.97539 2.32833,1.19689 z m -1.08102,-0.37545 c -0.0901,-0.0901 0.0148,-0.34239 0.23309,-0.56067 0.45997,-0.45996 0.77308,-0.2783 0.54496,0.31617 -0.16253,0.42354 -0.49464,0.52791 -0.77805,0.2445 z m 19.39018,0.42837 c 0,-0.14552 -0.29765,-0.26458 -0.66146,-0.26458 -0.3638,0 -0.66145,0.11906 -0.66145,0.26458 0,0.14552 0.29765,0.26458 0.66145,0.26458 0.36381,0 0.66146,-0.11906 0.66146,-0.26458 z m 1.32292,-0.85993 c 0,-0.4367 -0.46585,0.0601 -0.61636,0.65737 -0.14575,0.57832 -0.13755,0.58134 0.23264,0.0858 0.21105,-0.28248 0.38372,-0.61693 0.38372,-0.74322 z m -11.1125,-1.55371 c 0,-1.27507 0.099,-1.8221 0.33073,-1.82774 0.18355,-0.004 0.12467,-0.12806 -0.13229,-0.27773 -0.49104,-0.286 -0.64588,-1.30172 -0.19844,-1.30172 0.14552,0 0.26458,0.19248 0.26458,0.42773 0,0.29747 0.16116,0.38559 0.52917,0.28936 0.30293,-0.0792 0.5309,-0.008 0.53322,0.16757 0.002,0.1711 0.1171,0.13103 0.26053,-0.0909 0.15173,-0.2348 0.25813,-0.26904 0.26053,-0.0838 0.002,0.17562 0.35246,0.30312 0.7978,0.29046 0.43657,-0.0124 0.79375,-0.0679 0.79375,-0.12339 0,-0.22255 -1.34063,-2.72907 -1.45966,-2.72907 -0.0703,0 -0.11374,0.0893 -0.0965,0.19844 0.10096,0.63943 -0.0902,0.8883 -0.62394,0.81215 -0.81484,-0.11625 -0.92705,-0.9922 -0.1976,-1.54243 0.52181,-0.39359 0.55003,-0.51598 0.24924,-1.08049 -0.18657,-0.35014 -0.48409,-0.75569 -0.66114,-0.90121 -0.17706,-0.14552 -0.39801,-0.592 -0.49099,-0.99218 -0.2401,-1.0333 -0.62106,-0.90105 -0.95274,0.33072 -0.15674,0.58209 -0.41296,1.05834 -0.56939,1.05834 -0.27387,0 -0.23303,0.47672 0.1867,2.17952 0.21021,0.8528 -0.44169,1.26887 -1.22329,0.78076 -0.40581,-0.25344 -0.56231,-0.16108 -1.04188,0.61487 -0.31038,0.50221 -0.48889,1.03519 -0.39667,1.18439 0.0922,0.1492 -0.006,0.33797 -0.21853,0.41947 -0.31421,0.12058 -0.28035,0.25892 0.18166,0.74222 0.51152,0.53509 0.61462,0.55477 1.03912,0.19836 0.41934,-0.35209 0.51758,-0.34935 0.89183,0.0249 0.38438,0.38438 0.37229,0.46193 -0.14053,0.90102 -0.64031,0.54825 -0.69933,1.0846 -0.19279,1.75189 0.43079,0.5675 0.78706,0.58683 1.21919,0.0661 0.39753,-0.47899 -0.0146,-0.53241 -0.51041,-0.0661 -0.28962,0.27238 -0.31974,0.19069 -0.17073,-0.46302 0.0995,-0.43656 0.35301,-0.92594 0.56333,-1.0875 0.51227,-0.39353 0.48227,-0.89152 -0.0806,-1.33851 -0.425,-0.33748 -0.40871,-0.36161 0.19844,-0.29375 0.53428,0.0597 0.67742,0.2396 0.7445,0.93564 0.0578,0.59938 -0.0453,0.91096 -0.33851,1.02348 -0.385,0.14774 -0.38511,0.1884 -0.001,0.46906 0.34253,0.25046 0.36688,0.44772 0.13164,1.06644 -0.25442,0.66918 -0.24059,0.71927 0.11669,0.42276 0.29213,-0.24244 0.40531,-0.84452 0.40531,-2.15605 z m -3.10885,-2.2595 c -0.62446,-0.25198 -0.3299,-0.53282 0.59531,-0.5676 0.50932,-0.0192 0.92604,0.0769 0.92604,0.21341 0,0.13652 -0.17859,0.17969 -0.39688,0.0959 -0.21828,-0.0838 -0.39687,-0.0205 -0.39687,0.14059 0,0.3084 -0.18198,0.33783 -0.7276,0.11767 z m 1.95742,-0.006 c -0.0918,-0.0918 -0.0586,-0.2974 0.0738,-0.45689 0.13237,-0.1595 0.28017,-0.69706 0.32844,-1.19459 0.0483,-0.49754 0.25556,-0.95979 0.46065,-1.02723 0.25131,-0.0827 0.32086,0.013 0.2133,0.29326 -0.0878,0.22873 -0.0174,0.47619 0.15628,0.54991 0.21424,0.0909 0.1669,0.22832 -0.14716,0.42712 -0.25466,0.16119 -0.46302,0.51826 -0.46302,0.79349 0,0.53925 -0.35103,0.88615 -0.62225,0.61493 z m 0.48997,-3.2583 c 0.0899,-0.14552 0.27556,-0.26458 0.41249,-0.26458 0.13693,0 0.24897,0.11906 0.24897,0.26458 0,0.14552 -0.18562,0.26458 -0.41249,0.26458 -0.22687,0 -0.33891,-0.11906 -0.24897,-0.26458 z m 0.13229,-0.80936 c 0,-0.15411 0.11907,-0.20662 0.26459,-0.11668 0.14552,0.0899 0.26458,0.21603 0.26458,0.2802 0,0.0642 -0.11906,0.11667 -0.26458,0.11667 -0.14552,0 -0.26459,-0.12609 -0.26459,-0.28019 z m 13.44084,8.42936 c 0.80556,-0.80557 -0.0936,-2.82466 -1.08804,-2.44307 -0.32036,0.12293 -0.41038,0.47949 -0.369,1.46149 0.047,1.11522 0.13144,1.2989 0.59714,1.29898 0.29832,6e-5 0.68527,-0.14277 0.8599,-0.3174 z m -0.74084,-1.53458 c 0,-0.29104 0.11907,-0.52917 0.26459,-0.52917 0.14552,0 0.26458,0.23813 0.26458,0.52917 0,0.29104 -0.11906,0.52916 -0.26458,0.52916 -0.14552,0 -0.26459,-0.23812 -0.26459,-0.52916 z m -16.13958,1.32291 c -0.21828,-0.14106 -0.51594,-0.25647 -0.66146,-0.25647 -0.14552,0 -0.086,0.11541 0.13229,0.25647 0.21828,0.14107 0.51594,0.25648 0.66146,0.25648 0.14552,0 0.086,-0.11541 -0.13229,-0.25648 z m 5.7199,-0.46302 c 0.20018,-0.54797 0.17042,-0.87792 -0.12055,-1.3365 -0.52828,-0.83258 -0.0312,-1.39598 0.78302,-0.8875 0.30158,0.18834 0.5665,0.30443 0.58871,0.25796 0.0222,-0.0465 0.1822,-0.33953 0.35553,-0.65126 0.51483,-0.92588 -0.0327,-1.1109 -1.8191,-0.61473 -1.12508,0.31248 -1.39755,1.06201 -0.75881,2.08737 0.30204,0.48487 0.32017,0.66771 0.0743,0.74965 -0.42321,0.14107 -0.41946,0.77588 0.006,0.94739 0.5652,0.22806 0.61814,0.19525 0.89126,-0.55238 z m 1.7363,0.1323 c 0.0514,-0.36109 0.25693,-0.58251 0.52247,-0.56275 0.54709,0.0407 0.78954,-1.2618 0.31704,-1.70319 -0.39208,-0.36625 -0.74635,0.041 -0.52881,0.60787 0.0775,0.20191 0.0287,0.40457 -0.1084,0.45035 -0.327,0.10919 -0.81051,1.80303 -0.51468,1.80303 0.12524,0 0.26581,-0.26789 0.31238,-0.59531 z m -9.89632,-0.0811 c 1.18787,-0.83202 0.34577,-2.52863 -1.0372,-2.08969 -0.4472,0.14193 -0.51774,0.31949 -0.38688,0.97377 0.088,0.44011 0.16003,0.9639 0.16003,1.16399 0,0.4815 0.53714,0.46107 1.26405,-0.0481 z m -0.4703,-0.64646 c 0,-0.14552 0.11907,-0.26458 0.26459,-0.26458 0.14552,0 0.26458,0.11906 0.26458,0.26458 0,0.14552 -0.11906,0.26458 -0.26458,0.26458 -0.14552,0 -0.26459,-0.11906 -0.26459,-0.26458 z m 9.525,0.79375 c 0,-0.14552 -0.0525,-0.26458 -0.11667,-0.26458 -0.0642,0 -0.19027,0.11906 -0.2802,0.26458 -0.0899,0.14552 -0.0374,0.26458 0.11667,0.26458 0.15411,0 0.2802,-0.11906 0.2802,-0.26458 z m 2.04501,0.10473 c -0.0879,-0.0879 -0.31612,-0.0973 -0.50712,-0.0209 -0.21106,0.0845 -0.14837,0.14715 0.15986,0.15985 0.27891,0.0115 0.43518,-0.0511 0.34726,-0.13897 z m -20.936769,-1.35459 c -0.06422,-0.68742 -0.258627,-1.29714 -0.432021,-1.35494 -0.232703,-0.0776 -0.224431,-0.16122 0.03158,-0.31945 0.223669,-0.13823 0.375421,-0.92607 0.42731,-2.21842 0.04425,-1.10223 0.09434,-2.09269 0.1113,-2.20101 0.01696,-0.10832 0.01673,-0.92457 -5.03e-4,-1.8139 -0.03129,-1.61465 -0.03237,-1.61676 -0.758936,-1.48192 -0.400182,0.0743 -0.817133,0.26611 -0.926558,0.42633 -0.109425,0.16021 -0.188767,2.08269 -0.176316,4.27218 0.01245,2.18949 -0.0601,4.42191 -0.161221,4.96094 l -0.183859,0.98005 h 1.092986 1.092986 l -0.116759,-1.24986 z m 1.693845,0.98528 c -0.518152,-0.33486 -0.86841,-0.33486 -0.661458,0 0.08994,0.14552 0.364854,0.26276 0.610927,0.26053 0.385571,-0.003 0.392555,-0.0395 0.05053,-0.26053 z m 3.036721,-0.35061 c 0.364141,-0.55575 0.358339,-0.72165 -0.06005,-1.7171 -0.528146,-1.2566 -0.657056,-1.31024 -1.389174,-0.57813 -0.762461,0.76247 -0.723395,2.32024 0.06615,2.63759 0.870182,0.34978 0.941072,0.33223 1.383074,-0.34236 z m -0.920054,-0.0652 c 0,-0.0832 0.178593,-0.32978 0.396875,-0.54806 0.352777,-0.35278 0.396875,-0.33598 0.396875,0.15119 0,0.31078 -0.171827,0.54806 -0.396875,0.54806 -0.218282,0 -0.396875,-0.068 -0.396875,-0.15119 z m 23.009437,-0.096 c 0.35135,-0.6565 0.3515,-1.52571 2.7e-4,-1.74276 -0.17157,-0.10604 -0.22773,0.0839 -0.15059,0.50924 0.0677,0.37309 0.032,0.73458 -0.0792,0.8033 -0.1952,0.12064 -0.24523,-0.0449 -0.35338,-1.16957 -0.0376,-0.39095 -0.2029,-0.49641 -0.65079,-0.41519 -0.95386,0.17297 -1.1383,0.38485 -1.1383,1.30764 0,1.08113 0.13869,1.21911 1.22542,1.21911 0.59196,0 0.96073,-0.16461 1.14653,-0.51177 z m 6.18752,-2.26636 c -0.0217,-1.45521 -0.0515,-3.56856 -0.0661,-4.69635 l -0.0267,-2.05052 h -0.77813 c -0.42798,0 -0.85172,-0.11906 -0.94166,-0.26459 -0.0899,-0.14552 -0.28928,-0.26458 -0.44298,-0.26458 -0.18427,0 -0.21772,0.49406 -0.0982,1.4506 0.0997,0.79783 0.0836,1.6015 -0.0357,1.78594 -0.27251,0.42132 -0.28798,6.36783 -0.0171,6.56951 0.1099,0.0818 0.70521,0.14135 1.32292,0.13229 l 1.12311,-0.0165 z m -10.33251,2.07327 c -0.11361,-0.29604 -0.0675,-0.37761 0.14059,-0.24897 0.17025,0.10522 0.30955,0.069 0.30955,-0.0806 0,-0.14954 0.17859,-0.20336 0.39687,-0.1196 0.28879,0.11082 0.39688,-0.0313 0.39688,-0.52185 0,-0.37078 0.11906,-0.74774 0.26458,-0.83767 0.47571,-0.29401 0.27801,-0.66146 -0.35587,-0.66146 -0.74706,0 -1.3874,0.65527 -1.6437,1.68204 -0.13068,0.52351 -0.076,0.82739 0.17782,0.98814 0.49483,0.31338 0.50725,0.30545 0.31328,-0.20004 z m 1.24389,0.18399 c 0,-0.14095 -0.1786,-0.18774 -0.39688,-0.10398 -0.21828,0.0838 -0.39687,0.19909 -0.39687,0.25628 0,0.0572 0.17859,0.10398 0.39687,0.10398 0.21828,0 0.39688,-0.11532 0.39688,-0.25628 z m -21.828129,-0.27284 c -0.08994,-0.14552 -0.424385,-0.26276 -0.743219,-0.26053 -0.471285,0.003 -0.505475,0.052 -0.182822,0.26053 0.521259,0.33686 1.134235,0.33686 0.926041,0 z m 10.451039,-0.13229 c -0.18115,-0.21828 -0.51615,-0.39688 -0.74442,-0.39688 -0.33226,0 -0.31261,0.0775 0.0985,0.38846 0.67193,0.50823 1.06494,0.51335 0.64588,0.008 z M 91.648297,173.6106 c -0.06655,-0.25466 -0.121,-0.0463 -0.121,0.46302 0,0.50932 0.05445,0.71768 0.121,0.46302 0.06655,-0.25466 0.06655,-0.67138 0,-0.92604 z m 10.606663,0.84489 c 0.57603,-0.40346 0.74858,-1.24314 0.42744,-2.08002 -0.2352,-0.61292 -1.8328,-0.54179 -2.48524,0.11065 -0.636829,0.63683 -0.661633,1.01605 -0.11729,1.79321 0.48151,0.68745 1.34525,0.75741 2.17509,0.17616 z m -0.99946,-0.26064 c 0,-0.0788 0.23812,-0.39895 0.52916,-0.71135 0.39057,-0.41923 0.52917,-0.46484 0.52917,-0.17414 0,0.21661 -0.14288,0.53672 -0.3175,0.71134 -0.32844,0.32844 -0.74083,0.42538 -0.74083,0.17415 z m 5.80301,-0.13224 c -0.36284,-0.22425 -1.04051,-0.0502 -1.04051,0.26721 0,0.10977 0.3086,0.14059 0.68578,0.0685 0.45979,-0.0879 0.57669,-0.19852 0.35473,-0.3357 z m -10.334828,0.0376 c 0.199638,-0.12646 0.318701,-0.34465 0.264584,-0.48486 -0.05412,-0.14021 -0.455582,-0.0355 -0.892145,0.23259 -0.648244,0.39815 -0.696746,0.48703 -0.264583,0.48486 0.291042,-0.002 0.692507,-0.10613 0.892144,-0.23259 z m 26.294868,-0.35728 c 0.0864,-0.25684 0.21101,-0.24842 0.5576,0.0377 0.24547,0.20263 0.52909,0.28564 0.63028,0.18445 0.10118,-0.10118 -0.18823,-0.47526 -0.64313,-0.83128 -0.59601,-0.46645 -0.79623,-0.81368 -0.7166,-1.24279 0.0652,-0.35139 -0.0137,-0.27012 -0.19255,0.19827 -0.16667,0.43656 -0.41636,0.93736 -0.55487,1.11289 -0.13851,0.17552 -0.17503,0.44341 -0.0811,0.59531 0.23563,0.38126 0.86529,0.34692 1.00042,-0.0546 z m -0.59639,-0.46302 c 0,-0.14552 0.18562,-0.26458 0.41249,-0.26458 0.22687,0 0.33891,0.11906 0.24897,0.26458 -0.0899,0.14552 -0.27556,0.26458 -0.41249,0.26458 -0.13693,0 -0.24897,-0.11906 -0.24897,-0.26458 z m -26.070994,-0.45833 c 0.898311,-1.32199 0.866546,-1.8342 -0.122753,-1.9794 -0.62654,-0.0919 -0.79375,-0.018 -0.79375,0.35123 0,0.56311 0.440573,0.89703 0.590419,0.44749 0.07075,-0.21225 0.163986,-0.22624 0.278032,-0.0417 0.09437,0.15269 -0.06242,0.5288 -0.348434,0.8358 -0.464173,0.49823 -0.717388,1.37405 -0.397264,1.37405 0.06751,0 0.424702,-0.44436 0.79375,-0.98746 z m 10.086264,-1.05174 c 0.42415,-0.98849 1.16302,-2.51164 1.64192,-3.38476 0.4789,-0.87313 1.19327,-2.26817 1.5875,-3.10011 0.39422,-0.83193 0.83583,-1.51576 0.98135,-1.51961 0.29604,-0.008 1.97745,2.92609 4.11626,7.18256 l 1.42074,2.82742 1.87837,-3.56041 c 1.03311,-1.95823 1.97926,-3.4687 2.10257,-3.35659 0.12331,0.1121 0.14246,0.0613 0.0426,-0.11285 -0.0999,-0.17417 0.42912,-1.60292 1.17561,-3.175 1.87059,-3.93941 6.52554,-13.24042 7.1907,-14.3677 0.30053,-0.50933 0.38449,-0.77722 0.18658,-0.59532 -0.19791,0.18191 -0.60392,0.33109 -0.90224,0.33153 -0.65297,9.5e-4 -0.76122,0.19583 -6.80615,12.25265 -2.57887,5.14365 -4.61442,8.90313 -4.78904,8.84493 -0.34125,-0.11375 -4.42533,-8.01899 -4.42533,-8.56576 0,-0.19303 1.36922,-3.09938 3.04271,-6.45857 1.67349,-3.35918 3.04271,-6.15958 3.04271,-6.22311 0,-0.0635 -0.53578,-0.11552 -1.19062,-0.11552 -0.98194,0 -1.19063,0.0858 -1.19063,0.48934 0,0.26914 -0.6957,1.96578 -1.546,3.77031 -0.8503,1.80454 -1.82471,3.96559 -2.16535,4.80233 -0.60473,1.48543 -1.31573,2.03149 -1.31573,1.0105 0,-0.28097 -1.01203,-2.54451 -2.24896,-5.03008 -1.23693,-2.48558 -2.24896,-4.69648 -2.24896,-4.91311 0,-0.28215 -0.29578,-0.39387 -1.04272,-0.39387 -1.29079,0 -1.51544,0.32215 -0.87766,1.25857 0.27188,0.39919 0.87166,1.55924 1.33285,2.57789 0.46119,1.01864 1.33418,2.80458 1.93999,3.96875 0.6058,1.16416 1.43608,2.76592 1.84506,3.55947 l 0.7436,1.4428 -0.92126,1.75316 c -0.54876,1.0443 -0.85267,1.93191 -0.75163,2.19522 0.10753,0.28022 0.0372,0.44205 -0.19221,0.44205 -0.19902,0 -0.7773,0.86026 -1.28508,1.91168 -0.50778,1.05142 -1.04229,1.94137 -1.18781,1.97768 -0.14553,0.0363 -1.2684,-1.98482 -2.49529,-4.49137 -1.22688,-2.50655 -3.407097,-6.93861 -4.844921,-9.84903 -1.891817,-3.82938 -2.578156,-5.47695 -2.483694,-5.96215 0.127008,-0.65238 0.09351,-0.66927 -1.240492,-0.62537 -0.754063,0.0248 -1.349206,0.14793 -1.322539,0.27361 0.02667,0.12567 1.306588,2.8164 2.844271,5.97939 1.537682,3.16299 2.795785,5.81896 2.795785,5.90216 0,0.14227 5.03248,10.25484 5.57089,11.19447 0.13734,0.2397 0.36861,0.7704 0.51392,1.17933 0.14531,0.40894 0.36387,0.68193 0.48569,0.60664 0.12182,-0.0753 0.56852,-0.94565 0.99268,-1.93415 z m -2.40381,1.51003 c 0.0899,-0.14552 -0.0221,-0.26458 -0.24897,-0.26458 -0.22687,0 -0.41249,0.11906 -0.41249,0.26458 0,0.14552 0.11204,0.26458 0.24897,0.26458 0.13693,0 0.32255,-0.11906 0.41249,-0.26458 z m 20.40963,-1.05833 c 0.0281,-1.07144 -0.0686,-1.18179 -0.79212,-0.90415 -0.44486,0.17071 -0.3229,0.7655 0.30747,1.49946 0.21871,0.25466 0.41099,0.46302 0.42728,0.46302 0.0163,0 0.0421,-0.47625 0.0574,-1.05833 z m -0.69817,-0.52917 c 0,-0.14552 0.11906,-0.26458 0.26458,-0.26458 0.14552,0 0.26459,0.11906 0.26459,0.26458 0,0.14552 -0.11907,0.26458 -0.26459,0.26458 -0.14552,0 -0.26458,-0.11906 -0.26458,-0.26458 z m -1.91823,0.97911 c 0.1819,-0.13759 0.32998,-0.62253 0.32906,-1.07765 -0.001,-0.64624 -0.17987,-0.92892 -0.81519,-1.29052 -1.02907,-0.5857 -1.18268,-0.58015 -1.82897,0.0661 -1.0704,1.07041 -0.34456,2.68838 1.1664,2.60002 0.44988,-0.0263 0.9668,-0.16041 1.1487,-0.29799 z m -29.909224,-1.57134 c -0.06329,-0.32911 -0.117469,-0.12214 -0.120406,0.45994 -0.0029,0.58208 0.04884,0.85136 0.115066,0.5984 0.06622,-0.25297 0.06863,-0.72922 0.0053,-1.05834 z m 11.481304,0.40376 c -0.25415,-0.43672 -0.27588,-0.43072 -0.2833,0.0782 -0.009,0.61247 0.32681,1.09003 0.46818,0.66591 0.0497,-0.14913 -0.0335,-0.48399 -0.18488,-0.74414 z m 15.1253,0.43069 c -0.10966,-0.41933 -0.19788,-0.46689 -0.36806,-0.19844 -0.32593,0.51417 -0.28185,0.74997 0.14018,0.74997 0.24687,0 0.32356,-0.18562 0.22788,-0.55153 z m -18.716751,0.0107 c 0.09389,-0.15192 -0.02885,-0.5808 -0.272765,-0.95305 -0.243912,-0.37226 -0.384384,-0.90281 -0.312159,-1.17899 0.188697,-0.72158 -0.738048,-0.65838 -1.259348,0.0859 -0.544346,0.77717 -0.519543,1.15639 0.117289,1.79322 0.570562,0.57056 1.450988,0.69952 1.726983,0.25295 z m -1.065525,-0.51752 c -0.08994,-0.14552 0.0221,-0.26459 0.248969,-0.26459 0.226869,0 0.41249,0.11907 0.41249,0.26459 0,0.14552 -0.112036,0.26458 -0.248969,0.26458 -0.136932,0 -0.322553,-0.11906 -0.41249,-0.26458 z m 3.373436,-0.36832 c 0.57522,-0.43665 0.59743,-1.31157 0.0472,-1.86174 -0.53122,-0.53123 -1.15882,-0.52766 -1.92779,0.011 -0.47637,0.33366 -0.571188,0.57832 -0.434774,1.12183 0.279564,1.11385 1.360124,1.45406 2.315324,0.72897 z m -0.69153,-0.36707 c -0.0974,-0.15751 -0.0541,-0.36237 0.0962,-0.45524 0.15027,-0.0929 0.20471,-0.27969 0.12099,-0.41515 -0.0837,-0.13547 -0.0332,-0.24631 0.11236,-0.24631 0.46311,0 0.55491,0.43554 0.19544,0.92715 -0.22551,0.30839 -0.41032,0.37512 -0.52501,0.18955 z m -8.988969,-0.38909 c -0.0734,-0.1819 -0.133452,-0.0331 -0.133452,0.33073 0,0.3638 0.06005,0.51263 0.133452,0.33073 0.0734,-0.1819 0.0734,-0.47956 0,-0.66146 z m 31.574769,-0.47233 c 0,-0.52652 -0.40708,-0.65163 -1.16898,-0.35926 -0.49728,0.19082 -0.55952,1.06766 -0.0878,1.23681 0.53298,0.19111 1.25677,-0.31428 1.25677,-0.87755 z m -32.351995,-1.6396 c -0.05889,-0.47555 -0.108281,-0.15026 -0.109766,0.72287 -0.0015,0.87312 0.04669,1.26221 0.107066,0.86463 0.06037,-0.39758 0.06159,-1.11195 0.0027,-1.5875 z m 4.769185,1.8923 c -0.655263,-0.38166 -0.582135,-0.84602 0.09918,-0.62978 0.56312,0.17872 1.125525,-0.29573 0.859937,-0.72546 -0.213258,-0.34506 -1.068612,-0.24016 -1.411598,0.17311 -0.414704,0.49969 -0.10204,1.4702 0.470313,1.45986 0.406093,-0.007 0.404527,-0.0317 -0.01783,-0.27773 z m 12.68866,-0.96342 c -0.46019,-0.46019 -0.58586,-0.20206 -0.28426,0.5839 0.11934,0.311 0.24906,0.35466 0.45168,0.15204 0.20263,-0.20262 0.15454,-0.41397 -0.16742,-0.73594 z m 3.51707,0.72005 c 0,-0.14552 -0.0525,-0.26459 -0.11668,-0.26459 -0.0642,0 -0.19026,0.11907 -0.2802,0.26459 -0.0899,0.14552 -0.0374,0.26458 0.11668,0.26458 0.15411,0 0.2802,-0.11906 0.2802,-0.26458 z m 16.08785,-1.72777 c 0.0163,-1.20247 -0.073,-1.93055 -0.22521,-1.83647 -0.31239,0.19307 -0.33804,3.82882 -0.027,3.82882 0.12386,0 0.23736,-0.89656 0.25222,-1.99235 z m 0.49967,1.0052 c -0.0671,-0.25743 -0.12638,-0.11087 -0.13177,0.32569 -0.005,0.43657 0.0495,0.64719 0.12197,0.46806 0.0725,-0.17913 0.0769,-0.53632 0.01,-0.79375 z m -9.44377,0.0455 c 0,-0.22687 -0.11906,-0.3389 -0.26458,-0.24896 -0.14552,0.0899 -0.26459,0.27555 -0.26459,0.41249 0,0.13693 0.11907,0.24896 0.26459,0.24896 0.14552,0 0.26458,-0.18562 0.26458,-0.41249 z m 2.67993,-0.59805 c 0.23874,-0.64537 -0.49356,-1.63529 -1.20972,-1.63529 -0.41498,0 -1.20563,0.98054 -1.20563,1.49518 0,1.1666 1.99287,1.2822 2.41535,0.14011 z m -5.98722,-0.0478 c 0.0899,-0.14552 0.0374,-0.26458 -0.11668,-0.26458 -0.15411,0 -0.2802,0.11906 -0.2802,0.26458 0,0.14552 0.0525,0.26458 0.11668,0.26458 0.0642,0 0.19026,-0.11906 0.2802,-0.26458 z m 7.54746,0.0657 c 0.66645,0.41621 0.82474,0.19504 0.54886,-0.7669 -0.1349,-0.47037 -0.12764,-0.97958 0.0177,-1.23924 0.19294,-0.34476 0.13461,-0.44078 -0.26778,-0.44078 -0.45698,0 -0.48969,0.10977 -0.29281,0.98271 l 0.22164,0.98271 -0.66555,-0.85042 c -0.36606,-0.46773 -0.90564,-0.85042 -1.19907,-0.85042 -0.50213,0 -0.49323,0.0479 0.15147,0.81406 0.37674,0.44772 0.69438,1.01327 0.70587,1.25677 0.0122,0.25954 0.0748,0.30982 0.15116,0.12153 0.10054,-0.24789 0.24398,-0.25017 0.62853,-0.01 z m -23.60767,-0.38317 c 0.81121,-0.81121 0.0143,-2.59292 -1.159817,-2.59292 -1.273117,0 -1.946379,1.56331 -1.110979,2.57969 0.346282,0.4213 1.853942,0.43008 2.270796,0.0132 z m -0.818357,-0.12305 c -0.07707,-0.12471 0.01647,-0.44091 0.207877,-0.70268 0.24297,-0.33228 0.40506,-0.38363 0.53701,-0.17013 0.10395,0.16819 0.0104,0.4844 -0.20788,0.70268 -0.218277,0.21828 -0.459932,0.29484 -0.537007,0.17013 z m 2.194187,-0.0886 c 0,-0.14552 -0.11906,-0.26458 -0.26458,-0.26458 -0.14552,0 -0.26458,0.11906 -0.26458,0.26458 0,0.14553 0.11906,0.26459 0.26458,0.26459 0.14552,0 0.26458,-0.11906 0.26458,-0.26459 z m 4.33818,-0.15616 c 0.20082,-0.52333 -0.0164,-0.90217 -0.51733,-0.90217 -0.41219,0 -0.47264,0.24776 -0.22066,0.9044 0.20575,0.53618 0.53176,0.53519 0.73799,-0.002 z m -9.100677,-0.68006 c 0,-0.32336 -0.369712,-0.27186 -0.779775,0.10862 -0.293099,0.27196 -0.320677,0.23669 -0.15519,-0.19844 0.498267,-1.31014 0.495491,-1.51146 -0.01939,-1.40561 -0.315607,0.0649 -0.478179,0.29494 -0.439542,0.622 0.03372,0.28547 0.08831,0.77306 0.121304,1.08354 0.05184,0.4878 0.142376,0.52697 0.666288,0.28826 0.333466,-0.15194 0.606301,-0.3762 0.606301,-0.49837 z m 19.544247,0.33424 c 0.29106,-0.18439 0.24701,-0.34426 -0.22489,-0.81616 -0.67631,-0.67631 -1.22039,-0.38798 -0.93927,0.49776 0.18709,0.58947 0.57067,0.69438 1.16416,0.3184 z M 92.354422,165.629 c -0.16402,-0.19082 -0.31085,0.085 -0.4815,0.90454 l -0.16517,0.79321 0.370715,-0.79375 c 0.203892,-0.43657 0.328072,-0.84336 0.275955,-0.904 z m 13.303308,0.37483 c 0.0838,-0.21828 0.0756,-0.59661 -0.018,-0.84072 -0.15612,-0.40687 -0.2056,-0.40858 -0.59365,-0.0205 -0.43637,0.43636 -0.31998,1.2581 0.17819,1.2581 0.15466,0 0.34973,-0.17859 0.43349,-0.39687 z m 1.38297,-0.27809 c 0.0836,-0.43156 0.039,-0.45099 -0.33073,-0.14411 -0.50568,0.41968 -0.56865,0.9102 -0.0967,0.75305 0.1819,-0.0606 0.37423,-0.33459 0.42739,-0.60894 z m 10.60365,0.29654 c 0.25131,-0.30281 0.20382,-0.43742 -0.23766,-0.67369 -0.66709,-0.35702 -1.06994,-0.15424 -1.06994,0.53856 0,0.61238 0.83952,0.69914 1.3076,0.13513 z m 3.87067,-0.15074 c 0,-0.29104 -0.0298,-0.52917 -0.0663,-0.52917 -0.0365,0 -0.19373,0.23813 -0.34949,0.52917 -0.21676,0.40502 -0.20121,0.52916 0.0663,0.52916 0.19222,0 0.34949,-0.23812 0.34949,-0.52916 z m -5.72224,-0.50151 c 0.218,-0.40735 0.0707,-0.74976 -0.7844,-1.82376 -0.95268,-1.19652 -1.75954,-1.81877 -2.02027,-1.55804 -0.0538,0.0538 0.0839,0.53289 0.30601,1.06456 0.30026,0.71864 0.56138,0.96666 1.0177,0.96666 0.81615,0 1.05267,0.2756 0.55121,0.64228 -0.46875,0.34276 -0.25224,1.20981 0.30209,1.20981 0.19759,0 0.48004,-0.22568 0.62766,-0.50151 z m 11.92105,0.23692 c 0,-0.14552 -0.20836,-0.26276 -0.46302,-0.26053 -0.3957,0.003 -0.40532,0.0413 -0.0662,0.26053 0.49932,0.32269 0.52917,0.32269 0.52917,0 z m 1.39951,-0.5289 c 0.0761,-0.2909 0.0304,-0.59558 -0.10143,-0.67707 -0.13186,-0.0815 -0.23975,0.15651 -0.23975,0.5289 0,0.8107 0.1508,0.87619 0.34118,0.14817 z m -1.97819,-0.15318 c 0.35449,-0.18391 0.83806,-0.26674 1.07462,-0.18408 0.33535,0.11718 0.36217,0.0767 0.12175,-0.18377 -0.24756,-0.2682 -0.46927,-0.25379 -1.12448,0.0731 -0.78981,0.39401 -1.05926,0.28958 -0.5857,-0.22699 0.37239,-0.40622 0.60386,-1.70656 0.30378,-1.70656 -0.14829,0 -0.26962,0.28901 -0.26962,0.64225 0,0.74827 -1.19614,1.81062 -1.82752,1.6231 -0.23179,-0.0688 -0.83816,-0.0199 -1.34748,0.10867 -0.76873,0.19412 -0.59171,0.23001 1.04205,0.21127 1.08245,-0.0124 2.25812,-0.17305 2.6126,-0.35696 z m -28.393196,-0.49233 c 0.145521,-0.17998 0.443177,-0.39669 0.661459,-0.48157 0.326468,-0.12694 0.318086,-0.15803 -0.04725,-0.17521 -0.244268,-0.0115 -0.601455,0.13565 -0.79375,0.32698 -0.192296,0.19132 -0.587753,0.49467 -0.878795,0.67409 -0.491269,0.30286 -0.481794,0.31393 0.132292,0.15458 0.363802,-0.0944 0.78052,-0.31889 0.926041,-0.49887 z m 19.711456,0.24837 c 0,-0.21828 -0.11302,-0.39687 -0.25117,-0.39687 -0.40237,0 -1.86314,-1.66382 -2.03257,-2.31511 -0.0939,-0.36096 -0.35803,-0.59531 -0.67097,-0.59531 -0.28386,0 -0.44252,-0.11906 -0.35258,-0.26458 0.0899,-0.14552 0.45415,-0.26459 0.80937,-0.26459 0.49217,0 0.6468,0.14165 0.64989,0.59532 0.002,0.32742 0.13078,0.7739 0.28566,0.99218 0.21121,0.29767 0.2502,0.12053 0.15596,-0.70866 -0.0946,-0.83257 -0.0411,-1.0731 0.21674,-0.97415 0.18832,0.0723 0.421,0.004 0.51707,-0.15123 0.10393,-0.16817 -0.0643,-0.28262 -0.41543,-0.28262 -0.32455,0 -0.80783,-0.19705 -1.07395,-0.43788 -0.52923,-0.47895 -0.68041,-0.1291 -0.16635,0.38496 0.24694,0.24695 0.23225,0.3183 -0.0661,0.32111 -0.21101,0.002 -0.65154,0.0754 -0.97896,0.16315 -0.35719,0.0957 -0.59531,0.0414 -0.59531,-0.1359 0,-0.16249 0.17859,-0.29544 0.39687,-0.29544 0.27054,0 0.39817,-0.27374 0.40093,-0.8599 0.003,-0.65252 0.0659,-0.76418 0.26053,-0.46302 0.31007,0.4798 0.31228,0.2345 0.0119,-1.32283 l -0.22961,-1.19054 0.50572,0.62454 c 0.27814,0.3435 0.50571,0.95396 0.50571,1.35658 0,0.98176 0.54001,1.37825 1.61837,1.18827 1.00115,-0.17638 1.28528,-0.49247 1.09539,-1.2186 -0.22286,-0.85221 -0.60982,-0.84839 -0.93354,0.009 -0.1698,0.44986 -0.49099,0.80853 -0.71375,0.79704 -0.25774,-0.0133 -0.28822,-0.0683 -0.0838,-0.15116 0.24926,-0.1011 0.25074,-0.24307 0.007,-0.63397 -0.24446,-0.39144 -0.24191,-0.57635 0.0115,-0.82971 0.2583,-0.25829 0.12345,-0.42454 -0.64918,-0.80035 -0.53636,-0.26089 -1.10276,-0.47046 -1.25868,-0.46573 -0.44487,0.0135 -1.2339,1.89218 -0.94229,2.24355 0.27671,0.3334 -0.16184,0.92284 -0.68659,0.92284 -0.43843,0 -1.23753,1.28962 -1.06986,1.72657 0.0762,0.19849 0.56042,0.44005 1.07612,0.5368 0.5157,0.0967 0.87898,0.2708 0.80729,0.3868 -0.0717,0.11599 0.0945,0.15209 0.36933,0.0802 0.62964,-0.16466 0.96943,0.34741 0.55882,0.84216 -0.25183,0.30344 -0.17644,0.40808 0.39785,0.55222 0.38971,0.0978 1.01291,0.4599 1.3849,0.80465 0.7798,0.7227 1.12824,0.79371 1.12824,0.22994 z m -5.42396,-3.57187 c 0.0899,-0.14552 0.27556,-0.26459 0.41249,-0.26459 0.13694,0 0.24897,0.11907 0.24897,0.26459 0,0.14552 -0.18562,0.26458 -0.41249,0.26458 -0.22687,0 -0.3389,-0.11906 -0.24897,-0.26458 z m -17.118039,3.1957 c 0.538153,-0.27965 1.276116,-0.63711 1.639919,-0.79435 0.595927,-0.25756 0.569714,-0.27018 -0.264584,-0.12736 -0.509323,0.0872 -1.3198,0.38512 -1.801061,0.66206 -1.068677,0.61497 -3.226022,0.69673 -3.226022,0.12227 0,-0.40901 -0.477453,-0.81698 -0.698007,-0.59643 -0.0735,0.0735 0.07995,0.38308 0.340987,0.68796 0.626487,0.73168 2.644571,0.75477 4.008768,0.0459 z m 0.774511,0.34861 c -0.08792,-0.0879 -0.316122,-0.0973 -0.507119,-0.0209 -0.211066,0.0845 -0.148371,0.14716 0.159853,0.15986 0.278915,0.0115 0.435184,-0.0511 0.347266,-0.13897 z m 8.538328,-0.76619 c 0.60962,-0.50932 0.99195,-0.92604 0.84964,-0.92604 -0.33926,0 -0.62821,-1.12102 -0.35848,-1.39075 0.11509,-0.11509 0.4273,0.0317 0.6938,0.32617 0.6262,0.69194 0.9519,0.67469 1.85117,-0.098 0.69856,-0.60026 0.71812,-0.67651 0.37344,-1.45521 -0.33673,-0.76071 -1.29291,-1.17509 -1.29291,-0.5603 0,0.32859 -1.11427,0.22666 -1.41201,-0.12917 -0.12544,-0.14992 -0.1631,9e-5 -0.0869,0.34613 0.1029,0.46722 0.0306,0.59072 -0.30778,0.52558 -0.58602,-0.11282 -0.60509,-1.42033 -0.0315,-2.16069 0.23994,-0.30971 0.57427,-0.92029 0.74295,-1.35685 l 0.30669,-0.79375 -0.1221,0.82902 c -0.0672,0.45597 -0.20475,1.15834 -0.30577,1.56082 -0.13856,0.55208 -0.10195,0.68129 0.14908,0.52614 0.18719,-0.11569 0.42053,-0.0636 0.5334,0.119 0.12537,0.20284 0.26436,-0.015 0.37047,-0.58056 0.14335,-0.76412 -0.24107,-2.13519 -0.78935,-2.81532 -0.19444,-0.24119 -1.54151,1.10971 -1.6201,1.6247 -0.13559,0.88849 -0.53322,1.15544 -1.14861,0.77113 -0.29333,-0.18319 -0.64754,-0.26248 -0.78715,-0.1762 -0.40546,0.25059 -0.29409,0.86964 0.2092,1.16278 0.41907,0.24409 0.40959,0.27045 -0.0999,0.27773 -0.3096,0.004 -0.71004,-0.16924 -0.88987,-0.38591 -0.34827,-0.41965 -0.91517,-0.27723 -0.64387,0.16175 0.0885,0.14322 0.80483,0.54516 1.59182,0.8932 1.32035,0.58392 1.43008,0.70036 1.42053,1.50726 l -0.0104,0.87446 -0.3571,-0.8203 c -0.48089,-1.10467 -2.00344,-1.67417 -2.00344,-0.74937 0,0.29463 0.15358,0.36596 0.53047,0.24634 0.65057,-0.20649 1.00078,0.48891 0.53119,1.05474 -0.25487,0.30709 -0.23385,0.47273 0.10269,0.80928 0.23273,0.23273 0.42315,0.7123 0.42315,1.0657 0,0.8612 0.27651,0.81182 1.5875,-0.28348 z m -1.32292,0.0189 c 0,-0.20789 0.16976,-0.54773 0.37724,-0.75521 0.20748,-0.20748 0.41584,-0.78056 0.46302,-1.2735 0.0623,-0.6507 0.23077,-0.92202 0.61495,-0.99026 0.42796,-0.076 0.46591,-0.0284 0.19844,0.24918 -0.18191,0.18875 -0.33073,0.55069 -0.33073,0.80431 0,0.43643 -0.99016,2.34346 -1.21676,2.34346 -0.0584,0 -0.10616,-0.17009 -0.10616,-0.37798 z m 3.57187,-2.79702 c 0.0899,-0.14552 0.27556,-0.26459 0.41249,-0.26459 0.13694,0 0.24897,0.11907 0.24897,0.26459 0,0.14552 -0.18562,0.26458 -0.41249,0.26458 -0.22687,0 -0.3389,-0.11906 -0.24897,-0.26458 z m -0.13508,3.31066 c 0.38543,-0.46442 0.17476,-1.194 -0.34477,-1.194 -0.50509,0 -1.32975,0.96355 -1.11795,1.30625 0.25238,0.40835 1.08359,0.34457 1.46272,-0.11225 z m 16.96116,-0.60521 c 1.72762,-0.12361 1.85858,-0.17504 1.727,-0.67823 -0.0783,-0.29946 -0.0137,-0.6995 0.14352,-0.88898 0.73117,-0.881 1.82117,0.23079 1.25797,1.28313 -0.26305,0.49151 -0.24329,0.54573 0.14463,0.39687 0.24711,-0.0948 0.71114,-0.17241 1.03117,-0.17241 0.54941,0 0.58273,-0.11743 0.59706,-2.10477 0.011,-1.52498 -0.0824,-2.14219 -0.33893,-2.24065 -0.47824,-0.18352 -0.44976,-0.92615 0.0428,-1.11515 0.26814,-0.10289 0.39208,-0.50787 0.38209,-1.24847 l -0.0148,-1.09617 -0.4996,1.19063 c -0.27478,0.65484 -0.51649,1.48828 -0.53712,1.85208 -0.0365,0.64287 -0.0439,0.63999 -0.26621,-0.10249 -0.17188,-0.57422 -0.10053,-1.01514 0.28733,-1.77539 0.56468,-1.10688 0.66372,-1.82629 0.25142,-1.82629 -0.14552,0 -0.26837,0.32743 -0.273,0.72761 -0.009,0.75862 -0.52965,1.65364 -0.96237,1.65364 -0.13805,0 -0.48211,-0.18042 -0.76458,-0.40093 -0.4894,-0.38204 -0.48034,-0.39341 0.19227,-0.24136 0.53892,0.12184 0.77358,0.0331 0.99219,-0.37542 0.37659,-0.70366 0.3729,-0.71524 -0.24285,-0.76162 -0.30229,-0.0228 -0.52916,0.12324 -0.52916,0.34057 0,0.43591 -0.41837,0.50918 -0.66146,0.11585 -0.0899,-0.14552 -0.0304,-0.26459 0.13229,-0.26459 0.1627,0 0.21229,-0.13514 0.1102,-0.30032 -0.26038,-0.4213 -0.88283,0.77142 -0.89457,1.71416 -0.007,0.52517 -0.16917,0.79416 -0.53855,0.89075 -0.63133,0.1651 -0.67301,0.49978 -0.12986,1.04294 0.50917,0.50916 0.27863,0.88581 -0.54217,0.88581 -0.48002,0 -0.68494,0.18256 -0.81672,0.7276 -0.0968,0.40018 -0.41453,1.06872 -0.70618,1.48563 l -0.53026,0.75803 0.63499,-0.19008 c 0.61502,-0.1841 0.61844,-0.17747 0.10875,0.2107 -0.28944,0.22043 -0.59303,0.3595 -0.67465,0.30906 -0.0816,-0.0504 -0.31042,0.16848 -0.50845,0.48648 -0.32941,0.52901 -0.32233,0.54703 0.0832,0.21187 0.24379,-0.20148 1.28447,-0.42652 2.31263,-0.50009 z m 3.92347,-1.30077 c -0.049,-0.51837 -0.20799,-1.0683 -0.54732,-1.89336 l -0.36421,-0.88556 -0.87347,1.21629 c -0.4804,0.66895 -0.99505,1.21628 -1.14366,1.21628 -0.36854,0 -0.27088,-0.17121 1.07862,-1.891 l 1.17242,-1.49413 0.50213,0.93687 c 0.27618,0.51527 0.44434,1.15786 0.37371,1.42798 -0.0706,0.27011 -0.0205,0.49111 0.11138,0.49111 0.32474,0 0.30543,0.72197 -0.0248,0.92605 -0.14552,0.0899 -0.27369,0.0672 -0.28483,-0.0505 z m -1.65545,-4.2269 c -0.34687,-0.34687 -0.16731,-0.56545 0.35278,-0.42945 0.29104,0.0761 0.52917,0.24356 0.52917,0.37211 0,0.27337 -0.62527,0.31402 -0.88195,0.0573 z m -32.527212,5.83737 c -0.08792,-0.0879 -0.316122,-0.0973 -0.507118,-0.0209 -0.211067,0.0845 -0.148372,0.14715 0.159853,0.15985 0.278914,0.0115 0.435184,-0.0511 0.347265,-0.13897 z m 24.824452,-0.39237 c 0.0978,-0.1582 0.0453,-0.42014 -0.11668,-0.58209 -0.35955,-0.35954 -0.39016,-1.24694 -0.043,-1.24694 0.13829,0 0.35994,0.19388 0.49255,0.43085 0.16634,0.29722 0.2988,0.33752 0.4271,0.12992 0.30109,-0.48717 -0.10752,-1.35452 -0.63811,-1.35452 -1.01819,0 -1.32673,0.30193 -1.32673,1.29831 0,1.26288 0.74012,2.07646 1.20488,1.32447 z m -23.81961,-0.22998 c -0.08601,-0.13916 -0.331161,-0.18596 -0.544782,-0.10398 -0.546924,0.20987 -0.482474,0.35701 0.15638,0.35701 0.29963,0 0.47441,-0.11386 0.388402,-0.25303 z m 13.35113,-0.53476 c 0.22845,-0.42687 0.2058,-0.49474 -0.12298,-0.36857 -0.22165,0.0851 -0.403,0.3205 -0.403,0.52321 0,0.51682 0.19774,0.45868 0.52598,-0.15464 z m -14.482751,-0.002 c 0.285427,-0.002 0.463021,-0.20657 0.463021,-0.53278 0,-0.74068 1.058835,-0.71669 1.253682,0.0284 0.121102,0.46309 0.291328,0.53396 1.004608,0.41821 0.47234,-0.0767 1.294758,-0.041 1.827595,0.0791 0.532836,0.12018 0.925389,0.14034 0.872338,0.0448 -0.05305,-0.0955 -0.327151,-0.6785 -0.609111,-1.29548 -0.329393,-0.72078 -0.685688,-1.12275 -0.996697,-1.12448 -0.397318,-0.002 -0.453532,-0.14161 -0.313748,-0.77804 0.136827,-0.62297 0.05893,-0.83496 -0.396373,-1.07863 -0.314694,-0.16842 -0.504727,-0.46469 -0.427367,-0.66628 0.17972,-0.46835 -0.570785,-1.98023 -0.977535,-1.96924 -0.171243,0.005 -0.539732,0.18122 -0.818866,0.39243 -0.432893,0.32756 -0.46207,0.48376 -0.198437,1.06237 0.365205,0.80154 0.377845,0.91803 0.09961,0.91803 -0.340231,0 -1.621783,-2.81923 -1.806414,-3.97385 -0.09366,-0.58573 -0.27394,-1.12901 -0.400619,-1.20731 -0.286632,-0.17714 -0.770998,1.04636 -0.72247,1.82495 0.03588,0.57563 0.03652,0.57555 0.150694,-0.0172 0.06306,-0.32743 0.225444,-0.59532 0.360844,-0.59532 0.135399,0 0.246275,0.26789 0.24639,0.59532 1.14e-4,0.32742 0.357302,1.35014 0.79375,2.27271 0.436447,0.92257 0.775702,1.99414 0.753898,2.38125 l -0.03964,0.70385 -0.108355,-0.70824 c -0.144199,-0.94254 -0.77403,-1.48034 -1.212635,-1.03544 -0.250079,0.25366 -0.218893,0.39844 0.143505,0.66618 0.554717,0.40983 0.594261,0.84167 0.103523,1.1305 -0.197724,0.11637 -0.422392,0.7875 -0.499263,1.49139 -0.13182,1.20707 -0.107627,1.27119 0.425644,1.12809 0.310975,-0.0834 0.773768,-0.15334 1.028429,-0.15533 z m -0.524735,-0.97782 c 0.0216,-0.31734 0.119552,-0.52736 0.217675,-0.46672 0.232223,0.14352 1.037225,-1.51622 0.868109,-1.78986 -0.237684,-0.38458 0.361736,-0.2147 0.705972,0.20008 0.186795,0.22508 0.707389,0.6695 1.156876,0.98761 l 0.817249,0.57838 -0.859896,-1.09183 c -0.472943,-0.6005 -0.859896,-1.16399 -0.859896,-1.25219 0,-0.36268 0.558196,-0.12633 0.714793,0.30266 0.147826,0.40497 0.724485,1.21999 1.697137,2.39866 0.678401,0.82209 -0.130431,0.57097 -1.415075,-0.43934 -1.219968,-0.95944 -1.426717,-1.04207 -1.658313,-0.6628 -0.145521,0.23832 -0.52543,0.74359 -0.844242,1.12282 -0.55569,0.661 -0.578035,0.66566 -0.540389,0.11253 z m -1.212754,-1.98617 c -0.08446,-0.21106 -0.147157,-0.14837 -0.159852,0.15986 -0.01149,0.27891 0.05105,0.43518 0.138964,0.34726 0.08792,-0.0879 0.09732,-0.31612 0.02089,-0.50712 z m 26.93905,0.3142 c 0.0912,-0.14754 -0.10673,-0.26279 -0.4474,-0.26053 -0.4915,0.003 -0.53335,0.0542 -0.21406,0.26053 0.49232,0.31816 0.46483,0.31816 0.66146,0 z m 1.72861,-0.54565 c 0.31964,-0.59726 0.24969,-0.61912 -0.65783,-0.20563 -0.80944,0.3688 -0.86414,0.62434 -0.14523,0.67849 0.29078,0.0219 0.65215,-0.19088 0.80306,-0.47286 z m 3.47927,-0.30543 c -0.18985,-0.18985 -0.31309,-0.20548 -0.31309,-0.0397 0,0.35316 0.3129,0.66606 0.48948,0.48948 0.0752,-0.0752 -0.004,-0.27759 -0.17639,-0.44979 z M 92.60279,157.8944 c 0.167803,-0.10937 0.110194,-0.54259 -0.158331,-1.19063 l -0.422112,-1.01869 0.0072,1.5875 c 0.004,0.87312 0.07524,1.40891 0.15833,1.19062 0.08309,-0.21828 0.269778,-0.47424 0.414858,-0.5688 z m 8.901,0.33466 c 0.1468,-0.27431 0.56771,-0.57423 0.93535,-0.6665 0.36764,-0.0923 0.66844,-0.26635 0.66844,-0.38683 0,-0.36928 -0.96875,-1.35975 -1.15134,-1.17716 -0.0944,0.0944 -0.17158,0.0327 -0.17158,-0.1371 0,-0.16978 0.19705,-0.30868 0.43789,-0.30868 0.39378,0 0.38965,-0.0533 -0.041,-0.52917 -0.51704,-0.57132 -0.39624,-0.67391 0.33431,-0.2839 0.25269,0.1349 0.69756,0.33192 0.9886,0.43782 l 0.52917,0.19256 -0.52917,0.11702 c -0.29104,0.0644 -0.64823,0.23159 -0.79375,0.37161 -0.17123,0.16475 -0.0949,0.18996 0.21629,0.0714 0.26448,-0.10072 0.75284,-0.0376 1.08525,0.14033 0.52778,0.28246 0.69861,0.23614 1.34771,-0.36542 l 0.74332,-0.68889 -0.59953,-0.63816 c -0.32973,-0.35099 -0.52557,-0.75781 -0.43519,-0.90405 0.22601,-0.3657 -0.38051,-0.69918 -1.10207,-0.60595 -0.80309,0.10376 -1.11294,-0.70847 -0.45405,-1.19027 0.39505,-0.28886 0.44217,-0.49663 0.24143,-1.06459 -0.13717,-0.38813 -0.37772,-0.74827 -0.53455,-0.80031 -0.38534,-0.12787 -0.90363,1.07171 -0.91353,2.11435 -0.006,0.63751 -0.0678,0.74531 -0.24933,0.43517 -0.25287,-0.43206 0.14013,-2.55289 0.55852,-3.01408 0.31421,-0.34636 0.28749,-0.74267 -0.0366,-0.5424 -0.14552,0.0899 -0.26459,-0.0291 -0.26459,-0.26458 0,-0.23546 -0.11906,-0.35452 -0.26458,-0.26458 -0.14552,0.0899 -0.26458,0.0659 -0.26458,-0.0533 0,-0.11927 -0.35804,-0.23149 -0.79564,-0.24937 -0.9363,-0.0383 -1.665691,-0.56219 -1.474884,-1.05943 0.07414,-0.19322 0.0498,-0.33116 -0.0541,-0.30654 -0.103904,0.0246 -0.895221,-0.29867 -1.758482,-0.71843 -1.081822,-0.52604 -1.602545,-0.66427 -1.675694,-0.44482 -0.05837,0.17511 -0.364098,0.32862 -0.679392,0.34113 -0.454976,0.0181 -0.409481,0.0742 0.220486,0.27209 0.436562,0.13715 1.114256,0.1908 1.505986,0.11924 0.559225,-0.10216 0.859983,0.0455 1.399968,0.68721 0.635866,0.75568 0.655759,0.85265 0.263777,1.28579 -0.303626,0.3355 -0.333501,0.49861 -0.105257,0.57469 0.246994,0.0823 0.244852,0.24422 -0.0095,0.71951 -0.269102,0.50283 -0.264022,0.59224 0.0282,0.49643 0.196032,-0.0643 0.466717,-0.5543 0.601522,-1.08895 0.222027,-0.88058 0.68094,-1.3574 0.68094,-0.70751 0,0.14552 0.32742,0.26641 0.7276,0.26864 1.12387,0.006 1.48766,0.35327 1.28348,1.22432 -0.40437,1.72505 -0.68496,2.12302 -1.49685,2.12302 -0.740586,0 -0.75829,-0.0251 -0.34203,-0.48507 0.24144,-0.26679 0.58561,-0.48507 0.76482,-0.48507 0.17921,0 0.37826,-0.35719 0.44234,-0.79375 0.0641,-0.43657 0.0853,-0.79375 0.0473,-0.79375 -0.0381,0 -0.40039,0.1259 -0.80511,0.27977 -0.53454,0.20323 -0.64036,0.3388 -0.38678,0.49552 0.27081,0.16737 0.28154,0.34194 0.0479,0.77856 -0.348764,0.65166 -1.213041,0.74435 -1.537338,0.16486 -0.185565,-0.33158 -0.337941,-0.34356 -0.913725,-0.0718 l -0.691022,0.32611 0.509081,0.99789 c 0.279994,0.54883 0.621987,0.99788 0.759983,0.99788 0.137996,0 0.182369,0.17859 0.09861,0.39687 -0.106113,0.27653 0.01927,0.39688 0.413482,0.39688 0.674971,0 0.994502,0.65403 0.569638,1.16596 -0.232179,0.27976 -0.208095,0.4607 0.102692,0.77148 0.223304,0.22331 0.406007,0.54535 0.406007,0.71565 0,0.48774 0.829642,2.10941 1.079172,2.10941 0.12382,0 0.34524,-0.22443 0.49204,-0.49873 z m -1.17434,-1.08877 c -0.0993,-0.31298 -0.12107,-0.62858 -0.0483,-0.70134 0.0728,-0.0728 0.21357,0.12378 0.3129,0.43675 0.0993,0.31298 0.12108,0.62858 0.0483,0.70134 -0.0728,0.0728 -0.21356,-0.12378 -0.3129,-0.43675 z m -0.10591,-2.84427 c -0.0145,-0.47295 -0.14544,-0.8599 -0.290961,-0.8599 -0.145521,0 -0.264583,-0.11906 -0.264583,-0.26458 0,-0.14552 0.238125,-0.26459 0.529164,-0.26459 0.56468,0 0.63598,0.42783 0.26459,1.5875 -0.20071,0.62671 -0.21322,0.61629 -0.23821,-0.19843 z m 0.87305,-0.0469 c 0.0904,-0.49871 0.21335,-0.95568 0.27316,-1.01548 0.0598,-0.0598 0.46396,0.15389 0.89813,0.47489 0.43417,0.32099 0.91977,0.50304 1.07913,0.40455 0.15936,-0.0985 0.28974,-0.0728 0.28974,0.057 0,0.49393 -0.35757,0.55438 -1.07737,0.18216 -0.69502,-0.35941 -0.77566,-0.3452 -1.18645,0.20899 -0.43612,0.58835 -0.43902,0.58507 -0.27634,-0.31215 z m 1.21724,-1.09324 c 0,-0.15411 0.11906,-0.20661 0.26458,-0.11667 0.14552,0.0899 0.26459,0.21602 0.26459,0.28019 0,0.0642 -0.11907,0.11668 -0.26459,0.11668 -0.14552,0 -0.26458,-0.12609 -0.26458,-0.2802 z m -3.683279,-0.66789 c 0.01269,-0.30822 0.07539,-0.37092 0.159852,-0.15985 0.07643,0.19099 0.06703,0.4192 -0.02089,0.50712 -0.08792,0.0879 -0.150453,-0.0684 -0.138964,-0.34727 z m 0.905153,-0.11024 c 0.735076,-0.31587 1.253556,-0.31587 1.058336,0 -0.0899,0.14552 -0.48392,0.25621 -0.875513,0.24598 -0.635747,-0.0166 -0.655325,-0.0429 -0.182823,-0.24598 z m 3.137436,-0.61695 c 0.0934,-0.26657 0.16986,-0.6178 0.16986,-0.78053 0,-0.20509 0.098,-0.19787 0.31939,0.0235 0.24946,0.24947 0.21227,0.42035 -0.16986,0.78052 -0.46596,0.43919 -0.48116,0.43807 -0.31939,-0.0235 z m 8.76752,4.84819 c -0.0892,-0.14437 -0.0384,-0.26249 0.11293,-0.26249 0.15134,0 0.35704,-0.32625 0.45712,-0.72499 0.10007,-0.39874 0.34047,-0.88349 0.5342,-1.07723 0.48205,-0.48205 0.46364,-1.39892 -0.0243,-1.21167 -0.5505,0.21125 -1.03675,-0.8207 -0.69105,-1.46664 0.15064,-0.28147 0.26923,-0.66842 0.26353,-0.85989 -0.006,-0.19147 -0.17622,0.0333 -0.37894,0.49949 -0.27711,0.63727 -0.30258,1.08663 -0.10265,1.81075 0.14627,0.52972 0.19773,1.03134 0.11436,1.11471 -0.0834,0.0834 -0.15158,-0.0469 -0.15158,-0.28939 0,-0.58357 -0.45741,-0.56707 -0.61136,0.022 -0.0808,0.30931 -0.13119,0.24015 -0.1517,-0.2083 -0.0251,-0.54806 -0.17643,-0.68243 -0.82444,-0.73181 -1.10356,-0.0841 -1.04495,0.93781 0.0776,1.35236 0.37823,0.13969 0.41858,0.27959 0.19897,0.68993 -0.2072,0.38714 -0.17723,0.61296 0.12088,0.91107 0.21799,0.218 0.39635,0.56361 0.39635,0.76803 0,0.20442 0.0827,0.45438 0.18378,0.55546 0.24842,0.24842 0.6808,-0.56068 0.47638,-0.89143 z m -7.67162,0.002 c 0.0899,-0.14552 0.0374,-0.26458 -0.11668,-0.26458 -0.15411,0 -0.2802,0.11906 -0.2802,0.26458 0,0.14552 0.0525,0.26458 0.11668,0.26458 0.0642,0 0.19026,-0.11906 0.2802,-0.26458 z m -8.891376,-1.15709 c 0.348725,-0.42019 0.120975,-1.22416 -0.34678,-1.22416 -0.619482,0 -1.245897,0.66445 -1.066689,1.13146 0.209821,0.54678 0.993935,0.59821 1.413469,0.0927 z m -0.765918,-0.43041 c 0,-0.49389 0.07056,-0.56444 0.3175,-0.3175 0.246945,0.24695 0.246945,0.38806 0,0.635 -0.246944,0.24695 -0.3175,0.17639 -0.3175,-0.3175 z m 29.104164,-0.26445 c 0,-0.14552 -0.12609,-0.26459 -0.2802,-0.26459 -0.15411,0 -0.20661,0.11907 -0.11667,0.26459 0.0899,0.14552 0.21602,0.26458 0.2802,0.26458 0.0642,0 0.11667,-0.11906 0.11667,-0.26458 z m 4.4008,-0.0662 c -0.10928,0.1819 -0.0853,0.33073 0.0532,0.33073 0.47803,0 0.48068,-0.66277 0.005,-1.11841 -0.45314,-0.43357 -0.49206,-0.42991 -0.76047,0.0716 -0.38107,0.71205 -0.0763,1.17745 0.4774,0.72892 0.31791,-0.25755 0.37435,-0.26077 0.22541,-0.0129 z m 1.53069,0.17013 c 0.44902,-0.1723 0.58806,-1.16232 0.16324,-1.16232 -0.23576,0 -0.80306,0.8288 -0.80306,1.17324 0,0.19039 0.12058,0.18833 0.63982,-0.0109 z m -34.510539,-1.3607 c -0.0022,-0.10914 -0.119467,-0.37703 -0.260531,-0.59532 -0.219188,-0.33916 -0.25707,-0.32955 -0.260532,0.0661 -0.0022,0.25466 -0.109885,0.46302 -0.239237,0.46302 -0.311541,0 -0.233639,-0.8666 0.102894,-1.14462 0.158045,-0.13057 0.104776,-0.17562 -0.132292,-0.11189 -0.218281,0.0587 -0.434549,0.42493 -0.480595,0.81389 -0.07157,0.60459 0.01481,0.7072 0.595312,0.7072 0.373468,0 0.67721,-0.0893 0.674981,-0.19843 z m 34.399889,-0.72761 c 0,-0.34662 -0.10947,-0.69788 -0.24326,-0.78056 -0.31027,-0.19176 -1.07966,0.5665 -1.07966,1.06404 0,0.52116 0.44139,0.47417 0.79881,-0.085 0.26067,-0.40785 0.28094,-0.39204 0.17011,0.13266 -0.0692,0.32762 -0.0179,0.52895 0.11409,0.4474 0.13195,-0.0815 0.23991,-0.43187 0.23991,-0.7785 z m -17.89541,0.002 c -0.0834,-0.21745 -0.27101,-0.32162 -0.41682,-0.23151 -0.16301,0.10075 -0.12686,0.25144 0.0939,0.3913 0.48176,0.30526 0.49827,0.29709 0.32295,-0.15979 z m -18.356042,-0.27084 c -0.228497,-0.27532 -0.28001,-0.85121 -0.164244,-1.83619 0.190449,-1.62043 -0.20538,-2.25616 -0.457005,-0.73398 -0.26604,1.60938 -0.195802,2.23114 0.294051,2.60299 0.616648,0.4681 0.733221,0.45641 0.327198,-0.0328 z m 16.672282,-0.12596 c 0,-0.11325 -0.15591,-0.57671 -0.34647,-1.02991 -0.30171,-0.71756 -0.40562,-0.78075 -0.80437,-0.48918 -0.42415,0.31014 -0.42692,0.39691 -0.0376,1.17729 0.27205,0.54533 0.55575,0.79049 0.80437,0.69508 0.21125,-0.0811 0.38409,-0.24004 0.38409,-0.35328 z m 5.31922,-3.76012 c -0.39196,-0.62807 -0.0699,-0.7444 1.79269,-0.64747 0.89064,0.0464 1.61934,0.0115 1.61934,-0.0775 0,-0.089 -0.17546,-0.41227 -0.38992,-0.71844 -0.27226,-0.38871 -0.81115,-0.61385 -1.78593,-0.74614 -0.76781,-0.1042 -1.59449,-0.22538 -1.83705,-0.2693 -0.56083,-0.10154 -0.74248,0.60691 -0.77952,3.04027 -0.0235,1.54305 -0.11956,1.94256 -0.52856,2.19798 -0.62199,0.38844 -0.63173,0.68877 -0.0368,1.1364 0.41812,0.31462 0.54855,0.16352 1.34505,-1.55833 0.68325,-1.47702 0.81864,-2.00832 0.60073,-2.35749 z m -10.52038,3.63923 c 0.0983,-0.25625 0.02,-0.33461 -0.23627,-0.23628 -0.4185,0.1606 -0.5275,0.61968 -0.14713,0.61968 0.12995,0 0.30248,-0.17253 0.3834,-0.3834 z m 25.48525,-2.26243 c 0.28411,-0.71006 0.32323,-1.5875 0.0708,-1.5875 -0.13559,0 -0.24653,0.23812 -0.24653,0.52916 0,0.29105 -0.11907,0.52917 -0.26459,0.52917 -0.30727,0 -0.34697,1.68011 -0.0625,2.64583 0.16222,0.55074 0.20732,0.46216 0.26946,-0.52916 0.041,-0.65485 0.14608,-1.36922 0.23342,-1.5875 z m -11.88908,2.22139 c -0.0879,-0.0879 -0.31613,-0.0973 -0.50712,-0.0209 -0.21107,0.0845 -0.14837,0.14715 0.15985,0.15985 0.27892,0.0115 0.43519,-0.0511 0.34727,-0.13897 z m -6.54293,-1.16306 c 0,-0.29398 -0.17639,-0.52917 -0.39687,-0.52917 -0.44531,0 -0.4632,0.0485 -0.23628,0.63982 0.22686,0.59119 0.63315,0.52018 0.63315,-0.11065 z m 1.32292,-0.52917 c 0,-0.14552 -0.12609,-0.26458 -0.2802,-0.26458 -0.15411,0 -0.20661,0.11906 -0.11668,0.26458 0.0899,0.14552 0.21603,0.26459 0.2802,0.26459 0.0642,0 0.11668,-0.11907 0.11668,-0.26459 z m 13.32135,-1.58958 c -0.15132,-0.75664 -0.14254,-0.76249 1.26678,-0.84294 1.22487,-0.0699 1.43037,-0.1597 1.50101,-0.65576 0.0736,-0.51703 -0.0228,-0.56693 -0.96053,-0.49699 -0.5733,0.0428 -1.60271,0.29174 -2.28757,0.55329 -0.72013,0.27502 -1.31921,0.37302 -1.42072,0.23241 -0.0965,-0.13373 -0.32436,-0.25504 -0.50626,-0.26959 -0.1819,-0.0146 -0.60593,-0.0443 -0.9423,-0.0661 -0.33636,-0.0218 -0.85049,-0.26228 -1.14251,-0.53434 -0.45137,-0.42052 -0.60244,-0.44237 -1.00801,-0.14581 -0.62445,0.45661 -0.36299,1.6988 0.35758,1.6988 0.2727,0 0.55672,0.15872 0.63116,0.35271 0.0744,0.19399 0.80957,0.56478 1.63361,0.82398 0.82405,0.25919 1.63908,0.6313 1.81119,0.82691 0.49483,0.5624 1.26196,-0.49959 1.06657,-1.47652 z m -27.798962,0.53963 c 0.206398,-0.78927 -0.139794,-0.65189 -0.659734,0.26181 -0.435015,0.76445 -0.433702,0.78569 0.0331,0.53587 0.267337,-0.14307 0.549324,-0.50203 0.626638,-0.79768 z m 10.244282,0.47686 c 0,-0.13854 -0.12428,-0.17508 -0.27618,-0.0812 -0.15189,0.0939 -0.46904,0.0116 -0.70477,-0.18282 -0.3841,-0.3168 -0.39621,-0.29271 -0.11667,0.23195 0.30096,0.56486 1.09762,0.58814 1.09762,0.0321 z m 3.19355,-0.17037 c -0.21472,-0.0716 -0.12648,-0.31523 0.26514,-0.73209 0.32284,-0.34364 0.68873,-0.56192 0.8131,-0.48505 0.41889,0.25889 0.23045,-1.231 -0.29263,-2.31365 -0.51823,-1.07261 -0.51821,-1.07354 0.0151,-0.93407 0.3372,0.0882 0.49577,0.0254 0.43044,-0.17031 -0.0569,-0.17045 -0.3911,-0.30991 -0.74271,-0.30991 -0.35161,0 -0.78812,-0.0963 -0.97002,-0.21405 -0.59929,-0.38787 -0.35806,0.49301 0.30581,1.11668 0.35009,0.3289 0.69613,0.8259 0.76898,1.10446 0.11245,0.43002 -0.0121,0.50645 -0.82553,0.50645 -0.9124,0 -0.93594,0.022 -0.49483,0.46302 0.39974,0.39964 0.49608,0.40974 0.70377,0.0738 0.13235,-0.21406 0.31878,-0.31106 0.41429,-0.21554 0.24488,0.24487 -0.51248,1.25548 -1.3551,1.80823 l -0.71019,0.46588 0.9981,-0.0283 c 0.54896,-0.0156 0.85328,-0.0766 0.67627,-0.13557 z m 0.95042,-0.6456 c -0.0734,-0.1819 -0.13345,-0.0331 -0.13345,0.33073 0,0.3638 0.0601,0.51263 0.13345,0.33073 0.0734,-0.1819 0.0734,-0.47956 0,-0.66146 z m -15.653349,0.33073 c 0.08994,-0.14552 0.03743,-0.26458 -0.116677,-0.26458 -0.154109,0 -0.280198,0.11906 -0.280198,0.26458 0,0.14552 0.0525,0.26458 0.116677,0.26458 0.06417,0 0.190261,-0.11906 0.280198,-0.26458 z m 22.092709,-0.26458 c 0,-0.14552 -0.0525,-0.26459 -0.11668,-0.26459 -0.0642,0 -0.19026,0.11907 -0.2802,0.26459 -0.0899,0.14552 -0.0374,0.26458 0.11668,0.26458 0.15411,0 0.2802,-0.11906 0.2802,-0.26458 z m -10.58333,-1.12448 c 0,-0.25466 0.12407,-0.46302 0.27572,-0.46302 0.15165,0 -0.22038,-0.47194 -0.82674,-1.04875 -1.0384,-0.98781 -1.17192,-1.03923 -2.29773,-0.88492 -0.78699,0.10787 -1.50257,0.43365 -2.09497,0.95378 -0.79034,0.69393 -0.98024,0.75325 -1.56232,0.48804 -0.36444,-0.16604 -0.86537,-0.29633 -1.11318,-0.28953 -0.24782,0.007 0.14474,0.24852 0.87234,0.53714 0.96091,0.38116 1.86593,0.5125 3.30729,0.47996 1.54927,-0.035 1.97874,0.0358 1.95865,0.32276 -0.0164,0.23365 0.24873,0.36756 0.72761,0.36756 0.54106,0 0.75333,-0.13046 0.75333,-0.46302 z m 19.24292,0.43546 c -0.0879,-0.0879 -0.31612,-0.0973 -0.50712,-0.0209 -0.21106,0.0845 -0.14837,0.14716 0.15986,0.15985 0.27891,0.0115 0.43518,-0.051 0.34726,-0.13896 z m -29.633332,-0.26459 c -0.08792,-0.0879 -0.316122,-0.0973 -0.507118,-0.0209 -0.211067,0.0845 -0.148372,0.14715 0.159853,0.15985 0.278914,0.0115 0.435184,-0.0511 0.347265,-0.13897 z m -4.955425,-0.48599 c 0,-0.0642 -0.119063,-0.19026 -0.264583,-0.28019 -0.145521,-0.0899 -0.264584,-0.0374 -0.264584,0.11667 0,0.15411 0.119063,0.2802 0.264584,0.2802 0.14552,0 0.264583,-0.0525 0.264583,-0.11668 z m 4.034896,-0.10514 c 1.817129,-0.10679 -0.239295,-0.7957 -2.844271,-0.95284 -0.145521,-0.009 -0.298371,0.22216 -0.339668,0.5132 -0.07703,0.54289 0.37201,0.60489 3.183939,0.43964 z m 27.847391,-0.57193 c 0.41575,-0.17865 0.30234,-0.23051 -0.52916,-0.24194 -0.77632,-0.0107 -0.95258,0.0538 -0.66146,0.24194 0.46292,0.29916 0.49444,0.29916 1.19062,0 z m -32.03163,-0.92604 c 0.364677,-0.8728 0.458696,-0.92604 1.635148,-0.92604 1.485915,0 1.451106,-0.15663 -0.08569,-0.38557 -1.090313,-0.16242 -1.124637,-0.14388 -1.653646,0.89306 -0.556109,1.09007 -0.634,1.34459 -0.411481,1.34459 0.07081,0 0.302857,-0.41672 0.515666,-0.92604 z m 9.67434,0.39687 c -0.21828,-0.14106 -0.51593,-0.25648 -0.66146,-0.25648 -0.14552,0 -0.086,0.11542 0.1323,0.25648 0.21828,0.14107 0.51593,0.25648 0.66145,0.25648 0.14553,0 0.086,-0.11541 -0.13229,-0.25648 z m 6.05026,-1.03058 c -0.61204,-0.77419 -1.02317,-1.02346 -1.02317,-0.62036 0,0.31147 1.35906,1.70299 1.51296,1.54909 0.0751,-0.0751 -0.14533,-0.493 -0.48979,-0.92873 z m 16.53854,0.81951 c 0.0718,-0.11609 0.0341,-0.36692 -0.0836,-0.55741 -0.15031,-0.24321 -0.26794,-0.25914 -0.39503,-0.0535 -0.0995,0.16105 -0.50137,0.30691 -0.89297,0.32413 l -0.71199,0.0313 0.79375,0.20197 c 1.12619,0.28657 1.14532,0.28736 1.28985,0.0535 z m -20.78781,-1.7803 c -0.0815,-0.0815 -0.22941,0.0654 -0.32877,0.32632 -0.14358,0.37708 -0.11319,0.40747 0.14811,0.14811 0.18083,-0.17948 0.26212,-0.39297 0.18066,-0.47443 z m 16.60652,12.37627 c 0.13171,-0.10914 0.32832,-0.3175 0.43692,-0.46302 0.11269,-0.15099 0.19921,-0.0658 0.20152,0.19844 0.002,0.25738 -0.19179,0.46302 -0.43692,0.46302 -0.24253,0 -0.33322,-0.0893 -0.20152,-0.19844 z m -0.13037,-1.27882 c 0.0127,-0.30822 0.0754,-0.37092 0.15985,-0.15985 0.0764,0.19099 0.067,0.4192 -0.0209,0.50712 -0.0879,0.0879 -0.15045,-0.0684 -0.13896,-0.34727 z m 0.39627,-0.97014 c -0.0671,-0.32742 -0.19,-1.02113 -0.273,-1.54159 l -0.15091,-0.94627 1.74786,-0.0265 c 0.96132,-0.0146 1.69745,0.0239 1.63585,0.0855 -0.24966,0.24966 -2.57142,0.83791 -2.43482,0.6169 0.0811,-0.1312 0.0269,-0.23855 -0.12031,-0.23855 -0.16578,0 -0.20807,0.50376 -0.11105,1.32292 0.15618,1.31868 -0.0617,1.85855 -0.29362,0.7276 z m -1.78651,-3.28723 c 0.11291,-0.55376 0.17944,-0.62029 0.25654,-0.25654 0.0573,0.27012 -0.0114,0.60657 -0.15244,0.74767 -0.16566,0.16566 -0.20254,-0.008 -0.1041,-0.49113 z m -0.84358,-0.4846 c -0.0834,-0.21745 -0.0434,-0.39536 0.0889,-0.39536 0.35866,0 0.58137,0.47019 0.30394,0.64166 -0.13265,0.082 -0.30945,-0.0289 -0.39289,-0.2463 z m 7.76074,-5.57693 c -0.27269,-0.71725 -0.15031,-1.16843 0.31695,-1.16843 0.1525,0 0.20874,0.1786 0.12498,0.39688 -0.0838,0.21828 -0.0224,0.39687 0.13638,0.39687 0.19444,0 0.18442,0.12563 -0.0307,0.38483 -0.27341,0.32945 -0.20192,0.35115 0.49677,0.15076 0.64048,-0.18368 0.81615,-0.15262 0.81615,0.14434 0,0.24475 -0.28267,0.37841 -0.8003,0.37841 -0.61713,0 -0.85979,-0.15648 -1.06022,-0.68366 z"
       id="path2570" />
  </g>
</svg>
