<?xml version="1.0" encoding="UTF-8" standalone="no"?>
<!-- Created with Inkscape (http://www.inkscape.org/) -->

<svg
   width="37.749439mm"
   height="37.657089mm"
   viewBox="0 0 37.749439 37.65709"
   version="1.1"
   id="svg997"
   inkscape:version="1.1 (c4e8f9ed74, 2021-05-24)"
   sodipodi:docname="ornater.svg"
   xmlns:inkscape="http://www.inkscape.org/namespaces/inkscape"
   xmlns:sodipodi="http://sodipodi.sourceforge.net/DTD/sodipodi-0.dtd"
   xmlns="http://www.w3.org/2000/svg"
   xmlns:svg="http://www.w3.org/2000/svg">
  <sodipodi:namedview
     id="namedview999"
     pagecolor="#ffffff"
     bordercolor="#666666"
     borderopacity="1.0"
     inkscape:pageshadow="2"
     inkscape:pageopacity="0.0"
     inkscape:pagecheckerboard="0"
     inkscape:document-units="mm"
     showgrid="false"
     inkscape:zoom="1.5385816"
     inkscape:cx="-39.321932"
     inkscape:cy="51.670968"
     inkscape:window-width="2506"
     inkscape:window-height="1403"
     inkscape:window-x="1974"
     inkscape:window-y="0"
     inkscape:window-maximized="1"
     inkscape:current-layer="layer1" />
  <defs
     id="defs994" />
  <g
     inkscape:label="Layer 1"
     inkscape:groupmode="layer"
     id="layer1"
     transform="translate(-110.04721,-174.12258)">
    <path
       style="fill:#000000;stroke-width:0.264583"
       d="m 140.44052,211.57782 c -0.39763,-0.11105 -0.98356,-0.14038 -1.30206,-0.0652 -0.31851,0.0752 -0.65315,0.0169 -0.74366,-0.12953 -0.10906,-0.17646 -0.34703,-0.16862 -0.70554,0.0233 -0.55819,0.29873 -2.44333,0.0975 -2.23557,-0.23868 0.17616,-0.28504 -2.26052,-0.18855 -2.98301,0.11812 -0.43259,0.18362 -0.96969,0.17866 -1.70061,-0.0157 -0.87055,-0.2315 -1.1377,-0.46058 -1.44308,-1.23738 l -0.37476,-0.95328 -1.37164,0.74291 c -2.47844,1.34238 -5.61302,1.87438 -8.43804,1.4321 -0.83561,-0.13083 -1.53187,-0.0849 -2.06582,0.13628 -0.70629,0.29255 -0.89308,0.26898 -1.51771,-0.19151 -0.76576,-0.56455 -2.16751,-0.94139 -2.16751,-0.58272 0,0.36082 -1.10871,0.84086 -2.145,0.92872 -0.83174,0.0705 -0.98864,-0.004 -1.08668,-0.517 -0.063,-0.32968 0.0309,-0.73529 0.20866,-0.90137 0.17779,-0.16608 0.36515,-0.40955 0.41637,-0.54104 0.0512,-0.1315 0.60841,-0.31962 1.23823,-0.41807 1.00472,-0.15703 1.13406,-0.12157 1.05495,0.28924 -0.0708,0.36775 -0.30235,0.44994 -1.07898,0.38303 -0.58247,-0.0502 -0.9888,0.0319 -0.9888,0.19967 0,0.15667 0.16868,0.28485 0.37483,0.28485 0.20615,0 0.41451,0.11556 0.46302,0.25679 0.17676,0.51464 1.40973,-0.38953 1.49207,-1.09417 0.0631,-0.53989 0.1945,-0.66314 0.59531,-0.55832 0.2829,0.074 0.51436,0.23349 0.51436,0.35446 0,0.12098 0.37295,0.0899 0.82877,-0.069 0.78875,-0.27496 0.80246,-0.30304 0.28382,-0.58155 -1.53018,-0.82169 -2.68212,-3.97972 -2.72647,-7.47457 -0.0183,-1.44558 -0.0909,-1.87706 -0.23821,-1.41702 -0.20811,0.64983 -0.21237,0.6475 -0.24226,-0.13229 -0.0236,-0.61441 -0.0884,-0.70408 -0.2869,-0.39688 -0.47642,0.7372 -0.28464,3.76769 0.39358,6.21957 0.8775,3.17228 0.87024,3.24858 -0.32744,3.44019 -0.5457,0.0873 -1.21214,0.27954 -1.48097,0.4272 -0.76954,0.42266 -0.82382,0.0593 -0.0654,-0.43762 0.3753,-0.24591 0.87872,-0.37175 1.11871,-0.27966 0.34937,0.13406 0.37524,0.0938 0.12977,-0.20196 -0.16861,-0.20317 -0.23825,-0.54743 -0.15475,-0.76504 0.0973,-0.2536 -0.0439,-0.44682 -0.3934,-0.53821 -0.36651,-0.0958 -0.49222,-0.2807 -0.38353,-0.56394 0.10936,-0.28499 0.0141,-0.42136 -0.29435,-0.42136 -0.34382,0 -0.41678,-0.1465 -0.29651,-0.59531 0.0877,-0.32743 0.16117,-0.73951 0.16315,-0.91574 0.002,-0.17623 0.23297,-0.53409 0.51328,-0.79524 0.45187,-0.42098 0.47575,-0.60188 0.21062,-1.5952 -0.25783,-0.96596 -0.2155,-1.38508 0.30715,-3.04121 0.86437,-2.73897 0.94942,-3.47229 0.45072,-3.88618 -0.2309,-0.19163 -0.41982,-0.53374 -0.41982,-0.76025 0,-0.4609 -0.46203,-1.99398 -0.87029,-2.88779 -0.18949,-0.41483 -0.17648,-0.69633 0.0445,-0.96257 0.24006,-0.28926 0.23957,-0.53586 -0.002,-1.06628 -0.26666,-0.58524 -0.23818,-0.7742 0.18754,-1.24462 0.3856,-0.42609 0.70597,-0.52152 1.38234,-0.41176 1.01412,0.16457 1.02691,0.23699 -0.30594,-1.73196 -1.15691,-1.70907 -1.55941,-3.77679 -1.19366,-6.13216 0.11599,-0.74696 0.17434,-1.89389 0.12967,-2.54873 -0.0447,-0.65484 0.023,-1.39898 0.15038,-1.65365 0.14072,-0.28132 0.12048,-0.67067 -0.0516,-0.99218 -0.23879,-0.44619 -0.20121,-0.52917 0.23966,-0.52917 0.28758,0 0.60349,0.13045 0.70202,0.28988 0.19514,0.31574 1.21944,0.20694 2.91077,-0.30917 1.34449,-0.41028 2.29928,-0.18411 2.74593,0.65047 0.33512,0.62618 0.37717,0.63426 1.40768,0.27067 1.21067,-0.42715 5.87547,-0.79653 6.87884,-0.54469 0.42049,0.10553 0.65374,0.33968 0.63035,0.63278 -0.024,0.30125 0.14942,0.46527 0.49205,0.46527 0.3969,0 0.50847,-0.1488 0.44639,-0.59531 -0.0928,-0.66778 0.2331,-0.75377 1.0124,-0.26709 0.41231,0.25749 0.63596,0.2593 1.03772,0.008 0.41492,-0.25912 0.79916,-0.22108 2.02411,0.20036 0.93188,0.32062 1.62362,0.4285 1.80297,0.2812 0.16004,-0.13144 0.99622,-0.44328 1.85818,-0.69297 1.26799,-0.36732 2.12668,-0.42032 4.49791,-0.27767 1.6119,0.097 3.28267,0.17382 3.71281,0.17077 0.43014,-0.003 0.8681,0.13364 0.97324,0.30376 0.14557,0.23554 0.35641,0.23402 0.88402,-0.006 0.89966,-0.40991 1.71728,-0.40293 1.7604,0.015 0.0188,0.18191 0.0654,0.62839 0.10359,0.99219 0.0382,0.3638 0.20144,1.07739 0.36275,1.58576 0.66627,2.09969 0.23567,4.17127 -1.32875,6.39259 -0.69934,0.99299 -0.62851,1.29562 0.26158,1.1176 0.6329,-0.12658 0.78332,-0.05 0.92244,0.46963 0.28318,1.05776 0.19185,1.88179 -0.26444,2.38598 -0.40758,0.45038 -0.40711,0.51786 0.007,0.97527 0.41742,0.46125 0.41412,0.52919 -0.0537,1.10692 -0.48884,0.6037 -0.48836,0.63256 0.0254,1.50321 0.58847,0.99739 0.50113,2.40293 -0.24058,3.87155 -0.7231,1.43176 -1.4204,2.02844 -2.18544,1.87007 l -0.68646,-0.14211 0.65969,0.38959 c 0.43875,0.25911 0.71692,0.29695 0.83063,0.11297 0.22436,-0.36303 1.47416,0.5382 1.7299,1.24743 0.26431,0.73298 0.15143,1.16546 -0.60884,2.33263 -0.58978,0.90543 -0.60326,0.98058 -0.13058,0.7276 0.28992,-0.15516 0.60049,-0.28211 0.69016,-0.28211 0.27683,0 -0.019,2.47692 -0.37534,3.14251 -0.24053,0.44931 -0.25361,0.68031 -0.0458,0.80876 0.28277,0.17477 0.54876,2.22094 0.63856,4.91228 l 0.0441,1.32291 h -3.10997 c -1.71048,0 -3.4353,-0.0909 -3.83293,-0.20191 z m 4.76714,-0.53358 c 0.69122,-0.0466 1.25677,0.0304 1.25677,0.17106 0,0.14067 0.0623,0.19343 0.13852,0.11724 0.0762,-0.0762 0.0643,-0.33197 -0.0265,-0.56842 -0.11195,-0.29175 -0.30526,-0.36316 -0.60154,-0.22222 -0.24011,0.11422 -1.21048,0.1741 -2.15636,0.13307 -2.03495,-0.0883 -3.00219,0.0808 -2.75457,0.48143 0.11186,0.181 0.67839,0.22901 1.53217,0.12986 0.74508,-0.0865 1.92024,-0.19544 2.61146,-0.24202 z m -34.1974,-0.30722 c 0,-0.0642 -0.11906,-0.19026 -0.26458,-0.2802 -0.14552,-0.0899 -0.26458,-0.0374 -0.26458,0.11668 0,0.15411 0.11906,0.2802 0.26458,0.2802 0.14552,0 0.26458,-0.0525 0.26458,-0.11668 z m 7.80521,-1.20624 c 0.80345,-0.7276 1.37025,-1.32188 1.25957,-1.32062 -0.11068,0.001 -0.61795,0.39347 -1.12728,0.87158 -0.50932,0.47811 -1.22042,1.07239 -1.58022,1.32062 -0.3598,0.24824 -0.50989,0.45134 -0.33353,0.45134 0.17636,0 0.97802,-0.59531 1.78146,-1.32292 z m 5.68854,0.95175 c 1.80613,-0.55436 3.42829,-1.24641 3.37563,-1.44012 -0.0862,-0.31708 1.77234,-2.72086 1.87216,-2.42139 0.054,0.162 -0.11572,0.53091 -0.37715,0.81979 -0.45927,0.50749 -0.45795,0.51908 0.039,0.34278 0.28288,-0.10035 0.81198,-0.45565 1.17579,-0.78954 0.75027,-0.68858 2.81017,-1.68206 3.50573,-1.69079 0.25466,-0.003 0.46302,-0.12714 0.46302,-0.27543 0,-0.30944 -0.79546,-0.15421 -2.89172,0.5643 -1.49028,0.5108 -1.87286,0.48646 -1.41204,-0.0898 0.14826,-0.18542 0.45616,-0.98375 0.68423,-1.77408 0.33432,-1.15857 0.34937,-1.49176 0.0777,-1.71979 -0.18535,-0.15556 -0.49535,-0.78885 -0.68888,-1.40731 -0.40699,-1.30063 -1.03103,-1.52667 -0.93766,-0.33964 0.034,0.43166 0.18715,0.93768 0.34043,1.12448 0.65674,0.80036 0.43182,2.41119 -0.64783,4.63963 -1.28557,2.65349 -3.79954,4.03438 -7.34477,4.03438 -2.02473,0 -2.78984,0.15289 -2.78984,0.55747 0,0.37262 4.23796,0.26974 5.55625,-0.13489 z m 7.67292,-0.1774 c 0,-0.67803 -0.87573,-0.60111 -1.00855,0.0886 -0.0611,0.3175 0.0813,0.45998 0.45998,0.45998 0.37865,0 0.54857,-0.16992 0.54857,-0.54857 z m 5.59154,0.31415 c 0.0922,-0.0166 0.22749,-0.23852 0.30071,-0.49319 0.0732,-0.25466 0.22255,-0.68086 0.33184,-0.94712 0.16928,-0.41242 0.0856,-0.47119 -0.56529,-0.39688 -0.63506,0.0725 -0.75398,0.19887 -0.70461,0.74869 0.0327,0.3638 -0.0126,0.49589 -0.1006,0.29352 -0.64537,-1.48414 -1.7407,-1.71069 -3.02915,-0.62653 l -0.86199,0.72532 0.4983,-0.76051 0.49831,-0.76051 -0.97929,0.11432 c -0.59855,0.0699 -0.88432,0.0194 -0.73503,-0.12994 0.13435,-0.13434 0.9283,-0.31878 1.76433,-0.40986 0.85045,-0.0926 1.56833,-0.31129 1.62963,-0.49633 0.0642,-0.19381 -0.11863,-0.33073 -0.44165,-0.33073 -0.41157,0 -0.55122,-0.16757 -0.55122,-0.66146 0,-0.5707 -0.11798,-0.6609 -0.85989,-0.6574 -1.16645,0.006 -1.7967,0.40206 -1.02715,0.64631 0.77472,0.24589 0.70698,0.57933 -0.162,0.79743 -1.12611,0.28264 -1.42931,0.63122 -1.094,1.25775 0.20651,0.38587 0.20498,0.4836 -0.006,0.35348 -0.16406,-0.1014 -0.29098,9e-5 -0.29098,0.23265 0,0.2636 0.23875,0.41249 0.66146,0.41249 0.39774,0 0.66146,0.15112 0.66146,0.37905 0,0.29029 0.34447,0.36589 1.47118,0.32287 0.89586,-0.0342 1.57548,0.0695 1.73788,0.26517 0.22137,0.26674 0.82601,0.30635 1.85331,0.12141 z m 3.07356,-0.17671 c 0.18191,-0.0558 0.33073,-0.38785 0.33073,-0.73793 0,-0.35007 0.18175,-1.15162 0.40389,-1.78122 0.39017,-1.10588 0.38344,-1.16444 -0.19844,-1.72588 -0.67652,-0.65275 -1.79295,-1.07421 -1.79295,-0.67686 0,0.14239 0.35719,0.55945 0.79375,0.92679 0.95099,0.8002 1.00547,1.06881 0.18498,0.91196 -0.5327,-0.10183 -0.59557,-0.0264 -0.50312,0.60344 0.0827,0.56377 -0.0721,0.8512 -0.71415,1.32591 -0.45088,0.33336 -0.81979,0.81435 -0.81979,1.06888 0,0.38294 0.17116,0.43893 0.99219,0.32456 0.5457,-0.076 1.14101,-0.18386 1.32291,-0.23965 z m -23.36879,-0.52059 c 0.28042,-0.21215 0.44576,-0.44982 0.36742,-0.52816 -0.19174,-0.19174 -1.44349,0.29797 -1.66094,0.64981 -0.2576,0.41681 0.70093,0.32667 1.29352,-0.12165 z m 26.95505,-0.0596 c 0.28713,-0.1565 -0.52095,-1.38922 -1.3696,-2.0893 l -0.68745,-0.5671 -0.33465,0.79591 c -0.18406,0.43775 -0.33466,1.09281 -0.33466,1.45568 0,0.56721 0.0905,0.63705 0.64524,0.49782 0.35489,-0.0891 0.71589,-0.0477 0.80223,0.0921 0.13963,0.22593 0.66409,0.15004 1.27889,-0.18506 z m 1.01184,-0.41513 c -0.30167,-0.30168 -0.6086,-0.48841 -0.68206,-0.41495 -0.23456,0.23456 0.67308,1.308 0.9574,1.13228 0.16693,-0.10317 0.0598,-0.38214 -0.27534,-0.71733 z m -24.11112,-0.15272 c 0,-0.53385 -0.44884,-0.81827 -0.99218,-0.62875 -0.48989,0.17089 -0.40093,0.80788 0.13229,0.94722 0.80886,0.21138 0.85989,0.19248 0.85989,-0.31847 z m 1.70646,-0.46623 c 0.11413,-0.45475 0.0543,-0.78476 -0.16976,-0.93573 -1.03279,-0.69599 -1.87506,-1.0076 -2.72349,-1.0076 -0.8685,0 -0.92445,0.0449 -0.66349,0.53252 0.19816,0.37027 0.51543,0.51497 1.04128,0.4749 0.88858,-0.0677 1.60275,0.441 1.60275,1.14164 0,0.75408 0.71209,0.59356 0.91271,-0.20573 z m 2.70846,-0.0915 c 1.69185,-0.84543 2.17954,-1.29116 2.66812,-2.43858 0.2993,-0.70292 0.28858,-0.71555 -0.47735,-0.56237 -0.43095,0.0862 -0.94362,0.0239 -1.13927,-0.13852 -0.19565,-0.16238 -0.43407,-0.21689 -0.52982,-0.12114 -0.31086,0.31086 -0.18398,1.08383 0.20224,1.23204 0.23033,0.0884 0.32101,0.35599 0.23373,0.68976 -0.11667,0.44612 -0.35366,0.54535 -1.30238,0.54535 -0.86508,0 -1.15977,0.10295 -1.15977,0.40518 0,0.22285 -0.17859,0.47371 -0.39687,0.55747 -0.49273,0.18908 -0.5222,0.62485 -0.0423,0.62485 0.19503,0 1.06967,-0.35731 1.94363,-0.79404 z m 20.98508,0.54507 c 0,-0.13693 -0.10465,-0.31364 -0.23255,-0.39269 -0.12791,-0.079 -0.17195,-0.68139 -0.0979,-1.33853 0.10545,-0.93558 0.0503,-1.19481 -0.25401,-1.19481 -0.37524,0 -2.29782,1.31826 -2.31525,1.5875 -0.01,0.15444 2.40805,1.56871 2.70126,1.57992 0.10914,0.004 0.19843,-0.10445 0.19843,-0.24139 z m -16.16717,-0.25754 c 0.44245,-0.28016 0.19903,-1.08099 -0.32858,-1.08099 -0.20503,0 -0.52854,0.18767 -0.7189,0.41704 -0.28684,0.34563 -0.28106,0.4582 0.0337,0.65741 0.4702,0.29753 0.55333,0.29806 1.01373,0.007 z m -1.79074,-0.48568 c 0.3291,-0.41964 0.31975,-0.429 -0.0999,-0.0999 -0.25467,0.19972 -0.46303,0.40808 -0.46303,0.46302 0,0.21776 0.21728,0.0776 0.56292,-0.36313 z m -10.45449,-0.44782 c 0.47255,-0.33099 0.52836,-0.58574 0.42024,-1.91823 -0.13035,-1.60637 -1.1839,-4.05009 -1.7461,-4.05009 -0.17273,0 -0.8151,0.51052 -1.42748,1.13449 -0.8329,0.84866 -1.11342,1.34469 -1.11342,1.96876 0,0.9689 0.40516,1.36827 0.6066,0.59794 0.1669,-0.63823 0.93259,-0.69536 1.16603,-0.087 0.11019,0.28713 -0.0639,0.63064 -0.50291,0.99219 -0.83135,0.6847 -0.70417,1.15631 0.27314,1.01287 0.45837,-0.0673 0.86755,0.0502 1.08427,0.31135 0.42776,0.51542 0.55222,0.51921 1.23963,0.0377 z m 20.68502,-0.26589 0.29505,-0.64757 -1.37706,0.15547 c -1.60039,0.18069 -1.62458,0.19317 -1.41805,0.73138 0.10387,0.2707 0.50182,0.40829 1.18084,0.40829 0.82983,0 1.08015,-0.12288 1.31922,-0.64757 z m -26.13928,0.26631 c 0,-0.27926 -0.50777,-0.39659 -0.65879,-0.15222 -0.0914,0.14789 0.0194,0.2689 0.2463,0.2689 0.22687,0 0.41249,-0.0525 0.41249,-0.11668 z m 18.7358,-0.92512 c 0.0661,-0.19844 -0.0331,-0.29766 -0.23151,-0.23151 -0.19099,0.0637 -0.39935,0.27202 -0.46302,0.46302 -0.0661,0.19844 0.0331,0.29766 0.23151,0.23151 0.191,-0.0637 0.39936,-0.27203 0.46302,-0.46302 z m -5.90351,-0.0165 c -0.0899,-0.14552 -0.45415,-0.26458 -0.80937,-0.26458 -0.35521,0 -0.64584,0.11906 -0.64584,0.26458 0,0.14552 0.36421,0.26459 0.80937,0.26459 0.4722,0 0.74124,-0.11022 0.64584,-0.26459 z m 19.35386,-0.56265 1.54822,-0.82723 -1.05833,0.16675 c -0.58209,0.0917 -1.45554,0.24086 -1.94101,0.33144 -0.81444,0.15196 -0.87579,0.1161 -0.79375,-0.464 0.0814,-0.5757 0.19845,-0.62291 1.38847,-0.56024 0.92157,0.0485 1.44283,-0.0612 1.79219,-0.37739 0.36816,-0.33319 0.41015,-0.49683 0.16618,-0.64761 -0.24453,-0.15113 -0.19631,-0.34769 0.19219,-0.78328 l 0.51864,-0.58151 -0.84675,0.43307 c -0.46572,0.23819 -1.12912,0.43307 -1.47422,0.43307 -0.34511,0 -1.15469,0.16971 -1.79908,0.37713 -0.64439,0.20743 -1.76692,0.45968 -2.49453,0.56056 l -1.32291,0.18342 1.32291,0.3396 c 0.97047,0.24913 1.5291,0.59322 2.09679,1.29153 0.42563,0.52356 0.86003,0.95193 0.96532,0.95193 0.1053,0 0.88815,-0.37226 1.73967,-0.82724 z m -32.75916,-0.24312 c -0.28474,-0.81681 -0.81855,-0.93353 -0.95904,-0.20969 -0.06,0.30894 0.46627,0.75098 1.18755,0.99756 0.0288,0.01 -0.074,-0.3447 -0.22851,-0.78787 z m 7.45217,-0.25256 c 0,-0.14552 -0.11906,-0.26458 -0.26458,-0.26458 -0.14552,0 -0.26458,0.11906 -0.26458,0.26458 0,0.14552 0.11906,0.26458 0.26458,0.26458 0.14552,0 0.26458,-0.11906 0.26458,-0.26458 z m 4.59701,-0.59338 c -0.36534,-0.70648 -0.43551,-1.57074 -0.39741,-4.89479 l 0.0463,-4.03683 h -0.93231 -0.9323 l -0.0233,2.3151 c -0.0359,3.5584 -0.2133,5.30792 -0.6425,6.33515 -0.21588,0.51665 -0.3925,0.98436 -0.3925,1.03935 0,0.055 0.83649,0.1 1.85888,0.1 h 1.85887 z m 14.28739,0.26265 c -1.30457,-1.48657 -2.83652,-4.21447 -4.19756,-7.47448 -0.48603,-1.16417 -1.18861,-2.83104 -1.56128,-3.70417 -0.37267,-0.87312 -0.68041,-1.71853 -0.68386,-1.87868 -0.004,-0.16015 0.5766,-0.65352 1.28902,-1.09638 1.34105,-0.83364 2.9587,-3.08269 2.51042,-3.49028 -0.12862,-0.11694 -0.67496,-0.27929 -1.2141,-0.36079 -0.79973,-0.12089 -1.00892,-0.0579 -1.13592,0.34231 -0.25848,0.81439 -2.22104,2.66007 -3.39561,3.19336 -1.15398,0.52396 -2.54116,0.62099 -4.87311,0.34089 l -1.38906,-0.16684 0.0136,-3.33659 c 0.0196,-4.81903 0.2827,-6.79327 1.00088,-7.51089 1.23454,-1.23358 5.83154,-0.5082 7.67248,1.21067 0.82556,0.77083 1.26419,1.66186 1.49148,3.02979 0.10276,0.61846 0.3252,1.1261 0.49431,1.12809 0.1691,0.002 0.57536,0.0754 0.90278,0.16315 0.53777,0.14411 0.59531,0.0662 0.59531,-0.80616 0,-1.30185 -1.08414,-3.35859 -2.29761,-4.35884 -1.60504,-1.32301 -3.14808,-1.68386 -8.02114,-1.87583 -2.40109,-0.0946 -4.4049,-0.14476 -4.45291,-0.11149 -0.048,0.0333 0.12786,0.38884 0.39083,0.79017 0.43755,0.66779 0.47111,1.35433 0.39566,8.09275 l -0.0825,7.36305 h 0.93457 0.93456 l 0.08,-1.38906 c 0.0627,-1.08874 0.16578,-1.36338 0.47685,-1.27027 0.21828,0.0653 1.65832,0.16467 3.20008,0.22075 l 2.8032,0.10197 0.42074,0.96987 c 0.23141,0.53343 0.65518,1.56518 0.9417,2.29278 0.72953,1.85259 2.5095,6.27547 3.38076,8.40053 l 0.73222,1.78593 h 1.58281 1.58282 z m -12.79898,-0.58886 c 0,-0.19756 0.32742,-0.59926 0.7276,-0.89267 0.58374,-0.42801 0.66222,-0.59978 0.39688,-0.86874 -0.24737,-0.25075 -0.33073,-0.25523 -0.33073,-0.0177 0,0.18647 -0.38218,0.3175 -0.92604,0.3175 -0.90687,0 -1.29059,0.53721 -0.66146,0.92604 0.14552,0.0899 0.26458,0.40165 0.26458,0.69269 0,0.29104 0.11907,0.45558 0.26459,0.36564 0.14552,-0.0899 0.26458,-0.32515 0.26458,-0.52271 z m -5.17254,-0.0676 c 0.10091,-0.26297 0.0407,-0.50299 -0.14145,-0.56371 -0.17446,-0.0582 -0.80368,-0.53667 -1.39828,-1.06338 -0.86535,-0.76653 -0.9968,-0.82487 -0.65869,-0.29231 0.23232,0.36594 0.507,1.05055 0.61041,1.52136 0.14586,0.66412 0.32523,0.85601 0.80014,0.85601 0.33667,0 0.69121,-0.20609 0.78787,-0.45797 z m -8.89812,-0.40192 c -0.0465,-0.32743 -0.20361,-0.59532 -0.34913,-0.59532 -0.14552,0 -0.30263,0.26789 -0.34913,0.59532 -0.0582,0.40962 0.0507,0.59531 0.34913,0.59531 0.2984,0 0.4073,-0.18569 0.34913,-0.59531 z m 17.38997,-0.53152 c 0.0101,-0.57921 -0.0619,-0.64638 -0.46302,-0.4317 -0.48304,0.25851 -0.62269,0.79352 -0.29314,1.12307 0.34967,0.34967 0.74424,-0.0111 0.75616,-0.69137 z m 4.22278,0.0661 c 0.24471,-0.39595 -0.11662,-1.32055 -0.51606,-1.32055 -0.50767,0 -1.02389,0.72426 -0.84623,1.18726 0.17287,0.45047 1.10961,0.54213 1.36229,0.13329 z m 9.10859,-0.45197 c 0.64491,-0.23095 1.6357,-0.44604 2.20176,-0.47798 1.1382,-0.0642 2.06961,-0.65518 1.03263,-0.65518 -0.41864,0 -0.57076,-0.13652 -0.51594,-0.46302 0.13495,-0.80372 -0.97407,-0.70102 -1.98146,0.18347 -0.96353,0.84599 -1.37356,0.98327 -1.64158,0.5496 -0.3012,-0.48736 0.38871,-1.28578 1.38365,-1.60127 1.15553,-0.36641 2.18484,-0.96842 2.18484,-1.27785 0,-0.11858 -0.43243,-0.23187 -0.96097,-0.25174 -0.52853,-0.0199 -1.18159,-0.10614 -1.45123,-0.19173 -0.86842,-0.27562 -3.9378,3.20244 -3.9378,4.4621 0,0.48136 1.98597,0.33245 3.6861,-0.2764 z m -28.07737,-0.0583 c 0.0662,-0.19844 -0.0331,-0.29766 -0.23151,-0.23151 -0.191,0.0637 -0.39936,0.27202 -0.46302,0.46302 -0.0661,0.19843 0.0331,0.29765 0.23151,0.23151 0.19099,-0.0637 0.39935,-0.27203 0.46302,-0.46302 z m 6.66419,-0.14883 c 0,-0.4522 -0.14648,-0.6626 -0.46302,-0.66507 -0.25466,-0.002 -0.76068,-0.0763 -1.12448,-0.16507 -0.6071,-0.14819 -0.58536,-0.0944 0.26458,0.65432 1.13237,0.99752 1.32292,1.02285 1.32292,0.17582 z m 16.98275,-1.00574 c -0.31822,-0.33873 -0.57858,-0.77308 -0.57858,-0.96523 0,-0.19214 0.25419,-0.0262 0.56487,0.36877 0.50289,0.63932 0.60857,0.67444 0.96299,0.32002 0.22189,-0.22189 0.4403,-1.02169 0.49343,-1.80692 0.0524,-0.77485 0.0259,-1.25999 -0.059,-1.07809 -0.0849,0.1819 -0.38414,0.33073 -0.66503,0.33073 -0.28089,0 -0.71745,0.11037 -0.97014,0.24527 -0.25268,0.1349 -0.66645,0.30924 -0.91949,0.38743 -0.38609,0.11931 -0.41519,0.2602 -0.18096,0.87627 0.54223,1.42616 1.35259,2.5155 1.65003,2.21807 0.19754,-0.19754 0.1094,-0.46251 -0.29813,-0.89632 z m -11.95567,0.22029 c 0,-0.48147 -0.10788,-0.61175 -0.41043,-0.49565 -0.3508,0.13461 -0.38473,-0.0363 -0.23354,-1.17603 0.13493,-1.01715 0.0754,-1.47846 -0.25102,-1.94446 -0.41898,-0.59817 -0.42896,-0.58206 -0.47753,0.77084 -0.0915,2.54847 -0.0835,2.70496 0.13436,2.63856 0.11938,-0.0364 0.33366,0.14221 0.47617,0.39688 0.37307,0.66662 0.76199,0.56958 0.76199,-0.19014 z m 2.80861,0.18608 c 0.16229,-0.10691 0.37867,-0.46227 0.48085,-0.78969 0.16517,-0.52926 0.0948,-0.59532 -0.6341,-0.59532 -0.85334,0 -1.245,0.47967 -0.97218,1.19063 0.16338,0.42574 0.64735,0.50934 1.12543,0.19438 z m -13.78881,-0.58256 c 1.53448,-0.73777 1.89118,-1.09698 2.11423,-2.12914 0.42884,-1.98444 1.43809,-3.34752 3.24358,-4.38073 0.69862,-0.3998 0.85989,-0.65681 0.85989,-1.37039 0,-0.48307 -0.19168,-1.17085 -0.42596,-1.52841 -0.23428,-0.35756 -0.35654,-0.83103 -0.27169,-1.05215 0.13629,-0.35517 0.061,-0.3538 -0.64598,0.0118 -0.44014,0.2276 -0.87539,0.61596 -0.96722,0.86301 -0.28017,0.7538 -1.20971,1.9044 -1.53851,1.9044 -0.17523,0 -0.37878,0.57849 -0.46769,1.32922 -0.0866,0.73107 -0.24394,1.46919 -0.34967,1.64028 -0.26604,0.43046 -0.29169,1.53962 -0.0392,1.69566 0.31922,0.19729 0.24689,1.27555 -0.10948,1.63192 -0.41533,0.41533 -1.4508,0.40737 -1.71988,-0.0132 -0.11637,-0.1819 -0.47947,-0.34018 -0.80689,-0.35174 -0.52893,-0.0186 -0.59532,0.10673 -0.59532,1.12448 0,1.30911 0.16913,1.37058 1.7198,0.62502 z m 18.49875,-0.10312 c -0.0918,-0.23911 -0.27315,-0.43474 -0.4031,-0.43474 -0.36103,0 -0.28118,0.73361 0.0944,0.86777 0.44723,0.15972 0.505,0.0787 0.30865,-0.43303 z m -1.21258,-0.60508 c -0.0515,-0.27012 -0.36034,-0.52917 -0.68627,-0.57567 -0.66176,-0.0944 -0.81445,0.4129 -0.19574,0.65032 0.21828,0.0838 0.39688,0.34197 0.39688,0.57379 0,0.30508 0.0799,0.34156 0.28939,0.13208 0.15917,-0.15916 0.24725,-0.5104 0.19574,-0.78052 z m -11.33305,0.15512 c 0,-0.47546 -0.13974,-0.53408 -1.10392,-0.46302 -1.8542,0.13666 -1.56204,0.89495 0.37632,0.97671 0.56793,0.0239 0.7276,-0.0888 0.7276,-0.51369 z m -3.25245,-1.37076 c -0.0633,-0.32912 -0.11747,-0.12215 -0.12041,0.45993 -0.003,0.58209 0.0488,0.85137 0.11507,0.5984 0.0662,-0.25296 0.0686,-0.72921 0.005,-1.05833 z m 9.66963,1.05525 c 0.0612,-0.1819 0.0594,-0.53085 -0.004,-0.77544 -0.14634,-0.56446 -0.85691,-0.31848 -0.85691,0.29663 0,0.767 0.64354,1.12491 0.86093,0.47881 z m -6.5909,-0.99624 c 0.12274,-0.11228 0.27666,-1.00091 0.34204,-1.97474 0.12817,-1.90892 0.16837,-1.88203 -1.29679,-0.86739 -0.76678,0.53101 -1.32951,1.44536 -1.60932,2.61488 -0.16462,0.68811 -0.15424,0.69348 1.08735,0.56307 0.68946,-0.0724 1.35399,-0.22353 1.47672,-0.33582 z m 7.3884,-0.096 c -0.0851,-0.44518 0.0589,-0.75468 0.49244,-1.05833 0.6701,-0.46936 0.48232,-0.58261 -0.28505,-0.17193 -0.57892,0.30983 -0.84611,0.92177 -0.63858,1.46256 0.24257,0.63213 0.56339,0.45929 0.43119,-0.2323 z m 4.52267,0.2323 c -0.0838,-0.21828 -0.19909,-0.39687 -0.25628,-0.39687 -0.0572,0 -0.10399,0.17859 -0.10399,0.39687 0,0.21828 0.11533,0.39688 0.25628,0.39688 0.14096,0 0.18775,-0.1786 0.10399,-0.39688 z m 13.13058,-0.12686 c 0.38084,-0.71161 0.0657,-1.80416 -0.65697,-2.27768 -0.49808,-0.32635 -0.79243,-0.33695 -1.80883,-0.0651 -1.65403,0.44238 -1.19604,1.01443 0.81217,1.01443 1.53878,0 1.55775,0.0264 0.99678,1.38907 -0.26537,0.64461 0.30771,0.59164 0.65685,-0.0607 z m -29.67718,-0.35809 c 0.0495,-0.25521 -0.0833,-0.44109 -0.31511,-0.44109 -0.49153,0 -0.78818,0.43131 -0.55555,0.80772 0.23932,0.38723 0.7676,0.16478 0.87066,-0.36663 z m 24.83439,0.042 c 0.82536,-0.77539 0.77562,-0.93526 -0.33118,-1.06448 -0.84602,-0.0988 -0.92843,-0.0539 -0.79736,0.43408 0.0804,0.29932 0.1478,0.69305 0.14979,0.87495 0.005,0.47833 0.28321,0.40887 0.97875,-0.24455 z m -12.08764,-0.10179 c 0,-0.22687 -0.11906,-0.33891 -0.26458,-0.24897 -0.14552,0.0899 -0.26459,0.27556 -0.26459,0.41249 0,0.13693 0.11907,0.24897 0.26459,0.24897 0.14552,0 0.26458,-0.18562 0.26458,-0.41249 z m 2.46951,0.035 c 0.15029,-0.39166 -0.5159,-1.1351 -0.78027,-0.87074 -0.2042,0.2042 0.14455,1.24827 0.41695,1.24827 0.12014,0 0.28364,-0.16989 0.36332,-0.37753 z m 5.07378,-0.42054 c 0.0914,-0.14789 0.25942,-0.21128 0.37336,-0.14086 0.11394,0.0704 0.66667,-0.10623 1.22829,-0.39256 0.94566,-0.48213 0.96938,-0.52059 0.32094,-0.52059 -0.3851,0 -0.99366,-0.11158 -1.35235,-0.24796 -0.52082,-0.19801 -0.67811,-0.15804 -0.78096,0.19844 -0.0708,0.24551 -0.21456,0.65475 -0.3194,0.90941 -0.20326,0.49373 0.24378,0.65743 0.53012,0.19412 z m -8.73467,-0.52248 c 0.20105,-0.63343 -0.0215,-1.0607 -0.55233,-1.0607 -0.54084,0 -0.76392,0.71955 -0.37016,1.19399 0.44378,0.53473 0.72329,0.49434 0.92249,-0.13329 z m 18.95129,-0.0729 c -0.2613,-0.25936 -0.29169,-0.22897 -0.14811,0.14811 0.0994,0.26094 0.2473,0.40778 0.32877,0.32632 0.0815,-0.0815 1.7e-4,-0.29496 -0.18066,-0.47443 z m -31.15754,-0.003 c 0.43434,-0.31752 0.37925,-1.24971 -0.0739,-1.24971 -0.49753,0 -1.15219,0.75471 -0.9996,1.15236 0.20076,0.52317 0.45915,0.54662 1.07346,0.0974 z m 16.57263,-0.19138 c 0,-0.14807 -0.6117,-0.24628 -1.38906,-0.22302 l -1.38906,0.0416 1.32291,0.18145 c 0.72761,0.0998 1.35268,0.20015 1.38906,0.22302 0.0364,0.0229 0.0661,-0.0775 0.0661,-0.22302 z m -18.25625,-0.37524 c 0,-0.82066 -0.3102,-1.23919 -0.6868,-0.92665 -0.26311,0.21837 -0.28797,0.43448 -0.0921,0.80051 0.31517,0.58889 0.77888,0.66399 0.77888,0.12614 z m 21.97214,-0.53668 c -0.35898,-0.43254 -0.80811,-0.3205 -0.80142,0.19993 0.003,0.21086 0.0793,0.19634 0.23151,-0.0439 0.28987,-0.45747 0.67483,0.0754 0.40269,0.55741 -0.14642,0.25936 -0.11224,0.26178 0.15838,0.0112 0.27956,-0.25883 0.28124,-0.39647 0.009,-0.72469 z m -9.49989,0.14094 c 0.71837,-0.58239 0.67975,-0.65466 -0.64574,-1.20849 l -0.97859,-0.40888 v 0.67618 c 0,0.63401 0.45121,1.41495 0.83058,1.43752 0.093,0.006 0.45021,-0.21781 0.79375,-0.49633 z m 2.609,0.15053 c 0,-0.54037 -0.78433,-1.13958 -2.46393,-1.88238 -2.90735,-1.28576 -6.43693,-0.65261 -7.73313,1.38721 -0.41928,0.65982 -0.3811,0.64708 0.46562,-0.15533 0.88913,-0.84259 2.85131,-1.63947 4.03693,-1.63947 1.23791,0 3.395,0.86204 4.32774,1.72951 1.0548,0.98097 1.36677,1.1089 1.36677,0.56046 z m 2.77813,-0.1733 c -0.0899,-0.14552 -0.40165,-0.26458 -0.69269,-0.26458 -0.29104,0 -0.45558,0.11906 -0.36565,0.26458 0.0899,0.14552 0.40165,0.26458 0.69269,0.26458 0.29104,0 0.45558,-0.11906 0.36565,-0.26458 z m -1.56137,-1.37468 c -0.37984,-0.25385 -0.39858,-0.19272 -0.21855,0.71322 0.1567,0.78857 0.15883,0.78943 0.32583,0.13229 0.0925,-0.3638 0.0442,-0.74428 -0.10728,-0.84551 z m 11.48324,0.9778 c 0,-0.21828 0.1318,-0.39687 0.29289,-0.39687 0.16109,0 0.22436,0.17859 0.1406,0.39687 -0.16552,0.43132 0.1186,0.46389 1.15401,0.1323 0.65361,-0.20932 0.65218,-0.21215 -0.11984,-0.23821 l -0.7813,-0.0264 1.04588,-1.12085 c 0.57524,-0.61648 0.73272,-0.84724 0.34996,-0.51281 -0.79086,0.691 -2.81074,1.36908 -4.07824,1.36908 -1.7845,0 -3.57582,-0.83342 -5.09085,-2.36852 -1.44876,-1.46797 -1.49525,-1.109 -0.10115,0.78102 0.37568,0.50932 0.4798,0.76263 0.23138,0.56291 -0.24842,-0.19971 -0.45167,-0.24406 -0.45167,-0.0985 0,0.43761 0.75927,0.92839 1.18408,0.76538 0.21839,-0.0838 0.36873,-0.0233 0.3341,0.13434 -0.11006,0.50109 1.71969,0.97622 3.83963,0.99703 1.65524,0.0162 2.05052,-0.0564 2.05052,-0.37675 z m -12.25187,-0.79375 c -0.16746,-1.03193 0.0442,-1.13577 1.01639,-0.49873 0.79223,0.51909 0.81117,0.2899 0.11436,-1.38421 l -0.53778,-1.29206 -1.90961,-0.0177 c -1.05029,-0.01 -2.23704,-0.10131 -2.63722,-0.20348 -0.69201,-0.17666 -0.7276,-0.13979 -0.7276,0.75363 0,0.65852 0.13844,0.98629 0.46302,1.09623 1.4455,0.48965 3.27043,1.4422 3.68047,1.92109 0.64203,0.74984 0.7125,0.70076 0.53797,-0.37475 z m -13.98454,0.0309 c 0.0813,-0.42643 -0.0136,-0.47101 -0.65821,-0.30922 -0.91748,0.23027 -0.98963,0.2945 -0.75587,0.67274 0.2835,0.4587 1.30746,0.19547 1.41408,-0.36352 z m -1.80942,-0.31437 c 0,-0.0832 -0.17101,-0.32219 -0.38001,-0.53119 -0.40215,-0.40215 -0.84389,-0.0642 -0.54604,0.4178 0.1726,0.27926 0.92605,0.37152 0.92605,0.11339 z m 26.94148,-0.6037 c -0.5299,-0.64996 -0.64907,-0.69593 -0.85741,-0.33073 -0.25662,0.44983 -0.69697,0.81027 -0.9981,0.81699 -0.42498,0.009 -2.86097,-2.80876 -2.86097,-3.3099 0,-0.30193 -0.10751,-0.66208 -0.23891,-0.80032 -0.13139,-0.13825 -0.28022,-0.46193 -0.33072,-0.7193 -0.084,-0.42827 -0.16436,-0.41706 -0.94715,0.13229 -0.47043,0.33013 -0.85739,0.75859 -0.8599,0.95213 -0.008,0.59436 2.98113,3.36081 3.96418,3.6692 0.50932,0.15978 1.56017,0.30267 2.33523,0.31752 l 1.40918,0.027 z m 5.44797,-0.23729 c 0.53294,-0.81734 0.6212,-1.21004 0.50083,-2.22835 -0.11664,-0.98674 -0.23307,-1.20858 -0.57706,-1.09952 -0.31787,0.10079 -0.34181,0.0725 -0.0912,-0.10791 0.18776,-0.13517 0.26269,-0.4452 0.16754,-0.69317 -0.29051,-0.75705 -0.9081,0.034 -0.87342,1.11863 0.0169,0.52789 0.0851,0.75144 0.1517,0.49677 0.18186,-0.69593 0.61136,-0.55653 0.61136,0.19844 0,0.3638 -0.20836,0.87178 -0.46302,1.12885 -0.67862,0.68502 -1.43632,1.91386 -1.18008,1.91386 0.27545,0 1.47228,-1.27397 1.86423,-1.98438 0.16411,-0.29745 0.29547,-0.37325 0.29999,-0.17311 0.0102,0.45274 -0.83225,1.89291 -1.10733,1.89291 -0.11414,0 -0.20754,0.11906 -0.20754,0.26458 0,0.47825 0.24779,0.27882 0.90404,-0.7276 z m -4.71258,-0.1323 c -0.78806,-0.68707 -1.02996,-1.12577 -1.20359,-2.18281 l -0.21729,-1.32292 -0.0311,1.15561 c -0.0272,1.00925 0.099,1.2857 0.99608,2.18281 0.56497,0.56497 1.12058,1.02721 1.23471,1.02721 0.11413,0 -0.23633,-0.38695 -0.77879,-0.8599 z m -24.8132,-0.0219 c 0.0495,-0.25521 -0.0833,-0.4411 -0.31512,-0.4411 -0.49152,0 -0.78818,0.43131 -0.55555,0.80772 0.23933,0.38723 0.76761,0.16478 0.87067,-0.36662 z m -1.46416,-0.17625 c 0.0761,-0.2909 0.0294,-0.59624 -0.1038,-0.67854 -0.44704,-0.27628 -1.29571,0.17966 -1.29571,0.69611 0,0.72064 1.21043,0.70545 1.39951,-0.0176 z m 24.14703,0.24127 c 0.27266,-0.44118 -0.34058,-0.94708 -0.70557,-0.58209 -0.30531,0.30531 -0.11423,0.86972 0.29444,0.86972 0.12835,0 0.31335,-0.12943 0.41113,-0.28763 z m 4.1321,-0.15025 c 0.35742,-0.32346 0.48386,-0.81949 0.48386,-1.8982 v -1.46033 l -0.59532,0.5248 c -0.32742,0.28863 -0.92607,0.66555 -1.33034,0.83758 -1.0839,0.46125 -1.20456,1.08166 -0.35285,1.81427 0.85489,0.73535 1.15003,0.76526 1.79465,0.18188 z m -30.47239,-1.01733 c -0.18116,-0.21828 -0.43386,-0.39687 -0.56157,-0.39687 -0.1277,0 -0.23218,0.17859 -0.23218,0.39687 0,0.22812 0.23878,0.39688 0.56156,0.39688 0.46917,0 0.50737,-0.0653 0.23219,-0.39688 z m 3.83646,-0.79375 c 0,-0.60325 -0.13256,-0.81268 -0.55232,-0.87266 -0.80486,-0.11499 -1.28385,0.55771 -0.90335,1.26868 0.47053,0.87921 1.45567,0.6112 1.45567,-0.39602 z m 27.97968,0.48623 c -0.1819,-0.0734 -0.33073,-0.32196 -0.33073,-0.55237 0,-0.23041 -0.0742,-0.34468 -0.16497,-0.25395 -0.25812,0.25812 0.11012,0.98391 0.4874,0.96066 0.26555,-0.0164 0.26734,-0.0498 0.008,-0.15434 z m -7.20989,-0.7225 c 0,-0.37174 -0.76088,-0.81083 -0.9966,-0.57511 -0.0699,0.0699 -0.0566,0.31083 0.0296,0.53539 0.1952,0.5087 0.96703,0.5404 0.96703,0.0397 z m 1.85208,-0.0283 c 0,-0.24694 -0.24988,-0.39687 -0.66146,-0.39687 -0.41157,0 -0.66146,0.14993 -0.66146,0.39687 0,0.24695 0.24989,0.39688 0.66146,0.39688 0.41158,0 0.66146,-0.14993 0.66146,-0.39688 z m 5.47241,-0.44648 c -0.0845,-0.21107 -0.14716,-0.14838 -0.15985,0.15985 -0.0115,0.27891 0.051,0.43518 0.13896,0.34726 0.0879,-0.0879 0.0973,-0.31612 0.0209,-0.50711 z m 2.08905,-0.85841 c -0.19487,-1.03873 -1.25238,-2.27398 -1.92643,-2.25021 -0.38048,0.0134 -0.35687,0.0645 0.11798,0.25544 0.77018,0.30964 1.64738,1.76037 1.67522,2.77049 0.012,0.43657 0.0841,0.63854 0.16006,0.44883 0.076,-0.18972 0.0639,-0.74076 -0.0268,-1.22455 z m -34.06794,0.51114 c -0.3121,-0.685 -0.85248,-0.8661 -1.14964,-0.38528 -0.23803,0.38514 0.3687,1.04674 0.95993,1.04674 0.42781,0 0.45226,-0.0852 0.18971,-0.66146 z m 5.55477,0.0623 c 0.0994,-0.51639 -0.53295,-0.86142 -1.14699,-0.62579 -0.33669,0.1292 -0.34755,0.24351 -0.0662,0.69583 0.39367,0.63278 1.08547,0.59284 1.21313,-0.07 z m 24.42504,-0.10482 c 0.33159,-0.40121 0.31247,-0.40783 -0.22015,-0.0762 -0.73897,0.46017 -1.17947,0.0719 -0.49021,-0.43213 0.28224,-0.20638 0.39516,-0.37524 0.25093,-0.37524 -0.37255,0 -0.89723,0.57247 -0.89723,0.97896 0,0.49076 0.92604,0.42562 1.35666,-0.0954 z m -28.12409,-0.5775 c 0.0763,-0.53919 0.007,-0.59567 -0.52916,-0.43328 -0.82486,0.24965 -1.11301,0.54646 -0.88644,0.91308 0.32764,0.53013 1.32025,0.1937 1.4156,-0.4798 z m 26.39911,0.28928 c 0.19332,-0.25466 0.35527,-0.62643 0.3599,-0.82614 0.0122,-0.52683 -0.68844,0.0963 -0.86426,0.76866 -0.16855,0.64453 0.0406,0.66837 0.50436,0.0575 z m -19.47948,-0.80936 c 0.002,-0.19049 -0.11502,-0.27276 -0.26054,-0.18283 -0.14552,0.0899 -0.26276,0.42439 -0.26053,0.74322 0.003,0.47129 0.052,0.50548 0.26053,0.18283 0.14107,-0.21829 0.25831,-0.55273 0.26054,-0.74322 z m 16.51887,0.8472 c 0.49515,-0.19001 0.54924,-0.92575 0.10101,-1.37398 -0.41834,-0.41835 -0.6198,-0.40074 -1.11828,0.0978 -0.31345,0.31344 -0.34824,0.54047 -0.14188,0.92604 0.29136,0.54441 0.4937,0.60554 1.15915,0.35019 z m 1.5626,-0.21041 c 0.14939,-0.3893 -0.0216,-0.68732 -0.39444,-0.68732 -0.12126,0 -0.22048,0.23812 -0.22048,0.52916 0,0.60667 0.40303,0.71033 0.61492,0.15816 z m 4.73102,0.0395 c -0.19416,-0.23395 -0.16477,-0.48237 0.0999,-0.84432 0.48171,-0.65877 0.47935,-1.03752 -0.005,-0.85155 -0.21936,0.0842 -0.43525,-0.0438 -0.51014,-0.30242 -0.0714,-0.2466 -0.0645,0.004 0.0153,0.55688 0.14297,0.99009 0.13371,1.00287 -0.61434,0.8488 -0.72587,-0.1495 -0.7185,-0.13377 0.16654,0.3552 1.14972,0.63519 1.18676,0.64556 0.84803,0.23741 z m -27.70323,-0.72323 c 0,-0.42285 -0.16994,-0.69056 -0.47574,-0.74945 -0.67247,-0.12951 -1.21456,0.40458 -1.04987,1.03437 0.21857,0.83581 1.52561,0.59171 1.52561,-0.28492 z m 19.71145,0.27657 c 0,-0.13693 -0.11906,-0.32255 -0.26458,-0.41249 -0.14552,-0.0899 -0.26458,0.0221 -0.26458,0.24897 0,0.22687 0.11906,0.41249 0.26458,0.41249 0.14552,0 0.26458,-0.11203 0.26458,-0.24897 z m 5.3887,-1.36021 c 0.45596,-0.27803 0.68433,-0.50595 0.50749,-0.50649 -0.42595,-10e-4 -2.19202,1.55959 -2.19202,1.93737 0,0.16282 0.19249,0.0212 0.42776,-0.31466 0.23526,-0.33589 0.80081,-0.83819 1.25677,-1.11622 z m -30.36426,0.35792 c -0.26895,-0.26895 -0.49087,0.13597 -0.2702,0.49302 0.1667,0.26972 0.22902,0.26993 0.31864,10e-4 0.0613,-0.18383 0.0395,-0.40617 -0.0484,-0.49408 z m 2.1744,0.11407 c 0.14229,-0.74636 -0.43887,-1.28585 -1.03912,-0.96461 -0.49823,0.26665 -0.6726,1.04864 -0.31383,1.40741 0.3417,0.3417 1.26073,0.0409 1.35295,-0.4428 z m 4.28033,0.34344 c 0,-0.14552 -0.11906,-0.26458 -0.26458,-0.26458 -0.14552,0 -0.26459,0.11906 -0.26459,0.26458 0,0.14552 0.11907,0.26459 0.26459,0.26459 0.14552,0 0.26458,-0.11907 0.26458,-0.26459 z m 2.83326,-0.62657 c 0.66264,-0.57616 0.7971,-1.35697 0.27559,-1.60034 -0.26458,-0.12347 -0.26458,-0.18521 0,-0.30868 0.18191,-0.0849 0.33073,-0.32528 0.33073,-0.5342 0,-0.3965 -0.94036,-0.29586 -1.91823,0.20529 -0.76787,0.39352 -0.54521,0.80793 0.33073,0.61554 0.52682,-0.1157 0.79375,-0.0709 0.79375,0.13332 0,0.16921 -0.14789,0.25836 -0.32866,0.1981 -0.434,-0.14466 -0.91604,0.83622 -0.77829,1.58373 0.11515,0.6249 0.28252,0.58704 1.29438,-0.29276 z m 20.18549,-0.57675 c 0,-0.18016 -0.17859,-0.3961 -0.39687,-0.47986 -0.23166,-0.0889 -0.39688,-0.004 -0.39688,0.20388 0,0.1959 -0.18423,0.50907 -0.4094,0.69595 -0.32175,0.26703 -0.33721,0.38438 -0.0722,0.54818 0.37753,0.23332 1.27534,-0.44824 1.27534,-0.96815 z m 2.49146,0.76858 c 0.0918,-0.23911 0.12101,-0.48057 0.065,-0.53657 -0.18729,-0.18729 -1.49813,0.42536 -1.49813,0.70018 0,0.44818 1.25327,0.3051 1.43313,-0.16361 z m -28.38355,-0.70447 c 0.30239,-0.57655 0.30056,-0.57708 -0.26316,-0.0765 -0.31222,0.27721 -0.56767,0.61166 -0.56767,0.74322 0,0.37246 0.49352,-0.0235 0.83083,-0.66667 z m 14.51501,0.64236 c 0,-0.41023 -0.79402,-2.14792 -0.99574,-2.17915 -1.43934,-0.2228 -1.60603,-0.18143 -1.76128,0.43712 -0.0878,0.34986 -0.39637,0.7628 -0.68569,0.91764 -0.28932,0.15484 -0.52604,0.45593 -0.52604,0.66909 0,0.30592 0.41806,0.38757 1.98437,0.38757 1.09141,0 1.98438,-0.10452 1.98438,-0.23227 z m 7.14375,-0.0323 c 0,-0.14552 -0.0525,-0.26459 -0.11668,-0.26459 -0.0642,0 -0.19026,0.11907 -0.2802,0.26459 -0.0899,0.14552 -0.0374,0.26458 0.11668,0.26458 0.15411,0 0.2802,-0.11906 0.2802,-0.26458 z m -19.05,-0.2734 c 0.34351,-0.22985 0.32782,-0.31824 -0.11672,-0.6574 -0.45489,-0.34707 -0.4617,-0.39185 -0.0596,-0.39185 0.2497,0 0.56798,-0.29979 0.70729,-0.6662 0.1393,-0.36642 0.53831,-0.77457 0.88667,-0.90702 0.59424,-0.22593 0.70568,-0.48089 1.0491,-2.40018 0.0395,-0.22084 0.17659,-0.571 0.3046,-0.77814 0.14687,-0.23763 0.12105,-0.41384 -0.07,-0.47751 -0.16649,-0.0555 -0.73731,-0.39583 -1.26849,-0.7563 -0.53117,-0.36046 -1.0411,-0.57977 -1.13318,-0.48736 -0.0921,0.0924 -0.15518,1.49729 -0.14021,3.12193 0.015,1.62465 -0.0243,2.67705 -0.0872,2.33867 -0.10466,-0.56301 -0.17603,-0.5181 -0.84085,0.52917 -0.64851,1.02158 -0.68174,1.17899 -0.30971,1.46671 0.5103,0.39466 0.57994,0.39889 1.07821,0.0655 z m 12.86513,-0.3976 c -0.29316,-0.76399 -0.91534,-3.1636 -1.09094,-4.20754 -0.16489,-0.98029 -0.14649,-1.02019 0.3091,-0.67018 0.26643,0.20469 0.53115,0.40298 0.58826,0.44064 0.0571,0.0377 -0.0434,0.24594 -0.22345,0.46285 -0.52461,0.63212 -0.23096,0.96904 0.51648,0.59259 0.54806,-0.27602 0.94315,-0.25538 2.30459,0.12042 1.42982,0.39468 3.30835,0.59146 4.92092,0.51546 0.27036,-0.0127 0.40223,-0.14619 0.30304,-0.30667 -0.1049,-0.16975 0.0308,-0.15524 0.33708,0.0361 0.59851,0.37377 3.6743,-0.0555 4.15495,-0.57989 0.21056,-0.22973 0.14773,-0.25985 -0.24662,-0.11824 -0.29104,0.10451 -1.08647,0.2567 -1.76762,0.33821 -1.45984,0.17468 -1.54445,-0.13628 -0.40541,-1.48996 0.3948,-0.46919 0.71305,-0.99277 0.70723,-1.1635 -0.006,-0.17074 -0.18124,0.004 -0.38981,0.38756 -0.56801,1.04548 -2.68354,2.34472 -3.81788,2.34472 -1.3856,0 -4.45128,-0.911 -5.12428,-1.52273 -0.31862,-0.28963 -0.72595,-0.47302 -0.90517,-0.40755 -0.5166,0.18872 -1.60874,-1.25028 -2.09934,-2.76608 -0.24726,-0.76398 -0.53275,-1.38906 -0.63442,-1.38906 -0.10167,0 -0.3238,0.55178 -0.49361,1.22618 -0.4046,1.60682 -1.12606,2.98636 -1.97728,3.78088 -0.40678,0.37969 -0.6826,0.91952 -0.67592,1.32291 0.0109,0.65869 0.0441,0.64452 0.99219,-0.42374 0.82068,-0.9247 1.10022,-1.08164 1.71134,-0.9608 0.51763,0.10235 0.77477,0.34727 0.88257,0.84064 0.23798,1.08915 1.69662,4.00351 2.00375,4.00351 0.15198,0 0.20609,-0.18301 0.12025,-0.40668 z m -1.85367,-3.79278 c -0.15225,-0.79701 -0.37661,-1.19746 -0.72142,-1.28763 -0.51298,-0.13415 -0.71219,-0.86291 -0.23588,-0.86291 0.14552,0 0.2784,-0.32742 0.29528,-0.7276 0.0222,-0.52629 0.0623,-0.5812 0.14476,-0.19844 0.0627,0.29104 0.29609,0.9556 0.51856,1.47679 0.22247,0.52119 0.36291,1.35463 0.31208,1.85208 l -0.0924,0.90446 z m 10.53044,4.03886 c 0.88023,-0.33777 0.35831,-1.69148 -0.65215,-1.69148 -0.47262,0 -0.83763,1.06868 -0.5028,1.47212 0.34904,0.42056 0.5374,0.45634 1.15495,0.21936 z m -24.63933,-0.90119 c 0.091,-0.34789 -0.0299,-0.6232 -0.34863,-0.79375 -0.73157,-0.39153 -0.78476,-0.33287 -0.48305,0.53263 0.32093,0.9206 0.63355,1.01875 0.83168,0.26112 z m 16.4179,0.12434 c -0.0862,-0.22456 -0.21342,-0.35154 -0.28278,-0.28219 -0.0694,0.0694 -0.0476,0.25309 0.0483,0.40829 0.26089,0.42213 0.41338,0.34012 0.23447,-0.1261 z m 12.87328,-0.75552 c 0,-0.53137 -0.70518,-1.48203 -1.09934,-1.48203 -0.12297,0 -0.22358,0.27921 -0.22358,0.62045 0,0.34125 -0.23812,0.83596 -0.52917,1.09934 -0.80209,0.72589 -0.64617,0.85619 0.66146,0.55281 0.90805,-0.21068 1.19063,-0.39831 1.19063,-0.79057 z m 3.05695,0.87617 c 0.0978,-0.1582 0.0278,-0.42609 -0.15549,-0.59531 -0.25781,-0.23802 -0.28685,-0.2261 -0.12826,0.0526 0.12142,0.2134 0.0563,0.45448 -0.15962,0.59126 -0.23973,0.15185 -0.25669,0.23234 -0.0495,0.235 0.17331,0.002 0.39511,-0.12538 0.49288,-0.28358 z m -35.15399,-1.26597 c -0.34012,-0.13753 -0.69149,0.50362 -0.52037,0.94953 0.10319,0.26892 0.22687,0.20321 0.45283,-0.24059 0.17682,-0.34729 0.20594,-0.65297 0.0675,-0.70894 z m 1.40537,0.72901 c 0,-0.37483 -0.98817,-0.26905 -1.13816,0.12183 -0.0977,0.25468 0.0444,0.321 0.50086,0.23374 0.35051,-0.067 0.6373,-0.22701 0.6373,-0.35557 z m 4.1195,-1.95888 c 0.0864,-0.46041 0.11756,-1.18334 0.0693,-1.60651 -0.0796,-0.69789 -0.18044,-0.76939 -1.08526,-0.76939 -0.86309,0 -0.93649,-0.0446 -0.54474,-0.33073 0.24902,-0.1819 0.66011,-0.33073 0.91353,-0.33073 0.67785,0 0.82701,-0.83574 0.35205,-1.97248 l -0.41756,-0.99938 -0.59598,0.55989 c -0.7126,0.66945 -1.62901,0.71293 -2.79256,0.13247 -0.63029,-0.31443 -0.93479,-0.3494 -1.1519,-0.13229 -0.21711,0.21711 -0.2098,0.29513 0.0276,0.29513 0.17752,0 0.79665,0.29915 1.37584,0.66477 0.89598,0.56561 1.05307,0.80104 1.05307,1.57819 0,0.67797 0.15345,0.99423 0.59532,1.22692 0.32742,0.17243 0.68278,0.44451 0.78969,0.60462 0.27082,0.40559 0.24333,2.0659 -0.0417,2.51609 -0.12983,0.20508 -0.17331,0.53636 -0.0966,0.73617 0.19672,0.51264 1.3492,-1.103 1.54989,-2.17274 z m 8.57383,2.25431 c 0.11805,0 0.2779,-0.16485 0.35521,-0.36633 0.11507,-0.29986 1.7e-4,-0.31334 -0.63315,-0.0743 -0.42555,0.16063 -0.77372,0.39775 -0.77372,0.52693 0,0.12919 0.18833,0.16262 0.41851,0.0743 0.23018,-0.0883 0.5151,-0.1606 0.63315,-0.1606 z m 18.44366,-0.31419 c -0.0845,-0.21107 -0.14716,-0.14838 -0.15985,0.15985 -0.0115,0.27891 0.051,0.43518 0.13896,0.34726 0.0879,-0.0879 0.0973,-0.31612 0.0209,-0.50711 z m 1.74131,0.42061 c 0.28837,-0.28837 -0.11883,-0.90017 -0.59913,-0.90017 -0.63187,0 -0.89322,0.72665 -0.31607,0.87877 0.71083,0.18736 0.74836,0.18824 0.9152,0.0214 z m -13.58292,-0.80356 c 0.85989,-1.09318 0.72907,-1.51809 -0.41045,-1.33317 -1.21723,0.19753 -1.21628,0.19622 -0.86857,1.19366 0.3549,1.01808 0.56952,1.04149 1.27902,0.13951 z m 4.7817,0.18359 c 0,-0.13693 -0.11906,-0.32256 -0.26458,-0.41249 -0.14552,-0.0899 -0.26458,0.0221 -0.26458,0.24897 0,0.22687 0.11906,0.41249 0.26458,0.41249 0.14552,0 0.26458,-0.11204 0.26458,-0.24897 z m 3.29374,-1.06104 c -0.39516,-0.39516 -1.01931,0.12082 -0.80903,0.66882 0.16869,0.4396 0.20964,0.44148 0.62253,0.0286 0.28411,-0.28411 0.35072,-0.53319 0.1865,-0.69741 z m -25.25415,0.56601 c 0,-0.11815 -0.35719,-0.4789 -0.79375,-0.80167 -0.43657,-0.32276 -0.79375,-0.75768 -0.79375,-0.96649 0,-0.2088 -0.25267,-0.51487 -0.56149,-0.68014 -0.48691,-0.26058 -0.54173,-0.46388 -0.4128,-1.53066 0.12213,-1.01045 0.097,-1.12384 -0.1404,-0.63486 -0.159,0.32743 -0.37177,0.59532 -0.47281,0.59532 -0.10105,0 -0.31292,-0.26789 -0.47083,-0.59532 -0.15791,-0.32742 -0.29517,-0.44468 -0.30502,-0.26057 -0.029,0.54155 1.59809,3.25076 1.85641,3.09111 0.12996,-0.0803 0.17087,0.0244 0.0909,0.23279 -0.0871,0.22686 0.20606,0.65577 0.73063,1.06914 0.90537,0.71345 1.27288,0.85243 1.27288,0.48135 z m 10.4294,0.0542 c 0.23018,-0.0883 0.41851,-0.39154 0.41851,-0.67381 0,-0.49767 -0.0198,-0.49882 -0.65314,-0.0378 -0.96847,0.70488 -0.83137,1.12071 0.23463,0.71165 z m 12.51769,-0.26384 c -0.0879,-0.0879 -0.31612,-0.0973 -0.50712,-0.0209 -0.21106,0.0845 -0.14837,0.14716 0.15985,0.15986 0.27892,0.0115 0.43519,-0.0511 0.34727,-0.13897 z m 3.87151,-0.23702 c 0.10358,-0.26995 -0.0143,-0.39687 -0.36857,-0.39687 -0.2866,0 -0.52087,0.17849 -0.52087,0.39687 0,0.21828 0.16586,0.39688 0.36857,0.39688 0.20271,0 0.4371,-0.1786 0.52087,-0.39688 z m -14.10463,-0.46302 c -0.008,-0.10914 -0.014,-0.43656 -0.014,-0.7276 0,-0.6233 -0.58966,-0.69701 -1.05833,-0.1323 -0.2632,0.31714 -0.26131,0.4789 0.009,0.8051 0.33388,0.40231 1.09011,0.4413 1.06289,0.0548 z m -12.81558,-1.13993 c -0.17486,-0.45567 -0.95673,-0.51413 -0.95673,-0.0715 0,0.17044 0.20836,0.54078 0.46302,0.82297 0.41371,0.45842 0.47245,0.46604 0.55155,0.0715 0.0487,-0.24285 0.0227,-0.61318 -0.0578,-0.82296 z m 30.91644,-0.44479 c 0.15054,-0.10761 0.42254,-0.14111 0.60444,-0.0744 0.1819,0.0667 0.33073,0.006 0.33073,-0.13507 0,-0.14095 -0.16886,-0.25628 -0.37524,-0.25628 -0.72934,0 -1.2363,0.33733 -1.61893,1.07726 -0.55911,1.08121 -0.47591,1.22643 0.19911,0.34748 0.3224,-0.4198 0.70935,-0.85133 0.85989,-0.95894 z m -25.25858,1.13731 c 0,-0.13693 -0.11907,-0.32255 -0.26459,-0.41249 -0.14552,-0.0899 -0.26458,0.0221 -0.26458,0.24897 0,0.22687 0.11906,0.41249 0.26458,0.41249 0.14552,0 0.26459,-0.11203 0.26459,-0.24897 z m 23.64952,-0.21405 c 0.0898,-0.25466 0.2385,-0.62927 0.33039,-0.83247 0.10831,-0.2395 -0.0662,-0.19347 -0.49619,0.13087 -0.36481,0.27517 -0.60592,0.64978 -0.53582,0.83246 0.18125,0.47233 0.51052,0.41091 0.70162,-0.13086 z m 2.27964,-0.0661 c 0,-0.29105 -0.11906,-0.52917 -0.26458,-0.52917 -0.14552,0 -0.26458,0.23812 -0.26458,0.52917 0,0.29104 0.11906,0.52916 0.26458,0.52916 0.14552,0 0.26458,-0.23812 0.26458,-0.52916 z m -2.90622,-1.72238 c 0.14321,-0.0885 0.25643,-0.30274 0.25159,-0.47605 -0.005,-0.17331 -0.24297,-0.034 -0.52917,0.30951 -0.2862,0.34354 -0.50963,0.93885 -0.4965,1.32292 0.0226,0.66223 0.0365,0.65456 0.26877,-0.14858 0.1347,-0.46578 0.36209,-0.91929 0.50531,-1.0078 z m -22.49378,0.53175 c 0.26976,-0.32504 0.25168,-0.39687 -0.0999,-0.39687 -0.2361,0 -0.42927,0.17859 -0.42927,0.39687 0,0.21828 0.045,0.39688 0.0999,0.39688 0.0549,0 0.24812,-0.1786 0.42927,-0.39688 z m 21.03691,0.19439 c 0.14692,-0.10692 0.49649,-0.63174 0.77684,-1.16628 0.40423,-0.77074 0.44383,-1.0513 0.19135,-1.35553 -0.17512,-0.211 -0.24706,-0.56953 -0.15987,-0.79674 0.12731,-0.33175 -0.0279,-0.4035 -0.788,-0.36427 -0.89382,0.0461 -0.94711,0.10041 -0.95708,0.97489 -0.006,0.50932 -0.17296,1.21933 -0.37144,1.5778 -0.31436,0.56776 -0.30462,0.69455 0.0755,0.98377 0.50117,0.3813 0.85252,0.42301 1.23268,0.14636 z m -28.44524,-1.15283 c 0,-0.93954 -0.055,-1.04507 -0.39688,-0.76135 -0.44834,0.37209 -0.53412,1.05833 -0.13229,1.05833 0.14552,0 0.26459,0.1786 0.26459,0.39688 0,0.21828 0.0595,0.39687 0.13229,0.39687 0.0728,0 0.13229,-0.49083 0.13229,-1.09073 z m 12.47711,-1.15823 c 0.76303,-1.61155 0.96773,-2.77812 0.48747,-2.77812 -0.14552,0 -0.26489,0.32742 -0.26526,0.7276 -3.7e-4,0.40019 -0.41709,1.41818 -0.92604,2.26221 -1.00699,1.66997 -1.18893,2.32019 -0.48659,1.73894 0.24133,-0.19972 0.77702,-1.0775 1.19042,-1.95063 z m 11.7533,0.48858 c -0.10387,-0.27069 -0.33616,-0.33576 -0.74733,-0.20937 -0.7737,0.23784 -0.7697,0.23268 -0.57454,0.74126 0.0918,0.23911 0.33642,0.43474 0.5437,0.43474 0.20728,0 0.46243,0.20836 0.567,0.46302 0.14998,0.36524 0.20827,0.30464 0.27601,-0.28693 0.0472,-0.41247 0.018,-0.9267 -0.0648,-1.14272 z m 7.35995,0.12449 c 0.4861,-0.85014 0.47193,-0.84448 -0.452,0.18068 -0.52461,0.58209 -0.95879,1.16609 -0.96484,1.29778 -0.0183,0.39711 0.88093,-0.5412 1.41684,-1.47846 z m -12.51238,1.14293 c 0.16966,0.26779 0.22954,0.21466 0.23255,-0.20633 0.005,-0.63219 -0.73448,-1.04926 -1.14023,-0.64351 -0.173,0.173 -0.13877,0.41057 0.10072,0.69914 0.25646,0.30902 0.39437,0.3423 0.47061,0.11357 0.0808,-0.24247 0.1651,-0.23316 0.33635,0.0371 z m 7.64362,-2.35131 c 0.002,-0.76631 -0.19125,-0.75028 -0.96053,0.0798 -0.62159,0.6707 -0.80412,1.43949 -0.4305,1.81312 0.2904,0.2904 1.38952,-1.20525 1.39103,-1.8929 z m -19.04868,0.97657 c 0,-0.28245 -0.11907,-0.51355 -0.26459,-0.51355 -0.14552,0 -0.26458,0.30469 -0.26458,0.67708 0,0.384 0.11452,0.60629 0.26458,0.51355 0.14552,-0.0899 0.26459,-0.39462 0.26459,-0.67708 z m 8.50903,-0.4474 c -0.42697,-0.5457 -0.89943,-1.34938 -1.04991,-1.78594 -0.15048,-0.43656 -0.283,-0.59314 -0.29448,-0.34795 -0.0354,0.7559 0.46967,1.79265 1.20567,2.47475 0.99339,0.92065 1.03869,0.80935 0.13872,-0.34086 z m 1.78767,0.64752 c -0.0606,-0.044 -0.46743,-0.28923 -0.90399,-0.54487 l -0.79375,-0.46479 0.62462,0.54487 c 0.34354,0.29968 0.75034,0.54487 0.90399,0.54487 0.15366,0 0.22976,-0.036 0.16913,-0.0801 z m -11.64427,-0.77981 c -0.16932,-0.32742 -0.61999,-0.85508 -1.0015,-1.17258 -0.63209,-0.52604 -0.65672,-0.61495 -0.2776,-1.00191 0.54833,-0.55966 1.25975,-0.26602 1.49289,0.61617 l 0.18456,0.69842 0.16313,-0.79375 c 0.27446,-1.33544 -0.10238,-1.71979 -1.68619,-1.71979 -0.76744,0 -1.61243,0.15875 -1.87778,0.35277 -0.46563,0.34048 -0.46578,0.37819 -0.004,1.08243 0.37706,0.57546 2.87782,2.53355 3.23571,2.53355 0.0434,0 -0.0596,-0.26789 -0.22887,-0.59531 z m 12.19548,0.25399 c -0.80186,-0.37034 -1.0931,-0.73927 -0.93156,-1.18003 0.0758,-0.20684 -0.11854,-0.33073 -0.5188,-0.33073 -0.35201,0 -0.76137,-0.20836 -0.90969,-0.46302 -0.22704,-0.38981 -0.27096,-0.39708 -0.27773,-0.046 -0.0121,0.62704 2.14506,2.36559 2.90237,2.33915 0.21828,-0.008 0.0992,-0.15133 -0.26459,-0.31936 z m 6.23123,-0.66071 c -0.17111,-0.0418 -0.60133,0.04 -0.95606,0.18167 l -0.64496,0.25765 0.72761,0.0168 c 0.40018,0.009 0.73597,0.1656 0.7462,0.3475 0.0102,0.1819 0.11303,0.0926 0.22845,-0.19843 0.135,-0.34042 0.0989,-0.55628 -0.10124,-0.60516 z m 6.7154,0.22431 c 0.47911,-0.42775 1.04305,-1.10916 1.25322,-1.51424 0.21016,-0.40509 0.30076,-0.65518 0.20134,-0.55575 -0.0994,0.0994 -0.52287,0.004 -0.94098,-0.21235 l -0.76021,-0.39311 -0.009,0.86669 c -0.005,0.47668 -0.17954,1.16434 -0.38751,1.52815 -0.72046,1.26032 -0.54133,1.33843 0.6435,0.28061 z m -33.06157,-0.39305 c -0.35588,-0.35589 -0.62056,0.005 -0.40872,0.55663 0.152,0.39611 0.21555,0.40822 0.41855,0.0798 0.14436,-0.23358 0.14046,-0.48612 -0.01,-0.6364 z m 9.19974,-0.83406 0.065,-1.03788 -0.39175,1.05833 c -0.4774,1.28972 -0.47556,1.25964 -0.069,1.12608 0.1819,-0.0598 0.35998,-0.57569 0.39574,-1.14653 z m 10.9152,0.9465 c 0,-0.14552 -0.11906,-0.26459 -0.26458,-0.26459 -0.14552,0 -0.26458,0.11907 -0.26458,0.26459 0,0.14552 0.11906,0.26458 0.26458,0.26458 0.14552,0 0.26458,-0.11906 0.26458,-0.26458 z m 12.19099,-1.17735 c 0.28143,-1.25756 0.26616,-1.5282 -0.11941,-2.11667 -0.53109,-0.81054 -1.16774,-0.849 -2.53211,-0.15295 -0.97176,0.49576 -2.13113,1.66937 -2.13113,2.15731 0,0.12457 0.89297,0.15755 1.98437,0.0733 2.06996,-0.15979 2.11565,-0.13651 1.99822,1.01791 -0.0259,0.25466 0.0709,0.46302 0.21514,0.46302 0.14423,0 0.40744,-0.64887 0.58492,-1.44193 z m -18.88941,0.59857 c -0.0845,-0.21107 -0.14716,-0.14837 -0.15986,0.15985 -0.0115,0.27892 0.0511,0.43519 0.13897,0.34727 0.0879,-0.0879 0.0973,-0.31612 0.0209,-0.50712 z m 13.22707,0.17805 c 0.21487,-0.0668 0.13312,-0.46745 -0.26459,-1.29684 -0.49805,-1.03866 -0.68594,-1.20105 -1.39593,-1.20652 -0.93285,-0.007 -2.48688,0.4754 -2.48688,0.7723 0,0.10873 0.23509,0.41044 0.52242,0.67047 0.28732,0.26002 0.59485,0.70101 0.68339,0.97997 0.13904,0.43809 0.32922,0.48472 1.39581,0.34223 0.67916,-0.0907 1.37476,-0.20846 1.54578,-0.26161 z m -23.70917,-0.66692 c 0.74542,-0.39893 0.62612,-0.98186 -0.23987,-1.17206 -0.75314,-0.16542 -1.89419,-1.7281 -1.89419,-2.5941 0,-0.33818 -0.71174,-0.7065 -1.38906,-0.71883 -0.10914,-0.002 -0.19844,0.29404 -0.19844,0.65784 0,0.36381 0.1086,0.66146 0.24133,0.66146 0.13273,0 0.32254,0.48072 0.4218,1.06825 0.15305,0.90585 0.25911,1.0433 0.69767,0.9041 0.66276,-0.21035 1.90602,0.58174 1.71096,1.09006 -0.17216,0.44866 -0.036,0.4703 0.6498,0.10328 z m 10.76989,-0.47024 c 0.0576,-0.17281 -0.0838,-0.3142 -0.31419,-0.3142 -0.23041,0 -0.41893,0.18852 -0.41893,0.41893 0,0.46723 0.56959,0.38586 0.73312,-0.10473 z m 13.73785,-1.15808 c -0.19499,-0.12051 -0.11725,-0.24788 0.22083,-0.3618 0.28696,-0.0967 1.14352,-0.48917 1.90347,-0.87215 l 1.38173,-0.69633 -0.95339,-0.48911 c -0.93883,-0.48165 -0.96482,-0.48067 -1.70174,0.0642 -0.91502,0.6765 -1.68212,0.73446 -0.80634,0.0609 l 0.6249,-0.48059 -1.83653,-0.59052 c -1.07682,-0.34624 -2.26563,-0.54951 -2.87386,-0.49139 l -1.03733,0.0991 1.12448,0.21793 c 0.61846,0.11986 1.12448,0.32177 1.12448,0.44869 0,0.12692 0.35016,0.23077 0.77813,0.23077 0.96875,0 1.16796,0.31209 1.11377,1.74484 -0.0236,0.62286 0.0769,1.20648 0.22326,1.29693 0.14635,0.0905 0.27031,0.42532 0.27547,0.74415 0.009,0.55961 0.022,0.55684 0.37448,-0.08 0.26688,-0.48219 0.28415,-0.70972 0.0642,-0.84566 z M 111.191,180.6416 c -0.0845,-0.21107 -0.14715,-0.14837 -0.15985,0.15985 -0.0115,0.27892 0.051,0.43519 0.13897,0.34727 0.0879,-0.0879 0.0973,-0.31612 0.0209,-0.50712 z m 36.06129,-0.14883 c -0.0151,-0.50862 -1.01021,-1.43594 -1.44955,-1.35079 -0.77833,0.15086 -0.75442,0.68866 0.05,1.12473 0.81315,0.44081 1.40878,0.53702 1.39955,0.22606 z m -31.03855,-1.14508 c 0,-0.57437 -0.0651,-0.69803 -0.22091,-0.41962 -0.1215,0.21711 -0.14845,0.58357 -0.0599,0.81436 0.22981,0.59888 0.28079,0.52722 0.28079,-0.39474 z m -1.04694,-0.24451 c 0.0607,-0.86737 -0.20441,-1.01392 -0.71695,-0.39635 -0.26278,0.31664 -0.26278,0.47712 0,0.79375 0.48456,0.58386 0.65491,0.48944 0.71695,-0.3974 z m 20.01203,0.3974 c 0.52242,-0.21828 1.37742,-0.39687 1.90001,-0.39687 0.59265,0 0.88593,-0.10391 0.77947,-0.27617 -0.0939,-0.1519 -0.0178,-0.46036 0.169,-0.68547 0.29864,-0.35984 0.20597,-0.39964 -0.76694,-0.3294 -0.60864,0.0439 -1.11626,-0.0345 -1.12805,-0.17442 -0.0248,-0.29389 -1.02084,-0.8926 -1.50799,-0.90641 -0.1819,-0.005 -0.33073,0.21136 -0.33073,0.48115 0,0.5683 -1.13572,1.88509 -1.64102,1.90265 -0.3031,0.0105 0.98577,0.70542 1.41027,0.76033 0.0914,0.0118 0.59356,-0.1571 1.11598,-0.37539 z m -17.99241,-0.99326 c -0.18907,-0.30593 -0.61365,0.29587 -0.60744,0.86097 0.003,0.30521 0.0921,0.28093 0.38435,-0.10512 0.20899,-0.2761 0.30938,-0.61623 0.22309,-0.75585 z m 3.08426,0.50299 c -0.3638,-0.33322 -0.79328,-0.83547 -0.9544,-1.11612 -0.16112,-0.28065 -0.46227,-0.54371 -0.66923,-0.58458 -0.28622,-0.0565 -0.35284,0.1715 -0.27835,0.95261 0.0894,0.93767 0.16718,1.02888 0.89484,1.04957 0.4383,0.0125 0.86405,0.0898 0.94612,0.17187 0.0821,0.0821 0.2782,0.14545 0.43585,0.14086 0.15764,-0.005 -0.011,-0.281 -0.37483,-0.61421 z m -2.11667,-0.67187 c 0,-0.40372 -0.0761,-0.81017 -0.16919,-0.90323 -0.34411,-0.34411 -0.51897,0.0753 -0.41231,0.98886 0.12613,1.08044 0.5815,1.01339 0.5815,-0.0856 z m 29.02033,0.18649 c -0.0845,-0.21106 -0.14716,-0.14837 -0.15986,0.15986 -0.0115,0.27891 0.0511,0.43518 0.13897,0.34726 0.0879,-0.0879 0.0973,-0.31612 0.0209,-0.50712 z m -15.09572,-0.15135 c 0.50358,0.22945 0.72856,0.1915 1.15557,-0.19494 0.29163,-0.26392 0.52084,-0.7293 0.50935,-1.03417 -0.0174,-0.46234 -0.065,-0.43359 -0.28663,0.1733 -0.18982,0.51973 -0.44843,0.72761 -0.90515,0.72761 -0.92972,0 -0.79238,-0.61382 0.35277,-1.57662 0.54571,-0.45881 0.74661,-0.71623 0.44645,-0.57205 -0.5842,0.28062 -2.76155,2.53631 -2.76155,2.86091 0,0.10719 0.19437,5.3e-4 0.43193,-0.23703 0.34254,-0.34254 0.56134,-0.37296 1.05726,-0.14701 z m -17.89336,-0.0458 c 0,-0.13572 0.23813,-0.32233 0.52917,-0.41471 0.70133,-0.22259 0.67122,-0.56744 -0.0661,-0.75767 -0.32742,-0.0845 -0.79814,-0.51409 -1.04603,-0.95472 -0.24789,-0.44063 -0.63484,-0.80115 -0.85989,-0.80115 -0.55185,0 -0.51536,0.35107 0.0938,0.90233 0.27663,0.25035 0.57968,0.86412 0.67344,1.36393 0.1501,0.80011 0.67567,1.31504 0.67567,0.66199 z m 14.02292,-0.0466 c 0,-0.16134 -0.65603,-0.94937 -1.45784,-1.75118 l -1.45784,-1.45784 -2.5354,0.14929 c -1.64426,0.0968 -2.75927,0.29599 -3.17236,0.56666 -0.9364,0.61355 -0.78654,0.75856 0.61979,0.59974 1.09964,-0.12418 1.1658,-0.10575 0.52917,0.14741 -0.40018,0.15913 -0.7276,0.44494 -0.7276,0.63513 0,0.41933 0.38467,0.44175 1.09124,0.0636 0.7742,-0.41433 2.08376,-0.0575 2.08376,0.56781 0,0.61895 0.41049,0.66985 0.63722,0.079 0.1241,-0.32339 0.37556,-0.39036 1.0205,-0.27177 l 0.85582,0.15736 -0.73388,-0.40142 c -0.40363,-0.22079 -0.85103,-0.32903 -0.99422,-0.24053 -0.14318,0.0885 -0.44652,-0.0253 -0.67408,-0.25285 -0.31265,-0.31265 -0.32789,-0.41374 -0.0624,-0.41374 0.82722,0 2.21005,0.56593 2.84151,1.16291 0.37475,0.3543 0.97903,0.69762 1.34283,0.76293 0.3638,0.0653 0.69122,0.13497 0.7276,0.15479 0.0364,0.0198 0.0661,-0.096 0.0661,-0.25731 z m -2.77812,-1.84801 c -0.58209,-0.40598 -1.35599,-0.7868 -1.7198,-0.84625 -0.49521,-0.0809 -0.4262,-0.11807 0.27458,-0.14775 0.68386,-0.029 1.18283,0.16724 1.85208,0.72829 1.21316,1.01702 0.93283,1.20009 -0.40686,0.26571 z m 4.92548,1.28146 c 0.0176,-0.49303 0.0843,-0.65228 0.15624,-0.37326 0.11711,0.45392 0.16842,0.44637 0.76306,-0.11226 0.77618,-0.72919 0.80826,-1.03584 0.10834,-1.03584 -0.29104,0 -0.4994,0.10716 -0.46302,0.23813 0.0364,0.13097 -0.0529,0.25851 -0.19844,0.28344 -0.14552,0.0249 -0.46408,0.22585 -0.70792,0.44652 -0.61064,0.55263 -1.35507,0.34883 -1.53673,-0.42069 -0.0832,-0.35225 -0.29674,-0.68897 -0.47463,-0.74827 -0.4535,-0.15117 -0.40238,0.35648 0.12108,1.20237 1.00952,1.63132 2.1826,1.90454 2.23202,0.51986 z m -7.70361,0.33073 c 0,-0.43288 -1.25171,-0.41667 -1.70656,0.0221 -0.15395,0.14851 0.12802,0.24247 0.7276,0.24247 0.53843,0 0.97896,-0.11906 0.97896,-0.26458 z m 2.24896,0 c -0.0899,-0.14552 -0.27556,-0.26459 -0.41249,-0.26459 -0.13693,0 -0.24897,0.11907 -0.24897,0.26459 0,0.14552 0.18562,0.26458 0.41249,0.26458 0.22687,0 0.33891,-0.11906 0.24897,-0.26458 z m 21.26521,-0.18308 c -0.24674,-0.30419 -0.25713,-0.38398 -0.0324,-0.24897 0.55944,0.3361 0.36646,-0.13562 -0.31315,-0.76546 -0.58006,-0.53759 -0.69807,-0.55877 -1.19063,-0.21378 -0.78673,0.55106 -0.68858,0.97157 0.18086,0.77488 0.66239,-0.14986 0.68017,-0.1354 0.19844,0.16127 -0.50218,0.30926 -0.48869,0.33484 0.26458,0.5015 1.24032,0.27441 1.27767,0.26565 0.8923,-0.20944 z m -13.19542,-0.61067 c 0,-0.14552 -0.0525,-0.26459 -0.11668,-0.26459 -0.0642,0 -0.19026,0.11907 -0.28019,0.26459 -0.0899,0.14552 -0.0374,0.26458 0.11667,0.26458 0.15411,0 0.2802,-0.11906 0.2802,-0.26458 z m 9.9031,-0.3884 c -0.23532,-0.35914 -0.37132,-0.80562 -0.30222,-0.99219 0.0736,-0.19873 0.24555,-0.0379 0.4152,0.3884 0.27137,0.68186 0.83184,1.01347 0.83184,0.49216 0,-0.1295 0.54886,-0.49344 1.2197,-0.80877 0.67083,-0.31533 1.1451,-0.64793 1.05392,-0.73911 -0.0912,-0.0912 -0.30667,-0.0249 -0.47887,0.14732 -0.33614,0.33614 -1.33176,0.4233 -1.61379,0.14127 -0.22444,-0.22444 -2.01376,-0.27455 -2.09937,-0.0588 -0.16228,0.40899 -1.73348,0.50968 -2.10807,0.13509 -0.45254,-0.45254 -3.46864,-0.4488 -4.27356,0.005 -0.39322,0.22183 -0.0944,0.30804 1.45521,0.41984 1.195,0.0862 2.01567,0.0361 2.11955,-0.12943 0.0932,-0.14855 0.25008,-0.0163 0.34856,0.29402 0.13969,0.44014 0.39319,0.56499 1.1534,0.56803 0.5359,0.002 1.27202,0.16907 1.63582,0.37093 0.9785,0.54296 1.11842,0.492 0.64268,-0.23406 z m 3.74377,-0.0809 c -0.4556,-0.43638 -0.46124,-0.43074 -0.12656,0.12655 0.19266,0.32081 0.40723,0.52633 0.47684,0.45673 0.0696,-0.0696 -0.088,-0.33209 -0.35028,-0.58328 z M 117.36026,176.061 c 0,-0.49214 -0.0893,-0.95 -0.19843,-1.01745 -0.10914,-0.0675 -0.19844,0.3904 -0.19844,1.01745 0,0.62705 0.0893,1.08491 0.19844,1.01745 0.10914,-0.0674 0.19843,-0.5253 0.19843,-1.01745 z m 12.30126,0.92907 c 0.0927,-0.14998 -0.0135,-0.19433 -0.24897,-0.10398 -0.23865,0.0916 -0.41062,0.0164 -0.41062,-0.17942 0,-0.18534 -0.0714,-0.26553 -0.15879,-0.1782 -0.19832,0.19833 0.10894,0.72316 0.42337,0.72316 0.12835,0 0.3061,-0.1177 0.39501,-0.26156 z m -12.97645,-0.72409 c 0.17935,-0.4674 -0.28722,-1.13102 -0.79519,-1.13102 -0.84395,0 -1.6914,0.52033 -1.53047,0.93971 0.33659,0.87715 2.00966,1.01477 2.32566,0.19131 z m -4.49609,-0.13883 c -0.28774,-0.95238 -0.51292,-1.02485 -0.57275,-0.18433 -0.0389,0.54701 0.0651,0.77964 0.34856,0.77964 0.29592,0 0.35592,-0.15932 0.22419,-0.59531 z m 18.40045,0.0661 c 0,-0.14552 -0.12609,-0.26458 -0.2802,-0.26458 -0.15411,0 -0.20661,0.11906 -0.11667,0.26458 0.0899,0.14552 0.21602,0.26459 0.28019,0.26459 0.0642,0 0.11668,-0.11907 0.11668,-0.26459 z m -16.27375,-1.0553 c 0.0927,-0.14998 -0.0135,-0.19434 -0.24897,-0.10398 -0.45837,0.17589 -0.54223,0.36553 -0.16164,0.36553 0.13693,0 0.32171,-0.1177 0.41061,-0.26155 z m 16.11421,-0.0471 c -0.075,-0.12126 -0.24831,-0.22048 -0.38524,-0.22048 -0.13693,0 -0.24897,0.0992 -0.24897,0.22048 0,0.12127 0.17336,0.22049 0.38524,0.22049 0.21188,0 0.32391,-0.0992 0.24897,-0.22049 z m 7.36944,-0.39571 c -0.1819,-0.0734 -0.47956,-0.0734 -0.66146,0 -0.1819,0.0734 -0.0331,0.13345 0.33073,0.13345 0.3638,0 0.51263,-0.0601 0.33073,-0.13345 z m 2.77261,0.0154 c -0.0879,-0.0879 -0.31612,-0.0973 -0.50712,-0.0209 -0.21106,0.0845 -0.14837,0.14716 0.15985,0.15986 0.27892,0.0115 0.43519,-0.051 0.34727,-0.13897 z m -26.88115,33.40687 c -0.16208,-0.19529 -0.21738,-0.43239 -0.12289,-0.52687 0.19857,-0.19857 0.88195,0.30489 0.88195,0.64975 0,0.34835 -0.42509,0.27953 -0.75906,-0.12288 z"
       id="path2108" />
  </g>
</svg>
