<?xml version="1.0" encoding="UTF-8" standalone="no"?>
<!-- Created with Inkscape (http://www.inkscape.org/) -->

<svg
   width="71.113014mm"
   height="34.650169mm"
   viewBox="0 0 71.113012 34.650169"
   version="1.1"
   id="svg5"
   inkscape:version="1.1 (c4e8f9ed74, 2021-05-24)"
   sodipodi:docname="ornament30.svg"
   xmlns:inkscape="http://www.inkscape.org/namespaces/inkscape"
   xmlns:sodipodi="http://sodipodi.sourceforge.net/DTD/sodipodi-0.dtd"
   xmlns="http://www.w3.org/2000/svg"
   xmlns:svg="http://www.w3.org/2000/svg">
  <sodipodi:namedview
     id="namedview7"
     pagecolor="#ffffff"
     bordercolor="#666666"
     borderopacity="1.0"
     inkscape:pageshadow="2"
     inkscape:pageopacity="0.0"
     inkscape:pagecheckerboard="0"
     inkscape:document-units="mm"
     showgrid="false"
     inkscape:zoom="1.3380612"
     inkscape:cx="15.320675"
     inkscape:cy="208.13697"
     inkscape:window-width="2506"
     inkscape:window-height="1403"
     inkscape:window-x="1974"
     inkscape:window-y="0"
     inkscape:window-maximized="1"
     inkscape:current-layer="layer1" />
  <defs
     id="defs2" />
  <g
     inkscape:label="Layer 1"
     inkscape:groupmode="layer"
     id="layer1"
     transform="translate(-184.82632,-46.208506)">
    <path
       style="fill:#000000;stroke-width:0.264583"
       d="m 172.92485,13.197324 c 1.63367,0.117266 1.98423,0.07828 1.80996,-0.201303 -0.16622,-0.266652 -0.0689,-0.30189 0.4213,-0.152567 0.35058,0.106794 1.64966,0.244683 2.88683,0.30642 2.09302,0.104445 2.20332,0.0847 1.58643,-0.283922 -0.36464,-0.217894 -0.84565,-0.39969 -1.0689,-0.403993 -0.22326,-0.0043 -0.81993,-0.358234 -1.32594,-0.786516 -2.36392,-2.0008032 -2.76684,-2.3672332 -2.61162,-2.3750542 0.0916,-0.0046 0.85484,0.521847 1.69606,1.1699202 0.84122,0.648073 2.40702,1.601964 3.47956,2.119759 1.07254,0.517795 1.95016,0.964649 1.95027,0.99301 1e-4,0.02836 -1.81559,0.03507 -4.03487,0.01492 -2.47955,-0.02252 -3.72876,0.04599 -3.24049,0.177724 0.43702,0.117904 2.35428,0.222488 4.26058,0.232409 3.40478,0.01772 3.48663,0.03214 4.63337,0.81638 0.64205,0.439089 1.82384,1.224651 2.6262,1.745693 0.80237,0.521043 2.47348,1.624767 3.71359,2.45272 5.25681,3.509701 15.32643,8.674276 16.90089,8.668249 0.30329,-0.0012 1.12567,-0.287682 1.82752,-0.636712 2.9861,-1.484992 6.77011,-1.703972 10.93684,-0.632913 1.98427,0.510056 3.17852,0.64589 5.62231,0.639478 4.24098,-0.01113 5.87689,0.17507 9.70214,1.104288 2.76327,0.67124 3.62859,0.775402 5.44321,0.655219 2.63339,-0.174414 3.49647,-0.596821 4.75734,-2.32832 1.14183,-1.568036 2.60328,-2.78717 4.61985,-3.853877 1.77702,-0.939983 3.97776,-2.586916 4.41221,-3.301882 0.31839,-0.523974 0.33383,-0.522799 1.48109,0.11267 l 1.15936,0.642162 -0.48515,-1.387088 c -0.26682,-0.762898 -0.49017,-1.80379 -0.49633,-2.313093 -0.0241,-1.99199 1.65264,-3.440952 4.17941,-3.611705 0.63791,-0.04311 1.28618,-0.205699 1.44061,-0.361313 0.15442,-0.155613 0.46535,-0.276093 0.69094,-0.267732 0.2516,0.0093 0.18038,0.108584 -0.18423,0.256764 -0.70013,0.284535 -0.81362,1.430854 -0.17663,1.784133 0.37278,0.20675 0.37367,0.342464 0.009,1.402185 -0.61603,1.791208 -0.5189,1.800916 0.97374,0.09732 0.76067,-0.868171 1.65537,-1.858794 1.98822,-2.201385 0.49132,-0.505705 0.544,-0.69604 0.27998,-1.011695 -1.11368,-1.331497 -4.51373,-1.684116 -6.45374,-0.669318 -1.60981,0.842072 -2.38124,1.768462 -3.87733,4.65617 -1.80423,3.482482 -3.82676,5.199743 -7.55481,6.414552 -0.78209,0.254846 -2.16303,0.816965 -3.06876,1.249153 -2.49234,1.189265 -4.16247,1.416249 -8.72744,1.186125 -2.18325,-0.110059 -5.87459,-0.20861 -8.20298,-0.219001 -3.05543,-0.01364 -5.08664,-0.172381 -7.29962,-0.570487 -4.94531,-0.889643 -6.71351,-0.836738 -10.26694,0.307184 -1.27633,0.410877 -2.08585,0.507932 -3.31719,0.397701 -1.96743,-0.176128 -6.04265,-1.593298 -9.29082,-3.230911 -4.54333,-2.290582 -12.6534,-7.379534 -16.62452,-10.431647 -1.70364,-1.309375 -4.67531,-2.6386282 -5.9806,-2.6751742 -0.32694,-0.0092 -0.73828,-0.159396 -0.9141,-0.33387 -0.45815,-0.454658 -0.032,-0.408275 2.03491,0.221459 0.97642,0.297496 1.83609,0.479656 1.91038,0.404799 0.0743,-0.07486 -0.1174,-0.487798 -0.42596,-0.917645 -0.30857,-0.429846 -0.56138,-0.874548 -0.56182,-0.988225 -4.3e-4,-0.113676 -0.26028,-0.480788 -0.57743,-0.815804 -1.0187,-1.076074 -0.2909,-0.975961 1.0252,0.141021 0.70047,0.594501 1.31345,0.9616 1.36217,0.815775 0.0487,-0.145824 -0.1027,-0.819514 -0.33647,-1.497087 -0.57544,-1.667904 -0.54346,-2.250871 0.0698,-1.271873 0.27281,0.435521 0.8233,1.088263 1.22331,1.450536 1.12938,1.022834 2.11345,2.60913 2.78373,4.4872942 0.7815,2.189831 1.39263,2.818037 4.8001,4.934243 1.53162,0.951211 3.44124,2.152684 4.24359,2.66994 5.4659,3.523735 12.87093,6.637334 15.75918,6.626278 0.76319,-0.0029 2.14799,-0.267665 3.07734,-0.58832 2.66448,-0.919335 5.09037,-0.971254 9.79046,-0.209536 3.24065,0.525194 5.45454,0.691762 10.82165,0.814198 9.63357,0.219762 10.66075,0.135278 13.3256,-1.096006 0.77781,-0.359383 1.93549,-0.793897 2.57263,-0.965588 1.51327,-0.407783 4.60754,-2.146254 5.78544,-3.250462 0.51189,-0.479872 1.54719,-2.08436 2.30065,-3.56553 1.95549,-3.844115 3.654,-5.13146 6.78619,-5.143449 1.70325,-0.0065 3.67837,0.657892 4.15642,1.398183 0.10085,0.156179 0.69339,0.40581 1.31675,0.554733 0.8283,0.197884 1.29679,0.512146 1.74043,1.167476 0.86855,1.282993 0.78694,1.431348 -0.71136,1.293166 -0.85584,-0.07893 -1.49603,0.0023 -1.81963,0.230775 -1.20287,0.849404 -2.10689,5.061402 -1.6137,7.518537 0.26123,1.301501 0.24511,1.710936 -0.10027,2.54652 -0.22635,0.547618 -0.34968,1.155064 -0.27407,1.349878 0.0756,0.194814 -0.0382,0.422383 -0.25283,0.505705 -0.21468,0.08332 -0.31961,0.264935 -0.23318,0.403588 0.0873,0.140039 0.29416,0.06319 0.46541,-0.172899 0.27302,-0.376402 0.40642,-0.329763 1.16679,0.407974 0.48947,0.474899 0.85956,1.102192 0.86092,1.459269 0.003,0.688259 0.27087,0.884549 4.64325,3.397879 5.82265,3.34698 7.53875,4.46719 7.55001,4.92839 0.0147,0.60161 -0.13368,0.58494 -1.13851,-0.12793 -1.13045,-0.80199 -3.15298,-2.02722 -6.87916,-4.16734 -1.71754,-0.98646 -3.37732,-1.9704 -3.68841,-2.18653 -0.51782,-0.35975 -0.63064,-0.33781 -1.33518,0.25964 -0.42325,0.35892 -1.03532,0.65361 -1.36014,0.65485 -0.92858,0.004 -1.48132,0.57959 -1.65718,1.72702 -0.0896,0.5844 -0.48683,1.4355 -0.88739,1.90112 -0.39887,0.46366 -0.8039,1.2079 -0.90007,1.65387 -0.18931,0.87796 -1.08479,1.71777 -2.44366,2.29174 -0.67039,0.28317 -0.86157,0.52504 -0.87245,1.1038 -0.20781,11.05439 -0.19226,11.51338 0.48132,14.19888 0.99006,3.9473 1.84363,5.01397 3.77558,4.71818 1.14879,-0.17589 2.18424,0.49896 2.18779,1.42587 l 0.003,0.69644 4.10034,-0.19252 c 2.52474,-0.11855 4.1007,-0.0964 4.10129,0.0577 5.3e-4,0.13761 -0.20717,0.31176 -0.46154,0.387 -0.25438,0.0753 -5.99862,0.22406 -12.76498,0.33071 -6.76636,0.10664 -15.63597,0.26604 -19.71024,0.35422 -18.66964,0.40406 -48.54899,0.62961 -48.55,0.36649 -6.7e-4,-0.17639 1.95942,-0.31088 5.53333,-0.37964 3.0439,-0.0586 5.5908,-0.16624 5.65977,-0.23926 0.069,-0.073 0.0457,-0.60364 -0.0518,-1.17914 -0.14025,-0.82818 -0.31469,-1.07848 -0.8366,-1.20042 -0.62751,-0.14662 -0.65856,-0.24302 -0.64206,-1.99324 0.01,-1.01154 0.16429,-2.37551 0.34389,-3.03105 0.21774,-0.79472 0.26714,-1.97516 0.14827,-3.54249 l -0.1783,-2.3506 1.39648,-1.26111 c 0.76807,-0.69361 1.77655,-1.90159 2.24108,-2.68441 0.95017,-1.60122 1.76852,-4.47612 1.53488,-5.39214 -0.0849,-0.33302 -0.16463,-2.19609 -0.17708,-4.14015 -0.0233,-3.63499 0.27031,-5.2929 1.18723,-6.704054 0.24657,-0.379468 0.40225,-0.733176 0.34595,-0.786021 -0.0563,-0.05284 -1.64854,-0.771753 -3.53833,-1.597578 -2.99153,-1.307284 -4.80873,-2.230432 -8.89027,-4.51632 -1.06014,-0.593732 -7.16524,-4.621018 -9.1513,-6.036734 -2.23575,-1.593696 -2.84709,-1.762434 -6.4892,-1.791095 -3.17567,-0.02499 -7.41107,-0.701125 -7.41291,-1.183388 -4.2e-4,-0.107691 0.91099,-0.130356 2.02533,-0.05037 z m 4.6927,-3.9057482 c 0.23378,0.434699 2.00373,1.4626192 2.00259,1.1630242 -0.001,-0.311285 -1.31836,-2.1457632 -1.8967,-2.6416102 -1.58901,-1.362369 -1.6756,-1.375009 -0.99625,-0.145427 0.35075,0.634837 0.75141,1.365642 0.89036,1.624013 z m 1.38814,-0.661081 c 0.67736,1.3940122 2.70023,3.9372312 2.93971,3.6959092 0.0759,-0.07651 0.0219,-0.290365 -0.11997,-0.475241 -0.14191,-0.184876 -0.47528,-0.930623 -0.74083,-1.657216 -0.43207,-1.1822412 -2.24023,-3.8768402 -2.85374,-4.2527732 -0.36096,-0.221179 0.0446,1.186603 0.77483,2.689321 z m 21.42757,51.0991212 c 0.28381,-10e-4 0.62453,0.19022 0.75717,0.42512 0.22105,0.39146 0.29858,0.38915 0.92941,-0.0276 0.65754,-0.43444 0.66926,-0.48347 0.26261,-1.09893 -0.35148,-0.53198 -0.40366,-1.18442 -0.29955,-3.74511 0.0693,-1.70549 0.24965,-3.41571 0.40069,-3.80048 0.15104,-0.38477 0.78713,-1.0748 1.41353,-1.5334 0.62639,-0.4586 1.49423,-1.31983 1.92852,-1.91384 0.43429,-0.594 1.26479,-1.36292 1.84555,-1.70869 0.58077,-0.34578 1.35171,-1.12166 1.71321,-1.72419 0.41803,-0.69677 1.09053,-1.31933 1.84759,-1.7104 1.63567,-0.84495 3.75179,-3.06203 2.91955,-3.05884 -1.362,0.005 -6.71404,0.94719 -7.57959,1.33404 -0.97069,0.43383 -1.16184,0.66818 -1.56088,1.91365 -0.40345,1.25919 -1.28652,3.03931 -1.69094,3.40866 -0.0802,0.0732 -0.82312,0.86623 -1.65101,1.76228 -1.43721,1.55552 -1.49359,1.66928 -1.24715,2.51633 0.3671,1.26177 0.3201,3.57842 -0.10399,5.1254 -0.19967,0.72837 -0.37152,1.8899 -0.38189,2.58117 -0.0162,1.07786 0.0546,1.25657 0.49717,1.25487 z m 2.00877,2.93644 c 0.43692,0.0909 1.53858,0.17649 2.44815,0.19022 1.23628,0.0187 1.6534,-0.0662 1.65237,-0.33621 -0.002,-0.62456 -1.07829,-1.75095 -1.6796,-1.75844 -0.31687,-0.004 -0.87335,-0.17019 -1.23661,-0.36943 -0.57361,-0.31462 -0.75782,-0.30425 -1.40075,0.0789 -0.59001,0.35159 -0.72381,0.60236 -0.65911,1.23544 0.0657,0.64283 0.23266,0.82582 0.87555,0.95956 z m 0.99525,-3.05683 c 0.40964,0.34937 1.03581,0.6341 1.3915,0.63274 0.83186,-0.003 1.67985,0.84363 1.89346,1.89084 l 0.16779,0.82257 2.778,-0.18065 c 1.5279,-0.0994 5.15916,-0.18976 8.06947,-0.2009 l 5.29148,-0.0203 -0.50619,-0.56375 c -0.76664,-0.85382 -2.1285,-1.35067 -2.76291,-1.00801 -0.28713,0.15508 -0.52115,0.5159 -0.52006,0.80182 0.002,0.61926 -0.33579,0.67298 -0.79327,0.12602 -0.182,-0.21759 -0.66368,-0.39434 -1.07041,-0.39278 -0.69149,0.003 -0.79514,-0.15085 -1.59635,-2.36392 -0.78565,-2.17012 -1.55223,-3.56533 -3.12512,-5.68786 -0.56402,-0.76112 -0.57177,-0.84743 -0.20187,-2.2482 0.62904,-2.38211 0.33479,-6.10685 -0.61538,-7.78956 -0.2737,-0.48471 -0.34137,-0.4576 -1.17277,0.46971 -0.48527,0.54125 -1.27022,1.37162 -1.74434,1.84526 -3.04051,3.03747 -4.75018,4.6561 -5.27327,4.99249 -0.79862,0.51357 -1.08709,2.08031 -1.01341,5.50405 0.0569,2.64225 0.0842,2.75675 0.80365,3.37039 z m 2.07874,-26.093 c 0.0786,-3e-4 0.61593,-0.24419 1.19416,-0.54198 0.57823,-0.29778 2.08946,-0.84088 3.3583,-1.20689 l 2.30697,-0.66546 -2.11617,0.13426 c -1.16389,0.0738 -2.74052,0.32414 -3.50362,0.55623 -1.18522,0.36047 -1.3871,0.5169 -1.38497,1.07318 0.001,0.35816 0.0668,0.65096 0.14533,0.65066 z m 0.98348,1.28699 c 0.61556,-0.317 1.71508,-0.79119 2.44339,-1.05374 1.16641,-0.42048 1.2296,-0.47912 0.53037,-0.49218 -0.43659,-0.008 -1.21011,0.0936 -1.71893,0.22616 -0.50882,0.13253 -1.25227,0.31558 -1.6521,0.40676 -0.5559,0.12678 -0.72638,0.32154 -0.72445,0.82759 l 0.003,0.66179 z m 0.01,1.71766 c 0.6176,-0.22659 2.37199,-0.69405 3.89865,-1.0388 l 2.77575,-0.62682 -1.58757,-0.0135 c -1.43752,-0.0122 -5.23054,0.73995 -5.93008,1.176 -0.15537,0.0969 -0.28186,0.34237 -0.28108,0.54561 0.001,0.31032 0.18131,0.30352 1.12433,-0.0425 z m -0.97211,2.81614 c 0.0779,-2.9e-4 0.40465,-0.17007 0.72616,-0.37727 0.32151,-0.2072 1.89278,-0.76469 3.49171,-1.23887 1.59892,-0.47419 2.96644,-0.9216 3.03892,-0.99426 0.26382,-0.26446 -3.62149,0.16817 -5.4878,0.61107 -1.83946,0.43652 -1.91639,0.48586 -1.91355,1.22734 0.002,0.42489 0.0667,0.77229 0.14456,0.77199 z m 0.30666,1.58634 c 0.2432,-9.3e-4 0.62951,-0.16993 0.85846,-0.37555 0.22896,-0.20562 1.36759,-0.68674 2.5303,-1.06915 l 2.11402,-0.6953 -1.58701,0.13122 c -2.43262,0.20113 -4.36236,0.8613 -4.35994,1.49156 0.001,0.3085 0.18128,0.51823 0.44417,0.51722 z m -0.0686,-9.52481 c 0.08,-3e-4 0.51115,-0.19145 0.95814,-0.42477 0.44699,-0.23333 1.65967,-0.70457 2.69485,-1.04721 1.41519,-0.468437 1.6852,-0.626782 1.08832,-0.638261 -1.71411,-0.03297 -4.89034,1.170741 -4.88773,1.852321 5.4e-4,0.14216 0.0664,0.25823 0.14642,0.25792 z m 1.18854,-2.104648 c 1.78412,-1.302858 4.61042,-2.02602 9.3645,-2.396087 2.58855,-0.201499 2.62243,-0.212569 1.58553,-0.518161 -1.44101,-0.424688 -4.98174,-0.376804 -6.71181,0.09077 -2.70503,0.73107 -4.85337,2.16852 -5.291,3.540196 -0.0119,0.0373 0.46183,-0.28518 1.05278,-0.716716 z m 1.50948,7.368958 c 0.84759,-0.18358 3.14843,-0.33325 5.11298,-0.33261 2.42551,7.9e-4 3.63392,-0.0971 3.76512,-0.30496 0.10627,-0.16837 0.19258,-0.94917 0.1918,-1.7351 l -0.001,-1.42898 -2.44673,0.17756 c -2.6916,0.19533 -6.44079,1.02725 -7.54987,1.67526 l -0.71042,0.41508 0.66088,-0.15245 c 2.14723,-0.49533 4.89026,-0.71788 6.94308,-0.56331 2.3446,0.17654 3.48215,0.64291 1.58587,0.65017 -1.04177,0.004 -6.12726,0.87338 -8.20266,1.40229 -1.67131,0.42594 -1.14312,0.58572 0.65137,0.19705 z m 0.12417,-7.604515 c 0.86379,-0.322869 2.10904,-0.41665 5.39677,-0.406441 4.16744,0.01294 4.27756,-9.75e-4 4.42101,-0.558193 0.25052,-0.973214 -0.17888,-1.069884 -3.19464,-0.719199 -3.18363,0.370207 -5.27379,0.819229 -6.75632,1.451439 -1.35348,0.577172 -1.25393,0.750872 0.13318,0.232394 z m 0.49732,1.766665 c 0.93071,-0.20401 2.68208,-0.26073 5.03915,-0.16319 3.86712,0.16001 3.92913,0.14119 3.92403,-1.191329 -0.002,-0.483412 -0.14323,-0.504215 -2.31643,-0.340868 -2.41059,0.18119 -4.85309,0.657547 -7.0234,1.369757 -1.65292,0.54242 -1.44245,0.72438 0.37665,0.32563 z m 1.06796,1.85651 c 1.20112,-0.19139 2.99403,-0.2457 4.65648,-0.14104 l 2.70332,0.17018 0.17075,-0.69151 c 0.0939,-0.38033 0.10684,-0.75493 0.0287,-0.83244 -0.27122,-0.26915 -5.42129,0.4105 -7.56924,0.99891 -1.18812,0.32547 -2.11138,0.64022 -2.0517,0.69945 0.0597,0.0592 0.98742,-0.0324 2.06165,-0.20355 z m 2.57038,5.41365 c 4.05194,-0.19354 4.82745,-0.32352 4.82559,-0.80885 -0.002,-0.61831 -0.65281,-0.7168 -2.57915,-0.39051 -2.09387,0.35465 -5.35562,1.11829 -5.35511,1.25373 2e-4,0.0517 1.3991,0.0273 3.10867,-0.0544 z m -1.2096,-4.95588 c 0.18162,-0.0741 0.0326,-0.13358 -0.33124,-0.13218 -0.3638,10e-4 -0.5124,0.062 -0.33021,0.13471 0.18218,0.0727 0.47983,0.0716 0.66145,-0.003 z m 2.80216,6.23555 c 2.98334,-0.14889 3.24025,-0.20258 3.23843,-0.67678 -0.002,-0.46614 -0.13384,-0.49871 -1.39038,-0.3429 -1.50654,0.18681 -5.27284,0.99843 -5.15872,1.11168 0.0386,0.0383 1.52845,-0.003 3.31067,-0.092 z m -1.98715,-0.68238 c 0.18162,-0.0741 0.0326,-0.13358 -0.33124,-0.13218 -0.3638,10e-4 -0.51239,0.062 -0.33021,0.13471 0.18218,0.0727 0.47983,0.0716 0.66145,-0.003 z m 0.31902,5.55101 c 0.63158,1.76849 0.79353,4.20024 0.43175,6.48317 -0.21378,1.34901 -0.24468,2.24441 -0.085,2.46253 1.6649,2.27413 2.19423,3.21656 3.02797,5.39107 0.77721,2.0271 1.07006,2.52416 1.44759,2.4571 0.2603,-0.0462 0.64357,0.0562 0.85172,0.22758 0.29271,0.24104 0.47038,0.23473 0.7843,-0.0278 0.35973,-0.30088 0.33346,-0.41726 -0.23105,-1.02371 -0.76558,-0.82245 -1.16692,-1.54267 -2.57256,-4.61647 -1.21712,-2.66155 -1.28017,-3.17896 -0.5773,-4.73783 0.82761,-1.83554 1.09775,-4.04 0.81873,-6.68112 -0.18768,-1.7765 -0.16601,-2.61694 0.0867,-3.36207 l 0.33694,-0.99349 -1.09508,0.004 c -0.96388,0.004 -1.13709,0.10008 -1.44568,0.8045 -0.19282,0.44017 -0.7551,1.1113 -1.24951,1.4914 -1.02903,0.79114 -1.01892,0.75063 -0.52953,2.12098 z m 4.53701,12.02729 c 0.78471,1.6458 1.6556,3.19296 1.93531,3.43813 0.27972,0.24517 1.0218,0.55901 1.64906,0.69742 1.23365,0.27223 2.056,0.86397 2.31354,1.66476 0.15436,0.47999 0.46724,0.50256 6.16006,0.4443 3.29859,-0.0338 7.09012,-0.13021 8.42562,-0.21433 l 2.42819,-0.15295 -0.41652,-0.63041 c -0.31661,-0.47919 -0.37311,-0.96178 -0.23556,-2.01187 0.0995,-0.7598 0.26705,-3.10864 0.37227,-5.21963 0.13869,-2.78285 0.31492,-4.07951 0.64092,-4.71588 0.42398,-0.82763 0.4236,-0.9559 -0.007,-2.248 -0.71745,-2.15471 -0.71568,-2.26146 0.0122,-0.73578 1.08862,2.28173 1.07289,1.35794 -0.0192,-1.13056 l -0.99315,-2.26292 -0.78251,1.51581 c -0.43039,0.8337 -0.82432,1.56388 -0.87541,1.62261 -0.0511,0.0587 -0.41234,-0.584 -0.80279,-1.4283 -0.63173,-1.36604 -0.74682,-1.48421 -1.04504,-1.07308 -0.18431,0.25411 -0.47337,1.04816 -0.64233,1.76457 -0.16897,0.7164 -0.41455,1.30296 -0.54574,1.30346 -0.13119,5e-4 -0.61205,-0.78189 -1.06859,-1.73865 -0.59575,-1.24852 -0.91063,-1.65837 -1.11549,-1.45194 -0.20485,0.20643 -0.1695,0.38082 0.12527,0.61777 0.22588,0.18159 0.75482,1.13065 1.17541,2.10903 0.42059,0.97838 0.83763,1.69116 0.92676,1.58396 0.0891,-0.1072 0.37846,-0.94557 0.64298,-1.86304 0.46551,-1.6143 0.91609,-2.36673 0.91927,-1.53494 0.002,0.5439 1.11921,2.79655 1.38636,2.79553 0.11652,-4.5e-4 0.21145,-0.10549 0.21096,-0.23342 -4.9e-4,-0.12793 0.30884,-0.91605 0.68741,-1.75138 0.49373,-1.08946 0.7531,-1.41734 0.91755,-1.15997 0.30016,0.46975 0.30166,0.82525 0.003,0.64207 -0.12997,-0.0796 -0.56183,0.62937 -0.95971,1.57557 -0.39787,0.9462 -0.80425,1.72068 -0.90306,1.72105 -0.0988,3.8e-4 -0.46077,-0.59355 -0.80435,-1.31984 -0.34357,-0.7263 -0.70269,-1.32024 -0.79803,-1.31988 -0.0953,3.7e-4 -0.34241,0.74546 -0.54904,1.65576 -0.22517,0.99197 -0.51438,1.65563 -0.72183,1.65642 -0.19037,7.3e-4 -0.70317,-0.82682 -1.13956,-1.83901 -0.43639,-1.01219 -0.8371,-1.88368 -0.89048,-1.93665 -0.0534,-0.053 -0.36541,0.74798 -0.6934,1.77989 -0.32799,1.0319 -0.73811,1.87673 -0.91137,1.8774 -0.17327,6.6e-4 -0.6469,-0.77144 -1.05253,-1.71578 -0.40562,-0.94434 -0.81526,-1.71668 -0.91031,-1.71632 -0.095,3.6e-4 -0.43694,0.83164 -0.75976,1.84728 -0.32282,1.01564 -0.6963,1.91479 -0.82994,1.99809 -0.13365,0.0833 -0.74282,-0.83322 -1.35371,-2.03672 l -1.11071,-2.18818 -0.94075,1.92093 c -0.51742,1.05651 -1.03139,1.92128 -1.14218,1.9217 -0.11078,4.2e-4 -0.55701,-0.62295 -0.99164,-1.38528 -0.43462,-0.76232 -0.90069,-1.56422 -1.03571,-1.78198 -0.18766,-0.30264 -0.43522,0.0256 -1.05062,1.39309 -0.4428,0.98397 -0.96306,1.78964 -1.15611,1.79038 -0.19305,7.4e-4 -0.64939,-0.62189 -1.01408,-1.38362 l -0.66308,-1.38496 -0.16868,1.71888 c -0.0928,0.94538 -0.40677,2.25557 -0.69777,2.91153 -0.29101,0.65596 -0.5363,1.51055 -0.54509,1.89908 -0.009,0.38854 0.62605,2.05299 1.41075,3.6988 z m 0.71666,-11.03936 0.93767,1.83709 0.44813,-0.87479 c 0.24648,-0.48112 0.50789,-0.81547 0.58093,-0.74299 0.15654,0.15534 -0.58605,1.67323 -0.92061,1.88177 -0.1268,0.079 -0.60308,-0.53667 -1.05841,-1.36824 -0.45532,-0.83158 -0.83045,-1.35972 -0.83362,-1.17365 -0.006,0.38002 1.53215,3.49234 1.72612,3.4916 0.0686,-2.6e-4 0.48844,-0.72801 0.93304,-1.6172 0.44461,-0.8892 0.68196,-1.53793 0.52746,-1.44162 -0.38504,0.24 -0.35341,-0.008 0.11854,-0.92914 0.22037,-0.43019 0.50658,-0.78256 0.63603,-0.78306 0.12943,-4.9e-4 0.5754,0.71218 0.99103,1.58372 0.41564,0.87154 0.84813,1.58427 0.96111,1.58383 0.11297,-4.3e-4 0.32329,-0.31444 0.46736,-0.6978 0.14408,-0.38337 0.49585,-1.02818 0.78173,-1.43291 0.28587,-0.40474 0.51903,-0.92587 0.51814,-1.15806 -0.004,-0.97477 0.75091,-0.29994 1.59356,1.42503 0.49701,1.01742 0.99663,1.75616 1.11027,1.64164 0.11364,-0.11451 0.49142,-0.91598 0.83951,-1.78104 0.34809,-0.86505 0.74145,-1.60947 0.87413,-1.65427 0.13268,-0.0448 0.5865,0.63389 1.00849,1.50817 0.42199,0.87428 0.8424,1.58932 0.93425,1.58896 0.0919,-3.5e-4 0.43725,-0.77558 0.76756,-1.72274 0.3303,-0.94715 0.71152,-1.72253 0.84715,-1.72305 0.13564,-5.1e-4 0.61529,0.80133 1.0659,1.78188 l 0.81929,1.78281 0.49831,-1.15983 c 0.27407,-0.63791 0.56815,-1.44271 0.65352,-1.78846 0.24588,-0.99579 0.7794,-0.73822 1.29213,0.62381 0.25983,0.69024 0.55758,1.34916 0.66168,1.46428 0.10409,0.11511 0.50943,-0.51152 0.90076,-1.39252 0.39133,-0.88101 0.80808,-1.6022 0.92612,-1.60265 0.11804,-4.5e-4 0.60046,1.00974 1.07204,2.24487 0.47158,1.23513 0.94576,2.24536 1.05374,2.24495 0.10798,-4.2e-4 0.40531,-0.68617 0.66073,-1.5239 0.25543,-0.83773 0.75297,-2.1831 1.10566,-2.98972 l 0.64125,-1.46658 -0.53383,-1.19444 -0.53384,-1.19445 -3.17962,-0.47385 c -3.72712,-0.55543 -4.39104,-0.49686 -9.67201,0.85331 -3.7849,0.96767 -4.16651,1.015 -8.40556,1.04252 l -4.44066,0.0288 -0.21604,0.79459 c -0.36572,1.34511 -0.13615,2.56914 0.84086,4.4833 z m 0.80025,-10.44275 c 0.87081,-0.003 1.21763,-0.34208 1.2144,-1.18608 -0.002,-0.54983 -1.40123,-0.70644 -1.78671,-0.2 -0.63498,0.83421 -0.40557,1.38982 0.57231,1.38608 z m 0.0981,1.53696 c 0.69165,-0.06 1.01555,-0.22544 1.07564,-0.54926 0.0705,-0.37983 -0.10831,-0.46261 -0.99175,-0.45923 -0.91187,0.003 -1.07741,0.088 -1.07564,0.54926 0.002,0.46796 0.14219,0.53297 0.99175,0.45923 z m -0.0546,1.55252 c 1.15497,0.0641 1.42774,-0.0861 1.26548,-0.69704 -0.1083,-0.40776 -0.35879,-0.54399 -0.99578,-0.54155 -0.97045,0.004 -1.25521,0.19978 -1.14048,0.78522 0.0484,0.24691 0.3941,0.4269 0.87078,0.45337 z m 0.23388,-5.1579 c 0.61783,0.0697 0.96451,-0.0166 1.05819,-0.26356 0.22484,-0.59271 -0.0986,-0.84778 -1.07047,-0.84406 -0.71647,0.003 -0.91001,0.11005 -0.9085,0.5037 0.001,0.37391 0.23393,0.5264 0.92078,0.60392 z m 0.36425,6.77756 c 1.20616,0.0826 1.27243,0.0229 0.84767,-0.76346 -0.19284,-0.35705 -0.55723,-0.50964 -1.21097,-0.50714 -0.81843,0.003 -0.92429,0.0778 -0.8483,0.59856 0.0722,0.49461 0.27657,0.60798 1.2116,0.67204 z m -0.079,-8.41549 c 0.75562,-0.003 0.9273,-0.0959 0.85509,-0.46326 -0.16098,-0.81901 -1.80523,-0.76271 -1.80207,0.0617 0.001,0.28826 0.27437,0.40413 0.94698,0.40156 z m 0.30387,-1.37426 c 1.21795,-0.10573 1.54477,-0.898211 0.47896,-1.161381 -0.92497,-0.228392 -1.47328,0.03027 -1.47074,0.693843 0.002,0.477558 0.13782,0.541658 0.99178,0.467538 z m -0.0488,-1.697757 c 0.71075,0.269622 1.37072,0.173351 1.52063,-0.221823 0.1522,-0.40122 -1.27424,-1.059596 -1.70882,-0.788706 -0.37775,0.235466 -0.26546,0.838436 0.18819,1.010529 z m 1.24136,10.937697 c 0.1228,0.32696 0.3523,0.59397 0.51001,0.59337 0.15771,-6.1e-4 0.2127,-0.11988 0.12221,-0.26506 -0.0905,-0.14517 -0.0384,-0.26444 0.11566,-0.26503 0.15411,-5.9e-4 0.28066,0.11799 0.28121,0.26351 5.6e-4,0.14552 0.19349,0.26385 0.42873,0.26295 0.32946,-0.001 0.38989,-0.16864 0.26303,-0.72862 -0.65663,-2.89849 -0.39556,-7.29438 0.58887,-9.915371 l 0.47604,-1.267431 -1.02551,0.0039 c -1.01408,0.0039 -1.03013,0.02 -1.43865,1.445607 -0.83351,2.908655 -1.00139,8.062145 -0.3216,9.872145 z m 0.17538,-4.53922 c 0.14779,-0.0921 0.34888,-0.0389 0.44687,0.11832 0.25297,0.40583 -0.0904,0.66961 -0.43128,0.33132 -0.19075,-0.18929 -0.19588,-0.33726 -0.0156,-0.44964 z m 0.16145,0.89988 c 0.22687,-8.6e-4 0.41295,0.11749 0.4135,0.26301 5.6e-4,0.14552 -0.11102,0.26501 -0.24795,0.26553 -0.13693,5.3e-4 -0.32301,-0.11783 -0.4135,-0.263 -0.0905,-0.14518 0.0211,-0.26467 0.24795,-0.26554 z m 0.004,1.05833 c 0.20969,-8e-4 0.4553,0.11732 0.54579,0.2625 0.0905,0.14517 -0.0806,0.26489 -0.38024,0.26604 -0.29963,0.001 -0.54523,-0.11698 -0.54579,-0.2625 -5.6e-4,-0.14552 0.17055,-0.26524 0.38024,-0.26604 z m 0.26501,-3.96979 c 0.21828,-8.4e-4 0.39733,0.11754 0.39788,0.26306 5.6e-4,0.14552 -0.17758,0.26526 -0.39586,0.2661 -0.21827,8.4e-4 -0.39732,-0.11754 -0.39788,-0.26306 -5.6e-4,-0.14552 0.17758,-0.26527 0.39586,-0.2661 z m -0.12824,1.05883 c 0.14552,-5.6e-4 0.26504,0.11805 0.26559,0.26357 5.6e-4,0.14552 -0.11805,0.26503 -0.26356,0.26559 -0.14552,5.6e-4 -0.26504,-0.11805 -0.2656,-0.26357 -5.6e-4,-0.14552 0.11805,-0.26503 0.26357,-0.26559 z m -0.001,3.7042 c 0.13693,-5.3e-4 0.323,0.11782 0.4135,0.263 0.0905,0.14518 -0.0211,0.26467 -0.24795,0.26553 -0.22687,8.7e-4 -0.41295,-0.11748 -0.41351,-0.263 -5.5e-4,-0.14552 0.11103,-0.26501 0.24796,-0.26553 z m 0.5008,-7.41031 c 0.29963,-0.001 0.54523,0.11698 0.54579,0.2625 5.6e-4,0.14552 -0.17055,0.26524 -0.38024,0.26604 -0.2097,8e-4 -0.4553,-0.11732 -0.5458,-0.2625 -0.0905,-0.14517 0.0806,-0.26489 0.38025,-0.26604 z m -0.24188,1.85303 c 0.14552,-5.6e-4 0.26504,0.11805 0.2656,0.26356 5.5e-4,0.14552 -0.11805,0.26504 -0.26357,0.2656 -0.14552,5.6e-4 -0.26504,-0.11805 -0.2656,-0.26357 -5.5e-4,-0.14552 0.11805,-0.26504 0.26357,-0.26559 z m 0.0253,6.61453 c 0.14552,-5.6e-4 0.26504,0.11805 0.26559,0.26357 5.6e-4,0.14552 -0.11804,0.26504 -0.26356,0.26559 -0.14552,5.6e-4 -0.26504,-0.11805 -0.2656,-0.26356 -5.5e-4,-0.14552 0.11805,-0.26504 0.26357,-0.2656 z m 0.47709,-9.526895 c 0.13693,-5.24e-4 0.32301,0.117827 0.4135,0.263003 0.0905,0.145175 -0.0211,0.264666 -0.24795,0.265534 -0.22687,8.69e-4 -0.41295,-0.117483 -0.4135,-0.263002 -5.6e-4,-0.14552 0.11102,-0.26501 0.24795,-0.265535 z m 0.54224,-0.663538 c 0.14587,0.08938 0.26541,0.215012 0.26566,0.279184 2.4e-4,0.06417 -0.11862,0.117131 -0.26414,0.117688 -0.14552,5.57e-4 -0.26506,-0.125076 -0.26565,-0.279185 -5.9e-4,-0.154108 0.11827,-0.207067 0.26413,-0.117687 z m -0.85189,17.598183 c 0.26312,-10e-4 0.0921,-0.42183 -0.42952,-1.0567 l -0.54174,-0.65939 0.42288,0.85828 c 0.23259,0.47206 0.47936,0.85807 0.54838,0.85781 z m 1.44511,2.63946 c 0.0801,-8.4e-4 0.48602,-0.84034 0.90195,-1.86568 0.41594,-1.02534 0.88913,-1.82389 1.05155,-1.77456 0.16242,0.0493 0.76453,0.97065 1.33802,2.04737 1.15346,2.16561 1.00461,2.21075 2.01989,-0.61257 0.30193,-0.83963 0.66198,-1.45736 0.8001,-1.37273 0.13811,0.0846 0.64679,0.9313 1.13038,1.88149 l 0.87926,1.72761 0.57912,-1.78717 c 0.31852,-0.98295 0.52751,-1.83839 0.46443,-1.90099 -0.0631,-0.0626 -0.28143,0.39284 -0.48521,1.01209 -0.20379,0.61924 -0.48628,1.16498 -0.62776,1.21274 -0.14148,0.0478 -0.61286,-0.62256 -1.04751,-1.4896 -0.43465,-0.86704 -0.85856,-1.58123 -0.94204,-1.58708 -0.0835,-0.006 -0.45419,0.73467 -0.8238,1.6456 -0.3696,0.91092 -0.81806,1.65678 -0.99656,1.65747 -0.17849,6.8e-4 -0.75174,-0.80577 -1.27388,-1.7921 l -0.94933,-1.79335 -0.90706,1.73431 c -0.49889,0.95386 -1.05573,1.73487 -1.23744,1.73556 -0.1817,7e-4 -0.52442,-0.26588 -0.7616,-0.5924 -0.25376,-0.34934 -0.18985,-0.0774 0.15528,0.66087 0.32257,0.69 0.65207,1.2539 0.73221,1.25312 z m 0.76404,-15.34801 c 0.86632,-0.003 1.04237,-0.0935 1.04069,-0.53316 -0.002,-0.43909 -0.17842,-0.52848 -1.03831,-0.52519 -0.95711,0.004 -1.44241,0.36588 -1.15805,0.86433 0.0621,0.10891 0.58218,0.19621 1.15567,0.19402 z m -0.14183,1.58805 c 0.98777,-0.004 1.1903,-0.0891 1.18872,-0.50064 -10e-4,-0.34396 -0.25565,-0.54584 -0.82935,-0.65829 -1.3548,-0.26558 -1.5552,-0.20077 -1.55251,0.50204 0.002,0.60756 0.0995,0.66108 1.19314,0.65689 z m 0.006,1.58749 c 1.01423,-0.004 1.19032,-0.0829 1.18859,-0.53372 -0.002,-0.45077 -0.17841,-0.52849 -1.19264,-0.5246 -1.01423,0.004 -1.19032,0.0829 -1.18859,0.53372 0.002,0.45076 0.17841,0.52848 1.19264,0.5246 z m -1.02554,1.17292 c 0.10775,0.27761 0.49316,0.41663 1.14812,0.41412 1.1352,-0.004 1.32595,-0.12711 1.16126,-0.74737 -0.11297,-0.42543 -0.27264,-0.44985 -2.14178,-0.32758 -0.377,0.0247 -0.39183,0.0831 -0.1676,0.66083 z m 1.59871,2.2645 c 1.05323,-0.004 1.15955,-0.0638 1.1573,-0.65028 -0.003,-0.84644 -0.33794,-1.01985 -1.56046,-0.80849 -0.89382,0.15453 -0.99386,0.24735 -0.88236,0.81875 0.11049,0.56627 0.26646,0.64392 1.28552,0.64002 z m -0.17513,-8.20148 c 0.88345,-0.003 1.06159,-0.0875 0.98821,-0.4668 -0.0626,-0.32336 -0.38773,-0.48627 -1.07981,-0.54101 -0.8501,-0.0672 -0.99,-0.001 -0.98821,0.4668 0.002,0.46124 0.16795,0.5445 1.07981,0.54101 z m -0.28993,-1.55333 c 0.29111,0.0171 0.73608,0.0451 0.98881,0.0624 0.25274,0.0172 0.49679,-0.16628 0.54234,-0.407774 0.11053,-0.585995 -1.49359,-0.974286 -1.82775,-0.44242 -0.35113,0.55887 -0.27761,0.754144 0.2966,0.787824 z m 1.05314,-1.360026 c 0.88193,-0.0034 1.05798,-0.09224 1.0563,-0.533214 -0.002,-0.425913 -0.17842,-0.528488 -0.90602,-0.525703 -0.80561,0.0031 -1.12467,0.235153 -1.18848,0.864452 -0.0111,0.109184 0.45612,0.196693 1.0382,0.194465 z m 0.87115,9.608686 c 0.27457,1.20185 0.33225,1.26611 0.98662,1.09921 0.38226,-0.0975 0.72737,-0.20987 0.76691,-0.24972 0.0395,-0.0399 -0.0667,-0.70679 -0.23606,-1.48208 -0.17747,-0.81236 -0.25712,-2.53804 -0.18798,-4.07281 0.10539,-2.3393 0.33103,-3.41747 1.09803,-5.246644 0.16404,-0.391212 0.0484,-0.46321 -0.73936,-0.460195 -1.01294,0.0039 -1.04814,0.06338 -1.72529,2.917039 -0.57525,2.42417 -0.56314,4.86762 0.0371,7.4952 z m 0.35678,-5.62372 c 0.30827,0.0115 0.37121,0.074 0.16047,0.15924 -0.19071,0.0772 -0.41894,0.0686 -0.5072,-0.0189 -0.0882,-0.0876 0.0678,-0.15071 0.34673,-0.14029 z m -0.16607,1.71085 c 0.13514,-0.0842 0.32096,-0.0324 0.41293,0.1151 0.092,0.14754 -0.0184,0.26897 -0.24527,0.26984 -0.46474,0.002 -0.53378,-0.15673 -0.16766,-0.38494 z m 0.14149,1.70796 c 0.22687,-8.6e-4 0.41295,0.11749 0.4135,0.26301 5.6e-4,0.14552 -0.11102,0.26501 -0.24795,0.26553 -0.13693,5.3e-4 -0.32301,-0.11783 -0.4135,-0.263 -0.0905,-0.14518 0.0211,-0.26467 0.24795,-0.26554 z m 0.24433,-5.29264 c 0.22687,-8.6e-4 0.41294,0.11749 0.4135,0.26301 5.6e-4,0.14552 -0.11102,0.26501 -0.24795,0.26553 -0.13693,5.3e-4 -0.32301,-0.11783 -0.4135,-0.263 -0.0905,-0.14518 0.0211,-0.26467 0.24795,-0.26554 z m 0.0186,0.79369 c 0.21828,-8.4e-4 0.39733,0.11754 0.39788,0.26306 5.6e-4,0.14552 -0.17758,0.26527 -0.39586,0.2661 -0.21827,8.4e-4 -0.39732,-0.11754 -0.39788,-0.26306 -5.6e-4,-0.14552 0.17758,-0.26527 0.39586,-0.2661 z m -0.1247,1.98487 c 0.14587,0.0894 0.26541,0.21501 0.26566,0.27918 2.4e-4,0.0642 -0.11862,0.11713 -0.26414,0.11769 -0.14552,5.5e-4 -0.26506,-0.12508 -0.26565,-0.27919 -5.9e-4,-0.1541 0.11827,-0.20706 0.26413,-0.11768 z m 0.006,1.58748 c 0.14586,0.0894 0.26541,0.21502 0.26565,0.27919 2.5e-4,0.0642 -0.11861,0.11713 -0.26413,0.11769 -0.14552,5.5e-4 -0.26506,-0.12508 -0.26565,-0.27919 -5.9e-4,-0.15411 0.11827,-0.20707 0.26413,-0.11769 z m 0.13887,1.71928 c 0.21828,-8.4e-4 0.39732,0.1138 0.39786,0.25476 5.4e-4,0.14095 -0.17788,0.18842 -0.39648,0.1055 -0.2186,-0.0829 -0.39763,-0.19757 -0.39785,-0.25476 -2.1e-4,-0.0572 0.1782,-0.10467 0.39648,-0.1055 z m -0.14486,0.79431 c 0.13693,-5.3e-4 0.323,0.11782 0.4135,0.263 0.0905,0.14517 -0.0211,0.26467 -0.24796,0.26553 -0.22686,8.7e-4 -0.41294,-0.11748 -0.4135,-0.263 -5.5e-4,-0.14552 0.11103,-0.26501 0.24796,-0.26553 z m 0.51541,-7.67495 c 0.14552,-5.6e-4 0.26504,0.11805 0.26559,0.26357 5.6e-4,0.14552 -0.11804,0.26504 -0.26356,0.26559 -0.14552,5.6e-4 -0.26504,-0.11804 -0.2656,-0.26356 -5.6e-4,-0.14552 0.11805,-0.26504 0.26357,-0.2656 z m 0.52309,-1.589513 c 0.14552,-5.57e-4 0.26506,0.125077 0.26565,0.279185 5.9e-4,0.154108 -0.11827,0.207067 -0.26413,0.117688 -0.14587,-0.08938 -0.26541,-0.215013 -0.26566,-0.279185 -2.4e-4,-0.06417 0.11862,-0.11713 0.26414,-0.117688 z m 1.62574,4.227143 c 1.74832,-0.007 1.65394,-0.63327 -0.11172,-0.74168 -0.97653,-0.06 -1.23606,0.0105 -1.23481,0.33546 0.001,0.31815 0.30633,0.4102 1.34653,0.40622 z m -0.61213,1.36853 c 1.03972,0.14358 1.65354,-0.0295 1.65187,-0.46586 -0.001,-0.27099 -0.33732,-0.37619 -1.19206,-0.37292 -1.3487,0.005 -1.71097,0.666 -0.45981,0.83878 z m -0.35789,1.54562 c 0.95036,-0.004 2.01603,-0.37508 2.01478,-0.70225 -9.8e-4,-0.25478 -0.35818,-0.36243 -1.19201,-0.35924 -1.01423,0.004 -1.19032,0.083 -1.18859,0.53372 0.001,0.29104 0.16573,0.52854 0.36582,0.52777 z m 0.63094,1.19364 c 1.14049,-0.21848 1.38978,-0.34197 1.38846,-0.68782 -0.001,-0.28114 -1.93398,-0.33736 -2.20512,-0.0641 -0.0966,0.0974 -0.17506,0.34906 -0.17425,0.55928 0.001,0.29824 0.21886,0.34058 0.99091,0.19267 z m -0.32745,-5.32418 c 0.23052,0.0874 0.8261,0.15744 1.32352,0.15553 0.72801,-0.003 0.904,-0.10666 0.90237,-0.53262 -0.002,-0.45861 -0.17841,-0.52849 -1.32493,-0.5241 -0.95437,0.004 -1.32252,0.10774 -1.3215,0.37363 7.8e-4,0.20271 0.19002,0.44011 0.42054,0.52756 z m 0.33445,6.6246 c 1.25395,-0.2798 1.3877,-0.35719 1.386,-0.80201 -0.001,-0.28657 -0.14328,-0.37851 -0.41956,-0.27128 -0.22984,0.0892 -0.70581,0.1633 -1.05771,0.16465 -0.46543,0.002 -0.63925,0.14804 -0.63777,0.53665 0.002,0.44503 0.1234,0.50713 0.72904,0.37199 z m 1.16079,-7.7967 c 0.67429,1.7e-4 0.99174,-0.118 0.99078,-0.36883 -0.002,-0.44979 -2.16062,-0.724109 -2.43463,-0.309354 -0.26792,0.405544 0.31191,0.677894 1.44385,0.678184 z m -0.6285,8.61133 c 1.06809,-0.20375 1.29596,-0.32317 1.0612,-0.55615 -0.23867,-0.23685 -2.05481,0.18824 -2.05369,0.48069 6.2e-4,0.1623 0.3843,0.19147 0.99249,0.0755 z m 1.80333,-9.786846 c 0.70699,-0.274406 0.32654,-0.87563 -0.65412,-1.033715 -0.76629,-0.123528 -1.07039,-0.0549 -1.33287,0.300808 -0.30345,0.411244 -0.23319,0.48263 0.65271,0.663158 0.54602,0.111269 1.14645,0.142655 1.33428,0.06975 z m -0.42197,7.659026 c 0.006,0.58206 0.12964,1.23644 0.27377,1.45417 0.23293,0.35189 0.29097,0.35166 0.52233,-0.002 0.14316,-0.21883 0.20517,-0.54649 0.13781,-0.72814 -0.0674,-0.18164 0.0486,-0.33092 0.25779,-0.33172 0.22931,-8.8e-4 0.32041,0.15632 0.22949,0.396 -0.0884,0.23296 -0.002,0.39689 0.20826,0.39608 0.28278,-10e-4 0.3564,-0.6897 0.34663,-3.24249 -0.0108,-2.8075 0.067,-3.41504 0.58114,-4.54107 0.32645,-0.714962 0.55351,-1.339676 0.50456,-1.388244 -0.0489,-0.04857 -0.45378,-0.159816 -0.89965,-0.247216 -0.79674,-0.156178 -0.82012,-0.129976 -1.35992,1.52381 -0.63822,1.95538 -1.07052,4.36481 -0.91929,5.12375 0.058,0.29082 0.11064,1.005 0.11708,1.58707 z m 0.93507,-3.29001 c 0.30827,0.0115 0.3712,0.074 0.16046,0.15924 -0.1907,0.0772 -0.41894,0.0686 -0.50719,-0.0189 -0.0883,-0.0876 0.0678,-0.15071 0.34673,-0.14029 z m -0.15138,0.77345 c 0.14552,-5.6e-4 0.26503,0.11805 0.26559,0.26357 5.6e-4,0.14551 -0.11805,0.26503 -0.26357,0.26559 -0.14552,5.6e-4 -0.26503,-0.11805 -0.26559,-0.26357 -5.6e-4,-0.14552 0.11805,-0.26504 0.26357,-0.26559 z m 0.004,1.05832 c 0.14552,-5.6e-4 0.26504,0.11805 0.26559,0.26357 5.6e-4,0.14552 -0.11805,0.26504 -0.26357,0.26559 -0.14552,5.6e-4 -0.26503,-0.11804 -0.26559,-0.26356 -5.6e-4,-0.14552 0.11805,-0.26504 0.26357,-0.2656 z m -0.0126,0.79381 c 0.13693,-5.3e-4 0.323,0.11782 0.4135,0.263 0.0905,0.14517 -0.0211,0.26466 -0.24796,0.26553 -0.22686,8.7e-4 -0.41294,-0.11748 -0.4135,-0.263 -5.5e-4,-0.14552 0.11103,-0.26501 0.24796,-0.26553 z m 0.26601,-3.70522 c 0.14552,-5.5e-4 0.26504,0.11805 0.26559,0.26357 5.6e-4,0.14552 -0.11804,0.26504 -0.26356,0.2656 -0.14552,5.5e-4 -0.26504,-0.11805 -0.2656,-0.26357 -5.6e-4,-0.14552 0.11805,-0.26504 0.26357,-0.2656 z m 0.78362,-2.648848 c 0.14552,-5.57e-4 0.26503,0.118049 0.26559,0.263568 5.6e-4,0.14552 -0.11805,0.26504 -0.26357,0.26559 -0.14552,5.6e-4 -0.26504,-0.11804 -0.26559,-0.26356 -5.6e-4,-0.145524 0.11805,-0.265041 0.26357,-0.265598 z m 0.23031,-0.794638 c 0.14552,-5.57e-4 0.33862,0.117768 0.42911,0.262943 0.0905,0.145176 0.0455,0.264411 -0.10005,0.264968 -0.14551,5.57e-4 -0.33862,-0.117767 -0.42911,-0.262942 -0.0905,-0.145176 -0.0455,-0.264411 0.10005,-0.264969 z m 0.31005,6.738596 c 0.1395,0.0855 0.18723,0.33045 0.10607,0.54438 -0.0848,0.2235 0.005,0.39011 0.2115,0.39165 0.27705,0.002 0.26863,0.0616 -0.0368,0.26067 -0.33833,0.22049 -0.32857,0.25833 0.0671,0.26028 0.25467,10e-4 0.46267,-0.0929 0.46222,-0.20918 -4.4e-4,-0.1163 0.44579,-0.1834 0.99163,-0.14912 0.95153,0.0598 0.95969,0.0534 0.19784,-0.15488 l -0.79459,-0.2172 0.7431,-0.0342 c 0.4087,-0.0188 0.6814,-0.13312 0.60599,-0.25409 -0.0754,-0.12097 -0.49932,-0.16537 -0.94204,-0.0987 -0.48577,0.0732 -0.80539,0.004 -0.80607,-0.17332 -6.2e-4,-0.16204 0.35606,-0.29598 0.79262,-0.29765 0.52916,-0.002 0.79324,-0.13533 0.79222,-0.39991 -0.001,-0.29986 -0.32489,-0.39563 -1.32442,-0.39181 -0.97545,0.004 -1.32253,0.1052 -1.32145,0.38632 8e-4,0.20969 0.11559,0.45119 0.25508,0.53667 z m 0.90535,-2.77447 c 0.49742,-0.002 1.093,0.0681 1.32352,0.15554 0.29501,0.11191 0.41853,0.004 0.41713,-0.36364 -0.002,-0.41394 -0.23351,-0.55278 -1.11513,-0.6676 -1.2366,-0.16105 -1.53353,-0.0645 -1.53138,0.49791 9.9e-4,0.25759 0.2948,0.38013 0.90586,0.37779 z m 0.42357,1.32131 c 0.99953,-0.004 1.32254,-0.10208 1.32139,-0.40194 -0.001,-0.27537 -0.27839,-0.39581 -0.90591,-0.39341 -0.49742,0.002 -1.09301,-0.0681 -1.32352,-0.15553 -0.30047,-0.11399 -0.41853,-10e-4 -0.417,0.39847 0.002,0.49258 0.15613,0.55688 1.32504,0.55241 z m 0.2765,-2.64691 c 0.95748,-0.004 1.31332,-0.10031 1.23512,-0.33546 -0.11762,-0.35375 -1.59724,-0.58745 -2.21102,-0.34922 -0.82215,0.31911 -0.29416,0.68954 0.9759,0.68468 z m 0.62913,5.80174 c 0.22777,-0.24712 0.14379,-0.28251 -0.36497,-0.15378 -0.36345,0.092 -0.89887,0.18879 -1.18981,0.21518 -0.29094,0.0264 -0.12671,0.0956 0.36497,0.15379 0.49765,0.0589 1.02511,-0.0365 1.18981,-0.21519 z m -0.24274,-6.86157 c 0.64625,-0.002 1.17459,-0.11309 1.17408,-0.24582 -0.001,-0.30143 -1.9998,-0.649771 -2.37746,-0.414366 -0.54505,0.339746 0.0471,0.664616 1.20338,0.660186 z m 0.57612,-0.935101 c 0.55142,0.113986 0.8602,0.07529 0.85949,-0.107706 -6e-4,-0.157085 -0.20945,-0.286432 -0.46412,-0.287445 -0.25467,-0.0011 -0.76097,-0.0748 -1.12511,-0.163982 -0.45179,-0.11064 -0.57772,-0.07584 -0.39646,0.109547 0.14609,0.149429 0.65288,0.351744 1.1262,0.449586 z m 0.58799,6.883821 c 0.13969,0.64665 0.32132,0.80719 0.98363,0.86941 l 0.8123,0.0763 -0.12503,-2.2198 c -0.088,-1.562 1e-4,-2.65642 0.29718,-3.69319 0.23222,-0.81036 0.42194,-1.54435 0.42161,-1.631097 -3.3e-4,-0.08674 -0.41273,-0.156137 -0.91644,-0.154209 -0.96369,0.0037 -0.972,0.01732 -1.53729,2.519446 -0.17374,0.76902 -0.13529,3.31039 0.064,4.23312 z m 0.53963,-1.98646 c 0.13693,-5.2e-4 0.32301,0.11783 0.4135,0.263 0.0905,0.14518 -0.0211,0.26467 -0.24795,0.26554 -0.22687,8.7e-4 -0.41294,-0.11748 -0.4135,-0.263 -5.6e-4,-0.14552 0.11102,-0.26501 0.24795,-0.26554 z m 0.27412,-1.58856 c 0.14552,-5.6e-4 0.26504,0.11805 0.2656,0.26357 5.5e-4,0.14552 -0.11805,0.26504 -0.26357,0.26559 -0.14552,5.6e-4 -0.26504,-0.11804 -0.2656,-0.26356 -5.5e-4,-0.14552 0.11805,-0.26504 0.26357,-0.2656 z m 0.009,2.38123 c 0.14552,-5.5e-4 0.26504,0.11805 0.26559,0.26357 5.6e-4,0.14552 -0.11805,0.26504 -0.26357,0.2656 -0.14552,5.5e-4 -0.26503,-0.11805 -0.26559,-0.26357 -5.6e-4,-0.14552 0.11805,-0.26504 0.26357,-0.2656 z m 0.003,0.79375 c 0.14552,-5.6e-4 0.26503,0.11805 0.26559,0.26357 5.6e-4,0.14552 -0.11805,0.26503 -0.26357,0.26559 -0.14552,5.6e-4 -0.26504,-0.11805 -0.26559,-0.26357 -5.6e-4,-0.14552 0.11805,-0.26503 0.26357,-0.26559 z m 2.3628,-2.6549 c 1.05983,-0.004 1.28479,-0.0818 1.16079,-0.40132 -0.0995,-0.2563 -0.50989,-0.39493 -1.16179,-0.39243 -0.84977,0.003 -1.11203,0.15184 -1.29297,0.73256 -0.0113,0.0364 0.57094,0.064 1.29397,0.0612 z m -0.79781,1.31667 c 0.6076,0.32219 1.78512,0.35526 1.96892,0.0553 0.24127,-0.39374 -0.23018,-0.76928 -1.18008,-0.94001 -1.30967,-0.23541 -1.82059,0.33762 -0.78884,0.88472 z m 1.04032,1.54301 c 0.98537,0.0672 1.13211,0.0113 1.05224,-0.40091 -0.0694,-0.35804 -0.38193,-0.49869 -1.23785,-0.55706 -0.98537,-0.0672 -1.1321,-0.0113 -1.05224,0.40091 0.0694,0.35804 0.38193,0.49869 1.23785,0.55706 z m 0.0263,-3.91905 c 0.58208,-0.002 1.05814,-0.0538 1.0579,-0.1147 -2.3e-4,-0.0609 0.0711,-0.29926 0.15858,-0.52978 0.1284,-0.33849 -0.0416,-0.41836 -0.88354,-0.41513 -1.11218,0.004 -1.39477,0.1485 -1.39261,0.71089 9e-4,0.23518 0.35412,0.35142 1.05967,0.34872 z m -0.83827,5.12299 c 0.1105,0.0677 0.64681,0.205 1.1918,0.30508 0.79893,0.14672 0.99057,0.10241 0.9893,-0.22873 -0.002,-0.51501 -0.16515,-0.61319 -1.3943,-0.83891 -0.79893,-0.14672 -0.99057,-0.10241 -0.9893,0.22874 8.6e-4,0.22588 0.092,0.4661 0.2025,0.53382 z m 0.89934,-6.4502 c 1.05905,-0.009 1.39301,-0.21827 1.64295,-1.0293 0.18749,-0.60839 0.15799,-0.624221 -0.82594,-0.443217 -1.63375,0.300549 -2.291,1.485107 -0.81701,1.472517 z m 0.62013,29.26621 c 0.17951,0.11 0.15091,0.24895 -0.0815,0.39576 -0.29832,0.18847 -0.28969,0.34856 0.0517,0.95892 0.40543,0.72484 0.43875,0.73273 3.1117,0.73698 2.77596,0.004 3.23059,-0.19418 2.25043,-0.98305 -0.30512,-0.24557 -0.38496,-0.25565 -0.24909,-0.0314 0.23735,0.39167 -0.0694,0.42526 -0.62603,0.0685 -0.21882,-0.14023 -0.27886,-0.27413 -0.13343,-0.29757 0.14543,-0.0234 -0.20818,-0.1132 -0.78581,-0.19948 -0.81895,-0.12233 -1.14022,-0.33134 -1.45885,-0.94907 -0.22474,-0.4357 -0.52802,-0.88103 -0.67396,-0.98961 -0.16819,-0.12514 -0.13218,-0.28397 0.0984,-0.43382 0.20005,-0.13002 0.28652,-0.36025 0.19216,-0.51162 -0.0943,-0.15138 -0.0382,-0.35838 0.12489,-0.46001 0.21012,-0.13098 0.19165,-0.2518 -0.0634,-0.41492 -0.29859,-0.19095 -0.29248,-0.27887 0.0359,-0.51638 0.32466,-0.2348 0.33087,-0.3119 0.0346,-0.42904 -0.30497,-0.12056 -0.3052,-0.18006 -0.001,-0.3821 0.28572,-0.19006 0.22427,-0.35186 -0.29856,-0.78617 -0.57683,-0.47917 -0.59342,-0.53576 -0.13404,-0.45714 0.38759,0.0663 0.50193,-0.0378 0.43856,-0.39952 -0.048,-0.27406 0.0307,-0.41793 0.1789,-0.3271 0.33667,0.2063 0.45317,-0.009 0.66995,-1.23711 0.16016,-0.90748 0.123,-0.99446 -0.43215,-1.01143 -0.5544,-0.017 -0.54247,-0.0425 0.13678,-0.29302 0.47112,-0.17376 0.69169,-0.40964 0.60116,-0.64288 -0.084,-0.21655 0.0245,-0.36906 0.2634,-0.36997 0.29468,-10e-4 0.35974,-0.16503 0.23667,-0.59622 -0.1386,-0.48559 -0.11382,-0.52209 0.1351,-0.19896 0.24471,0.31766 0.27333,0.25371 0.14511,-0.32424 -0.12336,-0.55607 -0.0731,-0.6871 0.22069,-0.57564 0.4243,0.16096 1.06698,-0.8133 0.80925,-1.22677 -0.0886,-0.14217 -0.0479,-0.25893 0.0904,-0.25946 0.2719,-0.001 0.68939,-1.24923 0.59812,-1.78824 -0.0308,-0.18178 0.12785,-0.33122 0.35251,-0.33208 0.22466,-8.6e-4 0.40779,-0.18016 0.40695,-0.39844 -8.3e-4,-0.21828 0.16638,-0.39751 0.37159,-0.3983 0.68275,-0.003 2.97015,-2.06103 3.50637,-3.15536 0.29076,-0.59337 0.59991,-1.00814 0.68701,-0.9217 0.19283,0.19135 -0.74499,2.10337 -1.15792,2.36076 -0.20981,0.13078 -0.19118,0.25867 0.064,0.43954 0.27417,0.19431 0.24948,0.22003 -0.10364,0.10793 -0.30428,-0.0966 -0.46305,-0.008 -0.46204,0.257 8.5e-4,0.22231 -0.1118,0.33473 -0.25035,0.24983 -0.13854,-0.0849 -0.3802,0.0876 -0.53701,0.38332 -0.19199,0.36207 -0.19566,0.53733 -0.0112,0.53663 0.15065,-5.8e-4 0.27344,-0.12011 0.27288,-0.26563 -5.5e-4,-0.14552 0.12508,-0.26507 0.27919,-0.26566 0.15411,-5.9e-4 0.21212,0.11003 0.12892,0.24581 -0.0832,0.13579 -0.03,0.32121 0.11825,0.41204 0.15575,0.0954 0.26844,-0.12066 0.26694,-0.51191 -10e-4,-0.37238 0.10687,-0.67748 0.24065,-0.678 0.13379,-5.1e-4 0.22456,0.3861 0.20173,0.85913 -0.0479,0.99282 0.34464,1.29036 0.74149,0.562 0.14976,-0.27485 0.39101,-0.58766 0.53612,-0.69513 0.16113,-0.11933 0.12901,-0.19646 -0.0825,-0.19812 -0.1905,-10e-4 -0.27271,-0.12291 -0.1827,-0.26981 0.09,-0.14689 -0.0228,-0.33779 -0.2506,-0.42422 -0.22783,-0.0864 -0.41464,-0.25974 -0.41512,-0.38512 -0.001,-0.30163 0.85478,0.0246 1.19238,0.45452 0.20142,0.25649 0.5531,-0.0252 1.45077,-1.16198 1.08236,-1.37071 1.35638,-1.55526 3.16686,-2.13287 2.06236,-0.65796 3.43296,-1.73583 3.42928,-2.69686 -0.001,-0.2675 0.28489,-0.79815 0.63537,-1.17924 0.53558,-0.58236 1.66951,-3.57882 1.41203,-3.73136 -0.0451,-0.0267 -1.21585,-0.76919 -2.60168,-1.64993 -1.38583,-0.88075 -3.74291,-2.336778 -5.23795,-3.235625 -1.49504,-0.898846 -2.71844,-1.684508 -2.71868,-1.745914 -2.3e-4,-0.06141 0.32727,-0.04069 0.72779,0.04603 0.50903,0.110221 0.21969,-0.169889 -0.96128,-0.930629 -0.92923,-0.59857 -1.8834,-1.034671 -2.1204,-0.969112 -0.33885,0.09374 -0.30358,0.159551 0.16515,0.308113 0.32782,0.103903 0.59643,0.290354 0.5969,0.414335 4.7e-4,0.12398 -0.19426,0.151398 -0.43275,0.06093 -0.23848,-0.09047 -0.38117,-0.05642 -0.31708,0.07566 1.18598,2.444286 1.56442,3.505286 1.74964,4.905283 0.32161,2.430999 0.0366,4.693019 -0.81208,6.444549 -0.96879,1.99949 -3.02552,4.45248 -4.37475,5.21759 -1.06852,0.60595 -1.99073,1.8688 -1.70245,2.33129 0.0801,0.12851 0.0509,0.27396 -0.0649,0.32321 -0.26632,0.11326 -1.93891,4.1716 -1.97524,4.79269 -0.0149,0.25472 -0.12671,0.46351 -0.24848,0.46398 -0.44015,0.002 -0.92311,1.76603 -1.03314,3.77429 -0.0957,1.74616 -0.0499,2.05193 0.30822,2.05741 0.35801,0.005 0.35185,0.0468 -0.0414,0.27789 -0.5539,0.32546 -0.65994,2.36007 -0.12324,2.36459 0.22117,0.002 0.19959,0.0896 -0.0651,0.26484 -0.324,0.21447 -0.33164,0.30314 -0.0421,0.48846 0.29361,0.1879 0.29257,0.25017 -0.006,0.36609 -0.43411,0.16849 -0.55018,1.18154 -0.16259,1.41903 z m 0.40518,-3.33268 c 0.10915,0.002 0.37598,0.11458 0.59294,0.25061 0.31004,0.19436 0.26772,0.23825 -0.19765,0.20498 -0.52478,-0.0375 -0.89471,-0.46387 -0.39529,-0.45559 z m 0.31046,-5.29694 c 0.14552,-5.6e-4 0.26504,0.11805 0.26559,0.26357 5.6e-4,0.14552 -0.11804,0.26503 -0.26356,0.26559 -0.14552,5.6e-4 -0.26504,-0.11805 -0.2656,-0.26357 -5.6e-4,-0.14552 0.11805,-0.26503 0.26357,-0.26559 z m 0.258,-1.72079 c 0.14517,-0.0905 0.26444,-0.0384 0.26503,0.11566 5.9e-4,0.15411 -0.11799,0.28065 -0.26351,0.28121 -0.14552,5.6e-4 -0.26478,-0.0515 -0.26503,-0.11566 -2.5e-4,-0.0642 0.11833,-0.19072 0.26351,-0.28121 z m 0.0248,6.48224 c 0.14552,-5.6e-4 0.26507,0.12508 0.26566,0.27918 5.9e-4,0.15411 -0.11828,0.20707 -0.26414,0.11769 -0.14586,-0.0894 -0.26541,-0.21501 -0.26565,-0.27918 -2.5e-4,-0.0642 0.11861,-0.11713 0.26413,-0.11769 z m 0.77096,-5.95612 c 0.14586,0.0894 0.26541,0.21501 0.26565,0.27919 2.5e-4,0.0642 -0.11861,0.11713 -0.26413,0.11768 -0.14552,5.6e-4 -0.26507,-0.12507 -0.26566,-0.27918 -5.9e-4,-0.15411 0.11827,-0.20707 0.26414,-0.11769 z m 0.2742,2.51251 c 0.14552,-5.6e-4 0.26504,0.11805 0.2656,0.26357 5.5e-4,0.14552 -0.11805,0.26504 -0.26357,0.26559 -0.14552,5.6e-4 -0.26504,-0.11804 -0.2656,-0.26356 -5.5e-4,-0.14552 0.11805,-0.26504 0.26357,-0.2656 z m 0.69247,8.10036 c 0.98622,0.21171 1.04524,0.25774 0.568,0.44298 -0.21011,0.0816 -0.6026,-0.0231 -0.87221,-0.23262 -0.45057,-0.35009 -0.42597,-0.3671 0.30421,-0.21036 z m 0.59854,-16.43974 c 0.14517,-0.0905 0.26443,-0.0384 0.26502,0.11567 5.9e-4,0.1541 -0.11799,0.28065 -0.26351,0.28121 -0.14551,5.5e-4 -0.26478,-0.0515 -0.26502,-0.11567 -2.5e-4,-0.0642 0.11833,-0.19071 0.26351,-0.28121 z m 0.80184,2.11362 c 0.14518,-0.0905 0.26444,-0.0384 0.26503,0.11566 5.9e-4,0.15411 -0.11799,0.28065 -0.26351,0.28121 -0.14552,5.6e-4 -0.26478,-0.0515 -0.26503,-0.11566 -2.4e-4,-0.0642 0.11834,-0.19072 0.26351,-0.28121 z m 0.004,0.92603 c 0.14552,-5.6e-4 0.26503,0.11805 0.26559,0.26357 5.6e-4,0.14552 -0.11805,0.26504 -0.26357,0.26559 -0.14552,5.6e-4 -0.26503,-0.11804 -0.26559,-0.26356 -5.6e-4,-0.14552 0.11805,-0.26504 0.26357,-0.2656 z m 0.1531,-2.45104 c 0.27229,-0.16973 1.10421,0.21834 0.88978,0.41506 -0.0683,0.0627 -0.35473,0.0312 -0.6365,-0.0698 -0.28178,-0.10107 -0.39575,-0.25643 -0.25328,-0.34523 z m 0.51722,-0.88715 c 0.23052,0.0875 0.47595,0.15878 0.54539,0.15851 0.0695,-2.6e-4 0.0563,0.11365 -0.0291,0.25315 -0.18866,0.30789 -0.93294,0.0641 -0.93436,-0.30607 -5.6e-4,-0.14552 0.18759,-0.19303 0.41811,-0.10559 z m 0.15706,-0.8377 c 0.17302,0.0569 0.36229,0.24481 0.42058,0.41749 0.0652,0.1931 -0.0555,0.25269 -0.3136,0.1548 -0.48164,-0.18271 -0.5838,-0.72921 -0.10698,-0.57229 z m 1.18285,-0.59434 c 1.13881,-0.004 1.08607,0.17042 -0.11681,0.38709 -0.4978,0.0897 -0.8517,0.0419 -0.8523,-0.11502 -5.7e-4,-0.14759 0.43553,-0.27003 0.96911,-0.27207 z m 1.41008,-0.26998 c 0.14552,-5.6e-4 0.26504,0.11805 0.2656,0.26357 5.5e-4,0.14552 -0.11805,0.26504 -0.26357,0.26559 -0.14552,5.6e-4 -0.26504,-0.11805 -0.2656,-0.26357 -5.5e-4,-0.14552 0.11805,-0.26503 0.26357,-0.26559 z m 2.65341,1.97423 c 0.14587,0.0894 0.26541,0.21501 0.26566,0.27919 2.4e-4,0.0642 -0.11862,0.11713 -0.26414,0.11768 -0.14552,5.6e-4 -0.26506,-0.12507 -0.26565,-0.27918 -5.9e-4,-0.15411 0.11827,-0.20707 0.26413,-0.11769 z m -9.14575,-6.91035 c 0.1,0.25428 0.29514,0.46189 0.43368,0.46136 0.13853,-5.3e-4 0.17784,-0.11974 0.0874,-0.26492 -0.0905,-0.14517 0.0112,-0.26463 0.22591,-0.26545 0.21474,-8.2e-4 0.44416,0.14713 0.50982,0.32878 0.29645,0.82013 0.38233,-0.0742 0.13344,-1.38958 -0.30314,-1.60202 0.0754,-5.2623 0.7048,-6.81577 0.37164,-0.917218 0.26063,-1.005358 -0.76796,-0.609771 -0.59969,0.230632 -1.17516,1.335741 -1.5967,3.066241 -0.16966,0.69651 0.0367,4.89656 0.26966,5.48911 z m 0.36697,-5.49155 c 0.14517,-0.0905 0.26443,-0.0384 0.26502,0.11566 5.9e-4,0.15411 -0.11798,0.28065 -0.2635,0.28121 -0.14552,5.6e-4 -0.26479,-0.0515 -0.26503,-0.11566 -2.5e-4,-0.0642 0.11833,-0.19072 0.26351,-0.28121 z m -0.007,2.92176 c 0.13514,-0.0842 0.32096,-0.0324 0.41293,0.1151 0.092,0.14754 -0.0184,0.26897 -0.24527,0.26984 -0.46474,0.002 -0.53378,-0.15672 -0.16766,-0.38494 z m 0.27573,-1.86445 c 0.14586,0.0894 0.26541,0.21501 0.26565,0.27919 2.5e-4,0.0642 -0.11861,0.11713 -0.26413,0.11768 -0.14552,5.6e-4 -0.26507,-0.12507 -0.26566,-0.27918 -5.9e-4,-0.15411 0.11827,-0.20707 0.26414,-0.11769 z m -0.006,2.51358 c 0.13693,-5.2e-4 0.32301,0.11783 0.4135,0.26301 0.0905,0.14517 -0.0211,0.26466 -0.24795,0.26553 -0.22687,8.7e-4 -0.41295,-0.11748 -0.4135,-0.263 -5.6e-4,-0.14552 0.11102,-0.26501 0.24795,-0.26554 z m 0.3756,-5.55772 c 0.22687,-8.7e-4 0.41294,0.11748 0.4135,0.263 5.6e-4,0.14552 -0.11102,0.26501 -0.24795,0.26553 -0.13694,5.3e-4 -0.32301,-0.11782 -0.4135,-0.263 -0.0905,-0.14518 0.0211,-0.26467 0.24795,-0.26553 z m 0.0353,1.0582 c 0.22686,-8.7e-4 0.33816,0.11971 0.24732,0.26796 -0.0908,0.14824 -0.27625,0.20146 -0.41204,0.11825 -0.36786,-0.2254 -0.30003,-0.38443 0.16471,-0.38621 z m 0.53168,28.99443 c 0.28086,0.17209 0.5585,0.21117 2.29042,0.32232 0.42698,0.0274 0.72566,0.31538 0.99943,0.96364 l 0.39047,0.92455 4.95733,-0.023 c 2.72654,-0.0126 5.12391,-0.12939 5.32749,-0.25937 0.30969,-0.19774 0.28183,-0.40225 -0.17054,-1.25208 -0.29738,-0.55865 -1.11312,-2.08511 -1.81277,-3.39213 -1.14365,-2.13648 -1.29632,-2.62647 -1.51222,-4.85332 -0.14007,-1.44474 -0.47103,-3.00802 -0.79421,-3.75143 -0.44881,-1.03238 -0.50413,-1.44109 -0.29119,-2.15129 0.29802,-0.99396 0.61307,-3.39168 0.44556,-3.39104 -0.0607,2.3e-4 -0.84242,0.95427 -1.73716,2.12007 -0.89475,1.16581 -1.72815,2.05756 -1.85199,1.98168 -0.12385,-0.0759 -0.60881,-0.66789 -1.0777,-1.31555 -0.46888,-0.64766 -0.93264,-1.17725 -1.03058,-1.17688 -0.0979,3.8e-4 -0.36018,0.38834 -0.58278,0.86214 -0.22259,0.47379 -0.93705,1.99459 -1.58768,3.37953 -1.62803,3.46547 -2.18415,5.71547 -2.23805,9.055 -0.0175,1.08425 0.0895,1.84282 0.27616,1.95718 z m 1.0148,-20.93111 c 0.34254,0.87149 0.80519,1.61892 1.0281,1.66097 0.47707,0.09 2.32157,-1.70244 3.44295,-3.34575 1.21949,-1.78709 1.7823,-3.71729 1.77325,-6.08158 -0.0123,-3.22283 -1.24249,-6.936655 -2.29633,-6.932622 -0.70283,0.0027 -2.39568,1.839895 -3.23325,3.508942 -1.71822,3.42395 -2.00464,7.90829 -0.71473,11.19004 z m 0.25162,-8.25647 c 0.34499,-1.04967 0.9266,-2.423792 1.29247,-3.053614 0.66255,-1.140543 1.94075,-2.593369 2.2828,-2.594678 0.33827,-0.0013 1.27795,1.978254 1.61601,3.404297 0.43713,1.844005 0.21044,4.669585 -0.50597,6.306555 -0.69151,1.58008 -3.39045,5.16917 -3.78861,5.03814 -0.57561,-0.18943 -1.28955,-2.69853 -1.40667,-4.9437 -0.0971,-1.86203 -0.01,-2.57657 0.50996,-4.157 z m 2.03194,3.22101 c 1.16322,0.0985 2.2054,0.19618 2.31595,0.21711 0.11055,0.0209 0.23483,-0.20488 0.27618,-0.50179 0.0662,-0.47538 -0.14808,-0.57725 -1.79413,-0.85304 -2.68067,-0.44913 -2.91824,-0.42266 -2.91538,0.32474 0.002,0.60034 0.11447,0.6434 2.11737,0.81298 z m -1.38171,1.29324 c 2.36543,0.443 3.0504,0.46763 3.27031,0.1176 0.38088,-0.60624 0.28076,-0.683 -1.12743,-0.86432 -0.74839,-0.0964 -1.70145,-0.242 -2.11792,-0.32364 -0.63569,-0.1246 -0.7569,-0.0616 -0.75516,0.39278 10e-4,0.38029 0.21857,0.58176 0.7302,0.67758 z m -0.50888,1.32858 c 0.11778,0.0722 0.81496,0.20857 1.54929,0.30313 1.12857,0.14531 1.3624,0.10008 1.51127,-0.29237 0.0969,-0.25536 0.14271,-0.49745 0.10186,-0.53799 -0.0408,-0.0405 -0.81799,-0.15495 -1.727,-0.25427 -1.40485,-0.1535 -1.6525,-0.11828 -1.65115,0.23485 8.7e-4,0.22848 0.0979,0.47448 0.21573,0.54665 z m 1.68836,-4.24292 c 0.90986,0.0924 1.98199,0.2384 2.38251,0.32457 0.60941,0.13111 0.72787,0.0682 0.72613,-0.38551 -0.002,-0.5858 -0.1471,-0.65045 -2.46778,-1.10146 -1.74847,-0.33981 -2.29982,-0.22093 -2.29707,0.49529 0.002,0.41738 0.27304,0.52672 1.65621,0.66711 z m -1.07934,6.29581 c 0.27896,0.51646 0.30379,0.51793 0.81845,0.0486 0.29193,-0.26622 0.64219,-0.69416 0.77837,-0.95097 0.2174,-0.40998 0.11736,-0.46644 -0.82003,-0.46285 -1.14648,0.004 -1.3339,0.33378 -0.77679,1.36525 z m 1.04121,-7.97162 c 1.72027,0.45616 3.2746,0.44867 3.27282,-0.0158 -0.001,-0.27723 -0.52112,-0.47405 -1.78889,-0.67702 -1.8106,-0.28987 -2.6728,-0.647965 -1.50136,-0.623557 0.35171,0.0073 1.20537,0.10425 1.89702,0.215377 1.09082,0.17526 1.25733,0.14205 1.25583,-0.250543 -0.001,-0.303499 -0.2852,-0.50088 -0.8622,-0.599158 -0.47325,-0.08061 -1.24726,-0.227074 -1.72,-0.325484 -0.79173,-0.164812 -0.88985,-0.108376 -1.24369,0.71531 -0.53247,1.239515 -0.53394,1.236185 0.69047,1.560855 z m 0.71861,-2.571445 c 0.4199,0.08231 1.07531,0.226655 1.45645,0.320767 0.57839,0.142813 0.69264,0.08154 0.69091,-0.370524 -0.002,-0.437811 -0.22682,-0.574457 -1.17458,-0.712874 -1.14913,-0.167828 -1.73871,-0.03305 -1.73707,0.397081 4.6e-4,0.118742 0.34439,0.283238 0.76429,0.36555 z m 0.86288,-1.047021 c 1.03603,0.203086 1.14443,0.103242 0.7345,-0.676523 -0.4637,-0.882047 -0.46188,-0.881436 -1.04366,-0.350865 -0.72113,0.657648 -0.66747,0.835948 0.30916,1.027388 z m 0.44937,17.552776 c 0.0876,-0.0883 0.0961,-0.31649 0.0189,-0.50719 -0.0853,-0.21074 -0.14772,-0.14781 -0.15924,0.16046 -0.0104,0.27896 0.0527,0.43499 0.14029,0.34673 z m 1.2018,0.95261 c 0.27108,-0.69667 0.26283,-0.88656 -0.0385,-0.8854 -0.14552,5.5e-4 -0.26387,0.18663 -0.263,0.4135 0.001,0.25957 -0.12131,0.3393 -0.32991,0.21506 -0.2025,-0.12061 -0.1812,-0.0138 0.0547,0.27441 0.37033,0.45242 0.39406,0.4517 0.57665,-0.0176 z m 0.0599,0.96632 c 0.0502,-1.9e-4 0.30587,-0.2393 0.56814,-0.53135 0.41187,-0.45863 0.41983,-0.53077 0.0584,-0.52939 -0.23016,8.8e-4 -0.47213,0.21017 -0.5377,0.46508 -0.0656,0.25492 -0.13293,0.4933 -0.14967,0.52974 -0.0167,0.0365 0.0106,0.0661 0.0609,0.0659 z m 1.02683,-23.02285 c 0.2097,-8.03e-4 0.38166,0.103716 0.38216,0.232264 4.9e-4,0.128547 0.2095,0.297686 0.46446,0.375863 0.25496,0.07818 0.85151,0.399132 1.32566,0.713231 0.47414,0.314099 0.86164,0.454029 0.86109,0.310955 -10e-4,-0.271948 -0.64294,-0.737821 -2.24639,-1.630364 -1.03056,-0.573658 -1.59537,-0.685724 -1.33277,-0.264445 0.0905,0.145175 0.3361,0.263299 0.54579,0.262496 z m 1.17373,-0.338169 c 0.58304,0.249947 1.06043,0.545425 1.06085,0.656616 4.3e-4,0.111192 0.17937,0.201483 0.39765,0.200648 0.21828,-8.36e-4 0.39733,0.117542 0.39788,0.263062 5.6e-4,0.14552 0.20936,0.259997 0.464,0.254395 0.42041,-0.0093 0.41596,-0.04548 -0.0483,-0.39396 -0.69964,-0.52511 -0.3095,-0.826826 0.50835,-0.393142 0.36411,0.193074 0.73043,0.282097 0.81406,0.197831 0.0836,-0.08427 -0.0954,-0.230692 -0.39773,-0.325389 -0.30237,-0.0947 -0.55019,-0.283215 -0.55071,-0.418928 -5.2e-4,-0.135714 -0.1421,-0.246212 -0.31462,-0.245551 -0.17252,6.6e-4 -0.57957,-0.246685 -0.90455,-0.549655 -0.32498,-0.30297 -0.80968,-0.503983 -1.0771,-0.446696 -0.37001,0.07926 -0.24863,0.218218 0.50779,0.581321 0.99938,0.479732 1.30931,0.94483 0.63134,0.947425 -0.20046,7.67e-4 -0.51229,-0.175323 -0.69294,-0.391312 -0.18066,-0.215989 -0.43379,-0.327057 -0.56251,-0.246817 -0.12873,0.08024 -0.23453,0.0198 -0.23512,-0.134306 -5.9e-4,-0.154108 -0.2392,-0.279285 -0.53024,-0.278171 -0.80025,0.0031 -0.64057,0.219981 0.53194,0.722629 z m 1.47223,-1.325653 c 0.25117,-0.2531 -0.15916,-0.757029 -0.46248,-0.567963 -0.18028,0.112376 -0.17515,0.260351 0.0156,0.449641 0.15637,0.155178 0.35747,0.208423 0.44688,0.118322 z m 0.13053,26.567592 c 0.24842,0.55728 0.54033,1.01289 0.6487,1.01247 0.10837,-4.1e-4 0.131,0.41622 0.0503,0.92586 -0.14056,0.88767 0.0159,1.07845 0.78252,0.95439 0.10907,-0.0176 0.19877,0.087 0.19933,0.23249 5.5e-4,0.14552 -0.15325,0.26517 -0.34179,0.26589 -0.2035,7.8e-4 -0.36669,0.37771 -0.40161,0.92759 -0.0463,0.72897 0.0416,0.93033 0.41256,0.94535 0.27723,0.0112 0.33538,0.0746 0.14117,0.1538 -0.56557,0.23074 -0.36768,1.00161 0.84518,3.29242 0.64447,1.21727 1.4553,2.74792 1.80183,3.40144 l 0.63006,1.18822 1.78336,0.0714 c 0.98085,0.0393 1.78294,-0.0392 1.78242,-0.1744 -10e-4,-0.34007 -0.96096,-0.56054 -2.43394,-0.55919 -0.68264,4.9e-4 -1.31817,-0.12241 -1.41229,-0.2734 -0.10874,-0.17445 0.0542,-0.21935 0.44694,-0.12317 0.33994,0.0832 1.09391,0.0442 1.67549,-0.0868 l 1.05743,-0.23813 -1.06166,-0.29484 c -0.81762,-0.22706 -1.1831,-0.52407 -1.58993,-1.29203 -0.29054,-0.54846 -0.6306,-1.07055 -0.75569,-1.1602 -0.12509,-0.0897 -0.24677,-0.47606 -0.2704,-0.85868 -0.0308,-0.49838 -0.18863,-0.69517 -0.55656,-0.6939 -0.5084,0.002 -0.50841,-0.002 -10e-4,-0.38864 0.28166,-0.21473 0.39302,-0.39416 0.24748,-0.39873 -0.14554,-0.005 -0.29146,-0.52056 -0.32427,-1.14665 -0.0328,-0.62609 -0.24299,-1.48808 -0.46707,-1.91555 -0.23971,-0.45727 -0.3,-0.81393 -0.14646,-0.8664 0.49155,-0.16801 0.25953,-0.57425 -0.33627,-0.58876 l -0.59537,-0.0145 0.59439,-0.24156 c 0.32692,-0.13287 0.59389,-0.37249 0.59328,-0.5325 -6.4e-4,-0.16686 -0.25479,-0.23019 -0.59589,-0.14851 -0.40248,0.0964 -0.35992,0.0427 0.13166,-0.16604 0.7668,-0.32562 1.01808,-1.36629 0.39069,-1.61807 -0.25712,-0.10318 -0.25075,-0.18978 0.0284,-0.38701 0.30369,-0.2145 0.30345,-0.27631 -0.002,-0.39687 -0.30007,-0.11862 -0.29709,-0.18782 0.0176,-0.4088 0.31391,-0.22042 0.31925,-0.33728 0.0311,-0.68173 -0.19294,-0.23068 -0.22812,-0.41617 -0.079,-0.41674 0.16246,-6.2e-4 0.27893,-1.09933 0.29463,-2.77927 0.0282,-3.02171 -0.0577,-3.16741 -1.35845,-2.3024 -1.13037,0.75172 -1.80312,1.79135 -1.78282,2.75507 0.0292,1.38472 -0.13165,2.82123 -0.33925,3.03043 -0.30106,0.30337 -0.22104,0.90601 0.26512,1.99659 z m 0.87394,-0.31131 c 0.29103,-10e-4 0.52863,-0.14093 0.52798,-0.31071 -6.5e-4,-0.16977 0.0614,-0.24658 0.13786,-0.17069 0.29453,0.29228 -0.20226,0.97082 -0.68548,0.93628 -0.67479,-0.0482 -0.65735,-0.45229 0.0196,-0.45488 z m -0.0197,-5.15934 c 0.14517,-0.0905 0.26443,-0.0385 0.26502,0.11566 5.9e-4,0.15411 -0.11798,0.28065 -0.2635,0.28121 -0.14552,5.6e-4 -0.26479,-0.0515 -0.26503,-0.11566 -2.5e-4,-0.0642 0.11833,-0.19072 0.26351,-0.28121 z m -0.0162,2.24904 c 0.1319,-5.1e-4 0.17845,0.23744 0.10346,0.52877 -0.075,0.29133 -0.182,0.52987 -0.23779,0.53008 -0.0558,2.1e-4 -0.10234,-0.23773 -0.10346,-0.52877 -0.001,-0.29104 0.10589,-0.52958 0.23779,-0.53008 z m 0.48788,-1.29411 c 0.52481,-0.0288 0.57865,0.0585 0.42847,0.69528 -0.22868,0.96955 -0.46718,1.18562 -0.30648,0.27766 0.09,-0.50878 0.004,-0.7486 -0.29773,-0.82808 -0.27029,-0.0712 -0.20645,-0.12385 0.17574,-0.14486 z m 0.19127,2.87902 c 0.21105,-8.1e-4 0.50637,-0.2103 0.65627,-0.46554 0.23419,-0.39876 0.26084,-0.37415 0.18938,0.17484 -0.0542,0.41629 -0.2825,0.67011 -0.65527,0.72846 -0.31465,0.0493 -0.57255,-0.0288 -0.5731,-0.17337 -5.5e-4,-0.14461 0.17167,-0.26358 0.38272,-0.26439 z m -0.11104,2.1171 c 0.14552,-5.5e-4 0.26503,0.11805 0.26559,0.26357 5.6e-4,0.14552 -0.11805,0.26504 -0.26357,0.2656 -0.14552,5.5e-4 -0.26504,-0.11805 -0.26559,-0.26357 -5.6e-4,-0.14552 0.11805,-0.26504 0.26357,-0.2656 z m 0.003,0.79375 c 0.14552,-5.6e-4 0.26504,0.11805 0.2656,0.26357 5.6e-4,0.14552 -0.11805,0.26503 -0.26357,0.26559 -0.14552,5.6e-4 -0.26504,-0.11805 -0.26559,-0.26357 -5.6e-4,-0.14552 0.11804,-0.26503 0.26356,-0.26559 z m 0.16515,2.80564 c 0.2573,-0.0999 0.37848,-0.0412 0.31477,0.15239 -0.13032,0.39601 -0.73082,0.61608 -0.73215,0.26831 -5.4e-4,-0.14207 0.18727,-0.33139 0.41738,-0.4207 z m 0.0741,-9.42119 c 0.14552,-5.6e-4 0.26506,0.12508 0.26565,0.27919 5.9e-4,0.1541 -0.11827,0.20706 -0.26413,0.11768 -0.14587,-0.0894 -0.26541,-0.21501 -0.26566,-0.27918 -2.4e-4,-0.0642 0.11862,-0.11713 0.26414,-0.11769 z m 0.28382,5.02604 c 0.14552,-5.6e-4 0.26504,0.11804 0.26559,0.26356 5.6e-4,0.14552 -0.11804,0.26504 -0.26356,0.2656 -0.14552,5.5e-4 -0.26504,-0.11805 -0.2656,-0.26357 -5.6e-4,-0.14552 0.11805,-0.26504 0.26357,-0.26559 z m 0.81552,5.68546 c 0.1486,-0.34949 0.23083,-0.39487 0.24143,-0.13322 0.009,0.21825 -0.0987,0.57585 -0.2389,0.79467 -0.3107,0.48484 -0.3123,0.0671 -0.003,-0.66145 z m 0.0111,2.91039 c 0.14518,-0.0905 0.26469,0.0281 0.26559,0.26357 9.1e-4,0.23546 -0.1177,0.35497 -0.26356,0.26559 -0.14587,-0.0894 -0.26539,-0.20798 -0.2656,-0.26356 -2.1e-4,-0.0556 0.11839,-0.1751 0.26357,-0.2656 z m 0.7983,1.18758 c 0.1532,-0.23905 0.25706,-0.27209 0.26022,-0.0828 0.003,0.1733 -0.11352,0.38914 -0.2587,0.47963 -0.32771,0.20427 -0.32806,0.11268 -0.002,-0.39687 z m 1.19881,2.13474 c 0.50128,0.0256 1.34688,0.46336 0.92788,0.48032 -0.21825,0.009 -0.57585,-0.0987 -0.79467,-0.23889 -0.21882,-0.14023 -0.27876,-0.24887 -0.13321,-0.24143 z m -4.3622,-33.65642 c 0.36444,0.164366 0.66244,0.255562 0.66224,0.202658 -2e-4,-0.0529 -0.29877,-0.29008 -0.66348,-0.527058 -0.36471,-0.236978 -0.66272,-0.328174 -0.66224,-0.202658 4.8e-4,0.125517 0.29905,0.362693 0.66348,0.527058 z m -0.0748,-5.168725 c 0.18828,0.07142 0.54643,-0.0206 0.79591,-0.204492 0.40535,-0.298785 0.41029,-0.370011 0.0464,-0.669631 -0.34554,-0.284552 -0.37899,-0.262728 -0.22103,0.144241 0.14185,0.365474 0.0868,0.44185 -0.23143,0.321125 -0.22965,-0.08712 -0.48845,-0.08696 -0.5751,3.76e-4 -0.22037,0.222062 -0.20259,0.26128 0.18521,0.408393 z m 0.34004,1.247073 c 0.22687,-8.68e-4 0.33845,-0.120358 0.24795,-0.265534 -0.0905,-0.145175 -0.27656,-0.263527 -0.4135,-0.263002 -0.13693,5.24e-4 -0.24851,0.120014 -0.24795,0.265534 5.6e-4,0.14552 0.18663,0.263871 0.4135,0.263002 z m 0.23907,3.174108 c 0.20615,-7.89e-4 0.42099,0.135312 0.47741,0.302446 0.0564,0.167134 0.27501,0.245022 0.48574,0.173084 0.25916,-0.08847 0.10433,-0.27416 -0.47845,-0.573821 -0.47485,-0.244162 -0.86113,-0.321211 -0.86056,-0.17165 5.7e-4,0.149257 0.16971,0.270731 0.37586,0.269941 z m 1.58232,-4.775214 c 0.97179,0.712174 1.40079,1.193428 1.3002,1.458588 -0.0826,0.217651 -0.0183,0.395225 0.14277,0.394608 0.16109,-6.16e-4 0.2924,-0.127505 0.29181,-0.281975 -5.9e-4,-0.154469 1.30148,0.614459 2.8935,1.708729 1.59201,1.09427 2.96467,1.989314 3.05034,1.988986 0.0857,-3.28e-4 0.1552,-0.151173 0.15449,-0.335212 -0.002,-0.526477 -8.1931,-6.248649 -8.94062,-6.245788 -0.57432,0.0022 -0.40315,0.204991 1.10751,1.312064 z m -0.97852,1.229565 c 0.77091,0.580567 1.31396,0.445257 0.65564,-0.163365 -0.55671,-0.514692 -1.12195,-0.694055 -1.12066,-0.355611 3.6e-4,0.0931 0.20962,0.326637 0.46502,0.518976 z m 0.26863,1.057313 c 0.72716,0.54762 1.02518,0.423896 0.39106,-0.162353 -0.31351,-0.289843 -0.63452,-0.526741 -0.71337,-0.526439 -0.29139,0.0011 -0.12845,0.349331 0.32231,0.688792 z m -0.20877,2.077619 c 0.13579,0.0832 0.3212,0.02999 0.41204,-0.118255 0.0908,-0.148243 -0.0205,-0.268823 -0.24733,-0.267954 -0.46474,0.0018 -0.53256,0.160804 -0.16471,0.386209 z m 0.2905,1.994577 c 0.14552,-5.57e-4 0.26438,-0.05352 0.26414,-0.117688 -2.5e-4,-0.06417 -0.11979,-0.189805 -0.26566,-0.279184 -0.14586,-0.08938 -0.26472,-0.03642 -0.26413,0.117688 5.9e-4,0.154108 0.12013,0.279741 0.26565,0.279184 z m 0.83291,-2.732884 c 0.21074,-0.08527 0.1478,-0.147724 -0.16047,-0.15924 -0.27895,-0.01042 -0.43498,0.05271 -0.34673,0.140293 0.0883,0.08758 0.31649,0.09611 0.5072,0.01895 z m -0.19395,1.31839 c 0.20857,-0.08095 0.41701,-0.05951 0.4632,0.04766 0.1226,0.284433 4.20846,2.670483 4.55874,2.662208 0.16346,-0.0039 -0.001,-0.238709 -0.36623,-0.521884 -1.03571,-0.80377 -0.26905,-0.615221 1.05934,0.26053 0.6565,0.432806 1.3127,0.786596 1.45822,0.7862 0.14553,-3.98e-4 -0.44701,-0.469909 -1.31674,-1.04336 -1.0243,-0.67536 -1.64424,-0.939977 -1.75992,-0.7512 -0.19247,0.314109 -1.82599,-0.249526 -1.82745,-0.63055 -4.2e-4,-0.109997 -0.17935,-0.19931 -0.39763,-0.198475 -0.21828,8.36e-4 -0.39726,-0.09843 -0.39773,-0.220593 -8.8e-4,-0.2307 -1.16173,-0.831778 -1.60313,-0.830089 -0.13868,5.31e-4 -0.25163,0.132765 -0.25101,0.293854 6.1e-4,0.161089 0.17177,0.226654 0.38034,0.145699 z m 0.42685,1.149342 c 0.44193,0.181074 0.87877,0.253377 0.97076,0.160677 0.092,-0.0927 0.0198,-0.167982 -0.16031,-0.167293 -0.18017,6.9e-4 -0.50686,-0.176654 -0.72597,-0.394099 -0.44175,-0.438383 -0.89024,-0.519613 -0.88887,-0.160989 4.9e-4,0.127865 0.36247,0.380632 0.80439,0.561704 z m 0.10897,-3.877028 c 0.2186,0.08293 0.39701,0.03545 0.39647,-0.105503 -5.4e-4,-0.140953 -0.17957,-0.255594 -0.39785,-0.254758 -0.21828,8.35e-4 -0.39669,0.04831 -0.39647,0.105502 2.2e-4,0.05719 0.17925,0.171832 0.39785,0.254759 z m 1.26346,1.745696 c 0.10915,0.0028 0.19801,-0.113938 0.19745,-0.259458 -5.6e-4,-0.14552 -0.17961,-0.263898 -0.39789,-0.263062 -0.21828,8.35e-4 -0.39732,-0.117543 -0.39788,-0.263062 -5.6e-4,-0.14552 -0.20936,-0.261137 -0.46401,-0.256926 -0.37523,0.0062 -0.33723,0.105255 0.20044,0.52252 0.36489,0.283175 0.75274,0.51717 0.86189,0.519988 z m -0.80956,0.189724 c 0.21074,-0.08527 0.1478,-0.147724 -0.16047,-0.159239 -0.27895,-0.01042 -0.43498,0.05271 -0.34673,0.140292 0.0883,0.08758 0.31649,0.09611 0.5072,0.01895 z m 0.21028,-6.070801 c 0.30466,0.890869 0.72851,1.763535 0.9419,1.939258 0.3306,0.272242 0.35102,0.225764 0.13804,-0.314256 -0.13746,-0.348564 -0.43229,-0.976044 -0.65516,-1.3944 -0.66494,-1.248186 -0.82529,-3.156671 -0.34413,-4.095921 0.50053,-0.977071 1.12664,-1.347083 2.75626,-1.628871 1.17328,-0.202878 1.18416,-0.212743 0.26379,-0.239056 -1.2182,-0.03483 -2.71767,0.592196 -3.25059,1.359278 -0.56592,0.814594 -0.51009,2.444069 0.14989,4.373968 z m 0.29782,9.556623 c 1.09897,0.481429 1.29194,0.193245 0.22395,-0.334443 -0.97346,-0.480984 -1.03608,-0.494323 -1.03503,-0.220526 4.2e-4,0.109997 0.3654,0.359731 0.81108,0.554969 z m 0.26252,-4.727855 c 0.14552,-5.57e-4 0.19054,-0.119792 0.10005,-0.264968 -0.0905,-0.145175 -0.2836,-0.2635 -0.42912,-0.262943 -0.14552,5.57e-4 -0.19054,0.119793 -0.10005,0.264969 0.0905,0.145175 0.2836,0.263499 0.42912,0.262942 z m 1.24203,2.635215 c 0.36943,-0.01273 -1.13862,-1.036379 -1.53174,-1.039722 -0.21829,-0.0019 -0.006,0.232811 0.47142,0.521483 0.47756,0.288672 0.95471,0.521879 1.06032,0.518239 z m -0.52822,-6.240664 c 0.47768,0.961013 0.97025,1.746906 1.09459,1.74643 0.12435,-4.76e-4 0.35521,-0.614402 0.51303,-1.36428 0.24573,-1.16757 1.05044,-6.315161 1.04892,-6.709808 -2.8e-4,-0.07372 -0.36361,-0.132642 -0.80739,-0.130943 -0.95641,0.0037 -2.22528,0.616724 -2.62195,1.26681 -0.52347,0.857905 -0.15673,3.321747 0.7728,5.191791 z m -0.46527,7.573277 c 0.14552,-5.57e-4 0.26438,-0.05352 0.26414,-0.117688 -2.5e-4,-0.06417 -0.11979,-0.189805 -0.26566,-0.279184 -0.14586,-0.08938 -0.26472,-0.03642 -0.26413,0.117688 5.9e-4,0.154108 0.12013,0.279741 0.26565,0.279184 z m 0.516,-3.441584 c 0.14552,-5.57e-4 0.26438,-0.05352 0.26413,-0.117688 -2.4e-4,-0.06417 -0.11979,-0.189805 -0.26565,-0.279184 -0.14586,-0.08938 -0.26473,-0.03642 -0.26414,0.117689 5.9e-4,0.154108 0.12014,0.27974 0.26566,0.279183 z m 0.15195,1.05776 c 0.22687,-8.69e-4 0.33845,-0.120359 0.24796,-0.265535 -0.0905,-0.145175 -0.27657,-0.263526 -0.4135,-0.263002 -0.13693,5.24e-4 -0.24851,0.120014 -0.24795,0.265534 5.5e-4,0.14552 0.18663,0.263871 0.41349,0.263003 z m 0.40903,3.173457 c 0.13693,-5.24e-4 0.24851,-0.120015 0.24795,-0.265534 -5.5e-4,-0.14552 -0.18663,-0.263871 -0.4135,-0.263003 -0.22686,8.69e-4 -0.33844,0.120359 -0.24795,0.265535 0.0905,0.145175 0.27657,0.263526 0.4135,0.263002 z m -0.0121,0.926095 c 0.14586,0.08938 0.26472,0.03642 0.26413,-0.117688 -5.9e-4,-0.154108 -0.12013,-0.279741 -0.26565,-0.279184 -0.14552,5.57e-4 -0.26438,0.05352 -0.26413,0.117688 2.4e-4,0.06417 0.11979,0.189804 0.26565,0.279184 z m 0.24736,-4.498897 c 0.14587,0.08938 0.26473,0.03642 0.26414,-0.117688 -5.9e-4,-0.154108 -0.12014,-0.279741 -0.26565,-0.279184 -0.14552,5.57e-4 -0.26439,0.05352 -0.26414,0.117689 2.5e-4,0.06417 0.11979,0.189804 0.26565,0.279183 z m 0.31742,0.84099 c 0.21074,-0.08527 0.14781,-0.147723 -0.16046,-0.159239 -0.27896,-0.01042 -0.43499,0.05271 -0.34674,0.140293 0.0883,0.08758 0.3165,0.09611 0.5072,0.01895 z m -0.0452,1.142358 c 0.14552,-5.57e-4 0.26413,-0.120074 0.26357,-0.265594 -5.6e-4,-0.14552 -0.12007,-0.264126 -0.26559,-0.263569 -0.14552,5.57e-4 -0.26413,0.120075 -0.26357,0.265594 5.5e-4,0.14552 0.12007,0.264126 0.26559,0.263569 z m 0.27269,2.115638 c 0.14551,-5.57e-4 0.26412,-0.120074 0.26356,-0.265594 -5.5e-4,-0.14552 -0.12007,-0.264125 -0.26559,-0.263568 -0.14552,5.57e-4 -0.26413,0.120074 -0.26357,0.265594 5.6e-4,0.145519 0.12008,0.264125 0.2656,0.263568 z m 0.004,0.926032 c 0.14586,0.0894 0.26472,0.0364 0.26413,-0.11768 -5.9e-4,-0.15411 -0.12013,-0.27975 -0.26565,-0.27919 -0.14552,5.6e-4 -0.26438,0.0535 -0.26413,0.11769 2.4e-4,0.0642 0.11979,0.1898 0.26565,0.27918 z m 0.54368,-4.367735 c 0.14552,-5.57e-4 0.19054,-0.119792 0.10005,-0.264968 -0.0905,-0.145175 -0.28359,-0.2635 -0.42911,-0.262943 -0.14552,5.57e-4 -0.19055,0.119793 -0.10005,0.264969 0.0905,0.145175 0.28359,0.263499 0.42911,0.262942 z m 2.21796,-1.529855 c 0.69373,0.543052 1.38015,0.986912 1.52538,0.986356 0.16765,-6.42e-4 0.18679,-0.459546 0.0524,-1.256981 -0.30265,-1.796175 -0.17444,-4.496264 0.28088,-5.915181 0.21518,-0.670569 0.41576,-1.385717 0.44573,-1.589218 0.03,-0.203501 0.15176,-0.527125 0.27065,-0.719164 0.11888,-0.192039 0.16033,-0.404558 0.0921,-0.472263 -0.22067,-0.218982 -1.79196,1.775784 -1.61828,2.054414 0.0924,0.148281 -0.12598,0.588476 -0.48535,0.978212 -0.35937,0.389736 -0.87044,1.053124 -1.1357,1.474195 -0.26527,0.421072 -0.52292,0.645278 -0.57256,0.498234 -0.1,-0.296131 1.6325,-3.397593 2.03966,-3.65139 0.14136,-0.08812 0.3884,-0.407964 0.54897,-0.71077 0.47237,-0.890814 -1.80343,1.069627 -2.43143,2.094503 -0.29392,0.479662 -0.74367,1.618166 -0.99944,2.530008 l -0.46505,1.657895 0.59534,0.526892 c 0.32744,0.28979 1.16294,0.971206 1.85667,1.514258 z m 1.72197,-7.638556 c 0.56271,-0.504396 0.56343,-0.504075 0.20129,0.09051 -0.19988,0.32819 -0.45385,0.597054 -0.56436,0.597477 -0.31901,0.0012 -0.24109,-0.146431 0.36307,-0.687991 z m -2.90193,13.494936 c 1.00863,0.66194 1.99736,0.96989 1.44939,0.45142 -0.28342,-0.26815 -2.18897,-1.339479 -2.38121,-1.338743 -0.30409,0.0012 -0.0505,0.242646 0.93182,0.887323 z m -0.003,1.05368 c 0.57653,0.37837 1.11377,0.58101 1.19385,0.45031 0.0801,-0.1307 -0.21285,-0.39467 -0.65098,-0.5866 -0.43812,-0.19193 -0.79693,-0.43896 -0.79735,-0.54896 -4.2e-4,-0.10999 -0.17936,-0.19931 -0.39764,-0.19847 -0.59179,0.002 -0.49863,0.12851 0.65212,0.88372 z M 260.72063,16.90063 c 0.50792,-0.955273 0.74866,-2.306376 0.44421,-2.492933 -0.14755,-0.09041 -0.36754,0.443234 -0.50851,1.233538 -0.34237,1.91938 -0.33749,2.015076 0.0643,1.259395 z m 0.22376,10.317969 c 0.14552,-5.57e-4 0.19055,-0.119793 0.10005,-0.264969 -0.0905,-0.145175 -0.28359,-0.263499 -0.42911,-0.262942 -0.14552,5.57e-4 -0.19054,0.119792 -0.10005,0.264968 0.0905,0.145175 0.28359,0.2635 0.42911,0.262943 z m 0.80978,-0.616114 c 0.21074,-0.08527 0.14781,-0.147724 -0.16046,-0.159239 -0.27896,-0.01042 -0.43499,0.05271 -0.34673,0.140292 0.0882,0.08758 0.31649,0.09611 0.50719,0.01895 z m 0.92687,35.270131 c 0.36729,-10e-4 0.14195,-1.12941 -0.25115,-1.2572 -0.22108,-0.0719 -0.27367,0.0535 -0.15805,0.37676 0.14177,0.3964 0.10824,0.4246 -0.18444,0.15511 -0.19674,-0.18115 -0.4827,-0.32493 -0.63548,-0.3195 -0.34146,0.0121 0.87498,1.04619 1.22912,1.04483 z m -0.83982,-34.12828 c 0.21828,-8.35e-4 0.39722,0.0889 0.39765,0.199417 4.2e-4,0.110516 0.26928,0.364481 0.59747,0.564365 l 0.59671,0.363426 -0.52846,-0.589135 c -0.6689,-0.745684 -1.46272,-1.18595 -1.46129,-0.810443 5.8e-4,0.150639 0.17964,0.273206 0.39792,0.27237 z m 0.5373,2.12335 c 0.49085,0.35716 0.50329,0.3515 0.16576,-0.0755 -0.2007,-0.25389 -0.48923,-0.461147 -0.64118,-0.460565 -0.15196,5.82e-4 -0.22655,0.03456 -0.16575,0.0755 0.0608,0.04094 0.34932,0.248205 0.64117,0.460575 z m -0.0317,-2.567177 c 0.20654,0.07835 0.4354,-0.01537 0.50858,-0.208278 0.0908,-0.239444 -0.0284,-0.307849 -0.37581,-0.215581 -0.60732,0.161305 -0.63043,0.235072 -0.13277,0.423859 z m 1.07546,4.406557 c 1.29394,-0.005 2.15569,-1.33741 1.70002,-2.628616 -0.31253,-0.885601 -1.03124,-1.115211 -1.02823,-0.328495 0.001,0.266788 -0.083,0.570542 -0.18664,0.675008 -0.1769,0.178263 -0.76183,1.648383 -0.82957,2.084983 -0.0169,0.1092 0.13805,0.19791 0.34442,0.19712 z m 0.86345,-16.798144 c 0.32647,-0.104992 0.54757,-0.402003 0.5463,-0.733833 -0.002,-0.550065 -0.0109,-0.549197 -0.66016,0.0655 -0.73923,0.699813 -0.7,0.930079 0.11386,0.668335 z m 1.7816,-0.497548 c 0.53311,-0.07392 1.25094,-0.02855 1.59518,0.100823 0.56603,0.212726 0.59912,0.185653 0.34598,-0.28303 -0.35241,-0.652465 -1.10144,-1.056411 -1.95285,-1.053152 -0.59491,0.0023 -0.80798,0.266293 -0.92775,1.149624 -0.0164,0.121076 0.40633,0.159656 0.93944,0.08573 z m -93.36672,-2.45748 c 0.48332,-0.0063 1.07261,0.18096 1.30953,0.416078 0.39731,0.394272 0.35993,0.412614 -0.48102,0.236061 -1.4341,-0.301083 -1.86303,-0.638707 -0.82851,-0.652139 z m 0.77893,52.906022 c 0.21789,-0.34 0.25581,-0.33053 0.26079,0.0651 0.003,0.25465 -0.11324,0.46346 -0.25876,0.46402 -0.32269,10e-4 -0.3228,-0.0286 -0.002,-0.52917 z M 261.8821,12.946023 c 0.53361,-0.28821 0.82801,-0.139551 0.83015,0.41918 7.7e-4,0.199906 -0.28528,0.353872 -0.6601,0.355307 -0.78011,0.003 -0.86804,-0.397488 -0.17005,-0.774487 z m 0.68948,1.210367 c 0.49032,-0.190312 0.53365,-1.254444 0.0709,-1.741222 -0.26799,-0.281899 -0.2554,-0.326519 0.0653,-0.23123 0.55755,0.165687 0.66213,1.62614 0.14728,2.056762 -0.2285,0.19112 -0.47747,0.285938 -0.55328,0.210708 -0.0758,-0.07523 0.0456,-0.207988 0.26985,-0.295018 z"
       id="path2221" />
  </g>
</svg>
