<?xml version="1.0" encoding="UTF-8" standalone="no"?>
<!-- Created with Inkscape (http://www.inkscape.org/) -->

<svg
   width="100.85657mm"
   height="99.46759mm"
   viewBox="0 0 100.85656 99.467583"
   version="1.1"
   id="svg5"
   inkscape:version="1.1 (c4e8f9ed74, 2021-05-24)"
   sodipodi:docname="ornatew.svg"
   xmlns:inkscape="http://www.inkscape.org/namespaces/inkscape"
   xmlns:sodipodi="http://sodipodi.sourceforge.net/DTD/sodipodi-0.dtd"
   xmlns="http://www.w3.org/2000/svg"
   xmlns:svg="http://www.w3.org/2000/svg">
  <sodipodi:namedview
     id="namedview7"
     pagecolor="#ffffff"
     bordercolor="#666666"
     borderopacity="1.0"
     inkscape:pageshadow="2"
     inkscape:pageopacity="0.0"
     inkscape:pagecheckerboard="0"
     inkscape:document-units="mm"
     showgrid="false"
     inkscape:zoom="0.66903058"
     inkscape:cx="-653.93124"
     inkscape:cy="251.85695"
     inkscape:window-width="2506"
     inkscape:window-height="1403"
     inkscape:window-x="1974"
     inkscape:window-y="0"
     inkscape:window-maximized="1"
     inkscape:current-layer="layer1" />
  <defs
     id="defs2" />
  <g
     inkscape:label="Layer 1"
     inkscape:groupmode="layer"
     id="layer1"
     transform="translate(-118.25664,-242.23328)">
    <path
       style="fill:#000000;stroke-width:0.264583"
       d="m 211.94033,341.4198 c -0.6207,-0.12237 -1.24437,-0.29408 -1.38594,-0.38157 -0.14157,-0.0875 -1.55043,-0.37647 -3.13079,-0.64215 -3.42934,-0.57654 -4.21691,-1.00742 -4.44465,-2.43168 -0.0903,-0.56465 -0.22923,-1.02663 -0.30876,-1.02663 -0.0795,0 -1.00093,0.83035 -2.04757,1.84522 -2.68827,2.60667 -3.96589,2.99855 -5.19804,1.59436 -0.38308,-0.43656 -0.93673,-0.79375 -1.23034,-0.79375 -0.29361,0 -0.79396,-0.32742 -1.11189,-0.7276 -0.51543,-0.64879 -0.56086,-0.93539 -0.41945,-2.64583 0.0872,-1.05503 0.0888,-1.91823 0.003,-1.91823 -0.0854,0 -0.85355,0.43106 -1.70712,0.95791 -1.7307,1.06824 -2.29648,1.03473 -2.53344,-0.15009 -0.18132,-0.90661 -0.36131,-0.98741 -2.91296,-1.30781 -1.0282,-0.1291 -2.11674,-0.36708 -2.41898,-0.52883 -0.74899,-0.40085 -0.76621,-0.39292 -0.94183,0.4335 -0.0905,0.42589 0.0819,1.46992 0.41565,2.5177 0.67452,2.11734 0.50257,2.95713 -0.75598,3.69215 -0.77876,0.45483 -1.25912,0.46726 -8.20062,0.21218 -8.15519,-0.29968 -8.89461,-0.37383 -9.3636,-0.93892 -0.39418,-0.47497 -1.28871,-0.47945 -3.03689,-0.0152 -0.74907,0.19892 -1.9671,0.29411 -2.80798,0.21945 -0.95032,-0.0844 -1.55139,-0.0245 -1.66926,0.16619 -0.28566,0.46221 -1.37418,0.35269 -2.32939,-0.23436 -0.47646,-0.29283 -1.31434,-0.65502 -1.86195,-0.80489 -0.54762,-0.14986 -1.41843,-0.64367 -1.93515,-1.09735 l -0.93948,-0.82488 -1.21979,1.39439 c -1.21978,1.3944 -1.21978,1.3944 -2.43047,1.19366 -1.73045,-0.28693 -3.99016,-0.20312 -7.03154,0.26077 -3.13965,0.47889 -3.62078,0.49053 -10.98021,0.26578 -3.12869,-0.0956 -6.58151,-0.19133 -7.67291,-0.21284 -1.98438,-0.0391 -1.98438,-0.0391 -2.0682,-0.91126 -0.048,-0.49951 0.14982,-1.35477 0.46302,-2.00176 0.62745,-1.29614 0.68255,-2.66145 0.24119,-5.97644 -0.34504,-2.59151 -0.17908,-3.79856 0.50416,-3.66698 0.53127,0.10231 0.68013,0.67326 1.28627,4.93343 0.36873,2.59154 0.40314,3.491 0.16701,4.36563 -0.33025,1.22328 0.0493,1.97915 0.84115,1.67528 0.36795,-0.1412 0.40949,-0.99803 0.35124,-7.24607 -0.0742,-7.95728 -0.1985,-7.35665 2.07845,-10.04071 1.20705,-1.42286 2.48571,-3.43617 2.48571,-3.91386 0,-0.0786 -0.21585,-0.14284 -0.47967,-0.14284 -0.62759,0 -1.57979,-1.0432 -2.93525,-3.21579 -0.60413,-0.96832 -1.27892,-1.82985 -1.49953,-1.91451 -0.51683,-0.19833 -1.17097,-1.76545 -1.17097,-2.8053 0,-0.44487 -0.41672,-1.63635 -0.92604,-2.64773 -1.09287,-2.17015 -1.13534,-2.57935 -0.30067,-2.8967 0.72984,-0.27748 0.96213,-0.7671 0.96213,-2.02803 0,-1.0896 0.42485,-1.32069 1.45014,-0.78876 0.76752,0.39819 1.76658,0.34629 3.11392,-0.16176 1.01878,-0.38416 0.90851,-0.6688 -0.39688,-1.02444 -2.64036,-0.71934 -2.63029,-0.63138 -0.16451,-1.43771 l 2.28288,-0.74651 -0.51432,-1.523 c -0.58916,-1.74459 -0.53223,-1.92508 1.363,-4.32154 1.01087,-1.27822 1.48218,-2.26946 1.07906,-2.26946 -0.1121,0 -0.52515,0.46366 -0.91788,1.03037 -1.34181,1.93624 -4.06992,2.76041 -4.51329,1.36348 -0.4148,-1.30691 1.38493,-3.01802 5.02309,-4.77573 4.24894,-2.05281 4.82321,-1.78479 5.24028,2.44575 0.42174,4.27789 0.35373,5.95576 -0.31241,7.70816 -0.32497,0.85488 -0.55466,1.92644 -0.51041,2.38125 0.0722,0.74208 0.17378,0.60976 0.99006,-1.28974 0.81523,-1.89704 0.9268,-2.45265 1.07524,-5.35474 0.16563,-3.23806 0.16563,-3.23806 1.53305,-5.93581 0.75208,-1.48376 1.30878,-2.75639 1.23711,-2.82806 -0.0717,-0.0717 -0.47833,0.2031 -0.90369,0.61062 -0.65102,0.62372 -0.91218,0.71185 -1.65088,0.55709 -2.37446,-0.49746 -3.34934,-0.45531 -5.64172,0.24391 -1.26599,0.38615 -2.36818,0.63572 -2.4493,0.5546 -0.0811,-0.0811 0.06,-0.37678 0.31363,-0.65703 0.44083,-0.48711 0.43687,-0.51338 -0.09,-0.59693 -0.53752,-0.0852 -0.53154,-0.12664 0.24181,-1.6749 0.88807,-1.77791 0.98292,-2.70549 0.39326,-3.84577 -0.42771,-0.82711 -0.76987,-0.95625 -2.99382,-1.12996 -1.82374,-0.14244 -2.45532,-0.74577 -2.62457,-2.50718 -0.11299,-1.17596 -0.0149,-1.49322 0.96276,-3.11422 0.59872,-0.99269 1.08857,-1.95064 1.08857,-2.12879 0,-0.47555 1.49922,-1.65633 3.09957,-2.44121 1.06575,-0.52269 1.39835,-0.82632 1.39835,-1.27654 0,-0.86304 -0.43056,-0.994 -1.53466,-0.46679 -0.67944,0.32444 -1.85879,0.5044 -3.85535,0.58831 l -2.87646,0.1209 0.11531,-2.615 c 0.0899,-2.03964 0.24256,-2.847 0.69365,-3.66942 0.31809,-0.57993 0.57834,-1.48421 0.57834,-2.00951 0,-1.13954 0.49771,-1.65199 2.05052,-2.11123 0.61847,-0.18291 1.12448,-0.42146 1.12448,-0.53012 0,-0.10866 -0.50601,-0.50237 -1.12448,-0.87492 -0.61846,-0.37255 -1.28832,-0.78712 -1.48857,-0.92127 -0.24481,-0.16401 -0.39031,-0.92845 -0.44411,-2.33337 -0.044,-1.1492 -0.26675,-3.15696 -0.49496,-4.46168 -0.86056,-4.91989 -0.43705,-5.43758 3.02296,-3.69515 2.20565,1.11075 3.05206,1.18729 3.27571,0.2962 0.087,-0.34641 0.41627,-0.69736 0.73183,-0.77988 0.67265,-0.1759 2.23473,0.42253 3.01407,1.15468 0.3006,0.2824 1.18692,0.6349 1.96959,0.78333 0.78268,0.14843 1.63235,0.4593 1.88817,0.69081 0.56247,0.50903 1.02688,2.52643 1.02688,4.46083 0,1.65053 0.18127,2.25757 0.67415,2.25757 0.56786,0 0.64047,-0.30311 1.00651,-4.20195 0.20083,-2.13904 0.49235,-3.88151 0.68903,-4.1185 0.40123,-0.48345 1.56075,-0.52313 3.50426,-0.11991 2.06577,0.42859 2.59271,0.84439 2.59271,2.04589 0,0.55092 0.16555,1.22807 0.36789,1.50479 0.31797,0.43485 0.46327,0.45966 1.07079,0.18286 0.99577,-0.45371 1.18701,-0.40771 1.4771,0.35529 0.31901,0.83906 2.7217,1.99791 4.30813,2.07787 0.92968,0.0469 1.12459,0.1531 1.19723,0.65257 0.0844,0.57996 0.10596,0.58403 0.77465,0.14588 0.66333,-0.43463 0.70532,-0.42917 1.17662,0.15286 0.26881,0.33196 0.54863,0.54368 0.62182,0.47049 0.18457,-0.18457 -0.31638,-1.43974 -0.65916,-1.65159 -0.15449,-0.0955 -0.28272,-0.61307 -0.28495,-1.15018 -0.008,-1.84671 -0.90768,-2.21275 -1.10007,-0.44741 -0.0535,0.49072 -0.23802,0.79375 -0.48338,0.79375 -0.29708,0 -0.41672,-0.37889 -0.47579,-1.50688 -0.0697,-1.32997 -0.008,-1.55181 0.52916,-1.88952 0.33445,-0.21045 2.87028,-0.78251 5.63517,-1.27124 4.47177,-0.79045 5.55589,-0.88861 9.81421,-0.88861 4.84492,0 6.19308,0.2334 6.19308,1.07219 0,0.51061 -0.88628,0.63306 -5.95298,0.82245 -2.6193,0.0979 -4.58383,0.23139 -4.36563,0.29661 0.73523,0.21976 1.05809,0.94483 1.07909,2.42338 0.0195,1.37086 0.04,1.41686 0.3023,0.67704 0.80176,-2.26136 2.61777,-3.20628 5.73358,-2.98335 2.11964,0.15166 3.22887,0.68188 3.93687,1.88185 1.03344,1.75155 5.44077,3.22408 6.49486,2.16999 0.24466,-0.24466 0.44483,-0.5415 0.44483,-0.65966 0,-0.27397 -0.95924,-0.53285 -1.99165,-0.53751 -0.44056,-0.002 -1.08271,-0.20091 -1.42699,-0.44206 -0.62597,-0.43845 -0.62597,-0.43845 0.27185,-0.86067 0.70839,-0.33314 0.91523,-0.60215 0.98027,-1.27496 0.19686,-2.03648 2.929,-2.56271 4.64916,-0.89545 1.02753,0.99591 1.82563,1.04583 2.59391,0.16223 0.98086,-1.12809 3.33733,-0.82328 8.1382,1.0527 3.46245,1.35299 4.59551,1.26506 5.0415,-0.39124 0.14868,-0.55215 0.4774,-1.09552 0.73048,-1.20747 0.81413,-0.36014 8.52348,-0.46572 9.6374,-0.13198 1.96095,0.58751 5.09039,4.33127 7.04892,8.43264 1.07814,2.25773 1.12206,2.80789 0.62768,7.86265 -0.39647,4.05377 -1.74708,8.50527 -2.67194,8.80649 -0.38458,0.12526 -0.36773,-0.11697 0.21417,-3.07996 0.29925,-1.52373 -0.10393,-1.07761 -0.78986,0.87398 -0.60847,1.7312 -1.0011,4.50362 -0.54542,3.85131 0.57501,-0.82315 0.65885,0.08 0.0979,1.05468 -0.75419,1.31043 -0.74637,1.41925 0.18612,2.5912 0.42742,0.53717 0.85651,1.30199 0.95355,1.6996 0.38044,1.55885 -1.01353,3.86798 -3.27035,5.41737 -5.77367,3.96386 -11.42662,3.16084 -19.94336,-2.83301 -1.34402,-0.94588 -3.15091,-2.3819 -4.0153,-3.19116 -1.82135,-1.70516 -1.8599,-2.18293 -0.30884,-3.82753 1.08974,-1.15547 1.56862,-1.09101 1.67992,0.22612 0.0921,1.08925 0.47056,1.2266 1.37095,0.49751 0.53027,-0.42939 0.54555,-0.50749 0.1616,-0.82614 -0.68411,-0.56777 -0.49487,-0.8163 0.62156,-0.8163 1.96392,0 7.95023,-2.39908 7.95023,-3.18615 0,-0.48838 -1.28243,-0.24486 -3.87104,0.73506 l -2.61125,0.98849 -5.68854,0.004 -5.68854,0.004 -2.07798,-0.99219 c -2.30638,-1.10125 -2.55223,-1.16054 -2.55223,-0.61545 0,0.39897 0.7516,1.05083 2.55745,2.21808 0.60623,0.39185 2.4916,1.96262 4.18972,3.49059 5.45862,4.91169 9.90833,7.96886 14.79548,10.16523 2.40214,1.07956 2.40214,1.07956 6.2386,1.07956 h 3.83646 l 2.70859,-1.30085 c 2.69197,-1.29287 2.71209,-1.29773 3.27988,-0.79375 1.3023,1.15596 2.08132,2.5457 2.08132,3.71296 0,0.97804 -0.17046,1.33403 -1.18669,2.47825 -0.65268,0.73488 -1.26328,1.66159 -1.3569,2.05935 -0.33615,1.42819 -2.51129,4.55966 -3.16718,4.55966 -0.23988,0 -0.37465,-0.28552 -0.37465,-0.79375 0,-0.75191 -0.0567,-0.79375 -1.07673,-0.79375 -0.96444,0 -1.06792,0.0619 -0.99219,0.59361 0.0606,0.42537 0.30952,0.63203 0.8783,0.72916 0.69703,0.11903 0.80987,0.26432 0.92604,1.19233 l 0.13229,1.05678 2.95116,0.0746 c 3.36737,0.0851 3.92069,0.34982 3.15946,1.5116 -0.23885,0.36453 -0.60738,0.66278 -0.81895,0.66278 -0.21157,0 -0.575,0.29047 -0.80762,0.6455 -0.59216,0.90375 -1.13302,0.58044 -1.22881,-0.73454 l -0.0802,-1.10158 -1.45521,0.0732 c -0.80036,0.0403 -1.72309,0.13185 -2.05052,0.20348 -1.00667,0.22023 -0.65934,0.64909 0.52917,0.65337 0.61846,0.002 1.25223,0.0915 1.40836,0.19844 0.41107,0.28148 0.65009,1.0565 0.47031,1.52499 -0.13407,0.34938 -0.28187,0.32986 -1.08338,-0.14304 -0.51047,-0.30118 -0.96206,-0.513 -1.00354,-0.47071 -0.0415,0.0423 0.50994,0.8508 1.22538,1.79669 1.68664,2.22992 2.41504,4.13852 2.42577,6.35617 0.0101,2.07652 -0.53684,3.43371 -2.28176,5.66247 -0.67501,0.86218 -1.22729,1.66585 -1.22729,1.78594 0,0.43359 0.91818,0.20408 1.89688,-0.47417 0.56354,-0.39053 1.18023,-0.62306 1.41424,-0.53327 0.35976,0.13806 0.33896,0.26203 -0.15632,0.93194 -0.71149,0.96233 -0.52883,1.27292 0.97062,1.65049 1.87676,0.47257 1.96311,0.9522 0.75605,4.19959 -0.37626,1.01229 -0.4177,1.84454 -0.27661,5.55625 0.0913,2.4011 0.24002,5.36725 0.33057,6.59146 0.14367,1.94249 0.10494,2.26947 -0.30428,2.5687 -0.47414,0.3467 -0.46648,1.15993 0.0377,4.00286 l 0.15251,0.8599 -1.68309,-0.029 c -0.9257,-0.0159 -2.19093,-0.12911 -2.81163,-0.25148 z m 0.89573,-2.03463 c -0.0749,-0.25467 -0.33066,-1.23165 -0.56834,-2.17108 -0.71268,-2.8168 -1.80654,-4.50965 -2.91398,-4.50965 -0.60624,0 -1.38388,0.98216 -2.48221,3.13508 -0.75406,1.47807 -0.64505,2.19213 0.37651,2.46622 0.84144,0.22576 2.51354,-0.16988 2.51354,-0.59474 0,-0.13423 0.23653,-0.24406 0.52562,-0.24406 0.3476,0 0.65283,0.30447 0.90125,0.89902 0.49514,1.18504 1.96354,2.09339 1.64761,1.01921 z m -44.73786,-0.71411 c 0.50465,-0.21085 0.91755,-0.50432 0.91755,-0.65215 0,-0.47344 -0.98876,-0.81724 -1.85317,-0.64436 -1.01478,0.20295 -1.3246,0.83004 -0.6528,1.32127 0.5976,0.43698 0.47891,0.43883 1.58842,-0.0248 z m 9.34288,-0.78857 c 0.05,-0.25947 -0.0332,-0.59587 -0.18485,-0.74757 -0.44069,-0.44069 -1.6259,0.48138 -1.6259,1.26492 0,0.63581 0.0266,0.64526 0.85989,0.30526 0.47295,-0.19296 0.90083,-0.56314 0.95086,-0.82261 z m 21.52112,0.44434 c 0.37219,-0.40018 0.88915,-1.06226 1.1488,-1.47128 0.46334,-0.72991 0.45817,-0.7728 -0.27898,-2.31511 -0.41309,-0.86428 -0.82877,-1.57142 -0.92373,-1.57142 -0.095,0 -0.39153,0.95833 -0.65905,2.12963 -0.58593,2.56545 -1.03927,3.06445 -0.79638,0.87661 0.49159,-4.42805 0.97112,-5.66822 3.05981,-7.9134 2.23163,-2.39883 2.11284,-2.76659 -0.89304,-2.76477 -1.14107,8e-4 -1.88208,0.15347 -2.46331,0.50789 -0.93552,0.57045 -3.48773,3.63778 -4.19973,5.04737 -0.25726,0.50933 -0.68904,1.20999 -0.95951,1.55704 -0.96244,1.23495 -0.39434,1.48092 0.98698,0.42734 1.42666,-1.08817 1.53166,-0.9536 1.3419,1.71979 l -0.16903,2.38125 h 0.93146 c 0.64847,0 0.98111,0.14068 1.09488,0.46302 0.25654,0.72689 1.19172,1.65365 1.66868,1.65365 0.23845,0 0.73806,-0.32743 1.11025,-0.72761 z m 14.89934,-0.86772 c -0.10315,-0.75 -0.0729,-1.47165 0.0693,-1.65364 0.48094,-0.61559 0.54897,-1.55094 0.30296,-4.16544 -0.27032,-2.87298 -0.57174,-3.96268 -1.0961,-3.96268 -0.18766,0 -0.78549,0.23813 -1.32851,0.52917 -1.22535,0.65675 -1.56232,0.66037 -2.34668,0.0252 -0.62232,-0.50393 -0.62232,-0.50393 -0.0955,-1.0957 0.61381,-0.68943 2.39433,-1.56117 3.20577,-1.56956 0.40488,-0.004 0.60461,-0.21763 0.71361,-0.76262 0.0832,-0.41624 0.46245,-1.12652 0.84268,-1.57839 0.8834,-1.04987 1.30287,-2.40012 0.80497,-2.59118 -0.19514,-0.0749 -1.11136,0.24484 -2.03603,0.7105 -3.65089,1.83857 -4.99367,3.23267 -4.9827,5.17315 0.0104,1.83678 1.581,4.43915 3.17738,5.26467 0.76162,0.39385 1.18905,1.40678 2.25906,5.35358 0.24657,0.90951 0.50333,1.65365 0.57057,1.65365 0.0672,0 0.0399,-0.59884 -0.0608,-1.33074 z m -83.31856,0.57601 c -0.20831,-0.33706 -2.52442,-0.83277 -3.89099,-0.83277 -2.36833,0 -2.79472,-0.79075 -2.07054,-3.83991 0.57594,-2.42504 0.5944,-3.85455 0.0521,-4.03257 -0.45899,-0.15066 -0.85032,1.02191 -1.16966,3.50479 -0.50803,3.94977 0.12117,4.69264 4.45036,5.2544 1.43256,0.18589 2.64634,0.30847 2.69729,0.2724 0.051,-0.0361 0.0201,-0.18292 -0.0685,-0.32634 z m 50.84204,-0.10379 c 0.52146,-0.4172 0.38824,-1.22469 -0.31871,-1.93163 -0.7799,-0.7799 -1.6125,-0.83758 -1.98709,-0.13766 -0.94939,1.77395 0.75881,3.30694 2.3058,2.06929 z m -40.81517,-0.60406 c 1.23413,-0.42596 2.47637,-0.65408 3.56188,-0.65408 h 1.66683 l -0.17754,-0.8599 c -0.0976,-0.47294 -0.24863,-1.83293 -0.33551,-3.02219 -0.0869,-1.18926 -0.25425,-2.31808 -0.37193,-2.50849 -0.25159,-0.40709 -2.11108,0.82053 -6.03736,3.98584 -2.43246,1.96101 -3.59113,3.30556 -3.28101,3.80736 0.23483,0.37996 2.84141,-0.0123 4.97464,-0.74854 z m 19.71464,0.54557 c 4.2734,-0.53877 8.58477,-2.10686 9.95533,-3.62086 1.93398,-2.13637 3.36518,-5.7455 4.49575,-11.33713 1.14965,-5.68597 1.08565,-5.55625 2.74117,-5.55625 1.48933,0 1.66554,-0.2782 0.62064,-0.97983 -0.38937,-0.26146 -2.32414,-2.03561 -4.29948,-3.94257 -1.97534,-1.90695 -3.8695,-3.61318 -4.20924,-3.79161 -0.33974,-0.17843 -0.78361,-0.72146 -0.98637,-1.20674 -0.2651,-0.63446 -0.91002,-1.21974 -2.29578,-2.08344 -2.57549,-1.60523 -5.71226,-3.03201 -7.34778,-3.34218 -1.6114,-0.30559 -2.22058,-0.61072 -2.76171,-1.38329 -0.5715,-0.81594 -0.51515,-1.53931 0.25569,-3.28233 1.17334,-2.65311 1.3487,-4.66294 0.76738,-8.79482 -0.27892,-1.98255 -0.50721,-4.99123 -0.5073,-6.68595 l -1.7e-4,-3.0813 2.03352,-3.0158 c 3.25269,-4.82389 5.10055,-6.26925 10.4019,-8.13615 1.30968,-0.46122 2.66748,-1.02537 3.01733,-1.25368 1.65575,-1.08052 -1.82864,-0.80203 -5.53087,0.44207 -3.75461,1.26169 -6.38957,3.5669 -9.94736,8.70249 -2.0483,2.95668 -3.08863,4.02365 -4.2744,4.38384 -0.32765,0.0995 -1.47353,-0.0143 -2.54642,-0.25303 -1.54713,-0.3442 -2.17423,-0.3738 -3.03113,-0.14306 -0.59424,0.16001 -1.14804,0.40032 -1.23067,0.53402 -0.15006,0.2428 1.44386,0.7966 2.30078,0.79939 1.73633,0.006 5.23544,2.24119 5.23544,3.34486 0,0.27653 0.47462,1.07713 1.05472,1.77912 1.34085,1.62262 1.69013,2.91624 1.51016,5.59312 -0.16409,2.44051 -0.68976,4.10946 -1.97272,6.26317 -0.50012,0.83956 -0.92725,1.91457 -0.94917,2.38892 -0.0376,0.81414 0.0194,0.87068 1.01847,1.00925 1.18473,0.16432 1.42156,0.28248 2.87492,1.4343 l 1.02283,0.81061 -1.552,0.13229 -1.552,0.13229 3.43959,0.74202 c 3.86528,0.83385 6.47967,1.9115 7.16137,2.95191 0.40168,0.61304 0.43624,1.13134 0.27947,4.19135 -0.0984,1.92049 -0.29823,4.26571 -0.44411,5.2116 -0.62034,4.02245 -0.62491,4.42018 -0.0542,4.72559 0.63276,0.33865 0.86271,0.16043 0.86271,-0.66865 0,-0.44097 -0.15119,-0.61736 -0.52917,-0.61736 -0.29104,0 -0.52916,-0.10061 -0.52916,-0.22357 0,-0.2977 0.80478,-0.97571 1.41712,-1.19389 0.39984,-0.14246 0.449,-0.3097 0.26459,-0.90011 -0.34695,-1.11075 -0.26919,-4.5928 0.12333,-5.52241 0.44286,-1.04885 1.82215,-1.82811 2.80093,-1.58245 0.85664,0.215 2.95556,2.08957 3.48413,3.11171 0.27771,0.53703 0.3763,1.79089 0.37555,4.77623 -0.002,9.4727 -1.93813,13.98846 -7.11716,16.60283 -2.13837,1.07944 -4.67129,1.43534 -8.96179,1.2592 -3.19184,-0.13103 -3.66804,-0.21709 -5.22007,-0.94337 -0.9393,-0.43955 -1.76614,-0.70483 -1.83741,-0.58951 -0.29351,0.47492 1.96297,1.93842 4.33756,2.81323 1.23811,0.45613 2.19046,0.45546 5.8353,-0.004 z m 13.67524,-16.38042 c -0.22681,-0.59105 -0.23667,-3.26255 -0.0161,-4.36533 0.11465,-0.57326 0.3175,-0.82682 0.66146,-0.82682 0.60174,0 0.60175,0.22239 6e-5,3.29557 -0.29826,1.5234 -0.52873,2.20064 -0.6454,1.89658 z m -7.69018,-12.66663 c 0.0924,-1.05502 0.26386,-2.02342 0.38113,-2.15199 0.28134,-0.30845 1.30448,1.3872 1.30574,2.16402 0.001,0.61579 -1.0661,1.9062 -1.57633,1.9062 -0.18472,0 -0.22193,-0.64571 -0.11054,-1.91823 z M 154.1214,283.46372 c -0.68488,-1.03417 -1.24524,-1.98667 -1.24524,-2.11667 0,-0.42089 2.03064,-0.26194 2.40422,0.18819 0.40476,0.4877 0.68992,3.80878 0.32705,3.80878 -0.13244,0 -0.80115,-0.84614 -1.48603,-1.8803 z m 19.27442,54.17212 c 0.0863,-0.34367 0.11829,-1.02828 0.0712,-1.52136 -0.0761,-0.79696 -0.19943,-0.9246 -1.11051,-1.14959 -0.91544,-0.22606 -1.07789,-0.18761 -1.52135,0.36004 -1.05882,1.30759 -0.23643,2.93576 1.48285,2.93576 0.74735,0 0.95057,-0.11781 1.07783,-0.62485 z m 32.22899,-0.40199 c 0.0903,-0.56476 0.58178,-2.10808 1.09215,-3.42961 1.70046,-4.40304 1.09037,-5.59772 -2.8586,-5.59772 -1.22664,0 -1.85371,0.15401 -2.73864,0.67261 -0.63125,0.36994 -1.14772,0.78666 -1.14772,0.92604 0,0.13939 0.77116,0.25343 1.71369,0.25343 1.53977,0 1.75804,0.0677 2.15073,0.667 0.24036,0.36685 0.41864,1.11099 0.39616,1.65365 -0.0381,0.9204 -0.0388,1.32776 -0.007,3.76477 0.0206,1.55296 0.21882,2.11667 0.74417,2.11667 0.36493,0 0.5323,-0.26259 0.65451,-1.02684 z m -72.06323,0.0795 c 0,-0.64464 -1.20504,-1.0434 -2.02463,-0.66998 -0.84472,0.38489 -0.56632,0.78718 0.74334,1.07415 1.01593,0.22261 1.28129,0.13891 1.28129,-0.40417 z m -6.85139,-1.10319 c 0.0153,-0.10914 0.0544,-0.91282 0.0869,-1.78594 0.0422,-1.13323 0.30044,-2.11169 0.90247,-3.41932 1.0702,-2.32451 1.30103,-3.6247 0.72796,-4.1003 -0.36714,-0.3047 -0.47328,-0.22792 -0.81478,0.58939 -1.15774,2.77088 -2.30874,7.82287 -1.9346,8.49142 0.23974,0.42839 0.98095,0.5898 1.03206,0.22475 z m 11.87847,-3.18291 1.45521,-1.40873 -2.64583,0.16856 c -4.16401,0.26528 -5.00641,0.58536 -5.19971,1.97568 -0.09,0.64715 -0.0548,0.66146 1.62783,0.66146 h 1.71979 l -0.0803,1.05833 -0.0803,1.05834 0.874,-1.05246 c 0.4807,-0.57885 1.52884,-1.68639 2.3292,-2.46118 z m 8.7272,2.12993 c 0.0166,-2.42121 2.54622,-4.40525 3.97175,-3.11517 0.26264,0.2377 1.3637,0.48981 2.7551,0.63084 1.27469,0.1292 2.45046,0.36775 2.61283,0.53012 0.46761,0.46761 0.67706,0.35009 0.76711,-0.43044 0.0565,-0.48958 0.32677,-0.84162 0.83081,-1.08211 0.70676,-0.33722 0.72317,-0.3829 0.30399,-0.8461 -0.24371,-0.26929 -0.98352,-0.67376 -1.64401,-0.89881 -1.71115,-0.58305 -3.24314,-1.53463 -5.43435,-3.37549 -2.91924,-2.45247 -3.08363,-2.54117 -3.55984,-1.92069 -0.21716,0.28296 -0.75644,1.27296 -1.19841,2.2 -0.77599,1.62769 -0.79312,1.74223 -0.49912,3.3378 0.16744,0.90875 0.30444,2.30827 0.30444,3.11004 0,1.93693 0.26716,3.26785 0.56246,2.80204 0.12275,-0.19364 0.22501,-0.61756 0.22724,-0.94203 z m -16.47669,0.29546 c 0.0531,-0.16198 -0.2612,-0.44267 -0.69841,-0.62377 -0.78198,-0.32391 -0.86162,-0.45357 -1.19456,-1.9448 -0.24991,-1.1194 -0.79736,-0.70556 -0.88801,0.67128 -0.069,1.04878 0.0155,1.28111 0.64699,1.77784 0.74538,0.58632 1.95871,0.65423 2.13399,0.11945 z m 30.5872,0.11899 c 0.57918,-0.30848 1.21518,-0.9927 1.23096,-1.32428 0.005,-0.0973 -0.77938,-0.43902 -1.74223,-0.75944 -1.9348,-0.64386 -2.20625,-0.53343 -2.00807,0.81689 0.11588,0.78957 0.90662,1.57463 1.58602,1.57463 0.19547,0 0.61546,-0.13851 0.93332,-0.3078 z m 16.16943,-0.37256 c 0.53922,-0.53921 0.52974,-1.401 -0.0221,-2.01079 -0.8075,-0.89229 -1.1496,-0.60324 -1.1496,0.97136 0,1.55497 0.34772,1.86343 1.17172,1.03943 z m -11.533,-0.75123 c 0.31754,-0.31753 0.35333,-0.58022 0.15589,-1.14394 -0.49875,-1.42398 -1.96044,-0.87453 -2.47844,0.93165 -0.12782,0.44566 -0.17778,0.86491 -0.11104,0.93165 0.22569,0.22568 2.0185,-0.30426 2.43359,-0.71936 z m -13.18664,0.002 c 0,-0.34303 -1.28561,-0.96272 -1.95771,-0.94367 -0.23094,0.007 1.64388,1.30823 1.89157,1.31331 0.0364,7.9e-4 0.0661,-0.16559 0.0661,-0.36964 z m 49.74822,-0.57227 c 0.63519,-1.67067 0.0455,-3.09056 -1.04191,-2.50862 -0.83627,0.44757 -1.15582,1.22753 -0.79093,1.93053 0.75476,1.4541 1.42001,1.66392 1.83284,0.57809 z m -22.49613,-1.17995 c 0,-1.16031 -0.0809,-1.36022 -0.63576,-1.57118 -0.34967,-0.13294 -0.71263,-0.3661 -0.80658,-0.51812 -0.36426,-0.58938 0.23571,-2.23724 1.38098,-3.79298 0.72273,-0.98176 1.18904,-1.89346 1.17664,-2.30049 -0.0273,-0.89702 -1.57748,-4.91947 -2.04553,-5.30792 -0.70181,-0.58245 -0.91776,-0.0293 -0.75528,1.93458 l 0.15763,1.90537 -1.60515,1.81142 c -1.75023,1.97514 -2.51069,3.56036 -2.37696,4.95488 0.0818,0.85262 0.15728,0.91296 1.51935,1.21401 1.6368,0.36178 2.57044,0.96526 3.3292,2.15192 0.29104,0.45517 0.55893,0.83218 0.59531,0.83778 0.0364,0.006 0.0662,-0.58807 0.0662,-1.31927 z m 11.76617,-2.60108 c 1.60837,-3.14434 1.70507,-3.25812 4.27957,-5.03593 0.97371,-0.67239 1.81428,-1.35423 1.86794,-1.51519 0.12837,-0.38513 -2.30955,-1.42459 -3.34119,-1.42459 -0.64342,0 -0.93707,0.20164 -1.44501,0.99219 -0.35063,0.5457 -1.19056,1.63284 -1.86651,2.41587 -1.86662,2.16227 -1.95385,2.43485 -1.63998,5.12476 0.14858,1.2733 0.36146,2.3151 0.47308,2.3151 0.11161,0 0.86406,-1.29249 1.6721,-2.87221 z m -28.78003,2.0901 c 1.14544,-0.69842 1.7669,-1.69832 1.56227,-2.51364 -0.15899,-0.63344 -2.3986,-2.22559 -2.70278,-1.92141 -0.0763,0.0763 0.10763,0.62184 0.40882,1.21223 0.733,1.43679 0.69232,1.78606 -0.24612,2.1132 -0.8333,0.29049 -1.00987,0.77603 -0.47625,1.30965 0.41323,0.41323 0.45851,0.407 1.45406,-0.20003 z m 5.89056,-0.44003 c 1.9874,-1.67229 1.92175,-3.17612 -0.12857,-2.94502 -1.5218,0.17153 -2.45685,0.85548 -2.66159,1.94684 -0.32464,1.73051 1.25025,2.29393 2.79016,0.99818 z m 18.38211,0.17036 c 0.77017,-0.29282 0.89004,-0.92031 0.24479,-1.28141 -0.34379,-0.1924 -0.4068,-0.52476 -0.30342,-1.60065 0.13634,-1.41892 0.0198,-1.55127 -0.93372,-1.06018 -1.33514,0.68764 -1.76855,1.33448 -1.76855,2.63949 0,0.97504 0.10398,1.28457 0.46302,1.3784 0.82028,0.21436 1.60286,0.18859 2.29788,-0.0756 z m -49.76127,-1.21454 c 5.15972,-0.57725 6.42411,-1.28237 8.03431,-4.48055 0.51286,-1.01865 1.15566,-2.16812 1.42844,-2.55439 0.27277,-0.38626 0.49595,-0.83275 0.49595,-0.99219 0,-0.45031 -1.58096,-0.3419 -3.0427,0.20864 -0.72761,0.27404 -2.32976,0.63193 -3.56034,0.7953 -1.23058,0.16338 -2.31942,0.38559 -2.41965,0.4938 -0.10022,0.10821 -0.23114,1.01633 -0.29091,2.01804 -0.0899,1.50639 -0.21413,1.90668 -0.71852,2.31511 -0.95486,0.7732 -2.40777,0.64293 -3.62368,-0.3249 -0.80183,-0.63823 -1.04676,-0.72917 -1.1111,-0.41256 -0.0454,0.22338 0.12103,0.71681 0.36982,1.09651 0.44461,0.67856 0.43698,0.70656 -0.44664,1.63772 l -0.89898,0.94736 1.19062,-0.1836 c 0.65484,-0.10098 2.72186,-0.35491 4.59338,-0.56429 z m 46.28657,-1.65021 c 1.04744,-0.98993 3.05775,-2.61083 4.46737,-3.60201 2.25699,-1.58701 3.2502,-2.5358 2.65428,-2.53555 -0.41056,1.8e-4 -5.49162,1.90515 -5.82953,2.1856 -0.19758,0.16397 -0.60023,0.81083 -0.89479,1.43747 -0.51609,1.09794 -0.57942,1.13935 -1.74235,1.13935 -0.75165,0 -1.38929,0.16515 -1.69066,0.43789 -0.71398,0.64614 -0.59462,0.88503 0.44219,0.88503 0.99197,0 1.17173,0.36946 0.65215,1.34031 -0.46288,0.8649 -0.0395,0.58396 1.94134,-1.28809 z m -23.36328,0.17843 c 0,-0.45523 -0.35167,-1.44234 -0.78148,-2.19358 -0.42982,-0.75124 -0.99853,-2.19448 -1.26381,-3.20721 -0.32149,-1.22733 -0.61232,-1.84132 -0.87216,-1.84132 -0.44946,0 -1.66863,2.37551 -2.15775,4.20427 -0.38615,1.44377 -0.16547,1.73789 1.30915,1.74481 0.66165,0.003 1.09569,0.24995 1.85209,1.05334 1.23422,1.3109 1.91396,1.39603 1.91396,0.23969 z m -33.66254,-1.94277 c 0.18504,-0.5556 0.26355,-1.23979 0.17448,-1.52043 -0.15333,-0.48311 -0.18855,-0.48618 -0.66198,-0.0577 -0.54366,0.49201 -0.93827,2.01825 -0.64465,2.49334 0.31572,0.51085 0.78304,0.1331 1.13215,-0.91517 z m -2.84996,-0.22428 c 0,-0.30179 0.30997,-0.99599 0.68883,-1.54269 0.45513,-0.65675 0.75224,-1.53167 0.8757,-2.57879 0.16594,-1.40733 0.32584,-1.73338 1.42783,-2.9115 1.18806,-1.27013 1.54228,-2.19025 0.97756,-2.53927 -0.64123,-0.3963 -2.85472,3.00954 -4.0916,6.29562 -0.78047,2.07352 -0.95574,4.71949 -0.2752,4.1547 0.21828,-0.18116 0.39688,-0.57629 0.39688,-0.87807 z m 43.7777,0.0253 c 0.52604,-0.61456 1.0296,-1.40887 1.11902,-1.76513 0.38133,-1.51935 -2.66049,-2.57663 -3.8863,-1.35081 -0.78225,0.78224 -0.70891,2.39163 0.15581,3.41928 0.91792,1.09089 1.47329,1.02638 2.61147,-0.30333 z m -4.49612,-1.69266 c 0.21999,-1.467 -0.21443,-2.1784 -0.64258,-1.05227 -0.45216,1.18927 -0.32388,2.27482 0.2688,2.27482 0.10475,0 0.27295,-0.55015 0.37378,-1.22255 z m -31.96515,0.0221 c 0.21413,-0.55801 -0.64802,-1.44535 -1.40432,-1.44535 -0.76981,0 -0.81141,0.60279 -0.0913,1.32291 0.63122,0.63122 1.27999,0.68433 1.49561,0.12244 z m 30.63845,-1.78364 c 0.37086,-0.74421 0.67428,-1.60358 0.67428,-1.9097 0,-1.20304 -1.31309,-1.58057 -2.4095,-0.69276 -0.53867,0.4362 -0.56974,0.55463 -0.24739,0.94305 0.22821,0.27497 0.34589,0.94318 0.3089,1.75394 -0.10621,2.32776 0.48322,2.29447 1.67371,-0.0945 z m -26.13485,0.97532 c 0.77474,-0.48262 1.01203,-1.35111 0.58643,-2.14634 -0.39885,-0.74525 -1.69912,-1.50898 -2.12303,-1.24699 -0.40377,0.24954 -1.27487,2.24865 -1.28179,2.94159 -0.011,1.10034 1.41128,1.3283 2.81839,0.45174 z m 36.03192,-0.97724 c 0.56296,-1.47912 0.14513,-2.21741 -1.38477,-2.44683 -2.04776,-0.30708 -2.27123,0.34236 -0.80539,2.3406 1.10096,1.50084 1.64925,1.52743 2.19016,0.10623 z m 32.00357,-0.3874 c 0.15408,-0.40018 0.35507,-1.10766 0.44664,-1.57217 0.19122,-0.97005 1.30901,-2.631 2.84826,-4.23232 l 1.06519,-1.10815 -1.82499,0.47053 c -2.7801,0.71678 -3.4905,1.18016 -4.22381,2.75516 -0.79276,1.70267 -0.83591,3.16421 -0.11473,3.88539 0.74886,0.74886 1.46924,0.6696 1.80344,-0.19844 z m 3.6527,-0.30377 c 0.64444,-0.56726 1.9724,-1.35426 2.95101,-1.74889 3.45158,-1.39185 3.76369,-1.53527 3.76369,-1.72953 0,-0.27893 -0.53712,-0.45011 -2.0167,-0.64274 -2.52604,-0.32886 -2.48025,-0.30067 -2.49087,-1.53323 l -0.01,-1.11944 -1.40785,1.49318 c -1.67578,1.77735 -2.80618,3.91459 -2.80618,5.30564 0,1.32261 0.49253,1.3165 2.01656,-0.025 z m -30.06239,-1.21511 c 0,-0.7188 -0.53848,-1.76325 -0.85472,-1.65784 -0.42081,0.14027 -0.73501,1.71011 -0.53873,2.69164 l 0.15431,0.77168 0.61957,-0.72029 c 0.34076,-0.39616 0.61957,-0.8845 0.61957,-1.08519 z m -49.52727,0.46462 c -0.0452,-0.23278 -0.22287,-0.47011 -0.39492,-0.52739 -0.374,-0.12452 -0.97062,0.8867 -0.7417,1.25711 0.24707,0.39976 1.23295,-0.23318 1.13662,-0.72972 z m 59.79289,-9.99189 c 1.46404,-3.78354 3.92862,-10.15339 5.47686,-14.15521 3.37926,-8.73463 4.63044,-12.27619 4.63044,-13.10686 0,-0.79136 -0.47085,-1.08777 -0.95649,-0.60212 -0.2071,0.20709 -1.54787,3.46564 -2.9795,7.2412 -3.38987,8.93995 -8.05211,20.68276 -8.77159,22.09306 -0.47596,0.93295 -0.62287,1.05287 -0.91483,0.74672 -0.33865,-0.35509 -9.02254,-24.00436 -11.46687,-31.22829 l -1.22201,-3.61151 1.08473,-3.26766 c 1.30348,-3.92658 4.64759,-12.45254 6.10729,-15.57079 0.57902,-1.23692 1.42679,-2.71181 1.88393,-3.27752 0.45715,-0.56572 0.83117,-1.13126 0.83117,-1.25678 0,-0.44896 -2.6283,-0.34287 -3.07205,0.12401 -0.16166,0.17009 -0.62023,1.38081 -1.01904,2.6905 -0.96325,3.16328 -5.6246,15.71488 -6.11667,16.47031 -0.7256,1.11396 -1.30586,0.75877 -1.94507,-1.19062 -0.32209,-0.98227 -0.94289,-2.41102 -1.37956,-3.175 -0.90208,-1.57826 -1.52804,-1.76555 -2.73299,-0.81774 -0.98314,0.77334 -0.88542,1.30673 1.39206,7.59851 l 1.8559,5.12712 -3.29117,8.45121 c -3.44934,8.85734 -3.76652,9.82761 -3.30576,10.11238 0.44854,0.27721 2.37838,-3.88125 6.58967,-14.19961 0.22272,-0.5457 0.50395,-0.99218 0.62494,-0.99218 0.57125,0 1.87986,3.33831 9.49,24.20937 2.06938,5.67531 3.94269,10.67594 4.16294,11.1125 0.82029,1.62598 0.90579,1.59597 1.66437,-0.58406 0.39458,-1.13398 1.91527,-5.1574 3.3793,-8.94094 z m -36.49885,10.42516 c 0.85118,-0.29673 1.04424,-0.60623 0.56348,-0.90336 -0.41933,-0.25915 -2.1115,0.39597 -2.1115,0.81747 0,0.45166 0.43027,0.47554 1.54802,0.0859 z m 48.9874,-0.0654 c 0,-0.80019 -1.0661,-1.33944 -2.85925,-1.44623 -2.12888,-0.1268 -2.00582,0.15987 0.47876,1.11523 1.99202,0.76597 2.38049,0.81998 2.38049,0.331 z m -68.52709,-0.17071 c 0.35245,-0.22547 0.35189,-0.33507 -0.005,-0.97906 -0.48292,-0.8713 -2.24144,-1.64537 -2.69884,-1.18797 -0.47044,0.47044 0.18733,1.602 1.18272,2.03464 1.03714,0.45078 1.0251,0.44974 1.52118,0.13239 z m 11.07227,0.0167 c 0.63271,-0.12225 1.32955,-0.40145 1.54854,-0.62044 0.84793,-0.84791 -0.33425,-2.04466 -2.01977,-2.04466 -0.64304,0 -3.98645,1.9117 -3.98645,2.27938 0,0.54247 2.51853,0.76039 4.45768,0.38572 z m 45.975,-0.37444 c 0.90045,-0.77454 0.71589,-1.49691 -0.38245,-1.49691 -0.93533,0 -2.16065,0.91117 -2.16065,1.60671 0,0.76176 1.6107,0.69221 2.5431,-0.1098 z m -32.10507,-4.60579 c 2.17534,-5.25475 3.89739,-9.95961 3.89739,-10.6482 0,-1.47085 -1.06898,-0.0737 -2.6306,3.4383 -1.23736,2.78275 -1.70681,3.44135 -2.14244,3.00572 -0.46143,-0.46143 -2.2023,-4.69048 -4.18021,-10.15484 -4.53517,-12.5293 -11.14697,-31.0968 -13.23556,-37.16858 -2.08317,-6.05601 -2.27734,-6.79333 -2.29934,-8.73125 l -0.024,-2.11667 -2.74196,-0.22112 c -3.04166,-0.24528 -5.02504,-0.0634 -5.02504,0.46091 0,0.18681 0.24901,0.56501 0.55336,0.84044 0.70153,0.63487 2.02917,2.91672 2.98912,5.13748 0.86598,2.00334 5.54428,14.51745 11.67168,31.22083 9.67444,26.37268 10.72725,29.10417 11.21784,29.10417 0.12356,0 1.00096,-1.87524 1.94978,-4.16719 z m -8.54464,3.12482 c 0.51792,-1.25036 -0.0485,-1.6641 -1.42159,-1.03846 -0.87075,0.39674 -1.10164,1.05323 -0.52001,1.47854 0.80463,0.58835 1.58927,0.41051 1.9416,-0.44008 z m 2.7525,-0.81854 c -0.0344,-0.97763 -2.9665,-9.44028 -3.90513,-11.27086 l -0.56055,-1.09323 -2.68029,1.25926 -2.68029,1.25926 -0.10397,1.81834 c -0.0869,1.52009 -0.24401,2.02146 -0.95773,3.05664 -0.46957,0.68106 -0.85376,1.37073 -0.85376,1.53259 0,0.34254 3.08259,1.85881 3.77962,1.85912 0.25978,1.1e-4 0.7406,-0.17557 1.06849,-0.39041 0.32788,-0.21484 0.94877,-0.37936 1.37975,-0.36559 0.43098,0.0138 1.20271,-0.0597 1.71496,-0.1633 0.79743,-0.16124 1.03522,-0.0845 1.65364,0.53396 0.39726,0.39726 0.72229,1.01154 0.72229,1.36506 0,0.927 0.49378,1.71276 1.01004,1.60731 0.32222,-0.0658 0.43626,-0.34426 0.41293,-1.00815 z m 18.29253,0.51375 c 1.49788,-0.56042 1.78439,-1.09215 0.67593,-1.25446 -1.05085,-0.15387 -1.8485,0.20392 -2.26945,1.01795 -0.48541,0.93868 -0.34062,0.96017 1.59352,0.23651 z m 23.76809,-0.26137 c 0.99558,-0.27645 1.01406,-0.30405 0.84032,-1.2553 -0.35228,-1.92881 -1.1017,-2.42784 -3.64605,-2.42784 -0.8729,0 -1.21758,0.1669 -1.95131,0.94488 -1.31309,1.39228 -1.19925,1.87374 0.49793,2.10587 0.76398,0.1045 1.62391,0.35379 1.91095,0.554 0.62635,0.43686 1.01095,0.4497 2.34816,0.0784 z m -53.04993,-0.62432 c 0.05,-0.25805 -0.0393,-0.59942 -0.19843,-0.75859 -0.43223,-0.43222 -0.9111,0.16642 -0.6901,0.8627 0.20778,0.65466 0.75384,0.59069 0.88853,-0.10411 z m 61.92992,-1.02625 c 0.81352,-0.77386 2.2322,-1.80724 3.15261,-2.2964 2.12042,-1.1269 3.09644,-2.30804 3.79363,-4.59088 1.09883,-3.59796 0.16887,-7.11565 -2.39962,-9.07683 -1.22116,-0.93242 -2.29531,-1.35209 -2.61679,-1.02238 -0.10237,0.10498 0.052,0.35917 0.34305,0.56487 3.32804,2.35212 4.15936,3.59656 4.32169,6.46938 0.0828,1.46497 -0.009,1.95628 -0.57346,3.07021 -0.73978,1.45988 -3.2933,3.96465 -4.29919,4.21711 -1.61961,0.4065 -2.98299,-0.84281 -3.65727,-3.35128 l -0.38716,-1.44033 -0.0174,1.27417 c -0.019,1.39331 0.20016,1.93396 1.38213,3.40899 l 0.78448,0.97899 -0.82743,1.24918 c -0.78304,1.18219 -1.04058,1.95221 -0.65291,1.95221 0.096,0 0.84013,-0.63315 1.65365,-1.40701 z m -38.75002,0.88259 c 1.36131,-0.51757 1.52041,-2.66138 0.24078,-3.24442 -0.58401,-0.26609 -0.73653,-0.23825 -1.05104,0.19186 -0.32884,0.44973 -0.36789,0.33111 -0.36789,-1.11772 0,-2.15683 0.32657,-2.97821 1.18408,-2.97821 0.80512,0 0.89692,0.64631 0.15739,1.10815 -0.38952,0.24326 -0.45006,0.43203 -0.25527,0.79599 0.32025,0.5984 0.9201,0.61719 1.14319,0.0358 0.0931,-0.2427 0.24235,-1.71744 0.33159,-3.27718 0.15813,-2.76366 0.14732,-2.84064 -0.42457,-3.02215 -0.962,-0.30533 -1.45793,0.43756 -3.1614,4.73566 -1.76947,4.46466 -2.139,5.96644 -1.57997,6.42102 0.72597,0.59032 2.67761,0.77148 3.78311,0.35117 z m 32.55931,-0.62437 c -0.35617,-0.54358 -0.36011,-0.74969 -0.0321,-1.67938 0.20565,-0.58286 0.62372,-1.54944 0.92906,-2.14795 0.61183,-1.19928 0.73238,-2.94292 0.23767,-3.43763 -0.17463,-0.17462 -0.75606,-0.3175 -1.29206,-0.3175 -1.23866,0 -1.28531,0.17933 -1.0021,3.85272 0.29625,3.8425 0.41876,4.34937 1.05128,4.34937 0.47845,0 0.48599,-0.0431 0.10825,-0.61963 z m 3.23971,0.15661 c 0.15776,-0.48044 -0.86363,-0.40954 -1.27709,0.0886 -0.30565,0.36828 -0.25568,0.40857 0.41022,0.33072 0.41705,-0.0488 0.80714,-0.23747 0.86687,-0.41937 z m -61.10702,-1.07431 c -0.0629,-0.51909 -0.31499,-0.72576 -1.204,-0.98692 -0.61846,-0.18169 -1.12448,-0.27955 -1.12448,-0.21747 0,0.47148 0.83694,1.94584 1.22918,2.16535 0.65607,0.36716 1.20232,-0.11036 1.0993,-0.96096 z m -4.7634,0.14679 c 0.49103,-0.59165 0.66091,-1.76846 0.3154,-2.18477 -0.37259,-0.44895 -2.00554,-0.52211 -3.02263,-0.13541 -0.80664,0.30669 -0.92895,1.40813 -0.2408,2.16853 0.51421,0.56819 2.51683,0.67121 2.94803,0.15165 z m 38.70023,0.0583 c 1.10415,-0.59092 0.41882,-3.77939 -1.11612,-5.19277 l -0.62106,-0.57188 -1.37755,2.02709 c -1.58386,2.33066 -1.74462,2.68743 -1.432,3.17798 0.44183,0.69331 3.57609,1.07906 4.54673,0.55958 z m 27.50985,-0.7398 c 0.60737,-0.49182 0.61006,-1.22307 0.008,-2.15079 -0.2168,-0.33401 -0.31756,-0.3259 -0.74384,0.0599 -0.27119,0.24543 -0.76233,0.9253 -1.09141,1.51084 l -0.59834,1.06461 h 0.91366 c 0.50251,0 1.18292,-0.21804 1.51202,-0.48453 z m -6.36057,-2.16131 c 0.552,-0.552 0.74766,-2.68577 0.30956,-3.37586 -0.42825,-0.67457 -4.27831,2.49072 -4.27831,3.51736 0,0.30074 0.38563,0.38767 1.71979,0.38767 1.36701,0 1.82834,-0.10855 2.24896,-0.52917 z m 18.59524,-0.7229 c 0.4557,-0.26615 1.10118,-1.01604 1.43438,-1.66644 1.66585,-3.2516 1.21065,-7.66702 -0.99632,-9.66431 -0.55762,-0.50463 -0.56771,-0.50357 -1.0664,0.11228 -0.45343,0.55997 -0.48662,0.91655 -0.33399,3.58881 0.19099,3.34413 -0.10596,5.15994 -1.13943,6.96721 -0.35482,0.6205 -0.578,1.23681 -0.49595,1.36957 0.18535,0.2999 1.47412,-0.0509 2.59771,-0.70712 z m -5.84731,-1.36336 c 1.20424,-1.27252 1.62127,-2.73285 1.49492,-5.2349 -0.0714,-1.41349 -0.23995,-2.10573 -0.64615,-2.65343 -0.66428,-0.89569 -2.38521,-1.92132 -3.23386,-1.9273 -0.93686,-0.007 -0.56459,0.57894 0.77693,1.22203 0.88824,0.4258 1.3558,0.89074 1.89851,1.88789 0.39603,0.72763 0.72005,1.59327 0.72005,1.92364 0,0.59181 -1.0454,2.1957 -1.84132,2.82502 -0.5628,0.445 -1.92121,0.41863 -2.53988,-0.0493 -0.85851,-0.64935 -1.17505,-0.48929 -1.17505,0.59417 0,2.69358 2.57591,3.4938 4.54585,1.41219 z m -76.75988,-0.38197 c -0.32364,-0.85124 -0.81097,-0.93074 -0.81097,-0.13229 0,0.71924 0.88635,1.79736 1.00286,1.21984 0.0422,-0.20944 -0.0441,-0.69883 -0.19189,-1.08755 z m 7.32816,1.07917 c 0.41542,-0.51568 0.65622,-1.97967 0.35613,-2.16514 -0.38037,-0.23508 -2.5999,0.86169 -2.80023,1.38373 -0.33767,0.87996 1.81125,1.567 2.4441,0.78141 z m 2.79865,-0.13229 c 0.36347,-1.34065 0.44504,-2.01251 0.29987,-2.4699 -0.19471,-0.61347 -0.80124,-0.66574 -1.02289,-0.0881 -0.21616,0.56332 -0.20472,2.62417 0.0158,2.84468 0.30429,0.30429 0.577,0.19376 0.70723,-0.28663 z m -7.08387,-0.43838 c 0.18992,-0.7567 -0.27467,-1.74443 -0.82051,-1.74443 -0.55994,0 -0.60445,1.39475 -0.0654,2.05052 0.41228,0.50159 0.70897,0.39909 0.88596,-0.30609 z m -4.93393,-1.55124 c 0.53495,-1.00352 0.83555,-1.8758 0.73591,-2.13547 -0.22655,-0.59036 -1.30531,-0.55561 -2.07398,0.0668 -0.50372,0.40789 -0.62462,0.7585 -0.62462,1.81142 0,1.20024 0.48659,2.32901 0.88987,2.06431 0.0926,-0.0608 0.57542,-0.874 1.07282,-1.80708 z m 49.39101,-0.25934 c -0.24029,-0.32742 -0.7299,-1.19062 -1.08802,-1.91823 -0.4706,-0.95612 -0.65185,-1.1555 -0.65372,-0.7191 -0.003,0.65778 0.62849,2.32095 1.0938,2.88162 0.16023,0.19307 0.46986,0.35102 0.68808,0.35102 0.34071,0 0.33505,-0.0841 -0.0401,-0.59531 z m -40.73555,-1.35425 c 0.63569,-0.63569 1.15581,-1.27293 1.15581,-1.41608 0,-0.53683 -1.2375,-2.07135 -1.94466,-2.41141 -1.06738,-0.51328 -2.58462,-0.10242 -3.028,0.81997 -0.25983,0.54054 -0.27459,0.96447 -0.0612,1.75711 0.28996,1.07683 1.56663,2.40622 2.3108,2.40622 0.22626,0 0.9315,-0.52011 1.5672,-1.15581 z m 56.07862,0.0313 c 0.23773,-0.47295 0.68159,-1.05717 0.98636,-1.29829 0.75127,-0.59435 0.84189,-3.19894 0.11635,-3.34418 -0.26474,-0.053 -0.46302,0.066 -0.46302,0.27797 0,0.20386 -0.28396,1.0758 -0.63103,1.93763 -0.80566,2.00062 -1.08729,3.28676 -0.71971,3.28676 0.15335,0 0.47332,-0.38695 0.71105,-0.85989 z m 7.31588,-0.92605 c 0.43734,-0.9797 0.5653,-1.81091 0.58044,-3.77031 0.0194,-2.51216 0.019,-2.51358 -0.6647,-2.59306 -0.95816,-0.11138 -1.26232,0.37664 -1.98216,3.18035 -0.77033,3.00036 -0.77733,3.24516 -0.11185,3.91063 0.89852,0.89852 1.54943,0.68109 2.17827,-0.72761 z m -74.1381,-0.5465 c 1.36907,-1.21942 1.25434,-1.66288 -0.25421,-0.98262 -1.32104,0.59571 -2.2527,1.56547 -2.03899,2.12238 0.20419,0.53211 0.68377,0.29375 2.2932,-1.13976 z m 48.28954,0.5465 c 0.0838,-0.40018 0.28373,-1.20385 0.44437,-1.78593 0.5218,-1.89076 0.30719,-3.05883 -1.50696,-8.20209 -0.97525,-2.76489 -1.81643,-5.07114 -1.86929,-5.125 -0.25222,-0.25698 -1.49941,0.31317 -2.1019,0.96088 -0.62621,0.67321 -2.37286,4.75744 -2.98833,6.98768 -0.32276,1.16957 0.049,1.607 2.32365,2.73367 1.81866,0.90084 2.33028,1.34924 2.78722,2.44286 0.33867,0.81055 2.13542,2.71146 2.56555,2.71427 0.10637,8e-4 0.26193,-0.32615 0.34569,-0.72634 z m 31.47549,0.46302 c 0.0975,-0.1578 -0.22353,-0.26458 -0.79552,-0.26458 -0.52748,0 -1.19955,-0.12871 -1.49349,-0.28602 -0.71894,-0.38476 -1.01728,-0.0319 -0.37198,0.43995 0.58784,0.42983 2.41673,0.50589 2.66099,0.11065 z m -19.6385,-0.87261 c 0.45669,-0.697 2.04371,-4.35553 2.04371,-4.71134 0,-0.13028 -0.15343,-0.23688 -0.34097,-0.23688 -0.70197,0 -3.07656,4.68519 -2.69087,5.30924 0.24821,0.40162 0.56404,0.28622 0.98813,-0.36102 z m -27.99794,-1.5526 c 0.21956,-0.73931 0.33468,-1.44857 0.25585,-1.57614 -0.22246,-0.35995 -2.16946,-0.27625 -2.2983,0.0988 -0.2665,0.77576 0.90819,3.27584 1.39718,2.97363 0.13535,-0.0837 0.42572,-0.75698 0.64527,-1.49629 z m 46.69712,1.25064 c 0.48839,-0.58847 0.24639,-1.86808 -0.35328,-1.86808 -0.61689,0 -0.96224,0.85765 -0.66588,1.65364 0.25604,0.68771 0.57133,0.75405 1.01916,0.21444 z m -8.77191,-2.30249 c -0.071,-0.9808 -0.27742,-1.73014 -0.55253,-2.00525 -0.67784,-0.67784 -0.83841,-0.205 -0.35777,1.05354 0.23929,0.62657 0.4387,1.67102 0.44312,2.321 0.007,0.9766 0.0577,1.09627 0.29425,0.68925 0.15808,-0.27205 0.2355,-1.19356 0.17293,-2.05854 z m -50.35301,1.06306 c 0.52385,-0.30908 0.91427,-0.60015 0.86759,-0.64683 -0.0467,-0.0467 -0.55443,0.021 -1.12835,0.15047 -0.57391,0.12944 -1.08196,0.19685 -1.129,0.14982 -0.047,-0.047 0.44168,-0.3945 1.08605,-0.77212 1.10586,-0.64808 1.63086,-1.27348 1.32543,-1.5789 -0.16465,-0.16466 -3.02363,0.79381 -3.35436,1.12454 -0.13587,0.13587 -0.10251,0.63321 0.0795,1.18459 0.3698,1.1205 0.8671,1.20623 2.25317,0.38843 z m -4.07695,-1.21113 c 0.32163,-0.84595 0.31292,-2.19565 -0.0142,-2.19565 -0.59249,0 -1.56569,2.31341 -1.21316,2.88382 0.25723,0.4162 0.95653,0.0241 1.22733,-0.68817 z m -9.01665,-0.5059 c 0.87607,-0.95043 1.04461,-1.2717 0.7613,-1.45116 -1.00664,-0.63763 -2.87742,0.16468 -2.87742,1.23401 0,0.53476 0.48323,1.43782 0.76937,1.43782 0.12186,0 0.7279,-0.5493 1.34675,-1.22067 z m -6.77562,0.5507 c 0.49377,-0.49376 0.80616,-2.00918 0.59095,-2.86668 -0.20747,-0.82663 -1.41895,-1.33949 -2.33839,-0.98992 -1.52232,0.57879 -2.12107,3.02462 -0.94252,3.85011 0.75186,0.52662 2.16643,0.53003 2.68996,0.007 z m 59.43395,-0.13442 c 0.15889,-0.29689 0.97347,-1.33869 1.81018,-2.3151 1.88021,-2.19414 2.03176,-2.43676 1.52211,-2.43676 -0.21857,0 -1.12542,0.67402 -2.01523,1.49781 -1.60158,1.48279 -2.38109,2.59057 -2.38109,3.38384 0,0.5924 0.72484,0.50399 1.06403,-0.12979 z m -56.50899,0.0345 c 0.19123,-0.30941 -0.10185,-1.08221 -0.41043,-1.08221 -0.12995,0 -0.23628,0.29766 -0.23628,0.66146 0,0.65384 0.3585,0.88708 0.64671,0.42075 z m 76.87621,-0.42075 c -0.34177,-0.3638 -0.80901,-0.65717 -1.0383,-0.65194 -0.28235,0.006 -0.16073,0.2195 0.37684,0.66014 1.03232,0.84619 1.45914,0.8409 0.66146,-0.008 z m -66.72042,-0.48394 c 0.29612,-1.55295 -0.78018,-2.56494 -2.03679,-1.91512 -1.32342,0.68436 -1.29286,1.33726 0.0978,2.09074 0.9881,0.53535 1.81771,0.46021 1.93895,-0.17562 z m 46.35654,-2.96732 1.44617,-1.46689 -1.98437,0.0778 c -1.90824,0.0748 -1.9874,0.1038 -2.06321,0.75482 -0.1026,0.88103 0.36714,2.10113 0.80893,2.10113 0.19047,0 0.99709,-0.6601 1.79248,-1.46689 z m -53.99154,0.34849 c 0.35037,-0.25131 0.5639,-0.53007 0.4745,-0.61947 -0.37926,-0.37926 -2.0545,0.61477 -2.0545,1.21907 0,0.28973 0.72227,0.0156 1.58,-0.5996 z m 70.5366,-2.81863 c -0.37392,-0.67229 -0.88805,-1.66762 -1.1425,-2.21184 -0.52637,-1.12581 -0.88987,-1.21753 -1.84565,-0.46572 -0.37,0.29105 -0.95013,0.52917 -1.28919,0.52917 -0.57039,0 -1.31375,0.82064 -1.01447,1.11992 0.0721,0.0721 0.93824,0.0734 1.92467,0.003 1.74303,-0.12471 1.81268,-0.10553 2.47525,0.6819 0.37497,0.44562 0.84413,1.44226 1.04259,2.21476 l 0.36083,1.40452 0.0842,-1.02662 c 0.0595,-0.72559 -0.11517,-1.38502 -0.59569,-2.24895 z m 8.05216,2.27611 c 0,-0.97297 -0.7259,-1.77867 -1.60251,-1.77867 -0.65548,0 -0.77874,0.10531 -0.77874,0.66535 0,0.46671 0.25671,0.82187 0.85989,1.18964 1.12098,0.68347 1.52136,0.66339 1.52136,-0.0763 z M 139.374,301.25685 c -0.0256,-1.32503 -2.58709,-2.56304 -3.01199,-1.45577 -0.24997,0.6514 0.53003,1.63813 1.50042,1.8981 1.0406,0.27878 1.52279,0.13768 1.51157,-0.44233 z m -10.75127,-0.13942 c 1.36632,-0.60425 2.29301,-1.49342 2.29301,-2.20015 0,-0.18255 -0.28638,-0.51955 -0.63641,-0.74889 -0.56966,-0.37327 -0.73554,-0.37557 -1.5817,-0.022 -1.36166,0.56894 -2.52612,2.73813 -1.83883,3.42543 0.23669,0.23669 0.15202,0.2585 1.76393,-0.45436 z m 70.95018,0.0711 c 0.48232,-0.47095 -0.4742,-0.75511 -2.55584,-0.75927 -1.11588,-0.002 -2.21721,0.0682 -2.44739,0.15655 -0.6698,0.25702 -0.48353,0.85152 0.30909,0.98645 1.07611,0.18319 4.39106,-0.0878 4.69414,-0.38373 z m -55.51807,-1.41017 c -0.0869,-0.22631 -0.2807,-0.41148 -0.43079,-0.41148 -0.31058,0 -0.36025,0.78739 -0.0935,1.48247 0.1629,0.42451 0.20244,0.41569 0.43078,-0.096 0.13829,-0.30991 0.18037,-0.74863 0.0935,-0.97495 z m 15.82168,-0.50328 c 0.68668,-1.40964 1.13579,-3.0832 0.82738,-3.0832 -0.39726,0 -2.18832,1.04956 -2.8668,1.67995 -0.89902,0.83529 -0.92403,1.58726 -0.0808,2.43045 0.85411,0.8541 1.31182,0.63236 2.12026,-1.0272 z m 27.5916,-0.40244 c 2.80566,-1.43135 3.36629,-3.96291 1.37887,-6.22646 -1.26006,-1.43513 -3.15839,-2.1321 -5.80833,-2.13252 -2.5813,-5.3e-4 -4.7625,0.30523 -4.7625,0.66735 0,0.1366 0.86321,0.25479 1.91823,0.26263 1.05503,0.008 2.86429,0.11338 4.02058,0.23452 2.04515,0.21425 2.13332,0.25303 3.24114,1.42554 0.91212,0.96537 1.1388,1.39674 1.1388,2.16709 0,1.58502 -1.11632,2.42519 -4.60859,3.46853 -0.42467,0.12688 -0.8274,0.39708 -0.89495,0.60045 -0.19002,0.57204 3.00907,0.2306 4.37675,-0.46713 z m 14.99013,-1.40993 c -0.23188,-1.62967 -0.25486,-1.66644 -1.00729,-1.61209 -1.51931,0.10973 -1.51324,0.87847 0.0228,2.89238 0.96317,1.26278 1.28646,0.84233 0.98445,-1.28029 z m -61.11037,1.27653 c 0.22699,-0.3714 0.15627,-0.56822 -0.35486,-0.98755 -1.2151,-0.99688 -2.18742,-0.0199 -1.08117,1.08629 0.6232,0.62321 1.01111,0.59654 1.43603,-0.0987 z m 64.18037,-0.1132 c 0,-0.32972 -0.59771,-0.84666 -0.97896,-0.84666 -0.43976,0 -0.45034,0.70672 -0.0132,0.8831 0.5237,0.21132 0.99219,0.19412 0.99219,-0.0364 z m -68.44637,-0.54575 c 0.40819,-0.26915 0.90947,-0.7282 1.11394,-1.02013 0.20447,-0.29192 0.73997,-0.68329 1.19,-0.86969 0.90306,-0.37406 1.84867,-1.92962 1.84867,-3.04112 0,-0.3753 -0.53578,-2.11465 -1.19062,-3.86522 -0.65484,-1.75058 -1.19063,-3.34623 -1.19063,-3.5459 0,-0.19967 -0.10831,-0.42998 -0.2407,-0.5118 -0.50753,-0.31367 -1.09473,0.22267 -1.78222,1.62785 -0.84846,1.73417 -1.14908,4.94475 -0.63496,6.78102 0.29889,1.06751 0.27425,1.21368 -0.36281,2.15244 -0.64702,0.95344 -0.89366,2.22242 -0.50708,2.609 0.31003,0.31003 0.99284,0.18701 1.75641,-0.31645 z m 72.09767,-0.72486 c 0.0528,-0.36986 -0.24393,-0.84015 -0.88557,-1.40352 -1.25555,-1.10239 -1.81394,-0.99684 -1.92512,0.36391 -0.10414,1.27443 0.4496,1.78784 1.80522,1.67377 0.70846,-0.0596 0.94471,-0.20862 1.00547,-0.63416 z m -66.74131,-1.57753 c -0.2322,-0.3544 -0.53851,-0.64436 -0.68068,-0.64436 -0.442,0 -0.28302,0.8844 0.33295,1.85209 l 0.58946,0.92604 0.0902,-0.74471 c 0.0496,-0.40958 -0.0998,-1.03466 -0.33197,-1.38906 z m -10.39454,0.26422 c 0.54797,-1.53348 0.44752,-3.44209 -0.24267,-4.61049 -0.43539,-0.73706 -0.43606,-0.8339 -0.0118,-1.72349 0.64323,-1.34887 0.59675,-2.94382 -0.0966,-3.3149 -0.70848,-0.37917 -1.20899,0.0176 -1.45315,1.15182 -0.25213,1.17127 -0.79278,2.17719 -2.13899,3.97975 -0.63694,0.85286 -1.22693,1.82503 -1.3111,2.16039 -0.17789,0.70875 0.58563,2.48446 1.16363,2.70626 0.56541,0.21696 1.11069,-0.6693 1.11069,-1.80525 0,-1.261 0.54054,-1.7585 1.16315,-1.07052 0.67253,0.74313 1.06035,2.36095 0.67675,2.82316 -0.37388,0.45049 -0.12362,1.26342 0.34305,1.11433 0.18182,-0.0581 0.54051,-0.69306 0.79708,-1.41106 z m 48.33079,0.97778 c 0.3646,-0.68127 0.80198,-2.70508 0.55109,-2.55003 -0.23098,0.14276 -0.9128,1.55505 -1.18261,2.44961 -0.21904,0.72625 0.25614,0.80181 0.63152,0.10042 z m 6.32109,-0.0447 c 1.09016,-0.39582 1.51463,-1.33868 1.04217,-2.31495 -0.37233,-0.76938 -2.20896,-1.79392 -3.67768,-2.05154 -0.96296,-0.1689 -0.96296,-0.1689 -1.42305,1.24412 -0.25305,0.77716 -0.60529,1.59162 -0.78276,1.8099 -0.46709,0.57452 -0.69557,1.32832 -0.49902,1.64635 0.21704,0.35118 4.12676,0.10674 5.34034,-0.33388 z m -34.07346,-0.65642 c 0.63445,-0.32809 1.84154,-2.05189 1.84154,-2.62984 0,-0.31678 -0.97611,-0.11033 -1.77156,0.37469 -1.19866,0.73087 -1.82909,1.74773 -1.40234,2.26193 0.40297,0.48555 0.38008,0.48566 1.33236,-0.007 z m 44.96577,-1.04945 c 0.20088,-0.24203 0.25566,-0.67475 0.14237,-1.12448 l -0.18415,-0.73104 -0.50685,0.62463 c -0.59009,0.7272 -0.66872,1.62433 -0.14237,1.62433 0.20046,0 0.51142,-0.17705 0.691,-0.39344 z m 7.35842,-0.42522 c 0.14052,-1.20486 -1.28287,-1.73303 -1.70511,-0.63269 -0.19794,0.51581 0.657,1.49788 1.21244,1.39274 0.22723,-0.043 0.44893,-0.38503 0.49267,-0.76005 z m -43.3975,-0.46075 c 0.13463,-0.40389 -0.54023,-0.39717 -0.94682,0.009 -0.17462,0.17462 -0.3175,0.4868 -0.3175,0.69373 0,0.32239 0.0831,0.32104 0.58082,-0.009 0.31944,-0.21211 0.62702,-0.52429 0.6835,-0.69373 z m 18.36016,-0.2168 c 0.71863,-0.65035 0.62773,-1.41421 -0.16829,-1.41421 -0.72404,0 -1.28941,0.78189 -1.03839,1.43605 0.20523,0.53481 0.59947,0.52768 1.20668,-0.0218 z m 21.50323,-0.41474 c 0.53667,-0.7662 0.53837,-1.79322 0.003,-1.79322 -0.58962,0 -1.70776,1.20476 -1.70776,1.84006 0,0.75792 1.1635,0.72594 1.70479,-0.0468 z m -49.06521,-0.4703 c 0.65485,-0.43531 1.33946,-0.79199 1.52136,-0.79262 0.1819,-5.3e-4 0.33073,-0.11188 0.33073,-0.24724 0,-0.51661 -2.77163,0.6319 -3.42511,1.41929 -0.58501,0.70489 0.24195,0.50543 1.57302,-0.37943 z m 8.96098,0.11537 c 0.91009,-0.36415 1.14604,-0.65781 1.96635,-2.4474 l 0.93216,-2.03359 -1.45697,-0.0801 c -1.8299,-0.10061 -3.05862,0.52592 -2.37403,1.21052 0.37922,0.37922 0.33437,0.50785 -0.49859,1.42984 -1.72792,1.9126 -0.99777,2.89256 1.43108,1.92073 z m 46.61618,0.14137 c 1.35792,-0.72674 1.74713,-3.42118 0.67435,-4.66837 -0.55592,-0.64629 -0.72583,-0.70465 -1.38088,-0.47428 -0.92335,0.32472 -1.95396,1.80114 -1.95396,2.79917 0,0.45648 0.31829,1.10792 0.82116,1.68066 0.88856,1.01201 1.06683,1.07626 1.83933,0.66282 z m -54.83488,-2.53934 c 2.13252,-1.24923 2.12692,-2.36351 -0.024,-4.77409 -0.77422,-0.86768 -1.56466,-1.95661 -1.75653,-2.41983 -0.45653,-1.10217 -1.17237,-1.09446 -1.64163,0.0177 -0.50351,1.19331 -0.50808,7.61364 -0.006,8.21959 0.32415,0.39108 0.44581,0.3936 1.32292,0.0273 0.53127,-0.22185 1.47856,-0.70365 2.1051,-1.07067 z m 45.92838,0.80575 c 0.0883,-0.23018 0.15632,-0.91479 0.15108,-1.52135 l -0.01,-1.10284 -0.65063,0.79375 c -0.80059,0.97671 -0.88681,2.24896 -0.15239,2.24896 0.27547,0 0.57313,-0.18833 0.66145,-0.41852 z m 13.49236,-0.0778 c 0.24705,-0.273 0.51965,-0.93053 0.60576,-1.4612 0.18258,-1.1251 -0.42473,-2.0112 -1.37842,-2.0112 -0.98681,0 -1.19815,0.52528 -0.91268,2.26849 0.14122,0.86238 0.25745,1.59773 0.25829,1.63411 0.007,0.28582 1.06886,-0.0344 1.42705,-0.4302 z m -20.80698,-0.36355 c 0.14438,-0.1819 0.41286,-0.79704 0.59663,-1.36697 0.29872,-0.92645 0.28309,-1.07356 -0.14745,-1.38838 -0.62611,-0.45782 -1.43762,0.0343 -1.78754,1.08409 -0.43752,1.31258 0.59736,2.60488 1.33836,1.67126 z m 12.23675,-0.19663 c 0.15523,-0.29004 0.30825,-1.1489 0.34004,-1.90857 0.0483,-1.15527 -0.0218,-1.39754 -0.42882,-1.48097 -0.7466,-0.15303 -1.76234,0.95863 -1.76234,1.92876 0,0.79339 0.79559,1.98814 1.32392,1.98814 0.13473,0 0.37197,-0.23731 0.5272,-0.52736 z m -14.96573,-0.63975 c -0.0971,-0.38679 0.0584,-1.13205 0.39504,-1.89297 0.30534,-0.69027 0.49394,-1.31625 0.41911,-1.39108 -0.16217,-0.16216 -4.1037,1.80298 -4.1037,2.046 0,0.2416 2.71244,1.876 3.1134,1.876 0.22326,0 0.28245,-0.21439 0.17615,-0.63795 z m -62.91377,-0.33909 c 0.72129,-0.47148 1.4733,-1.98146 1.14861,-2.30634 -0.30586,-0.30605 -2.21513,0.9359 -2.79182,1.81603 -0.78319,1.19531 0.14221,1.47144 1.64321,0.49031 z m 54.55857,-0.96087 c 0.15995,-0.19273 0.37022,-1.20476 0.46727,-2.24896 l 0.17645,-1.89855 h -2.38685 c -3.00031,0 -3.22071,0.18595 -2.57586,2.17323 0.60204,1.85532 0.73449,1.95495 1.53493,1.1545 0.37505,-0.37504 0.81011,-0.6819 0.96682,-0.6819 0.45079,0 0.60117,0.70095 0.27937,1.30224 -0.26665,0.49824 -0.22194,0.54985 0.47639,0.54985 0.42387,0 0.90153,-0.15769 1.06148,-0.35041 z m 2.59429,-2.23518 c 0.27837,-2.35038 -1.08542,-5.48742 -2.72801,-6.27505 -1.72791,-0.82855 -4.99007,-0.30725 -5.63656,0.90074 -0.3595,0.67171 -0.4375,0.67146 1.46794,0.005 2.69682,-0.94362 4.35027,-0.33381 5.42833,2.00202 0.28105,0.60896 0.49245,1.67622 0.49787,2.51354 0.0186,2.87308 0.66403,3.44106 0.97043,0.854 z m -22.57401,0.46892 c 1.71554,-0.91547 1.94677,-0.94802 2.59124,-0.36479 0.2607,0.23593 0.65219,0.36059 0.86997,0.27702 0.65267,-0.25046 1.78488,-2.78211 1.78076,-3.98184 -0.004,-1.14061 -1.405,-5.45031 -2.7014,-8.30947 -0.68213,-1.50442 -0.81132,-1.64491 -1.28128,-1.3934 -0.80975,0.43337 -3.40513,4.52108 -3.70967,5.84274 -0.35525,1.54168 -0.35971,6.46129 -0.007,7.7313 0.15155,0.5457 0.43178,0.99219 0.62274,0.99219 0.19095,0 1.01654,-0.35719 1.83464,-0.79375 z m 41.10227,-0.12899 c 0.5075,-0.5075 0.87324,-1.07305 0.81275,-1.25677 -0.0614,-0.18663 -0.64072,-0.36902 -1.31272,-0.41331 -1.38127,-0.091 -1.65142,0.24277 -1.37761,1.70229 0.21499,1.14595 0.70787,1.1375 1.87758,-0.0322 z m 13.41583,-0.0249 c 0.0883,-0.23018 0.1606,-0.76177 0.1606,-1.18131 0,-1.00502 -0.67684,-1.37028 -1.72361,-0.93015 -0.74965,0.31521 -1.64596,1.13188 -1.42295,1.29652 0.0571,0.0422 0.44733,0.33694 0.86714,0.65506 0.89501,0.67822 1.89108,0.75339 2.11882,0.15989 z m -27.48821,-0.2963 c 0.55954,-0.26682 0.91308,-0.61153 0.86788,-0.84621 -0.0419,-0.21779 -0.76781,-0.93299 -1.61305,-1.58932 -1.26802,-0.98465 -1.58237,-1.12586 -1.79739,-0.80744 -0.24951,0.36949 -0.11096,2.98833 0.1833,3.46444 0.22778,0.36857 1.34111,0.26406 2.35926,-0.22147 z m 5.68839,0.0626 c 0,-0.57842 -0.78621,-2.83194 -1.23249,-3.53268 -0.81,-1.27185 -1.5938,0.70974 -0.85111,2.15176 0.72382,1.4054 2.0836,2.3066 2.0836,1.38092 z m 16.27188,-0.2739 c 0,-0.46035 -0.20325,-0.53965 -1.56296,-0.60976 -1.63522,-0.0843 -2.25311,0.2613 -1.68689,0.94356 0.19517,0.23516 0.7814,0.32569 1.7708,0.27345 1.27663,-0.0674 1.47905,-0.1505 1.47905,-0.60725 z m -61.28615,-1.20366 c 0.49391,-1.41683 -0.26851,-3.40666 -1.17239,-3.05981 -0.36135,0.13866 -0.4065,0.38641 -0.25479,1.39807 0.37013,2.46825 0.92202,3.11084 1.42718,1.66174 z m 46.34374,-1.72398 c 0.3591,-0.94451 0.32204,-1.43798 -0.10798,-1.43798 -0.36325,0 -0.68177,0.76481 -0.68871,1.65364 -0.005,0.69472 0.50287,0.55713 0.79669,-0.21566 z m -16.62218,0.13202 c 2.22987,-0.44861 2.22127,-0.44197 1.52789,-1.18004 -0.35,-0.37256 -0.91286,-0.65455 -1.30648,-0.65455 -0.96033,0 -3.03462,1.09304 -3.1382,1.65365 -0.10286,0.55669 0.7776,0.61131 2.91679,0.18094 z m 10.7948,-0.64396 c -1.01841,-1.05074 -1.32292,-1.14707 -1.32292,-0.41852 0,1.02847 0.29875,1.34456 1.27084,1.34456 h 0.94963 z m 16.76466,-0.18575 c 0.15523,-0.24768 0.19766,-0.53491 0.0943,-0.63829 -0.29892,-0.29892 -1.51312,0.37254 -1.51312,0.83677 0,0.55509 1.03749,0.40995 1.41883,-0.19848 z m -69.3012,-0.45998 c 0.37301,-0.35043 0.6782,-0.84789 0.6782,-1.10548 0,-0.53125 -2.52331,-7.84887 -3.4311,-9.95021 -0.51961,-1.20281 -0.71708,-1.40514 -1.51797,-1.55539 -1.16238,-0.21806 -3.84616,0.0503 -5.54337,0.55433 -2.01798,0.59927 -3.26589,2.20415 -3.26589,4.20012 0,1.16395 0.41325,1.4909 1.88448,1.4909 1.21082,0 1.25933,-0.0307 1.56803,-0.99219 0.17521,-0.5457 0.50055,-1.20055 0.72299,-1.45521 0.58054,-0.66465 1.91824,-0.57623 2.96489,0.19596 0.79831,0.58898 0.9395,0.61709 1.32901,0.26459 0.23969,-0.21692 0.58067,-0.3944 0.75773,-0.3944 0.4466,0 1.62078,1.21633 1.62078,1.67895 0,0.20906 -0.47625,0.95643 -1.05833,1.66083 -1.28553,1.55567 -1.41293,2.36476 -0.33073,2.10046 1.64835,-0.40257 1.78022,-0.35044 1.86972,0.73914 0.0461,0.56101 0.0122,1.20665 -0.0754,1.43476 -0.1356,0.35337 -0.21512,0.33484 -0.53731,-0.12514 -0.20798,-0.29694 -0.76769,-0.6178 -1.2438,-0.71302 -0.4761,-0.0952 -1.30683,-0.52768 -1.84606,-0.96101 -1.16761,-0.93832 -1.42489,-0.96932 -1.82593,-0.21998 -0.3479,0.65007 -0.18218,2.77459 0.25016,3.20693 0.42494,0.42494 2.28638,0.68945 4.45019,0.63236 1.60472,-0.0423 2.00733,-0.1496 2.57969,-0.6873 z m 48.7934,-0.685 c 0.78177,-0.65782 1.42248,-2.1544 1.771,-4.13676 0.15174,-0.86308 0.0881,-1.02292 -0.57935,-1.45521 -0.4124,-0.2671 -2.17991,-1.71891 -3.92781,-3.22625 -3.38518,-2.91928 -4.08538,-3.37781 -4.76174,-3.11827 -0.50197,0.19262 -1.3561,2.04708 -2.63472,5.72047 -0.87382,2.51041 -1.46048,5.29779 -1.11503,5.29779 0.0873,0 0.68897,-0.37381 1.33714,-0.83068 1.37066,-0.96613 3.25399,-1.26378 4.78962,-0.75698 0.5522,0.18224 1.61004,0.95361 2.40057,1.75049 0.77733,0.78357 1.52844,1.42467 1.66913,1.42467 0.1407,0 0.61373,-0.30117 1.05119,-0.66927 z m 23.85147,0.437 c 0,-0.12775 -0.17859,-0.65971 -0.39688,-1.18213 -0.21828,-0.52242 -0.39687,-1.28446 -0.39687,-1.69342 0,-1.10301 1.65359,-4.35104 2.63598,-5.17767 1.44292,-1.21413 0.36593,-2.14429 -1.12494,-0.97157 -1.38766,1.09153 -2.70981,7.95246 -1.72271,8.93956 0.36946,0.36946 1.00542,0.42337 1.00542,0.0852 z m 2.79872,-0.5433 c 2.50047,-1.43421 3.43878,-3.01374 3.23977,-5.45378 -0.11864,-1.45468 -0.88244,-1.53316 -2.31606,-0.23796 -2.35971,2.13185 -3.79939,4.80559 -3.19533,5.93429 0.37701,0.70444 0.67631,0.67248 2.27162,-0.24255 z m -7.38229,-0.26251 c 0.89878,-0.4252 1.83523,-1.07998 2.081,-1.45507 0.52896,-0.80729 0.83141,-3.84512 0.45059,-4.52563 -0.24785,-0.44287 -0.31557,-0.42731 -0.96464,0.22176 -0.38394,0.38394 -0.77459,1.08067 -0.86811,1.54829 -0.11098,0.55489 -0.7525,1.43844 -1.84683,2.54359 -1.67327,1.68982 -1.83327,1.93128 -1.50038,2.26417 0.33051,0.33051 1.01264,0.17672 2.64837,-0.59711 z m -12.9389,-0.37606 c 0.1892,-0.1892 0.27864,-0.5143 0.19877,-0.72244 -0.16868,-0.43959 -2.51657,-2.09675 -2.97071,-2.09675 -0.87363,0 -0.66016,2.38831 0.27317,3.05616 0.63694,0.45576 1.92853,0.33327 2.49877,-0.23697 z m 8,-0.4415 c 0.31226,-0.43852 1.79531,-3.86157 3.29568,-7.60677 4.13823,-10.32982 5.28197,-12.55871 8.04248,-15.67301 1.30972,-1.47756 1.19898,-1.54347 -2.63595,-1.5689 l -2.80463,-0.0186 -0.1542,2.92288 c -0.16881,3.19999 -0.62167,4.70208 -4.90206,16.25941 -2.25136,6.07885 -2.36442,6.4823 -1.81659,6.4823 0.22415,0 0.66302,-0.35879 0.97527,-0.79731 z m -2.66792,-1.81198 c 0.18664,-0.34875 0.1619,-0.63175 -0.0847,-0.96903 -0.60545,-0.82799 -1.77072,0.0662 -1.38754,1.06477 0.2135,0.55639 1.15605,0.4951 1.47226,-0.0957 z m 6.89872,-1.43208 c 0,-0.27536 -0.14233,-0.4532 -0.3163,-0.39521 -0.36234,0.12077 -0.76982,1.41018 -0.5235,1.6565 0.23602,0.23602 0.8398,-0.6708 0.8398,-1.26129 z m -57.15,0.73909 c 0,-0.0389 -0.2942,-0.59703 -0.65377,-1.24038 -0.57632,-1.03115 -0.68943,-1.7012 -0.95474,-5.65573 -0.16553,-2.46729 -0.34937,-4.53738 -0.40853,-4.6002 -0.19559,-0.20768 -1.91059,1.62514 -2.2203,2.37284 -0.3626,0.8754 0.019,2.58751 1.35219,6.06652 0.91208,2.38014 1.79095,3.5475 2.47358,3.28554 0.22637,-0.0869 0.41157,-0.18973 0.41157,-0.22859 z m 3.71719,-0.42623 c 0.16293,-0.30443 0.52603,-1.25352 0.80691,-2.1091 0.28087,-0.85557 0.87577,-2.09656 1.322,-2.75775 0.7031,-1.0418 5.16081,-10.023 5.61583,-11.31454 0.10807,-0.30672 0.0301,-0.46302 -0.23089,-0.46302 -0.53462,0 -1.69977,1.68781 -4.24093,6.14334 -1.17591,2.06177 -2.27386,3.79395 -2.43988,3.84929 -0.16602,0.0553 -0.6029,-0.20042 -0.97084,-0.56835 -0.52781,-0.52782 -0.66985,-0.93671 -0.6731,-1.93778 -0.0105,-3.20714 -1.17362,-5.78147 -3.62441,-8.02152 -1.73599,-1.58672 -2.79181,-2.11224 -4.23432,-2.10758 -0.9458,0.003 -0.88458,0.0536 1.11598,0.92165 1.51301,0.6565 2.46843,1.28437 3.35008,2.20156 1.88242,1.95833 2.12317,3.01518 2.27132,9.97043 0.0682,3.20146 0.23444,6.02919 0.36945,6.28385 0.33564,0.63309 1.20242,0.5829 1.5628,-0.0905 z m 3.31711,-8e-4 c 0.49446,-0.54637 0.49271,-0.5617 -0.1206,-1.05833 -0.87225,-0.70631 -1.57677,-0.64411 -1.77782,0.15694 -0.0912,0.36347 -0.0972,0.83972 -0.0133,1.05833 0.22166,0.57764 1.32927,0.48672 1.91176,-0.15694 z m -20.71249,-1.28075 c 0.24697,-0.41808 0.44902,-0.95386 0.44902,-1.19063 0,-0.49961 -0.61765,-0.80267 -1.18901,-0.58342 -0.3241,0.12437 -0.33968,0.27368 -0.0865,0.82924 0.23557,0.51702 0.23519,0.75107 -0.002,0.98788 -0.17067,0.17067 -0.31032,0.46136 -0.31032,0.64597 0,0.53345 0.64802,0.14125 1.13848,-0.68904 z m 60.9535,-0.12178 c -0.0779,-0.20313 -0.29185,-0.87037 -0.47532,-1.48275 -0.40555,-1.35361 -0.93994,-1.62054 -1.60357,-0.80099 -0.57074,0.70482 -0.43928,1.49529 0.36422,2.19005 0.65691,0.56802 1.92323,0.63721 1.71467,0.0937 z m -46.48646,-1.40942 c -0.35622,-0.72514 -0.3623,-0.72672 -0.46354,-0.12023 -0.14928,0.89439 0.14161,1.5379 0.52286,1.15665 0.2258,-0.2258 0.21089,-0.48638 -0.0593,-1.03642 z m 50.02581,0.97716 c 1.35154,-0.72332 1.73853,-3.2901 0.65883,-4.3698 -0.90882,-0.90882 -1.63146,-0.81206 -2.82128,0.37777 -1.29275,1.29275 -1.32419,2.0598 -0.13607,3.31958 0.92719,0.98311 1.43853,1.13271 2.29852,0.67245 z m -68.54622,-0.9182 c 0.12631,0.66269 0.18338,0.71238 0.3456,0.30094 0.1653,-0.41925 0.25764,-0.44026 0.61857,-0.14072 0.36656,0.30422 0.41086,0.28252 0.32572,-0.15954 -0.123,-0.63871 -1.31914,-1.3365 -1.90538,-1.11154 -0.2884,0.11067 -0.43474,0.46523 -0.42777,1.03642 l 0.0106,0.86819 0.44069,-0.79375 0.44069,-0.79375 0.15129,0.79375 z m 26.84079,-0.28348 c 0.83134,-0.83134 0.25523,-3.32341 -0.6849,-2.96265 -0.56027,0.215 -1.66233,2.42687 -1.46517,2.94066 0.21671,0.56475 1.59323,0.57883 2.15007,0.022 z m 34.49739,-0.18338 c 0.0998,-0.5183 -0.53364,-0.86114 -1.1524,-0.6237 -0.32579,0.12501 -0.34891,0.26761 -0.11444,0.70572 0.34219,0.63939 1.13783,0.58787 1.26684,-0.082 z m 15.50886,0.18338 c 0.51911,-0.51911 0.52678,-0.80793 0.0266,-0.99988 -0.50396,-0.19339 -1.21983,0.52248 -1.02644,1.02644 0.19195,0.50022 0.48077,0.49255 0.99988,-0.0266 z m 3.78692,-2.12999 c 1.458,-1.00416 1.72297,-1.42298 0.90023,-1.42298 -0.54754,0 -2.94846,1.73345 -2.94846,2.12878 0,0.47775 0.65998,0.25033 2.04823,-0.7058 z m -62.69463,-1.89057 c -0.0882,-0.98762 -0.0882,-0.98762 -0.44616,-0.27953 -0.43392,0.85841 -0.1694,2.52473 0.2748,1.731 0.14276,-0.25511 0.21987,-0.90827 0.17136,-1.45147 z m 65.81288,0.0469 c -0.21828,-0.52242 -0.86721,-1.54057 -1.44207,-2.26256 -0.57486,-0.722 -1.24299,-1.87214 -1.48473,-2.55589 -0.8883,-2.51251 -0.7835,-2.40064 -1.30476,-1.39262 -0.54201,1.04812 -0.44432,2.6884 0.26583,4.46322 0.40977,1.02412 0.52019,1.11019 1.42431,1.11019 0.74363,0 1.16359,0.19152 1.74056,0.79375 1.01108,1.05533 1.28474,1.00199 0.80086,-0.15609 z m -41.2654,-1.02289 c 0.53425,-0.81537 0.30833,-1.20226 -0.70208,-1.20226 -0.90344,0 -1.20696,0.50615 -0.7809,1.30224 0.39228,0.73298 0.96239,0.69454 1.48298,-0.1 z m 36.16551,0.49504 c 0.20243,-0.20243 -0.32014,-1.6973 -0.59333,-1.6973 -0.37867,0 -0.5357,0.82086 -0.25675,1.34209 0.27613,0.51595 0.56756,0.63773 0.85008,0.35521 z m -49.25627,-1.15025 c 0.66885,-0.66885 0.73644,-0.86242 0.48999,-1.40332 -0.15724,-0.3451 -0.52487,-0.7767 -0.81696,-0.95911 -0.86497,-0.54019 -1.47574,0.18005 -1.93212,2.2784 -0.18009,0.82802 -0.15607,0.8599 0.6481,0.8599 0.57086,0 1.08064,-0.24551 1.61099,-0.77587 z m 2.02374,-1.17857 c -0.0752,-0.88959 -0.40414,-2.32268 -0.73095,-3.18464 -0.54455,-1.43627 -0.62433,-1.526 -0.9549,-1.07391 -0.51786,0.7082 -0.45841,0.9902 0.44957,2.13275 0.68155,0.85762 0.80408,1.23121 0.7712,2.35149 -0.0514,1.75076 -0.0437,1.7907 0.30392,1.57586 0.19379,-0.11976 0.25011,-0.74938 0.16116,-1.80155 z m 52.86125,-0.476 c 0.14092,-1.02463 0.0688,-1.43535 -0.37941,-2.16055 -0.30437,-0.49249 -0.5534,-1.18498 -0.5534,-1.53889 0,-1.09183 0.43664,-1.27953 2.55922,-1.1001 1.71761,0.14519 1.9387,0.11221 1.9387,-0.28922 0,-0.7434 -0.49607,-1.44593 -1.32292,-1.87351 -1.80868,-0.9353 -1.57788,-2.51484 0.55963,-3.83006 1.20764,-0.74307 1.65515,-1.32931 1.01473,-1.32931 -1.31125,0 -5.47664,4.33065 -6.48374,6.74096 -0.36294,0.86864 -0.36217,1.12992 0.008,2.57316 0.51518,2.01094 1.99506,4.86639 2.2817,4.40259 0.11215,-0.18147 0.28222,-0.89925 0.37792,-1.59507 z m -26.99427,0.44606 c 0,-0.89472 -0.0916,-1.07135 -0.59275,-1.14254 -0.41879,-0.0595 -0.67915,0.1054 -0.88712,0.56184 -0.40123,0.88062 0.0995,1.83556 0.90246,1.72124 0.48356,-0.0688 0.57741,-0.25423 0.57741,-1.14054 z m -54.92655,0.68283 c 0.50512,-0.3198 0.22128,-3.34352 -0.45594,-4.85697 -0.83999,-1.87718 -1.36789,-2.17586 -3.84581,-2.17586 -1.67535,0 -2.39061,0.1235 -3.21337,0.5548 -1.4495,0.75985 -1.45258,1.21708 -0.0133,1.9806 l 1.19966,0.63641 1.65579,-0.59377 c 0.91069,-0.32657 1.92664,-0.59375 2.25766,-0.59372 1.28667,1.2e-4 1.40962,2.82481 0.17351,3.98608 -1.00345,0.94269 -0.83203,1.30625 0.61369,1.3016 0.69122,-0.002 1.42388,-0.10986 1.62813,-0.23917 z m 60.87746,-0.0144 c 0.72026,-0.45536 -0.16862,-0.93417 -1.70696,-0.91948 -1.49768,0.0143 -2.58134,0.54528 -1.94137,0.95125 0.47081,0.29865 3.16277,0.27521 3.64833,-0.0318 z m 5.49232,-1.26617 c 0.71157,-0.46517 0.77222,-0.85785 0.13229,-0.85649 -0.68007,0.001 -2.23665,1.02077 -2.04135,1.33677 0.18989,0.30724 1.02626,0.0968 1.90906,-0.48028 z m -49.84363,0.0665 c 0.23044,-0.60052 -0.43595,-2.37918 -0.89138,-2.37918 -0.29083,0 -0.41692,0.36817 -0.47569,1.38906 -0.0759,1.31879 -0.0472,1.38906 0.567,1.38906 0.35584,0 0.71587,-0.17952 0.80007,-0.39894 z m 36.30949,-0.92397 c 0.68889,-0.72761 1.38724,-1.32292 1.55188,-1.32292 0.37069,0 2.08689,-1.77109 2.50353,-2.58361 0.3554,-0.69309 0.27021,-0.751 -1.56534,-1.06405 -1.62864,-0.27776 -1.67748,-0.85811 -0.14766,-1.75464 0.66204,-0.38798 1.20371,-0.81947 1.20371,-0.95885 0,-0.51872 -2.50812,-0.36095 -3.49501,0.21985 -0.66041,0.38866 -0.75584,0.38663 -1.21145,-0.0257 -0.27202,-0.24617 -0.6201,-0.44758 -0.7735,-0.44758 -0.6598,0 -3.08628,6.57355 -2.81268,7.61979 0.12523,0.4789 0.87558,0.97363 2.20722,1.45529 0.89652,0.32428 1.34574,0.12304 2.5393,-1.13758 z m -42.24808,0.6871 c 1.14769,-1.38289 0.8135,-3.51103 -0.79452,-5.05953 l -1.09195,-1.05153 0.17544,0.83392 c 0.0965,0.45865 0.2711,1.78275 0.38801,2.94244 0.27045,2.68282 0.58031,3.22961 1.32302,2.3347 z m 9.65437,-0.288 c 0.20521,-0.81761 -0.50107,-2.60787 -0.96422,-2.4441 -0.63293,0.2238 -0.10202,3.10333 0.57218,3.10333 0.12462,0 0.30104,-0.29665 0.39204,-0.65923 z m 13.38566,-0.76935 c 0.92739,-0.43878 0.82499,-1.60384 -0.50927,-5.79412 -0.59302,-1.86244 -1.07823,-3.59479 -1.07823,-3.84969 0,-0.94829 -0.53934,-1.09844 -3.94557,-1.09844 h -3.31058 l 1.20605,1.25677 c 1.77624,1.85094 2.33126,2.76844 3.69245,6.10394 1.72777,4.2338 1.87576,4.36065 3.94515,3.38154 z m 24.85788,-0.31688 c 1.06773,-1.21608 0.97734,-1.80074 -0.29483,-1.90703 -0.75856,-0.0634 -1.05508,0.0482 -1.38687,0.52189 -0.50088,0.71511 -0.54556,1.57831 -0.10451,2.01935 0.51292,0.51292 0.89955,0.37564 1.78621,-0.63421 z m 12.0365,-0.1655 c 0.50143,-0.7159 0.52829,-2.80831 0.0442,-3.44594 -0.19295,-0.25416 -0.75471,-0.53784 -1.24836,-0.63041 -0.49365,-0.0926 -1.64825,-0.53586 -2.56578,-0.98511 -1.07074,-0.52426 -1.73408,-0.71799 -1.85208,-0.54092 -0.10112,0.15174 -0.37528,0.34628 -0.60925,0.43229 -0.97326,0.35782 -0.75286,3.37623 0.30936,4.23678 0.31435,0.25466 0.9453,0.46614 1.40212,0.46996 0.45682,0.004 1.30684,0.2323 1.88892,0.50775 1.4209,0.67238 2.13725,0.66029 2.63083,-0.0444 z m -56.62235,-1.13432 c 0.55174,-1.1627 0.36843,-1.79067 -0.72282,-2.4762 -0.46649,-0.29305 -1.17924,-0.79053 -1.58389,-1.10552 -0.71773,-0.55871 -0.70965,-0.52321 0.33073,1.45221 0.58655,1.11371 1.06645,2.32396 1.06645,2.68943 0,0.846 0.34241,0.6352 0.90953,-0.55992 z m 48.73075,0.50279 c 0.24247,-0.96604 -0.0623,-4.18641 -0.46539,-4.91851 -0.32625,-0.59245 -0.3398,-0.58201 -0.50498,0.38915 -0.0933,0.54887 -0.43551,1.28086 -0.76037,1.62665 -0.56834,0.60497 -0.57415,0.66058 -0.15386,1.47333 0.24023,0.46455 0.36824,1.02322 0.28448,1.2415 -0.21999,0.5733 0.053,0.87829 0.78604,0.87829 0.47003,0 0.68698,-0.184 0.81408,-0.69041 z m 21.26806,-0.63251 c 0,-0.51379 -0.45203,-0.95909 -0.71084,-0.70028 -0.0805,0.0806 -0.0691,0.45454 0.0254,0.83107 0.18922,0.75384 0.68549,0.65915 0.68549,-0.13079 z m -60.69996,-0.6731 c 0.48721,-1.16605 0.32631,-1.44356 -0.83696,-1.44356 -0.70739,0 -0.98128,0.14307 -1.20223,0.62799 -0.3956,0.86826 0.1,1.75326 0.98175,1.75326 0.51222,0 0.75595,-0.21612 1.05744,-0.93769 z m 19.33485,-0.25293 c 0.31904,-0.58209 0.82527,-1.68341 1.12497,-2.4474 0.75438,-1.92301 0.10397,-1.86791 -0.84735,0.0718 l -0.71647,1.46086 -1.9956,-0.0386 c -2.18015,-0.0422 -2.64317,0.135 -1.85623,0.71043 0.5038,0.36838 0.50317,0.37524 -0.0342,0.37524 -0.84963,0 -1.05629,-0.48684 -1.23547,-2.91042 -0.20449,-2.76604 -0.48125,-3.76484 -1.36383,-4.92196 -0.84342,-1.10578 -1.45242,-1.17536 -1.45242,-0.16595 0,1.75702 2.25857,8.71173 2.88612,8.88709 0.23165,0.0647 1.43125,0.0996 2.66578,0.0775 l 2.24462,-0.0402 z m -24.0399,-0.97896 c 0.81361,-0.81361 -0.1081,-2.8575 -1.28861,-2.8575 -0.80711,0 -0.91171,0.72967 -0.28849,2.01245 0.57459,1.18267 1.00751,1.41464 1.5771,0.84505 z m -23.63232,-1.69625 c 1.30692,-0.22084 2.43801,-0.46437 2.51354,-0.54118 0.24816,-0.25237 -3.17163,-3.2659 -3.70617,-3.2659 -0.4485,0 -0.52213,0.18219 -0.52213,1.29205 0,1.00582 -0.10258,1.32017 -0.46302,1.41892 -0.25466,0.0698 -0.68904,0.51888 -0.96529,0.99802 -0.50227,0.87117 -0.50227,0.87117 0.13229,0.6854 0.34901,-0.10217 1.70386,-0.36646 3.01078,-0.58731 z m 13.19378,-0.42567 c 0.20347,-0.77808 -0.0777,-1.8423 -0.45418,-1.71889 -0.33595,0.11014 -0.54732,1.35805 -0.32719,1.9317 0.21464,0.55934 0.60742,0.45236 0.78137,-0.21281 z m 51.87045,0.16882 c 0.0883,-0.23018 0.1606,-0.87045 0.1606,-1.42281 0,-1.48008 0.47459,-1.75934 2.26145,-1.33068 1.3874,0.33284 1.47685,0.32176 2.0957,-0.25962 l 0.64643,-0.60729 1.34746,1.21149 c 1.31416,1.18154 3.66814,2.29986 5.02604,2.38774 0.62842,0.0407 0.66089,-0.0267 0.65006,-1.3482 -0.007,-0.91312 -0.15767,-1.53728 -0.43712,-1.81673 -0.56184,-0.56184 -2.24378,-0.8678 -4.84315,-0.88101 -1.16417,-0.006 -4.0076,-0.14879 -6.31874,-0.31749 -3.89819,-0.28455 -4.26651,-0.27202 -5.09323,0.17319 -1.10704,0.59618 -1.13704,0.92576 -0.0843,0.92576 0.99758,0 2.26196,0.63018 2.62486,1.30826 0.14983,0.27997 0.27242,0.93358 0.27242,1.45247 0,0.86412 0.0644,0.94344 0.76544,0.94344 0.45391,0 0.83081,-0.17034 0.92605,-0.41852 z m -21.37224,-1.91312 c -0.39372,-0.39373 -0.42758,-0.37243 -0.42758,0.26893 0,0.38308 0.0814,0.90859 0.18085,1.16779 0.15231,0.39692 0.21978,0.35448 0.42758,-0.26893 0.1899,-0.56969 0.14824,-0.83871 -0.18085,-1.16779 z m -16.01186,0.45157 c 1.55551,-1.66518 0.75047,-3.32942 -1.74669,-3.61089 -1.72147,-0.19403 -2.41492,0.8825 -1.7296,2.68504 0.70169,1.84559 2.23552,2.2541 3.47629,0.92585 z m 18.90715,0.41644 c -0.55599,-0.42052 -1.47079,-0.525 -1.47079,-0.16797 0,0.40587 0.34645,0.57333 1.16858,0.56485 0.77457,-0.008 0.78984,-0.028 0.30221,-0.39688 z m -26.11985,-1.01821 c 0.12711,-0.66647 -0.38894,-0.94882 -1.74313,-0.9537 -1.34503,-0.005 -1.43176,0.34355 -0.26458,1.06276 1.02022,0.62866 1.87586,0.58218 2.00771,-0.10906 z m 28.20665,0.20175 c 0.23422,-0.0899 0.54118,-0.37889 0.68212,-0.64224 0.23598,-0.44093 0.14641,-0.46768 -1.13183,-0.33798 -1.01725,0.10321 -1.83812,-0.0115 -3.07261,-0.42931 -0.9265,-0.31358 -1.73643,-0.51825 -1.79986,-0.45482 -0.14312,0.14312 1.36724,1.08834 2.57991,1.61457 0.96401,0.41832 2.04618,0.51689 2.74227,0.24978 z m -33.71196,-2.45904 c 1.86002,-1.95528 2.34725,-4.93211 1.19472,-7.29942 -0.7134,-1.46532 -1.53404,-2.51354 -1.96782,-2.51354 -0.78321,0 -0.7097,4.63752 0.0951,5.99993 0.47398,0.80238 0.47398,0.80238 -0.75099,2.30631 -1.48282,1.82051 -1.59355,2.54168 -0.39026,2.54168 0.62651,0 1.0803,-0.25815 1.81925,-1.03496 z m 7.20177,0.10892 c -0.0977,-0.39058 -0.92909,-0.3216 -1.06576,0.0884 -0.0807,0.242 0.0788,0.32519 0.50712,0.26458 0.34363,-0.0486 0.59502,-0.20747 0.55864,-0.35299 z m 26.39219,-0.13229 c 0.54703,-0.54704 0.71411,-1.32292 0.28488,-1.32292 -0.34111,0 -1.87238,1.31752 -1.87238,1.61102 0,0.43995 1.05,0.24939 1.5875,-0.2881 z m 11.90625,-0.42151 c 0.96011,-0.36818 2.44564,-0.48683 7.67291,-0.61285 3.56526,-0.086 6.63112,-0.25259 6.81302,-0.37032 0.65617,-0.42468 0.30682,-1.01706 -0.92604,-1.57025 -0.99568,-0.44678 -1.93431,-0.58787 -4.51822,-0.6792 -1.79379,-0.0634 -3.16301,-0.20502 -3.0427,-0.31472 0.1203,-0.10969 0.84927,-0.40405 1.61991,-0.65413 l 1.40118,-0.45468 -0.71377,-0.9669 c -0.39257,-0.5318 -1.14216,-1.42019 -1.66576,-1.97421 l -0.95199,-1.0073 -0.13229,1.91587 -0.1323,1.91586 -2.51354,1.0082 c -1.38245,0.55451 -2.74553,1.10747 -3.02907,1.22879 -0.31637,0.13537 0.11803,0.17476 1.12448,0.10196 0.902,-0.0652 1.64001,-0.0461 1.64001,0.0425 0,0.0886 -0.92938,0.62842 -2.06528,1.19954 -2.02943,1.02037 -3.49246,2.17094 -2.30035,1.80904 0.29105,-0.0883 1.06495,-0.3661 1.7198,-0.61721 z m -41.09525,-0.7431 c 1.5162,-1.36319 3.02922,-3.86248 2.33827,-3.86248 -0.23398,0 -0.71489,-0.28948 -1.0687,-0.64329 -0.35381,-0.35381 -0.97348,-0.68123 -1.37704,-0.7276 -0.6135,-0.0705 -0.8855,-0.38562 -1.65979,-1.92294 -0.89444,-1.77589 -1.5875,-2.48611 -1.5875,-1.62681 0,0.22832 0.40713,1.18255 0.90473,2.12052 0.53926,1.01649 0.97932,2.3024 1.08938,3.18328 0.16721,1.33827 0.0788,1.98766 -0.55098,4.04861 -0.29291,0.95848 0.46264,0.73348 1.91163,-0.56929 z m 27.4692,-0.81977 c 0,-0.66911 -0.10329,-0.79375 -0.65783,-0.79375 -0.42425,0 -0.69056,0.1699 -0.74998,0.47848 -0.15459,0.80268 0.17281,1.28439 0.81132,1.19372 0.46756,-0.0664 0.59649,-0.25627 0.59649,-0.87845 z m -22.55573,0 c -0.0976,-0.39057 -0.92908,-0.3216 -1.06575,0.0884 -0.0807,0.24201 0.0788,0.3252 0.50712,0.26458 0.34363,-0.0486 0.59501,-0.20747 0.55863,-0.35299 z m 20.19125,-0.64866 c 1.2076,-1.11313 1.29921,-1.12143 3.3739,-0.30566 0.97212,0.38224 1.85475,0.38155 1.61816,-0.001 -0.3144,-0.50873 -2.99764,-1.55797 -3.98417,-1.55797 -0.71559,0 -1.13077,0.19925 -1.71225,0.82173 -0.67392,0.72143 -1.06587,2.08869 -0.59877,2.08869 0.0929,0 0.67928,-0.4705 1.30313,-1.04554 z m 35.30901,0.11479 c 0.4183,-0.50401 0.19385,-2.68187 -0.39342,-3.81753 -0.4947,-0.95665 -0.86411,-1.03672 -0.98114,-0.21266 -0.0782,0.5503 -0.23805,0.60113 -2.11473,0.67222 -1.72683,0.0654 -2.10242,3.4e-4 -2.51355,-0.43553 -0.57983,-0.61472 -3.65399,-2.29733 -4.58659,-2.51043 -0.36501,-0.0834 -0.82247,-0.0535 -1.01658,0.0665 -0.97616,0.6033 1.61197,2.49517 6.97049,5.09527 3.3316,1.61658 4.08727,1.80278 4.63552,1.14218 z m 4.9984,0.0559 c 0.89765,-0.31453 2.12088,-1.61519 1.81073,-1.92534 -0.36983,-0.36983 -5.08972,1.58401 -4.83237,2.00041 0.22255,0.36008 1.89857,0.31845 3.02164,-0.0751 z m -41.58095,-2.32571 c 3.7429,-1.8068 4.70094,-2.57597 2.83045,-2.27243 -1.97822,0.32102 -7.46446,3.23509 -7.74093,4.11167 -0.16683,0.52899 0.59811,0.24248 4.91048,-1.83924 z m 13.16302,1.34845 c 0,-0.63953 -0.0526,-0.65923 -1.5875,-0.59424 -1.52263,0.0645 -1.55905,0.0513 -0.89126,-0.32274 0.9702,-0.54341 1.18534,-1.19968 0.39328,-1.19968 -0.74703,0 -2.20444,0.48281 -2.99585,0.99247 -0.50289,0.32385 -0.53941,0.45477 -0.26458,0.94839 0.50834,0.91306 0.7238,0.97601 3.09696,0.90477 2.20449,-0.0662 2.24895,-0.0806 2.24895,-0.72897 z m -29.38193,0.0213 c 0.21353,-0.3455 -0.5915,-1.07966 -1.18389,-1.07966 -0.59093,0 -1.84564,0.5385 -1.84564,0.79212 0,0.39527 0.41261,0.5308 1.61599,0.5308 0.69476,0 1.33085,-0.10947 1.41354,-0.24326 z m -22.1126,-0.45122 c 1.70514,-0.34103 0.79325,-1.43788 -3.29945,-3.96869 -3.21657,-1.98904 -4.33977,-2.56936 -4.55548,-2.35364 -0.0912,0.0913 0.0987,0.66557 0.4222,1.27628 0.63525,1.19938 0.74077,1.90992 0.32205,2.1687 -0.14552,0.0899 -0.26458,0.55476 -0.26458,1.03294 0,0.91296 0.54832,1.59854 1.45521,1.81947 0.80104,0.19515 4.98095,0.21275 5.92005,0.0249 z m 52.99362,-1.1106 c -0.0518,-0.64158 0.1387,-1.75184 0.4597,-2.6794 0.81364,-2.35106 0.36303,-3.18839 -1.71584,-3.18839 -1.15108,0 -1.18711,0.46838 -0.0445,0.57855 0.73529,0.0709 0.87338,0.19792 0.95296,0.87666 0.0512,0.43656 -0.0546,1.58334 -0.23498,2.5484 -0.34637,1.85271 -0.18683,3.25108 0.35011,3.06872 0.20275,-0.0689 0.2884,-0.51251 0.23255,-1.20454 z m 26.35671,0.41461 c 1.42882,-0.6656 1.80065,-1.29972 1.37072,-2.33766 -0.17536,-0.42335 -0.48809,-0.76974 -0.69495,-0.76974 -0.48793,0 -2.9337,2.287 -3.13963,2.93582 -0.36784,1.15898 0.25164,1.20211 2.46386,0.17158 z m -76.17367,-0.84331 c 0.1628,-0.64653 0.296,-1.64565 0.296,-2.22028 0,-0.90531 -0.0921,-1.0679 -0.69003,-1.21796 -0.37952,-0.0953 -1.30066,-0.58441 -2.04699,-1.08702 -0.74633,-0.50261 -1.45731,-0.91383 -1.57995,-0.91383 -0.12265,0 -0.13933,0.38695 -0.0371,0.8599 0.38321,1.77245 2.74244,5.75468 3.4093,5.75468 0.19661,0 0.48378,-0.52035 0.64875,-1.17549 z m 29.55552,0.51598 c 0.27451,-0.41897 0.48335,-1.48053 0.57256,-2.91042 0.16744,-2.68392 0.50098,-2.55945 -4.35818,-1.62647 -4.23102,0.81237 -4.64078,1.16936 -3.4965,3.04628 0.57477,0.94278 0.79646,0.97173 3.17374,0.41439 0.52494,-0.12307 0.9321,0.0542 1.81097,0.78848 1.34232,1.12148 1.72011,1.16879 2.29741,0.28774 z m 24.93056,-0.6634 c 0.38308,-0.43657 0.90393,-0.79375 1.15745,-0.79375 0.79834,0 1.03129,-0.85599 0.6417,-2.35792 -0.19413,-0.74837 -0.43956,-1.44672 -0.54542,-1.5519 -0.2859,-0.28407 -3.80688,3.51336 -4.01076,4.32566 -0.34877,1.38964 1.63112,1.66103 2.75703,0.37791 z m 19.5084,-0.91402 c 0.81658,-0.81658 0.81969,-1.14984 0.0126,-1.3524 -0.87377,-0.2193 -1.74443,0.30027 -1.74443,1.041 0,1.15864 0.74976,1.29345 1.73181,0.3114 z m -32.95265,-0.0385 c 0,-1.27259 -3.14441,-3.01331 -4.73188,-2.61953 -0.91202,0.22623 -1.8827,1.15297 -1.8827,1.79747 0,0.47697 0.0648,0.46501 0.88988,-0.1643 1.70137,-1.2977 2.86566,-1.14504 4.51743,0.59232 0.86723,0.91216 1.20727,1.02315 1.20727,0.39404 z m -7.24128,-0.87497 c 0.19795,-0.98973 1.55872,-2.29244 2.74337,-2.62632 l 0.92604,-0.26099 -0.87044,-0.0239 c -1.81762,-0.0498 -3.75977,1.57113 -3.75977,3.138 0,0.84147 0.78417,0.65635 0.9608,-0.22683 z m 35.49778,-0.44803 c 0.13032,-0.23288 0.81106,-0.53068 1.51276,-0.66177 1.48286,-0.27702 1.71563,-0.43305 1.17933,-0.79051 -0.66083,-0.44047 -2.44781,-0.0325 -3.10497,0.70894 -0.3295,0.37173 -0.53084,0.78633 -0.44741,0.92132 0.22926,0.37095 0.59549,0.29518 0.86029,-0.17798 z m -73.90822,-1.12914 c 0.20968,-0.66064 -0.2779,-1.88703 -0.75022,-1.88703 -0.53814,0 -1.04747,1.55834 -0.66139,2.02354 0.42884,0.51672 1.22884,0.43936 1.41161,-0.13651 z m 29.6643,-1.34146 c 1.5898,-0.28202 3.24773,-0.57083 3.6843,-0.64181 0.43656,-0.071 -0.635,-0.073 -2.38125,-0.004 -3.89487,0.15288 -4.8948,0.31459 -4.8948,0.79157 0,0.47203 0.14451,0.46619 3.59175,-0.14533 z m -33.22508,-0.10623 c 0,-0.33379 -1.04854,-0.96851 -1.59995,-0.96851 -0.41367,0 -0.28613,0.57731 0.21089,0.95461 0.60265,0.45747 1.38906,0.46535 1.38906,0.0139 z m -5.7915,79.89704 c -0.39091,-0.47101 -0.71771,-4.25979 -0.45702,-5.29845 0.13819,-0.55058 0.33256,-0.69002 0.96189,-0.69002 0.43379,0 0.78871,-0.11447 0.78871,-0.25438 0,-0.33068 1.98937,-0.86506 2.73248,-0.734 0.45206,0.0797 0.25037,0.25653 -0.94445,0.82791 -2.00965,0.96103 -2.31298,1.44478 -2.33579,3.72508 -0.0102,1.02264 -0.10513,2.07926 -0.2109,2.34802 -0.17246,0.43827 -0.22764,0.44609 -0.53492,0.0758 z m 96.06135,-15.7119 c 0.0274,-2.69005 -0.0791,-3.78964 -0.52566,-5.4279 -0.51959,-1.90629 -0.54008,-2.84033 -0.0623,-2.84033 0.10786,0 0.39493,0.44648 0.63795,0.99219 1.464,3.28738 1.65784,10.64947 0.2804,10.64947 -0.29258,0 -0.3579,-0.66698 -0.33037,-3.37343 z m -96.09723,-16.09066 c -0.28108,-0.7393 -0.29577,-3.21518 -0.0266,-4.4807 0.11564,-0.54368 0.34869,-0.81945 0.73972,-0.87532 0.65024,-0.0929 0.75591,0.15633 1.00826,2.37816 0.17618,1.5512 0.42007,1.93942 1.32787,2.11367 0.44817,0.086 0.3679,0.21188 -0.52444,0.82222 -1.3516,0.92447 -2.18403,0.9383 -2.52482,0.042 z m 1.87783,-10.60179 c -1.09178,-1.38798 -0.45589,-2.31384 1.75916,-2.56135 0.75982,-0.0849 1.62302,-0.28364 1.91823,-0.44163 0.70909,-0.37949 0.6818,-1.16124 -0.0586,-1.67769 l -0.59531,-0.41527 0.5992,-0.0139 c 0.68635,-0.0159 1.64717,1.3328 1.64877,2.31437 0.002,1.16395 -1.52766,3.49258 -2.29409,3.49258 -0.46488,0 -0.44266,-0.25366 0.072,-0.8224 0.23254,-0.25695 0.34457,-0.59374 0.24897,-0.74843 -0.49027,-0.79328 -2.67571,0.16778 -2.43909,1.07261 0.18552,0.70945 -0.21831,0.61596 -0.8593,-0.19892 z m 95.13287,-5.71901 c 0.1804,-2.03139 0.49106,-2.95958 0.90496,-2.70377 0.35441,0.21904 0.3132,3.13835 -0.0558,3.94809 -0.16888,0.37065 -0.46737,0.67391 -0.66331,0.67391 -0.28152,0 -0.32051,-0.4024 -0.1859,-1.91823 z m -96.46171,-3.8778 c -0.43392,-0.81079 -0.3338,-1.34772 0.25131,-1.34772 0.40921,0 0.52916,0.17639 0.52916,0.77813 0,0.964 -0.40946,1.26282 -0.78047,0.56959 z m 64.70845,-0.84136 c -0.86001,-0.67649 -0.90031,-1.30011 -0.084,-1.30011 0.72366,0 1.24354,0.45805 1.24354,1.09563 0,0.72414 -0.40753,0.796 -1.15953,0.20448 z"
       id="path9425" />
  </g>
</svg>
