<?xml version="1.0" encoding="UTF-8" standalone="no"?>
<!-- Created with Inkscape (http://www.inkscape.org/) -->

<svg
   width="99.468079mm"
   height="98.552254mm"
   viewBox="0 0 99.468082 98.552247"
   version="1.1"
   id="svg5"
   inkscape:version="1.1 (c4e8f9ed74, 2021-05-24)"
   sodipodi:docname="ornatet2.svg"
   xmlns:inkscape="http://www.inkscape.org/namespaces/inkscape"
   xmlns:sodipodi="http://sodipodi.sourceforge.net/DTD/sodipodi-0.dtd"
   xmlns="http://www.w3.org/2000/svg"
   xmlns:svg="http://www.w3.org/2000/svg">
  <sodipodi:namedview
     id="namedview7"
     pagecolor="#ffffff"
     bordercolor="#666666"
     borderopacity="1.0"
     inkscape:pageshadow="2"
     inkscape:pageopacity="0.0"
     inkscape:pagecheckerboard="0"
     inkscape:document-units="mm"
     showgrid="false"
     inkscape:zoom="0.66903058"
     inkscape:cx="-187.58485"
     inkscape:cy="323.60255"
     inkscape:window-width="2506"
     inkscape:window-height="1403"
     inkscape:window-x="1974"
     inkscape:window-y="0"
     inkscape:window-maximized="1"
     inkscape:current-layer="layer1" />
  <defs
     id="defs2" />
  <g
     inkscape:label="Layer 1"
     inkscape:groupmode="layer"
     id="layer1"
     transform="translate(4.9868877,-223.46323)">
    <path
       style="fill:#000000;stroke-width:0.264583"
       d="m 4.0145189,321.87539 c -1.3253,-0.27144 -2.3678,-1.1505 -3.34806001,-2.8232 -0.36509,-0.62297 -0.71132,-1.13267 -0.76942,-1.13267 -0.0581,0 -0.4812,0.70466 -0.94023999,1.5659 -0.95569,1.79307 -1.94424,2.41784 -3.03749,1.91972 -1.68452,-0.76752 -0.8688,-4.90416 1.1991,-6.08078 0.98517,-0.56056 0.98949,-0.73836 0.0226,-0.93173 -0.44401,-0.0888 -1.01767,-0.50513 -1.36165,-0.9882 -0.64516,-0.90604 -0.64789,-0.87443 0.4098,-4.73684 0.2179,-0.7957 0.39618,-1.8515 0.39618,-2.34623 0,-0.69211 0.23685,-1.13636 1.02721,-1.92672 l 1.0272,-1.0272 h -1.1406 c -1.80522,0 -2.36631,-0.85155 -1.57253,-2.38655 0.72523,-1.40244 1.92083,-1.69588 2.79822,-0.68678 0.54024999,0.62134 0.57096999,0.62496 2.04139999,0.24098 3.46578001,-0.90504 3.99520001,-1.81203 0.89765001,-1.53783 -1.58105001,0.13995 -2.13081001,0.0999 -2.34510001,-0.1709 -0.46168999,-0.58342 -1.12745999,-3.81393 -1.65831999,-8.04658 -0.50809,-4.05113 -0.84864,-5.20832 -1.92774,-6.55029 l -0.6026,-0.7494 1.39431,-1.23498 c 1.69697,-1.50304 1.76299,-2.08507 0.53431,-4.71069 -0.71003,-1.5173 -0.8512,-2.13621 -0.85989,-3.76976 l -0.0104,-1.95442 1.5875,-0.44443 c 3.00364999,-0.84089 4.58796,-2.01805 2.30920999,-1.71577 -1.53948999,0.20422 -2.43443999,-0.16674 -2.45705999,-1.01847 -0.0147,-0.55443 -0.0325,-0.55936 -0.33073,-0.0916 -0.17334,0.27192 -0.52111,0.74817 -0.77281,1.05833 -0.39338,0.48475 -0.49499,0.50821 -0.72355,0.16707 -0.14625,-0.21828 -0.26773,-1.08829 -0.26996,-1.93335 -0.002,-0.84507 -0.1362,-2.06129 -0.29771,-2.70271 -0.24295,-0.96482 -0.19725,-1.64526 0.26458,-3.93991 0.30703,-1.52552 0.55885,-3.46445 0.5596,-4.30875 0.001,-1.16697 0.15766,-1.78885 0.6532,-2.5934 1.08148,-1.75589 0.84457,-2.9172 -0.69833,-3.42313 -0.88227,-0.28931 -0.88227,-0.28931 -0.85289,-2.28982 0.0477,-3.2503 0.75141,-5.861 1.95438,-7.25092 0.56032,-0.64741 1.09037,-1.4027 1.17789,-1.67844 0.29693,-0.93555 -0.30985,-1.8479 -1.69623,-2.55043 -1.41307,-0.71606 -1.51666,-0.95624 -1.07566,-2.4939 0.14161,-0.49376 0.32446,-1.48367 0.40634,-2.19981 0.0819,-0.71615 0.28671,-1.52279 0.45517,-1.79255 0.42302,-0.67736 2.11637,-1.58871 2.95193999,-1.58871 0.80253,0 0.80958,-0.0361 0.29552,-1.5116 -0.45226,-1.29813 -0.27167,-2.62896 0.40595,-2.99161 0.29609,-0.15846 1.18598001,-0.15801 2.41244001,10e-4 1.06881,0.13877 4.59862,0.25598 7.8440001,0.26048 5.27168,0.007 6.00502,0.0618 6.87917,0.51172 0.53815,0.27695 1.39518,0.69294 1.9045,0.92441 0.50933,0.23147 1.13248,0.5686 1.38479,0.74917 0.39712,0.2842 0.66614,0.12307 2.00268,-1.19952 l 1.54395,-1.52784 8.44835,0.2454 c 8.99617,0.2613 9.37419,0.31871 12.25628,1.86131 l 0.89751,0.48038 1.23666,-1.28301 c 1.0691,-1.10917 1.3777,-1.28267 2.27749,-1.28044 1.82313,0.005 5.45281,2.03775 5.82337,3.26206 0.2265,0.74834 1.12305,1.71916 2.01734,2.18446 1.02538,0.5335 1.09123,0.48598 0.90867,-0.65571 -0.21412,-1.33901 0.0378,-1.51661 2.47791,-1.74696 2.965851,-0.27998 5.04865,-0.77296 8.933774,-2.11456 1.930394,-0.66659 4.371175,-1.32388 5.423958,-1.46064 1.052779,-0.13675 5.515784,-0.25232 9.917789,-0.25681 l 8.003646,-0.008 -0.0013,2.57969 c -7.94e-4,1.41883 0.136287,4.06797 0.304461,5.88698 0.264906,2.86527 0.245367,3.66091 -0.146201,5.95312 -0.807259,4.72566 -2.841696,9.92188 -3.884636,9.92188 -0.434819,0 -0.255008,-0.82559 0.69932,-3.21085 0.517213,-1.29274 1.110459,-3.15297 1.318324,-4.13385 0.716507,-3.38103 0.387598,-10.02734 -0.683996,-13.82197 l -0.336232,-1.19063 -0.248642,0.99219 c -0.297956,1.18897 -0.676479,1.2457 -1.575954,0.23619 -0.848323,-0.9521 -2.598936,-1.18467 -6.529353,-0.86743 l -2.749859,0.22196 -1.145522,1.2299 c -1.279421,1.37367 -1.833935,1.57827 -1.584558,0.58466 0.08907,-0.35488 0.05485,-0.71143 -0.07605,-0.79233 -0.4275,-0.26421 -1.429623,0.80069 -1.497552,1.59137 -0.03649,0.42473 -0.316198,1.45388 -0.621578,2.28699 -0.899376,2.45361 -0.6834,6.34217 0.435489,7.8408 1.108919,1.48528 1.469461,0.852 0.602588,-1.05842 -1.193355,-2.62992 -0.436792,-5.81983 1.997559,-8.42235 1.746406,-1.86705 3.618212,-2.69289 6.47242,-2.85563 2.763457,-0.15756 3.211592,0.037 5.44353,2.36321 1.554972,1.62066 1.623187,1.74977 1.800812,3.40843 0.217837,2.03411 -0.213858,6.75117 -0.801494,8.75781 -0.590135,2.01517 -2.827251,6.19955 -4.511358,8.43821 -1.842225,2.44884 -1.783395,3.04285 0.157695,1.59221 0.790265,-0.59059 1.531662,-1.07381 1.647544,-1.07381 0.115885,0 0.410226,0.30452 0.65409,0.6767 0.243866,0.37219 0.892796,0.90597 1.442069,1.18619 1.11874,0.57074 1.321257,0.9814 1.259625,2.55425 -0.03375,0.86135 0.132374,1.30922 0.79679,2.14811 1.457098,1.83974 2.050997,4.39485 1.269836,5.46315 -0.447421,0.61188 -0.966179,0.3201 -0.966179,-0.54343 0,-0.87889 -1.058907,-2.89912 -2.232458,-4.25917 -1.16014,-1.34452 -2.429264,-1.96118 -8.086291,-3.9291 -2.401094,-0.83527 -5.734844,-2.14129 -7.408333,-2.90226 -3.625271,-1.64849 -4.124233,-1.81517 -7.503605,-2.50654 -4.388048,-0.89774 -4.767738,-0.56334 -1.031697,0.90861 1.326949,0.52281 2.078408,0.96953 2.135703,1.26964 0.10595,0.55495 -0.970444,0.63331 -2.305674,0.16785 -0.465707,-0.16235 -0.909447,-0.23247 -0.986094,-0.15583 -0.223446,0.22345 1.621075,2.13443 3.957822,4.10042 2.552314,2.14737 4.650079,3.60766 4.868606,3.38913 0.08591,-0.0859 -1.060659,-1.40694 -2.54794,-2.93561 -1.487284,-1.52867 -2.63048,-2.8986 -2.540439,-3.0443 0.09004,-0.14569 0.444423,-0.26489 0.787508,-0.26489 0.343088,0 0.668293,-0.13349 0.722675,-0.29664 0.188749,-0.56625 9.67201,2.32407 15.689204,4.78177 3.92312,1.60238 5.50155,3.48442 5.528066,6.59137 0.02439,2.85698 -0.810604,4.38346 -2.904381,5.30964 -1.146358,0.50709 -1.430129,0.88421 -0.9081,1.20684 0.906039,0.55997 4.008299,-2.30844 4.546266,-4.20356 0.487892,-1.71871 0.748329,-1.71884 0.748329,-2.6e-4 0,2.98969 -2.117407,5.12673 -5.685152,5.73786 -0.947751,0.16235 -1.720855,0.41982 -1.718016,0.57216 0.01455,0.78032 0.790802,6.05594 0.908364,6.1735 0.07516,0.0752 0.728697,-0.41714 1.452309,-1.09399 0.78722,-0.73635 1.563418,-1.23065 1.932509,-1.23065 0.339267,0 1.083915,-0.23812 1.654778,-0.52916 1.972709,-1.00575 2.363988,-0.58942 2.641245,2.81031 0.247894,3.03968 -0.216127,6.75512 -1.049925,8.4068 l -0.681802,1.3506 0.91662,2.64583 c 0.88048,2.54151 0.910566,2.75312 0.763027,5.3671 -0.147413,2.61172 -0.185312,2.74795 -0.941584,3.38431 -0.433392,0.36467 -0.74327,0.68792 -0.688617,0.71832 0.05465,0.0304 0.456557,0.23497 0.893119,0.4546 0.930688,0.46823 1.984375,2.37373 1.984375,3.58856 0,0.45818 -0.289716,1.25998 -0.643813,1.78177 -0.554075,0.81647 -0.62498,1.16274 -0.508709,2.48431 0.07431,0.84459 0.264324,1.80209 0.422261,2.12779 0.210646,0.4344 0.195699,1.07688 -0.0561,2.41137 -0.309557,1.64059 -0.295447,1.94438 0.143732,3.09435 0.300805,0.78765 0.48699,1.96556 0.48699,3.08096 0,2.59435 -0.158904,2.70474 -4.060042,2.82061 -3.442512,0.10224 -3.126909,0.2172 -4.848339,-1.76611 -1.285671,-1.48126 -3.443949,-0.91425 -4.820552,1.26643 -1.736386,2.75061 -2.716448,-0.32743 -1.32897,-4.17384 0.76591,-2.12328 0.814255,-2.65371 0.261215,-2.86594 -0.622393,-0.23883 -1.177129,0.39326 -2.157153,2.45794 -0.955074,2.01213 -2.484755,3.65856 -3.677163,3.95784 -0.380408,0.0955 -1.135576,0.0271 -1.678154,-0.15198 -0.870345,-0.28724 -1.106459,-0.26129 -2.005256,0.22044 -1.306407,0.70019 -3.081838,0.97108 -3.810103,0.58132 -0.380929,-0.20399 -0.559427,-0.55583 -0.559427,-1.1028 v -0.80328 l -0.923603,0.9793 c -0.770908,0.8174 -0.989615,0.92451 -1.322916,0.6479 -0.219623,-0.18227 -0.401138,-0.70378 -0.403365,-1.1589 -0.0021,-0.45512 -0.111932,-0.99798 -0.243787,-1.20634 -0.380352,-0.60105 -2.010708,0.0272 -4.236148,1.63245 -1.06158,0.76573 -2.24314,1.59996 -2.62568,1.85385 -0.62209,0.41288 -1.50587,0.46102 -8.36846,0.45585 -4.2201,-0.003 -8.80401,-0.12309 -10.18646,-0.26647 -6.16851,-0.63978 -5.98124,-0.63906 -6.76053,-0.0261 -1.28159,1.0081 -2.89668,0.70618 -7.45783,-1.39416 -4.22229,-1.94431 -5.3608,-1.91652 -5.3608,0.13084 0,0.73433 -0.14212,1.09269 -0.51178,1.29052 -0.7769,0.41579 -3.53383,0.33939 -4.13401,-0.11456 -0.6884,-0.52069 -1.31956,-0.50021 -2.89484,0.0939 -1.6093301,0.60698 -4.6092201,0.87141 -6.1969101,0.54624 z m 43.3708701,-2.48146 c 0,-0.4934 -1.25604,-1.47441 -1.88777,-1.47441 -0.81911,0 -0.56711,0.63473 0.55758,1.4044 0.79922,0.54694 1.33019,0.57489 1.33019,0.07 z M 8.0823189,318.93538 c 0.85553,-0.3898 0.8541,-0.69587 -0.005,-1.02241 -1.41382,-0.53753 -4.08382,-0.18614 -4.08382,0.53746 0,0.6327 2.9868,0.98696 4.0886,0.48495 z M 27.195169,318.8096 c 0.25318,-0.65976 -0.28717,-1.28696 -1.10874,-1.28696 -0.92585,0 -1.43826,0.70573 -0.94445,1.30074 0.46211,0.5568 1.83778,0.54757 2.05319,-0.0138 z m 16.22147,-1.03291 c 0,-2.27122 1.25958,-4.22107 3.82077,-5.91461 0.92849,-0.61395 0.97872,-0.69875 0.45878,-0.77454 -1.04181,-0.15185 -4.17866,2.18275 -4.95814,3.6901 -0.6819,1.31866 -0.38361,4.4648 0.42331,4.4648 0.1404,0 0.25528,-0.65959 0.25528,-1.46575 z m 6.61458,1.22365 c 0,-0.32479 -2.32914,-2.36135 -3.24114,-2.83399 -0.88178,-0.45698 -0.92449,-0.2099 -0.13098,0.75767 1.1767,1.4348 3.37212,2.78659 3.37212,2.07632 z m -9.07263,-0.58069 c 0.46749,-0.46749 -0.12087,-1.73983 -1.07108,-2.31623 -0.96641,-0.58622 -3.15877,-1.09432 -4.72178,-1.09432 -0.81333,0 -1.23296,0.16384 -1.69414,0.66146 -0.43388,0.46817 -0.88975,0.66146 -1.56,0.66146 -1.88772,0 -1.29965,1.61727 0.75606,2.07924 1.60237,0.3601 7.93282,0.36651 8.29094,0.008 z m 15.31204,-0.36642 c 2.15335,-0.81052 4.18167,-1.89713 4.78432,-2.56305 0.36354,-0.40171 0.0827,-0.34231 -1.43489,0.30347 -3.08777,1.31396 -3.23397,0.98221 -0.38175,-0.86633 0.97522,-0.63205 2.34591,-1.64612 3.045982,-2.25349 l 1.272863,-1.10431 -1.008279,0.009 c -1.634626,0.015 -4.874126,0.67207 -8.482776,1.72065 -3.55411,1.03272 -4.82863,1.55563 -4.82863,1.98108 0,0.4688 1.18472,0.26932 3.96875,-0.66825 3.13479,-1.05569 3.68578,-1.14462 3.15895,-0.50983 -0.45674,0.55034 -2.12456,1.39851 -4.08499,2.07743 -2.0356,0.70496 -2.16467,1.3712 -0.39688,2.0485 1.62471,0.62247 2.34472,0.59373 4.38733,-0.1751 z m 33.031792,0.24479 c 0.546666,-0.54667 0.333682,-0.90213 -1.798426,-3.00153 l -1.723427,-1.69698 -1.51435,1.14334 -1.514351,1.14335 1.421281,0.36373 c 0.837591,0.21436 1.969349,0.78856 2.755823,1.39818 1.501026,1.16349 1.782731,1.24063 2.37345,0.64991 z M 2.9353889,317.77893 c 0,-0.42246 -0.70316,-0.83194 -0.97014,-0.56497 -0.0845,0.0845 -0.0831,0.3373 0.003,0.56186 0.20291,0.52877 0.96703,0.53122 0.96703,0.003 z m 67.8917691,-0.91774 c 1.631571,-1.18948 2.183103,-1.45452 2.818124,-1.35425 0.452583,0.0715 0.145254,-0.49555 -0.615614,-1.13578 -1.026199,-0.86349 -1.429962,-0.86032 -2.243595,0.0176 -0.910331,0.98227 -2.23402,3.02279 -2.23402,3.44383 0,0.57588 0.368631,0.41849 2.275105,-0.9714 z m -54.519189,0.19035 c 0.69274,-0.47739 1.25331,-0.98341 1.24572,-1.12448 -0.008,-0.14107 -0.60517,-0.76444 -1.32796,-1.38525 l -1.31415,-1.12874 -1.35789,1.75894 c -1.63273,2.11497 -1.72374,2.57554 -0.46214,2.33886 0.53966,-0.10124 0.96658,-0.0534 1.07395,0.1203 0.29389,0.47553 0.81649,0.33414 2.14247,-0.57963 z m -17.3499201,0.0903 c 0.34445999,-0.64365 -0.0302,-0.92385 -0.93249,-0.69739 -0.61743,0.15497 -0.84609,0.65805 -0.47003,1.03411 0.35216,0.35216 1.13434,0.16437 1.40252,-0.33672 z m 93.6710871,0.14364 c 0,-0.46407 -1.737257,-2.01178 -2.258166,-2.01178 -0.596249,0 -0.472736,0.28744 0.592071,1.3779 1.008388,1.03269 1.666095,1.28292 1.666095,0.63388 z m -69.320827,-0.34554 c 0,-0.26155 -1.64608,-1.93083 -1.90399,-1.93083 -0.38078,0 -0.22405,1.1364 0.2252,1.63282 0.41863,0.46258 1.67879,0.68628 1.67879,0.29801 z m 52.382896,-0.99406 c 0.278167,-0.64894 0.590094,-1.6312 0.693171,-2.18281 0.243935,-1.30542 1.628605,-2.72307 2.658406,-2.72172 1.234541,0.002 2.379766,0.86973 2.584074,1.95878 0.22882,1.21972 0.660175,1.2012 1.815814,-0.0779 1.572525,-1.7406 1.541455,-3.46104 -0.107468,-5.95046 -1.2607,-1.90331 -1.580946,-2.03483 -4.962281,-2.0379 -4.459957,-0.004 -5.98768,0.86541 -6.765118,3.8502 -0.528185,2.02784 -0.516864,2.70339 0.0531,3.16862 0.254662,0.20787 1.158558,0.93652 2.008659,1.61923 1.600528,1.28538 1.60529,1.2983 1.090697,2.9586 -0.3424,1.10473 0.409096,0.63283 0.930942,-0.58459 z m -9.31028,-0.0123 c 0.975794,-0.66307 0.975794,-0.66307 1.39169,-0.1117 0.351694,0.46625 0.463827,0.4936 0.726416,0.1772 0.607814,-0.73237 1.111355,-2.66833 1.111355,-4.27282 0,-0.89588 0.180108,-2.27989 0.400238,-3.07559 0.751422,-2.71613 0.786085,-3.21232 0.251709,-3.60307 -0.299852,-0.21926 -1.203039,-0.35721 -2.338774,-0.35721 -2.268868,0 -3.863482,0.6883 -4.80515,2.07409 -0.625065,0.91986 -0.879565,2.15925 -0.443389,2.15925 0.114612,0 0.799221,-0.6046 1.521354,-1.34356 1.729838,-1.77013 3.358486,-2.73362 4.244795,-2.51117 1.119492,0.28097 0.723934,1.18226 -1.050615,2.39386 -1.612588,1.10101 -2.31502,2.16462 -1.691045,2.56056 0.186452,0.11832 0.785487,0.21694 1.33119,0.21917 0.863084,0.004 0.992188,0.0847 0.992188,0.62402 0,0.34098 -0.575239,1.4423 -1.278308,2.44739 -2.259,3.2294 -2.287881,3.28264 -1.780794,3.28264 0.242739,0 0.880451,-0.29838 1.41714,-0.66307 z M 8.2787189,315.35653 c 0.87163,-0.83508 0.93388,-1.14114 0.23212,-1.14114 -0.48391,0 -1.6067,1.13431 -1.6067,1.62318 0,0.44507 0.64181,0.21999 1.37458,-0.48205 z m 6.1790501,-3.88867 c 0.72608,-1.44851 0.91304,-2.13511 0.91304,-3.35313 0,-1.89136 -0.58965,-2.6952 -2.86771,-3.90939 -3.0845801,-1.64407 -3.6753701,-1.21198 -7.1749401,5.24755 -0.90664,1.67349 -1.87545,3.28851 -2.1529,3.58893 -0.68222,0.7387 -0.64802,0.82316 0.41398,1.0224 0.50514,0.0948 1.09286,0.42132 1.30605,0.72568 0.46236,0.66012 1.2151,0.47897 1.2151,-0.29241 0,-0.68831 1.30659,-2.16415 2.47123,-2.79136 0.87468,-0.47104 0.95186,-0.47282 1.6167101,-0.0372 1.15004,0.75353 1.3136,1.5647 0.75353,3.73708 -0.28742,1.11486 2.59731,-2.12553 3.50591,-3.93816 z m 4.88179,3.9372 c 0,-0.0733 -0.23813,-0.57754 -0.52917,-1.12056 -0.6636,-1.23814 -0.66419,-1.82879 -0.003,-2.91338 0.60769,-0.99668 1.14105,-1.07098 2.97345,-0.41422 1.36536,0.48936 1.66437,0.40281 1.40724,-0.40735 -0.10193,-0.32114 -0.50327,-0.60309 -1.01635,-0.71399 -1.10744,-0.23938 -3.3348,-1.35358 -4.08904,-2.04547 -0.45611,-0.4184 -0.59532,-0.83806 -0.59532,-1.79459 0,-1.28345 -0.36495,-1.71763 -1.18068,-1.4046 -0.33423,0.12826 -0.32885,0.2371 0.0395,0.79933 0.35758,0.54574 0.39868,1.13717 0.25447,3.66204 -0.0992,1.73682 -0.0649,3.29272 0.081,3.67644 0.42917,1.12882 2.6578,3.373 2.6578,2.67635 z m 6.74687,-1.85113 c 0,-0.74467 -0.0695,-0.79878 -1.12448,-0.8751 -1.29445,-0.0937 -1.50113,0.36616 -0.57904,1.28825 0.80624,0.80624 1.70352,0.58863 1.70352,-0.41315 z M 0.94272889,313.39148 c 0.97053001,-0.57263 1.57595001,-1.35669 1.27780001,-1.65484 -0.0919,-0.0919 -0.8765,-0.16708 -1.74356001,-0.16708 H -1.0995111 l 0.16536999,0.82682 c 0.0909,0.45476 0.16536,0.99054 0.16536,1.19063 0,0.5203 0.6179,0.44971 1.71151,-0.19553 z M 91.027724,312.95862 c 0.151548,-0.5457 0.276209,-1.85539 0.277019,-2.91041 0.0016,-1.97126 -0.193924,-2.3962 -1.429854,-3.10886 -0.645472,-0.37219 -0.191254,-1.4646 1.168895,-2.81122 1.086292,-1.07549 1.308166,-1.5544 0.720138,-1.5544 -0.745212,0 -4.376264,1.13817 -5.613389,1.75954 -0.905733,0.45492 -1.558817,0.61495 -2.082343,0.51025 l -0.762746,-0.15255 0.901094,1.12419 c 1.50676,1.87981 1.82562,2.53285 2.2025,4.51079 0.306891,1.61061 0.505714,2.03223 1.302867,2.76276 0.731269,0.67016 1.174435,0.8621 1.990492,0.8621 0.987708,0 1.066075,-0.0587 1.325327,-0.99219 z m -49.961315,0 c -0.13869,-0.25466 -0.68312,-0.87765 -1.20984,-1.38442 -0.89025,-0.85654 -1.09722,-0.92845 -2.94037,-1.02152 -2.22994,-0.11261 -3.85344,0.21407 -5.29716,1.06588 l -0.97992,0.57817 1.03095,0.36862 c 1.66711,0.59607 3.21863,0.79212 6.53036,0.82517 2.89434,0.0289 3.10006,-0.002 2.86598,-0.4319 z m 12.40439,-0.86417 c 3.50951,-1.14542 5.44194,-2.06796 5.08318,-2.42671 -0.3773,-0.3773 -2.89532,-0.60131 -4.1382,-0.36815 -1.12158,0.21041 -5.44289,3.01856 -5.44289,3.537 0,0.48514 1.4917,0.23901 4.49791,-0.74214 z m -10.58333,-0.007 c 0,-0.15175 -0.56184,-0.87657 -1.24853,-1.6107 -1.08446,-1.15938 -1.32604,-1.63596 -1.83837,-3.62669 -0.43663,-1.69657 -0.59446,-2.05136 -0.6076,-1.36586 -0.0252,1.31449 -0.35366,1.69762 -1.42913,1.66714 -1.22884,-0.0348 -1.61137,-0.2772 -1.20682,-0.76465 0.17041,-0.20533 0.48054,-0.37332 0.68919,-0.37332 0.20864,0 0.61471,-0.53206 0.90237,-1.18236 0.28765,-0.6503 0.6836,-1.27538 0.87987,-1.38907 0.21098,-0.1222 0.53154,-1.31739 0.78415,-2.92372 0.75306,-4.78864 2.0701,-10.37658 2.60637,-11.05834 0.70284,-0.89351 1.56134,-0.81147 3.18325,0.30421 2.77349,1.90782 11.73559,5.5913 12.27982,5.04707 0.33593,-0.33593 -0.31268,-0.69312 -1.75544,-0.96674 -2.81596,-0.53403 -8.57491,-3.46504 -10.90725,-5.55123 -0.91911,-0.82211 -1.07688,-1.08693 -0.81052,-1.36052 0.1819,-0.18685 0.33073,-0.73262 0.33073,-1.21284 0,-1.01418 0.37618,-1.10948 1.66678,-0.42222 0.69895,0.37219 1.82166,0.4696 6.4318,0.55807 5.271,0.10114 5.65781,0.0751 6.87916,-0.46327 2.944791,-1.29801 4.569488,-3.09448 5.151781,-5.69644 0.494215,-2.20839 -0.02154,-3.88204 -1.715003,-5.56526 -1.542848,-1.53352 -3.212528,-2.20296 -5.979108,-2.39727 l -1.71979,-0.12078 2.64583,0.73261 c 4.386964,1.21471 5.281343,1.9979 5.751695,5.03663 0.39098,2.52595 0.06037,3.58978 -1.597573,5.14059 -2.872752,2.68713 -7.741722,3.31513 -14.737452,1.90086 -2.67463,-0.54071 -2.94477,-0.69141 -3.14412,-1.75406 -0.0897,-0.47786 -0.69114,-1.51268 -1.33665,-2.2996 -0.64552,-0.78693 -1.68735,-2.38847 -2.3152,-3.55899 -1.20961,-2.25513 -4.36305,-5.76439 -5.43083,-6.04362 -0.69448,-0.18161 -1.56218,0.37275 -1.28513,0.82104 0.10722,0.17349 0.66119,0.60977 1.23105,0.9695 0.82913,0.52341 1.03609,0.81246 1.03609,1.44707 0,0.4789 0.21781,0.97541 0.54988,1.25346 0.30243,0.25323 0.86798,0.99621 1.25677,1.65105 0.66713,1.12366 0.70565,1.37278 0.68486,4.42888 l -0.022,3.23824 0.88715,-1.31734 c 0.48793,-0.72454 1.16568,-1.49985 1.5061,-1.7229 1.06403,-0.69718 2.04392,0.13801 1.09039,0.92937 -0.61184,0.50778 -0.47904,1.05834 0.25527,1.05834 0.72404,0 1.28941,0.78188 1.03839,1.43604 -0.21097,0.54976 -1.13278,0.53382 -1.34657,-0.0233 -0.144,-0.37526 -0.19963,-0.35541 -0.38147,0.13615 -0.11708,0.3165 -0.51373,0.68985 -0.88144,0.82965 -0.43374,0.16491 -0.66857,0.45743 -0.66857,0.83281 0,0.5726 -1.2013,2.87406 -1.50018,2.87406 -0.0852,0 -0.0788,-0.47625 0.0143,-1.05833 0.0931,-0.58208 0.10726,-1.05833 0.0315,-1.05833 -0.0757,0 -0.84389,0.6492 -1.707,1.44268 -2.5114,2.3088 -5.20503,3.43208 -8.9811,3.74524 -6.74301,0.55922 -12.7177,-2.89635 -12.72688,-7.36081 -0.005,-2.31092 2.47891,-5.99632 3.81503,-5.66097 0.50096,0.12573 0.68428,0.0395 0.81905,-0.38509 0.27457,-0.86509 1.70368,-2.34814 2.80333,-2.90914 1.93049,-0.98486 4.34886,-0.40521 5.33832,1.27951 0.51821,0.88234 0.481,1.145 -0.86771,6.12652 -0.29284,1.08156 -0.53242,2.42904 -0.53242,2.99439 0,0.91912 0.058,1.00951 0.54773,0.85407 0.41471,-0.13163 0.58285,-0.0396 0.69232,0.37904 0.24234,0.9267 0.69761,0.6428 0.49233,-0.30701 -0.50016,-2.31427 -0.46584,-2.81941 0.38136,-5.61274 0.71115,-2.34475 0.82399,-3.05719 0.67416,-4.25638 -0.17374,-1.39053 -0.13271,-1.52213 1.18792,-3.81039 1.61353,-2.79575 1.63434,-3.75267 0.0302,-1.39054 -1.57714,2.32244 -2.06502,2.58407 -4.65663,2.49708 -1.88357,-0.0632 -2.30961,0.016 -3.71506,0.69057 -3.24177,1.55602 -6.35909,4.50176 -7.39977,6.99246 -0.65883,1.57681 -0.5332,4.3312 0.27116,5.94536 1.37477,2.75879 4.06355,4.40005 7.96669,4.86294 3.97724,0.47168 11.16769,-0.22271 12.69951,-1.2264 0.57588,-0.37733 0.72365,-0.37024 1.74782,0.0838 0.61532,0.27281 1.29263,0.70657 1.50514,0.96391 0.81849,0.99116 0.0216,6.20965 -1.41733,9.28166 -0.96826,2.06713 -3.40038,4.89694 -4.65561,5.41688 -0.77242,0.31994 -1.11134,1.05915 -0.48562,1.05915 0.17056,0 1.31777,-0.18882 2.54937,-0.4196 3.17622,-0.59517 3.63984,-0.45027 5.59375,1.74823 1.56587,1.76188 2.1301,2.17787 2.1301,1.57045 z m -4.71851,-20.64261 c -0.86719,-0.34757 -0.59265,-0.84852 0.69162,-1.262 0.71264,-0.22944 1.15483,-0.55258 1.26725,-0.92605 0.42209,-1.40225 0.99209,-2.29342 1.46687,-2.29342 0.67617,0 0.62772,0.55413 -0.19162,2.19161 -1.2003,2.39882 -1.83719,2.84975 -3.23412,2.28986 z M 2.1416389,309.44863 c 1.15436,-0.58404 1.705,-1.18365 3.04271,-3.31324 0.58208,-0.92666 1.52224,-2.3418 2.08924,-3.14476 1.40286,-1.98663 1.16194,-2.27034 -1.9232,-2.26487 -2.87503,0.005 -3.19784,0.18308 -2.15107,1.18595 1.61535,1.54761 0.71416,3.11547 -2.07291,3.6064 -1.24391001,0.21911 -1.63060001,0.39365 -1.63060001,0.73597 0,0.24681 -0.47625,1.43358 -1.05833999,2.63725 -0.58208,1.20367 -1.05833,2.23661 -1.05833,2.29542 0,0.15428 3.66824,-1.18447 4.7625,-1.73812 z m 27.8265601,1.15395 c 0.64878,-0.58714 0.61014,-0.93874 -0.1853,-1.68602 l -0.66917,-0.62864 -0.85219,0.8622 -0.85219,0.8622 0.62462,0.51407 c 0.76444,0.62914 1.29992,0.65023 1.93423,0.0762 z m -3.27323,-2.79003 c 0.59295,-0.59295 0.3649,-1.71225 -0.49655,-2.43711 -1.32018,-1.11086 -2.36095,-0.78467 -2.36095,0.73995 0,1.48863 1.92357,2.63109 2.8575,1.69716 z m -4.67711,-1.02504 c 0.36817,-1.31748 0.26428,-2.09705 -0.27948,-2.09705 -0.36142,0 -0.53617,0.21359 -0.59531,0.72761 -0.213,1.85114 0.4501,2.88919 0.87479,1.36944 z m 21.28657,0.0505 c 0.99614,-0.60745 2.39592,-2.66645 2.79838,-4.1163 0.16397,-0.59069 0.31127,-3.19754 0.32733,-5.79299 l 0.0292,-4.71901 -0.75924,-0.65332 c -0.96097,-0.82692 -2.02299,-0.75263 -2.46408,0.17236 -0.38229,0.80168 -1.842,8.99226 -2.08966,11.72531 -0.20201,2.22916 0.1822,3.88283 0.90172,3.88122 0.24338,-5.3e-4 0.80873,-0.22431 1.25634,-0.49727 z m 12.54762,-0.172 c 0,-0.22312 -0.28888,-0.97576 -0.64196,-1.67253 -0.78327,-1.54571 -1.38615,-3.8293 -1.61672,-6.12388 -0.34616,-3.44488 -0.42719,-3.58537 -2.73834,-4.74739 l -2.06486,-1.03819 -0.17882,4.54644 c -0.21255,5.40376 -0.43084,6.49429 -1.63563,8.17127 l -0.91237,1.26995 h 4.89435 c 4.22131,0 4.89435,-0.0558 4.89435,-0.40567 z m 3.75514,-0.51391 c -0.0966,-0.82772 0.0576,-1.0914 1.54432,-2.63963 l 1.651667,-1.72004 -2.317977,-2.4536 c -2.26058,-2.39286 -3.66675,-3.33946 -4.49092,-3.0232 -0.31101,0.11935 -0.40681,0.58113 -0.40681,1.96091 0,2.18977 0.56023,4.46698 1.44295,5.8653 0.76136,1.20607 2.23228,2.92984 2.50008,2.92984 0.10123,0 0.13574,-0.41381 0.0767,-0.91958 z m -28.21707,-0.25902 c 0.74342,-0.74341 0.91345,-2.26098 0.25332,-2.26098 -0.59506,0 -2.5143,1.84117 -2.5143,2.41204 0,0.75986 1.44672,0.66321 2.26098,-0.15106 z m 3.21206,-0.47504 c 1.93495,-2.04318 3.16498,-5.15146 3.43924,-8.69096 0.14713,-1.8987 0.12114,-2.03448 -0.46838,-2.4474 -1.21858,-0.85352 -1.30015,-0.67647 -1.30015,2.82211 0,3.97238 -0.38768,5.46532 -1.85086,7.12758 -1.57878,1.79359 -1.41516,2.8732 0.18015,1.18867 z m 30.831776,-1.65317 c 0.79407,-0.36353 2.177676,-0.73768 3.07468,-0.83144 0.897006,-0.0937 1.630918,-0.259 1.630918,-0.36721 0,-0.10821 -0.404947,-0.3889 -0.899882,-0.62377 -1.18151,-0.56066 -3.417779,-0.56614 -3.879747,-0.009 -0.190579,0.22963 -0.919533,0.70788 -1.619898,1.06279 -0.700363,0.3549 -1.273389,0.74248 -1.273389,0.8613 0,0.77722 1.146085,0.74162 2.967318,-0.0922 z m -36.273896,-0.42828 c 1.09951,-1.0995 0.10369,-4.28841 -1.04239,-3.33803 -0.92307,0.76546 -1.47915,3.43855 -0.77447,3.72289 0.69253,0.27944 1.2762,0.15581 1.81686,-0.38486 z m -8.00625,0.0599 c 0.51061,-0.32354 0.16469,-1.19812 -0.79247,-2.00351 -0.96068,-0.80836 -1.28637,-0.67771 -1.28637,0.51603 0,1.37134 1.0624,2.13152 2.07884,1.48748 z m 65.135757,-0.69573 c 0.723667,-0.36671 1.855232,-0.74068 2.514587,-0.83106 1.183568,-0.16223 1.192109,-0.17058 0.670888,-0.65617 -0.29037,-0.27052 -0.919877,-0.49608 -1.398905,-0.50123 -0.479026,-0.005 -1.168615,-0.17953 -1.532417,-0.3875 -1.141074,-0.6523 -1.498896,-0.49927 -1.820674,0.77862 -0.369393,1.467 -0.377354,2.26409 -0.02262,2.26409 0.15036,0 0.86547,-0.30004 1.589135,-0.66675 z m -2.926223,-0.64563 c 0.625668,-1.22641 0.685311,-2.20187 0.161224,-2.63682 -0.423421,-0.35141 -0.49195,-0.27064 -0.934008,1.10079 -0.175165,0.54343 -0.607518,1.21541 -0.960784,1.49328 -0.898306,0.70661 -0.800307,1.09054 0.27836,1.09054 0.806188,0 0.987128,-0.13028 1.455208,-1.04779 z m -66.187324,-0.263 c 0.11305,-1.15569 -0.37248,-1.65834 -0.7197,-0.74506 -0.30085,0.79128 -0.0915,1.85608 0.33724,1.71557 0.16337,-0.0535 0.33548,-0.49027 0.38246,-0.97051 z m 56.519833,0.65775 c -0.282474,-0.21365 -0.736529,-0.39225 -1.009007,-0.39688 -0.410588,-0.007 -0.43902,0.0596 -0.166042,0.38846 0.181158,0.21829 0.635212,0.39688 1.009007,0.39688 0.654394,0 0.660559,-0.0144 0.166042,-0.38846 z m 4.969116,-0.21046 c -0.726414,-0.77324 -1.381665,-2.35042 -1.381665,-3.32565 0,-0.42161 0.238125,-1.0693 0.529167,-1.43929 0.56461,-0.71779 0.685403,-1.25072 0.283482,-1.25072 -0.868844,0 -1.602571,1.92584 -1.604923,4.2125 -0.0019,1.75787 0.482386,2.40208 1.805443,2.40208 0.931156,0 0.931156,0 0.368496,-0.59892 z m -64.281829,-0.39327 c 0.98382,-1.09169 0.75801,-2.97656 -0.35659,-2.97656 -1.28322,0 -2.37755,2.25778 -1.51324,3.12208 0.46112,0.46113 1.38815,0.38899 1.86983,-0.14552 z m 10.51267,-0.0661 c 0.57511,-0.57512 0.69627,-1.83921 0.25527,-2.66323 -0.555,-1.03703 -3.43027,-0.4482 -3.43027,0.70248 0,0.70417 1.58789,2.48991 2.21405,2.48991 0.23748,0 0.6699,-0.23812 0.96095,-0.52916 z m 39.131957,-1.58511 c -2.062947,-1.09035 -3.817417,-3.87211 -3.608917,-5.722 0.2324,-2.06178 2.198817,-4.63781 3.23637,-4.23966 0.721442,0.27684 0.421301,1.22858 -0.719693,2.28214 -0.963407,0.88958 -1.052707,1.05818 -0.64361,1.21517 0.753706,0.28922 1.708537,-0.40382 2.332684,-1.69314 0.525356,-1.08525 0.541337,-1.24935 0.182578,-1.87493 -0.819809,-1.42956 -3.080419,-0.30541 -4.297559,2.13708 -0.83253,1.67065 -0.85601,2.39915 -0.1391,4.31527 0.84527,2.25918 2.701921,4.12205 4.080493,4.09416 0.389215,-0.008 0.27728,-0.14384 -0.423246,-0.51409 z m 10.549963,-0.39927 c 0.144365,-1.57947 0.366157,-2.05177 1.565746,-3.33422 0.670928,-0.71728 1.149393,-1.37462 1.063255,-1.46076 -0.08614,-0.0861 -0.803249,0.21336 -1.593583,0.66554 -0.790331,0.45218 -1.72013,0.82327 -2.066218,0.82463 -0.837047,0.003 -3.294769,1.43178 -3.806111,2.21218 -0.491358,0.74991 -0.27678,1.45079 0.494065,1.61378 0.311372,0.0658 0.804253,0.17269 1.095295,0.23746 0.291042,0.0648 1.124479,0.0992 1.852083,0.0764 1.266799,-0.0396 1.325994,-0.075 1.395468,-0.83506 z m 5.970897,-0.26487 c 1.596427,-2.52692 2.636346,-2.75843 5.774862,-1.28562 1.977864,0.92816 2.076561,0.94711 2.723729,0.52307 0.964441,-0.63193 0.837888,-1.09433 -0.585269,-2.13844 -1.855118,-1.36102 -3.344846,-1.79592 -5.046471,-1.47321 -2.044415,0.38771 -2.296777,0.606 -3.194976,2.76357 -1.224603,2.94163 -1.051029,3.79364 0.328125,1.61063 z m -70.278147,-0.38937 c 1.01667,-0.61989 1.29302,-1.49447 0.87369,-2.76505 -0.34198,-1.03622 -2.4576401,-3.063 -3.1973101,-3.063 -0.25865,0 -0.68837,-0.0786 -0.95494,-0.17466 -0.4095,-0.14758 -0.39234,-0.0731 0.11066,0.48007 0.32742,0.36011 0.59531,0.84678 0.59531,1.0815 0,0.81168 -2.00472,1.94263 -4.33373,2.44484 -0.73656,0.15882 -0.70881,0.19015 0.83546,0.94356 1.50428,0.73389 3.93886,1.51978 4.82119,1.55629 0.21828,0.009 0.78063,-0.21757 1.2496701,-0.50355 z m 57.620116,0.12507 c 0,-0.14552 -0.535781,-0.44317 -1.190625,-0.66145 -1.881682,-0.62723 -2.395442,-1.02315 -2.947686,-2.27159 -0.572037,-1.29319 -1.171895,-1.49543 -1.934885,-0.65234 -0.45008,0.49733 -0.43109,0.55906 0.534215,1.7371 1.335945,1.63034 2.539532,2.2509 4.216064,2.17375 0.727604,-0.0335 1.322917,-0.17994 1.322917,-0.32547 z m -46.949196,-1.44042 c 1.48345,-0.98239 2.10232,-1.48212 2.10232,-1.6976 0,-0.28224 -2.18776,-0.16042 -3.1681,0.1764 -0.94366,0.32422 -1.65558,1.30369 -1.41095,1.9412 0.22349,0.58239 1.21764,0.41381 2.47673,-0.42 z m -3.59068,-1.06432 c 0.65414,-1.29088 0.86579,-2.39005 0.46021,-2.39005 -0.53753,0 -1.32863,0.85866 -1.47767,1.60385 -0.15086,0.75433 0.0109,2.10032 0.2524,2.10032 0.0545,0 0.39881,-0.59135 0.76506,-1.31412 z m 11.94861,0.91388 c 0.21634,-0.56375 -0.33944,-1.13606 -1.38305,-1.42422 -1.24267,-0.34312 -1.96214,-0.10421 -1.96214,0.65155 0,0.79307 0.63929,1.15478 2.05882,1.16486 0.77264,0.005 1.18162,-0.1192 1.28637,-0.39219 z m 4.77369,-0.17505 c 0.70306,-0.66048 0.80671,-1.83841 0.21393,-2.43119 -0.6404,-0.64039 -1.46818,-0.79654 -1.90532,-0.3594 -0.56862,0.56861 -0.54375,2.17532 0.0437,2.82447 0.62019,0.6853 0.888,0.6798 1.64767,-0.0339 z m -20.31982,-0.37257 c 0.7754,-0.98577 0.90209,-1.58526 0.55638,-2.63277 -0.40214,-1.21849 -1.36767,-1.69361 -4.3528601,-2.14193 -3.29652,-0.49509 -3.71779,-0.43505 -1.84164,0.26249 3.2061701,1.19202 4.3453101,2.30782 4.3453101,4.25631 0,1.14095 0.51625,1.24314 1.29281,0.2559 z m 76.885963,-4.5926 c -0.156027,-0.62166 -0.185356,-0.6034 -0.632391,0.39376 -0.257826,0.57511 -0.666237,1.20906 -0.907579,1.40878 -0.64884,0.53694 -0.546298,0.86941 0.553371,1.79423 l 0.992198,0.83443 0.07901,-1.88965 c 0.04345,-1.03931 0.0054,-2.18301 -0.08461,-2.54155 z m -23.770137,2.78485 c -0.240096,-2.04283 -0.385812,-2.31348 -1.195043,-2.21964 -1.090546,0.12647 -1.100373,1.46945 -0.01976,2.70021 1.16686,1.32898 1.415893,1.23046 1.214797,-0.48057 z m 3.78437,0.26053 c 0.172728,-0.20812 0.276603,-0.8332 0.230836,-1.38906 -0.07305,-0.8871 -0.174125,-1.02108 -0.826823,-1.09592 -0.408982,-0.0469 -0.902047,0.0462 -1.095698,0.20695 -0.380174,0.31552 -0.683125,1.78746 -0.478671,2.32571 0.172276,0.45353 1.783771,0.41813 2.170356,-0.0477 z m -66.5456761,-0.52293 0.89074,-0.37218 -0.63933,-1.33588 c -0.35163,-0.73473 -0.89545,-1.51528 -1.20849,-1.73454 -0.56449,-0.39538 -0.56519,-0.40749 -0.0849,-1.47265 0.47027,-1.04289 0.47009,-1.08439 -0.006,-1.43268 -0.37795,-0.27637 -0.5244,-0.83196 -0.63807,-2.42072 -0.15072,-2.10644 -0.52594,-2.73036 -1.05147,-1.74839 -0.72951001,1.36309 -0.57136001,7.0102 0.27547,9.83668 0.35608,1.18848 0.89183,1.33652 2.46225,0.68036 z m 71.2382681,-1.25953 c 0.433255,-0.40702 1.052314,-0.60832 2.133719,-0.69383 0.837864,-0.0662 1.679096,-0.24523 1.869405,-0.39775 0.81769,-0.6553 1.658012,-3.89146 2.159106,-8.3149 0.298789,-2.63757 0.199239,-3.24931 -0.528754,-3.24931 -0.616275,0 -2.020718,1.17913 -2.493573,2.09353 -0.415304,0.80311 -0.649179,6.4143 -0.306046,7.34267 0.284691,0.77024 -0.56446,1.26029 -1.540677,0.88913 -0.801899,-0.30488 -0.848244,-0.87143 -0.281906,-3.44617 0.62257,-2.83037 0.455565,-5.66314 -0.26512,-4.49704 -0.09023,0.14599 -0.272786,1.31637 -0.405675,2.60083 -0.132887,1.28445 -0.538909,3.56317 -0.902269,5.0638 -0.79403,3.27925 -0.685943,3.78122 0.56179,2.60904 z m 13.060357,0.0388 c 1.324459,-0.67569 1.334703,-1.05296 0.02859,-1.05296 -1.256355,0 -2.684124,-0.91175 -3.020988,-1.92917 -0.194977,-0.58888 -0.105283,-1.02315 0.442624,-2.14304 0.377936,-0.77247 0.687154,-1.48434 0.687154,-1.58193 0,-0.0976 -0.461751,0.0581 -1.026109,0.34604 -1.912941,0.97591 -4.011139,4.01968 -3.567637,5.17542 0.165603,0.43156 1.077757,0.80903 3.138538,1.29881 2.111264,0.50177 2.112539,0.50172 3.317833,-0.11317 z m -71.289265,-0.83122 c 0.18716,-0.30283 -0.77073,-1.28007 -1.25472,-1.28007 -0.41918,0 -0.56602,0.7821 -0.22417,1.19399 0.38928,0.46906 1.21258,0.51697 1.47889,0.0861 z m 44.94198,-5.59243 c -1.06041,-0.23337 -5.24319,-0.0712 -6.03894,0.2342 -0.59567,0.22858 -0.62166,3.95514 -0.0335,4.79494 0.85713,1.22372 1.40518,0.97133 4.3526,-2.00449 l 2.767413,-2.79409 z m -34.09278,3.81387 c -0.56019,-0.61899 -2.55985,-1.20276 -3.30734,-0.96552 -0.85075,0.27002 -0.67113,0.89239 0.30301,1.04993 1.74493,0.28221 2.19682,0.34281 2.81913,0.37805 0.60688,0.0344 0.61545,0.013 0.1852,-0.46246 z m 40.830056,-0.18649 c 0.948182,-0.79784 1.009158,-1.1731 0.295545,-1.81891 -0.615304,-0.55685 -1.611447,-0.39324 -2.398641,0.39395 -0.630566,0.63057 -0.66253,1.1383 -0.106662,1.69417 0.597316,0.59731 1.278597,0.51431 2.209758,-0.26921 z m -15.511696,-1.23325 c 0.0836,-0.9095 0.0594,-1.7479 -0.0536,-1.86309 -0.28599,-0.2914 -3.67247,-0.79489 -4.13995,-0.6155 -0.44729,0.17165 -0.50016,1.03723 -0.1081,1.76981 0.22544,0.42123 3.42102,2.30378 3.98808,2.34941 0.0889,0.007 0.23005,-0.73112 0.3136,-1.64063 z m -22.41743,1.0949 c 0.34269,-0.55448 -0.76037,-0.95637 -1.44124,-0.52512 -0.50902,0.32241 -0.12742,0.81928 0.62921,0.81928 0.34663,0 0.71204,-0.13237 0.81203,-0.29416 z m 57.723131,-0.52048 c 0.391028,-0.76639 0.435356,-2.00229 0.0797,-2.2221 -0.354242,-0.21894 -1.284232,0.76767 -1.487672,1.57824 -0.180034,0.71731 0.293174,1.54396 0.79013,1.38028 0.16006,-0.0527 0.438092,-0.38411 0.617847,-0.73642 z m -74.151711,0.0308 c 0.0866,-0.14006 -0.17052,-0.8842 -0.5713,-1.65364 -1.91578,-3.67798 -0.24121,-8.3607 4.22089,-11.80319 0.78939,-0.60901 2.05689,-1.44723 2.81665,-1.86271 l 1.38138,-0.75542 -1.09539,-0.14692 c -0.60247,-0.0808 -1.58079,-0.46815 -2.17405,-0.86075 -1.99147,-1.31789 -3.646,-1.3657 -3.646,-0.10535 0,0.76782 -0.97547,2.56301 -1.56376,2.87786 -0.27704,0.14826 -0.81644,1.08799 -1.19867,2.0883 -0.99344,2.5998 -2.13294,3.80562 -4.7985901,5.07788 -2.53621,1.21049 -2.62544,1.3594 -2.62544,4.38146 0,2.68183 0.15969,2.81497 3.15188,2.62768 1.3224,-0.0828 3.0592101,-0.0439 3.8595801,0.0865 2.03789,0.33186 2.0672,0.33249 2.24282,0.0483 z m 59.565886,-0.69075 c 0.233365,-0.9298 -0.277122,-1.41348 -0.685824,-0.64981 -0.329485,0.61564 -0.19671,1.33064 0.2471,1.33064 0.147317,0 0.344741,-0.30637 0.438724,-0.68083 z m -53.606626,-0.23841 c 0,-0.2166 -1.62951,-0.97902 -1.77707,-0.83147 -0.36425,0.36425 0.23964,0.95696 0.97502,0.95696 0.44112,0 0.80205,-0.0565 0.80205,-0.12549 z m 3.44488,-0.27412 c 1.06246,-0.54942 1.24875,-0.99744 1.72036,-4.13735 0.23176,-1.54303 0.69465,-3.35476 1.06233,-4.15787 0.82961,-1.81211 0.82267,-2.50928 -0.0317,-3.18131 -1.62115,-1.27519 -2.54268,-1.06115 -4.84865,1.1262 -0.95926,0.90992 -2.23707,2.03368 -2.83956,2.49724 -1.44497,1.11177 -2.08723,2.73083 -1.9753,4.97946 0.0302,0.60581 0.79059,1.00232 2.44578,1.27528 0.52939,0.0873 1.24377,0.43451 1.5875,0.77157 0.6513,0.63865 1.53139,1.20453 1.89487,1.21835 0.11637,0.004 0.55933,-0.17178 0.98435,-0.39157 z m 11.46146,-0.39221 c 1.44914,-1.27236 2.09285,-3.10919 2.23455,-6.37624 0.0981,-2.26221 0.0356,-2.9835 -0.32413,-3.74164 -0.52482,-1.10598 -4.14275,-4.70071 -4.73104,-4.70071 -0.28307,0 -0.49736,0.4609 -0.70733,1.52135 -0.16567,0.83675 -0.70999,3.32167 -1.2096,5.52206 -0.96155,4.23492 -1.11855,6.07697 -0.57765,6.77757 0.18191,0.23561 0.86305,0.56769 1.51366,0.73797 0.65062,0.17027 1.42125,0.47651 1.71252,0.68053 0.76011,0.5324 1.07571,0.46881 2.08902,-0.42089 z m 36.416093,-1.31811 c 0.596437,-0.59644 0.884579,-1.52156 0.755994,-2.42722 -0.07174,-0.50526 -0.23204,-0.6119 -0.852792,-0.56733 -0.828273,0.0595 -1.908495,0.91838 -2.162823,1.7197 -0.210481,0.66317 0.555644,1.79728 1.214117,1.79728 0.287687,0 0.758164,-0.23509 1.045504,-0.52243 z m -4.206065,-0.68678 c 1.052496,-0.95249 0.336973,-3.81787 -0.953373,-3.81787 -0.838941,0 -1.626116,0.79465 -2.303016,2.3249 -0.536662,1.21322 -0.536662,1.21322 0.08873,1.71963 0.750027,0.60734 2.374545,0.4911 3.167655,-0.22666 z m -67.95379811,-1.04623 c -0.10247,-0.90912 -0.0226,-1.32121 0.33195,-1.71301 0.43677,-0.48262 0.43864,-0.55901 0.029,-1.18414 -0.24081,-0.36753 -0.67322,-0.66824 -0.96090999,-0.66824 -0.42971,0 -0.52307,0.18032 -0.52307,1.01031 0,1.1753 0.71154999,3.75219 1.03608999,3.75219 0.122,0 0.16111,-0.5387 0.0869,-1.19711 z M 89.354335,285.59074 c 1.067475,-0.72 1.409795,-1.66413 0.817957,-2.25597 -0.647399,-0.6474 -1.503154,-0.24134 -3.231698,1.53346 l -1.5875,1.62998 1.547109,-0.14785 c 0.983242,-0.094 1.877684,-0.37082 2.454132,-0.75962 z M 53.479719,264.80449 c 0.005,-10.44112 0.11729,-20.18518 0.24977,-21.65347 0.27112,-3.00499 0.81333,-4.64576 1.73477,-5.24951 0.6958,-0.4559 3.83543,-0.83412 8.854461,-1.06667 6.177065,-0.28619 7.14375,-0.41362 7.14375,-0.94171 0,-0.41235 -0.345845,-0.49356 -2.711979,-0.63686 -1.491589,-0.0903 -13.606202,-0.25926 -26.921352,-0.37539 -21.77881,-0.18994 -24.31223,-0.2557 -25.23388,-0.65496 -0.56347,-0.24411 -1.1951,-0.44383 -1.40362,-0.44383 -0.39772,0 -1.58896,2.4245 -1.86199,3.78965 -0.14162,0.70807 -0.10303,0.77333 0.34556,0.58436 1.44355,-0.60808 4.66537,-0.75387 17.17372,-0.77709 12.99381,-0.0241 13.53269,-0.005 14.54472,0.50412 1.30434,0.65674 1.87493,1.62498 2.26089,3.83646 0.18952,1.08593 0.37921,8.74106 0.51466,20.76979 0.20825,18.49248 0.29288,20.15828 1.04789,20.6249 0.38095,0.23544 2.35113,0.60992 3.39382,0.64507 l 0.85989,0.029 0.009,-18.98385 z m 6.31652,18.02821 c -0.70422,-0.84853 -2.0921,-1.00027 -2.0921,-0.22873 0,0.43628 0.42008,0.60778 1.55375,0.63431 0.79158,0.0185 0.85234,-0.0272 0.53835,-0.40558 z m 26.843468,0.2715 c 0.474946,-0.18225 2.266059,-2.49752 2.939357,-3.79954 0.462476,-0.89433 0.460558,-0.91626 -0.121407,-1.38751 -0.815223,-0.66012 -1.236376,-0.60117 -1.777248,0.24879 -0.601766,0.94566 -0.859451,1.11553 -1.699607,1.12043 -1.078529,0.006 -1.402355,0.57784 -1.008364,1.77975 0.300551,0.91686 0.989082,2.19305 1.183196,2.19305 0.04412,0 0.261956,-0.0697 0.484073,-0.15497 z M 7.8879789,281.93795 c 1.09696,-0.48524 2.7296501,-1.58919 2.3503401,-1.58919 -0.0972,0 -0.7774101,0.30436 -1.5115201,0.67636 -3.94712,2.00016 -7.29381,0.47678 -9.36762001,-4.26406 l -0.91898999,-2.10085 1.32155999,-1.14829 c 0.72686,-0.63157 1.32156001,-1.31618 1.32156001,-1.52136 0,-0.48546 -0.0873,-0.47335 -1.11809001,0.15512 -0.47646,0.2905 -1.13791999,0.52863 -1.46989999,0.52917 -0.84748,0.001 -0.93162,0.44481 -0.48804,2.5722 0.586,2.81048 2.33484999,6.00773 3.68209,6.7316 1.6026,0.86107 4.19854,0.84402 6.19861,-0.0407 z m 66.6243611,0.51588 c 0.477298,-0.77228 -1.522825,-1.41923 -2.491406,-0.80586 -0.285131,0.18056 -0.196112,0.32564 0.396875,0.64681 0.889034,0.48152 1.850133,0.5545 2.094531,0.15905 z m -17.180081,-2.00141 c 0.51274,-1.34259 0.2241,-2.48491 -0.62787,-2.48491 -0.79119,0 -1.11692,0.56062 -1.11692,1.92239 0,2.5887 0.86454,2.86742 1.74479,0.56252 z m -11.00521,-2.30205 c 0,-4.86843 0.0354,-4.81307 -3.07449,-4.81307 -2.32296,0 -2.32296,0 -2.93914,-0.91033 -0.77131,-1.1395 -1.01903,-2.0898 -0.68723,-2.63635 0.14093,-0.23214 1.43838,-1.01738 2.88324,-1.74499 1.95563,-0.98482 2.627,-1.45282 2.627,-1.83123 0,-0.36394 -0.72343,-0.92754 -2.54713,-1.98437 -4.06004,-2.35279 -7.25164,-5.11884 -9.05274,-7.84568 -1.2543,-1.899 -3.29519,-3.02309 -5.48869,-3.02309 -0.70467,0 -2.50583,0.23776 -4.00258,0.52836 -1.49675,0.2906 -2.75112,0.52873 -2.78751,0.52917 -0.0364,5.3e-4 -0.0661,0.10247 -0.0661,0.22674 0,0.12426 1.14754,0.74439 2.55009,1.37807 2.86737,1.29549 3.07092,1.55695 3.38596,4.34911 0.2922,2.58971 0.54476,3.10536 1.86351,3.80474 0.65308,0.34635 2.08114,1.44442 3.17347,2.44015 1.3014,1.18631 2.12718,1.75626 2.39546,1.65331 0.6313,-0.24226 1.24972,-1.64556 1.05939,-2.40393 -0.16727,-0.66645 -0.16727,-0.66645 -0.74914,-0.12134 -0.43781,0.41015 -0.6965,0.48069 -1.04489,0.28492 -1.08311,-0.60863 -0.0644,-2.08597 1.4384,-2.08597 0.5413,0 0.89558,0.25054 1.39634,0.98746 0.83519,1.22909 0.83631,1.55683 0.01,2.77354 -0.3638,0.53539 -0.66146,1.11689 -0.66146,1.29224 0,0.17535 1.0418,1.40422 2.31511,2.73082 1.34063,1.39675 2.83846,3.30092 3.55848,4.52387 0.68386,1.16152 1.58304,2.42714 1.99817,2.81248 0.41513,0.38534 0.97502,1.18901 1.2442,1.78594 0.26918,0.59692 0.64992,1.08532 0.8461,1.08532 0.2826,0 0.3567,-0.7866 0.3567,-3.78589 z m 15.55132,3.05828 c 0.962759,-0.84317 1.460591,-3.32132 0.799934,-3.98198 -0.781704,-0.7817 -3.106144,0.10026 -3.700144,1.40395 -0.38577,0.84668 0.107,1.86205 1.23952,2.55406 0.97517,0.59587 1.00716,0.59633 1.66069,0.024 z m 16.150884,-1.0867 c 0.107588,-0.72083 -1.041744,-1.23963 -1.821606,-0.82226 -0.669086,0.35809 -0.649938,0.92234 0.04788,1.41111 0.711872,0.49861 1.65831,0.18441 1.773724,-0.58885 z M 8.4808389,279.92036 c 0.9785,-0.82335 1.5983001,-1.93465 1.5983001,-2.86576 0,-0.99011 -0.5778101,-0.83574 -1.7886501,0.47785 -1.27549,1.38375 -1.74158,2.19846 -1.54732,2.70469 0.21699,0.56547 0.81978,0.45558 1.73767,-0.31678 z m 60.7428541,0.3089 c 1.709541,-0.71429 1.767093,-2.86631 0.09971,-3.72855 -1.473943,-0.7622 -2.898309,0.68775 -2.522328,2.56764 0.31465,1.57326 0.836845,1.82349 2.422615,1.16091 z m -65.8410641,-0.7404 c 0.29672,-0.32742 0.86408,-1.16001 1.26079,-1.85021 0.86313,-1.50164 2.97279,-3.90448 3.42808,-3.90448 0.17851,0 0.96848,-0.48042 1.75548,-1.0676 2.9242201,-2.18176 6.3136201,-3.30599 11.2018301,-3.71553 3.50518,-0.29367 4.13158,-0.50828 4.13158,-1.41558 0,-1.12804 -0.80786,-1.17697 -6.8029,-0.41203 -2.29752,0.29315 -4.54075,0.59965 -4.98496,0.6811 -0.71577,0.13125 -0.8645,0.0425 -1.30735,-0.77979 -0.64481,-1.19734 -0.51591,-1.46569 2.24211,-4.66765 2.2159,-2.57259 3.63257,-4.66289 3.35101,-4.94445 -0.24197,-0.24197 -0.77228,0.27443 -4.51233,4.39402 -5.8906301,6.4884 -7.0152901,7.79849 -7.4223201,8.64606 -0.21647,0.45078 -1.24384,1.9935 -2.28304,3.42828 -2.02113,2.79049 -2.54770001,3.71972 -2.26695,4.00047 0.097,0.097 0.48585,-0.11189 0.86416,-0.46414 0.85036,-0.79177 4.34141,-6.01206 5.16143,-7.71805 0.62361,-1.2974 1.29239,-1.66712 1.29239,-0.71447 0,0.73222 -0.53118,1.71468 -2.78236,5.14624 -1.69303,2.58075 -3.30306,5.41374 -3.30306,5.81204 0,0.32202 0.47191,0.10249 0.97641,-0.45423 z m 5.76486,-9.20335 c -0.093,-0.15052 0.0632,-0.71606 0.34717,-1.25677 0.50088,-0.95375 0.5577001,-0.98196 1.9024401,-0.94453 1.41003,0.0392 2.35048,0.5677 2.00502,1.12666 -0.0986,0.15948 -0.48083,0.28997 -0.84947,0.28997 -0.36864,0 -0.97298,0.23812 -1.34298,0.52917 -0.72308,0.56877 -1.7871001,0.7006 -2.0621801,0.2555 z m -2.99757,7.88043 c 0.86169,-1.19353 1.93622,-2.18319 3.8618201,-3.55683 4.30608,-3.07175 5.08316,-3.43203 8.40177,-3.89523 1.60073,-0.22342 3.26761,-0.46081 3.70417,-0.52752 0.43656,-0.0667 -0.46596,-0.072 -2.0056,-0.0118 -1.76524,0.0691 -3.42681,0.3041 -4.49791,0.63629 -3.95746,1.22736 -10.2552601,6.066 -10.9506001,8.41343 -0.31019,1.04718 0.25868,0.64213 1.48635,-1.05834 z m 67.6349281,0.97719 c 1.00593,-0.70458 0.681657,-2.64516 -0.517096,-3.09452 -0.570235,-0.21376 -0.91889,0.22132 -1.144365,1.42802 -0.192191,1.02856 0.183983,2.07838 0.74473,2.07838 0.180782,0 0.593313,-0.18535 0.916731,-0.41188 z m -61.857678,-2.82927 c 0.002,-0.25466 -0.11501,-0.46302 -0.26053,-0.46302 -0.14552,0 -0.26276,0.38695 -0.26053,0.8599 0.003,0.65252 0.0659,0.76418 0.26053,0.46302 0.14106,-0.21828 0.2583,-0.60524 0.26053,-0.8599 z m 68.250321,0.74716 c 0.172233,-0.20753 0.276109,-0.89214 0.230836,-1.52136 -0.07725,-1.07359 -0.134507,-1.14908 -0.929984,-1.22603 -1.292985,-0.12507 -1.930456,0.33698 -1.930456,1.39922 0,1.40408 1.812145,2.33315 2.629604,1.34817 z m 2.971959,-0.0606 c 0.516882,-0.46778 0.643159,-1.28452 0.237373,-1.53531 -0.31092,-0.19215 -1.076436,0.87664 -1.076436,1.5029 0,0.5857 0.218361,0.59414 0.839063,0.0324 z m -26.84777,-0.83028 c 0.41016,-0.26073 1.40634,-2.48026 1.23652,-2.75503 -0.20202,-0.32688 -1.80789,-0.24715 -2.1624,0.10736 -0.38993,0.38993 -0.41345,1.65467 -0.0436,2.34572 0.29707,0.55508 0.4811,0.6124 0.96948,0.30195 z m 5.2918,-1.27175 c 0.10542,-0.31625 -1.02467,-0.89967 -1.74266,-0.89967 -0.60602,0 -1.26322,1.3159 -0.80014,1.6021 0.38921,0.24054 2.41502,-0.31907 2.5428,-0.70243 z M 1.9998489,273.93257 c 1.43936,-1.63591 2.86887,-4.37803 2.74365,-5.26292 -0.06,-0.42361 -0.29117,-0.65274 -0.71986,-0.71335 -0.7705,-0.10895 -1.07703,0.32539 -1.09001,1.5445 -0.0124,1.161 -0.6967,2.67586 -1.94331001,4.30177 -1.08007,1.40869 -1.12287,1.51906 -0.58899,1.51906 0.207,0 0.92633001,-0.62507 1.59852001,-1.38906 z m 73.8234281,0.43004 c 0.538085,-0.53808 0.422089,-1.52001 -0.193419,-1.63732 -0.25455,-0.0485 -0.776623,0.15862 -1.160161,0.46031 -0.383537,0.3017 -1.068236,0.55817 -1.521555,0.56995 -0.824214,0.0214 -0.824214,0.0214 0.234119,0.52223 1.307862,0.61889 2.082089,0.64376 2.641016,0.0848 z m -46.660358,-1.24014 c 0.77116,-0.4816 0.82796,-0.97584 0.11214,-0.97584 -0.85729,0 -3.05634,0.9667 -3.05634,1.34356 0,0.36955 2.20453,0.0942 2.9442,-0.36772 z m -6.10173,0.0825 c 0.92122,0 2.09298,-1.37516 2.77202,-3.25319 0.65983,-1.82488 0.838,-2.97959 0.41987,-2.72117 -0.12662,0.0783 -0.50261,0.87064 -0.83553,1.76086 -0.33292,0.89023 -0.98752,2.02385 -1.45466,2.51917 -0.80428,0.85278 -0.94482,0.90058 -2.64815,0.90058 -0.98934,0 -1.72828,0.0705 -1.64209,0.1567 0.31467,0.31468 2.19026,0.87623 2.53282,0.75832 0.1938,-0.0667 0.57887,-0.12127 0.85572,-0.12127 z m 59.769056,-0.51178 c 0.347726,-0.64973 0.354287,-1.78856 0.01154,-2.00039 -0.661348,-0.40874 -1.979449,1.76966 -1.413328,2.33578 0.351795,0.35179 1.134219,0.1646 1.401802,-0.33539 z m -11.072069,-0.0216 c 2.23352,-0.62041 3.266249,-1.81303 4.35397,-5.02806 0.90156,-2.66478 1.059484,-4.22328 0.531418,-5.24445 -0.723818,-1.39971 -0.947674,-0.98844 -0.949237,1.74394 -7.94e-4,1.41883 -0.133581,3.05555 -0.295043,3.63715 -0.411924,1.4838 -2.122053,3.09361 -4.069106,3.8304 -1.458457,0.55191 -1.73609,0.57609 -3.415474,0.29747 -2.142538,-0.35546 -4.192678,-1.39041 -5.093311,-2.5712 -0.975954,-1.27954 -1.678444,-3.57031 -1.671864,-5.45179 0.01,-2.74782 1.421412,-5.0886 3.562177,-5.90617 1.517959,-0.57971 2.834444,-0.35037 3.538754,0.6165 0.287676,0.39491 0.608412,0.63266 0.712742,0.52833 0.338437,-0.33844 -0.691964,-1.56291 -1.653148,-1.96452 -0.858777,-0.35882 -1.091859,-0.34393 -2.816529,0.17992 -2.247082,0.68253 -3.350066,1.70439 -4.021406,3.72561 -1.30016,3.91439 1.52345,10.12558 5.192147,11.42138 1.342584,0.4742 4.68793,0.57603 6.09391,0.18549 z m -26.621747,-0.68833 1.32292,-0.19745 -1.80128,-0.19607 c -0.9907,-0.10783 -2.11417,-0.40107 -2.49659,-0.65165 -0.69531,-0.45558 -0.69531,-0.45558 1.36546,-1.49247 1.13343,-0.57029 2.00058,-1.09709 1.92701,-1.17066 -0.19358,-0.19358 -4.062,1.45771 -4.417,1.88545 -0.38084,0.45889 0.30026,1.88749 0.98703,2.07026 0.47414,0.12619 0.7635,0.10319 3.11245,-0.24741 z m 16.89652,-0.4319 c -0.11018,-0.1819 -0.57876,-0.86651 -1.04128,-1.52135 -0.46252,-0.65485 -1.04283,-1.58828 -1.28957,-2.07429 -0.44863,-0.88366 -0.44863,-0.88366 -2.08319,-0.69813 -0.89901,0.10204 -1.78339,0.3059 -1.96529,0.45303 -0.41569,0.33623 -0.4343,1.95956 -0.0254,2.2123 0.16796,0.1038 1.37164,0.40263 2.67485,0.66407 1.30321,0.26143 2.62431,0.65354 2.93578,0.87134 0.70044,0.48981 1.059919,0.53192 0.79407,0.093 z m 17.868779,-0.60452 c 1.029634,-1.17269 1.098034,-2.41752 0.190788,-3.47226 -0.552772,-0.64263 -0.710459,-0.69635 -1.281017,-0.43639 -1.244827,0.56719 -2.210689,3.59444 -1.404151,4.40098 0.711075,0.71108 1.590111,0.53757 2.49438,-0.49233 z m -7.787947,-0.47982 c 0.641311,-0.46894 0.306113,-0.96618 -0.651311,-0.96618 -0.899033,0 -1.231932,0.39807 -0.784133,0.93763 0.398227,0.47984 0.807152,0.48797 1.435444,0.0285 z m -25.786732,-0.7109 c 0,-0.33728 -0.98116,-0.32961 -1.19062,0.009 -0.0899,0.14552 -0.0897,0.38397 5.3e-4,0.52988 0.19341,0.31308 1.19009,-0.13846 1.19009,-0.53919 z m 22.754171,-0.68977 c 0,-0.52934 -0.724919,-0.74576 -1.193993,-0.35646 -0.480095,0.39844 -0.508569,1.09921 -0.06278,1.54506 0.264602,0.26463 0.42331,0.21645 0.79375,-0.24098 0.254661,-0.31447 0.463021,-0.74089 0.463021,-0.94762 z m -39.075021,0.33444 c 0.14059,-0.36637 -0.27041,-0.95828 -0.66539,-0.95828 -0.11642,0 -0.21167,0.29765 -0.21167,0.66145 0,0.70791 0.63663,0.92337 0.87706,0.29683 z m 34.633812,-1.13634 c -0.295637,-0.41139 -0.905589,-1.09768 -1.355447,-1.52509 -0.66172,-0.62869 -0.817927,-0.68833 -0.817927,-0.31226 0,0.54896 1.433615,2.7089 1.915038,2.88526 0.653182,0.2393 0.788601,-0.31002 0.258336,-1.04791 z m 9.905458,-0.24318 c 0.302032,-0.46096 0.45584,-1.26338 0.469119,-2.44739 l 0.01976,-1.76158 -1.2138,-0.0789 c -1.400532,-0.091 -1.694064,0.15206 -2.039353,1.68883 -0.279572,1.24428 -0.01193,2.16625 0.817486,2.81594 0.823325,0.64494 1.426093,0.57778 1.946791,-0.21691 z m -72.5199201,-0.45162 0.70716,-0.60828 -1.41654,0.013 c -1.38388001,0.0127 -1.42339001,-0.008 -1.71391001,-0.89634 l -0.29738,-0.90931 -0.31765999,0.9625 c -0.23338,0.70716 -0.24068,1.10631 -0.0275,1.50462 0.41746999,0.78007 2.12488,0.74322 3.06584,-0.0661 z m 82.0840041,0.29077 c 0.44723,-0.44723 0.395091,-1.52141 -0.08274,-1.70478 -0.59681,-0.22901 -1.187257,0.39807 -1.187257,1.26093 0,0.82123 0.66145,1.0524 1.27,0.44385 z m -14.185514,-2.75464 c 0.400101,-0.98772 0.666528,-1.85677 0.592066,-1.93123 -0.176183,-0.17619 -1.242208,1.12364 -2.122442,2.58794 -0.545796,0.90796 -0.620294,1.20282 -0.346631,1.37195 0.610455,0.37728 1.129787,-0.184 1.877007,-2.02866 z m -39.7102,1.04993 c -1.62907,-1.14105 -4.78887,-1.83626 -4.78887,-1.05364 0,0.38147 1.08028,0.68803 2.48047,0.70391 0.45475,0.005 1.12448,0.17953 1.48828,0.3875 0.93668,0.53545 1.59521,0.50512 0.82012,-0.0378 z m 35.531782,0.0161 c 0.266916,-0.69558 0.18542,-0.90441 -0.352952,-0.90441 -0.608864,0 -0.913982,0.40407 -0.708824,0.93871 0.196316,0.51158 0.860531,0.49012 1.061776,-0.0343 z m 22.530812,-0.28189 c 1.548823,-1.67121 1.442728,-4.81143 -0.224398,-6.64179 -1.106078,-1.21437 -1.36017,-0.42081 -0.317691,0.99219 1.081286,1.4656 0.890212,3.09541 -0.568476,4.84895 -0.342183,0.41134 -0.622149,0.91736 -0.622149,1.12448 0,0.62014 1.037588,0.42622 1.732714,-0.32383 z m -73.229084,0.0239 c 0.68103,-0.47701 0.78989,-1.64394 0.17537,-1.87975 -0.51389,-0.19721 -1.96858,1.14175 -1.96858,1.81195 0,0.60596 0.9724,0.64271 1.79321,0.0678 z m 43.09537,0.0259 c 0.71354,-0.20418 0.96594,-0.81927 0.60949,-1.4853 -0.211,-0.39428 -0.55955,-0.51001 -1.53598,-0.51001 -0.69467,0 -1.48944,0.16555 -1.76616,0.36789 -0.42682,0.3121 -0.45682,0.46951 -0.19781,1.03797 0.40017,0.87826 1.26489,1.0546 2.89046,0.58944 z m -35.56613,-1.33712 c 1.02881,-0.34807 1.98898,-0.75127 2.13371,-0.89601 0.36982,-0.36981 -0.51602,-3.44149 -1.20932,-4.19336 -0.54673,-0.59291 -4.01534,-1.8885 -4.29834,-1.60551 -0.0819,0.082 -0.24451,0.75332 -0.36127,1.49193 -0.12443,0.78711 -0.50503,1.72674 -0.91957,2.27023 -1.1477,1.50471 -1.27985,3.70231 -0.23571,3.91965 0.69755,0.14519 2.79582,-0.27825 4.8905,-0.98693 z m -19.5089101,0.52288 c -0.43656,-0.1999 -1.21047,-0.35915 -1.71979,-0.3539 l -0.92604001,0.01 0.79375001,0.36345 c 0.43656,0.1999 1.21047,0.35916 1.71979,0.3539 l 0.92604,-0.01 z M 0.31140889,263.9379 c 1.27158001,-0.37869 1.84732001,-0.68884 1.96459001,-1.05833 0.22702,-0.7153 -0.068,-1.52741 -0.61092,-1.68153 -1.33873001,-0.38005 -3.51977,-0.7074 -3.75297,-0.56327 -0.54637,0.33767 -0.15954,3.83881 0.42414,3.83881 0.0971,0 0.98587999,-0.24106 1.97515999,-0.53568 z M 46.327049,263.80281 c 0,-0.9319 -0.62653,-1.79409 -1.93109,-2.65741 -2.43994,-1.61467 -4.94589,-4.4543 -6.89011,-7.80757 -0.89666,-1.54651 -0.90245,-2.42791 -0.0205,-3.12164 1.2233,-0.96225 1.56617,-0.92641 4.59284,0.48008 4.40576,2.04736 5.45712,1.69032 1.4828,-0.50355 -4.87261,-2.68974 -6.37688,-5.51504 -4.77195,-8.9626 1.34544,-2.89017 0.47618,-2.94247 -0.99478,-0.0599 -1.23804,2.42617 -1.27401,3.44074 -0.18299,5.16109 0.90321,1.42422 0.86665,1.90398 -0.1648,2.16286 -0.84808,0.21285 -1.046,-0.0494 -1.47568,-1.95499 -0.17337,-0.76884 -0.40272,-1.30463 -0.50967,-1.19063 -0.10695,0.11401 -0.39566,1.12524 -0.64158,2.24719 -0.56115,2.5602 -0.30379,3.98745 1.21517,6.73913 1.36039,2.46443 1.29997,3.32033 -0.12737,1.80429 -1.0901,-1.15784 -2.80942,-4.03646 -2.80942,-4.70376 0,-0.23077 -0.38695,-0.68679 -0.8599,-1.01337 -0.47294,-0.32659 -0.90333,-0.62618 -0.95643,-0.66577 -0.0531,-0.0396 0.36363,-0.59704 0.92605,-1.2388 0.62434,-0.71241 1.43751,-2.18607 2.08805,-3.78402 0.67028,-1.64644 1.21004,-2.6172 1.45521,-2.6172 0.47108,0 0.72485,-0.70179 0.76023,-2.10242 l 0.0264,-1.04409 -0.95054,0.9118 c -0.5228,0.50149 -1.93806,2.2821 -3.14502,3.9569 -2.65819,3.68857 -5.97908,6.96771 -7.52568,7.43108 -0.59332,0.17776 -1.07876,0.48295 -1.07876,0.6782 0,0.43948 0.25569,0.43412 2.24896,-0.0472 2.09523,-0.50592 3.94322,-0.50368 4.36563,0.005 0.18115,0.21828 0.58596,0.39687 0.89956,0.39687 0.77502,0 1.66598,0.66478 2.15288,1.60632 1.27757,2.47056 7.0872,7.84271 10.3819,9.60013 2.12686,1.13449 2.44065,1.17224 2.44065,0.29362 z m 19.792587,-0.27861 c 3.156195,-1.30271 10.066585,-4.85228 12.552729,-6.44779 2.124951,-1.3637 2.723372,-2.11738 1.163812,-1.46576 -2.248077,0.93931 -9.431204,4.47617 -11.529744,5.67708 -1.281896,0.73357 -2.473111,1.33376 -2.647146,1.33376 -0.612958,0 -2.891954,1.11176 -3.033125,1.47965 -0.247769,0.64567 1.05102,0.43118 3.493474,-0.57694 z m 17.503359,0.37032 c 1.204994,-1.29341 0.259101,-3.65428 -1.464104,-3.65428 -2.131224,0 -2.624712,2.29424 -0.809726,3.76443 0.770832,0.6244 1.628188,0.58287 2.27383,-0.11015 z M 7.7063689,262.55535 c 0.74472,-2.8536 0.95098,-3.28942 2.10572,-4.44923 0.8927801,-0.8967 1.8493901,-1.47635 3.7114801,-2.24895 1.81432,-0.75278 2.33593,-1.06533 1.88452,-1.12922 -1.08006,-0.15284 -4.98447,1.22498 -6.0013401,2.1178 -1.7002,1.49279 -3.0485,4.61893 -2.65991,6.16719 0.24876,0.99111 0.62875,0.80989 0.95953,-0.45759 z m 3.6764801,-0.36641 c 0.87039,-1.10652 0.66661,-1.80387 -0.44238,-1.51386 -0.30438,0.0796 -0.6937,0.48338 -0.86515,0.8973 -0.5684601,1.37238 0.36629,1.81315 1.30753,0.61656 z m -5.8501001,-0.83646 c 0.1353,-1.4077 -1.36056,-4.02474 -1.95863,-3.42666 -0.44447,0.44447 -0.38339,2.08491 0.12,3.22292 0.45287,1.02378 0.65901,1.23138 1.15313,1.16126 0.46535,-0.066 0.62067,-0.283 0.6855,-0.95752 z m 20.3835501,-0.37077 c -0.28002,-0.50785 -0.3516,-0.53446 -0.43034,-0.16002 -0.0519,0.24704 0.0567,0.72329 0.24144,1.05833 0.28001,0.50785 0.35159,0.53447 0.43033,0.16003 0.052,-0.24704 -0.0567,-0.72329 -0.24143,-1.05834 z m 32.59,1.10612 c 0.27653,-0.148 0.63492,-0.7598 0.79641,-1.35955 0.34578,-1.28412 0.0769,-1.70075 -1.27161,-1.97046 -0.81267,-0.16253 -0.88271,-0.11196 -1.36612,0.98628 -0.28025,0.63668 -0.59071,1.48502 -0.68992,1.88521 -0.1751,0.70635 -0.14811,0.7276 0.92404,0.7276 0.60743,0 1.33066,-0.12109 1.6072,-0.26908 z m 20.47611,-0.85329 c 0.200414,-0.80894 0.157726,-1.07968 -0.239445,-1.51854 -0.540993,-0.5978 -1.724244,-0.7243 -1.724244,-0.18435 0,0.19236 0.191889,0.9129 0.426418,1.60121 0.520081,1.52635 1.173602,1.56958 1.537271,0.10168 z m -15.060564,0.19633 c 0,-0.31423 -1.063133,-0.50241 -1.623512,-0.28738 -0.216924,0.0832 -0.316154,0.27796 -0.220514,0.43271 0.214944,0.34779 1.844026,0.21939 1.844026,-0.14533 z m -18.030816,-2.57969 c 0.0918,-0.76398 0.16788,-2.12204 0.16914,-3.0179 l 0.002,-1.62884 -2.95254,-1.24626 c -1.62389,-0.68544 -3.40983,-1.30759 -3.96875,-1.38256 -0.8965,-0.12024 -1.01621,-0.0715 -1.01621,0.41397 0,0.30264 0.61959,1.30059 1.37686,2.21765 1.8552,2.24666 5.58054,6.033 5.9358,6.033 0.1576,0 0.36163,-0.62507 0.4534,-1.38906 z m -31.32087,-0.0987 c 0.92942,-1.05855 1.50041,-2.13399 1.26044,-2.37396 -0.27183,-0.27183 -1.25879,0.17834 -2.19697,1.00207 -0.64238,0.56402 -0.90866,1.02239 -0.90866,1.56415 0,1.08806 0.79366,1.00536 1.84519,-0.19226 z m 41.26407,0.46274 c 0.20453,-0.38217 0.146,-0.6039 -0.25527,-0.96705 -0.50879,-0.46045 -0.52066,-0.44915 -0.52066,0.49587 0,1.04791 0.35267,1.26206 0.77593,0.47118 z m -30.21042,-0.36403 c -0.20621,-0.62088 -5.28706,-3.17203 -6.94571,-3.48751 -0.43656,-0.083 0.7719,0.61511 2.68547,1.55142 1.91357,0.93632 3.5577,1.82939 3.65363,1.98461 0.2435,0.39399 0.74038,0.35425 0.60661,-0.0485 z M 1.1787789,256.54635 c 1.14825,-2.51198 1.24403,-3.30494 0.36755,-3.04304 -1.12816001,0.33709 -2.18128001,1.07832 -2.26174001,1.59189 -0.0444,0.28317 -0.20886,0.77371 -0.36555999,1.0901 -0.22885,0.46204 -0.16984,0.76146 0.29979999,1.52135 0.32159,0.52036 0.6775,0.9461 0.7909,0.9461 0.1134,0 0.63947,-0.94788 1.16905001,-2.1064 z m 81.7415461,1.55929 c 0.553746,-0.15377 1.073084,-0.45228 1.154078,-0.66336 0.214315,-0.55849 -0.401677,-1.17078 -1.177856,-1.17078 -0.863518,0 -2.967411,1.22724 -2.967411,1.73095 0,0.46783 1.492621,0.51932 2.991189,0.10319 z M 60.614549,257.8435 c -0.99203,-0.67984 -5.10264,-2.64924 -5.35442,-2.56531 -0.33665,0.11221 1.83446,1.51694 3.50234,2.26605 1.30288,0.58518 2.56745,0.78951 1.85208,0.29926 z m 9.260421,-0.49014 c 0,-0.46559 -1.567093,-1.55143 -4.144441,-2.87169 -2.966104,-1.5194 -8.74968,-3.97722 -9.90057,-4.2074 -0.76854,-0.1537 -0.77166,-0.14909 -0.77166,1.14279 0,0.71454 0.17515,1.54716 0.38996,1.85385 0.21447,0.30621 1.43486,1.07684 2.71198,1.71252 2.32202,1.15578 2.32202,1.15578 6.074412,1.28807 3.345093,0.11794 3.833313,0.19532 4.497917,0.71291 0.814829,0.63458 1.142402,0.74038 1.142402,0.36895 z m -60.9081811,-2.1499 c 0.1005,-0.86178 -1.23479,-2.73266 -2.36898,-3.31917 -0.79708,-0.41219 -0.86615,-0.40981 -1.19585,0.0411 -0.42028,0.57478 -0.43367,0.99119 -0.0736,2.28782 0.35476,1.27738 1.1547,1.83272 2.50178,1.73681 0.91206,-0.065 1.06915,-0.16812 1.13661,-0.74653 z m 68.0519311,0.34003 c 1.388747,-0.69376 1.213405,-1.23965 -0.428856,-1.33515 -1.221761,-0.0711 -1.370901,-0.0191 -1.517742,0.52917 -0.08956,0.33437 -0.16447,0.75678 -0.166457,0.93868 -0.0052,0.47264 1.031639,0.40753 2.113055,-0.1327 z m -3.184618,-0.98019 c 0.392785,-0.47328 0.143793,-0.93763 -0.502766,-0.93763 -0.583102,0 -1.186207,0.66453 -0.949987,1.04674 0.247806,0.40096 1.081389,0.33836 1.452753,-0.10911 z m -52.985033,-1.53294 c 1.46069,-2.79985 2.42954,-5.49011 1.97716,-5.49011 -0.12517,0 -0.56089,0.62508 -0.96828,1.38907 -0.40739,0.76398 -1.14069,2.05948 -1.62955,2.87888 -0.48887,0.8194 -0.88884,1.74213 -0.88884,2.05052 0,1.01353 0.76865,0.59172 1.50951,-0.82836 z m 67.790396,0.87842 c 0.320204,-0.20266 0.309899,-0.33876 -0.06949,-0.91779 -0.536654,-0.81903 -1.567738,-1.12612 -2.442638,-0.72749 -0.925126,0.42152 -0.795578,0.78914 0.482531,1.3693 1.275014,0.57874 1.502394,0.60966 2.0296,0.27598 z m -74.783996,-0.34926 c 0.38675,-0.2921 0.22406,-0.50838 -1.39317,-1.85208 -1.00708,-0.83674 -2.0019,-1.52135 -2.21071,-1.52135 -0.8896301,0 -0.6510701,2.6059 0.30882,3.37343 0.22749,0.18191 0.96342,0.33073 1.6354,0.33073 0.67197,0 1.41882,-0.14882 1.65966,-0.33073 z m 57.518146,-0.61309 c 0.255545,-0.66595 -0.340971,-1.05909 -0.671076,-0.44229 -0.276024,0.51576 -0.163282,0.85695 0.283165,0.85695 0.125836,0 0.300395,-0.1866 0.387911,-0.41466 z m -52.735866,-0.51139 c -0.0222,-0.14552 -0.67704,-0.47367 -1.45521,-0.72922 -0.77817,-0.25555 -2.12761,-1.00023 -2.99876,-1.65484 -0.87114,-0.65462 -1.69714,-1.15246 -1.83555,-1.10633 -1.00638,0.33546 0.49383,2.0462 2.81088,3.20533 1.40307,0.70191 3.56928,0.87942 3.47864,0.28506 z m -18.50879011,-0.5508 c 0.46761,-1.21859 -0.12727,-3.55024 -0.90579,-3.55024 -0.90498999,0 -0.94286999,1.5289 -0.0803,3.24115 0.41342,0.82068 0.74937,0.92598 0.9861,0.30909 z m 3.21868001,-0.9132 c 0.77149,-0.4414 1.78277,-1.15758 2.24729,-1.59151 0.70879,-0.66211 0.81842,-0.91976 0.68188,-1.6025 -0.2733,-1.36647 -1.17222,-3.14719 -1.58873,-3.14719 -1.14501,0 -3.95124001,6.17991 -3.1638,6.96736 0.25974,0.25974 0.29784,0.24665 1.82336,-0.62616 z M 62.996819,250.7814 c -0.81733,-1.04966 -2.64227,-2.4474 -3.19542,-2.4474 -0.62072,0 -0.94042,1.00566 -0.46942,1.47665 0.39588,0.39588 3.325732,1.66941 3.881465,1.68717 0.234612,0.007 0.163222,-0.2286 -0.216625,-0.71642 z m 16.809302,-0.84196 c -0.621901,-1.20262 -1.591477,-0.97214 -1.261642,0.29991 0.12287,0.47386 1.458053,1.07395 1.599165,0.71874 0.04522,-0.11383 -0.106666,-0.57222 -0.337523,-1.01865 z m 2.679993,0.89032 c 0.223269,-0.58183 -0.382685,-1.16502 -0.691433,-0.66545 -0.258799,0.41874 -0.08262,1.08011 0.287732,1.08011 0.13452,0 0.316185,-0.1866 0.403701,-0.41466 z m -62.163685,-0.84211 c 1.52478,-2.26538 1.74688,-3.84471 0.7134,-5.07293 -0.83323,-0.99023 -1.28832,-1.0554 -1.06566,-0.15259 0.0897,0.3638 0.23552,0.95376 0.324,1.31101 0.1097,0.44298 -0.0153,0.87344 -0.3929,1.35353 -0.639,0.81236 -1.12549,2.36135 -0.9144,2.91145 0.22776,0.59353 0.80151,0.44297 1.33556,-0.35047 z m -2.61712,-0.23623 c -0.12704,-0.64548 -0.83748,-0.98931 -1.63209,-0.78988 -0.85913,0.21563 -0.89545,0.52142 -0.1071,0.90162 0.94298,0.45479 1.83935,0.3972 1.73919,-0.11174 z m 8.28103,-0.85063 c 2.05585,-1.35356 3.33067,-2.53949 2.96426,-2.75758 -0.60407,-0.35955 -2.91277,-0.43931 -3.52563,-0.1218 -0.86709,0.44922 -2.31364,4.16468 -1.62145,4.16468 0.12686,0 1.10912,-0.57839 2.18282,-1.2853 z m 19.81155,-0.53748 c 0,-2.36984 -0.36489,-2.82399 -2.62536,-3.26766 -1.71149,-0.33591 -2.32895,-0.84227 -1.43154,-1.17398 0.74542,-0.27553 0.87379,-0.6185 0.87379,-2.33454 0,-2.22902 -0.28009,-2.57883 -1.29008,-1.61119 -2.83583,2.71689 -2.00445,6.03622 2.20938,8.82108 1.156,0.76399 2.13827,1.38907 2.18281,1.38907 0.0446,0 0.081,-0.82025 0.081,-1.82278 z m -36.8048001,0.6983 c 4.6695001,-5.58253 4.9472401,-6.02535 4.6782901,-7.45895 -0.26267,-1.40017 -0.80109,-1.45543 -2.0905,-0.21456 -1.32948,1.27943 -2.2563201,1.79924 -2.5983201,1.45724 -0.15164,-0.15164 0.31603,-1.53471 1.2190301,-3.60513 0.80578,-1.8475 1.46505,-3.53376 1.46505,-3.74724 0,-0.79456 -0.94857,-0.34357 -2.3136801,1.10001 -1.34243,1.4196 -3.50715,5.27513 -3.50715,6.24649 0,0.23096 0.35719,1.17477 0.79376,2.09734 0.43657,0.92257 0.86015,2.09412 0.94129,2.60344 0.27846,1.74805 0.39218,2.11667 0.65299,2.11667 0.14371,0 0.48537,-0.26789 0.75924,-0.59531 z m 75.8528781,-1.40567 c 0.517832,-0.8095 1.525577,-2.68474 2.239439,-4.16719 1.45174,-3.01479 1.839563,-5.06913 1.839563,-9.7444 0,-3.88704 -0.439248,-4.48092 -1.286161,-1.73893 -0.828571,2.6826 -0.942501,4.37014 -0.435784,6.45496 0.401928,1.65369 0.406971,1.93411 0.05012,2.78816 -0.489466,1.17146 -2.160394,2.21041 -4.16697,2.59095 -0.788244,0.14949 -1.642716,0.48134 -1.898827,0.73746 -0.565722,0.56572 -0.767345,3.29492 -0.279482,3.78309 0.274404,0.27457 1.593812,0.63993 2.662573,0.73729 0.183708,0.0167 0.757695,-0.63189 1.275524,-1.44139 z m -25.570718,-0.20947 c 1.60684,-1.37157 2.86302,-1.80995 7.694847,-2.68535 4.594085,-0.83232 6.755498,-1.49906 8.161674,-2.51769 1.09057,-0.79001 2.148593,-2.18679 2.150543,-2.83911 0.0019,-0.60602 -0.469728,-0.34121 -1.003564,0.56358 -0.664081,1.12553 -2.561445,2.44309 -4.507286,3.12994 -0.82479,0.29113 -3.009481,0.68861 -4.854868,0.88328 -1.845387,0.19467 -3.867454,0.49186 -4.493485,0.66044 -2.586051,0.69635 -4.718971,2.26183 -4.718971,3.46354 0,0.27142 0.0498,0.49349 0.11069,0.49349 0.0609,0 0.71807,-0.51846 1.46042,-1.15212 z m 17.807531,0.91347 c 0.536843,-0.2041 0.671328,-0.51998 0.929336,-2.18281 0.252873,-1.62975 0.238742,-2.04045 -0.08738,-2.53948 -0.513156,-0.78523 -0.766405,-0.76006 -3.424608,0.3403 -1.243115,0.51459 -3.630694,1.21406 -5.305729,1.55437 -3.216518,0.65349 -3.980039,0.9496 -2.448554,0.9496 0.853609,0 2.154989,0.30618 6.833295,1.60771 1.983664,0.55186 2.631628,0.60185 3.503644,0.27031 z m -20.426371,-0.83949 c 0.39306,-0.73445 0.11689,-2.14092 -0.80139,-4.08124 l -0.7513,-1.5875 -0.0191,2.51354 c -0.0105,1.38245 0.0527,2.78144 0.14045,3.10886 0.2016,0.75225 1.03903,0.77936 1.43134,0.0463 z m -57.9062301,-0.26933 c 1.53529999,-0.78325 3.489,-2.67405 5.28912,-5.11883 l 1.54674,-2.10067 -1.50256,-0.61131 c -2.01188,-0.81852 -3.00017,-0.81729 -3.00017,0.004 0,0.36541 -0.59062001,1.29702 -1.45521001,2.2954 -1.36417999,1.57527 -1.58568999,2.00497 -1.47225999,2.85604 0.0251,0.18838 -0.19891,0.73822 -0.49781,1.22186 -0.57964,0.93788 -0.72262,2.00752 -0.26835,2.00752 0.15132,0 0.76354,-0.24918 1.3605,-0.55372 z m 17.5183601,-0.12938 c 0.31532,-0.82171 0.15053,-1.35322 -0.51331,-1.65568 -1.81858,-0.82861 -3.25224,0.27647 -2.06321,1.59034 0.56256,0.62162 2.3457,0.66684 2.57652,0.0653 z m 29.79393,-3.43534 c 0,-0.85103 -0.47373,-1.76789 -0.80702,-1.5619 -0.35721,0.22077 -0.31162,1.54544 0.0662,1.92325 0.4963,0.4963 0.74083,0.37703 0.74083,-0.36135 z m 13.35456,0.21583 c -0.21952,-0.51907 -0.5653,-2.07785 -0.79234,-3.57187 -0.30918,-2.0345 -1.7143,-0.76797 -1.7143,1.54522 0,0.86128 0.53341,1.55091 0.73404,0.94902 0.19203,-0.57611 0.61312,-0.31803 1.0028,0.61461 0.21281,0.50932 0.51713,0.92604 0.67627,0.92604 0.17376,0 0.21112,-0.18494 0.0935,-0.46302 z m -41.0667,-0.59531 c 1.34517,-0.72097 4.39144,-0.72097 5.88402,0 0.62446,0.30164 1.63322,0.51489 2.46065,0.52019 l 1.40232,0.009 -1.92189,-2.28229 -1.9219,-2.28228 -1.99396,0.16848 c -3.30436,0.2792 -3.46989,0.36401 -4.4357,2.27276 -0.46983,0.92852 -1.00561,1.78429 -1.19063,1.90172 -0.74307,0.47161 0.76847,0.20087 1.71709,-0.30756 z m 62.226446,-1.28352 c 0.391213,-0.77869 0.58243,-1.33616 0.424924,-1.23882 -0.345919,0.21379 -1.337146,2.10848 -1.337146,2.5559 0,0.44349 0.100933,0.29776 0.912222,-1.31708 z m -48.457556,-0.28057 c 1.7363,-1.92187 1.87127,-2.95064 0.33658,-2.56546 -0.48936,0.12283 -0.68083,0.34545 -0.68083,0.79162 0,0.3414 -0.23812,0.92346 -0.52916,1.29346 -0.54639,0.69462 -0.70636,1.5153 -0.29537,1.5153 0.12858,0 0.65454,-0.46571 1.16878,-1.03492 z m 35.109918,0.62699 c 2.872779,-0.19887 5.820095,-0.80085 6.307536,-1.28829 0.208675,-0.20868 0.305001,-0.57331 0.214062,-0.8103 -0.252474,-0.65793 -2.426859,-1.49992 -3.966557,-1.53597 -1.670127,-0.0391 -2.128343,0.18165 -1.769356,0.85242 0.377164,0.70474 1.075132,0.88293 1.59952,0.40837 0.630484,-0.57058 1.848128,-0.0359 1.848128,0.81149 0,1.70143 -3.631875,0.96677 -4.71183,-0.95312 -0.551868,-0.98108 -1.205153,-1.17813 -3.818831,-1.15189 -2.90184,0.0291 -3.45541,0.57563 -2.83732,2.80105 0.37053,1.33407 0.37277,1.33434 7.134648,0.86624 z m 17.420901,-0.10001 c 1.104138,-0.56329 1.63508,-1.4646 1.617403,-2.74565 l -0.01169,-0.84745 -0.534812,1.05833 c -0.294148,0.58209 -1.033026,1.5045 -1.641954,2.04981 -1.210831,1.08433 -0.983025,1.27779 0.571055,0.48496 z m -55.384529,-0.85404 c 1.1554,-1.01446 1.15388,-1.8088 -0.004,-2.12956 -0.43656,-0.12092 -1.24023,-0.14824 -1.78594,-0.0607 -1.17271,0.18813 -1.30256,0.79099 -0.46592,2.16318 0.65436,1.07323 1.0589,1.07808 2.25594,0.0271 z m -11.96193,-0.42395 c 0.0808,-0.40019 0.22331,-0.92521 0.31679,-1.16673 0.22393,-0.57857 -0.62659,-0.85249 -1.55316,-0.50021 -1.23827,0.47079 -0.82527,2.39454 0.51406,2.39454 0.4158,0 0.61621,-0.20188 0.72231,-0.7276 z m 66.327512,0.2054 c 0.294489,-0.18618 0.318413,-0.32577 0.09425,-0.54993 -0.419095,-0.41909 -1.258692,-0.20534 -1.365171,0.34756 -0.09836,0.51073 0.605824,0.62286 1.270921,0.20237 z m -3.722256,-1.22111 c 1.194485,-1.00509 1.089863,-1.53836 -0.266134,-1.35648 -1.288648,0.17284 -1.252069,0.14283 -1.463672,1.20085 -0.145108,0.72554 -0.09394,0.84061 0.373816,0.84061 0.298069,0 0.908264,-0.30824 1.35599,-0.68498 z M 5.4749089,237.74079 c 0.39704,-0.15095 1.56565,-1.14644 2.59691,-2.21221 1.43643,-1.48448 2.2128001,-2.06224 3.3190101,-2.46998 0.79419,-0.29273 1.48519,-0.65586 1.53556,-0.80696 0.16651,-0.49954 -1.09477,-1.39431 -2.56995,-1.82316 -1.7789701,-0.51716 -3.9400001,-0.20625 -5.6884301,0.81839 -1.41077,0.82677 -5.43679001,4.09677 -5.43679001,4.41585 0,0.33512 1.2497,0.29234 1.93563001,-0.0663 0.31785,-0.16618 1.06418,-0.74574 1.65851,-1.28792 1.46755,-1.33877 2.81659,-1.77937 3.69196,-1.20581 1.84879,1.21137 -0.52654,3.77861 -3.58193,3.87132 -0.3638,0.011 -0.89958,0.11506 -1.19063,0.23116 -0.41345,0.16494 -0.21097,0.26971 0.92605,0.47914 1.98925,0.36642 1.98884,0.36641 2.8041,0.0564 z M 84.404907,236.4939 c 0.513993,-1.94032 0.784384,-3.36085 0.662853,-3.48239 -0.06781,-0.0678 -0.924322,0.14849 -1.903357,0.48067 -0.988076,0.33525 -2.95724,0.70551 -4.425892,0.8322 -1.455208,0.12552 -2.662862,0.23341 -2.683671,0.23976 -0.230278,0.0702 -0.300585,0.94929 -0.10513,1.3145 0.205648,0.38425 0.72875,0.49886 2.843324,0.62292 1.42522,0.0836 3.06756,0.33095 3.649644,0.54964 1.535427,0.57684 1.672071,0.53803 1.962229,-0.5573 z m -84.94220811,-2.71119 c 0.62376,-0.58164 1.83030001,-1.60449 2.68119001,-2.27299 2.0371,-1.60044 2.12482,-1.8885 0.89927,-2.95332 -0.54433,-0.47294 -1.09487,-0.8599 -1.22344,-0.8599 -0.12856,0 -0.19802,0.56336 -0.15435,1.25191 0.0794,1.2519 0.0794,1.2519 -1.50811001,2.05052 -1.39705999,0.70281 -1.60579999,0.9097 -1.74007999,1.72466 -0.0839,0.50932 -0.24078,1.19393 -0.34856,1.52135 -0.28499,0.86574 0.11064,0.73456 1.39407999,-0.46223 z M 26.705709,232.89708 c -1.00748,-0.44771 -1.8099,-1.23812 -1.8099,-1.7828 0,-0.70311 1.20838,-1.51609 2.5532,-1.71776 1.22489,-0.18369 1.7879,-0.7772 1.12557,-1.18654 -0.80867,-0.49979 -3.73907,0.86703 -5.04309,2.35223 -0.78886,0.89845 -0.79242,0.91599 -0.28846,1.41995 0.63275,0.63274 2.31668,1.25063 3.37257,1.23749 l 0.79375,-0.01 -0.70364,-0.31269 z m 11.77468,0.0218 c 0.7026,-0.51375 0.007,-1.2438 -1.56333,-1.64052 -1.17845,-0.29773 -1.31358,-0.40922 -1.38723,-1.14455 -0.11467,-1.14488 0.52111,-1.43045 2.47627,-1.11224 1.87864,0.30576 2.30916,0.64882 1.35804,1.08218 -0.38137,0.17376 -0.63058,0.41759 -0.5538,0.54183 0.32913,0.53255 1.71951,0.15495 3.39214,-0.92123 l 1.78288,-1.14713 -1.14425,-0.43031 c -3.2321,-1.21546 -6.42898,-1.30851 -9.58188,-0.27889 -2.42993,0.79352 -2.68048,0.94606 -3.1418,1.91287 -0.28194,0.59086 -0.52684,0.70587 -1.65184,0.77573 -4.78606,0.2972 1.81697,2.27428 8.88121,2.65921 0.37237,0.0203 0.88248,-0.11334 1.13359,-0.29695 z m 6.77123,-0.89165 c 1.31257,-1.18011 3.46171,-3.96379 3.8056,-4.92919 0.15236,-0.42775 0.1067,-0.43514 -0.55446,-0.0898 -1.03253,0.53938 -2.1664,1.80888 -2.41172,2.70018 -0.18456,0.67057 -0.32327,0.75928 -1.1119,0.71105 -1.34224,-0.0821 -2.42193,0.35386 -3.41557,1.37904 -1.15024,1.18674 -0.86673,1.43829 0.63146,0.56029 1.48988,-0.87313 1.56642,-0.86747 1.3539,0.10014 -0.23987,1.09211 0.10509,1.00464 1.70269,-0.43174 z m 2.0749,0.54903 c 0.71152,-0.49837 0.80418,-1.23566 0.12501,-0.99481 -0.58791,0.2085 -1.38906,0.89086 -1.38906,1.18311 0,0.35377 0.62255,0.26103 1.26405,-0.1883 z m 4.92059,-0.0638 c 0.35061,-0.56731 -0.5064,-1.00204 -1.75287,-0.88919 -0.53073,0.048 -0.62756,0.72518 -0.13229,0.92503 0.53511,0.21592 1.74376,0.19294 1.88516,-0.0358 z m 8.5426,-0.86458 c 0.89938,-1.35906 1.443404,-1.63262 4.968844,-2.49856 3.789884,-0.93089 9.141984,-2.6519 9.804974,-3.15288 0.879544,-0.6646 0.07188,-0.50804 -5.423974,1.05138 -2.837656,0.80517 -5.992812,1.59039 -7.011458,1.74492 -3.154486,0.47856 -3.045766,0.42896 -3.562816,1.62555 -0.90404,2.09223 -0.9191,2.30524 -0.16294,2.30524 0.49682,0 0.86386,-0.28457 1.38737,-1.07565 z m 7.80473,-0.0352 c 1.499688,-1.02638 2.287024,-1.4024 3.463343,-1.65403 0.887386,-0.18982 0.983816,-0.93931 0.120854,-0.93931 -0.333714,0 -1.672399,0.30894 -2.974856,0.68654 -1.302459,0.37759 -3.083248,0.80024 -3.957312,0.93922 -1.572014,0.24994 -3.573579,1.28478 -3.573579,1.84759 0,0.1993 0.86691,0.25874 2.754363,0.18888 2.662698,-0.0986 2.801387,-0.13414 4.167187,-1.06889 z m -11.68405,0.61209 c 0,-0.3823 -1.25496,-1.08876 -1.93406,-1.08876 -0.65954,0 -1.635,0.84066 -1.32971,1.14595 0.26566,0.26566 3.26377,0.21313 3.26377,-0.0572 z m 14.948956,-0.5596 c 0,-0.49034 -0.89457,-0.3854 -1.455209,0.1707 -0.351874,0.34903 -0.291872,0.38417 0.529167,0.30992 0.609539,-0.0551 0.926042,-0.21939 0.926042,-0.48062 z m 10.961467,-0.78453 c 1.101715,-0.55404 2.300772,-1.2566 2.664574,-1.56124 0.962499,-0.80598 0.350491,-1.08539 -2.38125,-1.08717 -2.667331,-0.002 -4.800801,0.79474 -5.348462,1.99673 -0.291465,0.63969 -0.251164,0.76476 0.437251,1.35691 0.961781,0.82729 1.849461,0.69202 4.627887,-0.70523 z m -63.196323,0.27572 c 1.01578,-1.01577 0.97586,-1.7229 -0.16146,-2.86021 -1.08359,-1.08359 -1.49621,-0.99066 -0.6815,0.15349 0.58703,0.82442 0.74022,2.01337 0.29487,2.28861 -0.14474,0.0895 -0.38706,0.39414 -0.53848,0.67708 -0.42322,0.79079 0.18076,0.64684 1.08657,-0.25897 z m 31.05635,-0.79495 c 0.22698,-0.36726 -1.03877,-1.72442 -1.40003,-1.50114 -0.33123,0.20471 -0.42134,1.28037 -0.13153,1.57018 0.26258,0.26258 1.3571,0.21324 1.53156,-0.069 z m -34.73556,-0.72162 c 1.38329,-1.25186 -0.2588,-3.34553 -1.72153,-2.19495 -0.56718,0.44614 -0.82727,0.47929 -2.00633,0.25568 -1.65539,-0.31394 -9.2820301,-0.68049 -9.2820301,-0.44611 0,0.0927 0.59135,0.46818 1.31412,0.83443 1.11566,0.56535 1.68506,0.66772 3.77031,0.67787 2.0753701,0.0101 2.6408001,0.11081 3.6468201,0.6495 1.44864,0.77571 3.54737,0.88538 4.27864,0.22358 z m 38.31927,0.22202 c 0,-0.31279 -2.00659,-1.39351 -2.20989,-1.19022 -0.292,0.29201 -0.18862,1.09044 0.15937,1.23085 0.54715,0.22078 2.05052,0.19099 2.05052,-0.0406 z m -29.69947,-1.29184 c 1.0312,-0.76257 1.12611,-1.40271 0.20797,-1.40271 -0.45446,0 -0.85161,0.29387 -1.31121,0.97024 -0.64805,0.95369 -0.68336,1.5893 -0.0691,1.244 0.17185,-0.0966 0.6994,-0.4618 1.17235,-0.81153 z m 6.14935,-1.92491 c 0.30869,-0.19516 0.32495,-0.31923 0.0746,-0.56954 -0.25022,-0.25021 -0.55276,-0.2503 -1.38685,-4e-4 -0.58676,0.1758 -1.06683,0.43391 -1.06683,0.57359 0,0.32659 1.8612,0.32373 2.37904,-0.004 z m 63.313297,24.73157 c 0.0021,-0.7276 0.05337,-0.99386 0.114186,-0.59167 0.06082,0.40218 0.05919,0.99749 -0.0036,1.32291 -0.0628,0.32543 -0.112559,-0.004 -0.110575,-0.73124 z"
       id="path8963" />
  </g>
</svg>
