<?xml version="1.0" encoding="UTF-8" standalone="no"?>
<!-- Created with Inkscape (http://www.inkscape.org/) -->

<svg
   width="86.748238mm"
   height="90.751633mm"
   viewBox="0 0 86.748251 90.751632"
   version="1.1"
   id="svg5"
   inkscape:version="1.1 (c4e8f9ed74, 2021-05-24)"
   sodipodi:docname="ornatel4.svg"
   xmlns:inkscape="http://www.inkscape.org/namespaces/inkscape"
   xmlns:sodipodi="http://sodipodi.sourceforge.net/DTD/sodipodi-0.dtd"
   xmlns="http://www.w3.org/2000/svg"
   xmlns:svg="http://www.w3.org/2000/svg">
  <sodipodi:namedview
     id="namedview7"
     pagecolor="#ffffff"
     bordercolor="#666666"
     borderopacity="1.0"
     inkscape:pageshadow="2"
     inkscape:pageopacity="0.0"
     inkscape:pagecheckerboard="0"
     inkscape:document-units="mm"
     showgrid="false"
     inkscape:zoom="0.66903058"
     inkscape:cx="153.20675"
     inkscape:cy="59.040649"
     inkscape:window-width="2506"
     inkscape:window-height="1403"
     inkscape:window-x="1974"
     inkscape:window-y="0"
     inkscape:window-maximized="1"
     inkscape:current-layer="layer1" />
  <defs
     id="defs2" />
  <g
     inkscape:label="Layer 1"
     inkscape:groupmode="layer"
     id="layer1"
     transform="translate(408.27475,-650.36205)">
    <path
       style="fill:#000000;stroke-width:0.264583"
       d="m -333.38907,740.7834 c -0.63891,-0.82611 -0.60106,-1.02117 0.37414,-1.92831 l 1.00748,-0.93716 -0.62463,-0.51857 c -1.15002,-0.95475 -2.98039,-0.47604 -3.04737,0.797 -0.0177,0.33634 -0.24553,0.74347 -0.5063,0.90475 -0.38671,0.23917 -0.56296,0.17645 -0.95588,-0.34013 -0.63909,-0.84022 -1.08747,-0.52198 -0.8992,0.63821 0.13823,0.85183 0.0982,0.92119 -0.53097,0.92119 -0.37426,0 -0.75432,-0.1195 -0.84459,-0.26555 -0.0903,-0.14606 -0.45448,-0.19268 -0.80936,-0.10361 -0.60648,0.15221 -0.64524,0.0958 -0.64524,-0.93856 0,-0.92744 0.15118,-1.23901 0.96134,-1.98121 0.53892,-0.49372 0.88084,-1.01096 0.77813,-1.17714 -0.10076,-0.16303 -0.82252,-0.29643 -1.6039,-0.29643 -1.52766,0 -2.35242,-0.48941 -2.06907,-1.2278 0.12303,-0.32061 0.40706,-0.3857 1.21196,-0.27774 1.36002,0.18242 1.77987,0.004 1.77987,-0.75611 0,-0.76068 -0.22356,-0.90637 -1.65184,-1.07651 -0.61946,-0.0738 -1.23139,-0.23785 -1.35986,-0.36459 -0.4251,-0.41939 0.0661,-1.05951 0.82058,-1.06926 1.04564,-0.0135 2.26124,-1.07227 2.1483,-1.87111 -0.0828,-0.58567 -0.19171,-0.62753 -1.4588,-0.56077 -1.17671,0.062 -1.39322,-0.003 -1.53918,-0.46302 -0.4084,-1.28676 0.41512,-1.8963 2.44921,-1.8128 0.47499,0.0195 0.93619,-0.0371 1.02488,-0.1258 0.26754,-0.26754 -0.12509,-0.98001 -0.62573,-1.13543 -0.25796,-0.0801 -0.66366,-0.24842 -0.90155,-0.37407 -0.2379,-0.12566 -0.66293,-0.16823 -0.94453,-0.0946 -0.28703,0.0751 -0.66523,-0.0507 -0.86075,-0.28634 -0.29161,-0.35137 -0.27813,-0.49828 0.0823,-0.89652 0.27554,-0.30447 0.40802,-0.85149 0.36724,-1.51639 -0.0558,-0.90942 0.003,-1.02906 0.46538,-0.95218 0.29105,0.0484 1.06495,0.16742 1.7198,0.26458 1.14214,0.16947 1.19391,0.21613 1.27138,1.14615 0.11979,1.4379 0.71234,1.47133 1.4075,0.0794 0.32253,-0.6458 0.80423,-1.24331 1.07043,-1.3278 0.26621,-0.0845 0.48402,-0.3993 0.48402,-0.69958 0,-0.47431 0.11937,-0.52658 0.90965,-0.39834 1.19309,0.19361 1.49552,-0.20635 1.43562,-1.89864 -0.0553,-1.56153 -0.32785,-1.71831 -0.86033,-0.49484 -0.99171,2.27866 -3.13887,3.06648 -4.53967,1.66567 -1.28105,-1.28104 -0.47882,-2.40947 0.83528,-1.17493 0.60974,0.57282 1.16112,0.49265 1.16112,-0.16883 0,-0.20596 0.35365,-0.55735 0.7859,-0.78088 0.90875,-0.46993 1.39852,-1.23941 1.16922,-1.83697 -0.22536,-0.58725 -1.23555,-0.51711 -1.62914,0.11313 -0.34861,0.55821 -1.25217,0.68829 -1.90655,0.27446 -0.32868,-0.20785 -0.28975,-0.35324 0.24785,-0.92549 0.49211,-0.52383 0.56607,-0.75062 0.3238,-0.99289 -0.1727,-0.1727 -0.314,-0.54319 -0.314,-0.82331 0,-0.28012 -0.28855,-1.17905 -0.64121,-1.99761 -1.33301,-3.094 -1.66724,-4.61459 -1.43617,-6.53393 0.29353,-2.43821 0.37465,-2.62384 1.55515,-3.55882 1.22091,-0.96697 2.37255,-1.35521 2.99187,-1.00863 0.68296,0.38221 0.56836,2.14546 -0.22068,3.39538 -0.3638,0.5763 -0.66146,1.28492 -0.66146,1.5747 0,0.95988 1.24436,3.36072 2.01764,3.89279 1.7841,1.22758 4.96864,1.88941 5.91198,1.22867 0.64759,-0.45359 1.3308,-0.088 1.3308,0.71217 0,0.62375 -0.44338,0.94829 -1.78594,1.30725 -1.47529,0.39445 -1.43464,0.80942 0.0793,0.80942 1.58828,0 2.71764,-0.61581 3.18626,-1.73736 0.20877,-0.49966 0.47323,-0.90847 0.5877,-0.90847 0.43616,0 0.84311,0.66407 0.84311,1.37583 0,0.86621 0.63139,1.00943 1.04478,0.23699 0.19268,-0.36001 0.1478,-0.99763 -0.1572,-2.23356 -0.493,-1.99779 -0.37263,-2.55426 0.55253,-2.55426 0.86434,0 1.47299,1.15294 1.49934,2.84016 0.0421,2.69793 -1.53702,4.60953 -4.26596,5.16402 -1.25463,0.25492 -1.69267,0.45237 -1.62872,0.73415 0.0481,0.212 0.15483,1.42528 0.23717,2.69617 0.13206,2.0383 0.0952,2.33162 -0.31261,2.48812 -0.50161,0.19248 -0.96765,-0.30853 -0.76887,-0.82654 0.0661,-0.17236 -10e-4,-1.06774 -0.14972,-1.98975 -0.19099,-1.1859 -0.18596,-1.77762 0.0172,-2.02237 0.4939,-0.59511 0.0661,-1.04169 -1.45653,-1.52063 -1.7357,-0.54595 -3.17045,-1.53607 -5.12122,-3.53417 -2.11633,-2.16768 -2.52227,-3.13054 -2.51201,-5.95835 0.007,-2.03993 0.0843,-2.43108 0.58197,-2.96084 0.32838,-0.34955 0.46207,-0.67923 0.31283,-0.77146 -0.40767,-0.25196 -1.11723,0.12184 -1.39832,0.73663 -0.14062,0.30758 -0.4274,0.85689 -0.63729,1.22069 -0.77534,1.34391 -0.23537,4.86984 0.95967,6.26647 0.39649,0.46338 0.79059,1.0587 0.87579,1.32292 0.0852,0.26422 0.64853,0.89712 1.25187,1.40644 2.64668,2.23428 4.11648,5.37783 3.06482,6.55492 -0.22434,0.2511 -0.44852,0.75346 -0.49816,1.11636 -0.0763,0.55797 -0.28425,0.69511 -1.34705,0.88851 -1.36421,0.24826 -1.59496,0.68214 -0.81888,1.53969 0.25936,0.28659 0.31397,0.48386 0.13395,0.48386 -0.17168,0 -0.25565,0.25904 -0.19296,0.59531 0.061,0.32742 0.11981,0.68461 0.13063,0.79375 0.0304,0.30678 1.07799,0.23443 1.07799,-0.0744 0,-0.15009 -0.17329,-0.33938 -0.38508,-0.42066 -0.30255,-0.11609 -0.31673,-0.22179 -0.0661,-0.49309 0.17542,-0.18993 0.40824,-0.29126 0.51738,-0.22518 0.10914,0.0661 0.19844,-0.009 0.19844,-0.16661 0,-0.15772 0.29765,-0.39992 0.66145,-0.53824 0.36381,-0.13831 0.66146,-0.37349 0.66146,-0.52262 0,-0.14912 0.11907,-0.27113 0.26459,-0.27113 0.14552,0 0.26458,0.59305 0.26458,1.31788 0,1.20566 0.0598,1.33289 0.70262,1.49422 0.82613,0.20735 1.41168,-0.40112 1.4181,-1.47361 0.005,-0.83095 0.37487,-1.46258 0.72852,-1.244 0.44965,0.27789 0.53784,1.46811 0.27182,3.6685 -0.31547,2.60944 -0.0117,3.13984 0.88949,1.5534 0.47493,-0.83599 0.85619,-1.15533 1.63234,-1.36721 1.39317,-0.38031 2.15858,-0.234 2.17863,0.41645 0.009,0.29104 0.111,0.73752 0.22674,0.99218 0.38174,0.83993 -0.0274,1.33959 -0.94646,1.15578 -0.47417,-0.0948 -0.98086,-0.0383 -1.18655,0.13243 -0.4615,0.38301 -0.46041,0.76232 0.002,0.76232 0.52319,0 1.78759,1.05691 1.60937,1.34526 -0.0831,0.13451 -0.67636,0.20081 -1.31829,0.14734 -1.6019,-0.13346 -2.2397,0.351 -2.2397,1.70129 0,0.89754 0.1229,1.12215 0.85989,1.57151 1.04806,0.63901 1.36636,0.66431 1.14641,0.0911 -0.2071,-0.53969 0.5459,-1.41694 1.21626,-1.41694 1.01891,0 1.15621,2.37837 0.1731,2.9985 -0.49377,0.31146 -2.99326,-0.42363 -3.75454,-1.1042 -0.97071,-0.86778 -1.59642,-2.48214 -1.57024,-4.05125 0.0137,-0.82252 0.10517,-1.7482 0.2032,-2.05707 0.13494,-0.42517 -0.0451,-0.78493 -0.74126,-1.48107 -0.50572,-0.50572 -1.16952,-0.91949 -1.47511,-0.91949 -0.59254,0 -0.73724,0.5063 -0.2764,0.96714 0.15851,0.15851 0.20025,0.5939 0.0966,1.00706 -0.17045,0.67911 -0.25211,0.71673 -1.21991,0.56197 -0.71287,-0.11399 -1.32845,-0.0277 -1.96846,0.27604 -0.86648,0.41117 -0.99486,0.41155 -1.84642,0.005 -1.11246,-0.5305 -1.16183,-0.53312 -1.16183,-0.0617 0,0.20609 0.3512,0.53016 0.78046,0.72017 0.99508,0.44046 1.55234,1.41346 1.16334,2.03121 -0.42528,0.67536 -1.16373,0.71524 -1.33195,0.0719 -0.31939,-1.22132 -1.49256,-0.30696 -1.35751,1.05802 0.11731,1.18571 1.14791,1.88567 3.00286,2.0395 1.10986,0.092 1.56415,0.2547 1.79691,0.6434 0.17133,0.28612 0.92816,0.79616 1.68183,1.13342 1.17615,0.52631 1.41025,0.75702 1.65217,1.62823 0.65692,2.36577 0.23524,3.52858 -1.27961,3.52858 -0.55914,0 -1.13173,-0.14883 -1.27241,-0.33073 z m -1.43872,-14.58734 c 0.0805,-0.42397 -0.0178,-0.47209 -0.6592,-0.32269 -0.55448,0.12916 -0.64885,0.10457 -0.35692,-0.093 0.21828,-0.14772 0.27781,-0.27202 0.13229,-0.27624 -0.14552,-0.004 -0.53424,-0.0799 -0.86383,-0.16823 -0.50082,-0.13419 -0.57012,-0.0793 -0.42195,0.33435 0.31608,0.88229 0.69783,1.18469 1.39316,1.10359 0.41887,-0.0489 0.71833,-0.27169 0.77645,-0.5778 z m 6.71264,14.58734 c -0.15044,-0.1819 -0.42455,-1.10463 -0.60912,-2.05052 -0.18458,-0.94588 -0.49278,-1.85198 -0.68491,-2.01354 -0.43155,-0.36291 -0.45706,-1.32822 -0.0419,-1.58481 0.16955,-0.1048 0.49587,0.0372 0.7276,0.31667 0.2311,0.27867 1.29353,0.79059 2.36097,1.13759 2.13728,0.69479 2.56154,1.17766 1.64326,1.87032 -0.53286,0.40194 -0.56003,0.51563 -0.2441,1.0215 0.31396,0.50273 0.2861,0.6386 -0.23845,1.16315 -0.51974,0.51974 -0.66356,0.55045 -1.15131,0.24585 -0.39978,-0.24967 -0.63833,-0.26714 -0.84368,-0.0618 -0.37148,0.37147 -0.58287,0.36125 -0.91838,-0.0444 z m -27.13995,-1.27597 c -1.22674,-0.96495 -0.92279,-1.29182 1.16244,-1.25009 1.13282,0.0227 1.96091,-0.0831 2.11887,-0.27059 0.14261,-0.16928 0.18311,-0.25344 0.09,-0.18701 -0.28515,0.20344 -1.15804,-0.38521 -1.15804,-0.78096 0,-0.2049 0.20956,-0.52814 0.46568,-0.71829 0.25613,-0.19015 0.79191,-0.74182 1.19063,-1.22593 0.61104,-0.74191 0.72494,-1.12849 0.72494,-2.46054 0,-1.56715 -0.54182,-3.14155 -1.08115,-3.14155 -0.17861,0 -0.2141,0.62095 -0.10208,1.78593 0.20431,2.12467 -0.12561,3.24115 -0.95774,3.24115 -0.46013,0 -0.53554,-0.11185 -0.40136,-0.59531 0.44428,-1.60085 0.46591,-1.78594 0.20866,-1.78594 -0.1559,0 -0.27436,-0.62323 -0.27436,-1.44346 0,-1.27363 -0.13477,-1.63624 -1.14536,-3.08178 -0.62994,-0.90107 -1.45242,-1.86757 -1.82774,-2.14779 -0.99935,-0.74612 -2.71033,-0.91096 -3.57498,-0.34442 -1.01379,0.66426 -2.00298,0.89206 -2.72071,0.62655 -0.55768,-0.20629 -0.61103,-0.35224 -0.48157,-1.31741 0.19369,-1.44409 1.40646,-2.9178 2.72997,-3.31733 2.19253,-0.66188 3.22409,-0.4839 7.64405,1.3189 1.78963,0.72996 3.84261,1.00272 4.02232,0.53442 0.0744,-0.19397 0.36072,-0.35268 0.63619,-0.35268 0.39267,0 0.50086,0.19324 0.50086,0.89463 0,0.8395 -0.0734,0.91311 -1.19062,1.19443 -1.27603,0.32131 -1.55493,0.87235 -0.67886,1.34121 1.13764,0.60885 2.8822,-0.0255 3.44059,-1.25099 0.19628,-0.43079 0.43219,-0.59037 0.71329,-0.4825 0.34474,0.13229 0.40085,-0.003 0.31307,-0.75485 -0.087,-0.74511 -0.0404,-0.8608 0.24974,-0.62001 0.19618,0.16281 0.46767,0.5034 0.60332,0.75686 0.57821,1.08039 -1.42279,3.68372 -2.83142,3.68372 -1.1617,0 -0.52012,0.65016 0.83252,0.84364 1.17528,0.16812 1.84303,0.60078 1.58116,1.0245 -0.059,0.0955 -0.81121,0.15549 -1.67154,0.13333 -1.5248,-0.0393 -1.61179,-0.0824 -3.45087,-1.71291 -1.03766,-0.91995 -2.13466,-2.02094 -2.43779,-2.44665 -0.32459,-0.45585 -1.38343,-1.17739 -2.57593,-1.75536 -1.80202,-0.87337 -2.2431,-0.97961 -4.00916,-0.96561 -2.3028,0.0183 -3.175,0.37991 -3.175,1.31649 0,0.76455 0.25773,0.80611 1.38478,0.22329 1.85824,-0.96094 6.14561,0.46047 7.92589,2.62769 0.48168,0.58639 1.21124,1.45773 1.62124,1.93632 0.41,0.47859 0.88625,1.43929 1.05834,2.13489 0.23668,0.95673 0.49007,1.3495 1.04048,1.61282 0.83168,0.39789 0.87353,0.54816 0.35117,1.26084 -0.21545,0.29397 -0.31648,0.81461 -0.23624,1.21751 0.17796,0.89365 -0.3418,2.49306 -1.16091,3.5723 -1.20611,1.58914 -4.11723,2.19009 -5.46677,1.12854 z m -10.43684,-0.52027 c -0.67701,-0.63073 -0.69097,-0.74552 -0.17377,-1.42933 0.39849,-0.52685 0.53139,-1.47078 0.20708,-1.47078 -0.0998,0 -0.45853,0.26036 -0.79725,0.57858 -0.99079,0.93079 -1.21953,0.28348 -0.47085,-1.33247 0.35805,-0.7728 0.76465,-2.11084 0.90357,-2.97343 0.13891,-0.86259 0.3283,-1.69088 0.42086,-1.84064 0.0926,-0.14976 0.0859,-0.75977 -0.0147,-1.35558 -0.22575,-1.33623 -0.40909,-1.08963 -1.31158,1.76416 -1.14288,3.61394 -2.22784,4.96094 -3.99584,4.96094 -0.79476,0 -2.16336,-1.08582 -2.39067,-1.89672 -0.13594,-0.48494 -0.0311,-0.76002 0.43269,-1.13559 0.76297,-0.61781 1.42641,-0.51503 1.53409,0.23768 0.0451,0.31536 0.25288,0.71518 0.4617,0.88849 0.79223,0.65749 2.59978,-1.30572 3.2998,-3.58396 0.17886,-0.58209 0.42648,-1.32623 0.55026,-1.65365 0.32816,-0.86796 -0.19652,-0.75026 -1.02045,0.22892 -0.84,0.99828 -2.65935,1.8216 -4.02533,1.8216 -0.83847,0 -1.12254,-0.15411 -1.7144,-0.93008 -0.47197,-0.61879 -0.65363,-1.10584 -0.54274,-1.45521 0.16779,-0.52865 0.92476,-0.74748 0.92476,-0.26734 0,0.40901 1.61291,1.14555 1.8937,0.86477 0.1508,-0.15081 0.0881,-0.37595 -0.1627,-0.58408 -0.22444,-0.18628 -0.40808,-0.51622 -0.40808,-0.73321 0,-0.31388 0.22982,-0.36046 1.12448,-0.22789 0.67574,0.10013 1.7052,0.0137 2.57969,-0.21666 1.23886,-0.32629 1.53894,-0.32915 2.01844,-0.0192 0.44721,0.28907 0.76459,0.30227 1.54077,0.064 1.07054,-0.32856 1.45575,-0.0667 1.46382,0.99523 0.002,0.2932 0.24218,0.97737 0.53322,1.5204 0.29104,0.54302 0.52916,1.09612 0.52916,1.2291 0,0.56795 1.47869,2.43497 2.04011,2.57588 0.66745,0.16752 1.39948,-0.28429 1.39948,-0.86378 0,-0.45544 1.35531,-0.49083 1.79916,-0.047 0.17463,0.17463 0.3175,0.71216 0.3175,1.19452 0,0.70552 -0.16815,0.97954 -0.85989,1.4013 -1.12899,0.68836 -1.5287,0.66359 -2.80794,-0.17395 -0.8443,-0.55278 -1.32285,-1.21071 -2.27271,-3.12464 -0.66176,-1.33343 -1.20321,-2.56615 -1.20321,-2.73937 0,-0.17322 -0.19247,-0.31494 -0.42773,-0.31494 -0.31858,0 -0.38347,0.15192 -0.25428,0.59531 0.0954,0.32742 0.23649,1.01203 0.31355,1.52136 0.13034,0.86149 0.34909,1.47841 1.57233,4.43447 0.52172,1.26078 0.36905,1.69461 -0.36318,1.03196 -0.80611,-0.72952 -1.17732,-0.5524 -0.71519,0.34126 0.55577,1.07473 0.5114,2.05353 -0.1081,2.38508 -0.74881,0.40075 -1.17042,0.33921 -1.81959,-0.26558 z M -378.57412,738.69 c -1.66867,-0.91884 -3.22404,-3.02163 -3.527,-4.76836 l -0.19805,-1.14188 h -2.60884 c -2.2345,0 -2.61835,-0.0634 -2.67504,-0.44198 -0.0364,-0.2431 0.1122,-0.69668 0.33024,-1.00798 0.34975,-0.49934 0.55854,-0.54573 1.7733,-0.39395 1.10674,0.13827 1.44868,0.0855 1.74287,-0.26897 0.30975,-0.37323 0.31024,-0.47545 0.003,-0.66525 -0.29983,-0.18531 -0.30274,-0.29667 -0.0167,-0.64129 0.30852,-0.37174 0.17461,-0.41704 -1.23278,-0.41704 -1.22575,0 -1.68262,-0.11463 -2.04269,-0.5125 -0.53191,-0.58775 -0.35178,-1.075 0.3974,-1.075 0.28246,0 0.51355,-0.11906 0.51355,-0.26458 0,-0.14553 -0.28307,-0.26459 -0.62906,-0.26459 -0.74812,0 -1.34384,-0.62644 -1.12875,-1.18696 0.30898,-0.80518 -0.18125,-1.32504 -1.28489,-1.36257 -0.58209,-0.0198 -1.29646,-0.0793 -1.5875,-0.13229 -0.42254,-0.0769 -0.54511,0.0666 -0.60826,0.71233 -0.0435,0.44475 0.0382,1.11714 0.18157,1.49421 0.21707,0.57092 0.4847,0.71638 1.60044,0.86984 1.11245,0.153 1.33979,0.27595 1.33979,0.72457 0,0.48797 -0.11507,0.52453 -1.18807,0.37746 -1.06641,-0.14617 -1.23265,-0.0948 -1.62334,0.50146 -0.2394,0.36536 -0.38938,0.70026 -0.33329,0.7442 0.0561,0.0439 0.75533,0.24925 1.55385,0.45622 0.98033,0.2541 1.48079,0.52648 1.54091,0.83868 0.13839,0.71857 -0.60927,0.83155 -3.0206,0.45644 -1.22301,-0.19026 -2.30773,-0.26184 -2.41049,-0.15909 -0.10276,0.10276 0.12494,0.44946 0.506,0.77044 0.88479,0.7453 1.33178,3.09715 0.58864,3.09715 -0.24754,0 -0.5948,0.19794 -0.7717,0.43986 -0.51859,0.7092 -1.182,0.25419 -1.14297,-0.78393 0.0634,-1.68552 -0.52289,-1.97312 -1.18628,-0.58198 -0.6793,1.42451 -1.11318,1.18892 -1.13773,-0.61778 -0.0283,-2.08283 -0.16543,-2.25064 -1.65882,-2.02989 -2.10532,0.31122 -2.96333,1.6225 -1.15934,1.77181 0.8937,0.074 1.00009,0.16314 1.07184,0.8984 0.0868,0.88962 -0.23778,1.27134 -1.29527,1.52319 -0.51886,0.12358 -0.8344,0.006 -1.29244,-0.48155 -0.50863,-0.54142 -0.58363,-0.84336 -0.46684,-1.87952 0.0765,-0.67896 0.24714,-1.30905 0.37914,-1.40019 0.132,-0.0912 0.50939,-0.55145 0.83865,-1.0229 0.77593,-1.11102 3.05283,-1.85595 4.32125,-1.41378 2.45653,0.85635 4.55068,-0.66762 3.75755,-2.73448 -0.16367,-0.42652 -0.89774,-0.59374 -0.89774,-0.2045 0,0.11771 -0.16571,0.44063 -0.36824,0.71761 -0.31287,0.42789 -0.43222,0.45051 -0.79375,0.15047 -0.23403,-0.19423 -0.42551,-0.55593 -0.42551,-0.80379 0,-0.55281 1.07288,-1.60122 1.6386,-1.60122 0.22763,0 0.55826,-0.34858 0.73473,-0.77462 0.57573,-1.38994 1.11614,-1.68692 2.43009,-1.33546 0.63234,0.16914 1.37909,0.42959 1.65945,0.57877 0.58422,0.31086 1.13265,-0.24035 1.37214,-1.37911 0.26214,-1.24643 0.62442,-1.86013 1.27235,-2.15534 1.2654,-0.57656 1.9748,0.37185 1.04591,1.39827 -0.39836,0.44018 -0.3889,0.56282 0.12825,1.66301 0.65614,1.39587 1.28574,1.80051 2.62812,1.68905 1.23828,-0.10281 1.3163,-0.75467 0.1272,-1.0628 -1.03007,-0.26692 -1.49031,-1.02586 -1.25947,-2.07687 0.19792,-0.90112 0.65414,-1.00434 1.12273,-0.25401 0.2776,0.4445 0.51861,0.50062 1.585,0.36901 0.69168,-0.0854 1.99229,-0.44032 2.89024,-0.7888 2.30653,-0.89513 5.47779,-0.89033 7.41418,0.0112 1.0502,0.48897 1.5034,0.89354 1.92361,1.71721 0.56308,1.10373 1.22653,1.39751 1.50678,0.6672 0.0875,-0.22797 -0.0791,-0.66893 -0.37477,-0.99219 -1.08988,-1.19148 -0.91652,-2.65125 0.19536,-1.64501 0.35453,0.32084 0.62493,0.37461 0.97551,0.19396 0.6133,-0.31601 1.14649,-0.13346 1.14649,0.39251 0,0.35799 0.0761,0.35542 0.65215,-0.022 0.84992,-0.55688 1.10903,-0.53892 1.27304,0.0883 0.20124,0.76952 -1.27717,2.65944 -2.08037,2.65944 -0.80207,0 -0.82307,0.32274 -0.0433,0.66486 0.8395,0.36831 0.82405,1.5517 -0.0218,1.6715 -0.33942,0.0481 -0.82169,-0.0977 -1.0717,-0.32397 -0.36708,-0.3322 -0.64471,-0.35888 -1.44248,-0.13861 -1.14804,0.31699 -1.83732,0.14814 -2.99566,-0.73387 -0.45941,-0.34982 -1.24351,-0.70227 -1.74245,-0.78324 -2.39722,-0.38902 -5.38168,2.8806 -5.02906,5.50956 0.0974,0.72647 0.0381,1.01294 -0.20968,1.01294 -0.21358,0 -0.11525,0.24512 0.25747,0.64187 0.71757,0.76381 0.53305,1.21021 -0.50025,1.21021 -0.57906,0 -0.87773,-0.2131 -1.29875,-0.92668 -0.30071,-0.50967 -0.48052,-1.09928 -0.39957,-1.31025 0.081,-0.21096 0.0566,-0.53019 -0.0542,-0.7094 -0.56082,-0.90742 -0.6905,2.39101 -0.13483,3.42929 0.15419,0.2881 0.81814,0.78417 1.47545,1.10237 0.65731,0.31819 1.19511,0.66317 1.19511,0.76661 0,0.43454 -0.69107,0.82306 -1.46402,0.82306 -0.99704,0 -1.27943,0.22503 -0.88253,0.70326 0.35485,0.42757 2.4277,0.47186 3.18234,0.068 0.74302,-0.39765 1.73828,-0.0913 1.95861,0.60292 0.30498,0.96092 -0.92081,1.80268 -2.61071,1.79278 -0.75587,-0.004 -1.61244,-0.13916 -1.90348,-0.29942 z m -2.19114,-10.46719 c 0.76321,-1.52819 2.85751,-3.43771 4.82545,-4.39972 1.35802,-0.66385 1.77557,-0.74287 3.4728,-0.65716 1.55622,0.0786 2.05236,0.21313 2.56626,0.69592 0.39124,0.36754 0.80609,0.53363 1.07508,0.43041 0.91168,-0.34984 0.39967,-0.97061 -1.55466,-1.88487 -3.17962,-1.48747 -5.89327,-0.69467 -9.51119,2.77872 -1.63329,1.56803 -2.10912,2.18615 -2.06547,2.68311 0.0312,0.35514 -0.0602,0.78654 -0.203,0.95865 -0.14285,0.17212 -0.18423,0.50967 -0.092,0.75011 0.23309,0.60743 0.73501,0.14991 1.48669,-1.35517 z m -2.2959,-0.35545 c 0.26153,-0.42316 -0.0313,-0.58272 -0.68736,-0.3745 -0.4564,0.14485 -0.50413,0.23599 -0.21837,0.41698 0.48495,0.30714 0.69577,0.29725 0.90573,-0.0425 z m -2.25984,-2.24875 c 0,-0.0823 -0.12325,-0.37998 -0.27389,-0.66146 -0.46825,-0.87492 -1.56457,-0.48907 -1.21306,0.42694 0.13664,0.35608 1.48695,0.56905 1.48695,0.23452 z m 38.69567,9.21873 c -0.81413,-0.10104 -1.56502,-0.86774 -1.20372,-1.22905 0.29733,-0.29732 3.13828,-0.17685 3.46194,0.14681 0.39088,0.39088 -0.32741,1.29641 -0.97666,1.23127 -0.23211,-0.0233 -0.80881,-0.0903 -1.28156,-0.14903 z m 14.15818,-0.2228 c -0.74387,-0.40362 -1.52468,-1.61366 -1.52468,-2.36284 0,-0.23212 0.29611,-0.71814 0.65801,-1.08005 0.62104,-0.62103 0.70096,-0.6358 1.42241,-0.26272 0.75456,0.39019 1.62375,2.00913 1.62375,3.02434 0,0.26474 -0.30326,0.61951 -0.67391,0.78839 -0.79557,0.36249 -0.61662,0.37522 -1.50558,-0.10712 z m 1.12116,-1.83478 c 0,-0.51327 -0.86332,-0.94551 -1.32214,-0.66195 -0.2966,0.18331 -0.30684,0.36047 -0.053,0.91751 0.26691,0.58582 0.39482,0.64736 0.84485,0.40651 0.29167,-0.1561 0.53032,-0.45403 0.53032,-0.66207 z m -73.56047,1.30634 c -0.25442,-0.66917 -0.30215,-0.6872 -0.74887,-0.28293 -0.59606,0.53943 -1.19749,0.55134 -1.62829,0.0323 -0.41191,-0.49632 -0.49845,-3.52808 -0.10991,-3.85054 0.15692,-0.13023 1.13604,-0.25427 2.17583,-0.27564 1.59594,-0.0328 1.91506,-0.11612 2.04791,-0.5347 0.21433,-0.6753 1.09177,-0.62599 1.47103,0.0827 0.26688,0.49866 0.2178,0.65387 -0.35557,1.12448 -0.36586,0.30029 -0.73353,0.90316 -0.81705,1.33972 -0.53746,2.80923 -0.57684,2.90987 -1.17202,2.99491 -0.43889,0.0627 -0.66138,-0.0997 -0.86306,-0.63023 z m 56.62713,-3.42301 c -0.38372,-0.46236 -0.38812,-0.46147 1.97771,-0.3974 1.7387,0.0471 2.23621,0.2117 1.68856,0.55871 -0.625,0.39602 -3.30146,0.27826 -3.66627,-0.16131 z m -11.14929,-0.38888 c -1.13271,-0.34247 -3.66738,-2.39226 -3.66738,-2.96581 0,-0.28215 0.0893,-0.47059 0.19844,-0.41876 0.10914,0.0518 0.53144,0.26056 0.93845,0.46384 0.58685,0.29311 0.96873,0.30855 1.84512,0.0746 1.35978,-0.36295 1.59393,-0.23609 1.37809,0.74663 -0.24428,1.1122 0.54179,0.96142 1.16585,-0.22363 0.41035,-0.77921 0.77398,-0.75467 0.97999,0.0661 0.27795,1.10744 -0.0764,1.90488 -0.98757,2.22252 -0.93434,0.32571 -0.89028,0.32489 -1.85099,0.0344 z m 24.564,-0.17524 c -0.41665,-0.41664 -0.16935,-0.92559 0.40977,-0.84334 0.32742,0.0465 0.59531,0.26151 0.59531,0.47779 0,0.42036 -0.69684,0.6738 -1.00508,0.36555 z m -66.15499,-1.59664 c -0.26957,-0.26958 -0.20994,-1.6478 0.096,-2.21952 0.14984,-0.27997 0.62609,-0.69192 1.05833,-0.91544 0.70759,-0.36591 0.86501,-0.36551 1.57966,0.004 1.36793,0.70738 0.9647,2.42444 -0.71974,3.06486 -0.74713,0.28406 -1.76296,0.31736 -2.01429,0.066 z m 1.79045,-0.9221 c 0.74298,-0.33852 1.1375,-1.19468 0.73568,-1.5965 -0.37867,-0.37866 -1.90877,0.47921 -1.90877,1.07018 0,0.42232 0.21076,0.83106 0.42853,0.83106 0.0417,0 0.37671,-0.13714 0.74456,-0.30474 z m -6.86163,0.37525 c -1.10399,-0.15965 -1.71979,-0.79752 -1.71979,-1.78142 0,-0.81299 0.79657,-1.99326 1.34525,-1.99326 0.24682,0 0.92543,0.64901 1.79211,1.71395 0.33175,0.40765 0.40763,0.39593 0.99218,-0.15323 0.34813,-0.32705 0.63296,-0.85078 0.63296,-1.16385 0,-0.7156 -1.04365,-1.71979 -1.78738,-1.71979 -0.72072,0 -0.95177,-0.38592 -0.73887,-1.23417 0.13728,-0.547 0.29366,-0.65118 0.82497,-0.54961 0.36057,0.0689 0.71399,0.0308 0.7854,-0.0847 0.17851,-0.28885 -0.85336,-0.58958 -2.12683,-0.61986 -1.04979,-0.025 -1.05898,-0.0342 -1.1392,-1.13954 -0.0445,-0.6129 0.0408,-1.34179 0.1896,-1.61974 0.42202,-0.78854 2.31889,-0.3487 3.23652,0.75047 1.04578,1.25267 1.68183,1.00916 1.68183,-0.64389 0,-1.60771 0.52016,-1.89296 0.9076,-0.49772 0.15404,0.55472 0.28074,1.21694 0.28155,1.4716 10e-4,0.35077 0.22168,0.46303 0.90969,0.46303 1.01939,0 1.35076,-0.53152 1.05817,-1.6973 -0.14396,-0.57357 -0.0816,-0.68395 0.38618,-0.68395 0.30682,0 0.56606,0.0893 0.57608,0.19843 0.18062,1.96605 0.30337,2.13298 1.81883,2.47348 1.31908,0.29638 1.70767,0.13559 1.33866,-0.55391 -0.41525,-0.77591 -0.31287,-1.54476 0.24549,-1.84359 0.77099,-0.41262 1.34129,0.31179 1.34129,1.70372 0,1.07894 -0.0702,1.18769 -1.18915,1.84347 -0.65403,0.38329 -1.364,1.03502 -1.57771,1.44829 -0.58949,1.13994 -1.53509,1.41147 -1.98538,0.5701 -0.3623,-0.67697 -0.0802,-1.34208 0.56927,-1.34208 0.84428,0 0.39642,-0.63871 -0.62946,-0.89769 -1.93632,-0.48881 -3.12507,0.55952 -3.12507,2.75592 0,1.03622 -1.69004,4.25027 -2.45997,4.67825 -0.59151,0.32881 -1.01147,0.35445 -2.43482,0.14862 z m 3.83646,-7.74343 c 0,-0.14552 -0.11906,-0.26458 -0.26458,-0.26458 -0.14552,0 -0.26459,0.11906 -0.26459,0.26458 0,0.14552 0.11907,0.26458 0.26459,0.26458 0.14552,0 0.26458,-0.11906 0.26458,-0.26458 z m 5.46806,4.85069 c -0.36422,-0.36421 -0.15713,-0.88194 0.35277,-0.88194 0.35278,0 0.52917,0.17639 0.52917,0.52917 0,0.5099 -0.51773,0.71699 -0.88194,0.35277 z m 1.5875,-1.32291 c -0.31092,-0.31092 -0.18863,-1.08522 0.19461,-1.23229 0.48985,-0.18797 0.68733,0.0394 0.68733,0.79131 0,0.58213 -0.49386,0.82906 -0.88194,0.44098 z m 1.7894,-1.49643 c -0.20633,-0.53768 0.0286,-1.2376 0.41546,-1.2376 0.49817,0 0.61456,0.82174 0.17819,1.25811 -0.38805,0.38806 -0.43753,0.38635 -0.59365,-0.0205 z m 1.76634,-1.60078 c -0.37609,-0.45316 0.11939,-3.06242 0.58927,-3.10321 2.4516,-0.21282 3.8842,0.76129 2.5224,1.71513 -0.52362,0.36676 -0.53303,0.42691 -0.12986,0.83008 0.23907,0.23907 0.36702,0.54414 0.28433,0.67793 -0.24157,0.39086 -2.92396,0.29237 -3.26614,-0.11993 z m 59.96942,-0.0859 c -0.22912,-0.43636 -0.0591,-5.77389 0.188,-5.90094 0.14149,-0.0728 0.34847,0.40197 0.45994,1.05496 0.28834,1.68906 0.14249,4.83337 -0.22993,4.95681 -0.16857,0.0559 -0.35667,0.006 -0.41801,-0.11083 z m -17.39947,-0.80573 c 0,-0.12478 0.12884,-0.35572 0.28631,-0.51318 0.20535,-0.20536 0.18811,-0.44354 -0.061,-0.84239 -0.2964,-0.47461 -0.28041,-0.62296 0.10914,-1.0125 0.40312,-0.40313 0.59974,-0.41808 1.68406,-0.12807 0.67521,0.1806 1.29149,0.26453 1.3695,0.18651 0.3123,-0.3123 -1.18478,-1.49856 -2.30252,-1.82447 -1.25572,-0.36615 -1.87945,-1.07314 -0.80862,-0.91655 0.84249,0.12319 0.93019,-0.42102 0.12684,-0.78705 -0.81265,-0.37027 -0.92571,-1.37418 -0.15476,-1.37418 0.28245,0 0.59071,0.12485 0.68501,0.27743 0.11722,0.18966 0.28958,0.17941 0.54479,-0.0324 0.49332,-0.40942 1.07581,0.0601 1.29119,1.04071 0.19036,0.86672 1.10078,2.41843 1.41893,2.41843 0.12535,0 0.2164,-0.74062 0.20233,-1.64582 -0.0216,-1.39184 0.0487,-1.66079 0.45618,-1.74281 0.31421,-0.0633 0.532,0.0951 0.62617,0.4552 0.17595,0.67282 0.31727,0.68912 0.7727,0.0892 0.31221,-0.41128 0.35243,-0.35141 0.3599,0.53571 0.007,0.82573 -0.10617,1.0423 -0.65304,1.25023 -0.87576,0.33296 -0.87113,1.31553 0.0133,2.82473 1.05191,1.79493 0.49664,2.14277 -1.57353,0.98573 -1.36594,-0.76344 -1.92763,-0.70658 -2.05729,0.20825 -0.0728,0.51356 -0.26676,0.62452 -1.21115,0.69285 -0.61846,0.0448 -1.12448,-0.0207 -1.12448,-0.14552 z m -33.19802,-2.51552 c -0.0597,-0.18191 -0.14645,-0.56886 -0.19284,-0.8599 -0.12569,-0.78862 -1.12471,-0.79663 -2.45055,-0.0196 -1.21848,0.71407 -2.25859,0.8898 -2.25859,0.38159 0,-0.16473 0.22813,-0.67074 0.50695,-1.12448 0.27883,-0.45374 0.58539,-1.24829 0.68125,-1.76568 0.15462,-0.83451 0.0974,-0.97574 -0.50695,-1.2511 -0.53823,-0.24523 -0.68125,-0.49996 -0.68125,-1.21335 V 710.48 l 1.25677,0.0374 c 1.22321,0.0364 1.25904,0.061 1.34156,0.92249 0.0466,0.4868 -0.11266,1.37977 -0.35399,1.98437 l -0.43878,1.09928 0.69091,-0.64725 c 0.38,-0.35599 1.01065,-1.27872 1.40145,-2.05052 0.69357,-1.36975 1.3318,-1.92939 0.99687,-0.87411 -0.117,0.36863 -0.0475,0.52917 0.22893,0.52917 0.21828,0 0.47245,-0.23813 0.56482,-0.52917 0.22607,-0.71227 1.19063,-0.70555 1.19063,0.008 0,0.29561 -0.19311,0.61157 -0.42913,0.70214 -0.36696,0.14082 -0.3401,0.23182 0.1854,0.62821 0.52367,0.395 0.56276,0.52589 0.26443,0.88536 -0.19254,0.232 -0.70408,0.42182 -1.13675,0.42182 -0.89997,0 -2.32354,0.75205 -2.32354,1.2275 0,0.22047 0.51036,0.30539 1.64476,0.27368 1.43399,-0.0401 1.65806,0.0196 1.74856,0.46571 0.0571,0.28142 -0.0949,0.65694 -0.33767,0.83449 -0.28226,0.20639 -0.34034,0.38533 -0.16106,0.49613 0.53785,0.33241 0.27454,0.67124 -0.52164,0.67124 -0.44113,0 -0.85088,-0.14883 -0.91055,-0.33073 z m -11.25198,-1.07963 -1.19062,-0.30944 0.0905,-1.65364 c 0.0821,-1.5013 0.0423,-1.65365 -0.43254,-1.65365 -0.43661,0 -0.55358,0.24456 -0.70797,1.48027 -0.16074,1.28654 -0.2513,1.46292 -0.69195,1.34769 -0.32212,-0.0842 -0.50699,0.003 -0.50699,0.23952 0,0.50465 -0.65812,0.46994 -1.19087,-0.0628 -0.30819,-0.30819 -0.37787,-0.63581 -0.23914,-1.12448 0.10766,-0.37926 0.20557,-1.3337 0.21757,-2.12099 0.0136,-0.89215 0.14641,-1.47361 0.35254,-1.5434 0.24271,-0.0822 0.33073,0.35747 0.33073,1.65191 0,2.05582 0.56226,2.316 0.81196,0.37572 0.20315,-1.57852 1.04223,-2.93108 3.18757,-5.13822 2.27616,-2.34172 3.2878,-4.67643 3.04756,-7.03333 -0.19574,-1.9204 -0.30295,-2.16408 -1.26499,-2.87535 -1.15165,-0.85145 -1.49966,-0.35422 -0.63937,0.91349 1.45028,2.1371 0.58719,5.50884 -2.10002,8.20393 -2.2562,2.26283 -4.53291,3.13158 -8.21219,3.13364 -2.42754,10e-4 -5.17833,-2.36308 -5.53777,-4.75999 -0.16374,-1.09194 -0.10261,-1.31562 0.5952,-2.17778 0.50161,-0.61976 1.00215,-0.96086 1.40997,-0.96086 0.58171,0 0.64287,0.12699 0.76458,1.5875 0.12867,1.54402 0.15196,1.5852 0.85041,1.50366 0.58256,-0.068 0.7502,0.044 0.88803,0.59311 0.0935,0.37232 0.65695,1.03513 1.25223,1.4729 0.87855,0.6461 1.34355,0.79595 2.4698,0.79595 1.74608,0 2.02552,-0.38016 0.55213,-0.75117 -1.85016,-0.46588 -3.16304,-2.1748 -1.4879,-1.93676 1.16557,0.16563 4.06453,0.0252 4.88449,-0.23662 1.68218,-0.53711 3.57074,-3.32889 3.14007,-4.64184 -0.0908,-0.27687 -0.45936,-1.0702 -0.81898,-1.76296 -0.71649,-1.38024 -0.72828,-2.23839 -0.0367,-2.67182 0.53345,-0.33434 1.90212,0.24125 3.40607,1.4324 0.9125,0.72271 0.9764,0.87699 1.22336,2.95368 0.28797,2.4216 0.004,4.43171 -0.92626,6.55676 -0.28666,0.65485 -0.57571,1.80738 -0.64231,2.5612 -0.11256,1.27383 -0.076,1.38188 0.51732,1.53081 0.81124,0.20361 0.70896,1.03271 -0.14234,1.15392 -0.86851,0.12366 -1.82507,-0.59723 -2.02989,-1.52976 -0.22046,-1.00374 -0.59849,-1.24934 -1.12011,-0.72771 -0.60032,0.60032 -0.21425,2.22367 0.74108,3.11609 0.4253,0.39729 0.77327,0.9127 0.77327,1.14536 0,0.53366 0.62433,0.54908 1.05833,0.0261 0.18116,-0.21829 0.5459,-0.39688 0.81054,-0.39688 1.22819,0 0.91525,1.71076 -0.41458,2.2664 -1.05833,0.44219 -1.43285,0.44556 -3.04179,0.0274 z m -8.94394,-1.30525 c -0.19753,-0.238 -0.13311,-0.75264 0.22354,-1.78594 0.27557,-0.79837 0.50493,-1.66867 0.50968,-1.934 0.006,-0.31438 0.16992,-0.45179 0.47166,-0.3945 0.35331,0.0671 0.48245,0.40082 0.54504,1.40847 0.0451,0.72629 0.19394,1.43364 0.33073,1.57189 0.52231,0.52787 0.25205,1.13704 -0.57812,1.30307 -1.11556,0.22311 -1.18346,0.21548 -1.50253,-0.16899 z m 69.53353,-8.21848 c 0,-0.19292 0.29765,-0.63039 0.66145,-0.97217 0.36381,-0.34177 0.66146,-0.89831 0.66146,-1.23674 0,-0.75829 -0.2694,-0.78138 -0.87429,-0.0749 -0.6525,0.76207 -1.00858,0.40678 -0.81371,-0.8119 0.10904,-0.68185 0.0192,-1.39813 -0.26401,-2.10605 -0.86762,-2.1684 -0.33375,-2.4565 1.35523,-0.73133 1.94024,1.98179 2.52998,4.40951 1.37087,5.64332 -0.65357,0.69569 -2.097,0.89516 -2.097,0.28978 z m -41.02361,-0.99681 c -0.69823,-1.30466 0.41108,-2.53302 2.04768,-2.26744 1.12908,0.18323 1.31993,-0.20592 0.75918,-1.54798 -0.46185,-1.10536 -0.21304,-2.70062 0.51552,-3.30526 0.53504,-0.44405 0.49731,-0.78143 -0.16641,-1.48793 -0.73365,-0.78093 -0.50623,-2.28761 0.43876,-2.90678 l 0.64639,-0.42354 -0.81673,-0.76294 c -0.76792,-0.71734 -0.80702,-0.84608 -0.65428,-2.15415 0.0893,-0.76517 0.19021,-1.80574 0.22412,-2.31238 l 0.0617,-0.92118 -1.45521,-0.005 c -1.34043,-0.004 -1.46241,-0.0559 -1.54648,-0.6515 -0.12894,-0.91342 0.59546,-1.33774 2.28381,-1.33774 1.0299,0 1.64889,0.15591 2.21261,0.55731 0.70276,0.50041 0.82848,0.51652 1.23146,0.15781 0.39245,-0.34933 2.14607,-0.5878 3.56421,-0.48468 0.56565,0.0411 1.00866,1.07958 0.80036,1.87611 -0.13165,0.50344 -0.30411,0.56523 -1.37172,0.49142 l -1.22113,-0.0844 0.0848,2.24575 c 0.0814,2.15635 0.057,2.2679 -0.61306,2.80222 l -0.69787,0.55646 0.6792,0.44503 c 0.78507,0.5144 0.94915,1.99609 0.28233,2.5495 -0.21828,0.18116 -0.39688,0.47882 -0.39688,0.66146 0,0.18264 0.1786,0.4803 0.39688,0.66146 0.28412,0.2358 0.3979,0.86515 0.40049,2.21521 0.006,2.92527 0.0411,2.98384 2.01508,3.3276 1.49174,0.25977 1.80217,0.239 2.48865,-0.16651 0.57065,-0.33709 0.78432,-0.66401 0.78432,-1.20002 0,-0.85648 0.82685,-1.79503 1.5814,-1.79503 0.75558,0 1.41601,1.14437 1.25943,2.18231 -0.0714,0.47322 0.047,1.30664 0.26299,1.85205 0.70768,1.78664 0.65575,1.80663 -4.62014,1.77813 -3.57887,-0.0193 -4.97081,-0.12506 -5.8298,-0.44284 -1.03604,-0.38329 -1.1677,-0.38191 -1.60833,0.0168 -0.55817,0.50513 -1.17979,0.55168 -1.93926,0.14523 -0.39066,-0.20907 -0.62021,-0.20907 -0.82928,0 -0.4462,0.4462 -0.92879,0.34439 -1.25478,-0.26472 z m 6.14749,-3.83957 c -0.0459,-0.42129 -0.25424,-1.0297 -0.46302,-1.352 -0.20879,-0.3223 -0.37962,-0.77581 -0.37962,-1.0078 0,-0.23199 -0.11906,-0.34821 -0.26458,-0.25828 -0.14552,0.0899 -0.26458,0.80543 -0.26458,1.58997 0,1.07958 0.11259,1.49191 0.46302,1.69565 0.69838,0.40604 1.00144,0.18343 0.90878,-0.66754 z m -0.3661,-11.65682 c 0.0462,-0.46142 -0.0828,-0.93074 -0.3069,-1.11672 -0.31351,-0.26019 -0.46603,-0.20732 -0.80725,0.27984 -0.54317,0.77547 -0.53174,1.18582 0.0423,1.51957 0.68454,0.39799 0.9827,0.20808 1.07185,-0.68269 z m 40.42049,15.36984 c -0.58535,-0.58534 -0.52447,-1.45742 0.11339,-1.62423 1.4688,-0.38409 -0.10899,-2.85234 -2.24896,-3.51819 -1.91791,-0.59677 -3.33243,-1.33082 -3.14594,-1.63257 0.0986,-0.1596 -0.069,-0.4822 -0.37261,-0.71689 -0.30357,-0.2347 -0.58858,-0.78057 -0.63336,-1.21305 -0.0764,-0.73751 0.0118,-0.81979 1.42011,-1.32514 0.82584,-0.29635 1.58983,-0.62711 1.69775,-0.73502 0.10791,-0.10792 0.40063,-0.19622 0.65049,-0.19622 0.5408,0 2.36794,-1.94512 2.36794,-2.52085 0,-0.22146 -0.29042,-0.51308 -0.64537,-0.64803 -1.40299,-0.53341 -1.36509,-2.38737 0.0488,-2.38737 1.02611,0 1.84366,0.64 2.05672,1.61005 0.27555,1.25458 -0.79736,3.32613 -2.05547,3.96865 -0.54571,0.2787 -1.46087,0.74397 -2.0337,1.03394 -1.76153,0.89169 -1.70168,1.43201 0.11776,1.06296 1.41989,-0.28802 3.53808,-1.09768 4.42744,-1.69237 0.72246,-0.48309 1.52339,-0.43074 1.52339,0.0996 0,0.15321 -0.29765,0.41418 -0.66146,0.57994 -0.69355,0.31601 -0.91012,1.01019 -0.31515,1.01019 0.19047,0 0.57742,-0.17481 0.8599,-0.38846 0.28247,-0.21365 0.76303,-0.39224 1.06789,-0.39688 1.2128,-0.0184 1.90534,1.85978 1.0143,2.75082 -0.5137,0.5137 -0.37483,0.53745 -1.43631,-0.24569 -1.55317,-1.14589 -2.19352,-0.6615 -0.90435,0.68411 0.88737,0.92621 0.46547,1.16424 -0.84246,0.47532 -1.07385,-0.56563 -3.49622,-1.1786 -5.25723,-1.33032 -1.54638,-0.13323 -1.43959,0.44755 0.17755,0.96556 3.82464,1.22513 5.19935,2.33589 5.63836,4.55577 0.3024,1.52907 -1.59461,2.80923 -2.62943,1.77441 z m -4.45618,-8.73991 c -0.0879,-0.0879 -0.31613,-0.0973 -0.50712,-0.0209 -0.21107,0.0845 -0.14837,0.14715 0.15985,0.15985 0.27892,0.0115 0.43519,-0.051 0.34727,-0.13897 z m -65.40766,5.08376 c -0.82231,-0.82231 -0.85113,-1.74856 -0.11432,-3.67396 0.4362,-1.13987 0.76966,-1.5652 1.5875,-2.02485 l 1.0353,-0.58187 v 0.55924 c 0,0.30757 -0.18453,0.91608 -0.41007,1.35223 -0.37079,0.71702 -0.3704,0.87253 0.004,1.62319 0.45652,0.91512 0.15142,1.64212 -0.44068,1.05003 -0.44609,-0.44609 -1.00541,-0.39509 -1.00541,0.0917 0,0.22505 0.35879,0.612 0.79732,0.8599 0.95946,0.54236 0.92565,1.213 -0.0669,1.3277 -0.49302,0.057 -0.93059,-0.12708 -1.3868,-0.58329 z m -4.66229,-0.50103 c -0.60537,-0.40686 -0.97797,-0.92085 -1.14073,-1.5736 -0.22174,-0.88932 -0.16272,-1.06576 0.71461,-2.13643 0.52596,-0.64187 1.34911,-1.31912 1.8292,-1.505 2.04485,-0.79171 3.43588,-1.52731 3.18333,-1.68339 -0.14926,-0.0923 -1.38502,0.075 -2.74612,0.37176 -4.61566,1.00621 -4.47429,1.00088 -5.6541,0.21327 -0.58449,-0.39019 -1.29492,-0.96602 -1.57873,-1.27962 -0.47312,-0.5228 -0.48302,-0.62917 -0.11907,-1.27972 0.48317,-0.86366 1.30982,-1.02441 2.21569,-0.43086 0.63382,0.4153 0.67711,0.41523 0.67711,-0.001 0,-0.24458 -0.11939,-0.66777 -0.2653,-0.94041 -0.39338,-0.73503 0.15492,-0.93163 0.98224,-0.3522 2.38566,1.67084 5.66539,2.63344 6.68398,1.96174 0.43647,-0.28783 0.58752,-0.20183 -1.60738,-0.91515 -1.22873,-0.39932 -1.90019,-0.75825 -3.88484,-2.07663 -1.08016,-0.71754 -1.63892,-1.83828 -1.64264,-3.29476 -0.002,-0.66338 1.25514,-1.67165 2.08379,-1.67165 1.1531,0 1.81661,2.20517 0.68812,2.28698 -0.28844,0.0209 -0.67326,0.0507 -0.85516,0.0661 -1.18377,0.10066 1.60994,3.27652 3.13373,3.56239 0.51196,0.096 1.37065,0.39885 1.90819,0.67291 1.19202,0.60772 1.24729,0.38161 0.15937,-0.65195 -1.23935,-1.17742 -1.91921,-2.68551 -1.94108,-4.30577 -0.0159,-1.17767 0.0846,-1.496 0.60556,-1.91823 0.76052,-0.61637 1.70237,-0.65294 2.17421,-0.0844 0.29882,0.36005 0.25513,0.4948 -0.29833,0.92016 -0.35663,0.27408 -0.72498,0.50097 -0.81855,0.50421 -0.33205,0.0115 -0.41825,0.67673 -0.17219,1.3288 l 0.2496,0.66146 0.38554,-0.7276 c 0.22079,-0.41669 0.60805,-0.72761 0.90625,-0.72761 0.62645,0 0.64504,0.19867 0.11756,1.25602 -0.29039,0.5821 -0.33252,0.98202 -0.1506,1.42972 0.1389,0.34185 0.31902,0.93475 0.40026,1.31754 0.0822,0.38748 0.37677,0.75589 0.66445,0.83112 0.65466,0.17119 0.81163,0.008 0.81332,-0.8436 7.4e-4,-0.37593 0.29469,-1.15976 0.6532,-1.74184 0.35852,-0.58208 0.65556,-1.37121 0.66011,-1.75363 0.0101,-0.84629 -0.61991,-2.40779 -1.39927,-3.46837 -0.68637,-0.93404 -2.77061,-2.05404 -3.82243,-2.05404 -0.4123,0 -0.89367,-0.14405 -1.06973,-0.3201 -0.2504,-0.2504 -0.48426,-0.22312 -1.07412,0.12532 -0.86989,0.51386 -1.09286,0.38926 -1.09286,-0.61067 0,-0.95811 0.43229,-1.26297 1.93031,-1.36126 0.68939,-0.0452 1.25663,-0.20131 1.26053,-0.34683 0.009,-0.35305 -1.79949,-0.64934 -2.79397,-0.45764 -0.87915,0.16948 -2.42269,1.55521 -2.30809,2.07212 0.14316,0.6457 -0.436,0.62891 -0.95242,-0.0276 -0.32543,-0.41371 -0.46808,-0.88389 -0.37553,-1.23777 0.12051,-0.46083 0.0605,-0.5366 -0.31182,-0.39373 -0.25357,0.0973 -0.51084,0.17692 -0.57169,0.17692 -0.31077,0 -0.0501,2.49025 0.34804,3.32519 0.45255,0.94901 0.45038,0.96863 -0.1616,1.46419 -0.89098,0.72147 -1.2635,0.62985 -2.00695,-0.49358 -0.55904,-0.84477 -0.64408,-1.23616 -0.5605,-2.57969 0.0542,-0.8711 0.17796,-1.88148 0.27504,-2.24528 0.21428,-0.80298 2.51835,-2.31798 3.84618,-2.52898 2.1675,-0.34442 2.11134,-0.30566 1.99521,-1.37673 -0.059,-0.54399 -0.18546,-1.24549 -0.28106,-1.55889 -0.13363,-0.43808 -0.0397,-0.61236 0.40618,-0.75388 0.79853,-0.25345 1.12266,0.16492 1.16668,1.50588 0.0279,0.84978 -0.0995,1.25832 -0.49969,1.6018 -0.63929,0.54875 -0.33636,0.84882 1.13568,1.12498 1.24479,0.23352 3.96269,2.10859 5.29731,3.65459 1.52579,1.76746 2.48435,3.93008 2.62894,5.9312 0.14595,2.01988 -0.0162,2.71676 -0.86752,3.7285 -0.56271,0.66874 -0.59894,0.80986 -0.24302,0.94644 0.57485,0.22059 0.51607,0.2445 1.39408,-0.5671 1.01061,-0.93415 1.31052,-2.9594 0.8218,-5.54951 -0.26706,-1.41537 -0.59636,-2.13787 -1.59863,-3.50741 -0.69425,-0.94867 -1.67999,-2.11428 -2.19052,-2.59025 -2.03543,-1.89765 -2.95502,-7.29352 -1.1232,-6.59058 0.32077,0.12309 0.37032,0.43653 0.24128,1.52608 -0.13114,1.10727 -0.091,1.34739 0.20847,1.24756 0.20397,-0.068 0.44386,-0.57272 0.53308,-1.12163 0.0892,-0.54891 0.31396,-1.0918 0.49941,-1.20641 0.66158,-0.40888 2.36268,0.38155 2.37894,1.10539 0.005,0.2425 -1.46084,1.27478 -1.81075,1.27478 -0.42412,0 -0.65566,1.72018 -0.31678,2.35339 0.42413,0.79249 0.74478,0.69293 1.18848,-0.36901 0.35192,-0.84226 0.4839,-0.92604 1.45876,-0.92604 1.18968,0 1.40017,0.41459 0.58502,1.15229 -0.62652,0.567 -0.42117,1.94743 0.67482,4.53625 0.43125,1.01865 0.8552,2.54421 0.94211,3.39015 0.21712,2.11327 -0.22583,4.65618 -0.94796,5.44215 -0.7669,0.8347 -2.48034,1.60571 -3.58444,1.61293 -0.54408,0.004 -1.11836,0.2268 -1.4808,0.57563 -0.53782,0.51765 -0.55907,0.63592 -0.232,1.29156 0.46527,0.93264 0.23029,1.50491 -0.70201,1.70968 -0.41019,0.0901 -1.19932,0.39502 -1.75363,0.67762 -0.5543,0.2826 -1.19101,0.51441 -1.4149,0.51514 -0.58153,0.002 -1.78573,1.08277 -1.99017,1.78637 -0.13889,0.47804 -0.0141,0.68853 0.62596,1.05588 1.27659,0.73266 1.39865,2.4481 0.1742,2.4481 -0.32671,0 -0.99859,-0.2719 -1.49305,-0.60421 z m 61.58582,-1.42519 c -0.0975,-0.0975 0.0157,-0.47191 0.25162,-0.83196 0.39506,-0.60294 0.39513,-0.67355 0.001,-0.89416 -0.68416,-0.38288 -0.5005,-1.00571 0.34652,-1.17512 l 0.77453,-0.1549 -0.68655,-0.59054 c -0.7222,-0.6211 -0.69677,-1.46767 0.044,-1.46767 0.66849,0 2.5334,1.96968 2.52894,2.67101 -0.005,0.81036 -0.15786,1.0077 -1.46538,1.89379 -1.0974,0.7437 -1.48259,0.86165 -1.79469,0.54955 z m 3.96968,-1.58658 c -0.33891,-0.3389 -0.17279,-1.38683 0.25806,-1.62794 0.7452,-0.41704 1.41763,-0.062 1.41763,0.74855 0,0.86498 -1.10842,1.44667 -1.67569,0.87939 z m -54.28369,-2.42486 c -0.95732,-0.66177 -1.05833,-0.84022 -1.05833,-1.86976 0,-1.03332 0.1027,-1.21256 1.1149,-1.9458 0.92301,-0.66862 1.1839,-0.75036 1.51579,-0.47491 0.31011,0.25736 0.33612,0.45375 0.11487,0.86716 -0.21238,0.39683 -0.19619,0.70234 0.0629,1.1864 0.30388,0.56781 0.28976,0.68504 -0.10945,0.90844 -0.41496,0.23223 -0.42039,0.31071 -0.0573,0.82907 0.96488,1.37757 0.0874,1.65433 -1.58334,0.4994 z m 56.64628,-0.53258 c -0.0743,-0.12014 -10e-4,-0.6548 0.16261,-1.18813 0.21703,-0.70715 0.21933,-1.22474 0.009,-1.91167 -0.23532,-0.76675 -0.21835,-0.96913 0.0913,-1.08794 0.2092,-0.0803 0.53863,-0.0146 0.73207,0.14593 0.34341,0.28501 0.69989,0.15086 0.69989,-0.26338 0,-0.11389 -0.37316,-0.55582 -0.82924,-0.98207 -0.92924,-0.86844 -0.82887,-1.36849 0.27467,-1.36849 0.75091,0 1.50421,0.60728 1.64099,1.32292 0.12203,0.63844 -0.31373,2.97767 -0.68938,3.70068 -0.40747,0.78427 -1.89699,1.94671 -2.0914,1.63215 z m -59.98507,-0.54264 c -0.53255,-0.43123 -0.58224,-0.60727 -0.35472,-1.25677 0.36886,-1.05301 1.3494,-1.17231 1.71574,-0.20876 0.20961,0.55131 0.17795,0.85911 -0.13796,1.34126 -0.49297,0.75236 -0.45249,0.74824 -1.22306,0.12427 z m 55.45307,-0.34535 c -1.56189,-1.05026 -1.82417,-1.77632 -1.79681,-4.97401 0.0157,-1.84103 0.15699,-2.5849 0.77864,-4.10104 0.80004,-1.95118 0.98986,-4.11153 0.41204,-4.68935 -0.38707,-0.38708 -0.40481,-1.17473 -0.0316,-1.40536 0.64821,-0.40062 1.53254,0.14524 1.83659,1.13365 0.58614,1.90551 0.52511,1.83979 1.07844,1.16144 0.82917,-1.01651 0.65685,-2.04476 -0.54882,-3.27472 -0.58208,-0.59382 -1.05833,-1.23931 -1.05833,-1.43443 0,-0.47847 -0.18114,-0.4495 -1.22556,0.19598 -0.75926,0.46925 -0.91374,0.49189 -1.04379,0.15297 -0.37236,-0.97036 1.35298,-2.29122 2.99284,-2.29122 1.04538,0 1.1413,-0.15781 0.67007,-1.10241 -0.63488,-1.27266 -0.12241,-2.56086 1.40214,-3.52452 0.79559,-0.50288 1.37188,-1.12005 1.65405,-1.77137 0.23818,-0.54977 0.57309,-1.05332 0.74426,-1.11901 0.55754,-0.21395 1.39925,0.15413 1.56795,0.68567 0.2386,0.75175 -0.58334,1.57344 -1.37514,1.37472 -1.02199,-0.25651 -0.77967,0.65651 0.29322,1.10479 1.3627,0.56937 2.07376,0.47178 2.90815,-0.39914 0.62696,-0.6544 0.76251,-1.04489 0.82796,-2.38507 0.0566,-1.15992 0.24676,-1.83901 0.68832,-2.45863 0.33554,-0.47084 0.7889,-1.21326 1.00748,-1.64982 0.50129,-1.0012 2.33635,-1.68141 3.32313,-1.23181 0.74579,0.33981 1.08418,1.426 0.74486,2.39087 -0.36345,1.03346 -1.03729,1.00221 -1.73889,-0.0806 -0.33481,-0.51676 -0.73914,-0.94105 -0.89848,-0.94285 -0.59606,-0.007 -1.16549,0.98364 -1.16549,2.02707 0,1.18277 0.52294,1.83515 1.5875,1.98043 0.88572,0.12087 1.09746,1.25101 0.2747,1.46617 -0.86287,0.22565 -0.48227,0.73099 0.62042,0.82376 1.14156,0.096 1.48452,0.64309 0.84572,1.34895 -0.242,0.26741 -0.40527,0.64993 -0.36281,0.85004 0.12647,0.59618 -1.29168,0.59366 -2.13072,-0.004 -0.41338,-0.29435 -0.85962,-0.90656 -0.99164,-1.36047 -0.38685,-1.33004 -0.75959,-0.79536 -0.83582,1.19895 -0.083,2.17164 -0.1789,2.51354 -0.70501,2.51354 -0.28556,0 -0.41297,-0.37549 -0.47132,-1.38906 l -0.08,-1.38905 h -0.92604 c -0.90123,0 -0.92958,0.0318 -1.05833,1.18826 -0.0953,0.856 -0.26176,1.21284 -0.59531,1.27617 -0.35587,0.0676 -0.46302,-0.092 -0.46302,-0.68956 0,-0.4276 -0.24677,-1.09118 -0.54837,-1.47461 -0.44489,-0.56558 -0.76943,-0.69714 -1.7198,-0.69714 -0.84355,0 -1.17142,0.10672 -1.17142,0.38126 0,0.2097 0.11906,0.45485 0.26459,0.54479 0.14552,0.0899 0.26458,0.52483 0.26458,0.96642 0,0.58039 -0.14665,0.84126 -0.52917,0.94129 -0.62648,0.16383 -0.68768,0.48838 -0.13229,0.70151 0.56253,0.21586 0.4917,0.61155 -0.13899,0.77648 -0.50379,0.13175 -0.51286,0.19298 -0.1516,1.02305 0.21134,0.4856 0.44874,1.09127 0.52755,1.34593 0.16464,0.53194 0.91965,0.62497 1.07365,0.13229 0.0568,-0.1819 0.17757,-0.77721 0.26827,-1.32291 0.18965,-1.14117 0.93466,-1.40479 0.93466,-0.33073 0,0.3638 0.13428,0.66146 0.2984,0.66146 0.20026,0 0.24239,-0.35027 0.1281,-1.06503 -0.13151,-0.82241 -0.0782,-1.10038 0.23413,-1.22022 0.74146,-0.28453 1.13636,0.3459 0.92855,1.48233 -0.10501,0.57426 -0.0921,1.66944 0.0287,2.43373 0.15619,0.98804 0.12984,1.44515 -0.0912,1.58174 -0.47928,0.29621 -0.73567,0.004 -0.68357,-0.78014 0.0841,-1.26573 -0.0431,-2.16783 -0.3057,-2.16783 -0.14095,0 -0.19071,0.17086 -0.11057,0.3797 0.39168,1.02072 -2.49655,5.27641 -4.44936,6.55594 -0.36158,0.23692 -1.00269,1.12481 -1.42468,1.97308 -0.65753,1.32176 -0.76749,1.85157 -0.76891,3.7048 -0.001,1.78478 0.0954,2.29312 0.55406,2.91042 0.53706,0.72284 1.69324,1.17784 1.69324,0.66636 0,-0.13787 -0.17179,-0.66183 -0.38175,-1.16435 -1.1623,-2.78177 0.0538,-6.47662 2.98515,-9.06969 1.24048,-1.09733 2.92448,-1.98751 3.75988,-1.98751 0.26656,0 0.55824,-0.11906 0.64818,-0.26458 0.0899,-0.14552 0.38759,-0.26459 0.66146,-0.26459 0.7143,0 0.87533,-0.42201 0.42621,-1.117 -0.53895,-0.834 -0.42948,-4.16377 0.14887,-4.52859 0.58465,-0.36878 1.3425,-0.0153 1.18151,0.55106 -0.0726,0.25538 -0.17009,1.34902 -0.21668,2.43032 l -0.0847,1.966 1.50937,0.58714 c 2.29594,0.89312 3.01674,1.52198 3.63328,3.16982 0.65354,1.74675 0.68249,2.52422 0.13349,3.58585 -0.66235,1.28086 -1.05523,0.82105 -0.95347,-1.11591 0.0765,-1.45544 0.01,-1.77257 -0.46302,-2.2004 -0.549,-0.49684 -0.55236,-0.49481 -0.55236,0.33487 0,1.04784 -0.62619,1.11928 -1.11004,0.12664 -0.44363,-0.91013 -2.28618,-1.92945 -3.57931,-1.98013 -1.19887,-0.047 -3.0512,0.51268 -2.8381,0.85749 0.0827,0.13379 0.7684,0.24489 1.52379,0.24687 1.92891,0.005 2.54443,0.22288 2.73104,0.96637 0.23114,0.92093 -0.0402,1.04057 -1.15463,0.50913 -0.64413,-0.30717 -1.01401,-0.36888 -1.07706,-0.17972 -0.0528,0.15846 -0.57909,0.28811 -1.16949,0.28811 -2.17979,0 -4.68607,1.95302 -5.51639,4.29865 -0.33365,0.94255 -0.30599,1.07577 0.56181,2.7054 0.73028,1.37136 0.85452,1.80791 0.62149,2.18363 -0.50375,0.8122 -1.7259,0.71738 -3.15696,-0.24492 z m -4.49541,-12.93083 c -0.16762,-0.52814 -0.1934,-0.53101 -0.69477,-0.0773 -0.39604,0.35841 -0.62784,0.40407 -0.96823,0.19074 -0.62716,-0.39306 -0.69439,-1.27434 -0.19283,-2.52787 0.2359,-0.58955 0.3781,-1.12271 0.31602,-1.18479 -0.22749,-0.22749 -1.69649,1.82653 -2.03083,2.83961 -0.3335,1.0105 -1.05343,1.45241 -1.05343,0.64661 0,-0.50983 -0.23872,-0.5023 -0.8224,0.0259 -0.25695,0.23254 -0.59374,0.34457 -0.74843,0.24897 -0.44449,-0.27471 -0.32755,-1.12637 0.18176,-1.32381 0.44098,-0.17095 0.44098,-0.19574 0,-0.5205 -0.7316,-0.5388 -0.5498,-0.85932 0.66146,-1.16618 0.61846,-0.15669 1.5412,-0.64447 2.05052,-1.08395 l 0.92604,-0.79906 -1.91217,0.16392 c -1.67717,0.14378 -1.9343,0.10624 -2.09227,-0.30543 -0.0991,-0.25814 -0.0508,-0.67642 0.10727,-0.92952 0.2097,-0.33578 0.2037,-0.54383 -0.0222,-0.76972 -0.23635,-0.23635 -0.22181,-0.36378 0.0615,-0.53886 0.55273,-0.34161 1.46462,0.096 1.56203,0.74968 0.047,0.31517 0.36433,0.7558 0.70525,0.97917 0.57347,0.37575 0.71986,0.35547 1.95633,-0.2711 1.48539,-0.75271 2.41239,-0.86982 2.41239,-0.30478 0,0.20485 -0.31216,0.97414 -0.6937,1.70953 -0.76602,1.47648 -0.70844,2.06616 0.2145,2.19697 0.52701,0.0747 0.62264,0.26031 0.69214,1.34344 0.0821,1.27974 -0.29642,1.71502 -0.61594,0.70828 z m -38.13307,-1.70722 c -0.11871,-0.30936 -0.23958,-0.33334 -0.51749,-0.1027 -0.56974,0.47285 -1.08049,0.1036 -1.27251,-0.91997 -0.18854,-1.00499 -1.37751,-2.63585 -1.75263,-2.40401 -0.12447,0.0769 -0.0582,0.61621 0.14717,1.19841 0.25955,0.73566 0.29758,1.25816 0.12468,1.71293 -0.29864,0.78548 -0.64788,0.82765 -1.22943,0.14845 -0.23826,-0.27827 -0.60377,-0.44048 -0.81225,-0.36048 -0.28496,0.10935 -0.3574,-0.0416 -0.29182,-0.60808 0.0637,-0.5501 0.26544,-0.79521 0.7473,-0.9079 0.36304,-0.0849 0.70016,-0.36254 0.74917,-0.617 0.10118,-0.5254 -0.77584,-2.81894 -1.07851,-2.82045 -0.10914,-5.5e-4 -0.19844,-0.29865 -0.19844,-0.66245 0,-0.64563 0.59806,-0.92756 0.90706,-0.4276 0.25842,0.41813 2.59683,1.39553 2.8065,1.17305 0.11211,-0.11896 0.24614,-0.45441 0.29786,-0.74545 0.0709,-0.39898 0.33759,-0.54937 1.08401,-0.61129 0.9975,-0.0827 1.37951,0.34613 0.58119,0.65248 -0.34416,0.13206 -0.32325,0.21679 0.13229,0.53586 1.22369,0.85711 0.21884,1.8325 -1.42129,1.37963 -0.53877,-0.14876 -1.1114,-0.22653 -1.27253,-0.17282 -0.47423,0.15807 0.77067,1.14676 1.92265,1.52695 1.33225,0.43968 1.7617,0.91015 1.31839,1.44431 -0.25815,0.31105 -0.2403,0.47247 0.0887,0.80141 0.22655,0.22655 0.3447,0.58706 0.26255,0.80113 -0.19617,0.51121 -1.12475,0.50109 -1.32257,-0.0144 z m -16.72692,-3.65366 c -0.19908,-0.2408 -0.30441,-0.65787 -0.23408,-0.92683 0.0703,-0.26896 0.0445,-1.03848 -0.0574,-1.71005 -0.22465,-1.48023 0.0267,-2.04454 0.71207,-1.59869 0.2588,0.16836 0.42833,0.46602 0.37672,0.66146 -0.0516,0.19544 -0.17068,1.17808 -0.26459,2.18364 -0.14902,1.59564 -0.2168,1.77257 -0.5327,1.39047 z m 7.25621,-2.01146 c -0.55739,-0.61591 -0.34327,-1.07501 0.50139,-1.07501 0.71667,0 1.08434,0.69638 0.64632,1.22416 -0.40207,0.48447 -0.59725,0.4591 -1.14771,-0.14915 z m 51.05139,-0.18487 c -0.323,-0.323 -0.50901,-0.35656 -0.73328,-0.13229 -0.16527,0.16527 -0.56631,0.30049 -0.8912,0.30049 -0.79478,0 -1.05746,-0.8971 -0.50816,-1.73544 0.32706,-0.49915 0.36021,-0.77542 0.142,-1.18314 -0.45194,-0.84448 -0.0888,-1.05017 1.85424,-1.05017 1.57073,0 1.84096,0.0703 1.98239,0.51594 0.0901,0.28377 -0.0274,0.88553 -0.26095,1.33724 -0.23359,0.45172 -0.39153,1.02322 -0.35097,1.27 0.0835,0.50813 -0.22625,1.11015 -0.57122,1.11015 -0.12654,0 -0.42482,-0.19475 -0.66285,-0.43278 z m -23.82286,-1.96217 c -0.0946,-0.15306 -0.54811,-0.24235 -1.0078,-0.19844 -0.7386,0.0706 -0.84555,-0.005 -0.91954,-0.64776 -0.10775,-0.9365 -0.35041,-0.91928 -0.93252,0.0661 -0.25789,0.43656 -0.64074,0.79375 -0.8508,0.79375 -0.59431,0 -0.45123,-0.96494 0.3147,-2.12234 0.56627,-0.85568 0.85095,-1.0519 1.52136,-1.04861 0.4536,0.002 0.9664,0.0941 1.13956,0.20422 0.54547,0.34682 1.66955,2.17404 1.66955,2.7139 0,0.54651 -0.64287,0.71101 -0.93451,0.23913 z m 3.93851,-0.14009 c -1.31547,-0.33529 -1.76923,-0.67252 -2.78353,-2.06872 -0.75791,-1.04327 -1.01454,-2.60963 -0.48153,-2.93905 0.59272,-0.36631 1.88486,-0.18847 2.44992,0.3372 0.69789,0.64923 2.2246,0.97998 3.45663,0.74885 1.12676,-0.21138 2.95141,-1.76764 3.62844,-3.09473 0.67823,-1.32945 0.87936,-3.88093 0.34782,-4.41248 -0.49778,-0.49778 -0.33575,-0.96312 0.37172,-1.06753 0.77387,-0.11422 1.38361,1.15037 1.38361,2.86958 0,1.60727 0.43875,1.67118 0.96848,0.14109 0.59872,-1.72934 0.22429,-2.99854 -1.3183,-4.46875 -1.40102,-1.33527 -1.39189,-1.75319 0.0385,-1.76262 0.86508,-0.006 0.65176,-0.8169 -0.29804,-1.13334 -0.52778,-0.17584 -1.09616,-0.13039 -1.97096,0.1576 -1.58518,0.52187 -2.18217,0.24121 -2.18217,-1.02588 0,-1.20097 1.2275,-2.04645 2.64584,-1.8224 1.7902,0.2828 2.00668,0.3674 2.81083,1.09837 1.96788,1.7888 2.97718,5.51942 2.07647,7.67512 -0.78605,1.88128 -0.77916,1.8859 2.94383,1.97667 1.83327,0.0447 3.39678,-0.0221 3.47447,-0.14835 0.0777,-0.12629 0.6802,-0.15575 1.33892,-0.0655 1.1105,0.15221 1.25373,0.10152 1.96773,-0.69642 l 0.77004,-0.86058 -0.74583,-0.16714 c -0.41021,-0.0919 -1.23728,-0.18122 -1.83792,-0.19844 -1.35873,-0.0389 -1.98597,-0.63851 -1.34184,-1.28264 0.37739,-0.37739 0.64179,-0.3922 2.12444,-0.11902 1.90376,0.35079 3.08761,0.40087 3.08761,0.13064 0,-0.0998 -0.24256,-0.43957 -0.53901,-0.75513 -0.63089,-0.67155 -1.11574,-3.19825 -0.74686,-3.89213 0.17008,-0.31993 0.56552,-0.46302 1.27956,-0.46302 1.1831,0 1.46712,0.31011 1.36539,1.49082 -0.10611,1.23164 0.40844,1.32576 0.95079,0.17392 0.73107,-1.55261 1.25542,-1.32265 1.29438,0.56767 0.0265,1.28433 0.14043,1.65844 0.62462,2.05052 0.76433,0.61891 1.38147,0.60662 2.15796,-0.043 l 0.62462,-0.52256 -1.03296,-0.88448 c -0.85794,-0.73462 -1.00412,-0.99936 -0.86279,-1.5625 0.26311,-1.04828 2.13348,-1.38342 2.91308,-0.52197 0.60519,0.66872 0.5437,1.79136 -0.18368,3.35332 -0.82829,1.77869 -2.35738,2.85376 -4.01171,2.82056 -0.66028,-0.0133 -1.38753,-0.12877 -1.61613,-0.2567 -1.12804,-0.63128 -3.2756,0.87932 -3.2756,2.30408 0,0.98196 0.54564,1.09004 1.13371,0.22457 0.33085,-0.48692 0.49329,-0.54197 0.89217,-0.30237 0.26821,0.16112 0.52843,0.50031 0.57825,0.75377 0.0987,0.50203 -1.17902,1.996 -1.70707,1.996 -0.17977,0 -0.46468,0.41763 -0.63314,0.92807 -0.43143,1.30723 -0.92446,1.4901 -3.21541,1.19266 -2.91989,-0.37911 -2.75433,-0.43802 -2.64465,0.94109 0.0777,0.97718 -0.0198,1.33322 -0.50723,1.85208 -1.06605,1.13476 -1.87726,0.68195 -1.1831,-0.66039 0.38683,-0.74806 0.37519,-0.82574 -0.22371,-1.49305 -0.34747,-0.38716 -0.82086,-0.9255 -1.05198,-1.1963 -0.55912,-0.65513 -1.48311,-0.86129 -2.36223,-0.52705 -0.93982,0.35732 -0.91625,0.97361 0.0446,1.16578 1.11147,0.22229 1.65448,0.86593 1.45012,1.71885 -0.23662,0.98755 -0.30263,1.01561 -0.92505,0.39319 -0.52631,-0.52631 -0.62099,-0.53402 -2.15743,-0.17559 -0.88382,0.20618 -2.03179,0.6391 -2.55104,0.96204 -1.13156,0.70376 -4.99996,1.02539 -6.80362,0.56566 z m 6.15658,-2.16678 c 0.70975,-0.4573 2.17334,-1.72244 3.25242,-2.81142 1.63652,-1.65154 2.17764,-2.0317 3.26223,-2.29189 1.17217,-0.2812 1.45459,-0.25063 2.86668,0.31025 0.86153,0.3422 1.56642,0.72892 1.56642,0.85937 0,0.13259 -0.67743,0.16055 -1.53608,0.0634 -0.84485,-0.0956 -1.61012,-0.0997 -1.70062,-0.009 -0.1738,0.17381 1.43845,1.70219 1.79559,1.70219 0.11485,0 0.43121,-0.20126 0.70303,-0.44725 0.56727,-0.51337 2.70961,-0.58439 3.57983,-0.11866 0.7837,0.41942 1.23986,-0.22361 1.03857,-1.46401 -0.0863,-0.53191 -0.25056,-1.05983 -0.36498,-1.17314 -0.11443,-0.11332 -0.92242,-0.20557 -1.79555,-0.205 -0.87312,5.5e-4 -1.94468,10e-4 -2.38125,0.002 -0.43656,3.4e-4 -1.92484,-0.0963 -3.30729,-0.21471 l -2.51354,-0.21532 -1.79142,1.83042 c -0.98529,1.00673 -2.01094,1.95923 -2.27923,2.11666 -1.88657,1.10705 -2.74582,1.42346 -4.27527,1.57428 -1.61563,0.15932 -1.81518,0.11756 -2.98575,-0.6248 -0.68993,-0.43754 -1.36934,-0.79552 -1.50981,-0.79552 -0.47481,0 -0.25931,0.96246 0.33992,1.51811 1.13633,1.05371 2.30816,1.38604 4.59652,1.30357 1.88834,-0.0681 2.30571,-0.17834 3.43958,-0.90892 z m -35.35433,1.9237 c -0.3638,-0.20797 -0.97719,-0.38235 -1.36309,-0.3875 -0.66056,-0.009 -0.71259,-0.10391 -0.88907,-1.6244 -0.14739,-1.26996 -0.10247,-1.7 0.21026,-2.01273 0.35388,-0.35387 0.45913,-0.33626 0.95522,0.15982 0.35093,0.35093 0.89486,0.55751 1.46794,0.55751 1.129,0 1.34816,0.32238 0.87032,1.28022 -0.24283,0.48678 -0.29455,0.95179 -0.14947,1.34398 0.21875,0.59134 0.0989,1.08889 -0.25783,1.07059 -0.10055,-0.005 -0.48048,-0.17953 -0.84428,-0.38749 z m 15.34583,0.1425 c -1.29168,-0.30212 -3.58723,-1.17195 -4.01151,-1.52004 -0.49779,-0.40839 -2.56049,-0.92897 -2.88535,-0.7282 -0.14854,0.0918 -0.45467,0.0137 -0.68031,-0.17355 -0.34499,-0.28632 -0.48814,-0.23735 -0.90016,0.30795 -0.3657,0.48399 -0.56633,0.57229 -0.7912,0.34821 -0.59121,-0.58914 -0.16913,-1.5294 0.93416,-2.08104 0.58208,-0.29104 1.11125,-0.56224 1.17592,-0.60266 0.0647,-0.0404 -0.13256,-0.32365 -0.43831,-0.6294 -0.77353,-0.77354 -2.24311,-0.49157 -3.03742,0.58279 -0.31781,0.42986 -0.73404,0.78156 -0.92495,0.78156 -0.44119,0 -0.43567,0.11963 0.0488,1.05646 0.24326,0.47042 0.29637,0.8271 0.13776,0.92514 -0.47143,0.29136 -1.28087,-0.37741 -1.58982,-1.31352 -0.52192,-1.58143 -0.29602,-2.04257 1.42079,-2.90037 l 1.55527,-0.77708 -0.59239,-0.47969 c -0.32582,-0.26383 -0.79083,-0.47969 -1.03338,-0.47969 -0.57779,0 -1.66462,-0.76733 -1.48909,-1.05134 0.19877,-0.32161 3.3178,10e-4 4.16929,0.43148 0.39896,0.20161 1.76818,1.41717 3.04271,2.70124 3.44719,3.473 4.03312,3.79557 7.15429,3.93864 2.35334,0.10788 2.62185,0.0699 3.16668,-0.44784 0.62353,-0.59252 0.81003,-1.60343 0.29581,-1.60343 -0.16472,0 -0.70907,0.25313 -1.20967,0.56252 -1.07978,0.66734 -2.62597,0.56204 -4.30196,-0.29299 -0.57583,-0.29376 -1.20472,-0.53411 -1.39754,-0.53411 -0.19282,0 -1.22247,-0.90406 -2.28811,-2.00902 -1.61823,-1.67793 -2.11908,-2.4254 -3.03917,-4.53566 l -1.10163,-2.52664 -2.48177,0.0545 c -1.74308,0.0383 -2.54226,-0.0433 -2.68502,-0.27433 -0.11521,-0.18641 -0.77686,-0.33719 -1.52741,-0.34807 -1.25486,-0.0182 -1.33216,0.0209 -1.47735,0.74682 -0.1889,0.94451 0.22267,1.48273 1.13789,1.48807 0.38236,0.002 0.85928,0.10797 1.05983,0.235 0.60574,0.38367 0.0651,0.81928 -1.01687,0.81928 h -1.01789 l -0.18428,1.33985 c -0.10135,0.73692 -0.1398,1.38433 -0.0855,1.43869 0.0544,0.0544 0.70614,0.15524 1.44841,0.22419 1.26006,0.11705 2.47583,0.60792 2.47583,0.99963 0,0.094 -0.32742,0.23674 -0.72761,0.3172 -0.40018,0.0805 -1.05282,0.22649 -1.45032,0.32452 -1.31464,0.32422 -1.9427,-0.0356 -2.55783,-1.46557 -0.38233,-0.88875 -0.72758,-1.32643 -1.04631,-1.32643 -0.65043,0 -1.69543,-1.16526 -1.58044,-1.76233 0.14365,-0.74594 1.38538,-0.6556 1.49393,0.10868 0.11329,0.79773 0.79307,0.75714 1.10603,-0.066 0.2928,-0.7701 0.0946,-2.12605 -0.43517,-2.97667 -0.25973,-0.41708 -0.62636,-0.59576 -1.22453,-0.59679 -1.33794,-0.002 -2.91851,-0.51935 -3.52014,-1.15151 -0.30232,-0.31767 -1.03634,-0.79703 -1.63115,-1.06525 -1.03847,-0.46829 -1.08837,-0.54701 -1.25463,-1.9796 -0.23054,-1.98631 0.13465,-2.94592 1.12108,-2.94592 0.99635,0 1.9175,0.68659 1.9175,1.42921 0,0.6928 -0.75406,1.48121 -1.41669,1.48121 -0.41212,0 -0.4158,0.0641 -0.0449,0.78143 0.40831,0.78958 1.90579,1.45276 2.64226,1.17015 0.35531,-0.13634 0.67141,-1.25757 0.67141,-2.38153 0,-0.34561 0.14883,-0.64652 0.33073,-0.66868 0.1819,-0.0222 0.44979,-0.0589 0.59531,-0.0817 0.14552,-0.0227 0.6813,-0.30183 1.19062,-0.62017 1.75362,-1.09608 3.175,-0.49777 3.175,1.33646 0,0.97854 -0.14478,1.22729 -1.37719,2.36625 -0.75746,0.70001 -1.32301,1.27763 -1.25677,1.2836 0.0662,0.006 0.85218,0.0357 1.74654,0.0661 1.08893,0.037 1.78823,0.20208 2.11683,0.49962 0.37487,0.33942 0.6081,0.37862 0.98795,0.16605 0.54727,-0.30626 3.0944,-0.0984 3.8681,0.3157 0.54933,0.29399 0.90632,-0.0384 1.13667,-1.05836 0.46721,-2.06868 0.73905,-2.73187 1.52823,-3.72829 0.966,-1.21968 2.13759,-1.82796 3.52075,-1.82796 1.84519,0 3.18655,2.92294 1.43417,3.12517 -0.39299,0.0453 -0.92877,-0.0279 -1.19063,-0.16269 -0.75657,-0.38955 -1.18511,-0.12101 -0.79746,0.49971 0.27993,0.44824 0.19595,0.62863 -0.65611,1.40922 -1.08483,0.99383 -1.80066,2.45002 -1.80066,3.66302 0,1.22066 0.56645,2.84265 0.99275,2.84265 0.3033,0 0.34342,-0.26466 0.19914,-1.3137 -0.20298,-1.47584 0.19326,-3.04995 0.82916,-3.29397 0.84998,-0.32616 1.16921,0.46258 0.57338,1.41666 -0.24492,0.39219 -0.24492,0.66193 0,1.19948 0.1738,0.38144 0.31599,1.21841 0.31599,1.85994 0,0.81293 0.20501,1.47068 0.67647,2.17036 0.86273,1.28035 2.44142,2.69932 3.22078,2.89493 0.87698,0.2201 2.45716,-0.13626 3.20196,-0.72212 0.93997,-0.73938 1.70275,-0.64247 2.25122,0.28601 0.46436,0.78611 0.46062,0.80867 -0.40598,2.44566 -0.7956,1.50288 -0.97032,1.67017 -1.93299,1.85064 -2.08923,0.39169 -2.65952,0.42556 -3.57188,0.21216 z m -18.78542,-17.07584 c 0,-0.21828 -0.11906,-0.39687 -0.26458,-0.39687 -0.14552,0 -0.26458,0.17859 -0.26458,0.39687 0,0.21828 0.11906,0.39688 0.26458,0.39688 0.14552,0 0.26458,-0.1786 0.26458,-0.39688 z m -2.05597,14.85827 c 0.16195,-1.43683 -0.10163,-1.76139 -1.43043,-1.76139 -1.12664,0 -1.86628,0.78446 -1.74314,1.84876 0.0386,0.33354 -0.0915,0.66355 -0.28915,0.73334 -0.28147,0.0994 -0.32108,-0.0994 -0.18284,-0.91768 0.20279,-1.20032 -0.0806,-1.56407 -1.42837,-1.83363 l -0.86177,-0.17236 0.0932,1.26481 c 0.0721,0.97782 -0.0102,1.3304 -0.3625,1.5539 -0.33669,0.21357 -0.54099,0.20384 -0.78207,-0.0372 -0.25702,-0.25702 -0.25856,-0.57969 -0.007,-1.5192 0.71809,-2.68487 0.21853,-3.88566 -1.16407,-2.79811 -0.84928,0.66805 -2.7788,0.76078 -3.27939,0.15762 -0.18115,-0.21829 -0.25821,-0.39688 -0.17123,-0.39688 0.087,0 0.0454,-0.29662 -0.0925,-0.65916 -0.41267,-1.08541 -0.0934,-1.47855 1.05203,-1.29539 1.49884,0.23967 1.49989,-0.28774 0.002,-0.93218 -2.1433,-0.92202 -1.61564,-1.60007 1.25103,-1.60757 1.11146,-0.003 1.43539,-0.10758 1.66588,-0.53825 0.30884,-0.57707 0.21047,-0.86067 -0.61757,-1.78047 -0.68372,-0.75948 -0.87691,-0.74901 -1.07959,0.0585 -0.24418,0.97289 -1.09517,1.33841 -1.89538,0.81409 -0.9415,-0.6169 -0.91791,-2.33439 0.0407,-2.96249 0.66162,-0.43351 0.74034,-0.42087 2.36353,0.37956 1.32784,0.65479 1.82647,1.07945 2.38344,2.02985 0.38738,0.66101 0.82357,1.20183 0.9693,1.20183 0.26493,0 0.17028,1.6447 -0.1942,3.3744 -0.16074,0.7628 -0.061,0.98128 0.87598,1.91823 1.08171,1.08171 2.04411,1.34998 2.65421,0.73987 0.50839,-0.50838 0.3757,-0.70169 -0.54239,-0.79021 -0.98457,-0.0949 -1.31301,-0.94249 -0.59586,-1.53766 0.35574,-0.29524 0.53398,-0.267 1.13724,0.18022 0.39347,0.29169 0.8498,0.93591 1.01409,1.4316 0.17779,0.53646 0.49908,0.93221 0.79375,0.97771 1.77907,0.27473 1.7158,0.19272 1.63143,2.11439 -0.0723,1.64702 -0.1246,1.78449 -0.71039,1.86731 -0.60268,0.0852 -0.62602,0.0333 -0.49759,-1.10613 z m 56.92041,0.22298 c -0.2169,-0.56522 0.0803,-1.19062 0.56577,-1.19062 0.56098,0 0.79544,0.71038 0.39408,1.19399 -0.41669,0.50209 -0.76637,0.50086 -0.95985,-0.003 z m 1.64768,-1.62148 c -0.23145,-0.60313 0.51295,-1.38741 0.92539,-0.97497 0.4002,0.4002 0.1967,1.24947 -0.3234,1.34963 -0.23468,0.0452 -0.50557,-0.1234 -0.60199,-0.37466 z m -30.26545,-0.41581 c -0.73366,-0.73366 -0.023,-1.99327 0.95036,-1.68435 0.59893,0.19009 1.24812,1.30522 0.99669,1.71204 -0.23989,0.38815 -1.54984,0.36952 -1.94705,-0.0277 z m -26.47901,-1.07901 c -0.16325,-0.16325 -0.29682,-0.45989 -0.29682,-0.65918 0,-0.51537 1.16529,-0.2979 1.26705,0.23646 0.10149,0.53292 -0.56824,0.82471 -0.97023,0.42272 z m 58.85143,0.0126 c -0.51265,-0.28689 -0.53482,-0.96632 -0.0378,-1.15706 0.41775,-0.1603 2.00826,0.57644 2.00826,0.93025 0,0.32783 -1.48464,0.49871 -1.9705,0.22681 z m -30.40226,-0.93471 c -0.0687,-0.11108 -0.93839,-0.18124 -1.93274,-0.15591 -1.05103,0.0268 -2.17692,-0.10813 -2.68932,-0.32222 -0.76222,-0.31848 -1.0102,-0.31446 -1.83384,0.0297 -1.14313,0.47763 -1.5971,0.0829 -0.98284,-0.85456 0.64627,-0.98634 -0.12906,-1.09183 -0.93441,-0.12714 -0.38496,0.46111 -0.8262,0.83838 -0.98054,0.83838 -0.44993,0 -0.55476,-1.20737 -0.18182,-2.09432 0.34279,-0.81526 0.8321,-0.9859 2.34943,-0.81934 0.71837,0.0789 2.86879,1.19031 3.29379,1.7024 0.91877,1.10704 1.07308,0.0181 0.26581,-1.87566 -0.5453,-1.27921 -2.22148,-3.26308 -2.757,-3.26308 -0.15634,0 -0.59769,0.35719 -0.98076,0.79375 -0.38308,0.43657 -0.82631,0.79375 -0.98496,0.79375 -0.47756,0 -1.34679,-1.02189 -1.34679,-1.58332 0,-0.62916 1.26643,-2.06266 1.92059,-2.17396 0.67942,-0.11559 2.98477,1.6323 3.4725,2.6328 0.41422,0.84972 1.268,1.16223 1.61985,0.59291 0.0908,-0.14684 -0.2594,-1.11534 -0.77813,-2.15221 -1.0243,-2.04745 -1.17981,-2.76027 -0.54627,-2.5039 1.31676,0.53284 1.26812,0.5352 0.95682,-0.0465 -0.44266,-0.82712 -0.36486,-1.25724 0.38962,-2.15388 0.7802,-0.92721 1.41884,-1.02997 2.05214,-0.3302 0.53256,0.58848 0.54862,1.53859 0.041,2.42657 -0.73857,1.292 -0.1709,1.85968 0.79375,0.79375 1.00307,-1.10838 1.26223,-0.33545 0.38566,1.15022 -0.71144,1.2058 -1.02533,2.32889 -1.21295,4.33988 -0.10718,1.14881 -0.0625,1.65365 0.14637,1.65365 0.16536,0 0.3708,-0.20836 0.45652,-0.46302 0.0857,-0.25467 0.37965,-0.9471 0.65316,-1.53875 0.27351,-0.59165 0.49728,-1.18056 0.49728,-1.30869 0,-0.28025 1.22217,-2.14281 1.95107,-2.9734 0.3411,-0.38869 0.82168,-0.59531 1.38463,-0.59531 0.70152,0 1.04485,0.22289 1.84218,1.19592 0.95052,1.15999 0.96572,1.21167 0.50587,1.71979 -0.69547,0.7685 -1.42906,0.66409 -1.74725,-0.24866 -0.14812,-0.4249 -0.44432,-0.8397 -0.65823,-0.92178 -0.49407,-0.1896 -2.7491,1.85526 -2.7491,2.49287 0,0.25661 -0.23551,0.98559 -0.52336,1.61995 -1.03066,2.27139 -0.57282,2.66946 1.19555,1.03944 1.41874,-1.30775 2.9427,-1.81664 4.05748,-1.35488 1.06261,0.44015 1.63313,1.11925 1.69841,2.02163 0.0759,1.04906 -0.63137,1.11631 -1.22215,0.11619 -0.46955,-0.79487 -1.31019,-1.06074 -1.64436,-0.52005 -0.0956,0.15469 0.0164,0.49149 0.24897,0.74844 0.67768,0.74883 0.53978,1.18009 -0.30481,0.95322 -1.31892,-0.35427 -2.66345,-0.20741 -3.39915,0.3713 -0.71255,0.56048 -1.55681,0.72778 -1.78767,0.35423 z m -1.94807,-4.48211 c -0.16919,-0.4409 -0.60193,-0.33256 -0.96394,0.24134 -0.19286,0.30575 -0.12942,0.62647 0.23237,1.17488 l 0.49764,0.75432 0.18707,-0.90258 c 0.10289,-0.49643 0.12397,-1.06701 0.0469,-1.26796 z m 34.10237,4.07172 c -1.00188,-1.06645 -0.55774,-2.44151 0.99654,-3.08531 2.47031,-1.02324 3.23947,1.60677 0.90729,3.10236 -1.14834,0.73641 -1.19639,0.73598 -1.90383,-0.0171 z m 1.94384,-1.0788 c 0.41245,-0.30159 0.44379,-0.44031 0.17313,-0.76643 -0.32617,-0.39302 -1.36934,-0.32783 -1.36934,0.0856 0,0.11665 -0.0723,0.40042 -0.1606,0.6306 -0.2057,0.53603 0.64919,0.5677 1.35681,0.0503 z m -64.41676,0.39603 c -0.20189,-0.37722 -0.16434,-0.58769 0.15161,-0.84991 0.35351,-0.29339 0.47533,-0.27279 0.77002,0.13023 0.40018,0.54727 0.23792,1.22106 -0.29404,1.22106 -0.1976,0 -0.48001,-0.22562 -0.62759,-0.50138 z m -1.40394,-1.63648 c -0.69525,-0.40494 -0.57429,-1.03714 0.19844,-1.03714 0.52917,0 0.66146,0.1323 0.66146,0.66146 0,0.72 -0.15356,0.78709 -0.8599,0.37568 z m 8.64342,-1.07223 c -0.27498,-0.44493 1.09989,-0.68993 3.13054,-0.55785 1.27694,0.0831 2.05052,0.24684 2.05052,0.43415 0,0.36178 -4.96072,0.48022 -5.18106,0.1237 z m -11.37561,-1.08954 c -1.67455,-1.53462 -1.4959,-3.92886 0.26027,-3.48809 1.51408,0.38001 2.46248,2.47707 1.73501,3.83637 -0.39023,0.72915 -0.92062,0.63656 -1.99528,-0.34828 z m 1.74001,-0.97313 c 0,-0.67002 -0.70567,-1.35901 -1.19828,-1.16998 -0.39318,0.15088 -0.53856,1.17813 -0.21283,1.50385 0.097,0.097 0.4542,0.17639 0.79375,0.17639 0.43335,0 0.61736,-0.15209 0.61736,-0.51026 z m 68.60695,1.39509 c -0.10685,-0.27844 0.045,-0.61065 0.41671,-0.91164 0.38972,-0.31557 0.6615,-0.94175 0.8147,-1.87701 0.3906,-2.38461 0.56743,-2.85868 1.06626,-2.85868 0.25745,0 0.61822,0.1809 0.80171,0.40199 0.23631,0.28474 0.59096,0.35372 1.21589,0.23648 0.77819,-0.14599 0.92099,-0.0805 1.21061,0.55513 0.29469,0.64677 0.2643,0.77251 -0.29637,1.22652 -0.54413,0.44061 -0.58557,0.5918 -0.32122,1.17199 0.16693,0.36637 0.30351,0.70654 0.30351,0.75594 0,0.0923 -1.0139,0.32055 -2.64583,0.59569 -0.50933,0.0859 -1.08163,0.37788 -1.27178,0.64891 -0.4284,0.6106 -1.07046,0.63773 -1.29419,0.0547 z m -19.28697,-1.18955 c -0.36791,-0.59529 0.75059,-1.01819 2.69291,-1.01819 1.88343,0 2.22669,0.16648 2.22669,1.07997 0,0.365 -4.69225,0.30608 -4.9196,-0.0618 z m -53.90079,-3.49841 c -0.19355,-0.50439 -2.41365,-1.48853 -3.35793,-1.48853 -1.09865,0 -1.46558,-0.5981 -1.10092,-1.79452 0.16489,-0.54098 0.3315,-1.28126 0.37025,-1.64507 0.0544,-0.51097 0.24331,-0.68121 0.83028,-0.74829 0.41791,-0.0478 0.879,0.0323 1.02465,0.17798 0.17669,0.17669 0.47651,0.16835 0.90099,-0.025 0.47304,-0.21554 0.71718,-0.20886 0.95209,0.026 0.33318,0.33318 0.34659,0.41741 0.41822,2.62638 0.0401,1.2358 0.12311,1.42521 0.72506,1.65408 0.49888,0.18967 0.65732,0.41679 0.59532,0.85334 -0.0985,0.6935 -1.12587,0.96859 -1.35801,0.36363 z m 15.56505,-4.657 c -0.20941,-0.33884 1.02798,-1.59403 1.57144,-1.59403 0.57506,0 0.50852,0.34724 -0.18641,0.97285 -0.85611,0.77071 -1.19788,0.92399 -1.38503,0.62118 z"
       id="path11246" />
  </g>
</svg>
