<?xml version="1.0" encoding="UTF-8" standalone="no"?>
<!-- Created with Inkscape (http://www.inkscape.org/) -->

<svg
   width="106.82175mm"
   height="125.36764mm"
   viewBox="0 0 106.82176 125.36763"
   version="1.1"
   id="svg5"
   inkscape:version="1.1 (c4e8f9ed74, 2021-05-24)"
   sodipodi:docname="ornatei.svg"
   xmlns:inkscape="http://www.inkscape.org/namespaces/inkscape"
   xmlns:sodipodi="http://sodipodi.sourceforge.net/DTD/sodipodi-0.dtd"
   xmlns="http://www.w3.org/2000/svg"
   xmlns:svg="http://www.w3.org/2000/svg">
  <sodipodi:namedview
     id="namedview7"
     pagecolor="#ffffff"
     bordercolor="#666666"
     borderopacity="1.0"
     inkscape:pageshadow="2"
     inkscape:pageopacity="0.0"
     inkscape:pagecheckerboard="0"
     inkscape:document-units="mm"
     showgrid="false"
     inkscape:zoom="0.66903058"
     inkscape:cx="-480.54604"
     inkscape:cy="280.25625"
     inkscape:window-width="2506"
     inkscape:window-height="1403"
     inkscape:window-x="1974"
     inkscape:window-y="0"
     inkscape:window-maximized="1"
     inkscape:current-layer="layer1" />
  <defs
     id="defs2" />
  <g
     inkscape:label="Layer 1"
     inkscape:groupmode="layer"
     id="layer1"
     transform="translate(-262.64441,-137.53641)">
    <path
       style="fill:#000000;stroke-width:0.61822"
       d="m 269.0438,262.54591 c -0.59503,-0.15561 -1.08188,-0.54052 -1.08188,-0.85561 0,-0.31508 -0.41089,-0.5729 -0.91309,-0.5729 -1.90137,0 -2.94947,-2.81689 -2.49739,-6.71205 0.28999,-2.49869 0.18179,-4.03483 -0.34362,-4.87612 -0.60634,-0.9709 -0.61045,-2.02404 -0.0187,-5.02725 0.41108,-2.08947 0.59174,-4.05094 0.40147,-4.3588 -0.1902,-0.30787 -0.0759,-1.26994 0.25408,-2.13795 0.50066,-1.31688 0.37343,-1.74029 -0.76834,-2.5569 -1.36839,-0.97871 -1.36839,-0.97871 0.10679,-2.19578 1.3762,-1.13537 1.40734,-1.29209 0.46364,-2.33486 -1.17957,-1.30344 -1.30238,-2.36602 -0.31165,-2.69628 0.48398,-0.16122 0.3886,-0.83537 -0.30911,-2.18458 -1.30538,-2.52435 -1.27164,-3.36676 0.2103,-5.25082 1.15158,-1.46401 1.17974,-1.92418 0.50647,-8.2748 -0.39207,-3.69851 -0.81413,-11.45398 -0.93785,-17.23433 -0.12361,-5.78038 -0.28058,-11.80996 -0.34858,-13.39909 -0.0928,-2.1676 0.22689,-3.36321 1.27903,-4.78644 1.4026,-1.89715 1.4026,-1.89715 0.15117,-4.35016 -1.31194,-2.57162 -1.67874,-7.67002 -0.66688,-9.26939 0.31422,-0.49664 0.33502,-1.32491 0.0467,-1.86349 -0.28537,-0.53324 -0.67008,-3.96145 -0.85493,-7.61825 -0.18483,-3.65682 -0.4929,-6.90245 -0.68455,-7.21254 -0.1916,-0.31006 -0.0378,-0.75572 0.34177,-0.99034 0.45262,-0.27973 0.55188,-1.53368 0.28834,-3.64292 l -0.40185,-3.21633 2.57634,-0.85028 c 2.50732,-0.82748 2.608,-0.8068 3.75818,0.77213 l 1.18182,1.6224 2.57424,-1.46218 c 2.84519,-1.6161 3.61808,-1.53752 3.13271,0.31849 -0.25021,0.95684 -0.0187,1.23582 1.02601,1.23582 0.74205,0 1.85985,-0.27328 2.484,-0.60732 0.76004,-0.40675 1.78933,-0.37914 3.11684,0.0837 1.30767,0.45584 2.11722,0.48054 2.37934,0.0724 0.52358,-0.81504 4.27039,-0.55963 5.18336,0.35332 1.02034,1.02036 3.53345,0.8861 3.95455,-0.21123 0.43112,-1.12345 4.57741,-1.27194 5.64715,-0.20235 0.55463,0.55464 1.10861,0.55036 2.35661,-0.0187 1.18586,-0.54031 1.85396,-0.55877 2.44586,-0.0675 1.21565,1.00892 13.99859,1.47182 26.24899,0.95055 4.50273,-0.1916 7.75418,-0.0488 8.86763,0.38927 1.41067,0.5551 2.08819,0.49685 3.42819,-0.29471 1.73688,-1.02599 2.72581,-0.79166 3.3273,0.78848 0.26723,0.702 0.36485,0.64478 0.40182,-0.23546 0.0407,-0.9684 0.39563,-1.10649 2.12377,-0.82605 1.14123,0.18529 2.74088,-0.002 3.55478,-0.41687 1.22694,-0.62483 1.78482,-0.57106 3.26505,0.31471 1.23378,0.73829 2.20452,0.90891 3.14242,0.55233 0.74642,-0.28381 3.22456,-0.53032 5.50693,-0.54784 4.88589,-0.0376 5.23488,0.38114 3.81176,4.57283 -0.75955,2.23721 -0.82156,3.1113 -0.26807,3.77823 0.8471,1.02069 0.42444,11.7275 -0.49943,12.65134 -0.32611,0.32612 -0.39628,1.99897 -0.16005,3.81508 0.43509,3.34515 0.22735,4.77985 -0.69203,4.77985 -0.29298,0 -0.37254,0.41732 -0.17688,0.92735 0.19581,0.51003 0.0479,0.92732 -0.3285,0.92732 -0.39729,0 -0.68438,1.14817 -0.68438,2.73714 0,2.17573 0.31378,2.98391 1.52981,3.94044 0.97557,0.7674 1.53931,1.84751 1.55607,2.98143 0.085,5.74377 -1.22816,27.70022 -1.8409,30.78182 -0.63343,3.1856 -0.60116,3.72715 0.25041,4.2037 0.63001,0.35257 0.97751,1.40225 0.97751,2.95272 0,1.32313 0.27819,2.57762 0.61821,2.78777 1.90728,1.17874 -0.23179,5.8731 -2.67611,5.8731 -0.56826,0 -1.03321,0.38638 -1.03321,0.85865 0,0.47224 0.34775,0.84572 0.77277,0.82993 2.21212,-0.0823 2.94889,0.3091 3.31286,1.75926 0.21987,0.87624 0.12314,2.19769 -0.21497,2.93654 -1.09978,2.40276 -1.93572,6.87734 -1.40454,7.51836 0.28504,0.34399 0.23272,3.07275 -0.11613,6.0639 -0.55097,4.72338 -0.5033,5.58329 0.3625,6.54 1.0202,1.12731 1.33888,4.78801 0.52374,6.01593 -0.6101,0.91905 -10.5978,1.48111 -15.07467,0.84832 -1.97507,-0.2792 -5.67652,-0.30838 -8.2255,-0.065 -2.54896,0.24348 -9.23011,0.20586 -14.84698,-0.0837 -7.87029,-0.40558 -10.95766,-0.33845 -13.4615,0.29278 -2.71527,0.6845 -3.65521,0.68093 -5.72187,-0.021 -2.96606,-1.00849 -5.09835,-1.06546 -23.51887,-0.62819 -8.87979,0.21076 -14.74422,0.60503 -15.56943,1.04669 -0.72815,0.38968 -1.41171,0.67624 -1.51908,0.63679 -0.10748,-0.0395 -0.68205,-0.19884 -1.27708,-0.35443 z m 12.45997,-3.98046 c 1.13222,-1.2153 1.30227,-1.23886 2.232,-0.30913 1.21334,1.21334 0.93674,1.20512 3.47457,0.10328 1.75463,-0.7618 1.8577,-0.90692 0.65849,-0.92734 -0.78193,-0.014 -2.26396,-0.45975 -3.29341,-0.99209 -1.8169,-0.93957 -1.91558,-0.91693 -3.36877,0.77275 -0.85091,0.9894 -1.49735,1.37106 -1.49779,0.88426 -4e-4,-0.47106 0.71186,-1.51687 1.58282,-2.32406 1.58357,-1.46761 1.58357,-1.46761 0.26702,-3.31655 -1.54256,-2.16631 -3.77895,-2.57337 -3.26121,-0.59358 0.18062,0.69043 0.87344,1.63719 1.53976,2.1039 1.00611,0.70469 1.06074,0.9373 0.32231,1.37209 -0.80372,0.47321 -2.30612,2.7721 -2.30612,3.52866 0,0.16753 0.48686,0.43164 1.08189,0.58714 0.59503,0.15561 1.1406,0.31502 1.21236,0.35446 0.0717,0.0395 0.682,-0.52029 1.35608,-1.24381 z m 73.06038,0.51879 c 0.19814,-0.26821 1.12048,-0.19861 2.04946,0.15445 1.70451,0.64805 5.16544,0.90188 4.60099,0.33743 -0.16753,-0.16754 -1.80875,-0.58997 -3.64699,-0.93859 -3.70521,-0.70268 -4.9193,-1.57696 -5.07585,-3.65518 -0.10047,-1.33461 -0.1444,-1.34529 -1.05114,-0.25628 -0.52042,0.62501 -1.87172,1.90142 -3.00286,2.83647 -1.13116,0.93506 -1.77699,1.7001 -1.43515,1.7001 0.34182,0 1.09988,-0.47839 1.68458,-1.0631 1.00534,-1.00534 1.11198,-0.98954 1.96199,0.29065 0.86981,1.31001 3.13205,1.65323 3.91497,0.59396 z m 11.57125,0.0549 c 0.40803,-0.40804 0.74186,-0.90524 0.74186,-1.1049 0,-0.60798 -2.42413,-0.58692 -2.80194,0.0243 -0.1944,0.31448 0.0783,0.40612 0.60607,0.20375 0.52769,-0.20258 0.95942,-0.0806 0.95942,0.27086 0,0.35147 -0.48683,0.76626 -1.08188,0.92176 -0.83082,0.21707 -0.85952,0.29936 -0.12361,0.35443 0.52702,0.0395 1.29208,-0.26211 1.7001,-0.67015 z m -96.93706,-0.6931 c -1.19885,-0.61938 -1.52508,-1.24138 -1.45438,-2.77287 0.0502,-1.0859 -0.15842,-1.97439 -0.46367,-1.97439 -0.30516,0 -0.55482,0.81475 -0.55482,1.81053 0,2.01133 1.39069,3.75832 2.98071,3.74435 0.71602,-0.007 0.55858,-0.25665 -0.50784,-0.80762 z m 5.05165,-0.20632 c 0.62181,-0.56272 1.12133,-1.32776 1.11002,-1.7001 -0.0117,-0.37233 -0.50784,-0.0942 -1.10336,0.61815 -0.59553,0.71233 -1.49041,1.45541 -1.98864,1.65131 -0.75605,0.29728 -0.76054,0.36425 -0.0273,0.405 0.48325,0.0269 1.38739,-0.41162 2.0092,-0.97436 z m 18.13165,0.40493 c -0.21006,-0.34002 -0.90564,-0.61821 -1.54556,-0.61821 -0.63989,0 -1.3354,0.27819 -1.54555,0.61821 -0.22361,0.36166 0.4179,0.61821 1.54555,0.61821 1.12766,0 1.76908,-0.25655 1.54556,-0.61821 z m 21.63774,-1.23645 c -1.28451,-1.34073 -2.35291,-1.85466 -3.85569,-1.85466 -2.06617,0 -6.1275,1.65998 -5.52803,2.25945 0.17244,0.17244 0.82428,0.0411 1.44845,-0.29174 1.88661,-1.00642 6.72836,-1.16112 6.13185,-0.19604 -0.18202,0.29443 -1.02835,0.40198 -1.88086,0.23901 -0.85247,-0.16286 -2.04147,-0.075 -2.64218,0.19533 -0.83979,0.37806 -0.52073,0.58831 1.38069,0.90973 1.36007,0.22992 3.42907,0.45748 4.59776,0.50573 l 2.12489,0.0876 z m 12.98264,0.88398 c -1.70012,-0.47307 -3.77269,-0.86547 -4.60575,-0.87204 -1.85824,-0.014 -1.00097,-1.0251 1.20553,-1.42094 1.17383,-0.21053 1.01071,-0.29752 -0.67819,-0.36145 -1.38281,-0.0523 -2.72707,0.35233 -3.55476,1.0702 -1.95948,1.69944 -1.64211,2.14061 1.2964,1.80207 1.44509,-0.1666 3.46203,-0.0981 4.48211,0.15188 3.39512,0.83226 5.01433,0.50944 1.85466,-0.36977 z m 13.47723,-0.72941 c 0.18692,-0.93506 1.07013,-2.77598 1.96249,-4.09092 0.89234,-1.31493 1.46962,-2.54365 1.28279,-2.73048 -0.1867,-0.18693 -0.33967,-0.014 -0.33967,0.38159 0,0.3967 -0.31226,0.72125 -0.6939,0.72125 -0.47035,0 -0.43846,-0.30782 0.0991,-0.95545 0.43615,-0.52552 1.1568,-0.81586 1.60147,-0.64522 0.44466,0.17057 0.97291,0.0442 1.17388,-0.28098 0.91353,-1.47812 -3.3966,-0.38495 -6.2613,1.58806 -1.74033,1.1986 -4.63487,2.69719 -6.43233,3.33019 -3.06076,1.07787 -3.18203,1.19696 -1.91118,1.8771 1.04267,0.55804 1.88679,0.55351 3.64497,-0.0187 1.25844,-0.41016 2.42715,-0.9275 2.59716,-1.14962 0.17011,-0.22221 1.21327,-1.03536 2.31834,-1.80716 2.42892,-1.69647 2.6683,-0.63447 0.3428,1.52074 -2.0637,1.91257 -2.51868,3.96056 -0.87987,3.96056 0.76572,0 1.26994,-0.57326 1.49532,-1.7001 z m -42.84273,0.7117 c 0,-0.20352 -0.87278,-1.18549 -1.93952,-2.18195 -2.45554,-2.29385 -1.84107,-2.99898 1.17366,-1.34681 2.95354,1.61862 5.52733,2.22443 6.02556,1.41824 0.21426,-0.3468 0.64648,-0.47188 0.96033,-0.27792 0.31383,0.19394 1.05967,0.0383 1.65739,-0.34569 0.91533,-0.58819 0.92508,-0.64876 0.0617,-0.38381 -1.30568,0.4007 -9.67123,-2.70058 -12.26315,-4.5462 -1.08416,-0.77198 -3.23846,-1.54644 -4.78734,-1.72103 -2.81614,-0.3174 -2.81614,-0.3174 -1.46975,1.02896 0.74051,0.74051 2.18753,1.51462 3.2156,1.72022 1.18061,0.23613 1.75641,0.66786 1.56299,1.17193 -0.16847,0.43895 0.11286,1.14591 0.62508,1.57103 0.51225,0.42512 1.33746,1.55827 1.8338,2.51809 0.52781,1.02069 1.40912,1.74512 2.12302,1.74512 0.6713,0 1.22056,-0.1666 1.22056,-0.37018 z m 46.24449,-1.45158 c 0.92526,-1.25148 1.12864,-1.95668 0.64966,-2.25268 -0.74102,-0.45799 -2.96353,1.9989 -2.98671,3.30166 -0.0234,1.29281 0.91795,0.87045 2.33705,-1.04898 z m -65.85578,-1.86967 c -0.35684,-0.43476 -1.38924,1.38908 -1.38964,2.45498 -2.1e-4,0.51113 0.36521,0.23366 0.81414,-0.61821 0.44799,-0.85005 0.70696,-1.67659 0.5755,-1.83677 z m 70.35295,1.2661 c 1.99208,-1.99205 2.59307,-4.04156 0.67656,-2.30714 -0.62181,0.56275 -1.36496,1.02315 -1.65143,1.02315 -0.70492,0 -2.782,1.91784 -2.782,2.56869 0,1.12876 2.04156,0.43061 3.75687,-1.2847 z m -78.80458,0.211 c -0.20632,-0.53784 -0.37526,-1.11065 -0.37526,-1.27293 0,-0.16239 -0.26604,-0.13061 -0.5912,0.0703 -0.71775,0.44357 -0.14136,2.18045 0.7235,2.18045 0.34002,0 0.44935,-0.44005 0.24296,-0.97789 z m 88.30887,0.40918 c 0.19323,-0.3128 -0.33724,-1.11046 -1.179,-1.7726 -1.59595,-1.25538 -1.52597,-2.16683 0.118,-1.53602 0.63522,0.24377 0.85484,0.0757 0.66109,-0.50625 -0.39521,-1.18687 -2.39058,-1.49427 -3.04069,-0.46846 -0.76259,1.20339 -0.66569,3.24984 0.19464,4.11017 0.87858,0.87858 2.74836,0.9783 3.24598,0.17314 z m 5.90368,-1.01333 c 0,-1.0201 -0.97704,-1.19245 -1.54553,-0.27263 -0.50417,0.81577 0.23503,1.97341 0.97003,1.51915 0.31653,-0.19557 0.5755,-0.75656 0.5755,-1.24652 z m -74.18652,-0.27263 c -0.85004,-0.27221 -2.38013,-0.51844 -3.40019,-0.54711 -1.41272,-0.0397 -1.63369,0.0907 -0.92734,0.54711 0.51003,0.32962 2.04014,0.57583 3.40022,0.54713 2.14531,-0.0453 2.26814,-0.11776 0.92731,-0.54713 z m 30.56555,-0.32876 c 1.54766,-1.17058 3.02148,-1.14721 5.47653,0.0869 1.85387,0.93186 1.91572,0.92886 0.98169,-0.0474 -1.92976,-2.0171 -8.58559,-1.77597 -8.58559,0.31107 0,0.83215 0.72077,0.71338 2.12737,-0.35051 z m 40.25979,-2.51785 c -0.20865,-0.8318 -0.92891,-2.06171 -1.6003,-2.7331 -1.29624,-1.29622 -3.6936,-1.66361 -3.6936,-0.566 0,0.3601 0.23296,0.51078 0.51746,0.33488 1.05102,-0.64954 3.17843,1.60584 3.8988,4.13337 0.78558,2.75633 1.59292,1.68082 0.87764,-1.16915 z m -88.75373,1.61018 c 0,-0.68004 -0.27821,-1.23645 -0.61823,-1.23645 -0.34002,0 -0.61822,0.11636 -0.61822,0.25855 0,0.14229 -0.16893,0.69861 -0.37525,1.23645 -0.24623,0.64169 -0.0337,0.97788 0.61821,0.97788 0.58134,0 0.99349,-0.51293 0.99349,-1.23643 z m 5.55453,-1.42749 c -0.007,-1.10118 -0.1215,-1.18109 -0.60877,-0.42717 -0.78711,1.21797 -0.78711,2.65022 0,2.16377 0.34001,-0.21006 0.61396,-0.99162 0.60877,-1.7366 z m 35.86627,1.42749 c -0.51003,-0.32962 -1.34463,-0.584 -1.85466,-0.56531 -0.61146,0.0234 -0.50615,0.21497 0.3091,0.56531 1.69956,0.73032 2.67565,0.73032 1.54556,0 z m 4.32754,-0.3091 c 0,-0.5152 -0.54952,-0.92735 -1.23643,-0.92735 -1.23166,0 -1.60808,0.65876 -0.8243,1.44252 0.75294,0.75296 2.06073,0.426 2.06073,-0.51517 z m -27.20171,-0.30913 c 0,-0.34002 -0.70424,-0.61822 -1.56495,-0.61822 -0.86073,0 -1.7251,-0.41729 -1.92081,-0.92732 -0.19581,-0.51003 -0.74338,-0.92734 -1.21703,-0.92734 -0.50646,0 -0.8612,-0.63663 -0.8612,-1.54556 0,-0.96166 -0.35032,-1.54555 -0.92734,-1.54555 -1.15546,0 -1.16556,0.706 -0.0484,3.37989 0.74647,1.78653 1.23582,2.14071 3.24566,2.34908 1.30168,0.13506 2.57533,0.29217 2.83035,0.34932 0.25501,0.0573 0.46367,-0.17431 0.46367,-0.5143 z m 19.78306,0 c 0,-0.78168 -1.2633,-0.78168 -2.47288,0 -0.72261,0.46701 -0.55204,0.60139 0.77278,0.60877 0.93505,0.005 1.7001,-0.26873 1.7001,-0.60877 z m 21.63774,0.0514 c 1.17441,-0.3371 0.58209,-0.53412 -2.46655,-0.82051 -4.39263,-0.41267 -5.3125,-0.19534 -3.03265,0.7167 1.72849,0.69141 3.34571,0.72193 5.4992,0.10374 z m -11.12798,-1.04483 c 0,-0.13365 -0.57281,-0.24298 -1.27292,-0.24298 -0.70011,0 -1.1085,0.26605 -0.90753,0.59123 0.32988,0.53377 2.18045,0.23819 2.18045,-0.34827 z m 42.65724,-0.29448 c 0,-1.50662 -1.44463,-1.29367 -1.74542,0.25731 -0.11823,0.61003 0.19697,1.03067 0.77278,1.03067 0.57346,-5e-5 0.97264,-0.52861 0.97264,-1.288 z m -89.02381,-0.52145 c 0,-1.57411 -3.60404,-3.51188 -4.10477,-2.207 -0.51244,1.33538 0.34114,2.3582 1.30229,1.56049 0.59845,-0.49666 0.87814,-0.35023 1.12355,0.58821 0.41591,1.59049 1.67893,1.63435 1.67893,0.0582 z m 31.68383,0.75488 c -0.76507,-0.14744 -2.01696,-0.14744 -2.782,0 -0.76505,0.14744 -0.13903,0.26791 1.39099,0.26791 1.53011,0 2.15606,-0.12057 1.39101,-0.26791 z m 40.88993,-1.15705 c 0.46189,-1.20367 0.15328,-1.10448 -1.19332,0.3835 -0.93905,1.03765 -0.96468,1.1946 -0.1437,0.87954 0.54968,-0.211 1.1513,-0.7793 1.33692,-1.26304 z m -19.66027,-2.4075 c -2.99634,-3.27124 -3.57453,-7.40865 -3.22979,-23.11201 0.18576,-8.4578 0.072,-12.38027 -0.34701,-11.96139 -0.38848,0.38848 -0.59692,6.24908 -0.55332,15.55765 0.0771,16.46083 0.30845,17.73088 3.75898,20.63432 2.75901,2.32153 2.96194,1.70991 0.37114,-1.11857 z m 24.98235,0.86442 c 0,-1.48752 -0.23488,-1.84864 -1.08189,-1.66342 -0.59503,0.13015 -0.99269,0.62677 -0.88369,1.10362 0.10912,0.47685 -0.29191,1.22537 -0.89092,1.66339 -0.97218,0.71086 -0.87729,0.79638 0.88367,0.79638 1.79034,0 1.97283,-0.17571 1.97283,-1.89997 z m -83.57832,0.61716 c -0.12173,-0.36551 -0.48582,-0.66457 -0.80883,-0.66457 -0.32303,0 -0.687,0.29906 -0.80885,0.66457 -0.12174,0.36553 0.24214,0.66459 0.80885,0.66459 0.56669,0 0.93066,-0.29906 0.80883,-0.66459 z m 31.92595,0.0549 c 2.50587,-0.0187 -0.0741,-1.10929 -3.30764,-1.39966 -3.33856,-0.29978 -3.33856,-0.29978 -1.85466,0.85937 0.81955,0.6402 2.03745,1.02251 2.72034,0.85395 0.68004,-0.16777 1.77893,-0.30901 2.44196,-0.31366 z m 24.75977,0.0313 c -0.68006,-0.27032 -4.29665,-0.38542 -8.03689,-0.25574 -3.74024,0.12968 -7.86569,0.064 -9.1677,-0.1458 -2.36726,-0.38164 -2.36726,-0.38164 -1.06712,-1.76557 0.71509,-0.76117 1.57171,-2.33081 1.90362,-3.48808 0.77971,-2.7187 0.80308,-30.24134 0.0257,-30.24134 -0.33654,0 -0.6592,6.13073 -0.77278,14.68276 -0.18342,13.81612 -0.27663,14.83541 -1.57773,17.26934 -0.76049,1.4226 -2.00474,3.02225 -2.765,3.55476 -1.27404,0.89238 -0.43967,0.9648 10.65604,0.92472 6.63036,-0.0238 11.48288,-0.26424 10.80188,-0.53496 z m 13.56445,-0.36857 c 1.11289,-0.84173 1.00062,-0.90707 -1.54554,-0.89924 -3.25976,0.009 -5.5276,0.54344 -5.5276,1.30012 0,0.90335 5.78204,0.57567 7.07314,-0.40088 z m -6.82486,-1.62664 c 1.3626,-1.94539 0.49029,-2.70074 -1.24084,-1.07443 -0.81418,0.76488 -1.48032,1.62042 -1.48032,1.90116 0,1.0245 1.80959,0.4747 2.72116,-0.82673 z m 31.27152,0.56443 c -0.005,-0.42505 -0.27181,-1.18776 -0.59249,-1.69496 -0.76294,-1.20675 -2.20344,0.0914 -1.66332,1.49882 0.44117,1.14965 2.26943,1.30858 2.25581,0.19604 z m -87.7779,-0.48305 c 0,-0.35069 -0.41731,-0.79778 -0.92734,-0.99349 -0.51003,-0.1958 -0.92732,-0.88248 -0.92732,-1.52614 0,-0.64366 -0.41732,-1.1703 -0.92735,-1.1703 -0.51517,0 -0.92732,0.54952 -0.92732,1.23643 0,0.69819 0.41215,1.23645 0.94674,1.23645 0.52068,0 1.10686,0.41731 1.30257,0.92734 0.40304,1.0503 1.46002,1.26003 1.46002,0.28971 z m 4.30929,0.0187 c 0.27438,0 0.67999,-0.9655 0.90138,-2.14557 0.22128,-1.18007 1.07911,-2.94968 1.90607,-3.93247 2.62415,-3.11861 2.98372,-4.88883 1.57243,-7.74129 -0.8994,-1.81786 -1.04338,-2.63094 -0.52284,-2.95267 0.53242,-0.32903 0.49868,-0.70866 -0.13038,-1.46651 -0.77892,-0.93856 -0.93956,-0.90435 -1.95572,0.41655 -0.60889,0.79151 -1.11326,2.34324 -1.12081,3.44833 -0.0187,2.89682 -1.39048,2.52734 -3.06539,-0.82634 -1.04024,-2.08287 -1.23341,-3.01823 -0.7278,-3.52384 0.37858,-0.37858 0.68834,-1.30833 0.68834,-2.06608 0,-3.52789 -4.70719,-4.41572 -7.00702,-1.32164 -1.8737,2.5208 -0.66742,2.89341 1.40852,0.43509 1.50298,-1.77982 1.97799,-2.01388 2.92372,-1.44059 1.46204,0.88624 1.83681,2.71574 0.55634,2.71574 -0.53499,0 -0.97267,-0.2782 -0.97267,-0.61824 0,-0.79136 -1.66454,-0.80778 -2.15067,-0.021 -0.20281,0.32836 0.20375,1.71965 0.90375,3.09179 1.82183,3.57107 6.79055,11.14849 7.31037,11.14849 0.70918,0 1.99439,-2.38693 1.46231,-2.71579 -0.26722,-0.16519 -0.37017,-1.29084 -0.22876,-2.50156 0.39666,-3.39761 2.59459,-2.58835 2.59459,0.95526 0,0.66044 -0.97367,2.6163 -2.16377,4.34637 -1.19006,1.73008 -2.16377,3.6383 -2.16377,4.24055 0,0.60223 -0.55638,1.24045 -1.23645,1.41828 -0.68003,0.17782 -1.23642,0.65735 -1.23642,1.0656 0,0.42283 0.42082,0.58076 0.97788,0.36699 0.53786,-0.20632 1.20238,-0.37526 1.47675,-0.37526 z m 23.80057,0.0311 c 0.40017,-0.64744 -2.04313,-2.19321 -2.59475,-1.64159 -0.40948,0.40949 0.99927,2.2288 1.72583,2.2288 0.27831,0 0.66933,-0.26424 0.86892,-0.58721 z m -34.03352,-0.40626 c 1.12212,-0.43061 1.31211,-2.43633 0.29055,-3.0677 -0.79682,-0.49243 -1.76234,0.79108 -1.77608,2.36107 -0.009,1.20066 0.0827,1.24496 1.48553,0.70663 z m 96.63421,-0.66656 c 0.1201,-0.36048 -0.3493,-0.8039 -1.04324,-0.98538 -1.40239,-0.36673 -1.42106,-0.34383 -0.87643,1.07541 0.40815,1.06369 1.55301,1.00997 1.91967,-0.09 z m -98.7569,-1.62172 c 0.005,-0.27509 -0.26873,-0.3282 -0.60875,-0.118 -0.34002,0.21006 -0.61396,0.85252 -0.60875,1.42749 0.007,0.90091 0.0923,0.91725 0.60875,0.11799 0.3296,-0.51003 0.60354,-1.1524 0.60875,-1.42748 z m 62.91154,0.2159 1.3891,-1.76137 -2.62555,0.33509 c -1.44403,0.18436 -2.68866,0.38313 -2.76586,0.44187 -0.27822,0.2117 1.76625,2.81339 2.18461,2.78 0.23574,-0.0187 1.05371,-0.82682 1.8177,-1.79559 z m 15.36901,0.85189 c -0.20632,-0.53783 -0.37525,-16.39522 -0.37525,-35.23859 v -34.26071 h -2.95861 c -2.37247,0 -2.97587,0.21426 -3.04561,1.08188 -0.0479,0.59506 -0.26404,2.80626 -0.48045,4.91379 -0.24838,2.41869 -0.13529,4.31427 0.30651,5.13985 0.50933,0.95167 0.51501,1.53081 0.021,2.12617 -0.45243,0.54515 -0.55524,2.9563 -0.30803,7.22458 0.20398,3.5235 0.45643,12.273 0.5608,19.44336 0.12127,8.33361 0.44785,13.51924 0.9051,14.37363 0.47884,0.8947 0.51802,1.70536 0.11846,2.45183 -0.36471,0.68148 -0.37684,1.46291 -0.0313,2.00922 0.3111,0.49171 0.56987,1.07628 0.57508,1.29905 0.0187,0.77065 -7.72231,-0.25936 -8.76391,-1.16621 -0.77383,-0.67373 -1.82188,-0.80362 -4.03196,-0.49966 l -2.98632,0.41073 0.32261,3.20705 0.32264,3.20706 h 4.27534 c 4.46752,0 5.55754,0.68127 4.03166,2.51986 -1.26713,1.52677 0.0187,2.04844 5.60644,2.27261 2.88827,0.11589 5.48982,0.26735 5.78122,0.33656 0.2914,0.0692 0.36093,-0.31422 0.15468,-0.85206 z m 9.5163,0.64892 c 0,-1.17217 -2.0639,-4.76708 -4.24132,-7.38746 -2.71805,-3.27103 -3.16766,-5.18757 -1.58761,-6.76759 1.64007,-1.64009 2.1196,-1.10772 2.1196,2.35301 0,5.20544 1.23982,5.58194 3.89621,1.18322 3.22234,-5.33589 4.29723,-8.21082 3.45111,-9.23034 -0.9222,-1.11119 -1.78333,-1.06969 -1.78333,0.086 0,0.51003 -0.41731,0.92732 -0.92734,0.92732 -0.51003,0 -0.92732,-0.32458 -0.92732,-0.72126 0,-0.39668 -0.17875,-0.54251 -0.39722,-0.32404 -0.21847,0.21847 -0.0386,0.82947 0.4,1.35777 0.61188,0.73726 0.63543,1.31566 0.10141,2.48783 -0.72712,1.59586 -2.34423,2.18692 -1.75055,0.63982 0.46309,-1.20679 -2.12689,-4.92229 -3.63023,-5.2078 -1.16296,-0.2208 -1.16862,-0.17945 -0.13272,0.97174 1.49719,1.66395 1.35326,2.94882 -0.46364,4.13931 -2.74617,1.79935 -2.03708,5.34364 1.96417,9.81808 1.15217,1.28842 2.2596,3.16626 2.46094,4.173 0.20141,1.00672 0.60952,1.83039 0.90704,1.83039 0.29752,0 0.54094,-0.14814 0.54094,-0.32897 z m -2.78201,-13.27189 c -0.21005,-0.34002 0.0353,-0.61821 0.54527,-0.61821 0.51003,0 1.09927,0.27819 1.3094,0.61821 0.21006,0.34002 -0.0353,0.61821 -0.54524,0.61821 -0.51003,0 -1.09927,-0.27819 -1.30943,-0.61821 z m -52.86734,12.20986 c -0.005,-0.42502 -0.26749,-1.18074 -0.58286,-1.67937 -1.01129,-1.59895 0.36126,-2.33432 3.74935,-2.00876 3.7498,0.3603 4.23856,-0.13856 4.25216,-4.33927 l 0.009,-2.92706 -3.86389,0.3943 c -2.12512,0.21683 -3.95661,0.62987 -4.06995,0.91783 -0.11333,0.28799 -1.8521,0.52358 -3.86387,0.52358 h -3.65783 v -3.36949 c 0,-2.01979 0.30955,-3.56754 0.77278,-3.86389 0.59253,-0.37906 0.73191,-4.13524 0.59753,-16.10446 -0.14837,-13.22545 -0.31375,-15.61008 -1.08188,-15.61008 -1.20129,0 -1.15722,-1.49532 0.0743,-2.51727 0.73467,-0.60973 0.88575,-1.44321 0.60205,-3.32136 -0.41893,-2.77329 -0.42505,-3.33383 -0.0946,-8.68956 0.12595,-2.04014 -0.0187,-4.17928 -0.32226,-4.75369 -0.33897,-0.64235 -0.31249,-1.19186 0.0687,-1.42749 1.54023,-0.95192 0.3843,-1.59731 -2.55106,-1.42433 l -3.17093,0.18693 0.11332,6.95498 c 0.0738,4.5347 -0.11332,6.95498 -0.53839,6.95498 -0.35846,0 -0.65345,-0.48685 -0.65555,-1.08189 -0.002,-0.71653 -0.32196,-0.47178 -0.94595,0.72479 -0.73852,1.4162 -0.7756,1.90962 -0.1715,2.28295 0.42386,0.26198 1.12773,0.17992 1.56416,-0.18225 0.63524,-0.52718 0.80235,0.43556 0.83787,4.82659 0.0243,3.01681 0.15912,11.11865 0.29946,18.00409 0.2194,10.77189 0.12711,12.51897 -0.66259,12.51897 -0.5047,0 -0.92192,-0.48682 -0.92713,-1.08188 -0.007,-0.91886 -0.0974,-0.94279 -0.59312,-0.15866 -0.43771,0.69238 -0.18996,1.12949 0.99083,1.74817 1.46345,0.76679 1.55308,1.06538 1.27108,4.23501 -0.16683,1.8755 -0.0822,4.18133 0.18809,5.12403 0.54749,1.90892 -0.10187,3.50373 -1.16016,2.84963 -0.37803,-0.23366 -0.68735,-0.12151 -0.68735,0.24929 0,0.37076 0.41729,0.83425 0.92734,1.02996 0.60074,0.23062 0.92732,1.18902 0.92732,2.72154 0,2.7255 0.23836,2.81542 7.88232,2.97339 3.22729,0.0666 4.47944,-0.12384 4.47265,-0.68015 z m 6.19167,-0.7431 c 0,-0.94611 -1.35165,-1.58402 -3.29622,-1.55567 -1.26984,0.0187 -1.24853,0.10047 0.40442,1.55436 1.75068,1.54 2.8918,1.54049 2.8918,0.001 z m 43.59468,-0.18412 c 0.82301,-0.93508 1.50518,-2.05659 1.5159,-2.4923 0.0334,-1.35491 -1.83697,-1.60266 -2.77249,-0.36724 -0.84246,1.11252 -1.27982,4.55963 -0.57852,4.55963 0.18623,0 1.01212,-0.76504 1.83511,-1.70009 z m 3.56925,0.46364 c -0.36563,-1.39816 -0.32512,-1.37884 -1.74667,-0.83334 -0.91201,0.34998 -0.85757,0.51001 0.41311,1.21453 0.80495,0.44629 1.50702,0.82131 1.56021,0.83335 0.0533,0.0117 -0.0488,-0.53447 -0.22665,-1.21454 z m 7.2395,0.34561 c 0,-0.48996 -0.27819,-1.06277 -0.61821,-1.27293 -0.34002,-0.21005 -0.61821,-0.24931 -0.61821,-0.0869 0,0.16216 -0.16894,0.73507 -0.37526,1.27293 -0.24625,0.64169 -0.0337,0.97788 0.61821,0.97788 0.54641,0 0.99347,-0.40089 0.99347,-0.89084 z m -82.96008,-1.01018 c -0.12173,-0.36553 -0.48582,-0.66459 -0.80885,-0.66459 -0.32301,0 -0.687,0.29906 -0.80883,0.66459 -0.12174,0.36552 0.24214,0.66457 0.80883,0.66457 0.56671,0 0.93068,-0.29905 0.80885,-0.66457 z m 1.97315,-1.11899 c 0,-1.22025 -0.48813,-2.10339 -1.54555,-2.79623 -1.71779,-1.12553 -2.04725,-0.77932 -0.61821,0.64969 0.51002,0.51002 0.92731,1.60296 0.92731,2.42873 0,0.82575 0.2782,1.50137 0.61822,1.50137 0.34002,0 0.61823,-0.80259 0.61823,-1.78356 z m 6.80042,1.43382 c 0,-0.99246 -1.39426,-2.74134 -2.18552,-2.74134 -1.09451,0 -1.18692,1.32603 -0.1638,2.34922 0.7578,0.7578 2.34923,1.02345 2.34923,0.39212 z m 76.98525,-0.91376 c 0.2194,-0.35493 0.0516,-1.06359 -0.37262,-1.57481 -0.61856,-0.74535 -0.87222,-0.77061 -1.28019,-0.12758 -0.2798,0.44112 -0.51302,1.14979 -0.51823,1.57481 -0.0117,0.93512 1.61295,1.0305 2.17104,0.12758 z m 2.76525,-0.28203 c 0,-0.51003 -0.41729,-0.92734 -0.92732,-0.92734 -0.96541,0 -1.22654,0.73116 -0.51519,1.44251 0.71135,0.71135 1.44251,0.45021 1.44251,-0.51517 z m -7.85253,-0.0813 c 0.21473,-0.21473 0.0963,-0.94008 -0.26336,-1.61194 -0.7713,-1.4412 -2.16512,-0.5226 -1.56801,1.03345 0.38643,1.00704 1.15883,1.25103 1.83137,0.57849 z m -89.20815,-1.11866 c 0,-1.29069 -1.28253,-1.88593 -1.91432,-0.88849 -0.8381,1.32321 -0.66433,1.77931 0.67787,1.77931 0.68006,0 1.23645,-0.40087 1.23645,-0.89082 z m 4.04016,-0.38075 c 0.61976,-1.00279 -0.24854,-3.67418 -1.19425,-3.67418 -1.31832,0 -2.36976,1.66956 -1.92798,3.06143 0.42269,1.33179 2.4339,1.72648 3.12223,0.61275 z m 87.68909,-0.91559 c 0.21006,-0.54748 -0.0353,-1.10432 -0.57875,-1.31281 -1.20962,-0.46419 -1.76159,0.0939 -1.29512,1.30954 0.46928,1.22294 1.4052,1.22458 1.87387,0.002 z m 4.71322,0.38306 c 0,-0.31219 0.16893,-1.0077 0.37525,-1.54553 0.49657,-1.29405 -1.19579,-1.29662 -2.26901,-0.005 -0.67025,0.80757 -0.65674,1.07063 0.0787,1.53607 1.1431,0.72334 1.81491,0.72811 1.81491,0.014 z m -96.19951,-2.88311 c 0.54433,-1.41845 0.50021,-1.49499 -0.86117,-1.49499 -1.19143,0 -1.67533,1.20972 -0.8243,2.06072 0.677,0.677 1.2872,0.4722 1.68547,-0.56573 z m 94.75791,-0.6156 c 0.44797,-1.1674 -1.24645,-3.05613 -2.2084,-2.46161 -0.37264,0.23039 -0.67754,1.09782 -0.67754,1.92782 0,1.10469 0.33651,1.50906 1.25584,1.50906 0.69072,0 1.42424,-0.43886 1.6301,-0.97527 z m -88.95741,-2.76754 c -1.06831,-1.71853 -2.23917,-3.30743 -2.60191,-3.53086 -0.36275,-0.22337 -0.2152,0.27848 0.32785,1.11537 0.54307,0.8369 1.37765,2.21714 1.85466,3.06719 0.73579,1.31126 1.74781,2.42785 2.23272,2.46343 0.071,0.005 -0.74504,-1.39662 -1.81332,-3.11513 z m 84.83502,1.57904 c 0,-0.51003 -0.41729,-0.92734 -0.92732,-0.92734 -0.51005,0 -0.92734,0.41731 -0.92734,0.92734 0,0.51003 0.41729,0.92732 0.92734,0.92732 0.51003,0 0.92732,-0.41729 0.92732,-0.92732 z m -87.16915,-0.89085 c 0,-1.55866 -1.05999,-2.18898 -2.1541,-1.28096 -1.12565,0.93422 -0.5123,2.48092 0.9838,2.48092 0.7463,0 1.1703,-0.43475 1.1703,-1.19996 z m 93.96959,0.58174 c 0,-0.34002 -0.41732,-0.61823 -0.92735,-0.61823 -0.51003,0 -0.92732,0.27821 -0.92732,0.61823 0,0.34002 0.41729,0.61822 0.92732,0.61822 0.51003,0 0.92735,-0.2782 0.92735,-0.61822 z M 350.80351,236.116 c 0,-0.48998 -0.2782,-1.06279 -0.61822,-1.27294 -0.34001,-0.21006 -0.61821,0.19066 -0.61821,0.89084 0,0.70011 0.2782,1.27293 0.61821,1.27293 0.34002,0 0.61822,-0.40087 0.61822,-0.89083 z m 8.80644,-3.12777 c 0.3914,-2.04745 -0.48996,-1.38227 -1.31879,0.99534 -0.5623,1.61304 -0.53319,1.81041 0.17968,1.21869 0.46793,-0.38834 0.98048,-1.38466 1.13902,-2.21403 z m 4.09281,1.32522 c -0.55483,-0.40573 -1.14806,-1.28711 -1.3183,-1.95869 -0.20656,-0.81458 -0.33341,-0.56732 -0.38124,0.74287 -0.0512,1.40373 0.23686,2.03252 1.01017,2.20454 1.54135,0.34283 1.86857,-0.12641 0.68937,-0.98872 z m -64.60398,-3.25631 c 1.74178,-4.24132 1.69232,-5.79571 -0.11356,-3.56857 -0.57176,0.70518 -1.94432,1.90273 -3.05006,2.6612 -2.21529,1.51955 -3.50681,3.45943 -2.92741,4.39696 0.20585,0.33299 1.28208,0.60543 2.39175,0.60543 1.90563,0 2.11087,-0.22711 3.69928,-4.09502 z m 39.34032,3.03819 c 0,-1.02775 -4.78069,-5.87758 -6.95497,-7.0556 -1.44523,-0.78301 -1.37525,-0.28835 0.60115,4.24857 1.63825,3.7607 1.74555,3.86386 4.0185,3.86386 1.7909,0 2.33532,-0.24637 2.33532,-1.05683 z m -52.80794,-2.49949 c -0.71327,-0.71327 -1.0792,0.40381 -0.59279,1.80963 l 0.49739,1.43759 0.22735,-1.44408 c 0.125,-0.79423 0.0657,-1.60565 -0.13179,-1.80314 z m 21.27868,-0.49765 v -3.43576 l -2.61331,0.1902 c -2.47769,0.18015 -2.66658,0.33444 -3.64056,2.97209 -1.22168,3.30855 -0.88297,3.68631 3.31732,3.69986 l 2.93655,0.009 z m 24.44276,1.94591 c -0.4418,-0.71067 -0.98078,-2.0572 -1.19771,-2.99225 -0.34892,-1.5039 -0.67847,-1.7001 -2.85554,-1.7001 -2.46112,0 -2.46112,0 -2.46112,2.94253 v 2.94255 l 3.65881,0.0498 c 3.56018,0.0484 3.63717,0.014 2.85556,-1.24243 z m 32.85257,-1.41469 c -0.9538,-3.10779 -4.71703,-6.98699 -6.77813,-6.98699 -0.88262,0 -1.77671,0.2782 -1.98686,0.61822 -0.21731,0.3517 0.31205,0.61821 1.22806,0.61821 1.79417,0 5.32042,3.3222 7.05407,6.6459 1.07565,2.06215 1.27634,1.69005 0.48286,-0.89534 z m -14.63809,-1.4759 c 0,-0.20562 -0.55641,-0.87722 -1.23645,-1.49265 -1.21507,-1.09962 -1.23645,-1.07981 -1.23645,1.14586 0,2.11007 0.0846,2.21206 1.23645,1.49265 0.68004,-0.42469 1.23645,-0.94033 1.23645,-1.14586 z m -81.60516,-1.22002 c 0,-0.31997 -0.27822,-0.58174 -0.61824,-0.58174 -0.34002,0 -0.61821,0.43372 -0.61821,0.96382 0,0.5301 0.27819,0.79186 0.61821,0.58174 0.34002,-0.21006 0.61824,-0.64387 0.61824,-0.96382 z m 14.01064,-0.118 c 0.66074,-1.05765 0.81157,-2.31833 0.27738,-2.31833 -0.72441,0 -1.92362,1.42599 -1.92362,2.28742 0,1.02302 1.01455,1.04209 1.64624,0.0308 z m 55.9807,-1.08541 c 0.15001,-1.022 0.1437,-1.98715 -0.014,-2.1448 -0.15772,-0.15772 -0.34829,-4.53769 -0.42372,-9.73346 -0.23202,-15.98807 -0.29441,-17.17461 -0.90318,-17.17461 -0.32462,0 -0.76359,1.04324 -0.9755,2.31834 -0.66557,4.00481 -0.78469,4.16636 -2.15653,2.92486 -1.18025,-1.06812 -1.22355,-1.06382 -1.22355,0.12197 0,0.67607 0.18342,1.41254 0.40736,1.63657 0.47524,0.47524 0.29972,16.13462 -0.20398,18.19876 -0.26074,1.06852 0.2145,1.90819 2.01222,3.55478 1.29449,1.1857 2.54587,2.1558 2.78086,2.1558 0.23497,0 0.54996,-0.83617 0.69995,-1.85817 z m -39.54055,-1.37113 c 0.1694,-0.4412 0.34991,-4.67279 0.40136,-9.40356 0.0671,-6.16402 -0.11917,-8.73279 -0.65682,-9.06512 -0.58272,-0.36014 -0.57113,-0.67967 0.0519,-1.43032 0.44119,-0.53159 0.63627,-1.39893 0.43348,-1.92735 -0.31642,-0.82463 -0.63293,-0.76544 -2.23293,0.41748 l -1.86425,1.3783 v 11.3367 11.33671 l 1.77976,-0.92034 c 0.97886,-0.50619 1.91826,-1.28133 2.08755,-1.7225 z m 30.13484,-0.38421 c 0,-0.62735 -0.48682,-1.55871 -1.08188,-2.06974 -2.32298,-1.99498 -2.62744,-1.91376 -2.62744,0.701 0,2.37604 0.0986,2.50937 1.85466,2.50937 1.3906,0 1.85466,-0.28541 1.85466,-1.14063 z m 24.90959,-0.10211 c 0.17875,-0.68345 1.2365,-1.62591 2.35058,-2.09434 1.75092,-0.73622 2.16508,-1.36125 3.05422,-4.60938 1.15808,-4.23069 0.44736,-4.39888 -1.35646,-0.32105 -1.46293,3.30725 -4.24529,5.03083 -6.47855,4.01329 -0.80292,-0.36584 -1.45985,-1.18441 -1.45985,-1.81903 0,-1.10256 -2.22258,-3.67416 -2.71808,-3.14487 -0.13061,0.13949 -0.0935,1.71435 0.0825,3.49947 0.25305,2.56627 0.54804,3.24566 1.40933,3.24566 0.59912,0 1.74606,0.54713 2.54879,1.21586 1.8495,1.54079 2.16793,1.54257 2.56756,0.014 z m -46.5473,-1.84849 c 0,-2.93031 -0.44795,-3.05445 -2.66635,-0.73894 -2.24697,2.34534 -2.11138,3.21184 0.50258,3.21184 2.11225,0 2.16377,-0.0589 2.16377,-2.4729 z m 57.93427,1.42807 c 0.22384,-0.58332 0.0787,-1.15219 -0.3285,-1.28794 -0.4012,-0.13366 -0.72946,-0.93188 -0.72946,-1.77368 0,-0.84178 -0.25679,-1.37181 -0.57064,-1.17783 -0.76173,0.47076 -1.47745,3.85294 -0.98422,4.65097 0.61132,0.98917 2.16952,0.74376 2.61282,-0.41152 z m 2.3405,-0.18599 c 0.39269,-1.23724 -0.0117,-2.47963 -0.8075,-2.47701 -0.23494,6.3e-4 -0.4568,0.83537 -0.49301,1.85466 -0.0745,2.10022 0.712,2.47662 1.30051,0.62235 z m -97.98627,0.0605 c 0,-0.30364 -0.41729,-0.71221 -0.92732,-0.90793 -0.94234,-0.36161 -1.26612,0.29694 -0.51519,1.04784 0.59083,0.59086 1.44251,0.50823 1.44251,-0.13996 z m 8.6551,-1.97233 c 0,-0.76601 -0.31317,-1.17566 -0.77277,-1.01086 -1.9153,0.68675 -2.93655,-0.77883 -2.93655,-4.21426 0,-3.16565 -0.0946,-3.37846 -1.5024,-3.37846 -1.41179,0 -1.4645,0.12127 -0.87384,2.00922 0.34573,1.10507 0.90489,3.00658 1.2426,4.22555 0.41965,1.51471 1.13663,2.42351 2.26483,2.87077 2.40135,0.95202 2.57813,0.9176 2.57813,-0.50196 z m 3.09112,0.66973 c 0,-0.34002 -0.57282,-0.61821 -1.27293,-0.61821 -0.70011,0 -1.10099,0.27819 -0.89084,0.61821 0.21006,0.34004 0.78294,0.61824 1.27292,0.61824 0.48996,0 0.89085,-0.2782 0.89085,-0.61824 z m 3.40022,0 c -0.21006,-0.34002 0.043,-0.61821 0.56232,-0.61821 0.61403,0 0.81084,-0.34808 0.5626,-0.99501 -0.35093,-0.91452 -0.42687,-0.91452 -0.93865,0 -0.30626,0.54725 -0.96031,0.99501 -1.45345,0.99501 -0.49314,0 -0.89662,0.27819 -0.89662,0.61821 0,0.34004 0.57284,0.61824 1.27295,0.61824 0.70011,0 1.10098,-0.2782 0.89085,-0.61824 z m 19.29447,-1.90766 c 1.72267,-1.85693 2.45984,-3.28958 2.78343,-5.40944 0.40839,-2.67511 0.2689,-3.12738 -1.92978,-6.25728 -1.30349,-1.85555 -2.68392,-3.47838 -3.06763,-3.60628 -0.49099,-0.16356 -0.69766,1.86578 -0.69766,6.85123 0,3.89607 -0.17384,7.95315 -0.38638,9.01571 -0.52937,2.64688 0.4562,2.46939 3.29802,-0.59394 z m 27.48425,1.91848 c 0.11332,-0.33409 0.12127,-4.20492 0.0187,-8.60185 -0.21707,-9.21777 -0.71808,-10.02642 -3.82062,-6.16571 -1.76349,2.19443 -1.9857,2.91438 -2.03733,6.60069 -0.0547,3.9027 0.0626,4.2648 2.06677,6.37728 2.16908,2.28644 3.40576,2.87297 3.7733,1.78959 z m -59.19755,-0.54101 c 0.18015,-0.29161 0.0491,-1.47397 -0.29153,-2.62744 -0.8544,-2.89377 -2.43608,-14.97367 -2.43608,-18.60535 0,-2.78745 0.13973,-3.05251 2.10365,-3.98902 2.32278,-1.10765 3.88684,-3.58604 2.71869,-4.308 -0.38227,-0.23625 -1.16965,0.15655 -1.74978,0.87302 -0.5801,0.71639 -1.74468,1.47571 -2.58795,1.68736 -1.52686,0.38322 -1.53245,0.36825 -1.35103,-3.62362 0.14533,-3.19633 -0.0164,-4.0843 -0.79409,-4.38303 -0.87706,-0.33656 -0.94172,0.96092 -0.63639,12.77464 0.33149,12.82669 1.1034,18.07608 2.92608,19.89876 0.33399,0.33401 0.60727,1.10805 0.60727,1.72007 0,1.15294 0.91721,1.5113 1.49116,0.58261 z m 90.80588,-4.10645 c 2.60207,-9.71129 3.2218,-15.01729 2.99459,-25.639 -0.0844,-3.93794 -0.10397,-3.98199 -1.24857,-2.78199 -1.12264,1.17696 -2.25392,6.47414 -1.38265,6.47414 0.23531,0 0.46974,0.55641 0.52098,1.23645 0.0575,0.7614 -0.28798,1.23642 -0.89881,1.23642 -0.54557,0 -0.81579,-0.17617 -0.60052,-0.39142 0.21543,-0.2152 -0.42858,-1.53675 -1.43081,-2.93655 -1.78249,-2.48956 -2.40075,-4.36922 -2.66716,-8.10911 -0.17828,-2.50339 -1.29365,-2.36116 -1.53909,0.19627 -0.50232,5.2339 2.7303,12.47726 5.56843,12.47726 1.22998,0 1.27077,0.21497 0.8733,4.60146 -0.35004,3.86279 -1.80179,10.30795 -3.8148,16.93604 -0.3825,1.25942 -0.25219,1.41843 1.01333,1.23643 1.22827,-0.17664 1.6311,-0.87629 2.61178,-4.5364 z m -81.16906,1.23644 c 0,-1.70811 -0.43865,-1.88115 -1.90892,-0.75312 -1.24729,0.95697 -0.82472,2.29866 0.72399,2.29866 0.85178,0 1.18493,-0.43454 1.18493,-1.54554 z m 2.47288,0.61822 c 0,-0.51003 -0.26177,-0.92735 -0.58172,-0.92735 -0.77958,0 -1.3379,0.96543 -0.84397,1.45934 0.69623,0.69623 1.42569,0.42402 1.42569,-0.53199 z m 69.54197,-0.29633 c 0.20585,-0.33301 0.0561,-1.20007 -0.33299,-1.92679 -0.63658,-1.18946 -0.80213,-1.22638 -1.65867,-0.36983 -0.52332,0.52334 -0.78311,1.39038 -0.57728,1.92679 0.41578,1.08345 1.98799,1.30979 2.56894,0.36983 z m -76.34239,-1.24923 c 0,-0.68004 -0.37093,-1.23645 -0.8243,-1.23645 -1.1628,0 -1.61871,0.59494 -1.23075,1.60601 0.50461,1.315 2.05505,1.03618 2.05505,-0.36956 z m 8.03687,-1.23645 c 0,-1.26764 -0.30507,-1.85466 -0.96382,-1.85466 -0.6206,0 -0.78909,0.2752 -0.47314,0.77278 0.4826,0.76004 0.58777,1.08889 0.74145,2.31833 0.17571,1.40515 0.69551,0.48096 0.69551,-1.23645 z m 28.07848,0.24298 c 0.53786,-0.20632 0.97791,-0.79518 0.97791,-1.30841 0,-1.03969 -8.5998,-9.7057 -9.11765,-9.18784 -0.55777,0.55778 2.8095,4.52007 5.39706,6.35071 2.66597,1.88611 2.98545,2.51255 1.56037,3.05943 -0.50809,0.19487 -0.76988,0.60354 -0.58174,0.90793 0.40549,0.65611 0.49503,0.66515 1.76405,0.17828 z m 6.19171,-1.12389 c -1.15079,-0.84148 -1.13698,-0.9077 0.45022,-2.15618 2.07336,-1.63091 6.95131,-7.42781 6.57065,-7.80849 -0.53678,-0.53676 -9.8378,8.98601 -9.42659,9.65135 0.46073,0.74549 2.92293,1.79938 3.329,1.4249 0.1451,-0.13389 -0.2703,-0.6341 -0.92328,-1.11158 z m -3.54894,-1.42565 c -0.15678,-0.6015 -0.2953,-0.25905 -0.30791,0.76103 -0.0117,1.02006 0.11566,1.51219 0.28501,1.09364 0.1694,-0.41856 0.17969,-1.25316 0.0234,-1.85467 z m 40.83074,1.07014 c 0.24632,-1.42686 -0.83699,-2.69644 -1.93974,-2.27327 -0.55646,0.21357 -0.98973,1.08371 -0.98973,1.98776 0,1.31197 0.25488,1.57158 1.38468,1.41038 0.76159,-0.10865 1.45672,-0.61484 1.54479,-1.12487 z m -78.97065,-1.54556 c 0,-1.73653 -0.71698,-1.98904 -1.83218,-0.64529 -0.85947,1.03557 -0.36308,2.19085 0.94134,2.19085 0.53809,0 0.89084,-0.61203 0.89084,-1.54556 z m 4.60219,0.3649 c 0.53839,-0.87117 -0.30556,-2.52867 -1.28751,-2.52867 -1.24023,0 -1.81529,1.86857 -0.77731,2.5258 1.10775,0.70144 1.63262,0.70217 2.06482,0.002 z m 67.72966,-0.0341 c 0,-0.72691 -2.44675,-2.1086 -2.91131,-1.64407 -0.18295,0.18296 -0.16776,0.76185 0.0337,1.28655 0.39561,1.03092 2.87776,1.33931 2.87776,0.35752 z m 2.94943,-1.14229 c 0.13458,-0.40376 -0.19581,-0.73413 -0.73413,-0.73413 -0.53838,0 -0.97885,0.4405 -0.97885,0.97884 0,1.09175 1.33088,0.90162 1.71298,-0.24471 z m -67.86262,-0.38852 c 0,-0.48996 -0.2782,-1.0628 -0.61822,-1.27293 -0.34002,-0.21006 -0.61823,0.19067 -0.61823,0.89085 0,0.70011 0.27821,1.27292 0.61823,1.27292 0.34002,0 0.61822,-0.40088 0.61822,-0.89084 z m -12.36443,-1.89116 c 0,-0.51003 -0.27819,-0.92732 -0.61821,-0.92732 -0.34002,0 -0.61822,0.41729 -0.61822,0.92732 0,0.51003 0.2782,0.92734 0.61822,0.92734 0.34002,0 0.61821,-0.41731 0.61821,-0.92734 z m 2.97956,-0.46365 c -0.10865,-0.76507 -0.47575,-1.39102 -0.81577,-1.39102 -0.34004,0 -0.70712,0.62595 -0.81579,1.39102 -0.13599,0.95711 0.11846,1.39099 0.81579,1.39099 0.69724,0 0.95169,-0.43388 0.81577,-1.39099 z m 75.42294,0 c -0.10865,-0.76507 -0.61485,-1.39102 -1.12488,-1.39102 -0.51002,0 -1.01622,0.62595 -1.12487,1.39102 -0.15211,1.07055 0.10701,1.39099 1.12487,1.39099 1.01782,0 1.27695,-0.32044 1.12488,-1.39099 z m 4.43911,0.15445 c 0,-0.8243 -0.41215,-1.23645 -1.23645,-1.23645 -0.82427,0 -1.23642,0.41215 -1.23642,1.23645 0,0.8243 0.41215,1.23645 1.23642,1.23645 0.8243,0 1.23645,-0.41215 1.23645,-1.23645 z m -76.20361,-0.62532 c 0.22782,-1.30363 -0.80587,-2.70448 -1.62311,-2.1994 -0.37803,0.23366 -0.68733,1.12429 -0.68733,1.9792 0,1.14369 0.28397,1.49971 1.07478,1.34741 0.59114,-0.11379 1.1472,-0.62108 1.23566,-1.12721 z m 4.37843,-0.71726 c -0.22829,-1.5513 -1.05586,-1.96745 -2.32158,-1.16738 -0.73558,0.46498 -0.74909,0.72794 -0.0788,1.53551 1.2025,1.44894 2.63546,1.22918 2.40042,-0.36813 z m 76.31621,0.97302 c 0.44402,-0.44402 -0.12103,-2.10332 -0.71628,-2.10332 -0.23132,0 -0.46243,0.55639 -0.51365,1.23643 -0.0909,1.20495 0.48561,1.61121 1.22993,0.86689 z m -86.09619,-3.95798 c 0,-1.02006 -0.25946,-1.85466 -0.57655,-1.85466 -0.75131,0 -1.46999,2.28048 -0.97242,3.08557 0.75624,1.2236 1.54897,0.59366 1.54897,-1.23091 z m 34.82025,-19.93764 c -0.0914,-11.98574 -0.17361,-23.66046 -0.18295,-25.94376 -0.0164,-3.77753 -0.19534,-4.35453 -1.99622,-6.4057 l -1.97922,-2.25422 9.65551,0.22361 c 5.31054,0.12291 9.82115,0.38914 10.02359,0.5916 0.20235,0.20258 -0.19511,1.6414 -0.88351,3.19762 -1.17516,2.6566 -1.24851,4.03147 -1.20051,22.50603 0.0516,19.90416 0.41273,29.01756 1.12135,28.30677 0.21356,-0.21426 0.39053,-11.14611 0.39313,-24.29296 0.005,-25.64764 0.0392,-25.9561 3.2414,-29.31281 l 1.62189,-1.7001 -1.50668,-0.014 c -0.82864,-0.007 -7.05349,-0.18459 -13.83297,-0.39247 l -12.32631,-0.37815 2.21157,1.94179 c 4.21515,3.70096 4.19496,3.56593 4.46783,29.86716 0.20842,20.08354 0.48085,25.85233 1.22119,25.85233 0.0643,0 0.0421,-9.80654 -0.0491,-21.7923 z m 40.90969,19.31272 c -0.39341,-1.23953 -0.52447,-1.27722 -1.39931,-0.40238 -0.80705,0.80708 -0.83133,1.12658 -0.14814,1.9498 1.07677,1.29744 2.11942,0.25479 1.54743,-1.54742 z m 6.25852,1.58184 c 0.59202,-1.54273 -0.40711,-2.3925 -1.35031,-1.14847 -0.46657,0.61538 -0.85716,1.32752 -0.868,1.58254 -0.036,0.85002 1.86857,0.47736 2.21831,-0.43407 z m 5.76979,-1.88426 c -0.009,-1.19157 -0.0416,-1.19498 -0.8754,-0.0944 -0.47587,0.62809 -0.70651,1.55558 -0.51253,2.06105 0.28745,0.74911 0.44935,0.76656 0.8754,0.0944 0.28749,-0.45353 0.51814,-1.38102 0.51253,-2.06105 z m -2.44376,0.93689 c 0,-0.26202 -0.41729,-0.82271 -0.92732,-1.246 -0.78371,-0.65041 -0.92734,-0.52153 -0.92734,0.83224 0,1.16986 0.25008,1.50588 0.92734,1.24599 0.51003,-0.19581 0.92732,-0.57022 0.92732,-0.83223 z m -77.38917,-1.09777 c 0.20725,-1.45244 -0.75498,-1.79569 -2.29687,-0.81937 -1.16833,0.73979 -0.35446,2.67174 1.01555,2.41063 0.59607,-0.11356 1.17266,-0.82967 1.28132,-1.59126 z m 71.82831,-0.15398 c 0.56779,-1.06093 0.42972,-1.33169 -0.94582,-1.85466 -2.1544,-0.81909 -2.14842,-0.82143 -2.14842,0.83014 0,2.53115 1.94352,3.17464 3.09424,1.02452 z m -76.04431,-0.61237 c 0,-1.40574 -1.55041,-1.68456 -2.05502,-0.36956 -0.38799,1.01107 0.068,1.60599 1.23073,1.60599 0.45336,0 0.82429,-0.55639 0.82429,-1.23643 z m 26.5835,-0.63808 c 0,-0.69097 -0.45916,-2.29062 -1.02039,-3.55478 -0.7442,-1.67629 -1.09116,-2.00561 -1.28178,-1.21659 -0.1437,0.59504 -0.65826,1.08189 -1.14336,1.08189 -1.29605,0 -1.08291,0.90281 0.7185,3.04368 1.85894,2.20924 2.72703,2.41481 2.72703,0.6458 z m 2.4729,0.36545 c 0,-0.92805 -1.10993,-1.91465 -1.60124,-1.42331 -0.43119,0.43119 0.42248,2.31415 1.04915,2.31415 0.30364,0 0.55209,-0.40089 0.55209,-0.89084 z m 22.36182,-0.75054 c 1.052,-0.95204 1.13056,-0.95204 1.13056,0 0,0.56275 0.288,1.02317 0.63999,1.02317 0.42147,0 0.43937,-0.37484 0.0523,-1.09784 -0.37741,-0.70521 -0.36332,-1.49853 0.0392,-2.21808 0.59478,-1.06279 0.54721,-1.06798 -0.92816,-0.10117 -1.45847,0.95562 -1.59549,0.9494 -2.20606,-0.10024 -0.54034,-0.92891 -0.65422,-0.72502 -0.66983,1.19913 -0.021,2.58109 0.29098,2.78911 1.94175,1.29517 z m 31.68661,-0.007 c 0.52641,-1.37178 -0.63604,-2.55309 -1.58175,-1.60738 -0.75686,0.75687 -0.31847,2.6381 0.61476,2.6381 0.31432,0 0.74948,-0.46384 0.96699,-1.03072 z m -4.01296,-1.91057 c -0.8936,-2.56342 -2.10547,-2.94424 -2.18919,-0.68796 -0.0498,1.34033 0.21496,1.77458 1.08188,1.77458 0.63125,0 1.14773,0.32455 1.14773,0.72126 0,0.39668 0.14043,0.5809 0.31189,0.40935 0.17151,-0.17151 0.014,-1.1693 -0.35231,-2.21723 z m -81.37527,0.005 c 0.38589,-1.96647 -0.30441,-2.95286 -1.69348,-2.41984 -0.96253,0.36937 -1.34541,2.91912 -0.55674,3.70779 0.90816,0.90816 1.93455,0.32067 2.25022,-1.28795 z m 5.37452,-0.50017 c 0,-1.19752 -0.31909,-1.50906 -1.54556,-1.50906 -1.7823,0 -1.98366,0.96407 -0.53559,2.56419 1.24236,1.37281 2.08115,0.94755 2.08115,-1.05513 z m 69.13521,0.74602 c 0.15726,-0.8167 -0.0965,-1.07041 -0.91311,-0.91313 -0.62202,0.11986 -1.22895,0.72672 -1.34874,1.34874 -0.15726,0.81671 0.0965,1.07042 0.91313,0.91312 0.62202,-0.11987 1.22895,-0.7267 1.34872,-1.34873 z m -78.50264,0.0633 c -0.22011,-1.14729 0.70917,-3.55479 1.3722,-3.55479 0.31712,0 0.57658,-0.27223 0.57658,-0.60496 0,-0.37432 -0.56707,-0.34659 -1.4874,0.0727 -2.03012,0.92499 -2.77656,4.85979 -0.9219,4.85979 0.33485,0 0.54209,-0.34775 0.46052,-0.77277 z m 12.86912,-1.34945 c -0.20445,-0.53288 -0.62896,-0.96889 -0.94327,-0.96889 -0.95838,0 -1.41651,2.03238 -0.57532,2.55227 1.03642,0.64053 1.99033,-0.35406 1.51859,-1.58338 z m 13.16836,-1.50824 c -0.0117,-0.89344 -0.41949,-2.31993 -0.90543,-3.16997 -0.83617,-1.46273 -0.88468,-1.33443 -0.90543,2.39401 -0.0187,3.4331 0.0974,3.84064 0.90543,3.16997 0.51003,-0.42329 0.91748,-1.5006 0.90543,-2.39401 z m 55.68755,0.26127 c -0.43746,-0.52711 -1.00973,-0.95837 -1.27176,-0.95837 -0.89138,0 -1.25103,2.00799 -0.51788,2.89138 0.63011,0.75925 0.8576,0.75276 1.65767,-0.0474 0.76226,-0.76229 0.78577,-1.09791 0.13201,-1.88569 z m -58.93868,-1.73112 c -0.14743,-0.76507 -0.26791,-0.13903 -0.26791,1.39099 0,1.53009 0.12057,2.15603 0.26791,1.39099 0.14744,-0.76505 0.14744,-2.01694 0,-2.78198 z m 64.47692,2.97302 c 0,-0.48996 -0.2782,-1.06277 -0.61824,-1.27293 -0.34002,-0.21005 -0.61821,0.19067 -0.61821,0.89085 0,0.70011 0.27819,1.27292 0.61821,1.27292 0.34004,0 0.61824,-0.40088 0.61824,-0.89084 z m -23.69599,-5.08279 c -0.83648,-0.83648 -1.64664,0.71763 -1.60227,3.07358 l 0.0488,2.59095 0.9429,-2.66609 c 0.5186,-1.46635 0.79336,-2.81565 0.61055,-2.99844 z m -4.32369,3.34619 c 2.18286,-2.42474 2.42061,-3.17651 0.87695,-2.77284 -1.02357,0.26768 -1.50794,0.0187 -1.91217,-0.9845 -0.54134,-1.34297 -0.54134,-1.34297 -0.58052,-0.0292 -0.021,0.72257 -0.2131,2.1831 -0.42559,3.24568 -0.45631,2.28156 0.29509,2.48068 2.04133,0.54094 z m -4.69968,-0.0163 c -0.0764,-0.73923 -0.9244,-0.59607 -1.19007,0.20094 -0.13599,0.40802 0.0865,0.63058 0.49458,0.49456 0.40802,-0.13599 0.721,-0.44897 0.69549,-0.69548 z m 23.87023,-1.08238 c 0.11636,-0.7631 -0.16707,-1.22051 -0.75659,-1.22051 -1.27556,0 -1.91006,1.85113 -0.85748,2.50166 1.01176,0.62532 1.36604,0.34411 1.61407,-1.28115 z m -48.65488,-2.88411 c 0.005,-1.42504 -0.26874,-2.7629 -0.60878,-2.97305 -0.34002,-0.21006 -0.61821,0.17431 -0.61821,0.85437 0,1.64183 -1.06125,2.22441 -2.25198,1.2362 -0.84535,-0.70159 -0.83918,-0.50543 0.0512,1.62523 1.81632,4.34703 3.41057,4.00159 3.42791,-0.74275 z m -16.06429,1.35449 c 0,-1.75162 -0.23551,-2.16377 -1.23645,-2.16377 -0.68004,0 -1.23643,0.16566 -1.23643,0.36829 0,0.43767 2.04313,3.95925 2.29707,3.95925 0.0967,0 0.17571,-0.97368 0.17571,-2.16377 z m 71.71363,1.54556 c 0,-0.34002 -0.41731,-0.61822 -0.92734,-0.61822 -0.51003,0 -0.92732,0.2782 -0.92732,0.61822 0,0.34002 0.41729,0.61821 0.92732,0.61821 0.51003,0 0.92734,-0.27819 0.92734,-0.61821 z m -50.69413,-0.18786 c 0,-0.10328 -0.93914,-1.09811 -2.08699,-2.21065 l -2.08701,-2.0228 0.32448,1.74697 c 0.17851,0.96085 0.63076,1.95137 1.0051,2.20118 0.66266,0.4422 2.84442,0.66102 2.84442,0.2853 z m 47.60302,-0.43038 c 0,-0.34002 -0.62595,-0.59868 -1.39099,-0.57478 -1.32727,0.0416 -1.33435,0.0678 -0.15445,0.57478 0.68004,0.29221 1.30601,0.55087 1.39102,0.57475 0.085,0.0238 0.15444,-0.23473 0.15444,-0.57475 z m -25.9585,-2.00923 c 1.30753,-2.14449 1.581,-3.22663 0.67368,-2.6659 -0.95494,0.5902 -3.14387,4.67513 -2.50519,4.67513 0.33357,0 1.15773,-0.90416 1.83151,-2.00923 z m -21.50187,-1.00847 c -0.20375,-1.38898 -0.51912,-1.71386 -1.43153,-1.47527 -1.12539,0.29429 -1.07997,0.7972 0.22431,2.48374 0.9933,1.28435 1.48354,0.87477 1.20713,-1.00847 z m -28.73226,0.0811 c 0.37628,-1.14261 -2.12099,-0.95038 -2.56134,0.19721 -0.2785,0.72579 -0.0351,0.92031 0.96732,0.77278 0.73673,-0.10842 1.45403,-0.54489 1.59402,-0.96992 z m 17.4182,-1.93037 c -0.0238,-0.89341 -0.26679,-2.1808 -0.53975,-2.86084 -0.35932,-0.89521 -0.5606,-0.26945 -0.72932,2.26747 -0.18296,2.75198 -0.0673,3.36592 0.53975,2.86084 0.42502,-0.35369 0.75322,-1.37405 0.72932,-2.26747 z m 53.39076,0.92576 c 0.31167,-0.93506 0.40535,-1.86146 0.20819,-2.05867 -0.68341,-0.6834 -2.24312,1.21264 -2.24312,2.72684 0,1.98025 1.29376,1.55546 2.03497,-0.66817 z m -22.31262,-0.51003 c -0.57702,-0.57702 -0.74186,-0.41215 -0.74186,0.74186 0,1.15402 0.16472,1.31887 0.74186,0.74187 0.577,-0.57702 0.577,-0.90673 0,-1.48373 z m 7.38405,0.0846 c 0.60038,-0.8286 1.27341,-2.27162 1.49562,-3.20668 0.34217,-1.4398 0.20679,-1.70009 -0.88356,-1.70009 -1.49158,0 -3.17399,2.79644 -3.17399,5.27567 0,1.92941 1.00111,1.78525 2.56193,-0.3689 z m 3.55866,-1.97023 c 0.0339,-0.59503 -0.18623,-1.08188 -0.48895,-1.08188 -0.61413,0 -1.25384,4.17173 -0.72138,4.70419 0.3657,0.36568 1.11007,-1.86209 1.21033,-3.62231 z m 18.59878,2.78199 c -0.0117,-1.4027 -1.03955,-3.02095 -1.57673,-2.48377 -0.58096,0.58097 0.23915,3.56565 0.97976,3.56565 0.33354,0 0.60218,-0.48685 0.59697,-1.08188 z m 6.19167,-1.08189 c 0,-0.96167 -0.35033,-1.54555 -0.92732,-1.54555 -1.09684,0 -1.14208,0.29826 -0.28736,1.89531 0.86026,1.60741 1.21468,1.50535 1.21468,-0.34976 z m -90.32939,0.0834 c 0.52849,-0.63682 0.47213,-1.2819 -0.22968,-2.62744 -0.51155,-0.98088 -0.93179,-2.66883 -0.93389,-3.75099 -0.002,-1.40162 -0.34845,-2.07694 -1.20205,-2.34787 -1.51817,-0.48185 -2.94865,-4.4585 -1.95958,-5.44756 0.37671,-0.37672 0.67569,-1.11616 0.66439,-1.64317 -0.0446,-2.08083 -2.45234,1.98139 -2.45234,4.13757 0,1.68697 0.48694,2.63606 2.16379,4.21753 1.91971,1.81053 2.16377,2.39404 2.16377,5.17331 0,3.17005 0.51071,3.82466 1.78552,2.28862 z m 27.88909,-2.23301 c 0,-2.87324 -0.59485,-3.72341 -2.60518,-3.72341 -1.43721,0 -1.77019,0.22011 -1.47941,0.97791 0.20632,0.53783 0.37526,1.19581 0.37526,1.46216 0,0.94996 2.58227,3.74751 3.1406,3.40244 0.3128,-0.19324 0.56873,-1.14691 0.56873,-2.1191 z m -18.24776,0.86309 c 3.32788,-2.1805 4.39696,-10.39127 1.85761,-14.26682 -1.52836,-2.33257 -2.24733,-1.05406 -0.7932,1.4105 1.00192,1.69811 1.12179,2.31621 0.52117,2.68742 -0.55234,0.34137 -0.58031,0.6055 -0.0958,0.90496 1.82434,1.12749 0.25401,5.78928 -2.49767,7.41472 -2.16634,1.2797 -4.26886,0.93125 -6.07432,-1.00667 -1.51681,-1.6281 -1.5556,-2.45275 -0.24527,-5.21406 0.55454,-1.16862 0.8261,-2.30688 0.60349,-2.52951 -0.87621,-0.87622 -2.41745,1.74919 -2.6862,4.5758 -0.22688,2.38502 -0.021,3.31509 1.02595,4.64143 1.873,2.37238 5.86793,3.031 8.38424,1.38223 z m 21.77443,-1.06807 c -0.7496,-0.78503 -1.6943,-1.96738 -2.09933,-2.62744 -0.70803,-1.15383 -0.73782,-1.14647 -0.77277,0.19089 -0.0407,1.55418 1.95338,3.8639 3.33575,3.8639 0.65296,0 0.52596,-0.39094 -0.46365,-1.42735 z m 27.94306,-1.09724 c 0.93099,-1.25923 1.08263,-1.80298 0.50281,-1.80298 -0.80687,0 -4.1526,3.09373 -4.1526,3.83985 0,0.94884 2.45549,-0.42152 3.64979,-2.03687 z M 306.2916,189.5269 c 0,-2.68861 -0.86748,-3.83296 -2.90563,-3.83296 -1.7874,0 -1.85408,1.44738 -0.1923,4.17298 1.70923,2.80336 3.09786,2.65094 3.09786,-0.34002 z m 22.54324,-1.82375 c 0.35109,-1.17883 0.18132,-1.39099 -1.11247,-1.39099 -1.64898,0 -2.8797,2.34216 -2.39708,4.56189 0.23471,1.07953 0.35313,1.05766 1.67393,-0.3091 0.78175,-0.80893 1.60778,-2.09673 1.83562,-2.8618 z m 20.73224,2.60569 c 0,-0.7575 -0.24957,-0.81552 -1.23645,-0.28736 -0.68004,0.36395 -1.23645,0.79103 -1.23645,0.94908 0,0.15795 0.55641,0.28737 1.23645,0.28737 0.69951,0 1.23645,-0.41215 1.23645,-0.94909 z m 3.07948,-2.70032 c -2.5434,-2.41951 -2.57181,-2.49431 -2.29605,-6.04608 0.15352,-1.97794 0.49961,-4.25947 0.76897,-5.07003 0.37512,-1.1288 0.28694,-1.40735 -0.37677,-1.19 -1.11815,0.36614 -2.33259,3.86906 -2.37719,6.85661 -0.054,3.62523 1.3951,6.37766 4.09009,7.76816 3.21956,1.66117 3.30346,0.64221 0.1909,-2.31866 z m 10.23718,2.66882 c 3.88003,-1.84121 5.68817,-6.85091 3.45015,-9.55913 l -1.25246,-1.5156 0.32047,2.16377 c 0.24784,1.67332 -0.0664,2.75317 -1.38635,4.76401 -0.93874,1.43013 -2.27571,2.68203 -2.97101,2.78201 -1.32853,0.1909 -2.20293,2.34553 -0.95192,2.34553 0.39857,0 1.65458,-0.44126 2.79112,-0.98059 z m -86.60847,-0.92636 c -0.19908,-0.32208 -0.62543,-0.42274 -0.94751,-0.22361 -0.32207,0.19907 -0.42273,0.62543 -0.22361,0.9475 0.19908,0.32208 0.62543,0.42274 0.94751,0.22361 0.32207,-0.19907 0.42273,-0.62543 0.22361,-0.9475 z m 3.71136,0.10234 c 0.51958,-0.8407 -2.68817,-3.1406 -4.38032,-3.1406 -1.92166,0 -1.88135,1.10768 0.0579,1.59444 0.8361,0.20982 1.84387,0.77153 2.23945,1.2482 0.83138,1.00174 1.58157,1.10906 2.08286,0.29796 z m 57.83424,-0.0336 c 0,-0.9876 -3.49644,-2.49185 -5.68783,-2.44703 -1.86938,0.0383 -1.79129,0.10865 0.93426,0.84131 1.6358,0.43979 3.29108,1.11651 3.67841,1.50385 0.86127,0.86126 1.07516,0.88154 1.07516,0.10187 z m 10.08263,-0.36523 c 0.79816,-0.30628 0.79423,-0.5823 -0.0318,-2.23826 -0.70004,-1.40326 -0.8454,-2.94267 -0.56539,-5.9874 0.25018,-2.72025 0.17712,-3.78667 -0.2173,-3.17119 -0.56639,0.88403 -0.89421,11.74622 -0.35453,11.74622 0.1423,0 0.66827,-0.15726 1.16899,-0.34937 z m -49.33386,-2.12353 c 1.32986,0 2.07664,-0.24969 1.84887,-0.61822 -0.76362,-1.23556 -4.51788,-0.66356 -6.30228,0.9602 l -1.73459,1.57841 1.97853,-0.9602 c 1.08817,-0.52809 2.98243,-0.96019 4.20947,-0.96019 z m -16.38866,0.0187 c 0,-0.82783 -0.29656,-1.10324 -0.92732,-0.86119 -0.99181,0.38058 -1.18284,0.99842 -0.51519,1.66607 0.77977,0.77977 1.44251,0.40996 1.44251,-0.80488 z m 73.66635,-1.1946 c 1.40711,-0.70754 1.93219,-0.68245 3.64974,0.17431 3.60682,1.79931 4.27922,0.91426 1.00094,-1.31751 -2.50456,-1.70505 -6.01223,-1.83246 -7.42645,-0.26976 -0.78869,0.87148 -0.84963,1.28634 -0.27357,1.86238 0.40764,0.40764 0.89068,0.65919 1.07345,0.55905 0.18272,-0.10024 1.07191,-0.55403 1.97589,-1.00854 z m -18.64467,-1.64979 c 0,-1.9282 -0.17361,-2.18183 -1.37553,-2.00923 -0.75654,0.10865 -1.7226,0.89307 -2.1468,1.74311 -0.69525,1.39322 -0.63586,1.58517 0.60274,1.94759 2.6152,0.76521 2.91959,0.5899 2.91959,-1.68147 z m -59.34922,-0.22595 c 0,-1.81076 -1.11604,-4.3678 -1.90637,-4.3678 -0.46416,0 -0.54454,0.57368 -0.23821,1.70012 0.25429,0.93506 0.44084,2.18695 0.41456,2.78199 -0.0264,0.59503 0.35221,1.08188 0.84112,1.08188 0.48891,0 0.8889,-0.53828 0.8889,-1.19619 z m 18.84784,0.59076 c 0.5402,-0.87405 -0.80215,-3.1039 -1.86852,-3.1039 -0.59405,0 -0.90556,0.63803 -0.90556,1.85467 0,1.42372 0.27882,1.85466 1.19995,1.85466 0.65997,0 1.36835,-0.27245 1.57413,-0.60543 z m 34.16461,0.17921 c -0.59504,-0.15561 -1.56874,-0.15561 -2.16377,0 -0.59504,0.15562 -0.10818,0.28273 1.08188,0.28273 1.19007,0 1.67692,-0.12711 1.08189,-0.28273 z m 33.53849,-2.37502 c 0,-1.16051 -1.01646,-5.20343 -2.25882,-8.98427 -1.80251,-5.48565 -2.55944,-7.01127 -3.74711,-7.5524 -1.07328,-0.48903 -1.40171,-1.03354 -1.17775,-1.95266 0.1708,-0.701 -0.0904,-1.81457 -0.58043,-2.47461 -1.05172,-1.41653 -1.16738,-4.85609 -0.22268,-6.62129 0.36757,-0.68681 0.49155,-1.42552 0.27551,-1.64156 -0.5633,-0.56331 -1.54142,1.18677 -1.55257,2.77787 -0.007,1.06125 -0.42881,1.39346 -1.96037,1.54555 l -1.9509,0.1937 1.65741,1.96248 c 2.4743,2.9297 7.51033,14.0877 8.74071,19.36614 1.49146,6.39863 1.45765,6.30641 2.15442,5.8758 0.3424,-0.21169 0.62258,-1.33428 0.62258,-2.49477 z m -91.5304,-2.05278 c -0.95039,-0.31679 -1.58306,0.49734 -2.09057,2.69018 l -0.42925,1.85466 1.60628,-2.15697 c 0.9698,-1.30231 1.33178,-2.24847 0.91354,-2.38787 z m 30.01742,3.61752 c -0.4829,-0.78135 -2.19117,-0.78135 -3.40021,0 -0.68839,0.44487 -0.32056,0.60172 1.42748,0.60875 1.41448,0.005 2.20223,-0.23739 1.97273,-0.60875 z m 3.70933,0 c -0.21006,-0.34002 -0.79939,-0.61823 -1.30942,-0.61823 -0.51003,0 -0.75539,0.27821 -0.54524,0.61823 0.21006,0.34002 0.79937,0.61822 1.3094,0.61822 0.51002,0 0.75539,-0.2782 0.54526,-0.61822 z m -36.78415,-1.20736 c 0,-0.66403 0.31476,-1.89819 0.69948,-2.74256 0.38472,-0.84437 0.50395,-2.03981 0.26497,-2.65653 -0.41395,-1.06819 -0.47638,-1.06446 -1.31772,0.0787 -1.00029,1.35919 -1.21009,6.52771 -0.26497,6.52771 0.34002,0 0.61824,-0.54332 0.61824,-1.20736 z m 10.87493,-0.4882 c -0.42874,-0.42874 -1.60162,0.44236 -1.60162,1.18953 0,0.40993 0.35472,0.36303 0.94228,-0.12454 0.51823,-0.43012 0.81495,-0.90933 0.65934,-1.06494 z m 75.03763,-1.12474 c 0.0117,-0.36107 -0.78878,-1.25456 -1.77746,-1.98553 -2.05397,-1.51857 -2.52994,-1.0267 -2.52994,2.61442 v 2.03503 l 2.14363,-1.00368 c 1.17902,-0.55204 2.15272,-1.29914 2.16377,-1.66024 z m -24.03052,0.89811 c 0.81708,-0.71716 2.45314,-2.10818 3.63568,-3.09111 2.11529,-1.75821 2.12475,-1.78713 0.58494,-1.78713 -1.43908,0 -3.61733,1.82468 -6.08862,5.10031 -1.13142,1.49969 0.0689,1.35697 1.868,-0.22197 z m -30.35277,0.18763 c 0,-0.67784 -2.89937,-4.56215 -3.86114,-5.17277 -1.35491,-0.86024 -2.30475,-0.57548 -1.90314,0.57057 0.8951,2.55419 5.76428,6.44175 5.76428,4.6022 z m 26.30714,-1.20198 c -1.15324,-4.77762 -1.6653,-6.31756 -2.21332,-6.65627 -0.68278,-0.42197 -0.78309,2.53832 -0.20469,6.03803 0.29226,1.76823 0.67329,2.31833 1.60577,2.31833 1.02104,0 1.15493,-0.28022 0.81217,-1.70009 z m -46.09022,-0.1902 c 0,-0.9723 -1.29524,-1.30346 -2.19085,-0.56015 -1.35531,1.12478 -1.08527,1.69608 0.64529,1.36526 0.85005,-0.16239 1.54556,-0.52479 1.54556,-0.80511 z m 24.78231,0.49926 c 0.0294,-0.42503 0.0991,-2.51566 0.15469,-4.64583 0.0881,-3.37379 -0.007,-3.73241 -0.73769,-2.78198 -1.32489,1.72337 -2.56145,4.92659 -2.56145,6.63517 0,1.25762 0.30387,1.56541 1.54555,1.56541 0.85005,0 1.5696,-0.34775 1.59902,-0.77277 z m 53.34209,-0.61824 c 0.20492,-0.76504 0.37659,-2.07655 0.38122,-2.91447 0.007,-1.34395 -0.0993,-1.41583 -0.90508,-0.60994 -1.39045,1.39045 -1.95081,4.91542 -0.78142,4.91542 0.51288,0 1.10027,-0.62594 1.30528,-1.39101 z m -74.41507,-1.65594 c 0,-1.6024 -1.61979,-4.19444 -2.23604,-3.57819 -0.22502,0.22501 1.76458,5.36951 2.08149,5.38241 0.0851,0.002 0.15445,-0.80844 0.15445,-1.80422 z m 47.2458,-3.75348 c -0.79465,-3.43906 -5.73916,-11.74619 -6.99145,-11.74619 -0.26694,0 -0.54438,1.63705 -0.61658,3.63792 -0.10655,2.95514 0.1465,4.04712 1.34844,5.81839 0.81386,1.19928 1.84749,3.49401 2.29695,5.09941 l 0.81725,2.91893 1.75127,-2.09146 c 1.28353,-1.53286 1.65589,-2.50423 1.39412,-3.637 z m 5.77951,4.44345 c 0.13459,-0.40376 -0.1958,-0.73413 -0.73413,-0.73413 -0.53837,0 -0.97884,0.44049 -0.97884,0.97884 0,1.09175 1.33087,0.90162 1.71297,-0.24471 z m -57.87494,-2.15019 c 0.63651,-1.18932 0.62146,-1.19014 -0.94167,-0.0509 -0.87367,0.63679 -1.59724,1.53962 -1.60791,2.00629 -0.0164,0.69742 0.15164,0.70646 0.94164,0.0509 0.5286,-0.43871 1.25217,-1.34152 1.60794,-2.00628 z m 14.40564,1.45877 c 0.4572,-0.73976 -0.70576,-1.47272 -1.52922,-0.96381 -0.6914,0.42731 -0.23751,1.53931 0.62831,1.53931 0.29987,0 0.70529,-0.25896 0.90091,-0.5755 z m 7.75416,-1.35627 c 0,-1.47022 0.96422,-3.46613 2.50136,-5.17775 0.70257,-0.78233 1.15736,-2.37172 1.23828,-4.32756 0.18739,-4.53255 0.0633,-5.25488 -0.90267,-5.25488 -1.37162,0 -3.71711,3.19834 -5.60773,7.64682 l -1.73398,4.07991 1.65752,2.50467 c 1.68727,2.54966 2.84722,2.76507 2.84722,0.52879 z m -26.02549,0.3382 c 1.34073,-0.53645 2.6006,-1.39992 2.79972,-1.9188 0.19908,-0.51891 0.75397,-0.79306 1.23299,-0.60924 0.47902,0.18389 1.03193,-0.0853 1.22867,-0.59798 0.2666,-0.69474 -0.014,-0.88355 -1.09932,-0.74126 -0.80137,0.10492 -1.91303,-0.18739 -2.47033,-0.65001 -0.60078,-0.4986 -1.01328,-0.5733 -1.01328,-0.18342 0,0.36158 0.2782,0.82937 0.61821,1.03952 1.76298,1.08957 -1.02674,3.4002 -4.10518,3.4002 -0.76222,0 -1.55776,0.27821 -1.76791,0.61823 -0.57517,0.93062 1.82637,0.7432 4.57643,-0.35714 z m 80.67731,0.45545 c 0.17664,-0.28595 -0.48725,-1.11771 -1.47548,-1.84833 -1.20372,-0.88994 -2.15695,-2.47087 -2.88781,-4.78948 -1.00896,-3.2008 -1.01751,-3.66545 -0.11356,-6.17921 0.7785,-2.1649 0.81968,-2.84909 0.20235,-3.36148 -0.97393,-0.8083 -1.28596,-0.064 -1.84092,4.39163 -0.32892,2.64092 -0.13716,4.08764 0.91316,6.89201 1.50571,4.01993 4.18503,6.54089 5.20233,4.89486 z m -84.63553,-3.71559 c -3.20782,-2.98594 -3.97649,-4.11054 -4.3094,-6.30489 -0.44888,-2.95873 0.44042,-4.25504 2.17944,-3.17689 1.15893,0.7185 1.28218,0.68326 1.08147,-0.30911 -0.1409,-0.69714 -0.74444,-1.10149 -1.59822,-1.07093 -2.93954,0.10515 -0.8784,-2.71298 2.9168,-3.9881 2.64102,-0.88734 3.5835,-0.13529 2.33576,1.86371 -0.50021,0.8014 -1.56385,3.32652 -2.36366,5.61139 -1.17131,3.3462 -1.30229,4.30619 -0.67338,4.9351 0.62891,0.62892 0.84834,0.52251 1.12803,-0.54702 0.1909,-0.7303 1.53081,-4.27256 2.97742,-7.87166 1.44658,-3.59911 2.40864,-6.54384 2.13792,-6.54384 -0.27071,0 -1.1752,-1.35977 -2.00995,-3.02174 l -1.51775,-3.02174 2.33224,-0.37294 c 2.81392,-0.44996 4.22328,-1.82583 3.17013,-3.0948 -0.56391,-0.67946 -0.42004,-0.92989 0.69708,-1.21349 1.24738,-0.31667 3.35647,-2.68473 2.84144,-3.19032 -0.10865,-0.10655 -1.19782,-0.3806 -2.4206,-0.60898 -1.62788,-0.30402 -2.48517,-0.15328 -3.20149,0.56309 -1.20094,1.20093 -2.67864,1.26587 -3.11191,0.13669 -0.46162,-1.20292 -2.90047,-1.74622 -2.90047,-0.64611 0,1.09723 -0.60324,1.07525 -2.12737,-0.0776 -1.71617,-1.29804 -4.05484,-1.17971 -4.05484,0.20516 0,0.61204 0.34776,1.46536 0.77278,1.89627 0.61934,0.62791 0.53973,0.95553 -0.40086,1.64989 -0.97062,0.71651 -1.03772,1.03013 -0.38797,1.81305 0.63801,0.76871 0.62618,1.13889 -0.0629,1.9695 -0.75799,0.91377 -0.62504,0.90734 1.24636,-0.0601 1.30939,-0.67695 2.7638,-0.94923 3.87898,-0.72618 1.58032,0.31604 1.71517,0.22805 1.18042,-0.77124 -0.33205,-0.62043 -1.59072,-1.88088 -2.7971,-2.80103 -1.20636,-0.92012 -2.19338,-2.10988 -2.19338,-2.64393 0,-0.64691 1.14596,0.007 3.43366,1.96249 3.43363,2.93344 3.43363,2.93344 4.79121,1.6979 1.88903,-1.71923 3.8066,-2.62989 5.48992,-2.60716 1.07354,0.014 0.67948,0.38781 -1.57544,1.49243 -3.83326,1.87784 -4.82911,2.81579 -2.98966,2.81579 0.74803,0 1.36008,0.27819 1.36008,0.61821 0,0.34002 -0.5301,0.61822 -1.17801,0.61822 -1.40216,0 -6.24064,2.48551 -6.24064,3.20581 0,0.27693 -0.4658,0.50351 -1.03509,0.50351 -0.8518,0 -0.76967,-0.29123 0.46365,-1.64453 1.20678,-1.32417 1.27814,-1.56505 0.36633,-1.23645 -0.62286,0.22454 -1.50095,0.40811 -1.95135,0.40811 -0.4875,0 -0.69983,0.4553 -0.52468,1.12506 0.16169,0.6188 -0.14253,1.48747 -0.67609,1.93037 -0.53367,0.4429 -0.97031,1.37073 -0.97031,2.06185 0,1.14649 0.0949,1.17334 1.08188,0.30653 0.59504,-0.5225 1.77739,-1.146 2.62744,-1.38554 0.85005,-0.23953 2.1419,-1.14404 2.87078,-2.01 1.25441,-1.49035 1.35746,-1.51229 1.92784,-0.4104 0.33145,0.64027 0.79093,2.20737 1.02111,3.48244 0.39486,2.18742 0.32855,2.31834 -1.17446,2.31834 -0.91409,0 -1.76085,-0.43748 -1.98689,-1.02653 -0.33647,-0.87685 -0.46645,-0.83047 -0.89134,0.3181 -0.27356,0.73955 -1.1577,1.59567 -1.96476,1.90251 -3.00821,1.14374 -4.42301,7.17413 -2.66833,11.3736 1.04109,2.49171 4.35577,5.36692 6.15914,5.3426 1.26061,-0.0164 1.22907,-0.12477 -0.5111,-1.74449 z m 74.65019,1.35758 c 0.59503,-0.16309 1.08188,-0.67231 1.08188,-1.13161 0,-1.20895 -10.76662,-1.25944 -12.48116,-0.0587 -1.17191,0.82085 -1.1767,0.87884 -0.0949,1.15355 1.51476,0.38467 10.12405,0.41208 11.49422,0.0367 z m -70.91801,-1.29508 c -0.23015,-0.59503 -0.57973,-1.88092 -0.77675,-2.85752 -0.3582,-1.77562 -0.3582,-1.77562 -1.1249,-0.34299 -0.55751,1.04168 -0.58957,1.82146 -0.11753,2.8575 0.77016,1.69034 2.66492,2.0122 2.01916,0.34301 z m 82.50966,-0.46364 c 0,-1.7498 -0.43038,-1.88273 -2.07113,-0.63971 -1.33054,1.00802 -0.86124,2.18524 0.87117,2.18524 0.86781,0 1.19996,-0.42781 1.19996,-1.54553 z m -62.78035,0.36268 c -0.32301,-0.31053 -3.27649,-0.65828 -6.56329,-0.77278 -4.72843,-0.16473 -5.84193,-0.0467 -5.33375,0.56464 0.43194,0.51972 2.58116,0.77278 6.5633,0.77278 3.58927,0 5.68977,-0.22245 5.33374,-0.56464 z m 38.46121,-5.10952 c -1.41104,-3.37457 -6.75782,-9.78136 -8.16301,-9.78136 -1.80329,0 -1.43109,1.29304 1.10286,3.83127 2.59092,2.59532 6.01163,8.73756 6.05278,10.86836 0.0164,0.89638 0.20445,0.84447 1.18248,-0.32784 1.14006,-1.36665 1.13677,-1.45299 -0.17501,-4.59043 z m -36.54857,2.4285 c 0.97723,-4.51991 5.53394,-10.97343 7.74813,-10.97343 0.71289,0 0.71551,-0.66887 0.007,-1.78772 -0.44991,-0.71046 -0.85972,-0.63618 -2.35182,0.42628 -2.45722,1.74973 -6.81735,8.23328 -7.3128,10.8743 -0.6771,3.60927 1.14376,5.00208 1.90945,1.46057 z m 42.32108,0.46367 c -0.4233,-0.51005 -1.04782,-0.92734 -1.38784,-0.92734 -0.34488,0 -0.27791,0.41005 0.15141,0.92734 0.4233,0.51003 1.04782,0.92732 1.38784,0.92732 0.34485,0 0.27791,-0.41004 -0.15141,-0.92732 z m 17.31018,-1.51363 c 0,-0.94006 -0.82809,-1.19956 -1.93596,-0.60665 -0.63534,0.34002 -1.15516,1.17126 -1.15516,1.84716 0,1.16878 0.0757,1.17937 1.54556,0.21637 0.85005,-0.557 1.54556,-1.21253 1.54556,-1.45679 z m 7.00538,0.74086 c 2.28333,-4.54071 1.4394,-9.37143 -2.05204,-11.74622 -2.04028,-1.38772 -4.60765,-1.83225 -5.18518,-0.89781 -0.51487,0.83309 0.46512,1.72515 2.00112,1.8216 3.21126,0.20165 5.19869,4.38212 4.00299,8.42016 -0.52917,1.78707 -0.45564,4.10236 0.13038,4.10236 0.13622,0 0.63261,-0.76504 1.10282,-1.70009 z m -82.10272,-0.10258 c -0.20679,-0.65144 -0.0865,-1.36335 0.26747,-1.58205 1.47312,-0.91045 0.18108,-5.67622 -2.30901,-8.51608 -2.02933,-2.31448 -2.71682,-0.76427 -0.84872,1.91378 1.49822,2.14783 2.02666,5.07873 1.34452,7.45718 -0.48227,1.68162 -0.39968,1.91158 0.68672,1.91158 0.93552,0 1.1438,-0.28716 0.85902,-1.18441 z m 10.80235,0.54573 c 0,-0.58188 -6.65115,-0.7228 -7.00038,-0.14837 -0.15982,0.26286 1.34992,0.49533 3.35491,0.51662 2.00503,0.021 3.64547,-0.1444 3.64547,-0.36827 z m 44.60039,-0.4432 c 0.27712,-3.38805 -0.31039,-9.91256 -0.98877,-10.98073 -0.43444,-0.68405 -2.4568,-2.41301 -4.49413,-3.84211 l -3.70426,-2.59837 -1.42922,1.52134 c -0.78609,0.83674 -1.31222,1.60979 -1.1692,1.71791 4.57391,3.45744 6.28711,5.3386 8.23113,9.03806 1.22624,2.33355 2.22954,4.68899 2.22954,5.2343 0,1.34854 1.21402,1.2657 1.32491,-0.0904 z m 7.13857,-0.37682 c -0.40465,-0.72782 -0.98672,-1.505 -1.29349,-1.72704 -0.30677,-0.22198 -1.19974,-1.89128 -1.98439,-3.70933 l -1.42662,-3.30558 -0.0248,2.61318 c -0.021,2.12031 0.26668,2.80421 1.52074,3.62589 0.85005,0.55697 1.54554,1.29131 1.54554,1.63187 0,0.34056 -0.69549,0.48624 -1.54554,0.32373 -0.85007,-0.16239 -1.54555,-0.047 -1.54555,0.25696 0,0.68039 1.88887,1.41062 3.94917,1.52674 1.39791,0.0788 1.47252,-0.0357 0.80498,-1.23642 z m -65.33981,-0.0675 c 0,-0.5515 -0.36264,-0.76876 -0.92377,-0.55344 -0.50809,0.19487 -0.76988,0.60354 -0.58174,0.90792 0.53947,0.8729 1.50551,0.64544 1.50551,-0.35448 z m 68.58116,-1.56495 c 1.42058,0 2.1316,-2.86844 0.83442,-3.3662 -0.54426,-0.20889 -0.73497,-0.78866 -0.50143,-1.5245 0.47529,-1.49752 -0.6527,-2.2552 -1.73947,-1.16843 -0.99057,0.99057 -1.799,5.55214 -1.24149,7.005 0.36462,0.95017 0.45077,0.95459 0.9575,0.0491 0.30626,-0.54725 1.06698,-0.99501 1.69047,-0.99501 z m -69.20421,-1.08188 c 0.002,-0.42503 -0.55158,-0.77278 -1.23162,-0.77278 -0.68003,0 -1.23644,0.25546 -1.23644,0.56765 0,0.31221 -0.1631,0.99291 -0.36262,1.51265 -0.31009,0.80807 -0.13155,0.83779 1.23161,0.20516 0.87685,-0.40692 1.59643,-1.08761 1.59907,-1.51264 z m 7.99824,-2.3972 c 0.0259,-1.5263 -0.31831,-2.85198 -0.85678,-3.29888 -1.1038,-0.91606 -2.26466,-0.31593 -1.78861,0.92466 0.1916,0.49914 0.0886,0.90753 -0.22898,0.90753 -0.87842,0 -0.15492,3.86772 0.96174,5.14067 0.95094,1.08415 0.99935,1.08415 1.42678,0 0.24336,-0.61724 0.46202,-2.27051 0.4859,-3.67398 z m 11.12889,-3.26159 c 1.39963,-1.96562 4.45696,-4.71761 5.73825,-5.16518 0.58973,-0.20608 0.49084,-0.62127 -0.38208,-1.60469 -1.47305,-1.65947 -2.24534,-1.66393 -4.32889,-0.025 -0.93728,0.73723 -2.16997,1.16705 -2.84264,0.99115 -1.55072,-0.40554 -2.30916,0.65852 -2.11122,2.96197 0.0876,1.02006 0.19206,3.94116 0.23178,6.49131 l 0.0724,4.63667 1.16418,-3.23463 c 0.64029,-1.77903 1.74638,-4.05224 2.45799,-5.0516 z m -26.9162,6.381 c 0.59907,-1.56119 0.45358,-1.94852 -0.8612,-2.29235 -0.77686,-0.20305 -1.23645,-0.0187 -1.23645,0.49556 0,1.23269 0.68715,2.77467 1.23645,2.77467 0.26726,0 0.65481,-0.44004 0.8612,-0.97788 z m 19.2591,-0.53956 c 1.64107,-1.64108 1.88085,-1.55318 0.87748,0.32165 -0.71091,1.32832 -0.0164,1.60582 1.13453,0.45393 0.97622,-0.9762 0.95447,-2.89479 -0.0308,-2.72446 -1.43052,0.24728 -4.79123,2.25616 -4.79123,2.86398 0,1.05566 1.24467,0.65034 2.81011,-0.9151 z m 65.79867,-0.89669 c -0.007,-0.20235 -0.55777,-1.06336 -1.22269,-1.9134 l -1.20895,-1.54556 -0.014,3.03237 c -0.014,2.99349 0.002,3.01802 1.22271,1.9134 0.68004,-0.61543 1.23024,-1.28449 1.22269,-1.48681 z m -76.49441,-1.86959 c -0.85997,-2.43358 -2.62412,-3.37739 -2.62412,-1.40389 0,0.61202 -0.2627,1.37709 -0.58379,1.70009 -0.36797,0.37019 0.18061,0.60352 1.48366,0.63112 1.62275,0.0343 1.99362,-0.1652 1.72425,-0.92732 z m 10.87607,-0.66203 c 1.03518,0 2.76147,-2.94615 2.35182,-4.01366 -0.65786,-1.71433 -1.63294,-0.95709 -1.63294,1.26815 0,1.3094 -0.2503,2.04557 -0.61822,1.81817 -0.34001,-0.21006 -0.61821,-0.90564 -0.61821,-1.54556 0,-0.63989 -0.27501,-1.33342 -0.61116,-1.54116 -0.35044,-0.2166 -0.45406,0.0315 -0.24295,0.58174 0.47021,1.22533 -0.61069,1.24675 -1.61879,0.032 -0.42327,-0.51003 -1.22238,-0.90538 -1.7758,-0.87853 -0.8389,0.0406 -0.85201,0.10398 -0.0787,0.38023 1.50817,0.539 2.47154,2.1512 2.49255,4.17122 0.0187,1.70452 0.1007,1.78433 0.84093,0.80918 0.45171,-0.59503 1.13194,-1.08188 1.51163,-1.08188 z m 53.02901,-0.97748 c -0.37878,-0.81718 -0.89731,-1.48794 -1.15233,-1.49058 -0.5987,-0.007 -0.5923,0.0598 0.23579,2.43537 0.44051,1.26367 0.86713,1.73522 1.15235,1.27374 0.24908,-0.40301 0.143,-1.40136 -0.23581,-2.21853 z m 17.18814,0.75684 c -0.21449,-0.55868 -0.77733,-1.01581 -1.25098,-1.01581 -0.65586,0 -0.60324,0.27025 0.22057,1.13341 1.26678,1.32708 1.57133,1.29234 1.0303,-0.11753 z m -15.30169,-3.62963 c -0.39624,-0.25209 -1.13776,-0.44065 -1.64779,-0.41902 -0.6316,0.0269 -0.6809,0.1388 -0.15444,0.35117 0.42502,0.1715 0.78263,1.05368 0.79469,1.96042 l 0.021,1.6486 0.85313,-1.5414 c 0.63815,-1.15301 0.67156,-1.6569 0.13272,-1.99977 z m 16.32194,2.07283 c -0.6535,-1.2211 -3.13242,-2.21489 -3.13242,-1.25579 0,0.30819 0.38322,0.56033 0.85163,0.56033 0.4684,0 1.19795,0.41732 1.62124,0.92735 1.06357,1.28149 1.4052,1.16137 0.65955,-0.23179 z m -21.93376,-2.39266 c -0.15469,-0.15468 -0.55319,-0.11332 -0.88554,0.0923 -0.50695,0.31331 -0.54228,1.27612 -0.10422,2.84145 0.0477,0.1701 0.35304,-0.35722 0.6788,-1.17164 0.32577,-0.81441 0.46576,-1.60733 0.31105,-1.76201 z m -66.51315,0.66726 c 0,-0.61866 -0.34572,-0.82432 -0.97791,-0.58174 -0.53784,0.20632 -1.23334,0.37526 -1.54556,0.37526 -1.01777,0 -0.59678,1.13915 0.51424,1.39145 1.42784,0.32423 2.00923,-0.0187 2.00923,-1.18497 z m 9.00336,-3.37723 c -0.80885,-0.63625 -1.63539,-1.15682 -1.83678,-1.15682 -0.59336,0 -0.41956,1.83618 0.30125,3.18306 0.63249,1.1818 0.72864,1.19168 1.83679,0.1888 1.14229,-1.03373 1.1353,-1.08509 -0.30126,-2.21506 z m 69.14529,2.64359 c 0.60875,-0.98499 -1.24811,-2.78878 -2.41135,-2.3424 -1.05471,0.40472 -1.05443,0.47376 0.007,1.646 1.19754,1.32326 1.89305,1.52467 2.40493,0.6964 z m -81.23977,-3.91665 c 0,-0.68866 -1.07964,-0.62938 -2.51353,0.13809 -0.65768,0.35198 -1.19579,1.19493 -1.19579,1.87317 0,1.20145 0.0477,1.1979 1.85466,-0.13809 1.02006,-0.75418 1.85466,-1.5971 1.85466,-1.87317 z m 95.70902,2.13825 c -0.11333,-0.58802 -1.0378,-1.31554 -2.05456,-1.61673 -1.52983,-0.45318 -3.77545,-1.38629 -6.63985,-2.75899 -0.25503,-0.1222 -0.46367,0.48952 -0.46367,1.35943 0,1.38819 0.20796,1.5438 1.7001,1.27245 1.13394,-0.20632 2.5236,0.19137 4.173,1.19362 3.02204,1.83649 3.54971,1.92488 3.28498,0.55022 z m -27.08649,0.009 c -0.51003,-0.1888 -1.34464,-0.65371 -1.85466,-1.03307 -0.80582,-0.59938 -0.81615,-0.54803 -0.0787,0.39212 0.46666,0.59504 1.30127,1.05992 1.85467,1.03307 0.84168,-0.0409 0.85458,-0.10491 0.0787,-0.39212 z m 7.58497,0.0355 c -0.41855,-0.16941 -1.25316,-0.17969 -1.85467,-0.0234 -0.6015,0.15678 -0.25905,0.29532 0.76103,0.30791 1.02006,0.0117 1.51219,-0.11566 1.09364,-0.28499 z m -56.73353,-1.44915 1.85467,-0.47195 -1.85467,-0.16636 c -3.72633,-0.33411 -7.72778,-0.45816 -7.72778,-0.23959 0,0.32357 3.84955,1.38767 4.94578,1.36711 0.51003,-0.009 1.76192,-0.22969 2.782,-0.48931 z m 47.28492,-2.79126 c -1.45197,-1.49808 -2.64178,-2.15452 -3.90506,-2.15452 -1.70867,0 -1.60196,0.1458 1.79284,2.44991 1.98532,1.34744 3.74262,2.31695 3.90508,2.15449 0.1624,-0.16239 -0.64433,-1.26491 -1.79286,-2.44988 z m 11.13695,2.17379 c -0.51003,-0.3292 -1.81342,-0.43647 -2.89643,-0.23838 -1.083,0.19815 -2.3349,0.12384 -2.782,-0.16473 -0.49092,-0.31702 1.6357,-0.66116 5.36933,-0.86888 l 6.1822,-0.34392 -6.68235,-0.11963 c -4.03684,-0.0724 -6.5404,0.11005 -6.32378,0.46051 0.19721,0.31911 -0.13412,0.86706 -0.73628,1.21764 -0.81813,0.47629 0.15515,0.63978 3.85088,0.64675 3.41228,0.007 4.65824,-0.17618 4.01843,-0.5892 z m -73.81471,-2.22412 c -0.19978,-0.52036 -0.64399,-0.7725 -0.98733,-0.56029 -0.41152,0.25431 -0.37771,0.8465 0.0993,1.73765 0.78789,1.47216 1.52822,0.49075 0.88811,-1.17736 z m 21.26594,0.0596 c 1.90196,-1.96233 1.97472,-2.16377 0.78159,-2.16377 -0.74656,0 -1.86866,0.77666 -2.59417,1.79555 -2.34803,3.2975 -1.24397,3.52179 1.81258,0.36822 z m 39.07115,1.39099 c -0.35551,-0.42502 -1.57194,-1.30288 -2.70315,-1.95079 -2.42476,-1.38884 -2.02065,-0.80853 0.85094,1.22187 2.33705,1.65248 2.76584,1.82123 1.85221,0.72892 z m 32.02425,-0.0787 c 0,-0.46842 -0.41729,-1.19797 -0.92732,-1.62126 -0.51003,-0.4233 -0.92734,-1.01375 -0.92734,-1.31213 0,-0.29841 0.41731,-0.54254 0.92734,-0.54254 1.38057,0 1.12193,-2.32779 -0.30913,-2.78198 -1.22804,-0.38976 -1.74045,-1.54555 -0.68523,-1.54555 0.30315,0 0.73367,-0.76505 0.95669,-1.70013 0.22291,-0.93505 0.55013,-2.18694 0.72689,-2.78198 0.25359,-0.85355 -0.0528,-1.08188 -1.45125,-1.08188 -0.97499,0 -2.14129,0.34773 -2.59183,0.77278 -0.65532,0.61821 -0.87582,0.61821 -1.10249,0 -0.50249,-1.37043 -3.16343,-0.92223 -3.38298,0.56979 -0.27691,1.88194 -1.62409,2.12887 -2.06348,0.37823 -0.32142,-1.28071 -0.76876,-1.47499 -3.67613,-1.59666 -3.0554,-0.12781 -3.28483,-0.0416 -2.9811,1.11971 0.18085,0.69205 1.18156,1.92544 2.22351,2.74091 1.56624,1.22575 1.76221,1.64208 1.13105,2.40259 -0.62534,0.7535 -0.51624,1.09305 0.60321,1.87714 1.38999,0.97359 2.40161,0.83659 2.40161,-0.32523 0,-1.62173 -2.24566,-5.10443 -3.96894,-6.15528 -1.75583,-1.07069 -1.79361,-1.16133 -0.48505,-1.16346 1.73092,-0.002 4.25957,2.40802 4.80499,4.58111 0.47389,1.8881 1.22094,2.04582 2.08073,0.43925 0.58462,-1.09235 6.12669,-5.02267 7.08237,-5.02267 0.24289,0 -1.24201,1.40113 -3.29979,3.11364 -4.10143,3.41326 -4.63786,4.44918 -2.04131,3.94207 1.08027,-0.21099 2.1509,0.0383 2.93655,0.68413 1.15063,0.94566 1.1553,0.99027 0.0671,0.64247 -1.03492,-0.33079 -1.07046,-0.25322 -0.30911,0.67494 0.76406,0.93148 0.72203,1.01001 -0.37621,0.70252 -0.68006,-0.19043 -1.7233,-0.5466 -2.31834,-0.79157 -0.74452,-0.30651 -1.08188,-0.15912 -1.08188,0.47239 0,1.33375 1.43022,2.31446 3.97827,2.72796 1.22869,0.19931 2.38273,0.60321 2.56454,0.89741 0.51617,0.83519 1.49405,0.62787 1.49405,-0.31672 z m -79.2661,-0.83839 c -1.60372,-0.12688 -4.3857,-0.12828 -6.18223,-0.002 -1.7965,0.12524 -0.48437,0.22899 2.91585,0.23062 3.40019,0.002 4.87007,-0.10094 3.26638,-0.22781 z m 12.49541,-1.40109 c 0.45491,0 0.66263,-0.16449 0.46157,-0.36555 -0.61905,-0.61906 -2.79511,0.35455 -3.21023,1.43632 -0.35878,0.93498 -0.29256,0.93295 0.76434,-0.0236 0.63644,-0.57597 1.52939,-1.04721 1.98432,-1.04721 z m 38.87189,0.19324 c -0.75093,-0.92316 -0.71165,-0.99169 0.34149,-0.59616 0.73023,0.27427 0.13319,-0.71202 -1.54556,-2.5529 -1.50452,-1.64991 -2.92418,-2.90767 -3.15478,-2.79502 -0.23062,0.11262 -1.62159,-0.60534 -3.09109,-1.59554 -3.32377,-2.23963 -7.27944,-3.34096 -10.09967,-2.81189 -2.00808,0.37673 -2.79072,1.12897 -1.67101,1.6061 0.266,0.11332 0.29892,1.04067 0.0731,2.06073 l -0.41047,1.85466 -0.0731,-1.94308 c -0.10585,-2.81477 -1.77452,-3.21205 -2.27546,-0.54178 -0.43477,2.31747 0.17244,4.07775 0.96452,2.79614 0.34567,-0.55929 0.7839,-0.57595 1.73673,-0.0659 0.70095,0.37511 1.84913,0.68205 2.55153,0.68205 1.01449,0 1.27708,-0.39194 1.27708,-1.90619 0,-1.25904 -0.26235,-1.81309 -0.77278,-1.63196 -0.42502,0.15071 -0.70651,0.86951 -0.6255,1.59708 0.0811,0.72756 -0.0813,1.32283 -0.36063,1.32283 -1.0342,0 -1.21467,-0.77086 -0.59597,-2.54566 0.74509,-2.13737 1.29907,-2.06947 6.99152,0.85706 6.38549,3.2828 6.74838,3.50069 8.96421,5.38211 2.45666,2.08591 3.00877,2.34314 1.7758,0.8274 z m -2.70312,-2.4636 c -1.02009,-0.84767 -4.33829,-2.77011 -7.37379,-4.27214 -3.03553,-1.502 -4.99866,-2.73093 -4.36252,-2.73093 2.69008,0 14.90579,7.24621 13.89613,8.243 -0.16777,0.16567 -1.13977,-0.39229 -2.15982,-1.23993 z m -52.89562,-0.0523 c 0.82932,-1.27276 2.47332,-3.34496 3.65334,-4.60487 1.81326,-1.93607 2.02217,-2.43937 1.3491,-3.25037 -0.70962,-0.85505 -0.94195,-0.80752 -2.13253,0.43612 -0.73488,0.76764 -1.80274,2.0912 -2.37303,2.94125 -0.57029,0.85005 -1.87387,2.72789 -2.89688,4.17299 -1.81973,2.5706 -1.8302,2.62735 -0.4839,2.62322 0.90636,-0.002 1.89074,-0.79412 2.8839,-2.31834 z m 5.60056,1.85889 c -6.3e-4,-0.25501 -1.22774,-0.46367 -2.72689,-0.46367 -1.49913,0 -2.93599,0.20866 -3.19299,0.46367 -0.257,0.25502 0.97011,0.46367 2.72689,0.46367 1.75676,0 3.19362,-0.20865 3.19299,-0.46367 z m 12.67626,-7.90538 c 4.48678,-2.29773 5.81868,-2.56447 6.98431,-1.39884 0.92239,0.92239 1.01307,5.06269 0.0986,4.49747 -0.35387,-0.2187 -0.47421,-0.93061 -0.26747,-1.58205 0.20679,-0.65142 0.10678,-1.18441 -0.22244,-1.18441 -0.64221,0 -0.6027,3.41594 0.047,4.06565 0.21496,0.21497 1.30855,-0.0668 2.43016,-0.62641 1.27657,-0.63684 2.11949,-0.77657 2.25382,-0.37362 0.27471,0.82418 3.20264,0.84748 3.20264,0.0255 0,-0.34002 -0.55641,-0.61822 -1.23645,-0.61822 -0.98088,0 -1.23839,-0.4153 -1.24591,-2.00923 -0.005,-1.10506 -0.27913,-2.42651 -0.60875,-2.93654 -0.48461,-0.74988 -0.60109,-0.66116 -0.60875,0.46367 -0.009,1.50142 -0.91688,1.87401 -1.50444,0.61821 -0.19884,-0.42502 -0.20936,0.27048 -0.0236,1.54556 0.20656,1.41599 0.0865,2.31833 -0.30817,2.31833 -0.35544,0 -0.64625,-0.93963 -0.64625,-2.08809 0,-2.76485 -1.23902,-3.72899 -4.10194,-3.19191 -1.35683,0.25455 -2.41897,0.16824 -2.65632,-0.2159 -0.21754,-0.35196 -1.03502,-0.47269 -1.81665,-0.26828 -1.033,0.27013 -1.2007,0.50788 -0.61401,0.87047 0.95931,0.59288 1.15121,0.39327 -3.47244,3.61212 -3.4498,2.40163 -3.75113,2.50007 -4.50351,1.47114 -0.71062,-0.97184 -0.60202,-1.16844 0.91517,-1.65652 0.94683,-0.3046 2.06926,-0.82872 2.4943,-1.16472 0.81879,-0.64728 1.09834,-3.19145 0.30911,-2.81322 -3.56852,1.71012 -4.99568,2.74931 -5.87153,4.27541 -0.5758,1.00328 -1.88798,2.30279 -2.91594,2.88778 -3.58766,2.04164 -2.16311,2.46061 2.91438,0.8571 2.21237,-0.69866 2.74275,0.0794 0.77275,1.13385 -0.68004,0.36395 -1.23643,0.94924 -1.23643,1.30064 0,0.35142 1.63316,-0.78156 3.62926,-2.51771 1.99609,-1.73616 5.51034,-4.11994 7.80942,-5.29732 z m 10.19905,1.29598 c 0,-0.5301 0.27822,-0.96381 0.61824,-0.96381 0.34001,0 0.61821,0.26179 0.61821,0.58174 0,0.31994 -0.2782,0.75368 -0.61821,0.96381 -0.34002,0.21006 -0.61824,-0.0516 -0.61824,-0.58174 z m 35.01108,6.63947 c -0.65226,-0.65225 -5.39031,-0.77189 -4.99113,-0.12594 0.1902,0.30778 1.48861,0.55961 2.88528,0.55961 1.3967,0 2.34432,-0.1951 2.10585,-0.4336 z m 4.81336,-0.33917 c -1.43875,-2.5684 -6.11741,-9.11878 -6.51313,-9.11878 -0.25995,0 -0.64455,0.27822 -0.8547,0.61824 -0.21006,0.34002 -0.99162,0.64018 -1.7366,0.66702 -0.74497,0.0269 -1.00676,0.18903 -0.58173,0.36063 0.42502,0.17151 0.77277,0.57662 0.77277,0.90026 0,0.34089 -0.53986,0.29953 -1.28322,-0.0984 -1.17105,-0.62674 -1.22386,-0.57582 -0.60406,0.5823 0.37355,0.69799 1.22295,1.56009 1.88754,1.91577 1.02345,0.54772 1.14715,0.47895 0.80834,-0.44951 -0.38135,-1.04497 -0.34233,-1.04565 0.83538,-0.014 0.67945,0.59503 1.83943,1.08188 2.57769,1.08188 0.73827,0 1.34232,0.27822 1.34232,0.61824 0,0.34002 -1.14027,0.61821 -2.53395,0.61821 -2.01012,0 -2.88694,-0.37787 -4.24146,-1.82786 -0.93912,-1.00534 -2.04989,-2.65455 -2.46841,-3.66491 -0.73638,-1.77781 -2.50237,-3.12326 -2.50237,-1.90649 0,0.32937 -0.67908,0.59882 -1.50906,0.59882 -0.83,0 -1.70023,0.30932 -1.93387,0.68736 -0.56223,0.9097 0.99394,1.84606 2.36105,1.42066 0.79004,-0.24585 1.08188,0.007 1.08188,0.94144 0,0.70296 0.2782,1.27811 0.61822,1.27811 0.34001,0 0.61821,-0.3014 0.61821,-0.66974 0,-0.36836 0.34775,-0.54816 0.77278,-0.39953 0.42502,0.14861 0.69957,0.69107 0.61005,1.20549 -0.0895,0.5144 0.1888,1.20047 0.61824,1.5246 1.36679,1.03146 5.87625,2.22008 6.63756,1.74956 0.42708,-0.26394 1.1149,0.0911 1.64649,0.85014 0.98786,1.41036 4.34616,1.90901 3.57404,0.53069 z m 2.8328,0.15444 c 0,-0.34002 -0.43371,-0.61821 -0.96381,-0.61821 -0.5301,0 -0.79187,0.27819 -0.58172,0.61821 0.21006,0.34002 0.64385,0.61824 0.96382,0.61824 0.31995,0 0.58171,-0.27822 0.58171,-0.61824 z m -75.53885,-1.1978 c 0.15444,-0.46365 -0.0773,-0.69548 -0.54095,-0.54094 -0.44628,0.14884 -0.93313,0.63562 -1.08188,1.08188 -0.15468,0.46368 0.0773,0.69551 0.54094,0.54095 0.44627,-0.14884 0.93312,-0.6356 1.08189,-1.08189 z m 19.7516,-1.35395 c 0.77535,0.41495 2.0604,0.1722 4.46112,-0.84262 3.359,-1.41994 4.73943,-2.78783 2.81341,-2.78783 -0.83621,0 -5.53406,1.86569 -7.2817,2.89183 -0.25502,0.14977 -0.46367,0.0449 -0.46367,-0.23319 0,-0.51468 6.94481,-3.89509 8.00219,-3.89509 0.31896,0 0.77871,-0.3216 1.02164,-0.71471 0.31834,-0.51505 -0.13949,-0.59847 -1.63904,-0.29857 -2.40404,0.4808 -9.67322,4.65401 -10.13561,5.81882 -0.23938,0.603 -0.0266,0.63405 0.91008,0.13271 0.78747,-0.42144 1.61007,-0.44687 2.31158,-0.0715 z m 7.20635,0.32184 c 1.54801,-0.59401 1.13661,-1.33828 -0.56045,-1.01387 -0.84608,0.16169 -1.38606,0.54045 -1.19995,0.84161 0.40161,0.64981 0.49271,0.65873 1.7604,0.17221 z m 7.16011,-0.61822 c 0,-0.13365 -0.57281,-0.24295 -1.27293,-0.24295 -0.70011,0 -1.10849,0.26604 -0.90752,0.5912 0.32987,0.53379 2.18045,0.23821 2.18045,-0.34825 z m 19.11334,0.76888 c -0.95723,-0.83461 -6.34151,-3.48473 -7.07996,-3.48473 -3.29923,0 2.60092,3.32147 6.46173,3.63761 0.48171,0.0395 0.7599,-0.0294 0.61823,-0.15281 z m -43.7363,-2.65321 c 0.62181,-0.56272 1.13055,-1.26059 1.13055,-1.55079 0,-0.72797 -2.37847,0.81801 -2.75064,1.78786 -0.41608,1.08429 0.27111,0.98374 1.62009,-0.23707 z m 61.8272,-1.20905 c -1.37085,-1.00239 -1.61243,-0.65457 -0.71284,1.02632 0.56155,1.04925 0.85435,1.17944 1.24199,0.55221 0.31952,-0.51699 0.1236,-1.10116 -0.52915,-1.57853 z m -50.93038,-2.62304 c 0.6406,-0.40638 0.6095,-0.66857 -0.15445,-1.3027 -0.52613,-0.43663 -0.9566,-0.64347 -0.9566,-0.45965 0,0.18389 -0.16893,0.7743 -0.37525,1.31216 -0.40816,1.06366 0.21964,1.25378 1.48641,0.45019 z m -6.18482,-1.00726 c -0.0998,-0.0801 -1.01581,-0.32829 -2.03589,-0.55134 -1.70472,-0.37278 -1.76232,-0.33324 -0.71268,0.48879 0.6281,0.4919 1.54422,0.74 2.03589,0.55134 0.49164,-0.18879 0.81236,-0.40862 0.71268,-0.48879 z m 50.80412,0.32266 c 1.29876,-0.82138 0.62008,-1.20771 -1.42995,-0.81395 -1.26551,0.24305 -1.5249,0.48454 -0.92734,0.86328 1.04317,0.66116 1.24038,0.65702 2.35729,-0.0493 z m -12.34653,-0.2631 c 0,-0.13131 -0.81991,-0.35927 -1.82202,-0.50636 -1.00209,-0.14697 -1.68118,-0.0395 -1.50906,0.23894 0.30632,0.49568 3.33108,0.7385 3.33108,0.26742 z m -5.40943,-6.36941 c 0.59504,-0.15561 1.56874,-0.15561 2.16377,0 0.59504,0.15562 0.10819,0.28273 -1.08188,0.28273 -1.19009,0 -1.67692,-0.12711 -1.08189,-0.28273 z"
       id="path13783" />
  </g>
</svg>
