<?xml version="1.0" encoding="UTF-8" standalone="no"?>
<!-- Created with Inkscape (http://www.inkscape.org/) -->

<svg
   width="48.543171mm"
   height="29.233089mm"
   viewBox="0 0 48.543188 29.233086"
   version="1.1"
   id="svg5"
   inkscape:version="1.1 (c4e8f9ed74, 2021-05-24)"
   sodipodi:docname="ornament.svg"
   xmlns:inkscape="http://www.inkscape.org/namespaces/inkscape"
   xmlns:sodipodi="http://sodipodi.sourceforge.net/DTD/sodipodi-0.dtd"
   xmlns="http://www.w3.org/2000/svg"
   xmlns:svg="http://www.w3.org/2000/svg">
  <sodipodi:namedview
     id="namedview7"
     pagecolor="#ffffff"
     bordercolor="#666666"
     borderopacity="1.0"
     inkscape:pageshadow="2"
     inkscape:pageopacity="0.0"
     inkscape:pagecheckerboard="0"
     inkscape:document-units="mm"
     showgrid="false"
     inkscape:zoom="1.3380612"
     inkscape:cx="-209.63167"
     inkscape:cy="128.17052"
     inkscape:window-width="2506"
     inkscape:window-height="1403"
     inkscape:window-x="1974"
     inkscape:window-y="0"
     inkscape:window-maximized="1"
     inkscape:current-layer="layer1" />
  <defs
     id="defs2" />
  <g
     inkscape:label="Layer 1"
     inkscape:groupmode="layer"
     id="layer1"
     transform="translate(86.976072,-62.260609)">
    <path
       style="fill:#000000;stroke-width:0.264583"
       d="m -71.721021,91.212671 c -0.42754,-0.24863 -0.43816,-0.33038 -0.0935,-0.71956 0.21388,-0.24148 0.43176,-0.67299 0.48417,-0.95892 0.11247,-0.61354 1.63725,-1.70584 2.67132,-1.91362 0.40018,-0.0804 0.7276,-0.19188 0.7276,-0.24771 0,-0.33319 -1.57877,-1.78663 -2.2294,-2.05243 -0.71398,-0.29167 -0.90298,-0.22992 -2.42977,0.79391 -1.63767,1.09817 -3.47696,1.69076 -5.24786,1.69076 -1.42322,0 -4.21684,-0.98235 -4.91894,-1.7297 l -0.64028,-0.68155 0.53188,-0.97719 c 0.38776,-0.7124 0.67293,-0.94964 1.0524,-0.8755 1.44816,0.28291 4.86601,0.30571 5.7582,0.0384 0.96673,-0.28964 2.03493,-1.50755 2.03737,-2.3229 0.002,-0.60008 -0.40704,-0.34431 -0.70301,0.43981 -0.41545,1.10065 -1.71291,1.67372 -4.02282,1.77684 -2.8349,0.12656 -3.24289,-0.3125 -0.4721,-0.50804 2.63249,-0.18577 3.70876,-0.64976 4.09813,-1.76672 0.15373,-0.44098 0.4643,-0.80179 0.69015,-0.80179 0.22585,0 0.41064,-0.1318 0.41064,-0.29289 0,-0.16109 -0.17836,-0.22445 -0.39635,-0.1408 -0.24329,0.0934 -0.56429,-0.10421 -0.83122,-0.5116 -0.5467,-0.83437 -1.0523,-1.1034 -3.18507,-1.6948 l -1.70907,-0.47391 -0.26267,0.6971 c -0.38596,1.02432 -1.77724,2.37585 -3.18804,3.09695 -0.68093,0.34805 -1.3244,0.77253 -1.42995,0.9433 -0.11419,0.18477 -0.0779,0.24003 0.0897,0.13647 0.53532,-0.33085 1.12309,0.13778 1.12309,0.89542 0,0.92773 -0.62023,1.5781 -1.50496,1.5781 -0.54316,0 -0.64665,-0.10236 -0.53504,-0.52917 0.0761,-0.29104 0.0279,-0.52917 -0.10711,-0.52917 -0.13501,0 -0.37888,-0.29278 -0.54192,-0.65062 -0.41603,-0.91308 0.14495,-1.67534 2.53223,-3.44081 1.7659,-1.30595 2.27347,-1.8716 2.27347,-2.53364 0,-0.12748 -0.5153,-0.53377 -1.14511,-0.90287 -1.20084,-0.70374 -2.39714,-2.0249 -3.2458,-3.584558 -0.42303,-0.777445 -0.50388,-1.484839 -0.50388,-4.408428 0,-1.915312 -0.0893,-3.572265 -0.19844,-3.682118 -0.30608,-0.308077 -0.2349,-1.292156 0.11906,-1.646121 0.68777,-0.687766 2.06375,-0.195897 2.06375,0.737721 0,0.423331 2.13648,2.384362 2.59769,2.384362 0.13636,0 0.39616,0.178594 0.57731,0.396875 0.18285,0.220316 0.75961,0.396875 1.29647,0.396875 0.55817,0 1.61395,0.335618 2.49696,0.793751 0.84143,0.436562 1.70518,0.79375 1.91943,0.79375 0.21426,0 0.83222,0.193723 1.37325,0.430496 0.54102,0.236774 1.32202,0.475091 1.73555,0.529595 0.41352,0.0545 0.9493,0.209961 1.19062,0.34546 0.40435,0.227039 0.40245,0.260355 -0.0243,0.424754 -0.25466,0.09812 -0.46302,0.352272 -0.46302,0.56479 0,0.46282 1.02857,0.236372 1.47511,-0.32476 0.15647,-0.196616 0.51365,-0.310218 0.79375,-0.252451 0.2801,0.05777 0.94781,0.17503 1.4838,0.260583 0.8155,0.130168 1.02251,0.300914 1.2685,1.046278 0.16168,0.489899 0.21953,1.230135 0.12855,1.644966 -0.11519,0.52518 -0.0875,0.64351 0.091,0.38962 0.14102,-0.20054 0.38877,-0.28281 0.55057,-0.18282 0.44223,0.27331 0.35389,-0.30605 -0.16814,-1.102777 -0.44295,-0.676021 -0.44222,-0.697858 0.0173,-0.521522 0.38629,0.148231 0.44802,0.08454 0.3173,-0.327347 -0.20123,-0.634001 0.80209,-1.297977 1.26375,-0.836322 0.20425,0.204253 0.41113,0.171771 0.72708,-0.11416 0.44545,-0.40313 1.31187,-0.280151 1.31187,0.186206 0,0.138539 0.12104,0.177086 0.26897,0.08566 0.45153,-0.279057 2.34891,-0.388861 2.49983,-0.144668 0.078,0.126167 0.76682,0.07191 1.53076,-0.120574 0.76394,-0.192483 2.04383,-0.432628 2.84419,-0.533655 0.80037,-0.101027 1.60252,-0.302736 1.78257,-0.448243 0.18005,-0.145507 0.49978,-0.198395 0.71051,-0.11753 0.21073,0.08087 0.42516,0.02102 0.47649,-0.132989 0.0513,-0.15401 0.56504,-0.32808 1.14157,-0.386823 1.12921,-0.115055 4.41879,-1.632855 4.22357,-1.948736 -0.0652,-0.105447 0.51599,-0.182551 1.29147,-0.171342 0.99996,0.01445 1.54198,-0.111625 1.86392,-0.43357 0.24967,-0.249673 0.58304,-0.453951 0.74081,-0.453951 0.56606,0 2.11214,-1.403298 2.37415,-2.154894 0.33545,-0.962287 1.08541,-1.402068 1.76798,-1.036765 0.72723,0.389202 0.89303,1.06387 0.43371,1.764881 -0.33725,0.514703 -0.35789,0.930457 -0.12622,2.542406 0.53044,3.690686 -0.39863,6.598815 -2.68566,8.406615 -0.71439,0.56469 -1.53611,1.102 -1.82604,1.19402 -1.23816,0.39298 -0.23958,1.93254 2.43331,3.75155 0.6803,0.46298 1.44305,1.15638 1.695,1.54089 0.43943,0.67066 0.43491,0.7468 -0.11088,1.87021 -0.47758,0.983 -0.69157,1.17109 -1.33233,1.17109 -0.69015,0 -0.78016,-0.10494 -0.9383,-1.09391 -0.12668,-0.79223 -0.0666,-1.21358 0.2178,-1.52786 0.35495,-0.39222 0.26939,-0.50329 -0.88957,-1.15477 -1.4382,-0.80845 -2.83837,-2.26806 -3.07319,-3.20363 l -0.15572,-0.62047 -1.83383,0.53495 c -1.14044,0.33268 -2.2203,0.86576 -2.85594,1.40984 -0.56216,0.48119 -1.10984,0.78974 -1.21707,0.68568 -0.10723,-0.10407 0.0311,0.21857 0.30751,0.71698 0.894,1.61228 1.63529,1.95889 4.56783,2.13577 2.86067,0.17255 3.71655,0.57535 3.71655,1.7491 0,2.02536 -1.66366,3.06282 -5.15937,3.21739 -2.81213,0.12435 -3.80203,-0.202 -5.5779,-1.83894 -1.07701,-0.99276 -1.24858,-1.06386 -2.02787,-0.84036 -1.15755,0.33198 -2.6352,2.47606 -1.70645,2.47606 0.18979,0 0.90417,0.35456 1.5875,0.78792 1.02758,0.65167 1.24243,0.92476 1.24243,1.5792 0,0.56922 0.10386,0.75141 0.37011,0.64925 0.51764,-0.19864 0.79938,0.36734 0.41402,0.83168 -0.46149,0.55606 -1.65899,0.47347 -2.4782,-0.17092 -0.54312,-0.42721 -0.63909,-0.63815 -0.41384,-0.90957 0.22792,-0.27462 0.11516,-0.44546 -0.50607,-0.76671 -0.43963,-0.22734 -1.02491,-0.41335 -1.30063,-0.41335 -0.53735,0 -1.18969,-0.62543 -1.46782,-1.40727 -0.16803,-0.47233 -0.0603,-0.62607 2.01632,-2.87816 0.71409,-0.77441 0.79289,-0.79435 2.77812,-0.70294 1.80809,0.0833 2.18139,0.19354 3.24418,0.95852 2.10485,1.51501 6.48788,1.76905 7.10625,0.41189 0.54347,-1.1928 0.42206,-1.28293 -1.59947,-1.18742 -2.48771,0.11754 -3.99569,-0.3226 -4.99166,-1.45695 -0.43454,-0.49491 -0.79007,-1.00673 -0.79007,-1.13738 0,-0.13065 -0.23203,-0.31119 -0.51563,-0.4012 -0.59048,-0.18742 -0.91375,-0.97183 -0.69045,-1.67538 0.26899,-0.84752 3.44961,-2.71614 5.77152,-3.39077 1.19979,-0.3486 2.21277,-0.72621 2.25106,-0.83913 0.0383,-0.11292 0.66269,-1.01881 1.38755,-2.01307 1.23412,-1.692803 1.5329,-2.386903 1.98896,-4.620611 0.12799,-0.626865 0.0945,-0.838706 -0.11243,-0.710826 -0.57546,0.355654 -1.09803,1.723365 -0.92375,2.417734 0.14455,0.575956 0.0904,0.672329 -0.33698,0.599922 -0.28005,-0.04745 -1.10715,0.343328 -1.838,0.868385 -0.73084,0.525057 -1.59935,1.099446 -1.93003,1.276416 -0.33068,0.17698 -1.21566,0.78762 -1.96663,1.35699 -0.75097,0.56937 -1.54399,1.03994 -1.76227,1.0457 -0.21828,0.006 -1.12827,0.45611 -2.02219,1.00076 -1.2044,0.73383 -1.90621,0.98653 -2.71,0.97582 -0.82782,-0.011 -1.06949,0.0809 -1.02052,0.38819 0.0472,0.29632 -0.26337,0.44064 -1.17626,0.54654 -0.68224,0.0791 -1.49354,0.37296 -1.8029,0.65293 -0.62826,0.56856 -3.5719,0.80126 -4.16657,0.32937 -0.22273,-0.17674 -0.45549,-0.15889 -0.7128,0.0546 -0.30672,0.25456 -0.44856,0.21063 -0.7192,-0.22273 -0.23984,-0.38405 -0.51134,-0.4961 -0.94084,-0.38831 -0.33205,0.0833 -0.60372,0.0357 -0.60372,-0.10577 0,-0.14152 -0.44648,-0.24372 -0.99219,-0.22712 -0.80703,0.0245 -0.97768,-0.0562 -0.91444,-0.43284 0.0835,-0.49715 -0.33728,-0.63472 -0.60691,-0.19844 -0.30597,0.49507 -1.37302,0.26661 -2.47155,-0.52917 -0.60266,-0.43656 -1.31704,-0.79375 -1.5875,-0.79375 -0.27047,0 -0.96433,-0.34232 -1.54191,-0.76072 -0.57758,-0.4184 -1.30995,-0.84318 -1.62748,-0.94396 -0.31753,-0.10078 -0.70298,-0.41802 -0.85656,-0.70498 -0.15357,-0.28695 -0.92256,-0.82634 -1.70885,-1.19863 -0.7863,-0.372293 -1.76185,-0.989708 -2.16789,-1.372034 -0.40604,-0.382325 -0.82321,-0.669762 -0.92704,-0.638748 -0.10383,0.03101 -0.33616,-0.448179 -0.51629,-1.064872 -0.18013,-0.616693 -0.41562,-1.18351 -0.52333,-1.259592 -0.1077,-0.07608 -0.39102,-0.492801 -0.62958,-0.926042 l -0.43376,-0.78771 0.16665,1.058334 c 0.29955,1.902361 0.92015,3.402921 2.35265,5.688504 l 1.40952,2.24892 2.09188,0.48366 c 1.37925,0.3189 2.48584,0.76958 3.24836,1.32295 2.08262,1.51142 2.35059,1.84698 2.21464,2.77323 -0.071,0.48371 -0.28054,0.84419 -0.49074,0.84419 -0.20177,0 -0.36685,0.16946 -0.36685,0.37658 0,0.53894 -1.25464,1.95578 -2.13504,2.41105 -0.50254,0.25987 -1.57142,0.38737 -3.24747,0.38737 -2.74168,0 -3.29275,0.32058 -2.2844,1.32892 0.42855,0.42856 0.88356,0.52317 2.51604,0.52317 2.17004,0 3.16753,-0.31395 4.99718,-1.57278 0.77037,-0.53003 1.4994,-0.80847 2.11676,-0.80847 1.87069,0 4.9161,1.58565 4.9161,2.55966 0,0.19291 0.11906,0.35075 0.26458,0.35075 0.39632,0 0.31898,0.97944 -0.14876,1.88395 -0.32689,0.63212 -0.48923,0.73636 -0.77605,0.49832 -0.4751,-0.3943 -1.72102,0.3823 -1.72102,1.07274 0,0.99968 -1.68084,1.62178 -2.7313,1.0109 z m 1.80526,-0.49716 c 0.19341,-0.31294 -0.0655,-0.31294 -0.79375,0 -0.51018,0.21923 -0.50837,0.22806 0.0505,0.24599 0.31883,0.0102 0.65328,-0.10047 0.74322,-0.24599 z m 14.94896,0 c -0.51816,-0.33485 -0.86841,-0.33485 -0.66146,0 0.0899,0.14552 0.36485,0.26276 0.61093,0.26053 0.38557,-0.003 0.39255,-0.0395 0.0505,-0.26053 z m -15.08125,-0.78837 c 0,-0.14256 0.47625,-0.50217 1.05833,-0.79913 1.13905,-0.5811 1.46448,-1.22009 0.46302,-0.90916 -0.91179,0.2831 -2.05052,1.16532 -2.05052,1.58864 0,0.20837 0.11906,0.37886 0.26458,0.37886 0.14552,0 0.26459,-0.11665 0.26459,-0.25921 z m 14.81666,-0.61812 c 0,-0.19148 -0.46269,-0.6082 -1.02821,-0.92604 -1.21018,-0.68016 -1.35304,-0.70144 -1.35304,-0.20153 0,0.207 0.41672,0.51389 0.92604,0.68198 0.50933,0.16809 0.92605,0.41545 0.92605,0.54968 0,0.13424 0.11906,0.24407 0.26458,0.24407 0.14552,0 0.26458,-0.15667 0.26458,-0.34816 z m -11.48953,-1.96915 c -0.26874,-0.26874 -0.75534,0.39596 -0.54226,0.74073 0.14588,0.23605 0.26588,0.2017 0.45099,-0.12908 0.13872,-0.24788 0.1798,-0.52313 0.0913,-0.61165 z m 8.46107,0.2237 c -0.0978,-0.1582 -0.35352,-0.28764 -0.56834,-0.28764 -0.31521,0 -0.33299,0.10758 -0.0922,0.55757 0.20288,0.37909 0.38481,0.47116 0.56834,0.28764 0.14846,-0.14847 0.18994,-0.39937 0.0922,-0.55757 z m -15.94291,-1.18226 c 0.6116,-0.36612 1.46919,-0.96297 1.90575,-1.32631 0.77404,-0.64423 0.77732,-0.6568 0.13229,-0.50635 -0.3638,0.0849 -1.06052,0.45085 -1.54827,0.81332 -1.14275,0.84924 -2.91474,1.37576 -4.77763,1.41962 -1.3649,0.0321 -1.40769,0.0511 -0.55327,0.24472 1.56828,0.35544 3.62845,0.081 4.84113,-0.645 z m 26.03444,0.35114 c -1.72543,-0.20063 -2.47218,-0.48179 -4.81411,-1.81252 l -1.05833,-0.60137 0.91643,0.81755 c 1.57804,1.40776 2.83365,1.8789 4.9044,1.84025 l 1.85208,-0.0346 z m -18.97337,-0.18413 c -0.009,-0.42615 -0.43779,-0.8116 -1.50676,-1.35352 -1.43551,-0.72772 -1.80114,-0.72679 -0.60585,0.002 0.50932,0.31035 1.08162,0.78616 1.27177,1.05734 0.3456,0.49289 0.84849,0.6691 0.84084,0.29464 z m 21.34711,0.022 c -0.097,-0.097 -0.25577,-0.097 -0.35278,0 -0.097,0.097 -0.0176,0.1764 0.17639,0.1764 0.19403,0 0.2734,-0.0794 0.17639,-0.17639 z m -11.48068,-1.16943 c 0.62375,-0.90146 0.65402,-1.01822 0.20117,-0.77586 -0.54249,0.29033 -1.51517,1.86538 -1.14065,1.84706 0.11287,-0.006 0.53564,-0.48756 0.93948,-1.0712 z m -24.7572,-0.35746 c -0.0142,-0.50025 -0.12146,-0.85041 -0.2384,-0.77814 -0.38153,0.23581 -0.20761,1.68768 0.20217,1.68768 0.0341,0 0.0504,-0.40929 0.0362,-0.90953 z m 38.57364,-0.11579 c 0.11852,-0.39125 0.0917,-0.56748 -0.071,-0.46693 -0.14374,0.0888 -0.3203,0.46996 -0.39237,0.84695 -0.15453,0.80839 0.18857,0.52698 0.46333,-0.38002 z m -40.87673,-1.41662 c 0,-0.15486 -0.16812,-0.12915 -0.39688,0.0607 -0.21828,0.18116 -0.39687,0.3706 -0.39687,0.42097 0,0.0504 0.17859,0.0231 0.39687,-0.0607 0.21828,-0.0838 0.39688,-0.2732 0.39688,-0.42097 z m 44.09722,0.41348 c -0.097,-0.097 -0.25577,-0.097 -0.35278,0 -0.097,0.097 -0.0176,0.17639 0.17639,0.17639 0.19403,0 0.2734,-0.0794 0.17639,-0.17639 z m -6.79097,-0.61736 c -0.21829,-0.14107 -0.73021,-0.2583 -1.13762,-0.26053 -0.97066,-0.005 -2.11972,-0.61495 -2.80777,-1.48966 -0.30389,-0.38633 -0.55253,-0.58336 -0.55253,-0.43784 0,0.14552 0.24451,0.57543 0.54336,0.95535 0.58784,0.74732 1.8053,1.18141 4.08685,1.45718 0.14552,0.0176 0.086,-0.0834 -0.13229,-0.2245 z m 6.61458,-0.24897 c 0,-0.31217 -0.51603,-0.64611 -0.70556,-0.45659 -0.18952,0.18953 0.14442,0.70556 0.45659,0.70556 0.13693,0 0.24897,-0.11204 0.24897,-0.24897 z m -43.43606,-2.51334 c 0.74213,-0.42787 1.41154,-0.94006 1.48758,-1.13822 0.1645,-0.42869 0.018,-0.35167 -2.0385,1.07196 -1.20447,0.83379 -1.5192,1.19673 -1.511,1.74243 l 0.0104,0.68926 0.35112,-0.79375 c 0.21416,-0.48415 0.87741,-1.09717 1.70044,-1.57168 z m 44.49439,2.00424 c 0,-0.47118 -1.05267,-1.52666 -2.61751,-2.62449 -0.8887,-0.62347 -1.61582,-1.01957 -1.61582,-0.88021 0,0.13936 0.83344,0.80745 1.85208,1.48464 1.22424,0.81387 1.85209,1.40376 1.85209,1.74011 0,0.27987 0.11906,0.50885 0.26458,0.50885 0.14552,0 0.26458,-0.103 0.26458,-0.2289 z m -33.97471,-3.11061 c -0.084,-0.21901 -0.26146,-0.33104 -0.39427,-0.24895 -0.14047,0.0868 -0.11358,0.42442 0.0643,0.80708 0.21837,0.46985 0.33105,0.541 0.39428,0.24895 0.0487,-0.22489 0.0198,-0.58808 -0.0643,-0.80708 z m 21.3503,0.16864 c 0.0889,-0.3398 0.0101,-0.53329 -0.21703,-0.53329 -0.47766,0 -0.68997,0.38773 -0.49315,0.90064 0.19761,0.51496 0.52353,0.34637 0.71018,-0.36735 z m -23.0222,-1.37702 c -0.60145,-0.60145 -1.37259,-0.92806 -3.40152,-1.44069 -1.44306,-0.3646 -3.14475,-0.95226 -3.78155,-1.30591 -1.53815,-0.85424 -1.69547,-0.81274 -0.41567,0.10966 1.00863,0.72696 2.68817,1.36985 4.61619,1.76699 1.23275,0.25393 2.90028,1.11482 3.08332,1.59182 0.0809,0.21087 0.26635,0.30971 0.41207,0.21965 0.14941,-0.0923 -0.0742,-0.50289 -0.51284,-0.94152 z m 12.53967,0.40275 c -0.097,-0.097 -0.17639,-0.0176 -0.17639,0.17639 0,0.19403 0.0794,0.2734 0.17639,0.17639 0.097,-0.097 0.097,-0.25576 0,-0.35278 z m 14.03419,-1.35384 c 0.40611,-0.15424 1.77205,-0.59883 3.03544,-0.98797 1.26338,-0.38915 2.51354,-0.94968 2.77812,-1.24563 0.43133,-0.48245 0.3443,-0.46926 -0.84185,0.12765 -0.7276,0.36615 -2.27542,0.92254 -3.43958,1.23643 -2.19721,0.59241 -4.76717,1.96409 -4.49748,2.40046 0.0852,0.1378 0.62107,-0.0872 1.19091,-0.49998 0.56983,-0.41278 1.36833,-0.87672 1.77444,-1.03096 z m -14.49605,0.65472 c -0.0123,-0.34066 -0.08,-0.43098 -0.16432,-0.21903 -0.1211,0.3045 -0.17902,0.3045 -0.37194,0 -0.17083,-0.26964 -0.22952,-0.22154 -0.23255,0.19055 -0.002,0.30317 0.0721,0.62735 0.16514,0.72041 0.29278,0.29278 0.62541,-0.0885 0.60367,-0.69193 z m 1.60839,0.27036 c 0,-0.41015 -0.16613,-0.61767 -0.51554,-0.64399 -0.45274,-0.0341 -0.47979,0.0396 -0.22211,0.60515 0.36954,0.81107 0.73765,0.83045 0.73765,0.0388 z m 1.32291,0.50117 c 0,-0.0572 -0.17859,-0.17252 -0.39687,-0.25628 -0.21828,-0.0838 -0.39688,-0.037 -0.39688,0.10398 0,0.14096 0.1786,0.25628 0.39688,0.25628 0.21828,0 0.39687,-0.0468 0.39687,-0.10398 z m 15.71147,-0.91209 c -0.092,-0.45981 -0.26023,-0.83601 -0.37394,-0.83601 -0.11371,0 -0.0789,0.41662 0.0774,0.92581 0.34422,1.12158 0.52772,1.06601 0.29655,-0.0898 z m -36.6672,-0.34247 c -0.0833,-0.52962 -0.12057,-0.49235 -0.24238,0.24238 -0.0872,0.52578 -0.0483,0.77261 0.0985,0.62582 0.13331,-0.13331 0.19808,-0.524 0.14393,-0.8682 z m 16.7224,0.54589 c 0,-0.48717 -0.0441,-0.50396 -0.39688,-0.15119 -0.21828,0.21828 -0.39687,0.46491 -0.39687,0.54807 0,0.0832 0.17859,0.15119 0.39687,0.15119 0.22505,0 0.39688,-0.23729 0.39688,-0.54807 z m -2.61182,-0.57641 c 0.28104,-0.52745 0.26996,-0.55635 -0.0973,-0.25354 -0.33808,0.27879 -0.43541,0.27892 -0.52815,7.1e-4 -0.0735,-0.22063 -0.22606,-0.13111 -0.43191,0.25354 -0.2806,0.52429 -0.25565,0.5946 0.21094,0.5946 0.29104,0 0.67191,-0.26789 0.84638,-0.59531 z m 1.4804,-0.21916 c 0.0326,-0.35241 -0.007,-0.49117 -0.0887,-0.30836 -0.0814,0.18281 -0.25684,0.26508 -0.38993,0.18282 -0.13309,-0.0822 -0.24198,0.10552 -0.24198,0.41728 0,0.77973 0.64581,0.51829 0.72066,-0.29174 z m 6.04826,0.28531 c 0.20615,0 0.37483,-0.13181 0.37483,-0.2929 0,-0.16109 0.17859,-0.22435 0.39687,-0.14059 0.47612,0.1827 0.53007,-0.38582 0.0794,-0.83651 -0.17463,-0.17463 -0.56524,-0.3175 -0.86804,-0.3175 -0.68275,0 -1.30639,1.37099 -0.83711,1.84027 0.19765,0.19765 0.32669,0.20488 0.38774,0.0217 0.0503,-0.15098 0.26018,-0.2745 0.46633,-0.2745 z m 2.16073,-0.15438 c -0.25214,-0.25214 -0.75763,0.15626 -0.56973,0.46029 0.11169,0.18072 0.25968,0.17615 0.4497,-0.0139 0.15577,-0.15577 0.20979,-0.35666 0.12003,-0.44642 z m -13.0307,-0.11021 c -0.0899,-0.14552 -0.30532,-0.26276 -0.47863,-0.26053 -0.18934,0.002 -0.15671,0.10642 0.0818,0.26053 0.5083,0.32849 0.59989,0.32849 0.39687,0 z m 7.16715,-1.91088 c 0.53219,-0.24248 0.64859,-0.46414 0.58507,-1.11414 -0.0679,-0.69517 -0.19808,-0.82299 -0.90827,-0.89204 -0.71136,-0.0692 -0.86751,0.0299 -1.1006,0.69857 -0.19215,0.55122 -0.18572,0.86508 0.022,1.07279 0.1615,0.16149 0.1957,0.29362 0.076,0.29362 -0.11969,0 -0.0542,0.20088 0.14552,0.44641 0.31799,0.39093 0.30558,0.42485 -0.0999,0.27289 -0.54397,-0.20386 -0.63102,0.32977 -0.13476,0.82604 0.2613,0.2613 0.37134,0.16203 0.53941,-0.48659 0.12606,-0.48646 0.47889,-0.93684 0.87552,-1.11755 z m -1.21402,-0.69078 c 0,-0.39703 0.13068,-0.48962 0.53999,-0.38259 0.61995,0.16212 0.55589,0.69385 -0.0989,0.82084 -0.292,0.0566 -0.44109,-0.0915 -0.44109,-0.43825 z m 1.46048,1.80252 c 0.0212,-0.28808 -0.0606,-0.52377 -0.18178,-0.52377 -0.1212,0 -0.22037,0.3175 -0.22037,0.70555 0,0.78984 0.34196,0.63527 0.40215,-0.18178 z m -5.42923,0.24859 c 0.30346,-0.21246 0.24118,-0.23564 -0.26458,-0.0985 -0.54048,0.14655 -0.60097,0.11585 -0.33073,-0.16788 0.49581,-0.52056 0.39825,-0.82532 -0.16731,-0.52264 -0.78312,0.41911 -0.91879,1.07575 -0.22126,1.07094 0.32285,-0.002 0.7656,-0.12909 0.98388,-0.28192 z m 7.77595,-0.13007 c 0.19684,-0.51296 -0.26655,-1.43604 -0.72088,-1.43604 -0.80975,0 -1.34076,1.39365 -0.63892,1.67685 0.65527,0.26441 1.20316,0.16738 1.3598,-0.24081 z m -1.00314,-0.0712 c -0.0678,-0.10973 -0.0314,-0.34829 0.081,-0.53014 0.1598,-0.25855 0.27281,-0.24811 0.51846,0.0479 0.24712,0.29776 0.22983,0.41085 -0.081,0.53014 -0.21734,0.0834 -0.45065,0.0619 -0.51846,-0.0479 z m 5.36677,0.24754 c 0.28955,-0.18339 0.2345,-0.31363 -0.26458,-0.62593 -0.70684,-0.44232 -2.33643,-0.88641 -1.99974,-0.54497 0.11929,0.12097 0.59529,0.35971 1.05779,0.53054 0.78339,0.28936 0.79566,0.31226 0.17945,0.33478 -0.52704,0.0193 -0.58081,0.0763 -0.26458,0.28067 0.49111,0.31738 0.81987,0.32372 1.29166,0.0249 z m 1.58312,-0.69988 c 0.0836,-0.43156 0.039,-0.45099 -0.33073,-0.14411 -0.50568,0.41968 -0.56865,0.91021 -0.0967,0.75305 0.1819,-0.0606 0.37423,-0.33459 0.42739,-0.60894 z m -17.05462,0.0797 c -0.10348,-0.1819 -0.3784,-0.55641 -0.61093,-0.83225 -0.40064,-0.47526 -0.39251,-0.48565 0.15514,-0.19843 0.31786,0.16669 0.77892,0.30308 1.02459,0.30308 0.37288,0 0.3906,-0.0676 0.10729,-0.40892 -0.18665,-0.2249 -0.48438,-0.35327 -0.66161,-0.28526 -0.17724,0.068 -0.45582,-0.01 -0.61907,-0.17316 -0.21938,-0.21938 -0.29682,-0.2066 -0.29682,0.049 0,0.21628 -0.16788,0.28139 -0.44819,0.17382 -0.38643,-0.14829 -0.37936,-0.0959 0.0513,0.37996 0.43067,0.47588 0.43774,0.52824 0.0513,0.37995 -0.82471,-0.31647 -0.45977,0.16972 0.41171,0.5485 1.06978,0.46497 1.06325,0.46447 0.83527,0.0637 z m 1.21525,0.0661 c -0.51815,-0.33486 -0.86841,-0.33486 -0.66146,0 0.0899,0.14552 0.36486,0.26276 0.61093,0.26053 0.38557,-0.003 0.39256,-0.0395 0.0505,-0.26053 z m 2.82129,-0.55647 c -0.20551,-0.5483 -0.33698,-0.67592 -0.39574,-0.38417 -0.0484,0.24029 0.0555,0.60977 0.23084,0.82106 0.47176,0.56844 0.50686,0.47545 0.1649,-0.43689 z m 14.58419,0.16697 c 0.42753,-0.35974 0.84147,-0.58995 0.91985,-0.51156 0.0784,0.0784 0.20874,0.0354 0.28967,-0.0956 0.20173,-0.32642 -0.6761,-0.31695 -1.09241,0.0118 -0.25555,0.2018 -0.29257,0.15073 -0.15347,-0.21176 0.29089,-0.75805 -0.37595,-0.21574 -0.84133,0.68422 -0.49066,0.94883 -0.15906,0.99526 0.87769,0.12289 z m -12.60252,-0.25509 c 0.42745,-0.93815 0.11164,-1.52467 -0.76656,-1.42365 -0.90133,0.10367 -1.17654,1.18344 -0.43908,1.72269 0.66569,0.48676 0.87078,0.43589 1.20564,-0.29904 z m 11.67047,-0.73607 c 0.40189,-0.28154 0.66223,-0.62269 0.57854,-0.75811 -0.0837,-0.13542 0.034,-0.31765 0.26147,-0.40495 0.56383,-0.21636 0.52254,-0.43651 -0.23518,-1.254104 -0.36344,-0.392164 -0.93562,-0.700094 -1.30087,-0.700094 -0.35862,0 -0.694,-0.125876 -0.74528,-0.279725 -0.0517,-0.155119 -0.30713,-0.197647 -0.5734,-0.09547 -0.37734,0.1448 -0.40459,0.232156 -0.12725,0.407965 0.19411,0.123041 0.61783,0.225534 0.94162,0.227763 0.50668,0.0035 0.56751,0.109973 0.43664,0.764325 -0.11739,0.58695 -0.021,0.85208 0.42292,1.163 0.53761,0.37656 0.32847,0.9525 -0.22228,0.61212 -0.22204,-0.13723 -0.79896,0.39768 -1.21767,1.12902 -0.16881,0.29487 -0.0951,0.29986 0.42278,0.0286 0.34498,-0.18068 0.95606,-0.55885 1.35796,-0.84038 z m -0.33384,-1.64643 c 0,-0.54697 0.54846,-0.809373 0.80936,-0.38723 0.13294,0.21511 0.0948,0.4379 -0.0957,0.55901 -0.481,0.30578 -0.71363,0.24979 -0.71363,-0.17178 z m -26.72292,2.25955 c 0,-0.1311 -0.52055,-0.93477 -1.15678,-1.78593 -1.60363,-2.145389 -2.19764,-3.419626 -2.41862,-5.188358 -0.10436,-0.835225 -0.29918,-1.51859 -0.43295,-1.51859 -0.27819,0 -0.052,2.327991 0.35595,3.663064 0.14871,0.486716 0.77354,1.50268 1.38851,2.257694 0.61497,0.75502 1.33009,1.69625 1.58915,2.09163 0.49224,0.75126 0.67474,0.88122 0.67474,0.48049 z m 11.64167,0.0267 c 0,-0.11642 -0.14288,-0.35455 -0.3175,-0.52917 -0.17463,-0.17463 -0.41275,-0.3175 -0.52917,-0.3175 -0.34182,0 -0.24243,0.73724 0.11906,0.8831 0.51018,0.20587 0.72761,0.19498 0.72761,-0.0364 z m 13.61974,-0.48129 c 0.2356,-0.23561 0.35986,-0.49689 0.27613,-0.58062 -0.0837,-0.0837 -0.41352,0.10904 -0.73285,0.42838 -0.31934,0.31933 -0.4436,0.58061 -0.27614,0.58061 0.16747,0 0.49725,-0.19277 0.73286,-0.42837 z m -18.64683,0.0471 c 0,-0.0642 -0.11906,-0.19026 -0.26458,-0.2802 -0.14552,-0.0899 -0.26458,-0.0374 -0.26458,0.11668 0,0.15411 0.11906,0.2802 0.26458,0.2802 0.14552,0 0.26458,-0.0525 0.26458,-0.11668 z m 15.04992,-0.0818 c -0.0944,-0.5979 0.0656,-1.13451 0.29592,-0.99219 0.40722,0.25168 0.31333,-0.43363 -0.1259,-0.91897 -0.42631,-0.47107 -2.25535,-0.42832 -2.25535,0.0527 0,0.14656 0.29765,0.20958 0.66145,0.14003 0.65982,-0.12613 0.89857,0.15158 0.39688,0.46164 -0.376,0.23238 -0.32836,0.55988 0.15119,1.03943 0.43494,0.43494 0.92955,0.55768 0.87581,0.21734 z m 2.62272,-0.21654 c 0.79263,-0.55518 0.50579,-0.91679 -0.68877,-0.8683 -0.79874,0.0324 -0.84407,0.0597 -0.24897,0.14987 0.90914,0.13772 0.96021,0.60424 0.0661,0.60424 -0.3638,0 -0.66145,0.11906 -0.66145,0.26458 0,0.40146 0.86653,0.31645 1.53305,-0.15039 z m -26.60213,-1.10638 c -0.5727,-0.69122 -1.17548,-1.494895 -1.33951,-1.785936 -0.28142,-0.499331 -0.29869,-0.501092 -0.30628,-0.03123 -0.0104,0.644829 0.93483,2.169316 1.66002,2.677256 1.04171,0.72965 1.03639,0.40797 -0.0142,-0.86009 z m 14.75033,1.01424 c 0,-0.1334 -0.14883,-0.31089 -0.33073,-0.39444 -0.1819,-0.0835 -0.0479,-0.0807 0.29771,0.006 0.42281,0.10643 0.56921,0.0623 0.44741,-0.13473 -0.0996,-0.16111 -0.47586,-0.29293 -0.83619,-0.29293 -0.57317,0 -0.61971,0.0662 -0.37195,0.52917 0.28954,0.54102 0.79375,0.72309 0.79375,0.28663 z m 25.64267,-1.27979 c 0.60174,-0.76451 1.22424,-1.717013 1.38333,-2.116665 0.29913,-0.75146 1.01897,-4.144501 1.01952,-4.805631 5.3e-4,-0.780357 -0.27708,-0.04954 -0.5534,1.456228 -0.1579,0.860437 -0.53227,2.159744 -0.83193,2.887348 -0.47096,1.143518 -0.90305,1.82187 -2.42901,3.81334 -0.2084,0.27197 -0.20417,0.34402 0.0155,0.26458 0.16605,-0.06 0.79424,-0.73468 1.39598,-1.4992 z m -32.87462,1.08135 c -0.097,-0.097 -0.25576,-0.097 -0.35278,0 -0.097,0.097 -0.0176,0.17639 0.17639,0.17639 0.19403,0 0.27341,-0.0794 0.17639,-0.17639 z m 2.33574,-0.61091 c 0.22141,-1.00809 -0.0261,-1.396719 -0.74846,-1.17497 -0.71722,0.22019 -0.63237,0.12424 -0.83942,0.94917 -0.14973,0.59659 -0.0815,0.72379 0.44152,0.82332 0.34023,0.0647 0.69844,0.13393 0.79602,0.15375 0.0976,0.0198 0.25523,-0.31825 0.35034,-0.75127 z m -1.18921,-0.0884 c 0,-0.21484 0.18724,-0.46247 0.4161,-0.55028 0.29016,-0.11135 0.39026,-0.0265 0.33073,0.28049 -0.10862,0.56004 -0.74683,0.7906 -0.74683,0.26979 z m 13.60707,0.67725 c -0.1317,-0.10914 -0.31357,-0.29772 -0.40415,-0.41906 -0.0906,-0.12134 -0.23706,-0.032 -0.3255,0.19844 -0.11579,0.30173 -0.003,0.41906 0.40415,0.41906 0.31073,0 0.4572,-0.0893 0.3255,-0.19844 z m 11.52835,-0.19844 c 0.27492,-0.33125 0.2379,-0.39687 -0.22389,-0.39687 -0.38308,0 -0.50641,0.12207 -0.40096,0.39687 0.0838,0.21828 0.18451,0.39688 0.22388,0.39688 0.0394,0 0.21981,-0.1786 0.40097,-0.39688 z m -1.21988,-0.28375 c 0.16484,-0.42958 -0.2408,-1.439154 -0.57537,-1.431987 -0.58482,0.01253 -1.26048,1.134287 -0.96812,1.607327 0.24637,0.39864 1.37231,0.27074 1.54349,-0.17534 z m -0.72759,-0.0321 c -0.29797,-0.29797 -0.18148,-0.61017 0.22767,-0.61017 0.21829,0 0.39688,0.11204 0.39688,0.24897 0,0.33363 -0.41317,0.57258 -0.62455,0.3612 z m -19.48378,-0.32395 c 0,-1.284558 -0.51864,-1.636428 -1.41306,-0.95869 -0.7407,0.56125 -0.34744,1.46622 0.63714,1.46622 0.5885,0 0.77592,-0.12259 0.77592,-0.50753 z m -1.15372,0.0594 c -0.29797,-0.29797 -0.18148,-0.61017 0.22767,-0.61017 0.21829,0 0.39688,0.11203 0.39688,0.24897 0,0.33363 -0.41317,0.57258 -0.62455,0.3612 z m 1.85927,0.27177 c -0.097,-0.097 -0.25576,-0.097 -0.35278,0 -0.097,0.097 -0.0176,0.17639 0.17639,0.17639 0.19403,0 0.27341,-0.0794 0.17639,-0.17639 z m -5.85255,-0.33275 c -0.0831,-0.13451 0.0587,-0.29929 0.31511,-0.36618 0.25644,-0.0669 -0.0695,-0.13165 -0.72436,-0.1439 -1.10179,-0.0206 -1.15231,0.007 -0.67704,0.36618 0.56727,0.42906 1.32452,0.52937 1.08629,0.1439 z m 11.23241,-0.26899 c 0,-0.28246 -0.11906,-0.58714 -0.26458,-0.67708 -0.15006,-0.09274 -0.26458,0.12955 -0.26458,0.51356 0,0.37239 0.11906,0.67707 0.26458,0.67707 0.14552,0 0.26458,-0.2311 0.26458,-0.51355 z m 23.77357,-0.933632 c 0.49379,-1.365553 0.35289,-1.380108 -0.49023,-0.05064 -0.92687,1.461512 -0.96423,1.608772 -0.30352,1.196142 0.26964,-0.16838 0.62682,-0.68386 0.79375,-1.145502 z m -44.44546,-0.680843 c -0.47292,-1.490228 -0.50535,-1.915092 -0.25389,-3.32644 0.36161,-2.029542 0.3632,-2.50691 0.006,-1.89457 -0.14622,0.250896 -0.33787,1.227383 -0.42589,2.169972 -0.13093,1.402031 -0.0506,2.006495 0.44167,3.322754 0.78185,2.090629 0.92734,1.920069 0.23177,-0.271716 z m 17.88325,1.301145 c -0.12967,-0.40855 -0.089,-0.507002 0.14879,-0.36005 0.21318,0.13175 0.28323,0.0741 0.20095,-0.165305 -0.0754,-0.219539 -0.43554,-0.345413 -0.89422,-0.312568 -2.4461,0.175162 -2.41492,0.166193 -2.28636,0.657823 0.16517,0.63161 0.88374,0.60642 1.59466,-0.0559 l 0.57288,-0.533716 0.16715,0.666006 c 0.0919,0.3663 0.28134,0.66601 0.42089,0.66601 0.13955,0 0.17342,-0.25304 0.0753,-0.5623 z m 12.17948,0.30074 c 0.0927,-0.14998 -0.0135,-0.19434 -0.24897,-0.10398 -0.45837,0.17589 -0.54223,0.36554 -0.16165,0.36554 0.13693,0 0.32171,-0.1177 0.41062,-0.26156 z m 7.49024,-0.39174 c 0.32146,-0.32146 -0.19842,-0.397887 -1.16458,-0.1712 -0.56767,0.1332 -0.87627,0.25413 -0.68578,0.26875 0.19049,0.0146 0.27749,0.13799 0.19333,0.27416 -0.15484,0.25053 1.37881,-0.0935 1.65703,-0.37171 z m 8.46439,-3.762925 c 0.13395,-2.434197 -0.11173,-4.373049 -0.47886,-3.779026 -0.12478,0.201906 -0.15913,1.327098 -0.0763,2.500426 0.132,1.870527 -0.039,3.467071 -0.56742,5.298535 -0.0839,0.29072 0.10755,-0.007 0.42541,-0.662048 0.39835,-0.820646 0.615,-1.864088 0.6972,-3.357887 z m -17.40797,2.7826 c 0,-0.360855 -0.92119,-0.246569 -1.47078,0.18247 -0.48397,0.377808 -0.46781,0.390784 0.28016,0.224966 l 0.79375,-0.175968 -0.52728,0.634927 -0.52727,0.63493 0.72571,-0.64143 c 0.39914,-0.352788 0.72571,-0.739741 0.72571,-0.859895 z m 0.44204,0.664545 c -0.0782,-0.07823 -0.28194,-0.05591 -0.45268,0.0496 -0.23017,0.14226 -0.21762,0.24953 0.0485,0.41489 0.35281,0.2192 0.69479,-0.17385 0.40414,-0.4645 z m -7.29861,0.057 c 0.1331,0.0823 0.24199,0.0362 0.24199,-0.102336 0,-0.28473 -0.80158,-0.653457 -0.9966,-0.458436 -0.0699,0.06991 -0.039,0.340603 0.0687,0.601542 0.13234,0.32069 0.23599,0.36673 0.31986,0.14205 0.0683,-0.18281 0.23298,-0.265075 0.36607,-0.18282 z m 1.56491,0.13616 c 0,-0.13572 0.24673,-0.32507 0.5483,-0.420783 0.31299,-0.09934 0.49006,-0.325788 0.4126,-0.527652 -0.0746,-0.194495 0.0581,-0.511161 0.29499,-0.703701 0.37149,-0.301958 0.40683,-0.286434 0.25716,0.112947 -0.0954,0.254662 -0.0582,0.463021 0.0828,0.463021 0.32111,0 0.33811,-0.711946 0.0217,-0.907514 -0.12903,-0.07975 -0.38624,0.03771 -0.57156,0.26101 -0.18532,0.223301 -0.49071,0.346998 -0.67865,0.274881 -0.35175,-0.134979 -1.22534,1.277441 -0.95643,1.546361 0.23291,0.2329 0.58917,0.17329 0.58917,-0.0986 z m -12.93484,-0.622978 c 0.29558,-0.407747 0.35915,-0.770905 0.20696,-1.182311 -0.25288,-0.683613 -0.44515,-0.719777 -1.11752,-0.210191 -0.3873,0.293536 -0.42678,0.473567 -0.19772,0.90157 0.18825,0.351753 0.1958,0.590675 0.022,0.698063 -0.14529,0.0898 -0.40285,-0.141102 -0.57235,-0.51311 -0.32353,-0.710066 -0.75526,-0.909475 -0.74836,-0.345649 0.0146,1.192256 1.68686,1.644976 2.40695,0.651628 z m -0.69121,-0.717773 c -0.0899,-0.145521 0.0221,-0.264584 0.24897,-0.264584 0.22687,0 0.41249,0.119063 0.41249,0.264584 0,0.14552 -0.11203,0.264583 -0.24897,0.264583 -0.13693,0 -0.32255,-0.119063 -0.41249,-0.264583 z m -2.07256,0.881944 c -0.097,-0.09701 -0.25577,-0.09701 -0.35278,0 -0.097,0.09701 -0.0176,0.176389 0.17639,0.176389 0.19402,0 0.2734,-0.07937 0.17639,-0.176389 z m -1.23932,-0.490606 c -0.18369,-0.221326 -0.36558,-0.690341 -0.40421,-1.042255 -0.0635,-0.578627 -0.008,-0.616069 0.58338,-0.391339 0.95316,0.36239 1.14834,0.311657 1.14834,-0.298491 0,-0.443238 0.11046,-0.511937 0.58234,-0.36217 0.5725,0.181706 0.57463,0.173071 0.12619,-0.511337 -0.43344,-0.661506 -0.43279,-0.697238 0.013,-0.717746 0.28311,-0.01303 0.11437,-0.17632 -0.42557,-0.411831 -0.92079,-0.401633 -1.77956,-0.305255 -1.48771,0.166962 0.0906,0.146549 0.009,0.26962 -0.18167,0.273492 -0.19049,0.0039 -0.0189,0.210043 0.38126,0.458157 0.40018,0.248115 0.72761,0.556296 0.72761,0.684848 0,0.128552 -0.28378,0.0478 -0.63061,-0.179455 -0.34683,-0.227252 -0.88263,-0.3942 -1.19066,-0.370997 -0.64288,0.04843 -1.01787,0.900437 -0.58627,1.332041 0.52266,0.522662 0.3051,0.809089 -0.23992,0.315856 -0.29193,-0.264196 -0.59032,-0.420826 -0.66308,-0.348065 -0.18043,0.180427 0.6283,0.885777 1.59133,1.387916 0.98914,0.51575 1.07389,0.517612 0.65628,0.01441 z m -0.41755,-2.284302 c -0.11696,-0.189256 -0.0726,-0.233644 0.11668,-0.116677 0.305,0.1885 0.40949,0.422141 0.18879,0.422141 -0.0642,0 -0.20163,-0.137459 -0.30547,-0.305464 z m 0.81902,-0.75287 c -0.0899,-0.145521 0.0816,-0.264583 0.38126,-0.264583 0.29963,0 0.54478,0.119062 0.54478,0.264583 0,0.145521 -0.17157,0.264584 -0.38126,0.264584 -0.20969,0 -0.45484,-0.119063 -0.54478,-0.264584 z m 6.17424,3.095087 c 0.15725,-0.189474 0.21747,-0.606193 0.13383,-0.926042 -0.19379,-0.741022 -1.28489,-0.786648 -1.66855,-0.06977 -0.38021,0.710423 -0.35451,0.795795 0.32142,1.067482 0.81286,0.326733 0.88625,0.322398 1.2133,-0.07167 z m -1.27945,-0.416857 c 0,-0.127702 0.16469,-0.368866 0.36598,-0.535919 0.28326,-0.235091 0.40285,-0.207625 0.52916,0.121534 0.23583,0.614556 0.21771,0.646572 -0.36597,0.646572 -0.29105,0 -0.52917,-0.104484 -0.52917,-0.232187 z m 14.71215,-0.489693 c -0.1775,-0.177496 -0.95382,0.429658 -0.95382,0.745973 0,0.123135 0.1786,0.15535 0.39688,0.07159 0.22657,-0.08694 0.41234,0.0018 0.4329,0.206742 0.0198,0.19747 0.089,0.08092 0.15367,-0.258994 0.0647,-0.339917 0.0514,-0.684306 -0.0296,-0.765308 z m 7.29358,0.813164 c 0.57838,-0.523431 0.60474,-0.801948 0.12159,-1.28509 -0.52477,-0.524779 -1.48982,-0.194235 -1.48982,0.51029 0,0.518254 0.43502,1.212683 0.75969,1.212683 0.0686,0 0.34242,-0.197047 0.60854,-0.437883 z m -0.95283,-0.325888 c -0.0797,-0.129033 0.0217,-0.372939 0.22542,-0.542015 0.41241,-0.342273 0.83472,0.05103 0.5498,0.512036 -0.20245,0.327586 -0.58221,0.342272 -0.77522,0.02998 z m 3.42106,-0.0336 c 0,-0.391282 -0.13624,-0.63029 -0.33623,-0.589855 -0.23398,0.04731 -0.2856,-0.133739 -0.16976,-0.595313 0.1027,-0.409184 0.0541,-0.663292 -0.12679,-0.663292 -0.16129,0 -0.29326,0.119063 -0.29326,0.264584 0,0.14552 -0.11907,0.264583 -0.26459,0.264583 -0.14552,0 -0.26458,-0.252704 -0.26458,-0.561564 0,-0.457515 -0.0703,-0.503257 -0.37917,-0.246879 -0.32681,0.271226 -0.31767,0.379521 0.0661,0.784176 0.24493,0.258221 0.53462,0.421822 0.64376,0.363557 0.26058,-0.139114 0.25035,0.01889 -0.0529,0.816479 -0.17839,0.469192 -0.15919,0.699386 0.0661,0.793131 0.65815,0.273808 1.11123,0.0171 1.11123,-0.629607 z m -0.77978,0.290805 c -0.0852,-0.137839 -0.0421,-0.320317 0.0957,-0.405507 0.13784,-0.08519 0.32032,-0.04211 0.40551,0.09573 0.0852,0.137839 0.0421,0.320317 -0.0957,0.405506 -0.13784,0.08519 -0.32032,0.04211 -0.4055,-0.09573 z m 5.67457,-1.278851 c 0,-0.09487 -0.14288,-0.02962 -0.3175,0.145003 -0.52517,0.525173 -0.85864,0.357048 -0.36773,-0.1854 0.34201,-0.377915 0.37492,-0.552465 0.13242,-0.702338 -0.1895,-0.117116 -0.25459,-0.08923 -0.15768,0.06756 0.0908,0.146852 -0.13991,0.552202 -0.51258,0.900777 -1.30602,1.221542 -1.30192,1.684129 0.007,0.783609 0.66886,-0.460194 1.21612,-0.914341 1.21612,-1.009215 z m -25.53229,1.267973 c 0.48675,-0.198384 0.47089,-0.230991 -0.19785,-0.406813 -0.80812,-0.212469 -1.52194,-0.03106 -1.52194,0.386789 0,0.31891 0.95905,0.330077 1.71979,0.02002 z m -1.36702,-0.188109 c 0.097,-0.09701 0.25577,-0.09701 0.35278,0 0.097,0.09701 0.0176,0.176389 -0.17639,0.176389 -0.19402,0 -0.2734,-0.07937 -0.17639,-0.176389 z m 24.19207,-0.08819 c 0.18176,-0.291042 0.28839,-0.529167 0.23695,-0.529167 -0.0514,0 -0.30903,0.238125 -0.57242,0.529167 -0.26339,0.291041 -0.37001,0.529166 -0.23694,0.529166 0.13307,0 0.39066,-0.238125 0.57241,-0.529166 z m -31.15943,0.05292 c 0,-0.278254 -0.57466,-0.846666 -0.85597,-0.846666 -0.12154,0 -0.0935,0.238125 0.0622,0.529166 0.27966,0.522536 0.79375,0.728175 0.79375,0.3175 z m 10.58334,-0.05292 c 0,-0.145521 -0.0525,-0.264584 -0.11668,-0.264584 -0.0642,0 -0.19026,0.119063 -0.2802,0.264584 -0.0899,0.14552 -0.0374,0.264583 0.11668,0.264583 0.15411,0 0.2802,-0.119063 0.2802,-0.264583 z m 4.6743,0.08819 c -0.097,-0.09701 -0.25576,-0.09701 -0.35278,0 -0.097,0.09701 -0.0176,0.176389 0.17639,0.176389 0.19403,0 0.2734,-0.07937 0.17639,-0.176389 z m 8.99584,-0.264583 c -0.097,-0.09701 -0.25577,-0.09701 -0.35278,0 -0.097,0.09701 -0.0176,0.176389 0.17639,0.176389 0.19402,0 0.2734,-0.07937 0.17639,-0.176389 z m 5.82083,0 c -0.097,-0.09701 -0.25577,-0.09701 -0.35278,0 -0.097,0.09701 -0.0176,0.176389 0.17639,0.176389 0.19403,0 0.2734,-0.07937 0.17639,-0.176389 z m -19.8873,-0.257307 c 0.63888,-0.245161 -0.0412,-0.624049 -1.05888,-0.589894 -0.51497,0.01728 -0.61764,0.07174 -0.29233,0.155036 0.40289,0.103164 0.42889,0.174328 0.13229,0.362132 -0.27975,0.177144 -0.23023,0.234716 0.20454,0.237787 0.31552,0.0022 0.77199,-0.07205 1.01438,-0.165061 z m 3.17445,-0.09547 c 0.0899,-0.145521 -0.0291,-0.264583 -0.26458,-0.264583 -0.23546,0 -0.35452,0.119062 -0.26459,0.264583 0.0899,0.145521 0.209,0.264583 0.26459,0.264583 0.0556,0 0.17464,-0.119062 0.26458,-0.264583 z m 9.08435,0.03266 c 0.402,-0.254825 -0.41274,-0.55198 -1.53049,-0.55821 -0.99972,-0.0056 -0.33003,0.478473 1.0451,0.755394 0.0728,0.01465 0.29118,-0.07408 0.48539,-0.197184 z m -20.60009,-0.287704 c 0.31835,-0.201317 0.26946,-0.292644 -0.26459,-0.494275 -0.77863,-0.293976 -0.85245,-0.257289 -0.63301,0.314579 0.19036,0.496053 0.34756,0.527524 0.8976,0.179696 z m 2.43165,-0.641977 c 0.0613,-0.347318 -0.19471,-0.652728 -0.83778,-0.999469 -0.91812,-0.495049 -0.92095,-0.494934 -0.33073,0.01339 0.84022,0.723638 0.73875,0.91253 -0.22303,0.415177 -0.91094,-0.471068 -1.12846,-0.409684 -0.87635,0.247314 0.10935,0.284952 0.34322,0.387605 0.65653,0.288166 0.31865,-0.101137 0.60241,0.03088 0.82193,0.382386 0.36113,0.578264 0.64844,0.451986 0.78943,-0.346968 z m 10.93617,0.632442 c -0.0899,-0.145521 -0.27555,-0.264584 -0.41249,-0.264584 -0.13693,0 -0.24896,0.119063 -0.24896,0.264584 0,0.14552 0.18562,0.264583 0.41249,0.264583 0.22687,0 0.3389,-0.119063 0.24896,-0.264583 z m 9.12813,-0.396875 c 0,-0.251886 -0.25348,-0.396875 -0.69385,-0.396875 -0.58677,0 -0.64302,0.06126 -0.36448,0.396875 0.18115,0.218281 0.49339,0.396875 0.69385,0.396875 0.20046,0 0.36448,-0.178594 0.36448,-0.396875 z m 8.12204,-0.70482 c 0.19658,-0.163146 0.29574,-0.358307 0.22035,-0.433692 -0.0754,-0.07539 -0.37592,0.0791 -0.66785,0.343294 -0.71352,0.645727 -0.67859,0.192896 0.0445,-0.576792 0.31641,-0.336801 0.51979,-0.612365 0.45196,-0.612365 -0.0678,0 -0.65413,0.546538 -1.30289,1.21453 l -1.17957,1.21453 1.03804,-0.426438 c 0.57092,-0.234541 1.19888,-0.559921 1.39546,-0.723067 z m -35.63871,-0.12016 c 0,-0.218282 0.11907,-0.323291 0.26459,-0.233354 0.41717,0.257829 0.30877,-0.174088 -0.17896,-0.713022 -0.3126,-0.345419 -0.36069,-0.572953 -0.16291,-0.770734 0.19778,-0.197783 0.40059,-0.10936 0.68698,0.299518 0.4311,0.615487 0.81013,0.536718 1.23469,-0.256596 0.41373,-0.773052 -1.17601,-0.902486 -2.0328,-0.165508 -0.55842,0.480333 -0.62534,0.701496 -0.46725,1.544191 0.17459,0.93065 0.65566,1.147467 0.65566,0.295505 z m 33.70726,0.147672 c 0.13061,-0.121526 -0.10182,-0.184784 -0.5165,-0.140572 -0.41467,0.04421 -0.80351,0.22905 -0.86408,0.410752 -0.1185,0.355516 0.9283,0.150656 1.38058,-0.27018 z m -25.0642,-0.16054 c -0.097,-0.09701 -0.17639,-0.01764 -0.17639,0.176389 0,0.194028 0.0794,0.273403 0.17639,0.176389 0.097,-0.09701 0.097,-0.255764 0,-0.352778 z m 29.32348,-1.894433 c -0.43457,-0.40862 -0.45912,-0.408971 -0.31882,-0.0046 0.088,0.253675 -0.0642,0.633813 -0.36145,0.902841 -0.48479,0.438723 -0.48831,0.492475 -0.0632,0.962261 0.43518,0.480876 0.46312,0.46543 0.83228,-0.460122 0.34748,-0.871182 0.33945,-0.997699 -0.0888,-1.400422 z m -4.2259,0.981766 c 0.65511,-0.30794 1.26349,-0.677006 1.35196,-0.820148 0.0905,-0.146522 -0.0768,-0.133096 -0.38286,0.03072 -0.68837,0.368408 -0.9231,0.369938 -0.69727,0.0045 0.19999,-0.323589 -1.06024,0.297419 -1.86559,0.919316 -0.47546,0.367149 -0.48188,0.409479 -0.0633,0.41704 0.25624,0.0046 1.0019,-0.243536 1.65702,-0.551476 z m -0.47369,-0.266692 c 0.17947,-0.180821 0.39297,-0.262115 0.47443,-0.180653 0.0815,0.08146 -0.0654,0.229406 -0.32632,0.328765 -0.37708,0.143586 -0.40747,0.113195 -0.14811,-0.148112 z m -32.82597,-0.143557 c -0.097,-0.09701 -0.25577,-0.09701 -0.35278,0 -0.097,0.09701 -0.0176,0.176389 0.17639,0.176389 0.19402,0 0.2734,-0.07937 0.17639,-0.176389 z m 36.52276,-0.514911 c 0.29782,-0.641656 0.28029,-0.676808 -0.26458,-0.530715 -0.32094,0.08605 -0.73236,0.158081 -0.91426,0.160068 -0.21952,0.0024 -0.17504,0.174132 0.13229,0.510731 0.61295,0.671329 0.67371,0.663196 1.04655,-0.140084 z m -37.22832,-0.713631 c 0,-0.145521 -0.23813,-0.04908 -0.52917,0.214306 -0.29104,0.263389 -0.52916,0.597951 -0.52916,0.743472 0,0.145521 0.23812,0.04908 0.52916,-0.214306 0.29104,-0.263389 0.52917,-0.597952 0.52917,-0.743472 z m 39.13056,-0.234459 c -0.32677,-0.610587 -0.53838,-0.620279 -0.31126,-0.01426 0.15742,0.420038 0.12737,0.426179 -0.32368,0.06615 -0.44195,-0.352778 -0.47228,-0.352778 -0.27292,0 0.51977,0.919788 0.74725,1.098552 0.95996,0.754384 0.11184,-0.180948 0.0884,-0.543771 -0.0521,-0.806274 z m -40.0566,0.316473 c 0.26339,-0.291042 0.41936,-0.529167 0.3466,-0.529167 -0.0728,0 -0.3478,0.238125 -0.61119,0.529167 -0.26338,0.291042 -0.41935,0.529167 -0.34659,0.529167 0.0728,0 0.34779,-0.238125 0.61118,-0.529167 z m -1.18493,-0.785749 c -0.59227,-0.831766 -1.06403,-1.229909 -1.06403,-0.89799 0,0.203242 1.33892,1.683739 1.52273,1.683739 0.0554,0 -0.15097,-0.353587 -0.4587,-0.785749 z m 42.32764,-0.140293 c 0.18985,-0.228757 0.21556,-0.396875 0.0607,-0.396875 -0.14777,0 -0.3372,0.178594 -0.42097,0.396875 -0.0838,0.218281 -0.11108,0.396875 -0.0607,0.396875 0.0504,0 0.23981,-0.178594 0.42097,-0.396875 z m -41.53959,0.01562 c 0,-0.06417 -0.13746,-0.201631 -0.30546,-0.305464 -0.18926,-0.116967 -0.23364,-0.07258 -0.11668,0.116677 0.1885,0.304998 0.42214,0.409486 0.42214,0.188786 z m -0.79375,-0.79375 c 0,-0.06417 -0.13746,-0.201631 -0.30546,-0.305464 -0.18926,-0.116967 -0.23364,-0.07258 -0.11668,0.116677 0.1885,0.304998 0.42214,0.409486 0.42214,0.188786 z m 44.62639,-1.382629 c -0.097,-0.09701 -0.25576,-0.09701 -0.35278,0 -0.097,0.09701 -0.0176,0.176388 0.17639,0.176388 0.19403,0 0.2734,-0.07937 0.17639,-0.176388 z"
       id="path20024" />
  </g>
</svg>
