<?xml version="1.0" encoding="UTF-8" standalone="no"?>
<!-- Created with Inkscape (http://www.inkscape.org/) -->

<svg
   width="101.03188mm"
   height="99.425476mm"
   viewBox="0 0 101.03188 99.425469"
   version="1.1"
   id="svg5"
   inkscape:version="1.1 (c4e8f9ed74, 2021-05-24)"
   sodipodi:docname="ornatea.svg"
   xmlns:inkscape="http://www.inkscape.org/namespaces/inkscape"
   xmlns:sodipodi="http://sodipodi.sourceforge.net/DTD/sodipodi-0.dtd"
   xmlns="http://www.w3.org/2000/svg"
   xmlns:svg="http://www.w3.org/2000/svg">
  <sodipodi:namedview
     id="namedview7"
     pagecolor="#ffffff"
     bordercolor="#666666"
     borderopacity="1.0"
     inkscape:pageshadow="2"
     inkscape:pageopacity="0.0"
     inkscape:pagecheckerboard="0"
     inkscape:document-units="mm"
     showgrid="false"
     inkscape:zoom="0.66903058"
     inkscape:cx="-700.26694"
     inkscape:cy="284.74035"
     inkscape:window-width="2506"
     inkscape:window-height="1403"
     inkscape:window-x="1974"
     inkscape:window-y="0"
     inkscape:window-maximized="1"
     inkscape:current-layer="layer1" />
  <defs
     id="defs2" />
  <g
     inkscape:label="Layer 1"
     inkscape:groupmode="layer"
     id="layer1"
     transform="translate(-130.46747,-233.61092)">
    <path
       style="fill:#000000;stroke-width:0.264583"
       d="m 193.4383,332.98217 c -4.51179,-0.77114 -4.83164,-0.91114 -6.80033,-2.97645 -1.04583,-1.09716 -1.50702,-1.41719 -1.76655,-1.22584 -2.32725,1.71582 -5.05395,2.77807 -7.10633,2.76844 -1.39819,-0.007 -1.73058,-0.38259 -0.832,-0.94122 1.15464,-0.71781 2.21771,-1.7556 2.21771,-2.16496 0,-0.27792 -0.17417,-0.24547 -0.7276,0.1356 -1.12703,0.776 -2.1923,1.1265 -4.04833,1.33198 -1.66452,0.18428 -1.70636,0.20779 -1.70636,0.95877 0,1.59168 -0.65981,0.98285 -2.08755,-1.92626 -2.31226,-4.71137 -2.53432,-7.82169 -0.95115,-13.32263 0.42602,-1.48028 0.7235,-2.7425 0.66108,-2.80492 -0.15719,-0.15719 -1.35965,2.59159 -2.17824,4.97935 -0.82503,2.40658 -0.9443,6.04211 -0.25806,7.86606 0.55651,1.47914 0.25404,1.77394 -2.25766,2.20042 -2.3597,0.40067 -10.55603,0.16205 -13.30134,-0.38724 -6.38865,-1.27826 -13.16764,-6.55435 -15.86413,-12.34705 -0.59661,-1.28167 -0.6671,-1.76897 -0.6666,-4.60823 3.2e-4,-1.83784 0.15225,-3.74468 0.36074,-4.52768 1.09227,-4.10196 5.10018,-8.98336 8.23063,-10.0244 0.90407,-0.30065 1.067,-1.01948 0.25735,-1.13541 -0.73708,-0.10554 -3.78068,2.07881 -6.55283,4.70288 -2.59838,2.45958 -3.02809,3.31206 -3.72675,7.39322 -0.80211,4.6855 -0.44051,8.07335 1.18913,11.14084 1.9411,3.65373 5.87064,7.2396 10.55475,9.63161 4.34912,2.22095 4.60364,2.26678 12.54959,2.2595 3.79351,-0.003 7.35707,-0.11299 7.91901,-0.24338 0.56195,-0.13038 1.36158,-0.56266 1.77695,-0.96061 l 0.75521,-0.72354 0.27358,0.71956 c 0.68059,1.79008 0.26167,2.00873 -4.8858,2.55002 -3.25113,0.34188 -14.57175,0.42643 -16.76054,0.12518 -1.22561,-0.16868 -1.48328,-0.31091 -1.92761,-1.06399 -0.28208,-0.4781 -0.76952,-0.93639 -1.0832,-1.01841 -0.56952,-0.14894 -2.32135,0.51044 -2.32135,0.87375 0,0.4182 -1.43197,0.80627 -2.98902,0.81005 -0.90265,0.002 -2.11744,0.17556 -2.69952,0.38526 -0.58209,0.20971 -1.98107,0.38651 -3.10886,0.3929 -2.38096,0.0135 -2.23396,0.32326 -1.65842,-3.49501 0.57677,-3.82641 1.40434,-5.04021 2.40018,-3.52036 0.39373,0.60091 0.38169,0.77492 -0.17276,2.49645 -0.68018,2.11187 -0.56885,2.44099 1.00086,2.95904 0.82908,0.27362 1.02198,0.24129 1.74352,-0.29216 0.60952,-0.45064 1.35617,-0.64948 3.00214,-0.79951 1.20496,-0.10982 2.31586,-0.27694 2.46865,-0.37138 0.52107,-0.32204 0.27917,-1.15061 -0.53624,-1.83673 -0.62312,-0.52432 -1.10576,-0.68498 -2.0578,-0.68498 -1.27578,0 -1.82504,0.26365 -3.43979,1.65113 -1.47658,1.26876 -1.27149,0.5908 0.45136,-1.49203 0.89482,-1.08178 1.62695,-2.13208 1.62695,-2.334 0,-0.49759 -1.74253,-2.15737 -2.05936,-1.96156 -0.13914,0.086 -0.40137,0.51458 -0.58273,0.95242 -0.43186,1.0426 -0.72696,0.81502 -0.93975,-0.72473 -0.2422,-1.75257 -0.84379,-4.14717 -1.51066,-6.0131 -0.49049,-1.37241 -0.56725,-2.16109 -0.56653,-5.82084 8.7e-4,-4.42909 0.0813,-4.87138 1.45884,-8.02002 l 0.61488,-1.40544 -0.72144,-1.37794 c -0.3968,-0.75787 -0.95633,-2.02054 -1.2434,-2.80596 -0.3347,-0.91569 -0.85658,-1.70383 -1.45466,-2.19681 -0.51298,-0.42285 -0.93269,-1.00089 -0.93269,-1.28454 0,-0.61114 2.3569,-2.22176 2.71994,-1.85872 0.12855,0.12855 0.51882,1.58726 0.86725,3.24158 0.69061,3.2789 1.32942,4.99223 1.86133,4.99223 0.59196,0 0.69827,-0.52837 0.24538,-1.21957 -0.61948,-0.94546 -1.14631,-3.71609 -1.35203,-7.11043 -0.22154,-3.65549 -0.39365,-4.03355 -1.15599,-2.53925 -0.31733,0.62202 -0.61766,1.08964 -0.6674,1.03916 -0.0497,-0.0505 0.0306,-0.74663 0.17844,-1.547 0.35765,-1.93568 0.11546,-15.53033 -0.31141,-17.48023 -0.29735,-1.35828 -0.26809,-1.64503 0.37585,-3.68347 0.56683,-1.79432 0.6466,-2.35884 0.42368,-2.99831 -0.53064,-1.5222 -0.35036,-2.04022 1.31287,-3.7723 0.87313,-0.90927 1.5875,-1.78812 1.5875,-1.95301 0,-0.16488 -0.376,-0.50261 -0.83556,-0.7505 -1.25245,-0.67559 -2.44617,-1.78375 -2.25488,-2.09327 0.093,-0.15041 0.5191,-0.34349 0.94699,-0.42907 0.47399,-0.0948 0.84716,-0.37358 0.95503,-0.71346 0.0974,-0.30682 1.13249,-1.57218 2.30024,-2.81191 1.61407,-1.71356 2.04939,-2.32786 1.81545,-2.56186 -0.18025,-0.18029 -1.55932,-0.36262 -3.32875,-0.44011 -2.39407,-0.10483 -3.1162,-0.22768 -3.47974,-0.59193 -0.43533,-0.43618 -0.41551,-0.52096 0.38832,-1.66138 0.96322,-1.36653 1.01228,-1.68681 0.43069,-2.8115 -0.22902,-0.44286 -0.35396,-0.86762 -0.27766,-0.94393 0.0763,-0.0763 0.71016,-0.19987 1.40857,-0.2746 0.69842,-0.0747 1.41867,-0.25394 1.60057,-0.39824 0.83443,-0.66197 -0.0403,-3.91953 -1.28701,-4.79273 -0.33916,-0.23757 -0.95327,-0.43194 -1.36468,-0.43194 -0.41141,0 -1.09757,-0.18076 -1.5248,-0.40168 -0.87408,-0.45201 -1.33263,-1.64077 -0.76761,-1.98997 1.60823,-0.99394 14.18813,-1.12864 20.15368,-0.2158 1.47713,0.22603 1.8958,0.40796 2.44739,1.06349 1.02377,1.21668 0.83537,2.11892 -0.8963,4.29232 -0.92916,1.16618 -1.09509,2.27873 -0.33985,2.27873 0.6646,0 1.63613,-1.10077 3.06855,-3.47676 0.6703,-1.11185 1.51791,-2.21758 1.88357,-2.45717 0.82554,-0.54092 4.21203,-1.40877 6.38608,-1.63657 1.78156,-0.18667 1.51221,-0.33609 3.52245,1.95401 0.6442,0.73389 1.5545,0.59545 2.87687,-0.43752 1.81362,-1.4167 1.7182,-1.39853 6.52135,-1.24207 2.61156,0.0851 5.27466,0.32296 6.35,0.56723 3.10205,0.70464 3.91045,0.72449 6.25502,0.15358 4.60276,-1.1208 10.48072,-0.961 15.7054,0.42696 2.30584,0.61256 3.03682,0.69004 5.68854,0.60299 1.67349,-0.0549 5.3049,-0.10964 8.06979,-0.12156 4.47062,-0.0193 5.11774,0.0332 5.84609,0.47425 0.7503,0.45431 0.87238,0.4615 1.45521,0.0857 0.84782,-0.54664 2.38472,-0.80777 3.41818,-0.58079 1.06696,0.23434 1.60146,1.41838 1.6645,3.68724 0.053,1.90694 -0.40355,2.81643 -1.64786,3.28278 -0.44783,0.16785 -1.17143,0.43868 -1.60799,0.60186 -0.43657,0.16317 -0.79375,0.46603 -0.79375,0.67301 0,0.20698 0.64053,1.00168 1.4234,1.76601 2.80105,2.7347 3.49707,5.36406 2.00346,7.56849 -0.43826,0.64684 -0.86276,1.48027 -0.94333,1.85208 -0.26204,1.20931 -0.34477,1.34217 -0.98802,1.58674 -0.74159,0.28195 -1.10198,1.38417 -0.69886,2.13742 0.19569,0.36563 0.55422,0.52373 1.18772,0.52373 1.20354,0 1.45521,0.52898 1.45521,3.05869 0,2.16725 -0.68091,6.78882 -1.1254,7.63848 -0.24728,0.47268 -0.29137,0.4776 -0.59224,0.0661 -0.17879,-0.24451 -0.51166,-0.44456 -0.73972,-0.44456 -0.608,0 -1.47512,1.23268 -1.64744,2.34195 -0.3113,2.00393 -0.67972,2.85917 -1.83706,4.26456 -1.11822,1.35789 -1.99564,3.23053 -1.99564,4.25923 0,0.249 0.23196,0.7338 0.51546,1.07735 0.50954,0.61746 0.51377,0.61792 0.36897,0.0406 -0.10389,-0.4142 0.0525,-0.76038 0.5379,-1.19063 0.37642,-0.33364 1.26477,-1.71506 1.97412,-3.06983 l 1.28973,-2.46321 0.18177,1.77415 c 0.21348,2.08364 0.48826,2.69244 1.36585,3.0261 0.65157,0.24773 0.86213,0.88701 0.38855,1.1797 -0.4587,0.2835 -1.77663,-0.61072 -2.11927,-1.43793 -0.18367,-0.44342 -0.41746,-0.80622 -0.51953,-0.80622 -0.24236,0 -1.33772,2.19617 -1.33772,2.6821 0,0.20635 0.70503,0.99577 1.56673,1.75427 1.99382,1.75504 2.90465,3.54523 3.14871,6.18864 0.0986,1.06848 0.10396,5.7527 0.0118,10.40936 -0.15945,8.05738 -0.34074,9.98189 -1.15298,12.23925 -0.0714,0.19829 -0.89884,-0.45374 -2.04549,-1.61175 -1.45122,-1.4656 -2.471,-2.21581 -4.13911,-3.04497 -2.33442,-1.16037 -3.46078,-1.35821 -4.00426,-0.70336 -0.18115,0.21828 -0.71832,0.39687 -1.19371,0.39687 -1.09328,0 -2.13819,0.79699 -1.89065,1.44206 0.13197,0.34391 0.3521,0.42268 0.8394,0.30038 0.8795,-0.22075 3.78723,0.4729 5.39265,1.28643 1.58098,0.80114 2.84747,2.24267 4.15952,4.73438 0.81308,1.54411 0.99162,2.15143 0.96634,3.28716 -0.0606,2.72136 -1.26645,5.32271 -4.21842,9.10011 -2.60877,3.33825 -1.36109,3.92833 2.06622,0.9772 1.75365,-1.51001 2.30667,-1.57837 4.01331,-0.49604 1.58307,1.00395 1.68178,1.91542 0.36326,3.35418 -0.99948,1.09062 -1.3845,1.13878 -6.04231,0.7557 -1.9512,-0.16048 -3.40397,-0.0963 -6.14088,0.27145 -2.8084,0.37732 -3.73064,0.41532 -4.25717,0.17542 -0.36969,-0.16844 -0.67215,-0.41231 -0.67215,-0.54194 0,-0.12963 0.46232,-0.8168 1.02739,-1.52703 0.56506,-0.71023 1.25982,-1.70805 1.54392,-2.21737 0.28409,-0.50933 0.7445,-0.96862 1.02313,-1.02066 1.3065,-0.24402 1.46909,-0.96224 0.48308,-2.13404 -0.75506,-0.89734 -1.1671,-1.03684 -1.1671,-0.39513 0,0.66876 -0.63631,0.27635 -0.92605,-0.57109 -0.53124,-1.55383 -0.96323,-1.81863 -3.70416,-2.27059 -2.24185,-0.36965 -4.27474,-0.0734 -5.08983,0.74165 -0.63855,0.63856 -0.64222,0.66533 -0.16356,1.19424 1.17555,1.29897 3.35198,1.66115 5.2405,0.87208 1.15933,-0.4844 1.7224,-0.34579 2.94069,0.72388 1.17542,1.03203 1.18705,1.92028 0.045,3.4344 -1.88215,2.49526 -5.03945,3.06684 -7.97441,1.44363 -2.32038,-1.2833 -4.39106,-1.53986 -4.39106,-0.54406 0,0.56292 -1.62609,2.27298 -2.51425,2.64408 -0.87243,0.36452 -4.09435,0.66832 -5.15866,0.48641 z m 4.36563,-2.13936 c 0.29104,-0.38178 0.95268,-1.12245 1.47032,-1.64594 1.17429,-1.18757 2.65653,-3.3874 4.47424,-6.64034 1.79234,-3.20752 2.72863,-4.59266 4.14272,-6.1287 1.05477,-1.14573 1.67888,-2.43395 1.34228,-2.77055 -0.0788,-0.0788 -0.33214,0.19459 -0.56287,0.60763 -0.40469,0.72449 -0.41358,0.68346 -0.25159,-1.16225 0.22453,-2.55838 -0.17867,-3.24613 -1.90309,-3.24613 -1.59109,0 -2.37855,-0.44706 -4.93671,-2.80267 -3.30986,-3.04779 -7.77299,-4.98176 -10.37166,-4.49424 -1.64774,0.30911 -1.02754,0.80745 1.83386,1.47352 2.15106,0.50073 4.75629,2.03119 6.30491,3.7039 1.1115,1.20054 1.52875,1.91396 2.00853,3.43413 0.33306,1.05533 0.6669,2.59514 0.74186,3.4218 0.13296,1.46627 0.11265,1.52377 -0.83069,2.35204 -1.42364,1.24997 -2.18434,1.13887 -5.18191,-0.75676 -1.38244,-0.87426 -2.75166,-1.63597 -3.0427,-1.6927 -4.94198,-0.96332 -6.59259,-1.13397 -6.8554,-0.70873 -0.22835,0.36948 0.89905,1.22158 3.15123,2.38172 3.12322,1.60884 7.02001,5.20459 7.45041,6.87487 0.0877,0.34054 -0.0523,1.31903 -0.31134,2.17443 -0.38412,1.26863 -0.40892,1.62995 -0.13457,1.96052 0.29235,0.35227 0.20032,0.40526 -0.70383,0.40526 -0.57209,0 -1.27127,0.1748 -1.55375,0.38846 -0.7179,0.54299 -1.18136,0.50106 -2.80242,-0.25359 -3.16885,-1.47518 -5.42271,-0.34115 -3.34984,1.68546 1.50478,1.47121 4.94404,2.47126 7.75534,2.25507 1.32497,-0.10189 1.67501,-0.23687 2.11667,-0.81621 z m 2.10367,-5.44201 c 0.46981,-1.54512 0.66234,-2.52487 0.66814,-3.4001 0.009,-1.41915 0.50189,-2.61917 1.07491,-2.61917 0.26822,0 0.56115,0.1189 0.65097,0.26422 0.41235,0.6672 -1.61464,6.35037 -2.26496,6.35037 -0.19881,0 -0.24512,-0.21363 -0.12906,-0.59532 z m 5.24247,-10.2526 c 0.13813,-2.97327 0.36853,-4.00753 0.75642,-3.39562 0.4975,0.78483 0.0421,5.29815 -0.59535,5.89986 -0.20986,0.19811 -0.25442,-0.4948 -0.16107,-2.50424 z m 12.36455,14.91817 c 0.5825,-0.52625 1.0591,-1.06204 1.0591,-1.19062 0,-0.34013 -1.78804,-0.28644 -2.46479,0.074 -0.7401,0.39418 -1.22028,1.02239 -1.23097,1.61043 -0.0155,0.85116 1.45219,0.57629 2.63666,-0.49381 z m 10.95933,0.79623 c 0.54294,-0.20834 0.55817,-1.6545 0.0196,-1.86117 -0.2194,-0.0842 -0.69146,0.0386 -1.04902,0.27289 -0.35756,0.23428 -1.00446,0.42596 -1.43755,0.42596 -0.85862,0 -1.21303,0.33854 -0.98272,0.93872 0.1527,0.39794 2.5846,0.55557 3.44969,0.2236 z m -16.45473,-0.94106 c 0.25132,-0.12836 0.59037,-0.48267 0.75343,-0.78735 0.51777,-0.96747 -0.17815,-1.29568 -3.35459,-1.58211 -1.58559,-0.14298 -3.2996,-0.3723 -3.80893,-0.50961 -1.13135,-0.305 -1.35628,-0.30719 -1.81325,-0.0176 -0.65931,0.41778 0.18329,1.36044 1.95864,2.19123 2.48305,1.16196 4.84917,1.4284 6.2647,0.70545 z m 8.60502,-1.0151 c 0.69926,-1.02416 0.79949,-1.91374 0.18924,-1.67956 -0.53278,0.20445 -1.97518,2.31058 -1.97518,2.88408 0,0.4034 0.0588,0.40908 0.59531,0.0575 0.32742,-0.21456 0.86321,-0.78247 1.19063,-1.26203 z m -44.21172,-0.6471 c 1.43889,-0.65713 1.9682,-1.46481 1.40483,-2.14363 -0.44273,-0.53346 -3.213,-0.48193 -4.86185,0.0904 -1.49377,0.51853 -2.0235,1.13458 -1.58258,1.8405 0.79295,1.26955 2.562,1.34421 5.0396,0.2127 z m 16.63607,-0.9519 c 0.23905,-0.38679 -0.36973,-1.04674 -0.9656,-1.04674 -0.52232,0 -0.60149,0.213 -0.33617,0.9044 0.18065,0.47077 1.04067,0.56481 1.30177,0.14234 z m -33.21237,-0.6029 c 0.56237,-0.29085 0.65139,-0.50328 0.59425,-1.41803 -0.0995,-1.59324 0.40848,-1.90957 2.10116,-1.30838 0.72729,0.25831 1.38688,0.40513 1.46575,0.32626 0.49974,-0.49974 -1.96071,-3.49924 -3.58224,-4.36706 -0.50653,-0.27109 -0.57892,-0.24313 -0.57892,0.2236 0,0.6209 -0.38614,0.73157 -3.10499,0.88996 -1.90027,0.1107 -2.71585,0.45041 -2.71585,1.13124 0,0.84479 1.12668,3.25427 1.88383,4.0287 0.69428,0.71013 1.0187,0.843 2.05017,0.83972 0.67396,-0.002 1.52303,-0.15785 1.88684,-0.34601 z m 21.21833,-0.36105 c 0.8881,-0.85085 0.92843,-1.36202 0.18232,-2.31055 -0.79035,-1.00477 -2.00725,-0.86904 -2.68715,0.29973 -0.5707,0.98105 -0.41466,1.43824 0.75374,2.20847 0.96619,0.63693 0.86847,0.64796 1.75109,-0.19765 z m 32.49208,-0.0735 c 0,-0.38149 -0.96276,-0.82313 -1.41558,-0.64936 -0.21757,0.0835 -0.46058,0.32119 -0.54003,0.52822 -0.10995,0.28653 0.10629,0.37641 0.90558,0.37641 0.57752,0 1.05003,-0.11487 1.05003,-0.25527 z m -59.53125,-0.49045 c 0,-0.95879 -0.82583,-3.23082 -1.42936,-3.93246 -0.59994,-0.69747 -0.65099,-0.70814 -1.77697,-0.37141 -1.51348,0.45261 -3.47867,1.45413 -3.93702,2.00641 -0.49097,0.59158 -0.23384,0.73897 3.04231,1.74384 1.45521,0.44635 2.7649,0.85237 2.91042,0.90226 0.70275,0.24096 1.19062,0.0981 1.19062,-0.34864 z m 34.52623,-0.73048 c 1.30864,-0.2289 2.41998,-0.45681 2.46964,-0.50647 0.19311,-0.19311 0.36849,-2.24676 0.22403,-2.62322 -0.13338,-0.34759 -0.29616,-0.35182 -1.28992,-0.0335 -0.6255,0.20036 -1.94236,0.5065 -2.92637,0.68032 -2.53635,0.44802 -3.77542,1.59602 -2.78819,2.58325 0.42314,0.42314 1.45525,0.39911 4.31081,-0.10037 z m 30.70624,0.0327 c 0.50695,-0.21181 1.02326,-0.6583 1.14736,-0.99219 0.58714,-1.57965 -0.74666,-1.70165 -2.38278,-0.21794 -0.96049,0.87102 -1.09067,1.09645 -0.76163,1.31887 0.53845,0.36398 0.91472,0.34349 1.99705,-0.10874 z m 5.14995,-0.67928 c 0.20696,-0.38672 0.19673,-0.5231 -0.0392,-0.5231 -0.45135,0 -1.28692,0.80572 -1.28692,1.24094 0,0.50238 0.94765,-0.0106 1.32617,-0.71784 z m -2.51679,-0.91997 c 0,-0.57621 -0.14284,-1.06185 -0.33073,-1.12448 -0.23309,-0.0777 -0.33073,0.25429 -0.33073,1.12448 0,0.87018 0.0976,1.20217 0.33073,1.12447 0.18789,-0.0626 0.33073,-0.54827 0.33073,-1.12447 z m -44.43272,-0.25384 c 1.13937,-1.7389 -1.04736,-3.73452 -2.57614,-2.35099 -0.53344,0.48276 -0.63563,1.69456 -0.20996,2.48993 0.42809,0.79988 2.22984,0.71003 2.7861,-0.13894 z m 40.01929,-0.60563 c 0.15313,-1.07816 -1.80527,-1.41867 -2.60653,-0.4532 -0.54652,0.6585 0.17158,1.22035 1.44083,1.12733 0.89035,-0.0653 1.09613,-0.18426 1.1657,-0.67413 z m -45.61319,-0.3099 c 0.94758,-0.98906 0.80875,-1.596 -0.18607,-0.81348 -0.39762,0.31277 -0.84545,0.79757 -0.99517,1.07732 -0.43133,0.80594 0.31631,0.63895 1.18124,-0.26384 z m -25.44578,-0.34691 c 1.06742,-0.73957 0.8974,-0.99682 -0.66146,-1.00088 -1.72455,-0.005 -2.57968,-0.22214 -2.57968,-0.6566 0,-0.32883 0.42152,-0.52786 2.51354,-1.18683 1.55589,-0.4901 2.82576,-1.52051 2.7271,-2.21286 -0.0876,-0.6147 -0.32558,-0.67718 -4.51341,-1.18498 -1.46624,-0.17779 -2.60326,-0.52161 -3.98849,-1.20607 -2.21201,-1.09297 -2.55958,-1.1551 -2.55958,-0.45752 0,0.75048 0.77625,1.56435 2.25016,2.35923 1.28087,0.69076 1.32599,0.75525 1.45994,2.08685 0.15586,1.54939 0.73968,2.34504 2.59787,3.54045 1.20503,0.77522 1.5324,0.76562 2.75401,-0.0808 z m 26.59063,-1.94243 c 0.9095,-0.39133 1.65364,-0.8184 1.65364,-0.94905 0,-0.33618 -1.55367,-3.38689 -2.16819,-4.25735 -0.28252,-0.40018 -0.62262,-0.7276 -0.75578,-0.7276 -0.73022,0 -2.85563,6.2878 -2.50201,7.40194 0.16123,0.50801 0.19241,0.50481 1.14222,-0.11709 0.53706,-0.35164 1.72061,-0.95952 2.63012,-1.35085 z m 14.30999,0.83544 c 0.96876,-0.50096 1.42234,-1.42452 1.31928,-2.68623 -0.0684,-0.83756 -0.19826,-1.05662 -0.66565,-1.12313 -0.95533,-0.13594 -2.52331,2.68834 -2.10202,3.7862 0.19007,0.49533 0.52496,0.50069 1.44839,0.0231 z m 37.07063,-0.26945 c 0.25015,-0.30141 0.20253,-0.49132 -0.23219,-0.92604 -0.65243,-0.65243 -0.81693,-0.66899 -1.48849,-0.14982 -0.504,0.38964 -0.50193,0.40692 0.11103,0.92604 0.73918,0.62601 1.18037,0.66707 1.60965,0.14982 z m -59.93508,-0.046 c 0.53897,-0.20682 0.5343,-1.00423 -0.0107,-1.83608 -0.56677,-0.86498 -3.63385,-3.29499 -4.15885,-3.29499 -0.53681,0 -1.76189,1.61233 -1.76189,2.31882 0,0.42298 0.29999,0.64871 1.30638,0.98298 0.71851,0.23865 1.74691,0.784 2.28534,1.21189 0.97397,0.77402 1.5414,0.92374 2.33976,0.61738 z m 44.08032,-0.77609 c 1.62065,-1.11117 2.49397,-3.29658 1.31737,-3.29658 -0.83432,0 -3.69917,3.14366 -3.70318,4.06358 -0.002,0.36734 1.37847,-0.0763 2.38581,-0.767 z m -14.88206,0.0958 c -0.18686,-0.56057 -0.95333,-0.89751 -1.28565,-0.56518 -0.16595,0.16595 -0.22174,0.43116 -0.12396,0.58937 0.2439,0.39463 1.54179,0.37236 1.40961,-0.0242 z m 26.25359,0.16818 c 0,-0.079 -0.46733,-0.76362 -1.03852,-1.52136 -1.50233,-1.99299 -4.65023,-8.76209 -12.51422,-26.91 -4.88828,-11.28078 -7.01997,-15.77048 -7.81885,-16.46781 -0.72117,-0.62949 -2.31283,-0.82039 -2.79767,-0.33554 -0.54917,0.54917 -0.30078,1.32758 2.47118,7.74419 1.21081,2.80283 2.12769,5.16983 2.03751,5.26001 -0.0902,0.0902 -2.69836,0.0293 -5.79597,-0.1352 -9.80728,-0.52094 -12.93515,-0.36201 -12.12346,0.61602 0.38582,0.46487 1.74383,0.60575 10.32792,1.07142 4.00182,0.21709 7.54328,0.45637 7.86991,0.53174 0.39539,0.0912 0.85028,0.64499 1.36111,1.65694 1.09886,2.17683 10.25373,23.59792 10.45207,24.45635 0.10281,0.44496 -0.0362,1.2497 -0.36577,2.11666 -0.2924,0.76932 -0.5317,1.54759 -0.53177,1.72949 -1e-4,0.25081 1.02285,0.33073 4.2332,0.33073 2.32833,0 4.23333,-0.0646 4.23333,-0.14364 z m -64.76778,-2.66018 c 0.51765,-3.60873 10.26964,-26.90486 11.84029,-28.28476 0.55962,-0.49165 0.97947,-0.52916 5.92321,-0.52916 4.69925,0 5.33082,-0.0502 5.40579,-0.42973 0.1296,-0.65606 -0.50595,-0.77942 -5.29223,-1.02721 -2.4338,-0.126 -4.59444,-0.32599 -4.80142,-0.44441 -0.46321,-0.26503 -0.66269,0.24738 7.03633,-18.0747 6.39376,-15.21582 8.22968,-19.31458 8.65141,-19.31458 0.42459,0 1.5448,2.39446 4.64181,9.92188 3.61664,8.79044 4.68442,11.0608 5.45628,11.60143 0.65014,0.45538 1.52863,0.5458 2.57648,0.2652 0.50796,-0.13602 0.58506,-0.28381 0.44311,-0.84939 -0.0945,-0.3766 -2.10736,-5.2122 -4.47298,-10.74578 -2.36562,-5.53357 -4.57788,-10.77542 -4.91613,-11.64855 -0.33826,-0.87312 -0.69042,-1.67552 -0.78258,-1.78309 -0.0922,-0.10758 -1.06874,0.33193 -2.17017,0.97668 -3.33906,1.95461 -2.36275,-0.0626 -19.72075,40.7464 -10.06704,23.6678 -11.25334,26.24241 -13.49436,29.28661 -0.62795,0.85301 -1.14172,1.61476 -1.14172,1.69278 0,0.078 1.04044,0.10745 2.31209,0.0654 l 2.3121,-0.0764 z m 22.68973,0.96909 c 0.39826,-0.74416 0.33552,-1.92832 -0.13799,-2.60435 -0.52389,-0.74795 -0.69188,-0.73829 -1.68449,0.0969 -0.8713,0.73315 -1.11875,2.07949 -0.49655,2.70169 0.51703,0.51702 2.00507,0.39236 2.31903,-0.19428 z m 7.68512,-0.34812 c 0.54187,-0.88873 0.70567,-2.05052 0.28909,-2.05052 -0.42155,0 -1.87949,1.8543 -1.87949,2.39046 0,0.85046 0.99416,0.63796 1.5904,-0.33994 z m -17.50005,-2.69919 c 0.43416,-1.19987 0.87058,-2.61438 0.96981,-3.14336 0.16585,-0.88405 0.11966,-0.9849 -0.57144,-1.24766 -0.60119,-0.22857 -1.08118,-0.17776 -2.39501,0.25354 -2.16399,0.71039 -4.31871,2.04414 -4.31871,2.67325 0,0.2891 0.67308,0.99341 1.65365,1.73036 0.9095,0.68355 1.93504,1.59126 2.27897,2.01715 0.58795,0.72806 0.65424,0.74816 1.10933,0.33631 0.26621,-0.24092 0.83924,-1.41973 1.2734,-2.61959 z m 53.0946,2.0694 -0.1802,-0.96052 1.00479,0.82823 c 1.82091,1.50095 3.148,0.94216 3.11423,-1.31131 -0.0218,-1.45508 -1.1259,-3.41671 -1.92307,-3.41671 -0.61956,0 -1.51284,0.98944 -1.73274,1.91927 -0.10021,0.42376 -0.5562,0.9773 -1.08978,1.32292 -1.06742,0.69139 -1.14348,1.12029 -0.34873,1.96628 0.89479,0.95245 1.37249,0.80852 1.1555,-0.34816 z m -37.9787,-0.3624 c 0.29104,-0.29104 0.52917,-0.77645 0.52917,-1.07868 0,-0.79678 -1.32169,-1.99543 -2.63366,-2.38851 -1.03186,-0.30916 -1.16765,-0.29476 -1.49944,0.15899 -0.20065,0.27441 -0.36482,1.01195 -0.36482,1.63898 0,1.54829 0.66505,2.19839 2.24896,2.19839 0.83785,0 1.34741,-0.15679 1.71979,-0.52917 z m -32.01168,-2.18281 c 0.28836,-0.47294 0.52473,-1.10658 0.52527,-1.40807 0.001,-0.70079 -0.78487,-3.0237 -1.02329,-3.0237 -0.0994,0 -0.49422,0.35719 -0.8773,0.79375 -0.38308,0.43656 -0.94091,0.79375 -1.23963,0.79375 -0.95673,0 -3.27554,-2.14788 -4.08665,-3.78539 -0.51194,-1.03355 -0.9425,-1.55464 -1.37402,-1.66294 -0.78166,-0.19619 -1.1877,0.0383 -1.1877,0.68583 0,0.79635 -0.49096,0.89269 -1.97634,0.38779 -1.807,-0.61422 -2.25699,-0.43404 -2.25699,0.90371 0,1.4184 1.46588,4.21909 2.53512,4.84356 0.73388,0.42861 8.36945,2.21114 9.83804,2.2967 0.41295,0.024 0.76216,-0.23236 1.12349,-0.82499 z m 49.1264,0.28461 c 1.00817,-0.94713 0.70855,-3.38384 -0.5439,-4.42328 -0.4902,-0.40683 -1.09017,-0.12339 -2.57131,1.21473 -1.18439,1.07002 -1.31429,1.85108 -0.43961,2.64325 1.41192,1.27873 2.59512,1.46689 3.55482,0.5653 z m 18.59998,-1.06274 c 0.005,-0.58281 -0.49241,-0.88176 -0.85849,-0.51568 -0.20664,0.20664 -0.19507,0.48964 0.0412,1.00825 0.26281,0.57681 0.37696,0.64438 0.57085,0.33791 0.13329,-0.21069 0.24418,-0.58441 0.24641,-0.83048 z m -42.78451,0.0751 c 0.2682,-0.25863 -1.12589,-2.92334 -1.72759,-3.30218 -0.64674,-0.40719 -1.31449,0.0613 -1.68763,1.18409 -0.36216,1.08974 -0.12333,1.84858 0.72305,2.29733 0.62754,0.33272 2.27501,0.22304 2.69217,-0.17924 z m -15.41004,-2.35266 c 1.67432,-1.62823 1.99932,-2.52954 1.02377,-2.83917 -0.72785,-0.23101 -1.8752,0.85876 -2.74785,2.60994 -0.62823,1.2607 -0.66028,1.76357 -0.11239,1.76357 0.14228,0 0.96869,-0.69045 1.83647,-1.53434 z m 23.0877,0.79982 c 0.56219,-0.62121 0.87825,-2.57298 0.45865,-2.83231 -0.44507,-0.27507 -2.60907,0.60726 -2.9216,1.19122 -0.35295,0.65949 -0.32961,1.40798 0.0559,1.79352 0.47518,0.47518 1.92195,0.38356 2.40702,-0.15243 z m -4.36493,-0.37673 c 0.83878,-0.83878 -0.002,-2.72668 -1.57811,-3.54147 -0.71546,-0.36998 -0.85146,-0.36889 -1.43185,0.0114 -0.90629,0.59383 -0.90198,2.28803 0.008,3.19815 0.71522,0.71522 2.42902,0.90473 3.00182,0.33193 z m 39.20094,-0.26156 c 0.70748,-0.75939 0.68154,-1.21964 -0.0885,-1.5705 -1.243,-0.56635 -2.38146,0.88635 -1.43576,1.83206 0.46701,0.46701 0.91753,0.3897 1.52427,-0.26156 z m -22.81965,-0.4816 c 1.37386,-0.78792 2.72162,-2.37343 2.72162,-3.2017 0,-0.6363 -0.68373,-1.09989 -1.32296,-0.897 -0.78261,0.24839 -4.71306,3.24976 -5.02913,3.84035 -0.46713,0.87285 -0.29545,1.05449 0.99428,1.05194 0.90834,-0.002 1.63921,-0.22181 2.63619,-0.79359 z m -30.38301,-1.4668 c 0.57613,-0.48478 0.82547,-0.92723 0.82547,-1.46481 0,-0.8455 -0.7943,-1.81376 -1.52136,-1.85454 -0.25466,-0.0143 0.0728,-0.17137 0.72761,-0.34907 l 1.19062,-0.3231 -0.84676,-0.44468 c -1.84226,-0.96747 -4.34145,-0.29689 -4.63599,1.24394 -0.22521,1.1781 0.16364,1.42557 2.55265,1.62458 l 2.22957,0.18572 -1.50182,1.43878 c -1.2339,1.1821 -1.35407,1.36732 -0.67364,1.03827 0.4555,-0.22028 1.19964,-0.71307 1.65365,-1.09509 z m -12.15871,0.83127 c 0.54754,-0.65974 0.65384,-2.20508 0.19939,-2.89865 -0.46753,-0.71355 -2.42591,-1.75516 -3.29994,-1.75516 -0.90764,0 -1.51259,1.15541 -1.22159,2.33315 0.34802,1.40853 0.99961,1.28763 1.16673,-0.21649 0.1433,-1.28968 0.36258,-1.19722 0.62748,0.26459 0.36929,2.03784 1.71712,3.24952 2.52793,2.27256 z m 38.49591,-0.67092 c 1.48386,-1.02092 4.1216,-3.52243 4.1216,-3.90873 0,-0.3977 -0.92419,-0.68156 -1.56098,-0.47945 -0.27646,0.0877 -0.8022,0.79218 -1.16831,1.56541 -0.39192,0.82777 -1.11003,1.75784 -1.7463,2.26178 -0.9602,0.76049 -1.36258,1.3406 -0.92989,1.3406 0.0829,0 0.66067,-0.35083 1.28388,-0.77961 z m -22.60132,-1.30138 c 0,-0.54485 -0.95475,-1.88776 -1.34212,-1.88776 -0.3396,0 -0.30717,0.89781 0.0617,1.70734 0.35994,0.78999 1.28044,0.9197 1.28044,0.18042 z m 12.973,0.2244 c 0.72842,-0.38984 1.1731,-2.23435 0.77207,-3.20254 -0.18593,-0.44887 -0.51543,-0.76171 -0.80228,-0.76171 -1.29375,0 -3.10531,3.6237 -2.02872,4.05811 0.57028,0.23011 1.53583,0.1861 2.05893,-0.0939 z m 5.12792,-0.44149 c 0.98385,-0.98385 0.89194,-2.46832 -0.17593,-2.84159 -1.39177,-0.4865 -2.76799,1.31532 -2.35949,3.08915 0.17286,0.75058 1.68492,0.60295 2.53542,-0.24756 z m -12.333,-0.13609 c 0.17463,-0.17462 0.3175,-0.57013 0.3175,-0.87891 0,-0.78695 -0.79562,-3.03692 -1.0739,-3.03692 -0.77999,0 -1.04844,2.67141 -0.36631,3.64529 0.46931,0.67003 0.67392,0.71933 1.12271,0.27054 z m 16.57437,-0.27054 c 0.48824,-0.69705 0.54395,-2.34906 0.0944,-2.79863 -0.3968,-0.3968 -1.44347,-0.41438 -1.68211,-0.0283 -0.27439,0.44397 -0.18566,2.26319 0.14006,2.87181 0.37833,0.70691 0.93313,0.6897 1.44768,-0.0449 z m 15.07461,0.42744 c 0.55552,-0.21317 0.51989,-1.04568 -0.10352,-2.41909 -0.36075,-0.79474 -0.67052,-1.12448 -1.05641,-1.12448 -0.62377,0 -1.59403,1.39869 -1.59556,2.30011 -0.002,1.01445 1.53965,1.71002 2.75549,1.24346 z m -59.01485,-1.45328 c 0.0902,-0.45107 0.548,-1.30494 1.01731,-1.89749 l 0.85328,-1.07735 -1.15181,-0.94679 c -0.63349,-0.52073 -2.09599,-1.75045 -3.24999,-2.73272 -1.154,-0.98226 -2.28623,-1.78594 -2.51606,-1.78594 -0.22983,0 -0.99618,0.57831 -1.70299,1.28512 -1.45643,1.45643 -1.62226,2.25972 -0.75885,3.67582 0.43322,0.71053 0.68765,0.8599 1.46476,0.8599 1.21697,0 2.90632,0.86895 3.47867,1.78934 0.78577,1.26358 1.21086,1.65024 1.81428,1.65024 0.44517,0 0.62708,-0.19855 0.7514,-0.82013 z m 79.65026,-0.50279 c -0.013,-0.3638 -0.0726,-0.84005 -0.13229,-1.05833 -0.0741,-0.27095 0.12307,-0.42351 0.62146,-0.48083 0.47533,-0.0547 0.85652,-0.33159 1.09261,-0.79375 0.51367,-1.00552 0.76023,-2.32355 0.55539,-2.96893 -0.15596,-0.4914 -0.35198,-0.54332 -1.80565,-0.47826 -0.89689,0.0401 -1.78687,-0.0237 -1.97775,-0.14187 -0.56735,-0.35123 -0.87748,-1.4578 -0.56972,-2.03285 0.33341,-0.62298 1.90361,-0.68521 2.90114,-0.11497 1.02511,0.58601 1.10872,0.49539 0.92198,-0.99922 -0.13409,-1.07322 -0.0467,-1.75948 0.37784,-2.96739 0.30375,-0.86421 0.55227,-1.66472 0.55227,-1.77891 0,-0.55695 -1.06248,-0.0923 -1.99683,0.87318 -2.33801,2.41603 -2.80701,2.65881 -5.85766,3.03223 -2.72191,0.33318 -3.80261,0.77612 -3.41676,1.40042 0.0933,0.15092 0.57195,0.20708 1.07259,0.12584 1.82633,-0.29638 4.4951,1.68942 6.19999,4.61333 0.44546,0.76399 0.76339,1.38906 0.7065,1.38906 -0.0569,0 -0.84744,-0.7748 -1.75678,-1.72179 -1.9835,-2.06561 -4.02729,-3.18379 -5.36169,-2.93345 -1.28073,0.24027 -3.24245,1.62725 -4.43448,3.13528 -1.48749,1.88181 -1.41082,2.04913 0.93888,2.04913 1.08281,0 2.04121,-0.11723 2.12977,-0.26052 0.0885,-0.14328 0.24726,-0.76836 0.35269,-1.38906 0.15329,-0.90257 0.31253,-1.14586 0.79521,-1.215 0.84222,-0.12065 1.26249,0.31321 1.59937,1.65106 0.49664,1.97234 3.31183,3.92945 5.45732,3.79392 0.94206,-0.0595 1.05573,-0.13953 1.0346,-0.72832 z m -55.19172,-0.31764 c 0.1848,-1.60141 -1.23997,-2.47731 -1.85039,-1.13756 -0.46297,1.01609 0.0913,2.04509 1.04256,1.93558 0.56539,-0.0651 0.74355,-0.24108 0.80783,-0.79802 z m 6.96453,-0.16619 c 0.70687,-0.6316 0.84175,-0.94498 0.86407,-2.00762 0.0215,-1.02272 -0.0909,-1.35422 -0.59818,-1.76513 -0.62402,-0.50543 -2.02699,-0.67062 -2.57692,-0.30343 -1.29494,0.86465 -1.12645,3.84616 0.25516,4.51514 0.87716,0.42473 1.15581,0.36524 2.05587,-0.43896 z m -23.32424,-1.62229 c 0.29399,-0.57629 0.53454,-1.18612 0.53454,-1.35519 0,-0.16907 -1.40772,-1.70079 -3.12826,-3.40382 -3.08496,-3.05356 -4.54466,-5.14006 -4.54466,-6.49612 0,-0.68947 1.81976,-4.49249 2.95111,-6.16739 2.35674,-3.48902 5.08296,-5.90367 7.82286,-6.9288 0.84728,-0.317 2.63444,-0.65981 4.10633,-0.78766 2.70658,-0.2351 4.01327,-0.7402 3.74222,-1.44655 -0.23867,-0.62197 -1.41983,-0.71301 -3.81806,-0.29426 -6.1246,1.06939 -9.67364,2.95764 -13.6202,7.24656 -1.299,1.41169 -1.299,1.41169 -2.89527,1.32292 l -1.59628,-0.0888 v 2.28801 c 0,1.84106 0.094,2.39176 0.48127,2.81912 0.34456,0.38024 0.54606,1.22182 0.70936,2.96266 0.2525,2.69181 0.71512,3.56688 1.77823,3.36365 0.81873,-0.15651 1.35631,0.30316 1.55857,1.3327 0.22383,1.13937 -0.18049,1.12668 -2.44915,-0.0769 -1.7263,-0.91582 -2.40328,-0.93163 -2.06428,-0.0482 0.36828,0.95973 5.29323,4.15997 6.4019,4.15997 0.89008,0 1.38931,0.28694 1.38931,0.79854 0,0.46723 1.39478,1.84729 1.86701,1.84729 0.13139,0 0.47945,-0.47151 0.77345,-1.04779 z m 47.92609,0.0206 c 1.03656,-1.03656 1.2325,-1.75162 0.86044,-3.13998 -0.24543,-0.91582 -0.72038,-0.72453 -2.18794,0.88122 -0.9586,1.04886 -1.34947,1.69387 -1.34947,2.22691 0,1.39168 1.30165,1.40717 2.67697,0.0318 z m -36.94467,-1.85627 c 0.33262,-1.76006 1.01852,-2.50113 3.54256,-3.82748 2.49688,-1.31207 4.75707,-2.0709 5.61014,-1.88354 1.50655,0.3309 1.67067,-1.35166 0.38764,-3.97407 -0.78704,-1.60866 -1.44241,-1.97912 -3.52936,-1.99506 -0.82989,-0.006 -2.02843,-0.11188 -2.66342,-0.23455 -0.95679,-0.18483 -1.23671,-0.14082 -1.63448,0.25695 -0.62358,0.62357 -2.09413,3.69599 -3.98388,8.3235 -1.64927,4.03863 -1.64885,4.11263 0.026,4.59172 1.67361,0.47873 1.94548,0.32644 2.2448,-1.25747 z m 2.59891,0.93992 c 0.51322,-0.78328 2.78335,-2.25412 3.62664,-2.34973 0.52339,-0.0593 0.6642,0.0704 0.78287,0.72139 0.21116,1.15843 1.0036,1.0343 1.94461,-0.3046 0.42457,-0.60409 0.6911,-1.22917 0.59228,-1.38906 -0.22521,-0.3644 -4.08996,-0.38856 -5.02926,-0.0314 -0.37506,0.1426 -0.81582,0.55312 -0.97946,0.91226 -0.19072,0.41859 -0.68736,0.77666 -1.38353,0.9975 -1.0756,0.3412 -1.43125,0.87501 -1.12125,1.68288 0.22551,0.58767 1.11419,0.45202 1.5671,-0.2392 z m 13.39362,-0.031 c 0.85938,-0.4444 1.07726,-0.87887 1.07726,-2.14809 0,-1.66909 -1.65467,-2.57949 -2.49854,-1.3747 -0.49095,0.70093 -0.55482,3.13194 -0.0944,3.59238 0.40907,0.40907 0.60765,0.39995 1.51566,-0.0696 z m 6.37182,-0.47281 c 0.59644,-0.97822 0.67217,-1.79879 0.20877,-2.26218 -1.15455,-1.15455 -2.643,1.01619 -1.78986,2.61031 0.40332,0.7536 0.98783,0.6249 1.58109,-0.34813 z m 11.65265,-0.63932 c 0.59056,-0.53353 1.37913,-1.49118 1.7524,-2.12811 l 0.67866,-1.15804 -0.59559,-1.77451 c -0.68112,-2.02932 -2.60852,-5.99831 -2.81339,-5.79344 -0.0753,0.0753 -0.15925,0.89126 -0.18663,1.81332 -0.0687,2.31292 -1.20642,4.79483 -2.60183,5.67572 -0.83875,0.52948 -1.01,0.78621 -1.01,1.51419 0,0.94044 0.58663,1.64441 1.98438,2.38128 1.17753,0.62078 1.60836,0.53894 2.792,-0.53041 z m 13.58385,-0.24221 c 0.29912,-0.77949 0.16272,-1.35401 -0.48822,-2.05639 -0.81541,-0.87984 -1.20326,-0.88956 -1.20326,-0.0301 0,1.65223 1.26116,3.20794 1.69148,2.08653 z m -27.71872,-1.4028 c 0.63182,-1.26729 -0.75359,-3.21039 -2.00564,-2.81301 -0.65548,0.20805 -0.69419,0.92152 -0.11218,2.06778 0.86528,1.70413 1.52417,1.93598 2.11782,0.74523 z m 7.61706,0.0732 c 0.23018,-0.0883 0.41851,-0.44324 0.41851,-0.78871 0,-0.79671 -0.93607,-1.07148 -2.21374,-0.64981 -1.25036,0.41266 -1.67088,0.93933 -1.04207,1.30514 0.52734,0.30678 2.18265,0.3846 2.8373,0.13338 z m -36.2143,-1.97985 c 1.03789,-2.06097 5.6656,-12.42353 7.15629,-16.02466 0.54617,-1.31942 0.84296,-2.3722 0.70705,-2.50811 -0.5749,-0.5749 -5.10735,0.84852 -6.94837,2.18215 -1.01233,0.73333 -1.09722,0.88224 -0.93784,1.64505 0.36973,1.76952 0.44982,4.85934 0.15439,5.95648 -0.16734,0.62147 -0.72227,1.59264 -1.23318,2.15815 -1.08002,1.19545 -3.29023,2.37962 -4.45237,2.38544 -2.06263,0.0104 -1.89627,1.16786 0.48073,3.34495 1.31111,1.20085 3.54502,2.70232 4.06581,2.73275 0.0345,0.002 0.48792,-0.84047 1.00749,-1.8722 z m 19.62112,-0.43923 c 0.64167,-1.00836 0.89752,-1.15833 1.72026,-1.00833 0.53473,0.0975 0.68027,0.0378 0.57521,-0.23603 -0.0774,-0.2016 0.0552,-0.66542 0.29453,-1.03072 0.51164,-0.78085 0.84811,-3.98121 0.97332,-9.25769 0.10204,-4.29982 0.31155,-3.95602 -3.61189,-5.92702 -2.69372,-1.35323 -4.37099,-1.99878 -4.37099,-1.68232 0,0.11833 0.93045,1.05529 2.06765,2.08213 3.89537,3.51731 5.076,7.45607 3.76796,12.57046 -0.64934,2.53887 -1.18991,3.58653 -2.01182,3.89902 -0.62272,0.23676 -0.84358,0.77053 -0.4724,1.14171 0.32469,0.32469 0.60178,0.1817 1.06817,-0.55121 z m 13.51517,0.44322 c 1.08148,-0.377 1.75648,-1.39315 1.38568,-2.086 -0.39823,-0.74409 -1.32186,-1.31887 -1.82213,-1.13391 -0.9983,0.36908 -2.41703,1.49076 -2.41703,1.91094 0,0.61357 1.00914,1.45819 1.87875,1.57246 0.0874,0.0115 0.52605,-0.10708 0.97473,-0.26349 z m -52.50344,-1.97736 c 1.36306,-1.32378 1.29257,-1.87641 -0.68174,-5.34507 -1.56406,-2.74788 -2.11814,-2.60339 -2.08409,0.54346 0.0293,2.70823 0.87846,5.74039 1.6076,5.74039 0.10538,0 0.62659,-0.42245 1.15823,-0.93878 z m 48.45272,0.68492 c 0.20108,-0.32537 -1.41923,-2.1168 -2.46913,-2.72989 -0.78095,-0.45603 -0.81364,-0.45449 -1.08419,0.051 -0.41629,0.77785 0.1393,1.74804 1.27524,2.22684 1.78159,0.75094 2.05928,0.80604 2.27808,0.45202 z m 30.94408,-0.63032 c 0.75397,-0.82044 0.96221,-0.8954 2.8888,-1.03987 1.46022,-0.1095 2.4946,-0.36037 3.48621,-0.84553 1.64186,-0.80328 4.20846,-3.10565 4.03793,-3.62222 -0.17714,-0.53664 -2.90956,-0.6088 -3.88828,-0.10268 -0.59223,0.30625 -0.83902,0.66198 -0.97258,1.40191 -0.28629,1.58601 -0.55706,1.91757 -1.56593,1.91757 -0.6978,0 -1.04165,-0.17967 -1.48096,-0.77386 -0.31468,-0.42563 -0.85302,-0.84436 -1.19631,-0.93052 -0.81284,-0.20401 -2.29605,0.42523 -2.84301,1.20614 -0.73687,1.05202 -0.4379,3.67324 0.41896,3.67324 0.16645,0 0.66828,-0.39788 1.11517,-0.88418 z m -21.70664,-1.27545 c 0.24443,-0.69502 0.10029,-1.63799 -0.35741,-2.33828 -0.33788,-0.51698 -0.98285,-0.13766 -1.79581,1.05614 -0.71565,1.05091 -0.77648,2.25492 -0.13229,2.61841 0.62383,0.352 1.96821,-0.43402 2.28551,-1.33627 z m 17.13339,-0.42005 c 3.14936,-3.28444 6.61634,-7.63598 6.95641,-8.73125 0.15756,-0.50749 0.0876,-0.59532 -0.47416,-0.59532 -0.88255,0 -1.97616,0.9643 -4.34023,3.82703 -2.36742,2.86679 -2.79748,3.15698 -3.86242,2.60628 -0.74657,-0.38607 -0.76396,-0.44141 -0.63676,-2.02614 0.165,-2.0555 1.05022,-4.12821 2.54892,-5.96821 0.72121,-0.88546 0.97704,-1.35164 0.66793,-1.21714 -0.27554,0.1199 -0.93712,0.26977 -1.47016,0.33306 -1.12345,0.13338 -1.38735,-0.19319 -1.61758,-2.00173 -0.33114,-2.60128 -3.87209,-6.85716 -6.87406,-8.26195 -3.61786,-1.693 -6.19245,-1.65703 -12.03933,0.1682 -1.67216,0.522 -3.82635,1.02711 -4.78708,1.12245 -1.57213,0.15603 -1.77094,0.24216 -1.9883,0.86141 -0.19106,0.54433 -0.11985,0.85261 0.34094,1.47586 0.45495,0.61535 0.6392,1.39089 0.84168,3.54282 0.24099,2.56125 0.31429,2.80532 1.04221,3.47017 0.43064,0.39333 0.78299,0.90045 0.78299,1.12694 0,0.22648 0.13727,0.41179 0.30505,0.41179 0.30608,0 0.19342,-4.35713 -0.1847,-7.14375 l -0.16156,-1.19063 2.31453,-1.31265 c 3.19066,-1.80953 4.56846,-2.24024 7.19945,-2.25058 4.66838,-0.0184 7.96826,1.43348 10.22459,4.49848 0.65485,0.88956 1.31221,2.05507 1.46079,2.59002 0.48437,1.74395 0.33472,7.12001 -0.26157,9.39659 -0.56496,2.15695 -0.50935,2.53749 0.50499,3.45545 0.30167,0.27301 0.61721,0.92652 0.70121,1.45225 0.29451,1.84343 0.39973,2.14648 0.74531,2.14648 0.19163,0 1.11904,-0.80367 2.06091,-1.78593 z m -24.53565,-0.8802 c 1.27762,-1.51836 0.56554,-3.1547 -1.37281,-3.1547 -2.10077,0 -2.8359,1.55586 -1.49057,3.1547 0.46693,0.55491 0.92269,0.81405 1.43169,0.81405 0.50901,0 0.96477,-0.25914 1.43169,-0.81405 z m 4.3137,-0.74826 c 1.06185,-1.57569 0.68865,-2.67102 -0.91006,-2.67102 -0.71603,0 -0.93126,0.13535 -1.15696,0.7276 -0.48693,1.27772 0.16522,3.09042 1.0505,2.91993 0.22654,-0.0436 0.68398,-0.48306 1.01652,-0.97651 z m 5.22866,0.5234 c 0.21915,-0.69049 -0.45965,-2.23363 -1.21539,-2.76297 -0.73109,-0.51208 -1.55698,-0.56555 -1.55558,-0.10072 0.002,0.69674 1.91317,3.37343 2.40855,3.37343 0.11035,0 0.27344,-0.22938 0.36242,-0.50974 z m -45.35158,-0.95474 c 2.95655,-1.4982 4.5672,-3.68969 4.59541,-6.25263 0.0136,-1.23605 -0.0962,-1.61944 -0.62493,-2.18281 -0.63171,-0.67305 -1.60753,-0.93054 -1.60753,-0.42418 0,0.14257 0.19358,0.74303 0.43018,1.33435 0.94996,2.37418 -0.27664,5.0169 -3.05423,6.58035 -2.63808,1.48493 -2.41288,2.29993 0.2611,0.94492 z m 25.48585,-0.17363 c 0.33901,-0.95893 0.002,-2.06605 -0.62905,-2.06605 -0.67521,0 -1.15295,0.92691 -0.93183,1.80793 0.31625,1.26004 1.1575,1.39916 1.56088,0.25812 z m -36.35207,-0.17533 c 0,-0.12426 -0.64159,-1.64231 -1.42576,-3.37343 -1.71674,-3.78987 -2.58672,-6.47788 -3.3397,-10.31876 -0.85078,-4.33976 -1.33387,-6.13696 -1.74028,-6.47425 -1.85213,-1.53712 -0.20474,10.72397 2.11779,15.76218 0.85793,1.86109 4.38795,5.40423 4.38795,4.40426 z m 42.05822,-0.42282 c 0.53266,-0.64182 0.0798,-1.51198 -0.73752,-1.41714 -0.78562,0.0912 -1.07068,0.80702 -0.56431,1.41716 0.40623,0.48948 0.89558,0.48948 1.30183,-2e-5 z m -40.13185,-0.7403 c 0.0651,-0.1819 0.0586,-1.47566 -0.0145,-2.87501 -0.1114,-2.1334 -0.0372,-2.85914 0.45929,-4.49381 0.80287,-2.64327 0.75902,-3.42147 -0.29039,-5.15297 -1.188,-1.9602 -1.88073,-2.1333 -3.06316,-0.76542 -0.48369,0.55954 -1.18233,1.63645 -1.55255,2.39314 l -0.67311,1.37581 0.67501,2.01082 c 1.09783,3.27039 3.49676,7.83817 4.11649,7.83817 0.12348,0 0.27779,-0.14883 0.34289,-0.33073 z m 8.48497,-0.4917 c 1.14026,-0.75527 2.55325,-2.62229 2.55325,-3.37368 0,-0.17223 -0.29278,-0.44655 -0.65062,-0.60959 -0.52394,-0.23872 -0.78626,-0.20757 -1.34722,0.15998 -0.94342,0.61816 -2.71628,4.64572 -2.04496,4.64572 0.13635,0 0.80664,-0.37009 1.48955,-0.82243 z m 70.0544,-1.55882 c 0.64919,-1.95984 1.40387,-3.5497 2.12063,-4.46745 0.56781,-0.72704 0.65707,-1.88255 0.14543,-1.88255 -0.43844,0 -1.43551,1.07394 -2.57925,2.77813 -0.48833,0.7276 -1.38696,1.85869 -1.99695,2.51354 -0.60999,0.65484 -1.15072,1.42875 -1.20161,1.71979 -0.0792,0.45291 0.0737,0.54109 1.06107,0.61195 0.89585,0.0643 1.18486,0.20229 1.29348,0.61768 0.18566,0.70994 0.42537,0.3182 1.1572,-1.89109 z m -6.7729,-1.59709 c 2.01083,-3.02472 2.12261,-4.22374 0.39378,-4.22374 -1.0323,0 -2.08636,0.93438 -2.81197,2.49267 -0.67114,1.44131 -0.788,2.61593 -0.3697,3.71613 0.25316,0.66587 0.28164,0.6736 0.92589,0.25148 0.36557,-0.23953 1.20347,-1.24598 1.862,-2.23654 z m 11.76758,1.61833 c 0.55243,-0.15918 0.65001,-0.33208 0.59199,-1.049 -0.0793,-0.97945 -0.87831,-2.67465 -1.50645,-3.19596 -0.36105,-0.29964 -0.52184,-0.25992 -1.08342,0.26765 -0.84613,0.79491 -2.0763,3.29971 -1.8764,3.82064 0.11426,0.29774 0.54462,0.39327 1.68317,0.37364 0.84131,-0.0145 1.82731,-0.11214 2.19111,-0.21697 z m -18.76537,-1.53578 c 0.76869,-2.71915 0.26031,-6.35309 -1.25552,-8.97456 -0.79239,-1.37036 -2.8442,-3.30969 -4.27266,-4.03843 -1.44271,-0.73602 -1.68088,-0.70804 -1.47981,0.17388 0.57697,2.5307 5.9841,14.51473 6.4258,14.24174 0.12373,-0.0765 0.38572,-0.70766 0.58219,-1.40263 z M 196.8192,284.4681 c -0.14295,-1.48775 -2.9401,-7.47062 -3.89675,-8.33482 -0.71614,-0.64693 -1.22561,-0.38212 -2.0635,1.07258 -0.81795,1.42007 -1.17773,2.85569 -1.17773,4.6994 0,1.7965 0.19741,2.01216 1.84735,2.01806 1.29883,0.005 2.69274,0.52067 3.5409,1.31087 0.3219,0.29989 0.87563,0.54526 1.23051,0.54526 0.61408,0 0.63915,-0.0633 0.51922,-1.31135 z m -20.23162,0.27624 c 0.2193,-0.2193 -0.13748,-0.70998 -1.36683,-1.87979 -0.91497,-0.87066 -1.87255,-1.58302 -2.12794,-1.58302 -0.70888,0 -2.1188,1.72529 -2.5253,3.09014 -0.14302,0.48018 -0.0481,0.59798 0.56776,0.70451 1.25761,0.21755 5.13916,-0.0187 5.45231,-0.33184 z m -27.3347,-0.84937 c 0,-0.59082 -0.74461,-0.66809 -0.96265,-0.0999 -0.0838,0.21828 -0.0786,0.58887 0.0114,0.82354 0.1326,0.34555 0.2386,0.36454 0.55747,0.0999 0.21656,-0.17973 0.39375,-0.55033 0.39375,-0.82355 z m 71.4183,-0.13558 c 1.00497,-1.27761 0.56568,-2.21327 -1.03913,-2.21327 -1.10029,0 -1.5875,0.38165 -1.5875,1.24354 0,0.74072 0.87138,1.66687 1.5683,1.66687 0.28048,0 0.75673,-0.31371 1.05833,-0.69714 z m -35.48788,-0.14952 c 0.38911,-0.38911 0.42059,-3.22883 0.0436,-3.93323 -0.23016,-0.43006 -0.56536,-0.51177 -2.09944,-0.51177 -1.94509,0 -3.32022,-0.35754 -3.05093,-0.79326 0.0901,-0.14579 0.74508,-0.26508 1.45551,-0.26508 2.09716,0 2.01369,-0.72113 -0.25024,-2.16185 -1.48297,-0.94374 -1.84741,-0.94802 -1.78394,-0.021 0.038,0.5548 -0.069,0.72761 -0.45052,0.72761 -0.56894,0 -0.78559,-0.34091 -1.19349,-1.87807 -0.15826,-0.59638 -0.59535,-1.41625 -0.97132,-1.82192 -0.87434,-0.94344 -1.09192,-0.74036 -2.33875,2.18291 l -0.93283,2.1871 1.04657,0.75813 c 1.42111,1.02945 4.89924,2.80972 6.29735,3.22328 1.12538,0.33289 2.01569,1.16518 1.73399,1.62098 -0.47821,0.77376 1.78443,1.39613 2.49443,0.68613 z m -34.65651,-1.46844 c -0.053,-0.27926 -0.37567,-0.49625 -0.81315,-0.54674 -0.77238,-0.0891 -0.92693,0.17317 -0.40784,0.69226 0.49614,0.49614 1.32397,0.39748 1.22099,-0.14552 z m 1.75814,-0.84265 c 0.19322,-0.31263 -0.82929,-1.07541 -4.48725,-3.34741 -1.60073,-0.99424 -4.16058,-2.73357 -5.68855,-3.86519 -1.52797,-1.13163 -2.92695,-2.0592 -3.10885,-2.06128 -1.32524,-0.0152 1.22502,2.35946 6.63882,6.1816 3.95779,2.7942 6.18856,3.83217 6.64583,3.09228 z m 64.55399,-0.60529 c 0.47144,-0.67306 0.54085,-2.11619 0.13799,-2.86893 -0.37155,-0.69425 -1.44976,-0.6523 -1.96007,0.0763 -0.24647,0.35189 -0.41187,1.1488 -0.41187,1.98438 0,1.39633 0,1.39633 0.91104,1.39633 0.6415,0 1.03289,-0.17397 1.32291,-0.58804 z m -3.082,-1.04831 c 0.0429,-0.22104 -0.36132,-0.92555 -0.89826,-1.56558 -1.13393,-1.35164 -1.69328,-2.55177 -1.69328,-3.63305 0,-0.42162 -0.23812,-1.0693 -0.52916,-1.4393 -0.39842,-0.5065 -0.52917,-1.07335 -0.52917,-2.29409 0,-1.73133 0.0495,-1.64943 -2.05393,-3.39824 -0.64457,-0.5359 -0.96583,-1.11738 -1.26795,-2.29494 -0.64537,-2.51548 -2.48608,-4.53216 -2.11115,-2.31299 0.13444,0.79578 0.0519,1.15439 -0.39698,1.72508 -0.9403,1.19539 -2.01682,1.59731 -4.16951,1.55669 -1.37321,-0.0259 -1.96805,0.0635 -2.06261,0.30989 -0.21177,0.55185 0.9687,3.40099 1.72066,4.15295 0.46309,0.4631 1.1018,0.74295 1.96595,0.86139 2.77777,0.38074 6.78015,3.21607 9.34784,6.62213 1.74597,2.31603 2.47018,2.77856 2.67755,1.71006 z m 6.72055,-0.39752 c 0.96892,-0.92829 1.03921,-2.19946 0.12163,-2.19946 -0.99571,0 -1.93724,1.40852 -1.61668,2.41852 0.21473,0.67657 0.62259,0.61681 1.49505,-0.21906 z m -67.30836,-0.51203 c 0.0965,-0.67255 -1.13661,-2.2166 -1.77016,-2.2166 -0.58498,0 -1.08773,0.50922 -1.08773,1.10172 0,0.54018 1.79377,1.85474 2.38125,1.74508 0.21828,-0.0407 0.43277,-0.32433 0.47664,-0.6302 z m 3.62339,-0.36382 c 1.76401,-1.21367 1.76984,-1.41515 0.0368,-1.27143 -1.63045,0.13521 -2.81389,0.9255 -2.81389,1.8791 0,0.43413 0.12808,0.4905 0.80624,0.35487 0.44344,-0.0887 1.33033,-0.52183 1.97088,-0.96254 z m 4.12612,-1.21311 c 0.30961,-0.28019 1.32482,-0.49355 3.06943,-0.64509 3.69043,-0.32056 4.33843,-0.62827 4.72757,-2.24501 0.10488,-0.43575 0.35563,-1.1197 0.55723,-1.51988 0.33261,-0.66026 0.32238,-0.7276 -0.11055,-0.7276 -0.69227,0 -1.65384,0.74872 -1.49458,1.16375 0.075,0.19553 -0.0788,0.57173 -0.34181,0.836 -0.46195,0.46412 -0.48118,0.46029 -0.56465,-0.11243 -0.11271,-0.7733 -1.16957,-1.17078 -2.72846,-1.02617 -1.2187,0.11305 -1.22945,0.10692 -1.52135,-0.86737 -0.39447,-1.3166 -0.38053,-1.37983 0.2595,-1.17669 0.8822,0.28 0.52284,-0.73587 -0.37158,-1.05042 -1.13836,-0.40034 -1.56951,0.0514 -1.93406,2.02666 -0.17608,0.95406 -0.50873,2.09933 -0.73921,2.54503 -0.71368,1.38011 -0.44359,3.21789 0.47293,3.21789 0.14134,0 0.46515,-0.1884 0.71959,-0.41867 z m 0.4169,-2.13897 c -0.097,-0.097 -0.17639,-0.39467 -0.17639,-0.66146 0,-0.37968 0.20498,-0.48507 0.94344,-0.48507 0.51889,0 1.15569,-0.11359 1.4151,-0.25243 0.53763,-0.28773 1.92453,0.005 2.06835,0.43621 0.20025,0.60077 -3.72369,1.48955 -4.2505,0.96275 z m -22.01634,1.17671 c 0.438,-0.80292 0.46799,-1.05663 0.19552,-1.65463 -0.50049,-1.09845 -1.19554,-0.77224 -1.47956,0.6944 -0.42427,2.19096 0.3122,2.74171 1.28404,0.96023 z m 9.35553,0.12416 c -0.053,-0.27927 -0.37568,-0.49625 -0.81315,-0.54674 -0.77669,-0.0896 -0.81189,-0.0528 -0.56474,0.59124 0.23076,0.60136 1.49264,0.5606 1.37789,-0.0445 z m 69.74068,-0.10927 c 0.49258,-0.70326 0.33063,-1.01521 -0.52705,-1.01521 -0.69529,0 -1.0579,0.53535 -0.80644,1.19062 0.21988,0.57301 0.86909,0.48762 1.33349,-0.17541 z m -60.62969,-0.77189 c 0.25466,-0.31159 0.46302,-0.8378 0.46302,-1.16936 0,-0.80272 -0.8676,-1.84961 -1.37232,-1.65592 -0.46383,0.17798 -1.20491,1.64362 -1.44954,2.86674 -0.17124,0.8562 -0.17124,0.8562 0.86229,0.69063 0.5796,-0.0928 1.23688,-0.41439 1.49655,-0.73209 z m 26.23158,0.39649 c 0.0883,-0.23018 0.1606,-0.82549 0.1606,-1.32291 0,-0.85721 -0.0483,-0.9044 -0.92604,-0.9044 -1.05294,0 -1.10091,-0.14451 -0.48016,-1.44623 0.43873,-0.92003 0.95253,-1.19044 1.27391,-0.67044 0.0899,0.14552 0.43374,0.26458 0.764,0.26458 0.33027,0 1.16228,0.37212 1.84891,0.82692 1.03758,0.68727 1.42676,0.803 2.3044,0.68529 0.58079,-0.0779 1.36247,-0.34247 1.73708,-0.58792 0.60429,-0.39594 0.66198,-0.56589 0.51152,-1.5068 -0.34256,-2.14226 -1.31286,-3.25233 -2.30258,-2.63424 -0.72162,0.45066 -1.29944,0.36638 -2.48208,-0.36202 -1.43933,-0.88651 -2.4527,-0.83434 -3.98876,0.20534 -1.4278,0.96639 -1.76331,1.52135 -0.91977,1.52135 0.79998,0 0.9382,0.63973 0.42728,1.97757 -0.41674,1.0912 -0.41652,1.2186 0.003,2.04054 0.62243,1.21829 1.42922,2.33189 1.68942,2.33189 0.12004,0 0.29053,-0.18833 0.37886,-0.41852 z m -31.1745,-0.498 c 1.70049,-0.71051 2.09581,-3.18106 0.74741,-4.67102 -0.92806,-1.0255 -2.00881,-0.31923 -3.02425,1.97633 -0.65155,1.47294 -0.52936,2.4589 0.3485,2.81214 0.80878,0.32544 0.87852,0.32119 1.92834,-0.11745 z m 72.12625,-0.5797 c 0.7102,-0.64272 0.61812,-2.00778 -0.20112,-2.9814 -0.81367,-0.96698 -1.06807,-0.99933 -1.87766,-0.23876 -0.75008,0.70466 -0.7795,1.66088 -0.0861,2.79815 0.58777,0.96402 1.39261,1.12091 2.16488,0.42201 z m -8.13675,0.0127 c 0.67595,-0.25938 0.48936,-0.77216 -0.65827,-1.80897 -1.39861,-1.26357 -2.19683,-1.2115 -2.31066,0.15073 -0.0519,0.62048 0.0716,1.11106 0.34963,1.38906 0.42915,0.42915 1.82785,0.5729 2.6193,0.26918 z m -67.62847,-1.51151 c 0.15487,-1.88078 -1.14575,-2.21623 -1.76009,-0.45395 -0.32995,0.94649 0.19625,1.67584 1.11454,1.54483 0.44312,-0.0632 0.57997,-0.29449 0.64555,-1.09088 z m 71.48025,0.16485 c 0.69077,-0.87817 0.64395,-2.27922 -0.0807,-2.41661 -0.91402,-0.17327 -1.75594,0.22845 -2.17429,1.03745 -0.3823,0.73929 -0.38219,0.86612 0.001,1.45138 0.56537,0.86286 1.54285,0.83154 2.25375,-0.0722 z m -7.82719,-0.76334 c 0.0883,-0.23018 0.1606,-0.93482 0.1606,-1.56585 0,-1.433 -0.20425,-1.98438 -0.73508,-1.98438 -1.23674,0 -1.84713,2.12801 -0.96971,3.38071 0.47857,0.68326 1.31194,0.77475 1.54419,0.16952 z m -32.38315,-0.18924 c 0,-0.4525 -1.83519,-2.20056 -2.52742,-2.40743 -0.29868,-0.0893 -0.77043,0.004 -1.04835,0.20719 -0.44916,0.32844 -0.46232,0.42143 -0.11841,0.8371 0.40508,0.4896 2.79318,1.69928 3.36345,1.70373 0.1819,0.001 0.33073,-0.15184 0.33073,-0.34059 z m -33.81539,-1.224 c 0.60168,-0.67023 1.31977,-1.14247 2.02671,-1.33282 1.00946,-0.27183 2.15534,-1.14502 2.15534,-1.64243 0,-0.11513 0.46157,-0.44479 1.0257,-0.73259 1.10382,-0.56313 1.35555,-0.9598 1.35555,-2.13606 0,-1.99688 2.16758,-2.06763 3.96875,-0.12955 0.36381,0.39146 0.98888,0.88208 1.38907,1.09027 0.64222,0.33411 0.8285,0.32699 1.5875,-0.0607 2.70368,-1.38101 2.92618,-2.16298 0.92597,-3.25427 -0.69126,-0.37714 -2.09418,-1.42626 -3.11761,-2.33136 -2.04844,-1.81163 -3.43545,-2.40873 -4.6562,-2.00447 -1.00685,0.33342 -1.88445,1.68094 -2.0883,3.20648 -0.26907,2.01358 -0.29214,2.03661 -1.28321,1.28069 -1.33454,-1.0179 -2.13321,-1.13924 -2.64925,-0.4025 -0.57478,0.82062 -0.53737,2.01465 0.10245,3.26961 0.64363,1.26245 0.65515,1.45521 0.087,1.45521 -0.57298,0 -1.40518,0.75702 -1.42667,1.29778 -0.01,0.25009 -0.12736,0.15254 -0.28824,-0.23945 -0.37205,-0.90653 -0.0484,-4.2584 0.58527,-6.0613 0.62008,-1.76424 0.61876,-1.61161 0.014,-1.61161 -0.27473,0 -2.0309,1.13254 -3.9026,2.51676 -1.8717,1.38422 -3.70075,2.59127 -4.06455,2.68232 -0.36381,0.091 -0.82916,0.29796 -1.03412,0.4598 -0.49948,0.39438 -1.33409,2.26493 -1.34132,3.00622 -0.007,0.74343 0.48417,0.76104 1.84627,0.0661 1.40841,-0.71852 2.08432,-0.65747 3.175,0.28678 3.19912,2.76963 4.11369,2.98509 5.60753,1.32104 z m 11.77177,-0.0664 c 1.2716,-1.1946 0.4184,-3.65805 -1.26694,-3.65805 -1.24389,0 -2.07783,1.33733 -1.72085,2.75962 0.37406,1.49039 1.87671,1.94223 2.98779,0.89843 z m 9.41826,0.21493 c 0.46827,-0.1982 1.07547,-0.61189 1.34934,-0.91932 0.49123,-0.55143 0.48891,-0.56239 -0.17274,-0.81395 -0.85814,-0.32626 -1.13662,-0.77586 -0.60655,-0.97926 0.64126,-0.24608 0.49123,-1.05367 -0.38011,-2.04607 -0.89209,-1.01603 -0.96358,-1.23105 -0.40932,-1.23105 0.87007,0 1.78742,0.69262 2.54234,1.91952 0.93854,1.52532 1.20954,1.44121 1.94483,-0.60355 0.63542,-1.76707 0.45735,-3.88563 -0.49599,-5.90083 -0.39043,-0.8253 -0.80184,-1.50055 -0.91423,-1.50055 -0.34788,0 -0.97523,0.83431 -2.48688,3.30729 -0.80057,1.30969 -1.65903,2.42245 -1.90771,2.4728 -0.39461,0.0799 -0.37677,-0.0425 0.14023,-0.96239 0.76396,-1.3593 0.56152,-2.12742 -0.22374,-0.84895 -0.31284,0.50932 -0.56925,1.31997 -0.56979,1.80145 -5.3e-4,0.58475 -0.27729,1.21923 -0.83318,1.91095 -0.93085,1.15832 -0.83,1.51799 0.63854,2.2774 0.70021,0.3621 0.81726,0.35674 1.27604,-0.0585 0.60937,-0.55147 0.66339,-0.18966 0.0932,0.62436 -0.28502,0.40693 -0.68249,0.58804 -1.29052,0.58804 -1.03819,0 -1.8012,0.68833 -1.191,1.07444 0.56874,0.35989 2.53089,0.29712 3.49721,-0.11188 z m 49.82574,-1.09727 c 0.93106,-0.93106 0.82971,-2.87617 -0.18936,-3.63417 -0.64972,-0.48328 -0.74241,-0.48879 -1.51351,-0.09 -0.45178,0.23362 -0.96024,0.68417 -1.12992,1.00122 -0.4079,0.76217 -0.39376,2.48147 0.0246,2.98551 0.53371,0.64308 2.04381,0.50191 2.80824,-0.26252 z m 5.01851,-0.84703 c 1.03276,-1.03276 1.54248,-3.56985 0.85527,-4.25705 -0.51703,-0.51704 -1.71605,-0.36364 -2.51201,0.32139 -0.63832,0.54935 -0.73967,0.82653 -0.72317,1.97779 0.0294,2.05142 1.26768,3.07011 2.37991,1.95787 z m 4.10354,-0.32087 c 1.00612,-1.00612 1.09547,-2.67291 0.17809,-3.32192 -0.56102,-0.39689 -0.62863,-0.3828 -1.17367,0.24462 -0.71258,0.82029 -1.07841,2.89216 -0.61027,3.45623 0.46481,0.56007 0.72926,0.49767 1.60585,-0.37893 z m -63.99811,-1.21815 c 0.21559,-0.47317 0.22224,-0.75105 0.0227,-0.95056 -0.55554,-0.55554 -1.93433,0.69934 -1.51459,1.37849 0.30035,0.48597 1.19199,0.23021 1.49186,-0.42793 z m 19.41962,-0.67769 c 0.91989,-0.89159 3.28314,-5.14253 3.28314,-5.9056 0,-0.80872 -0.52549,-0.41065 -1.19062,0.90192 -0.36871,0.72761 -0.71569,1.32292 -0.77108,1.32292 -0.0554,0 -0.0831,-0.3789 -0.0617,-0.842 0.0318,-0.68541 -0.0794,-0.87106 -0.5974,-0.99821 -0.35003,-0.0859 -0.76675,-0.39162 -0.92604,-0.67935 -0.1593,-0.28773 -0.31652,-0.56988 -0.34938,-0.627 -0.29167,-0.50692 -1.97204,2.31138 -2.30992,3.87416 l -0.18591,0.8599 h 1.74081 c 1.97977,0 2.186,0.27953 1.01321,1.37338 -1.64783,1.53692 -2.96481,1.45694 -1.48411,-0.0901 l 0.75651,-0.79042 -0.72941,0.27689 c -3.33918,1.26757 -3.78581,2.57469 -0.79778,2.33484 1.48038,-0.11883 1.82777,-0.25345 2.60967,-1.0113 z m 31.95016,-1.27987 c 0.82251,-0.86232 1.49548,-1.69157 1.49548,-1.84277 0,-0.82584 -2.01921,-1.0684 -2.90733,-0.34924 -0.86167,0.69774 -1.11923,3.75987 -0.31625,3.75987 0.12794,0 0.90558,-0.70554 1.7281,-1.56786 z m -24.83056,0.77411 c 0,-0.46408 -1.13032,-0.6953 -1.51559,-0.31004 -0.42169,0.4217 0.0477,0.87679 0.81297,0.78822 0.41202,-0.0477 0.70262,-0.24545 0.70262,-0.47818 z m 21.19319,-0.14377 c 0.32883,-1.31016 -0.91781,-3.5604 -1.97248,-3.5604 -0.83404,0 -0.45841,3.43273 0.43244,3.95195 0.79387,0.4627 1.36188,0.31829 1.54004,-0.39155 z m -22.98984,-0.78479 c 0.82712,-0.82712 0.90908,-1.03235 0.7503,-1.87873 -0.24227,-1.2914 -0.97838,-2.7791 -1.32011,-2.66796 -0.32872,0.10691 -2.22647,4.33711 -2.24858,5.01223 -0.0117,0.35804 0.2008,0.46302 0.93733,0.46302 0.73629,0 1.16328,-0.21078 1.88106,-0.92856 z m 31.77523,-0.95803 c 0.0995,-0.85849 -0.9956,-2.24457 -1.59243,-2.01554 -0.63945,0.24538 -0.82552,1.47895 -0.33582,2.22633 0.59719,0.91142 1.81359,0.77845 1.92825,-0.21079 z m -80.16765,-0.95768 c 4.40913,-3.15436 6.74241,-5.67276 6.307,-6.8074 -0.14032,-0.36567 -0.36499,-0.42501 -1.09252,-0.28852 -0.61744,0.11583 -1.18679,0.0317 -1.7473,-0.25812 -0.63666,-0.32924 -1.19618,-0.38761 -2.38862,-0.24922 -1.67434,0.19433 -1.85433,0.3451 -1.02803,0.86113 0.73641,0.4599 0.6659,0.86453 -0.35973,2.0643 -1.20075,1.40461 -2.26164,3.5656 -2.45965,5.01019 -0.21976,1.60334 0.12018,1.56254 2.76885,-0.33236 z m 62.89646,0.67609 c 0.38156,-0.17385 0.85818,-0.63406 1.05915,-1.02269 0.33273,-0.64343 0.3073,-0.78536 -0.28443,-1.5874 -0.78622,-1.06567 -0.81707,-1.60294 -0.12783,-2.22669 0.6964,-0.63023 1.87147,-0.38534 3.13043,0.6524 0.53134,0.43797 1.1676,0.79631 1.41393,0.79631 0.60027,0 0.82431,-1.14094 0.53097,-2.70402 -0.29066,-1.54883 -0.94691,-2.58765 -1.63467,-2.58765 -0.79055,0 -0.69093,-1.14366 0.13828,-1.58744 0.87928,-0.47057 1.45355,-2.35071 0.95721,-3.13386 -0.4749,-0.74933 -2.5549,0.97831 -5.38601,4.4736 -1.52941,1.88822 -5.22838,7.45633 -5.22838,7.87037 0,0.37655 0.2947,0.36518 2.57969,-0.0995 0.56001,-0.11389 0.85989,-0.0721 0.85989,0.11973 0,0.28322 0.93154,1.35295 1.17818,1.35295 0.0659,0 0.43203,-0.14225 0.81359,-0.3161 z m 26.30242,-0.32581 c 0.17223,-0.20752 0.27611,-0.89213 0.23084,-1.52135 -0.0823,-1.14403 -0.0823,-1.14403 -1.34179,-1.22479 -1.47958,-0.0949 -1.72807,0.23201 -1.25835,1.6553 0.44708,1.35465 1.67946,1.92205 2.3693,1.09084 z m -4.26719,-1.12613 c 0.1102,-0.7741 -0.79508,-1.24126 -1.97605,-1.01971 -1.90305,0.35701 -1.17192,1.82276 0.83551,1.67502 0.85671,-0.0631 1.074,-0.1879 1.14054,-0.65531 z m -11.43971,-0.48152 c 1.63928,-1.16549 1.66271,-1.56348 0.098,-1.66544 -0.90981,-0.0593 -1.38012,0.0589 -1.91823,0.48222 -0.81308,0.63957 -0.89345,1.09777 -0.29713,1.69409 0.56359,0.56359 0.62792,0.54807 2.11734,-0.51087 z m -49.89354,-0.0728 c 0,-0.30882 -0.73372,-1.3211 -2.34398,-3.23387 -0.7963,-0.94589 -1.67179,-2.22581 -1.94554,-2.84427 -0.27376,-0.61847 -0.59337,-1.12448 -0.71024,-1.12448 -0.35656,0 -2.40857,1.57353 -2.40857,1.84695 0,0.14087 0.32742,0.43061 0.7276,0.64386 0.40019,0.21326 1.85195,1.40694 3.22615,2.65263 2.18518,1.98083 3.45458,2.73749 3.45458,2.05918 z m 11.23328,-1.25 c -0.18187,-1.45572 -0.18187,-1.45572 0.64242,-1.62058 0.57677,-0.11535 0.8243,-0.31632 0.8243,-0.66925 0,-0.64431 -0.7199,-0.92578 -1.35437,-0.52955 -0.7868,0.49136 -0.96947,0.37083 -1.16161,-0.76644 -0.13629,-0.8067 -0.28972,-1.05027 -0.61857,-0.98199 -0.54858,0.11391 -0.49779,1.58462 0.12106,3.50556 0.8943,2.77596 1.84222,3.42694 1.54677,1.06225 z m -7.82273,-0.007 c 1.59609,-1.81784 2.29173,-3.84182 1.56888,-4.56468 -0.17174,-0.17173 -0.38236,-0.82062 -0.46805,-1.44197 -0.1558,-1.12974 -0.1558,-1.12974 -1.20911,-1.04499 -1.7195,0.13835 -2.36964,0.57902 -2.41958,1.64003 -0.0238,0.50658 -0.0536,1.11668 -0.0661,1.35577 -0.0402,0.76766 -0.85322,0.81978 -1.60171,0.10268 -0.77107,-0.73874 -1.59609,-0.88507 -1.59609,-0.28311 0,0.83556 3.90479,5.15582 4.66895,5.16574 0.16682,0.002 0.67211,-0.4161 1.12285,-0.92946 z m 50.79115,0.64238 c 1.52706,-0.53234 1.34443,-2.61939 -0.22921,-2.61939 -0.59354,0 -0.87321,0.18481 -1.18132,0.78061 -0.42551,0.82285 -0.52268,1.65801 -0.22728,1.95341 0.24983,0.24983 0.67838,0.21983 1.63781,-0.11463 z m -48.52269,-0.96088 c 0.78251,-1.15158 0.9276,-1.93614 0.25478,-1.37774 -0.56048,0.46516 -1.5134,2.3652 -1.1862,2.3652 0.14323,0 0.56237,-0.44436 0.93142,-0.98746 z m -18.75107,0.41815 c 0.10358,-0.16759 -0.0312,-0.46525 -0.29954,-0.66145 -0.63727,-0.46598 -0.89666,-0.45015 -1.09505,0.0668 -0.26755,0.69725 0.99774,1.23674 1.39459,0.59462 z m 47.37781,-0.68746 c 1.44645,-1.55137 5.11717,-7.49904 5.11717,-8.29134 0,-0.29809 -0.29662,-0.50281 -0.88972,-0.61408 -0.48934,-0.0918 -1.10311,-0.40271 -1.36392,-0.6909 -0.63722,-0.70412 -1.68671,-0.66502 -4.14763,0.15454 -2.96191,0.98641 -4.1314,2.08016 -2.91836,2.72936 0.25848,0.13833 1.23569,0.39037 2.17158,0.56008 2.26819,0.4113 3.23605,0.92442 3.12956,1.65917 -0.0607,0.41899 -0.39014,0.65827 -1.24637,0.90536 -2.09701,0.60515 -2.55641,1.49202 -1.7601,3.39787 0.46251,1.10693 1.00267,1.16071 1.90779,0.18994 z m 28.13592,0.0487 c 0,-0.55972 -0.67434,-1.17649 -1.44423,-1.32092 -1.43374,-0.26897 -1.59428,-0.028 -0.5,0.75062 0.91495,0.651 1.94423,0.95292 1.94423,0.5703 z m -72.35548,-3.87932 c 1.12708,-1.20379 2.28535,-2.58013 2.57394,-3.05854 0.33175,-0.54995 1.07242,-1.13982 2.01406,-1.60398 1.75882,-0.86698 2.67998,-2.06519 2.67998,-3.48604 0,-1.17976 -0.29592,-1.46145 -2.09722,-1.99638 -1.45268,-0.4314 -2.4007,-1.16341 -2.4007,-1.8537 0,-0.22947 0.36265,-0.77988 0.8059,-1.22312 0.73227,-0.73228 0.92629,-0.79432 2.12398,-0.67924 1.00932,0.097 1.73473,0.41199 3.09671,1.34473 1.95918,1.34174 4.08991,2.0767 4.58506,1.58154 0.42503,-0.42503 0.14832,-0.73941 -1.83473,-2.08449 -0.971,-0.65862 -2.28073,-1.60758 -2.91051,-2.1088 -1.5111,-1.20264 -2.20914,-1.16861 -5.53284,0.26971 -1.49002,0.6448 -3.38159,1.29667 -4.20348,1.44861 -1.73617,0.32095 -2.27194,0.67977 -2.16213,1.44805 0.0541,0.37872 0.40649,0.65912 1.122,0.89289 2.05968,0.67293 2.38168,1.5668 0.61056,1.69495 -1.00665,0.0728 -1.17567,0.18615 -1.61306,1.08144 -0.65737,1.34558 -0.85348,4.63509 -0.45689,7.66389 0.43335,3.3096 0.4754,3.43237 1.06714,3.11567 0.26565,-0.14217 1.40516,-1.24341 2.53223,-2.44719 z m 30.15444,1.22883 c 0,-0.5064 -0.13519,-0.7717 -0.39325,-0.7717 -0.4351,0 -0.66315,0.73388 -0.42274,1.36038 0.25135,0.655 0.81599,0.24766 0.81599,-0.58868 z m 1.93146,0.63059 c 0.65894,-0.65894 0.22777,-3.76927 -0.65287,-4.70958 -0.33039,-0.35278 -0.40156,-0.35278 -0.64052,0 -0.53163,0.78482 0.14912,5.02708 0.80669,5.02708 0.0931,0 0.31207,-0.14287 0.4867,-0.3175 z m 25.80781,-1.33614 c 1.00763,-1.69789 1.69796,-3.52545 1.4321,-3.79131 -0.0824,-0.0824 -0.57776,-0.0317 -1.10073,0.11267 -0.52297,0.1444 -0.95085,0.20488 -0.95085,0.1344 0,-0.0705 0.56779,-0.68596 1.26175,-1.36773 0.76952,-0.75601 1.6326,-2.01374 2.21234,-3.22397 0.52282,-1.09141 1.5084,-2.60337 2.19019,-3.35991 l 1.2396,-1.37554 -1.13683,-0.30822 c -2.52944,-0.68577 -8.60305,0.74498 -11.4534,2.69808 -1.24217,0.85115 -2.10673,2.42044 -1.7257,3.1324 0.4002,0.74777 1.08626,0.66931 2.25268,-0.25764 1.23614,-0.98237 2.85598,-1.10786 3.31158,-0.25656 0.24597,0.4596 1.03247,7.15118 1.04861,8.92166 0.009,0.97 0.37866,0.69412 1.41866,-1.05833 z m 3.08469,1.28576 c 1.26916,-0.44902 1.85073,-1.66211 1.85314,-3.86545 0.002,-2.24473 0.3851,-3.55327 1.23436,-4.2213 1.59624,-1.2556 2.08208,-0.37883 1.67578,3.02413 -0.34796,2.91427 -0.0762,4.4018 0.92401,5.05714 0.79814,0.52296 0.94291,0.43109 1.72898,-1.09728 0.34954,-0.67961 0.78023,-1.29119 0.9571,-1.35906 0.17686,-0.0679 0.67561,0.13835 1.10832,0.45827 1.37593,1.01727 1.7667,0.13679 0.84287,-1.89915 -0.33321,-0.73434 -0.52547,-1.7353 -0.52917,-2.75507 -0.007,-1.92576 -0.88934,-3.91082 -2.28177,-5.13339 -2.63325,-2.31203 -6.7814,0.38404 -7.51371,4.8835 -0.12592,0.77375 -0.76421,2.63338 -1.4184,4.13252 -0.6542,1.49914 -1.13142,2.8196 -1.06049,2.93437 0.18535,0.29989 1.40216,0.22174 2.47898,-0.15923 z m -65.63606,-1.0426 c 0.11876,-0.32103 0.058,-1.18984 -0.1414,-2.02345 -0.19224,-0.80347 -0.35377,-2.20033 -0.35895,-3.10413 -0.0135,-2.35012 0.51248,-6.90442 0.94079,-8.14631 0.50792,-1.47272 0.47096,-1.69553 -0.33181,-2.00075 -1.20314,-0.45743 -3.2126,0.15854 -5.91255,1.81241 -1.35692,0.83119 -2.5874,1.70681 -2.73438,1.94582 -0.21381,0.34768 -0.003,0.69156 1.05209,1.7198 0.78653,0.76618 1.60846,1.92633 2.03525,2.87272 1.47693,3.27501 1.57952,3.41954 2.68415,3.78139 1.22903,0.4026 1.45375,0.68346 1.45923,1.82378 0.009,1.88325 0.80267,2.68363 1.30758,1.31872 z m 24.25063,-3.35185 c 0.15754,-9e-5 0.66917,0.47608 1.13695,1.05817 0.97973,1.21914 1.77344,1.35969 2.61488,0.46302 0.77021,-0.82078 2.20112,-3.95349 2.36546,-5.17876 0.11944,-0.89045 0.0357,-1.09415 -0.70703,-1.71908 -0.59475,-0.50045 -1.14235,-0.70893 -1.86209,-0.70893 -1.06854,0 -0.94185,-0.1084 -3.55622,3.04271 l -0.65855,0.79375 -0.008,-0.69261 c -0.005,-0.40801 0.58648,-1.58644 1.43929,-2.86792 1.56264,-2.34809 1.91835,-3.44328 1.48691,-4.57804 -0.60303,-1.5861 -3.38854,-2.36049 -4.41417,-1.22718 -0.38488,0.42528 -0.52613,1.05908 -0.60037,2.69379 -0.095,2.09122 -0.10497,2.11887 -0.46069,1.27288 -0.40918,-0.97316 -0.993,-0.97536 -1.10528,-0.004 -0.23203,2.00713 -0.50135,2.17195 -2.31244,1.41523 -1.72496,-0.72073 -2.7353,-0.0173 -3.43975,2.39496 -0.21142,0.72397 -0.59832,1.25261 -1.21096,1.65461 -0.49515,0.3249 -1.05172,0.71899 -1.23682,0.87575 -1.2642,1.0707 2.68017,0.95572 4.79148,-0.13967 0.70534,-0.36594 1.5134,-0.66535 1.79569,-0.66535 0.92171,0 2.29326,-0.73259 2.48141,-1.3254 0.38482,-1.21245 0.59848,-0.0396 0.38608,2.11915 -0.40159,4.08149 -0.49327,3.89928 1.26678,2.51757 0.83674,-0.65688 1.65026,-1.1944 1.8078,-1.19449 z m 55.64306,0.52768 c 1.56125,-1.2341 2.14692,-2.22322 2.14554,-3.62356 -0.001,-1.32515 -0.57345,-2.2076 -3.28956,-5.07361 -1.2992,-1.3709 -2.2657,-2.61745 -2.2657,-2.92223 0,-0.81141 0.93685,-1.16641 2.57124,-0.97432 1.33461,0.15685 1.48157,0.11627 2.20741,-0.60957 0.83905,-0.83904 0.97196,-1.5097 0.44266,-2.23356 -0.31195,-0.42662 -0.39389,-0.42866 -1.19356,-0.0297 -0.47224,0.23558 -2.2346,0.64921 -3.91635,0.91917 -1.68176,0.26996 -3.24098,0.64292 -3.46495,0.82879 -0.29838,0.24763 -0.37494,0.67369 -0.28648,1.59429 0.094,0.97874 0.37799,1.58559 1.28506,2.74645 2.0453,2.61755 2.32869,3.27344 2.75236,6.37015 0.53029,3.87605 0.58539,4.06738 1.17139,4.06738 0.27521,0 1.10363,-0.47684 1.84094,-1.05965 z m -88.87013,-0.007 c 0.65484,-0.14314 1.45851,-0.32109 1.78593,-0.39545 0.69897,-0.15873 0.80856,-0.91924 0.1323,-0.91803 -0.49593,8.7e-4 -3.81732,1.53674 -3.37344,1.55992 0.14552,0.008 0.80036,-0.1033 1.45521,-0.24644 z m 57.57676,-4.72912 c 2.06255,-0.79657 3.21021,-1.59127 2.83701,-1.96447 -0.26575,-0.26574 -3.42919,-0.20919 -5.38044,0.0962 -2.53582,0.39686 -3.175,0.71054 -3.175,1.55812 0,0.3898 0.14883,0.8628 0.33073,1.05111 0.51659,0.53478 2.95158,0.19991 5.3877,-0.74094 z m 5.32191,-1.67756 c 1.83501,-3.1404 4.76917,-4.76883 9.67916,-5.37184 0.80691,-0.0991 1.23461,-0.27034 1.16874,-0.46794 -0.32538,-0.97615 -7.53122,-0.66713 -9.71275,0.41653 -1.112,0.55238 -1.19817,0.66969 -1.23672,1.68373 -0.0228,0.59949 -0.41518,1.94152 -0.87197,2.98229 -0.79101,1.80223 -0.85317,2.55791 -0.1923,2.33762 0.16556,-0.0552 0.69018,-0.76636 1.16584,-1.58039 z m -21.62238,-1.65559 c 0.66857,-0.55857 1.5257,-0.99364 2.15619,-1.09446 1.06976,-0.17106 2.61889,-1.0489 2.79406,-1.5833 0.15451,-0.47138 -1.94284,-1.17021 -4.32412,-1.44079 -1.20178,-0.13656 -3.1524,-0.60496 -4.33471,-1.04089 -1.18231,-0.43593 -2.32012,-0.7926 -2.52847,-0.7926 -0.58263,0 -0.45051,0.76446 0.28271,1.63585 0.36384,0.4324 0.73774,1.10443 0.83088,1.4934 0.32705,1.36581 0.92934,2.19976 2.14585,2.97125 0.67531,0.42827 1.37185,0.77867 1.54788,0.77867 0.17602,0 0.8194,-0.41721 1.42973,-0.92713 z m 15.21225,-0.8091 c 1.56252,-0.27292 1.79002,-0.53548 1.29442,-1.49388 -0.22629,-0.4376 -0.34328,-1.0672 -0.25998,-1.39912 0.1966,-0.78328 1.81551,-2.19902 2.74072,-2.39675 2.08337,-0.44526 4.38571,-1.70239 3.9379,-2.1502 -0.11909,-0.11909 -3.57013,-0.21653 -7.66896,-0.21653 -6.92327,0 -7.52758,0.0376 -8.51077,0.52917 -0.58208,0.29104 -1.05833,0.70342 -1.05833,0.9164 0,0.23934 0.7353,0.65866 1.92522,1.09789 2.30709,0.8516 2.77217,1.19368 2.55465,1.87903 -0.43473,1.3697 1.9591,3.80677 3.45763,3.52008 0.29104,-0.0557 1.00542,-0.18442 1.5875,-0.28609 z m -56.14467,-1.87593 c 0.46571,-0.24044 1.48274,-0.95481 2.26007,-1.5875 0.89492,-0.7284 1.67701,-1.15034 2.13224,-1.15034 0.39541,0 0.93831,-0.16042 1.20645,-0.35649 0.65139,-0.4763 0.20765,-0.74571 -1.6416,-0.99666 -1.38432,-0.18785 -2.57667,-0.79135 -4.76051,-2.40948 -0.61652,-0.45681 -1.19393,-0.75757 -1.28314,-0.66836 -0.42736,0.42735 0.6307,2.30887 2.1568,3.83538 0.90909,0.90935 1.57476,1.69739 1.47925,1.7512 -0.0955,0.0538 -0.64989,0.24581 -1.23197,0.42665 -1.26328,0.39249 -2.24896,0.97728 -2.24896,1.33428 0,0.39834 0.99136,0.30662 1.93137,-0.17868 z m 60.65237,-0.6401 c 0.83287,-1.61059 0.22488,-2.06582 -1.18011,-0.8836 -0.91372,0.76885 -1.02826,1.28552 -0.36701,1.65558 0.61742,0.34552 1.09159,0.10893 1.54712,-0.77198 z m -13.72126,-0.93382 c 0.19955,-0.52003 -0.27667,-0.84952 -1.53173,-1.05978 -1.48454,-0.2487 -1.64846,-0.44399 -1.59685,-1.90239 0.0355,-1.00325 -0.0563,-1.3567 -0.38505,-1.48286 -0.77481,-0.29733 -8.17681,0.73944 -8.45141,1.18375 -0.0757,0.12251 0.2189,0.40713 0.65471,0.63249 0.95685,0.49481 4.86673,1.45753 5.97181,1.47043 0.43656,0.005 1.56765,0.35978 2.51354,0.78819 1.96335,0.88925 2.59408,0.97189 2.82498,0.37017 z m 31.65685,-0.47724 c 0.20187,-0.52607 -1.02468,-2.31425 -2.08642,-3.04177 -1.47413,-1.01009 -4.89101,-0.77758 -9.64125,0.65605 -2.73761,0.82622 -3.01752,0.96611 -3.13559,1.56705 -0.0832,0.42364 0.0267,0.44818 1.05834,0.23623 0.63317,-0.13009 2.93715,-0.225 5.11996,-0.21091 3.26474,0.0211 4.25036,0.12199 5.55625,0.56889 1.9069,0.65258 2.93609,0.72642 3.12871,0.22446 z m -53.91586,-2.41789 c 0.0967,-0.77396 0.1308,-1.54225 0.0758,-1.7073 -0.12847,-0.38542 -2.60217,1.48465 -2.60217,1.9672 0,0.19623 0.36962,0.75245 0.82137,1.23605 0.7741,0.82868 0.84173,0.85143 1.17528,0.39527 0.19466,-0.26621 0.43303,-1.11725 0.52974,-1.89122 z m 3.24466,0.47724 c -0.10248,-0.53211 -0.94039,-0.77235 -1.3311,-0.38164 -0.39788,0.39788 -1e-4,0.84162 0.75444,0.84162 0.48947,0 0.64184,-0.12154 0.57666,-0.45998 z m 3.22478,-0.0368 c 0,-0.79555 -0.65535,-1.19133 -1.15135,-0.69533 -0.54977,0.54977 -0.27055,1.1921 0.5182,1.1921 0.443,0 0.63315,-0.14919 0.63315,-0.49677 z m 51.26883,-0.31387 c 1.60894,-0.73268 1.73436,-0.84453 1.30418,-1.1631 -0.63171,-0.46781 -3.69569,-1.0339 -4.39487,-0.81199 -0.77058,0.24457 -0.70086,1.14738 0.15782,2.04365 0.39103,0.40814 0.81036,0.74208 0.93185,0.74208 0.12149,0 1.02195,-0.36479 2.00102,-0.81064 z m -70.57661,-0.47836 c 0.80362,-0.80362 1.20981,-1.88565 0.95608,-2.54686 -0.21402,-0.55772 -1.62832,-0.50414 -3.47642,0.1317 -1.83108,0.62999 -2.92964,0.67629 -3.13839,0.1323 -0.11559,-0.30122 -0.61666,-0.39914 -2.07883,-0.40626 -1.16877,-0.006 -2.1867,-0.1581 -2.58799,-0.38749 -0.3638,-0.20797 -0.89958,-0.37807 -1.19062,-0.37799 -0.4602,1.2e-4 -0.42572,0.0883 0.26458,0.67644 1.34294,1.14422 3.39777,1.95375 5.59968,2.20607 1.14028,0.13067 2.60902,0.4812 3.26386,0.77895 1.51813,0.69028 1.48833,0.69286 2.38805,-0.20686 z m 8.06299,0.0859 c 1.82748,-0.50163 4.78841,-2.46286 4.33718,-2.87281 -0.13847,-0.1258 -4.31743,0.85106 -5.68689,1.32936 -0.68611,0.23963 -1.19814,0.627 -1.39243,1.05342 -0.5704,1.25189 -0.24509,1.31002 2.74214,0.49003 z m 69.28515,-0.66818 c 0.94519,-0.74348 0.87632,-1.03913 -0.24204,-1.03913 -0.95401,0 -2.5004,0.63147 -2.5004,1.02103 0,0.75543 1.79007,0.76724 2.74244,0.0181 z m -51.20638,-0.78853 c 2.64667,-0.49709 1.64688,-0.86502 -1.98573,-0.73075 -3.01173,0.11132 -4.31908,0.43076 -4.31908,1.05533 0,0.34944 3.74171,0.15681 6.30481,-0.32458 z m 27.64432,-0.12492 c 0.0819,-0.49398 -2.08599,-0.9572 -4.97725,-1.06351 l -2.91042,-0.10701 2.4241,0.37533 c 1.33326,0.20643 3.00013,0.55184 3.70417,0.76757 1.38082,0.4231 1.69301,0.428 1.7594,0.0276 z m -8.34761,-1.3658 c -0.25296,-0.0662 -0.72921,-0.0686 -1.05833,-0.005 -0.32912,0.0633 -0.12215,0.11747 0.45994,0.12041 0.58208,0.003 0.85136,-0.0489 0.59839,-0.11507 z m 31.36219,89.17462 c 0.0847,-0.26934 0.58238,-1.56127 1.10601,-2.87095 l 0.95205,-2.38125 -0.0847,1.72516 c -0.094,1.91532 -0.87585,3.77227 -1.65214,3.92392 -0.35805,0.0699 -0.43726,-0.0279 -0.32126,-0.39688 z m 1.54116,-9.02896 c -0.42237,-0.78921 -0.3758,-1.91179 0.0793,-1.91179 0.47385,0 0.80346,1.41831 0.46865,2.01658 -0.22902,0.40925 -0.27786,0.39991 -0.54797,-0.10479 z"
       id="path9194" />
  </g>
</svg>
