<?xml version="1.0" encoding="UTF-8" standalone="no"?>
<!-- Created with Inkscape (http://www.inkscape.org/) -->

<svg
   width="76.674309mm"
   height="76.730293mm"
   viewBox="0 0 76.674312 76.730293"
   version="1.1"
   id="svg5"
   inkscape:version="1.1 (c4e8f9ed74, 2021-05-24)"
   sodipodi:docname="ornatei4.svg"
   xmlns:inkscape="http://www.inkscape.org/namespaces/inkscape"
   xmlns:sodipodi="http://sodipodi.sourceforge.net/DTD/sodipodi-0.dtd"
   xmlns="http://www.w3.org/2000/svg"
   xmlns:svg="http://www.w3.org/2000/svg">
  <sodipodi:namedview
     id="namedview7"
     pagecolor="#ffffff"
     bordercolor="#666666"
     borderopacity="1.0"
     inkscape:pageshadow="2"
     inkscape:pageopacity="0.0"
     inkscape:pagecheckerboard="0"
     inkscape:document-units="mm"
     showgrid="false"
     inkscape:zoom="1.8923042"
     inkscape:cx="-25.630128"
     inkscape:cy="113.35386"
     inkscape:window-width="2506"
     inkscape:window-height="1403"
     inkscape:window-x="1974"
     inkscape:window-y="0"
     inkscape:window-maximized="1"
     inkscape:current-layer="layer1" />
  <defs
     id="defs2" />
  <g
     inkscape:label="Layer 1"
     inkscape:groupmode="layer"
     id="layer1"
     transform="translate(-248.46229,-122.94146)">
    <path
       style="fill:#000000;stroke-width:0.538974"
       d="m 249.46947,197.9855 c 0,-0.92727 0.24253,-1.83584 0.53897,-2.01906 0.85265,-0.52697 0.62676,-1.8864 -0.31345,-1.8864 -0.7094,0 -0.64648,-0.33321 0.37499,-1.98598 0.74308,-1.20236 0.99765,-2.06257 0.64514,-2.18007 -0.55775,-0.18599 -0.11184,-3.61519 0.55716,-4.28412 0.154,-0.154 -0.22964,-1.25821 -0.85272,-2.45361 -0.99436,-1.90769 -1.04911,-2.37899 -0.44789,-3.85419 0.37673,-0.92442 0.80134,-2.2871 0.94355,-3.02818 0.14219,-0.74109 0.39682,-1.71124 0.56577,-2.15589 0.60768,-1.59933 0.6943,-1.91261 1.02968,-3.72407 0.2967,-1.6025 0.2186,-1.79097 -0.61035,-1.47288 -2.00398,0.76901 -3.38947,-2.49907 -1.66591,-3.9295 0.60426,-0.50149 0.88388,-0.43044 1.33106,0.33823 0.51438,0.88421 0.56759,0.86009 0.58248,-0.26411 0.008,-0.68046 -0.57845,-1.83201 -1.30543,-2.55902 -1.2363,-1.23628 -1.34402,-1.80806 -1.66476,-8.83564 -0.28207,-6.18073 -0.18211,-8.06659 0.5628,-10.62938 0.62031,-2.13377 0.72031,-3.17736 0.31732,-3.31168 -0.73021,-0.24341 -0.78334,-1.72324 -0.0619,-1.72324 0.28961,0 0.92479,-0.60778 1.41151,-1.35062 0.75711,-1.15548 0.78541,-1.60321 0.19596,-3.09909 -0.37897,-0.96166 -1.17009,-2.13949 -1.75805,-2.61737 -0.74988,-0.60953 -0.98788,-1.29329 -0.79721,-2.29064 0.14952,-0.78197 0.0469,-1.42175 -0.22825,-1.42175 -0.27502,0 -0.42328,-0.667 -0.3295,-1.48219 l 0.17051,-1.48217 4.88034,-0.0379 c 2.68419,-0.0208 5.1855,-0.22652 5.55845,-0.45702 0.76775,-0.47449 2.76607,1.08438 2.76607,2.15781 0,0.51886 0.42842,0.56443 1.74811,0.18598 2.10924,-0.6049 2.15379,-0.60727 1.83833,-0.0968 -0.1375,0.22247 0.30251,1.09737 0.97778,1.94424 1.03291,1.29541 1.48651,1.48292 2.85825,1.18164 0.9302,-0.2043 1.74208,-0.7849 1.89033,-1.35182 0.33107,-1.26597 2.54465,-2.56809 2.54465,-1.49685 0,0.39578 -0.29106,1.01067 -0.64677,1.36638 -1.00499,1.00499 2.2961,0.83357 3.76536,-0.19556 1.04809,-0.73412 1.30248,-0.74235 1.98066,-0.0642 0.42797,0.42797 0.62546,0.9308 0.43886,1.1174 -0.18659,0.18659 0.49194,0.21083 1.50784,0.0538 1.3076,-0.20207 1.53666,-0.14992 0.78423,0.17825 -0.9715,0.42371 -0.93815,0.48741 0.38792,0.74092 0.79794,0.15258 1.32257,0.0699 1.16581,-0.18374 -0.52134,-0.84357 0.55097,-0.45195 4.49467,1.64153 2.14915,1.14086 3.90757,1.8621 3.90757,1.60274 0,-0.7477 0.70215,-0.53452 2.15589,0.65455 1.29643,1.06042 1.29979,1.07873 0.0886,0.48334 -1.98402,-0.97529 -1.9146,-0.27996 0.12752,1.27769 1.87938,1.43346 3.55668,1.44503 3.55668,0.0244 0,-0.41022 -1.81358,-2.00665 -4.03018,-3.54763 -2.21659,-1.54098 -3.92754,-2.90441 -3.80212,-3.02984 0.12548,-0.12548 1.86783,0.88093 3.87202,2.23636 3.72386,2.51838 5.46956,2.94947 2.59178,0.64 -4.17249,-3.34849 -14.03974,-6.74363 -19.62454,-6.75243 -1.77914,-0.002 -2.24159,-0.16052 -1.79101,-0.6112 0.66005,-0.66005 5.41198,0.006 10.81664,1.51735 2.24145,0.62656 3.02267,0.65822 3.63808,0.14749 0.62659,-0.52003 0.78371,-0.48776 0.78371,0.16113 0,1.03587 6.46235,4.93117 7.10865,4.28487 0.56734,-0.56733 -0.20719,-2.85799 -1.25854,-3.72217 -0.40143,-0.32995 -1.33622,-0.71139 -2.0773,-0.84765 -1.15618,-0.21257 -1.10314,-0.25816 0.37366,-0.32114 1.9773,-0.0843 3.19445,1.25168 3.72712,4.09104 0.43601,2.32413 1.15532,2.74992 0.88376,0.52312 -0.15522,-1.27321 -0.0686,-1.5188 0.33145,-0.94047 0.29788,0.43051 0.42202,0.97622 0.27586,1.2127 -0.14606,0.23649 -0.008,0.42997 0.30505,0.42997 0.31393,0 0.57079,-0.36382 0.57079,-0.80847 0,-1.45017 0.0668,-1.61153 0.85031,-2.04992 0.58717,-0.3286 0.63746,-0.68766 0.20856,-1.48904 -0.45443,-0.84911 -0.77193,-0.94536 -1.62047,-0.49124 -0.58042,0.31063 -1.05624,0.98071 -1.05734,1.48904 -0.001,0.58527 -0.40803,0.2583 -1.10904,-0.89159 -1.07869,-1.76933 -1.18274,-1.80955 -4.06373,-1.57064 -1.64623,0.13649 -2.6477,0.0491 -2.25953,-0.19698 0.99977,-0.63426 5.15101,-0.56201 5.55812,0.0968 0.19352,0.31318 1.10423,0.41277 2.08752,0.22829 1.23815,-0.23228 1.9488,-0.0807 2.44937,0.52245 1.0407,1.25398 2.34196,1.0993 1.92059,-0.22832 -0.23648,-0.74509 -0.097,-1.07793 0.45219,-1.07793 1.1816,0 0.49213,1.94289 -1.04746,2.95167 -0.71012,0.46531 -1.29114,1.27912 -1.29114,1.80851 0,0.52937 -0.3561,1.4333 -0.79134,2.00871 -0.43522,0.57543 -0.76989,2.01639 -0.74373,3.20213 l 0.0477,2.15589 0.55082,-2.29064 c 0.31257,-1.29986 0.86738,-2.29064 1.2827,-2.29064 0.45087,0 0.73188,-0.60954 0.73188,-1.58751 0,-1.20206 0.35989,-1.75824 1.48219,-2.29064 0.81519,-0.38672 1.84082,-1.5186 2.27913,-2.51527 0.78387,-1.78234 0.84103,-1.80692 3.47475,-1.49501 1.56687,0.18558 2.86844,0.65787 3.13737,1.13844 0.63565,1.13583 1.48401,1.02941 1.48401,-0.18619 0,-1.1717 2.15725,-1.67209 7.24919,-1.68152 2.49424,-0.004 3.06318,0.13771 2.56012,0.64084 -0.78451,0.78454 -0.8528,2.93511 -0.10776,3.39555 1.001,0.61864 0.54818,3.00728 -0.80847,4.26458 -1.89651,1.75763 -1.76917,3.01156 0.30581,3.01156 1.46774,0 1.6106,0.13608 1.27328,1.21269 -0.20896,0.66698 -0.83886,1.80028 -1.39977,2.51843 -0.73092,0.93585 -0.84196,1.41564 -0.39201,1.69374 0.42367,0.26184 0.25364,0.58824 -0.52296,1.00386 -1.18335,0.63333 -1.59753,2.93308 -0.63532,3.52776 0.28348,0.17519 0.39966,0.62024 0.25816,0.98897 -0.14158,0.36873 0.35419,2.17518 1.10148,4.01435 1.44188,3.54845 1.8197,8.55051 0.84038,11.12628 -0.28509,0.74991 -0.31972,1.48623 -0.077,1.63628 0.24277,0.15013 0.59156,1.54049 0.77506,3.08986 0.2473,2.08806 0.12935,3.04287 -0.45606,3.68966 -0.46105,0.50945 -0.88236,2.34508 -1.01232,4.41058 -0.20548,3.26593 -0.14382,3.51734 0.8025,3.26988 1.14363,-0.29906 1.26738,0.22817 0.51691,2.20209 -0.37965,0.99851 -0.32033,1.40876 0.23442,1.62165 0.58809,0.22567 0.62769,0.70124 0.19027,2.28537 -0.3734,1.35233 -0.3757,2.38803 -0.006,3.19697 0.35894,0.7878 0.36786,1.98592 0.0261,3.50696 -0.30471,1.35613 -0.32534,2.8865 -0.0501,3.7053 0.25799,0.76722 0.36115,2.45389 0.22923,3.74817 l -0.23989,2.35322 -2.22806,-0.38405 c -1.22542,-0.21121 -4.04708,-0.34565 -6.27034,-0.29876 -2.50531,0.053 -4.74726,-0.21214 -5.89633,-0.69694 -1.70389,-0.71888 -1.97081,-0.69588 -3.29624,0.28405 -1.4387,1.06367 -1.44748,1.06359 -3.60545,-0.0373 -2.23813,-1.14182 -3.80078,-1.08215 -9.36263,0.35738 -2.1423,0.55447 -3.13079,0.2143 -5.35056,-1.84132 -1.1959,-1.10748 -1.60835,-1.20149 -3.23028,-0.73632 -1.02263,0.2933 -2.70981,0.49692 -3.74931,0.45249 -1.79983,-0.0768 -1.81287,-0.0911 -0.27305,-0.29521 5.89408,-0.78172 11.43066,-3.58911 13.16537,-6.67563 1.07235,-1.90796 3.17982,-3.72786 4.31693,-3.72786 0.29839,0 0.7349,0.74241 0.97004,1.6498 0.7281,2.80985 1.37793,2.02212 1.58327,-1.91928 0.12079,-2.31961 0.73953,-5.22604 1.60618,-7.54565 1.53919,-4.1196 2.5509,-5.69772 2.25443,-3.51661 -0.12671,0.93182 0.10307,1.39069 0.76186,1.52169 0.93903,0.1868 1.05817,-0.20187 1.08223,-3.52957 0.004,-0.67435 0.3428,-1.21268 0.76125,-1.21268 1.08016,0 6.27364,2.70726 5.90353,3.0774 -0.1705,0.1705 -0.67973,0.004 -1.13155,-0.37173 -0.66496,-0.55186 -0.82149,-0.54713 -0.82149,0.0249 0,0.42817 -0.43302,0.24178 -1.09894,-0.47298 -0.60442,-0.64879 -1.30374,-1.17961 -1.55406,-1.17961 -0.78985,0 -1.11743,2.38928 -0.42283,3.0839 0.91654,0.91652 4.45438,1.61134 3.93629,0.77307 -0.2118,-0.34272 -0.25716,-0.62312 -0.10084,-0.62312 0.48132,0 4.56283,5.75111 5.54865,7.81841 0.84758,1.77738 0.99348,1.86785 1.62328,1.00655 0.3806,-0.52051 0.71289,-0.7181 0.73844,-0.43913 0.0255,0.279 0.0862,1.33477 0.13465,2.34617 0.11,2.29264 1.43576,2.97482 1.43576,0.73883 0,-2.06915 -1.17973,-4.52751 -2.02116,-4.2118 -0.39274,0.14728 -0.67372,-0.17865 -0.67372,-0.78146 0,-0.56883 -0.31676,-1.22821 -0.7039,-1.46527 -0.38715,-0.23705 -1.24188,-1.52244 -1.89939,-2.85639 l -1.19549,-2.4254 1.22568,1.50369 c 0.67411,0.827 2.01267,2.4315 2.97453,3.56554 2.05823,2.42661 3.3764,5.3483 3.3588,7.44462 -0.006,0.82471 -0.67391,2.69995 -1.48217,4.16721 -1.27784,2.31959 -1.88989,2.83589 -4.69043,3.9564 -2.78358,1.11372 -3.49394,1.20686 -5.23238,0.68602 -2.46485,-0.7385 -2.9458,-1.35418 -1.14244,-1.46253 0.74241,-0.0446 1.62865,-0.37719 1.96941,-0.73909 0.48405,-0.51406 0.18843,-0.58144 -1.35165,-0.30807 -1.36863,0.24294 -2.05585,0.13934 -2.24809,-0.33886 -0.15237,-0.37882 -0.29601,0.19372 -0.31941,1.27241 -0.0397,1.82949 0.0854,1.98516 1.86253,2.31855 1.04779,0.19658 3.5338,0.33785 5.52449,0.31397 1.99066,-0.0238 4.28778,0.11347 5.10468,0.30499 1.66032,0.38947 3.10539,-0.48594 3.0796,-1.86558 -0.0143,-0.76926 -0.0839,-0.76113 -0.56575,0.066 -0.30214,0.51876 -0.84048,0.9432 -1.19629,0.9432 -0.96547,0 -0.75477,-2.76139 0.33489,-4.38954 1.4747,-2.20341 1.69366,-4.92442 0.65374,-8.12429 -1.13104,-3.48025 -3.25581,-6.31972 -7.34874,-9.82064 -1.71163,-1.46407 -3.09859,-2.79802 -3.08215,-2.96437 0.15237,-1.54079 -0.19291,-1.77243 -2.17072,-1.45617 -1.14012,0.18231 -2.22193,0.18252 -2.404,4.2e-4 -0.18212,-0.18211 0.0232,-1.17874 0.45602,-2.21482 0.96948,-2.32026 0.99433,-2.11119 -0.29086,-2.44727 -1.47331,-0.38527 -1.47547,-3.21166 -0.004,-4.22463 0.75793,-0.52145 0.92892,-0.96757 0.58005,-1.51326 -0.40996,-0.64127 -0.64019,-0.65304 -1.34422,-0.0687 -0.58337,0.48415 -0.87608,1.73982 -0.93422,4.00765 l -0.0847,3.30259 -0.3507,-2.69486 -0.35072,-2.69487 -0.27892,2.42537 c -0.21116,1.83634 -0.28629,1.44363 -0.30931,-1.61692 -0.023,-3.06025 0.0793,-3.64949 0.42078,-2.42538 0.29635,1.06209 0.39173,-0.23251 0.27796,-3.77281 -0.18884,-5.87549 -1.69282,-14.05069 -2.83375,-15.40321 -0.39478,-0.46799 -0.7255,-1.19561 -0.73493,-1.61692 -0.0204,-0.88207 -1.25559,-2.65244 -1.85161,-2.65244 -0.22135,0 -0.26761,0.35145 -0.10287,0.78101 0.2068,0.53892 0.0407,0.68164 -0.53571,0.46044 -0.45946,-0.17621 -1.04974,0.0183 -1.31173,0.43169 -0.36957,0.58366 -0.48362,0.51067 -0.50888,-0.32571 -0.0255,-0.83996 -0.19597,-0.72097 -0.77295,0.53899 -0.40721,0.8893 -0.76007,1.40531 -0.78415,1.14669 -0.024,-0.25863 -0.39696,-0.17702 -0.82863,0.18109 -0.43166,0.35826 -0.98656,0.52673 -1.2331,0.37436 -0.24653,-0.15238 -0.49697,0.31183 -0.55653,1.03155 -0.13546,1.63717 0.55661,1.67585 1.71584,0.0959 0.86071,-1.17306 0.87177,-1.17443 0.33865,-0.0418 -1.22343,2.59916 -5.04374,4.53293 -6.85187,3.46825 -0.78881,-0.46447 -0.63731,-0.51385 0.76943,-0.25074 1.67245,0.31281 1.75167,0.25144 1.75167,-1.35667 0,-1.43591 -0.19821,-1.68431 -1.34334,-1.68431 -0.73883,0 -1.94775,-0.52552 -2.68647,-1.16783 -1.32534,-1.15237 -1.32888,-1.17781 -0.267,-1.92156 0.59185,-0.41457 1.74013,-0.653 2.55172,-0.52984 1.36534,0.20717 1.34472,0.22992 -0.27607,0.30464 -0.96341,0.0444 -1.74795,0.26266 -1.7434,0.48499 0.0218,1.06956 1.04864,1.82403 2.20859,1.6228 l 1.28649,-0.22316 -1.34744,-0.59828 c -0.74109,-0.32907 -0.98364,-0.60994 -0.53897,-0.6242 1.25155,-0.0401 2.26785,0.79397 3.00846,2.46909 0.6602,1.49325 0.67788,1.49879 0.72058,0.22581 0.024,-0.71776 -0.35763,-1.74854 -0.84822,-2.29064 -0.49061,-0.54211 -0.63208,-0.98566 -0.3144,-0.98566 0.31766,0 0.67119,0.28085 0.78562,0.62412 0.13057,0.39146 0.74283,0.48987 1.64281,0.26398 1.84479,-0.46301 1.4982,-1.23968 -1.56029,-3.49648 -2.24143,-1.65388 -2.56885,-1.74628 -4.0355,-1.13877 -1.60437,0.66456 -2.9626,2.42033 -2.73887,3.54051 0.0662,0.331 -0.24681,0.90641 -0.6954,1.27869 -0.59767,0.49602 -0.81556,1.77522 -0.81556,4.78792 2e-5,4.04018 0.032,4.13661 1.85762,5.59324 2.57023,2.0508 3.94499,1.85589 4.75197,-0.67372 0.36975,-1.15901 -0.0481,1.64795 -0.46129,3.09909 -0.55211,1.93893 0.71253,1.41748 1.30713,-0.53896 1.00007,-3.2906 1.17221,-4.6499 0.63116,-4.98428 -0.29753,-0.18395 -0.54467,-0.0163 -0.54921,0.37119 -0.006,0.50373 -0.12162,0.52836 -0.40424,0.0862 -0.21778,-0.34066 -1.00232,-0.73208 -1.7434,-0.86981 -1.00723,-0.1872 -0.84188,-0.26895 0.65496,-0.32383 1.41771,-0.0519 2.59192,-0.58488 4.02131,-1.82507 l 2.01894,-1.75165 -1.40218,1.8864 c -0.77119,1.03752 -1.56235,2.64314 -1.75813,3.56805 -0.30542,1.44296 -0.18272,1.72692 0.8649,2.00089 1.53888,0.40242 2.04911,-0.38419 2.05964,-3.17528 0.004,-1.20319 0.36435,-2.65844 0.79957,-3.23385 1.12297,-1.48469 1.11413,-2.76509 -0.0122,-1.82998 -0.74575,0.61893 -0.76603,0.53724 -0.18394,-0.74029 0.63116,-1.38524 0.68009,-1.3991 1.38529,-0.39227 0.62855,0.89736 0.58614,1.33146 -0.30257,3.09691 -0.56846,1.12929 -1.14646,3.36416 -1.28441,4.96637 -0.22815,2.64962 -0.18599,2.79588 0.46742,1.61692 0.39505,-0.71291 0.72687,-1.88233 0.73736,-2.5987 0.0102,-0.7164 0.16439,-1.15718 0.34211,-0.97953 0.40733,0.40733 -0.21461,4.19895 -0.86005,5.24331 -0.40418,0.65396 -0.70679,0.57413 -1.83253,-0.48345 -0.9003,-0.84578 -1.67095,-1.14249 -2.31902,-0.89283 -0.91079,0.35086 -0.90417,0.40904 0.10735,0.94365 0.59287,0.31336 1.38114,0.94974 1.75168,1.41421 0.84728,1.06203 0.87453,4.99773 0.0473,6.81355 -0.61823,1.35689 -0.20656,2.64016 0.5211,1.6244 0.20617,-0.28784 0.67808,-0.52337 1.04862,-0.52337 0.37055,0 0.61308,-0.24253 0.53897,-0.53896 -0.0741,-0.29644 -0.3464,-0.46843 -0.60509,-0.3822 -0.25871,0.0862 -0.31933,-0.23677 -0.13465,-0.7178 0.18456,-0.48101 0.33561,-1.21855 0.33561,-1.63896 0,-0.42041 0.36382,-0.76437 0.80847,-0.76437 0.44465,0 0.80474,-0.42445 0.8002,-0.94321 -0.006,-0.72232 -0.11489,-0.77486 -0.46396,-0.2243 -0.36354,0.57348 -0.5254,0.5373 -0.80022,-0.17885 -0.18945,-0.49375 -0.34077,-1.30234 -0.33624,-1.79686 0.008,-0.77887 0.0798,-0.79099 0.54294,-0.0907 0.45392,0.68631 0.68767,0.61104 1.54725,-0.49837 2.91496,-3.76208 4.5667,-0.19128 4.42239,9.56053 -0.0837,5.6645 0.0947,6.27639 1.5965,5.47263 0.87518,-0.46839 1.04524,-0.38094 1.04524,0.53752 0,0.6033 0.28296,1.09692 0.6288,1.09692 0.34583,0 0.51933,0.10939 0.38555,0.24324 -0.13383,0.13384 -1.44754,-0.0629 -2.91944,-0.43701 l -2.6762,-0.68028 -0.16296,-2.79683 c -0.14443,-2.47795 -0.29797,-2.79496 -1.34744,-2.78044 -1.06374,0.0143 -1.08835,0.0725 -0.24133,0.56576 1.2501,0.72813 1.2501,3.83617 0,4.91724 -0.51876,0.44862 -1.78164,1.09743 -2.80643,1.44181 -2.12428,0.71389 -4.33496,2.59382 -4.33496,3.68638 0,0.40599 -0.42445,0.66688 -0.94323,0.57977 -0.73546,-0.12344 -0.91888,0.18252 -0.83275,1.38934 0.0607,0.85123 0.2265,1.66378 0.36836,1.80564 0.53469,0.53467 1.40762,-0.49935 1.40762,-1.6674 0,-2.38869 4.89409,-5.72826 8.39469,-5.72826 1.9429,0 1.97427,0.0332 1.65027,1.75168 -0.18171,0.96341 -1.3034,3.69235 -2.49276,6.06429 -1.18936,2.37196 -2.16247,4.61545 -2.16247,4.98552 0,1.22807 -4.24101,4.98466 -5.62742,4.98466 -1.54593,0 -2.26612,0.82913 -1.10666,1.27405 1.3816,0.53016 0.89715,1.38636 -1.72554,3.04961 -2.98571,1.8935 -3.39084,1.96432 -3.015,0.52711 0.44445,-1.69961 -2.085,-1.62729 -5.08969,0.14545 -1.89631,1.11884 -1.68841,2.04334 0.23047,1.02479 0.68702,-0.3647 1.17736,-0.29577 1.66805,0.23452 0.58788,0.63535 0.23498,0.75105 -2.29064,0.75105 -3.11335,0 -3.873,-0.74846 -2.18308,-2.15096 1.16748,-0.96893 0.49405,-1.60501 -1.21404,-1.14669 -1.90537,0.51127 -5.16197,-0.10796 -3.76863,-0.71645 1.50486,-0.65732 0.53159,-1.37563 -1.86392,-1.37563 h -2.20763 l 1.02674,1.15511 c 0.56472,0.63533 1.75437,1.63127 2.64367,2.21324 0.8893,0.58197 1.2531,0.93432 0.80845,0.78301 -0.44465,-0.15136 -1.29354,-0.43946 -1.88641,-0.64032 l -1.07795,-0.3652 1.07795,0.87588 c 0.59287,0.48172 1.62367,1.01289 2.29064,1.18038 0.66698,0.16744 1.21642,0.70264 1.22094,1.18928 0.008,0.76816 0.0772,0.77822 0.53074,0.0764 0.46441,-0.71864 0.5243,-0.71864 0.53897,0 0.0143,0.71863 0.0745,0.71863 0.53896,0 0.28737,-0.44465 0.54614,-0.68719 0.57505,-0.53897 0.6664,3.41598 0.58113,3.62843 -1.04809,2.61095 -0.77325,-0.48289 -1.79588,-0.42232 -4.55,0.26948 -5.34068,1.34154 -11.76851,1.16494 -15.64745,-0.42992 -3.45862,-1.42204 -4.21082,-1.34067 -6.41296,0.69368 l -1.48217,1.36928 z m 16.70819,-0.44064 c 0,-0.79539 -1.51908,-1.58412 -3.156,-1.63867 -0.99473,-0.0332 -1.98629,-0.34781 -2.20348,-0.69925 -0.28951,-0.46842 -0.58492,-0.41 -1.10692,0.21899 -0.50481,0.60825 -1.17722,0.75575 -2.31049,0.50684 -2.17605,-0.47794 -1.44242,0.65999 0.85356,1.32397 1.91429,0.5536 7.92333,0.77211 7.92333,0.28812 z m 2.00992,-0.0183 c -0.17906,-0.17906 -0.64396,-0.19821 -1.03302,-0.0426 -0.42996,0.17213 -0.30226,0.29975 0.32563,0.32562 0.56815,0.0234 0.88649,-0.10409 0.70739,-0.28309 z m 24.6693,-0.21336 c -0.35775,-0.57887 -0.29821,-0.58731 5.38975,-0.76404 2.40556,-0.0748 4.15809,0.14015 4.83594,0.5929 2.17881,1.45535 5.17248,0.16236 5.10092,-2.20304 -0.0336,-1.11322 -0.0409,-1.11255 -0.50857,0.0483 -0.26093,0.64761 -0.94936,1.43166 -1.52986,1.74233 -0.90692,0.48537 -1.01613,0.41448 -0.776,-0.50375 0.15359,-0.58771 0.4937,-1.06858 0.75555,-1.06858 0.26186,0 0.47612,-0.21689 0.47612,-0.48197 0,-0.71039 -3.02965,-3.82983 -3.71958,-3.82983 -1.02051,0 -0.64761,1.37697 0.72112,2.66283 1.0782,1.01291 1.20364,1.40949 0.70059,2.21499 -0.33702,0.53966 -0.81854,0.854 -1.07003,0.69857 -0.2515,-0.15543 -0.17356,-0.62444 0.17315,-1.04221 0.52615,-0.63399 0.2519,-0.62605 -1.65852,0.0481 -1.25891,0.44416 -2.84951,0.80757 -3.5347,0.80757 -1.11035,0 -1.21418,-0.19494 -0.9549,-1.79261 0.40454,-2.49291 -1.02825,-4.0071 -2.71195,-2.866 -0.79973,0.54201 -1.12584,1.28818 -1.07058,2.44954 0.0966,2.02767 -0.20167,2.1278 -0.89619,0.30097 -0.44322,-1.16579 -0.68137,-1.28304 -1.60358,-0.7895 -1.25731,0.6729 -1.33998,1.11144 -0.40932,2.17127 0.37056,0.42198 0.16948,0.34921 -0.44667,-0.16175 -1.56861,-1.30052 -2.2189,-1.16002 -0.98429,0.21265 1.37306,1.52664 4.51579,2.83833 3.7216,1.55331 z m 2.77573,-3.23385 c 0.35978,-1.79899 -0.48918,-2.21193 -1.38511,-0.67372 -0.30216,0.51876 -0.55675,0.66973 -0.56577,0.33549 -0.0236,-0.87889 1.45514,-1.97113 2.1159,-1.56276 0.71112,0.43948 0.74357,3.51792 0.0371,3.51792 -0.29643,0 -0.38453,-0.70481 -0.20207,-1.61693 z m -21.50508,2.89415 c 0.66699,-0.17865 1.2127,-0.53926 1.2127,-0.8011 0,-0.71845 -1.21657,-0.54082 -2.39365,0.34948 -1.11656,0.84453 -0.77399,0.97553 1.18095,0.45162 z m -21.9632,-1.07837 c 0,0.18191 1.60537,-0.27341 3.56751,-1.01195 3.44051,-1.295 7.92379,-1.75072 9.15245,-0.93031 0.32615,0.21778 0.85449,0.89324 1.17404,1.50102 1.02762,1.95446 7.12599,1.54008 7.12599,-0.4842 0,-0.37877 -0.7276,-1.38575 -1.61692,-2.23778 l -1.61692,-1.5491 -0.0163,1.31354 c -0.0102,0.72242 -0.40586,1.79859 -0.88097,2.39147 l -0.86384,1.07794 0.41131,-1.07794 c 0.82694,-2.16725 0.90028,-3.40862 0.27084,-4.58472 -0.5431,-1.01481 -0.9672,-1.15877 -2.72091,-0.92353 -1.14265,0.15319 -2.75587,0.75466 -3.58495,1.33646 -0.82907,0.58179 -2.47757,1.36107 -3.66332,1.73173 -1.18574,0.37067 -3.23148,1.26119 -4.54609,1.97893 -2.14454,1.17087 -2.28828,1.19238 -1.39863,0.20933 0.54535,-0.6026 1.16688,-1.09563 1.38116,-1.09563 0.2143,0 1.32089,-0.38912 2.4591,-0.8647 1.95447,-0.81662 2.01214,-0.90666 1.03732,-1.61945 -0.56771,-0.41511 -1.50466,-0.6048 -2.08211,-0.42153 -0.90912,0.28853 -0.9496,0.22585 -0.30191,-0.4675 0.66011,-0.70666 0.96675,-0.68348 2.61001,0.19718 1.85343,0.99338 1.87254,0.99183 4.14244,-0.33841 1.25422,-0.73504 2.66165,-1.33642 3.12763,-1.33642 0.46598,0 0.84724,-0.24254 0.84724,-0.53899 0,-0.29643 -0.31623,-0.53897 -0.70273,-0.53897 -0.38651,0 -1.53206,-0.85565 -2.54568,-1.90142 -1.01363,-1.04581 -3.58375,-2.72773 -5.71141,-3.73765 -2.12766,-1.00992 -4.01494,-2.07321 -4.19398,-2.36288 -0.17905,-0.28969 0.88713,0.0583 2.3692,0.77327 3.27805,1.58138 3.16167,1.57869 3.76114,0.0872 0.48529,-1.20731 0.48759,-1.20672 0.52165,0.13465 0.0242,0.95754 0.98325,2.1662 3.31408,4.17705 3.81354,3.29001 5.30952,3.75238 4.01003,1.23945 -0.45227,-0.87459 -0.8223,-2.20107 -0.8223,-2.94776 0,-0.74668 -0.49193,-2.30139 -1.09319,-3.45492 -0.86284,-1.65541 -0.97922,-2.39708 -0.55231,-3.51994 0.29747,-0.78243 0.45333,-1.4226 0.34634,-1.4226 -0.37303,0 -2.75956,1.38066 -5.03182,2.91103 -1.92744,1.29812 -2.67313,1.49806 -4.72453,1.26683 -1.33974,-0.15095 -2.5541,-0.0833 -2.69859,0.15054 -0.44628,0.72208 0.35105,2.13929 1.20354,2.13929 0.51974,0 0.69024,0.30804 0.47745,0.86259 -0.21135,0.55077 0.16806,1.25523 1.04962,1.94862 1.94381,1.52901 1.58174,3.2069 -0.83394,3.86467 -2.34464,0.63843 -2.5712,0.81896 -1.70197,1.35617 0.5242,0.32398 0.34305,0.84274 -0.74634,2.13742 -1.051,1.24905 -1.28628,1.89305 -0.87339,2.39058 0.3571,0.43027 0.38113,0.97195 0.0652,1.47135 -0.77014,1.2177 -0.60782,1.80672 0.29207,1.05987 0.44465,-0.36902 0.80845,-0.52208 0.80845,-0.34011 z m 6.73717,-0.73782 c 0.18313,-0.29644 -0.045,-0.53899 -0.50715,-0.53899 -0.46215,0 -0.84027,0.24255 -0.84027,0.53899 0,0.29643 0.22822,0.53897 0.50715,0.53897 0.27896,0 0.65708,-0.24254 0.84027,-0.53897 z m 5.12027,0 c 0,-0.29644 -0.37812,-0.53899 -0.84027,-0.53899 -0.46215,0 -0.69038,0.24255 -0.50716,0.53899 0.18313,0.29643 0.56133,0.53897 0.84027,0.53897 0.27893,0 0.50716,-0.24254 0.50716,-0.53897 z m 36.20475,-2.36109 c 0.20597,-1.4399 0.16561,-3.01357 -0.0896,-3.49705 -0.25529,-0.48348 -0.5955,-1.30348 -0.75606,-1.82224 -0.37952,-1.22633 -0.94508,-1.18961 -2.67844,0.17376 -1.77544,1.39658 -1.79439,2.28657 -0.0727,3.41466 1.01845,0.66732 1.34744,1.35007 1.34744,2.79638 0,1.52778 0.18904,1.87712 0.93744,1.73298 0.66979,-0.12895 1.04436,-0.92803 1.31193,-2.79857 z m 17.92098,1.53005 c 1.80091,-1.18002 2.08199,-2.25787 0.98165,-3.76446 -0.66337,-0.90829 -1.25808,-1.18959 -2.01843,-0.95474 -4.75658,1.46918 -5.65867,1.6736 -5.37743,1.21854 0.17641,-0.2855 0.62919,-0.51907 1.0061,-0.51907 0.37692,0 1.86476,-0.5971 3.30629,-1.3269 1.92855,-0.97637 2.80547,-1.17382 3.31926,-0.7474 0.38405,0.31874 0.57889,0.77268 0.43298,1.00877 -0.34034,0.55066 0.26213,2.14347 0.81073,2.14347 0.50621,0 0.34404,-2.58574 -0.24704,-3.93853 -0.2341,-0.53581 -0.71652,-0.86256 -1.07204,-0.72614 -0.35553,0.13649 -1.69468,-0.45597 -2.97592,-1.31645 -2.50418,-1.68182 -5.67995,-2.08488 -7.019,-0.89079 -0.63762,0.56857 -0.64997,0.53353 -0.0792,-0.22446 0.56506,-0.75038 0.51644,-0.93964 -0.29548,-1.15017 -0.57034,-0.1479 -0.30383,-0.27252 0.6451,-0.30165 2.49818,-0.0768 5.67572,0.81203 7.36294,2.05945 1.41456,1.04583 1.53013,1.05793 1.53013,0.16032 0,-0.534 -0.92895,-2.38361 -2.06431,-4.11025 -1.79936,-2.73644 -2.4359,-3.26516 -4.95969,-4.11955 -2.6942,-0.91207 -2.94171,-0.91784 -3.5621,-0.0829 -0.55709,0.74976 -0.84813,0.78651 -1.77017,0.22354 -1.49439,-0.9124 -1.42804,-0.95355 -2.407,1.49309 -1.20828,3.01983 -1.11627,4.19052 0.34571,4.39815 0.94455,0.13404 1.21685,0.52974 1.23149,1.78914 0.0143,1.21707 0.38071,1.79081 1.48219,2.32006 1.47688,0.70961 1.9178,1.91676 0.9244,2.53071 -0.29645,0.18313 -0.53898,0.95483 -0.53898,1.71472 0,1.18509 0.11855,1.28329 0.83299,0.6903 0.45814,-0.38022 0.72068,-0.984 0.5834,-1.34175 -0.19108,-0.49776 0.0521,-0.50913 1.03579,-0.0485 0.70698,0.33113 1.0508,0.68291 0.76404,0.78171 -0.28674,0.0988 -0.52135,0.53424 -0.52135,0.96763 0,0.6024 0.42655,0.70796 1.81114,0.44819 2.29739,-0.43098 3.05346,0.89627 1.26539,2.2213 -1.14667,0.8497 -1.0965,0.87028 1.37408,0.56348 1.41032,-0.17519 3.14837,-0.70118 3.86232,-1.169 z m -2.08628,-2.89576 c -0.17356,-0.28079 -0.0858,-0.65249 0.19495,-0.82603 0.28079,-0.17356 0.65251,-0.0858 0.82605,0.19495 0.17356,0.28079 0.0858,0.65251 -0.19495,0.82605 -0.28079,0.17356 -0.65251,0.0858 -0.82605,-0.19495 z m -9.72616,-9.20241 c -0.18884,-0.30552 0.0275,-0.39588 0.50716,-0.21183 0.93374,0.35832 1.10456,0.74462 0.3293,0.74462 -0.27894,0 -0.65535,-0.23976 -0.83646,-0.53279 z m -2.96817,11.9112 c 0,-0.25681 -0.34024,-0.74929 -0.75606,-1.09439 -0.58057,-0.48183 -0.82088,-0.46588 -1.0354,0.0686 -0.19882,0.49566 -0.29161,0.45905 -0.3219,-0.12711 -0.0625,-1.20902 1.50056,-3.21904 2.50323,-3.21904 0.47724,0 0.71758,0.15013 0.53408,0.33367 -0.3416,0.34158 0.87755,1.82224 1.50042,1.82224 0.19006,0 0.26796,-0.54571 0.17315,-1.21269 -0.12976,-0.91354 -0.58244,-1.25273 -1.83505,-1.37498 -1.96076,-0.19128 -2.85332,0.69069 -3.26479,3.22627 -0.26742,1.64803 -0.16704,1.82328 1.10403,1.92847 0.76901,0.0636 1.3982,-0.0943 1.3982,-0.35123 z m 20.84918,-0.69997 c -0.17213,-0.42997 -0.29975,-0.30224 -0.32562,0.32562 -0.0234,0.56818 0.10409,0.88651 0.28309,0.70741 0.17906,-0.17905 0.1982,-0.64397 0.0426,-1.03303 z m -52.12671,-1.38113 c -0.0308,-0.73119 -2.72546,-3.50065 -3.07043,-3.15567 -0.18558,0.18558 0.35738,1.06239 1.20643,1.9486 1.62177,1.69276 1.89182,1.86765 1.864,1.20707 z m 10.25753,-0.77629 c 0,-0.70843 -1.22497,-0.26482 -1.49354,0.54086 -0.13139,0.39385 0.1151,0.5143 0.64005,0.31287 0.46942,-0.18007 0.85349,-0.5643 0.85349,-0.85373 z m 8.62358,-0.97537 c 0,-0.29643 -0.24253,-0.53899 -0.53897,-0.53899 -0.29643,0 -0.53896,0.24256 -0.53896,0.53899 0,0.29643 0.24253,0.53897 0.53896,0.53897 0.29644,0 0.53897,-0.24254 0.53897,-0.53897 z m -14.24556,-1.13821 c 0.20371,-0.32958 0.0361,-0.81094 -0.37244,-1.06969 -1.02118,-0.64683 -3.70712,-0.60914 -3.70712,0.052 0,0.29645 0.47077,0.53899 1.04614,0.53899 0.57537,0 1.19605,0.24253 1.37924,0.53896 0.43994,0.71186 1.19396,0.68438 1.65418,-0.0603 z m 8.81938,-1.42192 c -0.79676,-1.64468 -1.01006,-3.65627 -1.14507,-10.79943 -0.0913,-4.82803 -0.28719,-9.1092 -0.43541,-9.51366 -0.22167,-0.60492 -0.595,-0.57748 -2.1041,0.15462 l -1.83461,0.89007 0.10532,8.6236 c 0.0927,7.59741 -0.0183,8.86408 -0.93691,10.64474 l -1.04216,2.02114 h 4.18607 4.18607 z m 21.32592,0.94321 c 0.18314,-0.29644 0.0163,-0.54661 -0.37241,-0.55592 -0.38804,-0.0102 -1.15005,-0.62725 -1.69334,-1.37321 -0.78553,-1.07854 -0.85481,-1.51653 -0.33823,-2.13896 0.53858,-0.64897 0.41807,-0.78268 -0.70544,-0.78268 -1.00771,0 -1.44462,0.35708 -1.7047,1.39327 -0.55561,2.21379 0.0878,3.36846 2.01061,3.60853 0.94907,0.11855 1.89315,0.25424 2.098,0.30169 0.20482,0.0475 0.5223,-0.15625 0.70551,-0.45272 z m -15.02152,-4.55666 c 2.63833,-4.38943 2.76355,-4.51045 3.4124,-3.29805 0.96086,1.79539 0.24239,3.52561 -1.61856,3.89781 -0.85416,0.17091 -1.95627,0.92601 -2.4491,1.67817 -0.83968,1.28152 -0.83819,1.34536 0.0236,1.01469 0.50578,-0.19414 1.25514,-0.35288 1.66524,-0.35288 0.41008,0 1.60295,-0.75274 2.65078,-1.67276 1.4786,-1.29825 1.90516,-2.08262 1.90516,-3.50333 0,-1.26787 -0.24852,-1.83059 -0.80845,-1.83059 -0.44465,0 -0.80847,-0.0955 -0.80847,-0.21247 0,-0.62226 3.16145,-3.46735 4.04116,-3.63678 0.68541,-0.132 1.29107,-1.04762 1.82034,-2.75189 0.43624,-1.40476 0.68739,-2.65988 0.5581,-2.78918 -0.12936,-0.12935 -1.3844,0.0102 -2.7891,0.30964 -2.14265,0.45697 -2.60164,0.77637 -2.84981,1.98308 -0.16276,0.7911 -0.50308,2.166 -0.75639,3.0553 -0.35754,1.25524 -0.40332,1.01411 -0.20464,-1.07795 0.22907,-2.41185 0.17417,-2.59464 -0.52324,-1.74039 -0.42854,0.52497 -0.93671,1.93961 -1.12923,3.14364 -0.41534,2.59736 -2.78575,7.48983 -3.62883,7.48983 -0.33563,0 -0.48509,-0.56313 -0.34455,-1.29822 0.16643,-0.87071 0.0324,-1.21542 -0.40717,-1.04677 -0.36044,0.13832 -0.80436,1.26822 -0.98649,2.51093 -0.18212,1.24269 -0.48403,2.80514 -0.67083,3.47214 -0.235,0.83905 -0.10878,1.21269 0.40984,1.21269 0.41222,0 1.98196,-2.05049 3.48829,-4.55666 z m -21.16845,0.3188 c 0.93695,-0.88021 1.16,-1.57736 0.98484,-3.07784 l -0.22646,-1.93988 -2.0915,2.0423 c -1.15033,1.12326 -2.0915,1.84784 -2.0915,1.61018 0,-0.23766 0.74432,-1.12744 1.65408,-1.97726 1.25919,-1.17626 1.53434,-1.75909 1.15253,-2.44134 -0.34153,-0.61029 -0.62147,-0.70218 -0.87743,-0.28802 -0.20674,0.3345 -0.1047,0.60818 0.22671,0.60818 0.33143,0 0.4454,0.25431 0.25331,0.56515 -0.50748,0.8211 -1.78117,-0.38662 -2.68233,-2.54341 -0.4124,-0.98702 -0.97647,-1.79457 -1.25347,-1.79457 -0.97775,0 -1.01134,2.73415 -0.0556,4.51752 0.53175,0.99218 1.13601,2.74638 1.34275,3.89822 0.20672,1.15186 0.76961,2.54709 1.25082,3.10056 0.85166,0.9795 0.87928,0.97769 1.0384,-0.0678 0.0898,-0.59073 0.70853,-1.58614 1.37475,-2.21201 z m 2.23048,0.73453 c 0.23596,-1.11668 0.18456,-1.36681 -0.16622,-0.80847 -0.8234,1.31093 -1.39038,3.59171 -0.73689,2.96436 0.30876,-0.29643 0.71515,-1.26659 0.90305,-2.15589 z m 5.46778,0.97537 c 0.28435,-1.13304 0.1098,-1.61872 -0.79821,-2.22165 -1.45363,-0.96518 -1.48636,-2.4718 -0.0841,-3.87399 0.71864,-0.71862 1.07796,-1.79657 1.07796,-3.23385 0,-1.99176 -0.11285,-2.15613 -1.48219,-2.15921 -0.8152,-0.002 -2.17524,-0.36478 -3.02232,-0.80656 -1.53609,-0.80115 -1.53923,-0.79938 -1.19631,0.67704 0.25366,1.09208 0.20147,1.26826 -0.19882,0.67181 -0.37545,-0.55942 -0.44033,0.35367 -0.21063,2.96436 0.41831,4.75387 0.70711,5.14295 0.76682,1.03304 0.0411,-2.8357 0.10389,-3.00983 0.56504,-1.57201 0.28531,0.88931 0.3793,3.12947 0.20892,4.97815 l -0.30982,3.36122 1.76592,0.77187 c 2.43225,1.0631 2.50659,1.04807 2.91779,-0.59022 z m -7.13825,0.0585 c 0.50594,-1.31847 0.39625,-1.49268 -0.4813,-0.76437 -0.89599,0.74359 -1.07268,1.61693 -0.32715,1.61693 0.26471,0 0.62851,-0.38365 0.80845,-0.85256 z m 15.88536,-1.35025 c -0.8794,-0.54636 -1.25748,0.23239 -0.75101,1.54687 0.32966,0.85559 0.39925,0.84942 0.922,-0.0819 0.42173,-0.75137 0.37828,-1.12367 -0.17091,-1.4649 z m -31.96789,1.0779 c 0.5631,-0.91114 -0.60128,-1.71758 -1.88957,-1.3087 -0.92927,0.29495 -1.03434,0.52045 -0.52723,1.13149 0.75384,0.90831 1.91244,0.99325 2.4168,0.17723 z m -2.32285,-3.32163 c -0.2958,-1.17039 -1.06105,-1.99575 -1.86632,-2.01291 -0.21302,-0.004 -0.27364,0.35555 -0.13465,0.80021 0.13893,0.44465 0.36622,1.17227 0.50513,1.61692 0.42683,1.36624 1.84644,0.98264 1.49592,-0.40422 z m 41.78953,-0.44646 c 0.14585,-1.26396 0.12447,-1.27215 -0.67372,-0.25899 -0.99814,1.26687 -1.06738,2.08801 -0.15054,1.7861 0.37057,-0.12202 0.74149,-0.80923 0.82432,-1.52711 z m -16.05032,-0.33506 c 0,-1.08386 -0.15584,-1.29942 -0.61055,-0.84469 -0.33579,0.33579 -0.46468,0.99065 -0.28639,1.45522 0.49337,1.28578 0.89694,1.01108 0.89694,-0.61053 z m 8.97029,-0.43805 c 0.32216,-0.83956 -0.65103,-2.41851 -1.49065,-2.41851 -0.26015,0 -0.47298,0.72762 -0.47298,1.61692 0,1.7386 1.38681,2.30472 1.96363,0.80159 z m 36.84251,0.27635 c 0,-0.29643 -0.24253,-0.53897 -0.53897,-0.53897 -0.29645,0 -0.53899,0.24254 -0.53899,0.53897 0,0.29645 0.24254,0.53899 0.53899,0.53899 0.29644,0 0.53897,-0.24254 0.53897,-0.53899 z M 292.5076,178.984 c 0.18823,-1.32951 0.18049,-1.33208 -0.9432,-0.3152 -1.37873,1.24775 -1.46459,2.0784 -0.18965,1.83542 0.5267,-0.10043 1.02697,-0.77168 1.13289,-1.52022 z m 7.62544,-1.85161 c 0,-0.18599 -0.48509,-0.0786 -1.07796,0.23872 -0.59286,0.31729 -1.07793,1.08614 -1.07793,1.70857 0,1.06999 0.0587,1.05699 1.07793,-0.23872 0.59287,-0.75372 1.07796,-1.52257 1.07796,-1.70857 z m 23.17588,2.43869 c 0,-0.27219 0.13791,-0.85437 0.30654,-1.29372 0.20658,-0.53834 -0.0122,-0.77242 -0.67372,-0.7178 -0.775,0.0642 -0.9511,-0.25751 -0.84102,-1.53589 0.0766,-0.8893 0.0102,-2.16797 -0.14789,-2.84149 -0.23818,-1.01545 -0.46297,-1.13051 -1.31648,-0.67371 -1.40158,0.75008 -1.95693,0.695 -2.94401,-0.29208 -0.51303,-0.51304 -1.52998,-0.77669 -2.59863,-0.67372 l -1.7557,0.16928 1.8864,1.22243 c 3.75096,2.43065 5.34861,3.63626 5.36898,4.05154 0.0707,1.43937 2.71564,3.95741 2.71564,2.58524 z m -32.88322,-0.84554 c 0.74385,-0.89631 0.31279,-3.51034 -0.57888,-3.51034 -1.95629,0 -3.52852,2.7138 -2.28984,3.95248 0.62739,0.6274 2.17964,0.38816 2.86872,-0.44214 z m -33.69471,-1.33076 c 0.17518,-0.28342 -0.31017,-0.92717 -1.07847,-1.43061 -1.26498,-0.82882 -1.47628,-0.83595 -2.23684,-0.0754 -0.46197,0.46194 -0.67564,1.10572 -0.47484,1.43061 0.44891,0.72636 3.35214,0.78411 3.79015,0.0754 z m 2.54739,-0.54701 c 1.03222,-0.96166 1.05343,-1.09562 0.22371,-1.41401 -1.08341,-0.41575 -1.5573,-0.0395 -1.77887,1.41225 -0.20426,1.3385 0.11998,1.33887 1.55516,0.002 z m 9.98715,0.19759 c -0.17905,-0.17906 -0.64395,-0.19821 -1.03303,-0.0426 -0.42995,0.17213 -0.30224,0.29975 0.32564,0.32562 0.56816,0.0234 0.88649,-0.10389 0.70739,-0.28307 z m 2.48673,-1.68266 c 0.19088,-1.17677 0.0835,-2.2368 -0.25954,-2.56014 -0.41552,-0.39165 -0.48327,-0.21298 -0.23345,0.61552 0.19352,0.64204 0.0996,1.32332 -0.20892,1.51399 -0.30849,0.19067 -0.56089,-0.0316 -0.56089,-0.49361 0,-1.0343 -1.01714,-1.05621 -2.34462,-0.0505 -1.27942,0.96929 -0.61039,2.08051 1.06036,1.76114 0.84432,-0.16154 1.28426,0.006 1.28426,0.48819 0,1.58443 0.95533,0.62018 1.2628,-1.27458 z m 15.05442,0.96156 c 0.30312,-1.15913 -0.0483,-1.77337 -0.76214,-1.33218 -0.61068,0.37741 -0.60031,2.37893 0.0122,2.37893 0.26186,0 0.5993,-0.47103 0.74984,-1.04675 z m -29.36009,-3.21891 c -0.11387,-0.98026 -0.48171,-1.39358 -1.23995,-1.39358 -1.28015,0 -1.77318,2.07143 -0.77832,3.27016 0.93259,1.12371 2.22711,-0.0798 2.01827,-1.87658 z m 2.49512,-0.10715 c -0.54373,-0.87977 -1.30969,-0.49026 -1.30969,0.66604 0,0.95196 0.13465,1.03218 0.80252,0.47791 0.44139,-0.36632 0.66963,-0.88111 0.50717,-1.14395 z m 4.63696,0.13811 c 0.0143,-0.70075 0.23565,-0.62432 1.06129,0.36626 l 1.04335,1.25184 3.4537,-2.46452 c 1.89953,-1.35547 3.97713,-2.46451 4.61691,-2.46451 0.63977,0 1.70039,-0.33428 2.35693,-0.74286 3.7325,-2.32276 9.36241,-5.41866 9.88471,-5.43563 0.33351,-0.0102 2.31026,-1.63313 4.3928,-3.6051 2.8457,-2.69459 3.76631,-3.91567 3.70542,-4.91473 l -0.0811,-1.32935 -1.45237,1.14192 c -1.488,1.16995 -2.04675,2.28486 -0.83828,1.67272 0.37055,-0.18762 0.19556,0.0458 -0.38877,0.51906 -0.58435,0.47317 -1.38521,0.73649 -1.77966,0.58511 -0.4309,-0.16541 -0.56849,-0.0346 -0.34468,0.32752 0.22465,0.36349 0.0754,0.50177 -0.37622,0.3484 -0.41182,-0.13995 -2.81032,1.47808 -5.33003,3.59545 -2.60855,2.19202 -5.13808,3.88422 -5.87431,3.92976 -0.97389,0.0603 -1.14017,-0.0729 -0.67372,-0.53929 0.76066,-0.76066 0.84569,-11.05665 0.10735,-12.99863 -0.3515,-0.92452 -0.32481,-1.409 0.0851,-1.54565 0.38154,-0.12711 0.45323,-0.77229 0.19861,-1.78693 -0.38162,-1.52049 -0.43098,-1.54351 -1.16306,-0.54233 -0.63933,0.87433 -0.76455,0.9015 -0.76455,0.16582 0,-1.18678 -1.02705,-1.74875 -1.79413,-0.98167 -0.47034,0.47034 -0.43361,0.73883 0.15054,1.09984 0.99991,0.61798 2.16396,4.5331 2.17441,7.31344 0.004,1.19716 -0.47285,3.12015 -1.06075,4.2733 -0.76467,1.49989 -0.97744,2.66876 -0.7475,4.1067 0.30385,1.90024 0.42115,2.00214 2.14687,1.86521 1.00401,-0.0797 1.82546,-0.074 1.82546,0.0122 0,0.0868 -0.78825,0.71047 -1.75168,1.38606 -1.43084,1.00336 -1.6036,1.04096 -0.9432,0.20527 0.74636,-0.94446 0.72564,-0.9895 -0.26949,-0.58637 -0.59286,0.2402 -1.80337,0.71005 -2.68998,1.04412 -0.88664,0.33408 -2.1352,1.21377 -2.77459,1.95486 -0.63942,0.7411 -1.88949,1.77057 -2.77795,2.28773 -1.40303,0.81666 -1.65606,0.83436 -1.92452,0.13465 -0.2164,-0.56393 0.0495,-0.80913 0.88665,-0.81752 1.18513,-0.0122 1.18378,-0.0214 -0.15156,-1.07895 -0.74108,-0.58682 -2.43886,-1.41342 -3.77281,-1.83689 -1.85222,-0.58798 -2.09671,-0.77879 -1.03454,-0.80745 0.76496,-0.0206 2.584,0.56779 4.04229,1.30763 3.30737,1.67794 3.7256,1.69006 2.22275,0.0644 -0.65351,-0.7069 -2.12525,-2.39125 -3.27053,-3.74299 -2.35742,-2.78239 -5.35627,-4.08234 -9.73637,-4.22054 -1.9506,-0.0615 -2.23186,-0.1485 -0.98193,-0.30364 2.22666,-0.27633 2.20682,-0.82501 -0.0933,-2.5794 -1.66408,-1.26923 -3.38412,-4.3777 -2.76497,-4.99682 0.13506,-0.13506 0.39682,0.3565 0.58156,1.09254 0.43697,1.74106 4.43735,5.62648 6.25025,6.07064 1.20929,0.29629 1.46541,0.13913 1.77343,-1.08814 0.19801,-0.78893 0.21308,-1.95954 0.0334,-2.60129 -0.25948,-0.92713 -0.20935,-1.00075 0.24396,-0.3584 0.31379,0.44465 0.51998,1.63621 0.4582,2.6479 -0.0819,1.34133 0.17274,1.99814 0.94009,2.42539 1.26224,0.70279 4.28199,3.70563 6.30678,6.27152 1.42307,1.80338 1.49288,1.82817 2.29064,0.81383 1.19849,-1.52385 1.00992,-3.64792 -0.52461,-5.90916 -0.97186,-1.43212 -1.32217,-2.61737 -1.25683,-4.25226 l 0.0906,-2.26671 0.21642,2.10499 c 0.11897,1.15774 0.80587,2.97244 1.52632,4.03268 0.72672,1.06948 1.30989,2.71182 1.30989,3.68898 0,1.8355 0.87225,2.38553 1.43937,0.90764 0.26433,-0.68885 0.41797,-0.71487 0.7958,-0.13465 0.29226,0.4487 0.38073,-0.0397 0.23543,-1.29981 -0.12813,-1.11029 -0.61503,-2.40093 -1.08221,-2.86811 -0.46719,-0.46716 -0.8494,-1.20556 -0.8494,-1.64084 0,-1.97512 -3.74279,-7.43395 -3.79192,-5.53052 -0.0102,0.40685 -0.31654,0.20463 -0.68008,-0.4494 -0.78787,-1.41743 -1.69671,-1.0149 -2.50427,1.10915 -0.64047,1.68459 -1.82818,1.67137 -2.07937,-0.0232 -0.19841,-1.33934 -2.20666,-2.32228 -4.7444,-2.32228 -1.04051,0 -2.98516,-0.27529 -4.32141,-0.61177 -1.50601,-0.37921 -2.62101,-0.42033 -2.9332,-0.10817 -0.90309,0.90311 -0.74951,4.94539 0.22897,6.02662 0.50028,0.5528 0.76596,1.37946 0.59038,1.83699 -0.17559,0.45754 -0.0668,0.98794 0.24186,1.17865 0.30858,0.19067 0.82675,1.33342 1.15146,2.5393 l 0.59038,2.19256 1.31849,-1.23866 c 1.09478,-1.02847 1.56865,-1.1507 2.79284,-0.72033 1.28069,0.45022 1.48091,0.81905 1.5242,2.80767 0.0583,2.67455 1.05942,4.81298 2.46186,5.2581 0.5454,0.17315 0.99164,0.53333 0.99164,0.80047 0,0.88926 1.61662,-0.11958 1.63485,-1.02027 z m 25.20606,0.89307 c 1.13314,-1.13314 0.77647,-2.58708 -0.63466,-2.58708 -1.5574,0 -2.63118,1.16447 -2.17354,2.35708 0.39505,1.02949 1.88657,1.15163 2.8082,0.23 z m -11.70556,-0.43119 c 0.82681,0 0.55388,-1.1838 -0.4483,-1.94458 -0.51878,-0.39381 -1.54955,-0.71599 -2.29064,-0.71599 -1.32517,0 -1.32963,0.0143 -0.2695,0.86382 l 1.07795,0.86384 -1.07795,-0.40316 c -2.46907,-0.9234 -3.13971,-1.00063 -2.71444,-0.31252 0.56912,0.92085 3.62421,2.20681 4.5102,1.89844 0.39478,-0.1375 0.94049,-0.24985 1.21268,-0.24985 z m 8.54163,-2.32244 c 0.0208,-0.53625 -0.20466,-0.82511 -0.5011,-0.6419 -0.29643,0.18314 -0.52191,1.10703 -0.50107,2.05296 0.032,1.44974 0.11061,1.55056 0.50107,0.6419 0.25478,-0.59287 0.48026,-1.5167 0.5011,-2.05296 z m -32.52963,0.2968 c -0.54744,-0.54744 -1.53868,0.8066 -1.10462,1.50892 0.29717,0.48085 0.54159,0.41088 0.9187,-0.26294 0.28258,-0.50495 0.36624,-1.06563 0.18598,-1.24598 z m 38.49622,1.24901 c 0,-0.13078 -0.24253,-0.38759 -0.53896,-0.57078 -0.29644,-0.18314 -0.53897,-0.0762 -0.53897,0.23766 0,0.31393 0.24253,0.57079 0.53897,0.57079 0.29643,0 0.53896,-0.10695 0.53896,-0.23767 z m 29.6436,-2.74566 c 0,-0.43422 -0.36382,-0.78949 -0.80847,-0.78949 -0.44465,0 -0.80845,0.2227 -0.80845,0.49489 0,0.27219 -0.15808,0.90676 -0.35123,1.41014 -0.30322,0.79022 -0.19271,0.83045 0.80847,0.2946 0.63782,-0.34135 1.15968,-0.97592 1.15968,-1.41014 z m -63.29751,0.77572 c 0.57806,-0.93534 -1.22831,-2.47087 -1.99948,-1.69969 -0.47771,0.47771 -0.46286,0.82648 0.0621,1.45907 0.81304,0.97964 1.433,1.05664 1.93733,0.24062 z m 34.73187,-0.50418 c 0,-0.60218 -0.37427,-1.23847 -0.83172,-1.41401 -1.10922,-0.42566 -1.34354,-0.10694 -0.97045,1.31972 0.39052,1.49339 1.80217,1.56725 1.80217,0.0943 z m 25.77349,-0.42953 c 0.12813,-0.87032 -0.10572,-1.17048 -0.91138,-1.17048 -1.41854,0 -1.94942,0.91986 -1.11275,1.92798 0.8752,1.05455 1.80892,0.70513 2.02413,-0.7575 z m -63.5624,-0.444 c 0.43656,-0.95816 0.47262,-1.60811 0.10939,-1.97138 -0.79252,-0.7925 -2.20456,0.56496 -2.20456,2.11937 0,1.72165 1.28468,1.6309 2.09519,-0.14789 z m 22.69764,0.89044 c 0,-0.29643 -0.24256,-0.53897 -0.53899,-0.53897 -0.29643,0 -0.53897,0.24254 -0.53897,0.53897 0,0.29645 0.24254,0.53899 0.53897,0.53899 0.29643,0 0.53899,-0.24254 0.53899,-0.53899 z m 10.62186,-0.74233 c -0.31086,-0.93257 -1.69268,-0.71599 -1.88755,0.29587 -0.13057,0.67854 0.10573,0.8279 0.95787,0.60509 0.62225,-0.16277 1.0406,-0.56816 0.92968,-0.90096 z m 7.69861,-0.88211 c 0.42106,0.68132 0.70853,0.63453 1.99987,-0.32542 2.14463,-1.59427 2.30095,-3.77652 0.33078,-4.61748 -0.83465,-0.35627 -1.96695,-1.02485 -2.51625,-1.48576 -0.95866,-0.8044 -0.98683,-0.70841 -0.70272,2.39486 l 0.29594,3.23287 -0.86038,-3.63809 c -0.47321,-2.00093 -1.09478,-3.63808 -1.38127,-3.63808 -0.28829,0 -0.35901,0.54158 -0.15848,1.21271 0.19943,0.66698 0.50643,2.76636 0.68237,4.66529 0.28859,3.1149 0.39316,3.35241 1.06908,2.42803 0.63923,-0.87419 0.8214,-0.9078 1.24098,-0.22893 z m -10.02404,-0.30523 c 0.46227,-1.20464 0.4258,-1.30336 -0.48132,-1.30336 -0.44914,0 -0.80845,0.4791 -0.80845,1.07795 0,1.28505 0.82764,1.4297 1.28977,0.22541 z m 3.99169,-0.87596 c 0.19434,-1.00183 -1.4726,-1.75697 -2.2227,-1.00689 -0.35242,0.35244 -0.2943,0.82239 0.17111,1.38307 0.82361,0.9924 1.82161,0.80941 2.05167,-0.37618 z m 3.05188,-1.72542 c -0.50508,-3.36803 -1.37378,-3.37096 -2.09429,-0.006 -0.29772,1.39003 -0.15502,1.75082 0.87983,2.22364 0.67936,0.31043 1.31405,0.49552 1.41038,0.41131 0.0963,-0.0841 0.008,-1.26676 -0.19597,-2.62788 z m 18.20399,1.54497 c -0.30852,-1.61391 -1.39988,-1.48172 -1.64726,0.19943 -0.12609,0.85665 0.10675,1.17046 0.86847,1.17046 0.82401,0 0.98616,-0.28523 0.77879,-1.36997 z m 4.18169,0.2967 c 0.49825,-0.93096 0.41143,-1.06422 -0.65475,-1.00501 -0.67605,0.0375 -1.65359,-0.11183 -2.17235,-0.33183 -0.6658,-0.2824 -0.94321,-0.15319 -0.94321,0.43927 0,0.86331 1.38093,1.92541 2.54116,1.95446 0.36012,0.008 0.91324,-0.46659 1.22915,-1.05689 z m -64.28108,-0.37618 c 0.10511,-0.31548 -0.21756,-0.7305 -0.71717,-0.9222 -1.14883,-0.44085 -1.41071,-0.17906 -0.96987,0.96986 0.36667,0.95551 1.36202,0.92738 1.68704,-0.0477 z m 6.61334,0.16805 c 0,-0.98734 -1.42666,-2.1336 -2.12124,-1.70433 -0.3661,0.22628 -0.33045,0.69491 0.10613,1.39384 0.75712,1.21235 2.01521,1.40619 2.01521,0.31049 z m 59.73854,0.26904 c 0.83579,-0.52976 0.64789,-2.84982 -0.25483,-3.14674 -0.35509,-0.11672 -0.70552,0.60067 -0.83498,1.70945 -0.23367,2.00168 -0.0931,2.18709 1.08981,1.43729 z m 2.77422,-0.46977 c -0.004,-0.51876 -0.24336,-1.307 -0.53071,-1.75167 -0.45178,-0.69906 -0.52359,-0.6868 -0.53074,0.0906 -0.004,0.49452 -0.15543,1.28276 -0.3354,1.75167 -0.21467,0.55944 -0.0293,0.85253 0.53898,0.85253 0.47637,0 0.86242,-0.42444 0.85787,-0.9432 z m 2.16414,-0.10287 c 0,-0.98657 -0.89961,-2.00674 -1.36192,-1.54442 -0.37019,0.37019 0.38902,2.59056 0.88582,2.59056 0.26185,0 0.4761,-0.47077 0.4761,-1.04614 z m -19.99575,-2.62374 c 0.0295,-0.38804 -0.18884,-0.55563 -0.48525,-0.37242 -0.29646,0.18313 -0.51481,1.10702 -0.48525,2.05296 0.0513,1.64244 0.0731,1.65921 0.48525,0.37241 0.23732,-0.74108 0.45569,-1.66491 0.48525,-2.05295 z m -15.30706,0.975 c 0.18313,-0.29644 -0.045,-0.53897 -0.50715,-0.53897 -0.46215,0 -1.01611,-0.0183 -1.23104,-0.0403 -0.21491,-0.0222 -0.47765,0.22031 -0.58388,0.53896 -0.24372,0.73115 1.87243,0.76798 2.32207,0.0403 z m 28.62524,-0.85406 c 0.48662,-1.9388 -0.83967,-3.26033 -2.42211,-2.41344 -1.26107,0.6749 -1.49333,2.16043 -0.49405,3.15972 1.11214,1.11213 2.54155,0.74634 2.91616,-0.74628 z m -25.66088,-0.17906 c 0,-0.56818 -0.30318,-1.17229 -0.67372,-1.34247 -0.37054,-0.17009 -0.1485,-0.18048 0.49362,-0.023 1.40546,0.34488 2.16981,-0.57698 0.8867,-1.06936 -1.16954,-0.44878 -3.12833,1.45873 -2.68482,2.61452 0.46144,1.20244 1.97822,1.06467 1.97822,-0.17967 z m 19.70454,-1.61012 c -0.20086,-0.32489 -0.83585,-0.59071 -1.41122,-0.59071 -1.18001,0 -1.48604,1.90299 -0.37242,2.31586 0.89491,0.33178 2.24679,-0.97575 1.78364,-1.72515 z m 10.95521,1.07582 c 0.49427,-0.31304 0.62743,-0.94789 0.39395,-1.87816 -0.41622,-1.65836 -0.73616,-1.70682 -2.35457,-0.35675 -2.02511,1.68938 -0.29395,3.66273 1.96062,2.23491 z m -39.26874,-1.13793 1.52843,-1.08834 0.17172,-12.07424 c 0.16582,-11.66201 0.2131,-12.11827 1.38437,-13.36396 0.667,-0.70934 1.21271,-1.45599 1.21271,-1.65921 0,-0.2033 -2.18286,-0.3695 -4.85077,-0.3695 -2.66792,0 -4.85076,0.11387 -4.85076,0.25288 0,0.13913 0.54571,1.29115 1.21268,2.56015 1.13756,2.1643 1.22279,3.06682 1.37559,14.56888 0.10695,8.05082 0.35604,12.26166 0.72526,12.26166 0.30931,0 1.25015,-0.48975 2.09079,-1.08832 z m 21.00541,-0.29091 c 0,-0.46215 -0.24254,-0.69037 -0.53897,-0.50717 -0.29646,0.18313 -0.53899,0.56133 -0.53899,0.84027 0,0.27895 0.24253,0.50717 0.53899,0.50717 0.29643,0 0.53897,-0.37812 0.53897,-0.84027 z m -5.12026,-0.23769 c 0.18314,-0.29643 0.0762,-0.53897 -0.23768,-0.53897 -0.31393,0 -0.57079,0.24254 -0.57079,0.53897 0,0.29646 0.10695,0.53899 0.23769,0.53899 0.13078,0 0.38757,-0.24253 0.57078,-0.53899 z m 14.67019,-0.13465 c 0.55777,-0.7235 0.14749,-3.18361 -0.52212,-3.13091 -0.22232,0.0183 -0.62082,0.0318 -0.88553,0.0318 -0.81623,0 -1.1615,1.63945 -0.57576,2.73393 0.64416,1.20362 1.25094,1.31533 1.98341,0.36518 z m -11.18246,-0.38317 c 1.07543,-0.68014 0.50963,-1.12727 -0.94508,-0.74687 -0.6507,0.17009 -1.05023,0.52434 -0.88785,0.78708 0.37274,0.60311 0.83159,0.59303 1.83293,-0.0401 z m -26.51185,-1.11079 c 1.95607,-3.13218 1.16223,-9.34626 -1.49388,-11.69387 -2.1553,-1.90501 -3.15634,-1.48825 -1.25368,0.52193 2.29054,2.41998 2.86528,3.72264 2.86528,6.49432 0,1.57202 -0.36838,2.85644 -1.07795,3.75851 -1.25325,1.59327 -1.33583,2.00883 -0.39915,2.00883 0.37336,0 0.98507,-0.49038 1.35938,-1.08972 z m 17.36488,-0.0204 c 0,-0.27893 -0.24253,-0.50716 -0.53896,-0.50716 -0.29644,0 -0.53897,0.37812 -0.53897,0.84027 0,0.46215 0.24253,0.69038 0.53897,0.50716 0.29643,-0.18313 0.53896,-0.56133 0.53896,-0.84027 z m 23.15694,-0.47174 c 0.94956,-1.77429 0.69069,-2.82421 -0.64925,-2.63303 -1.23118,0.17559 -1.8169,1.50128 -1.28071,2.89858 0.41652,1.08543 1.26977,0.96804 1.92996,-0.26555 z m 4.49622,-0.097 c 0.80635,-1.28702 0.0577,-2.6334 -1.46418,-2.6334 -1.64288,0 -2.13958,0.72896 -1.69733,2.49101 0.38743,1.54371 2.23151,1.62676 3.16151,0.14239 z m 3.36426,-2.38855 c 0.2054,-1.64395 0.22285,-3.13961 0.0389,-3.32368 -0.18415,-0.18415 -0.33469,0.37433 -0.33469,1.2409 0,0.86655 -0.22561,2.36221 -0.50135,3.32368 -0.27573,0.96146 -0.29319,1.74809 -0.0387,1.74809 0.25441,0 0.63061,-1.34503 0.83601,-2.98899 z m -48.80357,-1.0232 c 0,-0.65882 -0.16133,-1.35919 -0.35844,-1.55634 -0.19719,-0.19718 -0.42509,-0.98337 -0.50651,-1.74715 -0.21736,-2.03866 -1.1943,-2.92482 -3.22438,-2.92482 -1.24678,0 -1.97817,-0.33023 -2.37542,-1.0725 -0.47884,-0.8947 -0.74331,-0.96675 -1.59525,-0.43471 -1.30148,0.81279 -3.25845,4.27072 -3.25845,5.75765 0,1.48867 0.41851,1.43783 1.71321,-0.20812 0.58295,-0.74111 1.27639,-1.34744 1.541,-1.34744 0.97185,0 4.19893,3.29775 5.1139,5.22587 l 0.94216,1.98547 1.00409,-1.24 c 0.55225,-0.68199 1.00409,-1.77906 1.00409,-2.43791 z m 13.07937,0.53689 c 0.83576,-1.42252 1.41443,-2.69157 1.2859,-2.82011 -0.12854,-0.12854 -1.04857,-0.0238 -2.04449,0.23283 -1.70341,0.43891 -1.82065,0.61978 -1.97732,3.05061 -0.21053,3.26671 0.62779,3.12474 2.73591,-0.46333 z m 13.71189,0.64569 c 0.1322,-2.38418 -0.96015,-2.74527 -2.26773,-0.74966 -1.05286,1.60686 -0.51992,3.15259 1.01161,2.93405 0.90894,-0.12976 1.16712,-0.57867 1.25612,-2.18439 z m 1.5794,0.14586 c 0.031,-1.17965 -0.15502,-2.01424 -0.41336,-1.85461 -0.57827,0.35738 -0.62948,3.99944 -0.0562,3.99944 0.22734,0 0.43866,-0.96517 0.46961,-2.14483 z m -7.66547,0.18211 c 0.28387,-0.73974 0.20499,-0.77309 -0.48132,-0.2035 -0.93524,0.77618 -1.03259,1.08818 -0.33947,1.08818 0.26471,0 0.63407,-0.39811 0.82079,-0.88468 z m 13.75762,-1.15862 c 0.46201,-0.93777 1.13559,-1.71055 1.49686,-1.71727 0.48185,-0.008 0.59403,-1.19688 0.4211,-4.45878 -0.12955,-2.4456 -0.10429,-4.02211 0.0564,-3.50332 0.39234,1.26679 1.6574,1.19484 2.36897,-0.13466 0.78951,-1.4752 2.05357,-1.35324 2.79294,0.26949 0.33767,0.74108 0.81754,1.34744 1.06641,1.34744 0.24884,0 0.45245,0.33412 0.45245,0.74247 0,0.40835 0.3638,1.0444 0.80845,1.41342 0.44465,0.36903 0.80847,1.09665 0.80847,1.61692 0,0.52029 0.36781,1.25123 0.81736,1.62432 0.44956,0.37309 0.75271,1.28685 0.67371,2.03061 -0.0819,0.77034 0.17519,1.46353 0.59715,1.61081 1.29719,0.45274 0.5352,-6.25728 -1.06315,-9.36208 -1.14843,-2.23083 -1.60547,-2.64654 -2.94395,-2.67762 -0.87145,-0.0204 -2.09813,-0.20833 -2.72596,-0.41797 -0.62782,-0.20963 -1.83548,-0.11733 -2.68365,0.20517 -1.00851,0.38344 -1.6043,0.39996 -1.72169,0.0477 -0.24645,-0.73931 -2.18533,0.96091 -3.11918,2.73519 -1.22397,2.32554 -0.88694,2.47612 0.61033,0.27269 1.61802,-2.38115 2.42641,-2.17405 2.31999,0.59435 l -0.0766,1.98936 -0.32775,-2.13957 -0.32774,-2.13956 -0.99892,1.53192 c -0.84471,1.29541 -0.89457,1.72688 -0.32301,2.79488 0.37176,0.69464 0.8819,1.13566 1.13366,0.98007 0.52734,-0.32591 0.61369,1.44206 0.1318,2.69789 -0.17926,0.46721 -0.58056,0.6921 -0.89172,0.49978 -0.33779,-0.20876 -0.40491,-0.0894 -0.16664,0.29629 0.21956,0.35526 -0.0102,1.26987 -0.50924,2.03244 -0.61929,0.94514 -0.687,1.31269 -0.21277,1.15459 0.38264,-0.12752 1.07373,-0.99916 1.53574,-1.93692 z m 1.61055,1.03623 c 0.29643,-0.5539 0.38792,-1.15815 0.2033,-1.34277 -0.47099,-0.47097 -1.78229,0.71165 -1.78229,1.60739 0,1.07154 0.94901,0.9125 1.57899,-0.26462 z m 3.21242,-1.3468 c 0.46593,-0.56142 0.41203,-0.90259 -0.22634,-1.43239 -1.03015,-0.85494 -2.17969,0.0465 -1.6892,1.32465 0.3992,1.04035 1.10843,1.08025 1.91554,0.10776 z m 4.05757,-0.12915 c 1.90808,-0.73221 0.16297,-3.27367 -1.81645,-2.64542 -1.20925,0.3838 -1.50493,2.18192 -0.43011,2.61561 0.97099,0.39181 1.29209,0.39607 2.24656,0.0298 z m -26.63513,-1.61251 c 0,-1.36891 -5.54054,-6.17382 -6.27368,-5.4407 -0.24306,0.24308 5.57849,6.20102 6.13893,6.28277 0.0742,0.0102 0.13485,-0.36812 0.13485,-0.84207 z m 2.4369,-1.30692 c 0.69566,-0.76869 0.81829,-1.25946 0.4154,-1.66235 -0.40289,-0.40289 -0.82874,-0.2046 -1.44251,0.67164 -1.53815,2.19603 -0.7509,2.95538 1.02711,0.99071 z m 8.16158,0.246 c 0.48879,-1.27378 -0.65806,-2.18044 -1.68258,-1.33017 -0.45722,0.37945 -0.83129,1.02404 -0.83129,1.43239 0,1.02442 2.11452,0.93844 2.51387,-0.10226 z m 6.10971,-0.77223 c 0,-0.5579 -0.24253,-1.16423 -0.53896,-1.34744 -0.31532,-0.19495 -0.53899,0.36433 -0.53899,1.34744 0,0.98311 0.22367,1.5423 0.53899,1.34744 0.29643,-0.18314 0.53896,-0.78957 0.53896,-1.34744 z m -42.24895,-4.26312 c 1.26056,-0.99154 1.72379,-2.20457 0.84188,-2.20457 -1.22285,0 -4.40614,4.94632 -4.4053,6.84516 2.2e-4,0.53346 0.51255,-0.0646 1.13846,-1.32917 0.62593,-1.26453 1.71716,-2.75467 2.42496,-3.31142 z m 21.49844,4.80208 c 0.18313,-0.29643 -0.15196,-0.53896 -0.74483,-0.53896 -0.59289,0 -1.22786,0.24253 -1.41106,0.53896 -0.18313,0.29644 0.15197,0.53897 0.74484,0.53897 0.59286,0 1.22784,-0.24253 1.41105,-0.53897 z m -25.35381,-2.10702 c 0.52257,-1.15886 1.80745,-3.01594 2.85527,-4.12685 1.60558,-1.70222 1.78038,-2.11244 1.11165,-2.609 -0.82823,-0.61497 -1.68031,-3.02066 -1.06481,-3.0063 0.71486,0.0163 1.43171,0.82212 1.43171,1.60867 0,1.23336 2.0915,1.26227 3.1939,0.0442 0.94717,-1.04663 0.94192,-1.15152 -0.16439,-3.27418 -1.3131,-2.51923 -1.45918,-4.6899 -0.41834,-6.21685 0.92764,-1.3609 1.46512,-3.4885 0.88126,-3.4885 -0.52567,0 -2.14491,3.08461 -2.14491,4.08599 0,0.37759 -0.64532,1.19415 -1.43406,1.81456 -0.8651,0.68048 -1.58895,1.9256 -1.82444,3.13823 l -0.39036,2.0102 -0.0619,-1.84151 c -0.034,-1.01281 -0.22157,-1.68191 -0.41662,-1.48686 -0.19494,0.19515 -0.62762,0.12813 -0.96127,-0.14891 -0.37345,-0.30994 -0.91047,-0.3113 -1.39702,-0.004 -0.65553,0.41458 -0.62401,0.50128 0.18456,0.50814 0.53626,0.004 0.83059,0.24195 0.65406,0.52756 -0.17661,0.28562 0.18782,1.02815 0.8098,1.65007 1.43315,1.43316 1.19199,3.25413 -0.55246,4.1713 -1.23413,0.64885 -1.12083,0.68434 1.34742,0.42186 l 2.69488,-0.28658 -3.17958,0.81013 c -3.2448,0.82668 -6.79144,2.66301 -6.79144,3.51634 0,0.26071 0.51088,0.94997 1.13528,1.53167 0.62438,0.58173 0.98459,1.30144 0.80046,1.59939 -0.18415,0.29796 0.21451,0.6473 0.88588,0.77634 0.67138,0.12895 1.36576,0.26765 1.54306,0.30803 0.17723,0.0403 0.74993,-0.87476 1.27252,-2.03363 z m 60.36221,-2.12869 c -0.96276,-2.57567 -1.85296,-4.03708 -2.22967,-3.66037 -0.11795,0.11795 0.26255,1.03341 0.84575,2.03418 0.58317,1.00079 1.24721,2.78976 1.47563,3.9755 0.25046,1.30016 0.50024,1.75821 0.62931,1.15402 0.11774,-0.55103 -0.20676,-2.12754 -0.72102,-3.50333 z m -65.16629,3.11787 c 0.19678,-0.31839 -0.18599,-1.15768 -0.8506,-1.86512 -1.08382,-1.15369 -1.18009,-1.68121 -0.93414,-5.11894 0.18293,-2.55514 0.0945,-3.65306 -0.26474,-3.29374 -0.29643,0.29644 -0.66135,2.24935 -0.81091,4.33981 -0.2273,3.17671 -0.12793,3.85609 0.60507,4.13737 0.48238,0.18517 0.73556,0.56545 0.56266,0.84522 -0.18802,0.30429 -0.61992,0.2551 -1.07486,-0.12243 -0.93167,-0.77323 -1.0364,-6.55343 -0.16399,-9.05585 0.35727,-1.02487 0.42985,-2.5159 0.1809,-3.7185 -0.24977,-1.20705 -0.50336,-1.63151 -0.63594,-1.06441 -0.1212,0.51876 -0.57506,0.9432 -1.00841,0.9432 -0.6321,0 -0.67156,-0.2398 -0.19942,-1.2127 0.56435,-1.16321 0.54218,-1.15958 -0.54335,0.0886 -0.69081,0.79427 -0.91664,1.43411 -0.57967,1.64238 0.35586,0.21995 0.16398,1.36233 -0.53978,3.21464 -0.93601,2.46339 -1.25606,5.36348 -1.03102,9.34269 0.0466,0.82521 0.15461,0.84774 0.82902,0.17315 0.42646,-0.42644 0.78397,-1.09586 0.79448,-1.48759 0.0102,-0.39171 0.34801,-0.11836 0.75005,0.60768 1.0509,1.89763 4.11528,2.89809 4.91473,1.60457 z m -6.76184,-5.11216 c 0,-0.46215 0.24255,-0.69038 0.53898,-0.50717 0.29644,0.18313 0.53897,0.56133 0.53897,0.84027 0,0.27894 -0.24253,0.50717 -0.53897,0.50717 -0.29643,0 -0.53898,-0.37812 -0.53898,-0.84027 z m 0.63085,-3.33081 c 0.301,-1.11493 0.80298,-2.26966 1.11548,-2.5661 0.39424,-0.37394 0.44019,-0.20892 0.15013,0.53897 -0.22996,0.59287 -0.53715,1.62725 -0.68264,2.29861 -0.14544,0.67136 -0.45932,1.34102 -0.69737,1.48816 -0.23805,0.14707 -0.18659,-0.64471 0.11449,-1.75964 z m 67.2799,8.10853 c 0,-0.49265 -0.42985,-0.71534 -1.17048,-0.60636 -1.67926,0.2471 -1.8431,1.38492 -0.19943,1.38492 0.83499,0 1.36989,-0.30401 1.36989,-0.77856 z m -31.79947,-0.1646 c 0,-0.29643 -0.36382,-0.53897 -0.80847,-0.53897 -0.44465,0 -0.80845,0.24254 -0.80845,0.53897 0,0.29644 0.3638,0.53897 0.80845,0.53897 0.44465,0 0.80847,-0.24253 0.80847,-0.53897 z m 28.95081,-0.49301 c 0.50888,-0.81485 0.49383,-1.15701 -0.0715,-1.62621 -1.0639,-0.88297 -2.46956,-0.10409 -2.46956,1.36842 0,1.5946 1.60458,1.75738 2.54108,0.25779 z m -3.42413,-0.85443 c 0.17071,-0.44465 0.0754,-0.80845 -0.21181,-0.80845 -0.28713,0 -0.52206,0.3638 -0.52206,0.80845 0,0.44465 0.0953,0.80847 0.21181,0.80847 0.11652,0 0.35144,-0.36382 0.52206,-0.80847 z m -41.15694,-1.28977 c 0,-0.26471 -0.3638,-0.62092 -0.80847,-0.79154 -1.14836,-0.44066 -1.00136,-2.69728 0.24942,-3.82924 0.70678,-0.63962 1.37757,-0.81475 2.02116,-0.52768 0.83293,0.37154 0.78095,0.46068 -0.38415,0.65868 -1.19509,0.2031 -2.12652,0.95706 -2.1462,1.73726 -0.004,0.1483 1.93286,0.28115 4.30353,0.29541 2.3707,0.0143 4.31036,-0.0968 4.31036,-0.24677 0,-0.14993 -0.89812,-1.19244 -1.9958,-2.31657 -2.50651,-2.56689 -4.00722,-2.61635 -6.4122,-0.21137 -1.88903,1.88904 -2.35825,3.89388 -1.18576,5.06637 0.75673,0.75671 2.04811,0.86103 2.04811,0.16541 z m 44.73487,-1.40508 c 0,-0.44468 -0.36382,-0.80848 -0.80847,-0.80848 -0.44465,0 -0.80845,0.3638 -0.80845,0.80848 0,0.44465 0.3638,0.80845 0.80845,0.80845 0.44465,0 0.80847,-0.3638 0.80847,-0.80845 z m -56.59229,-2.15591 c 1.54175,-1.03752 3.02136,-1.88641 3.28799,-1.88641 0.62747,0 0.63348,-2.53937 0.006,-2.92662 -0.26287,-0.16235 -0.79301,0.0843 -1.17814,0.54836 -0.49711,0.59896 -1.20953,0.74818 -2.45595,0.51434 -1.66581,-0.3125 -1.78476,-0.22489 -2.3222,1.71047 -0.57724,2.07868 -0.74532,3.92626 -0.35716,3.92626 0.11836,0 1.47678,-0.84886 3.01853,-1.8864 z m 48.47635,0.71332 c 0.87541,-1.08112 0.88327,-1.28922 0.10022,-2.65359 -0.79002,-1.37651 -0.77735,-1.56044 0.18048,-2.61873 0.56655,-0.62604 1.34488,-1.01746 1.7296,-0.86983 0.60018,0.23031 1.7939,-1.15471 1.7939,-2.08138 0,-0.80295 -1.08282,-0.18354 -1.11585,0.63828 -0.0322,0.80279 -0.10389,0.78272 -0.48111,-0.13465 -0.39352,-0.95702 -0.48464,-0.97682 -0.81224,-0.17641 -0.46368,1.13277 -1.84866,1.69189 -2.64462,1.06763 -0.74125,-0.58134 -2.49183,-0.59874 -2.49183,-0.0247 0,0.22953 0.21579,0.55068 0.47951,0.71366 0.26372,0.16297 0.79327,1.87508 1.17681,3.80464 0.38354,1.92955 0.79587,3.50827 0.9163,3.50827 0.12039,0 0.64642,-0.52788 1.16889,-1.17308 z m 12.45127,-3.70655 c 0.16928,-1.04178 0.49016,-2.1891 0.71295,-2.54956 0.25867,-0.41855 0.0664,-0.65542 -0.53167,-0.65542 -0.51522,0 -1.68388,-0.27016 -2.59706,-0.60037 -1.33489,-0.4827 -2.08182,-0.42299 -3.81107,0.30465 -2.04375,0.85995 -2.09873,0.94349 -1.10458,1.67832 0.57543,0.42532 1.71395,0.77331 2.53008,0.77331 0.81611,0 2.05497,0.54571 2.75301,1.21269 0.69805,0.66697 0.89346,0.94022 0.43429,0.60725 -0.4592,-0.333 -1.80503,-0.77539 -2.99079,-0.98309 -1.18573,-0.2077 -2.7016,-0.72909 -3.36857,-1.15865 -1.17464,-0.75648 -1.21269,-0.72234 -1.21269,1.08831 0,1.8425 0.0367,1.87216 2.56013,2.07031 1.40806,0.11061 3.40567,0.17967 4.43909,0.1538 1.71896,-0.0432 1.90521,-0.20864 2.18688,-1.94147 z m -42.1033,-1.53587 c -0.61328,-3.87962 -1.30316,-4.90296 -3.30535,-4.90296 -0.92964,0 -2.15571,-0.42122 -2.72458,-0.93603 -0.98431,-0.89079 -1.07107,-0.88582 -1.7941,0.10308 -0.81131,1.10951 -0.96906,0.92753 -0.425,-0.49027 0.48271,-1.25788 3.29266,-2.56831 4.61042,-2.15006 0.74866,0.2376 0.99655,0.15767 0.7497,-0.24172 -0.81964,-1.32623 -5.20809,0.0522 -5.89909,1.85282 -0.88469,2.30547 -0.30613,3.24556 1.8211,2.95902 0.64893,-0.0874 0.67551,0.0277 0.13465,0.58291 -0.37056,0.38048 -0.63738,1.43155 -0.59297,2.33568 0.0805,1.63996 0.0813,1.64033 0.30617,0.15258 0.13588,-0.89949 0.45779,-1.34771 0.81098,-1.12941 0.3497,0.21613 0.43068,0.11122 0.20106,-0.26036 -0.23017,-0.37242 -0.0344,-0.62225 0.48751,-0.62225 0.52194,0 0.71768,-0.24982 0.48751,-0.62226 -0.23827,-0.38551 -0.14789,-0.47594 0.23767,-0.23766 0.95962,0.59307 0.73839,1.85621 -0.4557,2.60192 -1.58551,0.99018 -1.32238,1.39207 0.87073,1.32992 1.53281,-0.0434 2.17546,0.25608 3.01133,1.40354 1.46895,2.01654 1.96718,1.4299 1.46792,-1.72841 z m 31.04204,0.0489 c -0.72031,-0.72029 -1.26895,1.21371 -0.65115,2.29527 0.60242,1.05463 0.6408,1.03454 0.81141,-0.42447 0.0984,-0.84228 0.0263,-1.68414 -0.16032,-1.8708 z m 1.16873,0.57264 c -0.13547,-0.51876 -0.24649,-0.0943 -0.24649,0.9432 0,1.03754 0.11102,1.46199 0.24649,0.94321 0.13566,-0.51876 0.13566,-1.36765 0,-1.88641 z m -49.48071,-1.9182 c -0.0483,-0.91184 -0.11876,-0.966 -0.309,-0.23769 -0.30118,1.15253 -0.55278,1.17384 -1.59187,0.13485 -1.1154,-1.11539 -2.47139,-1.03395 -2.24352,0.13465 0.10654,0.54657 0.67773,0.95001 1.35821,0.9594 0.64589,0.008 1.34237,0.18415 1.54773,0.38957 0.62586,0.62587 1.30464,-0.13098 1.23845,-1.38076 z m 47.49226,-1.66221 c 0,-0.41294 -0.42444,-0.92326 -0.9432,-1.13408 -2.22676,-0.90486 -3.80589,-1.20594 -4.39986,-0.83884 -0.92459,0.57142 0.69187,1.78052 2.38037,1.78052 0.74017,0 1.34577,0.21222 1.34577,0.4716 0,0.25938 0.3638,0.4716 0.80845,0.4716 0.44465,0 0.80847,-0.33785 0.80847,-0.7508 z m 13.5431,-0.15849 c 0.65117,-0.80052 0.62153,-0.86504 -0.24756,-0.53898 -0.54302,0.20372 -1.58812,0.3704 -2.32246,0.3704 -0.75286,0 -1.18987,0.23507 -1.00206,0.53898 0.52956,0.85684 2.76212,0.62532 3.57208,-0.3704 z m -61.34984,-0.3522 c 0.59973,-1.56288 -0.44728,-1.85742 -2.04854,-0.57629 l -1.61676,1.29354 1.69401,0.002 c 0.93169,0.001 1.81877,-0.32248 1.97129,-0.71992 z m 55.12175,0.0297 c 1.39912,-0.82011 5.08141,-4.90968 5.08141,-5.64348 0,-0.3005 0.60633,-0.94369 1.34742,-1.42926 1.39934,-0.91689 1.84692,-3.18058 0.76151,-3.85141 -0.32226,-0.19922 -0.46624,-0.81983 -0.31994,-1.37923 0.69599,-2.66151 -2.13572,0.18394 -4.1087,4.12871 -1.25571,2.51066 -4.38255,6.17262 -5.27059,6.17262 -0.54856,0 -1.0903,1.62763 -0.73375,2.20453 0.41727,0.67517 1.90368,0.58236 3.24264,-0.20248 z m 6.18611,-1.20743 c 1.99107,-1.02964 2.03244,-1.65192 0.10796,-1.62432 -1.02918,0.0143 -1.43819,-0.22585 -1.33821,-0.78723 0.0792,-0.44465 -0.46653,-0.12792 -1.2127,0.70377 -0.74616,0.83173 -1.35665,1.74127 -1.35665,2.02116 0,0.77443 2.01784,0.608 3.79958,-0.31338 z m -62.99594,-1.04816 c 0.70878,-1.55562 -0.12385,-2.98031 -1.74192,-2.98031 -1.20753,0 -1.66328,0.69061 -1.80482,2.73474 -0.0968,1.39747 0.0644,1.57706 1.41544,1.57706 1.09837,0 1.69425,-0.37227 2.1313,-1.33149 z m 5.73716,-0.40138 c 0.13607,-1.17963 -0.0931,-1.52913 -1.18207,-1.80242 -1.7433,-0.43754 -2.48999,0.053 -2.48999,1.63577 0,2.38605 3.39838,2.54028 3.67206,0.16663 z m 49.54471,-0.97592 c 3.28202,-3.14827 3.80013,-4.56458 2.58616,-7.06944 l -0.87708,-1.80971 1.23746,1.43086 1.23743,1.43087 1.47706,-2.10459 1.47706,-2.10458 h -2.39845 c -1.88349,0 -2.67432,0.29749 -3.6833,1.38563 l -1.28482,1.38564 -1.98722,-1.11615 c -2.56884,-1.44284 -3.1161,-1.42194 -2.52784,0.0966 0.2584,0.66697 0.73567,1.15206 1.0606,1.07795 0.75551,-0.17234 0.77861,0.79077 0.0251,1.04196 -0.71622,0.23874 -1.89391,6.95575 -1.43102,8.162 0.59629,1.55394 2.16654,0.99637 5.08898,-1.80698 z m -6.12078,0.68763 c -0.52422,-2.19312 -0.75286,-2.41392 -1.70158,-1.6431 -0.72815,0.59165 -0.81182,0.56731 -0.54086,-0.15746 0.20024,-0.53581 -0.26713,-1.41193 -1.24653,-2.33631 l -1.56703,-1.47906 v 1.66262 c 0,1.11857 -0.26456,1.66261 -0.80847,1.66261 -0.51312,0 -0.80845,0.51636 -0.80845,1.41344 0,1.26182 0.10124,1.33599 0.9432,0.69148 0.51876,-0.39706 0.73945,-0.48741 0.49044,-0.20065 -0.44736,0.51503 2.66724,1.74153 4.64008,1.82723 0.77158,0.0336 0.88588,-0.24135 0.5992,-1.44076 z m -40.72557,-0.54448 c 0.18924,-1.32689 -0.40821,-1.56407 -1.41187,-0.56042 -0.96553,0.96555 -0.78472,2.15344 0.29643,1.94737 0.51878,-0.0988 1.02072,-0.72299 1.11544,-1.38695 z m 7.16569,0.1267 c -0.0251,-0.69289 -2.21765,-1.02746 -2.21765,-0.33842 0,0.56769 1.05677,1.13805 1.79209,0.96722 0.24455,-0.0568 0.43605,-0.33978 0.42556,-0.6288 z m 24.56557,-1.18895 c -0.13668,-0.52443 -0.25744,-0.22585 -0.26842,0.66345 -0.0102,0.8893 0.10083,1.31837 0.24846,0.95347 0.14769,-0.36492 0.15665,-1.09252 0.0204,-1.61692 z m -44.24171,-0.0102 c 1.10295,-1.45296 0.88458,-2.29064 -0.59717,-2.29064 -1.05226,0 -1.34741,0.27547 -1.34741,1.2576 0,2.07765 0.82067,2.51362 1.94458,1.03304 z m 8.83489,-1.21621 c 0,-0.63005 -1.50542,-1.08339 -2.42538,-0.73037 -1.5115,0.58001 -0.89525,1.63788 0.80845,1.38783 0.88933,-0.13057 1.61693,-0.42638 1.61693,-0.65746 z m 2.39706,0.15237 c 0.41374,-1.0782 -1.03094,-2.38159 -2.1597,-1.94845 -0.60615,0.23261 -0.58601,0.51097 0.11448,1.57991 1.00607,1.53546 1.55929,1.63513 2.04532,0.36854 z m 14.51414,-0.26887 c 0.99743,-1.59313 -0.39773,-2.31384 -4.31956,-2.23138 -1.93784,0.0407 -3.78915,0.33988 -4.114,0.66473 -0.78068,0.78069 -0.53701,0.9343 2.12957,1.34245 2.03884,0.31206 2.27533,0.2295 2.48673,-0.86822 0.16541,-0.85907 0.25504,-0.69146 0.30701,0.57441 0.0658,1.60244 0.22123,1.76983 1.50122,1.61693 0.78531,-0.0937 1.68938,-0.58831 2.00903,-1.09892 z m 4.11704,0.52414 c 0.006,-0.42779 0.15278,-0.47272 0.40424,-0.12304 0.54762,0.76147 3.89931,1.01802 3.89931,0.29847 0,-0.31878 -0.30318,-0.61055 -0.67372,-0.64838 -0.37054,-0.0379 -1.16897,-0.12365 -1.77428,-0.19046 -0.60532,-0.067 -1.66696,-0.42486 -2.35919,-0.79532 -1.02459,-0.54833 -1.34455,-0.53797 -1.7208,0.0558 -0.38274,0.60403 -0.46359,0.59814 -0.47042,-0.0342 -0.004,-0.41997 -0.11998,-0.65191 -0.25636,-0.51544 -0.13649,0.13648 -0.10817,0.78323 0.0629,1.43727 0.33775,1.2916 2.87333,1.74408 2.88836,0.51542 z m -16.53665,-0.63431 c 0.16235,-0.42297 -0.0542,-1.05903 -0.48132,-1.41343 -0.64235,-0.53311 -0.77643,-0.40029 -0.77643,0.76907 0,1.51482 0.77195,1.91032 1.25775,0.64436 z m 40.44539,-0.91523 c 0.56567,-2.82839 0.37841,-5.1559 -0.4716,-5.86136 -0.65182,-0.54096 -0.80896,-0.52764 -0.81096,0.0687 -0.002,0.40685 -0.77643,1.56557 -1.72234,2.57494 l -1.71983,1.83523 1.83672,1.53337 c 1.01018,0.84334 1.99747,1.53336 2.19394,1.53336 0.19637,0 0.5088,-0.75793 0.69407,-1.68429 z m -50.29129,0.0485 c 1.49622,-0.80075 1.33252,-2.58257 -0.27428,-2.98585 -0.72425,-0.18171 -1.57312,-0.17213 -1.88642,0.0216 -0.76517,0.47291 -0.72214,2.07618 0.0772,2.87549 0.78417,0.78417 0.78429,0.78417 2.08354,0.0888 z m 3.21738,-0.81234 c 0.51676,-0.62267 0.53559,-0.98563 0.075,-1.44624 -0.71764,-0.71763 -0.90668,-0.57496 -1.41074,1.06486 -0.42796,1.39232 0.31962,1.60576 1.33577,0.38138 z m -6.80112,-1.13224 c 0.1868,-0.48709 0.22333,-1.00212 0.0809,-1.14453 -0.50133,-0.50132 -1.92234,0.38924 -1.92234,1.20474 0,1.10346 1.4126,1.05726 1.84142,-0.0603 z m 11.53567,-0.32709 c -0.23646,-1.66498 -3.13659,-2.1065 -3.13659,-0.47751 0,0.9781 0.40802,1.20818 2.86709,1.6168 0.24296,0.0403 0.36423,-0.47232 0.2695,-1.13929 z m -12.83813,-2.93004 c 0,-0.85148 -3.63508,-0.82797 -4.16344,0.0269 -0.17315,0.28024 -0.0348,0.33648 0.30736,0.12487 0.35375,-0.21862 0.62224,-0.0684 0.62224,0.34791 0,0.40287 0.28773,1.02021 0.63941,1.37189 0.49324,0.49323 0.86288,0.43717 1.61693,-0.24523 0.53762,-0.48655 0.9775,-1.21845 0.9775,-1.62645 z m 7.5681,1.15133 c 0.57095,-0.68798 0.54563,-0.98329 -0.14341,-1.67233 -1.06502,-1.06502 -3.11289,-0.48458 -3.11289,0.88231 0,1.62102 2.13644,2.13933 3.2563,0.79002 z m -4.33425,-1.0509 c 0,-0.44916 -0.4791,-0.80848 -1.07796,-0.80848 -1.07376,0 -1.40193,0.57432 -0.71861,1.25761 0.65642,0.65644 1.79657,0.3714 1.79657,-0.44913 z m 63.86843,69.79715 c 0.18314,-0.29643 0.44007,-0.53896 0.57079,-0.53896 0.13078,0 0.23768,0.24253 0.23768,0.53896 0,0.29644 -0.25685,0.53897 -0.57078,0.53897 -0.31393,0 -0.42088,-0.24253 -0.23769,-0.53897 z m -21.07218,-12.66675 c 0.2156,-2.02222 0.91438,-2.36591 0.7627,-0.37513 -0.0723,0.94789 -0.30573,1.72343 -0.51888,1.72343 -0.21316,0 -0.32288,-0.60675 -0.24382,-1.3483 z m 6.45213,-11.18285 c 0.19555,-0.60786 0.022,-0.9432 -0.48813,-0.9432 -0.43536,0 -0.79154,-0.21984 -0.79154,-0.48853 0,-0.26867 0.48507,-0.36166 1.07794,-0.20662 1.22299,0.31982 1.30561,0.62517 0.47987,1.77308 -0.49087,0.68242 -0.53424,0.66142 -0.27814,-0.13465 z m -0.67818,-16.9426 c -0.0344,-0.94412 -0.30432,-2.35259 -0.59988,-3.12991 -0.33092,-0.87044 -0.33895,-1.29071 -0.0208,-1.09413 0.66072,0.40837 1.27555,3.64144 0.94011,4.94359 -0.15197,0.58978 -0.2824,0.29587 -0.31937,-0.71955 z m -3.83533,-5.84771 c 0,-0.39941 0.26944,-0.89272 0.59877,-1.09627 0.3749,-0.23169 0.51247,-1.56336 0.36792,-3.56175 -0.29375,-4.06073 0.54131,-2.72166 0.99205,1.59089 0.30778,2.94454 0.24436,3.21718 -0.81247,3.49355 -0.75021,0.19617 -1.14627,0.0489 -1.14627,-0.42642 z m -14.56838,-5.12418 c -0.82831,-1.16323 -1.0647,-2.04876 -0.81379,-3.04847 0.31084,-1.23844 0.44936,-1.31326 1.14443,-0.61819 0.43493,0.43493 0.84526,1.62484 0.91183,2.64423 0.0666,1.01941 0.36357,2.03165 0.66001,2.24944 0.33968,0.24956 0.30344,0.39904 -0.098,0.40423 -0.35035,0.004 -1.16235,-0.72951 -1.80443,-1.63124 z m 0.63895,-1.86934 c -0.26413,-0.98767 -0.56606,-1.33094 -0.81556,-0.92725 -0.21789,0.35253 -0.12264,1.15184 0.21142,1.77624 0.81342,1.51988 1.1218,1.08655 0.60414,-0.84899 z m 14.23356,-2.80086 c -0.2925,-0.76816 -0.2306,-0.83007 0.30171,-0.30173 0.36834,0.36561 0.53396,0.8005 0.368,0.96646 -0.16603,0.16602 -0.46731,-0.13322 -0.66971,-0.66473 z m -14.31747,-11.47646 c -0.44465,-0.28735 -0.56592,-0.52246 -0.26949,-0.52246 0.29644,0 0.90277,0.23511 1.34744,0.52246 0.44466,0.28735 0.56592,0.52247 0.26949,0.52247 -0.29644,0 -0.90279,-0.23512 -1.34744,-0.52247 z m -18.86411,-2.99856 c 2.96553,-0.92668 5.87197,-1.04088 5.02867,-0.1976 -0.31715,0.31717 -2.12407,0.66191 -4.01535,0.76608 l -3.43869,0.18945 z"
       id="path7464" />
  </g>
</svg>
