<?xml version="1.0" encoding="UTF-8" standalone="no"?>
<!-- Created with Inkscape (http://www.inkscape.org/) -->

<svg
   width="107.40585mm"
   height="108.13326mm"
   viewBox="0 0 107.40585 108.13326"
   version="1.1"
   id="svg5"
   inkscape:version="1.1 (c4e8f9ed74, 2021-05-24)"
   sodipodi:docname="ornament28.svg"
   xmlns:inkscape="http://www.inkscape.org/namespaces/inkscape"
   xmlns:sodipodi="http://sodipodi.sourceforge.net/DTD/sodipodi-0.dtd"
   xmlns="http://www.w3.org/2000/svg"
   xmlns:svg="http://www.w3.org/2000/svg">
  <sodipodi:namedview
     id="namedview7"
     pagecolor="#ffffff"
     bordercolor="#666666"
     borderopacity="1.0"
     inkscape:pageshadow="2"
     inkscape:pageopacity="0.0"
     inkscape:pagecheckerboard="0"
     inkscape:document-units="mm"
     showgrid="false"
     inkscape:zoom="0.66903058"
     inkscape:cx="202.53185"
     inkscape:cy="117.33395"
     inkscape:window-width="2506"
     inkscape:window-height="1403"
     inkscape:window-x="1974"
     inkscape:window-y="0"
     inkscape:window-maximized="1"
     inkscape:current-layer="layer1" />
  <defs
     id="defs2" />
  <g
     inkscape:label="Layer 1"
     inkscape:groupmode="layer"
     id="layer1"
     transform="translate(-51.335817,-117.60281)">
    <path
       style="fill:#000000;stroke-width:0.264583"
       d="m 100.09532,225.60615 c -1.439684,-0.18961 -7.916846,-1.42957 -8.995838,-1.72213 -0.582083,-0.15783 -1.616186,-0.51107 -2.298006,-0.78497 -0.681821,-0.2739 -1.442699,-0.49801 -1.690841,-0.49801 -1.558642,0 -11.921279,-6.13276 -15.549237,-9.20226 -0.639789,-0.54131 -2.084749,-1.7581 -3.211022,-2.70399 -1.126273,-0.94588 -2.654702,-2.4937 -3.396509,-3.43958 -0.741807,-0.94589 -2.031162,-2.46058 -2.865233,-3.366 -2.533714,-2.75043 -5.867353,-8.99108 -7.318084,-13.69963 -1.064413,-3.45469 -2.590204,-9.79543 -2.96054,-12.30312 -0.490042,-3.31827 -0.621382,-8.66671 -0.294505,-11.99288 0.289392,-2.94473 2.020116,-10.5967 2.672457,-11.81562 0.327601,-0.61212 2.247865,-5.21509 2.78792,-6.68277 1.136091,-3.08751 7.544029,-11.95139 10.242174,-14.16766 0.474472,-0.38973 0.922208,-0.77005 0.994968,-0.84515 4.945494,-5.10465 17.530995,-12.28198 24.638341,-14.0509 2.70043,-0.6721 13.935645,-0.97654 18.091865,-0.49023 5.62826,0.65854 9.67502,1.64081 13.44534,3.2636 1.48183,0.63779 3.1705,1.30759 3.75258,1.48844 3.6255,1.1264 11.50537,6.77753 16.22639,11.63691 2.09115,2.15244 5.39154,6.73928 6.66318,9.26042 0.33029,0.65485 1.07359,1.88867 1.65175,2.74183 3.76919,5.56188 5.95083,15.45766 6.05089,27.44633 0.0375,4.49435 -0.0361,5.55169 -0.55285,7.9375 -0.63506,2.93227 -2.14119,7.88289 -2.93023,9.63164 -0.26264,0.58208 -0.8605,1.94948 -1.32858,3.03865 -1.60846,3.74269 -3.6698,7.26918 -5.80201,9.92593 -0.81752,1.01865 -1.77509,2.26591 -2.12792,2.77171 -0.95926,1.37513 -5.69754,6.00293 -7.70987,7.53011 -5.38904,4.08978 -13.21983,8.09065 -18.47513,9.43921 -1.0914,0.28007 -2.34156,0.6251 -2.77812,0.76673 -2.0851,0.67649 -13.84989,1.29197 -16.93333,0.88589 z m 13.22916,-1.39819 c 8.39736,-1.0104 18.96311,-5.94661 25.60878,-11.96414 4.44677,-4.02648 5.65688,-5.28636 7.71403,-8.03132 3.0057,-4.01067 3.60038,-4.92916 5.00777,-7.73469 2.96722,-5.9149 3.9864,-8.63039 5.33919,-14.22573 1.26646,-5.23827 1.20166,-13.95328 -0.15965,-21.46872 -1.3802,-7.61975 -2.62046,-10.61231 -7.60562,-18.35107 -3.27303,-5.08092 -7.13833,-9.38364 -11.53195,-12.837 -1.29271,-1.01606 -2.78099,-2.18455 -3.3073,-2.59664 -1.84041,-1.44103 -8.10664,-4.22527 -13.26004,-5.89175 -5.95462,-1.92559 -9.46687,-2.45084 -16.80104,-2.51257 -5.51355,-0.0464 -9.9117,0.32792 -12.567709,1.06965 -1.80516,0.50412 -6.977634,2.64106 -8.334375,3.44323 -0.436563,0.25812 -1.448927,0.82215 -2.249697,1.2534 -3.652202,1.96685 -7.50783,4.45047 -9.064548,5.83896 -0.935498,0.8344 -2.545766,2.26255 -3.578373,3.17366 -1.032606,0.91112 -2.750088,2.69705 -3.816627,3.96875 -4.160403,4.96071 -5.444089,7.12729 -8.754755,14.7761 -1.487445,3.43653 -1.862238,4.64278 -2.671795,8.59896 -1.646259,8.04504 -1.287909,14.92383 1.302413,25.00073 1.952512,7.59568 4.961334,13.92414 8.352914,17.56869 0.744811,0.80036 2.442924,2.62283 3.773585,4.04993 4.811719,5.16044 12.590037,10.79607 18.399652,13.33109 1.783887,0.77841 3.071421,1.18851 9.35644,2.98018 1.129355,0.32194 3.093886,0.68396 4.365625,0.80447 2.91176,0.27594 11.34162,0.13382 14.48308,-0.24417 z m -12.43541,-2.29758 c -0.58209,-0.0561 -2.368025,-0.29025 -3.968754,-0.52025 -7.290713,-1.04756 -11.62983,-2.76635 -18.520834,-7.33639 -6.680231,-4.43025 -10.823509,-8.5602 -14.87518,-14.82735 -0.549901,-0.85059 -1.396498,-2.15693 -1.881327,-2.90297 -1.406302,-2.16399 -4.203313,-8.31296 -4.896292,-10.76405 -1.04666,-3.70206 -1.264423,-4.75513 -1.632479,-7.89443 -0.373063,-3.18201 -0.198406,-6.18634 0.817726,-14.06598 0.436889,-3.38789 1.659679,-8.73484 2.326739,-10.17425 0.205428,-0.44328 0.636561,-1.40128 0.958074,-2.12888 1.485484,-3.36175 2.200887,-4.65839 3.754574,-6.80502 0.918407,-1.26891 2.365303,-3.31313 3.215324,-4.54271 1.761256,-2.54772 7.345355,-8.15285 9.986185,-10.0238 1.841262,-1.30448 6.273911,-3.58278 9.370406,-4.81621 1.018646,-0.40576 2.209271,-0.89044 2.645834,-1.07707 3.891393,-1.66353 6.15374,-2.23137 10.211075,-2.56296 3.964469,-0.32399 10.083669,-0.0408 15.585799,0.72124 7.74552,1.07278 17.15881,5.51215 23.80786,11.22795 2.99557,2.57511 5.86778,5.40006 6.87927,6.76608 3.56105,4.80918 7.68997,12.99291 8.98871,17.81607 1.11306,4.13359 1.83203,10.6373 1.74511,15.78602 -0.0736,4.36078 -0.30169,6.02843 -1.30267,9.525 -0.2083,0.7276 -0.45795,1.78318 -0.55478,2.34572 -0.2164,1.25721 -1.79216,5.46777 -3.40622,9.10172 -1.96752,4.42972 -4.99842,8.55852 -9.59826,13.07509 -3.40096,3.3394 -4.4895,4.1943 -8.25213,6.48098 -8.49834,5.16472 -15.93248,7.34741 -25.84751,7.58895 -2.47386,0.0603 -4.97417,0.0636 -5.55625,0.007 z m 6.44348,-0.71778 c 0.23258,-0.28025 0.13345,-0.32705 -0.49678,-0.23455 -0.43303,0.0636 -0.78733,0.2211 -0.78733,0.35011 0,0.36302 0.95851,0.27676 1.28411,-0.11556 z m 0.97191,-0.95413 c 1.89566,-0.14592 4.03878,-0.38647 4.7625,-0.53456 0.72372,-0.1481 2.86367,-0.57559 4.75544,-0.95 1.89177,-0.3744 4.13204,-0.97165 4.97838,-1.32722 0.84633,-0.35556 1.70954,-0.64648 1.91822,-0.64648 0.20869,0 0.37944,-0.1044 0.37944,-0.232 0,-0.22623 2.28079,-1.31478 2.74855,-1.3118 0.12924,7.9e-4 0.30784,-0.11107 0.39687,-0.24864 0.089,-0.13757 1.50113,-1.15309 3.13801,-2.25669 5.18944,-3.49879 9.36255,-7.36614 12.49628,-11.58068 1.51241,-2.03405 4.76821,-7.40391 4.76821,-7.86433 0,-0.13852 0.40124,-1.24909 0.89164,-2.46792 1.00585,-2.49991 2.84896,-9.7808 3.3513,-13.23877 0.58813,-4.04844 -0.094,-14.22885 -1.24644,-18.60221 -1.43462,-5.44429 -5.1278,-12.93003 -8.36775,-16.96071 -4.41077,-5.48724 -12.7396,-12.34903 -15.73542,-12.96378 -0.18528,-0.038 -0.75763,-0.31738 -1.27189,-0.6208 -0.51426,-0.30342 -1.03897,-0.55168 -1.16602,-0.55168 -0.12705,0 -0.98345,-0.34772 -1.90311,-0.77271 -2.26147,-1.04507 -6.78973,-2.36819 -9.21273,-2.69188 -3.56067,-0.47567 -9.62012,-1.02677 -11.32612,-1.03008 -4.050124,-0.008 -12.504564,1.86208 -15.047035,3.32809 -0.607997,0.35058 -1.220952,0.63742 -1.36212,0.63742 -0.523732,0 -6.302407,2.96743 -7.368826,3.78399 -0.607827,0.46542 -1.848128,1.37695 -2.756223,2.02562 -0.908095,0.64867 -2.338975,1.81627 -3.179731,2.59466 -2.006814,1.85796 -5.738739,6.19858 -6.764306,7.8676 -2.66705,4.3404 -6.139714,11.09246 -7.007583,13.62517 -0.274421,0.80085 -0.729465,1.63468 -1.011209,1.85296 -0.822961,0.63759 -1.259185,2.9601 -1.225215,6.5232 0.01686,1.76874 -0.06448,3.15709 -0.180761,3.08521 -0.116282,-0.0719 -0.142146,0.74315 -0.05748,1.81118 0.738405,9.31421 0.793451,9.72414 1.895045,14.1127 0.835483,3.32843 1.906523,5.92498 3.765215,9.12813 0.802194,1.38245 1.941733,3.34698 2.53231,4.36562 3.924702,6.76946 10.07069,12.57004 17.873202,16.86873 2.11758,1.16665 7.778099,3.19083 11.90625,4.25762 2.832629,0.732 8.916787,1.53511 9.921877,1.30969 0.14552,-0.0326 1.81558,-0.17873 3.71123,-0.32465 z m -8.20914,-2.38086 c -1.878168,-0.24638 -6.099523,-1.15823 -8.56471,-1.85005 -2.284267,-0.64105 -6.155851,-2.45922 -9.243867,-4.34111 -1.354508,-0.82545 -2.529377,-1.50082 -2.610821,-1.50082 -0.499245,0 -4.330504,-3.26541 -6.616237,-5.63907 -6.452938,-6.70115 -9.983809,-12.66055 -11.968539,-20.20048 -1.903725,-7.23219 -2.039764,-16.85151 -0.324935,-22.97608 0.285213,-1.01865 0.761743,-2.75027 1.058956,-3.84804 1.665428,-6.15138 5.59733,-12.50141 11.952309,-19.30301 3.889081,-4.1624 6.401644,-5.78758 14.543881,-9.40733 4.696976,-2.0881 5.408359,-2.32751 7.9375,-2.67121 3.975313,-0.54024 7.528193,-0.60589 11.773963,-0.21756 2.03729,0.18633 3.80187,0.27852 3.92129,0.20486 0.22295,-0.13751 1.44627,0.22165 7.51102,2.20519 5.50263,1.7997 8.15269,3.26612 13.98037,7.73609 2.05461,1.57593 7.66465,7.18546 9.29457,9.29372 2.12811,2.75264 3.73224,6.15465 5.29484,11.22919 1.47873,4.80221 2.22007,8.2571 2.49183,11.6128 0.14124,1.74398 0.31207,3.26034 0.37964,3.36967 0.24867,0.40235 -0.45909,7.08964 -1.07913,10.19625 -1.04808,5.25121 -3.05791,10.42535 -6.15311,15.8407 -1.45308,2.54229 -2.05878,3.39654 -4.13199,5.82743 -3.40505,3.99253 -6.53571,6.53329 -11.79788,9.57483 -5.45489,3.15295 -12.41196,4.79706 -21.03437,4.97092 -2.7649,0.0558 -5.74146,0.008 -6.61458,-0.10689 z m 7.69883,-1.15911 c -0.27679,-0.17334 -0.74474,-0.58306 -1.0399,-0.91048 -0.29516,-0.32742 -0.62508,-0.59531 -0.73317,-0.59531 -0.205,0 -1.82472,1.54464 -1.82472,1.74014 0,0.0616 0.92273,0.10494 2.05052,0.0964 1.69556,-0.0129 1.9634,-0.0701 1.54727,-0.33073 z m -10.212376,-0.71204 c 0,-0.14552 -0.11526,-0.26458 -0.256133,-0.26458 -0.140874,0 -0.408765,-0.28824 -0.595312,-0.64052 -0.337749,-0.63781 -0.341821,-0.63837 -0.964168,-0.132 l -0.624988,0.50852 0.889571,0.38623 c 1.056632,0.45875 1.55103,0.50413 1.55103,0.14235 z m 6.446666,-0.4304 c 0.37377,-0.2726 0.86363,-0.87402 1.08857,-1.33647 0.42611,-0.87601 0.42612,-0.91467 0.005,-16.09251 -0.0687,-2.47385 -0.1264,-5.06346 -0.12832,-5.75468 l -0.003,-1.25678 h -1.82213 -1.82212 l -0.31333,1.78594 c -0.17233,0.98227 -0.49338,2.54747 -0.71346,3.47824 -0.870642,3.68224 -2.354322,12.72459 -2.631008,16.03478 -0.15975,1.91121 0.193951,2.71874 1.484892,3.39011 1.188786,0.61823 3.854046,0.48176 4.855486,-0.24863 z m 8.34549,-0.18344 c 0.52781,-0.34928 1.18467,-1.05289 1.45969,-1.56357 0.49792,-0.92458 0.49709,-0.93955 -0.19646,-3.54273 -1.17888,-4.42481 -2.0483,-7.99478 -2.98858,-12.27153 -0.49591,-2.25557 -1.05566,-4.75588 -1.24389,-5.55625 l -0.34223,-1.45521 -1.57316,0.0942 c -0.86523,0.0518 -1.59848,0.11682 -1.62944,0.14448 -0.031,0.0277 0.056,4.94795 0.19329,10.93397 0.20021,8.73046 0.32998,11.08458 0.65596,11.89927 0.85316,2.13227 3.50245,2.74837 5.66482,1.31738 z m 4.69389,0.36619 c 0.6859,-0.19662 0.70642,-0.23487 0.22541,-0.42033 -0.29104,-0.11221 -0.91721,-0.49097 -1.39149,-0.84167 -0.80161,-0.59275 -0.87419,-0.60397 -1.03097,-0.15931 -0.0928,0.26308 -0.47862,0.82005 -0.85747,1.2377 l -0.68882,0.75936 1.49438,-0.17972 c 0.82191,-0.0988 1.83395,-0.27706 2.24896,-0.39603 z m -23.374675,-0.66923 c 0.02869,-0.14048 0.528421,-0.50675 1.110504,-0.81393 0.582083,-0.30719 1.197872,-0.83637 1.368417,-1.17597 0.170545,-0.3396 0.746726,-2.94989 1.280398,-5.80065 0.533673,-2.85076 1.435934,-7.4795 2.005021,-10.28609 0.569085,-2.80658 1.034705,-5.27713 1.034705,-5.4901 0,-0.30708 -0.43067,-0.38722 -2.080886,-0.38722 h -2.080885 l -1.397413,3.37344 c -4.052813,9.78375 -4.743582,11.53371 -5.520253,13.98472 -0.650179,2.05185 -0.787358,2.81951 -0.594479,3.32681 0.409186,1.07624 1.86245,2.32997 3.077498,2.65494 0.802497,0.21464 1.092579,0.41362 0.990561,0.67948 -0.09614,0.25054 0.0057,0.34494 0.305186,0.28297 0.2472,-0.0511 0.472932,-0.20792 0.501626,-0.3484 z m 28.494875,-0.43403 c 0,-0.13012 0.22821,-0.23659 0.50712,-0.23659 0.27892,0 0.54681,-0.0893 0.59532,-0.19844 0.0485,-0.10914 0.84156,-0.55216 1.76235,-0.98449 1.61333,-0.7575 2.49149,-1.41712 1.46783,-1.10254 -0.47064,0.14462 -1.84847,-0.0918 -2.77345,-0.47596 -0.31097,-0.12914 -0.52175,0.0565 -0.78454,0.69093 -0.19764,0.47714 -0.72999,1.22749 -1.18302,1.66745 -0.80841,0.7851 -0.81226,0.80063 -0.20764,0.83808 0.33882,0.021 0.61603,-0.0683 0.61603,-0.19844 z m -1.35883,-0.95391 c 1.05311,-0.77154 1.67505,-2.14389 1.50115,-3.31235 -0.0808,-0.54283 -0.69429,-2.15017 -1.36333,-3.57188 -2.86097,-6.07955 -6.13498,-13.26018 -6.57376,-14.41771 -0.26049,-0.6872 -0.66706,-1.30028 -0.90349,-1.3624 -0.63145,-0.1659 -3.41281,-0.0496 -3.6135,0.15106 -0.0947,0.0947 -0.0419,0.5681 0.11727,1.05193 0.15923,0.48384 0.64705,2.36799 1.08406,4.187 0.437,1.81901 1.09684,4.37886 1.4663,5.68854 0.36947,1.30969 1.07667,3.96641 1.57155,5.90382 1.00984,3.95339 1.47949,4.93235 2.79522,5.82646 1.08767,0.73913 2.79856,0.67605 3.91853,-0.14447 z m -32.58616,-0.99222 c -0.325908,-0.51182 -0.738563,-0.86195 -0.9355,-0.79375 -0.193802,0.0671 -0.640287,0.12204 -0.992188,0.12204 -1.00702,0 -0.752112,0.41477 0.616953,1.00388 1.789914,0.7702 1.981721,0.72159 1.310735,-0.33217 z m 38.64985,-1.61179 c 1.56785,-0.65493 2.43889,-1.64514 2.43889,-2.77257 0,-1.23443 -0.91006,-2.64815 -6.45581,-10.02869 -2.35794,-3.13804 -4.51504,-6.09249 -4.79355,-6.56543 -0.46651,-0.79216 -0.61306,-0.8599 -1.86046,-0.8599 -1.44532,0 -1.84351,0.17261 -1.4698,0.63712 0.12785,0.15891 0.56265,1.12236 0.96622,2.14101 0.40357,1.01864 1.91646,4.29286 3.36197,7.27604 1.44552,2.98318 2.74264,5.71681 2.88249,6.07475 0.6208,1.58884 2.1218,3.67071 2.93587,4.072 1.05008,0.51764 0.82342,0.51472 1.99418,0.0257 z m -39.579752,-0.58128 c 0.373049,-0.40018 0.946954,-1.56104 1.275345,-2.57968 0.328387,-1.01865 0.693208,-1.97482 0.810707,-2.12483 0.117499,-0.15 0.803209,-1.75735 1.523796,-3.57187 0.720588,-1.81453 2.04583,-4.90648 2.944985,-6.87101 0.899154,-1.96453 1.693029,-3.70614 1.764167,-3.87025 0.161983,-0.37366 -0.980588,-0.5383 -2.519899,-0.36309 l -1.162251,0.1323 -1.844101,3.0427 c -1.014257,1.67349 -2.253634,3.60292 -2.754178,4.28762 -2.617634,3.5807 -5.644925,8.53057 -5.644925,9.22991 0,0.89876 1.205735,2.36783 2.444599,2.97851 1.321615,0.65147 2.3739,0.55485 3.161755,-0.29031 z m 44.298722,-1.16008 c 0.35317,-0.38915 0.31331,-0.46008 -0.39791,-0.70801 -0.74463,-0.25958 -0.8002,-0.23089 -0.95976,0.49559 -0.0931,0.42412 -0.27927,0.83905 -0.4136,0.92206 -0.13432,0.083 -0.24422,0.26971 -0.24422,0.41487 0,0.30965 1.44623,-0.49725 2.01549,-1.12451 z m -50.259475,0.0825 c -0.241644,-0.26701 -0.439351,-0.62493 -0.439351,-0.79537 0,-0.17044 -0.357188,-0.3099 -0.79375,-0.3099 -1.097566,0 -0.99273,0.38052 0.320612,1.1637 1.217964,0.72631 1.600498,0.70181 0.912489,-0.0584 z m 52.684245,-2.87596 c 1.355,-1.53376 1.44204,-2.69874 0.30924,-4.13887 -0.30452,-0.38712 -2.42047,-2.4555 -4.70211,-4.59639 -4.67385,-4.38553 -6.81291,-6.62922 -6.5606,-6.88153 0.0942,-0.0942 1.58174,1.18987 3.30571,2.85343 8.23672,7.94818 9.43706,8.9778 10.46635,8.9778 1.24008,0 2.16714,-0.62076 2.81056,-1.88196 0.52087,-1.02099 0.62786,-2.10157 0.29212,-2.95042 -0.19974,-0.50499 -2.50995,-2.36706 -6.21612,-5.01032 -1.40599,-1.00276 -2.17232,-1.70033 -1.92378,-1.75115 0.39553,-0.0809 3.1038,1.69674 6.7742,4.44635 0.94589,0.7086 1.93955,1.29697 2.20814,1.30751 1.46012,0.0573 3.00772,-1.94969 2.70839,-3.51229 -0.13934,-0.7274 -0.44645,-0.98335 -2.39915,-1.99954 l -2.23936,-1.16536 -8.9364,0.21972 c -4.91503,0.12084 -9.56149,0.19319 -10.32547,0.16077 -0.76399,-0.0324 -1.38907,0.0127 -1.38907,0.10027 0,0.26942 1.98343,3.07412 3.55356,5.02496 1.93234,2.4009 5.83229,7.50261 7.08387,9.26677 2.14653,3.02561 3.50444,3.42677 5.17992,1.53025 z m -53.255888,0.21432 c 2.270459,-3.24239 10.186459,-15.28755 10.186459,-15.49995 0,-0.0779 -0.794846,-0.1416 -1.766324,-0.1416 h -1.766322 l -2.1396,2.18282 c -5.021117,5.12252 -8.25481,8.59403 -8.810869,9.45885 -0.726008,1.12914 -0.754052,2.00718 -0.09598,3.00532 1.212429,1.839 3.447036,2.34495 4.392641,0.99456 z m 57.156788,-3.15524 c -0.0629,-0.0629 -0.53668,-0.0352 -1.05278,0.0616 -0.76169,0.14289 -0.93838,0.29426 -0.93838,0.80387 0,0.34531 -0.0768,0.84593 -0.17071,1.11249 -0.094,0.2668 0.3793,-0.0431 1.05279,-0.68946 0.67292,-0.64577 1.17201,-1.22561 1.10908,-1.28853 z m -62.60712,0.0594 c 0.01548,-0.16807 -0.47702,-0.28664 -1.190553,-0.28664 H 72.92292 l 1.018489,0.85859 c 0.994585,0.83842 1.022528,0.84515 1.190554,0.28663 0.09464,-0.31458 0.183933,-0.70094 0.198437,-0.85858 z m 0.0377,-1.61423 c 0.638384,-0.37711 5.412685,-5.11443 9.767202,-9.69157 l 1.179568,-1.23987 h -2.797341 -2.797345 l -3.012432,2.41934 c -5.365297,4.30895 -6.055143,5.06222 -6.055143,6.61185 0,0.76498 0.175969,1.12401 0.814052,1.66092 0.943528,0.79393 1.837714,0.86768 2.901439,0.23933 z m -4.509241,-2.44374 c 0,-0.64746 -0.131749,-0.80167 -0.812669,-0.95123 -1.108938,-0.24356 -1.17941,-0.0705 -0.36531,0.89698 0.867391,1.03083 1.177979,1.04514 1.177979,0.0542 z m 71.487661,-1.71479 c 0.23049,-0.42022 0.20193,-0.47473 -0.17331,-0.33073 -0.24712,0.0948 -0.55862,0.17241 -0.69224,0.17241 -0.13362,0 -0.23916,0.38695 -0.23453,0.85989 0.008,0.82752 0.0238,0.83997 0.41626,0.33073 0.22432,-0.29104 0.53204,-0.75558 0.68382,-1.0323 z M 72.063907,197.1851 c 0.271323,-0.2998 2.032731,-1.75832 3.914244,-3.24114 l 3.42093,-2.69604 -3.612055,-0.0736 c -4.029601,-0.0822 -3.937746,-0.10883 -6.466902,1.87876 -1.67186,1.31386 -1.691595,1.34455 -1.54892,2.40827 0.195555,1.45797 1.147883,2.2689 2.664525,2.2689 0.809907,0 1.276119,-0.15609 1.628178,-0.54511 z m -5.546633,-3.73411 c -0.447813,-0.098 -0.84037,-0.15202 -0.872349,-0.12004 -0.03198,0.032 0.189106,0.46471 0.4913,0.96163 l 0.549443,0.90348 0.322906,-0.78344 c 0.311542,-0.75588 0.294252,-0.78972 -0.4913,-0.96163 z m 78.896836,-1.3488 0.31561,-0.73322 -0.79782,0.58985 c -0.45446,0.33599 -0.73779,0.74627 -0.65835,0.9533 0.0767,0.1999 0.13947,0.49927 0.13947,0.66526 0,0.36717 0.56896,-0.47124 1.00109,-1.47519 z m -76.315887,-0.0841 c 0.554421,-0.37673 0.960861,-0.73215 0.9032,-0.78981 -0.05766,-0.0577 -1.257237,-0.0291 -2.665726,0.0634 -2.205303,0.14486 -2.516336,0.2219 -2.240028,0.55483 0.850534,1.02483 2.634369,1.10131 4.002554,0.1716 z m 75.760767,-0.94863 c 0.3368,-0.31641 0.61229,-0.64384 0.6122,-0.72761 -1e-4,-0.0838 -1.1369,-0.16795 -2.52623,-0.18705 -1.38932,-0.0191 -2.46673,0.0246 -2.39424,0.0971 0.33785,0.33784 2.72784,1.37721 3.18379,1.38458 0.28167,0.005 0.78768,-0.25061 1.12448,-0.56701 z m -40.00117,-0.87489 c 6.985,-0.0542 15.73609,-0.22456 19.44687,-0.37861 3.71078,-0.15405 10.24027,-0.32208 14.50997,-0.37341 6.19508,-0.0745 7.80816,-0.16622 7.98617,-0.45425 0.14803,-0.23951 0.0469,-0.48433 -0.30064,-0.72775 -0.44222,-0.30974 -0.51154,-0.6193 -0.44554,-1.98964 l 0.0782,-1.62283 1.19062,-0.25144 c 0.65484,-0.13829 0.99123,-0.29745 0.74753,-0.35369 -0.2437,-0.0562 -0.92831,0.0284 -1.52135,0.18809 l -1.07826,0.29035 v 1.96023 1.96023 l -3.73834,0.0801 c -2.33028,0.0499 -3.77082,-0.0195 -3.82456,-0.18449 -0.0474,-0.14552 -0.14523,-1.24606 -0.21735,-2.44563 l -0.13113,-2.18105 0.71454,-0.1972 c 0.393,-0.10845 1.72658,-0.19854 2.9635,-0.2002 l 2.24896,-0.003 0.077,1.88298 0.077,1.88298 -0.8377,0.16754 c -0.46074,0.0922 -1.41813,0.16755 -2.12755,0.16755 h -1.28984 v -1.19063 -1.19062 h 1.35599 c 1.35454,0 1.35583,7.9e-4 1.20283,0.76579 -0.12675,0.63374 -0.0745,0.74521 0.30322,0.64644 0.35785,-0.0936 0.43489,-0.34459 0.35688,-1.16266 -0.0966,-1.01261 -0.12886,-1.04332 -1.09697,-1.04332 -1.9353,0 -2.58978,0.25586 -2.70758,1.0585 -0.0596,0.40598 -0.0578,1.17123 0.004,1.70055 l 0.11236,0.96241 2.81431,-0.0748 2.81432,-0.0748 0.13229,-2.10406 0.13229,-2.10406 1.89812,-0.40948 c 1.04397,-0.22521 1.99647,-0.51313 2.11667,-0.63982 0.12391,-0.1306 -1.61455,-0.15648 -4.01479,-0.0598 -6.68009,0.26916 -14.81986,0.39177 -38.1,0.57393 -11.932709,0.0934 -21.758384,0.20704 -21.834833,0.25259 -0.07645,0.0456 -5.255668,0.16604 -11.509375,0.26776 -6.253707,0.10172 -11.398804,0.2091 -11.43355,0.23863 -0.03475,0.0295 0.322443,1.1762 0.79375,2.54816 l 0.856924,2.49447 0.07596,-2.28208 0.07597,-2.28208 0.982368,-0.16241 c 1.447633,-0.23932 2.840796,-0.20301 3.62311,0.0944 0.662656,0.25194 0.687625,0.33553 0.612537,2.05052 l -0.07828,1.78788 -0.992187,0.0821 c -0.909564,0.0753 -0.992188,0.0257 -0.992188,-0.59531 0,-0.37259 -0.119062,-0.67743 -0.264583,-0.67743 -0.356788,0 -0.338996,1.77487 0.02002,1.99675 0.156529,0.0967 0.930436,0.0952 1.719791,-0.003 l 1.435193,-0.17932 v -2.24932 c 0,-1.89141 0.06521,-2.23571 0.409821,-2.16378 0.324391,0.0677 0.437164,0.61798 0.540986,2.63966 l 0.131164,2.55411 -2.537112,0.19021 c -1.395412,0.10462 -2.583155,0.14418 -2.639428,0.0879 -0.05627,-0.0563 -0.160091,-0.77606 -0.230705,-1.59953 -0.155936,-1.81844 0.181793,-2.4149 1.295613,-2.28815 0.628047,0.0715 0.797073,0.23112 0.864423,0.81645 0.04605,0.40019 0.179296,0.72761 0.29611,0.72761 0.254329,0 0.585348,-1.83929 0.388377,-2.158 -0.07589,-0.12279 -0.904858,-0.22325 -1.842156,-0.22325 h -1.704176 v 1.42213 c 0,2.03323 -0.258944,3.13456 -0.697432,2.9663 -0.435332,-0.16705 -0.451368,-0.0248 -0.07621,0.67622 0.281411,0.52582 0.445113,0.53002 14.221356,0.36511 7.665164,-0.0917 19.651665,-0.21116 26.636672,-0.26535 z m -31.551567,-0.61298 -1.653646,-0.0788 v -2.63321 -2.63321 h 2.645834 2.645833 v 1.98437 c 0,1.09141 -0.0893,1.99078 -0.198438,1.99861 -0.10914,0.008 -0.912812,0.0328 -1.785937,0.0556 l -1.5875,0.0414 -0.07968,-1.37008 c -0.07365,-1.2663 -0.03014,-1.38252 0.574384,-1.53424 1.080526,-0.2712 1.621962,-0.0454 1.621962,0.67645 0,0.4127 -0.170932,0.68713 -0.463021,0.74338 -0.282559,0.0544 -0.463021,-0.0731 -0.463021,-0.3271 0,-0.45243 -0.40726,-0.563 -0.646703,-0.17557 -0.360007,0.5825 0.196014,1.08221 1.204177,1.08221 h 1.030026 v -1.19063 -1.19062 H 74.29844 72.446356 v 1.86134 1.86134 l 2.711979,-0.0754 2.71198,-0.0754 0.07648,-2.15992 0.07648,-2.15992 2.17248,-0.18006 c 1.194866,-0.099 2.529671,-0.13909 2.966233,-0.089 l 0.79375,0.091 0.153448,2.51354 c 0.08439,1.38245 0.107133,2.60284 0.05053,2.71198 -0.05661,0.10914 -1.107921,0.19843 -2.33626,0.19843 h -2.233343 v -1.95606 c 0,-2.18021 0.07986,-2.27727 1.873724,-2.27727 h 1.036693 v 1.29206 c 0,1.10833 -0.08269,1.31368 -0.581544,1.44413 -0.696412,0.18212 -1.270539,-0.23203 -1.270539,-0.9165 0,-0.6244 0.493003,-0.64184 0.954603,-0.0337 0.32126,0.4232 0.352208,0.40424 0.3599,-0.22049 0.01072,-0.87117 -0.119613,-0.98901 -0.923846,-0.83527 -0.593421,0.11344 -0.655241,0.25034 -0.655241,1.451 v 1.32573 l 1.328735,-0.12767 c 0.730803,-0.0702 1.374328,-0.17467 1.430055,-0.2321 0.164859,-0.16992 0.216259,-0.81243 0.182975,-2.28724 l -0.03135,-1.38907 h -1.830443 c -2.710125,0 -2.667474,-0.0403 -2.667474,2.52095 v 2.19975 l -1.918229,0.0871 c -1.055026,0.0479 -2.66237,0.0516 -3.571875,0.008 z m 27.643657,-0.6243 c -0.21528,-1.36446 -0.0726,-3.14542 0.26891,-3.35648 0.16914,-0.10454 0.78922,-0.14413 1.37795,-0.088 l 1.07042,0.10209 v 1.16283 c 0,1.11565 -0.0322,1.16283 -0.79375,1.16283 -0.69156,0 -0.79267,-0.0937 -0.78534,-0.7276 0.008,-0.66145 0.0404,-0.68551 0.3599,-0.26458 0.4849,0.63877 0.69002,0.57978 0.69002,-0.19844 0,-0.45512 -0.14444,-0.66019 -0.46302,-0.65741 -0.78362,0.007 -1.02172,0.3501 -1.00666,1.45116 l 0.0145,1.05833 1.52136,0.0794 1.52135,0.0794 v -1.99758 -1.99758 l -0.85989,0.002 c -0.47295,0.001 -1.48042,0.0768 -2.23884,0.16794 l -1.37894,0.16565 -0.0763,2.14716 -0.0763,2.14707 h -3.175004 -3.175 l -0.07664,-2.48982 c -0.04215,-1.3694 0.01738,-2.58184 0.132292,-2.69431 0.114911,-0.11246 1.101897,-0.23283 2.193303,-0.26748 l 1.984375,-0.063 0.0792,1.80759 c 0.08895,2.03004 -0.05694,2.23812 -1.476722,2.10616 -1.049427,-0.0975 -1.37066,-0.44944 -1.376555,-1.50798 -0.0036,-0.65327 0.08877,-0.72761 0.904417,-0.72761 0.787945,0 0.923089,0.0965 1.018691,0.72761 0.07739,0.51088 0.122031,0.39266 0.149865,-0.39688 l 0.03964,-1.12448 h -1.322917 -1.322917 v 1.71049 c 0,2.06474 0.169588,2.1929 2.711979,2.04936 l 1.785938,-0.10083 v -2.06102 -2.06102 l 0.826823,-0.16536 c 0.454752,-0.0909 1.869302,-0.16537 3.143442,-0.16537 h 2.31661 l 0.12545,2.57969 c 0.069,1.41883 0.0534,2.657 -0.0346,2.75149 -0.088,0.0945 -1.12697,0.25435 -2.30879,0.35525 l -2.14877,0.18346 z m -4.531199,-2.53256 c -0.268955,-0.26895 -0.490869,0.13597 -0.270198,0.49302 0.166695,0.26972 0.229018,0.26993 0.318638,10e-4 0.06128,-0.18383 0.03948,-0.40617 -0.04844,-0.49409 z m -11.099078,1.32642 c -0.09323,-0.98722 -0.17036,-2.22447 -0.171394,-2.74945 l -0.0019,-0.95449 1.626312,-0.16998 c 0.894443,-0.0935 2.134828,-0.16999 2.756384,-0.16999 h 1.130102 l 0.08786,1.86646 c 0.04832,1.02656 -0.02524,1.97906 -0.163496,2.11667 -0.138245,0.13761 -0.696249,0.2502 -1.240007,0.2502 -0.917125,0 -0.996373,-0.0622 -1.095364,-0.85989 -0.08017,-0.64597 -0.117248,-0.54077 -0.149056,0.42285 l -0.04234,1.28275 1.653646,-0.18837 c 0.909505,-0.10361 1.754103,-0.24829 1.876883,-0.32151 0.122779,-0.0732 0.140152,-1.0717 0.03861,-2.21885 -0.174591,-1.97233 -0.155795,-2.08573 0.345749,-2.08573 0.484674,0 0.539806,0.2109 0.63976,2.4474 0.06016,1.34607 0.04224,2.5285 -0.03982,2.62763 -0.08206,0.0991 -1.339826,0.21819 -2.795034,0.26458 -2.627337,0.0838 -2.646469,0.0799 -2.736567,-0.55817 -0.0499,-0.35338 -0.01072,-1.28296 0.08708,-2.06572 0.175874,-1.40764 0.186992,-1.42231 1.016778,-1.34186 0.732827,0.0711 0.849445,0.19013 0.921866,0.94125 0.05856,0.60737 0.217533,0.85989 0.54133,0.85989 0.390771,0 0.437102,-0.18545 0.313965,-1.25677 l -0.144454,-1.25677 h -1.852084 -1.852083 v 2.35645 c 0,2.90728 -0.502147,3.4152 -0.752766,0.76142 z m 21.434367,1.60053 c -0.097,-0.097 -0.17639,-1.28537 -0.17639,-2.64079 0,-2.89425 -0.10175,-2.81166 3.30818,-2.68522 l 2.11578,0.0785 0.0777,1.91823 0.0777,1.91822 h -1.06992 c -1.01242,0 -1.06993,-0.0427 -1.06993,-0.79375 0,-0.43656 -0.10655,-0.79375 -0.23679,-0.79375 -0.24323,0 -0.5356,2.04984 -0.32273,2.26271 0.17638,0.17638 2.5681,0.14342 3.05142,-0.0421 0.33603,-0.12894 0.41852,-0.60209 0.41852,-2.40064 0,-1.99085 0.0515,-2.23017 0.46302,-2.15119 0.40413,0.0776 0.46302,0.42494 0.46302,2.73138 v 2.64251 l -2.71198,0.0754 -2.71198,0.0754 v -2.00885 -2.00884 l 1.12448,0.0814 c 0.93478,0.0676 1.13874,0.18179 1.20903,0.67667 0.13186,0.92847 0.57691,0.69885 0.57691,-0.29766 0,-0.78846 -0.0968,-0.91232 -0.82683,-1.05833 -0.45475,-0.091 -1.2316,-0.16537 -1.72634,-0.16537 -0.73522,0 -0.94944,0.13132 -1.17286,0.71897 -0.15035,0.39544 -0.2544,1.08004 -0.23123,1.52136 0.11474,2.18569 -0.0763,2.89834 -0.62885,2.34578 z m 8.39469,-0.13128 c -0.12094,-0.19458 -0.23544,-1.45511 -0.25445,-2.80118 l -0.0345,-2.4474 h 2.46113 2.46112 l -0.0537,1.91823 -0.0537,1.91823 -1.52135,0.0793 -1.52136,0.0794 V 186.6 c 0,-1.28849 0.0342,-1.35782 0.59532,-1.20744 0.32742,0.0877 0.74414,0.16117 0.92604,0.16315 0.39413,0.004 0.44551,0.95978 0.0643,1.1954 -0.14655,0.0906 -0.33762,-0.0208 -0.4246,-0.24745 -0.087,-0.22667 -0.25954,-0.34947 -0.38345,-0.27288 -0.4831,0.29856 0.0953,0.94333 0.77531,0.86421 0.74966,-0.0872 0.97987,-0.63139 0.71445,-1.68888 -0.14284,-0.56912 -0.30595,-0.64054 -1.46302,-0.64054 -0.71625,0 -1.37977,0.12542 -1.47451,0.27871 -0.0947,0.15328 -0.0901,0.98672 0.0104,1.85208 l 0.18261,1.57338 h 2.21268 2.21268 l 0.0764,-2.3151 0.0764,-2.31511 h 3.3073 3.30729 l 0.15157,2.51354 c 0.0834,1.38245 0.1429,2.53124 0.13229,2.55287 -0.0106,0.0216 -1.15037,0.0812 -2.53282,0.1323 l -2.51354,0.093 v -1.98438 -1.98437 l 1.61713,-0.0778 1.61713,-0.0778 0.16589,1.00387 c 0.26932,1.62972 0.25075,1.66532 -0.86878,1.66532 -0.82475,0 -1.07708,-0.11525 -1.21691,-0.5558 -0.097,-0.30569 -0.0416,-0.69059 0.12313,-0.85533 0.22298,-0.22299 0.33973,-0.1458 0.45684,0.30203 0.18527,0.70844 0.7514,0.6304 0.7514,-0.10357 0,-0.40318 -0.18981,-0.50712 -0.92604,-0.50712 -0.86879,0 -0.93031,0.0572 -0.9951,0.92604 -0.10729,1.43879 0.13213,1.61017 1.93492,1.38498 1.2593,-0.15731 1.56931,-0.28887 1.55167,-0.65849 -0.0121,-0.25405 -0.0419,-1.06153 -0.0661,-1.7944 l -0.0441,-1.3325 -2.57969,0.0757 -2.57968,0.0757 -0.0765,2.31511 -0.0764,2.3151 -2.43709,0.004 c -1.34041,0.002 -2.69155,0.0719 -3.00255,0.15534 -0.33201,0.0891 -0.65623,0.006 -0.78534,-0.20205 z m 13.60741,-2.80118 c -0.0593,-1.56869 0.008,-2.65587 0.17289,-2.77407 0.14877,-0.10692 1.41647,-0.19621 2.81711,-0.19844 l 2.54661,-0.004 0.16537,0.82682 c 0.0909,0.45475 0.16536,1.34772 0.16536,1.98438 v 1.15755 h -1.17222 c -1.00077,0 -1.18459,-0.084 -1.25677,-0.57459 -0.0465,-0.31602 -0.24132,-0.62625 -0.43292,-0.68939 -0.25657,-0.0846 -0.32629,0.15401 -0.26458,0.90532 l 0.0838,1.02012 1.98438,-0.0947 c 1.0914,-0.0521 2.08939,-0.15811 2.21775,-0.23564 0.12835,-0.0775 0.15533,-1.07672 0.0599,-2.22042 -0.16002,-1.91881 -0.13508,-2.07946 0.32289,-2.07946 0.43862,0 0.51714,0.29636 0.67553,2.54975 0.0986,1.40237 0.14592,2.57648 0.1052,2.60915 -0.0407,0.0327 -1.46307,0.13054 -3.16079,0.21749 l -3.08676,0.15808 -0.0882,-1.72103 c -0.0808,-1.57673 -0.0406,-1.73294 0.48016,-1.86312 1.01824,-0.25455 1.81285,-0.008 1.81285,0.56322 0,0.29398 0.17639,0.52917 0.39687,0.52917 0.28831,0 0.38841,-0.27386 0.36591,-1.00111 -0.017,-0.55061 -0.088,-1.05811 -0.15763,-1.12777 -0.0697,-0.0697 -0.94869,-0.0359 -1.9534,0.0751 l -1.82675,0.20172 -0.0469,1.32292 c -0.0258,0.7276 -0.0556,1.70987 -0.0661,2.18281 -0.0124,0.55254 -0.15198,0.8599 -0.39059,0.8599 -0.28666,0 -0.39359,-0.58824 -0.46892,-2.57969 z m 18.93441,0.35531 c 0.0879,-0.35028 0.23262,-0.82653 0.32157,-1.05833 0.12246,-0.31914 -0.006,-0.42146 -0.52804,-0.42146 -0.60535,0 -0.68977,0.10794 -0.68977,0.88194 0,1.33071 0.61015,1.73771 0.89624,0.59785 z m -6.32019,-0.68604 c -0.0899,-0.14552 -0.39463,-0.26458 -0.67708,-0.26458 -0.28245,0 -0.51355,0.11906 -0.51355,0.26458 0,0.14552 0.30468,0.26458 0.67707,0.26458 0.38401,0 0.6063,-0.11452 0.51356,-0.26458 z m -58.340629,-3.1623 c 4.438385,-0.14771 15.749323,-0.33219 25.135419,-0.40994 15.52243,-0.12858 33.30044,-0.51262 36.64479,-0.79159 0.7276,-0.0607 1.94799,-0.11569 2.71198,-0.12222 0.84173,-0.007 1.38906,-0.12862 1.38906,-0.30817 0,-0.2109 -0.85798,-0.24879 -2.97656,-0.13144 -1.63711,0.0907 -4.82203,0.22271 -7.07761,0.29342 -2.25557,0.0707 -5.1726,0.19057 -6.48229,0.26636 -1.30969,0.0758 -11.19786,0.19485 -21.97373,0.26459 -20.155435,0.13043 -30.733456,0.3142 -31.838054,0.5531 -0.346795,0.075 -4.246092,0.13651 -8.665104,0.13667 -4.728044,1.8e-4 -8.034568,0.10072 -8.034568,0.2443 0,0.13636 1.955255,0.27602 4.431771,0.31655 4.869643,0.0797 5.111461,0.0752 16.734896,-0.31163 z m -15.623646,-1.32733 c 0.06548,-0.005 -0.02381,-0.15116 -0.198438,-0.32579 -0.174625,-0.17462 -0.3175,-0.53181 -0.3175,-0.79375 0,-0.57983 -0.349409,-0.61477 -0.79375,-0.0794 -0.424374,0.51134 -0.959261,0.50751 -1.157187,-0.008 -0.08551,-0.22283 -0.149204,-1.56126 -0.141546,-2.97429 0.01365,-2.51862 0.04226,-2.63389 1.454827,-5.86181 0.792496,-1.81097 1.50483,-3.71699 1.582963,-4.23561 0.276973,-1.83845 0.327208,-3.07699 0.181505,-4.47496 l -0.147515,-1.41536 -1.049037,2.00985 c -1.181756,2.26412 -2.227966,3.39096 -4.626614,4.98314 l -1.653646,1.09766 7.41e-4,3.19087 c 7.41e-4,3.20187 0.397299,7.44174 0.793477,8.48377 0.200109,0.52633 0.372922,0.55351 3.082324,0.4849 1.578681,-0.04 2.923907,-0.0764 2.989391,-0.081 z m 5.040312,0.007 c 0,-0.13693 -0.119062,-0.32255 -0.264583,-0.41249 -0.145521,-0.0899 -0.264583,0.0221 -0.264583,0.24897 0,0.22687 0.119062,0.41249 0.264583,0.41249 0.145521,0 0.264583,-0.11204 0.264583,-0.24897 z m 5.99825,-0.17009 c 0.122939,-0.32038 0.209428,-0.34039 0.367276,-0.085 0.136845,0.22142 0.726668,0.31064 1.749118,0.26458 0.848455,-0.0382 2.566173,-0.0893 3.817147,-0.11346 1.481463,-0.0286 2.42703,-0.17056 2.711979,-0.40707 0.597543,-0.49599 0.548902,-0.77474 -0.15272,-0.87525 -0.482053,-0.069 -0.650643,-0.35778 -0.920033,-1.57567 -0.41565,-1.8791 -2.733408,-5.80364 -4.037505,-6.83651 -0.961893,-0.76183 -0.979662,-0.76496 -1.420387,-0.25023 -0.421401,0.49216 -0.41393,0.56504 0.133882,1.306 0.501719,0.67861 0.636331,0.73607 0.995238,0.42481 0.228278,-0.19796 0.563875,-0.30602 0.745776,-0.24012 0.513165,0.18591 0.389935,1.09259 -0.198437,1.46004 -0.32212,0.20116 -0.529167,0.61701 -0.529167,1.06281 0,0.6488 0.05637,0.69715 0.494117,0.42377 0.271767,-0.16972 0.696836,-0.23079 0.9446,-0.13572 0.572436,0.21967 0.450678,1.20846 -0.197443,1.60342 -0.381209,0.23231 -0.554376,0.18948 -0.851553,-0.21058 -0.357344,-0.48105 -0.384522,-0.47198 -0.645965,0.21566 -0.366416,0.96375 -0.344186,1.21257 0.108337,1.21257 0.523144,0 0.744011,0.43062 0.544031,1.0607 -0.201925,0.63621 -1.069785,0.6944 -1.405642,0.0942 -0.218559,-0.39054 -0.294338,-0.38026 -0.780439,0.10584 -0.386527,0.38652 -0.45753,0.61922 -0.251745,0.82501 0.385641,0.38564 0.0271,0.7085 -0.399299,0.35957 -0.18542,-0.15173 -1.051499,-0.31753 -1.924624,-0.36844 -1.477574,-0.0862 -1.593355,-0.0513 -1.672048,0.50275 -0.0782,0.55061 0.0168,0.59532 1.265074,0.59532 0.987343,0 1.39279,-0.11249 1.510432,-0.41906 z m 23.529333,-0.3126 c 0.16011,-0.10691 0.43341,-0.46455 0.60732,-0.79475 0.30858,-0.58589 0.29121,-0.59636 -0.72091,-0.43451 -1.20273,0.19232 -1.54263,-0.1278 -1.07261,-1.01018 0.42407,-0.79609 2.22887,-3.22976 3.44771,-4.64901 0.53742,-0.62579 1.22196,-1.63266 1.5212,-2.23747 0.43835,-0.88598 0.75507,-1.16195 1.63001,-1.42029 0.94402,-0.27874 1.1955,-0.25754 1.92438,0.16222 0.46114,0.26558 1.52305,0.69433 2.3598,0.95278 0.83674,0.25846 1.51964,0.53747 1.51754,0.62004 -0.002,0.0826 -0.62718,0.48896 -1.38906,0.90309 -0.76189,0.41414 -2.3533,1.40475 -3.53646,2.20136 -1.9037,1.28174 -2.16932,1.56005 -2.30871,2.41897 -0.20125,1.24021 0.15299,1.59568 1.85898,1.86535 0.73278,0.11584 1.75088,0.4693 2.26244,0.78546 0.83856,0.51826 1.294,0.57485 4.62666,0.57485 2.03309,0 6.0374,-0.0784 8.89845,-0.17422 4.1253,-0.13816 5.20193,-0.24872 5.20193,-0.53421 0,-0.24461 -0.1971,-0.31052 -0.61495,-0.20565 -0.8413,0.21116 -1.34842,-0.44775 -1.14137,-1.48299 0.14008,-0.7004 -0.002,-0.98325 -1.06492,-2.11957 -1.07809,-1.15256 -1.50204,-1.39492 -3.50215,-2.00208 -1.25156,-0.37993 -2.83716,-0.97364 -3.52355,-1.31936 -0.68638,-0.34573 -1.42081,-0.62859 -1.63207,-0.62859 -0.42342,0 -5.3989,-1.54215 -7.35466,-2.27959 -1.20428,-0.45407 -1.24391,-0.50452 -1.41877,-1.80575 -0.0989,-0.73624 -0.33496,-1.63627 -0.52449,-2.00008 -0.18953,-0.3638 -0.61997,-1.37583 -0.95653,-2.24896 -0.33656,-0.87312 -0.65156,-1.38713 -0.70001,-1.14224 -0.0484,0.24489 0.10632,0.82119 0.34392,1.28065 0.70809,1.3693 0.43323,1.58139 -2.04951,1.58139 -2.66313,0 -3.16133,-0.23755 -5.826381,-2.77813 -1.068552,-1.01864 -2.14534,-2.01549 -2.39286,-2.21521 -0.738042,-0.59551 -0.509442,0.12273 0.254106,0.79838 0.902454,0.79856 2.395432,2.19303 3.768925,3.52023 l 1.08151,1.04507 2.84511,0.0761 c 2.5267,0.0675 2.89692,0.13893 3.30813,0.63789 1.0561,1.28148 0.2956,1.82612 -2.54985,1.82612 -1.09412,0 -2.30656,0.14455 -2.69431,0.32122 -0.63109,0.28754 -0.75994,0.25288 -1.22928,-0.33073 -1.732332,-2.15407 -8.827658,-9.26355 -9.620676,-9.63986 -0.711094,-0.33743 -0.899075,-0.55779 -0.758967,-0.88968 0.102428,-0.24264 0.244332,-0.70905 0.315343,-1.03647 0.07101,-0.32742 0.230174,-0.59531 0.353695,-0.59531 0.123521,0 1.012407,0.78395 1.975303,1.74212 0.962893,0.95816 1.816491,1.67634 1.896885,1.59595 0.08039,-0.0804 -0.702633,-1.08773 -1.740062,-2.23853 l -1.886233,-2.09236 0.307814,-2.81907 c 0.234717,-2.14961 0.23436,-2.89252 -0.0016,-3.12838 -0.236029,-0.23603 -0.309313,0.086 -0.309313,1.35906 0,2.88891 -1.367444,7.44099 -2.944884,9.80322 -1.356138,2.03083 -2.901016,4.99057 -3.044185,5.83216 -0.485307,2.8528 -0.465291,2.9969 0.841296,6.05732 1.43307,3.35668 2.148964,4.15794 4.501319,5.03807 0.961993,0.35993 1.958218,1.00714 2.733667,1.77597 0.671041,0.66532 1.458203,1.30811 1.749245,1.42843 0.65981,0.27276 5.980393,0.31431 6.376543,0.0498 z m -6.839562,-2.8736 c -0.691224,-0.51885 -1.256448,-1.02125 -1.256056,-1.11645 2.64e-4,-0.0952 0.467148,-0.70887 1.03723,-1.36371 1.015976,-1.16703 1.05093,-1.18276 1.764009,-0.79375 0.980818,0.53507 1.03964,0.86906 0.303744,1.72459 -0.472509,0.54932 -0.763336,0.67998 -1.20297,0.54044 -0.717495,-0.22772 -0.793642,-0.94849 -0.0805,-0.762 0.604538,0.15809 0.999667,-0.37447 0.585282,-0.78886 -0.221017,-0.22102 -0.485185,-0.1096 -1.022051,0.43104 l -0.723995,0.7291 0.661458,0.51217 c 0.982197,0.76052 1.454031,0.64318 2.358361,-0.58652 0.449151,-0.61075 0.811996,-1.1763 0.80632,-1.25677 -0.0099,-0.14015 -2.259565,-1.86611 -2.432357,-1.86611 -0.04602,0 -0.60389,0.71438 -1.239715,1.5875 -0.635826,0.87313 -1.273435,1.5875 -1.416905,1.5875 -0.345268,0 -3.896537,-2.71404 -3.896537,-2.97791 0,-0.29626 1.896417,-3.10943 2.08798,-3.09734 0.08854,0.006 0.749975,0.52916 1.469861,1.16348 l 1.308886,1.1533 -0.727038,0.9532 c -0.854609,1.12045 -1.193496,1.17472 -1.996665,0.31979 -0.520319,-0.55385 -0.551291,-0.70347 -0.246629,-1.19132 0.425271,-0.68096 0.910784,-0.57682 0.802924,0.17223 -0.112644,0.78228 0.392572,0.97924 0.758406,0.29568 0.26533,-0.49578 0.220224,-0.64693 -0.317455,-1.06375 -0.799261,-0.6196 -1.217255,-0.53472 -1.756309,0.35663 -0.405101,0.66985 -0.40095,0.74841 0.06684,1.26531 0.274314,0.30312 0.8969,0.79719 1.383524,1.09794 l 0.884767,0.54682 0.587849,-0.73096 c 0.323315,-0.40202 0.802552,-1.0602 1.064971,-1.46263 l 0.477124,-0.73169 -1.450068,-1.07123 c -0.797539,-0.58917 -1.511779,-1.17107 -1.587204,-1.29311 -0.161406,-0.26116 0.929405,-1.95203 2.152473,-3.33656 l 0.863195,-0.97714 1.319618,1.11271 c 0.725786,0.612 1.319614,1.22115 1.319614,1.35368 0,0.40347 -1.696654,2.31218 -2.059829,2.31727 -0.497863,0.007 -1.645896,-0.80069 -1.634823,-1.15014 0.0052,-0.16516 0.294664,-0.64913 0.643181,-1.07547 0.552519,-0.6759 0.689464,-0.72886 1.069404,-0.41354 0.39906,0.33119 0.383894,0.40081 -0.180161,0.82703 -0.45726,0.34553 -0.539091,0.54248 -0.317701,0.76466 0.221605,0.22238 0.444125,0.0943 0.866318,-0.4986 l 0.568116,-0.79784 -0.585476,-0.54546 c -0.322011,-0.3 -0.721436,-0.54545 -0.887608,-0.54545 -0.324371,0 -1.979337,2.16644 -1.979337,2.59107 0,0.41006 2.260883,2.14674 2.540942,1.9518 0.140054,-0.0975 0.707339,-0.80233 1.260636,-1.56631 0.553294,-0.76399 1.14686,-1.38906 1.319035,-1.38906 0.172175,0 0.906174,0.48573 1.631113,1.0794 2.22247,1.82006 2.14445,1.62825 1.21299,2.98208 -0.4553,0.66175 -0.93817,1.27139 -1.07305,1.35475 -0.302134,0.18673 -2.661545,-1.44185 -2.649972,-1.82914 0.0046,-0.15389 0.303038,-0.61477 0.663199,-1.02418 l 0.654839,-0.74438 0.792009,0.56395 c 0.875375,0.62333 0.941945,0.80132 0.474505,1.26877 -0.430526,0.43053 -0.756297,0.40109 -0.582196,-0.0526 0.191632,-0.49938 -0.392475,-0.82618 -0.776999,-0.43472 -0.234725,0.23896 -0.159576,0.43425 0.316947,0.82362 0.811117,0.66277 0.945408,0.64606 1.490198,-0.18539 0.4548,-0.69411 0.45313,-0.69819 -0.697176,-1.70851 -0.634185,-0.557 -1.239194,-1.01781 -1.34447,-1.02402 -0.105275,-0.006 -0.614161,0.6138 -1.130858,1.37778 -1.05447,1.55913 -1.172712,1.21985 1.044403,2.9968 l 1.015611,0.81398 -1.420357,1.89799 c -0.781196,1.0439 -1.482971,1.89439 -1.559499,1.88997 -0.07653,-0.004 -0.704689,-0.43255 -1.395913,-0.95139 z m -20.759213,2.28211 c 0.09384,-0.35885 -0.07671,-0.69864 -0.529408,-1.05473 -0.683789,-0.53787 -1.301856,-0.48353 -0.939654,0.0826 1.092361,1.70742 1.249571,1.81145 1.469062,0.97212 z m 72.419105,-0.22782 2.51355,-0.16882 0.17907,-2.11667 c 0.48462,-5.72844 0.55748,-7.80521 0.27384,-7.80521 -0.15917,0 -0.36298,0.11906 -0.45291,0.26458 -0.29719,0.48087 -1.42431,0.28754 -1.73771,-0.29805 -0.22511,-0.42061 -0.22508,-0.7295 1e-4,-1.22372 0.26281,-0.57681 0.42182,-0.64151 1.2474,-0.50753 l 0.94619,0.15354 -0.17911,-1.7741 c -0.33733,-3.34121 -2.97141,-13.24014 -3.25309,-12.22514 -0.0606,0.21828 -0.57809,0.81816 -1.15004,1.33306 l -1.03991,0.93618 0.67592,0.9159 c 0.82351,1.11589 0.79356,2.20013 -0.0641,2.3221 -0.43341,0.0616 -0.77727,-0.19365 -1.32292,-0.98215 -0.40551,-0.58598 -0.82762,-1.06994 -0.93802,-1.07546 -0.1104,-0.006 -0.69381,0.34714 -1.29647,0.78371 -1.19267,0.86396 -2.09636,1.00835 -2.5898,0.41378 -0.42742,-0.515 -0.0439,-1.18365 1.33668,-2.33044 l 1.0949,-0.90948 -0.82593,-1.14017 c -0.96101,-1.32664 -1.00315,-1.61214 -0.32807,-2.22308 0.47618,-0.43094 0.55284,-0.38622 1.75948,1.02616 l 1.26161,1.47673 0.55562,-0.52038 c 0.83805,-0.78488 1.99637,-1.16159 2.4399,-0.7935 0.54148,0.4494 0.47785,0.24259 -0.88178,-2.86568 -1.08572,-2.48208 -1.48703,-3.09045 -3.11183,-4.71744 -1.98783,-1.99049 -4.11283,-3.23599 -5.93892,-3.48092 -1.33677,-0.1793 -2.66737,0.3318 -2.66737,1.02457 0,0.42264 0.0866,0.46003 0.52374,0.22608 0.56411,-0.3019 1.75885,-0.11201 2.02721,0.3222 0.0906,0.14656 0.2595,0.68686 0.37538,1.20066 0.18487,0.81968 0.11823,1.02663 -0.54371,1.68858 -1.10069,1.10069 -2.33272,1.03715 -3.69145,-0.19038 -1.09463,-0.98894 -1.39124,-1.72153 -2.41224,-5.95798 -0.61375,-2.54662 -1.77881,-5.48586 -3.00134,-7.57178 -0.77541,-1.32303 -1.23166,-1.77757 -2.44263,-2.43346 -1.51061,-0.81818 -1.94746,-0.84547 -1.94746,-0.12165 0,0.63875 -1.47821,1.94841 -2.19916,1.94841 -0.52695,0 -0.68347,0.16584 -0.81421,0.86272 -0.24619,1.3123 -1.31036,2.31228 -2.46071,2.31228 -0.74345,0 -1.15379,0.20495 -1.85411,0.92604 -0.77959,0.80271 -1.06711,0.92604 -2.15897,0.92604 -0.69279,0 -1.48556,-0.16522 -1.76173,-0.36715 -0.43054,-0.31483 -0.58843,-0.3106 -1.10773,0.0297 -0.78926,0.51714 -2.30298,0.24793 -3.43458,-0.61083 -0.48371,-0.36709 -1.2025,-0.63918 -1.68856,-0.63918 -1.10301,0 -2.48586,-0.8688 -2.87388,-1.80556 -0.19283,-0.46552 -0.64336,-0.86397 -1.2076,-1.068 -1.07172,-0.38754 -2.061185,-1.84622 -2.104828,-3.10296 -0.01683,-0.48483 -0.278378,-1.1494 -0.584552,-1.48533 -0.304747,-0.33437 -0.698275,-0.88716 -0.874511,-1.22843 -0.27822,-0.53875 -0.448112,-0.59731 -1.289833,-0.4446 -1.207794,0.21912 -3.027389,0.82045 -3.991867,1.3192 -0.402786,0.20829 -1.771904,0.73891 -3.042486,1.17916 -2.200828,0.76257 -3.942461,1.57319 -7.386182,3.4378 -1.392815,0.75414 -6.179259,4.54363 -6.978023,5.52459 -0.257519,0.31626 -0.218366,0.52424 0.198437,1.05412 0.285592,0.36307 0.519256,0.78352 0.519256,0.93434 0,0.5156 -0.875036,1.24192 -1.496216,1.24192 -0.677553,0 -0.695691,0.0252 -0.459852,0.63982 0.170159,0.44343 1.069833,0.5531 1.628405,0.19851 0.183589,-0.11654 0.604102,-0.90973 0.934471,-1.76264 0.632328,-1.63248 1.245275,-2.20232 1.245275,-1.15771 0,0.57901 0.02201,0.5859 0.463021,0.14477 0.385638,-0.38573 0.401304,-0.50129 0.09374,-0.69145 -0.203104,-0.12557 -0.303069,-0.40086 -0.222144,-0.61175 0.193834,-0.50512 3.603265,-2.93112 4.178919,-2.97353 0.246603,-0.0182 0.650132,-0.2348 0.896731,-0.4814 0.246603,-0.2466 0.649987,-0.44837 0.896409,-0.44837 0.246422,0 0.871006,-0.22669 1.387962,-0.50377 0.670544,-0.35939 1.579358,-0.52211 3.171081,-0.56777 4.501692,-0.12915 5.511435,-0.0466 6.438077,0.52605 0.485445,0.30002 1.126681,0.54549 1.424969,0.54549 0.298289,0 1.134965,0.29766 1.85928,0.66146 0.724313,0.3638 1.50766,0.66146 1.740768,0.66146 0.233109,0 0.870653,0.40092 1.416783,0.89093 0.54612,0.49002 1.2906,0.98104 1.6544,1.09117 0.36381,0.11012 0.86935,0.41809 1.12344,0.68438 0.25409,0.26628 0.90893,0.56286 1.45521,0.65906 0.54627,0.0962 1.53943,0.5184 2.20702,0.93823 0.66758,0.41982 1.44149,0.76703 1.71979,0.77157 0.2783,0.005 0.98225,0.30159 1.56434,0.6601 0.63359,0.39024 1.46026,0.65239 2.05982,0.6532 0.55083,8e-4 1.29855,0.19599 1.66161,0.43388 0.36307,0.23789 1.213,0.53581 1.88875,0.66205 0.67575,0.12625 1.42568,0.40786 1.66652,0.62582 0.24083,0.21795 0.80088,0.39628 1.24455,0.39628 0.44366,0 0.95576,0.17966 1.138,0.39924 0.18224,0.21958 0.80318,0.47469 1.37987,0.56691 0.57669,0.0922 1.36895,0.43728 1.76057,0.76681 0.49454,0.41613 1.02711,0.59022 1.74345,0.56991 0.584,-0.0166 1.07676,0.10685 1.13597,0.28447 0.0575,0.17254 0.59718,0.44635 1.19925,0.60848 0.60207,0.16212 1.38281,0.52141 1.73498,0.79843 0.35217,0.27701 0.86806,0.50366 1.14643,0.50366 0.27837,0 0.76832,0.27955 1.0888,0.62121 0.32047,0.34167 0.87807,0.7773 1.23911,0.96806 0.84403,0.44598 1.64301,1.46601 2.03299,2.59546 0.1695,0.49089 0.55579,1.1561 0.85843,1.47824 0.63963,0.68086 1.91702,4.2413 1.71269,4.77376 -0.0764,0.19907 0.15226,0.82316 0.5081,1.38685 0.71949,1.13975 0.97729,2.39797 1.11582,5.44598 0.0709,1.55888 0.26458,2.40579 0.80119,3.50259 0.38926,0.79562 0.63867,1.62658 0.55425,1.84659 -0.21525,0.56092 0.43339,0.50783 1.70186,-0.1393 0.99849,-0.50939 1.18903,-1.04819 0.37068,-1.04819 -0.20457,0 -0.49939,-0.23812 -0.65515,-0.52916 -0.4267,-0.79729 0.11341,-1.64164 0.98329,-1.53721 0.9202,0.11046 1.36699,0.83779 0.9373,1.52583 -0.17848,0.28579 -0.24593,0.72441 -0.14988,0.9747 0.12594,0.32821 -0.15185,0.73661 -0.99648,1.46495 -0.76821,0.66244 -1.01747,1.01012 -0.72453,1.0106 0.24562,2.6e-4 0.82798,0.5318 1.29413,1.1809 0.46615,0.6491 1.30699,1.48423 1.86852,1.85584 0.56154,0.3716 1.02098,0.77684 1.02098,0.90051 0,0.25861 -1.93056,0.56138 -3.57949,0.56138 -1.26194,0 -1.84153,-0.38555 -2.98138,-1.98321 l -0.75424,-1.05716 0.94558,-0.46742 c 0.62737,-0.31013 0.72298,-0.41254 0.28411,-0.30431 -0.3638,0.0897 -1.04951,0.22338 -1.5238,0.29704 -0.47429,0.0737 -0.92245,0.23119 -0.99591,0.35005 -0.0735,0.11886 0.10624,0.82449 0.39932,1.56806 0.62786,1.59287 0.66863,2.12611 0.16257,2.12611 -0.41167,0 -3.06926,-2.79463 -3.06926,-3.22753 0,-0.42826 -1.57149,-2.13915 -2.50352,-2.72559 -0.46254,-0.29104 -1.48746,-1.07643 -2.27759,-1.7453 -1.83745,-1.55548 -2.9568,-2.09116 -4.36965,-2.09116 -0.941,0 -1.22203,-0.12649 -1.66586,-0.7498 -0.62595,-0.87907 -0.49754,-1.72518 0.31697,-2.08863 l 0.56691,-0.25296 -0.58988,-0.3157 c -0.86189,-0.46127 -0.82086,-2.02361 0.0716,-2.7256 0.4708,-0.37033 0.66146,-0.77624 0.66146,-1.40824 0,-0.9898 0.50781,-1.63764 1.47371,-1.88007 0.42094,-0.10565 0.64295,-0.34983 0.64295,-0.70716 0,-0.7749 0.75699,-1.51212 1.56237,-1.52155 0.59906,-0.007 0.62688,-0.0428 0.21823,-0.28072 -0.71831,-0.41819 -1.52505,-0.0188 -1.93266,0.95674 -0.23543,0.56346 -0.58146,0.91229 -0.95895,0.96669 -0.84079,0.12118 -1.85922,1.72402 -1.66301,2.61732 0.12257,0.55806 0.0437,0.73546 -0.37546,0.84509 -0.69124,0.18076 -0.9733,1.34997 -0.63313,2.62445 0.20865,0.78168 0.18831,1.07334 -0.091,1.30516 -0.41966,0.34829 -0.48304,1.71377 -0.0908,1.95619 0.14789,0.0914 0.19303,0.28894 0.10031,0.43898 -0.15933,0.2578 -0.92244,0.21935 -4.33796,-0.21854 -1.41691,-0.18166 -1.19907,0.20593 0.39688,0.70612 2.03224,0.63693 7.5849,3.52719 8.02804,4.17875 0.24124,0.3547 0.69336,0.89833 1.00471,1.20805 3.36403,3.34646 4.27114,4.08202 6.26453,5.0798 l 2.16522,1.0838 3.83645,0.0144 c 2.11006,0.008 4.96756,-0.0615 6.35,-0.1544 z m -1.70089,-8.38981 c -0.55395,-0.55395 -0.52408,-0.99169 0.10662,-1.56246 0.48917,-0.4427 0.56486,-0.44492 1.19062,-0.0349 0.7357,0.48205 0.80291,0.73796 0.39435,1.50137 -0.33106,0.61859 -1.124,0.66359 -1.69159,0.096 z m 1.067,-1.10007 c -0.26896,-0.26895 -0.49087,0.13597 -0.2702,0.49302 0.16669,0.26972 0.22902,0.26993 0.31864,0.001 0.0613,-0.18383 0.0395,-0.40617 -0.0484,-0.49409 z m -2.12923,-1.71803 c -0.22653,-0.32341 -0.41188,-0.77891 -0.41188,-1.01221 0,-0.60024 1.11575,-1.57475 1.80299,-1.57475 0.72327,0 1.6366,0.88593 1.6366,1.5875 0,1.40476 -2.22855,2.14042 -3.02771,0.99946 z m 1.83708,-0.99946 c 0,-0.75423 -0.8351,-1.07402 -1.08744,-0.41643 -0.24072,0.6273 0.0999,1.26083 0.62362,1.15997 0.2929,-0.0564 0.46382,-0.33041 0.46382,-0.74354 z m -4.08477,-1.04206 c -0.67289,-0.67289 -0.68938,-1.1269 -0.0616,-1.69505 0.64622,-0.58483 1.18306,-0.55187 1.78147,0.10936 0.45219,0.49967 0.46071,0.60878 0.0981,1.2549 -0.50864,0.90622 -1.12954,1.01919 -1.81794,0.33079 z m 1.1886,-0.56849 c 0.27266,-0.44117 -0.34057,-0.94708 -0.70557,-0.58208 -0.3053,0.3053 -0.11422,0.86972 0.29445,0.86972 0.12834,0 0.31335,-0.12944 0.41112,-0.28764 z m 3.9418,0.17309 c -0.3281,-0.50074 -0.35677,-0.7652 -0.12908,-1.19063 0.5468,-1.0217 2.12616,-0.54354 2.12616,0.64372 0,1.24128 -1.3075,1.59935 -1.99708,0.54691 z m 1.33678,-0.41649 c 0.0906,-0.14655 -0.0266,-0.33985 -0.26038,-0.42956 -0.50659,-0.19439 -0.78891,0.0198 -0.54541,0.41383 0.21971,0.35549 0.59132,0.36274 0.80579,0.0157 z m -3.59893,-0.35836 c -0.7827,-0.39022 -0.9291,-1.02823 -0.36529,-1.59203 0.59781,-0.59781 1.10297,-0.53547 1.58171,0.19519 0.72233,1.10241 -0.0434,1.98167 -1.21642,1.39684 z m 0.76893,-0.71795 c -0.0521,-0.15643 -0.20791,-0.28442 -0.34616,-0.28442 -0.13824,0 -0.29402,0.12799 -0.34616,0.28442 -0.0521,0.15644 0.10363,0.28443 0.34616,0.28443 0.24254,0 0.39831,-0.12799 0.34616,-0.28443 z m -4.17055,-4.46601 c -0.59255,-0.59254 -0.47869,-1.20823 0.30056,-1.62527 0.6611,-0.35381 1.27487,0.11551 1.27487,0.97484 0,0.93943 -0.91052,1.31535 -1.57543,0.65043 z m 0.82137,-0.67352 c 0,-0.13824 -0.12799,-0.29402 -0.28443,-0.34616 -0.15643,-0.0521 -0.28442,0.10363 -0.28442,0.34616 0,0.24254 0.12799,0.39831 0.28442,0.34616 0.15644,-0.0521 0.28443,-0.20791 0.28443,-0.34616 z m 3.36306,-2.23284 -0.62462,-0.51305 0.59899,-0.60776 c 0.47713,-0.48411 0.69243,-0.54891 1.05833,-0.31849 0.58451,0.3681 0.72692,1.07367 0.31651,1.56818 -0.41748,0.50303 -0.60124,0.48548 -1.34921,-0.12888 z m 1.03454,-0.59489 c -0.16353,-0.4906 -0.73312,-0.57197 -0.73312,-0.10473 0,0.2304 0.18852,0.41892 0.41892,0.41892 0.23041,0 0.3718,-0.14139 0.3142,-0.31419 z m -8.54678,-1.28265 c -0.47483,-0.52468 -0.47239,-0.55345 0.095,-1.1208 0.46193,-0.46193 0.67726,-0.52251 1.04165,-0.29304 0.58451,0.36809 0.72691,1.07366 0.3165,1.56818 -0.43826,0.52808 -0.87778,0.48139 -1.45311,-0.15434 z m 1.19908,-0.37192 c 0,-0.27926 -0.50777,-0.39659 -0.65879,-0.15222 -0.0914,0.14789 0.0194,0.2689 0.2463,0.2689 0.22687,0 0.41249,-0.0525 0.41249,-0.11668 z m 3.16965,-2.00998 c -0.45518,-0.85051 -0.083,-1.57751 0.80762,-1.57751 1.05002,0 1.54727,0.89163 0.8976,1.60951 -0.59723,0.65994 -1.34239,0.64595 -1.70522,-0.032 z m 1.32826,-0.51918 c 0,-0.29398 -0.17639,-0.52916 -0.39687,-0.52916 -0.22049,0 -0.39688,0.23518 -0.39688,0.52916 0,0.29398 0.17639,0.52917 0.39688,0.52917 0.22048,0 0.39687,-0.23519 0.39687,-0.52917 z m -63.495361,25.52479 c 0.814002,-1.31708 0.545092,-1.36515 -0.670835,-0.11993 -0.907804,0.92968 -1.173252,1.05348 -2.258785,1.05348 -1.385054,0 -2.794129,-0.77863 -3.366068,-1.86003 -0.208257,-0.39376 -0.308528,-1.25427 -0.252273,-2.16495 0.107051,-1.73297 0.56111,-2.39497 2.177701,-3.17501 l 1.058333,-0.51068 -0.926041,0.14763 c -0.638829,0.10184 -1.232096,0.48564 -1.912837,1.23745 -0.883325,0.97555 -0.983938,1.23255 -0.959533,2.45093 0.05104,2.5485 1.320879,3.98223 3.880138,4.38093 1.548699,0.24127 2.43554,-0.15403 3.2302,-1.43982 z m -1.090377,-0.53087 c 0.663779,-0.756 0.821159,-1.16836 0.821159,-2.15157 0,-1.04332 -0.129469,-1.33843 -0.91027,-2.07482 -1.137314,-1.07262 -2.008857,-1.30237 -3.142951,-0.82852 -2.030066,0.84822 -2.318943,4.14708 -0.471715,5.3868 1.39347,0.9352 2.693548,0.8187 3.703777,-0.33189 z m -3.067769,-0.52029 c -0.789453,-0.55295 -1.03014,-1.83797 -0.496734,-2.65205 1.268264,-1.93562 4.269457,-0.0868 3.203927,1.97373 -0.584653,1.1306 -1.672373,1.40314 -2.707193,0.67832 z m 2.094349,-1.07855 c 0.396737,-0.87074 0.0172,-1.53583 -0.941851,-1.65046 -0.897961,-0.10732 -1.454983,0.89287 -0.985649,1.76983 0.434956,0.81273 1.533816,0.74467 1.9275,-0.11937 z m -5.626121,1.07888 c 0.008,-0.49645 -0.38376,-0.79375 -1.045967,-0.79375 -0.529167,0 -0.661458,-0.13229 -0.661458,-0.66146 0,-0.54773 0.1251,-0.65966 0.727604,-0.65102 0.400182,0.006 0.727604,0.005 0.727604,-0.002 0,-0.007 0.104211,-0.37554 0.231582,-0.81965 0.222464,-0.77569 0.202552,-0.80323 -0.505635,-0.69929 -0.97681,0.14337 -1.537474,-0.74146 -0.883933,-1.395 0.544563,-0.54456 1.198356,-0.42277 1.553398,0.28937 0.272891,0.54737 0.285009,0.54505 0.951566,-0.18245 0.647859,-0.70709 0.655672,-0.75356 0.193254,-1.14949 -0.673629,-0.57678 -0.600289,-1.16895 0.189333,-1.52872 0.553805,-0.25233 0.749621,-0.22745 1.119307,0.14224 0.344284,0.34428 0.381823,0.55433 0.162052,0.90682 -0.262242,0.4206 -0.113318,0.45874 1.791168,0.45874 1.504077,0 2.077175,-0.0928 2.077133,-0.3364 -3.2e-5,-0.18502 0.297598,-0.47202 0.6614,-0.63778 0.363802,-0.16576 0.661458,-0.43851 0.661458,-0.6061 0,-0.16758 0.259173,-0.83308 0.57594,-1.47888 0.478719,-0.97597 0.566478,-1.57184 0.519885,-3.52997 -0.04642,-1.95102 -0.196109,-2.69221 -0.871164,-4.31377 -0.448308,-1.07689 -1.343208,-2.57662 -1.988667,-3.33275 -1.605494,-1.88076 -3.393591,-5.02149 -3.937238,-6.9156 -0.440404,-1.53442 -0.420156,-3.73995 0.04971,-5.4146 0.127256,-0.45356 0.08906,-0.58133 -0.132797,-0.44421 -0.524693,0.32428 -2.109669,-0.36774 -2.767526,-1.20832 l -0.622763,-0.79575 -1.854016,2.46852 c -1.019708,1.35769 -1.936817,2.61381 -2.038019,2.79137 -0.101202,0.17757 0.0512,0.89195 0.338662,1.5875 0.287466,0.69556 0.649489,1.89559 0.804495,2.66674 0.337308,1.67809 0.373672,6.38416 0.05599,7.24579 -0.124213,0.3369 -0.303589,0.93404 -0.398613,1.32699 -0.169102,0.69927 -0.155436,0.7084 0.643367,0.42994 0.992643,-0.34604 3.717629,-2.82287 4.502015,-4.09204 0.313897,-0.50789 0.764553,-1.57638 1.001459,-2.37442 0.236905,-0.79805 0.541401,-1.45646 0.676656,-1.46316 0.135255,-0.007 0.629869,0.70938 1.099142,1.59129 0.469271,0.8819 1.2925,2.13954 1.829398,2.79475 l 0.976175,1.19129 -0.752401,0.66174 c -0.413819,0.36395 -0.85572,0.66549 -0.982003,0.67009 -0.465318,0.0169 -4.551593,4.50371 -5.110102,5.61094 -1.472326,2.91885 -2.773762,6.62768 -3.092289,8.81241 -0.288728,1.98034 0.04753,2.98765 1.233399,3.69482 1.013229,0.60421 1.096713,0.61381 1.676748,0.19272 0.335735,-0.24373 0.612346,-0.56221 0.614691,-0.70773 z m 4.076798,-7.14375 c -0.209603,-0.54621 0.07459,-1.19062 0.525076,-1.19062 0.205031,0 0.521001,0.17859 0.702159,0.39687 0.262782,0.31663 0.262782,0.47712 0,0.79375 -0.181158,0.21828 -0.497128,0.39688 -0.702159,0.39688 -0.205031,0 -0.441315,-0.1786 -0.525076,-0.39688 z m 4.327511,4.96458 c -0.06081,-0.40219 -0.112199,-0.13593 -0.114186,0.59167 -0.0019,0.72761 0.04777,1.05667 0.110575,0.73124 0.0628,-0.32542 0.06443,-0.92073 0.0036,-1.32291 z m 2.125208,1.09875 c -0.252135,-0.25213 -0.757632,0.15627 -0.569728,0.4603 0.111686,0.18071 0.259678,0.17615 0.449697,-0.0139 0.155776,-0.15578 0.209791,-0.35667 0.120031,-0.44643 z m -2.546819,-2.56201 c -0.261307,-0.25936 -0.291697,-0.22897 -0.148113,0.14811 0.09936,0.26094 0.247303,0.40779 0.328766,0.32632 0.08146,-0.0815 1.69e-4,-0.29495 -0.180653,-0.47443 z m -8.583342,-1.03739 c -0.08446,-0.21106 -0.147156,-0.14837 -0.159851,0.15986 -0.01148,0.27891 0.05104,0.43518 0.138965,0.34726 0.08792,-0.0879 0.09732,-0.31612 0.02088,-0.50712 z m 7.898066,0.0596 c -0.532063,-0.58793 -2.095751,-1.17826 -2.591009,-0.97818 -0.180631,0.073 -0.07659,0.14209 0.231209,0.15357 0.307798,0.0115 0.843579,0.24124 1.190625,0.51055 0.54165,0.42032 1.13506,0.73501 1.531898,0.81237 0.05893,0.0115 -0.104291,-0.21275 -0.362723,-0.49831 z m 58.709817,-0.78992 c -1.12797,-0.12765 -1.48115,-0.31077 -2.21803,-1.15003 -0.48203,-0.54901 -0.91977,-0.95487 -0.97274,-0.9019 -0.053,0.053 0.0827,0.62252 0.30146,1.26566 l 0.39777,1.16935 1.91656,-0.11562 1.91657,-0.11563 z m 4.38429,-2.52734 c 0,-0.21828 -0.11906,-0.39687 -0.26458,-0.39687 -0.14552,0 -0.26458,0.17859 -0.26458,0.39687 0,0.21828 0.11906,0.39688 0.26458,0.39688 0.14552,0 0.26458,-0.1786 0.26458,-0.39688 z m 6.28398,0.0662 c -0.16669,-0.50064 -0.99231,-0.57182 -0.99231,-0.0856 0,0.24544 0.22622,0.41628 0.55122,0.41628 0.32331,0 0.50568,-0.13675 0.44109,-0.33073 z m -86.74704,-2.29379 c 0.638491,-0.4236 1.81224,-1.51702 2.608329,-2.42983 1.355333,-1.55405 1.411942,-1.67279 0.889627,-1.86601 -0.697176,-0.2579 -0.697942,-0.56059 -0.005,-1.99194 0.59435,-1.22776 0.871451,-1.38665 1.247241,-0.71515 0.185089,0.33074 0.307077,0.15559 0.542315,-0.77862 0.166929,-0.66294 0.299888,-1.42051 0.295462,-1.68349 -0.0076,-0.45137 -0.02315,-0.45222 -0.27773,-0.0151 -0.530638,0.91105 -0.798056,0.46824 -0.719036,-1.19062 0.05995,-1.25851 0.173603,-1.65365 0.475645,-1.65365 0.270471,0 0.447421,0.37922 0.555574,1.19063 0.124229,0.93201 0.161602,0.73087 0.172064,-0.92604 0.0074,-1.16417 -0.08323,-2.41433 -0.201288,-2.77813 l -0.214654,-0.66146 -0.186707,0.59531 c -0.102688,0.32743 -0.287693,0.59532 -0.411122,0.59532 -0.607766,0 -1.058837,-2.17287 -0.52018,-2.50578 0.138611,-0.0857 0.442448,0.1752 0.675193,0.5797 l 0.423172,0.73545 -0.155137,-0.79375 c -0.253665,-1.29786 -0.709303,-2.25347 -0.991352,-2.07916 -0.145122,0.0897 -0.488001,0.66979 -0.761953,1.2891 l -0.498094,1.12603 0.660367,1.49321 c 0.743221,1.68055 0.812086,2.97327 0.283112,5.31457 -0.646015,2.85935 -2.340918,5.40951 -4.782119,7.1952 l -0.79375,0.58062 0.747004,0.0147 c 0.564221,0.0111 0.725695,0.128 0.659913,0.47772 -0.0479,0.25467 -0.352006,0.57957 -0.675789,0.72202 -0.659658,0.29021 -1.021477,0.93224 -0.524387,0.9305 0.177334,-5.3e-4 0.844828,-0.34771 1.48332,-0.77131 z m 0.294314,-1.68224 c 0,-0.48515 0.733029,-1.46296 1.340411,-1.78802 0.793151,-0.42449 0.942745,0.35532 0.253776,1.32289 -0.572219,0.8036 -1.594187,1.10178 -1.594187,0.46513 z m 75.675836,0.5042 c 0.25373,-0.2682 0.0451,-0.95994 -0.28959,-0.95994 -0.12538,0 -0.15886,0.18011 -0.0744,0.40024 0.0845,0.22014 0.011,0.57211 -0.16338,0.78216 -0.18029,0.21724 -0.22425,0.52952 -0.10195,0.72424 0.158,0.25155 0.241,0.20201 0.31304,-0.18685 0.0539,-0.29104 0.19624,-0.63297 0.31626,-0.75985 z m -0.005,-1.70078 c 0,-0.27491 -0.57328,-0.84666 -0.84891,-0.84666 -0.11765,0 -0.0652,0.23812 0.11656,0.52916 0.33385,0.53457 0.73235,0.70734 0.73235,0.3175 z m -75.156271,-1.72255 c 1.390591,-1.68281 2.121377,-3.27842 2.411553,-5.26545 0.344675,-2.3602 -0.345425,-5.54272 -1.048785,-4.83666 -0.650729,0.65323 -3.20025,9.7688 -3.20025,11.44219 0,0.55543 0.682355,0.0578 1.837482,-1.34008 z m 68.712911,0.76526 c 0.50957,-0.19553 0.88711,0.0271 0.88711,0.52312 0,0.20969 0.1867,0.38126 0.41489,0.38126 0.34226,0 0.31472,-0.14068 -0.15734,-0.80363 -0.6068,-0.85217 -1.27558,-0.87894 -2.10964,-0.0845 -0.35277,0.33604 -0.35277,0.40561 0,0.62609 0.27715,0.17322 0.42138,0.13722 0.47809,-0.11933 0.0447,-0.20206 0.26377,-0.43743 0.48689,-0.52306 z m -1.85882,-1.21803 c 0.14868,-0.14868 0.79758,-0.37376 1.44198,-0.50018 l 1.17166,-0.22985 -1.0166,-0.029 c -0.65117,-0.0186 -1.25843,0.16123 -1.68933,0.50018 -0.37,0.29104 -0.56142,0.52916 -0.42538,0.52916 0.13604,0 0.36899,-0.12164 0.51767,-0.27032 z m -16.854,-2.32436 c 0.4979,-0.68145 1.05252,-1.72826 1.23249,-2.32623 0.40219,-1.33637 0.13944,-3.98547 -0.49068,-4.94715 -0.40907,-0.62431 -1.40807,-1.17478 -1.66527,-0.91758 -0.0608,0.0608 0.18628,0.72595 0.54911,1.47807 0.36283,0.75211 0.65969,1.58726 0.65969,1.85589 0,1.71976 -1.74149,4.80583 -2.71198,4.80584 -0.75378,10e-6 -0.52891,0.52608 0.39688,0.92847 0.47294,0.20556 0.91943,0.37104 0.99219,0.36772 0.0728,-0.003 0.53967,-0.56357 1.03757,-1.24503 z m 23.56868,0.4608 c 0,-0.20008 -0.57352,-1.92538 -0.68551,-2.06217 -0.0428,-0.0523 -0.44867,0.16909 -0.90199,0.49189 -0.45332,0.32279 -0.76071,0.6504 -0.68309,0.72802 0.0776,0.0776 0.31689,-0.005 0.53169,-0.183 0.21481,-0.17828 0.59614,-0.28454 0.8474,-0.23614 0.43165,0.0831 0.43142,0.11341 -0.004,0.54898 -0.25354,0.25355 -0.40261,0.55546 -0.33126,0.67091 0.15383,0.24889 1.22692,0.2852 1.22692,0.0415 z m 6.97098,-2.93797 c -1.30571,-1.84837 -3.31326,-4.23032 -3.45008,-4.09349 -0.12369,0.12369 1.35001,2.25853 3.09264,4.48008 1.45805,1.85877 1.7333,1.56108 0.35744,-0.38659 z m -2.72833,0.50779 c 1.02861,-0.75475 1.10116,-0.87004 0.59334,-0.94287 -0.60465,-0.0867 -2.0653,0.83117 -2.30128,1.44614 -0.2328,0.60665 0.48258,0.39585 1.70794,-0.50327 z m -5.73384,-0.27171 c 0.39211,-0.28671 0.42334,-0.51009 0.20636,-1.4758 -0.30328,-1.34983 -0.46994,-1.56449 -0.88917,-1.14527 -0.24106,0.24107 -0.24005,0.31309 0.004,0.31309 0.17463,0 0.3175,0.2311 0.3175,0.51355 0,0.28246 0.12802,0.59268 0.28449,0.68938 0.18201,0.11249 0.0701,0.40401 -0.31071,0.80936 -0.63234,0.6731 -0.38616,0.86114 0.38712,0.29569 z m 9.48036,-2.22519 c 0.89332,-0.85586 0.9656,-1.27534 0.14676,-0.85185 -0.89877,0.46484 -1.526,1.07665 -1.3672,1.33359 0.22251,0.36003 0.42541,0.27994 1.22044,-0.48174 z m -13.96621,-0.54581 0.47097,-0.99219 -0.68655,0.64144 c -0.3776,0.35279 -0.68655,0.79927 -0.68655,0.99218 0,0.65832 0.43044,0.35227 0.90213,-0.64143 z m -44.299172,-0.32019 c 0.712486,-1.39659 0.672803,-1.97363 -0.26256,-3.81814 -1.174996,-2.31705 -1.004572,-4.19406 0.504823,-5.56004 0.543279,-0.49166 0.579945,-0.4919 1.647113,-0.0107 l 1.091464,0.49219 0.496642,-0.61333 c 0.679061,-0.8386 0.622956,-1.77536 -0.152789,-2.55111 -1.720458,-1.72046 -5.131192,0.22223 -5.990061,3.41183 -0.359749,1.33601 0.04124,4.33103 0.785281,5.8653 0.28353,0.58466 0.5949,1.53716 0.691933,2.11667 0.347588,2.07587 0.442396,2.12911 1.188154,0.66731 z m 47.776242,-1.04262 c -0.59314,-1.147 -3.27199,-3.35596 -3.63256,-2.99539 -0.30986,0.30986 0.27811,1.11706 0.81366,1.11706 0.15135,0 0.21098,0.16728 0.13252,0.37175 -0.0965,0.25138 0.12039,0.42952 0.66976,0.55019 0.44683,0.0981 0.81242,0.29506 0.81242,0.43761 0,0.14255 0.11084,0.19068 0.2463,0.10695 0.13547,-0.0837 0.316,-0.0394 0.40119,0.0984 0.0852,0.13784 0.012,0.33891 -0.16259,0.44683 -0.2216,0.13696 -0.16298,0.25672 0.19412,0.39656 0.86405,0.33836 0.93643,0.26532 0.52518,-0.52996 z m -5.06291,0.0686 c 0.13935,-0.36314 0.10063,-0.3795 -0.23627,-0.0999 -0.45912,0.38104 -0.5069,0.5342 -0.16666,0.5342 0.12995,0 0.31127,-0.19544 0.40293,-0.4343 z m 0.20925,-2.77441 c 0.66237,-0.88726 0.71406,-1.28921 0.16578,-1.28921 -0.12127,0 -0.22049,0.23398 -0.22049,0.51996 0,0.28598 -0.35718,0.92677 -0.79375,1.42399 -0.43656,0.49722 -0.79375,1.00006 -0.79375,1.11743 0,0.25547 0.66107,-0.45791 1.64221,-1.77217 z m -1.92711,-1.32023 c 0.57592,-0.75028 0.48875,-1.02731 -0.32328,-1.02731 -0.28599,0 -0.90756,-0.23955 -1.38128,-0.53231 -1.01272,-0.62591 -1.57286,-0.48626 -1.95492,0.48737 -0.15245,0.38852 -0.47295,0.97428 -0.71222,1.30171 -0.41434,0.567 -0.40833,0.59531 0.12642,0.59531 0.30879,0 0.56802,-0.14883 0.57607,-0.33073 0.008,-0.1819 0.36857,-0.61043 0.80115,-0.9523 0.59949,-0.47376 0.87115,-0.55132 1.14246,-0.32616 0.19576,0.16247 0.56915,0.21358 0.82975,0.11358 0.51773,-0.19867 0.39453,0.15899 -0.35571,1.03259 -0.26765,0.31166 -0.29469,0.46302 -0.0827,0.46302 0.23575,0 0.2423,0.14962 0.0261,0.59531 -0.25984,0.53556 -0.23536,0.52892 0.24392,-0.0661 0.29301,-0.36381 0.77195,-0.97308 1.0643,-1.35394 z m -5.2833,-2.68096 c 0.0224,-0.8688 -0.39224,-0.46519 -0.85198,0.82926 -0.25244,0.71075 -0.4536,1.4549 -0.44703,1.65365 0.0168,0.50664 1.28438,-1.91626 1.29901,-2.48291 z m -1.89123,1.51435 c -0.0815,-0.0815 -0.22941,0.0654 -0.32876,0.32632 -0.14359,0.37709 -0.1132,0.40748 0.14811,0.14812 0.18082,-0.17948 0.26211,-0.39297 0.18065,-0.47444 z m -28.259316,0.1393 c 0,-0.14553 -0.119062,-0.26459 -0.264583,-0.26459 -0.145521,0 -0.264584,0.11906 -0.264584,0.26459 0,0.14552 0.119063,0.26458 0.264584,0.26458 0.145521,0 0.264583,-0.11906 0.264583,-0.26458 z m 26.061366,-0.33073 c 0.39785,-1.41097 0.72989,-2.00769 1.04901,-1.88523 0.35479,0.13614 0.78428,-0.59741 0.46088,-0.78717 -0.10278,-0.0603 -0.574,-0.19267 -1.04713,-0.29415 -0.82099,-0.17609 -0.88265,-0.13222 -1.35076,0.96107 -0.8127,1.8981 -0.93392,2.41438 -0.53572,2.28164 0.19333,-0.0644 0.52438,-0.67384 0.73567,-1.35422 0.2113,-0.68038 0.48233,-1.23705 0.6023,-1.23705 0.31934,0 0.26849,0.42566 -0.17874,1.49602 -0.45986,1.10061 -0.49317,1.4144 -0.15012,1.4144 0.13571,0 0.32229,-0.26789 0.41461,-0.59531 z m -1.73087,-1.67978 c 0.2966,-0.96026 0.47295,-1.85323 0.3919,-1.98438 -0.2637,-0.42666 -0.68488,-0.2512 -0.53908,0.22457 0.078,0.25466 -0.13877,1.14763 -0.4818,1.98438 -0.46906,1.14415 -0.53525,1.52135 -0.26699,1.52135 0.20871,0 0.58046,-0.72442 0.89597,-1.74592 z m -2.95824,0.72392 c 0.0119,-0.41659 0.20857,-1.20506 0.43717,-1.75217 0.35038,-0.83858 0.47793,-0.94304 0.81248,-0.66539 0.21826,0.18115 0.4015,0.58267 0.4072,0.89227 0.008,0.43349 0.0992,0.35822 0.39687,-0.32736 0.52466,-1.20844 0.49323,-1.35868 -0.28424,-1.35868 -0.36892,0 -0.96424,-0.19229 -1.32292,-0.42731 -0.57609,-0.37746 -0.65215,-0.38003 -0.65215,-0.022 0,0.22289 0.1307,0.44882 0.29044,0.50206 0.19131,0.0638 0.0787,0.70341 -0.32985,1.87414 -0.61851,1.77222 -1.16731,2.43062 -0.87497,1.04971 0.13182,-0.62269 0.11028,-0.65852 -0.14939,-0.24851 -0.42045,0.66387 -0.13298,1.2407 0.61833,1.2407 0.51133,0 0.63354,-0.14218 0.65103,-0.75742 z m 21.36726,-0.46364 c 0.79278,-0.51944 0.86311,-1.55784 0.13202,-1.94911 -0.43054,-0.23041 -0.59626,-0.16219 -0.96201,0.39602 -0.41807,0.63805 -0.46846,0.65034 -0.93508,0.22806 -0.9169,-0.82979 -0.60004,-2.53991 0.58406,-3.15224 1.25115,-0.64699 2.41489,-0.48302 5.66962,0.79887 0.35023,0.13793 0.19517,-0.13617 -0.45853,-0.8106 -0.926,-0.95536 -1.10114,-1.02542 -2.80406,-1.12164 -1.34565,-0.076 -2.04038,0.0132 -2.68073,0.34434 -1.01329,0.52399 -1.12184,0.43234 -1.56075,-1.31785 -0.18247,-0.7276 -0.80204,-2.39448 -1.37681,-3.70417 -0.88646,-2.0199 -1.21427,-2.48942 -2.16024,-3.09407 -1.19499,-0.76383 -1.60115,-0.77092 -0.93951,-0.0164 1.00178,1.14242 2.58799,5.34425 3.3653,8.91461 0.56872,2.61226 1.57187,4.37089 2.66724,4.67594 0.36103,0.10054 0.69038,0.19467 0.73188,0.20917 0.0415,0.0145 0.36892,-0.16591 0.7276,-0.40093 z m -24.73774,-0.69717 c 0.18639,-0.47294 0.5508,-1.03849 0.80981,-1.25677 0.56245,-0.47402 0.96205,-1.85208 0.53706,-1.85208 -0.29,0 -0.94716,1.14355 -1.71053,2.97656 -0.22726,0.5457 -0.31465,0.99219 -0.19421,0.99219 0.12044,0 0.37148,-0.38696 0.55787,-0.8599 z m -0.78857,-0.39688 c 0.1765,-0.5457 0.53367,-1.4158 0.79372,-1.93356 0.46173,-0.9193 0.46029,-0.94919 -0.0616,-1.2751 -0.62635,-0.39116 -0.95211,-0.20103 -0.52902,0.30877 0.22219,0.26772 0.10237,0.75885 -0.49147,2.01452 -0.91018,1.92458 -0.89994,1.87756 -0.40893,1.87756 0.207,0 0.52077,-0.44648 0.69727,-0.99219 z m -2.1414,-0.29651 c 0.21063,-0.40425 0.22337,-0.5633 0.0358,-0.4474 -0.16004,0.0989 -0.29098,0.0353 -0.29098,-0.14137 0,-0.19933 -0.20079,-0.13949 -0.52917,0.15768 -0.65104,0.58919 -0.66888,0.85617 -0.0661,0.99023 0.56047,0.12467 0.45961,0.19098 0.85045,-0.55914 z m -0.81594,-4.64678 c -0.29581,-0.32592 -0.2948,-0.32771 -1.11427,1.96673 -0.98326,2.75305 -0.871,2.89055 0.32403,0.39688 0.57404,-1.19784 0.91707,-2.22387 0.79024,-2.36361 z m 6.07741,3.28965 c 0.20715,-0.59424 0.19703,-0.7936 -0.0403,-0.79315 -0.17433,2.7e-4 -0.32964,0.35752 -0.34514,0.79375 -0.0354,0.99651 0.0379,0.99639 0.38541,-5.3e-4 z m -7.66304,-1.81364 c 0.45293,-1.07027 0.82351,-1.993 0.82351,-2.05052 0,-0.0575 -0.24595,-0.10459 -0.54656,-0.10459 -0.30061,0 -0.77384,-0.12164 -1.05163,-0.27031 -0.44434,-0.23781 -0.60345,-0.0754 -1.32325,1.35049 -0.48816,0.96705 -0.7462,1.79643 -0.63972,2.05624 0.13352,0.32582 0.27107,0.17599 0.54631,-0.59507 0.38008,-1.06474 0.89107,-1.84291 1.08368,-1.6503 0.0606,0.0606 -0.0755,0.55421 -0.30229,1.09704 -0.60151,1.43962 -0.51059,2.01568 0.15426,0.97738 0.59157,-0.92387 0.99688,-0.99899 0.51314,-0.0951 -0.26495,0.49506 -0.41472,1.58955 -0.18349,1.34092 0.0564,-0.0606 0.47311,-0.98591 0.92604,-2.05617 z m 3.02065,0.56252 c 0.5143,-0.0785 0.96403,-0.49489 0.97381,-0.90166 0.006,-0.24262 -1.6789,-0.47026 -1.90921,-0.25797 -0.10642,0.0981 -0.27532,0.59133 -0.37536,1.0961 -0.16933,0.85447 -0.14964,0.89125 0.28543,0.53323 0.25702,-0.2115 0.71841,-0.42286 1.02533,-0.4697 z m -6.8687,-0.92014 c 0.21498,-0.82208 0.051,-0.8642 -0.30687,-0.0788 -0.16604,0.36442 -0.19926,0.66258 -0.0738,0.66258 0.12543,0 0.29675,-0.26269 0.38071,-0.58376 z m 1.9051,-2.78855 c -0.18635,-0.48562 -1.33458,-0.31587 -1.33458,0.19731 0,0.21828 0.14883,0.36711 0.33073,0.33073 0.42704,-0.0854 0.41668,0.15287 -0.0661,1.52135 -0.58965,1.67124 -0.46859,1.63862 0.41792,-0.11261 0.43651,-0.86229 0.72994,-1.73385 0.65207,-1.93678 z m -2.1381,0.91502 c 0.45625,-1.74044 0.4555,-1.81277 -0.0243,-2.34546 -0.650125,-0.72178 -1.691498,-1.11812 -2.035076,-0.77455 -0.174545,0.17455 -0.160229,0.38728 0.04251,0.63156 0.234764,0.28287 0.186801,0.71396 -0.206698,1.85768 -0.325721,0.94672 -0.415491,1.54923 -0.246401,1.65373 0.342513,0.21168 0.317187,0.25953 0.886306,-1.67453 0.267634,-0.9095 0.58682,-1.65364 0.7093,-1.65364 0.322989,0 0.283809,0.2556 -0.322138,2.1014 -0.654087,1.99245 -0.513614,2.45565 0.169016,0.55732 0.264187,-0.73469 0.575881,-1.33581 0.692651,-1.33581 0.34491,0 0.24671,0.48284 -0.326849,1.60712 -0.296545,0.58128 -0.4617,1.18222 -0.367011,1.33543 0.273426,0.44241 0.52407,-0.0352 1.0287,-1.96025 z m 34.73633,0.47291 c 0.76399,0 1.38907,-0.0747 1.38907,-0.16604 0,-0.49638 -0.90763,-0.80137 -2.13952,-0.71894 l -1.36339,0.0912 -0.83175,-1.8818 c -0.82689,-1.87081 -1.45706,-2.86572 -1.67627,-2.64651 -0.0631,0.0631 0.2416,0.92916 0.67705,1.92463 0.43546,0.99546 0.87429,2.25541 0.97517,2.79988 0.17004,0.91773 0.23438,0.97563 0.882,0.79375 0.38422,-0.10791 1.32366,-0.1962 2.08764,-0.1962 z m -38.478394,-1.25677 c 0.07809,-0.32742 0.221996,-1.15028 0.319783,-1.82858 0.15453,-1.07188 0.107355,-1.27097 -0.360492,-1.52135 -0.76227,-0.40796 -0.77139,-0.40021 -0.880888,0.74799 -0.05434,0.56984 -0.0073,0.97953 0.104502,0.91043 0.111819,-0.0691 0.203306,-0.2902 0.203306,-0.4913 0,-0.20111 0.131795,-0.4471 0.292876,-0.54665 0.199837,-0.12351 0.244736,0.0607 0.14134,0.57969 -0.426114,2.13908 -0.476393,2.74508 -0.227761,2.74508 0.145941,0 0.329239,-0.26789 0.407334,-0.59531 z m -0.90102,-0.99219 c -0.0096,-0.26168 -0.092,-0.21662 -0.241935,0.1323 -0.312558,0.72736 -0.312558,1.1451 0,0.66145 0.141065,-0.21828 0.249936,-0.57546 0.241935,-0.79375 z m -0.638776,-1.20463 c 0.161359,-1.28482 0.146582,-1.32021 -0.802889,-1.92315 -0.531997,-0.33783 -0.999699,-0.57596 -1.039331,-0.52917 -0.03963,0.0468 -0.154678,0.84158 -0.255661,1.76619 -0.145153,1.32906 -0.11094,1.6572 0.163372,1.56695 0.190836,-0.0628 0.418388,-0.64069 0.505674,-1.28423 l 0.158697,-1.17008 0.06682,1.19062 c 0.06623,1.18008 0.06865,1.18289 0.27365,0.31731 0.113758,-0.48033 0.280162,-0.94666 0.369792,-1.03629 0.336696,-0.33669 0.409647,0.12343 0.158438,0.99935 -0.143033,0.49872 -0.256439,1.20521 -0.252013,1.56997 0.01299,1.07017 0.461148,0.0637 0.653447,-1.46747 z m 38.74067,0.65777 c -0.64312,-0.5484 -1.20077,-0.96564 -1.23921,-0.9272 -0.0891,0.0892 0.6308,1.81803 0.84598,2.0315 0.089,0.0883 0.47699,0.10031 0.86219,0.0267 l 0.70035,-0.13388 z m -54.615704,0.81145 c 0.08994,-0.14552 0.03743,-0.26459 -0.116676,-0.26459 -0.15411,0 -0.280199,0.11907 -0.280199,0.26459 0,0.14552 0.0525,0.26458 0.116676,0.26458 0.06417,0 0.190261,-0.11906 0.280199,-0.26458 z m 1.190625,-0.80937 c 0,-0.13693 -0.178594,-0.24897 -0.396875,-0.24897 -0.409155,0 -0.525648,0.3122 -0.22768,0.61017 0.211384,0.21139 0.624555,-0.0276 0.624555,-0.3612 z m 11.381134,-1.50574 c 0.0044,-1.66912 0.478874,-1.50179 0.562631,0.19844 0.03737,0.75859 0.07398,0.68682 0.202488,-0.39687 0.179904,-1.51716 0.0265,-1.71006 -1.364483,-1.71574 -0.944657,-0.004 -0.991994,0.0371 -0.988136,0.85584 0.0021,0.47294 0.122981,1.03849 0.26834,1.25677 0.185603,0.27872 0.213715,0.0621 0.09442,-0.7276 -0.114596,-0.75863 -0.07278,-1.12448 0.128537,-1.12448 0.164121,0 0.2984,0.17859 0.2984,0.39687 0,0.21828 0.13258,0.39688 0.294624,0.39688 0.19925,0 0.236826,0.38543 0.116081,1.19062 -0.116271,0.77535 -0.08061,1.19063 0.102251,1.19063 0.164978,0 0.282466,-0.6275 0.284845,-1.52136 z m -10.031447,0.27456 c -0.254156,-0.43673 -0.275879,-0.43073 -0.283308,0.0782 -0.0089,0.61247 0.326819,1.09003 0.468188,0.66592 0.04971,-0.14914 -0.03349,-0.484 -0.18488,-0.74414 z m 1.292095,0.3869 c -0.0054,-0.44264 -0.461425,-1.14407 -0.632526,-0.97297 -0.205002,0.205 0.134504,1.3037 0.402852,1.3037 0.128548,0 0.231902,-0.14883 0.229674,-0.33073 z m 30.905957,-0.42094 c 0.47434,-0.60786 0.17425,-2.18813 -0.78678,-4.14312 -0.4292,-0.87313 -0.86202,-1.66025 -0.96181,-1.74917 -0.0998,-0.0889 -0.58542,-0.0513 -1.07917,0.0835 l -0.89774,0.24519 0.14985,2.51166 c 0.19529,3.27331 0.56826,3.91612 2.12785,3.66725 0.6079,-0.097 1.25941,-0.3739 1.4478,-0.61532 z m -29.314406,0.23812 c 0,-0.13693 -0.119063,-0.32255 -0.264583,-0.41249 -0.145521,-0.0899 -0.264584,0.0221 -0.264584,0.24897 0,0.22687 0.119063,0.41249 0.264584,0.41249 0.14552,0 0.264583,-0.11204 0.264583,-0.24897 z m 3.341497,-1.07395 c -0.149048,-0.7276 -0.366546,-1.32292 -0.48333,-1.32292 -0.273246,0 -0.269354,0.0684 0.08366,1.47034 0.405784,1.61151 0.7351,1.49004 0.399672,-0.14742 z m 1.02942,0.0661 c -0.182304,-1.22466 -0.31327,-1.59165 -0.487842,-1.36702 -0.202673,0.26079 0.163822,2.62379 0.406943,2.62379 0.169566,0 0.199276,-0.46154 0.0809,-1.25677 z M 109.9353,134.6267 c 0.0746,-3.13216 -0.0737,-3.79903 -0.89044,-4.00401 -0.51095,-0.12824 -0.75965,-0.0449 -0.9806,0.3286 -0.48071,0.8126 -1.48665,3.86138 -1.48665,4.50569 0,0.8543 0.98651,1.45164 2.24896,1.36174 l 1.05833,-0.0753 z m -24.164095,1.5875 c -0.08376,-0.21828 -0.199088,-0.39688 -0.25628,-0.39688 -0.05719,0 -0.103984,0.1786 -0.103984,0.39688 0,0.21828 0.115326,0.39687 0.25628,0.39687 0.140952,0 0.187746,-0.17859 0.103984,-0.39687 z m 0.762826,-0.2642 c -0.07381,-0.38612 -0.0035,-0.66146 0.168981,-0.66146 0.162486,0 0.295429,0.29765 0.295429,0.66146 0,0.3638 0.115326,0.66145 0.25628,0.66145 0.140952,0 0.210429,-0.14882 0.15439,-0.33072 -0.05604,-0.18191 -0.173633,-0.65816 -0.261321,-1.05834 -0.111035,-0.50674 -0.324911,-0.7276 -0.70458,-0.7276 -0.47648,0 -0.521917,0.10831 -0.36072,0.85989 0.279461,1.30298 0.690385,1.84475 0.451541,0.59532 z m 18.677169,-0.62898 c 0.19436,-0.12321 0.75093,-1.28086 1.23682,-2.57257 0.91579,-2.43459 0.88568,-3.01616 -0.15619,-3.01616 -0.5805,0 -3.36505,2.76565 -3.728,3.7027 -0.2196,0.56694 -0.14059,0.76279 0.56032,1.38906 0.83424,0.74539 1.46005,0.89441 2.08705,0.49697 z m -15.037759,-0.42936 c 0,-0.21828 -0.119063,-0.39687 -0.264584,-0.39687 -0.145521,0 -0.264583,0.17859 -0.264583,0.39687 0,0.21828 0.119062,0.39688 0.264583,0.39688 0.145521,0 0.264584,-0.1786 0.264584,-0.39688 z m 27.905849,-0.382 c 0.27793,-0.53745 0.3305,-0.96802 0.16961,-1.38906 -0.24393,-0.63835 -3.56389,-3.91748 -3.96626,-3.91748 -0.12755,0 -0.3758,0.17339 -0.55168,0.3853 -0.25516,0.30746 -0.18153,0.73083 0.36448,2.09565 0.37634,0.94069 0.68425,1.82281 0.68425,1.96027 0,0.13745 0.24677,0.56363 0.54837,0.94706 0.8041,1.02224 2.20182,0.98072 2.75123,-0.0817 z m -14.47825,-3.60674 c 0.90951,-0.93754 1.65365,-1.79985 1.65365,-1.91623 0,-0.11638 -0.16003,-0.43045 -0.35562,-0.69794 -0.34175,-0.46738 -0.43201,-0.45776 -2.3151,0.24663 -1.07772,0.40313 -2.22738,0.89963 -2.5548,1.10333 -0.81034,0.50414 -0.779156,1.67002 0.0692,2.58536 0.90719,0.97887 1.48172,0.76217 3.50272,-1.32115 z m 17.05947,0.7476 c 0.22363,-0.25466 0.48626,-0.72472 0.58364,-1.04458 0.14041,-0.4612 0.0237,-0.66046 -0.56402,-0.96282 -1.04989,-0.54014 -4.24885,-1.49833 -5.00227,-1.49833 -0.98687,0 -0.76468,0.81516 0.46877,1.71979 3.26566,2.39506 3.79507,2.60452 4.51388,1.78594 z m -8.83437,-2.0353 c 1.15021,-0.40582 2.68897,-1.42715 2.68897,-1.78477 0,-0.30699 -1.5243,-0.26656 -1.71719,0.0455 -0.0885,0.14321 -0.72049,0.42354 -1.4044,0.62296 -1.06911,0.31173 -1.41049,0.30786 -2.43439,-0.0276 -0.65499,-0.21461 -1.6304,-0.73307 -2.16757,-1.15212 -0.90558,-0.70645 -2.06777,-1.02362 -2.06472,-0.56348 0.003,0.4377 1.26243,1.6626 2.49788,2.42919 1.48415,0.92091 2.84911,1.04855 4.60142,0.43031 z m -10.0025,-1.48966 c 2.90534,-1.12042 2.83679,-1.56827 -0.24004,-1.56827 -2.61084,0 -4.001826,0.2025 -4.001826,0.58259 0,0.35023 1.481939,1.79866 1.840267,1.79866 0.161409,0 1.242129,-0.36584 2.401599,-0.81298 z m 9.91334,-0.50014 c 0.42054,-0.17292 0.44769,-0.24631 0.13229,-0.35752 -0.5989,-0.21117 -3.70416,-0.49228 -3.70416,-0.33533 0,0.0753 0.32742,0.31461 0.7276,0.53172 0.79656,0.43213 2.01705,0.50128 2.84427,0.16113 z m -54.371873,35.97354 c 0,-0.14552 0.12609,-0.26459 0.280199,-0.26459 0.154109,0 0.206613,0.11907 0.116676,0.26459 -0.08994,0.14552 -0.216026,0.26458 -0.280198,0.26458 -0.06417,0 -0.116677,-0.11906 -0.116677,-0.26458 z m 0.285472,-0.94809 c 0.01269,-0.30823 0.07539,-0.37092 0.159852,-0.15986 0.07643,0.191 0.06703,0.4192 -0.02089,0.50712 -0.08792,0.0879 -0.150453,-0.0684 -0.138964,-0.34726 z m 0.264583,-1.05834 c 0.0127,-0.30822 0.07539,-0.37092 0.159853,-0.15985 0.07643,0.19099 0.06703,0.4192 -0.02089,0.50712 -0.08792,0.0879 -0.150453,-0.0683 -0.138965,-0.34727 z"
       id="path267" />
  </g>
</svg>
