<?xml version="1.0" encoding="UTF-8" standalone="no"?>
<!-- Created with Inkscape (http://www.inkscape.org/) -->

<svg
   width="109.11143mm"
   height="109.73361mm"
   viewBox="0 0 109.11146 109.7336"
   version="1.1"
   id="svg5"
   inkscape:version="1.1 (c4e8f9ed74, 2021-05-24)"
   sodipodi:docname="ornateo2.svg"
   xmlns:inkscape="http://www.inkscape.org/namespaces/inkscape"
   xmlns:sodipodi="http://sodipodi.sourceforge.net/DTD/sodipodi-0.dtd"
   xmlns="http://www.w3.org/2000/svg"
   xmlns:svg="http://www.w3.org/2000/svg">
  <sodipodi:namedview
     id="namedview7"
     pagecolor="#ffffff"
     bordercolor="#666666"
     borderopacity="1.0"
     inkscape:pageshadow="2"
     inkscape:pageopacity="0.0"
     inkscape:pagecheckerboard="0"
     inkscape:document-units="mm"
     showgrid="false"
     inkscape:zoom="0.66903058"
     inkscape:cx="50.072449"
     inkscape:cy="242.88875"
     inkscape:window-width="2506"
     inkscape:window-height="1403"
     inkscape:window-x="1974"
     inkscape:window-y="0"
     inkscape:window-maximized="1"
     inkscape:current-layer="layer1" />
  <defs
     id="defs2" />
  <g
     inkscape:label="Layer 1"
     inkscape:groupmode="layer"
     id="layer1"
     transform="translate(-122.00034,-179.00533)">
    <path
       style="fill:#000000;stroke-width:0.562066"
       d="m 129.19696,287.86732 c -1.39752,-0.68873 -2.01451,-0.75491 -2.5012,-0.26824 -1.08894,1.08896 -3.14822,0.73366 -4.09147,-0.7059 -0.80071,-1.22203 -0.80266,-1.55098 -0.0212,-3.42326 0.62029,-1.48455 0.70549,-2.37015 0.30078,-3.12637 -0.89711,-1.67626 -0.4781,-15.68657 0.48527,-16.22569 0.60996,-0.34134 0.64508,-0.69859 0.15805,-1.60841 -0.95763,-1.78935 -0.76113,-2.9297 0.50483,-2.9297 1.01352,0 1.09249,-0.24768 0.76153,-2.38879 -0.20308,-1.31384 -0.5762,-2.95001 -0.82917,-3.63596 -0.3533,-0.95796 -0.18609,-1.43893 0.7206,-2.07409 0.91738,-0.64255 1.10587,-1.20042 0.84547,-2.50243 -0.27024,-1.35119 0.12427,-2.36291 2.03792,-5.22647 1.30518,-1.95301 2.84935,-3.64265 3.4315,-3.75476 0.82132,-0.15826 0.97117,0.0236 0.66887,0.81136 -0.21426,0.55838 -0.53442,2.07215 -0.71148,3.36394 l -0.32195,2.34874 2.32807,0.22201 c 1.4456,0.13787 2.24576,0.002 2.11092,-0.35608 -1.2936,-3.44426 -2.19712,-8.11139 -2.26005,-11.674 -0.052,-2.94504 -0.29315,-4.3527 -0.74626,-4.35601 -0.36817,-0.002 -0.82573,0.24801 -1.01679,0.55715 -0.19098,0.30913 -0.84624,0.56206 -1.45597,0.56206 -1.57609,0 -1.90513,1.38768 -0.85417,3.60242 0.49773,1.0489 0.90499,2.29657 0.90499,2.77259 0,1.22014 -1.09846,1.75471 -1.87569,0.91283 -0.50097,-0.54262 -0.48954,-0.61531 0.0489,-0.3113 0.84037,0.47445 0.99785,-1.6691 0.1606,-2.18652 -0.93858,-0.58008 -3.52584,4.16414 -3.25973,5.97731 0.28229,1.92328 -0.65412,1.8684 -1.6418,-0.0962 -0.52133,-1.03702 -0.50771,-1.62647 0.0629,-2.7153 0.61313,-1.17022 0.58872,-1.63462 -0.15401,-2.92869 -0.76632,-1.33521 -0.77717,-1.66506 -0.0824,-2.50231 0.44018,-0.53038 1.22984,-1.12575 1.75479,-1.32302 0.85911,-0.32283 0.79317,-0.69561 -0.66014,-3.73107 -1.96101,-4.09591 -2.13488,-7.89311 -0.52397,-11.44323 1.2649,-2.78759 1.41772,-5.21376 0.44101,-7.0014 -1.07086,-1.95994 -1.31743,-6.99987 -1.08441,-22.16468 0.12024,-7.83104 0.15061,-8.01018 1.36068,-8.04262 1.92139,-0.0514 4.75937,-0.34385 9.8349,-1.0131 6.01,-0.79249 10.03972,0.0743 14.64581,3.15008 l 3.30514,2.20709 1.52401,-1.11018 c 0.83822,-0.61058 1.75092,-1.707 2.02828,-2.43648 0.5672,-1.49184 1.83021,-1.65679 3.90282,-0.50971 1.00892,0.55836 1.6069,0.60797 2.12692,0.17632 0.5194,-0.43105 1.12457,-0.38565 2.14595,0.16102 1.18583,0.63463 1.49983,0.63631 1.88691,0.0106 0.3797,-0.61436 0.70322,-0.58401 1.7747,0.16655 0.7207,0.5048 1.74502,0.91782 2.27628,0.91782 0.53123,0 1.12042,0.25003 1.30929,0.55562 0.19693,0.31861 -0.0287,0.41285 -0.52889,0.22089 -0.47977,-0.18418 -0.8723,-0.0595 -0.8723,0.27678 0,0.71714 2.68727,1.50538 3.24177,0.95088 0.20861,-0.20861 0.006,-0.6144 -0.44771,-0.902 -0.45475,-0.28759 -0.60805,-0.52677 -0.34064,-0.53151 0.26742,-0.004 0.0718,-0.64093 -0.43451,-1.41377 -1.02661,-1.56681 -0.38421,-1.8242 1.51377,-0.60646 0.6847,0.43927 1.75073,0.88031 2.36903,0.98009 1.28429,0.20733 4.83645,2.57426 5.50806,3.67036 0.43294,0.70658 5.45222,1.08917 5.45222,0.41558 0,-0.17483 -0.23994,-0.76631 -0.53321,-1.31429 -0.82338,-1.53851 -0.0591,-3.38189 1.80142,-4.34392 1.57019,-0.81197 1.79227,-0.79506 3.19704,0.24353 1.20767,0.89287 1.72715,0.98999 2.59716,0.48554 1.66209,-0.96371 7.92948,-0.99132 8.72031,-0.0385 0.36018,0.43398 1.30314,0.78905 2.0955,0.78905 0.79233,0 1.99486,0.5207 2.6723,1.15711 l 1.23167,1.15709 0.33675,-1.34178 c 0.29811,-1.18777 2.35584,-2.65862 3.71943,-2.65862 0.27088,0 1.26601,0.65086 2.2114,1.44636 1.94743,1.63866 3.42039,1.48118 4.28009,-0.45761 0.36208,-0.81655 0.96214,-1.21098 1.68117,-1.10508 0.61497,0.0907 2.00338,0.1572 3.08535,0.14828 2.81162,-0.0236 5.62066,1.42847 5.62066,2.90542 0,0.65912 0.30323,2.03693 0.67384,3.06184 0.59573,1.6475 0.54775,1.95563 -0.41409,2.65896 -1.06318,0.77741 -1.06405,0.82187 -0.0376,1.95606 0.91562,1.01174 0.95997,1.37861 0.34591,2.86109 -0.55666,1.34388 -0.56089,2.04697 -0.0212,3.35234 0.59819,1.4442 0.54107,1.80544 -0.45457,2.87414 -0.62632,0.67227 -1.52265,2.01494 -1.99183,2.98368 -0.78301,1.61676 -0.77311,1.79095 0.12066,2.12161 0.53557,0.1982 1.24629,0.70468 1.57935,1.12569 0.9273,1.1721 1.40171,3.73678 0.73249,3.95984 -0.39073,0.13022 -0.30012,1.30208 0.2699,3.49049 1.04136,3.99804 0.46489,5.87652 -1.07984,3.51892 -1.08257,-1.65215 -1.97235,-1.94478 -1.97235,-0.64867 0,1.08711 -1.34603,1.08711 -2.24826,0 -1.15654,-1.39355 -2.03387,-0.96482 -2.72137,1.32986 -0.85242,2.84516 -0.90215,2.72781 1.03517,2.44346 1.06419,-0.15614 1.6862,-0.002 1.6862,0.41861 0,0.36634 0.56909,0.6008 1.26464,0.52101 2.15825,-0.24755 3.67491,0.60064 4.30475,2.40746 0.50547,1.44997 0.41007,2.08129 -0.58115,3.8449 l -1.18592,2.11004 1.24884,1.68916 c 1.35909,1.83826 1.22252,4.50924 -0.29492,5.76861 -0.67937,0.56383 -0.66771,0.89816 0.0818,2.34764 0.56482,1.09225 0.72998,2.21563 0.46686,3.17534 -0.63702,2.32355 -0.72563,8.71874 -0.13107,9.46547 0.81095,1.01865 -0.73139,3.78922 -2.22823,4.00269 -0.69266,0.0988 -1.25939,0.49927 -1.25939,0.88993 0,1.27852 0.73217,1.48006 1.81542,0.49974 0.91738,-0.83022 1.13489,-0.84972 1.5827,-0.1417 0.85012,1.34401 0.58462,5.15664 -0.52998,7.61077 -0.87253,1.92115 -0.95761,2.82931 -0.52408,5.59397 0.28467,1.81528 0.8124,3.65573 1.17273,4.0899 0.36033,0.43417 0.71259,2.21671 0.7828,3.96116 0.0703,1.74447 0.24857,4.7686 0.39638,6.72032 0.2118,2.79543 0.0918,3.61649 -0.5652,3.86859 -0.45867,0.17589 -1.12045,0.0336 -1.47062,-0.3167 -0.35018,-0.35018 -1.45491,-0.63671 -2.45494,-0.63671 -1.00002,0 -2.4359,-0.23482 -3.19083,-0.52184 -1.12561,-0.42798 -1.35975,-0.35212 -1.30123,0.42153 0.12746,1.68499 -2.98634,0.92341 -5.24598,-1.28308 -1.12032,-1.09396 -2.41829,-1.98901 -2.88442,-1.98901 -1.23335,0 -2.19647,1.15837 -2.19647,2.64173 0,0.92847 -0.32462,1.29275 -1.15205,1.29275 -1.62493,0 -4.2424,-1.45424 -5.2776,-2.93219 -1.08764,-1.55283 -1.10548,-5.31082 -0.0342,-7.185 1.04197,-1.82274 1.0572,-3.3724 0.0331,-3.3724 -1.10404,0 -1.29292,0.39988 -2.53324,5.36318 -0.59411,2.37746 -1.56483,4.86233 -2.15716,5.52194 -0.59234,0.65961 -1.23198,1.63879 -1.42143,2.17595 -0.3192,0.90499 -0.49437,0.88821 -2.38765,-0.22886 -1.94047,-1.14491 -2.12239,-1.15868 -3.61995,-0.27406 -2.13032,1.25842 -3.41582,1.17459 -6.41106,-0.41799 l -2.53792,-1.34942 1.80559,-1.43451 1.80559,-1.43453 -1.83499,-0.0263 c -1.43663,-0.0212 -2.06599,-0.40626 -2.89916,-1.77631 l -1.06419,-1.74991 -1.29821,1.49307 c -0.74957,0.86208 -1.78092,1.43551 -2.44045,1.35687 -0.62825,-0.075 -1.70617,0.17313 -2.39539,0.55148 -0.6892,0.37824 -1.88315,0.52955 -2.6532,0.33628 -0.9373,-0.23525 -1.71432,-0.0372 -2.3508,0.59934 -0.63123,0.63121 -1.58128,0.87712 -2.82695,0.73169 -1.19728,-0.13978 -1.8762,0.0227 -1.8762,0.44889 0,0.36739 -0.46279,1.2395 -1.02842,1.938 -0.86276,1.06547 -1.65491,1.29258 -4.91807,1.40999 -4.43691,0.15954 -5.85691,-0.36778 -5.85691,-2.17537 0,-0.69661 -0.48171,-2.21138 -1.07046,-3.36617 -0.97955,-1.92137 -1.1465,-2.02355 -1.96637,-1.20368 -0.49277,0.49279 -1.04739,1.49934 -1.23249,2.23683 -0.285,1.13557 -0.58636,1.29092 -1.96807,1.01457 -1.83134,-0.36626 -2.28854,0.81751 -0.79464,2.05734 0.46031,0.38202 0.69832,0.91885 0.5289,1.19295 -0.40403,0.65372 -3.66615,0.62598 -4.71936,-0.0401 -0.51617,-0.32645 -1.07889,-0.30996 -1.50555,0.0442 -0.48887,0.40572 -1.22821,-0.0312 -2.61742,-1.54721 l -1.93609,-2.11264 -0.92018,1.77942 c -1.55018,2.99775 -3.70027,3.61296 -6.97918,1.99701 z m 5.64911,-1.95669 c 0.5827,-0.68863 0.95727,-1.99616 0.91897,-3.20791 l -0.0646,-2.04549 -0.42432,2.20235 c -0.82646,4.28946 -4.07311,4.92719 -7.38104,1.44984 -2.49993,-2.62798 -3.5225,-5.65401 -3.56044,-10.53603 -0.0149,-1.93128 -0.21698,-3.51209 -0.44884,-3.5129 -0.69088,-0.002 -0.4784,5.71708 0.32788,8.82534 0.46007,1.77359 0.55779,3.23147 0.25309,3.77592 -0.31636,0.56528 -0.27746,0.88685 0.10728,0.88685 0.33195,0 1.9121,0.90012 3.51144,2.00028 3.21071,2.20858 4.99261,2.25121 6.76066,0.16166 z m -9.13358,0.7835 c 0,-0.23476 -0.50588,-0.74278 -1.12414,-1.1289 -1.23072,-0.76859 -1.52424,-0.19331 -0.44964,0.88129 0.7613,0.76132 1.57378,0.88914 1.57378,0.24761 z m 18.55273,-0.55675 c 0.004,-0.39509 -6.1445,-6.32324 -6.55853,-6.32324 -0.10494,0 -0.19077,0.67926 -0.19077,1.50945 0,1.8769 2.02074,4.11121 3.71822,4.11121 0.70072,0 1.43035,0.25292 1.62141,0.56206 0.40547,0.65608 1.40309,0.75552 1.40969,0.14041 z m 14.79267,-0.37 c 0.19672,-0.51277 -0.2067,-0.91965 -1.1453,-1.15526 -1.75598,-0.44071 -3.11862,0.59359 -1.84382,1.39954 1.22919,0.77713 2.64145,0.66169 2.98912,-0.24428 z m 33.7187,-0.36479 0.99007,-1.15632 1.85154,1.1443 1.85151,1.1443 1.45873,-1.53365 c 0.80228,-0.84352 1.61907,-2.29245 1.81508,-3.21985 0.19608,-0.92741 0.46793,-2.23976 0.60423,-2.91637 0.19693,-0.97739 -0.31245,-0.68865 -2.47882,1.40517 -2.44964,2.36763 -7.91227,5.16463 -10.08666,5.16463 -0.37423,0 -0.68041,0.25292 -0.68041,0.56206 0,1.06988 3.64678,0.60628 4.67473,-0.59427 z m 35.23199,0.68138 c 0,-0.84404 -1.87809,-2.16598 -6.0136,-4.23284 -2.22548,-1.11226 -4.18256,-1.80189 -4.34906,-1.5325 -0.4319,0.69884 1.05161,4.72913 1.83713,4.99098 0.40014,0.13341 0.52372,-0.12916 0.31581,-0.67096 -0.4229,-1.10204 0.24236,-1.14899 1.42065,-0.10026 0.48805,0.43438 2.02555,1.03963 3.41667,1.34496 3.39093,0.74431 3.3724,0.7432 3.3724,0.20054 z m -18.75145,-0.9302 c 0.17802,-0.46371 0.66696,-0.84311 1.08671,-0.84311 0.41975,0 1.03418,-0.50632 1.36536,-1.12518 l 0.60219,-1.12519 2.20554,1.12519 c 1.21304,0.61886 2.318,1.12518 2.45549,1.12518 0.13744,0 0.10855,-1.07494 -0.0644,-2.38877 -0.27464,-2.08664 -5.0046,-11.63799 -5.76138,-11.6341 -0.52292,0.002 -3.39763,6.98264 -3.73487,9.06847 -0.18418,1.13928 -0.055,2.9098 0.2871,3.93446 0.56767,1.70032 0.54902,1.76775 -0.21339,0.772 -0.45945,-0.60008 -0.83537,-1.94288 -0.83537,-2.98402 0,-1.11885 -0.22986,-1.75091 -0.56206,-1.54559 -1.0164,0.62815 -0.60941,3.81163 0.66003,5.16288 1.42197,1.51362 2.05932,1.62988 2.50911,0.45778 z m -75.67288,-0.84842 c 0.51861,-0.969 0.38784,-1.2118 -0.92065,-1.7093 -1.77472,-0.67473 -3.40626,0.45062 -2.83012,1.95207 0.49028,1.27764 3.02488,1.11358 3.75077,-0.24277 z m -8.05911,0.19267 c -0.20606,-0.20606 -0.54334,-0.20606 -0.74943,0 -0.20606,0.20606 -0.0374,0.37472 0.37472,0.37472 0.41216,0 0.58079,-0.16868 0.37471,-0.37472 z m 20.28875,-1.71547 c 0.73173,-0.5816 0.74639,-0.82414 0.0971,-1.60651 -0.64978,-0.78293 -0.63387,-1.01797 0.10579,-1.56325 0.82511,-0.60822 2.17834,-2.72978 2.17834,-3.41514 0,-0.17483 -0.69555,-0.3195 -1.54567,-0.32137 -2.0279,-0.004 -7.4255,2.33761 -7.43778,3.22729 -0.004,0.38204 0.99405,1.35879 2.22073,2.17057 1.22668,0.81177 2.40448,2.01679 2.61734,2.6778 0.28721,0.89188 0.45346,0.9844 0.64467,0.35872 0.1417,-0.46371 0.64547,-1.15136 1.11947,-1.52811 z m 45.99408,0.68502 c 1.6896,-0.77284 3.27536,-1.40517 3.52389,-1.40517 0.24852,0 1.47784,-0.94848 2.73178,-2.10776 2.73103,-2.52482 4.08987,-6.44934 4.08987,-11.81212 v -3.59864 l -2.24826,1.78066 c -2.54246,2.01367 -2.90017,3.92316 -1.40517,7.5012 1.10687,2.6491 1.06366,3.36685 -0.1829,3.04085 -0.76277,-0.19948 -1.35977,0.36067 -2.32637,2.1827 -1.25479,2.36531 -2.50807,3.1366 -2.9487,1.81468 -0.33703,-1.01104 -3.49463,0.88908 -4.25662,2.56145 -0.80954,1.77676 -0.77086,1.77729 3.02257,0.0421 z m 36.9795,-3.23188 c -0.20436,-2.55038 -0.72644,-5.34005 -1.16025,-6.19924 -0.43379,-0.85921 -0.65336,-1.7812 -0.48794,-2.04885 0.56372,-0.91211 -1.53807,-1.19677 -2.48812,-0.33698 -2.10204,1.90231 -7.41724,0.008 -6.52221,-2.32414 0.17845,-0.46508 0.3245,-1.07785 0.3245,-1.36171 0,-0.79994 2.16128,-0.61011 4.22987,0.37149 1.02875,0.48817 2.43974,0.80434 3.13557,0.70258 1.07371,-0.15699 0.81921,-0.46134 -1.68235,-2.01171 -2.31994,-1.43782 -3.56773,-1.82957 -5.86097,-1.84007 -1.78003,-0.008 -4.21926,-0.5501 -6.26992,-1.39304 -4.15672,-1.70867 -5.22975,-1.09824 -2.71718,1.54581 0.95532,1.0053 2.263,2.87884 2.90597,4.16346 0.64298,1.28461 1.84253,2.86542 2.6657,3.51292 2.4585,1.93386 7.57448,1.44303 10.5028,-1.00766 0.91063,-0.76209 0.9717,-0.7493 0.63327,0.13256 -0.65585,1.70912 -4.57427,3.29618 -7.61726,3.08516 -1.50508,-0.1043 -2.73637,0.0334 -2.73618,0.30593 5.5e-4,0.95139 3.85371,4.11996 6.5526,5.38857 1.49595,0.70318 3.47913,1.87722 4.40707,2.60898 0.92793,0.73175 1.88278,1.33326 2.12188,1.33668 0.23907,0.004 0.26749,-2.08044 0.0631,-4.6308 z m -68.91251,3.03911 c 0.57606,-0.36553 0.54872,-0.78407 -0.13702,-2.09913 -0.47112,-0.90342 -0.85813,-2.08519 -0.86004,-2.62618 -0.004,-1.14491 -0.62061,-1.26577 -1.57725,-0.30915 -0.96443,0.96443 -0.83236,3.27805 0.25573,4.48039 1.03991,1.14908 1.28765,1.20829 2.3186,0.55407 z m -30.23662,-1.66712 c -0.008,-0.81908 -0.0839,-0.83393 -0.55346,-0.10728 -0.71135,1.10073 -0.71135,1.8448 0,1.40517 0.30914,-0.19098 0.5582,-0.77509 0.55346,-1.29783 z m 40.51195,0.42015 c 1.73559,-1.73556 1.24151,-3.57712 -1.01818,-3.79499 -1.5953,-0.1538 -1.8267,-0.009 -1.8267,1.15224 0,0.73059 -0.31407,1.6424 -0.69789,2.02625 -0.55582,0.55579 -0.5272,0.8058 0.14042,1.22793 1.28138,0.81012 2.13392,0.65691 3.40226,-0.61143 z m -20.16667,-0.80852 c 0.35211,-0.77286 1.10549,-1.40517 1.67413,-1.40517 0.56867,0 1.03392,-0.25293 1.03392,-0.56208 0,-0.30914 -0.26998,-0.56206 -0.59993,-0.56206 -0.35239,0 -0.45383,-0.52185 -0.24581,-1.26465 0.34232,-1.22241 0.31572,-1.21771 -0.79593,0.14042 -0.63254,0.77286 -1.29776,1.8478 -1.47829,2.38879 -0.18057,0.54101 -0.69054,0.98361 -1.13342,0.98361 -0.84534,0 -1.06693,0.67506 -0.4305,1.31149 0.70424,0.70426 1.33543,0.37507 1.97583,-1.03044 z m -21.54037,-0.61192 c 0.585,-1.28393 0.52953,-1.48989 -0.47184,-1.75173 -0.62413,-0.16315 -1.13478,-0.74217 -1.13478,-1.28653 0,-0.54436 -0.37941,-1.30462 -0.84312,-1.68947 -1.13745,-0.944 -1.12184,0.10579 0.0529,3.55331 1.02423,3.00597 1.46418,3.22152 2.3969,1.17442 z m 27.05876,-0.51222 c 0,-1.08197 -0.24812,-1.96723 -0.55137,-1.96723 -0.69693,0 -1.36328,2.54805 -0.87355,3.34045 0.74165,1.2 1.42492,0.54149 1.42492,-1.37322 z m 9.79602,1.08399 c 1.90626,-1.90628 0.41357,-5.24869 -2.15396,-4.82307 -1.81162,0.30032 -2.58346,1.1915 -2.58346,2.98292 0,1.17072 0.35936,1.77992 1.26465,2.1438 1.84187,0.74036 2.48499,0.68413 3.47277,-0.30365 z m -31.92441,-0.94347 c -0.18631,-0.69557 -0.34238,-1.78283 -0.34659,-2.41616 -0.006,-0.97191 -0.35808,-1.14726 -2.25416,-1.12414 -1.23556,0.0149 -2.24728,0.14318 -2.24826,0.28472 -0.004,0.49081 4.16342,4.52023 4.67437,4.52023 0.28245,0 0.36103,-0.56909 0.17462,-1.26465 z m 42.36278,0.14042 c 0,-1.17544 -0.43574,-1.35301 -1.92125,-0.78297 -1.42155,0.54549 -1.05306,1.90711 0.51608,1.90711 1.03046,0 1.40517,-0.29976 1.40517,-1.12414 z m 11.57588,-0.28385 c 0.74346,-1.13461 0.78716,-1.5711 0.22518,-2.24826 -1.00494,-1.21088 -1.98756,-1.03732 -3.01633,0.53281 -0.81437,1.24289 -0.81669,1.45607 -0.0244,2.24826 1.20507,1.20505 1.74376,1.10313 2.81565,-0.53281 z M 136.39174,278.69 c 0,-1.34014 -1.10695,-2.06134 -1.69746,-1.10591 -0.50266,0.81332 0.54997,2.87288 1.24791,2.44155 0.24725,-0.15274 0.44955,-0.75385 0.44955,-1.33564 z m 55.03529,0.0663 c 1.31514,-1.84693 3.05084,-8.49732 2.21773,-8.49732 -0.29706,0 -1.28098,0.3831 -2.18648,0.85137 -1.68588,0.87179 -1.83798,1.80833 -0.82656,5.0896 0.22595,0.73298 0.0323,1.43427 -0.52354,1.89553 -0.96337,0.79952 -1.19612,2.2807 -0.3584,2.2807 0.28808,0 1.04286,-0.72895 1.67725,-1.61988 z m -41.5543,-1.36411 c 0.004,-0.2501 -0.24432,-0.29838 -0.55345,-0.10728 -0.30914,0.19098 -0.5582,0.77509 -0.55346,1.29783 0.008,0.81908 0.0839,0.83393 0.55346,0.10728 0.29966,-0.4637 0.54871,-1.04773 0.55345,-1.29783 z m 45.44576,0.42829 c 0.35876,-0.78739 0.65231,-1.77803 0.65231,-2.20144 0,-0.4234 0.22471,-0.85411 0.49937,-0.95716 0.27467,-0.10303 0.36734,-1.53204 0.20584,-3.17552 -0.36003,-3.66626 -1.08212,-3.15533 -1.89863,1.34342 -0.3325,1.83201 -0.7346,4.0265 -0.89354,4.87662 -0.36335,1.94336 0.56737,2.01737 1.43457,0.11408 z m -20.53651,-0.31871 c 0.97939,-1.55541 0.0603,-2.74621 -2.11931,-2.74621 -2.25198,0 -2.6548,1.13846 -1.03583,2.92739 1.08883,1.20315 2.32832,1.13196 3.15514,-0.18121 z m 4.2219,-0.91951 c 0.15444,-1.60264 0.0106,-1.8267 -1.17357,-1.8267 -1.15847,0 -1.36037,0.28396 -1.42506,2.00426 -0.0665,1.76735 0.0722,1.98329 1.17358,1.82672 0.95202,-0.13532 1.29081,-0.61183 1.42505,-2.00428 z m 3.92696,1.43328 c 0.97981,-0.97981 0.83557,-3.63996 -0.21934,-4.04478 -1.41107,-0.54147 -1.9165,0.11897 -1.9165,2.50416 0,2.28416 0.80887,2.86761 2.13584,1.54062 z m -26.18292,-2.23889 c -0.85855,-0.85858 -1.49208,-0.22505 -1.01588,1.01588 0.28115,0.73271 0.5249,0.8053 1.02493,0.30527 0.50003,-0.50003 0.49788,-0.81422 -0.008,-1.32115 z m -14.36181,0.0457 c 1.34667,-0.8323 2.57199,-1.11842 4.14645,-0.96827 2.40767,0.22959 2.7417,-0.54834 0.64261,-1.49652 -0.67556,-0.30514 -1.22829,-0.72838 -1.22829,-0.94047 0,-0.21222 -0.64651,-1.15401 -1.43668,-2.09308 -1.15985,-1.37838 -1.3223,-1.9211 -0.84311,-2.8165 0.95001,-1.77508 0.74718,-2.61623 -0.39003,-1.61764 -1.86785,1.64018 -3.38826,1.69824 -6.55133,0.25014 -2.47236,-1.13187 -3.10002,-1.70672 -3.41134,-3.12415 -0.58746,-2.67472 -1.40844,-2.65107 -1.51455,0.0436 -0.27455,6.97096 0.43173,9.27028 3.73966,12.17469 2.36692,2.07818 4.1833,2.23424 6.84661,0.58821 z m -10.49089,-1.14714 c 0,-0.27761 -1.77051,-2.31788 -3.93448,-4.53393 -2.16394,-2.21605 -3.93445,-3.84237 -3.93445,-3.61404 0,0.66058 1.74249,3.92224 2.64774,4.95609 0.4992,0.57014 0.67851,1.40794 0.45327,2.11766 -0.30287,0.95423 -0.0227,1.32145 1.49503,1.95964 1.83242,0.77052 3.27289,0.38081 3.27289,-0.88542 z m 26.97919,-0.60221 c 0,-1.67299 -0.068,-1.73859 -0.91997,-0.88668 -0.50597,0.50597 -0.76684,1.31896 -0.57971,1.80662 0.58632,1.5279 1.49968,0.96762 1.49968,-0.91994 z m 47.37894,-1.56577 c 0.46117,0 1.02236,0.44262 1.2471,0.98363 0.33089,0.79657 0.60671,0.55607 1.45054,-1.26466 0.57309,-1.23654 1.0486,-2.74209 1.05672,-3.34564 0.0223,-1.66338 -3.30234,-4.80433 -5.08537,-4.80433 -1.49934,0 -1.5086,0.0257 -1.77886,4.91809 -0.14934,2.70495 -0.47806,5.42395 -0.73033,6.04222 -0.30508,0.74777 0.12066,0.51254 1.27155,-0.70259 0.9516,-1.00469 2.10748,-1.82672 2.56865,-1.82672 z m -53.40358,2.46487 c 0.18991,-0.18991 -0.0667,-0.97431 -0.5702,-1.74292 -0.72861,-1.11201 -0.79249,-1.7238 -0.31268,-2.99494 0.77513,-2.05356 -0.29127,-3.07979 -3.63949,-3.50241 -2.00783,-0.25343 -2.49541,-0.11875 -3.00291,0.82954 -0.43911,0.82046 -0.42984,1.30813 0.0336,1.77162 0.35175,0.35172 1.70305,1.83095 3.00291,3.28712 2.18614,2.44901 3.63338,3.20734 4.48872,2.35199 z m 12.73197,-0.58619 c 0.56873,-0.49319 -0.97514,-1.28614 -3.19443,-1.64071 -2.29739,-0.36703 -2.38878,-0.32554 -2.38878,1.0846 0,1.42357 0.0778,1.45609 2.66981,1.11679 1.46842,-0.19225 2.77943,-0.4445 2.9134,-0.56068 z m 22.74101,-0.51949 c 0.48012,-1.25113 0.44284,-1.35919 -0.46876,-1.35919 -0.99294,0 -1.62778,0.92496 -1.1573,1.6862 0.51275,0.82966 1.2382,0.68376 1.62606,-0.32701 z m -33.12322,-2.06167 c -0.49602,-2.31267 -0.76999,-2.76811 -1.42257,-2.36478 -0.59915,0.37027 -0.71134,3.25394 -0.14849,3.81677 0.20606,0.20606 0.73205,0.37471 1.16879,0.37471 0.60155,0 0.6991,-0.44293 0.40229,-1.8267 z m 29.81096,-0.80101 c 7.64919,-1.92368 16.25806,-7.60552 20.87373,-13.77661 3.16959,-4.23771 4.91444,-7.58016 6.75217,-12.93446 1.45966,-4.25282 1.59913,-5.33853 1.5741,-12.25414 -0.0291,-8.02079 -0.59462,-10.87015 -3.43075,-17.28313 -5.46422,-12.35557 -18.47915,-21.29896 -32.51405,-22.34248 -5.71092,-0.42462 -10.74241,0.22792 -16.44175,2.13231 l -3.79264,1.26726 0.15147,2.51569 c 0.24032,3.99275 0.3273,4.05748 3.38699,2.52069 4.50372,-2.26211 8.77232,-3.09639 15.84263,-3.09639 11.04925,0 16.33485,2.12643 23.61717,9.50139 7.11008,7.20049 9.50324,13.61521 8.81453,23.62674 -0.69315,10.07603 -4.12763,18.08201 -10.67639,24.88737 -5.54269,5.75986 -11.59795,9.04344 -19.59513,10.62583 -10.23011,2.02422 -18.33223,0.85082 -24.63506,-3.5678 -12.08719,-8.47374 -17.71201,-19.50893 -16.29167,-31.96222 0.42542,-3.73014 0.9769,-5.38887 3.18219,-9.57141 2.76426,-5.24274 9.4463,-13.74069 12.47162,-15.8609 0.95371,-0.66838 1.83971,-1.48009 1.96889,-1.80384 0.24222,-0.60695 -0.95761,-4.56745 -1.56889,-5.17873 -0.67718,-0.67716 -6.84471,4.2558 -10.01372,8.00927 -6.03427,7.1471 -8.84384,14.49318 -9.24605,24.1752 -0.35958,8.6565 0.59096,13.40944 4.06424,20.32225 8.27503,16.4695 26.97596,24.70831 45.50643,20.04811 z m 37.93949,-0.16294 c 0,-0.59692 -1.81582,-1.70597 -2.79315,-1.70597 -0.44462,0 -0.44947,0.31642 -0.017,1.12414 0.60633,1.13295 2.81031,1.58926 2.81031,0.58183 z m -93.07057,-2.99849 c -0.53383,-1.56668 -1.41141,-2.76396 -2.49517,-3.40418 l -1.67175,-0.98752 v 1.55071 c 0,0.98283 0.65786,2.22944 1.79645,3.40418 2.5801,2.66197 3.4028,2.46651 2.37047,-0.56319 z m 97.17868,-2.78244 c 0.47509,-1.00471 1.05059,-2.58552 1.27892,-3.51293 l 0.41509,-1.6862 -1.58656,1.8751 c -0.87262,1.0313 -2.21149,2.1127 -2.97526,2.40308 -1.3436,0.51084 -1.35607,0.56397 -0.38427,1.63781 1.41998,1.56906 2.25854,1.3842 3.25208,-0.71686 z m -85.82796,-0.13809 c -0.58483,-0.44273 -1.21717,-0.87731 -1.40517,-0.96575 -0.18801,-0.0884 -1.43083,-1.59345 -2.76182,-3.3445 -1.33099,-1.75104 -2.84148,-3.34546 -3.35666,-3.54316 -0.70203,-0.26938 -0.76058,-0.46824 -0.23378,-0.79384 0.53081,-0.32804 0.26182,-1.37694 -1.09854,-4.284 -1.26613,-2.70567 -1.81373,-4.72157 -1.84279,-6.78399 -0.0227,-1.61393 -0.25137,-2.80664 -0.5081,-2.65048 -0.77005,0.46844 -0.0191,7.03271 1.06177,9.28298 0.97142,2.02213 0.97029,2.13563 -0.0321,3.24326 -1.01951,1.12656 -1.00214,1.18142 0.93835,2.96315 1.08741,0.99844 2.27473,2.72043 2.6385,3.82669 0.73804,2.24449 3.17162,3.80644 5.97746,3.83652 1.5826,0.017 1.62085,-0.0314 0.62288,-0.78688 z m 6.96501,0.34746 c 0,-0.71875 -1.65268,-1.9759 -2.06092,-1.56768 -0.40821,0.40823 0.84893,2.06091 1.56768,2.06091 0.27128,0 0.49324,-0.22195 0.49324,-0.49323 z m 23.04473,-0.031 c 0,-0.68307 -2.07334,-1.33647 -2.80531,-0.88409 -1.11245,0.68756 -0.53973,1.40829 1.11911,1.40829 0.9274,0 1.6862,-0.23589 1.6862,-0.52418 z m 12.52097,-2.30751 c 2.72966,-0.89953 5.22649,-1.79837 5.5485,-1.9974 0.32203,-0.19905 -0.38702,-0.79786 -1.57563,-1.33073 -1.18864,-0.53289 -2.51357,-1.39476 -2.94432,-1.91524 -0.73347,-0.88628 -0.85121,-0.88479 -1.85492,0.0236 -1.01129,0.91523 -1.17317,0.91589 -2.87026,0.0127 -1.16323,-0.61961 -4.18097,-1.15025 -8.54331,-1.50225 -3.70964,-0.29934 -7.56682,-0.70932 -8.57151,-0.91109 -1.60957,-0.32322 -1.82672,-0.22276 -1.82672,0.84519 0,0.66664 -0.36775,1.35317 -0.81719,1.52564 -0.9646,0.37015 -3.30391,4.14836 -2.84971,4.60257 0.17229,0.17228 0.61254,0.0149 0.97835,-0.35188 0.80891,-0.80886 4.17351,-0.88334 4.65578,-0.10303 0.19098,0.30914 0.93771,0.56206 1.65924,0.56206 0.72151,0 1.47368,0.4217 1.67146,0.93709 0.27406,0.71423 0.51562,0.78106 1.01565,0.28103 1.04082,-1.04082 3.53198,-0.7637 4.69588,0.52242 0.91662,1.01285 1.45994,1.12626 3.86612,0.80708 1.53979,-0.20415 5.03296,-1.10736 7.76259,-2.00691 z m -53.104,-1.17634 c 0.12979,-1.95837 -0.0877,-2.74542 -0.98362,-3.55609 -1.40591,-1.27233 -1.48426,-3.02812 -0.17781,-3.98346 0.91817,-0.67138 0.91167,-0.83222 -0.1162,-2.87229 -0.59936,-1.18948 -1.0285,-3.04555 -0.95453,-4.12832 0.12385,-1.81148 0.0697,-1.88553 -0.68361,-0.93525 -0.53224,0.67144 -0.70854,1.70679 -0.50458,2.96357 0.21847,1.34633 0.0355,2.23881 -0.60418,2.94555 -0.78085,0.86283 -0.83003,1.48792 -0.32987,4.19351 0.32328,1.74874 0.54574,3.49985 0.4944,3.89139 -0.18992,1.44736 0.0688,2.10034 1.27904,3.22773 1.73156,1.61319 2.38764,1.16926 2.581,-1.74634 z m 31.71803,1.10092 c -0.30827,-0.30826 -1.15875,-0.46952 -1.88995,-0.35835 -1.30193,0.19799 -1.29451,0.22125 0.35672,1.12631 1.65935,0.90949 2.69297,0.39179 1.53323,-0.76796 z m -17.55213,0.0635 c 0,-0.63652 -0.25293,-1.00097 -0.56206,-0.80993 -0.30914,0.19098 -0.56206,0.71185 -0.56206,1.15733 0,0.44545 0.25292,0.8099 0.56206,0.8099 0.30913,0 0.56206,-0.52078 0.56206,-1.1573 z m 78.7368,0.37408 1.86276,-0.78323 -1.93874,-1.198 c -1.17245,-0.72449 -2.38307,-1.06192 -3.06289,-0.85369 -1.98628,0.60841 -3.25233,0.54487 -3.50285,-0.17568 -0.13851,-0.39847 0.2101,-0.70259 0.80553,-0.70259 1.3538,0 2.97835,-2.75801 2.97835,-5.05639 v -1.79158 l -2.38878,2.44036 c -1.57221,1.60617 -3.62469,2.92072 -6.00427,3.84553 -1.98854,0.77286 -3.73044,1.78458 -3.8709,2.24828 -0.14042,0.4637 -0.0767,0.67801 0.14148,0.47624 0.21832,-0.20182 1.83376,0.23017 3.58987,0.95986 3.68663,1.53187 8.5523,1.78432 11.39036,0.59099 z m -80.71077,-1.44381 c 0.19247,-0.60659 0.0574,-1.64996 -0.30057,-2.31858 l -0.65062,-1.2157 -1.37042,1.37044 c -0.87757,0.87757 -1.23958,1.71142 -1.0066,2.31857 0.51027,1.32974 2.89221,1.219 3.32821,-0.15465 z m 84.84687,-2.76979 c -0.39918,-0.39916 -1.944,1.56303 -1.91662,2.43444 0.0106,0.32734 0.52246,-0.0106 1.13818,-0.74911 0.61572,-0.73936 0.966,-1.49775 0.77844,-1.68533 z m -71.09192,0.80834 c 0.86295,-1.03979 0.54436,-2.77761 -0.54611,-2.97878 -0.88585,-0.16336 -2.41875,2.49177 -1.91197,3.31177 0.45907,0.7428 1.70538,0.57395 2.45808,-0.33299 z m 55.26387,-1.90276 c 4.56152,-1.92449 4.56329,-1.92606 4.11378,-3.71707 -0.31179,-1.24223 -0.49889,-1.34221 -1.42703,-0.76258 -0.82797,0.51707 -1.25434,0.51263 -1.89581,-0.0191 -0.68782,-0.57085 -1.17018,-0.22017 -2.85597,2.07634 -1.71656,2.33841 -2.49887,4.01777 -1.87163,4.01777 0.0862,0 1.85769,-0.71764 3.93666,-1.59474 z m -72.08754,0.17037 c 0.58031,-0.69925 0.57538,-1.12429 -0.0261,-2.24826 -0.75599,-1.41258 -1.45224,-1.65225 -3.03514,-1.04483 -1.02659,0.39391 -1.13877,1.51442 -0.30724,3.06817 0.69808,1.30437 2.3795,1.41666 3.36853,0.22492 z m 54.50455,-1.10497 c 0.72603,-0.77284 1.0401,-1.40517 0.69791,-1.40517 -0.34219,0 -0.78272,-0.50585 -0.97896,-1.12412 -0.44943,-1.41609 -0.618,-1.40791 -4.2781,0.20733 l -3.01708,1.33154 1.96139,1.19567 c 2.56638,1.56447 4.00152,1.512 5.61484,-0.20521 z m -40.67158,-0.001 c 0.17824,-0.46438 0.16549,-1.4761 -0.0285,-2.24826 -0.30083,-1.19877 -0.67467,-1.40404 -2.55674,-1.40404 -3.02626,0 -3.39423,0.97076 -1.0918,2.88025 2.15565,1.78774 3.20272,2.00757 3.6769,0.77192 z m 30.31199,-1.33579 c 0.94867,-0.57852 2.3398,-1.2445 3.09137,-1.47999 2.81625,-0.88237 8.19494,-3.5929 10.55643,-5.31976 l 2.4451,-1.78802 -1.23847,-1.31831 -1.2385,-1.3183 -3.59541,1.97628 c -4.39245,2.4144 -4.8023,1.73348 -0.50404,-0.8374 1.70026,-1.01697 3.09137,-2.08779 3.09137,-2.37959 0,-0.86046 -0.45589,-0.64622 -3.53704,1.66207 -3.66779,2.7478 -6.7886,4.18498 -12.37098,5.69701 -5.30411,1.43652 -10.11726,1.51315 -15.00563,0.23875 -7.84264,-2.04455 -11.14137,-4.72399 -12.68502,-10.30363 -0.92908,-3.35825 -3.07401,-6.81796 -4.22694,-6.81796 -0.94627,0 -0.54666,3.29644 0.4715,3.88945 0.54589,0.31795 0.67095,0.58052 0.28105,0.58999 -0.99657,0.0242 -0.87009,1.88241 0.26242,3.85569 0.83202,1.44974 0.86119,1.87544 0.21159,3.08916 -0.69819,1.30456 -0.97482,1.38484 -3.77535,1.0958 -2.0696,-0.2136 -3.02197,-0.11004 -3.02197,0.32883 0,0.35631 0.86472,0.64068 1.94818,0.64068 2.05441,0 3.74103,0.60935 10.13627,3.66203 6.35179,3.03197 8.61533,3.6064 15.73785,3.99388 3.79226,0.20627 7.35991,0.69245 8.14997,1.11056 1.91331,1.01259 2.79778,0.96348 4.81621,-0.26737 z m -3.44942,-0.30771 c -0.5962,-0.43594 -0.95791,-0.90234 -0.80384,-1.03645 0.24193,-0.21052 6.34666,-1.89379 10.67837,-2.94432 l 1.40517,-0.34079 -1.48452,0.86132 c -0.81647,0.47373 -2.71344,1.27342 -4.21548,1.77712 -1.50204,0.5037 -3.12806,1.26679 -3.61337,1.69578 -0.75293,0.66556 -1.04135,0.66371 -1.96633,-0.0128 z m -26.94083,-6.53523 c -1.23654,-0.58468 -2.50118,-1.16493 -2.81032,-1.28942 -0.37471,-0.15082 -0.37471,-0.40747 0,-0.76967 0.36554,-0.35332 1.54249,0.11344 3.36597,1.33492 3.09831,2.07542 2.88637,2.35163 -0.55565,0.72417 z m 71.29461,6.65872 c 0.38693,-1.47967 0.45977,-1.38493 -1.42943,-1.85908 -1.40519,-0.35268 -1.5014,-0.26435 -1.32759,1.21895 0.23672,2.02023 0.13447,1.88024 1.37414,1.88024 0.61888,0 1.19328,-0.51509 1.38288,-1.24011 z m -67.96909,-1.36963 c 0.40165,-1.04671 0.45968,-0.95787 -1.18365,-1.81217 -1.65926,-0.86262 -2.29518,0.20011 -0.98567,1.647 1.20406,1.33048 1.70742,1.3688 2.16932,0.16506 z m 39.12177,-0.46804 c -0.39102,-0.47118 -0.97214,-0.85668 -1.29132,-0.85668 -0.31921,0 -0.12109,0.5074 0.44008,1.12758 1.16238,1.28442 1.93738,1.03781 0.85124,-0.2709 z m 23.25624,-0.6738 c 0.69893,-0.95444 0.79567,-1.33334 0.28103,-1.1006 -0.43167,0.19523 -1.22747,0.51105 -1.76846,0.70186 -0.54098,0.19077 -0.98361,0.81539 -0.98361,1.3879 0,1.33505 1.08798,0.89953 2.47104,-0.98916 z m -82.58706,0.18333 c 1.38201,-1.01057 0.64648,-2.27611 -0.85567,-1.47219 -0.59951,0.32086 -1.09002,0.95387 -1.09002,1.4067 0,1.02517 0.6054,1.04554 1.94569,0.0654 z m 62.37384,-0.48392 c 1.081,-1.54334 0.35704,-2.40336 -1.60796,-1.91017 -1.5513,0.38935 -1.86215,1.38713 -0.77183,2.47743 0.95247,0.95249 1.38804,0.84868 2.37979,-0.56726 z m 29.33199,0.42557 c 0.55046,-1.43449 -0.42413,-2.29568 -1.27737,-1.12877 -0.41652,0.56962 -0.75731,1.24025 -0.75731,1.49031 0,0.79319 1.70804,0.48968 2.03468,-0.36154 z m -79.8478,-1.11091 c 1.0168,-0.7483 1.02411,-0.82892 0.10749,-1.18428 -1.39913,-0.54239 -2.71391,0.0941 -2.31917,1.12287 0.41124,1.07165 0.82349,1.0831 2.21175,0.0614 z m 65.82803,-2.59818 -0.88045,-1.25704 -0.36494,1.45405 c -0.50124,1.99706 0.17823,3.00761 1.28091,1.90499 0.75189,-0.75189 0.74798,-0.9834 -0.0355,-2.102 z m 11.27641,1.43391 c 0.18248,-1.52672 -1.75962,-3.7494 -2.8954,-3.31357 -0.97864,0.37554 -1.16722,1.11018 -0.40577,1.58079 0.26769,0.16548 0.36082,0.95916 0.20713,1.76384 -0.25454,1.33154 -0.13405,1.44643 1.34003,1.27805 1.12438,-0.12831 1.66082,-0.52875 1.75414,-1.30911 z m -90.22297,-0.2751 c 0.66014,-0.61502 1.05061,-1.26783 0.86773,-1.45071 -0.54126,-0.54127 -2.67704,0.85139 -2.67704,1.74557 0,1.09999 0.37828,1.03834 1.80931,-0.29486 z m 17.00247,0.58432 c 0.36382,-0.58863 -1.85755,-1.99399 -2.35906,-1.49248 -0.37229,0.37229 0.9085,2.02635 1.56906,2.02635 0.25303,0 0.60854,-0.24024 0.79,-0.53387 z m 67.42527,-1.34231 c 0.45709,-0.73334 0.39905,-1.09565 -0.24088,-1.50361 -0.46371,-0.2956 -1.04074,-0.54132 -1.2823,-0.54606 -0.67015,-0.0128 -1.1286,1.56723 -0.74478,2.56744 0.4062,1.05852 1.4313,0.8245 2.26796,-0.51777 z m -44.52754,-1.57567 c -0.61487,-0.97112 -1.96759,-2.06881 -3.00606,-2.43932 -1.03846,-0.37053 -3.46892,-1.40755 -5.40102,-2.30453 -2.76989,-1.28589 -3.51292,-1.89568 -3.51292,-2.88299 0,-0.68867 -0.52941,-2.26787 -1.17648,-3.50929 -0.64706,-1.24143 -1.3127,-3.27264 -1.47917,-4.51384 l -0.30269,-2.25671 -2.87683,-0.008 c -1.58228,-0.004 -3.44595,-0.16017 -4.1415,-0.34658 -1.11917,-0.29992 -1.26465,-0.1315 -1.26465,1.46471 0,0.99199 0.50585,2.44672 1.12412,3.2327 0.66904,0.85055 1.12414,2.28019 1.12414,3.53132 0,4.16483 0.55671,5.38004 3.48916,7.61636 3.9772,3.03305 7.5885,4.14109 13.56855,4.16314 l 4.97326,0.0191 z m 26.57482,0.66276 c 0.43086,-1.35754 -0.35606,-2.88792 -3.26077,-6.34145 -1.9336,-2.29895 -8.25486,-7.63927 -8.25486,-6.97389 0,0.12746 2.40284,2.61144 5.33962,5.51975 5.63334,5.5787 6.49846,7.3448 4.07499,8.3189 -1.22656,0.49304 -1.21925,0.5094 0.24317,0.54396 1.02398,0.0242 1.62011,-0.31827 1.85785,-1.06727 z m -23.31903,-0.61647 c 0,-0.32738 0.22221,-0.45792 0.49381,-0.29005 0.27157,0.16782 1.26704,-0.0805 2.21212,-0.55204 0.9451,-0.47147 2.77219,-1.03712 4.06022,-1.25702 2.3282,-0.39744 2.33514,-0.40589 1.18766,-1.44436 -1.12712,-1.02002 -1.18968,-1.01669 -2.66259,0.14191 -2.89134,2.27432 -5.65973,1.17221 -8.4043,-3.34583 -2.49011,-4.09918 -3.58664,-6.71983 -4.57095,-10.92453 -1.52603,-6.51872 -1.91153,-7.58791 -2.73586,-7.58791 -1.00305,0 -1.00758,-0.27461 0.0667,4.02959 2.12148,8.50012 4.37664,14.36559 7.66844,19.94476 1.05285,1.78443 2.68482,2.5658 2.68482,1.28548 z m 6.06027,-0.3106 c 1.22838,-0.53249 1.77984,-1.02187 1.33794,-1.18738 -0.41347,-0.15486 -1.03314,-1.3e-4 -1.37707,0.34378 -0.34391,0.34391 -1.06563,0.6253 -1.60384,0.6253 -0.5382,0 -1.13487,0.25293 -1.32593,0.56206 -0.50455,0.81639 0.58301,0.69046 2.9689,-0.34376 z m 43.70236,-0.25025 c 0.20181,-0.3267 0.21073,-1.21752 0.0191,-1.97961 -0.29571,-1.17822 -0.51395,-1.29666 -1.45807,-0.79138 -1.50168,0.80368 -1.51642,3.365 -0.0191,3.365 0.60002,0 1.25617,-0.2673 1.45809,-0.59401 z m -24.47824,-2.38971 c 0.004,-0.2501 -0.24432,-0.29839 -0.55346,-0.10728 -0.30913,0.19098 -0.55819,0.77509 -0.55345,1.29782 0.008,0.81909 0.0839,0.83394 0.55345,0.10728 0.29968,-0.4637 0.54872,-1.04772 0.55346,-1.29782 z m 18.45361,0.0331 c 0.1417,-1.23193 -0.0512,-1.54568 -0.95043,-1.54568 -0.62056,0 -1.28461,-0.25292 -1.47567,-0.56206 -0.63191,-1.02247 -1.40517,-0.58381 -1.40517,0.79712 0,2.38137 0.59713,3.21074 2.17955,3.02724 1.13757,-0.13193 1.51445,-0.52363 1.65172,-1.71662 z m -39.1632,-0.96492 c 0.7298,-0.60797 1.02568,-1.11384 0.65749,-1.12412 -0.36817,-0.0106 -0.82572,0.23423 -1.01678,0.54336 -0.19098,0.30914 -0.96477,0.56206 -1.71938,0.56206 -0.75459,0 -1.37199,0.25293 -1.37199,0.56208 0,0.9474 2.04836,0.62484 3.45066,-0.54338 z m 34.20779,-0.89495 c 0,-0.84485 -0.32395,-1.37201 -0.84309,-1.37201 -0.84129,0 -1.20754,2.25854 -0.48367,2.98241 0.63707,0.63707 1.32676,-0.20011 1.32676,-1.6104 z m -68.61244,0.64383 c 0.53077,-0.63954 0.32484,-0.99212 -1.05603,-1.8078 -1.84079,-1.08739 -2.60995,-2.57337 -1.92338,-3.71591 0.29643,-0.49331 0.13808,-0.47481 -0.52257,0.0612 -0.52125,0.4228 -1.58153,0.64758 -2.35615,0.49949 -1.60425,-0.30667 -1.64008,-0.15677 -0.7796,3.26045 l 0.62879,2.49717 h 2.67478 c 1.61918,0 2.93502,-0.31356 3.33416,-0.79451 z m 24.2092,0.0644 c 0,-0.4016 -0.91018,-1.0593 -2.02259,-1.46157 -3.82306,-1.38244 -8.09461,-6.88991 -8.09461,-10.43669 0,-0.78276 -0.25293,-1.42321 -0.56206,-1.42321 -1.01282,0 -0.58978,2.87292 0.84309,5.72573 0.77284,1.53868 1.40517,3.2474 1.40517,3.7971 0,0.70598 1.19664,1.51062 4.07498,2.74002 2.24125,0.95729 4.13821,1.75139 4.21549,1.76467 0.0773,0.0127 0.14042,-0.30444 0.14042,-0.70605 z m 15.12172,-2.34302 -0.66674,-2.64787 -1.26214,1.58289 -1.26216,1.58289 1.72282,1.27106 c 0.94755,0.69908 1.81555,1.17834 1.92889,1.06498 0.11323,-0.11323 -0.0939,-1.39763 -0.46067,-2.85395 z m 16.08895,1.03506 c 1.59345,-2.08912 2.23094,-5.79753 1.06714,-6.20765 -0.33169,-0.11684 -1.68252,1.06763 -3.00187,2.63227 -2.32699,2.75968 -2.37162,2.88625 -1.49171,4.22917 1.19961,1.83085 1.58782,1.75677 3.42644,-0.65379 z m -11.31195,-0.83818 c 0.29562,-1.84879 0.16867,-2.46694 -0.63076,-3.07348 -0.55044,-0.41758 -1.20599,-0.76729 -1.45679,-0.77713 -0.43135,-0.017 0.0433,4.84404 0.56076,5.74332 0.57861,1.00543 1.1832,0.25596 1.52679,-1.89271 z m -9.58932,0.0686 c 1.05465,-0.92598 2.23626,-2.45309 2.62582,-3.39358 0.99092,-2.39227 1.80057,-1.82791 2.70727,1.88699 0.42822,1.75463 1.01919,3.1902 1.31325,3.1902 0.29407,0 0.37216,-0.26293 0.17355,-0.58428 -0.6059,-0.98041 -1.28121,-12.58301 -0.76996,-13.22943 0.26601,-0.33637 0.2389,-1.33494 -0.0612,-2.24826 -0.29681,-0.90372 -1.16577,-3.8709 -1.931,-6.59371 -1.48947,-5.29969 -3.48032,-9.42113 -4.75115,-9.83572 -0.58024,-0.18928 -0.70755,0.13489 -0.49325,1.25598 0.21505,1.12492 0.0918,1.43548 -0.48252,1.21512 -1.1265,-0.43226 -0.95037,0.13681 0.61992,2.00303 0.76522,0.90941 1.77694,2.95203 2.24826,4.53915 1.07169,3.60875 1.07042,11.22627 -0.002,14.20403 -0.44548,1.23654 -0.81377,2.79764 -0.81843,3.46912 -0.004,0.72209 -0.92695,2.00704 -2.25673,3.14529 -1.23654,1.05843 -2.24826,2.08986 -2.24826,2.29206 0,0.96027 2.4092,0.19204 4.12667,-1.31599 z m 44.44609,0.78038 c 1.20276,-0.46154 1.17942,-3.51718 -0.0304,-3.98143 -1.9879,-0.76283 -3.80181,1.85413 -2.43048,3.50651 0.74887,0.90231 1.14693,0.97915 2.46092,0.47492 z m -4.16952,-1.51364 c 0,-1.55014 -0.97547,-2.64173 -2.36068,-2.64173 -0.62262,0 -1.01171,0.41465 -1.01171,1.07817 0,1.93107 0.65672,2.85631 2.02736,2.85631 1.0288,0 1.34503,-0.30395 1.34503,-1.29275 z m -52.2228,-0.86329 c -0.3321,-0.6205 -1.26754,-2.98178 -2.0788,-5.24726 -0.81125,-2.26549 -1.57021,-4.22291 -1.68656,-4.34981 -0.11642,-0.12683 -0.70306,0.21402 -1.30376,0.75764 -0.60068,0.5436 -1.36102,0.82221 -1.68964,0.61912 -0.97106,-0.60015 -0.68472,1.25706 0.5743,3.72494 1.27601,2.50116 3.51959,4.84389 5.29198,5.5258 1.45277,0.55894 1.63219,0.35177 0.89248,-1.03043 z m 9.78679,-0.1434 c 0.61827,-0.60737 1.15276,-1.79284 1.18774,-2.63438 0.0351,-0.84153 0.40333,-2.3434 0.81854,-3.33749 0.73714,-1.76489 0.70256,-1.85366 -1.46878,-3.77054 -1.22305,-1.07972 -2.36299,-1.97367 -2.53326,-1.98652 -0.17016,-0.0127 -0.8665,1.12299 -1.54722,2.52412 -1.39211,2.86536 -2.49439,3.55735 -3.87627,2.43344 -0.80573,-0.6553 -0.89446,-0.64412 -0.61659,0.0775 2.97805,7.73515 3.5659,8.61358 5.45582,8.15292 0.80073,-0.19523 1.96175,-0.8518 2.58002,-1.45917 z m -33.6743,-1.49173 c -0.61399,-0.614 -1.03504,0.36245 -0.59422,1.37808 0.41801,0.96303 0.4483,0.96214 0.6812,-0.0191 0.13404,-0.56518 0.095,-1.17644 -0.0871,-1.35833 z m 53.84328,-0.1451 c 1.88916,-2.09107 2.5257,-3.37078 1.67662,-3.37078 -0.67154,0 -4.70158,4.21519 -4.70207,4.91809 -0.001,1.24069 0.94262,0.75814 3.02545,-1.54731 z m -2.46598,-0.83926 c 0.72491,-0.77163 1.187,-1.53395 1.02689,-1.69406 -0.37979,-0.37979 -3.27306,1.89706 -3.27306,2.57575 0,0.91281 0.88767,0.56437 2.24617,-0.88169 z m -54.48141,0.25904 c 0.59796,-0.32001 1.07951,-1.01556 1.0701,-1.54567 -0.0149,-0.89809 -0.0561,-0.89673 -0.59,0.0191 -0.3151,0.54098 -1.06138,0.98361 -1.65839,0.98361 -1.38665,0 -2.10263,-2.54894 -1.14619,-4.08044 0.55547,-0.88944 0.54428,-1.05346 -0.0582,-0.85535 -1.20367,0.39575 -1.29315,4.47492 -0.11705,5.33494 1.19314,0.87244 1.14252,0.86953 2.4998,0.14318 z m 80.90062,-1.38539 c 0.70146,-1.84495 -0.13596,-4.0045 -1.75169,-4.51731 -2.55686,-0.81153 -3.53487,3.43748 -1.20149,5.21989 1.40536,1.07352 2.36468,0.8453 2.95318,-0.70258 z m -99.2713,-0.0291 c 0.18418,-0.47977 0.10218,-0.72857 -0.18206,-0.55291 -0.28424,0.17569 -0.67565,0.0625 -0.86983,-0.25184 -0.19417,-0.31419 -0.0852,-0.57126 0.24219,-0.57126 0.32739,0 0.59525,-0.22923 0.59525,-0.50944 0,-0.2802 -0.48901,-0.38157 -1.08667,-0.22526 -0.92651,0.24228 -0.99606,0.48308 -0.47186,1.63358 0.7103,1.55891 1.29725,1.71685 1.773,0.47711 z m 21.14408,-1.65704 c 0,-1.04547 -0.24171,-2.05027 -0.53712,-2.23283 -0.31645,-0.19565 -0.48962,0.69024 -0.42154,2.15638 0.13299,2.86481 0.95866,2.93066 0.95866,0.0765 z m 72.74832,-0.42155 c -0.0365,-2.52406 -0.19948,-2.95084 -1.12589,-2.95084 -1.29449,0 -1.796,2.9204 -0.81598,4.75158 1.13767,2.12577 1.98737,1.33783 1.94187,-1.80074 z m -75.55866,0.36141 c 0,-0.73976 -0.22195,-1.34503 -0.49325,-1.34503 -0.87133,0 -1.89122,1.64469 -1.55815,2.51268 0.4872,1.26964 2.0514,0.3793 2.0514,-1.16765 z m 54.56961,-1.64167 c 0.59801,-0.1897 1.46113,-1.06801 1.91805,-1.95161 0.45695,-0.88358 1.33942,-1.76797 1.96107,-1.96528 0.62167,-0.19735 1.1303,-0.69861 1.1303,-1.11401 0,-0.41539 0.80309,-1.431 1.78462,-2.2569 1.44566,-1.21644 1.63248,-1.6042 0.98362,-2.04158 -1.20406,-0.81159 -5.66194,-0.20245 -6.25344,0.85454 -1.13754,2.03264 -3.82165,-0.11875 -3.82165,-3.06329 0,-2.09163 -0.34738,-2.2186 -2.81196,-1.02784 -1.20578,0.58258 -2.42651,1.05922 -2.71275,1.05922 -1.44398,0 -1.63411,1.51137 -0.60108,4.77757 0.86123,2.72294 0.93886,3.61837 0.40312,4.64968 -0.59174,1.13905 -0.4278,1.51867 1.51463,3.50793 l 2.17816,2.23065 1.62003,-1.65699 c 0.89099,-0.91134 2.10928,-1.81228 2.70728,-2.00209 z m -46.26665,1.86112 c -0.45497,-0.68523 -1.46867,-1.72476 -2.25261,-2.31008 -1.77269,-1.32349 -6.2822,-1.9296 -6.90145,-0.92764 -0.33191,0.53704 0.0306,0.61728 1.5235,0.3372 2.4548,-0.46054 5.70888,0.82081 6.9691,2.74415 0.50532,0.77124 1.04701,1.40223 1.20372,1.40223 0.15678,0 -0.0873,-0.56063 -0.54226,-1.24586 z m 44.8123,0.6838 c 0.19098,-0.30913 0.22091,-0.56208 0.0663,-0.56208 -0.15465,0 -0.43734,0.25295 -0.6284,0.56208 -0.19098,0.30914 -0.22091,0.56206 -0.0663,0.56206 0.15465,0 0.43736,-0.25292 0.6284,-0.56206 z m 8.46323,-0.88906 c -0.5996,-0.43842 -1.48445,-0.79582 -1.96636,-0.79418 -0.50549,0.002 -0.16273,0.44484 0.81001,1.04736 1.90186,1.178 2.83437,0.97383 1.15635,-0.25318 z m 23.0125,-1.62582 c 0,-1.78634 -1.57102,-3.16477 -2.52249,-2.21327 -0.40692,0.4069 -0.30875,1.14239 0.32088,2.40455 1.0687,2.14225 2.20161,2.04383 2.20161,-0.1912 z m -26.28831,0.48909 c -0.18673,-0.18673 -0.67155,-0.2067 -1.0773,-0.0444 -0.44838,0.17951 -0.31518,0.3126 0.33958,0.33958 0.59252,0.0244 0.92449,-0.10835 0.73772,-0.29522 z m 5.21083,-0.81773 c 0,-0.29088 -0.25294,-0.52887 -0.56208,-0.52887 -0.30913,0 -0.56206,0.39432 -0.56206,0.87627 0,0.48195 0.25293,0.71994 0.56206,0.5289 0.30914,-0.19098 0.56208,-0.58539 0.56208,-0.8763 z m -31.8169,-0.85587 c 0.18758,-0.48901 0.34117,-1.28715 0.34117,-1.77368 0,-1.63333 2.68273,-4.42211 5.28712,-5.49609 2.54235,-1.04843 2.96692,-1.61648 2.15166,-2.87876 -0.48785,-0.75536 -7.43878,1.17412 -7.43878,2.0649 0,0.29794 -0.25292,0.54169 -0.56206,0.54169 -0.30913,0 -0.56208,-0.34019 -0.56208,-0.75599 0,-1.19442 -1.78073,-2.4406 -4.07498,-2.85172 -1.15925,-0.20776 -2.10773,-0.64865 -2.10773,-0.97984 0,-0.35017 0.52921,-0.46032 1.26464,-0.26325 0.69555,0.18631 2.40283,0.36233 3.79396,0.39097 1.3911,0.0287 2.21312,0.17972 1.8267,0.33554 -2.81924,1.13759 2.84983,1.25761 5.90171,0.12491 1.8059,-0.67023 1.58826,-1.70651 -0.28103,-1.33806 -1.41135,0.2782 -1.43578,0.25628 -0.28105,-0.2522 1.98241,-0.87296 1.48842,-1.08707 -1.12412,-0.48722 -1.31385,0.30166 -3.90638,0.39528 -5.76119,0.20797 -4.61325,-0.4657 -4.39726,-0.47664 -10.39822,0.5262 -2.9368,0.49077 -5.78202,0.77919 -6.32269,0.64092 -1.14853,-0.29369 -1.91023,0.62806 -1.14851,1.38981 0.28855,0.28853 3.71946,0.58266 7.62422,0.6536 7.56507,0.13744 9.35408,0.69891 7.65159,2.4014 -0.52354,0.52354 -0.76542,1.49824 -0.61916,2.49489 0.20882,1.42251 0.50702,1.65795 2.28849,1.80657 1.76612,0.14743 2.07292,0.38393 2.22625,1.7166 0.22045,1.91567 -1.38879,2.16861 -2.07062,0.32545 -0.24827,-0.67113 -0.60896,-0.96528 -0.80156,-0.65366 -0.45535,0.7368 1.13156,2.99802 2.10402,2.99802 0.4131,0 0.90461,-0.40008 1.09225,-0.88906 z m 0.34117,-6.38594 c 0,-0.8033 2.34983,-2.28014 3.62794,-2.28014 0.88111,0 0.67476,0.30905 -0.93834,1.40517 -2.25939,1.53531 -2.6896,1.67526 -2.6896,0.87497 z m 2.14287,-6.03649 c 0.40575,-0.1623 0.89053,-0.14233 1.0773,0.0444 0.18673,0.18673 -0.1453,0.31962 -0.7377,0.29522 -0.65479,-0.027 -0.78796,-0.16018 -0.3396,-0.3396 z m 27.28784,12.4684 c 0.17802,-0.46373 0.7258,-0.84311 1.21744,-0.84311 0.49166,0 0.73759,-0.25293 0.54655,-0.56206 -0.65056,-1.05264 -4.77757,-0.49808 -4.77757,0.64197 0,0.28694 0.56909,0.21847 1.26465,-0.1521 1.10236,-0.58738 1.1751,-0.56524 0.56694,0.1725 -0.38374,0.46548 -0.53128,1.01274 -0.32787,1.21616 0.60232,0.60232 1.16478,0.42602 1.50986,-0.47326 z m -77.33952,-1.6731 1.49106,-0.37424 -1.8758,-0.90848 c -2.36901,-1.14734 -3.63563,-3.98563 -3.26117,-7.30777 0.27474,-2.43743 1.67309,-4.63118 2.95206,-4.63118 0.37673,0 1.79175,1.01172 3.14452,2.24826 1.35276,1.23654 2.68498,2.24826 2.9605,2.24826 0.50747,0 -4.24104,-4.39984 -5.64128,-5.22704 -0.7055,-0.41677 -1.09841,-2.07982 -0.49138,-2.07982 0.14828,0 1.70901,1.45435 3.46846,3.23188 2.51584,2.54171 3.2474,3.02137 3.42561,2.24605 0.13575,-0.59076 -0.80258,-2.16235 -2.3416,-3.92167 -2.6382,-3.01587 -3.89548,-5.98875 -4.53571,-10.72493 -0.24031,-1.77774 -0.13468,-2.98328 0.30839,-3.51705 0.37072,-0.44668 1.23983,-2.37476 1.93137,-4.28463 1.16452,-3.21607 1.3059,-3.38177 1.91476,-2.24412 0.63964,1.19516 1.74198,1.6859 1.74198,0.77547 0,-0.24908 -0.61134,-1.28149 -1.35854,-2.29423 l -1.35852,-1.84138 -1.25608,2.71578 c -0.89497,1.93503 -1.32587,2.42444 -1.49877,1.70235 -0.18078,-0.75467 -0.42718,-0.86034 -0.96522,-0.41382 -0.57144,0.47426 -0.736,0.002 -0.78692,-2.25852 -0.16485,-7.31729 4.596,-11.51251 12.23207,-10.77876 2.25652,0.21681 2.92012,0.12045 2.61112,-0.37964 -0.27753,-0.44903 0.25201,-0.39195 1.60394,0.17292 1.11004,0.46379 2.01824,0.72387 2.01824,0.57795 0,-0.14595 0.64023,0.15423 1.42271,0.66689 2.12713,1.39374 1.34799,1.49238 -1.37946,0.17462 -1.32009,-0.63779 -2.52672,-1.03304 -2.68144,-0.87833 -0.15465,0.15465 0.98989,0.82814 2.54355,1.4965 1.55364,0.66836 3.26157,1.69782 3.79537,2.28766 0.95362,1.05374 0.98466,1.05238 1.77642,-0.078 1.19367,-1.70424 0.65568,-2.37629 -3.59218,-4.48719 -4.43438,-2.20363 -9.58959,-2.78901 -14.81249,-1.68202 -1.70026,0.36038 -4.10309,0.82671 -5.33965,1.03632 -2.21186,0.37493 -2.24262,0.41291 -1.90069,2.34832 0.30259,1.71273 0.35712,1.76726 0.42155,0.42155 0.0463,-0.96634 0.38999,-1.54569 0.91708,-1.54569 1.14163,0 1.07393,0.44025 -0.57746,3.75412 -1.23813,2.48461 -1.43557,3.67176 -1.53741,9.24394 -0.0765,4.1893 0.1434,7.13768 0.63814,8.55272 0.52902,1.51322 0.57771,2.33678 0.16272,2.75184 -0.41505,0.41505 -0.26499,1.23392 0.50141,2.73618 1.41471,2.7731 1.38395,5.00491 -0.10388,7.5264 -1.00522,1.70371 -1.15343,2.64547 -0.92307,5.86517 0.16039,2.24265 0.65778,4.38289 1.19749,5.15343 0.50768,0.72481 0.95241,1.95712 0.98827,2.73847 0.0393,0.85592 0.16336,1.05077 0.312,0.49015 0.13575,-0.51175 0.91778,-1.09886 1.73789,-1.30468 z m -2.30245,-20.34118 c -0.20606,-0.20606 -0.36702,-0.77519 -0.35761,-1.26464 0.0149,-0.73086 0.12363,-0.70658 0.61357,0.13574 0.60523,1.04076 0.42976,1.81453 -0.25596,1.12882 z m -0.917,-11.39174 c -0.66609,-1.24457 -0.79614,-8.27039 -0.16038,-8.65972 0.23185,-0.14191 0.46293,1.41135 0.51353,3.4518 0.0684,2.7552 0.33597,3.88832 1.03991,4.40307 0.52134,0.38122 0.78117,0.96286 0.5774,1.29258 -0.56202,0.90937 -1.32376,0.72086 -1.97056,-0.48773 z m 23.2523,-13.05132 c -0.24848,-0.40205 -0.15422,-0.49633 0.24787,-0.24787 0.64793,0.40044 0.86988,0.89677 0.40104,0.89677 -0.13639,0 -0.42834,-0.29201 -0.64891,-0.6489 z m -9.59513,-3.66027 c 0.20606,-0.20606 0.54332,-0.20606 0.74942,0 0.20606,0.20607 0.0374,0.37472 -0.37471,0.37472 -0.41219,0 -0.5808,-0.16868 -0.37471,-0.37472 z m 3.61831,48.81783 c 0.12236,-0.36711 -0.17802,-0.66747 -0.66747,-0.66747 -0.48945,0 -0.88993,0.40048 -0.88993,0.88995 0,0.99256 1.20998,0.8197 1.5574,-0.22248 z m 8.72243,-1.64421 c 0.95305,-5.06312 2.143,-7.82706 4.20132,-9.75854 1.18588,-1.11279 2.06963,-2.2828 1.96388,-2.60001 -0.23642,-0.70929 3.02328,-3.52671 4.08035,-3.52671 0.42173,0 0.94774,-0.29275 1.1689,-0.6506 0.27549,-0.44575 0.0213,-0.5508 -0.80993,-0.33365 -0.66661,0.17441 -1.21202,0.0877 -1.21202,-0.19246 0,-0.28021 0.25293,-0.50946 0.56206,-0.50946 0.30913,0 0.56206,-0.37939 0.56206,-0.84309 0,-0.46371 -0.26134,-0.84311 -0.58075,-0.84311 -1.07613,0 -6.16405,2.82372 -6.16405,3.42096 0,0.32543 -0.56909,0.51086 -1.26464,0.41208 -0.90773,-0.12895 -1.3151,-0.61853 -1.44341,-1.73481 -0.21551,-1.87484 -1.22641,-1.48071 -1.22641,0.47815 0,0.96114 0.43069,1.54967 1.40517,1.92015 1.68461,0.64049 1.7589,1.19185 0.33425,2.48116 -1.02816,0.93046 -1.08599,0.90053 -1.4484,-0.74956 -0.20755,-0.94529 -0.65082,-1.88763 -0.98487,-2.09407 -0.40887,-0.25269 -0.47485,0.0667 -0.20202,0.97718 1.16426,3.88413 1.04796,5.86302 -0.4492,7.64226 -1.19265,1.41739 -1.46535,2.32015 -1.46535,4.85101 0,2.50165 0.19225,3.15319 0.98361,3.33289 1.3841,0.31429 1.65746,0.0835 1.98937,-1.67974 z m -1.15796,-3.62517 c 0.12237,-0.36711 0.52302,-0.76763 0.89032,-0.89008 0.41072,-0.13681 0.53635,0.12003 0.32628,0.66747 -0.39205,1.02166 -1.55381,1.23424 -1.2166,0.22261 z m 4.36772,-8.60664 c 0.72604,-0.77286 1.55547,-1.40517 1.84317,-1.40517 0.67565,0 -1.95595,2.78776 -2.64373,2.80061 -0.28574,0.006 0.0746,-0.6226 0.80056,-1.39544 z m -7.30685,12.9607 c 0,-0.95254 -0.56969,-1.3578 -2.81319,-2.00122 l -1.65244,-0.47392 1.21438,1.64252 c 1.27019,1.71802 3.25125,2.22534 3.25125,0.83262 z m 28.1033,0.56206 c 0,-0.13638 -0.25292,-0.40418 -0.56206,-0.59524 -0.30913,-0.19098 -0.56205,-0.0795 -0.56205,0.24787 0,0.32738 0.25292,0.59524 0.56205,0.59524 0.30914,0 0.56206,-0.11153 0.56206,-0.24787 z m 8.50285,-0.74204 c -0.77992,-1.4573 -2.8311,-3.18299 -3.26619,-2.7479 -0.41089,0.41087 2.54353,3.73781 3.31927,3.73781 0.26219,0 0.23829,-0.44546 -0.0531,-0.98991 z m 40.95901,-0.1145 c 0,-1.95389 -4.02816,-3.17519 -4.69979,-1.42495 -0.63089,1.6441 0.24814,2.52931 2.51165,2.52931 1.80037,0 2.18814,-0.19565 2.18814,-1.10436 z m -58.02677,0.075 c 0.46156,-0.29299 0.58572,-1.06757 0.35559,-2.21816 l -0.35357,-1.76794 -6.16003,0.20904 c -8.51748,0.2891 -9.18117,1.17565 -1.16576,1.55721 2.23558,0.10643 4.36842,0.49722 4.73965,0.86847 0.52527,0.52527 0.24787,0.55248 -1.25062,0.12279 -2.4372,-0.699 -9.74465,-0.69016 -8.11577,0.0106 0.61827,0.26569 2.76817,0.50472 4.77757,0.53117 2.0094,0.0265 4.03284,0.29331 4.49654,0.59297 1.02551,0.66275 1.74162,0.68807 2.6764,0.0947 z m 52.7103,-2.3877 c 0.70849,-1.37007 0.69024,-1.57091 -0.17271,-1.90205 -1.34932,-0.51777 -2.87177,1.49806 -2.52024,3.33696 0.2268,1.18645 0.42164,1.32447 1.0885,0.77101 0.44675,-0.37076 1.16871,-1.36342 1.60439,-2.20592 z m -76.4642,1.73096 c -0.19098,-0.30913 -0.6003,-0.56208 -0.90943,-0.56208 -0.30914,0 -0.40575,0.25295 -0.21471,0.56208 0.19098,0.30913 0.60032,0.56206 0.90945,0.56206 0.30914,0 0.40575,-0.25293 0.21469,-0.56206 z m -11.82583,-0.52578 c 0.17866,-0.28918 -0.34232,-1.19305 -1.15787,-2.00861 -1.33709,-1.33708 -1.4466,-1.75596 -1.11425,-4.2615 0.30542,-2.30219 0.20649,-2.84086 -0.57642,-3.14131 -2.69549,-1.03436 -3.40532,6.80222 -0.80672,8.90645 1.37176,1.11077 3.13067,1.35378 3.65526,0.50497 z m 76.74451,-0.0363 c 0,-0.30914 -0.23801,-0.56206 -0.5289,-0.56206 -0.29088,0 -0.68521,0.25292 -0.87627,0.56206 -0.19098,0.30913 0.0469,0.56208 0.5289,0.56208 0.48195,0 0.87627,-0.25295 0.87627,-0.56208 z m -23.60679,-1.70598 c 0,-1.55445 -0.10409,-1.65032 -1.17077,-1.07938 -1.11668,0.59762 -1.12565,0.67644 -0.19395,1.70596 1.28312,1.41783 1.36468,1.3804 1.36468,-0.62658 z m 22.79678,0.3187 c 0.91659,-0.69328 0.94476,-0.8281 0.17632,-0.84309 -0.50313,-0.0106 -1.22968,0.3615 -1.6145,0.82522 -0.89682,1.08059 0.017,1.09196 1.43824,0.017 z m -59.89316,0.0423 c 0,-0.12151 -0.37941,-0.36647 -0.84311,-0.54443 -0.46371,-0.17802 -0.84309,-0.0786 -0.84309,0.22091 0,0.29943 0.37938,0.54443 0.84309,0.54443 0.4637,0 0.84311,-0.0994 0.84311,-0.22091 z m -14.34176,-1.04375 c 0.61621,-1.82917 0.48845,-2.85438 -0.4285,-3.43836 -1.47899,-0.94192 -2.31509,0.625 -1.22292,2.29187 0.74148,1.13164 0.73022,1.21829 -0.11599,0.89354 -0.63051,-0.24196 -0.80419,-0.14446 -0.53075,0.29796 0.53772,0.87005 1.99961,0.84141 2.29823,-0.045 z m 11.90613,0.32787 c -0.20606,-0.20606 -0.54334,-0.20606 -0.74943,0 -0.20606,0.20606 -0.0374,0.37471 0.37472,0.37471 0.41218,0 0.58079,-0.16867 0.37471,-0.37471 z m 84.20513,-0.71425 c 0.48006,-1.51253 -0.84521,-3.40756 -2.38303,-3.40756 -1.28336,0 -1.35108,0.66407 -0.38684,3.79394 0.34055,1.10546 2.38698,0.81999 2.76987,-0.38638 z m -81.7695,-0.26121 c 0,-0.43347 -0.79655,-1.06578 -1.77009,-1.40517 -2.2147,-0.77205 -2.16439,-0.77621 -2.16439,0.1793 0,0.43793 0.69555,1.05029 1.54569,1.36079 2.13692,0.78046 2.38879,0.76625 2.38879,-0.1349 z m 77.12931,0.47454 c 0.7011,-0.7011 -0.35011,-2.53154 -1.6397,-2.85521 -2.00895,-0.50421 -2.8788,0.60716 -1.5899,2.03136 0.98415,1.08748 2.56317,1.49027 3.2296,0.82385 z m -63.75214,-1.48505 c 1.26057,-1.26056 0.67964,-1.57378 -2.91881,-1.57378 -2.61743,0 -3.67809,0.22093 -3.90548,0.8135 -0.23912,0.62313 0.30576,0.86246 2.32867,1.02281 1.45243,0.11514 2.90638,0.25492 3.23098,0.31064 0.32458,0.0557 0.89367,-0.20224 1.26464,-0.57317 z m 5.73308,-0.44964 c 0,-0.30913 -0.50587,-0.56208 -1.12414,-0.56208 -0.61827,0 -1.12412,0.25295 -1.12412,0.56208 0,0.30914 0.50585,0.56206 1.12412,0.56206 0.61827,0 1.12414,-0.25292 1.12414,-0.56206 z m 35.97825,-1.406 c 1.5139,-0.20818 3.01711,-0.21504 3.3405,-0.0149 0.32338,0.1999 0.58797,0.0805 0.58797,-0.26501 0,-0.34563 0.25293,-0.47209 0.56206,-0.28103 0.30914,0.19098 0.56206,0.11026 0.56206,-0.17972 0,-0.28989 -0.76523,-0.84402 -1.70054,-1.23144 -1.46134,-0.60531 -1.85075,-0.56843 -2.76851,0.2621 -1.23834,1.1207 -2.74967,0.98188 -3.57468,-0.32834 -0.43436,-0.68981 -0.27612,-1.29695 0.64234,-2.46458 0.67027,-0.85211 1.21867,-2.11655 1.21867,-2.80985 0,-0.6933 0.37939,-1.57541 0.84309,-1.96026 0.4637,-0.38482 0.84311,-0.96898 0.84311,-1.2981 0,-0.32913 -0.75879,0.12852 -1.6862,1.01707 -0.92742,0.88853 -1.6862,2.15834 -1.6862,2.82181 0,1.56936 -0.5615,2.09386 -1.45114,1.35555 -0.51018,-0.42343 -1.31987,-0.2856 -2.86204,0.48717 -1.18282,0.59272 -2.84614,1.24483 -3.69628,1.44917 -0.85012,0.20436 -1.54567,0.64665 -1.54567,0.98298 0,0.33632 0.31616,0.48573 0.70258,0.33199 0.38642,-0.1538 1.7804,-0.71525 3.0977,-1.24782 2.62765,-1.06234 4.06866,-0.55259 4.06866,1.43929 0,0.56029 0.29273,1.73074 0.65051,2.60098 0.48236,1.17321 0.70858,1.34048 0.87502,0.64701 0.15423,-0.64293 1.08475,-1.05357 2.97699,-1.31382 z m 2.42962,-1.21699 c 0.20606,-0.20606 0.54332,-0.20606 0.74942,0 0.20607,0.20606 0.0374,0.37471 -0.37471,0.37471 -0.41219,0 -0.58079,-0.16867 -0.37471,-0.37471 z m -75.12954,1.6862 c -0.20606,-0.20606 -0.37472,-0.0374 -0.37472,0.37471 0,0.41219 0.16868,0.58082 0.37472,0.37471 0.20606,-0.20606 0.20606,-0.54332 0,-0.74942 z m 18.73554,-0.46838 c 0.38813,-0.46767 0.45006,-0.84311 0.13914,-0.84311 -0.30835,0 -1.35102,-0.15805 -2.31709,-0.35128 -1.35958,-0.27192 -1.75645,-0.1555 -1.75645,0.51522 0,1.55173 2.80802,2.03646 3.93446,0.67917 z m 70.24802,-2.44149 c 1.29396,-0.45108 1.66583,-1.08566 2.40521,-4.10464 0.48101,-1.96408 1.04622,-4.64469 1.25598,-5.95689 0.20967,-1.31223 0.6123,-2.52857 0.89454,-2.703 0.28224,-0.17441 0.51315,-0.91963 0.51315,-1.65597 0,-0.73636 0.23653,-1.485 0.52563,-1.66368 0.28908,-0.17866 1.29638,-1.74793 2.23844,-3.48728 1.8761,-3.46384 1.87017,-5.80935 -0.0149,-5.80935 -1.16184,0 -1.50461,1.90911 -0.45881,2.55546 0.64905,0.40114 -1.23333,2.50314 -2.24161,2.50314 -0.30805,0 -0.71905,0.9485 -0.91334,2.10776 -0.19438,1.15925 -0.69539,3.24593 -1.11356,4.63704 -0.4182,1.39113 -0.87368,3.03516 -1.01221,3.65345 -0.19098,0.85243 -0.26761,0.76187 -0.31706,-0.37472 -0.0359,-0.82437 -0.38136,-1.61014 -0.76778,-1.74619 -0.50593,-0.17802 -0.37395,-0.7025 0.47152,-1.87354 0.64576,-0.89441 1.31359,-2.67391 1.48407,-3.95443 0.17058,-1.28053 0.86248,-3.07552 1.53775,-3.98888 1.41876,-1.91897 1.39353,-5.04075 -0.048,-5.94282 -0.71323,-0.44632 -1.33579,-0.14488 -2.87123,1.39062 -1.07827,1.0783 -2.05957,2.1956 -2.18066,2.48292 -0.32279,0.76597 -7.75989,4.40638 -8.16806,3.99821 -0.19098,-0.19098 0.3038,-0.64398 1.09958,-1.00656 0.79578,-0.36259 1.59814,-1.05344 1.78302,-1.53522 0.28855,-0.75196 0.19077,-0.74442 -0.69077,0.0533 -0.5648,0.51114 -2.49574,1.57894 -4.29099,2.37287 l -3.26409,1.44354 2.1557,2.37319 c 1.18561,1.30524 2.41013,2.32613 2.72111,2.26865 0.31099,-0.0576 1.19775,-0.26174 1.97061,-0.45387 1.36969,-0.34051 1.36617,-0.32679 -0.14042,0.54403 -0.85014,0.49136 -1.54569,1.02132 -1.54569,1.17771 0,0.15635 0.69555,0.21159 1.54569,0.12258 1.2352,-0.12938 1.58175,0.0922 1.72529,1.10285 0.11535,0.81273 0.56735,1.26464 1.26464,1.26464 1.16348,0 1.39506,0.57012 0.5822,1.43328 -0.7315,0.77675 -1.45216,4.61705 -0.73309,3.90637 0.45452,-0.44919 2.92216,-7.61888 2.92216,-8.4902 0,-0.78862 -1.04991,-0.004 -1.30621,0.97584 -0.29762,1.13806 -0.36189,1.149 -1.29131,0.21957 -0.9294,-0.92942 -0.91009,-1.03033 0.38816,-2.02745 2.95673,-2.27095 3.44758,0.19799 1.38423,6.9628 -1.31954,4.32606 -1.38807,5.0037 -0.74807,7.39659 0.6045,2.26017 0.77653,2.47288 1.21153,1.498 0.27885,-0.62492 1.19576,-1.37632 2.03759,-1.66978 z m -0.76482,-17.25635 c -0.29274,-0.76283 -0.52162,-0.81199 -1.19161,-0.25594 -1.02938,0.8543 -2.52982,0.3425 -2.52982,-0.86291 0,-0.6154 0.32458,-0.79561 1.02984,-0.57177 0.64593,0.205 1.4297,-0.11493 2.10255,-0.85849 l 1.07273,-1.18534 0.38933,1.87998 c 0.41435,2.00069 -0.264,3.44159 -0.87302,1.85447 z m -87.18829,18.85473 c 0.19098,-0.30913 0.0795,-0.56206 -0.24787,-0.56206 -0.32738,0 -0.59524,0.25293 -0.59524,0.56206 0,0.30914 0.11153,0.56208 0.24787,0.56208 0.13638,0 0.40418,-0.25294 0.59524,-0.56208 z m 18.82923,-1.90169 c 0,-0.89214 -2.84778,-1.62022 -3.57636,-0.91436 -0.82537,0.7996 0.18906,1.69193 1.92332,1.69193 1.03275,0 1.65304,-0.29178 1.65304,-0.77757 z m 52.83423,0.32292 c 0,-0.25003 0.35902,-0.94561 0.79782,-1.54567 0.78155,-1.06885 0.82731,-1.06332 2.24826,0.27157 1.77604,1.66851 1.84417,0.88297 0.21433,-2.47171 -1.2501,-2.57308 -2.69833,-3.39392 -2.69833,-1.52941 0,0.55822 -0.62392,1.86061 -1.38649,2.89423 -0.76258,1.0336 -1.25352,2.09446 -1.09096,2.35745 0.37609,0.60854 1.91537,0.62747 1.91537,0.0236 z m -52.45738,-2.81607 c -0.11195,-0.21053 -0.38705,-0.88857 -0.61136,-1.50684 -0.40273,-1.11004 -0.41792,-1.11046 -1.21081,-0.0331 -1.05022,1.42702 -1.01283,1.87025 0.18056,2.14125 1.12856,0.25628 1.93962,-0.0408 1.64153,-0.60132 z m 14.16387,0.12597 c 0.1145,-0.0965 0.0463,-0.8194 -0.15126,-1.60664 -0.42699,-1.70122 -1.74912,-1.83376 -3.65744,-0.36664 -2.03774,1.56662 -1.25167,2.89788 1.46352,2.4786 1.17543,-0.18142 2.23074,-0.4089 2.34513,-0.50532 z m 29.96204,-0.37539 c 2.5128,-1.20194 7.79161,-5.60804 7.74921,-6.46813 -0.0106,-0.22547 -0.65185,-1.16875 -1.42382,-2.09615 -1.25071,-1.50253 -1.46416,-1.58209 -1.95943,-0.73033 -0.3057,0.52571 -0.99286,1.39291 -1.52703,1.92708 -0.53416,0.53417 -0.97123,1.16911 -0.97123,1.41101 0,0.24188 -1.07494,1.23032 -2.38876,2.19651 -2.23521,1.6438 -2.38878,1.68133 -2.38878,0.58398 0,-0.73462 0.36747,-1.1802 0.98361,-1.19269 0.54099,-0.0106 1.61593,-0.40781 2.38879,-0.8819 0.77283,-0.47411 0.94185,-0.71807 0.37556,-0.54215 -0.56627,0.17589 -1.89415,0.31984 -2.95084,0.31984 -1.61181,0 -1.92447,0.20372 -1.94119,1.26466 -0.0106,0.69556 -0.38138,1.89698 -0.82318,2.66982 -0.44178,0.77283 -0.81222,1.72131 -0.82316,2.10773 -0.0312,1.10045 2.80073,0.81762 5.70025,-0.56928 z m -20.20374,-0.53398 c -0.92927,-0.92925 -1.83539,-1.22018 -3.58336,-1.15048 -1.28678,0.0514 -2.57579,0.32951 -2.86449,0.61818 -0.32513,0.32514 0.41123,0.41937 1.93489,0.24764 1.82433,-0.20564 2.65333,-0.044 3.20906,0.6256 0.41213,0.49656 1.15395,0.90284 1.64849,0.90284 0.72037,0 0.65186,-0.24731 -0.34459,-1.24378 z m 1.49544,-0.8423 c -0.58494,-1.14734 -1.06353,-2.49698 -1.06353,-2.99922 0,-0.6835 -0.59497,-0.93645 -2.36585,-1.00585 -3.16818,-0.12406 -4.37895,0.32725 -4.37895,1.63249 0,0.90474 0.40271,1.08627 2.41,1.08627 1.85734,0 2.85627,0.38144 4.35602,1.66336 1.07031,0.91485 1.98197,1.67362 2.02592,1.6862 0.044,0.0127 -0.39865,-0.91589 -0.98361,-2.06325 z m 4.48687,1.7348 c 2.02952,-0.40592 2.22963,-1.242 0.6259,-2.61517 -1.47266,-1.26093 -1.50389,-1.25233 -2.50845,0.69028 -1.30025,2.51442 -1.26178,2.55374 1.88255,1.92489 z m -43.96002,-1.09081 c 0.43099,-1.12316 -2.45644,-8.6347 -3.82926,-9.96165 -1.2578,-1.21578 -1.34176,-2.82211 -0.19714,-3.77205 0.84662,-0.70263 1.20351,-5.07292 0.47386,-5.80256 -0.20309,-0.20309 -0.97646,1.08265 -1.7186,2.85718 -2.11837,5.06527 -1.2,10.39055 2.76159,16.01342 1.23034,1.74628 2.01503,1.9544 2.50957,0.66566 z m 30.84835,-2.98047 c -0.15827,-0.50439 -0.79109,-2.88992 -1.40611,-5.30118 -1.28348,-5.03211 -1.48283,-5.45205 -2.58817,-5.45205 -0.93429,0 -1.01686,0.84919 -0.30608,3.148 0.27712,0.89627 0.94434,3.14714 1.48271,5.00197 0.53837,1.85481 1.07853,3.55105 1.20034,3.76939 0.43859,0.78612 1.89951,-0.26726 1.61731,-1.16613 z m 12.79308,-1.50045 c 1.01497,-0.44552 1.26261,-1.08218 1.40611,-3.61508 0.0958,-1.69088 0.44292,-3.39815 0.77141,-3.79394 0.72744,-0.87652 -0.16209,-2.14331 -1.8071,-2.57349 -0.97465,-0.25488 -1.10572,0.001 -1.10572,2.1601 0,1.34709 -0.37938,3.90584 -0.84309,5.68612 -0.97218,3.7325 -1.07502,5.60163 -0.21031,3.82249 0.30621,-0.63 1.1111,-1.38879 1.78868,-1.6862 z m 9.38081,0.58339 c 0.25467,-1.49535 0.53553,-1.70655 2.48135,-1.86594 2.80842,-0.23009 6.07745,-2.62329 5.82446,-4.26403 -0.11004,-0.71376 -0.50797,-1.09136 -1.01119,-0.95955 -2.76118,0.72326 -3.48566,0.6854 -4.50289,-0.23518 -0.60743,-0.54972 -1.10444,-1.573 -1.10444,-2.27397 0,-1.30743 -1.1992,-1.91386 -5.48013,-2.77127 -2.05047,-0.4107 -2.32871,0.25503 -1.16975,2.79868 0.56892,1.2486 0.49006,1.59742 -0.58807,2.60185 l -1.24503,1.15994 1.1949,1.7806 c 0.65721,0.97933 1.59721,2.74102 2.08893,3.9149 1.12748,2.69169 3.06216,2.75446 3.51186,0.11407 z m 36.73867,1.12414 c -0.38499,-1.00329 0.53614,-1.08856 2.19111,-0.20288 0.93771,0.50184 0.79377,0.13192 -0.66572,-1.7108 -2.0671,-2.6099 -2.81559,-2.69447 -3.57895,-0.40439 -0.41329,1.23992 -0.30892,1.70258 0.52694,2.33578 1.36513,1.03414 1.92776,1.02759 1.52662,-0.017 z m -87.88562,-0.64657 c 0,-0.20096 -0.65982,-1.71418 -1.46629,-3.36252 -1.16939,-2.39014 -1.48237,-3.89851 -1.54569,-7.44927 -0.0746,-4.18216 0.0246,-4.58105 1.63676,-6.5746 3.19538,-3.95166 9.0938,-5.74803 13.21696,-4.02527 1.87191,0.78214 1.96207,0.94431 1.75163,3.15091 -0.13107,1.37499 0.017,2.32635 0.36137,2.32635 0.81044,0 1.32436,-1.87307 0.86506,-3.1527 -0.41215,-1.1482 2.89357,2.72824 3.85915,4.52541 0.3226,0.60045 0.61485,2.68511 0.64945,4.63263 0.0739,4.159 0.90599,4.85621 0.90599,0.75909 0,-3.36267 -1.366,-7.69935 -2.97504,-9.44501 -2.27383,-2.46688 -6.28944,-4.62644 -8.59652,-4.62315 -4.80447,0.006 -9.72921,2.66582 -11.58389,6.25437 -1.71566,3.31957 -1.53599,9.5805 0.39868,13.8915 0.85347,1.90178 1.77015,3.45778 2.03707,3.45778 0.26693,0 0.48531,-0.16443 0.48531,-0.36552 z m 39.73518,-6.94134 c 0.28301,-4.35705 0.20649,-4.87068 -0.86892,-5.83537 -1.16427,-1.04437 -1.18653,-1.03857 -1.75558,0.45814 -0.31699,0.83376 -0.57635,1.72992 -0.57635,1.99145 0,0.26155 -0.7588,1.114 -1.6862,1.89436 -1.88755,1.58827 -2.07855,2.05348 -0.84311,2.05348 0.58882,0 0.84311,0.59331 0.84311,1.96725 0,1.69988 0.18269,1.96723 1.34422,1.96723 0.99415,0 1.44906,0.40254 1.74674,1.54567 l 0.40252,1.5457 0.54163,-1.40517 c 0.29787,-0.77284 0.68125,-3.55507 0.85194,-6.18274 z m 34.98829,3.85875 c -0.41588,-1.00406 -0.89734,-1.46867 -1.20405,-1.16196 -0.30672,0.30672 -0.1058,1.36269 0.5027,2.64084 1.1962,2.5131 1.81468,1.20894 0.70135,-1.47888 z m -54.64471,0.22314 c 3.72162,-1.65194 4.33724,-2.76038 2.74357,-4.93985 -0.74197,-1.01469 -0.83008,-0.9636 -1.62682,0.94325 -0.90729,2.1714 -2.85068,3.84917 -4.45858,3.84917 -0.54948,0 -0.99908,0.37941 -0.99908,0.84311 0,1.14285 0.31124,1.09297 4.34091,-0.69568 z m 69.81647,-0.79498 c -0.58878,-1.42142 -0.59994,-1.85733 -0.0523,-2.0399 0.53311,-0.17781 0.54301,-0.41724 0.0423,-1.02064 -0.95488,-1.15055 -1.47281,-0.97238 -1.87909,0.64642 -0.25962,1.03434 -0.002,1.87656 0.92266,3.01729 1.59587,1.96863 1.94214,1.75252 0.96639,-0.60317 z m -88.32139,0.38865 c 0.60563,-1.3292 0.57632,-1.35849 -0.75289,-0.75286 -1.41298,0.6438 -1.67247,1.09703 -1.0083,1.76118 0.66416,0.66418 1.11739,0.40469 1.76119,-1.00832 z m 31.86912,0.2589 c 0.19097,-0.30914 -0.15848,-0.56206 -0.77677,-0.56206 -0.61827,0 -1.28045,0.25292 -1.47151,0.56206 -0.19098,0.30913 0.15847,0.56208 0.77676,0.56208 0.61827,0 1.28045,-0.25295 1.47152,-0.56208 z m -1.5457,-0.91632 c 1.82273,-0.48847 1.55577,-1.33194 -0.42153,-1.33194 -1.12414,0 -1.6862,0.28103 -1.6862,0.84311 0,0.92978 0.24785,0.98727 2.10773,0.48883 z m -31.3352,-1.57981 c 0,-0.59324 -1.07866,-0.84247 -1.3995,-0.32337 -0.19416,0.31419 0.0412,0.57124 0.52323,0.57124 0.48195,0 0.87627,-0.11153 0.87627,-0.24787 z m 2.81034,-0.46003 c 0,-0.38935 -0.50587,-1.0238 -1.12414,-1.40993 -0.90907,-0.56773 -1.12412,-0.56133 -1.12412,0.0334 0,0.81381 1.09637,2.0844 1.7986,2.0844 0.24731,0 0.44966,-0.31854 0.44966,-0.70789 z m 27.54125,-1.30511 c 0,-0.77902 -2.13907,-2.21801 -2.60479,-1.75229 -0.14318,0.14318 -0.10133,0.89348 0.0928,1.6674 0.26179,1.04305 0.63246,1.33413 1.43253,1.12491 0.59363,-0.15529 1.07934,-0.62324 1.07934,-1.04002 z m -32.37318,-3.0062 c -0.86166,-0.81233 -0.9085,-0.77078 -0.58904,0.52267 0.19098,0.77286 0.36651,1.78458 0.39033,2.24828 0.0238,0.4637 0.28889,0.22849 0.58904,-0.5227 0.42108,-1.05382 0.33192,-1.56736 -0.39033,-2.24825 z m -3.77717,1.54142 c -0.17951,-0.44838 -0.31262,-0.31519 -0.3396,0.33958 -0.0244,0.59252 0.10834,0.92449 0.29522,0.73772 0.18673,-0.18673 0.2067,-0.67155 0.0444,-1.0773 z m 39.75383,-0.49979 c 1.75488,-2.08558 1.92132,-3.89136 0.35865,-3.89136 -1.77724,0 -6.73833,1.17627 -7.04348,1.67001 -0.15465,0.25019 0.61717,0.88116 1.71507,1.40216 1.09793,0.52099 2.13448,1.30753 2.30345,1.74789 0.4582,1.19405 1.05504,0.98616 2.66631,-0.9287 z m -28.89647,0.55477 c 0,-0.92059 -2.38889,-2.67069 -3.21352,-2.35424 -0.90593,0.34765 -0.92749,1.41122 -0.0465,2.29223 0.84238,0.84241 3.25997,0.88838 3.25997,0.062 z m 50.36266,-0.79255 c -0.58653,-0.44399 -1.28622,-0.67138 -1.55485,-0.50536 -0.81088,0.50115 0.0752,1.34953 1.38979,1.33045 1.191,-0.017 1.19641,-0.0444 0.16506,-0.82509 z m -47.45607,-2.33553 c 1.38274,-1.25134 1.29564,-2.75296 -0.22131,-3.81547 -1.57756,-1.10496 -2.37689,-1.10307 -3.48822,0.009 -2.71067,2.71064 0.86552,6.38098 3.70953,3.80718 z m 35.87599,-0.13383 c 0,-1.11378 -1.0346,-1.74634 -2.85629,-1.74634 -1.55634,0 -1.32474,0.95447 0.46751,1.92678 2.04595,1.10995 2.38878,1.08403 2.38878,-0.18036 z m -45.63593,-1.48018 c -0.17314,-0.17314 -0.48733,0.13893 -0.6984,0.69321 -0.30504,0.80105 -0.24048,0.86561 0.31463,0.31464 0.38413,-0.38126 0.55684,-0.8348 0.38377,-1.00785 z m 4.04303,-0.22019 c 0,-0.59299 0.14467,-1.45539 0.32167,-1.91646 0.47381,-1.23471 -1.90684,-1.84384 -2.98651,-0.76415 -1.31752,1.31752 -0.49243,3.75878 1.27038,3.75878 0.99993,0 1.39446,-0.30506 1.39446,-1.07817 z m 67.58329,-0.60149 c 3.16458,-1.39984 4.36307,-2.6778 3.20092,-3.41318 -1.35754,-0.85903 -1.93861,-0.59949 -2.60387,1.16301 -0.46181,1.22345 -1.11734,1.78666 -2.37149,2.03748 -0.9533,0.19056 -1.73328,0.56797 -1.73328,0.83846 0,0.73573 0.72035,0.60722 3.50772,-0.62577 z m -58.06767,-4.08152 c 0.0217,-1.15928 -0.188,-2.10776 -0.46597,-2.10776 -0.5347,0 -1.06897,4.55077 -0.67355,5.73703 0.3628,1.08843 1.09478,-1.24291 1.13952,-3.62927 z m 57.3472,1.13886 c 0.77341,-1.38412 0.76719,-1.61926 -0.065,-2.45145 -0.78243,-0.78244 -1.22419,-0.82026 -2.94551,-0.25216 -2.10057,0.69323 -2.45115,1.54495 -1.42513,3.46208 0.86392,1.61427 3.34705,1.18966 4.43565,-0.75847 z m -6.72173,-0.71731 c 0,-1.08199 -0.15316,-1.96725 -0.3404,-1.96725 -0.18716,0 -1.07518,0.61827 -1.9732,1.3739 -1.48734,1.25152 -1.54463,1.42524 -0.64321,1.95015 2.01739,1.17474 2.95681,0.74365 2.95681,-1.3568 z m -52.82657,0.42153 c 0.004,-0.54098 0.16762,-1.5814 0.36327,-2.31205 0.3253,-1.21525 0.25282,-1.27342 -0.85076,-0.68281 -1.63443,0.87473 -1.62551,3.97848 0.0106,3.97848 0.2576,0 0.47184,-0.44263 0.47607,-0.98362 z m 68.87877,0.027 c 0.90087,-0.90087 0.88542,-0.98848 -0.26478,-1.50172 -0.92785,-0.41401 -1.45216,-0.31427 -2.1812,0.41495 -0.84141,0.84165 -0.85579,1.0257 -0.11662,1.49312 1.16582,0.73719 1.46677,0.68948 2.5626,-0.40635 z m -71.69677,-1.04288 c 0,-1.12839 -1.07199,-1.55372 -1.99185,-0.7903 -1.32154,1.09678 -0.99341,2.10538 0.58668,1.80332 0.77286,-0.14765 1.40517,-0.60359 1.40517,-1.01302 z m 51.74706,-0.26845 c 1.27076,-0.68009 1.44077,-1.66642 0.28721,-1.66642 -0.44,0 -1.57805,-0.65471 -2.52901,-1.45491 l -1.72905,-1.45487 -0.48849,1.31437 c -0.61844,1.66406 -0.32545,2.42388 1.2233,3.17231 1.60486,0.77553 1.93706,0.78471 3.23604,0.0894 z m -62.39305,-3.49882 c -0.55012,-1.57805 -0.46474,-1.92606 0.77715,-3.16797 1.2927,-1.29271 1.50531,-1.33622 2.89512,-0.59242 0.82499,0.44152 2.11262,0.72247 2.86143,0.62434 0.74881,-0.0981 1.72516,0.12343 2.16966,0.49232 0.4445,0.36892 2.10964,0.77239 3.70031,0.89665 2.54732,0.19905 2.80692,0.12321 2.1775,-0.63516 -1.67358,-2.01654 -6.40922,-3.80519 -10.81377,-4.08435 -4.06377,-0.25756 -4.47895,-0.17675 -6.32386,1.23037 -2.36401,1.80315 -3.65955,4.12102 -3.65955,6.54745 0,1.52112 0.12385,1.68019 0.84311,1.08322 0.46371,-0.38482 0.84309,-1.01715 0.84309,-1.40514 0,-0.38802 0.37937,-1.02033 0.84305,-1.40513 0.70851,-0.58802 0.96968,-0.39719 1.63664,1.19581 1.04843,2.50418 1.56955,2.95584 2.17082,1.88143 0.30073,-0.53733 0.25299,-1.58939 -0.12066,-2.66142 z m 23.2407,3.04032 c 0.49323,-0.79807 -2.65554,-5.14238 -3.72723,-5.14238 -1.2968,0 -1.27055,0.17887 0.46003,3.13179 1.37345,2.34362 2.59629,3.09615 3.2672,2.01059 z m 55.94919,-0.33083 c 0.36934,-0.44502 0.58999,-1.51996 0.49038,-2.38878 -0.15189,-1.32474 -0.4753,-1.60807 -2.00381,-1.75552 -1.49675,-0.14445 -1.93987,0.0814 -2.47796,1.26238 -0.54747,1.20155 -0.48756,1.62353 0.36409,2.56461 1.1977,1.32343 2.68436,1.45348 3.6273,0.31731 z m 14.31492,-0.0941 c 1.134,-0.43515 1.13646,-1.57943 0.006,-2.71005 -1.18906,-1.18908 -1.76471,-1.11273 -2.54052,0.3369 -0.54114,1.01112 -0.47798,1.34813 0.36868,1.96723 1.1895,0.86979 1.03343,0.84054 2.16602,0.40592 z m -65.01322,-1.43585 c 3.09979,-0.91406 3.09152,-1.8445 -0.0127,-1.41904 -2.95085,0.40445 -4.05846,-0.18014 -3.60763,-1.90405 0.19395,-0.74193 -0.0675,-2.00751 -0.62199,-3.00837 -0.52628,-0.95024 -1.00284,-1.81579 -1.05896,-1.92345 -0.26026,-0.49907 -2.9549,1.98008 -2.96193,2.72505 -0.004,0.4637 0.63441,1.4526 1.4195,2.19755 0.7851,0.74494 1.80729,2.08895 2.27155,2.9867 0.46423,0.89773 1.14538,1.50123 1.51368,1.34112 0.36827,-0.16017 1.74455,-0.60809 3.05838,-0.99551 z m 57.38416,-1.00184 c 0.21201,-1.50223 -1.13057,-2.84182 -2.84825,-2.84182 -1.27784,0 -1.79756,1.22976 -1.32143,3.1268 0.3069,1.22284 0.63146,1.41193 2.16836,1.26339 1.42824,-0.13808 1.84812,-0.46289 2.00132,-1.54837 z m -81.83404,0.31022 c 1.29743,-0.98489 1.24553,-1.86902 -0.13553,-2.30734 -1.40848,-0.44702 -2.25329,0.0565 -2.25329,1.34306 0,1.80681 0.83491,2.14384 2.38878,0.96428 z m 44.26274,0.22036 c 0,-0.30914 -0.25294,-0.56206 -0.56208,-0.56206 -0.30913,0 -0.56206,0.25292 -0.56206,0.56206 0,0.30913 0.25293,0.56208 0.56206,0.56208 0.30914,0 0.56208,-0.25295 0.56208,-0.56208 z m 21.80817,-0.11238 c 1.76999,-1.76998 -0.31948,-5.98212 -2.60727,-5.25599 -0.68459,0.21727 -1.64648,1.00819 -2.1375,1.7576 -0.81761,1.24781 -0.81526,1.48083 0.0281,2.7677 1.00315,1.53101 3.52573,1.92179 4.71683,0.73069 z m -17.31165,-0.36254 c 0,-0.71145 -1.79743,-2.15067 -3.23187,-2.58782 -1.58627,-0.48339 -1.65226,0.42689 -0.14042,1.93864 1.11951,1.11949 3.3724,1.55317 3.3724,0.64918 z m 10.41841,-0.78971 c -0.21558,-0.69555 -0.52952,-1.84431 -0.69764,-2.5528 -0.35993,-1.51683 -1.28453,-1.3859 -1.89655,0.26856 -0.51014,1.37906 0.77955,3.54889 2.10937,3.54889 0.65068,0 0.7757,-0.32611 0.48482,-1.26465 z m -29.52866,0.18631 c 0,-0.76109 -3.60576,-2.85618 -4.91561,-2.85618 -1.11851,0 -2.80163,1.46318 -2.28146,1.98335 0.14849,0.14849 1.09312,-0.017 2.09917,-0.36768 1.60668,-0.56009 1.97481,-0.49202 3.02638,0.55953 1.26919,1.26919 2.07152,1.53295 2.07152,0.68098 z m 56.45852,0.001 c 0.49743,-0.80488 -0.64837,-3.2914 -1.80094,-3.90825 -1.89721,-1.01535 -2.56871,0.0661 -1.4707,2.36867 0.93405,1.95875 2.54426,2.71649 3.27164,1.53958 z m -43.87443,-2.43597 c -1.74751,-2.81741 -3.58288,-4.91809 -4.29691,-4.91809 -0.28046,0 0.006,0.83514 0.63704,1.85587 1.01954,1.64964 1.06135,2.02097 0.37629,3.34142 -0.75984,1.46459 -0.74165,1.48862 1.28763,1.70307 1.13211,0.1196 2.37769,0.26006 2.76798,0.31202 0.42189,0.0561 0.10877,-0.87412 -0.77203,-2.29429 z m -28.81178,0 c 0.61105,-1.14674 0.58668,-1.19273 -0.26125,-0.49325 -0.51432,0.42427 -0.93511,0.99336 -0.93511,1.26464 0,0.85856 0.49945,0.53651 1.19636,-0.77139 z m 18.22678,0.0149 c -0.48123,-0.68705 -0.883,-1.76202 -0.89284,-2.38878 -0.0106,-0.62677 -0.38922,-1.63054 -0.84309,-2.23063 -0.80825,-1.06859 -0.82522,-1.06623 -0.82522,0.11408 0,0.66282 -0.30616,1.87705 -0.68034,2.6983 -0.58802,1.29056 -0.53532,1.59923 0.38845,2.27471 0.58783,0.42984 1.66713,0.78152 2.39841,0.78152 1.26173,0 1.28493,-0.0637 0.45463,-1.2492 z m 6.31948,0.57472 c 1.04609,-1.04607 0.79823,-2.97612 -0.5338,-4.15649 l -1.20829,-1.07072 0.39084,1.6052 c 0.26146,1.07386 0.099,2.05061 -0.49087,2.95085 -0.81892,1.24981 -0.80874,1.34564 0.14297,1.34564 0.56356,0 1.3282,-0.3035 1.69915,-0.67448 z m 16.66152,-0.57472 c 0.48123,-0.68705 0.87496,-1.56341 0.87496,-1.94745 0,-0.95676 -1.96851,-1.93403 -3.05549,-1.51691 -1.19724,0.45943 -1.73334,2.84101 -0.87292,3.87776 0.98022,1.18109 2.03682,1.03804 3.05345,-0.4134 z m -5.15143,0.0565 c -0.34682,-0.3468 -0.50196,-0.96566 -0.3448,-1.37524 0.23019,-0.59983 0.017,-0.6174 -1.1008,-0.0903 l -1.38658,0.65436 1.19741,0.66577 c 1.56031,0.86756 2.43467,0.94535 1.63477,0.14552 z m 20.45061,-0.24838 c 0.52029,-1.35586 -0.75931,-3.61759 -2.0467,-3.61759 -1.30801,0 -1.42916,0.83124 -0.4336,2.97493 0.78129,1.68232 1.96378,1.98871 2.4803,0.64266 z m 7.79715,-0.27714 c 0.55435,-0.89696 -0.17759,-3.1729 -1.13903,-3.54184 -1.13009,-0.43366 -2.53415,0.14509 -2.53415,1.0445 0,0.39755 0.37941,0.86841 0.84311,1.04635 0.4637,0.17802 0.84309,0.71087 0.84309,1.18426 0,0.97645 1.42975,1.16836 1.98698,0.26673 z m 11.70587,-0.24908 c 0.21898,-0.57062 -0.0285,-0.84311 -0.76532,-0.84311 -0.73695,0 -0.98429,0.27249 -0.76531,0.84311 0.17802,0.4637 0.52233,0.84309 0.76531,0.84309 0.24299,0 0.58738,-0.37939 0.76532,-0.84309 z m -57.15932,-0.65509 c -0.20606,-0.20606 -0.37471,-0.0374 -0.37471,0.37472 0,0.41216 0.16867,0.58079 0.37471,0.37471 0.20606,-0.20606 0.20606,-0.54334 0,-0.74943 z m 1.31149,-0.74942 c -0.35923,-0.67123 -0.7796,-1.09396 -0.93419,-0.93939 -0.15465,0.15465 0.0128,0.83024 0.37213,1.50145 0.35922,0.67123 0.77961,1.09395 0.93418,0.93938 0.15465,-0.15465 -0.0127,-0.83021 -0.37212,-1.50144 z m 10.9603,1.12414 c -0.19098,-0.30914 -0.6003,-0.56208 -0.90945,-0.56208 -0.30914,0 -0.40575,0.25294 -0.21469,0.56208 0.19098,0.30913 0.6003,0.56206 0.90945,0.56206 0.30914,0 0.40575,-0.25293 0.21469,-0.56206 z m 17.81107,-1.6862 c 0.25084,0 0.45609,-0.25295 0.45609,-0.56208 0,-0.78272 -1.88117,-0.70435 -2.69792,0.11238 -0.37097,0.37097 -0.67447,1.1396 -0.67447,1.7081 0,0.96919 0.0767,0.96218 1.2301,-0.11238 0.67656,-0.63032 1.43535,-1.14602 1.6862,-1.14602 z m -38.1005,1.21319 c 0.16081,-0.26017 -0.58309,-1.32149 -1.65304,-2.35853 -2.19587,-2.12832 -2.75534,-1.16013 -0.78042,1.35057 1.20223,1.52838 1.92642,1.82836 2.43346,1.00796 z m 4.25062,-2.79205 c 0.0106,-0.40466 -0.24409,-0.57259 -0.56677,-0.37316 -0.32269,0.19948 -0.94863,0.0622 -1.391,-0.30493 -0.44238,-0.36715 -1.71584,-0.7104 -2.82991,-0.76279 l -2.0256,-0.0952 2.6427,2.49689 2.64271,2.49692 0.75397,-1.36094 c 0.4147,-0.74854 0.76294,-1.69204 0.7739,-2.09671 z m 53.12283,0.0952 c -1.89383,-1.38482 -2.33778,-0.84623 -1.59334,1.93307 l 0.34618,1.29245 1.14638,-1.23048 c 1.11229,-1.1939 1.11528,-1.25322 0.1007,-1.99504 z m -65.71499,0.88573 c 0.9681,-1.01049 1.25774,-1.57166 0.70093,-1.35799 -0.80581,0.30924 -3.09052,3.08009 -2.53966,3.08009 0.10388,0 0.93127,-0.77494 1.83873,-1.7221 z m 19.35686,0.84583 c 0,-0.48195 -0.25704,-0.71739 -0.57123,-0.52323 -0.31417,0.19417 -0.42572,0.58851 -0.24785,0.87627 0.48182,0.77962 0.81908,0.63425 0.81908,-0.35304 z m 51.8567,-1.99627 c -0.41807,-1.59878 -0.70968,-1.28022 -0.70003,0.76481 0.006,1.24195 0.16378,1.58189 0.49316,1.06189 0.26652,-0.42064 0.35961,-1.24266 0.20692,-1.8267 z m -35.04902,-0.67142 1.35085,-0.89811 -1.45552,-0.66318 c -2.01526,-0.91823 -3.21341,-0.3136 -3.21341,1.62153 0,1.97127 0.52682,2.59192 1.3496,1.58999 0.3397,-0.41367 1.22551,-1.15628 1.96848,-1.65023 z m 7.41161,0.95394 c 0.86996,-1.04826 -0.29091,-2.46858 -2.01767,-2.46858 -1.90494,0 -2.67707,1.22507 -1.67438,2.6566 0.88878,1.26894 2.55323,1.18415 3.69205,-0.188 z m 15.16423,-1.50196 c 0.68882,-0.27319 0.68372,-0.40254 -0.0357,-0.90127 -1.22819,-0.85163 -3.0527,0.54978 -3.2857,2.52378 l -0.19098,1.6185 1.35404,-1.46102 c 0.74471,-0.80356 1.71594,-1.60456 2.15825,-1.77999 z m -9.06165,0.24128 c -0.91954,-0.30652 -1.85506,0.8264 -1.35308,1.63862 0.31952,0.51698 0.63021,0.42274 1.20701,-0.36609 0.5402,-0.73874 0.58469,-1.12631 0.14594,-1.27253 z m 19.19489,-1.04972 c -0.51994,-0.89331 -0.58462,-0.90017 -0.59988,-0.0635 -0.008,0.51571 0.16507,1.40096 0.38787,1.96723 0.3698,0.94028 0.42183,0.9458 0.59987,0.0635 0.10728,-0.53128 -0.0673,-1.41652 -0.38786,-1.96723 z m -1.74109,0.12279 c 0,-0.46373 -0.37941,-0.84311 -0.84312,-0.84311 -0.87769,0 -1.11511,0.66475 -0.46837,1.31148 0.64671,0.64674 1.31149,0.40932 1.31149,-0.46837 z"
       id="path17465" />
  </g>
</svg>
