<?xml version="1.0" encoding="UTF-8" standalone="no"?>
<!-- Created with Inkscape (http://www.inkscape.org/) -->

<svg
   width="36.175735mm"
   height="36.386555mm"
   viewBox="0 0 36.175736 36.386555"
   version="1.1"
   id="svg5"
   inkscape:version="1.1 (c4e8f9ed74, 2021-05-24)"
   sodipodi:docname="ornatei3.svg"
   xmlns:inkscape="http://www.inkscape.org/namespaces/inkscape"
   xmlns:sodipodi="http://sodipodi.sourceforge.net/DTD/sodipodi-0.dtd"
   xmlns="http://www.w3.org/2000/svg"
   xmlns:svg="http://www.w3.org/2000/svg">
  <sodipodi:namedview
     id="namedview7"
     pagecolor="#ffffff"
     bordercolor="#666666"
     borderopacity="1.0"
     inkscape:pageshadow="2"
     inkscape:pageopacity="0.0"
     inkscape:pagecheckerboard="0"
     inkscape:document-units="mm"
     showgrid="false"
     inkscape:zoom="1.3380612"
     inkscape:cx="-249.24122"
     inkscape:cy="82.582174"
     inkscape:window-width="2506"
     inkscape:window-height="1403"
     inkscape:window-x="1974"
     inkscape:window-y="0"
     inkscape:window-maximized="1"
     inkscape:current-layer="layer1" />
  <defs
     id="defs2" />
  <g
     inkscape:label="Layer 1"
     inkscape:groupmode="layer"
     id="layer1"
     transform="translate(-245.16513,-83.293831)">
    <path
       style="fill:#000000;stroke-width:0.264583"
       d="m 266.01967,119.45641 c -0.50933,-0.1437 -1.56692,-0.44637 -2.35021,-0.67261 -1.36221,-0.39346 -1.47475,-0.38678 -2.58677,0.15348 -1.3938,0.67716 -1.89271,0.70234 -2.70084,0.13631 -0.59949,-0.4199 -1.26494,-0.40827 -3.27625,0.0572 -0.89717,0.20765 -0.97509,-0.30104 -0.19754,-1.28953 0.37771,-0.48019 0.42341,-0.65821 0.15898,-0.6194 -0.59882,0.0879 -1.18015,0.68699 -1.26847,1.30725 -0.0696,0.48896 -0.2421,0.57098 -1.14036,0.54228 -1.44269,-0.0461 -1.98396,-0.20047 -2.26607,-0.64626 -0.19986,-0.31582 -0.24004,-0.30729 -0.24342,0.0517 -0.008,0.80686 -4.04106,1.12475 -4.34137,0.34216 -0.29487,-0.76842 -0.1827,-2.01463 0.17013,-1.89016 0.1819,0.0642 0.31322,0.31805 0.29182,0.56418 -0.0712,0.81827 0.49786,0.28409 1.53687,-1.4428 0.56504,-0.93912 1.50156,-2.10483 2.08115,-2.59046 0.5796,-0.48564 0.98664,-0.99165 0.90455,-1.12448 -0.28491,-0.461 -1.46815,-0.23814 -2.04829,0.38578 -1.04316,1.12188 -1.77391,2.05894 -1.77391,2.27474 0,0.22822 -1.0998,0.58428 -1.27221,0.41187 -0.0576,-0.0576 0.0815,-0.37049 0.30904,-0.69536 0.36113,-0.51559 0.36464,-0.62706 0.0276,-0.877 -0.43094,-0.31957 -0.70587,-1.94156 -0.36482,-2.15234 0.12042,-0.0744 0.15539,-0.30097 0.0777,-0.50343 -0.08,-0.20839 0.10806,-0.50155 0.43336,-0.67564 0.42875,-0.22946 0.52954,-0.45291 0.39705,-0.88019 -0.0977,-0.31496 -0.21866,-0.87031 -0.26888,-1.23411 -0.0502,-0.36381 -0.28479,-1.18544 -0.52127,-1.82586 -0.27874,-0.75487 -0.43113,-2.01111 -0.43327,-3.57187 -0.002,-1.32412 -0.0675,-3.036004 -0.14589,-3.804193 -0.0965,-0.945292 -0.031,-1.531134 0.20259,-1.81263 0.36997,-0.445783 0.44369,-0.735187 0.58097,-2.280766 0.0695,-0.782173 -0.005,-0.992188 -0.34954,-0.992188 -0.42381,0 -0.47728,-1.432847 -0.27649,-7.408334 0.007,-0.218281 0.005,-0.958919 -0.005,-1.645863 -0.0256,-1.701872 0.13753,-1.890597 1.4454,-1.671891 0.5996,0.100267 1.88511,0.165824 2.85668,0.145684 1.16822,-0.02422 2.04514,0.10747 2.58921,0.388817 0.77705,0.401829 0.86086,0.395422 1.51032,-0.115447 0.86112,-0.677359 0.9863,-0.674374 1.96171,0.04678 0.90951,0.672431 2.319,0.677551 3.44774,0.01252 0.91029,-0.536325 2.33692,-0.268985 3.14291,0.588956 0.55646,0.592318 0.76578,0.640494 2.29128,0.52734 1.36739,-0.101427 1.67887,-0.05131 1.67887,0.27012 0,0.28499 -0.31246,0.399818 -1.12448,0.413247 -0.61846,0.01023 -1.3626,0.117241 -1.65364,0.237807 -0.30773,0.127477 0.31553,0.160086 1.48936,0.07792 1.47954,-0.103559 2.35699,-0.02596 3.28602,0.290589 0.69711,0.23753 1.31453,0.38482 1.37204,0.32731 0.0575,-0.05751 -0.52823,-0.314937 -1.30164,-0.57206 -0.77341,-0.257124 -1.2501,-0.519727 -1.0593,-0.583564 0.26671,-0.08923 0.2416,-0.232429 -0.10862,-0.619415 -0.58488,-0.646283 -0.28631,-0.950608 0.51297,-0.522851 0.48654,0.260393 0.8667,0.263591 1.78554,0.01502 0.64206,-0.173695 2.358,-0.31938 3.81321,-0.323745 2.12412,-0.0064 2.9285,0.106481 4.07938,0.572316 1.20636,0.488296 1.55229,0.531067 2.18281,0.269895 0.4121,-0.170696 0.74927,-0.414974 0.74927,-0.54284 0,-0.127866 0.1921,-0.232484 0.4269,-0.232484 0.4382,0 0.42875,0.866801 -0.0209,1.918229 -0.14157,0.331035 -0.0768,0.463021 0.22717,0.463021 0.52364,0 0.52933,0.124247 0.0399,0.871189 -0.21189,0.323394 -0.36949,0.825221 -0.35021,1.115171 0.0193,0.28995 -0.0497,0.967394 -0.15328,1.505431 -0.12626,0.655838 -0.0566,1.293407 0.21122,1.934485 0.37816,0.905079 0.35852,1.07922 -0.36727,3.255084 -0.42175,1.264367 -0.84591,2.501291 -0.9426,2.74872 -0.14203,0.363497 -0.0352,0.439696 0.55645,0.396875 0.58095,-0.04205 0.76723,0.08367 0.90163,0.608462 0.18685,0.729617 -0.20491,1.587503 -0.72494,1.587503 -0.50894,0 -0.39858,0.44767 0.26208,1.06317 0.56335,0.52483 0.59531,0.75625 0.59531,4.30978 0,2.913 -0.0999,3.99862 -0.44528,4.84069 -0.40264,0.98154 -0.40592,1.12488 -0.0342,1.49657 0.37169,0.37168 0.33086,0.48311 -0.42626,1.16344 -0.79829,0.71732 -0.82229,0.79555 -0.51468,1.67843 0.17745,0.50932 0.47393,1.0451 0.65885,1.19062 0.18573,0.14617 0.3722,0.9751 0.41662,1.85209 l 0.0804,1.5875 -2.64583,0.0366 c -3.1435,0.0435 -3.57188,-0.0424 -3.57188,-0.71587 0,-0.62307 -0.0126,-0.62316 -1.98437,-0.0143 -1.9572,0.60441 -5.24149,0.86562 -6.48229,0.51556 z m 2.66956,-0.90893 c 0.25288,-0.3047 0.11407,-0.36828 -0.80398,-0.36828 -0.63356,0 -1.2799,-0.17027 -1.50651,-0.39688 -0.21828,-0.21828 -0.61349,-0.39687 -0.87825,-0.39687 -0.57361,0 -2.14572,-0.68932 -3.51211,-1.53995 -0.54238,-0.33765 -1.11247,-0.53584 -1.26686,-0.44042 -0.1544,0.0954 -0.81794,-0.26671 -1.47454,-0.80475 -1.06944,-0.87632 -1.73561,-1.0994 -1.33176,-0.44596 0.36099,0.5841 3.1832,2.54049 5.09608,3.53268 2.79909,1.45184 4.92032,1.77329 5.67793,0.86043 z m 7.59333,0.12803 c 0.045,-0.23635 -0.12374,-0.50861 -0.375,-0.60503 -0.54273,-0.20827 -1.3037,0.45047 -1.03069,0.89221 0.26942,0.43594 1.3084,0.22368 1.40569,-0.28718 z m 1.64336,0.16515 c 0,-0.21828 -0.1786,-0.39688 -0.39688,-0.39688 -0.21828,0 -0.39687,0.1786 -0.39687,0.39688 0,0.21828 0.17859,0.39687 0.39687,0.39687 0.21828,0 0.39688,-0.17859 0.39688,-0.39687 z m 1.8631,-0.0133 c 0.27963,-0.33693 0.27044,-0.48011 -0.0514,-0.80199 -0.34606,-0.34605 -0.44689,-0.33099 -0.86309,0.1289 -0.49021,0.54167 -0.37759,1.08324 0.22526,1.08324 0.19187,0 0.50204,-0.18457 0.68926,-0.41015 z m -18.64857,-0.27291 c 0.50623,-0.41247 0.50601,-0.41565 -0.0156,-0.22176 -1.16753,0.43402 -2.42456,0.42683 -2.86779,-0.0164 -0.24172,-0.24172 -0.4395,-0.31784 -0.4395,-0.16916 0,0.81202 2.45662,1.11315 3.32287,0.40732 z m 11.36151,-0.15118 c 0.1746,-0.17259 -0.005,-0.1995 -0.52917,-0.0791 -0.75751,0.1741 -0.76959,0.16369 -0.26458,-0.22805 0.7118,-0.55214 0.21743,-1.07312 -0.78062,-0.82263 -0.5315,0.1334 -0.62994,0.2421 -0.369,0.40747 0.27484,0.17419 0.25044,0.22647 -0.10715,0.2296 -0.25466,0.002 -0.46302,0.0538 -0.46302,0.1147 0,0.0609 -0.0786,0.31535 -0.17456,0.56554 -0.15606,0.4067 -0.0369,0.43472 1.12448,0.26446 0.71447,-0.10474 1.4181,-0.30813 1.56362,-0.45198 z m -23.47894,0.0852 c 0.24823,-0.15758 0.1656,-0.36954 -0.323,-0.82855 l -0.65656,-0.61681 -0.52809,0.63417 c -0.29046,0.34879 -0.53206,0.72347 -0.5369,0.83261 -0.0117,0.26435 1.62134,0.24724 2.04455,-0.0214 z m 3.1039,-0.58059 c -0.12853,-0.40496 -0.26579,-0.49268 -0.46274,-0.29573 -0.19695,0.19695 -0.17797,0.40294 0.064,0.69448 0.44101,0.53138 0.63302,0.33937 0.39875,-0.39875 z m 1.14566,0.46972 c -0.0386,-0.1819 0.25379,-0.67554 0.64986,-1.09697 0.39608,-0.42143 0.72014,-0.86967 0.72014,-0.99608 0,-0.12641 -0.38597,-0.46456 -0.85772,-0.75145 -0.80263,-0.48811 -0.86941,-0.4921 -1.03973,-0.0622 -0.30188,0.76183 -0.24064,2.58105 0.0983,2.91998 0.40474,0.40474 0.51725,0.40127 0.42916,-0.0132 z m 2.42834,-0.0505 c 0,-0.27927 -0.50777,-0.39659 -0.65879,-0.15223 -0.0914,0.1479 0.0194,0.2689 0.2463,0.2689 0.22687,0 0.41249,-0.0525 0.41249,-0.11667 z m 5.00136,-0.31094 c 0.36775,-0.11491 -1.8361,-1.68905 -2.36472,-1.68905 -0.44435,0 -0.27617,1.03755 0.25414,1.56786 0.47766,0.47766 0.8934,0.50153 2.11058,0.12119 z m -3.61404,-0.52691 c -0.0373,-0.27537 -0.0927,-0.71198 -0.12294,-0.97022 -0.0331,-0.28241 -0.20233,-0.41302 -0.4246,-0.32773 -0.24744,0.095 -0.31884,0.01 -0.21609,-0.25807 0.16775,-0.43713 -0.23123,-0.55626 -0.48544,-0.14494 -0.0866,0.14021 0.0959,0.50841 0.40572,0.81821 0.34475,0.34475 0.51055,0.76495 0.42735,1.08309 -0.0855,0.32674 -0.0208,0.47906 0.17397,0.41009 0.17046,-0.0604 0.27937,-0.33504 0.24203,-0.61043 z m 16.86893,0.0129 c 0,-0.24634 -0.27796,-0.38126 -0.78545,-0.38126 -0.5757,0 -0.74632,0.10196 -0.63893,0.38181 0.14846,0.38687 0.86256,0.66767 1.22594,0.48206 0.10914,-0.0557 0.19844,-0.27292 0.19844,-0.48261 z m -24.14122,0.1062 c 0.232,-0.23199 0.40491,-0.22444 0.71288,0.0312 0.58707,0.48722 1.36458,-0.54359 1.73948,-2.30616 0.56176,-2.64111 -0.0157,-3.02877 -2.08044,-1.39668 -1.50341,1.18838 -1.85363,2.00727 -1.36399,3.18935 0.35703,0.86196 0.52889,0.94551 0.99207,0.48233 z m 12.76413,0.19988 c 0,-0.0585 -0.35718,-0.23093 -0.79375,-0.38311 -0.9188,-0.3203 -1.08443,-0.13944 -0.19843,0.21669 0.67015,0.26937 0.99218,0.32338 0.99218,0.16642 z m 6.28694,-0.0754 c -0.25296,-0.0662 -0.72921,-0.0686 -1.05833,-0.005 -0.32912,0.0633 -0.12215,0.11747 0.45993,0.12041 0.58209,0.003 0.85137,-0.0489 0.5984,-0.11507 z m 8.48116,-0.69851 c 0.0718,-0.60655 -0.0141,-0.7072 -0.60362,-0.7072 -0.88027,0 -1.19688,0.74187 -0.52598,1.23245 0.66964,0.48965 1.02925,0.32244 1.1296,-0.52525 z m 1.32474,0.26306 c 0.0506,-0.26108 -0.0843,-0.4411 -0.33073,-0.4411 -0.24543,0 -0.41627,0.22622 -0.41627,0.55122 0,0.6448 0.61827,0.55366 0.747,-0.11012 z m -3.31737,-0.43651 c 0.11728,-0.4485 0.0631,-0.48494 -0.37343,-0.25131 -0.28083,0.1503 -0.44072,0.38636 -0.35529,0.52458 0.25376,0.4106 0.58208,0.28748 0.72872,-0.27327 z m -14.72246,0.0559 c -0.0694,-0.11226 -0.69257,-0.61088 -1.38488,-1.10806 -0.6923,-0.49718 -1.16646,-0.75465 -1.05368,-0.57217 0.19813,0.32058 2.23669,1.88433 2.45649,1.88433 0.0595,0 0.0514,-0.0919 -0.0179,-0.2041 z m 6.70949,-0.87181 c 0,-0.72899 -0.0738,-0.80283 -0.7276,-0.7276 -0.96376,0.11089 -1.01093,1.03938 -0.0661,1.30218 0.36381,0.1012 0.69123,0.19587 0.72761,0.21037 0.0364,0.0145 0.0661,-0.33872 0.0661,-0.78495 z m 2.38125,0.31523 c 0,-0.28204 -1.54619,-0.619 -1.88357,-0.41049 -0.13295,0.0822 -0.17323,0.26023 -0.0895,0.3957 0.19298,0.31224 1.97307,0.32559 1.97307,0.0148 z m 2.47693,-0.16537 c -0.16102,-0.41962 -0.62484,-0.55055 -0.62484,-0.17638 0,0.2798 0.28921,0.57326 0.56496,0.57326 0.1167,0 0.14365,-0.17859 0.0599,-0.39688 z m 1.34449,-0.19843 c -0.24669,-0.80256 -0.3404,-0.87487 -0.68596,-0.52931 -0.38664,0.38664 -0.094,1.12462 0.44594,1.12462 0.31651,0 0.37694,-0.14988 0.24002,-0.59531 z m -18.23721,-0.45043 c -0.1007,-0.31727 0.0693,-0.61559 0.5184,-0.90987 0.60128,-0.39397 0.66823,-0.3959 0.66823,-0.0192 0,0.23022 0.11906,0.34501 0.26458,0.25507 0.43692,-0.27004 0.29832,-0.92604 -0.19566,-0.92604 -0.25313,0 -0.955,0.20463 -1.5597,0.45474 l -1.09946,0.45474 0.56752,0.70149 c 0.6133,0.7581 1.07823,0.75205 0.83609,-0.0109 z m 16.2585,-0.6403 c 0.005,-0.12696 -0.16922,-0.0826 -0.3875,0.0985 -0.21828,0.18116 -0.39265,0.58269 -0.3875,0.89229 0.009,0.53024 0.0313,0.52452 0.3875,-0.0985 0.20797,-0.3638 0.38235,-0.76533 0.3875,-0.89229 z m 7.26167,0.99105 c 0.0908,-0.23673 0.0314,-0.59154 -0.13199,-0.78847 -0.24388,-0.29385 -0.38264,-0.2525 -0.77387,0.23065 -0.26219,0.32379 -0.42115,0.6786 -0.35325,0.78847 0.22559,0.365 1.09141,0.20639 1.25911,-0.23065 z m -13.86688,0.0552 c 0,-0.0609 0.0723,-0.29898 0.1606,-0.52916 0.12114,-0.31568 -0.009,-0.41852 -0.52916,-0.41852 -0.51338,0 -0.68977,0.13532 -0.68977,0.52917 0,0.35277 0.17639,0.52916 0.52917,0.52916 0.29104,0 0.52916,-0.0498 0.52916,-0.11065 z m 10.18646,-0.15393 c 0.19341,-0.31294 -0.0655,-0.31294 -0.79375,0 -0.51018,0.21923 -0.50836,0.22806 0.0505,0.24599 0.31884,0.0102 0.65328,-0.10047 0.74322,-0.24599 z m -12.03854,-0.52917 c 0,-0.14552 -0.32742,-0.26276 -0.7276,-0.26053 -0.56699,0.003 -0.64,0.0607 -0.33073,0.26053 0.51766,0.33455 1.05833,0.33455 1.05833,0 z m 14.13341,-0.0836 c 0.59304,-0.43364 0.45283,-1.33227 -0.22834,-1.46345 -0.69924,-0.13467 -1.26514,0.67587 -0.92093,1.31905 0.31271,0.58429 0.51323,0.60948 1.14927,0.1444 z m -6.51341,-0.23387 c 0.38179,-0.38179 0.42428,-0.83805 0.0569,-0.611 -0.16252,0.10044 -0.19758,-0.15401 -0.0932,-0.67609 0.15967,-0.79832 0.14029,-0.82263 -0.41777,-0.52396 -0.45132,0.24154 -0.67213,0.24105 -0.96516,-0.002 -0.54301,-0.45065 -0.46998,-0.95124 0.20807,-1.42617 0.32342,-0.22653 0.53178,-0.42155 0.46302,-0.43337 -0.0688,-0.0118 -0.44676,-0.0453 -0.84002,-0.0743 -0.39325,-0.0291 -1.01832,-0.3378 -1.38906,-0.68608 l -0.67406,-0.63329 0.0119,1.03831 c 0.0194,1.69139 0.51893,2.55102 1.52842,2.63043 1.11426,0.0876 2.019,0.85518 1.60132,1.35846 -0.36654,0.44165 0.0733,0.4755 0.50958,0.0392 z m 3.86773,0.1569 c 0.51491,-0.19758 0.54622,-0.99154 0.0552,-1.39907 -0.79162,-0.65698 -1.78887,0.428 -1.06173,1.15514 0.46216,0.46215 0.44728,0.45855 1.00655,0.24393 z m -5.25589,-0.69401 c -0.24788,-0.13873 -0.52761,-0.17531 -0.62163,-0.0813 -0.23281,0.23281 0.52062,0.67448 0.82728,0.48496 0.13478,-0.0833 0.0422,-0.26495 -0.20565,-0.40367 z m 3.51687,-0.0577 c 0.0585,-0.30163 -0.0369,-0.42885 -0.26459,-0.35302 -0.1958,0.0652 -0.39713,0.33074 -0.44741,0.5901 -0.0585,0.30163 0.0369,0.42885 0.26458,0.35303 0.1958,-0.0652 0.39714,-0.33075 0.44742,-0.59011 z m -19.44261,-0.0138 c -0.16645,-0.43374 0.30534,-0.55368 0.55961,-0.14227 0.0982,0.15881 0.41328,0.138 0.83756,-0.0553 l 0.68021,-0.30993 -0.8881,-0.32143 c -1.25463,-0.45409 -1.82266,-0.44214 -1.67353,0.0352 0.0682,0.21828 0.17978,0.57547 0.24797,0.79375 0.0682,0.21828 0.18352,0.39688 0.25628,0.39688 0.0728,0 0.0638,-0.1786 -0.02,-0.39688 z m 6.78348,0.31434 c 0,-0.0454 -0.38695,-0.35173 -0.85989,-0.68076 l -0.8599,-0.59823 0.74236,0.68077 c 0.68477,0.62795 0.97743,0.80707 0.97743,0.59822 z m 2.20875,-0.87545 c 0.87648,-0.87648 0.71197,-1.1452 -0.59387,-0.97005 -0.72203,0.0969 -1.27609,-0.007 -1.84944,-0.34528 -0.63406,-0.37454 -0.88974,-0.41238 -1.13426,-0.16786 -0.17363,0.17363 -0.2641,0.35214 -0.20104,0.3967 0.0631,0.0446 0.56528,0.46326 1.11605,0.93045 1.21502,1.03066 1.75622,1.06237 2.66256,0.15604 z m 4.935,0.54797 c 0,-0.08 -0.20836,-0.52647 -0.46302,-0.99219 -0.38958,-0.71246 -0.484,-1.80191 -0.59531,-6.86917 l -0.13229,-6.02243 -0.85533,0.59847 -0.85532,0.59846 -0.005,4.92146 c -0.005,4.89727 -0.19034,6.23569 -0.99497,7.16763 -0.35447,0.41055 -0.28051,0.45569 0.89736,0.54763 2.38005,0.18577 3.00345,0.19618 3.00345,0.0501 z m 5.82084,-2.28557 c 0,-0.7394 -0.11068,-1.00858 -0.41471,-1.00858 -0.29931,0 -0.36621,-0.15278 -0.24043,-0.54907 0.15101,-0.47581 0.0775,-0.53759 -0.5508,-0.46302 -1.08534,0.1288 -1.41253,0.83865 -0.84458,1.83235 0.25466,0.44557 0.46302,1.16123 0.46302,1.59035 v 0.78023 l 0.79375,-0.58684 c 0.64049,-0.47354 0.79375,-0.78158 0.79375,-1.59542 z m 3.02322,1.27281 c 0.58442,-0.3032 0.62832,-0.39288 0.26129,-0.53373 -0.4467,-0.17141 -1.16785,0.23984 -1.16785,0.66599 0,0.30782 0.0811,0.29599 0.90656,-0.13226 z m -28.47614,-0.21764 c 0.47897,-0.47897 0.38394,-0.73876 -0.27781,-0.75943 -0.54698,-0.0171 -0.55377,-0.0349 -0.0837,-0.21894 0.31892,-0.12489 0.40265,-0.26769 0.22231,-0.37914 -0.44161,-0.27293 -1.11585,0.0832 -0.95434,0.50405 0.0814,0.21221 -0.0682,0.45393 -0.34744,0.56124 -0.43522,0.16725 -0.41595,0.20924 0.17099,0.37273 0.95069,0.26481 0.92292,0.26657 1.27,-0.0805 z m 31.18917,-0.47625 c 0.27501,0 0.34952,0.14661 0.2312,0.45496 -0.096,0.25022 -0.079,0.3587 0.0378,0.24107 0.26223,-0.26403 0.28103,-1.57041 0.0254,-1.76294 -0.10288,-0.0775 -0.0188,-0.61326 0.18682,-1.19063 0.45554,-1.27906 0.49802,-2.13549 0.0544,-1.09756 -0.29101,0.68093 -0.3188,0.59084 -0.3188,-1.03363 0,-1.71064 -0.0285,-1.78918 -0.73633,-2.02767 -0.40498,-0.13646 -0.92883,-0.17423 -1.16411,-0.084 -0.37538,0.14405 -0.3581,0.23833 0.14102,0.76962 0.31284,0.333 0.5688,0.93224 0.5688,1.33163 0,0.4185 0.11251,0.65663 0.26555,0.56204 0.29094,-0.17981 0.0795,-1.39207 -0.33443,-1.91763 -0.18406,-0.23369 -0.14285,-0.33073 0.14047,-0.33073 0.81584,0 0.97934,2.17612 0.32543,4.33154 -0.22385,0.73785 -0.31265,1.58619 -0.20771,1.98438 0.13575,0.51512 0.20863,0.57544 0.28098,0.23252 0.0537,-0.25466 0.28028,-0.46302 0.50346,-0.46302 z m -0.57688,-0.79375 c 0.0899,-0.14552 0.21603,-0.26458 0.2802,-0.26458 0.0642,0 0.11668,0.11906 0.11668,0.26458 0,0.14552 -0.12609,0.26458 -0.2802,0.26458 -0.15411,0 -0.20662,-0.11906 -0.11668,-0.26458 z m -23.05536,0.92604 c -0.0858,-0.22359 -0.47968,-0.39687 -0.90212,-0.39687 -0.41241,0 -0.82341,-0.11907 -0.91335,-0.26459 -0.20906,-0.33825 -0.66146,-0.34403 -0.66146,-0.008 0,0.35504 1.3309,1.04336 2.04222,1.05619 0.41524,0.007 0.54244,-0.10553 0.43471,-0.38628 z m 0.71951,-0.35682 c -0.15731,-0.29394 -0.28126,-0.69109 -0.27543,-0.88256 0.006,-0.19146 0.18822,-0.0207 0.40533,0.37949 0.2171,0.40018 0.49725,0.7276 0.62255,0.7276 0.37051,0 0.56901,-0.80503 0.31182,-1.26461 -0.16101,-0.2877 -0.0755,-0.72866 0.26416,-1.3624 0.27622,-0.51537 0.48791,-1.29598 0.47044,-1.7347 -0.0283,-0.71156 -0.061,-0.67628 -0.30218,0.32681 -0.14872,0.61847 -0.35717,1.12448 -0.46323,1.12448 -0.21584,0 0.12612,-2.09547 0.53699,-3.29059 0.33966,-0.988 -0.0791,-1.50419 -0.57548,-0.70935 -0.19247,0.3082 -0.60483,0.56036 -0.91635,0.56036 -0.79829,0 -1.20575,-1.80621 -1.1788,-5.22552 0.0144,-1.834657 -0.0743,-2.711984 -0.27434,-2.711984 -0.32723,0 -0.183,6.478254 0.17083,7.672924 0.15895,0.53666 0.13084,0.60069 -0.14895,0.33937 -0.18966,-0.17715 -0.43696,-1.12965 -0.54955,-2.11667 -0.17009,-1.4911 -0.18469,-1.34715 -0.0863,0.85125 0.116,2.5924 0.56561,5.06587 1.10815,6.09641 0.15004,0.285 0.40914,0.86099 0.57576,1.27997 0.16663,0.41899 0.36768,0.69708 0.44678,0.61798 0.0791,-0.0791 0.0151,-0.38432 -0.14219,-0.67826 z m -0.65459,-2.04607 c -0.0883,-0.23018 -0.1606,-1.12315 -0.1606,-1.98437 0,-1.38947 0.0596,-1.56586 0.52917,-1.56586 0.56503,0 0.72448,0.64181 0.23465,0.94454 -0.18255,0.11282 -0.24972,0.72228 -0.17667,1.60311 0.11385,1.37299 -0.0955,1.86517 -0.42655,1.00258 z m 15.13413,1.86672 c -0.0815,-0.0815 -0.2294,0.0654 -0.32876,0.32632 -0.14359,0.37709 -0.1132,0.40748 0.14811,0.14812 0.18082,-0.17948 0.26212,-0.39297 0.18065,-0.47444 z m 3.88756,0.40388 c -0.0904,-0.14626 0.1097,-0.26992 0.44741,-0.27652 0.55004,-0.0107 0.53183,-0.0461 -0.18283,-0.35517 -0.85434,-0.36944 -1.17544,-0.11991 -0.65407,0.50829 0.36442,0.43911 0.63822,0.52585 0.38949,0.1234 z m -13.09687,-0.23243 c -0.38751,-0.10527 -0.85306,-0.56007 -1.12407,-1.09811 -0.38421,-0.76276 -0.46268,-0.81752 -0.46302,-0.32311 -5.3e-4,0.77634 0.89796,1.66074 1.65323,1.62728 0.56401,-0.025 0.56053,-0.0358 -0.0661,-0.20606 z m 15.80885,-0.36288 c -0.0606,-0.1819 -0.26899,-0.33073 -0.46302,-0.33073 -0.19403,0 -0.40239,0.14883 -0.46302,0.33073 -0.0656,0.19674 0.122,0.33073 0.46302,0.33073 0.34102,0 0.5286,-0.13399 0.46302,-0.33073 z m -15.41198,-0.19844 c 0.0899,-0.14552 -0.0816,-0.26458 -0.38126,-0.26458 -0.29963,0 -0.54478,0.11906 -0.54478,0.26458 0,0.14552 0.17157,0.26458 0.38126,0.26458 0.20969,0 0.45484,-0.11906 0.54478,-0.26458 z m 1.19063,-0.13229 c -0.18116,-0.21828 -0.45662,-0.39688 -0.61214,-0.39688 -0.15551,0 -0.0516,0.17481 0.23084,0.38846 0.6637,0.502 0.79331,0.50486 0.3813,0.008 z m -12.73102,-0.16113 c 0.67705,-0.23602 0.78195,-0.36541 0.53625,-0.66146 -0.16799,-0.20242 -0.632,-0.36804 -1.03112,-0.36804 -0.39911,0 -1.02839,-0.23812 -1.39839,-0.52916 -0.87222,-0.68609 -0.90435,-0.67722 -1.04617,0.28909 -0.0867,0.59091 -0.003,0.85351 0.30069,0.94513 0.23144,0.0698 0.59939,0.23034 0.81767,0.35681 0.54252,0.31431 0.84185,0.30899 1.82107,-0.0324 z m 3.59401,-0.25012 c 0.0948,0.15342 0.41025,0.27896 0.70096,0.27896 0.49273,0 0.50075,-0.0397 0.11828,-0.58575 -0.22565,-0.32216 -0.48716,-1.16541 -0.58115,-1.87389 l -0.17088,-1.28816 -0.54804,0.54804 c -0.42905,0.42905 -0.47847,0.61762 -0.2276,0.86848 0.49449,0.49449 0.37949,1.4873 -0.20873,1.80211 -0.29104,0.15576 -0.52917,0.40082 -0.52917,0.54458 0,0.14375 0.28663,0.0736 0.63696,-0.15598 0.42273,-0.27699 0.69494,-0.32353 0.80937,-0.13839 z m 21.83701,0.27896 c 0,-0.14552 -0.0525,-0.26459 -0.11668,-0.26459 -0.0642,0 -0.19026,0.11907 -0.2802,0.26459 -0.0899,0.14552 -0.0374,0.26458 0.11668,0.26458 0.15411,0 0.2802,-0.11906 0.2802,-0.26458 z m -16.43807,-0.23804 c 0.19964,-0.12646 0.31566,-0.3719 0.25782,-0.54541 -0.0679,-0.20382 -0.28117,-0.12101 -0.60242,0.23398 -0.50524,0.55828 -0.31562,0.72966 0.3446,0.31143 z m 15.90637,-0.1558 c 0.18853,-0.22716 0.67635,-0.36712 1.1527,-0.33073 0.75125,0.0574 0.84831,-0.0263 1.07462,-0.92702 0.31826,-1.26665 0.11216,-1.45172 -0.85208,-0.76512 -0.42594,0.3033 -1.08764,0.67053 -1.47044,0.81607 -0.49798,0.18933 -0.69602,0.4547 -0.69602,0.93263 0,0.75288 0.30595,0.8589 0.79122,0.27417 z m -11.98756,-0.44952 c -0.0845,-0.21107 -0.14716,-0.14838 -0.15986,0.15985 -0.0115,0.27891 0.0511,0.43518 0.13897,0.34727 0.0879,-0.0879 0.0973,-0.31613 0.0209,-0.50712 z m 10.9895,-0.94258 c 0.1494,-0.1819 0.16776,-0.32891 0.0408,-0.32668 -0.42112,0.007 -0.77875,0.38735 -0.74329,0.7897 0.0839,0.95148 0.19625,1.14379 0.30925,0.52917 0.0669,-0.36381 0.24385,-0.81029 0.39324,-0.99219 z m 6.00502,0.46302 c -0.01,-0.26169 -0.092,-0.21663 -0.24193,0.13229 -0.31256,0.72736 -0.31256,1.14511 0,0.66146 0.14107,-0.21828 0.24994,-0.57547 0.24193,-0.79375 z m -21.8001,0.39687 c -0.13146,0.40891 0.029,0.33791 0.70601,-0.31242 1.03548,-0.99468 2.04525,-1.303 2.902,-0.8861 0.59059,0.28739 0.59563,0.28219 0.10636,-0.10979 -0.73257,-0.58692 -1.51548,-0.51059 -2.64836,0.25821 l -0.98684,0.66969 0.51446,-0.73584 c 0.75569,-1.08086 0.94794,-2.09922 0.43357,-2.2966 -0.65322,-0.25067 -0.90014,0.0541 -0.90191,1.11337 -9e-4,0.53711 -0.17949,1.3176 -0.39688,1.73442 -0.51166,0.98106 -0.50262,1.19486 0.0232,0.54949 0.41265,-0.50645 0.4161,-0.50623 0.24835,0.0156 z m 4.09567,0.0529 c 0,-0.53003 -0.57026,-0.97896 -1.24354,-0.97896 -0.47272,0 -0.60854,0.14763 -0.60854,0.66146 0,0.57957 0.11465,0.66146 0.92604,0.66146 0.58344,0 0.92604,-0.12725 0.92604,-0.34396 z m -10.84792,-0.64823 c 0,-0.63392 -0.11071,-0.73424 -0.85989,-0.77915 -0.47295,-0.0284 -1.15755,-0.0879 -1.52136,-0.1323 -1.16446,-0.14213 -0.83484,0.43712 0.43274,0.76048 0.67278,0.17163 1.35071,0.43952 1.5065,0.59531 0.40487,0.40487 0.44201,0.36753 0.44201,-0.44434 z m 19.24128,0.002 c 0.72737,-0.47548 1.11005,-2.13331 0.57121,-2.47459 -0.64412,-0.40795 -0.85922,-0.25592 -0.38277,0.27055 0.52943,0.58501 0.39253,1.30446 -0.38151,2.00496 -0.4462,0.4038 -0.57847,0.41771 -0.96065,0.10103 -0.40232,-0.33336 -0.37428,-0.37944 0.30394,-0.49953 1.46988,-0.26026 0.93201,-0.6613 -0.92917,-0.69279 -1.01855,-0.0174 -1.85191,0.0596 -1.85191,0.17091 0,0.11131 0.42647,0.57682 0.94772,1.03448 0.99715,0.87551 1.45168,0.88989 2.68314,0.0849 z m -17.91836,-0.0841 c 0,-0.29963 -0.11906,-0.4712 -0.26458,-0.38126 -0.14552,0.0899 -0.26459,0.33509 -0.26459,0.54478 0,0.2097 0.11907,0.38126 0.26459,0.38126 0.14552,0 0.26458,-0.24515 0.26458,-0.54478 z m 10.00493,-2.68226 c -1.09644,-0.9097 -1.48238,-0.92314 -1.8094,-0.063 -0.40841,1.0742 -0.31548,1.43798 0.36735,1.43798 0.61438,0 1.97452,1.11127 2.06814,1.68972 0.0262,0.16206 0.0934,-0.29751 0.14921,-1.02127 0.0942,-1.22164 0.0387,-1.36806 -0.7753,-2.04341 z m 13.14445,1.26041 c 1.15501,-0.48259 1.46357,-1.14672 0.77226,-1.66218 -0.27831,-0.20751 -0.47625,-0.48795 -0.43987,-0.6232 0.0364,-0.13524 -0.0432,-0.2459 -0.1768,-0.2459 -0.13362,0 -0.41096,-0.0645 -0.61632,-0.14328 -0.24786,-0.0951 -0.53834,0.22254 -0.86412,0.945 -0.26991,0.59856 -0.85577,1.38849 -1.30191,1.75541 l -0.81116,0.66712 1.25139,-0.15112 c 0.68826,-0.0831 1.6722,-0.32695 2.18653,-0.54185 z m 4.47045,-1.09792 c -0.0883,-0.35179 -0.27042,-0.63961 -0.40473,-0.63961 -0.38262,0 -0.62562,0.88156 -0.2752,0.99836 0.1717,0.0572 0.31973,0.42157 0.32896,0.80962 0.0167,0.70344 0.0175,0.7037 0.26413,0.0884 0.13606,-0.33944 0.17513,-0.90499 0.0868,-1.25677 z m -28.99175,0.61716 c 0.12093,-0.63771 -0.5516,-0.58582 -1.16297,0.0897 -0.49742,0.54964 -0.49579,0.55225 0.28746,0.46302 0.49415,-0.0563 0.82042,-0.26229 0.87551,-0.55275 z m 21.65137,0.1264 c 0.60037,-0.4832 1.80637,-2.66888 1.59129,-2.88396 -0.0696,-0.0696 -0.21052,0.13784 -0.3131,0.46103 -0.10257,0.32319 -0.66439,1.10607 -1.24847,1.73973 -1.0687,1.1594 -1.08493,1.53247 -0.0297,0.6832 z m -23.98362,-0.10557 c 0,-0.17044 -0.16333,-0.49786 -0.36296,-0.7276 -0.85651,-0.98571 -1.98355,-3.40382 -1.84083,-3.94957 0.0939,-0.35898 0.0264,-0.56918 -0.18282,-0.56918 -0.52322,0 -0.16851,3.11984 0.50475,4.43955 0.43831,0.85915 0.72102,1.1167 1.22578,1.1167 0.36085,0 0.65608,-0.13946 0.65608,-0.3099 z m 3.81421,-0.1244 c 0.13935,-0.36314 0.10063,-0.3795 -0.23627,-0.0999 -0.45912,0.38104 -0.5069,0.5342 -0.16666,0.5342 0.12995,0 0.31127,-0.19544 0.40293,-0.4343 z m 7.68402,-0.93362 c 0.42013,-1.41475 0.38263,-1.95464 -0.0762,-1.09727 -0.32515,0.60755 -0.68798,2.46519 -0.48149,2.46519 0.0833,0 0.33429,-0.61556 0.55771,-1.36792 z m 8.08094,0.83875 c 0,-0.14552 -0.0944,-0.26458 -0.20971,-0.26458 -0.28949,0 -0.84862,-2.18719 -0.84862,-3.31959 0,-0.51191 0.2035,-1.3734 0.45223,-1.91443 0.50447,-1.09734 0.62651,-2.967705 0.19365,-2.967927 -0.15409,-7.9e-5 -0.48915,0.152676 -0.74459,0.339456 -0.40777,0.298161 -0.45139,0.709741 -0.35753,3.373441 0.10795,3.06381 0.56846,5.01821 1.18244,5.01821 0.18267,0 0.33213,-0.11906 0.33213,-0.26458 z m 1.00787,-0.46302 c -0.98968,-1.06111 -1.27245,-1.74017 -1.27245,-3.05578 0,-0.79278 0.18109,-1.40256 0.55933,-1.88341 0.30763,-0.39109 0.47649,-0.79391 0.37524,-0.89516 -0.27229,-0.27229 -0.90568,0.70958 -1.22662,1.90146 -0.3694,1.37184 0.12335,3.25605 1.06061,4.05567 0.97168,0.82896 1.31382,0.74559 0.50389,-0.12278 z m -19.5287,0.19844 c 0,-0.14552 -0.1786,-0.26459 -0.39688,-0.26459 -0.21828,0 -0.39687,0.11907 -0.39687,0.26459 0,0.14552 0.17859,0.26458 0.39687,0.26458 0.21828,0 0.39688,-0.11906 0.39688,-0.26458 z m 17.10856,-0.59495 c -0.0734,-0.1819 -0.13345,-0.0331 -0.13345,0.33073 0,0.36381 0.0601,0.51263 0.13345,0.33073 0.0734,-0.1819 0.0734,-0.47956 0,-0.66146 z m 5.56642,0.26459 c 0.69268,-0.7605 1.13752,-1.62534 1.13752,-2.21154 0,-0.40437 -0.0745,-0.39039 -0.61237,0.1149 -0.3368,0.3164 -0.74438,0.57528 -0.90574,0.57528 -0.52342,0 -1.8469,-1.29281 -2.29916,-2.24588 -0.53917,-1.13623 -0.78392,-1.16356 -1.20992,-0.13513 -0.25361,0.61228 -0.25727,0.88027 -0.016,1.171 0.17209,0.20735 0.2823,0.53467 0.24491,0.72736 -0.0374,0.1927 0.0229,0.61825 0.13402,0.94567 0.1568,0.46213 0.40467,0.59532 1.10796,0.59532 0.61942,0 1.01049,0.16736 1.23644,0.52916 0.41726,0.66814 0.51869,0.66247 1.18233,-0.0661 z m -19.76457,-0.74578 c 0,-0.0999 -0.17859,-0.32984 -0.39687,-0.51099 -0.34133,-0.28328 -0.3957,-0.18597 -0.38846,0.6952 0.008,0.95831 0.0335,0.99136 0.39687,0.511 0.21366,-0.28248 0.38846,-0.59532 0.38846,-0.69521 z m 9.33287,-0.82912 c -0.75706,-0.75706 -1.45257,-1.30037 -1.54558,-1.20736 -0.20859,0.2086 2.19873,2.58382 2.61874,2.58382 0.16682,0 -0.31611,-0.61941 -1.07316,-1.37646 z m -12.01881,0.87768 c 0.4137,-0.26217 0.31877,-1.12843 -0.14041,-1.28131 -0.37361,-0.12439 -0.97074,0.88651 -0.74214,1.25639 0.19497,0.31548 0.41429,0.32167 0.88255,0.0249 z m 9.30053,0.11393 c 0,-0.0661 -0.29766,-0.41792 -0.66146,-0.78172 -0.75723,-0.75723 -0.85547,-1.82567 -0.2919,-3.17448 0.35919,-0.85968 0.35178,-0.88447 -0.26459,-0.88447 -0.62842,0 -0.87614,0.3374 -0.37232,0.50712 0.17099,0.0576 0.16539,0.43703 -0.0161,1.09371 -0.32261,1.16716 0.05,2.66749 0.76634,3.08544 0.4797,0.27989 0.84005,0.34612 0.84005,0.1544 z m -6.75345,-3.49166 0.48536,-0.7537 -0.57012,0.50403 c -0.50386,0.44545 -0.57013,0.45313 -0.57013,0.0662 0,-0.24084 -0.11906,-0.43789 -0.26458,-0.43789 -0.36966,0 -0.33227,0.72709 0.0439,0.85247 0.23485,0.0783 0.23485,0.31387 0,0.98757 -0.16964,0.48662 -0.3004,1.13488 -0.29058,1.44059 0.01,0.30571 0.16703,0.002 0.34935,-0.67485 0.18232,-0.67687 0.5499,-1.56984 0.81685,-1.98437 z m 7.2733,2.3064 c 0.3976,-0.74291 0.34041,-0.86536 -0.25527,-0.54656 -0.29104,0.15576 -0.52917,0.45761 -0.52917,0.67077 0,0.55234 0.46147,0.47927 0.78444,-0.12421 z m -10.9709,-0.0174 c 0.0931,-0.15065 -0.13474,-0.26458 -0.52916,-0.26458 -0.39442,0 -0.62228,0.11393 -0.52917,0.26458 0.0899,0.14552 0.32806,0.26458 0.52917,0.26458 0.2011,0 0.43923,-0.11906 0.52916,-0.26458 z m 4.01169,-0.59531 c -0.0734,-0.1819 -0.13345,-0.0331 -0.13345,0.33073 0,0.3638 0.0601,0.51263 0.13345,0.33073 0.0734,-0.18191 0.0734,-0.47956 0,-0.66146 z m 26.12666,0 c -0.7455,-1.47498 -2.31975,-2.84427 -3.27,-2.84427 -0.31064,0 -0.36303,1.0948 -0.11236,2.34817 0.14263,0.71313 0.27906,0.82738 0.99219,0.83088 0.45475,0.002 1.00542,0.11947 1.2237,0.26053 0.21828,0.14106 0.66782,0.2583 0.99898,0.26053 0.59218,0.004 0.59494,-0.0101 0.16749,-0.85584 z m -22.39054,0.11002 c 0.079,-0.23984 -0.0773,-0.32465 -0.48772,-0.26458 -0.33223,0.0486 -0.65641,0.24726 -0.72039,0.4414 -0.079,0.23985 0.0773,0.32466 0.48772,0.26459 0.33223,-0.0486 0.65641,-0.24726 0.72039,-0.44141 z m 6.60033,0.32544 c -0.0879,-0.0879 -0.31612,-0.0973 -0.50712,-0.0209 -0.21107,0.0845 -0.14837,0.14715 0.15985,0.15985 0.27892,0.0115 0.43519,-0.051 0.34727,-0.13896 z m 12.09827,-0.56775 c -0.11046,-0.25467 -0.21967,-0.98171 -0.24269,-1.61565 -0.038,-1.04605 -0.15417,-1.23413 -1.25653,-2.03412 -0.66807,-0.48482 -1.48878,-1.369188 -1.82379,-1.965266 -0.7662,-1.363269 -1.3948,-1.326845 -1.51127,0.08757 -0.0629,0.763504 0.0934,1.272086 0.62758,2.042946 0.46603,0.67249 0.65954,1.22425 0.56121,1.60026 -0.21037,0.80446 0.0863,2.08269 0.48339,2.08269 0.18244,0 0.48194,-0.36269 0.66556,-0.80599 0.37353,-0.90178 1.1225,-0.97074 1.27098,-0.11701 0.093,0.53485 0.74383,1.18759 1.18407,1.18759 0.13328,0 0.15195,-0.20836 0.0415,-0.46302 z m 4.63809,-0.99954 c 0.005,-0.69628 -0.86046,-1.42543 -1.92821,-1.62404 l -0.84587,-0.15733 1.12448,1.16896 c 0.61846,0.64292 1.1263,1.34304 1.12853,1.55581 0.007,0.63079 0.51614,-0.29174 0.52107,-0.9434 z m -30.93547,0.51635 c 0.28684,-0.34562 0.28107,-0.4582 -0.0337,-0.65741 -0.79386,-0.50233 -1.50641,-0.0943 -1.20536,0.69024 0.19398,0.5055 0.80579,0.48929 1.23911,-0.0328 z m 14.27077,-0.7892 c 0,-1.39989 -0.29184,-1.35455 -1.06749,0.16586 l -0.53077,1.04038 h 0.79913 c 0.77226,0 0.79913,-0.0406 0.79913,-1.20624 z m -3.56717,0.42011 c -0.0749,-0.12122 0.28033,-0.46616 0.78944,-0.76654 0.5091,-0.30039 0.92564,-0.42767 0.92564,-0.28286 0,0.1448 0.92274,-0.49358 2.05052,-1.41862 2.66381,-2.18495 4.69805,-3.562068 4.50021,-3.0465 -0.23535,0.613323 1.34832,-0.0031 2.52129,-0.981377 0.5195,-0.433272 1.2209,-1.003372 1.55866,-1.266889 0.7336,-0.572342 0.31634,-0.365803 -1.61928,0.801528 -0.7918,0.47752 -1.76704,0.868218 -2.1672,0.868218 -0.40015,0 -0.80278,0.121727 -0.89473,0.270504 -0.0919,0.148777 -0.90265,0.638397 -1.80155,1.088043 -0.89891,0.449647 -1.83523,0.994423 -2.08072,1.210623 -0.2455,0.2162 -0.57292,0.31486 -0.72761,0.21926 -0.15469,-0.0956 -0.28125,-0.0273 -0.28125,0.15168 0,0.40011 -0.78159,1.29323 -1.13174,1.29323 -0.14079,0 -0.094,-0.20836 0.10393,-0.46302 0.19795,-0.25467 -0.29348,0.12416 -1.09208,0.84182 -0.79859,0.71767 -1.50807,1.34922 -1.57662,1.40345 -0.0685,0.0542 0.0448,0.20333 0.25195,0.33134 0.42144,0.26046 0.88147,0.0864 0.67114,-0.25389 z m 11.3332,-0.73522 c -0.0887,-0.69123 -0.38411,-1.62802 -0.65639,-2.08176 -0.27229,-0.45374 -0.49506,-1.212457 -0.49506,-1.686041 0,-0.73539 -0.0579,-0.81299 -0.39687,-0.531686 -0.42769,0.354943 -0.54426,1.729767 -0.16647,1.963257 0.12672,0.0783 0.30556,0.51818 0.39742,0.97745 0.15306,0.76533 1.12436,2.61555 1.37306,2.61555 0.0581,0 0.0331,-0.56555 -0.0557,-1.25677 z m -20.33374,0.45939 c 0,-0.56713 -0.76879,-0.48522 -0.8803,0.0938 -0.0681,0.35359 0.0397,0.46135 0.39325,0.39325 0.26788,-0.0516 0.48705,-0.27076 0.48705,-0.48705 z m 5.90021,-0.0493 c 0.51671,-0.51672 0.39552,-1.53458 -0.18272,-1.53458 -0.3747,0 -0.52735,0.23237 -0.60833,0.92604 -0.1117,0.95673 0.20174,1.19785 0.79105,0.60854 z m -1.27,-0.74083 c 0,-0.43657 -0.0984,-0.79375 -0.21876,-0.79375 -0.12032,0 -0.16634,0.35718 -0.10226,0.79375 0.0641,0.43656 0.16251,0.79375 0.21875,0.79375 0.0563,0 0.10227,-0.35719 0.10227,-0.79375 z m -7.18675,0.0322 c 0.53054,-0.33629 0.27899,-1.48738 -0.32504,-1.48738 -0.72585,0 -1.14688,0.77276 -0.7087,1.30074 0.3953,0.47631 0.53652,0.50181 1.03374,0.18664 z m 1.59038,-0.002 c 0.45972,-0.29135 0.28605,-1.22103 -0.22809,-1.22103 -0.23232,0 -0.42751,0.29777 -0.47697,0.72761 -0.0868,0.75389 0.0942,0.88052 0.70506,0.49341 z m 1.62762,-1.20541 c 0,-0.35522 -0.12944,-0.72585 -0.28764,-0.82362 -0.44296,-0.27377 -0.84396,0.29263 -0.64686,0.91366 0.24641,0.77637 0.9345,0.71007 0.9345,-0.09 z m 1.52692,-0.0985 c 0.0644,-0.19335 -0.0565,-0.25248 -0.31419,-0.15359 -0.23044,0.0884 -0.41898,0.27702 -0.41898,0.4191 0,0.34777 0.60134,0.13 0.73317,-0.26551 z m 6.22912,-1.846627 c -0.0879,-1.048836 -0.27701,-1.906973 -0.42017,-1.906973 -0.24763,0 -0.10353,1.941293 0.25132,3.38576 0.26442,1.07634 0.33283,0.47719 0.16885,-1.478787 z m 19.61427,1.334177 c -0.20875,-0.40019 -0.38029,-0.87644 -0.38118,-1.058338 -0.002,-0.449311 -0.39468,-0.416673 -0.79538,0.06615 -0.3651,0.43992 -1.08113,0.52129 -1.46844,0.16688 -0.36046,-0.329837 -2.28141,-0.0394 -2.15966,0.32648 0.16684,0.50152 2.35281,1.19677 3.81084,1.21204 l 1.37337,0.0144 z m -22.27708,0.28779 c -0.18191,-0.0734 -0.47956,-0.0734 -0.66146,0 -0.1819,0.0734 -0.0331,0.13345 0.33073,0.13345 0.3638,0 0.51263,-0.06 0.33073,-0.13345 z m -9.26042,-0.45767 c 0.65938,-0.50054 0.57242,-0.954604 -0.18282,-0.954604 -0.72898,0 -1.0597,0.369094 -0.84112,0.938714 0.18035,0.46997 0.42085,0.47371 1.02394,0.0159 z m 13.82448,0.10373 c -0.0899,-0.14552 -0.27556,-0.26458 -0.41249,-0.26458 -0.13693,0 -0.24897,0.11906 -0.24897,0.26458 0,0.14552 0.18562,0.26458 0.41249,0.26458 0.22687,0 0.33891,-0.11906 0.24897,-0.26458 z m -10.75,-0.41742 c 0.0539,-0.0479 0.0198,-0.39822 -0.0756,-0.778463 -0.19165,-0.763619 -0.84231,-0.812361 -1.29284,-0.09685 -0.42995,0.682833 -0.0303,1.362303 0.67391,1.145813 0.32813,-0.10087 0.64068,-0.2226 0.69453,-0.2705 z m 2.1126,-0.55494 c -0.39558,-0.476646 -0.89238,-0.03106 -0.65502,0.5875 0.13915,0.36261 0.24366,0.38378 0.56756,0.11497 0.30814,-0.25573 0.32772,-0.41298 0.0875,-0.70247 z m 6.01649,0.50934 c -0.0787,-0.25466 -0.19831,-0.921911 -0.26588,-1.482775 -0.0676,-0.560864 -0.16405,-1.060945 -0.21439,-1.111291 -0.23465,-0.234648 -1.40219,0.615194 -1.48286,1.079356 -0.0499,0.287387 -0.28855,0.676051 -0.53022,0.863698 -0.38485,0.298812 -0.39029,0.372232 -0.0438,0.591262 0.21757,0.13754 0.51465,0.25008 0.66017,0.25008 0.14552,0 0.0894,-0.11076 -0.12463,-0.24614 -0.80048,-0.506244 -0.0253,-0.550603 0.95596,-0.0547 0.56142,0.28372 1.05854,0.52884 1.10473,0.5447 0.0462,0.0159 0.0196,-0.17953 -0.059,-0.43419 z m 3.28237,-0.18282 c 0,-0.474232 -0.43715,-0.765179 -0.8066,-0.536845 -0.18966,0.117213 -0.17941,0.289575 0.0324,0.544785 0.39977,0.48169 0.7742,0.47785 0.7742,-0.008 z m -1.4876,-0.713556 c 0.12399,-0.619951 0.0487,-0.91603 -0.29724,-1.168993 -0.25481,-0.186319 -0.4856,-0.316453 -0.51287,-0.289185 -0.14044,0.140447 0.27948,2.288404 0.44739,2.288404 0.10817,0 0.27139,-0.3736 0.36272,-0.830226 z m 3.0751,0.02086 c 0,-0.136933 -0.23813,-0.248968 -0.52917,-0.248968 -0.58368,0 -0.72056,0.416415 -0.19844,0.603705 0.40021,0.143559 0.72761,-0.01606 0.72761,-0.354737 z m 11.4229,0.113674 c 1.11457,-0.184296 1.13872,-0.891809 0.0304,-0.891809 -0.36348,0 -1.26019,-0.30102 -1.99269,-0.668934 -0.7325,-0.367913 -1.39471,-0.606038 -1.47158,-0.529166 -0.0769,0.07687 -0.0167,0.139767 0.13375,0.139767 0.15044,0 0.58869,0.47625 0.9739,1.058333 0.74116,1.119969 0.80299,1.143671 2.32618,0.891809 z m 2.33543,-0.362642 c -0.32159,-0.600895 -0.79375,-0.705819 -0.79375,-0.176389 0,0.451943 0.25696,0.705555 0.71486,0.705555 0.2801,0 0.29796,-0.11982 0.0789,-0.529166 z M 248.8177,98.53364 c 0.002,-0.254662 -0.11875,-0.463021 -0.26884,-0.463021 -0.38315,0 -0.61089,0.706661 -0.40264,1.249356 0.14977,0.390291 0.21014,0.399773 0.42113,0.06615 0.13546,-0.214203 0.24812,-0.59782 0.25035,-0.852481 z m 4.80624,0.463021 c 0.0218,-0.363802 0.0516,-0.800365 0.0661,-0.970139 0.0534,-0.623012 -0.5303,-0.469162 -0.95634,0.252068 -0.40907,0.692492 -0.40856,0.762509 0.008,1.045309 0.67416,0.458125 0.83915,0.396955 0.8826,-0.327238 z m 26.68323,0.396875 c 0,-0.145521 -0.18562,-0.264584 -0.41249,-0.264584 -0.22687,0 -0.33891,0.119063 -0.24897,0.264584 0.0899,0.145521 0.27556,0.264583 0.41249,0.264583 0.13693,0 0.24897,-0.119062 0.24897,-0.264583 z m -33.87472,-0.992188 c -0.007,-0.624142 -0.0466,-0.661466 -0.2789,-0.262488 -0.14897,0.255814 -0.19785,0.583236 -0.10863,0.727605 0.27357,0.442638 0.39595,0.295756 0.38753,-0.465117 z m 1.06638,0.182823 c 0,-0.29963 -0.11906,-0.471197 -0.26458,-0.38126 -0.14552,0.08994 -0.26458,0.335088 -0.26458,0.544781 0,0.209694 0.11906,0.38126 0.26458,0.38126 0.14552,0 0.26458,-0.245151 0.26458,-0.544781 z m 14.75065,0.214052 c -0.1667,-0.500642 -0.99231,-0.571817 -0.99231,-0.08555 0,0.245437 0.22621,0.416275 0.55121,0.416275 0.32332,0 0.50569,-0.13674 0.4411,-0.330729 z m 4.03477,-4.752149 c 0.10839,-3.552225 0.21706,-4.464802 0.60141,-5.05035 l 0.46912,-0.714688 h -2.00968 -2.00967 l 0.54837,0.697139 c 0.50816,0.64603 0.54837,1.042744 0.54837,5.411186 v 4.714046 l 0.85989,-0.360836 0.8599,-0.360837 z m 12.38684,4.22072 c 0.0967,-0.83778 -0.33478,-0.963007 -0.73587,-0.213569 -0.40321,0.75342 -0.33457,1.126037 0.18913,1.02672 0.27927,-0.05296 0.49625,-0.375676 0.54674,-0.813151 z m -27.73267,0.327319 c 0,-0.14864 -0.30619,-0.409761 -0.68041,-0.580269 -0.55094,-0.251024 -0.72576,-0.237359 -0.91874,0.07182 -0.18014,0.288592 -0.0624,0.422645 0.48197,0.548965 1.0849,0.251733 1.11718,0.250563 1.11718,-0.04051 z m 1.05833,-0.258911 c 0,-0.293981 -0.17639,-0.529166 -0.39687,-0.529166 -0.40281,0 -0.54273,0.5597 -0.22049,0.881944 0.33544,0.335437 0.61736,0.174337 0.61736,-0.352778 z m 11.64167,0.116677 c 0,-0.226869 -0.11907,-0.338905 -0.26459,-0.248968 -0.14552,0.08994 -0.26458,0.275557 -0.26458,0.41249 0,0.136932 0.11906,0.248968 0.26458,0.248968 0.14552,0 0.26459,-0.18562 0.26459,-0.41249 z m 12.27531,-0.579697 c -0.31558,-1.349261 -0.6855,-1.524613 -2.36589,-1.121493 l -1.49095,0.357673 1.01629,0.52505 c 0.86496,0.446872 2.02578,0.835275 2.80726,0.939291 0.11191,0.0149 0.12689,-0.300339 0.0333,-0.700521 z m -17.51944,-0.577971 c 0.68098,-0.281462 1.38352,-0.783362 1.56118,-1.115334 0.30268,-0.565546 0.26975,-0.558748 -0.52247,0.107863 -1.90499,1.60294 -4.52751,1.559949 -7.92225,-0.12987 -1.54024,-0.766693 -3.21817,-2.319234 -3.21817,-2.977682 0,-0.15012 -0.23533,-0.419912 -0.52295,-0.599536 -0.79464,-0.496264 -1.59432,-2.288451 -1.58869,-3.560472 0.003,-0.784856 0.23808,-1.505993 0.76045,-2.337494 0.6335,-1.008414 0.99615,-1.284305 2.24713,-1.709528 1.41486,-0.480923 1.55292,-0.484373 2.67915,-0.06696 0.65308,0.242049 1.18741,0.331316 1.18741,0.198372 0,-0.389918 -1.99203,-0.814464 -3.63771,-0.775281 -0.83691,0.01993 -1.89452,-0.0465 -2.35023,-0.147607 -0.47685,-0.105803 -0.89817,-0.07121 -0.99255,0.0815 -0.0969,0.156814 0.0457,0.210515 0.3486,0.131296 0.43444,-0.11361 0.50929,0.0011 0.49095,0.752279 -0.0119,0.487478 -0.22868,1.152818 -0.48172,1.478534 -1.45111,1.867873 -0.48349,5.145338 2.2955,7.775207 1.82536,1.727414 3.03705,2.402627 5.40137,3.009897 0.93715,0.240707 1.80849,0.538953 1.93631,0.662767 0.12794,0.12394 0.42523,0.114708 0.66146,-0.02054 0.23599,-0.135112 0.98624,-0.475945 1.66723,-0.757407 z M 247.23425,84.973988 c 0,-0.218281 0.11906,-0.396875 0.26458,-0.396875 0.14552,0 0.26459,0.178594 0.26459,0.396875 0,0.218281 -0.11907,0.396875 -0.26459,0.396875 -0.14552,0 -0.26458,-0.178594 -0.26458,-0.396875 z m 30.01168,13.126854 c 0.0797,-0.129032 -0.0217,-0.372939 -0.22541,-0.542014 -0.41242,-0.342273 -0.83473,0.05103 -0.54981,0.512035 0.20246,0.327587 0.58221,0.342272 0.77522,0.02998 z M 260.4969,96.940183 c -0.1979,-0.197908 -0.33368,-0.142712 -0.46024,0.187098 -0.10802,0.281496 -0.0324,0.55979 0.18976,0.698735 0.45733,0.285968 0.68773,-0.468588 0.27048,-0.885833 z m 2.61235,0.573206 c 0,-0.302316 -0.71748,-0.309145 -0.90323,-0.0086 -0.0774,0.125223 -0.0728,0.295613 0.0103,0.378645 0.20647,0.206474 0.89298,-0.07801 0.89298,-0.370049 z m -14.2875,-0.352953 c 0,-0.552377 -0.54889,-0.807128 -0.81928,-0.380241 -0.35869,0.5663 -0.28432,0.761501 0.29011,0.761501 0.29104,0 0.52917,-0.171567 0.52917,-0.38126 z m -1.5875,-0.271894 c 0,-0.236694 -0.15512,-0.329045 -0.39688,-0.236276 -0.21828,0.08376 -0.39687,0.25862 -0.39687,0.388571 0,0.129952 0.17859,0.236276 0.39687,0.236276 0.21829,0 0.39688,-0.174857 0.39688,-0.388571 z m 4.23373,0.004 c -0.70753,-0.39157 -0.95477,-0.353932 -0.67273,0.102415 0.0959,0.155202 0.43526,0.277967 0.75409,0.272811 0.55905,-0.009 0.55615,-0.02241 -0.0814,-0.375226 z m 17.4621,0.239536 c 0,-0.07978 -0.38695,-0.31325 -0.85989,-0.51881 -0.5233,-0.227446 -0.67351,-0.377801 -0.38374,-0.384103 0.26189,-0.0057 0.8385,0.177017 1.28136,0.406028 0.44286,0.229011 0.86473,0.356853 0.93749,0.284093 0.23415,-0.234148 -1.521,-1.000006 -2.09688,-0.91497 -0.84187,0.124313 -0.85076,0.656508 -0.016,0.960896 0.88673,0.323357 1.1377,0.360167 1.1377,0.166866 z m 9.24638,-0.234898 c 0.23798,-0.286741 0.24153,-0.517885 0.0145,-0.942119 -0.5136,-0.959658 -1.36523,-0.122714 -0.95717,0.940661 0.1863,0.485508 0.5405,0.486055 0.94268,0.0015 z m -22.74013,-0.533945 c 0,-0.194416 0.45064,-1.250147 1.00141,-2.34607 0.55078,-1.095924 0.90712,-1.934311 0.79187,-1.863084 -0.11525,0.07123 -0.39607,0.490206 -0.62404,0.931064 -0.66995,1.295531 -0.67517,0.719516 -0.008,-0.921144 0.64801,-1.594384 1.13526,-2.309912 0.88733,-1.303034 -0.0806,0.327422 -0.10065,0.595313 -0.0445,0.595313 0.0561,0 0.59594,-0.535782 1.19955,-1.190625 0.60362,-0.654844 1.31342,-1.190625 1.57734,-1.190625 0.58126,0 0.91076,-0.439613 0.44658,-0.595834 -0.25938,-0.0873 -0.25146,-0.209875 0.0361,-0.558159 0.20264,-0.245462 0.27808,-0.532715 0.16765,-0.638339 -0.11043,-0.105624 -0.45482,0.162572 -0.76531,0.59599 -1.51162,2.110101 -3.07807,2.928846 -3.07807,1.608831 0,-1.093574 -0.52586,-1.061182 -0.56684,0.03492 -0.0752,2.012512 -0.19195,2.618805 -0.75421,3.91822 -0.66692,1.541254 -1.02561,3.74525 -0.563,3.459339 0.16311,-0.100803 0.29655,-0.342344 0.29655,-0.536759 z m 2.84427,-0.09486 c 0.18191,-0.228424 0.33073,-0.615715 0.33073,-0.860648 0,-0.244932 0.17451,-0.939927 0.38779,-1.544431 0.29983,-0.849806 0.32031,-1.247184 0.0903,-1.751982 -0.24452,-0.536656 -0.21205,-0.747277 0.18239,-1.183124 0.26392,-0.291633 0.69534,-0.530242 0.95871,-0.530242 0.26337,0 0.60834,-0.24196 0.76661,-0.537688 0.26472,-0.494618 0.22837,-0.523679 -0.45371,-0.362793 -1.10087,0.259669 -2.19668,1.393498 -2.19668,2.272899 0,0.485166 0.13816,0.744249 0.39687,0.744249 0.21829,0 0.39688,0.08627 0.39688,0.191716 0,0.290148 -1.90565,1.924951 -2.24387,1.924951 -0.2821,0 -0.93113,1.430791 -0.93113,2.052671 0,0.433272 1.91253,0.08996 2.3151,-0.415578 z m 5.35782,0.479573 c 0,-0.14552 -0.0525,-0.264583 -0.11668,-0.264583 -0.0642,0 -0.19026,0.119063 -0.2802,0.264583 -0.0899,0.145521 -0.0374,0.264584 0.11668,0.264584 0.15411,0 0.2802,-0.119063 0.2802,-0.264584 z m -9.3646,-1.265039 c 0.12683,-0.634157 0.0759,-0.851627 -0.19949,-0.851627 -0.25464,0 -0.36981,0.327362 -0.36981,1.051117 0,1.189559 0.31346,1.079719 0.5693,-0.19949 z m 8.51793,0.947539 c 0.4698,-0.469799 0.38523,-1.005416 -0.15875,-1.005416 -0.55714,0 -1.11125,0.488141 -1.11125,0.978958 0,0.432022 0.84679,0.449663 1.27,0.02646 z M 276.603,96.203167 c 0,-0.136933 -0.11906,-0.248969 -0.26458,-0.248969 -0.14552,0 -0.26459,0.185621 -0.26459,0.41249 0,0.22687 0.11907,0.338906 0.26459,0.248969 0.14552,-0.08994 0.26458,-0.275557 0.26458,-0.41249 z m -26.87868,0.05359 c 0.19899,-0.321971 -1.9612,-1.999057 -2.21818,-1.722107 -0.11683,0.12591 -0.29659,0.507037 -0.39948,0.846948 -0.16797,0.554922 -0.13299,0.589081 0.34257,0.33457 0.41868,-0.224074 0.65948,-0.17525 1.14951,0.233072 0.69244,0.576978 0.92053,0.639296 1.12558,0.307517 z m 20.56098,-0.481148 c -0.3119,-0.536367 -0.38722,-0.36469 -0.13191,0.300657 0.0907,0.236458 0.22072,0.374189 0.28884,0.306067 0.0681,-0.06812 -0.002,-0.341148 -0.15693,-0.606724 z m 3.80416,0.443177 c 0.0899,-0.145521 0.0374,-0.264584 -0.11668,-0.264584 -0.15411,0 -0.2802,0.119063 -0.2802,0.264584 0,0.145521 0.0525,0.264583 0.11668,0.264583 0.0642,0 0.19026,-0.119062 0.2802,-0.264583 z m -21.61608,-1.389069 c -0.29439,-0.254661 -0.77864,-0.463021 -1.07612,-0.463021 -0.53198,0 -0.53269,0.0098 -0.0431,0.595313 0.96384,1.152785 1.27296,1.320796 1.47335,0.800799 0.11893,-0.308627 -0.003,-0.629092 -0.35411,-0.933091 z m 7.41718,-0.859896 c 0.56172,-1.877399 1.19219,-3.042708 1.64619,-3.042708 0.13727,0 0.24958,0.238125 0.24958,0.529167 0,0.991201 0.45985,0.533285 0.59782,-0.595313 0.0756,-0.618463 0.2229,-1.332838 0.3273,-1.5875 0.12642,-0.308344 0.0699,-0.459192 -0.1692,-0.451558 -0.32714,0.01044 -1.7999,2.081638 -2.6171,3.680499 -0.32543,0.636714 -1.03991,3.075584 -1.04609,3.570851 -0.008,0.653152 0.50768,-0.419543 1.0115,-2.103438 z m 9.83327,1.869308 c 0,-0.06329 -0.12691,-0.448885 -0.28203,-0.856885 -0.3303,-0.868747 -0.3791,-2.226439 -0.13248,-3.686139 0.16917,-1.001313 0.13961,-1.05717 -0.78005,-1.474012 -0.94334,-0.427577 -0.95973,-0.424793 -1.25001,0.212297 -0.25139,0.551733 -0.21048,0.704154 0.28147,1.048727 0.72355,0.506792 0.74828,1.583757 0.0464,2.022065 -0.37673,0.23527 -0.52917,0.617016 -0.52917,1.325159 0,0.957149 0.0344,0.994689 0.91043,0.994689 0.50073,0 0.98401,0.119062 1.07394,0.264583 0.16109,0.260636 0.66146,0.373741 0.66146,0.149516 z m 2.14147,-0.162791 c 0.60904,-0.325946 0.43141,-0.780475 -0.305,-0.780475 -0.33716,0 -0.51355,0.181752 -0.51355,0.529167 0,0.605746 0.0993,0.636236 0.81855,0.251308 z m -10.86148,-1.024063 c -0.1663,-0.310741 -0.41546,-0.49509 -0.55368,-0.409666 -0.34618,0.213955 -0.31486,0.748448 0.0662,1.129504 0.48027,0.480263 0.84306,-0.05545 0.48749,-0.719838 z m -13.88642,-0.41787 c 0.12927,-0.554115 0.10063,-0.713872 -0.0949,-0.529167 -0.15401,0.145521 -0.36335,0.621771 -0.4652,1.058333 -0.12927,0.554115 -0.10063,0.713872 0.0948,0.529167 0.15401,-0.145521 0.36335,-0.621771 0.4652,-1.058333 z m 3.13072,-0.198438 c -0.55248,-0.763984 -1.3354,-1.984375 -1.73982,-2.711979 l -0.7353,-1.322917 -0.005,0.982879 c -0.003,0.71524 0.1393,1.059994 0.52437,1.26608 0.29104,0.15576 0.52917,0.503283 0.52917,0.772271 0,0.431167 1.86638,2.402729 2.27454,2.402729 0.086,0 -0.29568,-0.625078 -0.84817,-1.389063 z m 23.17988,0.373986 c 0,-0.395595 -0.16428,-0.954115 -0.36507,-1.241156 -0.20079,-0.287041 -0.40915,-0.700486 -0.46302,-0.918767 -0.0763,-0.309231 -0.26667,-0.241347 -0.86192,0.307391 -0.62743,0.5784 -0.67472,0.696616 -0.26458,0.661459 0.34747,-0.02979 0.65604,0.294237 1.01436,1.065176 0.56081,1.206608 0.94023,1.257412 0.94023,0.125897 z m 2.07692,0.151692 c 0.26259,-0.196808 0.43662,-0.702317 0.43662,-1.268264 0,-0.792816 -0.22528,-1.157436 -1.43036,-2.315104 -1.72295,-1.655159 -2.29498,-1.806015 -1.73114,-0.456537 0.21086,0.504649 0.38338,1.1412 0.38338,1.414558 0,0.273358 0.1901,0.878079 0.42244,1.343823 0.24406,0.489218 0.3542,1.118728 0.26083,1.490738 -0.15103,0.601728 -0.11629,0.626696 0.53,0.380978 0.38039,-0.144624 0.88809,-0.41021 1.12823,-0.590192 z m 1.36266,0.331976 c 0,-0.459256 -0.0695,-0.48799 -0.51205,-0.211627 -0.5537,0.34579 -0.48377,0.743036 0.13079,0.743036 0.2097,0 0.38126,-0.239134 0.38126,-0.531409 z m 2.24896,-0.0014 c 0,-0.250272 -0.31264,-0.423396 -0.85989,-0.476161 -0.93229,-0.08989 -1.13906,0.288748 -0.39688,0.726731 0.61714,0.364192 1.25677,0.236666 1.25677,-0.25057 z m -15.47812,-0.260965 c 0,-0.291042 -0.0456,-0.529167 -0.10144,-0.529167 -0.0558,0 -0.1637,0.238125 -0.23981,0.529167 -0.0761,0.291041 -0.0305,0.529166 0.10143,0.529166 0.1319,0 0.23982,-0.238125 0.23982,-0.529166 z m 6.26064,-0.33073 c -0.0734,-0.181901 -0.13345,-0.03307 -0.13345,0.33073 0,0.363802 0.06,0.51263 0.13345,0.330729 0.0734,-0.181901 0.0734,-0.479557 0,-0.661459 z m 0.88311,0.463021 c 0,-0.218281 -0.11907,-0.396875 -0.26459,-0.396875 -0.14552,0 -0.26458,0.178594 -0.26458,0.396875 0,0.218282 0.11906,0.396875 0.26458,0.396875 0.14552,0 0.26459,-0.178593 0.26459,-0.396875 z m -8.08922,-0.282957 c 0.31345,-0.313447 0.34823,-0.540475 0.14188,-0.926042 -0.31622,-0.590862 -0.3786,-0.604727 -1.06589,-0.2369 -0.58316,0.312095 -0.65789,0.797074 -0.19427,1.260691 0.41834,0.418342 0.6198,0.400733 1.11828,-0.09775 z m -9.4891,-0.405156 c 0.10116,-0.163682 0.50711,-0.225816 0.92686,-0.141865 0.59332,0.118662 0.78202,0.03865 0.9178,-0.389181 0.31941,-1.006359 -1.54787,-2.352716 -3.263,-2.352716 -0.41658,0 -1.31337,-0.281462 -1.99288,-0.625472 -0.74042,-0.374851 -1.23546,-0.504054 -1.23546,-0.322451 0,0.166662 0.42592,0.983947 0.94649,1.816189 0.66693,1.066232 1.15536,1.55687 1.65364,1.661127 0.38894,0.08138 0.88575,0.252928 1.10403,0.381223 0.54284,0.319056 0.73207,0.313665 0.94252,-0.02685 z m 4.48144,-0.502512 c 0.0899,-0.145521 0.0445,-0.264583 -0.10106,-0.264583 -0.14552,0 -0.33817,0.119062 -0.42811,0.264583 -0.0899,0.145521 -0.0445,0.264584 0.10107,0.264584 0.14552,0 0.33816,-0.119063 0.4281,-0.264584 z m 21.72064,-0.04014 c 0.10368,-0.167755 -0.038,-0.471693 -0.31511,-0.676199 -0.2769,-0.204312 -0.47187,-0.528562 -0.43329,-0.720556 0.0386,-0.191993 -0.22931,-0.545292 -0.59531,-0.785109 -0.36601,-0.239817 -0.66547,-0.652299 -0.66547,-0.916628 0,-0.515443 0.97965,-1.081509 1.93068,-1.115591 0.32057,-0.01149 0.43403,-0.08094 0.25213,-0.154341 -0.51203,-0.206609 -0.39586,-0.653873 0.38023,-1.463939 0.40056,-0.418094 0.56131,-0.742082 0.36819,-0.742082 -0.23811,0 -0.28938,-0.212693 -0.16791,-0.696653 l 0.17484,-0.696652 -0.8009,0.673915 c -0.4405,0.370653 -1.22174,0.812805 -1.7361,0.982559 -1.14857,0.379063 -0.97304,0.791914 0.34206,0.80454 l 0.97657,0.0094 -0.66146,0.378124 c -0.3638,0.207968 -0.49278,0.382343 -0.28663,0.3875 0.20616,0.0052 0.30328,0.08092 0.21583,0.168372 -0.0874,0.08745 -0.65229,-0.118254 -1.25521,-0.457114 l -1.09622,-0.616109 -1.02412,0.589405 c -0.56326,0.324172 -1.20175,0.589405 -1.41887,0.589405 -0.7064,0 2.31317,2.566721 3.73241,3.172664 0.75941,0.324224 1.53331,0.777335 1.71979,1.006914 0.37519,0.461888 0.39938,0.467252 -1.43771,-0.318816 -0.93256,-0.399032 -0.99708,-0.394367 -1.25677,0.09087 -0.15056,0.281323 -0.27375,0.578855 -0.27375,0.661182 0,0.293865 3.14511,0.14753 3.3321,-0.155036 z m -18.14346,-0.363105 c 0.18408,-0.221797 0.26332,-0.474631 0.1761,-0.561853 -0.27095,-0.270948 -0.97515,0.133414 -0.97515,0.559943 0,0.518218 0.36982,0.519102 0.79905,0.0019 z m -14.55739,-0.258189 c -0.18115,-0.218281 -0.36159,-0.396875 -0.40096,-0.396875 -0.0394,0 -0.14012,0.178594 -0.22388,0.396875 -0.10545,0.274802 0.0179,0.396875 0.40096,0.396875 0.46179,0 0.4988,-0.06562 0.22388,-0.396875 z m 16.93334,-0.388571 c 0,-0.589472 -0.099,-0.747448 -0.39688,-0.633151 -0.47813,0.183476 -0.51302,0.667451 -0.0794,1.101097 0.44556,0.445563 0.47625,0.415411 0.47625,-0.467946 z m 8.73125,-1.597137 c 0,-0.234682 -0.17481,-0.65781 -0.38846,-0.940285 -0.31455,-0.415871 -0.39006,-0.434268 -0.39688,-0.09669 -0.005,0.229295 -0.28527,0.676994 -0.62365,0.994886 -0.45999,0.432132 -0.5852,0.782645 -0.49621,1.388995 l 0.11903,0.811008 0.89308,-0.86561 c 0.4912,-0.476085 0.89309,-1.057622 0.89309,-1.292304 z m 7.67291,1.191958 c 0,-0.363802 -0.10517,-0.661458 -0.23372,-0.661458 -0.2771,0 -0.5677,0.962466 -0.35486,1.175304 0.33232,0.332319 0.58858,0.108595 0.58858,-0.513846 z m -24.43052,-0.511382 c -0.0875,-0.228063 -0.40098,-0.41466 -0.69659,-0.41466 -0.37018,0 -0.53747,-0.173518 -0.53747,-0.557474 0,-0.399641 -0.11849,-0.512005 -0.41851,-0.396875 -0.23019,0.08833 -0.58738,0.160599 -0.79375,0.160599 -0.20638,0 -0.37524,0.119063 -0.37524,0.264584 0,0.14552 0.17672,0.264583 0.3927,0.264583 0.21599,0 0.78153,0.349226 1.25677,0.776059 0.85722,0.769907 1.48479,0.718069 1.17209,-0.09682 z m 4.52248,-0.567146 c -0.2604,-0.260398 -0.72946,0.139353 -0.72946,0.621673 0,0.403879 0.0348,0.403154 0.44728,-0.0093 0.24599,-0.246 0.37298,-0.52156 0.28218,-0.612358 z m 18.96036,-0.0081 c 0.64413,-0.247175 0.49603,-0.633152 -0.24294,-0.633152 -0.64238,0 -0.8448,0.257632 -0.48507,0.617361 0.21475,0.214753 0.2098,0.214645 0.72801,0.01579 z m -23.1294,-1.442517 c 0,-0.92644 -0.0713,-1.042718 -0.63982,-1.042718 -0.3519,0 -0.83765,-0.07591 -1.07944,-0.168699 -0.27959,-0.107288 -0.18526,0.105763 0.25913,0.585269 0.39598,0.427262 0.64659,0.953456 0.57836,1.214346 -0.11787,0.450738 0.29009,0.789076 0.68333,0.566723 0.10914,-0.06171 0.19844,-0.581425 0.19844,-1.154921 z m -3.27139,0.678704 c 0.41682,-0.217385 0.96621,-0.395979 1.22087,-0.396875 0.67588,-0.0024 0.56683,-0.479249 -0.13229,-0.578541 -0.41103,-0.05837 -0.59768,-0.267106 -0.60295,-0.674266 -0.0138,-1.066646 -0.49104,-1.271629 -2.04058,-0.876475 -0.76525,0.19515 -1.67094,0.536928 -2.01264,0.759504 -0.49256,0.320849 -0.72477,0.340046 -1.12088,0.09267 -0.65892,-0.411501 -0.78608,-0.393591 -0.60249,0.08486 0.0838,0.218281 0.32954,0.396875 0.54617,0.396875 0.21663,0 0.72719,0.237344 1.13458,0.527431 1.53414,1.092406 2.46254,1.263373 3.61021,0.664824 z m -5.45986,-0.663089 c 0,-0.436562 -0.11906,-0.79375 -0.26458,-0.79375 -0.14552,0 -0.26459,0.357188 -0.26459,0.79375 0,0.436563 0.11907,0.79375 0.26459,0.79375 0.14552,0 0.26458,-0.357187 0.26458,-0.79375 z m 11.50673,-0.79099 c 0.4168,-0.435045 0.70697,-0.821998 0.64481,-0.859896 -0.0622,-0.0379 -0.35112,-0.200026 -0.64217,-0.360285 -0.34746,-0.191328 -0.55736,-0.622866 -0.61128,-1.256771 -0.0615,-0.723537 -0.20165,-0.965391 -0.55923,-0.965391 -0.38277,0 -0.47983,0.222359 -0.49085,1.124479 -0.0157,1.286941 0.39217,3.108854 0.69602,3.108854 0.11269,0 0.5459,-0.355945 0.9627,-0.79099 z m 10.36415,0.09823 c -0.77214,-0.418447 -1.15541,-0.352416 -0.84738,0.145988 0.0959,0.155202 0.49479,0.277419 0.88639,0.271592 l 0.71199,-0.01059 -0.751,-0.406988 z m 2.08103,-0.886882 c -0.26109,-0.288502 -0.57902,-0.460088 -0.70649,-0.381303 -0.12748,0.07879 -0.54434,-0.102616 -0.92636,-0.403114 -0.8176,-0.643122 -1.41698,-0.706354 -1.41698,-0.149486 0,0.244386 0.24815,0.396875 0.64585,0.396875 0.35521,0 0.71942,0.119063 0.80936,0.264584 0.0899,0.145521 -0.0221,0.264583 -0.24897,0.264583 -0.22687,0 -0.41249,0.119063 -0.41249,0.264584 0,0.14552 0.41299,0.264583 0.91774,0.264583 0.75055,0 0.89244,-0.08435 0.77888,-0.463021 -0.0965,-0.321741 -0.002,-0.279207 0.30987,0.139398 0.24681,0.331331 0.51074,0.54042 0.58652,0.464643 0.0758,-0.07578 -0.0758,-0.373823 -0.33693,-0.662326 z m 3.76306,-0.126273 c 0.6913,-0.356169 1.85222,-0.857266 2.57982,-1.11355 0.76052,-0.267877 1.13197,-0.505849 0.87376,-0.559776 -0.24703,-0.05159 -0.68569,0.03279 -0.97479,0.187508 -0.2891,0.154723 -1.19372,0.281313 -2.01027,0.281313 -1.23383,0 -1.59722,-0.112594 -2.15114,-0.666515 -0.80349,-0.803484 -1.05097,-0.689904 -1.45817,0.669227 -0.56991,1.902174 0.77934,2.418449 3.14079,1.201793 z m -19.62544,0.146221 c -0.28018,-0.10977 -0.59924,-0.428823 -0.70901,-0.709007 -0.18597,-0.474684 -0.20085,-0.470331 -0.21817,0.06384 -0.0187,0.576404 0.30442,0.838214 1.03973,0.84246 0.25124,0.0015 0.20994,-0.07095 -0.11255,-0.19729 z m -7.79212,-0.627531 c -0.2613,-0.259362 -0.29169,-0.228971 -0.14811,0.148112 0.0994,0.260938 0.24731,0.407782 0.32877,0.32632 0.0815,-0.08146 1.7e-4,-0.294956 -0.18066,-0.474432 z m 1.40993,0.05041 c -0.0844,-0.136494 0.0448,-0.32421 0.28697,-0.417148 0.24219,-0.09294 0.51763,-0.04591 0.61208,0.104507 0.23286,0.370832 2.21333,0.02884 2.35871,-0.407309 0.0808,-0.242556 -0.0717,-0.294775 -0.52707,-0.180473 -0.40767,0.10232 -0.75862,0.01892 -0.96455,-0.229205 -0.26397,-0.318066 -0.21286,-0.467686 0.27694,-0.810759 0.5596,-0.391956 0.56498,-0.420612 0.0788,-0.419237 -0.9683,0.0027 -2.42389,0.527298 -2.88885,1.041073 -0.43992,0.486097 -0.43865,0.541447 0.0265,1.16188 0.44646,0.595532 1.09679,0.733119 0.74053,0.156671 z m 4.84106,-0.398809 c -0.25214,-0.252137 -0.75763,0.156263 -0.56973,0.460296 0.11169,0.180711 0.25968,0.176145 0.4497,-0.01387 0.15577,-0.155776 0.20979,-0.356666 0.12003,-0.446423 z m 2.18285,0.0456 c 0,-0.412949 -1.57372,-1.845281 -1.78991,-1.629095 -0.18128,0.181276 1.21821,2.00245 1.53879,2.00245 0.13812,0 0.25112,-0.168009 0.25112,-0.373355 z m 4.0025,-0.08967 c 0.33589,-0.428296 0.32344,-0.433911 -0.16604,-0.07487 -0.29104,0.213484 -0.57878,0.421843 -0.63941,0.463021 -0.0606,0.04118 0.0141,0.07487 0.16604,0.07487 0.15196,0 0.43969,-0.208359 0.63941,-0.463021 z m 5.39021,-0.06615 c 0.43656,-0.289124 0.63901,-0.526465 0.44988,-0.527424 -0.38912,-0.002 -1.90509,0.738942 -1.90509,0.931093 0,0.285793 0.71265,0.08811 1.45521,-0.403669 z m 2.51354,0 c 0,-0.291042 -0.14995,-0.529167 -0.33323,-0.529167 -0.18328,0 -0.48194,0.238125 -0.6637,0.529167 -0.29749,0.47636 -0.26424,0.529166 0.33323,0.529166 0.48731,0 0.6637,-0.140634 0.6637,-0.529166 z m 3.85216,-1.071368 c 0.20965,-0.173988 0.38117,-0.420826 0.38117,-0.548529 0,-0.371951 -1.43805,-0.267665 -1.99995,0.145035 -0.49914,0.366608 -0.49126,0.400696 0.28016,1.211568 l 0.79375,0.834347 0.0819,-0.66304 c 0.045,-0.364671 0.25338,-0.805393 0.46302,-0.979381 z m -7.49658,0.786303 c 0.73108,-0.463857 0.76305,-0.521371 0.20484,-0.368479 -0.36381,0.09964 -0.8358,0.346985 -1.04889,0.549648 -0.56693,0.539206 -0.15041,0.449803 0.84405,-0.181169 z m -4.55766,-0.376394 c 0,-0.218281 -0.11907,-0.396875 -0.26459,-0.396875 -0.14552,0 -0.26458,0.178594 -0.26458,0.396875 0,0.218282 0.11906,0.396875 0.26458,0.396875 0.14552,0 0.26459,-0.178593 0.26459,-0.396875 z m -3.69886,-0.522772 c -0.27042,-0.325834 -0.26919,-0.403269 0.006,-0.403269 0.18759,0 0.26962,-0.07145 0.18229,-0.158786 -0.37501,-0.37501 -0.72055,0.198451 -0.43785,0.72667 0.1577,0.294674 0.35358,0.468919 0.43529,0.387212 0.0817,-0.08171 -0.002,-0.330029 -0.18612,-0.551827 z m 5.55094,0.381054 c 0.33871,-0.226935 0.30533,-0.342674 -0.22775,-0.789698 -0.34354,-0.288086 -0.80848,-0.523792 -1.03319,-0.523792 -0.35769,0 -0.35404,0.06026 0.0293,0.483854 0.24083,0.26612 0.43788,0.623308 0.43788,0.793751 0,0.377463 0.26599,0.389488 0.79375,0.03588 z m -8.46745,-0.321302 c 10e-4,-0.264165 -1.10102,-0.246704 -1.52792,0.02421 -0.20735,0.131584 0.0225,0.206749 0.59453,0.194386 0.51294,-0.01109 0.93297,-0.109454 0.93339,-0.218596 z m 23.23751,-0.105755 c 0.16452,-0.293983 0.44039,-0.385196 0.84501,-0.279387 0.33041,0.0864 0.49429,0.06007 0.36419,-0.05852 -0.39633,-0.361256 -1.69176,-0.582538 -1.69176,-0.28898 0,0.148293 -0.17859,0.269624 -0.39687,0.269624 -0.48057,0 -0.52684,-0.432631 -0.0662,-0.618522 0.1819,-0.0734 -0.17529,-0.142852 -0.79375,-0.15434 -0.61846,-0.01149 -1.12266,0.06841 -1.12043,0.177549 0.009,0.446835 0.43692,0.730866 1.18403,0.786124 0.43517,0.03219 0.83204,0.181015 0.88195,0.33073 0.13585,0.407566 0.51802,0.328475 0.79378,-0.164275 z m -16.35756,-0.224975 c -0.18116,-0.218281 -0.45662,-0.396875 -0.61213,-0.396875 -0.15552,0 -0.0516,0.174807 0.23083,0.388461 0.6637,0.501996 0.79331,0.504856 0.3813,0.0084 z m -5.71115,-0.988136 c 0.19773,-0.133835 0.18707,-0.195648 -0.0342,-0.198437 -0.17678,-0.0022 -0.44467,0.226246 -0.59531,0.507721 -0.37268,0.696361 -0.3338,1.077451 0.0423,0.414269 0.16504,-0.291042 0.42931,-0.61664 0.58727,-0.723553 z m 1.08094,0.591261 c 0.0899,-0.14552 -0.0887,-0.264583 -0.39687,-0.264583 -0.30822,0 -0.48682,0.119063 -0.39688,0.264583 0.0899,0.145521 0.26853,0.264584 0.39688,0.264584 0.12834,0 0.30693,-0.119063 0.39687,-0.264584 z m 6.35,-0.264583 c -0.0899,-0.145521 -0.30532,-0.26276 -0.47863,-0.260532 -0.18934,0.0024 -0.15671,0.106423 0.0818,0.260532 0.50829,0.328487 0.59989,0.328487 0.39687,0 z m -6.02478,-0.424436 c -0.0879,-0.08792 -0.31612,-0.09732 -0.50712,-0.02089 -0.21107,0.08446 -0.14837,0.147157 0.15985,0.159853 0.27892,0.01149 0.43519,-0.05105 0.34727,-0.138965 z"
       id="path288" />
  </g>
</svg>
