<?xml version="1.0" encoding="UTF-8" standalone="no"?>
<!-- Created with Inkscape (http://www.inkscape.org/) -->

<svg
   width="33.150688mm"
   height="35.148285mm"
   viewBox="0 0 33.150688 35.148286"
   version="1.1"
   id="svg997"
   inkscape:version="1.1 (c4e8f9ed74, 2021-05-24)"
   sodipodi:docname="ornament9.svg"
   xmlns:inkscape="http://www.inkscape.org/namespaces/inkscape"
   xmlns:sodipodi="http://sodipodi.sourceforge.net/DTD/sodipodi-0.dtd"
   xmlns="http://www.w3.org/2000/svg"
   xmlns:svg="http://www.w3.org/2000/svg">
  <sodipodi:namedview
     id="namedview999"
     pagecolor="#ffffff"
     bordercolor="#666666"
     borderopacity="1.0"
     inkscape:pageshadow="2"
     inkscape:pageopacity="0.0"
     inkscape:pagecheckerboard="0"
     inkscape:document-units="mm"
     showgrid="false"
     inkscape:zoom="1.5385816"
     inkscape:cx="-130.96478"
     inkscape:cy="185.56052"
     inkscape:window-width="2506"
     inkscape:window-height="1403"
     inkscape:window-x="1974"
     inkscape:window-y="0"
     inkscape:window-maximized="1"
     inkscape:current-layer="layer1" />
  <defs
     id="defs994" />
  <g
     inkscape:label="Layer 1"
     inkscape:groupmode="layer"
     id="layer1"
     transform="translate(-134.31335,-138.77013)">
    <path
       style="fill:#000000;stroke-width:0.476606"
       d="m 137.55769,173.68282 c 3.22618,-0.0827 8.37353,-0.0823 11.43856,5.6e-4 3.06502,0.0829 0.42544,0.15041 -5.86577,0.15023 -6.2912,-3e-4 -8.79897,-0.0681 -5.57279,-0.15077 z m 18.56587,0.0191 c 0.59286,-0.11403 1.45076,-0.10971 1.90642,0.009 0.45569,0.11925 -0.0294,0.21258 -1.0779,0.20728 -1.04855,-0.005 -1.42137,-0.10285 -0.82852,-0.2169 z m -18.6374,-3.1241 c -1.01897,-0.82352 -1.36723,-1.53089 -1.40471,-2.85315 -0.0274,-0.96698 -0.32923,-1.86537 -0.67072,-1.99642 -0.85083,-0.32649 -0.78434,-2.87542 0.094,-3.6044 0.92327,-0.76624 0.92327,-1.47987 0,-1.12558 -1.05013,0.40298 -0.87228,-0.66309 0.20698,-1.24069 2.60421,-1.39372 5.57764,0.0483 6.89655,3.34452 0.6529,1.63179 0.68114,2.15546 0.17329,3.21492 -0.78289,1.63343 -2.90806,2.43038 -4.24853,1.59324 -0.53706,-0.33539 -1.10882,-0.47741 -1.27062,-0.3156 -0.55935,0.55934 0.7118,1.91828 2.22099,2.37436 0.83314,0.25179 1.44156,0.68073 1.35205,0.95322 -0.30459,0.92712 -1.99061,0.75374 -3.34938,-0.34442 z m 2.14265,-5.80225 c 0.29097,-0.63861 0.3939,-1.51331 0.22871,-1.94374 -0.2501,-0.65178 -0.50537,-0.53895 -1.52662,0.67475 -0.67448,0.80156 -1.09104,1.67626 -0.92573,1.94376 0.53446,0.86476 1.68066,0.51693 2.22364,-0.67477 z m 4.18707,5.61127 c -0.50517,-1.32869 -0.24652,-1.86365 1.03471,-2.14 0.67563,-0.14573 0.60523,-0.73252 -0.5916,-4.93147 -1.34363,-4.71399 -2.14888,-5.95758 -3.85771,-5.95758 -0.73119,0 -0.79315,-0.16014 -0.36874,-0.95322 0.40529,-0.75729 0.99793,-0.95322 2.88335,-0.95322 h 2.3732 l -1.12629,-1.78726 c -1.44526,-2.29342 -3.32385,-3.4199 -4.48361,-2.68855 -1.08084,0.68158 -1.08349,2.27078 -0.004,2.47865 0.5778,0.11133 0.83406,-0.14302 0.83406,-0.82753 0,-1.14508 0.7236,-1.32075 1.12555,-0.27325 0.3618,0.94282 -0.0722,2.00434 -0.95864,2.34447 -0.79845,0.30639 -2.54995,-0.47683 -2.54995,-1.14031 0,-0.23671 -0.58958,-0.39002 -1.31018,-0.34067 -1.0293,0.0704 -1.34294,-0.14014 -1.46298,-0.98263 -0.0839,-0.58982 0.0766,-1.07238 0.35697,-1.07238 0.28037,0 0.50977,0.2367 0.50977,0.52598 0,0.28929 0.7816,-0.16032 1.73689,-0.99903 1.37367,-1.20609 2.02151,-1.46808 3.09794,-1.2528 1.53012,0.30603 1.78681,-0.36932 0.7035,-1.85085 -0.63182,-0.86405 -0.70218,-0.84741 -1.79684,0.42522 -1.04365,1.21332 -1.24947,1.27428 -2.45209,0.72633 -1.9107,-0.87058 -3.19584,-3.23665 -3.19584,-5.88389 0,-2.35512 0.63566,-4.08272 1.50218,-4.08272 0.28348,0 0.40325,0.42894 0.26615,0.9532 -0.22344,0.85445 -0.0144,0.95322 2.01527,0.95322 3.10971,0 4.92267,2.06503 3.26678,3.72094 -0.44938,0.44936 -0.41256,0.7381 0.16807,1.3188 0.67354,0.67354 0.77141,0.50749 1.04062,-1.76564 0.22157,-1.87078 0.11817,-2.70693 -0.40642,-3.2866 -0.72623,-0.80246 -0.94735,-1.89392 -0.38369,-1.89392 0.17599,0 0.70665,0.34997 1.17931,0.77772 0.79474,0.71924 0.94866,0.71924 2.04633,0 0.65284,-0.42775 1.6933,-0.77772 2.31217,-0.77772 2.29876,0 4.14807,3.62514 2.62586,5.14735 -0.78603,0.78604 -3.08178,0.72087 -3.39539,-0.0964 -0.36326,-0.94663 0.11763,-1.26552 1.41674,-0.93946 0.88336,0.2217 1.12076,0.0886 1.12076,-0.62827 0,-1.11055 -0.87731,-2.05341 -1.91065,-2.05341 -1.39232,0 -2.42582,1.1882 -2.91337,3.3495 -0.55082,2.44158 -0.0978,7.76499 0.62279,7.31961 0.25929,-0.16032 0.3502,-0.7497 0.20206,-1.30992 -0.18615,-0.70395 0.0587,-1.27294 0.79254,-1.84204 l 1.06191,-0.82347 -1.13072,-0.0108 c -0.95068,-0.009 -1.03625,-0.12447 -0.53742,-0.72551 0.84201,-1.01455 3.16573,-0.88545 4.28946,0.2383 1.2267,1.2267 1.29589,4.32405 0.11907,5.33462 -1.53397,1.31736 -1.98487,1.37859 -2.9614,0.40204 l -0.9706,-0.9706 v 1.08548 c 0,0.597 0.33388,1.56212 0.74194,2.14472 0.65911,0.94102 1.15787,1.05926 4.46823,1.05926 3.71111,0 3.72927,-0.005 4.45617,-1.50699 0.7889,-1.62892 0.57985,-3.56488 -0.2289,-2.11972 -0.57605,1.02935 -2.43137,0.97242 -3.40599,-0.10447 -1.84187,-2.03528 -0.13636,-6.27752 2.52371,-6.27752 0.73527,0 1.63121,0.36187 1.99098,0.80416 0.57156,0.70265 0.55078,0.76543 -0.16465,0.4974 -1.21976,-0.45691 -1.51135,0.4721 -0.34422,1.09672 0.74864,0.40067 0.93578,0.82901 0.7265,1.66284 -0.15509,0.61772 -0.0856,1.24442 0.1542,1.39268 0.67237,0.41555 1.13364,-3.33432 0.76908,-6.25221 -0.45678,-3.65602 -2.70196,-5.61298 -4.44262,-3.87232 -1.00474,1.00474 -0.70217,2.36592 0.48869,2.19851 1.46762,-0.20633 1.7319,1.32482 0.30675,1.77713 -1.22378,0.38843 -2.79719,-1.13911 -2.79719,-2.71562 0,-2.30306 3.8805,-4.18818 5.24268,-2.54687 0.75999,0.91575 1.72736,0.91575 2.07875,0 0.35649,-0.92899 1.73409,-0.92899 1.73409,0 0,0.3932 -0.19154,0.71492 -0.42562,0.71492 -0.75715,0 -1.0282,1.49649 -0.70808,3.90955 0.28413,2.14186 0.3814,2.28966 1.06029,1.61079 0.58382,-0.58382 0.6215,-0.87344 0.17221,-1.3228 -1.65473,-1.65476 0.0295,-3.72094 3.03327,-3.72094 1.79296,0 2.11068,-0.14357 2.11068,-0.95322 0,-1.51396 0.93706,-1.10828 1.70933,0.74003 0.82061,1.96396 0.5448,4.15533 -0.80162,6.36933 -1.57367,2.58769 -4.26355,2.78798 -5.15297,0.38371 l -0.37862,-1.02357 -0.5477,1.02339 c -0.88419,1.65214 -0.68857,2.4106 0.56022,2.17188 0.72454,-0.13852 1.62074,0.21973 2.58999,1.03529 1.46825,1.23544 1.47457,1.26033 0.67936,2.66214 -0.44149,0.77829 -1.18833,1.53947 -1.65965,1.69152 -1.14695,0.37001 -2.32095,-0.67286 -2.14485,-1.90532 0.1497,-1.04711 1.04848,-1.17106 1.13689,-0.15672 0.1133,1.29946 0.22427,1.40049 0.91168,0.82999 0.92169,-0.76493 0.92105,-2.33385 -0.001,-2.6877 -1.43336,-0.55003 -3.07827,0.32181 -4.15871,2.20422 -0.5956,1.03766 -1.4046,1.98451 -1.7978,2.1041 -0.3932,0.11961 0.39435,0.19269 1.75012,0.16248 2.31465,-0.0517 3.96914,0.62011 3.96914,1.61154 0,0.23003 -0.3957,0.41825 -0.87935,0.41825 -1.4927,0 -2.55411,1.72836 -3.87857,6.31576 -1.11202,3.85162 -1.17779,4.42876 -0.52122,4.5733 1.23131,0.27106 1.53691,0.81704 1.20271,2.14868 l -0.31634,1.26046 h -6.63263 -6.63262 z m 6.2254,-3.03529 c 0,-1.27218 -1.40838,-1.81129 -1.99472,-0.76355 -0.2458,0.4392 -0.64573,0.67568 -0.88875,0.52549 -0.24302,-0.15023 -0.31414,0.0598 -0.15798,0.46658 0.16608,0.43261 0.8562,0.73965 1.66266,0.73965 1.06818,0 1.37882,-0.2181 1.37882,-0.96817 z m 4.67142,0.0677 c 0.12015,-0.36465 7.5e-4,-0.52766 -0.26596,-0.36281 -0.26633,0.16464 -0.59577,-0.12718 -0.73212,-0.64858 -0.13636,-0.52131 -0.48914,-0.94785 -0.78405,-0.94785 -0.70656,0 -1.15922,1.23603 -0.79769,2.17815 0.34542,0.90019 2.26451,0.73733 2.57982,-0.21891 z m -7.64132,-3.94883 c -1.29423,-0.97624 -1.45643,-0.86637 -1.0589,0.71744 0.26748,1.06577 0.42418,1.15018 1.21648,0.65539 0.88208,-0.55087 0.87735,-0.59218 -0.15762,-1.37283 z m 4.8246,-0.76928 c -0.67381,-0.47194 -1.1237,-0.49199 -1.88594,-0.0841 -0.947,0.50683 -0.9573,0.58411 -0.19074,1.43116 0.76744,0.848 0.86724,0.85245 1.88594,0.0841 1.03383,-0.77982 1.04125,-0.83543 0.19074,-1.43115 z m 3.86458,1.04586 c 0,-0.5707 -0.19215,-0.60071 -1.0176,-0.15888 -0.78676,0.42107 -0.87301,0.63397 -0.38021,0.93854 0.79027,0.48842 1.39781,0.14951 1.39781,-0.77959 z m -5.81544,-3.37039 c 0.18246,-1.22913 -1.01915,-2.22975 -2.21998,-1.84862 -1.13202,0.35928 -1.71032,1.66639 -1.03574,2.34098 0.33858,0.33856 0.49224,0.31369 0.49224,-0.0796 0,-0.31457 0.3217,-0.57193 0.7149,-0.57193 0.3932,0 0.68952,0.16086 0.65848,0.35744 -0.12915,0.81751 0.0913,1.14035 0.6522,0.9556 0.32766,-0.1079 0.65972,-0.6271 0.7379,-1.15378 z m 4.60102,0.004 c 1.12327,0.43104 0.9057,-0.99339 -0.24586,-1.60968 -1.1551,-0.61817 -2.35258,0.10718 -2.35258,1.42506 0,1.25031 0.62312,1.5939 1.27469,0.70283 0.32831,-0.449 0.91034,-0.67684 1.32375,-0.51819 z m -9.10192,-2.94618 c -0.97438,-0.21819 -1.30298,0.19432 -0.92969,1.16711 0.28454,0.74146 0.36594,0.73326 0.98011,-0.0985 0.58034,-0.78603 0.5736,-0.92876 -0.0504,-1.0685 z m 11.74616,0.8762 c 0,-0.53927 -0.31774,-0.9532 -0.73169,-0.9532 -0.58398,0 -0.62871,0.1924 -0.22153,0.9532 0.28058,0.52426 0.60984,0.95322 0.73169,0.95322 0.12177,0 0.22153,-0.42896 0.22153,-0.95322 z m -8.48808,-9.5182 0.43288,-1.17757 -1.33422,1.17757 c -0.73383,0.64768 -1.44147,1.25178 -1.57254,1.34246 -0.13114,0.0906 0.27454,0.0906 0.90134,0 0.68882,-0.0996 1.3109,-0.63071 1.57254,-1.34246 z m 5.63555,0.48467 c -1.29915,-0.99819 -1.70658,-0.93551 -1.27247,0.19576 0.15528,0.40451 0.77152,0.73069 1.36955,0.72486 l 1.08733,-0.0108 z m -14.78191,-4.31145 c 0,-0.26213 -0.38124,-0.4766 -0.84717,-0.4766 -0.46594,0 -1.34631,-0.34962 -1.95639,-0.77694 -1.06926,-0.74893 -1.09045,-0.74185 -0.58811,0.19676 0.73252,1.36874 3.39167,2.19727 3.39167,1.05678 z m 25.3265,-0.5165 c 0.97752,-0.86279 1.00007,-0.94855 0.17185,-0.65362 -0.52427,0.18671 -1.43577,0.44414 -2.02558,0.57206 -0.5898,0.12789 -1.07236,0.42205 -1.07236,0.65361 0,0.77959 1.79144,0.42934 2.926,-0.57205 z m -3.87922,26.25325 c 0,-0.26213 0.38123,-0.4766 0.84717,-0.4766 1.26501,0 2.96568,-1.3611 2.96568,-2.37354 0,-0.82682 -0.0998,-0.8399 -1.41227,-0.18511 -1.60817,0.80225 -2.81116,0.39653 -4.04426,-1.36394 -1.41759,-2.02391 -0.56737,-5.18108 1.71281,-6.3602 1.50796,-0.77981 4.97489,-0.90956 5.41184,-0.20256 0.16195,0.26213 -0.0398,0.47662 -0.44848,0.47662 -0.97514,0 -0.93762,0.31716 0.21018,1.77636 1.14836,1.4599 1.19617,2.20204 0.20574,3.19249 -0.44467,0.44466 -0.62781,1.1246 -0.45207,1.67835 0.35328,1.11305 -0.83611,3.60284 -1.91975,4.01868 -1.19714,0.45938 -3.07659,0.34908 -3.07659,-0.18055 z m 3.09795,-6.92663 c -0.52428,-0.36661 -1.22131,-0.8968 -1.54897,-1.17822 -0.44542,-0.38254 -0.59393,-0.29645 -0.58847,0.34121 0.0144,1.63423 1.65283,2.85847 2.61404,1.95269 0.31216,-0.29414 0.14772,-0.6791 -0.4766,-1.11568 z m 1.42982,-12.61424 c -0.16194,-0.26213 -0.0802,-0.4766 0.18205,-0.4766 0.26213,0 0.60916,0.21447 0.77115,0.4766 0.16195,0.26213 0.0802,0.47662 -0.18204,0.47662 -0.26213,0 -0.60916,-0.21449 -0.77116,-0.47662 z"
       id="path2339" />
  </g>
</svg>
