<?xml version="1.0" encoding="UTF-8" standalone="no"?>
<!-- Created with Inkscape (http://www.inkscape.org/) -->

<svg
   width="30.32863mm"
   height="36.113411mm"
   viewBox="0 0 30.328641 36.113407"
   version="1.1"
   id="svg5"
   inkscape:version="1.1 (c4e8f9ed74, 2021-05-24)"
   sodipodi:docname="ornaten2.svg"
   xmlns:inkscape="http://www.inkscape.org/namespaces/inkscape"
   xmlns:sodipodi="http://sodipodi.sourceforge.net/DTD/sodipodi-0.dtd"
   xmlns="http://www.w3.org/2000/svg"
   xmlns:svg="http://www.w3.org/2000/svg">
  <sodipodi:namedview
     id="namedview7"
     pagecolor="#ffffff"
     bordercolor="#666666"
     borderopacity="1.0"
     inkscape:pageshadow="2"
     inkscape:pageopacity="0.0"
     inkscape:pagecheckerboard="0"
     inkscape:document-units="mm"
     showgrid="false"
     inkscape:zoom="1.3380612"
     inkscape:cx="-162.54862"
     inkscape:cy="75.856024"
     inkscape:window-width="2506"
     inkscape:window-height="1403"
     inkscape:window-x="1974"
     inkscape:window-y="0"
     inkscape:window-maximized="1"
     inkscape:current-layer="layer1" />
  <defs
     id="defs2" />
  <g
     inkscape:label="Layer 1"
     inkscape:groupmode="layer"
     id="layer1"
     transform="translate(99.466428,-76.362484)">
    <path
       style="fill:#000000;stroke-width:0.264583"
       d="m -84.663438,112.11399 c -0.59481,-0.32664 -0.93396,-0.3458 -1.83351,-0.10357 -1.39578,0.37584 -10.18058,0.1178 -11.81766,-0.34713 l -1.15182,-0.32711 0.11507,-1.19094 c 0.0633,-0.65501 0.3423,-1.66719 0.62003,-2.24927 0.46409,-0.97264 0.50001,-1.64559 0.44367,-8.31108 -0.0527,-6.231499 -0.12115,-7.318877 -0.48633,-7.722391 -0.23376,-0.258304 -0.35588,-0.581513 -0.27138,-0.718242 0.0845,-0.136729 0.20545,-1.602747 0.26878,-3.257818 0.0633,-1.655071 0.19955,-3.51459 0.30273,-4.132265 0.12806,-0.766581 0.0805,-1.252097 -0.14982,-1.529624 -0.27766,-0.334563 -0.26048,-0.463694 0.097,-0.729038 0.37769,-0.280343 0.39818,-0.545704 0.15682,-2.031696 -0.40946,-2.52107 -0.26875,-2.825004 1.40281,-3.030048 0.76546,-0.0939 3.05863,-0.0952 5.09592,-0.0029 2.03729,0.09231 5.6687,0.188738 8.06979,0.214293 2.94125,0.0313 4.56107,0.155364 4.96465,0.380238 0.68121,0.379571 2.34573,0.17731 2.97285,-0.361239 0.28884,-0.248042 1.18915,-0.312846 3.3073,-0.238058 1.60073,0.05652 3.03985,0.105907 3.19805,0.109749 0.3512,0.0085 0.26697,2.562997 -0.13737,4.166048 -0.15486,0.613994 -0.28121,1.923682 -0.28078,2.910417 0.001,3.235331 -0.0284,3.623986 -0.30355,3.955537 -0.19088,0.229996 -0.0943,0.89115 0.3236,2.215269 0.46662,1.478485 0.52313,1.93227 0.26081,2.09439 -0.20246,0.125129 -0.30329,0.612874 -0.25501,1.23354 0.0439,0.564618 -0.0788,1.740953 -0.2728,2.614078 -0.23985,1.079628 -0.30199,2.476276 -0.19426,4.36563 0.0871,1.52796 0.0278,3.89702 -0.13193,5.26457 -0.25412,2.1762 -0.23599,2.57846 0.14528,3.22389 0.23959,0.4056 0.53824,1.28678 0.66368,1.95818 0.36043,1.92929 0.11948,2.0421 -4.04107,1.89204 -1.90991,-0.0689 -3.65116,-0.14518 -3.86945,-0.16956 -0.21828,-0.0244 -1.76609,0.023 -3.43958,0.10527 -2.43153,0.11955 -3.1893,0.0691 -3.77252,-0.25117 z m 1.37848,-0.6033 c -0.34928,-0.28283 -0.5193,-0.6178 -0.40635,-0.80057 0.13775,-0.22287 0.4252,-0.11992 0.98844,0.35402 0.70263,0.59123 1.01308,0.66316 2.69215,0.62381 l 1.89793,-0.0445 -1.5875,-0.16635 -1.5875,-0.16634 1.19062,-0.13983 c 1.10532,-0.1298 1.07128,-0.14313 -0.47505,-0.18605 -1.37981,-0.0383 -1.77712,-0.15767 -2.3151,-0.69565 -0.35719,-0.35719 -0.6613,-0.92274 -0.67581,-1.25677 -0.0258,-0.59544 -0.0305,-0.59438 -0.23821,0.0541 -0.11651,0.3638 -0.2237,0.5056 -0.23821,0.31511 -0.0145,-0.19049 -0.1372,-0.27785 -0.27267,-0.19412 -0.13547,0.0837 -0.32161,0.0304 -0.41365,-0.11855 -0.092,-0.14892 0.01,-0.33866 0.22585,-0.42164 0.47073,-0.18064 0.84593,-0.9969 0.38809,-0.84429 -0.17103,0.057 -0.64732,-0.24831 -1.05843,-0.67849 -0.5666,-0.5929 -0.67741,-0.86656 -0.45795,-1.13098 0.15922,-0.19186 0.23814,-0.50167 0.17536,-0.68846 -0.0632,-0.18805 0.25037,-0.50521 0.70259,-0.71064 0.69934,-0.31768 0.74212,-0.38857 0.29763,-0.49322 -0.2855,-0.0672 -0.56356,0.0112 -0.61791,0.17422 -0.0543,0.16304 -0.18976,0.24023 -0.30092,0.17153 -0.11116,-0.0687 -0.35923,0.16868 -0.55128,0.52751 -0.42189,0.78832 -0.78891,0.84567 -0.78891,0.12327 0,-1.29118 2.27616,-2.17705 2.88922,-1.12448 0.23923,0.41072 0.2706,0.41392 0.27773,0.0283 0.01,-0.52184 -0.52115,-0.75591 -1.71418,-0.75591 -1.13404,0 -2.09337,1.09651 -1.88236,2.15153 0.11944,0.5972 0.0159,0.75646 -0.67913,1.04434 -0.62536,0.25903 -0.99798,0.73205 -1.56936,1.99221 -0.41211,0.90889 -1.01666,1.8398 -1.34344,2.06868 -0.64884,0.45447 -2.86303,0.56792 -3.26775,0.16744 -0.13825,-0.13679 -0.84667,-0.35056 -1.57427,-0.47503 -1.29442,-0.22144 -1.32197,-0.24557 -1.27891,-1.12014 0.0306,-0.62089 -0.0288,-0.77881 -0.19439,-0.51716 -0.2877,0.45458 -0.31268,1.58683 -0.044,1.99466 0.10691,0.16229 0.49204,0.38296 0.85585,0.49039 0.64877,0.19156 0.6513,0.18676 0.13229,-0.25053 -0.41573,-0.35026 -0.43346,-0.41599 -0.0827,-0.3066 2.42012,0.75474 5.58761,1.07919 6.38252,0.65377 0.27326,-0.14625 0.73603,-0.80665 1.02838,-1.46757 0.43865,-0.99163 0.46898,-1.24639 0.17355,-1.45754 -0.27639,-0.19754 -0.25686,-0.2236 0.0857,-0.11434 0.24402,0.0778 0.58394,-0.0275 0.75538,-0.23407 0.24949,-0.30061 0.42501,-0.3128 0.87924,-0.061 0.31214,0.17299 0.74613,0.29302 0.96441,0.26672 0.25669,-0.0309 0.28005,0.004 0.0661,0.0988 -0.1819,0.0807 -0.33073,0.38187 -0.33073,0.66938 0,0.2875 0.11116,0.45403 0.24703,0.37006 0.13586,-0.084 0.23692,0.20256 0.22457,0.63673 -0.0123,0.43417 -0.10366,0.73921 -0.20292,0.67786 -0.0993,-0.0613 -0.18048,0.0566 -0.18048,0.26217 0,0.25212 0.12729,0.30246 0.39126,0.15474 0.25602,-0.14327 0.71083,-0.002 1.31574,0.40841 1.11695,0.75798 2.00456,0.87154 1.10243,0.14104 z m -6.20492,-1.89493 c -0.0899,-0.14552 0.0291,-0.26458 0.26459,-0.26458 0.23545,0 0.35452,0.11906 0.26458,0.26458 -0.0899,0.14552 -0.209,0.26459 -0.26458,0.26459 -0.0556,0 -0.17465,-0.11907 -0.26459,-0.26459 z m 0.22049,-0.70555 c 0.097,-0.097 0.25576,-0.097 0.35278,0 0.097,0.097 0.0176,0.17639 -0.17639,0.17639 -0.19403,0 -0.27341,-0.0794 -0.17639,-0.17639 z m 0.97014,-1.41111 c 0,-0.14553 0.12609,-0.26459 0.2802,-0.26459 0.1541,0 0.20661,0.11906 0.11667,0.26459 -0.0899,0.14552 -0.21602,0.26458 -0.2802,0.26458 -0.0642,0 -0.11667,-0.11906 -0.11667,-0.26458 z m 1.32291,-0.26459 c 0,-0.14552 0.11204,-0.26458 0.24897,-0.26458 0.13694,0 0.32256,0.11906 0.41249,0.26458 0.0899,0.14552 -0.0221,0.26459 -0.24897,0.26459 -0.22687,0 -0.41249,-0.11907 -0.41249,-0.26459 z m 11.37709,4.3816 c 0,-0.23001 0.34064,-0.42597 0.85989,-0.49468 0.47295,-0.0626 0.23482,-0.0687 -0.52916,-0.0136 -0.82384,0.0594 -1.38907,-0.008 -1.38907,-0.16679 0,-0.14679 -0.17859,-0.26689 -0.39687,-0.26689 -0.21828,0 -0.39688,-0.11609 -0.39688,-0.25797 0,-0.14835 0.35479,-0.18702 0.83489,-0.091 0.58161,0.11632 0.77946,0.0773 0.65218,-0.12866 -0.10049,-0.1626 -0.59679,-0.37332 -1.10288,-0.46826 -0.86638,-0.16254 -1.97169,-1.23888 -1.97169,-1.92004 0,-0.49654 -1.38417,-1.36742 -2.17337,-1.36742 -0.73034,0 -0.76803,-0.0503 -0.60237,-0.80459 0.19115,-0.87029 -0.19318,-1.57666 -0.85784,-1.57666 -0.27231,0 -0.2011,0.16451 0.23084,0.53327 l 0.62462,0.53326 -0.6114,0.45892 c -2.16646,1.62619 -2.27658,1.82145 -1.1496,2.03849 0.30775,0.0593 0.53222,-0.0189 0.49882,-0.17366 -0.0334,-0.15478 0.10466,-0.34152 0.30682,-0.41497 0.24654,-0.0896 0.29841,-0.0217 0.15756,0.20625 -0.15137,0.24491 -0.10624,0.27491 0.16161,0.10746 0.58344,-0.36476 1.12152,-0.2873 1.64747,0.23717 0.26666,0.26591 0.64817,0.4208 0.84779,0.3442 0.21022,-0.0807 0.31235,-0.006 0.24271,0.17798 -0.0661,0.17449 0.1905,0.67444 0.57028,1.11101 0.37978,0.43656 0.79926,1.07497 0.93217,1.41869 0.16533,0.42756 0.39422,0.58504 0.7247,0.49862 0.28814,-0.0754 0.6074,0.0728 0.79127,0.36725 0.36407,0.58295 1.09751,0.65824 1.09751,0.11266 z m -5.02709,-4.11701 c -0.23846,-0.15411 -0.2711,-0.2581 -0.0818,-0.26054 0.17332,-0.002 0.3887,0.11501 0.47864,0.26054 0.20302,0.32848 0.11142,0.32848 -0.39688,0 z m 6.01376,4.33806 c -0.0879,-0.0879 -0.31612,-0.0973 -0.50711,-0.0209 -0.21107,0.0845 -0.14838,0.14716 0.15985,0.15985 0.27891,0.0115 0.43518,-0.051 0.34726,-0.13896 z m 2.87543,-0.65518 c 0.20418,-0.16945 0.37123,-0.43103 0.37123,-0.58129 0,-0.15025 -0.20836,-0.0854 -0.46302,0.14408 -0.25466,0.22949 -0.79044,0.49898 -1.19062,0.59885 -0.40019,0.0999 -0.72761,0.27944 -0.72761,0.39902 0,0.27378 1.51313,-0.14828 2.01002,-0.56066 z m 1.42956,-0.0159 c 0,-0.45701 -0.2313,-1.32021 -0.514,-1.91823 -0.28271,-0.59802 -0.58893,-1.77192 -0.6805,-2.60867 -0.0916,-0.83674 -0.27698,-1.52135 -0.41203,-1.52135 -0.29753,0 -0.29799,-0.0384 0.0267,2.20773 0.14399,0.99597 0.43928,2.06426 0.65622,2.37398 0.52986,0.75648 0.49831,1.68148 -0.0686,2.01168 -0.39585,0.23056 -0.35746,0.27085 0.26458,0.27773 0.641,0.007 0.7276,-0.0909 0.7276,-0.82287 z m -27.14187,-0.32185 c -0.0917,-0.23911 -0.25753,-0.43475 -0.36839,-0.43475 -0.29554,0 -0.0486,-1.70407 0.26213,-1.80853 0.14516,-0.0488 0.19663,-0.19764 0.11438,-0.33073 -0.0823,-0.13309 -0.0433,-0.24199 0.0865,-0.24199 0.30299,0 0.2991,0.036 0.49158,-4.55194 0.0898,-2.13976 0.0709,-4.104293 -0.042,-4.365623 -0.11287,-0.261329 -0.23615,-0.623384 -0.27394,-0.804566 -0.0947,-0.453856 0.52405,-2.728715 0.9572,-3.519241 0.3901,-0.711965 0.57624,-2.898212 0.24676,-2.898212 -0.11329,0 -0.26434,0.446484 -0.33566,0.992187 -0.13126,1.004369 -0.74421,2.824733 -1.05618,3.136697 -0.31292,0.312925 0.13066,-1.872113 0.50061,-2.46593 0.44944,-0.721408 0.47581,-1.085761 0.0476,-0.657538 -0.56704,0.567049 -0.81329,0.337381 -0.65883,-0.61447 0.0958,-0.590612 0.0541,-0.871934 -0.11398,-0.768059 -0.17396,0.107519 -0.19698,2.13497 -0.0669,5.892908 0.2507,7.242627 0.18556,8.795687 -0.44782,10.675827 -0.64365,1.91067 -0.63966,2.20118 0.0396,2.88043 0.6072,0.6072 0.8756,0.55656 0.61733,-0.11647 z m 10.72654,0.21326 c -0.13685,-0.1649 -0.22009,-0.35038 -0.18497,-0.41218 0.0351,-0.0618 -0.0493,-0.0211 -0.18751,0.0905 -0.13824,0.11157 -0.61449,0.21122 -1.05833,0.22145 -0.6899,0.0159 -0.73021,0.0515 -0.27781,0.24548 0.77884,0.33395 2.01884,0.22854 1.70862,-0.14524 z m 13.37263,-0.64801 c -0.0899,-0.14552 -0.48392,-0.25049 -0.87552,-0.23328 l -0.71198,0.0313 0.79375,0.20197 c 0.43656,0.11109 0.83054,0.21606 0.87551,0.23328 0.045,0.0172 0.008,-0.0878 -0.0818,-0.23328 z m 0.92604,0.14791 c 0,-0.0642 -0.13746,-0.20163 -0.30547,-0.30546 -0.18925,-0.11697 -0.23364,-0.0726 -0.11667,0.11667 0.1885,0.305 0.42214,0.40949 0.42214,0.18879 z m -17.88124,-1.62749 c 0.27902,-0.56868 0.67757,-1.36963 0.88568,-1.77988 0.2081,-0.41026 0.337,-0.76745 0.28644,-0.79375 -0.91428,-0.47569 -1.16338,-0.73938 -1.23128,-1.30336 -0.0685,-0.5689 0.1361,-0.79619 1.32291,-1.4696 1.84175,-1.04502 4.57603,-1.16265 6.40222,-0.27541 1.18527,0.57584 1.85404,1.49186 1.59054,2.17853 -0.0978,0.255 0.11491,0.43173 0.66524,0.5526 0.44501,0.0977 1.07849,0.52892 1.40773,0.95817 1.59718,2.08233 1.61727,2.09694 3.24447,2.3594 0.87312,0.14084 1.94938,0.25676 2.39168,0.2576 l 0.80418,0.002 -0.0233,-6.54844 c -0.0213,-5.992161 -0.14454,-7.475028 -0.62123,-7.474176 -0.25738,4.5e-4 -0.20394,12.233866 0.0558,12.763616 0.29764,0.60715 -0.32082,0.84537 -1.58101,0.60895 -1.74885,-0.32814 -4.61551,-3.46445 -8.47467,-9.271884 -1.16042,-1.74625 -2.84567,-4.245795 -3.745,-5.554545 l -1.63516,-2.379545 -1.78773,0.08717 c -0.98325,0.04794 -1.87756,0.172721 -1.98734,0.277282 -0.10979,0.104561 -0.24523,3.259399 -0.30098,7.01075 -0.0763,5.133682 -0.0135,7.153492 0.25365,8.166402 0.19525,0.74017 0.2939,1.44463 0.21921,1.56548 -0.2269,0.36713 -4.01045,0.26623 -4.16267,-0.11101 -0.0734,-0.1819 -0.14285,-0.0628 -0.15434,0.26458 -0.0166,0.47425 0.12708,0.59877 0.70672,0.6123 0.40018,0.009 1.44198,0.17021 2.3151,0.35749 1.97803,0.42426 2.51301,0.24437 3.15314,-1.06031 z m 3.23071,0.80161 c 0.30597,-0.46165 0.30571,-0.62219 -0.002,-1.04257 -0.34431,-0.47087 -0.38585,-0.45337 -0.79307,0.3341 -0.23634,0.45705 -0.42971,0.9647 -0.42971,1.12812 0,0.4665 0.82442,0.18395 1.22447,-0.41965 z m 7.28755,-0.18192 c -0.99292,-1.5936 -2.751,-2.01418 -2.90399,-0.69473 -0.12167,1.04929 0.56412,1.55462 2.10977,1.55462 h 1.33 z m 4.62895,0.6835 c -0.097,-0.097 -0.25576,-0.097 -0.35278,0 -0.097,0.097 -0.0176,0.17639 0.17639,0.17639 0.19403,0 0.2734,-0.0794 0.17639,-0.17639 z m 0.91571,-8.48871 c 0.0186,-3.601644 0.0642,-6.846097 0.10142,-7.209899 0.0372,-0.363802 0.1397,-3.84638 0.22776,-7.739062 l 0.16011,-7.077605 -0.85684,7.15e-4 -0.85684,7.14e-4 -0.0246,10.91335 c -0.025,11.063287 -0.15211,13.434947 -0.71919,13.416847 -0.3351,-0.0107 -0.57337,-0.33305 -4.19737,-5.6785 -2.28387,-3.368754 -5.17461,-7.552775 -7.58622,-10.980209 -2.34686,-3.335423 -5.06738,-7.470787 -5.06738,-7.702748 0,-0.129113 -0.38696,-0.234647 -0.8599,-0.234518 l -0.85989,2.34e-4 -0.0481,11.972162 c -0.0265,6.584689 -0.1247,13.013959 -0.2183,14.287269 l -0.17018,2.3151 0.87976,-10e-4 0.87976,-0.001 0.073,-11.435896 c 0.0401,-6.289524 0.17861,-11.541303 0.30771,-11.670403 0.269,-0.268998 0.41502,-0.107411 2.71107,3.000077 2.57063,3.479105 3.14493,4.300385 6.4756,9.260417 4.78963,7.132715 6.62788,9.493785 8.30747,10.670215 1.30348,0.913 1.30507,0.90579 1.34122,-6.10615 z m -21.65875,-0.92924 c 0.0368,-2.994936 -0.0217,-5.305862 -0.13018,-5.135393 -0.21696,0.34109 -0.28716,10.931093 -0.071,10.714953 0.0738,-0.0738 0.16436,-2.58463 0.2012,-5.57956 z m 12.15465,4.75233 c 0.0851,-0.44518 -0.0118,-0.61833 -0.36082,-0.64462 -0.26245,-0.0198 -0.5479,0.0785 -0.63434,0.21836 -0.0865,0.13986 -0.0144,0.22158 0.16015,0.1816 0.17453,-0.04 0.37822,0.0951 0.45264,0.30019 0.0951,0.26191 0.002,0.32187 -0.31139,0.20146 -0.26393,-0.10127 -0.38058,-0.0644 -0.28507,0.0901 0.29289,0.47391 0.86035,0.27267 0.97883,-0.34713 z m -4.74798,-0.64701 c -0.0664,-0.8428 0.24383,-1.24755 1.12144,-1.46327 0.48659,-0.11961 0.4821,-0.13254 -0.0558,-0.16077 -0.82882,-0.0435 -1.69167,0.95737 -1.49633,1.73566 0.12973,0.51688 0.0733,0.59404 -0.33663,0.46064 -0.40735,-0.13255 -0.42387,-0.11095 -0.0956,0.125 0.61304,0.4406 0.93224,0.18268 0.86294,-0.69726 z m 5.66345,0.021 c -0.097,-0.097 -0.17639,-0.0176 -0.17639,0.1764 0,0.19402 0.0794,0.2734 0.17639,0.17639 0.097,-0.097 0.097,-0.25577 0,-0.35278 z m 11.99067,-1.70153 c -0.006,-1.0772 -0.0518,-2.55386 -0.10118,-3.281461 -0.0822,-1.210294 0.17159,-4.397006 0.50567,-6.35 0.10929,-0.638836 0.0871,-0.690474 -0.11387,-0.264583 -0.20629,0.437268 -0.25611,0.34537 -0.28684,-0.529167 -0.0271,-0.772151 -0.0911,-0.920864 -0.23641,-0.549955 -0.1889,0.482066 -0.22218,0.475596 -0.64286,-0.125017 -0.60517,-0.863997 -0.55883,-0.464062 0.0855,0.738158 0.51108,0.953559 0.7363,2.98141 0.33073,2.977714 -0.10914,-0.001 -0.48302,-0.419666 -0.83083,-0.930382 -0.61072,-0.896751 -0.61612,-0.946559 -0.15743,-1.4534 0.26123,-0.288644 0.34572,-0.524816 0.18777,-0.524816 -0.15795,0 -0.33861,-0.208359 -0.40146,-0.463021 -0.0628,-0.254661 -0.0871,-0.192288 -0.0539,0.138607 0.0777,0.774049 -0.28646,1.000117 -0.63808,0.396125 -0.25991,-0.446435 -0.27318,-0.446077 -0.28085,0.0076 -0.009,0.558559 0.66578,1.960863 1.28063,2.659627 0.42442,0.482347 0.4704,0.824707 0.97442,7.256111 0.10579,1.34992 0.23689,2.40986 0.29133,2.35542 0.0544,-0.0544 0.0939,-0.98033 0.0876,-2.05752 z m -18.64935,1.61334 c 0.0899,-0.14552 0.10399,-0.26458 0.0312,-0.26458 -0.0728,0 -0.20587,0.11906 -0.29581,0.26458 -0.0899,0.14552 -0.10399,0.26459 -0.0312,0.26459 0.0728,0 0.20588,-0.11907 0.29581,-0.26459 z m 17.79898,-1.64154 c 0.0174,-1.09295 -0.0552,-1.51296 -0.21726,-1.25678 -0.40633,0.64233 -0.29254,2.89832 0.14619,2.89832 0.0247,0 0.0567,-0.73869 0.0711,-1.64154 z m -15.8146,1.11238 c 0,-0.14553 -0.0525,-0.26459 -0.11668,-0.26459 -0.0642,0 -0.19026,0.11906 -0.2802,0.26459 -0.0899,0.14552 -0.0374,0.26458 0.11668,0.26458 0.15411,0 0.2802,-0.11906 0.2802,-0.26458 z m 10.65557,-11.786042 c -0.25801,-0.18915 -0.7821,-0.281583 -1.16463,-0.205406 -0.38253,0.07618 -0.77671,0.0071 -0.87595,-0.153451 -0.1132,-0.183154 -0.34701,-0.206036 -0.6274,-0.0614 -0.24583,0.126805 -1.15177,0.192109 -2.01319,0.14512 -0.86142,-0.04699 -1.67105,-0.02064 -1.79918,0.05855 -0.12813,0.07919 0.10042,0.577813 0.50788,1.10805 0.40747,0.530238 1.55118,2.156637 2.54158,3.614219 0.9904,1.457582 2.24056,3.29497 2.77813,4.08309 l 0.9774,1.43295 0.0722,-4.838906 c 0.0653,-4.376601 0.0274,-4.871759 -0.39688,-5.182813 z m -5.89307,0.128755 c 0,-0.154109 0.11906,-0.206614 0.26458,-0.116677 0.14552,0.08994 0.26458,0.216026 0.26458,0.280198 0,0.06417 -0.11906,0.116677 -0.26458,0.116677 -0.14552,0 -0.26458,-0.126089 -0.26458,-0.280198 z m 11.22329,1.510212 c -0.0914,-0.238273 -0.27861,-0.363777 -0.41595,-0.278897 -0.14888,0.09201 -0.12246,0.307648 0.0654,0.534041 0.38705,0.466369 0.57492,0.329622 0.35052,-0.255144 z m -24.98163,-2.023764 c 0,-0.145521 -0.11906,-0.264583 -0.26458,-0.264583 -0.14552,0 -0.26458,0.119062 -0.26458,0.264583 0,0.145521 0.11906,0.264583 0.26458,0.264583 0.14552,0 0.26458,-0.119062 0.26458,-0.264583 z m 18.65313,-0.749653 c 0,-0.47854 -0.51787,-0.391177 -0.62058,0.104691 -0.0572,0.275885 0.042,0.396838 0.26458,0.322656 0.1958,-0.06527 0.356,-0.257572 0.356,-0.427347 z m 1.6989,-1.565451 c -0.0212,-2.078232 -0.0574,-2.148754 -0.37442,-0.727866 l -0.17701,0.793488 -0.3395,-0.634359 -0.3395,-0.63436 -0.12252,0.834785 c -0.11693,0.796732 0.66485,2.402497 1.1754,2.414261 0.10914,0.0025 0.18904,-0.918163 0.17755,-2.045949 z m -7.442,-0.111127 c -0.0456,-1.11269 -0.20159,-1.937983 -0.37728,-1.996028 -0.20612,-0.0681 -0.26081,0.296615 -0.17536,1.169461 l 0.12418,1.268423 -0.54835,-0.859896 c -0.54264,-0.850927 -1.0853,-1.133999 -1.0853,-0.566128 0,0.419067 1.63069,2.881232 1.90824,2.881232 0.12738,0 0.19663,-0.853679 0.15387,-1.897064 z m 1.67972,1.367898 c 0.14198,0 0.17308,0.137648 0.0691,0.305884 -0.13639,0.220686 0.0619,0.255865 0.71199,0.1263 0.49557,-0.09877 0.94073,-0.29595 0.98923,-0.438176 0.0485,-0.142225 0.20437,-0.258592 0.34635,-0.258592 0.14198,0 0.18456,0.119063 0.0946,0.264584 -0.25665,0.415256 0.21065,0.293263 0.79383,-0.20724 0.61392,-0.526886 1.29317,-1.909427 0.93812,-1.909427 -0.1326,0 -0.32166,0.253857 -0.42013,0.564126 -0.14065,0.443149 -0.22872,0.485703 -0.41066,0.198437 -0.18368,-0.290022 -0.23244,-0.269882 -0.23565,0.09733 -0.002,0.254661 -0.0346,0.463021 -0.072,0.463021 -0.0373,0 -0.48382,0.115225 -0.99219,0.256056 -0.74055,0.205155 -0.84539,0.191815 -0.52742,-0.0671 0.51655,-0.420605 0.6369,-1.017186 0.25306,-1.254415 -0.18416,-0.113817 0.0451,-0.316508 0.58134,-0.514045 0.53041,-0.195373 0.7418,-0.380942 0.52725,-0.462835 -0.19698,-0.07519 -0.67323,0.0971 -1.05834,0.382851 -0.75909,0.563266 -2.14529,2.421859 -2.12571,2.850115 0.007,0.145521 0.0721,0.115755 0.14555,-0.06615 0.0734,-0.181901 0.24962,-0.330729 0.3916,-0.330729 z m -13.83564,-0.595313 c -0.0384,-0.833608 -0.0431,-0.836935 -0.15213,-0.108849 -0.10536,0.703462 -0.13584,0.720225 -0.48111,0.264583 -0.32663,-0.431056 -0.36958,-0.436237 -0.37704,-0.04549 -0.008,0.398261 0.31224,0.672002 0.85149,0.728765 0.10914,0.01149 0.18059,-0.366065 0.15879,-0.839009 z m 4.53162,-2.398291 c -0.53808,-0.802003 -0.55828,-0.809492 -0.41688,-0.15453 0.19965,0.924754 -0.13047,1.193359 -0.54624,0.444453 -0.31785,-0.572528 -0.33559,-0.551622 -0.34448,0.405971 -0.0114,1.232956 0.36625,1.992876 1.1324,2.278346 0.53368,0.198851 0.58425,0.125366 0.65935,-0.958007 0.0594,-0.857615 -0.0708,-1.400195 -0.48415,-2.016233 z m 20.89354,2.398291 c -0.23445,-0.8326 -0.48634,-1.458698 -1.1443,-2.844271 -0.17276,-0.363802 -0.57802,-0.699504 -0.90058,-0.746006 -0.72873,-0.105057 -0.75188,0.249714 -0.0573,0.878298 0.29104,0.263389 0.52916,0.624451 0.52916,0.80236 0,0.177909 0.17729,0.470603 0.39397,0.650431 0.41408,0.343658 0.28003,0.916906 -0.15198,0.64991 -0.13784,-0.08519 -0.18212,-0.265726 -0.0984,-0.401191 0.0837,-0.135466 -0.0334,-0.246302 -0.26027,-0.246302 -0.22687,0 -0.41249,-0.119062 -0.41249,-0.264583 0,-0.145521 -0.1786,-0.264583 -0.39688,-0.264583 -0.63296,0 -0.46406,0.496353 0.46302,1.360711 0.77309,0.720778 1.60251,1.222158 2.0982,1.268351 0.099,0.0092 0.071,-0.370182 -0.0622,-0.843125 z m -27.85061,0.01654 c -0.0845,-0.211067 -0.14716,-0.148372 -0.15985,0.159852 -0.0115,0.278915 0.051,0.435185 0.13896,0.347266 0.0879,-0.08792 0.0973,-0.316122 0.0209,-0.507118 z m 8.81104,0.380338 c -0.002,-0.10914 -0.11481,-0.373583 -0.25019,-0.58765 -0.30484,-0.482014 -0.66247,-0.180559 -0.4482,0.377802 0.15824,0.412372 0.70589,0.576925 0.69839,0.209848 z m 16.86809,-0.248834 c -0.246,-0.246 -0.52156,-0.372983 -0.61236,-0.282186 -0.26039,0.260398 0.13936,0.729458 0.62168,0.729458 0.40388,0 0.40315,-0.0348 -0.009,-0.447272 z m -24.10758,-1.027023 c 0.77249,-1.012786 1.26237,-3.817372 0.66679,-3.817372 -0.19069,0 -0.24086,0.390887 -0.14435,1.124479 0.10374,0.788558 0.0271,1.28256 -0.25649,1.653646 -0.39346,0.514828 -0.40112,0.511243 -0.28251,-0.132292 0.0985,-0.534209 0.0449,-0.496034 -0.2785,0.198438 -0.22023,0.472943 -0.46187,0.859896 -0.53699,0.859896 -0.21304,0 0.17697,-1.411878 0.50531,-1.829255 0.2487,-0.316155 0.2021,-0.324952 -0.30107,-0.05684 -0.68411,0.364523 -0.76909,0.100324 -0.20685,-0.643026 0.62501,-0.826343 0.51389,-1.401243 -0.14374,-0.743617 -0.49405,0.494052 -0.53036,0.738368 -0.36269,2.440046 0.10249,1.040062 0.28396,1.891022 0.40327,1.891022 0.11931,0 0.54133,-0.425307 0.93782,-0.945128 z m 14.18833,-0.607724 c -0.47476,-0.483882 -0.55776,-0.335759 -0.39844,0.711114 0.13104,0.861075 0.13962,0.866191 0.44374,0.264583 0.24442,-0.483533 0.23483,-0.690192 -0.0453,-0.975697 z m 2.8448,0.801359 c 0,-0.122279 0.44507,-0.538998 0.98904,-0.926041 0.54398,-0.387044 0.80546,-0.703716 0.58107,-0.703716 -0.22438,0 -0.81187,0.416719 -1.30553,0.926042 -0.49365,0.509323 -0.75514,0.926041 -0.58107,0.926041 0.17407,0 0.31649,-0.100046 0.31649,-0.222326 z m -1.5875,-1.497465 c 0,-0.218281 -0.17157,-0.396875 -0.38126,-0.396875 -0.44203,0 -0.74041,0.377633 -0.49349,0.624554 0.31621,0.316218 0.87475,0.170844 0.87475,-0.227679 z m 8.59896,-0.132292 c -0.0899,-0.145521 -0.30533,-0.26276 -0.47864,-0.260532 -0.18934,0.0024 -0.1567,0.106423 0.0818,0.260532 0.5083,0.328487 0.59989,0.328487 0.39688,0 z m -12.63386,-0.166763 c 0.32742,-0.08775 0.59531,-0.272622 0.59531,-0.410837 0,-0.368272 -1.39527,-0.142105 -1.52299,0.246871 -0.1208,0.367868 0.0525,0.398501 0.92768,0.163966 z m -1.7321,-1.154481 c -0.24789,-0.435642 -0.54001,-0.79283 -0.64915,-0.79375 -0.29657,-0.0025 -0.24398,0.212013 0.22887,0.933678 0.60803,0.927978 0.96107,0.810439 0.42028,-0.139928 z m 5.34043,-0.0017 c 0.10627,0 0.12435,0.111422 0.0402,0.247604 -0.1908,0.308715 1.74917,0.615247 3.1645,0.500018 0.58209,-0.04739 1.01032,-0.205226 0.95164,-0.350747 -0.0587,-0.14552 -0.32658,-0.227333 -0.59532,-0.181806 -0.26873,0.04553 -0.48861,-0.04377 -0.48861,-0.198437 0,-0.537104 1.55255,-0.311733 1.86421,0.270612 0.16243,0.303505 0.35486,0.492296 0.42762,0.419536 0.0728,-0.07276 -6.1e-4,-0.380614 -0.16303,-0.684119 -0.37132,-0.693817 -2.24279,-0.796718 -2.49586,-0.137233 -0.1004,0.261638 -0.40672,0.383654 -0.83029,0.330729 -0.69857,-0.08729 -0.93079,-0.610496 -0.27357,-0.616406 0.20638,-0.0019 0.46302,-0.09115 0.5703,-0.198438 0.10729,-0.107284 0.59194,-0.195063 1.07701,-0.195063 1.26169,0 1.09023,-0.431536 -0.24253,-0.610416 -0.86673,-0.116329 -1.24578,-0.04031 -1.65365,0.331628 -0.29104,0.265404 -0.78136,0.558807 -1.08959,0.652008 -0.30823,0.0932 -0.78448,0.434308 -1.05833,0.758014 -0.49644,0.586811 -0.49628,0.587183 0.0521,0.125537 0.3025,-0.254661 0.63694,-0.463021 0.74322,-0.463021 z m 11.06723,-0.04851 c -0.40416,-0.404155 -0.70237,-0.105936 -0.47822,0.478213 0.13236,0.344906 0.2471,0.379083 0.48248,0.143703 0.23538,-0.235379 0.23437,-0.383287 -0.004,-0.621916 z m -11.699,-0.653959 c 0,-0.195727 -0.11231,-0.355868 -0.24958,-0.355868 -0.35956,0 -1.07853,1.100452 -0.90374,1.383271 0.18828,0.304649 1.15332,-0.555028 1.15332,-1.027403 z m -14.2875,0.570174 c 0,-0.218281 -0.0468,-0.396875 -0.10398,-0.396875 -0.0572,0 -0.17252,0.178594 -0.25628,0.396875 -0.0838,0.218281 -0.037,0.396875 0.10398,0.396875 0.14096,0 0.25628,-0.178594 0.25628,-0.396875 z m 4.14949,-0.181901 c -0.0845,-0.211067 -0.14715,-0.148372 -0.15985,0.159852 -0.0115,0.278915 0.0511,0.435185 0.13897,0.347266 0.0879,-0.08792 0.0973,-0.316122 0.0209,-0.507118 z m 8.20373,-0.677995 c -0.0665,-0.254662 -0.121,-0.0463 -0.121,0.463021 0,0.509323 0.0545,0.717682 0.121,0.463021 0.0666,-0.254662 0.0666,-0.671381 0,-0.926042 z m -2.20775,0.583901 c -0.0862,-0.224557 -0.21342,-0.351541 -0.28277,-0.282186 -0.0694,0.06936 -0.0476,0.253084 0.0483,0.408286 0.26089,0.422133 0.41338,0.340125 0.23447,-0.1261 z m 1.40685,-0.451609 c -0.0734,-0.181901 -0.13346,-0.03307 -0.13346,0.330729 0,0.363802 0.0601,0.51263 0.13346,0.330729 0.0734,-0.181901 0.0734,-0.479557 0,-0.661458 z m 14.4597,-2.382717 0.09,-2.04439 -1.25019,1.338652 c -0.86987,0.931417 -1.2826,1.616243 -1.35672,2.251141 -0.14851,1.272103 0.29157,0.996749 0.90088,-0.563671 0.28155,-0.721047 0.63014,-1.430057 0.77463,-1.575578 0.16451,-0.165676 0.16003,0.0074 -0.012,0.463021 -0.15107,0.400182 -0.18833,0.729427 -0.0828,0.731656 0.10554,0.0022 0.0133,0.130355 -0.20499,0.284726 -0.28832,0.203908 -0.30924,0.316437 -0.0765,0.411427 0.20537,0.08381 0.26477,0.432786 0.16546,0.972044 l -0.15493,0.841293 0.55859,-0.532965 c 0.45426,-0.433423 0.57539,-0.914797 0.64854,-2.577356 z m -15.1641,2.316571 c 0,-0.218281 -0.11906,-0.396875 -0.26458,-0.396875 -0.14552,0 -0.26459,0.178594 -0.26459,0.396875 0,0.218281 0.11907,0.396875 0.26459,0.396875 0.14552,0 0.26458,-0.178594 0.26458,-0.396875 z m 13.70218,-0.433046 c -0.0661,-0.198159 -0.18599,-0.07823 -0.27955,0.279545 -0.11508,0.440094 -0.0807,0.543396 0.11569,0.347057 0.15375,-0.15375 0.22749,-0.435721 0.16386,-0.626602 z m -25.95521,-0.691433 c -0.0666,-0.254662 -0.121,-0.0463 -0.121,0.46302 0,0.509323 0.0545,0.717683 0.121,0.463021 0.0665,-0.254661 0.0665,-0.67138 0,-0.926041 z m 17.28011,0.506628 c 0,-0.32494 -0.60415,-0.837358 -0.98726,-0.837358 -0.50684,0 -0.7151,0.733414 -0.33747,1.188435 0.23865,0.287551 0.45172,0.318505 0.82335,0.119613 0.27576,-0.147583 0.50138,-0.359393 0.50138,-0.47069 z m -1.05833,0.136696 c 0,-0.493952 0.43153,-0.816916 0.64026,-0.479182 0.0812,0.131406 -0.0296,0.386052 -0.2463,0.56588 -0.32032,0.265844 -0.39396,0.249638 -0.39396,-0.0867 z m 5.00447,-1.040199 c -0.1003,-0.909506 -0.26804,-1.862006 -0.37277,-2.116667 -0.11382,-0.276792 -0.0726,-0.463021 0.10249,-0.463021 0.16109,0 0.29289,-0.133641 0.29289,-0.29698 0,-0.201378 -0.13155,-0.187799 -0.40866,0.04218 -0.34541,0.286662 -0.57067,0.180976 -1.45521,-0.682758 -1.21751,-1.188872 -1.29691,-1.605549 -0.38508,-2.021004 0.3638,-0.165759 0.66145,-0.40552 0.66145,-0.532803 0,-0.127283 -0.26789,-0.08288 -0.59531,0.09868 -0.32742,0.181557 -0.68461,0.304809 -0.79375,0.273892 -0.10914,-0.03092 -0.19844,0.281558 -0.19844,0.694387 0,0.544522 0.36792,1.128308 1.34006,2.126341 1.71878,1.764566 1.72534,2.507382 0.0232,2.629639 -0.68528,0.04922 -1.08698,-0.01979 -0.99371,-0.170713 0.0861,-0.139333 -0.0384,-0.328143 -0.27665,-0.419577 -0.23828,-0.09143 -0.36772,-0.231752 -0.28766,-0.311817 0.0801,-0.08007 0.51733,0.04667 0.97169,0.281624 1.15245,0.595957 1.50253,0.243811 0.5524,-0.555668 -0.43413,-0.365302 -0.8933,-0.599934 -1.02036,-0.521406 -0.12706,0.07853 -0.45692,-0.02822 -0.73302,-0.237207 -0.51718,-0.39148 -1.42804,-0.532529 -1.42804,-0.221136 0,0.570092 0.96102,2.201057 1.4299,2.426717 0.89739,0.43189 2.07728,0.631441 1.88395,0.318627 -0.1036,-0.167621 0.14629,-0.275189 0.63929,-0.275189 0.7229,0 0.80936,0.08479 0.80936,0.79375 0,0.436563 0.0955,0.79375 0.21217,0.79375 0.11669,0 0.13011,-0.74414 0.0298,-1.653645 z m -4.21072,-1.785938 c 0,-0.194028 0.0794,-0.273403 0.17639,-0.176389 0.097,0.09701 0.097,0.255764 0,0.352778 -0.097,0.09701 -0.17639,0.01764 -0.17639,-0.176389 z m -15.34988,1.638031 c 0.002,-0.515463 0.11286,-0.808264 0.26863,-0.711989 0.14552,0.08994 0.26458,0.03743 0.26458,-0.116677 0,-0.154109 -0.0914,-0.280198 -0.20301,-0.280198 -0.34891,0 -1.3666,-2.984615 -1.44348,-4.233334 -0.0664,-1.079031 -0.014,-1.199006 0.55926,-1.280053 0.52458,-0.07416 0.59806,-0.0064 0.43047,0.396875 -0.79436,1.911624 -0.79312,1.846523 -0.052,2.727269 0.83773,0.995593 0.9012,0.896821 0.19766,-0.307613 -0.46011,-0.787692 -0.47421,-0.961735 -0.14128,-1.743907 0.22936,-0.538862 0.69126,-1.004035 1.21607,-1.224701 0.82888,-0.348518 0.81543,-0.354036 -0.65585,-0.269117 -0.82614,0.04768 -1.61903,0.158977 -1.76197,0.247321 -0.1485,0.09178 -0.23211,1.246011 -0.19506,2.692853 0.0357,1.392726 0.10333,2.338563 0.15038,2.10186 0.22659,-1.13992 1.10508,0.196782 1.10508,1.681472 0,0.414963 -0.12587,0.796436 -0.27972,0.847719 -0.15512,0.05171 -0.19765,0.307134 -0.0955,0.5734 0.2603,0.678338 0.63046,0.03717 0.63573,-1.10118 z m 13.62659,0.49455 c 0.0886,-0.403496 0.12567,-0.899565 0.0823,-1.102376 -0.0495,-0.231498 0.1034,-0.337541 0.41075,-0.284905 0.31389,0.05375 0.42221,-0.02515 0.30187,-0.219876 -0.10654,-0.172381 -0.46225,-0.234812 -0.82259,-0.144373 -0.73487,0.184439 -2.07691,-0.42599 -2.31804,-1.054363 -0.28263,-0.736515 -0.17963,-2.645769 0.16638,-3.084217 0.1819,-0.230497 0.68791,-0.616622 1.12448,-0.858054 l 0.79375,-0.438969 -0.72761,0.151067 c -0.41658,0.08649 -0.7276,0.03581 -0.7276,-0.118557 0,-0.361558 -1.6703,-0.345579 -2.03535,0.01947 -0.20907,0.209071 -0.43862,0.209071 -0.82927,0 -0.86107,-0.460832 -1.494,-0.340694 -2.18249,0.414264 l -0.64143,0.703358 0.85593,-0.617896 c 0.75102,-0.542154 0.93393,-0.576153 1.49223,-0.27736 0.62395,0.333924 0.62659,0.350243 0.13625,0.840579 -0.27502,0.275024 -0.49527,0.708403 -0.48945,0.963065 0.008,0.33012 0.1239,0.254178 0.40533,-0.264584 0.41226,-0.75991 0.87594,-0.917413 1.33864,-0.454708 0.18748,0.187473 0.23605,0.02183 0.15518,-0.529167 -0.10956,-0.746495 -0.0606,-0.802062 0.70606,-0.802062 0.96758,0 0.98599,0.05945 0.31053,1.002901 -1.0626,1.48421 -0.56089,3.620448 1.0649,4.534189 1.19417,0.671163 1.44022,1.221618 0.90869,2.03285 -0.3393,0.517826 -0.34284,0.592832 -0.0222,0.469782 0.20987,-0.08054 0.45409,-0.476562 0.54271,-0.880058 z m -4.59135,-1.526235 c 0.74531,-1.614288 0.99141,-3.341522 0.51779,-3.63423 -0.29559,-0.182687 -1.3469,1.923933 -1.3469,2.698929 0,0.30927 -0.10553,0.627527 -0.2345,0.707239 -0.31015,0.191682 -0.50641,-0.614635 -0.43518,-1.787865 0.0513,-0.844192 0.005,-0.917777 -0.4302,-0.684851 -0.56542,0.302602 -0.59773,0.750228 -0.19323,2.676722 0.30904,1.471807 1.05445,2.66971 1.25555,2.017698 0.0596,-0.193066 0.44955,-1.090205 0.86667,-1.993642 z m 0.69376,0.74631 c -0.34765,-0.124615 -0.9942,0.707755 -0.99239,1.277601 8.5e-4,0.268975 0.22346,0.136335 0.63991,-0.381299 0.37068,-0.460755 0.51856,-0.836772 0.35248,-0.896302 z m 10.29519,1.116788 c -0.097,-0.09701 -0.17639,-0.01764 -0.17639,0.176389 0,0.194028 0.0794,0.273403 0.17639,0.176389 0.097,-0.09701 0.097,-0.255764 0,-0.352778 z m -19.31459,-0.264583 c -0.097,-0.09701 -0.17639,-0.01764 -0.17639,0.176389 0,0.194028 0.0794,0.273403 0.17639,0.176389 0.097,-0.09701 0.097,-0.255764 0,-0.352778 z m 10.07071,0.01654 c -0.0879,-0.08792 -0.31613,-0.09732 -0.50712,-0.02089 -0.21107,0.08446 -0.14837,0.147156 0.15985,0.159852 0.27892,0.01149 0.43518,-0.05105 0.34727,-0.138964 z m 1.12999,-0.09542 c 0,-0.24978 -0.83657,-0.803059 -1.21424,-0.803059 -0.10488,0 0.0248,0.238125 0.2882,0.529166 0.51306,0.56693 0.92604,0.689075 0.92604,0.273893 z m -0.52917,-1.596809 c -0.20985,-0.129696 -0.44108,-0.17628 -0.51384,-0.10352 -0.0728,0.07276 0.0394,0.238407 0.24926,0.368103 0.20985,0.129696 0.44108,0.17628 0.51384,0.103519 0.0728,-0.07276 -0.0394,-0.238406 -0.24926,-0.368102 z m -12.25468,-0.314193 c -0.0845,-0.211067 -0.14715,-0.148372 -0.15985,0.159853 -0.0115,0.278914 0.051,0.435184 0.13897,0.347265 0.0879,-0.08792 0.0973,-0.316122 0.0209,-0.507118 z m 11.33497,0.02967 c 0.0959,-0.302008 0.10387,-0.619508 0.0178,-0.705555 -0.0861,-0.08605 -0.15645,0.04199 -0.15645,0.284522 0,0.242535 -0.11907,0.440972 -0.26459,0.440972 -0.14552,0 -0.26458,0.119063 -0.26458,0.264584 0,0.482746 0.49061,0.273714 0.66779,-0.284523 z m 9.65096,-0.244644 c 0,-0.291042 -0.10791,-0.529167 -0.23981,-0.529167 -0.1319,0 -0.17754,0.238125 -0.10143,0.529167 0.0761,0.291042 0.18402,0.529167 0.23981,0.529167 0.0558,0 0.10143,-0.238125 0.10143,-0.529167 z m 3.69606,-0.529167 c 0,-0.352777 -0.0285,-0.352777 -0.25648,0 -0.14106,0.218282 -0.25647,0.575469 -0.25647,0.79375 0,0.352778 0.0285,0.352778 0.25647,0 0.14107,-0.218281 0.25648,-0.575468 0.25648,-0.79375 z m -5.28356,0.677074 c 0,-0.06417 -0.13746,-0.201631 -0.30546,-0.305464 -0.18926,-0.116967 -0.23365,-0.07258 -0.11668,0.116677 0.1885,0.304999 0.42214,0.409486 0.42214,0.188787 z m 6.593,-0.901333 c 0.1439,-0.268863 0.38204,-1.191597 0.52921,-2.05052 0.14717,-0.858924 0.34517,-1.82957 0.44,-2.156991 0.20319,-0.701542 -0.12356,-0.7614 -1.17847,-0.215884 -1.12168,0.580044 -1.41648,1.08769 -1.50912,2.598704 l -0.0851,1.387492 0.53292,-1.322917 c 0.2931,-0.727604 0.56231,-1.474639 0.59824,-1.660078 0.0814,-0.420385 1.22303,-1.245589 1.22303,-0.884081 0,0.145184 -0.12534,0.34144 -0.27855,0.436124 -0.1532,0.09468 -0.23293,0.309008 -0.17717,0.476274 0.0557,0.167266 -0.0582,0.463671 -0.25319,0.658677 -0.19501,0.195007 -0.33682,0.67232 -0.31514,1.060696 0.0217,0.388376 -0.0496,1.03356 -0.15841,1.433743 -0.22841,0.84009 0.21933,1.009314 0.63171,0.238761 z m -19.02842,-0.452814 c 0,-0.436582 -0.41816,-0.510342 -0.66145,-0.116677 -0.21577,0.349122 0.10059,0.844569 0.41515,0.65016 0.13547,-0.08372 0.2463,-0.32379 0.2463,-0.533483 z m 7.11769,-0.513004 c -0.12228,-0.654542 -0.1537,-1.368917 -0.0698,-1.5875 0.1028,-0.267887 -0.012,-0.397423 -0.35205,-0.397423 -0.74021,0 -1.13956,0.521881 -1.13956,1.489226 0,0.944664 0.57488,1.685774 1.30766,1.685774 0.42081,0 0.45029,-0.138227 0.25378,-1.190077 z m 3.59794,0.396327 c -0.0899,-0.14552 -0.27556,-0.264583 -0.41249,-0.264583 -0.13693,0 -0.24897,0.119063 -0.24897,0.264583 0,0.145521 0.18562,0.264584 0.41249,0.264584 0.22687,0 0.33891,-0.119063 0.24897,-0.264584 z m 7.1922,-0.314192 c -0.0845,-0.211067 -0.14716,-0.148372 -0.15985,0.159852 -0.0115,0.278915 0.051,0.435184 0.13896,0.347266 0.0879,-0.08792 0.0973,-0.316122 0.0209,-0.507118 z m -8.11824,-0.177136 c 0,-0.09357 -0.29766,-0.17013 -0.66146,-0.17013 -0.6974,0 -0.89025,0.272972 -0.33073,0.468143 0.38315,0.133652 0.99219,-0.04928 0.99219,-0.298013 z m -7.75676,-0.352031 c -0.0845,-0.211067 -0.14716,-0.148372 -0.15985,0.159853 -0.0115,0.278914 0.051,0.435184 0.13896,0.347265 0.0879,-0.08792 0.0973,-0.316122 0.0209,-0.507118 z m 11.56959,0.352414 c 0.0769,-0.1245 -0.15415,-0.170151 -0.51355,-0.101448 -0.3594,0.0687 -0.65345,0.170567 -0.65345,0.226363 0,0.204721 1.03152,0.09431 1.167,-0.124915 z m -14.0526,-0.282536 c 0.60493,-0.229993 1.13695,-1.009201 0.87078,-1.275367 -0.0666,-0.06656 -0.38947,0.12907 -0.71758,0.434744 -0.3281,0.305674 -0.75269,0.555771 -0.94353,0.555771 -0.19084,0 -0.34699,0.119063 -0.34699,0.264583 0,0.329151 0.31035,0.334682 1.13732,0.02027 z m 8.63367,-1.160363 c 0.0102,-0.263249 -0.10046,-0.405051 -0.24599,-0.315114 -0.14552,0.08994 -0.25621,0.543448 -0.24598,1.007802 0.0157,0.71168 0.0543,0.761171 0.24598,0.315115 0.12507,-0.291042 0.23576,-0.744553 0.24599,-1.007803 z m 4.16374,0.963705 c -0.097,-0.09701 -0.25577,-0.09701 -0.35278,0 -0.097,0.09701 -0.0176,0.176389 0.17639,0.176389 0.19403,0 0.2734,-0.07938 0.17639,-0.176389 z m -17.98732,-0.66697 c -0.0845,-0.211067 -0.14716,-0.148372 -0.15985,0.159853 -0.0115,0.278914 0.051,0.435184 0.13896,0.347265 0.0879,-0.08792 0.0973,-0.316122 0.0209,-0.507118 z m 15.42968,0.214298 c 0,-0.44454 -0.74066,-1.099729 -0.97654,-0.86385 -0.0935,0.0935 -0.0311,0.169995 0.13869,0.169995 0.16977,0 0.30868,0.238125 0.30868,0.529166 0,0.291042 0.11906,0.529167 0.26458,0.529167 0.14553,0 0.26459,-0.164015 0.26459,-0.364478 z m 3.43958,0.01769 c -0.45693,-0.234173 -0.65871,-0.554099 -0.65256,-1.034665 0.005,-0.38262 -0.0844,-0.638011 -0.19844,-0.567535 -0.63228,0.390769 0.11064,1.950522 0.92646,1.945092 0.56644,-0.0038 0.56393,-0.01521 -0.0755,-0.342892 z m -13.59623,-1.166796 c -0.11295,-0.112954 -0.37423,0.02556 -0.58061,0.307804 -0.58285,0.797101 -0.44185,1.125405 0.20537,0.478181 0.31934,-0.319337 0.4882,-0.673031 0.37524,-0.785985 z m 2.48373,-0.236708 c 0,-0.770129 -0.54205,-0.583112 -0.91803,0.316735 -0.54286,1.299236 -0.51618,1.365773 0.25657,0.639812 0.3638,-0.341774 0.66146,-0.772221 0.66146,-0.956547 z m 6.87917,1.22113 c 0,-0.14552 -0.11906,-0.264583 -0.26459,-0.264583 -0.14552,0 -0.26458,0.119063 -0.26458,0.264583 0,0.145521 0.11906,0.264584 0.26458,0.264584 0.14553,0 0.26459,-0.119063 0.26459,-0.264584 z m 2.64583,-0.280198 c 0,-0.136933 -0.11906,-0.248968 -0.26458,-0.248968 -0.14552,0 -0.26459,0.18562 -0.26459,0.41249 0,0.226869 0.11907,0.338905 0.26459,0.248968 0.14552,-0.08994 0.26458,-0.275557 0.26458,-0.41249 z m -12.91952,-0.844281 c 0.15456,-0.300519 0.13902,-0.463021 -0.0443,-0.463021 -0.34644,0 -0.78905,1.095407 -0.58273,1.442177 0.0823,0.138353 0.20348,0.07882 0.26927,-0.132292 0.0658,-0.211113 0.22676,-0.592202 0.35774,-0.846864 z m 15.56535,-0.07545 c 0,-0.213161 -0.11532,-0.387566 -0.25627,-0.387566 -0.14096,0 -0.18775,0.178594 -0.10399,0.396875 0.0964,0.251313 -0.004,0.396875 -0.27289,0.396875 -0.23385,0 -0.42518,0.123252 -0.42518,0.273893 0,0.185698 0.1704,0.1827 0.52917,-0.0093 0.29104,-0.155761 0.52916,-0.457606 0.52916,-0.670768 z m 6.00158,0.356575 c -0.0845,-0.211067 -0.14716,-0.148372 -0.15985,0.159853 -0.0115,0.278914 0.051,0.435184 0.13896,0.347265 0.0879,-0.08792 0.0973,-0.316122 0.0209,-0.507118 z m -25.31616,-0.347263 c 0.18374,-0.221387 0.21239,-0.396875 0.0648,-0.396875 -0.14552,0 -0.4128,0.178594 -0.59396,0.396875 -0.18373,0.221388 -0.21238,0.396875 -0.0648,0.396875 0.14552,0 0.4128,-0.178593 0.59396,-0.396875 z m 21.98036,-0.461345 0.78386,-0.85822 -0.69265,-0.230883 c -0.82775,-0.275916 -2.26695,0.08033 -2.44163,0.60438 -0.0893,0.267934 0.0136,0.316102 0.37615,0.175951 1.02637,-0.39684 1.95433,-0.48658 1.95433,-0.188997 0,0.259966 -0.763,0.434604 -1.40873,0.322433 -0.11996,-0.02084 -0.14722,0.07681 -0.0606,0.216989 0.0866,0.140183 -0.0533,0.377637 -0.31107,0.527677 -0.40254,0.23435 -0.36393,0.273933 0.27394,0.280845 0.50636,0.0055 0.99182,-0.264911 1.52638,-0.850175 z m -19.58172,0.319745 c 0.80028,-0.428297 0.61161,-0.776135 -0.28197,-0.519858 -0.83216,0.238659 -1.01166,0.05916 -0.47625,-0.47625 0.20685,-0.206858 0.21814,-0.3175 0.0324,-0.3175 -0.33045,0 -0.7259,0.462258 -0.96197,1.124479 -0.12926,0.362593 -0.0196,0.463021 0.50548,0.463021 0.36881,0 0.90085,-0.123252 1.18232,-0.273892 z m 12.02115,-0.255275 c -0.50742,-0.560691 -0.19644,-0.752064 0.34396,-0.211666 0.24695,0.246944 0.3175,0.235185 0.3175,-0.05292 0,-0.288102 0.0706,-0.299861 0.3175,-0.05292 0.45902,0.459021 0.86669,0.391076 0.47625,-0.07937 -0.39823,-0.479833 -2.4014,-0.535477 -2.8575,-0.07937 -0.52151,0.521507 -0.37055,0.703341 0.67469,0.812677 0.5457,0.05708 1.0404,0.1238 1.09934,0.148263 0.0589,0.02446 -0.10835,-0.193648 -0.37174,-0.48469 z m -16.09548,-0.176389 c -0.097,-0.09701 -0.17639,-0.01764 -0.17639,0.176389 0,0.194028 0.0794,0.273403 0.17639,0.176389 0.097,-0.09701 0.097,-0.255764 0,-0.352778 z m 11.72986,0.176389 c 0,-0.14552 -0.11906,-0.264583 -0.26459,-0.264583 -0.14552,0 -0.26458,0.119063 -0.26458,0.264583 0,0.145521 0.11906,0.264584 0.26458,0.264584 0.14553,0 0.26459,-0.119063 0.26459,-0.264584 z m -4.61464,-0.38846 c 0.28248,-0.213653 0.39453,-0.38846 0.24901,-0.38846 -0.14552,0 -0.4957,0.174807 -0.77817,0.38846 -0.28248,0.213653 -0.39453,0.38846 -0.24901,0.38846 0.14552,0 0.4957,-0.174807 0.77817,-0.38846 z m -1.80702,-0.565142 c -0.0879,-0.08792 -0.31612,-0.09732 -0.50712,-0.02089 -0.21107,0.08446 -0.14837,0.147157 0.15985,0.159853 0.27892,0.01149 0.43519,-0.05105 0.34727,-0.138965 z"
       id="path22110" />
  </g>
</svg>
