<?xml version="1.0" encoding="UTF-8" standalone="no"?>
<!-- Created with Inkscape (http://www.inkscape.org/) -->

<svg
   width="47.190498mm"
   height="48.126846mm"
   viewBox="0 0 47.19051 48.126845"
   version="1.1"
   id="svg5"
   inkscape:version="1.1 (c4e8f9ed74, 2021-05-24)"
   sodipodi:docname="ornatel5.svg"
   xmlns:inkscape="http://www.inkscape.org/namespaces/inkscape"
   xmlns:sodipodi="http://sodipodi.sourceforge.net/DTD/sodipodi-0.dtd"
   xmlns="http://www.w3.org/2000/svg"
   xmlns:svg="http://www.w3.org/2000/svg">
  <sodipodi:namedview
     id="namedview7"
     pagecolor="#ffffff"
     bordercolor="#666666"
     borderopacity="1.0"
     inkscape:pageshadow="2"
     inkscape:pageopacity="0.0"
     inkscape:pagecheckerboard="0"
     inkscape:document-units="mm"
     showgrid="false"
     inkscape:zoom="1.8923042"
     inkscape:cx="-90.10179"
     inkscape:cy="89.044878"
     inkscape:window-width="2506"
     inkscape:window-height="1403"
     inkscape:window-x="1974"
     inkscape:window-y="0"
     inkscape:window-maximized="1"
     inkscape:current-layer="layer1" />
  <defs
     id="defs2" />
  <g
     inkscape:label="Layer 1"
     inkscape:groupmode="layer"
     id="layer1"
     transform="translate(524.34406,-725.88296)">
    <path
       style="fill:#000000;stroke-width:0.264583"
       d="m -510.79337,773.84332 c 0.62231,-0.0559 1.57481,-0.0551 2.11667,0.002 0.54186,0.0569 0.0327,0.10258 -1.13147,0.10162 -1.16417,-0.001 -1.60751,-0.0475 -0.9852,-0.10337 z m 5.68155,0.0117 c 0.56631,-0.14798 0.57633,-0.27127 0.0637,-0.78388 -0.47273,-0.47273 -0.29261,-0.88581 0.38623,-0.88581 0.29887,0 0.54973,0.2584 0.65394,0.67362 0.22394,0.89223 0.006,1.18488 -0.85492,1.14777 -0.44795,-0.0193 -0.54028,-0.0756 -0.24897,-0.1517 z m 12.50156,-1.97219 c -2.08101,-0.28224 -3.67869,-0.90349 -5.08592,-1.97765 -0.62913,-0.48023 -1.56575,-0.95229 -2.08138,-1.04902 -0.78461,-0.14719 -1.05416,-0.0641 -1.65284,0.50947 -0.51902,0.49725 -0.89545,0.64516 -1.37156,0.53894 -0.37574,-0.0838 -0.53488,-0.0518 -0.37233,0.075 0.15614,0.12177 0.36076,0.42975 0.45472,0.68441 0.094,0.25466 0.28989,0.46302 0.43541,0.46302 0.14553,0 0.19606,-0.17859 0.11229,-0.39687 -0.0838,-0.21828 -0.0344,-0.39688 0.10974,-0.39688 0.14412,0 0.3243,0.23813 0.40041,0.52917 0.0935,0.35758 0.3609,0.52917 0.82461,0.52917 0.37743,0 0.68623,-0.11533 0.68623,-0.25628 0,-0.14096 -0.16295,-0.19375 -0.3621,-0.11733 -0.43087,0.16534 -0.75148,-0.78823 -0.38742,-1.15229 0.13618,-0.13618 0.53912,-0.19187 0.89543,-0.12376 0.50677,0.0969 0.64784,0.28794 0.64784,0.87744 0,0.86626 -0.46506,1.1735 -1.92925,1.27458 -0.86466,0.0597 -1.12959,-0.0687 -1.91823,-0.92972 -1.03434,-1.12923 -1.14422,-1.87677 -0.4093,-2.78448 0.41843,-0.51681 0.74953,-0.62376 1.91823,-0.61966 0.77688,0.003 1.65063,0.10175 1.94167,0.22004 0.29105,0.11829 0.20175,-7.9e-4 -0.19843,-0.26469 -0.40019,-0.26386 -0.72761,-0.6903 -0.72761,-0.94764 0,-0.2666 -0.19919,-0.47083 -0.46302,-0.47474 -0.25466,-0.004 -1.79989,-0.077 -3.43385,-0.1628 -1.63395,-0.0858 -3.18176,-0.0607 -3.43958,0.0557 -0.73669,0.33267 -2.7898,0.36036 -3.4439,0.0465 -0.40785,-0.19573 -1.12381,-0.20582 -2.28557,-0.0322 -1.06511,0.15918 -1.89944,0.16011 -2.25263,0.002 -0.37064,-0.16539 -0.78356,-0.14889 -1.21703,0.0486 -0.71788,0.32709 -1.53399,0.14996 -1.38388,-0.30036 0.052,-0.15604 0.38447,-0.36312 0.73879,-0.46018 0.35432,-0.0971 1.23953,-0.52491 1.96713,-0.95077 2.06861,-1.21074 2.25455,-1.80054 2.42334,-7.68664 0.0925,-3.2255 0.0437,-5.22641 -0.13882,-5.69352 -0.3212,-0.822 -1.26048,-1.16094 -2.35066,-0.84824 -0.65827,0.18881 -0.67325,0.2182 -0.15718,0.30841 0.84426,0.14757 1.05472,1.30963 0.36932,2.03921 -0.64998,0.69187 -0.76947,1.46961 -0.1271,0.82724 0.54648,-0.54648 0.83683,-0.52498 1.0276,0.0761 0.27661,0.8715 -0.10712,1.36895 -1.00942,1.30856 -1.39961,-0.0937 -2.86723,-2.30199 -2.27068,-3.41666 0.43164,-0.80652 0.22421,-0.81379 -0.9878,-0.0346 -1.5013,0.96515 -2.35219,2.96843 -1.69892,3.99982 0.12702,0.20054 0.36911,0.27924 0.53796,0.17488 0.22942,-0.14179 0.23114,-0.28118 0.007,-0.55148 -0.16512,-0.19895 -0.22041,-0.49085 -0.12288,-0.64866 0.19419,-0.3142 1.22193,-0.0874 1.48944,0.3287 0.24569,0.38215 -0.0417,1.34263 -0.51494,1.72099 -0.60413,0.48301 -1.05246,0.40861 -1.75177,-0.29071 -0.52632,-0.52632 -0.60354,-0.81995 -0.50448,-1.91823 l 0.11696,-1.29679 -0.462,0.79375 c -0.63045,1.08318 -0.72488,1.55916 -0.73488,3.70417 -0.007,1.53556 0.097,1.99394 0.60915,2.68212 0.69173,0.92941 2.06056,1.72804 1.80058,1.05054 -0.25459,-0.66346 0.33683,-2.22921 1.05558,-2.79458 1.35415,-1.06518 3.8012,-0.42249 4.46804,1.17347 0.50343,1.20487 0.19632,3.46272 -0.46414,3.41234 -0.2657,-0.0203 -0.47984,0.24593 -0.57316,0.7125 -0.19869,0.99346 -1.85118,1.53932 -2.60227,0.8596 -0.44056,-0.39858 -0.47639,-0.39807 -0.47639,0.007 0,0.24084 -0.16894,0.43788 -0.37543,0.43788 -0.45412,0 -2.0018,-0.85377 -2.00414,-1.10558 -0.003,-0.32458 -0.8254,-1.01108 -1.2112,-1.01108 -0.58071,0 -0.44847,0.68614 0.21734,1.12769 1.10037,0.72974 3.59204,3.40039 4.02629,4.31552 0.3176,0.66928 0.6003,0.90679 1.07935,0.90679 0.35697,0 0.64904,-0.11172 0.64904,-0.24826 0,-0.13654 0.36004,-0.64255 0.80008,-1.12448 0.73444,-0.80433 0.92439,-0.87437 2.31511,-0.85363 0.83326,0.0124 2.01484,0.11657 2.62572,0.23143 0.9447,0.17762 1.13626,0.32519 1.2817,0.98736 0.11746,0.53482 0.0389,0.92444 -0.25081,1.24462 -0.23199,0.25634 -0.4218,0.83663 -0.4218,1.28953 0,0.4529 -0.13304,0.90567 -0.29564,1.00617 -0.56503,0.3492 -4.46686,0.4644 -4.46686,0.13188 0,-0.49136 -1.37223,-1.57206 -2.35642,-1.8558 -1.01265,-0.29195 -1.39202,-0.17373 -1.18379,0.3689 0.26043,0.67867 -0.68413,1.73269 -1.55275,1.73269 -0.98945,0 -2.84454,-0.53824 -2.84454,-0.82532 0,-0.11682 -0.25284,-0.44795 -0.56187,-0.73586 -0.44419,-0.41383 -0.51828,-0.6792 -0.35377,-1.26707 0.11445,-0.40899 0.18348,-0.89245 0.15339,-1.07435 -0.036,-0.21774 0.30042,-0.33073 0.98481,-0.33073 0.82771,0 1.13141,0.14027 1.4906,0.68847 0.24811,0.37865 0.3901,0.92172 0.31555,1.20681 -0.20469,0.78273 0.60408,0.9567 1.17424,0.25258 0.26108,-0.32242 0.43107,-0.72923 0.37776,-0.90402 -0.0533,-0.17479 -0.16637,-0.63604 -0.25124,-1.02501 -0.18334,-0.84024 -1.19659,-2.09953 -2.35042,-2.92112 l -0.83132,-0.59195 0.64237,1.05181 c 0.3533,0.57849 0.9749,1.36746 1.38134,1.75327 0.40644,0.38581 0.73898,0.78645 0.73898,0.89033 0,0.22297 -1.22615,-0.5287 -1.99226,-1.22132 -0.52213,-0.47205 -0.54638,-0.47059 -0.87315,0.0526 -0.18485,0.296 -0.4617,0.49631 -0.61521,0.44514 -0.64045,-0.21348 -0.90561,-2.02072 -0.86497,-5.89535 0.0514,-4.89685 0.30613,-7.26551 0.80191,-7.45576 0.20278,-0.0778 0.36868,-0.27325 0.36868,-0.4343 0,-0.45614 2.6498,-2.76733 3.55458,-3.10035 0.44608,-0.16419 1.01779,-0.40765 1.27048,-0.54103 0.25268,-0.13339 0.63964,-0.24252 0.85989,-0.24252 0.7106,0 0.42571,-0.47974 -0.45943,-0.77367 -0.47294,-0.15705 -1.48399,-0.75902 -2.24677,-1.33772 -1.18998,-0.90279 -1.48211,-1.01597 -2.05762,-0.79715 -0.71821,0.27306 -1.273,1.30142 -0.9105,1.68768 0.1253,0.13351 0.40616,0.0481 0.65272,-0.19844 0.57248,-0.57248 1.0043,-0.54595 1.58658,0.0975 0.39755,0.43929 0.42795,0.64419 0.1772,1.19452 -0.52343,1.14879 -1.98933,1.47001 -3.17631,0.69603 -0.72428,-0.47228 -0.22629,-5.06662 0.54918,-5.06662 0.33895,0 0.22167,-0.7793 -0.21833,-1.45082 -0.57461,-0.87697 -0.72043,-5.68048 -0.21699,-7.14814 0.43705,-1.27411 0.46822,-1.81127 0.0916,-1.5785 -0.19237,0.11889 -0.25173,-1.0072 -0.19094,-3.62241 0.0694,-2.98414 0.18698,-3.97864 0.55053,-4.65482 0.45637,-0.84884 0.48689,-0.85984 2.37375,-0.85585 2.20749,0.005 2.5825,0.17646 2.99468,1.37179 l 0.30108,0.87312 0.49473,-1.12448 c 0.48783,-1.1088 0.51333,-1.12448 1.82865,-1.12448 0.7813,0 1.57849,0.1713 1.92425,0.41349 0.53528,0.37492 0.62889,0.37492 1.00381,0 0.53416,-0.53416 1.93097,-0.54074 2.13461,-0.0101 0.18262,0.47591 -1.10457,2.53446 -1.5256,2.43982 -0.15933,-0.0358 -0.45843,0.49775 -0.66465,1.1857 -0.21558,0.71913 -0.60686,1.37492 -0.92052,1.54279 -0.77378,0.41411 -0.94359,0.094 -0.42018,-0.79205 0.57076,-0.96622 0.57786,-2.49648 0.0142,-3.06013 -0.48481,-0.48481 -1.5538,-0.35199 -2.19154,0.2723 -0.32483,0.31798 -0.26947,0.36169 0.39688,0.31332 0.66525,-0.0483 0.78619,0.0466 0.85827,0.67334 0.0647,0.56237 -0.0566,0.78201 -0.52916,0.95841 -0.33823,0.12626 -0.87996,0.12832 -1.20839,0.005 -0.81128,-0.30562 -1.83177,0.12651 -2.05918,0.87196 -0.10242,0.33576 -0.36985,0.81956 -0.59428,1.07511 -0.49277,0.56112 -0.23337,0.93589 0.32629,0.47141 0.30463,-0.25282 1.83734,-0.29386 6.55483,-0.17554 3.38648,0.0849 6.72278,0.23265 7.41401,0.32824 1.38213,0.19114 1.54984,0.0271 0.68687,-0.67165 -0.69382,-0.56182 -1.02889,-3.20548 -0.48877,-3.85628 0.44653,-0.53803 0.12967,-0.50284 -0.52581,0.0584 -0.2927,0.25062 -0.53219,0.62822 -0.53219,0.8391 0,0.21089 -0.53787,0.8988 -1.19527,1.5287 -0.98352,0.94238 -1.37442,1.14527 -2.20649,1.14527 -0.83517,0 -1.06641,-0.12112 -1.32823,-0.69576 -0.26217,-0.5754 -0.24403,-0.77642 0.10485,-1.16193 0.24422,-0.26985 0.63838,-0.40954 0.93601,-0.3317 0.61116,0.15982 0.67252,0.55772 0.11877,0.77021 -0.57727,0.22152 -0.21109,0.62543 0.56702,0.62543 0.65747,0 0.66827,-0.0323 0.59658,-1.78593 -0.093,-2.27507 0.13326,-2.97657 0.96007,-2.97657 0.75615,0 1.21709,0.73511 0.99455,1.5861 -0.1804,0.68986 -0.0439,0.64323 1.48986,-0.50902 0.75502,-0.5672 1.25021,-0.69588 2.98076,-0.77455 1.90303,-0.0865 2.1502,-0.0372 2.97727,0.59359 1.91599,1.4614 3.46621,4.56115 3.03428,6.06721 -0.3001,1.04638 -0.31072,0.97417 0.14328,0.97417 0.21105,0 0.49276,-0.19483 0.62603,-0.43296 0.55172,-0.98587 3.48816,0.50675 3.48816,1.77306 0,0.62803 -0.74831,1.35329 -1.28889,1.24918 -0.26036,-0.0501 -0.4309,-0.34334 -0.4309,-0.74082 0,-0.41127 0.13325,-0.62994 0.35553,-0.58342 0.19554,0.0409 0.30474,-0.0781 0.24266,-0.26458 -0.0621,-0.18645 -0.29697,-0.37472 -0.52197,-0.41838 -0.34962,-0.0678 -0.74206,0.66734 -0.8484,1.58935 -0.041,0.35587 -1.08213,0.98678 -1.64215,0.99516 -0.42274,0.006 -0.60815,-0.20493 -0.74731,-0.85148 -0.16918,-0.78606 -0.21178,-0.81694 -0.49609,-0.35957 -0.17106,0.27518 -0.66821,0.88967 -1.10477,1.36553 -0.43656,0.47587 -0.93544,1.02462 -1.10862,1.21947 -0.17318,0.19484 -0.67358,0.69591 -1.112,1.11348 -0.81914,0.78018 -2.15532,3.2876 -2.62677,4.92932 -0.14627,0.50932 -0.34386,1.19393 -0.43908,1.52135 -0.27566,0.94775 0.24078,0.69042 0.87342,-0.43521 0.31856,-0.56679 0.76694,-1.10257 0.9964,-1.19063 0.74265,-0.28498 1.88845,-0.16997 2.21394,0.22222 0.46725,0.563 0.23629,1.57975 -0.38479,1.69397 -0.86332,0.15878 -1.19063,0.58039 -1.19063,1.53366 0,1.10379 -1.00019,1.74597 -1.87168,1.20171 -0.49145,-0.30691 -0.50957,-0.21464 -0.50957,2.59444 0,1.76538 0.10422,2.91265 0.26459,2.91265 0.14552,0 0.26837,-0.26789 0.27299,-0.59531 0.005,-0.32742 0.18323,-0.82643 0.39688,-1.1089 0.21365,-0.28248 0.39052,-0.75873 0.39303,-1.05834 0.003,-0.2996 0.30017,-0.82513 0.66146,-1.16782 0.36129,-0.3427 0.65777,-0.81895 0.65885,-1.05833 0.002,-0.41433 2.54918,-2.96842 4.65619,-4.66859 0.87293,-0.70437 3.51588,-1.80172 3.77505,-1.56739 0.29637,0.26796 -0.30585,0.90593 -0.85517,0.90593 -0.35236,0 -1.36846,0.53578 -2.258,1.19063 -0.88955,0.65484 -1.7215,1.19062 -1.8488,1.19062 -0.29306,0 -0.9409,0.76645 -0.78208,0.92527 0.12581,0.12581 1.84544,-0.27441 2.7348,-0.63648 2.02699,-0.82523 2.57631,-1.17295 3.02901,-1.91736 0.63738,-1.04808 0.47045,-2.19053 -0.46757,-3.20007 -0.80717,-0.8687 -0.95524,-0.88478 -1.82778,-0.19844 -0.95581,0.75184 -1.87635,0.68968 -2.19492,-0.14821 -0.26086,-0.68612 -0.78769,-0.66652 -0.78769,0.0293 0,0.20846 -0.23813,0.52773 -0.52917,0.70949 -0.56086,0.35026 -0.70705,1.12035 -0.26458,1.3938 0.14552,0.0899 0.26458,-0.0736 0.26458,-0.36343 0,-0.64979 1.02028,-1.04421 1.35746,-0.52477 0.47799,0.73634 0.13938,1.41334 -0.74992,1.49937 -2.47803,0.23971 -3.15566,-2.53887 -1.16305,-4.76899 0.64523,-0.72214 0.9526,-0.84508 2.36899,-0.94753 1.47829,-0.10693 1.75887,-0.0381 3.05924,0.74996 0.95825,0.58076 1.48669,1.09438 1.59804,1.55321 1.04722,4.31543 0.71609,5.08528 -2.88946,6.71779 -0.57823,0.26181 -1.59081,0.54644 -2.25017,0.63249 -1.36212,0.17778 -2.38681,0.63071 -2.9379,1.29861 -0.34797,0.42172 -0.32986,0.43219 0.23079,0.13343 0.33462,-0.17832 0.92993,-0.28711 1.32292,-0.24176 0.58484,0.0675 0.72911,0.23239 0.79491,0.90858 0.055,0.56511 -0.0527,0.87718 -0.34075,0.98773 -0.45794,0.17573 -0.82444,-0.41688 -0.54122,-0.87514 0.0942,-0.15249 0.0495,-0.27725 -0.0995,-0.27725 -0.3857,0 -0.81867,0.90381 -0.81867,1.70894 0,0.71434 -0.91327,1.28779 -1.8157,1.14009 -0.28482,-0.0466 -0.40663,0.0877 -0.35552,0.39211 0.0429,0.2553 -0.0865,0.46302 -0.28826,0.46302 -0.48889,0 -1.02335,1.17005 -1.2388,2.71198 -0.18778,1.34393 0.13113,1.74081 0.42521,0.52917 0.20565,-0.84735 1.69616,-2.6088 2.86068,-3.38069 1.16066,-0.76933 2.52066,-1.18337 3.88701,-1.18337 0.83988,0 1.36227,-0.16227 1.78235,-0.55363 0.61137,-0.56959 0.68082,-1.57186 0.12166,-1.75586 -0.19166,-0.0631 -0.25924,0.0918 -0.17712,0.40581 0.16808,0.64275 -0.49386,0.92475 -1.11116,0.47337 -0.37061,-0.27099 -0.40985,-0.48404 -0.20378,-1.10631 0.20033,-0.60491 0.43621,-0.78854 1.09673,-0.85373 1.67639,-0.16546 2.30539,1.57307 1.05386,2.91283 -0.81856,0.87628 -0.8391,0.81589 0.57742,1.69809 0.3638,0.22658 1.06384,1.0698 1.55563,1.87384 0.88783,1.45151 0.89214,1.47417 0.60688,3.19563 -0.23939,1.4447 -0.4511,1.9015 -1.26986,2.73998 -0.82676,0.84668 -0.91208,1.0333 -0.53803,1.17683 0.55092,0.21141 1.88945,-0.7746 3.11443,-2.29421 0.49311,-0.61172 1.08899,-1.28591 1.32417,-1.49819 0.38805,-0.35027 0.32076,-0.4928 -0.72761,-1.54116 -0.63536,-0.63536 -1.15519,-1.38943 -1.15519,-1.67572 0,-0.28628 -0.1031,-0.58423 -0.2291,-0.6621 -0.12601,-0.0779 -0.17166,-0.44209 -0.10145,-0.80937 0.0748,-0.39149 0.005,-0.66777 -0.16778,-0.66777 -0.17676,0 -0.29338,-0.50481 -0.29035,-1.25677 0.004,-1.03409 0.15654,-1.43012 0.8599,-2.23511 0.86528,-0.99031 2.37642,-1.79979 3.35986,-1.79979 0.29572,0 0.53767,0.097 0.53767,0.21558 0,0.11857 0.41671,0.4143 0.92604,0.65718 0.94414,0.45023 1.17838,0.85111 0.60834,1.04113 -0.2472,0.0824 -0.2472,0.14946 0,0.30224 0.17473,0.108 0.3177,0.0703 0.3177,-0.0838 0,-0.54654 0.71344,-0.27004 1.01586,0.3937 0.55766,1.22394 0.37885,2.34749 -0.52396,3.2922 -0.76946,0.80516 -0.96646,0.87321 -2.65908,0.91859 -2.07302,0.0556 -2.51305,-0.19825 -1.13318,-0.65365 0.51582,-0.17023 1.13291,-0.60722 1.37132,-0.97107 0.37731,-0.57585 0.47653,-0.92115 0.58407,-2.03265 0.0121,-0.12533 0.45049,-0.14751 0.97414,-0.0493 0.64493,0.12099 0.89597,0.0878 0.77813,-0.10284 -0.0957,-0.15481 -0.5162,-0.28146 -0.93451,-0.28146 -0.62944,0 -0.77753,-0.12544 -0.85902,-0.72761 l -0.0985,-0.7276 -0.19967,0.79375 c -0.10982,0.43656 -0.31155,1.00049 -0.44828,1.25318 -0.13673,0.25269 -0.2486,0.65238 -0.2486,0.8882 0,0.27881 -0.14362,0.37367 -0.41062,0.27121 -0.22584,-0.0867 -0.34621,-0.0534 -0.26749,0.074 0.18862,0.30521 -0.34342,0.70743 -1.2085,0.91361 -1.09245,0.26037 -1.19931,1.6426 -0.23006,2.97566 0.73857,1.01578 2.06472,0.92374 2.42882,-0.16857 0.0529,-0.15872 0.30595,-0.20343 0.57248,-0.10116 0.33498,0.12855 0.4337,0.35842 0.3305,0.76959 -0.14008,0.55813 -0.0838,0.58021 1.17094,0.45965 0.72495,-0.0697 1.3181,-0.055 1.3181,0.0325 0,0.31447 -1.57707,0.9665 -2.33769,0.9665 -0.86653,0 -1.41847,0.65382 -2.04068,2.41738 -0.20515,0.58144 -0.59626,1.37672 -0.86915,1.76729 -0.27288,0.39057 -0.57153,1.02249 -0.66367,1.40427 -0.0921,0.38178 -0.387,0.96521 -0.65526,1.29649 -0.42774,0.52823 -0.713,0.59866 -2.31846,0.57239 -1.0069,-0.0165 -3.08467,0.0916 -4.61728,0.24025 -1.9118,0.18539 -3.01233,0.18438 -3.50573,-0.003 -1.01481,-0.38583 -0.95071,0.1836 0.14073,1.25016 0.47294,0.46215 1.13767,1.13071 1.47718,1.48566 0.3395,0.35496 0.96458,0.76645 1.38906,0.91442 l 0.77178,0.26905 v -1.29416 c 0,-1.03739 0.11666,-1.37586 0.58804,-1.70602 0.81033,-0.56758 1.95394,-0.51573 2.58696,0.11729 0.64085,0.64085 0.66598,1.13273 0.10186,1.99368 -0.48175,0.73525 -1.19965,0.84535 -1.68656,0.25864 -0.41696,-0.50239 -0.12924,-1.29912 0.3963,-1.09745 0.23941,0.0919 0.39465,-0.001 0.39465,-0.23715 0,-0.21371 -0.22962,-0.38857 -0.51027,-0.38857 -0.6679,0 -1.41231,0.75757 -1.22474,1.24638 0.0811,0.21142 0.14751,0.47258 0.14751,0.58035 0,0.46094 2.28526,1.64357 3.41325,1.76636 0.66933,0.0729 1.61956,0.18225 2.11164,0.24308 l 0.89468,0.1106 -1.09312,-0.93567 c -0.96143,-0.82295 -1.09312,-1.07053 -1.09312,-2.0551 0,-1.52561 0.44898,-2.07842 1.59918,-1.96901 0.77574,0.0738 0.91436,0.18725 0.91436,0.74843 0,0.55629 -0.11086,0.6501 -0.69727,0.59005 -0.43072,-0.0441 -0.75628,0.0823 -0.8516,0.33073 -0.18412,0.47982 0.25317,0.54898 0.45149,0.0714 0.20984,-0.50531 1.29027,0.86421 1.13878,1.44349 -0.14532,0.55571 0.3409,0.87792 1.71326,1.13538 0.77517,0.14542 1.21714,0.0283 2.3886,-0.6328 1.41837,-0.80047 1.43725,-0.80341 1.42346,-0.2211 -0.008,0.32458 -0.10752,0.73573 -0.22184,0.91368 -0.27051,0.42109 -1.95469,0.86865 -3.25831,0.86588 -0.56553,-10e-4 -1.20683,-0.003 -1.42511,-0.004 -0.21828,-7.9e-4 -1.17078,0.0399 -2.11666,0.0904 -0.94589,0.0505 -2.43417,-0.005 -3.3073,-0.12352 z m -20.21689,-1.1813 c 0.16811,-0.20256 0.23714,-0.36829 0.15341,-0.36829 -0.33975,0 -1.50006,0.62767 -1.50006,0.81145 0,0.30218 1.00164,-0.0275 1.34665,-0.44316 z m -1.72404,-1.80071 c 0.29375,-0.20576 0.88579,-0.42604 1.31564,-0.48953 0.61506,-0.0908 0.54201,-0.12387 -0.34293,-0.15507 -0.80925,-0.0285 -1.27283,0.1087 -1.65365,0.48952 -0.6183,0.6183 -0.13692,0.72792 0.68094,0.15508 z m 3.14422,-0.40138 c 0.0837,-0.13546 0.0312,-0.32109 -0.11668,-0.41249 -0.14789,-0.0914 -0.2689,0.0194 -0.2689,0.2463 0,0.46475 0.15877,0.53318 0.38558,0.16619 z m 17.49373,-3.57615 c 2.04825,-0.0701 3.9092,-0.19847 4.13545,-0.28529 0.4188,-0.16071 2.06233,-3.43575 2.06233,-4.10958 0,-0.20345 -0.35592,0.0619 -0.79093,0.58962 -0.43501,0.52774 -1.32798,1.27426 -1.98437,1.65893 -0.6564,0.38468 -1.19345,0.79599 -1.19345,0.91402 0,0.33042 -3.79938,0.66917 -6.74688,0.60154 -2.78115,-0.0638 -3.83646,0.0672 -3.83646,0.4763 0,0.25839 2.47633,0.4898 3.83646,0.35851 0.43656,-0.0421 2.4696,-0.13396 4.51785,-0.20405 z m -19.59103,-0.15936 c 0.11665,-0.18873 1.87976,-0.21971 5.50572,-0.0967 2.93377,0.0995 5.25364,0.0943 5.15528,-0.0115 -0.21072,-0.22662 -1.85388,-0.4541 -3.0316,-0.41969 -0.51589,0.0151 -0.88765,-0.12809 -0.98389,-0.37887 -0.0851,-0.2217 -0.31626,-0.40309 -0.51374,-0.40309 -0.58173,0 -1.4411,-1.11008 -1.74105,-2.24896 -0.31163,-1.18324 -0.40272,-10.38501 -0.18498,-18.68721 0.15814,-6.03009 0.43701,-7.24288 2.02229,-8.79471 0.89345,-0.8746 1.00283,-1.33323 0.26188,-1.09806 -0.69717,0.22127 -5.37849,0.23609 -7.09329,0.0225 -0.76399,-0.0952 -1.38906,-0.0891 -1.38906,0.0134 0,0.25381 1.62571,1.68889 1.91323,1.68889 0.56383,0 1.08698,2.10217 1.1852,4.7625 0.19127,5.18032 0.18968,21.55818 -0.002,22.505 -0.11259,0.5556 -0.61672,1.38475 -1.23004,2.02303 -0.5716,0.59486 -0.96736,1.15346 -0.87947,1.24135 0.25255,0.25255 0.81771,0.18633 1.0057,-0.11786 z m 2.13447,-1.23989 c -0.087,-0.087 -0.15816,-0.37644 -0.15816,-0.64323 0,-0.26679 -0.12326,-0.48507 -0.2739,-0.48507 -0.18399,0 -0.17916,-0.17699 0.0147,-0.53924 0.15873,-0.29658 0.2886,-1.43518 0.2886,-2.53022 0,-1.09505 0.0947,-2.24697 0.21042,-2.55982 0.20567,-0.556 0.21643,-0.55711 0.4772,-0.0495 0.14673,0.28565 0.34261,0.91888 0.4353,1.40718 0.14436,0.76047 0.1044,0.86319 -0.27862,0.71621 -0.40807,-0.15659 -0.41106,-0.13012 -0.0342,0.30282 0.46552,0.53473 0.83096,2.46379 0.58712,3.09922 -0.0882,0.22984 -0.35598,0.4273 -0.59507,0.43879 -0.27452,0.0132 -0.31284,0.0701 -0.10399,0.15433 0.1819,0.0734 0.33073,0.22986 0.33073,0.34768 0,0.28065 -0.6966,0.54439 -0.90017,0.34081 z m -0.15816,-13.67396 c 0,-0.2304 0.18851,-0.41892 0.41892,-0.41892 0.46723,0 0.38587,0.56958 -0.10473,0.73312 -0.17281,0.0576 -0.31419,-0.0838 -0.31419,-0.3142 z m 0.52916,-12.97101 c 0,-0.2097 0.11907,-0.45485 0.26459,-0.54479 0.14552,-0.0899 0.26458,0.0816 0.26458,0.38127 0,0.29962 -0.11906,0.54478 -0.26458,0.54478 -0.14552,0 -0.26459,-0.17157 -0.26459,-0.38126 z m 0.79375,-1.4396 c 0,-0.29104 0.11907,-0.60275 0.26459,-0.69269 0.14552,-0.0899 0.26458,0.0746 0.26458,0.36565 0,0.29104 -0.11906,0.60275 -0.26458,0.69269 -0.14552,0.0899 -0.26459,-0.0746 -0.26459,-0.36565 z m -0.79375,-1.08956 c 0,-0.14552 0.11907,-0.26458 0.26459,-0.26458 0.14552,0 0.26458,0.11906 0.26458,0.26458 0,0.14552 -0.11906,0.26458 -0.26458,0.26458 -0.14552,0 -0.26459,-0.11906 -0.26459,-0.26458 z m -8.73125,29.51666 c 0,-0.0642 -0.11906,-0.19026 -0.26458,-0.2802 -0.14552,-0.0899 -0.26458,-0.0374 -0.26458,0.11667 0,0.15411 0.11906,0.2802 0.26458,0.2802 0.14552,0 0.26458,-0.0525 0.26458,-0.11667 z m 1.99553,-0.43053 c 0.0961,-0.15544 0.3374,-0.22017 0.5363,-0.14385 0.19891,0.0763 0.43201,0.0249 0.51802,-0.11425 0.17304,-0.27999 -0.91622,-0.34446 -1.57148,-0.093 -0.22935,0.088 -0.35112,0.26661 -0.27061,0.39688 0.19812,0.32057 0.57489,0.29868 0.78777,-0.0458 z m 22.81304,-0.24655 c -0.0416,-0.22069 -0.56463,-0.51535 -1.17831,-0.66376 -0.60696,-0.14678 -1.4201,-0.5421 -1.80697,-0.87848 -0.64765,-0.56312 -0.72914,-0.57639 -1.02823,-0.16736 -0.45617,0.62386 -1.29057,0.38197 -1.58667,-0.45997 -0.50915,-1.44776 1.18903,-2.12734 2.17708,-0.87124 0.31133,0.39579 0.68165,0.60201 0.9181,0.51127 0.21797,-0.0836 0.55735,0.0387 0.75418,0.27187 0.90372,1.07058 1.11024,1.19934 1.92363,1.19934 0.90523,0 1.96086,-0.44737 3.03954,-1.28812 0.44358,-0.34575 0.62945,-0.74564 0.61314,-1.31921 -0.0129,-0.45268 0.0913,-0.89394 0.23147,-0.98058 0.31878,-0.19701 0.037,-1.83595 -0.49758,-2.89438 -0.50138,-0.99266 -1.14427,-1.46359 -2.7914,-2.0448 -1.56607,-0.55259 -3.07046,-0.30819 -4.68669,0.76137 -2.07535,1.37341 -3.54056,5.93517 -2.48194,7.72727 0.57011,0.96513 0.36688,1.28926 -0.59416,0.94761 -0.47603,-0.16924 -0.8106,-0.5774 -1.05615,-1.28849 -0.35558,-1.02976 -1.04715,-2.00192 -1.4241,-2.00192 -0.10719,0 -0.2696,0.29766 -0.36091,0.66146 -0.11638,0.4637 -0.34644,0.66146 -0.76951,0.66146 -0.86134,0 -1.2385,-0.49017 -1.2385,-1.60956 0,-0.76859 0.11784,-1.00538 0.55756,-1.12036 0.73788,-0.19296 1.7599,0.21553 2.37068,0.94756 0.43541,0.52183 0.49477,0.53533 0.50254,0.11422 0.0111,-0.60291 -1.79807,-3.69359 -2.95257,-5.04396 l -0.87509,-1.02356 -0.14168,0.89127 c -0.0779,0.49019 0.0213,1.29826 0.2206,1.79572 0.27203,0.67912 0.29085,1.06124 0.0755,1.5338 -0.36432,0.79959 -0.36542,2.55948 -0.002,3.86673 0.33315,1.19974 1.51014,1.83185 3.25568,1.74849 0.59961,-0.0286 1.26879,0.0206 1.48708,0.10949 0.37704,0.15348 3.42277,0.3037 6.15779,0.3037 0.9795,0 1.24624,-0.0891 1.18828,-0.39688 z m -10.78565,-1.23574 c 0,-0.23874 0.2461,-0.28931 0.83489,-0.17155 0.59683,0.11937 0.78099,0.0798 0.64584,-0.13891 -0.10397,-0.16823 -0.0768,-0.30588 0.0603,-0.30588 0.13713,0 0.31271,0.24236 0.39017,0.53857 0.12572,0.48073 0.0296,0.532 -0.89518,0.47744 -0.63331,-0.0374 -1.03602,-0.19272 -1.03602,-0.39967 z m 10.19084,-0.87382 c -0.0841,-0.13605 -0.0734,-0.56397 0.0237,-0.95096 0.16133,-0.64279 0.26455,-0.69181 1.19423,-0.56711 0.9381,0.12582 0.99644,0.0969 0.74643,-0.37026 -0.22078,-0.41254 -0.37066,-0.45352 -0.80617,-0.22044 -0.39228,0.20994 -0.63631,0.2022 -0.91493,-0.029 -0.4916,-0.40798 -0.49172,-0.87921 -1.9e-4,-0.69059 0.20888,0.0802 0.43213,0.004 0.4961,-0.17013 0.0886,-0.2406 0.19449,-0.24242 0.44441,-0.008 0.2503,0.23516 0.58316,0.21826 1.40378,-0.0713 1.30553,-0.46062 1.62308,-0.22253 1.31209,0.98377 -0.16197,0.62824 -0.40417,0.92117 -0.81065,0.98046 -0.6106,0.0891 -0.81577,0.57117 -0.24894,0.58496 0.1819,0.004 0.0926,0.14898 -0.19844,0.32123 -0.66884,0.39586 -2.43899,0.53457 -2.64145,0.20699 z m 1.51697,-0.7115 c -0.1819,-0.0734 -0.47956,-0.0734 -0.66146,0 -0.1819,0.0734 -0.0331,0.13345 0.33073,0.13345 0.3638,0 0.51263,-0.06 0.33073,-0.13345 z m 1.432,-1.743 c -0.0734,-0.1819 -0.13345,-0.0331 -0.13345,0.33073 0,0.3638 0.0601,0.51263 0.13345,0.33073 0.0734,-0.1819 0.0734,-0.47956 0,-0.66146 z m -4.77702,1.26301 c -0.4702,-0.71761 -0.67304,-1.68306 -0.35914,-1.70939 0.87808,-0.0736 1.33017,0.0568 1.78962,0.51621 0.50107,0.50108 0.50715,0.57208 0.10186,1.19063 -0.5454,0.83237 -0.98813,0.83311 -1.53234,0.003 z m 0.66722,-1.00394 c -0.4405,-0.44049 -0.68998,-0.003 -0.27999,0.49115 0.24796,0.29878 0.39137,0.33446 0.46435,0.11554 0.0581,-0.17421 -0.0249,-0.44722 -0.18436,-0.60669 z m -3.29737,-1.16306 c -0.26057,-0.26057 -0.2143,-1.14653 0.0599,-1.14653 0.23631,0 0.55747,0.62216 0.55747,1.07997 0,0.28296 -0.36194,0.32198 -0.61736,0.0666 z m 3,-0.06 c -0.36304,-0.10101 -0.69546,-0.36743 -0.73872,-0.59204 -0.1226,-0.6366 0.78128,-1.53413 1.72952,-1.71736 0.8523,-0.1647 0.85989,-0.157 0.85989,0.87233 0,1.51603 -0.41337,1.83701 -1.85069,1.43707 z m 2.73251,-0.22914 c -0.30191,-0.19557 -0.33542,-1.75653 -0.044,-2.04799 0.23941,-0.23942 1.37146,0.29215 1.92079,0.90194 0.30723,0.34104 0.41233,0.65732 0.26458,0.79623 -0.3677,0.34574 -1.78922,0.57795 -2.14141,0.34982 z m 1.08324,-1.24855 c -0.28042,-0.21215 -0.62891,-0.38687 -0.77443,-0.38826 -0.14552,-10e-4 0.0313,0.2248 0.39292,0.50265 0.36163,0.27786 0.71012,0.45257 0.77444,0.38826 0.0643,-0.0643 -0.11251,-0.2905 -0.39293,-0.50265 z m -5.80152,0.12661 c 0.0899,-0.14552 0.27556,-0.26459 0.4125,-0.26459 0.13693,0 0.24896,0.11907 0.24896,0.26459 0,0.14552 -0.18562,0.26458 -0.41249,0.26458 -0.22687,0 -0.3389,-0.11906 -0.24897,-0.26458 z m 6.4823,6.61458 c 0,-0.14552 -0.2311,-0.26458 -0.51355,-0.26458 -0.28246,0 -0.58714,0.11906 -0.67708,0.26458 -0.0927,0.15006 0.12955,0.26458 0.51355,0.26458 0.37239,0 0.67708,-0.11906 0.67708,-0.26458 z m -26.19375,-0.79375 c 0.6326,-0.63261 0.69517,-1.73177 0.11132,-1.95581 -0.34079,-0.13077 -0.38741,-0.0218 -0.25282,0.59099 0.22293,1.01499 -0.35512,1.47945 -1.55995,1.25343 -0.55617,-0.10434 -1.1181,-0.45225 -1.43654,-0.8894 -0.28768,-0.39492 -0.60109,-0.63999 -0.69648,-0.5446 -0.22983,0.22982 0.91442,1.54497 1.58551,1.82232 0.90162,0.37262 1.69739,0.27463 2.24896,-0.27693 z m 1.85208,0.26458 c 0,-0.14552 -0.11906,-0.26458 -0.26458,-0.26458 -0.14552,0 -0.26459,0.11906 -0.26459,0.26458 0,0.14552 0.11907,0.26459 0.26459,0.26459 0.14552,0 0.26458,-0.11907 0.26458,-0.26459 z m 1.17229,-1.56173 c -0.0696,-0.0696 -0.33208,0.088 -0.58328,0.35028 -0.43637,0.4556 -0.43073,0.46124 0.12656,0.12656 0.3208,-0.19266 0.52633,-0.40723 0.45672,-0.47684 z m 28.46104,-1.0841 c 0,-0.14552 -0.0525,-0.26458 -0.11667,-0.26458 -0.0642,0 -0.19027,0.11906 -0.2802,0.26458 -0.0899,0.14552 -0.0374,0.26458 0.11667,0.26458 0.15411,0 0.2802,-0.11906 0.2802,-0.26458 z m -16.13958,-3.02709 c 0,-0.0642 -0.11906,-0.19026 -0.26458,-0.2802 -0.14552,-0.0899 -0.26459,-0.0374 -0.26459,0.11667 0,0.15411 0.11907,0.2802 0.26459,0.2802 0.14552,0 0.26458,-0.0525 0.26458,-0.11667 z m -0.53692,-2.94135 c -0.0548,-1.01022 -0.0869,-2.29162 -0.0713,-2.84755 0.0209,-0.74396 -0.0652,-0.97486 -0.32628,-0.87468 -0.19507,0.0748 -0.65116,-0.0971 -1.01351,-0.38213 -0.59983,-0.47182 -0.64542,-0.64823 -0.50904,-1.9696 0.12487,-1.20987 0.0802,-1.45135 -0.26848,-1.45135 -0.65719,0 -0.82112,-0.53667 -0.27976,-0.91586 0.69572,-0.4873 0.97826,-0.48601 1.05029,0.005 0.0344,0.23452 0.23544,0.56521 0.44671,0.73488 0.21127,0.16966 0.48823,0.50722 0.61546,0.75013 0.14902,0.28451 0.2543,-0.50955 0.29589,-2.23167 0.049,-2.02902 -0.0322,-2.82096 -0.33682,-3.28592 -0.39718,-0.60617 -1.44753,-0.85869 -1.44753,-0.34802 0,0.14552 0.0893,0.25049 0.19844,0.23325 1.01946,-0.16096 1.16619,0.57175 0.21628,1.08012 -0.99104,0.53039 -1.47305,0.19296 -1.47305,-1.03117 0,-1.18683 0.47331,-1.60511 1.81628,-1.60511 0.61129,0 0.8121,0.13152 0.87729,0.57458 0.18155,1.23381 0.67928,0.73992 0.902,-0.89504 0.26858,-1.97159 0.20449,-3.08165 -0.20652,-3.57688 -0.36477,-0.43953 -1.31834,-0.33989 -1.4814,0.15479 -0.0864,0.26219 0.0382,0.30886 0.46393,0.17374 0.49924,-0.15845 0.56961,-0.0965 0.49433,0.43525 -0.0634,0.44783 -0.28491,0.64279 -0.7976,0.70202 -1.54159,0.17809 -1.58296,-2.11067 -0.0451,-2.49664 0.99503,-0.24974 2.01362,0.38367 2.36935,1.47337 l 0.29151,0.89296 0.18762,-0.7696 c 0.10319,-0.42328 0.47803,-1.21353 0.83297,-1.75611 0.35495,-0.54258 0.64536,-1.09915 0.64536,-1.23681 0,-0.13766 0.72711,-0.99569 1.61581,-1.90674 1.49067,-1.52817 1.57897,-1.6834 1.14005,-2.00434 -0.72238,-0.52823 -1.57225,-0.41914 -2.44303,0.31357 -0.43235,0.3638 -0.96753,0.66146 -1.18928,0.66146 -0.69098,0 -1.24022,-0.30547 -1.24022,-0.68977 0,-0.49103 -0.43309,-0.47141 -0.62485,0.0283 -0.0838,0.21828 -0.3429,0.39688 -0.57587,0.39688 -0.28431,0 -0.39579,0.18892 -0.33904,0.57458 0.0985,0.66917 0.74601,0.99337 0.74601,0.37351 0,-0.53653 0.49733,-0.54517 0.70185,-0.0122 0.0858,0.2237 -0.0398,0.62322 -0.2793,0.88782 -0.41675,0.4605 -0.37568,0.47535 0.95951,0.34706 1.22743,-0.11794 1.35476,-0.0857 1.06052,0.26887 -0.18391,0.2216 -0.85343,0.46141 -1.48781,0.53292 -0.63439,0.0715 -1.73299,0.41419 -2.44134,0.76153 -1.57521,0.77241 -2.17853,1.89382 -2.52694,4.69687 -0.37519,3.01858 0.10913,13.68201 0.6458,14.21868 0.10599,0.106 0.19271,-0.17629 0.19271,-0.6273 0,-0.93079 0.7006,-1.33033 1.54261,-0.8797 0.6677,0.35734 0.47272,1.61152 -0.25054,1.61152 -0.27408,0 -0.49832,0.0732 -0.49832,0.16263 0,0.44265 1.44929,2.74976 1.67921,2.67312 0.15589,-0.052 0.2238,-0.84362 0.16512,-1.92502 z m 20.04443,-0.54141 c -0.0879,-0.0879 -0.31613,-0.0973 -0.50712,-0.0209 -0.21107,0.0845 -0.14837,0.14716 0.15985,0.15985 0.27892,0.0115 0.43519,-0.051 0.34727,-0.13896 z m 0.60082,-0.6339 c 0,-0.14552 -0.17859,-0.26458 -0.39687,-0.26458 -0.21828,0 -0.39688,0.11906 -0.39688,0.26458 0,0.14552 0.1786,0.26458 0.39688,0.26458 0.21828,0 0.39687,-0.11906 0.39687,-0.26458 z m -4.83469,-1.05833 c -0.73009,-0.57429 -0.98614,-0.65349 -0.98614,-0.30502 0,0.12328 0.26789,0.35335 0.59531,0.51126 0.94841,0.4574 1.11963,0.36704 0.39083,-0.20624 z m 5.23157,0.26458 c -0.0899,-0.14552 -0.34212,-0.26458 -0.5604,-0.26458 -0.21828,0 -0.32329,0.11906 -0.23335,0.26458 0.0899,0.14552 0.34211,0.26458 0.56039,0.26458 0.21828,0 0.32329,-0.11906 0.23336,-0.26458 z m -5.02709,-0.91784 c -0.97844,-0.80202 -0.74099,-0.85485 0.51405,-0.11436 1.23856,0.73077 1.21114,0.44098 -0.0386,-0.40826 -0.72849,-0.49502 -1.03283,-0.5823 -1.18657,-0.34027 -0.332,0.52264 -0.25758,0.68234 0.51272,1.10023 1.04743,0.56824 1.10184,0.50317 0.19843,-0.23734 z m 1.65365,-0.797 c 0,-0.36108 -0.19348,-0.80183 -0.42995,-0.97943 -0.3613,-0.27136 -0.37715,-0.26371 -0.0992,0.048 0.45973,0.51554 0.4156,0.92945 -0.0573,0.53702 -0.21339,-0.1771 -0.54081,-0.26507 -0.7276,-0.1955 -0.22482,0.0837 -0.16075,0.19725 0.18954,0.33579 0.29104,0.11511 0.62438,0.3671 0.74075,0.55998 0.30315,0.50243 0.38373,0.43821 0.38373,-0.30583 z m -35.94742,-0.6851 c -0.4246,-0.26241 -0.61786,-0.12321 -0.37485,0.26999 0.0974,0.15757 0.30061,0.21014 0.45161,0.11682 0.17777,-0.10987 0.15071,-0.24622 -0.0768,-0.38681 z m 8.60691,-0.20985 c 0.28303,-0.45794 0.19268,-11.29141 -0.10541,-12.64052 -0.47926,-2.16901 -2.89218,-4.00269 -4.7723,-3.62667 -0.43139,0.0863 -0.84268,0.37447 -0.93084,0.65224 -0.0869,0.27371 -0.27194,0.49766 -0.41126,0.49766 -0.13931,0 -0.36647,0.29765 -0.50478,0.66145 -0.13832,0.36381 -0.3735,0.66146 -0.52262,0.66146 -0.14912,0 -0.27113,0.10623 -0.27113,0.23606 0,0.12984 0.44189,0.0108 0.98198,-0.26458 0.54009,-0.27535 1.35895,-0.50064 1.81969,-0.50064 0.46073,0 0.98592,-0.1786 1.16708,-0.39688 0.39972,-0.48164 1.41299,-0.53496 1.25689,-0.0661 -0.0606,0.1819 -0.33838,0.37486 -0.61736,0.4288 -0.27898,0.0539 -0.8049,0.21276 -1.1687,0.35292 l -0.66146,0.25485 0.72256,0.30854 c 0.52852,0.22567 0.65931,0.40887 0.48704,0.68217 -0.19906,0.31578 -0.30363,0.30554 -0.67532,-0.0661 -0.77686,-0.77686 -1.65575,-0.48095 -1.11991,0.37707 0.24817,0.39738 0.21087,0.66178 -0.18883,1.33841 -0.41873,0.70885 -0.43141,0.81762 -0.0796,0.68262 0.62929,-0.24148 1.01167,0.40895 0.8159,1.38782 -0.16903,0.84514 -0.16005,0.85505 0.46206,0.51028 0.34894,-0.19338 0.69397,-0.36004 0.76673,-0.37036 0.0728,-0.0103 0.39295,-0.16368 0.71154,-0.34082 0.63816,-0.35482 0.85529,-0.17073 0.92026,0.78021 0.0577,0.84412 -1.07046,3.13249 -1.54426,3.13249 -0.21085,0 -0.31059,0.11774 -0.22165,0.26164 0.18201,0.2945 1.45702,-0.43353 1.45702,-0.83195 0,-0.13468 0.25411,-0.58856 0.56468,-1.00864 0.45154,-0.61074 0.53901,-1.01945 0.43653,-2.03981 -0.13815,-1.37556 -1.15556,-3.23093 -1.78173,-3.24921 -0.26745,-0.008 -0.29967,-0.0952 -0.10639,-0.28845 0.40719,-0.40719 1.50191,0.16779 2.03381,1.06823 0.69694,1.17982 0.59294,3.6732 -0.20206,4.8447 l -0.64267,0.94703 0.57652,0.0823 c 0.45615,0.0652 0.56506,0.24196 0.52163,0.84681 -0.14097,1.96319 -3.12168,3.11765 -4.6452,1.79914 -0.29525,-0.25552 -0.40636,-0.59427 -0.30239,-0.92187 0.10149,-0.31976 0.061,-0.45398 -0.10595,-0.35083 -0.14868,0.0919 -0.3311,0.0443 -0.40538,-0.10577 -0.0743,-0.15007 -0.1,-0.12104 -0.0571,0.0645 0.0429,0.18554 -0.10915,0.55185 -0.33779,0.81402 -0.38401,0.44032 -0.35615,0.5263 0.36525,1.12722 1.75843,1.46474 5.89364,2.9503 6.31494,2.26861 z m -2.49126,-1.09438 c 0,-0.14552 0.11906,-0.26458 0.26458,-0.26458 0.14552,0 0.26459,0.11906 0.26459,0.26458 0,0.14552 -0.11907,0.26459 -0.26459,0.26459 -0.14552,0 -0.26458,-0.11907 -0.26458,-0.26459 z m 0.79375,-1.05833 c 0,-0.14552 0.11906,-0.26458 0.26458,-0.26458 0.14552,0 0.26459,0.11906 0.26459,0.26458 0,0.14552 -0.11907,0.26458 -0.26459,0.26458 -0.14552,0 -0.26458,-0.11906 -0.26458,-0.26458 z m 10.74208,0.37042 c -0.0942,-0.24539 -0.23073,-0.38663 -0.30349,-0.31387 -0.0728,0.0728 -0.0553,0.33306 0.0389,0.57845 0.0942,0.24539 0.23074,0.38662 0.3035,0.31386 0.0728,-0.0728 0.0553,-0.33306 -0.0389,-0.57844 z m 2.75167,-0.005 c 0,-0.21829 -0.11906,-0.3233 -0.26458,-0.23336 -0.14552,0.0899 -0.26459,0.34212 -0.26459,0.5604 0,0.21828 0.11907,0.32329 0.26459,0.23335 0.14552,-0.0899 0.26458,-0.34211 0.26458,-0.56039 z m 1.32292,-1.98438 c 0,-0.14552 -0.11907,-0.191 -0.26459,-0.10106 -0.14552,0.0899 -0.26458,0.28258 -0.26458,0.4281 0,0.14552 0.11906,0.191 0.26458,0.10106 0.14552,-0.0899 0.26459,-0.28258 0.26459,-0.4281 z m -16.93334,0.0468 c 0,-0.36869 -0.48639,-0.60244 -0.82199,-0.39503 -0.20414,0.12616 -0.1841,0.24988 0.0661,0.40844 0.47231,0.29927 0.75585,0.29424 0.75585,-0.0134 z m 0.60583,-0.28019 c -0.0761,-0.29105 -0.18402,-0.52917 -0.23981,-0.52917 -0.0558,0 -0.10143,0.23812 -0.10143,0.52917 0,0.29104 0.10791,0.52916 0.23981,0.52916 0.1319,0 0.17754,-0.23812 0.10143,-0.52916 z m 0.61126,-0.42334 c -0.0942,-0.24538 -0.23074,-0.38662 -0.3035,-0.31386 -0.0728,0.0728 -0.0553,0.33306 0.0389,0.57845 0.0942,0.24538 0.23074,0.38662 0.3035,0.31386 0.0728,-0.0728 0.0553,-0.33306 -0.0389,-0.57845 z m -5.45042,-0.99122 c 0,-0.0504 -0.195,-0.48253 -0.43334,-0.96029 -0.3664,-0.73448 -0.47106,-0.80123 -0.67759,-0.43219 -0.34914,0.62388 -0.002,1.48412 0.59959,1.48412 0.28124,0 0.51134,-0.0412 0.51134,-0.0916 z m 2.75237,-0.74379 c -0.13063,-0.21136 -0.006,-0.25833 0.40216,-0.15159 0.44095,0.11531 0.55457,0.0586 0.44655,-0.22291 -0.0978,-0.25481 0.046,-0.38302 0.44212,-0.39434 0.58514,-0.0167 0.58504,-0.0176 -0.0328,-0.26513 -0.48248,-0.19333 -0.79962,-0.12035 -1.43108,0.32929 -0.73946,0.52654 -0.76656,0.59518 -0.3062,0.77571 0.69498,0.27252 0.69189,0.27298 0.47929,-0.071 z m 18.46494,-4.47573 c 0.62699,-0.66557 1.35376,-1.32818 1.61504,-1.47247 0.39531,-0.2183 0.42862,-0.38448 0.19844,-0.98991 -0.39004,-1.02589 -0.34341,-2.00702 0.10355,-2.17854 0.20909,-0.0802 0.32273,-0.29554 0.25254,-0.47847 -0.0702,-0.18292 0.0693,-0.496 0.30992,-0.69572 0.37593,-0.312 0.48582,-0.29711 0.78039,0.10574 0.22791,0.31168 0.40334,0.37097 0.52331,0.17686 0.0993,-0.16061 0.0491,-0.4503 -0.11145,-0.64376 -0.16056,-0.19346 -0.21761,-0.54543 -0.12677,-0.78216 0.0908,-0.23673 0.0915,-0.62243 10e-4,-0.85711 -0.13161,-0.34296 -0.34288,-0.22612 -1.0765,0.59531 -1.41571,1.58527 -1.46211,1.64571 -1.46211,1.90449 0,0.13385 -0.16306,0.37869 -0.36236,0.54409 -0.1993,0.16541 -0.57279,0.86459 -0.82996,1.55375 -0.25718,0.68916 -0.63997,1.45211 -0.85064,1.69545 -0.39275,0.45365 -1.66308,4.26882 -1.65869,4.98153 10e-4,0.21828 0.35154,-0.19844 0.77822,-0.92604 0.42667,-0.72761 1.28875,-1.86748 1.91574,-2.53304 z m -19.62981,3.19449 c 0,-0.14552 -0.0525,-0.26458 -0.11668,-0.26458 -0.0642,0 -0.19026,0.11906 -0.2802,0.26458 -0.0899,0.14552 -0.0374,0.26459 0.11668,0.26459 0.15411,0 0.2802,-0.11907 0.2802,-0.26459 z m 3.33707,-0.71987 c -0.0821,-0.0821 -0.3423,0.0109 -0.5782,0.20669 -0.39242,0.32568 -0.38733,0.37085 0.0598,0.53074 0.47178,0.16873 0.86513,-0.39075 0.51845,-0.73743 z m -5.56398,-0.33846 c 0.20615,0 0.37483,-0.13169 0.37483,-0.29265 0,-0.16096 0.28977,-0.52059 0.64394,-0.79918 0.52035,-0.4093 0.61689,-0.67322 0.503,-1.37503 -0.11751,-0.72417 -0.0376,-0.91817 0.48054,-1.16729 0.57179,-0.2749 0.57859,-0.30022 0.085,-0.31669 -0.29508,-0.01 -0.72222,0.19045 -0.94921,0.44511 -0.22698,0.25466 -0.73065,0.73096 -1.11927,1.05844 -0.60001,0.50562 -0.69941,0.7844 -0.65916,1.84857 0.0261,0.68924 0.0965,1.10591 0.15647,0.92594 0.06,-0.17997 0.27775,-0.32722 0.4839,-0.32722 z m 2.84077,-0.5215 c -0.1959,-0.21518 -0.58715,0.61524 -0.41847,0.88818 0.0883,0.14281 0.24405,0.0294 0.34621,-0.25195 0.10215,-0.28138 0.13467,-0.56769 0.0723,-0.63623 z m 23.7231,-0.28104 c -0.44371,-0.82909 -0.56722,-0.49176 -0.18913,0.51656 0.1922,0.51259 0.36016,0.70126 0.409,0.45944 0.0456,-0.22567 -0.0534,-0.66487 -0.21987,-0.976 z m 0.57844,-0.31706 c -0.19634,-0.19634 -0.23077,-0.093 -0.11568,0.34706 0.0935,0.35777 0.21349,0.4777 0.27954,0.27954 0.0636,-0.19088 -0.0101,-0.47285 -0.16386,-0.6266 z m 1.54293,0.0613 c 0,-0.14552 -0.23812,-0.26459 -0.52916,-0.26459 -0.29105,0 -0.52917,0.11907 -0.52917,0.26459 0,0.14552 0.23812,0.26458 0.52917,0.26458 0.29104,0 0.52916,-0.11906 0.52916,-0.26458 z m -3.84049,-4.19327 c -0.19987,-0.19988 -0.65742,0.27866 -0.65742,0.68758 0,0.36114 0.0614,0.34783 0.37524,-0.0813 0.20638,-0.28224 0.33337,-0.55505 0.28218,-0.60623 z m -23.94076,-3.99851 c 0,-0.13985 0.26789,-0.51056 0.59532,-0.82379 l 0.59531,-0.56952 -0.66146,0.18905 c -1.04201,0.29782 -1.77897,1.45854 -0.92604,1.45854 0.21828,0 0.39687,-0.11443 0.39687,-0.25428 z m 19.58046,-3.5788 c -0.15438,-0.40603 -0.35291,-0.666 -0.44118,-0.57773 -0.0883,0.0883 -0.002,0.54201 0.19066,1.00828 0.42178,1.01828 0.65135,0.62373 0.25052,-0.43055 z m 1.32163,0.006 c 0,-0.21316 -0.25618,-0.52467 -0.56929,-0.69224 -0.49152,-0.26305 -0.54573,-0.2433 -0.39687,0.14462 0.0948,0.24711 0.17241,0.55862 0.17241,0.69224 0,0.13362 0.17859,0.24294 0.39687,0.24294 0.21828,0 0.39688,-0.1744 0.39688,-0.38756 z m 0.88505,-0.0207 c -0.0862,-0.22456 -0.21342,-0.35154 -0.28277,-0.28219 -0.0694,0.0694 -0.0476,0.25309 0.0483,0.40829 0.2609,0.42213 0.41338,0.34012 0.23448,-0.1261 z m -9.15328,43.61705 c -0.53927,-0.14032 -0.62703,-1.20694 -0.13229,-1.60773 0.27946,-0.22639 0.88088,-0.25723 1.85712,-0.0952 0.11191,0.0186 0.12431,0.34918 0.0276,0.73469 -0.12381,0.49328 -0.0861,0.64541 0.12725,0.51355 0.16674,-0.10305 0.30317,-0.47381 0.30317,-0.8239 0,-0.36575 0.22511,-0.75702 0.52917,-0.91974 0.48122,-0.25754 0.52916,-0.20121 0.52916,0.62172 0,0.65066 -0.16727,1.01055 -0.59531,1.28085 -0.60371,0.38124 -1.80244,0.51524 -2.64583,0.29578 z m 27.6792,-2.06606 c 0.32908,-1.37983 0.4966,-1.71979 0.84748,-1.71979 0.58535,0 0.44988,0.6865 -0.29731,1.5066 -0.55715,0.61151 -0.65412,0.64908 -0.55017,0.21319 z m -1.15067,-0.33073 c 0.002,-0.10914 0.11482,-0.37358 0.25019,-0.58765 0.30484,-0.48201 0.66247,-0.18056 0.4482,0.3778 -0.15824,0.41238 -0.70589,0.57693 -0.69839,0.20985 z m -25.23133,-0.45326 c -0.26881,-0.20366 -0.63351,-0.31474 -0.81045,-0.24684 -0.17694,0.0679 -0.5282,-0.10472 -0.78058,-0.3836 -0.40665,-0.44935 -0.41398,-0.55194 -0.0644,-0.90154 0.51488,-0.51488 1.84265,-0.29856 1.6264,0.26497 -0.11118,0.28973 -0.0135,0.35888 0.3665,0.25951 0.69219,-0.18101 1.46466,0.63684 1.02077,1.08073 -0.40447,0.40447 -0.75251,0.38571 -1.35825,-0.0732 z m 25.86525,-1.89395 c -0.1992,-1.06183 0.0392,-1.82184 0.30112,-0.96008 0.20872,0.68664 0.52444,0.77084 0.74409,0.19844 0.0838,-0.21828 0.0353,-0.39688 -0.10776,-0.39688 -0.14364,0 -0.19745,-0.35534 -0.12022,-0.79375 0.10466,-0.59405 0.0391,-0.79375 -0.26081,-0.79375 -0.53116,0 -0.51644,-0.95728 0.0179,-1.16231 0.78191,-0.30005 0.96508,-0.16482 0.84891,0.62669 -0.0636,0.43301 -0.0289,0.81996 0.077,0.85989 0.22701,0.0856 0.31562,0.76367 0.27351,2.0931 -0.0271,0.85711 -0.11676,0.97482 -0.82091,1.07817 -0.7163,0.10513 -0.80568,0.0348 -0.95282,-0.74952 z m -3.37509,0.20971 c -0.88286,-0.97555 -0.4207,-2.4609 0.91003,-2.92479 0.67481,-0.23525 0.97253,-0.20506 1.59308,0.16151 0.8705,0.51421 1.02347,0.98416 0.23935,0.73529 -0.28811,-0.0914 -0.72387,-0.0543 -0.96835,0.0825 -0.40252,0.22526 -0.39238,0.27668 0.10728,0.54408 0.51761,0.27702 0.52723,0.34457 0.15522,1.09029 -0.46107,0.92423 -1.35778,1.06121 -2.03661,0.31111 z m -1.62851,-0.57448 c -0.19293,-0.31217 0.0573,-0.79375 0.41249,-0.79375 0.13693,0 0.24897,0.23813 0.24897,0.52917 0,0.55803 -0.38494,0.712 -0.66146,0.26458 z m -0.34396,-1.37583 c -0.32819,-0.32819 -0.0895,-1.27 0.3219,-1.27 0.17221,0 0.45598,0.14287 0.6306,0.3175 0.17463,0.17462 0.3175,0.4584 0.3175,0.6306 0,0.41138 -0.94181,0.65009 -1.27,0.3219 z m 1.17872,-1.48927 c -0.95865,-1.05929 -0.27317,-2.38804 0.98514,-1.90963 0.78958,0.3002 0.88916,0.93826 0.28177,1.80544 -0.50012,0.71402 -0.70014,0.73047 -1.26691,0.10419 z m 2.11976,-1.01545 c -0.24945,-0.24944 -0.21923,-1.08883 0.0451,-1.25217 0.37515,-0.23186 1.35494,0.62043 1.19436,1.03892 -0.15285,0.3983 -0.92204,0.53065 -1.23943,0.21325 z m 2.43591,-2.53691 c -0.8385,-0.71665 -1.08732,-1.35169 -0.68663,-1.75238 0.47022,-0.47022 0.72016,-0.34908 0.72016,0.34902 0,0.74519 0.27584,0.99716 0.76242,0.69644 0.26526,-0.16395 0.24888,-0.24538 -0.0743,-0.36941 -0.61045,-0.23425 -0.21042,-1.01781 0.47005,-0.92072 0.65758,0.0938 0.89262,1.19887 0.43635,2.05143 -0.37248,0.69598 -0.76546,0.68285 -1.62803,-0.0544 z m -34.73547,-3.00886 c -0.173,-0.45085 0.55834,-1.20118 1.03462,-1.0615 0.14553,0.0427 0.30226,0.39583 0.34831,0.78479 0.0707,0.59754 -0.0172,0.7072 -0.56701,0.7072 -0.3579,0 -0.72506,-0.19372 -0.81592,-0.43049 z m 35.03358,-0.16244 c 0,-0.51551 -0.28815,-0.72132 -1.2555,-0.89674 -0.39468,-0.0716 -0.80113,-0.26527 -0.90321,-0.43045 -0.24684,-0.39939 0.22846,-1.25488 0.6972,-1.25488 0.55007,0 0.75887,0.49746 0.39356,0.93763 -0.26255,0.31636 -0.22114,0.38529 0.2315,0.38529 0.78453,0 1.56506,-0.9481 1.76764,-2.14712 0.0955,-0.56534 0.28226,-1.02788 0.41499,-1.02788 0.46688,0 0.24822,2.3527 -0.31278,3.36539 -0.71833,1.2967 -1.0334,1.62255 -1.0334,1.06876 z m -10.13062,-5.31569 c -0.32275,-0.83148 -0.20639,-2.97888 0.21622,-3.99033 0.2436,-0.58301 0.67808,-1.07182 1.09289,-1.22953 0.3787,-0.14398 1.0359,-0.50912 1.46044,-0.81142 0.90819,-0.64669 2.15093,-0.52691 3.2147,0.30984 0.42428,0.33374 0.73239,0.42561 0.84054,0.25062 0.0939,-0.15194 0.31059,-0.24415 0.48151,-0.20489 0.31221,0.0717 0.44307,-0.0999 0.44307,-0.58113 0,-0.72808 -5.05761,-2.13372 -6.15799,-1.71147 -0.44752,0.17173 -0.96332,-0.5212 -0.63349,-0.85104 0.0842,-0.0842 1.14069,-0.0118 2.34779,0.16087 2.55054,0.36481 5.23744,1.49213 5.23744,2.19741 0,0.27698 0.19987,0.46344 0.49677,0.46344 0.27323,0 0.66018,0.19834 0.8599,0.44076 0.32736,0.39735 0.29146,0.42292 -0.36448,0.25954 -0.47301,-0.11781 -0.7276,-0.0761 -0.7276,0.11927 0,0.17022 -0.2294,0.24049 -0.52917,0.1621 -0.70714,-0.18492 -0.66695,-0.0745 0.17323,0.47603 0.62519,0.40964 0.68427,0.41299 0.53747,0.0304 -0.0907,-0.23639 -0.0694,-0.4298 0.0473,-0.4298 0.80541,0 0.29934,1.38248 -0.66729,1.82291 -1.36391,0.62144 -2.7365,0.0403 -2.7365,-1.15868 0,-0.46642 -1.45383,-1.98714 -1.89974,-1.98714 -0.45611,0 -0.16306,0.41794 0.65316,0.93151 1.33127,0.83764 1.13723,1.5058 -0.54585,1.87955 -0.76755,0.17045 -1.55241,0.44009 -1.74413,0.59921 -0.19172,0.15912 -0.40782,0.23007 -0.48021,0.15768 -0.28488,-0.28488 -0.97238,0.85999 -1.19398,1.9883 -0.17386,0.88526 -0.28208,1.06632 -0.42196,0.70596 z m 6.78672,-4.01326 c -0.0838,-0.21828 -0.2732,-0.39687 -0.42097,-0.39687 -0.15486,0 -0.12915,0.16812 0.0607,0.39687 0.18115,0.21829 0.37059,0.39688 0.42096,0.39688 0.0504,0 0.0231,-0.17859 -0.0607,-0.39688 z m -4.71501,-0.37927 c -0.0959,-0.1552 -0.29113,-0.28218 -0.4338,-0.28218 -0.14267,0 -0.10588,0.16658 0.0818,0.37019 0.37985,0.41217 0.62352,0.35126 0.35204,-0.088 z m 5.67766,0.27938 c 0,-0.1277 -0.17859,-0.38041 -0.39687,-0.56156 -0.4308,-0.35753 -0.48465,-0.27201 -0.23628,0.37523 0.17001,0.44304 0.63315,0.57933 0.63315,0.18633 z m -4.23333,-0.95844 c -0.187,-0.22531 -0.39952,-0.35013 -0.47228,-0.27737 -0.0728,0.0728 0.0207,0.31664 0.2077,0.54195 0.18699,0.22532 0.39952,0.35014 0.47228,0.27738 0.0728,-0.0728 -0.0207,-0.31664 -0.2077,-0.54196 z m 7.67292,4.87918 c 0,-0.29963 0.11906,-0.4712 0.26458,-0.38126 0.14552,0.0899 0.26458,0.33509 0.26458,0.54478 0,0.20969 -0.11906,0.38126 -0.26458,0.38126 -0.14552,0 -0.26458,-0.24515 -0.26458,-0.54478 z m -2.85862,-1.48295 c -0.43714,-0.49852 -0.52866,-0.77624 -0.32344,-0.98146 0.4306,-0.43061 1.18122,0.14659 1.2814,0.98536 0.10552,0.88345 -0.18088,0.88228 -0.95796,-0.004 z m 2.24126,-3.70491 c -0.30444,-0.30444 -0.19268,-0.61736 0.22048,-0.61736 0.21828,0 0.39688,0.17859 0.39688,0.39687 0,0.41317 -0.31293,0.52493 -0.61736,0.22049 z m 0.56756,-2.3408 c 0.0602,-0.51575 -0.0391,-1.10761 -0.22312,-1.32931 -0.4411,-0.5315 -0.0851,-0.85829 0.40309,-0.37005 0.61015,0.61015 0.65257,2.62905 0.0553,2.62905 -0.23732,0 -0.31015,-0.28786 -0.23522,-0.92969 z m -1.73614,-0.0404 c -0.1819,-0.0728 -0.33073,-0.40545 -0.33073,-0.7393 0,-0.70762 0.65127,-1.38098 0.9181,-0.94924 0.0943,0.15259 0.0454,0.27743 -0.10874,0.27743 -0.1541,0 -0.28019,0.17859 -0.28019,0.39687 0,0.21829 0.18851,0.39688 0.41892,0.39688 0.23041,0 0.37179,0.14139 0.31419,0.31419 -0.12407,0.37222 -0.47412,0.48614 -0.93155,0.30317 z m -5.75469,-2.64938 c -1.34908,-0.51338 -3.27169,-2.60733 -2.81412,-3.0649 0.42171,-0.4217 1.19756,0.0612 1.30999,0.81543 0.12038,0.80764 1.53321,1.89421 2.51662,1.93546 2.48287,0.10415 3.1357,-0.0457 4.14689,-0.9522 0.3638,-0.32612 0.8808,-0.67041 1.14889,-0.76509 0.88797,-0.3136 -0.85502,1.50993 -1.90515,1.99318 -1.19794,0.55126 -3.01336,0.56698 -4.40312,0.0381 z m 0.0695,-1.55714 c -0.9814,-0.5325 -1.22798,-1.58767 -0.53334,-2.28231 0.43089,-0.43089 0.63476,-0.47647 1.07566,-0.24051 0.70901,0.37945 2.08394,0.37386 2.32083,-0.009 0.12348,-0.19978 0.35877,-0.0889 0.70171,0.33073 0.40422,0.49462 0.48066,0.52298 0.35301,0.131 -0.0897,-0.27543 0.0272,-0.79045 0.26006,-1.14585 0.23264,-0.35505 0.3596,-0.81071 0.28214,-1.01258 -0.0775,-0.20186 -0.0377,-0.43076 0.0883,-0.50865 0.37291,-0.23047 1.07065,0.14898 1.07065,0.58226 0,0.32641 -0.0738,0.33972 -0.39687,0.0716 -0.32769,-0.27195 -0.39688,-0.24664 -0.39688,0.14521 0,0.26102 -0.1977,0.69305 -0.43935,0.96006 -0.54387,0.60098 -0.26878,0.95744 0.3502,0.45379 0.40161,-0.32677 0.43191,-0.31274 0.26798,0.12405 -0.13516,0.36014 -0.0843,0.45391 0.18918,0.34896 0.53677,-0.20598 0.71366,0.0758 0.40712,0.64856 -0.37832,0.7069 -1.74437,0.64956 -2.4048,-0.10094 l -0.52387,-0.59531 0.15497,0.72441 c 0.33713,1.57596 -1.13583,2.29244 -2.82671,1.37497 z m 1.65028,-0.32289 c 0,-0.11434 -0.23812,-0.20789 -0.52916,-0.20789 -0.29105,0 -0.52917,0.0936 -0.52917,0.20789 0,0.11433 0.23812,0.20788 0.52917,0.20788 0.29104,0 0.52916,-0.0936 0.52916,-0.20788 z m 0.19293,-1.27489 c -0.0879,-0.0879 -0.31613,-0.0973 -0.50712,-0.0209 -0.21107,0.0845 -0.14837,0.14715 0.15985,0.15985 0.27892,0.0115 0.43519,-0.0511 0.34727,-0.13897 z m -4.49241,-0.68653 c -0.64283,-0.22621 -0.7276,-0.38999 -0.7276,-1.40572 0,-1.44665 0.55366,-2.076 1.62023,-1.84175 0.84441,0.18547 0.93641,-0.0176 0.35573,-0.78536 -0.51553,-0.68159 -0.4819,-1.46633 0.095,-2.21612 0.39075,-0.5079 0.67339,-0.59866 1.64776,-0.52917 1.0428,0.0744 1.18065,0.15885 1.21618,0.74534 0.071,1.17188 0.0948,1.20091 0.43434,0.52917 0.28068,-0.55533 0.53558,-0.66748 1.58867,-0.69894 1.45803,-0.0436 2.03796,0.51067 2.03796,1.94767 0,0.72771 -0.13766,0.9237 -0.85989,1.22422 -0.80352,0.33435 -0.92062,0.31069 -1.78594,-0.36079 -0.50932,-0.39523 -1.19393,-0.80205 -1.52135,-0.90404 -0.32743,-0.102 -0.59532,-0.35347 -0.59532,-0.55882 0,-0.30225 -0.12601,-0.31596 -0.66146,-0.072 -0.79435,0.36193 -0.88093,0.75346 -0.12277,0.55519 0.49459,-0.12934 0.51278,-0.084 0.22212,0.55394 -0.17412,0.38214 -0.41653,0.69481 -0.53869,0.69481 -0.12216,0 -0.22211,0.23812 -0.22211,0.52916 0,0.29104 -0.11907,0.52917 -0.26459,0.52917 -0.14552,0 -0.26458,0.1318 -0.26458,0.29289 0,0.16109 0.1868,0.22121 0.4151,0.1336 0.77543,-0.29756 0.29428,0.97501 -0.54739,1.44776 -0.60428,0.3394 -0.96744,0.38471 -1.52136,0.18978 z m 0.68484,-1.6149 c -0.0873,-0.53806 -0.26225,-0.9783 -0.38873,-0.9783 -0.30392,0 -0.29064,0.1915 0.0854,1.23134 0.39719,1.0984 0.5077,1.00621 0.30336,-0.25304 z m 0.75444,-0.0523 c -0.0595,-0.50932 -0.21641,-0.92604 -0.34879,-0.92604 -0.13237,0 -0.16241,0.32743 -0.0668,0.72761 0.33288,1.39267 0.56808,1.50499 0.41555,0.19843 z m 5.15094,-1.8386 c -0.0882,-0.22994 -0.0199,-0.33459 0.17068,-0.26145 0.39339,0.15096 0.99368,-0.75418 0.75545,-1.1391 -0.0958,-0.15476 -0.58734,-0.3227 -1.09234,-0.3732 -1.15802,-0.11579 -1.39472,0.58271 -0.51485,1.51929 0.68435,0.72846 0.89285,0.80636 0.68106,0.25446 z m -3.84207,-1.9417 c -0.19088,-0.0636 -0.47285,0.0101 -0.6266,0.16386 -0.19634,0.19634 -0.093,0.23077 0.34706,0.11569 0.35777,-0.0936 0.4777,-0.2135 0.27954,-0.27955 z m 0.55915,4.56497 c -0.32743,-0.22979 -0.59532,-0.65336 -0.59532,-0.94127 0,-0.8193 0.79217,-1.82777 1.43575,-1.82777 1.18766,0 2.15418,1.60155 1.53676,2.54645 -0.35418,0.54204 -1.73745,0.67156 -2.37719,0.22259 z m 1.86486,-1.19021 c 0.0877,-0.3354 0.004,-0.5205 -0.23599,-0.5205 -0.20466,0 -0.3721,-0.10791 -0.3721,-0.23981 0,-0.1319 -0.23813,-0.17754 -0.52917,-0.10143 -0.29104,0.0761 -0.52917,0.31582 -0.52917,0.5327 0,0.25691 0.15135,0.33625 0.4343,0.22767 0.34064,-0.13072 0.37053,-0.0898 0.13859,0.18965 -0.21839,0.26314 -0.21599,0.43604 0.009,0.66122 0.36982,0.36982 0.8847,0.0139 1.08434,-0.7495 z m 1.1117,0.27325 c -0.0899,-0.14552 -0.0374,-0.26458 0.11667,-0.26458 0.15411,0 0.2802,0.11906 0.2802,0.26458 0,0.14552 -0.0525,0.26459 -0.11667,0.26459 -0.0642,0 -0.19027,-0.11907 -0.2802,-0.26459 z m 6.06118,-0.10002 c -0.077,-0.20054 -0.0244,-0.76608 0.11674,-1.25677 l 0.25664,-0.89216 0.0239,1.25677 c 0.0237,1.24807 -0.12904,1.59109 -0.39724,0.89216 z m -14.47717,-3.54049 c -0.63867,-0.1447 -0.50209,-1.26913 0.14789,-1.21753 0.25459,0.0202 0.46289,-0.12862 0.46289,-0.33073 0,-0.20211 -0.16886,-0.36748 -0.37524,-0.36748 -0.20638,0 -0.58309,-0.0798 -0.83715,-0.17725 -0.30967,-0.11883 -0.40038,-0.0777 -0.27523,0.12482 0.34044,0.55084 -0.62466,1.63993 -1.45323,1.63993 -0.6735,0 -0.76332,-0.0944 -0.76332,-0.80205 0,-0.46886 -0.16487,-0.86532 -0.39687,-0.95435 -0.21828,-0.0838 -0.39688,-0.29187 -0.39688,-0.46245 0,-0.17059 -0.23812,-0.48179 -0.52916,-0.69156 -0.65546,-0.47243 -0.65998,-1.01273 -0.0149,-1.78594 0.55787,-0.66872 1.24498,-0.74941 1.93317,-0.227 0.52169,0.39603 0.62589,1.21919 0.15432,1.21919 -0.16977,0 -0.22883,0.0798 -0.13124,0.17743 0.0976,0.0976 0.47535,-0.10245 0.83946,-0.44452 0.77506,-0.72813 2.62667,-1.12194 5.28901,-1.12489 2.67519,-0.003 3.98166,0.18986 3.89605,0.57504 -0.04,0.17991 0.0449,0.25443 0.18859,0.16561 0.35403,-0.2188 2.19566,0.97253 2.91284,1.88428 0.82708,1.05146 0.20064,1.12228 -1.0484,0.11853 -0.63034,-0.50656 -1.32558,-0.82232 -1.81059,-0.82232 -0.43303,0 -1.34285,-0.23812 -2.02183,-0.52916 -1.2327,-0.5284 -2.24895,-0.68726 -2.24895,-0.35157 0,0.0977 0.20335,0.40231 0.45189,0.67695 0.4872,0.53834 0.30485,1.10974 -0.52023,1.63019 -0.32088,0.2024 -0.56794,0.14618 -0.97451,-0.22177 -0.90821,-0.82191 -0.68927,-1.34565 0.51368,-1.22877 0.28383,0.0276 0.24711,-0.0791 -0.12894,-0.37447 -0.59371,-0.46636 -2.79231,-0.47876 -3.10816,-0.0175 -0.31293,0.45696 -0.23723,0.63404 0.35084,0.82068 0.53682,0.17039 1.29876,1.55243 1.29876,2.35578 0,0.48727 -0.75958,0.88904 -1.40453,0.74292 z m 12.39899,-3.48018 c -0.0978,-0.1582 -0.35785,-0.28764 -0.57793,-0.28764 -0.61912,0 -1.28335,-0.77235 -0.95049,-1.10521 0.15909,-0.15909 0.42834,-0.18303 0.63122,-0.0561 0.19458,0.12172 0.51899,0.22446 0.72092,0.22831 0.56016,0.0107 1.01021,0.85214 0.64896,1.21338 -0.21131,0.21132 -0.34531,0.21339 -0.47268,0.007 z"
       id="path16965" />
  </g>
</svg>
