<?xml version="1.0" encoding="UTF-8" standalone="no"?>
<!-- Created with Inkscape (http://www.inkscape.org/) -->

<svg
   width="71.113014mm"
   height="34.650169mm"
   viewBox="0 0 71.113012 34.650169"
   version="1.1"
   id="svg5"
   inkscape:version="1.1 (c4e8f9ed74, 2021-05-24)"
   sodipodi:docname="ornament29.svg"
   xmlns:inkscape="http://www.inkscape.org/namespaces/inkscape"
   xmlns:sodipodi="http://sodipodi.sourceforge.net/DTD/sodipodi-0.dtd"
   xmlns="http://www.w3.org/2000/svg"
   xmlns:svg="http://www.w3.org/2000/svg">
  <sodipodi:namedview
     id="namedview7"
     pagecolor="#ffffff"
     bordercolor="#666666"
     borderopacity="1.0"
     inkscape:pageshadow="2"
     inkscape:pageopacity="0.0"
     inkscape:pagecheckerboard="0"
     inkscape:document-units="mm"
     showgrid="false"
     inkscape:zoom="1.3380612"
     inkscape:cx="15.320675"
     inkscape:cy="208.13697"
     inkscape:window-width="2506"
     inkscape:window-height="1403"
     inkscape:window-x="1974"
     inkscape:window-y="0"
     inkscape:window-maximized="1"
     inkscape:current-layer="layer1" />
  <defs
     id="defs2" />
  <g
     inkscape:label="Layer 1"
     inkscape:groupmode="layer"
     id="layer1"
     transform="translate(-184.82632,-46.208506)">
    <path
       style="fill:#000000;stroke-width:0.264583"
       d="m 187.19345,79.173942 c -0.80437,-1.06871 -1.4625,-2.03173 -1.4625,-2.14004 0,-0.41432 0.50263,0.0375 1.84698,1.6602 l 1.39242,1.68075 1.83151,-1.81304 1.83152,-1.81304 0.51165,0.66146 c 0.28141,0.3638 0.51914,0.78052 0.52829,0.92604 0.009,0.14552 0.34815,0.65185 0.75333,1.12517 l 0.7367,0.86058 1.85276,-1.85277 c 1.01903,-1.01902 1.98861,-1.85277 2.15463,-1.85277 0.16602,0 0.76373,0.62522 1.32825,1.38938 0.56451,0.76416 1.22311,1.55264 1.46355,1.75219 0.4901,0.40674 0.57592,0.82718 0.16885,0.82718 -0.32544,0 -1.68788,-1.44552 -2.30675,-2.44739 -0.2472,-0.40019 -0.59238,-0.72761 -0.76707,-0.72761 -0.1747,0 -0.95605,0.70548 -1.73635,1.56773 -0.78029,0.86225 -1.71834,1.64293 -2.08455,1.73484 -0.58208,0.14609 -0.7766,-0.004 -1.54623,-1.19156 -0.48422,-0.74727 -1.03481,-1.41793 -1.22353,-1.49035 -0.18872,-0.0724 -0.85878,0.41789 -1.48902,1.08957 -2.14268,2.28357 -2.10632,2.28306 -3.78444,0.0535 z m 4.96599,1.21285 c -0.27244,-0.3996 -0.35182,-0.40971 -0.57957,-0.0738 -0.14514,0.21406 -0.34687,0.30624 -0.44828,0.20483 -0.23527,-0.23528 0.38123,-0.99092 0.80846,-0.99092 0.33233,0 1.19924,0.82793 1.19924,1.14531 0,0.35969 -0.67385,0.16341 -0.97985,-0.28542 z m 10.76943,0.25838 c 0,-0.11255 0.94217,-1.14129 2.09371,-2.28607 1.38408,-1.37596 2.23006,-2.02911 2.49599,-1.92707 0.22125,0.0849 0.97572,0.93015 1.6766,1.87833 0.70088,0.94818 1.3904,1.72886 1.53227,1.73484 0.14187,0.006 1.07144,-0.79281 2.06572,-1.77507 1.73147,-1.71056 1.82326,-1.7636 2.17456,-1.25677 1.21906,1.75874 2.39531,3.0427 2.78745,3.0427 0.42699,0 2.0398,-1.56079 2.92054,-2.82634 0.44034,-0.63272 1.13978,-0.9115 1.15884,-0.46188 0.007,0.15601 0.66047,0.96307 1.453,1.79347 l 1.44098,1.50983 1.81408,-1.79348 1.81408,-1.79347 1.63974,1.79377 c 0.90185,0.98658 1.75559,1.79025 1.8972,1.78594 0.1416,-0.004 1.01119,-0.75198 1.93241,-1.66148 l 1.67494,-1.65365 1.68772,1.85209 1.68771,1.85208 1.80383,-1.78151 c 0.99211,-0.97982 1.89651,-1.86625 2.00978,-1.96983 0.11327,-0.10358 1.0266,0.62604 2.02963,1.62138 l 1.82368,1.80971 1.54225,-1.29508 c 0.84824,-0.7123 1.68134,-1.47349 1.85135,-1.69155 0.17,-0.21805 0.40812,-0.29663 0.52916,-0.17462 0.20669,0.20834 -3.5206,3.86953 -3.94553,3.87558 -0.10827,0.002 -1.00567,-0.84539 -1.99423,-1.88205 l -1.79737,-1.88485 -1.67104,1.88485 c -0.91908,1.03666 -1.86394,1.88484 -2.0997,1.88484 -0.23576,0 -1.17746,-0.74215 -2.09268,-1.64923 l -1.66402,-1.64923 -1.40005,1.46872 c -0.77003,0.80779 -1.59964,1.54531 -1.84359,1.63892 -0.31551,0.12107 -0.84605,-0.25494 -1.83784,-1.30254 -0.76686,-0.81001 -1.48364,-1.60904 -1.59285,-1.77563 -0.12887,-0.19659 -0.81061,0.32252 -1.9427,1.47927 -2.00355,2.04719 -1.91764,2.05037 -3.99137,-0.14763 l -1.37012,-1.45222 -1.13969,1.3234 c -1.21627,1.41231 -2.35004,2.15621 -2.91632,1.91349 -0.19112,-0.0819 -0.91906,-0.85082 -1.61765,-1.70867 l -1.27015,-1.55972 -1.60894,1.71054 c -0.88492,0.94079 -1.71141,1.71053 -1.83666,1.71053 -0.12525,0 -0.55606,-0.38142 -0.95737,-0.8476 -0.4013,-0.46618 -1.17025,-1.32939 -1.70877,-1.91823 l -0.97914,-1.07062 -1.9375,1.91823 c -1.84142,1.8231 -2.32194,2.17772 -2.32194,1.71358 z m 2.91042,-0.1744 c 0,-0.20848 0.22712,-0.45113 0.50472,-0.53924 0.2776,-0.0881 0.57603,-0.34601 0.66318,-0.57311 0.13385,-0.34881 0.26017,-0.31644 0.81362,0.20851 0.63492,0.60222 0.8782,1.28288 0.45853,1.28288 -0.11318,0 -0.43005,-0.26191 -0.70414,-0.58204 l -0.49837,-0.58204 -0.38646,0.58204 c -0.4409,0.66404 -0.85108,0.76187 -0.85108,0.203 z m 7.14375,0.16058 c 0,-0.12015 0.2964,-0.49692 0.65868,-0.83726 0.6395,-0.60078 0.67419,-0.60478 1.19063,-0.13741 0.55364,0.50104 0.71635,1.19313 0.2805,1.19313 -0.13829,0 -0.36665,-0.20588 -0.50747,-0.45751 -0.24267,-0.43363 -0.28243,-0.43363 -0.76159,0 -0.54868,0.49655 -0.86075,0.58322 -0.86075,0.23905 z m -15.61042,-0.28027 c 0,-0.25097 1.16543,-1.08877 1.51455,-1.08877 0.29206,0 0.93699,1.07624 0.75436,1.25887 -0.082,0.082 -0.37078,-0.0517 -0.64185,-0.29702 -0.43991,-0.39812 -0.52883,-0.40268 -0.82777,-0.0425 -0.36885,0.44444 -0.79929,0.53567 -0.79929,0.1694 z m 22.75417,0.0106 c 0,-0.12297 0.23928,-0.44012 0.53174,-0.70479 0.46376,-0.4197 0.61596,-0.43614 1.19062,-0.12859 0.67013,0.35864 0.90621,1.05696 0.35733,1.05696 -0.16586,0 -0.4636,-0.20836 -0.66166,-0.46302 -0.34294,-0.44098 -0.3733,-0.44098 -0.63763,0 -0.28763,0.47987 -0.7804,0.63106 -0.7804,0.23944 z m 6.61458,-0.026 c 0,-0.34001 1.08135,-1.07333 1.58273,-1.07333 0.44837,0 1.12696,0.90628 0.87057,1.16267 -0.0888,0.0888 -0.39017,-0.0456 -0.66979,-0.29869 -0.48266,-0.4368 -0.52539,-0.43683 -0.84439,-5.3e-4 -0.35976,0.49197 -0.93912,0.62147 -0.93912,0.20988 z m 7.14375,0.0154 c 0,-0.12879 0.2963,-0.4283 0.65845,-0.66559 0.54389,-0.35637 0.75102,-0.37361 1.19062,-0.0991 0.7263,0.45358 0.67049,0.77902 -0.10041,0.58554 -0.34793,-0.0873 -0.71214,-0.0301 -0.80937,0.12725 -0.21215,0.34327 -0.93929,0.38342 -0.93929,0.0519 z m 9.35261,-0.22887 c -0.24274,-0.3722 -0.36962,-0.39815 -0.64687,-0.13229 -0.1897,0.1819 -0.52675,0.33073 -0.749,0.33073 -0.28578,0 -0.19495,-0.20914 0.31028,-0.71437 l 0.71437,-0.71436 0.66868,0.62819 c 0.36777,0.34551 0.66868,0.72651 0.66868,0.84666 0,0.39471 -0.65781,0.2282 -0.96614,-0.24456 z m -25.49219,-1.67329 c 0,-0.31596 -2.88316,-3.41994 -3.17664,-3.41994 -0.23417,0 -1.17302,0.8907 -2.42301,2.29874 l -0.96944,1.09201 -1.78089,-1.69538 c -0.97949,-0.93245 -1.85293,-1.69222 -1.94098,-1.68837 -0.0881,0.004 -0.97136,0.77775 -1.96292,1.71979 -0.99156,0.94204 -1.92486,1.71279 -2.07401,1.71279 -0.14914,0 -1.11911,-0.7739 -2.15549,-1.71979 -1.03638,-0.94588 -1.95738,-1.71979 -2.04667,-1.71979 -0.0893,0 -0.90957,0.77391 -1.82287,1.71979 -0.91329,0.94589 -1.75332,1.71979 -1.86673,1.71979 -0.2507,0 -1.91525,-2.01374 -2.36162,-2.85704 -0.31603,-0.59707 -0.35259,-0.57551 -2.01859,1.19062 l -1.69672,1.79872 -0.99911,-1.08218 c -2.21738,-2.40174 -3.77,-4.40401 -3.61255,-4.65877 0.0958,-0.15494 0.4055,0.0187 0.72856,0.40836 2.69461,3.25046 3.53349,4.13613 3.92016,4.13883 0.24627,0.002 1.01312,-0.65171 1.70411,-1.45208 1.30347,-1.5098 2.06292,-1.81806 2.33866,-0.94926 0.0883,0.27827 0.50537,0.93981 0.92678,1.47009 0.42141,0.53027 0.81286,1.1041 0.86989,1.27518 0.10191,0.30573 3.37008,-2.90233 3.37008,-3.3081 0,-0.5766 0.8635,-0.0284 2.59021,1.64438 1.05147,1.01865 1.96188,1.85209 2.02313,1.85209 0.14173,0 0.48052,-0.30544 2.46435,-2.22173 l 1.61525,-1.56026 1.91546,1.7482 1.91546,1.7482 0.51494,-0.58481 c 0.28322,-0.32164 0.81758,-0.97747 1.18747,-1.45737 1.27164,-1.64989 1.48981,-1.62481 3.39181,0.38992 l 1.70455,1.80556 1.06319,-1.16852 c 0.6845,-0.75232 0.97207,-1.25963 0.80737,-1.42433 -0.242,-0.242 -1.58536,0.98649 -1.60566,1.46837 -0.0162,0.38541 -0.53753,0.19279 -0.53753,-0.19862 0,-0.44874 -2.82508,-3.30711 -3.26859,-3.30711 -0.41639,0 -3.346,2.96005 -3.346,3.38077 0,0.19504 -0.12222,0.27909 -0.2716,0.18677 -0.14938,-0.0923 -0.24022,-0.30771 -0.20187,-0.47864 0.10366,-0.46197 -2.53913,-2.82432 -3.15959,-2.82432 -0.29451,0 -0.6837,0.1786 -0.86485,0.39688 -0.18116,0.21828 -0.45462,0.39687 -0.60769,0.39687 -0.4027,0 0.86419,-1.28469 1.45037,-1.47074 0.35212,-0.11176 0.91726,0.22956 1.96385,1.18608 0.80819,0.73865 1.57398,1.34299 1.70174,1.34299 0.12776,0 0.85865,-0.65484 1.6242,-1.4552 0.76556,-0.80037 1.51836,-1.45521 1.6729,-1.45521 0.15454,0 0.9879,0.71437 1.85192,1.5875 0.86401,0.87312 1.7057,1.5875 1.87041,1.5875 0.16471,0 0.8231,-0.65621 1.46309,-1.45825 1.47463,-1.84801 1.96502,-2.01881 2.86023,-0.99624 0.37699,0.43062 1.0903,1.24311 1.58513,1.80554 l 0.89968,1.02259 1.61386,-1.77896 c 0.88762,-0.97843 1.74964,-1.77687 1.91562,-1.77432 0.16597,0.003 1.05894,0.71799 1.98437,1.58987 0.92544,0.87188 1.76252,1.55649 1.86019,1.52135 0.0977,-0.0351 0.96069,-0.81774 1.91784,-1.73914 1.98451,-1.91039 2.00366,-2.05999 0.52388,-4.09325 -0.71858,-0.98735 -1.03987,-1.23405 -1.44128,-1.10665 -0.7452,0.23652 -0.64473,-0.36524 0.10881,-0.65174 0.72001,-0.27375 0.96379,-0.77084 0.95808,-1.95359 -0.007,-1.41255 -0.31089,-1.61722 -1.36609,-0.91955 -1.04187,0.68886 -2.38895,2.29192 -2.19273,2.60942 0.0711,0.11511 0.48517,0.28744 0.92007,0.38296 0.43489,0.0955 0.79071,0.28327 0.79071,0.41723 0,0.3529 -0.36472,0.30389 -1.80165,-0.2421 -2.85317,-1.08412 -5.43197,-3.64426 -7.16544,-7.11356 -0.90647,-1.81419 -1.04291,-3.00097 -0.4058,-3.52973 1.03436,-0.85844 6.33379,1.1303 8.73688,3.27872 1.415,1.26505 3.38017,4.5558 3.23442,5.41614 -0.0438,0.25849 0.3021,1.06484 0.76865,1.7919 0.86743,1.35177 1.82804,4.0715 2.18931,6.19844 0.26088,1.53591 0.34017,-4.05351 0.0944,-6.65522 -0.13597,-1.43938 -0.27113,-1.81654 -0.74117,-2.06809 -0.31618,-0.16922 -0.80337,-0.74625 -1.08264,-1.28228 -0.64058,-1.22954 -4.17652,-7.27358 -5.64881,-9.6556 -0.90914,-1.47089 -3.73442,-7.14159 -3.73442,-7.49546 0,-0.0525 0.16241,-0.0954 0.3609,-0.0954 0.19849,0 0.68387,0.46606 1.07862,1.03569 0.39475,0.56963 0.93747,1.23454 1.20603,1.47759 0.46626,0.42196 0.50933,0.37521 0.95407,-1.03569 0.25618,-0.81267 0.6068,-1.47759 0.77917,-1.47759 0.17237,0 0.63579,0.48717 1.02983,1.08261 0.39404,0.59543 0.75975,1.0393 0.81269,0.98636 0.0529,-0.0529 0.13332,-0.68465 0.17862,-1.40379 0.0453,-0.71915 0.20096,-1.31184 0.3459,-1.31709 0.14495,-0.005 0.58074,0.57776 0.96843,1.29559 l 0.70489,1.30515 0.42063,-1.00673 c 0.23136,-0.5537 0.42064,-1.11125 0.42064,-1.239 0,-0.12775 0.14883,-0.22863 0.33073,-0.22419 0.1819,0.004 0.63714,0.68906 1.01164,1.52136 l 0.68091,1.51327 0.38915,-1.58614 c 0.48786,-1.988462 1.13459,-2.280972 1.39821,-0.6324 0.18682,1.16835 0.44072,1.15542 1.04865,-0.0534 0.47961,-0.95366 0.91363,-0.89838 1.10865,0.14121 0.24731,1.31825 0.49823,1.35559 1.03974,0.15473 0.67948,-1.506805 1.12929,-1.549331 1.34259,-0.12693 0.0971,0.64729 0.2734,1.17689 0.39185,1.17689 0.11845,0 0.50733,-0.37307 0.86418,-0.82903 0.81822,-1.0455 1.24162,-0.80258 1.24162,0.71235 0,0.64626 0.0936,1.17501 0.20811,1.17501 0.11445,0 0.65254,-0.59531 1.19575,-1.32292 0.99321,-1.33036 1.50656,-1.65039 1.50656,-0.9392 0,0.21104 -1.38363,3.21737 -3.07473,6.68073 -1.6911,3.46336 -3.41614,7.04923 -3.83343,7.96859 -0.4173,0.91937 -1.17315,2.17733 -1.67967,2.79548 -0.99095,1.20932 -1.14627,2.01117 -1.60756,8.29909 -0.0988,1.34607 -0.28596,2.4474 -0.41604,2.4474 -0.13007,0 -0.23547,-0.26789 -0.23423,-0.59531 0.003,-0.85011 0.48482,-6.46942 0.66893,-7.80521 0.14658,-1.06357 0.11926,-1.12448 -0.50439,-1.12448 h -0.65937 l 0.11299,4.16719 c 0.0621,2.29195 0.11344,4.64145 0.11399,5.22111 l 0.001,1.05392 0.92022,-0.92163 c 0.81562,-0.81687 0.95354,-1.16223 1.2133,-3.0383 0.1612,-1.16417 0.64007,-2.93281 1.06416,-3.93031 0.42409,-0.9975 0.77107,-2.04312 0.77107,-2.3236 0,-1.95803 2.72813,-5.37028 6.48229,-8.10783 0.95181,-0.69407 5.33518,-1.32412 6.15597,-0.88485 0.47371,0.25353 0.50837,0.41462 0.29426,1.36754 -0.64793,2.88377 -3.50578,6.87763 -5.75281,8.03962 -1.60098,0.8279 -3.85691,1.54416 -4.95957,1.57468 -0.62449,0.0173 -1.26532,0.16132 -1.42407,0.3201 -0.36618,0.36623 -1.57682,3.77492 -1.58424,4.46059 -0.004,0.40128 0.065,0.44538 0.31192,0.19843 0.57123,-0.57122 1.10084,-0.33879 2.59334,1.13813 l 1.47098,1.45563 1.69925,-1.75754 c 0.93459,-0.96664 1.73853,-1.63969 1.78655,-1.49565 0.048,0.14403 -0.631,0.98914 -1.50891,1.87802 -0.87792,0.88888 -1.59621,1.74033 -1.59621,1.89212 0,0.58464 -0.81536,0.23668 -1.36827,-0.58393 -0.31866,-0.47295 -1.01627,-1.24453 -1.55023,-1.71463 l -0.97085,-0.85472 -1.91912,1.9792 c -1.05558,1.08857 -2.00373,1.97921 -2.10705,1.97921 -0.10333,0 -0.77203,-0.89297 -1.486,-1.98438 -0.71397,-1.0914 -1.46907,-1.98437 -1.678,-1.98437 -0.37204,0 -3.45095,3.11481 -3.46532,3.50573 -0.004,0.10914 -0.18216,0.19843 -0.39587,0.19843 -0.2355,0 -0.32899,-0.15526 -0.23732,-0.39414 0.15821,-0.41229 -2.67388,-3.29322 -3.24821,-3.30423 -0.34862,-0.007 -3.26965,3.07446 -3.26965,3.44887 0,0.5609 -0.75125,0.19712 -1.04187,-0.5045 -0.17178,-0.41471 -0.84242,-1.27427 -1.49032,-1.91013 l -1.178,-1.15612 -0.8518,0.85179 c -0.78916,0.78916 -0.80954,0.8518 -0.27718,0.8518 0.31603,0 0.64959,-0.12133 0.74125,-0.26963 0.0916,-0.14829 1.00982,0.55377 2.04039,1.56013 l 1.87376,1.82975 1.69893,-1.71574 c 1.9383,-1.95748 1.5444,-2.00497 4.1818,0.50412 l 1.33132,1.26655 1.66285,-1.71988 c 0.91457,-0.94594 1.76999,-1.71989 1.90095,-1.71989 0.13095,0 0.84649,0.80368 1.59009,1.78594 0.74359,0.98227 1.45087,1.78594 1.57172,1.78594 0.12085,0 0.79637,-0.52651 1.50115,-1.17002 0.70478,-0.64351 1.58461,-1.44625 1.95518,-1.78385 l 0.67375,-0.61383 1.69743,1.58541 c 0.93359,0.87198 1.75926,1.58541 1.83482,1.58541 0.0756,0 1.23715,-1.0952 2.58132,-2.43377 1.34417,-1.33858 2.51036,-2.36735 2.59155,-2.28617 0.22778,0.22778 -4.62792,5.24911 -5.07596,5.24911 -0.21754,0 -1.11915,-0.65484 -2.00358,-1.45521 -0.88443,-0.80036 -1.6989,-1.45521 -1.80994,-1.45521 -0.11103,0 -0.95012,0.77391 -1.86464,1.7198 -0.91452,0.94588 -1.8663,1.71979 -2.11508,1.71979 -0.24877,0 -0.66932,-0.29161 -0.93454,-0.64802 -0.26522,-0.35642 -0.83248,-1.13033 -1.26058,-1.7198 -0.4281,-0.58947 -0.89678,-1.07177 -1.04152,-1.07177 -0.14474,0 -0.9851,0.78656 -1.86747,1.74791 l -1.60432,1.7479 -1.77829,-1.7479 c -0.97805,-0.96135 -1.88267,-1.74791 -2.01024,-1.74791 -0.12758,0 -0.91336,0.71438 -1.74618,1.5875 -0.83282,0.87313 -1.5969,1.5875 -1.69796,1.5875 -0.10106,0 -0.93448,-0.71437 -1.85205,-1.5875 -0.91756,-0.87312 -1.77734,-1.5875 -1.91062,-1.5875 -0.36357,0 -2.04675,1.88083 -2.427,2.71198 -0.32502,0.71042 -0.99745,1.00933 -0.99745,0.44338 z m 19.70327,-5.07358 c -0.68643,-2.71405 -2.11327,-5.75003 -2.70379,-5.75302 -0.55971,-0.003 -0.3658,0.60922 0.56317,1.77764 0.50993,0.64137 1.09952,1.85375 1.38319,2.84427 0.27193,0.94953 0.58748,1.72642 0.70121,1.72642 0.11373,0 0.13903,-0.26789 0.0562,-0.59531 z m 5.81753,-4.67977 c 0.60986,-0.88004 0.85106,-1.0403 1.36977,-0.91011 0.98506,0.24723 2.47818,-0.12185 2.47818,-0.61257 0,-0.51441 -1.68609,-2.61979 -2.40707,-3.00564 -0.4521,-0.24196 -0.57172,-0.15174 -0.92733,0.69934 -0.22455,0.53742 -0.33964,1.25058 -0.25576,1.5848 0.0839,0.33421 0.0267,0.68544 -0.12713,0.78049 -0.44382,0.2743 -1.56711,3.00997 -1.72439,4.19958 l -0.14331,1.08398 0.49842,-1.37588 c 0.27412,-0.75673 0.8315,-1.85653 1.23862,-2.44399 z m -12.47186,-2.12336 c 0.25467,-0.43112 0.99472,-1.16568 1.64455,-1.63235 1.19855,-0.86074 1.47186,-1.28796 0.82397,-1.28796 -0.43165,0 -3.63329,3.32931 -3.41325,3.54935 0.28675,0.28675 0.47962,0.15832 0.94473,-0.62904 z m 17.23351,-0.076 c -0.31516,-1.04067 -1.20064,-2.30523 -2.08823,-2.98223 -1.56301,-1.19216 -1.71529,-0.58471 -0.19724,0.78676 0.55521,0.5016 1.23713,1.33473 1.51538,1.85139 0.56419,1.04765 1.04873,1.26414 0.77009,0.34408 z m -18.13275,-0.49102 0.60754,-0.82175 -1.28539,-1.32791 c -1.14142,-1.17918 -3.99512,-2.84943 -4.86839,-2.84943 -0.56342,0 0.96671,2.24811 2.73592,4.01968 0.98932,0.99064 1.88967,1.80116 2.00077,1.80116 0.1111,0 0.4754,-0.36979 0.80955,-0.82175 z m 20.29222,-0.035 c 1.76378,-1.36844 2.5771,-2.26807 3.43116,-3.79527 0.4972,-0.88908 0.904,-1.68321 0.904,-1.76474 0,-0.44911 -1.97036,0.51811 -4.78552,2.34915 -2.03906,1.32624 -2.05218,1.35236 -1.42864,2.84471 0.4648,1.1124 0.82635,1.18286 1.879,0.36615 z m -9.45431,-1.30994 c 0.47469,-0.4641 1.03613,-1.17847 1.24765,-1.5875 l 0.38458,-0.74369 h -3.04951 c -1.9257,0 -3.0495,0.10094 -3.0495,0.27389 0,0.44685 0.82769,1.66677 1.56355,2.30448 0.96205,0.83375 1.87734,0.75582 2.90323,-0.24718 z m -8.94652,-0.58609 c 0.41581,-0.34988 0.89656,-0.683 1.06832,-0.74025 0.91508,-0.30503 -1.99282,-2.99696 -4.37582,-4.05083 -1.81255,-0.8016 -2.40809,-0.8596 -2.00384,-0.19516 0.15493,0.25466 0.54608,0.90636 0.8692,1.44823 0.60648,1.01704 3.28507,4.17416 3.54147,4.17416 0.0796,0 0.48486,-0.28627 0.90067,-0.63615 z m 17.23611,-1.57369 c 1.59272,-1.53038 3.57476,-4.30139 3.28438,-4.59177 -0.50858,-0.50858 -4.36942,1.76976 -6.10518,3.60277 l -0.78006,0.82376 0.91235,0.77991 c 0.50179,0.42895 0.98039,0.78475 1.06354,0.79067 0.0831,0.006 0.81439,-0.62649 1.62497,-1.40534 z m -21.65652,-1.09745 c -0.0838,-0.21828 -0.25702,-0.39688 -0.38502,-0.39688 -0.128,0 -0.41746,-0.44212 -0.64324,-0.9825 -0.60212,-1.44108 -1.14533,-1.92791 -2.15114,-1.92791 -0.74262,0 -0.88438,0.0958 -0.88098,0.59531 0.007,0.95832 0.39744,1.33648 2.30055,2.22547 0.98804,0.46154 1.82247,0.84911 1.85428,0.86127 0.0318,0.0122 -0.0107,-0.15648 -0.0945,-0.37476 z m 15.44897,-0.0661 c 0.0844,-0.25412 -0.75318,-0.33073 -3.61635,-0.33073 -3.41928,0 -4.05507,0.11212 -3.54251,0.62469 0.34252,0.34252 7.03878,0.0676 7.15886,-0.29396 z m 11.20808,-1.48164 c 0.70952,-0.28149 0.99305,-0.57375 1.10015,-1.134 0.18765,-0.98163 0.0568,-1.15467 -0.87287,-1.15467 -0.75762,0 -1.07656,0.36216 -3.00208,3.40892 -0.14662,0.232 0.14427,0.16332 0.79375,-0.18741 0.56386,-0.30448 1.45533,-0.72426 1.98105,-0.93284 z m -10.5849,0.0403 c 0.24133,-0.33504 1.00715,-1.85931 1.70182,-3.38728 0.69467,-1.52797 1.78021,-3.74041 2.41232,-4.91654 1.16129,-2.16076 1.34661,-2.64498 0.90872,-2.37435 -0.70951,0.4385 -5.48344,8.38117 -5.98241,9.95328 -0.38141,1.20172 -0.83391,0.45318 -1.24957,-2.06708 -1.18216,-7.16767 -1.60679,-9.47707 -1.77733,-9.66613 -0.10283,-0.114 -0.33264,0.48131 -0.51067,1.32292 -0.95059,4.49355 -1.33534,6.49497 -1.6166,8.40936 -0.17104,1.16416 -0.4196,2.22977 -0.55234,2.36802 -0.14998,0.15619 -0.24136,0.10492 -0.24136,-0.13542 0,-0.40226 -3.16305,-4.74356 -4.74341,-6.51033 -2.15232,-2.40621 -2.9295,-3.24564 -2.9295,-3.1641 0,0.39787 5.76105,10.23601 6.21704,10.61683 0.18572,0.15511 1.89069,0.24294 4.12065,0.21227 3.63754,-0.05 3.82304,-0.0789 4.24264,-0.66145 z m -7.02052,-4.90631 c -0.48411,-1.42079 -0.51679,-1.74945 -0.15148,-1.52368 0.14552,0.0899 0.26458,0.43139 0.26458,0.75879 0,0.32741 0.14883,0.79881 0.33073,1.04758 0.29804,0.40758 0.33073,0.38892 0.33073,-0.18875 0,-0.35258 -0.0893,-0.58586 -0.19843,-0.51841 -0.10915,0.0675 -0.19844,-0.1843 -0.19844,-0.55945 0,-0.61353 -2.58781,-6.38947 -2.76974,-6.182 -0.0415,0.0473 -0.16009,1.54478 -0.26359,3.32775 -0.16833,2.89992 -0.14387,3.22477 0.23195,3.08055 0.29023,-0.11137 0.42138,-0.009 0.42418,0.33011 0.002,0.27023 0.12832,0.66992 0.28021,0.8882 0.20029,0.28785 0.22757,0.0788 0.0993,-0.76108 -0.1177,-0.77078 -0.0854,-1.10145 0.0966,-0.98895 0.15041,0.093 0.32092,-0.0408 0.37891,-0.29725 0.1044,-0.46169 0.26094,-0.0156 1.04347,2.97333 0.29528,1.12787 0.35893,1.21318 0.43168,0.57862 0.0469,-0.40936 -0.1019,-1.29378 -0.33073,-1.96536 z m 6.78751,1.13788 c 0.0984,0.0984 0.25861,-0.16247 0.35591,-0.57982 0.0973,-0.41735 0.3521,-0.89897 0.56624,-1.07027 0.43054,-0.3444 0.47372,-2.58781 0.1086,-5.64168 l -0.20562,-1.71979 -1.27299,2.64583 c -1.23967,2.57656 -1.83323,4.89479 -1.25327,4.89479 0.15377,0 0.33929,-0.20835 0.41226,-0.46302 0.073,-0.25466 0.0672,0.0132 -0.0129,0.59532 -0.0801,0.58208 -0.14514,1.11786 -0.1446,1.19062 0.007,0.95226 0.10988,1.32556 0.32821,1.19063 0.14553,-0.0899 0.27365,-0.008 0.28472,0.18282 0.0111,0.19049 0.16285,-0.0476 0.33728,-0.52905 0.17443,-0.48146 0.39771,-0.79484 0.49616,-0.69638 z m -0.71707,-0.67719 c 0.38992,-2.54009 0.47701,-2.91041 0.68445,-2.91041 0.12328,0 0.16532,0.38695 0.0934,0.85989 -0.10341,0.68017 -0.0783,0.74929 0.12031,0.33073 0.2325,-0.49008 0.25104,-0.48031 0.25104,0.13229 0,0.36381 -0.10232,0.89959 -0.22739,1.19063 -0.21009,0.48891 -0.23091,0.47885 -0.27373,-0.13229 -0.0392,-0.55963 -0.1036,-0.49853 -0.4183,0.39687 l -0.37195,1.05834 z m -6.72676,0.5065 c -0.16913,-0.42308 -0.26103,-0.48974 -0.27214,-0.19741 -0.0223,0.5865 0.32022,1.45808 0.43622,1.11008 0.0502,-0.15064 -0.0236,-0.56134 -0.16408,-0.91267 z m -0.37826,-1.63097 c -0.0734,-0.18191 -0.13346,-0.0331 -0.13346,0.33072 0,0.36381 0.0601,0.51263 0.13346,0.33073 0.0734,-0.1819 0.0734,-0.47955 0,-0.66145 z m -2.8703,-5.02297 c -0.33672,-0.68897 -0.75546,-1.25451 -0.93052,-1.25677 -0.30675,-0.004 -0.87534,1.56086 -0.86374,2.37713 0.003,0.21828 0.36313,0.81359 0.80005,1.32292 l 0.79441,0.92604 -0.14126,-1.05833 -0.14126,-1.05834 0.37794,0.92604 c 0.20787,0.50933 0.40951,1.2237 0.4481,1.5875 0.0386,0.36381 0.11479,-0.0529 0.16933,-0.92604 0.0787,-1.26006 -0.0271,-1.84587 -0.51305,-2.84015 z m 4.40705,1.98026 c -0.12209,-0.73832 -0.0924,-0.89064 0.11625,-0.59532 0.15419,0.21829 0.28216,0.60524 0.28438,0.8599 0.007,0.75878 0.47754,0.52509 0.6654,-0.33021 0.13052,-0.59427 -0.0247,-1.19133 -0.61888,-2.38038 l -0.79311,-1.58715 -0.45854,1.20067 c -0.45024,1.17894 -0.44742,1.22442 0.15596,2.51267 0.33798,0.7216 0.65909,1.312 0.71357,1.312 0.0545,0 0.0252,-0.44648 -0.065,-0.99218 z m 9.37615,0.0297 c 0.50276,-0.62089 0.44437,-3.36239 -0.0682,-3.20214 -0.96469,0.30162 -1.72284,3.92555 -0.79268,3.78903 0.24072,-0.0353 0.62812,-0.29943 0.86089,-0.58689 z m -0.74849,0.0144 c 0.0127,-0.30822 0.0754,-0.37092 0.15985,-0.15985 0.0764,0.191 0.067,0.4192 -0.0209,0.50712 -0.0879,0.0879 -0.15045,-0.0683 -0.13896,-0.34727 z m -3.58374,-2.65582 c -0.0956,-0.63722 -0.27258,-1.15859 -0.39338,-1.15859 -0.24665,0 -1.07086,1.92418 -1.07086,2.5 0,0.20494 0.19887,0.57149 0.44193,0.81455 0.41284,0.41284 0.46674,0.39457 0.81899,-0.27773 0.25636,-0.48928 0.32144,-1.09052 0.20332,-1.87823 z m -0.89329,1.48725 c 0,-0.3638 0.0601,-0.51263 0.13345,-0.33073 0.0734,0.1819 0.0734,0.47956 0,0.66146 -0.0734,0.1819 -0.13345,0.0331 -0.13345,-0.33073 z m -52.03376,26.08991 c -0.14477,-0.20263 -0.84134,-1.10288 -1.54791,-2.00056 -0.70658,-0.89767 -1.21427,-1.70256 -1.12819,-1.78863 0.0861,-0.0861 0.42536,0.18909 0.75397,0.61149 0.32861,0.4224 0.97495,1.18359 1.4363,1.69155 l 0.83883,0.92355 1.71987,-1.6515 c 0.96364,-0.92534 1.87519,-1.59136 2.07313,-1.51472 0.1943,0.0752 0.62103,0.52904 0.94828,1.00846 0.32726,0.47943 0.84844,1.14371 1.15818,1.47617 l 0.56316,0.60449 1.67687,-1.66196 c 1.62049,-1.60609 1.69409,-1.64638 2.189,-1.1985 0.79148,0.71628 0.85357,0.1589 0.16974,-1.52363 -0.87235,-2.14638 -1.18319,-2.419 -2.83471,-2.4862 -1.96621,-0.08 -4.3003,-1.3257 -6.50959,-3.47414 -1.58402,-1.54039 -1.91109,-2.03874 -2.79763,-4.26258 -0.60413,-1.51543 -0.96821,-2.83246 -0.91426,-3.30729 0.0892,-0.78541 0.0971,-0.78884 1.70757,-0.74561 2.79411,0.075 6.59052,2.11594 8.55222,4.59768 1.14268,1.4456 2.31635,3.75019 2.5792,5.06446 0.0935,0.4677 0.42749,1.22968 0.74211,1.6933 0.70446,1.03808 1.38765,3.16555 1.69231,5.26988 l 0.22984,1.5875 0.0526,-1.45521 c 0.029,-0.80036 0.0775,-1.87192 0.10796,-2.38125 0.0304,-0.50932 -0.0185,-1.87854 -0.10882,-3.0427 -0.14404,-1.85742 -0.25864,-2.21707 -0.93559,-2.93634 -0.82774,-0.8795 -1.09978,-1.37651 -6.09504,-11.1355 -1.80144,-3.5194 -3.27536,-6.58526 -3.27536,-6.81302 0,-0.83571 0.68722,-0.34466 1.68315,1.20271 0.56193,0.87306 1.09771,1.51128 1.19062,1.41827 0.0929,-0.093 0.16894,-0.78188 0.16894,-1.53082 0,-1.83069 0.54616,-1.91884 1.56995,-0.2534 l 0.7762,1.26268 0.23186,-1.32292 c 0.12751,-0.7276 0.3323,-1.42455 0.45507,-1.54877 0.12277,-0.12422 0.64691,0.40327 1.16474,1.17222 0.95386,1.41639 1.01291,1.41258 1.34137,-0.0865 0.19241,-0.87808 0.82376,-0.95794 1.04593,-0.13229 0.0881,0.32742 0.37736,0.87374 0.64279,1.21404 l 0.48261,0.61873 0.3309,-1.47862 c 0.182,-0.81325 0.42869,-1.47863 0.54821,-1.47863 0.28864,0 0.5385,0.68523 0.5385,1.47685 0,0.87519 0.4309,0.80356 0.92604,-0.15393 0.53391,-1.03247 1.04935,-1.00767 1.37427,0.0661 l 0.26019,0.8599 0.48855,-0.99219 c 0.26869,-0.5457 0.58555,-0.99219 0.70412,-0.99219 0.11857,0 0.30487,-0.007 0.41401,-0.0159 0.10915,-0.009 0.32522,0.5568 0.48017,1.25677 l 0.28172,1.27267 0.71378,-1.12448 c 0.39258,-0.61847 0.82291,-1.12448 0.95629,-1.12448 0.13338,0 0.37845,0.65484 0.54461,1.45521 0.16615,0.80036 0.3376,1.4552 0.38098,1.4552 0.0434,0 0.52679,-0.71437 1.07423,-1.5875 0.97785,-1.55961 1.28015,-1.8202 1.56913,-1.35263 0.13734,0.22223 -1.01182,3.27499 -1.65681,4.40132 -0.16478,0.28776 -0.75897,1.53522 -1.32042,2.77215 -3.83598,8.45101 -4.45808,9.67733 -5.36137,10.56863 -0.92623,0.91394 -0.96572,1.03499 -1.38576,4.24803 -0.80929,6.19063 -0.84519,6.79173 -0.38283,6.40867 0.24856,-0.20593 0.48252,-1.03205 0.5982,-2.11223 0.2302,-2.14952 1.04887,-4.90579 1.5907,-5.35546 0.21781,-0.18078 0.39603,-0.61559 0.39603,-0.96624 0,-1.99419 2.226,-4.95626 5.11869,-6.81127 2.50728,-1.60786 4.68751,-2.36036 6.91985,-2.38835 l 1.5875,-0.0199 -0.0539,1.16293 c -0.0823,1.77457 -1.20658,3.7423 -3.46439,6.0632 -2.55446,2.62585 -4.30773,3.53979 -7.18278,3.74423 l -1.99892,0.14214 -0.57333,1.19063 c -0.31533,0.65484 -0.65004,1.69664 -0.74381,2.3151 -0.0938,0.61847 -0.29578,1.12448 -0.4489,1.12448 -0.44977,0 0.0181,-2.3526 0.7763,-3.90339 0.37372,-0.76441 0.59849,-1.47085 0.49948,-1.56986 -0.59081,-0.59081 -1.83294,3.17759 -1.71608,5.20628 0.0831,1.44222 0.0592,1.49926 -1.04388,2.49585 l -1.12891,1.0199 -1.8196,-1.75668 c -1.00079,-0.96618 -1.97681,-1.75668 -2.16894,-1.75668 -0.19214,0 -1.10702,0.74414 -2.03308,1.65364 l -1.68374,1.65365 -0.43963,-0.66146 c -0.24179,-0.3638 -0.86877,-1.12808 -1.39329,-1.6984 l -0.95367,-1.03695 -1.78201,1.76455 c -0.9801,0.9705 -1.80191,1.76455 -1.82623,1.76455 -0.0243,0 -0.16267,-0.16579 -0.30745,-0.36842 z m 15.25661,-8.81869 c 0.0894,-1.24811 0.0806,-1.26393 -0.70317,-1.26393 -0.57246,0 -0.76659,0.11065 -0.69634,0.39687 0.0536,0.21829 0.12815,1.82563 0.16572,3.57188 0.0376,1.74625 0.0955,3.59172 0.12867,4.10104 0.0609,0.93424 0.93715,-4.46222 1.10512,-6.80586 z m -2.92359,4.707 c -0.31064,-1.44843 -1.56063,-4.25114 -1.89598,-4.25114 -0.4483,0 -0.55233,0.57799 -0.18158,1.00886 0.62772,0.72953 1.25406,2.19419 1.4288,3.34122 0.09,0.59063 0.2909,1.312 0.44648,1.60305 0.25804,0.48269 0.29152,0.48795 0.3812,0.0599 0.0541,-0.25807 -0.0264,-1.05094 -0.17892,-1.76193 z m -2.47768,-4.25114 c 0.0373,0 0.0653,-0.50601 0.0621,-1.12448 -0.007,-1.28024 -0.82948,-3.30445 -1.43827,-3.53807 -0.2244,-0.0861 -0.408,-0.33554 -0.408,-0.55429 0,-0.63831 -2.0996,-2.5297 -4.18048,-3.76593 -1.05734,-0.62815 -1.98039,-1.08414 -2.05122,-1.01331 -0.24441,0.24441 2.92698,4.65943 3.90536,5.43681 0.95624,0.75979 0.96881,0.79247 0.49881,1.29696 -1.41552,1.51938 -1.40844,2.6203 0.008,1.17576 1.38114,-1.40897 1.66666,-1.2148 0.3962,0.26944 -0.52661,0.61524 -0.95748,1.2018 -0.95748,1.30347 0,0.51795 2.25033,1.01354 3.30554,0.72798 0.4356,-0.11789 0.82256,-0.21434 0.8599,-0.21434 z m 11.88896,-0.0912 c 0.17636,-0.17637 -1.3365,-2.61681 -1.92494,-3.10517 -0.57041,-0.47339 -0.93394,0.008 -1.09666,1.45143 -0.18632,1.65298 0.21611,2.10594 1.72038,1.93639 0.63138,-0.0712 1.21692,-0.19836 1.30122,-0.28265 z m 1.53478,-0.16431 c 0.23088,-0.37357 -0.79714,-2.25232 -1.90102,-3.47419 -0.81744,-0.9048 -1.0115,-1.00619 -1.32532,-0.69236 -0.31383,0.31382 -0.25683,0.4863 0.38922,1.1779 0.41628,0.44564 1.0474,1.35788 1.40248,2.02721 0.62291,1.1742 1.10392,1.49656 1.43464,0.96144 z m 2.29568,-1.2209 c 1.64563,-1.35607 3.474,-3.31884 4.1347,-4.43863 l 0.56884,-0.96413 h -0.55418 c -0.66778,0 -3.10758,1.35863 -3.78601,2.10829 -0.26756,0.29565 -0.62326,0.53755 -0.79044,0.53755 -0.16718,0 -0.68206,0.39009 -1.14417,0.86687 l -0.84021,0.86688 0.44655,0.9852 c 0.24561,0.54187 0.52955,0.98521 0.63098,0.98521 0.10144,0 0.70171,-0.42625 1.33394,-0.94724 z m -20.63704,-0.8839 0.70304,-1.01732 -1.09991,-1.04859 c -0.60495,-0.57673 -1.51663,-1.29347 -2.02595,-1.59277 -0.95612,-0.56185 -2.92915,-1.19422 -3.12256,-1.00081 -0.43426,0.43426 3.87413,5.72315 4.63258,5.68684 0.11537,-0.006 0.52613,-0.46783 0.9128,-1.02735 z m 10.8119,-0.42068 c 0.79025,-0.40866 2.11111,-2.10071 2.11111,-2.70439 0,-0.25368 -0.83846,-0.33545 -3.43958,-0.33545 -1.89177,0 -3.43959,0.0554 -3.43959,0.1231 0,0.0677 0.35937,0.68976 0.79859,1.38234 1.20505,1.90017 2.3822,2.3552 3.96947,1.5344 z m 10.12569,-3.28483 c 0.96595,-1.02396 1.94771,-2.23193 2.18168,-2.68437 0.42147,-0.81505 0.41973,-0.82104 -0.18908,-0.6498 -0.33796,0.0951 -0.8526,0.28039 -1.14364,0.41184 -0.29104,0.13145 -1.18401,0.52273 -1.98437,0.86951 -1.31184,0.56838 -3.7161,2.30493 -3.91515,2.82784 -0.0433,0.11369 0.36733,0.62752 0.91248,1.14183 l 0.99117,0.93512 0.69531,-0.49511 c 0.38242,-0.27231 1.48564,-1.33289 2.4516,-2.35686 z m -23.53979,-1.80553 c -1.65136,-2.33241 -1.65476,-2.3355 -2.80382,-2.55107 -0.94725,-0.17771 -0.98541,-0.15615 -0.98194,0.5547 0.007,1.49549 0.24214,1.8253 1.5368,2.15832 0.68074,0.1751 1.71396,0.60091 2.29605,0.94624 0.58208,0.34532 1.09411,0.63909 1.13784,0.6528 0.0437,0.0137 -0.48949,-0.77873 -1.18493,-1.76099 z m 16.09342,1.32291 c 0.26513,-0.26461 -0.37998,-0.33682 -3.22727,-0.36119 -4.58266,-0.0392 -4.96496,-2.6e-4 -4.66712,0.47588 0.23084,0.36903 7.51576,0.2632 7.89439,-0.11469 z m 12.16295,-1.34612 c 0.0899,-0.0964 0.23575,-0.56218 0.32411,-1.03513 0.15559,-0.83272 0.13231,-0.85989 -0.73687,-0.85989 -0.80467,0 -1.0093,0.16737 -1.97776,1.61765 -0.59412,0.88971 -1.08022,1.65527 -1.08022,1.70125 0,0.12524 3.28151,-1.22101 3.47074,-1.42388 z m -13.90203,-0.90283 c -0.38047,-2.92457 -1.84039,-10.44165 -2.0731,-10.67436 -0.0638,-0.0638 -0.25198,0.6301 -0.41821,1.54195 -0.95541,5.24078 -2.08273,10.09929 -2.36519,10.19344 -0.17745,0.0592 -0.32263,-0.0429 -0.32263,-0.22679 0,-0.53859 -4.52732,-7.51452 -5.82157,-8.97018 -1.04934,-1.18021 -1.09441,-1.29259 1.83026,4.56406 l 2.47738,4.96094 h 3.43688 3.43689 z m 3.21149,-0.92605 c 1.20828,-2.61422 2.18248,-4.72887 3.28836,-7.13794 0.41604,-0.90631 0.75644,-1.72604 0.75644,-1.82162 0,-0.5574 -3.84742,5.574 -5.7881,9.22415 l -1.09021,2.05052 h 0.88174 c 0.85055,0 0.91958,-0.0819 1.95177,-2.31511 z m -8.89014,-1.89599 c -0.3551,-1.15854 -1.35256,-5.29927 -1.35256,-5.61483 0,-0.12553 0.11906,-0.22824 0.26458,-0.22824 0.14552,0 0.26458,0.2816 0.26458,0.62578 0,0.34418 0.21922,0.90972 0.48715,1.25677 0.54388,0.70448 1.10035,2.68852 1.10035,3.92316 0,1.27035 0.39633,0.94724 0.70873,-0.57781 0.29529,-1.44149 0.21057,-2.16172 -0.22277,-1.8939 -0.1388,0.0858 -0.17863,0.53158 -0.0885,0.99067 0.12251,0.62415 0.0941,0.73459 -0.11275,0.43783 -0.36628,-0.52558 -0.36147,-1.78239 0.007,-1.90531 0.17483,-0.0583 -0.2601,-1.25628 -1.08404,-2.98594 -1.68072,-3.52826 -1.90403,-3.38093 -1.95266,1.28826 -0.0281,2.6923 0.0424,3.31212 0.43981,3.86757 l 0.47322,0.66146 -0.14441,-1.19062 -0.1444,-1.19063 0.38454,1.05834 c 0.2115,0.58208 0.53052,1.59411 0.70893,2.24895 0.21902,0.80389 0.36162,1.02597 0.43899,0.6837 0.063,-0.27882 -0.0162,-0.93366 -0.17606,-1.45521 z m 6.97926,1.36683 c 0.1025,-0.25466 0.22652,-0.76068 0.27562,-1.12448 0.0491,-0.3638 0.16004,-1.19724 0.24654,-1.85209 0.0865,-0.65484 0.2801,-1.36921 0.43021,-1.5875 0.27509,-0.40003 0.24682,-0.0704 -0.18436,2.14977 -0.11068,0.5699 -0.0696,0.7706 0.13229,0.64585 0.16108,-0.0996 0.29288,-0.41211 0.29288,-0.69456 0,-0.28246 0.12451,-0.51356 0.27669,-0.51356 0.18479,0 0.22438,-0.90081 0.11918,-2.71197 -0.19732,-3.39726 -0.37385,-4.5654 -0.64494,-4.2678 -0.11669,0.12809 -0.7037,1.50385 -1.30446,3.05723 -1.03316,2.6714 -1.41899,4.68484 -0.82772,4.31942 0.14552,-0.0899 0.26458,-0.50666 0.26458,-0.92604 0,-0.41939 0.12312,-0.83861 0.2736,-0.93162 0.17438,-0.10777 0.22448,0.10179 0.13816,0.57782 -0.31286,1.72534 -0.46198,3.76265 -0.29516,4.03258 0.26286,0.42531 0.59471,0.35414 0.80689,-0.17305 z m -0.54209,-0.59532 c 0.0702,-0.50932 0.26527,-1.9976 0.43341,-3.30729 0.16815,-1.30968 0.41719,-2.55984 0.55342,-2.77812 0.17132,-0.27452 0.20772,-0.11137 0.11805,0.52916 -0.0713,0.50933 -0.27191,1.99761 -0.44579,3.3073 -0.17389,1.30968 -0.42205,2.55984 -0.55147,2.77812 -0.1557,0.26261 -0.19211,0.0836 -0.10762,-0.52917 z m -6.29159,-2.44739 c -0.0734,-0.1819 -0.13345,-0.0331 -0.13345,0.33073 0,0.3638 0.06,0.51263 0.13345,0.33073 0.0734,-0.1819 0.0734,-0.47956 0,-0.66146 z m -0.25907,-1.0418 c -0.0845,-0.21107 -0.14716,-0.14837 -0.15985,0.15985 -0.0115,0.27892 0.051,0.43519 0.13896,0.34727 0.0879,-0.0879 0.0973,-0.31612 0.0209,-0.50712 z m 9.51949,-1.07487 c -0.0734,-0.1819 -0.13345,-0.0331 -0.13345,0.33073 0,0.3638 0.0601,0.51263 0.13345,0.33073 0.0734,-0.1819 0.0734,-0.47956 0,-0.66146 z m -12.24511,0.1847 c 0.0904,-0.23546 0.046,-0.34166 -0.10398,-0.24897 -0.14386,0.0889 -0.26156,0.27368 -0.26156,0.41062 0,0.38058 0.18965,0.29672 0.36554,-0.16165 z m 8.70049,-1.67542 c 0.54001,-1.52044 0.54666,-1.62065 0.17205,-2.5931 l -0.28692,-0.74482 -0.52774,1.02063 c -0.41684,0.80614 -0.49033,1.29268 -0.34971,2.31511 0.0979,0.71195 0.25798,1.29446 0.35569,1.29446 0.0977,0 0.38419,-0.58152 0.63663,-1.29228 z m 5.08939,-1.61663 c -0.10019,-0.72843 -0.27942,-1.32442 -0.39831,-1.32442 -0.28058,0 -1.32169,2.14995 -1.32169,2.72937 0,0.2451 0.17859,0.44563 0.39688,0.44563 0.21828,0 0.39687,-0.12609 0.39687,-0.2802 0,-0.15411 0.11939,-0.20641 0.2653,-0.11623 0.17734,0.1096 0.17734,0.32831 0,0.65968 -0.47952,0.89598 -0.26811,0.94569 0.29336,0.069 0.45337,-0.70792 0.51781,-1.09057 0.36759,-2.18281 z m -13.62625,1.77218 c 0,-0.33417 -0.41992,-1.2569 -0.93315,-2.05053 l -0.93315,-1.44294 0.17733,1.05833 c 0.0975,0.58208 0.27932,1.09802 0.40398,1.14653 0.12466,0.0485 0.22666,0.27664 0.22666,0.50697 0,0.3348 0.70019,1.30406 0.99218,1.37348 0.0364,0.009 0.0661,-0.25768 0.0661,-0.59184 z m 4.09149,-0.25233 -0.18389,-0.85989 0.52046,0.5905 c 0.28625,0.32477 0.58753,0.52342 0.66951,0.44144 0.16791,-0.16791 -0.48046,-1.83066 -1.00693,-2.5823 -0.31765,-0.4535 -0.36745,-0.41284 -0.62156,0.50748 -0.21933,0.79434 -0.1901,1.18203 0.14186,1.88158 0.5298,1.11648 0.71654,1.12471 0.48055,0.0212 z m -5.41441,-0.0661 c 0,-0.21829 -0.0468,-0.39688 -0.10398,-0.39688 -0.0572,0 -0.17252,0.17859 -0.25628,0.39688 -0.0838,0.21828 -0.037,0.39687 0.10398,0.39687 0.14096,0 0.25628,-0.17859 0.25628,-0.39687 z"
       id="path1388" />
  </g>
</svg>
