<?xml version="1.0" encoding="UTF-8" standalone="no"?>
<!-- Created with Inkscape (http://www.inkscape.org/) -->

<svg
   width="67.198723mm"
   height="67.618866mm"
   viewBox="0 0 67.198724 67.618865"
   version="1.1"
   id="svg5"
   inkscape:version="1.1 (c4e8f9ed74, 2021-05-24)"
   sodipodi:docname="ornates3.svg"
   xmlns:inkscape="http://www.inkscape.org/namespaces/inkscape"
   xmlns:sodipodi="http://sodipodi.sourceforge.net/DTD/sodipodi-0.dtd"
   xmlns="http://www.w3.org/2000/svg"
   xmlns:svg="http://www.w3.org/2000/svg">
  <sodipodi:namedview
     id="namedview7"
     pagecolor="#ffffff"
     bordercolor="#666666"
     borderopacity="1.0"
     inkscape:pageshadow="2"
     inkscape:pageopacity="0.0"
     inkscape:pagecheckerboard="0"
     inkscape:document-units="mm"
     showgrid="false"
     inkscape:zoom="0.94615212"
     inkscape:cx="-338.74045"
     inkscape:cy="126.30104"
     inkscape:window-width="2506"
     inkscape:window-height="1403"
     inkscape:window-x="1974"
     inkscape:window-y="0"
     inkscape:window-maximized="1"
     inkscape:current-layer="layer1" />
  <defs
     id="defs2" />
  <g
     inkscape:label="Layer 1"
     inkscape:groupmode="layer"
     id="layer1"
     transform="translate(-253.33754,-120.56188)">
    <path
       style="fill:#000000;stroke-width:0.494901"
       d="m 312.8849,187.93629 c -1.08878,-0.0999 -2.31368,-0.31597 -2.72197,-0.48023 -0.40829,-0.16423 -1.44365,-0.25271 -2.3008,-0.19654 -0.85714,0.0561 -1.70543,-0.13561 -1.88509,-0.42636 -0.43375,-0.70183 -2.59222,-0.67751 -3.03207,0.034 -0.44888,0.72634 -21.16013,0.31784 -22.09179,-0.43571 -0.3475,-0.28106 -1.77988,-0.6653 -3.18307,-0.85386 -2.08218,-0.27981 -2.6342,-0.19468 -3.00226,0.46298 -0.36623,0.65443 -1.14224,0.7782 -4.12991,0.65862 l -3.67892,-0.1472 -0.15357,-1.85589 c -0.12027,-1.4539 -0.36151,-1.85589 -1.11353,-1.85589 -0.52796,0 -0.95992,0.30622 -0.95992,0.68049 0,0.37427 -0.66812,0.81411 -1.4847,0.97744 -1.75916,0.35183 -1.92498,1.05055 -0.37118,1.56404 l 1.11352,0.368 -1.17686,0.22734 c -0.64726,0.12495 -1.48165,-0.0774 -1.8542,-0.45 -0.57319,-0.5732 -0.55915,-0.8461 0.0915,-1.77488 0.4228,-0.60363 1.13471,-1.09753 1.58201,-1.09753 0.62347,0 0.6774,-0.1358 0.23108,-0.58218 -0.44632,-0.44631 -0.81591,-0.37067 -1.5837,0.32416 -0.89673,0.81153 -1.00148,0.82066 -1.00148,0.0873 0,-1.41499 -1.45038,-0.89106 -2.18528,0.78937 l -0.7034,1.60844 -0.0404,-1.40222 c -0.0486,-1.69216 -1.11949,-1.55312 -1.53313,0.19906 -0.33806,1.43203 -1.84098,1.87181 -2.30092,0.67327 -0.20749,-0.54076 0.007,-1.09478 0.591,-1.52129 0.50603,-0.37001 0.64233,-0.67078 0.304,-0.67078 -1.04791,0 -0.23621,-11.37894 1.1329,-15.88171 1.11788,-3.67646 1.12207,-3.76921 0.19663,-4.34716 -0.5201,-0.32479 -1.13594,-0.47293 -1.36853,-0.32917 -0.74328,0.45936 -1.01185,-1.16517 -0.69454,-4.20104 0.16966,-1.62297 0.61087,-3.20186 0.98052,-3.50864 0.84,-0.69715 0.88601,-3.74712 0.0606,-4.02223 -0.86722,-0.28907 -0.76885,-13.41149 0.10849,-14.46859 0.42765,-0.51528 0.44925,-0.75205 0.0686,-0.75205 -0.73184,0 -0.71777,-3.1041 0.0168,-3.83926 0.43396,-0.43394 0.42909,-0.74618 -0.02,-1.2873 -0.38881,-0.46848 -0.54344,-2.22183 -0.44918,-5.09371 l 0.14365,-4.37934 3.8824,-0.14533 c 2.13532,-0.0799 4.13967,0.0567 4.45412,0.30361 1.0194,0.80061 4.67444,1.14333 4.90266,0.4597 0.3264,-0.97777 6.88264,-0.57716 7.66465,0.46831 0.54374,0.72692 0.76163,0.73978 1.9314,0.11392 2.00656,-1.07341 32.16818,-1.03944 32.85943,0.037 0.35634,0.55492 0.57394,0.59241 0.86179,0.14852 0.2507,-0.38665 1.88252,-0.59388 4.67607,-0.59388 4.91476,0 4.70927,-0.20948 4.8067,4.89952 0.0565,2.95936 -0.0552,3.32579 -1.39449,4.57785 -0.80072,0.74853 -1.69856,1.36097 -1.9952,1.36097 -0.29664,0 -0.53934,0.18555 -0.53934,0.41243 0,0.95154 0.70451,0.97924 1.8566,0.0729 1.60547,-1.26287 1.929,-0.98546 1.69632,1.45442 -0.11616,1.21762 -0.39356,1.88931 -0.70172,1.69886 -0.33766,-0.20869 -0.38409,0.25156 -0.13767,1.36374 0.39496,1.78189 0.61216,13.52793 0.34221,18.50539 -0.0887,1.63317 -0.15095,6.42135 -0.13861,10.64039 0.0195,6.69285 -0.0862,7.75256 -0.82876,8.31078 -1.13052,0.84984 -1.13565,3.01729 -0.009,3.62051 0.74601,0.39926 0.88957,1.13619 0.88957,4.56635 0,2.52146 -0.22777,4.31805 -0.59388,4.68416 -0.57417,0.57417 -1.91705,0.62842 -6.08729,0.24592 z m 5.09861,-4.2689 c 0.1141,-2.1992 -0.0879,-3.28734 -0.8501,-4.57903 -0.54982,-0.93188 -0.87145,-2.02848 -0.71472,-2.4369 0.19491,-0.50792 -0.24021,-0.96501 -1.37696,-1.44651 -1.3552,-0.57404 -1.50209,-0.76625 -0.79586,-1.04136 1.38714,-0.54037 1.01231,-1.13775 -1.11353,-1.77467 -1.08878,-0.3262 -1.9796,-0.78056 -1.9796,-1.00968 0,-0.57602 -2.34145,-0.51671 -4.62426,0.11709 -1.73993,0.48313 -3.40523,0.12963 -1.90543,-0.40455 0.35552,-0.12663 1.08565,-0.70166 1.6225,-1.2779 0.7993,-0.85794 0.91742,-1.45392 0.65217,-3.29011 -0.17826,-1.23329 -0.5593,-2.53695 -0.84694,-2.89702 -0.72018,-0.90154 -7.08254,-0.41129 -8.23847,0.63483 -0.46321,0.41919 -1.09523,0.76218 -1.40446,0.76218 -0.71694,0 -1.58687,1.61 -1.58687,2.93689 0,0.56229 -0.2227,1.02234 -0.4949,1.02234 -0.27219,0 -0.49491,-0.44542 -0.49491,-0.98981 0,-0.80475 -0.32994,-0.98981 -1.76468,-0.98981 -2.01948,0 -3.67923,0.7398 -3.67923,1.63992 0,0.39768 1.50309,0.82025 4.25025,1.19485 l 4.25027,0.57955 1.81298,-1.83087 c 2.27089,-2.29333 5.18516,-4.56111 5.48106,-4.26522 0.12326,0.12326 -0.70473,1.11667 -1.84003,2.20756 -1.13528,1.09087 -2.41559,2.66308 -2.84517,3.49377 -0.75334,1.45679 -0.74156,1.52065 0.33255,1.80154 0.61246,0.16012 2.74885,1.14746 4.74751,2.19398 l 3.63392,1.90278 2.30887,-1.2291 c 1.26988,-0.67601 2.42152,-1.11646 2.55921,-0.97875 0.13767,0.13766 -0.4515,0.95221 -1.30933,1.81002 l -1.55967,1.55969 3.44094,3.62242 c 1.89251,1.99232 3.44094,3.86317 3.44094,4.1574 0,0.50708 -2.51415,-1.29756 -4.73274,-3.3971 -0.56154,-0.53141 -1.4987,-1.22186 -2.08256,-1.53433 -0.89035,-0.47651 -1.14474,-0.41272 -1.57725,0.39542 -0.28363,0.52995 -0.51568,1.80221 -0.51568,2.82724 0,1.36432 -0.14702,1.71665 -0.54873,1.31494 -0.3018,-0.30182 -0.5298,-1.8939 -0.50666,-3.53797 0.0387,-2.74654 -0.073,-3.07109 -1.37403,-3.99758 -1.83121,-1.30394 -5.79857,-3.00153 -7.01475,-3.00153 -0.83516,0 -0.94735,0.37041 -0.93697,3.09314 0.0112,2.88277 0.37648,5.16266 1.20984,7.54725 0.30465,0.87174 0.22436,0.85225 -0.67299,-0.1633 -1.40292,-1.58775 -2.02733,-4.14885 -2.03059,-8.32877 l -0.002,-3.54309 -3.34059,-0.58691 c -4.37404,-0.76847 -7.34708,-0.53436 -7.16731,0.56442 0.0729,0.44539 -0.20551,0.93948 -0.61863,1.098 -0.91276,0.35027 -1.00601,3.1776 -0.16572,5.02206 0.49414,1.08449 0.85996,1.26189 2.34449,1.13681 1.49965,-0.12644 1.93194,-0.46263 2.93204,-2.28079 0.64517,-1.17293 1.24384,-2.06179 1.33039,-1.97526 0.0866,0.0866 -0.098,1.11397 -0.4101,2.2832 -0.36858,1.38091 -0.39675,2.24654 -0.0804,2.47018 0.26785,0.18935 0.71028,1.00696 0.98317,1.81689 0.70975,2.10666 5.61567,4.63119 7.41056,3.81339 0.67987,-0.30977 1.23612,-0.82883 1.23612,-1.15349 0,-0.32465 0.34858,-0.97545 0.77465,-1.44623 0.6527,-0.72125 0.68441,-1.19478 0.20141,-3.0084 -0.31529,-1.18381 -0.88706,-2.50453 -1.27063,-2.93492 -0.70476,-0.79077 -0.42924,-1.64442 0.37109,-1.14979 0.6716,0.41506 1.90308,3.64715 1.90308,4.99471 0,1.56435 0.84318,3.12388 1.68898,3.12388 0.36538,0 0.94159,0.33405 1.28043,0.74236 0.97384,1.1734 2.96941,0.95853 2.96941,-0.31972 0,-1.00798 0.0642,-0.99275 1.2613,0.29888 0.7915,0.85403 1.6006,1.27222 2.17228,1.12273 0.50103,-0.13094 1.21401,-0.0404 1.58438,0.20145 0.37038,0.24184 1.45289,0.38156 2.40557,0.31052 l 1.73215,-0.12925 z m -47.79488,2.12288 c -1.47047,-0.59061 -1.86509,-1.72146 -1.14908,-3.29292 0.8022,-1.76064 0.27967,-2.05451 -0.57194,-0.32165 -1.14,2.31968 -0.31311,4.14212 1.85571,4.08999 0.89921,-0.0217 0.88688,-0.0651 -0.13467,-0.47542 z m 20.07887,-0.2199 c -5.08088,-0.73845 -5.83946,-0.98573 -5.83946,-1.90353 0,-0.48036 -0.41246,-0.61627 -1.36097,-0.44841 -2.16164,0.38253 -0.69609,-0.63979 1.92775,-1.34476 3.23045,-0.86792 5.80929,0.11878 3.57633,1.36848 -0.60041,0.33601 -0.6514,0.5465 -0.19996,0.8255 0.34389,0.21255 0.95996,0.015 1.42453,-0.45834 0.76255,-0.77583 0.73477,-0.90153 -0.40595,-1.83621 -0.948,-0.77678 -1.64656,-0.93591 -3.09314,-0.70458 -1.85862,0.2972 -1.86859,0.28968 -1.86859,-1.41114 0,-1.20598 -0.32418,-1.93701 -1.09993,-2.48037 -1.56205,-1.09409 -2.05405,-0.95377 -1.1552,0.32952 1.40882,2.01137 0.70638,4.34399 -1.30817,4.34399 -1.02738,0 -1.14624,0.53644 -0.30519,1.37749 0.87914,0.87911 0.28047,1.13438 -1.47782,0.63013 -1.73352,-0.49718 -2.72091,0.1959 -1.03941,0.72959 1.58932,0.50443 11.2447,1.60965 14.05669,1.60901 2.00555,-4.4e-4 1.65844,-0.11915 -1.83151,-0.62637 z m -16.33156,-0.46076 c 1.6683,-0.87401 4.83963,-4.12751 4.42623,-4.54089 -0.16872,-0.16872 -1.02217,0.50786 -1.89646,1.50364 -0.87429,0.99576 -2.39128,2.23417 -3.3711,2.75206 -0.9798,0.51786 -1.49204,0.95143 -1.13827,0.96345 0.35377,0.0112 1.24459,-0.2932 1.9796,-0.67826 z m 28.55601,0.20523 c 0.16816,-0.27219 0.0832,-0.49491 -0.18903,-0.49491 -0.27219,0 -0.63254,0.22272 -0.80078,0.49491 -0.16815,0.2722 -0.0831,0.4949 0.18906,0.4949 0.27219,0 0.63252,-0.2227 0.80075,-0.4949 z m -30.93137,-0.98981 c 0,-0.27219 -0.4454,-0.49489 -0.98979,-0.49489 -0.54441,0 -0.98981,0.2227 -0.98981,0.49489 0,0.2722 0.4454,0.4949 0.98981,0.4949 0.54439,0 0.98979,-0.2227 0.98979,-0.4949 z m 20.02126,-1.11352 c -0.18499,-0.61244 -0.56687,-1.33625 -0.84855,-1.60844 -0.34931,-0.33759 -0.41029,-0.20673 -0.19182,0.41166 0.1762,0.4986 0.32029,1.2224 0.32029,1.60844 0,0.38601 0.23772,0.70186 0.52826,0.70186 0.31756,0 0.39406,-0.44411 0.19182,-1.11352 z m -4.39854,-0.75029 c -0.44857,-0.44857 -1.82856,0.37151 -1.50532,0.89454 0.22175,0.35878 0.54538,0.33779 1.03313,-0.067 0.39065,-0.3242 0.60312,-0.69659 0.47219,-0.82753 z m -12.32949,0.13168 c 0.084,-0.2722 -1.01244,-1.00551 -2.43639,-1.62958 -1.42393,-0.62407 -3.01479,-1.45448 -3.53522,-1.84533 -0.91652,-0.68835 -0.90472,-0.7433 0.37588,-1.75064 0.72717,-0.572 1.21391,-1.21509 1.08163,-1.42911 -0.13224,-0.21403 0.22248,-0.80811 0.78832,-1.32018 0.56584,-0.51209 1.36105,-1.57359 1.76715,-2.35888 0.61315,-1.18569 0.62553,-1.49934 0.0731,-1.84947 -1.36324,-0.86399 -3.66191,-0.0516 -2.66755,0.94276 0.17807,0.17807 0.52239,0.004 0.76499,-0.38977 0.70301,-1.13747 1.20707,-0.12813 0.60067,1.20277 -0.86779,1.90461 -6.58487,6.25897 -7.84399,5.97432 -0.70574,-0.15955 -1.15818,0.0473 -1.36129,0.62237 -0.16741,0.47372 -0.43403,1.13971 -0.59263,1.47996 -0.47352,1.01577 2.20903,0.73617 4.08995,-0.42629 1.54482,-0.95476 1.76492,-0.97775 2.551,-0.26636 0.47316,0.42821 1.91002,1.24291 3.19301,1.81043 1.28297,0.56751 2.33269,1.16126 2.33269,1.31941 0,0.15806 -0.94651,0.1575 -2.10333,-10e-4 -1.46486,-0.20117 -1.80288,-0.15226 -1.11353,0.16105 1.2479,0.56713 3.83345,0.40947 4.03558,-0.2461 z m -16.47205,-0.63893 c 0.133,-0.21531 -0.57757,-0.31521 -1.57922,-0.22199 l -1.82117,0.16947 1.46651,-1.13898 c 0.80657,-0.62645 2.12608,-1.36168 2.93224,-1.63388 0.80615,-0.27219 1.5567,-0.7733 1.66787,-1.11354 0.28897,-0.88434 -0.87906,-0.76395 -1.9447,0.20044 -0.49778,0.45047 -0.90506,0.57497 -0.90506,0.27665 0,-0.29831 0.22272,-0.68004 0.49491,-0.84826 0.55655,-0.34398 0.67209,-2.37981 0.16386,-2.88802 -0.567,-0.567 -2.14349,1.24949 -2.14349,2.46982 0,1.27968 -0.47747,1.47492 -1.38572,0.56667 -0.4619,-0.4619 -0.59389,-0.35194 -0.59389,0.49489 0,0.63788 0.30744,1.0888 0.74235,1.0888 0.40831,0 0.74236,0.2297 0.74236,0.51042 0,0.28074 -0.33405,0.63862 -0.74236,0.79532 -0.40829,0.15674 -0.74235,0.59509 -0.74235,0.97426 0,0.74528 3.20938,1.00739 3.64784,0.29793 z m 8.7247,-0.40384 c 0,-0.10699 -0.61243,-0.19109 -1.36097,-0.18686 -0.99048,0.006 -1.17112,0.12776 -0.6635,0.44913 0.63017,0.39892 2.02447,0.21834 2.02447,-0.26221 z m -5.81509,-0.0273 c -0.34024,-0.13729 -0.89701,-0.13729 -1.23725,0 -0.34025,0.1373 -0.0619,0.24964 0.61863,0.24964 0.68048,0 0.95887,-0.11242 0.61862,-0.24964 z m 2.21675,0.0288 c -0.16442,-0.16442 -0.5913,-0.182 -0.94857,-0.0391 -0.39478,0.15805 -0.27752,0.27526 0.29902,0.299 0.5217,0.0215 0.814,-0.0956 0.64955,-0.25993 z m 12.72049,-0.63655 c 0.29501,-0.47733 -3.11069,-1.28166 -3.55319,-0.83916 -0.28279,0.28278 1.68335,1.19478 2.69145,1.24843 0.32418,0.0168 0.71197,-0.16685 0.86174,-0.40927 z m -8.13234,-0.54927 c 0,-0.27219 -0.20957,-0.49489 -0.46569,-0.49489 -0.25613,0 -0.60333,0.2227 -0.77156,0.49489 -0.16816,0.27221 0.0413,0.49492 0.46569,0.49492 0.42436,0 0.77156,-0.22271 0.77156,-0.49492 z m -7.2046,-0.44873 c 0.15244,-0.24681 -0.16835,-0.3322 -0.71315,-0.18974 -1.15559,0.30219 -1.30166,0.63847 -0.27733,0.63847 0.39222,0 0.83794,-0.20192 0.99048,-0.44873 z m 15.85505,-3.15642 2.48484,-0.90181 -2.00875,0.2141 c -2.06338,0.21991 -6.93024,2.85989 -6.34718,3.44295 0.17919,0.17919 1.01438,-0.16461 1.85599,-0.76384 0.84163,-0.59929 2.64842,-1.49542 4.0151,-1.9914 z m 5.07847,2.41376 c 0.52858,-0.52859 -0.0746,-0.67884 -3.44624,-0.85843 -1.99299,-0.10624 -3.34033,0.0213 -3.36007,0.31767 -0.0597,0.89782 5.97018,1.37689 6.80631,0.54076 z m 16.0879,-6.52145 c 0.20359,-0.20268 1.71074,0.20991 3.3492,0.91688 1.63846,0.70696 2.8676,1.10509 2.73141,0.88471 -0.13617,-0.22036 -1.49232,-0.90584 -3.01361,-1.52329 -2.55326,-1.0363 -2.74211,-1.22177 -2.45534,-2.41169 0.3056,-1.26814 0.29843,-1.27203 -0.44167,-0.24079 -0.53692,0.74816 -1.14698,0.99308 -2.13094,0.85551 -1.28286,-0.17938 -1.30126,-0.15881 -0.26508,0.29675 1.01526,0.44634 1.12059,0.85125 1.19354,4.58844 l 0.0801,4.09887 0.29114,-3.54842 c 0.16011,-1.95164 0.45773,-3.71428 0.66131,-3.91697 z m 11.58135,4.35418 c 0.0565,-0.89819 -0.067,-1.01701 -0.5983,-0.57602 -0.36821,0.30556 -0.95758,0.38231 -1.30976,0.17059 -0.49946,-0.30036 -0.49525,-0.20611 0.0193,0.42855 0.38874,0.47956 0.52108,1.24977 0.32232,1.87601 -0.32803,1.03354 -0.3123,1.03755 0.57911,0.1474 0.50396,-0.50322 0.9483,-1.42416 0.98743,-2.04655 z m -37.41708,0.26554 c 1.31191,-0.74912 1.95136,-1.46011 1.95392,-2.17257 0.002,-0.7753 0.63363,-1.35785 2.3546,-2.17441 3.20031,-1.51847 5.05842,-1.96034 10.26921,-2.44212 l 4.45411,-0.41181 -4.94901,0.10681 c -2.72196,0.0587 -5.35006,0.28731 -5.84023,0.50804 -0.77008,0.34679 -0.8467,0.2239 -0.56358,-0.9041 0.28308,-1.12791 0.20237,-1.25748 -0.59349,-0.95266 -2.96251,1.13462 -9.20345,6.6994 -7.84437,6.99449 0.92741,0.20136 0.9723,1.07724 0.0552,1.07724 -0.37496,0 -0.959,0.33405 -1.29786,0.74236 -0.85983,1.03601 -0.27206,0.92702 2.00148,-0.37118 z m 9.09869,-2.05579 c 0.89713,-3.08598 0.91752,-3.26441 0.37296,-3.26441 -0.2225,0 -0.77925,1.18878 -1.23726,2.64172 -0.96465,3.06021 -0.99144,3.2971 -0.37294,3.2971 0.25287,0 0.80965,-1.20349 1.23724,-2.67441 z m -21.89755,-0.8011 0.89935,1.11065 -0.007,-1.91071 c -0.0131,-3.21389 -0.56287,-3.34591 -2.85483,-0.68511 -1.14764,1.33233 -2.08663,2.82157 -2.08663,3.30941 0,0.63823 0.44176,0.35107 1.57517,-1.02395 l 1.57516,-1.91095 z m 4.85855,1.73111 c 0,-0.41503 -0.53341,-0.95741 -1.18535,-1.20527 -0.65194,-0.24788 -1.30458,-0.74345 -1.45029,-1.1013 -0.19664,-0.48288 -0.0815,2.16185 0.12776,2.93743 0.0187,0.0681 0.59016,0.12383 1.27064,0.12383 0.77878,0 1.23726,-0.27962 1.23726,-0.7546 z m 2.14526,-1.35738 c -0.1459,-0.23604 0.20259,-0.5515 0.77436,-0.70103 0.57179,-0.14945 1.0396,-0.54281 1.0396,-0.87399 0,-1.07699 -0.62964,-1.26636 -1.29096,-0.38825 -0.54923,0.72928 -0.60205,0.46762 -0.35116,-1.73985 0.16236,-1.42904 0.14272,-2.59824 -0.0438,-2.59824 -0.18649,0 -0.85648,1.11659 -1.48877,2.48132 -1.13907,2.45856 -1.15643,2.47104 -1.89436,1.36097 l -0.74476,-1.12033 -5.9e-4,1.33413 c -4.7e-4,1.0237 0.3293,1.44915 1.41725,1.82841 1.03158,0.35962 1.33224,0.71733 1.10363,1.31311 -0.27481,0.71617 -0.18518,0.73821 0.71533,0.17582 0.56626,-0.35363 0.91019,-0.83609 0.76431,-1.07213 z m 40.41631,1.38703 c 0,-0.12645 -0.50108,-0.47287 -1.11352,-0.76966 -1.06931,-0.51816 -1.07537,-0.50903 -0.15282,0.23006 1.00973,0.80895 1.2664,0.91832 1.2664,0.5396 z m -22.59459,-2.49192 c 0.81417,-2.38948 0.76913,-2.5001 -0.69833,-1.71473 -0.93482,0.5003 -1.34979,2.88941 -0.62733,3.61185 0.50197,0.50198 0.51415,0.48455 1.32566,-1.89712 z m -4.50887,0.55801 c 0.5749,-0.88227 0.44226,-1.30037 -0.41253,-1.30037 -1.13844,0 -4.15772,1.51011 -4.15772,2.07951 0,0.64698 4.09601,-0.0513 4.57025,-0.77914 z m 38.44856,-2.26104 c -0.0342,-1.15106 -0.0984,-1.10866 -0.70471,0.46578 -0.88265,2.29201 -0.87685,2.94139 0.015,1.76129 0.39965,-0.52837 0.70968,-1.53055 0.68897,-2.22707 z m -47.96784,0.96067 c 0,-0.27219 -0.22271,-0.49489 -0.4949,-0.49489 -0.27219,0 -0.4949,0.2227 -0.4949,0.49489 0,0.2722 0.22271,0.49492 0.4949,0.49492 0.27219,0 0.4949,-0.22272 0.4949,-0.49492 z M 257.3113,171.1097 c 2.01536,-1.96796 2.477,-4.07158 1.17845,-5.37013 -0.38407,-0.38407 -0.59024,-1.20329 -0.45818,-1.82054 0.23394,-1.09332 0.22006,-1.09747 -0.53895,-0.16161 -0.97793,1.20583 -0.97866,1.57881 -0.004,1.95285 0.64929,0.24917 0.53291,0.63962 -0.71651,2.40374 -1.51001,2.13207 -2.48258,4.82822 -1.74166,4.82822 0.22218,0 1.2485,-0.82467 2.28072,-1.83258 z m 59.28537,1.33769 c 0,-0.2722 -0.34722,-0.4949 -0.77156,-0.4949 -0.42436,0 -0.64953,-0.19747 -0.50036,-0.43884 0.14908,-0.24135 -0.0471,-0.70304 -0.43627,-1.02598 -0.38912,-0.32294 -0.58459,-0.90745 -0.43435,-1.29895 0.19006,-0.49532 0.0335,-0.61977 -0.51527,-0.40924 -0.60639,0.2327 -0.67222,0.5196 -0.28514,1.24287 0.39285,0.73403 0.33658,0.94033 -0.25651,0.94033 -0.41787,0 -0.75976,-0.3472 -0.75976,-0.77156 0,-0.42958 -0.23847,-0.62418 -0.53803,-0.43904 -0.67482,0.41706 -0.13486,0.981 2.07483,2.16712 2.02694,1.08799 2.42242,1.17422 2.42242,0.52819 z M 262.4681,167.2117 c -0.41751,-1.22534 -0.64107,-2.53553 -0.49678,-2.91154 0.32002,-0.83394 -0.63513,-2.74061 -1.37291,-2.74061 -0.31097,0 -0.20023,0.51001 0.26486,1.21984 0.89824,1.37087 1.0259,1.94805 0.33666,1.52206 -0.25443,-0.1573 -0.0318,1.22082 0.49491,3.06236 0.52664,1.84154 0.98334,3.46034 1.01493,3.5973 0.0316,0.13692 0.16086,-0.14927 0.28742,-0.63625 0.12645,-0.48689 -0.11148,-1.88782 -0.52909,-3.11316 z m 31.49621,3.42636 c -0.33506,-0.13561 -1.00318,-0.14384 -1.48471,-0.0187 -0.48152,0.12551 -0.20736,0.23639 0.60922,0.24648 0.81659,0.009 1.21055,-0.0926 0.87549,-0.22815 z m 23.84154,-0.77531 c 0.42468,-0.6063 0.74262,-1.99439 0.70847,-3.09312 l -0.0619,-1.99322 -0.34015,2.08553 c -0.18707,1.14702 -0.75048,2.53893 -1.25202,3.09312 -0.50152,0.55419 -0.66728,1.00762 -0.36832,1.00762 0.29894,0 0.89023,-0.49497 1.31395,-1.09993 z m -44.59414,-0.48146 c 1.52969,0.55314 1.97668,0.49929 3.99485,-0.4812 2.12458,-1.03222 3.309,-2.42289 1.40639,-1.6513 -4.8843,1.98078 -4.81683,1.97319 -6.77398,0.7636 -1.96649,-1.21536 -2.44264,-1.04148 -2.94072,1.07385 l -0.31561,1.34039 1.45332,-0.83409 c 1.24427,-0.7141 1.7011,-0.74449 3.17575,-0.21125 z m -11.86579,-0.76939 c -0.18443,-0.74854 -0.74908,-2.47452 -1.25458,-3.83549 -0.76442,-2.05799 -0.87287,-2.18294 -0.64429,-0.74236 0.15113,0.9527 0.40769,2.67866 0.57009,3.83549 0.18499,1.3184 0.55069,2.10333 0.97976,2.10333 0.49813,0 0.59316,-0.37056 0.34902,-1.36097 z m 4.30182,-0.4949 c 0.61246,-1.02075 1.27091,-2.6815 1.46325,-3.69058 0.3351,-1.758 0.30858,-1.80585 -0.63507,-1.14491 -0.84973,0.59519 -1.1476,0.58309 -2.17217,-0.0883 -0.65306,-0.42789 -1.29661,-0.66877 -1.43012,-0.53528 -0.34964,0.34965 0.90277,7.31487 1.31527,7.31487 0.18991,0 0.84638,-0.83513 1.45884,-1.85586 z m 47.58406,-1.09534 c 1.57847,-1.62316 2.86995,-3.18211 2.86995,-3.46431 0,-1.05013 -1.26552,-0.45717 -2.0803,0.97474 -0.46368,0.81486 -1.22563,1.48158 -1.6932,1.48158 -0.94639,0 -2.66021,1.36931 -2.66021,2.12546 0,0.26806 -0.38974,0.78323 -0.86608,1.14482 -0.79539,0.60379 -0.76709,0.65873 0.3469,0.67319 0.84243,0.0112 2.08966,-0.88577 4.08294,-2.93548 z m 2.86995,2.45632 c 0,-0.2722 -0.23585,-0.4949 -0.52411,-0.4949 -0.28826,0 -0.38646,0.2227 -0.21823,0.4949 0.16816,0.27219 0.40407,0.49489 0.52411,0.49489 0.12009,0 0.21823,-0.2227 0.21823,-0.49489 z m -47.0291,-3.7848 c 1.18758,-3.84496 1.21048,-4.13363 0.32779,-4.13363 -0.60303,0 -2.29908,5.41568 -2.29527,7.32901 0.004,1.49962 1.03506,-0.17657 1.96748,-3.19538 z m 12.88087,3.05798 c 0,-0.45021 0.28922,-0.61585 0.75995,-0.43521 0.41796,0.1603 2.12002,-0.31875 3.78234,-1.06476 1.66235,-0.74601 4.68492,-1.76192 6.71686,-2.25754 4.34144,-1.05896 4.97851,-1.45779 2.30943,-1.44576 -1.85249,0.007 -9.32962,2.13865 -12.21591,3.48039 -1.20855,0.56182 -1.4536,0.52511 -2.08759,-0.31276 -0.79952,-1.05667 -0.98038,-0.37554 -0.43784,1.64893 0.33261,1.24115 1.17276,1.51819 1.17276,0.38671 z m 4.70157,-0.26299 c 0.38711,-0.62634 -0.26804,-0.62634 -1.23724,0 -0.63977,0.41345 -0.62669,0.48079 0.0945,0.48733 0.46027,0.004 0.97451,-0.21514 1.14272,-0.48733 z m 30.43647,-0.39591 c 0,-0.52049 -1.07489,-1.5837 -1.6011,-1.5837 -0.22732,0 -0.17489,0.44542 0.11634,0.98981 0.52309,0.97739 1.48471,1.36204 1.48471,0.59389 z m -7.24399,-2.68338 c -0.64374,-1.04158 -1.66357,-0.2869 -1.65324,1.22342 l 0.0112,1.60842 0.94009,-1.22342 c 0.51705,-0.67287 0.83301,-1.39666 0.70213,-1.60842 z m -31.07125,0.87315 c 3.65304,-1.51662 2.64856,-1.62662 -1.58528,-0.17358 -2.41818,0.82988 -3.47937,0.9728 -4.5191,0.60866 -1.6654,-0.5833 -2.1247,-2.56468 -0.81631,-3.5214 1.35997,-0.99443 4.81322,-0.8054 6.27372,0.34344 1.50165,1.1812 2.22166,1.29814 1.32259,0.21483 -2.38956,-2.87925 -7.49479,-2.81246 -8.82885,0.11541 -1.56297,3.43032 2.67866,4.68542 8.15323,2.41256 z m 4.41446,-0.26836 c 0.16816,-0.2722 -0.0413,-0.49492 -0.4657,-0.49492 -0.42436,0 -0.77156,0.22272 -0.77156,0.49492 0,0.27219 0.20957,0.49489 0.4657,0.49489 0.25613,0 0.60333,-0.2227 0.77156,-0.49489 z m 34.39568,-0.24745 c 0,-0.40831 -0.32707,-0.74236 -0.72682,-0.74236 -0.44273,0 -0.61547,0.29015 -0.44196,0.74236 0.15675,0.40829 0.48375,0.74234 0.72684,0.74234 0.24307,0 0.44194,-0.33405 0.44194,-0.74234 z m -44.42666,-1.02447 c -0.16255,-0.85033 -0.40766,-1.10741 -0.73944,-0.77562 -0.54974,0.54974 -0.15413,2.04754 0.54077,2.04754 0.243,0 0.33239,-0.57237 0.19867,-1.27192 z m 21.03224,0.9729 c -0.16441,-0.16442 -0.5913,-0.182 -0.94856,-0.0391 -0.39481,0.15805 -0.27753,0.27524 0.299,0.299 0.52171,0.0215 0.81402,-0.0954 0.64956,-0.25995 z m -18.42479,-1.19248 c 0,-1.06081 -1.43802,-0.9076 -1.6466,0.17545 -0.12738,0.66139 0.0743,0.86296 0.73558,0.73558 0.50106,-0.0965 0.91102,-0.50646 0.91102,-0.91103 z m 2.11364,-0.086 c -0.30588,-0.91767 -1.37128,-1.06987 -1.37128,-0.1959 0,0.43098 0.35261,0.78359 0.78359,0.78359 0.43098,0 0.69543,-0.26445 0.58769,-0.58769 z m 10.76972,-0.12944 c 0.94392,-0.39441 1.71625,-0.93616 1.71625,-1.20391 0,-0.57579 -1.92364,-1.26935 -2.34683,-0.84615 -0.16105,0.16105 0.10587,0.29264 0.59279,0.29264 0.74685,0 0.78494,0.12102 0.24337,0.77363 -0.58225,0.70157 -0.68237,0.70157 -1.07499,0 -0.62069,-1.10912 -3.84806,-0.89232 -3.84806,0.25853 0,0.23723 0.55771,0.17732 1.23934,-0.13337 1.36989,-0.62417 2.37607,-0.12532 1.22083,0.60524 -1.07361,0.67897 -3.24768,0.57328 -3.87999,-0.18861 -0.30317,-0.36529 -0.40466,-0.81069 -0.22556,-0.98979 0.17919,-0.179 0.0658,-0.32565 -0.25175,-0.32565 -0.75171,0 -0.74187,1.12226 0.0168,1.88063 0.81553,0.81554 4.51674,0.74642 6.59809,-0.12326 z m 23.27362,-0.041 c -0.52836,-0.39965 -1.45665,-0.72663 -2.06286,-0.72663 -0.60621,0 -1.45446,-0.13524 -1.88501,-0.30041 -0.43057,-0.16516 -0.78284,-0.0913 -0.78284,0.16442 0,0.2557 1.05786,0.69427 2.35078,0.9746 3.29492,0.7144 3.46225,0.70653 2.37993,-0.11204 z m 6.36924,-0.51452 c 1.23847,-1.23847 0.99911,-3.59676 -0.43122,-4.24846 -1.00545,-0.45812 -1.48443,-0.36525 -2.8457,0.55171 -0.90021,0.60639 -1.19134,0.93337 -0.64695,0.72659 0.54439,-0.20676 1.65791,-0.39458 2.47452,-0.41736 1.25119,-0.035 1.50861,0.16516 1.63668,1.27169 0.10624,0.91776 -0.1877,1.55103 -0.97619,2.10334 -0.6205,0.43459 -0.87184,0.79019 -0.55851,0.79019 0.31332,0 0.91963,-0.34997 1.34737,-0.77772 z m -25.12831,-0.95446 c 1.2409,-0.51848 3.54943,-0.74236 7.65508,-0.74236 5.50952,0 5.87838,-0.061 5.87838,-0.97052 0,-0.53379 0.45704,-1.39633 1.01565,-1.91674 0.83566,-0.77856 0.88609,-0.99594 0.28457,-1.22676 -0.60664,-0.23279 -0.73108,-1.76766 -0.73108,-9.01667 0,-8.94392 0.0507,-9.24698 2.29631,-13.71775 0.10251,-0.20414 -0.25225,-0.37116 -0.78843,-0.37116 -1.38534,0 -1.84784,-2.99259 -0.51631,-3.3408 0.50258,-0.13149 0.91381,-0.55488 0.91381,-0.94101 0,-0.54197 -0.21939,-0.58462 -0.96226,-0.18706 -0.52922,0.28323 -1.09912,0.73648 -1.26645,1.00722 -0.4472,0.72358 -8.32891,0.6245 -9.06742,-0.11391 -0.47838,-0.47838 -0.81095,-0.47838 -1.57696,0 -1.32311,0.82629 -2.79796,0.76241 -3.14275,-0.13618 -0.36549,-0.95247 -1.50505,-0.95247 -2.29554,0 -0.64781,0.78058 -2.4745,1.03042 -2.4745,0.33847 0,-0.22214 1.44758,-1.03416 3.21686,-1.80447 1.76926,-0.77032 3.21686,-1.59074 3.21686,-1.82317 0,-0.60187 -0.25647,-0.5396 -2.1437,0.52039 -0.92339,0.51865 -2.93453,1.33879 -4.46918,1.82254 -1.53464,0.48376 -2.79025,1.0616 -2.79025,1.28408 0,0.5725 -4.15606,0.50464 -4.73806,-0.0774 -0.3126,-0.3126 -0.93981,-0.24433 -1.78529,0.1943 -0.9426,0.48904 -1.45308,0.52653 -1.84414,0.13543 -0.39107,-0.39107 -0.54075,-0.32251 -0.54075,0.24763 0,0.43362 0.36565,0.9287 0.81255,1.10021 0.7083,0.2718 0.76192,0.83422 0.41788,4.38334 -0.21707,2.23934 -0.41569,5.149 -0.44138,6.46593 -0.0372,1.90998 -0.29166,2.59278 -1.25753,3.37497 -0.93888,0.76035 -1.06194,1.0726 -0.54787,1.3903 0.89483,0.55303 1.63882,4.42234 1.70462,8.86523 0.0483,3.25754 0.16891,3.69515 1.11697,4.04826 0.58458,0.21774 1.21017,0.63421 1.39019,0.92548 0.46689,0.75546 1.25869,0.65492 1.25869,-0.15974 0,-0.98274 1.36475,-1.37683 2.08774,-0.60288 0.48909,0.52359 0.9078,0.53493 2.10702,0.0571 0.82313,-0.32803 2.44311,-0.49495 3.59993,-0.37095 1.65524,0.17751 2.10334,0.42525 2.10334,1.16326 0,1.12946 0.0565,1.13425 2.3034,0.19548 z m -5.76642,-10.26922 c -7.1e-4,-1.29293 0.0877,-2.35079 0.19666,-2.35079 0.10887,0 1.00562,0.80765 1.99276,1.79478 1.57731,1.57733 2.0084,1.76012 3.55796,1.50865 2.28529,-0.37084 3.15956,-1.13427 3.15956,-2.759 0,-1.55678 -1.25042,-3.51384 -2.2451,-3.51384 -0.38736,0 -1.60817,-0.36166 -2.71291,-0.80369 -2.65668,-1.06299 -3.73401,-3.03859 -2.95093,-5.41135 0.98437,-2.98267 3.59683,-3.91665 7.25517,-2.59377 1.40927,0.50959 1.64358,0.82707 1.64358,2.22706 0,1.12138 -0.2325,1.63274 -0.74236,1.63274 -0.40829,0 -0.74234,-0.29954 -0.74234,-0.66565 0,-2.08027 -4.4437,-3.18289 -5.42651,-1.3465 -1.18498,2.21414 -0.9328,2.478 4.09301,4.28291 2.61928,0.94067 3.808,2.54917 3.808,5.15277 0,3.89966 -2.33461,5.4879 -7.79341,5.30184 l -3.09183,-0.10531 z m 25.30827,8.90357 c -0.6006,-0.60059 -0.0696,-1.82191 1.73612,-3.99253 1.34468,-1.61648 1.65864,-3.33964 0.42137,-2.31281 -0.4083,0.33886 -0.74235,0.90975 -0.74235,1.26864 0,0.35891 -0.26056,0.81359 -0.57901,1.01041 -0.39754,0.24569 -0.47241,0.08 -0.23892,-0.52844 0.18707,-0.48743 0.10569,-1.16865 -0.18069,-1.51379 -0.28643,-0.34514 -0.48661,-0.818 -0.44482,-1.05081 0.18125,-1.00947 -0.0791,-1.69553 -0.53614,-1.41306 -0.27221,0.16816 -0.49491,0.84948 -0.49491,1.5139 0,0.66444 -0.27839,1.213 -0.61863,1.21906 -0.34025,0.006 -0.0653,0.43624 0.61124,0.95595 0.67642,0.51972 1.05548,1.11935 0.84234,1.33247 -0.58167,0.58169 -2.05108,-0.5272 -2.22333,-1.67783 -0.10905,-0.72862 -0.41892,-0.93946 -1.11354,-0.75782 -1.09164,0.28546 -1.32285,1.62094 -0.28063,1.62094 0.37496,0 0.95898,0.33405 1.29784,0.74234 0.33886,0.40829 1.03425,0.74236 1.54531,0.74236 1.14437,0 1.17216,0.39595 0.11017,1.56946 -0.49005,0.54149 -0.58945,0.90504 -0.24746,0.90504 0.31439,0 0.57162,0.40831 0.57162,0.90732 0,1.23281 0.70095,1.86017 0.91248,0.81668 0.0935,-0.46164 -0.063,-1.07249 -0.34802,-1.35748 z m -43.13198,-1.44523 c 1.2216,-0.63631 2.29579,-1.54472 2.38707,-2.0187 0.19899,-1.03326 -1.16311,-1.18051 -1.55174,-0.16778 -0.37006,0.96437 -5.07101,1.92902 -6.27097,1.28682 -0.50988,-0.27288 -1.59667,-0.49615 -2.41509,-0.49615 -0.81843,0 -1.64336,-0.2513 -1.83318,-0.55845 -0.23576,-0.38147 -0.4888,-0.30179 -0.79834,0.25136 -0.68466,1.22341 0.0342,1.92771 1.63999,1.60658 1.12695,-0.22539 1.42693,-0.10661 1.4354,0.56877 0.006,0.46953 0.72968,1.19756 1.60842,1.61782 1.46348,0.69994 1.68088,0.69284 2.58753,-0.0847 0.54439,-0.46682 1.98929,-1.36937 3.21091,-2.00566 z m 47.50221,2.0492 c -0.99213,-0.62746 -2.32974,-0.59214 -2.74041,0.0724 -0.2207,0.35711 -0.015,0.44721 0.58943,0.25874 0.51042,-0.15899 1.25566,-0.0836 1.65606,0.1676 0.40042,0.25117 0.83939,0.34533 0.97548,0.20923 0.13618,-0.13617 -0.0802,-0.45462 -0.48056,-0.70785 z m -5.81195,-0.22813 c -0.0743,-0.27219 -0.63096,-0.49489 -1.23726,-0.49489 -0.60628,0 -1.38072,-0.18013 -1.72097,-0.4004 -0.35075,-0.227 -0.61863,-0.18406 -0.61863,0.0991 0,0.73008 1.5776,1.54719 2.72195,1.40985 0.54441,-0.0653 0.92911,-0.34149 0.85491,-0.61369 z m -53.21691,-1.13417 c 0.35188,-0.22369 0.42678,-0.64484 0.18444,-1.037 -1.08536,-1.75612 1.20083,-3.76051 2.79165,-2.44757 0.67587,0.55784 0.76146,0.54578 0.55515,-0.0784 -0.13412,-0.4058 -0.92289,-1.13433 -1.75269,-1.61897 -1.21998,-0.71249 -1.77881,-0.77848 -2.91962,-0.34475 -0.77596,0.29501 -1.579,0.80085 -1.78453,1.12407 -0.46368,0.72923 -0.50703,4.01624 -0.0589,4.46439 0.44308,0.4431 2.24908,0.40565 2.98452,-0.0619 z m 16.70364,-0.67645 c 1.15449,-0.52602 1.24835,-0.80182 1.13681,-3.34059 -0.1212,-2.75713 -0.12775,-2.76781 -1.80209,-2.92768 -1.5599,-0.14889 -1.62205,-0.10194 -0.86607,0.65398 1.10806,1.10806 1.02291,1.73354 -0.23597,1.73354 -0.88661,0 -0.95244,0.11803 -0.42215,0.75701 0.48491,0.58426 0.49873,1.0413 0.0606,2.00288 -0.31222,0.68524 -0.56765,1.34678 -0.56765,1.47006 0,0.41402 1.42703,0.22922 2.69652,-0.3492 z m 36.40072,-0.54016 c 0,-0.20415 -0.54362,-0.37118 -1.20804,-0.37118 -0.66444,0 -1.31129,0.16703 -1.43746,0.37118 -0.12625,0.20415 0.41746,0.37118 1.20804,0.37118 0.79061,0 1.43746,-0.16703 1.43746,-0.37118 z m 5.38821,-2.47452 0.53602,-1.60842 -0.98251,1.16835 c -1.05124,1.25009 -1.26015,2.04851 -0.53603,2.04851 0.24558,0 0.68771,-0.7238 0.98252,-1.60844 z m 2.01864,-2.50068 c 0.60572,-3.54111 0.46783,-12.04345 -0.2779,-17.13428 -0.26045,-1.77794 -0.15338,-2.31205 0.56941,-2.84057 0.48959,-0.358 0.74478,-0.79629 0.56708,-0.97399 -0.72734,-0.72734 -1.79021,1.03388 -1.92994,3.19797 l -0.14927,2.31137 -0.61773,-2.96941 c -0.33975,-1.63319 -0.7574,-3.63753 -0.9281,-4.45412 -0.25513,-1.22048 -0.19363,-1.37461 0.34554,-0.86609 0.92526,0.87268 1.47399,0.76798 1.09884,-0.20965 -0.23361,-0.60875 -0.11429,-0.75016 0.45013,-0.53356 0.42238,0.16217 1.01782,0.0449 1.32317,-0.26052 0.709,-0.70899 0.71986,-2.67159 0.0168,-3.10586 -0.38744,-0.23945 -0.38744,-0.48312 0,-0.87053 0.29593,-0.29592 0.53805,-1.1616 0.53805,-1.92375 0,-1.19673 -0.19429,-1.38574 -1.42435,-1.38574 -0.91701,0 -1.70101,0.39664 -2.2011,1.11354 l -0.77676,1.11353 -0.026,-1.05735 c -0.0193,-0.78894 -0.4036,-1.1128 -1.5135,-1.2757 -0.81813,-0.12009 -1.59761,-0.1083 -1.73215,0.0264 -0.59622,0.59624 -0.16217,3.44585 0.65912,4.32743 0.49707,0.53354 0.82371,1.21021 0.72589,1.50375 -0.0978,0.29352 0.16367,0.81707 0.58094,1.16345 0.65983,0.54762 0.7574,0.37976 0.74782,-1.28672 -0.007,-1.13604 -0.40513,-2.42031 -0.97881,-3.15373 -1.44077,-1.84191 -1.19024,-2.3568 0.40371,-0.82971 l 1.39352,1.33508 1.16543,-1.24053 c 0.64098,-0.6823 1.24401,-1.16195 1.34008,-1.06588 0.33575,0.33577 -0.45077,1.79319 -0.83843,1.55359 -0.21517,-0.13299 -0.52333,0.10251 -0.68483,0.52344 -0.18668,0.48656 -0.092,0.64067 0.25979,0.42319 0.33621,-0.2078 0.45539,-0.0722 0.30364,0.34546 -0.13729,0.37814 -0.50032,0.63185 -0.80654,0.5638 -0.30624,-0.0681 -0.55677,0.10868 -0.55677,0.39286 0,0.28413 0.27839,0.47172 0.61863,0.41686 0.8672,-0.13991 2.35078,0.56564 2.35078,1.11785 0,0.59745 -2.61052,0.32746 -3.08557,-0.31915 -0.19997,-0.27219 -0.36701,0.66117 -0.37116,2.07414 -0.007,2.53394 -0.58857,3.68929 -1.28711,2.55904 -0.2449,-0.39628 -0.13841,-0.44701 0.33697,-0.16049 0.59508,0.35863 0.59592,0.2967 0.006,-0.4304 -0.37903,-0.46712 -0.79166,-0.74679 -0.91697,-0.62149 -0.12532,0.12532 -0.77569,0.0195 -1.44533,-0.23508 -1.38527,-0.52668 -3.59876,0.71021 -3.59842,2.0108 1.5e-4,0.59781 0.12813,0.57372 0.65763,-0.12364 1.84344,-2.42845 7.04011,1.02641 7.48067,4.97329 0.21417,1.91887 1.49419,5.11775 1.88961,4.72233 0.47713,-0.47711 -0.38904,12.55158 -0.97275,14.63197 -0.21092,0.75169 -0.14964,1.0769 0.1661,0.88179 0.27507,-0.17003 0.78078,-1.94966 1.12376,-3.95477 z m -52.68039,0.80074 c -0.61654,-4.93457 -0.58723,-4.90616 -5.03207,-4.8802 l -3.88616,0.0226 -0.15899,1.94572 c -0.14197,1.73809 -0.0741,1.87536 0.6355,1.28638 1.03545,-0.85934 2.5534,-0.0855 4.98313,2.54066 0.96596,1.04401 2.21841,1.89821 2.78319,1.89821 0.96003,0 1.004,-0.18312 0.67536,-2.81347 z m 2.68152,1.8806 c 0.27459,-0.51308 1.0619,-1.0741 1.74957,-1.24669 0.79524,-0.19958 1.25029,-0.66041 1.25029,-1.26612 0,-1.06012 1.74547,-2.49314 3.03673,-2.49314 0.67387,0 0.76391,-0.26511 0.4622,-1.36098 -0.34497,-1.25306 -0.55742,-1.35463 -2.67915,-1.28086 -1.26746,0.0442 -2.30448,-0.12289 -2.30448,-0.37116 0,-0.24823 -0.52975,-0.45131 -1.17722,-0.45131 -1.75479,0 -2.48542,2.19422 -2.05839,6.18169 0.35291,3.29549 0.83696,3.93937 1.72045,2.28857 z m 40.87186,-4.95135 c -0.18462,-0.84038 -0.57625,-1.67668 -0.87038,-1.85847 -0.35571,-0.21984 -0.42808,0.0683 -0.21614,0.86041 0.17527,0.65501 0.32169,1.73655 0.32541,2.40341 0.006,0.88262 0.15507,1.06424 0.55172,0.66755 0.32255,-0.32255 0.40802,-1.16856 0.20939,-2.0729 z m 6.21139,1.294 c -0.0612,-0.59175 -0.74002,-0.47714 -0.95268,0.16087 -0.10886,0.32664 0.0692,0.50481 0.39593,0.39592 0.32662,-0.10886 0.57718,-0.35941 0.55675,-0.55677 z m 1.29077,-0.94649 c -0.15805,-0.3948 -0.27526,-0.27752 -0.29902,0.299 -0.0215,0.52172 0.0954,0.81401 0.25995,0.64957 0.16441,-0.16442 0.182,-0.59132 0.0391,-0.94857 z m -4.34912,-0.6816 c 0.7856,0.48554 0.92299,-0.24539 1.24979,-6.64913 0.1952,-3.82499 0.13,-5.44793 -0.19873,-4.94903 -0.37181,0.56425 -0.49478,0.32678 -0.51249,-0.98979 -0.0221,-1.63079 -0.0658,-1.67595 -0.74994,-0.77149 -0.67826,0.89674 -0.72611,0.83088 -0.71904,-0.98981 0.006,-1.25557 0.15675,-1.71528 0.42605,-1.29034 0.33076,0.52179 0.48823,0.47823 0.75152,-0.20789 0.19229,-0.5011 0.0645,-1.03492 -0.30231,-1.2629 -0.42632,-0.26495 -0.76544,-0.009 -1.03066,0.7751 -0.21741,0.64348 -0.79565,1.27468 -1.28497,1.40264 -0.69521,0.18182 -0.83769,0.5871 -0.65178,1.85387 0.15675,1.06837 0.0587,1.51041 -0.28781,1.29627 -0.89131,-0.55086 -1.27499,1.67215 -0.40109,2.32402 0.49963,0.37271 0.97026,2.00732 1.30759,4.54151 0.66709,5.01176 0.95298,6.02639 1.46467,5.19846 0.212,-0.34305 0.63464,-0.4697 0.9392,-0.28149 z m -0.85983,-10.11345 c 0,-0.68049 0.11223,-0.95888 0.24961,-0.61863 0.1373,0.34026 0.1373,0.89701 0,1.23725 -0.13729,0.34025 -0.24961,0.0619 -0.24961,-0.61862 z m 4.12983,6.60043 c -0.34429,-0.8129 -0.42494,-0.77816 -0.76246,0.3282 -0.2076,0.68048 -0.38539,1.79403 -0.39512,2.47451 -0.0168,1.17479 0.0217,1.15822 0.76245,-0.32821 0.47717,-0.95749 0.63062,-1.91849 0.39513,-2.4745 z m 1.69416,0.45193 c -0.0202,-1.56514 -0.2054,-3.84787 -0.41158,-5.07274 -0.28282,-1.68006 -0.36499,-0.98179 -0.3345,2.84291 0.0222,2.78849 0.20743,5.07123 0.41158,5.07274 0.20416,0.002 0.35468,-1.27779 0.3345,-2.84291 z m -7.86549,-0.86607 c -0.31462,-2.44962 -0.39155,-2.62289 -0.43951,-0.98981 -0.0542,1.84406 0.37709,4.42712 0.68492,4.10257 0.0748,-0.0789 -0.0357,-1.4796 -0.24541,-3.11276 z m -44.41821,0.98212 c -0.69163,-0.48446 -0.95,-1.06491 -0.77382,-1.73859 0.24595,-0.94054 0.16479,-0.96886 -1.1589,-0.40461 -0.78284,0.33368 -1.64421,0.79638 -1.91412,1.02821 -0.70877,0.60876 0.74972,1.38608 2.00807,1.07025 0.60638,-0.15226 1.29923,0.0649 1.68307,0.52746 0.35884,0.43236 0.7743,0.66427 0.92322,0.51534 0.1489,-0.14889 -0.19643,-0.59808 -0.76752,-0.99806 z m -8.76806,-1.47332 c 0.17845,-0.95062 0.15488,-2.11983 -0.0524,-2.59823 -0.51006,-1.17811 -0.65041,-1.62486 -1.0283,-3.27323 -0.36522,-1.59295 0.0694,-2.02672 2.78494,-2.78003 1.24143,-0.34437 2.01318,-0.99583 2.7079,-2.28584 0.53438,-0.99229 1.58657,-2.61284 2.33819,-3.60117 l 1.3666,-1.79698 -4.56937,-4.3648 c -4.94458,-4.72319 -4.94836,-4.98472 -0.0187,-1.25299 1.74852,1.32345 3.85775,2.75718 4.68718,3.18611 1.46598,0.75809 1.56198,0.73654 3.43874,-0.77166 1.06186,-0.85334 2.1235,-1.43233 2.35922,-1.28666 0.23572,0.14572 1.62576,-0.39506 3.08899,-1.20164 3.19374,-1.76049 4.48395,-1.96275 3.15534,-0.49463 -1.20164,1.32781 -0.63498,1.24685 1.73215,-0.24745 1.07797,-0.68049 2.04778,-1.23726 2.15513,-1.23726 0.10737,0 -0.23095,0.86131 -0.75179,1.91402 -0.77547,1.56738 -0.84397,2.14011 -0.37823,3.1623 0.58745,1.28931 2.34889,2.36172 3.82348,2.32783 0.48996,-0.0112 0.22117,-0.29028 -0.6421,-0.66651 -0.8167,-0.35594 -1.7816,-1.00463 -2.14421,-1.44156 -0.84114,-1.0135 -0.53189,-2.61341 0.47303,-2.44726 0.422,0.0698 1.02686,-0.44289 1.34416,-1.13926 0.88409,-1.94036 3.48286,-2.76048 8.67034,-2.73618 2.48836,0.0112 5.40888,0.2351 6.49002,0.49656 2.23046,0.53939 2.98232,0.29253 1.18745,-0.38989 -2.23653,-0.85032 -12.35062,-1.19605 -16.52027,-0.5647 -3.84022,0.58146 -9.65367,2.77067 -10.35017,3.89765 -0.18912,0.30603 -0.55533,0.55641 -0.81377,0.55641 -0.26116,0 -0.21784,-0.40358 0.0974,-0.90857 0.61835,-0.99013 0.032,-3.59601 -0.87743,-3.89912 -0.27719,-0.0924 -1.09843,0.29957 -1.82495,0.87105 -0.98006,0.77092 -1.32096,1.48435 -1.32096,2.76452 0,1.11646 -0.18989,1.60808 -0.53801,1.39293 -0.29592,-0.18293 -0.43082,-0.74245 -0.29981,-1.24346 0.33254,-1.27162 -0.53789,-2.16254 -3.06329,-3.13535 -3.25423,-1.25358 -6.88843,-1.2808 -7.78285,-0.0584 -0.71935,0.98325 -0.53842,3.48964 0.31789,4.40354 0.22401,0.23909 0.16498,0.8228 -0.13131,1.29714 -0.73527,1.17734 1.16822,3.82991 3.42503,4.77286 1.7066,0.71307 1.81588,1.66119 0.19146,1.66119 -2.39745,0 -4.06221,2.80743 -4.10854,6.92863 -0.0761,6.76508 0.65683,10.05018 1.38099,6.19 z m 2.19512,0.4912 c 0.33884,-0.40832 0.92846,-0.74237 1.31023,-0.74237 0.38177,0 0.82775,-0.66812 0.99106,-1.4847 0.3432,-1.71603 0.56411,-1.81019 1.45128,-0.61863 0.5948,0.79889 0.76307,0.73172 2.1692,-0.86608 1.29397,-1.47036 1.49002,-2.03136 1.29717,-3.71175 -0.12495,-1.0888 -0.3865,-2.51053 -0.58124,-3.1594 -0.71146,-2.37067 0.88026,-0.78954 1.70307,1.69173 0.68617,2.0692 1.01038,2.45877 2.05217,2.46567 0.68049,0.004 1.7237,0.28289 2.31824,0.61863 1.22905,0.69401 3.92896,0.81772 4.31222,0.19758 0.20828,-0.33701 0.76445,-4.19889 0.90276,-6.26833 0.0187,-0.27221 -0.30265,-1.28436 -0.71298,-2.24923 -0.57832,-1.35991 -1.20635,-1.90626 -2.79334,-2.43 -1.12602,-0.37163 -2.04729,-0.86273 -2.04729,-1.09136 0,-0.55299 0.84817,-0.52632 1.94595,0.0612 1.08625,0.58134 3.99287,-0.38521 3.99287,-1.32775 0,-1.00462 -1.87644,-2.61345 -3.04816,-2.61345 -0.98586,0 -6.35497,3.61905 -6.35497,4.28358 0,0.28123 3.34314,5.12274 5.84186,8.46014 2.32476,3.10504 0.17807,1.57091 -2.58206,-1.84532 -1.53477,-1.89956 -3.27583,-3.7135 -3.86904,-4.03096 -0.95345,-0.51027 -1.25561,-0.37236 -2.60545,1.18917 -2.79295,3.23096 -3.02742,4.01629 -2.02855,6.79403 1.05786,2.94183 0.79831,4.37199 -0.38108,2.09975 -1.3316,-2.56554 -2.01748,-2.1076 -3.70605,2.47451 -1.01641,2.7581 -0.8421,3.62663 0.42213,2.10334 z m 7.63668,-0.28537 c -0.89101,-0.98455 -0.89393,-1.09369 -0.0696,-2.59825 l 0.86051,-1.5705 -0.99694,1.16835 c -1.12952,1.32371 -1.27491,2.56239 -0.40307,3.43423 1.03264,1.03264 1.58204,0.6413 0.60907,-0.43383 z m 4.95526,-1.06201 c 0.88977,-1.27035 0.97808,-1.8695 0.2755,-1.8695 -0.27219,0 -0.49489,0.31815 -0.49489,0.70701 0,0.38885 -0.34997,1.05696 -0.7777,1.4847 -0.42774,0.42775 -0.55172,0.7777 -0.27552,0.7777 0.27619,0 0.84888,-0.49495 1.27261,-1.09991 z m 3.95192,0.32221 c 0.88811,-0.88811 1.0538,-3.1815 0.22985,-3.1815 -0.30132,0 -0.44349,0.27838 -0.31593,0.61862 0.44556,1.18854 -0.47922,2.59984 -1.90736,2.91085 l -1.43553,0.31264 1.32564,0.0585 c 0.7291,0.0322 1.67559,-0.2914 2.10333,-0.71915 z m -7.27035,-0.55381 c -0.46014,-0.46015 -0.97558,-0.69766 -1.1454,-0.52784 -0.48708,0.48708 0.26066,1.36445 1.16283,1.36445 0.75546,0 0.75409,-0.0651 -0.0168,-0.83661 z m 0.95459,-2.12582 c -0.5989,-1.10165 -1.14057,-1.66091 -1.22679,-1.26661 -0.1704,0.77962 1.27402,3.23923 1.90234,3.23923 0.21826,0 -0.0857,-0.88768 -0.67555,-1.97262 z m 4.94765,0.27375 c -0.16367,-0.42661 -0.61772,-0.77562 -1.00895,-0.77562 -0.5806,0 -0.60619,0.22281 -0.13935,1.21241 0.61158,1.29618 1.66016,0.89728 1.1482,-0.43679 z m 42.08799,-2.37828 c -0.1184,-0.61562 -0.21972,-0.22848 -0.22522,0.86029 -0.006,1.0888 0.0915,1.59247 0.21524,1.11931 0.12382,-0.47318 0.12831,-1.364 0.009,-1.9796 z m -57.53771,-0.74813 c 0.36664,-1.19842 -0.36377,-1.47761 -1.68277,-0.64324 -0.61996,0.39219 -0.62413,0.63329 -0.0301,1.74323 0.72008,1.3455 1.02454,1.14998 1.71288,-1.09999 z m 2.42882,-1.86559 c -0.14141,-0.36858 -0.55873,-0.55444 -0.92731,-0.41299 -0.36859,0.14141 -0.55442,0.55872 -0.41299,0.9273 0.14141,0.36858 0.55873,0.55443 0.92732,0.41299 0.36858,-0.14141 0.55441,-0.55872 0.41298,-0.9273 z m 54.35469,-2.81949 c -0.35511,-0.35512 -0.58563,-0.38433 -0.58563,-0.0743 0,0.66058 0.58528,1.24586 0.91557,0.91557 0.14066,-0.14066 -0.007,-0.51925 -0.32994,-0.84135 z m -3.55504,-3.05667 c 0,-0.107 -0.33405,-0.3227 -0.74235,-0.47937 -0.40829,-0.15675 -0.74236,-0.0692 -0.74236,0.19449 0,0.26365 0.33407,0.47937 0.74236,0.47937 0.4083,0 0.74235,-0.0875 0.74235,-0.19449 z m -44.75327,-2.75135 c 0,-0.44071 -0.39769,-0.80127 -0.88375,-0.80127 -1.00079,0 -0.97547,-0.0372 -0.615,0.9022 0.3689,0.96134 1.49875,0.88527 1.49875,-0.10101 z m 39.85072,-0.84225 c 1.0858,-0.43446 1.88239,-0.88175 1.77018,-0.99396 -0.11223,-0.11223 -0.73391,0.0326 -1.38151,0.32185 -0.91065,0.40671 -1.96256,0.29343 -4.64181,-0.49987 -5.10344,-1.51106 -5.65664,-1.59136 -3.4643,-0.50288 1.08878,0.54059 2.46754,0.98873 3.06393,0.99585 0.59637,0.007 1.22195,0.23569 1.39018,0.50788 0.77643,1.2563 -4.72296,0.26727 -6.20828,-1.11652 -0.90079,-0.83921 -1.03786,-1.38343 -0.82474,-3.27434 0.23344,-2.07099 0.19345,-2.18288 -0.46065,-1.28927 -0.39394,0.53821 -0.65069,1.73591 -0.57052,2.66156 0.18107,2.09092 2.00774,3.56636 4.96099,4.00715 2.54374,0.37965 3.76731,0.22255 6.36653,-0.81745 z m -11.42922,0.0763 c 0,-0.40831 -0.33405,-0.74236 -0.74234,-0.74236 -0.40829,0 -0.74236,0.33405 -0.74236,0.74236 0,0.40829 0.33407,0.74234 0.74236,0.74234 0.40829,0 0.74234,-0.33405 0.74234,-0.74234 z m -16.33176,-0.24747 c 0,-0.27219 -0.2227,-0.49489 -0.4949,-0.49489 -0.27219,0 -0.49489,0.2227 -0.49489,0.49489 0,0.2722 0.2227,0.49492 0.49489,0.49492 0.2722,0 0.4949,-0.22272 0.4949,-0.49492 z m 31.42627,-1.24846 c -1.08878,-0.93843 -2.14664,-1.70954 -2.35078,-1.71358 -0.20415,-0.004 -0.37117,-0.52157 -0.37117,-1.15004 0,-0.62845 -0.32389,-1.57495 -0.71976,-2.10331 -0.66218,-0.88385 -0.69663,-0.81258 -0.43081,0.89101 0.31169,1.9977 -0.30243,3.15567 -2.04911,3.86367 -0.96763,0.39223 -0.96327,0.4094 0.11148,0.43955 0.61511,0.0168 1.49067,-0.40345 1.94569,-0.93489 0.81162,-0.94789 0.86325,-0.93379 2.71856,0.74236 1.04016,0.93974 2.16895,1.70024 2.50841,1.69001 0.33945,-0.009 -0.27362,-0.78637 -1.36242,-1.72478 z m -27.2196,0.0266 c -1.59336,-1.30607 -2.22705,-1.52965 -2.22705,-0.78576 0,0.63567 2.02324,2.00824 2.9558,2.00521 0.48187,-0.002 0.21763,-0.44372 -0.72875,-1.21945 z m 28.83614,-0.56639 c -0.32412,-0.71135 -0.67447,-1.03792 -0.77852,-0.72571 -0.104,0.31222 0.0817,0.89425 0.41304,1.29339 0.89765,1.0816 1.02606,0.88214 0.36548,-0.56768 z m -20.4228,-0.17227 1.4847,-0.61595 -1.18538,-0.45457 c -0.65197,-0.25001 -1.30151,-0.33843 -1.44347,-0.19648 -0.14197,0.14197 0.0574,0.26597 0.44303,0.27562 0.38562,0.009 0.1444,0.33581 -0.53614,0.72482 -2.8031,1.60239 -7.52184,0.42271 -5.93882,-1.48471 0.33886,-0.40829 1.0211,-0.74236 1.51609,-0.74236 0.49501,0 1.05771,-0.25517 1.25048,-0.56708 0.42489,-0.68748 -2.16738,-0.13561 -3.13498,0.66747 -0.79534,0.66006 -0.79665,1.99606 -0.002,2.81195 0.74177,0.76234 5.31159,0.50881 7.54727,-0.41871 z m -13.32236,-1.87626 c -0.57099,-0.57098 -0.86393,0.32326 -0.47455,1.44867 l 0.39818,1.15084 0.182,-1.15604 c 0.10007,-0.6358 0.0526,-1.28537 -0.1055,-1.44347 z m 24.49081,1.64965 c -0.46048,-0.55484 -0.39524,-0.81161 0.31057,-1.22222 0.80252,-0.46686 0.80828,-0.52132 0.0567,-0.53485 -0.46029,-0.007 -0.98111,0.21833 -1.15739,0.50356 -0.42888,0.69395 0.0887,1.9559 0.80207,1.9559 0.42584,0 0.42281,-0.17863 -0.0112,-0.70239 z m -14.88022,-0.30929 c 0,-0.1935 -0.33406,-0.62906 -0.74235,-0.96792 -0.59431,-0.49323 -0.89997,-0.4853 -1.53268,0.0398 -0.71855,0.59633 -0.70956,0.68425 0.0991,0.96791 1.17999,0.41392 2.17593,0.3957 2.17593,-0.0398 z m 13.36235,-0.95732 c 0,-0.86779 -0.14235,-0.91433 -1.25129,-0.40905 -0.90773,0.41358 -1.07759,0.68037 -0.61863,0.97161 1.08852,0.69077 1.86992,0.45569 1.86992,-0.56256 z m 3.95922,0.48429 c 0,-0.27219 -0.20957,-0.49489 -0.4657,-0.49489 -0.25613,0 -0.60333,0.2227 -0.77156,0.49489 -0.16816,0.2722 0.0413,0.49492 0.4657,0.49492 0.42436,0 0.77156,-0.22272 0.77156,-0.49492 z m 5.56764,-1.78884 c 0,-0.843 -0.4512,-1.73371 -1.17538,-2.32039 -1.48012,-1.19906 -5.37523,-0.91563 -8.55219,0.62229 -1.17495,0.56878 -2.50126,0.89408 -2.94737,0.72289 -0.46578,-0.17881 -0.81113,-0.0655 -0.81113,0.2658 0,0.31801 0.27774,0.42027 0.61863,0.22781 0.4949,-0.27941 0.4949,-0.21597 0,0.31722 -1.34644,1.45059 -0.47299,1.37352 2.53823,-0.22396 4.08439,-2.16682 6.82736,-2.65855 8.54646,-1.53216 1.09647,0.71842 1.2372,1.08771 0.99149,2.60177 -0.20644,1.27218 -0.13598,1.61418 0.25246,1.22572 0.29635,-0.29635 0.5388,-1.15449 0.5388,-1.90699 z m -21.1761,0.0219 c 0.0168,-1.23269 0.23774,-1.4747 1.47935,-1.61599 0.96793,-0.11018 1.67539,0.12794 2.09821,0.70622 0.35087,0.47982 0.78331,0.72702 0.96101,0.54931 0.64833,-0.64832 -0.97066,-1.8317 -2.50592,-1.8317 -2.40376,0 -3.5096,1.12998 -3.30949,3.38181 0.11522,1.29674 1.25813,0.23185 1.27684,-1.18965 z m 3.48336,0.51192 c -0.81658,-0.37391 -1.81877,-0.67179 -2.22706,-0.66197 -0.4083,0.009 -0.0743,0.3238 0.74236,0.69771 0.81658,0.37392 1.81876,0.67179 2.22705,0.66197 0.40829,-0.009 0.0743,-0.3238 -0.74235,-0.69771 z m 16.23302,-1.05077 c -0.1401,-0.36493 -0.45348,-0.66352 -0.69657,-0.66352 -0.51702,0 -0.59764,1.65894 -0.10456,2.15202 0.47767,0.47765 1.10696,-0.69158 0.80115,-1.4885 z m -3.33544,0.86993 c -0.28991,-0.46907 -3.247,-1.63119 -3.247,-1.27605 0,0.26306 2.59171,1.67613 3.12235,1.70239 0.22021,0.0112 0.27631,-0.18088 0.12457,-0.42634 z m -19.46864,-1.53345 c 0.75603,0 1.37459,-0.24653 1.37459,-0.54785 0,-0.30132 -0.35228,-0.41267 -0.78283,-0.24745 -0.43055,0.16517 -1.074,0.3004 -1.42988,0.3004 -0.35588,0 -1.1728,0.46327 -1.81541,1.02947 l -1.16835,1.02946 1.22365,-0.78202 c 0.673,-0.4301 1.84221,-0.78201 2.59823,-0.78201 z m 19.19105,0 c 0,-0.2722 -0.2227,-0.4949 -0.49489,-0.4949 -0.2722,0 -0.4949,0.2227 -0.4949,0.4949 0,0.27219 0.2227,0.49491 0.4949,0.49491 0.27219,0 0.49489,-0.22272 0.49489,-0.49491 z m -10.39294,-0.4949 c 0,-0.27219 -0.2227,-0.49489 -0.49489,-0.49489 -0.2722,0 -0.4949,0.2227 -0.4949,0.49489 0,0.2722 0.2227,0.4949 0.4949,0.4949 0.27219,0 0.49489,-0.2227 0.49489,-0.4949 z m -20.78588,-0.77865 c 0,-0.46087 -0.3367,-0.71333 -0.82505,-0.61861 -1.2416,0.24079 -1.41208,1.39726 -0.20598,1.39726 0.60791,0 1.03103,-0.31955 1.03103,-0.77865 z m 27.92949,-0.75861 c -0.33223,-0.53755 -1.5538,-0.58403 -1.87044,-0.0711 -0.12607,0.20414 0.30476,0.4032 0.95732,0.44235 0.65258,0.0391 1.06347,-0.12794 0.91312,-0.37118 z"
       id="path3924" />
  </g>
</svg>
