<?xml version="1.0" encoding="UTF-8" standalone="no"?>
<!-- Created with Inkscape (http://www.inkscape.org/) -->

<svg
   width="37.252911mm"
   height="37.451733mm"
   viewBox="0 0 37.25291 37.451737"
   version="1.1"
   id="svg997"
   inkscape:version="1.1 (c4e8f9ed74, 2021-05-24)"
   sodipodi:docname="ornaten3.svg"
   xmlns:inkscape="http://www.inkscape.org/namespaces/inkscape"
   xmlns:sodipodi="http://sodipodi.sourceforge.net/DTD/sodipodi-0.dtd"
   xmlns="http://www.w3.org/2000/svg"
   xmlns:svg="http://www.w3.org/2000/svg">
  <sodipodi:namedview
     id="namedview999"
     pagecolor="#ffffff"
     bordercolor="#666666"
     borderopacity="1.0"
     inkscape:pageshadow="2"
     inkscape:pageopacity="0.0"
     inkscape:pagecheckerboard="0"
     inkscape:document-units="mm"
     showgrid="false"
     inkscape:zoom="1.5385816"
     inkscape:cx="-203.10915"
     inkscape:cy="77.66894"
     inkscape:window-width="2506"
     inkscape:window-height="1403"
     inkscape:window-x="1974"
     inkscape:window-y="0"
     inkscape:window-maximized="1"
     inkscape:current-layer="layer1" />
  <defs
     id="defs994" />
  <g
     inkscape:label="Layer 1"
     inkscape:groupmode="layer"
     id="layer1"
     transform="translate(-192.24489,-158.04242)">
    <path
       style="fill:#000000;stroke-width:0.264583"
       d="m 206.44487,195.39095 c -0.3638,-0.0952 -3.61284,-0.15582 -7.22009,-0.13482 -3.60724,0.021 -6.62382,-0.0673 -6.7035,-0.19625 -0.0797,-0.12893 8.5e-4,-0.41003 0.17898,-0.62466 0.22941,-0.27642 0.26384,-0.83251 0.11807,-1.90664 -0.19718,-1.45287 -0.3858,-4.87156 -0.36103,-6.54348 0.0126,-0.84647 -0.003,-2.22328 -0.10392,-9.12813 -0.0472,-3.2321 0.0351,-4.66339 0.31672,-5.51241 0.32859,-0.99049 0.32933,-1.22489 0.005,-1.71979 -0.28898,-0.44161 -0.38538,-1.83195 -0.42038,-6.06311 -0.0458,-5.54064 0.0396,-6.04057 0.88754,-5.19265 0.22021,0.22021 0.51902,0.22021 1.15073,0 1.05786,-0.36877 2.6264,-0.3884 2.6264,-0.0329 0,0.14552 0.23812,0.26458 0.52916,0.26458 0.29105,0 0.52917,-0.12907 0.52917,-0.28681 0,-0.33832 4.32087,-0.10315 4.99055,0.27162 0.26037,0.14572 0.62325,0.11944 0.95574,-0.0692 0.67413,-0.38249 5.13925,-0.36963 5.82975,0.0168 0.38538,0.21567 0.70284,0.18649 1.29339,-0.1189 0.65607,-0.33927 1.07193,-0.35695 2.57126,-0.10934 1.15905,0.19141 2.02,0.2074 2.44603,0.0454 1.0458,-0.39761 5.19661,-0.23 5.19661,0.20984 0,0.24028 0.15551,0.29821 0.46303,0.17249 1.30481,-0.53343 2.37782,-0.66968 4.74489,-0.6025 l 2.59729,0.0737 0.17227,3.0427 c 0.14976,2.64515 0.11519,3.08792 -0.26458,3.38872 -0.40456,0.32043 -0.40262,0.36542 0.0262,0.60846 0.53019,0.30052 0.63762,1.80781 0.1627,2.28273 -0.22403,0.22403 -0.22086,0.61584 0.0125,1.54252 0.34608,1.37441 0.44116,7.24639 0.1489,9.19536 -0.3301,2.20126 -0.6689,1.65177 -0.48997,-0.79466 l 0.17061,-2.3325 -0.76303,0.67941 c -1.40011,1.24668 -2.252,1.67215 -2.53625,1.26673 -0.20294,-0.28947 -0.2293,-0.28209 -0.13667,0.0382 0.0631,0.21829 0.34007,0.35933 0.61545,0.31344 0.27538,-0.0459 0.75,-0.0785 1.05471,-0.0725 0.32593,0.006 0.69827,-0.25862 0.90439,-0.64376 0.54032,-1.0096 0.57155,-0.64361 0.12694,1.48789 -0.59612,2.85788 -0.67167,3.06043 -0.95358,2.55668 -0.1474,-0.26339 -0.0886,-0.68677 0.16217,-1.16758 0.52184,-1.00055 0.50622,-1.44123 -0.0436,-1.23024 -0.29604,0.1136 -0.3776,0.0675 -0.24897,-0.1406 0.10771,-0.17428 0.04,-0.31918 -0.15503,-0.33159 -0.65381,-0.0416 -1.40559,-0.17129 -2.13228,-0.36777 -0.62001,-0.16763 -0.72761,-0.11702 -0.72761,0.34223 0,0.29643 0.1871,0.72605 0.41578,0.95473 0.37797,0.37797 0.36453,0.41577 -0.14791,0.41577 -0.33853,0 -0.49267,0.11489 -0.38592,0.28763 0.0978,0.1582 0.40246,0.22888 0.67708,0.15707 0.27462,-0.0718 0.4993,-0.0227 0.4993,0.10924 0,0.41539 0.46122,0.26282 1.27467,-0.42165 0.94845,-0.79807 1.22171,-0.84178 0.84341,-0.13492 -0.15499,0.28959 -0.41218,0.49795 -0.57155,0.46302 -0.15937,-0.0349 -0.34985,0.10189 -0.4233,0.30404 -0.0896,0.24654 -0.0217,0.29842 0.20625,0.15756 0.22953,-0.14186 0.27491,-0.10503 0.13985,0.1135 -0.10996,0.17793 -0.3553,0.26388 -0.54519,0.19102 -0.18989,-0.0729 -0.55348,0.0976 -0.80799,0.37883 -0.25451,0.28123 -0.32896,0.51133 -0.16546,0.51133 0.16926,0 0.22411,0.1907 0.12737,0.44281 -0.12778,0.33298 -0.0622,0.40147 0.26441,0.27613 0.23889,-0.0917 0.51256,-0.0401 0.60817,0.11461 0.25063,0.40551 0.6585,-0.32821 0.48777,-0.87743 -0.0754,-0.24242 -0.0258,-0.50948 0.11011,-0.59349 0.49079,-0.30332 0.56712,1.15841 0.11897,2.27845 -0.42976,1.07406 -0.46343,1.0991 -0.63736,0.47405 -0.14738,-0.52965 -0.18804,-0.55546 -0.20595,-0.13076 -0.0123,0.29104 0.0722,0.67799 0.18767,0.85988 0.37909,0.59703 1.01717,-0.22479 1.6434,-2.11665 0.5785,-1.74766 1.04892,-2.3113 1.04892,-1.25677 0,0.29104 0.10478,0.52917 0.23283,0.52917 0.39852,0 0.21802,6.80047 -0.19101,7.19669 -0.29637,0.28708 -0.33075,0.0317 -0.20802,-1.54488 l 0.14705,-1.88882 -0.64982,0.30132 c -0.45842,0.21256 -0.65042,0.51562 -0.65188,1.02892 -0.001,0.40018 -0.12113,0.7276 -0.26665,0.7276 -0.33492,0 -0.34482,-1.20778 -0.0149,-1.82416 0.19475,-0.3639 0.1501,-0.45912 -0.20309,-0.4331 -0.249,0.0183 -0.58699,0.11633 -0.75108,0.21775 -0.34994,0.21627 -0.61838,-0.36543 -0.61838,-1.33999 0,-0.6587 -0.0171,-0.66699 -0.3728,-0.18056 -0.24792,0.33904 -0.29294,0.65905 -0.13441,0.95527 0.15832,0.29582 0.13273,0.48066 -0.0762,0.5503 -0.21933,0.0731 -0.13985,0.44014 0.26245,1.21197 0.31738,0.60891 0.45321,1.1071 0.30184,1.1071 -0.40051,0 -1.37489,-2.34538 -1.22017,-2.93703 0.0778,-0.29733 0.0225,-0.43586 -0.13495,-0.33853 -0.14661,0.0906 -0.1965,0.51505 -0.11087,0.9432 0.13727,0.68635 0.0935,0.75871 -0.37022,0.61154 -0.30061,-0.0954 -0.52591,-0.0459 -0.52591,0.11549 0,0.15533 0.14175,0.25265 0.31501,0.21627 0.17326,-0.0364 0.36058,0.14222 0.41628,0.39688 0.0629,0.28768 -0.0564,0.46302 -0.31502,0.46302 -0.22894,0 -0.41627,0.19133 -0.41627,0.42518 0,0.27901 0.14388,0.36997 0.41852,0.26458 0.23018,-0.0883 0.4683,-0.1606 0.52916,-0.1606 0.0609,0 0.12447,-0.32742 0.14135,-0.7276 0.0234,-0.55438 0.0617,-0.60162 0.16076,-0.19844 0.0715,0.29104 0.2509,0.678 0.39858,0.8599 0.1998,0.2461 0.11653,0.33073 -0.32545,0.33073 -0.85076,0 -0.23809,0.67999 0.79968,0.88754 0.4333,0.0867 0.78782,0.28187 0.78782,0.4338 0,0.15925 -0.26817,0.20893 -0.63322,0.11731 -0.68943,-0.17303 -1.74803,0.52625 -1.74803,1.15471 0,0.27058 0.21196,0.30883 0.85989,0.15516 1.1683,-0.27707 1.98536,-0.22156 2.45314,0.16666 0.58597,0.48631 0.47474,0.71717 -0.33016,0.68528 -1.08668,-0.0431 -1.13565,0.79623 -0.0602,1.03243 0.45948,0.10092 1.05521,0.40329 1.32386,0.67194 0.47488,0.47487 0.48569,0.44655 0.38933,-1.01913 -0.0545,-0.82917 -0.18762,-1.73547 -0.29577,-2.014 -0.13759,-0.35432 -0.10367,-0.44897 0.1129,-0.31512 0.17471,0.10798 0.31685,0.0404 0.32632,-0.15503 0.009,-0.19049 0.11552,-0.10259 0.23621,0.19533 0.24668,0.6089 0.36463,2.22556 0.31172,4.27269 l -0.0355,1.37478 -6.28385,0.0143 c -3.45612,0.008 -8.42698,0.0562 -11.04635,0.10736 -2.61938,0.0512 -5.06016,0.0152 -5.42396,-0.0799 z m 4.87985,-0.65885 c 0.44642,0.12406 0.47285,0.0986 0.14723,-0.14175 -0.35278,-0.26039 -0.35278,-0.28457 0,-0.21756 0.21828,0.0415 0.43677,-0.0429 0.48552,-0.18741 0.0488,-0.14453 0.21455,-0.41449 0.36843,-0.59991 0.41458,-0.49953 0.026,-0.72197 -0.51683,-0.29589 -0.42684,0.33502 -0.43648,0.32644 -0.10628,-0.0946 0.19971,-0.25466 0.25925,-0.46484 0.13229,-0.46707 -0.12696,-0.002 -0.0522,-0.11857 0.16604,-0.25854 0.21828,-0.13997 0.635,-0.18537 0.92604,-0.10088 l 0.52917,0.15362 -0.52917,-0.41583 c -0.29104,-0.2287 -0.39308,-0.41961 -0.22675,-0.42424 0.16634,-0.005 0.36579,-0.17353 0.44323,-0.37534 0.0967,-0.25199 -0.009,-0.32765 -0.33871,-0.24153 -0.26373,0.069 -0.5595,-0.004 -0.65728,-0.16224 -0.16023,-0.25926 0.17529,-0.4063 0.72159,-0.31622 0.11367,0.0187 0.36852,-0.11599 0.56633,-0.2994 0.30263,-0.28061 0.30288,-0.44374 0.002,-1.02902 -0.88105,-1.71125 -2.94854,-1.27091 -3.37385,0.71858 -0.15151,0.70875 -0.1408,0.72285 0.13322,0.1754 0.1639,-0.32742 0.42267,-0.59531 0.57506,-0.59531 0.17057,0 0.15503,0.12204 -0.0404,0.3175 -0.48579,0.48579 -0.37953,1.30216 0.25779,1.98055 0.35223,0.37494 0.44384,0.61237 0.23628,0.61237 -0.20791,0 -0.27666,0.17906 -0.17777,0.46302 0.13442,0.38597 0.0951,0.37756 -0.23627,-0.0506 -0.21865,-0.28248 -0.39753,-0.6099 -0.39753,-0.72761 0,-0.1177 -0.1786,-0.21401 -0.39688,-0.21401 -0.21828,0 -0.39687,0.13891 -0.39687,0.30868 0,0.16978 -0.0891,0.21957 -0.19802,0.11066 -0.10892,-0.10891 0.0198,-0.35727 0.28594,-0.5519 0.46558,-0.34045 0.46306,-0.37479 -0.0666,-0.90441 -0.30279,-0.30279 -0.73615,-0.55053 -0.96302,-0.55053 -0.22687,0 -0.3389,-0.11906 -0.24897,-0.26458 0.21575,-0.34909 -0.0359,-0.33445 -0.745,0.0433 -0.52242,0.27833 -0.54304,0.26563 -0.21479,-0.1323 0.31839,-0.38596 0.29497,-0.44019 -0.19013,-0.44019 -0.38309,0 -0.50642,-0.12207 -0.40097,-0.39687 0.0838,-0.21828 0.43722,-0.39688 0.78545,-0.39688 0.34823,0 0.63315,-0.11906 0.63315,-0.26458 0,-0.14552 -0.36421,-0.26459 -0.80936,-0.26459 -0.47221,0 -0.74125,-0.11022 -0.64585,-0.26458 0.0899,-0.14552 -0.0934,-0.26458 -0.4074,-0.26458 -0.64542,0 -2.09525,1.41676 -2.12703,2.0785 -0.0129,0.2679 -0.0716,0.30958 -0.15294,0.1085 -0.14095,-0.34854 0.92122,-2.71768 1.36421,-3.04285 0.14566,-0.10691 0.68155,-0.19803 1.19087,-0.20249 1.06779,-0.009 1.80755,-0.36193 1.35116,-0.644 -0.16105,-0.0995 -0.29283,-0.0549 -0.29283,0.0992 0,0.15411 -0.10646,0.2802 -0.23659,0.2802 -0.13013,0 -0.21942,-0.29757 -0.19844,-0.66127 0.0242,-0.41974 0.196,-0.66134 0.47032,-0.66146 0.53081,-2.3e-4 0.82137,0.97539 0.4803,1.6127 -0.37923,0.70858 -0.31448,0.79438 0.45396,0.60151 0.54326,-0.13635 0.67046,-0.092 0.55455,0.1934 -0.0827,0.20368 -0.2326,0.60845 -0.33305,0.8995 -0.14712,0.42627 -0.12712,0.45199 0.10286,0.13229 0.15702,-0.21828 0.29642,-0.33735 0.30979,-0.26459 0.0134,0.0728 0.0642,0.34066 0.11293,0.59532 0.0506,0.26415 -0.0718,0.46302 -0.28483,0.46302 -0.49086,0 -0.48049,0.43148 0.0149,0.62159 0.45962,0.17638 0.77463,-0.23169 0.57681,-0.74721 -0.077,-0.20067 0.0439,-0.5175 0.2687,-0.70406 0.22479,-0.18656 0.50884,-0.60255 0.63121,-0.92441 0.15229,-0.40055 0.37902,-0.54429 0.71853,-0.4555 0.27281,0.0713 0.65111,-0.0572 0.84066,-0.28556 0.28651,-0.34522 0.27915,-0.41527 -0.0436,-0.41527 -0.21354,0 -0.60376,-0.23812 -0.86715,-0.52917 -0.26339,-0.29104 -0.34364,-0.52916 -0.17834,-0.52916 0.1653,0 0.37243,-0.28641 0.46029,-0.63646 0.0879,-0.35005 0.36772,-0.69085 0.62191,-0.75732 0.2829,-0.074 0.59649,-0.60059 0.80843,-1.35754 0.32779,-1.17077 0.31361,-1.27142 -0.26612,-1.88851 -0.78648,-0.83717 -0.88732,-0.82362 -1.54802,0.20806 -0.30288,0.47294 -0.5527,0.75488 -0.55515,0.62654 -0.002,-0.12835 0.23755,-0.62493 0.53334,-1.10353 0.29579,-0.4786 0.43366,-0.93453 0.30639,-1.01319 -0.32127,-0.19856 -2.23257,3.69342 -2.09495,4.26595 0.0839,0.34906 0.21854,0.23392 0.53867,-0.46067 0.46027,-0.99867 0.60909,-0.72404 0.19618,0.36202 -0.16733,0.44009 -0.15915,0.69178 0.0245,0.75298 0.38292,0.12764 0.48331,2.00843 0.16459,3.08384 -0.32287,1.08943 -0.72128,0.65689 -0.72741,-0.78972 -0.005,-1.20495 -0.86232,-2.35079 -1.75866,-2.35079 -0.36183,0 -0.592,0.10659 -0.51149,0.23686 0.0805,0.13028 -0.0413,0.30887 -0.2706,0.39688 -0.65091,0.24977 -0.95212,0.18914 -0.74281,-0.14953 0.12437,-0.20123 0.0527,-0.25635 -0.20487,-0.15752 -0.22343,0.0857 -0.39618,0.006 -0.39618,-0.18332 0,-0.19272 0.23443,-0.29641 0.55122,-0.2438 0.36799,0.0611 0.30936,-0.0119 -0.17639,-0.21967 -0.40018,-0.17117 -0.72761,-0.40729 -0.72761,-0.52472 0,-0.11743 -0.11906,-0.21351 -0.26458,-0.21351 -0.14552,0 -0.23482,0.13395 -0.19844,0.29766 0.0364,0.16371 -0.10165,0.35855 -0.30674,0.43297 -0.24571,0.0892 -0.32199,0.003 -0.22366,-0.25355 0.11017,-0.28712 -0.0519,-0.38889 -0.6193,-0.38889 -0.42269,0 -0.76853,0.10625 -0.76853,0.23611 0,0.12985 0.13643,0.15178 0.30317,0.0487 0.21632,-0.13369 0.24806,0.0322 0.11079,0.57915 -0.32824,1.3078 -0.77552,1.21386 -0.73661,-0.1547 0.0125,-0.43861 -0.0714,-0.79748 -0.18631,-0.79748 -0.11494,0 -0.22947,1.27342 -0.25449,2.82983 -0.025,1.55641 -0.10162,2.88594 -0.17019,2.95451 -0.0686,0.0686 -0.12469,-2.16437 -0.12469,-4.96211 0,-3.32382 -0.0917,-5.03012 -0.26458,-4.92327 -0.58313,0.36039 -0.26472,10.10304 0.3851,11.78333 0.18323,0.47379 -0.95788,0.64455 -2.53851,0.37986 l -0.96279,-0.16123 0.42801,-0.8416 c 0.53268,-1.04742 0.8355,-10.76349 0.33547,-10.76349 -0.20201,0 -0.30479,1.4597 -0.33066,4.69636 -0.0225,2.81778 -0.11335,4.27301 -0.22704,3.63802 -0.10422,-0.58208 -0.20639,-0.86486 -0.22704,-0.62839 -0.0207,0.23648 -0.11566,0.82054 -0.21114,1.29792 -0.1247,0.62352 -0.0874,0.81472 0.1323,0.67891 0.50422,-0.31163 0.33869,0.70773 -0.2247,1.38372 -0.28213,0.33853 -0.63536,0.53986 -0.78494,0.44741 -0.40826,-0.25232 -0.32734,-0.67066 0.0981,-0.5074 0.56672,0.21747 0.79131,-0.39992 0.33065,-0.90895 -0.27874,-0.30801 -0.33053,-0.57712 -0.16226,-0.84322 0.38087,-0.60231 0.3019,-1.27022 -0.21081,-1.78293 -0.25633,-0.25634 -0.42916,-0.65766 -0.38406,-0.89184 0.0499,-0.25908 -0.15157,-0.48685 -0.51458,-0.58178 -0.80792,-0.21127 -0.99731,0.0476 -0.37025,0.5061 0.49468,0.36172 0.4899,0.37545 -0.13271,0.38113 -1.03233,0.009 -1.8684,0.83831 -2.0949,2.07694 -0.11196,0.61223 -0.14006,1.04966 -0.0625,0.97205 0.0776,-0.0776 0.30736,0.0963 0.51056,0.38639 0.20321,0.29011 0.46188,0.52748 0.57483,0.52748 0.24646,0 0.20411,-0.97163 -0.0536,-1.22933 -0.36617,-0.36617 -0.16779,-1.61173 0.32819,-2.06059 0.44742,-0.40491 0.60158,-0.41775 1.25677,-0.10467 0.42706,0.20406 0.783,0.61066 0.83135,0.94967 0.1049,0.73553 -0.24472,0.76804 -0.6846,0.0637 -0.29712,-0.47575 -1.11974,-0.75375 -1.11974,-0.3784 0,0.0829 0.35684,0.66941 0.79297,1.30331 0.45856,0.6665 0.72557,1.32818 0.63315,1.56902 -0.17654,0.46005 -0.63237,0.56955 -0.63237,0.1519 0,-0.34297 -0.98678,-0.34591 -1.10243,-0.003 -0.0527,0.15608 -0.38119,0.10913 -0.8158,-0.1166 -0.69318,-0.36002 -0.7276,-0.34888 -0.7276,0.23547 0,0.69532 0.31675,1.00731 1.45521,1.43328 l 0.79375,0.29699 -0.8599,-0.1502 c -0.47294,-0.0826 -0.8599,-0.0441 -0.8599,0.0855 0,0.39269 1.05264,1.39383 1.46552,1.39383 0.46929,0 0.52395,0.52583 0.0558,0.53722 -0.1819,0.004 -0.11934,0.1311 0.13904,0.2815 0.25837,0.15041 0.77051,0.23608 1.1381,0.1904 l 0.66833,-0.0831 -0.60894,-0.81745 c -0.33491,-0.44959 -0.75776,-0.76709 -0.93966,-0.70555 -0.43157,0.146 -0.43157,-0.37332 0,-0.56147 0.22692,-0.0989 0.14387,-0.28208 -0.26458,-0.58349 -0.77869,-0.57461 -0.75989,-0.95531 0.0373,-0.75523 0.34793,0.0873 0.71334,0.0281 0.81203,-0.13156 0.0987,-0.15969 0.29222,-0.22064 0.43006,-0.13545 0.13784,0.0852 0.1897,0.25345 0.11525,0.37392 -0.0745,0.12047 0.25102,0.20154 0.72328,0.18015 0.56924,-0.0258 0.83571,0.0746 0.79058,0.29767 -0.0375,0.1851 0.23044,0.45004 0.59531,0.58876 0.62374,0.23715 0.71432,0.43447 0.78054,1.7004 0.0146,0.27996 0.19185,0.5641 0.39378,0.63141 0.24826,0.0828 0.3144,-0.0151 0.20425,-0.30212 -0.0896,-0.23348 -0.0461,-0.4967 0.0967,-0.58494 0.14277,-0.0882 0.22687,-0.008 0.18688,0.17836 -0.0735,0.3424 1.48087,0.70838 3.1023,0.73046 0.7924,0.0108 0.79279,0.01 0.22981,-0.44341 -0.31017,-0.24981 -0.78642,-0.59969 -1.05834,-0.77751 -0.47216,-0.30875 -0.4706,-0.3167 0.0348,-0.17683 0.49352,0.13659 0.49826,0.12096 0.0703,-0.23204 -0.2524,-0.20817 -0.37165,-0.46575 -0.265,-0.5724 0.10665,-0.10665 -0.037,-0.36277 -0.31927,-0.56915 -0.49111,-0.35911 -0.48343,-0.37524 0.1785,-0.37524 h 0.69168 l -0.7734,-0.7734 c -0.42537,-0.42537 -0.77157,-0.99092 -0.76934,-1.25677 0.003,-0.40827 0.0435,-0.42171 0.25782,-0.0865 0.1718,0.26867 0.21169,-0.0732 0.12349,-1.05833 -0.084,-0.93828 -0.0493,-1.26906 0.0978,-0.93119 0.18354,0.42173 0.25524,0.29261 0.36735,-0.66146 0.0766,-0.65201 0.33506,-1.6022 0.57433,-2.11152 0.23927,-0.50932 0.36262,-0.68792 0.27411,-0.39687 -0.0885,0.29104 -0.20518,0.957 -0.25926,1.47991 -0.0541,0.52292 -0.22153,1.27481 -0.37212,1.67087 -0.32608,0.85765 -0.36429,2.97976 -0.0571,3.16963 0.11919,0.0737 0.18201,-0.24673 0.13961,-0.71199 l -0.0771,-0.84592 0.21505,0.81684 c 0.34063,1.29384 0.61826,1.62403 0.85571,1.01768 0.15739,-0.40193 0.20433,-0.41897 0.21894,-0.0794 0.0102,0.23768 0.2687,0.49756 0.57438,0.5775 0.30568,0.0799 0.48604,0.2582 0.40079,0.39614 -0.23709,0.38362 -1.42338,0.5351 -1.7367,0.22177 -0.66426,-0.66426 -0.22337,0.57299 0.50784,1.42512 0.65688,0.76551 0.83014,0.85083 1.05428,0.51918 0.14753,-0.21828 0.27006,-0.65503 0.27229,-0.97055 0.006,-0.79946 0.27187,-1.4107 0.61444,-1.4107 0.19347,0 0.1841,0.10509 -0.0283,0.3175 -0.51488,0.51488 -0.36514,1.511 0.33193,2.20807 0.63566,0.63566 1.39385,0.90826 1.07036,0.38484 -0.0899,-0.14552 0.0221,-0.26458 0.24897,-0.26458 0.22687,0 0.41249,0.16322 0.41249,0.36272 0,0.28866 0.25353,0.31535 1.24184,0.13071 0.68301,-0.1276 1.48668,-0.16396 1.78593,-0.0808 z m -2.28848,-1.05669 c -0.57378,-0.88562 -1.26846,-1.2574 -1.26846,-0.67886 0,0.14553 -0.13751,0.26459 -0.30559,0.26459 -0.18283,0 -0.12969,-0.19436 0.13229,-0.48386 0.53391,-0.58996 0.55525,-0.83906 0.0719,-0.83906 -0.49007,0 -0.73211,1.01877 -0.39271,1.65294 0.32439,0.60613 0.045,1.01728 -0.30994,0.45607 -0.33005,-0.52188 -0.32227,-2.10901 0.0103,-2.10901 0.14552,0 0.26459,-0.11906 0.26459,-0.26458 0,-0.14552 -0.3104,-0.26459 -0.68977,-0.26459 -0.49062,0 -0.64769,-0.10964 -0.54403,-0.37978 0.0802,-0.20888 0.004,-0.43272 -0.17013,-0.49744 -0.21479,-0.08 -0.15578,-0.27597 0.18443,-0.61241 0.27516,-0.27211 0.41696,-0.34591 0.31511,-0.16401 -0.10185,0.1819 -0.0463,0.33073 0.12333,0.33073 0.175,0 0.23771,0.18449 0.14491,0.42633 -0.11707,0.30507 -0.0499,0.38269 0.23627,0.27289 0.21993,-0.0844 0.39988,-0.0466 0.39988,0.0839 0,0.44297 0.80709,1.0472 1.19828,0.89709 0.53506,-0.20532 0.49079,-0.57135 -0.0637,-0.52636 -0.25507,0.0207 -0.47444,-0.16776 -0.50223,-0.43146 -0.0275,-0.26116 0.003,-0.30297 0.0699,-0.0946 0.0747,0.2339 0.32761,0.31917 0.67631,0.22798 0.47652,-0.12461 0.53373,-0.0566 0.39583,0.47074 -0.0887,0.33902 -0.0182,1.07943 0.15665,1.64535 0.30661,0.99258 0.35058,1.02298 1.24389,0.86 0.99713,-0.18191 0.85853,0.20259 -0.18675,0.51807 -0.47087,0.14212 -0.7009,-0.005 -1.19063,-0.76073 z m -7.4337,0.20588 c 0.15402,-0.40139 0.76747,-0.47673 0.98717,-0.12124 0.0797,0.12888 -0.14058,0.28889 -0.4894,0.35557 -0.45369,0.0867 -0.59538,0.02 -0.49777,-0.23433 z m 8.28191,-0.37118 c 0,-0.15411 0.11906,-0.20662 0.26458,-0.11668 0.14552,0.0899 0.26459,0.21603 0.26459,0.2802 0,0.0642 -0.11907,0.11667 -0.26459,0.11667 -0.14552,0 -0.26458,-0.12608 -0.26458,-0.28019 z m -5.40188,-0.41913 c -0.25207,-0.6569 0.0258,-0.7466 0.36267,-0.11709 0.16253,0.3037 0.1849,0.55183 0.0497,0.55183 -0.13507,0 -0.32065,-0.19563 -0.41241,-0.43474 z m -3.2316,-0.0158 c 0.10227,-0.10228 -0.26484,-0.45885 -0.8158,-0.79239 -0.80204,-0.48554 -0.88872,-0.60671 -0.43476,-0.60779 0.31186,-8e-4 0.63554,0.17723 0.7193,0.39552 0.0838,0.21828 0.33089,0.39687 0.54917,0.39687 0.24408,0 0.33824,-0.1528 0.24458,-0.39687 -0.0838,-0.21829 -0.0205,-0.39688 0.1406,-0.39688 0.16109,0 0.29289,0.23812 0.29289,0.52916 0,0.29105 0.11906,0.52917 0.26458,0.52917 0.14552,0 0.26459,0.11906 0.26459,0.26458 0,0.14553 -0.3175,0.26459 -0.70556,0.26459 -0.38805,0 -0.62187,-0.0837 -0.51959,-0.18596 z m 10.53848,-1.18988 c -0.17462,-0.17462 -0.3175,-0.58142 -0.3175,-0.90399 0,-0.32257 -0.13614,-0.63187 -0.30252,-0.68733 -0.22256,-0.0742 -0.21534,-0.26376 0.0273,-0.71716 0.26823,-0.50118 0.26296,-0.6587 -0.0282,-0.84319 -0.50801,-0.32192 -0.0294,-0.2901 0.58539,0.0389 0.28147,0.15064 0.51177,0.46287 0.51177,0.69386 0,0.3433 0.0725,0.35983 0.39688,0.0906 0.32972,-0.27364 0.39687,-0.242 0.39687,0.18705 0,0.36539 -0.17411,0.51028 -0.59531,0.49542 -0.60375,-0.0213 -0.64632,0.13827 -0.365,1.36805 0.15659,0.68453 0.12519,0.71269 -0.30969,0.27781 z m 0.21167,-2.32833 c 0,-0.14552 -0.11907,-0.26458 -0.26459,-0.26458 -0.14552,0 -0.26458,0.11906 -0.26458,0.26458 0,0.14552 0.11906,0.26458 0.26458,0.26458 0.14552,0 0.26459,-0.11906 0.26459,-0.26458 z m -7.40834,0.62384 c 0,-0.14197 0.18517,-0.48923 0.41147,-0.77171 0.38798,-0.48427 0.39349,-0.47582 0.0965,0.14787 -0.38572,0.8099 -0.50793,0.96 -0.50793,0.62384 z m -1.03704,-1.75886 c -0.0249,-0.86196 0.78719,-2.57084 1.48073,-3.11601 0.44944,-0.3533 0.45542,-0.34498 0.0876,0.12201 -0.36977,0.4694 -0.35299,0.48848 0.26458,0.30079 0.52861,-0.16066 0.47572,-0.0747 -0.26666,0.43315 -0.68021,0.46537 -1.00819,0.94742 -1.23548,1.81588 -0.24579,0.93914 -0.31381,1.0305 -0.33073,0.44418 z m 5.92096,-0.2055 c -0.0959,-0.1552 -0.11766,-0.33893 -0.0483,-0.40828 0.0693,-0.0694 0.1966,0.0576 0.28277,0.28218 0.17891,0.46623 0.0264,0.54823 -0.23447,0.1261 z m -3.16412,-2.62823 c -0.0899,-0.14552 -0.0374,-0.26458 0.11667,-0.26458 0.15411,0 0.2802,0.11906 0.2802,0.26458 0,0.14552 -0.0525,0.26458 -0.11668,0.26458 -0.0642,0 -0.19026,-0.11906 -0.28019,-0.26458 z m -1.5875,-0.79375 c 0.26338,-0.29104 0.53842,-0.52917 0.61118,-0.52917 0.0728,0 -0.0832,0.23813 -0.3466,0.52917 -0.26339,0.29104 -0.53842,0.52917 -0.61118,0.52917 -0.0728,0 0.0832,-0.23813 0.3466,-0.52917 z m 8.56502,10.12607 c 0.23924,0.23924 0.43465,0.23495 0.84038,-0.0184 0.37064,-0.23146 0.67681,-0.25086 1.0243,-0.0649 0.4524,0.24212 0.46919,0.2082 0.19235,-0.38876 -0.16682,-0.35972 -0.49893,-0.65496 -0.73802,-0.65609 -0.23909,-0.001 -0.50128,-0.17555 -0.58264,-0.38757 -0.11479,-0.29912 -0.35831,-0.19926 -1.08665,0.44555 -1.00523,0.88997 -1.25197,1.44915 -0.45007,1.01998 0.338,-0.18089 0.58473,-0.16541 0.80035,0.0502 z m 10.70546,-0.0683 c 0.90358,-0.003 1.24686,-0.10066 1.1699,-0.33434 -0.0599,-0.1819 -0.36363,-0.36827 -0.67495,-0.41416 -0.47407,-0.0699 -0.51766,-0.1609 -0.26825,-0.56026 0.45517,-0.72884 0.0809,-1.34069 -0.82014,-1.34069 -0.43254,0 -0.86391,0.12535 -0.95859,0.27856 -0.0947,0.1532 -0.30806,0.23324 -0.47416,0.17787 -0.1661,-0.0554 -0.45285,0.19009 -0.63721,0.54545 -0.71314,1.37457 -0.25411,1.47863 1.17694,0.2668 l 1.00139,-0.84799 -0.78642,0.85771 c -0.43253,0.47174 -1.08303,0.93216 -1.44556,1.02315 -0.61181,0.15355 -0.62183,0.18047 -0.13962,0.37485 0.28573,0.11519 0.75764,0.15705 1.04869,0.093 0.29104,-0.064 1.10463,-0.118 1.80798,-0.11999 z m -0.42389,-1.61232 c 0.0936,-0.35777 0.21349,-0.47771 0.27954,-0.27955 0.0636,0.19088 -0.0101,0.47286 -0.16386,0.62661 -0.19634,0.19634 -0.23077,0.093 -0.11568,-0.34706 z m -28.50631,1.01167 c 0.004,-0.11009 -0.30587,-0.67392 -0.68906,-1.25296 -0.38319,-0.57904 -0.79881,-1.44146 -0.92359,-1.9165 -0.18351,-0.69857 -0.19647,-0.63606 -0.0678,0.32691 0.0875,0.65485 0.1407,1.58239 0.11822,2.06121 -0.0225,0.47883 0.0233,0.97439 0.10171,1.10126 0.1634,0.26439 1.44897,-0.0172 1.46053,-0.31992 z m -0.71773,-0.26286 c -0.45072,-0.58278 -0.65799,-1.14419 -0.22556,-0.61096 0.22904,0.28244 0.56529,0.60804 0.74722,0.72356 0.21629,0.13733 0.22752,0.21143 0.0324,0.21408 -0.16408,0.002 -0.41343,-0.14478 -0.55411,-0.32668 z m 5.47904,0.12299 c -0.0124,-0.64892 -0.37719,-1.37976 -0.6887,-1.37976 -0.43947,0 -0.47357,0.31579 -0.0769,0.71243 0.20908,0.20907 0.20353,0.44898 -0.02,0.86669 -0.286,0.5344 -0.26804,0.55562 0.24007,0.28368 0.30206,-0.16165 0.54757,-0.37902 0.54558,-0.48304 z m 19.92028,0.45654 c 1.38338,-0.38416 1.05889,-0.65318 -0.88023,-0.72976 -0.90181,-0.0356 -1.89276,-0.20798 -2.20211,-0.38302 -0.52577,-0.29752 -0.49718,-0.32717 0.4385,-0.45475 0.55052,-0.0751 1.00718,-0.24223 1.01479,-0.37148 0.0273,-0.4639 -0.64238,-0.62578 -1.55096,-0.37491 -1.04304,0.28799 -1.56636,-0.006 -1.29037,-0.72543 0.11819,-0.30801 0.37515,-0.4058 0.83519,-0.31786 0.95848,0.18323 1.07299,-0.2577 0.26211,-1.0092 -0.51558,-0.47782 -0.65826,-0.8084 -0.53658,-1.24321 0.15932,-0.56935 0.14482,-0.56667 -0.37412,0.0692 -0.29693,0.36381 -0.54252,0.74702 -0.54575,0.8516 -0.003,0.10457 -0.16056,0.13078 -0.3496,0.0582 -0.20281,-0.0778 -0.58936,0.30519 -0.94297,0.93434 -0.32959,0.58643 -0.47258,1.06624 -0.31775,1.06624 0.15484,0 0.28989,-0.14883 0.30011,-0.33073 0.0102,-0.1819 0.13174,-0.0926 0.27002,0.19844 0.23725,0.49936 0.24523,0.49633 0.14168,-0.0538 -0.0604,-0.32066 0.0387,-0.78596 0.22003,-1.034 0.28442,-0.38897 0.34918,-0.27875 0.47095,0.80157 0.16265,1.44304 1.14614,2.67108 2.44066,3.04754 1.10362,0.32095 1.44408,0.32109 2.5964,0.001 z m 8.92291,-0.0504 c 1e-5,-0.20398 -0.40898,-0.29392 -0.99218,-0.21819 -0.46682,0.0606 -0.41268,-0.49457 0.0661,-0.67832 0.63233,-0.24265 0.45986,-0.62485 -0.28198,-0.62485 -1.02796,0 -1.7024,-0.47017 -1.7024,-1.18678 0,-0.35145 0.20836,-0.76036 0.46302,-0.90869 0.41351,-0.24085 0.39936,-0.27054 -0.13229,-0.27773 -0.44093,-0.006 -0.59749,0.14634 -0.60373,0.58727 -0.008,0.58042 -0.0181,0.58246 -0.39687,0.0817 -0.37182,-0.49159 -0.38846,-0.48234 -0.38846,0.21583 0,0.40118 0.11688,0.94782 0.25974,1.21475 0.19816,0.37028 0.15446,0.52572 -0.18439,0.65575 -0.80419,0.3086 1.44407,1.43217 2.76387,1.38125 0.62123,-0.024 1.12952,-0.13287 1.12952,-0.24201 z m -3.17499,-0.72761 c -0.23847,-0.1541 -0.2711,-0.25809 -0.0818,-0.26053 0.17331,-0.002 0.3887,0.11501 0.47863,0.26053 0.20302,0.32849 0.11142,0.32849 -0.39687,0 z m 0.66333,-0.26155 c -0.0927,-0.14998 0.0135,-0.19434 0.24897,-0.10398 0.45837,0.17589 0.54223,0.36553 0.16165,0.36553 -0.13694,0 -0.32172,-0.1177 -0.41062,-0.26155 z m -27.41538,0.69353 c 0.22827,-0.27505 0.20502,-0.44079 -0.097,-0.69143 -0.21847,-0.18132 -0.33197,-0.43524 -0.25223,-0.56428 0.0798,-0.12903 -0.0931,-0.2346 -0.38417,-0.2346 -0.7466,0 -0.93079,0.43978 -0.25789,0.61575 0.41174,0.10767 0.52321,0.29179 0.41867,0.69154 -0.16289,0.62287 0.1299,0.71645 0.57261,0.18302 z m 17.49163,0.26188 c 0,-0.0549 -0.17859,-0.24811 -0.39687,-0.42927 -0.32505,-0.26976 -0.39688,-0.25168 -0.39688,0.0999 0,0.2361 0.17859,0.42927 0.39688,0.42927 0.21828,0 0.39687,-0.045 0.39687,-0.0999 z m -1.38432,-1.48761 c -0.18176,-0.29104 -0.43547,-0.52916 -0.5638,-0.52916 -0.12834,0 -0.10073,0.15978 0.0614,0.35507 0.16207,0.19529 0.21634,0.43342 0.12059,0.52917 -0.0958,0.0958 0.0253,0.17409 0.26912,0.17409 0.37698,0 0.39383,-0.0791 0.11274,-0.52917 z m 6.24641,-0.0622 c 0.46798,-0.7419 0.0565,-0.76606 -1.71239,-0.10055 l -1.69449,0.63752 1.56416,-0.0477 c 1.13584,-0.0346 1.64044,-0.1686 1.84272,-0.48929 z m -22.94879,-0.467 c 0.21496,0 0.31726,-0.11906 0.22733,-0.26459 -0.0899,-0.14552 -0.50995,-0.26458 -0.93336,-0.26458 -0.58821,0 -0.73252,0.0972 -0.6117,0.41208 0.087,0.22665 0.3311,0.34571 0.5425,0.26459 0.21141,-0.0811 0.56026,-0.1475 0.77523,-0.1475 z m 21.80401,-0.13909 c 0.42933,-0.22202 0.78061,-0.56647 0.78061,-0.76544 0,-0.19897 0.20836,-0.44682 0.46302,-0.55077 0.42505,-0.1735 0.41962,-0.20685 -0.0661,-0.40659 -0.80485,-0.33095 -0.79632,-0.33529 -1.83792,0.93585 -1.0517,1.28346 -0.82411,1.55464 0.66044,0.78695 z m -0.28561,-0.63993 c 0.15142,-0.28293 0.40608,-0.59525 0.56592,-0.69403 0.15983,-0.0988 0.086,0.13271 -0.16415,0.51443 -0.52959,0.80827 -0.80383,0.93086 -0.40177,0.1796 z m 2.84644,0.0686 c 0.0514,-0.15427 -0.13684,-0.34073 -0.41836,-0.41435 -0.47698,-0.12474 -0.51673,-0.0245 -0.32377,0.81613 0.0441,0.19197 0.65434,-0.13842 0.74213,-0.40178 z m -5.94237,0.008 c -0.17914,-0.0725 -0.53632,-0.0769 -0.79375,-0.01 -0.25744,0.0671 -0.11087,0.12638 0.32569,0.13178 0.43656,0.005 0.64719,-0.0495 0.46806,-0.12197 z m 2.56534,-0.33822 c 0.15064,-0.28148 0.26867,-0.90655 0.26228,-1.38906 l -0.0116,-0.87729 -0.34952,0.92604 c -0.19224,0.50932 -0.43788,1.1344 -0.54586,1.38906 -0.27114,0.63944 0.2995,0.59629 0.64472,-0.0487 z m 5.30097,0.17371 c 0,-0.18594 -0.23812,-0.54196 -0.52916,-0.79116 -0.50809,-0.43505 -0.52917,-0.42773 -0.52917,0.18373 0,0.56987 0.27241,0.86277 0.8599,0.92461 0.10914,0.0115 0.19843,-0.13124 0.19843,-0.31718 z m -6.35,-0.42737 c 0,-0.27547 0.1786,-0.56939 0.39688,-0.65316 0.56026,-0.21499 0.49258,-0.61132 -0.13229,-0.77473 -0.3166,-0.0828 -0.52917,-0.36089 -0.52917,-0.69232 0,-0.66513 -0.21411,-0.69214 -1.01878,-0.12852 l -0.60735,0.4254 0.57345,0.61042 c 0.39168,0.41692 0.51796,0.78529 0.39837,1.16209 -0.13894,0.43775 -0.0621,0.55168 0.3719,0.55168 0.3603,0 0.54699,-0.17095 0.54699,-0.50086 z m 4.5881,-0.80369 c -0.26788,-0.25444 -1.67768,-1.7615 -3.13289,-3.34902 -1.45521,-1.58752 -3.30915,-3.60092 -4.11987,-4.47423 -0.81072,-0.8733 -3.12564,-3.4333 -5.14427,-5.68887 -2.01862,-2.25557 -4.83788,-5.33912 -6.26502,-6.85233 l -2.5948,-2.75129 v 5.05809 c 0,4.70339 0.0325,5.04657 0.46302,4.89389 0.80957,-0.28711 1.35291,-0.9075 1.25231,-1.42991 -0.0536,-0.27827 0.0118,-0.50595 0.14533,-0.50595 0.27009,0 0.0485,-1.49745 -0.31318,-2.11667 -0.15736,-0.26938 -0.18345,-0.18107 -0.0812,0.27491 0.0828,0.36949 0.008,1.02433 -0.16608,1.45521 -0.17418,0.43089 -0.33947,0.99173 -0.36732,1.24632 -0.0685,0.62643 -0.40076,0.92634 -0.41535,0.37495 -0.0909,-3.43515 -0.0957,-7.8493 -0.008,-7.8493 0.17228,0 3.30372,3.29389 5.68773,5.9828 1.17565,1.32601 3.79584,4.24304 5.82263,6.48229 2.0268,2.23925 3.07293,3.4848 2.32473,2.76788 -1.14867,-1.10066 -1.3879,-1.2317 -1.5374,-0.84212 -0.0974,0.25376 -0.0422,0.59626 0.12267,0.7611 0.16484,0.16484 0.29971,0.66881 0.29971,1.11992 0,0.45112 0.14288,0.96309 0.3175,1.13771 0.45738,0.45738 1.99314,0.39669 2.26524,-0.0895 0.18368,-0.32822 0.51918,-0.10151 1.73294,1.17098 0.82783,0.86791 1.50515,1.77247 1.50515,2.01014 0,0.23767 0.10558,0.36688 0.23461,0.28714 0.31413,-0.19415 0.87217,0.50079 0.62299,0.77584 -0.10787,0.11908 -0.0533,0.13458 0.12123,0.0344 0.18749,-0.10756 0.56645,0.15579 0.92604,0.64352 0.47635,0.6461 0.62828,0.72875 0.69886,0.38015 0.0496,-0.24499 -0.12899,-0.65362 -0.39688,-0.90807 z m -2.28596,-0.44248 c 0.1033,-0.3099 -0.61508,-1.35171 -0.80193,-1.16297 -0.2415,0.24393 0.15018,1.61022 0.43445,1.51546 0.15467,-0.0516 0.32004,-0.21018 0.36748,-0.35249 z m -23.73339,-0.0225 c 0,-0.29759 -1.17378,-1.93083 -1.38906,-1.93279 -0.24008,-0.002 -0.25436,0.33835 -0.0378,0.90259 0.0883,0.23019 0.34104,0.41852 0.56157,0.41852 0.32641,0 0.33972,0.0738 0.0716,0.39687 -0.27518,0.33158 -0.23698,0.39688 0.23219,0.39688 0.30886,0 0.56156,-0.0819 0.56156,-0.18207 z m 26.45834,-4.58043 c 0,-2.99861 -0.098,-4.7625 -0.26459,-4.7625 -0.16453,0 -0.26458,1.48828 -0.26458,3.93567 0,3.54938 0.15692,5.58933 0.42995,5.58933 0.0546,0 0.0992,-2.14313 0.0992,-4.7625 z m -3.9467,3.742 c 0.14955,-1.15401 0.0993,-1.41876 -0.31067,-1.6382 -0.25674,-0.1374 -0.65402,-0.17798 -0.88284,-0.0902 -0.48879,0.18757 -0.57244,-0.31858 -0.0853,-0.51623 0.24993,-0.10142 0.23524,-0.20049 -0.0601,-0.40554 -0.27989,-0.19432 -0.5111,-0.16249 -0.81458,0.11215 -1.00692,0.91125 -2.63607,0.0434 -2.75493,-1.46757 -0.0391,-0.49713 -0.19295,-0.94448 -0.34188,-0.99413 -0.18353,-0.0612 -0.18046,-0.38452 0.01,-1.00356 0.29886,-0.97378 0.0691,-1.55358 -0.35908,-0.90609 -0.14156,0.21407 -0.3306,0.72687 -0.42011,1.13956 -0.0895,0.41269 -0.3288,0.81407 -0.53177,0.89196 -0.20297,0.0779 -0.54629,0.48437 -0.76293,0.9033 -0.41342,0.79948 -0.33119,0.87761 0.87648,0.83276 0.42023,-0.0156 0.42781,0.51976 0.0132,0.93434 -0.24694,0.24694 -0.12024,0.3175 0.57017,0.3175 0.84321,0 0.86574,-0.0242 0.4498,-0.48385 -0.24084,-0.26612 -0.43789,-0.74237 -0.43789,-1.05834 0,-0.69231 -0.39512,-0.74803 -0.79034,-0.11145 -0.2628,0.42327 -0.28073,0.41759 -0.20889,-0.0661 0.0468,-0.31482 0.31864,-0.56341 0.67121,-0.61371 0.50522,-0.0721 0.59261,0.0372 0.59261,0.7411 0,0.69778 0.15366,0.89527 0.99218,1.27517 l 0.99219,0.44952 -2.11574,0.0785 c -1.16366,0.0431 -2.22996,0.19267 -2.36956,0.33228 -0.16205,0.16204 -0.0189,0.24926 0.39595,0.24121 0.81549,-0.0158 2.9527,0.46685 2.2505,0.50826 -0.38266,0.0226 -0.43893,0.10744 -0.21781,0.32856 0.18297,0.18297 0.58666,0.22236 1.0451,0.10197 0.6828,-0.1793 0.70151,-0.21468 0.21781,-0.41182 -0.50407,-0.20545 -0.50112,-0.21655 0.0623,-0.23427 0.32533,-0.0102 1.11228,-0.15788 1.74877,-0.32811 1.05649,-0.28257 1.21091,-0.25954 1.77348,0.26458 0.50653,0.4719 0.53669,0.5741 0.16946,0.5741 -0.44522,0 -0.58909,0.29865 -0.28861,0.59913 0.18293,0.18293 0.88953,-0.0444 0.92223,-0.29671 z m 4.92581,-0.009 c 0.37385,-0.59862 0.14059,-0.938 -0.35946,-0.523 -0.38026,0.31559 -0.48687,1.02364 -0.15413,1.02364 0.11052,0 0.34163,-0.22529 0.51359,-0.50064 z m -7.18982,-0.77118 c -0.0815,-0.0815 -0.29495,-1.7e-4 -0.47443,0.18066 -0.25936,0.2613 -0.22897,0.29169 0.14811,0.14811 0.26094,-0.0994 0.40778,-0.2473 0.32632,-0.32877 z m -8.53981,-0.49091 c -0.1819,-0.0734 -0.47956,-0.0734 -0.66146,0 -0.1819,0.0734 -0.0331,0.13346 0.33073,0.13346 0.3638,0 0.51263,-0.0601 0.33073,-0.13346 z m -14.93611,-0.8239 c -0.29332,-0.36101 -0.27709,-0.39795 0.11097,-0.25259 0.71699,0.26859 0.76228,-0.17847 0.052,-0.51366 -0.55214,-0.26057 -0.63887,-0.23598 -0.63887,0.18114 0,0.73949 0.29153,1.33423 0.56974,1.16229 0.14659,-0.0906 0.10783,-0.32893 -0.0939,-0.57718 z m 16.6382,0.15577 c -0.0845,-0.21106 -0.14716,-0.14837 -0.15985,0.15986 -0.0115,0.27891 0.051,0.43518 0.13896,0.34726 0.0879,-0.0879 0.0973,-0.31612 0.0209,-0.50712 z m -2.4297,0.0496 c 0.0988,-0.15979 -0.26183,-0.26458 -0.91042,-0.26458 -0.59068,0 -1.07395,0.11906 -1.07395,0.26458 0,0.14552 0.40969,0.26458 0.91042,0.26458 0.50074,0 0.98402,-0.11906 1.07395,-0.26458 z m -9.26104,-1.54402 c -0.18921,-0.18922 -0.92542,0.19234 -0.92542,0.47963 0,0.17413 0.18983,0.15658 0.51714,-0.0478 0.28442,-0.17763 0.46815,-0.37194 0.40828,-0.4318 z m 11.70828,-0.13141 c -0.0363,-0.48493 -0.19758,-0.8818 -0.35842,-0.88195 -0.20917,-1.8e-4 -0.21536,0.25085 -0.0217,0.88169 0.34349,1.11919 0.46392,1.11928 0.38017,2.6e-4 z m -14.49159,0.28637 c -0.003,-0.1819 -0.24132,-0.84975 -0.52917,-1.4841 -0.28784,-0.63436 -0.52335,-1.34278 -0.52335,-1.57427 0,-0.31178 -0.0772,-0.34373 -0.29766,-0.12325 -0.44148,0.44149 -0.36054,1.7053 0.13229,2.06567 0.61478,0.44954 0.53179,0.72605 -0.11414,0.38036 -0.29925,-0.16016 -0.6598,-0.5513 -0.80121,-0.86921 -0.23615,-0.53086 -0.24363,-0.52406 -0.0917,0.0834 0.091,0.36381 0.17939,0.86108 0.19645,1.10506 0.0171,0.24398 0.0948,0.4077 0.17277,0.36383 0.078,-0.0439 0.37986,0.016 0.67091,0.13313 0.78846,0.31719 1.19132,0.28977 1.18481,-0.0807 z m 2.30208,-1.06874 c 0.10438,-0.16889 0.009,-0.21554 -0.24277,-0.11888 -0.50613,0.19422 -1.18354,-0.29583 -1.30358,-0.94302 -0.10772,-0.58085 -0.58553,-0.63096 -0.70174,-0.0736 -0.14464,0.69368 0.78149,1.66096 1.46516,1.53027 0.33613,-0.0643 0.68845,-0.24191 0.78293,-0.39478 z m 0.87873,0.22446 c 0,-0.20969 -0.14883,-0.46691 -0.33073,-0.57159 -0.1819,-0.10468 -0.24246,-0.0929 -0.13459,0.0262 0.10788,0.11909 0.0635,0.3763 -0.0985,0.57159 -0.22593,0.27222 -0.19453,0.35507 0.13459,0.35507 0.2361,0 0.42927,-0.17157 0.42927,-0.38126 z m 25.14251,-1.67295 c -0.34668,-0.28699 -0.31016,-0.32805 0.25749,-0.28958 1.11132,0.0753 1.5875,-0.0238 1.5875,-0.33035 0,-0.16283 -0.1928,-0.21891 -0.43415,-0.12629 -0.23879,0.0916 -0.71504,-0.0174 -1.05834,-0.24238 -0.3433,-0.22493 -0.64102,-0.37646 -0.66161,-0.33673 -0.11802,0.22775 -0.13592,3.022 -0.0206,3.2206 0.076,0.13087 0.27213,-0.16679 0.43592,-0.66146 0.245,-0.73997 0.22618,-0.95867 -0.10618,-1.23381 z m 4.56996,1.64112 c 0.29472,-0.11309 0.33806,-0.36544 0.18179,-1.05833 -0.1154,-0.51167 -0.10161,-0.90983 0.0315,-0.90983 0.1302,0 0.23672,-0.17486 0.23672,-0.38857 0,-0.50664 -0.69352,-0.2428 -0.89564,0.34072 -0.0847,0.2446 -0.26897,0.70654 -0.40943,1.02654 -0.20053,0.45683 -0.17636,0.5515 0.11249,0.44065 0.20234,-0.0776 0.41817,-0.39899 0.47962,-0.71411 0.0978,-0.50133 0.11624,-0.48862 0.14776,0.10175 0.0198,0.37108 -0.10684,0.81756 -0.28147,0.99218 -0.34481,0.34482 -0.21058,0.40201 0.39664,0.169 z m -30.37562,-1.16907 c 0.0914,-0.28811 0.0435,-0.73459 -0.10642,-0.99219 -0.25213,-0.43307 -0.27328,-0.43418 -0.28072,-0.0147 -0.004,0.24955 -0.24617,0.58116 -0.53721,0.73692 -0.72388,0.38742 -0.66529,0.79375 0.11446,0.79375 0.40907,0 0.70422,-0.1909 0.80989,-0.52382 z m 0.38299,-1.63044 c -0.17795,-0.42961 -0.65805,-0.95409 -1.06688,-1.1655 -0.97916,-0.50634 -1.10691,-0.48545 -0.77894,0.12737 0.41732,0.77975 0.32652,1.00402 -0.13798,0.34085 -0.22653,-0.32342 -0.63149,-0.58804 -0.8999,-0.58804 -0.41525,0 -0.37458,0.12145 0.27271,0.81437 0.4184,0.44791 0.73406,0.93904 0.70146,1.09141 -0.13208,0.61736 0.55149,0.4489 0.70795,-0.17446 0.0929,-0.37014 0.28151,-0.67299 0.41914,-0.67299 0.33868,0 0.78988,0.88517 0.83405,1.63626 l 0.036,0.6127 0.11795,-0.62043 c 0.0649,-0.34124 -0.0276,-0.97193 -0.20559,-1.40154 z m -2.89889,0.50062 c 0.002,-0.25466 -0.18728,-0.46302 -0.42113,-0.46302 -0.27901,0 -0.36997,0.14388 -0.26459,0.41851 0.0883,0.23019 0.16243,0.61714 0.16466,0.8599 0.004,0.38166 0.0387,0.38768 0.26053,0.0445 0.14106,-0.21828 0.2583,-0.60523 0.26053,-0.85989 z m 10.85197,0.59531 c 0,-0.51583 0.0481,-0.66518 0.31948,-0.99219 0.18689,-0.22519 0.18761,-0.33073 0.002,-0.33073 -0.14971,0 -0.22071,-0.26789 -0.15777,-0.59531 l 0.11443,-0.59531 -0.29945,0.56735 c -0.1647,0.31205 -0.55477,0.69094 -0.86681,0.84199 -0.5579,0.27006 -0.55655,0.27494 0.0809,0.29254 0.50418,0.0139 0.57768,0.0885 0.33073,0.33541 -0.43212,0.43212 -0.39904,0.74083 0.0794,0.74083 0.21828,0 0.39687,-0.11906 0.39687,-0.26458 z m 1.21658,-0.8537 c 0.27677,-0.61506 0.94969,-1.80971 1.4954,-2.65476 0.9696,-1.50151 1.25181,-2.23947 0.73401,-1.91946 -0.43919,0.27143 -2.05729,2.84765 -2.63364,4.19309 -0.62085,1.4493 -0.63166,1.49941 -0.32337,1.49941 0.12342,0 0.45084,-0.50323 0.7276,-1.11828 z m 2.39948,-1.19942 c 0.90888,-1.90635 1.04213,-2.37508 0.75872,-2.66881 -0.28543,-0.29582 -0.50009,-0.11615 -1.26446,1.05833 -1.08139,1.6616 -1.78741,3.07251 -1.78741,3.57196 0,0.19592 0.26789,0.35506 0.59532,0.35363 0.48702,-0.002 0.79586,-0.42326 1.69783,-2.31511 z m -14.95011,0.71001 0.88301,-0.15248 -0.75979,-0.31622 c -0.58871,-0.24503 -0.8568,-0.24513 -1.19063,-4.5e-4 -0.23696,0.17368 0.0893,-0.18009 0.725,-0.78616 0.8366,-0.7976 1.11748,-1.24863 1.01696,-1.63302 -0.0764,-0.29208 -0.0372,-0.53106 0.0872,-0.53106 0.12433,0 0.10153,-0.35719 -0.0506,-0.79375 -0.17667,-0.50678 -0.45866,-0.79375 -0.77999,-0.79375 -0.27681,0 -0.51149,0.0893 -0.52151,0.19844 -0.01,0.10914 -0.0575,0.55562 -0.10552,0.99219 -0.048,0.43656 -0.0296,0.64418 0.0408,0.46137 0.0705,-0.18281 0.22591,-0.27194 0.34543,-0.19807 0.11952,0.0739 0.15131,-0.13375 0.0706,-0.46138 -0.0807,-0.32762 -0.0651,-0.52175 0.0346,-0.43141 0.31311,0.28372 0.50374,2.61386 0.21384,2.61386 -0.1471,0 -0.21571,-0.26789 -0.15246,-0.59531 0.11406,-0.59056 0.11296,-0.59077 -0.13853,-0.0271 -0.32716,0.73335 -0.81975,1.03723 -0.81975,0.50571 0,-0.22687 -0.0943,-0.41249 -0.20947,-0.41249 -0.11522,0 -0.22223,0.85871 -0.2378,1.90824 -0.0255,1.72048 0.006,1.84414 0.31865,1.25677 0.22432,-0.42117 0.65912,-0.70537 1.22999,-0.80395 z m 7.62988,0.68165 c 0,-0.21828 -0.11533,-0.39687 -0.25628,-0.39687 -0.14095,0 -0.18775,0.17859 -0.10398,0.39687 0.0838,0.21828 0.19908,0.39688 0.25628,0.39688 0.0572,0 0.10398,-0.1786 0.10398,-0.39688 z m 2.17889,0.20964 c -0.32958,-0.0633 -0.53091,-0.22573 -0.44741,-0.36084 0.0835,-0.13512 -0.21238,-0.24567 -0.65753,-0.24567 -0.77237,0 -1.01434,0.236 -0.63298,0.61736 0.097,0.097 0.66256,0.16017 1.25677,0.14036 0.61528,-0.0205 0.82241,-0.0856 0.48115,-0.15121 z m 15.81823,-3.38464 c -0.0758,-0.14552 -0.1747,0.1819 -0.21986,0.72761 -0.0452,0.5457 -0.20673,0.99218 -0.35904,0.99218 -0.1523,0 -0.22113,-0.14882 -0.15293,-0.33072 0.0682,-0.18191 0.0189,-0.56886 -0.10942,-0.8599 -0.2102,-0.47658 -0.22178,-0.46851 -0.11649,0.0813 0.0746,0.38961 0.005,0.57155 -0.19301,0.50295 -0.17434,-0.0605 -0.27357,-0.47216 -0.22684,-0.94116 0.0491,-0.49287 -0.0393,-0.83367 -0.21627,-0.83367 -0.18893,0 -0.231,0.21957 -0.11405,0.59532 l 0.18528,0.59531 -0.58883,-0.52621 c -0.32386,-0.28941 -0.70486,-0.76566 -0.84667,-1.05833 -0.19449,-0.40139 -0.13212,-0.37616 0.25387,0.10268 0.61549,0.76356 0.90532,0.30057 0.51786,-0.82727 -0.13635,-0.3969 -0.20743,-1.42898 -0.15796,-2.29352 0.0715,-1.24986 0.021,-1.51443 -0.24684,-1.29146 -0.25566,0.21287 -0.29664,0.1758 -0.17013,-0.15388 0.0917,-0.23887 0.33251,-0.4343 0.53523,-0.4343 0.62258,0 0.4076,-0.52739 -0.22675,-0.55625 -0.40589,-0.0185 -0.30273,-0.0959 0.32419,-0.24336 0.50573,-0.11895 0.98703,-0.17454 1.06956,-0.12354 0.0825,0.051 0.16933,-0.16324 0.1929,-0.47609 0.0236,-0.31286 -0.10055,-0.65983 -0.27581,-0.77105 -0.42921,-0.27238 -2.07099,0.0484 -2.51372,0.49111 -0.19595,0.19594 -0.52636,0.35626 -0.73425,0.35626 -0.20788,0 -0.37797,0.10255 -0.37797,0.22789 0,0.12535 0.32742,0.16568 0.7276,0.0897 0.65321,-0.12412 0.69048,-0.0933 0.36448,0.30127 -0.19972,0.24174 -0.57393,0.43952 -0.83159,0.43952 -0.5169,0 -0.86043,-0.59772 -0.5517,-0.95994 0.10813,-0.12688 0.14614,-1.27248 0.0845,-2.54579 -0.10091,-2.0833 -0.16396,-2.3151 -0.62977,-2.3151 -0.2847,0 -0.44726,-0.11386 -0.36125,-0.25303 0.086,-0.13916 0.35069,-0.17846 0.58819,-0.0873 0.29047,0.11147 0.3686,0.0634 0.23871,-0.14672 -0.23122,-0.37413 -1.79688,-0.31555 -2.07248,0.0775 -0.12713,0.18133 -0.19578,0.16283 -0.19843,-0.0535 -0.002,-0.1935 -0.34875,-0.33073 -0.83478,-0.33073 -0.47135,0 -0.99362,-0.20031 -1.20725,-0.46302 -0.27398,-0.33693 -0.41402,-0.37296 -0.51424,-0.13229 -0.0757,0.1819 -0.63381,0.34664 -1.24015,0.36608 l -1.10243,0.0353 1.19063,0.22124 c 0.65484,0.12168 1.62546,0.29603 2.15692,0.38745 0.74135,0.12751 0.99417,0.31201 1.08603,0.79251 0.0658,0.34447 0.004,0.66489 -0.13755,0.71206 -0.14149,0.0472 0.21837,0.40051 0.7997,0.78522 l 1.05696,0.69947 0.27919,-0.57756 c 0.31608,-0.65389 0.31664,-0.65085 0.39399,2.13773 0.0451,1.62626 -0.0179,1.9441 -0.40972,2.06836 -0.52236,0.16562 -0.64469,0.94123 -0.13229,0.83875 0.1819,-0.0364 0.48631,-0.2745 0.67646,-0.52916 0.19015,-0.25466 0.54734,-0.45925 0.79375,-0.45464 0.334,0.006 0.26285,0.14653 -0.27959,0.55123 -0.40018,0.29857 -0.7276,0.7261 -0.7276,0.95006 0,0.34976 0.0653,0.35598 0.46302,0.0441 0.40552,-0.31803 0.42383,-0.31274 0.14742,0.0426 -0.21915,0.28176 -0.23321,0.52431 -0.046,0.79375 0.17639,0.25387 0.31166,0.28664 0.39128,0.0948 0.0669,-0.16126 0.30176,-0.51845 0.52184,-0.79375 0.3458,-0.43256 0.3445,-0.38554 -0.01,0.34622 -0.46982,0.97108 -0.49698,1.13762 -0.18552,1.13762 0.12329,0 0.36204,-0.26789 0.53056,-0.59532 0.30012,-0.58308 0.30281,-0.58172 0.13114,0.0661 -0.0964,0.3638 -0.1764,0.83217 -0.17778,1.04082 -0.003,0.42568 -2.15132,-1.83401 -4.34192,-4.56661 l -1.44778,-1.806 0.60256,-0.64139 c 0.33141,-0.35277 0.49846,-0.6414 0.37123,-0.6414 -0.12723,0 -0.0926,-0.13873 0.077,-0.3083 0.23467,-0.23466 0.19991,-0.39062 -0.14552,-0.65304 -0.72888,-0.55371 -0.91564,-0.42201 -0.80048,0.56446 0.0595,0.50933 0.013,0.92604 -0.10334,0.92604 -0.1163,0 -0.21146,-0.53578 -0.21146,-1.19062 0,-1.23787 0.23234,-1.47021 0.79375,-0.79375 0.45302,0.54585 0.67359,0.49723 0.72305,-0.15939 0.0323,-0.42891 -0.0759,-0.52545 -0.4726,-0.42171 -0.28298,0.074 -0.58118,0.0267 -0.66267,-0.1052 -0.3761,-0.60854 -0.62737,-0.10381 -0.69963,1.40538 l -0.0788,1.64513 -0.50923,-0.78523 c -0.40993,-0.63211 -0.42283,-0.71442 -0.0662,-0.42211 0.40259,0.32994 0.44309,0.25393 0.44309,-0.83158 0,-0.84535 -0.12239,-1.24168 -0.41852,-1.35532 -0.75039,-0.28795 -0.9044,-0.17315 -0.9044,0.67416 0,0.81124 -0.0145,0.82159 -0.51662,0.36722 -0.37697,-0.34115 -0.47531,-0.67408 -0.3638,-1.23163 0.13445,-0.67225 0.0773,-0.76308 -0.47557,-0.75568 -0.57882,0.008 -0.59186,0.0361 -0.16536,0.3599 0.25466,0.19331 0.46302,0.45294 0.46302,0.57695 0,0.12401 -0.59532,-0.36089 -1.32292,-1.07756 -1.39075,-1.36984 -1.57919,-1.71979 -0.92604,-1.71979 0.21828,0 0.39687,-0.11906 0.39687,-0.26458 0,-0.34204 -0.34902,-0.3389 -0.69416,0.006 -0.18473,0.18472 -0.4267,0.0986 -0.76104,-0.27084 -0.3758,-0.41525 -0.41757,-0.61431 -0.17896,-0.85291 0.17119,-0.17119 0.30729,-0.4958 0.30244,-0.72136 -0.007,-0.31008 -0.12793,-0.26737 -0.49727,0.17514 -0.46755,0.56017 -0.50684,0.56494 -0.91724,0.11146 -0.55728,-0.61579 -0.54441,-0.85573 0.0342,-0.63886 0.40548,0.15196 0.41789,0.11804 0.0999,-0.27289 -0.43738,-0.5377 -1.70819,-0.58626 -2.21,-0.0844 -0.44448,0.44447 -1.53024,0.81248 -1.52168,0.51576 0.003,-0.11895 0.60973,-0.48154 1.34733,-0.80575 1.23641,-0.54348 1.40114,-0.55843 2.11043,-0.19165 0.42314,0.21881 0.77356,0.54361 0.77871,0.72178 0.005,0.17816 0.17514,0.0263 0.37774,-0.33753 0.40942,-0.73516 0.50931,-0.5933 0.79598,1.1303 0.14999,0.90185 0.20554,0.95846 0.5765,0.58749 0.26463,-0.26463 0.35222,-0.64279 0.24646,-1.06415 -0.2061,-0.82115 -0.0796,-0.81983 0.74802,0.008 0.3638,0.3638 0.87523,0.65391 1.1365,0.64469 0.4116,-0.0145 0.40315,-0.0459 -0.0633,-0.23499 -0.29609,-0.12002 -0.71281,-0.43092 -0.92604,-0.69089 -0.37127,-0.45266 -0.35772,-0.45318 0.31962,-0.0125 0.6907,0.4494 0.70394,0.44728 0.56338,-0.0902 -0.0792,-0.30274 -0.25576,-0.61953 -0.39242,-0.704 -0.13666,-0.0845 -0.033,-0.32689 0.23038,-0.53874 0.4482,-0.36052 0.43994,-0.37443 -0.12916,-0.21732 -0.33441,0.0923 -0.75112,0.0574 -0.92604,-0.0775 -0.66388,-0.51223 -2.68934,-0.876 -3.51528,-0.63134 -0.50749,0.15033 -0.98872,0.14506 -1.27284,-0.0139 -0.25127,-0.14062 -0.62821,-0.18991 -0.83765,-0.10954 -0.20944,0.0804 -0.38081,0.0308 -0.38081,-0.11015 0,-0.14095 -0.12609,-0.25628 -0.28019,-0.25628 -0.15411,0 -0.20662,0.11907 -0.11668,0.26459 0.35411,0.57296 -0.19176,0.80615 -0.65008,0.27771 -0.25868,-0.29826 -0.54565,-0.5423 -0.63773,-0.5423 -0.31463,0 -0.16819,1.01396 0.16333,1.13089 0.24777,0.0874 0.21084,0.3252 -0.14725,0.94809 -0.5526,0.96124 -0.18174,1.1397 0.42958,0.20672 0.49411,-0.75412 2.22519,-1.82277 2.42609,-1.49771 0.0789,0.12774 -0.0868,0.30536 -0.36837,0.39472 -0.28155,0.0894 -0.96236,0.57507 -1.51291,1.07935 -0.9405,0.86147 -1.08169,0.90716 -2.3362,0.75608 l -1.33521,-0.16079 0.89124,0.86299 c 1.34461,1.30199 1.61317,2.21642 1.6419,5.59069 0.0376,4.41354 0.0567,4.26438 -0.52595,4.11203 -0.35522,-0.0929 -0.5495,0.0326 -0.65096,0.42061 -0.202,0.77245 0.005,0.87524 0.62814,0.31154 0.29283,-0.265 0.5762,-0.43294 0.62972,-0.3732 0.0535,0.0597 0.15399,1.0316 0.22326,2.15969 0.0935,1.52303 0.034,2.12739 -0.23122,2.3475 -0.19645,0.16304 -0.35535,0.43068 -0.35312,0.59476 0.002,0.16409 0.11947,0.11974 0.26053,-0.0985 0.2671,-0.41331 0.26889,-0.40914 0.37042,0.8599 0.035,0.43768 0.44183,0.71856 1.04795,0.72355 0.44672,0.004 0.43865,-0.0394 -0.0871,-0.46511 -0.56059,-0.45394 -0.5836,-0.67928 -0.7093,-6.94532 -0.13729,-6.84416 -0.32597,-8.27116 -1.16271,-8.79371 -0.98175,-0.61311 -0.509,-0.75692 2.15085,-0.65425 3.02702,0.11684 2.48208,-0.23084 5.92127,3.77795 0.86806,1.01184 2.29681,2.62658 3.175,3.58832 0.87819,0.96174 2.43014,2.74678 3.44879,3.96676 1.01864,1.21997 2.5736,2.99294 3.45546,3.93992 0.88186,0.94698 2.19154,2.42576 2.91041,3.28618 l 1.30705,1.56439 0.13774,-1.4321 c 0.0758,-0.78766 0.0758,-1.55117 0,-1.69669 z m -3.70962,-5.68854 c -0.33917,-0.21919 -0.32955,-0.25707 0.0661,-0.26053 0.25466,-0.002 0.46302,0.11501 0.46302,0.26053 0,0.32269 -0.0298,0.32269 -0.52917,0 z m -3.37597,-4.69635 c -0.39609,-0.34988 -0.47435,-0.62465 -0.32027,-1.12448 0.19189,-0.62248 0.20546,-0.61079 0.23028,0.19843 0.0145,0.47295 0.1379,0.8599 0.2742,0.8599 0.1363,0 0.29584,-0.38695 0.35453,-0.8599 0.0925,-0.74539 0.11235,-0.71016 0.14905,0.26459 0.0233,0.61846 -0.004,1.12448 -0.0606,1.12448 -0.0566,0 -0.33886,-0.20836 -0.62716,-0.46302 z m -9.32403,-8.7974 -0.66146,-0.21184 0.66146,-0.0223 c 0.3638,-0.0123 0.84005,0.0931 1.05833,0.23416 0.35278,0.22798 0.35278,0.254 0,0.23416 -0.21828,-0.0123 -0.69453,-0.11765 -1.05833,-0.23416 z m -1.63711,-0.18074 c 0.191,-0.0764 0.4192,-0.067 0.50712,0.0209 0.0879,0.0879 -0.0684,0.15045 -0.34727,0.13896 -0.30822,-0.0127 -0.37092,-0.0754 -0.15985,-0.15985 z m 22.27461,21.89158 c 0,-0.2666 -1.03858,-1.07334 -1.38179,-1.07334 -0.11314,0 -0.20571,0.12609 -0.20571,0.2802 0,0.15411 0.12708,0.20166 0.28239,0.10567 0.1555,-0.0961 0.34771,0.0752 0.42774,0.38126 0.1421,0.5434 0.87737,0.80002 0.87737,0.30621 z m -22.2563,-0.8749 c 0.0534,1.01525 0.49927,0.65415 0.60867,-0.49293 0.0705,-0.73961 -0.009,-1.13152 -0.24821,-1.22331 -0.48759,-0.18711 -0.52507,-0.11182 -0.68968,1.38551 -0.10658,0.96942 -0.0862,1.11082 0.0762,0.52917 0.183,-0.6553 0.22713,-0.68991 0.25298,-0.19844 z m 2.08315,0.13229 c 0.0683,-0.20734 -0.14609,-0.33073 -0.57459,-0.33073 -0.44464,0 -0.68351,0.14513 -0.68351,0.41528 0,0.49758 1.09052,0.42429 1.2581,-0.0846 z m 1.39308,-0.0761 c 0.52969,-0.98974 -0.22512,-2.04574 -1.19597,-1.67319 -0.44117,0.1693 -0.54828,0.88943 -0.13229,0.88943 0.14552,0 0.26458,-0.11906 0.26458,-0.26458 0,-0.14552 0.11906,-0.26458 0.26458,-0.26458 0.14552,0 0.26459,0.41672 0.26459,0.92604 0,1.06027 0.12551,1.15111 0.53451,0.38688 z m -7.66867,-0.23667 c -0.15049,-0.28119 -0.51187,-0.58687 -0.80306,-0.67929 -0.53146,-0.16868 -0.63064,-0.39812 -0.54329,-1.25686 0.0691,-0.67889 -0.75659,-0.57162 -1.01825,0.13229 -0.30759,0.82747 -0.0809,1.25677 0.66352,1.25677 0.34824,0 0.87128,0.23813 1.16232,0.52917 0.66953,0.66954 0.89144,0.67692 0.53876,0.0179 z m -2.19738,-1.62663 c 0.0936,-0.35777 0.2135,-0.4777 0.27955,-0.27954 0.0636,0.19088 -0.0101,0.47285 -0.16386,0.6266 -0.19634,0.19634 -0.23077,0.093 -0.11569,-0.34706 z m 11.2793,1.47642 c 0.091,-0.2371 0.002,-0.39688 -0.22066,-0.39688 -0.43516,0 -0.73009,0.37965 -0.48519,0.62456 0.27882,0.27882 0.54436,0.19316 0.70585,-0.22768 z m 17.48781,-0.41516 c -0.0837,-0.13546 -0.48614,-0.2463 -0.89427,-0.2463 -0.44899,0 -1.01755,-0.27549 -1.4396,-0.69754 -0.75625,-0.75625 -0.79192,-0.86798 -0.5095,-1.59592 0.14942,-0.38515 0.2539,-0.26737 0.50883,0.57367 l 0.3208,1.05833 0.0204,-1.24115 c 0.0112,-0.68264 -0.0793,-1.30275 -0.20113,-1.37803 -0.36739,-0.22705 -1.36605,0.6288 -1.36605,1.17067 0,0.34095 -0.12938,0.45622 -0.39688,0.35357 -0.46689,-0.17917 -0.48214,-0.0898 -0.13884,0.81313 0.14192,0.37328 0.37631,0.67869 0.52086,0.67869 0.14456,0 0.18974,-0.19048 0.1004,-0.4233 -0.0904,-0.23566 0.14248,-0.11838 0.52544,0.26459 0.51733,0.51732 0.95714,0.68787 1.77386,0.68787 0.7535,0 1.02817,0.0935 0.89718,0.30547 -0.1179,0.19077 -0.0725,0.23358 0.121,0.11401 0.17037,-0.1053 0.24128,-0.30229 0.15755,-0.43776 z m -20.75849,0.0183 c 0,-0.14552 -0.11906,-0.26458 -0.26458,-0.26458 -0.14552,0 -0.26459,0.11906 -0.26459,0.26458 0,0.14553 0.11907,0.26459 0.26459,0.26459 0.14552,0 0.26458,-0.11906 0.26458,-0.26459 z m -5.55625,-0.4983 c 0,-0.29133 -0.24248,-0.56172 -0.58376,-0.65097 -0.81104,-0.21209 -0.87565,-0.0455 -0.23204,0.59806 0.67955,0.67955 0.8158,0.68838 0.8158,0.0529 z m 9.42127,-0.2293 c 0.56699,-0.74692 0.44157,-0.8599 -0.9546,-0.8599 -1.27318,0 -1.94432,0.50737 -0.72761,0.55006 0.32742,0.0115 0.44575,0.0812 0.26294,0.15489 -0.18281,0.0737 -0.26508,0.24289 -0.18282,0.37599 0.25048,0.4053 1.22913,0.27028 1.60209,-0.22104 z m -14.44835,-2.38307 c 0,-1.81215 0.31195,-2.71016 0.94145,-2.71016 0.33131,0 0.32008,0.11524 -0.0709,0.7276 -0.43327,0.67861 -0.43378,0.70324 -0.008,0.36574 0.25131,-0.19902 0.75527,-0.30483 1.11991,-0.23512 0.36464,0.0697 0.66298,0.0242 0.66298,-0.10116 0,-0.12534 -0.16586,-0.22789 -0.36857,-0.22789 -0.20271,0 -0.43815,-0.18135 -0.52321,-0.403 -0.12617,-0.32879 -0.0583,-0.35143 0.36857,-0.12298 0.41561,0.22243 0.52321,0.19648 0.52321,-0.12617 0,-0.27493 -0.2565,-0.40619 -0.79375,-0.40619 -0.43656,0 -0.79375,-0.10364 -0.79375,-0.23032 0,-0.12668 0.47614,-0.69223 1.0581,-1.25677 1.21711,-1.1807 1.32202,-1.49953 0.41885,-1.27285 -0.47497,0.11921 -0.71346,0.0228 -0.92604,-0.37444 -0.40538,-0.75745 -0.35486,-1.5452 0.11055,-1.7238 0.50638,-0.19432 0.51765,-0.69807 0.0156,-0.69807 -0.68109,0 -0.68138,-0.44225 -0.001,-1.72163 0.36732,-0.69085 0.60079,-1.32315 0.51882,-1.40512 -0.28051,-0.28051 -0.95198,0.65377 -1.59631,2.2211 -0.4189,1.01899 -0.64643,1.34899 -0.65052,0.94349 -0.004,-0.44661 -0.11985,-0.58003 -0.40642,-0.47007 -0.31496,0.12087 -0.36999,1.6e-4 -0.2585,-0.567 0.13196,-0.67126 0.1235,-0.67926 -0.12356,-0.11696 -0.19413,0.44184 -0.15437,0.88063 0.14837,1.63724 0.33452,0.83606 0.36082,1.3023 0.13757,2.43911 -0.32448,1.65235 -0.36291,2.37043 -0.31588,5.90339 0.0318,2.38727 0.0732,2.59564 0.42368,2.13224 0.24724,-0.32686 0.38848,-1.12683 0.38848,-2.20021 z m -0.1751,-3.79352 c 0.31925,-2.65453 0.68472,-4.20831 0.98987,-4.20831 0.13396,0 0.24356,0.36502 0.24356,0.81115 0,0.44613 0.11982,1.03503 0.26627,1.30868 0.20608,0.38505 0.11635,0.71845 -0.39687,1.47473 -0.36473,0.53746 -0.66315,1.13216 -0.66315,1.32154 0,0.18939 -0.13763,0.4294 -0.30584,0.53336 -0.2246,0.13881 -0.26015,-0.19093 -0.13384,-1.24115 z m 1.11783,-2.22802 c -0.22643,-1.20695 -0.29683,-1.13644 -0.53244,0.53326 -0.1755,1.24368 -0.15967,1.29656 0.26443,0.88284 0.34421,-0.33579 0.40772,-0.67137 0.26801,-1.4161 z m 9.79631,8.3415 c 0.19968,-0.19968 -0.25227,-5.66025 -0.67363,-8.13897 -0.006,-0.0364 -0.18984,-0.0661 -0.40812,-0.0661 -0.51225,0 -0.50478,0.76129 0.0233,2.37581 0.36048,1.1021 0.3724,1.50386 0.0839,2.82784 -0.35615,1.63465 -0.34301,2.28122 0.0493,2.42517 0.13219,0.0485 0.24034,0.25687 0.24034,0.46302 0,0.43603 0.31074,0.48743 0.68488,0.11328 z m -1.74321,-0.94469 c 0,-0.22687 -0.11906,-0.33891 -0.26458,-0.24897 -0.14552,0.0899 -0.26459,0.27556 -0.26459,0.41249 0,0.13693 0.11907,0.24897 0.26459,0.24897 0.14552,0 0.26458,-0.18562 0.26458,-0.41249 z m 2.38975,-6.29943 c -0.25392,-0.25392 -0.44988,1.32639 -0.30735,2.47858 0.027,0.21829 0.0914,1.23032 0.14317,2.24896 0.14408,2.83634 0.26168,2.44768 0.35368,-1.16889 0.0514,-2.01983 -0.0216,-3.39077 -0.1895,-3.55865 z m 14.96277,6.27777 c -0.0916,-0.23878 -0.0867,-0.68527 0.0108,-0.99219 0.17477,-0.54963 0.18052,-0.55006 0.38134,-0.0289 0.15575,0.40421 0.19337,0.32624 0.15929,-0.3302 -0.0245,-0.47266 -0.15236,-0.85961 -0.28405,-0.8599 -0.1317,-2.9e-4 -0.0634,-0.20889 0.15177,-0.46355 0.41423,-0.49026 0.36127,-1.38906 -0.0819,-1.38906 -0.14466,0 -0.18744,0.23813 -0.0951,0.52917 0.0963,0.30356 0.0475,0.52916 -0.11446,0.52916 -0.15534,0 -0.28242,-0.36421 -0.28242,-0.80936 0,-0.54441 -0.1,-0.74757 -0.30547,-0.62058 -0.19296,0.11926 -0.23348,0.0723 -0.11002,-0.12744 0.10749,-0.17392 0.42354,-0.24383 0.70234,-0.15534 0.27879,0.0885 0.5069,0.0465 0.5069,-0.0932 0,-0.2502 -0.60828,-0.57531 -1.07643,-0.57531 -0.39261,0 -1.04227,1.84456 -1.01316,2.87659 l 0.0271,0.95987 0.20909,-0.88441 c 0.27804,-1.17598 0.68139,-1.56327 0.8714,-0.83668 0.094,0.35939 0.005,0.61745 -0.2465,0.71391 -0.61259,0.23507 -0.0342,2.99156 0.62775,2.99156 0.0705,0 0.0532,-0.19537 -0.0384,-0.43415 z m 3.67391,-0.43071 c 0.005,-0.32976 0.27013,-0.70335 0.62694,-0.882 0.42924,-0.21492 0.51035,-0.35325 0.26458,-0.45127 -0.22316,-0.089 -0.16616,-0.14908 0.15393,-0.16223 0.82766,-0.034 1.47604,-0.81665 1.47604,-1.78169 0,-1.19609 -0.47639,-1.13002 -0.57934,0.0804 -0.0962,1.13146 -0.74874,1.69595 -1.36713,1.18273 -0.41181,-0.34177 -0.31687,-1.08979 0.13831,-1.08979 0.13854,0 0.18339,0.11083 0.0997,0.2463 -0.0837,0.13546 -0.0179,0.32931 0.14625,0.43077 0.37466,0.23155 0.76842,-0.36938 0.57401,-0.87601 -0.0932,-0.24289 -0.40746,-0.34078 -0.87413,-0.27228 -0.49346,0.0724 -0.68895,0.004 -0.60571,-0.21333 0.0676,-0.17614 0.0133,-0.38799 -0.12062,-0.47076 -0.14126,-0.0873 -0.2598,0.97525 -0.2823,2.53055 -0.0213,1.47458 0.0468,2.59548 0.15139,2.49089 0.10459,-0.10459 0.19374,-0.4476 0.19811,-0.76224 z m -25.48892,-0.25962 c -0.0859,-0.53694 -0.17643,-0.68019 -0.24114,-0.38142 -0.0985,0.45475 0.0814,1.24131 0.28388,1.24131 0.0521,0 0.0329,-0.38695 -0.0427,-0.85989 z m 3.28289,0.6669 c -0.28497,-0.0724 -0.79099,-0.3104 -1.12448,-0.52891 -0.52287,-0.3426 -0.60634,-0.34454 -0.60634,-0.0141 0,0.59112 0.27202,0.7386 1.30087,0.70529 0.5601,-0.0181 0.73605,-0.0846 0.42995,-0.1623 z m -3.97977,-1.06378 c 0,-0.5457 -0.0928,-1.06093 -0.2063,-1.14495 -0.11347,-0.084 0.0588,-0.48976 0.38277,-0.90164 l 0.58906,-0.74887 -0.73566,0.18464 c -0.53718,0.13482 -0.68297,0.0994 -0.54033,-0.13143 0.12337,-0.19961 0.0828,-0.24651 -0.11012,-0.12728 -0.16801,0.10383 -0.29607,0.44965 -0.28458,0.76848 0.0115,0.31884 0.0809,0.43087 0.15434,0.24897 0.0734,-0.1819 0.24678,-0.33073 0.3853,-0.33073 0.1518,0 0.14304,0.20329 -0.022,0.51177 -0.15064,0.28148 -0.27389,0.76556 -0.27389,1.07573 0,0.477 0.42295,1.5875 0.60462,1.5875 0.0313,0 0.0568,-0.44648 0.0568,-0.99219 z m 8.63499,0.39688 0.036,-0.59531 0.11466,0.59531 c 0.0957,0.49694 0.28651,0.59531 1.15459,0.59531 h 1.03993 v -1.32292 c 0,-1.34155 -0.39709,-1.81753 -0.60702,-0.7276 -0.0736,0.38238 -0.12755,0.25201 -0.15069,-0.36448 -0.0198,-0.52788 -0.20896,-1.10331 -0.42032,-1.27872 -0.3284,-0.27254 -0.39782,-0.056 -0.47735,1.48896 l -0.0931,1.80789 -0.0975,-2.11667 -0.0975,-2.11667 -0.17325,1.71979 -0.17325,1.7198 -0.0497,-1.85209 c -0.0851,-3.1694 -0.56217,-3.00234 -0.56673,0.19844 -0.002,1.72249 0.1003,2.84427 0.26053,2.84427 0.14552,0 0.2808,-0.26789 0.30062,-0.59531 z m 1.55146,-0.21405 c 0,-0.15411 0.11907,-0.20662 0.26459,-0.11668 0.14552,0.0899 0.26458,0.21603 0.26458,0.2802 0,0.0642 -0.11906,0.11667 -0.26458,0.11667 -0.14552,0 -0.26459,-0.12609 -0.26459,-0.28019 z m 1.85209,-0.11668 c 0,-0.18265 -0.1786,-0.4803 -0.39688,-0.66146 -0.34076,-0.28281 -0.39687,-0.18928 -0.39687,0.66146 0,0.85074 0.0561,0.94426 0.39687,0.66146 0.21828,-0.18116 0.39688,-0.47882 0.39688,-0.66146 z m -13.22917,-0.26458 c -0.18699,-0.22532 -0.26768,-0.48198 -0.1793,-0.57035 0.0884,-0.0884 0.0416,-0.38316 -0.1039,-0.65507 -0.27464,-0.51316 -1.3043,-0.69457 -1.3043,-0.22979 0,0.14552 0.18562,0.26458 0.41249,0.26458 0.22687,0 0.33975,0.1177 0.25084,0.26155 -0.096,0.15536 0.0227,0.19082 0.29237,0.0873 0.30428,-0.11676 0.39204,-0.0739 0.26609,0.12986 -0.20437,0.33068 0.31425,1.513 0.55714,1.27011 0.0817,-0.0817 -0.004,-0.33291 -0.19143,-0.55822 z m 5.82083,0.39687 c 0,-0.14552 -0.0525,-0.26458 -0.11667,-0.26458 -0.0642,0 -0.19026,0.11906 -0.2802,0.26458 -0.0899,0.14552 -0.0374,0.26458 0.11668,0.26458 0.1541,0 0.28019,-0.11906 0.28019,-0.26458 z m -3.43958,-1.05833 c 0,-0.14552 -0.11204,-0.26459 -0.24897,-0.26459 -0.13693,0 -0.32255,0.11907 -0.41249,0.26459 -0.0899,0.14552 0.0221,0.26458 0.24897,0.26458 0.22687,0 0.41249,-0.11906 0.41249,-0.26458 z m 27.95015,-0.13229 c 0.0838,-0.21829 0.37066,-0.39688 0.63754,-0.39688 0.80985,0 0.87518,-0.52682 0.0691,-0.55691 -0.71083,-0.0265 -0.70183,-0.0409 0.20676,-0.33073 0.61861,-0.1973 0.90658,-0.43119 0.82557,-0.67054 -0.0756,-0.22344 -0.007,-0.29513 0.1745,-0.18282 0.20569,0.12712 0.29147,-0.17083 0.27505,-0.95536 l -0.0239,-1.1401 -0.25097,0.87024 c -0.15172,0.52612 -0.51687,0.99139 -0.9234,1.17662 -0.55185,0.25144 -1.68833,1.89424 -1.68833,2.44052 0,0.31802 0.55623,0.1156 0.69807,-0.25404 z m -3.64036,-4.39127 c 0.006,-2.41847 0.11712,-3.8593 0.31533,-4.09814 0.18591,-0.224 0.23768,-0.7309 0.13212,-1.29357 -0.099,-0.52762 -0.0463,-1.16312 0.12267,-1.47878 0.16294,-0.30446 0.20885,-0.75261 0.10203,-0.9959 -0.15327,-0.34905 -0.23467,-0.27493 -0.38595,0.35141 -0.17897,0.741 -0.19379,0.72007 -0.22302,-0.31512 -0.0172,-0.60987 0.0673,-1.1698 0.18779,-1.24427 0.3397,-0.20995 3.07246,2.74787 3.70943,4.01493 0.69045,1.37343 0.71808,2.0975 0.10637,2.7878 -0.36883,0.41622 -0.38965,0.54807 -0.10235,0.64817 0.3045,0.1061 0.3045,0.16267 0,0.36325 -0.29189,0.19228 -0.26273,0.3123 0.15292,0.62943 0.30955,0.23617 0.37646,0.39185 0.16841,0.39185 -0.23679,0 -0.30672,0.26207 -0.22269,0.83459 0.1054,0.71817 0.0764,0.77158 -0.20783,0.38285 -0.25299,-0.34598 -0.36698,-0.37103 -0.4869,-0.10699 -0.0861,0.18962 -0.0874,0.0683 -0.003,-0.26965 0.0846,-0.33793 0.0594,-0.93324 -0.0558,-1.32292 -0.18646,-0.63045 -0.22553,-0.56592 -0.35462,0.58572 -0.11423,1.01905 -0.26878,1.33964 -0.7269,1.50784 -0.43723,0.16052 -0.54782,0.12499 -0.44498,-0.14299 0.19026,-0.4958 -0.43541,-0.82484 -0.71852,-0.37787 -0.18441,0.29116 -0.23177,0.27448 -0.235,-0.0828 -0.006,-0.631 0.40549,-0.80928 0.79212,-0.34343 0.43934,0.52938 0.81565,0.50061 0.60577,-0.0463 -0.11838,-0.3085 -0.0702,-0.37927 0.16089,-0.23643 0.24004,0.14836 0.3063,-0.002 0.2434,-0.5519 -0.0799,-0.69814 -0.1621,-0.74985 -1.07863,-0.67817 -0.84812,0.0663 -0.99219,-9e-4 -0.99219,-0.46302 0,-0.29734 0.10633,-0.54062 0.23628,-0.54062 0.27224,0 0.63227,-0.80714 0.44401,-0.99541 -0.26594,-0.26593 -0.94487,0.72561 -0.94487,1.37994 0,0.48184 0.18979,0.75906 0.63576,0.92862 0.34966,0.13294 0.72122,0.38 0.82568,0.54901 0.14234,0.23033 0.0537,0.23442 -0.35378,0.0163 -0.29904,-0.16003 -0.65248,-0.29098 -0.78542,-0.29098 -0.34077,0 -0.34815,1.63436 -0.009,2.04274 0.34254,0.41274 1.38507,0.43955 2.10522,0.0541 0.44367,-0.23745 0.55506,-0.19379 0.67492,0.26458 0.17026,0.65107 0.4918,0.71208 0.71312,0.13532 0.0902,-0.23502 0.29321,-0.33053 0.47015,-0.22118 0.20637,0.12754 0.25776,0.0526 0.15233,-0.2221 -0.0875,-0.22801 0.008,-0.63449 0.21121,-0.9033 0.20365,-0.26881 0.37407,-0.70412 0.3787,-0.96737 0.005,-0.26325 0.12749,-0.40505 0.27301,-0.31512 0.45312,0.28005 0.29602,-1.63138 -0.25281,-3.07578 -0.46479,-1.22322 -0.47834,-1.43718 -0.13326,-2.10449 0.40672,-0.7865 0.16057,-1.21058 -0.5454,-0.93967 -0.20733,0.0796 -0.53973,-0.0877 -0.73867,-0.37175 -0.19893,-0.28402 -0.45941,-0.42786 -0.57883,-0.31965 -0.11942,0.10822 -0.14134,0.0639 -0.0487,-0.0985 0.0926,-0.16238 0.4501,-0.24139 0.7944,-0.17557 0.35888,0.0686 0.80412,-0.0584 1.04339,-0.29771 0.312,-0.312 0.45087,-0.33447 0.55004,-0.089 0.0781,0.19336 0.14125,0.138 0.15355,-0.13466 0.0138,-0.30645 -0.17515,-0.46302 -0.55885,-0.46302 -0.55035,0 -0.55508,-0.018 -0.0932,-0.35573 0.73078,-0.53436 0.43394,-2.72933 -0.47482,-3.51101 -1.52464,-1.31143 -5.09109,-0.87148 -8.10048,0.99926 -1.38246,0.85938 -2.08233,0.85338 -2.31067,-0.0198 -0.0724,-0.27685 -0.32899,-0.5604 -0.5702,-0.63011 -0.2412,-0.0697 -0.64692,-0.21251 -0.90158,-0.31735 -0.25911,-0.10667 -0.46302,-0.0743 -0.46302,0.0736 0,0.14532 0.30187,0.33997 0.67082,0.43258 0.3751,0.0941 0.78044,0.45669 0.91949,0.82243 0.17949,0.47209 0.4468,0.65407 0.96078,0.65407 0.39166,0 0.63349,0.0786 0.5374,0.1747 -0.0961,0.0961 0.0517,0.33332 0.32853,0.52719 0.33255,0.23293 0.4588,0.55505 0.37223,0.94977 -0.095,0.43326 -0.0611,0.49871 0.12348,0.23832 0.42869,-0.60477 0.62951,0.0802 0.86843,2.96224 0.3129,3.77458 0.30384,4.20894 -0.0848,4.06644 -0.18191,-0.0667 -0.30097,-0.25521 -0.26459,-0.41892 0.0737,-0.33178 -0.20996,-0.37816 -0.83825,-0.13706 -0.72956,0.27996 -0.48206,0.89773 0.35966,0.89773 0.69747,0 0.80572,0.11663 1.04369,1.12448 0.20426,0.86512 0.25363,0.0171 0.214,-3.67669 -0.0446,-4.15515 -0.1138,-4.86998 -0.51451,-5.31251 -0.25467,-0.28122 -0.46302,-0.56147 -0.46302,-0.62278 0,-0.0613 0.74414,-0.11145 1.65364,-0.11145 1.35001,0 1.63031,0.0729 1.52654,0.39687 -0.26376,0.82358 -0.30407,13.22917 -0.043,13.22917 0.15862,0 0.26463,-1.4617 0.2705,-3.72981 z m 2.07764,-9.23478 c -0.24919,-0.29104 -0.66261,-0.53099 -0.91869,-0.53321 -0.39738,-0.003 -0.40745,-0.0416 -0.0687,-0.26054 0.27424,-0.17722 -0.26888,-0.25773 -1.75763,-0.26053 -3.28578,-0.006 -3.09329,-0.86919 0.49996,-2.24146 0.85217,-0.32545 1.67016,-0.43611 2.57849,-0.34883 1.39416,0.13396 2.50122,0.83911 2.26869,1.44507 -0.0733,0.19108 -0.018,0.34742 0.12296,0.34742 0.14095,0 0.25628,0.37107 0.25628,0.82461 0,0.70013 -0.0816,0.80327 -0.54053,0.68325 -0.35511,-0.0929 -0.64924,0.0327 -0.8574,0.36602 -0.40829,0.65378 -1.01205,0.64547 -1.58339,-0.0218 z m 1.54127,-0.37524 c 0.63468,-0.46408 0.35243,-0.82763 -0.35048,-0.45145 -0.45291,0.24239 -0.4984,0.19846 -0.38869,-0.37544 0.075,-0.39209 8.4e-4,-0.64995 -0.1868,-0.64995 -0.17107,0 -0.22957,-0.13182 -0.13,-0.29293 0.12333,-0.19955 -0.009,-0.23269 -0.4144,-0.10394 -0.40562,0.12874 -0.53772,0.0956 -0.41439,-0.10395 0.29492,-0.47719 1.1674,-0.33428 1.47565,0.24171 0.15738,0.29404 0.2027,0.66963 0.10073,0.83463 -0.10633,0.17203 -0.0681,0.22751 0.0896,0.13006 0.15122,-0.0935 0.32667,-0.52229 0.38988,-0.95295 0.0632,-0.43066 0.0256,-0.72783 -0.0835,-0.66038 -0.10913,0.0675 -0.27321,0.002 -0.36461,-0.14627 -0.23134,-0.37431 -1.27932,-0.33638 -1.70849,0.0618 -0.29097,0.26998 -0.32651,0.24568 -0.19351,-0.13229 0.10836,-0.30793 0.0297,-0.46302 -0.23495,-0.46302 -0.30656,0 -0.33715,0.11347 -0.1333,0.49438 0.14552,0.27191 0.1894,0.56956 0.0975,0.66146 -0.0919,0.0919 0.002,0.1689 0.20774,0.17113 0.30975,0.003 0.30592,0.0523 -0.022,0.28191 -0.30603,0.21427 -0.25302,0.23713 0.23157,0.0999 0.40333,-0.11422 0.56803,-0.0802 0.45979,0.0949 -0.0928,0.1501 0.0411,0.32764 0.29759,0.39453 0.32359,0.0844 0.26386,0.13282 -0.1952,0.1582 l -0.66146,0.0366 0.66145,0.5174 c 0.79777,0.62402 0.82376,0.62674 1.47037,0.15392 z m 1.04318,-0.94767 c -0.0899,-0.14552 -0.27556,-0.26459 -0.41249,-0.26459 -0.13694,0 -0.24897,0.11907 -0.24897,0.26459 0,0.14552 0.18562,0.26458 0.41249,0.26458 0.22687,0 0.3389,-0.11906 0.24897,-0.26458 z m -4.80643,-0.33073 c -0.1141,-0.1819 -0.17317,-0.53909 -0.13128,-0.79375 0.0419,-0.25466 -0.0631,-0.46302 -0.23335,-0.46302 -0.17217,0 -0.23899,0.18378 -0.15058,0.41417 0.12129,0.31607 0.0363,0.37527 -0.35858,0.24993 -0.28462,-0.0903 -0.77621,-0.0258 -1.09241,0.14343 -0.76392,0.40883 -0.22074,0.77034 1.16585,0.77592 0.74113,0.003 0.95291,-0.0835 0.80035,-0.32668 z m -3.84214,0.41457 c 0.19099,-0.0764 0.4192,-0.067 0.50712,0.0209 0.0879,0.0879 -0.0684,0.15045 -0.34727,0.13896 -0.30822,-0.0127 -0.37092,-0.0754 -0.15985,-0.15985 z m -16.40566,12.21228 c -0.0815,-0.0815 -0.2294,0.0654 -0.32876,0.32632 -0.14359,0.37708 -0.1132,0.40748 0.14811,0.14811 0.18082,-0.17947 0.26211,-0.39297 0.18065,-0.47443 z m -6.02037,-0.48547 c -0.26749,-0.70357 -0.8077,-0.96324 -0.8077,-0.38826 0,0.34221 0.82128,1.33828 0.97592,1.18363 0.0535,-0.0535 -0.0222,-0.41139 -0.16822,-0.79537 z m 7.80882,-1.69483 c -0.28234,-0.28234 -0.33922,0.0714 -0.18157,1.12897 l 0.15776,1.05833 0.0868,-1.01873 c 0.0477,-0.5603 0.0194,-1.08616 -0.063,-1.16857 z m 9.87301,1.19511 c 0.0172,0.32743 0.15037,0.59532 0.29589,0.59532 0.14699,0 0.26458,-0.70556 0.26458,-1.5875 0,-1.7438 -0.43572,-2.1754 -0.60101,-0.59532 l -0.10378,0.99219 -0.0445,-1.10886 c -0.0506,-1.26107 -0.55493,-1.83522 -0.60847,-0.69269 -0.0313,0.66843 -0.0513,0.65033 -0.19844,-0.17982 -0.11644,-0.65695 -0.31615,-0.94232 -0.69277,-0.98994 -0.44507,-0.0563 -0.45712,-0.0357 -0.0758,0.12935 0.32679,0.14147 0.38331,0.30702 0.20249,0.59307 -0.21766,0.34431 -0.25138,0.34527 -0.25489,0.007 -0.003,-0.28652 -0.15707,-0.23651 -0.58268,0.1891 -0.57351,0.57351 -0.57409,0.58365 -0.0661,1.14633 l 0.51248,0.5677 0.16714,-0.7568 c 0.15756,-0.71347 0.16892,-0.70128 0.19843,0.21291 0.0192,0.59527 0.26118,1.22938 0.62662,1.64218 l 0.59531,0.67247 0.16714,-0.71614 c 0.14564,-0.62405 0.17115,-0.63959 0.19843,-0.12083 z m -16.63744,-1.59704 c 0,-0.29925 0.19502,-0.7596 0.43339,-1.02299 0.29042,-0.32092 0.35082,-0.58963 0.1831,-0.81459 -0.13766,-0.18463 -0.21803,-0.57381 -0.17861,-0.86485 0.0394,-0.29105 0.14005,-1.00542 0.2236,-1.5875 0.14383,-1.00194 0.12958,-1.03014 -0.26745,-0.52917 -0.23065,0.29104 -0.36529,0.73752 -0.29918,0.99219 0.095,0.36582 -0.0487,0.46302 -0.68447,0.46302 h -0.80466 l 0.69714,0.54837 c 0.38342,0.3016 0.69089,0.68855 0.68326,0.85989 -0.008,0.17134 -0.20075,0.0436 -0.42915,-0.28378 -0.48065,-0.68905 -1.01543,-0.80099 -0.7699,-0.16116 0.0916,0.23879 -0.0282,0.7315 -0.26636,1.09493 -0.42712,0.65188 -0.42359,0.65898 0.26256,0.52781 0.56528,-0.10806 0.72488,-0.0159 0.85236,0.49198 0.18135,0.72255 -0.0549,1.51902 -0.38929,1.31236 -0.12553,-0.0776 -0.16928,0.16735 -0.0972,0.5443 l 0.13101,0.68535 0.35993,-0.85603 c 0.19797,-0.47081 0.35994,-1.10087 0.35994,-1.40013 z m 0.56463,-0.0973 c -0.24893,-0.42826 -0.28495,-0.39224 -0.292,0.292 -0.006,0.56921 0.071,0.70147 0.28395,0.48852 0.20927,-0.20927 0.21155,-0.4304 0.008,-0.78052 z m 4.46245,0.56982 c 0,-0.21829 -0.11906,-0.39688 -0.26458,-0.39688 -0.14552,0 -0.26459,0.17859 -0.26459,0.39688 0,0.21828 0.11907,0.39687 0.26459,0.39687 0.14552,0 0.26458,-0.17859 0.26458,-0.39687 z m 13.75833,-0.26459 c 0,-0.21828 -0.11532,-0.39687 -0.25628,-0.39687 -0.14095,0 -0.18774,0.17859 -0.10398,0.39687 0.0838,0.21828 0.19909,0.39688 0.25628,0.39688 0.0572,0 0.10398,-0.1786 0.10398,-0.39688 z m 1.58544,-1.0078 c 10e-4,-0.11773 -0.0929,-0.15535 -0.20901,-0.0836 -0.11609,0.0717 -0.37847,0.027 -0.58308,-0.0995 -0.3105,-0.1919 -0.31503,-0.33639 -0.0274,-0.87381 0.43791,-0.81824 0.29156,-1.60692 -0.32003,-1.72471 -0.41184,-0.0793 -0.46857,0.094 -0.43215,1.31988 0.0641,2.15752 0.14682,2.33553 0.91887,1.97752 0.35791,-0.16597 0.65169,-0.39808 0.65282,-0.51581 z m -14.43306,0.32153 c -0.0972,-0.15723 -0.38175,-0.23224 -0.63238,-0.1667 -0.35228,0.0921 -0.42992,-0.0157 -0.3421,-0.4751 0.0625,-0.32685 -0.0167,-0.67479 -0.1759,-0.7732 -0.2784,-0.17206 -0.43929,1.20182 -0.17204,1.46907 0.26967,0.26967 1.49162,0.21971 1.32242,-0.0541 z m 21.16236,-0.4163 c 0.12902,-0.33621 0.24273,-0.36768 0.4781,-0.1323 0.47661,0.47661 0.99675,0.36596 0.99675,-0.21203 0,-0.35429 0.12692,-0.47216 0.39687,-0.36857 0.2667,0.10234 0.39688,-0.0121 0.39688,-0.34887 0,-0.3115 -0.20027,-0.51626 -0.52917,-0.54103 -0.3023,-0.0228 -0.52917,0.12324 -0.52917,0.34057 0,0.20923 -0.14882,0.39856 -0.33072,0.42073 -0.18191,0.0222 -0.46343,0.0537 -0.6256,0.0701 -0.39251,0.0397 -1.16034,0.68841 -1.16034,0.9803 0,0.41407 0.73209,0.24531 0.9064,-0.20893 z m -8.66316,-0.40225 c -0.0845,-0.21106 -0.14716,-0.14837 -0.15985,0.15986 -0.0115,0.27891 0.051,0.43518 0.13896,0.34726 0.0879,-0.0879 0.0973,-0.31612 0.0209,-0.50712 z m -20.15678,-0.21497 c 0.0899,-0.14552 0.0374,-0.26458 -0.11668,-0.26458 -0.15411,0 -0.2802,0.11906 -0.2802,0.26458 0,0.14552 0.0525,0.26458 0.11668,0.26458 0.0642,0 0.19026,-0.11906 0.2802,-0.26458 z m 23.41562,-0.31826 c 0.26693,-0.16511 0.0578,-0.19966 -0.63862,-0.10551 -0.56952,0.077 -1.16112,0.26559 -1.31465,0.41913 -0.33718,0.33718 1.33526,0.0686 1.95327,-0.31362 z m -3.25245,-1.3323 c -0.0633,-0.32912 -0.11747,-0.12215 -0.12041,0.45994 -0.003,0.58208 0.0488,0.85136 0.11507,0.59839 0.0662,-0.25296 0.0686,-0.72921 0.005,-1.05833 z m 9.47016,0.32764 c -0.18779,-0.85498 0.22992,-1.26168 0.80534,-0.78413 0.22007,0.18265 0.38528,0.20631 0.38528,0.0552 0,-0.48492 -0.71256,-0.87201 -1.22266,-0.6642 -0.48374,0.19708 -0.75822,1.39315 -0.3197,1.39315 0.1207,0 0.21945,0.11907 0.21945,0.26459 0,0.63323 -0.74254,0.18993 -0.88636,-0.52917 -0.16207,-0.81039 -0.70114,-1.11552 -0.70114,-0.39687 0,0.21828 -0.11906,0.39687 -0.26459,0.39687 -0.14552,0 -0.26458,0.17486 -0.26458,0.38857 0,0.23119 0.15578,0.32879 0.3846,0.24099 0.21154,-0.0812 0.64766,0.0367 0.96917,0.26185 0.7626,0.53415 1.09852,0.29894 0.89519,-0.62683 z m -6.65119,0.1323 c 0.0838,-0.21829 0.037,-0.39688 -0.10399,-0.39688 -0.14095,0 -0.25628,0.17859 -0.25628,0.39688 0,0.21828 0.0468,0.39687 0.10398,0.39687 0.0572,0 0.17252,-0.17859 0.25629,-0.39687 z m 0.96265,-0.1323 c 0,-0.14552 -0.12609,-0.26458 -0.2802,-0.26458 -0.15411,0 -0.20661,0.11906 -0.11668,0.26458 0.0899,0.14552 0.21603,0.26459 0.2802,0.26459 0.0642,0 0.11668,-0.11907 0.11668,-0.26459 z m 6.87916,-0.19285 c -0.21828,-0.0831 -0.47969,-0.2786 -0.58092,-0.43447 -0.2378,-0.36615 -0.5866,-0.028 -0.356,0.34514 0.0959,0.1552 0.43527,0.27278 0.7541,0.2613 0.39452,-0.0142 0.45292,-0.0691 0.18282,-0.17197 z M 196.3907,166.6029 c 0,-0.67711 -0.0168,-0.68613 -0.35291,-0.18913 -0.1941,0.28704 -0.42955,0.73301 -0.52321,0.99104 -0.14474,0.39873 -0.0918,0.42711 0.35291,0.18913 0.32196,-0.17231 0.52321,-0.5535 0.52321,-0.99104 z m -2.24896,0.72964 c 0.0899,-0.14552 0.0374,-0.26458 -0.11667,-0.26458 -0.15411,0 -0.2802,0.11906 -0.2802,0.26458 0,0.14552 0.0525,0.26458 0.11667,0.26458 0.0642,0 0.19026,-0.11906 0.2802,-0.26458 z m 3.30892,-0.0662 c 9e-4,-0.1819 0.17243,-0.65815 0.38119,-1.05833 0.20875,-0.40018 0.26371,-0.7276 0.12213,-0.7276 -0.14158,0 -0.36509,0.26789 -0.4967,0.59531 -0.21879,0.54432 -0.24072,0.52327 -0.25606,-0.24568 -0.009,-0.46255 0.18113,-1.03891 0.42302,-1.28079 0.37174,-0.37174 0.38198,-0.47637 0.0661,-0.6763 -0.53337,-0.33764 -0.77051,-0.29949 -0.77051,0.12394 0,0.56259 -0.66743,0.69577 -1.29255,0.25793 -0.67949,-0.47593 -0.72624,-1.29045 -0.0965,-1.68143 0.42332,-0.26282 0.41764,-0.28078 -0.0661,-0.20942 -0.3804,0.0561 -0.55218,0.31517 -0.61101,0.92146 -0.0589,0.60696 -0.1887,0.8024 -0.46302,0.69713 -0.20965,-0.0805 -0.5862,-0.0676 -0.83679,0.0286 -0.39029,0.14977 -0.39977,0.21015 -0.0661,0.42114 0.24839,0.15708 0.27304,0.24776 0.068,0.25035 -0.17678,0.002 -0.46417,0.27194 -0.63863,0.59936 -0.28837,0.54119 -0.27691,0.56207 0.12605,0.22964 0.3941,-0.32512 0.43559,-0.29697 0.37405,0.25373 -0.0479,0.42871 0.0852,0.65139 0.43241,0.72324 0.37865,0.0784 0.45996,-0.005 0.33168,-0.33905 -0.38551,-1.0046 0.90133,-1.88652 1.83906,-1.26038 0.46409,0.30987 0.89951,1.29208 0.89951,2.02907 0,0.37337 0.11906,0.67885 0.26458,0.67885 0.14552,0 0.26532,-0.14882 0.26621,-0.33073 z m 22.43686,-0.33773 c -0.0815,-0.0815 -0.22941,0.0654 -0.32877,0.32632 -0.14358,0.37709 -0.11319,0.40748 0.14812,0.14812 0.18082,-0.17948 0.26211,-0.39297 0.18065,-0.47444 z m -0.74265,0.1393 c 0,-0.14552 -0.0525,-0.26459 -0.11668,-0.26459 -0.0642,0 -0.19026,0.11907 -0.2802,0.26459 -0.0899,0.14552 -0.0374,0.26458 0.11668,0.26458 0.15411,0 0.2802,-0.11906 0.2802,-0.26458 z m -1.67854,-0.64819 c -0.19229,-0.40753 -0.39879,-0.55525 -0.5562,-0.39786 -0.15742,0.15739 -0.0592,0.39489 0.26458,0.63977 0.28322,0.21419 0.53351,0.39323 0.5562,0.39786 0.0227,0.005 -0.0964,-0.28327 -0.26458,-0.63977 z m 11.46812,0.10341 c 0,-0.29963 -0.11906,-0.4712 -0.26458,-0.38126 -0.14552,0.0899 -0.26459,0.33508 -0.26459,0.54478 0,0.20969 0.11907,0.38126 0.26459,0.38126 0.14552,0 0.26458,-0.24515 0.26458,-0.54478 z m -10.84792,-0.56647 c 0,-0.42742 -0.0782,-0.50385 -0.29444,-0.28764 -0.16195,0.16195 -0.21445,0.42388 -0.11668,0.58208 0.27368,0.44283 0.41112,0.3444 0.41112,-0.29444 z m 6.30753,-0.0918 c 0.36044,-0.79107 0.39881,-1.44276 0.085,-1.44276 -0.26403,0 -0.83623,1.18531 -0.83623,1.73224 0,0.60812 0.41521,0.44813 0.75128,-0.28948 z m 0.66732,0.27704 c -0.0838,-0.21829 -0.19909,-0.39688 -0.25628,-0.39688 -0.0572,0 -0.10398,0.17859 -0.10398,0.39688 0,0.21828 0.11532,0.39687 0.25628,0.39687 0.14095,0 0.18774,-0.17859 0.10398,-0.39687 z m 1.22724,0.25255 c 0,-0.0794 -0.29766,-0.44197 -0.66146,-0.80577 -0.75581,-0.75581 -0.89261,-0.50515 -0.19844,0.36361 0.436,0.54566 0.8599,0.76363 0.8599,0.44216 z m -10.05417,-0.45099 c 0,-0.10914 -0.74414,-0.21225 -1.65365,-0.22913 -0.9095,-0.0169 -1.44528,-0.0851 -1.19062,-0.15169 0.25466,-0.0666 0.46302,-0.23936 0.46302,-0.38402 0,-0.14965 -0.25657,-0.18549 -0.59531,-0.0831 -0.74602,0.22539 -1.09251,0.53776 -0.91503,0.82493 0.16979,0.27473 3.89159,0.29677 3.89159,0.0231 z m -21.22807,-0.46302 c 0.18176,-0.29104 0.23421,-0.52917 0.11656,-0.52917 -0.27563,0 -0.84891,0.57176 -0.84891,0.84667 0,0.38983 0.39851,0.21707 0.73235,-0.3175 z m 14.8055,0.19843 c -0.0642,-0.1819 -0.31222,-0.31419 -0.55122,-0.29398 -0.239,0.0202 -0.43454,-0.0691 -0.43454,-0.19843 0,-0.12936 0.18851,-0.23519 0.41892,-0.23519 0.23041,0 0.37626,-0.12799 0.32412,-0.28443 -0.0522,-0.15643 -0.18113,-0.27549 -0.28664,-0.26458 -0.1055,0.0109 -0.75737,0.0282 -1.44859,0.0384 -0.94561,0.014 -1.12576,0.0749 -0.7276,0.24599 0.45249,0.19444 0.46207,0.23008 0.0661,0.24598 -0.9666,0.0388 -0.41347,0.54777 0.59531,0.54777 0.58209,0 1.05834,0.11906 1.05834,0.26458 0,0.14552 0.24804,0.26458 0.55121,0.26458 0.32681,0 0.50372,-0.13464 0.43455,-0.33073 z m 10.12674,0.12245 c 0,-0.11455 -0.23813,-0.22621 -0.52917,-0.24813 -0.29104,-0.0219 -0.52917,0.0718 -0.52917,0.20827 0,0.13648 0.23813,0.24814 0.52917,0.24814 0.29104,0 0.52917,-0.0937 0.52917,-0.20828 z m -9.57329,-1.18078 c -0.0746,-0.99893 -0.0249,-1.11477 0.44516,-1.03752 0.47226,0.0776 0.48649,0.0431 0.13229,-0.32093 -0.50123,-0.51515 -2.2773,-0.70151 -2.18281,-0.22905 0.0364,0.1819 -0.11245,0.33073 -0.33073,0.33073 -0.21828,0 -0.39687,-0.1318 -0.39687,-0.29289 0,-0.16109 -0.1786,-0.22436 -0.39688,-0.1406 -0.21828,0.0838 -0.39687,0.037 -0.39687,-0.10398 0,-0.42477 -0.72501,-0.28789 -0.90074,0.17005 -0.12152,0.3167 -0.0511,0.38318 0.2737,0.25853 0.38262,-0.14682 0.39127,-0.11107 0.0692,0.28591 -0.30088,0.37082 -0.30232,0.41408 -0.008,0.23675 0.21701,-0.13069 0.44205,-0.0847 0.56584,0.11558 0.16161,0.2615 0.38703,0.24202 1.05489,-0.0912 0.72837,-0.36335 0.90217,-0.3709 1.22009,-0.053 0.20391,0.2039 0.37074,0.54809 0.37074,0.76487 0,0.47312 0.27278,1.23116 0.44304,1.23116 0.067,0 0.084,-0.50602 0.0378,-1.12448 z m 6.39829,0.8599 c 0,-0.14552 -0.16371,-0.26459 -0.3638,-0.26459 -0.2001,0 -0.76564,-0.0753 -1.25678,-0.16728 -0.62199,-0.11651 -0.81268,-0.0825 -0.62838,0.11194 0.14552,0.15356 0.62177,0.33006 1.05833,0.39222 0.43657,0.0622 0.88305,0.13084 0.99219,0.15265 0.10914,0.0218 0.19844,-0.0794 0.19844,-0.22494 z m -4.8694,-0.36764 c 0.0776,-0.2022 0.34174,-0.33835 0.58701,-0.30256 0.24526,0.0358 0.2971,0.0139 0.1152,-0.0486 -0.1819,-0.0625 -0.33073,-0.28358 -0.33073,-0.49119 0,-0.50989 -1.29517,-0.49305 -1.49182,0.0194 -0.21689,0.56522 0.0803,1.19063 0.56578,1.19063 0.22741,0 0.47697,-0.16544 0.55456,-0.36764 z m -13.51914,-0.16153 c -0.0899,-0.14552 -0.27556,-0.26458 -0.41249,-0.26458 -0.13694,0 -0.24897,0.11906 -0.24897,0.26458 0,0.14552 0.18562,0.26458 0.41249,0.26458 0.22687,0 0.3389,-0.11906 0.24897,-0.26458 z m 18.25625,-0.40508 c -0.93508,-0.76647 -1.16707,-0.81174 -1.07883,-0.21052 0.0357,0.2435 0.3228,0.46172 0.63792,0.48494 0.31512,0.0232 0.65237,0.12164 0.74946,0.21873 0.0971,0.0971 0.24597,0.17223 0.33086,0.167 0.0849,-0.005 -0.20285,-0.3023 -0.63941,-0.66015 z m 1.55793,0.0266 c -0.10398,-0.27097 0.10514,-0.40931 0.7359,-0.48683 l 0.88117,-0.1083 -0.97279,-0.0423 c -0.72001,-0.0313 -1.00953,0.078 -1.11419,0.42068 -0.0778,0.25466 -0.0781,5.8e-4 -8e-4,-0.56463 0.12342,-0.90174 0.0834,-1.0057 -0.32618,-0.84851 -0.43978,0.16876 -0.44086,0.15044 -0.0186,-0.3161 0.61294,-0.67729 0.5627,-0.93035 -0.11291,-0.56878 -0.30898,0.16536 -0.48826,0.18244 -0.39899,0.038 0.0917,-0.14832 -0.24341,-0.30962 -0.7712,-0.37124 -0.73889,-0.0863 -0.91531,-0.0233 -0.84693,0.30203 0.0552,0.26261 0.31923,0.38436 0.73136,0.33724 0.96551,-0.1104 0.29998,0.38197 -0.79897,0.59109 -0.68245,0.12987 -0.82165,0.10347 -0.52917,-0.10036 0.23305,-0.16241 0.26929,-0.27826 0.0878,-0.28064 -0.57704,-0.008 -1.14373,0.31492 -0.99013,0.56345 0.23699,0.38345 -1.2585,-0.0283 -2.00177,-0.5512 -0.36034,-0.25348 -0.72081,-0.73897 -0.80105,-1.07887 -0.19821,-0.83963 -0.78348,-0.99235 -0.82878,-0.21625 l -0.036,0.61736 -0.11666,-0.61056 c -0.14186,-0.74244 -0.70482,-0.62718 -0.82187,0.16827 -0.0573,0.38912 0.0545,0.57458 0.34635,0.57458 0.23699,0 0.35731,0.11907 0.26737,0.26459 -0.0899,0.14552 -0.0374,0.26458 0.11668,0.26458 0.1541,0 0.28019,-0.13292 0.28019,-0.29537 0,-0.16245 0.4766,0.1352 1.0591,0.66146 0.5825,0.52625 1.29688,0.95683 1.5875,0.95683 0.2933,0 0.5284,0.17658 0.5284,0.39687 0,0.21828 0.1318,0.39688 0.29289,0.39688 0.16109,0 0.22436,-0.1786 0.1406,-0.39688 -0.10656,-0.2777 0.024,-0.40036 0.43471,-0.40849 0.32286,-0.006 1.0376,-0.17236 1.58832,-0.36883 0.79349,-0.28308 0.94269,-0.28657 0.71883,-0.0169 -0.21168,0.25506 -0.0979,0.47805 0.4539,0.88962 0.85816,0.64008 1.44374,0.7289 1.23598,0.18748 z m 1.28634,0.20329 c -0.1819,-0.0734 -0.47956,-0.0734 -0.66146,0 -0.1819,0.0734 -0.0331,0.13345 0.33073,0.13345 0.3638,0 0.51263,-0.06 0.33073,-0.13345 z m -4.43365,-0.35091 c 0.0927,-0.14998 -0.0135,-0.19433 -0.24897,-0.10398 -0.45836,0.17589 -0.54223,0.36554 -0.16164,0.36554 0.13693,0 0.32171,-0.1177 0.41061,-0.26156 z m -18.69703,-0.91707 c -0.0595,-0.27178 -0.20496,-0.32089 -0.46637,-0.15749 -0.326,0.20378 -0.32738,0.3007 -0.01,0.68351 0.3854,0.46438 0.63306,0.19073 0.47604,-0.52602 z m -2.4209,-0.461 c 0.10398,0.25813 0.22977,0.22489 0.50061,-0.13229 0.42839,-0.56494 0.48582,-1.1385 0.11399,-1.1385 -0.14552,0 -0.27264,0.26789 -0.28249,0.59531 l -0.0179,0.59532 -0.28812,-0.59758 c -0.21274,-0.44123 -0.20313,-0.78733 0.0367,-1.32291 0.2915,-0.65091 0.28312,-0.68459 -0.0816,-0.32825 -0.22356,0.2184 -0.43594,0.78395 -0.47197,1.25677 -0.036,0.47282 -0.16627,0.85967 -0.28942,0.85967 -0.12316,0 -0.14248,0.13178 -0.0429,0.29283 0.12647,0.20465 0.25677,0.18472 0.43263,-0.0661 0.20402,-0.29103 0.27794,-0.29373 0.39052,-0.0142 z m 11.19793,0.0521 c 0,-0.14552 -0.11906,-0.26459 -0.26458,-0.26459 -0.14552,0 -0.26459,0.11907 -0.26459,0.26459 0,0.14552 0.11907,0.26458 0.26459,0.26458 0.14552,0 0.26458,-0.11906 0.26458,-0.26458 z m 8.73125,-0.68026 c 0.64895,-0.13197 1.05833,-0.5365 1.05833,-1.04579 0,-0.33611 -0.10332,-0.65079 -0.22961,-0.6993 -0.12628,-0.0485 -0.3055,-0.38585 -0.39826,-0.74965 -0.16557,-0.64934 -0.16305,-0.65055 0.13775,-0.0661 0.16852,0.32742 0.40727,0.59531 0.53056,0.59531 0.12328,0 0.22415,0.18267 0.22415,0.40593 0,0.27856 0.2044,0.37855 0.65145,0.31869 0.88248,-0.11819 1.12009,-0.4091 0.5109,-0.62552 -0.27549,-0.0979 -0.77652,-0.42636 -1.1134,-0.72997 -0.33688,-0.3036 -0.95085,-0.56903 -1.36438,-0.58983 -0.59317,-0.0298 -0.77688,0.0931 -0.87039,0.58222 -0.0652,0.34101 0.004,0.66097 0.15445,0.71101 0.15014,0.05 0.18477,0.23371 0.077,0.40814 -0.14716,0.2381 -0.29492,0.21823 -0.59288,-0.0797 -0.21828,-0.21828 -0.3145,-0.53016 -0.21382,-0.69307 0.10068,-0.16291 0.019,-0.40012 -0.18157,-0.52715 -0.27989,-0.17728 -0.24165,-0.23579 0.16454,-0.25177 0.48633,-0.0191 0.48096,-0.0402 -0.0664,-0.26022 -0.32758,-0.13166 -0.78028,-0.16853 -1.006,-0.0819 -0.35063,0.13455 -0.33132,0.23116 0.13259,0.66335 0.29864,0.27822 0.54298,0.64678 0.54298,0.81901 0,0.17223 -0.18304,0.0518 -0.40676,-0.26757 -0.55598,-0.79378 -2.74154,-1.39296 -4.99908,-1.37051 -2.25933,0.0225 -1.63925,0.46315 0.69226,0.49197 2.31077,0.0286 3.37408,0.56754 3.91225,1.98305 0.31931,0.83985 0.7999,0.89121 0.80538,0.0861 0.002,-0.32742 0.0915,-0.47625 0.19844,-0.33073 0.29683,0.40402 0.8696,0.45025 1.28696,0.10387 0.45998,-0.38175 0.75054,-0.14542 0.52948,0.43066 -0.0959,0.24996 -0.30012,0.34618 -0.49571,0.23357 -0.18293,-0.10531 -0.24433,-0.0941 -0.13646,0.025 0.10788,0.11909 0.0483,0.39916 -0.13229,0.62238 -0.27312,0.33752 -0.2616,0.36458 0.0684,0.16069 0.21829,-0.13485 0.45641,-0.25728 0.52917,-0.27208 z M 213.05945,162.01 c 0,-0.37752 -0.72411,-0.26766 -0.87794,0.13321 -0.0988,0.25741 0.0112,0.32717 0.36857,0.23372 0.28015,-0.0733 0.50937,-0.23838 0.50937,-0.36693 z m -3.63163,-1.49049 c 0.30188,-0.32742 0.41879,-0.59531 0.25981,-0.59531 -0.15899,0 -0.46827,-0.0688 -0.68729,-0.15282 -0.47991,-0.18415 -1.08756,0.80777 -0.78582,1.28276 0.11364,0.1789 0.22333,0.41456 0.24374,0.5237 0.0998,0.53339 0.1755,0.5505 0.29267,0.0661 0.0704,-0.29104 0.37501,-0.79706 0.67689,-1.12448 z m -0.99858,-0.0661 c 0.0899,-0.14552 0.36486,-0.26276 0.61093,-0.26053 0.38557,0.003 0.39255,0.0395 0.0505,0.26053 -0.51815,0.33486 -0.86841,0.33486 -0.66146,0 z m -15.10238,0.38688 c 0.0927,-0.3693 0.0604,-0.86468 -0.0718,-1.10084 -0.18119,-0.32377 -0.2661,-0.15863 -0.34527,0.67146 -0.11565,1.21277 0.15141,1.48773 0.41704,0.42938 z m 3.19613,0.40687 c 0.0899,-0.14552 -0.0519,-0.27839 -0.31511,-0.29527 -0.44234,-0.0284 -0.44353,-0.0399 -0.0156,-0.15169 0.54797,-0.1432 0.62334,-0.61137 0.0984,-0.61137 -0.20053,0 -0.56441,0.26789 -0.80862,0.59531 -0.32162,0.4312 -0.4051,0.46598 -0.30281,0.12617 0.11919,-0.39601 0.0596,-0.42549 -0.382,-0.18913 -0.28777,0.15401 -0.52322,0.34239 -0.52322,0.41862 0,0.0762 0.11907,0.065 0.26459,-0.0249 0.14552,-0.0899 0.26458,-0.0374 0.26458,0.11668 0,0.35585 1.50109,0.36948 1.71979,0.0156 z m 1.17203,-0.18282 c 0.0102,0.26325 0.13766,0.40505 0.28318,0.31512 0.45073,-0.27857 0.29284,-1.12827 -0.3481,-1.87341 -0.47502,-0.55225 -0.85021,-0.7123 -1.66977,-0.7123 -1.27632,0 -2.21692,0.45667 -2.21141,1.07366 0.003,0.31374 0.0669,0.35485 0.20771,0.13325 0.3129,-0.49237 2.02267,-1.12442 2.40405,-0.88872 0.4578,0.28294 -0.31564,0.59015 -0.96217,0.38217 -0.39082,-0.12572 -0.40114,-0.10443 -0.0661,0.13654 0.21828,0.15702 0.64988,0.28732 0.95911,0.28955 0.41806,0.003 0.6104,0.22456 0.75002,0.86394 0.16609,0.76056 0.21361,0.79876 0.41135,0.33073 0.19932,-0.47175 0.22559,-0.47723 0.24217,-0.0505 z m -0.58169,-1.11888 c -0.11508,-0.4401 -0.0807,-0.5434 0.11569,-0.34706 0.15375,0.15375 0.22749,0.43572 0.16386,0.6266 -0.0661,0.19816 -0.18599,0.0782 -0.27955,-0.27954 z m 21.19149,0.65751 c -0.0473,-0.12875 0.39026,-0.38244 0.97234,-0.56376 0.94796,-0.29528 0.99625,-0.34928 0.46302,-0.51776 -0.32742,-0.10345 -0.59531,-0.27805 -0.59531,-0.388 0,-0.28473 -1.8708,-0.5469 -2.57969,-0.36151 -0.8097,0.21176 -0.75356,0.62314 0.085,0.62314 0.76816,0 1.60116,0.66063 1.16943,0.92746 -0.14901,0.0921 -0.19854,0.28456 -0.11007,0.42771 0.19404,0.31395 0.71711,0.18453 0.59523,-0.14728 z m -23.50162,-0.67872 c 0,-0.14552 -0.0525,-0.26459 -0.11668,-0.26459 -0.0642,0 -0.19026,0.11907 -0.28019,0.26459 -0.0899,0.14552 -0.0374,0.26458 0.11667,0.26458 0.15411,0 0.2802,-0.11906 0.2802,-0.26458 z m 33.08007,30.70892 c -0.18077,-0.4364 -0.49445,-0.93105 -0.69708,-1.09921 -0.4215,-0.34982 -0.50597,-0.88638 -0.10004,-0.6355 0.34105,0.21078 1.39456,2.25939 1.24091,2.41304 -0.0633,0.0633 -0.26303,-0.24193 -0.44379,-0.67833 z m -0.1026,-2.3389 c -0.0697,-0.11273 -0.0294,-0.61875 0.0896,-1.12448 l 0.21628,-0.9195 0.0271,1.12448 c 0.0262,1.08729 -0.0682,1.34791 -0.33295,0.9195 z m -2.07083,-9.23618 c 0.191,-0.0764 0.4192,-0.067 0.50712,0.0209 0.0879,0.0879 -0.0684,0.15045 -0.34726,0.13896 -0.30823,-0.0127 -0.37092,-0.0754 -0.15986,-0.15985 z"
       id="path4998" />
  </g>
</svg>
