<?xml version="1.0" encoding="UTF-8" standalone="no"?>
<!-- Created with Inkscape (http://www.inkscape.org/) -->

<svg
   width="61.538502mm"
   height="58.922676mm"
   viewBox="0 0 61.538503 58.922675"
   version="1.1"
   id="svg5"
   inkscape:version="1.1 (c4e8f9ed74, 2021-05-24)"
   sodipodi:docname="ornatec4.svg"
   xmlns:inkscape="http://www.inkscape.org/namespaces/inkscape"
   xmlns:sodipodi="http://sodipodi.sourceforge.net/DTD/sodipodi-0.dtd"
   xmlns="http://www.w3.org/2000/svg"
   xmlns:svg="http://www.w3.org/2000/svg">
  <sodipodi:namedview
     id="namedview7"
     pagecolor="#ffffff"
     bordercolor="#666666"
     borderopacity="1.0"
     inkscape:pageshadow="2"
     inkscape:pageopacity="0.0"
     inkscape:pagecheckerboard="0"
     inkscape:document-units="mm"
     showgrid="false"
     inkscape:zoom="0.94615212"
     inkscape:cx="22.723619"
     inkscape:cy="122.07339"
     inkscape:window-width="2506"
     inkscape:window-height="1403"
     inkscape:window-x="1974"
     inkscape:window-y="0"
     inkscape:window-maximized="1"
     inkscape:current-layer="layer1" />
  <defs
     id="defs2" />
  <g
     inkscape:label="Layer 1"
     inkscape:groupmode="layer"
     id="layer1"
     transform="translate(-157.8028,-121.71497)">
    <path
       style="fill:#000000;stroke-width:0.432949"
       d="m 158.95664,180.18489 c -0.772,-0.56679 -0.79573,-0.73616 -0.24687,-1.76171 0.46652,-0.8717 0.48887,-1.25301 0.0965,-1.64544 -0.6236,-0.62359 -0.67646,-5.6105 -0.0815,-7.68511 0.32196,-1.1226 0.25759,-2.10904 -0.25737,-3.94435 -0.63841,-2.27527 -0.63391,-2.55036 0.064,-3.91203 0.4129,-0.80557 0.95995,-1.59928 1.21566,-1.7638 0.31725,-0.20411 0.2293,-0.79323 -0.27689,-1.85472 -0.408,-0.85558 -0.74181,-2.51396 -0.74181,-3.68528 0,-1.17133 -0.22069,-2.61405 -0.49042,-3.20604 -0.40497,-0.88882 -0.32807,-1.38784 0.4414,-2.86409 l 0.93181,-1.78773 -0.95095,-1.33548 c -0.88482,-1.24262 -0.91765,-1.52987 -0.47211,-4.13092 0.30358,-1.77225 0.79751,-3.09233 1.34948,-3.60657 0.86883,-0.80944 0.86794,-0.81383 -0.43206,-2.11383 l -1.30271,-1.3027 0.234,-5.28301 c 0.25439,-5.74335 0.30948,-5.85982 3.07278,-6.49624 1.56,-0.35929 7.35698,0.41153 8.88044,1.18083 0.9363,0.4728 1.22864,0.43466 2.10447,-0.27455 0.55942,-0.45299 1.44791,-0.82362 1.97441,-0.82362 1.35172,0 5.07998,1.29316 5.9818,2.07481 0.6849,0.59364 0.83789,0.56336 1.6013,-0.31686 0.46422,-0.53525 1.54646,-1.13161 2.40496,-1.32524 1.64842,-0.37178 11.16802,-0.2388 11.8216,0.16514 0.21083,0.1303 1.43611,0.0653 2.72285,-0.14435 1.98932,-0.32418 2.5602,-0.25329 3.81381,0.47358 1.08622,0.62981 1.5581,0.71921 1.79269,0.33965 0.40546,-0.65605 4.55226,-1.34141 6.25791,-1.03426 5.22009,0.94 6.8137,2.19088 5.82674,4.57361 -0.28771,0.6946 -0.52311,1.75799 -0.52311,2.36308 0,0.8549 -0.26651,1.15348 -1.1954,1.33926 -1.36284,0.27257 -2.15996,1.66179 -2.15996,3.76442 0,2.27412 1.41517,3.22577 2.19091,1.47331 l 0.43121,-0.97414 -0.18815,0.97414 c -0.10349,0.53577 -0.0559,0.97413 0.10581,0.97413 0.64649,0 1.91476,3.10928 1.8085,4.4337 -0.0623,0.77612 -0.0818,1.9956 -0.0434,2.70997 0.18922,3.52149 0.0639,5.8487 -0.3537,6.56688 -0.48391,0.8323 -0.61075,-0.39917 -0.67638,-6.56688 -0.0368,-3.45667 -0.34125,-4.13342 -2.63173,-5.84961 -1.37079,-1.02709 -1.78485,-1.56114 -1.40231,-1.8087 0.38616,-0.2499 0.26168,-0.42832 -0.43133,-0.61824 -0.53578,-0.14682 -1.00241,-0.48777 -1.03696,-0.75765 -0.2044,-1.59648 -0.10643,-3.73683 0.17106,-3.73728 0.17859,-2.9e-4 0.32471,-0.19845 0.32471,-0.44035 0,-0.24191 -0.53577,-0.42436 -1.19061,-0.40545 -0.65483,0.0189 -1.5593,-0.0267 -2.00991,-0.10136 -0.45062,-0.0747 -0.90522,0.10779 -1.01021,0.40544 -0.12694,0.35984 0.29269,0.55039 1.25225,0.56863 1.25825,0.0239 1.32322,0.0758 0.5071,0.40492 -1.75304,0.70691 -1.70911,2.61089 0.16225,7.03248 0.4544,1.07364 1.3106,1.98626 2.53862,2.70593 2.1677,1.27036 2.6833,1.36832 1.86003,0.35339 -0.51215,-0.6314 -0.50453,-0.68208 0.0552,-0.3671 1.20963,0.68067 2.14535,1.64666 1.931,1.99347 -0.11733,0.18985 -0.0153,0.46755 0.22669,0.61712 0.242,0.14956 0.44001,0.49172 0.44001,0.76034 0,0.26862 -0.60675,-0.0838 -1.34833,-0.78322 l -1.34833,-1.27161 1.13186,2.25859 c 1.10524,2.2055 1.59294,4.10376 0.6989,2.72033 -0.33818,-0.5233 -0.42098,-0.45683 -0.42632,0.34224 -0.003,0.54542 -0.42253,1.5542 -0.93085,2.24174 -1.03599,1.40125 -0.83824,2.57124 0.49345,2.91949 0.47505,0.12422 0.86372,0.49538 0.86372,0.82479 0,0.89344 -0.23369,0.7816 -3.04563,-1.45758 -3.21598,-2.56091 -4.50328,-5.19788 -3.22632,-6.60891 0.4278,-0.47271 1.03985,-0.85947 1.36013,-0.85947 0.37688,0 0.58232,-0.5346 0.58232,-1.51532 0,-1.08381 -0.1922,-1.51532 -0.67497,-1.51532 -0.39906,0 -0.56176,-0.22123 -0.39802,-0.54119 0.15232,-0.29765 -0.22583,0.005 -0.84035,0.67357 -0.61452,0.66811 -1.1095,1.44742 -1.09997,1.7318 0.01,0.28437 0.31702,-0.036 0.68331,-0.71185 0.36628,-0.67589 0.7759,-1.11895 0.91026,-0.9846 0.13435,0.13436 0.0558,0.49253 -0.17456,0.79594 -0.70134,0.92372 -1.46012,4.09107 -1.18441,4.94407 0.14274,0.44163 0.46113,1.22549 0.70753,1.74189 0.48267,1.01157 0.35913,2.21446 -0.56131,5.46515 -0.41672,1.47177 -0.45658,2.28199 -0.13714,2.78841 0.77005,1.22078 1.49279,1.1228 2.01996,-0.27383 0.78781,-2.08715 1.28202,-1.58694 1.11663,1.13019 -0.13814,2.26953 -0.0625,2.51645 0.92267,3.0117 0.89488,0.44986 1.0506,0.80119 0.93741,2.11499 -0.1,1.16063 0.11852,1.84616 0.82982,2.6033 1.87547,1.99634 2.41592,-0.19965 0.58473,-2.3759 -0.61648,-0.73264 -0.90585,-1.33207 -0.64307,-1.33207 0.2628,0 0.86387,0.63319 1.33572,1.40709 0.61694,1.01184 0.85837,1.18225 0.85954,0.60665 8.6e-4,-0.44024 -0.60347,-1.36566 -1.34302,-2.05651 -0.73955,-0.69084 -1.15306,-1.25608 -0.91891,-1.25608 0.23415,0 0.66648,0.2901 0.96074,0.64466 0.79252,0.95493 1.12654,0.50061 1.23974,-1.68625 0.13581,-2.62364 -0.76311,-4.20182 -3.62335,-6.36133 -1.30618,-0.98618 -2.37488,-1.98973 -2.37488,-2.23011 0,-0.64848 4.3835,3.21466 5.57815,4.91598 0.75588,1.07645 0.9587,1.20917 0.75767,0.4958 -0.86313,-3.06281 -0.86613,-3.02838 0.16175,-1.85558 0.78365,0.89412 0.8884,1.38477 0.64702,3.03065 -0.15841,1.08009 -0.32082,3.42501 -0.36094,5.21093 -0.0401,1.78592 -0.21776,3.46996 -0.39477,3.74232 -0.17701,0.27235 -0.024,1.20804 0.34005,2.07931 0.66862,1.60022 0.5347,3.91446 -0.32244,5.57233 -0.28501,0.55125 -0.20317,1.09738 0.27346,1.8248 1.00729,1.53732 0.83896,2.25844 -0.72689,3.11396 -1.80596,0.98671 -11.65148,1.14223 -13.17216,0.20807 -0.79295,-0.48711 -1.24615,-0.47478 -2.87504,0.0782 -1.3799,0.46849 -2.81524,0.58261 -5.01172,0.39846 -1.69291,-0.14192 -3.07299,-0.37591 -3.06684,-0.51997 0.006,-0.14405 0.74539,-0.59977 1.64279,-1.01271 0.89739,-0.41293 2.01262,-1.09483 2.47828,-1.51532 0.46568,-0.42049 1.18289,-0.82069 1.59381,-0.88933 0.95056,-0.15878 3.27747,1.02581 4.61553,2.3497 1.26098,1.24761 3.31603,1.45031 2.68217,0.26456 -0.22275,-0.41672 -0.49594,-1.06059 -0.60708,-1.43084 -0.11114,-0.37025 -1.05079,-0.93991 -2.08812,-1.2659 -2.19313,-0.68922 -3.10864,-1.29754 -1.48592,-0.98734 1.22499,0.23418 1.57425,-0.60468 0.43395,-1.04225 -0.48231,-0.18508 0.0601,-0.67924 1.85764,-1.6922 1.39639,-0.78693 2.90211,-1.83214 3.34605,-2.32269 0.97273,-1.07485 1.61616,-1.16417 1.23522,-0.17146 -0.18871,0.49177 -0.11204,0.61883 0.24154,0.4003 0.28491,-0.17608 0.4699,-0.54899 0.4111,-0.82868 -0.0588,-0.2797 0.52052,-1.36579 1.28737,-2.41354 0.76685,-1.04774 1.38808,-1.63222 1.38051,-1.29885 -0.008,0.33338 -0.29982,0.98434 -0.64943,1.44656 -0.85139,1.12564 -0.80674,3.45755 0.0803,4.19374 0.39379,0.3268 1.54891,0.59419 2.56695,0.59419 1.26455,0 1.63955,0.11833 1.18363,0.37347 -0.36704,0.2054 -1.3317,0.26565 -2.14369,0.13388 -0.87181,-0.14147 -1.37328,-0.0728 -1.22463,0.16772 0.33751,0.5461 3.07963,0.51893 4.12563,-0.0409 1.1089,-0.59346 1.06152,-2.18081 -0.10952,-3.66955 -0.61042,-0.77602 -0.72582,-1.13081 -0.32471,-0.99833 1.043,0.3445 1.75122,2.19543 1.5348,4.01119 -0.13535,1.13558 -0.0706,1.49887 0.19288,1.08237 0.21815,-0.34481 0.39961,-1.27458 0.40326,-2.06615 0.005,-1.16342 -0.46515,-1.93383 -2.45519,-4.02018 -1.37153,-1.43791 -2.71372,-2.48427 -3.03064,-2.36267 -0.43933,0.16859 -0.56977,-0.54251 -0.57293,-3.12348 l -0.004,-3.34177 -1.12061,1.86986 c -0.61633,1.02843 -1.22673,1.76374 -1.35645,1.63403 -0.12971,-0.12972 0.0145,-0.53751 0.3205,-0.9062 0.30599,-0.36869 0.42376,-0.80293 0.26172,-0.96498 -0.36511,-0.3651 -4.83168,-0.28746 -5.45009,0.0947 -0.27706,0.17124 0.0774,1.01619 0.9165,2.18458 0.75257,1.04794 1.53807,1.80043 1.74556,1.6722 0.44798,-0.27688 -1.10261,-2.56985 -2.15144,-3.18151 -0.53963,-0.3147 0.002,-0.43161 2.04398,-0.44129 1.52795,-0.007 2.63776,0.12717 2.46623,0.29869 -0.17152,0.17152 -0.9833,0.25401 -1.80395,0.18331 -1.6688,-0.14378 -1.83257,0.14282 -0.7593,1.32877 0.71356,0.78847 0.74594,0.78519 1.23304,-0.12495 0.45484,-0.84989 0.52682,-0.86538 0.7934,-0.17068 0.45461,1.18469 -4.61435,5.71064 -7.65241,6.83265 -0.46739,0.17261 -0.6741,0.11654 -0.51564,-0.13987 0.15518,-0.2514 -0.37146,-0.428 -1.27656,-0.428 -1.61042,0 -1.89537,0.33822 -1.02133,1.21226 1.11446,1.11446 -0.0735,0.44625 -1.38544,-0.77931 -1.63337,-1.52579 -1.8019,-1.54272 -4.25879,-0.4278 -2.25585,1.02369 -2.17823,1.90627 0.17924,2.03809 1.12112,0.0627 1.42688,-0.0177 0.89965,-0.23653 -0.71777,-0.29791 -0.68281,-0.38428 0.34508,-0.85262 1.45409,-0.66253 1.53597,-0.65569 1.53597,0.12829 0,0.35718 0.34095,0.66312 0.75766,0.67985 1.56053,0.0627 -0.92535,0.77381 -2.81417,0.80504 -1.01202,0.0167 -1.84003,0.22526 -1.84003,0.46338 0,1.24636 6.55713,-0.0282 10.59445,-2.05933 2.32917,-1.17178 7.40734,-5.77686 7.82643,-7.09731 0.44343,-1.39712 1.06184,-0.40985 1.06184,1.69519 0,1.90627 -0.14819,2.15693 -2.81151,4.75557 -3.47875,3.39427 -8.5199,5.95591 -12.92893,6.5698 -2.88492,0.40168 -4.32382,0.89852 -2.60218,0.89852 0.4683,0 1.05759,0.20613 1.30951,0.45806 0.32211,0.32209 0.95818,0.19759 2.1431,-0.4195 1.97204,-1.02699 3.36603,-1.29781 3.54124,-0.68798 0.0684,0.23812 -0.61348,0.54229 -1.51532,0.67592 -0.90184,0.13363 -2.31303,0.59774 -3.13596,1.03136 -1.01438,0.53449 -1.54887,0.63053 -1.65964,0.29822 -0.2015,-0.6045 -2.25598,-0.65662 -2.25598,-0.0572 0,0.23813 0.40115,0.43295 0.89145,0.43295 0.49029,0 0.77104,0.19483 0.62387,0.43295 -0.71015,1.14905 -3.44332,-0.0291 -4.43986,-1.91386 -0.26831,-0.50746 -1.3448,-1.06223 -2.76233,-1.42358 -6.54406,-1.66815 -12.8294,-6.44673 -15.54148,-11.81579 -2.34768,-4.64766 -3.3753,-12.02845 -2.28929,-16.44269 1.70071,-6.91282 4.10209,-11.12476 8.03969,-14.10139 1.6232,-1.22706 2.04116,-1.92713 1.15053,-1.92713 -0.91312,0 -5.92124,5.45986 -7.04837,7.68414 -2.46409,4.86265 -3.45269,9.65469 -3.07767,14.91838 0.3452,4.84513 0.86959,7.00975 2.4432,10.08517 1.89424,3.70207 3.04439,5.09785 6.10598,7.40998 3.51882,2.65743 3.62157,2.75461 2.64173,2.49838 -1.18161,-0.309 -1.33978,1.7987 -0.1815,2.41859 1.11232,0.5953 1.32146,0.56296 1.32146,-0.20437 0,-0.35718 0.30374,-0.64942 0.67498,-0.64942 0.4051,0 0.54981,-0.20253 0.36192,-0.50653 -0.22029,-0.35644 -0.0675,-0.40701 0.51564,-0.17068 1.35753,0.55017 4.21149,1.45334 5.43116,1.71875 0.62638,0.13631 1.25969,0.59091 1.40736,1.01023 0.14767,0.41932 0.39105,1.03305 0.54085,1.36385 0.17171,0.37917 0.0916,0.48973 -0.21675,0.29916 -0.26902,-0.16626 -0.48912,-0.0797 -0.48912,0.19229 0,0.27202 0.24354,0.40766 0.54119,0.30143 0.53582,-0.19123 2.92241,0.80912 2.92241,1.22494 0,0.1187 -0.7306,0.18701 -1.62356,0.1518 -0.89296,-0.0352 -2.73909,0.0465 -4.10251,0.18168 -2.57203,0.25491 -3.84605,-0.28067 -1.6923,-0.71142 1.10579,-0.22116 1.21699,-0.4032 1.12923,-1.84868 -0.0716,-1.17941 -0.36917,-1.75406 -1.12536,-2.17328 -1.53942,-0.85343 -3.40794,-0.76749 -3.41515,0.15707 -0.003,0.41671 -0.12097,1.18676 -0.26159,1.71122 -0.2421,0.90291 -0.18507,0.9269 1.07376,0.45175 0.7312,-0.276 1.40372,-0.80251 1.49449,-1.17004 0.1177,-0.47651 0.2936,-0.35769 0.61312,0.41415 0.47947,1.15826 0.2273,2.17821 -0.31971,1.29313 -0.23973,-0.38789 -0.45509,-0.3128 -0.79861,0.27849 -0.2587,0.44528 -0.47629,0.64957 -0.48353,0.45397 -0.007,-0.1956 -0.31933,-0.0495 -0.69352,0.32471 -0.81125,0.81125 -5.16317,0.95003 -5.63918,0.17983 -0.22091,-0.35745 0.11652,-0.43141 1.18044,-0.25877 1.80621,0.29311 3.92125,-0.0582 3.5888,-0.59613 -0.13274,-0.21478 -0.45581,-0.25795 -0.71795,-0.0959 -0.31979,0.19764 -0.37062,0.0219 -0.15448,-0.53413 0.56159,-1.4447 0.49773,-1.67048 -0.51618,-1.82481 -0.54484,-0.0829 -1.22002,-0.51812 -1.50039,-0.96707 -0.48231,-0.7723 -0.5548,-0.77639 -1.34536,-0.076 -0.80366,0.71203 -0.81655,0.70402 -0.33731,-0.20971 0.27405,-0.52251 0.69205,-1.06978 0.92889,-1.21616 0.78457,-0.48489 0.44666,-1.83674 -0.63652,-2.54646 -1.59897,-1.04769 -2.78029,-0.88476 -3.28915,0.45366 -0.47791,1.25699 -0.21994,1.7104 1.10917,1.94947 0.72017,0.12954 0.87499,0.51917 0.9199,2.31501 0.0369,1.47604 -0.0562,1.88527 -0.29428,1.29336 -0.28125,-0.69924 -0.35414,-0.72499 -0.37871,-0.13379 -0.0167,0.40266 0.1644,0.85252 0.40252,0.99969 0.23812,0.14716 0.43295,0.48338 0.43295,0.74713 0,0.26376 -0.13031,0.34925 -0.28958,0.18998 -0.15927,-0.15927 -0.59763,-0.0115 -0.97414,0.32836 -1.04349,0.94195 -11.208,1.37855 -12.3624,0.53101 z m 5.9816,-1.03882 c 0.47639,-0.41672 0.72515,-0.51636 0.55279,-0.22143 -0.21172,0.36227 -0.0954,0.45258 0.35853,0.27839 0.3705,-0.14218 0.67191,-0.0314 0.67191,0.24698 0,0.27765 0.19483,0.38441 0.43295,0.23725 0.50327,-0.31104 0.58679,-1.10667 0.10823,-1.03111 -0.82959,0.13099 -0.96773,-0.12016 -0.52308,-0.951 0.26484,-0.49485 0.37261,-1.18356 0.23949,-1.53046 -0.21046,-0.54844 -0.40971,-0.54402 -1.52716,0.0338 -1.63386,0.8449 -3.16744,0.84295 -4.92146,-0.006 -1.35784,-0.6574 -1.36743,-0.65494 -0.479,0.12294 0.75322,0.6595 0.80815,0.88573 0.32471,1.33733 -0.84531,0.78967 -0.71348,1.37534 0.30958,1.37534 0.49029,0 0.77104,0.19483 0.62387,0.43295 -0.47361,0.76633 2.90935,0.47941 3.82864,-0.32471 z m 5.27853,0.0584 c 0.62068,-0.40668 1.04909,-1.08593 1.02399,-1.62356 -0.0385,-0.82453 -0.0771,-0.80747 -0.35714,0.15803 -0.2564,0.88393 -0.37194,0.63661 -0.63016,-1.34897 -0.24538,-1.88694 -0.60217,-2.70535 -1.59342,-3.65502 -0.70248,-0.67302 -1.51974,-1.26341 -1.81614,-1.31197 -0.2964,-0.0486 -1.07468,-0.22708 -1.72952,-0.3967 -1.07337,-0.27803 -1.19061,-0.19719 -1.19061,0.82091 0,0.62112 0.20633,1.12931 0.4585,1.12931 0.25218,0 0.31949,0.22493 0.14958,0.49984 -0.18939,0.30644 -0.11897,0.38245 0.18198,0.19645 1.25945,-0.77838 4.01638,2.38619 3.91954,4.4991 -0.0459,1.00168 -0.0743,0.98554 -0.3801,-0.21647 l -0.3305,-1.29885 -0.0512,1.33493 c -0.0792,2.06396 0.54988,2.38933 2.34523,1.21297 z m 14.87837,-0.0584 c -0.0237,-0.41672 -0.19914,-1.24473 -0.38979,-1.84004 -0.28881,-0.90178 -0.35483,-0.9379 -0.39571,-0.21647 -0.027,0.47624 -0.16654,1.30426 -0.31013,1.84003 -0.19192,0.71616 -0.0757,0.97414 0.43887,0.97414 0.39439,0 0.68108,-0.33073 0.65676,-0.75766 z m 13.86544,0.37785 c 0.57765,-0.16142 1.12515,-0.51812 1.21666,-0.79267 0.18787,-0.56359 -5.68167,-0.53602 -6.24704,0.0293 -0.91072,0.91073 2.59777,1.44312 5.03038,0.76333 z m 8.76659,-2.87449 c -0.74513,-1.63537 -1.37359,-1.28731 -1.38098,0.76484 -0.005,1.34754 -0.11897,1.66621 -0.42632,1.19061 -0.47654,-0.7374 -0.56368,-0.4115 -0.16663,0.62321 0.22617,0.58938 0.43199,0.52836 1.36507,-0.40472 0.95179,-0.9518 1.03323,-1.24256 0.60886,-2.17394 z m 1.62449,2.76756 c 1.0337,-0.36035 1.52264,-0.36035 1.88299,0 1.38969,1.38969 3.5997,-0.33793 3.85485,-3.01343 0.18064,-1.89425 0.19784,-1.87315 -1.0028,-1.23059 -0.8345,0.44661 -0.84133,0.42366 -0.17606,-0.59167 0.67754,-1.03405 0.66856,-1.0518 -0.42598,-0.84257 -0.91011,0.17398 -1.09354,0.42498 -0.98609,1.34933 0.0821,0.70583 -0.0728,1.11921 -0.40917,1.0923 -1.71806,-0.13744 -2.11482,-0.22333 -2.6781,-0.57976 -0.51514,-0.32597 -0.52459,-0.51018 -0.0552,-1.07574 0.65401,-0.78804 0.33091,-0.87533 -0.86697,-0.23424 -1.09646,0.5868 -1.05782,1.04501 0.1367,1.6211 0.53577,0.2584 0.7306,0.483 0.43294,0.49911 -0.3275,0.0177 -0.54118,0.64589 -0.54118,1.59095 0,1.21025 -0.14613,1.50557 -0.64943,1.31243 -0.35718,-0.13706 -0.64942,-0.0605 -0.64942,0.17016 0,0.54201 0.42321,0.52864 2.13294,-0.0674 z m -25.86579,-1.77181 c -0.31067,-0.31067 -0.51232,-0.33623 -0.51232,-0.0649 0,0.5779 0.51201,1.08991 0.80095,0.80096 0.12303,-0.12303 -0.007,-0.45423 -0.28863,-0.73601 z m 15.07386,0.0938 c 0.48698,-0.31471 0.27039,-0.41969 -0.8659,-0.41969 -1.13629,0 -1.35288,0.10498 -0.8659,0.41969 0.35718,0.23083 0.74684,0.41969 0.8659,0.41969 0.11906,0 0.50871,-0.18886 0.8659,-0.41969 z m 7.08761,-1.34331 c 0.31616,-1.58076 0.0531,-2.17503 -0.81535,-1.84179 -0.51881,0.19908 -0.63057,1.63078 -0.24019,3.07687 0.0161,0.0595 0.19969,0.10823 0.40805,0.10823 0.20836,0 0.49973,-0.60449 0.64749,-1.34331 z m -15.99847,-0.91988 c 0.50185,-2.02551 -0.1752,-4.34733 -1.85393,-6.35772 -0.89495,-1.07176 -1.44666,-1.39547 -2.00995,-1.17931 -0.71554,0.27458 -0.69495,0.38466 0.26259,1.40419 0.87734,0.93415 1.04178,1.556 1.05691,3.99693 0.01,1.58987 0.17414,3.14344 0.36508,3.45238 0.63283,1.02395 1.76956,0.33728 2.1793,-1.31647 z m -25.4288,0.68338 c -0.15453,-0.15453 -0.72278,-0.50118 -1.26277,-0.77033 -2.63794,-1.31485 -2.58415,-5.45779 0.10578,-8.14773 1.18232,-1.18231 1.42404,-1.62471 0.88773,-1.62471 -0.97248,0 -3.29638,2.12204 -3.6814,3.36164 -0.16749,0.53924 -0.43662,0.89858 -0.59807,0.79853 -0.36847,-0.22831 -0.28838,3.56591 0.0831,3.93741 0.47467,0.47466 0.29455,1.05891 -0.22706,0.73654 -0.31218,-0.19294 -0.38222,-0.1186 -0.18656,0.19798 0.1723,0.2788 0.48267,0.40222 0.68971,0.27427 0.20703,-0.12796 0.53452,0.0351 0.72774,0.3624 0.19323,0.32727 0.64356,0.70564 1.00075,0.84082 0.91486,0.34624 2.79951,0.37164 2.46105,0.0332 z m 7.62689,-1.30334 c -0.12251,-0.31924 -0.41757,-0.58044 -0.65569,-0.58044 -0.23812,0 -0.31469,0.30817 -0.17015,0.68483 0.14453,0.37666 0.26578,0.91243 0.26942,1.19061 0.004,0.31032 0.1559,0.26998 0.39289,-0.10439 0.21245,-0.33558 0.28604,-0.87136 0.16353,-1.19061 z m -6.19139,0.2599 c 0,-0.25217 0.24353,-0.31835 0.54119,-0.14706 0.29765,0.1713 0.39537,0.15063 0.21716,-0.0459 -0.59329,-0.65433 -2.49015,-0.63026 -2.49015,0.0316 0,0.34094 0.38966,0.61989 0.8659,0.61989 0.47624,0 0.8659,-0.20633 0.8659,-0.45851 z m 38.57156,-1.27329 c 0.78913,0 0.84798,-0.10229 0.38192,-0.66384 -0.60376,-0.72749 -1.472,-0.639 -1.55747,0.15873 -0.11391,1.06312 -0.18691,1.1367 -0.55353,0.55788 -0.20786,-0.32816 -0.58742,-0.46718 -0.84348,-0.30892 -0.30707,0.18978 -0.21301,0.54573 0.27631,1.04559 0.70653,0.72175 0.75667,0.721 1.05263,-0.0158 0.17092,-0.4255 0.73055,-0.77364 1.24362,-0.77364 z m 6.02223,1.29885 c 0,-0.23813 -0.20632,-0.43295 -0.4585,-0.43295 -0.25217,0 -0.33809,0.19482 -0.19092,0.43295 0.14717,0.23812 0.35349,0.43295 0.4585,0.43295 0.10501,0 0.19092,-0.19483 0.19092,-0.43295 z m 1.29885,-0.51954 c 0,-0.6994 -0.12803,-0.82446 -0.48182,-0.47068 -0.26499,0.265 -0.35091,0.69362 -0.19092,0.95249 0.44784,0.72462 0.67274,0.56355 0.67274,-0.48181 z M 163.4544,171.9575 c -0.0511,-1.75108 0.0358,-3.39213 0.19317,-3.64676 0.48488,-0.78455 2.75054,-1.06046 3.82264,-0.46552 0.54974,0.30507 1.17472,0.56157 1.38885,0.57001 0.21412,0.008 0.54138,0.40499 0.72723,0.88124 0.18585,0.47624 0.35161,0.61269 0.36834,0.30321 0.0167,-0.30948 -0.26681,-1.13749 -0.63011,-1.84004 -0.51599,-0.99781 -0.96603,-1.28482 -2.05651,-1.31152 l -1.39597,-0.0342 1.19326,-0.43574 c 1.18519,-0.43278 1.18825,-0.4442 0.45305,-1.68879 -0.51695,-0.87513 -0.84221,-1.0925 -1.07839,-0.72071 -0.55246,0.86968 -0.4007,1.53613 0.40622,1.78393 0.41671,0.12796 0.21058,0.1671 -0.45807,0.087 -0.8897,-0.10661 -1.15459,0.0137 -0.98773,0.44851 0.13139,0.34236 -0.0498,0.59417 -0.4275,0.59417 -0.36054,0 -1.1034,0.44788 -1.65082,0.9953 -0.87133,0.87133 -0.97726,1.34318 -0.85044,3.7883 0.0797,1.53616 0.23806,3.03655 0.35197,3.3342 0.4898,1.2799 0.71749,0.32606 0.63081,-2.6426 z m 44.64328,1.94029 c 1.09949,-0.66864 1.20542,-0.85945 0.60501,-1.08985 -0.4003,-0.15361 -0.98447,-0.0663 -1.29815,0.19404 -0.4311,0.35778 -0.70736,0.25391 -1.13164,-0.42548 -0.6078,-0.97323 -1.65188,-1.21691 -1.65188,-0.38553 0,0.44634 1.65632,2.51737 2.01328,2.51737 0.0718,0 0.73032,-0.36475 1.46338,-0.81055 z m -38.24981,-2.30128 c -0.13821,-0.34537 -0.2408,-0.24279 -0.26158,0.26158 -0.0188,0.4564 0.0835,0.71211 0.2274,0.56824 0.14386,-0.14387 0.15924,-0.51728 0.0342,-0.82982 z m 37.8038,0.34398 c 0,-0.33171 -0.30818,-0.72137 -0.68484,-0.8659 -1.29176,-0.4957 -1.61346,-0.26208 -0.83049,0.6031 0.915,1.01106 1.51533,1.11517 1.51533,0.2628 z m 1.42729,-0.43687 c -0.42783,-0.57198 -0.84236,-0.97832 -0.92118,-0.90298 -0.27037,0.25843 0.82302,1.94295 1.26113,1.94295 0.24086,0 0.0879,-0.46799 -0.33995,-1.03997 z m -39.9598,-0.69819 c 0,-1.00452 -0.31954,-1.49954 -1.38703,-2.14872 -0.76287,-0.46393 -1.46055,-0.76999 -1.5504,-0.68014 -0.35789,0.35789 2.19645,4.13407 2.79643,4.13407 0.0776,0 0.141,-0.58734 0.141,-1.30521 z m 17.31798,0.22284 c 0,-0.38288 -0.39981,-0.65215 -0.97413,-0.65606 -0.79115,-0.005 -0.85215,-0.0867 -0.32472,-0.43295 0.56518,-0.37101 0.56786,-0.47878 0.0207,-0.8307 -0.75763,-0.48728 -1.44887,-0.15518 -1.04321,0.50119 0.15974,0.25846 0.11421,0.38194 -0.10117,0.27438 -0.21539,-0.10755 -0.97609,-0.46972 -1.69046,-0.80483 -1.44663,-0.67861 -3.24712,-2.14112 -3.24712,-2.63758 0,-0.17743 0.99368,-1.40984 2.20819,-2.7387 1.2145,-1.32887 1.98232,-2.41612 1.70625,-2.41612 -0.27607,0 -0.38154,-0.19482 -0.23437,-0.43295 0.14717,-0.23812 0.73165,-0.43295 1.29885,-0.43295 0.5672,0 1.15168,0.19483 1.29885,0.43295 0.14716,0.23813 -0.0212,0.43295 -0.37418,0.43295 -0.78888,0 -3.16109,1.9511 -3.78137,3.11012 -0.3977,0.7431 -0.35496,0.79994 0.33447,0.44475 0.43474,-0.22397 1.05176,-0.31396 1.37115,-0.19998 0.66622,0.23773 3.96525,-2.81095 3.96525,-3.66435 0,-0.41864 0.4524,-0.49433 1.7318,-0.28974 1.16043,0.18556 1.7318,0.11582 1.7318,-0.21136 0,-0.34333 -2.19255,-0.48829 -7.3857,-0.48829 -5.12779,0 -7.29831,0.14138 -7.09987,0.46247 0.1572,0.25436 0.55211,0.36028 0.87759,0.23538 0.32547,-0.12489 0.69561,-0.0591 0.82253,0.14632 0.12693,0.20537 0.57153,0.32223 0.988,0.2597 0.41648,-0.0625 0.5137,-0.03 0.21605,0.0724 -0.57963,0.1993 -0.70324,0.68212 -0.28239,1.10298 0.41317,0.41317 1.473,-0.15141 1.473,-0.78468 0,-0.85728 0.75678,-1.16802 1.62013,-0.66525 0.68965,0.40161 0.69292,0.44445 0.0349,0.45638 -0.39943,0.007 -1.13003,0.52651 -1.62356,1.15392 l -0.89732,1.14077 -0.89733,-1.14077 c -0.49352,-0.62741 -1.07801,-1.14076 -1.29884,-1.14076 -0.77836,0 -0.38959,2.33905 0.57103,3.4357 0.94142,1.07472 0.93103,1.07283 -0.32471,-0.059 -0.7135,-0.6431 -1.67075,-1.86421 -2.12723,-2.71358 -0.81797,-1.522 -0.81797,-1.55326 0,-2.16536 0.45648,-0.34159 1.26832,-0.54588 1.80409,-0.45398 0.98972,0.16977 1.33034,-0.37022 0.54119,-0.85794 -0.23812,-0.14717 -0.43593,-0.0125 -0.43958,0.29916 -0.005,0.41266 -0.12253,0.39018 -0.43295,-0.0827 -0.29057,-0.44263 -0.52972,-0.49947 -0.75103,-0.1785 -0.17859,0.25901 -0.738,0.57516 -1.24312,0.70255 -0.75277,0.18986 -1.01306,-0.0513 -1.44319,-1.33682 -0.71742,-2.14419 -1.07652,-9.95683 -0.51985,-11.30982 l 0.44534,-1.08237 0.0448,1.29885 0.0448,1.29884 0.66597,-1.22888 c 0.64045,-1.1818 0.53593,-1.80176 -0.30377,-1.80176 -0.50396,0 -0.53149,-0.33281 -0.17077,-2.06372 0.41394,-1.98625 2.20836,-4.94253 4.46333,-7.35327 1.06468,-1.13823 1.8066,-2.1987 1.64871,-2.35659 -0.5089,-0.5089 -4.43747,3.98197 -5.64821,6.45664 -3.21608,6.57342 -3.26875,15.07909 -0.13343,21.54839 1.49421,3.0831 6.97728,8.32458 9.83429,9.40099 2.9869,1.12535 3.03064,1.13032 3.03064,0.34453 z m -20.78157,-0.8659 c -0.59531,-0.34031 -1.2772,-0.61874 -1.51532,-0.61874 -0.23813,0 0.0541,0.27843 0.64942,0.61874 0.59531,0.3403 1.2772,0.61874 1.51532,0.61874 0.23813,0 -0.0541,-0.27844 -0.64942,-0.61874 z m 6.06129,-0.16347 c 0,-0.20896 -0.29224,-0.62247 -0.64942,-0.91891 -0.52669,-0.43711 -0.64943,-0.41985 -0.64943,0.0913 0,0.34665 0.12989,0.76016 0.28864,0.91891 0.41116,0.41117 1.01021,0.35702 1.01021,-0.0913 z m -6.17468,-1.21785 c -0.40254,-0.40254 -0.87701,-0.58677 -1.05438,-0.40941 -0.17736,0.17737 -0.0359,0.50374 0.31441,0.72526 1.05404,0.6666 1.52247,0.46666 0.73997,-0.31585 z m 19.39587,-0.81583 c 1.53012,-0.89671 2.34975,-1.08726 4.19011,-0.97413 2.09304,0.12865 2.29968,0.0577 2.42625,-0.83351 0.0931,-0.65521 -0.0841,-0.97413 -0.54119,-0.97413 -0.81916,0 -0.87055,0.48056 -0.13835,1.29379 0.38202,0.42429 0.22286,0.40186 -0.54118,-0.0762 -0.82304,-0.51503 -1.04625,-0.97067 -0.93158,-1.90166 0.1346,-1.09282 0.0743,-1.1609 -0.56089,-0.6337 -0.39143,0.32486 -0.62039,0.82856 -0.5088,1.11935 0.13412,0.34952 -0.48282,0.62013 -1.82034,0.79848 -1.11276,0.14839 -2.67383,0.6663 -3.46904,1.15094 -1.18966,0.72502 -1.35286,0.99315 -0.92112,1.51337 0.6724,0.81018 0.58457,0.82523 2.81613,-0.48255 z m 4.31416,0.4051 c 0.57525,-0.22075 0.60431,-0.35078 0.14364,-0.6428 -0.31762,-0.20133 -0.94229,-0.36905 -1.38816,-0.3727 -0.67168,-0.005 -0.71826,0.10472 -0.2717,0.6428 0.62088,0.74812 0.57029,0.73568 1.51622,0.3727 z m -7.85922,-1.22473 c 0.2996,-0.78074 -0.38954,-1.26358 -1.30311,-0.91301 -0.54753,0.21011 -0.5749,0.38352 -0.14273,0.90426 0.67651,0.81515 1.13534,0.81792 1.44584,0.009 z m 14.56904,-5.88715 c 0,-4.00368 0.1881,-6.87418 0.48707,-7.4328 0.48634,-0.90874 0.48793,-0.90854 1.06703,0.1367 0.31898,0.57574 0.58687,2.0047 0.5953,3.17546 0.008,1.17077 0.1347,2.00932 0.28059,1.86343 0.44809,-0.44809 0.26263,-5.71046 -0.27211,-7.7208 -0.27791,-1.0448 -0.91066,-2.56138 -1.40611,-3.37017 l -0.90082,-1.47053 -0.79137,0.97731 c -0.92027,1.13648 -1.01923,1.81482 -0.25019,1.71496 1.75697,-0.22815 2.48894,0.0694 2.47569,1.00645 -0.033,2.33608 -2.28436,3.33376 -3.03971,1.34705 -0.23889,-0.62833 -0.53913,-1.03763 -0.66721,-0.90955 -0.28054,0.28054 -1.43828,6.63004 -1.4596,8.00502 -0.008,0.53577 0.17972,0.97414 0.41785,0.97414 0.23812,0 0.43294,-1.08436 0.43294,-2.40969 0,-1.32533 0.22048,-2.82164 0.48995,-3.32515 0.47445,-0.88652 0.50866,-0.88985 1.08237,-0.10526 0.42153,0.57647 0.57149,2.06652 0.51982,5.16518 l -0.0726,4.35499 -0.30728,-4.54597 c -0.16901,-2.50029 -0.33415,-4.64339 -0.36697,-4.76245 -0.11552,-0.41898 -0.89906,1.09031 -0.89906,1.7318 0,0.57727 0.0466,0.57727 0.41969,0 0.2862,-0.44287 0.42179,0.75221 0.42632,3.75738 0.005,3.60513 0.14375,4.54394 0.76042,5.1606 0.54201,0.54201 0.60283,0.80413 0.21648,0.93291 -0.93559,0.31186 -0.58986,2.2717 0.40073,2.2717 0.19844,0 0.36079,-2.93522 0.36079,-6.52271 z m 3.03728,5.98152 c 0.005,-0.38684 0.11575,-0.36884 0.38925,0.0631 0.52764,0.8333 1.76886,0.26708 1.76886,-0.80691 0,-0.73668 -0.24553,-0.86172 -1.51445,-0.77124 -1.24962,0.0891 -1.51461,0.27833 -1.51533,1.08211 -4.3e-4,0.53577 0.19397,0.97414 0.43209,0.97414 0.23812,0 0.43593,-0.24354 0.43958,-0.54119 z m -1.4517,-1.29885 c -0.1201,-0.29765 -0.21837,-0.0541 -0.21837,0.54119 0,0.5953 0.0983,0.83884 0.21837,0.54118 0.12011,-0.29765 0.12011,-0.78472 0,-1.08237 z m -36.30813,0.4546 c 0.5992,-0.5992 0.71522,-2.68315 0.12923,-2.32098 -0.52207,0.32265 -1.38419,2.84052 -0.9726,2.84052 0.17811,0 0.55763,-0.2338 0.84337,-0.51954 z m 31.41552,-0.12989 c -0.13706,-0.35718 -0.32578,-0.64942 -0.41936,-0.64942 -0.0936,0 -0.17015,0.29224 -0.17015,0.64942 0,0.35719 0.18871,0.64943 0.41936,0.64943 0.23065,0 0.30722,-0.29224 0.17015,-0.64943 z m 1.03033,-6.80199 c -0.0848,-1.49759 -0.15486,-0.38497 -0.15571,2.4725 -8.7e-4,2.85746 0.0685,4.08277 0.15415,2.7229 0.0856,-1.35987 0.0863,-3.6978 0.002,-5.1954 z m 8.77094,6.55996 c 0,-0.22406 -0.19482,-0.40739 -0.43295,-0.40739 -0.23812,0 -0.43295,0.30374 -0.43295,0.67497 0,0.37124 0.19483,0.55457 0.43295,0.4074 0.23813,-0.14717 0.43295,-0.45091 0.43295,-0.67498 z m -19.04977,0.0786 c 0,-0.20897 -0.2749,-0.60808 -0.61088,-0.88692 -0.67847,-0.56308 -1.3724,0.0767 -0.90445,0.83391 0.32972,0.53349 1.51533,0.57497 1.51533,0.053 z m -22.58021,-2.00129 0.95551,-1.73179 -1.09376,1.21475 c -0.60157,0.66811 -1.09376,1.5286 -1.09376,1.91219 0,0.82971 0.0119,0.81623 1.23201,-1.39515 z m 35.87879,-1.40708 c -0.0992,-0.65484 -0.18036,-0.11906 -0.18036,1.19061 0,1.30967 0.0812,1.84545 0.18036,1.19061 0.0992,-0.65483 0.0992,-1.72638 0,-2.38122 z m -33.32672,0.49263 c -0.13864,-1.23007 -0.0576,-1.78836 0.23342,-1.60848 0.27215,0.16819 0.32077,0.0387 0.12484,-0.33258 -0.17652,-0.33444 0.0813,-0.12101 0.5729,0.47429 0.49162,0.59531 0.9041,1.47203 0.91664,1.94828 0.0212,0.80612 0.0538,0.81265 0.47168,0.0947 0.53105,-0.91239 -0.13964,-3.34156 -1.4307,-5.18183 -0.4594,-0.65484 -0.69064,-1.19061 -0.51386,-1.19061 0.17679,0 -0.13196,-0.48261 -0.68611,-1.07247 -0.62594,-0.66629 -0.99344,-1.56815 -0.97032,-2.38123 0.0409,-1.44005 -0.37225,-1.66118 -1.21241,-0.64886 -0.30121,0.36294 -0.65181,0.55573 -0.77911,0.42843 -0.1273,-0.12729 0.32657,-0.8139 1.0086,-1.52578 1.30112,-1.35808 1.06923,-1.81237 -0.29495,-0.57781 -0.46728,0.42288 -0.79175,0.5131 -0.79175,0.22015 0,-0.27301 0.38965,-0.73973 0.8659,-1.03715 0.52605,-0.32853 0.86589,-1.00965 0.86589,-1.73547 0,-1.39455 -0.25461,-1.46967 -1.48123,-0.43704 -0.88657,0.74637 -0.88869,0.74424 -0.14233,-0.14233 1.01117,-1.20112 0.96833,-1.80608 -0.0619,-0.87375 -0.80419,0.72778 -0.86634,1.73594 -0.33621,5.45381 0.0849,0.59531 0.18482,1.68675 0.2221,2.42544 0.0791,1.56822 1.7668,4.27645 2.68271,4.30496 0.60866,0.019 0.65705,1.16604 0.0585,1.38711 -0.16074,0.0594 -0.22474,1.08209 -0.14224,2.27272 0.092,1.32828 0.32046,2.05943 0.59113,1.89215 0.24652,-0.15236 0.34745,-1.10377 0.22878,-2.15662 z m 24.35638,0.86408 c 1.91375,-1.72896 2.21971,-2.7638 0.81713,-2.7638 -0.83878,0 -4.27947,3.21968 -4.27947,4.0046 0,0.84826 1.9061,0.16517 3.46234,-1.2408 z m 14.39682,0.84601 c -0.29765,-0.1201 -0.78472,-0.1201 -1.08237,0 -0.29766,0.12011 -0.0541,0.21838 0.54118,0.21838 0.59531,0 0.83884,-0.0983 0.54119,-0.21838 z m 2.05651,-0.27994 c 0,-0.31167 -0.28604,-0.94486 -0.63566,-1.40708 -0.61202,-0.80918 -0.63616,-0.79884 -0.64942,0.27804 -0.008,0.61515 0.11612,1.24834 0.27487,1.40708 0.47485,0.47485 1.01021,0.32751 1.01021,-0.27804 z m -12.88025,-0.153 c -0.29765,-0.12011 -0.78472,-0.12011 -1.08237,0 -0.29765,0.1201 -0.0541,0.21837 0.54119,0.21837 0.5953,0 0.83884,-0.0983 0.54118,-0.21837 z m 20.59844,-1.28769 c -0.20854,-1.06793 -1.6569,-1.14968 -1.6569,-0.0935 0,0.46923 0.17442,0.74535 0.38759,0.6136 0.21316,-0.13174 0.52809,0.10029 0.69983,0.51564 0.36567,0.88439 0.79274,0.10767 0.56948,-1.03572 z m -50.14724,-2.16667 c 0,-0.51321 -0.16632,-0.52665 -0.97413,-0.0787 -0.53578,0.29709 -1.07155,0.51533 -1.19061,0.48498 -0.11906,-0.0303 -0.26683,0.63252 -0.32836,1.47304 l -0.11189,1.52821 1.3025,-1.39432 c 0.71637,-0.76688 1.30249,-1.67282 1.30249,-2.0132 z m 36.39443,0.51045 c 0.22346,0.1381 0.40329,-0.19876 0.39965,-0.74859 -0.005,-0.80427 -0.0887,-0.87274 -0.42632,-0.35027 -0.29509,0.45661 -0.42363,-0.18609 -0.43295,-2.16474 -0.007,-1.5478 -0.22348,-3.10642 -0.48042,-3.4636 -0.38853,-0.54011 -0.42385,-0.51593 -0.20985,0.14365 0.14153,0.43619 0.29007,2.77412 0.3301,5.19539 0.04,2.42128 0.14945,3.66764 0.24315,2.7697 0.0937,-0.89794 0.35319,-1.51964 0.57664,-1.38154 z m 2.13808,1.71532 c 0,-0.59531 -0.19483,-1.08238 -0.43295,-1.08238 -0.23813,0 -0.43295,0.48707 -0.43295,1.08238 0,0.5953 0.19482,1.08237 0.43295,1.08237 0.23812,0 0.43295,-0.48707 0.43295,-1.08237 z m 1.73179,0.21647 c 0,-0.47624 -0.19482,-0.8659 -0.43295,-0.8659 -0.23812,0 -0.43295,0.38966 -0.43295,0.8659 0,0.47625 0.19483,0.8659 0.43295,0.8659 0.23813,0 0.43295,-0.38965 0.43295,-0.8659 z m -10.39078,-0.43295 c 0,-0.57726 -0.28864,-0.8659 -0.8659,-0.8659 -0.57727,0 -0.8659,0.28864 -0.8659,0.8659 0,0.57727 0.28863,0.8659 0.8659,0.8659 0.57726,0 0.8659,-0.28863 0.8659,-0.8659 z m 1.01714,-0.23034 c -0.34343,-0.89496 -0.58419,-0.78949 -0.58419,0.25589 0,0.4903 0.18631,0.7763 0.41404,0.63556 0.22772,-0.14074 0.30429,-0.54189 0.17015,-0.89145 z m 5.76383,-0.31085 c -0.1201,-0.29765 -0.21837,-0.0541 -0.21837,0.54119 0,0.59531 0.0983,0.83884 0.21837,0.54119 0.12011,-0.29765 0.12011,-0.78472 0,-1.08238 z m 2.87169,-1.73179 c -0.30191,-1.57161 -1.85957,-1.6875 -1.85957,-0.13835 0,0.7565 0.2738,1.09599 0.97413,1.20784 0.53578,0.0856 1.00564,0.14783 1.04415,0.13835 0.0385,-0.009 -0.0329,-0.55301 -0.15871,-1.20784 z m -9.65266,0.11247 c 0,-0.82016 -0.0417,-0.82595 -0.8659,-0.12025 -0.47625,0.40777 -0.8659,0.79552 -0.8659,0.86166 0,0.0661 0.38965,0.12025 0.8659,0.12025 0.57584,0 0.8659,-0.28863 0.8659,-0.86166 z m 0.95249,-0.52378 c -0.40409,-0.40408 -0.51954,-0.28863 -0.51954,0.51954 0,0.80818 0.11545,0.92363 0.51954,0.51954 0.40408,-0.40408 0.40408,-0.63499 0,-1.03908 z m 4.10998,-1.52873 c -0.10977,-0.42124 -0.2068,-0.18142 -0.21563,0.53295 -0.009,0.71437 0.081,1.05902 0.19959,0.7659 0.11859,-0.29312 0.12581,-0.8776 0.016,-1.29885 z m -16.75211,0.1 c 0,-0.36079 -0.38484,-0.64942 -0.8659,-0.64942 -0.86254,0 -1.12615,0.46132 -0.57726,1.01021 0.5273,0.5273 1.44316,0.29834 1.44316,-0.36079 z m 2.05671,0.10824 c -0.0991,-0.29765 -0.50431,-0.60405 -0.90046,-0.68088 -0.50227,-0.0974 -0.64119,0.0664 -0.45899,0.54119 0.30714,0.80037 1.6245,0.93574 1.35945,0.13969 z m 1.83984,-0.36079 c 0,-1.05512 -1.01171,-0.90598 -1.22236,0.18019 -0.0828,0.42722 0.13801,0.72179 0.54119,0.72179 0.40162,0 0.68117,-0.37017 0.68117,-0.90198 z m 2.59769,-0.20595 c 0,-0.34313 -0.19482,-0.62387 -0.43295,-0.62387 -0.23812,0 -0.43295,0.40115 -0.43295,0.89145 0,0.4903 0.19483,0.77104 0.43295,0.62387 0.23813,-0.14717 0.43295,-0.54832 0.43295,-0.89145 z m 1.4693,0.42232 c 0.1618,-0.42165 0.065,-0.61958 -0.25133,-0.51412 -0.64719,0.21573 -1.00353,1.19973 -0.43447,1.19973 0.23249,0 0.5411,-0.30853 0.6858,-0.68561 z m 1.56135,-0.2314 c 0,-0.23812 -0.19483,-0.31254 -0.43295,-0.16537 -0.23812,0.14717 -0.43295,0.46241 -0.43295,0.70053 0,0.23812 0.19483,0.31254 0.43295,0.16537 0.23812,-0.14717 0.43295,-0.4624 0.43295,-0.70053 z m 2.16475,0.57619 c 0,-0.18745 -0.43591,-0.37365 -0.96868,-0.41378 -0.7613,-0.0574 -0.83082,0.0142 -0.32471,0.33418 0.7916,0.5005 1.29339,0.53138 1.29339,0.0796 z m 13.6379,-0.0621 1.29885,-0.30044 -1.39735,-0.33002 c -1.55528,-0.36732 -3.29685,0.0103 -2.91288,0.63158 0.27621,0.44692 1.07577,0.44662 3.01138,-10e-4 z m 2.48946,-0.43857 c -0.53577,-0.44696 -0.98952,-1.07367 -1.00831,-1.39268 -0.0238,-0.40499 -0.0977,-0.42395 -0.24456,-0.0628 -0.32391,0.7963 0.65325,2.29871 1.48458,2.28258 0.62241,-0.0121 0.58495,-0.14578 -0.23171,-0.82706 z m -22.62161,-0.0244 c 0,-0.23813 -0.19482,-0.43295 -0.43294,-0.43295 -0.23813,0 -0.43295,0.19482 -0.43295,0.43295 0,0.23812 0.19482,0.43295 0.43295,0.43295 0.23812,0 0.43294,-0.19483 0.43294,-0.43295 z m 14.76583,-0.1616 c -0.27139,-0.327 -0.36398,-0.96019 -0.20577,-1.40709 0.22418,-0.63322 0.16856,-0.70272 -0.25201,-0.31493 -0.60469,0.55755 -0.22927,2.31657 0.49442,2.31657 0.30263,0 0.29026,-0.20066 -0.0366,-0.59455 z m -25.48132,-0.12518 c -0.29766,-0.1201 -0.54119,-0.58029 -0.54119,-1.02264 0,-0.44235 -0.19483,-0.92468 -0.43295,-1.07185 -0.54026,-0.33389 -0.54201,-0.12673 -0.0107,1.27067 0.23223,0.61081 0.67059,1.09518 0.97414,1.07638 0.43419,-0.0269 0.43648,-0.0808 0.0107,-0.25256 z m 30.03104,-0.49124 c 1.16239,0.13571 1.46603,0.0175 1.46603,-0.57087 0,-0.60976 -0.50176,-0.76789 -2.81508,-0.8872 -2.64352,-0.13633 -2.81503,-0.088 -2.81417,0.79288 8.6e-4,1.11432 0.77316,1.48606 1.89023,0.9101 0.44383,-0.22883 1.46667,-0.33904 2.27299,-0.24491 z m -27.25602,-0.66212 c 0.15631,-0.15631 0.54565,-0.0672 0.86521,0.19802 0.42836,0.3555 0.74153,0.34899 1.1919,-0.0248 0.4384,-0.36384 0.69377,-0.37287 0.90445,-0.032 0.21179,0.34269 0.45843,0.33817 0.88547,-0.0162 0.32556,-0.27019 0.80381,-0.36029 1.0628,-0.20023 0.25898,0.16006 0.75459,0.0556 1.10134,-0.23221 0.44402,-0.3685 0.63046,-0.37953 0.63046,-0.0373 0,0.26728 0.29224,0.48596 0.64942,0.48596 0.35718,0 0.64942,-0.29224 0.64942,-0.64943 0,-0.92759 -10.1757,-0.96849 -10.53111,-0.0423 -0.12813,0.33391 -0.13164,0.70842 -0.008,0.83226 0.2943,0.2943 2.23257,0.0841 2.59845,-0.28176 z m 14.00177,0.14386 c 0,-0.59592 -0.52078,-0.7929 -2.94728,-1.11479 -1.94249,-0.25768 -2.24812,-0.19839 -2.24812,0.43615 0,0.53735 0.23231,0.66065 0.8659,0.45955 0.47625,-0.15115 0.8659,-0.10827 0.8659,0.0953 0,0.20357 0.77931,0.40121 1.7318,0.43919 0.95249,0.038 1.7318,-0.10395 1.7318,-0.3154 z m -26.62639,-1.51793 c 0,-0.59531 -0.14613,-1.08238 -0.32472,-1.08238 -0.40211,0 -0.4306,1.48159 -0.0361,1.87612 0.15875,0.15874 0.30487,0.28863 0.32471,0.28863 0.0198,0 0.0361,-0.48707 0.0361,-1.08237 z m 26.90994,-0.41428 c -0.14101,-0.36745 -0.70085,-0.65441 -1.2441,-0.63767 -0.93744,0.0289 -0.94364,0.0494 -0.12183,0.40252 l 0.8659,0.37209 -0.8659,0.0736 c -0.72687,0.0618 -0.69212,0.12484 0.21648,0.39284 1.29376,0.38162 1.48824,0.27952 1.14945,-0.60337 z m -28.10369,-0.76992 c 0.0401,-0.53225 0.27638,-1.03556 0.52508,-1.11846 0.24871,-0.0829 0.4385,-0.57285 0.42176,-1.08878 -0.0295,-0.90838 -0.0422,-0.91066 -0.40252,-0.0722 -0.30757,0.71577 -0.38264,0.60317 -0.43295,-0.64942 -0.0335,-0.83343 -0.2283,-1.90498 -0.43295,-2.38123 -0.24981,-0.58135 -0.38209,0.30787 -0.40252,2.70594 -0.0167,1.96451 0.12294,3.57183 0.31039,3.57183 0.18745,0 0.37362,-0.43548 0.41371,-0.96772 z m 21.61453,0.28242 c 0,-0.60137 -0.69371,-0.65839 -5.66442,-0.46562 -3.11544,0.12082 -5.76184,0.27415 -5.8809,0.34074 -0.11906,0.0666 2.31628,0.23634 5.41187,0.37723 3.09559,0.14089 5.74199,0.29594 5.88089,0.34456 0.13891,0.0486 0.25256,-0.21999 0.25256,-0.59691 z m 21.7052,0.16576 c 0.80707,-0.80707 0.61895,-1.21226 -0.56284,-1.21226 -0.5953,0 -1.08237,0.19483 -1.08237,0.43295 0,0.23812 -0.34095,0.42997 -0.75766,0.42632 -0.6475,-0.006 -0.66324,-0.0676 -0.10824,-0.42632 0.45275,-0.29259 -0.20284,-0.40649 -2.16475,-0.3761 -1.54779,0.024 -2.45892,0.13545 -2.02472,0.24772 0.46418,0.12002 0.69276,0.45609 0.55478,0.81567 -0.1879,0.48966 0.34945,0.61156 2.69579,0.61156 1.70199,0 3.14826,-0.2178 3.45001,-0.51954 z m -18.09729,-0.34636 c -0.35718,-0.23083 -1.23391,-0.40898 -1.94827,-0.39589 -1.11516,0.0204 -1.17639,0.0764 -0.43295,0.39589 0.47624,0.20465 1.35297,0.3828 1.94827,0.39589 0.85307,0.0188 0.94479,-0.0651 0.43295,-0.39589 z m 3.38547,-0.94022 c -0.0761,-0.51713 -0.35788,-1.01243 -0.62619,-1.10067 -0.71369,-0.23473 -1.15982,1.25688 -0.50096,1.67494 0.92785,0.58873 1.27245,0.41316 1.12715,-0.57427 z m -17.55056,-1.68692 c 0.20817,-0.81724 0.55807,-1.67096 0.77755,-1.89718 0.51063,-0.5263 0.52025,-1.96992 0.0131,-1.96992 -0.47466,0 -1.76031,3.12549 -1.82903,4.44649 -0.041,0.78842 -0.0878,0.81968 -0.25537,0.17058 -0.11284,-0.43714 0.22813,-1.9534 0.7577,-3.36946 1.01055,-2.70218 0.86272,-4.14651 -0.17243,-1.68462 -0.32972,0.78419 -0.67366,1.20659 -0.7643,0.93867 -0.0906,-0.26793 -0.20373,0.61557 -0.25131,1.96332 -0.0476,1.34776 0.019,2.62115 0.14791,2.82977 0.44961,0.72748 1.20042,0.0474 1.57616,-1.42765 z m 1.39308,-0.4035 c 0.2202,-1.08443 0.17393,-1.38837 -0.16274,-1.06885 -0.25875,0.24557 -0.59728,1.12229 -0.75229,1.94827 -0.19218,1.02403 -0.14041,1.36406 0.16274,1.06885 0.24453,-0.23812 0.58306,-1.11485 0.75229,-1.94827 z m 0.64943,1.29884 c 0,-0.47624 -0.0747,-0.8659 -0.16598,-0.8659 -0.0913,0 -0.26788,0.38966 -0.39242,0.8659 -0.12454,0.47625 -0.0498,0.8659 0.16598,0.8659 0.21583,0 0.39242,-0.38965 0.39242,-0.8659 z m 1.51532,-0.21647 c 0,-0.59531 -0.1234,-1.08237 -0.27422,-1.08237 -0.37431,0 -0.77293,1.6227 -0.47243,1.9232 0.49457,0.49457 0.74665,0.2107 0.74665,-0.84083 z m 1.51532,-0.6807 c 0,-3.1601 3.25677,-15.82834 4.38287,-17.04858 0.51614,-0.55929 0.47805,-1.10402 -0.0772,-1.10402 -0.75994,0 -2.60387,4.68249 -3.92133,9.95784 -1.23533,4.94645 -1.64663,9.95783 -0.81729,9.95783 0.23813,0 0.43295,-0.79338 0.43295,-1.76307 z m 2.15607,1.10319 c -0.30122,-0.36294 -0.63682,-0.57073 -0.74579,-0.46176 -0.30025,0.30025 0.30979,1.12164 0.83303,1.12164 0.28709,0 0.25424,-0.24842 -0.0873,-0.65988 z m 2.96926,-8.43206 c -0.009,-0.35718 -0.17223,-0.16235 -0.36288,0.43295 -0.19065,0.59531 -0.36606,0.84496 -0.3898,0.55478 -0.0246,-0.30029 -0.34143,-0.41314 -0.73545,-0.26194 -0.60613,0.23259 -0.62011,0.15007 -0.11233,-0.66301 0.31898,-0.51077 0.68647,-0.92867 0.81664,-0.92867 0.13017,0 0.26647,-0.43837 0.30289,-0.97414 0.0646,-0.94993 0.0506,-0.94724 -0.56081,0.10824 l -0.62703,1.08237 0.27814,-1.29885 c 0.15298,-0.71437 0.54852,-1.61119 0.87899,-1.99293 0.45433,-0.52485 0.48996,-0.94711 0.14611,-1.7318 l -0.45473,-1.03771 0.20795,1.04981 c 0.12395,0.62581 -0.0467,1.23783 -0.42256,1.51532 -0.34678,0.25603 -0.68577,1.30519 -0.75331,2.33147 -0.0691,1.05011 -0.39959,2.04102 -0.75584,2.26636 -0.50757,0.32104 -0.51527,0.40171 -0.0388,0.40702 0.45462,0.005 0.47829,0.14629 0.10076,0.60118 -0.27138,0.327 -0.35954,0.94345 -0.19591,1.36987 0.22025,0.57397 0.1486,0.68329 -0.2759,0.42093 -0.38968,-0.24083 -0.47032,-0.18758 -0.25168,0.16619 0.17695,0.28632 0.18,0.85219 0.007,1.2575 -0.59829,1.39988 -0.47945,2.25197 0.41892,3.00378 0.49592,0.41501 0.77336,0.59586 0.61653,0.40188 -0.15683,-0.19398 -0.11669,-0.94006 0.0892,-1.65796 0.30879,-1.07668 0.26034,-1.26153 -0.2766,-1.05548 -0.57815,0.22185 -0.57864,0.14655 -0.004,-0.67333 0.39733,-0.56726 0.55129,-1.39955 0.39939,-2.15905 -0.19678,-0.98386 -0.0922,-1.23593 0.513,-1.23593 0.63831,0 0.71645,0.2603 0.48737,1.62356 -0.73351,4.36513 -0.61636,6.03609 0.14419,2.05651 0.45508,-2.38122 0.8201,-4.62173 0.81117,-4.97892 z m 0.47952,6.2287 c 0.27644,-1.64933 0.37534,-1.82938 0.44868,-0.81683 0.0517,0.71437 0.2566,1.78592 0.45523,2.38122 0.23449,0.70275 0.27641,0.2472 0.11953,-1.29884 -0.13289,-1.30968 -0.37756,-2.53163 -0.54371,-2.71546 -0.37808,-0.4183 0.58403,-4.74867 1.9609,-8.82584 1.16297,-3.44379 1.22513,-3.77346 0.64374,-3.41414 -0.97467,0.60238 -4.35972,13.63811 -4.35972,16.78918 0,1.65077 0.89326,0.18042 1.27535,-2.09929 z m 3.47257,-6.06688 c 0.51332,-1.87491 1.5901,-4.72381 2.39285,-6.33088 1.18008,-2.36247 1.30498,-2.83922 0.6523,-2.48992 -0.44398,0.23761 -0.92526,0.80389 -1.06952,1.25839 -0.30423,0.95854 -1.51135,1.56431 -1.56332,0.78453 -0.0487,-0.73094 -1.22781,1.91644 -1.21122,2.71952 0.007,0.35718 0.25588,-0.0217 0.55223,-0.84198 0.93449,-2.58658 1.22482,-0.6627 0.33807,2.24027 -0.45608,1.4931 -0.97139,3.68851 -1.14512,4.87869 l -0.31588,2.16395 -0.61331,-1.29805 c -0.33732,-0.71394 -0.49305,-0.90841 -0.34607,-0.43216 0.14699,0.47624 0.38576,2.13227 0.5306,3.68007 l 0.26334,2.81417 0.30088,-2.86883 c 0.16548,-1.57786 0.72086,-4.40285 1.23417,-6.27777 z m 3.01315,-5.14073 c 1.93834,-4.17841 1.75418,-4.55777 -0.31526,-0.64943 -1.53715,2.90304 -3.56225,10.40873 -3.51389,13.02365 0.026,1.40844 0.29734,0.54259 1.02847,-3.28229 0.70674,-3.6973 1.51431,-6.31896 2.80068,-9.09193 z m -0.62893,11.24855 c 2.49579,-4.4629 4.98005,-8.03226 7.30495,-10.4957 1.18232,-1.25279 2.02316,-2.40432 1.86851,-2.55896 -0.37296,-0.37298 -1.53532,0.71359 -3.80176,3.5539 -1.02506,1.28461 -1.96855,2.19619 -2.09664,2.02573 -0.38354,-0.51041 -3.04706,-1.3462 -3.04706,-0.95615 0,0.19852 0.58224,0.48883 1.29388,0.64513 1.87999,0.41292 1.95581,0.88016 0.51201,3.15552 -0.71228,1.12253 -1.89295,3.20993 -2.62369,4.63866 -0.73074,1.42873 -1.33275,2.32169 -1.33779,1.98435 -0.005,-0.33734 -0.12608,-0.49642 -0.26899,-0.35351 -0.24302,0.24302 0.12616,1.18333 0.46459,1.18333 0.0845,0 0.86391,-1.27003 1.73199,-2.8223 z m 10.61878,1.98196 c 0,-0.65591 -0.80605,-0.9688 -1.73567,-0.67375 -1.30272,0.41347 -1.03295,1.08114 0.43683,1.08114 0.71436,0 1.29884,-0.18333 1.29884,-0.40739 z m 0.28721,-2.91922 c -1.16807,-2.25842 -4.76354,-6.84013 -4.94367,-6.29973 -0.0982,0.29457 0.61631,1.43857 1.58778,2.54222 0.97147,1.10365 2.20546,3.19778 2.74221,4.65362 0.8103,2.19782 0.99868,2.44982 1.11012,1.48511 0.0738,-0.63902 -0.14958,-1.71057 -0.49644,-2.38122 z m 2.77276,1.45483 c -0.16337,-0.79879 -0.58898,-1.42957 -1.02067,-1.51271 -0.58163,-0.11201 -0.74045,0.17375 -0.74045,1.33232 0,1.73464 0.21176,2.02895 1.26221,1.75425 0.62434,-0.16327 0.72345,-0.47593 0.49891,-1.57386 z m 1.81446,1.3306 c 0.10128,-0.29766 0.0366,-1.12567 -0.1438,-1.84004 -0.43651,-1.72886 -0.98287,-7.42174 -0.68445,-7.13173 0.12927,0.12563 0.45053,1.9626 0.71392,4.08217 0.53017,4.26644 1.31049,6.49644 0.97422,2.78412 -0.30671,-3.38607 -1.75709,-9.97006 -1.849,-8.39355 -0.0565,0.97009 -0.22627,0.64133 -0.67053,-1.29885 -0.93474,-4.08219 -1.74032,-6.4357 -2.26246,-6.60975 -0.30417,-0.10139 -0.18137,0.92358 0.33449,2.79182 0.86289,3.12505 1.99408,9.51964 2.41775,13.66753 0.2383,2.33297 0.74937,3.1841 1.16986,1.94828 z m -13.36395,-2.49822 c 0.97836,-2.44518 0.84584,-2.65892 -0.39723,-0.64067 -1.14436,1.85797 -1.29491,2.38122 -0.68514,2.38122 0.21226,0 0.69933,-0.78325 1.08237,-1.74055 z m 7.5412,0.54994 c -0.0803,-0.41671 -0.43281,-0.75766 -0.78347,-0.75766 -0.35067,0 -0.70323,0.34095 -0.78348,0.75766 -0.10238,0.5316 0.13139,0.75767 0.78348,0.75767 0.65208,0 0.88585,-0.22607 0.78347,-0.75767 z m -22.46311,-1.90723 c -0.0161,-0.55835 0.0944,-2.16959 0.24551,-3.58054 0.24579,-2.29477 0.20336,-2.5061 -0.40224,-2.0035 -0.77593,0.64397 -0.92003,2.62059 -0.19104,2.62059 0.33289,0 0.34849,0.17047 0.0495,0.54119 -0.24003,0.29765 -0.44931,1.51532 -0.46506,2.70593 -0.0208,1.56944 0.0843,1.96768 0.38195,1.44813 0.22583,-0.39414 0.39743,-1.17345 0.38134,-1.7318 z m 11.7218,1.36605 c 0,-0.23813 -0.19483,-0.43295 -0.43295,-0.43295 -0.23812,0 -0.43295,0.19482 -0.43295,0.43295 0,0.23812 0.19483,0.43295 0.43295,0.43295 0.23812,0 0.43295,-0.19483 0.43295,-0.43295 z m 6.75582,-0.74864 c -0.44011,-0.4401 -0.80323,0.22248 -0.44214,0.80675 0.27277,0.44135 0.37475,0.44169 0.5214,0.002 0.10027,-0.30081 0.0646,-0.66463 -0.0793,-0.8085 z m 15.9937,0.11889 c 0.58448,-0.58448 1.0627,-1.3748 1.0627,-1.75627 0,-0.63316 -0.10372,-0.63209 -1.19061,0.0123 -2.1564,1.27846 -2.79642,1.87705 -2.50726,2.34491 0.47115,0.76235 1.50844,0.5258 2.63517,-0.60094 z m -17.55413,0.1968 c 0,-0.23812 -0.0859,-0.43295 -0.19092,-0.43295 -0.10501,0 -0.31133,0.19483 -0.4585,0.43295 -0.14717,0.23812 -0.0613,0.43295 0.19092,0.43295 0.25218,0 0.4585,-0.19483 0.4585,-0.43295 z m 4.60173,-0.64943 c 0.0701,-0.23812 -0.34634,-1.01343 -0.9255,-1.7229 -0.84785,-1.03863 -1.15949,-1.18349 -1.5995,-0.74349 -0.44,0.44001 -0.37106,0.59235 0.35382,0.78191 0.69223,0.18103 0.85204,0.48788 0.6915,1.32772 -0.16735,0.87545 -0.0539,1.06226 0.57168,0.941 0.42927,-0.0832 0.83787,-0.34611 0.908,-0.58424 z m -35.98367,-4.09969 c -0.38044,-0.73568 -0.55623,-1.55681 -0.39064,-1.82473 0.17203,-0.27836 0.10786,-0.36773 -0.14973,-0.20853 -0.24793,0.15323 -0.71639,-0.048 -1.04103,-0.44712 -0.51159,-0.62901 -0.49538,-0.69022 0.12161,-0.45935 0.635,0.23762 0.71903,-0.3261 0.77835,-5.2216 0.0506,-4.17489 -0.0541,-5.36737 -0.43759,-4.9839 -0.34332,0.34333 -0.44954,1.97711 -0.33309,5.1232 0.16887,4.56166 0.16096,4.60673 -0.63548,3.62317 -0.52582,-0.64936 -0.74993,-1.48033 -0.64398,-2.38786 0.0894,-0.76555 0.008,-1.29666 -0.17997,-1.18025 -0.18835,0.11641 -0.34246,0.88205 -0.34246,1.70143 0,0.9196 -0.19613,1.44834 -0.51246,1.38153 -0.33141,-0.07 -0.5232,0.58006 -0.54287,1.84004 -0.0277,1.77413 0.18257,2.182 2.35249,4.5632 l 2.38291,2.61493 0.13282,-1.39828 c 0.0731,-0.76906 -0.17845,-2.0002 -0.55888,-2.73588 z m -3.92124,-0.90803 c -0.46597,-0.75396 0.0647,-0.91363 0.65854,-0.19813 0.34149,0.41147 0.37434,0.65988 0.0872,0.65988 -0.25322,0 -0.58883,-0.20779 -0.74579,-0.46175 z m 30.97369,5.05404 c 0,-0.0936 -0.29224,-0.28229 -0.64943,-0.41936 -0.35718,-0.13706 -0.64942,-0.0605 -0.64942,0.17016 0,0.23065 0.29224,0.41936 0.64942,0.41936 0.35719,0 0.64943,-0.0766 0.64943,-0.17016 z m 13.55058,-1.88635 c -0.2703,-2.81555 -0.41053,-3.13889 -1.36123,-3.13889 -0.72484,0 -0.80206,0.25252 -0.62887,2.05651 0.27031,2.81555 0.41053,3.13889 1.36123,3.13889 0.72485,0 0.80206,-0.25252 0.62887,-2.05651 z m -27.81426,-2.92241 c -0.49641,-2.17943 -1.53444,-4.0454 -1.99451,-3.58533 -0.44827,0.44827 -0.63739,3.31123 -0.23515,3.55983 0.2164,0.13374 0.31183,-0.19546 0.21207,-0.73156 -0.28293,-1.52044 1.498,2.30107 1.86607,4.00418 l 0.32748,1.51532 0.15855,-1.29885 c 0.0872,-0.71436 -0.0633,-2.27298 -0.33451,-3.46359 z m 15.00376,3.4087 c 0.21393,-0.64258 -1.2014,-1.17229 -1.72724,-0.64645 -0.22518,0.22518 -0.27185,0.63201 -0.10372,0.90407 0.36897,0.59699 1.60431,0.42318 1.83096,-0.25762 z m 18.58192,-0.8034 c 1.12446,-0.58338 1.26775,-0.57352 1.5737,0.10824 0.26083,0.58123 0.29621,0.53546 0.15719,-0.20332 -0.0987,-0.52436 -0.054,-1.0282 0.0994,-1.11966 0.15331,-0.0914 0.0105,-0.0974 -0.31731,-0.0133 -0.32783,0.0841 -0.86361,-0.0691 -1.19061,-0.34045 -0.75533,-0.62686 -1.8934,0.21308 -1.8934,1.3974 0,0.97816 0.0127,0.97955 1.57108,0.17107 z m -8.49827,-0.44055 c 0,-0.35719 -0.18332,-0.64943 -0.40739,-0.64943 -0.54594,0 -0.93695,0.67609 -0.59105,1.02199 0.48758,0.48758 0.99844,0.29695 0.99844,-0.37256 z m -10.39013,-0.41287 c -0.59495,-0.32926 -1.17379,-0.50659 -1.28631,-0.39406 -0.29127,0.29126 0.94528,1.0118 1.71861,1.00143 0.3765,-0.005 0.19483,-0.2603 -0.4323,-0.60737 z m 5.73263,-1.1707 c -0.37962,-0.37962 -0.67335,-0.35831 -1.21094,0.0879 -0.6531,0.54202 -0.64592,0.61266 0.0899,0.88498 1.0258,0.37965 1.8009,-0.29298 1.12105,-0.97283 z m -3.77466,0.0356 c 0.34489,-1.08663 0.34204,-1.08958 -1.41744,-1.46652 -1.22434,-0.2623 -1.40708,-0.18732 -1.40708,0.57733 0,1.63404 2.35301,2.37478 2.82452,0.88919 z m 8.43216,-0.1855 c 0,-0.10321 -0.34094,-0.0633 -0.75766,0.0887 -0.70336,0.2565 -0.70134,0.21206 0.0282,-0.62003 0.84454,-0.96324 0.44428,-1.61468 -0.59006,-0.96036 -0.87426,0.55307 -1.38936,0.50822 -1.02036,-0.0888 0.18164,-0.2939 0.11973,-0.38291 -0.15027,-0.21604 -0.6398,0.39543 -0.14316,2.01473 0.61794,2.01473 0.34384,0 0.49224,0.21398 0.33021,0.47615 -0.20682,0.33465 -0.0214,0.33012 0.62387,-0.0152 0.50499,-0.27026 0.91815,-0.57583 0.91815,-0.67904 z m 11.63542,-0.71893 c -0.50534,-0.91689 -0.57316,-0.93529 -0.7271,-0.1972 -0.0934,0.44771 0.0873,0.97289 0.40147,1.16707 0.84012,0.51922 0.95604,0.17396 0.32563,-0.96987 z m -1.41446,-0.17702 c 0.15379,-0.61274 0.0832,-1.31044 -0.15676,-1.55044 -0.2932,-0.2932 -0.49576,0.0723 -0.61738,1.11407 -0.20793,1.78109 0.35675,2.09939 0.77414,0.43637 z m -46.68541,-0.37004 c -0.0479,-0.57814 -0.2222,-0.9676 -0.38745,-0.86546 -0.29231,0.18065 -0.008,1.91662 0.31332,1.91662 0.0886,0 0.12198,-0.47302 0.0741,-1.05116 z m 22.03091,-0.78887 c -0.12011,-0.29765 -0.21838,-0.0541 -0.21838,0.54119 0,0.5953 0.0983,0.83884 0.21838,0.54118 0.1201,-0.29765 0.1201,-0.78472 0,-1.08237 z m -7.60967,-1.97195 c -0.25859,-0.0862 -0.47016,-0.62755 -0.47016,-1.20301 0,-0.57547 -0.15586,-1.0463 -0.34636,-1.0463 -0.6478,0 -1.38548,1.03614 -1.37167,1.92663 0.013,0.83718 0.0469,0.84383 0.59822,0.11716 0.52511,-0.69216 0.61164,-0.69956 0.85213,-0.0728 0.14723,0.38366 0.28525,1.31481 0.30673,2.06923 l 0.0391,1.37168 0.43111,-1.50292 c 0.30179,-1.05207 0.29008,-1.54993 -0.0391,-1.65964 z m 5.45394,1.99901 c -0.13821,-0.34538 -0.2408,-0.24279 -0.26157,0.26157 -0.0188,0.4564 0.0835,0.71211 0.22739,0.56825 0.14386,-0.14387 0.15925,-0.51729 0.0342,-0.82982 z m 18.44964,0.62236 c 0.0988,-0.17859 -0.098,-1.54238 -0.43733,-3.03064 -0.50897,-2.23222 -0.77144,-2.70594 -1.49928,-2.70594 -0.56986,0 -0.80157,0.21038 -0.65433,0.59407 0.12538,0.32674 0.36588,1.54441 0.53443,2.70594 0.36134,2.48996 0.48697,2.76129 1.27852,2.76129 0.32907,0 0.67917,-0.14613 0.77799,-0.32472 z m -24.80669,-1.72958 c 0,-0.52818 -0.12124,-0.5488 -0.64942,-0.11045 -0.35718,0.29643 -0.64943,0.83121 -0.64943,1.1884 0,0.52817 0.12125,0.54879 0.64943,0.11045 0.35718,-0.29644 0.64942,-0.83122 0.64942,-1.1884 z m 21.52401,0.32913 c 0.18697,0.004 0.0477,0.2133 -0.30948,0.46591 -0.53165,0.37598 -0.53623,0.42865 -0.0252,0.29041 0.3433,-0.0929 0.70016,-0.8342 0.79303,-1.64739 l 0.16883,-1.47853 -1.0095,0.84648 c -2.18792,1.8346 -2.94655,3.47493 -1.02474,2.21571 0.58693,-0.38457 1.22012,-0.69624 1.40709,-0.69259 z m 6.59471,-2.09002 c -0.25369,-1.18292 -0.75642,-2.51317 -1.11716,-2.9561 -0.61962,-0.76078 -0.64083,-0.74545 -0.38341,0.27704 0.14987,0.59531 0.50023,2.19781 0.77857,3.56112 0.32812,1.60709 0.62516,2.26599 0.84468,1.87373 0.18622,-0.33275 0.13101,-1.57286 -0.12268,-2.75579 z m -29.85052,1.97106 c 0,-0.53803 -0.38628,-1.21947 -0.85841,-1.51432 -0.84203,-0.52586 -0.84463,-0.50719 -0.13629,0.97823 0.84661,1.77535 0.9947,1.85516 0.9947,0.53609 z m 18.18388,0.12035 c 0,-0.65945 -3.05307,-1.45762 -3.57585,-0.93485 -0.33202,0.33202 -0.22748,0.542 0.36457,0.73232 0.45653,0.14676 1.21971,0.42122 1.69596,0.60991 0.9214,0.36507 1.51532,0.2054 1.51532,-0.40738 z m -30.01719,-1.48977 c -0.45163,-1.17691 -1.15517,-0.74533 -1.15517,0.70862 0,1.28868 0.0524,1.3392 0.70863,0.683 0.38974,-0.38975 0.59069,-1.01598 0.44654,-1.39162 z m 20.68886,-1.1787 c -0.1402,-0.44173 -0.46046,-0.80315 -0.71169,-0.80315 -0.29772,0 -0.28107,0.21173 0.0478,0.60801 0.27753,0.33441 0.39432,1.16242 0.25953,1.84004 -0.23286,1.17058 -0.22253,1.18031 0.20709,0.19514 0.24869,-0.57029 0.33746,-1.3983 0.19726,-1.84004 z m 8.02948,0.71217 c -1.27837,-0.73078 -1.73179,-0.79577 -1.73179,-0.24822 0,0.40212 0.94866,0.76677 2.16474,0.83208 0.35719,0.0192 0.16236,-0.24355 -0.43295,-0.58386 z m 11.55244,-0.29765 c -0.1382,-0.34538 -0.2408,-0.24279 -0.26157,0.26158 -0.0188,0.4564 0.0835,0.71211 0.22739,0.56824 0.14387,-0.14386 0.15925,-0.51728 0.0342,-0.82982 z m 2.65128,-0.14675 c -0.1333,-0.1333 -0.37539,0.10699 -0.53797,0.53397 -0.23496,0.61704 -0.18523,0.66677 0.24236,0.24236 0.29589,-0.29368 0.42891,-0.64303 0.29561,-0.77633 z m -31.22166,-0.95444 c -0.10978,-0.42125 -0.20681,-0.18142 -0.21563,0.53295 -0.009,0.71436 0.081,1.05902 0.19958,0.7659 0.1186,-0.29312 0.12582,-0.87761 0.016,-1.29885 z m 20.17939,1.03305 c 0.31922,-0.83189 -3.30664,-2.56296 -3.97286,-1.89674 -0.77202,0.77203 -0.58609,1.13453 0.91965,1.79303 1.82051,0.79614 2.77505,0.82857 3.05321,0.10371 z m -30.00431,-0.92253 c 0,-0.32328 -0.23866,-0.66734 -0.53036,-0.76457 -0.32578,-0.1086 -0.50579,-0.91576 -0.46669,-2.09259 l 0.0637,-1.91581 -0.34052,1.94827 c -0.36029,2.06143 0.11203,4.13058 0.84015,3.68058 0.23857,-0.14745 0.43376,-0.53259 0.43376,-0.85588 z m 48.83612,0.12945 c -0.34415,-0.51832 -1.09852,-1.24775 -1.67637,-1.62096 -0.95518,-0.6169 -0.93262,-0.53411 0.24821,0.91115 1.40969,1.72535 2.44367,2.23926 1.42816,0.70981 z m -54.17773,-0.89764 c -0.12011,-0.29765 -0.21837,-0.0541 -0.21837,0.54119 0,0.59531 0.0983,0.83884 0.21837,0.54119 0.1201,-0.29765 0.1201,-0.78472 0,-1.08238 z m 2.96039,1.07575 c 0.51432,-0.37787 0.77976,-3.99815 0.29314,-3.99815 -0.66155,0 -1.37552,1.0562 -1.37552,2.03486 0,0.64653 0.2568,0.99578 0.73218,0.99578 0.63845,0 0.62459,0.0814 -0.10824,0.63566 -0.46223,0.34961 -0.64559,0.63886 -0.40746,0.64279 0.23812,0.004 0.62777,-0.136 0.8659,-0.31094 z m 17.08616,-3.07372 c -0.008,-0.15126 -0.29378,0.21206 -0.63409,0.80736 -0.80763,1.41281 -0.82511,0.39268 -0.026,-1.51977 0.60757,-1.4541 0.30246,-2.29954 -0.62338,-1.72735 -0.48268,0.29832 -0.56883,2.91181 -0.14783,4.48452 0.26506,0.99017 0.29096,0.97889 0.85999,-0.37442 0.32268,-0.76744 0.57979,-1.51909 0.57135,-1.67034 z m -3.30772,1.9315 c 0.31917,-0.83174 -0.14926,-2.46869 -0.62271,-2.17609 -0.5019,0.3102 -0.49932,2.78375 0.003,2.78375 0.21265,0 0.49156,-0.27345 0.61981,-0.60766 z m 19.34219,0.37029 c 0,-0.13056 -0.63319,-0.51259 -1.40709,-0.84896 -0.77389,-0.33636 -1.0753,-0.6192 -0.66979,-0.62852 0.40551,-0.009 1.23881,0.21156 1.85178,0.49085 0.80294,0.36585 1.24614,0.37615 1.58544,0.0368 0.3393,-0.3393 0.0879,-0.66902 -0.89928,-1.17952 -1.37794,-0.71257 -3.05876,-0.56011 -3.05876,0.27743 0,0.24755 -0.29224,0.33795 -0.64942,0.20089 -1.27587,-0.4896 -0.6202,0.16455 0.97413,0.97187 1.76405,0.89326 2.27299,1.04532 2.27299,0.67912 z m -10.40405,-1.7109 c 0,-0.23812 -0.18886,-0.14071 -0.41969,0.21647 -0.23083,0.35719 -0.41969,0.84426 -0.41969,1.08238 0,0.23812 0.18886,0.14071 0.41969,-0.21648 0.23083,-0.35718 0.41969,-0.84425 0.41969,-1.08237 z m 18.80326,-3.31449 c -0.81279,-2.41827 -1.67984,-4.64028 -1.92676,-4.9378 -0.24692,-0.29752 -1.58355,-0.88082 -2.97029,-1.29621 -2.06169,-0.61758 -2.48342,-0.9003 -2.3133,-1.55081 0.28734,-1.09881 -3.13842,-2.5386 -6.04021,-2.5386 -1.89035,0 -2.10986,0.0868 -1.64289,0.64943 0.31394,0.37828 1.28508,0.657 2.32599,0.66757 1.72784,0.0175 5.65439,1.65731 4.06001,1.6955 -1.55882,0.0373 -0.67799,0.76409 1.52311,1.25667 3.58561,0.80242 4.86981,1.80007 5.74561,4.46357 0.4173,1.26911 0.86552,2.59971 0.99605,2.9569 0.14687,0.40192 -0.3309,0.21909 -1.25368,-0.47977 -2.1191,-1.60488 -5.44455,-3.22037 -8.39412,-4.07784 -2.88596,-0.83897 -9.83144,-0.74494 -10.72153,0.14515 -0.6108,0.6108 -0.27517,0.62752 2.03849,0.10158 l 1.73179,-0.39367 -1.19061,0.96145 c -1.29808,1.04824 -1.50727,1.57835 -0.62282,1.57835 0.80159,0 2.53321,-1.70066 2.23043,-2.19056 -0.13839,-0.22392 0.35585,-0.40714 1.09833,-0.40714 0.74247,0 1.24099,0.1763 1.10782,0.39177 -0.13719,0.22199 0.55532,0.30085 1.59801,0.18198 1.3776,-0.15704 1.6769,-0.0939 1.19071,0.25103 -0.35718,0.25345 -1.42873,0.46452 -2.38122,0.46906 -1.65459,0.008 -4.91677,1.51032 -4.40042,2.02667 0.13376,0.13376 0.8667,0.0259 1.62875,-0.2398 1.87888,-0.65498 3.64451,-0.60774 4.24311,0.11353 0.39012,0.47008 0.2999,0.64758 -0.42556,0.8373 -1.2901,0.33737 -0.80356,1.35506 0.71931,1.50456 0.93654,0.0919 1.10203,0.015 0.6367,-0.29615 -0.34581,-0.2312 -0.78417,-0.32431 -0.97413,-0.20691 -0.18996,0.1174 -0.34539,0.007 -0.34539,-0.24504 0,-0.25218 0.26839,-0.4585 0.59642,-0.4585 0.32802,0 0.84198,-0.2959 1.14212,-0.65755 0.44659,-0.53811 0.40472,-0.81335 -0.23056,-1.51532 -0.42696,-0.47178 -0.56719,-0.85778 -0.31164,-0.85778 0.25555,0 0.77503,-0.1191 1.15438,-0.26468 0.4506,-0.17291 0.63759,-0.0603 0.53933,0.32471 -0.0827,0.32417 -0.0687,0.44327 0.0312,0.26468 0.0999,-0.17859 0.46909,-0.32471 0.82049,-0.32471 0.37755,0 0.51084,0.2072 0.32584,0.50653 -0.21239,0.34365 -0.0742,0.41485 0.42989,0.22143 0.4674,-0.17936 0.63807,-0.11542 0.46018,0.17241 -0.15552,0.25163 -0.54905,0.35532 -0.87452,0.23043 -0.32547,-0.1249 -0.71493,-0.0278 -0.86546,0.21576 -0.50169,0.81175 0.1505,0.88979 1.51956,0.18182 1.30488,-0.67478 1.4342,-0.6566 3.56035,0.5006 1.21346,0.66044 3.00887,1.92732 3.9898,2.81528 0.98093,0.88796 1.81404,1.62246 1.85134,1.63223 0.0373,0.01 -0.59718,-1.96083 -1.40997,-4.37911 z m -4.35133,2.28228 c -0.0664,-1.39955 -0.79129,-2.64786 -1.5376,-2.64786 -0.37756,0 -0.22348,1.48556 0.37295,3.59566 0.35698,1.26294 1.23562,0.54789 1.16465,-0.9478 z m 2.51929,0.28254 c -0.32128,-0.32128 -0.37762,-0.15225 -0.1893,0.5679 0.15309,0.58544 0.34935,0.78169 0.45743,0.45743 0.10412,-0.31235 -0.0165,-0.77375 -0.26813,-1.02533 z m -18.47328,0.53319 c 0.33864,-0.54794 -0.2345,-0.54794 -1.08237,0 -0.55967,0.36169 -0.54825,0.42061 0.0827,0.42632 0.40266,0.004 0.85251,-0.18819 0.99968,-0.42632 z m -6.42398,-1.40708 c -0.12011,-0.29765 -0.21838,-0.0541 -0.21838,0.54119 0,0.5953 0.0983,0.83884 0.21838,0.54118 0.1201,-0.29765 0.1201,-0.78472 0,-1.08237 z m 20.49484,0.97413 c 0,-0.23812 -0.38966,-0.43294 -0.8659,-0.43294 -0.47625,0 -0.8659,-0.19483 -0.8659,-0.43295 0,-0.23813 -0.19483,-0.43295 -0.43295,-0.43295 -0.23812,0 -0.43295,0.17859 -0.43295,0.39687 0,0.31376 0.97156,0.82141 2.48946,1.30074 0.0595,0.0188 0.10824,-0.16064 0.10824,-0.39877 z m -8.47344,-0.68034 c 0.77613,-0.77614 0.76929,-0.74885 0.41755,-1.66547 -0.36701,-0.95641 -1.03605,-0.85598 -1.03605,0.15552 0,0.46219 -0.19483,0.96075 -0.43295,1.10792 -0.5451,0.33689 -0.5664,1.08237 -0.0309,1.08237 0.22111,0 0.70818,-0.30615 1.08237,-0.68034 z m -30.24238,-2.31366 c -0.52169,-0.57646 -0.62127,-1.26741 -0.41602,-2.88671 0.2543,-2.00635 0.22981,-2.07902 -0.42564,-1.26295 -0.68754,0.85603 -0.69398,0.85473 -0.56538,-0.11411 0.0715,-0.53901 0.36122,-1.21116 0.64374,-1.49368 0.71106,-0.71106 0.6421,-1.49741 -0.15825,-1.80453 -0.36955,-0.14181 -0.56652,-0.0873 -0.43771,0.1211 0.1288,0.20841 -0.0559,0.61969 -0.41046,0.91395 -0.69173,0.57409 -0.8799,1.72784 -0.2818,1.72784 0.19958,0 0.37187,1.30478 0.38286,2.89951 0.0173,2.51225 0.15679,3.01079 1.04422,3.73272 1.01831,0.82839 1.02506,0.82769 1.16726,-0.12104 0.0787,-0.52484 -0.16561,-1.29528 -0.54282,-1.7121 z m -1.17076,0.9375 c -0.54963,-0.70084 -0.52926,-0.71003 0.2717,-0.12252 0.47625,0.34934 0.94708,0.69028 1.0463,0.75767 0.0992,0.0674 -0.023,0.12251 -0.2717,0.12251 -0.24866,0 -0.71949,-0.34095 -1.0463,-0.75766 z m 10.31813,-0.0635 c 1.35906,-1.63728 1.48437,-2.37054 0.32937,-1.92732 -0.31887,0.12236 -0.47875,0.54729 -0.35528,0.9443 0.20741,0.66693 0.17862,0.66641 -0.37858,-0.007 -0.54368,-0.65692 -0.64782,-0.56101 -1.05757,0.97414 -0.24998,0.93654 -0.33545,1.69929 -0.18994,1.695 0.14551,-0.004 0.88891,-0.75997 1.652,-1.67928 z m 12.23721,0.17176 c 0,-0.23812 -0.18886,-0.14071 -0.41969,0.21648 -0.23083,0.35718 -0.41969,0.84425 -0.41969,1.08237 0,0.23812 0.18886,0.14071 0.41969,-0.21647 0.23083,-0.35719 0.41969,-0.84426 0.41969,-1.08238 z m 6.68856,1.25253 c 0.37666,-0.14454 0.68484,-0.63326 0.68484,-1.08604 0,-0.70697 -0.11888,-0.74901 -0.84168,-0.29761 -0.69575,0.4345 -0.99601,0.38597 -1.7318,-0.27991 -0.48956,-0.44305 -0.89012,-1.165 -0.89012,-1.60434 0,-0.48058 -0.31045,-0.7988 -0.77931,-0.7988 -0.42862,0 -0.96602,-0.18671 -1.19423,-0.41492 -0.26096,-0.26096 -0.65454,-0.26342 -1.06072,-0.007 -0.53035,0.3353 -0.491,0.40965 0.22009,0.41591 0.6721,0.006 0.87711,0.31573 0.91599,1.38429 0.0805,2.21208 2.4173,3.55516 4.67694,2.68805 z m -21.83516,-2.4716 c 0.008,-1.50012 -0.66627,-2.87638 -1.88408,-3.84471 -0.70677,-0.56198 -0.80432,-0.85383 -0.41573,-1.24374 0.38906,-0.39039 0.76182,-0.25537 1.59486,0.57767 1.33393,1.33393 1.83557,3.71716 1.17891,5.60086 -0.36748,1.05415 -0.36678,1.28399 0.003,0.91442 0.2715,-0.27151 0.59051,-1.35299 0.70889,-2.4033 0.24767,-2.19746 -0.9779,-5.09871 -2.59169,-6.13522 -1.02755,-0.65998 -4.50705,-1.12643 -4.32393,-0.57965 0.0595,0.17775 0.10824,0.64789 0.10824,1.04476 0,0.39687 0.12303,0.59855 0.2734,0.44818 0.40799,-0.40799 1.95636,0.53952 1.66145,1.01671 -0.13979,0.22617 -0.74401,0.41122 -1.34272,0.41122 -1.46788,0 -1.22351,1.45837 0.27819,1.66023 0.59287,0.0797 1.25596,0.31615 1.47354,0.52546 0.22853,0.21986 -0.27426,0.27187 -1.19062,0.12317 -1.44478,-0.23446 -1.58619,-0.16778 -1.58619,0.74789 0,0.96449 0.0244,0.97188 0.602,0.18202 0.51677,-0.70672 0.76194,-0.7504 1.73179,-0.30851 0.6214,0.28313 1.13279,0.76249 1.13644,1.06524 0.005,0.4109 0.1025,0.39911 0.38474,-0.0465 0.27965,-0.44152 0.52566,-0.18898 0.94467,0.96976 0.62394,1.72547 1.24364,1.36701 1.25502,-0.72595 z m 31.89548,1.23774 c -0.141,-0.36745 -0.46417,-0.66809 -0.71814,-0.66809 -0.32019,0 -0.3136,0.27685 0.0215,0.90298 0.53742,1.00418 1.09942,0.8147 0.69665,-0.23489 z m -34.60777,-0.20627 c 0.0347,-0.46036 -0.2161,-1.0687 -0.55729,-1.35186 -0.51078,-0.42391 -0.62034,-0.3207 -0.62034,0.58447 0,0.60462 0.24354,1.19758 0.54119,1.31768 0.29765,0.12011 0.54843,0.23376 0.55729,0.25256 0.009,0.0188 0.0445,-0.34248 0.0792,-0.80285 z m 31.72653,0.6461 c 0,-0.45696 -0.83088,-0.64895 -1.07801,-0.24909 -0.14957,0.24201 0.0318,0.44002 0.40303,0.44002 0.37124,0 0.67498,-0.0859 0.67498,-0.19093 z m 15.58618,-1.54087 c 0,-0.95249 -0.19483,-1.7318 -0.43295,-1.7318 -0.23812,0 -0.43295,0.77931 -0.43295,1.7318 0,0.95249 0.19483,1.7318 0.43295,1.7318 0.23812,0 0.43295,-0.77931 0.43295,-1.7318 z m -28.14171,-0.23006 c 0,-0.36466 -0.34095,-0.78402 -0.75767,-0.93192 -0.41671,-0.14789 -1.6987,-0.93198 -2.84887,-1.74242 -1.66557,-1.1736 -2.21633,-1.36968 -2.70593,-0.96335 -0.50442,0.41863 -0.61473,0.30645 -0.61473,-0.62521 0,-1.496 -1.18924,-1.50636 -1.56389,-0.0136 -0.37229,1.48331 0.62158,2.44704 3.94512,3.82551 3.02524,1.25475 4.54597,1.40562 4.54597,0.45101 z m -24.80486,-2.03788 c -0.10356,-0.53855 -0.19222,-0.19987 -0.19703,0.75262 -0.005,0.95248 0.0799,1.39312 0.18829,0.97918 0.10836,-0.41394 0.11229,-1.19325 0.009,-1.7318 z m 47.75118,0.96909 c 0,-0.23812 -0.19483,-0.43295 -0.43295,-0.43295 -0.23812,0 -0.43295,0.19483 -0.43295,0.43295 0,0.23812 0.19483,0.43295 0.43295,0.43295 0.23812,0 0.43295,-0.19483 0.43295,-0.43295 z m -34.86856,-1.18769 c 1.09678,-1.18283 1.09769,-1.19042 0.22273,-1.8504 -0.48321,-0.36449 -1.05157,-1.24252 -1.26303,-1.95119 l -0.38447,-1.28849 -0.10455,1.51533 c -0.0575,0.83342 -0.0669,1.95368 -0.0208,2.48946 0.046,0.53577 -0.12998,0.97413 -0.39117,0.97413 -0.26118,0 -0.36279,-0.18136 -0.22579,-0.40303 0.13699,-0.22167 0.0816,-0.50657 -0.1232,-0.63312 -0.28305,-0.17494 -0.37567,1.57668 -0.11774,2.22676 0.19136,0.48228 1.50663,-0.10731 2.40805,-1.07945 z m 2.82763,-1.57126 c -0.002,-0.79837 -0.0889,-0.75587 -0.64942,0.31898 -0.81557,1.56379 -0.81498,1.8197 0.003,1.14112 0.35718,-0.29643 0.64822,-0.95348 0.64675,-1.4601 z m 32.83478,0.35486 c 0.52106,0.16538 0.92487,0.032 1.07319,-0.35452 0.31639,-0.8245 -1.40229,-1.26603 -2.25233,-0.57863 -0.4268,0.34514 -0.54654,0.35566 -0.35201,0.0309 0.16215,-0.27067 -0.004,-0.74025 -0.36955,-1.0435 -0.36539,-0.30325 -0.56419,-0.8124 -0.44177,-1.13143 0.15967,-0.41608 -0.20195,-0.58006 -1.27914,-0.58006 -1.03021,0 -1.50174,0.19913 -1.50174,0.63419 0,0.73584 1.30287,1.53056 2.5092,1.53056 0.67638,0 0.7915,0.22539 0.6081,1.19061 -0.2005,1.05519 -0.14679,1.12499 0.47221,0.61365 0.38414,-0.31733 1.07437,-0.45764 1.53384,-0.31181 z m 4.40154,0.0365 c 0,-0.38623 0.25397,-0.53838 0.64694,-0.38759 0.35581,0.13654 0.53914,0.42267 0.4074,0.63584 -0.13175,0.21317 0.18546,0.38758 0.70492,0.38758 0.79043,0 0.85656,-0.10591 0.40549,-0.64942 -0.44142,-0.53188 -0.41184,-0.64943 0.16346,-0.64943 0.8245,0 0.9249,-0.9032 0.1829,-1.6452 -0.73749,-0.73749 -1.66779,-0.64921 -1.36883,0.12988 0.15781,0.41124 -0.006,0.64943 -0.44653,0.64943 -0.41376,0 -0.69575,-0.36131 -0.69575,-0.89145 0,-0.4903 -0.19483,-0.77105 -0.43295,-0.62388 -0.23812,0.14717 -0.43295,1.03539 -0.43295,1.97383 0,0.93843 0.19483,1.70624 0.43295,1.70624 0.23812,0 0.43295,-0.28612 0.43295,-0.63583 z m -37.98066,-1.0709 c 0.28297,-1.08206 -0.0947,-1.45004 -0.84718,-0.82551 -0.32532,0.26999 -0.72725,0.35512 -0.8932,0.18918 -0.52713,-0.52714 0.90926,-1.10704 2.75909,-1.1139 1.68568,-0.006 3.09194,0.8149 2.46655,1.44029 -0.15668,0.15668 -0.0576,0.28487 0.22024,0.28487 0.2778,0 0.5051,-0.44371 0.5051,-0.98604 0,-0.54232 0.28633,-1.39483 0.63629,-1.89446 0.6044,-0.8629 0.544,-0.94368 -1.20508,-1.61166 -2.31077,-0.88249 -4.35709,-0.90021 -5.06778,-0.0439 -0.46413,0.55925 -0.42289,0.61483 0.2717,0.36615 0.6328,-0.22654 0.54832,-0.002 -0.37171,0.98792 -1.43556,1.54466 -1.45351,1.76396 -0.24924,3.04584 1.14739,1.22135 1.48986,1.25245 1.77522,0.16121 z m 36.68181,0.0671 c 0,-0.4544 -0.34535,-0.79978 -0.83674,-0.8368 -0.78603,-0.0592 -0.79331,-0.0123 -0.12025,0.77377 0.88091,1.02884 0.95699,1.03385 0.95699,0.063 z m -41.25428,-0.3693 c 0.0806,-0.24174 -0.34561,-0.66375 -0.94708,-0.9378 -1.23504,-0.56272 -1.32246,-0.43862 -0.55578,0.78902 0.54697,0.87585 1.23771,0.94423 1.50286,0.14878 z m 13.51297,-0.4722 c 2.87557,-1.03665 3.90647,-1.18161 8.36682,-1.17659 2.79794,0.003 5.08716,-0.1467 5.08716,-0.333 0,-0.18631 -0.40115,-0.33874 -0.89145,-0.33874 -0.4903,0 -0.77104,-0.19483 -0.62387,-0.43295 0.14717,-0.23812 -0.0477,-0.43295 -0.43295,-0.43295 -0.38529,0 -0.58092,0.19353 -0.43473,0.43007 0.15376,0.2488 -0.19604,0.39184 -0.82994,0.33938 -0.60265,-0.0499 -1.1878,-0.33064 -1.30034,-0.62391 -0.63633,-1.65825 -6.00885,-2.69948 -8.30548,-1.60966 -1.48852,0.70635 -1.91453,1.64496 -0.92738,2.04328 0.29765,0.12011 -0.3634,0.23376 -1.46901,0.25256 -1.43885,0.0245 -2.08736,0.23529 -2.28172,0.74178 -0.23236,0.60553 -0.005,0.6761 1.57724,0.48922 l 1.84877,-0.21839 -1.62135,0.7014 c -0.89174,0.38576 -1.62235,0.84751 -1.62356,1.0261 -0.003,0.4917 0.31501,0.42101 3.86179,-0.8576 z m 4.5481,-2.23206 c 0.35468,-0.57389 -1.50967,-0.93233 -2.39234,-0.45994 -1.22864,0.65754 -2.02134,0.46986 -1.06633,-0.25247 0.99593,-0.75329 1.64174,-0.78315 3.82488,-0.17689 1.66525,0.46245 1.83241,1.27303 0.26253,1.27303 -0.47625,0 -0.75918,-0.17268 -0.62874,-0.38373 z m 22.11084,1.13633 c 1.04377,-0.15262 0.93749,-0.20265 -0.54119,-0.25478 -1.43533,-0.0506 -1.84003,0.0896 -1.84003,0.63756 0,0.51207 0.14667,0.58112 0.54118,0.25479 0.29766,-0.24621 1.12567,-0.53312 1.84004,-0.63757 z m -39.61488,-0.71652 c 0,-0.4564 0.14612,-0.91154 0.32472,-1.01142 0.17859,-0.0999 0.0978,-0.12862 -0.17945,-0.0639 -0.27729,0.0647 -1.24392,-0.25943 -2.14806,-0.72039 -1.91745,-0.97757 -3.43967,-1.08106 -3.75652,-0.25539 -0.15294,0.39857 0.51186,0.81455 2.10368,1.31632 1.28,0.40349 2.44283,0.92058 2.58406,1.14909 0.43581,0.70515 1.07157,0.45932 1.07157,-0.41434 z m 31.60531,0.39687 c 0,-0.23812 -0.19482,-0.43295 -0.43295,-0.43295 -0.23812,0 -0.43295,0.19483 -0.43295,0.43295 0,0.23812 0.19483,0.43295 0.43295,0.43295 0.23813,0 0.43295,-0.19483 0.43295,-0.43295 z m 13.6366,-0.73983 c 0.0471,-0.63922 -0.12354,-0.83382 -0.57815,-0.65936 -0.37537,0.14404 -0.53071,0.0626 -0.37164,-0.19475 0.33926,-0.54894 -2.49927,-1.43671 -4.59368,-1.43671 -0.85128,0 -1.67901,0.21233 -1.83939,0.47183 -0.17372,0.2811 -0.87049,0.36324 -1.72359,0.20319 -0.91196,-0.17108 -1.54864,-0.0799 -1.75323,0.25117 -0.22175,0.35879 -0.0911,0.4315 0.42167,0.23472 0.40861,-0.1568 0.65268,-0.13905 0.54236,0.0394 -0.11031,0.17849 0.0472,0.66343 0.35013,1.07765 0.47125,0.64448 0.85973,0.69451 2.69296,0.34685 1.97913,-0.37534 5.01996,-0.0571 5.6705,0.59343 0.48405,0.48406 1.11451,-0.0106 1.18206,-0.92746 z m -14.93544,0.30688 c 0,-0.23812 -0.19483,-0.43295 -0.43295,-0.43295 -0.23813,0 -0.43295,0.19483 -0.43295,0.43295 0,0.23812 0.19482,0.43295 0.43295,0.43295 0.23812,0 0.43295,-0.19483 0.43295,-0.43295 z m -39.3984,-0.8659 c -0.53869,-0.34812 -0.50177,-0.42195 0.21647,-0.43295 0.69268,-0.0106 0.74065,-0.0925 0.2398,-0.40937 -0.39075,-0.24722 -0.95672,-0.21917 -1.50566,0.0746 -0.87109,0.46619 -0.87132,0.47396 -0.0233,0.80526 1.22241,0.47759 1.83657,0.45608 1.07271,-0.0376 z m 41.56314,-0.12989 c 0,-0.30955 -0.23379,-0.79662 -0.51954,-1.08237 -0.5986,-0.59861 -4.2429,-0.71276 -4.2429,-0.13291 0,0.5685 1.18951,0.927 2.01929,0.60858 0.48115,-0.18463 0.61749,-0.10986 0.41047,0.22511 -0.19788,0.32017 -0.0828,0.41439 0.31813,0.26053 0.34546,-0.13257 0.75674,-0.0329 0.91394,0.22143 0.39752,0.64321 1.10061,0.57909 1.10061,-0.10037 z m -39.3984,-0.51954 c 0,-0.35718 -0.19482,-0.64942 -0.43295,-0.64942 -0.23812,0 -0.43295,0.29224 -0.43295,0.64942 0,0.35719 0.19483,0.64943 0.43295,0.64943 0.23813,0 0.43295,-0.29224 0.43295,-0.64943 z m 0.64943,-1.08237 c -0.14717,-0.23812 -0.59703,-0.41925 -0.99969,-0.40252 -0.59682,0.0248 -0.5721,0.0992 0.13379,0.40252 1.15853,0.49784 1.17358,0.49784 0.8659,0 z m 43.82711,0.17138 c -0.14387,-0.14387 -0.51729,-0.15925 -0.82982,-0.0342 -0.34538,0.1382 -0.24279,0.24079 0.26157,0.26157 0.4564,0.0188 0.71212,-0.0835 0.56825,-0.22739 z m 7.4774,28.88734 c 0,-0.23812 0.19482,-0.55336 0.43295,-0.70053 0.23812,-0.14717 0.43295,-0.0727 0.43295,0.16537 0,0.23812 -0.19483,0.55336 -0.43295,0.70053 -0.23813,0.14717 -0.43295,0.0727 -0.43295,-0.16537 z m 0.28863,-17.65772 c -0.15875,-0.15874 -0.28863,-0.72931 -0.28863,-1.26792 0,-0.53861 -0.30616,-1.28545 -0.68035,-1.65964 -0.53432,-0.53431 -0.5529,-0.68035 -0.0866,-0.68035 0.32657,0 0.83393,0.24018 1.12748,0.53372 0.42299,0.42299 0.58616,0.33317 0.7865,-0.43295 0.13904,-0.53167 0.44762,-0.96667 0.68574,-0.96667 0.24996,0 0.30513,0.41173 0.13053,0.97414 -0.31408,1.01169 -0.56622,2.31454 -0.62839,3.24712 -0.0391,0.58559 -0.58215,0.71669 -1.04629,0.25255 z m 0.44007,-1.52434 c -0.13821,-0.34538 -0.2408,-0.24279 -0.26157,0.26157 -0.0188,0.45641 0.0835,0.71212 0.22739,0.56825 0.14387,-0.14386 0.15924,-0.51728 0.0342,-0.82982 z m 2.77584,-5.00598 c 0.31896,-0.41671 0.63506,-0.83884 0.70244,-0.93805 0.0674,-0.0992 0.12251,0.24173 0.12251,0.75766 0,0.57666 -0.27062,0.93805 -0.70243,0.93805 -0.60128,0 -0.61893,-0.10911 -0.12252,-0.75766 z"
       id="path3111" />
  </g>
</svg>
