<?xml version="1.0" encoding="UTF-8" standalone="no"?>
<!-- Created with Inkscape (http://www.inkscape.org/) -->

<svg
   width="67.889114mm"
   height="62.796913mm"
   viewBox="0 0 67.889116 62.796912"
   version="1.1"
   id="svg5"
   inkscape:version="1.1 (c4e8f9ed74, 2021-05-24)"
   sodipodi:docname="ornament4.svg"
   xmlns:inkscape="http://www.inkscape.org/namespaces/inkscape"
   xmlns:sodipodi="http://sodipodi.sourceforge.net/DTD/sodipodi-0.dtd"
   xmlns="http://www.w3.org/2000/svg"
   xmlns:svg="http://www.w3.org/2000/svg">
  <sodipodi:namedview
     id="namedview7"
     pagecolor="#ffffff"
     bordercolor="#666666"
     borderopacity="1.0"
     inkscape:pageshadow="2"
     inkscape:pageopacity="0.0"
     inkscape:pagecheckerboard="0"
     inkscape:document-units="mm"
     showgrid="false"
     inkscape:zoom="0.94615212"
     inkscape:cx="-201.34183"
     inkscape:cy="178.08975"
     inkscape:window-width="2506"
     inkscape:window-height="1403"
     inkscape:window-x="1974"
     inkscape:window-y="0"
     inkscape:window-maximized="1"
     inkscape:current-layer="layer1" />
  <defs
     id="defs2" />
  <g
     inkscape:label="Layer 1"
     inkscape:groupmode="layer"
     id="layer1"
     transform="translate(-216.98526,-106.77101)">
    <path
       style="fill:#000000;stroke-width:0.424912"
       d="m 248.54409,168.94805 c -1.16851,-0.35699 -2.60259,-0.92803 -3.18684,-1.26896 -0.58427,-0.34095 -1.58811,-0.8206 -2.2308,-1.06593 -0.64268,-0.24533 -1.16851,-0.61855 -1.16851,-0.8294 0,-0.21083 -0.65536,-0.38335 -1.45635,-0.38335 -1.04735,0 -1.69102,-0.29832 -2.29195,-1.06226 -0.45958,-0.58427 -1.05765,-1.06229 -1.32908,-1.06229 -0.27142,0 -1.75001,-0.6668 -3.28575,-1.48178 -1.85208,-0.98285 -3.11832,-1.39994 -3.76065,-1.23873 -1.15287,0.28935 -1.68728,-0.86239 -1.27374,-2.74519 0.17945,-0.81702 0.0544,-1.37054 -0.39325,-1.74214 -0.85028,-0.70568 -0.83321,-1.66534 0.0471,-2.63792 0.64666,-0.71456 0.64747,-0.77705 0.01,-0.77705 -0.99299,0 -4.02992,-4.01474 -4.3574,-5.76035 -0.15224,-0.81126 -0.18585,-1.95039 -0.0748,-2.53138 0.11113,-0.58099 0.0145,-1.05635 -0.21609,-1.05635 -0.22991,0 -0.182,-0.28439 0.10648,-0.63195 0.79691,-0.96023 0.29256,-1.69024 -2.45839,-3.55836 -2.59696,-1.76357 -3.6052,-3.2493 -4.13016,-6.08613 -0.89119,-4.81578 3.85114,-9.78295 8.68146,-9.09306 2.84697,0.40663 6.01206,0.95416 7.49718,1.29693 1.22662,0.28312 1.3431,0.19627 2.06919,-1.54275 1.65748,-3.96972 1.9134,-4.23443 5.0267,-5.19912 1.55741,-0.48258 2.07011,-3.6547 0.59069,-3.6547 -0.33044,0 -1.79981,1.23497 -3.26525,2.74439 -4.08311,4.20565 -6.60391,4.98385 -9.97026,3.07795 -2.06781,-1.1707 -2.95137,-2.82056 -2.96449,-5.53553 -0.01,-2.02688 -0.0238,-2.04744 -1.22371,-1.80744 -2.7284,0.54568 -5.47546,-2.13414 -4.58596,-4.47371 0.72195,-1.89889 1.50763,-2.22151 4.63802,-1.90447 1.57377,0.15931 3.48283,0.27494 4.24236,0.25677 0.75954,-0.0181 1.38097,0.15562 1.38097,0.38637 0,0.2437 0.73432,0.16027 1.75308,-0.19916 2.36814,-0.83552 8.58981,-0.80709 11.10749,0.0507 2.48931,0.84819 5.38966,3.38681 6.70747,5.87089 0.83745,1.57859 1.18718,1.88406 1.94059,1.69497 0.50546,-0.12687 1.06029,-0.002 1.23297,0.27731 0.20399,0.33005 0.72899,-0.15883 1.49901,-1.39601 1.33975,-2.15251 3.98259,-4.44432 6.70951,-5.81834 3.0753,-1.54957 8.37609,-1.63615 12.1238,-0.19802 0.42983,0.16495 0.69235,0.0471 0.6928,-0.31103 4.1e-4,-0.43934 1.00403,-0.60268 4.2156,-0.68623 4.10911,-0.10679 4.23706,-0.0814 5.09824,1.01337 1.1708,1.48843 1.11585,2.93905 -0.15963,4.21453 -1.00701,1.00702 -1.77917,1.2091 -4.07116,1.06553 -1.02509,-0.0642 -1.07799,0.0421 -1.08858,2.18577 -0.0199,4.0506 -2.04986,6.28992 -5.70168,6.28992 -2.31531,0 -3.05486,-0.4321 -6.64025,-3.87983 -2.88255,-2.77185 -4.40064,-3.5881 -4.40064,-2.36611 0,1.19191 1.11391,2.82013 2.09864,3.06761 1.80309,0.45314 3.42523,1.87945 3.42523,3.01174 0,0.57765 0.37621,1.78772 0.83602,2.68902 l 0.83603,1.63876 2.66949,-0.60333 c 1.46823,-0.33184 3.48491,-0.79007 4.48149,-1.01831 3.07953,-0.70528 4.88367,-0.50919 6.81056,0.74022 2.21365,1.43535 3.48748,3.96825 3.48748,6.93461 0,2.70877 -0.78179,4.2658 -3.61861,7.20704 -1.23974,1.28535 -2.33034,2.71943 -2.42358,3.18684 -0.0933,0.46741 -0.41599,0.79575 -0.71722,0.72967 -0.4156,-0.0912 -0.48314,0.36996 -0.28005,1.91211 0.14726,1.11774 0.0732,2.69061 -0.16453,3.49525 -0.57183,1.93572 -3.28799,4.69824 -4.61938,4.69824 -0.87452,0 -0.94751,0.0972 -0.48867,0.64996 0.41715,0.50262 0.42849,0.8934 0.0501,1.72392 -0.35651,0.78245 -0.36365,1.30884 -0.0263,1.93911 0.25465,0.4758 0.34749,1.32533 0.20632,1.88782 -0.2169,0.86419 -0.51657,1.02271 -1.93349,1.02271 -1.13315,0 -2.32848,0.41328 -3.68685,1.27472 -1.10552,0.70112 -2.249,1.27474 -2.54105,1.27474 -0.29204,0 -0.78185,0.52584 -1.08846,1.16852 -0.39038,0.81829 -0.93857,1.21162 -1.82905,1.31233 -0.69939,0.0792 -1.46432,0.30312 -1.69987,0.49779 -0.44506,0.36785 -4.03331,1.68423 -4.03331,1.47966 0,-0.0641 0.37822,-0.94988 0.84048,-1.96864 0.46228,-1.01875 0.84469,-2.64327 0.84983,-3.61001 0.01,-1.93452 -1.42597,-7.02525 -3.1005,-10.98965 -0.59228,-1.4022 -1.15125,-3.21871 -1.24218,-4.03666 l -0.1653,-1.4872 h -2.42826 -2.42824 l -2.07649,6.16124 c -1.14205,3.38867 -2.20963,7.06947 -2.37238,8.17955 -0.43191,2.94586 0.0809,5.58212 1.32865,6.82983 1.11406,1.11406 4.73304,2.26554 6.54525,2.08254 1.02511,-0.10342 1.03343,-0.0848 0.23748,0.53603 -0.97003,0.75654 -0.74488,0.76036 -3.42432,-0.0583 z m 10.6966,-5.45975 c 0.0406,-1.05165 -0.10278,-1.9121 -0.31869,-1.9121 -0.21586,0 -0.39247,0.26293 -0.39247,0.58427 0,0.32134 -0.11948,1.18178 -0.26558,1.9121 -0.19441,0.97215 -0.10904,1.32784 0.31869,1.32784 0.39825,0 0.60775,-0.60877 0.65805,-1.91211 z m -16.16511,0.53116 c -0.14084,-0.52583 -0.25881,-1.30196 -0.26201,-1.72473 -0.003,-0.44751 -0.20005,-0.64862 -0.47072,-0.48133 -0.25572,0.15803 -0.36939,0.78712 -0.25262,1.39795 0.19973,1.04489 0.17696,1.0623 -0.38491,0.29389 -0.32846,-0.44919 -0.59721,-1.05687 -0.59721,-1.35039 0,-0.29353 -0.48988,-1.45204 -1.08865,-2.5745 -0.59875,-1.12244 -1.00768,-2.47104 -0.90874,-2.99687 0.12414,-0.66005 -0.0255,-0.95604 -0.48352,-0.95604 -0.516,0 -0.55013,-0.11339 -0.15353,-0.5099 0.28043,-0.28045 0.50989,-0.86697 0.50989,-1.30337 0,-0.60012 -0.20711,-0.72775 -0.84983,-0.52376 -0.61886,0.19641 -0.84983,0.0764 -0.84983,-0.44173 0,-0.45785 -0.22721,-0.62428 -0.63736,-0.46689 -0.86001,0.33003 -0.82112,-0.73777 0.0797,-2.18695 0.68701,-1.10526 0.65587,-1.09682 -0.74359,0.20136 -1.6692,1.54836 -3.2845,2.25685 -5.14551,2.25685 -0.94081,0 -1.22964,0.16388 -1.06145,0.60219 0.12703,0.33122 -0.0437,0.70764 -0.37944,0.8365 -0.96443,0.37008 -0.7123,1.50756 0.45173,2.03791 1.28435,0.5852 1.31888,0.83276 0.21247,1.52373 -1.35355,0.8453 -1.06805,1.79827 0.53872,1.79827 0.76372,0 2.05439,0.45102 2.86816,1.00228 0.81378,0.55125 1.94934,1.15033 2.52348,1.33124 0.96836,0.30517 0.93764,0.2138 -0.42491,-1.2631 -0.80783,-0.87563 -2.04242,-1.96988 -2.74352,-2.43166 l -1.27474,-0.8396 1.16147,0.19033 c 1.06313,0.17421 1.1403,0.0965 0.91122,-0.91791 -0.13763,-0.60955 -0.61251,-1.42572 -1.05525,-1.81373 -1.04317,-0.91422 -1.03373,-1.35894 0.0169,-0.79666 1.17349,0.62803 1.30268,0.5663 1.30268,-0.62243 0,-0.58425 0.16469,-1.06228 0.36598,-1.06228 0.20129,0 0.26608,0.52583 0.1439,1.16852 -0.19932,1.04902 -0.14984,1.10887 0.48383,0.58534 0.41633,-0.34396 0.70587,-0.39783 0.70587,-0.13137 0,0.24853 -0.19121,0.57004 -0.42491,0.71448 -0.48781,0.30149 -0.51699,2.58741 -0.0483,3.78219 0.2782,0.70913 0.38466,0.64425 0.87151,-0.53114 0.30504,-0.73642 0.72935,-1.33893 0.94293,-1.33893 0.21671,0 0.19392,0.3632 -0.0516,0.82188 -1.0428,1.94849 0.0259,4.27705 1.96301,4.27705 1.01799,0 1.33549,0.59013 0.57151,1.06229 -0.79399,0.49072 -0.4397,1.48709 0.53115,1.49371 0.52582,0.003 1.24285,0.19185 1.59342,0.4184 1.14276,0.73851 1.82029,0.50522 1.54255,-0.53114 z m 19.15338,-0.0214 c 0.87624,-0.55467 0.10262,-1.572 -1.19542,-1.572 -0.67609,0 -1.22927,0.17558 -1.22927,0.39015 0,0.21459 -0.10776,0.67086 -0.23935,1.01393 -0.17849,0.46513 0.0646,0.60704 0.95605,0.55806 0.65746,-0.0361 1.42606,-0.2117 1.70799,-0.39016 z m 1.02459,-3.64656 c 1.93537,-1.93536 2.04943,-2.90899 0.54962,-4.69142 -0.60504,-0.71904 -0.9284,-1.30734 -0.71858,-1.30734 0.56961,0 1.65153,0.94993 2.17779,1.9121 0.4396,0.80372 0.46538,0.79219 0.47513,-0.21246 0.006,-0.58425 -0.27533,-1.60996 -0.62445,-2.27935 -0.88054,-1.68837 -0.77019,-1.95082 0.29224,-0.69503 l 0.8987,1.06228 -0.29251,-1.20412 c -0.19206,-0.79062 -0.14069,-1.11032 0.14951,-0.93096 0.24308,0.15016 0.44195,0.84837 0.44195,1.55143 0,1.12943 0.11129,1.24406 0.95605,0.98442 l 0.95606,-0.29387 -0.95606,1.03622 c -0.52583,0.56992 -0.95605,1.2629 -0.95605,1.53998 0,0.27706 0.43022,0.51498 0.95605,0.52873 0.90718,0.0238 0.91498,0.0509 0.15288,0.53114 -1.87084,1.17898 -4.47212,3.66514 -4.08511,3.90434 0.23069,0.14261 1.63453,-0.42029 3.11962,-1.2508 1.48509,-0.83052 3.20764,-1.51002 3.82785,-1.51002 1.25207,0 1.46058,-0.74912 0.59653,-2.1433 -0.43302,-0.69872 -0.42158,-0.92521 0.062,-1.22609 0.33488,-0.20841 0.47636,-0.67318 0.32499,-1.06765 -0.22081,-0.57542 -0.43036,-0.61171 -1.18863,-0.2059 -0.78562,0.42044 -0.88193,0.392 -0.65702,-0.19413 0.1606,-0.41847 0.0446,-0.68681 -0.29672,-0.68681 -1.03647,0 -3.93801,-2.43845 -4.49147,-3.77467 -0.66693,-1.61008 -1.45037,-1.78754 -0.84336,-0.19103 0.24722,0.65026 0.26985,1.23885 0.0532,1.38097 -0.20778,0.13619 -0.60435,0.67793 -0.88125,1.20377 -0.27691,0.52583 -0.8218,0.95605 -1.21088,0.95605 -0.55021,0 -0.59408,0.11322 -0.1975,0.5099 0.69397,0.69397 0.64084,1.18975 -0.12752,1.18975 -0.74607,0 -0.79107,0.39025 -0.21857,1.89601 0.3171,0.83402 0.22382,1.61459 -0.38408,3.2145 -0.69271,1.82303 -0.71416,2.11301 -0.15642,2.11301 0.3556,0 1.38889,-0.74234 2.29619,-1.64967 z m -21.97843,-2.84668 c 0.73462,-1.91438 -0.32038,-6.82612 -1.8966,-8.82997 -1.03414,-1.31468 -1.92129,-1.51502 -1.14217,-0.25792 0.43364,0.69966 0.42826,0.92907 -0.0284,1.21341 -0.43318,0.26966 -0.27159,0.6699 0.69983,1.73347 1.44164,1.57839 1.97736,3.51739 1.31418,4.75657 -0.48121,0.89913 -0.25468,2.05657 0.4025,2.05657 0.21604,0 0.50885,-0.30245 0.65071,-0.67213 z m 19.37898,-0.30518 c 0,-0.53752 -0.21661,-1.19391 -0.48134,-1.45864 -0.28414,-0.28414 -0.34372,-0.79767 -0.1455,-1.25349 0.18473,-0.42468 0.28951,-1.04537 0.2328,-1.37929 -0.0567,-0.33392 0.56354,-1.19437 1.37831,-1.91211 1.04756,-0.92281 1.54939,-1.77982 1.71355,-2.92641 0.31747,-2.2172 -0.43217,-1.88098 -2.1484,0.96359 -1.50947,2.5019 -2.43952,6.12506 -2.01077,7.83333 0.34506,1.37482 1.46129,1.47643 1.46129,0.13297 z m -17.22922,-2.9668 c -0.26236,-1.55296 -0.22099,-1.64617 0.61305,-1.38146 1.91383,0.60743 0.80334,-1.40209 -1.86753,-3.37941 -0.84182,-0.62322 -0.84082,-0.63167 0.10615,-0.89815 0.52583,-0.14791 0.95313,-0.39011 0.94955,-0.53811 -0.0165,-0.68724 -0.71837,-1.26334 -1.45524,-1.19465 -0.62016,0.0578 -0.96253,-0.40109 -1.44937,-1.94264 -0.35056,-1.11008 -0.77494,-2.01834 -0.94307,-2.01834 -0.16813,0 -0.38765,0.81264 -0.48783,1.80588 -0.14213,1.40924 0.0318,2.09088 0.79205,3.10349 1.58735,2.11435 2.37282,4.48107 2.43201,7.32807 0.0551,2.65123 0.0631,2.6678 0.82359,1.72876 0.58758,-0.72547 0.70184,-1.3392 0.48656,-2.61344 z m 15.09815,0.4545 c 0.01,-1.74283 1.53726,-5.47136 3.19872,-7.80822 1.18553,-1.66746 1.47608,-2.46681 1.45306,-3.99767 -0.0268,-1.78452 -0.0618,-1.84189 -0.51898,-0.8512 -0.26961,0.58425 -0.7347,1.21519 -1.03352,1.40209 -0.29881,0.18689 -0.5433,0.60243 -0.5433,0.92345 0,1.06282 -2.16475,3.24284 -2.96724,2.98815 -0.49404,-0.15675 -0.98185,0.12494 -1.44815,0.83667 -0.6252,0.95419 -0.62975,1.07316 -0.0411,1.07316 0.36415,0 1.13939,-0.31271 1.72271,-0.69493 1.80266,-1.18116 1.69482,-0.24209 -0.16992,1.47943 -1.7854,1.64827 -2.44007,3.38762 -1.07839,2.86508 0.5699,-0.21868 0.64897,-0.0504 0.44816,0.95364 -0.31758,1.58792 0.1052,3.34946 0.61193,2.54997 0.19769,-0.31187 0.36238,-1.08571 0.36595,-1.71962 z m 16.48222,-3.69652 c 3.39688,-2.68483 2.51904,-8.27488 -2.11962,-13.49778 -1.0449,-1.17649 -2.7267,-3.41767 -3.73733,-4.98039 -1.01064,-1.56273 -2.0446,-2.75849 -2.2977,-2.65726 -4.46848,1.78731 -4.45248,1.77059 -3.66811,3.83362 0.22211,0.58417 0.59673,3.60819 0.83249,6.72003 0.4659,6.14926 0.90282,7.9013 2.49737,10.01439 1.80179,2.38769 5.84782,2.65801 8.4929,0.56739 z m -41.11402,0.0234 c 2.60395,-1.3878 3.72997,-4.34095 4.23558,-11.10849 0.23572,-3.15499 0.54135,-6.23154 0.67919,-6.8368 0.22744,-0.99874 0.0471,-1.18805 -1.95175,-2.04789 -1.21128,-0.52108 -2.24838,-0.88633 -2.30467,-0.81164 -0.0564,0.0747 -0.69015,0.99623 -1.4086,2.0479 -0.71843,1.05166 -2.29005,2.86815 -3.49247,4.03667 -3.20199,3.11171 -4.86904,6.22983 -4.88593,9.13896 -0.0129,2.11358 0.14951,2.53558 1.6698,4.35534 1.6003,1.91553 1.78942,2.01501 3.83085,2.01501 1.27753,0 2.7472,-0.31966 3.628,-0.78908 z m 12.49137,-3.77071 c -0.20933,-1.39578 -0.15578,-1.85187 0.19205,-1.63688 1.07072,0.66172 0.41327,-1.60017 -0.79249,-2.72652 -1.55285,-1.45057 -1.60384,-1.79844 -0.21246,-1.44922 0.92975,0.23334 1.06229,0.12831 1.06229,-0.84174 0,-0.60958 -0.38243,-1.49076 -0.84983,-1.95816 -1.06394,-1.06395 -1.07962,-1.43395 -0.0493,-1.16452 0.63947,0.16723 0.79337,-0.0144 0.76499,-0.90649 -0.0196,-0.61372 0.008,-2.35872 0.0606,-3.87777 l 0.0962,-2.76193 0.72579,1.17067 c 0.39919,0.64387 0.91993,1.106 1.15721,1.02696 0.23727,-0.079 0.4586,-1.67765 0.49183,-3.55242 0.0387,-2.18618 0.29935,-3.84983 0.72659,-4.6387 0.6542,-1.20796 0.66646,-1.17096 0.68316,2.06304 0.0112,2.12454 0.18482,3.29307 0.48989,3.29307 0.31817,0 0.41787,-0.97297 0.30479,-2.97438 -0.0925,-1.63592 -0.0432,-2.97438 0.10921,-2.97438 0.62132,0 1.34182,3.96661 1.11671,6.14779 -0.1823,1.76628 -0.0858,2.42755 0.41527,2.84334 0.54707,0.45402 0.8137,0.35474 1.64604,-0.61292 0.54627,-0.63508 1.09801,-1.15471 1.22607,-1.15471 0.3811,0 0.26399,1.63025 -0.13474,1.87672 -0.2022,0.12495 -0.47878,0.91211 -0.61463,1.74919 -0.27572,1.69904 0.22177,3.63455 0.72492,2.82044 0.16912,-0.27366 0.50942,-0.49757 0.75621,-0.49757 0.24679,0 0.11146,0.51464 -0.30063,1.14363 -0.81733,1.24739 -1.5624,3.95532 -1.08829,3.95532 0.16235,0 0.52464,-0.22946 0.80507,-0.50989 0.91701,-0.91701 0.53842,0.30615 -0.55238,1.78463 -1.19764,1.62332 -1.40108,2.77041 -0.42491,2.39582 0.75191,-0.28855 0.85139,0.81016 0.22297,2.46301 -0.55653,1.46379 0.0406,1.37929 1.18432,-0.16758 0.99357,-1.34388 1.19171,-1.92893 0.51073,-1.50806 -0.23044,0.14245 -0.0392,-0.627 0.42491,-1.70981 0.46755,-1.09071 0.83059,-2.85319 0.81405,-3.95185 -0.0225,-1.49876 -0.119,-1.77555 -0.39505,-1.13329 -0.50916,1.1849 -0.53221,-0.0564 -0.0333,-1.79589 0.21965,-0.76588 0.2357,-1.88406 0.0366,-2.54668 -0.19529,-0.64971 -0.37149,-0.87008 -0.39158,-0.48972 -0.0201,0.38035 -0.32337,0.92961 -0.67393,1.22053 -0.7996,0.66362 -0.79669,0.48512 0.0241,-1.47932 0.74398,-1.7806 0.55483,-3.25268 -0.6549,-5.0968 l -0.81874,-1.24811 -0.41681,1.04396 c -0.36803,0.9218 -0.41998,0.8202 -0.44396,-0.86815 -0.0145,-1.05166 -0.40947,-2.91802 -0.87674,-4.14745 -0.46729,-1.22945 -0.84963,-2.71513 -0.84963,-3.30152 0,-1.36286 1.80338,-5.81833 2.93973,-7.26294 1.20942,-1.53756 4.16584,-3.72127 6.19589,-4.57656 l 1.69966,-0.71609 -1.48719,0.23658 c -3.37698,0.53718 -8.19312,5.1151 -9.37574,8.91201 l -0.53585,1.72035 -0.30635,-1.40253 c -0.1685,-0.77139 -0.43453,-1.53069 -0.59118,-1.68734 -0.57109,-0.5711 -1.0909,1.0064 -0.84315,2.55873 0.14374,0.90019 0.079,1.59342 -0.14871,1.59342 -0.22169,0 -0.51881,-0.97721 -0.66026,-2.17157 -0.53406,-4.50932 -4.02931,-8.61317 -8.45531,-9.92754 -4.19256,-1.24506 -8.44653,-0.66087 -13.38297,1.83782 -2.8127,1.42373 -5.39317,1.75022 -5.78395,0.73183 -0.39773,-1.03648 0.79401,-1.59951 2.77091,-1.30911 1.22551,0.18002 2.08127,0.0845 2.58379,-0.28867 0.68504,-0.50859 0.64753,-0.56236 -0.42491,-0.60897 -0.64696,-0.0281 -1.88296,-0.19487 -2.74665,-0.37054 -3.15986,-0.64273 -5.09768,0.75657 -4.09508,2.95704 0.59476,1.30534 1.8743,1.69962 4.39464,1.35418 l 1.85578,-0.25437 -0.45067,1.29281 c -1.09525,3.14185 0.79687,6.87976 3.76433,7.43647 2.86278,0.53705 4.30682,-0.11628 7.67319,-3.47175 1.74165,-1.73602 3.40605,-3.15641 3.69866,-3.15641 0.68994,0 1.79385,1.25373 2.05776,2.33702 0.16095,0.66065 0.21801,0.59646 0.25632,-0.28833 0.0615,-1.41926 -0.94882,-2.47359 -2.37021,-2.47359 -0.77952,0 -1.82344,0.77285 -3.71593,2.75104 -2.88843,3.01925 -5.10444,4.22567 -6.93422,3.77508 -3.03863,-0.74828 -4.49775,-2.92487 -3.86089,-5.75937 0.89669,-3.99087 3.74843,-5.92832 9.14257,-6.21144 4.66335,-0.24476 6.85445,0.396 9.50599,2.77997 4.23168,3.80463 4.95812,8.60235 2.26928,14.98719 -2.14106,5.08406 -2.47637,6.49571 -1.9212,8.08826 0.35538,1.01944 0.34187,1.28354 -0.0588,1.15025 -0.28606,-0.0951 -0.62495,-0.73086 -0.75312,-1.41269 l -0.23303,-1.23968 -0.544,1.59488 c -0.63532,1.86261 -0.33713,3.66463 0.85783,5.18377 1.04126,1.32373 0.56703,1.42044 -0.77644,0.15835 -1.0989,-1.03237 -1.17267,-0.83679 -0.54152,1.43568 0.25451,0.91642 1.00804,2.02402 1.8035,2.65099 1.47417,1.1619 1.10324,1.51368 -0.44938,0.42618 -0.91951,-0.64404 -0.93218,-0.63298 -0.5191,0.45351 0.23289,0.61253 0.62527,1.53105 0.87196,2.04114 0.42435,0.87738 0.40164,0.87361 -0.42057,-0.0699 -0.47803,-0.54854 -1.10402,-1.78131 -1.3911,-2.7395 -0.48952,-1.63388 -0.54221,-1.67753 -0.84765,-0.70232 -0.17914,0.57192 -0.2252,-1.04569 -0.1023,-3.59469 0.21204,-4.40011 0.18507,-4.60431 -0.533,-4.03666 -0.72285,0.5714 -0.72367,0.55083 -0.0188,-0.4644 0.88383,-1.27301 2.43935,-4.11679 2.43935,-4.45962 0,-0.13442 -0.43022,-0.0234 -0.95606,0.24655 -0.61339,0.31495 -0.3162,-0.17465 0.82919,-1.366 3.53621,-3.67819 5.18757,-9.59466 3.73763,-13.39126 -0.97045,-2.54109 -3.34854,-5.17511 -5.55782,-6.15595 -1.84401,-0.81868 -7.37681,-1.1418 -9.73805,-0.56871 -4.09753,0.99451 -6.87743,5.34739 -5.2988,8.29711 0.5364,1.00227 2.57681,2.10157 3.89674,2.09943 1.42234,-0.002 3.58109,-1.45365 6.05776,-4.07272 1.87171,-1.97929 2.39404,-2.29937 3.75208,-2.29937 1.03943,0 1.88409,0.30641 2.47582,0.89815 0.86919,0.86917 0.91414,1.72319 0.28649,5.44223 -0.0907,0.53737 1.13446,4.28242 1.40094,4.28242 0.15658,0 0.52279,-0.2868 0.81373,-0.63737 0.29093,-0.35055 0.74457,-0.62953 1.00808,-0.61994 0.26351,0.01 -0.35145,0.76851 -1.36657,1.68648 -2.04045,1.84518 -2.29979,3.20913 -0.31303,1.64634 l 1.22026,-0.95985 -0.7021,1.07153 c -0.38614,0.58933 -1.19516,1.3354 -1.79782,1.65794 -0.60264,0.32252 -1.39101,1.15745 -1.75193,1.85539 -0.36093,0.69794 -0.93309,1.54586 -1.27148,1.88425 -0.33947,0.33945 -0.51245,1.0084 -0.38591,1.4923 0.12944,0.4948 -0.0633,1.20043 -0.44218,1.61906 -0.36934,0.40812 -0.75217,1.65803 -0.85076,2.7776 -0.17455,1.9825 -0.16082,2.01066 0.527,1.07953 0.73602,-0.99639 1.87731,-1.29545 1.87731,-0.49194 0,0.25527 -0.38242,0.9503 -0.84983,1.54451 -0.77841,0.98958 -1.25798,3.2152 -0.53756,2.49479 0.17174,-0.17174 0.51213,0.60903 0.75639,1.73506 0.33449,1.54192 0.61906,2.01775 1.15275,1.92756 0.39179,-0.0662 0.9317,0.31373 1.20763,0.84983 0.74738,1.45215 2.59722,3.30888 3.03006,3.04135 0.20916,-0.12928 0.24971,-1.10574 0.0901,-2.16995 z m -1.16703,-26.21516 c -0.15562,-0.40536 -0.16344,-2.02151 -0.0175,-3.59146 0.2597,-2.7943 0.23662,-2.88313 -1.09518,-4.21493 -2.4446,-2.44459 -5.53494,-1.71641 -9.35393,2.20408 -1.86933,1.91901 -2.58887,2.38423 -3.68763,2.38423 -3.85708,0 -3.5022,-5.07809 0.47794,-6.83869 5.41157,-2.39379 12.08954,-0.78156 14.24245,3.4385 1.32745,2.60202 1.54043,5.10304 0.53982,6.33875 -0.73621,0.90919 -0.853,0.93871 -1.10595,0.27952 z m 14.35216,24.30669 c 0.3638,-0.5194 0.66145,-1.46946 0.66145,-2.11123 0,-0.86263 0.16618,-1.10308 0.63738,-0.92228 0.86736,0.33285 0.79835,-0.21443 -0.24231,-1.9214 -1.01848,-1.67059 -0.53441,-2.652 0.65812,-1.33427 1.16269,1.28475 1.49628,1.05856 1.49628,-1.01447 0,-1.55559 -0.21401,-2.05442 -1.25853,-2.93332 l -1.25853,-1.05899 0.93986,-0.66696 c 0.88477,-0.62789 0.89627,-0.7015 0.19625,-1.25643 -0.40898,-0.3242 -0.7436,-0.7727 -0.7436,-0.99665 0,-0.22397 -0.62144,-0.70964 -1.38097,-1.07929 l -1.38097,-0.67208 1.06228,-0.41396 1.06228,-0.41395 -1.67836,-0.99525 c -1.61018,-0.95481 -1.63661,-1.00513 -0.65042,-1.23793 1.00307,-0.2368 0.99464,-0.25647 -0.34856,-0.81285 -1.38969,-0.57562 -3.48389,-2.69409 -3.48389,-3.52425 0,-0.24728 0.3963,0.0541 0.88066,0.66998 0.48438,0.61578 1.01053,1.11959 1.16925,1.11959 0.15867,0 0.76627,-0.90055 1.35012,-2.00122 0.83732,-1.57847 1.03064,-2.47886 0.91519,-4.26246 -0.20216,-3.12337 0.63091,-4.35913 2.93862,-4.35913 1.56598,0 1.96877,0.26457 4.77048,3.13339 3.23161,3.30905 4.7613,4.04746 6.78826,3.2768 2.78474,-1.05875 3.30824,-5.64406 0.928,-8.12848 -1.82584,-1.90579 -5.39697,-3.09008 -8.26794,-2.74194 -6.5017,0.78845 -11.03914,5.07861 -11.6831,11.04637 -0.2606,2.4152 -0.17528,2.7529 1.62029,6.41231 1.17458,2.39378 2.43847,4.30472 3.32341,5.02477 1.16471,0.94772 1.24866,1.11063 0.45534,0.88354 -0.88916,-0.25453 -0.94842,-0.17519 -0.69034,0.924 0.1553,0.66132 0.96641,1.91945 1.80249,2.79583 1.6418,1.72091 1.43133,2.20437 -0.27745,0.63736 l -1.04256,-0.95605 0.22679,4.46159 c 0.12479,2.45386 0.1333,4.10604 0.019,3.6715 -0.17553,-0.66739 -0.33837,-0.57534 -1.04884,0.59294 -0.67528,1.11042 -0.73018,1.45327 -0.27857,1.7396 0.84434,0.53534 1.09018,0.4574 1.81312,-0.57473 z m -4.24493,-24.66146 c -0.40514,-1.05575 0.59646,-5.19393 1.63799,-6.76754 1.15831,-1.75005 4.89242,-3.67463 7.79708,-4.01864 2.63986,-0.31265 5.96065,0.68176 7.53538,2.25649 1.95681,1.95681 1.86877,5.00205 -0.17626,6.0965 -1.17036,0.62636 -2.15166,0.0361 -5.84328,-3.51419 -3.08581,-2.96777 -3.09453,-2.97248 -5.08517,-2.74811 -1.54488,0.17414 -2.26595,0.52904 -3.20097,1.57552 -1.08026,1.20902 -1.19386,1.61376 -1.08267,3.85741 0.0948,1.91106 -0.0472,2.67807 -0.59714,3.22805 -0.658,0.65799 -0.74455,0.66103 -0.98496,0.0345 z m -2.10467,23.26869 c 0.2337,-0.0798 -0.77016,-0.16028 -2.23079,-0.17879 -1.46064,-0.0185 -2.65571,0.1296 -2.65571,0.32899 0,0.326 3.83846,0.20799 4.8865,-0.15015 z m 0.84981,-1.27607 c 0.23372,-0.0792 -1.16386,-0.15899 -3.10568,-0.17746 -1.95108,-0.0185 -3.42655,0.1349 -3.29799,0.34284 0.20669,0.33443 5.31769,0.20243 6.40367,-0.16538 z m -0.4249,-1.38602 c 0.2337,-0.17169 0.46833,-1.12482 0.52141,-2.11806 l 0.0965,-1.80587 h -3.38955 -3.38958 v 2.12456 2.12456 l 2.86817,-0.006 c 1.57749,-0.003 3.05937,-0.14695 3.29307,-0.31869 z m 26.40514,-1.90559 c 2.7346,-2.5616 3.95345,-4.85059 3.96678,-7.44963 0.023,-4.46862 -3.44622,-7.75609 -7.38926,-7.00232 l -1.09292,0.20893 1.05891,1.25844 c 1.14823,1.36461 1.26812,1.91165 0.634,2.89289 -0.32326,0.50022 -0.41331,0.39605 -0.41842,-0.48407 -0.003,-0.61678 -0.37308,-1.57283 -0.82115,-2.12455 -0.71635,-0.88212 -1.14601,-0.99535 -3.56173,-0.93862 -2.90833,0.0683 -4.54679,0.64858 -4.54679,1.61032 0,0.46195 0.28834,0.49415 1.3919,0.15546 2.00898,-0.61658 4.98179,0.22642 4.98179,1.4127 0,0.51587 -0.34777,0.96418 -0.84981,1.09547 -0.49119,0.12847 -0.84983,0.57957 -0.84983,1.06898 0,0.74099 0.19903,0.81458 1.59342,0.58916 2.96212,-0.47883 3.57989,-0.61793 3.82263,-0.86068 0.13313,-0.13314 0.47784,-0.0464 0.766,0.19276 0.75658,0.6279 1.61343,-1.92294 1.01902,-3.03359 -0.6147,-1.14859 0.23733,-1.03897 1.06063,0.1365 0.92173,1.31595 0.8249,3.40729 -0.2192,4.73466 -0.97849,1.24393 -2.54962,1.46885 -3.36846,0.4822 -0.75936,-0.91496 -1.22052,-0.7889 -1.52302,0.41637 -0.22111,0.88097 -0.39679,0.98291 -1.07147,0.62183 -0.6178,-0.33064 -1.00644,-0.24608 -1.65766,0.36063 -0.84861,0.79059 -0.84816,0.79387 0.18488,1.34674 0.56955,0.30481 1.34777,0.4344 1.72937,0.28796 0.54211,-0.20802 0.63501,-0.0809 0.42494,0.58092 -0.22034,0.69424 -0.0744,0.84714 0.8087,0.84714 0.72333,0 1.00612,-0.18622 0.86022,-0.56645 -0.15867,-0.4136 0.11322,-0.51794 1.00747,-0.38669 1.93457,0.28394 3.49094,-1.34977 4.1818,-4.38958 l 0.5723,-2.51816 -0.14999,2.26244 c -0.22447,3.38646 -3.02942,6.44827 -5.90735,6.44827 -1.07533,0 -1.185,0.0951 -0.73496,0.63737 0.29092,0.35055 0.84016,0.65247 1.22054,0.6709 0.44034,0.0214 0.49862,0.11146 0.16043,0.24787 -0.6353,0.25636 -0.71573,1.41825 -0.0981,1.41825 0.23813,0 1.50463,-1.00386 2.81443,-2.23079 z m -54.44937,-0.14165 c 0,-0.44792 0.38243,-1.14266 0.84983,-1.54386 0.82802,-0.71076 0.80859,-0.72984 -0.75725,-0.74362 -2.08965,-0.0183 -4.26542,-0.94543 -5.136,-2.18835 -0.86021,-1.22812 -0.87108,-3.6413 -0.0228,-5.04928 l 0.64004,-1.06229 -0.33382,1.06229 c -0.65422,2.08191 -0.35749,4.30923 0.68678,5.15484 1.04958,0.84989 3.21565,1.06898 3.64826,0.36902 0.41379,-0.66955 1.06261,-0.49528 0.79102,0.21245 -0.3152,0.82144 0.45067,0.82218 1.27162,0.001 0.34988,-0.3499 0.94858,-0.51626 1.33045,-0.36973 0.44121,0.16932 1.15707,-0.17691 1.96373,-0.94974 l 1.26942,-1.21618 -1.13527,-0.30363 c -0.78187,-0.20909 -1.33842,-0.10053 -1.78788,0.34898 -0.58685,0.58687 -0.69484,0.57389 -1.072,-0.1288 -0.64563,-1.2029 -0.6536,-1.20343 -1.80585,-0.12093 -1.01391,0.95254 -1.15671,0.97682 -2.22349,0.37803 -2.08314,-1.16922 -2.32262,-3.88561 -0.51375,-5.82721 1.10939,-1.19078 1.90089,-1.26794 1.28958,-0.12575 -0.24193,0.45204 -0.43986,1.4315 -0.43986,2.17659 0,1.13136 0.10101,1.27092 0.61232,0.84651 0.4874,-0.4045 0.8671,-0.31982 1.86114,0.41511 1.02583,0.75843 1.40966,0.83722 2.14961,0.44121 0.93059,-0.49803 1.22444,-1.30201 0.47588,-1.30201 -0.67801,0 -0.49106,-1.96563 0.24505,-2.57654 0.52427,-0.4351 1.05316,-0.45373 2.43207,-0.0858 1.76105,0.47005 2.62347,0.35786 2.22352,-0.28926 -0.39534,-0.63969 -3.86821,-1.27294 -5.13677,-0.93665 -0.91485,0.24251 -1.38328,0.7239 -1.74304,1.79121 -0.41379,1.22759 -0.54207,1.33386 -0.80724,0.6686 -0.19291,-0.48399 -0.044,-1.25008 0.38354,-1.97391 l 0.69879,-1.18296 -1.78743,-0.17046 c -4.71583,-0.44973 -8.79221,4.41464 -7.55375,9.01392 0.58295,2.16494 1.82197,3.57237 4.45912,5.0652 2.38022,1.34739 2.97438,1.38767 2.97438,0.20166 z m 28.6816,-3.15142 c 0,-0.25201 -1.56638,-0.42493 -3.8493,-0.42493 -2.45798,0 -3.75436,0.15353 -3.58667,0.42493 0.14438,0.2337 1.87661,0.4249 3.84928,0.4249 2.10785,0 3.58669,-0.17519 3.58669,-0.4249 z m -0.84983,-1.68874 c 0,-0.22771 -0.57198,-0.70979 -1.27107,-1.07131 -1.46924,-0.75977 -3.00785,-0.5054 -4.07492,0.67368 -0.71646,0.7917 -0.65986,0.81163 2.30575,0.81163 1.69014,0 3.04024,-0.18385 3.04024,-0.414 z m 19.14474,-4.92973 c 0.53749,-0.65095 0.53455,-0.71758 -0.0236,-0.53654 -1.00633,0.32635 -1.76737,2.28486 -1.41009,3.62881 0.30181,1.13531 0.32756,1.10904 0.5681,-0.57993 0.13859,-0.97301 0.52814,-2.10356 0.86566,-2.51234 z m -21.34437,1.37808 c 0.0813,-0.4193 -0.13538,-0.70839 -0.53114,-0.70839 -0.39417,0 -0.66853,0.3633 -0.66853,0.88522 0,1.03555 0.99292,0.88916 1.19967,-0.17683 z m 19.82639,-2.08937 c 0.17077,-0.40897 0.1677,-0.74359 -0.006,-0.74359 -0.55215,0 -1.44571,1.45223 -1.45975,2.37243 -0.0215,1.41314 0.59338,1.63226 0.88754,0.31625 0.14775,-0.66081 0.40827,-1.53611 0.57903,-1.94509 z m -39.72873,1.48721 c -0.006,-1.1946 -0.63389,-2.58187 -1.00125,-2.21449 -0.18973,0.18973 0.65912,3.38299 0.89929,3.38299 0.0596,0 0.10551,-0.52582 0.10198,-1.1685 z m 1.42691,-0.21247 c -0.30409,-1.62749 -0.99822,-2.58118 -0.98968,-1.35971 0.01,1.28253 0.47875,2.74068 0.88296,2.74068 0.2006,0 0.24862,-0.62143 0.1068,-1.38097 z m 6.61754,0.84135 c -1.07608,-0.69717 -4.21371,-1.91274 -4.21371,-1.63248 0,0.39094 3.91556,2.15603 4.21371,1.89951 0.0973,-0.0838 0.0973,-0.20393 0,-0.26703 z m 25.63837,-0.89907 c 1.109,-0.44072 2.01636,-0.95581 2.01636,-1.14462 0,-0.38881 -3.80945,1.17918 -4.46159,1.83641 -0.4737,0.47737 -0.55356,0.49997 2.44523,-0.69179 z m -24.60988,-0.23752 c -0.71454,-0.6138 -4.95788,-2.1484 -5.20265,-1.88152 -0.13859,0.15112 -0.0609,0.34681 0.1729,0.43485 0.2337,0.088 1.38096,0.60919 2.54948,1.15811 1.91177,0.8981 3.39005,1.07009 2.48027,0.28856 z m 24.13187,-0.90108 c 1.41921,-0.71642 2.46318,-1.41974 2.31996,-1.56296 -0.32389,-0.32389 -5.34946,2.04234 -5.34946,2.51872 0,0.52718 0.24479,0.44995 3.0295,-0.95576 z m -22.47017,-1.74789 c 0.40847,-0.9719 0.69528,-1.79577 0.63737,-1.83085 -0.32398,-0.19622 -5.50201,-2.34222 -5.65148,-2.34222 -0.30311,0 -1.49318,3.10196 -1.35226,3.52473 0.12864,0.38606 4.3411,2.31669 5.19878,2.38269 0.2337,0.018 0.75912,-0.76246 1.16759,-1.73435 z m 21.97198,0.0853 2.50708,-1.26557 -0.90828,-1.65818 -0.90828,-1.65819 -2.56697,1.08859 c -1.41182,0.59874 -2.6281,1.13105 -2.70284,1.18294 -0.19243,0.13362 1.59448,3.57599 1.85627,3.57599 0.11884,0 1.34413,-0.5695 2.72302,-1.26558 z m -20.37764,-3.01019 c 0,-0.49623 -5.11627,-2.94774 -6.15191,-2.94774 -1.36438,0 -0.5207,0.68815 2.43917,1.98949 3.47102,1.52607 3.71274,1.58846 3.71274,0.95825 z m 18.38959,-1.29846 c 2.97185,-1.48964 3.08289,-1.56409 2.78175,-1.86521 -0.23139,-0.2314 -6.7243,2.6564 -6.7243,2.99072 0,0.51921 1.53628,0.0806 3.94255,-1.12551 z M 243.65759,122.244 c 0,-1.4822 -2.68924,-3.00434 -4.50348,-2.549 -1.37718,0.34565 -1.15555,0.58679 1.65484,1.80037 2.32747,1.00507 2.84864,1.14204 2.84864,0.74863 z m 17.58706,-0.85512 c 2.60037,-1.19049 2.75693,-1.87887 0.42733,-1.87887 -1.45856,0 -3.56735,1.49567 -3.56735,2.53016 0,0.66026 0.50321,0.55589 3.14002,-0.65129 z m 13.60434,-1.85782 c 1.23446,-1.23661 1.31294,-1.50472 1.2902,-4.40804 l -0.0242,-3.09135 2.37841,0.17203 c 2.49456,0.18045 3.03415,-0.10262 3.57663,-1.87631 0.17358,-0.56749 -0.003,-1.23387 -0.47912,-1.81454 -0.69583,-0.84753 -1.00522,-0.89602 -4.04677,-0.63421 -2.81618,0.2424 -3.21902,0.37303 -2.78036,0.90156 0.37923,0.45694 1.02891,0.54965 2.49191,0.35557 1.49188,-0.1979 2.11058,-0.1039 2.51371,0.38182 0.4269,0.51438 0.42807,0.77289 0.006,1.28171 -0.84405,1.01701 -2.17954,0.75755 -5.73068,-1.11337 -3.03052,-1.59664 -3.64453,-1.76239 -6.97573,-1.88297 l -3.65273,-0.13217 2.9744,0.31816 c 3.32938,0.35614 6.33296,1.54981 7.72824,3.07135 0.51131,0.55756 1.16383,1.88994 1.45003,2.9608 0.4588,1.71663 0.42422,2.14401 -0.29228,3.61176 -0.5147,1.05436 -1.36588,1.93537 -2.32151,2.40291 -2.27984,1.11538 -3.79797,0.46451 -7.64212,-3.2764 -3.66695,-3.56849 -4.95782,-4.00869 -6.19925,-2.11402 -0.53483,0.81627 -0.58974,1.20469 -0.22225,1.57218 0.3675,0.3675 0.48807,0.26083 0.48807,-0.43178 0,-0.50591 0.39525,-1.13139 0.87832,-1.38991 1.14508,-0.61283 2.45654,0.21091 5.2284,3.28391 1.13852,1.26223 2.6682,2.5671 3.3993,2.89972 2.02828,0.92279 4.41465,0.50328 5.96362,-1.04837 z m -32.04122,-1.08333 c 0,-0.35055 -0.19122,-0.63738 -0.42492,-0.63738 -0.2337,0 -0.42491,0.28683 -0.42491,0.63738 0,0.35055 0.19121,0.63736 0.42491,0.63736 0.2337,0 0.42492,-0.28681 0.42492,-0.63736 z m 17.22755,-0.60728 c -0.41779,-0.676 -1.09071,-0.12527 -0.79344,0.64945 0.16348,0.42603 0.39478,0.50785 0.66676,0.23587 0.22906,-0.22905 0.28606,-0.62745 0.12671,-0.88532 z m -34.86142,-7.67853 c 0.15658,-0.25335 -0.35805,-0.4249 -1.27474,-0.4249 -0.9167,0 -1.43133,0.17155 -1.27474,0.4249 0.14438,0.2337 0.71806,0.42493 1.27474,0.42493 0.55666,0 1.1303,-0.19123 1.27474,-0.42493 z m 54.17634,0 c 0,-0.2337 -0.37114,-0.4249 -0.82474,-0.4249 -0.45361,0 -0.94293,0.1912 -1.08735,0.4249 -0.14888,0.241 0.20803,0.42493 0.82474,0.42493 0.59805,0 1.08735,-0.19123 1.08735,-0.42493 z m -25.7072,57.78811 c 0.4674,-0.20084 1.13664,-0.37569 1.48719,-0.38853 0.56655,-0.0207 0.56655,0.0223 0,0.38853 -0.35055,0.22655 -1.01979,0.40139 -1.48719,0.38855 l -0.84983,-0.0234 0.84983,-0.36518 z"
       id="path4273" />
  </g>
</svg>
