<?xml version="1.0" encoding="UTF-8" standalone="no"?>
<!-- Created with Inkscape (http://www.inkscape.org/) -->

<svg
   width="11.908816mm"
   height="24.014404mm"
   viewBox="0 0 11.908816 24.014407"
   version="1.1"
   id="svg997"
   inkscape:version="1.1 (c4e8f9ed74, 2021-05-24)"
   sodipodi:docname="ornament11.svg"
   xmlns:inkscape="http://www.inkscape.org/namespaces/inkscape"
   xmlns:sodipodi="http://sodipodi.sourceforge.net/DTD/sodipodi-0.dtd"
   xmlns="http://www.w3.org/2000/svg"
   xmlns:svg="http://www.w3.org/2000/svg">
  <sodipodi:namedview
     id="namedview999"
     pagecolor="#ffffff"
     bordercolor="#666666"
     borderopacity="1.0"
     inkscape:pageshadow="2"
     inkscape:pageopacity="0.0"
     inkscape:pagecheckerboard="0"
     inkscape:document-units="mm"
     showgrid="false"
     inkscape:zoom="1.5385816"
     inkscape:cx="-141.36397"
     inkscape:cy="60.770258"
     inkscape:window-width="2506"
     inkscape:window-height="1403"
     inkscape:window-x="1974"
     inkscape:window-y="0"
     inkscape:window-maximized="1"
     inkscape:current-layer="layer1" />
  <defs
     id="defs994" />
  <g
     inkscape:label="Layer 1"
     inkscape:groupmode="layer"
     id="layer1"
     transform="translate(-175.8514,-162.5198)">
    <path
       style="fill:#000000;stroke-width:0.264583"
       d="m 176.27539,186.34271 c -0.24103,-0.24103 -0.22369,-1.14556 0.0221,-1.15058 0.6916,-0.0141 0.86448,-0.45568 0.47262,-1.20712 -0.22177,-0.42526 -0.40395,-1.44043 -0.40484,-2.25592 -0.001,-1.20227 0.11922,-1.61312 0.63727,-2.17212 0.3514,-0.37916 0.93563,-0.76386 1.29828,-0.85488 0.72594,-0.1822 1.76698,0.25112 1.76698,0.73548 0,0.22936 -0.0812,0.22698 -0.3175,-0.009 -0.507,-0.507 -1.7289,-0.37079 -2.31473,0.25803 -0.94258,1.01173 -1.08836,3.25954 -0.21146,3.26046 0.25109,2.6e-4 0.42809,0.11953 0.39334,0.26505 -0.0348,0.14553 -0.20884,0.24858 -0.38686,0.22902 -0.48826,-0.0537 0.0309,0.77952 0.98695,1.584 2.09378,1.7618 5.35294,0.86231 6.11711,-1.68823 0.25865,-0.8633 0.23834,-1.13262 -0.12752,-1.69098 -0.58816,-0.89765 -0.5482,-1.13166 0.094,-0.55047 0.29104,0.26339 0.53671,0.72832 0.54593,1.03319 0.0164,0.54283 0.0212,0.54335 0.23084,0.0251 0.41019,-1.01399 0.62514,-2.85818 0.31047,-2.6637 -0.16142,0.0998 -0.29349,0.0209 -0.29349,-0.17516 0,-0.1961 -0.23813,-0.82361 -0.52917,-1.39447 -0.61236,-1.20112 -0.63148,-1.28509 -0.23703,-1.04131 0.16067,0.0993 0.52661,0.67188 0.81321,1.27239 0.28764,0.60272 0.4539,0.79552 0.37112,0.43038 -0.0825,-0.36381 -0.19517,-1.61396 -0.25044,-2.77813 -0.0553,-1.16417 -0.0494,-1.60696 0.013,-0.98399 0.087,0.86806 0.2148,1.1153 0.54703,1.05833 0.24432,-0.0419 0.58255,0.21433 0.77502,0.58712 0.18783,0.3638 0.34326,0.55621 0.34541,0.42757 0.009,-0.53747 -0.64282,-2.44317 -0.96779,-2.82965 -0.54035,-0.64263 -0.41903,-1.97963 0.31023,-3.41875 0.725,-1.43071 0.79861,-1.70349 0.39185,-1.4521 -0.36578,0.22606 -1.58247,2.65802 -1.58247,3.16309 0,0.48379 -0.56064,0.53296 -1.00542,0.0882 -0.7014,-0.7014 0.087,-3.32806 0.90475,-3.01426 0.216,0.0829 0.32641,0.0434 0.24534,-0.0878 -0.20496,-0.33164 2.05242,-2.16126 2.32761,-1.88654 0.12283,0.12262 0.18236,1.47353 0.13229,3.00203 -0.0731,2.23041 -0.18616,2.88406 -0.57287,3.3108 -0.4533,0.50022 -0.45679,0.60549 -0.0589,1.77748 0.23262,0.68517 0.494,1.92554 0.58084,2.75636 0.186,1.77957 -0.39622,3.36667 -1.91497,5.22011 -0.64106,0.78233 -0.81219,1.14555 -0.53972,1.14555 0.21944,0 0.48506,0.1393 0.59028,0.30955 0.13092,0.21182 0.0435,0.25284 -0.27676,0.12993 -0.27959,-0.10729 -1.12278,0.11433 -2.09393,0.55035 -2.00242,0.89904 -3.65914,0.93764 -4.98822,0.11622 -1.17837,-0.72827 -1.26783,-0.7223 -1.26783,0.0846 0,0.62257 -0.48029,0.88673 -0.88195,0.48507 z m 9.8761,-4.1863 c 0.61463,-1.07427 0.79543,-1.71536 0.79543,-2.82054 0,-1.3099 -0.50156,-2.60749 -1.00719,-2.60571 -0.10089,3.4e-4 -0.1888,1.16122 -0.19537,2.57969 -0.0101,2.17832 -0.10847,2.76368 -0.6333,3.76744 -0.87306,1.66978 6.6e-4,0.89645 1.04043,-0.92088 z m -1.1357,4.19544 c -0.41664,-0.41664 -0.16935,-0.92559 0.40978,-0.84334 0.32742,0.0465 0.59531,0.26151 0.59531,0.47779 0,0.42036 -0.69684,0.6738 -1.00509,0.36555 z m 1.84294,-0.27373 c -0.39477,-0.39477 -0.16346,-1.14652 0.35277,-1.14652 0.38806,0 0.52917,0.17639 0.52917,0.66145 0,0.62257 -0.48029,0.88673 -0.88194,0.48507 z m -7.34331,-1.22061 c -1.16911,-0.78787 -1.59761,-1.65237 -1.50421,-3.03477 0.0518,-0.76692 -0.0298,-1.12448 -0.25665,-1.12448 -0.18295,0 -0.33264,-0.17859 -0.33264,-0.39687 0,-0.21828 0.17859,-0.39688 0.39687,-0.39688 0.21829,0 0.39688,0.12325 0.39688,0.2739 0,0.18847 0.15906,0.18876 0.51,9.5e-4 1.06571,-0.57035 1.34407,-0.11294 1.30129,2.13833 -0.0573,3.01228 0.21335,2.83752 0.43663,-0.28199 0.16714,-2.33529 0.24975,-2.66035 0.67603,-2.66035 0.62721,0 1.30938,0.98011 1.30938,1.88125 0,0.75872 -1.50621,4.20416 -1.83789,4.20416 -0.11029,0 -0.60334,-0.27146 -1.09569,-0.60325 z m 2.45116,-0.60135 c 0.11967,-0.5747 0.58923,-0.60987 0.69664,-0.0522 0.0558,0.28962 -0.074,0.46302 -0.34651,0.46302 -0.25419,0 -0.40004,-0.17114 -0.35013,-0.41085 z m 4.01837,0.0157 c -0.0916,-0.23882 -0.0398,-0.56108 0.1153,-0.71615 0.40312,-0.40312 1.16692,-0.0347 1.06162,0.5121 -0.11729,0.60904 -0.96511,0.75603 -1.17692,0.20405 z m -3.17082,-1.5766 c -0.18619,-0.48521 0.0848,-0.93871 0.56091,-0.93871 0.48655,0 0.70037,0.38448 0.50172,0.90216 -0.20195,0.52628 -0.86594,0.54911 -1.06263,0.0366 z m -0.18782,-2.37203 c -0.0791,-0.20623 0.0155,-0.43615 0.21041,-0.51093 0.45888,-0.17609 0.67152,0.0465 0.49179,0.51491 -0.18306,0.47704 -0.51834,0.47515 -0.7022,-0.004 z m 1.39847,-0.3006 c -0.23894,-0.2879 -0.25429,-0.48716 -0.053,-0.68841 0.3391,-0.3391 0.8585,-0.0741 0.8585,0.43795 0,0.56542 -0.43247,0.69989 -0.80547,0.25046 z m -3.42786,-1.59118 c -0.80036,-0.51167 -1.66357,-0.87696 -1.91823,-0.81175 -0.68679,0.17585 -0.57785,-0.54907 0.31694,-2.10914 1.17425,-2.0473 3.23528,-2.82389 4.46182,-1.68121 0.66197,0.61672 0.76983,1.78518 0.18549,2.00941 -0.21646,0.0831 -0.76969,0.0199 -1.22941,-0.14035 -0.98976,-0.34503 -2.61705,0.003 -3.17485,0.67939 -0.32631,0.39557 -0.30522,0.40829 0.21637,0.1304 0.96651,-0.51494 3.09119,-0.3834 3.88431,0.24047 0.38343,0.3016 0.69714,0.72373 0.69714,0.93806 0,0.48447 -1.17767,1.69096 -1.64162,1.68179 -0.18851,-0.004 -0.9976,-0.42541 -1.79796,-0.93707 z m -4.05143,-0.0208 c -0.3635,-0.3635 -0.17495,-0.92492 0.28112,-0.83709 0.25466,0.049 0.46302,0.25621 0.46302,0.46037 0,0.41774 -0.4668,0.65406 -0.74414,0.37672 z m -0.19463,-2.91041 c -0.65594,-1.9875 0.31294,-5.90285 1.55852,-6.29818 0.62612,-0.19873 1.36462,0.0736 1.36462,0.50323 0,0.18015 -0.255,0.55437 -0.56666,0.83158 -0.67951,0.6044 -1.8162,2.93739 -1.79252,3.67903 0.01,0.30101 0.20814,0.0239 0.46044,-0.64265 0.24394,-0.6445 0.83479,-1.58845 1.31299,-2.09766 0.79446,-0.84599 0.90571,-0.88959 1.28984,-0.50545 0.93119,0.93118 0.24092,2.52153 -1.55643,3.58596 -0.39603,0.23454 -0.83632,0.75995 -0.97842,1.1676 -0.35043,1.00523 -0.71124,0.93143 -1.09238,-0.22346 z m 7.95023,0.56774 c 0,-0.21828 0.11906,-0.39687 0.26458,-0.39687 0.14552,0 0.26458,0.17859 0.26458,0.39687 0,0.21829 -0.11906,0.39688 -0.26458,0.39688 -0.14552,0 -0.26458,-0.17859 -0.26458,-0.39688 z m -0.52917,-2.62378 c 0,-0.23041 0.18852,-0.41892 0.41892,-0.41892 0.46724,0 0.38587,0.56958 -0.10473,0.73311 -0.1728,0.0576 -0.31419,-0.0838 -0.31419,-0.31419 z m -2.54947,-1.07861 c -0.0917,-0.23882 -0.0398,-0.56108 0.1153,-0.71615 0.40312,-0.40312 1.16692,-0.0347 1.06162,0.5121 -0.11729,0.60904 -0.96511,0.75603 -1.17692,0.20405 z m 1.49114,-1.98615 c -0.21828,-0.14106 -0.93266,-0.27506 -1.5875,-0.29778 l -1.19063,-0.0413 1.45521,-0.18992 c 1.22231,-0.15953 1.53872,-0.11122 1.97703,0.30183 0.39451,0.3718 0.42679,0.49078 0.13229,0.48771 -0.21424,-0.002 -0.56812,-0.11946 -0.7864,-0.26053 z m 0.52261,-1.20785 c -0.32389,-0.85191 -0.33486,-1.96715 -0.0193,-1.96715 0.13129,0 0.3534,-0.32902 0.49359,-0.73116 0.39442,-1.13146 1.60495,-2.41463 2.53079,-2.68268 0.6799,-0.19684 0.72319,-0.2471 0.22951,-0.26646 -0.99284,-0.0389 -2.02969,0.66098 -2.58002,1.74163 -0.62585,1.22893 -0.92185,1.4666 -1.36672,1.09739 -0.44943,-0.37299 -0.42832,-0.87616 0.0819,-1.95131 0.47709,-1.00538 2.36393,-2.08453 3.17979,-1.81862 2.04184,0.6655 2.37431,1.02341 1.57045,1.69056 -0.2115,0.17553 -0.57338,0.9687 -0.80417,1.76261 -0.40264,1.38504 -1.16318,2.48096 -1.72171,2.48096 -0.14552,0 -0.52016,-0.25558 -0.83253,-0.56795 l -0.56795,-0.56795 0.13858,1.22941 c 0.15555,1.38006 0.0498,1.55537 -0.33215,0.55072 z m -6.76433,0.0501 c -0.22416,-0.58415 0.0741,-0.88237 0.47821,-0.47821 0.23863,0.23863 0.23964,0.38653 0.004,0.62191 -0.23537,0.23538 -0.35012,0.20121 -0.48247,-0.1437 z m 4.47868,0.17143 c -1.17364,-0.10671 -1.62693,-0.62252 -1.00249,-1.14076 0.29783,-0.24718 0.41124,-0.22714 0.53465,0.0945 0.14072,0.36672 1.66729,1.09694 1.86982,0.89442 0.0453,-0.0453 -0.51987,-0.53186 -1.25584,-1.08132 -0.73598,-0.54945 -1.27181,-1.06534 -1.19074,-1.14641 0.0811,-0.0811 0.55784,0.16565 1.05949,0.54828 0.62161,0.47413 0.94737,0.59121 1.02288,0.36762 0.0609,-0.18043 0.30564,0.0473 0.54378,0.50605 0.38952,0.75038 0.39163,0.84997 0.021,0.99219 -0.22658,0.0869 -0.432,0.13728 -0.45648,0.11186 -0.0245,-0.0254 -0.54021,-0.0913 -1.14608,-0.14639 z m -3.77105,-1.19418 c -0.85177,-0.44368 -1.30046,-1.7945 -1.32495,-3.98885 -0.018,-1.61285 0.0297,-1.78797 0.45017,-1.6545 0.25867,0.0821 1.1814,0.33085 2.05052,0.55278 2.10957,0.53868 3.11757,1.79147 2.18876,2.72028 -0.64405,0.64405 -1.54414,0.33314 -2.86795,-0.99067 l -1.30818,-1.30818 0.5179,1.01516 c 0.28484,0.55834 1.0247,1.44897 1.64413,1.97918 0.92933,0.79547 1.0766,1.0433 0.84234,1.41749 -0.35826,0.57226 -1.36198,0.69004 -2.19274,0.25731 z m 4.03544,-1.14453 c -0.22052,-0.57467 0.33931,-1.11509 0.74003,-0.71438 0.33867,0.33868 0.12886,1.12904 -0.29972,1.12904 -0.15465,0 -0.35279,-0.1866 -0.44031,-0.41466 z m -0.26563,-2.91315 c -0.0881,-0.22957 0.0152,-0.59273 0.22947,-0.80703 0.33646,-0.33646 0.43229,-0.33824 0.7022,-0.013 0.37783,0.45526 0.12839,1.23744 -0.39463,1.23744 -0.20728,0 -0.44895,-0.18783 -0.53704,-0.41739 z"
       id="path4767" />
  </g>
</svg>
