<?xml version="1.0" encoding="UTF-8" standalone="no"?>
<!-- Created with Inkscape (http://www.inkscape.org/) -->

<svg
   width="33.129852mm"
   height="39.567039mm"
   viewBox="0 0 33.129852 39.567041"
   version="1.1"
   id="svg997"
   inkscape:version="1.1 (c4e8f9ed74, 2021-05-24)"
   sodipodi:docname="ornatef3.svg"
   xmlns:inkscape="http://www.inkscape.org/namespaces/inkscape"
   xmlns:sodipodi="http://sodipodi.sourceforge.net/DTD/sodipodi-0.dtd"
   xmlns="http://www.w3.org/2000/svg"
   xmlns:svg="http://www.w3.org/2000/svg">
  <sodipodi:namedview
     id="namedview999"
     pagecolor="#ffffff"
     bordercolor="#666666"
     borderopacity="1.0"
     inkscape:pageshadow="2"
     inkscape:pageopacity="0.0"
     inkscape:pagecheckerboard="0"
     inkscape:document-units="mm"
     showgrid="false"
     inkscape:zoom="1.5385816"
     inkscape:cx="-169.31179"
     inkscape:cy="100.41716"
     inkscape:window-width="2506"
     inkscape:window-height="1403"
     inkscape:window-x="1974"
     inkscape:window-y="0"
     inkscape:window-maximized="1"
     inkscape:current-layer="layer1" />
  <defs
     id="defs994" />
  <g
     inkscape:label="Layer 1"
     inkscape:groupmode="layer"
     id="layer1"
     transform="translate(-144.47453,-161.59668)">
    <path
       style="fill:#000000;stroke-width:0.264583"
       d="m 154.59624,200.78556 c -0.21051,-0.39336 -0.78038,-0.556 -2.7597,-0.78762 -1.71041,-0.20015 -2.91899,-0.50705 -3.84534,-0.97647 -0.74302,-0.37651 -1.50373,-0.68517 -1.69047,-0.68589 -0.18674,-7.9e-4 -0.67403,-0.269 -1.08286,-0.59618 l -0.74334,-0.59486 0.3056,-3.43872 c 0.16808,-1.89129 0.33444,-6.21142 0.36969,-9.60028 0.0419,-4.02667 0.16442,-6.26189 0.35365,-6.45112 0.2097,-0.20969 0.13873,-0.49358 -0.2573,-1.02924 -0.58171,-0.78681 -0.49305,-1.57162 0.17757,-1.57162 0.5183,0 0.50994,-0.23927 -0.0471,-1.34841 -0.29989,-0.5971 -0.4434,-1.48005 -0.42589,-2.62034 0.0464,-3.02462 0.1406,-4.0937 0.38778,-4.40206 0.13271,-0.16556 0.20804,-1.29665 0.16741,-2.51354 -0.0832,-2.491 -0.14013,-2.44153 2.08449,-1.81092 0.99328,0.28155 1.1761,0.2556 1.88355,-0.26744 0.68321,-0.50512 1.01651,-0.56141 2.60411,-0.43982 1.00135,0.0767 5.11661,0.14518 9.14503,0.1522 6.31375,0.011 7.45384,0.0745 8.26245,0.46009 0.87743,0.41842 0.96967,0.41869 1.42767,0.004 0.56484,-0.51118 1.18573,-0.56251 1.93749,-0.16018 0.37494,0.20066 0.62771,0.20077 0.86918,3.6e-4 0.18728,-0.15542 0.80474,-0.28204 1.37215,-0.28137 0.56741,6.6e-4 1.32931,-0.0293 1.69312,-0.0665 0.58415,-0.0598 0.65475,0.025 0.60411,0.72603 -0.0315,0.43657 -0.0658,2.03716 -0.0762,3.55688 -0.0104,1.51973 -0.14123,2.91059 -0.2908,3.09081 -0.18777,0.22625 -0.16895,0.6404 0.0608,1.33791 0.24191,0.73447 0.35638,4.29645 0.41933,13.04878 0.0476,6.6212 0.0928,12.45526 0.10032,12.96458 0.0215,1.45141 -0.16551,1.9819 -0.71035,2.01496 -0.88252,0.0535 -2.49897,0.85913 -2.42625,1.20917 0.18948,0.91209 -10.75214,1.76493 -16.46636,1.28347 -0.80037,-0.0674 -1.83388,-0.03 -2.29671,0.0831 -0.68249,0.16686 -0.89162,0.11207 -1.1068,-0.28998 z m 10.78066,-0.57171 c 0.28745,-0.18205 0.2455,-0.26975 -0.19607,-0.4099 -0.70941,-0.22516 -1.30846,0.0876 -0.79318,0.41405 0.4474,0.28349 0.53568,0.28312 0.98925,-0.004 z m -1.62798,-0.18472 c -0.0879,-0.0879 -0.31612,-0.0973 -0.50711,-0.0209 -0.21107,0.0845 -0.14838,0.14716 0.15985,0.15985 0.27891,0.0115 0.43518,-0.051 0.34726,-0.13896 z m 4.82485,-0.35192 c 0.15064,-0.28148 0.2645,-0.66843 0.25301,-0.8599 -0.0161,-0.26865 -0.0515,-0.27225 -0.15489,-0.0157 -0.0737,0.18281 -0.26313,0.25257 -0.42095,0.15503 -0.18788,-0.11611 -0.22266,-0.01 -0.10073,0.30793 0.11139,0.29029 0.0497,0.57187 -0.15348,0.70081 -0.2512,0.1594 -0.25596,0.21659 -0.0183,0.21959 0.17678,0.002 0.44467,-0.22625 0.59531,-0.50772 z m -7.92819,-0.0174 c -0.51815,-0.33485 -0.86841,-0.33485 -0.66146,0 0.0899,0.14552 0.36486,0.26276 0.61093,0.26053 0.38557,-0.003 0.39256,-0.0395 0.0505,-0.26053 z m 2.24896,0 c 0.0899,-0.14552 -0.0746,-0.26458 -0.36564,-0.26458 -0.29105,0 -0.60276,0.11906 -0.69269,0.26458 -0.0899,0.14552 0.0746,0.26459 0.36564,0.26459 0.29104,0 0.60275,-0.11907 0.69269,-0.26459 z m 4.36563,0 c 0.48365,-0.31256 0.0659,-0.31256 -0.66146,0 -0.34892,0.14994 -0.39398,0.23235 -0.13229,0.24194 0.21828,0.008 0.57546,-0.10087 0.79375,-0.24194 z m -12.52478,-0.85989 c -0.0734,-0.1819 -0.13345,-0.0331 -0.13345,0.33073 0,0.3638 0.0601,0.51263 0.13345,0.33072 0.0734,-0.1819 0.0734,-0.47955 0,-0.66145 z m 4.32269,0.43471 c 0,-0.26924 0.14557,-0.36932 0.39688,-0.27289 0.21828,0.0838 0.39687,0.037 0.39687,-0.10398 0,-0.14095 -0.11906,-0.25628 -0.26458,-0.25628 -0.14552,0 -0.34799,-0.009 -0.44992,-0.0196 -0.10194,-0.0108 -0.2767,0.22733 -0.38835,0.52916 -0.11732,0.31715 -0.0949,0.5488 0.053,0.5488 0.14083,0 0.25605,-0.19133 0.25605,-0.42518 z m 12.88239,-0.83159 c -0.0665,-0.25466 -0.121,-0.0463 -0.121,0.46302 0,0.50933 0.0545,0.71768 0.121,0.46302 0.0666,-0.25466 0.0666,-0.67138 0,-0.92604 z m 0.65671,0.19844 c -0.0555,-0.58208 -0.14795,-1.05833 -0.20543,-1.05833 -0.0575,0 -0.1045,0.47625 -0.1045,1.05833 0,0.58208 0.0924,1.05833 0.20543,1.05833 0.11299,0 0.16001,-0.47625 0.1045,-1.05833 z m -19.30239,-0.54404 c -0.0284,-1.00011 -0.24373,-1.29104 -0.48674,-0.65775 -0.0974,0.25379 -0.0569,0.53872 0.0899,0.63318 0.14686,0.0944 0.19398,0.37072 0.1047,0.61393 -0.14421,0.39284 -0.2416,0.37378 -0.87242,-0.17068 -0.3968,-0.34248 -0.6762,-0.82941 -0.63329,-1.10366 0.0422,-0.26992 0.0254,-0.34049 -0.0375,-0.1568 -0.16584,0.48439 -0.60346,0.12361 -0.60346,-0.49749 0,-0.29104 -0.11386,-0.4588 -0.25302,-0.37279 -0.13917,0.086 -0.19197,0.31551 -0.11733,0.51001 0.21523,0.56089 -1.01963,0.76692 -1.41558,0.23618 -0.2683,-0.35963 -0.33073,-0.36948 -0.33073,-0.0522 0,0.558 -1.05074,0.58143 -1.08903,0.0243 -0.0263,-0.38213 -0.0487,-0.37701 -0.15535,0.0355 -0.1166,0.45085 -0.146,0.45287 -0.45438,0.0311 -0.30157,-0.41243 -0.32971,-0.41354 -0.32971,-0.013 0,0.2562 0.28362,0.49948 0.6835,0.58628 0.37593,0.0816 0.83234,0.19421 1.01424,0.25025 0.1819,0.056 0.33073,-0.0359 0.33073,-0.20428 0,-0.16839 0.25988,-0.0272 0.57752,0.31373 0.55048,0.59087 0.58678,0.5963 0.77516,0.11603 0.10869,-0.27712 0.20782,-0.3848 0.22027,-0.23928 0.0125,0.14552 0.14921,0.086 0.3039,-0.13229 0.21983,-0.31021 0.25584,-0.23799 0.16493,0.33073 -0.064,0.40018 -0.0138,0.72761 0.11158,0.72761 0.12534,-2e-5 0.22789,-0.17488 0.22789,-0.38859 0,-0.24306 0.15431,-0.32936 0.41208,-0.23044 0.22664,0.087 0.35177,0.3153 0.27806,0.50739 -0.0819,0.21337 0.005,0.29601 0.22261,0.2124 0.19615,-0.0753 0.44165,8e-4 0.54556,0.16882 0.31027,0.50203 0.74232,-0.14869 0.71589,-1.07822 z m 2.76903,0.75901 c -0.0845,-0.21106 -0.14715,-0.14837 -0.15985,0.15986 -0.0115,0.27891 0.0511,0.43518 0.13897,0.34726 0.0879,-0.0879 0.0973,-0.31612 0.0209,-0.50712 z m 9.60885,0.3142 c 0,-0.14553 -0.17157,-0.26459 -0.38126,-0.26459 -0.2097,0 -0.45485,0.11906 -0.54479,0.26459 -0.0899,0.14552 0.0816,0.26458 0.38126,0.26458 0.29963,0 0.54479,-0.11906 0.54479,-0.26458 z m 5.80223,-0.99219 c 0.0102,-0.1819 -0.10046,-0.33073 -0.24598,-0.33073 -0.14552,0 -0.25622,0.38695 -0.24599,0.85989 0.0156,0.72061 0.0554,0.77418 0.24599,0.33073 0.12506,-0.29104 0.23576,-0.67799 0.24598,-0.85989 z m -13.64845,0.79375 c 0.0674,-0.10914 -0.16292,-0.21556 -0.5118,-0.23649 -0.34887,-0.0209 -0.56855,0.0684 -0.48816,0.19844 0.17761,0.28738 0.83068,0.31223 0.99996,0.038 z m 15.43529,-0.38034 c -0.0845,-0.21107 -0.14716,-0.14837 -0.15985,0.15985 -0.0115,0.27892 0.051,0.43519 0.13896,0.34727 0.0879,-0.0879 0.0973,-0.31613 0.0209,-0.50712 z m -14.46824,-0.23059 c 0,-0.13693 -0.11906,-0.24897 -0.26458,-0.24897 -0.14552,0 -0.26459,0.18562 -0.26459,0.41249 0,0.22687 0.11907,0.33891 0.26459,0.24897 0.14552,-0.0899 0.26458,-0.27556 0.26458,-0.41249 z m 8.6538,-0.8412 c -0.0633,-0.32911 -0.11747,-0.12214 -0.12041,0.45994 -0.003,0.58208 0.0488,0.85136 0.11507,0.5984 0.0662,-0.25297 0.0686,-0.72922 0.005,-1.05834 z m -4.96619,0.32765 c 0.10607,0.4114 0.39149,0.69342 0.75501,0.74601 0.47051,0.0681 0.58446,-0.0453 0.58446,-0.58155 0,-0.62769 0.0466,-0.64987 0.80726,-0.38469 0.44399,0.15478 0.88527,0.20339 0.98063,0.10804 0.0954,-0.0954 -0.0893,-0.24208 -0.41038,-0.32604 -0.40319,-0.10544 -0.59344,-0.36817 -0.61506,-0.8494 l -0.0313,-0.69675 -0.16713,0.66478 c -0.0919,0.36563 -0.31596,0.6484 -0.49786,0.62839 -0.1819,-0.02 -0.44188,-0.0513 -0.57774,-0.0695 -0.13585,-0.0182 -0.29708,-0.30096 -0.35827,-0.62838 -0.0612,-0.32743 -0.0737,0 -0.0278,0.7276 0.0724,1.14682 0.0537,1.20667 -0.14022,0.44959 -0.23334,-0.91085 -0.54965,-1.42335 -0.54965,-0.89056 0,0.49933 -0.52664,0.35302 -0.55554,-0.15434 -0.0176,-0.30868 -0.097,-0.24254 -0.23821,0.19844 -0.18246,0.56974 -0.21549,0.51103 -0.23821,-0.42342 l -0.0264,-1.08488 1.64124,-0.0492 c 2.12729,-0.0638 2.3405,-0.28387 0.32109,-0.33137 -0.861,-0.0203 -2.08251,-0.05 -2.71446,-0.0661 -0.63196,-0.0161 -1.20453,0.06 -1.27239,0.16912 -0.0679,0.10914 0.30037,0.19844 0.81828,0.19844 0.93625,0 0.94166,0.007 0.94166,1.16231 0,0.76585 0.12954,1.21203 0.37978,1.30806 0.20888,0.0802 0.4376,0.004 0.50828,-0.17013 0.0707,-0.17373 0.15573,0.0413 0.18902,0.47788 l 0.0605,0.79375 0.13139,-0.79375 c 0.12992,-0.78482 0.13332,-0.78631 0.30193,-0.13229 z m 0.85208,0 c 0,-0.3638 0.0601,-0.51263 0.13345,-0.33073 0.0734,0.1819 0.0734,0.47956 0,0.66146 -0.0734,0.1819 -0.13345,0.0331 -0.13345,-0.33073 z m 1.73865,0.6339 c -0.0879,-0.0879 -0.31612,-0.0973 -0.50712,-0.0209 -0.21106,0.0845 -0.14837,0.14716 0.15986,0.15985 0.27891,0.0115 0.43518,-0.0511 0.34726,-0.13896 z m 1.31712,-1.22613 c -0.0633,-0.32912 -0.11747,-0.12215 -0.1204,0.45994 -0.003,0.58208 0.0488,0.85136 0.11506,0.59839 0.0662,-0.25296 0.0686,-0.72921 0.005,-1.05833 z m 0.52278,0.8072 c -0.0845,-0.21106 -0.14716,-0.14837 -0.15985,0.15986 -0.0115,0.27891 0.051,0.43518 0.13896,0.34726 0.0879,-0.0879 0.0973,-0.31612 0.0209,-0.50712 z m 3.25884,0.3225 c 0,-0.14095 -0.17859,-0.18775 -0.39687,-0.10399 -0.22476,0.0863 -0.39688,0.006 -0.39688,-0.18469 0,-0.18534 -0.0715,-0.26553 -0.15878,-0.1782 -0.24099,0.24098 0.13992,0.72316 0.57127,0.72316 0.2097,0 0.38126,-0.11533 0.38126,-0.25628 z m 3.75976,-1.24689 c -0.0836,-0.4372 -0.29849,-0.6135 -0.74789,-0.6135 -0.34684,0 -0.63062,0.11906 -0.63062,0.26459 0,0.14552 0.23813,0.26458 0.52917,0.26458 0.41681,0 0.53311,0.18259 0.54776,0.85989 0.0146,0.67241 0.0622,0.74849 0.21873,0.34892 0.11007,-0.28104 0.14735,-0.78706 0.0828,-1.12448 z m -17.07828,0.37869 c -0.0734,-0.1819 -0.13345,-0.0331 -0.13345,0.33073 0,0.3638 0.06,0.51263 0.13345,0.33073 0.0734,-0.1819 0.0734,-0.47956 0,-0.66146 z m 18.08102,0.33073 c 0,-0.29104 -0.0456,-0.52917 -0.10143,-0.52917 -0.0558,0 -0.1637,0.23813 -0.23981,0.52917 -0.0761,0.29104 -0.0305,0.52917 0.10143,0.52917 0.1319,0 0.23981,-0.23813 0.23981,-0.52917 z m -20.37292,0.1606 c 0,-0.0572 -0.18477,-0.17489 -0.41061,-0.26156 -0.23546,-0.0904 -0.34166,-0.046 -0.24897,0.10399 0.15538,0.25141 0.65958,0.37186 0.65958,0.15757 z m 18.68069,-0.61811 c -0.26895,-0.26895 -0.49087,0.13597 -0.27019,0.49302 0.16669,0.26972 0.22901,0.26993 0.31863,0.001 0.0613,-0.18383 0.0395,-0.40617 -0.0484,-0.49409 z m 2.13756,-0.12127 c -0.0845,-0.21106 -0.14716,-0.14837 -0.15985,0.15986 -0.0115,0.27891 0.051,0.43518 0.13896,0.34726 0.0879,-0.0879 0.0973,-0.31612 0.0209,-0.50712 z m -14.99741,0.0364 c 0,-0.2348 -1.0953,-0.45949 -1.53134,-0.31415 -0.64413,0.21471 -0.2968,0.50379 0.6053,0.50379 0.50932,0 0.92604,-0.0853 0.92604,-0.18964 z m -4.85835,-0.17079 c -0.28597,-0.28597 -0.96249,-0.32612 -0.96249,-0.0571 0,0.13265 0.25797,0.24117 0.57327,0.24117 0.3153,0 0.49044,-0.0828 0.38922,-0.18404 z m 16.59686,-3.58627 c 0.33108,-7.42947 0.30749,-8.20984 -0.25486,-8.43043 -0.43832,-0.17194 -0.41788,-0.20267 0.15802,-0.23757 0.65229,-0.0395 0.65046,-0.0451 -0.1323,-0.40353 l -0.79375,-0.36346 0.79375,-0.016 c 0.61193,-0.0123 0.70284,-0.0747 0.39688,-0.27247 -0.27944,-0.18059 -0.29618,-0.25768 -0.0566,-0.26053 0.25906,-0.003 0.32224,-0.61998 0.26459,-2.58374 l -0.0757,-2.57969 -0.92604,-0.1636 -0.92604,-0.16361 0.99219,-0.0348 c 0.95656,-0.0336 1.28455,-0.35207 0.72114,-0.70028 -0.14907,-0.0921 -0.63163,-0.0883 -1.07237,0.008 -0.75328,0.16545 -0.79652,0.24198 -0.72114,1.27638 0.0728,0.99934 0.15306,1.11044 0.87393,1.21007 l 0.79375,0.1097 -0.79052,0.15692 c -1.11513,0.22136 -1.25068,1.07889 -0.17054,1.07889 1.19833,0 1.3074,0.52349 0.11678,0.56047 -0.98629,0.0306 -0.99086,0.0354 -0.21406,0.22166 l 0.79375,0.19035 -0.79375,0.23327 -0.79375,0.23328 0.92605,0.17169 c 0.82621,0.15319 0.84671,0.17546 0.19013,0.20653 -0.8217,0.0389 -1.26234,0.75228 -0.69171,1.11987 0.26767,0.17242 0.28573,0.29248 0.0656,0.43632 -0.20941,0.13686 -0.33256,2.10383 -0.39687,6.33882 l -0.0932,6.14038 0.66146,0.10383 c 0.36381,0.0571 0.73475,0.12167 0.82431,0.14347 0.0896,0.0218 0.23846,-1.657 0.33087,-3.73067 z m -1.20479,-9.90418 c 0.191,-0.0764 0.4192,-0.067 0.50712,0.0209 0.0879,0.0879 -0.0683,0.15045 -0.34726,0.13897 -0.30823,-0.0127 -0.37092,-0.0754 -0.15986,-0.15986 z m -0.0165,-4.4924 c 0.1819,-0.0734 0.47955,-0.0734 0.66146,0 0.1819,0.0734 0.0331,0.13345 -0.33073,0.13345 -0.36381,0 -0.51263,-0.06 -0.33073,-0.13345 z m -13.51145,17.32353 c -0.0845,-0.21106 -0.14716,-0.14837 -0.15985,0.15986 -0.0115,0.27891 0.051,0.43518 0.13896,0.34726 0.0879,-0.0879 0.0973,-0.31612 0.0209,-0.50712 z m 12.25468,0.0496 c 0,-0.14552 -0.23813,-0.26458 -0.52917,-0.26458 -0.29104,0 -0.52917,0.11906 -0.52917,0.26458 0,0.14552 0.23813,0.26459 0.52917,0.26459 0.29104,0 0.52917,-0.11907 0.52917,-0.26459 z m 5.55625,0 c 0,-0.14552 -0.1786,-0.26458 -0.39688,-0.26458 -0.21828,0 -0.39687,0.11906 -0.39687,0.26458 0,0.14552 0.17859,0.26459 0.39687,0.26459 0.21828,0 0.39688,-0.11907 0.39688,-0.26459 z m -7.40834,-0.21703 c -0.50709,-0.22979 -0.58861,-1.10588 -0.10289,-1.10588 0.20211,0 0.36748,0.17859 0.36748,0.39687 0,0.21828 0.19133,0.39688 0.42518,0.39688 0.26924,0 0.36932,-0.14557 0.27289,-0.39688 -0.11003,-0.28673 0.029,-0.39687 0.50085,-0.39687 0.35924,0 0.65316,-0.11907 0.65316,-0.26459 0,-0.14552 -0.65484,-0.26458 -1.45521,-0.26458 -1.42149,0 -1.45521,0.0174 -1.45521,0.74965 0,0.85895 0.17886,1.11015 0.7717,1.08383 0.36161,-0.0161 0.36463,-0.0432 0.0221,-0.19843 z m -21.43125,-0.31213 c 0,-0.14553 -0.12609,-0.26459 -0.2802,-0.26459 -0.15411,0 -0.20661,0.11906 -0.11667,0.26459 0.0899,0.14552 0.21602,0.26458 0.28019,0.26458 0.0642,0 0.11668,-0.11906 0.11668,-0.26458 z m 2.38125,0 c 0,-0.14553 -0.29766,-0.26459 -0.66146,-0.26459 -0.3638,0 -0.66146,0.11906 -0.66146,0.26459 0,0.14552 0.29766,0.26458 0.66146,0.26458 0.3638,0 0.66146,-0.11906 0.66146,-0.26458 z m 1.32292,0 c 0,-0.14553 -0.1786,-0.26459 -0.39688,-0.26459 -0.21828,0 -0.39687,0.11906 -0.39687,0.26459 0,0.14552 0.17859,0.26458 0.39687,0.26458 0.21828,0 0.39688,-0.11906 0.39688,-0.26458 z m 10.49949,-0.3142 c -0.0845,-0.21106 -0.14716,-0.14837 -0.15985,0.15986 -0.0115,0.27891 0.051,0.43518 0.13896,0.34726 0.0879,-0.0879 0.0973,-0.31612 0.0209,-0.50712 z m 5.64009,0.0496 c -0.32549,-0.60818 -1.05833,-0.71322 -1.05833,-0.15169 0,0.32733 0.36489,0.53657 1.13379,0.65017 0.11426,0.0169 0.0803,-0.20744 -0.0755,-0.49848 z m 6.87917,0.26459 c 0,-0.14553 -0.11906,-0.26459 -0.26458,-0.26459 -0.14552,0 -0.26459,0.11906 -0.26459,0.26459 0,0.14552 0.11907,0.26458 0.26459,0.26458 0.14552,0 0.26458,-0.11906 0.26458,-0.26458 z m 1.32292,-0.2802 c 0,-0.13694 -0.1786,-0.24897 -0.39688,-0.24897 -0.40915,0 -0.52565,0.3122 -0.22768,0.61017 0.21139,0.21138 0.62456,-0.0276 0.62456,-0.3612 z m -20.80444,0.11163 c 1.02176,-0.14005 1.17724,-0.23197 0.91889,-0.54325 -0.33484,-0.40346 -0.36711,-8.53496 -0.0576,-14.50173 l 0.16472,-3.175 4.00222,-0.0739 c 2.20121,-0.0407 4.38916,0.0403 4.8621,0.17997 l 0.8599,0.2539 v -1.20046 c 0,-1.04171 -0.0612,-1.1745 -0.46302,-1.00411 -0.25466,0.10799 -2.52076,0.24577 -5.03577,0.30619 l -4.57275,0.10984 0.18044,-4.31278 c 0.11082,-2.64851 0.29285,-4.38779 0.47172,-4.50717 0.51116,-0.34115 6.02484,-0.21451 8.55966,0.1966 1.34617,0.21833 3.06548,0.63174 3.82069,0.9187 0.75521,0.28696 1.41798,0.47687 1.47282,0.42204 0.0548,-0.0548 -0.21391,-0.7186 -0.59722,-1.47503 l -0.69693,-1.37532 -5.20784,0.14781 c -2.86431,0.0813 -6.21987,0.15248 -7.4568,0.1582 l -2.24896,0.0104 v 2.84446 c 0,7.34796 -0.4702,25.06402 -0.68511,25.81336 -0.13251,0.46206 -0.24094,0.87065 -0.24094,0.90799 0,0.1114 0.64574,0.0781 1.94974,-0.10067 z m 21.86277,-0.096 c 0,-0.14552 -0.11906,-0.26458 -0.26458,-0.26458 -0.14552,0 -0.26459,0.11906 -0.26459,0.26458 0,0.14552 0.11907,0.26459 0.26459,0.26459 0.14552,0 0.26458,-0.11907 0.26458,-0.26459 z m 1.32292,-0.26458 c 0,-0.14552 -0.11907,-0.26458 -0.26459,-0.26458 -0.14552,0 -0.26458,0.11906 -0.26458,0.26458 0,0.14552 0.11906,0.26458 0.26458,0.26458 0.14552,0 0.26459,-0.11906 0.26459,-0.26458 z m -30.42709,-0.26458 c 0,-0.14552 -0.11906,-0.26459 -0.26458,-0.26459 -0.14552,0 -0.26459,0.11907 -0.26459,0.26459 0,0.14552 0.11907,0.26458 0.26459,0.26458 0.14552,0 0.26458,-0.11906 0.26458,-0.26458 z m 2.38125,0 c 0,-0.14552 -0.50601,-0.26276 -1.12448,-0.26054 -0.8235,0.003 -1.01825,0.0727 -0.7276,0.26054 0.52242,0.33761 1.85208,0.33761 1.85208,0 z m 1.32292,0 c 0,-0.14552 -0.1786,-0.26459 -0.39688,-0.26459 -0.21828,0 -0.39687,0.11907 -0.39687,0.26459 0,0.14552 0.17859,0.26458 0.39687,0.26458 0.21828,0 0.39688,-0.11906 0.39688,-0.26458 z m 8.25839,-5.49011 c 0.0418,-3.16508 0.0412,-6.61013 -0.001,-7.65568 -0.0837,-2.05497 -0.20249,-2.19259 -1.70855,-1.97872 -0.67137,0.0953 -0.72761,0.19588 -0.72761,1.30089 0,0.8268 0.14335,1.3092 0.46302,1.55812 0.42552,0.33134 0.4263,0.34778 0.01,0.20299 -0.41901,-0.14561 -0.454,0.28373 -0.46141,5.66205 -0.004,3.20078 -0.081,6.00982 -0.17022,6.24232 -0.13545,0.35298 0.0591,0.42272 1.17917,0.42272 h 1.34139 z m -1.90839,-2.49149 c 0,-0.12127 0.11204,-0.22049 0.24897,-0.22049 0.13693,0 0.31029,0.0992 0.38523,0.22049 0.075,0.12127 -0.0371,0.22049 -0.24896,0.22049 -0.21188,0 -0.38524,-0.0992 -0.38524,-0.22049 z m 9.91058,7.43415 c -0.0837,-0.13547 -0.454,-0.2463 -0.82284,-0.2463 -0.4481,0 -0.71653,-0.17559 -0.80899,-0.52917 -0.10468,-0.40028 -0.3609,-0.52917 -1.05197,-0.52917 -0.79608,0 -0.90271,0.0766 -0.82904,0.59532 0.0718,0.50556 0.29656,0.62118 1.49092,0.76695 0.7735,0.0944 1.47472,0.24 1.55826,0.32354 0.23192,0.23193 0.63684,-0.10095 0.46366,-0.38117 z m 8.87484,0.28286 c 0,-0.14552 -0.52876,-0.26458 -1.17501,-0.26458 -0.64626,0 -1.2486,0.11906 -1.33854,0.26458 -0.10078,0.16307 0.35004,0.26459 1.17501,0.26459 0.7362,0 1.33854,-0.11907 1.33854,-0.26459 z m -28.97188,-0.52916 c 0.0899,-0.14552 0.0374,-0.26459 -0.11668,-0.26459 -0.15411,0 -0.2802,0.11907 -0.2802,0.26459 0,0.14552 0.0525,0.26458 0.11668,0.26458 0.0642,0 0.19026,-0.11906 0.2802,-0.26458 z m 2.51354,-0.1323 c 0,-0.24694 -0.24988,-0.39687 -0.66146,-0.39687 -0.41157,0 -0.66146,0.14993 -0.66146,0.39687 0,0.24695 0.24989,0.39688 0.66146,0.39688 0.41158,0 0.66146,-0.14993 0.66146,-0.39688 z m 1.49343,-0.86324 c 0.032,-0.93737 -0.0439,-1.12113 -0.46302,-1.12113 -0.67744,0 -0.7144,1.30879 -0.0382,1.35361 0.44097,0.0292 0.44097,0.0365 0,0.15169 -0.25466,0.0666 -0.46302,0.29959 -0.46302,0.51788 0,0.23545 0.18833,0.36071 0.46302,0.30797 0.34635,-0.0665 0.47265,-0.37139 0.50125,-1.21002 z m 0.88782,0.84763 c 0,-0.22687 -0.11906,-0.33891 -0.26458,-0.24897 -0.14552,0.0899 -0.26459,0.27556 -0.26459,0.41249 0,0.13693 0.11907,0.24897 0.26459,0.24897 0.14552,0 0.26458,-0.18562 0.26458,-0.41249 z m 4.14398,-0.44741 c -0.0734,-0.1819 -0.13345,-0.0331 -0.13345,0.33073 0,0.3638 0.0601,0.51263 0.13345,0.33073 0.0734,-0.1819 0.0734,-0.47956 0,-0.66146 z m 5.11644,0.19844 c 0,-0.52917 -0.13229,-0.66146 -0.66146,-0.66146 -0.3638,0 -0.66146,0.0498 -0.66146,0.11065 0,0.0609 -0.0686,0.28951 -0.15252,0.50812 -0.14172,0.36931 -0.0211,0.43241 1.277,0.66812 0.10914,0.0198 0.19844,-0.26163 0.19844,-0.62543 z m 6.08542,-0.13229 c 0,-0.14552 -0.29766,-0.26458 -0.66146,-0.26458 -0.3638,0 -0.66146,0.11906 -0.66146,0.26458 0,0.14552 0.29766,0.26458 0.66146,0.26458 0.3638,0 0.66146,-0.11906 0.66146,-0.26458 z m 2.0388,-1.38906 c -0.0631,-0.32743 -0.11466,-0.0595 -0.11466,0.59531 0,0.65484 0.0516,0.92273 0.11466,0.59531 0.0631,-0.32742 0.0631,-0.8632 0,-1.19062 z m 5.63411,0.7276 c 0,-0.50932 -0.11906,-0.92604 -0.26458,-0.92604 -0.14552,0 -0.26458,0.41672 -0.26458,0.92604 0,0.50932 0.11906,0.92604 0.26458,0.92604 0.14552,0 0.26458,-0.41672 0.26458,-0.92604 z m -6.69203,-0.72452 c -0.0633,-0.32912 -0.11747,-0.12215 -0.12041,0.45994 -0.003,0.58208 0.0488,0.85136 0.11507,0.5984 0.0662,-0.25297 0.0686,-0.72922 0.005,-1.05834 z m 2.4587,0.45994 c 0,-0.50933 -0.11906,-0.92604 -0.26458,-0.92604 -0.14552,0 -0.26459,0.41671 -0.26459,0.92604 0,0.50932 0.11907,0.92604 0.26459,0.92604 0.14552,0 0.26458,-0.41672 0.26458,-0.92604 z m 5.29167,-0.16352 c 0,-0.4618 -0.11066,-0.72537 -0.26459,-0.63023 -0.14552,0.0899 -0.26458,0.52071 -0.26458,0.95727 0,0.46179 0.11065,0.72536 0.26458,0.63023 0.14552,-0.0899 0.26459,-0.52071 0.26459,-0.95727 z m 1.23907,0.51078 c -0.0845,-0.21106 -0.14716,-0.14837 -0.15985,0.15986 -0.0115,0.27891 0.051,0.43518 0.13896,0.34726 0.0879,-0.0879 0.0973,-0.31612 0.0209,-0.50712 z m -30.07866,0.0496 c 0,-0.14552 -0.11906,-0.26458 -0.26458,-0.26458 -0.14552,0 -0.26459,0.11906 -0.26459,0.26458 0,0.14552 0.11907,0.26459 0.26459,0.26459 0.14552,0 0.26458,-0.11907 0.26458,-0.26459 z m 2.38125,0 c 0,-0.14552 -0.30468,-0.26458 -0.67707,-0.26458 -0.38401,0 -0.6063,0.11452 -0.51355,0.26458 0.0899,0.14552 0.39462,0.26459 0.67707,0.26459 0.28245,0 0.51355,-0.11907 0.51355,-0.26459 z m 2.64583,0 c 0,-0.14552 -0.17859,-0.26458 -0.39687,-0.26458 -0.21828,0 -0.39688,0.11906 -0.39688,0.26458 0,0.14552 0.1786,0.26459 0.39688,0.26459 0.21828,0 0.39687,-0.11907 0.39687,-0.26459 z m 3.88491,-0.57877 c -0.0845,-0.21107 -0.14715,-0.14838 -0.15985,0.15985 -0.0115,0.27891 0.051,0.43518 0.13897,0.34727 0.0879,-0.0879 0.0973,-0.31613 0.0209,-0.50712 z m 11.06405,0.31419 c -0.0899,-0.14552 -0.39462,-0.26458 -0.67707,-0.26458 -0.28245,0 -0.51355,0.11906 -0.51355,0.26458 0,0.14552 0.30468,0.26458 0.67707,0.26458 0.38401,0 0.6063,-0.11452 0.51355,-0.26458 z m 9.57607,-0.72257 c -0.0671,-0.25743 -0.12638,-0.11087 -0.13178,0.32569 -0.005,0.43657 0.0495,0.64719 0.12197,0.46806 0.0725,-0.17913 0.0769,-0.53632 0.01,-0.79375 z m -13.41305,0.25955 c 3.2e-4,-0.20169 -0.36079,-0.33073 -0.92552,-0.33073 -0.64659,0 -0.92604,0.11972 -0.92604,0.39672 0,0.28953 0.25005,0.37888 0.92551,0.33072 0.52847,-0.0377 0.92574,-0.20787 0.92605,-0.39671 z m -16.13906,-0.0662 c 0,-0.14552 -0.11906,-0.26458 -0.26458,-0.26458 -0.14552,0 -0.26459,0.11906 -0.26459,0.26458 0,0.14552 0.11907,0.26459 0.26459,0.26459 0.14552,0 0.26458,-0.11907 0.26458,-0.26459 z m 2.38125,0 c 0,-0.14552 -0.30468,-0.26458 -0.67707,-0.26458 -0.38401,0 -0.6063,0.11452 -0.51355,0.26458 0.0899,0.14552 0.39462,0.26459 0.67707,0.26459 0.28245,0 0.51355,-0.11907 0.51355,-0.26459 z m 2.64583,0 c 0,-0.14552 -0.18562,-0.26458 -0.41249,-0.26458 -0.22686,0 -0.3389,0.11906 -0.24896,0.26458 0.0899,0.14552 0.27555,0.26459 0.41249,0.26459 0.13693,0 0.24896,-0.11907 0.24896,-0.26459 z m 25.26771,0 c 0.0899,-0.14552 0.0374,-0.26458 -0.11667,-0.26458 -0.15411,0 -0.2802,0.11906 -0.2802,0.26458 0,0.14552 0.0525,0.26459 0.11668,0.26459 0.0642,0 0.19026,-0.11907 0.28019,-0.26459 z m -10.35322,-0.59531 c 0.0877,-0.32742 0.16117,-2.05383 0.16315,-3.83646 l 0.004,-3.24114 h -0.65316 c -0.44605,0 -0.60881,0.11556 -0.5133,0.36445 0.18341,0.47796 -0.9362,0.66937 -3.96638,0.67811 -1.29509,0.004 -2.41626,0.0683 -2.49149,0.14357 -0.0752,0.0752 1.34157,0.13673 3.14846,0.13667 l 3.28524,-1.1e-4 -0.032,2.27024 c -0.0293,2.08114 0.0148,2.28912 0.52916,2.49688 0.53571,0.21637 0.53116,0.22779 -0.10032,0.25183 -0.6392,0.0243 -0.64418,0.0383 -0.14787,0.41364 0.44785,0.33874 0.45631,0.38847 0.0661,0.38847 -0.24609,0 -0.44744,0.11906 -0.44744,0.26458 0,0.54043 0.9993,0.25457 1.15615,-0.33073 z m -19.84534,-0.32919 c -0.0834,-0.21745 -0.25829,-0.32948 -0.38857,-0.24897 -0.37357,0.23088 -0.27622,0.64433 0.15172,0.64433 0.23603,0 0.32901,-0.15521 0.23685,-0.39536 z m 3.87249,-0.002 c 0,-0.22048 -0.23518,-0.39687 -0.52917,-0.39687 -0.29398,0 -0.52916,0.17639 -0.52916,0.39687 0,0.22049 0.23518,0.39688 0.52916,0.39688 0.29399,0 0.52917,-0.17639 0.52917,-0.39688 z m 26.45429,-0.46302 c 0.002,-0.10914 -0.11502,-0.19844 -0.26054,-0.19844 -0.14552,0 -0.26276,0.26789 -0.26053,0.59532 0.003,0.48139 0.0531,0.51936 0.26053,0.19843 0.14107,-0.21828 0.25831,-0.48617 0.26054,-0.59531 z m -25.4798,0.0165 c -0.0845,-0.21107 -0.14715,-0.14838 -0.15985,0.15985 -0.0115,0.27891 0.0511,0.43518 0.13896,0.34727 0.0879,-0.0879 0.0973,-0.31613 0.0209,-0.50712 z m 9.07968,0.1819 c 0,-0.24695 -0.24988,-0.39688 -0.66146,-0.39688 -0.41157,0 -0.66146,0.14993 -0.66146,0.39688 0,0.24694 0.24989,0.39687 0.66146,0.39687 0.41158,0 0.66146,-0.14993 0.66146,-0.39687 z m 4.41906,-0.023 c 0.0545,-0.16654 -0.29877,-0.30234 -0.83952,-0.32267 -0.67775,-0.0255 -0.93371,0.0761 -0.93371,0.37048 0,0.29659 0.2256,0.3833 0.83952,0.32267 0.46174,-0.0456 0.88191,-0.21232 0.93371,-0.37048 z m 4.755,-0.34266 c -0.0839,-0.41938 -0.0761,-0.83888 0.0172,-0.93222 0.33998,-0.33999 0.22597,-2.00943 -0.13723,-2.00943 -0.19471,0 -0.28814,0.10659 -0.20763,0.23686 0.0805,0.13027 -0.0518,0.3129 -0.29396,0.40583 -0.24219,0.0929 -0.53734,0.0161 -0.65589,-0.17071 -0.11855,-0.18683 -0.21736,-0.22658 -0.21959,-0.0883 -0.002,0.13824 -0.14693,0.10848 -0.32155,-0.0662 -0.24695,-0.24694 -0.24695,-0.38806 0,-0.635 0.43212,-0.43212 0.39904,-0.74083 -0.0794,-0.74083 -0.30189,0 -0.39687,0.32926 -0.39687,1.37583 0,1.07009 0.0706,1.30528 0.3175,1.05833 0.3829,-0.3829 1.63544,-0.43016 1.40229,-0.0529 -0.0899,0.14552 -0.0304,0.26458 0.13229,0.26458 0.1627,0 0.22914,0.10788 0.14764,0.23974 -0.0815,0.13187 -0.36472,0.18312 -0.62941,0.1139 -0.53012,-0.13863 -0.94412,0.2565 -1.22347,1.16771 -0.17128,0.55872 -0.10617,0.59532 1.05903,0.59532 1.22706,0 1.23975,-0.009 1.08902,-0.76252 z m 5.47856,0.54931 c 0.18788,-0.30399 -0.41425,-1.40271 -0.95315,-1.73925 -0.58167,-0.36325 -0.93392,-0.0289 -1.15987,1.10083 -0.16949,0.84741 -0.165,0.85163 0.90546,0.85163 0.59169,0 1.13509,-0.0959 1.20756,-0.21321 z m -19.6797,-0.31595 c 0,-0.14552 -0.11907,-0.26459 -0.26459,-0.26459 -0.14552,0 -0.26458,0.11907 -0.26458,0.26459 0,0.14552 0.11906,0.26458 0.26458,0.26458 0.14552,0 0.26459,-0.11906 0.26459,-0.26458 z m -8.99584,-0.52917 c 0,-0.14552 -0.11906,-0.26458 -0.26458,-0.26458 -0.14552,0 -0.26459,0.11906 -0.26459,0.26458 0,0.14552 0.11907,0.26458 0.26459,0.26458 0.14552,0 0.26458,-0.11906 0.26458,-0.26458 z m 2.05049,-0.41896 c -0.25214,-0.25214 -0.75764,0.15626 -0.56973,0.4603 0.11168,0.18071 0.25968,0.17614 0.44969,-0.0139 0.15578,-0.15578 0.20979,-0.35667 0.12004,-0.44642 z m 1.91826,-0.63937 c 0,-0.88195 -0.0882,-1.05834 -0.52917,-1.05834 -0.44097,0 -0.52916,0.17639 -0.52916,1.05834 0,0.88194 0.0882,1.05833 0.52916,1.05833 0.44098,0 0.52917,-0.17639 0.52917,-1.05833 z m 14.13357,0.89773 c 0.32605,-0.12512 0.40869,-0.51971 0.37404,-1.78594 -0.0305,-1.11445 -0.0771,-1.31347 -0.14826,-0.63315 -0.0886,0.84704 -0.19822,0.99219 -0.74928,0.99219 -0.58863,0 -0.64548,-0.10487 -0.64548,-1.19063 0,-1.55244 -0.44779,-1.54393 -0.57145,0.0109 -0.082,1.0315 -0.0203,1.21721 0.43638,1.31261 0.29257,0.0611 0.77007,0.16148 1.06111,0.22303 0.29104,0.0616 -0.13163,0.12571 -0.93927,0.14259 -0.82997,0.0174 -1.60649,-0.10736 -1.78594,-0.28681 -0.17463,-0.17462 -0.3175,-0.82946 -0.3175,-1.4552 0,-0.62574 -0.11906,-1.13771 -0.26458,-1.13771 -0.14552,0 -0.26459,0.34745 -0.26459,0.77211 0,1.11634 -0.25175,1.60913 -0.82205,1.60913 -0.35464,0 -0.50086,-0.18856 -0.50086,-0.64584 0,-0.35522 -0.12752,-0.72466 -0.28338,-0.82098 -0.18543,-0.11461 -0.25402,0.13149 -0.19844,0.71198 0.0822,0.85835 0.12786,0.89096 1.40786,1.00505 l 1.32291,0.11791 -1.4552,0.16969 c -1.17611,0.13714 -0.90123,0.17796 1.43316,0.21281 1.5886,0.0237 2.81306,0.11843 2.72102,0.21047 -0.092,0.092 -1.3025,0.15156 -2.68993,0.13228 -1.52878,-0.0213 -2.52259,0.0692 -2.52259,0.22953 0,0.28702 4.6901,0.37731 5.40232,0.104 z m 12.32477,-0.0884 c 0,-0.13693 -0.11907,-0.32255 -0.26459,-0.41249 -0.14552,-0.0899 -0.26458,0.0221 -0.26458,0.24897 0,0.22687 0.11906,0.41249 0.26458,0.41249 0.14552,0 0.26459,-0.11204 0.26459,-0.24897 z m -21.43125,-0.2802 c 0,-0.14552 -0.0525,-0.26458 -0.11668,-0.26458 -0.0642,0 -0.19026,0.11906 -0.2802,0.26458 -0.0899,0.14552 -0.0374,0.26459 0.11668,0.26459 0.15411,0 0.2802,-0.11907 0.2802,-0.26459 z m -8.99584,-0.26458 c 0,-0.14552 -0.11906,-0.26458 -0.26458,-0.26458 -0.14552,0 -0.26459,0.11906 -0.26459,0.26458 0,0.14552 0.11907,0.26458 0.26459,0.26458 0.14552,0 0.26458,-0.11906 0.26458,-0.26458 z m 28.87927,-0.73642 c -0.16735,-0.0558 -0.30427,-0.25687 -0.30427,-0.44686 0,-0.39697 -0.83017,-0.40241 -1.12043,-0.007 -0.10977,0.14941 -0.19614,0.063 -0.19843,-0.19844 -0.002,-0.25466 -0.18265,-0.46302 -0.40093,-0.46302 -0.47842,0 -0.51149,0.30871 -0.0794,0.74083 0.24694,0.24695 0.24694,0.3175 0,0.3175 -0.17463,0 -0.3175,0.11651 -0.3175,0.25891 0,0.16008 0.24343,0.148 0.6377,-0.0316 0.50507,-0.23012 0.76616,-0.20057 1.25539,0.14209 0.45193,0.31655 0.64646,0.34634 0.72491,0.11102 0.059,-0.17689 -0.0297,-0.36727 -0.19707,-0.42305 z m -19.98816,-0.25026 c -0.26896,-0.26895 -0.49087,0.13597 -0.2702,0.49302 0.16669,0.26972 0.22902,0.26993 0.31864,0.001 0.0613,-0.18383 0.0395,-0.40617 -0.0484,-0.49409 z m 21.53193,-1.97427 c 0.002,-1.1192 -0.11502,-2.10849 -0.26054,-2.19843 -0.16962,-0.10483 -0.26313,0.76799 -0.26053,2.43178 0.003,1.77339 0.0853,2.46962 0.26053,2.19843 0.14107,-0.21828 0.25831,-1.31258 0.26054,-2.43178 z m -30.29075,1.90262 c -0.0899,-0.14552 -0.27555,-0.26459 -0.41249,-0.26459 -0.13693,0 -0.24897,0.11907 -0.24897,0.26459 0,0.14552 0.18563,0.26458 0.41249,0.26458 0.22687,0 0.33891,-0.11906 0.24897,-0.26458 z m 1.98438,0 c 0,-0.14552 -0.11204,-0.26459 -0.24897,-0.26459 -0.13693,0 -0.32255,0.11907 -0.41249,0.26459 -0.0899,0.14552 0.0221,0.26458 0.24897,0.26458 0.22687,0 0.41249,-0.11906 0.41249,-0.26458 z m 6.87917,-0.52917 c 0,-0.14552 -0.11907,-0.26458 -0.26459,-0.26458 -0.14552,0 -0.26458,0.11906 -0.26458,0.26458 0,0.14552 0.11906,0.26458 0.26458,0.26458 0.14552,0 0.26459,-0.11906 0.26459,-0.26458 z m 20.5553,-0.99219 c -0.0665,-0.25466 -0.121,-0.0463 -0.121,0.46302 0,0.50933 0.0545,0.71768 0.121,0.46302 0.0666,-0.25466 0.0666,-0.67138 0,-0.92604 z m -29.55114,0.59531 c 0,-0.21828 -0.11906,-0.39687 -0.26458,-0.39687 -0.14552,0 -0.26459,0.17859 -0.26459,0.39687 0,0.21829 0.11907,0.39688 0.26459,0.39688 0.14552,0 0.26458,-0.17859 0.26458,-0.39688 z m 3.88954,-0.33072 c -0.0626,-0.46818 -0.27811,-0.75626 -0.60437,-0.80798 -0.42248,-0.067 -0.44085,-0.0345 -0.11017,0.19439 0.26804,0.18556 0.28952,0.27607 0.0661,0.27881 -0.50463,0.006 -0.39394,0.74248 0.13229,0.87999 0.25466,0.0666 0.49686,0.13482 0.53822,0.1517 0.0414,0.0169 0.0314,-0.29673 -0.0221,-0.69691 z m -1.50829,0.0661 c 0,-0.42703 -0.24233,-0.49034 -0.9044,-0.23627 -0.64413,0.24717 -0.49602,0.63315 0.24294,0.63315 0.41158,0 0.66146,-0.14994 0.66146,-0.39688 z m 2.02731,-0.46302 c -0.0734,-0.1819 -0.13345,-0.0331 -0.13345,0.33073 0,0.3638 0.06,0.51263 0.13345,0.33073 0.0734,-0.1819 0.0734,-0.47956 0,-0.66146 z m 18.08103,0.31511 c 0,-0.13693 -0.11907,-0.24896 -0.26459,-0.24896 -0.14552,0 -0.26458,0.18562 -0.26458,0.41249 0,0.22687 0.11906,0.3389 0.26458,0.24896 0.14552,-0.0899 0.26459,-0.27555 0.26459,-0.41249 z m 5.82083,0.29582 c 0,-0.13693 -0.11906,-0.32256 -0.26458,-0.41249 -0.14552,-0.0899 -0.26459,0.0221 -0.26459,0.24897 0,0.22686 0.11907,0.41249 0.26459,0.41249 0.14552,0 0.26458,-0.11204 0.26458,-0.24897 z m -19.18229,-0.2802 c -0.0899,-0.14552 -0.27556,-0.26458 -0.41249,-0.26458 -0.13693,0 -0.24897,0.11906 -0.24897,0.26458 0,0.14552 0.18562,0.26458 0.41249,0.26458 0.22687,0 0.3389,-0.11906 0.24897,-0.26458 z M 169.906,187.2238 c 0,-0.29105 -0.16745,-0.52917 -0.37211,-0.52917 -0.24184,0 -0.32366,-0.18525 -0.23372,-0.52917 0.0761,-0.29104 0.24356,-0.52916 0.3721,-0.52916 0.35846,0 0.27748,-0.73507 -0.0946,-0.85911 -0.23566,-0.0786 -0.19739,-0.24044 0.13557,-0.57339 0.40413,-0.40413 0.46115,-0.98971 0.44236,-4.5428 l -0.0216,-4.07887 h -1.15671 c -0.6362,0 -1.23599,0.12826 -1.33288,0.28503 -0.12164,0.19682 0.18839,0.23037 1.00178,0.10839 1.1761,-0.17637 1.17797,-0.17536 1.20131,0.64577 0.0147,0.51649 -0.081,0.75793 -0.25709,0.64907 -0.18541,-0.11459 -0.20188,-0.0336 -0.0486,0.23887 0.12755,0.22672 0.19493,1.79087 0.14973,3.47588 -0.0754,2.81317 -0.12358,3.06366 -0.58876,3.06366 -0.41036,0 -0.46724,-0.11309 -0.29941,-0.59532 0.23629,-0.67893 0.20711,-1.57303 -0.0658,-2.01454 -0.10217,-0.16531 -0.0597,-0.30056 0.0944,-0.30056 0.15411,0 0.2802,-0.17859 0.2802,-0.39688 0,-0.21828 -0.11906,-0.39687 -0.26458,-0.39687 -0.14552,0 -0.26459,-0.23813 -0.26459,-0.52917 0,-0.29104 0.14883,-0.53099 0.33073,-0.53322 0.2364,-0.003 0.22541,-0.0707 -0.0386,-0.23788 -0.21183,-0.13413 -0.29677,-0.42281 -0.1992,-0.67706 0.17715,-0.46165 -0.51679,-1.39122 -0.81554,-1.09247 -0.0925,0.0925 -0.0385,0.29794 0.12011,0.45651 0.38007,0.38007 0.11625,6.10879 -0.29379,6.37955 -0.27842,0.18384 -0.23391,0.22276 0.34503,0.30171 0.13339,0.0182 0.34175,0.13864 0.46302,0.26768 0.12651,0.13461 -0.0896,0.17844 -0.50712,0.10283 -0.40018,-0.0725 -0.7276,-0.0292 -0.7276,0.0961 0,0.12534 0.40969,0.22789 0.91042,0.22789 1.07956,0 1.36897,0.32864 0.79493,0.90268 -0.45681,0.45681 -0.30394,0.9494 0.29464,0.9494 0.20969,0 0.38126,0.1786 0.38126,0.39688 0,0.21828 0.0595,0.39687 0.13229,0.39687 0.0728,0 0.13229,-0.23812 0.13229,-0.52916 z m 3.96875,-0.39688 c 0,-0.48155 -0.14167,-0.66146 -0.52086,-0.66146 -0.38475,0 -0.47622,0.121 -0.35003,0.46302 0.14444,0.39148 0.56741,0.84131 0.80474,0.85585 0.0364,0.002 0.0661,-0.29361 0.0661,-0.65741 z m -27.25209,0.13229 c 0,-0.14552 -0.17859,-0.26458 -0.39687,-0.26458 -0.21828,0 -0.39688,0.11906 -0.39688,0.26458 0,0.14552 0.1786,0.26459 0.39688,0.26459 0.21828,0 0.39687,-0.11907 0.39687,-0.26459 z m 28.83959,-0.26458 c 0,-0.37789 -0.17019,-0.52385 -0.59531,-0.51057 -0.56804,0.0177 -0.57107,0.029 -0.0661,0.24599 0.29104,0.12506 0.38034,0.23576 0.19844,0.24598 -0.4734,0.0266 -0.41047,0.54777 0.0661,0.54777 0.22049,0 0.39688,-0.23519 0.39688,-0.52917 z m -26.64626,-0.26458 c 0.0968,-0.37018 0.007,-0.5317 -0.29987,-0.53759 -0.379,-0.007 -0.37016,-0.0599 0.0654,-0.38959 0.44768,-0.33883 0.456,-0.39946 0.0749,-0.54571 -0.67732,-0.25991 -1.04528,-0.0145 -1.12697,0.75172 -0.0416,0.38978 0.005,0.6974 0.10416,0.6836 0.64032,-0.0894 0.86258,0.12583 0.31201,0.30215 l -0.66145,0.21184 0.69674,0.0264 c 0.48739,0.0185 0.73833,-0.13262 0.83513,-0.50279 z m 6.53793,0.26458 c 0,-0.14552 -0.12609,-0.26458 -0.2802,-0.26458 -0.15411,0 -0.20662,0.11906 -0.11668,0.26458 0.0899,0.14552 0.21603,0.26458 0.2802,0.26458 0.0642,0 0.11668,-0.11906 0.11668,-0.26458 z m -8.73126,-0.52917 c 0,-0.14552 -0.11906,-0.26458 -0.26458,-0.26458 -0.14552,0 -0.26458,0.11906 -0.26458,0.26458 0,0.14552 0.11906,0.26459 0.26458,0.26459 0.14552,0 0.26458,-0.11907 0.26458,-0.26459 z m 3.43959,0 c -0.51297,-0.3315 -0.79375,-0.3315 -0.79375,0 0,0.14552 0.26789,0.26276 0.59531,0.26054 0.48139,-0.003 0.51937,-0.0531 0.19844,-0.26054 z m 1.49814,-0.59531 c -0.0734,-0.1819 -0.13345,-0.0331 -0.13345,0.33073 0,0.3638 0.06,0.51263 0.13345,0.33073 0.0734,-0.1819 0.0734,-0.47956 0,-0.66146 z m 16.55967,0.68467 c -0.1819,-0.0734 -0.47956,-0.0734 -0.66146,0 -0.1819,0.0734 -0.0331,0.13345 0.33073,0.13345 0.3638,0 0.51263,-0.06 0.33073,-0.13345 z m 7.7939,-1.21075 c -0.0633,-0.32912 -0.11747,-0.12215 -0.1204,0.45993 -0.003,0.58209 0.0488,0.85137 0.11506,0.5984 0.0662,-0.25296 0.0686,-0.72921 0.005,-1.05833 z m -25.58713,0.45993 c 0,-0.22048 -0.23518,-0.39687 -0.52917,-0.39687 -0.65177,0 -0.69999,0.44572 -0.0662,0.61137 0.25467,0.0666 0.49279,0.13481 0.52917,0.15169 0.0364,0.0169 0.0661,-0.1479 0.0661,-0.36619 z m 5.02709,0.1323 c 0,-0.14552 -0.11907,-0.26459 -0.26459,-0.26459 -0.14552,0 -0.26458,0.11907 -0.26458,0.26459 0,0.14552 0.11906,0.26458 0.26458,0.26458 0.14552,0 0.26459,-0.11906 0.26459,-0.26458 z m 12.30312,0 c 0.0899,-0.14552 0.0374,-0.26459 -0.11668,-0.26459 -0.1541,0 -0.28019,0.11907 -0.28019,0.26459 0,0.14552 0.0525,0.26458 0.11667,0.26458 0.0642,0 0.19026,-0.11906 0.2802,-0.26458 z m 1.05833,0 c 0.0899,-0.14552 0.0445,-0.26459 -0.10106,-0.26459 -0.14552,0 -0.33817,0.11907 -0.4281,0.26459 -0.0899,0.14552 -0.0445,0.26458 0.10106,0.26458 0.14552,0 0.33817,-0.11906 0.4281,-0.26458 z m 6.69363,-3.63802 c -0.0303,-2.22439 -0.092,-3.02083 -0.14342,-1.85209 -0.0496,1.12779 -0.20842,2.05052 -0.35294,2.05052 -0.17012,0 -0.1662,0.18043 0.0111,0.51178 0.39309,0.7345 0.3375,1.34031 -0.12299,1.34031 -0.32493,0 -0.40255,-0.49165 -0.42821,-2.71198 -0.0172,-1.49159 -0.0109,-2.82013 0.014,-2.95232 0.0249,-0.13218 -0.092,-0.3252 -0.25985,-0.42893 -0.21662,-0.13388 -0.16523,-0.352 0.17713,-0.75185 0.57068,-0.66651 0.89384,-0.72102 0.89384,-0.15077 0,0.22687 -0.11906,0.33891 -0.26458,0.24897 -0.14553,-0.0899 -0.26459,-0.0445 -0.26459,0.10106 0,0.46765 0.46834,0.57138 0.63374,0.14037 0.26824,-0.69904 0.17899,-1.64368 -0.17072,-1.80688 -0.26458,-0.12347 -0.26458,-0.18521 0,-0.30868 0.70027,-0.32679 0.27986,-0.63941 -0.8599,-0.63941 -1.18936,0 -1.72175,0.50124 -0.59531,0.56047 0.4813,0.0253 0.44329,0.07 -0.19844,0.23328 l -0.79375,0.20197 0.97658,0.0313 c 1.08347,0.0347 1.69442,0.56047 0.65131,0.56047 -0.53781,0 -0.62611,0.10014 -0.5031,0.57054 0.0821,0.3138 0.0411,0.50352 -0.0909,0.42161 -0.14068,-0.0873 -0.20421,1.25545 -0.15341,3.24256 0.0794,3.10395 0.0457,3.40208 -0.39687,3.51645 -0.26597,0.0687 -0.0441,0.13877 0.49299,0.15565 0.53711,0.0169 1.06034,0.16623 1.16272,0.33189 0.13332,0.21571 -0.0876,0.24986 -0.77813,0.12031 -0.60971,-0.11439 -0.96429,-0.0792 -0.96429,0.0957 0,0.15211 0.41672,0.27657 0.92604,0.27657 0.64676,0 0.92604,0.11969 0.92604,0.39687 0,0.21829 0.11907,0.39688 0.26459,0.39688 0.16683,0 0.24491,-1.44176 0.21133,-3.9026 z m -28.78634,3.37343 c 0,-0.14552 -0.11906,-0.26458 -0.26458,-0.26458 -0.14552,0 -0.26458,0.11906 -0.26458,0.26458 0,0.14552 0.11906,0.26459 0.26458,0.26459 0.14552,0 0.26458,-0.11907 0.26458,-0.26459 z m 15.08126,-0.26458 c 0,-0.14552 -0.11907,-0.26458 -0.26459,-0.26458 -0.14552,0 -0.26458,0.11906 -0.26458,0.26458 0,0.14552 0.11906,0.26458 0.26458,0.26458 0.14552,0 0.26459,-0.11906 0.26459,-0.26458 z m 1.5875,0.14791 c 0,-0.0642 -0.11907,-0.19027 -0.26459,-0.2802 -0.14552,-0.0899 -0.26458,-0.0374 -0.26458,0.11667 0,0.15411 0.11906,0.2802 0.26458,0.2802 0.14552,0 0.26459,-0.0525 0.26459,-0.11667 z m 1.05833,-0.29582 c 0,-0.22687 -0.11906,-0.3389 -0.26458,-0.24897 -0.14552,0.0899 -0.27399,-0.0519 -0.28548,-0.31511 -0.0128,-0.29259 -0.0739,-0.34662 -0.1573,-0.13901 -0.075,0.18679 0.008,0.51421 0.18558,0.7276 0.4101,0.49415 0.52178,0.4889 0.52178,-0.0245 z m -8.99583,-0.11667 c 0,-0.14552 -0.11907,-0.26459 -0.26459,-0.26459 -0.14552,0 -0.26458,0.11907 -0.26458,0.26459 0,0.14552 0.11906,0.26458 0.26458,0.26458 0.14552,0 0.26459,-0.11906 0.26459,-0.26458 z m 4.23333,0.1606 c 0,-0.0572 -0.17859,-0.17252 -0.39688,-0.25628 -0.21828,-0.0838 -0.39687,-0.037 -0.39687,0.10398 0,0.14095 0.17859,0.25628 0.39687,0.25628 0.21829,0 0.39688,-0.0468 0.39688,-0.10398 z m -13.09688,-0.42519 c 0.0899,-0.14552 0.0374,-0.26458 -0.11667,-0.26458 -0.15411,0 -0.2802,0.11906 -0.2802,0.26458 0,0.14552 0.0525,0.26459 0.11667,0.26459 0.0642,0 0.19027,-0.11907 0.2802,-0.26459 z m 3.83646,-0.39687 c 0,-0.3638 -0.0498,-0.66146 -0.11065,-0.66146 -0.0609,0 -0.29898,-0.0723 -0.52917,-0.1606 -0.23018,-0.0883 -0.41851,-0.0288 -0.41851,0.13229 0,0.16109 0.17859,0.29289 0.39687,0.29289 0.21828,0 0.39688,0.11533 0.39688,0.25628 0,0.14096 -0.1786,0.18775 -0.39688,0.10399 -0.21828,-0.0838 -0.39687,-0.0304 -0.39687,0.11854 0,0.25199 0.39701,0.50991 0.85989,0.55864 0.10914,0.0115 0.19844,-0.27677 0.19844,-0.64057 z m 0.79375,0.26458 c 0,-0.21828 -0.11906,-0.39687 -0.26458,-0.39687 -0.14552,0 -0.26459,0.17859 -0.26459,0.39687 0,0.21828 0.11907,0.39688 0.26459,0.39688 0.14552,0 0.26458,-0.1786 0.26458,-0.39688 z m 8.74525,-0.54247 c -0.22888,-0.76633 -0.23351,-0.76808 -0.25584,-0.0969 -0.0125,0.37593 0.0566,0.76288 0.15365,0.8599 0.30721,0.30721 0.34269,0.0423 0.10219,-0.76296 z m 1.02574,-0.20075 c -0.0157,-0.71168 -0.0543,-0.76117 -0.24599,-0.31511 -0.31733,0.73847 -0.31733,1.51904 0,1.32291 0.14552,-0.0899 0.25622,-0.54344 0.24599,-1.0078 z m 1.33616,0.60094 c -0.1587,-0.29654 -0.22352,-0.80256 -0.14404,-1.12448 0.0795,-0.32193 0.0717,-0.42302 -0.0174,-0.22465 -0.13667,0.3045 -0.19746,0.3045 -0.39038,0 -0.16661,-0.26297 -0.2296,-0.1947 -0.23256,0.25203 -0.005,0.73481 0.44046,1.63626 0.80832,1.63626 0.16855,0 0.15985,-0.1957 -0.024,-0.53916 z m -13.35611,0.01 c -0.0899,-0.14552 -0.39462,-0.26458 -0.67707,-0.26458 -0.28245,0 -0.51355,0.11906 -0.51355,0.26458 0,0.14552 0.30468,0.26458 0.67707,0.26458 0.38401,0 0.6063,-0.11452 0.51355,-0.26458 z m 17.72791,-0.26325 c -0.22229,-0.35967 -1.45603,-0.47918 -1.45603,-0.14103 0,0.17385 0.0623,0.37841 0.13851,0.45459 0.21314,0.21315 1.45969,-0.0835 1.31752,-0.31356 z m -11.11332,-0.001 c 0.0899,-0.14552 0.0374,-0.26459 -0.11668,-0.26459 -0.15411,0 -0.2802,0.11907 -0.2802,0.26459 0,0.14552 0.0525,0.26458 0.11668,0.26458 0.0642,0 0.19026,-0.11906 0.2802,-0.26458 z m 7.29672,-1.40807 c -0.20396,-0.20397 -0.28526,-0.0565 -0.28526,0.5173 0,1.04446 0.37125,1.41828 0.4837,0.48704 0.0478,-0.39549 -0.0415,-0.84744 -0.19844,-1.00434 z m 13.95161,-1.23777 c 0.0346,-1.60073 -0.0434,-2.91041 -0.17335,-2.91041 -0.12999,0 -0.25034,1.30968 -0.26746,2.91041 -0.0171,1.60073 0.0609,2.91042 0.17335,2.91042 0.11245,0 0.23281,-1.30969 0.26746,-2.91042 z m -0.82532,1.38907 c -0.0665,-0.25467 -0.121,-0.0463 -0.121,0.46302 0,0.50932 0.0545,0.71768 0.121,0.46302 0.0666,-0.25466 0.0666,-0.67138 0,-0.92604 z m -29.28656,0.7276 c 0,-0.14552 -0.11906,-0.26458 -0.26458,-0.26458 -0.14552,0 -0.26458,0.11906 -0.26458,0.26458 0,0.14552 0.11906,0.26458 0.26458,0.26458 0.14552,0 0.26458,-0.11906 0.26458,-0.26458 z m 18.22737,-1.5875 0.0381,-1.85208 h -0.79834 c -0.46013,0 -0.80006,0.14011 -0.8024,0.33073 -0.003,0.24014 -0.0573,0.24756 -0.19843,0.0271 -0.30772,-0.48062 -1.91856,-0.27791 -2.33679,0.29406 -0.20413,0.27916 -0.37114,0.36574 -0.37114,0.19241 0,-0.17334 -0.17859,-0.31516 -0.39688,-0.31516 -0.21828,0 -0.39687,-0.11906 -0.39687,-0.26458 0,-0.14552 -0.0935,-0.26458 -0.20777,-0.26458 -0.11427,0 -0.22554,0.68461 -0.24727,1.52135 -0.0217,0.83675 0.023,1.37002 0.0994,1.18506 0.20416,-0.49434 1.54144,-1.11906 2.39304,-1.11792 0.87092,0.001 2.30439,0.8145 2.78123,1.57804 0.18467,0.2957 0.35159,0.53763 0.37093,0.53763 0.0193,0 0.0523,-0.83343 0.0732,-1.85208 z m -1.69091,-0.52917 c 0.0899,-0.14552 0.28259,-0.26458 0.42811,-0.26458 0.14552,0 0.191,0.11906 0.10106,0.26458 -0.0899,0.14552 -0.28258,0.26459 -0.4281,0.26459 -0.14552,0 -0.191,-0.11907 -0.10107,-0.26459 z m -0.61968,-0.52916 c 0,-0.36381 0.0601,-0.51263 0.13345,-0.33073 0.0734,0.1819 0.0734,0.47955 0,0.66146 -0.0734,0.1819 -0.13345,0.0331 -0.13345,-0.33073 z m 3.92698,2.38125 c 0,-0.14552 -0.30469,-0.26459 -0.67708,-0.26459 -0.384,0 -0.60629,0.11453 -0.51355,0.26459 0.0899,0.14552 0.39462,0.26458 0.67707,0.26458 0.28246,0 0.51356,-0.11906 0.51356,-0.26458 z m 6.54373,-3.24115 c -0.0557,-0.61846 -0.10129,-0.11245 -0.10129,1.12448 0,1.23693 0.0456,1.74294 0.10129,1.12448 0.0557,-0.61846 0.0557,-1.6305 0,-2.24896 z m -26.38749,2.71198 c 0,-0.14552 -0.11906,-0.26458 -0.26458,-0.26458 -0.14552,0 -0.26458,0.11906 -0.26458,0.26458 0,0.14552 0.11906,0.26458 0.26458,0.26458 0.14552,0 0.26458,-0.11906 0.26458,-0.26458 z m 3.61004,-0.39706 c 0.0272,-0.47051 -0.0969,-0.66127 -0.42995,-0.66127 -0.32292,0 -0.46811,0.20515 -0.46811,0.66145 0,0.90671 0.84574,0.90653 0.89806,-1.8e-4 z m 1.21861,0.48641 c -0.1819,-0.0734 -0.47956,-0.0734 -0.66146,0 -0.1819,0.0734 -0.0331,0.13346 0.33073,0.13346 0.3638,0 0.51263,-0.0601 0.33073,-0.13346 z m 4.0349,-0.0894 c 0.0899,-0.14552 0.0374,-0.26458 -0.11668,-0.26458 -0.15411,0 -0.2802,0.11906 -0.2802,0.26458 0,0.14552 0.0525,0.26458 0.11668,0.26458 0.0642,0 0.19026,-0.11906 0.2802,-0.26458 z m 11.24479,-0.26458 c 0,-0.14552 -0.29766,-0.26459 -0.66146,-0.26459 -0.3638,0 -0.66146,0.11907 -0.66146,0.26459 0,0.14552 0.29766,0.26458 0.66146,0.26458 0.3638,0 0.66146,-0.11906 0.66146,-0.26458 z m -20.10834,-0.52917 c 0,-0.14552 -0.0525,-0.26458 -0.11667,-0.26458 -0.0642,0 -0.19026,0.11906 -0.2802,0.26458 -0.0899,0.14552 -0.0374,0.26458 0.11668,0.26458 0.15411,0 0.28019,-0.11906 0.28019,-0.26458 z m 5.02709,0 c 0,-0.14552 -0.17157,-0.26458 -0.38126,-0.26458 -0.2097,0 -0.45485,0.11906 -0.54478,0.26458 -0.0899,0.14552 0.0816,0.26458 0.38126,0.26458 0.29963,0 0.54478,-0.11906 0.54478,-0.26458 z m -3.32287,-0.38846 c -0.50391,-0.38114 -0.50306,-0.38862 0.045,-0.39688 0.45179,-0.007 0.53444,-0.13491 0.43218,-0.66987 -0.0816,-0.42666 -0.30333,-0.66146 -0.62477,-0.66146 -0.62856,0 -0.6624,0.52323 -0.0353,0.54594 0.35476,0.0128 0.32382,0.0727 -0.13229,0.25606 -0.65401,0.26288 -0.66725,0.29017 -0.43472,0.89616 0.0883,0.23018 0.40875,0.41851 0.71203,0.41851 0.54167,0 0.54234,-0.007 0.0378,-0.38846 z m 18.40412,0.12388 c 0,-0.14552 -0.2311,-0.26459 -0.51355,-0.26459 -0.28246,0 -0.58714,0.11907 -0.67708,0.26459 -0.0927,0.15006 0.12955,0.26458 0.51356,0.26458 0.37239,0 0.67707,-0.11906 0.67707,-0.26458 z m -20.10834,-0.52917 c 0,-0.14552 -0.0525,-0.26458 -0.11667,-0.26458 -0.0642,0 -0.19026,0.11906 -0.2802,0.26458 -0.0899,0.14552 -0.0374,0.26458 0.11668,0.26458 0.15411,0 0.28019,-0.11906 0.28019,-0.26458 z m 3.70417,0.0309 c 0,-0.12855 -0.23812,-0.296 -0.52917,-0.37211 -0.34392,-0.0899 -0.52916,-0.008 -0.52916,0.23373 0,0.20466 0.23812,0.3721 0.52916,0.3721 0.29105,0 0.52917,-0.10517 0.52917,-0.23372 z m 1.32292,-0.16315 c 0,-0.21828 -0.16586,-0.39688 -0.36857,-0.39688 -0.20271,0 -0.4371,0.1786 -0.52086,0.39688 -0.10359,0.26995 0.0143,0.39687 0.36857,0.39687 0.2866,0 0.52086,-0.1785 0.52086,-0.39687 z m 3.96875,0.13229 c 0,-0.14552 -0.11906,-0.26458 -0.26458,-0.26458 -0.14552,0 -0.26459,0.11906 -0.26459,0.26458 0,0.14552 0.11907,0.26458 0.26459,0.26458 0.14552,0 0.26458,-0.11906 0.26458,-0.26458 z m 20.28907,-0.31419 c -0.0845,-0.21107 -0.14715,-0.14838 -0.15985,0.15985 -0.0115,0.27891 0.0511,0.43518 0.13897,0.34726 0.0879,-0.0879 0.0973,-0.31612 0.0209,-0.50711 z m -9.17657,0.0496 c 0,-0.14552 -0.29766,-0.26459 -0.66146,-0.26459 -0.3638,0 -0.66146,0.11907 -0.66146,0.26459 0,0.14552 0.29766,0.26458 0.66146,0.26458 0.3638,0 0.66146,-0.11906 0.66146,-0.26458 z m -16.40417,-0.50058 c 0,-0.3246 -0.74541,-0.58517 -0.91037,-0.31824 -0.0735,0.11887 -0.0574,0.29226 0.0356,0.38532 0.25215,0.25215 0.87475,0.2044 0.87475,-0.0671 z m 16.40417,-0.29289 c 0,-0.14552 -0.2311,-0.26459 -0.51355,-0.26459 -0.28246,0 -0.58714,0.11907 -0.67708,0.26459 -0.0927,0.15006 0.12955,0.26458 0.51356,0.26458 0.37239,0 0.67707,-0.11906 0.67707,-0.26458 z m -18.76308,-1.21755 c 0.17471,-0.21051 0.25616,-0.44423 0.181,-0.51939 -0.18108,-0.18108 -2.05542,0.93157 -2.05542,1.22014 0,0.31765 1.49221,-0.24021 1.87442,-0.70075 z m 3.15266,0.0593 c 0,-0.70475 -0.62395,-1.35919 -1.04674,-1.0979 -0.3063,0.18931 -0.37612,1.27424 -0.0998,1.55057 0.097,0.097 0.39467,0.17639 0.66146,0.17639 0.33435,0 0.48507,-0.19545 0.48507,-0.62906 z m 8.59266,0.20069 c 0.54365,-0.54365 0.34733,-0.7603 -0.35052,-0.38682 -0.29394,0.15731 -0.89945,0.28602 -1.34558,0.28602 -0.44613,0 -0.81114,0.11907 -0.81114,0.26459 0,0.4379 2.03873,0.30472 2.50724,-0.16379 z m 0.8485,-0.15041 c -0.0845,-0.21106 -0.14716,-0.14837 -0.15985,0.15986 -0.0115,0.27891 0.051,0.43518 0.13896,0.34726 0.0879,-0.0879 0.0973,-0.31612 0.0209,-0.50712 z m 0.87759,0.1819 c 0,-0.21828 -0.0468,-0.39687 -0.10398,-0.39687 -0.0572,0 -0.17252,0.17859 -0.25628,0.39687 -0.0838,0.21829 -0.037,0.39688 0.10398,0.39688 0.14096,0 0.25628,-0.17859 0.25628,-0.39688 z m 1.85209,-0.13229 c 0,-0.29398 -0.17639,-0.52916 -0.39688,-0.52916 -0.22048,0 -0.39687,0.23518 -0.39687,0.52916 0,0.29398 0.17639,0.52917 0.39687,0.52917 0.22049,0 0.39688,-0.23519 0.39688,-0.52917 z m 0.88943,0.13229 c -0.0838,-0.21828 -0.25862,-0.39687 -0.38857,-0.39687 -0.12996,0 -0.23628,0.17859 -0.23628,0.39687 0,0.21829 0.17486,0.39688 0.38857,0.39688 0.23669,0 0.32905,-0.15512 0.23628,-0.39688 z m 2.55015,0 c 0,-0.42702 -0.24233,-0.49033 -0.9044,-0.23627 -0.64413,0.24717 -0.49603,0.63315 0.24294,0.63315 0.41158,0 0.66146,-0.14993 0.66146,-0.39688 z m -17.33021,-0.52914 c 0,-0.79592 -0.49411,-0.72598 -0.61371,0.0869 -0.0504,0.34215 0.0567,0.57459 0.26458,0.57459 0.19602,0 0.34913,-0.29009 0.34913,-0.66146 z m 7.27604,0.39687 c -0.21828,-0.14106 -0.51593,-0.25648 -0.66146,-0.25648 -0.14552,0 -0.086,0.11542 0.1323,0.25648 0.21828,0.14107 0.51593,0.25648 0.66145,0.25648 0.14553,0 0.086,-0.11541 -0.13229,-0.25648 z m -9.9169,-1.27384 c -0.0993,-0.0993 -0.34939,0.0504 -0.55577,0.33264 -0.57711,0.78925 -0.44461,1.11544 0.18053,0.44443 0.30567,-0.3281 0.47453,-0.67778 0.37524,-0.77707 z m 10.74682,0.53625 c -0.19088,-0.0636 -0.47285,0.0101 -0.6266,0.16386 -0.19634,0.19634 -0.093,0.23077 0.34706,0.11568 0.35777,-0.0936 0.4777,-0.21349 0.27954,-0.27954 z m 8.82737,0.20843 0.52917,-0.22739 -0.52917,-0.0354 c -0.46125,-0.0308 -0.44508,-0.0689 0.12593,-0.29677 0.49025,-0.19562 0.5661,-0.3164 0.30144,-0.47996 -0.60584,-0.37443 -1.28726,-0.0225 -1.28726,0.66482 0,0.69138 0.061,0.71796 0.85989,0.37467 z m 10.58334,-0.52917 c 0.0899,-0.14552 -0.0221,-0.26458 -0.24897,-0.26458 -0.22687,0 -0.41249,0.11906 -0.41249,0.26458 0,0.14552 0.11203,0.26458 0.24897,0.26458 0.13693,0 0.32255,-0.11906 0.41249,-0.26458 z m -27.53389,-0.7872 c 0.37327,-0.14192 0.67868,-0.3771 0.67868,-0.52262 0,-0.17469 -0.2306,-0.17691 -0.67868,-0.007 -1.025,0.3897 -1.73565,0.31511 -2.89712,-0.30409 l -1.05441,-0.56213 0.52917,0.59336 c 0.90117,1.01048 2.12173,1.29652 3.42236,0.80203 z m 19.58894,-0.75754 c -0.57286,-0.11905 -0.70409,0.048 -0.48539,0.61795 0.17163,0.44727 0.20023,0.4458 0.54865,-0.0283 0.31967,-0.43496 0.31143,-0.51181 -0.0633,-0.58967 z m -2.46884,0.48641 c 0.14221,0 0.17675,-0.13238 0.0768,-0.29417 -0.1,-0.16179 -0.0177,-0.39809 0.18282,-0.52511 0.25773,-0.16325 0.13193,-0.23987 -0.42913,-0.26138 -0.71065,-0.0272 -0.72979,-0.0484 -0.18282,-0.20249 0.5196,-0.14634 0.85193,-0.56894 0.44741,-0.56894 -0.0728,0 -0.31462,0 -0.53747,0 -0.63984,0 -0.80606,0.82134 -0.2487,1.22889 0.4374,0.31983 0.44205,0.35861 0.043,0.35861 -0.2461,0 -0.44745,0.1318 -0.44745,0.29289 0,0.16109 0.18833,0.22062 0.41852,0.1323 0.23018,-0.0883 0.53486,-0.1606 0.67707,-0.1606 z m 5.93066,-1.20483 c -0.14915,-0.79506 -0.27118,-0.91184 -0.95282,-0.91184 -0.98672,0 -1.03578,0.51533 -0.0542,0.56881 l 0.72761,0.0396 -0.72761,0.11023 c -1.00643,0.15246 -0.91471,0.5964 0.1323,0.64027 0.70384,0.0295 0.73985,0.0558 0.19843,0.14526 -1.31126,0.21655 -1.46252,0.44311 -0.39687,0.59445 1.212,0.17212 1.30812,0.0658 1.07312,-1.18682 z m 0.74762,1.05879 c 0.0904,-0.23546 0.046,-0.34166 -0.10398,-0.24897 -0.14385,0.0889 -0.26155,0.27369 -0.26155,0.41062 0,0.38059 0.18964,0.29672 0.36553,-0.16165 z m 3.60322,-0.11855 c 0,-0.29104 -0.11907,-0.52916 -0.26459,-0.52916 -0.14552,0 -0.26458,0.23812 -0.26458,0.52916 0,0.29104 0.11906,0.52917 0.26458,0.52917 0.14552,0 0.26459,-0.23813 0.26459,-0.52917 z m -25.61625,-1.18303 c -0.4952,-1.09255 -0.55768,-1.08302 -0.38382,0.0585 0.072,0.47295 0.28152,0.8599 0.46554,0.8599 0.25403,0 0.23435,-0.22113 -0.0817,-0.91845 z m -3.85763,0.25705 c -0.2761,-0.20899 -0.63209,-0.29958 -0.79108,-0.20132 -0.16688,0.10313 -0.0106,0.25618 0.36971,0.36203 0.95408,0.26555 0.97431,0.25783 0.42137,-0.16071 z m 2.22179,0.18928 c 0,-0.11415 -0.35316,-0.41615 -0.78479,-0.67113 -0.43164,-0.25497 -1.35016,-1.22744 -2.04115,-2.16103 -0.691,-0.9336 -1.31152,-1.64229 -1.37893,-1.57488 -0.16417,0.16418 0.95832,2.16935 1.76862,3.15937 0.91641,1.11968 2.43625,1.89803 2.43625,1.24767 z m 26.36898,-0.65236 c -0.0734,-0.1819 -0.13345,-0.0331 -0.13345,0.33073 0,0.3638 0.06,0.51263 0.13345,0.33073 0.0734,-0.1819 0.0734,-0.47956 0,-0.66146 z m 0.88311,0.33073 c 0,-0.14552 -0.12609,-0.26458 -0.2802,-0.26458 -0.15411,0 -0.20662,0.11906 -0.11668,0.26458 0.0899,0.14552 0.21603,0.26458 0.2802,0.26458 0.0642,0 0.11668,-0.11906 0.11668,-0.26458 z m -17.27161,-1.67498 c 0.61432,-0.38686 1.30199,-1.06123 1.52815,-1.49858 0.22617,-0.43735 0.56294,-0.79519 0.74838,-0.79519 0.47532,0 0.97216,0.55345 0.97216,1.08294 0,0.24637 0.18614,0.51937 0.41364,0.60668 0.22751,0.0873 0.34456,0.27052 0.26011,0.40716 -0.0901,0.14579 -0.45233,0.0926 -0.87667,-0.12879 -1.09695,-0.57225 -1.63779,-0.45224 -0.65698,0.14578 0.47295,0.28836 0.8599,0.70463 0.8599,0.92505 0,0.22042 0.17859,0.40076 0.39687,0.40076 0.21829,0 0.39688,-0.16014 0.39688,-0.35586 0,-0.38098 1.0219,-1.42266 1.2517,-1.27594 0.0758,0.0484 0.35378,-0.24123 0.61773,-0.6436 0.26396,-0.40238 0.68654,-0.76192 0.93908,-0.79898 0.25253,-0.0371 0.56328,-0.25346 0.69055,-0.48088 0.30705,-0.54867 0.98941,-0.52486 1.41955,0.0495 0.31773,0.42428 0.33475,0.41535 0.20342,-0.10678 -0.1053,-0.41865 0.003,-0.6164 0.41003,-0.74543 0.75482,-0.23957 0.69512,-0.57619 -0.13932,-0.78563 -0.84822,-0.21288 -1.07972,-0.0282 -0.63555,0.50697 0.27647,0.33312 0.26002,0.40327 -0.0946,0.40327 -0.23609,0 -0.42927,-0.13945 -0.42927,-0.3099 0,-1.09855 -2.43389,-1.7737 -3.175,-0.88073 -0.40981,0.4938 0.0414,0.54073 0.77774,0.0809 0.39272,-0.24525 0.66307,-0.2444 1.20782,0.004 1.0422,0.47486 0.69208,0.97512 -0.61634,0.88065 -0.60755,-0.0439 -1.10463,0.0245 -1.10463,0.15193 0,0.12743 0.44648,0.18179 0.99218,0.1208 l 0.99219,-0.11089 -0.63716,0.68864 c -0.35044,0.37875 -0.8488,0.7558 -1.10747,0.8379 -0.25867,0.0821 -0.52077,0.35204 -0.58243,0.59986 -0.0617,0.24783 -0.0946,-0.23257 -0.0731,-1.06754 0.0371,-1.44713 -0.18063,-1.73435 -0.45383,-0.59854 -0.0997,0.41458 -0.13393,0.37774 -0.15798,-0.17013 -0.0169,-0.38461 -0.21683,-0.77072 -0.44433,-0.85802 -0.22751,-0.0873 -0.33834,-0.28058 -0.2463,-0.4295 0.092,-0.14892 0.27818,-0.20227 0.41364,-0.11855 0.13547,0.0837 0.2463,0.0261 0.2463,-0.12797 0,-0.15411 -0.17859,-0.2802 -0.39687,-0.2802 -0.21828,0 -0.39688,0.10994 -0.39688,0.2443 0,0.43087 -1.65124,-0.56318 -1.78496,-1.07455 -0.13776,-0.5268 -0.47094,-0.64495 -0.71323,-0.25292 -0.0815,0.13186 -0.35641,0.18569 -0.61092,0.11962 -0.25452,-0.0661 -0.67489,0.0356 -0.93416,0.22585 -0.41098,0.30164 -0.32622,0.3361 0.66146,0.26895 1.15748,-0.0787 2.26464,0.37258 1.5861,0.64649 -0.61125,0.24675 -1.91406,1.45379 -2.19497,2.03361 -0.23825,0.49177 -0.19369,0.47895 0.3367,-0.0969 1.19059,-1.2926 2.26917,-1.90164 2.83315,-1.59981 0.61634,0.32986 1.35832,1.72691 1.32911,2.50254 -0.0144,0.38364 -0.0659,0.43229 -0.16682,0.15779 -0.25593,-0.69604 -0.93709,-1.32292 -1.43748,-1.32292 -0.27703,0 -0.76812,0.44874 -1.14575,1.04696 -0.71355,1.13032 -1.37923,1.60408 -1.96224,1.39651 -0.23458,-0.0835 -0.29679,-0.0163 -0.17195,0.18565 0.2431,0.39334 -0.64446,1.10956 -1.15157,0.92925 -0.30922,-0.10994 -0.31145,-0.0626 -0.0139,0.29593 0.30354,0.36574 0.39408,0.37281 0.63273,0.0494 0.15318,-0.20757 0.78113,-0.69392 1.39545,-1.08079 z m 1.85411,1.25054 c -0.0879,-0.0879 -0.31612,-0.0973 -0.50711,-0.0209 -0.21107,0.0845 -0.14838,0.14716 0.15985,0.15986 0.27891,0.0115 0.43518,-0.0511 0.34726,-0.13897 z m 8.80291,-0.10473 c 0,-0.14552 -0.20836,-0.26837 -0.46302,-0.27299 -0.25466,-0.005 -0.69413,-0.18323 -0.97661,-0.39688 -0.70595,-0.53396 -0.86011,-0.49214 -1.00637,0.273 -0.12085,0.63218 -0.0695,0.66146 1.15978,0.66146 0.70742,0 1.28622,-0.11907 1.28622,-0.26459 z M 149.531,174.6554 c 0.11953,0.0739 0.15813,-0.092 0.0858,-0.36862 -0.19251,-0.73617 -1.38579,-1.76925 -2.59725,-2.24855 l -1.05833,-0.41872 1.32291,1.18242 c 0.72761,0.65033 1.41222,1.18487 1.52136,1.18786 0.10914,0.003 0.19843,0.13153 0.19843,0.28564 0,0.15411 -0.14882,0.19078 -0.33073,0.0815 -0.19924,-0.1197 -0.17679,-0.009 0.0565,0.27798 0.23371,0.28771 0.42622,0.35964 0.48562,0.18143 0.0541,-0.16238 0.19621,-0.2348 0.31573,-0.16094 z m 6.91808,-0.10823 c 0.34355,-0.27851 0.53172,-0.59962 0.41817,-0.71357 -0.11355,-0.11395 -0.52756,0.11392 -0.92003,0.50639 -0.81501,0.81501 -0.43923,0.97014 0.50186,0.20718 z m 4.1965,-0.0228 c 0.3638,-0.28457 0.53085,-0.52005 0.37122,-0.52329 -0.15964,-0.003 -0.56481,0.23224 -0.90038,0.52329 -0.7852,0.68099 -0.34144,0.68099 0.52916,0 z m -10.34033,-2.4474 c -0.0212,-2.66681 -0.0283,-2.69656 -0.42511,-1.78594 -0.38813,0.89071 -0.34852,2.9676 0.0778,4.07853 0.30812,0.80296 0.36877,0.40264 0.34732,-2.29259 z m 16.41809,2.45773 c 0.21406,-0.13538 0.32793,-0.30743 0.25303,-0.38233 -0.20501,-0.205 -1.3037,0.13451 -1.3037,0.40285 0,0.30348 0.5555,0.29263 1.05067,-0.0205 z m 9.7618,-1.37973 c -0.25132,-0.86869 -0.3546,-1.00411 -0.42898,-0.56248 -0.0539,0.31991 0.0328,0.82593 0.19253,1.12448 0.15978,0.29855 0.22985,0.54281 0.1557,0.54281 -0.26868,0 -0.95957,-1.60983 -0.801,-1.86641 0.20605,-0.33338 -0.47484,-0.20594 -0.71941,0.13466 -0.25313,0.35253 0.55502,1.63965 1.21861,1.94083 0.7142,0.32416 0.78555,0.0791 0.38255,-1.31389 z m -24.73068,-1.20412 c 0.009,-1.61621 -0.10036,-2.22522 -0.50977,-2.84357 l -0.52098,-0.78688 -0.0866,0.90182 c -0.0476,0.49599 0.0554,1.90197 0.22894,3.12439 0.39431,2.77778 0.87222,2.56488 0.88836,-0.39576 z m 20.53279,2.30893 c 0,-0.14552 -0.12609,-0.26458 -0.2802,-0.26458 -0.15411,0 -0.20661,0.11906 -0.11668,0.26458 0.0899,0.14552 0.21603,0.26459 0.2802,0.26459 0.0642,0 0.11668,-0.11907 0.11668,-0.26459 z m 2.50377,-0.37466 c -0.23037,-0.35158 -0.60714,-0.71149 -0.83728,-0.7998 -0.33449,-0.12836 -0.35649,-0.0859 -0.10966,0.21147 0.2428,0.29256 0.20841,0.41656 -0.16102,0.58049 -0.37478,0.16631 -0.28253,0.24576 0.45627,0.39294 0.50933,0.10147 0.95855,0.20016 0.99829,0.21932 0.0397,0.0191 -0.11623,-0.25283 -0.3466,-0.60442 z m -18.8284,-0.69467 c 0.11775,-0.45028 0.0761,-0.49256 -0.23264,-0.23631 -0.20684,0.17166 -0.37606,0.48315 -0.37606,0.6922 0,0.53223 0.43562,0.20597 0.6087,-0.45589 z m 11.03296,0.24474 c 0,-0.12856 -0.29765,-0.23374 -0.66146,-0.23374 -0.38162,0 -0.66145,0.15238 -0.66145,0.36018 0,0.24153 0.2179,0.31853 0.66145,0.23374 0.36381,-0.0695 0.66146,-0.23163 0.66146,-0.36018 z m 3.30729,0.36971 c -0.29104,-0.0709 -0.70776,-0.27712 -0.92604,-0.45826 -0.21828,-0.18114 -0.61278,-0.40613 -0.87666,-0.49998 -0.26389,-0.0939 -0.40569,-0.29054 -0.31512,-0.43709 0.0906,-0.14655 0.0316,-0.26645 -0.13113,-0.26645 -0.1627,0 -0.21179,-0.14883 -0.10909,-0.33073 0.1379,-0.24426 0.10408,-0.25478 -0.12935,-0.0403 -0.24198,0.22239 -0.244,0.44864 -0.009,0.96522 0.36645,0.80428 1.14601,1.22672 2.23144,1.20924 0.53691,-0.009 0.62252,-0.0545 0.26459,-0.1417 z m 0.86966,-1.26491 c -0.82389,-1.16887 -1.33733,-1.45365 -1.66498,-0.92349 -0.19727,0.31918 0.78806,1.64255 1.41248,1.89708 0.98742,0.40251 1.05064,0.15874 0.2525,-0.97359 z m -11.98216,0.39688 c 0.43657,-0.11109 0.62168,-0.21607 0.41136,-0.23328 -0.21032,-0.0172 -0.74424,-0.35873 -1.18649,-0.75891 -0.44225,-0.40018 -0.5976,-0.48011 -0.34521,-0.17761 0.64624,0.77455 0.57221,1.11748 -0.26872,1.24487 -0.66997,0.10149 -0.67521,0.11088 -0.0661,0.11856 0.3638,0.005 1.01864,-0.0825 1.4552,-0.19363 z m 13.81897,0.10473 c -0.0879,-0.0879 -0.31612,-0.0973 -0.50712,-0.0209 -0.21106,0.0845 -0.14837,0.14716 0.15986,0.15985 0.27891,0.0115 0.43518,-0.051 0.34726,-0.13896 z m 1.52687,-0.6339 c 0.0899,-0.14552 -0.0221,-0.26458 -0.24897,-0.26458 -0.22687,0 -0.41249,0.11906 -0.41249,0.26458 0,0.14552 0.11203,0.26458 0.24897,0.26458 0.13693,0 0.32255,-0.11906 0.41249,-0.26458 z m -25.5323,-0.26458 c 0,-0.14552 -0.12608,-0.26459 -0.28019,-0.26459 -0.15411,0 -0.20662,0.11907 -0.11668,0.26459 0.0899,0.14552 0.21603,0.26458 0.2802,0.26458 0.0642,0 0.11667,-0.11906 0.11667,-0.26458 z M 173,171.97256 c 0.10201,-0.26583 -0.0224,-0.5736 -0.31972,-0.79101 -0.56387,-0.41231 -0.90503,-0.23835 -0.44154,0.22514 0.70574,0.70574 0.25165,0.77656 -0.48066,0.075 -0.43656,-0.41826 -0.79375,-0.89402 -0.79375,-1.05727 0,-0.16324 -0.1748,-0.52792 -0.38846,-0.81039 -0.37103,-0.49054 -0.38884,-0.47975 -0.39687,0.24047 -0.006,0.51194 0.28043,1.04291 0.89117,1.65365 0.97963,0.97963 1.66852,1.14542 1.92983,0.46444 z m -16.8383,-0.2094 c -0.17343,-0.20898 -0.4159,-0.715 -0.53882,-1.12448 l -0.22348,-0.74452 -0.0227,0.70596 c -0.0315,0.97701 0.22508,1.543 0.69942,1.543 0.31848,0 0.33609,-0.0782 0.0856,-0.37996 z m 20.12071,-1.00578 c -0.37586,-0.9886 -1.76183,-2.47049 -2.65758,-2.84152 -1.03514,-0.42877 -1.7081,-0.18735 -0.74227,0.26629 0.40018,0.18795 0.72761,0.50122 0.72761,0.69614 0,0.19493 0.127,0.35441 0.28223,0.35441 0.30926,0 2.16298,1.34715 2.03282,1.4773 -0.0443,0.0443 -0.89534,-0.32946 -1.89114,-0.83064 -2.34304,-1.17925 -3.07524,-1.19373 -2.20985,-0.0437 0.34765,0.46199 4.50985,2.03851 4.6389,1.75708 0.0412,-0.0898 -0.0402,-0.46567 -0.18072,-0.83535 z m -27.98347,0.6796 c 0.19596,-0.19596 -0.56963,-1.14595 -0.92353,-1.14595 -0.26462,0 -0.30134,0.89238 -0.0472,1.14653 0.22696,0.22696 0.74348,0.22666 0.97071,-5.8e-4 z m 8.9604,-0.16482 c 0.056,-0.80559 -0.38748,-2.82145 -0.59284,-2.69453 -0.28903,0.17863 -0.34986,2.58793 -0.0724,2.86544 0.21678,0.21678 0.64589,0.10653 0.66519,-0.17091 z m 1.4359,-0.57754 c 0.16247,-0.42339 -0.84985,-2.25567 -1.24624,-2.25567 -0.32248,0 -0.31073,0.0742 0.15224,0.96194 0.21739,0.41682 0.39598,0.96621 0.39688,1.22087 0.002,0.56287 0.48954,0.61382 0.69712,0.0729 z m -12.14408,-0.32138 c 0.0516,-0.15488 -0.0898,-0.35206 -0.31419,-0.43818 -0.28598,-0.10974 -0.40806,0.006 -0.40806,0.38633 0,0.54434 0.54505,0.58347 0.72225,0.0519 z m 2.62848,-0.23228 c 0.22052,-0.57467 -0.33931,-1.11509 -0.74002,-0.71438 -0.33868,0.33868 -0.12887,1.12904 0.29971,1.12904 0.15466,0 0.3528,-0.1866 0.44031,-0.41466 z m -1.21983,-1.06715 c 0.32945,-0.61558 0.31638,-0.72597 -0.12413,-1.04808 -0.96484,-0.70551 -2.00828,0.57046 -1.1601,1.41864 0.49237,0.49236 0.88269,0.37974 1.28423,-0.37056 z m 8.01895,0.29118 c -0.0838,-0.21828 -0.27319,-0.39687 -0.42096,-0.39687 -0.15487,0 -0.12915,0.16811 0.0607,0.39687 0.18116,0.21828 0.37059,0.39688 0.42097,0.39688 0.0504,0 0.0231,-0.1786 -0.0607,-0.39688 z m -6.87917,-0.79375 c -0.0838,-0.21828 -0.19908,-0.39687 -0.25627,-0.39687 -0.0572,0 -0.10399,0.17859 -0.10399,0.39687 0,0.21828 0.11533,0.39688 0.25628,0.39688 0.14095,0 0.18775,-0.1786 0.10398,-0.39688 z m 16.04391,0.13229 c 0,-0.14552 -0.11906,-0.26458 -0.26458,-0.26458 -0.14552,0 -0.26459,0.11906 -0.26459,0.26458 0,0.14552 0.11907,0.26459 0.26459,0.26459 0.14552,0 0.26458,-0.11907 0.26458,-0.26459 z m 11.64167,-0.55326 c 0,-0.12313 -0.1786,-0.15535 -0.39688,-0.0716 -0.21828,0.0838 -0.39687,0.33273 -0.39687,0.55326 0,0.32641 0.0738,0.33972 0.39687,0.0716 0.21828,-0.18115 0.39688,-0.43012 0.39688,-0.55326 z m -13.17625,0.23576 c -0.24695,-0.24694 -0.38806,-0.24694 -0.635,0 -0.24695,0.24695 -0.17639,0.3175 0.3175,0.3175 0.49389,0 0.56444,-0.0705 0.3175,-0.3175 z m 8.94291,0.19201 c 0,-0.069 -0.37012,-0.3169 -0.8225,-0.55083 l -0.82249,-0.42533 0.6902,-0.72042 c 0.37962,-0.39623 0.69021,-0.859 0.69021,-1.02837 0,-0.16937 0.17759,-0.2398 0.39464,-0.15651 0.22421,0.086 0.46409,-0.0295 0.55544,-0.26758 0.19703,-0.51344 3.16588,-2.57548 3.38812,-2.35324 0.0878,0.0879 0.15972,0.007 0.15972,-0.179 0,-0.25415 -0.3138,-0.29168 -1.25677,-0.15028 -1.44104,0.21608 -2.18282,0.55136 -2.18282,0.98664 0,0.16645 -0.44648,0.71551 -0.99218,1.22015 -0.63918,0.59107 -0.87059,0.95992 -0.65042,1.0367 0.26253,0.0916 0.27035,0.20524 0.0337,0.49033 -0.49014,0.59059 -0.89648,0.43602 -1.23896,-0.4713 -0.17489,-0.46335 -0.40141,-0.75902 -0.50338,-0.65705 -0.10197,0.10197 -0.0445,0.32629 0.12769,0.49849 0.48193,0.48193 0.37168,1.36629 -0.21608,1.73336 -0.81782,0.51073 -0.63053,0.74651 0.50681,0.63805 0.56979,-0.0543 1.2544,0.0282 1.52135,0.1834 0.56227,0.32689 0.61767,0.34239 0.61767,0.17279 z m -22.52436,-0.9763 c -0.18822,-0.33988 -0.31693,-0.70727 -0.28602,-0.81641 0.0309,-0.10914 -0.0628,-0.19843 -0.20837,-0.19843 -0.14552,0 -0.26458,-0.16586 -0.26458,-0.36857 0,-0.20271 -0.19362,-0.44287 -0.43026,-0.53367 -0.3878,-0.14882 -0.39168,-0.10593 -0.0392,0.43471 0.21506,0.3299 0.59605,0.99784 0.84664,1.4843 0.25059,0.48647 0.51602,0.82409 0.58984,0.75027 0.0738,-0.0738 -0.0198,-0.41231 -0.20801,-0.7522 z m 1.83912,-0.0227 c -0.0465,-0.32742 -0.20361,-0.59531 -0.34913,-0.59531 -0.14552,0 -0.30263,0.26789 -0.34913,0.59531 -0.0582,0.40962 0.0507,0.59532 0.34913,0.59532 0.2984,0 0.4073,-0.1857 0.34913,-0.59532 z m 4.20942,0.43546 c -0.0879,-0.0879 -0.31612,-0.0973 -0.50712,-0.0209 -0.21107,0.0845 -0.14837,0.14715 0.15985,0.15985 0.27892,0.0115 0.43519,-0.051 0.34727,-0.13897 z m -6.80751,-0.37586 c 0,-0.14912 -0.32339,-0.39408 -0.71864,-0.54436 -0.58163,-0.22113 -0.64469,-0.32179 -0.33073,-0.52799 0.32895,-0.21605 0.3044,-0.32513 -0.16155,-0.71769 -0.3022,-0.25461 -0.50948,-0.58283 -0.46064,-0.72937 0.0489,-0.14655 -0.2646,-0.67995 -0.69656,-1.18535 l -0.78538,-0.9189 -0.007,1.45521 c -0.009,1.88005 0.44233,2.80426 1.31884,2.70154 0.35942,-0.0421 0.89103,0.10292 1.18135,0.32232 0.638,0.48212 0.66016,0.48697 0.66016,0.14459 z m 27.06739,-0.28822 c 0.1479,-0.23488 0.18562,-0.64409 0.0838,-0.90935 -0.1702,-0.44355 -0.23997,-0.4274 -0.86847,0.20111 -0.69824,0.69823 -0.64042,1.36314 0.10575,1.2161 0.22549,-0.0444 0.531,-0.27297 0.67889,-0.50786 z m -29.84552,0.0302 c -0.0899,-0.14552 -0.27555,-0.26459 -0.41249,-0.26459 -0.13693,0 -0.24897,0.11907 -0.24897,0.26459 0,0.14552 0.18563,0.26458 0.41249,0.26458 0.22687,0 0.33891,-0.11906 0.24897,-0.26458 z m 3.39138,-2.70155 c -0.83791,-0.88066 -1.39849,-1.22582 -2.50732,-1.54383 -0.89668,-0.25716 -0.78454,0.0606 0.36181,1.02517 0.40696,0.34243 0.66099,0.76058 0.56451,0.92922 -0.0965,0.16864 -0.078,0.21835 0.0411,0.11047 0.11908,-0.10788 0.38537,-0.056 0.59175,0.11528 0.29205,0.24238 0.42852,0.22721 0.6156,-0.0684 0.17802,-0.28134 0.24142,-0.19021 0.24442,0.35133 0.002,0.40216 0.15288,0.97201 0.33478,1.26635 0.30553,0.49438 0.33714,0.46135 0.41481,-0.43341 0.0667,-0.76813 -0.0702,-1.13072 -0.66146,-1.75214 z m 24.39857,2.05351 c 1.26999,-0.53064 2.24026,-1.64732 2.24026,-2.57831 v -0.76782 l -1.12448,0.78204 c -0.61846,0.43013 -1.59512,1.26929 -2.17036,1.8648 -0.95159,0.98513 -0.99257,1.08274 -0.45452,1.08274 0.32525,0 1.00434,-0.17255 1.5091,-0.38345 z m -4.48447,-0.60873 c -0.0921,-0.40019 -0.65854,-1.17622 -1.25867,-1.72453 -0.60014,-0.54831 -1.04102,-1.04706 -0.97973,-1.10834 0.1756,-0.17561 2.82578,1.67708 3.23527,2.26171 0.36466,0.52062 0.37056,0.52001 0.52066,-0.054 0.2961,-1.1323 -2.19442,-2.87298 -4.11936,-2.87912 -0.90014,-0.003 -0.2849,1.9146 1.08193,3.37196 1.0301,1.09834 1.75688,1.1616 1.5199,0.1323 z m -17.48464,-0.65819 c 0.48513,-0.10985 0.49036,-0.13669 0.0628,-0.32266 -0.48158,-0.20944 -1.2534,0.23079 -1.2534,0.71491 0,0.1743 0.11286,0.17296 0.33072,-0.004 0.18191,-0.14768 0.56886,-0.32242 0.8599,-0.38832 z m 5.74353,-0.91687 c 1.13061,-1.10401 1.23391,-1.40151 0.48663,-1.40151 -0.76111,0 -1.87247,0.56686 -1.69005,0.86202 0.24212,0.39177 -0.49064,0.72262 -1.20394,0.54359 -0.44101,-0.11068 -0.57933,-0.0666 -0.4496,0.14331 0.10305,0.16674 0.3887,0.31884 0.63477,0.338 0.24608,0.0191 0.0307,0.12254 -0.47863,0.22975 -0.88559,0.18641 -0.86874,0.19644 0.38572,0.22975 1.17763,0.0313 1.41435,-0.0653 2.3151,-0.94491 z m 5.09511,0.30851 0.78447,-0.51939 -0.91677,-0.14536 c -1.13332,-0.1797 -1.65053,-0.0278 -1.4738,0.43272 0.1049,0.27335 -0.013,0.29514 -0.53118,0.0982 -1.46167,-0.55573 -3.44077,-0.0865 -2.45141,0.58119 0.63304,0.42721 3.72273,0.12603 4.58869,-0.44731 z m 0.73688,0.496 c -0.1819,-0.0734 -0.47956,-0.0734 -0.66146,0 -0.1819,0.0734 -0.0331,0.13346 0.33073,0.13346 0.3638,0 0.51263,-0.0601 0.33073,-0.13346 z m 2.15767,-0.40516 c -0.27721,-0.31921 -0.80168,-0.85123 -1.16548,-1.18226 -0.51124,-0.46518 -0.56366,-0.60377 -0.23084,-0.61024 0.23685,-0.005 0.57885,0.17024 0.76,0.38852 0.41518,0.50025 1.05834,0.51598 1.05834,0.0259 0,-0.40753 -1.30874,-0.95192 -2.28844,-0.95192 -0.80149,0 -0.78345,0.19551 0.10562,1.14482 0.50546,0.5397 0.62326,0.81451 0.38584,0.9001 -0.60569,0.21834 0.19934,0.86549 1.07663,0.86549 h 0.80236 z m -11.61653,0.0512 c 0.19341,-0.31295 -0.0655,-0.31295 -0.79375,0 -0.51018,0.21923 -0.50836,0.22805 0.0505,0.24598 0.31884,0.0102 0.65329,-0.10046 0.74322,-0.24598 z m -2.83104,-0.58209 c 0.55818,-0.55817 0.3737,-1.52032 -0.35517,-1.85242 -0.57053,-0.25994 -0.75288,-0.22629 -1.20081,0.22164 -0.52778,0.52778 -0.52776,0.52859 0.0304,1.23821 0.60885,0.77402 1.03456,0.88357 1.52556,0.39257 z m 15.13417,0.0529 c 0,-0.14552 -0.12609,-0.26458 -0.2802,-0.26458 -0.15411,0 -0.20661,0.11906 -0.11668,0.26458 0.0899,0.14552 0.21603,0.26458 0.2802,0.26458 0.0642,0 0.11668,-0.11906 0.11668,-0.26458 z m -12.79832,-0.70263 c 0.12773,-0.5089 0.0491,-0.79568 -0.28526,-1.04016 -0.70597,-0.51622 -1.20392,-0.1667 -1.20392,0.84506 0,0.77935 0.0866,0.89773 0.65642,0.89773 0.48977,0 0.70118,-0.17837 0.83276,-0.70263 z m 19.01213,-0.0441 c 0.17223,-0.44883 -0.55951,-1.18216 -1.02483,-1.02706 -0.53934,0.17978 -0.80173,0.92473 -0.46755,1.32739 0.39156,0.47181 1.26341,0.29635 1.49238,-0.30033 z m -17.69691,-0.8408 c 0.0779,0 0.0653,0.2407 -0.0281,0.53488 -0.16685,0.5257 -0.15011,0.52729 0.97436,0.0925 1.72459,-0.66683 1.79678,-0.89197 0.286,-0.89197 -1.10631,0 -1.43787,0.10998 -1.77271,0.58803 -0.22653,0.32343 -0.40711,0.71038 -0.40129,0.8599 0.006,0.14952 0.18823,-0.0556 0.40533,-0.45575 0.2171,-0.40018 0.45848,-0.7276 0.5364,-0.7276 z m 8.32073,0.8041 c -0.21133,-0.13201 -0.47922,-0.18132 -0.59531,-0.10957 -0.11609,0.0718 -0.21107,0.0188 -0.21107,-0.11765 0,-0.36558 -1.44102,-0.89854 -2.15499,-0.79701 -0.35273,0.0502 -0.65878,0.30303 -0.71341,0.58946 -0.0704,0.36921 0.0162,0.45871 0.32802,0.33904 0.23304,-0.0894 0.42439,-0.077 0.42522,0.0275 8.2e-4,0.10457 0.74496,0.2167 1.65364,0.24917 1.07346,0.0384 1.51756,-0.025 1.2679,-0.18098 z"
       id="path3263" />
  </g>
</svg>
