<?xml version="1.0" encoding="UTF-8" standalone="no"?>
<!-- Created with Inkscape (http://www.inkscape.org/) -->

<svg
   width="76.03286mm"
   height="92.066917mm"
   viewBox="0 0 76.03285 92.066901"
   version="1.1"
   id="svg5"
   inkscape:version="1.1 (c4e8f9ed74, 2021-05-24)"
   sodipodi:docname="ornament18.svg"
   xmlns:inkscape="http://www.inkscape.org/namespaces/inkscape"
   xmlns:sodipodi="http://sodipodi.sourceforge.net/DTD/sodipodi-0.dtd"
   xmlns="http://www.w3.org/2000/svg"
   xmlns:svg="http://www.w3.org/2000/svg">
  <sodipodi:namedview
     id="namedview7"
     pagecolor="#ffffff"
     bordercolor="#666666"
     borderopacity="1.0"
     inkscape:pageshadow="2"
     inkscape:pageopacity="0.0"
     inkscape:pagecheckerboard="0"
     inkscape:document-units="mm"
     showgrid="false"
     inkscape:zoom="0.94615212"
     inkscape:cx="-303.86234"
     inkscape:cy="218.25243"
     inkscape:window-width="2506"
     inkscape:window-height="1403"
     inkscape:window-x="1974"
     inkscape:window-y="0"
     inkscape:window-maximized="1"
     inkscape:current-layer="layer1" />
  <defs
     id="defs2" />
  <g
     inkscape:label="Layer 1"
     inkscape:groupmode="layer"
     id="layer1"
     transform="translate(5.5094821,-122.58046)">
    <path
       style="fill:#000000;stroke-width:0.264583"
       d="m 10.508748,214.40932 c -0.27032,-0.43739 0.29242,-0.54201 0.80962,-0.15051 0.4855,0.36749 0.48294,0.38026 -0.0777,0.3884 -0.31883,0.005 -0.64819,-0.10243 -0.73192,-0.23789 z m 0.25219,-1.177 c -0.35816,-0.26189 -0.39426,-0.39849 -0.14589,-0.55199 0.18742,-0.11583 0.50158,-0.0325 0.72693,0.19289 0.51888,0.51887 0.0412,0.8141 -0.58104,0.3591 z m 0.0452,-1.13434 c -0.097,-0.097 -0.17639,-0.33615 -0.17639,-0.53141 0,-0.28878 0.0987,-0.29336 0.52916,-0.0246 0.29105,0.18176 0.52917,0.42089 0.52917,0.53141 0,0.2478 -0.64086,0.26564 -0.88194,0.0246 z M 8.7776579,211.7452 c 0,-0.14552 0.11907,-0.26458 0.26459,-0.26458 0.14552,0 0.26458,0.11906 0.26458,0.26458 0,0.14552 -0.11906,0.26459 -0.26458,0.26459 -0.14552,0 -0.26459,-0.11907 -0.26459,-0.26459 z m 2.0073901,-0.87649 c -0.27503,-0.20111 -0.38703,-0.4355 -0.2489,-0.52087 0.349,-0.21569 0.97378,0.21202 0.8504,0.58217 -0.0726,0.21781 -0.24363,0.20038 -0.6015,-0.0613 z m -1.8750901,-0.18184 c 0.0899,-0.14552 0.21602,-0.26458 0.28019,-0.26458 0.0642,0 0.11668,0.11906 0.11668,0.26458 0,0.14552 -0.12609,0.26458 -0.2802,0.26458 -0.15411,0 -0.20661,-0.11906 -0.11667,-0.26458 z m -1.98438,-0.52917 c 0,-0.14552 0.11906,-0.26458 0.26458,-0.26458 0.14552,0 0.26459,0.11906 0.26459,0.26458 0,0.14552 -0.11907,0.26459 -0.26459,0.26459 -0.14552,0 -0.26458,-0.11907 -0.26458,-0.26459 z m 1.19063,0 c -0.0899,-0.14552 0.0291,-0.26458 0.26458,-0.26458 0.23546,0 0.35452,0.11906 0.26458,0.26458 -0.0899,0.14552 -0.209,0.26459 -0.26458,0.26459 -0.0556,0 -0.17465,-0.11907 -0.26458,-0.26459 z m 5.4239501,0 c 0,-0.14552 0.11907,-0.26458 0.26459,-0.26458 0.14552,0 0.26458,0.11906 0.26458,0.26458 0,0.14552 -0.11906,0.26459 -0.26458,0.26459 -0.14552,0 -0.26459,-0.11907 -0.26459,-0.26459 z m 0.92605,0 c -0.0899,-0.14552 0.0291,-0.26458 0.26458,-0.26458 0.23546,0 0.35452,0.11906 0.26458,0.26458 -0.0899,0.14552 -0.209,0.26459 -0.26458,0.26459 -0.0556,0 -0.17465,-0.11907 -0.26458,-0.26459 z m -3.72349,-0.65577 c -0.44764,-0.33866 -0.45526,-0.38676 -0.0624,-0.39415 0.24607,-0.005 0.52588,0.11857 0.6218,0.27378 0.28822,0.46635 -0.0156,0.53173 -0.55936,0.12037 z m -4.3463101,-0.66714 c 0,-0.14552 0.11907,-0.26459 0.26459,-0.26459 0.14552,0 0.26458,0.11907 0.26458,0.26459 0,0.14552 -0.11906,0.26458 -0.26458,0.26458 -0.14552,0 -0.26459,-0.11906 -0.26459,-0.26458 z m 7.8052101,0 c 0.0899,-0.14552 0.21603,-0.26459 0.2802,-0.26459 0.0642,0 0.11668,0.11907 0.11668,0.26459 0,0.14552 -0.12609,0.26458 -0.2802,0.26458 -0.15411,0 -0.20662,-0.11906 -0.11668,-0.26458 z m 0.66146,0 c 0,-0.14552 0.11906,-0.26459 0.26458,-0.26459 0.14552,0 0.26459,0.11907 0.26459,0.26459 0,0.14552 -0.11907,0.26458 -0.26459,0.26458 -0.14552,0 -0.26458,-0.11906 -0.26458,-0.26458 z m -3.9026,-0.19057 c -0.18191,-0.065 -0.33073,-0.3123 -0.33073,-0.54964 0,-0.39276 0.0402,-0.39135 0.44727,0.0157 0.47833,0.47833 0.42405,0.72696 -0.11654,0.53389 z m 1.78593,-0.86777 c 0,-0.14552 0.11907,-0.26458 0.26459,-0.26458 0.14552,0 0.26458,0.11906 0.26458,0.26458 0,0.14552 -0.11906,0.26459 -0.26458,0.26459 -0.14552,0 -0.26459,-0.11907 -0.26459,-0.26459 z m -1.94027,-0.44097 c -0.32138,-0.32138 -0.18282,-0.60322 0.22048,-0.44846 0.21828,0.0838 0.39688,0.25862 0.39688,0.38858 0,0.27738 -0.3645,0.31274 -0.61736,0.0599 z m 1.94027,-0.61736 c 0,-0.14552 0.1786,-0.26458 0.39688,-0.26458 0.21828,0 0.39687,0.11906 0.39687,0.26458 0,0.14552 -0.17859,0.26458 -0.39687,0.26458 -0.21828,0 -0.39688,-0.11906 -0.39688,-0.26458 z m -1.84677,-0.39048 c -0.20869,-0.25146 -0.22877,-0.40327 -0.0533,-0.40327 0.31976,0 0.69257,0.50197 0.50908,0.68546 -0.0666,0.0666 -0.27169,-0.0604 -0.45576,-0.28219 z m 2.26299,-0.11102 c -0.47309,-0.18533 -0.4763,-0.21258 -0.0445,-0.37827 0.77835,-0.29869 1.21067,-0.20853 1.04688,0.21831 -0.16791,0.43758 -0.25731,0.45184 -1.00238,0.15996 z m -4.6495501,-0.30055 c 0,-0.14096 0.17859,-0.25628 0.39688,-0.25628 0.21828,0 0.39687,0.0468 0.39687,0.10398 0,0.0572 -0.17859,0.17252 -0.39687,0.25628 -0.21829,0.0838 -0.39688,0.037 -0.39688,-0.10398 z m 2.2930601,-0.43267 c -0.32138,-0.32138 -0.18282,-0.60322 0.22048,-0.44846 0.21828,0.0838 0.39688,0.25862 0.39688,0.38857 0,0.27739 -0.3645,0.31275 -0.61736,0.0599 z m 2.13871,-0.26342 c 0.1819,-0.0734 0.47956,-0.0734 0.66146,0 0.1819,0.0734 0.0331,0.13345 -0.33073,0.13345 -0.3638,0 -0.51263,-0.0601 -0.33073,-0.13345 z m 1.25677,-0.0894 c 0.0899,-0.14552 0.21603,-0.26458 0.2802,-0.26458 0.0642,0 0.11668,0.11906 0.11668,0.26458 0,0.14552 -0.12609,0.26458 -0.2802,0.26458 -0.15411,0 -0.20662,-0.11906 -0.11668,-0.26458 z m -3.30729,-0.52917 c -0.33917,-0.21918 -0.32955,-0.25707 0.0661,-0.26053 0.25466,-0.002 0.46302,0.11501 0.46302,0.26053 0,0.32269 -0.0298,0.32269 -0.52917,0 z m 2.73955,-0.0624 c -0.0687,-0.11119 0.74528,-0.18596 1.8089,-0.16614 1.99123,0.0371 1.83924,0.14511 -0.40422,0.28724 -0.70385,0.0446 -1.33596,-0.01 -1.40468,-0.1211 z m -8.8249701,-0.46675 c 0,-0.14552 0.12609,-0.26459 0.2802,-0.26459 0.15411,0 0.20662,0.11907 0.11668,0.26459 -0.0899,0.14552 -0.21603,0.26458 -0.2802,0.26458 -0.0642,0 -0.11668,-0.11906 -0.11668,-0.26458 z m 5.8208401,-0.25628 c 0,-0.14095 0.17859,-0.18775 0.39687,-0.10399 0.21828,0.0838 0.39688,0.19909 0.39688,0.25628 0,0.0572 -0.1786,0.10399 -0.39688,0.10399 -0.21828,0 -0.39687,-0.11533 -0.39687,-0.25628 z m 6.08541,-0.27289 c 0,-0.29104 0.11907,-0.52917 0.26459,-0.52917 0.14552,0 0.26458,0.23813 0.26458,0.52917 0,0.29104 -0.11906,0.52917 -0.26458,0.52917 -0.14552,0 -0.26459,-0.23813 -0.26459,-0.52917 z m -0.92337,-0.2689 c 0.0914,-0.14789 0.27702,-0.2004 0.41249,-0.11667 0.36699,0.2268 0.29856,0.38557 -0.16619,0.38557 -0.22687,0 -0.3377,-0.121 -0.2463,-0.2689 z m -6.7343801,-1.3186 c -0.0545,-0.80036 -0.0765,-1.69224 -0.0489,-1.98195 0.0275,-0.28971 -0.13568,-0.66258 -0.36273,-0.8286 -0.37203,-0.27204 -0.37001,-0.3183 0.0205,-0.46814 0.40087,-0.15383 0.40099,-0.21561 0.002,-0.82505 -0.32167,-0.49092 -0.34583,-0.66673 -0.0948,-0.69006 0.18526,-0.0172 -0.0203,-0.1222 -0.45691,-0.23328 l -0.79375,-0.20198 0.79375,-0.0353 c 0.61911,-0.0276 0.70643,-0.0927 0.39687,-0.29589 -0.35278,-0.23158 -0.35278,-0.28948 0,-0.52107 0.35278,-0.23158 0.35278,-0.26143 0,-0.26863 -0.33208,-0.007 -0.33661,-0.0463 -0.0277,-0.24184 0.29659,-0.1878 0.27059,-0.25897 -0.13229,-0.36213 -0.40561,-0.10386 -0.38148,-0.13426 0.12628,-0.15909 0.4938,-0.0241 0.56484,-0.10644 0.33303,-0.38576 -0.16208,-0.19529 -0.21922,-0.43054 -0.12699,-0.52277 0.0922,-0.0922 0.0171,-0.34918 -0.16698,-0.57097 -0.29165,-0.35141 -0.17741,-0.40327 0.88833,-0.40327 1.5484101,0 1.7159401,-0.66396 0.23084,-0.91487 -0.95099,-0.16067 -0.99219,-0.21107 -0.99219,-1.21388 0,-0.66061 0.12191,-1.04625 0.33073,-1.04625 0.34345,0 0.41981,0.27023 0.34553,1.22285 -0.0362,0.46361 0.0715,0.53936 0.61787,0.43491 0.8156901,-0.15593 0.8749701,-0.63912 0.6902501,-5.62651 -0.12205,-3.29519 -0.1715,-3.57188 -0.6384201,-3.57188 -0.45022,0 -0.51016,0.21921 -0.5426,1.98438 -0.0785,4.27303 -0.1506,5.29166 -0.37438,5.29166 -0.12787,0 -0.37764,-0.35043 -0.55505,-0.77874 -0.18131,-0.4377 -0.57194,-0.82746 -0.892,-0.89001 -0.32189,-0.0629 -0.13811,-0.12693 0.42276,-0.1473 0.80379,-0.0292 0.99219,-0.13651 0.99219,-0.5652 0,-0.42804 -0.18961,-0.53674 -0.99219,-0.56881 -0.80551,-0.0322 -0.85444,-0.0605 -0.2601,-0.15029 0.40265,-0.0609 0.66352,-0.22162 0.5797,-0.35724 -0.0838,-0.13561 -0.004,-0.24657 0.17837,-0.24657 0.18193,0 0.0997,-0.17481 -0.18282,-0.38846 -0.32046,-0.24239 -0.38252,-0.39163 -0.16503,-0.39688 0.23411,-0.006 0.28997,-0.19302 0.17012,-0.57061 -0.11195,-0.35273 -0.0446,-0.64697 0.18061,-0.7897 0.25169,-0.15948 0.26264,-0.22871 0.0366,-0.23155 -0.19001,-0.002 -0.25385,-0.18275 -0.15545,-0.43919 0.10223,-0.26641 -0.0232,-0.57419 -0.32346,-0.79375 -0.43402,-0.31736 -0.31903,-0.35861 0.99973,-0.35861 1.6289101,0 2.1572201,-0.38616 1.3633801,-0.99655 -0.35241,-0.27096 -0.40422,-0.42429 -0.17271,-0.51107 0.24701,-0.0926 0.33073,-1.2793 0.33073,-4.68804 0,-2.51024 -0.0664,-4.63049 -0.14762,-4.71168 -0.0812,-0.0812 -0.38305,-0.086 -0.6708201,-0.0108 -0.47109,0.12319 -0.50613,0.28785 -0.35172,1.65266 0.19024,1.68149 -0.14217,2.65088 -0.909,2.65088 -0.39382,0 -0.4698,-0.22149 -0.45371,-1.32273 0.0106,-0.7275 0.10862,-1.32281 0.21776,-1.32291 0.10914,-1.1e-4 0.19844,-0.12628 0.19844,-0.28039 0,-0.15411 -0.11998,-0.20605 -0.26661,-0.11542 -0.14664,0.0906 -0.4528,-0.0214 -0.68036,-0.24897 -0.41361,-0.41361 -0.40017,-0.44543 0.21937,-0.51934 0.1819,-0.0217 0.31775,-0.22357 0.3019,-0.44859 -0.0215,-0.30554 0.27819,-0.42502 1.18384,-0.4719 1.3873301,-0.0718 1.4819401,-0.12275 1.2672301,-0.68229 -0.10608,-0.27642 -0.50815,-0.40829 -1.2449001,-0.40829 -1.08463,0 -1.08782,-0.003 -0.96718,-0.89818 0.0666,-0.49399 0.20299,-1.03078 0.30316,-1.19286 0.10438,-0.16889 -0.0793,-0.39952 -0.43018,-0.54026 -0.52543,-0.21073 -0.31201,-0.40513 0.35129,-0.31998 0.0934,0.012 0.15295,-0.27277 0.13229,-0.63282 -0.0232,-0.40513 -0.16361,-0.60634 -0.36829,-0.52794 -0.1819,0.0697 -0.33073,0.0252 -0.33073,-0.0987 0,-0.12398 0.21828,-0.2825 0.48507,-0.35227 0.83423,-0.21815 0.58662,-0.98872 -0.33073,-1.02923 -0.56628,-0.025 -0.64375,-0.0698 -0.2533,-0.14639 1.09552,-0.21494 0.97907,-3.54324 -0.13634,-3.89682 -0.23438,-0.0743 -0.10289,-0.0971 0.29222,-0.0507 0.3951,0.0464 0.75943,-0.0388 0.80962,-0.1894 0.0519,-0.15577 0.30924,-0.19008 0.59712,-0.0796 0.38084,0.14614 0.42148,0.24629 0.1644,0.40518 -0.26298,0.16252 -0.32211,1.25649 -0.25717,4.75797 0.0799,4.30984 0.11082,4.54297 0.5925,4.47107 0.4782601,-0.0714 0.5129701,-0.38352 0.5895401,-5.30138 0.0543,-3.48457 -0.0101,-5.22552 -0.19306,-5.22552 -0.15399,0 -0.18322,-0.14515 -0.0666,-0.33073 0.1143,-0.1819 0.21063,-0.71765 0.21406,-1.19057 0.005,-0.71712 -0.0926,-0.85985 -0.5890801,-0.85989 -0.51604,-5e-5 -0.59531,0.13793 -0.59531,1.03623 0,0.58146 0.14516,1.09486 0.33073,1.16974 0.1819,0.0734 -0.11576,0.14285 -0.66146,0.15433 -1.08726,0.0229 -1.1867,-0.087 -0.60512,-0.66855 0.30808,-0.30809 0.32566,-0.52182 0.0861,-1.04751 l -0.30093,-0.66046 -6.50228,0.0166 c -3.57626,0.009 -6.65112,0.0128 -6.83302,0.008 -0.1819,-0.005 -0.33073,-0.12759 -0.33073,-0.27311 0,-0.17203 3.74388,-0.26458 10.70248,-0.26458 8.7173301,0 10.7417201,-0.0664 10.9140601,-0.35808 0.11638,-0.19694 0.39018,-0.42642 0.60846,-0.50995 0.21828,-0.0835 -4.69441,-0.13075 -10.9170901,-0.10494 -9.32742,0.0387 -11.29022,-0.0149 -11.17865,-0.30544 0.0744,-0.19381 0.13533,-0.40217 0.13533,-0.46303 0,-0.0609 2.09748,-0.11065 4.66106002,-0.11065 4.57691998,0 4.65849998,-0.01 4.51845998,-0.54535 -0.0902,-0.34502 0.005,-0.60212 0.26014,-0.6999 0.22152,-0.085 0.68311,-0.43491 1.02577,-0.77757 0.7924,-0.7924 2.22084,-0.83991 2.89384,-0.0963 0.47598,0.52595 0.47801,0.52595 1.32901,0 1.0378501,-0.64143 1.9226601,-0.67009 2.7520601,-0.0892 0.5331,0.3734 0.70669,0.38567 1.18335,0.0837 0.30723,-0.19467 0.97532,-0.43742 1.48464,-0.53946 l 0.92604,-0.18551 -0.87729,-0.0304 c -0.48251,-0.0167 -1.1018,0.0897 -1.3762,0.23658 -0.34358,0.18388 -0.86707,0.16854 -1.68143,-0.0493 -0.94884,-0.25378 -1.39738,-0.24537 -2.2697701,0.0425 -0.83013,0.27397 -1.16044,0.28562 -1.3968,0.0493 -0.17025,-0.17025 -0.83503,-0.30955 -1.47729,-0.30955 -1.14698,0 -1.16567,-0.0141 -1.05124,-0.79375 0.0641,-0.43657 0.009,-0.79375 -0.12253,-0.79375 -0.13147,0 -0.20368,0.41033 -0.16047,0.91185 0.0882,1.02422 -0.20986,1.51839 -0.56719,0.94023 -0.12969,-0.20985 -0.32813,-0.28923 -0.44097,-0.17639 -0.11284,0.11284 -0.0445,0.30444 0.1518,0.42578 0.4447,0.27484 0.20397,0.70032 -0.50045,0.88453 -0.39254,0.10265 -0.53329,0.0105 -0.53329,-0.34932 0,-0.26883 0.11906,-0.56237 0.26458,-0.65231 0.32205,-0.19904 0.35622,-1.98437 0.038,-1.98437 -0.12463,0 -0.23354,0.32742 -0.24202,0.7276 -0.008,0.40018 -0.12635,1.20386 -0.26194,1.78594 -0.19005,0.81582 -0.29265,0.95223 -0.44775,0.59531 -0.11067,-0.25466 -0.13268,-0.64161 -0.0489,-0.85989 0.0838,-0.21829 0.0438,-0.39688 -0.0888,-0.39688 -0.13259,0 -0.28665,0.50602 -0.34235,1.12448 l -0.10128,1.12448 -0.0462,-1.12448 c -0.0631,-1.53589 -0.5658,-1.42778 -0.61513,0.13229 l -0.0397,1.25677 -0.1587,-1.19062 c -0.13969,-1.048 -0.0869,-1.23152 0.44079,-1.532 0.32972,-0.18775 0.80165,-0.30681 1.04874,-0.26458 0.26375,0.0451 0.49057,-0.12495 0.54931,-0.41178 0.0788,-0.38468 -0.0129,-0.45272 -0.43116,-0.31997 -0.29217,0.0927 -0.6078,0.0447 -0.7014,-0.10674 -0.25875,-0.41867 -0.61515,-0.32953 -0.75031,0.18767 -0.0934,0.35753 -0.12799,0.33094 -0.15169,-0.11667 -0.039,-0.73593 -0.36457,-0.93461 -1.19152998,-0.72706 -0.45815,0.11499 -0.60786,0.29013 -0.49637,0.58067 0.10812,0.28177 0.056,0.35197 -0.1615,0.21754 -0.17663,-0.10916 -0.49452,-0.0546 -0.70642002,0.12128 -0.2424,0.20118 -0.38529,0.21675 -0.38529,0.042 0,-0.46135 1.35077002,-1.37452 2.03320002,-1.37452 0.3514,0 0.98441998,0.17867 1.40670998,0.39704 1.00766,0.52109 2.11634,0.0829 2.11634,-0.83639 0,-0.79065 -0.45587,-0.80843 -0.60702,-0.0237 -0.0778,0.40392 -0.12625,0.30185 -0.1507,-0.3175 -0.0266,-0.67464 -0.11347,-0.83536 -0.33285,-0.61598 -0.16325,0.16325 -0.46183,0.2335 -0.6635,0.15611 -0.20167,-0.0774 -0.67375,0.0605 -1.04905,0.3064 -0.37530998,0.24591 -0.74499998,0.38448 -0.82154998,0.30794 -0.29334,-0.29335 1.65584998,-1.24439 2.30175998,-1.12307 0.3638,0.0683 0.89958,0.16242 1.19062,0.20908 0.29104,0.0467 0.61376,0.20332 0.71716,0.34813 0.11539,0.16161 0.31975,0.0967 0.52917,-0.168 0.18764,-0.23721 0.51977,-0.49066 0.73805,-0.56322 0.32277,-0.10729 0.30544,-0.16957 -0.0929,-0.33357 -0.31532,-0.12984 -0.573,-0.0701 -0.72355,0.16763 -0.16243,0.25652 -0.23507,0.0968 -0.23789,-0.52301 -0.003,-0.76334 0.0533,-0.84469 0.39283,-0.56291 0.47826,0.39692 0.53474,-0.0209 0.0661,-0.48941 -0.21912,-0.21908 -0.33072,-1.19671 -0.33072,-2.89719 0,-2.25862 0.0861,-2.74066 0.71805,-4.01805 0.72914,-1.47392 0.66529,-1.98326 -0.22693,-1.81005 -0.3662,0.0711 -0.49112,0.32978 -0.49112,1.017 0,0.76408 -0.10552,0.9366 -0.61714,1.00907 -1.1837,0.16765 -2.04395,-1.27537 -1.383,-2.31993 0.15688,-0.24793 0.10939,-0.56793 -0.13634,-0.91877 -0.47717,-0.68125 -0.4725,-0.81652 0.0461,-1.33511 0.28633,-0.28632 0.34026,-0.5277 0.16678,-0.7465 -0.14101,-0.17784 -0.39544,-0.75544 -0.56541,-1.28355 -0.16996,-0.5281 -0.54266,-1.17163 -0.82823,-1.43007 -0.70919998,-0.64182 -0.65659998,-1.01806 0.0761,-0.5443 0.32742,0.2117 1.22815,0.63249 2.00161,0.93507 1.27283,0.49794 1.46047,0.51221 1.9771,0.15035 0.69091,-0.48393 1.29481,-0.51056 1.72913,-0.0762 0.17797,0.17797 0.72133,0.2893 1.20748,0.24742 0.55075,-0.0474 1.04708,0.087 1.31684,0.35679 0.9192201,0.91921 0.2517401,2.14646 -0.99696,1.83305 -0.60782,-0.15255 -0.68676,-0.093 -0.68676,0.51778 0,0.82142 0.23261,0.85082 1.53189,0.19357 2.3398601,-1.18362 4.9994101,-1.23286 7.6127401,-0.14094 0.4909,0.20511 1.10472,0.36106 1.36406,0.34655 0.32519,-0.0182 0.26625,-0.0921 -0.18994,-0.23821 l -0.66146,-0.21183 0.66146,-0.0528 0.66146,-0.0528 -0.66146,-0.19336 c -0.63652,-0.18606 -0.62655,-0.20119 0.26458,-0.40105 0.50932,-0.11423 1.05907,-0.31448 1.22167,-0.44499 0.18501,-0.1485 0.41988,-0.0876 0.627707,0.16285 0.28203,0.33982 0.227504,0.40013 -0.361777,0.40013 -0.38162,0 -0.69385,0.10667 -0.69385,0.23705 0,0.27129 2.008267,0.22413 2.286082,-0.0537 0.100849,-0.10085 -0.01508,-0.18337 -0.257609,-0.18337 -0.833056,0 -0.440835,-0.52917 0.418923,-0.56519 0.699966,-0.0293 0.736872,-0.056 0.198437,-0.1433 -0.363802,-0.059 -0.899583,-0.21267 -1.190625,-0.3415 -0.291041,-0.12883 -0.707758,-0.29941 -0.926038,-0.37907 -0.21828,-0.0797 0.28773,-0.0747 1.124476,0.0111 1.035881,0.10621 1.521354,0.0618 1.521354,-0.13908 0,-0.16229 0.185621,-0.29507 0.412491,-0.29507 0.226869,0 0.342119,-0.11386 0.256109,-0.25303 -0.08601,-0.13916 -0.331161,-0.18596 -0.544783,-0.10398 -0.258188,0.0991 -0.3884,-0.0209 -0.3884,-0.35786 0,-0.71839 0.638598,-1.5019 1.081405,-1.3268 0.275373,0.10889 0.251878,0.15331 -0.08922,0.1687 -0.254661,0.0115 -0.463021,0.12735 -0.463021,0.25748 0,0.13013 0.296146,0.21942 0.658101,0.19844 0.470445,-0.0273 0.620356,-0.15727 0.525722,-0.45586 -0.106111,-0.33482 0.03894,-0.3974 0.730959,-0.3154 0.795721,0.0943 0.825632,0.0719 0.381863,-0.28642 -0.381881,-0.30832 -0.409247,-0.43464 -0.132292,-0.61065 0.248031,-0.15762 0.349189,-0.93081 0.349189,-2.66895 0,-2.4223 -0.168926,-2.83445 -0.873125,-2.13025 -0.456583,0.45658 -0.390909,0.94743 0.145521,1.08761 0.417497,0.10911 0.414676,0.12402 -0.02868,0.15169 -0.392816,0.0245 -0.457197,0.16818 -0.320124,0.71432 0.11126,0.4433 0.07483,0.62384 -0.103608,0.51356 -0.38462,-0.23771 -0.328568,-2.03087 0.0803,-2.5687 0.40495,-0.53269 1.640126,-0.89049 1.857865,-0.53818 0.08492,0.13741 0.16447,5.15781 0.176762,11.15643 0.02217,10.82419 0.02622,10.90211 0.535911,10.31444 0.489858,-0.56481 0.513559,-1.0787 0.513559,-11.13499 0,-6.85218 0.09262,-10.54285 0.264583,-10.54285 0.169837,0 0.272778,2.77133 0.287468,7.73906 0.01259,4.25649 0.04972,11.48953 0.0825,16.07344 0.03279,4.58391 0.0076,8.6618 -0.05596,9.06198 l -0.115578,0.7276 H 22.63556 c -3.669482,0 -5.390882,-0.0909 -5.390882,-0.28453 0,-0.18146 0.58921,-0.25334 1.62667,-0.19843 0.92635,0.049 1.66693,-0.0278 1.720186,-0.17849 0.05742,-0.16246 -0.468336,-0.2296 -1.362086,-0.17396 -0.93152,0.058 -1.4556,-0.0134 -1.4556,-0.19843 0,-0.15899 0.12447,-0.28907 0.27661,-0.28907 0.59374,0 1.54191,-1.26083 1.4206,-1.88906 -0.10675,-0.55288 -0.0938,-0.56381 0.11283,-0.0953 0.12837,0.29104 0.1776,0.678 0.10941,0.8599 -0.21499,0.57347 0.14598,1.12753 0.61687,0.94683 0.362138,-0.13897 0.413565,-0.42176 0.291595,-1.60353 -0.08144,-0.78915 -0.328125,-1.7096 -0.548185,-2.04545 -0.38026,-0.58034 -0.32809,-0.93587 0.13731,-0.93587 0.1167,0 0.14313,0.17994 0.0587,0.39987 -0.0974,0.25375 -0.0218,0.36629 0.20675,0.30795 0.198097,-0.0506 0.270884,-0.042 0.161744,0.019 -0.396884,0.22196 -0.186334,0.57479 0.244371,0.40952 0.340755,-0.13076 0.401953,-0.0634 0.265531,0.29205 -0.209905,0.54701 0.266464,1.56483 0.627851,1.34148 0.138221,-0.0854 0.251309,-0.0362 0.251309,0.10927 0,0.14552 -0.121004,0.33937 -0.268899,0.43077 -0.147894,0.0914 -0.192542,0.28974 -0.09922,0.44074 0.109402,0.17701 0.250483,0.14702 0.397139,-0.0844 0.160751,-0.2537 0.228648,-0.15635 0.231511,0.33194 0.0035,0.59468 0.09673,0.67319 0.669419,0.56372 0.962996,-0.18409 1.032563,-0.47822 0.408562,-1.7274 l -0.556842,-1.11474 0.667996,0.79375 c 0.367398,0.43656 0.731155,0.98897 0.808347,1.22756 0.12722,0.39322 1.427298,0.85938 1.685489,0.60436 0.181501,-0.17928 -10.206368,-10.43088 -10.569518,-10.43088 -0.18774,0 -0.26304,-0.0783 -0.16734,-0.17401 0.19509,-0.1951 -1.50864,-1.94266 -1.89393,-1.94266 -0.13576,0 -0.30697,0.22996 -0.38047,0.51102 -0.0833,0.31864 -0.51828,0.61744 -1.15534,0.79368 -1.6552,0.45793 -1.9886901,0.80319 -0.78036,0.80792 1.10925,0.004 2.92733,0.90528 4.21685,2.08964 1.98266,1.82098 3.24359,4.86762 2.9047,7.01827 -0.17,1.07879 -1.23897,3.09255 -1.61095,3.03473 -0.10763,-0.0167 -1.39957,-0.0163 -2.87098,7.9e-4 l -2.67529,0.0315 0.13768,0.72021 c 0.1236,0.64659 0.15852,0.66687 0.34159,0.19844 0.11215,-0.28697 0.19819,1.02604 0.1912,2.91781 -0.008,2.12372 -0.09,3.13592 -0.21468,2.64584 -0.15502,-0.60919 -0.20926,-0.37096 -0.23328,1.02458 -0.0244,1.41976 0.0412,1.76147 0.29942,1.55893 0.1819,-0.14268 1.16417,-0.2619 2.18282,-0.26495 1.01864,-0.003 1.46513,0.0471 0.99218,0.11148 -0.47294,0.0644 -0.85989,0.23557 -0.85989,0.38046 0,0.14489 0.10557,0.19819 0.2346,0.11844 0.29901,-0.1848 0.96126,0.59359 0.71476,0.8401 -0.10141,0.10141 -0.28041,0.029 -0.39776,-0.16087 -0.16817,-0.2721 -0.24745,-0.25646 -0.37419,0.0738 -0.10804,0.28155 -0.0116,0.42039 0.29391,0.42311 0.27551,0.002 0.34284,0.0807 0.17084,0.19844 -0.42248,0.28928 -0.67238,1.12042 -0.33688,1.12042 0.1791,0 0.15084,0.16946 -0.0744,0.44642 -0.31799,0.39092 -0.30558,0.42484 0.0999,0.27289 0.31349,-0.11749 0.46302,-0.0442 0.46302,0.22703 0,0.31263 0.21779,0.36826 0.99218,0.25344 0.73822,-0.10947 0.85674,-0.0834 0.46303,0.1017 -0.29105,0.13686 -0.98439,0.2572 -1.54076,0.26743 -0.81869,0.0151 -0.99321,0.10689 -0.9152,0.48161 0.0621,0.29833 0.30428,0.44061 0.68086,0.4 0.62364,-0.0673 0.80558,0.32658 0.25374,0.54926 -0.1819,0.0734 -0.0331,0.14363 0.33073,0.15608 l 0.66146,0.0226 -0.79375,0.55533 c -0.43656,0.30543 -0.59703,0.49144 -0.3566,0.41336 0.67157,-0.21809 0.81354,0.12656 0.22262,0.54045 -0.50685,0.35501 -0.77632,1.05365 -0.29062,0.75347 0.13027,-0.0805 0.30887,0.0413 0.39687,0.2706 0.22376,0.58309 0.2007,0.69467 -0.10456,0.50601 -0.23795,-0.14706 -0.37919,0.20022 -0.29592,0.72761 0.0172,0.10914 -0.53421,0.19089 -1.22544,0.18166 -1.02108,-0.0136 -1.14513,-0.0616 -0.66146,-0.25605 0.58563,-0.2354 0.59532,-0.31477 0.59532,-4.87803 v -4.63872 h -0.66146 c -0.53881,0 -0.66635,0.13491 -0.68783,0.7276 l -0.0264,0.72761 -0.21027,-0.66146 c -0.11565,-0.3638 -0.21906,4.3987 -0.2298,10.58333 -0.0107,6.18464 -0.0233,12.64378 -0.0279,14.35365 -0.005,1.89057 -0.11209,3.10885 -0.27299,3.10885 -0.14552,0 -0.26458,-0.18687 -0.26458,-0.41527 0,-0.27932 -0.1949,-0.3876 -0.59532,-0.33073 -0.5869201,0.0833 -0.5973001,0.15355 -0.7366601,4.97934 -0.0777,2.69213 -0.1859,4.23995 -0.24036,3.43958 z m 2.2848601,-42.26215 c -0.0671,-0.25743 -0.12638,-0.11087 -0.13178,0.32569 -0.005,0.43656 0.0495,0.64719 0.12197,0.46806 0.0725,-0.17913 0.0769,-0.53632 0.01,-0.79375 z m 12.190653,-4.22899 c -0.397576,-0.0604 -1.111951,-0.0616 -1.5875,-0.003 -0.475549,0.0589 -0.15026,0.10828 0.722865,0.10976 0.873125,0.002 1.262211,-0.0467 0.864635,-0.10707 z m 2.178074,-0.0755 c -0.512964,-0.3315 -0.79375,-0.3315 -0.79375,0 0,0.14552 0.26789,0.26276 0.595312,0.26054 0.481394,-0.003 0.519367,-0.0531 0.198438,-0.26054 z m 1.515843,0.10473 c -0.08792,-0.0879 -0.316124,-0.0973 -0.507119,-0.0209 -0.211066,0.0845 -0.148373,0.14715 0.159853,0.15985 0.278913,0.0115 0.435184,-0.051 0.347266,-0.13897 z m 0.51698,-0.6835 c -0.08446,-0.21107 -0.147156,-0.14838 -0.159851,0.15985 -0.01148,0.27891 0.05104,0.43518 0.138964,0.34727 0.08792,-0.0879 0.09732,-0.31613 0.02088,-0.50712 z M 7.3224579,153.27229 c 0.62017,-0.68529 1.97682,-0.6871 2.8454901,-0.004 0.59952,0.47158 0.70289,0.4832 1.00975,0.11345 0.18803,-0.22656 0.7072,-0.58266 1.15373,-0.79135 l 0.81186,-0.37942 -0.79375,0.1543 c -0.43656,0.0849 -0.97235,0.31453 -1.19063,0.51037 -0.33306,0.29881 -0.47946,0.2955 -0.91046,-0.0206 -0.6949601,-0.5097 -2.5055701,-0.48001 -3.0919901,0.0507 -0.43476,0.39345 -0.50618,0.39345 -0.89963,0 -0.23506,-0.23506 -0.60411,-0.42738 -0.82011,-0.42738 -0.25283,0 -0.12827,0.23266 0.34963,0.65309 0.90576,0.79686 0.93946,0.79995 1.53611,0.14066 z m 9.0619701,-0.55964 c 0.25467,-0.0167 0.70115,-0.0187 0.99219,-0.004 0.51305,0.0253 0.5136,0.0196 0.0182,-0.18825 -0.64833,-0.272 -1.63376,-0.089 -2.01874,0.37486 -0.24813,0.29897 -0.40027,0.29007 -0.92565,-0.0542 -0.34579,-0.22658 -0.78136,-0.35063 -0.96792,-0.27568 -0.23,0.0924 -0.20334,0.14301 0.0828,0.15717 0.2321,0.0115 0.62874,0.24933 0.88142,0.52853 0.45291,0.50046 0.46658,0.50046 0.96705,0 0.2792,-0.2792 0.716,-0.52135 0.97066,-0.53811 z m 10.310208,0.38721 c 0.0558,-0.1676 -0.554392,-0.6256 -1.355976,-1.01778 -0.801587,-0.39218 -1.59952,-0.88426 -1.773187,-1.09352 -0.174789,-0.21061 0.280339,-0.0811 1.019452,0.29017 0.734365,0.36885 1.466747,0.67064 1.627516,0.67064 0.405903,0 0.369276,-0.52431 -0.03843,-0.55006 -0.262001,-0.0165 -0.262441,-0.0485 -0.0021,-0.15363 0.254159,-0.10267 0.259016,-0.26279 0.02143,-0.70672 -0.168947,-0.31568 -0.281159,-0.6335 -0.249356,-0.70626 0.0318,-0.0728 -0.320659,-0.20969 -0.783244,-0.3043 -0.462584,-0.0946 -0.935659,-0.32508 -1.051279,-0.51216 -0.170559,-0.27597 -0.290034,-0.27389 -0.633315,0.011 -0.36585,0.30363 -0.398163,0.28616 -0.238813,-0.1291 0.145341,-0.37875 0.0878,-0.44321 -0.272269,-0.30503 -0.305867,0.11737 -0.394698,0.0751 -0.269145,-0.12804 0.126995,-0.20548 0.0066,-0.25596 -0.373404,-0.15657 -0.322871,0.0844 -0.693195,-0.0129 -0.872826,-0.2293 -0.499848,-0.60228 -0.197011,-0.61985 1.342046,-0.0778 1.508789,0.53134 3.57695,0.67805 3.828169,0.27157 0.19694,-0.31866 -0.477906,-0.55287 -1.658152,-0.57549 -0.783627,-0.015 -0.868632,-0.0624 -0.44138,-0.24598 0.291042,-0.12507 0.826823,-0.2401 1.190625,-0.25563 0.430353,-0.0184 0.915903,-0.3636 1.389716,-0.98809 0.87939,-1.15903 0.776912,-1.38593 -0.274778,-0.60838 -0.627332,0.46381 -1.130713,0.57305 -2.589046,0.56185 -3.140559,-0.0241 -6.048112,-1.89089 -7.632962,-4.90072 -0.37538,-0.7129 -0.68251,-1.61579 -0.68251,-2.00643 0,-0.97457 -0.30644,-1.1972 -0.68199,-0.49548 -0.19946,0.37268 -0.2337,0.85935 -0.0946,1.34438 0.19406,0.67668 0.16148,0.74229 -0.29644,0.59695 -0.35182,-0.11166 -0.51448,-0.0391 -0.51448,0.22937 0,0.21596 -0.11732,0.43235 -0.26071,0.48085 -0.14339,0.0485 1.42095,1.75507 3.47632,3.79237 2.05536,2.03729 4.047916,4.05759 4.427897,4.48956 0.379979,0.43197 1.405247,1.47312 2.278372,2.31368 1.510456,1.45411 2.213928,1.7697 2.43885,1.09412 z m -1.562417,-3.18331 c 0.190995,-0.0764 0.419198,-0.067 0.507119,0.0209 0.08792,0.0879 -0.06835,0.15046 -0.347266,0.13897 -0.308226,-0.0127 -0.370919,-0.0754 -0.159853,-0.15985 z m -2.596224,-2.70491 c 0,-0.1319 0.238125,-0.17754 0.529166,-0.10143 0.291042,0.0761 0.529167,0.18402 0.529167,0.23981 0,0.0558 -0.238125,0.10143 -0.529167,0.10143 -0.291041,0 -0.529166,-0.10791 -0.529166,-0.23981 z m -5.398817,4.17006 c 0.50161,-0.56494 0.50115,-0.56615 -0.0968,-0.25234 -0.33042,0.17342 -0.71738,0.24325 -0.85989,0.15517 -0.29025,-0.17938 -0.35692,0.21426 -0.0827,0.48845 0.28924,0.28924 0.50841,0.20673 1.03938,-0.39128 z m -8.1787801,-1.06944 c -0.0845,-0.21107 -0.14715,-0.14837 -0.15985,0.15985 -0.0115,0.27892 0.0511,0.43519 0.13897,0.34727 0.0879,-0.0879 0.0973,-0.31612 0.0209,-0.50712 z m -4.26187,-1.2093 c -0.2874,-0.2874 -0.36986,0.0692 -0.19931,0.86204 l 0.17074,0.79375 0.0904,-0.7518 c 0.0497,-0.41348 0.0219,-0.82028 -0.0618,-0.90399 z m 11.3322501,0.5055 c 0.0762,-0.12334 -0.75142,-0.16714 -1.83921,-0.0973 -1.81661,0.11659 -2.11543,0.0592 -3.66639,-0.70435 -0.9287101,-0.45721 -2.1131001,-1.30118 -2.6319601,-1.87551 -1.21471,-1.34454 -2.17927,-4.32125 -1.87005,-5.77115 0.19294,-0.9047 0.22452,-0.82273 0.38867,1.00886 0.20361,2.27185 0.6418,3.26948 2.15907,4.91552 0.76223,0.82692 1.4533701,1.2741 2.4068301,1.55725 1.35633,0.40278 4.02071,0.53248 4.79952,0.23362 0.383,-0.14697 0.37848,-0.19985 -0.0445,-0.52075 -0.25894,-0.19644 -0.64939,-0.35259 -0.86767,-0.34699 -0.25383,0.007 -0.20615,0.0881 0.13229,0.22639 0.3613,0.14763 0.0466,0.21462 -0.99219,0.21119 -0.83674,-0.003 -1.52135,-0.10843 -1.52135,-0.23481 0,-0.12638 -0.27979,-0.22978 -0.62176,-0.22978 -0.78549,0 -2.5414801,-1.2605 -3.4919301,-2.50661 -0.49124,-0.64404 -0.7697,-1.38267 -0.85468,-2.26704 -0.0693,-0.72147 -0.24453,-1.31177 -0.38936,-1.31177 -0.14579,0 -0.11687,-0.17645 0.0648,-0.39535 0.18046,-0.21745 0.27109,-0.6937 0.20138,-1.05833 -0.0697,-0.36464 -0.0242,-0.66298 0.10116,-0.66298 0.12534,0 0.22789,-0.16402 0.22789,-0.36448 0,-0.20046 0.20089,-0.52789 0.44641,-0.72761 0.3912,-0.31821 0.42393,-0.30585 0.26459,0.0999 -0.10001,0.25466 -0.25966,0.67138 -0.35477,0.92604 -0.0951,0.25466 0.2323,-0.13205 0.7276,-0.85936 0.58401,-0.85758 1.3655401,-1.57615 2.2234601,-2.04434 0.72761,-0.39708 1.14432,-0.72836 0.92604,-0.73618 -0.29619,-0.0106 -0.27021,-0.0878 0.10244,-0.30423 1.19331,-0.69306 4.59558,0.1836 6.2219,1.6032 0.93013,0.81189 0.41719,0.67727 -0.85712,-0.22496 -0.60588,-0.42897 -1.45878,-0.84343 -1.89534,-0.92102 -0.77468,-0.13769 -0.77287,-0.13386 0.0754,0.1594 0.47802,0.16527 1.42501,0.78809 2.10442,1.38404 0.67941,0.59596 1.14447,0.93473 1.03347,0.75283 -0.11683,-0.19148 -0.0708,-0.33073 0.10925,-0.33073 0.17677,0 0.25355,0.21991 0.17786,0.50937 -0.089,0.3404 -0.0209,0.46629 0.20521,0.37951 0.59543,-0.22849 1.28376,2.0871 1.1128,3.74353 -0.15439,1.49597 0.20454,2.02587 0.491368,0.7254 0.08826,-0.40018 0.267721,-1.02526 0.398801,-1.38906 0.209555,-0.58161 0.222732,-0.55766 0.109149,0.19843 -0.07105,0.47295 -0.198168,1.21709 -0.282493,1.65365 -0.257583,1.33358 0.342757,0.88697 0.676219,-0.50306 0.810297,-3.3777 -0.975238,-7.09243 -4.227074,-8.79425 -1.01294,-0.53011 -1.56573,-0.62162 -3.70416,-0.61313 -2.41996,0.01 -3.21898,0.21611 -5.3122201,1.373 -0.18201,0.10059 -0.77682,-1.14018 -0.76479,-1.59532 0.005,-0.17506 0.17347,-0.53605 0.3752,-0.80222 0.29898,-0.39449 0.46931,-0.42905 0.92155,-0.18702 0.44921,0.24041 0.58609,0.21531 0.71932,-0.1319 0.0905,-0.23584 -0.0111,-0.60439 -0.22566,-0.81901 -0.93223,-0.93222 -2.58082,0.90788 -2.21887,2.47663 l 0.16906,0.73274 -0.53008,-0.66146 c -0.62972,-0.7858 -0.69887,-1.92156 -0.14497,-2.38125 0.57868,-0.48026 0.48535,-0.84326 -0.19182,-0.74601 -0.32378,0.0465 -0.72329,0.35561 -0.8878,0.6869 -0.26805,0.5398 -0.33524,0.55882 -0.64702,0.18315 -0.28276,-0.3407 -1.89777,-1.18237 -2.26875,-1.18237 -0.25288,0 0.58105,1.52356 1.10461,2.01809 l 0.59593,0.56288 -0.63851,0.34172 c -0.35119,0.18795 -0.63852,0.55973 -0.63852,0.82618 0,0.59212 0.10759,0.59953 0.92529,0.0638 0.52771,-0.34577 0.80469,-0.36706 1.5548,-0.1195 1.31581,0.43426 1.41841,0.9696 0.16288,0.84987 -1.17937,-0.11247 -2.05959,0.29621 -2.36204,1.0967 -0.25867,0.6846 0.10241,1.50406 0.66273,1.50406 0.53417,0 0.8087,-0.79293 0.36868,-1.06487 -0.57539,-0.35562 0.20109,-1.05248 1.16746,-1.04775 1.53044,0.007 1.64245,0.29156 0.79527,2.01691 -0.60557,1.23329 -0.77898,1.9844 -0.84675,3.66758 -0.079,1.96092 -0.0206,2.24322 0.79375,3.83646 0.92718,1.81411 2.64796,3.3855 4.2847101,3.91273 1.02184,0.32915 5.11077,0.40348 5.30059,0.0964 z m 4.959359,-8.85513 c -0.0218,-0.40975 -0.168351,-0.98549 -0.325662,-1.27943 -0.157307,-0.29394 -0.220177,-0.60028 -0.139697,-0.68076 0.250258,-0.25025 0.721304,1.31506 0.610343,2.02819 -0.102878,0.66117 -0.106267,0.65958 -0.144984,-0.068 z M 6.5600879,139.38166 c 0.44961,-1.97158 2.48627,-3.92604 4.9388001,-4.73947 1.97024,-0.65347 3.56225,-0.54313 5.39785,0.37414 1.51139,0.75525 2.8574,1.85179 2.27308,1.85179 -0.15026,0 -0.4366,-0.19754 -0.63632,-0.43898 -0.19972,-0.24144 -0.95844,-0.71653 -1.68604,-1.05575 -1.54475,-0.72019 -4.38245,-0.84766 -5.76319,-0.25888 -1.4665701,0.62538 -2.9349601,1.98466 -3.8366301,3.55155 -0.64159,1.11493 -0.82126,1.30193 -0.68755,0.7156 z m 13.2275201,-1.57924 c -0.24135,-0.36834 -0.32119,-0.66972 -0.17744,-0.66972 0.29334,0 0.91737,1.03832 0.73415,1.22155 -0.0648,0.0648 -0.31536,-0.18349 -0.55671,-0.55183 z m -11.2745301,0.28872 c 0,-0.0549 0.20836,-0.2633 0.46302,-0.46302 0.41964,-0.32911 0.429,-0.31975 0.0999,0.0999 -0.34565,0.44073 -0.56292,0.58088 -0.56292,0.36312 z m 1.05833,-1.22302 c 0,-0.14552 0.11907,-0.26458 0.26459,-0.26458 0.14552,0 0.2645801,0.11906 0.2645801,0.26458 0,0.14552 -0.1190601,0.26458 -0.2645801,0.26458 -0.14552,0 -0.26459,-0.11906 -0.26459,-0.26458 z m 1.0583401,-0.52917 c 0.21828,-0.14106 0.51593,-0.25648 0.66146,-0.25648 0.14552,0 0.086,0.11542 -0.1323,0.25648 -0.21828,0.14107 -0.51593,0.25648 -0.66145,0.25648 -0.14553,0 -0.086,-0.11541 0.13229,-0.25648 z m -2.3812501,12.80399 c 0,-0.0572 -0.1786,-0.10399 -0.39688,-0.10399 -0.21828,0 -0.39687,0.11533 -0.39687,0.25628 0,0.14096 0.17859,0.18775 0.39687,0.10399 0.21828,-0.0838 0.39688,-0.19909 0.39688,-0.25628 z m -2.46345,-1.36076 c -0.0666,-0.25466 -0.121,-0.0463 -0.121,0.46302 0,0.50933 0.0545,0.71769 0.121,0.46302 0.0665,-0.25466 0.0665,-0.67138 0,-0.92604 z m 0.79375,0 c -0.0665,-0.25466 -0.121,-0.0463 -0.121,0.46302 0,0.50933 0.0545,0.71769 0.121,0.46302 0.0666,-0.25466 0.0666,-0.67138 0,-0.92604 z m -1.5053,0.5797 c 0,-0.22687 -0.11907,-0.33891 -0.26459,-0.24897 -0.14552,0.0899 -0.26458,0.27556 -0.26458,0.41249 0,0.13694 0.11906,0.24897 0.26458,0.24897 0.14552,0 0.26459,-0.18562 0.26459,-0.41249 z m 22.2249971,-0.91043 c 0.218281,-0.14106 0.277812,-0.25648 0.132291,-0.25648 -0.14552,0 -0.443177,0.11542 -0.661458,0.25648 -0.218281,0.14107 -0.277812,0.25648 -0.132292,0.25648 0.145521,0 0.443178,-0.11541 0.661459,-0.25648 z m -12.435417,-0.62444 c 0,-0.24134 -0.47645,-0.40903 -1.44664,-0.50916 -1.61498,-0.16668 -3.08172,-1.08573 -3.7283301,-2.33614 -0.60325,-1.16656 -0.49208,-3.43134 0.22033,-4.48848 1.4910101,-2.21251 4.1751601,-2.79475 6.1820101,-1.34099 1.29233,0.93616 1.94763,1.9083 1.94763,2.88933 0,0.41387 0.17009,0.98361 0.37798,1.26608 0.33809,0.45939 0.3958,0.46766 0.54683,0.0783 0.2333,-0.60143 -0.27429,-2.3491 -0.99129,-3.41305 -0.79026,-1.17267 -1.99333,-1.84223 -3.73474,-2.07854 -6.2622701,-0.84981 -8.0217901,8.5534 -1.87031,9.99526 1.58423,0.37134 2.49653,0.34846 2.49653,-0.0626 z m 8.995833,-2.41418 c 0,-0.18489 -0.190238,-0.49405 -0.422751,-0.68702 -0.295558,-0.24529 -0.380169,-0.61326 -0.281217,-1.22302 0.16306,-1.00483 -0.0042,-1.14471 -0.331039,-0.27686 -0.148913,0.3954 -0.0952,0.84767 0.159962,1.3468 0.211291,0.41332 0.322085,0.91327 0.246205,1.111 -0.08916,0.23236 -0.0024,0.30748 0.245441,0.2124 0.21087,-0.0809 0.383399,-0.2984 0.383399,-0.4833 z M 8.2807979,144.09786 c -0.31191,-0.53637 -0.38723,-0.36469 -0.13191,0.30066 0.0907,0.23646 0.22072,0.37419 0.28884,0.30606 0.0681,-0.0681 -0.002,-0.34114 -0.15693,-0.60672 z m 16.9967111,-1.01203 c 0.08376,-0.21828 0.04971,-0.39688 -0.07568,-0.39688 -0.125384,0 -0.296503,0.1786 -0.380267,0.39688 -0.08376,0.21828 -0.04971,0.39687 0.07568,0.39687 0.125384,0 0.296503,-0.17859 0.380267,-0.39687 z M 7.9000679,142.63934 c -0.0845,-0.21106 -0.14716,-0.14837 -0.15985,0.15986 -0.0115,0.27891 0.051,0.43518 0.13896,0.34726 0.0879,-0.0879 0.0973,-0.31612 0.0209,-0.50712 z m 15.2936201,-5.4663 c -0.289227,-0.28923 -0.705112,1.31428 -0.5163,1.99067 0.193815,0.69433 0.223263,0.65424 0.416785,-0.56742 0.114528,-0.723 0.159308,-1.36346 0.09951,-1.42325 z m 1.859,1.08225 c -0.453173,-0.41517 -0.469551,-0.41614 -0.16432,-0.01 0.18646,0.24829 0.251767,0.60548 0.145132,0.79375 -0.156136,0.27567 -0.124142,0.27756 0.16432,0.01 0.299249,-0.27787 0.275362,-0.40851 -0.145132,-0.79375 z m -2.58835,-1.28244 c -0.08792,-0.0879 -0.316124,-0.0973 -0.507119,-0.0209 -0.211066,0.0845 -0.148373,0.14716 0.159853,0.15985 0.278913,0.0115 0.435184,-0.051 0.347266,-0.13896 z m -1.426975,-1.51159 c -0.203544,-0.11893 -0.574695,-0.16251 -0.824785,-0.0968 -0.3321,0.0872 -0.29418,0.12768 0.1406,0.15009 0.42578,0.022 0.600614,0.20023 0.613914,0.62601 0.01762,0.56445 0.02953,0.56788 0.229471,0.0661 0.141801,-0.35583 0.08965,-0.6 -0.1592,-0.7454 z m -6.901885,0.42638 c -0.32743,-0.0631 -0.86321,-0.0631 -1.19063,0 -0.32742,0.0631 -0.0595,0.11467 0.59531,0.11467 0.65485,0 0.92274,-0.0516 0.59532,-0.11467 z m 11.195202,-1.07553 c -0.189854,-0.18985 -0.657783,0.19996 -0.977088,0.81397 -0.287845,0.55353 -0.269465,0.55074 0.394409,-0.0599 0.38298,-0.35225 0.645184,-0.69159 0.582679,-0.7541 z m -2.456183,0.19343 c -0.07762,-0.29681 -0.200244,-0.48054 -0.272499,-0.40828 -0.14314,0.14313 0.109693,0.94794 0.297799,0.94794 0.0637,0 0.05232,-0.24284 -0.02529,-0.53966 z m -1.661419,-0.51867 c -0.363802,-0.11651 -0.89958,-0.21184 -1.19062,-0.21184 -0.41902,0 -0.39148,0.0441 0.13229,0.21184 0.3638,0.11651 0.89958,0.21184 1.190622,0.21184 0.419012,0 0.391472,-0.0441 -0.132292,-0.21184 z m 1.852083,-0.66146 c 0,-0.21828 -0.115326,-0.39687 -0.25628,-0.39687 -0.140952,0 -0.187746,0.17859 -0.103984,0.39687 0.08376,0.21828 0.199088,0.39688 0.256281,0.39688 0.05719,0 0.103983,-0.1786 0.103983,-0.39688 z m 1.12448,-1.36585 c -0.181901,-0.0734 -0.479558,-0.0734 -0.661459,0 -0.181901,0.0734 -0.03307,0.13345 0.330729,0.13345 0.363803,0 0.512631,-0.06 0.33073,-0.13345 z m 0.878795,-2.31942 c 0.476416,-0.47641 0.479237,-0.68035 0.0094,-0.68035 -0.202713,0 -0.434009,0.17054 -0.513995,0.37898 -0.07999,0.20844 -0.539208,0.42751 -1.020495,0.48682 -0.864368,0.10653 -0.862706,0.10836 0.136019,0.15019 0.575609,0.0241 1.173882,-0.12046 1.389063,-0.33564 z M 10.844718,203.0978 c 0.191,-0.0764 0.4192,-0.067 0.50712,0.0209 0.0879,0.0879 -0.0684,0.15046 -0.34727,0.13897 -0.30822,-0.0127 -0.37092,-0.0754 -0.15985,-0.15985 z m -0.21497,-0.75361 c 0,-0.21371 0.17859,-0.38857 0.39687,-0.38857 0.21828,0 0.39688,0.10633 0.39688,0.23628 0,0.12995 -0.1786,0.3048 -0.39688,0.38857 -0.24175,0.0928 -0.39687,5.3e-4 -0.39687,-0.23628 z m 2.11666,0.008 c 0,-0.50083 0.2872,-0.50339 0.94162,-0.008 0.49194,0.37208 0.48292,0.38881 -0.21401,0.39687 -0.47411,0.005 -0.72761,-0.12986 -0.72761,-0.38846 z m 3.96875,0.13229 c 0,-0.14552 0.11907,-0.26458 0.26459,-0.26458 0.14552,0 0.26458,0.11906 0.26458,0.26458 0,0.14552 -0.11906,0.26459 -0.26458,0.26459 -0.14552,0 -0.26459,-0.11907 -0.26459,-0.26459 z m -6.08541,-1.00798 c 0,-0.14207 0.18854,-0.33067 0.41898,-0.4191 0.25768,-0.0989 0.37864,-0.0398 0.31419,0.1536 -0.13183,0.3955 -0.73317,0.61327 -0.73317,0.2655 z m 2.38125,-0.0302 c 0.35277,-0.25309 0.35277,-0.31636 0,-0.56945 -0.35278,-0.25309 -0.35278,-0.27269 0,-0.17639 0.21828,0.0596 0.39687,0.26709 0.39687,0.46112 0,0.19402 -0.17859,0.40152 -0.39687,0.46111 -0.35278,0.0963 -0.35278,0.0767 0,-0.17639 z m 3.83646,-0.0202 c 0.0899,-0.14552 0.21602,-0.26458 0.28019,-0.26458 0.0642,0 0.11668,0.11906 0.11668,0.26458 0,0.14552 -0.12609,0.26459 -0.2802,0.26459 -0.15411,0 -0.20661,-0.11907 -0.11667,-0.26459 z m -0.1323,-0.79375 c 0,-0.14552 0.11907,-0.26458 0.26459,-0.26458 0.14552,0 0.26458,0.11906 0.26458,0.26458 0,0.14552 -0.11906,0.26459 -0.26458,0.26459 -0.14552,0 -0.26459,-0.11907 -0.26459,-0.26459 z m 1.45521,0 c -0.0899,-0.14552 -0.0374,-0.26458 0.11668,-0.26458 0.15411,0 0.2802,0.11906 0.2802,0.26458 0,0.14552 -0.0525,0.26459 -0.11668,0.26459 -0.0642,0 -0.19026,-0.11907 -0.2802,-0.26459 z m -7.54062,-0.21422 c 0,-0.14208 0.18854,-0.33068 0.41898,-0.41911 0.25768,-0.0989 0.37864,-0.0397 0.31419,0.1536 -0.13183,0.39551 -0.73317,0.61327 -0.73317,0.26551 z m 4.01052,-0.57953 c 0,-0.3638 0.0601,-0.51263 0.13346,-0.33073 0.0734,0.18191 0.0734,0.47956 0,0.66146 -0.0734,0.1819 -0.13346,0.0331 -0.13346,-0.33073 z m -1.14972,0.0838 c 0.191,-0.0764 0.4192,-0.067 0.50712,0.0209 0.0879,0.0879 -0.0683,0.15046 -0.34726,0.13897 -0.30823,-0.0127 -0.37092,-0.0754 -0.15986,-0.15985 z m 3.22461,-0.0838 c 0,-0.14552 0.11907,-0.26458 0.26459,-0.26458 0.14552,0 0.26458,0.11906 0.26458,0.26458 0,0.14552 -0.11906,0.26459 -0.26458,0.26459 -0.14552,0 -0.26459,-0.11907 -0.26459,-0.26459 z m -6.2177,-0.26458 c -0.0899,-0.14552 -0.0374,-0.26458 0.11667,-0.26458 0.15411,0 0.2802,0.11906 0.2802,0.26458 0,0.14552 -0.0525,0.26458 -0.11668,0.26458 -0.0642,0 -0.19026,-0.11906 -0.28019,-0.26458 z m 7.54062,0 c 0,-0.14552 0.11906,-0.26458 0.26458,-0.26458 0.14552,0 0.26459,0.11906 0.26459,0.26458 0,0.14552 -0.11907,0.26458 -0.26459,0.26458 -0.14552,0 -0.26458,-0.11906 -0.26458,-0.26458 z m -4.49792,-0.26458 c 0,-0.14552 -0.17859,-0.26459 -0.39687,-0.26459 -0.32746,0 -0.39688,-0.4836 -0.39688,-2.76497 0,-2.35419 -0.0688,-2.80505 -0.46302,-3.03467 -0.36833,-0.21453 -0.24658,-0.26706 0.59532,-0.25684 0.58208,0.007 0.9095,0.0729 0.7276,0.1463 -0.52286,0.21097 -0.38604,0.57106 0.26458,0.69638 0.55163,0.10624 0.55489,0.1173 0.0444,0.15069 -0.49343,0.0323 -0.55278,0.20853 -0.56899,1.68968 -0.01,0.9095 -0.0816,1.98106 -0.15919,2.38125 -0.10104,0.52104 -0.0334,0.7276 0.23826,0.7276 0.20865,0 0.37936,0.17859 0.37936,0.39688 0,0.21828 -0.0595,0.39687 -0.13229,0.39687 -0.0728,0 -0.1323,-0.11906 -0.1323,-0.26458 z M 2.6922479,198.76465 c 0,-0.1541 0.11906,-0.20661 0.26458,-0.11667 0.14552,0.0899 0.26458,0.21603 0.26458,0.2802 0,0.0642 -0.11906,0.11667 -0.26458,0.11667 -0.14552,0 -0.26458,-0.12609 -0.26458,-0.2802 z m 11.3770801,0.0598 c 0,-0.2577 0.96328,-0.22746 1.22933,0.0386 0.1,0.1 -0.13572,0.18178 -0.52377,0.18178 -0.38806,0 -0.70556,-0.0992 -0.70556,-0.22036 z m 1.5875,-0.0442 c 0,-0.14552 0.11906,-0.26458 0.26458,-0.26458 0.14552,0 0.26459,0.11906 0.26459,0.26458 0,0.14552 -0.11907,0.26458 -0.26459,0.26458 -0.14552,0 -0.26458,-0.11906 -0.26458,-0.26458 z m 0.79375,0 c 0,-0.14552 0.11906,-0.26458 0.26458,-0.26458 0.14552,0 0.26459,0.11906 0.26459,0.26458 0,0.14552 -0.11907,0.26458 -0.26459,0.26458 -0.14552,0 -0.26458,-0.11906 -0.26458,-0.26458 z m 0.79375,0 c 0,-0.14552 0.11906,-0.26458 0.26458,-0.26458 0.14552,0 0.26459,0.11906 0.26459,0.26458 0,0.14552 -0.11907,0.26458 -0.26459,0.26458 -0.14552,0 -0.26458,-0.11906 -0.26458,-0.26458 z m 0.79375,0 c 0,-0.14552 0.11906,-0.26458 0.26458,-0.26458 0.14552,0 0.26459,0.11906 0.26459,0.26458 0,0.14552 -0.11907,0.26458 -0.26459,0.26458 -0.14552,0 -0.26458,-0.11906 -0.26458,-0.26458 z m 0.79375,0 c 0,-0.14552 0.11906,-0.26458 0.26458,-0.26458 0.14552,0 0.26459,0.11906 0.26459,0.26458 0,0.14552 -0.11907,0.26458 -0.26459,0.26458 -0.14552,0 -0.26458,-0.11906 -0.26458,-0.26458 z m -8.20208,-0.35278 c 0,-0.19403 0.17859,-0.35278 0.39687,-0.35278 0.21828,0 0.39688,0.15875 0.39688,0.35278 0,0.19403 -0.1786,0.35278 -0.39688,0.35278 -0.21828,0 -0.39687,-0.15875 -0.39687,-0.35278 z m -7.8033401,-0.96711 c -0.0927,-0.14998 0.0135,-0.19433 0.24897,-0.10398 0.45837,0.17589 0.54223,0.36554 0.16165,0.36554 -0.13693,0 -0.32171,-0.1177 -0.41062,-0.26156 z m 7.6965901,0.0383 c -0.0916,-0.14815 -0.0375,-0.34904 0.12003,-0.44642 0.4068,-0.25141 0.66926,0.093 0.32967,0.43255 -0.19002,0.19002 -0.33801,0.19458 -0.4497,0.0139 z m 7.51508,-0.83509 c 0,-0.14552 0.11906,-0.26458 0.26458,-0.26458 0.14552,0 0.26459,0.11906 0.26459,0.26458 0,0.14552 -0.11907,0.26459 -0.26459,0.26459 -0.14552,0 -0.26458,-0.11907 -0.26458,-0.26459 z m -7.46477,-1.05833 c 0.0641,-0.43656 0.20853,-0.79375 0.32102,-0.79375 0.11249,0 0.25695,0.35719 0.32102,0.79375 0.0894,0.6089 0.0146,0.79375 -0.32102,0.79375 -0.33563,0 -0.41039,-0.18485 -0.32102,-0.79375 z m 6.14185,0 c 0,-0.14552 0.11907,-0.26458 0.26459,-0.26458 0.14552,0 0.26458,0.11906 0.26458,0.26458 0,0.14552 -0.11906,0.26458 -0.26458,0.26458 -0.14552,0 -0.26459,-0.11906 -0.26459,-0.26458 z m 1.32292,0 c 0,-0.14552 0.11906,-0.26458 0.26458,-0.26458 0.14552,0 0.26459,0.11906 0.26459,0.26458 0,0.14552 -0.11907,0.26458 -0.26459,0.26458 -0.14552,0 -0.26458,-0.11906 -0.26458,-0.26458 z m -1.19062,-0.79375 c -0.0899,-0.14552 -0.0374,-0.26458 0.11667,-0.26458 0.15411,0 0.2802,0.11906 0.2802,0.26458 0,0.14552 -0.0525,0.26458 -0.11668,0.26458 -0.0642,0 -0.19026,-0.11906 -0.28019,-0.26458 z m -3.175,-0.26458 c -0.0899,-0.14552 -0.0445,-0.26459 0.10106,-0.26459 0.14552,0 0.33816,0.11907 0.4281,0.26459 0.0899,0.14552 0.0445,0.26458 -0.10106,0.26458 -0.14552,0 -0.33817,-0.11906 -0.4281,-0.26458 z m -8.8635501,-0.52917 c 0,-0.14552 0.11907,-0.26458 0.26459,-0.26458 0.14552,0 0.26458,0.11906 0.26458,0.26458 0,0.14552 -0.11906,0.26458 -0.26458,0.26458 -0.14552,0 -0.26459,-0.11906 -0.26459,-0.26458 z m 13.2291701,-0.54478 c 0,-0.15411 0.11906,-0.20661 0.26458,-0.11668 0.14552,0.0899 0.26459,0.21603 0.26459,0.2802 0,0.0642 -0.11907,0.11668 -0.26459,0.11668 -0.14552,0 -0.26458,-0.12609 -0.26458,-0.2802 z m 0.79375,-0.24897 c 0,-0.14552 0.11906,-0.26458 0.26458,-0.26458 0.14552,0 0.26459,0.11906 0.26459,0.26458 0,0.14552 -0.11907,0.26458 -0.26459,0.26458 -0.14552,0 -0.26458,-0.11906 -0.26458,-0.26458 z m -3.70417,-0.26458 c 0,-0.14552 0.11907,-0.26459 0.26459,-0.26459 0.14552,0 0.26458,0.11907 0.26458,0.26459 0,0.14552 -0.11906,0.26458 -0.26458,0.26458 -0.14552,0 -0.26459,-0.11906 -0.26459,-0.26458 z m -8.7312501,-1.05834 c 0,-0.14552 0.11907,-0.26458 0.26459,-0.26458 0.14552,0 0.26458,0.11906 0.26458,0.26458 0,0.14552 -0.11906,0.26459 -0.26458,0.26459 -0.14552,0 -0.26459,-0.11907 -0.26459,-0.26459 z m 12.4354201,0 c 0,-0.14552 0.11906,-0.26458 0.26458,-0.26458 0.14552,0 0.26459,0.11906 0.26459,0.26458 0,0.14552 -0.11907,0.26459 -0.26459,0.26459 -0.14552,0 -0.26458,-0.11907 -0.26458,-0.26459 z m -6.92878,-0.18074 c 0.191,-0.0764 0.4192,-0.067 0.50712,0.0209 0.0879,0.0879 -0.0683,0.15045 -0.34726,0.13896 -0.30823,-0.0127 -0.37092,-0.0754 -0.15986,-0.15985 z m 1.0418,0.0281 c -0.28008,-0.28246 -0.24791,-2.2286 0.0368,-2.2286 0.12939,0 0.51635,0.23417 0.85989,0.52037 0.55337,0.461 0.56857,0.52137 0.1333,0.52916 -0.33377,0.006 -0.4408,0.14048 -0.33376,0.41942 0.0867,0.22584 0.0489,0.34345 -0.084,0.26135 -0.13284,-0.0821 -0.28031,0.0415 -0.3277,0.27458 -0.0474,0.23311 -0.17547,0.33379 -0.28461,0.22372 z m -8.1318901,-0.70724 c -0.002,-0.40018 0.11502,-0.72761 0.26054,-0.72761 0.33454,0 0.33454,0.54067 0,1.05834 -0.19987,0.30926 -0.25738,0.23625 -0.26054,-0.33073 z m 12.0345001,0.0661 c 0.0899,-0.14552 0.21602,-0.26458 0.28019,-0.26458 0.0642,0 0.11668,0.11906 0.11668,0.26458 0,0.14552 -0.12609,0.26459 -0.2802,0.26459 -0.15411,0 -0.20661,-0.11907 -0.11667,-0.26459 z m 1.32291,-0.26458 c 0.0899,-0.14552 0.21603,-0.26458 0.2802,-0.26458 0.0642,0 0.11668,0.11906 0.11668,0.26458 0,0.14552 -0.12609,0.26458 -0.2802,0.26458 -0.15411,0 -0.20662,-0.11906 -0.11668,-0.26458 z M 3.4859979,190.57813 c 0,-0.14552 0.11906,-0.26459 0.26458,-0.26459 0.14552,0 0.26458,0.11907 0.26458,0.26459 0,0.14552 -0.11906,0.26458 -0.26458,0.26458 -0.14552,0 -0.26458,-0.11906 -0.26458,-0.26458 z m 1.45521,-1.05834 c 0.0899,-0.14552 0.21602,-0.26458 0.28019,-0.26458 0.0642,0 0.11668,0.11906 0.11668,0.26458 0,0.14552 -0.12609,0.26459 -0.2802,0.26459 -0.15411,0 -0.20661,-0.11907 -0.11667,-0.26459 z m 9.3430901,0.0839 c 0.191,-0.0764 0.4192,-0.067 0.50712,0.0209 0.0879,0.0879 -0.0683,0.15046 -0.34726,0.13897 -0.30823,-0.0127 -0.37092,-0.0754 -0.15986,-0.15985 z m 1.63711,-0.34843 c 0,-0.14552 0.11907,-0.26458 0.26459,-0.26458 0.14552,0 0.26458,0.11906 0.26458,0.26458 0,0.14552 -0.11906,0.26458 -0.26458,0.26458 -0.14552,0 -0.26459,-0.11906 -0.26459,-0.26458 z m -2.73402,-0.17639 c -0.097,-0.097 -0.17639,-0.505 -0.17639,-0.90664 0,-0.47602 -0.1612,-0.76961 -0.46302,-0.8433 -0.25467,-0.0622 0.0486,-0.10321 0.67404,-0.0912 0.93875,0.018 1.06288,0.0761 0.71177,0.33283 -0.24038,0.17577 -0.31417,0.37966 -0.16972,0.46894 0.14057,0.0869 0.19334,0.39596 0.11727,0.68686 -0.14179,0.54221 -0.38215,0.66431 -0.69395,0.35251 z m -14.1993101,-0.88194 c 0,-0.14552 0.11906002,-0.26459 0.26458002,-0.26459 0.14552,0 0.26459,0.11907 0.26459,0.26459 0,0.14552 -0.11907,0.26458 -0.26459,0.26458 -0.14552,0 -0.26458002,-0.11906 -0.26458002,-0.26458 z m 16.6687501,-0.79375 c -0.23847,-0.15411 -0.2711,-0.2581 -0.0818,-0.26054 0.17331,-0.002 0.3887,0.11502 0.47864,0.26054 0.20301,0.32849 0.11142,0.32849 -0.39688,0 z m -16.6687501,-0.79375 c 0,-0.14552 0.11906002,-0.26459 0.26458002,-0.26459 0.14552,0 0.26459,0.11907 0.26459,0.26459 0,0.14552 -0.11907,0.26458 -0.26459,0.26458 -0.14552,0 -0.26458002,-0.11906 -0.26458002,-0.26458 z m 1.27331002,-0.18074 c 0.19099,-0.0764 0.4192,-0.067 0.50712,0.0209 0.0879,0.0879 -0.0684,0.15046 -0.34727,0.13897 -0.30822,-0.0127 -0.37092,-0.0754 -0.15985,-0.15985 z m 3.17499998,0 c 0.19099,-0.0764 0.4192,-0.067 0.50712,0.0209 0.0879,0.0879 -0.0684,0.15046 -0.34727,0.13897 -0.30822,-0.0127 -0.37092,-0.0754 -0.15985,-0.15985 z m 15.1308601,-0.49634 c 0,-0.22687 0.121,-0.3377 0.2689,-0.2463 0.14789,0.0914 0.2004,0.27703 0.11667,0.41249 -0.22681,0.36699 -0.38557,0.29856 -0.38557,-0.16619 z m 4.034893,0.22109 c -1.24169,-0.15409 -1.060863,-0.5032 0.198437,-0.38311 0.582083,0.0555 1.058333,0.20748 1.058333,0.33772 0,0.13024 -0.0893,0.21774 -0.198437,0.19445 -0.109141,-0.0233 -0.585391,-0.0904 -1.058333,-0.14906 z m -9.921873,-0.24841 c 0.24674,-0.0996 0.33073,-1.29896 0.33073,-4.72321 0,-4.54722 -0.006,-4.59089 -0.59532,-4.71172 -0.32742,-0.0671 -0.0818,-0.11117 0.54575,-0.098 l 1.14106,0.024 -0.0827,1.20406 c -0.0588,0.85597 0.0129,1.18494 0.24801,1.13792 0.48439,-0.0969 0.40411,0.37825 -0.0964,0.5703 -0.28898,0.11089 -0.38641,0.37673 -0.30128,0.82206 0.0842,0.44046 0.007,0.65816 -0.23437,0.65816 -0.1981,0 -0.36018,0.23813 -0.36018,0.52917 0,0.45001 0.188,0.53438 1.25677,0.564 1.18255,0.0328 1.20208,0.0445 0.33073,0.19843 -0.87463,0.15453 -0.92667,0.22252 -0.93742,1.22474 -0.006,0.58362 -0.0975,1.20047 -0.20275,1.37078 -0.10526,0.17031 -0.0646,0.38801 0.0904,0.48378 0.42972,0.26558 -0.23016,0.92477 -0.90083,0.89988 -0.3096,-0.0115 -0.41408,-0.0809 -0.23218,-0.15434 z m -14.2213601,-3.79352 c 0,-0.14552 0.11907,-0.26458 0.26459,-0.26458 0.14552,0 0.26458,0.11906 0.26458,0.26458 0,0.14552 -0.11906,0.26458 -0.26458,0.26458 -0.14552,0 -0.26459,-0.11906 -0.26459,-0.26458 z m 23.9447951,0 c -0.50492,-0.21697 -0.501888,-0.22824 0.06615,-0.24599 0.327422,-0.0102 0.595312,0.10047 0.595312,0.24599 0,0.14552 -0.02977,0.25621 -0.06615,0.24599 -0.03638,-0.0102 -0.304271,-0.12092 -0.595312,-0.24599 z M 1.8323479,181.93628 c 0.1819,-0.0734 0.47956,-0.0734 0.66146,0 0.1819,0.0734 0.0331,0.13346 -0.33073,0.13346 -0.3638,0 -0.51263,-0.0601 -0.33073,-0.13346 z m -2.44738998,-1.41227 c 0.0899,-0.14552 0.27555,-0.26458 0.41248,-0.26458 0.13694,0 0.24897,0.11906 0.24897,0.26458 0,0.14552 -0.18562,0.26458 -0.41249,0.26458 -0.22687,0 -0.3389,-0.11906 -0.24896,-0.26458 z m 0.92604,-0.0156 c 0,-0.15411 0.11906,-0.20661 0.26458,-0.11668 0.14552,0.0899 0.26458,0.21603 0.26458,0.2802 0,0.0642 -0.11906,0.11667 -0.26458,0.11667 -0.14552,0 -0.26458,-0.12609 -0.26458,-0.2802 z m 2.38124998,-0.0285 c 0,-0.16977 0.0752,-0.2335 0.16708,-0.1416 0.0919,0.0919 0.41931,0.0327 0.7276,-0.13151 0.50504,-0.26904 0.52458,-0.25502 0.1974,0.1416 -0.41762,0.50624 -1.09208,0.58747 -1.09208,0.1315 z m 5.55625,0.0178 c 0,-0.14825 0.11906,-0.19596 0.26458,-0.10603 0.14552,0.0899 0.26458,0.0263 0.26458,-0.14144 0,-0.16773 -0.23812,-0.36724 -0.52916,-0.44335 -0.6038,-0.1579 -0.71884,-0.60584 -0.15559,-0.60584 0.24145,0 0.34789,-0.23393 0.30096,-0.66145 -0.0399,-0.36381 0.0301,-0.66146 0.15559,-0.66146 0.12551,0 0.2282,-0.11533 0.2282,-0.25628 0,-0.14096 -0.20836,-0.19077 -0.46302,-0.11069 -0.38719,0.12174 -0.37636,0.0716 0.0661,-0.30596 0.52451,-0.44756 0.52392,-0.4503 -0.0661,-0.31095 -0.32742,0.0773 -0.59531,0.0868 -0.59531,0.021 0,-0.17034 1.26985,-1.4184 1.44318,-1.4184 0.0794,0 0.14432,1.07156 0.14432,2.38125 0,1.41111 0.10779,2.38125 0.26458,2.38125 0.6516501,0 0.18011,0.40271 -0.52969,0.45237 -0.43627,0.0305 -0.79322,-0.0658 -0.79322,-0.21405 z m 8.1524701,0.11011 c 0.191,-0.0764 0.4192,-0.067 0.50712,0.0209 0.0879,0.0879 -0.0683,0.15045 -0.34727,0.13896 -0.30822,-0.0127 -0.37092,-0.0754 -0.15985,-0.15985 z m 4.944402,-0.0838 c 0.08994,-0.14552 0.216027,-0.26458 0.280199,-0.26458 0.06417,0 0.116676,0.11906 0.116676,0.26458 0,0.14552 -0.12609,0.26458 -0.280199,0.26458 -0.154109,0 -0.206613,-0.11906 -0.116676,-0.26458 z M 3.4859979,176.61157 c 0,-0.11455 0.26639,-0.22834 0.59197,-0.25287 0.46525,-0.035 0.50773,0.009 0.19844,0.20423 -0.48376,0.30586 -0.79041,0.32474 -0.79041,0.0486 z m -3.70416998,-0.32088 c 0,-0.14552 0.11906,-0.26459 0.26458,-0.26459 0.14552,0 0.26459,0.11907 0.26459,0.26459 0,0.14552 -0.11907,0.26458 -0.26459,0.26458 -0.14552,0 -0.26458,-0.11906 -0.26458,-0.26458 z m 1.05833,0 c 0,-0.14552 0.11907,-0.26459 0.26458998,-0.26459 0.14552,0 0.26458,0.11907 0.26458,0.26459 0,0.14552 -0.11906,0.26458 -0.26458,0.26458 -0.14551998,0 -0.26458998,-0.11906 -0.26458998,-0.26458 z m 5.82083998,0 c 0,-0.14552 0.32742,-0.25622 0.7276,-0.24599 0.64475,0.0165 0.66735,0.0445 0.19844,0.24599 -0.72268,0.31054 -0.92604,0.31054 -0.92604,0 z m 8.1524701,0.0838 c 0.191,-0.0764 0.4192,-0.067 0.50712,0.0209 0.0879,0.0879 -0.0684,0.15045 -0.34727,0.13896 -0.30822,-0.0127 -0.37092,-0.0754 -0.15985,-0.15985 z m 6.135027,-0.0838 c 0,-0.14552 0.119062,-0.26459 0.264583,-0.26459 0.145521,0 0.264583,0.11907 0.264583,0.26459 0,0.14552 -0.119062,0.26458 -0.264583,0.26458 -0.145521,0 -0.264583,-0.11906 -0.264583,-0.26458 z m -2.230217,-1.2926 c -0.0614,-0.0993 0.71297,-0.21423 1.72077,-0.25537 1.0078,-0.0411 1.832025,0.0224 1.831609,0.14127 -7.93e-4,0.26139 -3.393989,0.37038 -3.552379,0.1141 z m -15.1661401,-0.2127 c 0.25466,-0.0666 0.67138,-0.0666 0.92604,0 0.25467,0.0666 0.0463,0.121 -0.46302,0.121 -0.50932,0 -0.71768,-0.0545 -0.46302,-0.121 z m 3.63802,-1.40512 c 0,-0.14552 0.11907,-0.26458 0.26459,-0.26458 0.14552,0 0.26458,0.11906 0.26458,0.26458 0,0.14552 -0.11906,0.26458 -0.26458,0.26458 -0.14552,0 -0.26459,-0.11906 -0.26459,-0.26458 z m -8.20208,-0.26458 c 0,-0.14552 0.11906002,-0.26459 0.26458002,-0.26459 0.14552,0 0.26459,0.11907 0.26459,0.26459 0,0.14552 -0.11907,0.26458 -0.26459,0.26458 -0.14552,0 -0.26458002,-0.11906 -0.26458002,-0.26458 z m 19.3145801,-0.52917 c 0,-0.14552 0.11907,-0.26458 0.26459,-0.26458 0.14552,0 0.26458,0.11906 0.26458,0.26458 0,0.14552 -0.11906,0.26458 -0.26458,0.26458 -0.14552,0 -0.26459,-0.11906 -0.26459,-0.26458 z m -19.3145801,-0.52917 c 0,-0.14552 0.11906002,-0.26458 0.26458002,-0.26458 0.14552,0 0.26459,0.11906 0.26459,0.26458 0,0.14552 -0.11907,0.26459 -0.26459,0.26459 -0.14552,0 -0.26458002,-0.11907 -0.26458002,-0.26459 z m -0.52917,-1.32291 c 0,-0.14552 0.11907,-0.26459 0.26459,-0.26459 0.14552,0 0.26458,0.11907 0.26458,0.26459 0,0.14552 -0.11906,0.26458 -0.26458,0.26458 -0.14552,0 -0.26459,-0.11906 -0.26459,-0.26458 z m 1.32292002,0.0164 c 0,-0.13647 0.23813,-0.2302 0.52917,-0.20828 0.29104,0.0219 0.52916,0.13359 0.52916,0.24814 0,0.11456 -0.23812,0.20828 -0.52916,0.20828 -0.29104,0 -0.52917,-0.11166 -0.52917,-0.24814 z m 1.32291998,-0.0321 c 0,-0.1541 0.11906,-0.20661 0.26458,-0.11667 0.14552,0.0899 0.26458,0.21603 0.26458,0.2802 0,0.0642 -0.11906,0.11666 -0.26458,0.11666 -0.14552,0 -0.26458,-0.12609 -0.26458,-0.2802 z m 0.79375,0.0769 c 0,-0.11734 0.38071,-0.24236 0.84603,-0.27781 0.97987,-0.0747 0.92736,0.0657 -0.11843,0.3166 -0.40018,0.096 -0.7276,0.0785 -0.7276,-0.0388 z m 14.0229101,-0.053 c 0,-0.14095 0.1786,-0.18774 0.39688,-0.10398 0.21828,0.0838 0.39687,0.19909 0.39687,0.25628 0,0.0572 -0.17859,0.10398 -0.39687,0.10398 -0.21828,0 -0.39688,-0.11532 -0.39688,-0.25628 z m 1.78903,0.0692 c 0.32911,-0.0633 0.80536,-0.0609 1.05833,0.005 0.25296,0.0662 -0.0163,0.118 -0.5984,0.11507 -0.58208,-0.003 -0.78905,-0.0571 -0.45993,-0.12041 z M 0.84015792,169.41146 c 0,-0.14552 0.11907,-0.26458 0.26458998,-0.26458 0.14552,0 0.26458,0.11906 0.26458,0.26458 0,0.14552 -0.11906,0.26458 -0.26458,0.26458 -0.14551998,0 -0.26458998,-0.11906 -0.26458998,-0.26458 z m 0.92604998,0 c -0.0899,-0.14552 -0.0374,-0.26458 0.11667,-0.26458 0.15411,0 0.2802,0.11906 0.2802,0.26458 0,0.14552 -0.0525,0.26458 -0.11668,0.26458 -0.0642,0 -0.19026,-0.11906 -0.28019,-0.26458 z m 19.1822871,0 c 0,-0.14552 0.119062,-0.26458 0.264583,-0.26458 0.145521,0 0.264583,0.11906 0.264583,0.26458 0,0.14552 -0.119062,0.26458 -0.264583,0.26458 -0.145521,0 -0.264583,-0.11906 -0.264583,-0.26458 z m 0.928708,-0.004 c 0.0914,-0.1479 0.277024,-0.2004 0.412491,-0.11668 0.366988,0.22681 0.298559,0.38558 -0.16619,0.38558 -0.22687,0 -0.337704,-0.12101 -0.246301,-0.2689 z M 5.0073479,169.23654 c 0.1819,-0.0734 0.47956,-0.0734 0.66146,0 0.1819,0.0734 0.0331,0.13346 -0.33073,0.13346 -0.3638,0 -0.51263,-0.0601 -0.33073,-0.13346 z m 6.4882101,-0.8831 c 0,-0.65485 0.0516,-0.92274 0.11466,-0.59532 0.0631,0.32743 0.0631,0.86321 0,1.19063 -0.0631,0.32742 -0.11466,0.0595 -0.11466,-0.59531 z m 6.70207,0.74965 c 0.0749,-0.12127 0.2483,-0.22049 0.38523,-0.22049 0.13693,0 0.24897,0.0992 0.24897,0.22049 0,0.12127 -0.17336,0.22049 -0.38524,0.22049 -0.21188,0 -0.32391,-0.0992 -0.24896,-0.22049 z M 3.6182879,168.61802 c 0.0899,-0.14552 0.21602,-0.26458 0.2802,-0.26458 0.0642,0 0.11667,0.11906 0.11667,0.26458 0,0.14552 -0.12609,0.26458 -0.28019,0.26458 -0.15411,0 -0.20662,-0.11906 -0.11668,-0.26458 z m 3.57187,-2.48268 c 0,-0.0558 0.23813,-0.16371 0.52917,-0.23982 0.29104,-0.0761 0.52917,-0.0305 0.52917,0.10144 0,0.13189 -0.23813,0.23981 -0.52917,0.23981 -0.29104,0 -0.52917,-0.0457 -0.52917,-0.10143 z m 15.0812531,-0.9569 c 0,-0.14552 0.119063,-0.26459 0.264584,-0.26459 0.145521,0 0.264583,0.11907 0.264583,0.26459 0,0.14552 -0.119062,0.26458 -0.264583,0.26458 -0.145521,0 -0.264584,-0.11906 -0.264584,-0.26458 z M 5.5530479,164.9977 c 0.191,-0.0764 0.4192,-0.067 0.50712,0.0209 0.0879,0.0879 -0.0683,0.15046 -0.34726,0.13897 -0.30823,-0.0127 -0.37092,-0.0754 -0.15986,-0.15985 z m 1.32292,0 c 0.191,-0.0764 0.4192,-0.067 0.50712,0.0209 0.0879,0.0879 -0.0684,0.15046 -0.34727,0.13897 -0.30822,-0.0127 -0.37092,-0.0754 -0.15985,-0.15985 z m -2.06706,-1.80364 c 0,-0.3638 0.12609,-0.66146 0.2802,-0.66146 0.15411,0 0.20172,0.12699 0.1058,0.28219 -0.0959,0.1552 0.0459,0.44907 0.31511,0.65304 0.46646,0.35339 0.46147,0.37126 -0.10579,0.37928 -0.46086,0.007 -0.59532,-0.14099 -0.59532,-0.65305 z m 1.32292,0.45357 c 0,-0.11434 0.23813,-0.20788 0.52917,-0.20788 0.29104,0 0.52916,0.0935 0.52916,0.20788 0,0.11434 -0.23812,0.20789 -0.52916,0.20789 -0.29104,0 -0.52917,-0.0935 -0.52917,-0.20789 z m 6.1515601,-0.13591 0.72761,-0.28752 v -3.3885 c 0,-1.86368 0.0855,-3.38851 0.19001,-3.38851 0.10451,0 0.43693,0.28736 0.73873,0.63857 0.30179,0.35122 0.90089,0.69057 1.33134,0.75411 0.4945,0.073 0.27124,0.13013 -0.60644,0.15517 -1.19946,0.0342 -1.38906,0.11188 -1.38906,0.56881 0,0.48081 0.18739,0.53219 2.05052,0.56218 2.03634,0.0328 2.04088,0.0344 0.65652,0.23628 -1.41536,0.20639 -2.18115,0.61228 -2.17382,1.15217 0.002,0.16408 0.11947,0.11974 0.26053,-0.0985 0.226,-0.34971 0.25696,-0.34814 0.26053,0.0132 0.002,0.22555 -0.13882,0.55298 -0.31345,0.7276 -0.24694,0.24694 -0.23974,0.3175 0.0324,0.3175 0.26789,0 0.27871,0.0858 0.0462,0.36598 -0.23422,0.28222 -0.21135,0.40142 0.0999,0.52086 0.22199,0.0852 0.40363,0.35997 0.40363,0.61063 0,0.40502 -0.0433,0.39858 -0.38846,-0.0578 -0.21366,-0.28247 -0.39043,-0.39453 -0.39283,-0.249 -0.007,0.45486 0.36332,0.85955 0.91358,0.99703 0.29104,0.0727 -0.30427,0.13335 -1.32292,0.13475 -1.60173,0.002 -1.75373,-0.0363 -1.12448,-0.28496 z m 6.49883,0.16306 c 0.191,-0.0764 0.4192,-0.067 0.50712,0.0209 0.0879,0.0879 -0.0684,0.15045 -0.34727,0.13896 -0.30822,-0.0127 -0.37092,-0.0754 -0.15985,-0.15985 z m 0.84336,0.0793 c 0,-0.0558 0.23813,-0.16371 0.52917,-0.23982 0.29104,-0.0761 0.529163,-0.0305 0.529163,0.10144 0,0.13189 -0.238123,0.23981 -0.529163,0.23981 -0.29104,0 -0.52917,-0.0456 -0.52917,-0.10143 z m 2.38125,-0.16315 c 0,-0.14552 0.357188,-0.26459 0.79375,-0.26459 0.436563,0 0.79375,0.11907 0.79375,0.26459 0,0.14552 -0.357187,0.26458 -0.79375,0.26458 -0.436562,0 -0.79375,-0.11906 -0.79375,-0.26458 z m 0.661458,-3.175 c 0.08994,-0.14552 0.216027,-0.26459 0.280199,-0.26459 0.06417,0 0.116676,0.11907 0.116676,0.26459 0,0.14552 -0.126089,0.26458 -0.280199,0.26458 -0.154109,0 -0.206613,-0.11906 -0.116676,-0.26458 z M 3.2214079,159.88676 c 0,-0.14552 0.11907,-0.26458 0.26459,-0.26458 0.14552,0 0.26458,0.11906 0.26458,0.26458 0,0.14552 -0.11906,0.26458 -0.26458,0.26458 -0.14552,0 -0.26459,-0.11906 -0.26459,-0.26458 z m -4.49791,-0.26458 c -0.21828,-0.14107 -0.27782,-0.25648 -0.13229,-0.25648 0.14552,0 0.44317002,0.11541 0.66145002,0.25648 0.21828,0.14106 0.27782,0.25648 0.1323,0.25648 -0.14553,0 -0.44318002,-0.11542 -0.66146002,-0.25648 z m 1.27330002,0.0838 c 0.191,-0.0764 0.4192,-0.067 0.50712,0.0209 0.0879,0.0879 -0.0683,0.15045 -0.34726,0.13896 -0.30823,-0.0127 -0.37092,-0.0754 -0.15986,-0.15985 z M 20.683911,159.25529 c 0,-0.0562 0.357188,-0.15468 0.79375,-0.21876 0.436563,-0.0641 0.79375,-0.018 0.79375,0.10226 0,0.12032 -0.357187,0.21876 -0.79375,0.21876 -0.436562,0 -0.79375,-0.046 -0.79375,-0.10226 z m 1.852084,-0.16232 c 0,-0.14552 0.119062,-0.26458 0.264583,-0.26458 0.145521,0 0.264583,0.11906 0.264583,0.26458 0,0.14552 -0.119062,0.26458 -0.264583,0.26458 -0.145521,0 -0.264583,-0.11906 -0.264583,-0.26458 z M 3.2214079,158.5638 c 0,-0.14552 0.12609,-0.26458 0.2802,-0.26458 0.15411,0 0.20662,0.11906 0.11668,0.26458 -0.0899,0.14552 -0.21603,0.26459 -0.2802,0.26459 -0.0642,0 -0.11668,-0.11907 -0.11668,-0.26459 z m 12.9645901,-0.80936 c 0,-0.15411 0.11906,-0.20662 0.26458,-0.11668 0.14552,0.0899 0.26458,0.21603 0.26458,0.2802 0,0.0642 -0.11906,0.11668 -0.26458,0.11668 -0.14552,0 -0.26458,-0.12609 -0.26458,-0.2802 z m -21.2549301,-4.59525 c -0.23716,-0.61803 0.52579,-1.02949 1.58902,-0.85696 1.42237,0.23082 1.57675,0.59013 0.20673,0.48117 -0.94298,-0.075 -1.17832,-0.009 -1.17832,0.3298 0,0.52538 -0.42142,0.55677 -0.61743,0.046 z m 1.27889,0.11295 c -0.0899,-0.14552 -0.0374,-0.26459 0.11667,-0.26459 0.15411,0 0.2802,0.11907 0.2802,0.26459 0,0.14552 -0.0525,0.26458 -0.11668,0.26458 -0.0642,0 -0.19026,-0.11906 -0.28019,-0.26458 z m 3.04270002,-0.0156 c 0,-0.15411 -0.11906,-0.20662 -0.26458002,-0.11668 -0.38121,0.2356 -0.32587,-0.0166 0.077,-0.35099 0.25823,-0.21431 0.35107,-0.15765 0.38043,0.23219 0.0214,0.28361 -0.0133,0.51567 -0.077,0.51567 -0.0637,0 -0.11585,-0.12609 -0.11585,-0.2802 z m 3.96874998,0.0156 c 0,-0.14552 0.11907,-0.26459 0.26459,-0.26459 0.14552,0 0.26458,0.11907 0.26458,0.26459 0,0.14552 -0.11906,0.26458 -0.26458,0.26458 -0.14552,0 -0.26459,-0.11906 -0.26459,-0.26458 z m -4.98744,-1.38907 c -0.0486,-0.89123 -0.81887,-1.00917 -0.86408,-0.13229 -0.0242,0.46948 -0.0568,0.49447 -0.1544,0.11825 -0.10418,-0.40177 -0.18965,-0.42266 -0.5415,-0.1323 -0.35004,0.28886 -0.3967,0.28042 -0.28773,-0.0521 0.17137,-0.52291 1.23225,-1.04956 2.12404,-1.05444 0.40303,-0.002 1.03551002,0.29335 1.45521002,0.68003 0.65045,0.59924 0.66137,0.632 0.0882,0.26458 -0.9889,-0.63389 -1.54261002,-0.53167 -1.66985002,0.30826 l -0.11022,0.72761 z m 1.74630002,0.42009 c 0.1819,-0.0734 0.47955,-0.0734 0.66146,0 0.1819,0.0734 0.0331,0.13345 -0.33073,0.13345 -0.36381,0 -0.51263,-0.06 -0.33073,-0.13345 z M 19.217828,149.55037 c -0.28477,-0.46076 0.0396,-0.55834 0.40244,-0.12109 0.20869,0.25146 0.22877,0.40327 0.0533,0.40327 -0.15475,0 -0.35984,-0.12698 -0.45576,-0.28218 z m -23.6693301,-0.64362 c 0,-0.12973 0.31993,-0.5698 0.71096,-0.97795 0.8852,-0.92395 2.38999,-1.02564 3.12696002,-0.21129 0.2642,0.29193 0.42083,0.59032 0.34807,0.66308 -0.0728,0.0728 -0.34845,-0.10656 -0.61265,-0.3985 -0.70429002,-0.77823 -1.69184002,-0.6631 -2.70085002,0.31487 -0.47987,0.46511 -0.87249,0.73951 -0.87249,0.60979 z m 2.95219,-0.39711 c 0,-0.36381 0.0601,-0.51263 0.13345,-0.33073 0.0734,0.1819 0.0734,0.47955 0,0.66146 -0.0734,0.1819 -0.13345,0.0331 -0.13345,-0.33073 z m 45.4665571,-1.5875 c -0.238466,-0.15411 -0.2711,-0.2581 -0.08176,-0.26054 0.173313,-0.002 0.3887,0.11502 0.478637,0.26054 0.203015,0.32848 0.111421,0.32848 -0.396875,0 z m -46.0374971,-0.48213 c 0,-0.45067 1.59671002,-1.63459 2.20311002,-1.63355 0.66327,0.001 2.43353998,1.0068 2.19396998,1.24637 -0.0883,0.0883 -0.37897,-0.0372 -0.64598,-0.27884 -0.72255998,-0.65391 -1.99441998,-0.54755 -2.93705,0.24563 -0.44773,0.37673 -0.81405,0.56591 -0.81405,0.42039 z m 54.7687471,-0.047 c 0,-0.14552 0.119062,-0.26458 0.264583,-0.26458 0.145521,0 0.264584,0.11906 0.264584,0.26458 0,0.14552 -0.119063,0.26458 -0.264584,0.26458 -0.145521,0 -0.264583,-0.11906 -0.264583,-0.26458 z M 3.5045879,146.17896 c -0.0106,-0.19748 -0.16075,-0.26675 -0.34932,-0.16117 -0.1819,0.10185 -0.12521,-0.0329 0.12599,-0.29936 0.54518,-0.57839 0.7489,-0.45397 0.4547,0.27771 -0.11702,0.29104 -0.22114,0.37331 -0.23137,0.18282 z m 0.81693,-0.31512 c 0,-0.3638 0.0601,-0.51263 0.13346,-0.33073 0.0734,0.18191 0.0734,0.47956 0,0.66146 -0.0734,0.1819 -0.13346,0.0331 -0.13346,-0.33073 z m 33.5603101,-0.28638 c -0.538975,-0.15485 -0.453234,-0.19492 0.463021,-0.21641 0.618464,-0.0145 1.124479,0.0193 1.124479,0.0751 0,0.23145 -0.972473,0.31804 -1.5875,0.14135 z m 19.579167,0.0218 c 0,-0.14552 0.119062,-0.26458 0.264583,-0.26458 0.145521,0 0.264584,0.11906 0.264584,0.26458 0,0.14552 -0.119063,0.26458 -0.264584,0.26458 -0.145521,0 -0.264583,-0.11906 -0.264583,-0.26458 z m 1.852083,0 c 0,-0.14552 0.119063,-0.26458 0.264584,-0.26458 0.14552,0 0.264583,0.11906 0.264583,0.26458 0,0.14552 -0.119063,0.26458 -0.264583,0.26458 -0.145521,0 -0.264584,-0.11906 -0.264584,-0.26458 z m 0.79375,0 c 0,-0.14552 0.119063,-0.26458 0.264584,-0.26458 0.14552,0 0.264583,0.11906 0.264583,0.26458 0,0.14552 -0.119063,0.26458 -0.264583,0.26458 -0.145521,0 -0.264584,-0.11906 -0.264584,-0.26458 z M 3.2422979,144.38659 c 0.0127,-0.30823 0.0754,-0.37092 0.15985,-0.15986 0.0764,0.191 0.067,0.4192 -0.0209,0.50712 -0.0879,0.0879 -0.15046,-0.0684 -0.13897,-0.34726 z m -2.39371998,-0.1696 c -0.009,-0.48852 1.24374998,-1.26619 2.02896998,-1.25951 0.26188,0.002 0.65475,0.13162 0.87303,0.28753 0.31562,0.22544 0.26917,0.25525 -0.22683,0.14559 -0.76518,-0.16918 -1.86133,0.22249 -2.32288,0.83 -0.32415998,0.42667 -0.34435998,0.42647 -0.35228998,-0.004 z m 28.96345808,0.0594 c -0.08994,-0.14552 -0.03743,-0.26458 0.116676,-0.26458 0.15411,0 0.280199,0.11906 0.280199,0.26458 0,0.14552 -0.0525,0.26459 -0.116675,0.26459 -0.06417,0 -0.190262,-0.11907 -0.2802,-0.26459 z m 1.761567,-0.52916 c 0,-0.36381 0.06006,-0.51263 0.133453,-0.33073 0.0734,0.1819 0.0734,0.47955 0,0.66146 -0.0734,0.1819 -0.133453,0.0331 -0.133453,-0.33073 z m 32.766559,0.26458 c 0,-0.14552 0.126089,-0.26458 0.280199,-0.26458 0.154109,0 0.206613,0.11906 0.116676,0.26458 -0.08994,0.14552 -0.216027,0.26458 -0.280199,0.26458 -0.06417,0 -0.116676,-0.11906 -0.116676,-0.26458 z m -30.271149,-0.92604 c 0.145301,-0.57893 0.07991,-0.66146 -0.524126,-0.66146 -0.37958,0 -0.691965,0.14883 -0.694193,0.33073 -0.0029,0.2364 -0.07074,0.2254 -0.237882,-0.0385 -0.128606,-0.20311 -0.424439,-0.29614 -0.657407,-0.20675 -0.324332,0.12446 -0.423651,-0.006 -0.423894,-0.55675 l -3.18e-4,-0.7193 5.027401,0.0822 5.027401,0.0822 v -0.6868 -0.6868 l -6.336805,0.0331 c -3.485246,0.0182 -6.461808,-0.0442 -6.614584,-0.13861 -0.591478,-0.36555 -0.277405,-0.93419 0.515972,-0.93419 0.436563,0 0.79375,-0.11907 0.79375,-0.26459 0,-0.14552 0.12609,-0.26458 0.280199,-0.26458 0.154109,0 0.206613,0.11906 0.116676,0.26458 -0.09097,0.1472 0.107527,0.26466 0.447405,0.26476 0.526854,1.5e-4 0.610928,-0.133 0.610928,-0.96751 0,-0.8733 0.07694,-0.97823 0.788795,-1.07575 0.433834,-0.0594 0.857223,-0.2188 0.940861,-0.35413 0.185322,-0.29985 1.23966,-0.36 2.01653,-0.11504 0.425548,0.13418 0.603242,0.0558 0.696912,-0.30746 0.07087,-0.27483 0.139118,-0.10433 0.156419,0.39072 0.02614,0.748 0.117398,0.86576 0.615159,0.79375 0.321456,-0.0465 0.648877,-0.32267 0.727604,-0.61371 0.162132,-0.59939 1.069179,-0.79891 1.069179,-0.23519 0,0.20212 0.12609,0.36748 0.280199,0.36748 0.154109,0 0.207722,-0.11727 0.119139,-0.2606 -0.09989,-0.16162 0.145402,-0.19931 0.645843,-0.0992 0.476747,0.0953 0.806902,0.0512 0.806902,-0.10797 0,-0.14814 0.17253,-0.33555 0.3834,-0.41647 0.256254,-0.0983 0.334611,-0.02 0.236276,0.23628 -0.09979,0.26005 0.03223,0.3834 0.41035,0.3834 0.431681,0 0.557554,0.16418 0.557821,0.7276 l 2.64e-4,0.72761 -3.1092,-0.0691 c -1.710061,-0.038 -3.972682,-0.0975 -5.028047,-0.13229 -1.832419,-0.0604 -1.918816,-0.0364 -1.918229,0.53207 l 6.98e-4,0.59532 5.357813,0.0355 c 2.946797,0.0195 5.847498,0.0102 6.446004,-0.0208 0.904812,-0.0468 1.112425,0.0364 1.232001,0.49363 0.125248,0.47896 0.02511,0.54993 -0.775865,0.54993 -0.802399,0 -0.908891,0.0759 -0.835125,0.59531 0.0648,0.45628 0.28538,0.61468 0.944443,0.67823 1.197507,0.11546 1.159494,0.88446 -0.06263,1.26697 -0.507388,0.15881 -0.983638,0.22764 -1.058333,0.15294 -0.0747,-0.0747 -0.13581,-0.71128 -0.13581,-1.41463 0,-1.10243 -0.07299,-1.27882 -0.529167,-1.27882 -0.440973,0 -0.529167,0.17639 -0.529167,1.05833 0,1.01222 -0.03747,1.05949 -0.859896,1.08471 -0.793758,0.0243 -0.809019,0.0405 -0.198437,0.21062 0.590576,0.1645 0.608478,0.2046 0.167074,0.37423 -0.284113,0.10918 -0.835938,0.0196 -1.297422,-0.21062 -0.885653,-0.44182 -1.341099,-0.53321 -0.729398,-0.14635 0.214067,0.13538 0.306242,0.32911 0.204833,0.43052 -0.10141,0.10141 -0.378738,0.0231 -0.616284,-0.17406 -0.368027,-0.30544 -0.480888,-0.29145 -0.763167,0.0946 -0.483486,0.66121 -0.669803,0.55856 -0.669803,-0.36903 0,-0.6409 -0.09223,-0.78666 -0.418515,-0.66146 -0.230182,0.0883 -0.468307,0.1606 -0.529167,0.1606 -0.06086,0 -0.110651,0.16586 -0.110651,0.36857 0,0.20271 -0.188331,0.44084 -0.418515,0.52917 -0.751369,0.28832 -0.979924,0.17428 -0.606068,-0.30242 0.33012,-0.42094 0.320497,-0.42957 -0.105871,-0.0949 -0.288583,0.22649 -0.408948,0.55727 -0.312899,0.85989 0.107368,0.33829 0.02506,0.49182 -0.263649,0.49182 -0.315611,0 -0.37856,-0.1641 -0.25373,-0.66146 z m 3.482086,0.48623 c 0.181901,-0.0734 0.479557,-0.0734 0.661458,0 0.181901,0.0734 0.03307,0.13345 -0.330729,0.13345 -0.363802,0 -0.51263,-0.06 -0.330729,-0.13345 z m 4.055785,-0.50828 c 0.0127,-0.30822 0.07539,-0.37092 0.15985,-0.15985 0.07643,0.19099 0.06703,0.4192 -0.02088,0.50712 -0.08792,0.0879 -0.150453,-0.0684 -0.138965,-0.34727 z m 5.270778,0.15434 c 0,-0.14552 0.119062,-0.26458 0.264583,-0.26458 0.145521,0 0.264583,0.11906 0.264583,0.26458 0,0.14552 -0.119062,0.26458 -0.264583,0.26458 -0.145521,0 -0.264583,-0.11906 -0.264583,-0.26458 z m 11.327474,-0.18074 c 0.190994,-0.0764 0.4192,-0.067 0.507118,0.0209 0.08792,0.0879 -0.06835,0.15045 -0.347265,0.13896 -0.308226,-0.0127 -0.37092,-0.0754 -0.159853,-0.15985 z m -28.657683,-0.34843 c -0.08994,-0.14552 -0.03743,-0.26458 0.116676,-0.26458 0.154109,0 0.280199,0.11906 0.280199,0.26458 0,0.14552 -0.0525,0.26459 -0.116676,0.26459 -0.06417,0 -0.190262,-0.11907 -0.280199,-0.26459 z m 22.836849,0.0838 c 0.190995,-0.0764 0.419198,-0.067 0.507119,0.0209 0.08792,0.0879 -0.06835,0.15045 -0.347265,0.13896 -0.308227,-0.0127 -0.37092,-0.0754 -0.159854,-0.15985 z m -5.50664,-0.34843 c -0.238467,-0.15411 -0.2711,-0.2581 -0.08176,-0.26053 0.173313,-0.002 0.388699,0.11501 0.478637,0.26053 0.203014,0.32849 0.111421,0.32849 -0.396875,0 z m 1.5875,-0.93954 c 0,-0.74962 0.07706,-0.91437 0.330729,-0.70707 0.181901,0.14865 2.533385,0.36238 5.225521,0.47496 3.384333,0.14154 4.609028,0.26864 3.96875,0.4119 -0.509323,0.11395 -1.431862,0.16123 -2.050085,0.10506 -0.759436,-0.069 -1.252916,0.0267 -1.521354,0.29517 -0.353359,0.35337 -0.397311,0.34819 -0.397311,-0.0468 0,-0.31961 -0.129781,-0.39033 -0.463021,-0.25229 -0.254662,0.10548 -0.724109,0.22605 -1.043218,0.26793 -0.319106,0.0419 -0.693584,0.14622 -0.83217,0.23187 -0.138586,0.0856 -0.320246,-0.0222 -0.403688,-0.23962 -0.08344,-0.21745 -0.304276,-0.39354 -0.490747,-0.39131 -0.237064,0.003 -0.219667,0.0812 0.05784,0.26053 0.290396,0.18767 0.112929,0.25049 -0.661459,0.23416 -0.918138,-0.0194 -0.970711,-0.0504 -0.396875,-0.23416 0.61168,-0.19589 0.61808,-0.21382 0.08504,-0.23821 -0.317029,-0.0145 -0.763513,0.16073 -0.992187,0.3894 -0.377976,0.37798 -0.415774,0.32693 -0.415774,-0.56156 z m -46.8312541,0.4715 c 0,-0.43174 1.08951,-1.12441 1.71252,-1.08877 0.5303,0.0303 0.53038,0.0322 0.007,0.15871 -0.29104,0.0704 -0.79705,0.375 -1.12448,0.67688 -0.32742,0.30188 -0.59531,0.41581 -0.59531,0.25318 z m 27.0756971,-0.24461 c 0,-0.19012 0.267891,-0.34568 0.595313,-0.34568 0.327421,0 0.645064,-0.14883 0.705871,-0.33073 0.06081,-0.1819 0.170926,-0.0156 0.244708,0.3695 0.122957,0.64179 0.06406,0.69824 -0.705869,0.67641 -0.502864,-0.0143 -0.840023,-0.16256 -0.840023,-0.3695 z m 16.764138,0.0143 c -0.29989,-0.29989 0.09418,-0.62456 0.758076,-0.62456 0.397692,0 0.645843,-0.15249 0.645843,-0.39687 0,-0.21828 0,-0.48617 0,-0.59531 0,-0.10914 -0.0893,-0.21446 -0.198438,-0.23403 -0.67976,-0.12193 -1.389062,-0.45727 -1.389062,-0.65673 0,-0.12855 0.416718,-0.23372 0.926041,-0.23372 0.562285,0 0.927635,-0.12992 0.930093,-0.33073 0.003,-0.2449 0.06272,-0.23815 0.230142,0.026 0.351565,0.55476 1.209495,0.24819 1.311188,-0.46854 0.125084,-0.88159 0.67279,-1.40068 1.064546,-1.00892 0.224263,0.22426 0.30049,0.1816 0.30049,-0.1682 0,-0.42608 0.0378,-0.43089 0.415774,-0.0529 0.499898,0.4999 1.077693,0.53884 1.261827,0.085 0.08694,-0.21426 0.211169,-0.23756 0.352777,-0.0662 0.120218,0.14552 0.337642,0.27879 0.483163,0.29615 0.145521,0.0174 0.651537,0.10369 1.124479,0.19183 0.635408,0.11841 0.859896,0.064 0.859896,-0.20843 0,-0.2841 0.349049,-0.34562 1.521354,-0.26818 1.064247,0.0703 1.499484,0.20295 1.448568,0.44144 -0.04003,0.18752 0.178461,0.0433 0.485545,-0.32052 0.534595,-0.63333 0.552968,-0.63677 0.43212,-0.0808 -0.09482,0.43624 0.01474,0.60825 0.440494,0.69158 0.311692,0.061 0.0011,0.12712 -0.69006,0.14694 -0.846376,0.0243 -1.258094,-0.072 -1.260822,-0.2947 -0.0027,-0.22048 -0.08955,-0.19843 -0.260532,0.0661 -0.170987,0.26458 -0.257831,0.28663 -0.260533,0.0661 -0.0021,-0.18191 -0.13014,-0.33073 -0.284249,-0.33073 -0.15411,0 -0.20877,0.11557 -0.121468,0.25683 0.09876,0.15979 -1.169892,0.28474 -3.357824,0.33072 -3.286033,0.0691 -3.52152,0.10859 -3.592365,0.60307 -0.07129,0.49755 0.07098,0.52824 2.38125,0.51357 1.351386,-0.009 2.72074,0.0762 3.04301,0.18833 0.322271,0.11216 0.653505,0.0946 0.736076,-0.039 0.208251,-0.33696 0.926936,-0.0224 0.926936,0.40568 0,0.36554 -0.955537,0.38032 -1.532546,0.0237 -0.175747,-0.10862 -0.319537,-0.0714 -0.319537,0.0827 0,0.39235 -0.720871,0.35114 -0.883851,-0.0505 -0.102365,-0.25228 -0.196948,-0.24063 -0.398756,0.0491 -0.199052,0.28581 -0.353008,0.30646 -0.621745,0.0834 -0.355322,-0.29489 -2.301949,-0.27787 -2.791042,0.0244 -0.140994,0.0871 -0.659469,0.0428 -1.15217,-0.0985 -0.492699,-0.1413 -0.92637,-0.25692 -0.963711,-0.25692 -0.03734,0 -0.06789,0.53578 -0.06789,1.19063 0,1.17298 -0.01307,1.19062 -0.881943,1.19062 -0.485072,0 -0.958083,-0.0761 -1.051142,-0.16919 z m 10.002877,-4.32872 c 0.08994,-0.14552 -0.02209,-0.26459 -0.248968,-0.26459 -0.226869,0 -0.41249,0.11907 -0.41249,0.26459 0,0.14552 0.112035,0.26458 0.248967,0.26458 0.136933,0 0.322554,-0.11906 0.412491,-0.26458 z m 7.276042,3.95313 c 0,-0.15411 0.119062,-0.20661 0.264583,-0.11667 0.145521,0.0899 0.264583,0.21602 0.264583,0.28019 0,0.0642 -0.119062,0.11668 -0.264583,0.11668 -0.145521,0 -0.264583,-0.12609 -0.264583,-0.2802 z m 2.067057,0.0995 c 0.190995,-0.0764 0.4192,-0.067 0.507119,0.0209 0.08792,0.0879 -0.06835,0.15045 -0.347266,0.13896 -0.308226,-0.0127 -0.370919,-0.0754 -0.159853,-0.15985 z m 3.489193,-1.40294 c 0,-0.15057 -0.521698,-0.21185 -1.234583,-0.14503 -1.162521,0.10898 -1.208291,0.0895 -0.78418,-0.33455 0.395189,-0.39509 0.48166,-0.40163 0.705413,-0.0534 0.215871,0.33596 0.291531,0.34019 0.492898,0.0276 0.293582,-0.45576 1.085035,-0.19245 1.085035,0.36097 0,0.22285 -0.05953,0.40518 -0.132292,0.40518 -0.07276,0 -0.132291,-0.11734 -0.132291,-0.26076 z m 1.322916,0.11108 c 0,-0.41081 0.586584,-1.16898 0.801606,-1.03609 0.144232,0.0891 0.112429,0.36568 -0.07692,0.66887 -0.303331,0.48572 -0.724686,0.69923 -0.724686,0.36722 z m -13.096875,-0.37948 c -0.21577,-0.34912 0.100597,-0.84457 0.415158,-0.65016 0.321366,0.19861 0.319278,0.91474 -0.0027,0.91474 -0.136933,0 -0.322554,-0.11906 -0.412491,-0.26458 z m 1.190625,-0.11668 c 0,-0.22687 0.119063,-0.41249 0.264584,-0.41249 0.14552,0 0.264583,0.11204 0.264583,0.24897 0,0.13693 -0.119063,0.32255 -0.264583,0.41249 -0.145521,0.0899 -0.264584,-0.0221 -0.264584,-0.24897 z m 0.79375,-0.0404 c 0,-0.22281 0.271651,-0.3721 0.677074,-0.3721 0.762709,0 0.669491,0.39207 -0.143785,0.60475 -0.347975,0.091 -0.533289,0.0102 -0.533289,-0.23265 z m 1.918229,0.22762 c -0.604612,-0.2096 -0.341532,-0.56885 0.376174,-0.51368 0.388795,0.0299 0.765345,0.23111 0.836777,0.44717 0.10823,0.32737 0.06086,0.33588 -0.284297,0.0511 -0.227796,-0.18798 -0.455518,-0.2356 -0.506048,-0.10583 -0.05053,0.12976 -0.240705,0.18434 -0.422606,0.12128 z m 1.642767,-0.0882 c -0.09592,-0.1552 -0.110869,-0.34571 -0.03322,-0.42337 0.189526,-0.18952 0.705557,0.14442 0.705557,0.45659 0,0.33813 -0.45678,0.31556 -0.672338,-0.0332 z m 1.201504,0.0176 c -0.209851,-0.1297 -0.293716,-0.32365 -0.186364,-0.431 0.107352,-0.10735 0.334089,-0.0563 0.503864,0.1135 0.399762,0.39976 0.176633,0.62289 -0.3175,0.3175 z m 1.065996,0.0103 c -0.214066,-0.13538 -0.287062,-0.34191 -0.162213,-0.45897 0.124846,-0.11705 0.281805,-0.059 0.348794,0.12895 0.09458,0.2654 0.206166,0.27175 0.499338,0.0284 0.207648,-0.17233 0.460513,-0.23035 0.561922,-0.12895 0.163962,0.16397 -0.386379,0.67668 -0.726337,0.67668 -0.07276,0 -0.307438,-0.11077 -0.521504,-0.24615 z m 4.490254,-0.27492 c 0,-0.14552 0.119063,-0.26458 0.264584,-0.26458 0.14552,0 0.264583,0.11906 0.264583,0.26458 0,0.14552 -0.119063,0.26459 -0.264583,0.26459 -0.145521,0 -0.264584,-0.11907 -0.264584,-0.26459 z M 42.9298,137.89255 c -0.01148,-0.38236 0.18056,-0.85861 0.426776,-1.05833 0.382119,-0.30996 0.414504,-0.30812 0.221178,0.0126 -0.176164,0.29222 -0.113972,0.33195 0.279943,0.17883 0.881327,-0.34259 1.020828,-0.30435 1.113856,0.30537 0.07948,0.52089 -0.02447,0.59531 -0.831567,0.59531 -0.507317,0 -0.982448,0.14883 -1.055846,0.33073 -0.0734,0.1819 -0.142851,0.0179 -0.15434,-0.36448 z m -13.596411,0.0896 c -0.837104,-0.10587 -1.24528,-0.7827 -0.684387,-1.13483 0.203108,-0.12752 0.592553,-0.16227 0.865439,-0.0773 0.323371,0.10076 0.433107,0.0526 0.315114,-0.13833 -0.09957,-0.16111 -0.05722,-0.29293 0.09412,-0.29293 0.36041,0 0.684985,1.30655 0.384929,1.5495 -0.12759,0.10331 -0.566436,0.14554 -0.975212,0.0938 z m 16.94896,0.016 c -0.545703,-0.0571 -0.992187,-0.16396 -0.992187,-0.2375 0,-0.37578 0.588637,-1.15675 0.869203,-1.15321 0.204793,0.003 0.177414,0.10288 -0.07545,0.27642 -0.329962,0.22645 -0.307658,0.26524 0.132291,0.23007 1.135589,-0.0908 1.422014,0.0227 1.382461,0.54779 -0.02193,0.29104 -0.103822,0.50915 -0.181993,0.48469 -0.07817,-0.0245 -0.588619,-0.0912 -1.134322,-0.14826 z m 16.999479,-0.0719 c 0,-0.14552 0.119063,-0.26458 0.264584,-0.26458 0.14552,0 0.264583,0.11906 0.264583,0.26458 0,0.14552 -0.119063,0.26459 -0.264583,0.26459 -0.145521,0 -0.264584,-0.11907 -0.264584,-0.26459 z m 3.439584,0 c -0.308161,-0.19914 -0.230741,-0.25738 0.346344,-0.26053 0.428911,-0.002 0.674066,0.10784 0.579697,0.26053 -0.203033,0.32852 -0.4177,0.32852 -0.926041,0 z m -4.233334,-0.4147 c 0,-0.2943 -0.153638,-0.36594 -0.529166,-0.24675 -0.41397,0.13138 -0.529167,0.0475 -0.529167,-0.38515 0,-0.52915 0.02863,-0.53433 0.661458,-0.11969 0.567664,0.37195 0.928071,1.16629 0.529167,1.16629 -0.07276,0 -0.132292,-0.18661 -0.132292,-0.4147 z m -2.116666,-0.64363 c -0.238467,-0.15411 -0.2711,-0.2581 -0.08176,-0.26053 0.173313,-0.002 0.388699,0.11501 0.478637,0.26053 0.203014,0.32849 0.111421,0.32849 -0.396875,0 z m -28.310417,-0.36857 c 0,-0.0572 0.178594,-0.17251 0.396875,-0.25628 0.218281,-0.0838 0.396875,-0.037 0.396875,0.10399 0,0.14095 -0.178594,0.25628 -0.396875,0.25628 -0.218281,0 -0.396875,-0.0468 -0.396875,-0.10399 z m 28.715504,-0.14731 c -0.09739,-0.15758 -0.287903,-0.218 -0.42337,-0.13428 -0.135464,0.0837 -0.246301,0.0261 -0.246301,-0.12797 0,-0.34296 0.270701,-0.3519 0.786088,-0.026 0.214066,0.13538 0.315285,0.32008 0.224933,0.41043 -0.09036,0.0904 -0.243962,0.0354 -0.34135,-0.12222 z m 3.695954,-0.0133 c -0.08994,-0.14552 -0.03743,-0.26458 0.116676,-0.26458 0.154109,0 0.280199,0.11906 0.280199,0.26458 0,0.14552 -0.0525,0.26459 -0.116676,0.26459 -0.06417,0 -0.190262,-0.11907 -0.280199,-0.26459 z m -25.796875,-0.52916 c 0,-0.14552 0.119063,-0.26459 0.264584,-0.26459 0.14552,0 0.264583,0.11907 0.264583,0.26459 0,0.14552 -0.119063,0.26458 -0.264583,0.26458 -0.145521,0 -0.264584,-0.11906 -0.264584,-0.26458 z m 20.108334,-0.26459 c 0,-0.14552 0.119062,-0.26458 0.264583,-0.26458 0.145521,0 0.264583,0.11906 0.264583,0.26458 0,0.14552 -0.119062,0.26459 -0.264583,0.26459 -0.145521,0 -0.264583,-0.11907 -0.264583,-0.26459 z M 41.22573,135.14812 c -0.08732,-0.22754 -0.0053,-0.39688 0.19218,-0.39688 0.189461,0 0.344475,0.1786 0.344475,0.39688 0,0.21828 -0.08648,0.39687 -0.19218,0.39687 -0.105699,0 -0.26071,-0.17859 -0.344475,-0.39687 z m 18.881098,0.13229 c 0,-0.14552 0.119063,-0.26458 0.264584,-0.26458 0.14552,0 0.264583,0.11906 0.264583,0.26458 0,0.14552 -0.119063,0.26458 -0.264583,0.26458 -0.145521,0 -0.264584,-0.11906 -0.264584,-0.26458 z m -5.820833,-0.54478 c 0,-0.15411 0.119062,-0.20662 0.264583,-0.11668 0.145521,0.0899 0.264584,0.21603 0.264584,0.2802 0,0.0642 -0.119063,0.11668 -0.264584,0.11668 -0.145521,0 -0.264583,-0.12609 -0.264583,-0.2802 z m -14.022917,-1.17501 c 0,-0.18864 0.303186,-0.26073 0.79375,-0.18873 0.436563,0.0641 0.79375,0.149 0.79375,0.18873 0,0.0397 -0.357187,0.12465 -0.79375,0.18873 -0.490564,0.072 -0.79375,-9e-5 -0.79375,-0.18873 z m 15.08125,0.13229 c 0,-0.14552 0.119063,-0.26458 0.264584,-0.26458 0.14552,0 0.264583,0.11906 0.264583,0.26458 0,0.14552 -0.119063,0.26458 -0.264583,0.26458 -0.145521,0 -0.264584,-0.11906 -0.264584,-0.26458 z m 1.719792,0 c 0.08994,-0.14552 0.275558,-0.26458 0.412491,-0.26458 0.136932,0 0.248967,0.11906 0.248967,0.26458 0,0.14552 -0.185621,0.26458 -0.41249,0.26458 -0.22687,0 -0.338905,-0.11906 -0.248968,-0.26458 z m 0.926042,0 c 0,-0.14552 0.119062,-0.26458 0.264583,-0.26458 0.145521,0 0.264583,0.11906 0.264583,0.26458 0,0.14552 -0.119062,0.26458 -0.264583,0.26458 -0.145521,0 -0.264583,-0.11906 -0.264583,-0.26458 z m 0.79375,0.0123 c 0,-0.13874 0.534953,-0.22804 1.188783,-0.19844 1.548707,0.0701 1.55026,0.4507 0.0018,0.4507 -0.654844,0 -1.190625,-0.11351 -1.190625,-0.25226 z m -23.74132,-0.19567 c 0.257432,-0.0671 0.61462,-0.0627 0.79375,0.01 0.179131,0.0725 -0.03149,0.12736 -0.468055,0.12197 -0.436563,-0.005 -0.583126,-0.0647 -0.325695,-0.13177 z m 10.054167,0 c 0.257432,-0.0671 0.614619,-0.0627 0.79375,0.01 0.179131,0.0725 -0.03149,0.12736 -0.468056,0.12197 -0.436562,-0.005 -0.583126,-0.0647 -0.325694,-0.13177 z m 9.189236,-0.34582 c 0,-0.14552 0.119062,-0.26458 0.264583,-0.26458 0.145521,0 0.264584,0.11906 0.264584,0.26458 0,0.14552 -0.119063,0.26459 -0.264584,0.26459 -0.145521,0 -0.264583,-0.11907 -0.264583,-0.26459 z M 35.78605,132.7448 c 0.0127,-0.30822 0.07539,-0.37092 0.159851,-0.15985 0.07643,0.19099 0.06703,0.4192 -0.02088,0.50712 -0.08792,0.0879 -0.150452,-0.0684 -0.138964,-0.34727 z m -22.765742,-0.62202 c -0.36564,-0.68319 -0.34514,-1.14173 0.0768,-1.71883 0.30742,-0.42041 0.34827,-0.3123 0.33073,0.87529 -0.011,0.74522 -0.0456,1.35503 -0.0768,1.35513 -0.0313,1e-4 -0.18009,-0.23011 -0.33073,-0.51159 z m 2.80745,-0.13705 c -0.75704,-0.70159 -0.88536,-1.5655 -0.39304,-2.64602 0.34002,-0.74627 0.92793,-0.95053 0.60698,-0.21088 -0.50826,1.17128 -0.45023,2.21142 0.15957,2.86053 0.78607,0.83673 0.53057,0.83425 -0.37351,-0.004 z m 1.70753,0.23638 c -0.0413,-0.85333 0.55893,-1.50306 1.17123,-1.26778 0.48506,0.18639 0.47585,0.21161 -0.12962,0.35478 -0.39411,0.0932 -0.72365,0.41182 -0.83353,0.80593 -0.15533,0.5572 -0.18554,0.57274 -0.20808,0.10707 z m 1.24693,0.23171 c 0.191,-0.0764 0.4192,-0.067 0.50712,0.0209 0.0879,0.0879 -0.0684,0.15045 -0.34727,0.13896 -0.30822,-0.0127 -0.37092,-0.0754 -0.15985,-0.15985 z m 27.566277,-0.0838 c 0,-0.14552 0.12609,-0.26458 0.280199,-0.26458 0.154109,0 0.206613,0.11906 0.116676,0.26458 -0.08994,0.14552 -0.216027,0.26459 -0.280199,0.26459 -0.06417,0 -0.116676,-0.11907 -0.116676,-0.26459 z m 2.645833,0 c 0,-0.14552 0.119063,-0.26458 0.264584,-0.26458 0.14552,0 0.264583,0.11906 0.264583,0.26458 0,0.14552 -0.119063,0.26459 -0.264583,0.26459 -0.145521,0 -0.264584,-0.11907 -0.264584,-0.26459 z m 2.116667,0 c 0,-0.14552 0.119062,-0.26458 0.264583,-0.26458 0.145521,0 0.264584,0.11906 0.264584,0.26458 0,0.14552 -0.119063,0.26459 -0.264584,0.26459 -0.145521,0 -0.264583,-0.11907 -0.264583,-0.26459 z m 0.926042,0 c -0.08994,-0.14552 -0.03743,-0.26458 0.116676,-0.26458 0.154109,0 0.280199,0.11906 0.280199,0.26458 0,0.14552 -0.0525,0.26459 -0.116676,0.26459 -0.06417,0 -0.190262,-0.11907 -0.280199,-0.26459 z m 2.248958,0 c 0,-0.14552 0.12609,-0.26458 0.280199,-0.26458 0.154109,0 0.206613,0.11906 0.116676,0.26458 -0.08994,0.14552 -0.216027,0.26459 -0.280199,0.26459 -0.06417,0 -0.116676,-0.11907 -0.116676,-0.26459 z m 0.79375,-0.0156 c 0,-0.15411 0.119062,-0.20662 0.264583,-0.11668 0.145521,0.0899 0.264584,0.21603 0.264584,0.2802 0,0.0642 -0.119063,0.11668 -0.264584,0.11668 -0.145521,0 -0.264583,-0.12609 -0.264583,-0.2802 z m -25.978776,-0.16513 c 0.190995,-0.0764 0.419198,-0.067 0.507119,0.0209 0.08792,0.0879 -0.06835,0.15045 -0.347266,0.13897 -0.308226,-0.0127 -0.370919,-0.0754 -0.159853,-0.15986 z m 2.38125,0 c 0.190995,-0.0764 0.419198,-0.067 0.507119,0.0209 0.08792,0.0879 -0.06835,0.15045 -0.347266,0.13897 -0.308226,-0.0127 -0.370919,-0.0754 -0.159853,-0.15986 z m 1.058333,0 c 0.190995,-0.0764 0.419198,-0.067 0.507119,0.0209 0.08792,0.0879 -0.06835,0.15045 -0.347266,0.13897 -0.308226,-0.0127 -0.370919,-0.0754 -0.159853,-0.15986 z m 4.850008,-0.0548 c -0.197437,-0.1251 -0.256968,-0.28938 -0.132291,-0.36505 0.124677,-0.0757 0.380206,0.0285 0.567846,0.23151 0.37806,0.40903 0.122753,0.4873 -0.435555,0.13354 z m 1.152727,-0.029 c 0.08994,-0.14552 0.216027,-0.26458 0.280199,-0.26458 0.06417,0 0.116676,0.11906 0.116676,0.26458 0,0.14552 -0.12609,0.26458 -0.2802,0.26458 -0.154109,0 -0.206613,-0.11906 -0.116675,-0.26458 z m 14.461566,-0.26458 c 0,-0.36381 0.06006,-0.51263 0.133453,-0.33073 0.0734,0.1819 0.0734,0.47955 0,0.66146 -0.0734,0.1819 -0.133453,0.0331 -0.133453,-0.33073 z m -34.768335,0.0893 c 0.1819,-0.0734 0.47955,-0.0734 0.66146,0 0.1819,0.0734 0.0331,0.13345 -0.33073,0.13345 -0.36381,0 -0.51263,-0.06 -0.33073,-0.13345 z m 28.945414,-0.34071 c 0.113694,-0.34108 0.476597,-0.40235 0.509323,-0.086 0.01093,0.10551 -0.123031,0.23945 -0.297656,0.29766 -0.174625,0.0582 -0.269875,-0.037 -0.211667,-0.21167 z m 1.333942,-0.0331 c 0.05214,-0.15644 0.207918,-0.28443 0.346163,-0.28443 0.138244,0 0.294018,0.12799 0.346162,0.28443 0.05215,0.15643 -0.103627,0.28443 -0.346162,0.28443 -0.242536,0 -0.398309,-0.128 -0.346163,-0.28443 z m 5.770121,0.0198 c 0,-0.14552 0.119062,-0.26458 0.264583,-0.26458 0.145521,0 0.264584,0.11906 0.264584,0.26458 0,0.14552 -0.119063,0.26459 -0.264584,0.26459 -0.145521,0 -0.264583,-0.11907 -0.264583,-0.26459 z m -34.920947,-0.94161 c -0.002,-0.59065 0.17075,-1.30503 0.38441,-1.5875 0.35149,-0.46472 0.38926,-0.46953 0.39687,-0.0506 0.005,0.25466 -0.11065,0.46302 -0.25617,0.46302 -0.59579,0 -0.21101,0.50213 0.46302,0.60424 l 0.727608,0.11022 -0.727608,0.0396 c -0.40018,0.0218 -0.7276,0.15871 -0.7276,0.30423 0,0.14552 0.32742,0.2808 0.7276,0.30061 0.715104,0.0354 0.716239,0.0382 0.0661,0.15897 -0.3638,0.0676 -0.74893,0.25976 -0.85584,0.42699 -0.10692,0.16723 -0.19621,-0.1792 -0.19844,-0.76985 z m 1.84803,0.69264 c 0,-0.46109 0.447649,-0.53052 0.953209,-0.14784 0.475647,0.36004 0.463802,0.38043 -0.225605,0.3884 -0.400182,0.005 -0.727604,-0.10362 -0.727604,-0.24056 z m 15.875,-0.28019 c 0,-0.14552 0.119063,-0.26459 0.264584,-0.26459 0.14552,0 0.264583,0.11907 0.264583,0.26459 0,0.14552 -0.119063,0.26458 -0.264583,0.26458 -0.145521,0 -0.264584,-0.11906 -0.264584,-0.26458 z m 5.55625,-0.52917 c 0,-0.14552 0.119063,-0.26458 0.264584,-0.26458 0.14552,0 0.264583,0.11906 0.264583,0.26458 0,0.14552 -0.119063,0.26458 -0.264583,0.26458 -0.145521,0 -0.264584,-0.11906 -0.264584,-0.26458 z m -7.000158,-0.2463 c -0.180731,-0.29243 0.236644,-0.60819 0.480962,-0.36387 0.251564,0.25156 0.204679,0.61017 -0.07977,0.61017 -0.136933,0 -0.317469,-0.11084 -0.401192,-0.2463 z m 1.443908,-0.0183 c 0,-0.14552 0.119063,-0.26459 0.264584,-0.26459 0.14552,0 0.264583,0.11907 0.264583,0.26459 0,0.14552 -0.119063,0.26458 -0.264583,0.26458 -0.145521,0 -0.264584,-0.11906 -0.264584,-0.26458 z m -20.96823,-0.17523 c 0.1819,-0.0734 0.47956,-0.0734 0.66146,0 0.1819,0.0734 0.0331,0.13345 -0.33073,0.13345 -0.3638,0 -0.51263,-0.06 -0.33073,-0.13345 z m 1.38759,-0.5482 c -0.6855,-0.87147 -0.554,-2.07653 0.30433,-2.78892 0.76193,-0.63237 1.00014,-0.3268 0.2732,0.35045 -0.73588,0.68558 -0.73621,1.76669 -7.9e-4,2.54953 0.31643,0.3368 0.44413,0.61237 0.28381,0.61237 -0.16033,0 -0.54757,-0.32555 -0.86055,-0.72343 z m 3.614356,0.23957 c -0.637616,-0.70456 -0.536641,-1.76122 0.249436,-2.61024 l 0.687319,-0.74236 -0.555027,0.76328 c -0.568857,0.78231 -0.679278,1.38319 -0.391838,2.13225 0.126313,0.32916 0.245902,0.35662 0.529167,0.12153 0.266589,-0.22125 0.365977,-0.22308 0.365977,-0.007 0,0.16334 -0.12609,0.29698 -0.280199,0.29698 -0.154109,0 -0.206613,0.11906 -0.116676,0.26458 0.265195,0.4291 -0.0155,0.30302 -0.488159,-0.21927 z m 21.787118,-0.0453 c 0,-0.14552 0.119062,-0.26458 0.264583,-0.26458 0.145521,0 0.264583,0.11906 0.264583,0.26458 0,0.14552 -0.119062,0.26458 -0.264583,0.26458 -0.145521,0 -0.264583,-0.11906 -0.264583,-0.26458 z m -5.820834,-0.26458 c 0,-0.14552 0.119063,-0.26459 0.264584,-0.26459 0.14552,0 0.264583,0.11907 0.264583,0.26459 0,0.14552 -0.119063,0.26458 -0.264583,0.26458 -0.145521,0 -0.264584,-0.11906 -0.264584,-0.26458 z m 4.365625,-0.52917 c -0.08994,-0.14552 -0.03743,-0.26458 0.116676,-0.26458 0.154109,0 0.280199,0.11906 0.280199,0.26458 0,0.14552 -0.0525,0.26458 -0.116676,0.26458 -0.06417,0 -0.190262,-0.11906 -0.280199,-0.26458 z m 1.322917,-0.26458 c 0.08994,-0.14552 0.216027,-0.26459 0.280199,-0.26459 0.06417,0 0.116676,0.11907 0.116676,0.26459 0,0.14552 -0.12609,0.26458 -0.280199,0.26458 -0.154109,0 -0.206613,-0.11906 -0.116676,-0.26458 z m -21.232813,-0.18239 c 0.254662,-0.0666 0.67138,-0.0666 0.926042,0 0.254661,0.0665 0.0463,0.121 -0.463021,0.121 -0.509323,0 -0.717682,-0.0545 -0.463021,-0.121 z m 15.544271,-0.0666 c 0,-0.13693 0.119063,-0.32255 0.264584,-0.41249 0.14552,-0.0899 0.264583,0.0221 0.264583,0.24897 0,0.22687 -0.119063,0.41249 -0.264583,0.41249 -0.145521,0 -0.264584,-0.11204 -0.264584,-0.24897 z m -17.39241,-0.60454 c -0.53766,-0.67155 -0.61562,-1.50558 -0.22755,-2.43436 0.21727,-0.52001 0.52693,-0.94547 0.68813,-0.94547 0.17876,0 0.13242,0.22938 -0.11879,0.58804 -0.48722,0.6956 -0.54155,2.08688 -0.0988,2.52964 0.1722,0.1722 0.2487,0.37748 0.16999,0.45618 -0.0787,0.0787 -0.26455,-0.009 -0.41299,-0.19403 z m 11.83616,0.0544 c -0.298249,-0.19675 -0.183187,-0.24751 0.463021,-0.20425 0.472943,0.0317 0.859896,0.1513 0.859896,0.26587 0,0.29192 -0.846783,0.25248 -1.322917,-0.0616 z m 1.5875,0.005 c 0,-0.14552 0.119063,-0.26459 0.264583,-0.26459 0.145521,0 0.264584,0.11907 0.264584,0.26459 0,0.14552 -0.119063,0.26458 -0.264584,0.26458 -0.14552,0 -0.264583,-0.11906 -0.264583,-0.26458 z m 10.847917,0.0442 c 0,-0.25769 0.963282,-0.22746 1.229333,0.0386 0.09998,0.1 -0.135723,0.18178 -0.523777,0.18178 -0.388056,0 -0.705556,-0.0992 -0.705556,-0.22037 z m -22.225,-0.3088 c 0,-0.14552 0.119062,-0.26458 0.264583,-0.26458 0.145521,0 0.264583,0.11906 0.264583,0.26458 0,0.14552 -0.119062,0.26459 -0.264583,0.26459 -0.145521,0 -0.264583,-0.11907 -0.264583,-0.26459 z m 0.954349,-0.15393 c -0.266081,-0.69339 -0.165719,-1.80153 0.207714,-2.29346 0.541695,-0.7136 0.757812,-0.54787 0.265456,0.20356 -0.294534,0.44952 -0.388096,0.96647 -0.287316,1.5875 0.158726,0.97812 0.07919,1.19311 -0.185854,0.5024 z m 1.906458,-0.0268 c 0.190995,-0.0764 0.419198,-0.067 0.507119,0.0209 0.08792,0.0879 -0.06835,0.15045 -0.347266,0.13897 -0.308226,-0.0127 -0.370919,-0.0754 -0.159853,-0.15986 z m 18.176235,-0.0882 c 0.0914,-0.14789 0.277024,-0.20039 0.412491,-0.11667 0.366987,0.22681 0.298558,0.38557 -0.166191,0.38557 -0.226869,0 -0.337703,-0.121 -0.2463,-0.2689 z m -12.834959,-0.26026 c 0,-0.14552 0.119063,-0.26459 0.264583,-0.26459 0.145521,0 0.264584,0.11907 0.264584,0.26459 0,0.14552 -0.119063,0.26458 -0.264584,0.26458 -0.14552,0 -0.264583,-0.11906 -0.264583,-0.26458 z m 1.322917,-0.0156 c 0,-0.15411 0.119062,-0.20661 0.264583,-0.11668 0.145521,0.0899 0.264583,0.21603 0.264583,0.2802 0,0.0642 -0.119062,0.11668 -0.264583,0.11668 -0.145521,0 -0.264583,-0.12609 -0.264583,-0.2802 z m -11.178647,-0.15961 c 0.1819,-0.0734 0.47956,-0.0734 0.661459,0 0.181901,0.0734 0.03307,0.13345 -0.330729,0.13345 -0.3638,0 -0.51263,-0.06 -0.33073,-0.13345 z m 0.0662,-1.41227 c 0,-0.14552 0.12609,-0.26459 0.2802,-0.26459 0.154105,0 0.206609,0.11907 0.11667,0.26459 -0.0899,0.14552 -0.21603,0.26458 -0.2802,0.26458 -0.0642,0 -0.11667,-0.11906 -0.11667,-0.26458 z"
       id="path9138" />
  </g>
</svg>
