<?xml version="1.0" encoding="UTF-8" standalone="no"?>
<!-- Created with Inkscape (http://www.inkscape.org/) -->

<svg
   width="164.34663mm"
   height="85.454575mm"
   viewBox="0 0 164.34661 85.454552"
   version="1.1"
   id="svg5"
   inkscape:version="1.1 (c4e8f9ed74, 2021-05-24)"
   sodipodi:docname="ornament26.svg"
   xmlns:inkscape="http://www.inkscape.org/namespaces/inkscape"
   xmlns:sodipodi="http://sodipodi.sourceforge.net/DTD/sodipodi-0.dtd"
   xmlns="http://www.w3.org/2000/svg"
   xmlns:svg="http://www.w3.org/2000/svg">
  <sodipodi:namedview
     id="namedview7"
     pagecolor="#ffffff"
     bordercolor="#666666"
     borderopacity="1.0"
     inkscape:pageshadow="2"
     inkscape:pageopacity="0.0"
     inkscape:pagecheckerboard="0"
     inkscape:document-units="mm"
     showgrid="false"
     inkscape:zoom="0.94615212"
     inkscape:cx="209.79713"
     inkscape:cy="500.44806"
     inkscape:window-width="2506"
     inkscape:window-height="1403"
     inkscape:window-x="1974"
     inkscape:window-y="0"
     inkscape:window-maximized="1"
     inkscape:current-layer="layer1" />
  <defs
     id="defs2" />
  <g
     inkscape:label="Layer 1"
     inkscape:groupmode="layer"
     id="layer1"
     transform="translate(407.75942,-79.95256)">
    <path
       style="fill:#000000;stroke-width:0.264583"
       d="m -407.1774,165.18891 c -0.10193,-0.0769 -0.20373,-2.62876 -0.22622,-5.67081 -0.0245,-3.31341 0.0534,-5.38199 0.19439,-5.15937 0.1294,0.20439 0.2371,0.67264 0.23933,1.04054 0.006,0.96529 1.659,4.23856 2.55084,5.0507 1.28694,1.17193 3.14779,2.09264 4.76877,2.35951 2.16653,0.35669 45.08843,0.3473 47.3272,-0.0103 2.01148,-0.32134 4.13915,-1.20532 5.33641,-2.21712 0.83474,-0.70543 0.84827,-0.70745 1.13586,-0.17008 0.36665,0.68509 2.00558,1.72856 3.64112,2.31822 1.15415,0.4161 3.17173,0.45058 24.57217,0.41991 16.61872,-0.0238 23.74183,-0.12208 24.8017,-0.34211 3.00629,-0.6241 5.59881,-2.99842 6.72542,-6.15938 0.24636,-0.69123 0.55363,-1.25677 0.68281,-1.25677 0.13156,0 0.12725,-0.14548 -0.01,-0.33073 -0.13457,-0.1819 -0.16952,-0.74745 -0.0777,-1.25677 0.18559,-1.02911 0.27275,-0.89957 0.89014,1.32291 0.38639,1.39095 1.84739,4.11922 2.58863,4.83403 0.86651,0.8356 3.0639,2.07036 4.67584,2.62744 1.76017,0.6083 1.76075,0.60833 17.58103,0.60833 h 15.82081 l -0.0781,1.05833 -0.0781,1.05833 -20.20956,0.0694 c -20.43209,0.0702 -21.18395,0.0397 -20.84463,-0.84452 0.0619,-0.1614 0.0149,-0.7674 -0.1044,-1.34668 l -0.21702,-1.05323 0.0211,1.05834 c 0.0116,0.58208 0.005,1.3108 -0.0159,1.61937 l -0.037,0.56105 -60.73498,-0.0244 c -33.40424,-0.0134 -60.81839,-0.0873 -60.92032,-0.16416 z m 121.83866,-5.75717 c -0.0671,-0.25743 -0.12639,-0.11087 -0.13178,0.32569 -0.005,0.43657 0.0495,0.64719 0.12197,0.46806 0.0725,-0.17913 0.0769,-0.53632 0.01,-0.79375 z m -112.76357,1.12722 c -0.14552,-0.0455 -0.95808,-0.2881 -1.80569,-0.53911 -2.0815,-0.61642 -4.17891,-2.61627 -4.62983,-4.41448 -0.74228,-2.96011 -0.23662,-5.47173 1.48774,-7.38963 1.41531,-1.57417 3.20294,-2.45253 5.52631,-2.71539 l 1.62377,-0.18371 0.17998,0.81946 c 0.14201,0.64655 0.30046,0.80229 0.75094,0.7381 0.36496,-0.052 0.6024,-0.30342 0.65814,-0.69689 0.0648,-0.4573 0.20082,-0.56896 0.52917,-0.43433 0.24308,0.0997 0.84981,0.29873 1.34829,0.44236 0.51983,0.14978 1.54541,0.90024 2.40503,1.75985 1.84281,1.84282 2.53098,3.58297 2.27575,5.75457 -0.15301,1.30188 -0.10509,1.48409 0.59689,2.26974 0.71673,0.80216 0.82571,0.83878 1.78755,0.6008 l 1.02429,-0.25342 -0.005,-1.45473 c -0.003,-0.95608 -0.21171,-1.89433 -0.60877,-2.73724 -0.33229,-0.70539 -0.56032,-1.41403 -0.50675,-1.57474 0.22865,-0.68597 3.04528,3.61524 3.72284,5.68506 0.0804,0.2456 0.53971,0.56011 1.0207,0.69891 0.48099,0.1388 1.07535,0.33465 1.32079,0.43523 0.3614,0.14809 0.5251,-0.0825 0.86071,-1.21269 0.41151,-1.38571 0.40951,-1.40265 -0.28435,-2.40389 -0.86937,-1.2545 -1.49895,-1.92616 -2.98982,-3.18963 -1.29658,-1.09881 -1.09973,-1.29307 0.43779,-0.43204 1.58977,0.8903 2.50273,1.5578 3.77836,2.76251 0.98044,0.92593 1.43584,1.15666 2.57969,1.30697 l 1.38906,0.18253 -0.0264,-1.01701 c -0.0467,-1.80305 -0.28428,-2.15464 -2.22257,-3.28977 -1.97031,-1.15389 -8.02318,-3.68038 -8.8173,-3.68038 -0.26085,0 -0.70539,-0.18128 -0.98786,-0.40285 -0.47759,-0.37461 -0.4394,-0.3918 0.54474,-0.24514 3.72928,0.55571 10.61954,2.73204 12.08881,3.81832 1.00265,0.74129 3.38932,0.76787 3.38932,0.0377 0,-1.6728 -0.318,-2.18135 -1.78302,-2.85146 -0.79422,-0.36329 -2.29553,-0.83429 -3.33624,-1.04667 -1.04071,-0.21238 -2.01126,-0.44262 -2.15678,-0.51165 -0.5221,-0.24765 4.26207,0.12176 5.58918,0.43157 1.31501,0.30699 1.38476,0.29346 2.3151,-0.44886 0.52759,-0.42096 0.95925,-0.89085 0.95925,-1.04421 10e-6,-0.15335 -0.40984,-0.67606 -0.91076,-1.16157 -0.7693,-0.74564 -1.0467,-0.85946 -1.78594,-0.73276 -0.48134,0.0825 -1.96171,0.3411 -3.28971,0.57468 -3.43417,0.60402 -4.06775,0.66533 -4.06775,0.39363 0,-0.13215 0.26789,-0.29543 0.59531,-0.36284 6.6287,-1.36474 7.22738,-1.64738 7.70205,-3.63611 0.15344,-0.64284 0.065,-0.74541 -0.99084,-1.14862 l -1.15933,-0.44275 -2.74287,1.31452 c -3.26123,1.56295 -6.59031,2.61627 -9.39124,2.97139 -2.29595,0.2911 -2.85232,0.16965 -1.11739,-0.24391 2.59246,-0.61798 6.21508,-1.9576 7.9922,-2.95547 3.87189,-2.17409 4.13919,-2.42177 4.13919,-3.83535 0,-1.05479 -0.057,-1.13698 -1.06914,-1.54196 -1.06562,-0.42638 -1.07126,-0.42539 -1.71143,0.302 -0.35326,0.40138 -0.64605,0.80894 -0.65065,0.90569 -0.0189,0.39869 -2.80147,2.18631 -4.54026,2.91686 -1.9383,0.81439 -2.79332,0.85801 -1.24737,0.0636 1.24429,-0.63937 3.60679,-2.84914 4.51992,-4.22769 0.81619,-1.23223 0.80783,-1.67673 -0.0508,-2.70341 -0.47394,-0.5667 -0.57016,-0.58135 -1.74844,-0.2662 -1.19882,0.32063 -1.27948,0.40497 -2.09188,2.18719 -0.78542,1.72304 -2.6203,4.09298 -2.92951,3.78377 -0.0746,-0.0746 0.17873,-1.11022 0.56295,-2.3014 0.68203,-2.11451 0.68696,-2.1786 0.20817,-2.70766 -0.96954,-1.07133 -1.36194,-1.11226 -2.5173,-0.26261 l -1.07355,0.7895 -0.0699,2.09025 c -0.0385,1.14964 -0.26467,2.67652 -0.50268,3.39309 -0.82289,2.4775 -2.92218,4.37322 -5.50867,4.97452 -0.59375,0.13803 -0.72292,0.0684 -0.79375,-0.42817 -0.1361,-0.954 -0.98729,-0.91447 -1.35597,0.063 -0.31382,0.83197 -0.32645,0.83683 -1.7241,0.66227 -2.97884,-0.37202 -5.17789,-1.79954 -6.54898,-4.25128 -0.85003,-1.52 -0.96704,-1.95094 -0.9861,-3.63184 -0.0351,-3.09625 0.78892,-4.84258 2.98992,-6.33644 2.28272,-1.54933 1.74138,-1.51925 26.9875,-1.49952 l 23.15104,0.0181 1.5875,0.83867 c 1.02738,0.54276 1.81485,1.19131 2.23185,1.83812 1.13586,1.76186 2.93579,1.57527 3.86453,-0.40061 0.9296,-1.97771 1.43504,-2.16798 6.1593,-2.31863 2.28167,-0.0728 12.89959,-0.1279 23.59537,-0.12253 22.00095,0.0111 20.70149,-0.1079 23.58693,2.15903 1.69946,1.33517 2.55833,2.94403 2.79481,5.23533 0.3649,3.53556 -3.42429,7.79283 -7.34984,8.25776 -1.27623,0.15115 -1.30482,0.13905 -1.30482,-0.55208 0,-0.82256 -0.67212,-1.19611 -1.1876,-0.66004 -0.19405,0.2018 -0.42992,0.95928 -0.52416,1.68329 -0.20945,1.60907 -0.40491,1.88895 -0.40491,0.57978 0,-0.84747 -0.0802,-0.97013 -0.63459,-0.97013 -0.99824,0 -3.63548,-1.49071 -4.69824,-2.65569 -1.65656,-1.81589 -1.98562,-4.76468 -0.79929,-7.16247 0.58857,-1.18961 0.51552,-1.58181 -0.45892,-2.46367 -0.50208,-0.45438 -0.68936,-0.4718 -1.97616,-0.18383 -1.35693,0.30367 -1.42887,0.36267 -1.58361,1.29866 -0.24741,1.49647 -0.19641,3.51318 0.11741,4.64337 0.15532,0.55935 0.21295,1.08644 0.12808,1.17131 -0.54514,0.54513 -2.00093,-3.53292 -2.00093,-5.60514 0,-1.56428 -0.0427,-1.60645 -1.8844,-1.85851 -1.03135,-0.14116 -1.25255,-0.0714 -2.0182,0.63644 -0.58426,0.54016 -0.8599,1.03746 -0.8599,1.55144 0,0.8136 1.50344,3.29311 2.89345,4.77195 0.46048,0.4899 0.7801,0.94787 0.71028,1.01769 -0.43214,0.43214 -4.93387,-3.72347 -5.30695,-4.89893 -0.15604,-0.49164 -0.37914,-0.58137 -1.44551,-0.58137 -0.69354,0 -1.32429,0.0633 -1.40166,0.14066 -0.0774,0.0774 -0.0401,0.67883 0.0828,1.33659 0.1805,0.96614 0.48507,1.43478 1.58519,2.43902 2.76261,2.52188 4.33521,3.44174 7.77724,4.54917 2.19226,0.70533 2.8716,1.18129 1.32291,0.92687 -4.01812,-0.66009 -8.36706,-2.35869 -11.42064,-4.46065 l -1.36648,-0.94062 -0.88248,0.5928 c -0.72691,0.4883 -0.89662,0.78538 -0.9627,1.68523 -0.0634,0.86322 0.0477,1.21177 0.52917,1.66121 0.76422,0.71331 2.33608,1.41665 4.12521,1.84585 0.75933,0.18216 1.45723,0.4552 1.55089,0.60675 0.26203,0.42397 -4.01276,-0.0201 -5.72301,-0.5945 l -1.45004,-0.48701 -0.86486,0.97171 c -0.47567,0.53444 -0.86495,1.09637 -0.86506,1.24874 -1.1e-4,0.15237 0.46127,0.72765 1.0253,1.27841 l 1.0255,1.00137 1.16886,-0.39683 c 1.02354,-0.3475 4.72772,-0.98375 5.59667,-0.96131 0.58845,0.0152 -0.5303,0.50002 -1.82157,0.7894 -1.50798,0.33794 -3.95936,1.66968 -4.19269,2.27772 -0.0889,0.2316 -0.041,0.86896 0.10642,1.41636 0.24553,0.91183 0.36134,1.00779 1.38124,1.14459 1.01804,0.13655 1.20805,0.0619 2.22181,-0.87252 1.8619,-1.71624 4.67874,-2.91452 8.43721,-3.58918 4.163,-0.74727 4.61602,-0.3705 0.79375,0.66015 -4.01404,1.08237 -7.87718,3.32124 -8.92828,5.17437 -0.10836,0.19105 -10e-4,0.95438 0.23864,1.6963 l 0.43565,1.34893 h 1.27735 c 1.21604,0 1.30234,-0.049 1.79813,-1.02082 0.57066,-1.11858 4.09759,-4.53543 4.68155,-4.53543 0.49349,0 0.45971,0.3855 -0.0725,0.82718 -0.6637,0.55082 -2.30951,2.88193 -2.84094,4.02389 -0.58916,1.26599 -0.43046,1.92817 0.73219,3.05505 l 0.91478,0.88664 1.27227,-0.62607 1.27227,-0.62607 0.06,-1.51049 c 0.0581,-1.46192 0.56109,-2.83998 1.30981,-3.5887 0.42064,-0.42064 0.4164,-0.44079 0.36495,1.73199 -0.0403,1.70208 0.37612,3.48065 0.89585,3.82617 0.16081,0.10692 0.72518,0.19621 1.25415,0.19844 0.74923,0.003 1.06257,-0.14981 1.41798,-0.69223 0.43785,-0.66826 0.43222,-0.74752 -0.13999,-1.96921 -0.48347,-1.03223 -0.56946,-1.56785 -0.45477,-2.83269 0.29349,-3.2367 2.38336,-5.54494 5.46678,-6.038 0.74832,-0.11966 1.08387,-0.30565 1.08667,-0.60232 0.004,-0.37377 0.0372,-0.37794 0.26053,-0.0323 0.14106,0.21828 0.2583,0.77109 0.26053,1.22846 0.007,1.37329 1.48505,1.4977 1.64228,0.13821 0.0775,-0.66991 0.14778,-0.70173 1.40448,-0.63564 2.7146,0.14277 6.10572,2.71444 6.75769,5.12472 0.45722,1.69031 0.17527,3.91719 -0.69943,5.52431 -0.81233,1.49252 -1.71253,2.3579 -3.38161,3.25081 l -1.08915,0.58267 -23.41563,0.16072 c -14.28801,0.0981 -23.83913,0.0638 -24.50207,-0.088 -0.59755,-0.13679 -1.39816,-0.5663 -1.77914,-0.95447 -1.23948,-1.2629 -2.3193,-2.48882 -2.23951,-2.54254 0.0429,-0.0289 1.00039,-0.24668 2.12774,-0.48399 3.91707,-0.82452 8.57793,-3.5119 11.49004,-6.62495 1.75056,-1.87135 3.71363,-4.67906 3.96124,-5.66558 0.36956,-1.47245 -2.52586,-5.86715 -5.63913,-8.55914 -2.14844,-1.85773 -4.28862,-2.97893 -6.99159,-3.66276 -1.87781,-0.47507 -2.74527,-0.49832 -13.29531,-0.35627 l -11.28643,0.15197 v 12.52655 12.52656 h 9.26041 c 5.99723,0 9.26042,0.0932 9.26042,0.26459 0,0.14552 -0.11872,0.26458 -0.26382,0.26458 -0.1451,0 -0.72489,0.41655 -1.28841,0.92566 -1.52071,1.37386 -3.10092,1.96209 -6.03851,2.24781 -2.28466,0.22221 -43.19069,0.35425 -43.87072,0.1416 z m -0.17838,-3.0164 c 0.19294,-0.12232 0.41431,-0.69598 0.49195,-1.27479 0.13127,-0.97869 0.0845,-1.07586 -0.66808,-1.38758 -1.3643,-0.56511 -3.01947,0.32504 -2.60632,1.4017 0.0913,0.23806 0.37932,0.43283 0.63992,0.43283 0.26061,0 0.62254,0.23813 0.8043,0.52917 0.35269,0.56475 0.77121,0.65815 1.33823,0.29867 z m 102.86044,-0.33706 c 0.0813,-0.13151 0.07,-0.59339 -0.0251,-1.0264 -0.12104,-0.55105 -0.33062,-0.78729 -0.69847,-0.78729 -0.28904,0 -0.75663,-0.12368 -1.03908,-0.27484 -0.70974,-0.37984 -1.86882,0.74187 -1.64621,1.59314 0.12245,0.46823 0.30224,0.56091 0.91393,0.47114 0.41882,-0.0615 0.88267,0.0343 1.03078,0.21271 0.28252,0.34041 1.2112,0.22088 1.46418,-0.18846 z m -98.73884,-0.8655 c 1.15707,-0.9904 1.15669,-1.61397 -0.001,-1.90457 -0.96136,-0.24129 -2.06468,0.44659 -2.17586,1.35657 -0.20541,1.68113 0.61261,1.88704 2.17701,0.548 z m 101.89444,-0.61746 c 0.7424,-0.84349 0.83542,-1.52862 0.23862,-1.75763 -0.80057,-0.30721 -1.48407,-0.15697 -1.97767,0.43471 -1.3233,1.58625 0.37212,2.87598 1.73905,1.32292 z m -6.6598,-1.37352 c 0.57183,-0.21741 0.65264,-0.40537 0.6364,-1.48014 -0.0153,-1.01442 -0.12463,-1.27942 -0.62092,-1.50554 -0.89288,-0.40682 -1.48236,-0.076 -1.40183,0.7867 0.0374,0.40052 -0.0208,0.99505 -0.12936,1.32117 -0.35158,1.05635 0.20235,1.37715 1.51571,0.87781 z m -97.44068,-0.55402 c 0.97569,-0.52217 0.45795,-1.84278 -0.72246,-1.84278 -0.78403,0 -1.26702,0.8689 -0.88243,1.5875 0.31401,0.58674 0.83169,0.66909 1.60489,0.25528 z m 101.26511,-0.0436 c 0.45362,-0.45361 0.39223,-1.44929 -0.10101,-1.63857 -0.78101,-0.2997 -1.41403,-0.16231 -1.69815,0.36857 -0.5951,1.11194 0.90109,2.16807 1.79916,1.27 z m -104.84822,-0.36274 c 0.31619,-0.085 0.65113,-0.51385 0.81823,-1.04774 0.24805,-0.79251 0.21259,-0.96996 -0.28779,-1.44004 -0.31388,-0.29488 -0.82673,-0.53615 -1.13965,-0.53615 -0.60833,0 -1.12385,0.70639 -0.92368,1.26567 0.0669,0.18679 -0.0221,0.5127 -0.19764,0.72424 -0.71772,0.86479 0.23712,1.43532 1.73053,1.03402 z m 7.11596,-0.27411 c 0.46453,-0.17826 0.56692,-1.03936 0.15393,-1.29461 -0.14552,-0.0899 -0.26459,-0.51368 -0.26459,-0.94165 0,-0.92253 -0.6623,-1.05136 -1.58092,-0.3075 -0.49839,0.40357 -0.54761,0.60028 -0.34541,1.38058 0.16409,0.63326 0.43247,0.96485 0.88262,1.09049 0.35576,0.0993 0.66687,0.19241 0.69135,0.20692 0.0245,0.0145 0.23283,-0.0459 0.46302,-0.13423 z m 101.27008,-0.80645 c 0.62919,-0.56941 0.61342,-1.06165 -0.0453,-1.4142 -0.30944,-0.16561 -0.52916,-0.55399 -0.52916,-0.93535 0,-0.9057 -1.10051,-0.89871 -1.69642,0.0108 -0.41066,0.62675 -0.4015,0.72048 0.168,1.71775 0.6567,1.14996 1.30642,1.34184 2.1029,0.62103 z m -4.36744,-1.96354 c 0.60389,-0.22577 1.03049,-1.11389 0.75171,-1.56496 -0.21275,-0.34424 -1.11209,-0.34585 -1.32438,-0.002 -0.0899,0.14552 -0.51368,0.26458 -0.94165,0.26458 -0.84199,0 -0.99656,0.42042 -0.49744,1.35303 0.28343,0.52959 0.4734,0.52484 2.01176,-0.0503 z m -99.68056,-0.56124 c 0.24008,-0.6887 0.2195,-0.92141 -0.11069,-1.2516 -0.31745,-0.31745 -0.51045,-0.34012 -0.88802,-0.10433 -0.29721,0.18562 -0.6257,0.21058 -0.85562,0.065 -1.1262,-0.71293 -1.91724,0.29321 -1.15052,1.46338 0.35925,0.54828 0.65223,0.67352 1.57562,0.67352 1.03803,0 1.15934,-0.0718 1.42923,-0.846 z m -1.57494,-10.78458 c 0.24331,-0.15389 0.50833,-0.14553 0.71069,0.0224 0.43822,0.36369 1.41485,-0.17313 1.41485,-0.77769 0,-0.96907 -0.69542,-1.536 -1.84864,-1.50707 -0.64525,0.0162 -1.19673,0.18569 -1.33975,0.41179 -0.35465,0.5606 -0.30462,1.77382 0.0795,1.92883 0.48666,0.19637 0.55807,0.19068 0.98332,-0.0783 z m 100.54123,-0.78744 c 0.4898,-0.9152 0.31616,-1.56945 -0.53308,-2.00861 -0.89692,-0.46382 -1.55035,-0.35363 -2.20722,0.3722 -0.55927,0.61799 -0.28705,1.35443 0.50065,1.35443 0.33267,0 0.67338,0.17859 0.75714,0.39687 0.21662,0.5645 1.15795,0.49155 1.48251,-0.11489 z m 2.79752,-0.56288 c 0.0955,-0.1545 0.4597,-0.38968 0.80937,-0.52262 1.08386,-0.41209 0.65778,-1.85384 -0.54164,-1.8328 -0.29832,0.005 -0.89229,0.29552 -1.31994,0.64507 -0.69882,0.57121 -0.74627,0.70417 -0.46869,1.3134 0.31477,0.69086 1.19696,0.9211 1.5209,0.39695 z m -105.45411,-0.98269 c 0.57401,-0.4648 0.57503,-0.47968 0.0954,-1.38886 -0.62394,-1.18288 -0.84556,-1.33649 -1.80768,-1.25294 -0.59558,0.0517 -0.81486,0.21756 -0.8783,0.66424 -0.0465,0.32742 0.0428,0.59532 0.19844,0.59532 0.15564,0 0.28299,0.33734 0.28299,0.74965 0,0.41231 0.0794,0.82903 0.17639,0.92604 0.33171,0.33171 1.35197,0.17681 1.93271,-0.29345 z m 6.34795,-0.18003 c 0.17586,-0.21191 0.23972,-0.51478 0.14191,-0.67305 -0.0978,-0.15827 -0.0352,-0.45962 0.13911,-0.66968 0.56783,-0.68419 0.0979,-1.22299 -0.98749,-1.13235 -0.88836,0.0742 -1.0043,0.17304 -1.18257,1.00828 -0.16231,0.76051 -0.0996,1.00881 0.35065,1.38906 0.6679,0.56403 1.11601,0.58667 1.53839,0.0777 z m -3.29768,-1.86367 c 0,-0.66671 -0.11497,-0.80701 -0.71837,-0.87658 -0.57908,-0.0668 -0.75065,0.0457 -0.88481,0.58027 -0.22536,0.89793 0.0597,1.26868 0.90056,1.17137 0.58623,-0.0678 0.70262,-0.2128 0.70262,-0.87506 z m 97.05377,0.41524 c 0.84374,-0.32079 1.10517,-1.93464 0.41463,-2.55957 -0.69139,-0.6257 -1.68262,-0.38098 -1.71955,0.42454 -0.0167,0.3638 -0.11872,0.86981 -0.22675,1.12447 -0.4463,1.05209 0.23688,1.50284 1.53167,1.01056 z m 3.73085,-0.17897 c 0.49324,-0.18927 0.55462,-1.18495 0.10101,-1.63856 -0.48769,-0.4877 -1.19737,-0.37835 -1.63929,0.25257 -0.72452,1.0344 0.22501,1.88994 1.53828,1.38599 z m 3.7842,-0.69929 c 0.14052,-0.1819 0.20252,-0.83257 0.13779,-1.44592 -0.13992,-1.32568 -0.78511,-1.6801 -1.82185,-1.00081 -0.58988,0.38651 -0.65109,0.56199 -0.49192,1.4104 0.1,0.53293 0.31968,1.05671 0.48822,1.16396 0.48098,0.30605 1.40684,0.23603 1.68776,-0.12763 z m -106.49209,-1.23929 c 0.71788,-0.36006 0.76161,-0.64097 0.32198,-2.06801 -0.11427,-0.3709 -1.17683,-0.46048 -1.17683,-0.0992 0,0.12733 -0.35719,0.30294 -0.79375,0.39026 -1.01259,0.20251 -1.03926,0.87734 -0.0661,1.67324 0.40018,0.32732 0.78714,0.56609 0.8599,0.53062 0.0728,-0.0355 0.45744,-0.22757 0.85485,-0.4269 z m 4.1471,-0.0484 c 0.64434,-0.22462 0.82829,-0.43017 0.76709,-0.85719 -0.0447,-0.31176 -0.31475,-0.60643 -0.60689,-0.66218 -0.28952,-0.0553 -0.68797,-0.33113 -0.88545,-0.61307 -0.21055,-0.3006 -0.59469,-0.47903 -0.92881,-0.43142 -0.45873,0.0654 -0.58489,0.28745 -0.64734,1.13954 -0.0647,0.88196 0.0235,1.10803 0.52916,1.35657 0.82105,0.40359 0.81006,0.40317 1.77224,0.0677 z m 98.18465,-1.19961 c 0.64589,0.12918 0.87019,0.0383 1.21906,-0.49418 0.70516,-1.07621 0.34202,-1.43599 -1.37909,-1.36632 -1.78308,0.0722 -2.25037,0.51409 -1.73639,1.64216 0.26683,0.58562 0.39101,0.6525 0.71395,0.38448 0.22945,-0.19042 0.7179,-0.25905 1.18247,-0.16614 z m 19.91911,28.73391 c -2.49953,-0.53155 -4.722,-2.23261 -5.95533,-4.55817 -0.81391,-1.5347 -0.82075,-4.60932 -0.0137,-6.1442 1.20847,-2.29822 4.08629,-4.09366 6.56923,-4.09846 0.73488,-0.001 1.47902,-0.14546 1.65364,-0.32009 0.24695,-0.24694 0.3175,-0.19295 0.3175,0.24295 0,0.96175 0.29757,1.39747 0.95435,1.39747 0.49727,0 0.63315,-0.14054 0.63315,-0.65484 0,-0.59524 0.0783,-0.64028 0.8599,-0.4948 2.37133,0.44135 5.0123,2.78671 5.387,4.78403 0.0959,0.51113 0.10499,1.75648 0.0202,2.76745 -0.15078,1.79847 -0.13542,1.85853 0.7114,2.78257 0.82065,0.89548 0.91935,0.93176 1.90442,0.70001 1.01956,-0.23987 1.04052,-0.26892 1.12428,-1.55869 0.0861,-1.32572 -0.60763,-4.50431 -1.0416,-4.77252 -0.12891,-0.0797 -0.23437,-0.27534 -0.23437,-0.43483 0,-0.44122 1.04334,0.58706 1.80244,1.77641 0.37152,0.58209 0.93028,1.89177 1.2417,2.91042 0.5377,1.7588 0.6156,1.86452 1.54657,2.09899 1.12027,0.28216 2.21519,-0.007 2.64975,-0.69912 0.39711,-0.63271 -0.55973,-2.52416 -2.1216,-4.19393 -0.67239,-0.71884 -1.11694,-1.30276 -0.98788,-1.29761 0.74313,0.0297 3.62214,2.41813 4.37395,3.62865 0.45371,0.73052 0.68844,0.85989 1.56019,0.85989 0.96998,0 1.0437,-0.0586 1.34708,-1.07121 l 0.32094,-1.07121 -1.69938,-1.71655 c -1.34695,-1.36055 -2.2733,-1.9964 -4.46663,-3.06586 -1.52199,-0.74212 -3.54605,-1.62188 -4.49792,-1.95504 -2.38051,-0.83318 -1.02346,-0.81453 1.8412,0.0253 4.14312,1.21464 7.49399,2.81173 8.98486,4.28236 0.64396,0.63521 1.27884,0.67464 2.9588,0.18377 0.592,-0.17297 0.94319,-2.43237 0.44711,-2.87638 -0.37905,-0.33926 -2.99969,-1.35033 -5.77618,-2.22852 l -1.7198,-0.54395 1.85209,0.14511 c 1.01864,0.0798 2.92364,0.38196 4.23333,0.67144 l 2.38125,0.52633 0.99147,-1.1429 c 0.54531,-0.62859 0.98858,-1.26196 0.98503,-1.40748 -0.004,-0.14552 -0.42789,-0.71799 -0.94299,-1.27216 l -0.93655,-1.00759 -1.23911,0.396 c -2.05942,0.65814 -7.62503,1.30232 -7.1503,0.82759 0.0716,-0.0716 1.07368,-0.29706 2.22691,-0.50109 2.2962,-0.40625 5.66245,-1.58173 5.9855,-2.0901 0.11233,-0.17677 0.2053,-0.67858 0.20661,-1.11515 0.002,-0.61072 -0.1852,-0.90051 -0.81114,-1.25677 -0.44744,-0.25466 -0.90851,-0.46302 -1.02461,-0.46302 -0.11609,0 -0.90714,0.41914 -1.75787,0.93143 -1.8604,1.12027 -6.99404,2.82685 -10.33594,3.43598 -3.54846,0.64678 -3.86258,0.34325 -0.48451,-0.46817 4.53977,-1.09048 8.60152,-2.82298 10.53566,-4.49391 0.62194,-0.5373 0.73199,-0.81657 0.66146,-1.67858 -0.0792,-0.96799 -0.15968,-1.05778 -1.2597,-1.40572 -1.12098,-0.35456 -1.1927,-0.34514 -1.55771,0.20458 -0.84527,1.27305 -5.68226,4.54327 -6.69572,4.52689 -0.19859,-0.003 0.26715,-0.37204 1.03498,-0.81963 1.81045,-1.05535 4.1382,-3.19038 4.54248,-4.1664 0.28457,-0.687 0.23957,-0.88114 -0.42906,-1.85097 -0.65997,-0.95728 -0.83942,-1.06618 -1.54072,-0.93506 -1.62037,0.30297 -2.4805,0.73106 -2.62492,1.30644 -0.22988,0.91594 -2.20587,3.72283 -2.97604,4.22746 l -0.70058,0.45904 0.57665,-0.80983 c 0.7209,-1.0124 1.35926,-2.79006 1.35926,-3.78515 0,-0.59691 -0.22631,-0.90003 -1.06927,-1.43217 l -1.06927,-0.675 -1.58946,0.57954 c -1.25242,0.45666 -1.55045,0.66922 -1.40547,1.00242 0.47709,1.09647 0.42073,3.73604 -0.11763,5.50846 -0.87193,2.87064 -2.63651,4.49232 -5.66296,5.20435 -0.64649,0.15209 -0.7276,0.0969 -0.7276,-0.49532 0,-0.96956 -1.01048,-0.91508 -1.38405,0.0746 l -0.27974,0.74112 -1.81209,-0.45031 c -3.28875,-0.81727 -5.35849,-2.44162 -6.84825,-5.37456 -0.55344,-1.08956 -0.4865,-4.24656 0.11675,-5.50659 0.77089,-1.61017 2.44785,-3.29846 4.06522,-4.0927 l 1.51195,-0.74246 16.31427,-0.0658 16.31428,-0.0658 0.0801,9.06167 c 0.109,12.33028 -0.008,18.41806 -0.45367,23.61375 l -0.13619,1.5875 -15.39795,0.0178 c -8.46887,0.01 -15.78116,-0.0637 -16.24953,-0.16332 z m 0.70998,-3.40894 c 0.5526,-1.03253 0.33297,-1.81662 -0.63789,-2.27732 -0.85413,-0.40531 -0.96287,-0.40249 -1.71979,0.0446 -0.4444,0.26251 -0.80801,0.66594 -0.80801,0.8965 0,0.54824 0.51976,1.0542 1.08294,1.0542 0.24637,0 0.51648,0.1786 0.60024,0.39688 0.21662,0.5645 1.15795,0.49154 1.48251,-0.1149 z m 3.51504,-0.93121 c 1.06816,-0.98106 1.1754,-1.25243 0.66146,-1.6738 -0.51487,-0.42214 -1.32065,-0.44513 -2.11667,-0.0604 -0.56456,0.27288 -0.7276,0.53782 -0.7276,1.18234 0,0.83379 0.39455,1.46675 0.91281,1.46439 0.1528,-7.9e-4 0.7243,-0.41134 1.27,-0.91255 z m -5.26188,-3.80819 c 0.17469,-1.07644 -0.35909,-1.66337 -1.41885,-1.56013 -0.59942,0.0584 -0.6667,0.18764 -0.7173,1.3781 -0.0635,1.49425 0.19461,1.7805 1.24729,1.38315 0.55975,-0.21128 0.77556,-0.50289 0.88886,-1.20112 z m 3.21136,0.48867 c 0,-0.76549 -0.10573,-0.94103 -0.60987,-1.01249 -1.12674,-0.15973 -1.81258,0.99775 -1.04563,1.7647 0.18087,0.18088 0.62736,0.29399 0.99218,0.25135 0.56692,-0.0662 0.66332,-0.21209 0.66332,-1.00356 z m 4.04767,-0.42002 c 0.0434,-0.30378 -0.10543,-0.70531 -0.33073,-0.8923 -0.22531,-0.18698 -0.40965,-0.62678 -0.40965,-0.97733 0,-0.7643 -0.55062,-1.03408 -1.29618,-0.63507 -0.92231,0.49361 -1.12614,1.17429 -0.67498,2.25407 0.38333,0.91745 0.4577,0.96075 1.51785,0.88383 0.89681,-0.0651 1.1302,-0.18887 1.19369,-0.6332 z m -4.6367,-1.96123 c 0.93239,0 1.71708,-1.881 0.91335,-2.18942 -0.41542,-0.15941 -2.77525,0.003 -3.11747,0.21433 -0.36198,0.22373 -0.30692,0.83211 0.15641,1.72809 0.33881,0.65519 0.48912,0.74055 0.90865,0.51603 0.27647,-0.14796 0.78905,-0.26903 1.13906,-0.26903 z m 1.69586,-12.33408 c 0.0903,-0.23531 0.0537,-0.74132 -0.0812,-1.12448 -0.21434,-0.60854 -0.39137,-0.69664 -1.39985,-0.69664 -0.90396,0 -1.23895,0.12874 -1.5437,0.59327 -0.57367,0.87442 -0.23846,1.47641 0.74199,1.33251 0.4413,-0.0648 0.86367,-0.0186 0.93861,0.10271 0.23673,0.38303 1.17301,0.23859 1.34415,-0.20737 z m -4.22212,-1.62857 c 0.55627,-0.43183 0.56871,-0.51573 0.22473,-1.51547 -0.39379,-1.14448 -1.03462,-1.44496 -1.99058,-0.93335 -0.65059,0.34819 -0.68096,0.62512 -0.12907,1.177 0.22755,0.22757 0.34623,0.52298 0.26372,0.65649 -0.24621,0.39837 0.1405,1.08467 0.60761,1.07835 0.23909,-0.003 0.69971,-0.21159 1.02359,-0.46302 z m 6.8633,-0.65557 c 0.11406,-0.18191 0.23742,-0.7649 0.27414,-1.29556 0.0823,-1.18915 -0.40294,-1.65927 -1.47058,-1.42478 -1.56604,0.34396 -1.11811,3.05107 0.50484,3.05107 0.26633,0 0.57755,-0.14883 0.6916,-0.33073 z m -3.86291,-0.73692 c 0.67553,-0.36153 0.66499,-1.47757 -0.0174,-1.84277 -0.5928,-0.31726 -1.56433,0.0456 -1.61885,0.60462 -0.12597,1.29157 0.56271,1.81269 1.63624,1.23815 z m -2.12335,-2.68628 c 0.95948,-0.70937 1.07494,-1.89207 0.22891,-2.34485 -0.44969,-0.24067 -0.66162,-0.19999 -1.12448,0.21585 -0.31369,0.28182 -0.78706,0.58915 -1.05193,0.68294 -0.68149,0.24133 -0.46771,1.27187 0.34929,1.68373 0.82946,0.41815 0.6814,0.44016 1.59821,-0.23767 z m 4.71352,-0.44131 c 0.73117,-0.56235 0.67742,-1.44065 -0.0971,-1.58591 -0.28937,-0.0543 -0.62134,-0.264 -0.73771,-0.46606 -0.26332,-0.4572 -1.09293,-0.4784 -1.43474,-0.0367 -0.61692,0.79729 -0.5913,1.29255 0.10001,1.93323 0.82728,0.7667 1.32804,0.80257 2.1695,0.15539 z m -90.85202,23.58042 c 0.28779,-0.0729 1.18076,-0.6722 1.98438,-1.33171 l 1.46112,-1.1991 -1.41706,1.36239 c -0.87415,0.84044 -1.6344,1.35064 -1.98437,1.33171 -0.52912,-0.0286 -0.53209,-0.0396 -0.0441,-0.16329 z m 4.09527,-1.81461 c 1.24335,-1.03197 3.58368,-3.05603 5.20072,-4.49792 1.61704,-1.44189 5.48174,-4.82427 8.58822,-7.5164 3.10648,-2.69214 6.0439,-5.28175 6.5276,-5.75469 0.4837,-0.47295 1.09508,-0.8599 1.35863,-0.8599 0.48649,0 3.09919,2.10304 4.2163,3.39381 0.71978,0.83168 2.20754,3.08023 2.81394,4.25288 0.50544,0.9774 0.44815,1.1169 -1.59111,3.87439 -1.6335,2.20882 -4.56243,4.97685 -6.06824,5.73489 -0.58208,0.29302 -1.24002,0.6918 -1.46208,0.88618 -0.22205,0.19437 -1.52094,0.78487 -2.88642,1.31222 l -2.48268,0.95881 -8.23776,0.046 -8.23777,0.046 z m 3.84814,1.21484 c 0.0899,-0.14552 0.0445,-0.26458 -0.10106,-0.26458 -0.14552,0 -0.33817,0.11906 -0.4281,0.26458 -0.0899,0.14552 -0.0445,0.26458 0.10106,0.26458 0.14552,0 0.33817,-0.11906 0.4281,-0.26458 z m 3.33963,-2.55869 c 0.52711,-0.55725 1.18031,-1.14419 1.45156,-1.3043 0.4599,-0.27147 0.45392,-0.28822 -0.0885,-0.24826 -0.31993,0.0236 -1.16981,0.53876 -1.88863,1.14488 -0.92467,0.77969 -1.34697,0.99769 -1.44381,0.74532 -0.20072,-0.52306 -1.53424,-0.7995 -1.80411,-0.37398 -0.28782,0.45382 -0.27705,0.78755 0.041,1.27211 0.21276,0.32411 0.30218,0.33236 0.48768,0.045 0.12867,-0.19934 0.55883,-0.31405 0.99219,-0.26458 0.57818,0.066 0.79223,0.24889 0.87638,0.74879 l 0.11134,0.66146 0.15324,-0.7066 c 0.0843,-0.38864 0.58451,-1.16254 1.11162,-1.7198 z m -3.60421,0.44202 c 0.0899,-0.14552 0.21603,-0.26458 0.2802,-0.26458 0.0642,0 0.11668,0.11906 0.11668,0.26458 0,0.14553 -0.12609,0.26459 -0.2802,0.26459 -0.15411,0 -0.20662,-0.11906 -0.11668,-0.26459 z m 1.85021,1.32595 c 0.0927,-0.14998 -0.0135,-0.19434 -0.24897,-0.10398 -0.45837,0.17589 -0.54223,0.36553 -0.16165,0.36553 0.13694,0 0.32172,-0.1177 0.41062,-0.26155 z m 3.5517,-2.02463 c 0.0606,-0.0523 -0.20023,-0.0951 -0.5797,-0.0951 -0.37946,0 -0.76647,0.12384 -0.86001,0.27519 -0.15394,0.24908 1.12799,0.0887 1.43971,-0.18012 z m 0.58405,-1.48854 c -0.26131,-0.25936 -0.2917,-0.22897 -0.14812,0.14812 0.0994,0.26093 0.24731,0.40778 0.32877,0.32631 0.0815,-0.0815 1.7e-4,-0.29495 -0.18065,-0.47443 z m 4.34269,-1.46295 c -0.18852,-0.18851 -1.70949,1.08756 -1.56839,1.31586 0.0773,0.12505 0.48442,-0.0972 0.90475,-0.49395 0.42033,-0.39672 0.71896,-0.76658 0.66364,-0.82191 z m 0.80131,0.34288 c -0.10978,-0.58518 -0.0705,-0.92604 0.10673,-0.92604 0.15426,0 0.50962,-0.37681 0.78969,-0.83735 0.60869,-1.00091 2.10054,-1.74808 2.43574,-1.21989 0.13658,0.21522 0.21562,0.22939 0.21821,0.0391 0.007,-0.5362 -0.66127,-0.91489 -1.00621,-0.56996 -0.2366,0.23661 -0.43747,0.17264 -0.85067,-0.27088 -0.66235,-0.71095 -0.89688,-0.75273 -0.48022,-0.0856 0.26352,0.42197 0.17597,0.61716 -0.59307,1.32212 -0.49623,0.45488 -1.17013,0.89985 -1.49755,0.98883 -0.73898,0.20081 -0.73895,0.20131 0.0661,1.00639 0.3638,0.36381 0.66146,0.84547 0.66146,1.07036 0,0.2249 0.0728,0.4089 0.16174,0.4089 0.089,0 0.0836,-0.41671 -0.012,-0.92604 z m -2.36304,-0.79487 c 0.70994,-0.002 0.70452,-0.53953 -0.009,-0.8645 -0.80826,-0.36827 -1.35477,0.14883 -1.07821,1.02018 0.1427,0.44963 0.23309,0.49619 0.40993,0.21113 0.12476,-0.20113 0.42942,-0.36619 0.677,-0.36681 z m 4.24611,0.0838 c -0.0845,-0.21107 -0.14715,-0.14838 -0.15985,0.15985 -0.0115,0.27891 0.0511,0.43518 0.13897,0.34726 0.0879,-0.0879 0.0973,-0.31612 0.0209,-0.50711 z m 0.0527,-1.29256 c -0.36843,-0.2277 -0.7626,-0.0857 -0.7626,0.27468 0,0.12331 0.24819,0.15929 0.55153,0.08 0.40215,-0.10516 0.45931,-0.20122 0.21107,-0.35464 z m -2.21969,-1.56522 c 0.0927,-0.14998 -0.0135,-0.19434 -0.24896,-0.10399 -0.45837,0.1759 -0.54224,0.36554 -0.16165,0.36554 0.13693,0 0.32171,-0.1177 0.41061,-0.26155 z m 6.85078,-1.59053 c 0.0701,0 0.17701,0.32742 0.23763,0.7276 0.082,0.54114 0.12038,0.45406 0.14987,-0.33983 0.0326,-0.87654 0.17706,-1.1486 0.80807,-1.52135 0.42263,-0.24966 1.07747,-0.45392 1.4552,-0.45392 0.37773,0 0.68679,-0.11906 0.68679,-0.26458 0,-0.14553 -0.24516,-0.26459 -0.54479,-0.26459 -0.78688,0 -0.37586,-0.49471 0.90816,-1.09306 l 1.09183,-0.5088 -0.95524,0.16199 c -0.73124,0.124 -0.99297,0.0636 -1.11617,-0.25741 -0.17938,-0.46745 -1.15505,-0.55099 -1.76504,-0.15112 -0.28222,0.185 -0.14844,0.21249 0.46302,0.0952 0.62564,-0.12005 0.85989,-0.0681 0.85989,0.19081 0,0.42598 -1.57763,1.8255 -2.05882,1.82638 -0.18647,2.7e-4 -0.40757,0.17922 -0.49133,0.3975 -0.0838,0.21828 -0.31441,0.39687 -0.51256,0.39687 -0.20564,0 -0.29722,-0.16429 -0.21337,-0.38278 0.14321,-0.37322 0.0858,-0.37954 -1.60548,-0.17655 -0.13824,0.0166 -0.10848,0.17304 0.0661,0.34767 0.17462,0.17462 0.32128,0.62111 0.32591,0.99219 0.008,0.61738 0.0383,0.63536 0.3599,0.21166 0.19331,-0.25466 0.60251,-0.46302 0.90932,-0.46302 0.58312,0 0.56225,0.45652 -0.0611,1.33589 -0.15978,0.22541 -0.0283,0.13611 0.29211,-0.19844 0.32044,-0.33456 0.63995,-0.60828 0.71003,-0.60828 z m -7.51036,0.62566 c 0,-0.19749 -0.16934,-0.27949 -0.39688,-0.19218 -0.21828,0.0838 -0.39687,0.23878 -0.39687,0.34448 0,0.1057 0.17859,0.19218 0.39687,0.19218 0.21829,0 0.39688,-0.15502 0.39688,-0.34448 z m 10.71562,-1.15483 c 0.0899,-0.14552 0.0374,-0.26458 -0.11667,-0.26458 -0.15411,0 -0.2802,0.11906 -0.2802,0.26458 0,0.14552 0.0525,0.26458 0.11668,0.26458 0.0642,0 0.19026,-0.11906 0.28019,-0.26458 z m -4.26994,-2.77812 c -0.0964,-0.25132 0.004,-0.39688 0.27289,-0.39688 0.23385,0 0.42518,-0.11906 0.42518,-0.26458 0,-0.32432 -0.27682,-0.3325 -0.76616,-0.0226 -0.32641,0.20668 -0.25516,1.08098 0.0881,1.08098 0.0728,0 0.0638,-0.17859 -0.02,-0.39687 z m -26.28943,13.02688 c 0,-0.0583 0.50601,-0.50816 1.12448,-0.99966 0.61846,-0.4915 0.95646,-0.68446 0.7511,-0.42881 -0.3868,0.48154 -1.87558,1.61541 -1.87558,1.42847 z m -0.0527,-1.85108 c -0.1206,-0.63089 0.0198,-19.56549 0.14599,-19.69171 0.16125,-0.16124 21.04894,-0.0993 21.70101,0.0644 0.38238,0.096 0.68812,0.25089 0.67942,0.34425 -0.009,0.0934 -1.57507,1.53898 -3.48083,3.21247 -1.90575,1.67348 -4.66683,4.11801 -6.13574,5.43227 -1.4689,1.31426 -3.98042,3.51069 -5.58115,4.88097 -1.60073,1.37027 -3.87903,3.35962 -5.06289,4.42078 -1.9549,1.75228 -2.16289,1.87497 -2.26581,1.33657 z m 4.08116,-6.54461 c 0.47646,-0.29049 0.72034,-0.52862 0.54196,-0.52916 -0.17839,-5.3e-4 -0.71417,0.23669 -1.19063,0.52719 -0.47646,0.29049 -0.72034,0.52862 -0.54196,0.52916 0.17839,5.3e-4 0.71417,-0.23669 1.19063,-0.52719 z m 1.13087,-0.79474 c -0.22575,-0.43656 -0.586,-0.79375 -0.80054,-0.79375 -0.56195,0 -0.48043,0.46484 0.11464,0.65371 0.2776,0.0881 0.57152,0.33425 0.65316,0.54699 0.0816,0.21274 0.21475,0.3868 0.29582,0.3868 0.0811,0 -0.0373,-0.35718 -0.26308,-0.79375 z m -2.05052,-0.59648 c 0.1819,0.0613 0.33073,-0.0841 0.33073,-0.32312 0,-0.239 0.11906,-0.36096 0.26459,-0.27102 0.14552,0.0899 0.26458,-0.0221 0.26458,-0.24897 0,-0.22687 -0.20836,-0.42768 -0.46302,-0.44625 -0.25466,-0.0186 -0.7054,-0.0606 -1.00164,-0.0934 -0.36237,-0.0402 -0.53862,0.0944 -0.53862,0.41122 0,0.25899 0.0983,0.41013 0.2185,0.33585 0.12017,-0.0743 0.14607,0.20237 0.0576,0.61474 -0.1388,0.6467 -0.11298,0.69202 0.18783,0.32968 0.19181,-0.23105 0.49758,-0.36996 0.67948,-0.30868 z m 3.26292,-0.6993 c 0.31174,-0.42164 0.91061,-0.83538 1.33084,-0.91943 0.80512,-0.16102 1.0655,-0.6952 0.33887,-0.6952 -0.25955,0 -0.36874,-0.14707 -0.28031,-0.37753 0.15682,-0.40866 -0.52132,-1.12968 -0.8002,-0.8508 -0.0935,0.0935 -0.0228,0.17 0.15708,0.17 0.18609,0 0.29064,0.25044 0.24254,0.58098 -0.056,0.38453 -0.50689,0.79786 -1.33362,1.2224 -1.07522,0.55214 -1.21202,0.71065 -0.98288,1.13881 0.36698,0.68572 0.66658,0.62497 1.32768,-0.26923 z m 1.03656,0.0895 c 0,-0.38962 -0.31523,-0.507 -0.59913,-0.2231 -0.2385,0.23851 0.0899,0.91908 0.36227,0.75075 0.13027,-0.0805 0.23686,-0.31795 0.23686,-0.52765 z m 2.51354,-1.96875 c -0.72826,-0.31295 -0.98716,-0.31295 -0.79375,0 0.0899,0.14552 0.42439,0.25621 0.74322,0.24598 0.5589,-0.0179 0.56071,-0.0267 0.0505,-0.24598 z m -4.89479,-0.54479 c 0,-0.13693 -0.11906,-0.24896 -0.26458,-0.24896 -0.14552,0 -0.26458,0.18562 -0.26458,0.41249 0,0.22687 0.11906,0.3389 0.26458,0.24896 0.14552,-0.0899 0.26458,-0.27555 0.26458,-0.41249 z m 5.42396,-1.55941 c 0.43656,-0.26291 0.76805,-0.59918 0.73665,-0.74728 -0.0653,-0.30795 0.94652,-0.11467 1.44616,0.27625 0.24078,0.18839 0.33073,0.11374 0.33073,-0.27449 0,-0.29329 -0.19563,-0.60833 -0.43474,-0.70008 -0.23911,-0.0918 -0.36977,-0.2318 -0.29035,-0.31122 0.0794,-0.0794 0.39009,0.009 0.69039,0.19658 0.47739,0.29813 0.63854,0.25496 1.28254,-0.34365 0.83676,-0.77777 2.34577,-1.17909 2.54913,-0.67793 0.0727,0.17919 0.13921,0.11634 0.15089,-0.14263 0.0133,-0.2936 -0.17274,-0.46302 -0.50827,-0.46302 -0.69036,0 -0.66993,-0.0998 0.19815,-0.96785 0.54673,-0.54673 0.94091,-0.70892 1.5875,-0.65322 0.4731,0.0408 0.86018,-0.0303 0.86018,-0.15783 0,-0.34791 -1.94407,-0.28594 -2.24896,0.0717 -0.35282,0.41385 -1.19062,0.69322 -1.19062,0.39701 0,-0.35146 -1.59982,-0.6354 -1.8983,-0.33692 -0.16827,0.16827 -0.0206,0.21302 0.42303,0.12821 0.92139,-0.17613 0.89538,0.42126 -0.0581,1.33476 -0.49066,0.47009 -1.15654,0.76574 -1.97827,0.87838 -0.68127,0.0934 -1.17485,0.27303 -1.09685,0.39923 0.078,0.1262 0.0157,0.22946 -0.13839,0.22946 -0.15411,0 -0.2802,-0.22539 -0.2802,-0.50086 0,-0.56115 -0.58874,-0.88412 -1.19062,-0.65316 -0.4373,0.16781 -0.4249,0.13599 -0.52721,1.35245 -0.0827,0.98312 0.12063,1.09528 0.59848,0.33013 0.28184,-0.45131 0.40883,-0.48107 0.85739,-0.20094 0.58881,0.36772 0.71645,1.25988 0.18024,1.25988 -0.19047,0 -0.57742,0.1748 -0.8599,0.38846 -0.71896,0.54379 -0.14817,0.46522 0.80933,-0.11141 z m -7.26224,-0.26293 c -0.3068,-0.19409 -0.24094,-0.30712 0.33073,-0.56758 0.39259,-0.17888 0.7138,-0.42793 0.7138,-0.55345 0,-0.18217 -0.60545,0.1091 -1.54785,0.74464 -0.18973,0.12795 0.26776,0.6267 0.57128,0.6228 0.19591,-0.003 0.1702,-0.0957 -0.068,-0.24641 z m 2.54397,-3.07022 c 0.22889,-0.44393 0.75906,-1.00394 1.17815,-1.24447 0.4191,-0.24053 0.762,-0.5765 0.762,-0.74661 0,-0.22824 -0.10312,-0.22371 -0.39351,0.0173 -0.21643,0.17962 -0.56752,0.2598 -0.7802,0.17818 -0.23412,-0.0898 -0.44983,0.0505 -0.54668,0.35566 -0.088,0.27723 -0.54057,0.80873 -1.00574,1.18111 -0.46516,0.37239 -1.00255,0.80648 -1.19419,0.96465 -0.26591,0.21945 -0.38336,0.15407 -0.49582,-0.276 -0.11259,-0.43051 -0.28018,-0.52356 -0.70989,-0.39411 -0.77843,0.23449 -1.18069,0.67266 -0.75931,0.8271 0.18281,0.067 0.27017,0.22248 0.19413,0.34552 -0.076,0.12303 -0.0172,0.29849 0.13064,0.38989 0.14789,0.0914 0.2689,0.0667 0.2689,-0.0548 0,-0.40007 2.46856,-0.20601 2.62211,0.20614 0.0884,0.23737 0.17402,0.13169 0.22751,-0.28093 0.0472,-0.36381 0.27301,-1.02468 0.5019,-1.4686 z m 1.41098,-0.10329 c 0,-0.31217 -0.51603,-0.64611 -0.70556,-0.45659 -0.18952,0.18953 0.14442,0.70556 0.45659,0.70556 0.13693,0 0.24897,-0.11204 0.24897,-0.24897 z m 5.29167,-0.38418 c 0,-0.0572 -0.1786,-0.17252 -0.39688,-0.25628 -0.21828,-0.0838 -0.39687,-0.037 -0.39687,0.10398 0,0.14096 0.17859,0.25628 0.39687,0.25628 0.21828,0 0.39688,-0.0468 0.39688,-0.10398 z m 0.11249,-1.51556 c -0.17147,-0.27744 -0.64166,-0.0547 -0.64166,0.30394 0,0.13236 0.17791,0.17239 0.39536,0.089 0.21744,-0.0834 0.32827,-0.26024 0.2463,-0.39289 z m -9.27255,-0.81338 c -0.0645,-0.10439 -0.29209,-0.12273 -0.50571,-0.0408 -0.44436,0.17052 -0.44392,0.16906 -0.22482,0.74003 0.1471,0.38333 0.19806,0.37914 0.50571,-0.0416 0.18816,-0.25733 0.28933,-0.55329 0.22482,-0.65768 z m 2.81006,0.31626 c 0,-0.14553 -0.11907,-0.26459 -0.26459,-0.26459 -0.14552,0 -0.26458,0.11906 -0.26458,0.26459 0,0.14552 0.11906,0.26458 0.26458,0.26458 0.14552,0 0.26459,-0.11906 0.26459,-0.26458 z m 0.0779,18.61663 c 0.0997,-0.1656 1.03924,-1.05857 2.08782,-1.98438 1.04859,-0.92581 1.82493,-1.54781 1.72522,-1.38222 -0.0997,0.1656 -1.03924,1.05856 -2.08782,1.98438 -1.04859,0.92581 -1.82493,1.54781 -1.72522,1.38222 z m -49.48272,-8.29789 -0.0384,-8.06979 0.6946,2.09495 c 0.58421,1.76199 0.93509,2.34071 2.20781,3.64139 0.83226,0.85055 1.96887,1.73685 2.52579,1.96954 l 1.01259,0.42309 -1.03983,0.56572 c -1.3626,0.74134 -3.78877,2.99298 -4.31189,4.00171 -0.22743,0.43854 -0.54824,1.39267 -0.71291,2.12027 -0.24754,1.09374 -0.30605,-0.0751 -0.33778,-6.74688 z m 121.51356,6.41615 c -0.0998,-0.5457 -0.45878,-1.47011 -0.79776,-2.05423 -0.58957,-1.01597 -2.89626,-3.34372 -3.9863,-4.02271 -0.51249,-0.31923 -0.51241,-0.32527 0.009,-0.64383 1.97316,-1.2058 4.08963,-3.91693 4.77847,-6.12106 0.33806,-1.08169 0.3506,-1.02419 0.42053,1.92777 l 0.0721,3.04271 0.14406,-3.57188 0.14405,-3.57187 0.48067,1.55663 c 0.68659,2.22351 1.89587,4.23093 3.28572,5.45432 0.6616,0.58236 1.3052,1.05884 1.43024,1.05884 0.523,0 0.16881,0.48921 -0.57823,0.79864 -0.44305,0.18352 -1.38887,0.98814 -2.10181,1.78805 -0.99157,1.1125 -1.43842,1.91232 -1.90102,3.40259 -0.33262,1.07152 -0.74277,1.94822 -0.91145,1.94822 -0.16868,0 -0.38834,-0.44649 -0.48813,-0.99219 z m 0.58121,-4.35863 c -0.0559,-0.62231 -0.10241,-0.17897 -0.10337,0.98519 -10e-4,1.16417 0.0448,1.67333 0.10162,1.13148 0.0569,-0.54186 0.0576,-1.49436 0.002,-2.11667 z m -74.80657,4.42478 c 0.34177,-0.36381 0.68094,-0.66146 0.7537,-0.66146 0.0728,0 -0.14734,0.29765 -0.48912,0.66146 -0.34177,0.3638 -0.68094,0.66145 -0.7537,0.66145 -0.0728,0 0.14734,-0.29765 0.48912,-0.66145 z m 2.11667,-1.85209 c 0.49365,-0.50932 0.95708,-0.92604 1.02984,-0.92604 0.0728,0 -0.27161,0.41672 -0.76526,0.92604 -0.49366,0.50933 -0.95709,0.92604 -1.02985,0.92604 -0.0728,0 0.27161,-0.41671 0.76527,-0.92604 z m 4.62339,-0.36685 c 0.63214,-0.72573 5.95994,-5.40997 5.95994,-5.24004 0,0.0661 -1.45852,1.40711 -3.24115,2.97997 -1.78263,1.57285 -3.00609,2.58989 -2.71879,2.26007 z m -2.77131,-1.19624 c 0.69825,-0.78009 3.175,-2.92437 3.175,-2.74881 0,0.0566 -0.8632,0.86458 -1.91823,1.7954 -1.05503,0.93081 -1.62057,1.35985 -1.25677,0.95341 z m 4.04582,-3.5029 c 0.22794,-0.37378 3.36251,-3.10515 3.36251,-2.93 0,0.0694 -0.79821,0.82531 -1.77379,1.67983 -0.97559,0.85452 -1.69051,1.41709 -1.58872,1.25017 z m 5.74376,-1.54859 c 0.49366,-0.50932 0.95709,-0.92604 1.02985,-0.92604 0.0728,0 -0.27161,0.41672 -0.76526,0.92604 -0.49366,0.50932 -0.95709,0.92604 -1.02985,0.92604 -0.0728,0 0.27161,-0.41672 0.76526,-0.92604 z m -0.72836,-2.96515 c 1.73022,-1.50807 2.08669,-1.67819 0.60231,-0.28745 -0.73104,0.68492 -1.4188,1.25047 -1.52836,1.25677 -0.10956,0.006 0.30716,-0.42989 0.92605,-0.96932 z m 3.45116,0.54172 c 0.10408,-0.16872 0.81394,-0.81961 1.57749,-1.44642 0.76354,-0.62682 1.15013,-0.86261 0.85909,-0.52398 -0.62689,0.72937 -2.71034,2.41421 -2.43658,1.9704 z m 3.6272,-3.13282 c 0.34178,-0.3638 0.68094,-0.66146 0.7537,-0.66146 0.0728,0 -0.14734,0.29766 -0.48911,0.66146 -0.34178,0.3638 -0.68094,0.66146 -0.7537,0.66146 -0.0728,0 0.14734,-0.29766 0.48911,-0.66146 z m 53.76681,-5.80373 c -0.7673,-1.99145 -2.58019,-4.12269 -4.38545,-5.15556 -2.9136,-1.66699 -2.24493,-1.6298 -27.8515,-1.54925 l -23.24965,0.0731 -1.35969,0.61526 c -0.74783,0.33839 -1.69966,1.023 -2.11519,1.52136 -0.84371,1.0119 -1.18835,1.10704 -1.71436,0.47323 -0.56725,-0.68349 -2.10186,-1.56351 -3.54201,-2.03117 -1.17483,-0.3815 -3.95893,-0.43568 -24.87083,-0.48399 -24.44986,-0.0565 -24.59598,-0.0509 -26.72292,1.02301 -1.19578,0.60376 -3.02526,2.01875 -3.03453,2.34703 -0.005,0.15934 -0.25063,0.50913 -0.54695,0.7773 -0.57958,0.52451 -1.5779,2.57697 -1.5779,3.24404 0,0.22403 -0.062,0.3453 -0.13786,0.26947 -0.19097,-0.19097 -0.50407,-20.05866 -0.31611,-20.05866 0.0835,0 0.35075,0.68461 0.59386,1.52135 0.90821,3.12587 3.61875,5.81362 6.87157,6.81379 1.49891,0.46088 2.87944,0.48445 24.73854,0.42233 13.02876,-0.037 23.72542,-0.17455 24.46472,-0.31453 1.68899,-0.31981 3.44294,-1.17236 4.08119,-1.98375 0.66907,-0.85059 0.89393,-0.8097 1.75493,0.31913 0.40167,0.52661 1.25494,1.18955 1.89616,1.47319 1.13752,0.50318 1.75221,0.51152 25.29641,0.34306 25.87439,-0.18513 25.6413,-0.17224 27.87771,-1.54088 1.7199,-1.05254 3.19417,-2.59778 3.79265,-3.97526 0.32467,-0.74725 0.6958,-1.56538 0.82473,-1.81807 0.12893,-0.25269 0.24429,-0.66941 0.25634,-0.92604 0.0121,-0.25664 0.30964,0.42636 0.66129,1.51776 1.01744,3.15776 2.72365,5.07751 5.40221,6.0783 0.71652,0.26771 4.70632,0.36667 17.63381,0.43738 10.61736,0.0581 16.96958,0.19091 17.42598,0.36444 0.57178,0.21739 0.68594,0.39348 0.55991,0.86366 -0.0871,0.32483 -0.15993,1.04973 -0.16192,1.61088 l -0.004,1.02029 -16.33802,-0.092 c -16.15274,-0.091 -16.35693,-0.0856 -18.0052,0.47753 -3.0808,1.05247 -5.14447,2.9407 -6.55257,5.99552 l -0.63057,1.36797 0.009,-2.77812 c 0.005,-1.52797 -0.0251,-5.21891 -0.0672,-8.20209 -0.0705,-4.9987 -0.0873,-4.76015 -0.21436,3.04271 l -0.13789,8.46667 z m 0.92072,-16.74696 c -0.0671,-0.25744 -0.12639,-0.11087 -0.13178,0.32569 -0.005,0.43656 0.0495,0.64719 0.12197,0.46806 0.0725,-0.17913 0.0769,-0.53632 0.01,-0.79375 z m -114.50628,3.49086 c -2.28305,-0.8905 -3.48456,-1.91667 -4.3749,-3.73644 -0.56396,-1.1527 -0.72383,-1.85369 -0.7119,-3.12157 0.0368,-3.9111 2.76147,-6.86145 6.8516,-7.41908 0.71546,-0.0975 1.50076,-0.23222 1.74513,-0.29929 0.32696,-0.0897 0.46671,0.0728 0.52916,0.61529 0.0935,0.81216 0.92286,1.17376 1.30588,0.56935 0.3213,-0.50699 0.28864,-4.655437 -0.0415,-5.272307 -0.22146,-0.4138 -0.3776,-0.4606 -0.79375,-0.23788 -0.28493,0.15249 -0.51805,0.5037 -0.51805,0.78048 0,0.42985 -0.14466,0.48293 -0.99219,0.36404 -3.95417,-0.55467 -6.63819,-2.515 -7.6971,-5.62172 -1.03551,-3.03809 0.42608,-6.66229 3.39762,-8.42482 1.96508,-1.16556 2.15051,-1.17364 26.40057,-1.14989 22.71766,0.0223 23.15355,0.0324 24.35754,0.56494 1.35235,0.59821 2.42314,1.48349 2.42314,2.00333 0,0.18498 0.31863,0.49164 0.70807,0.68148 0.38943,0.18985 0.75603,0.49247 0.81466,0.67249 0.0831,0.255 -1.95868,0.34269 -9.24088,0.39688 l -9.34747,0.0695 -0.0427,1.5875 c -0.0419,1.55756 -0.12878,20.736047 -0.10283,22.691917 l 0.0132,0.99609 9.426,-0.0147 c 5.18429,-0.008 9.48593,0.0452 9.55919,0.11848 0.0733,0.0733 -0.16676,0.26987 -0.53338,0.43692 -0.36662,0.16704 -0.81885,0.58822 -1.00494,0.93595 -0.1861,0.34772 -0.4487,0.63223 -0.58354,0.63223 -0.13485,0 -0.56122,0.2216 -0.94748,0.49244 -0.38627,0.27084 -1.11902,0.62135 -1.62834,0.77891 -0.61789,0.19114 -8.62982,0.33683 -24.07709,0.43782 l -23.15104,0.15135 -1.74271,-0.67973 z m 1.5575,-2.29204 c 0.17463,-0.17463 0.3175,-0.68474 0.3175,-1.13358 0,-0.61451 -0.18421,-0.9249 -0.74576,-1.25661 -0.7044,-0.4161 -0.79246,-0.41214 -1.5875,0.0713 -0.96341,0.58588 -1.07871,1.16798 -0.31257,1.578 0.29104,0.15576 0.52916,0.19703 0.52916,0.0917 0,-0.10532 0.24277,0.0691 0.53948,0.38757 0.61796,0.6633 0.81668,0.70457 1.25969,0.26156 z m 3.99446,-0.93205 c 0.99402,-0.87224 1.00614,-0.99817 0.15009,-1.55908 -0.62988,-0.41271 -0.72688,-0.4094 -1.5875,0.0541 -0.95491,0.51425 -1.20294,1.30408 -0.59913,1.90789 0.50271,0.50271 1.15057,0.37455 2.03654,-0.40288 z m 10.00985,-2.84098 c -0.11936,-1.41248 -0.3578,-2.31127 -1.12583,-4.24385 -0.18854,-0.47442 -0.13911,-0.46433 0.47783,0.0975 0.85221,0.77612 1.90301,2.88585 2.39236,4.80326 0.29219,1.14488 0.5428,1.55069 1.19336,1.93237 0.88359,0.5184 1.40009,0.45029 2.39293,-0.31557 0.59036,-0.45539 0.60852,-0.54841 0.29616,-1.51698 -0.18301,-0.56752 -0.88274,-1.78969 -1.55496,-2.71594 -0.67221,-0.92625 -1.38555,-1.90851 -1.5852,-2.18281 -0.31752,-0.43623 -0.3057,-0.49872 0.0943,-0.49872 0.59073,0 4.1465,3.44443 4.79076,4.64076 0.50047,0.92932 0.62446,1.00502 2.14733,1.31115 0.78782,0.15837 0.87784,0.10061 1.25677,-0.80631 0.59732,-1.42958 0.51842,-1.73703 -0.71989,-2.80528 -2.76346,-2.38397 -5.01609,-3.7485 -7.86777,-4.76589 -1.74158,-0.62134 -1.87107,-0.71012 -1.05833,-0.72556 2.43374,-0.0462 8.93238,2.58601 10.90387,4.41656 0.64522,0.59909 0.83162,0.64216 1.85209,0.42795 1.09143,-0.2291 1.13714,-0.2785 1.19963,-1.29651 0.0357,-0.58208 -0.0833,-1.24718 -0.26458,-1.478 -0.3787,-0.48225 -3.9021,-1.87462 -5.95276,-2.35239 -0.76444,-0.1781 -1.4624,-0.44116 -1.55103,-0.58457 -0.21236,-0.3436 2.29969,-0.0426 5.05757,0.60611 3.03034,0.71275 3.1751,0.68906 3.95857,-0.64783 l 0.67359,-1.14938 -0.68794,-1.29801 c -0.37837,-0.713907 -0.7234,-1.335027 -0.76675,-1.380267 -0.0433,-0.0452 -0.89506,0.15881 -1.89272,0.45346 -1.93531,0.57158 -5.91496,1.108667 -5.91496,0.798277 0,-0.102537 0.8632,-0.394807 1.91823,-0.649487 1.05503,-0.25468 2.73127,-0.76102 3.72499,-1.12521 1.57964,-0.57892 1.78797,-0.73217 1.65726,-1.21909 -0.0822,-0.30632 -0.15234,-0.79507 -0.15581,-1.08611 -0.004,-0.36394 -0.33607,-0.66767 -1.06247,-0.97276 -0.91578,-0.38464 -1.10645,-0.39331 -1.43447,-0.0653 -0.70448,0.70447 -5.13413,2.74777 -7.34721,3.38909 -1.21038,0.35076 -2.91385,0.71276 -3.7855,0.80446 l -1.58481,0.16672 2.11667,-0.79972 c 1.16416,-0.43984 2.41432,-0.94823 2.77812,-1.12974 3.26907,-1.63109 6.87917,-4.37384 6.87917,-5.22641 0,-1.02652 -0.57333,-1.80428 -1.45146,-1.96902 -1.15436,-0.21656 -1.47959,-0.0462 -2.23093,1.16862 -0.8442,1.36494 -3.4243,3.86644 -4.24064,4.11145 -0.53265,0.15987 -0.39849,-0.0807 0.75922,-1.3614 0.77342,-0.85557 1.70435,-2.19373 2.06874,-2.97369 l 0.66254,-1.4181 -0.92452,-0.92452 -0.92451,-0.92452 -1.22485,0.54181 c -1.15892,0.51265 -1.22484,0.59812 -1.22484,1.58815 0,0.6383 -0.29364,1.60456 -0.75298,2.47778 -1.27719,2.42798 -2.60125,3.62579 -1.62115,1.46657 0.51735,-1.13974 0.65191,-2.65798 0.36341,-4.10046 -0.12691,-0.63454 -0.36784,-0.86221 -1.20469,-1.1384 -1.01434,-0.33476 -1.07053,-0.32076 -1.85313,0.46184 -0.76909,0.76909 -0.80922,0.9176 -0.85272,3.15585 -0.0544,2.80097 -0.55878,3.96854 -2.4231,5.60958 -0.87073,0.76644 -1.6356,1.16868 -2.6569,1.39724 l -1.43416,0.32095 v 1.942267 c 0,1.67245 0.0643,1.94262 0.46302,1.94476 0.79108,0.004 3.06777,1.47004 4.21295,2.71241 1.22822,1.33247 1.8434,3.38927 1.52359,5.09402 -0.16316,0.8697 -0.0833,1.06395 0.81686,1.98575 l 0.9977,1.02174 0.91949,-0.70133 c 0.90621,-0.6912 0.91754,-0.72441 0.78445,-2.29935 z m -16.13421,0.21959 c 0.35918,-0.0962 0.59532,-0.36409 0.59532,-0.67523 0,-0.28364 0.11895,-0.73797 0.26434,-1.00963 0.215,-0.40174 0.12096,-0.59603 -0.50387,-1.04094 -0.42251,-0.30086 -0.89273,-0.54701 -1.04494,-0.54701 -0.4103,0 -0.78165,0.79759 -0.63408,1.3619 0.0709,0.27115 -0.0175,0.66944 -0.19649,0.88509 -0.71436,0.86075 0.0956,1.40748 1.51972,1.02582 z m 3.90261,-0.75927 c 0,-0.66063 -0.1061,-0.79375 -0.63262,-0.79375 -0.73978,0 -1.24555,0.66085 -0.99849,1.30467 0.11772,0.30679 0.40554,0.4238 0.902,0.36669 0.6151,-0.0708 0.72911,-0.20798 0.72911,-0.87761 z m 3.89855,0.0305 c 0.31093,-0.47197 0.23323,-0.96134 -0.17768,-1.11902 -0.20909,-0.0802 -0.31483,-0.31614 -0.23498,-0.52423 0.16895,-0.44027 -0.35566,-1.16536 -0.84314,-1.16536 -0.18434,0 -0.61625,0.22968 -0.95979,0.51039 -0.50114,0.40948 -0.55924,0.57687 -0.2939,0.84667 0.1819,0.18495 0.33073,0.6042 0.33073,0.93167 0,1.03302 1.59067,1.41258 2.17876,0.51988 z m -3.62162,-3.09707 c 0.23255,-0.4497 0.35841,-0.98548 0.27968,-1.19063 -0.16676,-0.43458 -1.10785,-0.50079 -1.3583,-0.0956 -0.11819,0.19123 -0.28221,0.18552 -0.52787,-0.0184 -0.26083,-0.21647 -0.50285,-0.21742 -0.90249,-0.004 -0.65795,0.35213 -0.67938,0.61798 -0.11877,1.47357 0.65791,1.0041 2.06889,0.91524 2.62775,-0.16548 z m -1.36357,-12.300877 c 0.58195,-1.51655 -0.47447,-2.57644 -1.95625,-1.96266 -0.60325,0.24987 -0.79942,0.48679 -0.74089,0.89479 0.0441,0.3077 0.31536,0.59874 0.60878,0.65327 0.29104,0.0541 0.62438,0.26367 0.74075,0.46573 0.28687,0.4981 1.1494,0.46537 1.34761,-0.0511 z m 3.34631,-0.425 c 0.91643,-0.67754 1.00857,-1.39842 0.23186,-1.8141 -0.43364,-0.23208 -0.64966,-0.20586 -1.01302,0.12298 -0.25401,0.22988 -0.6013,0.41796 -0.77174,0.41796 -0.32639,0 -0.43582,1.37339 -0.13351,1.6757 0.32067,0.32066 0.89301,0.18405 1.68641,-0.40254 z m -1.58916,-2.87757 c 0.54853,-1.02494 -0.60159,-1.734 -1.44484,-0.89075 -0.31344,0.31344 -0.34823,0.54047 -0.14188,0.92604 0.3593,0.67136 1.21876,0.65224 1.58672,-0.0353 z m 3.48456,-1.04031 c -0.0977,-1.4858 -0.3597,-1.77152 -1.30944,-1.42823 -0.62685,0.22658 -0.71915,0.39133 -0.65891,1.17604 0.11092,1.4448 0.24355,1.61547 1.1849,1.52475 0.84599,-0.0815 0.86028,-0.10475 0.78345,-1.27256 z m -6.36086,0.13183 c 0.17231,-0.64865 0.097,-0.90675 -0.4133,-1.41708 -0.8256,-0.82561 -1.76359,-0.58496 -1.72654,0.44295 0.014,0.3899 -0.0601,0.98441 -0.16481,1.32115 -0.18104,0.58232 -0.13452,0.60819 0.95181,0.52916 1.01736,-0.074 1.16518,-0.16973 1.35284,-0.87618 z m 3.07891,-1.77336 c 0.17463,-0.17462 0.3175,-0.64129 0.3175,-1.03704 0,-0.69783 -0.0418,-0.71803 -1.38645,-0.66943 -1.50396,0.0544 -1.82772,0.43284 -1.2668,1.48094 0.32996,0.61654 1.80256,0.75873 2.33575,0.22553 z m 53.49876,28.259867 c -0.66953,-0.23308 -1.08361,-0.63048 -1.49485,-1.43464 -0.31284,-0.61175 -0.84862,-1.33932 -1.19062,-1.61684 l -0.62183,-0.50458 0.66146,-0.13789 c 0.3638,-0.0758 1.3163,-0.2025 2.11667,-0.28148 3.38859,-0.33437 6.35736,-1.84395 9.19252,-4.67429 2.81217,-2.80738 5.09621,-6.39583 5.0943,-8.00365 -7.9e-4,-0.60841 -1.47403,-3.212637 -2.569,-4.540967 -1.35941,-1.64914 -4.21837,-4.45853 -5.28531,-5.19367 -1.96667,-1.35507 -4.87822,-2.34847 -7.56119,-2.57982 l -2.4432,-0.21068 1.12179,-0.50641 c 0.81478,-0.36781 1.12253,-0.66289 1.12448,-1.0782 0.003,-0.73659 1.33945,-1.85785 2.59441,-2.17743 1.43434,-0.36525 41.35087,-0.64162 44.70588,-0.30953 3.43746,0.34026 5.01202,0.99438 6.50678,2.70311 2.71859,3.10776 2.65938,7.51786 -0.13692,10.19782 -1.14552,1.09786 -3.07024,1.93633 -4.87169,2.12226 l -1.43535,0.14814 v 1.515637 1.51565 l 1.004,0.13467 c 1.36878,0.18359 4.06858,1.30213 5.01305,2.07694 2.20137,1.80593 3.06721,3.97185 2.62554,6.56788 -0.47119,2.76962 -2.78997,5.42381 -5.30916,6.07715 -1.67213,0.43366 -47.62845,0.6132 -48.84176,0.19082 z m 48.7384,-2.91763 c 0.10304,-0.15486 0.38732,-0.28261 0.63172,-0.28388 0.24439,-0.001 0.5718,-0.20371 0.72756,-0.44985 0.21743,-0.34359 0.16872,-0.57402 -0.20971,-0.99219 -0.58453,-0.6459 -1.01951,-0.68965 -1.46922,-0.14778 -0.18116,0.21829 -0.61246,0.39688 -0.95844,0.39688 -0.46921,0 -0.62906,0.14598 -0.62906,0.57448 0,1.2001 1.2998,1.81509 1.90715,0.90234 z m -12.36582,-0.58726 1.15149,-0.96253 -0.14652,-2.45579 c -0.13996,-2.34593 -0.11311,-2.51278 0.60005,-3.72971 1.03927,-1.77337 2.10975,-2.78991 3.95886,-3.75938 l 1.5875,-0.83231 0.0819,0.64321 c 0.0999,0.78551 0.69701,1.32421 1.23769,1.11673 0.32362,-0.12419 0.40025,-0.70937 0.40025,-3.0567 0,-3.072667 -0.19647,-3.582017 -1.07501,-2.786947 -0.36629,0.33149 -0.5232,0.84838 -0.55004,1.811857 -0.0373,1.33994 -0.0385,1.34171 -0.19844,0.29491 -0.13466,-0.881487 -0.29027,-1.091787 -0.95464,-1.290217 -2.79906,-0.83598 -4.24683,-2.06929 -5.16925,-4.40351 -0.46825,-1.18492 -0.54777,-1.7917 -0.42812,-3.26683 0.13286,-1.63816 0.0815,-1.9105 -0.53644,-2.84427 -0.7422,-1.12153 -0.96466,-1.18637 -2.49622,-0.7275 -0.87139,0.26107 -1.04383,0.44016 -1.19386,1.23988 -0.11604,0.61856 0.004,1.54453 0.35556,2.73756 0.292,0.99155 0.44692,1.80282 0.34427,1.80282 -0.58193,0 -1.92158,-2.41437 -2.40509,-4.33456 -0.35959,-1.42805 -0.35494,-1.42397 -1.96529,-1.72481 l -1.22667,-0.22917 -0.56164,1.15603 c -0.52777,1.08631 -0.53639,1.20814 -0.14299,2.0198 0.23026,0.47506 1.09656,1.6079 1.92512,2.5174 2.4146,2.65049 0.71035,1.86311 -2.55317,-1.17959 -1.29633,-1.20861 -1.64702,-1.4001 -2.56408,-1.4001 -1.19554,0 -1.22149,0.0243 -1.46417,1.37023 -0.15251,0.84587 -0.0654,1.09872 0.66498,1.93059 1.0345,1.17823 4.91176,3.51037 7.67209,4.61469 1.01714,0.40693 -0.15535,0.35232 -1.79206,-0.0835 -2.40801,-0.64114 -5.21856,-2.20735 -7.24281,-4.03614 l -0.95676,-0.86438 -1.1172,0.55274 c -1.09354,0.54104 -1.11552,0.5783 -1.03795,1.75937 0.0771,1.1735 0.11921,1.22672 1.53446,1.93845 0.80036,0.4025 2.40771,1.06455 3.57188,1.47122 2.07721,0.72562 2.09693,0.74077 1.05833,0.812677 -0.58208,0.0403 -2.30849,-0.172707 -3.83646,-0.473377 -1.52797,-0.30066 -3.07578,-0.60081 -3.43958,-0.66698 -0.536,-0.0975 -0.81202,0.0872 -1.45521,0.97371 l -0.79375,1.094027 1.08608,1.17187 1.08608,1.17187 1.42746,-0.41368 c 2.0451,-0.59267 7.69422,-1.12763 6.02939,-0.57097 -0.20272,0.0678 -1.32109,0.38198 -2.48526,0.69822 -1.16417,0.31623 -2.56315,0.80178 -3.10886,1.07898 -0.95733,0.48631 -0.99218,0.55301 -0.99218,1.89897 v 1.39495 l 1.21368,0.32461 c 1.17861,0.31524 1.2585,0.29739 2.76478,-0.61763 0.8531,-0.51823 2.4203,-1.33539 3.48267,-1.8159 2.06893,-0.93578 5.98034,-2.15513 6.20204,-1.93343 0.0739,0.0739 -0.53404,0.32872 -1.35103,0.56622 -0.81698,0.23751 -1.8676,0.64616 -2.33472,0.90811 -0.46711,0.26196 -1.75949,0.9755 -2.87195,1.58565 -1.11245,0.61015 -2.45191,1.51421 -2.97656,2.00902 -1.0584,0.9982 -1.18693,1.71742 -0.57054,3.19265 0.3635,0.86997 0.45058,0.91754 1.67961,0.91754 1.26995,0 1.3064,-0.0228 1.79759,-1.12448 0.63215,-1.41783 2.27265,-3.23631 3.798,-4.21004 0.64695,-0.41299 1.25676,-0.7509 1.35512,-0.7509 0.0984,0 -0.56846,0.7735 -1.48183,1.71889 -1.5651,1.61997 -2.50478,3.35841 -2.50478,4.63396 0,0.65819 1.97644,2.14948 2.56219,1.93327 0.93304,-0.34441 2.20031,-1.47597 2.20031,-1.96468 0,-1.42821 2.10222,-4.99852 2.94315,-4.99852 0.10644,0 -0.1682,0.70136 -0.61031,1.55858 -0.94247,1.82742 -1.25619,3.77793 -0.71336,4.43529 0.3981,0.48209 1.8233,1.41189 2.16659,1.41347 0.1178,5.3e-4 0.73236,-0.43214 1.36568,-0.96153 z m 9.12644,0.45075 c 0.43853,-0.8194 0.30646,-1.43675 -0.42078,-1.96676 -0.96726,-0.70494 -2.31325,-0.31699 -2.43174,0.70089 -0.0661,0.56755 0.0593,0.77345 0.59531,0.97721 0.37346,0.142 0.67902,0.38018 0.67902,0.5293 0,0.48781 1.29393,0.29051 1.57819,-0.24064 z m 1.97646,-2.65668 c 0.50745,-0.19293 0.67868,-0.4466 0.67868,-1.00542 0,-1.32665 -1.1733,-1.83923 -2.16197,-0.94449 -0.60039,0.54334 -0.61511,1.09521 -0.046,1.72409 0.50553,0.5586 0.61246,0.57439 1.52927,0.22582 z m 3.91572,-1.98558 c -0.0386,-0.72467 -0.2457,-1.49302 -0.46014,-1.70746 -0.34345,-0.34346 -0.47686,-0.32391 -1.12037,0.16415 -0.43761,0.3319 -0.69647,0.75127 -0.64565,1.046 0.34871,2.02215 0.31904,1.98007 1.33632,1.89509 l 0.9601,-0.0802 z m -7.6571,0.94139 c 1.21752,-0.46289 1.10509,-2.68795 -0.15604,-3.08821 -0.69631,-0.22101 -1.30892,0.39447 -1.1244,1.12966 0.0849,0.33822 0.041,0.61494 -0.0975,0.61494 -0.43655,0 -0.64045,1.10426 -0.24962,1.3519 0.46386,0.29391 0.83768,0.29201 1.62752,-0.008 z m 4.59419,-3.09012 c 0.67743,-1.03388 0.21687,-1.56078 -1.36425,-1.56078 -1.52131,0 -2.00089,0.49662 -1.51321,1.56695 0.25853,0.56743 0.48847,0.68201 1.36865,0.68201 0.84742,0 1.14762,-0.13692 1.50881,-0.68818 z m -0.005,-11.350357 c 0.0838,-0.21828 0.44095,-0.39688 0.79375,-0.39688 0.83544,0 1.05806,-0.62927 0.51555,-1.45725 -0.50406,-0.76929 -0.75692,-0.79225 -2.00737,-0.18226 -0.91637,0.44702 -1.27578,1.22041 -0.95527,2.05563 0.19204,0.50045 1.45957,0.48569 1.65334,-0.0192 z m -3.08863,-0.37948 c 0.41857,-0.78212 0.32896,-1.47304 -0.2602,-2.00623 -0.43904,-0.39732 -0.70978,-0.43994 -1.52135,-0.23944 -1.23709,0.30561 -1.53732,1.28879 -0.51253,1.67841 0.35404,0.13461 0.71575,0.43246 0.80379,0.66189 0.22305,0.58127 1.16041,0.52175 1.49029,-0.0946 z m 2.24111,-3.17344 c 0.59656,-0.65919 0.32741,-1.55171 -0.53308,-1.76768 -0.84128,-0.21115 -1.43414,0.29729 -1.43414,1.2299 0,1.10307 1.16694,1.42208 1.96722,0.53778 z m 3.85361,-0.75979 c 0,-0.40746 -0.10898,-0.85394 -0.24217,-0.99219 -0.1332,-0.13824 -0.28203,-0.54901 -0.33073,-0.91281 -0.11388,-0.85062 -1.00775,-1.00305 -1.6594,-0.28298 -0.3934,0.43469 -0.43222,0.67069 -0.20864,1.26841 0.15107,0.4039 0.34163,0.94272 0.42346,1.19738 0.10459,0.32547 0.42636,0.46302 1.08314,0.46302 0.84694,0 0.93434,-0.0693 0.93434,-0.74083 z m -7.67291,0.21321 c 0.21828,-0.003 0.54095,-0.31607 0.71704,-0.69544 0.2674,-0.57608 0.24559,-0.79194 -0.13229,-1.30961 -0.24885,-0.34091 -0.61638,-0.68648 -0.81673,-0.76794 -0.43951,-0.1787 -1.09094,0.31277 -1.09094,0.82306 0,0.20244 -0.13785,0.5888 -0.30634,0.85859 -0.45471,0.72812 -0.0864,1.45048 0.64028,1.25572 0.32566,-0.0873 0.7707,-0.16125 0.98898,-0.16438 z m 3.93152,-2.73482 c 0.16069,-0.19361 0.32409,-0.64009 0.36313,-0.99218 0.0665,-0.59986 -0.0165,-0.64316 -1.31877,-0.68764 -1.63801,-0.056 -2.18266,0.47727 -1.49309,1.46177 0.45908,0.65543 1.97381,0.79031 2.44873,0.21805 z m 17.27334,27.646317 c -2.78338,-0.80335 -4.7592,-3.1462 -5.20191,-6.1682 -0.56757,-3.87432 2.88359,-7.69237 7.31652,-8.09433 0.85325,-0.0774 1.55136,-0.2432 1.55136,-0.36851 0,-0.12531 0.11906,-0.22784 0.26459,-0.22784 0.14552,0 0.26458,0.34445 0.26458,0.76544 0,0.79877 0.49877,1.18323 1.19062,0.91774 0.21829,-0.0838 0.39688,-0.43948 0.39688,-0.79048 0,-0.55861 0.0907,-0.61824 0.7276,-0.47819 1.48016,0.32549 3.91856,1.70086 4.64231,2.61846 1.34295,1.70266 1.82572,3.93688 1.26964,5.8758 -0.2011,0.7012 -0.14794,0.91786 0.33073,1.34796 0.94528,0.84935 1.12583,0.87289 2.39367,0.31207 1.13745,-0.50315 1.21861,-0.60523 1.20786,-1.5192 -0.0111,-0.94674 -0.22697,-2.23514 -0.65171,-3.89022 l -0.2037,-0.79375 0.55897,0.62796 c 0.78272,0.87935 1.63088,3.28025 1.63088,4.61658 0,0.95969 0.11213,1.18989 0.76843,1.57758 1.02724,0.6068 1.3247,0.5657 2.36864,-0.32726 0.86654,-0.74122 0.88013,-0.78435 0.55951,-1.77519 -0.50316,-1.55492 -1.30188,-3.05569 -2.05276,-3.85702 -0.93144,-0.99403 -0.6125,-1.15512 0.53061,-0.26799 0.99222,0.77001 2.76131,3.11277 3.31492,4.38987 0.23014,0.53088 0.45773,0.71218 0.75219,0.59918 0.23221,-0.0891 0.68157,-0.22711 0.99856,-0.30667 0.69107,-0.17344 1.31423,-1.84075 0.94549,-2.52973 -0.28428,-0.53118 -3.42417,-3.40877 -3.7195,-3.40877 -0.11342,0 -0.71821,-0.34525 -1.34397,-0.76722 -0.62576,-0.42197 -1.79259,-0.96758 -2.59295,-1.21247 -2.25133,-0.68884 -2.70978,-0.95728 -1.32292,-0.77462 2.81028,0.37014 8.83006,2.88348 10.46181,4.36796 0.43783,0.39831 0.79559,0.46092 1.8919,0.33108 1.24137,-0.14702 1.36495,-0.225 1.51059,-0.95321 0.42415,-2.12077 0.33427,-2.19842 -4.20701,-3.63447 -1.45521,-0.46016 -2.76489,-0.88777 -2.91042,-0.95024 -0.60368,-0.25913 4.07364,0.2154 5.54592,0.56266 0.87881,0.20728 1.67695,0.37863 1.77365,0.38079 0.0967,0.002 0.49091,-0.55985 0.87601,-1.24888 l 0.7002,-1.25278 -0.59051,-1.260757 c -0.34235,-0.73092 -0.76609,-1.25853 -1.00831,-1.25545 -0.22978,0.003 -1.54888,0.29818 -2.93133,0.65615 -3.772,0.976707 -4.23134,0.77573 -0.84412,-0.36934 1.64578,-0.55637 3.11933,-1.13858 3.27455,-1.29379 0.15522,-0.15522 0.29507,-0.77275 0.31079,-1.37229 0.032,-1.21962 -0.22584,-1.48091 -1.70835,-1.73138 -0.82374,-0.13917 -1.08956,-0.0464 -1.84571,0.64425 -2.05638,1.87822 -6.87334,3.74829 -9.50591,3.69045 -0.65484,-0.0144 -0.9525,-0.0836 -0.66146,-0.15379 3.01091,-0.7262 6.08165,-2.43404 8.53281,-4.74567 1.5043,-1.41867 1.64022,-1.88954 0.99274,-3.43919 -0.33033,-0.79058 -0.49556,-0.92195 -0.99219,-0.78886 -0.32772,0.0878 -0.92128,0.1613 -1.319,0.16329 -0.59486,0.003 -0.83693,0.22657 -1.36446,1.26038 -0.78223,1.53291 -3.2338,4.29948 -3.80996,4.29948 -0.3152,0 -0.24637,-0.18044 0.27753,-0.7276 0.98457,-1.02829 2.30541,-3.74529 2.30939,-4.75047 0.002,-0.55444 -0.22521,-1.07644 -0.65707,-1.50829 -0.64169,-0.64169 -0.68858,-0.64875 -1.65365,-0.24881 -0.54627,0.22639 -1.03072,0.44653 -1.07656,0.4892 -0.0458,0.0427 -0.25368,0.8078 -0.46189,1.70031 -0.39673,1.70065 -1.37136,3.87872 -1.62302,3.62707 -0.0808,-0.0808 0.0466,-0.63055 0.28304,-1.22162 0.49109,-1.22735 0.58734,-3.97437 0.13926,-3.97437 -0.15991,0 -0.69433,-0.19151 -1.1876,-0.42558 -0.87866,-0.41696 -0.91511,-0.41025 -1.79741,0.33073 l -0.90057,0.75631 0.13831,1.98967 c 0.12761,1.83586 0.0761,2.11199 -0.66678,3.57188 -1.14795,2.25602 -2.47989,3.44847 -4.41278,3.95063 -2.02233,0.52541 -1.99493,0.52898 -1.99493,-0.26007 0,-0.36837 -0.18011,-0.73888 -0.40024,-0.82335 -0.62828,-0.24109 -1.18726,0.41486 -1.18726,1.39322 0,0.4915 -0.11906,0.893637 -0.26458,0.893637 -0.14553,0 -0.26459,-0.162007 -0.26459,-0.360017 0,-0.2365 -0.47109,-0.41581 -1.37303,-0.52263 -6.38778,-0.75654 -9.31878,-7.70271 -5.16704,-12.24538 2.77824,-3.03984 2.66334,-3.02341 21.07309,-3.01364 8.35697,0.004 15.2437,0.0573 15.30386,0.11744 0.20943,0.20943 0.45705,11.94951 0.3324,15.75965 -0.069,2.110047 -0.12856,6.961847 -0.13229,10.781767 -0.007,6.75423 -0.0213,6.94633 -0.53595,6.98211 -0.29104,0.0202 -7.59619,0.05 -16.23367,0.0661 -12.41124,0.0232 -15.9622,-0.045 -16.93334,-0.32531 z m 2.02478,-3.48897 c 0.0654,-0.77666 -0.0545,-1.03166 -0.71493,-1.51991 l -0.79354,-0.58669 -0.95261,0.56206 c -1.09154,0.64403 -1.21167,1.62433 -0.21642,1.76604 0.31685,0.0451 0.72338,0.25949 0.90339,0.47639 0.18002,0.21691 0.63515,0.35859 1.0114,0.31485 0.57325,-0.0666 0.69685,-0.23076 0.76271,-1.01274 z m 3.61675,-0.13393 c 1.08104,-1.08105 1.06026,-1.01861 0.51908,-1.55979 -0.53935,-0.53936 -1.42828,-0.51575 -2.11063,0.056 -0.71622,0.60019 -0.89148,1.11928 -0.62235,1.84328 0.32091,0.86331 1.13607,0.73829 2.2139,-0.33954 z m -2.12949,-2.40074 c 0.52872,-0.20289 0.54438,-1.25765 0.0251,-1.68864 -0.52317,-0.43419 -1.6271,-0.13444 -1.78931,0.48585 -0.27383,1.04716 0.60623,1.64715 1.76424,1.20279 z m -3.64962,-0.30648 c 0.16362,-0.10691 0.382,-0.5839 0.48529,-1.05998 0.15542,-0.71632 0.0813,-0.95435 -0.42978,-1.38026 -0.71308,-0.59424 -1.42061,-0.67705 -1.72206,-0.20154 -0.11532,0.1819 -0.23183,0.89628 -0.25891,1.5875 -0.0488,1.24609 -0.0421,1.25674 0.78937,1.25272 0.46123,-0.002 0.97247,-0.0915 1.13609,-0.19844 z m 7.6114,-0.65649 c 0.21334,-0.34074 0.20298,-0.60038 -0.0395,-0.9886 -0.18084,-0.28957 -0.3288,-0.76204 -0.3288,-1.04994 0,-0.28789 -0.24039,-0.65209 -0.53419,-0.80933 -0.94032,-0.50324 -2.73203,0.91096 -1.84706,1.45789 0.14552,0.0899 0.26458,0.50377 0.26458,0.91961 0,0.41585 0.14883,0.81891 0.33073,0.89569 0.64453,0.27206 1.86891,0.0303 2.1542,-0.42532 z m -4.67454,-2.31241 c 0.64946,-0.004 1.48623,-1.28136 1.17222,-1.78944 -0.18624,-0.30135 -2.15676,-0.40739 -3.01751,-0.16239 -0.96685,0.27521 -0.2454,2.35298 0.72761,2.09548 0.29104,-0.077 0.794,-0.14166 1.11768,-0.14365 z m -0.41724,-12.968187 c 0.16485,-0.80303 0.0958,-1.00386 -0.51975,-1.51184 -0.82021,-0.67687 -1.09764,-0.71818 -2.01524,-0.30009 -1.18876,0.54163 -1.21174,1.81193 -0.0328,1.81193 0.39974,0 0.6652,0.19202 0.75846,0.54864 0.10973,0.41961 0.317,0.5285 0.88134,0.46302 0.60536,-0.0702 0.77201,-0.25192 0.92797,-1.01166 z m 3.1099,0.55529 c 0.27667,-0.27668 0.75292,-0.58236 1.05833,-0.67929 0.70048,-0.22233 0.71418,-0.9731 0.0291,-1.59312 -0.5084,-0.4601 -0.5666,-0.45479 -1.71979,0.15698 -0.93778,0.49749 -1.19358,0.77788 -1.19358,1.30833 0,1.26604 0.948,1.68506 1.82597,0.8071 z m -1.34176,-2.90316 c 0.19988,-0.12671 0.31419,-0.5536 0.26458,-0.98813 -0.0974,-0.85355 -1.00641,-1.18749 -1.68939,-0.62066 -1.07129,0.88908 0.23444,2.36342 1.42481,1.60879 z m -3.77648,-0.76504 c 0.15378,-0.10691 0.43805,-0.586 0.6317,-1.06464 0.32423,-0.80136 0.30368,-0.92179 -0.25958,-1.52135 -0.33642,-0.35811 -0.81447,-0.6511 -1.06232,-0.6511 -0.58853,0 -1.09376,0.6224 -0.90484,1.1147 0.0819,0.21341 -0.0351,0.54074 -0.26002,0.72739 -0.42063,0.34909 -0.54492,1.10871 -0.23253,1.4211 0.23647,0.23647 1.73689,0.21771 2.08759,-0.0261 z m 7.27842,-0.33598 c 0.55884,-0.29909 0.64732,-0.8023 0.2665,-1.51564 -0.1349,-0.25268 -0.30976,-0.66779 -0.38857,-0.92245 -0.21912,-0.708 -1.38997,-0.58611 -1.90387,0.19819 -0.40163,0.61297 -0.40117,0.72879 0.006,1.5875 0.46141,0.97235 1.06031,1.16581 2.01962,0.6524 z m -3.12347,-2.479 c 0.11067,-0.1594 0.1702,-0.63898 0.13229,-1.06574 -0.0645,-0.72599 -0.14845,-0.78045 -1.30465,-0.84622 -1.61326,-0.0918 -1.97648,0.30745 -1.44247,1.5855 0.37233,0.89111 0.43905,0.92803 1.40227,0.77595 0.55624,-0.0878 1.10189,-0.29009 1.21256,-0.44949 z m -87.6344,23.559447 c 0.21189,-0.19568 1.63953,-1.43151 3.17252,-2.7463 1.53299,-1.31478 2.95945,-2.598 3.16991,-2.85159 0.21046,-0.25359 1.6351,-1.54577 3.16587,-2.87151 3.40659,-2.95031 3.63632,-3.15348 8.7409,-7.730127 5.47891,-4.91227 4.8448,-4.49621 5.87494,-3.85466 1.7949,1.11782 5.227,5.11371 6.14695,7.1567 l 0.51708,1.148297 -1.26515,2.48068 c -2.38127,4.66914 -6.54511,8.01571 -11.14609,8.95837 -2.67243,0.54754 -18.93113,0.82193 -18.37693,0.31014 z m 7.86767,-1.2325 c 0.44406,-0.71106 0.27684,-0.65859 -0.48475,0.15209 -0.34937,0.37188 -0.45686,0.60771 -0.23887,0.52405 0.21799,-0.0837 0.54362,-0.38791 0.72362,-0.67614 z m 1.67034,-1.25901 c 0.27916,-0.19553 0.69561,-0.71915 0.92544,-1.1636 0.2689,-0.51999 0.50904,-0.71693 0.67357,-0.5524 0.31255,0.31255 1.55137,0.1097 1.55137,-0.25404 0,-0.14412 -0.19369,-0.18772 -0.43042,-0.0969 -0.23672,0.0908 -0.56414,0.0586 -0.7276,-0.0716 -0.16346,-0.13022 -0.56433,-0.31865 -0.89084,-0.41874 -0.43856,-0.13444 -0.55774,-0.0884 -0.45621,0.17617 0.0756,0.19699 -0.21678,0.69751 -0.6497,1.11228 -0.672,0.64382 -0.94032,0.73357 -1.83443,0.61365 -1.17455,-0.15754 -1.62539,0.13403 -1.62539,1.05119 0,0.52444 0.0973,0.58916 0.66994,0.44544 1.23682,-0.31042 1.57195,-0.24207 1.84078,0.37545 0.2667,0.61265 0.26764,0.61232 0.35667,-0.12357 0.0491,-0.40581 0.31766,-0.89781 0.59682,-1.09335 z m 1.56288,-0.58797 c 0,-0.14552 -0.11907,-0.26458 -0.26459,-0.26458 -0.14552,0 -0.26458,0.11906 -0.26458,0.26458 0,0.14552 0.11906,0.26459 0.26458,0.26459 0.14552,0 0.26459,-0.11907 0.26459,-0.26459 z m -2.11667,-1.96876 c 0,-0.27926 -0.50777,-0.39658 -0.65879,-0.15222 -0.0914,0.14789 0.0194,0.2689 0.2463,0.2689 0.22687,0 0.41249,-0.0525 0.41249,-0.11668 z m 6.53913,-2.26457 c 0.0754,0 0.0749,0.23812 -10e-4,0.52917 -0.0761,0.29104 -0.0215,0.52916 0.12137,0.52916 0.14287,0 0.22793,-0.32742 0.18904,-0.7276 -0.0529,-0.54471 0.18147,-0.977 0.93256,-1.71979 0.5518,-0.54571 1.19973,-0.99598 1.43984,-1.0006 0.24011,-0.005 0.67064,-0.1854 0.95674,-0.4017 0.48895,-0.36967 0.47103,-0.38345 -0.29864,-0.22951 -0.4951,0.099 -0.89215,0.0451 -1.00429,-0.13634 -0.12179,-0.19705 -0.36835,-0.0676 -0.718,0.37688 -0.66725,0.84828 -2.31779,1.58117 -2.70005,1.1989 -0.14875,-0.14886 -0.42533,-0.27065 -0.61451,-0.27065 -0.44095,0 -0.45372,0.78681 -0.0132,0.81463 0.26458,0.0167 0.26458,0.0476 0,0.15434 -0.18191,0.0734 -0.32891,0.33189 -0.32668,0.57443 0.003,0.30811 0.0655,0.34433 0.2079,0.12019 0.21097,-0.33198 1.37555,-0.1737 1.37555,0.18695 0,0.11073 -0.1786,0.34955 -0.39688,0.53071 -0.21828,0.18115 -0.39487,0.52315 -0.39242,0.76 0.003,0.26386 0.21771,0.0976 0.55515,-0.42927 0.30288,-0.47295 0.61242,-0.8599 0.68786,-0.8599 z m 2.35595,-0.8154 c 0.0408,-0.81022 -0.26996,-1.24253 -0.55804,-0.77642 -0.0914,0.1479 -0.0607,0.2689 0.0682,0.2689 0.1289,0 0.18027,0.38696 0.11415,0.8599 -0.0668,0.47744 -0.0187,0.76353 0.10815,0.64323 0.12561,-0.11917 0.246,-0.56719 0.26755,-0.99561 z m -2.38879,-3.08526 c -0.18349,-0.18348 -0.68546,0.18932 -0.68546,0.50909 0,0.17544 0.15182,0.15537 0.40327,-0.0533 0.2218,-0.18408 0.34878,-0.38917 0.28219,-0.45577 z m 7.25204,-0.74516 c 0,-0.35522 0.13946,-0.64585 0.3099,-0.64585 0.17044,0 0.52013,-0.190247 0.77708,-0.422787 0.58308,-0.52768 1.10844,-0.24214 0.87981,0.478187 -0.11428,0.36009 -0.0738,0.47971 0.12153,0.359 0.39948,-0.24689 0.37136,-1.399877 -0.0378,-1.549897 -0.47065,-0.17257 0.031,-0.63777 0.92605,-0.85883 0.50728,-0.12529 0.7276,-0.0775 0.7276,0.15766 0,0.18555 0.0623,0.27503 0.13852,0.19885 0.33358,-0.33358 -0.20198,-0.94188 -0.71186,-0.80854 -0.30829,0.0806 -0.63912,-0.0169 -0.77261,-0.22768 -0.19508,-0.30807 -0.23443,-0.30344 -0.2394,0.0282 -0.008,0.5305 -2.15088,1.89027 -2.50968,1.59249 -0.42646,-0.35393 -2.06441,-0.18261 -2.20154,0.23028 -0.0831,0.25015 -0.005,0.30114 0.24297,0.15962 0.29484,-0.16794 0.30144,-0.1394 0.0343,0.14838 -0.42415,0.456957 -0.4366,0.991347 -0.0132,0.567977 0.17462,-0.174627 0.66693,-0.317497 1.09401,-0.317497 h 0.77652 l -0.76329,0.574447 c -1.22632,0.92294 -1.35023,1.10265 -0.44569,0.6464 1.12792,-0.56892 1.38183,-0.53866 1.20346,0.14344 -0.10223,0.39091 -0.0528,0.51095 0.15706,0.38126 0.16844,-0.1041 0.30626,-0.47991 0.30626,-0.83512 z m -0.26458,-3.143767 c 0,-0.0642 -0.11906,-0.19027 -0.26458,-0.2802 -0.14552,-0.0899 -0.26459,-0.0374 -0.26459,0.11667 0,0.15411 0.11907,0.2802 0.26459,0.2802 0.14552,0 0.26458,-0.0525 0.26458,-0.11667 z m 0.39687,-0.94166 c 0.0899,-0.14552 0.0374,-0.26458 -0.11667,-0.26458 -0.15411,0 -0.2802,0.11906 -0.2802,0.26458 0,0.14552 0.0525,0.26458 0.11668,0.26458 0.0642,0 0.19026,-0.11906 0.28019,-0.26458 z m -26.59731,12.391337 c -0.0264,-5.56217 0.0316,-19.119007 0.082,-19.169387 0.0341,-0.0341 4.90627,-0.10054 10.82709,-0.14768 8.629,-0.0687 10.83357,-0.0167 11.11003,0.26193 0.37365,0.37664 0.58434,0.14948 -3.48112,3.75338 -3.98863,3.53581 -5.92771,5.29434 -11.52404,10.451037 -3.15853,2.91042 -6.02729,5.50996 -6.37501,5.77676 l -0.63222,0.48509 -0.007,-1.41113 z m 3.07454,-5.02151 c 0.50132,-0.56462 0.50083,-0.56599 -0.0913,-0.25527 -0.32742,0.17182 -0.59531,0.42726 -0.59531,0.56766 0,0.37588 0.12665,0.31826 0.6866,-0.31239 z m 1.31487,-0.84437 c 0.21463,0.0824 0.38068,-0.0104 0.38184,-0.2133 0.003,-0.44577 1.22598,-1.04029 1.73712,-0.84415 0.23384,0.0897 0.37749,-0.0229 0.37749,-0.29594 0,-0.2656 -0.13146,-0.37421 -0.33073,-0.27327 -0.1819,0.0921 -0.1108,-0.0117 0.15801,-0.2308 0.4882,-0.39789 1.23105,-0.32379 1.23105,0.12281 0,0.12995 0.11651,0.23627 0.25891,0.23627 0.1575,0 0.14087,-0.25908 -0.0425,-0.66146 -0.16576,-0.3638 -0.44812,-0.66145 -0.62748,-0.66145 -0.17935,0 -0.39463,-0.1786 -0.47839,-0.396877 -0.0838,-0.21828 -0.28967,-0.39687 -0.45758,-0.39687 -0.2255,0 -0.22259,0.0996 0.0111,0.38127 0.2594,0.312557 0.12312,0.503307 -0.7561,1.058337 -0.58988,0.37238 -1.25348,0.67705 -1.47465,0.67705 -0.22117,0 -0.40213,0.22839 -0.40213,0.50753 0,0.27914 -0.04,0.66609 -0.0889,0.85989 -0.0489,0.19381 -0.0412,0.26977 0.0171,0.1688 0.0583,-0.10097 0.27693,-0.11799 0.48581,-0.0378 z m 2.17571,-0.47622 c -0.0661,-0.19815 -0.18599,-0.0782 -0.27955,0.27955 -0.11508,0.4401 -0.0806,0.5434 0.11569,0.34706 0.15375,-0.15375 0.22748,-0.43572 0.16386,-0.62661 z m -3.09853,-0.20636 c 0.0839,-0.0121 0.10019,-0.37923 0.0361,-0.8158 -0.18122,-1.23469 -1.24835,-0.89541 -1.31266,0.41734 -0.0257,0.52405 0.1113,0.56681 1.27654,0.39846 z m 0.88744,-2.1683 c -0.1,-0.16179 -0.0177,-0.408977 0.18282,-0.549297 0.29971,-0.20972 0.29397,-0.23588 -0.0322,-0.14694 -0.46942,0.128 -0.70311,0.990407 -0.26837,0.990407 0.16478,0 0.21778,-0.13237 0.11779,-0.29417 z m 7.9889,-3.689757 c 0.0917,-0.57374 0.31173,-1.04315 0.48886,-1.04315 0.17713,0 0.53717,-0.23771 0.80009,-0.52824 0.37257,-0.41167 0.55923,-0.46085 0.84597,-0.22288 0.2781,0.2308 0.44272,0.23057 0.67422,-9.2e-4 0.23199,-0.232 0.16509,-0.3063 -0.2758,-0.3063 -0.32014,0 -0.58208,-0.11034 -0.58208,-0.2452 0,-0.41617 1.45561,-0.99901 2.00061,-0.80106 0.56305,0.2045 0.90981,0.0931 0.90981,-0.29227 0,-0.36873 -1.69293,-0.30212 -2.07804,0.0818 -0.26558,0.26474 -0.42777,0.20371 -0.81281,-0.30588 -0.36116,-0.47797 -0.60485,-0.58175 -0.9779,-0.41647 -0.45983,0.20373 -0.45249,0.22791 0.0984,0.32428 1.34227,0.23482 0.22852,1.49493 -1.70713,1.93149 -0.57656,0.13003 -1.0536,0.1231 -1.13992,-0.0166 -0.0816,-0.1321 -0.41207,-0.17124 -0.73429,-0.087 -0.42735,0.11176 -0.58584,0.35202 -0.58584,0.88811 0,0.61762 0.10552,0.72881 0.66127,0.69674 0.3637,-0.021 0.66135,-0.0988 0.66145,-0.17295 1.1e-4,-0.0741 0.23832,-0.2835 0.52936,-0.46526 0.89507,-0.55898 0.6568,0.38102 -0.32355,1.27643 -0.46899,0.42836 -0.70848,0.77883 -0.53219,0.77883 0.47683,0 1.38491,-0.85394 1.38491,-1.30234 0,-0.28276 0.08,-0.31097 0.28909,-0.1019 0.20907,0.20907 0.20907,0.43862 0,0.82928 -0.35976,0.67221 -0.36858,0.9199 -0.0252,0.70769 0.14513,-0.0897 0.33894,-0.63251 0.43069,-1.20624 z m -8.28593,-0.3817 c 0.0631,-0.14552 0.0735,0.0628 0.0232,0.46303 -0.0503,0.40018 0.0246,0.7276 0.16645,0.7276 0.14188,0 0.25796,-0.32895 0.25796,-0.73101 0,-0.50431 0.18462,-0.81201 0.59532,-0.99219 0.32742,-0.14365 0.63455,-0.53817 0.68251,-0.87672 0.0573,-0.4048 0.21586,-0.56616 0.46302,-0.47132 0.24281,0.0932 0.37582,-0.0323 0.37582,-0.3546 0,-0.27435 -0.14851,-0.54832 -0.33002,-0.60882 -0.20088,-0.067 -0.0892,-0.23887 0.28525,-0.4393 0.6963,-0.37264 1.49978,-0.18715 1.21129,0.27964 -0.11206,0.18131 -0.0749,0.23625 0.0905,0.13398 0.19579,-0.121 0.18909,-0.36701 -0.0222,-0.81469 -0.23759,-0.50345 -0.38059,-0.57667 -0.66511,-0.34054 -0.27829,0.23096 -0.43937,0.19561 -0.69372,-0.15223 -0.18219,-0.24917 -0.49673,-0.45121 -0.69897,-0.44898 -0.30721,0.003 -0.30863,0.0415 -0.009,0.23155 0.49642,0.31455 0.20052,1.08504 -0.816,2.12476 -0.79163,0.8097 -0.93272,0.8564 -2.11387,0.69972 -1.0342,-0.13719 -1.26564,-0.0936 -1.26564,0.23809 0,0.2233 0.14883,0.41539 0.33073,0.42688 0.26458,0.0167 0.26458,0.0476 0,0.15434 -0.1819,0.0734 -0.33073,0.24119 -0.33073,0.37287 0,0.31032 1.13439,0.19185 1.37468,-0.14356 0.27422,-0.3828 0.5683,0.0353 0.37646,0.53521 -0.0915,0.23838 -0.40384,0.49552 -0.69414,0.57144 -0.29031,0.0759 -0.52783,0.29726 -0.52783,0.49187 0,0.25091 0.26452,0.18422 0.90947,-0.2293 0.5002,-0.32072 0.96108,-0.70219 1.02417,-0.84772 z m 10.86204,-0.52916 c -0.0838,-0.21828 -0.19909,-0.39688 -0.25628,-0.39688 -0.0572,0 -0.10399,0.1786 -0.10399,0.39688 0,0.21828 0.11533,0.39687 0.25628,0.39687 0.14095,0 0.18775,-0.17859 0.10399,-0.39687 z m -3.70352,-2.37955 c -0.0969,-0.25252 0.0647,-0.47519 0.44764,-0.61686 0.50187,-0.18565 0.52852,-0.24884 0.16398,-0.38872 -0.47597,-0.18265 -1.11584,0.69025 -0.83686,1.14164 0.24585,0.39779 0.39543,0.30744 0.22524,-0.13606 z m -6.4095,-0.94345 0.62463,-0.54487 -0.70558,0.42858 c -0.59239,0.35982 -0.794,0.37335 -1.25677,0.0844 -0.30316,-0.18932 -0.55119,-0.49418 -0.55119,-0.67746 0,-0.18327 -0.11907,-0.33323 -0.26459,-0.33323 -0.47297,0 -0.29265,1.27678 0.19844,1.40512 0.93855,0.24527 1.34467,0.16997 1.95506,-0.36249 z m 74.06842,16.237047 c -0.012,-0.31883 -0.14098,-0.65328 -0.2865,-0.74322 -0.14552,-0.0899 -0.2657,-0.54345 -0.26706,-1.0078 -0.004,-1.37984 -1.36563,-3.42533 -3.00388,-4.51274 -0.79692,-0.52896 -1.57057,-0.96175 -1.71922,-0.96175 -0.67842,0 -0.50307,-0.54939 0.28314,-0.88711 1.26921,-0.545207 3.02106,-2.157927 3.81417,-3.511287 0.51869,-0.88507 0.72027,-1.65453 0.80862,-3.08664 0.14258,-2.31102 0.48085,-2.80454 0.73181,-1.06766 0.29921,2.07082 1.29662,3.90785 3.10665,5.72185 0.91835,0.92037 1.95616,1.851587 2.30624,2.069387 l 0.63651,0.396 -1.03339,0.64155 c -0.56836,0.35286 -1.15244,0.68747 -1.29796,0.74359 -0.14552,0.0561 -0.83242,0.7024 -1.52645,1.43618 -0.99133,1.04812 -1.39788,1.76455 -1.89631,3.34174 -0.34895,1.10419 -0.64431,1.74674 -0.65637,1.42791 z m -0.0901,-8.20669 c -0.051,-0.988317 -0.0932,-0.24913 -0.0936,1.64264 -5.3e-4,1.89177 0.0413,2.70039 0.0928,1.79694 0.0515,-0.90346 0.0519,-2.45127 8e-4,-3.43958 z m -122.43395,-6.427147 v -14.02292 l 4.16718,-0.0107 c 2.29196,-0.006 6.13172,-0.015 8.53282,-0.0202 2.40109,-0.005 28.0293,-6e-4 56.95156,0.0103 l 52.58594,0.0198 0.0377,0.86035 c 0.079,1.80459 0.18916,2.63009 0.37364,2.80051 0.10507,0.0971 0.12191,-0.68743 0.0374,-1.74333 l -0.15363,-1.91983 20.82068,0.0677 20.82068,0.0677 0.084,0.87456 0.084,0.87455 -16.48817,-0.065 -16.48817,-0.0649 -1.56809,0.61594 c -2.11584,0.83112 -3.2636,1.50615 -4.48281,2.63649 -1.08442,1.00537 -2.27658,3.19554 -2.28089,4.19033 -0.001,0.32742 -0.11292,0.59531 -0.24777,0.59531 -0.13485,0 -0.29964,0.20836 -0.36618,0.46302 -0.0774,0.29612 -0.13207,0.21043 -0.1517,-0.23771 -0.10529,-2.40406 -3.70371,-6.25603 -6.64527,-7.11353 -3.25643,-0.94928 -4.22763,-0.98235 -26.72292,-0.90992 -24.87059,0.0801 -23.88987,0.004 -26.08499,2.02725 l -1.16391,1.07285 -1.0432,-0.94247 c -0.62826,-0.5676 -1.76023,-1.18555 -2.84587,-1.55359 l -1.80266,-0.61111 -23.14715,-0.0732 c -24.82307,-0.0785 -25.18626,-0.062 -27.77589,1.2591 -1.44778,0.7386 -3.40134,2.7486 -4.06258,4.17996 -0.48695,1.05405 -0.57688,1.72305 -0.57688,4.29143 0,2.83413 0.0517,3.14096 0.7545,4.47604 0.89456,1.69943 2.97061,3.969417 4.2705,4.669457 0.51047,0.27491 0.92801,0.56205 0.92786,0.6381 -1.5e-4,0.0761 -0.5657,0.46481 -1.25677,0.86392 -0.69108,0.39911 -1.44158,0.87536 -1.66779,1.05833 -0.87067,0.70427 -2.59573,3.13974 -2.76285,3.90063 -0.52955,2.41101 -0.66232,-0.24023 -0.66232,-13.225227 z m 122.76667,-8.48229 c 0,-1.02871 -0.0973,-1.54298 -0.27153,-1.43529 -0.26579,0.16426 -0.30949,1.65692 -0.0754,2.57539 0.22226,0.87209 0.34693,0.46241 0.34693,-1.1401 z m 11.49849,16.137597 c -0.0959,-0.1552 -0.11765,-0.33893 -0.0483,-0.40829 0.0694,-0.0694 0.19661,0.0576 0.28278,0.28219 0.1789,0.46622 0.0264,0.54823 -0.23448,0.1261 z m -65.12072,-10.157217 c 0,-0.21188 0.10116,-0.32271 0.22481,-0.2463 0.12364,0.0764 0.1563,0.24977 0.0726,0.38524 -0.21394,0.34617 -0.29738,0.3072 -0.29738,-0.13894 z"
       id="path26671" />
  </g>
</svg>
