<?xml version="1.0" encoding="UTF-8" standalone="no"?>
<!-- Created with Inkscape (http://www.inkscape.org/) -->

<svg
   width="82.407036mm"
   height="88.974991mm"
   viewBox="0 0 82.407037 88.974989"
   version="1.1"
   id="svg5"
   inkscape:version="1.1 (c4e8f9ed74, 2021-05-24)"
   sodipodi:docname="ornatec5.svg"
   xmlns:inkscape="http://www.inkscape.org/namespaces/inkscape"
   xmlns:sodipodi="http://sodipodi.sourceforge.net/DTD/sodipodi-0.dtd"
   xmlns="http://www.w3.org/2000/svg"
   xmlns:svg="http://www.w3.org/2000/svg">
  <sodipodi:namedview
     id="namedview7"
     pagecolor="#ffffff"
     bordercolor="#666666"
     borderopacity="1.0"
     inkscape:pageshadow="2"
     inkscape:pageopacity="0.0"
     inkscape:pagecheckerboard="0"
     inkscape:document-units="mm"
     showgrid="false"
     inkscape:zoom="0.94615212"
     inkscape:cx="-104.10588"
     inkscape:cy="74.512331"
     inkscape:window-width="2506"
     inkscape:window-height="1403"
     inkscape:window-x="1974"
     inkscape:window-y="0"
     inkscape:window-maximized="1"
     inkscape:current-layer="layer1" />
  <defs
     id="defs2" />
  <g
     inkscape:label="Layer 1"
     inkscape:groupmode="layer"
     id="layer1"
     transform="translate(-191.23936,-134.03105)">
    <path
       style="fill:#000000;stroke-width:0.617218"
       d="m 197.83157,222.59699 c -0.75172,-0.75175 -0.4253,-2.05741 0.51435,-2.05741 0.51436,0 0.92584,0.54865 0.92584,1.23444 0,1.22964 -0.65768,1.60546 -1.44019,0.82297 z m 33.33551,-0.45401 c -0.3485,-0.90816 0.0504,-1.6034 0.92015,-1.6034 0.2829,0 0.51433,0.55551 0.51433,1.23444 0,1.41524 -0.94018,1.65706 -1.43448,0.36896 z m -29.88937,-6.32127 c -1.32248,-0.55322 -0.84764,-2.52901 0.92584,-3.85215 0.97744,-0.72928 1.32529,-1.27466 0.82012,-1.28593 -0.48247,-0.0117 -1.38517,0.44013 -2.00597,1.00194 -1.0503,0.95052 -1.12872,0.95052 -1.12872,0 0,-1.68748 -1.25302,-1.15245 -1.94416,0.83017 -0.75097,2.15424 -1.57037,2.44134 -1.49956,0.52539 0.0746,-2.01908 -1.37339,-2.1085 -1.60383,-0.0991 -0.15886,1.38505 -0.50931,1.73394 -1.74187,1.73394 -1.20356,0 -1.49553,-0.27158 -1.32706,-1.23442 0.11874,-0.67896 0.49565,-1.40803 0.83743,-1.62022 0.40868,-0.25369 0.39345,-0.52665 -0.0446,-0.7973 -0.91886,-0.5679 -0.29118,-14.05011 0.82136,-17.6421 1.64863,-5.32279 1.74425,-6.65176 0.5239,-7.28031 -0.61586,-0.31721 -1.46694,-0.45226 -1.8913,-0.30009 -0.5737,0.20576 -0.7715,-0.92341 -0.7715,-4.40394 0,-3.74904 0.18429,-4.68057 0.92582,-4.68057 1.08878,0 1.34623,-4.69475 0.277,-5.05116 -0.40535,-0.13507 -0.69487,-3.52068 -0.77153,-9.02127 -0.10101,-7.24475 0.0413,-8.91079 0.80313,-9.40205 0.6457,-0.41641 0.71757,-0.73714 0.23751,-1.05998 -1.20914,-0.81317 -1.57058,-3.05358 -0.64236,-3.9818 0.74194,-0.74195 0.74507,-1.0444 0.021,-2.03467 -0.99444,-1.36002 -1.1946,-9.56831 -0.2333,-9.56831 0.33947,0 0.66555,1.04155 0.72464,2.31458 0.059,1.273 0.14183,3.1478 0.18382,4.16623 0.13274,3.21357 2.01659,5.29001 6.18949,6.82208 1.03924,0.38155 0.8444,0.5699 -1.23197,1.1911 -3.98691,1.1928 -4.96088,3.51949 -4.77369,11.40392 0.16072,6.77154 0.95786,9.26771 1.65045,5.16835 0.26601,-1.57456 0.0786,-3.15697 -0.55297,-4.6685 -1.50969,-3.61318 -1.2609,-4.47295 1.66779,-5.76385 1.44274,-0.63595 2.84855,-1.51723 3.12403,-1.95839 0.27546,-0.44117 0.75835,-0.64298 1.07306,-0.44848 0.31472,0.19456 0.40808,-0.0742 0.20739,-0.59686 -0.21415,-0.55803 0.59269,-2.28318 1.954,-4.17802 l 2.31873,-3.22752 -2.38417,-1.87192 c -3.95285,-3.10356 -7.3861,-6.38536 -7.04105,-6.73042 0.17869,-0.1787 1.56575,0.66076 3.08241,1.86542 1.51665,1.20465 4.00742,2.82525 5.53505,3.60134 l 2.77748,1.41109 3.20204,-2.86134 c 2.78116,-2.48524 3.15578,-3.09109 2.85014,-4.60937 -0.44825,-2.22677 -1.63123,-2.67385 -3.62262,-1.36905 -1.22167,0.80045 -1.53067,1.45653 -1.38398,2.93848 0.10637,1.07386 -0.1311,2.01883 -0.54312,2.16164 -0.46166,0.16003 -0.80358,-0.6152 -0.92584,-2.09907 -0.17613,-2.13866 -0.41858,-2.42681 -2.6627,-3.16551 -1.3579,-0.44699 -4.20482,-0.82537 -6.32652,-0.84086 -2.12168,-0.0163 -3.85761,-0.29666 -3.85761,-0.62481 0,-0.36042 1.89391,-0.46922 4.78345,-0.27481 2.6309,0.17706 5.31378,0.35174 5.96199,0.38832 0.64819,0.0366 1.69387,0.34227 2.32373,0.67936 0.86376,0.46226 1.235,0.37882 1.51067,-0.33956 0.53206,-1.38653 8.0397,-1.34066 9.58583,0.0585 0.79798,0.72214 1.34089,0.82767 1.90025,0.36933 1.09511,-0.89734 8.87174,-1.65699 9.3324,-0.91161 0.21065,0.3408 -1.01304,0.74117 -2.85593,0.93447 -4.06935,0.42678 -9.87818,2.58803 -12.05017,4.48345 -1.51079,1.31838 -1.32527,1.28373 1.97951,-0.36964 3.98705,-1.99472 4.90613,-1.94583 3.08765,0.16423 l -1.17923,1.3683 1.85165,-1.15055 c 1.01843,-0.63282 2.39952,-1.5246 3.06912,-1.98176 1.72203,-1.17564 2.54443,-1.03145 1.42009,0.24896 -3.8863,4.42571 0.3656,8.78978 7.7897,7.99523 3.27867,-0.3509 11.1001,-3.48932 9.83553,-3.9466 -0.39748,-0.1437 -2.17155,0.47288 -3.94238,1.37024 -3.39249,1.71911 -9.83959,2.81265 -9.83959,1.66898 0,-0.35517 0.62493,-0.52507 1.38874,-0.37754 1.25304,0.24202 1.2392,0.20295 -0.1416,-0.39889 -0.84168,-0.36692 -2.02382,-1.11372 -2.62696,-1.65955 -0.60313,-0.54583 -1.30278,-0.78625 -1.55477,-0.53426 -0.25198,0.25199 0.0765,0.84921 0.73026,1.32715 1.32874,0.97159 1.04918,1.72749 -0.42909,1.16022 -1.02877,-0.39478 -1.94971,-3.05755 -1.37761,-3.98323 0.19105,-0.30902 0.692,-0.42958 1.11337,-0.26789 0.43341,0.16632 1.0653,-0.49873 1.45511,-1.53146 0.54179,-1.43539 1.32999,-2.02228 3.68896,-2.74682 1.64999,-0.50675 2.72221,-0.94499 2.38274,-0.97383 -0.33946,-0.0289 -0.20062,-0.32169 0.30861,-0.65075 0.50923,-0.32907 4.39769,-0.59832 8.64107,-0.59832 4.85854,0 7.38746,0.20739 6.82999,0.56017 -0.64801,0.41006 -0.31715,0.6143 1.23444,0.76208 l 2.1197,0.20179 -2.2854,1.13661 c -1.25695,0.62512 -2.98768,1.78746 -3.84603,2.58296 -0.85835,0.79551 -1.68642,1.24289 -1.84013,0.99419 -0.41305,-0.66832 0.39856,-1.65607 1.78207,-2.16882 1.02036,-0.37817 1.07026,-0.54398 0.3086,-1.02566 -0.68094,-0.43063 -0.44468,-0.58164 0.94313,-0.60277 1.66669,-0.0254 1.73285,-0.0973 0.66244,-0.71839 -0.65407,-0.37959 -3.84713,-0.82919 -7.09569,-0.99911 -5.19684,-0.27184 -5.8143,-0.19782 -5.13945,0.61523 0.62629,0.75464 0.54093,1.12879 -0.46525,2.03938 -1.76973,1.60158 -1.52341,2.73823 0.76639,3.53647 l 1.99865,0.69673 -1.84433,0.78637 c -3.41083,1.45424 -7.09072,0.93027 -7.09072,-1.00964 0,-0.69172 0.86224,-1.46002 2.31457,-2.06242 1.55106,-0.64336 1.90177,-0.97054 1.06315,-0.99186 -1.76282,-0.0448 -3.99494,1.66916 -3.99494,3.06758 0,2.50171 4.42159,3.21035 8.63683,1.38416 2.34262,-1.0149 3.62538,-2.41808 1.44603,-1.5818 -0.68593,0.26321 -0.8803,0.15654 -0.58516,-0.32089 0.27777,-0.44946 0.12294,-0.59263 -0.41708,-0.38543 -0.47246,0.18126 -1.21958,-0.10474 -1.66029,-0.63585 -0.66697,-0.80367 -0.61579,-1.17048 0.30538,-2.18837 1.41946,-1.56848 3.07911,-1.55854 4.1883,0.025 0.77864,1.11169 0.96053,1.14375 1.66599,0.2937 0.43558,-0.52481 0.61348,-1.13267 0.39539,-1.35078 -0.21812,-0.21812 -0.39658,-0.0385 -0.39658,0.39909 0,0.6481 -0.17706,0.64866 -0.95504,0.002 -1.22813,-1.01924 -0.16353,-1.75207 1.95658,-1.34679 1.14653,0.21928 1.42564,0.54954 1.09464,1.29554 -0.24436,0.55073 -0.56619,2.03023 -0.71516,3.28777 -0.22442,1.89339 0.021,2.55654 1.42445,3.85763 1.49038,1.38123 2.22537,1.5692 6.08004,1.55497 2.95917,-0.0117 5.18737,-0.39086 6.85359,-1.16866 l 2.46887,-1.15247 -3.70332,0.20972 c -2.03683,0.11524 -3.00893,0.0604 -2.16026,-0.122 2.50206,-0.53783 3.70331,-2.02958 3.70331,-4.5989 0,-1.28523 -0.29547,-2.5194 -0.65658,-2.74258 -0.44536,-0.27524 -0.52103,0.31673 -0.23529,1.83993 0.65297,3.48067 -2.02421,5.79256 -4.6631,4.0268 -0.80136,-0.53622 -0.76476,-0.74239 0.27226,-1.53361 1.17142,-0.89369 1.16796,-0.91405 -0.15419,-0.91405 -1.01867,0 -1.35242,0.36809 -1.35242,1.49161 0,0.82037 0.34719,1.65635 0.77153,1.8577 1.02038,0.48419 -2.58241,-0.0516 -4.16624,-0.61945 -0.85961,-0.30826 -1.04703,-0.2435 -0.61721,0.21321 0.33947,0.36075 2.00597,1.1005 3.70332,1.6439 l 3.0861,0.98796 -3.67735,-0.33909 c -2.10038,-0.19362 -4.15168,-0.76835 -4.78345,-1.34012 -1.35696,-1.22803 -1.44264,-2.13451 -0.15513,-1.64042 0.58437,0.22418 0.88185,0.0614 0.77153,-0.42257 -0.0987,-0.43315 0.97891,-1.58182 2.3948,-2.55259 l 2.57433,-1.76506 2.23548,1.31894 c 1.2295,0.72543 2.38827,1.16612 2.57505,0.97933 0.18686,-0.18686 -0.58889,-0.8228 -1.7237,-1.41335 l -2.06331,-1.07374 1.85165,-0.7956 c 4.0855,-1.75538 7.30376,-0.54914 7.30376,2.73754 0,1.05153 0.23141,1.76884 0.51435,1.594 0.97878,-0.60492 0.509,-3.33646 -0.7987,-4.64418 -1.11487,-1.11487 -1.83677,-1.26951 -4.78344,-1.0247 -1.90872,0.15863 -4.16479,0.0828 -5.01346,-0.16843 -1.18065,-0.34955 -0.74577,-0.49155 1.85165,-0.60462 5.16363,-0.22488 8.28388,0.0814 8.78592,0.86244 0.3327,0.51751 0.45599,0.50736 0.46292,-0.038 0.007,-0.52697 1.71689,-0.74346 5.87302,-0.74346 h 5.86358 v 5.10283 c 0,4.79145 -0.10614,5.20456 -1.74012,6.77001 -0.9571,0.91693 -1.92923,1.4781 -2.16029,1.24704 -0.23118,-0.23118 -0.42011,-0.002 -0.42011,0.5057 0,1.63492 0.654,1.65589 2.35267,0.0756 l 1.65925,-1.54373 0.19665,2.6745 c 0.11197,1.52164 -0.0877,2.76931 -0.46292,2.8944 -0.82334,0.27443 -0.87114,2.99946 -0.0614,3.49991 0.55625,0.34379 0.71071,9.02841 0.61495,34.57603 -0.0275,7.35307 -0.21975,9.39953 -0.93413,9.94471 -1.05309,0.80372 -0.56474,4.59185 0.56484,4.38153 0.48084,-0.0896 0.69919,1.70088 0.69919,5.73338 v 5.86357 l -5.15189,0.18033 c -3.08234,0.10777 -5.47768,-0.0903 -5.96293,-0.4929 -0.56376,-0.46786 -0.93344,-0.47507 -1.21244,-0.0236 -0.51947,0.84053 -3.56286,0.10778 -4.22918,-1.01831 -0.55735,-0.94194 -2.87517,-0.51746 -3.63837,0.66629 -0.54662,0.84788 -26.84465,0.67726 -27.88281,-0.18079 -1.09438,-0.90461 -6.55992,-1.03319 -7.09532,-0.16703 -0.61249,0.99104 -6.02948,1.55197 -8.40063,0.86988 -1.56943,-0.45147 -1.88084,-0.87918 -2.0432,-2.80638 -0.21788,-2.58478 -0.68552,-2.79823 -2.27732,-1.0393 -0.61444,0.67893 -1.6296,1.23442 -2.25593,1.23442 -0.62633,0 -1.13878,0.27776 -1.13878,0.61723 0,0.33947 0.57865,0.61721 1.28588,0.61721 0.75273,0 1.18052,0.3199 1.03178,0.77153 -0.27371,0.83113 -2.14447,1.20703 -3.39779,0.68279 z m 14.46446,-1.49017 c 1.83714,-0.69051 6.9839,-5.37334 6.9839,-6.35437 0,-0.31803 -1.49738,0.83792 -3.32748,2.56876 -1.83012,1.73084 -4.12154,3.32304 -5.09205,3.53822 -2.7397,0.60744 -3.11088,0.79898 -1.65045,0.85175 0.74171,0.0268 2.13045,-0.24515 3.08608,-0.60436 z m 55.41209,0.0448 c 1.52712,-0.58061 1.5846,-0.77017 1.26319,-4.16623 -0.20342,-2.15014 -0.83057,-4.23305 -1.58479,-5.26414 -0.6864,-0.93842 -1.16731,-2.18028 -1.06868,-2.75968 0.12691,-0.74535 -0.53201,-1.29094 -2.25289,-1.86542 -2.29937,-0.76758 -2.51583,-0.72834 -3.96261,0.71841 l -1.53036,1.53038 4.79758,4.79759 c 5.24644,5.24643 5.37658,6.88543 0.19899,2.50547 -3.48412,-2.94735 -5.93312,-4.43999 -6.44498,-3.92815 -0.17496,0.17496 -0.5224,1.79459 -0.77192,3.59901 -0.54116,3.91313 -1.17431,2.89304 -1.41155,-2.2742 l -0.17006,-3.70331 -4.55917,-2.31455 c -6.48296,-3.29125 -6.85938,-3.20414 -6.85938,1.58737 0,2.14608 0.44787,5.21637 0.99524,6.82285 0.54739,1.6065 0.82915,3.08701 0.6261,3.29003 -0.80922,0.80925 -3.43026,-6.53159 -3.90209,-10.92877 l -0.49672,-4.62913 -4.83899,-0.84529 c -3.65902,-0.63919 -5.21021,-0.67616 -6.3613,-0.15163 -0.83727,0.38148 -1.35009,0.97231 -1.13955,1.31292 0.21042,0.34063 -0.0187,1.02178 -0.51154,1.51365 -0.92686,0.92687 -0.97576,3.08776 -0.1374,6.07248 0.437,1.55579 0.68027,1.68839 2.4168,1.31747 2.46374,-0.52625 3.28521,-1.20967 4.72293,-3.9292 1.24982,-2.36412 1.65671,-1.27333 0.58071,1.55677 -0.51138,1.34505 -0.38309,2.22593 0.6417,4.40607 1.05559,2.24571 1.87356,2.99629 4.65111,4.26787 1.85361,0.84863 3.8326,1.45315 4.39772,1.34339 0.56509,-0.10987 1.56633,-1.16444 2.22492,-2.34376 1.43327,-2.5664 1.18791,-6.81967 -0.50104,-8.68595 -0.60386,-0.66725 -0.89054,-1.41979 -0.63711,-1.67232 0.75065,-0.74787 2.7549,2.22638 3.15166,4.67698 0.60739,3.75149 1.35416,4.93655 3.94305,6.25731 3.12812,1.59586 3.75259,1.58212 3.75259,-0.0824 v -1.34204 l 1.42853,1.34204 c 0.78569,0.73812 2.105,1.36156 2.93179,1.38542 0.82679,0.0238 2.05876,0.28208 2.7377,0.57382 1.6554,0.71137 1.8312,0.71179 3.67982,0.009 z m -33.30633,-0.64147 c -6.06226,-0.48728 -7.71523,-0.94264 -7.71523,-2.12541 0,-0.50764 -0.58444,-0.66837 -1.69735,-0.46682 -0.93356,0.16913 -1.48386,0.0791 -1.22292,-0.19992 0.74813,-0.80008 4.91408,-2.11074 6.74146,-2.12095 1.90433,-0.0117 2.90976,1.11554 1.67641,1.8778 -0.458,0.28304 -0.64443,0.70292 -0.4143,0.93308 0.66363,0.66361 2.32332,-0.21929 2.32332,-1.23606 0,-1.41694 -2.38383,-2.3753 -5.02673,-2.02081 -2.28878,0.307 -2.37989,0.25057 -2.37989,-1.47372 0,-0.98609 -0.55549,-2.3484 -1.23445,-3.02736 -1.55089,-1.55089 -3.04637,-1.68409 -1.73252,-0.1542 0.51023,0.59407 1.08781,1.53431 1.28355,2.08942 0.4322,1.22579 -1.13094,3.61984 -2.3635,3.61984 -1.04672,0 -1.18349,0.98073 -0.21974,1.5763 1.32486,0.81881 -0.41851,1.49604 -2.39324,0.92971 -1.21733,-0.34913 -1.98108,-0.34682 -1.98108,0.007 0,0.70891 -0.67143,0.53995 5.8636,1.47545 3.05521,0.43737 7.91583,0.78827 10.80131,0.77978 l 5.24636,-0.0163 -5.55497,-0.4465 z m -23.45431,-1.21914 c -0.20971,-0.33947 -0.93696,-0.61721 -1.6159,-0.61721 -0.67894,0 -1.06278,0.27774 -0.85299,0.61721 0.20972,0.33946 0.93697,0.61721 1.61591,0.61721 0.67893,0 1.06277,-0.27775 0.85298,-0.61721 z m 39.02624,0.24431 c -0.20506,-0.20505 -0.73745,-0.22698 -1.18301,-0.0488 -0.49236,0.19713 -0.34612,0.34328 0.3729,0.3729 0.65066,0.0268 1.0152,-0.1192 0.81011,-0.32419 z m -42.48981,-2.25026 c 0.61217,-1.83524 0.59104,-1.90401 -0.24823,-0.80787 -0.50454,0.65894 -0.91735,1.56164 -0.91735,2.00597 0,1.37635 0.46693,0.89642 1.16558,-1.1981 z m 28.45251,1.54303 c -0.0233,-1.2839 -0.82019,-3.2404 -1.31971,-3.2404 -0.34012,0 -0.34467,0.4322 -0.0117,1.08013 0.30554,0.59407 0.43105,1.42733 0.27888,1.85166 -0.1521,0.42434 0.0243,0.77153 0.39203,0.77153 0.36776,0 0.66484,-0.20832 0.66023,-0.46292 z m -6.16376,-1.08013 c 0.62929,-0.75826 0.58712,-0.92582 -0.23305,-0.92582 -0.55077,0 -1.0014,0.41661 -1.0014,0.92582 0,0.5092 0.10498,0.92584 0.23305,0.92584 0.12807,0 0.57879,-0.41664 1.0014,-0.92584 z m -15.14372,-0.27327 c 0.19782,-0.32003 -0.96624,-1.16768 -2.58674,-1.88364 -1.6205,-0.71598 -3.61901,-1.74166 -4.44113,-2.2793 l -1.49474,-0.97751 2.11197,-1.75137 c 1.16157,-0.96326 1.736,-1.75884 1.27648,-1.76798 -0.50621,-0.009 -0.0805,-0.87637 1.08016,-2.19834 1.05356,-1.19996 1.91557,-2.70886 1.91557,-3.35311 0,-1.21942 -1.99815,-2.23554 -3.08055,-1.56659 -0.80558,0.49786 -0.80983,2.16369 -0.005,2.16369 0.33946,0 0.61721,-0.47218 0.61721,-1.04927 0,-0.8148 0.16516,-0.88413 0.73898,-0.31031 0.57385,0.57385 0.4583,1.1187 -0.51695,2.43803 -1.70049,2.30044 -8.36956,7.64723 -9.16005,7.34388 -0.34954,-0.13414 -1.13306,0.4157 -1.74115,1.22187 l -1.10563,1.46574 h 2.40204 c 1.61674,0 2.7666,-0.40285 3.5172,-1.23225 0.80103,-0.88513 1.33163,-1.05263 1.88354,-0.59461 0.42259,0.35074 2.39411,1.4695 4.38114,2.48616 l 3.6128,1.84846 -2.62319,-0.26932 c -1.44274,-0.14814 -2.62318,-0.0187 -2.62318,0.28917 0,0.74302 5.38141,0.72146 5.84174,-0.0233 z m -19.11194,-0.65617 c 2.04252,-0.45478 1.77607,-0.49716 -1.54303,-0.24555 -3.67838,0.27886 -3.9093,0.22675 -2.7775,-0.62813 0.67894,-0.51274 1.51219,-1.15048 1.85166,-1.41722 0.33947,-0.26673 1.42776,-0.76226 2.41843,-1.10119 0.99067,-0.33891 1.91651,-0.9634 2.05741,-1.38774 0.36632,-1.10325 -1.0924,-0.95264 -2.42128,0.24996 -0.6208,0.56181 -1.12872,0.71708 -1.12872,0.34505 0,-0.37206 0.27774,-0.84811 0.61721,-1.05793 0.68316,-0.42223 0.86085,-3.3947 0.20295,-3.3947 -0.90193,0 -2.67177,2.10768 -2.67177,3.18177 0,1.31098 -0.66268,1.46364 -1.72823,0.39809 -0.57606,-0.57606 -0.74066,-0.51231 -0.74066,0.28691 0,0.56514 0.59992,1.34861 1.33314,1.74101 1.28894,0.68983 1.29405,0.73448 0.1542,1.34719 -1.64143,0.88238 -1.65992,0.90767 -1.20421,1.64504 0.48167,0.77934 2.19646,0.79087 5.58035,0.0376 z m 8.80257,-0.42046 c -0.59011,-0.15443 -1.7011,-0.16003 -2.46887,-0.0117 -0.76777,0.14766 -0.28495,0.27403 1.07292,0.28089 1.3579,0.007 1.98608,-0.11384 1.39595,-0.26844 z m 1.99876,-1.42758 c 0,-0.33947 -0.43301,-0.61723 -0.96225,-0.61723 -0.52925,0 -0.79059,0.27776 -0.5808,0.61723 0.20972,0.33947 0.64282,0.61721 0.96225,0.61721 0.31946,0 0.5808,-0.27774 0.5808,-0.61721 z m 10.49273,0.07 c 0,-0.57222 -3.79714,-1.35692 -4.30266,-0.88917 -0.4977,0.46051 1.45551,1.41696 2.91392,1.42687 0.76381,0.005 1.38874,-0.23677 1.38874,-0.5377 z m -19.44241,-0.68729 c 0.4828,-0.78114 -0.33429,-0.78114 -1.54303,0 -0.79788,0.51564 -0.78158,0.59962 0.11781,0.60778 0.57403,0.005 1.21536,-0.26829 1.42515,-0.60778 z m 15.45426,-2.22024 c 1.1559,-0.88166 3.28992,-1.97406 4.74225,-2.42758 2.41517,-0.75417 2.48251,-0.82761 0.78895,-0.86005 -1.94595,-0.0373 -8.33247,3.24769 -8.33247,4.28593 0,0.92754 0.5187,0.74269 2.80127,-0.9983 z m 9.80124,1.22838 c 1.50377,-0.57704 1.15574,-1.65405 -0.41243,-1.27632 -0.76381,0.18406 -2.54952,0.11617 -3.96823,-0.15093 -2.58275,-0.48595 -5.17395,0.15839 -3.2668,0.81251 2.38258,0.81702 6.29969,1.13185 7.64746,0.61465 z m 35.88438,-2.67255 c -0.64952,-0.7177 -0.88709,-1.51946 -0.5944,-2.00597 0.40066,-0.66599 0.30882,-0.66557 -0.51545,0.002 -0.84041,0.68106 -1.28484,0.63536 -2.74167,-0.2819 l -1.73865,-1.09469 1.85165,1.84888 c 1.01841,1.01689 2.00381,1.78702 2.18975,1.71137 0.18593,-0.0756 0.74144,0.11757 1.23443,0.42949 1.3947,0.88231 1.49263,0.69239 0.31434,-0.60961 z m -35.68765,-5.9025 c -0.11711,-0.75655 -0.58735,0.0642 -1.21466,2.12014 -0.56298,1.845 -0.84219,3.64807 -0.62048,4.00681 0.50855,0.82284 2.0924,-4.46516 1.83514,-6.12695 z m -30.14241,3.67912 1.482,-2.17603 1.52645,1.40873 1.52646,1.40873 -0.47643,-1.54306 c -0.26202,-0.84867 -0.53883,-2.09856 -0.61511,-2.77749 -0.0763,-0.67894 -0.17402,-1.45252 -0.21741,-1.71906 -0.11548,-0.71043 -2.54765,0.71908 -2.54765,1.49737 0,0.3634 -0.69436,1.48592 -1.54305,2.49453 -1.48802,1.7684 -2.03819,3.59526 -1.08013,3.58653 0.2546,-0.002 1.12982,-0.98343 1.94492,-2.18025 z m 8.7021,1.20319 c 0,-0.72945 -1.78839,-2.10482 -2.73691,-2.10482 -0.19198,0 -0.34917,0.65965 -0.34917,1.46589 0,1.15214 0.33026,1.4659 1.54305,1.4659 0.87811,0 1.54303,-0.35636 1.54303,-0.82697 z m 12.22616,-1.59617 c 0.14743,-1.27187 0.84184,-1.94866 3.0861,-3.00838 4.70029,-2.21942 6.2365,-2.56208 13.69704,-3.05517 l 7.09802,-0.46912 -7.40663,0.14253 c -4.07364,0.0784 -8.101,0.37092 -8.94967,0.65018 -1.39922,0.4604 -1.46292,0.41005 -0.68356,-0.54005 1.46437,-1.78519 0.14767,-1.96155 -2.79427,-0.37422 -3.63923,1.96353 -7.889,6.87633 -6.84846,7.91688 1.16698,1.16698 2.59421,0.52378 2.80143,-1.26256 z m -9.60298,-0.4315 c -0.0849,-0.3819 0.24593,-0.69438 0.73511,-0.69438 1.1099,0 1.78443,-1.02069 1.24803,-1.88859 -0.25596,-0.41414 -0.72415,-0.24431 -1.27611,0.46292 -0.77113,0.98806 -0.83017,0.72499 -0.51119,-2.27764 l 0.36065,-3.39469 -1.2675,1.54303 c -1.22066,1.48604 -1.55441,2.52294 -1.34101,4.16623 0.15607,1.2017 -0.94714,0.90788 -1.88462,-0.5019 -0.83063,-1.24916 -0.84848,-1.24326 -0.9358,0.30861 -0.0653,1.16126 0.21555,1.58203 1.0558,1.58203 0.62965,0 1.50293,0.4053 1.94066,0.90065 0.88741,1.00424 2.115,0.86927 1.87598,-0.20622 z m 22.52684,-4.14218 c -0.86582,-0.86582 -2.3129,0.68904 -2.3129,2.48515 0,3.02785 0.80185,3.18625 1.74878,0.34544 0.46677,-1.40031 0.72062,-2.67409 0.56412,-2.83059 z m -6.48382,3.66396 c 0.25716,-0.15887 0.4676,-0.71934 0.4676,-1.24532 0,-1.30156 -2.95926,-0.57391 -4.62915,1.13826 l -1.23442,1.26571 2.46415,-0.43481 c 1.35531,-0.23916 2.67462,-0.56489 2.93182,-0.72384 z m 39.08128,-0.64194 c 1.79054,-1.00075 3.05904,-1.39455 3.19343,-0.99135 0.25218,0.75648 2.63266,0.3209 2.63266,-0.48172 0,-0.28626 -1.111,-0.85334 -2.46889,-1.26015 -1.35788,-0.40684 -2.46887,-1.00882 -2.46887,-1.33774 0,-0.58488 -3.81468,-0.3231 -7.71523,0.52945 l -1.85166,0.40471 2.07511,-1.78328 c 2.04799,-1.75998 2.06814,-1.82749 1.5417,-5.16243 -0.41398,-2.62234 -0.84417,-3.51557 -1.92082,-3.9884 -1.83694,-0.80671 -1.76222,-1.55099 0.1556,-1.55099 1.12135,0 1.54305,-0.33079 1.54305,-1.21039 0,-0.66574 0.60785,-1.77673 1.3508,-2.46889 1.13705,-1.0593 1.18588,-1.25848 0.30856,-1.25848 -0.8398,0 -1.03133,-0.56946 -0.986,-2.93178 0.031,-1.61248 -0.0602,-6.68139 -0.20249,-11.26426 -0.24238,-7.80332 -0.16749,-8.50486 1.17825,-11.04756 0.79038,-1.49329 1.43705,-2.79329 1.43705,-2.88887 0,-0.0956 -0.62493,-0.26251 -1.38874,-0.37098 -2.00811,-0.28519 -2.23503,-2.87244 -0.37497,-4.27548 0.79016,-0.59603 1.23141,-1.28894 0.98054,-1.53981 -0.25087,-0.25087 -1.09786,0.14673 -1.88221,0.88362 -1.20853,1.13535 -2.15107,1.33975 -6.17813,1.33975 -2.69326,0 -5.31817,-0.33427 -6.05874,-0.77153 -1.04537,-0.61723 -1.36259,-0.61723 -1.58612,0 -0.42179,1.1647 -3.72218,0.94364 -4.41579,-0.29577 -0.56508,-1.00973 -0.66058,-1.01001 -1.77101,-0.005 -0.92703,0.83894 -2.42261,1.07535 -7.11487,1.12459 -3.26762,0.0343 -6.18452,-0.0882 -6.48205,-0.27195 -0.29752,-0.18383 -1.2591,0.0383 -2.13686,0.49364 -1.15415,0.59878 -1.78261,0.64131 -2.27032,0.1535 -0.4877,-0.48772 -0.67439,-0.40222 -0.67439,0.30884 0,0.54076 0.41661,1.14309 0.92584,1.33851 1.18434,0.45447 1.36676,10.63687 0.19759,11.02661 -0.47258,0.15747 -0.5487,0.66317 -0.21695,1.44018 0.79672,1.86539 0.35283,4.18902 -1.00257,5.24823 -1.07313,0.83861 -1.11536,1.06354 -0.32319,1.72099 1.09749,0.91082 1.72739,4.36497 1.92414,10.55108 0.10568,3.32514 0.38718,4.66935 1.01796,4.86201 0.47951,0.1465 1.46059,0.80087 2.18019,1.45424 1.29339,1.17438 1.31215,1.17347 1.63956,-0.0786 0.36503,-1.39585 2.63242,-1.75842 3.09566,-0.495 0.22629,0.61721 0.44645,0.61721 1.10071,0 0.44981,-0.42433 1.45665,-0.77152 2.23743,-0.77152 0.8065,0 1.35295,0.33319 1.26529,0.77152 -0.0933,0.46598 0.39566,0.7133 1.23444,0.62449 2.25502,-0.23874 1.58537,0.96023 -0.92584,1.65762 -3.77887,1.04945 -5.67284,0.82868 -6.34023,-0.73908 -0.58255,-1.36849 -0.58901,-1.36623 -0.44302,0.1542 0.1311,1.36636 0.46618,1.56234 2.92565,1.71162 2.87078,0.17426 7.2044,-1.46323 6.98014,-2.63744 -0.0648,-0.33949 -0.7592,-0.79786 -1.54305,-1.01861 -1.12025,-0.31552 -0.92994,-0.41457 0.8894,-0.46292 1.7455,-0.0464 2.31456,0.18382 2.31456,0.93629 0,0.74222 0.35575,0.895 1.38876,0.59645 2.66827,-0.77118 8.19908,-1.58715 10.78195,-1.59069 2.00588,-0.002 2.52597,0.19922 2.26491,0.87956 -0.18639,0.48573 -1.08034,0.86581 -1.98659,0.84465 -2.63755,-0.0616 -6.84668,2.46365 -7.25868,4.35475 -0.68558,3.14697 -1.01304,3.58238 -1.45998,1.94131 -0.37406,-1.37351 -0.71537,-1.52906 -3.1064,-1.41573 -2.4519,0.11617 -5.02992,1.53605 -4.23404,2.33191 0.51904,0.51907 10.4914,1.6495 11.41724,1.29421 1.05153,-0.4035 1.09851,0.64593 0.0585,1.30795 -0.5239,0.3335 -0.65239,1.29429 -0.39618,2.96247 0.27046,1.76117 0.40427,1.99277 0.46675,0.80794 0.0483,-0.9135 0.36986,-1.83537 0.71488,-2.04862 0.345,-0.21321 0.47104,-0.64049 0.28005,-0.94949 -0.19105,-0.309 -0.0289,-1.15658 0.36014,-1.8835 0.49194,-0.91921 0.50064,-1.19392 0.0285,-0.90214 -0.37334,0.23071 -0.6788,0.14697 -0.6788,-0.18616 0,-0.70263 5.69627,-5.70385 6.07043,-5.32971 0.13787,0.13787 -0.57597,1.30494 -1.58619,2.59362 -1.01019,1.28866 -2.16509,2.96919 -2.56642,3.73446 -0.65503,1.24905 -0.55364,1.45996 0.99083,2.06124 0.94628,0.36841 3.52586,1.60512 5.73243,2.74826 2.20654,1.14314 4.04637,2.09037 4.08848,2.10498 0.0422,0.014 1.41328,-0.72056 3.04703,-1.63368 z m -25.98623,-24.80581 c -2.78218,-1.26379 -5.6383,-4.30991 -6.22215,-6.63613 -0.72799,-2.90058 0.12411,-7.48529 1.79922,-9.68157 2.97361,-3.89862 6.13252,-4.65708 13.21524,-3.173 1.82812,0.38307 1.94954,0.56076 1.6087,2.35445 -0.42756,2.24998 -0.86374,2.87584 -1.25038,1.79406 -0.85406,-2.3897 -2.59444,-3.55726 -5.30245,-3.55726 -4.40506,0 -7.21734,3.49537 -7.21734,8.97042 0,2.86556 0.6924,4.48265 2.96102,6.91527 2.7614,2.96106 6.33666,2.86229 9.78115,-0.27017 0.90154,-0.81986 1.45975,-0.98348 1.75049,-0.51305 0.61711,0.99851 -0.85497,2.51672 -3.69133,3.80696 -3.09821,1.40934 -4.31112,1.4077 -7.43217,-0.009 z m 16.99906,24.30587 c -0.84867,-0.48516 -1.82079,-0.88208 -2.16026,-0.88208 -0.33947,0 0.0772,0.39692 0.92582,0.88208 0.84867,0.48515 1.82079,0.88207 2.16026,0.88207 0.33947,0 -0.0772,-0.39692 -0.92582,-0.88207 z m -41.66229,-0.30861 c 0.20972,-0.33947 0.0872,-0.61723 -0.27216,-0.61723 -0.35951,0 -0.65365,0.27776 -0.65365,0.61723 0,0.33947 0.12247,0.61721 0.27216,0.61721 0.14977,0 0.44386,-0.27774 0.65365,-0.61721 z m 59.89349,-2.00597 c 0.26743,-1.08288 0.17146,-1.69734 -0.26493,-1.69734 -0.37628,0 -0.68414,0.53278 -0.68414,1.18394 0,0.65117 -0.17963,1.69274 -0.39945,2.31457 -0.27907,0.78991 -0.19922,0.94462 0.26494,0.51341 0.36541,-0.33947 0.85301,-1.38104 1.08358,-2.31458 z m -73.52485,-4.77649 -0.56466,-1.93168 -2.00597,2.61761 c -1.25367,1.63594 -2.00595,3.3244 -2.00595,4.5023 v 1.88469 l 2.57063,-2.57063 c 2.35472,-2.35475 2.5232,-2.73287 2.00595,-4.50229 z m 69.26134,3.71733 c -1.31374,-0.61245 -2.59832,-1.45287 -2.85464,-1.86759 -0.29296,-0.47402 -0.60758,-0.525 -0.8472,-0.13717 -0.36145,0.58483 4.16271,3.17839 5.47322,3.13761 0.33947,-0.0117 -0.45764,-0.52028 -1.77138,-1.13273 z m -64.29725,-1.40971 c -0.51839,-2.4022 -2.20318,-6.77171 -2.49751,-6.47738 -0.30072,0.30072 2.20899,8.48333 2.60193,8.48333 0.18056,0 0.13367,-0.90268 -0.10451,-2.00595 z m 10.36464,-1.07633 c 0.42433,0.002 1.53246,0.40075 2.46252,0.88593 1.55038,0.80878 1.92248,0.75275 4.47484,-0.67381 4.34896,-2.43068 3.41416,-2.79336 -1.60074,-0.62106 -2.08386,0.90266 -2.37145,0.88465 -4.55443,-0.28537 -2.5459,-1.36452 -3.09493,-1.13796 -3.75966,1.55136 l -0.44159,1.78669 1.32376,-1.32377 c 0.72807,-0.72809 1.67096,-1.32207 2.0953,-1.31997 z m 29.62651,2.05629 c -0.42434,-0.17122 -1.11872,-0.17122 -1.54305,0 -0.42434,0.17123 -0.0772,0.31134 0.77152,0.31134 0.84867,0 1.19586,-0.1402 0.77153,-0.31134 z m -42.30509,-2.31229 c -0.18779,-1.15709 -0.92202,-3.30965 -1.63168,-4.78344 -0.70964,-1.47377 -1.12368,-2.12411 -0.9201,-1.44517 0.20365,0.67894 0.67276,2.8315 1.04264,4.78344 0.70836,3.73836 2.09707,5.06819 1.50914,1.44517 z m 4.84043,0.71512 c 0.23281,-0.76383 0.77181,-1.80537 1.19787,-2.31458 0.42606,-0.5092 0.96344,-1.97895 1.19423,-3.26612 0.40231,-2.24408 0.36748,-2.30774 -0.84767,-1.54888 -1.03336,0.64536 -1.50612,0.64221 -2.56176,-0.0163 -1.8287,-1.14205 -2.14734,-0.47865 -1.29704,2.70049 0.40696,1.52156 0.73992,3.45687 0.73992,4.30069 0,1.91341 1.00732,2.00646 1.57445,0.14557 z m 65.46318,-0.17356 c 0.56302,-0.85926 0.89388,-1.69209 0.73525,-1.85072 -0.15863,-0.15863 -0.65981,0.40553 -1.11372,1.25371 -1.02681,1.91856 -2.94917,1.99911 -3.66088,0.15327 -0.49526,-1.2843 -0.57014,-1.30282 -0.9959,-0.24632 -1.01031,2.50712 3.44463,3.11757 5.03525,0.68997 z m -60.4427,-4.74206 c 0.95369,-3.63613 0.88478,-5.70161 -0.1556,-4.66132 -0.4538,0.45379 -2.06832,7.20983 -2.0969,8.77458 -0.0413,2.26425 1.15065,0.0875 2.25241,-4.11326 z m 15.61653,4.60701 c -0.021,-1.13789 -0.79355,-3.24039 -1.1911,-3.24039 -0.2411,0 -0.31605,0.83325 -0.16656,1.85166 0.14953,1.0184 0.51797,1.85165 0.81892,1.85165 0.30094,0 0.54338,-0.20831 0.53874,-0.46292 z m 37.68254,-1.79224 c 3.18767,-2.87988 5.10691,-5.5744 4.57895,-6.42865 -0.24382,-0.39452 -1.04033,0.2547 -1.94392,1.58444 -0.86448,1.27219 -1.88207,2.11806 -2.33771,1.9432 -0.82801,-0.31773 -2.49901,1.30676 -3.87531,3.76744 -1.24933,2.23363 0.65775,1.77183 3.57799,-0.86643 z m -31.50194,1.02072 c 0.7527,-0.48641 0.67295,-0.60007 -0.42648,-0.60776 -0.74376,-0.005 -1.52397,0.26829 -1.73378,0.60776 -0.48566,0.78585 0.94427,0.78585 2.16026,0 z m 0.0849,-1.83687 c 4.48449,-2.09767 8.38911,-3.09431 7.68978,-1.96279 -0.26629,0.43089 -0.0336,0.71358 0.58728,0.71358 0.66046,0 0.90121,-0.33119 0.67301,-0.92584 -0.22954,-0.59818 0.021,-0.93356 0.70551,-0.9477 0.58341,-0.0117 1.75513,-0.4328 2.6038,-0.93505 1.50339,-0.88975 1.47962,-0.90371 -0.92582,-0.54322 -6.97632,1.04551 -17.37399,4.67339 -16.66801,5.81569 0.56246,0.91009 1.00996,0.80819 5.33445,-1.21467 z m -9.74255,-0.96806 c 3.96102,-1.80108 3.07976,-1.94728 -1.42268,-0.23601 -1.85072,0.70341 -4.15893,1.30151 -5.12933,1.32911 -3.64625,0.10358 -4.61336,-3.49259 -1.34028,-4.9839 2.266,-1.03245 3.98049,-0.88012 6.75764,0.60044 l 2.45975,1.31133 -1.17265,-1.30786 c -2.58794,-2.8863 -8.62813,-2.79459 -10.20669,0.1549 -1.05048,1.96288 -0.35668,3.86292 1.68641,4.61828 2.07152,0.76591 4.27559,0.37439 8.36783,-1.48634 z m 46.69296,0.64712 c -0.79602,-0.84735 -1.58341,-1.40456 -1.74971,-1.23823 -0.40973,0.40973 1.77953,2.77883 2.56789,2.77883 0.34605,0 -0.021,-0.69329 -0.81818,-1.5406 z m -8.02612,-1.92967 c 0,-0.46766 -0.55549,-0.85026 -1.23445,-0.85026 -1.29407,0 -1.48601,0.47788 -0.85373,2.12553 0.29466,0.76786 0.57363,0.83195 1.23442,0.28353 0.46957,-0.38972 0.85376,-1.09117 0.85376,-1.5588 z m -33.63843,1.0014 c 0.20972,-0.33947 0.0872,-0.61723 -0.27219,-0.61723 -0.35951,0 -0.65365,0.27776 -0.65365,0.61723 0,0.33947 0.12247,0.61721 0.27219,0.61721 0.14977,0 0.44384,-0.27774 0.65365,-0.61721 z m -30.65222,-2.26314 c 0.0763,-1.13157 -0.13063,-2.05741 -0.45965,-2.05741 -0.32899,0 -0.57837,0.48606 -0.55413,1.08013 0.0243,0.5941 -0.14394,1.51991 -0.37353,2.05741 -0.26284,0.61511 -0.10894,0.97726 0.41559,0.97726 0.50505,0 0.88772,-0.81021 0.97172,-2.05739 z m 18.60699,1.80022 c -0.0233,-1.09728 -1.07803,-2.12588 -1.49287,-1.45464 -0.23211,0.37572 -0.25052,0.96086 -0.0406,1.30033 0.44493,0.71994 1.54739,0.83087 1.53358,0.15443 z m 54.94194,-0.46292 c 0,-0.5092 -0.45062,-0.92582 -1.0014,-0.92582 -0.82016,0 -0.86234,0.1675 -0.23304,0.92582 0.42261,0.5092 0.87323,0.92584 1.0014,0.92584 0.12807,0 0.23304,-0.41664 0.23304,-0.92584 z m -51.84639,-0.61721 c 0,-0.51436 -0.54863,-0.92584 -1.23444,-0.92584 -0.6858,0 -1.23443,0.41148 -1.23443,0.92584 0,0.51436 0.54863,0.92582 1.23443,0.92582 0.68581,0 1.23444,-0.41146 1.23444,-0.92582 z m 1.97511,-1.04927 c -0.57608,-0.57608 -0.74066,-0.41148 -0.74066,0.74066 0,1.15215 0.16469,1.31673 0.74066,0.74067 0.57606,-0.57609 0.57606,-0.90527 0,-1.48133 z m 43.6991,0.17449 c 0,-0.45335 -5.03823,-1.90281 -6.61406,-1.90281 -1.07994,0 0.85726,1.00361 3.11197,1.61224 3.46439,0.93515 3.50209,0.93827 3.50209,0.29057 z m -62.95633,-0.62428 c 0,-0.79359 -1.79299,-2.51295 -2.62055,-2.51295 -0.37441,0 -0.0285,0.69435 0.76889,1.54305 1.58759,1.6899 1.85166,1.82821 1.85166,0.9699 z m 30.19228,-1.05351 c 0.84704,-0.74108 -1.16194,-0.0529 -2.14517,0.73488 -1.1297,0.90505 -1.10999,0.91791 0.34495,0.22511 0.84867,-0.40418 1.65878,-0.83612 1.80022,-0.95987 z m -21.15997,-2.67861 c 3.07187,-1.62384 4.09923,-3.79926 1.98637,-4.20617 -0.66067,-0.12714 -0.98509,0.18989 -0.92582,0.90505 0.0686,0.82724 -0.65052,1.28703 -2.89264,1.84968 -1.70406,0.42762 -3.55719,0.5375 -4.32052,0.25621 -0.73516,-0.27091 -2.51709,-0.67504 -3.95983,-0.89803 -2.31945,-0.35853 -2.62318,-0.26765 -2.62318,0.78482 0,1.43052 1.14418,1.94872 2.62318,1.18804 0.7997,-0.41131 1.08013,-0.31079 1.08013,0.38716 0,0.51848 1.04155,1.44068 2.31458,2.04938 2.03338,0.97224 2.39958,0.99522 3.01441,0.18919 0.38494,-0.50465 2.05144,-1.63202 3.70332,-2.50524 z m 61.44295,2.14498 c 0.52593,-1.15429 0.52593,-1.93179 0,-3.08608 -0.85856,-1.88434 -2.87785,-2.00774 -5.05006,-0.30863 -1.84709,1.44482 -1.18851,1.63723 0.90615,0.26475 2.84569,-1.86455 5.46332,1.30147 3.06168,3.70311 -0.53344,0.53344 -0.66636,0.9699 -0.29538,0.9699 0.37101,0 0.99093,-0.69438 1.37761,-1.54305 z m -7.11015,-1.08013 c -0.17123,-0.42433 -0.31134,-0.0772 -0.31134,0.77153 0,0.84867 0.1402,1.19586 0.31134,0.77152 0.17122,-0.42433 0.17122,-1.11871 0,-1.54305 z m -67.76437,0.16283 c 0.66856,-0.007 0.69109,-0.19642 0.10684,-0.90027 -0.40709,-0.49054 -0.64942,-1.53209 -0.5385,-2.31458 0.17216,-1.21508 0.54263,-1.41216 2.53771,-1.35041 2.28224,0.0707 2.31082,0.0443 1.24135,-1.13731 -1.68493,-1.86182 -3.28763,-2.55772 -4.0757,-1.76965 -0.37091,0.37091 -1.18121,0.67438 -1.80066,0.67438 -1.95915,0 -3.14771,5.10722 -1.55863,6.69734 0.42433,0.42462 1.32703,0.62284 2.00597,0.44048 0.67894,-0.18242 1.61562,-0.33534 2.08153,-0.33998 z m 65.89608,-0.96606 c 1.70016,-1.83453 1.95474,-2.75466 0.37938,-1.37131 -1.43222,1.25766 -3.66566,1.90445 -4.10749,1.18954 -0.52372,-0.84736 1.31646,-2.14316 2.43432,-1.71421 0.55548,0.21322 0.80556,0.11128 0.58865,-0.23955 -0.7848,-1.26981 -4.00755,-0.20762 -4.00755,1.32087 0,0.68419 1.85305,2.38951 2.59649,2.38951 0.36116,0 1.31346,-0.70868 2.1162,-1.57485 z m 7.25553,0.84835 c -0.39261,-0.63529 -3.15469,-0.67042 -3.53804,-0.045 -0.15606,0.25461 0.64682,0.48317 1.78413,0.50792 1.1373,0.0247 1.92656,-0.18359 1.75391,-0.46289 z m -52.6729,-1.75937 c 0.95703,-0.51219 1.15154,-1.19703 1.01082,-3.55908 -0.20762,-3.48405 -0.70879,-4.44778 -2.31345,-4.44778 -1.27164,0 -1.61246,0.90545 -0.5808,1.54305 1.01477,0.62715 0.73509,2.33758 -0.31623,1.93415 -0.72527,-0.27833 -0.85122,-0.0306 -0.56473,1.1109 0.20272,0.80803 0.0576,2.0505 -0.32269,2.76105 -0.5997,1.12053 -0.5194,1.29192 0.60531,1.29192 0.71318,0 1.82999,-0.28539 2.48177,-0.63421 z m -11.3854,-4.87051 c -0.22138,-1.66972 -0.68286,-3.83945 -1.02522,-4.82161 -0.61672,-1.76912 -0.6669,-1.78522 -5.38607,-1.7276 l -4.76357,0.0581 -0.19106,2.28649 c -0.18709,2.24009 -0.1535,2.279 1.65962,1.91637 1.59307,-0.31861 2.26408,0.0243 4.82021,2.46264 1.63326,1.55803 3.49138,2.83922 4.12919,2.84708 1.03322,0.0117 1.11575,-0.31665 0.75692,-3.02153 z m 5.60125,0.0233 c 0.74011,-0.37847 1.43449,-1.31364 1.54306,-2.0782 0.1367,-0.96253 0.82301,-1.57417 2.23129,-1.98852 1.68995,-0.49721 2.00306,-0.8625 1.85166,-2.16026 -0.16843,-1.44279 -0.40574,-1.55425 -3.11403,-1.46192 -1.61247,0.0551 -2.93179,-0.15326 -2.93179,-0.46292 0,-0.30956 -0.64977,-0.56285 -1.44397,-0.56285 -2.13869,0 -3.00824,2.43338 -2.50886,7.02087 0.51156,4.69923 0.789,5.19383 2.03518,3.62806 0.5455,-0.6854 1.59736,-1.55581 2.33746,-1.93426 z m 54.76643,1.11349 c 1.77483,-2.10929 2.12739,-3.8204 0.67207,-3.26195 -0.5092,0.19549 -0.92581,0.88702 -0.92581,1.53692 0,1.62743 -2.71976,2.8448 -3.99366,1.78755 -0.51925,-0.43094 -0.9441,-1.1489 -0.9441,-1.59542 0,-0.44655 -0.55549,-0.77006 -1.23445,-0.71892 -1.52147,0.11454 -1.62409,1.39711 -0.15419,1.92845 0.59407,0.21485 1.77451,0.79854 2.62318,1.29731 2.07054,1.21688 2.12482,1.20354 3.95705,-0.97394 z m 2.6961,-1.27709 c -0.17029,-0.50447 -0.71432,0.021 -1.3725,1.32445 l -1.09051,2.16026 1.3725,-1.32445 c 0.75487,-0.72846 1.2456,-1.70056 1.09051,-2.16026 z m 2.60182,-4.50701 c 0.5071,-4.91515 0.21811,-10.59598 -1.01465,-19.93745 -0.28244,-2.14029 -0.16377,-2.62318 0.6445,-2.62318 1.0847,0 1.33627,-0.94798 0.40441,-1.5239 -1.1478,-0.70938 -1.83042,2.03814 -1.7258,6.94616 0.0583,2.73942 0.29552,4.86376 0.52691,4.72076 0.56601,-0.3498 0.22302,15.67881 -0.37738,17.63183 -0.36027,1.17218 -0.29899,1.38053 0.25505,0.86684 0.40112,-0.37191 0.98024,-3.1084 1.28696,-6.08106 z m -6.44426,4.54324 c 0.22815,-0.36905 0.10568,-0.9801 -0.27219,-1.3579 -0.37777,-0.37777 -0.68687,-1.3257 -0.68687,-2.10647 0,-0.78078 -0.27776,-1.41962 -0.61723,-1.41962 -0.33947,0 -0.61721,0.63884 -0.61721,1.41962 0,0.78077 -0.34486,1.76446 -0.76637,2.18595 -0.61033,0.61035 -0.57893,0.88488 0.15443,1.34845 1.22805,0.7764 2.29894,0.74967 2.80556,-0.07 z m -5.34901,-6.1067 c -0.72526,-2.4207 -0.82016,-2.50493 -1.31506,-1.16708 -0.34122,0.92239 -0.29909,1.52001 0.11687,1.65867 0.35766,0.1192 0.65031,0.94357 0.65031,1.83183 0,1.15368 0.18989,1.42517 0.66473,0.95033 0.47487,-0.47484 0.44146,-1.41008 -0.11687,-3.27375 z m 8.71048,1.81032 c 0,-0.28311 -0.30026,-0.70031 -0.66723,-0.92712 -0.632,-0.39061 -0.47013,-1.90739 0.46313,-4.33945 0.31987,-0.83355 0.18196,-0.99955 -0.58591,-0.70492 -0.83934,0.32209 -1.04616,-0.19269 -1.25901,-3.13325 -0.13996,-1.93524 -0.1178,-1.0189 0.0495,2.03634 0.16726,3.05524 0.29958,6.15942 0.29414,6.8982 -0.007,0.89521 0.27618,1.23344 0.84779,1.01409 0.47173,-0.18103 0.8577,-0.56076 0.8577,-0.84389 z m 1.07297,-8.12784 c -0.12504,-1.79361 -0.22862,-0.48361 -0.23025,2.9111 -0.002,3.39471 0.10078,4.8622 0.22745,3.26109 0.12667,-1.60112 0.12807,-4.37859 0.002,-6.17219 z m -6.62794,6.94238 c 0,-0.32881 0.37786,-0.45284 0.83971,-0.27559 1.10481,0.42393 1.61637,-2.72478 1.61292,-9.92787 -0.002,-3.8124 -0.19036,-5.26456 -0.60098,-4.62916 -0.4503,0.69681 -0.60529,0.39142 -0.62654,-1.23444 -0.0243,-1.85595 -0.12247,-1.99783 -0.69816,-1.00719 -0.36844,0.6342 -0.52532,2.23123 -0.34857,3.549 0.17683,1.31778 0.07,2.39595 -0.23712,2.39595 -0.30716,0 -0.55848,-2.08312 -0.55848,-4.62913 0,-3.1155 -0.23547,-4.62916 -0.72008,-4.62916 -0.39607,0 -0.53671,0.18336 -0.31255,0.40757 0.22418,0.22418 -0.1346,0.78725 -0.79709,1.25131 -0.66256,0.46409 -1.05266,1.23993 -0.86687,1.7241 0.18592,0.48417 -0.10358,1.51048 -0.64306,2.2807 -1.21007,1.7276 -1.26088,2.9774 -0.12107,2.9774 0.98845,0 1.63086,1.35486 1.56036,3.29087 -0.0268,0.73605 -0.18872,0.99107 -0.36005,0.56673 -0.46991,-1.1646 -2.06144,-0.92507 -2.05066,0.30861 0.007,0.82763 0.13157,0.88758 0.53159,0.25644 0.57576,-0.9083 1.21863,0.76511 1.38345,3.60119 0.0702,1.2092 0.18102,1.07565 0.51188,-0.61722 0.40682,-2.0816 0.44018,-2.031 0.91569,1.38874 0.27142,1.95195 0.73924,3.549 1.03959,3.549 0.30037,0 0.54611,-0.26902 0.54611,-0.59785 z m 2.87764,-1.4081 c -0.17123,-0.42433 -0.31131,-0.0772 -0.31131,0.77153 0,0.84867 0.13997,1.19586 0.31131,0.77152 0.17123,-0.42433 0.17123,-1.11871 0,-1.54305 z m -4.92488,0.0385 c -0.19712,-0.49236 -0.3433,-0.34611 -0.3729,0.37292 -0.0268,0.65064 0.11897,1.01519 0.32416,0.81009 0.20506,-0.20505 0.22699,-0.73744 0.0488,-1.18301 z m -55.94185,-1.39589 c -0.78104,-0.83141 -1.26263,-1.92204 -1.07015,-2.42364 0.30378,-0.79161 0.09,-0.80271 -1.61926,-0.084 -2.58934,1.08874 -2.57448,2.46985 0.0268,2.49726 1.09786,0.0117 2.33384,0.35873 2.74663,0.77152 1.41148,1.41148 1.33877,0.75345 -0.0842,-0.76114 z m -6.65209,-1.77468 c 0.60098,-0.21322 1.26888,-1.26895 1.48425,-2.34584 0.34182,-1.7091 0.48617,-1.82863 1.13567,-0.94039 1.00128,1.36933 1.98369,1.28271 2.45963,-0.21695 0.21555,-0.67894 0.65771,-1.23445 0.98269,-1.23445 1.12877,0 1.74344,-2.91172 1.10374,-5.22849 -0.34129,-1.23611 -0.51149,-2.71792 -0.37819,-3.29293 0.25663,-1.10701 0.66482,-0.39553 2.32393,4.05055 0.60667,1.62577 1.05981,1.98761 2.37084,1.89313 0.89146,-0.0641 2.26207,0.23025 3.04577,0.65433 2.04841,1.10854 4.85548,0.33692 5.30613,-1.45858 0.20132,-0.80171 0.20832,-1.86827 0.0163,-2.3701 -0.19245,-0.50185 -0.0534,-1.09581 0.30917,-1.31992 0.98061,-0.60606 0.80327,-2.27366 -0.53678,-5.04724 -0.95227,-1.97098 -1.70719,-2.62875 -3.70331,-3.22681 -1.37899,-0.41314 -2.50724,-1.01778 -2.50724,-1.34362 0,-0.75669 0.22464,-0.74482 2.10341,0.11127 1.17846,0.53694 1.98952,0.51919 3.42375,-0.0749 2.18546,-0.90524 2.37325,-1.98663 0.64504,-3.71484 -2.08277,-2.08277 -4.06088,-1.46227 -8.45457,2.65204 l -1.97377,1.84825 1.93563,2.84191 c 1.06462,1.56306 3.03912,4.16275 4.38783,5.77709 1.3487,1.61435 2.28565,3.10171 2.08214,3.30523 -0.20342,0.20342 -1.28344,-0.70071 -2.39984,-2.00936 -3.54786,-4.15891 -7.11851,-7.62574 -7.85406,-7.62574 -0.39154,0 -1.80218,1.68689 -3.13477,3.74866 -2.00235,3.09802 -2.32407,4.00865 -1.85347,5.24636 0.31317,0.82374 0.42165,1.49768 0.24107,1.49768 -0.18056,0 0.10404,0.61731 0.63251,1.37178 0.52845,0.75447 0.94852,1.93491 0.93349,2.62318 -0.021,0.9557 -0.34903,0.70588 -1.38873,-1.0571 -0.74878,-1.2697 -1.58502,-2.31127 -1.85831,-2.31458 -0.49474,-0.007 -2.9191,5.07971 -3.82207,8.0178 -0.44909,1.46119 -0.41261,1.49072 0.68791,0.55672 0.63919,-0.54247 1.65386,-1.16085 2.25481,-1.37416 z m 8.31994,0.57545 c -1.26295,-0.95873 -1.40595,-2.84906 -0.3086,-4.07964 0.65635,-0.73604 0.61028,-0.7432 -0.30861,-0.0478 -1.8064,1.3669 -1.03256,5.03014 1.04927,4.96708 0.35645,-0.0117 0.1619,-0.38859 -0.43206,-0.83957 z m 5.68757,-1.5691 c 0.35141,-0.65662 0.617,-1.55929 0.5902,-2.00595 -0.0336,-0.56025 -0.1542,-0.52497 -0.38913,0.11361 -0.18733,0.5092 -0.76386,1.41187 -1.28139,2.00597 -0.56486,0.6484 -0.6647,1.08013 -0.24977,1.08013 0.38013,0 0.97868,-0.53725 1.33009,-1.19388 z m 4.83603,0.45321 c 0.8384,-0.83843 1.00392,-3.96153 0.23512,-4.43667 -0.27805,-0.17193 -0.39326,0.45249 -0.25605,1.3874 0.26263,1.78942 -0.5598,2.83367 -2.63312,3.3433 -1.00464,0.24695 -0.94147,0.31677 0.33947,0.37504 0.86565,0.0394 1.9072,-0.26172 2.31458,-0.66907 z m -8.51762,-0.45734 c 0,-0.72826 -1.2038,-1.50727 -1.64593,-1.06513 -0.44211,0.44211 0.3369,1.6459 1.06513,1.6459 0.31943,0 0.5808,-0.26134 0.5808,-0.58077 z m 59.85133,-2.1967 c 0,-0.33947 -0.26925,-0.20062 -0.59832,0.3086 -0.32908,0.5092 -0.59831,1.20358 -0.59831,1.54305 0,0.33947 0.26923,0.20062 0.59831,-0.3086 0.32907,-0.50921 0.59832,-1.20359 0.59832,-1.54305 z m -59.27,-1.15665 c -1.2919,-2.18961 -1.81811,-2.70469 -1.81347,-1.77514 0.005,0.80092 2.51839,4.62873 2.83353,4.31362 0.16516,-0.16516 -0.29379,-1.30756 -1.02006,-2.53848 z m 5.51893,0.0765 c -1.4227,-1.18276 -2.7482,-1.39264 -3.28722,-0.52047 -0.19012,0.30781 0.20506,0.41558 0.87842,0.23948 0.92197,-0.24109 1.38818,0.11081 1.88793,1.42538 0.53162,1.39828 0.77871,1.56552 1.24189,0.84065 0.41335,-0.64686 0.20762,-1.21294 -0.72102,-1.98504 z m 53.5187,-4.75126 c 0.27142,-1.22021 0.45387,-1.33895 0.94835,-0.61723 0.71916,1.04966 0.41085,-1.05715 -1.1789,-8.05603 -0.67861,-2.98766 -1.12644,-4.08198 -1.26291,-3.08611 -0.26722,1.9499 -1.05999,2.80627 -1.67567,1.81009 -0.33366,-0.53988 -0.21741,-0.61196 0.39324,-0.24392 0.73654,0.44389 0.74036,0.36644 0.0254,-0.51505 -0.4628,-0.57063 -1.10642,-0.87375 -1.43028,-0.6736 -0.32387,0.20016 -0.73462,-0.19362 -0.91283,-0.87508 -0.3188,-1.21907 -4.59959,-5.08248 -5.57461,-5.03109 -0.2745,0.014 0.75076,1.15294 2.27837,2.52992 1.52763,1.37695 2.37411,2.38794 1.88108,2.24662 -1.12418,-0.32225 -3.73273,1.88679 -3.73273,3.16103 0,0.67784 0.27662,0.55696 0.96083,-0.4199 1.24371,-1.77563 2.6299,-1.73329 5.1943,0.15863 2.94424,2.17218 4.27396,4.43653 3.95161,6.72911 -0.14883,1.05851 -0.37565,3.31327 -0.50402,5.01064 -0.12831,1.69734 -0.11268,2.25285 0.0345,1.23444 0.14744,-1.01843 0.41928,-2.53155 0.6041,-3.36251 z m -72.75305,0.68708 c -1.96883,-0.33769 -2.68731,0.91184 -1.36466,2.37334 l 1.14946,1.27014 0.70975,-1.71846 c 0.62748,-1.51928 0.57016,-1.74241 -0.49455,-1.92502 z m 4.07565,-1.08871 c -0.49285,-1.28437 -2.0515,-1.04759 -2.0515,0.31166 0,0.85872 0.32199,1.09245 1.19173,0.865 0.70858,-0.18523 1.05715,-0.66233 0.85977,-1.17666 z m 66.86857,-0.40209 c -0.17122,-0.42433 -0.31133,-0.0772 -0.31133,0.77153 0,0.84867 0.1402,1.19586 0.31133,0.77153 0.17123,-0.42434 0.17123,-1.11872 0,-1.54306 z m 0.42142,-4.50145 c -0.20108,-0.52385 -0.49786,-0.82007 -0.65964,-0.65829 -0.1619,0.16189 -0.11104,0.59038 0.11267,0.95245 0.60861,0.98475 0.96433,0.79343 0.54697,-0.29416 z m -2.95724,-2.07988 c -0.22814,-0.36904 -0.81727,-0.671 -1.30932,-0.671 -0.73635,0 -0.75994,0.21578 -0.13344,1.21905 0.44344,0.71008 0.99009,0.99022 1.30933,0.67098 0.30142,-0.30142 0.36142,-0.84998 0.1332,-1.21903 z m -68.76623,-0.0539 c 0.33175,0 0.4287,-0.2823 0.21555,-0.62729 -0.21321,-0.34502 -0.64623,-0.46749 -0.96225,-0.27219 -0.31602,0.19525 -0.57457,0.0609 -0.57457,-0.29853 0,-0.35951 -0.27774,-0.65365 -0.61721,-0.65365 -0.33949,0 -0.61723,0.5852 -0.61723,1.30046 0,0.93228 0.27641,1.19442 0.97632,0.92584 0.53696,-0.20598 1.24772,-0.37464 1.57946,-0.37464 z m 11.39597,-2.83822 c 0.81498,0.31273 0.88889,0.22021 0.34628,-0.4336 -0.42326,-0.51 -0.46892,-1.05214 -0.11827,-1.40287 0.35076,-0.35076 -0.11174,-0.57168 -1.19663,-0.57168 -1.3586,0 -1.61773,0.18149 -1.11839,0.7831 0.47071,0.56717 0.32857,1.16285 -0.51541,2.16026 l -1.1653,1.37717 1.36573,-1.15499 c 0.80048,-0.67694 1.79462,-0.99042 2.4019,-0.75739 z m 55.48539,0.98656 c 0.20972,-0.33947 -0.0516,-0.61723 -0.5808,-0.61723 -0.52924,0 -0.96225,0.27776 -0.96225,0.61723 0,0.33947 0.26134,0.61721 0.58079,0.61721 0.31943,0 0.75245,-0.27774 0.96226,-0.61721 z m 7.29232,-3.64415 c -0.22488,-0.86034 -0.002,-1.14979 0.82931,-1.08014 0.85606,0.0716 1.18438,-0.40005 1.33007,-1.91081 0.12877,-1.33625 -0.0772,-2.01253 -0.61724,-2.02559 -0.5214,-0.0117 -0.40434,-0.32748 0.32808,-0.88241 0.8546,-0.64751 1.0391,-1.31635 0.73943,-2.6807 -0.32134,-1.46309 -0.72433,-1.8187 -2.06455,-1.82187 -1.71337,-0.005 -2.56507,0.74148 -2.58163,2.25985 -0.007,0.68736 0.22465,0.65535 1.1193,-0.1542 1.75564,-1.58882 2.03142,-1.21868 0.88429,1.18688 -1.04106,2.1831 -1.03564,2.22227 0.47288,3.4199 l 1.52602,1.21154 -1.54305,-0.0935 c -3.51687,-0.21321 -4.06347,0.5937 -1.75722,2.59391 1.64793,1.42923 1.71372,1.42811 1.33431,-0.0233 z m -47.72017,-0.0593 c 0,-0.33947 -0.27774,-0.61723 -0.61723,-0.61723 -0.33947,0 -0.61721,0.27776 -0.61721,0.61723 0,0.33947 0.27774,0.61721 0.61721,0.61721 0.33949,0 0.61723,-0.27774 0.61723,-0.61721 z m 20.83115,-0.1542 c -0.14137,-0.42433 -0.62752,-0.77152 -1.08016,-0.77152 -0.4526,0 -0.93867,0.34719 -1.08013,0.77152 -0.15303,0.45896 0.28463,0.77153 1.08013,0.77153 0.79553,0 1.23314,-0.31257 1.08016,-0.77153 z m 20.95702,-1.93139 c -0.7482,-1.14715 -1.59141,-1.94991 -1.87386,-1.78396 -0.41151,0.24182 2.46616,3.86967 3.06947,3.86967 0.0905,0 -0.44743,-0.93858 -1.19561,-2.08571 z m -53.82395,0.23405 c 0.61444,-0.67893 0.97828,-1.23444 0.80855,-1.23444 -0.16983,0 -0.81132,0.55551 -1.42576,1.23444 -0.61443,0.67894 -0.97828,1.23442 -0.80855,1.23442 0.16983,0 0.81133,-0.55548 1.42576,-1.23442 z m 56.47555,-1.33048 c 0,-1.13696 -0.6554,-2.80696 -1.57448,-4.01192 -1.69519,-2.22253 -1.19308,-2.86486 0.64864,-0.8298 1.59138,1.75846 2.19791,1.5266 1.46985,-0.5619 -0.52729,-1.51254 -0.93662,-1.7807 -2.59106,-1.69735 -1.73168,0.0872 -1.97357,0.31876 -2.0381,1.95064 -0.0404,1.01841 0.46472,2.61546 1.12217,3.54902 0.65745,0.93354 1.02664,1.69735 0.8204,1.69735 -0.53354,0 1.12004,1.7998 1.67966,1.82819 0.2546,0.014 0.46292,-0.85299 0.46292,-1.92423 z m -45.31573,-1.60287 c -0.71211,-0.71211 -1.07745,0.40316 -0.59183,1.80671 l 0.49658,1.43525 0.22698,-1.44174 c 0.12481,-0.79296 0.0656,-1.60305 -0.13157,-1.80022 z m 11.63407,1.76884 c 0.51921,-0.84011 -1.21627,-1.99167 -2.34742,-1.5576 -1.19558,0.45879 -1.30585,1.26302 -0.23258,1.69613 1.24226,0.50124 2.21688,0.44892 2.57996,-0.13857 z m 35.84192,-2.18454 c 0,-1.00252 -0.21858,-1.30231 -0.67401,-0.92435 -0.37071,0.30765 -0.8201,0.4133 -0.99863,0.23475 -0.17846,-0.17846 -0.19385,0.35967 -0.0341,1.19602 0.3632,1.9 1.70656,1.50134 1.70656,-0.50642 z m -19.27531,0.30786 c 0.27445,-1.04953 0.13997,-1.11156 -1.14309,-0.52696 -0.7998,0.36441 -1.30761,0.89969 -1.12849,1.18952 0.58737,0.95038 1.95404,0.55177 2.27158,-0.66256 z m 5.09592,0.59927 c -0.20062,-0.32466 -0.77253,-0.43381 -1.27086,-0.24259 -1.27585,0.48961 -1.1255,0.83286 0.36481,0.83286 0.69897,0 1.1067,-0.26564 0.90605,-0.59027 z m -13.70517,-0.69217 c -0.36586,-0.36585 -1.69329,-0.89705 -2.94982,-1.18046 -2.65179,-0.59808 -2.39716,-0.0634 0.46628,0.979 2.6176,0.95295 3.28954,1.00747 2.48354,0.20156 z m 18.93488,-1.13597 c 0,-0.9976 -0.73383,-2.51935 -1.21487,-2.51935 -0.25607,0 -0.33287,0.69438 -0.17053,1.54305 0.27581,1.44283 1.3855,2.22478 1.3855,0.9763 z m -31.17392,-0.66063 c 0.21625,-0.34987 -0.0315,-0.45335 -0.5808,-0.24256 -1.06928,0.41031 -1.26491,0.8527 -0.37709,0.8527 0.31945,0 0.75048,-0.27457 0.95789,-0.61014 z m -12.31462,-1.28257 c 0.50678,-0.82 0.3822,-0.92185 -1.7551,-1.43504 -1.59204,-0.38225 -1.67628,-0.31549 -1.05842,0.83901 0.72478,1.35426 2.15733,1.65773 2.81352,0.59603 z m 17.25674,0.0411 c 0.45751,-0.74027 -1.3634,-0.74027 -3.0861,0 -1.04055,0.44715 -0.9251,0.53726 0.73511,0.57384 1.08323,0.0238 2.14118,-0.23437 2.35099,-0.57384 z m 21.60267,0 c -0.20972,-0.33947 -0.65922,-0.61721 -0.99869,-0.61721 -0.33947,0 -0.44557,0.27774 -0.23575,0.61721 0.20971,0.33947 0.6592,0.61723 0.99867,0.61723 0.33946,0 0.44556,-0.27776 0.23577,-0.61723 z"
       id="path5213" />
  </g>
</svg>
