<?xml version="1.0" encoding="UTF-8" standalone="no"?>
<!-- Created with Inkscape (http://www.inkscape.org/) -->

<svg
   width="108.73135mm"
   height="28.732582mm"
   viewBox="0 0 108.73136 28.732581"
   version="1.1"
   id="svg5"
   inkscape:version="1.1 (c4e8f9ed74, 2021-05-24)"
   sodipodi:docname="ornament5.svg"
   xmlns:inkscape="http://www.inkscape.org/namespaces/inkscape"
   xmlns:sodipodi="http://sodipodi.sourceforge.net/DTD/sodipodi-0.dtd"
   xmlns="http://www.w3.org/2000/svg"
   xmlns:svg="http://www.w3.org/2000/svg">
  <sodipodi:namedview
     id="namedview7"
     pagecolor="#ffffff"
     bordercolor="#666666"
     borderopacity="1.0"
     inkscape:pageshadow="2"
     inkscape:pageopacity="0.0"
     inkscape:pagecheckerboard="0"
     inkscape:document-units="mm"
     showgrid="false"
     inkscape:zoom="0.94615212"
     inkscape:cx="-210.85404"
     inkscape:cy="74.512331"
     inkscape:window-width="2506"
     inkscape:window-height="1403"
     inkscape:window-x="1974"
     inkscape:window-y="0"
     inkscape:window-maximized="1"
     inkscape:current-layer="layer1" />
  <defs
     id="defs2" />
  <g
     inkscape:label="Layer 1"
     inkscape:groupmode="layer"
     id="layer1"
     transform="translate(-219.39419,-133.90122)">
    <path
       style="fill:#000000;stroke-width:0.456252"
       d="m 249.42311,162.40928 c -0.0847,-0.0847 -6.2085,-0.18618 -13.60858,-0.22569 -7.40009,-0.0395 -14.12196,-0.17996 -14.93751,-0.31215 l -1.48283,-0.24035 v -13.86493 c 0,-13.56077 0.02,-13.86494 0.91251,-13.86494 0.8911,0 0.91251,0.30417 0.91251,12.95845 v 12.95843 l 6.27348,0.20024 c 3.45041,0.11019 26.95884,0.23706 52.24095,0.28205 l 45.96747,0.0817 v -1.0478 c 0,-0.94941 -0.17347,-1.03123 -1.84778,-0.87157 -1.27461,0.12157 -2.10631,-0.0578 -2.68115,-0.57796 -0.74122,-0.67078 -0.86323,-0.67633 -1.10354,-0.05 -0.29869,0.77837 -3.94884,1.03155 -3.94884,0.27391 0,-0.23659 0.40815,-1.12194 0.90701,-1.96744 0.90519,-1.53417 0.90519,-1.54086 0,-3.31632 -1.14141,-2.23881 -1.18867,-4.18312 -0.10864,-4.46537 0.76042,-0.19872 0.76042,-0.21117 0,-0.26158 -1.06062,-0.0704 -1.01794,-1.57824 0.11537,-4.07544 l 0.89373,-1.96937 -0.96521,-1.30553 c -1.67574,-2.26658 -1.00049,-2.74015 3.90711,-2.74015 2.40111,0 4.44764,0.20362 4.60496,0.45818 0.15571,0.25198 -0.15192,1.23232 -0.68372,2.17849 -0.90132,1.60368 -0.91889,1.81237 -0.25904,3.07778 0.38929,0.7466 0.71222,1.66544 0.71762,2.04185 0.007,0.47368 0.11415,0.52028 0.3489,0.15123 0.29648,-0.46607 0.38465,-4.76017 0.17361,-8.45755 l -0.0704,-1.23433 -51.28238,-0.0172 c -28.20531,-0.009 -51.61109,-0.14313 -52.01283,-0.29733 -0.40174,-0.15416 -0.73045,-0.65426 -0.73045,-1.11135 0,-0.79948 2.01868,-0.82883 53.14064,-0.77228 l 53.14064,0.0588 0.12692,13.71025 c 0.0698,7.54063 0.0504,13.97542 -0.0433,14.29953 -0.13744,0.47626 -7.67914,0.5778 -39.31677,0.52932 -21.53062,-0.0329 -39.21585,-0.12915 -39.30048,-0.21384 z m 74.25302,-6.06295 c -0.62038,-1.95465 -5.68328,-1.5287 -5.72434,0.48159 -0.0155,0.73095 1.48449,0.29176 2.25577,-0.66074 l 0.81213,-1.00294 0.30914,0.97404 c 0.17003,0.5357 0.7614,1.04653 1.31414,1.13516 1.2973,0.208 1.37212,0.14089 1.03316,-0.92711 z m 2.01008,-2.71217 -0.0155,-3.99222 -0.85355,2.47226 c -0.79173,2.29324 -0.80106,2.58232 -0.12864,3.99221 0.39863,0.83598 0.78942,1.51995 0.86842,1.51995 0.079,0 0.13691,-1.79648 0.12864,-3.9922 z m -3.54382,-0.45625 c -0.20998,-1.10518 -0.15192,-1.18323 0.48772,-0.65493 0.6151,0.5081 0.8007,0.46038 1.21416,-0.31219 0.72957,-1.36321 0.59282,-2.2069 -0.39977,-2.46648 -1.12553,-0.29432 -1.06624,-2.20717 0.0776,-2.50632 0.44561,-0.11657 0.81018,-0.40343 0.81018,-0.63755 0,-0.57108 -1.27922,-3.0444 -2.39513,-4.6309 l -0.90373,-1.28486 -1.13143,1.05674 c -1.15897,1.08245 -2.06746,2.5897 -2.59661,4.308 -0.22606,0.73401 -0.0736,1.02889 0.62656,1.21199 1.25405,0.32793 1.26488,2.1524 0.0121,2.1524 -1.05234,0 -1.09749,0.24568 -0.40846,2.22221 0.32766,0.93991 0.76671,1.4028 1.25469,1.32279 0.42457,-0.0697 0.69613,0.13967 0.62514,0.48161 -0.0847,0.40779 0.16278,0.51317 0.76005,0.32362 0.48706,-0.15468 1.01762,-0.0674 1.17902,0.19374 0.56592,0.91568 1.02324,0.46259 0.78715,-0.77987 z m -1.59869,-0.57032 c -0.12657,-0.3764 -0.45611,-2.42117 -0.73243,-4.5439 -0.54273,-4.16938 -0.1521,-5.40141 1.51018,-4.76352 0.71451,0.27419 0.76607,0.73238 0.47689,4.23711 -0.34923,4.23228 -0.85259,6.26648 -1.25464,5.07031 z m 5.58474,-4.67659 c -0.0271,-1.38697 -0.0566,-1.41373 -0.45713,-0.41412 -0.23552,0.58779 -0.31305,1.25505 -0.17227,1.48281 0.46713,0.75583 0.65866,0.43063 0.62942,-1.06869 z m -2.25233,-8.15435 c 0,-0.22023 -0.51329,-0.40039 -1.14064,-0.40039 -1.24039,0 -1.44389,0.42675 -0.60398,1.26665 0.55947,0.55947 1.74462,-0.029 1.74462,-0.86626 z m -4.10628,0.28398 c 0.48425,-0.58348 0.35796,-0.68437 -0.85664,-0.68437 -1.35743,0 -1.78183,0.40322 -1.12046,1.06458 0.50896,0.50897 1.37783,0.34187 1.9771,-0.38021 z m -54.52074,18.14059 c -0.752,-0.11054 -1.52192,-0.43906 -1.71095,-0.73009 -0.25923,-0.39913 -0.43034,-0.39551 -0.69646,0.0155 -0.4479,0.69055 -9.22853,0.74887 -9.22853,0.0614 0,-0.25542 0.33146,-1.02549 0.73656,-1.71126 0.66523,-1.12613 0.669,-1.37747 0.0391,-2.59557 -0.38358,-0.74177 -0.83702,-2.09273 -1.00761,-3.00212 -0.25823,-1.37649 -0.16934,-1.6898 0.53119,-1.8704 0.75419,-0.19444 0.75864,-0.2224 0.0429,-0.26983 -1.07261,-0.0711 -1.02,-1.42191 0.16244,-4.1706 l 0.96091,-2.23368 -0.95486,-1.54499 c -0.52517,-0.84974 -0.8207,-1.67914 -0.65673,-1.84311 0.46308,-0.4631 8.35858,-0.35101 8.35858,0.11864 0,0.22924 -0.87258,1.05976 -1.93908,1.84559 l -1.93906,1.42882 -0.92965,-1.16122 c -0.90827,-1.1345 -2.03601,-1.55717 -2.03601,-0.76306 0,0.21897 0.95766,1.28087 2.12811,2.35975 1.94089,1.78905 2.16027,1.88446 2.49379,1.08468 0.20113,-0.48232 1.07081,-1.68362 1.93262,-2.66956 l 1.56693,-1.79262 1.4599,1.33637 c 0.80294,0.735 1.71021,1.90557 2.01614,2.60127 l 0.55626,1.2649 1.88384,-1.36465 c 2.04355,-1.48033 3.29342,-3.21829 2.31447,-3.21829 -0.30876,0 -1.11415,0.52957 -1.78972,1.17681 l -1.22833,1.1768 -2.07647,-1.58502 c -1.14207,-0.87174 -1.9522,-1.70928 -1.80032,-1.86118 0.53059,-0.53057 8.79291,-0.30479 8.79291,0.2403 0,0.28404 -0.40479,1.17141 -0.89954,1.97192 -0.8952,1.44848 -0.8952,1.46686 0,3.82283 1.13296,2.98167 1.12518,3.20881 -0.12709,3.71213 l -1.02657,0.41262 1.02657,0.029 c 1.31595,0.0371 1.33944,1.18562 0.084,4.1041 l -0.94263,2.19121 0.94093,1.5434 c 0.51751,0.84887 0.94169,1.69737 0.94263,1.88557 0.003,0.56211 -3.42106,0.38694 -4.01333,-0.20531 -0.42582,-0.42583 -0.66916,-0.42583 -1.095,0 -0.30112,0.30114 -0.76308,0.51674 -1.02657,0.47915 -0.26349,-0.0376 -1.09433,-0.15882 -1.84633,-0.2693 z m -2.95462,-1.96696 c 0.60721,-1.13459 1.2172,-1.13353 1.57783,0.003 0.25252,0.79559 0.67454,0.88354 3.9089,0.81458 1.9942,-0.0424 3.62582,-0.14606 3.62582,-0.23016 0,-0.69493 -1.50218,-2.81648 -1.84444,-2.60494 -0.60741,0.3754 -0.54877,1.15349 0.0764,1.01456 0.2823,-0.0628 0.60739,0.14261 0.72241,0.45624 0.14278,0.38945 -0.31236,0.57032 -1.43506,0.57032 h -1.64419 l 0.97787,-1.93907 c 1.23031,-2.43968 1.29054,-2.49996 1.75199,-1.75334 0.52126,0.84343 1.20922,0.31915 1.79818,-1.37036 0.43586,-1.25028 0.38811,-1.44188 -0.41133,-1.65093 -1.06841,-0.27941 -1.18952,-1.60673 -0.22002,-2.41134 0.83392,-0.6921 0.86663,-1.51135 0.11399,-2.85778 -0.31367,-0.56121 -0.60384,-1.08811 -0.6448,-1.1709 -0.041,-0.0828 -0.62422,0.20969 -1.29612,0.64993 l -1.22163,0.80045 1.18205,0.61934 c 1.46569,0.76795 1.48635,1.34418 0.0943,2.63419 -0.5982,0.5544 -1.41739,2.14226 -1.8204,3.52859 -0.40302,1.38632 -0.99148,2.73247 -1.30768,2.99142 -0.64511,0.52831 -5.28934,0.49693 -6.15163,-0.0416 -0.30685,-0.19162 -0.7802,-1.17394 -1.05188,-2.1829 -0.98718,-3.6661 -3.18085,-6.37047 -3.18085,-3.92138 0,0.73836 -0.31105,1.20678 -0.90441,1.36195 -0.81203,0.21234 -0.8517,0.39253 -0.38851,1.76415 0.66332,1.96427 0.6906,1.98874 1.48349,1.3307 0.5559,-0.46135 0.82744,-0.24425 1.60791,1.28557 1.1784,2.30986 1.17637,2.33328 -0.2016,2.33328 -0.62734,0 -1.14063,-0.20531 -1.14063,-0.45625 0,-0.25094 0.19887,-0.45624 0.44193,-0.45624 0.24308,0 0.31949,-0.31914 0.16986,-0.70919 -0.21023,-0.54783 -0.46648,-0.38962 -1.12631,0.69541 -0.4698,0.77252 -0.85402,1.45094 -0.85383,1.50762 1.9e-4,0.0567 1.53844,0.14382 3.41834,0.19374 2.97462,0.079 3.47972,-0.0247 3.89386,-0.79844 z m 0.26948,-2.80131 c 0.1847,-0.29886 0.0942,-0.62394 -0.20121,-0.72239 -0.29536,-0.0985 -0.53703,-0.46273 -0.53703,-0.8095 0,-0.34676 -0.63769,-1.35677 -1.4171,-2.24447 -0.86407,-0.98412 -1.30975,-1.89375 -1.14201,-2.33086 0.49706,-1.2953 1.8308,-0.46787 2.63686,1.63587 0.91696,2.39315 1.0375,1.89874 0.33533,-1.37538 -0.63259,-2.94962 -0.26909,-4.55994 1.02931,-4.55994 0.94883,0 0.96212,0.10468 0.64679,5.08806 -0.24105,3.80945 -0.18177,5.17469 0.23589,5.43282 1.01128,0.62502 1.72397,-0.0752 2.50635,-2.46221 0.42461,-1.29552 1.16833,-2.92096 1.65274,-3.61209 0.78653,-1.12219 0.80255,-1.28658 0.14985,-1.53703 -0.40198,-0.15434 -1.34047,-0.15847 -2.08555,-0.0104 -1.46553,0.29312 -1.66832,-0.0926 -0.85126,-1.61938 0.42502,-0.79415 0.29185,-1.15221 -0.85524,-2.29929 -1.3332,-1.3332 -1.38122,-1.3439 -2.56192,-0.57027 -1.41287,0.92574 -1.98594,2.68606 -1.18761,3.64799 0.60848,0.73319 0.42685,0.81845 -1.47741,0.6935 -1.98657,-0.13037 -2.18236,0.3147 -1.04953,2.38554 0.58183,1.06361 1.20628,2.44711 1.38765,3.07445 0.35515,1.22831 1.50773,2.73752 2.09067,2.73752 0.19723,0 0.50974,-0.24452 0.69444,-0.5434 z m 1.54303,-2.18185 c 0,-1.95017 1.17277,-4.5748 2.04418,-4.5748 1.25796,0 1.28402,1.30542 0.0552,2.76579 -0.65277,0.77577 -1.18685,1.69061 -1.18685,2.03294 0,0.34235 -0.20533,0.74935 -0.45627,0.90442 -0.26658,0.16486 -0.45624,-0.30431 -0.45624,-1.12835 z m -8.13104,-5.25918 c 0.49348,-0.62734 1.32063,-1.14063 1.83814,-1.14063 0.87734,0 0.86254,-0.0617 -0.21914,-0.91251 -0.63803,-0.50188 -1.36093,-0.9125 -1.60643,-0.9125 -0.60767,0 -2.03564,3.09232 -1.68785,3.65507 0.41733,0.67526 0.6901,0.56302 1.67528,-0.68943 z m 7.6678,-1.02656 c 0.003,-0.31369 -0.19834,-0.57032 -0.44928,-0.57032 -0.25093,0 -0.4531,0.56461 -0.44926,1.25469 0.005,0.97773 0.10467,1.10361 0.44926,0.57032 0.24327,-0.37641 0.44544,-0.94102 0.44928,-1.25469 z m -4.67911,-5.40851 c -0.15157,-0.15157 -0.54514,-0.16778 -0.87448,-0.036 -0.36398,0.14572 -0.25587,0.25377 0.27564,0.27565 0.48096,0.0198 0.75044,-0.0879 0.59884,-0.23962 z m 9.58131,0 c -0.15157,-0.15157 -0.54514,-0.16778 -0.87448,-0.036 -0.36398,0.14572 -0.25587,0.25377 0.27564,0.27565 0.48096,0.0198 0.75044,-0.0879 0.59884,-0.23962 z m 6.05486,18.54125 c 0,-0.24242 0.33028,-1.13338 0.73396,-1.97991 0.65563,-1.37488 0.66151,-1.68085 0.055,-2.86706 -1.22341,-2.39256 -1.40178,-4.15835 -0.47458,-4.69768 0.76956,-0.44763 0.77146,-0.4816 0.0278,-0.49451 -1.07095,-0.0186 -1.02446,-1.37244 0.14002,-4.07948 l 0.93852,-2.18164 -0.9599,-1.62688 c -0.52793,-0.8948 -0.79629,-1.72099 -0.59632,-1.83598 0.70901,-0.40772 7.8076,-0.37647 8.06219,0.0355 0.14227,0.23022 -0.58814,1.09914 -1.62319,1.93093 l -1.8819,1.51234 -1.04831,-1.21874 c -1.02603,-1.19283 -2.00457,-1.59974 -2.00457,-0.83356 0,0.48854 3.70554,4.17735 4.19631,4.17735 0.20143,0 0.36622,-0.26571 0.36622,-0.59049 0,-0.58137 3.58229,-4.70675 3.79645,-4.37203 0.0605,0.0945 0.88364,1.05623 1.82923,2.13711 1.25705,1.43689 1.63978,2.21562 1.42364,2.89661 -0.27663,0.87156 -0.24142,0.88403 0.54787,0.19414 0.46392,-0.4055 1.61342,-1.37095 2.55443,-2.14546 1.63512,-1.34575 2.24942,-2.6824 1.23281,-2.6824 -0.26297,0 -0.95669,0.55637 -1.5416,1.23636 l -1.06346,1.23636 -2.05995,-1.57856 c -1.31823,-1.01018 -1.87203,-1.69922 -1.53809,-1.91374 0.79756,-0.51233 7.95696,-0.41259 8.28327,0.11536 0.15796,0.25551 -0.16296,1.19294 -0.7132,2.08315 -0.94914,1.5357 -0.9638,1.70463 -0.28664,3.29951 1.35245,3.18533 1.38075,3.70212 0.22795,4.16439 l -1.05826,0.42434 1.02657,0.029 c 1.3208,0.0373 1.33901,1.1866 0.0657,4.14658 l -0.96092,2.23368 0.95487,1.54499 c 0.52517,0.84974 0.8207,1.67914 0.65672,1.84311 -0.50558,0.50558 -3.12623,0.32918 -3.70479,-0.24938 -0.42585,-0.42583 -0.66918,-0.42583 -1.09501,0 -0.88213,0.88212 -4.31565,0.69806 -4.68128,-0.25094 -0.29296,-0.76042 -0.32897,-0.76042 -0.75587,0 -0.51429,0.9161 -3.99098,1.13413 -4.82267,0.30243 -0.35718,-0.35716 -0.58182,-0.35716 -0.80256,0 -0.37915,0.61349 -3.44646,0.66266 -3.44646,0.0552 z m 5.32777,-1.04769 c 1.48688,0.51834 3.08833,0.0676 3.49138,-0.98275 0.38046,-0.99149 1.09835,-0.90706 1.43999,0.16934 0.25256,0.79573 0.67453,0.88354 3.91423,0.81446 2.20984,-0.0471 3.57103,-0.2578 3.47755,-0.53828 -0.0845,-0.25347 -1.02346,-0.39806 -2.0866,-0.32129 l -1.93295,0.1395 0.96209,-1.88586 c 0.75102,-1.47212 1.15148,-1.82574 1.82533,-1.61186 0.95517,0.30315 1.83132,-0.87525 1.83132,-2.46308 0,-0.6376 -0.21426,-0.84597 -0.68437,-0.66556 -0.51785,0.19871 -0.68439,-0.0824 -0.68439,-1.15496 0,-1.00436 0.21612,-1.41756 0.74141,-1.41756 0.58853,0 0.68204,-0.29679 0.45354,-1.43934 -0.459,-2.29508 -1.0675,-2.77149 -2.41348,-1.88957 l -1.13482,0.74357 1.17667,0.71396 c 1.45872,0.8851 1.46876,1.26792 0.0673,2.56675 -0.61015,0.56547 -1.34546,1.92356 -1.634,3.01796 -0.92674,3.51482 -1.4371,3.97036 -4.42864,3.95285 -1.45057,-0.009 -2.88248,-0.21253 -3.18201,-0.45343 -0.29955,-0.24092 -0.98826,-1.77121 -1.53051,-3.40065 -0.70982,-2.133 -1.29195,-3.10207 -2.07884,-3.4606 -1.42604,-0.64974 -1.37872,-1.10364 0.21614,-2.07353 l 1.3091,-0.79611 -1.0767,-0.81215 c -1.06346,-0.80216 -1.0879,-0.79371 -1.99175,0.68875 -1.15238,1.89012 -1.15364,2.47361 -0.005,2.77373 1.05321,0.27543 1.27557,2.14906 0.25504,2.14906 -1.00682,0 -1.20514,0.66852 -0.66121,2.22887 0.49205,1.41143 1.53686,1.90724 1.87588,0.89018 0.17803,-0.53413 2.1803,2.49142 2.1803,3.29457 0,0.23661 -0.51327,0.43017 -1.14061,0.43017 -1.16394,0 -1.57506,-0.69164 -0.60362,-1.01547 0.30903,-0.10295 0.38451,-0.4258 0.17777,-0.7603 -0.2562,-0.41455 -0.60943,-0.16986 -1.23137,0.85279 -1.05502,1.73484 -0.76453,2.44013 0.72543,1.76126 0.74162,-0.3379 1.50093,-0.3524 2.3814,-0.0455 z m 11.26332,-2.38707 c -0.14381,-0.37495 -0.44541,-0.56816 -0.67005,-0.42932 -0.6442,0.39813 -0.47632,1.11109 0.26161,1.11109 0.40701,0 0.56735,-0.26765 0.40844,-0.68177 z m -7.55872,-1.54894 c 0.12002,-0.36032 0.005,-0.50625 -0.26727,-0.33821 -0.2739,0.16934 -0.60177,-0.26651 -0.76722,-1.01982 -0.159,-0.7235 -0.79156,-1.78766 -1.40589,-2.36479 -1.20002,-1.12735 -1.41873,-2.01867 -0.61693,-2.51422 0.78561,-0.48553 1.84639,0.89453 2.53531,3.29839 l 0.63157,2.2037 -0.26704,-2.50937 c -0.14692,-1.38018 -0.38231,-3.37833 -0.52314,-4.44037 -0.2057,-1.55117 -0.10295,-1.98972 0.52212,-2.22959 0.44388,-0.17037 1.07213,-0.005 1.46243,0.38563 0.57818,0.57817 0.60274,1.1007 0.15847,3.37023 -0.2892,1.47728 -0.45905,3.60988 -0.37745,4.7391 0.12278,1.69902 0.30567,2.05313 1.06027,2.05313 0.71145,0 1.12933,-0.63472 1.901,-2.88763 0.54401,-1.5882 1.32758,-3.26165 1.74129,-3.71879 0.98513,-1.08856 0.23604,-1.56505 -1.84627,-1.17442 -1.74404,0.32719 -1.74573,0.32521 -1.12311,-1.31241 0.37723,-0.99221 0.23633,-1.40492 -0.93524,-2.73927 l -1.3794,-1.57105 -1.34601,1.40849 c -1.35859,1.42163 -1.7293,2.80744 -0.88979,3.32628 1.03767,0.64132 0.37925,1.16754 -1.11102,0.88796 -0.86201,-0.16175 -1.75705,-0.17674 -1.989,-0.0334 -0.23194,0.14329 0.11398,1.34425 0.76885,2.66867 0.65479,1.32443 1.43585,3.09254 1.73568,3.92916 0.56092,1.56514 1.88988,1.89773 2.32783,0.58258 z m 1.66721,-2.5266 c 0.34002,-2.99558 2.13331,-5.02443 2.83191,-3.20391 0.15071,0.39255 -0.13571,1.15433 -0.64321,1.71096 -0.50312,0.55185 -1.25881,1.6193 -1.67931,2.37211 l -0.76456,1.36876 z m -0.6941,-5.85058 c 0.0176,-0.1882 -0.17323,-0.34218 -0.42417,-0.34218 -0.25094,0 -0.44183,0.56461 -0.42419,1.25469 0.0284,1.11182 0.0767,1.15079 0.42419,0.34219 0.21565,-0.50187 0.40655,-1.0665 0.42417,-1.2547 z m -4.53045,-5.18166 c 0,-0.0986 -0.42276,-0.1793 -0.93945,-0.1793 -0.51668,0 -0.81808,0.19634 -0.66976,0.43633 0.24347,0.39392 1.60921,0.1758 1.60921,-0.25703 z m 9.58131,0.27694 c 0,-0.25094 -0.42276,-0.45624 -0.93945,-0.45624 -0.51668,0 -0.81252,0.2053 -0.65743,0.45624 0.15503,0.25094 0.57782,0.45627 0.93943,0.45627 0.36159,0 0.65745,-0.20533 0.65745,-0.45627 z m 5.75372,18.33195 c -0.12726,-0.20593 0.17744,-1.04672 0.67715,-1.86841 l 0.90856,-1.494 -0.93221,-1.92566 c -1.16117,-2.39867 -1.21552,-4.23412 -0.13381,-4.51681 0.76042,-0.19872 0.76042,-0.21117 0,-0.26158 -1.11115,-0.0736 -1.03546,-1.9878 0.17439,-4.4103 l 0.97287,-1.94794 -1.0017,-1.40677 c -0.55094,-0.77371 -0.87396,-1.61347 -0.71781,-1.86611 0.33976,-0.54973 8.44261,-0.626 8.44261,-0.0795 0,0.20895 -0.85295,1.06535 -1.89545,1.90312 l -1.89545,1.52322 -1.04831,-1.21874 c -1.09685,-1.27515 -2.00459,-1.58869 -2.00459,-0.69239 0,0.58246 3.57867,4.03618 4.18219,4.03618 0.20919,0 0.38034,-0.36896 0.38034,-0.81991 0,-0.45095 0.80494,-1.6059 1.78875,-2.56657 l 1.78875,-1.74665 1.51907,1.71955 c 0.8355,0.94576 1.66979,2.10971 1.85398,2.58655 0.25873,0.66985 0.51807,0.76576 1.14063,0.42186 1.26352,-0.69799 3.7714,-3.14201 3.7714,-3.67538 0,-0.77697 -0.54882,-0.564 -1.91183,0.74185 l -1.2774,1.2238 -1.88823,-1.36781 c -1.03851,-0.75231 -1.91212,-1.55967 -1.94133,-1.79414 -0.0664,-0.53326 7.93782,-0.83041 8.45437,-0.31386 0.20803,0.20804 -0.0442,1.16621 -0.56029,2.12928 -0.76279,1.4232 -0.84651,1.97527 -0.44721,2.94845 0.27022,0.65856 0.68384,1.87541 0.91914,2.70413 0.37823,1.3321 0.31172,1.55353 -0.57375,1.91016 l -1.0016,0.40338 1.06281,0.029 c 0.95394,0.026 1.03169,0.18084 0.7588,1.51173 -0.16727,0.81556 -0.66413,2.20143 -1.10425,3.07971 -0.76652,1.52961 -0.76495,1.65455 0.0373,2.96564 0.46061,0.75281 0.83855,1.50644 0.83988,1.6747 0.005,0.63328 -2.77623,0.91231 -3.45753,0.34689 -0.51886,-0.43062 -0.81314,-0.44042 -1.21319,-0.0403 -0.80416,0.80418 -4.32808,0.66849 -4.80573,-0.18503 -0.33768,-0.60341 -0.47999,-0.61579 -0.92431,-0.0804 -0.38328,0.46182 -1.1297,0.55526 -2.76243,0.3458 -1.23048,-0.15779 -2.62124,-0.13606 -3.09056,0.0483 -1.17757,0.46277 -2.80534,0.47599 -3.08404,0.025 z m 5.61971,-1.14131 c 2.10981,0.24987 2.44125,0.16848 3.09047,-0.75834 l 0.72721,-1.03824 0.74069,0.98195 c 0.48365,0.64116 1.21239,0.96935 2.09983,0.94566 0.7475,-0.02 2.33469,-0.0341 3.52707,-0.0314 l 2.16796,0.005 -0.68189,-1.31862 c -0.81832,-1.58245 -1.6009,-2.157 -1.6009,-1.1753 0,0.39122 0.20533,0.71131 0.45627,0.71131 0.25094,0 0.45625,0.2053 0.45625,0.45624 0,0.25094 -0.61595,0.45625 -1.36876,0.45625 -0.75282,0 -1.36235,-0.15399 -1.35452,-0.34218 0.0362,-0.86929 2.19517,-3.79322 2.47115,-3.34667 0.48927,0.79165 0.97926,0.58046 1.54765,-0.66702 0.72119,-1.58284 0.66485,-2.48792 -0.15485,-2.48792 -0.42583,0 -0.68439,-0.4309 -0.68439,-1.14064 0,-0.70972 0.25856,-1.14062 0.68439,-1.14062 0.81672,0 0.84329,-0.32046 0.18349,-2.21319 -0.54236,-1.55584 -1.15215,-1.76868 -2.41712,-0.84372 -0.75581,0.55268 -0.73064,0.62981 0.36906,1.13086 1.45838,0.66447 1.47788,1.13063 0.10485,2.50373 -0.59148,0.59148 -1.43989,2.192 -1.88538,3.55671 -0.44547,1.3647 -0.99622,2.71739 -1.22384,3.00597 -0.22821,0.28929 -1.62076,0.52469 -3.10397,0.52469 -3.15074,0 -3.64032,-0.39912 -4.77822,-3.89519 -0.42776,-1.31425 -1.27539,-2.78099 -1.88363,-3.25943 -1.41335,-1.11175 -1.39383,-1.26124 0.2992,-2.29084 l 1.40509,-0.85448 -1.05036,-0.73569 c -1.4227,-0.99649 -1.62818,-0.94493 -2.43248,0.61041 -0.9359,1.80985 -0.87628,2.60661 0.21641,2.89237 0.54595,0.14278 0.91251,0.62234 0.91251,1.19385 0,0.65104 -0.29058,0.95521 -0.91251,0.95521 -1.03382,0 -1.15574,0.79197 -0.38301,2.48792 0.56839,1.24748 1.05838,1.45867 1.54765,0.66702 0.27598,-0.44655 2.43497,2.47738 2.47115,3.34667 0.009,0.18821 -0.6017,0.34218 -1.35452,0.34218 -0.75283,0 -1.36876,-0.20531 -1.36876,-0.45625 0,-0.25094 0.20531,-0.45624 0.45625,-0.45624 0.25094,0 0.45625,-0.20533 0.45625,-0.45627 0,-0.8695 -0.76852,-0.45078 -1.29552,0.70586 -0.77267,1.69579 -0.68158,2.14516 0.32557,1.60616 0.47135,-0.25227 1.91559,-0.33202 3.21833,-0.17772 z m 3.19849,-3.47598 c 0.56459,-0.35725 0.5728,-1.02267 0.0588,-4.76674 -0.62806,-4.57463 -0.50028,-5.75414 0.62343,-5.75414 1.12081,0 1.61216,1.47111 1.15285,3.45169 -0.22899,0.98737 -0.40502,2.41115 -0.3912,3.16397 0.0238,1.29693 0.0605,1.26907 0.69844,-0.53107 0.74353,-2.09802 1.63908,-2.7254 2.46676,-1.72811 0.43402,0.52296 0.25979,0.97284 -0.87916,2.27002 -0.78123,0.88979 -1.42044,1.91863 -1.42044,2.28631 0,0.36768 -0.35197,0.6685 -0.78214,0.6685 -0.72953,0 -0.73107,0.0511 -0.0229,0.75925 1.04492,1.04491 1.91459,0.25659 2.86127,-2.59356 0.40561,-1.22119 1.1508,-2.7458 1.65597,-3.38802 0.81453,-1.03552 0.83559,-1.19951 0.18596,-1.44879 -0.40291,-0.15468 -1.35082,-0.15744 -2.10648,-0.007 -1.36008,0.27201 -1.37088,0.25849 -1.071,-1.34006 0.24618,-1.3122 0.10657,-1.82382 -0.74464,-2.72997 -1.34307,-1.42961 -1.96329,-1.40469 -3.16836,0.12726 -0.73243,0.93112 -0.90826,1.61049 -0.70174,2.7114 0.27296,1.45498 0.2608,1.46655 -1.27907,1.21666 -1.8492,-0.30008 -2.54212,0.45827 -1.48552,1.6258 0.40193,0.44413 1.06709,1.81706 1.47812,3.05097 1.0917,3.27724 1.57519,3.77486 2.87109,2.95488 z m -0.88183,-2.0726 c -0.29957,-0.90773 -0.93598,-1.89479 -1.41423,-2.19346 -0.92214,-0.57589 -1.16492,-1.91214 -0.42994,-2.36639 0.81679,-0.5048 2.23015,1.50747 2.54813,3.62793 0.39384,2.62643 0.019,3.12261 -0.70396,0.93192 z m 1.68895,-6.73201 c -0.10916,-0.56754 -0.20257,-0.21064 -0.20764,0.79311 -0.005,1.00377 0.0842,1.46812 0.19843,1.03189 0.11416,-0.43621 0.11829,-1.25746 0.009,-1.825 z m -82.90447,12.86116 c 0,-0.26339 0.32269,-1.10293 0.7171,-1.86562 0.65533,-1.26728 0.65222,-1.52342 -0.0362,-2.97411 -1.29174,-2.72217 -1.38638,-6.02361 -0.24847,-8.66873 l 0.99658,-2.31658 -0.919,-1.51117 c -0.50544,-0.83113 -0.81485,-1.67965 -0.68757,-1.88558 0.12726,-0.20593 2.28625,-0.37442 4.79775,-0.37442 4.524,0 4.56345,0.0103 4.2535,1.02656 -0.17209,0.56461 -0.6228,1.37976 -1.00168,1.81144 -0.61529,0.70108 -0.6091,0.95291 0.0581,2.3589 0.4108,0.86573 0.8734,2.20638 1.02796,2.97923 0.23341,1.16707 0.13605,1.40752 -0.57444,1.41906 -0.82728,0.0138 -0.82776,0.03 -0.0155,0.50248 0.67889,0.39463 0.78052,0.8088 0.52846,2.15333 -0.17158,0.91558 -0.62218,2.18988 -1.00119,2.83176 -0.6324,1.07097 -0.61031,1.29633 0.26826,2.73752 0.52657,0.86376 0.95818,1.72445 0.95911,1.91265 9.7e-4,0.18821 -0.92865,0.3422 -2.06575,0.3422 -1.47935,0 -2.14761,-0.2089 -2.34925,-0.73433 -0.25899,-0.67492 -0.31502,-0.67492 -0.69272,0 -0.4645,0.83002 -4.01564,1.05588 -4.01564,0.25541 z m 3.62849,-1.43281 0.80913,-0.99921 0.53476,0.99921 c 0.51064,0.95414 2.78392,1.46872 2.78392,0.63017 0,-0.82711 -1.21092,-1.85145 -2.28127,-1.92976 -2.36927,-0.17336 -3.11034,0.0504 -3.83618,1.15817 -0.71589,1.09259 -0.70677,1.14064 0.21657,1.14064 0.53017,0 1.32806,-0.44965 1.77307,-0.99922 z m 0.27423,-2.69056 c 0.22075,-0.35718 0.44539,-0.35718 0.80256,0 0.80546,0.80546 1.3105,0.56847 0.98358,-0.46154 -0.25463,-0.80227 -0.15675,-0.91084 0.60381,-0.66946 0.72404,0.22982 1.01009,-0.005 1.4138,-1.16367 0.27835,-0.79847 0.50608,-1.49985 0.50608,-1.5586 0,-0.0588 -0.41062,-0.21421 -0.9125,-0.34545 -1.2312,-0.32197 -1.22175,-2.15363 0.0121,-2.47646 1.11042,-0.29039 0.90949,-1.32156 -0.76292,-3.91547 -1.57724,-2.44628 -2.35163,-2.60284 -3.87121,-0.78263 -1.62814,1.95025 -2.14862,4.09085 -1.13289,4.65927 1.00589,0.56292 0.9275,2.14762 -0.12605,2.54812 -0.76711,0.29162 -0.80341,0.50241 -0.3314,1.92439 0.38908,1.17207 0.7561,1.55742 1.37969,1.44858 0.61374,-0.10709 0.77304,0.0512 0.57383,0.57031 -0.31025,0.80855 0.38721,0.98891 0.86082,0.22261 z m 0.18946,-1.12368 c -0.041,-1.26506 -0.88662,-6.94378 -1.12721,-7.57074 -0.35853,-0.93433 0.94862,-2.2612 1.87672,-1.90506 0.60441,0.23194 0.66248,0.91902 0.39363,4.65721 -0.17346,2.41183 -0.49846,4.58019 -0.72222,4.81859 -0.25694,0.27375 -0.41202,0.27375 -0.42092,0 z m 0.47036,-6.91224 c 0,-1.04051 -0.16158,-1.52185 -0.42116,-1.2547 -0.38222,0.39335 -0.16882,2.94284 0.24621,2.94284 0.0962,0 0.17495,-0.75966 0.17495,-1.68814 z m -1.36876,-5.38379 c 0.73888,-0.89029 1.32672,-0.86385 2.4006,0.10794 0.83376,0.75452 0.90735,0.74908 1.54053,-0.11415 0.6451,-0.87937 0.5673,-0.91048 -2.60555,-1.0416 -3.58574,-0.14813 -4.03195,-0.002 -3.16974,1.03663 0.72437,0.87283 1.11696,0.8752 1.83416,0.0103 z m 7.30004,17.52207 c 0,-0.27496 0.34066,-1.07661 0.75702,-1.78146 0.69075,-1.16935 0.69496,-1.4152 0.0481,-2.80791 -0.38989,-0.83952 -0.84569,-2.17618 -1.01289,-2.9704 -0.24507,-1.16419 -0.14382,-1.4855 0.52221,-1.65803 0.77231,-0.20003 0.77031,-0.21743 -0.0305,-0.26691 -0.74489,-0.046 -0.81715,-0.30063 -0.55334,-1.95033 0.16692,-1.04357 0.64802,-2.48077 1.06919,-3.19377 0.71822,-1.21587 0.71717,-1.37867 -0.0172,-2.62146 -1.30826,-2.21473 -1.13206,-2.3259 3.66572,-2.31266 l 4.44847,0.0121 -1.5969,1.34675 c -0.87828,0.74073 -1.9818,1.47576 -2.45228,1.63344 -0.81501,0.27315 -1.04779,0.0914 -2.09482,-1.63597 -0.313,-0.51638 -0.54502,-0.55558 -0.94514,-0.15969 -0.40172,0.39748 -0.0767,0.9782 1.34036,2.39533 1.89884,1.89884 2.78313,2.31748 2.78313,1.31759 0,-0.30419 0.84703,-1.41611 1.88229,-2.47097 l 1.88229,-1.9179 1.76774,2.04245 c 0.97224,1.12334 1.76773,2.33101 1.76773,2.6837 0,0.92481 2.93726,-0.88002 4.10804,-2.52424 1.07742,-1.51309 1.12477,-1.82252 0.27884,-1.82252 -0.34756,0 -0.96823,0.51327 -1.37928,1.14062 -0.41105,0.62736 -1.10194,1.13461 -1.5353,1.12727 -0.71893,-0.0121 -3.75357,-2.39383 -3.75357,-2.94585 0,-0.12898 1.95048,-0.23455 4.3344,-0.23455 4.75906,0 4.90513,0.1095 3.39858,2.54714 -0.84702,1.37048 -0.87389,1.63544 -0.28308,2.79137 1.19842,2.34478 1.36886,4.11145 0.44831,4.64692 -0.79028,0.45969 -0.78903,0.48125 0.0291,0.49451 0.7105,0.0121 0.80784,0.25199 0.57442,1.41906 -0.1545,0.77285 -0.62355,2.12698 -1.04217,3.00918 -0.70935,1.49483 -0.70963,1.69124 -0.003,2.88556 0.41637,0.70485 0.75703,1.4895 0.75703,1.74368 0,0.27984 -1.78374,0.46846 -4.52206,0.47818 -3.84644,0.0138 -4.56676,-0.10001 -4.82134,-0.76064 -0.27977,-0.72608 -0.3285,-0.72467 -0.74752,0.0217 -0.5143,0.9161 -3.99099,1.13411 -4.82268,0.30243 -0.35718,-0.35718 -0.58182,-0.35718 -0.80256,0 -0.40095,0.64874 -3.44646,0.64529 -3.44646,-0.003 z m 2.97769,-1.33254 c 0.007,-0.37232 0.164,-0.91938 0.34965,-1.21572 0.18566,-0.29632 0.13761,-0.66235 -0.10675,-0.81336 -0.3837,-0.23714 -1.85188,1.92858 -1.85188,2.73171 0,0.62508 1.59772,-0.0726 1.60893,-0.70263 z m 5.69111,0.007 c 0.61887,-1.15636 1.22737,-1.16424 1.59034,-0.0205 0.25251,0.7956 0.67453,0.88354 3.9089,0.81458 1.99421,-0.0424 3.62582,-0.14605 3.62582,-0.23015 0,-0.72416 -1.50982,-2.81176 -1.87174,-2.58807 -0.2777,0.17158 -0.13243,0.53833 0.36161,0.91291 0.82938,0.62881 0.72292,0.69882 -1.22739,0.80717 -1.12358,0.0624 -1.14693,-0.20452 -0.19361,-2.2135 0.7267,-1.53141 1.56237,-2.11674 1.56237,-1.09432 0,1.07423 1.09947,0.0438 1.65005,-1.54653 0.54205,-1.56572 0.52041,-1.68527 -0.30517,-1.68527 -1.09039,0 -1.2624,-2.16648 -0.20424,-2.57253 0.82142,-0.3152 0.86671,-1.09064 0.15485,-2.65291 -0.61374,-1.34702 -0.80863,-1.3956 -2.00676,-0.50029 -0.86947,0.64971 -0.8669,0.67518 0.14089,1.39462 1.25299,0.89448 1.30588,1.65591 0.1645,2.36872 -0.47412,0.2961 -1.41245,1.97873 -2.08515,3.73918 -1.22147,3.19657 -2.48401,4.38082 -3.54221,3.32259 -0.31757,-0.31755 -0.81169,-0.30891 -1.54912,0.0271 -1.49935,0.68314 -2.54766,-0.35756 -3.78871,-3.76126 -0.54048,-1.48234 -1.49212,-3.09587 -2.11474,-3.58562 -1.035,-0.81413 -1.06981,-0.95271 -0.40622,-1.61628 0.39918,-0.3992 1.01911,-0.72583 1.3776,-0.72583 0.99993,0 0.77622,-0.72603 -0.47666,-1.54694 -1.07226,-0.70258 -1.16078,-0.68815 -1.7775,0.2897 -1.21534,1.92697 -1.31082,2.94693 -0.30062,3.21112 1.2964,0.339 1.30753,2.60865 0.0121,2.60865 -1.09312,0 -1.09768,0.0424 -0.22809,2.12362 0.56756,1.35833 0.7982,1.54363 1.35066,1.08516 0.54814,-0.45494 0.83082,-0.28291 1.59512,0.97073 1.13682,1.86465 1.15726,2.20395 0.13399,2.22254 -0.72247,0.0138 -0.71417,0.0783 0.0873,0.68438 1.32134,0.99941 3.76943,0.86321 4.36125,-0.24264 z m 0.45626,-3.24258 c 0,-0.22409 -0.20533,-0.40743 -0.45626,-0.40743 -0.25094,0 -0.45625,-0.40349 -0.45625,-0.89663 0,-0.49315 -0.64647,-1.63292 -1.43658,-2.53281 -1.02986,-1.17295 -1.2969,-1.77589 -0.94319,-2.12961 0.68225,-0.68223 1.85675,-0.14192 2.39229,1.10046 0.3256,0.75543 0.37504,0.28605 0.18222,-1.73002 -0.2158,-2.25603 -0.12278,-2.88446 0.50406,-3.40468 0.66958,-0.5557 0.85321,-0.52252 1.42405,0.25733 0.36045,0.49239 0.54812,1.32341 0.41705,1.84668 -0.64273,2.5661 -0.81845,7.49911 -0.28982,8.13608 0.89654,1.08026 1.69776,0.37232 2.51339,-2.22083 0.42038,-1.33651 1.0539,-2.81231 1.40782,-3.27957 1.18873,-1.56941 0.84513,-2.13351 -1.13755,-1.86757 l -1.81006,0.24278 0.25644,-1.89365 c 0.22119,-1.63334 0.0919,-2.04742 -0.94074,-3.01224 l -1.19718,-1.11858 -1.45694,1.45697 c -1.33636,1.33634 -1.41406,1.57057 -0.93886,2.82951 l 0.51808,1.37259 h -2.0135 c -2.18329,0 -2.38075,0.20672 -1.31851,1.38048 0.38224,0.42238 1.06064,1.80627 1.50756,3.07532 0.4469,1.26903 1.07307,2.62125 1.3915,3.00492 0.58053,0.69949 1.88098,0.55466 1.88098,-0.2095 z m 1.40582,-1.91292 c -0.0435,-2.03298 1.0606,-4.42581 2.04211,-4.42581 1.19949,0 1.28429,1.35745 0.15951,2.55465 -0.58875,0.62668 -1.31665,1.69414 -1.61756,2.37211 l -0.54709,1.23267 z m -1.55041,-0.86133 c -0.14571,-0.36397 -0.25375,-0.25585 -0.27565,0.27565 -0.0198,0.48098 0.0881,0.75045 0.23964,0.59884 0.15158,-0.15157 0.16779,-0.54512 0.036,-0.87449 z m 1.02503,-5.9598 c 0.0176,-0.1882 -0.17325,-0.34219 -0.42419,-0.34219 -0.25094,0 -0.44183,0.56462 -0.42419,1.2547 0.0285,1.11182 0.0767,1.15078 0.42419,0.34218 0.21565,-0.50188 0.40655,-1.06649 0.42419,-1.25469 z m -4.75859,-4.90472 c 0.15502,-0.25093 -0.15296,-0.45624 -0.68439,-0.45624 -0.53148,0 -0.83946,0.20531 -0.68437,0.45624 0.15503,0.25094 0.46306,0.45625 0.68437,0.45625 0.22133,0 0.5293,-0.20531 0.68439,-0.45625 z m 9.80943,0 c 0,-0.25093 -0.30796,-0.45624 -0.68437,-0.45624 -0.37642,0 -0.68439,0.20531 -0.68439,0.45624 0,0.25094 0.30797,0.45625 0.68439,0.45625 0.37641,0 0.68437,-0.20531 0.68437,-0.45625 z"
       id="path5465" />
  </g>
</svg>
