<?xml version="1.0" encoding="UTF-8" standalone="no"?>
<!-- Created with Inkscape (http://www.inkscape.org/) -->

<svg
   width="53.908333mm"
   height="60.892162mm"
   viewBox="0 0 53.908346 60.892161"
   version="1.1"
   id="svg5"
   inkscape:version="1.1 (c4e8f9ed74, 2021-05-24)"
   sodipodi:docname="ornatei6.svg"
   xmlns:inkscape="http://www.inkscape.org/namespaces/inkscape"
   xmlns:sodipodi="http://sodipodi.sourceforge.net/DTD/sodipodi-0.dtd"
   xmlns="http://www.w3.org/2000/svg"
   xmlns:svg="http://www.w3.org/2000/svg">
  <sodipodi:namedview
     id="namedview7"
     pagecolor="#ffffff"
     bordercolor="#666666"
     borderopacity="1.0"
     inkscape:pageshadow="2"
     inkscape:pageopacity="0.0"
     inkscape:pagecheckerboard="0"
     inkscape:document-units="mm"
     showgrid="false"
     inkscape:zoom="1.8923042"
     inkscape:cx="-51.524484"
     inkscape:cy="68.96354"
     inkscape:window-width="2506"
     inkscape:window-height="1403"
     inkscape:window-x="1974"
     inkscape:window-y="0"
     inkscape:window-maximized="1"
     inkscape:current-layer="layer1" />
  <defs
     id="defs2" />
  <g
     inkscape:label="Layer 1"
     inkscape:groupmode="layer"
     id="layer1"
     transform="translate(534.54306,-731.18752)">
    <path
       style="fill:#000000;stroke-width:0.264583"
       d="m -534.54306,791.50798 c 0,-0.50933 0.0544,-0.71769 0.121,-0.46302 0.0666,0.25466 0.0666,0.67138 0,0.92604 -0.0666,0.25466 -0.121,0.0463 -0.121,-0.46302 z m 3.17977,-1.8938 c -0.50426,-0.25728 -0.59953,-0.53025 -0.62284,-1.78465 -0.0151,-0.81451 -0.0737,-4.81468 -0.13019,-8.88926 -0.0565,-4.07458 -0.15805,-10.02771 -0.22574,-13.22917 -0.28225,-13.34819 -0.39284,-31.02038 -0.19951,-31.88229 0.1642,-0.73205 0.34401,-0.93496 0.85836,-0.96862 0.35785,-0.0234 2.8533,-0.11817 5.54544,-0.21057 2.69213,-0.0924 5.07338,-0.24 5.29166,-0.32799 0.21828,-0.088 1.40891,-0.18598 2.64584,-0.21773 1.23692,-0.0318 3.65986,-0.0947 5.3843,-0.13985 2.29351,-0.0601 3.17135,-0.17595 3.26945,-0.43159 0.15411,-0.40159 0.87125,-0.47816 0.87125,-0.093 0,0.16373 2.79821,0.19256 7.73906,0.0797 4.25648,-0.0972 10.11535,-0.18283 13.01969,-0.1903 l 5.28064,-0.0136 0.33593,1.5875 c 0.49885,2.35737 0.61708,3.94231 0.74011,9.92187 0.0614,2.98318 0.19341,7.92427 0.29341,10.98021 0.24296,7.42529 0.25914,32.35407 0.0216,33.27136 -0.14779,0.57064 -0.3443,0.72731 -0.911,0.72627 -0.39741,-8e-4 -2.60584,0.20147 -4.90763,0.44935 -3.39052,0.36512 -4.28607,0.38761 -4.71708,0.11843 -0.33399,-0.20857 -0.64742,-0.24154 -0.84202,-0.0886 -0.3006,0.23629 -4.8668,0.502 -12.48083,0.72626 -2.03729,0.06 -4.5376,0.17271 -5.55625,0.25046 -1.01865,0.0777 -5.24536,0.20658 -9.39271,0.2863 -4.14734,0.0797 -8.255,0.19631 -9.12812,0.25908 -0.90905,0.0653 -1.84192,-0.0157 -2.18281,-0.18962 z m 4.01868,-0.74955 c 0.28213,-0.10087 0.82493,-0.0657 1.20623,0.0783 0.90323,0.34093 2.64644,0.0184 2.64644,-0.48963 0,-0.45815 -0.0284,-0.4616 -0.941,-0.11461 -0.42357,0.16103 -0.83152,0.17439 -1.00941,0.033 -0.1642,-0.13048 -1.32844,-0.22233 -2.5872,-0.20412 l -2.28865,0.0331 -0.19045,-2.51355 c -0.10475,-1.38244 -0.23042,-3.04932 -0.27927,-3.70416 -0.0489,-0.65485 -0.0959,-2.20266 -0.10448,-3.43959 -0.0141,-2.02678 -0.0502,-2.18361 -0.36555,-1.5875 -0.21158,0.40001 -0.25725,0.78288 -0.11554,0.96864 0.14083,0.18461 0.12192,0.37665 -0.0474,0.4813 -0.15496,0.0958 -0.22974,0.25828 -0.16617,0.36113 0.0636,0.10284 0.19107,2.14845 0.28336,4.54578 0.0923,2.39733 0.29198,4.67941 0.44376,5.0713 0.36955,0.95413 1.68714,1.13425 3.51535,0.48059 z m 9.01204,-0.0923 c 0.87313,-0.0654 2.81079,-0.20701 4.30592,-0.31477 2.57788,-0.18579 3.43005,-0.47053 2.72054,-0.90903 -0.17455,-0.10788 -0.93395,-0.16121 -1.68754,-0.1185 -0.75359,0.0427 -3.12698,0.1567 -5.2742,0.25331 -2.14722,0.0966 -3.97347,0.28801 -4.05834,0.42533 -0.0849,0.13732 -0.0832,0.43498 0.004,0.66146 0.12181,0.31744 0.41509,0.37847 1.28021,0.26641 0.61721,-0.0799 1.83658,-0.19884 2.7097,-0.26421 z m 14.28279,-0.95272 c 4.06835,-0.0491 4.61664,-0.15395 4.63087,-0.88546 0.002,-0.11453 -0.76985,-0.15167 -1.71574,-0.0825 -1.50521,0.11001 -1.71979,0.0683 -1.71979,-0.33416 0,-0.25292 0.14287,-0.60273 0.3175,-0.77736 0.23313,-0.23313 0.23926,-0.39574 0.023,-0.61195 -0.33996,-0.33996 -0.95736,-0.0614 -0.71894,0.32437 0.0877,0.14186 -0.0356,0.55552 -0.27389,0.91924 -0.35125,0.53609 -0.64365,0.65894 -1.54416,0.6488 -0.61097,-0.007 -2.14002,0.0617 -3.39789,0.15251 -1.92042,0.13857 -2.27358,0.23417 -2.20306,0.59634 0.0462,0.23722 0.0931,0.44571 0.10423,0.4633 0.0111,0.0176 0.52626,-0.0567 1.14472,-0.16503 0.61847,-0.10836 3.02736,-0.21999 5.3531,-0.24806 z m -22.35258,-0.26195 c 0,-0.1354 0.26678,-0.28423 0.59284,-0.33073 0.34472,-0.0492 0.74734,-0.40787 0.96201,-0.85708 0.32668,-0.68361 0.31456,-0.87396 -0.10533,-1.65365 -0.49102,-0.91177 -1.17556,-1.13313 -1.66825,-0.53948 -0.21055,0.25369 -0.15078,0.42454 0.23218,0.6637 1.06314,0.66394 0.30357,1.84853 -0.89347,1.39342 -0.92769,-0.35271 -1.40182,-1.1746 -1.79711,-3.11526 -0.27688,-1.3593 -0.27251,-1.75853 0.0254,-2.31511 0.19797,-0.3699 0.49861,-0.67255 0.66808,-0.67255 0.16948,0 0.82173,-0.47414 1.44946,-1.05365 1.0965,-1.01228 2.56826,-1.57342 3.1629,-1.20591 0.15496,0.0958 0.28175,-0.007 0.28175,-0.22774 0,-0.23922 -0.42585,-0.52946 -1.05217,-0.71711 -0.94528,-0.28321 -1.17233,-0.2515 -2.23485,0.31217 -0.65047,0.34507 -1.25302,0.55707 -1.33899,0.4711 -0.28623,-0.28624 0.47064,-1.54761 0.92863,-1.54761 0.24806,0 0.76473,-0.24676 1.14816,-0.54837 0.38342,-0.3016 0.69714,-0.42066 0.69714,-0.26458 0,0.15608 0.12133,0.28379 0.26962,0.28379 0.14855,0 0.20163,-0.27092 0.1182,-0.60332 -0.12733,-0.50735 0.11387,-0.79322 1.51632,-1.79715 3.11901,-2.23271 4.89087,-2.48455 7.82687,-1.11245 0.68368,0.31951 1.06207,0.82658 1.78594,2.3933 1.08482,2.34794 1.19904,3.86656 0.37009,4.92039 -0.3016,0.38343 -0.77082,0.69714 -1.04272,0.69714 -0.27189,0 -0.57941,0.13765 -0.68339,0.30588 -0.37329,0.60401 1.84178,0.003 2.32098,-0.62967 0.71674,-0.94639 0.96625,-2.89213 0.6485,-5.05713 -0.11199,-0.76298 -2.33623,-3.31571 -3.28875,-3.77445 -1.71897,-0.82785 -5.72863,-0.46192 -7.08356,0.64645 -0.30206,0.24709 -0.76223,0.7744 -1.02262,1.1718 -0.26038,0.3974 -0.63833,0.72254 -0.83987,0.72254 -0.20155,0 -0.60457,0.23813 -0.89561,0.52917 -0.29105,0.29104 -0.67521,0.52916 -0.85369,0.52916 -0.17849,0 0.59542,-0.92537 1.71979,-2.05637 1.12437,-1.13101 2.04431,-2.17611 2.04431,-2.32245 0,-0.33459 0.62867,-0.87374 1.98438,-1.70181 0.58208,-0.35554 1.22157,-0.80563 1.42109,-1.0002 0.30396,-0.29642 0.42819,-0.25513 0.76632,0.25468 0.51383,0.77472 1.12499,1.2699 1.56732,1.2699 0.48341,0 0.43249,-1.08213 -0.0857,-1.822 -0.34448,-0.49183 -0.36275,-0.65966 -0.0901,-0.82815 0.18805,-0.11622 0.52107,-0.14256 0.74004,-0.0585 0.24085,0.0924 0.32944,0.0416 0.22426,-0.12855 -0.0998,-0.16151 0.13522,-0.35845 0.55191,-0.46243 0.58565,-0.14615 1.49871,-0.7034 2.6881,-1.64055 0.0606,-0.0478 0.049,-0.14812 -0.0259,-0.22299 -0.20526,-0.20526 -3.58306,0.89295 -4.53867,1.47564 -1.20851,0.7369 -1.74699,0.66078 -1.93382,-0.27336 -0.23889,-1.19449 -1.68167,-1.44091 -1.68167,-0.28722 0,0.26571 0.29766,0.67815 0.66146,0.91652 0.3638,0.23837 0.66146,0.53582 0.66146,0.66099 0,0.12517 -0.55557,0.62844 -1.2346,1.11838 -0.67904,0.48994 -1.86879,1.54564 -2.64391,2.346 -1.31094,1.35366 -1.41147,1.40905 -1.44051,0.79375 -0.06,-1.27017 0.0681,-1.98633 0.402,-2.24895 0.79748,-0.62717 1.0271,-6.10908 0.31368,-7.48868 -0.92407,-1.78694 -3.45399,-2.60318 -4.90124,-1.58132 l -0.64104,0.45263 1.1702,-0.0131 c 1.86662,-0.0208 2.14937,0.0643 2.00806,0.60473 -0.088,0.3365 0.0177,0.48507 0.34515,0.48507 0.54588,0 0.92229,0.4044 1.19091,1.27948 0.16881,0.54993 0.13312,0.58773 -0.32396,0.34311 -0.36519,-0.19545 -0.60187,-0.18671 -0.81879,0.0302 -0.5259,0.52591 -0.33754,1.17228 0.62092,2.13075 0.77664,0.77664 0.92542,1.11172 0.92215,2.07698 -0.004,1.10012 -0.0186,1.12173 -0.33736,0.48948 -0.18339,-0.36381 -0.61525,-0.70172 -0.95968,-0.75093 -0.59794,-0.0854 -0.61804,-0.0382 -0.4448,1.04521 0.0998,0.62407 0.28373,1.25964 0.40874,1.41238 0.6272,0.76632 0.0804,3.73272 -0.84197,4.56743 -0.43687,0.39535 -0.46687,0.36802 -0.46687,-0.4254 0,-0.81236 -0.63819,-2.40912 -0.96287,-2.40912 -0.0856,0 -0.0746,0.53982 0.0244,1.1996 0.21761,1.45116 -0.20486,2.93457 -1.07346,3.7692 -0.78754,0.75676 -1.01461,1.6352 -0.75073,2.9043 0.11327,0.54474 0.17077,1.10951 0.12778,1.25503 -0.44836,1.51758 0.0457,5.32184 0.78753,6.06363 0.14295,0.14295 0.2599,0.46747 0.2599,0.72116 0,0.25368 0.26462,0.64659 0.58804,0.87312 0.64408,0.45113 1.79321,0.55731 1.79321,0.1657 z m -1.32291,-12.7184 c 0,-0.29104 0.10791,-0.52917 0.23981,-0.52917 0.1319,0 0.17754,0.23813 0.10143,0.52917 -0.0761,0.29104 -0.18402,0.52916 -0.23981,0.52916 -0.0558,0 -0.10143,-0.23812 -0.10143,-0.52916 z m 3.01588,-10.95471 c -0.27395,-0.71391 0.0429,-1.13393 0.38008,-0.50388 0.20411,0.38139 0.21859,0.63483 0.0425,0.74367 -0.14695,0.0908 -0.33709,-0.0171 -0.42255,-0.23979 z m 26.01662,23.75944 c -0.0879,-0.0879 -0.31612,-0.0973 -0.50711,-0.0209 -0.21107,0.0845 -0.14838,0.14716 0.15985,0.15985 0.27891,0.0115 0.43518,-0.051 0.34726,-0.13896 z m 12.63937,-0.26305 c 3.00594,-0.20272 3.7599,-0.29231 4.06926,-0.4835 0.32719,-0.20222 0.33724,-22.07077 0.0104,-22.68144 -0.13455,-0.25142 -0.1467,-0.51766 -0.027,-0.59164 0.11971,-0.074 0.2017,-1.811 0.1822,-3.86002 -0.0283,-2.96954 -0.11824,-3.8083 -0.44344,-4.1335 -0.36759,-0.36759 -0.42538,-0.0459 -0.58377,3.24865 -0.0967,2.01116 -0.10757,8.97468 -0.0242,15.47451 0.14406,11.22893 0.12785,11.8253 -0.3253,11.96731 -0.65294,0.20462 -5.15326,0.43738 -10.3988,0.53785 -3.85777,0.0739 -4.37601,0.13595 -4.45491,0.53356 -0.0823,0.41475 0.29013,0.43817 4.7625,0.29938 2.66848,-0.0828 5.92335,-0.22283 7.23304,-0.31116 z m -42.73021,-0.10627 c 0,-0.14552 -0.17859,-0.26458 -0.39687,-0.26458 -0.21828,0 -0.39688,0.11906 -0.39688,0.26458 0,0.14552 0.1786,0.26459 0.39688,0.26459 0.21828,0 0.39687,-0.11907 0.39687,-0.26459 z m 7.15793,-0.24164 c 0.17845,0.28874 0.25583,0.27078 0.39491,-0.0916 0.13236,-0.34493 0.28693,-0.38978 0.6583,-0.19103 0.26693,0.14286 0.85034,0.25974 1.29647,0.25974 0.61712,0 0.81114,-0.11882 0.81114,-0.49677 0,-0.27322 -0.18147,-0.64738 -0.40327,-0.83145 -0.61444,-0.50995 -0.27218,-0.61101 0.78034,-0.23042 0.60752,0.21968 0.94585,0.5123 0.94585,0.81804 0,0.55083 0.28709,0.61226 0.74083,0.15852 0.65374,-0.65374 0.3701,-1.53961 -0.62624,-1.95591 -0.87141,-0.3641 -1.06912,-0.35027 -2.57969,0.18049 -1.74178,0.61199 -3.64287,1.74942 -3.81826,2.28448 -0.0821,0.25058 0.0843,0.25745 0.73577,0.0304 0.66611,-0.23221 0.88826,-0.21851 1.06385,0.0656 z m 9.51082,-0.4042 c 0,-0.0642 -0.11906,-0.19026 -0.26458,-0.2802 -0.14552,-0.0899 -0.26458,-0.0374 -0.26458,0.11668 0,0.15411 0.11906,0.2802 0.26458,0.2802 0.14552,0 0.26458,-0.0525 0.26458,-0.11668 z m 2.38125,-0.5604 c 0,-0.20969 -0.17859,-0.38126 -0.39687,-0.38126 -0.39853,0 -0.5439,0.55854 -0.22768,0.87476 0.24692,0.24692 0.62455,-0.0515 0.62455,-0.4935 z m 1.5875,0.0156 c 0,-0.21828 -0.17859,-0.39687 -0.39687,-0.39687 -0.21828,0 -0.39688,0.17859 -0.39688,0.39687 0,0.21828 0.1786,0.39688 0.39688,0.39688 0.21828,0 0.39687,-0.1786 0.39687,-0.39688 z m -21.43125,-0.13228 c 0,-0.14552 -0.11906,-0.26459 -0.26458,-0.26459 -0.14552,0 -0.26458,0.11907 -0.26458,0.26459 0,0.14552 0.11906,0.26458 0.26458,0.26458 0.14552,0 0.26458,-0.11906 0.26458,-0.26458 z m 15.27677,-0.54144 c -0.17754,-0.28429 -0.50253,-0.51311 -0.72218,-0.50848 -0.32569,0.007 -0.31395,0.0733 0.0636,0.3599 0.25466,0.19331 0.46302,0.49421 0.46302,0.66865 0,0.17445 0.11663,0.2451 0.25917,0.15701 0.16318,-0.10085 0.1396,-0.35162 -0.0636,-0.67708 z m 2.97948,0.44154 c 0,-0.20046 -0.20088,-0.52788 -0.44641,-0.7276 -0.39297,-0.31966 -0.42465,-0.30511 -0.26458,0.12153 0.1,0.26657 0.18183,0.59399 0.18183,0.72761 0,0.13361 0.11906,0.24294 0.26458,0.24294 0.14552,0 0.26458,-0.16401 0.26458,-0.36448 z m 23.94479,0.0999 c 0.0899,-0.14552 0.48723,-0.26459 0.88286,-0.26459 1.32848,0 2.42443,-1.95252 2.42443,-4.31929 0,-1.08407 -0.13426,-1.74052 -0.42072,-2.05706 -0.42907,-0.47412 -0.30794,-1.56115 0.17397,-1.56115 0.42244,0 0.27154,-1.17223 -0.30434,-2.36415 -0.3031,-0.62734 -0.61594,-1.54025 -0.6952,-2.02868 -0.12168,-0.74985 -0.0156,-1.00813 0.68174,-1.65952 0.64269,-0.60037 0.73819,-0.8051 0.43062,-0.92312 -0.72262,-0.2773 -1.24799,0.16388 -1.86999,1.57034 -0.43961,0.99403 -0.57176,1.66362 -0.46193,2.34043 0.0846,0.52142 0.0478,0.94804 -0.0817,0.94804 -0.37786,0 -0.89705,-1.00194 -0.73629,-1.42087 0.0809,-0.2109 -0.0613,-0.78115 -0.31595,-1.26723 -0.69679,-1.32976 -0.90958,-3.12629 -0.47134,-3.97949 0.20184,-0.39296 0.36698,-1.07757 0.36698,-1.52136 0,-0.62568 -0.11675,-0.80689 -0.51986,-0.80689 -0.66325,0 -1.06309,0.74965 -1.08441,2.03313 -0.0158,0.94889 -0.0331,0.96982 -0.28847,0.34812 -0.42873,-1.04375 -0.10859,-4.00088 0.48583,-4.48767 0.56471,-0.46245 1.40691,-1.61251 1.40691,-1.9212 0,-0.35815 -1.18146,-0.22232 -1.79321,0.20617 -0.56244,0.39394 -0.58804,0.38196 -0.58804,-0.27512 0,-1.0526 0.91702,-2.58019 1.97058,-3.28266 0.78841,-0.52567 1.09276,-0.59147 1.80402,-0.39003 0.47311,0.13399 0.97236,0.50539 1.11678,0.83079 0.22612,0.50947 0.92945,0.84763 0.92945,0.44687 0,-0.40975 -0.96659,-1.52169 -1.61365,-1.85629 -0.85033,-0.43973 -2.09052,-0.51018 -2.09052,-0.11877 0,0.14552 -0.28146,0.26458 -0.62547,0.26458 -1.07938,0 -2.02469,1.71363 -2.25073,4.08006 -0.1121,1.17357 -0.35225,2.17214 -0.57623,2.39602 -0.33562,0.33549 -0.39121,0.21481 -0.44104,-0.95747 -0.0314,-0.73775 -0.19104,-1.50283 -0.35484,-1.7002 -0.41715,-0.50264 -2.86326,-1.37957 -4.4267,-1.58696 -1.24676,-0.16539 -2.17019,-0.50875 -1.90066,-0.70671 0.0685,-0.0503 0.63065,-0.4157 1.24911,-0.81189 0.61847,-0.3962 1.12448,-0.89353 1.12448,-1.10517 0,-0.21165 0.15299,-0.32612 0.33997,-0.25436 0.18698,0.0717 1.10971,-0.59051 2.05052,-1.4717 1.64721,-1.54282 1.7526,-1.59708 2.84594,-1.46524 0.90265,0.10884 1.34553,0.004 2.16057,-0.51027 0.56385,-0.35594 1.10175,-0.77105 1.19533,-0.92247 0.29612,-0.47913 1.57709,-0.31061 1.9296,0.25386 0.18176,0.29104 0.44852,0.52917 0.59281,0.52917 0.49967,0 0.25934,-0.86815 -0.41274,-1.49102 -0.68126,-0.63136 -1.2651,-0.75077 -3.1179,-0.63766 -0.92326,0.0564 -0.98818,0.0179 -0.71929,-0.42604 0.16256,-0.2684 0.53275,-0.88429 0.82265,-1.36866 0.78438,-1.31056 0.92131,-3.55739 0.33209,-5.44882 -0.51301,-1.6468 -1.14038,-2.27022 -1.14038,-1.13321 0,0.35816 0.17859,1.07863 0.39687,1.60105 0.58815,1.40763 0.49384,2.87306 -0.27841,4.32629 -0.93402,1.75765 -1.06262,1.83068 -1.45768,0.8278 l -0.34662,-0.87994 -0.0999,0.85954 c -0.0578,0.49718 -0.31109,0.9726 -0.6009,1.1277 -0.27558,0.14748 -0.58058,0.69209 -0.67778,1.21024 -0.20477,1.09148 -2.81321,3.79531 -4.34395,4.5028 -0.50933,0.2354 -1.04647,0.56367 -1.19365,0.72949 -0.37035,0.41724 -1.91846,1.4921 -2.14905,1.4921 -0.10402,0 0.046,-0.26789 0.3333,-0.59531 0.72488,-0.82601 1.95106,-2.69253 1.95106,-2.96995 0,-0.12624 0.18896,-0.43832 0.41991,-0.69352 0.27521,-0.30411 0.45777,-1.13184 0.52978,-2.40209 0.10677,-1.88341 0.0819,-1.97897 -0.88293,-3.38733 -1.33818,-1.95342 -2.60269,-2.65344 -4.24046,-2.34747 -1.77315,0.33126 -1.8794,0.65198 -0.21061,0.63573 1.2356,-0.012 1.55066,0.0938 2.23754,0.7514 1.17196,1.12207 2.34028,3.86479 1.64629,3.86479 -0.1613,0 -0.29327,-0.12325 -0.29327,-0.27389 0,-0.56647 -0.84312,-1.54264 -1.21059,-1.40162 -0.52687,0.20217 -0.4695,1.21995 0.12715,2.2557 0.95419,1.65643 0.93546,2.79131 -0.0777,4.71148 -0.52654,0.99788 -1.11191,1.75956 -1.3945,1.81454 -0.42953,0.0836 -0.41675,0.0191 0.10829,-0.54622 0.32742,-0.35253 0.59531,-0.81784 0.59531,-1.03402 0,-0.21618 0.12718,-0.52024 0.28263,-0.67568 0.15545,-0.15545 0.24475,-0.74382 0.19844,-1.30749 -0.0628,-0.7649 -0.21398,-1.04949 -0.59587,-1.12197 -0.7801,-0.14806 -1.20812,0.69337 -1.20812,2.37502 0,0.83584 -0.11611,1.82511 -0.25803,2.19839 -0.17627,0.46361 -0.16928,0.67868 0.022,0.67868 0.55274,0 0.0628,0.60515 -0.94813,1.17111 -1.92682,1.0787 -1.21644,1.62281 1.05182,0.80563 1.30255,-0.46925 2.15147,-0.48405 3.71896,-0.0648 1.01419,0.27126 1.23775,0.44816 1.36399,1.07937 0.083,0.41522 0.37234,0.89318 0.64287,1.06214 0.27054,0.16895 0.49189,0.58612 0.49189,0.92705 0,0.38117 0.12735,0.57533 0.33073,0.50421 0.1819,-0.0636 0.29574,-0.31165 0.25298,-0.55121 -0.0446,-0.24986 0.0964,-0.43557 0.33073,-0.43557 0.51082,0 0.52172,-0.7027 0.0257,-1.65365 -0.43152,-0.82721 -0.27883,-0.92951 0.42995,-0.28807 0.26712,0.24174 0.75274,0.57622 1.07916,0.74329 0.45518,0.23296 0.57784,0.5005 0.52634,1.14797 -0.0384,0.48285 0.0587,0.84421 0.22675,0.84421 0.16164,0 0.22536,0.17859 0.1416,0.39687 -0.0902,0.23508 -0.003,0.39688 0.21423,0.39688 0.20158,0 0.42657,-0.14883 0.49997,-0.33073 0.0813,-0.20154 0.14161,-0.15388 0.15434,0.12198 0.0115,0.249 0.25279,0.66876 0.53622,0.93282 0.31874,0.29695 0.43464,0.61065 0.30383,0.82231 -0.19392,0.31376 0.22629,1.2846 1.84064,4.25252 0.62753,1.15367 0.35082,1.6469 -0.42072,0.74993 -0.32253,-0.37497 -1.1071,-1.08347 -1.74348,-1.57444 -0.63638,-0.49097 -1.57055,-1.27528 -2.07592,-1.74291 -0.50537,-0.46763 -1.0143,-0.85023 -1.13096,-0.85023 -0.11666,0 -0.95333,-0.4629 -1.85927,-1.02866 -0.90593,-0.56576 -1.91505,-1.10956 -2.24247,-1.20845 -0.77879,-0.23522 -0.75139,-0.56443 0.10854,-1.30412 0.79189,-0.68115 0.6556,-1.22127 -0.30815,-1.22127 -0.42667,0 -0.74612,0.23593 -0.98515,0.7276 -0.30122,0.61959 -0.48931,0.71404 -1.26696,0.63624 -0.50227,-0.0503 -1.25055,-0.26579 -1.66284,-0.479 -1.43501,-0.74207 -1.70131,-0.26911 -0.35177,0.62478 0.70059,0.46405 1.41169,0.89398 1.58022,0.9554 0.22817,0.0832 0.22197,0.25472 -0.0243,0.67182 -0.49853,0.84434 -0.42511,1.89107 0.1323,1.88619 0.64443,-0.006 0.98682,-0.27548 1.42587,-1.12374 l 0.37832,-0.73091 1.25683,0.79706 c 0.69126,0.43838 1.36264,0.79706 1.49196,0.79706 0.12932,0 0.75027,0.38812 1.37987,0.86249 1.48475,1.11865 2.48525,1.76173 3.79058,2.43643 0.58209,0.30087 1.07434,0.75008 1.09391,0.99825 0.0447,0.56728 -0.43785,0.33192 -2.00633,-0.97851 -0.61711,-0.51557 -1.25958,-0.93815 -1.42771,-0.93904 -0.16814,-8e-4 -0.66289,-0.19625 -1.09945,-0.43412 -0.93647,-0.51026 -3.74341,-0.56189 -5.63126,-0.10358 -1.26956,0.3082 -3.23228,1.81212 -3.23228,2.47669 0,0.18851 -0.17481,0.57386 -0.38846,0.85634 -0.51996,0.68745 -0.50779,2.87333 0.0238,4.26515 0.32933,0.86235 0.62738,1.18888 1.28253,1.4051 0.88922,0.29347 1.83204,0.12051 1.57859,-0.28959 -0.0805,-0.13028 -0.43702,-0.23686 -0.79224,-0.23686 -0.35521,0 -0.64584,-0.11104 -0.64584,-0.24676 0,-0.13571 -0.22985,-0.3197 -0.51078,-0.40886 -1.25616,-0.39869 -0.99647,-3.52583 0.42773,-5.15058 1.59299,-1.81733 2.90825,-2.2016 6.43305,-1.87952 1.11285,0.10169 3.90879,1.12468 4.22434,1.54562 0.0777,0.10365 0.6473,0.53174 1.26577,0.9513 0.61846,0.41957 1.12447,0.86995 1.12447,1.00085 0,0.1309 0.50602,0.45929 1.12448,0.72974 0.61847,0.27046 1.34566,0.75881 1.61599,1.08523 l 0.4915,0.59347 -0.75609,-0.17037 c -1.90089,-0.42833 -2.52244,-0.48447 -3.59035,-0.32433 -1.38155,0.20718 -1.89778,1.05025 -1.55453,2.53879 0.22023,0.95505 0.59191,0.64638 0.47788,-0.39687 -0.0462,-0.42256 0.2291,-0.62433 1.36631,-1.00146 1.23241,-0.4087 1.48175,-0.4219 1.85208,-0.0981 0.70586,0.61727 2.14499,1.26472 2.42563,1.09128 0.3716,-0.22966 1.0453,1.52101 1.04355,2.71171 -0.003,1.83023 -0.48163,2.99123 -1.3918,3.37393 -0.45538,0.19147 -0.98304,0.28863 -1.17256,0.21591 -0.54889,-0.21063 -0.40783,-1.16695 0.1954,-1.3247 0.6895,-0.18031 0.52786,-0.70843 -0.2518,-0.8227 -0.70346,-0.10309 -1.6111,0.63155 -1.6111,1.30404 0,0.26023 0.24079,0.64181 0.53509,0.84795 0.33629,0.23555 0.47323,0.53602 0.36857,0.80875 -0.12094,0.31517 -0.0182,0.43396 0.37533,0.43396 0.29803,0 0.61545,-0.11906 0.70538,-0.26458 z m -19.44687,-0.52917 c -0.27966,-0.52254 -0.79375,-0.72818 -0.79375,-0.3175 0,0.27825 0.57466,0.84667 0.85597,0.84667 0.12154,0 0.0935,-0.23813 -0.0622,-0.52917 z m 2.05048,-0.15438 c -0.25213,-0.25213 -0.75763,0.15627 -0.56972,0.4603 0.11168,0.18071 0.25967,0.17615 0.44969,-0.0139 0.15578,-0.15578 0.20979,-0.35667 0.12003,-0.44643 z m 3.50577,0.28667 c 0,-0.21828 -0.11906,-0.39687 -0.26458,-0.39687 -0.14553,0 -0.26459,0.17859 -0.26459,0.39687 0,0.21828 0.11906,0.39688 0.26459,0.39688 0.14552,0 0.26458,-0.1786 0.26458,-0.39688 z m 2.11667,0.13229 c 0,-0.14552 -0.11907,-0.26458 -0.26459,-0.26458 -0.14552,0 -0.26458,0.11906 -0.26458,0.26458 0,0.14552 0.11906,0.26459 0.26458,0.26459 0.14552,0 0.26459,-0.11907 0.26459,-0.26459 z m 2.64583,-0.2802 c 0,-0.13693 -0.1786,-0.24896 -0.39688,-0.24896 -0.40915,0 -0.52564,0.31219 -0.22768,0.61017 0.21139,0.21138 0.62456,-0.0276 0.62456,-0.36121 z m -16.40417,0.16353 c 0,-0.0642 -0.11906,-0.19026 -0.26458,-0.2802 -0.14552,-0.0899 -0.26458,-0.0374 -0.26458,0.11667 0,0.15411 0.11906,0.2802 0.26458,0.2802 0.14552,0 0.26458,-0.0525 0.26458,-0.11667 z m 21.82813,-0.12674 c 0.98378,2.6e-4 1.02106,-0.0258 0.52916,-0.37162 -0.29104,-0.20461 -0.82682,-0.46397 -1.19062,-0.57635 -0.3638,-0.11238 -0.9277,-0.41215 -1.25312,-0.66615 -0.57138,-0.44601 -3.08541,-0.93919 -4.17084,-0.81821 -0.6128,0.0683 -1.71979,1.20404 -1.71979,1.76446 0,0.48467 0.51265,0.49451 0.89687,0.0172 0.16157,-0.2007 0.87207,-0.4383 1.57891,-0.52799 1.24789,-0.15836 1.28064,-0.14508 1.1293,0.45792 -0.22279,0.88768 0.043,1.0238 1.68526,0.86297 0.8011,-0.0785 1.93278,-0.14246 2.51487,-0.14223 z m -19.21362,-0.5697 c -0.40132,-0.24803 -0.83457,-0.0469 -0.62598,0.29067 0.0798,0.12911 0.32985,0.16385 0.55567,0.0772 0.32072,-0.12307 0.33611,-0.20358 0.0703,-0.36786 z m 10.20382,-0.003 c -0.0852,-0.13784 -0.26767,-0.18091 -0.40551,-0.0957 -0.13784,0.0852 -0.18092,0.26766 -0.0957,0.4055 0.0852,0.13784 0.26767,0.18092 0.40551,0.0957 0.13784,-0.0852 0.18092,-0.26767 0.0957,-0.40551 z m -23.22527,-0.77116 c 0,-0.43656 -0.0992,-0.79375 -0.22049,-0.79375 -0.12126,0 -0.22048,0.35719 -0.22048,0.79375 0,0.43657 0.0992,0.79375 0.22048,0.79375 0.12127,0 0.22049,-0.35718 0.22049,-0.79375 z m 17.55069,0.38126 c 0,-0.22687 -0.121,-0.3377 -0.2689,-0.2463 -0.14789,0.0914 -0.2004,0.27703 -0.11667,0.41249 0.22681,0.36699 0.38557,0.29856 0.38557,-0.16619 z m 2.23499,-0.13927 c -0.0852,-0.13784 -0.26766,-0.18092 -0.4055,-0.0957 -0.13784,0.0852 -0.18092,0.26767 -0.0957,0.40551 0.0852,0.13784 0.26767,0.18092 0.40551,0.0957 0.13784,-0.0852 0.18091,-0.26766 0.0957,-0.4055 z m 1.99835,0.13927 c 0,-0.22687 -0.11907,-0.3389 -0.26459,-0.24896 -0.14552,0.0899 -0.26458,0.27555 -0.26458,0.41249 0,0.13693 0.11906,0.24896 0.26458,0.24896 0.14552,0 0.26459,-0.18562 0.26459,-0.41249 z m -20.98593,-0.69545 c -0.0845,-0.21107 -0.14716,-0.14837 -0.15985,0.15985 -0.0115,0.27892 0.051,0.43519 0.13896,0.34727 0.0879,-0.0879 0.0973,-0.31612 0.0209,-0.50712 z m 11.99009,0.1511 c 0.80037,-0.0694 3.35326,-0.18319 5.6731,-0.25277 2.31984,-0.0696 4.28092,-0.18955 4.35796,-0.26658 0.31391,-0.31391 -0.72604,-0.63297 -2.09356,-0.6423 -2.04785,-0.014 -2.52866,-0.47224 -2.77411,-2.64401 -0.25431,-2.2501 -0.26113,-5.37679 -0.0182,-8.33437 0.108,-1.31486 0.0835,-3.06629 -0.0548,-3.91094 -0.13772,-0.84132 -0.15398,-1.58928 -0.0361,-1.66212 0.11785,-0.0728 0.16362,-0.27745 0.1017,-0.45469 -0.40892,-1.17058 -0.8185,-23.666 -0.48109,-26.42387 0.13568,-1.10904 0.2456,-1.27092 1.11128,-1.63657 1.42947,-0.60379 2.90769,-1.0224 3.13835,-0.88873 0.11198,0.0649 0.44173,0.0269 0.73277,-0.0843 0.48259,-0.18452 0.45929,-0.23009 -0.26458,-0.51757 -0.5789,-0.2299 -2.49583,-0.27087 -7.08182,-0.15135 -6.01917,0.15687 -7.47027,0.31917 -7.47027,0.83549 0,0.12885 -0.14043,0.23579 -0.31206,0.23765 -0.51998,0.006 -0.75405,0.40799 -0.37399,0.64289 0.45855,0.28339 0.13899,0.80894 -0.49188,0.80894 -0.84885,0 -0.89838,-0.83135 -0.089,-1.4938 0.40577,-0.33211 0.6187,-0.62331 0.47318,-0.64712 -1.51643,-0.24806 -1.8823,-0.002 -3.09177,2.07555 -0.7523,1.29254 -1.07339,1.2458 -0.70122,-0.10208 0.40424,-1.46404 -0.19971,-3.30268 -0.67662,-2.05987 -0.0883,0.23018 -0.1606,0.61752 -0.1606,0.86074 0,0.24323 -0.41672,1.02835 -0.92604,1.74473 -0.96588,1.35853 -1.24483,2.79685 -0.54243,2.79685 0.21098,0 0.93922,-0.37498 1.6183,-0.83328 1.27354,-0.8595 1.83569,-0.95238 3.74158,-0.61818 l 1.11328,0.19521 0.4368,-1.09166 c 0.24024,-0.60042 0.53618,-1.09167 0.65765,-1.09167 0.49901,0 1.04414,1.24813 1.03685,2.37397 -0.006,0.95046 -0.16934,1.37553 -0.79002,2.0578 -0.91212,1.00264 -1.0543,1.04724 -1.0543,0.33073 0,-0.81571 -0.5153,-0.62699 -0.9177,0.3361 -0.3467,0.82975 -0.90251,1.45364 -1.70695,1.91601 -0.27935,0.16057 -0.33237,0.10304 -0.20675,-0.22433 0.0929,-0.24216 0.0992,-0.62202 0.014,-0.84414 -0.13105,-0.3415 -0.33109,-0.30065 -1.29558,0.26458 -0.62733,0.36765 -1.31926,0.66844 -1.53762,0.66844 -0.60008,0 -1.22855,-0.75226 -1.22855,-1.47055 0,-0.4867 -0.23316,-0.73643 -0.9782,-1.04773 -0.53801,-0.22479 -1.12462,-0.35253 -1.30357,-0.28386 -0.17896,0.0687 -0.45827,-0.0353 -0.6207,-0.23098 -0.36466,-0.43939 -0.0758,-1.72938 0.38718,-1.72938 0.35473,0 1.19237,-1.10868 1.19237,-1.57819 0,-0.15064 -0.30184,-0.27389 -0.67076,-0.27389 -0.57542,0 -0.63278,-0.071 -0.40354,-0.49933 0.16793,-0.31377 0.73674,-0.58761 1.53066,-0.73689 1.16515,-0.21908 1.25943,-0.2944 1.21193,-0.96822 -0.0391,-0.55535 0.1037,-0.79119 0.59532,-0.9829 2.10575,-0.82119 2.08711,-0.80939 1.69134,-1.07065 -0.47171,-0.31139 -3.2116,-0.0387 -4.32703,0.43064 -0.4502,0.18943 -1.12299,0.6816 -1.49509,1.0937 -0.8306,0.91988 -2.10158,2.88972 -2.10158,3.25714 0,0.55639 0.47667,0.24202 0.79375,-0.52349 0.37575,-0.90714 0.79375,-1.04648 0.79375,-0.26458 0,0.29104 -0.11679,0.52916 -0.25954,0.52916 -0.14275,0 -0.33425,0.29766 -0.42556,0.66146 -0.0913,0.3638 -0.27217,0.66146 -0.40191,0.66146 -0.37617,0 -0.27684,0.63393 0.30564,1.95074 0.50652,1.14507 0.60636,1.22426 1.54341,1.22426 0.55102,0 1.07109,0.0692 1.15572,0.15387 0.0846,0.0846 -0.0232,0.57762 -0.23957,1.09552 -0.45443,1.08761 -0.27182,4.37378 0.32387,5.82821 0.40866,0.99778 0.31743,1.02353 -1.50922,0.42606 -1.28154,-0.41917 -1.36495,-0.41457 -2.4672,0.13592 -0.66692,0.33308 -1.20383,0.81074 -1.29252,1.14988 -0.20798,0.79532 -0.0383,0.88169 0.73578,0.37451 0.98426,-0.64492 1.59352,-0.53283 2.68157,0.49332 0.63673,0.60052 1.24029,0.92604 1.71699,0.92604 1.07449,0 1.58347,0.25997 1.84241,0.94105 0.21684,0.57033 4.24625,3.82145 4.73628,3.82145 0.12567,0 0.29702,0.1786 0.38078,0.39688 0.0838,0.21828 0.43093,0.39687 0.77149,0.39687 0.94349,0 1.62353,0.61124 1.44397,1.29788 -0.11563,0.44215 -0.006,0.63897 0.45321,0.81355 0.33316,0.12667 0.84687,0.53685 1.14159,0.91152 0.59252,0.75327 1.38573,0.90943 1.38573,0.2728 0,-0.22464 -0.30692,-0.73065 -0.68204,-1.12448 -0.99418,-1.04378 -1.15997,-1.6596 -0.99062,-3.67964 0.12675,-1.51182 0.0766,-1.8735 -0.30333,-2.18883 -0.40358,-0.33494 -0.51139,-0.30427 -0.95129,0.27066 -0.27287,0.35663 -0.44912,0.82701 -0.39167,1.04529 0.40711,1.54695 0.43521,2.11027 0.0988,1.9805 -0.47376,-0.18274 -1.27915,-2.19259 -1.27185,-3.1739 0.003,-0.43504 0.23871,-1.08863 0.52328,-1.45243 0.60005,-0.76712 0.71752,-2.38125 0.1733,-2.38125 -0.62047,0 -1.27126,0.97833 -1.42796,2.14666 -0.13742,1.02453 -0.17342,1.07009 -0.38775,0.49072 -0.27754,-0.75028 -0.0376,-2.4666 0.48852,-3.49468 0.62335,-1.21801 2.96121,-2.1597 4.13045,-1.66374 0.28041,0.11894 0.46302,0.0809 0.46302,-0.0965 0,-0.16109 -0.11906,-0.29289 -0.26458,-0.29289 -0.14552,0 -0.26458,-0.16568 -0.26458,-0.36819 0,-0.80931 -2.46171,-0.69436 -3.77629,0.17634 -0.89102,0.59015 -1.8891,3.35606 -1.66203,4.60588 0.20485,1.12761 0.82483,3.07773 1.20324,3.7848 0.57025,1.06553 -0.15478,0.6342 -1.87133,-1.11327 -1.57118,-1.59947 -1.83274,-1.99993 -1.84271,-2.82117 -0.006,-0.5264 -0.16676,-1.3914 -0.35639,-1.92222 -0.22197,-0.62134 -0.25828,-1.11968 -0.10195,-1.39903 0.39337,-0.70292 0.11783,-0.98467 -0.52361,-0.53539 -0.41999,0.29417 -0.59393,0.68283 -0.59393,1.32705 0,0.50107 -0.1105,0.91104 -0.24555,0.91104 -0.63251,0 -0.97358,-8.19124 -0.34977,-8.40006 0.20081,-0.0672 0.33304,0.13182 0.33662,0.50665 0.007,0.781 0.64969,1.56225 1.8963,2.30671 1.81789,1.08562 4.53234,0.37659 6.73247,-1.75857 0.98738,-0.95821 1.10294,-1.21164 1.27188,-2.78919 0.20062,-1.87327 0.0276,-2.4537 -1.08886,-3.65248 l -0.64267,-0.69007 1.4026,0.12452 c 0.77143,0.0685 1.70026,0.26155 2.06406,0.42904 l 0.66146,0.30453 -0.0277,7.93394 c -0.0152,4.36366 -0.0548,9.48175 -0.0879,11.37352 -0.0331,1.89177 0.002,4.09443 0.0779,4.89479 0.076,0.80036 0.13755,4.31271 0.13686,7.80521 -6.9e-4,3.4925 -1.4e-4,7.36203 10e-4,8.59896 0.003,3.09223 -0.27887,3.88317 -1.50748,4.22441 -0.53576,0.1488 -1.24201,0.27122 -1.56943,0.27203 -0.32744,8.1e-4 -0.59533,0.0967 -0.59533,0.21314 0,0.49052 0.60828,0.74939 1.52905,0.65074 0.54147,-0.058 1.63934,-0.1623 2.4397,-0.23175 z m -16.93333,-0.10149 c 0,-0.14552 -0.11906,-0.26458 -0.26458,-0.26458 -0.14552,0 -0.26459,0.11906 -0.26459,0.26458 0,0.14552 0.11907,0.26458 0.26459,0.26458 0.14552,0 0.26458,-0.11906 0.26458,-0.26458 z m 6.61458,-0.26458 c 0,-0.14552 -0.11906,-0.26459 -0.26458,-0.26459 -0.14552,0 -0.26458,0.11907 -0.26458,0.26459 0,0.14552 0.11906,0.26458 0.26458,0.26458 0.14552,0 0.26458,-0.11906 0.26458,-0.26458 z m 4.60104,-0.84141 c 0.12947,-0.36623 0.15928,-1.07164 0.0662,-1.56757 -0.14408,-0.76806 -0.32701,-0.95097 -1.23422,-1.23411 -1.50243,-0.4689 -2.50329,0.0566 -2.7264,1.43142 -0.26644,1.64188 0.85441,2.36881 1.37036,0.88875 0.31909,-0.91534 0.8191,-1.01128 1.4777,-0.28354 0.30745,0.33972 0.40028,0.70381 0.27782,1.08963 -0.26682,0.84069 0.46595,0.5312 0.7685,-0.32458 z m 17.21579,0.59511 c 0.0837,-0.13547 0.0312,-0.32109 -0.11668,-0.41249 -0.14789,-0.0914 -0.2689,0.0194 -0.2689,0.2463 0,0.46474 0.15877,0.53317 0.38558,0.16619 z m -18.37724,-0.28287 c 0,-0.14552 -0.11907,-0.26458 -0.26459,-0.26458 -0.14552,0 -0.26458,0.11906 -0.26458,0.26458 0,0.14552 0.11906,0.26458 0.26458,0.26458 0.14552,0 0.26459,-0.11906 0.26459,-0.26458 z m -6.61459,-0.26458 c 0,-0.14552 -0.17859,-0.26459 -0.39687,-0.26459 -0.21828,0 -0.39688,0.11907 -0.39688,0.26459 0,0.14552 0.1786,0.26458 0.39688,0.26458 0.21828,0 0.39687,-0.11906 0.39687,-0.26458 z m 33.17074,-0.33073 c 0.26637,-0.99395 0.19058,-1.25677 -0.3624,-1.25677 -0.5663,0 -0.75616,0.77941 -0.19844,0.81464 0.26458,0.0167 0.26458,0.0476 0,0.15434 -0.44898,0.18116 -0.42093,0.8831 0.0353,0.8831 0.2013,0 0.4378,-0.26789 0.52555,-0.59531 z m -36.61032,-0.0818 c 0,-0.22687 -0.11906,-0.33891 -0.26458,-0.24897 -0.14552,0.0899 -0.26459,0.27556 -0.26459,0.41249 0,0.13693 0.11907,0.24897 0.26459,0.24897 0.14552,0 0.26458,-0.18562 0.26458,-0.41249 z m 6.08542,0.16352 c 0,-0.45838 -0.4657,-0.54319 -0.79617,-0.14499 -0.27209,0.32784 -0.23272,0.39396 0.2346,0.39396 0.30886,0 0.56157,-0.11204 0.56157,-0.24897 z m 21.57015,-0.52415 c 0.0109,-0.98054 0.78738,-1.19801 1.41746,-0.39699 0.65676,0.83493 1.09248,0.63368 1.08067,-0.49915 -0.0162,-1.54929 -1.32301,-2.45775 -2.57448,-1.78964 -0.25269,0.1349 -0.66779,0.30975 -0.92245,0.38857 -0.98001,0.30331 -0.26038,3.23496 0.7276,2.96415 0.14552,-0.0399 0.26756,-0.34002 0.2712,-0.66694 z m 7.20879,0.45892 c -0.16353,-0.49059 -0.73311,-0.57196 -0.73311,-0.10473 0,0.23041 0.18851,0.41893 0.41892,0.41893 0.23041,0 0.3718,-0.14139 0.31419,-0.3142 z m 2.70647,0.0496 c 0,-0.14552 -0.11906,-0.26458 -0.26458,-0.26458 -0.14552,0 -0.26458,0.11906 -0.26458,0.26458 0,0.14552 0.11906,0.26459 0.26458,0.26459 0.14552,0 0.26458,-0.11907 0.26458,-0.26459 z m -32.94062,-0.26458 c 0.0899,-0.14552 -0.0221,-0.26458 -0.24897,-0.26458 -0.22687,0 -0.41249,0.11906 -0.41249,0.26458 0,0.14552 0.11204,0.26458 0.24897,0.26458 0.13693,0 0.32255,-0.11906 0.41249,-0.26458 z m -1.29536,-0.72209 c -0.26895,-0.26895 -0.49087,0.13596 -0.2702,0.49302 0.1667,0.26972 0.22902,0.26993 0.31864,10e-4 0.0613,-0.18383 0.0395,-0.40617 -0.0484,-0.49409 z m 11.48182,0.19292 c 0,-0.14552 -0.11907,-0.26458 -0.26459,-0.26458 -0.14552,0 -0.26458,0.11906 -0.26458,0.26458 0,0.14552 0.11906,0.26459 0.26458,0.26459 0.14552,0 0.26459,-0.11907 0.26459,-0.26459 z m 16.70843,-0.13229 c 0,-0.13824 -0.12799,-0.29402 -0.28442,-0.34616 -0.15644,-0.0521 -0.28443,0.10363 -0.28443,0.34616 0,0.24254 0.12799,0.39831 0.28443,0.34616 0.15643,-0.0521 0.28442,-0.20791 0.28442,-0.34616 z m 10.01448,0.13229 c 0,-0.14552 -0.0525,-0.26458 -0.11667,-0.26458 -0.0642,0 -0.19027,0.11906 -0.2802,0.26458 -0.0899,0.14552 -0.0374,0.26459 0.11667,0.26459 0.15411,0 0.2802,-0.11907 0.2802,-0.26459 z m -40.48125,-0.54478 c 0,-0.13693 -0.17485,-0.24897 -0.38857,-0.24897 -0.23603,0 -0.32901,0.15521 -0.23686,0.39536 0.15618,0.407 0.62543,0.29717 0.62543,-0.14639 z m 1.32292,0.29582 c 0,-0.13694 -0.11906,-0.32256 -0.26458,-0.41249 -0.14552,-0.0899 -0.26459,0.0221 -0.26459,0.24896 0,0.22687 0.11907,0.41249 0.26459,0.41249 0.14552,0 0.26458,-0.11203 0.26458,-0.24896 z m 22.225,-0.0156 c 0,-0.14552 -0.11906,-0.26458 -0.26458,-0.26458 -0.14553,0 -0.26459,0.11906 -0.26459,0.26458 0,0.14552 0.11906,0.26458 0.26459,0.26458 0.14552,0 0.26458,-0.11906 0.26458,-0.26458 z m -18.52083,-0.26458 c 0,-0.14552 -0.12609,-0.26459 -0.2802,-0.26459 -0.15411,0 -0.20662,0.11907 -0.11668,0.26459 0.0899,0.14552 0.21603,0.26458 0.2802,0.26458 0.0642,0 0.11668,-0.11906 0.11668,-0.26458 z m 29.10416,-0.13229 c 0,-0.21829 -0.17859,-0.39688 -0.39687,-0.39688 -0.21828,0 -0.39688,0.17859 -0.39688,0.39688 0,0.21828 0.1786,0.39687 0.39688,0.39687 0.21828,0 0.39687,-0.17859 0.39687,-0.39687 z m -1.85208,-0.1323 c 0,-0.14552 -0.11906,-0.26458 -0.26458,-0.26458 -0.14553,0 -0.26459,0.11906 -0.26459,0.26458 0,0.14552 0.11906,0.26459 0.26459,0.26459 0.14552,0 0.26458,-0.11907 0.26458,-0.26459 z m -29.63333,-0.26458 c 0,-0.14552 -0.1786,-0.26458 -0.39688,-0.26458 -0.21828,0 -0.39687,0.11906 -0.39687,0.26458 0,0.14552 0.17859,0.26458 0.39687,0.26458 0.21828,0 0.39688,-0.11906 0.39688,-0.26458 z m 11.64166,0 c 0,-0.14552 -0.11906,-0.26458 -0.26458,-0.26458 -0.14552,0 -0.26458,0.11906 -0.26458,0.26458 0,0.14552 0.11906,0.26458 0.26458,0.26458 0.14552,0 0.26458,-0.11906 0.26458,-0.26458 z m 25.86299,-0.41896 c -0.25214,-0.25214 -0.75764,0.15626 -0.56973,0.4603 0.11168,0.18071 0.25968,0.17614 0.44969,-0.0139 0.15578,-0.15577 0.2098,-0.35666 0.12004,-0.44642 z m -38.82757,0.15438 c 0,-0.14552 -0.11906,-0.26459 -0.26458,-0.26459 -0.14552,0 -0.26459,0.11907 -0.26459,0.26459 0,0.14552 0.11907,0.26458 0.26459,0.26458 0.14552,0 0.26458,-0.11906 0.26458,-0.26458 z m 23.13707,-0.28718 c -0.0852,-0.13784 -0.26766,-0.18092 -0.4055,-0.0957 -0.13784,0.0852 -0.18092,0.26767 -0.0957,0.40551 0.0852,0.13783 0.26767,0.18091 0.40551,0.0957 0.13784,-0.0852 0.18091,-0.26766 0.0957,-0.4055 z m 11.47263,0.26733 c -0.0521,-0.15643 -0.20792,-0.28442 -0.34616,-0.28442 -0.13824,0 -0.29402,0.12799 -0.34616,0.28442 -0.0521,0.15644 0.10362,0.28443 0.34616,0.28443 0.24254,0 0.39831,-0.12799 0.34616,-0.28443 z m 2.43196,-0.11244 c 0,-0.21829 -0.11906,-0.39688 -0.26458,-0.39688 -0.14552,0 -0.26458,0.17859 -0.26458,0.39688 0,0.21828 0.11906,0.39687 0.26458,0.39687 0.14552,0 0.26458,-0.17859 0.26458,-0.39687 z m -37.83541,-0.1323 c 0,-0.14552 -0.23813,-0.26458 -0.52917,-0.26458 -0.29104,0 -0.52916,0.11906 -0.52916,0.26458 0,0.14552 0.23812,0.26459 0.52916,0.26459 0.29104,0 0.52917,-0.11907 0.52917,-0.26459 z m 5.32909,-0.02 c 0.68184,-0.36491 1.55008,-1.23151 1.55008,-1.54716 0,-0.13436 -0.29676,-0.59697 -0.65947,-1.02802 -0.89799,-1.0672 -3.0447,-1.38298 -3.0447,-0.44787 0,0.18694 0.29766,0.41459 0.66146,0.5059 0.3638,0.0913 0.66146,0.33432 0.66146,0.54002 0,0.42192 -0.91203,0.7959 -1.32242,0.54226 -0.14785,-0.0914 -0.34737,0.0385 -0.44337,0.28872 -0.11524,0.30033 0.0302,0.62062 0.42806,0.94281 0.68266,0.55279 1.39174,0.61927 2.1689,0.20335 z m 27.59757,-0.26715 c -0.0852,-0.13784 -0.26767,-0.18092 -0.40551,-0.0957 -0.13784,0.0852 -0.18092,0.26767 -0.0957,0.40551 0.0852,0.13784 0.26767,0.18092 0.40551,0.0957 0.13784,-0.0852 0.18092,-0.26767 0.0957,-0.40551 z m -30.91827,-0.40711 c -0.13577,-0.35381 -0.24343,-0.38275 -0.4935,-0.13268 -0.25007,0.25007 -0.23542,0.37202 0.0672,0.55902 0.49268,0.3045 0.64741,0.14977 0.42634,-0.42634 z m 28.97642,0.36356 c 0.21686,-0.1819 0.55984,-0.54871 0.76219,-0.81515 0.34423,-0.45326 0.30749,-0.47308 -0.57136,-0.30821 -0.76228,0.14301 -0.97385,0.086 -1.12289,-0.30235 -0.17962,-0.4681 -0.0395,-0.64047 1.05925,-1.30263 0.71275,-0.42956 0.20663,-0.90968 -0.95894,-0.90968 -0.95544,0 -1.07843,0.0867 -1.57189,1.10803 -0.64012,1.32491 -0.65929,1.53781 -0.13846,1.53781 0.21828,0 0.39687,0.15478 0.39687,0.34396 0,0.88538 1.36924,1.29913 2.14523,0.64822 z m 5.73164,0.0165 c -0.16353,-0.49059 -0.73312,-0.57196 -0.73312,-0.10473 0,0.23041 0.18852,0.41892 0.41892,0.41892 0.23041,0 0.3718,-0.14138 0.3142,-0.31419 z m -25.93105,-0.59683 c 0.74149,-0.85279 0.97321,-2.25003 0.47858,-2.88578 -0.43419,-0.55807 -0.94523,-0.37401 -0.94523,0.34044 0,0.26463 -0.18083,0.63123 -0.40184,0.81465 -0.32885,0.27292 -0.49705,0.24733 -0.92604,-0.1409 -0.67113,-0.60737 -0.66908,-0.9099 0.005,-0.73363 0.29586,0.0774 0.52917,0.008 0.52917,-0.15706 0,-0.1625 -0.16867,-0.29545 -0.37483,-0.29545 -0.20615,0 -0.42154,-0.14014 -0.47863,-0.31142 -0.14624,-0.4387 -0.66874,-0.0531 -1.12581,0.83072 -0.34302,0.66333 -0.34069,0.84519 0.0202,1.56853 0.81936,1.64244 2.25792,2.07582 3.21951,0.9699 z m 25.02578,-0.007 c 0.18659,-0.48626 -0.30948,-0.8233 -0.67451,-0.45826 -0.28242,0.28241 -0.0793,0.84666 0.3048,0.84666 0.12137,0 0.28773,-0.17478 0.36971,-0.3884 z m -34.48826,-0.12515 c 0,-0.31218 -0.51603,-0.64612 -0.70556,-0.45659 -0.18952,0.18952 0.14442,0.70555 0.45659,0.70555 0.13693,0 0.24897,-0.11203 0.24897,-0.24896 z m 31.75,-0.54479 c 0,-0.14552 -0.11907,-0.26458 -0.26459,-0.26458 -0.14552,0 -0.26458,0.11906 -0.26458,0.26458 0,0.14552 0.11906,0.26459 0.26458,0.26459 0.14552,0 0.26459,-0.11907 0.26459,-0.26459 z m -6.35921,-0.588 c 1.25633,-0.72305 1.86713,-2.17991 1.37072,-3.26939 -0.35557,-0.7804 -0.92544,-0.73217 -1.04667,0.0886 -0.15972,1.0814 -0.75265,1.24688 -1.67794,0.4683 l -0.84456,-0.71064 -0.342,0.61651 c -0.53719,0.96834 -0.42112,1.84747 0.3502,2.65255 0.85617,0.89365 0.89988,0.89673 2.19025,0.15408 z m 4.97011,-0.36012 c -0.25214,-0.25214 -0.75764,0.15626 -0.56973,0.46029 0.11168,0.18071 0.25968,0.17615 0.44969,-0.0139 0.15578,-0.15578 0.2098,-0.35667 0.12004,-0.44642 z m 1.2455,-0.88568 c 0.19568,-0.3166 -0.30205,-0.6303 -0.65447,-0.41249 -0.2959,0.18288 -0.10165,0.65879 0.2689,0.65879 0.12834,0 0.30185,-0.11083 0.38557,-0.2463 z m 0.79375,-0.52916 c 0.0837,-0.13547 0.0312,-0.32109 -0.11667,-0.41249 -0.1479,-0.0914 -0.2689,0.0194 -0.2689,0.2463 0,0.46474 0.15876,0.53317 0.38557,0.16619 z m -31.34182,-0.28287 c 0,-0.14552 -0.11906,-0.26458 -0.26458,-0.26458 -0.14552,0 -0.26459,0.11906 -0.26459,0.26458 0,0.14552 0.11907,0.26458 0.26459,0.26458 0.14552,0 0.26458,-0.11906 0.26458,-0.26458 z m 1.39009,-0.40349 c 0.0151,-0.14188 -0.17199,-0.29638 -0.41579,-0.34334 -0.31412,-0.0605 -0.3955,0.0391 -0.27932,0.34192 0.17132,0.44645 0.64759,0.44742 0.69511,10e-4 z m 28.24324,0.13891 c 0,-0.14552 -0.12609,-0.26459 -0.2802,-0.26459 -0.15411,0 -0.20661,0.11907 -0.11667,0.26459 0.0899,0.14552 0.21602,0.26458 0.2802,0.26458 0.0642,0 0.11667,-0.11906 0.11667,-0.26458 z m -37.17872,-5.35782 c -0.0853,-2.94679 -0.18779,-5.64586 -0.2278,-5.99793 -0.04,-0.35206 0.0635,-1.50853 0.23001,-2.56992 0.25459,-1.62289 0.24294,-1.95277 -0.0732,-2.0741 -0.20679,-0.0794 -0.30789,-0.32173 -0.22466,-0.53863 0.0832,-0.21689 0.0539,-0.65769 -0.0652,-0.97956 -0.38455,-1.03954 -0.56555,2.75711 -0.39366,8.25754 0.0887,2.83766 0.14373,5.91719 0.12234,6.84341 -0.0331,1.43342 0.24296,2.41701 0.67834,2.41701 0.0599,0 0.0391,-2.41102 -0.0462,-5.35782 z m 40.08914,5.09323 c 0,-0.14552 -0.11906,-0.26458 -0.26458,-0.26458 -0.14553,0 -0.26459,0.11906 -0.26459,0.26458 0,0.14552 0.11906,0.26459 0.26459,0.26459 0.14552,0 0.26458,-0.11907 0.26458,-0.26459 z m -27.51667,-0.28228 c 0,-0.13578 -0.16885,-0.24688 -0.37523,-0.24688 -0.20638,0 -0.56357,-0.0723 -0.79375,-0.1606 -0.26344,-0.10109 -0.41852,-0.018 -0.41852,0.22432 0,0.24628 0.28589,0.39304 0.79375,0.40748 0.43657,0.0124 0.79375,-0.0885 0.79375,-0.22432 z m 3.43959,0.0177 c 0,-0.14552 -0.11907,-0.26458 -0.26459,-0.26458 -0.14552,0 -0.26458,0.11906 -0.26458,0.26458 0,0.14552 0.11906,0.26458 0.26458,0.26458 0.14552,0 0.26459,-0.11906 0.26459,-0.26458 z m 22.48958,0 c 0,-0.14552 -0.11906,-0.26458 -0.26458,-0.26458 -0.14553,0 -0.26459,0.11906 -0.26459,0.26458 0,0.14552 0.11906,0.26458 0.26459,0.26458 0.14552,0 0.26458,-0.11906 0.26458,-0.26458 z m -30.95625,-0.39687 c 0,-0.21829 -0.11906,-0.39688 -0.26458,-0.39688 -0.14552,0 -0.26459,0.17859 -0.26459,0.39688 0,0.21828 0.11907,0.39687 0.26459,0.39687 0.14552,0 0.26458,-0.17859 0.26458,-0.39687 z m 7.67292,-0.11668 c 0,-0.52648 -0.34492,-0.90542 -0.59578,-0.65456 -0.20752,0.20752 0.0902,1.16811 0.36205,1.16811 0.12855,0 0.23373,-0.2311 0.23373,-0.51355 z m -1.05834,-0.14791 c 0,-0.21828 -0.17859,-0.39687 -0.39687,-0.39687 -0.41317,0 -0.52493,0.31292 -0.22049,0.61736 0.30444,0.30444 0.61736,0.19268 0.61736,-0.22049 z m 20.90209,0.13229 c 0,-0.14552 -0.11907,-0.26458 -0.26459,-0.26458 -0.14552,0 -0.26458,0.11906 -0.26458,0.26458 0,0.14552 0.11906,0.26459 0.26458,0.26459 0.14552,0 0.26459,-0.11907 0.26459,-0.26459 z m 0.88617,-0.12381 c 0.082,-0.21363 0.0352,-0.45878 -0.10398,-0.54479 -0.13916,-0.086 -0.25303,0.0888 -0.25303,0.3884 0,0.63886 0.14714,0.70331 0.35701,0.15639 z m 1.34882,-0.16337 c -0.0852,-0.13784 -0.26767,-0.18091 -0.40551,-0.0957 -0.13784,0.0852 -0.18092,0.26766 -0.0957,0.4055 0.0852,0.13784 0.26767,0.18092 0.40551,0.0957 0.13784,-0.0852 0.18092,-0.26767 0.0957,-0.40551 z m 1.99834,0.28718 c 0,-0.14552 -0.11906,-0.26458 -0.26458,-0.26458 -0.14553,0 -0.26459,0.11906 -0.26459,0.26458 0,0.14552 0.11906,0.26459 0.26459,0.26459 0.14552,0 0.26458,-0.11907 0.26458,-0.26459 z m -30.30876,-0.55176 c -0.0852,-0.13784 -0.26767,-0.18092 -0.40551,-0.0957 -0.13783,0.0852 -0.18091,0.26767 -0.0957,0.40551 0.0852,0.13784 0.26767,0.18092 0.4055,0.0957 0.13784,-0.0852 0.18092,-0.26766 0.0957,-0.4055 z m 19.84642,0.30546 c 0.0837,-0.13546 0.0312,-0.32108 -0.11668,-0.41249 -0.14789,-0.0914 -0.2689,0.0194 -0.2689,0.2463 0,0.46475 0.15877,0.53318 0.38558,0.16619 z m 2.45866,-0.43724 c -0.25214,-0.25214 -0.75764,0.15626 -0.56973,0.4603 0.11168,0.18071 0.25968,0.17614 0.44969,-0.0139 0.15578,-0.15577 0.2098,-0.35666 0.12004,-0.44642 z m -29.83174,-0.37479 c 0,-0.14552 -0.11906,-0.26458 -0.26458,-0.26458 -0.14552,0 -0.26458,0.11906 -0.26458,0.26458 0,0.14552 0.11906,0.26458 0.26458,0.26458 0.14552,0 0.26458,-0.11906 0.26458,-0.26458 z m 10.58334,0 c 0,-0.14552 -0.1786,-0.26458 -0.39688,-0.26458 -0.21828,0 -0.39687,0.11906 -0.39687,0.26458 0,0.14552 0.17859,0.26458 0.39687,0.26458 0.21828,0 0.39688,-0.11906 0.39688,-0.26458 z m 1.05833,0 c 0,-0.14552 -0.11204,-0.26458 -0.24897,-0.26458 -0.13693,0 -0.32255,0.11906 -0.41249,0.26458 -0.0899,0.14552 0.0221,0.26458 0.24897,0.26458 0.22687,0 0.41249,-0.11906 0.41249,-0.26458 z m 25.13542,0 c 0,-0.14552 -0.11907,-0.26458 -0.26459,-0.26458 -0.14552,0 -0.26458,0.11906 -0.26458,0.26458 0,0.14552 0.11906,0.26458 0.26458,0.26458 0.14552,0 0.26459,-0.11906 0.26459,-0.26458 z m -28.97188,-0.26458 c 0.0899,-0.14552 -0.0221,-0.26459 -0.24897,-0.26459 -0.22687,0 -0.41249,0.11907 -0.41249,0.26459 0,0.14552 0.11204,0.26458 0.24897,0.26458 0.13693,0 0.32255,-0.11906 0.41249,-0.26458 z m 5.15938,0 c 0,-0.14552 -0.11907,-0.26459 -0.26459,-0.26459 -0.14552,0 -0.26458,0.11907 -0.26458,0.26459 0,0.14552 0.11906,0.26458 0.26458,0.26458 0.14552,0 0.26459,-0.11906 0.26459,-0.26458 z m 16.13958,-0.59282 c 0,-0.30854 -0.26328,-0.24003 -0.68036,0.17704 -0.54622,0.54623 -0.46413,0.73865 0.15119,0.35438 0.29104,-0.18176 0.52917,-0.4209 0.52917,-0.53142 z m 2.38125,0.59282 c 0,-0.14552 -0.1786,-0.26459 -0.39688,-0.26459 -0.21828,0 -0.39687,0.11907 -0.39687,0.26459 0,0.14552 0.17859,0.26458 0.39687,0.26458 0.21828,0 0.39688,-0.11906 0.39688,-0.26458 z m -17.4625,-0.52917 c 0,-0.14552 -0.11204,-0.26458 -0.24897,-0.26458 -0.13693,0 -0.32255,0.11906 -0.41249,0.26458 -0.0899,0.14552 0.0221,0.26458 0.24897,0.26458 0.22687,0 0.41249,-0.11906 0.41249,-0.26458 z m 20.37292,0 c 0,-0.14552 -0.11907,-0.26458 -0.26459,-0.26458 -0.14552,0 -0.26458,0.11906 -0.26458,0.26458 0,0.14552 0.11906,0.26458 0.26458,0.26458 0.14552,0 0.26459,-0.11906 0.26459,-0.26458 z m -22.83801,-0.57878 c -0.0845,-0.21106 -0.14716,-0.14837 -0.15986,0.15986 -0.0115,0.27891 0.051,0.43518 0.13897,0.34726 0.0879,-0.0879 0.0973,-0.31612 0.0209,-0.50712 z m -11.53036,-0.29334 c -0.33959,-0.33959 -0.68397,-0.0771 -0.43255,0.32967 0.0974,0.15757 0.29827,0.21159 0.44642,0.12003 0.18071,-0.11169 0.17615,-0.25968 -0.0139,-0.4497 z m 45.64072,-0.11456 c -0.26896,-0.26895 -0.49087,0.13597 -0.2702,0.49302 0.1667,0.26972 0.22902,0.26993 0.31864,10e-4 0.0613,-0.18383 0.0395,-0.40617 -0.0484,-0.49409 z m -13.6536,0.045 c 0,-0.22687 -0.11907,-0.3389 -0.26459,-0.24896 -0.14552,0.0899 -0.26458,0.27555 -0.26458,0.41249 0,0.13693 0.11906,0.24896 0.26458,0.24896 0.14552,0 0.26459,-0.18562 0.26459,-0.41249 z m -20.90209,0.0312 c 0,-0.0642 -0.11906,-0.19026 -0.26458,-0.28019 -0.14552,-0.0899 -0.26458,-0.0374 -0.26458,0.11667 0,0.15411 0.11906,0.2802 0.26458,0.2802 0.14552,0 0.26458,-0.0525 0.26458,-0.11668 z m 6.08542,-0.67707 c 0,-0.14552 -0.17859,-0.26458 -0.39688,-0.26458 -0.21828,0 -0.39687,0.11906 -0.39687,0.26458 0,0.14552 0.17859,0.26458 0.39687,0.26458 0.21829,0 0.39688,-0.11906 0.39688,-0.26458 z m -17.19792,-0.39687 c 0,-0.21829 -0.11906,-0.39688 -0.26458,-0.39688 -0.14552,0 -0.26458,0.17859 -0.26458,0.39688 0,0.21828 0.11906,0.39687 0.26458,0.39687 0.14552,0 0.26458,-0.17859 0.26458,-0.39687 z m 43.12708,0.13229 c 0,-0.14552 -0.17859,-0.26459 -0.39687,-0.26459 -0.21828,0 -0.39688,0.11907 -0.39688,0.26459 0,0.14552 0.1786,0.26458 0.39688,0.26458 0.21828,0 0.39687,-0.11906 0.39687,-0.26458 z m -39.95208,-0.95435 c 0,-0.20271 -0.23812,-0.36857 -0.52916,-0.36857 -0.4981,0 -0.71944,0.51528 -0.37101,0.86371 0.25748,0.25748 0.90017,-0.096 0.90017,-0.49514 z m 5.67458,-0.12658 c -0.0852,-0.13784 -0.26767,-0.18092 -0.40551,-0.0957 -0.13784,0.0852 -0.18092,0.26766 -0.0957,0.4055 0.0852,0.13784 0.26767,0.18092 0.40551,0.0957 0.13784,-0.0852 0.18092,-0.26766 0.0957,-0.4055 z m 7.02542,0.43508 c 0,-0.0642 -0.11906,-0.19026 -0.26458,-0.28019 -0.14552,-0.0899 -0.26458,-0.0374 -0.26458,0.11667 0,0.15411 0.11906,0.2802 0.26458,0.2802 0.14552,0 0.26458,-0.0525 0.26458,-0.11668 z m -2.38125,-0.41249 c 0,-0.14552 -0.12609,-0.26458 -0.2802,-0.26458 -0.1541,0 -0.20661,0.11906 -0.11667,0.26458 0.0899,0.14552 0.21602,0.26459 0.2802,0.26459 0.0642,0 0.11667,-0.11907 0.11667,-0.26459 z m 12.43542,-0.13229 c 0,-0.21828 -0.11906,-0.39687 -0.26458,-0.39687 -0.14553,0 -0.26459,0.17859 -0.26459,0.39687 0,0.21828 0.11906,0.39688 0.26459,0.39688 0.14552,0 0.26458,-0.1786 0.26458,-0.39688 z m 1.5875,-0.13229 c 0,-0.14552 -0.18562,-0.26458 -0.41249,-0.26458 -0.22687,0 -0.33891,0.11906 -0.24897,0.26458 0.0899,0.14552 0.27556,0.26458 0.41249,0.26458 0.13693,0 0.24897,-0.11906 0.24897,-0.26458 z m -27.40943,-0.22405 c 0.0762,-0.12323 0.49832,-0.23428 0.93813,-0.24679 1.07218,-0.0305 1.47845,-0.29214 1.06128,-0.6835 -0.24041,-0.22554 -0.35121,-0.21765 -0.44253,0.0315 -0.067,0.18281 -0.2561,0.24938 -0.42023,0.14794 -0.48379,-0.29899 -2.03764,-0.38478 -2.03764,-0.1125 0,0.81444 0.58486,1.37486 0.90099,0.86334 z m 9.81464,-0.0405 c -0.0899,-0.14552 -0.27556,-0.26459 -0.41249,-0.26459 -0.13693,0 -0.24897,0.11907 -0.24897,0.26459 0,0.14552 0.18562,0.26458 0.41249,0.26458 0.22687,0 0.3389,-0.11906 0.24897,-0.26458 z m 20.76979,-0.13229 c 0,-0.21829 -0.11906,-0.39688 -0.26458,-0.39688 -0.14553,0 -0.26459,0.17859 -0.26459,0.39688 0,0.21828 0.11906,0.39687 0.26459,0.39687 0.14552,0 0.26458,-0.17859 0.26458,-0.39687 z m 14.59287,-0.48421 c 0.29789,-0.0779 0.46308,-0.26871 0.36709,-0.42403 -0.25493,-0.41248 -0.93705,-0.34519 -0.93705,0.0924 0,0.20615 -0.14014,0.42154 -0.31142,0.47863 -0.20194,0.0673 -0.22738,0.23786 -0.0724,0.48507 0.2019,0.32198 0.25253,0.31349 0.3256,-0.0546 0.0476,-0.23973 0.33026,-0.49961 0.62814,-0.57751 z m -30.60016,0.35191 c 0.0899,-0.14552 -0.0221,-0.26458 -0.24897,-0.26458 -0.22687,0 -0.41249,0.11906 -0.41249,0.26458 0,0.14552 0.11203,0.26459 0.24897,0.26459 0.13693,0 0.32255,-0.11907 0.41249,-0.26459 z m 17.4625,0 c 0.0899,-0.14552 0.0374,-0.26458 -0.11668,-0.26458 -0.15411,0 -0.2802,0.11906 -0.2802,0.26458 0,0.14552 0.0525,0.26459 0.11668,0.26459 0.0642,0 0.19026,-0.11907 0.2802,-0.26459 z m 11.50937,0 c 0,-0.14552 -0.17859,-0.26458 -0.39687,-0.26458 -0.21828,0 -0.39688,0.11906 -0.39688,0.26458 0,0.14552 0.1786,0.26459 0.39688,0.26459 0.21828,0 0.39687,-0.11907 0.39687,-0.26459 z m -28.04583,-0.41249 c 0,-0.22687 -0.12101,-0.3377 -0.2689,-0.2463 -0.14789,0.0914 -0.2004,0.27703 -0.11668,0.41249 0.22681,0.36699 0.38558,0.29856 0.38558,-0.16619 z m 21.96042,0.0156 c 0,-0.21828 -0.11907,-0.39687 -0.26459,-0.39687 -0.14552,0 -0.26458,0.17859 -0.26458,0.39687 0,0.21828 0.11906,0.39688 0.26458,0.39688 0.14552,0 0.26459,-0.1786 0.26459,-0.39688 z m -11.62183,-0.20505 c -0.0327,-0.31636 -0.39563,-0.25509 -0.50932,0.086 -0.0582,0.17463 0.037,0.26988 0.21167,0.21167 0.17462,-0.0582 0.30857,-0.19216 0.29765,-0.29766 z m -14.90817,-0.0871 c -0.0879,-0.0879 -0.31612,-0.0973 -0.50711,-0.0209 -0.21107,0.0845 -0.14838,0.14716 0.15985,0.15985 0.27891,0.0115 0.43518,-0.051 0.34726,-0.13896 z m 16.34354,-0.10473 c -0.0899,-0.14552 -0.27556,-0.26458 -0.41249,-0.26458 -0.13694,0 -0.24897,0.11906 -0.24897,0.26458 0,0.14552 0.18562,0.26459 0.41249,0.26459 0.22687,0 0.3389,-0.11907 0.24897,-0.26459 z m 3.83646,0 c 0,-0.14552 -0.11204,-0.26458 -0.24897,-0.26458 -0.13693,0 -0.32256,0.11906 -0.41249,0.26458 -0.0899,0.14552 0.0221,0.26459 0.24896,0.26459 0.22687,0 0.4125,-0.11907 0.4125,-0.26459 z m -17.19792,-0.26458 c 0,-0.14552 -0.11906,-0.26458 -0.26458,-0.26458 -0.14552,0 -0.26459,0.11906 -0.26459,0.26458 0,0.14552 0.11907,0.26458 0.26459,0.26458 0.14552,0 0.26458,-0.11906 0.26458,-0.26458 z m 2.64583,0 c 0,-0.14552 -0.0525,-0.26458 -0.11667,-0.26458 -0.0642,0 -0.19027,0.11906 -0.2802,0.26458 -0.0899,0.14552 -0.0374,0.26458 0.11667,0.26458 0.15411,0 0.2802,-0.11906 0.2802,-0.26458 z m -9.78958,-0.41249 c 0,-0.22687 -0.11906,-0.33891 -0.26458,-0.24897 -0.14552,0.0899 -0.26459,0.27556 -0.26459,0.41249 0,0.13694 0.11907,0.24897 0.26459,0.24897 0.14552,0 0.26458,-0.18562 0.26458,-0.41249 z m 29.89792,0.0597 c 0,-0.19403 -0.0784,-0.43112 -0.1741,-0.52687 -0.23927,-0.23927 -0.91348,0.3537 -0.73342,0.64505 0.22546,0.36479 0.90752,0.27597 0.90752,-0.11818 z m 6.52745,-0.35171 c -0.0782,-0.0782 -0.28194,-0.0559 -0.45268,0.0496 -0.23017,0.14226 -0.21763,0.24952 0.0485,0.41489 0.35281,0.2192 0.69479,-0.17385 0.40414,-0.4645 z m -42.18006,-0.004 c 0.50354,-0.29636 0.10712,-0.5582 -0.79054,-0.52215 -0.73317,0.0294 -1.01325,0.16631 -1.08282,0.52914 -0.0816,0.4258 0.0211,0.46474 0.79054,0.29961 0.48641,-0.10439 0.97368,-0.24236 1.08282,-0.3066 z m 14.22136,0.17902 c 0,-0.14552 -0.0525,-0.26458 -0.11668,-0.26458 -0.0642,0 -0.19026,0.11906 -0.2802,0.26458 -0.0899,0.14552 -0.0374,0.26459 0.11668,0.26459 0.15411,0 0.2802,-0.11907 0.2802,-0.26459 z m 20.05796,-0.19843 c -0.1074,-0.5577 -0.57697,-0.52254 -0.69663,0.0522 -0.0499,0.2397 0.0959,0.41085 0.35012,0.41085 0.27251,0 0.40228,-0.17341 0.34651,-0.46302 z m 8.94147,-0.25908 c -0.26895,-0.26895 -0.49087,0.13597 -0.2702,0.49302 0.1667,0.26972 0.22902,0.26993 0.31864,0.001 0.0613,-0.18383 0.0395,-0.40617 -0.0484,-0.49409 z m -18.4161,-0.0716 c 0,-0.14552 -0.0525,-0.26459 -0.11668,-0.26459 -0.0642,0 -0.19026,0.11907 -0.2802,0.26459 -0.0899,0.14552 -0.0374,0.26458 0.11668,0.26458 0.15411,0 0.2802,-0.11906 0.2802,-0.26458 z m -23.54792,-0.26459 c 0,-0.14552 -0.11906,-0.26458 -0.26458,-0.26458 -0.14552,0 -0.26458,0.11906 -0.26458,0.26458 0,0.14552 0.11906,0.26459 0.26458,0.26459 0.14552,0 0.26458,-0.11907 0.26458,-0.26459 z m 5.82084,-0.13229 c 0,-0.21828 -0.0893,-0.3985 -0.19844,-0.40048 -0.10914,-0.002 -0.46633,-0.0754 -0.79375,-0.16316 -0.32742,-0.0877 -0.59531,-0.0548 -0.59531,0.0732 0,0.21308 0.91733,0.77763 1.38906,0.85486 0.10914,0.0179 0.19844,-0.14611 0.19844,-0.36439 z m 37.08135,0 c 0,-0.13824 -0.12799,-0.29402 -0.28443,-0.34616 -0.15643,-0.0521 -0.28443,0.10363 -0.28443,0.34616 0,0.24254 0.128,0.39831 0.28443,0.34616 0.15644,-0.0521 0.28443,-0.20791 0.28443,-0.34616 z m -10.8876,-0.13229 c 0,-0.14552 -0.1786,-0.26458 -0.39688,-0.26458 -0.21828,0 -0.39687,0.11906 -0.39687,0.26458 0,0.14552 0.17859,0.26458 0.39687,0.26458 0.21828,0 0.39688,-0.11906 0.39688,-0.26458 z m 1.85208,-0.41249 c 0,-0.20969 -0.23813,-0.38126 -0.52917,-0.38126 -0.57751,0 -0.73219,0.67683 -0.19844,0.86829 0.44761,0.16056 0.72761,-0.0269 0.72761,-0.48703 z m -36.77708,-0.24897 c 0,-0.3638 -0.10518,-0.66146 -0.23373,-0.66146 -0.2771,0 -0.5677,0.96247 -0.35486,1.17531 0.33232,0.33232 0.58859,0.10859 0.58859,-0.51385 z m 15.875,0.39688 c 0,-0.14552 -0.11907,-0.26459 -0.26459,-0.26459 -0.14552,0 -0.26458,0.11907 -0.26458,0.26459 0,0.14552 0.11906,0.26458 0.26458,0.26458 0.14552,0 0.26459,-0.11906 0.26459,-0.26458 z m -14.02292,-0.80937 c 0,-0.61907 -0.74348,-0.68783 -0.9729,-0.09 -0.16704,0.43529 0.38482,0.96697 0.76183,0.73397 0.11609,-0.0717 0.21107,-0.36155 0.21107,-0.644 z m 24.47396,0.54478 c 0.0899,-0.14552 -0.0291,-0.26458 -0.26459,-0.26458 -0.23545,0 -0.35452,0.11906 -0.26458,0.26458 0.0899,0.14552 0.209,0.26459 0.26458,0.26459 0.0556,0 0.17465,-0.11907 0.26459,-0.26459 z m 17.06562,0 c 0,-0.14552 -0.17859,-0.26458 -0.39687,-0.26458 -0.21828,0 -0.39688,0.11906 -0.39688,0.26458 0,0.14552 0.1786,0.26459 0.39688,0.26459 0.21828,0 0.39687,-0.11907 0.39687,-0.26459 z m -25.4,-0.26458 c 0,-0.14552 -0.0525,-0.26458 -0.11667,-0.26458 -0.0642,0 -0.19027,0.11906 -0.2802,0.26458 -0.0899,0.14552 -0.0374,0.26458 0.11667,0.26458 0.15411,0 0.2802,-0.11906 0.2802,-0.26458 z m 15.07465,-0.64161 c -0.35589,-0.35588 -0.62057,0.005 -0.40873,0.55664 0.15201,0.39611 0.21555,0.40822 0.41855,0.0798 0.14436,-0.23359 0.14046,-0.48612 -0.01,-0.63641 z m 11.64827,0.78952 c 0,-0.27926 -0.50777,-0.39659 -0.65879,-0.15223 -0.0914,0.1479 0.0194,0.2689 0.2463,0.2689 0.22687,0 0.41249,-0.0525 0.41249,-0.11667 z m -41.8648,-0.89205 c 0.0576,-0.17281 -0.0838,-0.31419 -0.31419,-0.31419 -0.23041,0 -0.41893,0.18851 -0.41893,0.41892 0,0.46724 0.56959,0.38587 0.73312,-0.10473 z m 1.11897,0.21497 c 0,-0.14552 -0.11907,-0.26458 -0.26459,-0.26458 -0.14552,0 -0.26458,0.11906 -0.26458,0.26458 0,0.14552 0.11906,0.26459 0.26458,0.26459 0.14552,0 0.26459,-0.11907 0.26459,-0.26459 z m 38.62916,-0.13229 c 0,-0.21828 -0.11906,-0.39687 -0.26458,-0.39687 -0.14552,0 -0.26459,0.17859 -0.26459,0.39687 0,0.21828 0.11907,0.39688 0.26459,0.39688 0.14552,0 0.26458,-0.1786 0.26458,-0.39688 z m 3.06161,0.0189 c 0.53084,-0.53084 0.47499,-0.62552 -0.28348,-0.48053 -0.66027,0.12622 -0.81848,0.34871 -0.48507,0.68212 0.24943,0.24943 0.34174,0.22522 0.76855,-0.20159 z m -45.52723,-0.94493 c -0.12801,-0.20713 -0.28021,-0.2225 -0.4566,-0.0461 -0.14552,0.14552 -0.17818,0.4044 -0.0726,0.57528 0.12801,0.20712 0.28021,0.22249 0.4566,0.0461 0.14552,-0.14552 0.17818,-0.40439 0.0726,-0.57527 z m 7.27604,0.38126 c 0,-0.22687 -0.121,-0.3377 -0.2689,-0.2463 -0.14789,0.0914 -0.2004,0.27702 -0.11668,0.41249 0.22682,0.36699 0.38558,0.29856 0.38558,-0.16619 z m -5.82083,-0.26837 c 0,-0.24639 -0.18002,-0.38136 -0.4411,-0.33073 -0.66378,0.12874 -0.75492,0.74701 -0.11012,0.74701 0.325,0 0.55122,-0.17084 0.55122,-0.41628 z m 42.59791,-0.11289 c 0,-0.14552 -0.17859,-0.26458 -0.39687,-0.26458 -0.21828,0 -0.39688,0.11906 -0.39688,0.26458 0,0.14552 0.1786,0.26458 0.39688,0.26458 0.21828,0 0.39687,-0.11906 0.39687,-0.26458 z m -14.61272,-0.31419 c -0.16353,-0.4906 -0.73311,-0.57197 -0.73311,-0.10473 0,0.2304 0.18851,0.41892 0.41892,0.41892 0.23041,0 0.3718,-0.14139 0.31419,-0.31419 z m -26.70902,-0.56763 c 0.0506,-0.26108 -0.0843,-0.4411 -0.33073,-0.4411 -0.24544,0 -0.41628,0.22622 -0.41628,0.55122 0,0.6448 0.61827,0.55366 0.74701,-0.11012 z m 11.15924,0.0725 c 0,-0.13693 -0.11906,-0.24896 -0.26458,-0.24896 -0.14552,0 -0.26458,0.18562 -0.26458,0.41249 0,0.22687 0.11906,0.3389 0.26458,0.24897 0.14552,-0.0899 0.26458,-0.27556 0.26458,-0.4125 z m 16.8727,-0.034 c -0.16353,-0.49059 -0.73311,-0.57196 -0.73311,-0.10473 0,0.23041 0.18851,0.41892 0.41892,0.41892 0.23041,0 0.37179,-0.14138 0.31419,-0.31419 z m -18.07729,-0.50215 c -0.0852,-0.13784 -0.26767,-0.18092 -0.40551,-0.0957 -0.13783,0.0852 -0.18091,0.26766 -0.0957,0.4055 0.0852,0.13784 0.26766,0.18092 0.4055,0.0957 0.13784,-0.0852 0.18092,-0.26766 0.0957,-0.4055 z m 2.5672,0.15489 c 0,-0.13825 -0.128,-0.29402 -0.28443,-0.34617 -0.15644,-0.0521 -0.28443,0.10363 -0.28443,0.34617 0,0.24253 0.12799,0.3983 0.28443,0.34616 0.15643,-0.0521 0.28443,-0.20792 0.28443,-0.34616 z m 12.66031,-0.0156 c 0,-0.22686 -0.12101,-0.3377 -0.2689,-0.2463 -0.14789,0.0914 -0.2004,0.27703 -0.11668,0.41249 0.22681,0.36699 0.38558,0.29856 0.38558,-0.16619 z m 17.57536,-0.25644 c 0.43715,-0.66719 0.36878,-1.18315 -0.15679,-1.18315 -0.1525,0 -0.20874,0.17859 -0.12497,0.39687 0.10359,0.26995 -0.0143,0.39688 -0.36857,0.39688 -0.50314,0 -0.70629,0.52013 -0.34448,0.88194 0.30976,0.30976 0.54564,0.19297 0.99481,-0.49254 z m -45.27164,-0.46597 c -0.081,-0.13098 -0.26126,-0.11756 -0.40928,0.0305 -0.14552,0.14552 -0.17673,0.40673 -0.0694,0.58047 0.14833,0.24 0.24666,0.23268 0.40928,-0.0305 0.11773,-0.19049 0.14894,-0.4517 0.0694,-0.58047 z m 1.23795,0.47344 c 0,-0.21828 -0.1786,-0.39687 -0.39688,-0.39687 -0.21828,0 -0.39687,0.17859 -0.39687,0.39687 0,0.21828 0.17859,0.39688 0.39687,0.39688 0.21828,0 0.39688,-0.1786 0.39688,-0.39688 z m 6.08541,0.13229 c 0,-0.14552 -0.11906,-0.26458 -0.26458,-0.26458 -0.14552,0 -0.26458,0.11906 -0.26458,0.26458 0,0.14552 0.11906,0.26459 0.26458,0.26459 0.14552,0 0.26458,-0.11907 0.26458,-0.26459 z m 22.08141,-0.2463 c 0.19567,-0.3166 -0.30205,-0.6303 -0.65447,-0.41249 -0.2959,0.18288 -0.10165,0.65879 0.2689,0.65879 0.12834,0 0.30185,-0.11083 0.38557,-0.2463 z m 13.37276,-0.0183 c 0,-0.14552 -0.12609,-0.26458 -0.2802,-0.26458 -0.15411,0 -0.20661,0.11906 -0.11668,0.26458 0.0899,0.14552 0.21603,0.26458 0.2802,0.26458 0.0642,0 0.11668,-0.11906 0.11668,-0.26458 z m -34.26354,-0.26458 c 0.0899,-0.14552 0.0374,-0.26459 -0.11668,-0.26459 -0.15411,0 -0.2802,0.11907 -0.2802,0.26459 0,0.14552 0.0525,0.26458 0.11668,0.26458 0.0642,0 0.19026,-0.11906 0.2802,-0.26458 z m 3.54172,-0.49719 c 0.41781,-0.32127 0.52966,-0.54825 0.33073,-0.67119 -0.16532,-0.10218 -0.30058,-0.46366 -0.30058,-0.80331 0,-0.33964 -0.18833,-0.6898 -0.41851,-0.77813 -1.73757,-0.66677 -4.87315,0.75599 -4.87315,2.21118 0,0.15944 0.33135,0.0449 0.73635,-0.25451 0.40499,-0.29943 1.19257,-0.61844 1.75017,-0.70893 0.93717,-0.15208 1.00065,-0.12301 0.83955,0.38456 -0.12029,0.37899 -0.0273,0.63462 0.30035,0.82525 0.65953,0.38377 0.91036,0.35234 1.63509,-0.20492 z m 32.30932,-0.0603 c 0,-0.12995 -0.1786,-0.23627 -0.39688,-0.23627 -0.21828,0 -0.39687,0.17485 -0.39687,0.38857 0,0.23669 0.15512,0.32904 0.39687,0.23627 0.21828,-0.0838 0.39688,-0.25861 0.39688,-0.38857 z m -44.33167,-0.52345 c -0.0852,-0.13784 -0.26767,-0.18092 -0.40551,-0.0957 -0.13784,0.0852 -0.18092,0.26766 -0.0957,0.4055 0.0852,0.13784 0.26767,0.18092 0.40551,0.0957 0.13784,-0.0852 0.18091,-0.26766 0.0957,-0.4055 z m 2.5275,0.28718 c 0,-0.14552 -0.17859,-0.26459 -0.39687,-0.26459 -0.21828,0 -0.39688,0.11907 -0.39688,0.26459 0,0.14552 0.1786,0.26458 0.39688,0.26458 0.21828,0 0.39687,-0.11906 0.39687,-0.26458 z m -1.05833,-0.26459 c 0,-0.14552 -0.11204,-0.26458 -0.24897,-0.26458 -0.13693,0 -0.32255,0.11906 -0.41249,0.26458 -0.0899,0.14552 0.0221,0.26459 0.24897,0.26459 0.22687,0 0.41249,-0.11907 0.41249,-0.26459 z m 40.48125,0 c 0,-0.14552 -0.11906,-0.26458 -0.26459,-0.26458 -0.14552,0 -0.26458,0.11906 -0.26458,0.26458 0,0.14552 0.11906,0.26459 0.26458,0.26459 0.14553,0 0.26459,-0.11907 0.26459,-0.26459 z m 1.54075,-0.61724 c 0.062,-0.31962 -0.10194,-0.44109 -0.59531,-0.44109 -0.70733,0 -0.96053,0.63778 -0.35013,0.88194 0.50927,0.20371 0.85137,0.0442 0.94544,-0.44085 z m -29.85117,0.10369 c 0,-0.31217 -0.51603,-0.64611 -0.70555,-0.45659 -0.18953,0.18953 0.14441,0.70556 0.45658,0.70556 0.13694,0 0.24897,-0.11203 0.24897,-0.24897 z m 23.47642,-0.19799 c 0.0516,-0.15487 -0.0898,-0.35206 -0.3142,-0.43818 -0.28598,-0.10974 -0.40805,0.006 -0.40805,0.38633 0,0.54434 0.54504,0.58347 0.72225,0.0519 z m -1.66761,-0.22018 c 0.28042,-0.21215 0.42594,-0.46964 0.32338,-0.5722 -0.10256,-0.10256 -0.44775,0.0748 -0.76708,0.39414 -0.65019,0.65019 -0.3432,0.77338 0.4437,0.17806 z m -17.97235,-0.12661 c 0.0899,-0.14552 0.0445,-0.26458 -0.10106,-0.26458 -0.14552,0 -0.33817,0.11906 -0.42811,0.26458 -0.0899,0.14552 -0.0444,0.26458 0.10107,0.26458 0.14552,0 0.33816,-0.11906 0.4281,-0.26458 z m 20.97374,-0.0496 c -0.16353,-0.49059 -0.73311,-0.57196 -0.73311,-0.10473 0,0.23041 0.18851,0.41892 0.41892,0.41892 0.23041,0 0.37179,-0.14138 0.31419,-0.31419 z m -32.48311,-0.87643 c 0,-0.21828 -0.11204,-0.39688 -0.24897,-0.39688 -0.33364,0 -0.57259,0.41317 -0.3612,0.62456 0.29797,0.29797 0.61017,0.18147 0.61017,-0.22768 z m 28.31041,0.13229 c 0,-0.14552 -0.12609,-0.26458 -0.2802,-0.26458 -0.15411,0 -0.20661,0.11906 -0.11667,0.26458 0.0899,0.14552 0.21602,0.26458 0.2802,0.26458 0.0642,0 0.11667,-0.11906 0.11667,-0.26458 z m -34.52812,-0.26458 c 0.0899,-0.14552 0.0374,-0.26459 -0.11668,-0.26459 -0.15411,0 -0.2802,0.11907 -0.2802,0.26459 0,0.14552 0.0525,0.26458 0.11668,0.26458 0.0642,0 0.19026,-0.11906 0.2802,-0.26458 z m 37.466,-0.34296 c -0.33959,-0.33959 -0.68396,-0.0771 -0.43255,0.32967 0.0974,0.15757 0.29828,0.21159 0.44642,0.12003 0.18071,-0.11169 0.17615,-0.25968 -0.0139,-0.4497 z m -30.1625,-0.52916 c -0.33959,-0.33959 -0.68396,-0.0771 -0.43255,0.32966 0.0974,0.15758 0.29828,0.21159 0.44643,0.12003 0.18071,-0.11168 0.17614,-0.25967 -0.0139,-0.44969 z m 10.29129,0.34295 c 0,-0.14552 -0.11906,-0.26458 -0.26458,-0.26458 -0.14552,0 -0.26459,0.11906 -0.26459,0.26458 0,0.14552 0.11907,0.26458 0.26459,0.26458 0.14552,0 0.26458,-0.11906 0.26458,-0.26458 z m 21.29896,-0.26458 c 0,-0.19403 -0.14883,-0.40239 -0.33073,-0.46302 -0.19674,-0.0656 -0.33073,0.122 -0.33073,0.46302 0,0.34102 0.13399,0.5286 0.33073,0.46302 0.1819,-0.0606 0.33073,-0.269 0.33073,-0.46302 z m 7.54062,0.14729 c 0,-0.3757 -1.06038,-1.29177 -1.26195,-1.0902 -0.15728,0.15727 0.76071,1.47207 1.0278,1.47207 0.12878,0 0.23415,-0.17184 0.23415,-0.38187 z m -37.94014,-0.6048 c -0.26896,-0.26895 -0.49087,0.13596 -0.2702,0.49302 0.16669,0.26972 0.22902,0.26993 0.31864,10e-4 0.0613,-0.18382 0.0395,-0.40616 -0.0484,-0.49408 z m 1.03398,-0.0243 c -0.21024,-0.21024 -0.66515,0.26703 -0.50362,0.52838 0.10986,0.17776 0.24622,0.1507 0.3868,-0.0768 0.11942,-0.19322 0.17199,-0.39645 0.11682,-0.45161 z m 26.58741,0.20165 c 0,-0.13693 -0.17859,-0.24897 -0.39687,-0.24897 -0.40916,0 -0.52565,0.3122 -0.22768,0.61017 0.21138,0.21138 0.62455,-0.0276 0.62455,-0.3612 z m 3.86402,-0.4419 c -0.26895,-0.26895 -0.49087,0.13597 -0.2702,0.49302 0.1667,0.26972 0.22902,0.26993 0.31864,0.001 0.0613,-0.18383 0.0395,-0.40617 -0.0484,-0.49409 z m -38.78902,0.23703 c 0,-0.34451 -0.31453,-0.57363 -0.57038,-0.4155 -0.27364,0.16912 -0.0377,0.63598 0.32141,0.63598 0.13694,0 0.24897,-0.0992 0.24897,-0.22048 z m 4.84262,-0.17277 c 0.0287,-0.14353 -0.15618,-0.30108 -0.41085,-0.35013 -0.28961,-0.0558 -0.46302,0.074 -0.46302,0.34651 0,0.46032 0.78193,0.46356 0.87387,0.004 z m -2.99053,-0.56402 c 0,-0.21828 -0.11907,-0.32329 -0.26459,-0.23335 -0.14552,0.0899 -0.26458,0.34211 -0.26458,0.56039 0,0.21829 0.11906,0.3233 0.26458,0.23336 0.14552,-0.0899 0.26459,-0.34212 0.26459,-0.5604 z m 1.5875,0.29582 c 0,-0.21829 -0.1786,-0.39688 -0.39688,-0.39688 -0.21828,0 -0.39687,0.17859 -0.39687,0.39688 0,0.21828 0.17859,0.39687 0.39687,0.39687 0.21828,0 0.39688,-0.17859 0.39688,-0.39687 z m 21.16666,0.13229 c 0,-0.14552 -0.11906,-0.26459 -0.26458,-0.26459 -0.14552,0 -0.26458,0.11907 -0.26458,0.26459 0,0.14552 0.11906,0.26458 0.26458,0.26458 0.14552,0 0.26458,-0.11906 0.26458,-0.26458 z m 1.32292,0 c 0,-0.14552 -0.11906,-0.26459 -0.26458,-0.26459 -0.14553,0 -0.26459,0.11907 -0.26459,0.26459 0,0.14552 0.11906,0.26458 0.26459,0.26458 0.14552,0 0.26458,-0.11906 0.26458,-0.26458 z m 10.31875,-0.13229 c 0,-0.21829 -0.11204,-0.39688 -0.24897,-0.39688 -0.33363,0 -0.57258,0.41317 -0.3612,0.62455 0.29797,0.29797 0.61017,0.18148 0.61017,-0.22767 z m 3.57187,0.13229 c 0.0899,-0.14552 0.0374,-0.26459 -0.11667,-0.26459 -0.15411,0 -0.2802,0.11907 -0.2802,0.26459 0,0.14552 0.0525,0.26458 0.11667,0.26458 0.0642,0 0.19027,-0.11906 0.2802,-0.26458 z m -41.1427,-0.26459 c 0,-0.14552 -0.11907,-0.26458 -0.26459,-0.26458 -0.14552,0 -0.26458,0.11906 -0.26458,0.26458 0,0.14552 0.11906,0.26459 0.26458,0.26459 0.14552,0 0.26459,-0.11907 0.26459,-0.26459 z m 2.38125,0.0441 c 0,-0.34451 -0.31453,-0.57363 -0.57039,-0.4155 -0.27364,0.16912 -0.0377,0.63599 0.32142,0.63599 0.13693,0 0.24897,-0.0992 0.24897,-0.22049 z m 4.89479,-0.0441 c -0.0899,-0.14552 -0.27556,-0.26458 -0.41249,-0.26458 -0.13693,0 -0.24897,0.11906 -0.24897,0.26458 0,0.14552 0.18562,0.26459 0.41249,0.26459 0.22687,0 0.3389,-0.11907 0.24897,-0.26459 z m 1.19062,-0.26458 c 0,-0.14552 -0.11906,-0.26458 -0.26458,-0.26458 -0.14552,0 -0.26458,0.11906 -0.26458,0.26458 0,0.14552 0.11906,0.26458 0.26458,0.26458 0.14552,0 0.26458,-0.11906 0.26458,-0.26458 z m 8.86354,0 c 0.0899,-0.14552 0.0374,-0.26458 -0.11667,-0.26458 -0.15411,0 -0.2802,0.11906 -0.2802,0.26458 0,0.14552 0.0525,0.26458 0.11668,0.26458 0.0642,0 0.19026,-0.11906 0.28019,-0.26458 z m 21.56355,-0.15434 c 0,-0.23041 -0.14139,-0.37179 -0.3142,-0.31419 -0.49059,0.16353 -0.57196,0.73311 -0.10473,0.73311 0.23041,0 0.41893,-0.18851 0.41893,-0.41892 z m 3.43958,0.15434 c 0,-0.14552 -0.11906,-0.26458 -0.26459,-0.26458 -0.14552,0 -0.26458,0.11906 -0.26458,0.26458 0,0.14552 0.11906,0.26458 0.26458,0.26458 0.14553,0 0.26459,-0.11906 0.26459,-0.26458 z m -43.52309,-0.79648 c 0.15825,-0.49861 0.0622,-1.96812 -0.31124,-4.75977 -0.26511,-1.98204 -0.51986,-0.26385 -0.40209,2.71198 0.0977,2.46777 0.35006,3.19235 0.71333,2.04779 z m 2.51267,0.26731 c 0,-0.14552 -0.17859,-0.26458 -0.39687,-0.26458 -0.21828,0 -0.39688,0.11906 -0.39688,0.26458 0,0.14552 0.1786,0.26459 0.39688,0.26459 0.21828,0 0.39687,-0.11907 0.39687,-0.26459 z m 32.27917,0 c 0,-0.14552 -0.11906,-0.26458 -0.26458,-0.26458 -0.14553,0 -0.26459,0.11906 -0.26459,0.26458 0,0.14552 0.11906,0.26459 0.26459,0.26459 0.14552,0 0.26458,-0.11907 0.26458,-0.26459 z m 6.48229,0 c -0.0899,-0.14552 -0.27556,-0.26458 -0.41249,-0.26458 -0.13693,0 -0.24897,0.11906 -0.24897,0.26458 0,0.14552 0.18562,0.26459 0.41249,0.26459 0.22687,0 0.33891,-0.11907 0.24897,-0.26459 z m -33.79501,-0.47955 c 0.0576,-0.17281 -0.0838,-0.3142 -0.31419,-0.3142 -0.23041,0 -0.41892,0.18852 -0.41892,0.41893 0,0.46723 0.56958,0.38586 0.73311,-0.10473 z m 19.6398,0.0827 c 0,-0.21828 -0.11906,-0.39688 -0.26458,-0.39688 -0.14552,0 -0.26458,0.1786 -0.26458,0.39688 0,0.21828 0.11906,0.39687 0.26458,0.39687 0.14552,0 0.26458,-0.17859 0.26458,-0.39687 z m 1.32292,0.13229 c 0,-0.14552 -0.12609,-0.26458 -0.2802,-0.26458 -0.15411,0 -0.20661,0.11906 -0.11668,0.26458 0.0899,0.14552 0.21603,0.26458 0.2802,0.26458 0.0642,0 0.11668,-0.11906 0.11668,-0.26458 z m 14.0626,-0.13229 c 0,-0.13825 -0.12799,-0.29402 -0.28442,-0.34616 -0.15644,-0.0521 -0.28443,0.10362 -0.28443,0.34616 0,0.24253 0.12799,0.39831 0.28443,0.34616 0.15643,-0.0521 0.28442,-0.20792 0.28442,-0.34616 z m -37.50653,-0.28623 c 0.22692,-0.59135 0.20903,-0.63981 -0.23628,-0.63981 -0.22048,0 -0.39687,0.23518 -0.39687,0.52916 0,0.63084 0.40629,0.70184 0.63315,0.11065 z m 34.49579,-0.061 c 0.15874,-0.47621 -0.38814,-0.37614 -0.57269,0.10479 -0.0989,0.25768 -0.0397,0.37864 0.15359,0.3142 0.17291,-0.0576 0.3615,-0.24618 0.4191,-0.41899 z m -33.07291,-0.52916 c 0.0585,-0.17551 -0.13858,-0.3142 -0.44649,-0.3142 -0.54962,0 -0.71435,0.27783 -0.36931,0.62288 0.24513,0.24513 0.68692,0.078 0.8158,-0.30868 z m -2.84978,-0.0496 c 0,-0.14552 -0.0525,-0.26459 -0.11668,-0.26459 -0.0642,0 -0.19026,0.11907 -0.2802,0.26459 -0.0899,0.14552 -0.0374,0.26458 0.11668,0.26458 0.15411,0 0.2802,-0.11906 0.2802,-0.26458 z m -1.05834,-0.26459 c 0,-0.14552 -0.11906,-0.26458 -0.26458,-0.26458 -0.14552,0 -0.26458,0.11906 -0.26458,0.26458 0,0.14552 0.11906,0.26459 0.26458,0.26459 0.14552,0 0.26458,-0.11907 0.26458,-0.26459 z m 42.52626,0.10473 c -0.0879,-0.0879 -0.31612,-0.0973 -0.50712,-0.0209 -0.21106,0.0845 -0.14837,0.14715 0.15986,0.15985 0.27891,0.0115 0.43518,-0.051 0.34726,-0.13897 z m -43.58459,-0.2214 c 0,-0.27926 -0.50777,-0.39659 -0.65879,-0.15223 -0.0914,0.1479 0.0194,0.2689 0.2463,0.2689 0.22687,0 0.41249,-0.0525 0.41249,-0.11667 z m 25.92917,0 c 0,-0.0642 -0.11907,-0.19026 -0.26459,-0.2802 -0.14552,-0.0899 -0.26458,-0.0374 -0.26458,0.11668 0,0.1541 0.11906,0.28019 0.26458,0.28019 0.14552,0 0.26459,-0.0525 0.26459,-0.11667 z m 1.05833,-0.14791 c 0,-0.14552 -0.11906,-0.26458 -0.26458,-0.26458 -0.14553,0 -0.26459,0.11906 -0.26459,0.26458 0,0.14552 0.11906,0.26458 0.26459,0.26458 0.14552,0 0.26458,-0.11906 0.26458,-0.26458 z m -23.60855,-0.47956 c 0.0576,-0.1728 -0.0838,-0.31419 -0.31419,-0.31419 -0.23041,0 -0.41893,0.18852 -0.41893,0.41892 0,0.46724 0.56959,0.38587 0.73312,-0.10473 z m 31.13787,0.23326 c 0.19568,-0.3166 -0.30205,-0.6303 -0.65447,-0.41249 -0.2959,0.18287 -0.10165,0.65879 0.2689,0.65879 0.12834,0 0.30185,-0.11084 0.38557,-0.2463 z m 13.00786,0.0438 c 0.46111,-0.30225 0.60225,-2.17876 0.16387,-2.17876 -0.22392,0 -0.27964,-0.12466 -0.14785,-0.33073 0.24132,-0.37731 0.12043,-4.66371 -0.14516,-5.14737 -0.0963,-0.1753 -0.30204,-0.23484 -0.45728,-0.1323 -0.18269,0.12067 -0.22086,0.79314 -0.1082,1.90623 0.0957,0.94589 0.13632,2.70206 0.0902,3.90261 -0.0818,2.12961 -0.005,2.38002 0.60441,1.98032 z m -45.40801,-0.32668 c 0,-0.14552 -0.11907,-0.26458 -0.26459,-0.26458 -0.14552,0 -0.26458,0.11906 -0.26458,0.26458 0,0.14552 0.11906,0.26459 0.26458,0.26459 0.14552,0 0.26459,-0.11907 0.26459,-0.26459 z m -1.05834,-0.26458 c 0,-0.14552 -0.11906,-0.26458 -0.26458,-0.26458 -0.14552,0 -0.26458,0.11906 -0.26458,0.26458 0,0.14552 0.11906,0.26458 0.26458,0.26458 0.14552,0 0.26458,-0.11906 0.26458,-0.26458 z m 34.45316,-0.57767 c -0.40415,-0.40416 -0.70237,-0.10594 -0.47821,0.47821 0.13235,0.34491 0.2471,0.37908 0.48247,0.1437 0.23539,-0.23538 0.23437,-0.38328 -0.004,-0.62191 z m -8.52399,-0.48066 c 0,-0.14552 -0.17859,-0.26459 -0.39688,-0.26459 -0.21828,0 -0.39687,0.11907 -0.39687,0.26459 0,0.14552 0.17859,0.26458 0.39687,0.26458 0.21829,0 0.39688,-0.11906 0.39688,-0.26458 z m 7.80521,-0.26459 c -0.0899,-0.14552 -0.27556,-0.26458 -0.41249,-0.26458 -0.13694,0 -0.24897,0.11906 -0.24897,0.26458 0,0.14552 0.18562,0.26459 0.41249,0.26459 0.22687,0 0.3389,-0.11907 0.24897,-0.26459 z m 11.37708,-0.26458 c -0.0899,-0.14552 -0.27556,-0.26458 -0.41249,-0.26458 -0.13693,0 -0.24897,0.11906 -0.24897,0.26458 0,0.14552 0.18562,0.26458 0.41249,0.26458 0.22687,0 0.33891,-0.11906 0.24897,-0.26458 z m -10.4312,-0.33734 c -0.0327,-0.31637 -0.39563,-0.2551 -0.50932,0.086 -0.0582,0.17462 0.037,0.26987 0.21167,0.21166 0.17462,-0.0582 0.30857,-0.19215 0.29765,-0.29765 z m -26.21359,-0.33973 c 0,-0.22687 -0.12101,-0.33771 -0.2689,-0.2463 -0.14789,0.0914 -0.2004,0.27702 -0.11668,0.41249 0.22681,0.36698 0.38558,0.29855 0.38558,-0.16619 z m 16.27187,0.1479 c 0.0899,-0.14552 -0.0291,-0.26458 -0.26458,-0.26458 -0.23546,0 -0.35452,0.11906 -0.26458,0.26458 0.0899,0.14552 0.209,0.26459 0.26458,0.26459 0.0556,0 0.17465,-0.11907 0.26458,-0.26459 z m 2.51355,0 c 0,-0.14552 -0.11204,-0.26458 -0.24897,-0.26458 -0.13693,0 -0.32256,0.11906 -0.41249,0.26458 -0.0899,0.14552 0.0221,0.26459 0.24896,0.26459 0.22687,0 0.4125,-0.11907 0.4125,-0.26459 z m -12.96459,-0.11667 c 0,-0.27926 -0.50776,-0.39659 -0.65879,-0.15223 -0.0914,0.1479 0.0194,0.2689 0.2463,0.2689 0.22687,0 0.41249,-0.0525 0.41249,-0.11667 z m 11.58103,-0.36288 c 0.0576,-0.17281 -0.0838,-0.3142 -0.31419,-0.3142 -0.23041,0 -0.41892,0.18852 -0.41892,0.41893 0,0.46723 0.56958,0.38586 0.73311,-0.10473 z m -9.99353,-0.1819 c 0,-0.21829 -0.11906,-0.39688 -0.26458,-0.39688 -0.14552,0 -0.26458,0.17859 -0.26458,0.39688 0,0.21828 0.11906,0.39687 0.26458,0.39687 0.14552,0 0.26458,-0.17859 0.26458,-0.39687 z m 20.37292,0.13229 c 0,-0.14552 -0.11906,-0.26459 -0.26458,-0.26459 -0.14553,0 -0.26459,0.11907 -0.26459,0.26459 0,0.14552 0.11906,0.26458 0.26459,0.26458 0.14552,0 0.26458,-0.11906 0.26458,-0.26458 z m -2.76725,-0.28219 c 0.24351,-0.394 -0.0388,-0.60822 -0.5454,-0.41383 -0.23378,0.0897 -0.35095,0.28302 -0.26038,0.42956 0.21446,0.34702 0.58608,0.33976 0.80578,-0.0157 z m -5.964,-0.37927 c -0.78124,-0.4466 -1.05833,-0.48631 -1.05833,-0.15169 0,0.24574 0.57975,0.46858 1.32291,0.5085 0.21828,0.0117 0.0992,-0.14884 -0.26458,-0.35681 z m -12.43542,-0.41249 c 0,-0.13693 -0.11906,-0.24897 -0.26458,-0.24897 -0.14552,0 -0.26458,0.18562 -0.26458,0.41249 0,0.22687 0.11906,0.33891 0.26458,0.24897 0.14552,-0.0899 0.26458,-0.27556 0.26458,-0.41249 z m 29.89792,0.2802 c 0,-0.14552 -0.2311,-0.26459 -0.51355,-0.26459 -0.28246,0 -0.58834,-0.121 -0.67974,-0.2689 -0.0914,-0.14789 -0.28756,-0.19389 -0.4359,-0.10221 -0.1507,0.0931 0.003,0.31708 0.34901,0.50754 0.76934,0.42383 1.28018,0.47497 1.28018,0.12816 z m -34.98563,-0.47956 c 0.0576,-0.17281 -0.0838,-0.31419 -0.3142,-0.31419 -0.2304,0 -0.41892,0.18851 -0.41892,0.41892 0,0.46724 0.56958,0.38587 0.73312,-0.10473 z m 24.79917,0.21497 c 0.0899,-0.14552 -0.0221,-0.26458 -0.24897,-0.26458 -0.22687,0 -0.41249,0.11906 -0.41249,0.26458 0,0.14552 0.11204,0.26459 0.24897,0.26459 0.13693,0 0.32255,-0.11907 0.41249,-0.26459 z m -37.58139,-1.41843 c -0.0989,-0.527 -0.28576,-0.89267 -0.41533,-0.81259 -0.27583,0.17047 -0.31904,1.79477 -0.0548,2.05904 0.37733,0.37733 0.64272,-0.32634 0.4701,-1.24645 z m 3.71472,1.15385 c 0.0899,-0.14552 0.0374,-0.26458 -0.11667,-0.26458 -0.15411,0 -0.2802,0.11906 -0.2802,0.26458 0,0.14552 0.0525,0.26458 0.11668,0.26458 0.0642,0 0.19026,-0.11906 0.28019,-0.26458 z m 23.9448,0.14791 c 0,-0.27926 -0.50777,-0.39659 -0.6588,-0.15223 -0.0914,0.1479 0.0194,0.2689 0.2463,0.2689 0.22687,0 0.4125,-0.0525 0.4125,-0.11667 z m 1.05833,-0.25815 c 0,-0.20616 0.14014,-0.42154 0.31143,-0.47864 0.1864,-0.0621 0.22431,-0.24477 0.0944,-0.45491 -0.16699,-0.2702 -0.32886,-0.20562 -0.70242,0.28019 -0.59366,0.77207 -0.61865,1.02818 -0.10032,1.02818 0.21829,0 0.39688,-0.16867 0.39688,-0.37482 z m 10.58333,0.15434 c 0,-0.34451 -0.31453,-0.57363 -0.57038,-0.4155 -0.27364,0.16912 -0.0377,0.63598 0.32141,0.63598 0.13694,0 0.24897,-0.0992 0.24897,-0.22048 z m 6.08542,-0.0441 c 0,-0.14552 -0.1786,-0.26458 -0.39688,-0.26458 -0.21828,0 -0.39687,0.11906 -0.39687,0.26458 0,0.14552 0.17859,0.26458 0.39687,0.26458 0.21828,0 0.39688,-0.11906 0.39688,-0.26458 z m -40.28285,-0.94813 c -0.25214,-0.25213 -0.75763,0.15627 -0.56973,0.4603 0.11169,0.18071 0.25968,0.17615 0.4497,-0.0139 0.15577,-0.15578 0.20979,-0.35667 0.12003,-0.44643 z m 0.85993,0.56687 c 0,-0.0642 -0.11906,-0.19026 -0.26458,-0.2802 -0.14552,-0.0899 -0.26458,-0.0374 -0.26458,0.11668 0,0.15411 0.11906,0.2802 0.26458,0.2802 0.14552,0 0.26458,-0.0525 0.26458,-0.11668 z m -4.10104,-0.41249 c 0.0899,-0.14552 0.0374,-0.26458 -0.11668,-0.26458 -0.1541,0 -0.28019,0.11906 -0.28019,0.26458 0,0.14552 0.0525,0.26458 0.11667,0.26458 0.0642,0 0.19026,-0.11906 0.2802,-0.26458 z m 9.39271,-0.13229 c 0,-0.21828 -0.11204,-0.39688 -0.24897,-0.39688 -0.33363,0 -0.57258,0.41317 -0.3612,0.62456 0.29797,0.29797 0.61017,0.18147 0.61017,-0.22768 z m 30.42708,-0.14791 c 0,-0.13693 -0.17859,-0.24897 -0.39687,-0.24897 -0.40916,0 -0.52565,0.3122 -0.22768,0.61017 0.21138,0.21139 0.62455,-0.0276 0.62455,-0.3612 z m -38.58948,-0.11667 c 0,-0.13825 -0.12799,-0.29402 -0.28442,-0.34617 -0.15644,-0.0521 -0.28443,0.10363 -0.28443,0.34617 0,0.24253 0.12799,0.3983 0.28443,0.34616 0.15643,-0.0521 0.28442,-0.20792 0.28442,-0.34616 z m 5.54403,-0.21067 c -0.33959,-0.33959 -0.68396,-0.0771 -0.43255,0.32967 0.0974,0.15758 0.29828,0.21159 0.44642,0.12003 0.18071,-0.11168 0.17615,-0.25968 -0.0139,-0.4497 z m 3.94129,0.22628 c 0,-0.5173 -0.51286,-0.79921 -0.84667,-0.46541 -0.14927,0.14927 -0.1914,0.40083 -0.0936,0.55903 0.25934,0.41964 0.94029,0.35184 0.94029,-0.0936 z m 1.05833,-0.2802 c 0,-0.21828 -0.11906,-0.39687 -0.26458,-0.39687 -0.14552,0 -0.26459,0.17859 -0.26459,0.39687 0,0.21828 0.11907,0.39688 0.26459,0.39688 0.14552,0 0.26458,-0.1786 0.26458,-0.39688 z m 25.33936,-0.0827 c 0.0576,-0.17281 -0.0838,-0.31419 -0.31419,-0.31419 -0.23041,0 -0.41892,0.18851 -0.41892,0.41892 0,0.46724 0.56958,0.38587 0.73311,-0.10473 z m 1.64814,0.0827 c 0,-0.21828 -0.17157,-0.39687 -0.38126,-0.39687 -0.44203,0 -0.74041,0.37763 -0.49349,0.62455 0.31622,0.31622 0.87475,0.17085 0.87475,-0.22768 z m 6.08541,-0.1479 c 0,-0.13694 -0.11906,-0.24897 -0.26458,-0.24897 -0.14552,0 -0.26458,0.18562 -0.26458,0.41249 0,0.22687 0.11906,0.3389 0.26458,0.24897 0.14552,-0.0899 0.26458,-0.27556 0.26458,-0.41249 z m -41.01041,-0.24897 c 0,-0.14552 -0.11906,-0.26459 -0.26458,-0.26459 -0.14552,0 -0.26459,0.11907 -0.26459,0.26459 0,0.14552 0.11907,0.26458 0.26459,0.26458 0.14552,0 0.26458,-0.11906 0.26458,-0.26458 z m 4.49792,0 c 0,-0.14552 -0.11907,-0.26459 -0.26459,-0.26459 -0.14552,0 -0.26458,0.11907 -0.26458,0.26459 0,0.14552 0.11906,0.26458 0.26458,0.26458 0.14552,0 0.26459,-0.11906 0.26459,-0.26458 z m 17.3302,0 c 0.0899,-0.14552 0.0374,-0.26459 -0.11667,-0.26459 -0.15411,0 -0.2802,0.11907 -0.2802,0.26459 0,0.14552 0.0525,0.26458 0.11667,0.26458 0.0642,0 0.19027,-0.11906 0.2802,-0.26458 z m 7.17132,-0.45751 c -0.26896,-0.26895 -0.49087,0.13597 -0.2702,0.49302 0.16669,0.26972 0.22902,0.26993 0.31864,10e-4 0.0613,-0.18383 0.0395,-0.40617 -0.0484,-0.49409 z m 2.41432,0.56224 c -0.0879,-0.0879 -0.31613,-0.0973 -0.50712,-0.0209 -0.21107,0.0845 -0.14837,0.14716 0.15985,0.15985 0.27892,0.0115 0.43519,-0.051 0.34727,-0.13896 z m 8.53832,-0.10473 c 0,-0.14552 -0.23812,-0.26459 -0.52917,-0.26459 -0.29104,0 -0.52916,0.11907 -0.52916,0.26459 0,0.14552 0.23812,0.26458 0.52916,0.26458 0.29105,0 0.52917,-0.11906 0.52917,-0.26458 z m -41.53958,-0.26459 c 0,-0.14552 -0.12609,-0.26458 -0.2802,-0.26458 -0.15411,0 -0.20661,0.11906 -0.11668,0.26458 0.0899,0.14552 0.21603,0.26459 0.2802,0.26459 0.0642,0 0.11668,-0.11907 0.11668,-0.26459 z m 15.21354,0 c -0.0899,-0.14552 -0.27556,-0.26458 -0.41249,-0.26458 -0.13693,0 -0.24897,0.11906 -0.24897,0.26458 0,0.14552 0.18562,0.26459 0.41249,0.26459 0.22687,0 0.33891,-0.11907 0.24897,-0.26459 z m -16.80104,-0.26458 c 0,-0.14552 -0.12609,-0.26458 -0.2802,-0.26458 -0.15411,0 -0.20661,0.11906 -0.11668,0.26458 0.0899,0.14552 0.21603,0.26458 0.2802,0.26458 0.0642,0 0.11668,-0.11906 0.11668,-0.26458 z m -2.64583,-1.20624 c 0,-0.66343 -0.0995,-1.14472 -0.2212,-1.06954 -0.12165,0.0752 -0.1911,0.40964 -0.15434,0.74322 0.0368,0.33359 0.0768,0.81488 0.0889,1.06954 0.048,1.00777 0.28664,0.38899 0.28664,-0.74322 z m 18.25625,0.94166 c 0,-0.14552 -0.11907,-0.26459 -0.26459,-0.26459 -0.14552,0 -0.26458,0.11907 -0.26458,0.26459 0,0.14552 0.11906,0.26458 0.26458,0.26458 0.14552,0 0.26459,-0.11906 0.26459,-0.26458 z m 22.48958,0 c 0,-0.14552 -0.11906,-0.26459 -0.26458,-0.26459 -0.14553,0 -0.26459,0.11907 -0.26459,0.26459 0,0.14552 0.11906,0.26458 0.26459,0.26458 0.14552,0 0.26458,-0.11906 0.26458,-0.26458 z m 1.19062,0 c 0.0899,-0.14552 0.0374,-0.26459 -0.11667,-0.26459 -0.15411,0 -0.2802,0.11907 -0.2802,0.26459 0,0.14552 0.0525,0.26458 0.11667,0.26458 0.0642,0 0.19027,-0.11906 0.2802,-0.26458 z m -7.8052,-0.39688 c 0,-0.21828 -0.11907,-0.39687 -0.26459,-0.39687 -0.14552,0 -0.26458,0.17859 -0.26458,0.39687 0,0.21828 0.11906,0.39688 0.26458,0.39688 0.14552,0 0.26459,-0.1786 0.26459,-0.39688 z m 2.88158,0.23066 c 0.6667,-0.13334 0.77149,-0.238 0.52985,-0.52916 -0.2342,-0.28219 -0.2057,-0.36296 0.12804,-0.36296 0.2361,0 0.42928,0.1786 0.42928,0.39688 0,0.54532 0.24925,0.5037 1.74653,-0.29167 1.49,-0.7915 1.68343,-1.02323 1.689,-2.02344 0.005,-0.87223 -0.45274,-0.97789 -0.57292,-0.13229 -0.0731,0.51457 -0.22486,0.58676 -1.11867,0.53222 -0.56874,-0.0347 -1.24582,-0.25472 -1.50463,-0.48894 -0.64586,-0.58449 -1.12151,-0.22091 -0.93447,0.7143 l 0.15192,0.75955 -0.84312,-0.34402 c -0.52954,-0.21608 -1.04439,-0.73191 -1.38431,-1.38695 -0.71266,-1.37333 -1.61485,-1.46875 -1.55392,-0.16436 0.0317,0.67838 -0.0486,0.84417 -0.35236,0.72761 -0.21638,-0.083 -0.48269,-0.15097 -0.5918,-0.15097 -0.10911,0 -0.59627,-0.61405 -1.08258,-1.36455 -0.86861,-1.34048 -0.87879,-1.39032 -0.57763,-2.82612 0.34336,-1.63697 0.24627,-1.94004 -0.41093,-1.28284 -0.30744,0.30744 -0.48024,1.01655 -0.55043,2.25876 -0.097,1.71607 -0.0593,1.85964 0.72156,2.74897 0.51412,0.58556 0.76253,1.09819 0.66071,1.36352 -0.0897,0.23385 -0.0314,0.42518 0.12974,0.42518 0.16109,0 0.29289,-0.1049 0.29289,-0.23311 0,-0.12821 0.62508,0.10827 1.38906,0.52551 2.56686,1.40186 2.44106,1.36251 3.60919,1.12888 z m -33.04408,-0.64315 c 0,-0.13693 -0.1786,-0.24897 -0.39688,-0.24897 -0.40915,0 -0.52565,0.3122 -0.22768,0.61017 0.21139,0.21139 0.62456,-0.0276 0.62456,-0.3612 z m 41.62518,-0.14293 c -0.1018,-0.26529 -0.24582,-0.31624 -0.41518,-0.14688 -0.303,0.303 -0.01,0.91196 0.3363,0.69814 0.12912,-0.0798 0.16461,-0.32786 0.0789,-0.55126 z m 1.36961,-0.10604 c -0.12801,-0.20712 -0.28022,-0.22249 -0.45661,-0.0461 -0.14552,0.14552 -0.17817,0.40439 -0.0726,0.57527 0.12801,0.20713 0.28021,0.2225 0.4566,0.0461 0.14552,-0.14552 0.17817,-0.4044 0.0726,-0.57528 z m -41.40729,0.11668 c 0,-0.22687 -0.12101,-0.3377 -0.2689,-0.2463 -0.1479,0.0914 -0.2004,0.27702 -0.11668,0.41249 0.22681,0.36699 0.38558,0.29856 0.38558,-0.16619 z m 14.02291,-0.11668 c 0,-0.14552 -0.11906,-0.26458 -0.26458,-0.26458 -0.14552,0 -0.26458,0.11906 -0.26458,0.26458 0,0.14552 0.11906,0.26459 0.26458,0.26459 0.14552,0 0.26458,-0.11907 0.26458,-0.26459 z m 13.09688,0 c 0.0899,-0.14552 0.0374,-0.26458 -0.11668,-0.26458 -0.15411,0 -0.2802,0.11906 -0.2802,0.26458 0,0.14552 0.0525,0.26459 0.11668,0.26459 0.0642,0 0.19026,-0.11907 0.2802,-0.26459 z m -30.82396,-0.11667 c 0,-0.0642 -0.11906,-0.19026 -0.26458,-0.2802 -0.14552,-0.0899 -0.26459,-0.0374 -0.26459,0.11668 0,0.1541 0.11907,0.28019 0.26459,0.28019 0.14552,0 0.26458,-0.0525 0.26458,-0.11667 z m 16.40417,-0.14791 c 0,-0.14552 -0.0525,-0.26458 -0.11668,-0.26458 -0.0642,0 -0.19026,0.11906 -0.2802,0.26458 -0.0899,0.14552 -0.0374,0.26458 0.11668,0.26458 0.15411,0 0.2802,-0.11906 0.2802,-0.26458 z m 30.95624,-1.47726 c 0,-1.27747 -0.0882,-1.71165 -0.33072,-1.6286 -0.46511,0.15924 -0.26117,3.37044 0.21405,3.37044 0.0642,0 0.11667,-0.78382 0.11667,-1.74184 z m -44.18541,0.55122 c 0,-0.21828 -0.11906,-0.39688 -0.26458,-0.39688 -0.14552,0 -0.26459,0.1786 -0.26459,0.39688 0,0.21828 0.11907,0.39687 0.26459,0.39687 0.14552,0 0.26458,-0.17859 0.26458,-0.39687 z m 13.54667,-0.71438 c -0.24695,-0.24694 -0.3175,-0.17639 -0.3175,0.3175 0,0.49389 0.0706,0.56445 0.3175,0.3175 0.24694,-0.24694 0.24694,-0.38805 0,-0.635 z m 9.23496,0.23913 c -0.33959,-0.33959 -0.68396,-0.0771 -0.43255,0.32967 0.0974,0.15758 0.29828,0.21159 0.44642,0.12003 0.18071,-0.11168 0.17615,-0.25968 -0.0139,-0.4497 z m 1.29545,0.34296 c 0,-0.14552 -0.11906,-0.26459 -0.26458,-0.26459 -0.14552,0 -0.26458,0.11907 -0.26458,0.26459 0,0.14552 0.11906,0.26458 0.26458,0.26458 0.14552,0 0.26458,-0.11906 0.26458,-0.26458 z m 17.72708,-0.26459 c 0,-0.14552 -0.11906,-0.26458 -0.26458,-0.26458 -0.14552,0 -0.26458,0.11906 -0.26458,0.26458 0,0.14552 0.11906,0.26459 0.26458,0.26459 0.14552,0 0.26458,-0.11907 0.26458,-0.26459 z m -42.59791,-0.41249 c 0,-0.22687 -0.121,-0.3377 -0.2689,-0.2463 -0.14789,0.0914 -0.2004,0.27703 -0.11668,0.41249 0.22682,0.36699 0.38558,0.29856 0.38558,-0.16619 z m 43.92083,-0.64584 c 0,-0.14552 -0.11906,-0.26458 -0.26458,-0.26458 -0.14552,0 -0.26459,0.11906 -0.26459,0.26458 0,0.14552 0.11907,0.26458 0.26459,0.26458 0.14552,0 0.26458,-0.11906 0.26458,-0.26458 z m -48.11255,-2.37858 c -0.0112,-1.70804 0.0701,-2.17881 0.39799,-2.30464 0.36931,-0.14171 0.36788,-0.18285 -0.0138,-0.39643 -0.23421,-0.13107 -0.42583,-0.54989 -0.42583,-0.93072 0,-1.07478 -0.23324,-0.58356 -0.41123,0.86608 -0.16627,1.35416 0.0918,5.28734 0.3312,5.04793 0.0746,-0.0746 0.12938,-1.10165 0.12164,-2.28222 z m 3.53026,2.114 c 0.0899,-0.14552 -0.0291,-0.26459 -0.26458,-0.26459 -0.23546,0 -0.35452,0.11907 -0.26459,0.26459 0.0899,0.14552 0.209,0.26458 0.26459,0.26458 0.0556,0 0.17464,-0.11906 0.26458,-0.26458 z m 9.44814,-0.54165 c 0.39429,-0.28418 1.01937,-0.51669 1.38906,-0.51669 0.9297,0 0.84198,-0.4182 -0.16106,-0.76786 -1.25876,-0.43881 -2.29213,-0.35222 -3.43022,0.28742 -1.16122,0.65264 -1.30865,1.17584 -0.4329,1.53623 0.76141,0.31333 1.72627,0.11594 2.63512,-0.5391 z m 16.29802,0.5218 c -0.0521,-0.15643 -0.20791,-0.28442 -0.34616,-0.28442 -0.13824,0 -0.29402,0.12799 -0.34616,0.28442 -0.0521,0.15644 0.10362,0.28443 0.34616,0.28443 0.24254,0 0.39831,-0.12799 0.34616,-0.28443 z m -27.73053,-0.24474 c 0,-0.14552 -0.11907,-0.26458 -0.26459,-0.26458 -0.14552,0 -0.26458,0.11906 -0.26458,0.26458 0,0.14552 0.11906,0.26459 0.26458,0.26459 0.14552,0 0.26459,-0.11907 0.26459,-0.26459 z m 17.94095,-0.0198 c -0.0521,-0.15644 -0.20792,-0.28443 -0.34616,-0.28443 -0.13825,0 -0.29402,0.12799 -0.34617,0.28443 -0.0521,0.15643 0.10363,0.28443 0.34617,0.28443 0.24253,0 0.39831,-0.128 0.34616,-0.28443 z m 8.38509,0.0198 c -0.0899,-0.14552 -0.27556,-0.26458 -0.41249,-0.26458 -0.13694,0 -0.24897,0.11906 -0.24897,0.26458 0,0.14552 0.18562,0.26459 0.41249,0.26459 0.22687,0 0.3389,-0.11907 0.24897,-0.26459 z m 11.36463,-0.0425 c 0.37065,-0.16888 0.67391,-0.39552 0.67391,-0.50366 0,-0.36037 -1.67969,-2.0997 -2.0277,-2.0997 -0.57249,0 -2.47022,-0.83513 -2.47022,-1.08706 0,-0.37972 0.88969,-0.27151 1.54574,0.18801 0.91524,0.64106 1.02526,0.21531 0.29841,-1.15481 -0.35944,-0.67755 -0.65352,-1.32771 -0.65352,-1.4448 0,-0.44243 -1.56493,-0.99926 -2.80837,-0.99926 -1.46806,0 -1.68258,0.34148 -0.47826,0.76131 0.95602,0.33327 0.9835,1.1734 0.0428,1.30762 -0.74633,0.10648 -0.76346,0.69182 -0.0352,1.20194 0.55261,0.38706 0.55023,0.39419 -0.27323,0.82002 -1.10123,0.56947 -0.83188,0.9031 0.5989,0.74183 1.33224,-0.15016 2.21784,0.22976 2.5457,1.0921 0.12567,0.33054 0.62599,0.79684 1.11181,1.03622 1.0653,0.52491 1.08225,0.52614 1.92921,0.14024 z m 7.55307,-0.22211 c 0,-0.14552 -0.12609,-0.26458 -0.28019,-0.26458 -0.15411,0 -0.20662,0.11906 -0.11668,0.26458 0.0899,0.14552 0.21603,0.26458 0.2802,0.26458 0.0642,0 0.11667,-0.11906 0.11667,-0.26458 z m -3.12425,-0.59531 c 0.2069,-0.32742 0.52303,-1.10133 0.70251,-1.71979 0.17948,-0.61847 0.4406,-1.12448 0.58028,-1.12448 0.39356,0 0.30268,-0.58631 -0.26279,-1.69545 -0.71317,-1.39885 -1.25355,-1.94069 -2.26997,-2.27614 -0.47886,-0.15804 -0.93766,-0.46196 -1.01956,-0.67539 -0.22402,-0.5838 -1.25456,-0.87865 -3.11775,-0.89203 -0.92121,-0.007 -2.00234,-0.0151 -2.40253,-0.0188 -0.40018,-0.004 -0.7276,0.11414 -0.7276,0.26198 0,0.15482 0.7399,0.26878 1.74511,0.26878 1.00268,0 2.04389,0.16002 2.4474,0.37612 0.38625,0.20687 0.92054,0.44506 1.1873,0.52931 0.63855,0.20167 0.42663,0.79099 -0.32404,0.90111 l -0.59133,0.0867 0.58639,0.50857 c 0.32251,0.27971 0.87001,0.50857 1.21667,0.50857 0.78038,0 1.85969,0.68478 2.24841,1.42653 0.28243,0.53894 0.27464,0.54216 -0.23002,0.0948 -0.45743,-0.40547 -1.93589,-0.66756 -1.93589,-0.34317 0,0.4314 0.67323,1.46765 0.95351,1.46765 0.18667,0 0.52135,0.25978 0.74374,0.57728 0.47612,0.67975 0.25047,1.0614 -0.91228,1.54302 -1.04448,0.43264 -0.99443,0.79012 0.11064,0.79012 0.64093,0 1.00259,-0.16929 1.2718,-0.59531 z m -8.51741,0.21405 c 0,-0.0642 -0.11906,-0.19026 -0.26458,-0.2802 -0.14553,-0.0899 -0.26459,-0.0374 -0.26459,0.11668 0,0.15411 0.11906,0.2802 0.26459,0.2802 0.14552,0 0.26458,-0.0525 0.26458,-0.11668 z m -33.60208,-0.5604 c 0,-0.22687 -0.12101,-0.3377 -0.2689,-0.2463 -0.1479,0.0914 -0.2004,0.27703 -0.11668,0.41249 0.22681,0.36699 0.38558,0.29856 0.38558,-0.16619 z m 46.4204,-0.13927 c -0.0852,-0.13784 -0.26766,-0.18092 -0.4055,-0.0957 -0.13784,0.0852 -0.18092,0.26767 -0.0957,0.40551 0.0852,0.13784 0.26767,0.18091 0.40551,0.0957 0.13784,-0.0852 0.18091,-0.26767 0.0957,-0.40551 z m -20.22665,-0.10969 c 0,-0.21829 -0.11907,-0.39688 -0.26459,-0.39688 -0.14552,0 -0.26458,0.17859 -0.26458,0.39688 0,0.21828 0.11906,0.39687 0.26458,0.39687 0.14552,0 0.26459,-0.17859 0.26459,-0.39687 z m 1.5875,0.13229 c 0,-0.14552 -0.11907,-0.26459 -0.26459,-0.26459 -0.14552,0 -0.26458,0.11907 -0.26458,0.26459 0,0.14552 0.11906,0.26458 0.26458,0.26458 0.14552,0 0.26459,-0.11906 0.26459,-0.26458 z m 2.91041,0 c 0,-0.14552 -0.0525,-0.26459 -0.11667,-0.26459 -0.0642,0 -0.19027,0.11907 -0.2802,0.26459 -0.0899,0.14552 -0.0374,0.26458 0.11667,0.26458 0.15411,0 0.2802,-0.11906 0.2802,-0.26458 z m 1.5875,-0.13229 c 0,-0.21829 -0.11906,-0.39688 -0.26458,-0.39688 -0.14552,0 -0.26458,0.17859 -0.26458,0.39688 0,0.21828 0.11906,0.39687 0.26458,0.39687 0.14552,0 0.26458,-0.17859 0.26458,-0.39687 z m 15.46981,-2.95356 c -0.10605,-1.69721 -0.28615,-3.39385 -0.40023,-3.77031 l -0.20743,-0.68447 -0.0227,0.71199 c -0.0125,0.3916 -0.11546,0.76929 -0.22877,0.83932 -0.15552,0.0961 0.24674,5.57426 0.43493,5.92317 0.0196,0.0364 0.16649,0.0661 0.32637,0.0661 0.20559,0 0.23424,-0.90329 0.0979,-3.08585 z m -29.22814,2.70459 c 0,-0.0642 -0.11906,-0.19026 -0.26458,-0.2802 -0.14553,-0.0899 -0.26459,-0.0374 -0.26459,0.11668 0,0.1541 0.11906,0.28019 0.26459,0.28019 0.14552,0 0.26458,-0.0525 0.26458,-0.11667 z m 21.43498,-0.41947 c 0.22903,-0.42795 0.17388,-0.69494 -0.27329,-1.32292 -0.30812,-0.43272 -0.7816,-0.78677 -1.05217,-0.78677 -0.60698,0 -1.57499,-1.18826 -1.77249,-2.17579 -0.0808,-0.40404 -0.2382,-0.73463 -0.34975,-0.73463 -0.11156,0 -0.27876,-0.30252 -0.37156,-0.67228 -0.22327,-0.88958 -0.68239,-0.57354 -0.68239,0.46972 0,0.99481 1.72238,4.65083 2.49211,5.28991 0.74313,0.61698 1.65977,0.58631 2.00954,-0.0672 z m -39.63831,-0.57511 c -0.16978,-0.16977 -0.39652,-0.22084 -0.50387,-0.11349 -0.10735,0.10735 -0.0235,0.3013 0.18637,0.43099 0.49413,0.30539 0.71726,0.0823 0.3175,-0.3175 z m 45.71999,0.3175 c 0,-0.14552 -0.18562,-0.26458 -0.41249,-0.26458 -0.22687,0 -0.3389,0.11906 -0.24896,0.26458 0.0899,0.14552 0.27555,0.26459 0.41249,0.26459 0.13693,0 0.24896,-0.11907 0.24896,-0.26459 z m -20.08086,-0.60753 c -0.33959,-0.33959 -0.68397,-0.0771 -0.43256,0.32966 0.0974,0.15758 0.29828,0.21159 0.44643,0.12003 0.18071,-0.11168 0.17614,-0.25967 -0.0139,-0.44969 z m 1.82462,0.34295 c 0,-0.14552 -0.12609,-0.26458 -0.2802,-0.26458 -0.15411,0 -0.20662,0.11906 -0.11668,0.26458 0.0899,0.14552 0.21603,0.26458 0.2802,0.26458 0.0642,0 0.11668,-0.11906 0.11668,-0.26458 z m -9.70398,-1.21688 c -0.1018,-0.26529 -0.24582,-0.31624 -0.41519,-0.14688 -0.30299,0.303 -0.01,0.91196 0.33631,0.69814 0.12911,-0.0798 0.1646,-0.32786 0.0789,-0.55126 z m 9.64334,-0.0564 c 0.0576,-0.1728 -0.0838,-0.31419 -0.31419,-0.31419 -0.23041,0 -0.41892,0.18852 -0.41892,0.41892 0,0.46724 0.56958,0.38587 0.73311,-0.10473 z m -27.70077,-0.38695 c -0.0327,-0.31636 -0.39563,-0.25509 -0.50932,0.086 -0.0582,0.17462 0.037,0.26987 0.21166,0.21167 0.17463,-0.0582 0.30857,-0.19216 0.29766,-0.29766 z m 0.9062,0.0728 c 0.0899,-0.14552 0.0374,-0.26458 -0.11668,-0.26458 -0.15411,0 -0.2802,0.11906 -0.2802,0.26458 0,0.14552 0.0525,0.26458 0.11668,0.26458 0.0642,0 0.19026,-0.11906 0.2802,-0.26458 z m 6.21771,-0.52917 c 0,-0.14552 -0.11907,-0.26458 -0.26459,-0.26458 -0.14552,0 -0.26458,0.11906 -0.26458,0.26458 0,0.14552 0.11906,0.26459 0.26458,0.26459 0.14552,0 0.26459,-0.11907 0.26459,-0.26459 z m -5.17334,-0.55176 c -0.0852,-0.13784 -0.26767,-0.18092 -0.40551,-0.0957 -0.13784,0.0852 -0.18092,0.26767 -0.0957,0.40551 0.0852,0.13784 0.26767,0.18091 0.40551,0.0957 0.13784,-0.0852 0.18091,-0.26767 0.0957,-0.40551 z m -1.17666,-0.12715 c 0,-0.19151 -0.11907,-0.42177 -0.26459,-0.51171 -0.14552,-0.0899 -0.26458,-0.0247 -0.26458,0.14498 0,0.16968 -0.17859,0.23998 -0.39688,0.15621 -0.23142,-0.0888 -0.39687,-0.004 -0.39687,0.20321 0,0.20281 0.2841,0.35549 0.66146,0.35549 0.37046,0 0.66146,-0.15317 0.66146,-0.34818 z m 30.42708,-0.44306 c 0,-0.11052 -0.11906,-0.20094 -0.26458,-0.20094 -0.14553,0 -0.26459,0.11532 -0.26459,0.25628 0,0.14095 -0.17859,0.18774 -0.39687,0.10398 -0.39071,-0.14993 -0.55018,0.19199 -0.23606,0.50611 0.1879,0.1879 1.1621,-0.36993 1.1621,-0.66543 z m 13.53344,-0.33323 c 0,-0.13825 -0.128,-0.29402 -0.28443,-0.34617 -0.15644,-0.0521 -0.28443,0.10363 -0.28443,0.34617 0,0.24253 0.12799,0.3983 0.28443,0.34616 0.15643,-0.0521 0.28443,-0.20792 0.28443,-0.34616 z m -46.34177,-0.79375 c 0,-0.36381 -0.10418,-0.66146 -0.23151,-0.66146 -0.12733,0 -0.23151,0.29765 -0.23151,0.66146 0,0.3638 0.10418,0.66145 0.23151,0.66145 0.12733,0 0.23151,-0.29765 0.23151,-0.66145 z m 47.62499,0.39687 c 0,-0.14552 -0.11203,-0.26458 -0.24896,-0.26458 -0.13694,0 -0.32256,0.11906 -0.41249,0.26458 -0.0899,0.14552 0.0221,0.26458 0.24896,0.26458 0.22687,0 0.41249,-0.11906 0.41249,-0.26458 z m -45.24374,-0.66146 c 0,-0.3638 -0.10418,-0.66146 -0.23151,-0.66146 -0.12733,0 -0.23151,0.29766 -0.23151,0.66146 0,0.3638 0.10418,0.66146 0.23151,0.66146 0.12733,0 0.23151,-0.29766 0.23151,-0.66146 z m -0.79375,0 c 0,-0.21828 -0.1786,-0.39687 -0.39688,-0.39687 -0.41316,0 -0.52492,0.31292 -0.22048,0.61736 0.30443,0.30444 0.61736,0.19268 0.61736,-0.22049 z m 2.64583,0.13229 c 0,-0.14552 -0.17859,-0.26458 -0.39688,-0.26458 -0.21828,0 -0.39687,0.11906 -0.39687,0.26458 0,0.14552 0.17859,0.26459 0.39687,0.26459 0.21829,0 0.39688,-0.11907 0.39688,-0.26459 z m 41.275,0 c 0,-0.14552 -0.11906,-0.26458 -0.26459,-0.26458 -0.14552,0 -0.26458,0.11906 -0.26458,0.26458 0,0.14552 0.11906,0.26459 0.26458,0.26459 0.14553,0 0.26459,-0.11907 0.26459,-0.26459 z m -9.26042,-0.41249 c 0,-0.22687 -0.121,-0.3377 -0.2689,-0.2463 -0.14789,0.0914 -0.2004,0.27703 -0.11667,0.41249 0.22681,0.36699 0.38557,0.29856 0.38557,-0.16619 z m -16.13958,-0.54595 c 0,-0.35157 -0.0718,-0.36965 -0.39688,-0.0999 -0.21828,0.18116 -0.39687,0.37433 -0.39687,0.42927 0,0.0549 0.17859,0.0999 0.39687,0.0999 0.21829,0 0.39688,-0.19318 0.39688,-0.42928 z m 1.79145,0.11508 c -0.16353,-0.49059 -0.73312,-0.57196 -0.73312,-0.10473 0,0.23041 0.18852,0.41893 0.41893,0.41893 0.2304,0 0.37179,-0.14139 0.31419,-0.3142 z m 10.1148,-0.0827 c 0,-0.21828 -0.11204,-0.39687 -0.24897,-0.39687 -0.33363,0 -0.57258,0.41317 -0.3612,0.62455 0.29797,0.29797 0.61017,0.18148 0.61017,-0.22768 z m 2.91042,-0.27723 c 0,-0.22565 -0.24022,-0.36505 -0.59532,-0.34546 -0.32742,0.0181 -0.80367,-0.0555 -1.05833,-0.16356 -0.354,-0.15016 -0.46302,-0.0691 -0.46302,0.34431 0,0.41533 0.19939,0.5614 0.85989,0.62997 1.04034,0.10798 1.25678,0.0279 1.25678,-0.46526 z m 9.52499,0.27723 c 0,-0.21828 -0.17859,-0.39687 -0.39687,-0.39687 -0.41317,0 -0.52493,0.31292 -0.22049,0.61736 0.30444,0.30444 0.61736,0.19268 0.61736,-0.22049 z m -21.16666,-0.26458 c 0,-0.21828 -0.17859,-0.39688 -0.39688,-0.39688 -0.21828,0 -0.39687,0.1786 -0.39687,0.39688 0,0.21828 0.17859,0.39687 0.39687,0.39687 0.21829,0 0.39688,-0.17859 0.39688,-0.39687 z m 1.32292,0 c 0,-0.21828 -0.11907,-0.39688 -0.26459,-0.39688 -0.14552,0 -0.26458,0.1786 -0.26458,0.39688 0,0.21828 0.11906,0.39687 0.26458,0.39687 0.14552,0 0.26459,-0.17859 0.26459,-0.39687 z m 1.85208,0.13229 c 0,-0.14552 -0.11906,-0.26458 -0.26458,-0.26458 -0.14553,0 -0.26459,0.11906 -0.26459,0.26458 0,0.14552 0.11906,0.26458 0.26459,0.26458 0.14552,0 0.26458,-0.11906 0.26458,-0.26458 z m 1.32292,-0.2802 c 0,-0.13693 -0.11907,-0.24897 -0.26459,-0.24897 -0.14552,0 -0.26458,0.18562 -0.26458,0.41249 0,0.22687 0.11906,0.33891 0.26458,0.24897 0.14552,-0.0899 0.26459,-0.27556 0.26459,-0.41249 z m 0.92604,0.0156 c 0.0899,-0.14552 0.0374,-0.26459 -0.11668,-0.26459 -0.15411,0 -0.2802,0.11907 -0.2802,0.26459 0,0.14552 0.0525,0.26458 0.11668,0.26458 0.0642,0 0.19026,-0.11906 0.2802,-0.26458 z m -20.78992,-0.53854 c 0.93482,-0.1577 2.48263,-0.26159 3.43959,-0.23085 0.95695,0.0307 4.18069,-0.0253 7.16387,-0.12456 11.39287,-0.37901 17.70385,-0.51555 20.70364,-0.44794 2.69987,0.0608 3.10886,0.0145 3.10886,-0.35236 0,-0.23233 -0.20836,-0.42587 -0.46302,-0.43008 -0.25466,-0.004 -1.69978,-0.0792 -3.21138,-0.16669 -2.41431,-0.13971 -2.77895,-0.10437 -3.00004,0.2907 -0.23643,0.42247 -0.27189,0.42211 -0.58492,-0.006 -0.28575,-0.39078 -0.57459,-0.42567 -2.02704,-0.24483 -0.9316,0.11599 -3.06303,0.25106 -4.73652,0.30017 -1.67349,0.0491 -4.23333,0.15128 -5.68854,0.22705 -1.45521,0.0758 -5.62239,0.19592 -9.26042,0.26701 -3.63802,0.0711 -7.26942,0.20478 -8.06979,0.2971 -0.80036,0.0923 -2.16958,0.19757 -3.04271,0.2339 -2.46464,0.10255 -2.51354,0.11162 -2.51354,0.46589 0,0.41373 5.58157,0.36017 8.18196,-0.0785 z m 39.44304,-0.006 c 0,-0.13694 -0.11906,-0.24897 -0.26458,-0.24897 -0.14552,0 -0.26459,0.18562 -0.26459,0.41249 0,0.22687 0.11907,0.3389 0.26459,0.24897 0.14552,-0.0899 0.26458,-0.27556 0.26458,-0.41249 z m -3.70417,0.0156 c 0,-0.14552 -0.18562,-0.26458 -0.41249,-0.26458 -0.22687,0 -0.3389,0.11906 -0.24896,0.26458 0.0899,0.14552 0.27555,0.26458 0.41249,0.26458 0.13693,0 0.24896,-0.11906 0.24896,-0.26458 z m 4.58341,-1.35503 c -0.30871,-0.3087 -0.69235,-0.48026 -0.85255,-0.38126 -0.64278,0.39726 -0.17048,0.81771 1.02429,0.91185 0.27978,0.022 0.23138,-0.12746 -0.17174,-0.53059 z m 2.17477,-0.74335 c -0.18073,-0.29243 0.23664,-0.60819 0.48096,-0.36387 0.25157,0.25156 0.20468,0.61017 -0.0798,0.61017 -0.13693,0 -0.31747,-0.11084 -0.40119,-0.2463 z"
       id="path17568" />
  </g>
</svg>
