<?xml version="1.0" encoding="UTF-8" standalone="no"?>
<!-- Created with Inkscape (http://www.inkscape.org/) -->

<svg
   width="67.851898mm"
   height="67.94178mm"
   viewBox="0 0 67.851899 67.941779"
   version="1.1"
   id="svg5"
   inkscape:version="1.1 (c4e8f9ed74, 2021-05-24)"
   sodipodi:docname="ornated2.svg"
   xmlns:inkscape="http://www.inkscape.org/namespaces/inkscape"
   xmlns:sodipodi="http://sodipodi.sourceforge.net/DTD/sodipodi-0.dtd"
   xmlns="http://www.w3.org/2000/svg"
   xmlns:svg="http://www.w3.org/2000/svg">
  <sodipodi:namedview
     id="namedview7"
     pagecolor="#ffffff"
     bordercolor="#666666"
     borderopacity="1.0"
     inkscape:pageshadow="2"
     inkscape:pageopacity="0.0"
     inkscape:pagecheckerboard="0"
     inkscape:document-units="mm"
     showgrid="false"
     inkscape:zoom="0.94615212"
     inkscape:cx="-202.39874"
     inkscape:cy="145.32547"
     inkscape:window-width="2506"
     inkscape:window-height="1403"
     inkscape:window-x="1974"
     inkscape:window-y="0"
     inkscape:window-maximized="1"
     inkscape:current-layer="layer1" />
  <defs
     id="defs2" />
  <g
     inkscape:label="Layer 1"
     inkscape:groupmode="layer"
     id="layer1"
     transform="translate(-217.2032,-115.26722)">
    <path
       style="fill:#000000;stroke-width:0.503706"
       d="m 277.58453,182.92296 c -1.17741,-0.10604 -2.14074,-0.45178 -2.14074,-0.7683 0,-0.4154 -0.1681,-0.40735 -0.60445,0.0289 -0.83743,0.83741 -2.67198,0.75648 -3.42521,-0.15116 -0.81175,-0.97809 -2.38086,-0.9652 -3.37379,0.0278 -0.65899,0.65899 -2.25858,0.76901 -10.07903,0.6933 -5.11264,-0.0495 -10.12733,-0.31666 -11.14375,-0.59367 -3.00155,-0.81804 -7.22558,-1.05083 -7.61563,-0.41969 -0.40059,0.64814 -6.51587,0.95038 -7.45729,0.36855 -0.34486,-0.21316 -0.62704,-1.05418 -0.62704,-1.86895 0,-1.14558 -0.22836,-1.48139 -1.0074,-1.48139 -0.55409,0 -1.00742,0.20449 -1.00742,0.45444 0,0.24992 -0.68001,0.69148 -1.51112,0.9812 -1.57377,0.54863 -2.06807,1.5866 -0.75557,1.5866 0.41557,0 0.75557,0.22667 0.75557,0.5037 0,0.78143 -1.81696,0.59351 -2.52638,-0.26129 -0.51958,-0.62605 -0.47084,-0.94629 0.26826,-1.76297 0.49671,-0.54889 1.22138,-0.99797 1.61036,-0.99797 0.38896,0 0.56712,-0.22667 0.39591,-0.50371 -0.4424,-0.71581 -1.06589,-0.62512 -1.97886,0.28784 -0.68671,0.68671 -0.79153,0.6916 -0.79153,0.0369 0,-0.41502 -0.39667,-0.87126 -0.88149,-1.01384 -0.48481,-0.14259 1.10189,-0.21586 3.52602,-0.16296 2.42413,0.0531 4.40748,-0.0737 4.40743,-0.2814 -8e-5,-0.45203 -7.03262,-0.4948 -9.66969,-0.0588 -1.69989,0.28105 -1.87546,0.46372 -2.01482,2.09628 -0.16391,1.92079 -0.71321,2.38573 -1.91563,1.6216 -0.60498,-0.38445 -0.63727,-0.67112 -0.16201,-1.4383 0.427,-0.68932 0.44006,-1.11162 0.0464,-1.50515 -0.39353,-0.39353 -0.37359,-0.75593 0.071,-1.29171 0.45093,-0.54331 0.47336,-1.01507 0.083,-1.74454 -0.89805,-1.678 0.0944,-8.70009 2.31481,-16.37958 0.16715,-0.5782 0.0703,-0.81922 -0.24973,-0.62141 -0.28759,0.17781 -0.6748,0.0773 -0.86049,-0.22313 -0.18562,-0.30043 -0.63592,-0.43179 -1.00053,-0.29186 -0.99531,0.38193 -1.26635,-0.88889 -0.91221,-4.27708 0.19312,-1.84778 0.58667,-3.1536 0.99796,-3.31144 0.8246,-0.31642 0.92875,-4.01528 0.1207,-4.28465 -0.35496,-0.11822 -0.63541,-2.54409 -0.76964,-6.65709 -0.17229,-5.27623 -0.0659,-6.69275 0.576,-7.67236 0.63158,-0.96392 0.65587,-1.25179 0.12299,-1.45629 -0.87319,-0.33508 -1.06366,-2.82847 -0.25455,-3.33236 0.50579,-0.31502 0.50623,-0.59619 0.002,-1.40946 -0.36722,-0.59255 -0.62964,-2.70338 -0.62964,-5.06491 0,-3.9533 0.0327,-4.06142 1.38521,-4.57666 1.59304,-0.6069 6.41621,-0.35587 9.62928,0.50117 1.91204,0.51 2.28072,0.47581 2.81987,-0.2615 0.512,-0.70023 1.17912,-0.79755 3.82361,-0.55775 2.06053,0.18676 3.40983,0.57277 3.782,1.08175 0.50762,0.69421 0.7574,0.70462 2.03605,0.0849 0.8016,-0.38846 3.49748,-0.80982 5.99083,-0.93635 2.49335,-0.1266 3.85335,-0.14297 3.02224,-0.0365 -6.03837,0.77282 -14.07924,3.5406 -15.10423,5.19907 -0.47391,0.76678 -0.0811,0.64256 2.33421,-0.73823 2.75297,-1.57379 3.9942,-1.69255 2.69588,-0.25792 -1.22302,1.35143 -0.64626,1.26904 1.76297,-0.25185 2.35124,-1.48428 3.5488,-1.67355 2.39021,-0.37778 -1.60479,1.7948 -1.14027,4.5842 0.94927,5.70023 2.09149,1.11706 7.01114,0.86569 10.2606,-0.52428 3.04272,-1.30155 3.86439,-1.85724 3.41321,-2.30843 -0.16353,-0.16354 -1.38046,0.27911 -2.70415,0.98377 -3.02485,1.61025 -7.58905,2.69251 -8.3109,1.97065 -0.3526,-0.35259 0.48875,-0.71405 2.65355,-1.13994 1.7434,-0.34298 3.96666,-1.06704 4.94056,-1.60901 1.11647,-0.62133 1.36588,-0.90359 0.67506,-0.76398 -0.82913,0.16753 -1.02275,0.0314 -0.79589,-0.55975 0.19717,-0.51383 0.098,-0.65654 -0.28955,-0.41697 -0.32412,0.20032 -0.58929,0.69083 -0.58929,1.09005 0,0.3992 -0.20814,0.72583 -0.46253,0.72583 -0.25438,0 -0.82104,0.13764 -1.25926,0.30575 -0.49388,0.18942 -0.79675,0.0364 -0.79675,-0.40298 0,-1.01398 -1.01035,-1.88486 -1.82435,-1.57249 -1.0366,0.39777 -0.83953,1.14005 0.43916,1.65401 1.12763,0.45325 1.127,0.45567 -0.12584,0.47977 -0.69259,0.0133 -1.59026,-0.18523 -1.99479,-0.44102 -0.62948,-0.39818 -0.60007,-0.61492 0.20399,-1.50341 0.51674,-0.571 1.35773,-1.03817 1.86888,-1.03817 0.51112,0 0.92934,-0.32111 0.92934,-0.71359 0,-0.39246 0.28332,-0.81478 0.62964,-0.93845 0.34629,-0.12374 0.50354,-0.36308 0.34945,-0.53202 -0.42033,-0.46081 -4.14333,0.65415 -5.00875,1.50002 -0.66858,0.65347 -0.63959,0.69782 0.25185,0.38526 0.82748,-0.29011 0.89495,-0.23199 0.37779,0.3254 -0.95613,1.03045 -0.75588,2.34636 0.48986,3.21891 0.92021,0.64455 0.96504,0.78413 0.25185,0.78413 -0.4772,0 -1.32925,-0.46161 -1.89342,-1.02579 -1.14342,-1.14341 -2.43411,-0.86403 -1.45553,0.31507 0.34556,0.41638 0.38123,0.71072 0.0861,0.71072 -0.83197,0 -1.76763,-1.445 -1.45804,-2.25178 0.15897,-0.41442 0.60532,-0.63215 0.99177,-0.48385 0.44666,0.17134 0.93807,-0.29874 1.34886,-1.29047 0.91497,-2.20893 4.19695,-3.40802 8.31264,-3.03707 0.74087,0.0668 0.8075,0.1643 0.25185,0.36861 -2.22277,0.81731 -3.61342,4.17602 -1.72903,4.17602 0.56645,0 0.69699,-0.29145 0.46208,-1.03158 -0.43621,-1.37439 0.57786,-2.50262 2.21011,-2.45897 1.20507,0.0322 1.23336,0.0765 0.31611,0.49544 -0.92162,0.42085 -0.90416,0.45001 0.20503,0.34237 0.66684,-0.0647 1.31397,0.18048 1.43807,0.54473 0.1723,0.50547 -0.20454,0.58168 -1.59022,0.32172 -2.54586,-0.4776 -2.26044,0.0289 0.55726,0.98907 1.34351,0.45778 2.12546,0.56096 1.80232,0.23783 -0.609,-0.60901 -0.30942,-1.98312 0.55845,-2.56139 0.28922,-0.19272 0.35008,-0.52614 0.13536,-0.74097 -0.21481,-0.21482 -0.54968,-0.13307 -0.74415,0.18143 -0.25604,0.41426 -0.62246,0.3755 -1.32817,-0.14049 -0.91619,-0.66994 -0.87977,-0.71262 0.60805,-0.71262 0.87042,0 2.77037,0.25472 4.22209,0.56606 2.41406,0.51773 2.55852,0.62528 1.69148,1.25927 -1.10597,0.80873 -1.95989,0.91579 -1.511,0.18943 0.17115,-0.27704 0.0996,-0.5037 -0.15916,-0.5037 -0.25876,0 -0.47046,0.54236 -0.47046,1.20528 0,1.20145 0.0114,1.19892 3.86217,-0.80246 5.87512,-3.05417 9.42527,-2.67775 9.00125,0.95438 -0.1979,1.69502 0.40539,2.28254 0.93271,0.90834 0.53626,-1.39746 -0.33598,-3.29624 -1.97254,-4.29411 -0.89294,-0.54446 -1.27729,-0.99076 -0.85412,-0.99179 0.42317,-0.001 1.25017,0.33486 1.83778,0.74643 0.94508,0.66197 1.10153,0.66197 1.35553,0 0.31644,-0.8246 4.34844,-1.09196 4.34844,-0.28836 0,0.25297 0.68576,0.2011 1.52394,-0.11537 2.56634,-0.96868 3.23683,-0.11879 3.40752,4.31966 0.13174,3.42698 0.0265,3.93211 -1.06518,5.11005 -0.66628,0.71894 -1.46876,1.30715 -1.7833,1.30715 -0.31452,0 -0.57186,0.34002 -0.57186,0.75557 0,0.99941 0.3199,0.95505 2.06299,-0.28616 l 1.46295,-1.0417 v 2.33069 c 0,1.42555 -0.19563,2.20981 -0.5037,2.01941 -0.67812,-0.4191 -0.6539,2.41871 0.0265,3.09906 0.67096,0.67098 0.69944,16.9521 0.0318,18.19957 -0.30512,0.57012 -0.29242,1.21952 0.0352,1.80512 0.80682,1.44169 -0.0152,16.29938 -0.92106,16.64697 -0.71619,0.27483 -0.46003,2.76481 0.34113,3.31618 0.20127,0.1386 0.53037,2.1264 0.73134,4.41752 0.51485,5.86996 0.3818,5.96806 -7.17094,5.2878 z m -38.53016,-2.33819 c 1.47383,-0.76216 4.15219,-3.70931 4.15219,-4.5689 0,-0.20942 -1.27799,0.78724 -2.83999,2.21481 -1.56199,1.42758 -3.48867,2.72533 -4.28149,2.88389 -0.79285,0.15858 -1.44152,0.47082 -1.44152,0.69389 0,0.50419 2.30733,-0.13593 4.41081,-1.22369 z m 43.72016,1.18561 c 1.29263,-0.49144 1.34251,-0.64324 1.13844,-3.46443 -0.12946,-1.78871 -0.59917,-3.52009 -1.19313,-4.39716 -0.53885,-0.79568 -0.97972,-1.90004 -0.97972,-2.45412 0,-0.72455 -0.38894,-1.05215 -1.38521,-1.16678 -1.49984,-0.17267 -1.84624,-0.95459 -0.62963,-1.42145 1.25234,-0.48055 0.86091,-1.0771 -1.13333,-1.7272 -1.03889,-0.33866 -2.04549,-0.85792 -2.23686,-1.1539 -0.24587,-0.38024 -1.3497,-0.36653 -3.76214,0.0466 -3.70549,0.63471 -4.54981,0.50052 -2.55873,-0.40667 1.57596,-0.71806 2.64297,-2.82615 1.88982,-3.73366 -0.29,-0.34944 -0.3926,-0.98634 -0.22796,-1.41538 0.16468,-0.42901 0.0407,-1.26328 -0.2754,-1.85393 -0.87587,-1.6366 -5.43158,-1.32217 -8.94735,0.61753 -2.23615,1.23372 -2.64446,1.682 -2.64446,2.9034 0,1.76474 -0.87246,2.46579 -1.09731,0.88174 -0.20805,-1.4656 -2.26909,-1.76153 -4.44213,-0.63779 -2.08541,1.07839 -1.69409,1.9461 1.04521,2.31764 1.54219,0.20916 0.64909,0.32539 -2.90265,0.37776 -2.8216,0.0417 -5.71162,0.29672 -6.42224,0.56691 -1.10834,0.42138 -1.29207,0.35399 -1.29207,-0.47398 0,-0.53089 -0.18829,-1.08163 -0.41853,-1.2239 -0.60186,-0.37196 -5.23429,2.85945 -7.69141,5.36525 -1.94956,1.98817 -1.98587,2.00435 -0.51909,0.23129 1.92089,-2.32196 2.03946,-3.75097 0.34651,-4.17589 -1.43076,-0.35909 -2.29532,0.0459 -2.29532,1.07497 0,1.00094 0.84948,0.91103 1.47078,-0.15573 0.48403,-0.83104 0.5143,-0.82913 0.52873,0.0331 0.008,0.50302 -0.20705,1.33009 -0.47883,1.83792 -0.75369,1.4083 -6.9704,6.17805 -7.56958,5.80775 -0.29008,-0.17934 -0.91777,0.1247 -1.39483,0.67565 -0.63777,0.73645 -1.13414,0.88935 -1.87484,0.57755 -0.55407,-0.23325 -0.72408,-0.44002 -0.37778,-0.4595 0.90271,-0.0506 0.7809,-1.54651 -0.12584,-1.54651 -0.41556,0 -0.75557,0.22668 -0.75557,0.50372 0,0.27704 -0.20698,0.5037 -0.45995,0.5037 -0.2534,0 -0.205,-0.67544 0.10775,-1.50408 0.42924,-1.13718 0.42147,-1.65036 -0.0318,-2.10367 -0.85202,-0.85201 -2.63821,0.85908 -2.63821,2.5273 0,0.99706 -0.13422,1.14761 -0.60445,0.67748 -0.8916,-0.8916 -1.41037,-0.73756 -1.41037,0.41877 0,0.56278 0.34978,1.15746 0.77731,1.3215 0.69497,0.2667 0.69148,0.39311 -0.0327,1.19346 -0.61362,0.67805 -0.6611,0.98726 -0.19576,1.27486 0.37633,0.23259 0.48456,0.16963 0.27937,-0.16239 -0.18828,-0.30462 0.36307,-0.89024 1.25882,-1.3371 1.8264,-0.91112 2.64476,-1.01979 2.19459,-0.29139 -0.38846,0.62857 -0.14735,0.63059 1.47832,0.0133 0.83952,-0.31917 1.29207,-0.31917 1.29207,0 0,0.90254 3.36558,0.51052 4.71241,-0.5489 0.72728,-0.57208 1.58993,-0.87476 1.91702,-0.6726 0.39307,0.24292 0.18124,0.5362 -0.62476,0.86502 -1.07938,0.44032 -1.11066,0.52329 -0.27241,0.72216 0.52087,0.12355 1.10398,-0.0291 1.29576,-0.33954 0.24247,-0.39231 1.1817,-0.19186 3.08261,0.65785 l 2.73388,1.22209 -2.26667,0.18638 -2.26669,0.18637 2.44829,0.43102 c 1.89395,0.33341 2.54852,0.27359 2.89092,-0.26419 0.33683,-0.529 -0.39886,-1.08279 -3.07793,-2.31691 -1.93631,-0.89197 -3.52055,-1.8158 -3.52055,-2.05297 0,-0.23717 0.57627,-0.97258 1.28061,-1.63427 1.09703,-1.03061 1.42486,-1.11295 2.28715,-0.57445 1.27148,0.79405 1.76838,0.48434 2.13086,-1.32807 0.57473,-2.87361 9.32666,-5.49831 16.61805,-4.98375 2.27749,0.16067 4.7613,0.52812 5.51959,0.81641 1.32577,0.50406 1.38258,0.67464 1.47881,4.4404 l 0.10014,3.91617 0.17382,-3.65185 c 0.13022,-2.73559 0.35313,-3.65188 0.88843,-3.65188 1.38646,0 6.21209,2.06558 8.21467,3.51625 1.62011,1.1736 1.97232,1.70163 1.75301,2.62808 -0.26569,1.12232 -0.25023,1.12807 0.48297,0.17991 0.74218,-0.95971 0.78656,-0.96047 2.20371,-0.0381 1.20052,0.78149 1.3288,0.79813 0.75494,0.0978 -0.38022,-0.46391 -0.4613,-0.8435 -0.1801,-0.8435 0.65751,0 6.1604,5.92958 6.1604,6.63809 0,0.29489 -1.21489,-0.50174 -2.69977,-1.77032 -1.48489,-1.26858 -3.31445,-2.58656 -4.06574,-2.92886 -1.74127,-0.79338 -2.28268,-0.068 -2.29349,3.07298 -0.0133,3.60515 -0.94458,1.73186 -1.11541,-2.24151 l -0.15154,-3.52594 -3.77779,-1.88861 c -5.30513,-2.65217 -5.54077,-2.59793 -5.54077,1.27512 0,1.7404 0.30681,4.34706 0.68177,5.79263 0.37497,1.44558 0.51414,2.62831 0.30925,2.62831 -1.07774,0 -2.75607,-5.83516 -3.11364,-10.82542 l -0.14411,-2.01056 -2.77039,-0.4003 c -3.03071,-0.43793 -7.45293,-0.30438 -7.0519,0.21295 0.1386,0.17877 -0.14545,0.76389 -0.631,1.30045 -0.95265,1.05266 -1.03764,3.00141 -0.2382,5.46206 0.46619,1.43489 0.63357,1.5253 2.31727,1.25164 1.48755,-0.2418 2.02995,-0.68502 3.00792,-2.45791 0.65621,-1.18959 1.26519,-2.09084 1.35326,-2.00277 0.0881,0.0881 -0.0998,1.13381 -0.41738,2.32384 -0.37514,1.40546 -0.40383,2.28649 -0.0819,2.51411 0.27264,0.19271 0.72344,1.03041 1.00177,1.86152 0.36,1.07501 1.27501,1.92459 3.17041,2.94369 3.14204,1.68943 4.50141,1.52319 5.75493,-0.70374 1.15554,-2.0529 1.11554,-4.33827 -0.11841,-6.75836 -0.54989,-1.07858 -0.88754,-2.0733 -0.75035,-2.21049 0.44986,-0.44984 1.72337,1.65084 2.24711,3.70666 1.03048,4.04487 1.31117,4.5268 3.28892,5.64694 2.53785,1.43733 3.26174,1.44169 3.28277,0.0198 l 0.0171,-1.13334 0.94547,1.13334 c 0.55177,0.66142 1.54107,1.14809 2.37585,1.16874 0.7867,0.0194 1.88371,0.23021 2.43778,0.46831 1.35524,0.58237 1.49172,0.58191 3.04926,-0.01 z m -8.07987,-9.04602 c -0.16773,-0.27133 -0.0348,-1.00799 0.2954,-1.63706 0.58286,-1.11051 0.5714,-1.11812 -0.39413,-0.26226 -1.28676,1.14061 -1.81059,1.11095 -2.9681,-0.1681 -0.94777,-1.04729 -0.9468,-1.0482 0.43733,-0.41754 1.20608,0.54953 1.64121,0.48927 3.33298,-0.46155 2.77949,-1.56216 3.57328,-1.35016 1.62104,0.43294 -1.00087,0.91417 -1.55742,1.82345 -1.38732,2.26669 0.31523,0.82151 -0.45643,1.02476 -0.9372,0.24684 z m -8.19167,-4.44303 c -2.34326,-0.95676 -3.14816,-1.53609 -3.14816,-2.26587 0,-0.79566 -0.1365,-0.86715 -0.7244,-0.37929 -0.53551,0.44446 -1.29065,0.46549 -2.89631,0.0807 l -2.17192,-0.52053 1.98402,0.14279 c 1.81567,0.13079 2.23905,-0.10585 4.98992,-2.78935 3.52183,-3.43546 4.66265,-3.84717 2.19309,-0.79146 -1.6056,1.98668 -2.8707,4.00758 -2.8707,4.58569 0,0.13441 1.07668,0.61003 2.39261,1.05679 1.31592,0.44678 2.8326,1.145 3.37036,1.55161 1.32762,1.00382 0.60015,0.84728 -3.11851,-0.67108 z m -33.00048,12.61785 c -0.69198,-0.76875 -0.70508,-1.09088 -0.10242,-2.51854 0.80948,-1.91752 0.17096,-2.24491 -0.69056,-0.35408 -1.02878,2.25795 -0.69531,3.7541 0.83673,3.7541 0.64709,0 0.6411,-0.1207 -0.0438,-0.88148 z m 25.82266,0.32316 c 0,-0.33801 -0.47765,-0.43842 -1.21055,-0.25447 -2.18115,0.54743 -7.43263,-0.27479 -8.48658,-1.32874 -0.56228,-0.56228 -1.37991,-0.86767 -1.93469,-0.72258 -2.13952,0.5595 -0.7767,-0.51581 1.7363,-1.36999 2.23398,-0.75936 2.89832,-0.80914 3.86858,-0.28987 1.08911,0.58288 1.10984,0.67197 0.29495,1.26782 -0.5563,0.40678 -0.68146,0.76143 -0.34262,0.97084 0.70826,0.43774 1.54125,-0.1127 1.54125,-1.01851 0,-0.39921 0.22667,-0.72584 0.5037,-0.72584 0.27704,0 0.50372,0.61201 0.50372,1.36002 0,0.9335 0.16278,1.19723 0.51905,0.84094 0.8286,-0.82858 -0.19748,-2.85161 -1.56991,-3.09525 -0.6687,-0.1188 -2.17915,-0.22126 -3.35658,-0.22785 -2.0192,-0.0114 -2.14075,-0.0942 -2.14075,-1.45975 0,-1.40449 -1.49696,-3.46259 -2.51852,-3.46259 -0.74413,0 -0.61172,0.79443 0.25185,1.51112 1.53596,1.27475 0.60619,4.02966 -1.36002,4.02966 -0.97921,0 -1.22049,0.75401 -0.40295,1.25927 1.24158,0.76736 0.39773,1.32992 -1.51112,1.0074 -1.23161,-0.20806 -2.01484,-0.14506 -2.01484,0.16201 0,0.78876 7.55103,1.88215 13.97786,2.02402 2.38537,0.0525 3.65187,-0.11308 3.65187,-0.47771 z m 8.56302,-0.9528 c 0,-0.27703 -0.1,-0.5037 -0.22213,-0.5037 -0.12222,0 -0.36221,0.22667 -0.53344,0.5037 -0.17115,0.27704 -0.0712,0.5037 0.22213,0.5037 0.29339,0 0.53344,-0.22666 0.53344,-0.5037 z m -31.73351,-0.1931 c 0,-0.10623 -0.45335,-0.31166 -1.00742,-0.45656 -0.55408,-0.14488 -1.00742,-0.0581 -1.00742,0.19312 0,0.25109 0.45334,0.45654 1.00742,0.45654 0.55407,0 1.00742,-0.0868 1.00742,-0.1931 z m 15.61489,-1.85145 c 0,-0.26069 -0.22666,-0.47399 -0.5037,-0.47399 -0.27703,0 -0.50371,0.35338 -0.50371,0.78529 0,0.43191 0.22668,0.64521 0.50371,0.47398 0.27704,-0.17115 0.5037,-0.5246 0.5037,-0.78528 z m -11.5225,-1.74584 c -0.0152,-0.56001 -3.08499,-1.31275 -3.08499,-0.75633 0,0.43836 2.09763,1.49406 2.68224,1.34991 0.22855,-0.0564 0.40979,-0.32347 0.40275,-0.59358 z m 5.3416,-0.04 c -0.16734,-0.16734 -0.60182,-0.18524 -0.96544,-0.0398 -0.40181,0.16087 -0.28246,0.28016 0.30434,0.30432 0.53098,0.0219 0.82848,-0.0973 0.6611,-0.26455 z m -7.77472,-2.34012 c 0.85961,-0.62333 2.59459,-1.51243 3.85554,-1.97577 2.13658,-0.78512 2.18978,-0.84646 0.78152,-0.90121 l -1.51112,-0.0588 1.63703,-0.71153 c 1.69021,-0.73463 2.25397,-2.27128 0.83328,-2.27128 -1.04924,0 -3.63023,1.53307 -3.93999,2.34029 -0.14906,0.3885 0.0383,0.5231 0.48792,0.35054 1.61695,-0.62047 0.57064,0.37019 -2.04048,1.93197 -2.6432,1.58097 -3.41781,2.4291 -2.21851,2.4291 0.30352,0 1.25518,-0.51 2.11481,-1.13335 z m 8.62325,0.69996 c 0.23411,-0.37881 -4.19555,-1.07772 -6.83047,-1.07772 -1.31798,0 -1.16357,0.89304 0.19982,1.15563 2.11536,0.40744 6.36152,0.35754 6.63065,-0.0779 z m -10.9924,-1.95551 c -0.34932,-0.34931 -1.30496,0.36044 -1.30496,0.96919 0,0.334 0.28903,0.29579 0.76773,-0.10147 0.42226,-0.35045 0.664,-0.74089 0.53723,-0.86769 z m 10.25884,-2.03674 c 0.63087,-2.27154 0.68625,-4.0192 0.10642,-3.35663 -0.45555,0.52054 -1.59603,4.25483 -1.59603,5.22599 0,1.19201 0.98149,-0.0396 1.48967,-1.86936 z m -24.57759,0.10033 1.34181,-1.77009 1.1033,1.15881 1.10329,1.15883 -0.35621,-2.26667 c -0.4623,-2.94179 -0.84056,-3.27737 -2.31265,-2.0517 -0.66767,0.55592 -1.02381,1.01829 -0.79142,1.02752 0.23242,0.01 -0.16429,0.71415 -0.88148,1.56652 -1.24886,1.4842 -1.7236,3.00399 -0.92626,2.96524 0.20777,-0.01 0.9816,-0.81491 1.71962,-1.78846 z m 7.4653,1.42903 c -0.0133,-0.62817 -0.68582,-1.3505 -1.88118,-2.01908 -1.06464,-0.59548 -1.13333,-0.54206 -1.13333,0.88148 0,1.34795 0.16696,1.51539 1.51112,1.51539 0.83111,0 1.50763,-0.17001 1.50339,-0.37779 z m 3.65132,-4.26378 c -0.20446,-0.78185 -0.33323,-0.75584 -1.22266,0.24678 -0.90713,1.02261 -0.96218,1.03253 -0.62889,0.11328 0.69337,-1.91238 0.82163,-3.65955 0.29265,-3.98647 -0.62311,-0.38511 -2.08469,2.21571 -2.08469,3.7096 0,0.56784 -0.20243,1.03244 -0.44982,1.03244 -0.5541,0 -1.15419,-1.45706 -0.82167,-1.99508 0.13364,-0.21617 -0.0567,-1.61238 -0.42296,-3.10271 -0.36625,-1.49031 -0.68896,-3.24034 -0.71714,-3.88894 -0.0611,-1.4074 -1.40949,-3.60595 -2.21146,-3.60595 -0.31675,0 -0.17781,0.43364 0.31281,0.97568 0.48564,0.53662 0.7594,1.17562 0.60835,1.42001 -0.15097,0.24439 0.26255,2.18536 0.91909,4.31324 0.65651,2.12791 1.01598,3.86891 0.79882,3.86891 -0.98674,0 0.16125,2.45756 1.27913,2.7381 0.75897,0.19049 1.20855,0.66891 1.20855,1.28607 0,0.84806 0.23079,0.76115 1.68421,-0.63416 1.03346,-0.99215 1.59591,-1.95457 1.45568,-2.4908 z m 16.42494,1.18312 c 0.75482,-2.5194 0.75208,-2.53583 -0.37351,-2.24147 -0.60762,0.15897 -1.04538,0.83115 -1.19928,1.84173 -0.45254,2.97166 0.71342,3.26798 1.57279,0.39974 z m -28.12785,-0.31936 c 0.34489,-0.41556 0.4625,-0.75555 0.26135,-0.75555 -0.20113,0 0.30316,-0.7618 1.12066,-1.69286 1.15783,-1.31872 1.43504,-2.04235 1.25426,-3.27411 -0.12755,-0.86966 -0.44295,-1.58121 -0.70068,-1.58121 -0.25776,0 -0.43184,-0.28334 -0.38687,-0.62964 0.21012,-1.61803 -0.0891,-3.40002 -0.57104,-3.40002 -0.29337,0 -0.39623,0.22198 -0.22854,0.49329 0.16772,0.27132 0.0419,0.98455 -0.27938,1.58498 -0.48124,0.89919 -0.43351,1.17606 0.27069,1.57014 0.79224,0.44337 0.78257,0.55803 -0.13174,1.56319 -1.56897,1.72504 -2.16078,3.21292 -2.03294,5.11115 0.13003,1.92936 0.4646,2.16686 1.42415,1.01064 z m 62.86837,-1.63704 c 0.30045,-0.90037 0.35595,-1.63705 0.12336,-1.63705 -0.2326,0 -0.55984,0.54562 -0.72722,1.21247 -0.16734,0.66686 -0.45195,1.6302 -0.63243,2.14076 -0.22038,0.62346 -0.16106,0.76288 0.18086,0.42458 0.28,-0.27704 0.7549,-1.24039 1.05533,-2.14076 z m -57.99092,0.78704 c -0.16087,-0.40183 -0.28014,-0.28246 -0.30432,0.30432 -0.0219,0.531 0.0973,0.8285 0.26457,0.66112 0.16734,-0.16734 0.18523,-0.60184 0.0398,-0.96544 z m 8.72263,0.3463 c 0,-0.41556 -0.22666,-0.75555 -0.5037,-0.75555 -0.27704,0 -0.5037,0.33999 -0.5037,0.75555 0,0.41555 0.22666,0.75557 0.5037,0.75557 0.27704,0 0.5037,-0.34002 0.5037,-0.75557 z m 47.06313,-1.81447 c -1.57741,-0.61772 -1.99346,-0.5044 -0.94989,0.25868 0.53473,0.391 1.18634,0.57856 1.44805,0.41682 0.26169,-0.16182 0.0375,-0.46572 -0.49816,-0.6755 z m -47.56683,-0.87507 c 0,-0.23256 0.53823,-0.66809 1.19608,-0.96782 0.91227,-0.41565 1.53071,-0.37135 2.60642,0.18676 1.30787,0.67852 1.6052,0.62988 4.09164,-0.66923 1.47472,-0.77052 2.68183,-1.57092 2.6825,-1.7787 0.002,-0.53069 -0.1346,-0.49974 -2.76919,0.62964 -2.9696,1.2729 -4.01516,1.26566 -5.84955,-0.0405 l -1.47172,-1.04797 -0.74681,1.78733 c -0.88343,2.11437 -0.9053,2.32343 -0.24307,2.32343 0.27703,0 0.5037,-0.19038 0.5037,-0.42287 z m 49.30764,-0.86167 c 0.38498,-0.36028 0.76838,-1.862 0.85203,-3.33714 l 0.15211,-2.68207 -0.36512,2.33543 c -0.20083,1.28452 -0.67772,2.71212 -1.05981,3.17249 -0.90873,1.09495 -2.8221,0.83511 -2.72358,-0.36987 0.0407,-0.49827 -0.186,-0.81317 -0.5037,-0.69979 -0.31778,0.11347 -0.52378,0.69117 -0.4578,1.28397 0.13631,1.22446 -0.75762,1.4675 -1.19599,0.32514 -0.15877,-0.41397 -0.48947,-0.62866 -0.73472,-0.47708 -0.24526,0.15154 -0.16487,0.58666 0.17877,0.96686 0.75612,0.83685 4.79158,0.48004 5.85792,-0.51794 z m -57.64179,-0.85622 c -0.43766,-2.01883 -2.36734,-6.65816 -2.04275,-4.91114 0.1287,0.69259 0.38045,2.16594 0.55947,3.27409 0.45246,2.80079 0.6373,3.27409 1.27863,3.27409 0.36826,0 0.43823,-0.5596 0.20465,-1.63704 z m 4.30449,-0.0221 c 0,-0.29056 0.3113,-0.88613 0.69177,-1.3235 0.81267,-0.93424 1.56296,-4.57304 0.94292,-4.57304 -0.23418,0 -0.67174,0.24597 -0.97237,0.54658 -0.39296,0.39295 -0.98752,0.31853 -2.11557,-0.26478 -1.78379,-0.92246 -1.82564,-0.81308 -1.0489,2.74044 1.06669,4.8799 0.97445,4.67049 1.76735,4.01243 0.40413,-0.33541 0.7348,-0.84756 0.7348,-1.13813 z m 3.76798,-3.16971 c 0.93799,-3.60115 0.95235,-4.23795 0.0956,-4.23795 -0.41944,0 -0.94128,1.271 -1.39596,3.40003 -0.77304,3.61972 -0.72257,6.02365 0.0958,4.56138 0.24161,-0.43174 0.78371,-2.10729 1.20467,-3.72346 z m 13.53606,2.69447 c 0.27593,0.44645 0.65739,0.4811 1.33056,0.12089 1.20064,-0.64254 1.6584,-0.64304 1.26181,-0.001 -0.17115,0.27703 0.14202,0.5037 0.69611,0.5037 0.55407,0 1.1475,-0.22667 1.31872,-0.5037 0.17115,-0.27704 -0.0554,-0.5037 -0.50371,-0.5037 -1.82784,0 0.0308,-1.03305 4.16863,-2.31693 4.45133,-1.38102 7.66847,-2.618 7.66847,-2.94832 0,-0.47796 -9.96893,2.17095 -13.53415,3.59626 -2.58526,1.03354 -3.28899,1.15179 -3.62448,0.60895 -0.78009,-1.26221 -1.11277,0.0152 -0.43202,1.6582 0.66796,1.61261 0.68285,1.61874 0.97079,0.39901 0.1983,-0.84004 0.41693,-1.03727 0.67927,-0.6128 z m 31.77347,-1.91124 c 1.26531,-1.3527 2.30056,-2.80918 2.30056,-3.23662 0,-1.19757 -0.65492,-0.92489 -1.76297,0.73398 -0.55407,0.82953 -1.38503,1.50887 -1.84656,1.50967 -0.72734,0.001 -3.94607,3.42982 -3.94607,4.20331 0,0.89734 3.29654,-1.11653 5.25504,-3.21034 z m 3.81168,1.622 c 0,-0.64014 -2.0825,-2.71373 -2.40327,-2.39299 -0.15782,0.15802 0.24439,0.85293 0.89402,1.54442 1.26909,1.35088 1.50925,1.48591 1.50925,0.84857 z m -40.00554,-1.46381 c 3.95069,-1.62243 3.48664,-2.19688 -0.55356,-0.68525 -4.52961,1.69474 -7.35226,1.09536 -6.56233,-1.39354 0.66876,-2.10707 5.79621,-2.68032 7.33968,-0.82056 0.78587,0.94692 1.55329,0.96336 1.19343,0.0255 -0.35107,-0.91488 -3.26441,-2.30783 -4.80657,-2.29816 -4.15309,0.0261 -6.2785,4.62689 -2.78725,6.03355 1.76476,0.71102 2.64672,0.588 6.1766,-0.86161 z m 31.92102,-1.85846 c -1.30279,-0.60017 -1.61109,-0.2173 -1.18668,1.47367 l 0.34823,1.38749 0.91513,-1.20214 c 0.88899,-1.16776 0.88678,-1.21518 -0.0767,-1.65902 z m -26.92308,1.21245 c 0.17114,-0.27704 0.0712,-0.5037 -0.22214,-0.5037 -0.29337,0 -0.53341,0.22666 -0.53341,0.5037 0,0.27704 0.0999,0.50372 0.22211,0.50372 0.12222,0 0.36221,-0.22668 0.53344,-0.50372 z m -9.82227,-0.21065 c 0,-0.11594 -0.13765,-0.56919 -0.30575,-1.00742 -0.43189,-1.12547 -1.20537,-0.99031 -1.20537,0.21067 0,0.55967 0.3358,1.0074 0.75555,1.0074 0.41555,0 0.75557,-0.0948 0.75557,-0.21065 z m 21.15567,-0.29305 c 0,-0.27704 -0.2133,-0.5037 -0.47398,-0.5037 -0.2607,0 -0.61408,0.22666 -0.78529,0.5037 -0.17115,0.27704 0.0421,0.5037 0.47399,0.5037 0.4319,0 0.78528,-0.22666 0.78528,-0.5037 z m 24.17792,0.0297 c 0,-0.59432 -0.98241,-1.23007 -1.34323,-0.86924 -0.3608,0.3608 0.27495,1.3432 0.86925,1.3432 0.26068,0 0.47398,-0.21328 0.47398,-0.47398 z m -42.91097,-0.91122 c -0.0933,-0.48482 -0.50354,-0.88149 -0.9115,-0.88149 -0.40798,0 -0.81817,0.39667 -0.91153,0.88149 -0.11918,0.61848 0.15287,0.88148 0.91153,0.88148 0.75865,0 1.03062,-0.263 0.9115,-0.88148 z m 1.886,-0.58575 c -0.5789,-0.93668 -1.20593,-0.60059 -0.91993,0.49311 0.17763,0.67889 0.44358,0.86926 0.76526,0.5476 0.27121,-0.27121 0.34082,-0.73954 0.15459,-1.04071 z m 11.43221,-0.0767 c 1.45342,-0.66382 1.8245,-1.72086 0.75555,-2.15219 -0.3463,-0.13974 -0.0954,-0.27196 0.5576,-0.29383 0.89479,-0.0299 1.11012,0.16125 0.87423,0.7759 -0.25682,0.66925 -0.063,0.76046 1.07944,0.50812 5.32917,-1.17703 6.90049,-1.35842 10.71102,-1.23646 l 4.28151,0.13707 0.15935,-1.37163 c 0.0897,-0.7721 0.63199,-1.62457 1.24061,-1.95029 l 1.08119,-0.57865 -1.16836,-0.43219 c -0.9797,-0.36242 -1.10884,-0.65532 -0.79961,-1.81378 0.20283,-0.75986 0.34832,-1.72157 0.3233,-2.13712 -0.0249,-0.41556 -0.0444,-3.82097 -0.043,-7.56756 0.002,-6.26385 0.41746,-9.04669 1.63292,-10.94366 0.27308,-0.4262 0.0868,-0.62964 -0.57654,-0.62964 -0.71921,0 -1.04559,-0.4356 -1.2266,-1.63703 -0.13574,-0.90039 -0.10471,-1.69741 0.0687,-1.77118 1.09733,-0.46659 1.66978,-1.09164 1.49101,-1.62795 -0.13707,-0.41112 -0.7395,-0.17077 -1.79215,0.71498 -1.22445,1.0303 -1.89576,1.25649 -2.94653,0.99278 -1.30399,-0.3273 -1.2598,-0.37988 1.05913,-1.26013 1.33094,-0.50522 2.66549,-1.18618 2.96564,-1.51325 0.41148,-0.4484 0.29792,-0.49856 -0.46171,-0.20391 -1.67937,0.65141 -3.27409,0.90389 -3.27409,0.51836 0,-0.2002 0.56668,-0.80975 1.25927,-1.35454 1.22628,-0.9646 1.58194,-2.51267 0.95353,-4.15032 -0.56055,-1.46078 -1.14179,-0.82024 -0.68884,0.75911 0.38105,1.32868 0.26302,1.72564 -0.8084,2.71861 -0.77391,0.71721 -1.63384,1.06356 -2.24436,0.90391 -1.10309,-0.28846 -1.33533,-1.44506 -0.3601,-1.79335 0.3463,-0.12375 0.46511,-0.40155 0.26403,-0.61747 -0.62116,-0.66701 -1.94638,0.82951 -1.62666,1.83691 0.36877,1.16179 -0.49808,1.21236 -2.98328,0.174 -1.00346,-0.41926 -1.82448,-0.58249 -1.82448,-0.36272 0,0.21977 1.13333,0.83937 2.51853,1.3769 3.07629,1.19378 3.2839,1.82785 0.38523,1.17657 -3.24424,-0.72893 -4.07329,-1.71989 -3.72233,-4.44931 0.26714,-2.07751 0.22914,-2.18589 -0.45232,-1.29026 -2.32886,3.06081 0.59878,6.82969 5.30527,6.82969 1.25142,0 1.94649,0.19912 1.75824,0.5037 -0.47499,0.76855 -3.66624,0.60003 -4.98369,-0.2632 -1.04809,-0.68674 -1.23698,-0.68674 -1.80693,0 -0.89483,1.07822 -2.28141,0.95315 -3.09991,-0.2796 l -0.69486,-1.04651 -1.20663,1.04651 c -1.04578,0.90699 -1.86787,1.0465 -6.16663,1.0465 -3.04537,0 -4.95999,-0.19891 -4.95999,-0.51531 0,-0.28344 -0.58602,-0.13136 -1.30226,0.33796 -1.0271,0.67298 -1.38629,0.71728 -1.70001,0.20968 -0.31865,-0.51558 -0.47566,-0.51752 -0.78951,-0.01 -0.23333,0.37752 -0.055,0.88009 0.44074,1.24263 0.6553,0.47918 0.8325,1.47514 0.8325,4.67907 0,2.34339 -0.22828,4.21141 -0.53805,4.40286 -0.29592,0.18295 -0.37858,0.70626 -0.18371,1.16307 0.59674,1.39863 0.26447,3.23472 -0.78814,4.35517 -0.75184,0.80029 -0.8579,1.20984 -0.42531,1.64244 0.88113,0.8811 1.56007,5.00325 1.4927,9.06262 -0.0537,3.23531 0.0453,3.65188 0.86842,3.65188 0.51099,0 1.35105,0.46631 1.86684,1.03624 l 0.93778,1.03622 0.38332,-1.03622 c 0.3886,-1.0505 2.43061,-1.483 2.43061,-0.5148 0,0.35943 0.3027,0.35943 0.97431,0 0.53586,-0.2868 1.4992,-0.49942 2.14074,-0.4725 0.94739,0.0398 0.81171,0.19451 -0.72245,0.82392 -1.03889,0.42623 -1.88888,0.97884 -1.88888,1.22805 0,0.24918 0.43644,0.21948 0.96989,-0.0661 0.58899,-0.31523 1.42972,-0.34843 2.14076,-0.0845 1.03906,0.38563 0.91895,0.47724 -1.06722,0.81392 -1.92538,0.3264 -2.35647,0.23315 -3.08563,-0.66731 -1.0181,-1.25729 -1.66049,-0.86373 -0.90237,0.55285 0.46393,0.86687 0.89747,0.969 3.13043,0.73743 1.42556,-0.14773 3.21526,-0.55348 3.97713,-0.90146 z m -1.38521,-0.97467 c -0.88613,-0.38077 -0.83705,-0.43716 0.40751,-0.46829 0.82216,-0.0206 1.28451,0.17553 1.10361,0.46829 -0.17114,0.27704 -0.35459,0.48778 -0.4075,0.46831 -0.0529,-0.0194 -0.54954,-0.23021 -1.10362,-0.46831 z m -2.77038,-8.24252 c 0,-0.45331 0.19184,-0.8242 0.42631,-0.8242 0.61406,0 1.15049,-14.23959 0.55872,-14.83136 -1.0244,-1.0244 -0.34799,-1.28724 3.31266,-1.28724 5.7291,0 8.61773,1.47328 10.36989,5.28891 1.21335,2.64232 1.18226,4.48556 -0.12108,7.17795 -1.71993,3.5529 -4.03576,4.75035 -9.76661,5.05012 -4.19174,0.21926 -4.77988,0.14868 -4.77988,-0.57418 z m 9.39056,-1.64768 c 2.18451,-1.03662 3.31329,-3.18687 3.38729,-6.45259 0.10509,-4.64075 -2.77307,-7.83513 -7.05972,-7.83513 h -2.19218 v 7.5556 7.5556 h 2.06463 c 1.13554,0 2.84553,-0.37057 3.79998,-0.82348 z m 19.08091,10.91713 c -0.16468,-0.26632 -1.14129,-0.62611 -2.17047,-0.79954 -1.02918,-0.17344 -2.32457,-0.43705 -2.87864,-0.5858 -0.56416,-0.15154 -0.82578,-0.0767 -0.5946,0.16982 0.40601,0.43309 3.99297,1.55337 5.28361,1.65017 0.36265,0.0272 0.5247,-0.16848 0.3601,-0.43474 z m 5.64707,-0.43004 c 1.0842,-0.68865 1.33035,-3.35772 0.39585,-4.29223 -1.11041,-1.11043 -2.25618,-1.04161 -3.78828,0.22748 -1.00622,0.83349 -1.05682,0.96761 -0.25187,0.66745 1.7965,-0.6699 3.38548,-0.49426 3.96584,0.43832 0.47016,0.75553 0.32505,1.12283 -0.84575,2.14076 -1.30103,1.13116 -0.91562,1.73275 0.52421,0.81822 z m -52.6189,-1.47838 c 0.53441,-0.48481 1.91227,-1.33481 3.0619,-1.8889 2.45836,-1.18483 2.91464,-2.92545 0.83098,-3.17005 -0.96969,-0.11384 -1.08887,-0.0333 -0.5183,0.35039 0.96898,0.65153 0.52014,1.04371 -1.8344,1.60277 -2.13712,0.50743 -7.12958,0.10471 -8.07716,-0.65159 -0.73548,-0.58703 -1.6591,-0.1009 -1.6591,0.87307 0,1.06092 1.72628,1.83804 2.45787,1.10646 0.46067,-0.4607 0.6596,-0.35934 0.86941,0.44295 0.23565,0.90113 1.97022,1.99389 3.43309,2.16282 0.25522,0.0295 0.90129,-0.3431 1.43571,-0.82792 z m 47.26471,-0.77338 c -0.52853,-1.43054 -0.23756,-2.2436 1.53213,-4.28121 1.53882,-1.77176 1.92009,-3.28439 0.71093,-2.82038 -0.39935,0.15325 -0.79602,0.75172 -0.88148,1.32994 -0.0855,0.57821 -0.49538,1.16257 -0.91094,1.29858 -0.63399,0.20751 -0.64961,0.11898 -0.0971,-0.55071 0.46286,-0.56087 0.5112,-1.07167 0.16277,-1.71895 -0.27272,-0.50654 -0.66889,-1.3743 -0.88036,-1.92839 -0.34283,-0.89818 -0.40507,-0.85721 -0.57395,0.37779 -0.10414,0.76185 -0.40103,1.3852 -0.65966,1.3852 -0.78157,0 -0.52833,1.10573 0.41044,1.79217 0.48439,0.3542 0.71654,0.80815 0.51588,1.00881 -0.56239,0.56238 -1.90027,-0.78723 -1.90027,-1.91693 0,-0.78564 -0.14887,-0.88392 -0.67599,-0.44639 -0.37179,0.30854 -0.80242,0.43455 -0.95697,0.28 -0.15459,-0.15458 -0.43067,-0.0388 -0.61361,0.25719 -0.18466,0.29891 0.2407,0.75612 0.95699,1.02845 0.70925,0.26965 1.28958,0.72256 1.28958,1.00647 0,0.28389 0.45333,0.51617 1.0074,0.51617 1.50708,0 1.21434,1.37824 -0.47868,2.25374 -1.84463,0.95389 -2.54356,0.97226 -2.54356,0.0668 0,-0.87774 1.24151,-1.385 2.34931,-0.95991 0.5636,0.21629 0.71887,0.12851 0.47399,-0.26765 -0.47229,-0.76417 -1.95147,-0.75593 -2.72255,0.0152 -0.85333,0.85335 -0.75035,2.25403 0.1923,2.61577 1.41395,0.54257 2.72919,0.32581 2.72919,-0.44983 0,-0.41555 0.22666,-0.75555 0.50372,-0.75555 0.27704,0 0.5037,0.58005 0.5037,1.28899 0,0.70895 0.218,1.15426 0.48445,0.98958 0.28148,-0.174 0.31178,-0.76682 0.0723,-1.41492 z m 4.4657,0.12412 c -1.00978,-0.6386 -2.37117,-0.60266 -2.78915,0.0737 -0.22464,0.36347 -0.0152,0.45517 0.5999,0.26335 0.51952,-0.16182 1.27801,-0.0851 1.68555,0.17057 0.40752,0.25566 0.8543,0.3515 0.99281,0.21298 0.1386,-0.1386 -0.0815,-0.46273 -0.48911,-0.72046 z m -60.29266,0.0265 c 0.82999,-0.006 0.8364,-0.0935 0.091,-1.23115 -0.75047,-1.14535 -0.73423,-1.2922 0.25179,-2.27822 0.85982,-0.85982 1.24532,-0.95155 2.09295,-0.4979 1.68288,0.90066 1.62613,0.20308 -0.10185,-1.25085 -1.28592,-1.08205 -1.90927,-1.28107 -3.16944,-1.01193 -2.20737,0.47143 -2.6569,0.96173 -3.03189,3.30674 -0.38645,2.41674 0.35979,3.67234 1.93174,3.25017 0.57343,-0.15401 1.44449,-0.28309 1.9357,-0.28686 z m 17.8703,-4.93785 c -0.11804,-2.68015 -0.21549,-2.88682 -1.42881,-3.02787 -0.71621,-0.0832 -1.57409,0.17628 -1.9064,0.57661 -0.48732,0.58716 -0.44074,0.7139 0.24076,0.65509 0.46471,-0.0402 0.9449,0.21044 1.06706,0.55674 0.1325,0.37546 -0.20865,0.62963 -0.84501,0.62963 -0.91965,0 -0.99076,0.14259 -0.51455,1.03246 0.41224,0.77028 0.38553,1.40984 -0.10528,2.51854 -0.36177,0.81732 -0.82913,1.48606 -1.03853,1.48606 -0.20941,0 -0.38075,0.19358 -0.38075,0.4302 0,0.2366 1.13356,-0.11233 2.51903,-0.77539 l 2.51906,-1.20556 z m 42.94066,3.92356 c 0,-0.27704 -0.24005,-0.50372 -0.53344,-0.50372 -0.29339,0 -0.39336,0.22668 -0.22213,0.50372 0.17115,0.27704 0.41127,0.5037 0.53344,0.5037 0.12222,0 0.22213,-0.22666 0.22213,-0.5037 z m -53.13089,-4.87838 c -0.52518,-4.20336 -1.05174,-5.33273 -2.3014,-4.9361 -0.56715,0.17991 -1.36994,0.0461 -1.78393,-0.29743 -0.53709,-0.44575 -0.90795,-0.46951 -1.29453,-0.083 -0.29798,0.29798 -1.30838,0.41738 -2.24533,0.26533 -1.69519,-0.2751 -1.70355,-0.26666 -1.70355,1.71705 0,1.88704 0.0741,1.98289 1.38521,1.79501 1.075,-0.15402 1.98656,0.31669 4.07078,2.10207 3.70091,3.17031 4.3278,3.07918 3.87275,-0.563 z m 52.11226,0.39286 c -0.008,-0.58485 -0.27915,-0.46084 -0.99621,0.45586 -1.28571,1.6437 -1.28571,2.42282 0,1.25927 0.55407,-0.50143 1.00237,-1.27324 0.99621,-1.71513 z m -49.35204,1.47621 c 0,-0.26992 0.68001,-0.84242 1.51112,-1.2722 0.83113,-0.42979 1.51112,-1.09943 1.51112,-1.48808 0,-1.07325 1.4446,-2.28973 2.71914,-2.28973 0.97576,0 1.10474,-0.2132 0.91425,-1.51112 -0.12204,-0.83111 -0.36606,-1.53906 -0.54239,-1.57324 -0.17629,-0.0341 -1.85414,-0.12603 -3.72846,-0.20408 -2.8817,-0.12013 -3.48442,0.001 -3.90373,0.78456 -0.97728,1.82605 -0.33622,8.04466 0.82931,8.04466 0.3793,0 0.68964,-0.22085 0.68964,-0.49077 z m 50.85484,-1.39813 c 0.72358,-2.57135 1.29989,-12.94674 0.69849,-12.57505 -0.2683,0.16582 -0.38018,-0.46639 -0.26186,-1.47984 0.11365,-0.97315 -0.0849,-3.14267 -0.44109,-4.82117 -0.59702,-2.81328 -0.57505,-3.1049 0.28104,-3.7309 0.51076,-0.37348 0.77144,-0.83629 0.57926,-1.02846 -0.59691,-0.59693 -1.47497,0.70421 -1.82612,2.70599 l -0.33583,1.91451 -0.62659,-2.51854 c -0.34462,-1.38519 -0.74989,-3.01347 -0.90061,-3.61839 -0.23004,-0.92325 -0.10262,-1.05505 0.79317,-0.82077 0.86568,0.22636 1.00208,0.10927 0.72229,-0.61981 -0.24233,-0.63154 -0.16316,-0.78651 0.26643,-0.52107 1.45347,0.89832 2.4979,-1.83716 1.38745,-3.6339 -0.20821,-0.33691 -0.12432,-0.60833 0.1879,-0.60833 0.34266,0 0.50252,-0.73214 0.40751,-1.86638 -0.1426,-1.70226 -0.28923,-1.86673 -1.66746,-1.87004 -1.07598,-0.002 -1.65428,0.3173 -2.00833,1.11083 -0.60839,1.3636 -1.26576,1.44969 -1.26576,0.16582 0,-0.63447 -0.45786,-1.03622 -1.38231,-1.21295 -0.76029,-0.14526 -1.55363,-0.1584 -1.76299,-0.0289 -0.76263,0.47134 -0.36244,3.53133 0.59643,4.56056 0.5374,0.57683 0.84511,1.18076 0.68378,1.34209 -0.16125,0.16125 -0.002,0.64397 0.35344,1.07255 0.55072,0.66357 0.51171,0.72745 -0.26271,0.43029 -0.64884,-0.249 -0.79899,-0.1702 -0.52399,0.27465 0.21199,0.34301 0.74104,0.48718 1.17569,0.32039 0.86662,-0.33253 1.6066,0.50987 1.61865,1.8427 0.01,1.01936 -1.32994,0.87364 -3.19362,-0.3475 -1.17154,-0.76762 -1.35349,-0.76607 -2.55595,0.0217 -0.71248,0.46684 -1.2946,1.32559 -1.2946,1.90982 0,1.05481 0.006,1.05443 0.78413,-0.0579 0.43126,-0.61572 1.28125,-1.11028 1.88888,-1.09901 1.96331,0.0364 6.41665,4.76436 5.65238,6.00096 -0.17838,0.28874 0.0288,1.02914 0.46029,1.64535 0.43161,0.61622 0.78822,1.57994 0.79245,2.14163 0.006,0.72117 0.12831,0.83113 0.4183,0.37419 0.53081,-0.83656 0.40386,12.72215 -0.13917,14.87679 -0.57585,2.28439 0.0508,2.05931 0.70114,-0.25186 z m -0.94812,-17.54578 c 0.0242,-0.58678 0.14354,-0.70615 0.30432,-0.30432 0.14545,0.36362 0.12755,0.79806 -0.0398,0.96544 -0.16734,0.16734 -0.28644,-0.13022 -0.26457,-0.66112 z m -2.96381,-12.04698 c 0.01,-0.83111 0.12317,-1.11013 0.25088,-0.62004 0.12774,0.49009 0.11936,1.1701 -0.019,1.51112 -0.13803,0.34102 -0.24245,-0.06 -0.23219,-0.89108 z m 0.91036,0.48497 c -0.002,-0.7637 1.85584,-0.77838 2.48555,-0.0196 0.42079,0.50703 0.20741,0.63774 -0.97268,0.5958 -0.83143,-0.0295 -1.51224,-0.28882 -1.51287,-0.57618 z m 0.12984,-2.02027 c -0.34354,-0.37297 -0.42395,-0.80214 -0.17877,-0.95371 0.24525,-0.15154 0.58833,0.0956 0.76241,0.54918 0.41664,1.08578 0.18904,1.2435 -0.5837,0.40453 z m -2.91605,-2.11658 -0.88613,-1.38518 1.33192,1.22114 c 1.44009,1.32034 1.57103,1.54925 0.88613,1.54925 -0.24517,0 -0.84453,-0.62335 -1.33192,-1.38521 z m -3.00859,28.91519 c -0.23896,-1.21746 -0.18428,-1.41239 0.23419,-0.83355 0.40401,0.55903 0.45858,0.0348 0.20968,-2.01482 -0.48223,-3.97134 -1.21177,-5.42674 -0.88373,-1.76297 0.18162,2.02865 0.10965,2.79335 -0.21879,2.32605 -0.38985,-0.55455 -0.56281,-0.4649 -0.85024,0.44067 -0.22579,0.71138 -0.12793,1.28074 0.26131,1.52136 0.34219,0.21147 0.46641,0.63651 0.27605,0.94452 -0.44807,0.72499 0.13726,1.67621 0.78504,1.27585 0.27412,-0.16943 0.35804,-1.02312 0.18657,-1.89711 z m 6.60015,-0.0971 c 0.12108,-1.13598 0.0377,-1.30675 -0.35722,-0.73143 -0.39711,0.57848 -0.44274,0.4926 -0.19906,-0.37455 0.42491,-1.51199 0.80086,-5.67496 0.51252,-5.67496 -0.1266,0 -0.4429,0.73669 -0.70286,1.63706 l -0.47268,1.63703 -0.12756,-2.01482 c -0.11955,-1.88901 -0.14868,-1.84184 -0.46703,0.75557 -0.32739,2.67159 -0.34116,2.62668 -0.3862,-1.25927 -0.0308,-2.65563 0.1009,-3.68614 0.3862,-3.02224 0.31801,0.74002 0.4329,0.33893 0.4329,-1.51111 0,-1.38521 -0.20072,-2.97187 -0.44606,-3.52596 -0.33118,-0.74794 -0.40341,-0.48849 -0.28046,1.00742 0.091,1.10814 0.0605,1.5814 -0.068,1.05168 -0.18905,-0.77963 -0.31938,-0.82763 -0.68386,-0.25185 -0.31762,0.50179 -0.45253,0.22038 -0.45797,-0.95549 -0.006,-1.0959 -0.20003,-1.54792 -0.56921,-1.31975 -0.34475,0.21307 -0.47052,1.29398 -0.32579,2.80013 0.12964,1.34918 0.0423,2.45308 -0.19405,2.45308 -0.23638,0 -0.42978,-1.70001 -0.42978,-3.7778 0,-2.32308 -0.2054,-3.77779 -0.53344,-3.77779 -0.29339,0 -0.40343,0.21034 -0.24454,0.46743 0.15897,0.25709 -0.18409,0.61756 -0.76225,0.80107 -0.65838,0.20896 -0.94477,0.61086 -0.76644,1.07557 0.15668,0.4081 -0.0537,1.39636 -0.46728,2.19618 -0.85196,1.64748 -1.08294,3.81483 -0.2695,2.5287 0.65665,-1.03824 1.30673,0.83178 2.04549,5.88418 0.56293,3.84998 0.6371,4.00588 1.79996,3.78358 0.66705,-0.12755 1.23542,-0.60209 1.26304,-1.05461 0.0289,-0.47456 0.22088,-0.28983 0.4535,0.43649 l 0.40327,1.25927 0.0503,-1.21729 c 0.0276,-0.6695 0.19813,-1.06937 0.37893,-0.88858 0.18086,0.18085 0.30889,1.02588 0.28465,1.87797 -0.0562,1.9725 0.98606,1.71648 1.20052,-0.29491 z m 1.29971,-6.60543 c -0.44541,-2.7716 -0.47347,-2.6181 -0.47438,2.59488 -10e-4,4.96501 0.0484,5.27113 0.47341,2.94588 0.29634,-1.62094 0.2967,-3.70057 0.001,-5.54076 z m -53.23316,4.04086 c -0.56657,-0.41556 -0.93637,-1.17629 -0.84594,-1.74011 0.13821,-0.86146 -0.0383,-0.95546 -1.25927,-0.67119 -1.91048,0.44479 -2.98268,1.76287 -1.91849,2.35841 0.42389,0.23723 1.1747,0.3031 1.66846,0.1464 0.49377,-0.15668 1.33883,0.0375 1.87794,0.43179 0.53911,0.39422 1.09353,0.60341 1.23205,0.46489 0.13859,-0.1386 -0.20112,-0.5841 -0.75475,-0.99019 z m -9.14502,-1.17648 c 0.16467,-0.82327 -0.0331,-2.43399 -0.44075,-3.58928 -0.40668,-1.15269 -0.73944,-2.60752 -0.73944,-3.23298 0,-1.09212 0.21726,-1.24102 3.251,-2.22818 0.54135,-0.1761 1.58795,-1.33253 2.32574,-2.56971 0.73779,-1.23719 1.5681,-2.20278 1.84514,-2.14578 0.27703,0.0569 1.02664,-0.453 1.66578,-1.13334 0.63915,-0.68035 1.56878,-1.23697 2.06588,-1.23697 0.59982,0 0.80547,-0.25629 0.61141,-0.76199 -0.16086,-0.41908 0.0133,-1.15576 0.38491,-1.63703 0.63367,-0.81872 0.61298,-0.82253 -0.32143,-0.0594 -0.5493,0.44866 -1.30586,0.70519 -1.68123,0.57005 -0.48131,-0.17325 -0.59129,0.0417 -0.3731,0.72908 0.21008,0.66187 -0.0963,1.35598 -0.95455,2.16221 -0.69516,0.65309 -1.26395,0.949 -1.26395,0.65759 0,-0.2914 0.34001,-0.812 0.75557,-1.15689 1.28845,-1.06933 0.86966,-1.80717 -2.6689,-4.70218 -5.54836,-4.53928 -5.74953,-5.26156 -0.46477,-1.66874 2.70913,1.84177 5.08913,3.34815 5.28893,3.3475 0.1998,-6.5e-4 1.1566,-0.68012 2.12625,-1.50994 1.93941,-1.65976 3.03606,-2.01375 1.95056,-0.62963 -0.6286,0.80154 -0.61025,0.81788 0.20236,0.18009 0.49151,-0.38578 0.77681,-0.81826 0.63399,-0.96106 -0.14278,-0.14278 -0.0341,-0.5314 0.24151,-0.86353 0.64348,-0.77533 0.0539,-3.77891 -0.80668,-4.10912 -0.36149,-0.13879 -1.2369,0.1641 -1.94535,0.67292 -0.95284,0.68433 -1.25478,1.30744 -1.16005,2.39388 0.0704,0.80783 -0.14069,1.55855 -0.46928,1.66828 -0.37502,0.12527 -0.65625,-0.51512 -0.75555,-1.72061 -0.10147,-1.2325 -0.38913,-1.8732 -0.80305,-1.78913 -0.35465,0.0721 -1.34193,-0.22948 -2.19394,-0.67007 -2.10167,-1.08683 -7.35712,-1.22904 -7.9997,-0.21648 -0.68292,1.07613 -0.60109,2.55492 0.22947,4.14705 0.41696,0.79932 0.52129,1.49832 0.24874,1.66677 -1.32282,0.81756 1.11479,4.4198 3.73688,5.52229 l 1.48586,0.62476 -1.85651,0.61271 c -3.22247,1.06351 -4.11304,3.79617 -3.53976,10.86162 0.35607,4.38818 0.86277,5.40133 1.38801,2.77519 z m 2.34577,0.2342 c 0.34487,-0.41555 0.9393,-0.75555 1.32093,-0.75555 0.39987,0 0.69389,-0.52098 0.69389,-1.22953 0,-1.46457 0.88822,-2.18572 1.3167,-1.06908 0.33134,0.86344 1.70554,1.09208 1.70554,0.28379 0,-0.27703 0.48759,-0.99131 1.08355,-1.58727 1.1676,-1.1676 1.3536,-2.61466 0.71854,-5.59056 -0.57585,-2.69844 0.46292,-2.42072 1.14988,0.30742 0.62242,2.47184 1.67311,3.61034 2.89807,3.14028 0.45421,-0.1742 1.12036,-0.0725 1.48032,0.22628 0.35997,0.29874 1.63458,0.47265 2.83247,0.38646 l 2.17798,-0.15668 0.39362,-3.19487 c 0.54762,-4.44495 -0.46639,-6.73347 -3.49613,-7.89055 -1.20253,-0.45925 -2.1864,-1.0429 -2.1864,-1.29704 0,-0.60972 0.14373,-0.58908 1.76858,0.25393 1.33586,0.69305 3.06161,0.39908 4.4487,-0.7578 0.63205,-0.52714 -1.06137,-2.83184 -2.32321,-3.16182 -1.24975,-0.32681 -4.499,1.39978 -6.33646,3.36708 l -1.1831,1.26672 2.94609,3.93658 c 4.47209,5.9757 4.57941,6.29195 0.75894,2.23678 -2.2455,-2.38345 -3.42246,-4.01993 -3.26039,-4.53336 0.20342,-0.64441 0.15573,-0.66605 -0.24128,-0.10927 -0.2722,0.3818 -0.72867,0.54969 -1.01439,0.3731 -0.60228,-0.37223 -3.25756,2.68645 -4.37325,5.03761 -0.70455,1.48471 -0.68416,1.79752 0.26072,4.00184 1.19942,2.79813 1.04489,4.25006 -0.19757,1.85632 -0.46732,-0.90037 -1.15595,-1.63706 -1.53027,-1.63706 -0.6158,0 -2.16684,3.01215 -3.04762,5.91857 -0.39128,1.2911 0.30169,1.50299 1.23555,0.37776 z m 7.77779,-0.4787 c -0.94285,-0.70447 -0.94626,-0.7869 -0.0954,-2.30891 0.58381,-1.04439 0.66902,-1.50756 0.25185,-1.36905 -0.83732,0.27803 -1.61945,2.56995 -1.22647,3.59402 0.17191,0.44798 0.70299,0.81451 1.18019,0.81451 0.77043,0 0.7581,-0.0819 -0.11004,-0.73057 z m 42.93695,-0.37129 c -0.16087,-0.40183 -0.28016,-0.28246 -0.30432,0.30432 -0.0219,0.531 0.0971,0.8285 0.26455,0.66112 0.16734,-0.16734 0.18523,-0.60182 0.0398,-0.96544 z m -38.10714,-0.43718 c 0.89633,-1.67483 0.31856,-2.10676 -0.62114,-0.46435 -0.47195,0.82483 -0.64991,1.49967 -0.39551,1.49967 0.2544,0 0.71189,-0.46589 1.01665,-1.03532 z m 4.10097,0.2017 c 1.03311,-0.93494 1.22765,-2.94714 0.3381,-3.49691 -0.39369,-0.24332 -0.49689,-0.0308 -0.31772,0.65429 0.38349,1.4665 -0.47007,2.66884 -1.89464,2.66884 -0.67883,0 -1.23423,0.22667 -1.23423,0.5037 0,0.80492 2.1009,0.58193 3.10849,-0.32992 z m -7.13815,-0.14412 c 0,-0.5943 -0.98241,-1.23004 -1.34323,-0.86924 -0.3608,0.36082 0.27494,1.34323 0.86924,1.34323 0.26069,0 0.47399,-0.2133 0.47399,-0.47399 z m 6.04448,-1.8047 c 0,-0.38945 -0.43844,-0.94274 -0.9743,-1.22953 -1.16745,-0.6248 -3.05536,-0.68886 -3.05536,-0.10375 0,0.22976 0.50954,0.39977 1.1323,0.37778 0.70478,-0.0249 1.31475,0.37474 1.61556,1.05852 0.50955,1.15823 1.2818,1.09611 1.2818,-0.10319 z m -5.14621,-0.86949 c -0.6307,-0.90037 -1.20415,-1.73148 -1.27434,-1.84692 -0.0702,-0.11537 -0.26307,-0.0744 -0.42856,0.091 -0.45853,0.4585 1.43344,3.39292 2.18758,3.39292 0.44749,0 0.29041,-0.53052 -0.48468,-1.63705 z m -11.29284,-0.62672 c -0.12336,-0.3216 0.006,-1.19049 0.28742,-1.93086 0.46718,-1.22883 0.40573,-1.34614 -0.70529,-1.34614 -1.6197,0 -1.9868,0.7315 -1.22773,2.44637 0.58596,1.32378 2.13486,2.10561 1.6456,0.83063 z m 60.23881,-2.67708 c 0.0133,-0.37743 -0.22928,-0.50363 -0.56661,-0.29517 -0.39981,0.24711 -0.48264,0.0863 -0.25761,-0.50014 0.19702,-0.5134 0.12945,-0.7394 -0.1662,-0.5566 -0.27386,0.16924 -0.47953,1.37104 -0.45702,2.67063 l 0.0409,2.36287 0.69192,-1.51112 c 0.38057,-0.83111 0.70217,-1.80782 0.71466,-2.17047 z m -58.09329,-0.54576 c 0.091,-0.1087 0.49745,0.0779 0.90332,0.4147 0.64039,0.53148 0.6596,0.40493 0.14526,-0.95743 -0.32589,-0.86341 -0.67137,-1.33338 -0.76772,-1.04435 -0.0963,0.28903 -0.77961,0.55181 -1.51839,0.58395 -0.92938,0.0404 -1.05831,0.13193 -0.41849,0.29712 0.71163,0.18371 0.85514,0.54746 0.62273,1.57861 -0.27253,1.20906 -0.2449,1.24154 0.2829,0.33251 0.3217,-0.55408 0.65933,-1.09638 0.75029,-1.20511 z m 56.19351,-4.69664 c -0.36143,-0.36146 -0.59605,-0.39119 -0.59605,-0.0756 0,0.67233 0.59569,1.26802 0.93186,0.93185 0.14316,-0.14316 -0.008,-0.52846 -0.33581,-0.85629 z m -2.10717,-1.12597 c 0,-0.36958 -0.34,-0.80242 -0.75555,-0.96188 -0.80617,-0.30935 -0.94305,0.11479 -0.45093,1.39733 0.34477,0.89846 1.20648,0.58745 1.20648,-0.43545 z m -58.05224,-1.57734 c -0.48002,-0.48001 -1.44236,0.29749 -1.08464,0.87631 0.21261,0.34403 0.49437,0.33533 0.85613,-0.0265 0.29655,-0.29655 0.39939,-0.679 0.22851,-0.84988 z m 1.38526,0.79761 c 0.17115,-0.27704 0.0712,-0.5037 -0.22213,-0.5037 -0.29339,0 -0.53344,0.22666 -0.53344,0.5037 0,0.27704 0.0999,0.5037 0.22213,0.5037 0.12222,0 0.36221,-0.22666 0.53344,-0.5037 z m 55.01945,-1.31174 c -0.16734,-0.16734 -0.60184,-0.18524 -0.96544,-0.0398 -0.40183,0.16087 -0.28248,0.28016 0.30432,0.30432 0.53098,0.0219 0.82848,-0.0971 0.66112,-0.26455 z m -16.48591,-2.96977 c 0,-0.41555 -0.33999,-0.75555 -0.75555,-0.75555 -0.41555,0 -0.75557,0.34 -0.75557,0.75555 0,0.41556 0.34002,0.75557 0.75557,0.75557 0.41556,0 0.75555,-0.34001 0.75555,-0.75557 z m -31.22979,0.0171 c 0,-0.12869 -0.51,-0.48127 -1.13336,-0.78334 -1.08831,-0.5274 -1.0945,-0.51809 -0.15554,0.23413 1.0277,0.82336 1.28893,0.93467 1.28893,0.54921 z m 14.10377,-0.26957 c 0,-0.27704 -0.0999,-0.5037 -0.22213,-0.5037 -0.12222,0 -0.36221,0.22666 -0.53343,0.5037 -0.17115,0.27704 -0.0712,0.5037 0.22213,0.5037 0.29339,0 0.53343,-0.22666 0.53343,-0.5037 z m 33.84909,-0.10071 c -0.73094,-0.73093 -0.80602,-1.59441 -0.10071,-1.15852 0.5815,0.35939 0.62506,0.14678 0.19797,-0.96622 -0.39317,-1.02454 -1.20537,-1.03305 -1.20537,-0.0133 0,0.70969 -0.10623,0.70969 -1.1195,0 -2.05659,-1.44049 -2.17953,-0.76421 -0.18181,0.99982 1.81788,1.60517 3.82438,2.55251 2.40944,1.13755 z m -43.67137,-0.90667 c 0.17115,-0.27704 0.0847,-0.5037 -0.1924,-0.5037 -0.27704,0 -0.6438,0.22666 -0.815,0.5037 -0.17115,0.27704 -0.0847,0.50372 0.19239,0.50372 0.27704,0 0.6438,-0.22668 0.81501,-0.50372 z m 9.31858,-1.86372 c 0,-0.93544 -0.16239,-1.19761 -0.52022,-0.83977 -0.28612,0.28612 -0.37522,0.89812 -0.19797,1.36 0.46659,1.2159 0.71819,1.03363 0.71819,-0.52023 z m 23.28886,-0.88093 c 0.23292,-1.21851 0.21741,-1.22403 -1.27389,-0.45285 -1.1689,0.60447 -1.35102,0.8812 -0.80673,1.22584 1.19022,0.75362 1.83456,0.51424 2.08062,-0.77299 z m 4.16315,0.72983 c 0.17115,-0.27704 -0.0288,-0.5037 -0.44427,-0.5037 -0.41555,0 -0.89564,0.22666 -1.06685,0.5037 -0.17115,0.27704 0.0288,0.5037 0.44425,0.5037 0.41555,0 0.89564,-0.22666 1.06687,-0.5037 z m 0.75555,-1.43415 c 0,-0.2347 -0.51,-0.68922 -1.13334,-1.01007 -1.11443,-0.5736 -1.11231,-0.57813 0.12603,-0.27222 0.94907,0.23449 1.12211,0.1662 0.70248,-0.27707 -0.34114,-0.36041 -1.10212,-0.45133 -1.96491,-0.23478 l -1.40812,0.35342 1.71305,0.91261 c 2.03588,1.0846 1.9649,1.06552 1.9649,0.52811 z m 3.35679,-1.30237 c -0.16658,-0.4342 -0.56097,-0.78942 -0.87633,-0.78942 -0.31593,0 -0.43613,0.35776 -0.26767,0.79675 0.16811,0.43821 0.30575,1.05021 0.30575,1.36001 0,0.41088 0.15439,0.4089 0.57058,-0.008 0.31384,-0.31382 0.43429,-0.92582 0.26767,-1.36 z M 237.9384,117.7755 c 0.46357,-0.75008 -0.0739,-1.15791 -1.03834,-0.78782 -0.44506,0.17077 -0.66813,0.53879 -0.4957,0.81779 0.4083,0.66063 1.11576,0.64681 1.53404,-0.0299 z m -16.39118,62.56405 c 0,-0.27071 -0.13764,-0.85077 -0.30575,-1.28898 -0.20064,-0.52284 -0.0274,-0.79675 0.5037,-0.79675 0.88939,0 1.12669,1.75929 0.30575,2.26667 -0.27704,0.17115 -0.5037,0.0899 -0.5037,-0.18086 z m 27.45197,-61.52223 c 0.17114,-0.27703 0.63793,-0.5037 1.03713,-0.5037 0.39922,0 0.72584,0.22667 0.72584,0.5037 0,0.27704 -0.46671,0.50372 -1.03714,0.50372 -0.57043,0 -0.89706,-0.22668 -0.72583,-0.50372 z m 14.10377,-1.92507 c -0.83111,-0.4425 -3.43779,-0.94781 -5.79261,-1.1229 -3.93858,-0.29286 -3.75704,-0.31871 2.26667,-0.32269 3.6015,-0.002 5.86819,0.10813 5.03706,0.24581 -1.40466,0.23253 -1.42918,0.27157 -0.34804,0.55417 0.63968,0.16715 1.16668,0.525 1.17112,0.79513 0.0133,0.76863 -0.69484,0.72332 -2.3342,-0.14945 z m 3.94571,-0.838 c 0,-0.54228 0.52193,-0.75843 1.80494,-0.74754 1.83469,0.0152 1.53189,0.4926 -0.75555,1.19032 -0.74235,0.22641 -1.04939,0.0969 -1.04939,-0.44278 z"
       id="path4982" />
  </g>
</svg>
