<?xml version="1.0" encoding="UTF-8" standalone="no"?>
<!-- Created with Inkscape (http://www.inkscape.org/) -->

<svg
   width="92.768379mm"
   height="91.398682mm"
   viewBox="0 0 92.768364 91.398657"
   version="1.1"
   id="svg5"
   inkscape:version="1.1 (c4e8f9ed74, 2021-05-24)"
   sodipodi:docname="ornament24.svg"
   xmlns:inkscape="http://www.inkscape.org/namespaces/inkscape"
   xmlns:sodipodi="http://sodipodi.sourceforge.net/DTD/sodipodi-0.dtd"
   xmlns="http://www.w3.org/2000/svg"
   xmlns:svg="http://www.w3.org/2000/svg">
  <sodipodi:namedview
     id="namedview7"
     pagecolor="#ffffff"
     bordercolor="#666666"
     borderopacity="1.0"
     inkscape:pageshadow="2"
     inkscape:pageopacity="0.0"
     inkscape:pagecheckerboard="0"
     inkscape:document-units="mm"
     showgrid="false"
     inkscape:zoom="0.94615212"
     inkscape:cx="-207.6833"
     inkscape:cy="296.46395"
     inkscape:window-width="2506"
     inkscape:window-height="1403"
     inkscape:window-x="1974"
     inkscape:window-y="0"
     inkscape:window-maximized="1"
     inkscape:current-layer="layer1" />
  <defs
     id="defs2" />
  <g
     inkscape:label="Layer 1"
     inkscape:groupmode="layer"
     id="layer1"
     transform="translate(297.33603,-133.83726)">
    <path
       style="fill:#000000;stroke-width:0.264583"
       d="m -296.37266,223.9603 c -0.0925,-0.70163 -0.16447,-21.26634 -0.15997,-45.69936 l 0.008,-44.42368 45.64585,0.14216 c 25.10521,0.0782 45.72878,0.22504 45.83014,0.32635 0.10136,0.1013 0.20565,6.21673 0.23176,13.58985 0.0261,7.37311 0.1117,27.65866 0.1902,45.07899 0.11153,24.74748 0.0722,31.71782 -0.17975,31.87682 -0.17737,0.11192 -20.81455,0.24422 -45.86038,0.29401 l -45.53788,0.0905 z m 13.32413,-1.95695 c 0.65485,-0.1493 1.62228,-0.61634 2.14986,-1.03785 l 0.95923,-0.76639 0.56833,0.60495 c 1.08498,1.15491 2.09525,1.29794 9.86502,1.39662 4.13969,0.0526 7.38838,-0.01 7.47111,-0.14383 0.0805,-0.13027 -0.19824,-0.37961 -0.61946,-0.55409 -0.83839,-0.34727 -4.30898,-3.88127 -5.22714,-5.32263 -3.19357,-5.01339 -3.91152,-7.42184 -3.73796,-12.53939 l 0.11722,-3.45638 -2.39966,0.23994 c -7.69456,0.76938 -14.33071,-2.39805 -19.32767,-9.2251 -0.34379,-0.4697 -0.38686,0.21125 -0.38326,6.05987 0.005,7.61032 0.17632,8.80569 1.42137,9.89886 l 0.87161,0.76528 -0.84078,0.67088 c -1.29523,1.03349 -1.50159,2.16061 -1.453,7.93609 0.0235,2.79356 0.10131,5.23184 0.17289,5.41838 0.16306,0.42491 8.57443,0.46925 10.39229,0.0548 z m 7.6238,-2.33727 c -1.82133,-0.19372 -2.95835,-0.94542 -3.07768,-2.03471 -0.0462,-0.42217 -0.34089,-0.96687 -0.65476,-1.21045 -0.52995,-0.41125 -0.62309,-0.41189 -1.30498,-0.009 -0.40386,0.23857 -0.73429,0.62394 -0.73429,0.85638 0,0.54691 -1.24591,1.7318 -2.20004,2.09229 -0.40966,0.15478 -2.34442,0.28142 -4.29948,0.28142 h -3.55465 v -3.8311 c 0,-4.21942 0.3262,-5.61884 1.44991,-6.22023 0.34572,-0.18503 0.942,-0.27649 1.32507,-0.20327 0.52387,0.10015 0.79517,-0.0175 1.09464,-0.47451 0.35593,-0.54321 0.35352,-0.69397 -0.0227,-1.42156 -0.32411,-0.62677 -0.59844,-0.81391 -1.19309,-0.81391 -1.06044,0 -2.10336,-0.97862 -2.39675,-2.24896 -0.26776,-1.15944 -0.35239,-7.27605 -0.10066,-7.27605 0.086,0 0.61847,0.39554 1.18324,0.87897 1.48231,1.2688 5.23891,3.07801 7.82358,3.76789 1.22751,0.32764 2.52356,0.78686 2.88011,1.02048 1.31407,0.86102 1.04854,2.64926 -0.36853,2.48198 -0.45972,-0.0543 -0.72089,-0.28162 -0.82242,-0.71594 -0.17905,-0.76594 -1.06615,-1.3934 -1.25113,-0.88494 -0.16697,0.45895 -0.6054,0.41546 -0.6054,-0.06 0,-0.21493 -0.30213,-0.58875 -0.67141,-0.83071 -0.6279,-0.41142 -0.69291,-0.41053 -1.00307,0.0136 -0.30489,0.41696 -0.3598,0.40095 -0.68057,-0.1984 -0.1919,-0.35858 -0.63909,-0.78418 -0.99376,-0.94578 -0.83,-0.37817 -0.88452,-0.37181 -0.88452,0.10307 0,0.56226 -0.24483,0.49336 -0.81285,-0.22877 -0.5131,-0.6523 -2.00432,-1.40787 -2.26471,-1.14748 -0.34419,0.34419 0.52957,2.10499 1.26713,2.55353 0.60773,0.36958 0.68968,0.50985 0.3696,0.63268 -0.98233,0.37695 0.19184,1.76192 1.49375,1.76192 0.65851,0 0.77611,0.0705 0.52916,0.3175 -0.17462,0.17462 -0.3175,0.4011 -0.3175,0.50328 0,0.31683 1.52127,0.7345 2.11231,0.57994 0.48662,-0.12726 0.53921,-0.0603 0.39712,0.50584 -0.14192,0.56547 -0.0467,0.68759 0.71392,0.91542 l 0.87769,0.2629 -1.12309,0.20037 c -1.24776,0.22262 -1.58159,0.53126 -1.1444,1.05804 0.22785,0.27454 0.13158,0.38412 -0.44024,0.50115 -0.40252,0.0824 -0.96997,0.32852 -1.26102,0.54697 -0.45298,0.34001 -0.48122,0.4757 -0.19619,0.94248 0.28984,0.47465 0.26915,0.54528 -0.1598,0.54528 -0.61521,0 -1.98026,1.2322 -1.75995,1.58866 0.0895,0.14488 0.36413,0.26719 0.61021,0.2718 0.333,0.006 0.26135,0.14719 -0.2802,0.55124 -0.60753,0.45326 -0.72761,0.74144 -0.72761,1.74624 v 1.2034 l 1.10953,-0.14882 c 0.70914,-0.0951 1.26734,-0.35802 1.54682,-0.72855 0.37802,-0.50115 0.45961,-0.52156 0.60196,-0.1506 0.34143,0.88975 1.41463,0.11546 1.8806,-1.35681 0.21576,-0.68171 0.68193,-0.80229 0.68193,-0.17639 0,0.73854 0.64334,0.2516 1.25677,-0.95123 0.32742,-0.64202 0.59531,-1.02303 0.59531,-0.84667 0,0.70698 0.49273,0.2599 0.74012,-0.67155 0.22145,-0.83379 0.26789,-0.8812 0.29087,-0.29697 0.0381,0.96844 0.70433,1.48937 1.37174,1.07256 0.46211,-0.28859 0.50769,-0.23847 0.50769,0.55832 0,0.48145 0.14287,1.01824 0.3175,1.19287 0.41677,0.41677 1.26591,0.40803 1.28493,-0.0132 0.008,-0.1819 0.15704,0.0746 0.33073,0.56994 0.35232,1.00484 1.22743,1.70727 1.43069,1.14837 0.0859,-0.23615 0.24817,-0.18738 0.56129,0.16865 0.40089,0.45583 2.13162,1.20644 2.3283,1.00977 0.21086,-0.21086 -0.51003,-2.08316 -0.85271,-2.21465 -0.30024,-0.11522 -0.31805,-0.23184 -0.0793,-0.51951 0.23957,-0.28867 0.20263,-0.4872 -0.16655,-0.89514 -0.26092,-0.28831 -0.63454,-0.5242 -0.83027,-0.5242 -0.48355,0 -0.44743,-0.27159 0.0882,-0.66326 0.40493,-0.2961 0.37951,-0.38929 -0.28838,-1.05718 -0.52995,-0.52995 -0.64204,-0.78835 -0.40542,-0.93458 0.46944,-0.29013 -0.87789,-1.57718 -1.65649,-1.58237 -1.43733,-0.01 -1.70851,-1.27604 -0.43748,-2.04318 0.58482,-0.35297 0.8282,-0.36839 1.48974,-0.0944 0.86329,0.35759 1.07718,0.77061 2.46096,4.75203 0.5729,1.64837 1.41712,3.30947 2.52127,4.96094 l 1.65997,2.4828 h -2.47561 c -1.36159,0 -2.63418,0.0414 -2.82798,0.0921 -0.19381,0.0506 -1.02932,0.0201 -1.8567,-0.0679 z m -4.30637,-8.88717 c 0.17065,-0.81953 0.31748,-1.09536 0.4815,-0.90454 0.0521,0.0606 -0.0721,0.46743 -0.27596,0.904 l -0.37071,0.79375 z m 5.28153,-5.15992 c -0.29104,-0.12506 -0.85659,-0.23576 -1.25677,-0.24598 -0.64822,-0.0166 -0.7276,-0.11728 -0.7276,-0.923 0,-0.49742 -0.0709,-1.08923 -0.15761,-1.31513 -0.13188,-0.34366 0.0841,-0.40436 1.32291,-0.37177 l 1.48053,0.039 v 1.54075 c 0,0.84741 -0.0298,1.53239 -0.0661,1.52216 -0.0364,-0.0102 -0.30427,-0.12092 -0.59531,-0.24599 z m 49.53897,16.09693 c 0.4706,-0.14309 1.28915,-0.75757 1.819,-1.36552 0.5547,-0.63647 1.01293,-0.9707 1.08021,-0.78791 0.286,0.77696 1.22188,1.64716 2.33338,2.16963 1.12615,0.52935 1.55624,0.56182 6.55434,0.49493 l 5.3491,-0.0716 0.0792,-4.89479 c 0.10253,-6.33305 0.0131,-6.91188 -1.28556,-8.32076 l -1.03319,-1.12088 0.68187,-0.63699 c 1.49484,-1.39646 1.54544,-1.67453 1.64441,-9.03752 0.0504,-3.74716 0.0229,-6.81302 -0.061,-6.81302 -0.0839,0 -1.06722,0.95738 -2.18515,2.1275 -2.42866,2.54205 -3.7553,3.54318 -6.5719,4.95942 -3.69916,1.86001 -6.97147,2.40494 -12.56771,2.09285 -0.91443,-0.051 -0.92438,-0.04 -0.79375,0.8744 0.24681,1.72767 0.0433,6.20887 -0.37245,8.20208 -0.91494,4.3862 -3.90418,8.76104 -7.7152,11.29141 -0.79054,0.52489 -1.43735,1.0513 -1.43735,1.1698 0,0.2975 13.42313,-0.0112 14.48168,-0.33303 z m -8.13168,-1.96727 c 0,-0.0868 0.4486,-0.66746 0.99688,-1.29035 1.24912,-1.41908 2.72299,-4.35766 3.65287,-7.28306 1.02792,-3.23384 1.52145,-3.96875 2.66527,-3.96875 2.10607,0 2.73252,1.35516 0.85958,1.85949 -0.9497,0.25572 -1.07052,0.37235 -0.96384,0.9304 0.0878,0.45944 -0.0176,0.68231 -0.37645,0.79622 -0.27412,0.087 -0.69585,0.45953 -0.93717,0.82783 -0.41036,0.62628 -0.4092,0.68617 0.0178,0.92512 0.40244,0.22521 0.35359,0.32486 -0.41225,0.84096 -1.08282,0.7297 -1.30177,1.49248 -0.42883,1.49389 0.56522,7.9e-4 0.54684,0.0424 -0.22829,0.51501 -0.93174,0.56812 -1.40595,1.28062 -1.40595,2.11244 0,0.62864 0.0535,0.63897 1.38906,0.26806 0.57862,-0.16069 0.99219,-0.43967 0.99219,-0.66929 0,-0.32276 0.10413,-0.33802 0.57758,-0.0846 0.49372,0.26423 0.64994,0.21976 1.07587,-0.30624 0.27405,-0.33844 0.44254,-0.82847 0.37443,-1.08896 -0.0987,-0.37721 -0.032,-0.42445 0.32745,-0.23209 0.24822,0.13285 0.57589,0.16055 0.72817,0.0616 0.46146,-0.29998 0.9353,-1.38771 0.78038,-1.79142 -0.11037,-0.28762 0.008,-0.34104 0.48705,-0.22068 0.75548,0.18961 1.19331,-0.44803 1.22806,-1.7885 l 0.0227,-0.87729 0.22349,0.74452 c 0.31628,1.05368 0.80661,1.56164 1.36619,1.41531 0.382,-0.0999 0.4815,0.0291 0.4815,0.62416 0,0.6943 0.57467,1.58163 1.02432,1.58163 0.10602,0 0.31846,-0.12569 0.47207,-0.2793 0.19602,-0.19602 0.38042,-0.0352 0.61837,0.53928 0.18649,0.45022 0.56968,0.942 0.85154,1.09284 0.42147,0.22556 0.53816,0.17604 0.65712,-0.27885 0.14189,-0.54259 0.1564,-0.54044 0.76152,0.11249 0.39904,0.43057 0.90164,0.66563 1.42326,0.66563 0.6715,0 0.80639,-0.10468 0.80639,-0.62578 0,-0.34418 -0.23879,-0.92935 -0.53064,-1.30038 -0.38476,-0.48914 -0.43932,-0.70781 -0.19844,-0.79541 0.51499,-0.18729 -0.0957,-1.04277 -1.08537,-1.52054 -0.64343,-0.3106 -0.7675,-0.47845 -0.52956,-0.71639 0.43547,-0.43547 -0.0931,-1.01701 -1.28069,-1.40894 -0.69669,-0.22993 -0.84373,-0.37029 -0.57414,-0.54807 0.28995,-0.19123 0.23754,-0.34368 -0.26224,-0.76279 -0.34355,-0.28808 -0.87933,-0.53575 -1.19063,-0.55037 -0.3113,-0.0146 -0.0991,-0.13606 0.47161,-0.26988 1.51444,-0.35512 1.86641,-0.71338 1.30755,-1.33091 -0.42833,-0.4733 -0.41232,-0.48637 0.39738,-0.32443 0.61442,0.12288 0.98554,0.0404 1.36568,-0.30365 0.59513,-0.53859 0.67612,-1.07784 0.19126,-1.27349 -0.1819,-0.0734 -0.0893,-0.14285 0.20571,-0.15434 0.29504,-0.0115 0.81293,-0.21454 1.15086,-0.45124 0.47618,-0.33353 0.58124,-0.59621 0.46697,-1.16755 -0.095,-0.47475 -0.0102,-0.85113 0.23821,-1.05725 0.41685,-0.34595 0.52507,-1.46078 0.16349,-1.68424 -0.12218,-0.0755 -0.66385,0.0994 -1.20371,0.38878 -0.53985,0.28935 -1.07975,0.4654 -1.19977,0.39123 -0.32603,-0.2015 -1.60516,1.08082 -1.62447,1.62852 -0.0134,0.37959 -0.0651,0.35542 -0.25606,-0.11966 -0.31731,-0.78943 -0.67075,-0.75076 -1.5961,0.17459 -0.47936,0.47935 -0.95293,0.72203 -1.2549,0.64306 -0.61164,-0.15994 -1.03702,0.34406 -1.15224,1.36517 -0.11247,0.99687 -1.00394,1.20227 -1.79308,0.41314 -1.39478,-1.39478 -0.13624,-2.90246 3.18579,-3.81644 1.23029,-0.33849 3.00743,-0.95485 3.94919,-1.36969 1.82256,-0.80283 5.01956,-2.91738 5.01956,-3.32003 0,-0.13275 0.11907,-0.24136 0.26459,-0.24136 0.46082,0 0.33458,6.78397 -0.14504,7.79471 -0.43721,0.92134 -1.32295,1.46571 -2.38484,1.46571 -0.44972,0 -0.81181,0.2613 -1.16352,0.83964 -0.50596,0.832 -0.50577,0.84645 0.0219,1.5875 0.31982,0.44915 0.77527,0.74786 1.14028,0.74786 0.33427,0 0.92385,0.24864 1.31019,0.55253 1.31157,1.03168 1.4856,1.73464 1.4856,6.0009 v 3.93388 l -3.67323,0.0645 c -2.88918,0.0507 -3.89085,-0.0264 -4.69275,-0.3615 -1.34869,-0.56351 -2.21735,-1.40992 -2.21735,-2.16053 0,-0.35828 -0.27312,-0.78819 -0.66302,-1.04367 -0.55892,-0.36621 -0.7874,-0.3829 -1.45521,-0.10629 -0.43571,0.18048 -0.79263,0.52205 -0.79318,0.75906 -0.002,0.80467 -1.06528,2.18103 -1.98068,2.56351 -0.90756,0.3792 -7.54333,0.57548 -7.54333,0.22311 z m 5.82083,-14.89034 c 0,-0.27285 -0.0744,-0.86816 -0.16536,-1.32291 l -0.16536,-0.82682 h 1.43739 1.4374 v 1.32291 1.32292 h -1.27203 c -1.06738,0 -1.27204,-0.0798 -1.27204,-0.4961 z m -18.73123,16.65566 c 5.56226,-1.42259 10.41307,-5.97112 12.34078,-11.57175 0.70647,-2.05253 0.8342,-2.8072 0.8342,-4.92848 0,-1.37766 -0.19762,-3.38265 -0.43916,-4.45552 -0.46076,-2.04661 -1.68781,-5.0696 -2.18166,-5.37482 -0.15928,-0.0984 -0.28959,-0.34339 -0.28959,-0.54434 0,-0.24593 0.72664,0.0212 2.22285,0.81711 5.31144,2.82553 11.63404,2.57671 16.96066,-0.66747 3.57015,-2.17441 6.94101,-6.61647 8.22087,-10.83333 0.56718,-1.86875 0.48877,-6.38591 -0.15093,-8.69433 -1.31078,-4.73013 -4.456,-8.86324 -8.46469,-11.12341 -5.09477,-2.87251 -11.45812,-2.93615 -17.00282,-0.17004 -0.98227,0.49003 -1.78594,0.8512 -1.78594,0.8026 0,-0.0486 0.46086,-1.08711 1.02414,-2.3078 1.17666,-2.54995 1.51144,-3.80921 1.75067,-6.58507 0.37483,-4.34922 -1.69319,-9.57378 -5.26119,-13.29163 -1.63671,-1.70545 -2.34568,-2.22382 -4.25073,-3.108 -3.91713,-1.81803 -4.65433,-1.99009 -8.47643,-1.97832 -3.05295,0.009 -3.67404,0.0923 -5.52529,0.73755 -2.09096,0.72878 -5.19216,2.53248 -6.60809,3.84335 -1.06571,0.98663 -3.08817,4.04859 -4.21983,6.38872 -1.1704,2.42026 -1.64917,5.87 -1.23012,8.86354 0.26381,1.88449 1.36855,5.33705 2.05303,6.41615 0.47171,0.74365 0.43581,0.74167 -1.34612,-0.0741 -2.84459,-1.3023 -7.95797,-1.82733 -11.6687,-1.19813 -2.70132,0.45805 -6.76351,2.66802 -8.8881,4.83543 -1.65578,1.68915 -3.65533,4.8671 -4.26103,6.77222 -0.75539,2.37591 -1.01903,6.25644 -0.59374,8.73917 0.4399,2.56805 2.55793,6.81684 4.46605,8.95893 2.80196,3.14554 7.6677,5.32231 12.42194,5.55716 3.18065,0.15711 5.41851,-0.29486 8.28398,-1.6731 1.07173,-0.51548 2.00259,-0.88324 2.06858,-0.81726 0.066,0.066 -0.10961,0.52194 -0.39022,1.01323 -0.66393,1.1624 -1.52706,3.89774 -1.89542,6.00682 -0.33259,1.90419 0.0324,5.94561 0.72108,7.9833 1.54934,4.58459 5.25495,8.66166 9.73283,10.70848 3.30937,1.51269 8.12354,1.90064 11.82814,0.95316 z m -6.27189,-2.1361 c -3.75024,-0.56138 -6.70398,-2.03196 -9.23572,-4.5982 -3.1393,-3.18207 -4.38535,-6.21144 -4.42101,-10.74818 -0.0224,-2.84405 0.41603,-4.42999 1.56232,-5.65201 0.88107,-0.93928 2.55721,-1.74273 3.65184,-1.75051 1.05197,-0.007 3.3119,0.67086 3.55716,1.06771 0.28414,0.45975 1.30252,0.0339 1.62818,-0.68087 0.22942,-0.50351 0.18019,-0.7497 -0.26242,-1.31239 -0.74032,-0.94117 -0.93369,-2.00524 -0.59381,-3.26748 0.28694,-1.06563 1.39593,-2.49171 2.12909,-2.73787 0.34597,-0.11616 0.33753,-0.25854 -0.0658,-1.11015 -0.25444,-0.5373 -0.64664,-1.04752 -0.87155,-1.13382 -0.22491,-0.0863 -1.35016,0.21502 -2.50055,0.66961 -1.15039,0.45459 -2.15889,0.82653 -2.24111,0.82653 -0.0822,0 0.21113,-0.71437 0.65188,-1.58749 2.33559,-4.62677 2.16084,-10.44615 -0.47597,-15.85091 -0.43244,-0.88638 -0.72618,-1.6116 -0.65277,-1.6116 0.0734,0 0.8039,0.4071 1.6233,0.90467 0.8194,0.49757 1.847,0.98488 2.28357,1.08293 1.84901,0.41524 1.7954,0.3207 0.9109,1.60628 -0.44529,0.64721 -1.10507,1.37033 -1.46618,1.60694 -0.59487,0.38977 -0.63969,0.54477 -0.477,1.64958 0.34011,2.30971 0.32842,2.30596 2.22939,0.71571 0.94232,-0.7883 2.18955,-2.05254 2.77164,-2.80944 1.76898,-2.30025 1.73839,-2.28177 2.33821,-1.41245 0.71024,1.02937 4.10518,4.31802 5.29249,5.1268 0.53055,0.36141 0.96545,0.79306 0.96645,0.95923 0.001,0.16616 -0.80671,1.05913 -1.79489,1.98437 -0.98817,0.92524 -2.48986,2.54546 -3.33709,3.60049 -0.84722,1.05502 -1.62058,1.91822 -1.71856,1.91822 -0.098,0 -0.53634,-0.46603 -0.97412,-1.03562 -1.35406,-1.76179 -4.72503,-5.31427 -5.04279,-5.31433 -0.17001,-2e-5 -0.41589,0.77898 -0.56369,1.78589 l -0.26213,1.78594 1.52186,1.59533 c 2.89984,3.03982 4.35963,7.28096 3.6855,10.70751 -0.58988,2.99826 -2.06406,3.9032 -5.0198,3.08143 -2.6395,-0.73384 -4.01193,0.0522 -3.20049,1.83316 0.27304,0.59925 0.24144,0.64195 -0.47528,0.64195 -0.44445,0 -1.11852,0.29512 -1.60064,0.7008 -0.67556,0.56844 -0.80061,0.83079 -0.66215,1.38906 0.28637,1.15451 1.16307,1.87889 2.274,1.87889 h 0.99193 l -0.40075,0.80332 c -0.36316,0.72797 -0.3588,0.86735 0.0464,1.48583 0.41564,0.63434 0.54308,0.66977 1.80621,0.50222 1.90735,-0.25303 3.69728,-1.31113 4.90539,-2.89982 0.56327,-0.74072 1.08945,-1.52536 1.16927,-1.74364 0.0798,-0.21828 0.15184,0.0198 0.16002,0.52917 0.0141,0.87877 -0.39507,1.76665 -2.47597,5.37243 -0.73136,1.26731 -1.02544,3.36685 -0.57392,4.09742 0.27836,0.45041 1.26102,0.39715 1.98134,-0.10738 0.57215,-0.40076 0.60657,-0.39667 0.55757,0.0661 -0.0287,0.2713 -0.0385,0.69765 -0.0217,0.94747 0.0328,0.48903 1.73447,2.32392 2.15519,2.32392 0.14025,0 0.73159,-0.43057 1.3141,-0.95683 0.76968,-0.69536 1.05909,-1.16532 1.05909,-1.71979 0,-0.90715 0.10348,-0.93367 0.86712,-0.22224 0.80775,0.75254 1.81305,0.58241 2.27466,-0.38493 0.32049,-0.67161 0.30955,-0.95961 -0.0854,-2.24896 -0.24915,-0.81329 -1.0387,-2.44585 -1.75456,-3.62791 -0.71586,-1.18207 -1.37702,-2.55129 -1.46926,-3.04271 l -0.16769,-0.89351 0.78632,1.06321 c 0.50793,0.68679 1.39243,1.37085 2.4983,1.93217 1.49783,0.76025 1.92518,0.85894 3.41617,0.78887 l 1.70417,-0.0801 -0.0747,-0.91573 c -0.0411,-0.50365 -0.2197,-1.00784 -0.39688,-1.12043 -0.20564,-0.13067 -0.10056,-0.20616 0.29056,-0.20875 1.19904,-0.008 2.67585,-1.19855 2.6887,-2.16766 0.009,-0.69282 -1.27298,-1.53958 -2.3449,-1.5486 -0.77811,-0.007 -0.87015,-0.0583 -0.49349,-0.27773 0.58722,-0.34203 0.61879,-1.7145 0.0445,-1.93488 -0.71448,-0.27416 -1.79727,-0.17464 -2.5883,0.23791 -1.69369,0.88332 -3.98524,0.21919 -5.11044,-1.4811 -0.8301,-1.25436 -1.12556,-4.44469 -0.61304,-6.61945 0.64733,-2.74681 2.86841,-6.22287 4.79105,-7.49816 l 0.95555,-0.63381 -0.25761,-1.49525 c -0.15315,-0.88895 -0.16988,-2.42607 -0.0412,-3.79081 0.119,-1.26255 0.22165,-2.41301 0.2281,-2.55657 0.006,-0.14356 -0.30916,-0.41482 -0.70138,-0.60281 -1.09949,-0.52697 -3.32323,-3.18018 -4.26212,-5.08528 -0.77161,-1.56566 -0.84559,-1.93605 -0.84559,-4.23334 0,-2.26232 0.0728,-2.64147 0.71858,-3.73989 1.08344,-1.84298 2.93716,-2.54763 4.44079,-1.68808 0.8152,0.46601 1.90457,0.50315 2.32834,0.0794 0.38681,-0.38682 0.41992,-1.70464 0.0486,-1.93413 -0.49666,-0.30695 0.0272,-0.65879 0.98088,-0.65879 0.74122,0 1.13773,-0.20401 1.83646,-0.94488 0.49013,-0.51968 0.89114,-1.07117 0.89114,-1.22553 0,-0.48235 -1.86255,-2.06292 -2.43095,-2.06292 -0.54147,0 -0.55895,-0.24014 -0.0985,-1.3522 0.20264,-0.48935 -1.22403,-1.29763 -2.27309,-1.28783 -1.80465,0.0169 -5.09331,2.65139 -6.01305,4.81702 -0.25697,0.60505 -0.53835,0.98501 -0.62528,0.84435 -0.22629,-0.36614 1.27483,-4.60708 1.91096,-5.39883 0.98117,-1.22118 2.11506,-3.3012 2.28477,-4.1912 0.0927,-0.48617 0.0312,-1.18011 -0.13751,-1.55028 -0.31259,-0.68608 -0.71896,-0.72448 -2.30726,-0.21807 -0.45734,0.14582 -0.61247,0.0336 -0.83475,-0.60408 -0.2963,-0.84996 -1.83102,-2.17138 -2.52188,-2.17138 -0.64995,0 -2.2755,1.54743 -2.70474,2.57476 -0.34723,0.83102 -0.41706,0.87391 -0.79978,0.49119 -0.6167,-0.6167 -1.71456,-0.83129 -1.99417,-0.38978 -0.12767,0.20159 -0.23346,0.90232 -0.23508,1.55716 -0.003,1.16903 0.27109,1.84889 1.97254,4.89479 1.35308,2.42228 1.94929,3.74164 2.13278,4.71971 0.1,0.53286 0.12138,0.96883 0.0476,0.96883 -0.0738,0 -0.50994,-0.5856 -0.96923,-1.30133 -0.98227,-1.53075 -3.26833,-3.37966 -4.65064,-3.76133 -0.70454,-0.19454 -1.1895,-0.18134 -1.74169,0.0474 -0.80965,0.33537 -0.93938,0.75598 -0.49137,1.59309 0.24492,0.45764 0.18195,0.51188 -0.59532,0.51277 -1.07787,10e-4 -2.50187,0.84124 -2.8973,1.70911 -0.44755,0.98226 0.74533,2.45993 2.1697,2.6877 0.93743,0.1499 1.02647,0.23013 0.88425,0.79679 -0.095,0.37866 0.0143,0.89327 0.274,1.28963 0.50885,0.7766 1.5287,0.86666 2.97429,0.26265 2.23554,-0.93407 3.71114,-0.18046 4.43779,2.26644 0.51594,1.73736 0.51872,2.37095 0.0208,4.73801 -0.40462,1.92347 -0.96047,3.2722 -1.4812,3.59404 -0.21375,0.1321 -0.21425,0.0341 -0.002,-0.36271 0.4866,-0.90922 0.34001,-1.31614 -0.87885,-2.43964 -1.27654,-1.17668 -1.76924,-2.6528 -1.22493,-3.66986 0.71194,-1.33026 -0.74349,-2.67661 -1.7232,-1.59405 -1.12247,1.24032 -3.87092,0.67438 -5.59409,-1.15187 -1.63313,-1.73079 -2.57643,-6.78222 -1.96237,-10.50848 0.64301,-3.90204 3.81333,-8.39883 7.04418,-9.9915 3.14574,-1.55072 4.83184,-1.99908 7.9375,-2.11069 2.44241,-0.0878 3.16142,-0.0167 4.47136,0.44192 6.74815,2.36264 10.7256,7.8141 10.73827,14.71775 0.007,3.58524 -1.24961,6.2631 -3.47878,7.41585 -0.7976,0.41245 -2.82018,0.41237 -4.45481,-1.7e-4 -0.91004,-0.22968 -1.4022,0.17006 -1.32018,1.07227 0.25536,2.80886 0.12707,3.95779 -0.53191,4.7633 -0.3638,0.4447 -0.98888,0.95573 -1.38906,1.13562 -0.87451,0.39313 -0.88612,0.51299 -0.16756,1.73085 0.44642,0.75662 0.67455,0.91579 1.12448,0.78453 0.86945,-0.25364 3.61157,-1.68935 4.86392,-2.54664 1.19214,-0.81609 1.42273,-0.69495 0.66145,0.34749 -1.60967,2.20419 -2.46492,4.78051 -2.85563,8.6022 -0.27737,2.71302 0.66877,7.2833 2.00459,9.68311 0.39331,0.70658 0.33385,1.1254 -0.10774,0.75891 -0.19991,-0.16591 -1.29864,-0.7083 -2.44162,-1.20531 -2.32106,-1.00929 -2.37806,-0.99651 -3.35544,0.7522 l -0.62111,1.1113 1.0134,0.43278 c 0.80226,0.34262 1.14987,0.72593 1.66844,1.83986 0.76528,1.64385 0.80823,2.26045 0.25049,3.59531 -0.8332,1.99413 0.18242,3.06735 2.18059,2.30424 2.38074,-0.90921 5.04068,0.18755 6.24955,2.57684 2.01957,3.99162 0.60957,10.48448 -3.1012,14.28055 -2.52649,2.58457 -4.76474,3.79095 -8.49109,4.57653 -2.00978,0.42371 -2.25598,0.43159 -4.23333,0.13561 z m 3.3194,-41.2636 -1.91715,-1.89071 -1.49487,1.38068 c -0.82218,0.75936 -1.66986,1.53991 -1.88372,1.73454 -0.33543,0.30527 -0.11796,0.62659 1.58304,2.33902 l 1.97188,1.98513 1.82898,-1.82898 1.82898,-1.82898 z m -2.48464,4.00212 c -0.24084,-0.26612 -0.43788,-0.68284 -0.43788,-0.92604 0,-0.25342 -0.2084,-0.44219 -0.48816,-0.44219 -0.26849,0 -0.71394,-0.24948 -0.98989,-0.55441 -0.49446,-0.54637 -0.49271,-0.56171 0.12059,-1.05833 0.34228,-0.27716 0.78773,-0.50393 0.98989,-0.50393 0.20216,0 0.36757,-0.16014 0.36757,-0.35587 0,-0.19572 0.24948,-0.58164 0.5544,-0.85759 0.54637,-0.49446 0.56171,-0.49272 1.05833,0.12059 0.27716,0.34228 0.50393,0.79476 0.50393,1.00551 0,0.21074 0.0977,0.32279 0.21713,0.24898 0.11942,-0.0738 0.6204,0.11104 1.11328,0.41078 0.86385,0.52534 0.87748,0.55863 0.37818,0.92382 -0.28488,0.20837 -0.76468,0.4408 -1.06623,0.51652 -0.32048,0.0805 -0.68484,0.51539 -0.87702,1.04684 -0.36782,1.01721 -0.79469,1.14293 -1.44412,0.42532 z m -27.95455,12.70405 c -3.61035,-1.2031 -7.37776,-3.68227 -8.76086,-5.76512 -1.94702,-2.9321 -2.35214,-3.73332 -2.73193,-5.40315 -0.93711,-4.12015 -0.21333,-8.08787 2.16175,-11.85058 1.68356,-2.66717 4.65172,-5.18529 7.29661,-6.19027 2.57466,-0.9783 4.58033,-1.24361 7.29876,-0.9655 4.80112,0.4912 6.82039,1.89923 7.0969,4.94869 0.14217,1.56786 -0.29833,3.18916 -0.98112,3.61115 -0.29079,0.17972 0.14494,1.48607 0.58675,1.75912 0.16065,0.0993 0.57767,0.072 0.92672,-0.0607 0.99844,-0.37961 2.68026,-0.2832 3.73518,0.21413 2.05959,0.97096 2.91432,2.8121 2.67506,5.76229 -0.0354,0.43656 -0.1466,-0.0138 -0.24711,-1.00083 -0.10051,-0.98702 -0.30065,-1.91249 -0.44476,-2.05659 -0.17296,-0.17297 -0.60941,-0.11686 -1.28415,0.16506 -1.44146,0.60228 -4.59298,0.796 -6.09737,0.3748 -0.67451,-0.18886 -1.63183,-0.72575 -2.12736,-1.19311 -1.04141,-0.98216 -1.15808,-1.92283 -0.48391,-3.9014 0.76362,-2.24112 0.0987,-3.30912 -1.56594,-2.5153 l -0.91278,0.43528 0.13348,-0.99521 c 0.199,-1.48366 -0.73631,-3.20333 -1.74225,-3.20333 -1.05982,0 -2.50072,1.04514 -2.79163,2.02488 -0.22647,0.7627 -0.31491,0.81341 -1.20939,0.69343 -3.48622,-0.4676 -1.56812,4.63399 3.04122,8.0888 l 0.79375,0.59493 -0.92604,-0.17952 c -0.95299,-0.18476 -2.89918,-1.04923 -4.4555,-1.97909 -1.15882,-0.69236 -3.28882,-1.13648 -4.42675,-0.923 -0.73353,0.13761 -0.90733,0.29164 -0.90733,0.80407 0,0.34862 0.121,0.70864 0.2689,0.80005 0.3904,0.24128 0.0482,0.65879 -0.53989,0.65879 -0.74961,0 -2.37484,1.53635 -2.37484,2.24496 0,0.75256 1.55124,1.98837 2.49588,1.98837 0.68066,0 0.94769,0.59653 0.41453,0.92604 -0.14552,0.0899 -0.26458,0.44876 -0.26458,0.79738 0,0.5187 0.17367,0.66643 0.95596,0.81319 1.21195,0.22736 3.83308,-0.47133 5.24716,-1.3987 1.2746,-0.83589 3.55008,-1.66443 4.04722,-1.47366 0.22971,0.0881 -0.10667,0.41347 -0.90781,0.87797 -2.85746,1.65676 -4.23703,5.28109 -2.94569,7.73873 0.27465,0.52269 1.10847,0.41393 1.7897,-0.23346 0.32656,-0.31033 0.45955,-0.22412 0.92604,0.60032 0.66147,1.16906 2.35042,2.1486 2.9075,1.68626 0.46415,-0.38521 1.05803,-2.79258 0.79421,-3.21944 -0.14418,-0.23329 -0.0262,-0.26471 0.43965,-0.11713 0.35018,0.11093 0.93434,0.21898 1.29814,0.24011 0.59397,0.0345 0.66964,-0.0737 0.7416,-1.06106 0.0441,-0.60472 -0.10475,-1.54199 -0.33073,-2.08283 -0.4947,-1.18398 -0.53619,-3.04732 -0.0801,-3.59864 1.50449,-1.81875 5.61608,-2.02368 9.12813,-0.45496 0.61846,0.27625 1.12448,0.56354 1.12448,0.63843 0,0.0749 -0.47616,0.60288 -1.05813,1.17333 -1.381,1.35365 -2.71808,1.76563 -4.37572,1.34823 -1.10141,-0.27734 -1.27829,-0.25938 -1.59807,0.16225 -0.47485,0.62606 -0.4649,0.99733 0.0379,1.41462 1.13613,0.9429 1.5309,3.28879 0.79344,4.7149 -0.69247,1.33908 -2.39629,2.61526 -4.29989,3.22066 -2.54152,0.80828 -6.34832,0.94677 -8.28495,0.30141 z m 37.02678,0.34751 c -0.009,0 -0.0688,-0.51492 -0.13387,-1.14426 -0.0651,-0.62934 -0.23719,-1.36626 -0.3824,-1.63759 -0.54729,-1.0226 0.26387,-0.75352 1.70846,0.56675 2.24516,2.05196 2.27715,2.23476 0.38918,2.22401 -0.86123,-0.005 -1.57285,-0.009 -1.58137,-0.009 z m -16.91845,-0.43163 c -0.3638,-0.14618 -0.98888,-0.20114 -1.38906,-0.12213 -1.37757,0.27198 -0.95527,-0.40807 1.67398,-2.69566 l 0.68178,-0.5932 -0.0203,1.85447 c -0.0112,1.01995 -0.0799,1.84723 -0.15262,1.83839 -0.0728,-0.009 -0.42995,-0.13568 -0.79375,-0.28187 z m 30.90485,-0.10299 c -3.11597,-0.62032 -5.26737,-1.93021 -6.0692,-3.69524 -0.59407,-1.30771 -0.62663,-2.81594 -0.0835,-3.8663 0.80056,-1.54812 -0.19747,-2.59849 -1.96566,-2.06873 -3.53519,1.05917 -5.78621,-3.27449 -4.13369,-7.95822 0.4322,-1.22499 0.73952,-1.58563 2.01251,-2.3617 1.05656,-0.64413 2.276,-0.70663 3.06087,-0.15689 0.44244,0.30989 0.73343,0.33242 1.38045,0.10687 0.71456,-0.2491 0.79773,-0.37596 0.64773,-0.98798 -0.0947,-0.38621 -0.44643,-0.95993 -0.78171,-1.27495 -0.76071,-0.71473 -1.00747,-1.65506 -0.77014,-2.93471 0.20425,-1.10129 1.29657,-2.71024 1.83999,-2.71024 0.19305,0 0.48949,-0.16686 0.65874,-0.37079 0.61854,-0.74529 4.48319,-1.56831 7.31431,-1.55766 3.06027,0.0115 4.72809,0.42033 7.29162,1.78731 2.11318,1.12683 5.16436,4.21967 5.88194,5.96224 0.2696,0.6547 0.59863,1.39967 0.73117,1.6555 0.97366,1.87929 1.28636,6.23546 0.62883,8.75991 -1.62912,6.25459 -6.63859,10.74296 -13.17405,11.80363 -1.98511,0.32217 -2.22405,0.31512 -4.47024,-0.13205 z m 1.39634,-2.48948 c 0.40742,-0.42633 0.82002,-1.1976 0.91689,-1.71393 0.15149,-0.80753 0.24371,-0.90261 0.65954,-0.68007 0.64194,0.34356 1.50214,0.32859 1.72375,-0.03 0.40958,-0.66271 0.15745,-2.88349 -0.48725,-4.2917 -0.72978,-1.59406 -1.75631,-2.64819 -3.45077,-3.54357 l -1.10397,-0.58336 0.92604,-0.0107 c 1.13328,-0.013 4.20873,1.516 5.62775,2.79801 1.23381,1.11466 1.99013,1.42208 3.4987,1.42208 1.71425,0 2.29648,-0.73654 1.73976,-2.20085 -0.23167,-0.60933 -0.18187,-0.65809 0.83891,-0.82132 0.79628,-0.12733 1.39016,-0.47849 2.23066,-1.31899 0.63001,-0.63001 1.14547,-1.26469 1.14547,-1.4104 0,-0.14572 -0.43713,-0.76363 -0.9714,-1.37313 -0.97072,-1.10743 -2.32852,-1.87115 -3.32665,-1.87115 -0.3891,0 -0.4587,-0.0876 -0.26282,-0.33072 0.14654,-0.18191 0.34735,-0.70941 0.44626,-1.17223 0.45266,-2.11825 -2.61027,-1.61101 -6.33643,1.04936 -1.65576,1.18216 -4.16627,2.14349 -5.21041,1.99518 -0.47755,-0.0678 -0.2281,-0.273 1.16174,-0.95551 3.36164,-1.6508 4.69666,-4.35449 3.59319,-7.27692 -0.48902,-1.29509 -2.12882,-1.72511 -2.48379,-0.65134 l -0.1968,0.59531 -0.16299,-0.65849 c -0.20062,-0.81054 -1.68077,-1.85246 -2.37406,-1.67117 -0.87941,0.22998 -1.45861,1.11299 -1.45861,2.22373 0,0.83281 -0.081,1.00768 -0.40289,0.86959 -0.58733,-0.25199 -1.31709,-0.17682 -1.74694,0.17993 -0.59372,0.49274 -0.44075,1.47642 0.37644,2.42064 1.46101,1.68813 1.24036,3.29486 -0.58002,4.22355 -1.37906,0.70354 -4.75427,0.78513 -6.4722,0.15643 -1.13577,-0.41564 -1.14175,-0.41462 -1.38906,0.23588 -0.30161,0.79327 -0.33169,4.24033 -0.0386,4.42147 0.11539,0.0713 1.09347,-0.15978 2.17352,-0.51355 2.29617,-0.75211 3.80005,-0.81147 5.30484,-0.20937 1.72423,0.6899 2.02585,2.14798 0.89266,4.31517 -0.43551,0.83289 -0.64932,1.61513 -0.59531,2.17794 0.0797,0.83106 0.13794,0.8766 1.08306,0.84749 0.86383,-0.0266 0.97744,0.0365 0.84075,0.46717 -0.39945,1.25856 1.32092,3.65402 2.62974,3.6617 0.27528,0.002 0.83386,-0.34588 1.24129,-0.77221 z m -37.56852,-2.99517 c 0.007,-0.61846 -0.0252,-1.35645 -0.0719,-1.63996 -0.0695,-0.42267 0.1262,-0.55264 1.0869,-0.72186 0.6444,-0.11351 1.29329,-0.32803 1.44197,-0.47671 0.58264,-0.58263 0.67959,-0.22204 0.19408,0.72186 -0.70258,1.36592 -2.09506,3.24115 -2.40677,3.24115 -0.14146,0 -0.2514,-0.50602 -0.24431,-1.12448 z m 26.51318,-0.26458 c -0.58385,-0.64103 -1.13752,-1.607 -1.13752,-1.98463 0,-0.12861 0.53424,-0.10953 1.18945,0.0425 1.02787,0.23848 1.16542,0.3487 1.01251,0.81139 -0.0973,0.29449 -0.15765,0.80332 -0.13408,1.13075 0.0236,0.32742 -0.0541,0.59531 -0.17264,0.59531 -0.11852,0 -0.4595,-0.26789 -0.75772,-0.59531 z m -24.05396,-15.28095 c -0.16202,-0.16327 -0.86937,-0.37907 -1.57189,-0.47956 l -1.27732,-0.18271 -0.0168,-1.9172 c -0.009,-1.05445 0.0587,-1.91719 0.15095,-1.91719 0.18293,0 1.62475,1.73797 2.58037,3.11038 0.61171,0.87851 0.71821,1.97426 0.13474,1.38628 z m 22.91644,-0.98907 c 0,-0.32324 1.36084,-2.20297 1.94027,-2.68009 0.39344,-0.32398 0.44137,-0.28119 0.4446,0.39688 0.002,0.418 0.0709,1.01078 0.15321,1.3173 0.12558,0.46783 0.008,0.58102 -0.73122,0.70509 -0.48445,0.0813 -1.08917,0.23019 -1.34383,0.3309 -0.25467,0.10071 -0.46303,0.0692 -0.46303,-0.0701 z m -20.55557,-4.95683 c -0.75143,-0.50603 -1.43001,-1.02326 -1.50796,-1.1494 -0.078,-0.12613 0.47617,-0.20759 1.2314,-0.18101 1.29856,0.0457 1.38195,0.0914 1.53541,0.84176 0.0893,0.4364 0.24784,0.93189 0.35241,1.10109 0.33307,0.53891 -0.20569,0.33414 -1.61126,-0.61244 z m 16.58682,0.14194 c 0,-0.13693 0.11907,-0.32255 0.26459,-0.41249 0.14552,-0.0899 0.26453,-0.66251 0.26446,-1.27239 l -1.2e-4,-1.10886 h 1.5868 c 0.93816,0 1.55204,0.10815 1.50176,0.26458 -0.1044,0.32485 -3.11207,2.77813 -3.40592,2.77813 -0.11636,0 -0.21157,-0.11204 -0.21157,-0.24897 z m -48.93094,-0.97002 c 0.49999,-0.67043 1.80204,-1.92316 2.89345,-2.78383 1.0914,-0.86067 2.10774,-1.66227 2.25853,-1.78132 0.84651,-0.66834 4.51439,-2.22829 6.34042,-2.69658 2.15773,-0.55334 6.36635,-0.77507 7.9375,-0.41818 l 0.79375,0.1803 0.0227,-3.90893 c 0.035,-6.03699 1.07292,-9.20615 4.26959,-13.03706 1.45062,-1.73842 3.77634,-3.8663 5.23272,-4.78758 l 0.79375,-0.50211 -1.19062,-0.0264 c -6.27689,-0.13907 -13.79328,-0.0115 -14.72144,0.24985 -0.60247,0.16965 -1.45873,0.68007 -1.90281,1.13428 l -0.8074,0.82583 -1.03567,-0.82027 c -0.56962,-0.45114 -1.38024,-0.95598 -1.80137,-1.12185 -0.77758,-0.30627 -9.26686,-0.36589 -10.03668,-0.0705 -0.31853,0.12223 -0.38428,0.94396 -0.37477,4.68399 0.006,2.49467 0.11089,5.04988 0.23235,5.67826 0.2326,1.2034 1.40275,2.69395 2.11487,2.69395 0.23875,0 -0.0146,0.34808 -0.61154,0.84011 -1.69342,1.39586 -1.75804,1.75207 -1.73826,9.58202 0.0149,5.91909 0.0876,7.30496 0.38285,7.30496 0.0215,0 0.4481,-0.54854 0.94809,-1.21899 z m 0.82472,-8.76903 c 0.078,-3.85199 0.13038,-4.23173 0.69295,-5.02045 0.38037,-0.53328 1.00168,-0.97102 1.65679,-1.1673 0.5765,-0.17272 1.18378,-0.47743 1.34951,-0.67712 0.48904,-0.58925 -0.20076,-1.54774 -1.3136,-1.82527 -0.64671,-0.16127 -1.16023,-0.53661 -1.57159,-1.14865 -0.57868,-0.86102 -0.60714,-1.11293 -0.53806,-4.7625 l 0.0729,-3.8534 3.47051,0.0126 c 3.84951,0.014 4.52269,0.23614 5.35222,1.76602 0.24073,0.44397 0.68255,1.10357 0.98181,1.46578 0.53085,0.64249 0.56474,0.6479 1.38907,0.22162 0.58315,-0.30156 0.84494,-0.62779 0.84494,-1.05296 0,-0.7484 1.035,-1.91831 2.04038,-2.30633 0.78152,-0.30162 8.80753,-0.68758 8.80753,-0.42354 0,0.0853 -0.42073,0.60815 -0.93496,1.16195 -1.72707,1.85998 -4.30913,7.26209 -4.74579,9.92899 -0.26177,1.59877 -1.92884,2.35761 -2.8772,1.30969 -0.7096,-0.7841 -0.53855,-1.52114 0.49447,-2.13064 0.99443,-0.58673 1.48799,-1.38532 0.96411,-1.55995 -0.1881,-0.0627 0.006,-0.40564 0.48156,-0.84962 0.92433,-0.86345 1.01774,-1.32593 0.26781,-1.32593 -0.79231,0 -0.63753,-0.44135 0.21454,-0.61177 0.82656,-0.16531 1.57836,-1.34672 1.06063,-1.6667 -0.18182,-0.11237 -0.053,-0.30715 0.3407,-0.51509 0.3482,-0.18391 0.84313,-0.69361 1.09984,-1.13265 0.45651,-0.78077 0.4544,-0.80219 -0.0964,-0.97699 -0.37487,-0.11898 -0.81364,0.006 -1.31257,0.37537 -0.44501,0.32902 -0.81544,0.44734 -0.91188,0.29129 -0.26201,-0.42393 -1.16215,0.20238 -1.3465,0.93688 -0.17112,0.68181 -0.48829,0.84213 -0.76863,0.38852 -0.46459,-0.75172 -1.9738,1.33725 -1.62424,2.2482 0.12233,0.31879 0.017,0.37018 -0.49506,0.24165 -0.53394,-0.13401 -0.69853,-0.0367 -0.91899,0.54312 -0.14771,0.3885 -0.26856,1.02008 -0.26856,1.40352 0,0.83628 -0.44217,0.49669 -0.57291,-0.44 -0.1182,-0.84688 -0.93345,-1.36856 -1.28265,-0.82077 -0.19527,0.3063 -0.25393,0.22686 -0.25706,-0.34812 -0.008,-1.55908 -0.99948,-2.29737 -1.7524,-1.30553 -0.32483,0.42791 -0.35212,0.41697 -0.3599,-0.14431 -0.005,-0.33404 -0.31612,-0.91505 -0.69221,-1.29114 -0.6197,-0.61969 -0.7225,-0.64507 -1.09681,-0.27077 -0.37431,0.37431 -0.45282,0.36793 -0.83756,-0.0681 -0.56371,-0.63889 -2.15993,-1.16014 -2.50279,-0.81729 -0.37684,0.37684 0.26856,2.33259 0.89986,2.72685 0.28431,0.17755 0.51693,0.42027 0.51693,0.53938 0,0.1191 -0.10557,0.1513 -0.2346,0.0716 -0.12904,-0.0797 -0.36863,0.0165 -0.53243,0.21386 -0.35414,0.42671 -0.0611,0.72356 1.46722,1.4865 0.97649,0.48746 0.98883,0.50943 0.292,0.51952 -0.40019,0.006 -0.72761,0.13136 -0.72761,0.27902 0,0.3962 1.61713,1.31213 2.38125,1.34873 0.44938,0.0215 0.51301,0.0705 0.19844,0.15268 -1.03538,0.27057 -0.11591,1.17208 1.78594,1.75105 l 1.32291,0.40273 -1.52583,-0.1467 c -1.24379,-0.11959 -1.62454,-0.0574 -2.05985,0.33658 -0.29371,0.2658 -0.47822,0.6287 -0.41001,0.80644 0.0708,0.18458 -0.18045,0.39913 -0.58598,0.50033 -0.8453,0.21093 -1.63603,0.87191 -1.63603,1.36757 0,0.19573 0.20836,0.36661 0.46302,0.37973 0.25466,0.0131 0.0767,0.13543 -0.3955,0.27179 -0.9154,0.26436 -1.81782,1.34355 -1.52273,1.82101 0.0978,0.15832 -0.0183,0.58732 -0.25813,0.95333 -0.23982,0.36601 -0.39879,0.92632 -0.35327,1.24513 0.11567,0.81009 1.47047,0.69669 2.23783,-0.18732 0.31245,-0.35995 0.62955,-0.59301 0.70465,-0.5179 0.23384,0.23384 1.47615,-0.71976 1.6496,-1.26625 0.12876,-0.40567 0.24437,-0.45344 0.5279,-0.21814 0.45701,0.37929 0.8232,0.15493 1.465,-0.89761 0.2787,-0.45707 0.50718,-0.6822 0.50772,-0.5003 10e-4,0.41707 0.96346,0.43531 1.21822,0.0231 0.10457,-0.1692 0.26505,-0.67398 0.35663,-1.12173 0.22418,-1.09615 1.34305,-1.53206 2.12229,-0.82685 0.64088,0.57999 0.67867,1.21513 0.13486,2.26675 -0.46045,0.8904 -1.68416,1.57771 -3.9633,2.22602 -2.14963,0.61148 -5.6761,2.37034 -6.96578,3.47426 -0.58071,0.49707 -1.19393,0.90376 -1.36272,0.90376 -0.22336,0 -0.28392,-1.13409 -0.22252,-4.16718 z m 14.23956,-1.50833 c 0,-0.0656 0.12294,-0.69068 0.2732,-1.38907 l 0.27319,-1.26979 1.18201,-0.007 1.18202,-0.007 v 1.39607 1.39606 h -1.45521 c -0.80037,0 -1.45521,-0.0537 -1.45521,-0.11926 z m 69.28006,4.41874 c -0.0865,-6.68999 -0.12384,-7.14281 -0.68164,-8.26823 -0.32457,-0.65484 -0.94487,-1.42651 -1.37845,-1.71481 l -0.78833,-0.52419 1.18492,-1.06331 c 0.99796,-0.89554 1.22589,-1.28818 1.44459,-2.48849 0.30291,-1.66245 0.35344,-9.55156 0.0612,-9.56237 -0.10914,-0.004 -2.63922,-0.0333 -5.62239,-0.0651 -5.22718,-0.0556 -5.45901,-0.036 -6.3899,0.54187 -0.53126,0.32978 -1.03354,0.77579 -1.11617,0.99112 -0.18989,0.49484 -0.86759,0.50797 -1.14589,0.0222 -0.11637,-0.20312 -0.68783,-0.61195 -1.26992,-0.9085 -0.97782,-0.49818 -1.65114,-0.54717 -8.8513,-0.644 -5.66069,-0.0761 -7.65917,-0.0266 -7.30396,0.18089 2.55487,1.49266 5.94089,5.30258 7.53791,8.4816 1.47571,2.93755 2.23794,6.54371 2.04256,9.66348 -0.0775,1.23693 -0.222,2.58012 -0.32119,2.98488 l -0.18034,0.73591 1.15691,-0.20374 c 1.85556,-0.32677 6.81864,-0.23359 8.82983,0.16578 3.27082,0.64951 6.60057,2.50814 9.57347,5.34381 0.85169,0.81237 1.84405,1.91087 2.20524,2.4411 0.36119,0.53024 0.75742,0.96488 0.88052,0.96587 0.1231,0.001 0.18263,-3.18311 0.13229,-7.0758 z m -3.7546,0.60075 c -1.52578,-1.3478 -4.83217,-2.9598 -7.57819,-3.69468 -3.5242,-0.94314 -4.64409,-1.82931 -3.8124,-3.01672 0.60189,-0.85932 1.3652,-0.71893 1.87224,0.34433 0.49997,1.04846 0.97164,1.31253 1.67345,0.93693 0.39075,-0.20912 0.52597,-0.15717 0.65583,0.252 0.1907,0.60083 1.13148,0.97629 1.50652,0.60125 0.16814,-0.16814 0.4781,-0.0387 0.88738,0.37059 0.78876,0.78876 1.18052,0.79987 1.18809,0.0337 l 0.006,-0.59531 0.45713,0.58663 c 0.35699,0.45812 2.29083,1.39774 2.8767,1.39774 0.31715,0 -0.33803,-1.56192 -0.91564,-2.18281 -0.55029,-0.59154 -0.5934,-0.72761 -0.2305,-0.72761 0.27575,0 0.44638,-0.21042 0.44638,-0.55045 0,-0.39366 -0.29235,-0.66529 -1.02635,-0.95361 -0.76177,-0.29923 -0.9948,-0.52382 -0.90397,-0.87118 0.15859,-0.60644 -1.11384,-1.09 -2.00283,-0.76114 -0.50614,0.18723 -0.59376,0.15398 -0.46671,-0.17711 0.23369,-0.60896 -0.79425,-0.87969 -2.47931,-0.65297 -1.57294,0.21163 -2.12252,0.12528 -0.89111,-0.14001 1.39843,-0.30128 2.00832,-0.65015 1.85141,-1.05905 -0.11034,-0.28753 0.0467,-0.39073 0.5945,-0.39073 0.93213,0 1.76054,-0.81216 1.29909,-1.27361 -0.24213,-0.24213 -0.21106,-0.31389 0.13591,-0.31389 0.66658,0 1.57877,-1.02419 1.42747,-1.60275 -0.0856,-0.32745 0.0408,-0.54957 0.37269,-0.65492 0.60518,-0.19207 1.14495,-1.07174 1.21229,-1.97566 0.0271,-0.3638 0.13032,-0.98888 0.22936,-1.38906 0.22406,-0.90531 -0.28835,-0.97589 -1.30113,-0.17924 -0.38343,0.30161 -0.69714,0.42067 -0.69714,0.26459 0,-0.43974 -0.47686,-0.3361 -1.0387,0.22574 -0.31026,0.31026 -0.71914,0.45472 -1.0455,0.36937 -0.39224,-0.10257 -0.66357,0.0686 -1.01182,0.63823 -0.26172,0.42811 -0.63158,0.72593 -0.8219,0.66181 -0.4602,-0.15504 -1.28811,0.61881 -1.48,1.38338 -0.0915,0.3647 -0.33641,0.59793 -0.60457,0.57584 -0.30166,-0.0248 -0.58828,0.32896 -0.86662,1.06979 -0.5889,1.56736 -0.75971,1.62387 -0.75971,0.25135 0,-1.71769 -0.25226,-2.36077 -0.86336,-2.20097 -0.41172,0.10767 -0.50366,-0.0118 -0.50366,-0.65466 0,-0.43251 -0.12325,-1.01667 -0.27389,-1.29815 -0.30538,-0.57061 -1.03748,-0.69449 -1.06991,-0.18104 -0.0115,0.1819 -0.14609,-0.0265 -0.29911,-0.46302 -0.15302,-0.43656 -0.45973,-1.00211 -0.68158,-1.25677 -0.46466,-0.5334 -1.11509,-0.6148 -1.11509,-0.13957 0,0.1779 -0.18535,0.0588 -0.41188,-0.26458 -0.26413,-0.3771 -0.68628,-0.58804 -1.17686,-0.58804 -0.73881,0 -0.7553,0.0278 -0.48208,0.81155 0.1556,0.44635 0.49445,0.94365 0.75301,1.10512 0.36682,0.22909 0.40748,0.39385 0.18506,0.75 -0.35298,0.56522 0.37387,1.82019 1.0727,1.85214 0.27618,0.0126 0.32609,0.0737 0.1262,0.15434 -0.52266,0.21089 -0.39982,1.62922 0.17203,1.98635 0.27653,0.17269 0.44228,0.47162 0.36834,0.66429 -0.29705,0.77411 0.18732,1.65694 1.0287,1.87496 1.2063,0.31258 1.54309,0.9697 0.85148,1.66132 -1.17771,1.1777 -2.75899,-0.025 -3.41875,-2.60037 -0.87091,-3.39947 -2.70974,-7.10879 -4.45335,-8.98334 -0.43787,-0.47076 -0.74474,-0.88748 -0.68193,-0.92604 0.0628,-0.0386 2.15991,-0.0106 4.66022,0.0622 5.08419,0.14795 5.70906,0.3559 6.29451,2.09471 0.40602,1.2059 1.06843,1.65716 1.88585,1.28471 0.39869,-0.18165 0.63508,-0.51275 0.63508,-0.88951 0,-0.33008 0.40101,-1.02534 0.89114,-1.54503 l 0.89114,-0.94488 h 4.13594 4.13595 v 2.97831 c 0,1.63807 -0.11622,3.38354 -0.25826,3.87883 -0.36535,1.27389 -1.2636,2.12194 -2.44817,2.31136 -0.9542,0.15259 -1.80331,0.88587 -1.78307,1.53985 0.0182,0.58837 0.78227,1.24358 1.60055,1.37254 2.40541,0.3791 2.88895,1.4969 2.88895,6.67837 0,2.1972 -0.0893,3.98995 -0.19844,3.98389 -0.10914,-0.006 -0.65619,-0.41537 -1.21568,-0.90959 z m -16.21374,-5.46247 c 0.091,-0.45475 0.16536,-1.02716 0.16536,-1.27203 0,-0.35684 0.25812,-0.44521 1.30032,-0.44521 h 1.30032 l 0.0896,1.12597 c 0.10028,1.26094 -0.10696,1.40783 -1.99567,1.41449 -1.0077,0.004 -1.02242,-0.0106 -0.85989,-0.82322 z m -69.68464,-13.46067 c 0,-0.14552 0.12609,-0.26459 0.2802,-0.26459 0.15411,0 0.20662,0.11907 0.11668,0.26459 -0.0899,0.14552 -0.21603,0.26458 -0.2802,0.26458 -0.0642,0 -0.11668,-0.11906 -0.11668,-0.26458 z"
       id="path26209" />
  </g>
</svg>
