<?xml version="1.0" encoding="UTF-8" standalone="no"?>
<!-- Created with Inkscape (http://www.inkscape.org/) -->

<svg
   width="97.49913mm"
   height="98.902679mm"
   viewBox="0 0 97.499123 98.902672"
   version="1.1"
   id="svg5"
   inkscape:version="1.1 (c4e8f9ed74, 2021-05-24)"
   sodipodi:docname="ornatep.svg"
   xmlns:inkscape="http://www.inkscape.org/namespaces/inkscape"
   xmlns:sodipodi="http://sodipodi.sourceforge.net/DTD/sodipodi-0.dtd"
   xmlns="http://www.w3.org/2000/svg"
   xmlns:svg="http://www.w3.org/2000/svg">
  <sodipodi:namedview
     id="namedview7"
     pagecolor="#ffffff"
     bordercolor="#666666"
     borderopacity="1.0"
     inkscape:pageshadow="2"
     inkscape:pageopacity="0.0"
     inkscape:pagecheckerboard="0"
     inkscape:document-units="mm"
     showgrid="false"
     inkscape:zoom="0.66903058"
     inkscape:cx="-824.32704"
     inkscape:cy="229.43645"
     inkscape:window-width="2506"
     inkscape:window-height="1403"
     inkscape:window-x="1974"
     inkscape:window-y="0"
     inkscape:window-maximized="1"
     inkscape:current-layer="layer1" />
  <defs
     id="defs2" />
  <g
     inkscape:label="Layer 1"
     inkscape:groupmode="layer"
     id="layer1"
     transform="translate(-163.19767,-248.19858)">
    <path
       style="fill:#000000;stroke-width:0.264583"
       d="m 257.16719,346.7484 c -4.34323,-1.69342 -4.47692,-1.71918 -5.9288,-1.14267 -0.74098,0.29422 -2.26998,0.59974 -3.39776,0.67892 l -2.05052,0.14396 v -1.09614 c 0,-1.32438 -0.3685,-1.40091 -1.31078,-0.27221 -0.5332,0.6387 -0.99541,0.87255 -2.05592,1.0402 -1.77629,0.28079 -4.3455,-0.0914 -5.55445,-0.80473 -0.95672,-0.56448 -0.95672,-0.56448 -1.71665,-0.003 -0.84185,0.6224 -3.11766,1.08823 -4.2547,0.87087 -0.40368,-0.0772 -0.8536,-0.36386 -0.99983,-0.6371 -0.35714,-0.66733 -1.57101,-0.6421 -2.94981,0.0613 -1.60467,0.81864 -3.54489,0.61281 -4.82593,-0.51196 -0.52613,-0.46194 -1.01673,-0.83989 -1.09022,-0.83989 -0.0735,0 -0.57537,0.22202 -1.11527,0.49339 -1.25858,0.63259 -1.90039,0.73988 -7.33165,1.22572 -2.47385,0.22129 -5.13402,0.53105 -5.91149,0.68838 -0.99644,0.20163 -1.8943,0.20446 -3.0427,0.01 -0.89603,-0.15203 -3.23649,-0.38843 -5.20102,-0.52532 -2.0042,-0.13965 -4.64978,-0.51733 -6.02783,-0.86052 -2.15484,-0.53664 -2.56035,-0.5687 -3.3073,-0.26149 -2.81732,1.15874 -4.85942,1.27655 -6.00217,0.34627 -0.55839,-0.45458 -0.55839,-0.45458 0.23495,-1.38062 0.43634,-0.50932 0.79818,-1.06539 0.8041,-1.23571 0.0152,-0.43771 -3.46589,-3.52679 -3.97435,-3.52679 -0.23132,0 -0.69147,0.28836 -1.02257,0.6408 -0.33109,0.35243 -1.34536,0.99588 -2.25392,1.42987 -0.90855,0.43399 -2.52084,1.51684 -3.58285,2.40633 -2.14695,1.79819 -2.0968,1.77982 -5.42743,1.9881 -1.30969,0.0819 -2.63903,0.21982 -2.9541,0.30648 -0.43268,0.11901 -0.69162,-0.0238 -1.05833,-0.58363 -0.43891,-0.67009 -0.48549,-1.38954 -0.48549,-7.49947 0,-5.51938 0.0844,-7.10512 0.46025,-8.65038 0.45816,-1.88357 0.45738,-1.90088 -0.17315,-3.83497 -0.42755,-1.31148 -0.55586,-2.08772 -0.39483,-2.3886 0.1312,-0.24516 0.92239,-0.66254 1.75819,-0.92753 1.86672,-0.59182 2.00951,-1.04398 0.7824,-2.47758 -1.35701,-1.58536 -1.81465,-3.56642 -2.01712,-8.73184 -0.25714,-6.55975 0.0482,-11.51706 0.88367,-14.34564 0.83749,-2.83551 0.83764,-2.86057 0.0286,-4.82465 -0.35967,-0.87312 -0.65678,-1.96078 -0.66023,-2.41701 -0.004,-0.45623 -0.20107,-1.43265 -0.43915,-2.16981 -0.40198,-1.24465 -0.40108,-1.5159 0.0125,-3.8007 0.69207,-3.82302 0.90048,-4.43378 1.62574,-4.76423 0.41972,-0.19123 0.74427,-0.64786 0.91736,-1.29066 0.14732,-0.54711 0.3987,-1.03835 0.55862,-1.09166 0.48988,-0.16329 -0.31953,-3.90457 -0.91351,-4.22245 -0.26936,-0.14416 -0.65936,-0.63948 -0.86666,-1.10071 -0.2073,-0.46123 -0.63493,-1.16301 -0.9503,-1.5595 l -0.57339,-0.7209 0.72859,-1.44003 0.72859,-1.44003 -0.54964,-2.65245 c -0.3023,-1.45885 -0.54964,-3.59576 -0.54964,-4.7487 0,-2.41852 0.43769,-3.24467 1.99054,-3.75715 0.88574,-0.29232 1.6673,-1.16708 1.25132,-1.40054 -0.10954,-0.0615 -0.52767,-0.1903 -0.92919,-0.28629 -0.98465,-0.23539 -2.31267,-2.09381 -2.31267,-3.23632 0,-1.65625 1.66841,-1.87294 4.58035,-0.59489 1.81904,0.79838 1.9196,0.81347 2.64548,0.39688 1.16022,-0.66588 2.46439,-0.56608 2.98496,0.2284 0.5614,0.85682 1.85456,0.87632 5.048,0.0761 2.05706,-0.51545 3.04687,-0.58654 8.28912,-0.59531 l 5.95313,-0.01 1.72876,0.85997 c 1.09468,0.54454 2.4048,0.94672 3.57188,1.09648 1.01371,0.13008 2.49395,0.49565 3.28942,0.81238 1.50094,0.59762 2.87269,0.57184 3.39848,-0.0639 0.14727,-0.17805 0.30806,-0.6762 0.35732,-1.10701 0.0654,-0.57165 0.26828,-0.83261 0.75101,-0.96582 1.20278,-0.3319 4.2248,-0.24594 5.16503,0.14692 0.86463,0.36126 0.95678,0.34677 1.68334,-0.26459 0.42276,-0.35572 0.95707,-0.64677 1.18737,-0.64677 0.51598,0 1.11341,0.90609 1.35202,2.05052 0.17302,0.82982 0.22498,0.8599 1.48559,0.8599 0.71847,0 3.59627,-0.56362 6.39512,-1.25249 5.08882,-1.25249 5.08882,-1.25249 9.71903,-1.23506 4.13629,0.0156 4.90885,0.092 7.24229,0.7163 1.43664,0.38438 3.02102,0.94016 3.52085,1.23506 1.21784,0.71854 1.54953,0.67754 1.92894,-0.23843 0.80294,-1.93848 1.99273,-2.02379 3.69932,-0.26527 l 1.03185,1.06325 1.78931,-1.22501 c 1.87538,-1.28394 1.69528,-1.25191 4.15918,-0.73972 0.53585,0.11139 0.97524,-0.0107 1.53951,-0.42792 0.96543,-0.71378 1.33466,-0.59714 1.90335,0.6013 0.45923,0.96774 0.44129,1.14829 -0.80029,8.05344 -0.12101,0.67302 0.007,1.09552 0.58645,1.93125 l 0.74134,1.06976 -0.33475,3.22813 c -0.25515,2.46055 -0.26607,3.9516 -0.0459,6.27083 0.41796,4.40284 0.37715,6.37335 -0.1475,7.12238 -0.40875,0.58357 -0.40668,0.74686 0.0307,2.43321 0.4178,1.61084 0.43297,2.08928 0.13934,4.39426 -0.18123,1.42263 -0.25741,3.06286 -0.1693,3.64494 0.55362,3.65718 0.62813,3.225 -0.78242,4.53856 -0.86199,0.80273 -1.3812,1.5513 -1.59186,2.29511 -0.17196,0.6071 -0.52936,1.66352 -0.79423,2.34759 -0.48159,1.24375 -0.48159,1.24375 0.15594,2.10606 0.83701,1.13211 1.03044,3.23968 0.43412,4.73003 -0.64262,1.60608 -1.03064,4.77807 -0.69309,5.66591 0.1523,0.40058 0.811,1.40813 1.46377,2.239 1.80407,2.2963 1.50154,3.39383 -0.37086,1.34545 -0.53208,-0.58208 -1.17514,-1.05833 -1.42903,-1.05833 -0.37797,0 -0.29301,0.24511 0.46881,1.3526 0.51174,0.74394 0.93043,1.62202 0.93043,1.9513 0,1.03494 0.31953,2.24962 0.55371,2.10489 0.12358,-0.0764 0.30302,-0.72929 0.39875,-1.45092 0.0957,-0.72162 0.25396,-1.31204 0.35162,-1.31204 0.86167,0 1.08915,2.28448 0.38944,3.9111 -0.82198,1.91089 -0.90025,2.45476 -0.49339,3.4285 0.69594,1.66563 0.3832,4.03748 -0.53237,4.03748 -0.72131,0 -0.65104,0.49135 0.39368,2.75264 0.58037,1.25622 1.05522,2.58606 1.05522,2.9552 0,0.36913 -0.47625,1.46078 -1.05833,2.42589 -0.58208,0.96511 -1.05833,1.93434 -1.05833,2.15384 0,0.21951 -0.32162,0.7348 -0.71471,1.14509 l -0.7147,0.74599 1.36268,1.38516 c 1.56928,1.59515 2.43384,3.30576 2.44217,4.83201 0.0112,2.04671 -1.05584,2.66732 -3.16919,1.84334 z m -49.54323,-1.90071 c -0.25466,-0.0666 -0.67138,-0.0666 -0.92604,0 -0.25466,0.0666 -0.0463,0.121 0.46302,0.121 0.50932,0 0.71768,-0.0544 0.46302,-0.121 z m 50.42868,-0.82431 c -0.0432,-0.93087 -1.43114,-3.30935 -1.61292,-2.76403 -0.0593,0.17789 0.12029,0.65259 0.39907,1.05489 1.29285,1.86569 0.83854,2.27547 -1.55513,1.40269 -0.87992,-0.32083 -1.65241,-0.53078 -1.71664,-0.46655 -0.38585,0.38586 2.9485,1.80392 3.99705,1.6999 0.42132,-0.0418 0.52089,-0.23069 0.48857,-0.9269 z m -54.75246,0.0691 c 0.21782,-0.29789 1.32637,-0.51616 4.09707,-0.80668 4.11757,-0.43177 6.51057,-1.05448 6.51057,-1.6942 0,-0.66026 -1.92735,-1.11102 -4.7625,-1.11382 -4.34629,-0.004 -12.67067,0.43363 -13.09688,0.689 -0.86898,0.52068 -1.5875,1.33504 -1.5875,1.79925 0,0.64241 0.79039,0.91915 3.47938,1.21827 3.57156,0.39728 5.02036,0.37246 5.35986,-0.0918 z m 30.03362,0.0738 c 1.07916,-0.55061 0.98652,-0.98829 -0.20919,-0.98829 -1.2535,0 -2.41575,0.46597 -2.41575,0.96852 0,0.45607 1.74405,0.46921 2.62494,0.0198 z m -65.8995,-0.85918 c 1.28408,-0.73407 1.68048,-0.79437 2.37418,-0.36114 0.68972,0.43073 1.89685,-0.27115 3.12045,-1.81438 1.42713,-1.79992 1.63053,-1.92234 3.19404,-1.92234 1.78628,0 1.79645,-0.29635 0.0684,-1.99432 -0.73492,-0.72213 -1.83625,-2.17458 -2.44739,-3.22767 -0.61115,-1.05309 -1.23024,-1.87839 -1.37576,-1.83402 -0.49946,0.15232 -3.04271,3.93917 -3.04271,4.53055 0,0.32525 0.24796,0.81576 0.55101,1.09002 1.16841,1.05739 1.89944,4.36177 1.00593,4.54695 -0.2995,0.0621 -0.47858,-0.16712 -0.5983,-0.7657 -0.261,-1.30502 -1.43269,-3.13956 -2.00518,-3.13956 -0.37746,0 -0.63113,0.42115 -1.06781,1.77283 -0.31501,0.97505 -0.74205,2.10023 -0.94898,2.5004 -0.74721,1.44494 -0.50099,1.57484 1.17211,0.61838 z m 23.53541,-1.65154 c 0.62644,-0.5049 1.07647,-0.98052 1.00007,-1.05692 -0.14089,-0.14089 -2.96692,1.64221 -4.05728,2.55997 -1.84757,1.55512 0.99973,0.15528 3.05721,-1.50305 z m 26.2454,1.39014 c -1.05175,-1.08513 -1.85209,-1.22233 -1.85209,-0.3175 0,0.8819 0.49216,1.24354 1.69232,1.24354 h 1.05732 z m 8.99583,0.39688 c 0.63704,-0.63705 0.67081,-1.14349 0.11339,-1.7009 -0.53996,-0.53996 -1.05442,-0.51744 -2.42849,0.10627 -0.7992,0.36277 -1.12448,0.66971 -1.12448,1.06105 0,1.0639 2.51855,1.4546 3.43958,0.53358 z m 14.04031,0.25527 c 0.72343,-0.38717 0.67856,-1.69594 -0.0763,-2.22465 -0.86861,-0.60839 -1.98218,-0.51154 -2.73128,0.23756 -0.75258,0.75258 -0.81706,1.26181 -0.23366,1.84521 0.47415,0.47415 2.26431,0.55766 3.04121,0.14188 z m 11.34644,-1.58824 c 2.01689,-1.67847 2.442,-2.3331 2.68686,-4.13753 0.16141,-1.18943 0.37164,-1.61845 1.1757,-2.39935 0.53853,-0.52301 1.20179,-1.4368 1.47392,-2.03065 0.49478,-1.07971 0.49478,-1.07971 -0.2536,-1.74117 -0.41161,-0.3638 -1.22917,-1.32035 -1.8168,-2.12566 -1.15265,-1.57964 -2.43567,-2.77752 -3.71486,-3.46833 -0.44263,-0.23904 -0.96624,-0.77038 -1.16356,-1.18075 -0.47731,-0.99263 -1.78922,-1.84268 -3.18856,-2.06604 -0.62644,-0.1 -1.4136,-0.36154 -1.74926,-0.58121 -0.60429,-0.39549 -0.60859,-0.39037 -0.43763,0.52091 0.15498,0.82611 0.0549,1.0482 -0.97722,2.16953 l -1.14986,1.24922 1.4552,-0.72801 c 0.80037,-0.40041 1.83422,-1.01236 2.29745,-1.35988 1.09942,-0.8248 1.46491,-0.79756 2.4447,0.18224 1.14269,1.14269 1.08978,2.15306 -0.20798,3.97147 -1.65369,2.31714 -2.12393,3.49078 -2.55524,6.37741 -0.22416,1.5002 -0.52233,3.14436 -0.6626,3.65368 -0.41235,1.49722 -0.33221,1.7711 0.57109,1.95176 0.45599,0.0912 1.2299,0.59081 1.71979,1.11024 0.85734,0.90904 0.89071,0.92049 0.89071,0.30555 0,-0.76204 0.59791,-2.48288 2.22727,-6.41026 1.38373,-3.3353 1.47392,-4.29786 0.62462,-6.66624 -0.64204,-1.79038 -0.53936,-2.20051 0.42206,-1.68597 1.69357,0.90637 2.19767,3.73731 1.22055,6.85443 -0.62691,1.99995 -0.65552,2.96687 -0.13858,4.68453 0.21295,0.70757 0.3396,1.33405 0.28146,1.3922 -0.0581,0.0581 -0.44074,-0.37827 -0.8502,-0.9698 -0.40946,-0.59154 -0.81745,-1.08004 -0.90665,-1.08556 -0.22929,-0.0142 -2.09543,4.52302 -2.0907,5.08319 0.007,0.77771 0.6958,0.52493 2.37192,-0.86995 z m -61.1055,-2.4272 c 3.85359,-2.88641 3.84666,-2.984 -0.19404,-2.73517 -3.10445,0.19117 -3.10445,0.19117 -2.57968,-0.39128 0.71684,-0.79564 1.3553,-1.00249 4.41341,-1.42992 1.44952,-0.2026 2.70545,-0.43832 2.79095,-0.52383 0.40881,-0.4088 -0.55723,-0.56267 -4.29835,-0.68463 -2.23187,-0.0728 -4.1391,-0.21367 -4.23828,-0.31313 -0.31927,-0.32016 0.17608,-0.79214 1.3992,-1.33319 1.5652,-0.69236 3.45845,-2.45228 4.06384,-3.77764 0.581,-1.27197 0.64993,-3.37854 0.12481,-3.81434 -0.23895,-0.19831 -1.24752,-0.28017 -2.84427,-0.23084 l -2.47405,0.0764 -0.14589,1.87147 c -0.20932,2.68494 -1.61425,4.82567 -4.33848,6.61065 -1.20678,0.79071 -1.03186,0.2146 0.49794,-1.64006 2.23076,-2.70445 2.44272,-4.46973 0.7505,-6.25045 -1.694,-1.7826 -2.97096,-1.91698 -5.53186,-0.58215 -2.17497,1.13368 -2.64278,1.5387 -3.32808,2.88147 -0.82525,1.61696 -0.55078,3.16342 1.12709,6.35045 0.77163,1.46568 1.58578,3.05182 1.80923,3.52476 0.22344,0.47295 0.51676,0.8599 0.65181,0.8599 0.13505,0 0.73533,-0.54701 1.33394,-1.21558 1.35394,-1.51216 2.19426,-1.95942 3.68138,-1.95942 1.35792,0 3.24896,1.18475 3.50232,2.19421 0.0844,0.33637 -0.0321,1.76494 -0.25893,3.17459 -0.22683,1.40965 -0.41243,2.63536 -0.41243,2.72381 0,0.0884 0.44649,-0.21365 0.99219,-0.67132 0.54571,-0.45766 2.12328,-1.67932 3.50573,-2.71479 z m 29.61415,2.32808 c 0.34072,-0.41055 -0.0715,-1.66364 -0.87802,-2.66896 -0.41978,-0.52325 -0.43192,-0.52087 -1.08658,0.2132 -0.76773,0.86085 -0.84416,1.66058 -0.22417,2.34566 0.52008,0.57467 1.75178,0.63663 2.18877,0.1101 z m 14.96781,-0.46799 c 0.47063,-0.21443 0.66145,-0.48441 0.60776,-0.85989 -0.0682,-0.47667 -0.29218,-0.55751 -1.73533,-0.62618 -1.8603,-0.0885 -2.36199,0.3368 -1.50901,1.27934 0.53041,0.58609 1.61698,0.67129 2.63658,0.20673 z m -67.49201,-4.63719 c 1.10438,-2.21305 2.00797,-4.0748 2.00797,-4.13723 0,-0.21744 -3.40608,-0.75452 -3.68639,-0.58128 -0.1553,0.096 -0.28377,0.4949 -0.2855,0.8865 -0.002,0.39159 -0.17891,1.36683 -0.39374,2.16719 -0.59762,2.22653 -0.49177,6.57237 0.14383,5.90477 0.11322,-0.11892 1.10945,-2.0269 2.21383,-4.23995 z m 56.87333,2.8139 c 0.85293,-0.67092 0.92931,-1.86529 0.16797,-2.62663 -0.82621,-0.82621 -2.71117,-0.73364 -3.42038,0.16797 -0.60429,0.76824 -0.72666,2.19374 -0.23087,2.68953 0.53282,0.53281 2.69455,0.38954 3.48328,-0.23087 z m -8.44284,-0.14515 c 0.23556,-0.0904 0.60555,-0.50712 0.82218,-0.92605 0.38695,-0.74827 0.38132,-0.76168 -0.31968,-0.76168 -0.84505,0 -1.68127,0.67837 -1.68127,1.36392 0,0.49995 0.41947,0.61518 1.17877,0.32381 z m -20.42271,-1.32258 c 1.23893,-0.84444 3.82345,-1.95265 4.55387,-1.95265 0.20424,0 0.43547,-0.10377 0.51385,-0.2306 0.16191,-0.26197 -2.74526,-1.88607 -3.3761,-1.88607 -0.4127,0 -2.3736,2.55811 -3.18424,4.15405 -0.71834,1.4142 -0.70549,1.41347 1.49262,-0.0847 z m 9.58665,0.58341 c 1.01864,-0.19435 2.23307,-0.51113 2.69872,-0.70396 0.74069,-0.30674 0.90885,-0.29431 1.34375,0.0993 0.74954,0.67832 1.11561,0.54532 1.12851,-0.41002 0.0148,-1.09563 0.59361,-2.72658 1.20896,-3.40652 0.36697,-0.40551 0.46265,-0.89397 0.4144,-2.1157 -0.0813,-2.05775 0.6318,-3.39342 2.38876,-4.47449 0.69737,-0.42909 1.26794,-0.94178 1.26794,-1.13931 0,-0.39399 -1.32389,-1.05271 -3.17275,-1.57863 -1.51084,-0.42977 -2.06319,-1.36157 -3.16481,-5.33889 -0.61675,-2.22678 -1.59635,-6.81255 -1.59958,-7.48816 -2e-4,-0.0416 -0.52525,-0.30053 -1.16677,-0.57552 -0.64152,-0.27499 -1.27603,-0.69588 -1.41003,-0.93531 -0.17636,-0.31516 -0.52997,-0.41191 -1.28098,-0.35051 l -1.03737,0.0848 0.0526,4.36563 c 0.0578,4.79598 0.44683,10.12857 0.91328,12.51844 0.41325,2.1173 1.1023,3.01156 3.40359,4.41724 2.00972,1.22758 2.51545,1.90319 1.66805,2.22837 -0.2589,0.0994 -1.41764,0.29938 -2.57496,0.44449 -2.42977,0.30467 -2.53652,0.34948 -2.53652,1.06492 0,0.80403 -1.35625,1.99815 -2.67017,2.35097 -1.50955,0.40535 -2.14546,0.75263 -1.95184,1.06592 0.22489,0.36388 3.91681,0.28913 6.07722,-0.12304 z m 26.20577,-0.27508 c 0.4112,-0.4112 0.64943,-0.9514 0.64943,-1.4726 0,-0.86613 -0.40233,-1.84672 -0.75769,-1.84672 -0.50579,0 -2.69428,1.68915 -3.17769,2.45264 -0.70525,1.11387 -0.35134,1.51611 1.33397,1.51611 1.03018,0 1.43835,-0.1358 1.95198,-0.64943 z m 12.70541,-5.61824 c -0.31952,-0.83268 -3.47478,0.0158 -4.84608,1.30313 -0.96461,0.90555 -0.76549,1.26038 0.7073,1.26038 1.59658,0 2.71284,0.8251 3.55651,2.62885 l 0.56484,1.2076 0.0753,-3.02653 c 0.0414,-1.66459 0.0154,-3.18264 -0.0578,-3.37343 z m -30.36527,4.525 c 0.10036,-1.36933 -0.57047,-2.12035 -1.16621,-1.30562 -0.38635,0.52836 -0.50183,2.03276 -0.1807,2.3539 0.10316,0.10315 0.43058,0.15276 0.72761,0.11024 0.42696,-0.0611 0.55665,-0.30372 0.6193,-1.15852 z m 22.52342,-0.0128 c 0.91222,-1.15969 0.60966,-2.74244 -0.52424,-2.74244 -0.81098,0 -1.8378,1.22484 -1.8378,2.19222 0,1.08444 0.14148,1.24736 1.08323,1.24736 0.47397,0 0.92298,-0.24477 1.27881,-0.69714 z m -16.29624,-1.84107 c 0.46053,-0.52288 1.16474,-1.12125 1.56493,-1.32971 0.86216,-0.4491 0.92269,-0.96408 0.19843,-1.68833 -0.41966,-0.41967 -0.88194,-0.52917 -2.23395,-0.52917 -1.46175,0 -1.76351,0.0838 -2.11667,0.58804 -0.55106,0.78676 -0.53574,2.8053 0.026,3.42602 0.69503,0.76801 1.62259,0.59894 2.56126,-0.46685 z m 8.32877,-0.7683 c 0.99862,-0.84028 1.2656,-1.83677 0.71661,-2.67463 -0.35823,-0.54673 -0.62347,-0.63344 -1.93758,-0.63344 -1.87523,0 -2.6986,0.49424 -2.6986,1.61989 0,1.50942 0.81644,2.29389 2.42709,2.33208 0.38902,0.009 1.06063,-0.28053 1.49248,-0.6439 z m -26.40916,-0.10068 c 0,-0.72458 -0.63892,-1.13876 -1.60839,-1.04263 l -0.84921,0.0842 1.02722,0.72761 c 1.21347,0.85953 1.43038,0.89453 1.43038,0.23083 z m 32.19597,-1.40143 c 1.3391,-1.25802 0.46477,-3.39346 -1.3894,-3.39346 -2.12122,0 -2.62898,1.34427 -1.14582,3.0335 0.94396,1.07512 1.665,1.17749 2.53522,0.35996 z m -18.69534,-0.22214 c 0.41287,-0.22097 2.37437,-3.18041 2.37437,-3.58238 0,-0.065 -0.5777,-0.11811 -1.28379,-0.11811 -1.45854,0 -3.03501,0.86454 -3.15256,1.72888 -0.0817,0.60075 0.85123,2.23987 1.27486,2.23987 0.15722,0 0.51143,-0.12072 0.78712,-0.26826 z m 28.8129,-2.27879 c 0.61769,-0.25405 1.31303,-0.91065 2.00418,-1.89252 1.5424,-2.19118 1.60754,-2.4396 0.6398,-2.4396 -0.4391,0 -1.11988,0.16905 -1.51283,0.37566 -1.10492,0.58094 -4.02176,3.8098 -4.02176,4.45197 0,0.31613 1.57268,0.0465 2.89061,-0.49551 z m -72.75779,-0.0816 c 0.55646,-0.55646 1.07169,-2.11127 1.07404,-3.24111 0.002,-0.98177 0.44929,-2.0666 0.85482,-2.0734 0.18551,-0.003 1.15007,-0.53223 2.14349,-1.1758 0.99341,-0.64358 2.57701,-1.42664 3.5191,-1.74015 2.07321,-0.68992 2.09886,-1.19073 0.059,-1.15225 -1.04196,0.0197 -2.02357,0.28913 -3.54494,0.97318 -2.35519,1.05895 -5.64273,1.96403 -8.04664,2.21529 -0.87887,0.0919 -1.59795,0.21433 -1.59795,0.27216 0,0.0578 0.23812,0.57191 0.52916,1.1424 0.69818,1.36854 0.66814,1.91802 -0.17452,3.19136 -0.85037,1.28499 -0.65152,1.60073 1.16791,1.85448 2.45391,0.34225 3.47582,0.27453 4.01652,-0.26616 z m 30.13403,-1.67083 c -0.77237,-2.10102 -0.81228,-2.42571 -1.06499,-8.6651 -0.32268,-7.9667 -0.083,-47.30181 0.30869,-50.66771 0.36134,-3.10483 0.6481,-3.91114 1.72822,-4.85951 1.26109,-1.10725 3.20321,-1.45795 7.93727,-1.43331 6.02392,0.0314 11.06216,0.86141 13.78957,2.27181 0.57806,0.29892 0.91318,0.33139 1.29986,0.12595 0.7989,-0.42447 1.9762,-1.58899 1.9762,-1.95476 0,-1.1554 -7.56763,-1.75918 -26.00288,-2.07462 l -8.40808,-0.14387 1.35318,2.00532 1.35318,2.00533 -0.17582,26.63508 c -0.0967,14.64929 -0.27253,28.52026 -0.39074,30.82438 -0.21112,4.11501 -0.23187,4.22162 -1.1698,6.01209 -0.52518,1.00254 -0.95488,1.88555 -0.95488,1.96226 0,0.0767 2.07528,0.13947 4.61173,0.13947 h 4.61173 z m 21.74807,1.50403 c 0.50251,-1.3217 -0.56164,-2.13203 -1.87606,-1.42858 -0.70412,0.37684 -0.64083,0.9091 0.18536,1.55899 0.9238,0.72666 1.37817,0.69161 1.6907,-0.13041 z m 14.82192,-0.1213 c 1.25738,-0.67293 4.35532,-6.36328 5.01715,-9.21558 0.69694,-3.00365 -0.23243,-7.42648 -1.88305,-8.96126 -0.43448,-0.40399 -1.15254,-1.40879 -1.59568,-2.23288 -0.44314,-0.82409 -1.10908,-1.77659 -1.47988,-2.11666 l -0.67417,-0.61833 0.17464,0.7276 c 0.096,0.40019 0.10243,0.72761 0.0142,0.72761 -0.0883,0 -0.93736,-0.43446 -1.88689,-0.96546 -0.94952,-0.531 -2.06812,-0.95574 -2.48579,-0.94387 -1.07052,0.0304 -1.23988,-0.45372 -0.40876,-1.16861 l 0.70919,-0.61003 -1.06274,-0.54217 c -0.58451,-0.29819 -1.56917,-1.09206 -2.18815,-1.76414 -1.40922,-1.53014 -4.44521,-4.01268 -6.04345,-4.94175 -0.74915,-0.4355 -1.60789,-0.70564 -2.24309,-0.70564 h -1.02923 l 0.98633,0.81301 c 0.54248,0.44716 0.98125,0.95318 0.97504,1.12448 -0.006,0.17131 -0.45268,0.81161 -0.99218,1.42288 -0.92115,1.0437 -1.17151,1.16009 -4.10926,1.9104 -1.72059,0.43945 -4.99481,1.58824 -7.27604,2.55289 -2.28123,0.96464 -5.13371,2.11777 -6.33884,2.56251 -1.20513,0.44473 -2.14554,0.93892 -2.0898,1.0982 0.0648,0.18506 0.79087,0.25766 2.01164,0.20111 1.77193,-0.0821 1.92112,-0.0471 2.05982,0.48332 0.17276,0.66063 1.05028,1.06037 2.32776,1.06037 1.18782,0 1.37342,-0.38859 0.38179,-0.79933 -0.44027,-0.18237 -0.92338,-0.56119 -1.07357,-0.84182 -0.22582,-0.42195 -0.11583,-0.65854 0.63564,-1.36727 1.69421,-1.59784 6.6778,-3.87075 8.48703,-3.87075 0.7,0 0.75682,0.0495 0.4216,0.36759 -0.21309,0.20218 -1.69712,0.91629 -3.29785,1.58691 -3.23916,1.35705 -4.93273,2.30153 -4.43431,2.47295 0.18051,0.0621 0.64099,-0.13317 1.02329,-0.43389 0.62245,-0.48962 1.31566,-0.53633 1.07858,-0.0727 -0.89808,1.75641 -1.05769,2.52858 -1.26325,6.11163 -0.20351,3.5473 -0.17288,4.61151 0.18213,6.32836 0.0703,0.33999 0.67253,1.2005 1.33828,1.91224 0.67109,0.71745 1.14858,1.4553 1.07161,1.6559 -0.17987,0.46872 1.84112,1.46395 3.4093,1.67889 1.51614,0.20781 1.53497,-0.24335 0.0418,-1.00119 -3.5257,-1.78938 -5.49011,-5.29654 -5.49011,-9.8018 0,-2.91884 0.38807,-4.24572 1.60998,-5.50481 1.90615,-1.96416 5.73502,-3.32269 8.4563,-3.00039 1.03686,0.12279 1.45244,0.0372 2.26917,-0.46761 0.54992,-0.33987 1.54152,-0.76403 2.20356,-0.94258 l 1.2037,-0.32465 -1.08507,-0.0179 c -0.67784,-0.0112 -1.55196,0.23039 -2.32911,0.6436 -1.51169,0.80377 -1.90437,0.82362 -2.28341,0.11538 -0.47013,-0.87844 0.0849,-1.22311 2.56309,-1.59181 1.81128,-0.26948 2.51434,-0.27146 3.49472,-0.01 1.48234,0.39552 3.66119,1.74464 3.86752,2.39473 0.0822,0.25905 0.94696,1.29173 1.92164,2.29483 1.57276,1.61862 1.78256,1.75684 1.86468,1.22851 0.0509,-0.32742 0.19686,-0.59531 0.32436,-0.59531 0.43126,0 3.70374,4.44191 4.41787,5.9966 0.57202,1.24534 0.72332,2.00466 0.78213,3.92527 l 0.0729,2.38125 -0.48621,-1.71979 c -0.58204,-2.05875 -0.76597,-1.75274 -0.87464,1.45521 -0.0762,2.24884 -0.15788,2.54366 -1.46922,5.30207 -1.48006,3.11329 -1.63167,3.80973 -0.97278,4.46861 0.48669,0.4867 0.75859,0.5139 1.44814,0.14486 z m 19.03816,-0.73529 c 0,-0.11686 -0.34841,-0.68623 -0.77424,-1.26526 -1.02456,-1.3932 -1.23934,-2.29174 -0.68121,-2.84987 0.23921,-0.2392 0.59042,-0.43491 0.78049,-0.43491 0.19007,0 0.49357,-0.17832 0.67444,-0.39625 0.26977,-0.32506 0.20187,-0.56275 -0.37794,-1.32292 -0.93071,-1.22022 -1.81735,-1.24357 -2.53486,-0.0668 -0.74654,1.22442 -0.6728,2.4193 0.2214,3.58739 0.41121,0.53717 1.07211,1.42316 1.46867,1.96886 0.67113,0.92355 1.22325,1.27548 1.22325,0.77973 z m -38.53292,-2.75142 c 0.39139,-0.6252 0.0733,-0.84089 -0.80731,-0.54749 -1.03026,0.34325 -1.18758,1.20117 -0.19873,1.08378 0.39827,-0.0473 0.85099,-0.28861 1.00604,-0.53629 z m 4.66625,0.42503 c 0,-0.0867 -0.25966,-0.52225 -0.57701,-0.96794 -0.35008,-0.49163 -0.62151,-1.34674 -0.69012,-2.17414 -0.16445,-1.98307 0.6704,-3.74415 2.63891,-5.56663 1.46551,-1.35682 1.65927,-1.45419 2.94278,-1.47902 1.37399,-0.0266 1.37399,-0.0266 0.35175,-0.26669 -2.79543,-0.65663 -6.07286,1.94153 -7.18911,5.6991 -0.55238,1.85945 -0.51212,3.25024 0.0997,3.44443 0.26802,0.0851 0.76503,0.45027 1.10445,0.81158 0.56281,0.59907 1.31865,0.88528 1.31865,0.49931 z m 9.16852,-0.24913 c 0.0858,-0.2237 -0.0554,-0.64042 -0.31389,-0.92605 -0.82541,-0.91206 -3.44177,-0.50553 -2.82022,0.43822 0.57851,0.87839 2.84865,1.23174 3.13411,0.48783 z m 3.77596,-1.6786 c 1.01655,-1.58417 1.60761,-3.25869 1.60761,-4.55455 v -1.01709 l -0.99219,0.67852 c -0.84741,0.57951 -1.18523,0.65662 -2.3151,0.52843 -1.5354,-0.17421 -1.72503,-0.0856 -2.47926,1.15835 -0.75612,1.24706 -0.71307,1.8085 0.16415,2.14084 0.85172,0.32268 1.91823,1.26164 1.91823,1.68882 0,0.46238 0.55509,0.90629 0.94579,0.75636 0.19368,-0.0743 0.71152,-0.69518 1.15077,-1.37968 z m -9.05158,0.11503 c 1.87997,-0.87528 4.56468,-3.58595 3.5516,-3.58595 -0.12563,0 -0.99588,0.56554 -1.9339,1.25677 -0.93801,0.69122 -2.3235,1.54501 -3.07887,1.89731 -0.75537,0.35229 -1.37339,0.73925 -1.37339,0.85989 0,0.42783 1.47457,0.20517 2.83456,-0.42802 z m 25.75992,-2.39533 0.81256,-1.71979 h 1.42045 c 1.55479,0 1.8502,-0.22404 1.60158,-1.21466 -0.19945,-0.79466 -1.19052,-1.29481 -2.10894,-1.0643 -0.52734,0.13235 -0.9015,0.64652 -1.70915,2.34868 -1.12587,2.37284 -1.44221,3.36986 -1.06921,3.36986 0.13208,0 0.6058,-0.7739 1.05271,-1.71979 z m -27.19194,0.65849 c 1.76981,-0.54664 3.35996,-1.72243 3.35996,-2.48443 0,-0.35465 -0.36561,-0.42302 -2.2621,-0.42302 -3.16595,0 -4.0879,0.53198 -4.0879,2.35879 0,1.27617 0.39812,1.34922 2.99004,0.54866 z m -6.42963,-0.90524 c 0,-0.67584 -0.13539,-0.95119 -0.52916,-1.07617 -0.98367,-0.3122 -0.38984,-1.39688 1.05795,-1.93245 0.6502,-0.24052 0.6502,-0.24052 -0.16947,-0.66439 -1.29728,-0.67085 -3.16608,-2.95056 -4.34292,-5.29785 -0.89842,-1.79195 -1.06809,-2.37339 -0.99694,-3.41641 0.0966,-1.41581 -0.22114,-1.61117 -1.13465,-0.69766 -0.52659,0.52659 -0.55158,0.76015 -0.43183,4.03489 0.14556,3.98046 0.52997,5.35591 1.96565,7.03317 1.07901,1.26058 3.42053,2.92508 4.11482,2.92508 0.35507,0 0.46655,-0.21702 0.46655,-0.90821 z m -45.34251,-1.47806 c 3.83274,-1.59354 6.27816,-2.37623 7.4243,-2.37623 0.34384,0 0.78025,-0.27545 1.02272,-0.64551 0.38702,-0.59067 0.38718,-0.72092 0.002,-1.53298 -1.21121,-2.55245 -4.5368,-2.30913 -8.42255,0.61623 -1.63971,1.23445 -4.72877,4.39947 -5.3133,5.44398 -0.38191,0.68243 0.90838,0.31502 5.28701,-1.50549 z m 18.83191,-0.0666 c 0.0676,-1.03182 -0.0143,-1.28226 -0.52916,-1.61713 -0.83937,-0.54595 -2.74009,-0.11793 -4.36648,0.98328 -1.96247,1.32876 -1.81979,1.5125 1.0292,1.32536 2.11444,-0.1389 2.52448,-0.0986 2.83796,0.27916 0.57787,0.69628 0.94173,0.35287 1.02848,-0.97067 z m 58.4993,0.0322 c 0.37572,-1.07777 0.36605,-1.28344 -0.0603,-1.28344 -0.55537,0 -1.58686,1.24755 -1.41081,1.70633 0.28024,0.7303 1.15695,0.47828 1.4711,-0.42289 z m -3.94286,-0.0835 c 0,-0.42491 -0.78465,-0.93535 -1.43782,-0.93535 -0.96538,0 -0.004,1.29671 0.9748,1.3145 0.25466,0.005 0.46302,-0.16599 0.46302,-0.37915 z m -60.77063,-1.49685 c 0.71613,-0.36792 2.03313,-1.57876 2.03313,-1.86926 0,-0.52462 -0.84249,-0.12311 -2.02493,0.96504 -1.22891,1.13093 -1.23256,1.53325 -0.008,0.90422 z m -16.74466,-0.77573 c 0.22178,-0.41441 0.15765,-1.23954 -0.27012,-3.47544 -0.63549,-3.32157 -0.96194,-8.36892 -0.68477,-10.58733 0.10864,-0.86952 0.39976,-1.73635 0.69901,-2.0814 0.39212,-0.45211 0.51284,-0.989 0.51284,-2.28085 0,-1.60179 -0.0541,-1.74744 -1.04213,-2.80379 -0.78219,-0.83631 -1.11809,-1.03902 -1.34666,-0.81268 -0.16749,0.16586 -0.63981,1.89226 -1.04958,3.83646 -0.40978,1.9442 -1.00881,4.12042 -1.33119,4.83604 -0.55412,1.23009 -0.56872,1.42514 -0.2674,3.57188 0.1753,1.2489 0.39806,3.0995 0.49503,4.11244 0.17546,1.83297 0.18054,1.84258 1.0704,2.0241 1.0521,0.21462 1.23043,0.45529 1.64302,2.21731 0.46481,1.98506 1.01243,2.48798 1.57155,1.44326 z m -3.26902,-11.53743 c -0.098,-0.098 -0.17819,-0.63833 -0.17819,-1.20072 0,-0.70481 0.13521,-1.07443 0.43513,-1.18952 0.52906,-0.20302 1.20525,0.62476 1.09621,1.34197 -0.0849,0.55834 -1.0756,1.32583 -1.35315,1.04827 z m 69.97024,11.48487 c 1.69738,-0.72212 1.73977,-1.4611 0.059,-1.02885 -0.5604,0.14412 -2.68577,0.39454 -4.72306,0.5565 -4.58951,0.36485 -5.68855,0.53356 -5.68855,0.8732 0,0.44682 9.19713,0.0907 10.3526,-0.40085 z m 13.98907,0.33139 c 0,-0.33699 -1.06604,-0.33699 -1.5875,0 -0.29521,0.19078 -0.14271,0.25752 0.59531,0.26053 0.5457,0.002 0.99219,-0.11501 0.99219,-0.26053 z m -1.66675,-1.21268 c 0.0767,-0.23398 -1.50518,-0.90398 -2.13426,-0.90398 -0.22959,0 -0.21263,0.92524 0.0213,1.15912 0.28286,0.28285 2.00484,0.0749 2.11302,-0.25514 z m -27.17284,-0.0501 c 0,-0.11242 -0.43227,-0.43721 -0.96061,-0.72173 -1.75681,-0.94611 -4.06647,-4.22891 -4.06647,-5.77983 0,-0.35066 -0.17859,-0.78578 -0.39687,-0.96694 -1.08852,-0.90338 0.0813,3.08851 1.46476,4.99829 0.90533,1.24977 2.75377,2.67463 3.46973,2.67463 0.2692,0 0.48946,-0.092 0.48946,-0.20442 z m -35.48157,-0.99541 c 0.69582,-0.79249 0.82054,-1.14587 0.81711,-2.31511 -0.005,-1.53237 -0.12912,-1.82329 -0.97075,-2.26629 -1.32807,-0.69904 -6.57371,-0.008 -7.81826,1.03015 -0.59838,0.49908 -0.59526,0.50016 1.46401,0.50894 1.31136,0.006 2.3466,0.15512 2.83979,0.41016 0.86204,0.44578 1.57884,1.61898 1.57884,2.58412 0,1.31414 0.95826,1.33617 2.08926,0.048 z m 64.89541,0.3893 c -1.42893,-0.63439 -3.71992,-2.94924 -4.39042,-4.43615 -0.47979,-1.06396 -0.48305,-1.17068 -0.0628,-2.05195 0.32166,-0.67453 0.82392,-1.11231 1.8304,-1.59542 l 1.38711,-0.6658 -1.64373,0.0997 c -1.9901,0.12075 -2.50504,0.51401 -3.55272,2.71323 -0.92443,1.94052 -0.9589,2.36356 -0.17589,2.1588 0.4525,-0.11833 0.84698,0.1317 1.78594,1.13199 1.69744,1.80831 4.0055,3.14597 5.43848,3.15193 0.31248,0.001 0.0601,-0.20606 -0.61637,-0.50637 z m -15.62262,-0.38448 c 0.63676,-0.2207 1.30959,-0.45625 1.49517,-0.52343 0.24649,-0.0892 0.12943,-0.5342 -0.43432,-1.65099 -1.75246,-3.47161 -5.17626,-7.09753 -8.06489,-8.54099 -2.03122,-1.01501 -2.54612,-0.99536 -3.57608,0.13649 -0.84268,0.92604 -0.84268,0.92604 -3.71837,0.92604 -2.37818,0 -2.90348,0.0724 -3.03629,0.41852 -0.0883,0.23018 -0.1606,1.37699 -0.1606,2.54845 0,2.53243 0.42283,3.39756 2.43976,4.99185 1.50057,1.18613 1.91847,1.23863 4.04253,0.50785 2.63791,-0.90757 5.0175,-0.63657 6.89695,0.78547 1.19815,0.90655 2.33697,1.01742 4.11614,0.40074 z m 21.66196,-0.45861 c -0.002,-0.90236 -0.96726,-2.3151 -1.58262,-2.3151 -0.5253,0 -0.64686,0.32301 -0.5476,1.45521 0.10597,1.20881 2.13216,2.02671 2.13022,0.85989 z m -86.34977,-2.08393 c -0.3013,-0.69067 -0.39429,-0.76687 -0.41099,-0.3368 -0.0119,0.30571 0.12511,0.96055 0.30439,1.45521 0.26917,0.74264 0.34079,0.80133 0.41099,0.33679 0.0468,-0.30942 -0.0902,-0.96426 -0.30439,-1.4552 z m 21.18659,1.09175 c 0.1834,-0.36381 0.33521,-1.34607 0.33735,-2.18282 l 0.004,-1.52135 h -1.19062 c -1.99471,0 -2.78943,1.36237 -1.85209,3.17499 0.74578,1.44218 2.1068,1.70878 2.70146,0.52918 z m -18.84356,-1.87047 c -0.0989,-0.71928 -0.41437,-1.57494 -0.70098,-1.90147 -0.52111,-0.59369 -0.52111,-0.59369 -0.40602,1.14574 0.0633,0.95668 0.26391,2.01752 0.44582,2.35741 0.29953,0.55968 0.3548,0.57497 0.58589,0.16205 0.1411,-0.25214 0.17475,-1.04052 0.0753,-1.76373 z m 65.75148,1.76748 c 0,-0.20215 -0.23877,-0.64864 -0.53061,-0.99218 l -0.53061,-0.62463 0.27397,0.76573 c 0.4416,1.23422 0.78725,1.6079 0.78725,0.85108 z m 13.22055,-0.0189 c 0.17643,-0.21257 0.38761,-0.88485 0.46931,-1.49394 0.14854,-1.10744 0.14854,-1.10744 -0.6191,-0.9168 -2.08169,0.51696 -2.67002,1.29173 -1.70994,2.25181 0.63866,0.63865 1.4071,0.70433 1.85973,0.15893 z m 1.97425,-1.06187 c 0.31579,-1.68329 -0.65386,-3.93501 -2.00618,-4.65875 -0.47578,-0.25463 -0.5002,-0.22973 -0.24406,0.24886 0.47566,0.88879 0.3408,1.06464 -1.14844,1.49757 -1.56887,0.45609 -2.50225,1.18569 -1.51685,1.18569 0.30497,0 1.08082,-0.25571 1.72412,-0.56825 1.17051,-0.56868 1.93751,-0.53309 2.13864,0.0992 0.0589,0.1852 0.18404,1.02294 0.27807,1.86165 0.18587,1.658 0.50084,1.79379 0.7747,0.334 z m -77.37188,-1.78889 c 0.92604,-0.58945 0.92604,-0.58945 0.20388,-0.67752 -0.81031,-0.0988 -2.09277,0.43432 -2.25691,0.93823 -0.17552,0.53883 1.03929,0.38457 2.05303,-0.26071 z m 4.88618,-1.83403 c 0.73105,-0.33309 0.84591,-0.73244 0.35257,-1.22578 -0.81354,-0.81355 -3.12208,0.16472 -3.12208,1.32302 0,0.48548 0.11253,0.52578 1.04972,0.37592 0.57735,-0.0923 1.35126,-0.30525 1.71979,-0.47316 z m -6.36875,-0.4564 c 1.01911,-1.06372 0.87542,-1.98237 -0.32812,-2.09768 -1.49918,-0.14363 -2.31833,1.0455 -1.61959,2.35111 0.38881,0.72648 1.09721,0.63431 1.94771,-0.25343 z m 12.85965,0.36832 c 0,-0.22048 -0.23518,-0.39687 -0.52917,-0.39687 -0.52711,0 -0.68821,0.28192 -0.35277,0.61736 0.32224,0.32224 0.88194,0.18232 0.88194,-0.22049 z m 4.7625,-1.43418 c 0,-0.88945 0.0675,-0.86614 -4.23333,-1.46109 -5.17373,-0.71569 -7.78015,-1.80474 -10.3849,-4.33914 -1.12845,-1.09798 -1.52135,-1.35324 -1.52135,-0.9884 0,0.74266 3.62131,4.14081 5.42396,5.08971 1.87118,0.98498 3.011,1.31437 6.74687,1.94974 3.95592,0.67279 3.96875,0.67198 3.96875,-0.25082 z m 48.68333,-0.18571 c 0,-0.20047 -0.17859,-0.36448 -0.39687,-0.36448 -0.25189,0 -0.39688,0.25348 -0.39688,0.69385 0,0.58676 0.0613,0.64302 0.39688,0.36448 0.21828,-0.18116 0.39687,-0.49339 0.39687,-0.69385 z m 13.75834,0.56156 c 0,-0.42745 -1.1862,-0.56756 -1.4324,-0.1692 -0.20911,0.33835 0.11877,0.56608 0.81504,0.56608 0.37237,0 0.61736,-0.1575 0.61736,-0.39688 z m -12.22262,-1.11435 c 0.0443,-0.29906 0.51412,-1.05033 1.04409,-1.66948 0.81461,-0.95169 0.97801,-1.3553 1.05685,-2.61054 0.0798,-1.27054 -0.022,-1.68186 -0.70537,-2.85049 -0.63513,-1.0861 -1.09705,-1.51169 -2.25634,-2.07888 l -1.45771,-0.71319 -1.13067,0.66262 c -0.62187,0.36444 -1.63312,1.21471 -2.24723,1.8895 l -1.11657,1.22689 -1.05501,-0.53823 c -1.10589,-0.56419 -1.86984,-0.69274 -1.86984,-0.31465 0,0.72095 3.04649,2.26267 5.31102,2.68771 1.44702,0.27161 2.09731,0.77294 2.09731,1.6169 0,0.25206 0.27955,0.79486 0.62122,1.2062 0.34167,0.41135 0.70325,1.08379 0.80351,1.49431 0.20405,0.83549 0.78057,0.82997 0.90474,-0.009 z m -70.43658,-1.00199 c 1.5045,-1.14754 2.15077,-1.27451 3.40262,-0.6685 2.41545,1.1693 2.79514,0.41745 0.98309,-1.94673 -0.7273,-0.94891 -1.39088,-1.93938 -1.47462,-2.20103 -0.15979,-0.49925 -1.89304,-1.70036 -3.13262,-2.17085 -0.8687,-0.32971 -0.86602,-0.34798 -0.41095,2.79943 0.27994,1.93614 0.2646,2.29928 -0.13229,3.13156 -0.4615,0.96779 -0.58174,1.71725 -0.27548,1.71725 0.0954,0 0.56351,-0.29751 1.04025,-0.66113 z m 80.52294,0.0233 c 0.17038,-0.20529 0.37723,-0.7889 0.45967,-1.2969 0.128,-0.78877 0.0492,-0.98963 -0.53993,-1.37561 -0.3794,-0.2486 -0.84325,-0.39311 -1.03079,-0.32114 -0.28112,0.10787 -1.25061,2.58216 -1.25061,3.19174 0,0.34174 2.05682,0.16923 2.36166,-0.19809 z m -3.44546,-0.9892 c 0.43903,-0.77847 0.26103,-1.70629 -0.51715,-2.69558 -0.7398,-0.9405 -1.92477,-0.95818 -2.52788,-0.0377 -0.63258,0.96543 -0.0399,2.46677 1.22498,3.10313 1.09135,0.54906 1.32907,0.50076 1.82005,-0.36984 z m -60.11585,-0.36568 c -0.82256,-0.72366 -1.26908,-0.79883 -2.10084,-0.35369 -0.54177,0.28995 -0.54381,0.31086 -0.0643,0.66146 0.27232,0.19913 1.03792,0.35828 1.70133,0.35368 l 1.2062,-0.008 z m 3.19295,0.33909 c 0.14654,-0.1819 0.34917,-0.71769 0.4503,-1.19063 0.14278,-0.66778 0.0958,-0.85989 -0.21051,-0.85989 -0.47084,0 -1.76434,1.46969 -1.76434,2.00467 0,0.46867 1.15593,0.50343 1.52455,0.0458 z m 45.90201,-0.25627 c 0.95797,-0.0239 0.91783,-0.15427 -0.18994,-0.61713 -1.6389,-0.68478 -2.79015,-0.40538 -2.41014,0.58492 0.12057,0.3142 0.365,0.37005 1.01563,0.23206 0.47127,-0.0999 1.18427,-0.18988 1.58445,-0.19985 z m -33.00677,-0.57376 1.85209,-0.60491 -1.81381,-0.57238 c -0.9976,-0.3148 -2.15846,-0.57237 -2.57969,-0.57237 -0.66982,0 -0.76588,0.0968 -0.76588,0.77211 0,1.80776 0.4018,1.92653 3.30729,0.97755 z M 186.2781,303.9816 c 0.4668,-0.92472 0.88367,-2.23661 0.96687,-3.04271 0.13182,-1.27728 0.0955,-1.41709 -0.36813,-1.41709 -0.28291,0 -1.10324,0.37539 -1.82295,0.8342 -1.86983,1.19199 -3.21749,1.73203 -4.8655,1.94971 l -1.44025,0.19025 1.22642,1.15875 c 1.09291,1.03262 1.3649,1.15978 2.49858,1.16814 0.6997,0.005 1.56983,0.17953 1.93364,0.38749 0.3638,0.20797 0.74904,0.38235 0.85608,0.3875 0.10705,0.005 0.5639,-0.72215 1.01524,-1.61624 z m 3.38832,-0.55719 c -0.26393,-0.76399 -0.49597,-1.62719 -0.51565,-1.91823 -0.0197,-0.29104 -0.24756,0.12567 -0.5064,0.92604 -0.47062,1.45521 -0.47062,1.45521 0.17506,1.54043 0.35513,0.0469 0.71092,0.25524 0.79065,0.46303 0.0797,0.20778 0.233,0.37779 0.34059,0.37779 0.10759,0 -0.0203,-0.62508 -0.28425,-1.38906 z m 22.4006,-0.48997 c 2.50056,-0.93558 7.26475,-4.14899 7.26475,-4.90002 0,-0.84726 -2.70348,0.11109 -3.07979,1.09174 -0.27605,0.71937 -3.92687,2.93104 -5.86926,3.5556 -2.32033,0.74609 -3.58948,0.63587 -5.85666,-0.5086 -1.70735,-0.86186 -1.98569,-0.9472 -1.72764,-0.52966 0.27099,0.43846 2.74278,1.60129 3.92729,1.84756 1.4429,0.29999 3.67294,0.0676 5.34131,-0.55662 z m 20.97194,0.35031 c -0.48317,-0.65738 -5.84362,-5.70727 -6.9712,-6.56731 -2.8645,-2.18487 1.05349,1.71447 6.36089,6.33061 0.9411,0.81852 1.07657,0.87106 0.61031,0.2367 z m 22.25992,0.0931 c 0.47645,-0.57409 0.25118,-2.64135 -0.2992,-2.7457 -0.55741,-0.10568 -1.27207,1.19554 -1.27207,2.31614 0,0.67321 0.10421,0.80689 0.62906,0.80689 0.34598,0 0.76998,-0.1698 0.94221,-0.37733 z m -62.97463,-0.52458 c 0.47167,-0.56833 0.87574,-6.52737 0.67442,-9.94601 -0.17395,-2.954 -0.20858,-3.08695 -1.18776,-4.56011 -0.91805,-1.38119 -1.5833,-3.36663 -1.5833,-4.72536 0,-0.7023 -1.18149,-1.8647 -1.69503,-1.66763 -0.73046,0.2803 -0.7311,1.13957 -0.003,3.61268 0.66819,2.26874 0.71681,2.75938 0.6723,6.7837 -0.0364,3.29166 0.0538,4.69573 0.37401,5.82083 1.37002,4.81371 1.46312,5.05464 1.95316,5.05464 0.26707,0 0.62478,-0.16773 0.79492,-0.37274 z m 59.38859,-0.70896 c 0.85115,-0.66951 1.57797,-2.00011 1.37767,-2.5221 -0.12237,-0.3189 -0.31422,-0.29532 -1.17648,0.14457 -1.24284,0.63405 -2.4543,2.003 -2.24811,2.54035 0.21506,0.56042 1.23012,0.47968 2.04692,-0.16282 z m -41.03782,-1.05488 c 2.01781,-0.67341 4.95259,-2.34534 4.95259,-2.82149 0,-0.45976 -0.19084,-0.51562 -3.33103,-0.97488 -1.46826,-0.21474 -3.19467,-0.58562 -3.83646,-0.82418 -1.9386,-0.7206 -2.04468,-0.68095 -2.74324,1.02545 -0.34773,0.8494 -0.81991,1.75174 -1.0493,2.00521 -0.61305,0.67741 -0.51691,1.02753 0.44284,1.6127 1.14726,0.6995 3.42824,0.69015 5.5646,-0.0228 z m 36.96717,0.1583 c 0,-0.50872 -1.27836,-1.35174 -1.57344,-1.03761 -0.12285,0.13077 -0.12057,0.50565 0.005,0.83308 0.26486,0.69029 1.56838,0.86029 1.56838,0.20453 z m -64.74099,-1.0882 c 1.14641,-0.39062 3.09307,-2.12459 3.09307,-2.75512 0,-0.41809 -0.31513,-0.30958 -1.5699,0.54061 -1.20609,0.81721 -1.73739,0.88811 -1.73739,0.23186 0,-0.48354 -1.1055,-0.64256 -1.60206,-0.23045 -0.57228,0.47495 -0.46274,0.78166 0.27915,0.78166 1.04759,0 0.73863,0.89607 -0.4082,1.18391 -0.97011,0.24348 -4.16304,-0.3234 -5.54493,-0.98445 -1.5344,-0.73401 -6.23163,-5.29754 -7.33233,-7.12361 -1.28653,-2.13438 -1.75833,-4.34316 -1.58918,-7.43998 0.12353,-2.26172 0.262,-2.84397 1.09191,-4.59153 1.29378,-2.72434 1.24772,-3.33412 -0.16775,-2.22072 -0.90879,0.71486 -1.73117,2.75253 -2.09316,5.1864 -0.36618,2.46205 0.009,6.19338 0.84762,8.43546 1.46744,3.92208 6.26994,8.32412 10.16893,9.321 1.6079,0.4111 4.86184,0.24502 6.56422,-0.33504 z m 54.71925,-0.93388 c 0.92805,-0.745 1.95526,-1.47848 2.28268,-1.62998 0.67791,-0.31365 0.80324,-0.98425 0.18394,-0.98425 -0.22625,0 -1.1786,0.46275 -2.11633,1.02832 -1.11125,0.67022 -2.32699,1.14662 -3.49123,1.36805 l -1.78628,0.33975 1.32292,0.60008 c 0.7276,0.33004 1.45657,0.60739 1.61992,0.61632 0.16335,0.009 1.05632,-0.5933 1.98438,-1.33829 z m 12.86601,-0.83867 c 0.85068,-0.77861 0.73897,-1.15553 -0.39687,-1.33916 -0.54571,-0.0882 -1.43236,-0.46063 -1.97034,-0.82757 -1.4283,-0.97419 -1.66649,-0.89398 -1.55453,0.52347 0.0727,0.92017 0.59412,1.67571 1.44468,2.09326 0.93627,0.45965 1.61866,0.33568 2.47706,-0.45 z m -46.9124,-0.24703 c 0.51797,-0.73949 0.52527,-1.54345 0.02,-2.20566 -0.33916,-0.44454 -0.42755,-0.46023 -0.6574,-0.11672 -0.33712,0.50381 -0.35703,2.91042 -0.0241,2.91042 0.13727,0 0.43493,-0.26462 0.66146,-0.58804 z m -23.86668,-0.26882 c 0.53848,-0.53847 0.54934,-0.60054 0.11958,-0.6833 -0.55785,-0.10744 -1.24102,0.39411 -1.24102,0.9111 0,0.53596 0.44887,0.44478 1.12144,-0.2278 z m 65.55356,-0.16908 c 0,-0.41874 -0.19486,-0.92307 -0.43302,-1.12073 -0.23817,-0.19766 -0.65065,-0.86708 -0.91664,-1.4876 -0.26599,-0.62053 -0.65969,-1.12823 -0.87489,-1.12823 -0.88241,0 -1.5094,1.83544 -1.04257,3.05199 0.18417,0.47994 2.03497,1.43047 2.8041,1.44012 0.33505,0.004 0.46302,-0.20462 0.46302,-0.75555 z m -9.59733,-0.56804 c 2.09294,-0.72043 3.35603,-1.56778 3.46507,-2.32455 0.12602,-0.8747 -0.95991,-3.91706 -1.72098,-4.82155 -1.07655,-1.2794 -1.92944,-1.09129 -4.01259,0.88502 -2.17264,2.06122 -3.54178,3.11694 -5.00136,3.85648 -0.61846,0.31336 -1.12448,0.75161 -1.12448,0.97388 0,0.56102 1.24274,1.65732 2.22512,1.96292 1.21506,0.37798 4.29753,0.11207 6.16922,-0.5322 z m -59.52676,-0.79085 c 0.49993,-0.58406 1.43409,-1.42322 2.0759,-1.8648 2.28249,-1.57039 0.86088,-2.12364 -2.40797,-0.93711 -2.83155,1.0278 -3.43169,1.95766 -2.07499,3.215 0.95835,0.88817 1.35089,0.8208 2.40706,-0.41309 z m 2.33886,0.14689 c 0.71483,-0.63119 0.89894,-0.91845 0.59355,-0.92604 -0.48483,-0.0121 -2.07082,1.21334 -2.07082,1.6 0,0.44515 0.43422,0.24705 1.47727,-0.67396 z m 9.3369,0.47404 c -0.54688,-0.66414 -2.37798,-1.94027 -2.78407,-1.94027 -0.68868,0 -0.34411,0.42466 1.13489,1.39865 1.59118,1.04788 2.24208,1.26165 1.64918,0.54162 z m -3.40583,-0.48506 c 0,-0.26458 -0.26459,-0.39687 -0.79375,-0.39687 -0.7586,0 -0.99667,0.23806 -0.61737,0.61736 0.34635,0.34635 1.41112,0.17998 1.41112,-0.22049 z m 71.15332,-0.77014 c 0.17038,-0.20529 0.36924,-0.77084 0.44192,-1.25677 0.16411,-1.09729 -0.6902,-2.6033 -1.47677,-2.6033 -0.46897,0 -0.53306,0.1729 -0.53306,1.43799 0,2.35368 0.71193,3.45346 1.56791,2.42208 z m -74.19786,-2.54264 c -0.23953,-0.72116 -0.52957,-1.36934 -0.64454,-1.44039 -0.252,-0.15574 0.12742,2.00602 0.57885,3.29796 0.32357,0.92605 0.32357,0.92605 0.41238,0.18984 0.0488,-0.40492 -0.10716,-1.32625 -0.34669,-2.04741 z m 39.95282,1.82618 c 2.812,-0.59391 7.01605,-2.56084 8.99692,-4.20934 2.71473,-2.25922 4.64842,-5.20956 5.14626,-7.85194 0.4633,-2.459 0.6189,-6.73898 0.30567,-8.40722 -0.41192,-2.19383 -2.17381,-5.61596 -3.81291,-7.40583 l -1.37443,-1.50086 -1.52112,1.54771 -1.52112,1.5477 1.04003,1.38415 c 4.98163,6.62992 2.20974,17.67457 -5.67071,22.5951 -0.58208,0.36345 -2.07037,1.11115 -3.30729,1.66154 -1.23693,0.55039 -2.35775,1.10066 -2.49071,1.22282 -0.29402,0.27013 1.04654,0.0842 4.20941,-0.58383 z m 30.51987,-0.43163 c 1.3693,-1.15865 0.80927,-2.71198 -0.97777,-2.71198 -1.44966,0 -2.15664,0.60484 -2.15664,1.84504 0,0.56947 0.14632,1.08033 0.33073,1.15474 0.75972,0.30655 2.28649,0.14983 2.80368,-0.2878 z m -40.19,-0.0736 c 1.08375,-0.14065 2.07755,-0.36282 2.20845,-0.49372 0.14094,-0.14094 -0.35462,-0.67579 -1.2152,-1.31154 -0.84612,-0.62506 -2.24622,-2.12862 -3.35149,-3.59915 -1.04407,-1.38909 -1.99627,-2.52562 -2.11601,-2.52562 -0.39803,0 -0.53891,0.81463 -0.53891,3.11627 0,2.04767 -0.0729,2.38442 -0.71739,3.31444 -0.69588,1.00415 -0.7023,1.04625 -0.21402,1.40329 0.59094,0.4321 3.04894,0.47181 5.94457,0.096 z m -23.56711,-3.117 c -0.0291,-2.02319 -0.0586,-2.15643 -0.24497,-1.10887 -0.3097,1.74056 -0.30204,3.7669 0.0135,3.57188 0.14791,-0.0914 0.24998,-1.1775 0.23146,-2.46301 z m -2.1417,-1.35223 c 0.0408,-1.95286 -0.0269,-3.65165 -0.15031,-3.77511 -0.12345,-0.12345 -0.93072,-0.0645 -1.79393,0.13109 -1.97748,0.44796 -2.29928,0.95464 -2.14994,3.38513 0.16946,2.75816 1.20061,3.99215 3.22629,3.86095 l 0.79375,-0.0514 z m 31.54357,2.90709 c 0,-0.13568 -1.07156,-1.23491 -2.38125,-2.44273 -1.30969,-1.20783 -2.38125,-2.26595 -2.38125,-2.3514 0,-0.0854 0.38686,-0.32566 0.85969,-0.53383 0.47283,-0.20816 0.89828,-0.58683 0.94544,-0.84149 0.0685,-0.36971 -0.10243,-0.46303 -0.84797,-0.46303 -0.799,0 -1.17822,-0.24813 -2.62831,-1.71979 -1.93223,-1.96095 -2.56218,-2.16885 -2.56218,-0.84555 0,1.30806 1.29163,3.12304 4.60293,6.46795 2.32394,2.34753 3.09947,2.97656 3.66978,2.97656 0.39772,0 0.72312,-0.11101 0.72312,-0.24669 z m -44.6867,-1.29672 c 1.17484,-1.39937 4.20545,-6.90799 4.20545,-7.64409 0,-0.48991 -0.14497,-0.60208 -0.77813,-0.60208 -0.81379,0 -1.27518,-0.37357 -0.81368,-0.65879 0.14789,-0.0914 0.2689,-0.45682 0.2689,-0.81204 0,-0.69695 -0.54655,-0.86564 -1.00702,-0.3108 -0.56654,0.68264 -3.78361,7.25285 -4.20539,8.58866 -0.41468,1.31331 -0.41228,1.41006 0.0476,1.91823 0.71263,0.78744 1.32727,0.65842 2.28226,-0.47909 z m 73.9922,0.547 c 0.13017,-0.39578 -1.4159,-1.91401 -1.94911,-1.91401 -0.2615,0 -0.36889,0.35103 -0.36889,1.20584 v 1.20584 l 1.10392,-0.0814 c 0.60715,-0.0448 1.15349,-0.23209 1.21408,-0.41631 z m -4.85044,-0.74228 c 0.27345,-0.27345 0.41577,-0.89612 0.41577,-1.81901 0,-3.08033 -0.55509,-3.75254 -1.94829,-2.35935 -0.516,0.516 -0.69754,0.96701 -0.69754,1.73294 0,1.2265 0.59948,2.50764 1.25318,2.67812 0.25663,0.0669 0.48787,0.1355 0.51386,0.15238 0.026,0.0169 0.23435,-0.1564 0.46302,-0.38508 z m -21.16968,-0.17954 c 0.0516,-0.1819 0.23823,-0.86651 0.41478,-1.52135 0.43813,-1.62499 2.34177,-3.45189 4.3989,-4.22156 2.5886,-0.96852 2.8599,-1.60239 0.68272,-1.59514 -2.04384,0.007 -4.10786,0.62324 -5.30321,1.58385 l -1.09732,0.88183 v 2.42516 c 0,1.33384 0.0794,2.50454 0.17639,2.60155 0.27936,0.27936 0.62559,0.20593 0.72774,-0.15434 z m 37.45115,-0.18104 c 0.38862,-0.72615 0.33914,-1.34031 -0.10799,-1.34031 -0.42219,0 -1.20562,0.98387 -1.20562,1.51408 0,0.52921 1.0088,0.39575 1.31361,-0.17377 z m -81.36252,-0.58903 c 0.76828,-0.35005 0.87618,-1.04779 0.24326,-1.57306 -0.37463,-0.31092 -0.5295,-0.239 -1.19063,0.55292 -0.41798,0.50068 -0.75997,1.00412 -0.75997,1.11876 0,0.30733 0.93489,0.25333 1.70734,-0.0986 z m 46.9353,-0.91013 c 0.6121,-0.52393 1.29143,-1.29783 1.50963,-1.71979 0.37169,-0.71877 0.36445,-0.7672 -0.11471,-0.7672 -0.56287,0 -2.94173,2.48366 -2.94173,3.07133 0,0.5747 0.34501,0.44436 1.54681,-0.58434 z m 30.25365,0.22499 c 1.42103,-1.52358 1.6421,-2.79247 0.67714,-3.88671 -0.32742,-0.37129 -0.88774,-0.70535 -1.24515,-0.74236 -0.5653,-0.0585 -0.6761,0.0704 -0.8516,0.99105 -0.27068,1.41987 0.0157,4.36563 0.42443,4.36563 0.1741,0 0.62193,-0.32742 0.99518,-0.72761 z m -3.97942,-0.0874 c 0.2938,-0.15723 0.70855,-0.70322 0.92168,-1.21331 0.76177,-1.82317 -0.5727,-3.79248 -2.5699,-3.79248 -1.20079,0 -2.30982,0.8648 -2.37513,1.85209 -0.17272,2.6107 0.377,3.43958 2.28116,3.43958 0.66441,0 1.4484,-0.12864 1.74219,-0.28588 z m -31.26062,-0.36058 c 0,-0.21002 -0.26462,-0.56721 -0.58804,-0.79375 -1.08073,-0.75697 -1.37067,-0.38093 -0.45999,0.59657 0.62165,0.66726 1.04803,0.74748 1.04803,0.19718 z m -47.66504,-3.85146 c 0.88094,-1.67349 1.79122,-3.51895 2.02286,-4.10104 0.42116,-1.05833 0.42116,-1.05833 -0.1084,-0.39687 -0.51375,0.64171 -3.48768,6.47385 -3.84513,7.54062 -0.36177,1.0797 0.35653,-0.0523 1.93067,-3.04271 z m 33.51582,2.80611 c 0.68385,-1.04367 0.8013,-2.47101 0.25318,-3.07667 -0.6039,-0.6673 -1.61549,-0.67316 -1.96965,-0.0114 -0.30248,0.56518 -0.37676,3.26592 -0.0975,3.54517 0.39996,0.39996 1.421,0.14268 1.81398,-0.45708 z m -35.82107,-2.02593 c 0.38358,-0.79293 0.96299,-2.24677 1.28757,-3.23077 0.50309,-1.52517 0.54237,-1.90442 0.2663,-2.57091 -0.6014,-1.45192 -0.93747,-1.46782 -1.71388,-0.0811 -0.87023,1.55429 -1.46345,3.74365 -1.46345,5.40107 0,2.51311 0.56032,2.67937 1.62346,0.48169 z m 75.37029,1.1821 c 0,-0.46723 -0.56959,-0.38586 -0.73312,0.10473 -0.0576,0.17281 0.0838,0.31419 0.31419,0.31419 0.23041,0 0.41893,-0.18851 0.41893,-0.41892 z m -56.62084,-0.72113 c 0,-0.33599 -0.17164,-0.84201 -0.38144,-1.12448 -0.3404,-0.45833 -0.35117,-0.39261 -0.10011,0.61089 0.31351,1.25308 0.48155,1.4323 0.48155,0.51359 z m 70.37751,-0.31247 c 0.72393,-1.17133 0.61805,-1.68575 -0.50232,-2.44077 -1.20062,-0.8091 -1.97186,-0.81321 -1.74473,-0.009 0.372,1.31668 1.26466,3.37344 1.46411,3.37344 0.11675,0 0.46907,-0.41551 0.78294,-0.92335 z m -78.43669,0.37702 c 0.29049,-0.47001 -0.13302,-2.0995 -0.54566,-2.0995 -0.20834,0 -0.57582,0.30071 -0.81664,0.66824 -0.41001,0.62576 -0.40779,0.70145 0.0349,1.19063 0.52177,0.57654 1.05954,0.67403 1.3274,0.24063 z m 38.69472,-0.68221 c -0.059,-0.54228 0.10213,-0.7997 0.71759,-1.14601 0.94323,-0.53074 1.15057,-1.9151 0.31104,-2.07678 -1.08268,-0.20851 -2.05075,1.69429 -1.65804,3.25897 0.22135,0.8819 0.72623,0.85288 0.62941,-0.0362 z m 20.16446,-0.21104 c 0,-0.2097 -0.12476,-0.45837 -0.27725,-0.55262 -0.4489,-0.27744 -1.05102,0.0829 -0.8806,0.52699 0.19756,0.51483 1.15785,0.53609 1.15785,0.0256 z m -45.25305,-0.65969 c 0.15064,-0.28147 0.27389,-0.81725 0.27389,-1.19062 0,-0.53198 -0.13166,-0.67885 -0.60854,-0.67885 -0.7582,0 -1.24355,0.46469 -1.24355,1.19062 0,1.11402 1.09356,1.5844 1.5782,0.67885 z m 46.79381,-0.45848 c -0.12874,-0.66378 -0.74701,-0.75493 -0.74701,-0.11012 0,0.32499 0.17084,0.55121 0.41628,0.55121 0.24639,0 0.38136,-0.18001 0.33073,-0.44109 z m 3.35413,0.17636 c 0.09,-0.1456 0.68872,-0.39695 1.33053,-0.55856 0.6418,-0.16161 1.29163,-0.44411 1.44406,-0.62778 0.72498,-0.87354 -0.81502,-1.98851 -2.74654,-1.98851 -0.9285,0 -1.27894,0.12874 -1.60064,0.58804 -0.41255,0.58899 -0.56701,2.34363 -0.23549,2.67515 0.27377,0.27377 1.62508,0.20775 1.80808,-0.0883 z m -58.90778,-0.5 c 0.45796,-0.29018 0.29152,-0.38253 -1.9082,-1.05885 -2.89107,-0.88888 -3.42044,-0.66009 -1.29397,0.55922 1.26209,0.72369 2.53509,0.92232 3.20217,0.49963 z m 31.93194,-0.95506 c 0.21275,-0.63139 0.85491,-1.51369 1.59182,-2.18709 1.18943,-1.08693 1.22307,-1.15807 0.90769,-1.91945 -0.41885,-1.01119 -1.96605,-2.37575 -2.69373,-2.37575 -0.78206,0 -2.52403,-1.91533 -2.828,-3.10944 -0.13883,-0.54538 -0.33291,-2.37805 -0.43128,-4.07259 -0.15767,-2.71622 -0.12218,-3.16747 0.2998,-3.8115 0.37502,-0.57235 0.39462,-0.70286 0.0905,-0.60278 -0.64126,0.21102 -1.57941,1.82846 -1.56939,2.70575 0.005,0.45142 0.17953,1.11842 0.3875,1.48222 0.53605,0.93772 0.48396,1.93459 -0.1427,2.73126 -0.86019,1.09355 -1.57913,3.56108 -1.74718,5.9966 -0.15542,2.25235 -0.15542,2.25235 0.95837,3.91064 1.3067,1.94551 2.0985,2.45747 3.6695,2.37261 1.08793,-0.0588 1.16988,-0.11969 1.5071,-1.12048 z m -9.66905,-0.26458 c 0,-0.97338 -0.5908,-1.30739 -0.89773,-0.50753 -0.32408,0.84454 -0.17264,1.43357 0.36857,1.43357 0.42837,0 0.52916,-0.17639 0.52916,-0.92604 z m -20.74322,-0.78209 c -0.33798,-1.34664 -0.70201,-2.03553 -1.02038,-1.93099 -0.52453,0.17222 -0.55252,1.51238 -0.0434,2.07501 0.67216,0.74273 1.26611,0.66231 1.06373,-0.14402 z m 54.2573,-0.58599 c 1.13981,-0.67969 2.4891,-1.383 2.99842,-1.56291 0.98527,-0.34803 1.23766,-0.97051 0.45464,-1.1213 -0.56135,-0.10811 -3.66793,1.30334 -4.84549,2.2015 -0.78638,0.5998 -1.37089,1.71849 -0.8979,1.71849 0.11987,0 1.15052,-0.5561 2.29033,-1.23578 z m -35.89533,0.27888 c 0,-0.4389 -1.21017,-0.49791 -1.47349,-0.0718 -0.1,0.16179 -0.0343,0.38532 0.14597,0.49674 0.46433,0.28697 1.32752,0.0107 1.32752,-0.42489 z m 23.91128,-0.32437 c -0.25253,-0.3867 -0.91445,-1.28011 -1.47094,-1.98534 -1.30245,-1.6506 -1.407,-2.0782 -1.40076,-5.72922 0.005,-2.76763 0.0724,-3.18904 0.74799,-4.66128 1.22266,-2.6642 3.4395,-4.44305 6.57825,-5.27857 3.80931,-1.01402 6.86721,0.12029 8.87009,3.29031 0.51784,0.81959 1.57895,2.16594 2.35802,2.99188 1.60961,1.70645 1.76901,2.45858 0.88732,4.18683 -0.63551,1.24572 -0.66616,1.7429 -0.12034,1.95234 0.22485,0.0863 0.58683,0.58293 0.80441,1.10365 0.63911,1.52962 1.36401,1.18958 2.53107,-1.18728 0.5314,-1.08226 1.11584,-2.42123 1.29876,-2.97548 0.29661,-0.89873 0.27796,-1.06817 -0.17243,-1.56658 -0.65097,-0.72037 -2.82554,-1.82339 -3.60507,-1.82862 -0.33226,-0.002 -0.7827,-0.12371 -1.00098,-0.26996 -0.33871,-0.22693 -0.30533,-0.34267 0.22775,-0.7897 1.94166,-1.62822 4.85889,0.34903 8.36101,5.66695 0.80831,1.22739 2.21048,2.9656 3.11595,3.86268 1.6463,1.63105 1.6463,1.63105 1.83966,0.88205 0.56092,-2.17282 0.65843,-6.87502 0.15306,-7.3804 -0.0788,-0.0788 -1.37724,-0.38575 -2.88545,-0.68213 -1.5082,-0.29638 -3.01008,-0.70959 -3.3375,-0.91825 -0.6966,-0.44394 -0.78504,-1.46258 -0.17954,-2.06808 0.55085,-0.55085 2.83602,-0.56398 3.28839,-0.0189 0.4786,0.57667 0.84353,0.48615 0.74601,-0.18504 -0.14719,-1.01304 -1.62956,-1.62801 -4.22318,-1.75201 -3.09611,-0.14803 -4.45807,0.0901 -5.82921,1.01938 -0.62956,0.42666 -1.3023,0.77791 -1.49499,0.78056 -0.19268,0.003 -1.5619,-0.95039 -3.04271,-2.11787 -1.59979,-1.26129 -3.12185,-2.23966 -3.75071,-2.41094 -0.59799,-0.16287 -2.26969,-0.23903 -3.84326,-0.17508 -2.44907,0.0995 -2.95417,0.20528 -4.18822,0.87693 -1.68689,0.91812 -3.96747,3.3091 -4.83279,5.06672 -0.53246,1.08154 -0.62781,1.66599 -0.61864,3.79214 0.0119,2.76697 0.42305,4.36316 1.7989,6.98424 0.77801,1.48214 2.10726,2.68574 2.61772,2.37026 0.12733,-0.0787 0.0249,-0.45948 -0.22764,-0.84619 z m -45.07794,0.35523 c -0.18116,-0.21828 -0.49814,-0.39687 -0.7044,-0.39687 -0.52646,0 -2.3284,-0.9468 -4.14545,-2.17817 -1.59467,-1.08067 -3.83991,-2.18485 -4.03862,-1.98614 -0.22139,0.22139 2.72881,2.79279 3.8808,3.38252 1.69763,0.86905 3.70255,1.55501 4.57704,1.56599 0.64597,0.008 0.71059,-0.05 0.43063,-0.38733 z m 40.96641,-0.0254 c 0.45185,-0.31649 0.58261,-0.63138 0.52189,-1.25677 -0.0702,-0.72335 -0.19293,-0.84533 -0.92143,-0.91594 -0.94018,-0.0911 -2.8464,0.76509 -3.08446,1.38544 -0.4143,1.07965 2.21752,1.67435 3.484,0.78727 z m 29.63417,-0.50374 c 0.16864,-0.94405 0.51733,-1.03047 1.42002,-0.35197 1.03881,0.7808 1.734,1.06669 1.90825,0.78474 0.26912,-0.43544 -0.97205,-1.95223 -2.24496,-2.74352 -0.83462,-0.51882 -1.82234,-1.50199 -2.64435,-2.63215 -0.72166,-0.99219 -1.41509,-1.80398 -1.54097,-1.80398 -0.35749,0 -2.14649,3.57408 -2.14649,4.28828 0,0.75702 0.74592,1.62199 1.92419,2.2313 1.91452,0.99004 3.17269,1.07606 3.32431,0.2273 z m -60.33456,-0.27113 c 0.0438,-0.0354 0.0438,-0.81533 0,-1.73313 l -0.0796,-1.66873 -0.92605,1.43073 c -0.57374,0.88644 -1.17768,1.49576 -1.5875,1.60164 -0.68191,0.17619 -0.48888,0.34771 0.66146,0.58777 0.46719,0.0975 1.71582,-0.0436 1.93165,-0.21828 z m -13.17473,-6.9147 c -2.99282,-8.02538 -5.11396,-12.26105 -6.14009,-12.26105 -0.47241,0 0.0464,1.90085 0.97485,3.57188 0.80818,1.45453 0.85176,1.64533 0.52027,2.27796 -0.19899,0.37975 -0.49051,1.49612 -0.64781,2.48083 -0.36822,2.30492 -0.7834,3.26908 -1.97632,4.5895 l -0.96882,1.07237 1.00925,0.16467 c 1.34763,0.21987 3.25168,0.61051 3.98582,0.81773 0.50986,0.14391 0.59531,0.0674 0.59531,-0.53308 0,-0.38562 -0.28224,-1.26271 -0.62719,-1.94909 -0.9064,-1.80353 -1.07067,-2.4386 -0.63077,-2.4386 0.99576,0 2.84546,3.432 2.84546,5.27956 0,0.69422 0.97226,1.80715 2.07438,2.37452 0.53258,0.27417 1.0071,0.46093 1.0545,0.41502 0.0474,-0.0459 -0.88358,-2.6839 -2.06884,-5.86222 z m 24.97797,5.18106 c 0.72859,-0.86588 1.05327,-1.76472 0.90677,-2.51033 -0.13325,-0.67819 -1.2876,-1.41815 -2.33853,-1.49904 l -0.92604,-0.0713 -0.0796,1.84655 c -0.11074,2.56846 0.0446,3.04824 0.98718,3.04824 0.52966,0 0.97605,-0.2506 1.45024,-0.81414 z m 23.70365,0.15268 c 0,-0.41157 -0.14993,-0.66146 -0.39687,-0.66146 -0.24694,0 -0.39688,0.24989 -0.39688,0.66146 0,0.41158 0.14994,0.66146 0.39688,0.66146 0.24694,0 0.39687,-0.24988 0.39687,-0.66146 z m -56.62083,-0.78444 c 0,-0.4372 -0.79031,-0.93535 -1.48393,-0.93535 -0.39453,0 -0.37149,0.0946 0.16102,0.66146 0.6915,0.73608 1.32291,0.8668 1.32291,0.27389 z m 68.26592,-0.0111 c 0.56088,-0.29004 0.84908,-0.70449 1.05793,-1.52135 0.15788,-0.61749 0.51944,-1.68056 0.80348,-2.36238 0.68568,-1.64599 0.68777,-3.28022 0.005,-3.64581 -0.28148,-0.15063 -0.76183,-0.27389 -1.06745,-0.27389 -0.50943,0 -0.5421,0.1046 -0.39246,1.25677 0.15053,1.15906 0.0927,1.33906 -0.74364,2.31511 -1.27027,1.48245 -1.51802,2.04097 -1.51802,3.42219 0,1.04139 0.0748,1.20802 0.54231,1.20802 0.29826,0 0.8892,-0.17939 1.31319,-0.39864 z m -56.88883,-1.84916 c 0,-0.49151 -0.23723,-1.88347 -0.52717,-3.09323 -1.13362,-4.72997 -1.2629,-10.74887 -0.37273,-17.35376 0.22115,-1.64083 0.32053,-3.2403 0.22085,-3.55436 -0.17695,-0.5575 -0.19001,-0.55429 -0.55154,0.13571 -0.21054,0.40184 -0.68131,0.77479 -1.09121,0.86449 -1.3451,0.29433 -1.38237,0.33553 -1.38237,1.52806 0,1.5665 -0.45953,1.94439 -1.85577,1.52606 -0.96802,-0.29002 -1.0772,-0.42316 -1.47821,-1.80258 -0.47306,-1.62726 -1.36367,-2.72549 -2.21024,-2.72549 -0.67747,0 -0.67501,0.15939 0.0269,1.74612 0.42538,0.96164 0.56292,1.7808 0.54758,3.26122 -0.0218,2.10314 0.29395,3.17082 1.35548,4.5837 0.35538,0.473 1.06218,1.69344 1.57068,2.71209 1.11231,2.22826 4.25276,10.1069 4.69312,11.77395 0.17299,0.65485 0.37021,1.28187 0.43828,1.39338 0.26228,0.42968 0.61637,-0.14213 0.61637,-0.99536 z m 5.53307,0.76079 c 0.63828,-0.13212 0.63828,-0.13212 0.0958,-0.67463 -0.31993,-0.31993 -1.02818,-0.59724 -1.72631,-0.67593 -1.1431,-0.12884 -1.19418,-0.10373 -1.48485,0.7301 -0.16557,0.47494 -0.30103,0.9094 -0.30103,0.96546 0,0.11025 2.37658,-0.12975 3.41641,-0.345 z m 33.40599,-0.009 c 0.54546,-0.49363 0.66901,-2.42593 0.20996,-3.28368 -0.45492,-0.85001 -2.84293,-0.58489 -3.49237,0.38774 -0.35055,0.52499 -0.21007,1.59835 0.32378,2.47393 0.43886,0.71978 0.68319,0.85989 1.49953,0.85989 0.53638,0 1.19298,-0.19704 1.4591,-0.43788 z m 5.97395,-0.42935 c 0.42092,-0.32569 0.41898,-1.46066 -0.004,-2.27809 -0.49606,-0.95891 -0.86649,-0.57246 -0.76769,0.8009 0.0498,0.69244 -0.0367,1.30471 -0.19844,1.40468 -0.1577,0.0975 -0.28674,0.28551 -0.28674,0.41788 0,0.26273 0.73021,0.0621 1.25677,-0.34537 z m -35.81343,-1.26378 c 0.66012,-0.78451 0.69,-0.95815 0.69,-4.01039 v -3.19039 l -0.57079,0.76329 c -0.31394,0.41981 -1.5676,1.78119 -2.78591,3.0253 l -2.21511,2.26201 1.00209,0.56321 c 0.55116,0.30976 1.28546,0.86483 1.63179,1.23348 0.72936,0.77637 1.15323,0.65447 2.24793,-0.64651 z m 15.90354,-1.04762 c 0,-1.18018 -0.005,-1.187 -0.92604,-1.187 -1.15269,0 -1.35987,0.73592 -0.51101,1.81508 0.85064,1.08141 1.43705,0.82511 1.43705,-0.62808 z m -39.43009,-0.57455 c -1.17546,-3.6093 -2.86529,-6.84166 -3.33248,-6.37447 -0.46571,0.46572 1.83951,6.13085 3.01711,7.41462 0.76628,0.83538 0.84337,0.58111 0.31537,-1.04015 z m 48.67548,-0.29587 c 0.47533,-1.35944 -1.01185,-2.57642 -2.59396,-2.12268 -1.1485,0.32939 -1.15659,0.93312 -0.0276,2.06208 1.1908,1.1908 2.21809,1.21454 2.62157,0.0606 z m -31.44394,-0.1447 c 1.56083,-1.14046 5.21715,-5.07146 5.7344,-6.16518 0.25127,-0.53132 0.45424,-1.42429 0.45105,-1.98438 -0.006,-1.13475 -0.86651,-3.2673 -1.31767,-3.2673 -0.16006,0 -0.46855,0.42488 -0.68553,0.94419 -0.47265,1.13119 -1.91411,1.88628 -2.74847,1.43975 -0.4268,-0.22842 -0.52491,-0.61489 -0.58927,-2.32118 l -0.0772,-2.04714 -0.92304,-0.13229 c -1.21971,-0.17481 -1.37828,-0.89608 -0.28109,-1.27856 0.44399,-0.15478 0.80725,-0.41258 0.80725,-0.5729 0,-0.35117 -0.63443,-1.60582 -1.53423,-3.0341 -0.63013,-1.00022 -0.67113,-1.02153 -0.87985,-0.45733 -0.4206,1.13699 -0.82591,7.88565 -0.68636,11.42831 0.1617,4.10503 0.91175,8.20208 1.50155,8.20208 0.10812,0 0.66093,-0.33929 1.22847,-0.75397 z m 52.86791,-0.47394 c 0.0916,-0.23878 -0.0147,-0.71084 -0.23627,-1.04902 -0.54968,-0.83891 -0.53064,-0.91815 0.51393,-2.13849 0.50425,-0.5891 0.84159,-1.14631 0.74965,-1.23825 -0.26218,-0.26219 -3.46982,-0.19547 -3.63739,0.0757 -0.16292,0.26361 1.07062,3.91422 1.50485,4.45353 0.37215,0.46221 0.9074,0.41212 1.10523,-0.10343 z m -34.55483,-0.29344 c -0.0994,-0.52401 -1.44539,-0.79425 -1.86517,-0.37447 -0.44099,0.44099 0.0434,0.83749 1.02315,0.83749 0.74262,0 0.91215,-0.0932 0.84202,-0.46302 z m -32.65357,-0.68243 c 1.51966,-2.04708 -0.19339,-14.43519 -2.09715,-15.16573 -1.32113,-0.50697 -1.81625,2.21254 -1.4339,7.87585 0.47857,7.08849 1.74287,9.69865 3.53105,7.28988 z m 36.08489,-2.17103 c 1.31299,-1.52644 -0.17337,-3.82727 -2.47247,-3.82727 -1.59674,0 -2.49734,0.84591 -2.49734,2.3457 0,0.8532 0.15684,1.17881 0.84788,1.76028 0.73779,0.62081 1.01917,0.69698 2.16724,0.58667 1.02501,-0.0985 1.46111,-0.29157 1.95469,-0.86538 z m 15.07138,-0.31718 c 0.32538,-1.42191 0.25447,-1.65801 -0.49799,-1.65801 -0.54761,0 -2.0807,1.33572 -2.0807,1.81283 0,0.50967 0.83658,1.09759 1.56182,1.09759 0.6541,0 0.76017,-0.13065 1.01687,-1.25241 z m -6.17887,-0.75361 c 0.25244,-0.65786 0.20432,-0.81184 -0.52438,-1.67785 -0.75712,-0.89978 -1.68014,-1.05696 -2.33883,-0.39828 -0.58341,0.58341 -0.51892,1.09264 0.23366,1.84522 0.76679,0.76679 2.36989,0.90757 2.62955,0.23091 z m 40.40333,-1.85832 c -0.23926,-0.86654 -0.18631,-1.13808 0.4388,-2.25012 0.39099,-0.69555 0.63032,-1.34522 0.53184,-1.4437 -0.0985,-0.0985 -0.72021,0.13809 -1.38163,0.52571 -0.91995,0.53912 -1.20258,0.86068 -1.20258,1.3682 0,0.72305 0.61036,2.0754 1.28191,2.84028 0.54505,0.62079 0.67649,0.20849 0.33166,-1.04037 z m -37.4398,-0.14455 c 0.24831,-0.40177 -0.67081,-1.0588 -1.3458,-0.96204 -0.31884,0.0457 -0.56488,0.31406 -0.61564,0.67145 -0.0739,0.52036 0.0324,0.59531 0.84428,0.59531 0.51086,0 1.01358,-0.13712 1.11716,-0.30472 z m 18.27592,0.013 c 0.92142,-0.16046 1.67531,-0.39251 1.67531,-0.51565 0,-0.12315 -0.80367,-0.60865 -1.78593,-1.07889 -1.86001,-0.89043 -4.35274,-1.31554 -4.67324,-0.79696 -0.39742,0.64305 1.67778,2.67947 2.73334,2.68225 0.20635,5.6e-4 1.12909,-0.13029 2.05052,-0.29075 z m -71.30039,-5.05405 0.083,-4.41975 1.05833,-1.10466 1.05833,-1.10467 -1.2937,0.1666 c -0.71153,0.0916 -1.46937,0.1666 -1.68409,0.1666 -0.33633,0 -0.36595,0.66877 -0.21389,4.82865 0.0971,2.65575 0.24189,5.16784 0.3218,5.5824 0.32576,1.69005 0.59188,0.056 0.67022,-4.11517 z m 43.59734,3.90217 c 0.46802,-0.56393 0.10277,-0.93763 -0.91643,-0.93763 -1.07335,0 -1.45738,0.4735 -0.7836,0.96618 0.63506,0.46437 1.30021,0.4532 1.70003,-0.0285 z m 35.72836,-0.93763 c 1.07676,-0.42442 1.98216,-0.53102 4.57386,-0.53854 2.40086,-0.007 3.40135,-0.1121 3.89281,-0.40907 0.62654,-0.3786 0.58164,-0.39113 -0.85038,-0.23736 -1.46225,0.15701 -1.51746,0.13989 -1.68361,-0.52211 -0.0945,-0.37644 -0.0253,-1.03803 0.15368,-1.4702 0.4531,-1.09386 2.23667,-2.64355 3.04253,-2.64355 0.49132,0 0.6607,-0.14012 0.6607,-0.54656 0,-0.67149 0.41563,-1.50533 1.15413,-2.3154 0.55884,-0.613 0.55884,-0.613 -0.051,-1.07302 -0.47949,-0.36168 -0.57161,-0.61242 -0.43093,-1.17294 0.0984,-0.3921 0.0889,-0.71292 -0.0212,-0.71292 -0.11006,0 -1.22451,0.98753 -2.47656,2.19451 -1.25204,1.20697 -3.05014,2.71849 -3.99576,3.35893 -3.73452,2.52926 -7.25459,6.6174 -5.69786,6.6174 0.21289,0 0.99121,-0.23813 1.72958,-0.52917 z m -4.90453,-3.10568 c -0.005,-0.73391 -0.17194,-1.52982 -0.37018,-1.76869 -0.19825,-0.23887 -1.88171,-1.44463 -3.74102,-2.67947 -1.85931,-1.23484 -3.69283,-2.61626 -4.07448,-3.06983 l -0.69392,-0.82468 0.079,1.82157 0.079,1.82157 2.08013,0.16889 c 3.05593,0.2481 4.28729,1.40143 3.22584,3.02141 -0.54871,0.83745 -1.54123,0.82991 -2.92472,-0.0222 -1.21955,-0.75114 -2.39956,-0.83972 -3.07257,-0.23066 -0.25761,0.23314 -1.18745,0.50868 -2.06629,0.6123 -1.75498,0.20693 -2.12783,0.4019 -1.6611,0.86864 0.20967,0.20967 1.77228,0.31422 4.87715,0.32632 4.37962,0.0171 4.63432,0.0474 6.15614,0.73392 0.87313,0.39386 1.70656,0.67993 1.85208,0.6357 0.14553,-0.0442 0.26021,-0.68089 0.25485,-1.41479 z m 6.75662,-4.20526 c 0,-0.9075 -0.49561,-1.02029 -1.27827,-0.29092 -2.16514,2.01774 -3.61283,1.60718 -4.24171,-1.20293 -0.37219,-1.66312 -0.35752,-1.64785 -2.41752,-2.51805 -0.80037,-0.3381 -1.61011,-0.68228 -1.79943,-0.76484 -0.26658,-0.11626 -0.32626,0.22866 -0.26459,1.52898 l 0.0796,1.6791 1.68642,1.175 c 1.0225,0.71241 1.98049,1.65303 2.43341,2.38927 1.67092,2.7162 1.31838,2.66797 3.70076,0.50632 1.43784,-1.30462 2.10129,-2.09457 2.10129,-2.50193 z m -24.6724,2.10147 c -0.25466,-0.0666 -0.67138,-0.0666 -0.92604,0 -0.25466,0.0666 -0.0463,0.121 0.46302,0.121 0.50932,0 0.71768,-0.0544 0.46302,-0.121 z m -30.51487,-0.24282 c 0.53333,-0.20465 0.54694,-1.39423 0.0183,-1.59709 -0.22014,-0.0845 -0.57733,-0.007 -0.79375,0.17299 -0.47912,0.39763 -0.51604,1.22658 -0.0628,1.40948 0.1819,0.0734 0.35076,0.14285 0.37523,0.15434 0.0245,0.0115 0.23284,-0.0514 0.46302,-0.13972 z m 25.20112,-2.62722 c 2.06747,-1.08607 3.99226,-1.97468 4.2773,-1.97468 0.33126,0 0.81987,0.47001 1.35413,1.30258 0.45973,0.71642 1.0108,1.44776 1.2246,1.62521 0.60494,0.50205 0.78484,0.0515 0.226,-0.56605 -0.72977,-0.80639 -0.66263,-2.42282 0.13594,-3.27286 0.77442,-0.82433 0.62231,-0.83895 -1.08543,-0.1043 -1.11707,0.48055 -1.36679,0.5123 -1.56083,0.19844 -0.48673,-0.78726 0.3878,-1.1484 5.37225,-2.21848 2.36612,-0.50797 2.81551,-1.09015 0.66146,-0.85691 -0.76399,0.0827 -3.175,0.70141 -5.35781,1.37486 -2.44222,0.75349 -4.50304,1.2321 -5.35782,1.24433 -1.66259,0.0238 -1.82872,0.40287 -0.28475,0.64977 l 1.1043,0.17658 -0.77358,0.61898 c -1.05007,0.84022 -1.50311,0.78297 -2.4639,-0.31131 -0.71317,-0.81226 -0.7766,-1.00263 -0.49043,-1.47192 0.28692,-0.47053 0.23437,-0.62091 -0.41368,-1.18375 -0.51579,-0.44797 -1.05971,-0.64475 -1.78214,-0.64475 -0.57188,0 -1.57451,-0.14302 -2.22807,-0.31782 -0.79983,-0.21392 -1.42108,-0.23554 -1.90041,-0.0661 -1.75746,0.6211 -0.6489,1.47179 2.24308,1.72129 1.9339,0.16684 1.94489,0.17221 3.43958,1.67981 l 1.49948,1.51243 -1.05833,0.91558 c -0.58208,0.50357 -1.56796,1.25923 -2.19085,1.67924 -0.65579,0.44221 -0.98991,0.81308 -0.79375,0.88106 0.55831,0.1935 2.23919,-0.50859 6.20366,-2.59119 z m 2.4606,1.20032 c 0.96553,0 1.37113,-0.14005 1.83474,-0.63354 0.82966,-0.88313 0.31482,-1.09414 -1.3725,-0.56254 -1.74394,0.54944 -4.48714,2.01242 -4.63219,2.47041 -0.0643,0.20288 0.52445,0.01 1.41005,-0.46302 1.07482,-0.57356 1.8836,-0.81131 2.7599,-0.81131 z m -22.65099,-0.49384 c 0.56733,-0.49921 1.33995,-1.95897 1.59198,-3.00786 0.20212,-0.84116 -0.55147,-1.78996 -1.42169,-1.78996 -0.82026,0 -0.62374,0.73093 0.248,0.9224 l 0.77717,0.17069 -1.20121,1.90085 c -0.66067,1.04547 -1.57594,2.23997 -2.03394,2.65446 l -0.83273,0.75361 1.19062,-0.586 c 0.65485,-0.3223 1.41166,-0.78049 1.6818,-1.01819 z m 10.80674,1.25542 c 1.77621,-0.37595 2.54535,-0.77131 3.60099,-1.85104 0.86325,-0.88296 1.17224,-2.31783 0.51308,-2.38264 -0.1819,-0.0179 -0.98557,-0.0599 -1.78594,-0.0934 -0.80036,-0.0335 -1.80071,-0.15526 -2.223,-0.27059 -1.05617,-0.28845 -2.31148,0.42877 -3.04986,1.74255 -0.73149,1.30152 -0.63842,2.36606 0.24578,2.81114 0.81547,0.41048 0.95656,0.41278 2.69895,0.044 z m 22.13085,-0.10319 c 0.31669,-0.31669 -0.64661,-0.66242 -1.6582,-0.59513 -1.09301,0.0727 -1.5746,0.59133 -0.76281,0.82147 0.5555,0.15749 2.19,0.005 2.42101,-0.22634 z m -40.43391,-1.4601 c 0.85628,-1.08115 2.00261,-1.84412 2.7707,-1.84412 0.23213,0 0.73114,0.30909 1.10891,0.68687 0.57698,0.57698 0.78447,0.6424 1.2969,0.40892 0.78418,-0.35729 1.53546,-1.50227 1.3326,-2.03091 -0.21879,-0.57016 -3.70011,-2.17348 -5.45709,-2.51326 -0.84967,-0.16432 -2.46754,-0.2084 -3.88804,-0.10594 l -2.43283,0.17548 1.30775,1.919 c 0.71926,1.05546 1.55172,2.47054 1.8499,3.14463 0.29818,0.6741 0.70517,1.22563 0.90441,1.22563 0.19925,0 0.7423,-0.47984 1.20679,-1.0663 z m 11.21017,0.64778 c 0.44841,-1.16852 0.012,-3.48985 -0.55033,-2.92749 -0.2586,0.2586 -0.60116,2.53718 -0.44329,2.94858 0.20016,0.5216 0.79018,0.50908 0.99362,-0.0211 z m -28.80663,-5.03549 c -0.25774,-0.39336 -0.66911,-0.63141 -1.09114,-0.63141 -0.37259,0 -1.56946,-0.35719 -2.65973,-0.79375 -1.09026,-0.43656 -2.11599,-0.79375 -2.27939,-0.79375 -0.16341,0 0.79641,1.02038 2.13292,2.26751 1.33651,1.24714 2.81866,2.91835 3.29365,3.71382 l 0.86363,1.4463 0.0769,-2.28866 c 0.0581,-1.73067 -0.024,-2.4426 -0.33682,-2.92006 z m 56.93094,3.65828 c 0.17312,-0.11007 0.30394,-0.58037 0.29073,-1.04512 -0.0132,-0.46474 0.12162,-1.02048 0.29962,-1.23497 0.27934,-0.33657 0.2033,-0.3586 -0.5553,-0.16082 -0.48343,0.12603 -1.56357,0.36537 -2.40032,0.53186 -1.63058,0.32444 -1.96617,0.84091 -1.10558,1.7015 0.43838,0.43839 2.87833,0.58429 3.47085,0.20755 z m 21.67227,-0.29399 c 0.45119,-0.27513 1.61205,-1.24084 2.57968,-2.14601 2.92113,-2.73257 2.08694,-3.16673 -1.80613,-0.94002 -1.16064,0.66385 -2.44056,1.207 -2.84427,1.207 -0.61157,0 -0.73401,0.11324 -0.73401,0.67885 0,1.67769 1.18799,2.18605 2.80473,1.20018 z m -45.15007,-3.01031 c 0.0147,-0.25133 -1.53358,0.51318 -2.1708,1.0719 -0.25466,0.22329 -0.46302,0.76738 -0.46302,1.20911 0,0.80313 0,0.80313 1.31091,-0.63632 0.72099,-0.7917 1.31631,-1.53181 1.32291,-1.64469 z m 39.28455,0.94239 c -0.26172,-0.7442 -1.53124,-1.65728 -1.85461,-1.3339 -0.27977,0.27977 0.42148,1.76016 1.03849,2.19233 0.74676,0.52305 1.15204,0.0968 0.81612,-0.85843 z m -8.55965,0.26536 c 0.53934,-1.41857 -0.0773,-2.43766 -1.65321,-2.73207 -0.64314,-0.12015 -1.34272,-0.2564 -1.55461,-0.30278 -0.24852,-0.0544 -0.41428,0.16653 -0.46698,0.62239 -0.0619,0.53588 0.19891,0.99958 1.07912,1.91823 1.35503,1.41418 2.18578,1.57236 2.59568,0.49423 z m -41.56081,-2.7033 c 0,-0.67373 -5.98677,-2.14062 -8.69976,-2.13162 -1.24022,0.004 -2.15154,0.34534 -1.81666,0.68021 0.10113,0.10113 1.70502,0.27895 3.56421,0.39514 2.11215,0.13201 3.97592,0.40593 4.96784,0.73014 1.91428,0.62568 1.98437,0.6372 1.98437,0.32613 z m -14.71738,-0.61693 c 0.5586,-0.31447 0.55804,-0.31711 -0.0876,-0.41399 -0.83617,-0.12547 -2.65746,0.41717 -2.65746,0.79177 0,0.35155 1.91862,0.0875 2.74512,-0.37778 z"
       id="path9656" />
  </g>
</svg>
