<?xml version="1.0" encoding="UTF-8" standalone="no"?>
<!-- Created with Inkscape (http://www.inkscape.org/) -->

<svg
   width="65.79509mm"
   height="117.84196mm"
   viewBox="0 0 65.795085 117.84196"
   version="1.1"
   id="svg5"
   inkscape:version="1.1 (c4e8f9ed74, 2021-05-24)"
   sodipodi:docname="ornated.svg"
   xmlns:inkscape="http://www.inkscape.org/namespaces/inkscape"
   xmlns:sodipodi="http://sodipodi.sourceforge.net/DTD/sodipodi-0.dtd"
   xmlns="http://www.w3.org/2000/svg"
   xmlns:svg="http://www.w3.org/2000/svg">
  <sodipodi:namedview
     id="namedview7"
     pagecolor="#ffffff"
     bordercolor="#666666"
     borderopacity="1.0"
     inkscape:pageshadow="2"
     inkscape:pageopacity="0.0"
     inkscape:pagecheckerboard="0"
     inkscape:document-units="mm"
     showgrid="false"
     inkscape:zoom="0.66903058"
     inkscape:cx="-50.072449"
     inkscape:cy="417.76864"
     inkscape:window-width="2506"
     inkscape:window-height="1403"
     inkscape:window-x="1974"
     inkscape:window-y="0"
     inkscape:window-maximized="1"
     inkscape:current-layer="layer1" />
  <defs
     id="defs2" />
  <g
     inkscape:label="Layer 1"
     inkscape:groupmode="layer"
     id="layer1"
     transform="translate(-148.96877,-133.29666)">
    <path
       style="fill:#000000;stroke-width:0.598548"
       d="m 149.71695,250.78488 c -0.4115,-0.16605 -0.74818,-1.22885 -0.74818,-2.36177 0,-1.68808 0.29223,-2.17095 1.61916,-2.67545 0.89053,-0.33859 2.57395,-0.46374 3.74092,-0.27812 4.01679,0.63892 3.81455,2.23001 3.77503,-29.69751 -0.0204,-15.91409 0.23615,-39.37566 0.56857,-52.13682 0.46577,-17.88076 0.44007,-23.40008 -0.11198,-24.0654 -0.45756,-0.55133 -2.1353,-0.92686 -4.64264,-1.03914 -4.67776,-0.20948 -5.78724,-1.20144 -4.14577,-3.70664 0.99658,-1.52097 1.16795,-1.55596 7.44066,-1.5199 3.53134,0.0204 12.61558,0.24543 20.18722,0.50029 13.45199,0.45279 13.84187,0.5016 17.05865,2.1362 4.97521,2.52814 7.70798,4.95083 10.45727,9.27067 5.23978,8.23307 8.00966,17.9463 9.31001,32.64779 1.43131,16.18217 -0.0247,32.21998 -3.99363,43.99331 -3.07256,9.11399 -6.52672,15.29413 -11.39766,20.39247 -2.49416,2.61062 -4.79421,4.74657 -5.1112,4.74657 -0.317,0 -1.29132,0.49837 -2.16516,1.1075 -3.9713,2.76829 -6.50692,3.08509 -24.29059,3.0351 -9.2413,-0.026 -17.13906,-0.18324 -17.55056,-0.34915 z m 34.1643,-8.63824 c 3.05913,-2.02628 3.34349,-2.60125 1.71704,-3.47171 -0.59348,-0.31762 -1.80553,-1.91229 -2.69348,-3.54372 -2.71147,-4.98186 -1.81178,-12.03088 1.96219,-15.37374 1.3515,-1.1971 1.3515,-1.1971 -0.96292,-1.5044 -3.08779,-0.41003 -5.00788,-0.036 -5.00788,0.97563 0,0.45543 -0.45014,0.82805 -1.00033,0.82805 -0.55018,0 -1.4929,0.44577 -2.09492,0.99058 -0.97762,0.88474 -1.09458,2.06444 -1.09458,11.03921 0,9.70545 0.0455,10.08046 1.33026,10.9804 2.06438,1.44592 4.74747,1.13116 7.84462,-0.9203 z m 7.71113,-11.42777 c 1.83189,-5.18316 3.09815,-9.61376 3.67912,-12.87323 0.27334,-1.53359 0.11424,-1.98373 -0.80477,-2.27537 -0.87813,-0.27871 -4.03381,0.78212 -5.23652,1.76033 -0.0774,0.0629 0.41322,1.17335 1.09005,2.46771 1.48613,2.8419 1.23552,7.72029 -0.65177,12.68724 -1.38195,3.63699 -1.55284,4.9273 -0.51513,3.88959 0.3742,-0.37419 1.47176,-2.91952 2.43902,-5.65627 z m -4.20537,2.914 c 0.0446,-1.18557 0.33402,-1.99923 0.64322,-1.80814 0.3092,0.19116 0.2391,-0.25626 -0.15587,-0.99411 -0.57071,-1.06637 -0.56379,-1.24626 0.0337,-0.87698 0.56642,0.35006 0.6617,0.0136 0.38662,-1.36089 -0.32846,-1.64229 -0.23675,-1.79189 0.91407,-1.49094 1.26911,0.33187 1.26798,0.31639 -0.14342,-1.9674 -1.15639,-1.87109 -1.23294,-2.22911 -0.40897,-1.91294 1.19335,0.45794 1.32347,-0.19727 0.26552,-1.33718 -0.46894,-0.50523 -0.48982,-0.66132 -0.0559,-0.41824 0.52375,0.29343 0.52402,0.0314 0.001,-1.0766 -0.61354,-1.30013 -0.73567,-1.3439 -1.08847,-0.39021 -0.21853,0.59083 -1.36379,1.64444 -2.54496,2.34134 -2.47672,1.46131 -2.98348,2.85975 -0.65119,1.79709 0.823,-0.37498 1.49638,-0.9079 1.49638,-1.18425 -2e-5,-0.27636 0.26932,-0.50247 0.59852,-0.50247 0.99818,0 0.66962,2.50325 -0.4489,3.42005 -0.57612,0.47221 -0.71079,0.68801 -0.29929,0.47957 0.90231,-0.45707 0.97346,0.81686 0.16446,2.94472 -0.32105,0.84444 -0.96145,1.53533 -1.42308,1.53533 -0.46165,0 -1.17466,0.40403 -1.58449,0.89783 -0.60829,0.73294 -0.57327,0.89782 0.19071,0.89782 0.51468,0 1.10225,-0.26935 1.30572,-0.59855 0.7573,-1.22533 1.49637,-0.53553 1.49637,1.39662 0,1.83627 0.49486,3.09642 1.01262,2.57867 0.11809,-0.11809 0.25102,-1.18458 0.29561,-2.37014 z m -2.50533,-6.39354 c 0,-0.3292 -0.25344,-0.59854 -0.56323,-0.59854 -0.30976,0 -0.72968,0.26934 -0.93315,0.59854 -0.20337,0.3292 0.05,0.59856 0.56323,0.59856 0.51323,0 0.93315,-0.26936 0.93315,-0.59856 z m -8.35578,-10.51924 c 0.67404,-1.25943 0.93858,-1.38654 1.44788,-0.69564 0.34273,0.46494 0.95832,0.73242 1.36799,0.59441 0.52918,-0.17827 0.31257,-0.98853 -0.74819,-2.79859 -0.82116,-1.4012 -1.49302,-2.99535 -1.49302,-3.54252 0,-1.97076 -1.06904,-0.93905 -1.72459,1.66437 -0.78898,3.13333 -0.8758,6.31898 -0.17216,6.31898 0.27357,0 0.86854,-0.69344 1.32214,-1.54101 z m 9.55288,0.0853 c 0,-0.55264 -3.68053,-2.84449 -4.02111,-2.50391 -0.58488,0.58486 1.71436,2.76243 2.91678,2.76243 0.60739,0 1.10433,-0.11627 1.10433,-0.25852 z m 5.30136,-2.66867 c 0.52321,-0.33153 0.66272,-0.98572 0.39205,-1.83851 -0.7583,-2.38926 0.23563,-5.07495 2.98743,-8.07225 2.54363,-2.77051 2.69158,-3.1226 2.69158,-6.40447 0,-3.46709 -0.002,-3.47187 -1.51284,-2.89762 -1.21206,0.46084 -2.26495,0.21989 -5.29528,-1.2119 -2.08032,-0.98292 -3.91811,-1.7871 -4.08396,-1.7871 -0.16582,0 -0.0593,1.41406 0.23679,3.14238 0.29611,1.7283 0.62162,3.81575 0.7234,4.63875 0.1018,0.823 0.38679,1.96773 0.63337,2.54383 0.33807,0.78975 0.16537,1.04746 -0.7019,1.04746 -1.36849,0 -3.16764,-3.39219 -3.16764,-5.97243 0,-0.9604 -0.62465,-2.46813 -1.39225,-3.36054 l -1.39226,-1.6186 -1.60148,4.9808 c -1.48746,4.62621 -1.53454,5.08293 -0.66125,6.41573 0.5171,0.78922 1.97151,1.88733 3.232,2.44027 2.33444,1.02404 6.60364,5.93385 6.60364,7.59455 0,0.98776 1.05734,1.1525 2.3086,0.35965 z m 4.8319,-2.31012 c 0.0649,-1.15534 -0.78065,-0.88657 -1.66478,0.52914 -0.66529,1.0653 -0.66437,1.35969 0.005,1.77372 0.78986,0.48817 1.56261,-0.58431 1.65926,-2.30286 z m -14.00586,1.61695 c 0.26163,-0.42333 0.7115,-0.37797 1.38207,0.13936 0.81443,0.62829 0.80207,0.54085 -0.0683,-0.4836 -0.72939,-0.85847 -1.5311,-1.16095 -2.55711,-0.96484 -1.1915,0.22778 -1.35567,0.45312 -0.80947,1.11123 0.818,0.98563 1.52395,1.05368 2.05286,0.19794 z m -0.31723,-2.00571 c 0,-0.13144 -0.94271,-1.63999 -2.09494,-3.35215 -1.67518,-2.48934 -2.09491,-2.83858 -2.09491,-1.74321 0,1.63527 2.38208,5.32461 3.44166,5.3304 0.4115,0.002 0.74819,-0.10361 0.74819,-0.23504 z m 2.37598,-1.40688 c -0.0158,-1.41195 -0.10542,-1.49638 -0.63094,-0.59382 -0.337,0.57873 -0.44758,1.31943 -0.24574,1.64602 0.61887,1.00136 0.89573,0.66906 0.87668,-1.0522 z m -1.98398,-1.62019 c -0.195,-0.50801 -0.6417,-0.92365 -0.99282,-0.92365 -0.44268,0 -0.43356,0.38275 0.0296,1.24837 0.74299,1.38826 1.51993,1.12632 0.96312,-0.32472 z m -4.86198,-7.98735 c -0.38255,-0.38252 -1.52638,2.69205 -1.47333,3.96028 0.0233,0.55468 0.42829,-0.0452 0.90019,-1.33342 0.47192,-1.28807 0.72982,-2.47016 0.57314,-2.62686 z m -0.61524,-1.92269 c 1.78587,-5.96659 1.82175,-6.6922 0.39478,-7.9836 -1.03259,-0.93446 -1.13381,-0.9129 -1.67136,0.35615 -0.62492,1.47526 -1.16195,13.54139 -0.57727,12.97022 0.19794,-0.19342 1.03218,-2.59762 1.85385,-5.34277 z m -6.05853,-1.39861 c 0.21288,-2.8433 -0.4395,-3.75052 -1.13077,-1.57252 -0.38096,1.2003 0.18505,5.09301 0.66993,4.60808 0.1389,-0.1389 0.34624,-1.50486 0.46084,-3.03556 z m 2.38473,-3.31518 c 0.2027,-1.26782 0.77504,-2.64247 1.27181,-3.05471 0.49674,-0.41227 0.89362,-1.32264 0.88195,-2.02303 -0.0204,-1.2024 -0.0703,-1.18995 -0.90267,0.22283 -0.88148,1.49638 -0.88148,1.49638 -0.53957,-0.29927 0.28518,-1.49759 0.22962,-1.61867 -0.33467,-0.72939 -0.37214,0.58646 -0.57567,1.52916 -0.45234,2.09492 0.12329,0.56576 -0.26255,2.19572 -0.85754,3.62213 -1.31395,3.14988 -1.39143,4.09481 -0.25871,3.15474 0.45274,-0.37573 0.98903,-1.72047 1.19174,-2.98831 z m 20.11006,-0.92487 c -0.94935,-0.92982 -4.79964,-2.0639 -3.97587,-1.17104 0.40799,0.4422 3.59145,1.82288 4.57441,1.98395 0.15293,0.0251 -0.1165,-0.34076 -0.59854,-0.81291 z m 3.2984,0.23563 c -0.21174,-0.34254 -1.44959,-1.2949 -2.75085,-2.11636 -1.30128,-0.82146 -2.23913,-1.69877 -2.0841,-1.94961 0.36824,-0.59585 -0.11832,-1.21984 -2.64143,-3.38783 -1.9709,-1.69344 -1.95549,-1.65235 0.28063,0.74819 1.3013,1.39702 2.04203,2.54003 1.646,2.54003 -0.396,0 -0.72002,-0.23699 -0.72002,-0.52662 0,-0.61288 -5.3692,-4.76546 -10.32292,-7.98384 l -3.43964,-2.23468 -0.91724,2.19527 c -1.72393,4.12595 -1.69611,4.67193 0.35709,7.0104 2.85424,3.25078 4.51354,3.93436 7.97889,3.28696 3.73445,-0.69768 7.11571,-0.13823 9.51899,1.57501 2.00622,1.43018 3.75128,1.90561 3.0946,0.84308 z m 0.91281,-3.26777 c 0,-2.69345 0,-2.69345 -2.39419,-2.69345 -1.3168,0 -2.39418,0.23862 -2.39418,0.53029 0,0.46351 4.18024,4.85664 4.62128,4.85664 0.0918,0 0.16718,-1.21205 0.16718,-2.69348 z m 5.69195,-3.63226 c 4.14552,-1.7321 7.5133,-6.3208 8.31648,-11.33144 0.35646,-2.22377 0.31891,-2.31148 -0.52755,-1.23233 -0.50124,0.63901 -0.91136,1.87858 -0.91136,2.75458 0,2.33381 -2.36127,5.45049 -5.4101,7.14078 -2.31546,1.28375 -3.4381,1.48258 -8.44833,1.49638 -3.17789,0.009 -5.65345,0.21785 -5.50124,0.46484 0.15224,0.2469 1.86107,0.44889 3.79742,0.44889 1.93634,0 3.6871,0.26937 3.89056,0.59857 0.53061,0.85854 2.21027,0.73934 4.79412,-0.34027 z m -0.77099,-2.8892 c 3.79566,-1.72256 6.45148,-4.13724 6.45148,-5.86576 0,-1.2012 -0.0575,-1.21376 -1.12632,-0.24636 -0.61947,0.56062 -2.1265,1.29546 -3.34894,1.63299 -1.22246,0.33755 -3.73451,1.58085 -5.58233,2.76288 -2.89581,1.85241 -3.19786,2.21244 -2.18762,2.60754 1.84895,0.7231 2.43502,0.63295 5.79373,-0.89129 z m -5.5195,-2.75092 c 5.20523,-5.6078 5.26337,-5.73186 4.24331,-9.05603 -1.13392,-3.69524 -2.73357,-3.91977 -5.34608,-0.75034 -1.20839,1.46602 -2.82408,2.52031 -4.98159,3.25069 l -3.19314,1.08099 v 4.05455 c 0,3.81322 0.0891,4.07966 1.49638,4.47668 2.83828,0.80077 4.98256,-0.0416 7.78112,-3.05654 z m -10.77388,-1.75484 c 0,-2.93854 0.26453,-3.85975 1.54556,-5.38214 0.85003,-1.01022 2.33146,-2.30103 3.292,-2.86844 0.96057,-0.56741 1.74649,-1.35661 1.74649,-1.75379 0,-0.76299 -4.6571,-5.00526 -5.49469,-5.00526 -0.26995,0 -0.9645,-0.47136 -1.5435,-1.04746 -0.57897,-0.57609 -1.85835,-1.67185 -2.8431,-2.43499 -1.74454,-1.35196 -1.75208,-1.37971 -0.29405,-1.08264 0.83931,0.17103 2.02074,-0.0844 2.69056,-0.58139 1.02857,-0.76337 1.07006,-0.96941 0.29928,-1.48574 -1.10556,-0.74059 -5.12151,-0.31626 -6.30534,0.66622 -0.48088,0.39911 -0.87433,1.26434 -0.87433,1.92274 0,1.054 0.1251,1.0989 1.04746,0.37562 0.90976,-0.71348 0.96095,-0.70344 0.38949,0.0762 -0.90039,1.22864 -2.19276,14.28531 -1.60908,16.25655 0.45916,1.5508 5.66232,5.77764 7.20507,5.85314 0.51846,0.0253 0.74818,-1.05199 0.74818,-3.50877 z m -13.04777,-4.39712 c -1.38297,-1.38297 -2.5145,-2.22667 -2.5145,-1.87487 0,0.83431 4.29202,5.12633 4.70918,4.70918 0.176,-0.17601 -0.81171,-1.45134 -2.19468,-2.83431 z m 30.74046,2.69604 c 0.56515,-0.39198 3.85506,-5.9396 3.85506,-6.50063 0,-0.12307 -0.43321,-0.22397 -0.96271,-0.22397 -0.71274,0 -0.87067,-0.36673 -0.60822,-1.41237 0.24368,-0.97093 -0.0136,-1.7447 -0.82047,-2.47568 -1.63942,-1.48364 -2.00284,-0.28063 -1.27904,4.23386 0.54038,3.37043 0.4919,3.6257 -0.98534,5.19076 -1.45532,1.54182 -0.89917,2.3669 0.80072,1.18794 z m -27.02018,-7.77472 c -0.0308,-4.70433 -0.32603,-8.15014 -0.76925,-8.97828 -1.19276,-2.2287 -4.89859,-1.44873 -4.84794,1.02034 0.0158,0.73034 0.22193,0.67303 0.97263,-0.26937 0.93016,-1.16767 0.94461,-1.16032 0.58768,0.2993 -0.20134,0.823 -0.36958,2.25295 -0.37406,3.17768 -0.005,0.96686 -0.26253,1.52414 -0.60673,1.31142 -0.3292,-0.20338 -0.59854,-1.06913 -0.59854,-1.92373 0,-1.5159 -0.0292,-1.52739 -1.19711,-0.47046 -0.6584,0.59585 -1.1971,1.53909 -1.1971,2.0961 0,0.557 0.5387,1.63387 1.1971,2.39301 0.6584,0.75916 1.19711,1.73092 1.19711,2.1595 0,0.4286 1.27938,2.12914 2.8431,3.77901 1.5637,1.64987 2.84311,3.00879 2.84311,3.01978 0,0.0113 -0.0226,-3.41542 -0.05,-7.6143 z m 31.45652,3.4444 c 0.005,-0.4938 -0.52576,-0.0898 -1.17982,0.89781 -0.65408,0.98763 -1.185,2.06501 -1.17984,2.39421 0.0158,0.95731 2.34933,-2.29935 2.35966,-3.29202 z m -16.5531,-0.0749 c 1.68192,-0.86625 4.00084,-2.97712 4.00084,-3.6419 0,-0.67894 -1.60238,0.27292 -4.18983,2.48889 -2.16538,1.85451 -2.08815,2.3258 0.1889,1.15301 z m 18.85284,-1.61731 c 0.25787,-2.61107 -0.89437,-2.41335 -1.20016,0.20586 -0.15202,1.30169 -0.005,2.02653 0.38343,1.89919 0.34605,-0.11334 0.71357,-1.06058 0.81673,-2.10514 z m -8.21717,-0.16628 c -0.3154,-0.7885 -0.59053,-1.11899 -0.61139,-0.73441 -0.0507,0.9341 0.64657,2.70636 0.94668,2.40623 0.13098,-0.13099 -0.0204,-0.88332 -0.33529,-1.67182 z m 7.07214,-3.93671 c 0.10927,-1.29621 -3.33878,-3.25435 -4.99754,-2.83803 -0.83976,0.21084 -1.52684,0.59815 -1.52684,0.86084 0,0.26269 0.57897,0.32622 1.2866,0.14117 1.5001,-0.39228 2.90325,1.15744 2.90325,3.20653 0,2.85882 2.08085,1.63724 2.33453,-1.37051 z m -12.50986,0.31549 c 1.30682,-0.18098 1.47511,-0.46866 1.32845,-2.2703 -0.21107,-2.59297 -0.41813,-2.78646 -2.07754,-1.94129 -0.74021,0.377 -1.87422,0.62431 -2.51999,0.54956 -1.568,-0.18143 -1.85245,1.49273 -0.58284,3.4304 0.67131,1.02457 1.23633,1.35714 1.68305,0.99066 0.36988,-0.30341 1.34587,-0.64497 2.16887,-0.75903 z m 5.5745,0.24231 c -0.84902,-2.3817 -3.18031,-3.61222 -3.18031,-1.67869 0,0.69591 1.04508,1.50886 3.42286,2.66265 0.0719,0.0348 -0.0371,-0.40786 -0.24255,-0.98396 z m -10.96144,-3.99125 c 0,-0.46688 0.16356,-1.27493 0.36332,-1.79565 0.23841,-0.6213 0.0326,-0.94679 -0.59854,-0.94679 -0.56285,0 -0.96188,0.49663 -0.96188,1.19711 0,1.83571 -0.83341,1.42314 -1.51332,-0.7491 -0.60915,-1.94619 -0.60915,-1.94619 2.24773,-2.0715 1.5713,-0.069 2.85688,0.0928 2.85688,0.35904 0,0.26638 1.07818,0.90783 2.39593,1.42548 1.41805,0.55703 2.61502,1.51015 2.9328,2.33534 0.48543,1.26065 0.57881,1.29022 0.97477,0.30857 0.59483,-1.47466 -0.45421,-3.57468 -2.18538,-4.37479 -4.05953,-1.87627 -5.52037,-2.01671 -9.1807,-0.88261 -1.96142,0.60773 -3.66728,1.40813 -3.79082,1.7787 -0.28224,0.84673 0.2174,0.85307 1.76945,0.0226 1.07963,-0.57781 1.147,-0.52712 0.59662,0.4489 -0.5012,0.88881 -0.31131,1.35492 0.98816,2.42545 1.85711,1.52995 3.10498,1.73868 3.10498,0.51941 z m 4.55197,-1.64704 c 0.28751,-0.46519 0.1113,-0.57694 -0.52454,-0.33291 -0.52654,0.20201 -1.05798,0.0654 -1.18098,-0.30353 -0.13618,-0.40842 -0.54553,-0.47197 -1.04639,-0.16242 -0.65435,0.40441 -0.58587,0.60127 0.33458,0.96171 1.64517,0.64427 1.93036,0.62504 2.41733,-0.16288 z m -13.06642,-6.48234 c 1.66494,0 3.14731,0.37406 3.79105,0.95663 0.87897,0.79547 1.40616,0.84142 3.12923,0.27276 1.13971,-0.37614 2.80247,-0.50061 3.69504,-0.27658 1.49264,0.37463 1.58928,0.29273 1.20475,-1.02094 -0.95245,-3.25363 -3.85688,-8.81458 -5.70046,-10.91429 -2.32067,-2.6431 -4.17963,-3.68905 -7.55183,-4.24904 -2.09916,-0.34859 -2.72071,-0.18935 -4.18983,1.07309 -1.70791,1.46767 -1.72701,1.55748 -1.92409,9.04623 -0.2403,9.12996 0.25172,10.30623 3.0011,7.17487 1.56799,-1.78587 2.17803,-2.06273 4.54504,-2.06273 z"
       id="path10459" />
  </g>
</svg>
