<?xml version="1.0" encoding="UTF-8" standalone="no"?>
<!-- Created with Inkscape (http://www.inkscape.org/) -->

<svg
   width="119.42265mm"
   height="118.48882mm"
   viewBox="0 0 119.42268 118.48881"
   version="1.1"
   id="svg5"
   inkscape:version="1.1 (c4e8f9ed74, 2021-05-24)"
   sodipodi:docname="ornatei2.svg"
   xmlns:inkscape="http://www.inkscape.org/namespaces/inkscape"
   xmlns:sodipodi="http://sodipodi.sourceforge.net/DTD/sodipodi-0.dtd"
   xmlns="http://www.w3.org/2000/svg"
   xmlns:svg="http://www.w3.org/2000/svg">
  <sodipodi:namedview
     id="namedview7"
     pagecolor="#ffffff"
     bordercolor="#666666"
     borderopacity="1.0"
     inkscape:pageshadow="2"
     inkscape:pageopacity="0.0"
     inkscape:pagecheckerboard="0"
     inkscape:document-units="mm"
     showgrid="false"
     inkscape:zoom="0.66903058"
     inkscape:cx="171.14315"
     inkscape:cy="54.556549"
     inkscape:window-width="2506"
     inkscape:window-height="1403"
     inkscape:window-x="1974"
     inkscape:window-y="0"
     inkscape:window-maximized="1"
     inkscape:current-layer="layer1" />
  <defs
     id="defs2" />
  <g
     inkscape:label="Layer 1"
     inkscape:groupmode="layer"
     id="layer1"
     transform="translate(-90.035592,-229.11335)">
    <path
       style="fill:#000000;stroke-width:0.649376"
       d="m 132.82378,347.29993 -41.884811,-0.32469 -0.342424,-18.50723 c -0.188346,-10.17899 -0.415117,-36.51762 -0.503957,-58.53031 -0.146352,-36.2636 -0.06345,-40.06068 0.88257,-40.4237 0.574254,-0.2204 27.034972,-0.40065 58.801612,-0.40065 h 57.75749 l 0.61278,1.61171 c 0.33884,0.8912 0.61871,11.34204 0.62607,23.37757 0.01,16.94833 -0.16591,21.76586 -0.79574,21.76586 -0.6262,0 -0.85063,-4.95222 -0.99305,-21.91022 -0.10112,-12.05063 -0.39137,-22.1032 -0.64481,-22.33909 -0.66092,-0.61511 -112.688733,-1.23036 -113.669391,-0.62426 -0.648237,0.40062 -0.776994,12.27503 -0.624499,57.59312 l 0.192101,57.08847 h 57.469859 57.46985 l 0.16812,-34.25466 c 0.0925,-18.84003 0.41306,-34.25463 0.71247,-34.25463 0.80581,0 1.37776,18.62627 1.39939,45.57232 0.0147,18.56029 -0.16297,23.93593 -0.80574,24.35162 -0.95292,0.61631 -17.41033,0.66162 -75.82785,0.20887 z m -39.340838,-3.19278 c -0.149126,-0.14873 -0.271153,-25.3284 -0.271153,-55.95463 0,-43.90913 0.171288,-55.74115 0.810059,-55.95409 0.801945,-0.2673 111.043742,0.0756 111.250322,0.34606 0.0589,0.0773 0.21967,25.27131 0.35689,55.98683 l 0.24963,55.84642 h -56.06231 c -30.83426,0 -56.184303,-0.12173 -56.333438,-0.27059 z M 204.13449,311.90889 c 0.11216,-17.14355 0.005,-41.76471 -0.23807,-54.71369 l -0.44203,-23.54361 -54.30956,0.16592 -54.30959,0.16615 0.110077,40.58606 c 0.06055,22.32233 0.13359,46.7935 0.162355,54.38038 l 0.05228,13.79428 40.099018,0.19267 c 22.05446,0.10602 46.52786,0.18137 54.38533,0.16738 l 14.28628,-0.0255 z m -96.31172,28.89728 c -0.70189,-1.13567 0.33894,-2.09532 1.35657,-1.25078 0.75134,0.62357 0.91625,0.43581 0.91625,-1.04317 0,-1.72079 -0.0558,-1.75313 -1.21455,-0.70444 -1.00585,0.91026 -1.50183,0.96826 -2.88634,0.33742 -1.46804,-0.66888 -1.92465,-0.54894 -3.74646,0.98402 -2.912319,2.45055 -5.39095,2.119 -5.668366,-0.75822 -0.224572,-2.32912 1.07379,-2.97223 1.638774,-0.81173 0.382756,1.46367 1.494218,1.68108 2.655792,0.51951 1.41827,-1.41826 0.81219,-3.5662 -1.818259,-6.44388 -2.80483,-3.06844 -3.343321,-5.5752 -1.577057,-7.34147 0.98714,-0.98713 2.226433,-1.3695 2.226433,-0.68694 0,0.18334 -0.338336,0.87526 -0.751862,1.53742 -0.413524,0.66215 -0.568805,1.68097 -0.345068,2.264 0.478233,1.24627 2.344003,1.42153 2.644063,0.24838 0.11417,-0.44644 0.67203,-2.74846 1.23966,-5.11558 2.76248,-11.52014 7.95434,-20.69846 17.95226,-31.73657 5.76995,-6.37024 9.89891,-11.70459 7.46926,-9.6498 -0.69254,0.58571 -3.62972,2.24896 -6.52704,3.69616 -5.04599,2.52044 -8.69373,5.70447 -8.69373,7.5886 0,1.39413 1.15703,1.74986 1.82271,0.56035 0.88705,-1.58509 2.26278,-0.51537 1.40308,1.091 -1.27601,2.38424 -4.52455,1.13287 -4.52455,-1.7429 0,-2.57121 3.24547,-5.49848 9.06085,-8.17248 5.72293,-2.63149 7.4726,-3.84106 8.59804,-5.94396 0.42091,-0.7865 -0.44581,-0.38313 -2.42658,1.12931 -3.74446,2.85911 -6.93272,3.78891 -12.11201,3.53221 -3.86142,-0.19144 -3.96604,-0.15094 -6.19568,2.39735 -2.43418,2.78199 -4.71714,7.39605 -4.71714,9.53375 0,0.91375 -0.30323,1.19804 -0.99486,0.93262 -1.4471,-0.55531 -2.49025,2.4765 -1.434,4.16781 2.21578,3.54802 8.0539,1.59162 6.59506,-2.21008 -0.56257,-1.46602 -1.24514,-1.33435 -2.05016,0.39557 -0.60845,1.3075 -0.72858,1.34164 -1.14277,0.32468 -0.6978,-1.7133 0.1018,-3.08454 1.79867,-3.08454 2.07097,0 3.07245,1.17369 3.07245,3.60079 0,2.25931 -1.40791,3.87478 -3.92394,4.50243 -1.44154,0.35959 -1.618,0.69549 -1.39025,2.64632 0.14348,1.22896 0.0866,2.92883 -0.1264,3.77747 -0.44896,1.78879 -3.57655,3.32332 -5.517717,2.70721 -1.643098,-0.5215 -2.390638,-2.70407 -1.353982,-3.95316 1.025185,-1.23527 3.221029,-1.21404 3.221029,0.0312 0,0.53574 -0.438335,0.97406 -0.97407,0.97406 -0.535735,0 -0.974065,0.29221 -0.974065,0.64936 0,0.90973 2.824195,0.81234 3.766385,-0.12983 0.42859,-0.4286 0.77925,-1.54739 0.77925,-2.48619 0,-2.08703 -3.649343,-7.77397 -4.988599,-7.77397 -0.774972,0 -0.884379,-0.55478 -0.544264,-2.75986 0.858252,-5.56435 2.295741,-9.35321 5.179653,-13.65228 1.62289,-2.41924 2.95072,-4.56884 2.95072,-4.77687 0,-0.20813 -0.91525,-1.53382 -2.03388,-2.94619 -1.91522,-2.41819 -2.01236,-2.80246 -1.66518,-6.58722 0.45374,-4.94638 1.43083,-8.35913 2.90351,-10.14128 0.96383,-1.16635 1.93626,-1.37668 6.96463,-1.50645 5.39003,-0.13916 7.53107,0.25683 11.36411,2.10134 0.53573,0.2578 1.52048,1.60687 2.18831,2.99794 0.66785,1.39105 1.47147,3.03663 1.7858,3.6568 0.86452,1.70569 0.68773,3.9372 -0.43938,5.54638 -0.55598,0.79378 -0.72199,1.44323 -0.36891,1.44323 0.71409,0 3.03914,-3.07588 4.80611,-6.35821 0.96826,-1.79864 1.03887,-2.56837 0.43977,-4.79332 -0.50812,-1.88697 -0.51303,-2.85128 -0.0172,-3.34723 1.01563,-1.01563 0.85168,-5.3966 -0.28414,-7.59306 -1.26364,-2.44359 -2.80673,-3.23388 -6.31449,-3.23388 -3.17494,0 -4.39352,0.84652 -4.39352,3.05209 0,1.77549 1.59825,2.00186 2.52157,0.35716 0.60283,-1.0738 0.66318,-1.07103 1.09515,0.0503 0.28742,0.74614 0.0562,1.58771 -0.62272,2.26665 -0.97817,0.97816 -1.24651,0.98677 -2.84865,0.0915 -2.38485,-1.33251 -2.75848,-5.00808 -0.79008,-7.77245 1.13975,-1.60062 1.83771,-1.94162 3.97417,-1.94162 1.42538,0 2.42969,-0.26195 2.23182,-0.58215 -0.58423,-0.94529 -8.29097,-1.99876 -10.75625,-1.47032 l -2.27284,0.48719 0.22033,4.52153 c 0.19986,4.10171 0.0671,4.68685 -1.43009,6.30234 -2.04325,2.20471 -5.46665,2.43289 -7.23213,0.48206 -1.78073,-1.96767 -2.70493,-1.58638 -3.92996,1.62131 -1.107534,2.90005 -1.08503,5.65286 0.1182,14.45941 0.44111,3.22856 -0.963508,5.99811 -3.042045,5.99811 -1.549381,0 -2.391546,-1.72913 -1.349628,-2.77104 0.547885,-0.54789 0.735602,-0.53674 0.735602,0.0437 0,0.42858 0.43833,0.77926 0.974065,0.77926 1.290599,0 1.266223,-4.57528 -0.04324,-8.11721 -1.874505,-5.0703 -2.274572,-8.61743 -1.293193,-11.46591 0.501834,-1.45657 0.781014,-2.99078 0.6204,-3.40934 -0.160612,-0.41854 0.690329,-1.91836 1.890984,-3.33292 1.200655,-1.41453 2.344035,-3.15635 2.540835,-3.87066 0.19681,-0.71431 0.57822,-1.83585 0.84759,-2.49231 0.40561,-0.98846 0.22301,-1.15582 -1.06273,-0.97405 -1.15218,0.16297 -1.606461,0.69001 -1.76175,2.04429 -0.166845,1.4551 -0.495761,1.78401 -1.623441,1.62345 -1.055478,-0.15021 -1.464395,-0.71768 -1.612088,-2.23676 -0.305037,-3.13748 2.42093,-5.00995 6.691659,-4.59646 2.12124,0.20542 3.88288,-0.0123 5.08139,-0.62738 3.35235,-1.72091 10.12204,-1.84841 15.26121,-0.28743 2.52588,0.76723 4.76971,1.68166 4.9863,2.03214 0.21672,0.35046 0.97928,0.95052 1.69485,1.33349 1.00107,0.53576 1.27441,0.49912 1.18564,-0.15879 -0.24662,-1.82785 0.0793,-3.07595 1.05897,-4.05562 1.56253,-1.56256 1.89976,-1.2578 1.92481,1.73939 0.0147,1.81142 0.86938,4.54516 2.48571,7.95487 1.35442,2.85727 2.85385,6.80223 3.33203,8.76658 l 0.86943,3.57158 0.0398,-4.87032 c 0.0432,-5.27282 -1.20594,-9.05128 -3.73622,-11.3024 -0.80978,-0.72044 -1.39048,-2.01422 -1.39048,-3.09798 v -1.86093 l 13.1499,0.17573 13.14988,0.17573 0.1988,1.71566 c 0.14873,1.28428 -0.28014,2.05663 -1.70572,3.07175 -2.63011,1.8728 -3.81521,4.75066 -4.34633,10.55448 -0.5093,5.56494 0.55959,7.81066 1.1888,2.49776 0.21059,-1.7778 1.56997,-5.76561 3.02088,-8.86181 1.45093,-3.09622 2.81915,-6.76194 3.04048,-8.14607 0.54592,-3.41391 2.41256,-3.17206 2.70338,0.35029 0.11216,1.3585 0.4044,2.36571 0.64939,2.23826 7.36861,-3.83356 9.31674,-4.48005 13.55516,-4.49817 2.43289,-0.01 5.65612,0.43079 7.16274,0.98044 1.95788,0.71426 4.00899,0.89291 7.19026,0.6262 5.41503,-0.45398 7.27892,0.31742 7.27892,3.0125 0,1.02969 -0.17745,2.33442 -0.39416,2.89936 -0.54958,1.4322 -2.20334,1.28806 -2.20334,-0.19218 0,-1.73087 -1.33798,-2.61666 -3.3647,-2.22755 -1.60651,0.30843 -1.68515,0.46728 -1.01607,2.0529 0.39886,0.94522 1.69381,2.75367 2.87766,4.01878 1.18388,1.26512 2.15248,2.76359 2.15248,3.32993 0,0.56636 0.43835,2.0788 0.97408,3.36099 1.21166,2.89995 1.20744,6.73456 -0.0123,11.78895 -1.21424,5.02867 -1.19512,5.61594 0.17524,5.38582 1.5074,-0.25309 1.5478,2.30968 0.041,2.59988 -2.05573,0.39589 -3.10621,-2.38039 -2.38187,-6.29488 0.51451,-2.7805 0.4193,-4.45693 -0.46102,-8.11721 -1.49383,-6.21124 -1.85859,-6.58644 -4.46805,-4.59612 -2.81964,2.15064 -5.51443,2.08729 -7.62292,-0.17916 -2.18054,-2.34395 -2.59179,-4.45649 -1.48365,-7.62143 0.54584,-1.55907 0.67084,-2.82428 0.3142,-3.18092 -0.80269,-0.8027 -9.14795,-0.61224 -9.98815,0.228 -0.46227,0.4623 -0.41949,0.67141 0.13745,0.67141 0.44482,0 1.52603,0.71728 2.4027,1.59395 3.16764,3.16764 1.2723,10.05979 -2.2483,8.17562 -1.48615,-0.79536 -1.61213,-1.21156 -0.76934,-2.54198 0.4585,-0.72376 0.68285,-0.67649 1.20332,0.2535 0.7509,1.34181 2.1095,0.74607 2.1095,-0.92499 0,-2.14762 -2.02944,-3.30054 -4.73547,-2.69025 -3.49842,0.78902 -5.44537,2.26963 -7.00527,5.32729 -1.14292,2.2403 -1.23834,2.92155 -0.58114,4.14953 0.43245,0.80804 0.60899,1.75603 0.3923,2.10663 -0.21672,0.35062 0.2487,0.80554 1.03418,1.01096 1.42818,0.37346 1.42818,0.37346 -0.007,1.90145 -0.78954,0.84042 -1.43549,1.83764 -1.43549,2.21607 0,1.42917 3.35773,6.61933 4.96262,7.67089 l 1.67226,1.09571 -0.17671,-4.1198 c -0.26256,-6.1263 0.42271,-8.17405 3.20649,-9.58154 1.29177,-0.65312 3.34419,-1.70817 4.56095,-2.34453 2.36775,-1.23836 3.65282,-1.32517 8.97757,-0.60651 3.9354,0.53112 4.15466,0.73308 5.96081,5.49057 1.93009,5.08394 1.82585,10.44922 -0.27256,14.0299 l -1.62916,2.77993 2.62795,3.75151 c 3.51899,5.02351 6.70472,15.82228 4.99134,16.91932 -1.08047,0.69183 -4.13296,5.37176 -4.65669,7.13947 -0.55909,1.88707 0.66,4.08314 2.26668,4.08314 1.44637,0 1.63678,-0.67814 0.50749,-1.80745 -0.9621,-0.96208 -0.27646,-1.73016 1.07983,-1.20972 2.74687,1.05409 1.48116,4.31591 -1.67473,4.31591 -3.24718,0 -4.65906,-3.81866 -2.91116,-7.87369 0.35712,-0.82844 0.0712,-1.05524 -1.33,-1.05524 -1.9562,0 -4.13617,-2.15256 -4.13617,-4.08417 0,-1.37185 1.65872,-3.22132 2.88905,-3.22132 1.20616,0 2.50436,1.75112 1.95601,2.63839 -0.34142,0.5524 -0.59281,0.53514 -0.96443,-0.0663 -0.62249,-1.00718 -2.58189,-0.34061 -2.58189,0.87834 0,0.49158 0.54359,1.38572 1.20795,1.98696 2.31285,2.0931 6.3047,-0.8832 5.81364,-4.33461 -0.15143,-1.06418 -0.57508,-1.37588 -1.66421,-1.22442 -1.22732,0.17058 -1.46112,-0.0994 -1.46112,-1.68836 0,-2.07549 -2.38736,-5.67495 -6.11611,-9.22139 -2.19933,-2.09179 -2.77343,-2.29351 -7.52002,-2.64227 -4.82783,-0.35475 -9.74144,-2.05691 -9.74144,-3.37462 0,-0.28512 0.89873,-0.0535 1.99715,0.51438 2.47952,1.2822 9.13347,2.41603 9.868,1.6815 0.29907,-0.29907 -1.04206,-0.70744 -2.98032,-0.9075 -3.4469,-0.35575 -8.36667,-2.35778 -9.23109,-3.75646 -0.2388,-0.38658 0.98319,0.007 2.71578,0.87625 3.7422,1.87585 7.74407,2.72883 8.33289,1.77611 0.24323,-0.39371 -0.27918,-0.6693 -1.26896,-0.6693 -2.19129,0 -6.16945,-1.67651 -7.14546,-3.0113 -0.63799,-0.87247 -1.01679,-0.91591 -2.24675,-0.25764 -1.0699,0.57258 -1.67583,0.59535 -2.18896,0.0822 -0.39023,-0.39024 -1.16247,-0.7003 -1.71607,-0.68901 -0.70363,0.0147 -0.46912,0.49352 0.77925,1.5923 0.98218,0.86447 1.7858,1.99241 1.7858,2.50652 0,0.51411 3.06501,2.88865 6.81114,5.27677 3.74612,2.38812 7.41278,5.10689 8.1481,6.04172 1.69359,2.15305 1.47675,4.94235 -0.40509,5.21123 -1.57267,0.22457 -3.19525,-1.40739 -2.50674,-2.52144 0.33541,-0.54271 0.64034,-0.45766 1.06223,0.29624 0.79028,1.41212 1.82601,1.34416 1.82601,-0.11978 0,-1.45495 -2.30276,-3.61092 -7.79253,-7.29576 -2.32149,-1.55824 -4.87728,-3.40743 -5.67948,-4.10932 -0.8022,-0.70187 -1.61343,-1.12124 -1.80276,-0.93192 -0.3547,0.35473 0.66593,1.63211 10.07977,12.6154 3.03582,3.54198 6.49562,7.69256 7.68841,9.22352 2.89435,3.71489 6.93755,12.53242 7.88635,17.19878 0.70972,3.49041 2.99365,8.15272 4.02511,8.21668 1.11108,0.069 1.22869,-2.73882 0.16395,-3.91531 -0.87423,-0.96603 -0.92472,-1.24749 -0.22089,-1.23156 3.48283,0.0788 4.18045,4.38374 1.26345,7.7964 -1.05694,1.23657 -1.9336,2.60329 -1.94813,3.03717 -0.0147,0.43388 -0.59592,1.09368 -1.29198,1.4662 -1.21193,0.6486 -1.2188,0.75961 -0.16223,2.61625 1.09939,1.9321 3.67301,2.82717 2.98673,1.03875 -0.45509,-1.18599 0.94757,-2.04003 1.85695,-1.13067 1.04143,1.04143 -0.47553,3.98717 -2.05322,3.98717 -0.69458,0 -2.20482,-0.79258 -3.35605,-1.76128 -1.5388,-1.29481 -2.67026,-1.71158 -4.27202,-1.5736 -1.50736,0.12983 -2.29948,-0.12664 -2.57033,-0.83246 -0.5548,-1.44578 -1.55416,-0.60576 -1.55416,1.30632 0,1.40675 0.16248,1.52098 1.29876,0.91289 1.10102,-0.58924 1.29876,-0.49384 1.29876,0.62654 0,1.69588 -2.89901,1.84667 -3.56009,0.18506 -0.7136,-1.79356 -1.19229,-4.24932 -1.15192,-5.90963 0.028,-1.15064 -0.14677,-1.34245 -0.70999,-0.77925 -0.4109,0.41091 -0.74707,2.19356 -0.74707,3.9615 0,1.76793 -0.17377,3.21442 -0.38639,3.21442 -0.86658,0 -2.53582,-2.46634 -2.53582,-3.74672 0,-1.98494 -0.80004,-2.19185 -2.96271,-0.76622 -2.31319,1.52486 -8.56301,1.72233 -11.1935,0.3537 -2.34462,-1.21991 -4.35215,-3.52679 -5.14817,-5.91582 -0.91603,-2.74927 0.3601,-8.56483 2.58293,-11.77078 1.25205,-1.80583 1.78577,-3.3863 1.78577,-5.28817 0,-2.39403 -0.20248,-2.76341 -1.72395,-3.14525 -0.94816,-0.23808 -2.1901,-0.13917 -2.75985,0.21966 -1.40364,0.88381 -1.71397,2.78587 -0.45452,2.78587 0.62325,0 0.86019,-0.36776 0.62752,-0.97405 -0.48938,-1.27535 0.67293,-1.25358 1.74035,0.0326 1.22366,1.47442 -0.63781,3.20308 -2.85101,2.64759 -3.34317,-0.83909 -2.44999,-5.51323 1.32803,-6.9496 2.33294,-0.887 5.65509,0.30713 6.5953,2.37062 0.8958,1.96609 0.96573,5.45469 0.15216,7.59433 -0.50917,1.33923 -0.32097,1.71971 1.3345,2.69761 1.65837,0.97963 1.89966,1.46944 1.7292,3.51042 -0.20788,2.48921 -1.44641,3.28707 -3.64526,2.34826 -0.91543,-0.39085 -0.82796,-0.54013 0.52496,-0.89593 2.15962,-0.56791 2.09257,-2.26219 -0.0996,-2.51592 -2.01823,-0.23365 -3.79809,1.8316 -3.79428,4.40252 0.005,2.70014 2.26469,5.70997 4.8184,6.4151 3.32498,0.91807 6.43011,-0.19218 4.27046,-1.52692 -0.35715,-0.22065 -0.6494,-0.97526 -0.6494,-1.67673 0,-1.20179 0.091,-1.21566 1.57992,-0.24028 1.26094,0.8262 1.86367,0.88329 2.9856,0.28286 1.40181,-0.75021 1.40208,-0.75485 0.0962,-1.66946 -0.72018,-0.50442 -1.72466,-0.7578 -2.2322,-0.56303 -1.53472,0.58892 -2.65404,-1.52598 -2.57786,-4.8707 0.0535,-2.35028 -0.24666,-3.4323 -1.18881,-4.28494 -2.23831,-2.02563 -1.21387,-6.78378 1.46055,-6.78378 1.29246,0 1.31089,0.0726 0.30184,1.18753 -0.59108,0.65314 -1.07471,1.52981 -1.07471,1.94813 0,1.17631 1.29081,0.89792 1.74253,-0.37581 0.22163,-0.62505 0.82942,-1.63366 1.35055,-2.24138 0.8319,-0.9701 0.81725,-1.69069 -0.12026,-5.90445 -0.95636,-4.29867 -2.4148,-7.63296 -7.58565,-17.34222 l -1.55627,-2.92219 -0.18579,6.33021 c -0.19169,6.52986 0.40693,8.93013 2.22724,8.93013 0.76545,0 0.91944,-0.40705 0.61414,-1.62342 -0.44951,-1.79103 0.32709,-2.14149 1.53097,-0.6909 1.14147,1.37539 -0.2497,3.61308 -2.24626,3.61308 -2.77566,0 -3.80619,-2.5314 -3.38195,-8.30742 0.33852,-4.60897 0.29683,-4.85073 -0.52715,-3.05668 -0.49211,1.07147 -0.90793,2.25608 -0.92405,2.63247 -0.0408,0.9527 -4.46896,5.1578 -4.93776,4.68899 -0.21034,-0.21033 0.0535,-1.22508 0.58617,-2.25512 0.53266,-1.03003 1.31861,-3.61413 1.74658,-5.74239 0.72268,-3.59398 0.62639,-4.51708 -1.3519,-12.96086 -1.17148,-5.0002 -2.25632,-10.47931 -2.41073,-12.17583 -0.25687,-2.82187 -1.02873,-4.02776 -1.5624,-2.44086 -0.11904,0.35401 -0.0248,14.30749 0.20935,31.00774 0.46007,32.81008 0.59965,34.13301 4.08338,38.70041 1.16954,1.53335 1.6841,2.90748 1.54454,4.12469 l -0.20935,1.82529 H 149.38315 136.3956 l -0.1961,-1.68898 c -0.14186,-1.22066 0.25962,-1.98757 1.44757,-2.76596 0.90406,-0.59236 2.16119,-2.02397 2.79365,-3.18136 1.21885,-2.23051 1.32274,-7.91272 0.9556,-52.26874 -0.12984,-15.66908 -0.85838,-20.20963 -1.73758,-10.82728 -0.25358,2.70605 -1.01847,6.86925 -1.69975,9.25155 -1.7306,6.05166 -1.70807,15.16783 0.0456,18.43978 0.84601,1.57846 1.04962,2.5412 0.59668,2.82114 -1.07466,0.66417 -5.26613,-3.11109 -6.21206,-5.59518 -0.94739,-2.48798 -0.95596,-2.82148 0.1102,4.28542 0.31531,2.1018 0.11217,2.98666 -1.01464,4.41916 -1.91338,2.43245 -4.73587,2.21119 -5.03564,-0.39478 -0.13622,-1.18424 0.14775,-1.92516 0.83975,-2.19069 1.42121,-0.54538 1.99562,0.17033 1.05053,1.30917 -0.94104,1.1339 -10e-4,1.88235 1.59493,1.26992 0.99604,-0.38219 1.07826,-1.12372 0.72349,-6.52461 -0.25614,-3.89933 -0.17205,-5.95233 0.23365,-5.70162 0.78779,0.48686 0.8063,-0.35517 0.0346,-1.57422 -0.89164,-1.40844 -7.61719,12.81108 -8.84532,18.70118 -0.92288,4.4262 -0.91517,4.87345 0.10333,5.99894 1.4677,1.6218 2.3891,1.54235 1.84898,-0.15954 -0.62213,-1.96018 1.0518,-1.27571 2.29721,0.93933 0.90842,1.61569 0.85475,1.94499 -0.79675,4.88732 -2.0815,3.70841 -1.72903,4.59234 0.9367,2.34929 1.0493,-0.88294 2.21339,-1.60535 2.58689,-1.60535 0.46809,0 0.47065,-0.25219 0.007,-0.81173 -1.29776,-1.57045 -1.57675,-5.38778 -0.56985,-7.7976 1.18542,-2.83709 3.13212,-3.97598 5.90653,-3.45549 5.55267,1.04167 6.87843,7.51919 1.53897,7.51919 -1.38533,0 -1.81825,-0.30923 -1.81825,-1.29877 0,-0.71431 0.29222,-1.29873 0.64937,-1.29873 0.35716,0 0.6494,0.29221 0.6494,0.64937 0,1.03678 1.95029,0.74994 2.37194,-0.34889 0.46809,-1.2198 -1.51433,-3.54738 -3.02134,-3.54738 -2.17466,0 -3.68163,3.12428 -3.31569,6.87424 0.0378,0.38783 1.14358,2.08466 2.45719,3.77074 2.15952,2.77183 2.38947,3.45095 2.39985,7.08737 0.0245,8.58984 -6.62777,13.0855 -15.11246,10.21314 -3.12801,-1.05895 -3.4479,-1.06759 -3.788,-0.10235 -0.48324,1.37144 -2.1715,3.32703 -2.87222,3.32703 -0.3018,0 -0.55802,-1.68027 -0.56938,-3.73391 -0.0189,-3.42454 -0.0996,-3.62947 -0.97406,-2.47341 -0.52438,0.69331 -0.95341,1.95444 -0.95341,2.80256 0,0.8481 -0.30251,2.10725 -0.67223,2.79807 -0.71152,1.32949 -2.87357,1.69911 -3.54873,0.60669 z m 8.47708,-6.14689 c 0.15781,-2.36027 -0.11953,-3.33096 -1.37995,-4.82876 -1.75998,-2.09164 -1.97139,-3.05796 -0.76571,-3.50004 0.64829,-0.23782 0.64736,-0.47182 -0.005,-1.16269 -0.67801,-0.71846 -0.99148,-0.68994 -1.84971,0.16837 -0.94488,0.94489 -0.86109,1.38643 0.97871,5.15752 1.1066,2.2683 2.01202,4.98083 2.01202,6.02785 0,2.92268 0.78637,1.47174 1.00925,-1.86215 z m 45.04905,3.06235 c -0.026,-0.26787 -0.61246,-1.36371 -1.30301,-2.43517 -0.69057,-1.07147 -1.91114,-3.26312 -2.71241,-4.87032 -1.43765,-2.88374 -1.45942,-3.32172 -1.65449,-33.27664 -0.19144,-29.37966 -0.23856,-30.37631 -1.47074,-31.03574 -1.02154,-0.54671 -1.34721,-0.45126 -1.64836,0.48308 -0.20641,0.64044 -0.9377,2.33332 -1.62511,3.76194 -1.19966,2.49331 -1.22982,3.74372 -0.75147,31.17009 l 0.49833,28.57259 3.39506,2.23286 c 1.86728,1.22808 3.26795,2.35999 3.11259,2.51535 -0.4235,0.4235 -5.7459,-2.42619 -6.60973,-3.53893 -0.64608,-0.83227 -1.14782,-0.66621 -3.57779,1.18417 -1.55448,1.1837 -4.06546,2.70794 -5.57996,3.3872 -1.5145,0.67929 -2.75364,1.48289 -2.75364,1.7858 0,0.30292 5.11386,0.55076 11.3641,0.55076 6.25026,0 11.34274,-0.21917 11.31663,-0.48704 z m -32.93525,-0.83845 c 3.09725,-0.86022 6.09152,-3.86747 6.61172,-6.64046 0.50743,-2.7048 -0.79241,-7.13388 -3.07257,-10.46957 -1.24115,-1.81571 -1.73207,-3.36747 -1.74628,-5.5197 -0.0172,-2.43549 -0.14873,-2.77198 -0.71159,-1.80399 -0.79908,1.37433 -0.33928,4.48309 1.05954,7.16384 1.15059,2.20505 1.20378,2.58172 0.28426,2.01344 -1.185,-0.7324 -3.78967,0.30095 -4.5781,1.81626 l -0.75625,1.45344 1.59107,-1.46109 c 2.04758,-1.88032 3.45443,-1.84591 5.43317,0.13277 3.31807,3.31807 1.59164,9.92375 -3.15714,12.07974 -3.53479,1.60487 -4.20978,1.57377 -7.84944,-0.36145 -3.42473,-1.82095 -3.63392,-1.87833 -3.63392,-0.9969 0,0.78379 2.31057,2.0489 4.87032,2.66664 2.7803,0.67096 2.98592,0.66831 5.65521,-0.0729 z m -20.72758,-1.92204 c -0.40009,-1.52994 -2.28639,-1.7079 -3.43487,-0.32405 -0.67416,0.81231 -0.5859,0.97405 0.53154,0.97405 0.73696,0 1.52349,0.297 1.74782,0.65998 0.66339,1.0734 1.52372,0.0979 1.15551,-1.30998 z m 79.02817,-7.39308 c -0.0147,-2.4536 -3.42248,4.23832 -3.60057,7.06903 -0.16296,2.59171 -0.15928,2.58825 1.72248,-1.54932 1.03725,-2.28077 1.88238,-4.76464 1.87809,-5.51971 z m 8.41106,8.26096 c 0.15732,-0.13671 -0.16616,-0.70104 -0.71895,-1.25378 -0.90705,-0.90707 -1.10894,-0.90104 -2.0718,0.0618 -1.59063,1.59061 -1.29741,2.35288 0.71895,1.86915 0.98217,-0.23562 1.91448,-0.54037 2.0718,-0.67722 z m -49.94018,-3.42231 3.51191,-2.6388 -0.20788,-28.95952 c -0.19414,-27.03399 -0.29204,-29.14973 -1.47324,-31.82005 -0.84839,-1.91794 -1.6676,-2.86051 -2.4861,-2.86051 -0.6714,0 -1.31523,-0.49302 -1.4307,-1.09561 -0.11536,-0.60257 -0.20985,14.10375 -0.20985,32.68073 v 33.77635 l -1.87106,2.4541 c -2.20802,2.89604 -1.2739,2.55158 4.16707,-1.53669 z m 25.71977,3.18612 c -6.84552,-2.0514 -8.44435,-11.22685 -2.34846,-13.47735 l 2.25591,-0.83286 -2.11049,0.32957 c -1.16075,0.18138 -2.11046,0.20739 -2.11046,0.0582 0,-0.14923 0.59196,-1.27466 1.3155,-2.50097 1.44485,-2.44884 1.88398,-6.59366 0.81214,-7.66551 -0.47653,-0.47654 -0.58317,0.19561 -0.35384,2.23008 0.28318,2.51234 0.04,3.331 -1.77081,5.96301 -1.83783,2.6712 -2.11004,3.61446 -2.18742,7.57983 -0.0866,4.44422 -0.0429,4.57067 2.33721,6.7563 1.61047,1.47881 3.029,2.20859 4.22097,2.17153 l 1.79533,-0.0557 z m 7.46568,-0.68542 c 1.67044,-1.47439 1.76192,-1.48639 -3.33729,0.43825 l -2.27281,0.85786 2.03852,0.0285 c 1.17597,0.0172 2.68721,-0.54403 3.57158,-1.3246 z m -47.99824,-1.37578 c 1.01362,-0.70609 2.10067,-2.33802 2.54481,-3.82042 0.68979,-2.30227 0.6301,-2.78238 -0.54081,-4.35068 -1.51833,-2.03367 -4.28086,-2.4079 -4.62395,-0.62645 -0.15315,0.79543 0.19659,1.13641 1.16586,1.13641 0.84753,0 1.21222,0.27906 0.94011,0.71934 -0.26861,0.43462 -1.38248,0.56936 -2.81415,0.34042 -1.90928,-0.3053 -2.52519,-0.12959 -3.17083,0.9041 -0.44968,0.72008 -1.51114,1.28303 -2.41919,1.28303 -0.95003,0 -1.61793,0.37343 -1.61793,0.9046 0,1.28133 1.80637,1.81447 3.34954,0.98858 0.71902,-0.38481 1.45208,-0.5549 1.62902,-0.37797 0.46784,0.46787 -1.01581,3.03042 -1.75454,3.03042 -1.46786,0 -0.46914,1.23164 1.15926,1.42963 2.45382,0.29837 4.07339,-0.11265 6.1528,-1.56101 z m 60.12306,-0.72427 c -0.1237,-0.86938 -0.73841,-1.49369 -1.59017,-1.61513 -1.21165,-0.17278 -1.36159,0.0751 -1.17786,1.94813 0.11585,1.18034 0.22924,2.22945 0.25199,2.3313 0.0221,0.10186 0.64365,-0.13719 1.37963,-0.53097 0.85607,-0.45817 1.26548,-1.2267 1.13641,-2.13333 z m -78.95833,0.17769 c 0.31724,-2.16153 -0.14641,-2.77593 -1.65735,-2.19612 -1.3727,0.52675 -1.89599,2.21904 -1.01457,3.28109 1.22411,1.47495 2.36414,1.01204 2.67192,-1.08497 z m 85.22261,0.0734 c 0.20543,-0.33247 0.10406,-0.77111 -0.22531,-0.97472 -0.32944,-0.20371 -0.44202,-1.02739 -0.25017,-1.83064 0.32594,-1.36452 0.27489,-1.39056 -0.77707,-0.39645 -0.74202,0.70118 -0.97754,1.53153 -0.69075,2.43514 0.45828,1.44389 1.31577,1.78217 1.9434,0.76667 z m -92.00442,-0.80868 c 0.55776,-0.55775 0.57135,-0.99568 0.0504,-1.62343 -1.16971,-1.40942 -2.50255,-1.00262 -2.50255,0.76379 0,1.72135 1.17765,2.13417 2.45219,0.85964 z m 16.62279,0.31609 c -0.75922,-0.14898 -2.05209,-0.98581 -2.87304,-1.8597 -1.56656,-1.6675 -2.56501,-2.0332 -2.56501,-0.93947 0,1.46561 2.65179,3.24461 4.70796,3.15846 1.37917,-0.0579 1.63216,-0.18236 0.73009,-0.35929 z m 62.07792,-2.9615 c 2.11011,-3.67945 2.32175,-4.3833 1.31798,-4.3833 -0.35716,0 -0.64937,0.3705 -0.64937,0.82333 0,1.78914 -3.32367,5.6547 -5.37046,6.24607 l -2.09738,0.60598 2.42201,0.0587 c 2.26148,0.0547 2.55165,-0.16738 4.37722,-3.35066 z m -74.6461,0.47133 c 0.96847,-1.16694 0.86964,-1.29118 -1.47412,-1.85347 -1.45962,-0.35016 -1.78579,-0.20862 -1.78579,0.77449 0,2.21337 1.81884,2.81537 3.25991,1.07898 z m 84.68247,-0.0928 c 0.61069,-1.59142 -0.53696,-2.41807 -2.15491,-1.55218 -0.75267,0.40283 -1.36846,0.96564 -1.36846,1.25071 0,1.64755 2.91124,1.89666 3.52337,0.30147 z m 8.79502,-3.63557 c -0.01,-0.44082 -0.34297,-0.21696 -0.73804,0.49728 -0.39507,0.71431 -1.18979,1.89727 -1.76604,2.62879 -0.57626,0.73151 -0.24421,0.50773 0.73804,-0.49727 0.9822,-1.00503 1.77692,-2.188 1.76604,-2.6288 z m -10.67916,-0.33266 c -0.0881,-0.0994 -0.93145,0.11266 -1.87387,0.47097 -1.09652,0.41689 -1.71349,1.13959 -1.71349,2.0071 0,1.2658 0.12419,1.23458 1.87384,-0.47096 1.03062,-1.00463 1.8017,-1.90783 1.71352,-2.00711 z m -72.42133,0.82989 c 0,-1.29876 -0.32468,-1.62345 -1.62345,-1.62345 -1.88745,0 -2.11725,1.10541 -0.48701,2.34291 1.65582,1.25697 2.11046,1.10198 2.11046,-0.71946 z m -11.15267,-3.90132 c -0.60467,-0.60465 -4.43237,2.94513 -4.43237,4.11057 0,0.75037 0.71432,0.35353 2.40269,-1.33484 1.32149,-1.32149 2.23484,-2.57055 2.02968,-2.77573 z m 15.6753,1.46615 c 0.0123,-0.26787 -0.5706,-0.48704 -1.29613,-0.48704 -1.65764,0 -2.33989,1.64313 -1.23502,2.97441 0.74351,0.89591 0.93213,0.84007 1.67307,-0.49528 0.45928,-0.82778 0.84542,-1.72423 0.85808,-1.99209 z m 58.34332,2.27281 c -0.12026,-0.62502 -0.64917,-1.1364 -1.17514,-1.1364 -0.52596,0 -1.05477,0.51138 -1.17513,1.1364 -0.15364,0.79734 0.19708,1.13641 1.17513,1.13641 0.97806,0 1.32868,-0.33907 1.17514,-1.13641 z m 14.19118,0.2042 c -0.19684,-0.51266 -0.069,-1.02836 0.28401,-1.146 0.94252,-0.31418 -3.28093,-4.41872 -4.52562,-4.39817 -0.72278,0.0123 -0.3372,0.64483 1.21345,1.99194 1.67614,1.45611 1.81149,1.69253 0.5156,0.90062 -2.77593,-1.69637 -3.5541,-0.45754 -1.05544,1.68016 2.33366,1.99656 4.15127,2.49143 3.568,0.97145 z m -18.18191,-0.73497 c 0.49502,-1.28998 -0.69062,-2.51778 -1.96067,-2.03043 -0.60576,0.23243 -0.83649,0.87149 -0.61729,1.70967 0.41245,1.57721 2.01911,1.77711 2.57796,0.32076 z m 11.71716,-3.09406 c 0.12861,-2.27203 -0.57486,-3.12231 -1.43373,-1.73262 -0.22064,0.35716 -0.96853,0.64937 -1.66178,0.64937 -0.82751,0 -1.26043,0.4461 -1.26043,1.29876 0,1.59186 0.50069,1.63462 2.10803,0.17991 1.19325,-1.07986 1.22008,-1.05434 0.77123,0.73404 -0.35877,1.42948 -0.25864,1.78423 0.43832,1.55264 0.51534,-0.17132 0.96137,-1.32336 1.03836,-2.68218 z m -78.63546,1.23058 c 0.19693,-0.51318 0.77219,-0.77412 1.27837,-0.57989 1.63971,0.62922 0.97281,-0.85217 -0.73367,-1.6297 -2.41764,-1.10153 -2.69719,-0.96129 -2.38079,1.19452 0.30242,2.06047 1.23672,2.57698 1.83609,1.01507 z m 6.73438,-1.57785 c -0.005,-0.58334 -0.25042,-1.43976 -0.54435,-1.90312 -0.43793,-0.69035 -0.65241,-0.69035 -1.188,0 -0.89595,1.15487 -1.48234,2.92106 -1.09755,3.30585 0.67587,0.67588 2.83935,-0.39652 2.8299,-1.40273 z m 65.59701,0.88747 c 0,-0.53574 -0.29221,-0.97406 -0.64937,-0.97406 -0.35715,0 -0.64936,-0.43834 -0.64936,-0.97407 0,-1.26632 -1.22965,-1.2604 -1.71649,0.007 -0.44287,1.15413 0.83788,2.91396 2.12067,2.91396 0.49202,0 0.89455,-0.43834 0.89455,-0.97408 z m -77.28554,-0.94409 c 0.88755,-0.68194 1.43265,-1.42099 1.21133,-1.64229 -0.22133,-0.22139 -1.23972,0.33388 -2.26311,1.23382 -2.16803,1.90643 -1.32431,2.23411 1.05178,0.40847 z m 15.90449,-0.66284 c 1.12478,-1.24285 1.10625,-1.30284 -0.60322,-1.95277 -2.65687,-1.01013 -4.05774,0.57218 -2.17416,2.45576 1.05682,1.05681 1.42634,0.98991 2.77738,-0.50299 z m 56.71622,-0.82824 c 0.24322,-2.11353 -0.46547,-2.28268 -2.0093,-0.4796 -1.53148,1.78864 -1.40231,2.72073 0.3427,2.47291 1.04616,-0.14848 1.51946,-0.71468 1.6666,-1.99331 z m -62.87035,-1.27105 c 0.89289,-0.36644 2.13086,-0.92438 2.75102,-1.23986 0.62019,-0.31548 1.71603,-0.57363 2.43517,-0.57363 0.71917,0 1.30757,-0.29221 1.30757,-0.64937 0,-1.27461 -4.76441,-0.64458 -7.57313,1.00144 -4.34545,2.5466 -3.69868,3.42231 1.07937,1.46142 z m -8.92231,-0.8657 c 1.10432,-1.02397 1.77915,-2.32404 1.77915,-3.42756 0,-3.77673 7.56889,-16.85435 12.09496,-20.8978 l 1.81722,-1.62342 -1.88643,2.55617 c -3.41477,4.62716 -6.29464,9.08571 -7.85875,12.16676 -1.46129,2.8785 -3.05417,8.36046 -2.56997,8.84468 0.12389,0.12394 1.37987,-0.36381 2.79108,-1.08374 2.38396,-1.21622 2.59456,-1.55153 2.97103,-4.73029 0.4717,-3.98286 4.40392,-12.55465 8.32092,-18.13872 3.56684,-5.08487 4.02688,-4.44068 0.55814,0.78159 -3.76422,5.66716 -5.58396,9.4359 -6.77439,14.02993 -1.31861,5.0887 -1.28956,6.02898 0.18629,6.02898 0.96031,0 1.28465,-0.64451 1.5802,-3.14006 0.62931,-5.31356 2.65638,-10.30799 7.72525,-19.03407 2.88659,-4.9693 3.65964,-6.80664 2.58415,-6.14196 -0.41786,0.25825 -0.75972,0.1772 -0.75972,-0.1799 0,-0.35716 0.29221,-0.82996 0.64937,-1.0507 0.35715,-0.22065 0.64937,-0.73216 0.64937,-1.13651 0,-0.40435 -0.42905,-0.16788 -0.95342,0.52535 -1.25158,1.65476 -1.25377,0.72293 -0.005,-1.69391 1.4943,-2.88969 0.65656,-2.29797 -1.1949,0.84397 -0.89446,1.51791 -3.25148,4.54973 -5.23783,6.73738 -6.79444,7.48298 -11.44561,13.55583 -13.77924,17.99096 -2.37458,4.51296 -5.60893,13.42255 -4.87264,13.42255 0.22268,0 1.20547,-0.74238 2.18401,-1.64973 z m 15.41607,-26.51539 c 0,-0.13302 1.43032,-2.03123 3.17849,-4.21817 2.36309,-2.95618 3.27873,-3.71499 3.56925,-2.95792 0.42664,1.11181 -0.76644,3.8751 -1.39971,3.24184 -0.215,-0.215 -0.0454,-0.73692 0.37731,-1.15956 0.42263,-0.42263 0.76842,-1.04976 0.76842,-1.39364 0,-0.34388 -1.18495,1.02957 -2.63323,3.05207 -2.1901,3.05842 -3.86053,4.54489 -3.86053,3.43538 z m 64.91653,27.26365 c -0.0493,-0.31723 0.29567,-0.81499 0.76678,-1.10615 0.96767,-0.59805 -1.9105,-1.98617 -6.86684,-3.31179 -2.69595,-0.72103 -3.04191,-0.67877 -3.917,0.47848 -1.4113,1.86632 -1.23129,2.23816 1.10928,2.29159 1.16076,0.0265 3.27937,0.59272 4.70799,1.25831 2.67459,1.24609 4.35738,1.40219 4.19979,0.38956 z m -6.47261,-2.99479 c -1.33741,-0.42833 -1.39462,-0.52957 -0.32468,-0.57471 0.71431,-0.0302 1.73708,0.2285 2.27281,0.57471 1.13781,0.7353 0.34786,0.7353 -1.94813,0 z m 12.94997,1.45336 c -1.26101,-5.61245 -5.13383,-12.67555 -10.9447,-19.96061 -1.99417,-2.50009 -3.78221,-4.69174 -3.97338,-4.87032 -1.71825,-1.60499 -7.95929,-9.5714 -9.1293,-11.65317 -1.65618,-2.94677 -2.26236,-3.23059 -2.86234,-1.34019 -0.50413,1.58835 0.24793,3.12587 0.96303,1.96882 0.34177,-0.55303 0.59387,-0.47072 0.88545,0.2891 0.23832,0.62082 0.14088,0.89738 -0.23439,0.66549 -0.36226,-0.22383 -0.64196,0.36447 -0.64196,1.35028 0,0.97747 1.78779,4.77241 4.05862,8.61529 4.48172,7.58427 6.30738,12.51678 6.32186,17.08013 0.007,2.70625 0.18309,3.05771 1.70962,3.44084 0.93505,0.23463 1.82487,0.30188 1.97738,0.14946 0.45597,-0.45596 -1.17442,-6.36213 -2.7585,-9.99271 -0.8131,-1.86358 -2.75578,-5.37021 -4.31701,-7.79252 -3.70951,-5.7553 -4.17873,-6.70766 -2.30978,-4.68813 3.23013,3.49041 8.85989,13.92321 10.10964,18.7347 1.13462,4.3682 1.45857,4.90681 3.61723,6.01428 2.33906,1.2 2.37101,1.19909 2.37101,-0.0673 0,-1.43206 -0.71531,-3.36968 -3.01363,-8.16328 -1.45088,-3.02612 -4.72563,-7.65945 -11.98483,-16.95692 -1.64173,-2.10273 -3.33814,-4.55368 -3.76976,-5.44657 -0.69333,-1.43421 -0.61516,-1.40466 0.67057,0.25378 0.80046,1.03247 3.90446,4.82295 6.89777,8.42329 7.21455,8.67761 10.8363,14.63951 12.28335,20.22021 1.12286,4.33036 2.24142,6.10283 3.88016,6.14841 0.52376,0.0147 0.58089,-0.69954 0.19389,-2.42224 z m -23.80877,-29.53891 c -0.97351,-1.25878 -1.58592,-2.43517 -1.26769,-2.43517 0.15855,0 0.76701,0.73056 1.35205,1.62345 1.09476,1.67079 1.03379,2.25745 -0.0844,0.81172 z m 4.99561,30.0083 c -1.53985,-0.97383 -2.3718,-0.6718 -1.00267,0.36401 0.68825,0.52069 1.41034,0.78772 1.60465,0.59341 0.19438,-0.19439 -0.0766,-0.62515 -0.60198,-0.95742 z m -60.92477,-0.94234 c 1.91054,-0.8894 4.26007,-1.61996 5.22117,-1.62344 0.96112,-0.002 1.92808,-0.29857 2.1488,-0.65573 1.15916,-1.87556 -9.06125,0.9299 -10.73507,2.94673 -1.07006,1.28933 -0.66664,1.2093 3.3651,-0.66756 z m 11.33635,-0.16861 c 1.0239,-1.34883 1.16851,-2.35064 0.25807,-1.78796 -0.84513,0.52233 -2.1257,2.92437 -1.55902,2.92437 0.24102,0 0.82648,-0.51139 1.30095,-1.13641 z m 10.62853,-21.95877 c -0.7938,-2.08785 -0.80085,-12.18269 -0.01,-15.21807 2.16276,-8.30742 2.58044,-10.36074 2.60105,-12.78688 0.027,-3.19024 -1.05843,-4.30807 -1.63959,-1.68831 -0.77125,3.47667 -1.77159,6.37858 -3.19901,9.28017 -1.08438,2.20426 -1.39929,3.87945 -1.28178,6.81847 0.0857,2.14293 0.215,4.04237 0.28767,4.22094 0.0727,0.17868 0.0869,1.50027 0.0317,2.93711 -0.1178,3.07349 0.8832,6.03387 2.44048,7.217 1.49017,1.13217 1.4953,1.12699 0.77009,-0.78043 z m -34.86251,-3.53606 c 1.16664,-3.86799 2.89678,-6.72785 7.89008,-13.04201 2.61516,-3.30695 3.21478,-4.54366 3.24688,-6.69661 0.0295,-1.98097 0.32374,-2.69533 1.17774,-2.85969 3.29925,-0.63497 1.17328,4.37561 -5.32054,12.53975 -4.17705,5.25147 -5.92929,8.41818 -5.82736,10.53151 0.0364,0.75459 0.23123,0.5792 0.55994,-0.50409 0.90957,-2.99751 2.03111,-4.56645 7.33017,-10.25413 5.80854,-6.23456 7.63307,-8.83765 7.6367,-10.89554 0.002,-1.77991 -1.02804,-2.56309 -4.10541,-3.11804 -3.39025,-0.61138 -4.33407,0.32441 -4.33407,4.29715 0,3.71975 -0.14392,4.03368 -4.86879,10.61916 -3.30611,4.60802 -5.521239,9.77708 -5.521239,12.88395 0,2.01327 0.93481,0.4808 2.135899,-3.50141 z m 63.55105,-3.01913 c 0.32353,-2.80023 0.59056,-5.38351 0.59343,-5.74067 0.0245,-2.98516 -0.75201,-6.42146 -2.14526,-9.50023 -0.90992,-2.01069 -1.85781,-4.85983 -2.10644,-6.33143 -0.43581,-2.57968 -1.14882,-3.34084 -1.93618,-2.06689 -0.2069,0.33477 0.65251,4.58764 1.90982,9.45082 2.38439,9.22276 2.94023,16.03787 1.59915,19.60719 -0.64227,1.70939 -0.61596,1.75811 0.40519,0.75029 0.70275,-0.69355 1.30175,-2.89281 1.68029,-6.16908 z m 33.64585,1.28362 c -0.44036,-1.36326 -2.08115,-4.3254 -3.64619,-6.58253 -4.20153,-6.05959 -5.42322,-8.79304 -5.42322,-12.1342 0,-4.18558 -2.07915,-6.29204 -5.45823,-5.52992 -3.0612,0.69041 -4.28243,1.74148 -4.28243,3.6858 0,3.23065 2.10793,6.35804 8.39759,12.45903 3.55658,3.44989 6.9095,7.2953 7.45095,8.54534 0.71846,1.65874 0.99129,1.90815 1.00984,0.92306 0.0309,-1.6369 -2.96543,-6.26934 -6.84846,-10.58817 -3.45117,-3.83856 -7.17452,-10.9632 -6.22538,-11.91234 0.9799,-0.9799 2.21963,0.11633 1.82745,1.61596 -0.5022,1.92044 1.62036,5.63268 6.10073,10.66986 2.16293,2.43171 4.72266,6.0589 5.68827,8.06042 1.98828,4.12127 2.59558,4.46078 1.40908,0.78769 z m -78.64594,-8.93961 c 3.71297,-0.98826 8.53511,-3.80582 8.53511,-4.98704 0,-0.40776 -0.76713,-0.20862 -1.78581,0.46385 -3.07118,2.02711 -6.53001,3.5163 -8.167,3.5163 -0.8655,0 -2.5462,0.19463 -3.73489,0.43226 -1.83014,0.36601 -1.96693,0.50824 -0.89289,0.9284 1.79545,0.70238 2.15695,0.68123 6.04548,-0.35377 z m 2.52836,-2.93752 c 1.51793,-0.68903 2.75985,-1.54282 2.75985,-1.89737 0,-0.35453 -1.38039,-0.0339 -3.06755,0.71232 -1.68716,0.74631 -3.87881,1.33386 -4.87034,1.30568 -0.9915,-0.0282 -1.80276,0.22138 -1.80276,0.55468 0,1.03438 4.08483,0.63921 6.9808,-0.67531 z m 58.18376,-2.3111 c -0.20592,-0.53655 -1.19362,-0.95329 -2.25944,-0.95329 -1.84272,0 -1.86652,-0.0415 -0.88557,-1.53845 0.97886,-1.49396 0.94808,-1.55046 -1.06283,-1.95265 -1.13898,-0.22776 -2.17155,-0.31347 -2.29463,-0.19046 -0.12321,0.12321 0.24371,1.16076 0.81491,2.30593 0.70015,1.40346 1.65354,2.2051 2.92501,2.45939 1.03747,0.20739 1.8863,0.6502 1.8863,0.9838 0,0.33359 0.27948,0.43383 0.62102,0.22261 0.34157,-0.21108 0.45641,-0.81278 0.25523,-1.33708 z m -72.31765,-1.44031 c 0.005,-0.44646 -0.42838,-0.81172 -0.96412,-0.81172 -1.14022,0 -1.30923,-1.66433 -0.23635,-2.32742 0.76204,-0.47097 -1.7213,-2.8245 -3.01053,-2.85317 -1.34575,-0.0299 -0.57658,3.60257 1.15141,5.43776 0.97393,1.03433 1.77526,2.20321 1.78073,2.5975 0.0135,0.97729 1.26638,-1.02408 1.27886,-2.04295 z m 13.8092,0.94156 c 0.98218,-0.42438 1.7876,-1.06552 1.78981,-1.42477 0.002,-0.35926 0.42317,-1.45682 0.93554,-2.43899 0.8533,-1.6358 0.31205,-2.63618 -0.61486,-1.13641 -0.22064,0.35715 -1.06594,0.64937 -1.87823,0.64937 -1.96408,0 -2.43134,0.56921 -1.65619,2.01756 0.52835,0.98726 0.35807,1.26838 -0.9703,1.60178 -0.88609,0.22236 -1.98835,0.86247 -2.44945,1.42243 -0.73917,0.89763 -0.60789,0.96262 1.10978,0.54933 1.07146,-0.2578 2.75173,-0.81594 3.7339,-1.2403 z m 71.91851,-2.37702 c 0,-0.58556 0.30179,-1.36646 0.67065,-1.73532 0.66736,-0.66733 0.21843,-2.85469 -0.5778,-2.81532 -0.22973,0.0123 -0.97229,0.44058 -1.65032,0.95378 -0.96439,0.72997 -1.06867,1.13083 -0.47902,1.84132 0.5822,0.70152 0.53024,1.0937 -0.22825,1.72326 -0.54015,0.44826 -0.98208,1.21131 -0.98208,1.69568 0,0.70366 0.32623,0.73198 1.62345,0.14088 0.89289,-0.40683 1.62344,-1.21878 1.62344,-1.80433 z m -64.28831,0.94843 c 0.4446,-0.53574 1.35111,-0.97408 2.01442,-0.97408 1.37784,0 3.63357,-3.92451 3.95097,-6.87389 0.31568,-2.93345 -1.48083,-2.36304 -3.24233,1.0295 -0.83452,1.60722 -2.57845,4.01802 -3.87542,5.35737 -2.07603,2.14387 -2.19651,2.43515 -1.00709,2.43515 0.74307,0 1.71482,-0.43832 2.15945,-0.97405 z m 40.91074,-0.60986 c 0,-0.15683 -1.09584,-1.57917 -2.43517,-3.16067 -1.33935,-1.5815 -2.96074,-3.83935 -3.60314,-5.0174 -1.02694,-1.88339 -1.28305,-2.02687 -2.12138,-1.18854 -1.71124,1.71124 1.11645,7.70367 3.63517,7.70367 0.61523,0 1.48237,0.43832 1.927,0.97406 0.73407,0.88449 2.59752,1.3787 2.59752,0.68888 z m 7.79252,-4.44066 c 0,-0.81341 -0.45645,-2.13061 -1.01435,-2.92711 -0.89605,-1.2793 -0.90067,-1.4918 -0.0395,-1.82228 0.5362,-0.20567 1.47248,-0.0957 2.08064,0.2447 0.60816,0.34034 1.60702,0.48773 2.2197,0.32751 0.88069,-0.23022 1.02366,-0.72251 0.68275,-2.35025 -0.39346,-1.87862 -0.62188,-2.03987 -2.60835,-1.84122 -3.43971,0.344 -5.24431,1.22891 -4.81065,2.35899 0.20985,0.54717 0.0582,0.99486 -0.33708,0.99486 -1.23269,0 -0.86915,5.04293 0.41753,5.79236 1.98519,1.15629 3.40925,0.83148 3.40925,-0.77756 z m -53.98416,-0.49445 c 1.11085,-0.92533 1.35236,-1.50507 0.87026,-2.08886 -0.36703,-0.44443 -0.93113,-1.83081 -1.25356,-3.08088 -0.46701,-1.81062 -0.91848,-2.28582 -2.21999,-2.3368 -0.89859,-0.0351 -2.41443,-0.25994 -3.36856,-0.49941 -1.56611,-0.39306 -1.73566,-0.26055 -1.74366,1.36275 -0.005,0.98897 -0.18506,2.45566 -0.40042,3.25926 -0.60804,2.26886 1.95979,1.89529 3.69179,-0.53706 0.85953,-1.20712 1.65785,-1.76315 2.01648,-1.40452 0.70287,0.70288 -0.36518,3.84556 -1.87327,5.51195 -0.95864,1.0593 -0.89964,1.13612 0.85693,1.11599 1.03755,-0.0123 2.57833,-0.59795 3.424,-1.30242 z m 25.41157,0.47985 c 0,-0.46431 0.33929,-1.18348 0.75398,-1.59817 1.1538,-1.15381 1.27952,-4.05142 0.17573,-4.05142 -0.51136,0 -0.92976,0.3131 -0.92976,0.69578 0,0.38265 -0.43834,0.25741 -0.97407,-0.27832 -1.40928,-1.40928 -1.20818,-1.82952 0.81172,-1.69634 0.98218,0.0648 3.10079,0.0663 4.70798,0.002 2.26403,-0.0886 2.62968,-0.24003 1.62345,-0.67254 -1.29876,-0.55809 -1.29876,-0.55809 0,-0.64937 3.09423,-0.21745 -1.40165,-1.20768 -5.51971,-1.2157 -6.20589,-0.0123 -9.25815,0.65933 -9.46702,2.08253 -0.15585,1.06106 0.16199,1.14325 2.94118,0.76101 3.11576,-0.42852 3.11576,-0.42852 3.58017,2.05635 0.25542,1.36669 0.75562,2.83736 1.11157,3.26817 0.35593,0.43078 0.45864,1.08828 0.22825,1.46109 -0.23046,0.37279 -0.10946,0.67782 0.26878,0.67782 0.37824,0 0.6877,-0.37989 0.6877,-0.8442 z m -5.66969,-8.04772 c 0.63182,-0.16469 1.50849,-0.15389 1.94813,0.0245 0.43965,0.17794 -0.0773,0.31258 -1.14878,0.29935 -1.07146,-0.0123 -1.43117,-0.15879 -0.79935,-0.3234 z m 4.8696,-0.0196 c 1.16716,-0.14456 2.92047,-0.14161 3.89626,0.007 0.97578,0.14825 0.0196,0.26642 -2.12211,0.26279 -2.14294,-0.002 -2.94131,-0.12493 -1.77415,-0.26941 z m -40.23906,3.87378 c 0.22329,-3.87164 1.68281,-4.72593 2.41086,-1.41115 0.24063,1.09562 0.89055,2.16586 1.44426,2.37833 1.24393,0.47735 2.76705,-1.46929 2.76705,-3.53645 0,-1.72405 -1.31198,-2.37914 -6.00673,-2.99918 -2.75113,-0.36334 -3.08454,-0.27246 -3.08454,0.84063 0,0.68641 -0.29699,1.43157 -0.65997,1.6559 -0.36299,0.22432 -0.4992,0.66802 -0.30269,0.98598 0.19649,0.31796 -0.005,1.15808 -0.44762,1.86694 -0.67351,1.07846 -0.60413,1.51067 0.42509,2.64796 2.04805,2.26307 3.23167,1.43078 3.45429,-2.42896 z m 84.44061,2.70269 c 1.21799,-0.8531 1.40211,-1.40081 1.03698,-3.08454 -0.24421,-1.12597 -0.66566,-2.19334 -0.93665,-2.37192 -0.27098,-0.17867 -0.60305,-0.90913 -0.73797,-1.62344 -0.21328,-1.12907 -0.81693,-1.31644 -4.62076,-1.4341 -4.21164,-0.13032 -4.37547,-0.0775 -4.37547,1.40798 0,3.56051 2.08278,4.68246 4.8321,2.60298 2.15543,-1.63027 2.9482,-1.22693 2.26573,1.15277 -1.24916,4.35554 -0.43491,5.43121 2.53604,3.35027 z m -72.9214,-0.30465 c 0.6989,-1.13087 -0.0972,-1.37033 -0.98775,-0.29718 -0.51219,0.61715 -0.56145,0.98977 -0.13081,0.98977 0.37981,0 0.88319,-0.31168 1.11861,-0.69259 z m 59.39127,-1.25555 c 0,-0.35715 -0.45557,-0.64939 -1.01239,-0.64939 -0.55681,0 -0.83177,0.29224 -0.61105,0.64939 0.22064,0.35716 0.67631,0.64937 1.01239,0.64937 0.33609,0 0.61105,-0.29221 0.61105,-0.64937 z m -24.02693,-1.98646 c 0,-0.33608 -0.43833,-0.61106 -0.97408,-0.61106 -1.00419,0 -1.2901,0.76624 -0.55881,1.49756 0.51883,0.51883 1.53289,-0.0677 1.53289,-0.8865 z m -18.45415,-1.9098 c 1.13742,0 1.57034,-0.35806 1.57034,-1.29876 0,-1.00434 -0.43292,-1.29876 -1.9098,-1.29876 -2.04623,0 -3.50486,1.271 -1.53776,1.33992 0.94605,0.0331 0.89029,0.15561 -0.28635,0.62846 -0.8036,0.32301 -1.46109,0.77407 -1.46109,1.00237 0,0.22826 0.46222,0.23783 1.02716,0.0221 0.56494,-0.21671 1.73382,-0.39414 2.5975,-0.39414 z m 27.89682,-0.60617 c -0.23537,-0.38094 -0.84913,-0.69259 -1.3638,-0.69259 -0.51465,0 -0.93572,-0.31163 -0.93572,-0.69251 0,-1.23704 -3.44258,-0.37046 -3.62687,0.91298 -0.1318,0.918 0.15536,1.12463 1.24061,0.89262 0.7767,-0.16616 2.14274,-0.0937 3.03563,0.16076 1.86574,0.53173 2.2536,0.3951 1.65015,-0.58128 z m -64.40784,-9.85289 c 0.93966,-1.98627 2.89828,-4.71225 4.35249,-6.05775 2.97554,-2.75308 3.02939,-3.83141 0.0825,-1.65272 -2.69797,1.99471 -4.76743,4.9553 -6.118717,8.75356 -1.434165,4.0312 -1.327998,3.42729 -1.141571,6.49376 0.157912,2.59753 0.157912,2.59753 0.63735,-0.66394 0.263691,-1.79383 1.248251,-4.88661 2.187918,-6.87291 z m 99.3955,2.24334 c -0.60325,-1.37445 -1.15457,-3.0075 -1.22513,-3.62896 -0.0707,-0.62149 -1.23644,-2.08258 -2.5908,-3.24689 -1.35437,-1.16432 -3.03984,-2.65754 -3.74551,-3.31827 -0.85345,-0.79911 -1.5,-0.98441 -1.93098,-0.55343 -0.43098,0.43101 0.0582,1.15938 1.46119,2.17543 2.87489,2.08206 6.7927,8.26839 7.85626,12.40528 0.87632,3.40849 0.87632,3.40849 1.07407,1.03718 0.10873,-1.30421 -0.29584,-3.49586 -0.8991,-4.87034 z m -40.14968,3.99478 c 1.23697,-1.88788 2.65572,-2.11633 3.02444,-0.48704 0.16493,0.7284 0.52046,0.23463 0.99049,-1.37541 1.71922,-5.88877 5.41656,-9.17697 10.31878,-9.17697 2.60957,0 3.20448,-0.18015 2.68033,-0.81172 -0.73537,-0.88607 -3.69879,-1.05156 -7.00164,-0.39098 -2.6376,0.52751 -6.34264,4.15907 -6.61746,6.4862 -0.23831,2.01764 -1.63623,2.79864 -2.23175,1.24678 -0.23464,-0.61147 0.33013,-2.10091 1.36032,-3.58745 0.96882,-1.39804 1.57062,-2.85074 1.33732,-3.22824 -0.23341,-0.3775 0.0309,-1.33634 0.58749,-2.13076 0.5833,-0.83281 0.98804,-2.68927 0.95587,-4.38443 -0.0461,-2.43105 -0.14579,-2.65901 -0.57496,-1.3166 -0.28553,0.89288 -1.59254,4.1073 -2.90448,7.14312 -1.31195,3.03585 -2.55522,7.05387 -2.7628,8.92893 -0.20764,1.87509 -0.62876,3.40925 -0.93594,3.40925 -0.30721,0 -0.55853,0.29222 -0.55853,0.64937 0,1.19269 1.25667,0.6679 2.33252,-0.97405 z m -43.55239,0.28576 c -1.19509,-0.35659 -2.17393,-0.33529 -2.56505,0.0557 -0.41037,0.41039 0.26825,0.61287 1.93257,0.57667 2.53496,-0.0552 2.54237,-0.0626 0.63248,-0.63248 z m 29.09448,-1.53762 c 1.2646,0.48527 3.0341,-3.89202 3.0341,-7.50559 0,-3.02779 -0.14333,-3.29183 -2.75985,-5.08401 -1.51791,-1.03971 -3.42687,-2.09922 -4.2421,-2.3545 -1.48225,-0.46411 -1.48225,-0.46411 -0.16469,1.69683 1.10175,1.80711 1.31788,3.27451 1.31989,8.96155 0.002,6.28465 0.0776,6.69318 0.99428,5.38457 0.5455,-0.77883 1.3638,-1.27331 1.81844,-1.09885 z m 3.45598,1.23276 c 0.32917,-0.85784 0.49612,-0.83587 1.22528,0.16125 0.46428,0.63496 1.00468,0.99396 1.20085,0.79779 0.44873,-0.44873 -0.96511,-5.16099 -1.54846,-5.16099 -0.44348,0 -1.55323,2.05259 -2.19435,4.05862 -0.44561,1.39433 0.78521,1.52824 1.31668,0.14333 z m 34.92537,-0.3412 c 0.3494,-0.34164 -0.30596,-0.33067 -1.5493,0.026 -1.18517,0.3399 -2.33434,0.81422 -2.55369,1.05409 -0.60129,0.65739 3.40441,-0.39699 4.10299,-1.08001 z m -47.59174,-0.77712 c 1.09981,-0.64937 1.43357,-0.64937 1.66872,0 0.16175,0.44647 0.59503,0.81173 0.96296,0.81173 1.13521,0 -0.0731,-5.60873 -2.21251,-10.26996 -1.09583,-2.38755 -2.36522,-5.8021 -2.82084,-7.5879 l -0.82844,-3.24687 -0.0552,3.26473 c -0.0336,1.98576 0.3411,3.83059 0.95645,4.70912 0.55645,0.79442 0.82361,1.74871 0.59373,2.12069 -0.22997,0.37196 0.33762,1.66694 1.26112,2.87771 1.88571,2.47228 2.17253,4.23622 0.68883,4.23622 -0.58151,0 -1.15165,-0.80665 -1.38113,-1.95407 -0.215,-1.07473 -1.44104,-2.97415 -2.72468,-4.22095 -2.10352,-2.04314 -2.68824,-2.26484 -5.92438,-2.24623 -1.97476,0.0123 -4.10189,0.40886 -4.72691,0.88331 -1.53028,1.16164 -1.44688,1.9054 0.11953,1.06702 1.69953,-0.90955 5.20894,-0.83192 7.16634,0.15855 2.1839,1.10507 4.36507,4.50509 4.89238,7.62627 0.49004,2.90049 0.47256,2.88738 2.36392,1.77066 z m 19.13338,-3.17056 c 0.0388,-0.84557 0.11191,-3.06139 0.16247,-4.92404 0.0766,-2.81812 0.44355,-3.78712 2.18657,-5.77231 2.02832,-2.31012 2.04375,-2.37076 0.48704,-1.91453 -0.8842,0.25916 -3.14177,1.50424 -5.01684,2.76685 -3.19866,2.1539 -3.40836,2.46128 -3.39479,4.97647 0.01,1.65594 0.4999,3.3014 1.28431,4.30422 0.69843,0.89288 1.27638,2.17047 1.2843,2.83905 0.0123,1.11692 0.13303,1.13629 1.47555,0.23856 0.8036,-0.53735 1.49278,-1.6688 1.53151,-2.51437 z m 38.52036,-0.9756 c 2.01666,-2.56378 1.62087,-3.26635 -0.53809,-0.95518 -1.03619,1.10924 -2.21835,2.01681 -2.62702,2.01681 -1.17327,0 -3.93237,-3.06704 -3.91663,-4.35378 0.0459,-3.75175 4.69546,-9.51898 8.31534,-10.31418 3.05003,-0.67004 3.11905,-0.93385 0.16861,-0.64419 -1.57629,0.15487 -3.62184,0.83126 -4.54565,1.50335 -2.21892,1.61432 -4.60186,6.37647 -4.60186,9.19655 0,4.70556 5.02499,7.00908 7.7454,3.55062 z m -82.78524,-0.3816 c 2.13677,-3.05069 0.34753,-9.80503 -3.29657,-12.44447 -2.47706,-1.79417 -7.08197,-2.16954 -8.695988,-0.70887 -0.705566,0.63853 -1.282846,1.40789 -1.282846,1.70967 0,0.30181 0.584439,-0.0356 1.298755,-0.75002 0.714315,-0.71431 1.894839,-1.29874 2.623379,-1.29874 2.40387,0 6.27864,2.49415 7.75065,4.98903 4.0752,6.90695 0.65779,12.45287 -4.45258,7.22584 -1.11386,-1.13927 -2.02519,-1.81274 -2.02519,-1.49663 0,0.31615 0.78522,1.39439 1.74494,2.3961 2.16264,2.2573 4.90458,2.42093 6.33545,0.37809 z m -1.60946,-1.76096 c 0.90449,-1.69006 0.84626,-2.80332 -0.22313,-4.26579 -0.85347,-1.16718 -0.97494,-1.17229 -2.59751,-0.10922 -1.96019,1.28436 -2.10604,2.1679 -0.69128,4.18777 1.24455,1.77684 2.62186,1.85025 3.51191,0.18726 z m 83.17313,-0.44637 c 0.69887,-1.83823 0.1075,-3.02571 -2.09326,-4.20355 -0.98662,-0.52802 -1.3153,-0.32613 -1.87784,1.15347 -0.4725,1.24278 -0.47488,2.2478 -0.007,3.27301 0.9324,2.0464 3.16359,1.9214 3.97888,-0.22286 z m -17.78205,-11.22354 c 4.45112,-1.39713 9.02033,-1.81813 8.37347,-0.7715 -0.20028,0.32385 0.21181,0.43822 0.91574,0.25417 0.70378,-0.18407 2.15883,-0.0282 3.23341,0.34648 1.07459,0.37461 2.10291,0.43982 2.28514,0.14505 0.18236,-0.29489 -0.93503,-0.95307 -2.48286,-1.46264 -6.69182,-2.20303 -17.49432,0.86143 -20.94679,5.94223 -2.51697,3.70403 -1.77358,3.83603 1.36937,0.24322 2.45218,-2.8032 3.61141,-3.55393 7.25252,-4.69684 z m -44.18588,4.60964 c -0.20739,-0.33563 -1.9461,-1.37784 -3.86367,-2.31604 -2.7694,-1.35494 -4.40819,-1.69977 -7.96744,-1.67651 -2.53823,0.0172 -5.32553,0.43921 -6.42905,0.97479 l -1.94813,0.94549 2.45948,-0.35939 c 6.03079,-0.88123 9.93741,-0.44689 13.8548,1.54046 3.74687,1.90081 4.64501,2.10636 3.89401,0.8912 z m 21.8063,-0.68847 c 1.53582,-1.0239 3.9613,-2.2281 5.38992,-2.67594 5.18059,-1.62408 3.76952,-1.95618 -8.31203,-1.95618 -6.67884,0 -12.13906,0.21917 -12.13381,0.48704 0.005,0.26787 1.8316,1.18542 4.05862,2.03901 2.22697,0.8536 4.74598,2.09554 5.59773,2.75986 1.99857,1.55875 2.0991,1.54657 5.39957,-0.65379 z m 19.54612,0.78644 c 3.88164,-2.00826 7.85526,-2.71501 11.52,-2.0489 2.70925,0.49241 3.59679,0.42919 4.33476,-0.30876 0.80436,-0.80436 0.0918,-0.98934 -5.35071,-1.38883 -5.23984,-0.38465 -6.46475,-0.29249 -7.40336,0.55696 -0.61861,0.55983 -1.6942,1.01786 -2.3902,1.01786 -1.4448,0 -4.15196,1.71765 -4.15196,2.63434 0,0.89856 1.09493,0.75137 3.44147,-0.46267 z m -67.10107,-2.45814 c -0.0113,-0.37816 -0.44969,-0.12026 -0.97406,0.57294 -0.52438,0.69328 -0.94412,1.56994 -0.93276,1.94813 0.0113,0.37817 0.44968,0.12027 0.97406,-0.57294 0.52438,-0.69327 0.94412,-1.56994 0.93276,-1.94813 z m 89.37947,1.85681 c -0.21672,-0.56494 -0.39417,-1.16665 -0.39417,-1.33708 0,-0.17033 -0.27948,-0.13719 -0.62102,0.0739 -0.7539,0.46593 -0.14849,2.29034 0.75996,2.29034 0.35716,0 0.47199,-0.46223 0.25523,-1.02717 z m -62.88117,-1.0833 c -0.14014,-0.44644 -2.12676,-1.81051 -4.41445,-3.03125 -3.82295,-2.04 -4.63408,-2.22304 -10.02678,-2.26258 -3.72264,-0.0273 -6.42174,0.26914 -7.38405,0.81103 -2.37932,1.33985 -1.32723,1.46149 2.38182,0.27538 2.8502,-0.91144 3.85802,-0.96031 6.30563,-0.30566 1.60229,0.42852 3.74994,0.77915 4.77254,0.77915 1.02262,0 2.22309,0.43834 2.66772,0.97408 0.4446,0.53573 1.16564,0.97405 1.60229,0.97405 0.43665,0 1.32281,0.58445 1.96926,1.29876 1.31528,1.45336 2.51606,1.72845 2.12602,0.48704 z m -16.09646,-3.62864 c -1.05848,-0.35283 -5.18617,0.52574 -5.18617,1.10386 0,0.2755 1.32669,0.19316 2.9482,-0.18309 1.62152,-0.37622 2.62861,-0.79057 2.23797,-0.92077 z"
       id="path16403" />
  </g>
</svg>
