<?xml version="1.0" encoding="UTF-8" standalone="no"?>
<!-- Created with Inkscape (http://www.inkscape.org/) -->

<svg
   width="98.131554mm"
   height="98.610008mm"
   viewBox="0 0 98.131552 98.610019"
   version="1.1"
   id="svg5"
   inkscape:version="1.1 (c4e8f9ed74, 2021-05-24)"
   sodipodi:docname="ornatem.svg"
   xmlns:inkscape="http://www.inkscape.org/namespaces/inkscape"
   xmlns:sodipodi="http://sodipodi.sourceforge.net/DTD/sodipodi-0.dtd"
   xmlns="http://www.w3.org/2000/svg"
   xmlns:svg="http://www.w3.org/2000/svg">
  <sodipodi:namedview
     id="namedview7"
     pagecolor="#ffffff"
     bordercolor="#666666"
     borderopacity="1.0"
     inkscape:pageshadow="2"
     inkscape:pageopacity="0.0"
     inkscape:pagecheckerboard="0"
     inkscape:document-units="mm"
     showgrid="false"
     inkscape:zoom="0.66903058"
     inkscape:cx="-640.47894"
     inkscape:cy="476.06194"
     inkscape:window-width="2506"
     inkscape:window-height="1403"
     inkscape:window-x="1974"
     inkscape:window-y="0"
     inkscape:window-maximized="1"
     inkscape:current-layer="layer1" />
  <defs
     id="defs2" />
  <g
     inkscape:label="Layer 1"
     inkscape:groupmode="layer"
     id="layer1"
     transform="translate(-305.08551,-85.985602)">
    <path
       style="fill:#000000;stroke-width:0.493017"
       d="m 369.71945,184.30988 c -0.40674,-0.27209 -1.84883,-0.36604 -3.20462,-0.20879 -2.07977,0.24122 -2.60809,0.12764 -3.3799,-0.72608 -0.90318,-0.99909 -0.93679,-1.0002 -2.63859,-0.0881 -2.53984,1.36127 -13.23438,1.34441 -16.24178,-0.0257 -1.14636,-0.52225 -2.22179,-1.17197 -2.38983,-1.44386 -0.55788,-0.90267 -3.57397,-0.51166 -6.07926,0.78812 -1.99361,1.03432 -2.85536,1.21764 -4.45427,0.9475 -1.09035,-0.18428 -2.24039,-0.64571 -2.55562,-1.02556 -0.435,-0.52413 -0.81154,-0.56307 -1.5619,-0.16155 -0.63271,0.33861 -2.39192,0.40494 -4.88566,0.1841 -3.16496,-0.28016 -4.12383,-0.19629 -5.10488,0.44654 -1.66118,1.08843 -3.86214,0.99677 -4.95082,-0.20622 -0.61583,-0.68047 -1.06335,-0.83722 -1.40758,-0.49302 -0.27754,0.27757 -1.46414,0.50468 -2.63684,0.50468 -1.83511,0 -2.19917,-0.17627 -2.61299,-1.26465 -0.71013,-1.86779 -0.58655,-4.03322 0.34184,-5.98965 0.66321,-1.39763 0.70722,-1.91846 0.22705,-2.68734 -1.1482,-1.83854 -1.39474,-5.08204 -0.74608,-9.81543 0.35026,-2.55603 0.5114,-5.1494 0.35807,-5.76302 -0.15336,-0.61363 -0.0244,-1.42215 0.28642,-1.79671 0.37824,-0.45576 0.47993,-2.15751 0.30743,-5.14483 -0.1418,-2.45509 -0.0689,-4.58046 0.16175,-4.72302 0.43668,-0.26988 0.3889,-3.44039 -0.18057,-11.98041 -0.22278,-3.34123 -0.14571,-5.6169 0.2289,-6.75173 0.47002,-1.42418 0.42731,-1.92183 -0.25424,-2.96198 -0.61418,-0.93738 -0.74138,-1.83863 -0.50833,-3.60167 0.38904,-2.9431 0.38993,-4.22451 0.006,-7.10581 -0.33838,-2.53257 0.33543,-4.36645 1.60437,-4.36645 0.7182,0 0.72293,-0.0868 0.047,-0.86278 -1.05378,-1.20972 -1.46952,-3.16321 -1.71796,-8.072752 -0.20652,-4.080717 -0.1651,-4.291316 1.03127,-5.23232 l 1.24644,-0.980452 -1.24322,-1.167945 c -1.09665,-1.030241 -1.21321,-1.459582 -0.98865,-3.642004 0.13994,-1.360729 0.2645,-2.503668 0.27667,-2.539854 0.0131,-0.03615 0.62705,-0.181493 1.36643,-0.322756 0.80783,-0.154473 2.07888,0.117766 3.18498,0.682051 2.19992,1.12233 3.52176,1.191498 4.32286,0.226196 0.95487,-1.150541 8.49151,-0.470652 11.57121,1.043844 l 2.4282,1.194125 1.02292,-1.264151 c 0.97892,-1.209778 1.24553,-1.264729 6.19961,-1.277604 2.84716,-0.0075 10.16624,0.100249 16.2646,0.23922 9.68672,0.220735 11.16544,0.358681 11.70134,1.091565 0.57657,0.788506 0.67069,0.787052 1.56705,-0.02404 0.81876,-0.74099 1.63272,-0.8254 5.75574,-0.596932 2.64117,0.146275 5.03316,0.49713 5.31554,0.779524 0.74453,0.74453 3.55006,0.629747 4.21585,-0.172548 1.13058,-1.362258 5.96073,-1.144709 5.96073,0.268475 0,0.225692 0.83196,0.379886 1.84882,0.342656 1.01684,-0.03727 2.56986,0.09298 3.45112,0.289233 1.2701,0.282898 1.6023,0.199046 1.6023,-0.404446 0,-1.231933 1.76294,-1.844405 4.31338,-1.498526 1.99509,0.270562 2.5408,0.599355 3.68078,2.217789 1.25543,1.782337 1.28688,1.951699 0.50704,2.73154 -1.76376,1.763759 -2.05029,2.941357 -1.07677,4.425423 1.65358,2.520737 2.13069,5.792899 1.4552,9.980259 -0.33449,2.07345 -0.91624,4.20975 -1.29277,4.74734 -0.93745,1.3384 -0.8653,1.64981 0.42468,1.83302 0.90795,0.12894 1.08368,0.426 0.96823,1.63658 -0.0775,0.8135 -0.24207,4.03043 -0.36552,7.14877 -0.12336,3.11834 -0.47348,6.27584 -0.77785,7.01665 -0.30438,0.74082 -0.38253,1.73918 -0.17366,2.21859 0.20884,0.47939 0.54289,2.09184 0.74233,3.58323 0.19942,1.49137 0.51036,3.1609 0.69096,3.71005 0.21905,0.66605 -0.0915,1.61719 -0.93268,2.85676 -1.46623,2.16062 -1.57077,2.80053 -0.45742,2.80053 0.66129,0 0.75918,0.39451 0.55258,2.22742 -0.19334,1.71525 -0.0691,2.3292 0.53999,2.67012 0.72465,0.40553 0.72286,0.5857 -0.0212,2.14601 -0.5439,1.14059 -0.72204,2.37588 -0.53921,3.73913 0.22128,1.64962 0.12373,2.03579 -0.51403,2.03579 -0.4329,0 -1.02456,0.44371 -1.31479,0.98604 -0.29024,0.54232 -0.90816,0.99577 -1.37316,1.00766 -0.65856,0.0168 2.51637,1.41913 3.28302,1.45 0.10137,0.004 0.0514,1.2831 -0.11087,2.84228 -0.64609,6.20528 -0.62335,11.19919 0.0559,12.2835 1.07739,1.71986 0.30399,6.85432 -1.24939,8.2947 -1.1007,1.02063 -1.64899,1.12846 -5.24041,1.03075 -2.20609,-0.06 -4.43623,-0.34705 -4.95585,-0.63785 -0.66066,-0.36973 -1.19332,-0.3735 -1.77132,-0.013 -0.61199,0.3822 -1.11937,0.31111 -1.95452,-0.27386 -1.01445,-0.71056 -1.27302,-0.71503 -2.56972,-0.0445 -0.95697,0.49486 -2.7144,0.72647 -5.22645,0.6888 -2.08156,-0.0313 -4.89393,0.0725 -6.24974,0.23029 -1.35583,0.15783 -2.79786,0.0645 -3.20462,-0.20765 z m -16.75793,-2.9901 c 2.14858,-1.5299 1.80287,-2.06963 -0.62095,-0.96942 -2.58838,1.17491 -3.45856,1.19586 -6.36766,0.15317 -2.43778,-0.87368 -3.36945,-2.12578 -3.36945,-4.52824 0,-0.74649 0.26622,-1.62349 0.59162,-1.94889 0.4403,-0.4403 0.44474,-0.59162 0.0168,-0.59162 -0.82498,0 -1.59502,1.65885 -1.59502,3.43606 0,2.6828 1.41457,4.03011 5.91622,5.635 1.30324,0.46461 3.90947,-0.10491 5.42788,-1.18611 z m 22.45005,0.27226 c 1.35311,-1.35311 1.41402,-1.64053 0.72931,-3.44143 -0.67471,-1.77466 -1.31215,-1.57325 -1.65218,0.52206 -0.5136,3.16494 -3.12052,4.80993 -4.25707,2.68626 -0.40426,-0.75534 -0.33196,-0.9964 0.35242,-1.17536 0.637,-0.16659 0.56837,-0.23998 -0.2638,-0.2823 -0.61862,-0.0315 -1.25354,0.27842 -1.41096,0.68861 -0.90128,2.34873 4.34684,3.1576 6.50228,1.00216 z m 20.66114,0.63798 c 1.34271,-0.61178 1.57632,-1.14359 0.73166,-1.66561 -0.28825,-0.17814 -0.91581,0.0306 -1.39461,0.46392 -0.96894,0.87685 -2.51846,1.05825 -2.51846,0.29481 0,-0.27118 0.43062,-0.49303 0.95693,-0.49303 0.52631,0 1.08458,-0.20652 1.24058,-0.45895 0.39744,-0.64307 -0.7569,-1.26306 -2.0425,-1.09703 -0.71009,0.0917 -1.35989,-0.29175 -1.90552,-1.12451 -0.79347,-1.21097 -2.82531,-1.74287 -3.35902,-0.87931 -0.13062,0.21138 0.55697,1.34083 1.52803,2.50986 2.43632,2.93299 4.25589,3.59214 6.76291,2.44985 z m 3.434,0.27291 c 0.42893,-0.16453 0.77986,-0.60356 0.77986,-0.97548 0,-0.54237 -0.24396,-0.56505 -1.23255,-0.11459 -1.9198,0.8747 -1.51655,1.84574 0.45269,1.09009 z M 316.0129,181.7988 c 1.07017,-0.57273 1.31593,-3.31465 0.44326,-4.94525 -0.81685,-1.52631 -1.46542,-1.11139 -0.88142,0.56386 0.77409,2.22053 -0.16174,4.11767 -1.82519,3.70016 -1.52439,-0.38259 -1.60021,0.0846 -0.11087,0.6832 1.44789,0.58199 1.28284,0.58214 2.37423,-0.002 z m 44.29932,-0.38542 c 2.34097,-1.25549 4.00595,-4.61756 4.10788,-8.29504 0.0442,-1.59412 -0.10435,-3.1971 -0.32989,-3.56218 -0.72111,-1.16677 -1.25726,0.41203 -1.26546,3.72633 -0.004,1.67875 -0.22942,3.18939 -0.50057,3.35696 -0.27116,0.16752 -0.49302,0.68449 -0.49302,1.1487 0,1.38536 -3.81222,3.16052 -7.51853,3.50102 -0.20337,0.0186 -0.36975,0.25582 -0.36975,0.52698 0,0.83995 4.5938,0.54947 6.36934,-0.40277 z m 7.33655,0.30416 c 1.11201,-1.11201 0.67581,-2.82281 -0.97585,-3.82723 -0.86211,-0.52427 -1.74954,-0.84071 -1.97206,-0.7032 -0.80394,0.49687 -0.37806,1.52475 0.86667,2.09188 1.26462,0.5762 1.41736,1.55877 0.30021,1.93115 -0.32199,0.10733 -0.58546,-0.15615 -0.58546,-0.58545 0,-0.87281 -1.24607,-1.06343 -1.7389,-0.266 -0.90608,1.46608 2.77857,2.68566 4.10539,1.35885 z m 16.61864,-0.1828 c 2.17523,-1.03222 3.26122,-2.27404 2.73428,-3.12665 -0.34178,-0.55301 -0.80755,-0.48464 -2.59581,0.38102 -1.23348,0.59712 -3.13876,1.05499 -4.39011,1.05499 -2.01735,0 -3.39407,0.62526 -3.39407,1.5415 0,1.05198 5.51636,1.15959 7.64571,0.14907 z m 4.89172,0.33729 c 0.37897,-0.61316 -1.03941,-1.69112 -1.69338,-1.28696 -0.38477,0.23779 -0.37369,0.53147 0.0387,1.02847 0.66104,0.7965 1.26389,0.89068 1.65461,0.25849 z m -53.41732,-0.81638 c 0.80889,-0.41829 1.33941,-0.97294 1.17897,-1.23255 -0.44495,-0.71993 -1.33877,-0.5497 -2.69863,0.51401 -1.32909,1.03963 -3.20519,1.28979 -3.69762,0.49301 -0.16752,-0.27115 -0.56895,-0.48596 -0.89189,-0.47734 -0.32294,0.009 -0.15652,0.34143 0.36984,0.73954 1.2433,0.94039 3.88251,0.92351 5.73933,-0.0367 z m -24.7901,-0.32412 c 1.01308,-1.01308 0.65345,-1.47238 -0.88784,-1.13386 -2.83146,0.6219 -2.45146,-2.8208 0.51017,-4.62186 1.25888,-0.76557 1.37418,-0.97626 0.68011,-1.24259 -0.99019,-0.37998 -2.90558,0.7665 -3.67146,2.19757 -0.75226,1.4056 -0.75109,3.72794 0.002,4.63576 0.74945,0.90301 2.54086,0.99081 3.36669,0.16491 z m 8.73977,-0.41601 c 0.39341,-0.63657 -0.70134,-2.04053 -1.30176,-1.66944 -0.24045,0.14851 -0.43716,0.7008 -0.43716,1.22711 0,1.01045 1.19927,1.3155 1.73892,0.44233 z m 7.29107,-0.0376 c 1.52444,-0.78167 4.28729,-3.47676 4.01531,-3.91682 -0.39056,-0.63198 -2.38493,0.10957 -3.78368,1.4067 -0.73605,0.68261 -1.23044,1.41559 -1.09864,1.62883 0.25744,0.41654 -1.29391,0.4853 -3.12971,0.13864 -0.62119,-0.11721 -1.00922,-0.40775 -0.86229,-0.64549 0.14702,-0.23777 0.70797,-0.31702 1.24672,-0.17609 0.63709,0.16658 1.09295,-0.0393 1.3039,-0.58905 0.40741,-1.0617 -0.68822,-1.82691 -2.13097,-1.48834 -0.59349,0.1392 -1.21669,0.0306 -1.3849,-0.2416 -0.30947,-0.50075 -2.21969,-0.70868 -2.21969,-0.24163 0,0.45305 1.2098,2.43182 2.18127,3.5677 1.06121,1.2408 3.98706,1.51885 5.86268,0.55711 z m 4.84846,-0.18735 c 0,-0.25761 -0.23849,-0.54787 -0.52998,-0.64504 -0.29151,-0.0971 -0.53,0.1931 -0.53,0.64504 0,0.45193 0.23849,0.7422 0.53,0.64503 0.29149,-0.0971 0.52998,-0.38744 0.52998,-0.64503 z m 1.61227,-1.96318 c -1.12598,-0.89783 -1.578,-1.00948 -2.28903,-0.56544 -0.81602,0.50962 -0.78828,0.58587 0.35144,0.96577 0.68057,0.22687 1.23741,0.73458 1.23741,1.12826 0,0.57789 0.2026,0.60736 1.05161,0.15298 1.04476,-0.55914 1.04247,-0.5701 -0.35143,-1.68157 z m 14.74267,1.16381 c -0.97078,-0.97076 -2.13137,-0.941 -2.13137,0.0546 0,0.37122 0.86416,0.66722 2.69791,0.92408 0.26363,0.0369 0.009,-0.40351 -0.56654,-0.97873 z m 50.17189,0.35859 c -0.43863,-0.52853 -0.40105,-0.85665 0.16268,-1.42038 0.82905,-0.82903 0.54108,-1.41001 -0.50073,-1.01024 -1.00255,0.38473 -0.90739,3.11791 0.10864,3.11791 0.6281,0 0.67739,-0.14758 0.22949,-0.68729 z m -83.36339,-1.05048 c 0,-0.82005 -0.37847,-1.40839 -1.10929,-1.72438 -0.6101,-0.2638 -1.49142,-0.75251 -1.9585,-1.08602 -0.67351,-0.4809 -0.97722,-0.47834 -1.46796,0.013 -0.85144,0.85143 -0.0326,2.08672 2.10759,3.1792 2.21205,1.12924 2.42816,1.09531 2.42816,-0.38118 z m 36.48334,1.00388 c 0,-0.13249 -0.38826,-0.69145 -0.86278,-1.24213 -0.49693,-0.57666 -0.96732,-2.15102 -1.10929,-3.71264 -0.29866,-3.28489 -1.07306,-3.54189 -1.6751,-0.55587 -0.37957,1.88263 -0.28616,2.44801 0.65649,3.97324 0.64428,1.04247 1.49038,1.77828 2.04485,1.77828 0.52019,0 0.94583,-0.10845 0.94583,-0.24088 z m 7.63639,-0.43376 c 0.89345,-0.6533 0.88967,-0.69226 -0.11982,-1.23255 -0.57336,-0.30684 -1.15214,-0.55791 -1.28619,-0.55791 -0.42563,0 -1.79318,1.53082 -1.79318,2.00728 0,0.69361 2.15378,0.54763 3.19922,-0.21682 z m 14.37862,-0.0958 c 0.24298,-0.81765 -2.27168,-2.25634 -3.66153,-2.09484 -1.34437,0.15615 -1.34437,0.15615 0.62771,1.47991 1.97041,1.32257 2.77509,1.48567 3.03382,0.61493 z m -63.87037,-0.85473 c -0.63278,-0.63278 -1.27447,-0.14366 -0.806,0.61428 0.18149,0.29363 0.55581,0.39427 0.83185,0.22366 0.33673,-0.2081 0.32823,-0.48388 -0.0259,-0.83794 z m 31.49443,0.76229 c -0.0263,-1.28692 -2.16015,-2.20555 -6.8329,-2.94152 -2.57919,-0.40624 -1.7177,0.88916 1.45434,2.18685 2.64797,1.0833 5.39313,1.46847 5.37856,0.75467 z m 14.79809,-1.56166 c 0.90668,-0.71609 1.08732,-1.11918 0.68324,-1.5247 -0.40459,-0.40603 -1.15943,-0.16435 -2.86559,0.91771 -2.02648,1.28515 -2.2061,1.53065 -1.43552,1.96189 0.93099,0.521 1.5237,0.29904 3.61787,-1.3549 z m 44.78018,0.41377 c 0.15876,-1.16931 0.14628,-1.17359 -0.6006,-0.2079 -0.93042,1.20296 -1.00511,1.87726 -0.17777,1.60478 0.33895,-0.11162 0.68919,-0.74023 0.77833,-1.39688 z m -16.43433,0.006 c 0.61398,-0.61397 0.19038,-0.70699 -3.21954,-0.70699 -2.1596,0 -3.92654,0.0373 -3.92654,0.0829 0,0.0457 0.14403,0.45815 0.31996,0.91675 0.26392,0.68779 0.82763,0.79706 3.21954,0.62404 1.59927,-0.11571 3.21665,-0.52677 3.60658,-0.91672 z m -37.7184,-0.2077 c 0.3347,-0.40329 0.47678,-1.07662 0.31573,-1.49629 -0.26401,-0.68799 -0.43916,-0.68736 -1.78072,0.006 -0.81836,0.42318 -1.4879,0.94859 -1.4879,1.16761 0,1.21274 2.02999,1.43432 2.95289,0.32229 z m 46.84191,0.26936 c 0,-0.58169 -0.96156,-1.20395 -1.3147,-0.8508 -0.35317,0.35316 0.26909,1.31472 0.85077,1.31472 0.25518,0 0.46393,-0.20877 0.46393,-0.46392 z m 2.95811,0.20007 c 0,-0.14516 -0.35717,-0.80899 -0.79373,-1.47526 -0.43657,-0.66626 -0.65827,-1.56443 -0.49269,-1.99593 0.18224,-0.47483 0.0762,-0.70959 -0.26848,-0.59468 -1.03859,0.3462 -1.37295,2.18145 -0.59877,3.28673 0.64849,0.92586 2.15367,1.47039 2.15367,0.77914 z m -77.89683,-1.46173 c 0,-0.40674 -0.32583,-0.73952 -0.72405,-0.73952 -0.44106,0 -0.61315,0.28905 -0.44028,0.73952 0.15615,0.40676 0.4819,0.73954 0.72405,0.73954 0.24215,0 0.44028,-0.33278 0.44028,-0.73954 z m 8.6278,0.24653 c 0.16751,-0.27118 -0.16528,-0.49303 -0.73952,-0.49303 -0.57433,0 -0.90711,0.22185 -0.73954,0.49303 0.16752,0.27115 0.50039,0.49301 0.73954,0.49301 0.23915,0 0.57194,-0.22186 0.73952,-0.49301 z m 25.88345,-1.20958 c 0,-1.16222 -0.57463,-2.24931 -1.03769,-1.96312 -0.24275,0.15 -0.44136,0.6849 -0.44136,1.18863 0,0.50371 -0.26114,1.00291 -0.58031,1.10929 -0.31916,0.10639 -0.41664,0.45826 -0.21658,0.78194 0.46679,0.7553 2.27594,-0.13248 2.27594,-1.11674 z m 8.14703,1.18979 c 0.17423,-0.28206 -0.26074,-0.96723 -0.96679,-1.5226 -1.96344,-1.54444 -2.77895,-3.55074 -2.67955,-6.5922 0.0488,-1.4915 0.17627,-2.71182 0.28353,-2.71182 0.10714,0 0.82538,0.32601 1.59592,0.72448 1.30239,0.6735 1.419,0.65568 1.65662,-0.25295 0.30736,-1.17535 -0.90754,-1.95059 -3.05681,-1.95059 -1.88596,0 -2.51485,1.10763 -2.51485,4.42925 0,2.90166 0.97342,5.10063 3.11353,7.03342 1.63466,1.47633 2.08553,1.6243 2.5684,0.84301 z m -20.69529,-1.99812 c 0.4337,-0.83867 0.66261,-1.65078 0.5087,-1.8047 -0.46855,-0.46856 -2.25797,1.44924 -2.25797,2.41995 0,1.39066 0.87026,1.08456 1.74927,-0.61525 z m 48.29815,0.92681 c -3.31701,-1.92293 -3.91537,-4.85139 -3.46198,-16.94347 0.30761,-8.20401 0.25659,-9.57445 -0.3565,-9.57445 -0.58892,0 -0.77017,1.63562 -1.02445,9.24409 -0.35773,10.70474 -0.16639,13.17919 1.16064,15.01709 0.53053,0.73471 0.96469,1.40027 0.9648,1.47904 2.8e-4,0.192 -13.02038,-0.1582 -13.22782,-0.35583 -0.0894,-0.0852 0.16603,-0.67335 0.56789,-1.30699 0.82063,-1.29417 1.35935,-3.52266 1.57712,-6.52405 0.27725,-3.82094 0.29063,-19.14232 0.0168,-19.41601 -0.68276,-0.68274 -0.88162,0.83723 -1.06203,8.11751 -0.37404,15.09529 -0.56104,16.21839 -3.12797,18.78532 l -1.53706,1.53706 3.34291,0.17292 c 1.83861,0.095 6.44895,0.20952 10.24519,0.25437 5.41787,0.0641 6.69151,-0.0406 5.92231,-0.48651 z m 10.59279,-0.22376 c 0.39207,-0.39388 0.27945,-9.63314 -0.13565,-11.13385 -0.26923,-0.97317 -0.69247,-1.35581 -1.49963,-1.35581 -1.6794,0 -2.38788,0.90499 -1.69949,2.17087 1.03356,1.90068 1.34811,6.12747 0.59087,7.93982 -0.93677,2.242 -0.47357,3.37305 1.20846,2.9509 0.70838,-0.17777 1.39936,-0.43516 1.5355,-0.57193 z m -84.71412,-1.76651 c 0.32473,-0.63137 0.24966,-0.86278 -0.2799,-0.86278 -0.85452,0 -1.50618,1.70528 -0.97817,2.55964 0.27447,0.44408 0.42552,0.41374 0.59147,-0.11888 0.12261,-0.39338 0.42254,-1.10349 0.6666,-1.57802 z m 23.48846,1.1401 c 0.12317,-0.36977 -0.0617,-0.55465 -0.43139,-0.43139 -0.35591,0.1187 -0.74416,0.50688 -0.86278,0.86278 -0.12317,0.36977 0.0617,0.55465 0.43139,0.43139 0.3559,-0.1187 0.74414,-0.50689 0.86278,-0.86278 z m 55.31045,-0.33008 c 0,-0.96301 -0.36846,-0.85467 -0.9801,0.28817 -0.42569,0.7954 -0.38348,0.92187 0.22916,0.68679 0.41302,-0.15857 0.75094,-0.59721 0.75094,-0.97496 z m -60.39471,0.41498 c -1.58707,-1.16601 -2.57036,-3.53805 -2.84763,-6.8696 -0.16248,-1.95209 -0.58657,-4.05973 -0.94245,-4.68366 -0.58287,-1.02186 -0.66124,-0.76168 -0.78991,2.62259 -0.0913,2.40306 0.1228,4.52816 0.59444,5.89696 0.40551,1.17698 0.65058,2.22666 0.54461,2.33263 -0.28188,0.28187 -2.07588,0.22491 -5.50249,-0.17478 l -3.02724,-0.35306 0.88413,-1.53874 c 1.05542,-1.83687 1.33423,-3.22557 1.69467,-8.44099 0.23553,-3.40791 -0.18822,-5.91473 -0.87264,-5.16243 -0.11627,0.12765 -0.3197,2.68032 -0.45222,5.67243 -0.25976,5.86518 -0.88317,7.77464 -3.11022,9.52645 l -1.2747,1.00269 2.62066,0.18223 c 5.07982,0.35317 12.96808,0.34514 12.48099,-0.013 z m 21.7245,-2.51951 c -1.40931,-2.7253 -2.55929,-1.82801 -1.39163,1.08583 0.66102,1.64955 0.84603,1.79664 1.47211,1.17057 0.62607,-0.62606 0.61595,-0.90965 -0.0805,-2.2564 z m 11.55423,1.93987 c 0,-0.52631 -0.22186,-1.09405 -0.49302,-1.26164 -0.27963,-0.17273 -0.49303,0.2414 -0.49303,0.95694 0,0.6939 0.22186,1.26165 0.49303,1.26165 0.27116,0 0.49302,-0.43062 0.49302,-0.95695 z m 25.64861,-1.05855 c 0.69642,-2.58621 0.0589,-7.10535 -1.00235,-7.10535 -0.56682,0 -0.76883,0.787 -0.88326,3.44082 -0.24142,5.59924 0.81292,7.64824 1.88561,3.66453 z m -45.98538,0.9062 c -0.3106,-0.93288 -1.84904,-1.0655 -1.84904,-0.15932 0,0.45733 0.42153,0.77567 1.02711,0.77567 0.60246,0 0.94229,-0.2548 0.82193,-0.61628 z m 15.8996,-0.46836 c 0,-0.79643 -0.14571,-0.93884 -0.54867,-0.53598 -0.30175,0.30177 -0.3996,0.78984 -0.2174,1.08465 0.50997,0.82514 0.76607,0.64173 0.76607,-0.54867 z m 7.05465,0.80602 c 0.6378,-0.24475 0.63852,-0.45403 0.006,-1.72206 -1.10737,-2.21974 -1.12259,-7.18415 -0.0309,-10.07827 1.44763,-3.83788 1.80805,-5.17668 1.39363,-5.17668 -1.63624,0 -4.47366,7.14974 -4.477,11.28121 -10e-4,1.83051 0.31613,3.16839 1.0241,4.31392 1.12747,1.82428 1.05558,1.77662 2.08424,1.38188 z m -51.76998,-0.95394 c -0.16547,-0.83909 -1.48739,-0.83197 -1.8104,0.009 -0.23443,0.61096 -0.047,0.76089 0.80075,0.64048 0.60878,-0.0865 1.06311,-0.37909 1.00965,-0.65024 z m 19.4944,-0.9506 c 0.0932,-0.48382 -0.0863,-1.13345 -0.39898,-1.44359 -0.42808,-0.42465 -0.48798,-0.35251 -0.24261,0.29203 0.2384,0.6263 -0.0186,0.98677 -0.95685,1.34358 -1.71844,0.65336 -1.65857,1.51338 0.0732,1.05026 0.74571,-0.19942 1.43208,-0.75845 1.52531,-1.24228 z m 52.33692,1.48914 c 0,-0.67833 -2.70277,-5.2487 -2.84735,-4.81491 -0.25733,0.77198 1.71121,5.01591 2.32661,5.01591 0.28642,0 0.52074,-0.0904 0.52074,-0.201 z m -48.15692,-2.81823 c 0.12951,-0.49564 0.86792,-1.18113 1.64072,-1.52331 0.77278,-0.34217 1.62691,-0.90165 1.89807,-1.2433 0.27116,-0.34165 1.10314,-0.67007 1.84883,-0.7298 1.5116,-0.12112 1.56724,-0.25926 0.85711,-2.1271 -0.49869,-1.31165 -0.49869,-1.31165 -2.72248,1.16174 -1.22309,1.36037 -3.21727,2.95432 -4.4315,3.54212 -1.21423,0.5878 -2.20769,1.25266 -2.20769,1.47745 0,0.22478 -0.13826,0.76911 -0.30733,1.20958 -0.27965,0.72874 -0.15,0.72582 1.44063,-0.0326 0.96139,-0.45845 1.85403,-1.23907 1.98364,-1.73471 z m -31.3352,1.62244 c 0.49191,-0.31224 0.45261,-0.73778 -0.18642,-2.01872 -1.09294,-2.19086 -0.70521,-7.22101 0.73643,-9.55362 1.28023,-2.07144 1.29277,-2.31442 0.11963,-2.31442 -1.19959,0 -1.71466,0.69807 -2.7021,3.6622 -1.02683,3.08236 -1.02776,5.83989 -0.004,8.52351 0.84266,2.20646 1.01381,2.34951 2.03537,1.70105 z m 9.72042,-0.0667 c 0.1623,-0.26257 -0.1418,-1.43654 -0.67592,-2.6088 -0.53404,-1.17229 -1.26238,-3.06511 -1.61854,-4.20628 -0.60903,-1.95142 -1.48411,-2.63186 -2.10098,-1.63373 -0.33045,0.53468 3.15712,8.9262 3.7098,8.9262 0.21482,0 0.52336,-0.21483 0.68564,-0.47739 z m 24.35702,-2.17641 c -0.66281,-0.78027 -1.91505,0.12746 -1.91505,1.38818 v 1.23039 l 1.14238,-1.09166 c 0.62831,-0.60044 0.97602,-1.28754 0.77267,-1.52691 z m 3.99213,-1.30723 c -0.78267,-1.46245 -2.37862,-1.23678 -2.73434,0.38665 -0.16341,0.7457 -0.38253,1.63314 -0.48693,1.97208 -0.10435,0.33895 9.8e-4,0.61628 0.23422,0.61628 0.23326,0 0.56332,-0.55465 0.73346,-1.23255 0.18224,-0.7258 0.6602,-1.22944 1.16273,-1.225 0.68036,0.006 0.7149,0.0952 0.17031,0.44011 -0.48186,0.30516 -0.57231,0.84739 -0.30712,1.84126 l 0.37588,1.40871 0.6852,-1.6192 c 0.50105,-1.18403 0.54579,-1.87966 0.16659,-2.58834 z m 4.97223,1.12619 c 0.62347,-1.55918 1.40102,-3.27857 1.72787,-3.82089 0.32687,-0.54232 0.84668,-1.76255 1.15514,-2.7116 0.67024,-2.06226 4.12846,-9.21408 4.47926,-9.26338 1.70894,-0.24019 2.95811,-1.2158 2.95811,-2.31034 0,-1.70669 -0.80796,-1.5606 -1.97749,0.35756 -1.2513,2.05228 -1.28131,0.82913 -0.0376,-1.53518 1.34664,-2.56013 3.00117,-6.23124 3.00117,-6.65907 0,-0.20042 0.42144,-1.29514 0.93651,-2.43269 2.94946,-6.51382 4.92015,-11.09079 5.24224,-12.17514 0.60833,-2.04811 3.6775,-8.38126 4.06204,-8.38195 0.1975,-3.5e-4 0.28866,3.80063 0.20257,8.44664 -0.10249,5.53408 0.025,8.62877 0.36977,8.97357 0.5684,0.56838 0.55485,0.8368 0.75325,-14.93693 l 0.11441,-9.10326 -1.25847,2.69403 c -0.69213,1.48172 -2.10012,4.44865 -3.12883,6.59313 -1.02869,2.1445 -1.87036,4.28047 -1.87036,4.74657 0,0.46611 -0.3328,1.12366 -0.73954,1.46121 -0.40674,0.33757 -0.73952,0.82672 -0.73952,1.08702 0,0.45792 -1.8671,4.93323 -4.17444,10.00589 -4.76918,10.48488 -9.63005,22.22841 -9.63005,23.26549 0,0.35523 -0.16976,0.64588 -0.3773,0.64588 -0.20752,0 -0.79301,1.16476 -1.30112,2.58834 -0.75832,2.12466 -0.98908,2.41171 -1.28808,1.60232 -1.20398,-3.25903 -6.58406,-17.03893 -7.20133,-18.44458 -0.40623,-0.92508 -1.83749,-4.65024 -3.18059,-8.27816 -1.3431,-3.6279 -2.84826,-7.53003 -3.34481,-8.6714 -0.49654,-1.14138 -1.18886,-2.96268 -1.53848,-4.04731 -0.34963,-1.08463 -1.01942,-2.8595 -1.48843,-3.94415 -0.46901,-1.08463 -1.52867,-3.52508 -2.3548,-5.42318 -0.82615,-1.89813 -1.64983,-4.16962 -1.83045,-5.04779 -1.08171,-5.25966 -1.52342,1.67914 -1.6944,26.61732 -0.0861,12.55794 -0.009,14.17427 0.67236,14.17427 0.62376,0 0.76953,-0.65086 0.76953,-3.43566 0,-2.85135 0.12578,-3.38739 0.73954,-3.15188 0.62458,0.23969 0.73952,-0.42677 0.73952,-4.28828 0,-5.36676 -0.38859,-5.61712 -0.73169,-0.47143 -0.46682,7.00083 -0.69799,3.92227 -0.69092,-9.20107 0.007,-12.37692 0.34597,-16.21434 1.21162,-13.70262 0.18429,0.53473 1.0613,2.74708 1.94888,4.91636 0.8876,2.16929 1.95209,4.94251 2.36556,6.16273 0.41344,1.22023 1.18199,3.32787 1.70787,4.68366 2.30996,5.95542 3.79637,9.70711 5.76234,14.54404 2.50265,6.15728 4.83242,12.3112 5.69282,15.03704 0.34236,1.08465 0.92369,2.4097 1.29184,2.94456 0.36816,0.53487 0.66938,1.36683 0.66938,1.84883 0,1.70556 0.88598,0.84015 2.00508,-1.95852 z m 18.53059,-0.12597 c -0.38326,-1.43588 -0.36647,-2.72748 0.062,-4.77022 0.32317,-1.54066 0.52469,-2.86408 0.44785,-2.94093 -0.077,-0.0768 -0.73917,0.41609 -1.47179,1.09543 -1.0936,1.01404 -1.33205,1.66209 -1.33205,3.62009 0,3.07879 1.25709,6.2614 2.17295,5.50131 0.50321,-0.41762 0.53006,-0.97335 0.12112,-2.50568 z m -59.09932,1.32024 c -1.39902,-1.29657 -2.6075,-4.43004 -2.07306,-5.37528 0.26529,-0.46918 0.20372,-0.48768 -0.24584,-0.0738 -1.34116,1.23454 0.91973,6.5967 2.78143,6.5967 0.57317,0 0.45239,-0.29968 -0.46253,-1.14757 z m 21.20655,-4.27287 c -0.3835,-6.62487 -3.5679,-10.56451 -9.7672,-12.08372 -3.57967,-0.87724 -3.57967,-0.87724 -4.47344,0.30192 -0.89377,1.17916 -0.89377,1.17916 1.67074,1.44574 6.07773,0.63175 9.9985,4.61781 10.54031,10.71586 0.59868,6.73809 2.42188,6.39692 2.02959,-0.3798 z m 1.6115,4.11847 c 0.20441,-0.55256 0.20907,-1.26775 0.0112,-1.58927 -0.22249,-0.35999 -0.56963,0.0941 -0.90347,1.18196 -0.59019,1.923 0.19925,2.28304 0.89313,0.40731 z m 26.93576,-0.91661 c 2.31975,-3.90703 3.09014,-5.86794 2.46222,-6.26717 -0.97199,-0.61798 -1.10611,-0.48984 -2.30244,2.19977 -0.63321,1.4236 -1.56018,3.17725 -2.05996,3.89701 -1.12833,1.62499 -1.16284,2.51075 -0.0896,2.30187 0.45046,-0.0878 1.3459,-1.04683 1.98988,-2.13148 z m -45.64772,0.12335 c -0.22414,-0.6101 -0.9033,-1.1829 -1.50924,-1.27287 -0.60593,-0.09 -1.46921,-0.80753 -1.9184,-1.59458 -1.13179,-1.9831 -2.05196,-2.23961 -2.03829,-0.5682 0.0186,2.22045 2.42105,4.49761 4.78006,4.52996 0.92776,0.013 1.03166,-0.15317 0.68587,-1.09431 z m 79.7099,0.027 c -0.39524,-0.59525 -1.00939,-1.1792 -1.36483,-1.29769 -0.40258,-0.13416 -0.29374,0.26799 0.28871,1.06678 1.13245,1.55307 2.0905,1.75864 1.07612,0.23091 z m -6.79694,-0.7419 c 0,-0.99145 -0.14255,-1.18863 -0.55847,-0.77267 -0.30718,0.30718 -0.42508,0.9062 -0.262,1.33116 0.45133,1.17613 0.82047,0.92487 0.82047,-0.55849 z m -29.23051,-2.21844 c -1.08474,-0.68936 -1.33663,-0.4146 -1.33335,1.45427 l 0.004,1.84882 0.96359,-1.46183 c 0.72018,-1.09256 0.81277,-1.55767 0.36653,-1.84126 z m 12.86227,-1.75053 -0.14795,-2.83468 -0.59261,2.50231 c -0.65207,2.75329 -0.3571,5.39248 0.4429,3.96297 0.24498,-0.43776 0.37888,-2.07153 0.29756,-3.6306 z m -51.17521,1.61558 c 0,-0.97534 -0.23015,-1.16835 -1.30196,-1.09193 -0.71608,0.0511 -1.4002,-0.18466 -1.52026,-0.5238 -0.14403,-0.40689 0.0665,-0.50728 0.61933,-0.2952 1.01407,0.38915 0.80673,-0.42427 -1.31181,-5.14608 -1.41522,-3.15426 -1.41522,-3.15426 -0.44975,-4.38167 1.01772,-1.29381 0.91498,-3.97668 -0.18056,-4.7132 -0.93159,-0.62634 -2.77617,-0.40884 -3.07205,0.36222 -0.36118,0.94119 -1.11113,0.9405 -2.15255,-0.002 -0.73878,-0.6686 -0.81214,-0.64341 -0.74587,0.25601 0.0404,0.54865 0.89084,1.83456 1.88983,2.85761 1.13828,1.16571 1.81633,2.33254 1.81633,3.12563 0,0.69606 0.66276,2.5725 1.47281,4.16988 0.81004,1.59738 1.47562,3.18877 1.47905,3.53642 0.004,0.34767 0.33245,1.41283 0.73113,2.36703 0.63847,1.52806 0.84421,1.67105 1.72556,1.19936 0.57938,-0.31007 1.00069,-1.03436 1.00069,-1.7203 z m -6.33011,-13.34776 c -0.78335,-1.71926 -0.71992,-2.19668 0.29063,-2.18785 0.7422,0.006 0.75942,0.0785 0.12317,0.51508 -0.60359,0.41424 -0.54951,0.48082 0.29419,0.36222 1.08463,-0.15243 1.18486,-0.0188 1.18486,1.58025 0,1.39664 -1.2124,1.22389 -1.89295,-0.2697 z m 21.60313,14.293 c -0.80947,-2.12906 0.45597,-3.81247 3.61422,-4.80801 2.56399,-0.80822 4.25405,-2.01491 3.65754,-2.61141 -0.15093,-0.15093 -0.72267,-0.0347 -1.27039,0.25843 -0.5477,0.29313 -2.10843,0.53296 -3.46824,0.53296 -2.22433,0 -2.59861,0.16547 -3.73005,1.64885 -1.51219,1.98255 -1.5464,2.55519 -0.27701,4.63712 1.18684,1.94657 2.17078,2.17491 1.47393,0.34206 z m 3.67295,0.4855 c 0.4261,-0.4261 0.77474,-0.96489 0.77474,-1.19731 0,-0.23244 -0.34864,-0.77123 -0.77474,-1.19733 -0.42611,-0.42612 -0.96491,-0.77476 -1.19733,-0.77476 -0.63319,0 -1.97208,1.46322 -1.97208,2.1552 0,0.77979 1.00918,1.78895 1.78895,1.78895 0.33314,0 0.95435,-0.34863 1.38046,-0.77475 z m -1.93189,-0.69627 c -0.36362,-0.58834 0.0978,-1.48708 0.76365,-1.48708 0.59991,0 0.60381,1.33441 0.006,1.7045 -0.25243,0.15596 -0.59831,0.0581 -0.76862,-0.21742 z m 57.72949,-0.36753 c -0.50116,-0.50116 -0.91468,0.25336 -0.50349,0.91868 0.31063,0.50259 0.42675,0.50298 0.59375,0.002 0.11422,-0.34254 0.0736,-0.75684 -0.0902,-0.92067 z m -1.55624,-0.1051 c 0.4766,-0.52662 0.77544,-1.23079 0.66409,-1.56482 -0.11758,-0.35285 -0.66934,0.0483 -1.3167,0.95749 -1.21579,1.70745 -0.74199,2.14838 0.65261,0.60733 z m -79.59658,-0.18205 c 0,-1.48332 -4.53514,-4.82864 -5.16483,-3.80978 -0.15988,0.25862 0.34927,0.80112 1.13135,1.20555 0.7821,0.40443 1.79281,1.30131 2.24607,1.99306 0.88628,1.35263 1.78741,1.66076 1.78741,0.61117 z m 50.28783,0.18261 c 0,-0.25515 -0.22185,-0.60103 -0.49301,-0.76862 -0.27116,-0.16752 -0.49301,0.0412 -0.49301,0.46392 0,0.42275 0.22185,0.76863 0.49301,0.76863 0.27116,0 0.49301,-0.20877 0.49301,-0.46393 z m 25.04844,-2.9309 c 1.96547,-2.8114 2.38086,-4.49345 1.10966,-4.49345 -0.2727,0 -0.86472,0.72103 -1.31558,1.60229 -0.45084,0.88127 -1.47043,2.43035 -2.26573,3.44238 -1.3595,1.73 -1.48092,3.12475 -0.23589,2.70974 0.30677,-0.1023 1.52517,-1.56969 2.70754,-3.26096 z m -45.52698,0.17031 c 1.45943,-1.91342 1.47976,-2.28123 0.27119,-4.91036 l -0.90651,-1.97207 0.21429,1.72556 c 0.25342,2.04049 -0.47675,3.1322 -2.81418,4.2076 -1.66247,0.76486 -1.01383,0.73582 1.96371,-0.0878 0.88483,-0.24477 1.1133,-0.15429 0.92442,0.36591 -0.13807,0.38006 -0.52541,0.62725 -0.86093,0.54931 -0.56775,-0.13193 -1.92729,1.21501 -1.96262,1.94437 -0.041,0.84415 2.05603,-0.36118 3.17063,-1.82247 z m 48.82708,1.25238 c 0.16751,-0.27118 0.0408,-0.49303 -0.28191,-0.49303 -0.40134,0 -0.494,-0.58398 -0.29339,-1.84882 0.29322,-1.84881 0.29322,-1.84881 -0.62282,-0.64814 -0.72766,0.95377 -0.80913,1.43534 -0.3961,2.34183 0.55646,1.22133 1.10271,1.44341 1.59422,0.64816 z m -7.2051,-1.51388 c -0.79117,-0.48897 -1.1513,-0.22961 -0.69848,0.50307 0.18149,0.29363 0.56014,0.39159 0.84151,0.21768 0.33126,-0.20471 0.28083,-0.4588 -0.1431,-0.72075 z m -65.22496,-1.31849 c -0.53858,-0.53857 -0.90788,0.31793 -0.52121,1.20879 0.36666,0.84472 0.39323,0.84394 0.59751,-0.0168 0.11758,-0.49575 0.0833,-1.0319 -0.0764,-1.19146 z m 75.81074,-1.58156 c 1.27958,-0.42229 2.01831,-0.43198 2.75791,-0.0362 1.1663,0.6242 1.36313,-0.0665 0.27606,-0.96862 -1.59884,-1.32691 -5.42263,0.50925 -6.30721,3.02868 -0.51543,1.46802 0.30479,1.45617 0.92267,-0.0131 0.40338,-0.95936 1.18113,-1.62458 2.35057,-2.01054 z m -35.18034,2.13718 c 0,-0.16752 -0.66557,-1.06274 -1.47905,-1.98924 l -1.47905,-1.68455 v 1.37931 c 0,0.93891 0.35417,1.5547 1.10928,1.92868 1.35,0.66862 1.84882,0.7673 1.84882,0.3658 z m -47.10565,-0.94838 c 0.86362,-0.65306 0.88559,-0.80669 0.21166,-1.48062 -0.67391,-0.67391 -0.89332,-0.64072 -2.11445,0.31981 -1.04516,0.82214 -1.20929,1.16888 -0.70467,1.48874 0.92148,0.58413 1.49707,0.51174 2.60746,-0.32793 z m 19.49664,-0.11013 c 0,-0.47855 0.4539,-1.71695 1.00865,-2.752 1.00864,-1.88191 1.00864,-1.88191 0,-1.56178 -0.55475,0.17608 -1.00865,0.10174 -1.00865,-0.1651 0,-0.26684 0.27733,-0.57848 0.61628,-0.69258 0.49111,-0.16528 0.48937,-0.36121 -0.009,-0.96463 -0.34363,-0.41647 -0.48629,-1.11812 -0.31702,-1.55922 0.37678,-0.98187 -1.37578,-1.13269 -2.15842,-0.18578 -0.73609,0.89066 -0.60273,4.22714 0.26603,6.65576 0.76699,2.14401 1.60163,2.78254 1.60163,1.22524 z m 54.06279,0.10677 c 0.30252,-0.78837 -1.05579,-2.1508 -2.17264,-2.17921 -0.78532,-0.0199 -0.80201,1.57345 -0.0246,2.35081 0.81981,0.81981 1.84764,0.73954 2.19729,-0.17161 z m -30.41539,-1.57861 c -0.0168,-1.84882 -0.0168,-1.84882 -0.72205,-0.61627 -0.91852,1.60675 -0.91852,2.46509 0,2.46509 0.52899,0 0.73454,-0.52635 0.72205,-1.84882 z m 8.14333,1.37025 c 0.16267,-0.26322 -0.32341,-0.62238 -1.08018,-0.79817 -3.42986,-0.79671 -4.76929,-3.42353 -2.70039,-5.29587 1.22034,-1.1044 2.06395,-0.20318 2.06395,2.20495 0,1.77953 0.69172,2.85423 1.38859,2.15736 0.7411,-0.7411 0.32825,-4.59806 -0.60223,-5.62623 -2.03616,-2.24994 -5.22352,-0.45092 -5.22352,2.94823 0,1.47534 0.33623,2.12326 1.7427,3.35817 1.70633,1.49818 3.82318,2.00281 4.41108,1.05156 z m -53.97654,-1.87679 c 0,-0.63617 -0.15391,-0.61622 -0.97439,0.12615 -0.53593,0.48502 -0.84898,1.08482 -0.69564,1.33291 0.37987,0.61465 1.67003,-0.51258 1.67003,-1.45915 z m 60.11311,-0.47613 c 0.78622,-1.72556 0.63884,-4.61029 -0.28783,-5.63425 -1.24921,-1.38037 -3.99733,-1.2046 -4.68264,0.2995 -0.58313,1.2798 -0.28817,2.74304 0.55293,2.74304 0.27966,0 0.50848,-0.45068 0.50848,-1.00151 0,-1.39395 1.45897,-1.84627 2.28989,-0.70993 0.87617,1.19825 0.8505,3.25407 -0.0557,4.45205 -0.39811,0.52637 -0.73089,1.23622 -0.73952,1.57746 -0.0244,0.96454 1.77425,-0.32158 2.41432,-1.72636 z m -50.74575,1.09004 c 0,-0.84387 -2.11836,-1.85507 -2.38846,-1.14013 -0.23967,0.63441 0.89755,1.89554 1.70929,1.89554 0.37354,0 0.67917,-0.33994 0.67917,-0.75541 z m 68.72334,-1.34562 c 0.73964,-1.17257 -2.6e-4,-1.62032 -1.42107,-0.85993 -0.96197,0.51483 -1.10502,0.80142 -0.66478,1.33187 0.66605,0.80255 1.38445,0.63999 2.08585,-0.47194 z m 5.33918,0.13249 c 1.05463,-0.98254 1.05463,-0.98254 -0.14385,-2.26386 -1.8914,-2.02206 -2.86438,-2.38364 -3.8977,-1.44851 -0.85426,0.77312 -0.8319,0.87225 0.53403,2.36775 0.78411,0.85848 1.42563,1.73328 1.42563,1.94401 0,0.69157 1.0076,0.40148 2.08191,-0.59939 z m -55.00497,-0.27127 c 0.43121,-1.12366 -0.30805,-1.58678 -1.007,-0.63089 -0.55814,0.76328 -0.64812,0.75396 -1.19642,-0.1241 -0.86353,-1.38272 -1.57699,-1.16321 -0.90793,0.27932 0.64661,1.39411 2.64186,1.6991 3.11135,0.47559 z m -26.2497,-0.15504 c 0.89576,-1.44937 -2.64616,-6.47942 -4.56249,-6.47942 -2.05411,0 -1.55672,1.63608 0.62088,2.04228 1.3761,0.25668 1.61547,1.44143 0.26005,1.28714 -0.6031,-0.0686 -1.19496,0.15243 -1.31523,0.49147 -0.12428,0.35009 0.17628,0.61627 0.69555,0.61627 0.50283,0 1.46422,0.54124 2.13641,1.20276 1.3358,1.31455 1.76771,1.48205 2.16483,0.8395 z m 49.09867,-1.33183 c 0,-0.6619 -0.20691,-1.20344 -0.45979,-1.20344 -0.60299,0 -1.17117,1.82045 -0.77052,2.46871 0.49701,0.8042 1.23031,0.0501 1.23031,-1.26527 z m -41.63347,-0.17441 c -0.41068,-0.66451 -3.72419,-0.71527 -3.72419,-0.057 0,0.63446 3.0856,1.46288 3.63004,0.97459 0.23396,-0.20986 0.27634,-0.62274 0.0941,-0.91753 z m 21.01114,0.62015 c 0.95139,-0.86097 1.24751,-3.12819 0.40858,-3.12819 -0.27115,0 -0.49301,0.4437 -0.49301,0.98602 0,0.64122 -0.32868,0.98604 -0.93988,0.98604 -0.69715,0 -0.87329,0.25465 -0.68202,0.98604 0.31322,1.19774 0.54525,1.22087 1.70633,0.17013 z m 47.69394,-2.49072 c 1.66256,-2.01697 1.9357,-3.3319 0.78391,-3.77389 -0.9725,-0.37318 -0.94576,-1.99491 0.0464,-2.81839 0.66995,-0.55601 0.91432,-0.48224 1.65501,0.49972 0.48885,0.64808 1.00261,0.93586 1.17443,0.65786 0.6933,-1.1218 -2.82734,-2.96371 -3.92448,-2.05317 -0.94829,0.78701 -0.89842,3.89229 0.0624,3.89229 0.40674,0 0.73952,0.30602 0.73952,0.68007 0,0.78639 -3.70104,4.74311 -4.43661,4.74311 -0.27145,0 -0.49357,0.33849 -0.49357,0.75219 0,1.16987 2.52368,-0.31223 4.3928,-2.57979 z m -50.49867,0.33448 c -0.13435,-0.21746 -0.3265,-2.79916 -0.42692,-5.73711 -0.16752,-4.90103 -1.34752,-10.51856 -2.20948,-10.51832 -0.17217,5e-5 -0.31301,3.08074 -0.31301,6.84596 0,6.686 0.0289,6.87107 1.23255,7.9244 l 1.23255,1.0785 -1.60232,-0.27037 c -2.02399,-0.34152 -2.20668,0.76877 -0.2465,1.49824 1.36293,0.50721 2.83413,-0.0112 2.33313,-0.8213 z m -8.99146,-0.72545 c 0.12951,-0.67789 0.0445,-1.23255 -0.18904,-1.23255 -0.23355,0 -0.42464,0.55466 -0.42464,1.23255 0,0.6779 0.085,1.23255 0.18902,1.23255 0.10398,0 0.29507,-0.55465 0.42466,-1.23255 z m 11.16263,-0.56673 c 0.48917,-1.07362 0.44201,-1.73211 -0.26477,-3.69762 -1.2872,-3.57958 -2.13289,-2.95108 -1.34305,0.9981 0.19135,0.95682 0.61175,1.54636 1.10929,1.55567 0.70121,0.013 0.69351,0.0777 -0.0617,0.51752 -0.47453,0.27639 -0.86278,0.82428 -0.86278,1.21755 0,1.14825 0.77757,0.82517 1.42293,-0.59122 z m 56.75318,0.59582 c 0,-0.39073 -0.23698,-0.85689 -0.52662,-1.03591 -0.28965,-0.17907 -0.40754,-0.63582 -0.26199,-1.01513 0.36164,-0.9424 -0.66107,-0.86906 -1.76091,0.12634 -0.49588,0.44878 -0.90161,0.57554 -0.90161,0.28172 0,-0.65346 1.37779,-2.0837 2.0073,-2.0837 0.25178,0 0.45779,-0.55463 0.45779,-1.23254 0,-0.92757 0.25892,-1.23253 1.0464,-1.23253 0.87424,0 0.94544,-0.12168 0.43266,-0.73954 -0.75465,-0.90931 -2.65034,-0.96489 -3.36914,-0.0988 -0.29247,0.3524 -0.6827,1.62809 -0.86719,2.83486 -0.18448,1.20676 -0.57411,2.49546 -0.8658,2.86373 -0.39729,0.50162 -0.2949,0.8418 0.40804,1.35581 1.26851,0.92755 4.20107,0.91062 4.20107,-0.0242 z m -9.36735,-1.61264 c 0,-0.33377 -0.72103,-0.79613 -1.6023,-1.0275 -1.39459,-0.36612 -1.62436,-0.29164 -1.77238,0.57455 -0.24183,1.41505 1.22595,2.40169 2.44256,1.64191 0.51267,-0.32016 0.93212,-0.85521 0.93212,-1.18896 z m -23.27587,-2.37577 -0.22612,-2.72677 1.7674,0.0963 c 0.97204,0.0529 2.2544,-0.0622 2.84966,-0.25601 1.00728,-0.32786 1.06266,-0.23126 0.79896,1.39377 -0.28646,1.76525 0.51704,3.48527 1.37923,2.9524 0.42302,-0.26143 0.64696,-8.59329 0.23096,-8.59329 -0.11348,0 -0.55882,-0.13528 -0.98982,-0.30071 -0.59336,-0.22768 -0.75279,-0.0259 -0.6566,0.83096 0.10528,0.93774 -0.19083,1.20914 -1.72785,1.58368 -2.95949,0.72116 -3.31914,0.34934 -3.34109,-3.45425 -0.0192,-3.34334 -0.0192,-3.34334 -0.73952,-1.68444 -0.39613,0.91241 -0.72023,2.43072 -0.72023,3.37404 0,1.27277 -0.24255,1.77855 -0.94046,1.96105 -1.22582,0.32056 -1.69802,2.02115 -0.61892,2.22897 0.61115,0.11776 0.76573,0.62609 0.65533,2.15523 -0.12131,1.68069 0.0382,2.08916 0.99605,2.55016 0.6273,0.30193 1.22349,0.56395 1.32486,0.58231 0.10136,0.0186 0.0825,-1.19368 -0.0417,-2.6934 z m 26.71232,-0.34237 c -1.56633,-1.26833 -1.75736,-0.73913 -0.3985,1.10394 0.94993,1.28839 1.1841,1.40792 1.33112,0.67957 0.0986,-0.48783 -0.3194,-1.28694 -0.93262,-1.78351 z m -71.18016,0.34878 c 0.43076,-1.71628 0.0391,-3.44046 -0.78578,-3.45887 -0.96007,-0.0214 -1.4621,0.71707 -1.47151,2.16457 -0.006,0.83194 0.20253,1.08143 0.73199,0.87827 0.40674,-0.15615 0.73952,-0.0619 0.73952,0.20924 0,0.27115 -0.33278,0.62071 -0.73952,0.77678 -1.10562,0.42427 -0.89247,1.11201 0.25189,0.81277 0.5453,-0.14255 1.11832,-0.76484 1.27341,-1.38276 z m 2.17905,-10.22135 c 0.1677,-35.22918 0.0516,-39.22252 -1.23331,-42.380401 -0.31173,-0.766127 0.13565,-0.839712 4.86984,-0.800879 3.22585,0.02646 5.37786,0.254071 5.64537,0.597118 0.61866,0.793402 9.35178,23.229342 11.86661,30.486062 0.94389,2.72368 7.8599,20.05588 8.28464,20.76212 0.44162,0.73428 1.42,-1.24065 7.40628,-14.95001 8.37824,-19.18725 10.84527,-25.09906 11.44313,-27.42139 0.28756,-1.11704 0.93124,-2.5591 1.43042,-3.20461 0.49916,-0.64551 1.30506,-2.22748 1.79087,-3.5155 l 0.8833,-2.341835 h 3.06883 c 1.68785,0 4.0738,0.137703 5.30212,0.306115 l 2.23331,0.30612 -0.89585,2.03571 c -1.2051,2.73846 -1.40856,6.1135 -1.53268,25.42449 -0.0792,12.31055 0.0414,16.53563 0.47585,16.68045 0.42835,0.14273 0.58754,-1.66979 0.60354,-6.87267 0.036,-11.65411 0.47531,-31.11669 0.73986,-32.76857 0.13602,-0.84925 0.89013,-2.43155 1.67586,-3.5162 l 1.42858,-1.972108 -1.80977,-0.299258 c -0.99538,-0.164536 -4.14059,-0.301699 -6.98935,-0.30468 -5.17886,-0.0056 -5.17968,-0.0056 -5.77792,1.350369 -1.34254,3.042127 -5.22041,12.409337 -6.37283,15.393847 -0.67781,1.75541 -1.5358,3.75213 -1.90663,4.43716 -1.0801,1.9953 -3.44715,7.29981 -5.39579,12.09191 -0.99238,2.44044 -3.0109,6.93619 -4.48561,9.99054 -1.47471,3.05437 -2.68129,5.81649 -2.68129,6.13807 0,1.06046 -0.84698,-0.28594 -1.46202,-2.32412 -0.3273,-1.08463 -0.87642,-2.63764 -1.22027,-3.45112 -1.97305,-4.66796 -4.956,-12.28128 -7.43695,-18.98119 -6.5179,-17.60178 -9.11574,-24.295934 -9.70996,-25.020657 -0.36339,-0.443222 -2.58371,-0.616274 -7.90667,-0.616274 -7.40138,0 -7.40138,0 -6.13805,0.993738 1.18544,0.93247 1.81964,2.319583 2.53238,5.538753 0.1651,0.74568 0.10323,1.35579 -0.13733,1.35579 -0.24062,0 -0.56013,-0.91426 -0.71,-2.03169 -0.28355,-2.11396 -2.57209,-5.05601 -4.28047,-5.502755 -0.61903,-0.161927 -0.25592,0.678698 1.28744,2.980245 1.87469,2.79566 2.62514,4.5542 1.94348,4.5542 -0.11348,0 -0.61258,0.15242 -1.10928,0.33882 -0.79499,0.29827 -0.8221,0.23924 -0.22648,-0.49301 0.75001,-0.92204 0.7646,-0.91401 -1.66267,-0.91401 -2.83671,0 -3.20461,0.0615 -3.20461,0.53498 0,0.77412 3.24984,2.50531 4.70305,2.50531 0.76012,0 1.78776,-0.36718 2.28364,-0.81596 0.84312,-0.76301 0.90724,-0.75502 0.98865,0.12317 0.26914,2.90375 0.10323,34.21755 -0.18131,34.21772 -0.18736,9e-5 -0.46007,-0.19301 -0.60601,-0.42916 -0.1459,-0.23612 -0.90455,-0.55717 -1.68583,-0.71343 -1.89967,-0.37994 -4.49386,-2.62736 -5.32282,-4.61133 -0.36986,-0.88521 -0.67248,-2.85447 -0.67248,-4.3761 0,-2.76661 0,-2.76661 1.51636,-2.43355 1.43894,0.31603 1.50818,0.26138 1.35581,-1.07012 -0.13453,-1.17573 -0.41538,-1.42784 -1.73253,-1.55539 -2.21933,-0.21492 -3.27605,1.5218 -3.27605,5.3842 0,1.84888 -0.17292,2.76273 -0.46719,2.46851 -0.87066,-0.87068 -0.58023,-5.16373 0.50479,-7.46146 3.50294,-7.4181 4.14454,-9.74676 1.72821,-6.2724 -0.61057,0.87791 -2.08935,2.79257 -3.28618,4.25476 -2.39753,2.92917 -2.97735,4.87244 -2.46776,8.27072 0.28039,1.86965 0.86316,2.81317 3.41147,5.52313 3.42606,3.64344 5.83794,8.12477 5.46869,10.16099 -0.12988,0.7166 -0.11385,1.62203 0.0358,2.01205 0.45449,1.18442 1.15246,0.79389 1.15568,-0.64668 0.002,-0.74569 0.30956,-1.94326 0.68419,-2.66129 0.59375,-1.13795 0.57979,-1.40685 -0.10863,-2.09531 -0.72443,-0.72445 -0.72411,-0.78985 0.004,-0.78985 0.44234,0 1.25276,0.92751 1.83082,2.09533 l 1.03717,2.09533 3.9e-4,-2.09533 c 2.1e-4,-1.15242 0.22225,-2.09533 0.49341,-2.09533 0.29737,0 0.49301,2.05424 0.49301,5.1767 0,4.19198 0.13584,5.17668 0.71443,5.17668 0.60268,0 0.72333,-1.86999 0.77135,-11.95568 z m -6.72654,0.39915 c -1.60226,-0.69729 -2.45994,-1.61387 -1.96927,-2.10451 0.15615,-0.15616 0.65229,0.025 1.10246,0.40256 0.4502,0.37757 1.73125,1.06238 2.84677,1.52176 1.65984,0.68351 1.80437,0.83673 0.79572,0.84348 -0.67791,0.004 -1.92695,-0.29395 -2.77568,-0.66329 z m -1.22036,-2.81187 c -5.36222,-2.89006 -7.35076,-6.21316 -6.62281,-11.0675 0.4841,-3.2282 1.10099,-2.63051 0.85108,0.82458 -0.24148,3.33841 0.50419,5.38361 1.96278,5.38361 0.4965,0 0.90273,0.18896 0.90273,0.41991 0,0.91648 3.18447,3.67448 5.45995,4.72873 1.32477,0.61377 2.26518,1.25941 2.08982,1.43478 -0.48968,0.48967 -0.63892,0.43427 -4.64355,-1.72411 z m 20.14001,5.95548 c 0.0969,-6.73797 -0.0281,-8.69582 -0.62895,-9.85782 -0.83183,-1.60861 -2.19654,-1.87956 -3.40086,-0.67525 -1.0608,1.0608 -0.978,1.43948 0.45779,2.09367 0.86938,0.39612 1.24067,0.96419 1.26015,1.92794 0.0149,0.75152 0.036,3.80664 0.0464,6.78917 l 0.0188,5.42278 -1.52537,-0.16006 c -0.83897,-0.088 -1.52538,0.0604 -1.52538,0.32985 0,0.26941 -0.12913,0.8263 -0.2869,1.23752 -0.28063,0.73129 0.24659,0.8749 4.47756,1.21962 0.94633,0.0771 0.9909,-0.25817 1.10691,-8.3275 z m 34.05489,6.03789 c 0.13267,-0.90662 -0.0809,-1.0761 -1.35579,-1.0761 -1.34284,0 -1.51334,0.16174 -1.51334,1.43642 0,1.32566 0.10453,1.40864 1.35579,1.0761 0.87031,-0.2313 1.41222,-0.74567 1.51334,-1.43642 z m -60.31203,0.41315 c 0.40929,-0.66225 -0.67025,-2.57241 -1.25099,-2.21349 -0.75484,0.46652 -0.5546,2.69631 0.24216,2.69631 0.39073,0 0.84471,-0.21727 1.00883,-0.48282 z m 78.39616,-0.009 c -0.16752,-0.27116 -0.74842,-0.49301 -1.29074,-0.49301 -0.54232,0 -0.84892,0.22185 -0.68134,0.49301 0.16751,0.27116 0.74842,0.49301 1.29074,0.49301 0.54231,0 0.84891,-0.22185 0.68134,-0.49301 z m 12.57195,-0.49301 c 0,-0.27118 -0.44371,-0.49303 -0.98604,-0.49303 -0.54232,0 -0.98603,0.22185 -0.98603,0.49303 0,0.27116 0.44371,0.49301 0.98603,0.49301 0.54233,0 0.98604,-0.22185 0.98604,-0.49301 z m -86.82773,-0.94065 c 0.54817,-0.34717 0.57251,-0.74939 0.12317,-2.03809 -0.30783,-0.88307 -0.56674,-2.73722 -0.57537,-4.12035 -0.009,-1.41238 -0.32956,-2.92959 -0.73169,-3.46107 -0.66457,-0.8783 -0.77984,-0.88849 -1.60481,-0.14199 -0.53975,0.48849 -1.3173,0.6923 -1.97991,0.51903 -1.41941,-0.37119 -1.51925,1.1064 -0.1051,1.55525 0.54232,0.17217 0.98604,0.51986 0.98604,0.77274 0,0.25289 0.25985,0.4598 0.57746,0.4598 1.192,0 2.38065,1.65272 2.38065,3.31012 0,0.99329 -0.20123,1.55389 -0.49301,1.37355 -0.27116,-0.16752 -0.49303,-0.83317 -0.49303,-1.47905 0,-1.60877 -0.53501,-1.80405 -1.90446,-0.69513 -1.35855,1.10008 -1.11896,2.2328 0.61139,2.89069 0.65851,0.25036 1.34286,0.69075 1.52079,0.97864 0.38993,0.63092 0.78335,0.6486 1.68779,0.0758 z m 74.25578,-0.5384 c -0.16752,-0.27118 -0.6244,-0.49303 -1.01515,-0.49303 -0.39073,0 -0.71041,0.22185 -0.71041,0.49303 0,0.27115 0.45681,0.49301 1.01513,0.49301 0.55832,0 0.878,-0.22186 0.71043,-0.49301 z m -55.348,-5.54647 c 0.24604,-5.61137 -0.0533,-6.96151 -1.42645,-6.43457 -0.57284,0.21982 -0.6017,0.37426 -0.12503,0.66888 0.43804,0.27073 0.61797,1.9855 0.61357,5.8476 -0.004,3.0055 0.15149,5.46456 0.34426,5.46456 0.19275,0 0.4599,-2.49592 0.59365,-5.54647 z m -16.90137,3.45114 c -0.013,-0.88129 -0.327,-2.2679 -0.69949,-3.08137 -0.67724,-1.47906 -0.67724,-1.47906 -0.71729,0.82245 -0.022,1.26583 0.0947,2.65244 0.25922,3.08137 0.51151,1.33297 1.18087,0.85738 1.15756,-0.82245 z m 79.46102,0.78206 c 0.61354,-0.74377 0.57321,-0.76514 -0.43265,-0.22916 -1.14725,0.6113 -1.42973,1.0494 -0.67665,1.0494 0.23795,0 0.73713,-0.3691 1.1093,-0.82024 z m -5.71232,-0.1986 c 0.1787,-0.2892 0.20855,-0.64223 0.0663,-0.78454 -0.38715,-0.38715 -2.3051,0.32058 -2.3051,0.85058 0,0.63483 1.8392,0.5806 2.23886,-0.066 z m -69.78988,-1.59861 c 0.004,-0.21936 -0.21431,-0.26173 -0.48547,-0.0941 -0.27116,0.16752 -0.48962,0.67987 -0.48546,1.13839 0.006,0.71846 0.0736,0.73149 0.48546,0.0941 0.26287,-0.40674 0.48133,-0.91902 0.48547,-1.13839 z m 67.81127,0.18186 c 3.12127,-1.41525 3.183,-1.47953 2.61581,-2.72436 -0.31948,-0.70121 -0.70905,-1.20201 -0.86569,-1.11288 -3.95749,2.25127 -7.92872,2.30179 -11.60456,0.14758 -3.4838,-2.04165 -4.4457,-4.09704 -4.51671,-9.65143 -0.10006,-7.82053 -0.0973,-7.80121 -0.92923,-6.702 -1.41355,1.86773 -2.34047,6.28803 -2.05278,9.78933 0.44467,5.41197 3.24959,9.01501 8.37995,10.76444 3.62227,1.23518 5.33816,1.13752 8.97321,-0.51069 z m 8.95702,-0.60546 c 1.15861,-1.08115 3.36336,-4.78686 3.01932,-5.07483 -0.0867,-0.0725 -0.62443,-0.37433 -1.19496,-0.67059 -0.88235,-0.45815 -1.13416,-0.35764 -1.68563,0.67275 -0.43251,0.80815 -1.07187,1.21026 -1.92079,1.20801 -1.53126,-0.004 -2.42399,-1.24803 -5.78095,-8.05559 -2.3655,-4.797 -2.39548,-4.83196 -2.53661,-2.95811 -0.10808,1.43455 0.50428,3.33667 2.515,7.81244 2.30238,5.12505 2.81598,5.92143 3.84045,5.95516 2.1131,0.0695 2.41518,0.19556 2.41518,1.00747 0,0.65207 -0.13547,0.68744 -0.73324,0.19135 -0.42919,-0.3562 -1.09364,-0.45203 -1.60232,-0.23111 -0.47797,0.2076 -1.30239,0.32176 -1.83201,0.25371 -0.85319,-0.10956 -0.88362,-0.0281 -0.26695,0.71489 0.952,1.14709 4.1387,0.69064 5.76351,-0.82555 z m 3.86798,0.54306 c 0.57813,-0.93541 -0.26507,-1.16625 -1.12369,-0.30761 -0.76859,0.76859 -0.76995,0.83344 -0.0168,0.83344 0.44885,0 0.96232,-0.23661 1.14105,-0.52583 z m -30.95715,-0.77095 c 1.34974,-0.36172 1.50416,-2.56792 0.36975,-5.28293 -0.40674,-0.97347 -0.75748,-2.83088 -0.77943,-4.1276 l -0.0399,-2.35767 -0.93319,1.97206 c -0.65474,1.38361 -0.93706,3.08771 -0.94613,5.7108 -0.0149,4.49209 0.0941,4.68426 2.3289,4.08534 z m -15.2176,-2.0311 c 0.80751,-1.97138 1.06048,-14.91378 0.2915,-14.91378 -0.50661,0 -2.20627,3.52591 -2.20627,4.57689 0,0.1943 0.44371,0.35328 0.98602,0.35328 0.54232,0 0.98604,0.23113 0.98604,0.51362 0,0.28251 -0.44372,0.98992 -0.98604,1.57202 -1.02957,1.10513 -1.32568,4.47419 -0.67789,7.71309 0.37992,1.89956 0.88068,1.95719 1.60664,0.18484 z m 34.07554,-1.39101 c 0,-0.15485 -0.33236,-0.61407 -0.73855,-1.02027 -0.55935,-0.55935 -0.61253,-0.97404 -0.21921,-1.70898 0.54574,-1.01969 0.20739,-2.90524 -0.5213,-2.90524 -0.63798,0 -0.93077,1.48302 -0.72999,3.69762 0.0984,1.08466 0.19187,2.02754 0.20787,2.09533 0.0617,0.26153 2.00118,0.10789 2.00118,-0.15838 z m 7.6708,-2.41421 c 0.52635,-0.39811 0.69784,-0.73089 0.38106,-0.73951 -0.93664,-0.0255 -2.13565,0.54891 -2.13565,1.0231 0,0.64614 0.66817,0.53814 1.75459,-0.28359 z m -86.01771,-0.90944 c -0.29479,-0.29478 -0.53597,-0.75783 -0.53597,-1.02899 0,-0.27391 0.26295,-0.23009 0.59163,0.0986 0.86784,0.86787 1.60971,0.72242 0.86879,-0.17031 -0.34779,-0.41909 -0.90258,-0.65827 -1.23282,-0.53154 -0.33027,0.1267 -0.83694,-0.006 -1.12598,-0.29511 -0.37199,-0.372 -0.44075,-0.18074 -0.23537,0.65481 0.38365,1.5608 1.13109,2.4727 1.72558,2.10526 0.3034,-0.18749 0.28282,-0.494 -0.0559,-0.83269 z m 47.4645,-5.60875 0.0485,-4.09736 h 1.58336 c 1.39558,0 2.57184,-0.71313 2.0451,-1.23987 -0.10361,-0.10361 -1.2905,-0.0306 -2.63772,0.16193 l -2.44948,0.35024 -0.11237,5.91027 c -0.10788,5.67321 -0.0805,5.85213 0.6809,4.46116 0.53395,-0.97538 0.80913,-2.78856 0.84176,-5.54645 z m 36.30559,4.25484 c 0,-2.13706 -0.19457,-2.31185 -1.32037,-1.18605 -0.63133,0.63135 -0.65689,0.99839 -0.1541,2.21231 0.78631,1.89831 1.47443,1.41935 1.47443,-1.02626 z m -41.95566,-0.83367 c 0.027,-0.33897 -0.39457,-0.61627 -0.93688,-0.61627 -1.16221,0 -1.14266,-0.0995 -0.39677,2.02174 0.58146,1.65365 0.59389,1.65954 0.9369,0.44333 0.19118,-0.67789 0.36971,-1.50985 0.39675,-1.8488 z m 49.25881,1.72556 c 0.12708,-0.66662 -0.17199,-0.86278 -1.31557,-0.86278 -1.57097,0 -3.02947,-1.08506 -3.02947,-2.25381 0,-0.38736 -0.33278,-0.7043 -0.73952,-0.7043 -0.88236,0 -0.90918,0.21915 -0.20007,1.63472 1.37094,2.73669 4.90133,4.19714 5.28463,2.18617 z m -5.33106,-0.58719 c 0,-0.39073 -0.22186,-0.84753 -0.49303,-1.01513 -0.27116,-0.16751 -0.49302,0.15206 -0.49302,0.71043 0,0.55833 0.22186,1.01513 0.49302,1.01513 0.27117,0 0.49303,-0.31968 0.49303,-0.71043 z M 321.89671,136.73 c 0,-3.14081 -0.9193,-6.99531 -2.27768,-9.55009 -1.41967,-2.67001 -1.43435,-3.11948 -0.21757,-6.65613 1.14266,-3.32118 0.52631,-4.24067 -0.69643,-1.03896 -1.53677,4.02396 -1.54452,5.89 -0.0336,8.0703 1.59123,2.29614 2.21144,4.67243 2.22746,8.53435 0.006,1.55916 0.23363,2.83484 0.50479,2.83484 0.27116,0 0.49301,-0.98744 0.49301,-2.19431 z m -1.47906,0.46875 c 0,-0.76693 -0.27937,-1.23255 -0.73953,-1.23255 -0.7957,0 -0.91367,0.45156 -0.44026,1.68524 0.46057,1.20026 1.17979,0.92429 1.17979,-0.45269 z m 79.9894,-2.21859 c -0.16416,-2.89063 -1.33348,-5.98741 -2.7705,-7.33741 -0.98304,-0.92353 -1.23022,-0.97542 -1.73709,-0.36468 -0.40883,0.49262 -0.42933,0.81195 -0.0665,1.03617 0.85861,0.53065 1.88524,3.44882 2.25528,6.4106 0.30744,2.46059 0.46479,2.75636 1.39569,2.62358 0.9152,-0.13062 1.03307,-0.43296 0.92315,-2.36826 z m -7.65029,0.98604 c 0.68945,-0.54231 1.8761,-0.98604 2.63701,-0.98604 0.76091,0 1.52059,-0.22185 1.68818,-0.49301 0.35332,-0.5717 -3.18231,-0.67542 -3.94415,-0.11571 -0.881,0.64726 -2.38163,2.58081 -2.00299,2.58081 0.20264,0 0.9325,-0.44373 1.62195,-0.98605 z m -74.31117,-0.67916 c 0,-0.64469 -0.3328,-1.44836 -0.73954,-1.78593 -0.61627,-0.51146 -0.73952,-0.44606 -0.73952,0.39233 0,1.3421 0.49542,2.56578 1.03878,2.56578 0.24215,0 0.44028,-0.52749 0.44028,-1.17218 z m 34.26474,0.18615 c -0.16751,-0.27116 -1.12357,-0.48962 -2.12443,-0.48548 -1.35641,0.006 -1.63142,0.12932 -1.08018,0.48548 0.98396,0.63588 3.5976,0.63588 3.20461,0 z m 7.09818,-2.34183 1.05666,-2.09533 h -1.22457 c -1.13083,0 -1.22114,0.17125 -1.17965,2.23784 0.0246,1.2308 0.10025,2.1737 0.16789,2.09531 0.0676,-0.0785 0.59848,-1.0854 1.17965,-2.23782 z m -39.39086,1.10928 c 0,-0.40673 -0.22185,-0.73953 -0.49301,-0.73953 -0.27116,0 -0.49303,0.3328 -0.49303,0.73953 0,0.40674 0.22187,0.73952 0.49303,0.73952 0.27116,0 0.49301,-0.33278 0.49301,-0.73952 z m 13.22706,-0.73953 c 1.23655,0 1.33889,-0.43048 0.40573,-1.70665 -0.80533,-1.10136 -1.48731,-0.74818 -2.50866,1.29918 -0.9954,1.99531 -0.97127,2.22083 0.13081,1.22342 0.49588,-0.44877 1.38331,-0.81595 1.97208,-0.81595 z m -17.68675,-1.75269 c -1.45762,-1.75634 -1.98229,-0.1956 -0.59374,1.76625 0.86278,1.21899 0.86278,1.21899 1.02389,0.0825 0.0887,-0.62505 -0.10491,-1.45701 -0.43015,-1.84882 z m 36.01284,0.88109 c 0,-0.75053 0.54651,-2.16885 1.21447,-3.15184 1.20117,-1.76769 1.2033,-1.79014 0.19456,-2.05394 -1.2984,-0.33954 -0.94377,-1.51289 0.52217,-1.72767 1.06285,-0.15577 1.09868,-0.30406 0.77425,-3.20463 -0.4291,-3.83628 -0.8251,-4.26297 -2.6821,-2.89004 -0.80437,0.5947 -1.83863,1.08126 -2.29838,1.08126 -0.75372,0 -0.74356,-0.10379 0.10323,-1.05662 0.51654,-0.58115 1.55532,-1.43655 2.30838,-1.90091 1.33865,-0.82543 1.34952,-0.86859 0.48672,-1.93409 -0.88248,-1.08983 -0.88248,-1.08983 -3.33116,-0.0403 -1.34679,0.5773 -2.51168,1.11263 -2.58867,1.1896 -0.077,0.077 -0.24796,2.22618 -0.37995,4.77594 l -0.23996,4.63597 1.28796,-2.71158 c 0.70838,-1.49139 1.39528,-2.42588 1.52644,-2.07666 0.13119,0.34923 -0.1064,1.36164 -0.52782,2.2498 -2.2479,4.73713 -1.0657,10.18023 2.2111,10.18023 1.2212,0 1.41868,-0.18997 1.41868,-1.36462 z m 40.64843,0.91298 c 0.80952,-1.30986 -2.99441,-5.46457 -5.00318,-5.46457 -0.98219,0 -0.0755,1.69705 1.70087,3.1838 0.88126,0.73755 1.60229,1.65408 1.60229,2.03671 0,0.77196 1.26179,0.9531 1.70002,0.24406 z m -73.26912,-2.07481 c -0.18679,-1.31442 -1.89056,-1.95214 -1.89056,-0.70763 0,1.17141 1.14463,2.77967 1.6317,2.2926 0.23312,-0.23311 0.3496,-0.94635 0.25886,-1.58497 z m 75.11967,-0.23538 c 0.18243,-1.56244 0.12969,-1.66958 -0.43907,-0.89181 -0.7361,1.00667 -0.86518,2.66761 -0.20731,2.66761 0.24149,0 0.53236,-0.79911 0.64638,-1.7758 z m 1.99191,0.0429 c -0.34953,-1.82844 -1.10531,-2.01191 -1.10531,-0.26831 0,0.94361 0.25123,1.50816 0.67116,1.50816 0.45111,0 0.59345,-0.40651 0.43415,-1.23983 z m -63.46281,-2.11985 c -0.18503,-0.18504 -0.65104,0.0939 -1.03561,0.61985 -1.07537,1.47065 -0.82847,2.07848 0.33638,0.82814 0.5696,-0.61137 0.88425,-1.26298 0.69923,-1.44799 z m -16.15538,1.26437 c -0.11293,-0.33895 -0.62345,-0.69733 -1.13467,-0.7964 -0.80418,-0.15578 -0.84038,-0.0727 -0.26855,0.61627 0.78202,0.94229 1.69606,1.05961 1.40322,0.18019 z m 14.59943,-1.56827 c 0.70394,-1.07437 0.70912,-1.38078 0.0501,-2.95811 -0.40435,-0.96778 -0.78768,-1.7596 -0.85184,-1.7596 -0.0641,0 -0.11665,1.33114 -0.11665,2.95811 0,1.62695 0.03,2.9581 0.0665,2.9581 0.0365,0 0.41994,-0.53933 0.85186,-1.1985 z m 62.64717,-0.52234 c 0.39545,-0.94647 1.29011,-2.29193 1.98811,-2.98994 0.698,-0.698 1.15708,-1.45033 1.02018,-1.67183 -0.13696,-0.22152 0.31813,-1.23831 1.01118,-2.25955 0.99154,-1.46113 1.12136,-1.94578 0.60923,-2.27419 -0.75485,-0.48411 -2.372,1.18898 -2.38393,2.46641 -0.006,0.68233 -0.0781,0.6967 -0.4605,0.0922 -0.24911,-0.3938 -0.34355,-0.89298 -0.20985,-1.1093 0.13379,-0.21632 0.007,-0.39331 -0.27904,-0.39331 -0.28716,0 -0.52212,0.62317 -0.52212,1.38481 0,0.76165 -0.77853,2.67771 -1.7301,4.25792 -1.33696,2.22025 -1.60333,3.02588 -1.17218,3.54537 0.87005,1.04836 1.35205,0.81096 2.12902,-1.04858 z m -31.79527,-1.49042 c 1.16174,-1.16046 0.30969,-1.34534 -3.48606,-0.7564 -3.97024,0.61599 -4.44001,0.83226 -3.37256,1.55256 0.9852,0.66484 5.97599,0.0855 6.85862,-0.79616 z m 29.0655,0.35016 c 0.36567,-0.68326 0.24462,-1.03339 -0.5229,-1.51272 -0.83822,-0.52348 -1.15285,-0.4842 -1.95798,0.24445 -0.94715,0.85716 -0.94499,0.87607 0.1705,1.49525 1.51004,0.83818 1.75312,0.81431 2.3104,-0.22698 z m 8.82651,-2.68534 c -0.0807,-1.69476 -0.36865,-3.08137 -0.63981,-3.08137 -0.27116,0 -0.55907,1.38661 -0.63979,3.08137 -0.12168,2.55355 -0.0112,3.08135 0.63979,3.08135 0.65185,0 0.76145,-0.5278 0.63981,-3.08135 z m -78.38257,1.63311 c 0.12316,-0.36976 -0.0617,-0.55465 -0.43139,-0.43139 -0.35591,0.1187 -0.74416,0.50688 -0.86278,0.86278 -0.12317,0.36977 0.0617,0.55466 0.43139,0.43139 0.3559,-0.11869 0.74413,-0.50687 0.86278,-0.86278 z m 66.43409,-1.46014 c -0.72046,-1.16572 -1.75629,-0.54889 -1.75629,1.04588 0,1.5886 0,1.5886 1.04586,0.54274 0.57522,-0.57522 0.89492,-1.2901 0.71043,-1.58862 z m -67.05216,0.18964 c 0.6624,-0.51681 0.72935,-0.70652 0.2175,-0.61627 -0.45416,0.0801 -0.73978,-0.25009 -0.74019,-0.85565 -10e-4,-1.63356 -0.97365,-1.10774 -1.13987,0.61628 -0.17068,1.77095 0.22702,1.97566 1.66256,0.85564 z m 41.87751,-0.77366 c 0.84655,-0.33417 0.78888,-0.39365 -0.40769,-0.42048 -0.86194,-0.0194 -1.95807,-0.5956 -2.87278,-1.51031 -0.81347,-0.81349 -1.73931,-1.47937 -2.05741,-1.47974 -0.31808,-3.7e-4 -0.97805,-1.27606 -1.46657,-2.83485 -0.48852,-1.5588 -1.0062,-3.1115 -1.15037,-3.45045 -0.14423,-0.33894 -0.0399,-0.61627 0.23179,-0.61627 0.27168,0 0.99554,1.10985 1.60859,2.46635 0.61305,1.35648 1.62949,2.80367 2.25875,3.21598 0.62924,0.4123 1.14409,1.05357 1.14409,1.42505 0,0.7757 1.05426,1.27393 2.69575,1.27393 0.83307,0 1.36259,-0.49306 1.98551,-1.84882 0.46721,-1.01684 1.15805,-2.49301 1.53524,-3.28036 1.03277,-2.15598 0.83334,-3.76282 -0.76631,-6.17405 -1.49436,-2.2525 -4.82974,-5.196 -6.48198,-5.72041 -0.51716,-0.16417 -0.94028,-0.49838 -0.94028,-0.74276 0,-0.24438 -0.33279,-0.31663 -0.73953,-0.16063 -0.40674,0.15616 -0.73952,0.50384 -0.73952,0.7728 0,1.46521 -1.7015,3.8246 -3.12126,4.32804 l -1.56243,0.55406 1.35581,1.00045 c 1.20702,0.89067 1.86427,2.39727 1.04579,2.39727 -0.38216,0 -4.31252,-3.48953 -4.53408,-4.02555 -0.0881,-0.21345 0.73354,-0.53104 1.82616,-0.70575 2.62669,-0.42002 3.73913,-1.70322 3.63962,-4.1983 -0.0723,-1.81503 0.006,-1.94072 1.00416,-1.6237 2.09188,0.66394 6.52511,3.26444 8.05572,4.72546 0.85073,0.81204 1.93825,2.34457 2.41671,3.40562 0.97532,2.16291 1.70623,2.50236 1.70623,0.79243 0,-2.68041 -5.30961,-7.51137 -9.99041,-9.08982 -3.80039,-1.28157 -8.34563,-1.72044 -10.97118,-1.05931 -2.40297,0.60508 -4.39747,3.10876 -3.93701,4.94206 0.28312,1.12721 0.20804,1.16129 -2.19467,0.99631 -1.92421,-0.13211 -2.48781,-0.009 -2.48781,0.54476 0,0.52888 0.88909,0.79014 3.40733,1.00127 2.19353,0.18391 4.14832,0.69235 5.48735,1.4273 1.144,0.6279 2.45807,1.34482 2.92016,1.59313 0.4621,0.24832 1.04335,0.82876 1.29166,1.28985 0.24833,0.46111 1.04097,1.92926 1.76147,3.26258 0.72049,1.33332 1.58103,3.80202 1.91232,5.48598 l 0.60238,3.06179 2.77134,-0.31588 c 1.52422,-0.17367 3.21505,-0.49104 3.75736,-0.70512 z m -17.6254,-16.4216 c -1.77015,-1.34374 -0.815,-4.31336 1.66546,-5.17806 2.6043,-0.90786 4.78124,-0.67549 6.10876,0.65203 1.04264,1.04265 1.13046,1.38754 0.68136,2.67584 -0.34002,0.97537 -1.03203,1.65897 -2.03242,2.00772 -2.06601,0.72021 -5.37375,0.63908 -6.42316,-0.15746 z m 6.23567,-0.85952 c 1.74699,-0.796 2.04629,-1.97307 0.76538,-3.01028 -1.95917,-1.58644 -6.40958,-0.71565 -6.80378,1.33128 -0.37267,1.93514 3.25959,2.94511 6.0384,1.679 z M 392.837,124.4449 c 0.68417,-0.82438 0.13677,-1.34743 -2.59427,-2.47904 -4.24206,-1.75768 -5.26511,-0.22847 -1.17232,1.75236 3.22513,1.56089 3.09508,1.53579 3.76659,0.72668 z m -82.92027,-1.91425 c 0.98269,-1.07889 2.11961,-2.97875 2.11961,-3.54196 0,-0.15335 -0.22185,-0.27893 -0.49301,-0.27893 -0.27116,0 -0.49301,0.28342 -0.49301,0.62984 0,1.188 -1.47794,2.79078 -2.28709,2.48029 -1.06937,-0.41037 -0.60148,-3.77421 0.78603,-5.65089 0.72228,-0.97693 0.8382,-1.40337 0.38151,-1.40337 -1.08864,0 -2.84305,4.1906 -2.52482,6.03084 0.56969,3.29444 0.88887,3.5149 2.51078,1.73418 z m 6.80328,-0.28759 c 0,-0.8917 -0.96497,-0.7289 -1.15637,0.19508 -0.1064,0.51408 0.0783,0.73946 0.49303,0.60123 0.36485,-0.12168 0.66334,-0.47995 0.66334,-0.79631 z m 4.40351,-1.8933 c -1.26335,-0.92379 -1.41827,-0.46108 -0.37748,1.12736 0.78336,1.19558 0.92339,1.25334 1.07904,0.44514 0.0984,-0.51081 -0.21733,-1.21842 -0.70156,-1.5725 z M 310.55729,118.925 c 0,-0.35752 -0.22374,-0.78834 -0.49719,-0.95734 -0.53604,-0.33127 -1.51077,1.71784 -1.12659,2.36837 0.31606,0.53517 1.62378,-0.60119 1.62378,-1.41103 z m 5.74609,0.99605 c 0.45865,-1.1952 -0.18131,-1.41096 -0.79332,-0.26747 -0.38158,0.713 -0.38907,1.02827 -0.0244,1.02827 0.28922,0 0.65722,-0.34236 0.81778,-0.7608 z m 78.34251,-0.45608 c 1.13351,-0.85734 0.77878,-0.94421 -1.03688,-0.25388 -1.67662,0.63744 -4.38258,-0.0671 -5.96404,-1.55279 -1.00667,-0.9457 -1.1629,-0.97833 -1.1629,-0.24291 0,1.03173 3.53846,2.7471 5.69872,2.7626 0.82945,0.006 1.93873,-0.31489 2.4651,-0.71302 z m -72.74918,-1.74123 c 0,-0.81349 -0.11814,-1.47905 -0.2624,-1.47905 -0.39483,0 -1.13314,2.1638 -0.88317,2.58834 0.51228,0.87003 1.14557,0.25679 1.14557,-1.10929 z m 76.76289,0.49301 c 1.39479,0 1.41119,-0.21578 0.11497,-1.51203 -1.24617,-1.24619 -2.4321,-0.55158 -2.4321,1.42449 0,0.98839 0.13156,1.13931 0.59162,0.67916 0.32541,-0.3254 1.10191,-0.59162 1.72556,-0.59162 z m -80.18798,-0.2465 c -0.0386,-0.73179 -1.14163,-0.59735 -1.39753,0.17031 -0.13826,0.41469 0.0872,0.5995 0.60123,0.49303 0.45228,-0.0937 0.81063,-0.3922 0.7963,-0.66336 z m 75.89873,-0.29926 c 0,-0.24215 -0.3328,-0.44028 -0.73953,-0.44028 -0.40674,0 -0.73952,0.32583 -0.73952,0.72405 0,0.44106 0.28904,0.61315 0.73952,0.44028 0.40673,-0.15615 0.73953,-0.48191 0.73953,-0.72405 z m -2.46509,0.0283 c 0,-0.96027 -1.4368,-3.30494 -2.20617,-3.60017 -0.68622,-0.26333 -0.68807,-0.14702 -0.0186,1.14832 0.40994,0.79272 0.74535,1.78514 0.74535,2.20535 0,0.42019 0.3328,0.764 0.73954,0.764 0.40673,0 0.73951,-0.23289 0.73951,-0.5175 z m -76.99181,-0.61743 c 0.68183,-0.82154 0.21216,-2.65337 -0.77766,-3.0332 -1.00358,-0.38512 -1.52061,0.16062 -0.65753,0.69407 0.3949,0.24407 0.53844,0.7693 0.34675,1.26883 -0.25507,0.66474 -0.70502,0.79104 -2.04391,0.57377 -0.94425,-0.15317 -1.71682,-0.0893 -1.71682,0.14236 0,1.05061 4.02708,1.34474 4.84917,0.35419 z m 2.05308,-2.09877 c 0,-2.389 -0.76823,-2.12065 -0.91216,0.31862 -0.0768,1.30179 0.0636,1.9023 0.39662,1.69647 0.28355,-0.17516 0.51554,-1.08203 0.51554,-2.01509 z m 4.07742,0.1966 c 0.58766,-0.78711 0.85658,-1.77889 0.72681,-2.68052 l -0.20599,-1.43113 -0.68165,1.60232 c -0.773,1.81703 -1.18255,1.97553 -1.911,0.73952 -0.4435,-0.75249 -0.57172,-0.76824 -1.00298,-0.12317 -0.75431,1.12809 -0.60511,2.36054 0.35319,2.91771 1.12987,0.65691 1.59762,0.4808 2.72162,-1.02465 z m 22.54556,-0.16752 c 0,-1.77024 -0.25996,-2.01462 -1.3844,-1.30149 -0.83051,0.52672 -0.2537,3.02705 0.6983,3.02705 0.45543,0 0.6861,-0.58016 0.6861,-1.72556 z m 45.35764,0.81594 c 0,-0.51565 -1.90814,-2.28293 -2.16414,-2.00438 -0.42614,0.46367 0.71279,2.42099 1.40873,2.42099 0.41547,0 0.75541,-0.18747 0.75541,-0.41661 z m 7.11423,-0.0205 c 0.46967,-0.75992 -1.05336,-1.59 -2.32961,-1.26968 -0.68393,0.17161 -1.37155,0.0721 -1.55532,-0.22528 -0.18112,-0.29313 -0.54327,-0.53297 -0.80468,-0.53297 -0.26139,0 -0.1118,0.55465 0.33232,1.23255 0.59348,0.90579 1.24231,1.23255 2.44735,1.23255 0.90188,0 1.76136,-0.19674 1.90994,-0.43717 z m -83.7547,-1.41165 c -0.44497,-1.83047 -2.91782,-4.2921 -3.92386,-3.90605 -0.56527,0.21692 -0.76305,0.88893 -0.70976,2.41151 0.0486,1.38998 0.14255,1.66205 0.27522,0.79674 0.38285,-2.49851 2.70611,-1.91411 3.40124,0.85553 0.16547,0.65893 0.52257,1.19806 0.79372,1.19806 0.28905,0 0.35667,-0.5609 0.16342,-1.35579 z m 37.19904,0.36976 c 1.22021,-0.51201 1.88579,-0.93999 1.47906,-0.95106 -0.87957,-0.024 -4.27511,1.11767 -4.75664,1.5992 -0.62041,0.62041 1.03417,0.29322 3.27758,-0.64814 z m -2.95811,-0.69938 c 0,-0.0945 -0.44372,-0.28768 -0.98604,-0.4295 -0.73599,-0.19247 -0.98604,-0.0149 -0.98604,0.69936 0,0.80445 0.15745,0.87301 0.98604,0.42952 0.54232,-0.29023 0.98604,-0.60496 0.98604,-0.69938 z m -31.06013,-0.94346 c 0,-0.36125 -0.77651,-0.89513 -1.72558,-1.18641 -1.73575,-0.53272 -2.25375,-0.18541 -1.10928,0.74375 0.33894,0.27518 1.06,0.60941 1.60231,0.7427 0.54232,0.13323 1.0415,0.26812 1.10929,0.29958 0.0678,0.0315 0.12317,-0.23839 0.12317,-0.59962 z m 83.82566,-1.58786 c 0.59766,-1.23456 1.30332,-3.95231 1.56818,-6.03946 0.41557,-3.27488 0.35302,-4.16635 -0.45655,-6.506417 -0.70853,-2.04798 -1.20219,-2.750155 -2.01721,-2.86915 -1.29227,-0.188667 -1.35451,0.41557 -0.25996,2.523867 1.47596,2.84293 0.79939,9.69249 -1.20143,12.16339 -0.73069,0.90235 -1.06686,0.98732 -2.2007,0.55623 -1.02894,-0.3912 -1.86334,-1.59535 -3.60956,-5.20903 -1.24919,-2.58511 -2.45962,-4.70021 -2.68981,-4.70021 -0.2302,0 -0.55297,0.42356 -0.71728,0.94126 -0.19314,0.60855 0.61627,2.69156 2.28975,5.89269 2.46293,4.71122 2.6731,4.96049 4.33292,5.13857 3.93787,0.42252 3.81951,0.46765 4.96165,-1.89174 z m -55.23062,0.47088 c 0,-0.4656 -1.3656,-0.14087 -2.24761,0.53447 -0.87556,0.67037 -0.82063,0.68725 0.64529,0.19826 0.88128,-0.29394 1.60232,-0.62369 1.60232,-0.73273 z m 2.95811,0.78774 c -0.40674,-0.26285 -1.07232,-0.46571 -1.47906,-0.45081 -0.48763,0.0186 -0.40366,0.17143 0.24651,0.45081 1.35534,0.58242 2.13377,0.58242 1.23255,0 z m 43.87858,-0.41387 c 0,-0.22763 -0.55463,-0.66661 -1.23253,-0.97548 -1.04667,-0.47689 -1.23254,-0.89334 -1.23254,-2.76163 0,-2.03792 -0.60094,-3.28022 -1.15392,-2.38548 -0.12988,0.21002 -0.30393,1.48656 -0.38696,2.83675 -0.13454,2.189 -0.0194,2.52148 1.06471,3.07002 1.39923,0.70803 2.94124,0.82117 2.94124,0.21582 z m -42.15303,-0.57215 c -0.16751,-0.27116 -0.67985,-0.48962 -1.13839,-0.48549 -0.71846,0.006 -0.73146,0.0736 -0.0941,0.48549 0.96551,0.62395 1.61818,0.62395 1.23255,0 z m -30.81362,-0.40031 c 0,-0.22016 -0.66556,-0.89239 -1.47906,-1.49381 -1.54459,-1.14197 -1.91074,-0.75584 -0.86743,0.91476 0.59423,0.9515 2.34649,1.38391 2.34649,0.57905 z m 2.63733,-0.32345 c 0.15279,-0.39805 0.0656,-0.85486 -0.19378,-1.01513 -0.2593,-0.16025 -0.47147,-0.18559 -0.47147,-0.0561 0,0.12931 -0.13472,0.58621 -0.29926,1.01513 -0.16453,0.42891 -0.0773,0.77986 0.19376,0.77986 0.27116,0 0.61799,-0.32569 0.77075,-0.72376 z m 20.53452,-0.26229 c 0,-0.54231 -0.31202,-0.98604 -0.69338,-0.98604 -0.45064,0 -0.6031,0.34519 -0.43551,0.98604 0.1418,0.54232 0.45384,0.98605 0.69336,0.98605 0.23954,0 0.43553,-0.44373 0.43553,-0.98605 z m -26.85232,-0.95285 c -0.49351,-0.95433 -1.19643,-1.49905 -2.06765,-1.60232 -1.19622,-0.1418 -1.38348,-0.45684 -1.99756,-3.36104 -0.374,-1.76881 -0.55012,-4.25386 -0.39312,-5.546449 0.2234,-1.839039 0.13249,-2.341834 -0.4238,-2.341834 -0.79665,0 -1.79078,2.439512 -1.79078,4.394433 0,3.55046 2.72634,8.0686 5.66971,9.39592 1.62266,0.73175 1.78735,0.57767 1.0032,-0.93871 z m 29.31742,0.70635 c 0,-0.40674 -0.3328,-0.73954 -0.73954,-0.73954 -0.40674,0 -0.73952,0.3328 -0.73952,0.73954 0,0.40674 0.33278,0.73952 0.73952,0.73952 0.40674,0 0.73954,-0.33278 0.73954,-0.73952 z m 2.71158,0.2465 c -0.16752,-0.27115 -0.62438,-0.49301 -1.01513,-0.49301 -0.39073,0 -0.71043,0.22186 -0.71043,0.49301 0,0.27116 0.45681,0.49302 1.01513,0.49302 0.55832,0 0.87802,-0.22186 0.71043,-0.49302 z m -24.88752,-1.71365 c -0.34299,-0.41329 -1.34502,-0.75144 -2.22673,-0.75144 -0.88171,0 -2.63446,-0.57644 -3.89501,-1.28098 -2.19277,-1.22554 -3.7485,-1.31029 -3.7485,-0.20415 0,0.29274 0.48815,0.39537 1.12281,0.23607 0.77262,-0.1939 1.73922,0.16472 3.09911,1.14982 1.50855,1.09279 2.23475,1.336 3.06839,1.02763 1.2331,-0.45616 2.57006,-0.0995 2.57006,0.68559 0,0.28733 0.14254,0.37989 0.31675,0.20568 0.17423,-0.17423 0.0361,-0.65492 -0.30688,-1.06822 z m 75.36076,0.34877 c 0.25664,-0.47952 0.60554,-1.75521 0.77533,-2.83485 l 0.30874,-1.96299 -0.71112,1.88145 c -0.3911,1.03481 -1.09937,2.31049 -1.57391,2.83485 -0.7714,0.85238 -0.77821,0.95341 -0.0643,0.95341 0.43923,0 1.00857,-0.39233 1.26519,-0.87187 z m -26.56185,-0.36068 c 0,-0.40673 -0.32583,-0.73953 -0.72407,-0.73953 -0.44105,0 -0.61313,0.28906 -0.44026,0.73953 0.15615,0.40674 0.4819,0.73952 0.72405,0.73952 0.24214,0 0.44028,-0.33278 0.44028,-0.73952 z m 25.36789,-1.35581 c 0.66867,-1.60706 0.91171,-3.37671 0.8143,-5.92918 -0.0352,-0.92142 -0.7731,-2.089608 -2.25786,-3.574382 -1.97277,-1.972774 -2.44499,-2.205603 -4.47331,-2.205603 -1.89345,0 -2.24067,0.142362 -2.10386,0.86278 0.12298,0.647486 0.73751,0.89988 2.46288,1.011477 2.20473,0.142548 2.35115,0.248407 3.56993,2.579288 1.45863,2.78954 1.60688,4.70776 0.48742,6.30601 -0.80718,1.15241 -0.64255,2.55193 0.30015,2.55193 0.29352,0 0.83368,-0.72103 1.20035,-1.60232 z m -24.50489,-0.73951 c 0.13789,-0.41384 -0.35531,-0.61628 -1.50108,-0.61628 -0.93847,0 -1.98787,-0.33928 -2.33203,-0.75397 -0.51955,-0.62602 -0.42521,-0.96976 0.5559,-2.02536 1.0831,-1.16536 1.10045,-1.25631 0.20801,-1.09049 -0.53552,0.0995 -1.24621,0.72758 -1.57931,1.39571 -0.50838,1.01975 -0.4708,1.36481 0.23414,2.14916 1.52923,1.7015 3.98676,2.22548 4.41437,0.94123 z m -28.32276,-0.49301 c 0.11404,-0.20339 0.35553,-0.98895 0.53656,-1.74571 0.32849,-1.37336 0.32655,-1.37454 -1.04114,-0.63194 -0.75363,0.40919 -1.92489,1.18982 -2.60278,1.73472 l -1.23255,0.99076 2.06624,0.0112 c 1.13641,0.006 2.15958,-0.1554 2.27367,-0.35879 z m 50.8781,-2.09533 c 0,-0.90387 -0.26913,-1.73311 -0.59809,-1.84277 -0.70277,-0.23426 -1.36785,1.98427 -0.93387,3.11521 0.50619,1.31912 1.53196,0.46711 1.53196,-1.27244 z m -54.92032,0.34698 c -0.63278,-0.63279 -1.27449,-0.14367 -0.806,0.6143 0.18149,0.29361 0.55579,0.39427 0.83184,0.22366 0.33674,-0.20812 0.32822,-0.48389 -0.0259,-0.83796 z m 32.73451,0.14608 c 0.16751,-0.27115 -0.0281,-0.49301 -0.43482,-0.49301 -0.40674,0 -0.87665,0.22186 -1.04424,0.49301 -0.16752,0.27116 0.0281,0.49302 0.43484,0.49302 0.40674,0 0.87664,-0.22186 1.04422,-0.49302 z m -58.17612,-0.49301 c -0.16752,-0.27116 -0.73533,-0.49303 -1.26164,-0.49303 -0.52632,0 -0.95693,0.22187 -0.95693,0.49303 0,0.27116 0.56773,0.49301 1.26163,0.49301 0.71556,0 1.12975,-0.21339 0.95694,-0.49301 z m 51.75407,-2.09533 c -0.42994,-3.794442 -0.68884,-4.806925 -1.22912,-4.806925 -0.85283,0 -0.57163,5.494815 0.33231,6.493675 0.44878,0.49588 0.90013,0.90159 1.00302,0.90159 0.10286,0 0.0552,-1.16475 -0.10621,-2.58834 z m 5.11155,0.9338 c 0.44004,-0.91812 0.55816,-2.13567 0.34503,-3.556868 -0.47856,-3.191179 -1.09591,-3.058563 -0.87011,0.186915 0.16566,2.379713 0.0293,2.981793 -0.89786,3.963773 -0.98534,1.04371 -1.00205,1.14031 -0.16957,0.98 0.5079,-0.0978 1.22455,-0.80604 1.59255,-1.57382 z m -28.54564,-0.0365 c 0.68377,-0.8239 0.50598,-4.471564 -0.21795,-4.471564 -0.27116,0 -0.56064,1.053813 -0.6433,2.341834 -0.12074,1.88229 -0.32659,2.34183 -1.04891,2.34183 -1.51302,0 -2.21829,-1.4173 -2.2356,-4.492686 -0.0168,-2.985556 -0.41477,-3.74626 -0.93814,-1.793294 -0.94372,3.52146 0.55354,6.779 3.11581,6.779 0.76059,0 1.64623,-0.3173 1.96809,-0.70512 z m 30.97571,-0.18847 c 0.10733,-0.32201 -0.15615,-0.58547 -0.58547,-0.58547 -0.42933,0 -0.78061,0.35129 -0.78061,0.78063 0,0.87062 1.06136,0.719 1.36608,-0.19516 z m -56.24844,0.0988 c 0.59136,-0.15857 1.19452,-0.59928 1.34033,-0.97929 0.31768,-0.82786 -0.13212,-2.169997 -0.72722,-2.169997 -0.23363,0 -0.31074,0.297227 -0.17125,0.660527 0.64018,1.6683 -2.09031,2.16931 -5.66145,1.03878 -0.87834,-0.27807 -1.08926,-0.21843 -0.81234,0.22964 0.77278,1.25038 3.70677,1.84396 6.03201,1.22034 z m 81.69793,-1.30048 c -0.38576,-2.241383 -1.2176,-4.313903 -1.73147,-4.313903 -0.69962,0 -0.49683,1.305499 0.30632,1.972066 0.40674,0.337569 0.73954,1.215197 0.73954,1.950287 0,1.17183 0.33367,1.99386 0.80938,1.99386 0.0837,0 0.028,-0.72103 -0.12373,-1.60231 z m -35.36492,-2.465081 c -0.10864,-1.965917 -0.0304,-4.794613 0.17367,-6.285984 0.58819,-4.298434 0.54179,-4.327614 -6.94495,-4.369857 -5.31446,-0.03 -6.37066,0.07994 -5.92535,0.616461 0.81642,0.983731 6.71536,1.398947 8.6126,0.606249 2.93194,-1.225058 4.87212,0.607106 2.9233,2.760534 -1.1856,1.310064 -1.29621,2.843026 -0.33401,4.629704 1.42714,2.650036 -0.36748,4.685174 -2.42964,2.755264 -0.86839,-0.812695 -1.82417,-1.035872 -4.80156,-1.121158 -2.19974,-0.06298 -4.17892,0.140498 -4.84795,0.498583 -0.94575,0.506148 -1.28506,0.465266 -2.07559,-0.250177 -0.90897,-0.822605 -0.94503,-0.804922 -0.94503,0.463123 0,1.201429 0.12019,1.284719 1.35581,0.939199 2.68501,-0.750886 8.12508,-0.26421 11.46266,1.02545 1.76253,0.68106 3.37763,1.25375 3.58909,1.27263 0.21145,0.0188 0.2956,-1.57412 0.187,-3.540021 z m 29.45631,2.449311 c 0.37206,-0.58983 0.34638,-0.99066 -0.0915,-1.42857 -0.81893,-0.818938 -2.35102,0.64508 -1.90136,1.81688 0.36611,0.95407 1.25548,0.78079 1.99291,-0.38831 z m -52.2136,-0.83436 c 0,-1.100436 -1.39664,-2.477973 -1.95064,-1.923973 -0.14981,0.149815 -0.0242,0.984013 0.2789,1.853783 0.61774,1.77205 1.67174,1.8163 1.67174,0.0702 z m 26.86193,0.60362 c -0.004,-0.47453 -0.20175,-1.16942 -0.43912,-1.5442 -0.33923,-0.535624 -0.50265,-0.457456 -0.7638,0.36535 -0.35413,1.11579 -0.0149,2.04163 0.74654,2.04163 0.25517,0 0.46054,-0.38825 0.45638,-0.86278 z m -22.67127,-2.095327 c 0,-2.273244 -0.51824,-3.127825 -1.21407,-2.001973 -0.40446,0.654417 0.26473,4.46707 0.78406,4.46707 0.2365,0 0.43001,-1.10929 0.43001,-2.465097 z m 29.88896,0.143479 c -0.35497,-0.354973 -2.27995,0.578338 -2.27995,1.105408 0,1.09895 1.20424,1.12244 1.80846,0.0352 0.31678,-0.56995 0.52894,-1.083254 0.47149,-1.140702 z m -61.52589,-1.191796 c -1.9633,-1.244622 -2.70372,0.910464 -0.779,2.267414 1.06421,0.75028 1.1159,0.72856 1.27202,-0.53483 0.0894,-0.724274 -0.1323,-1.503948 -0.49302,-1.732584 z m 3.22458,1.490626 c 0.16826,-0.841333 0.16211,-1.762362 -0.013,-2.04675 -0.45269,-0.732474 -1.6481,1.035981 -1.6481,2.438138 0,1.69157 1.30669,1.38381 1.66174,-0.391388 z m 29.90584,-0.07267 c 0.009,-1.071329 0.49752,-2.133303 1.47212,-3.204614 1.71819,-1.888698 1.92959,-1.951438 1.82335,-0.541198 -0.044,0.583609 -0.47389,1.164125 -0.95539,1.290033 -1.00154,0.261916 -1.13798,0.87955 -0.30766,1.392705 0.3123,0.193027 0.84258,-0.02478 1.17842,-0.484105 0.54101,-0.73989 1.12535,-0.783419 5.12676,-0.382066 3.40431,0.341463 4.67454,0.669604 5.15952,1.332853 0.38959,0.532795 0.96319,0.75712 1.45419,0.568721 1.01279,-0.388644 1.05089,-1.266946 0.0714,-1.642863 -1.06551,-0.408862 -1.06551,-6.094504 0,-6.094504 0.41086,0 0.73954,-0.438228 0.73954,-0.986023 0,-1.168299 -1.24384,-1.324115 -1.6716,-0.209406 -0.25482,0.664051 -0.95925,0.728002 -4.85966,0.441135 -3.28014,-0.241232 -4.7353,-0.555863 -5.17978,-1.119888 -0.49126,-0.623448 -0.74335,-0.659169 -1.22843,-0.17404 -0.48505,0.485056 -0.47581,0.693418 0.0449,1.015298 0.36042,0.222747 0.57407,0.934538 0.47479,1.581781 -0.1746,1.138057 -0.20842,1.124864 -1.02916,-0.401035 -1.03218,-1.918997 -1.03082,-1.867232 -0.074,-2.824131 0.70434,-0.7043 0.65953,-0.774736 -0.49299,-0.774736 -1.26713,0 -1.26777,0.0019 -1.26777,4.408056 0,4.355099 -0.72088,6.489949 -1.13671,3.366336 -0.11795,-0.886426 -0.20834,-0.114225 -0.20074,1.716206 0.007,1.830319 0.2007,3.327873 0.42911,3.327873 0.22844,0 0.42184,-0.72105 0.42977,-1.602313 z m 7.51117,-4.055766 -1.10218,-1.701709 1.23236,-1.329741 1.23236,-1.329723 1.22564,1.151416 c 0.67409,0.633287 1.21861,1.390078 1.21003,1.681752 -0.0149,0.479726 -2.19682,3.250472 -2.54909,3.235825 -0.0809,-0.0037 -0.6429,-0.771865 -1.24912,-1.70782 z m 2.25773,-1.520719 c -0.22568,-1.164162 -1.32451,-1.485203 -1.70345,-0.497708 -0.37945,0.988875 0.76688,2.478066 1.4114,1.833543 0.25385,-0.253848 0.38527,-0.854973 0.29205,-1.335835 z m 13.27552,6.285203 c 0.10733,-0.32201 -0.15615,-0.585456 -0.58546,-0.585456 -0.42934,0 -0.7806,0.351266 -0.7806,0.780606 0,0.87062 1.06134,0.71902 1.36606,-0.19515 z m -0.39332,-3.465823 c -1.07482,-0.35829 -2.4518,-2.025936 -2.4518,-2.969363 0,-1.594546 1.90007,-3.517624 3.47553,-3.517624 1.95331,0 3.31048,1.985538 2.5292,3.700235 -0.29939,0.6571 -0.35411,1.312319 -0.12168,1.456022 0.23251,0.143666 0.55538,-0.08422 0.71746,-0.506651 0.16211,-0.422372 0.48721,-0.648958 0.72254,-0.503522 0.7712,0.476633 -0.27079,-3.656053 -1.17322,-4.653238 -0.60655,-0.670219 -1.51563,-0.9719 -2.92876,-0.9719 -4.71639,0 -6.65422,5.491944 -3.0836,8.73908 1.62385,1.476744 2.54617,1.626056 2.74562,0.444453 0.0943,-0.559087 -0.0997,-1.106957 -0.43139,-1.217492 z m 8.39459,-0.866526 c 0,-1.145472 -0.90269,-1.219523 -2.55871,-0.209872 -0.89757,0.547236 -2.02019,0.995788 -2.49472,0.996813 -1.00294,0.0019 -1.04972,0.210393 -0.34359,1.529812 0.5071,0.947526 0.5761,0.939197 2.95811,-0.357265 1.3414,-0.730089 2.43891,-1.611856 2.43891,-1.959488 z m -35.15259,1.302444 c 1.1323,-0.6904 1.73809,-1.558993 2.14736,-3.07893 0.74539,-2.768155 0.19947,-4.214675 -2.20756,-5.849376 -1.8428,-1.251499 -1.98442,-1.273412 -3.32016,-0.513714 -0.7674,0.436458 -1.39668,0.997949 -1.39839,1.247753 -0.002,0.249804 -0.35358,0.841463 -0.78193,1.314798 -0.602,0.665187 -0.65798,1.086403 -0.24652,1.855213 0.7233,1.351525 0.66917,1.710504 -0.20721,1.374202 -1.10375,-0.423564 -0.89259,0.06168 0.306,0.703144 0.73484,0.393266 0.94596,0.398427 0.71043,0.01677 -0.18428,-0.298215 -0.11497,-0.542205 0.1541,-0.542205 0.26902,0 0.46928,-0.698654 0.445,-1.552545 -0.0673,-2.363841 1.93383,-3.526419 4.08664,-2.374257 0.67441,0.360936 0.95364,1.035254 0.95364,2.30302 0,2.075445 -1.15453,3.595848 -2.73052,3.595848 -0.67309,0 -1.19561,0.370886 -1.34903,0.957495 -0.47059,1.79961 0.99654,2.030967 3.43821,0.542205 z M 314.18383,97.27115 c 0.3008,-0.783903 -0.57577,-1.397997 -2.72953,-1.912196 -1.47941,-0.353184 -3.85512,0.367998 -3.85512,1.170293 0,0.362408 0.30926,0.35706 1.009,-0.01677 0.79208,-0.423918 1.40154,-0.335482 2.83486,0.411321 2.32963,1.213821 2.40488,1.22338 2.74079,0.348004 z m 65.03561,-0.08441 c -0.33379,-0.135095 -0.99937,-0.143294 -1.47906,-0.01863 -0.47971,0.125033 -0.20659,0.235494 0.60688,0.245537 0.81348,0.0093 1.20596,-0.09224 0.87218,-0.227276 z m 1.54939,-2.264951 c -4.00022,-4.319471 -5.03402,-5.299942 -5.58826,-5.299942 -0.80759,0 -0.6413,0.55851 0.54103,1.817033 l 1.07198,1.141075 h -1.31849 c -0.8433,0 -1.31848,0.266519 -1.31848,0.739518 0,0.486937 0.48716,0.739536 1.4263,0.739536 0.80582,0 1.54837,0.318097 1.70691,0.731207 0.15428,0.402172 0.60526,0.606622 1.00208,0.454347 0.4354,-0.167145 1.05179,0.22722 1.55441,0.994353 0.53077,0.810027 1.284,1.271213 2.07625,1.271213 1.18255,0 1.12619,-0.126523 -1.15373,-2.58834 z m 5.49193,1.681715 c -0.1582,-0.498658 0.0555,-1.728355 0.47521,-2.732677 0.69922,-1.67346 0.69256,-1.945252 -0.0797,-3.252596 -0.87832,-1.48688 -2.49601,-2.195652 -3.83691,-1.6811 -1.21431,0.465975 -1.53803,2.646254 -0.62829,4.23139 0.43671,0.760928 0.58698,1.3835 0.33395,1.3835 -0.25305,0 -0.90512,-0.872377 -1.44907,-1.938618 -0.99437,-1.949128 -1.84083,-2.8112 -2.30477,-2.347257 -0.27733,0.277326 1.78185,3.169452 4.01684,5.641666 1.62998,1.803021 3.97318,2.272424 3.47275,0.695692 z m -2.84197,-3.219372 c -1.47102,-2.161664 -1.32875,-3.269273 0.4199,-3.269273 1.5015,0 1.87992,0.953619 1.31813,3.321783 l -0.44002,1.854896 z m 13.99142,2.153931 c 0.56417,0 0.8889,-0.288078 0.80264,-0.71207 -0.0797,-0.391626 0.29047,-1.033204 0.82255,-1.425706 0.823,-0.607087 0.86919,-0.832015 0.3094,-1.50652 -0.9116,-1.098404 -2.01634,-0.992582 -2.01634,0.193158 0,0.542316 -0.24772,0.986042 -0.5505,0.986042 -0.53369,0 -0.45231,-0.821227 0.33468,-3.377591 0.29708,-0.96493 0.20054,-1.126969 -0.57645,-0.967613 -0.76275,0.156523 -0.90961,0.56682 -0.80362,2.245851 0.0859,1.362276 -0.19787,2.592998 -0.84254,3.653072 -0.76143,1.252076 -0.84642,1.750213 -0.39207,2.297672 0.49049,0.591007 0.6871,0.537919 1.27244,-0.343644 0.38076,-0.573453 1.11868,-1.042651 1.63981,-1.042651 z M 331.25525,95.22183 c 0.94421,-0.639585 1.99804,-1.162877 2.34183,-1.162877 0.34379,0 0.62507,-0.221872 0.62507,-0.49303 0,-0.271159 -0.33278,-0.493012 -0.73952,-0.493012 -0.40673,0 -0.73953,-0.234953 -0.73953,-0.522118 0,-0.287164 0.20653,-0.394476 0.45895,-0.238456 0.72319,0.446949 1.19666,-0.740095 0.54954,-1.377705 -0.44339,-0.436905 -0.76133,-0.338687 -1.33617,0.412719 -0.71115,0.929638 -0.73448,0.891029 -0.40782,-0.674691 0.26813,-1.285151 0.19536,-1.609285 -0.32178,-1.433215 -0.36755,0.125033 -0.69387,0.872451 -0.72512,1.660715 -0.0313,0.788282 -0.0866,1.698876 -0.12316,2.02355 -0.0922,0.819923 -4.99864,3.212012 -5.88808,2.870716 -0.39957,-0.153356 -1.19441,-0.130063 -1.76632,0.0518 -1.02491,0.325886 -1.02567,0.336321 -0.0538,0.726306 1.67156,0.670759 6.27013,-0.09373 8.126,-1.35076 z m 4.79769,0.986582 c 0.20318,-0.609603 -1.83712,-1.58985 -2.69357,-1.294077 -0.96398,0.332892 -0.72498,1.104926 0.49303,1.59259 1.27408,0.510099 1.9621,0.416762 2.20054,-0.298513 z m -14.27949,-0.642585 c 0.61012,-0.508981 1.1093,-1.056235 1.1093,-1.21615 0,-0.491391 -2.55396,-0.32242 -4.21717,0.279003 -1.38576,0.501099 -1.71302,0.441694 -2.71632,-0.493012 -1.38128,-1.286865 -1.73648,-1.320387 -2.16477,-0.2043 -0.89392,2.329535 5.57044,3.652066 7.98896,1.634459 z M 371.1985,93.78116 c 0,-1.456265 -0.69586,-1.884282 -1.96187,-1.206722 -1.22262,0.654325 -1.29898,2.252113 -0.13864,2.901462 1.11313,0.622945 2.10055,-0.173667 2.10055,-1.69474 z m -3.70884,0.735474 c -0.20708,-0.652423 -0.0131,-1.364792 0.5362,-1.972065 0.9233,-1.020236 0.31361,-1.345599 -0.6729,-0.359091 -0.63772,0.637721 -0.79862,2.488164 -0.26294,3.023847 0.59004,0.590038 0.72985,0.347706 0.39964,-0.692691 z m 26.38766,0.557932 c 0.57265,-0.160437 -2.38314,-1.448588 -4.03497,-1.758467 -1.50091,-0.281575 -1.88439,-0.172362 -2.33181,0.663529 -0.29451,0.550292 -0.53546,1.075447 -0.53546,1.166995 0,0.15261 6.33639,0.08646 6.90224,-0.07211 z m -67.01802,-0.53995 c 1.40255,-0.750624 1.17263,-1.356966 -0.83214,-2.194609 -2.38835,-0.997912 -3.14441,-0.94024 -3.14441,0.239891 0,0.542317 0.30561,0.986024 0.67914,0.986024 0.37356,0 0.95536,0.332798 1.29293,0.739536 0.72943,0.878917 0.77967,0.884656 2.00448,0.229158 z m 18.15207,-4.641667 c -0.25593,-0.275053 -0.41037,0.640702 -0.37413,2.218571 l 0.0617,2.68695 0.37413,-2.218572 c 0.20575,-1.220231 0.17795,-2.429356 -0.0617,-2.686949 z m -31.90456,3.35005 c 0.49588,-0.448757 0.90162,-1.114336 0.90162,-1.479054 0,-1.110534 -1.21666,-0.744437 -2.71161,0.815953 -1.41702,1.479054 -1.41702,1.479054 -0.25431,1.479054 0.63949,0 1.56842,-0.367178 2.0643,-0.815953 z m 3.69154,-2.392667 c 0.0762,-2.635185 -0.52494,-3.585413 -1.16713,-1.844816 -0.17516,0.474527 -0.53235,1.006223 -0.79393,1.181566 -0.36356,0.243693 1.31143,3.396337 1.79305,3.374833 0.0494,-0.0019 0.12485,-1.222411 0.16808,-2.711583 z m 2.14025,2.529457 c 0,-0.102299 -0.33278,-0.46234 -0.73954,-0.799891 -0.60567,-0.502664 -0.73951,-0.468974 -0.73951,0.186151 0,0.439943 0.33278,0.799891 0.73951,0.799891 0.40676,0 0.73954,-0.08385 0.73954,-0.186151 z m 21.41879,-0.262382 c 0.47644,-0.770934 -0.28253,-2.016563 -1.22871,-2.016563 -1.08693,0 -1.64426,0.768773 -1.26805,1.749169 0.30278,0.789028 2.05818,0.977023 2.49676,0.267394 z m 54.50597,-0.278351 c 0,-1.0529 -2.59074,-2.231242 -4.90569,-2.231242 -1.44603,0 -1.99656,0.203928 -1.99656,0.739536 0,0.429993 0.46431,0.751164 1.1093,0.767357 0.61011,0.01491 1.88579,0.321618 2.83485,0.68069 2.3482,0.888476 2.9581,0.897476 2.9581,0.0436 z m -72.77467,-0.541385 c 0.31445,-0.8194 -0.46253,-2.675284 -1.37508,-3.284608 -0.29836,-0.199214 -1.09711,-0.351544 -1.77501,-0.338519 -1.22634,0.02366 -1.22696,0.0259 -0.12317,0.469589 0.85686,0.344407 1.10931,0.842171 1.10931,2.187322 0,1.37996 0.19371,1.741455 0.93329,1.741455 0.5133,0 1.06715,-0.348861 1.23075,-0.775239 z m 7.93131,0.300842 c 0.55413,-0.8966 -6.60438,-4.659984 -7.38297,-3.881373 -0.69105,0.691033 0.51043,1.840288 2.42896,2.323368 1.1639,0.293072 2.39619,0.870252 2.73844,1.282636 0.70469,0.849102 1.77849,0.982576 2.21557,0.275369 z m -19.21621,-1.011402 c 0,-0.40303 -0.49918,-0.803674 -1.10928,-0.890321 -1.07912,-0.153169 -1.53993,0.795102 -0.76356,1.571459 0.57437,0.574385 1.87284,0.102113 1.87284,-0.681138 z m 1.88581,-1.73115 c 0.0475,-0.264376 -0.69023,-0.538479 -1.63928,-0.6091 -1.72558,-0.128387 -1.72558,-0.128387 -0.49303,0.597752 1.32121,0.778425 1.99398,0.782002 2.13231,0.01118 z"
       id="path12687" />
  </g>
</svg>
