<?xml version="1.0" encoding="UTF-8" standalone="no"?>
<!-- Created with Inkscape (http://www.inkscape.org/) -->

<svg
   width="89.049858mm"
   height="145.13602mm"
   viewBox="0 0 89.049861 145.13601"
   version="1.1"
   id="svg5"
   inkscape:version="1.1 (c4e8f9ed74, 2021-05-24)"
   sodipodi:docname="pottedplant.svg"
   xmlns:inkscape="http://www.inkscape.org/namespaces/inkscape"
   xmlns:sodipodi="http://sodipodi.sourceforge.net/DTD/sodipodi-0.dtd"
   xmlns="http://www.w3.org/2000/svg"
   xmlns:svg="http://www.w3.org/2000/svg">
  <sodipodi:namedview
     id="namedview7"
     pagecolor="#ffffff"
     bordercolor="#666666"
     borderopacity="1.0"
     inkscape:pageshadow="2"
     inkscape:pageopacity="0.0"
     inkscape:pagecheckerboard="0"
     inkscape:document-units="mm"
     showgrid="false"
     inkscape:zoom="0.66903058"
     inkscape:cx="-558.27044"
     inkscape:cy="235.41525"
     inkscape:window-width="2506"
     inkscape:window-height="1403"
     inkscape:window-x="1974"
     inkscape:window-y="0"
     inkscape:window-maximized="1"
     inkscape:current-layer="layer1" />
  <defs
     id="defs2" />
  <g
     inkscape:label="Layer 1"
     inkscape:groupmode="layer"
     id="layer1"
     transform="translate(-92.548778,-246.91006)">
    <path
       style="fill:#000000;stroke-width:0.264583"
       d="m 125.06268,391.71601 c -0.14654,-0.1819 -0.34771,-0.74745 -0.44706,-1.25677 -0.1499,-0.76852 -1.38666,-4.33981 -2.249,-6.49425 -0.19137,-0.47813 0.2971,-1.97242 0.64477,-1.97242 0.14695,0 0.75371,1.396 1.3225,3.04271 0.89309,2.58562 1.79395,4.75585 2.21905,5.34583 0.42392,0.58836 0.50001,0.59606 4.53221,0.45863 2.25557,-0.0769 6.1251,-0.0377 8.59895,0.087 5.15798,0.26003 5.69243,0.13693 6.36493,-1.46598 0.22749,-0.54223 0.93355,-2.53368 1.56901,-4.42545 0.63546,-1.89177 1.53517,-4.45161 1.99936,-5.68854 0.4642,-1.23693 1.06033,-2.9038 1.32474,-3.70417 0.82319,-2.49171 1.83983,-5.29579 2.33551,-6.44176 0.26141,-0.60438 0.66727,-1.66346 0.9019,-2.35352 0.39747,-1.16897 0.3959,-1.27072 -0.023,-1.48969 -0.24726,-0.12927 -4.67628,-0.30788 -9.84227,-0.39693 -12.20809,-0.21043 -11.6665,-0.21038 -20.04219,-0.002 -6.45119,0.16073 -7.2099,0.22558 -7.2099,0.61621 0,0.24011 0.10446,0.54968 0.23213,0.68792 0.12767,0.13825 0.47187,0.9062 0.7649,1.70656 0.29303,0.80037 1.03402,2.82443 1.64666,4.49792 0.61264,1.67349 1.23002,3.264 1.37196,3.53448 0.14194,0.27047 0.48763,1.22297 0.7682,2.11666 0.28057,0.8937 0.64879,1.89279 0.81827,2.22022 0.24006,0.46379 0.22993,0.74144 -0.0459,1.25677 -0.70529,1.31784 -0.72339,1.28686 -3.19707,-5.4688 -0.40866,-1.11607 -1.59583,-3.66817 -2.63814,-5.67134 -1.79217,-3.44428 -1.88874,-3.71901 -1.77772,-5.0577 0.0646,-0.77857 0.26209,-1.56022 0.43894,-1.737 0.23295,-0.23286 1.66154,-0.30698 5.18495,-0.26901 l 4.86341,0.0524 0.56151,-0.95169 c 0.43186,-0.73207 1.06204,-2.91714 1.06204,-3.68262 0,-0.0503 0.54644,-0.65917 1.2143,-1.35295 0.66787,-0.69378 1.38212,-1.58268 1.58723,-1.97534 0.2051,-0.39267 0.73597,-1.25187 1.17969,-1.90934 1.62897,-2.41369 1.97097,-7.72078 1.9715,-30.59374 2.7e-4,-16.35802 -0.0271,-17.38391 -0.48364,-18.08059 -0.26623,-0.40623 -0.66301,-1.34124 -0.88175,-2.0778 -0.40902,-1.37731 -1.92077,-4.36677 -3.87395,-7.66065 -1.34476,-2.26784 -2.37525,-2.88928 -5.87275,-3.54157 -3.45932,-0.64517 -4.47212,-1.06583 -6.05985,-2.51693 -1.42063,-1.29838 -1.42063,-1.29838 -2.36666,-0.90311 -0.91622,0.38283 -0.96645,0.37325 -1.59448,-0.30405 -0.35665,-0.38463 -0.59032,-0.89035 -0.51928,-1.12382 0.0742,-0.24366 -0.01,-0.19907 -0.1969,0.10469 -0.17935,0.29104 -0.62534,0.76729 -0.99109,1.05833 -0.36575,0.29104 -1.03198,0.90969 -1.48051,1.37478 -0.71873,0.74526 -1.00381,0.85292 -2.40233,0.90728 -0.91067,0.0354 -1.95295,-0.0959 -2.44606,-0.30806 -0.85562,-0.36817 -0.86523,-0.3638 -2.28315,1.0365 -1.59091,1.57116 -2.356926,1.71435 -2.500052,0.46735 -0.07213,-0.62842 -0.180061,-0.72517 -0.661458,-0.59291 -1.842328,0.50617 -2.513993,0.48827 -2.86663,-0.0764 -0.192207,-0.30778 -0.496676,-0.55959 -0.676598,-0.55959 -0.179922,0 -0.522163,-0.29766 -0.760535,-0.66146 -0.238373,-0.3638 -0.661573,-0.66146 -0.940445,-0.66146 -0.835956,0 -0.889004,-0.75723 -0.110009,-1.57033 l 0.713745,-0.74499 -0.67012,-0.72307 c -0.64589,-0.69692 -0.653713,-0.74565 -0.216355,-1.34757 0.24957,-0.34347 0.543061,-0.62823 0.652201,-0.63281 0.109141,-0.005 0.198438,-0.30713 0.198438,-0.67236 0,-0.36522 0.238125,-0.86794 0.529167,-1.11713 0.291041,-0.2492 0.529166,-0.77963 0.529166,-1.17873 0,-0.87334 0.755824,-1.35943 1.732591,-1.11428 0.661974,0.16615 0.679164,0.14023 0.508916,-0.76727 -0.161163,-0.85908 -0.106069,-0.97549 0.64562,-1.36421 0.637474,-0.32965 0.945065,-0.35902 1.371257,-0.13092 0.30219,0.16172 0.569006,0.25463 0.592923,0.20646 0.490808,-0.98851 0.712518,-1.14377 1.594158,-1.11629 0.71781,0.0224 0.98951,-0.0936 1.11026,-0.47408 0.1184,-0.37305 0.30874,-0.4588 0.73384,-0.33061 0.31569,0.0952 0.68195,0.27363 0.81392,0.39652 0.13457,0.12531 0.57923,-0.062 1.01249,-0.42661 1.01347,-0.85278 1.71475,-0.82452 2.23976,0.0902 0.58592,1.0209 1.48026,1.41327 2.32658,1.02074 0.74854,-0.34718 0.76442,-0.40287 0.39325,-1.37913 -0.35633,-0.9372 0.074,-1.45406 1.1415,-1.37106 0.67051,0.0521 0.83978,-0.0518 0.97425,-0.59835 0.11853,-0.48173 0.33924,-0.66146 0.81228,-0.66146 0.35724,0 0.80511,-0.20836 0.99526,-0.46302 0.4711,-0.63092 0.92735,-0.58211 1.85498,0.19844 0.975,0.82041 1.04496,0.81949 1.92672,-0.0253 0.70712,-0.67747 0.72339,-0.67984 1.2051,-0.17522 0.26857,0.28133 0.60737,0.7111 0.75289,0.95504 0.24476,0.4103 0.38197,0.40091 1.83164,-0.12533 1.9436,-0.70554 2.38092,-0.50596 2.45364,1.11977 0.0286,0.63879 0.0699,1.39956 0.0918,1.6906 0.0219,0.29104 -0.0447,0.79561 -0.14812,1.12126 -0.13709,0.43182 -0.0652,0.63922 0.26562,0.76616 0.58031,0.22269 0.94479,-0.35179 0.67986,-1.07159 -0.11159,-0.30318 -0.28171,-1.06108 -0.37805,-1.68421 -0.15329,-0.99145 -0.092,-1.21004 0.49077,-1.75013 0.47393,-0.43922 0.66594,-0.89182 0.66594,-1.56971 0,-1.59561 1.47955,-1.94755 2.92333,-0.69538 0.63965,0.55477 0.63965,0.55477 0.8501,-0.25738 0.23871,-0.92119 0.80197,-1.04605 1.74362,-0.38649 0.56927,0.39873 0.64058,0.39036 1.12751,-0.13229 0.28589,-0.30687 0.6448,-0.55795 0.79758,-0.55795 0.17785,0 0.22791,-0.54732 0.13917,-1.52135 -0.27621,-3.03171 -0.42361,-3.43055 -1.63446,-4.42276 -0.62761,-0.51428 -1.27626,-0.93506 -1.44144,-0.93506 -0.43212,0 -3.91233,-2.82578 -4.24441,-3.44628 -0.37906,-0.70827 -0.74037,-0.65665 -1.11193,0.15884 -0.36409,0.79907 -1.57762,1.50213 -2.18831,1.26779 -0.23482,-0.0901 -0.49277,-0.49301 -0.57323,-0.89533 -0.13732,-0.68655 -0.21373,-0.72323 -1.24348,-0.59691 -0.73758,0.0905 -1.25616,0.34118 -1.58226,0.76491 -0.27055,0.35154 -0.76355,0.63032 -1.11469,0.63032 -0.34627,0 -1.22674,0.23537 -1.95659,0.52305 -1.37712,0.54281 -1.98716,0.50107 -2.2382,-0.15313 -0.0992,-0.25852 -0.35751,-0.33007 -0.79511,-0.22024 -0.83369,0.20924 -1.7447,-0.0806 -1.7447,-0.55508 0,-0.20335 -0.23812,-0.49718 -0.52917,-0.65294 -0.29104,-0.15576 -0.52916,-0.39937 -0.52916,-0.54136 0,-0.14198 -0.23207,-0.76287 -0.5157,-1.37975 -0.54784,-1.19152 -0.66738,-3.52049 -0.21034,-4.09816 0.14391,-0.1819 0.48816,-0.33073 0.76498,-0.33073 0.28755,0 0.60661,-0.27167 0.74426,-0.63371 0.28918,-0.7606 0.7644,-0.97102 1.42457,-0.63078 0.36669,0.18898 0.63399,0.11433 1.07539,-0.30034 0.64921,-0.6099 1.22356,-0.70178 1.65981,-0.26553 0.20535,0.20536 0.44475,0.18736 0.84667,-0.0636 0.44952,-0.28073 0.66432,-0.28503 1.08593,-0.0217 0.72605,0.45342 0.79734,0.42276 0.79734,-0.34286 0,-0.43146 0.41097,-1.09996 1.15096,-1.87221 1.15096,-1.20112 1.15096,-1.20112 2.14898,-0.78412 1.27476,0.53263 1.37247,0.52551 1.53923,-0.11217 0.16833,-0.6437 0.89962,-0.68544 1.55872,-0.089 0.41699,0.37738 0.57918,0.39057 1.13629,0.0924 0.52692,-0.282 0.72666,-0.28407 1.05576,-0.0109 0.22324,0.18528 0.4059,0.48924 0.4059,0.67546 0,0.29363 1.27558,0.91953 1.87399,0.91953 0.11414,0 0.2452,-0.32742 0.29125,-0.7276 0.0639,-0.55563 0.22732,-0.72926 0.69128,-0.73459 0.37706,-0.004 0.73091,-0.2544 0.9327,-0.65914 0.37936,-0.76092 1.65834,-1.02386 4.41286,-0.90721 2.3304,0.0987 3.11253,0.321 4.43177,1.25975 1.04582,0.74419 1.12448,0.88586 1.12448,2.02531 0,0.67383 -0.14089,1.36604 -0.31309,1.53824 -0.39804,0.39804 -0.16039,0.65004 0.40751,0.43212 0.32031,-0.12291 0.43475,-0.5035 0.43475,-1.44582 0,-1.29737 0.20201,-1.60038 1.18597,-1.7789 1.34908,-0.24477 4.00705,-0.23786 4.31534,0.0112 0.23988,0.1938 0.43337,0.18484 0.64823,-0.03 0.49347,-0.49347 1.22001,-0.35491 1.83247,0.34948 0.41786,0.48058 0.73638,0.61405 1.19231,0.49962 0.83671,-0.21 1.48489,0.35833 1.29077,1.13176 -0.11945,0.47597 0.005,0.68591 0.57831,0.97469 1.37282,0.69165 2.07495,0.73874 2.58651,0.17347 0.63347,-0.69998 1.23057,-0.6617 1.97089,0.12634 0.47143,0.50182 0.72084,0.59287 1.08706,0.39687 0.78968,-0.42262 1.53098,-0.28819 1.88019,0.34096 0.66583,1.1996 1.21058,3.0507 0.99867,3.39357 -0.11837,0.19153 -0.10322,0.5575 0.0337,0.81327 0.17036,0.31832 0.11025,0.82366 -0.19054,1.60175 -0.58169,1.50476 -0.62122,1.53836 -1.97247,1.67682 -2.64469,0.27098 -4.3598,0.54248 -4.67359,0.7398 -0.64383,0.40487 -1.3867,-0.0777 -1.3867,-0.90085 0,-0.70677 -0.0806,-0.77592 -0.90397,-0.77592 -0.67254,0 -1.03447,0.17914 -1.41367,0.6997 -0.37216,0.51089 -0.77585,0.71586 -1.49603,0.75958 -0.54248,0.0329 -1.12076,0.19432 -1.28508,0.35864 -0.48713,0.48713 -0.91628,0.34699 -1.51583,-0.495 -0.31086,-0.43656 -0.69149,-0.79375 -0.84585,-0.79375 -0.15435,0 -0.72827,0.40441 -1.27538,0.89868 -0.84425,0.76273 -3.19362,1.74715 -4.16965,1.74715 -0.38065,0 -2.41707,2.28551 -2.70039,3.0307 -0.29182,0.76754 -0.0312,5.12371 0.31954,5.34047 0.13433,0.083 0.52702,-0.11472 0.87264,-0.43942 0.79932,-0.75092 1.38982,-0.5279 1.49734,0.56552 0.12212,1.242 0.69357,1.27935 0.79469,0.0519 l 0.0831,-1.00858 1.85209,0.0718 c 1.01864,0.0395 2.40506,0.0664 3.08092,0.0597 0.9393,-0.009 1.41587,0.14525 2.02257,0.65576 0.43655,0.36733 1.0317,0.66788 1.32254,0.66788 0.29085,0 0.60253,0.1921 0.69262,0.42689 0.11017,0.28707 0.35324,0.37736 0.74215,0.27565 0.68133,-0.17817 1.26732,0.23102 1.26732,0.88496 0,0.2554 0.18083,0.61444 0.40184,0.79786 0.32841,0.27256 0.49458,0.24957 0.90937,-0.12581 0.27914,-0.25262 0.6341,-0.38109 0.78879,-0.28548 0.16941,0.1047 0.28125,-0.0842 0.28125,-0.47494 0,-0.94968 1.48926,-1.32437 2.6963,-0.67838 0.4082,0.21846 0.7052,0.20578 1.18419,-0.0506 0.54136,-0.28972 0.75463,-0.27406 1.39156,0.10218 0.61315,0.3622 0.90752,0.39021 1.59225,0.1515 0.7361,-0.2566 0.91838,-0.21924 1.47315,0.30194 0.47761,0.44869 0.65246,0.92753 0.71189,1.94959 0.0788,1.35481 0.0788,1.35481 1.26941,1.7239 0.65485,0.20299 1.62356,0.58995 2.15269,0.85989 1.21242,0.61854 1.38107,0.61491 1.21345,-0.0261 -0.22333,-0.85401 0.39726,-1.44295 1.28886,-1.22313 0.42293,0.10427 1.61412,0.21122 2.6471,0.23767 1.10075,0.0282 2.05262,0.19288 2.29967,0.39791 0.24989,0.20739 0.88541,0.31493 1.56081,0.26411 0.96546,-0.0727 1.17853,0.003 1.39645,0.49879 0.14144,0.32149 0.49891,0.61914 0.79438,0.66146 0.34479,0.0494 0.56955,0.31386 0.62749,0.73839 0.12271,0.89917 0.70678,1.49556 1.64929,1.68406 0.43256,0.0865 0.82638,0.30854 0.87515,0.49339 0.0488,0.18485 0.23655,0.79441 0.41726,1.35457 0.23659,0.73332 0.24806,1.09899 0.041,1.30607 -0.20708,0.20708 -0.16143,0.42702 0.16303,0.78555 0.40525,0.44779 0.41115,0.5683 0.0586,1.19648 -0.21564,0.38419 -0.68731,0.76823 -1.04816,0.85341 -0.36928,0.0872 -0.69645,0.38114 -0.7484,0.67245 -0.12024,0.6742 -1.8412,2.47724 -2.6886,2.81682 -0.9506,0.38095 -3.76946,0.48947 -4.16598,0.16039 -0.18717,-0.15534 -0.76816,-0.20914 -1.30963,-0.12126 -1.13237,0.18376 -1.66814,-0.15279 -1.66814,-1.04786 0,-0.51947 -0.13528,-0.62906 -0.77652,-0.62906 -1.05931,0 -2.1339,0.43981 -2.1339,0.87337 0,0.19652 -0.28212,0.62235 -0.62695,0.94629 -0.46515,0.43699 -0.80591,0.54407 -1.32045,0.41494 -0.5151,-0.12929 -0.73763,-0.059 -0.86506,0.27302 -0.25932,0.67578 -1.18407,0.92162 -1.96568,0.52255 -0.40963,-0.20913 -0.82278,-0.25566 -1.04587,-0.11779 -0.20283,0.12536 -0.70151,0.16137 -1.10818,0.08 -0.41764,-0.0835 -0.9124,-0.004 -1.13694,0.18203 -0.6206,0.51506 -1.19128,-0.13395 -1.19128,-1.35476 0,-0.56427 -0.0298,-1.02553 -0.0661,-1.02503 -0.0364,5.3e-4 -0.95624,0.36361 -2.04413,0.80691 -1.47891,0.60264 -2.21573,0.76583 -2.92025,0.64681 -1.62456,-0.27447 -3.44225,0.34759 -7.07401,2.42092 -3.50558,2.0013 -3.50558,2.0013 -4.29948,3.66476 -0.43665,0.91491 -0.7939,1.74625 -0.7939,1.84743 0,0.10118 -0.33766,0.9176 -0.75036,1.81426 -1.30756,2.84094 -1.43412,4.58418 -1.38613,19.09279 0.0573,17.3267 0.19033,26.7007 0.4205,29.63334 0.20907,2.66392 0.73494,4.54822 1.92163,6.88562 0.95317,1.87745 1.90811,2.83694 3.42036,3.43666 1.24238,0.49271 2.2294,1.85038 2.30565,3.17147 l 0.0458,0.79375 3.03054,-0.0669 c 3.83117,-0.0845 5.60853,0.25119 6.21292,1.17361 0.61307,0.93565 0.38949,2.06473 -1.05313,5.31845 -0.65193,1.47038 -1.73191,4.13857 -2.39995,5.92932 -0.66805,1.79075 -1.3774,3.67263 -1.57633,4.18195 -1.20519,3.08557 -2.25402,6.36299 -2.25402,7.04347 0,0.28799 -0.10287,0.63672 -0.22861,0.77497 -0.12573,0.13824 -0.37162,0.84666 -0.54641,1.57427 -0.17478,0.7276 -0.49137,1.59081 -0.70352,1.91823 -0.38574,0.59531 -0.38574,0.59531 -10.93057,0.59531 -8.11739,0 -10.60617,-0.0761 -10.81127,-0.33073 z m 4.17038,-28.64115 c 0,-0.3638 -0.11906,-0.66146 -0.26458,-0.66146 -0.14552,0 -0.26458,0.29766 -0.26458,0.66146 0,0.36381 0.11906,0.66146 0.26458,0.66146 0.14552,0 0.26458,-0.29765 0.26458,-0.66146 z m 15.08125,0.24719 c 0,-0.72805 -0.53113,-1.43781 -1.07595,-1.43781 -0.6676,0 -0.90413,0.58937 -0.52261,1.30224 0.35358,0.66067 1.59856,0.76626 1.59856,0.13557 z m -16.27389,-1.04094 c 0.11582,-0.54817 0.0906,-0.67096 -0.0816,-0.39687 -0.40421,0.64354 -0.68254,1.76318 -0.36175,1.45521 0.15158,-0.14552 0.35107,-0.62177 0.44332,-1.05834 z m 2.77173,0.8599 c -0.005,-0.1819 -0.18323,-0.56185 -0.39688,-0.84432 -0.21365,-0.28248 -0.38846,-0.78849 -0.38846,-1.12448 0,-0.33599 -0.12708,-0.61089 -0.28241,-0.61089 -0.15533,0 -0.22525,0.20836 -0.1554,0.46302 0.0699,0.25466 0.20235,0.90951 0.2944,1.45521 0.10378,0.61511 0.31367,0.99219 0.55228,0.99219 0.21168,0 0.3811,-0.14883 0.37647,-0.33073 z m 2.38966,-0.34635 c 0,-0.20969 -0.11906,-0.38126 -0.26458,-0.38126 -0.14552,0 -0.26458,0.24516 -0.26458,0.54479 0,0.29963 0.11906,0.47119 0.26458,0.38126 0.14552,-0.0899 0.26458,-0.33509 0.26458,-0.54479 z m 2.59605,0.21709 c -0.0487,-0.25298 -0.30546,-0.50174 -0.57052,-0.55279 -0.41274,-0.0795 -0.43946,-0.0134 -0.18609,0.45998 0.35815,0.66921 0.87994,0.73321 0.75661,0.0928 z m 1.61468,-0.59835 c 0.11285,0 0.42133,0.23886 0.68553,0.53079 0.75925,0.83897 0.80522,0.37103 0.0596,-0.60654 -0.87423,-1.14618 -1.39219,-2.40792 -1.62455,-3.95737 -0.18406,-1.22746 -0.68353,-2.00897 -0.6875,-1.07572 -0.004,0.93744 1.19419,6.28866 1.27721,5.70416 0.0465,-0.32742 0.17687,-0.59532 0.28972,-0.59532 z m 3.09803,0.22975 c -0.18171,-0.90856 -2.81891,-5.01849 -3.10625,-4.8409 -0.22679,0.14016 0.10642,1.64204 0.55481,2.50071 0.59936,1.14777 2.15687,3.16878 2.44204,3.16878 0.16715,0 0.21009,-0.32518 0.1094,-0.82859 z m 1.42249,-0.5 c 0,-1.20728 0.9822,-1.57054 2.23996,-0.82844 0.90514,0.53404 0.93576,0.53607 0.67276,0.0447 -0.15153,-0.28315 -0.76623,-0.66184 -1.36599,-0.84153 -0.61193,-0.18334 -1.70095,-0.88467 -2.48161,-1.59815 -2.38653,-2.18115 -3.5096,-5.8806 -3.79885,-12.51359 l -0.16153,-3.70417 -0.37732,1.58751 c -0.53446,2.24868 -0.54354,9.28041 -0.0132,10.21103 0.80526,1.41297 3.00382,4.63642 3.73247,5.47243 0.42346,0.48584 0.82939,1.3289 0.92363,1.91823 0.19741,1.2345 0.62967,1.4075 0.62967,0.25201 z m -9.69496,-0.76194 c 0.29807,-0.3656 1.01627,-4.55852 0.81537,-4.7602 -0.21189,-0.2127 -0.84275,0.53169 -1.54664,1.82499 -0.7476,1.37358 -0.76254,2.05039 -0.0817,3.70282 0.25042,0.60783 0.28218,0.61855 0.39164,0.13229 0.0655,-0.29104 0.25513,-0.696 0.42138,-0.8999 z m 2.59972,0.18112 c -0.20818,-0.20818 -0.31579,-1.47009 -0.32114,-3.7659 -0.009,-4.04874 -0.38678,-3.97318 -0.59464,0.11906 -0.0776,1.52797 -0.21533,2.96228 -0.30605,3.18737 -0.11461,0.28436 0.0594,0.4923 0.57034,0.6814 0.84799,0.31388 1.10108,0.22766 0.65149,-0.22193 z m -5.07559,-1.69571 c 0,-0.42581 1.16227,-2.34979 1.57277,-2.60349 0.4604,-0.28454 2.47767,-3.85207 2.28635,-4.04339 -0.35093,-0.35092 -1.0017,0.35204 -1.98781,2.14721 -0.54896,0.99934 -1.49223,2.39064 -2.09616,3.09176 -0.60394,0.70113 -1.09798,1.37174 -1.09788,1.49026 1e-4,0.11851 0.29776,0.23265 0.66146,0.25363 0.41154,0.0238 0.66127,-0.10314 0.66127,-0.33598 z m 5.82083,-6.20008 c 0,-0.29963 -0.11906,-0.4712 -0.26458,-0.38126 -0.14552,0.0899 -0.26459,0.33509 -0.26459,0.54478 0,0.20969 0.11907,0.38126 0.26459,0.38126 0.14552,0 0.26458,-0.24515 0.26458,-0.54478 z m -0.57032,-18.7698 c -0.01,-3.71079 -0.10455,-7.87797 -0.21024,-9.26042 -0.16139,-2.11085 -0.19903,-1.6196 -0.23497,3.06631 -0.0236,3.06891 -0.10025,7.95048 -0.17046,10.84791 -0.12108,4.99665 -0.10804,5.18628 0.25304,3.68057 0.28273,-1.17899 0.37605,-3.32365 0.36263,-8.33437 z m 0.30255,-23.00584 c 0.16629,-4.57681 0.37271,-8.43533 0.45872,-8.57449 0.0904,-0.14625 -0.0837,-0.19026 -0.41243,-0.10428 -0.45388,0.11869 -0.72956,-0.0894 -1.3643,-1.02992 -0.43751,-0.64827 -0.79547,-1.28183 -0.79547,-1.40792 0,-0.25041 -3.18744,-5.79292 -3.9873,-6.93335 -0.84343,-1.20256 -0.84247,-2.0885 0.004,-3.72002 0.8188,-1.57816 1.38655,-4.13261 0.84399,-3.79729 -0.16515,0.10207 -0.30028,0.46163 -0.30028,0.79903 0,0.3374 -0.15923,0.7456 -0.35386,0.90712 -0.46371,0.38485 -1.10683,-0.31747 -2.44281,-2.6677 -0.55569,-0.97755 -1.1755,-1.84074 -1.37735,-1.9182 -0.25071,-0.0962 -0.19728,0.1338 0.16861,0.72583 0.2946,0.47667 0.69126,1.16294 0.88146,1.52505 0.19021,0.36211 0.61975,1.04074 0.95454,1.50806 0.49877,0.69623 0.59434,1.12563 0.52917,2.37753 l -0.0795,1.52784 -1.05833,-0.0853 c -1.23871,-0.0999 -3.61909,-0.74844 -4.78996,-1.30514 -0.64559,-0.30695 -0.91725,-0.69512 -1.27029,-1.81511 -0.247,-0.78355 -0.56206,-1.42465 -0.70015,-1.42465 -0.34256,0 -0.31835,0.16075 0.16505,1.09553 0.38471,0.74395 0.38059,0.84392 -0.0546,1.32477 -0.58279,0.64397 -1.3454,0.49185 -2.94446,-0.58734 -1.41992,-0.95829 -1.67051,-0.98264 -0.83664,-0.0813 0.72728,0.78614 2.62657,1.68791 3.55505,1.68791 0.82138,0 5.60314,1.60076 6.61138,2.21326 1.13479,0.68937 2.27097,2.32551 4.00234,5.76354 0.83187,1.65187 1.73017,3.28735 1.99622,3.6344 0.26606,0.34705 0.48374,0.837 0.48374,1.0888 0,0.25179 0.26547,0.7953 0.58994,1.20779 0.56222,0.71475 0.59566,1.03649 0.71172,6.8487 0.067,3.35429 0.12893,7.14086 0.13766,8.4146 0.0318,4.63349 0.37899,0.92643 0.67416,-7.19776 z m 0.53235,-10.03469 c 0,-0.33351 -0.77667,-0.93141 -0.96512,-0.74297 -0.27094,0.27095 0.13342,0.97516 0.55995,0.97516 0.22284,0 0.40517,-0.10448 0.40517,-0.23219 z m 1.05834,-0.87146 c 0,-0.17044 -0.17385,-0.50199 -0.38632,-0.73677 -0.2866,-0.31669 -0.43319,-1.52315 -0.56788,-4.67358 l -0.18156,-4.24669 1.00186,-1.10894 c 1.12616,-1.24653 1.06103,-1.83981 -0.0818,-0.74494 -0.40663,0.38958 -0.8221,0.70832 -0.92328,0.70832 -0.10118,0 -0.18396,-0.59531 -0.18396,-1.32292 0,-1.14228 -0.0716,-1.32291 -0.52413,-1.32291 -0.35322,0 -0.58083,0.23725 -0.69804,0.7276 -0.25556,1.06921 -0.34578,1.15356 -0.91055,0.8513 -0.72278,-0.38681 -0.63725,-0.0177 0.19783,0.854 0.64724,0.67557 0.72872,0.99693 0.90931,3.58635 0.1091,1.56436 0.20589,3.76702 0.21509,4.89481 0.0149,1.82361 0.0717,2.05052 0.51351,2.05052 0.27322,0 0.64499,0.17859 0.82615,0.39688 0.3934,0.47402 0.79375,0.51789 0.79375,0.087 z m -3.32174,-4.25416 c -0.31542,-5.28886 -0.32484,-5.34224 -1.21739,-6.89619 -0.91726,-1.59699 -1.54629,-1.93773 -1.54629,-0.83762 0,0.3667 -0.29765,1.13824 -0.66146,1.71454 -0.83864,1.3285 -0.83018,1.52345 0.12748,2.93674 0.43391,0.64037 0.7911,1.2762 0.79375,1.41298 0.008,0.40575 2.16236,3.85236 2.40814,3.85236 0.12427,0 0.16736,-0.98227 0.0958,-2.18281 z m 4.66203,-0.21661 c 0.51008,-1.23616 0.63376,-1.83502 0.45218,-2.18929 -0.13748,-0.26821 -0.17692,-0.77869 -0.0876,-1.13439 0.188,-0.74908 -0.28445,-2.74357 -0.6499,-2.74357 -0.13617,0 -0.43538,0.36316 -0.66491,0.80702 -0.32622,0.63084 -0.40128,1.4977 -0.34385,3.97086 0.0445,1.91613 0.17572,3.12976 0.33274,3.07742 0.14259,-0.0475 0.57522,-0.85215 0.96139,-1.78805 z m 4.75947,-4.95957 c 0.64695,-0.40943 1.91297,-1.13642 2.81338,-1.61555 1.03231,-0.54931 1.90197,-1.25336 2.35412,-1.9058 l 0.71702,-1.03467 -1.02179,-0.88327 c -1.0218,-0.88327 -1.0218,-0.88327 -1.82496,-0.39348 -0.44173,0.26938 -1.0165,0.49023 -1.27725,0.49077 -0.26075,5.3e-4 -1.42183,0.50701 -2.58018,1.12547 -1.54924,0.82717 -2.06239,1.22941 -1.94083,1.52135 0.0909,0.21828 0.40576,1.08149 0.69971,1.91823 0.29395,0.83675 0.61321,1.52136 0.70948,1.52136 0.0963,0 0.70435,-0.33499 1.3513,-0.74441 z m 20.40388,-1.28098 c 0.64948,-0.58777 0.6027,-1.16059 -0.15332,-1.87722 -0.34542,-0.32742 -0.67347,-0.59531 -0.72901,-0.59531 -0.0555,0 -0.32371,0.41358 -0.59593,0.91908 -0.49496,0.91907 -0.49496,0.91907 0.13827,1.4464 0.77553,0.64584 0.74715,0.64357 1.33999,0.10705 z m -3.46922,-0.80653 c 1.40588,-1.18297 2.06561,-3.57265 1.18751,-4.30141 -0.3124,-0.25927 -0.54084,-0.15882 -1.22086,0.53682 -1.11252,1.1381 -1.65515,2.48685 -1.44696,3.59657 0.20061,1.06934 0.38437,1.0902 1.48031,0.16802 z m -58.28264,-0.44901 c 0.73322,-0.8351 0.76853,-0.96806 0.49183,-1.85209 -0.34596,-1.10533 -0.56947,-1.16518 -1.40833,-0.37711 -0.60591,0.56922 -0.808043,1.78192 -0.45177,2.71036 0.23467,0.61152 0.48669,0.52289 1.36827,-0.48116 z m 25.37728,0.40247 c 0.25896,-0.41467 0.13511,-0.83194 -0.74605,-2.51355 -0.99496,-1.89877 -1.55494,-2.39213 -1.96397,-1.7303 -0.0972,0.15731 -0.44785,0.21798 -0.77917,0.13482 -0.46168,-0.11587 -0.63678,-0.0197 -0.74956,0.41158 -0.12109,0.46303 -0.28481,0.53524 -0.92383,0.40743 l -0.77665,-0.15533 0.63919,1.28268 c 0.5668,1.13744 0.79533,1.33359 2.0181,1.73227 0.75841,0.24727 1.55751,0.55352 1.7758,0.68055 0.63876,0.37174 1.17319,0.28297 1.50614,-0.25015 z m -28.55979,0.0659 c 0.327422,-0.0877 0.595313,-0.33813 0.595313,-0.55641 0,-0.28246 -0.17163,-0.35088 -0.595313,-0.23734 -0.327422,0.0878 -0.744141,0.16116 -0.926042,0.16315 -0.181901,0.002 -0.330729,0.18221 -0.330729,0.40049 0,0.42589 0.312629,0.48313 1.256771,0.23011 z m 67.4026,-0.0978 c 0.0899,-0.14552 -0.0887,-0.26458 -0.39687,-0.26458 -0.30822,0 -0.48681,0.11906 -0.39688,0.26458 0.0899,0.14552 0.26853,0.26458 0.39688,0.26458 0.12834,0 0.30694,-0.11906 0.39687,-0.26458 z m 6.44031,-0.80554 c 0.59172,-0.36076 0.83232,-0.67381 0.7276,-0.9467 -0.0861,-0.22424 -0.15645,-0.56253 -0.15645,-0.75176 0,-0.28153 -0.18032,-0.28238 -0.99219,-0.005 -0.87136,0.29808 -1.00219,0.45538 -1.0743,1.29173 -0.0965,1.1193 0.20025,1.20094 1.49534,0.41137 z m -66.37248,-1.82472 c -0.005,-1.35733 -0.14395,-1.65744 -0.97237,-2.0935 -0.48741,-0.25657 -0.69359,-0.20698 -1.29684,0.31192 -0.91725,0.78899 -0.74605,1.63947 0.60122,2.98675 0.90774,0.90773 0.98763,0.93702 1.31915,0.48364 0.19409,-0.26543 0.35107,-1.0254 0.34884,-1.68881 z m 2.12072,1.86737 c 0,-0.24388 -1.08998,-0.61658 -1.27172,-0.43484 -0.0573,0.0573 -0.0257,0.23117 0.0702,0.38638 0.20986,0.33956 1.20151,0.37955 1.20151,0.0485 z m 68.26611,-0.097 c 0.002,-0.1819 0.0753,-0.59817 0.16289,-0.92504 0.12507,-0.46669 -0.10868,-0.85847 -1.08862,-1.82454 -0.97504,-0.96125 -1.29902,-1.14948 -1.48175,-0.8609 -0.62535,0.9876 -0.0597,2.67914 1.1405,3.41093 1.00836,0.6148 1.262,0.65475 1.26698,0.19955 z m -56.62445,-0.1135 c 0,-0.0988 -0.14298,-0.57506 -0.31773,-1.05834 -0.25373,-0.70166 -0.46258,-0.87868 -1.0367,-0.87868 -0.88163,0 -1.55598,0.24161 -1.55598,0.55748 0,0.12995 0.15546,0.23627 0.34547,0.23627 0.19001,0 0.74892,0.29766 1.24203,0.66146 0.89867,0.66302 1.32291,0.81753 1.32291,0.48181 z m 17.4625,-0.6465 c 0,-0.1277 -0.17859,-0.23218 -0.39687,-0.23218 -0.22812,0 -0.39688,0.23878 -0.39688,0.56156 0,0.46917 0.0653,0.50737 0.39688,0.23219 0.21828,-0.18116 0.39687,-0.43386 0.39687,-0.56157 z m 17.13177,0.65939 c 1.01382,-0.2717 0.6553,-0.6672 -0.52459,-0.5787 -0.85069,0.0638 -1.12101,-0.0105 -1.12448,-0.30925 -0.007,-0.57856 -0.89253,-0.64927 -1.47947,-0.1181 -0.76617,0.69337 -0.63156,0.86961 0.74729,0.97833 0.69123,0.0545 1.37583,0.11893 1.52136,0.14318 0.14552,0.0242 0.53247,-0.0277 0.85989,-0.11546 z m 3.19043,-0.11767 c -0.0521,-0.15643 -0.20791,-0.28442 -0.34616,-0.28442 -0.13824,0 -0.29402,0.12799 -0.34616,0.28442 -0.0522,0.15644 0.10363,0.28443 0.34616,0.28443 0.24254,0 0.39831,-0.12799 0.34616,-0.28443 z m 8.38509,-0.50932 c 0.0899,-0.14552 0.45415,-0.26458 0.80937,-0.26458 0.35521,0 0.64584,-0.0848 0.64584,-0.18843 0,-0.33861 -2.21779,-2.45741 -2.57222,-2.45741 -0.18996,0 -0.5627,-0.13572 -0.82831,-0.30159 -0.30368,-0.18966 -0.64087,-0.21321 -0.90846,-0.0635 -0.38551,0.21574 -0.37572,0.3494 0.1042,1.42132 0.29134,0.65075 0.72022,1.39368 0.95305,1.65095 0.45943,0.50766 1.5333,0.62912 1.79653,0.2032 z m 12.00721,-0.28395 c -0.40132,-0.24803 -0.83457,-0.0469 -0.62597,0.29068 0.0798,0.12911 0.32985,0.16384 0.55567,0.0772 0.32072,-0.12307 0.33611,-0.20358 0.0703,-0.36786 z m -37.25741,-0.35164 c 0.41544,-0.34957 1.3256,-0.84488 2.02257,-1.10068 1.38373,-0.50787 2.35693,-1.18825 1.65464,-1.15679 -0.59308,0.0266 -4.56802,2.20568 -4.68979,2.571 -0.16444,0.49332 0.1807,0.38645 1.01258,-0.31353 z m -41.966412,0.0639 c 0.793752,-0.36165 0.89702,-1.01586 0.160356,-1.01586 -0.282453,0 -0.587136,-0.11906 -0.677073,-0.26458 -0.318605,-0.51552 -1.885521,-0.28459 -2.607198,0.38424 -0.385052,0.35685 -0.700094,0.77357 -0.700094,0.92604 0,0.37928 2.977073,0.35605 3.824009,-0.0298 z m 9.968822,-0.82656 c -0.26638,-0.4784 -0.72937,-0.88834 -1.05784,-0.93662 -0.51742,-0.0761 -0.56398,-5.3e-4 -0.40769,0.66146 0.21297,0.90205 0.3485,1.05988 1.03416,1.20425 0.84447,0.17782 0.93688,-0.0212 0.43137,-0.92909 z m 5.25717,0.60445 c 0,-0.14552 -0.17157,-0.26458 -0.38126,-0.26458 -0.20969,0 -0.45485,0.11906 -0.54478,0.26458 -0.0899,0.14552 0.0816,0.26458 0.38126,0.26458 0.29963,0 0.54478,-0.11906 0.54478,-0.26458 z m 17.72708,0.0156 c 0,-0.31217 -0.51603,-0.64611 -0.70555,-0.45659 -0.18953,0.18953 0.14441,0.70556 0.45658,0.70556 0.13694,0 0.24897,-0.11203 0.24897,-0.24896 z m 26.40062,-0.7146 c 0.81486,-0.51638 0.57981,-0.77611 -1.16012,-1.28192 -1.17354,-0.34115 -1.55224,-0.36203 -1.86463,-0.10276 -0.33695,0.27963 -1.15087,1.61249 -1.15087,1.88463 0,0.2648 3.66041,-0.17346 4.17562,-0.49995 z m -42.15578,0.12735 c 0.8468,-0.38582 0.86862,-0.75128 0.0448,-0.75128 -0.65675,0 -1.34545,0.58313 -1.04434,0.88424 0.22478,0.22478 0.21004,0.22674 0.99949,-0.13296 z m 13.37391,-0.7669 c 0,-0.60576 -0.11907,-0.77814 -0.53747,-0.77814 -0.29561,0 -0.606,-0.17859 -0.68976,-0.39687 -0.18153,-0.47306 -0.62485,-0.53008 -0.62485,-0.0804 0,0.50265 1.36401,2.33516 1.62027,2.17678 0.12749,-0.0788 0.23181,-0.49343 0.23181,-0.9214 z m 4.24546,0.52212 c 0.38883,-0.72652 0.18328,-0.88862 -0.58167,-0.45869 -0.3416,0.19198 -0.66277,0.3709 -0.71372,0.3976 -0.051,0.0267 -0.0142,0.17553 0.0818,0.33073 0.28378,0.45916 0.89644,0.32305 1.21363,-0.26964 z m 7.19067,-0.34818 c 1.02006,-0.5728 1.13569,-0.7397 1.17332,-1.69361 0.0368,-0.93254 -0.0366,-1.07316 -0.6177,-1.18425 -0.53879,-0.103 -0.63613,-0.037 -0.53207,0.36097 0.0701,0.26786 -0.0476,0.63226 -0.26154,0.80978 -0.5424,0.45015 -1.47662,2.34253 -1.15645,2.34253 0.14457,0 0.77207,-0.28594 1.39444,-0.63542 z m -3.92702,-0.25926 c 0.22776,-0.90745 -0.28382,-2.14726 -1.05668,-2.56088 -0.5667,-0.30329 -0.70433,-0.29909 -0.92298,0.0282 -0.39534,0.59177 -0.0551,2.18291 0.57723,2.69975 0.77477,0.63322 1.21473,0.5808 1.40243,-0.16708 z m 16.17821,-0.15579 c -0.49801,-0.55029 -0.93315,-0.49357 -0.93315,0.12164 0,0.19957 0.26789,0.40565 0.59531,0.45794 0.82479,0.13174 0.88621,0.0264 0.33784,-0.57958 z m -38.89539,-0.0102 c 0.99486,-0.42645 1.201,-0.62258 1.04285,-0.99219 -0.10841,-0.25337 -0.25467,-0.79727 -0.32501,-1.20867 -0.11224,-0.65643 -0.21293,-0.72702 -0.82248,-0.57659 -0.38202,0.0943 -0.77653,0.25228 -0.8767,0.35112 -0.22771,0.22471 -0.60016,2.95785 -0.40307,2.95785 0.0794,0 0.70243,-0.23918 1.38441,-0.53152 z m 58.11588,0.0936 c 0.85456,-0.77337 0.57806,-1.08673 -1.13424,-1.28546 -1.50067,-0.17417 -1.66626,-0.13965 -2.28158,0.47567 -0.36491,0.36491 -0.58224,0.79492 -0.48295,0.95557 0.29546,0.47807 3.33501,0.36442 3.89877,-0.14578 z m 6.43698,0.1733 c 0.0899,-0.14552 0.48392,-0.26659 0.87551,-0.26904 0.71199,-0.004 0.71199,-0.004 -0.16166,-0.56386 -0.7269,-0.46543 -1.05051,-0.52024 -1.92663,-0.32627 -1.02958,0.22795 -1.04364,0.24637 -0.63271,0.82844 0.43034,0.60956 1.54924,0.81008 1.84549,0.33073 z m -68.1302,-0.36448 c 0,-0.20046 -0.18364,-0.51688 -0.40809,-0.70316 -0.50574,-0.41972 -1.00656,-0.008 -0.76291,0.62652 0.20349,0.53029 1.171,0.59361 1.171,0.0766 z m 39.37095,-0.5953 c 0.0822,-0.84184 -0.33666,-1.1434 -1.60168,-1.15327 -0.66944,-0.005 -0.58661,0.99828 0.13229,1.60271 0.8313,0.69895 1.3735,0.5331 1.46939,-0.44944 z m -54.253643,0.23218 c 0.06459,-0.19399 -0.117782,-0.33073 -0.441096,-0.33073 -0.324997,0 -0.551215,0.17084 -0.551215,0.41627 0,0.48628 0.825617,0.4151 0.992311,-0.0855 z m 6.340503,-0.29972 c 0.65778,-0.23534 1.15389,-0.54695 1.10246,-0.69247 -0.0514,-0.14552 -0.78517,-0.49136 -1.63053,-0.76852 -1.537019,-0.50395 -1.537019,-0.50395 -2.715673,0.0847 -0.64826,0.32376 -1.178654,0.63554 -1.178654,0.69284 0,0.0573 0.43934,0.40274 0.976311,0.76762 1.037593,0.70506 1.254974,0.69975 3.446086,-0.0842 z m 16.54369,-1.06418 c -0.0116,-1.35419 -0.4766,-2.36464 -1.25044,-2.71723 -0.36733,-0.16737 -0.71915,-0.25304 -0.78181,-0.19039 -0.0627,0.0627 -0.19615,0.73381 -0.29665,1.49146 -0.17729,1.33642 -0.15334,1.40693 0.80267,2.36293 0.90925,0.90925 1.00662,0.9475 1.2599,0.49493 0.15096,-0.26977 0.27082,-0.91853 0.26633,-1.4417 z m 2.05266,1.45835 c 0,-0.37174 -0.76088,-0.81083 -0.9966,-0.57511 -0.0699,0.0699 -0.0566,0.31084 0.0296,0.53539 0.19521,0.5087 0.96703,0.5404 0.96703,0.0397 z m 17.99167,0.10399 c 0,-0.14552 -0.1786,-0.26459 -0.39688,-0.26459 -0.21828,0 -0.39687,0.11907 -0.39687,0.26459 0,0.14552 0.17859,0.26458 0.39687,0.26458 0.21828,0 0.39688,-0.11906 0.39688,-0.26458 z m -6.87917,-0.52053 c 0,-0.6163 -0.63663,-1.86072 -0.95192,-1.86072 -0.26156,0 -0.37099,0.34038 -0.37099,1.15393 0,1.0882 0.0377,1.14673 0.66145,1.02749 0.36381,-0.0695 0.66146,-0.21386 0.66146,-0.3207 z m 22.76751,-0.28656 c 0.5425,-0.5425 0.5425,-0.5425 -0.0407,-1.48615 l -0.58321,-0.94365 -0.47653,0.97969 c -0.38431,0.7901 -0.41532,1.07769 -0.16023,1.48615 0.40024,0.64089 0.58914,0.63549 1.26067,-0.036 z m 13.21582,0.27792 c 0,-0.14552 -0.17859,-0.26458 -0.39687,-0.26458 -0.21828,0 -0.39688,0.11906 -0.39688,0.26458 0,0.14552 0.1786,0.26458 0.39688,0.26458 0.21828,0 0.39687,-0.11906 0.39687,-0.26458 z m -20.78236,-0.82706 c 0.38276,-0.45488 0.63154,-0.9609 0.55285,-1.12448 -0.0787,-0.16358 -0.21656,-0.50578 -0.30638,-0.76044 -0.21706,-0.61535 -0.42436,-0.58455 -1.13149,0.16815 -0.48296,0.51409 -0.55968,0.80858 -0.41355,1.5875 0.0987,0.52598 0.27464,0.95633 0.39103,0.95633 0.11639,0 0.52478,-0.37218 0.90754,-0.82706 z m 15.38432,0.6044 c -0.0757,-0.12246 0.27447,-0.62207 0.77813,-1.11023 0.8539,-0.82763 0.91575,-1.00024 0.91575,-2.55547 0,-1.04178 -0.10982,-1.66789 -0.29254,-1.66789 -0.53402,0 -1.94994,1.38394 -2.39347,2.33942 -0.41777,0.89998 -0.41194,0.99137 0.13229,2.0719 0.31314,0.62172 0.66567,1.13367 0.7834,1.13766 0.11772,0.004 0.15212,-0.0929 0.0764,-0.21539 z m -53.21683,-0.63724 0.68129,-0.59531 -0.81224,-0.8599 c -1.01226,-1.07164 -1.78917,-1.08969 -2.77147,-0.0644 -0.82125,0.85721 -0.76862,1.02577 0.53084,1.69989 1.07646,0.55844 1.56901,0.521 2.37158,-0.18028 z m 14.95332,0.19205 c -0.18408,-0.2218 -0.38917,-0.34879 -0.45577,-0.28219 -0.18348,0.18349 0.18932,0.68546 0.50909,0.68546 0.17544,0 0.15537,-0.15182 -0.0533,-0.40327 z m 9.62145,-0.32434 c 0.62643,-1.23417 0.77476,-3.08546 0.3321,-4.14489 -0.21793,-0.52158 -0.51864,-0.94834 -0.66823,-0.94834 -0.60907,0 -1.2014,1.43493 -1.2014,2.91042 0,0.97737 0.16027,1.73656 0.46471,2.20118 0.57585,0.87886 0.61777,0.87814 1.07282,-0.0184 z m 26.63177,0.15308 c 0,-0.71037 -2.18697,-2.86506 -2.90798,-2.86506 -0.2846,0 -1.0538,-0.26058 -1.70935,-0.57907 -0.65554,-0.31848 -1.25224,-0.51872 -1.32599,-0.44497 -0.19374,0.19374 0.797,2.0513 1.50391,2.8197 0.78124,0.84919 2.48904,1.63075 3.57951,1.63812 0.70792,0.005 0.8599,-0.0957 0.8599,-0.56872 z m -37.57083,0.16451 c 0,-0.08 -0.17729,-0.48827 -0.39397,-0.90729 -0.40538,-0.78391 -0.78205,-0.97082 -2.07164,-1.02798 -0.62699,-0.0278 -0.73237,0.0605 -0.66146,0.55435 0.0603,0.41994 0.42381,0.71715 1.27499,1.04249 1.24059,0.47418 1.85208,0.58592 1.85208,0.33843 z m 6.61458,-0.53164 c 0,-0.43658 -0.41816,-0.51034 -0.66146,-0.11668 -0.21577,0.34913 0.1006,0.84457 0.41516,0.65016 0.13547,-0.0837 0.2463,-0.32379 0.2463,-0.53348 z m 9.87632,0.34623 c 0.41482,-0.30333 0.41778,-0.38036 0.0356,-0.92604 -0.54578,-0.77922 -1.0069,-0.75275 -1.45443,0.0835 -0.31131,0.58167 -0.30824,0.71343 0.0214,0.92198 0.52297,0.33083 0.86279,0.31152 1.39743,-0.0794 z m 5.33722,-0.33062 c 0,-0.3832 -0.14596,-0.50398 -0.52916,-0.43788 -1.29255,0.22298 -1.45362,1.19651 -0.17345,1.04836 0.49912,-0.0578 0.70261,-0.23457 0.70261,-0.61048 z m 7.54063,0.1323 c 0,-0.29105 -0.10792,-0.52917 -0.23982,-0.52917 -0.13189,0 -0.17754,0.23812 -0.10143,0.52917 0.0761,0.29104 0.18403,0.52916 0.23981,0.52916 0.0558,0 0.10144,-0.23812 0.10144,-0.52916 z m 14.52593,0.14581 c 0.92647,-0.4791 1.76164,-1.69116 1.40857,-2.04423 -0.1399,-0.13989 -0.7127,-0.21646 -1.2729,-0.17015 -0.82187,0.0679 -1.13779,0.26173 -1.63616,1.00369 -0.58007,0.86359 -0.58958,0.94001 -0.15638,1.25677 0.58462,0.42748 0.74999,0.42289 1.65687,-0.0461 z m 10.38478,-0.43157 c 0.67678,-0.1518 1.4383,-0.5056 1.69227,-0.78623 0.44558,-0.49236 0.42825,-0.52424 -0.49441,-0.90975 -1.8309,-0.765 -2.77058,-0.47052 -3.59723,1.12731 -0.39477,0.76306 -0.12554,1.21144 0.60341,1.00488 0.311,-0.0881 1.11918,-0.28442 1.79596,-0.43621 z m -81.002377,-0.11112 c 0,-0.21828 -0.119063,-0.39687 -0.264584,-0.39687 -0.145521,0 -0.264583,0.17859 -0.264583,0.39687 0,0.21828 0.119062,0.39688 0.264583,0.39688 0.145521,0 0.264584,-0.1786 0.264584,-0.39688 z m 15.874997,-0.39687 c 0,-0.29399 -0.17639,-0.52917 -0.39687,-0.52917 -0.22049,0 -0.39688,0.23518 -0.39688,0.52917 0,0.29398 0.17639,0.52916 0.39688,0.52916 0.22048,0 0.39687,-0.23518 0.39687,-0.52916 z m 16.00729,0 c 0,-0.57381 -1.03223,-0.49477 -1.14439,0.0876 -0.0724,0.37572 0.0456,0.46483 0.52554,0.39687 0.34037,-0.0482 0.61885,-0.26622 0.61885,-0.4845 z m 42.59792,0 c -0.26339,-0.29105 -0.71702,-0.52917 -1.00806,-0.52917 -0.5124,0 -0.514,0.0168 -0.0503,0.52917 0.26339,0.29104 0.71702,0.52916 1.00806,0.52916 0.5124,0 0.514,-0.0168 0.0503,-0.52916 z m 3.0611,-0.48621 c 0.25245,-0.84262 0.23059,-1.15774 -0.12847,-1.85209 -0.23797,-0.46019 -0.53897,-0.8367 -0.66889,-0.8367 -0.12991,0 -0.49375,-0.41672 -0.80853,-0.92605 -0.31478,-0.50932 -0.6722,-0.92604 -0.79427,-0.92604 -0.12207,0 -0.30584,0.78341 -0.40838,1.7409 -0.18644,1.74091 -0.18644,1.74091 0.82639,2.77813 0.55705,0.57047 1.16247,1.03722 1.34538,1.03722 0.1829,0 0.46945,-0.45692 0.63677,-1.01537 z m -75.560312,0.22709 c 0.262332,-0.42446 -0.371845,-1.32838 -0.931971,-1.32838 -0.562639,0 -0.594784,0.0903 -0.353095,0.99218 0.162152,0.60507 0.985733,0.82053 1.285066,0.3362 z m 7.000922,-0.73307 c 0.15155,-0.5457 0.27577,-1.23031 0.27603,-1.52136 6.4e-4,-0.69563 -0.89352,-2.14345 -1.5362,-2.4874 -0.46168,-0.24709 -0.5363,-0.13461 -0.80791,1.21786 -0.42373,2.10988 -0.38597,2.40507 0.40084,3.13426 0.9643,0.89369 1.3455,0.81518 1.66724,-0.34336 z m 45.78683,-0.19234 c 0,-0.96862 -0.11946,-1.2628 -0.65542,-1.61398 -0.36049,-0.2362 -1.0451,-0.4473 -1.52136,-0.46912 -0.76774,-0.0352 -0.87575,0.0463 -0.95257,0.71821 -0.10541,0.92201 1.00062,2.20282 2.04086,2.36338 0.38039,0.0587 0.78091,0.12459 0.89005,0.14639 0.10914,0.0218 0.19844,-0.49339 0.19844,-1.14488 z m -26.72291,0.56408 c 0,-0.19573 -0.24094,-0.57392 -0.53542,-0.84042 -0.40424,-0.36583 -0.61015,-0.40982 -0.84042,-0.17955 -0.23027,0.23027 -0.18628,0.43617 0.17955,0.84041 0.55274,0.61078 1.19629,0.70736 1.19629,0.17956 z m 2.05052,0.0251 c -0.0606,-0.1819 -0.269,-0.33073 -0.46302,-0.33073 -0.19403,0 -0.40239,0.14883 -0.46303,0.33073 -0.0656,0.19674 0.12201,0.33073 0.46303,0.33073 0.34101,0 0.5286,-0.13399 0.46302,-0.33073 z m -24.72286,-1.18554 c -0.14155,-1.05534 -0.21231,-1.13037 -1.455365,-1.54325 -0.718619,-0.23869 -1.37269,-0.36787 -1.453491,-0.28707 -0.0808,0.0808 -0.06667,0.57466 0.03141,1.09747 0.119468,0.63682 0.370101,1.02311 0.759365,1.1704 0.781753,0.29579 2.156701,0.72775 2.217701,0.69672 0.027,-0.0138 -0.0178,-0.52418 -0.0996,-1.13427 z m 8.97133,0.40943 c -0.40332,-0.40332 -0.649,-0.15765 -0.4253,0.4253 0.12306,0.32069 0.25592,0.37026 0.45602,0.17016 0.2001,-0.2001 0.19115,-0.37359 -0.0307,-0.59546 z m 26.93017,-0.22262 c 0,-0.62397 -0.15579,-0.85953 -0.70708,-1.06913 -1.25335,-0.47653 -1.49596,-0.10229 -0.99749,1.5387 0.0553,0.1819 0.46139,0.33073 0.90252,0.33073 0.71624,0 0.80205,-0.0856 0.80205,-0.8003 z m 3.175,0.53571 c 0,-0.14552 -0.11203,-0.26458 -0.24897,-0.26458 -0.13693,0 -0.32255,0.11906 -0.41249,0.26458 -0.0899,0.14552 0.0221,0.26459 0.24897,0.26459 0.22687,0 0.41249,-0.11907 0.41249,-0.26459 z m 4.17773,-0.23883 c 1.47782,-0.75787 2.78715,-2.42386 2.19337,-2.79084 -0.29253,-0.18079 -2.78721,0.57005 -3.93121,1.1832 -1.02187,0.54769 -1.75993,1.44831 -1.51356,1.84694 0.27142,0.43916 2.20607,0.29678 3.2514,-0.2393 z m 7.9931,0.23883 c 0,-0.14552 -0.17859,-0.26458 -0.39687,-0.26458 -0.21828,0 -0.39688,0.11906 -0.39688,0.26458 0,0.14552 0.1786,0.26459 0.39688,0.26459 0.21828,0 0.39687,-0.11907 0.39687,-0.26459 z m -21.69583,-0.7937 c 0,-0.70555 -0.0882,-0.79375 -0.79375,-0.79375 -0.43656,0 -0.88305,-0.004 -0.99219,-0.008 -0.10914,-0.005 -0.23522,0.28394 -0.28018,0.64102 -0.063,0.50049 0.0582,0.67597 0.52917,0.76594 1.40833,0.26904 1.53695,0.21842 1.53695,-0.60498 z m -16.14193,0.18789 c 1.64929,-0.83444 0.18532,-2.11841 -2.011,-1.76375 -2.48133,0.40068 -2.74114,0.76572 -1.15168,1.61816 1.05371,0.56512 2.22676,0.61912 3.16268,0.14559 z m 45.90022,-0.63869 c 0.1745,-0.9302 0.11411,-1.04441 -1.18917,-2.24896 -0.75516,-0.69794 -1.47948,-1.26899 -1.60961,-1.26899 -0.13013,0 -0.23659,0.59382 -0.23659,1.3196 0,1.24707 0.0569,1.35555 1.03609,1.97366 0.56985,0.35973 1.11266,0.77794 1.20624,0.92935 0.32424,0.52464 0.61006,0.27068 0.79304,-0.70466 z m -35.8437,0.33413 c 0,-0.39719 -0.47502,-0.81942 -0.68529,-0.60915 -0.18455,0.18454 0.1808,0.99041 0.44901,0.99041 0.12995,0 0.23628,-0.17157 0.23628,-0.38126 z m 3.175,-0.22729 c 0,-1.20412 -1.08443,-1.65437 -1.6117,-0.66917 -0.25473,0.47597 -0.22499,0.63461 0.17356,0.92604 0.76734,0.56109 1.43814,0.44128 1.43814,-0.25687 z m 41.34039,-0.38872 c -0.18626,-1.26906 -1.6529,-1.79851 -1.6529,-0.59669 0,0.47837 1.29192,1.64434 1.60652,1.44991 0.0865,-0.0535 0.10741,-0.43743 0.0464,-0.85322 z m -47.77376,0.45048 c 0.91318,-0.346 1.96948,-1.30076 1.77939,-1.60834 -0.0769,-0.12437 -0.58,-0.22612 -1.11807,-0.22612 -0.53808,0 -1.37863,-0.11481 -1.8679,-0.25513 -0.66651,-0.19115 -1.07652,-0.15845 -1.63512,0.13041 -1.08377,0.56044 -1.20483,0.92661 -0.48642,1.47121 0.55587,0.42139 1.02881,0.57361 2.26978,0.73053 0.17243,0.0218 0.64868,-0.0873 1.05834,-0.24256 z m 17.81045,-0.12298 c 0,-0.22285 -0.1786,-0.47371 -0.39688,-0.55747 -0.60311,-0.23144 -1.20291,0.0936 -1.02556,0.55576 0.2066,0.5384 1.42244,0.53987 1.42244,0.002 z m 26.67302,-0.13429 c 0.99131,-0.92354 0.63384,-1.62161 -0.58992,-1.15201 -0.42714,0.16391 -0.61122,1.69148 -0.20383,1.69148 0.11808,0 0.47527,-0.24276 0.79375,-0.53947 z m -58.67021,0.001 c 0.37738,-0.20203 0.51177,-0.55695 0.51177,-1.35166 0,-1.04286 -0.0235,-1.0719 -0.7276,-0.89801 -0.9889,0.24422 -1.07486,0.38598 -0.92866,1.53131 0.13372,1.04753 0.31579,1.1618 1.14449,0.7183 z m 67.9276,-0.0437 c 0.17463,-0.17463 0.3175,-0.66476 0.3175,-1.08919 0,-0.67116 -0.0776,-0.75091 -0.59531,-0.61216 -0.32742,0.0878 -0.74221,0.16117 -0.92176,0.16315 -0.2373,0.003 -0.20585,0.25651 0.11515,0.92966 0.4826,1.01202 0.60965,1.08331 1.08442,0.60854 z m -22.05917,-0.78148 c 0.51619,-1.03473 0.54201,-0.92876 -0.27631,-1.13415 -0.78255,-0.1964 -1.68868,0.43232 -1.68868,1.17171 0,1.14079 1.39041,1.11421 1.96499,-0.0376 z m 24.22876,0.0407 c 0,-0.14553 -0.18562,-0.26459 -0.41249,-0.26459 -0.22687,0 -0.33891,0.11906 -0.24897,0.26459 0.0899,0.14552 0.27556,0.26458 0.41249,0.26458 0.13693,0 0.24897,-0.11906 0.24897,-0.26458 z m -60.43689,-1.20635 c 0.23085,-1.23052 -0.49343,-3.80581 -1.24384,-4.42267 -0.65005,-0.53435 -0.72272,-0.50533 -0.92053,0.36769 -0.55135,2.43333 -0.48823,2.86855 0.57376,3.95612 0.55888,0.57234 1.10565,1.04062 1.21504,1.04062 0.10939,0 0.2784,-0.42379 0.37557,-0.94176 z m 9.10772,0.40429 c 0,-0.34103 -0.75381,-0.64899 -0.99593,-0.40687 -0.0986,0.0986 -0.004,0.29013 0.20984,0.42551 0.51217,0.32391 0.78609,0.31741 0.78609,-0.0186 z m 5.40232,0.11229 c 1.28113,-0.49161 -0.77655,-1.76156 -3.32053,-2.04936 -1.12769,-0.12757 -1.56635,-0.0767 -1.80364,0.20925 -0.25182,0.30341 -0.18459,0.46231 0.34142,0.80697 1.18832,0.77862 3.91251,1.36708 4.78275,1.03314 z m -29.4794,-0.50916 c 0,-0.42245 -0.70316,-0.83194 -0.97014,-0.56496 -0.0845,0.0845 -0.0831,0.33729 0.003,0.56185 0.20291,0.52877 0.96703,0.53123 0.96703,0.003 z m 8.73125,0 c 0,-0.55281 -0.79205,-0.8173 -1.08099,-0.36098 -0.37693,0.59528 -0.28337,0.76616 0.41953,0.76616 0.4176,0 0.66146,-0.14938 0.66146,-0.40518 z m 27.18594,0.23841 c 0.35721,-0.0957 0.59531,-0.36424 0.59531,-0.67134 0,-0.74005 -1.65946,-1.37615 -3.02895,-1.16105 -1.15064,0.18072 -2.5273,0.70537 -2.5273,0.96315 0,0.13478 1.23502,0.45961 3.30729,0.86986 0.84832,0.16794 1.0249,0.16788 1.65365,-5.3e-4 z m 18.87488,-0.82542 c 0.15731,-0.77552 0.11347,-0.8599 -0.44682,-0.8599 -0.41658,0 -0.75076,0.25045 -1.01436,0.76021 -0.45662,0.883 -0.2977,1.14699 0.6248,1.03788 0.50963,-0.0603 0.70208,-0.27616 0.83638,-0.93819 z m -13.12476,0.46475 0.69135,-0.26285 -0.74027,-0.93639 c -0.65144,-0.82402 -0.86479,-0.92741 -1.77804,-0.86162 -1.29698,0.0934 -1.42283,0.44408 -0.53715,1.49665 0.73488,0.87337 1.23626,0.99302 2.36411,0.56421 z m 7.92435,-0.88888 c 0.51906,-0.63345 0.94375,-1.28829 0.94375,-1.4552 0,-0.7864 -3.28058,0.002 -3.8921,0.93493 -0.68215,1.0411 -0.33548,1.37563 1.69158,1.63236 0.17216,0.0218 0.7377,-0.47864 1.25677,-1.11209 z m -38.21458,-0.40746 c 0,-1.11436 -0.27966,-1.35122 -1.59537,-1.35122 -0.73542,0 -0.75006,0.026 -0.48423,0.85989 0.15077,0.47294 0.31943,1.00873 0.37481,1.19063 0.0554,0.1819 0.46161,0.33073 0.90274,0.33073 0.75566,0 0.80205,-0.0596 0.80205,-1.03003 z m 49.45515,0.79846 0.63952,-0.17881 -0.69636,-0.45627 c -0.383,-0.25095 -0.91883,-0.45627 -1.19074,-0.45627 -0.83193,0 -0.87419,-0.31148 -0.16788,-1.2375 0.96646,-1.26709 0.69014,-2.05488 -0.64584,-1.84125 -0.61766,0.0988 -1.24406,0.0133 -1.72285,-0.23511 -0.95171,-0.49375 -0.95642,-0.49311 -0.95642,0.12955 0,0.28592 0.23301,0.64455 0.51779,0.79697 0.30524,0.16336 0.58885,0.68305 0.69093,1.26607 0.0952,0.54394 0.31609,1.10804 0.4908,1.25356 0.17471,0.14552 0.39583,0.47294 0.49139,0.7276 0.18199,0.48504 1.28474,0.58514 2.54966,0.23146 z m 6.37435,-0.1624 c -0.33047,-0.39819 -0.79617,-0.31338 -0.79617,0.145 0,0.13693 0.25271,0.24897 0.56157,0.24897 0.46732,0 0.50669,-0.0661 0.2346,-0.39397 z m 3.83404,0.12938 c -0.0899,-0.14552 -0.27556,-0.26458 -0.41249,-0.26458 -0.13693,0 -0.24897,0.11906 -0.24897,0.26458 0,0.14552 0.18562,0.26459 0.41249,0.26459 0.22687,0 0.33891,-0.11907 0.24897,-0.26459 z m -66.8602,-0.3175 c 0.47658,-0.47658 0.38228,-1.00541 -0.17927,-1.00541 -0.70386,0 -1.1673,0.61135 -0.76694,1.01171 0.39142,0.39142 0.54954,0.39037 0.94621,-0.006 z m 13.76554,-0.21166 c 0.92126,0 1.10013,-0.33209 0.87387,-1.62242 l -0.16671,-0.95075 -1.25677,0.36855 c -1.25677,0.36854 -1.25677,0.36854 -1.25677,1.56047 0,1.09644 0.041,1.16999 0.51177,0.91804 0.28148,-0.15064 0.86405,-0.27389 1.29461,-0.27389 z m 3.03571,-0.14205 c 0.47157,-0.64787 0.46908,-0.65739 -0.24263,-0.92798 -0.54077,-0.2056 -0.77274,-0.18884 -0.93543,0.0676 -0.30383,0.47887 -0.27574,0.8453 0.0931,1.2141 0.43344,0.43345 0.53649,0.39986 1.085,-0.35371 z m 31.62726,0.0384 c 0.0857,-0.44512 -0.32968,-0.94009 -0.79785,-0.95066 -0.0987,-0.002 -0.37984,0.19625 -0.62465,0.44107 -0.4171,0.4171 -0.41445,0.46754 0.0421,0.8014 0.63395,0.46355 1.26041,0.33112 1.38037,-0.29181 z m -7.36518,0.22742 c 0,-0.0774 -0.17176,-0.55186 -0.38169,-1.05428 -0.26312,-0.62976 -0.89223,-1.24348 -2.02539,-1.97588 -1.98072,-1.28021 -2.43413,-1.34947 -2.19157,-0.33478 0.24305,1.01672 0.48222,1.42868 1.24198,2.13922 0.85696,0.80145 3.35667,1.71424 3.35667,1.22572 z m -14.16864,-0.82587 c 0.31189,-1.2427 -0.32558,-2.21181 -1.91822,-2.91615 -1.54571,-0.68359 -1.94311,-0.63165 -1.43177,0.18714 0.17639,0.28245 0.32071,0.74401 0.32071,1.02569 0,0.53269 1.97166,2.40546 2.53248,2.40546 0.17632,0 0.39987,-0.31596 0.4968,-0.70214 z m -6.71504,-0.51067 c 0.42376,-0.5106 0.0926,-1.15012 -0.75869,-1.46503 -0.4801,-0.1776 -0.58263,-0.12085 -0.58263,0.32251 0,0.63854 0.45553,1.56158 0.77066,1.56158 0.12258,0 0.37938,-0.18858 0.57066,-0.41906 z m 23.00034,-1.56425 c 0,-0.30876 -0.16718,-0.79002 -0.37151,-1.06947 -0.36137,-0.4942 -0.38641,-0.49017 -0.91724,0.14787 -0.52885,0.63567 -0.76884,2.34662 -0.38324,2.73222 0.29305,0.29305 1.67199,-1.20022 1.67199,-1.81062 z m -9.93924,1.20875 c 0.40341,-0.44576 0.4169,-0.60154 0.10715,-1.23723 -0.46408,-0.95244 -0.86162,-1.05284 -1.52845,-0.386 -0.72104,0.72104 -0.69868,1.5596 0.0496,1.86037 0.83484,0.33557 0.85684,0.33177 1.37169,-0.23714 z m 19.46424,0.36029 c 0,-0.37953 -0.5795,-1.17323 -0.85661,-1.17323 -0.16985,0 -0.67167,-0.34406 -1.11516,-0.76457 -0.4435,-0.42051 -1.09185,-0.85084 -1.44078,-0.95629 -0.60101,-0.18162 -0.62519,-0.14548 -0.45896,0.6857 0.24331,1.21651 1.10435,2.0456 2.25083,2.1673 0.52757,0.056 1.10805,0.12183 1.28995,0.1463 0.18191,0.0244 0.33073,-0.0229 0.33073,-0.10521 z m -29.8929,-1.29234 c -0.19136,-0.50332 -0.40515,-0.67924 -0.69179,-0.56925 -0.22816,0.0876 -0.64067,0.15919 -0.91669,0.15919 -0.43638,0 -0.46337,0.0845 -0.20688,0.64738 0.2048,0.4495 0.54679,0.67191 1.1188,0.72761 0.98194,0.0956 1.05913,-0.0113 0.69656,-0.96493 z m 6.77568,0.74844 c 0.72359,-0.18161 1.42139,-1.32075 1.42139,-2.32037 0,-0.99221 -0.36376,-1.03633 -1.76657,-0.21426 -0.96729,0.56684 -1.29692,0.92532 -1.36201,1.4812 -0.11944,1.01997 0.13712,1.57015 0.64185,1.37646 0.23057,-0.0885 0.70998,-0.23385 1.06534,-0.32303 z m -12.95741,-0.77304 c 0.2134,-0.55611 -0.0238,-0.73313 -0.69644,-0.51966 -0.45054,0.143 -0.50092,0.25355 -0.25212,0.55333 0.40474,0.48768 0.75324,0.47532 0.94856,-0.0337 z m -9.38078,-0.43838 c -0.16978,-0.16977 -0.39652,-0.22085 -0.50387,-0.11349 -0.10735,0.10735 -0.0235,0.3013 0.18637,0.43099 0.49413,0.30539 0.71726,0.0823 0.3175,-0.3175 z m 5.16676,-0.29572 c -0.0573,-0.17205 -0.30265,-0.35132 -0.54525,-0.39836 -0.32087,-0.0622 -0.44109,0.10256 -0.44109,0.60462 0,0.61496 0.0594,0.65837 0.54524,0.39836 0.29988,-0.1605 0.49838,-0.43257 0.4411,-0.60462 z m 23.35532,0.22139 c 0,-0.48272 -0.17829,-0.70117 -0.67378,-0.82553 -0.87786,-0.22033 -1.06916,0.004 -0.69779,0.81937 0.41058,0.90111 1.37157,0.90543 1.37157,0.006 z m 8.73125,-0.13733 c 0,-0.29105 -0.11906,-0.52917 -0.26458,-0.52917 -0.14552,0 -0.26459,0.23812 -0.26459,0.52917 0,0.29104 0.11907,0.52916 0.26459,0.52916 0.14552,0 0.26458,-0.23812 0.26458,-0.52916 z m -3.60018,-0.41852 c 0.28754,-0.74933 0.17127,-1.20756 -0.43471,-1.71308 -0.84565,-0.70547 -1.18888,-0.63195 -1.39322,0.29843 -0.0982,0.44697 -0.1374,0.84364 -0.0872,0.88149 0.56474,0.42555 1.43663,0.95168 1.57709,0.95168 0.0976,0 0.24968,-0.18834 0.33801,-0.41852 z m -13.22825,-0.53155 c 0.19304,-0.50307 -0.82319,-2.0289 -1.25663,-1.88677 -0.58994,0.19345 -0.49929,1.43942 0.13716,1.88521 0.75404,0.52815 0.91731,0.52838 1.11947,0.002 z m -5.79344,-0.34058 c 0,-0.20053 -0.25364,-0.53301 -0.56364,-0.73884 -0.52999,-0.35191 -0.5708,-0.3254 -0.68373,0.44409 -0.10997,0.74926 -0.0624,0.81162 0.56363,0.73884 0.37606,-0.0437 0.68374,-0.24356 0.68374,-0.44409 z m 11.15394,-0.42915 c 0.0452,-0.14552 -0.0315,-0.44317 -0.1705,-0.66145 -0.30953,-0.48602 -1.14335,-0.0679 -1.28322,0.64348 -0.0701,0.35639 0.0683,0.43593 0.64105,0.36852 0.40173,-0.0473 0.76743,-0.20503 0.81267,-0.35055 z m 5.11793,-0.23773 c 0,-0.27981 -1.03669,-0.95289 -1.46766,-0.95289 -0.40573,0 -0.0157,1.02508 0.47547,1.24966 0.66661,0.30479 0.99219,0.20741 0.99219,-0.29677 z m -12.96458,0.001 c 0,-0.37597 -0.76202,-0.80969 -1.00162,-0.5701 -0.16889,0.1689 0.46209,0.93867 0.76943,0.93867 0.1277,0 0.23219,-0.16586 0.23219,-0.36857 z m 10.58333,-0.30119 c 0,-0.42246 -0.70316,-0.83194 -0.97014,-0.56496 -0.0845,0.0845 -0.0831,0.33729 0.003,0.56185 0.20291,0.52877 0.96703,0.53123 0.96703,0.003 z m -6.46652,-2.77596 c 0.0178,-3.12989 0.21673,-3.77371 1.72121,-5.57065 0.85714,-1.02376 1.447,-1.41579 3.10036,-2.06055 2.23257,-0.87063 1.97346,-1.13543 -0.3217,-0.32875 -1.72573,0.60655 -2.0021,0.42273 -2.0021,-1.33164 0,-0.68991 -0.10658,-1.32025 -0.23685,-1.40076 -0.13027,-0.0805 -0.23062,0.53754 -0.223,1.37344 0.0198,2.17109 -0.60263,3.272 -2.24643,3.97339 -0.65659,0.28016 -0.8122,0.2251 -1.71979,-0.60848 -0.54884,-0.50408 -1.10107,-0.91708 -1.22718,-0.91777 -0.12612,-6.9e-4 -0.14784,-0.26916 -0.0483,-0.59658 0.0996,-0.32742 0.27366,-0.9525 0.38689,-1.38906 0.11323,-0.43656 0.29181,-1.06164 0.39684,-1.38906 0.11386,-0.35495 0.0812,-0.59532 -0.0808,-0.59532 -0.14949,0 -0.41511,0.50602 -0.59027,1.12448 -0.48713,1.71998 -0.81283,1.96851 -2.01527,1.53779 -0.54713,-0.19599 -1.27873,-0.57752 -1.62578,-0.84785 -0.70305,-0.54763 -1.0888,-0.62686 -1.0888,-0.22363 0,0.14733 0.62508,0.68761 1.38906,1.20063 2.35225,1.57955 3.20306,2.22881 4.23334,3.23049 0.89302,0.86825 0.99219,1.10073 0.99219,2.32625 0,0.74887 0.0774,2.2778 0.1721,3.39762 0.14121,1.67051 0.24809,2.02094 0.59531,1.95202 0.35437,-0.0703 0.42577,-0.53489 0.43898,-2.85601 z m 0.61955,-7.28503 c 0.58736,-0.9955 0.76512,-3.13127 0.28531,-3.42781 -0.1485,-0.0918 -0.63389,0.13932 -1.07864,0.51355 -0.44475,0.37423 -0.92151,0.68042 -1.05946,0.68042 -0.34942,0 -0.80944,1.30202 -0.64334,1.82089 0.12073,0.37716 1.3003,1.26419 1.76853,1.32992 0.0948,0.0133 0.42219,-0.39933 0.7276,-0.91697 z m -23.36193,-2.16218 c -0.26895,-0.26895 -0.49086,0.13597 -0.27019,0.49302 0.16669,0.26972 0.22901,0.26993 0.31864,10e-4 0.0613,-0.18383 0.0395,-0.40617 -0.0484,-0.49409 z m 28.05544,0.14603 c 1.30073,-0.64962 1.4669,-1.16995 0.492,-1.54061 -0.6694,-0.2545 -0.91032,-1.13788 -0.39687,-1.4552 0.14552,-0.0899 0.26458,-0.39462 0.26458,-0.67708 0,-0.28245 -0.11906,-0.51355 -0.26458,-0.51355 -0.14552,0 -0.26459,0.22355 -0.26459,0.49677 0,0.60394 -0.41869,0.9597 -1.40793,1.19632 -0.68166,0.16305 -0.73043,0.25237 -0.56161,1.02867 0.25494,1.17227 0.59945,2.04074 0.80954,2.04074 0.0968,0 0.69506,-0.25923 1.32946,-0.57606 z m 3.00554,-0.0854 c 0.45862,-0.48817 0.51744,-0.66146 0.22454,-0.66146 -0.21828,0 -0.67651,0.29766 -1.01829,0.66146 -0.45861,0.48817 -0.51743,0.66146 -0.22453,0.66146 0.21828,0 0.67651,-0.29766 1.01828,-0.66146 z m 5.55625,0.39688 c 0,-0.14552 -0.24515,-0.26459 -0.54478,-0.26459 -0.29963,0 -0.47119,0.11907 -0.38126,0.26459 0.0899,0.14552 0.33509,0.26458 0.54478,0.26458 0.2097,0 0.38126,-0.11906 0.38126,-0.26458 z m 4.7799,-0.009 c 0.66984,-0.35849 0.65839,-1.04903 -0.0174,-1.04903 -0.29104,0 -0.52917,0.10933 -0.52917,0.24295 0,0.13362 -0.0723,0.43127 -0.1606,0.66146 -0.1871,0.48758 -0.004,0.52508 0.70716,0.14462 z m -39.76553,-0.30489 c -0.16353,-0.49059 -0.73311,-0.57196 -0.73311,-0.10473 0,0.23041 0.18851,0.41893 0.41892,0.41893 0.23041,0 0.37179,-0.14139 0.31419,-0.3142 z m 2.44189,-0.34726 c 0,-0.73136 -0.83637,-1.71979 -1.45521,-1.71979 -0.55902,0 -0.4929,0.7095 0.15031,1.6128 0.67893,0.95347 1.3049,1.0048 1.3049,0.10699 z m 14.55208,-0.15012 c 0,-0.69752 -0.0762,-0.78741 -0.54187,-0.6396 -0.29802,0.0946 -0.71322,0.0298 -0.92267,-0.14406 -0.40409,-0.33537 -1.18129,-0.17769 -1.18129,0.23966 0,0.33031 1.59678,1.30592 2.18281,1.33366 0.3451,0.0163 0.46302,-0.18477 0.46302,-0.78966 z m 16.24762,-0.0403 c 0.19359,-0.55047 0.13412,-0.93446 -0.25912,-1.67298 -0.67869,-1.27462 -0.90266,-1.37499 -1.47927,-0.66291 -0.65208,0.80528 -0.61357,1.8276 0.0973,2.58433 0.72555,0.77231 1.31337,0.68333 1.64105,-0.24844 z m 9.25541,0.43586 c 0.17781,-0.46336 -0.13457,-1.17784 -0.73159,-1.67333 -0.32057,-0.26604 -0.44389,-0.23072 -0.67008,0.19192 -0.21709,0.40564 -0.15954,0.66757 0.26533,1.20771 0.62361,0.79279 0.91062,0.86192 1.13634,0.2737 z m -32.91136,-0.63821 c 0,-0.52985 -0.61924,-1.14873 -0.88424,-0.88373 -0.21746,0.21745 -0.22876,1.26595 -0.0159,1.47878 0.28722,0.28722 0.90017,-0.11796 0.90017,-0.59505 z m 34.92499,0.32414 c 0,-0.34258 -1.02292,-0.86415 -1.18392,-0.60365 -0.0826,0.13359 0.0607,0.36566 0.31846,0.5157 0.56442,0.32859 0.86546,0.35918 0.86546,0.088 z m -7.87135,-0.77183 c 0.70821,-0.41682 -0.57696,-1.27227 -1.546,-1.02906 -0.61152,0.15348 -0.86619,0.89051 -0.45113,1.30557 0.17385,0.17385 1.55741,-0.0177 1.99713,-0.27651 z m -37.17259,-0.15171 c 0.14553,-0.1819 0.34672,-0.59862 0.4471,-0.92604 0.14933,-0.48711 0.0809,-0.59531 -0.37652,-0.59531 -0.65325,0 -1.96134,1.20604 -1.72422,1.58972 0.22968,0.37163 1.33828,0.3258 1.65364,-0.0684 z m 4.82728,-0.0745 c 0,-0.42245 -0.70316,-0.83194 -0.97014,-0.56496 -0.0845,0.0845 -0.0831,0.3373 0.003,0.56185 0.20291,0.52878 0.96703,0.53123 0.96703,0.003 z m 16.12003,-0.27983 c -0.46851,-0.56453 -0.83229,-0.44707 -0.50565,0.16325 0.15794,0.29512 0.40604,0.46312 0.55132,0.37332 0.17037,-0.10529 0.15416,-0.2958 -0.0457,-0.53657 z m -12.94503,-0.0763 c 0,-0.30735 -0.76977,-0.93833 -0.93866,-0.76943 -0.2396,0.2396 0.19412,1.00161 0.57009,1.00161 0.20271,0 0.36857,-0.10448 0.36857,-0.23218 z m 5.42396,-0.0324 c -0.0899,-0.14552 -0.46118,-0.26458 -0.82498,-0.26458 -0.3736,0 -0.5903,0.11514 -0.49794,0.26458 0.0899,0.14552 0.46118,0.26458 0.82498,0.26458 0.3736,0 0.59029,-0.11514 0.49794,-0.26458 z m 32.67604,0 c 0,-0.14552 -0.18562,-0.26458 -0.41249,-0.26458 -0.22687,0 -0.33891,0.11906 -0.24897,0.26458 0.0899,0.14552 0.27556,0.26458 0.41249,0.26458 0.13693,0 0.24897,-0.11906 0.24897,-0.26458 z m -15.29189,-0.39687 c -0.0945,-0.31902 -1.40221,-0.19167 -1.77374,0.17273 -0.17357,0.17024 0.0994,0.23067 0.79375,0.17568 0.58209,-0.0461 1.02308,-0.20289 0.97999,-0.34841 z m 10.38319,-0.0592 c 0.39211,-1.02183 -1.96165,-1.60754 -2.49033,-0.61969 -0.36556,0.68306 -0.35091,0.75222 0.18913,0.89335 1.12125,0.29301 2.12977,0.17308 2.3012,-0.27366 z m -30.43557,-1.94996 c -0.61379,-0.67823 -0.86068,-0.63545 -1.06655,0.18482 -0.13933,0.55512 -0.0245,0.80826 0.59027,1.30091 l 0.76326,0.61168 0.0847,-0.7965 c 0.0515,-0.48368 -0.0945,-0.9946 -0.37173,-1.30091 z m 4.6526,1.90923 c 0,-0.34486 -0.68337,-0.84833 -0.88194,-0.64976 -0.19857,0.19857 0.30489,0.88195 0.64975,0.88195 0.12771,0 0.23219,-0.10449 0.23219,-0.23219 z m 3.63802,-0.36661 c 0.41832,-0.32854 0.41521,-0.50746 -0.0192,-1.10151 -0.32913,-0.45011 -0.39983,-0.45271 -1.19062,-0.0438 -0.5974,0.30893 -0.84072,0.6223 -0.84072,1.0828 0,0.58816 0.0795,0.63299 0.8599,0.48514 0.47294,-0.0896 1.00872,-0.27979 1.19062,-0.42266 z m 26.06146,-0.12354 c 0.72003,-0.20703 0.54776,-0.56245 -0.39688,-0.81881 -0.86481,-0.23469 -1.78593,0.0123 -1.78593,0.47898 0,0.38007 0.88396,0.79981 1.32291,0.62816 0.21829,-0.0854 0.60524,-0.2151 0.8599,-0.28833 z m -32.08044,-1.18254 c -0.78513,-0.63577 -1.07385,-0.60018 -0.96626,0.11911 0.049,0.32742 0.37565,0.74127 0.72594,0.91967 0.54398,0.27703 0.65088,0.25965 0.73265,-0.11912 0.0527,-0.2439 -0.16888,-0.65776 -0.49233,-0.91966 z m 15.47784,1.1113 c -0.0899,-0.14552 -0.34212,-0.26459 -0.5604,-0.26459 -0.21828,0 -0.32329,0.11907 -0.23335,0.26459 0.0899,0.14552 0.34211,0.26458 0.56039,0.26458 0.21828,0 0.32329,-0.11906 0.23336,-0.26458 z m -29.8337,-0.45327 c 0.14596,-0.44336 -1.21429,-0.75145 -1.60273,-0.36301 -0.23581,0.23581 -0.21552,0.36966 0.0855,0.56423 0.50796,0.32831 1.381,0.21253 1.51721,-0.20122 z m 5.57141,0.13577 c 0.62597,-0.62598 0.3499,-1.00542 -0.73153,-1.00542 -0.76506,0 -1.1229,0.13804 -1.32194,0.50995 -0.21695,0.40537 -0.17816,0.53474 0.18913,0.63077 0.87817,0.22962 1.54803,0.18101 1.86434,-0.1353 z m 17.62406,-0.34396 c 0.22775,-0.90744 -0.0719,-1.94609 -0.65086,-2.25594 -0.82843,-0.44337 -1.04529,-0.28946 -1.04529,0.74186 0,1.74583 1.33818,2.94036 1.69615,1.51408 z m 3.59552,0.13577 c 0.70101,-0.44688 -0.0401,-1.18328 -1.28372,-1.27546 -0.93131,-0.069 -1.09753,-0.005 -1.09753,0.42259 0,0.82119 1.55646,1.37866 2.38125,0.85287 z m 11.11174,-0.69573 c 0.5825,-0.52625 1.05909,-1.06725 1.05909,-1.20221 0,-0.13538 -0.85996,-0.21054 -1.91823,-0.16765 -1.78132,0.0722 -1.92447,0.12178 -2.00564,0.69487 -0.10315,0.72833 0.62674,1.63182 1.31828,1.63182 0.26807,0 0.96399,-0.43057 1.5465,-0.95683 z m 1.27296,0.67241 c -0.0521,-0.15644 -0.20792,-0.28443 -0.34616,-0.28443 -0.13825,0 -0.29402,0.12799 -0.34616,0.28443 -0.0522,0.15643 0.10362,0.28442 0.34616,0.28442 0.24253,0 0.39831,-0.12799 0.34616,-0.28442 z m -6.29929,-0.51321 c 0,-0.8151 -1.50418,-1.61972 -2.64583,-1.41533 -1.34884,0.24149 -1.40093,0.3294 -0.59632,1.00644 1.24129,1.04447 3.24215,1.29681 3.24215,0.40889 z m -30.16249,0.13694 c 0,-0.45953 -2.00492,-2.24972 -2.51956,-2.24972 -0.74562,0 -0.63496,0.74212 0.22937,1.53837 0.64761,0.5966 2.29019,1.1068 2.29019,0.71135 z m 15.21354,-0.13306 c 0.0899,-0.14552 -0.0816,-0.26458 -0.38126,-0.26458 -0.29963,0 -0.54478,0.11906 -0.54478,0.26458 0,0.14552 0.17156,0.26459 0.38125,0.26459 0.2097,0 0.45485,-0.11907 0.54479,-0.26459 z m 26.06145,-1.00193 c 0,-0.65858 -0.90422,-1.92596 -1.31827,-1.84773 -0.68811,0.13003 -0.66486,1.75002 0.0358,2.49585 0.56711,0.60367 0.62988,0.61596 0.94496,0.18506 0.18562,-0.25385 0.3375,-0.62878 0.3375,-0.83318 z m -2.64583,-0.3366 c 0,-0.51528 -0.13406,-0.77813 -0.39687,-0.77813 -0.40016,0 -0.57979,1.31639 -0.22768,1.6685 0.3202,0.3202 0.62455,-0.11369 0.62455,-0.89037 z m -31.24842,0.56744 c 0.59854,-0.379 0.14272,-1.0005 -0.87362,-1.19117 -1.12675,-0.21138 -2.00921,0.18972 -2.00921,0.91324 0,0.44436 0.18252,0.51927 1.25677,0.51581 0.69123,-0.002 1.42295,-0.10928 1.62606,-0.23788 z m 35.81449,-0.70189 c 0.0768,-0.40169 -1.8e-4,-0.64368 -0.20474,-0.64368 -0.48973,0 -1.00232,0.7313 -0.82907,1.18279 0.21812,0.56842 0.88897,0.21858 1.03381,-0.53911 z m -41.92337,-0.57731 c 0.0687,-0.94706 0.0143,-1.094 -0.35287,-0.9531 -0.89541,0.3436 -1.03972,2.32123 -0.15718,2.15403 0.29845,-0.0566 0.45351,-0.42162 0.51005,-1.20093 z m 30.47601,0.20335 c 0.37881,-0.91454 0.19029,-1.90815 -0.56265,-2.96556 -0.87932,-1.23489 -1.55189,-0.86137 -1.55189,0.86186 0,0.6953 1.21662,2.85783 1.62154,2.88227 0.0915,0.006 0.31334,-0.34484 0.493,-0.77857 z m -19.44328,-0.007 c 0.57985,-0.64073 0.47946,-0.76882 -0.7602,-0.96999 -0.99352,-0.16123 -1.75481,0.20897 -1.75481,0.85331 0,0.31762 0.53145,0.51912 1.61264,0.61144 0.2321,0.0198 0.63817,-0.20283 0.90237,-0.49476 z m 5.2684,0.18257 c 0.65118,-0.47616 0.43333,-1.29401 -0.45856,-1.72148 -0.64283,-0.3081 -0.83086,-0.29381 -1.45197,0.11039 -0.72252,0.4702 -1.35117,1.14961 -1.36655,1.47689 -0.0236,0.5019 2.62584,0.6104 3.27708,0.1342 z m 7.52373,-0.002 c 0.5593,-0.67392 -0.58855,-1.29792 -1.2221,-0.66437 -0.23467,0.23467 -0.19992,0.39063 0.14552,0.65305 0.5781,0.43917 0.72026,0.44066 1.07658,0.0113 z m -21.12797,-0.16329 c 0,-0.31218 -0.51603,-0.64612 -0.70556,-0.45659 -0.18952,0.18952 0.14442,0.70555 0.45659,0.70555 0.13693,0 0.24897,-0.11203 0.24897,-0.24896 z m 19.24627,-0.98964 c 0.86492,-0.89063 0.90267,-0.99097 0.44096,-1.17203 -0.89236,-0.34993 -2.30131,-0.24791 -2.79921,0.20268 -0.59774,0.54095 -0.60715,0.83943 -0.046,1.45952 0.66053,0.72988 1.35735,0.58781 2.40422,-0.49017 z m -14.74836,-0.36092 c 0,-0.50274 -0.24424,-1.05002 -0.64943,-1.45521 -0.81498,-0.81498 -1.10862,-0.81863 -1.26211,-0.0157 -0.20076,1.0502 0.63927,2.15746 1.7131,2.2581 0.10915,0.0102 0.19844,-0.34401 0.19844,-0.78718 z m 20.32052,0.22576 c 0.0539,-0.28308 -0.21921,-0.60519 -0.74284,-0.87596 -1.12271,-0.58058 -1.35005,-0.42677 -0.90916,0.61511 0.28816,0.68093 0.5065,0.85973 0.96932,0.79375 0.32856,-0.0469 0.63577,-0.28665 0.68268,-0.5329 z m 6.01579,-0.52508 c 0.21656,-0.98597 0.0927,-1.10528 -0.91739,-0.88344 -0.70369,0.15456 -0.81267,0.29371 -0.81267,1.03769 0,0.80051 0.0532,0.85139 0.77884,0.74489 0.60874,-0.0893 0.8165,-0.28572 0.95122,-0.89914 z m -28.98214,0.26564 c 0,-0.63893 -0.59966,-1.27721 -1.19993,-1.27721 -0.79899,0 -0.8567,0.5892 -0.12899,1.31691 0.5052,0.5052 1.32892,0.48059 1.32892,-0.0397 z m 8.46667,-0.48346 c 0,-0.51573 -0.28064,-0.68951 -0.59914,-0.37101 -0.21196,0.21196 0.0655,0.90017 0.36286,0.90017 0.12995,0 0.23628,-0.23812 0.23628,-0.52916 z m -3.70417,-1.08919 c 0,-1.14525 -0.56722,-1.41597 -1.05543,-0.50374 -0.4219,0.78832 -0.0799,1.8281 0.54734,1.66408 0.39103,-0.10226 0.50809,-0.3696 0.50809,-1.16034 z m 8.95263,0.57078 c 0.14539,-0.99427 -0.19093,-2.25954 -0.76415,-2.87482 -0.2949,-0.31654 -0.62503,-0.57552 -0.73364,-0.57552 -0.1086,0 -0.22413,0.63738 -0.25673,1.41641 -0.0461,1.10268 0.0649,1.57425 0.50131,2.12906 0.64452,0.81938 1.12481,0.78292 1.25321,-0.0951 z m -7.14143,-0.39389 c 0.0585,-0.30162 -0.0369,-0.42884 -0.26458,-0.35302 -0.1958,0.0652 -0.39713,0.33075 -0.44741,0.59011 -0.0585,0.30163 0.0369,0.42885 0.26458,0.35302 0.1958,-0.0652 0.39714,-0.33074 0.44741,-0.59011 z m 4.22647,-0.47677 c -0.064,-0.45025 -0.2858,-0.61489 -0.91047,-0.67568 -0.75755,-0.0737 -0.81523,-0.0244 -0.69676,0.59531 0.10377,0.54282 0.2828,0.67569 0.91047,0.67569 0.65891,0 0.76806,-0.0933 0.69676,-0.59532 z m 12.48316,-0.0378 c 0,-0.44862 -0.71554,-0.76578 -0.93318,-0.41363 -0.086,0.13916 -0.0828,0.37209 0.007,0.51761 0.24449,0.39559 0.92604,0.31906 0.92604,-0.10398 z m 3.96875,-0.0127 c 0,-0.42138 -0.48005,-0.81438 -0.71175,-0.58268 -0.21765,0.21765 0.12211,0.96394 0.43886,0.96394 0.15009,0 0.27289,-0.17156 0.27289,-0.38126 z m -10.64591,-0.62694 c 0.4863,-0.61913 0.25919,-0.97617 -0.62093,-0.97617 -0.68159,0 -0.78159,0.10317 -0.85638,0.88361 -0.078,0.8143 -0.0365,0.86927 0.52917,0.70088 0.33761,-0.10049 0.76428,-0.37424 0.94814,-0.60832 z m 1.91466,0.23007 c 0,-0.60441 -0.41715,-0.94009 -0.66662,-0.53643 -0.22226,0.35962 0.0366,1.04998 0.39374,1.04998 0.15008,0 0.27288,-0.2311 0.27288,-0.51355 z m -3.70417,-1.99999 c 0,-0.21828 -0.11906,-0.39688 -0.26458,-0.39688 -0.14552,0 -0.26458,0.1786 -0.26458,0.39688 0,0.21828 0.11906,0.39687 0.26458,0.39687 0.14552,0 0.26458,-0.17859 0.26458,-0.39687 z m -5.78498,140.09705 -1.94853,-0.13229 -0.85367,-2.51354 c -0.9439,-2.77922 -0.96868,-2.84469 -2.00352,-5.29167 -0.40003,-0.94588 -0.81539,-2.01745 -0.92304,-2.38125 -0.10765,-0.3638 -0.60606,-1.65842 -1.10759,-2.87694 -1.602,-3.89225 -2.53229,-6.9035 -2.24114,-7.2543 0.20235,-0.2438 3.30452,-0.30255 13.05405,-0.2472 7.03375,0.0399 13.65293,0.0628 14.70928,0.0508 2.33679,-0.0265 2.50399,0.20718 1.56084,2.18155 -0.36761,0.76956 -0.98773,2.3517 -1.37804,3.51586 -0.39031,1.16417 -0.86027,2.47386 -1.04435,2.91042 -0.18408,0.43656 -0.48375,1.44859 -0.66591,2.24896 -0.56263,2.4719 -2.84388,9.04646 -3.29492,9.49595 -0.36657,0.36531 -1.24486,0.42592 -6.17117,0.42592 -3.15907,0 -6.6206,-0.0595 -7.69229,-0.13229 z m 14.67543,-4.7625 c 0.63559,-1.96453 1.65316,-5.11969 2.26127,-7.01146 0.60812,-1.89177 1.20525,-3.55269 1.32697,-3.69093 0.12173,-0.13825 0.22131,-0.42459 0.22131,-0.63632 0,-0.31761 -0.0847,-0.30835 -0.48385,0.0529 -0.26612,0.24084 -0.62331,0.43789 -0.79375,0.43789 -0.3146,0 -0.39874,0.53008 -0.31961,2.01356 0.0329,0.61707 -0.19496,1.07619 -0.91089,1.8353 -0.86865,0.92104 -0.9277,1.07776 -0.65453,1.73725 0.42617,1.02884 0.1075,1.73815 -1.08741,2.42042 -1.08948,0.62208 -1.30973,1.23116 -0.64475,1.78305 0.59046,0.49004 0.50443,0.72667 -0.72268,1.98768 -0.80281,0.825 -1.21007,1.07537 -1.43948,0.88498 -0.38108,-0.31627 -0.19815,-0.94116 0.50447,-1.72322 0.41478,-0.46168 0.45618,-0.67541 0.21729,-1.12178 -0.23163,-0.4328 -0.2015,-0.69432 0.14005,-1.21559 0.23934,-0.36528 0.51078,-0.66844 0.60318,-0.67367 0.0924,-0.005 0.51531,-0.29345 0.93979,-0.64048 0.75744,-0.61924 0.76333,-0.64386 0.31673,-1.32546 -0.57279,-0.87418 -0.39231,-1.44513 0.83305,-2.63531 0.86,-0.83532 0.92644,-0.989 0.57816,-1.33728 -0.34829,-0.34828 -0.5389,-0.20396 -1.65876,1.25592 -1.06993,1.39478 -1.24178,1.77727 -1.11321,2.47764 0.12911,0.70327 -0.0307,1.05253 -1.05916,2.3151 -0.66617,0.81779 -1.41966,1.48689 -1.67444,1.48689 -0.25477,0 -0.85514,0.28915 -1.33416,0.64256 -1.15704,0.85363 -2.81421,1.1372 -3.42349,0.58581 -0.27827,-0.25183 -0.87659,-0.3944 -1.54358,-0.3678 -1.25172,0.0499 -1.93771,-0.39754 -1.93771,-1.26391 0,-0.42913 -0.28623,-0.75146 -0.99219,-1.11735 -0.82931,-0.42981 -1.01574,-0.68382 -1.13562,-1.54729 -0.0789,-0.56819 -0.34678,-1.43831 -0.59532,-1.93361 -0.55605,-1.10815 -0.56484,-1.34841 -0.0493,-1.34841 0.2214,0 0.53817,0.29765 0.70393,0.66145 0.29738,0.65268 1.10062,0.89271 1.39476,0.41679 0.0832,-0.13457 -0.29676,-0.78253 -0.84428,-1.43992 -0.54752,-0.65738 -1.19179,-1.47002 -1.43171,-1.80585 -0.23991,-0.33583 -0.52963,-0.51932 -0.64382,-0.40775 -0.11418,0.11156 -0.0667,0.34373 0.10549,0.51594 0.43516,0.43516 0.39075,0.73642 -0.10856,0.73642 -0.23191,0 -0.48392,-0.23813 -0.56003,-0.52917 -0.0761,-0.29104 -0.24355,-0.52916 -0.3721,-0.52916 -0.36374,0 -0.27541,0.42978 0.16315,0.79375 0.46536,0.38622 0.52384,1.91422 0.10331,2.69998 -0.25124,0.46946 -0.18017,0.63726 0.49308,1.16416 0.85083,0.66587 1.29124,2.20703 0.86063,3.01164 -0.18629,0.34809 -0.0628,0.58358 0.53976,1.02906 0.58834,0.43497 0.78134,0.79138 0.78134,1.44287 0,0.47586 0.12411,0.98931 0.2758,1.141 0.36659,0.36658 -0.34568,0.96671 -0.99069,0.83471 -0.36784,-0.0753 -0.45941,-0.31001 -0.40376,-1.03506 0.0608,-0.79255 -0.037,-0.98734 -0.63186,-1.25839 -0.67819,-0.309 -0.69783,-0.37806 -0.53912,-1.89649 0.16471,-1.57581 0.16471,-1.57581 -0.86297,-2.22456 -0.56522,-0.35681 -1.08043,-0.80361 -1.14491,-0.9929 -0.0645,-0.18928 0.16887,-0.79959 0.51853,-1.35624 0.70051,-1.11519 0.54921,-1.59877 -0.64191,-2.05163 -0.42908,-0.16314 -0.60737,-0.44497 -0.61024,-0.96463 -0.005,-0.92744 -0.23539,-1.27514 -1.00329,-1.51488 -0.91436,-0.28547 -1.21689,-1.33679 -0.65728,-2.28413 0.44116,-0.74681 0.52165,-0.7716 2.50611,-0.7716 1.85437,0 2.08111,0.0569 2.37258,0.59531 0.17724,0.32743 0.29961,0.90949 0.27193,1.29348 -0.0311,0.4316 0.22822,1.02808 0.67923,1.56222 1.97373,2.33758 2.54641,2.89899 2.95719,2.89899 0.24544,0 0.91619,0.34018 1.49056,0.75596 0.82022,0.59374 1.28831,0.74244 2.18137,0.69298 0.62538,-0.0346 1.21077,-0.13669 1.30087,-0.22679 0.0901,-0.0901 0.36364,-0.16381 0.60787,-0.16381 0.24424,0 0.65956,-0.23813 0.92295,-0.52917 0.26339,-0.29104 0.59355,-0.52917 0.73368,-0.52917 0.14014,0 0.64602,-0.32742 1.12418,-0.7276 0.47815,-0.40018 1.36016,-1.08019 1.96001,-1.51112 0.68943,-0.49529 1.0368,-0.9238 0.94429,-1.16486 -0.0805,-0.20974 -0.0201,-0.76377 0.13414,-1.23118 0.25149,-0.76203 0.40942,-0.86492 1.52855,-0.9958 1.93909,-0.22678 2.7105,0.0161 3.03834,0.95651 l 0.28253,0.81048 0.31487,-0.91249 c 0.17317,-0.50186 0.40043,-1.18353 0.50501,-1.51482 l 0.19015,-0.60234 -13.01425,0.0215 c -7.15784,0.0118 -13.08031,-0.0445 -13.16104,-0.12527 -0.0807,-0.0807 -0.42459,-0.14677 -0.76414,-0.14677 -0.6313,0 -0.82758,0.36802 -0.35278,0.66146 0.14553,0.0899 0.26459,0.45713 0.26459,0.81598 0,0.35884 0.2505,1.33408 0.55666,2.16719 0.30617,0.83311 0.94084,2.58631 1.41038,3.896 0.46954,1.30968 1.15759,3.09562 1.529,3.96875 1.23814,2.91068 2.06173,5.02428 2.06196,5.29166 1.2e-4,0.14553 0.23732,0.65346 0.5271,1.12874 l 0.52688,0.86415 7.17601,-0.0704 7.17601,-0.0704 z m -6.64149,-1.32291 c 0.0899,-0.14552 -0.0221,-0.26459 -0.24896,-0.26459 -0.22687,0 -0.4125,0.11907 -0.4125,0.26459 0,0.14552 0.11204,0.26458 0.24897,0.26458 0.13693,0 0.32256,-0.11906 0.41249,-0.26458 z m -2.90112,-0.54421 c 0.095,-0.15379 0.0998,-0.57051 0.0106,-0.92604 -0.13279,-0.52905 -0.32779,-0.64642 -1.07394,-0.64642 -0.63058,0 -0.99615,0.1578 -1.18559,0.51177 -0.55516,1.03734 -0.35146,1.34031 0.90112,1.34031 0.64626,0 1.25278,-0.12583 1.34783,-0.27962 z m -1.72908,-0.38184 c 0,-0.21828 0.17859,-0.39687 0.39687,-0.39687 0.21828,0 0.39688,0.17859 0.39688,0.39687 0,0.21829 -0.1786,0.39688 -0.39688,0.39688 -0.21828,0 -0.39687,-0.17859 -0.39687,-0.39688 z m 6.93922,-1.20658 c 0.59786,0.84457 0.93772,0.49905 0.36656,-0.37266 -0.51234,-0.78193 -0.86361,-0.83514 -1.53026,-0.23183 -0.60078,0.54369 -0.60369,0.72697 -0.0208,1.31195 0.44134,0.44296 0.46921,0.42216 0.59531,-0.44412 l 0.13229,-0.90884 0.45694,0.6455 z m -7.83659,-0.62482 c 0.0794,-0.20691 0.0119,-0.62363 -0.1499,-0.92605 -0.34673,-0.64786 -1.59857,-0.76765 -1.59857,-0.15296 0,0.21828 0.11104,0.39687 0.24675,0.39687 0.13572,0 0.32234,0.23813 0.41471,0.52917 0.19382,0.61068 0.87461,0.70648 1.08701,0.15297 z m 9.76091,-0.41755 c -0.0899,-0.14553 -0.34212,-0.26459 -0.5604,-0.26459 -0.21828,0 -0.32329,0.11906 -0.23335,0.26459 0.0899,0.14552 0.34211,0.26458 0.56039,0.26458 0.21828,0 0.32329,-0.11906 0.23336,-0.26458 z m -3.71238,-0.80703 c -0.20245,-0.32758 -1.71158,-0.32747 -1.71158,1.3e-4 0,0.13829 0.20528,0.36632 0.45619,0.50673 0.52334,0.29288 1.50476,-0.10337 1.25539,-0.50686 z m -4.09283,-0.25131 c 0,-0.14552 -0.18562,-0.26458 -0.41249,-0.26458 -0.22687,0 -0.33891,0.11906 -0.24897,0.26458 0.0899,0.14552 0.27556,0.26459 0.41249,0.26459 0.13693,0 0.24897,-0.11907 0.24897,-0.26459 z m 6.3961,-0.32431 c -0.14552,-0.14552 -0.40673,-0.17673 -0.58046,-0.0693 -0.24,0.14832 -0.23268,0.24665 0.0305,0.40928 0.45136,0.27895 0.89482,0.005 0.55001,-0.33993 z m -7.71902,-0.44113 c 0,-0.29344 -0.81397,-0.62545 -1.02239,-0.41703 -0.0841,0.0841 0.0223,0.26368 0.2363,0.39906 0.49474,0.31288 0.78609,0.31954 0.78609,0.018 z m 10.53524,-2.28414 c 0.63915,-0.77872 1.18296,-1.78187 0.91505,-1.68796 -0.16842,0.059 -1.09153,0.75842 -2.05136,1.55419 -1.74515,1.44685 -1.74515,1.44685 -1.15604,1.89122 0.57128,0.43091 0.61152,0.41515 1.32933,-0.52081 0.40712,-0.53085 0.84048,-1.08734 0.96302,-1.23664 z m -17.31164,-1.91796 c -0.2041,-0.3317 -0.18227,-0.69564 0.0799,-1.33189 0.30154,-0.73181 0.45691,-0.84494 0.94686,-0.68943 0.49606,0.15744 0.5362,0.12586 0.26119,-0.20549 -0.17871,-0.21534 -0.82118,-0.41097 -1.42771,-0.43474 -1.07387,-0.0421 -1.09066,-0.0298 -0.64026,0.46788 0.33439,0.3695 0.41352,0.73426 0.2856,1.31666 -0.23005,1.04742 0.0623,2.04637 0.47747,1.63125 0.21259,-0.21259 0.21744,-0.42844 0.017,-0.75424 z m 20.58581,-1.11787 c 0.65617,0 0.60786,-0.78491 -0.0511,-0.82983 -1.73788,-0.1185 -2.2154,-0.0646 -2.32436,0.26228 -0.0864,0.25922 0.0357,0.30924 0.44097,0.18061 0.44246,-0.14043 0.56047,-0.0673 0.56047,0.34746 0,0.28895 0.0851,0.74346 0.18906,1.01002 0.16448,0.42167 0.2227,0.39009 0.44795,-0.24294 0.15292,-0.42979 0.45458,-0.7276 0.73698,-0.7276 z m -22.27607,-1.04272 c 0,-0.13693 -0.11907,-0.32256 -0.26459,-0.41249 -0.14552,-0.0899 -0.26458,0.0221 -0.26458,0.24896 0,0.22687 0.11906,0.4125 0.26458,0.4125 0.14552,0 0.26459,-0.11204 0.26459,-0.24897 z"
       id="path7790" />
  </g>
</svg>
