<?xml version="1.0" encoding="UTF-8" standalone="no"?>
<!-- Created with Inkscape (http://www.inkscape.org/) -->

<svg
   width="30.956249mm"
   height="61.383659mm"
   viewBox="0 0 30.95625 61.383656"
   version="1.1"
   id="svg5"
   inkscape:version="1.1 (c4e8f9ed74, 2021-05-24)"
   sodipodi:docname="smallcurls.svg"
   xmlns:inkscape="http://www.inkscape.org/namespaces/inkscape"
   xmlns:sodipodi="http://sodipodi.sourceforge.net/DTD/sodipodi-0.dtd"
   xmlns="http://www.w3.org/2000/svg"
   xmlns:svg="http://www.w3.org/2000/svg">
  <sodipodi:namedview
     id="namedview7"
     pagecolor="#ffffff"
     bordercolor="#666666"
     borderopacity="1.0"
     inkscape:pageshadow="2"
     inkscape:pageopacity="0.0"
     inkscape:pagecheckerboard="0"
     inkscape:document-units="mm"
     showgrid="false"
     inkscape:zoom="0.66903058"
     inkscape:cx="-683.82524"
     inkscape:cy="51.567149"
     inkscape:window-width="2506"
     inkscape:window-height="1403"
     inkscape:window-x="1974"
     inkscape:window-y="0"
     inkscape:window-maximized="1"
     inkscape:current-layer="layer1" />
  <defs
     id="defs2" />
  <g
     inkscape:label="Layer 1"
     inkscape:groupmode="layer"
     id="layer1"
     transform="translate(-125.88363,-295.39931)">
    <path
       style="fill:#000000;stroke-width:0.264583"
       d="m 136.53311,355.84597 c -0.47294,-0.49519 -0.8599,-1.03129 -0.8599,-1.19134 0,-0.40484 -0.68282,-1.04696 -1.11331,-1.04696 -0.19655,0 -0.529,-0.23812 -0.73877,-0.52916 -0.22397,-0.31075 -0.68492,-0.52917 -1.11674,-0.52917 -0.40444,0 -0.73534,-0.11906 -0.73534,-0.26458 0,-0.14552 -0.23813,-0.26459 -0.52917,-0.26459 -0.29104,0 -0.52917,-0.11906 -0.52917,-0.26458 0,-0.14552 -0.1876,-0.26458 -0.4169,-0.26458 -0.22929,0 -1.24133,-0.8343 -2.24896,-1.854 -1.81897,-1.84075 -1.83205,-1.86437 -1.83205,-3.30729 0,-0.79931 -0.11906,-1.4533 -0.26459,-1.4533 -0.15782,0 -0.26458,-1.01423 -0.26458,-2.51354 0,-1.4993 0.10676,-2.51354 0.26458,-2.51354 0.14553,0 0.26459,-0.29063 0.26459,-0.64584 0,-0.35522 0.11906,-0.71943 0.26458,-0.80937 0.14552,-0.0899 0.26458,-0.46579 0.26458,-0.83523 0,-0.46816 0.40779,-1.04861 1.34564,-1.9154 1.11209,-1.02783 1.33022,-1.37584 1.25678,-2.00505 -0.0975,-0.83553 -1.22197,-1.67363 -2.29058,-1.70727 -0.80891,-0.0255 -1.37017,-0.61578 -1.37017,-1.4411 0,-0.44962 0.40807,-1.05513 1.25677,-1.86485 1.23437,-1.17766 1.28862,-1.19915 3.04271,-1.20517 1.01015,-0.003 1.78594,-0.12107 1.78594,-0.27072 0,-0.14552 0.23812,-0.26458 0.52916,-0.26458 0.29105,0 0.52917,0.11906 0.52917,0.26458 0,0.14552 0.23813,0.26458 0.52917,0.26458 0.29104,0 0.52916,0.11907 0.52916,0.26459 0,0.14552 0.19036,0.26458 0.42302,0.26458 0.23266,0 0.77371,0.37543 1.20235,0.83429 l 0.77934,0.83428 0.86076,-0.83428 c 0.68431,-0.66326 1.0855,-0.83429 1.95704,-0.83429 0.60294,0 1.16985,-0.11906 1.25979,-0.26458 0.0899,-0.14552 0.98993,-0.26459 1.99999,-0.26459 1.04792,0 1.83646,-0.1136 1.83646,-0.26458 0,-0.14699 0.70556,-0.26458 1.5875,-0.26458 0.88195,0 1.5875,0.11759 1.5875,0.26458 0,0.14552 0.39654,0.26458 0.8812,0.26458 2.25013,0 6.26255,3.33167 6.26255,5.20003 0,0.19592 0.11907,0.35622 0.26459,0.35622 0.14552,0 0.26458,0.35719 0.26458,0.79375 0,0.43657 0.11907,0.79375 0.26459,0.79375 0.1614,0 0.26458,1.21452 0.26458,3.11438 v 3.11437 l -2.31511,2.24564 c -2.59924,2.52126 -3.1617,2.9027 -4.28027,2.9027 -0.42995,0 -0.85531,0.11906 -0.94525,0.26458 -0.0899,0.14552 -1.09441,0.26458 -2.23217,0.26458 -1.5454,0 -2.15472,-0.1037 -2.40891,-0.40997 -0.18713,-0.22548 -0.82679,-0.63308 -1.42145,-0.90578 -1.60396,-0.73551 -3.33018,-2.7865 -3.33018,-3.95671 0,-0.28443 -0.11906,-0.59072 -0.26458,-0.68066 -0.34305,-0.21202 -0.34305,-1.37548 0,-1.5875 0.14552,-0.0899 0.26458,-0.69541 0.26458,-1.34549 0,-1.04705 0.13512,-1.31709 1.18367,-2.36564 0.65101,-0.65101 1.36539,-1.18366 1.5875,-1.18366 0.22211,0 0.40383,-0.11906 0.40383,-0.26459 0,-0.38749 4.12155,-0.33107 4.83224,0.0661 0.91401,0.51087 1.78235,1.3165 1.78235,1.65365 0,0.16754 0.29765,0.58426 0.66146,0.92604 0.9908,0.93082 0.93989,2.82097 -0.10616,3.94077 -0.42218,0.45195 -0.95797,0.82173 -1.19062,0.82173 -0.23266,0 -0.42302,0.11906 -0.42302,0.26458 0,0.14552 -0.23812,0.26458 -0.52916,0.26458 -0.29104,0 -0.52917,-0.11906 -0.52917,-0.26458 0,-0.14552 -0.30307,-0.26458 -0.67348,-0.26458 -1.03427,0 -1.97235,-1.10167 -1.97235,-2.31631 0,-1.25139 0.37061,-1.65244 1.52702,-1.65244 0.49061,0 1.05689,-0.16487 1.2584,-0.36637 0.5991,-0.5991 -0.33109,-1.22113 -1.82609,-1.22113 -0.97223,0 -1.39146,0.14349 -1.8974,0.64943 -0.35719,0.35719 -0.64943,0.82641 -0.64943,1.04272 0,0.21631 -0.11906,0.46687 -0.26459,0.55681 -0.39957,0.24695 -0.31711,2.59153 0.12211,3.47196 0.21268,0.42633 0.75011,1.12332 1.19429,1.54887 0.68661,0.65782 0.98749,0.76266 2.00848,0.69988 0.66049,-0.0406 1.37322,0.0692 1.58384,0.24397 0.2828,0.2347 0.47581,0.24075 0.73802,0.0231 0.19529,-0.16207 0.41645,-0.23331 0.49147,-0.15829 0.075,0.075 0.287,-0.0451 0.47107,-0.26688 0.18408,-0.2218 0.47642,-0.40327 0.64966,-0.40327 0.4976,0 1.71921,-1.41039 2.4192,-2.79305 0.52523,-1.03747 0.64061,-1.66235 0.64061,-3.46949 0,-1.29302 -0.10936,-2.20412 -0.26458,-2.20412 -0.14552,0 -0.26458,-0.3309 -0.26458,-0.73534 0,-0.43181 -0.21842,-0.89277 -0.52917,-1.11674 -0.29104,-0.20977 -0.52917,-0.54221 -0.52917,-0.73877 0,-0.46053 -0.65277,-1.11331 -1.11331,-1.11331 -0.19655,0 -0.529,-0.23813 -0.73877,-0.52917 -0.22397,-0.31074 -0.68492,-0.52917 -1.11674,-0.52917 -0.40444,0 -0.73534,-0.11906 -0.73534,-0.26458 0,-0.14699 -0.70556,-0.26458 -1.5875,-0.26458 -0.88195,0 -1.5875,0.11759 -1.5875,0.26458 0,0.14552 -0.46923,0.26458 -1.04272,0.26458 -0.5735,0 -1.1163,0.11907 -1.20624,0.26459 -0.0899,0.14552 -0.43188,0.26458 -0.75986,0.26458 -0.32799,0 -0.93855,0.35719 -1.35681,0.79375 -0.74201,0.7745 -2.24896,1.12907 -2.24896,0.52917 0,-0.14552 -0.23812,-0.26459 -0.52916,-0.26459 -0.29104,0 -0.52917,-0.11906 -0.52917,-0.26458 0,-0.14552 -0.23812,-0.26458 -0.52917,-0.26458 -0.29104,0 -0.52916,-0.11906 -0.52916,-0.26459 0,-0.14552 -0.23813,-0.26458 -0.52917,-0.26458 -0.29104,0 -0.52917,-0.11906 -0.52917,-0.26458 0,-0.15434 -0.88194,-0.26459 -2.11666,-0.26459 -2.03573,0 -2.11667,0.0234 -2.11667,0.61196 0,0.61654 1.0847,1.82685 1.88914,2.10792 0.23866,0.0834 0.62689,0.5384 0.86273,1.01116 0.42278,0.84748 0.41761,0.87049 -0.36778,1.63836 -0.43813,0.42834 -0.79659,0.91992 -0.79659,1.09239 0,0.17247 -0.42239,0.72298 -0.93865,1.22335 -1.01463,0.98342 -1.70718,2.16929 -1.70718,2.92323 0,0.2601 -0.11906,0.54649 -0.26459,0.63643 -0.34858,0.21543 -0.34858,4.36562 0,4.36562 0.14553,0 0.26459,0.23813 0.26459,0.52917 0,0.29104 0.11906,0.52916 0.26458,0.52916 0.14552,0 0.26458,0.18173 0.26458,0.40384 0,0.52506 2.24611,2.77116 2.77117,2.77116 0.22211,0 0.40383,0.11907 0.40383,0.26459 0,0.14552 0.23813,0.26458 0.52917,0.26458 0.29104,0 0.52917,0.11906 0.52917,0.26458 0,0.14553 0.30942,0.26459 0.68759,0.26459 0.42284,0 0.97311,0.30563 1.42907,0.79375 0.40781,0.43656 0.92311,0.79375 1.14511,0.79375 0.50441,0 1.23614,1.4244 1.23614,2.40628 0,0.40562 0.11663,0.80957 0.25917,0.89766 0.31038,0.19183 -0.25174,1.20315 -0.65354,1.17579 -0.1469,-0.01 -0.65404,-0.42334 -1.12698,-0.91852 z m 3.9026,0.73486 c 0,-0.11101 -0.25815,-0.31937 -0.57367,-0.46302 -1.2656,-0.5762 -1.22988,-1.08006 0.1823,-2.57153 1.55306,-1.64026 1.97887,-2.33794 1.97887,-3.24231 0,-0.65451 -0.0333,-0.66505 -2.10105,-0.66505 -1.15558,0 -2.17463,-0.11906 -2.26457,-0.26458 -0.0899,-0.14552 -0.43957,-0.26458 -0.77697,-0.26458 -0.33739,0 -0.77196,-0.191 -0.9657,-0.42444 -0.19374,-0.23344 -0.62717,-0.52896 -0.96318,-0.65671 -0.33601,-0.12775 -0.72051,-0.5205 -0.85445,-0.87278 -0.13393,-0.35228 -0.36239,-0.71397 -0.50767,-0.80376 -0.48229,-0.29807 -1.09141,-1.80881 -1.09141,-2.70692 0,-0.48697 -0.11906,-0.88539 -0.26458,-0.88539 -0.14552,0 -0.26458,-0.29766 -0.26458,-0.66146 0,-0.3638 0.11906,-0.66146 0.26458,-0.66146 0.14699,0 0.26458,-0.70556 0.26458,-1.5875 0,-0.88194 0.1176,-1.5875 0.26459,-1.5875 0.14552,0 0.26458,-0.23812 0.26458,-0.52917 0,-0.29104 0.11906,-0.52916 0.26458,-0.52916 0.14553,0 0.26459,-0.21184 0.26459,-0.47076 0,-0.25892 0.23812,-0.64239 0.52916,-0.85216 0.29105,-0.20977 0.52917,-0.59324 0.52917,-0.85216 0,-0.29437 0.19828,-0.47076 0.52917,-0.47076 0.72264,0 0.66624,0.47944 -0.26459,2.24896 -0.43656,0.82992 -0.79375,1.84702 -0.79375,2.26021 0,0.4132 -0.11906,0.82486 -0.26458,0.91479 -0.34433,0.21281 -0.34433,2.43303 0,2.64584 0.14552,0.0899 0.26458,0.69522 0.26458,1.34508 0,0.98814 0.0992,1.21928 0.60619,1.41203 0.3334,0.12676 0.7647,0.42147 0.95844,0.65491 0.19374,0.23344 0.49781,0.42443 0.67572,0.42443 0.17791,0 0.53897,0.23813 0.80236,0.52917 0.57556,0.63598 1.71979,0.71425 1.71979,0.11764 0,-0.22634 -0.71437,-1.11272 -1.5875,-1.96972 l -1.5875,-1.5582 v -2.81167 c 0,-2.18494 0.0913,-2.90295 0.40948,-3.22116 0.61171,-0.61171 0.73976,-0.27523 0.67344,1.76958 -0.0452,1.39206 0.0433,1.95839 0.3545,2.26958 0.22807,0.22807 0.41467,0.80141 0.41467,1.27409 0,0.84174 0.93592,2.01319 1.60841,2.01319 0.5031,0 1.03742,0.73978 1.03742,1.43631 0,0.3742 -0.11906,0.68036 -0.26458,0.68036 -0.14552,0 -0.26459,0.23813 -0.26459,0.52917 0,0.45199 0.17639,0.52916 1.20953,0.52916 1.24857,0 1.96547,0.42739 1.96547,1.17173 0,0.22868 0.11907,0.41577 0.26459,0.41577 0.14552,0 0.26458,0.35719 0.26458,0.79375 0,0.43657 0.11906,0.79375 0.26458,0.79375 0.14553,0 0.26459,0.45244 0.26459,1.00542 0,0.55298 0.14287,1.14829 0.3175,1.32292 0.39101,0.39102 4.445,0.43928 4.445,0.0529 0,-0.14552 0.33873,-0.26458 0.75274,-0.26458 0.41672,0 0.96652,-0.23621 1.23163,-0.52917 0.26339,-0.29104 0.61424,-0.52916 0.77967,-0.52916 0.34917,0 2.24213,-1.9721 2.72669,-2.84068 0.18155,-0.32545 0.3207,-0.92076 0.30921,-1.32292 -0.0115,-0.40216 -0.0809,-0.58237 -0.15434,-0.40046 -0.0734,0.1819 -0.33537,0.33072 -0.58216,0.33072 -0.24679,0 -0.62034,0.23813 -0.83011,0.52917 -0.20977,0.29104 -0.58332,0.52917 -0.83011,0.52917 -0.24679,0 -0.49619,0.14245 -0.55423,0.31655 -0.0655,0.19659 -0.55976,0.29304 -1.3042,0.2545 -0.8164,-0.0423 -1.3064,0.0677 -1.53643,0.34491 -0.43497,0.52411 -1.17241,0.52031 -1.61113,-0.008 -0.18955,-0.2284 -0.55694,-0.35975 -0.81642,-0.2919 -0.25947,0.0679 -0.60979,-0.0429 -0.77848,-0.24618 -0.16869,-0.20327 -0.47072,-0.36957 -0.67119,-0.36957 -0.20046,0 -0.36448,-0.23813 -0.36448,-0.52917 0,-0.41157 0.17639,-0.52917 0.79375,-0.52917 0.43657,0 0.79375,0.11907 0.79375,0.26459 0,0.14552 0.47625,0.26458 1.05834,0.26458 0.58208,0 1.05833,-0.11906 1.05833,-0.26458 0,-0.14552 0.35719,-0.26459 0.79375,-0.26459 0.43656,0 0.79375,-0.11906 0.79375,-0.26458 0,-0.14552 0.3309,-0.26458 0.73534,-0.26458 0.43182,0 0.89277,-0.21842 1.11674,-0.52917 0.20977,-0.29104 0.5428,-0.52917 0.74007,-0.52917 0.19726,0 1.10745,-0.77123 2.02263,-1.71384 1.58205,-1.62947 1.68527,-1.69032 2.09647,-1.23594 0.35216,0.38913 0.4325,1.09782 0.4325,3.8149 0,1.93926 -0.11082,3.40548 -0.26458,3.50051 -0.14552,0.0899 -0.26458,0.43957 -0.26458,0.77697 0,0.33739 -0.191,0.77196 -0.42444,0.9657 -0.23344,0.19374 -0.52815,0.62503 -0.65491,0.95843 -0.12676,0.33341 -0.39126,0.60619 -0.58778,0.60619 -0.19652,0 -0.63982,0.30073 -0.98513,0.66829 -1.09685,1.16755 -2.00125,1.44838 -4.66444,1.44838 -1.4722,0 -2.47289,-0.10707 -2.47289,-0.26459 0,-0.14552 -0.47625,-0.26458 -1.05833,-0.26458 -0.58209,0 -1.05834,-0.11906 -1.05834,-0.26458 0,-0.14552 -0.44718,-0.26459 -0.99374,-0.26459 -0.8497,0 -1.04468,0.11506 -1.34509,0.79375 -0.25054,0.566 -0.53479,0.79375 -0.99063,0.79375 -0.35161,0 -0.63929,-0.0908 -0.63929,-0.20184 z m -9.88086,-10.07159 c -0.24084,-0.26612 -0.43789,-0.72392 -0.43789,-1.01733 0,-0.29341 -0.24093,-0.75152 -0.53541,-1.01802 -0.36519,-0.33049 -0.44931,-0.57066 -0.26459,-0.75538 0.14896,-0.14896 0.27084,-1.00248 0.27084,-1.8967 0,-1.2391 0.1151,-1.73004 0.48385,-2.06375 0.26612,-0.24084 0.56378,-0.43789 0.66146,-0.43789 0.0977,0 0.1776,1.06454 0.1776,2.36564 0,1.3011 0.11907,2.43922 0.26459,2.52916 0.14552,0.0899 0.26458,0.43569 0.26458,0.76835 0,0.33266 0.23813,0.82034 0.52917,1.08373 0.29104,0.26339 0.52916,0.5795 0.52916,0.70247 0,0.42414 -1.50658,0.22236 -1.94336,-0.26028 z m -1.10922,-20.24574 c -1.15705,-0.65421 -3.03283,-2.80213 -3.03283,-3.47282 0,-0.36763 -0.11906,-0.66842 -0.26459,-0.66842 -0.14552,0 -0.26458,-0.23813 -0.26458,-0.52917 0,-0.29104 0.11906,-0.52917 0.26458,-0.52917 0.14553,0 0.26459,-0.39842 0.26459,-0.88539 0,-1.06953 0.54578,-2.229 1.44838,-3.07694 0.88182,-0.82843 0.84384,-1.5913 -0.12547,-2.51996 -0.43656,-0.41825 -0.79375,-1.02881 -0.79375,-1.3568 0,-0.32799 -0.11906,-0.66993 -0.26458,-0.75986 -0.14552,-0.0899 -0.26458,-0.87087 -0.26458,-1.73541 0,-0.87154 -0.11789,-1.57189 -0.26459,-1.57189 -0.14552,0 -0.26458,-0.23812 -0.26458,-0.52916 0,-0.29104 0.11906,-0.52917 0.26458,-0.52917 0.15418,0 0.26459,-0.87674 0.26459,-2.10105 0,-1.15558 0.11906,-2.17464 0.26458,-2.26457 0.14552,-0.0899 0.26458,-0.37125 0.26458,-0.62513 0,-0.69687 1.32449,-3.21133 1.69156,-3.21133 0.17672,0 0.72706,-0.41863 1.22298,-0.9303 0.49592,-0.51166 1.49516,-1.22603 2.22052,-1.5875 1.19076,-0.59337 1.63668,-0.6572 4.59136,-0.6572 h 3.27252 l 1.28856,1.32291 c 0.70871,0.72761 1.47489,1.32292 1.70262,1.32292 0.22773,0 0.41405,0.21184 0.41405,0.47076 0,0.25891 0.23813,0.64239 0.52917,0.85216 0.29104,0.20977 0.52916,0.56696 0.52916,0.79375 0,0.22679 0.23813,0.58398 0.52917,0.79375 0.30601,0.22055 0.52917,0.68492 0.52917,1.10112 0,0.39585 0.11906,0.79332 0.26458,0.88325 0.34858,0.21544 0.34858,4.36563 0,4.36563 -0.14552,0 -0.26458,0.33873 -0.26458,0.75274 0,0.41672 -0.23622,0.96652 -0.52917,1.23163 -0.29104,0.26339 -0.52917,0.63903 -0.52917,0.83476 0,0.19573 -0.15784,0.35587 -0.35075,0.35587 -0.19292,0 -0.62694,0.29398 -0.9645,0.6533 -0.33756,0.35932 -0.70201,0.59875 -0.80989,0.53208 -0.10788,-0.0667 -0.34328,0.0561 -0.52311,0.27274 -0.24123,0.29067 -0.8996,0.39396 -2.51112,0.39396 -1.61152,0 -2.26989,-0.10329 -2.51112,-0.39396 -0.17983,-0.21668 -0.41905,-0.33705 -0.53159,-0.2675 -0.11254,0.0696 -0.35176,-0.0508 -0.53158,-0.26749 -0.17983,-0.21668 -0.49098,-0.39397 -0.69144,-0.39397 -0.20046,0 -0.36448,-0.15631 -0.36448,-0.34737 0,-0.19106 -0.35719,-0.68958 -0.79375,-1.10783 -0.73801,-0.70706 -0.79375,-0.89422 -0.79375,-2.6651 0,-2.16301 0.24453,-2.76531 1.81396,-4.46794 1.08956,-1.18203 1.13425,-1.20134 2.78069,-1.20134 1.28508,0 1.77494,0.11227 2.11122,0.48385 0.24083,0.26612 0.43788,0.60486 0.43788,0.75275 0,0.14789 0.23813,0.48439 0.52917,0.74778 0.87241,0.78952 0.69103,1.9835 -0.47418,3.1213 -1.24861,1.21924 -2.38594,1.31867 -3.40678,0.29783 -0.50429,-0.50429 -0.60453,-0.75927 -0.38485,-0.97895 0.51567,-0.51568 0.36261,-1.51414 -0.23211,-1.51414 -0.35278,0 -0.52917,0.17639 -0.52917,0.52916 0,0.29105 -0.11906,0.52917 -0.26458,0.52917 -0.14552,0 -0.26458,0.51162 -0.26458,1.13693 0,0.97257 0.14343,1.27095 0.99219,2.06404 1.2856,1.20128 2.49082,1.82238 2.64503,1.36309 0.0611,-0.1819 0.41054,-0.33073 0.77659,-0.33073 0.39834,0 0.96324,-0.31868 1.40702,-0.79375 0.40781,-0.43656 0.93183,-0.79375 1.16449,-0.79375 0.2721,0 0.42301,-0.23041 0.42301,-0.64584 0,-0.35521 0.11906,-0.71943 0.26458,-0.80936 0.14553,-0.0899 0.26459,-1.09442 0.26459,-2.23218 0,-1.57573 -0.10114,-2.15259 -0.42444,-2.42091 -0.23344,-0.19374 -0.52931,-0.62809 -0.65749,-0.96522 -0.12818,-0.33713 -0.44319,-0.68754 -0.70004,-0.77869 -0.25684,-0.0911 -0.67535,-0.34468 -0.93001,-0.5634 -0.25466,-0.21871 -0.46302,-0.30122 -0.46302,-0.18335 0,0.11786 -0.20836,0.047 -0.46302,-0.15744 -1.3552,-1.08801 -3.63659,-1.43506 -4.28643,-0.65204 -0.17398,0.20963 -0.49065,0.31425 -0.70371,0.23249 -0.21306,-0.0818 -0.60097,0.0446 -0.86202,0.28089 -0.26105,0.23625 -0.53396,0.37022 -0.60647,0.29772 -0.0725,-0.0725 -0.41101,0.16536 -0.75225,0.52859 -0.34123,0.36322 -0.77827,0.66041 -0.97118,0.66041 -0.19292,0 -0.35076,0.16402 -0.35076,0.36448 0,0.20046 -0.17612,0.51065 -0.39138,0.6893 -0.50893,0.42237 -1.19612,1.80744 -1.19612,2.41084 0,0.26009 -0.11906,0.54649 -0.26458,0.63642 -0.34739,0.2147 -0.34739,3.83646 0,3.83646 0.14552,0 0.26458,0.23813 0.26458,0.52917 0,0.29104 0.11907,0.52916 0.26459,0.52916 0.14552,0 0.26458,0.33091 0.26458,0.73534 0,0.43182 0.21842,0.89277 0.52917,1.11675 0.29104,0.20977 0.52916,0.59324 0.52916,0.85216 0,0.25891 0.11907,0.47075 0.26459,0.47075 0.34474,0 0.34474,1.50673 0,1.7198 -0.14552,0.0899 -0.26459,0.44712 -0.26459,0.79375 0,0.34662 -0.11906,0.70381 -0.26458,0.79375 -0.14552,0.0899 -0.26458,0.39462 -0.26458,0.67707 0,0.28245 -0.11906,0.51355 -0.26459,0.51355 -0.14699,0 -0.26458,0.70556 -0.26458,1.5875 0,0.88195 -0.11759,1.5875 -0.26458,1.5875 -0.39297,0 -0.32023,0.7759 0.11339,1.20952 0.47025,0.47026 0.94494,0.489 0.94494,0.0373 0,-0.57336 3.60273,-3.72016 3.79608,-3.31568 0.36417,0.76185 0.72395,1.19482 1.18901,1.43088 0.31213,0.15844 0.78607,0.48586 1.05319,0.72761 0.26713,0.24174 0.60286,0.43953 0.74607,0.43953 0.14322,0 0.60261,0.35718 1.02086,0.79375 0.49205,0.51359 1.02315,0.79375 1.50471,0.79375 0.40934,0 0.74425,0.11906 0.74425,0.26458 0,0.14552 0.64781,0.26458 1.43959,0.26458 0.79178,0 1.51318,-0.11906 1.60312,-0.26458 0.0899,-0.14552 0.56618,-0.26458 1.05833,-0.26458 0.49215,0 0.9684,-0.11907 1.05833,-0.26459 0.0899,-0.14552 0.39462,-0.26458 0.67708,-0.26458 0.28245,0 0.51355,-0.11906 0.51355,-0.26458 0,-0.14552 0.23812,-0.26459 0.52916,-0.26459 0.30036,0 0.52917,-0.17639 0.52917,-0.40793 0,-0.22437 0.23813,-0.66354 0.52917,-0.97594 0.29104,-0.31239 0.52916,-0.75284 0.52916,-0.97878 0,-0.68146 1.80586,-4.11626 2.51381,-4.78135 0.36366,-0.34163 0.66119,-0.76054 0.66119,-0.9309 0,-0.17036 0.23813,-0.52525 0.52917,-0.78864 0.29104,-0.26339 0.52917,-0.7635 0.52917,-1.11136 0,-0.70918 -1.08069,-1.93135 -1.70777,-1.93135 -0.22489,0 -0.4089,-0.11906 -0.4089,-0.26458 0,-0.45021 -1.21673,-0.29129 -1.67878,0.21927 -0.32735,0.36172 -0.43789,0.99619 -0.43789,2.51354 0,1.17674 -0.11118,2.02969 -0.26458,2.02969 -0.14552,0 -0.26458,0.1808 -0.26458,0.40178 0,0.52328 -3.30828,3.83155 -3.83156,3.83155 -0.22098,0 -0.40178,0.11907 -0.40178,0.26459 0,0.16105 -1.19062,0.26458 -3.0427,0.26458 -1.85209,0 -3.04271,-0.10353 -3.04271,-0.26458 0,-0.14552 -0.33091,-0.26459 -0.73534,-0.26459 -0.43182,0 -0.89277,-0.21842 -1.11675,-0.52916 -0.20977,-0.29104 -0.59324,-0.52917 -0.85215,-0.52917 -0.32576,0 -0.47076,-0.20374 -0.47076,-0.66146 0,-0.3638 0.11906,-0.66146 0.26458,-0.66146 0.14552,0 0.26458,0.11907 0.26458,0.26459 0,0.14552 0.35719,0.26458 0.79375,0.26458 0.43657,0 0.79375,0.11906 0.79375,0.26458 0,0.14552 0.47999,0.26459 1.06664,0.26459 0.60924,0 1.12106,0.14182 1.19355,0.33073 0.0802,0.20888 0.66086,0.33073 1.57627,0.33073 0.91541,0 1.49612,-0.12185 1.57627,-0.33073 0.0698,-0.1819 0.36878,-0.33073 0.66439,-0.33073 0.29561,0 0.53747,-0.11907 0.53747,-0.26459 0,-0.14552 0.21665,-0.26458 0.48145,-0.26458 0.52739,0 1.63521,-1.12691 1.63521,-1.66339 0,-0.18505 0.23813,-0.50809 0.52917,-0.71786 0.31075,-0.22397 0.52917,-0.68492 0.52917,-1.11674 0,-0.40444 0.11906,-0.73534 0.26458,-0.73534 0.14699,0 0.26458,-0.70556 0.26458,-1.5875 0,-1.34546 0.0718,-1.5875 0.47076,-1.5875 0.25892,0 0.64239,-0.23813 0.85216,-0.52917 0.20977,-0.29104 0.59324,-0.52917 0.85216,-0.52917 0.25892,0 0.47076,-0.11906 0.47076,-0.26458 0,-0.36846 0.88552,-0.33156 1.27,0.0529 0.24694,0.24694 0.3175,0.24694 0.3175,0 0,-0.17463 0.23812,-0.3175 0.52916,-0.3175 0.45777,0 0.52917,-0.17639 0.52917,-1.3073 0,-0.71902 0.11906,-1.38089 0.26458,-1.47083 0.34387,-0.21252 0.34387,-1.90414 0,-2.11666 -0.14552,-0.0899 -0.26458,-0.38101 -0.26458,-0.64683 0,-0.80229 -0.62702,-1.7635 -2.33463,-3.57894 -1.63487,-1.7381 -2.54718,-2.1492 -2.8748,-1.29544 -0.0912,0.23756 -0.0279,0.65266 0.14059,0.92245 0.16849,0.2698 0.30634,0.67074 0.30634,0.891 0,0.22025 0.11906,0.40046 0.26458,0.40046 0.14552,0 0.26459,0.23813 0.26459,0.52917 0,0.29104 0.11906,0.52917 0.26458,0.52917 0.14995,0 0.26458,0.76475 0.26458,1.7651 0,1.27115 0.12254,1.90051 0.43789,2.24896 0.39163,0.43275 0.3957,0.53275 0.0385,0.94687 -0.21965,0.25467 -0.56482,0.84998 -0.76706,1.32292 -0.21553,0.50405 -0.55994,0.8599 -0.83227,0.8599 -0.41208,0 -0.46458,-0.299 -0.46458,-2.64584 0,-1.5875 -0.10583,-2.64583 -0.26458,-2.64583 -0.14552,0 -0.26459,-0.39843 -0.26459,-0.88539 0,-1.30556 -0.56005,-2.21256 -2.63468,-4.26689 -2.72524,-2.69855 -2.66796,-2.78522 1.84093,-2.78522 3.11621,0 3.70417,0.063 3.70417,0.39688 0,0.26458 0.26458,0.39687 0.79375,0.39687 0.43656,0 0.79375,0.11906 0.79375,0.26458 0,0.14552 0.18401,0.26459 0.4089,0.26459 0.47477,0 1.70777,1.15635 1.70777,1.60161 0,0.16651 0.35719,0.63641 0.79375,1.04422 0.59281,0.55376 0.79375,0.97857 0.79375,1.67804 0,0.51511 0.11907,1.01015 0.26459,1.10009 0.34738,0.21469 0.34738,3.83645 0,3.83645 -0.14552,0 -0.26459,0.47625 -0.26459,1.05834 0,0.58208 -0.11906,1.05833 -0.26458,1.05833 -0.406,0 -0.31397,1.8405 0.11339,2.26786 0.20789,0.20788 0.56508,0.37797 0.79375,0.37797 0.23939,0 0.41578,0.2245 0.41578,0.52917 0,0.29104 0.11906,0.52917 0.26458,0.52917 0.14552,0 0.26458,0.53578 0.26458,1.19062 0,0.65485 -0.0908,1.19063 -0.20184,1.19063 -0.11101,0 -0.31937,0.26577 -0.46302,0.59061 -0.14365,0.32484 -0.53666,0.72656 -0.87336,0.89271 -0.81988,0.40457 -2.16595,1.71318 -2.16595,2.10566 0,0.17323 -0.17719,0.46203 -0.39376,0.64177 -0.21657,0.17973 -0.86562,1.29564 -1.44234,2.47979 -0.67041,1.37652 -1.52318,2.61947 -2.36451,3.44642 -1.26325,1.24163 -1.3642,1.28798 -2.52145,1.15754 -0.83796,-0.0944 -1.29758,-0.0249 -1.50746,0.22793 -0.42108,0.50738 -5.60087,0.51773 -6.02056,0.012 -0.16558,-0.19951 -0.6156,-0.30429 -1.03963,-0.24205 -0.47001,0.069 -0.87695,-0.046 -1.09576,-0.30967 -0.19144,-0.23069 -0.51209,-0.41942 -0.71255,-0.41942 -0.20046,0 -0.36448,-0.15632 -0.36448,-0.34737 0,-0.46834 -1.38471,-1.7693 -1.8832,-1.7693 -0.44941,0 -1.82097,1.33168 -1.82097,1.76802 0,0.15612 -0.19099,0.44237 -0.42443,0.63611 -0.23344,0.19374 -0.52815,0.62504 -0.65491,0.95844 -0.25055,0.65898 -0.61003,0.7211 -1.44408,0.24951 z m 10.99008,-3.87666 c 0,-0.14552 -0.23812,-0.26458 -0.52916,-0.26458 -0.29104,0 -0.52917,-0.11907 -0.52917,-0.26459 0,-0.15097 0.78855,-0.26458 1.83647,-0.26458 1.01006,0 1.91005,-0.11906 1.99999,-0.26458 0.0899,-0.14552 0.44712,-0.26459 0.79375,-0.26459 0.34662,0 0.70381,-0.11906 0.79375,-0.26458 0.1665,-0.26941 1.71979,-0.38093 1.71979,-0.12347 0,0.0776 -0.41275,0.55386 -0.91722,1.05833 -0.89434,0.89434 -0.97025,0.91722 -3.04271,0.91722 -1.2406,0 -2.12549,-0.11015 -2.12549,-0.26458 z m -2.73711,-6.0401 c -0.24084,-0.26612 -0.43789,-0.56378 -0.43789,-0.66146 0,-0.0977 0.87468,-0.17761 1.94373,-0.17761 2.35558,0 3.01766,-0.30064 4.9264,-2.23704 2.12629,-2.15709 2.99495,-1.95734 1.79498,0.41277 -0.80559,1.59115 -1.64463,2.61802 -2.13913,2.61802 -0.22513,0 -0.48291,0.11907 -0.57285,0.26459 -0.09,0.14565 -1.2679,0.26458 -2.62044,0.26458 -2.04421,0 -2.53048,-0.0813 -2.8948,-0.48385 z"
       id="path8021" />
  </g>
</svg>
