<?xml version="1.0" encoding="UTF-8" standalone="no"?>
<!-- Created with Inkscape (http://www.inkscape.org/) -->

<svg
   width="106.34364mm"
   height="28.030622mm"
   viewBox="0 0 106.34364 28.030621"
   version="1.1"
   id="svg5"
   inkscape:version="1.1 (c4e8f9ed74, 2021-05-24)"
   sodipodi:docname="cheapestseeds.svg"
   xmlns:inkscape="http://www.inkscape.org/namespaces/inkscape"
   xmlns:sodipodi="http://sodipodi.sourceforge.net/DTD/sodipodi-0.dtd"
   xmlns="http://www.w3.org/2000/svg"
   xmlns:svg="http://www.w3.org/2000/svg">
  <sodipodi:namedview
     id="namedview7"
     pagecolor="#ffffff"
     bordercolor="#666666"
     borderopacity="1.0"
     inkscape:pageshadow="2"
     inkscape:pageopacity="0.0"
     inkscape:pagecheckerboard="0"
     inkscape:document-units="mm"
     showgrid="false"
     inkscape:zoom="1.3380612"
     inkscape:cx="-40.730574"
     inkscape:cy="55.677574"
     inkscape:window-width="2506"
     inkscape:window-height="1403"
     inkscape:window-x="1974"
     inkscape:window-y="0"
     inkscape:window-maximized="1"
     inkscape:current-layer="layer1" />
  <defs
     id="defs2" />
  <g
     inkscape:label="Layer 1"
     inkscape:groupmode="layer"
     id="layer1"
     transform="translate(-22.232582,-152.57346)">
    <path
       style="fill:#000000;stroke-width:0.264583"
       d="m 22.403919,179.9778 c -0.0922,-0.34445 -0.169258,-6.6129 -0.171245,-13.92989 -0.0029,-10.8206 0.06199,-13.32879 0.347887,-13.4385 0.193324,-0.0742 4.449808,-0.0298 9.458853,0.0987 l 9.107355,0.23359 -9.19427,0.0419 -9.194271,0.0419 -10e-6,13.4276 -10e-6,13.42761 46.1698,-0.0933 c 30.459904,-0.0615 46.169802,-0.004 46.169802,0.16952 0,0.17303 -13.40141,0.25011 -39.224479,0.2256 -21.573463,-0.0205 -42.391871,0.066 -46.263129,0.19216 l -7.038651,0.22939 z m 93.619931,0.0449 c -0.35759,-0.16021 0.33657,-0.24311 2.14098,-0.25568 1.46858,-0.0102 4.30324,-0.0969 6.29924,-0.19264 l 3.62909,-0.17405 -0.0896,-12.85668 c -0.0493,-7.07118 -0.19215,-13.02148 -0.31752,-13.22291 -0.19002,-0.30529 -1.48101,-0.33469 -7.76005,-0.17672 -4.92747,0.12397 -7.4764,0.0994 -7.37101,-0.0712 0.21541,-0.34853 15.3626,-0.54489 15.70392,-0.20358 0.0697,0.0697 0.16957,6.20551 0.22202,13.63521 l 0.0953,13.50854 -0.85226,0.0131 c -0.46875,0.007 -3.17399,0.0627 -6.01164,0.12339 -2.83766,0.0607 -5.3975,0.004 -5.68855,-0.12678 z m -92.197018,-13.3923 -0.02675,-12.54656 1.265012,-0.0661 c 0.695757,-0.0364 23.851589,-0.0661 51.457404,-0.0661 h 50.192392 l 0.13949,0.55492 c 0.20086,0.79908 0.20927,24.21222 0.009,24.41275 -0.0922,0.0923 -23.30715,0.18799 -51.588645,0.21274 l -51.420905,0.045 z m 84.127228,11.66517 c 6.33016,-0.0729 13.02742,-0.133 14.88281,-0.13358 l 3.37344,-0.001 v -11.76405 -11.76397 l -50.866146,0.0562 -50.866144,0.0562 v 9.26042 c 0,5.09322 0.03814,10.42992 0.08475,11.85932 l 0.08475,2.59891 2.825664,-0.14421 c 1.554115,-0.0793 4.695043,-0.16294 6.979839,-0.18584 l 4.154175,-0.0416 0.608325,-0.85332 c 1.567261,-2.19844 3.001861,-4.07779 3.121866,-4.08969 0.07276,-0.007 0.143493,1.02816 0.157184,2.30084 0.01369,1.27268 -0.0226,1.80794 -0.08064,1.18948 -0.05804,-0.61846 -0.214337,-1.12448 -0.347317,-1.12448 -0.132981,0 -0.17325,-0.17859 -0.08949,-0.39687 0.28135,-0.73319 -0.260132,-0.40605 -1.423307,0.85989 -2.134293,2.32287 -2.351901,2.1749 3.295615,2.24088 6.043772,0.0706 17.537955,0.0908 17.537955,0.0308 0,-0.0239 -0.579242,-0.39986 -1.287204,-0.83547 l -1.287205,-0.79203 -0.689153,0.68916 c -0.947393,0.94739 -1.090578,0.64715 -0.207422,-0.43494 l 0.721635,-0.88418 1.261501,0.85138 c 1.491467,1.00658 3.228589,1.58031 4.214278,1.39188 0.445516,-0.0852 0.926246,-0.49137 1.298403,-1.09712 0.325028,-0.52904 1.432367,-1.91439 2.460757,-3.07856 2.885199,-3.26613 3.698764,-4.92619 2.576388,-5.25707 -0.360576,-0.1063 -0.345942,-0.12463 0.06615,-0.0828 1.22972,0.1247 0.684223,2.27539 -1.052414,4.1493 -1.886887,2.03603 -2.553147,2.97016 -2.401081,3.36644 0.08862,0.23094 0.01574,0.33768 -0.184346,0.26999 -0.406283,-0.13744 -1.60416,1.41386 -1.315016,1.703 0.381093,0.38109 14.351783,0.40972 42.3914,0.0869 z m -61.177194,-1.38874 c -0.612254,-1.50094 -1.238928,-3.77301 -1.040658,-3.77301 0.09634,0 0.948598,0.79685 1.893904,1.77078 1.332906,1.37326 1.472612,1.58114 0.622333,0.92604 -0.940408,-0.72454 -1.681718,-1.05937 -1.681718,-0.75958 0,0.0468 0.191985,0.64861 0.426633,1.33726 0.515925,1.51416 0.348349,1.89303 -0.220494,0.49851 z m 4.113142,0.26189 c -0.250481,-0.40019 -1.008695,-1.32607 -1.684922,-2.05751 -0.676228,-0.73145 -1.368289,-1.58923 -1.537915,-1.90618 -0.288473,-0.53902 -0.201326,-0.52359 1.348095,0.23865 1.678125,0.82555 2.327862,1.24394 1.428607,0.91992 -0.363612,-0.13101 -0.453681,-0.0763 -0.344205,0.20895 0.106387,0.27724 0.02127,0.33884 -0.30127,0.21805 -0.393467,-0.14735 -0.40391,-0.11226 -0.08371,0.28132 0.301244,0.37029 0.441383,0.39071 0.79375,0.11568 0.381775,-0.29797 0.388067,-0.28322 0.05835,0.13679 -0.321993,0.41018 -0.303347,0.54641 0.144846,1.05833 0.995908,1.13752 1.225659,1.5136 0.924671,1.5136 -0.159985,0 -0.495818,-0.32742 -0.746299,-0.7276 z m -1.673447,-3.24115 c 0,-0.14552 -0.12609,-0.26458 -0.280199,-0.26458 -0.15411,0 -0.206614,0.11906 -0.116676,0.26458 0.08994,0.14552 0.216027,0.26458 0.280199,0.26458 0.06417,0 0.116676,-0.11906 0.116676,-0.26458 z m 39.856501,3.48774 c -0.0659,-0.24477 -0.193731,-0.77662 -0.284067,-1.1819 -0.09034,-0.40527 -0.692775,-1.45481 -1.338747,-2.33231 -0.645975,-0.87749 -1.249476,-1.99511 -1.341117,-2.48359 -0.2114,-1.12685 0.08429,-2.5311 0.642937,-3.05338 0.556612,-0.52038 2.059649,-1.58031 2.240965,-1.58031 0.07677,0 0.401088,0.36726 0.720715,0.81613 0.5603,0.78687 0.562385,0.81296 0.05813,0.72761 -0.567862,-0.0961 -1.926148,0.526 -1.926148,0.88222 0,0.12093 0.474324,0.21987 1.054052,0.21987 h 1.054053 l -0.442862,0.9287 c -0.298167,0.62526 -0.530173,0.84137 -0.710095,0.66145 -0.453069,-0.45307 -1.219731,-0.30938 -1.219731,0.22861 0,0.57798 1.058516,2.55343 2.303153,4.29826 0.479515,0.67222 0.871847,1.34519 0.871847,1.49547 0,0.15029 -0.351735,0.39586 -0.78163,0.54573 -0.653015,0.22764 -0.801346,0.19925 -0.901451,-0.17256 z m 13.192458,0.0529 c -1.45521,-0.185 -3.419742,-0.3513 -4.365628,-0.36957 -0.945885,-0.0183 -1.957916,-0.13554 -2.248958,-0.2606 -0.749731,-0.32217 2.277748,-0.3342 4.118594,-0.0164 0.790712,0.13652 2.295872,0.32669 3.344792,0.42261 l 1.90715,0.17439 -0.22068,-0.75334 c -0.12137,-0.41434 -0.64827,-1.38461 -1.1709,-2.15616 -1.49222,-2.20297 -1.88999,-4.34514 -1.09299,-5.88637 l 0.40367,-0.78061 h -0.93284 c -1.02812,0 -1.07062,0.0511 -0.62955,0.75741 0.74667,1.19561 -0.78877,2.94363 -2.587533,2.94577 -0.990513,10e-4 -1.240669,0.5958 -0.848371,2.01658 0.143425,0.51945 0.221522,0.9837 0.173548,1.03167 -0.04797,0.048 -0.503139,-0.003 -1.011475,-0.11326 -0.612093,-0.13277 -0.889339,-0.32699 -0.820886,-0.57505 0.05685,-0.20602 0.160607,-1.34792 0.230574,-2.53755 0.112905,-1.91968 0.06205,-2.2545 -0.452107,-2.97657 l -0.579321,-0.81358 h 3.731493 c 2.989388,0 3.861188,-0.085 4.383638,-0.4273 0.84744,-0.55527 0.82491,-0.83909 -0.0755,-0.95052 -0.71196,-0.0881 -0.70908,-0.0932 0.13396,-0.23657 0.79554,-0.13531 0.92226,-0.052 1.65365,1.08782 0.43564,0.6789 0.79208,1.29261 0.79208,1.36381 0,0.0712 -0.33799,0.0798 -0.75108,0.0192 -0.74346,-0.10912 -1.63017,0.45847 -1.63017,1.04348 0,0.28554 1.37296,0.18418 2.16027,-0.15948 0.38384,-0.16754 0.42169,-0.0451 0.29433,0.95187 -0.17857,1.39789 -0.16873,1.3856 -0.82704,1.03328 -0.29394,-0.15731 -0.83609,-0.28602 -1.20476,-0.28602 -0.58322,0 -0.64206,0.0774 -0.45281,0.59532 0.11964,0.32742 0.48364,0.73066 0.8089,0.8961 0.32555,0.16558 0.45196,0.34726 0.28123,0.40417 -0.18499,0.0617 0.19144,0.78476 0.93278,1.7918 l 1.24294,1.68841 -0.62573,0.49463 c -1.11754,0.88339 -1.38398,0.92144 -4.06532,0.58058 z m -2.922868,-7.28723 c 1.017868,-0.46377 0.874158,-1.19917 -0.260223,-1.3316 -1.114129,-0.13007 -1.182537,-0.0786 -1.182537,0.889 0,0.82855 0.356005,0.93776 1.44276,0.4426 z m 8.826378,7.53465 c 0.191,-0.0764 0.4192,-0.067 0.50712,0.0209 0.0879,0.0879 -0.0684,0.15045 -0.34726,0.13896 -0.30823,-0.0127 -0.37092,-0.0754 -0.15986,-0.15985 z m -74.442937,-0.32845 c 0.098,-0.15858 0.540932,-0.4759 0.984284,-0.70517 0.443351,-0.22927 0.725907,-0.2871 0.627902,-0.12853 -0.09801,0.15858 -0.540932,0.4759 -0.984284,0.70517 -0.443351,0.22926 -0.725907,0.2871 -0.627902,0.12853 z m 20.733983,-1.47272 c -0.390285,-0.9423 -0.606418,-1.77705 -0.480291,-1.855 0.307941,-0.19031 3.703442,1.21768 3.703442,1.53569 0,0.13789 -0.343845,0.18193 -0.764096,0.0979 -0.540562,-0.10811 -0.888875,-0.0149 -1.190624,0.31849 -0.479087,0.52938 -0.562457,1.0911 -0.161947,1.0911 0.145521,0 0.264584,0.11906 0.264584,0.26458 0,0.14553 -0.148828,0.26367 -0.330729,0.26256 -0.181902,-0.001 -0.650053,-0.77301 -1.040339,-1.7153 z m 0.881589,-0.53163 c 0,-0.13825 -0.127993,-0.29402 -0.284428,-0.34616 -0.156434,-0.0522 -0.284427,0.10362 -0.284427,0.34616 0,0.24253 0.127993,0.39831 0.284427,0.34616 0.156435,-0.0521 0.284428,-0.20792 0.284428,-0.34616 z m 24.099995,1.78596 c 0.0789,-0.44478 -0.221287,-0.63735 -1.922071,-1.23299 -2.004377,-0.70197 -4.122375,-2.19168 -5.000188,-3.51694 -0.676085,-1.0207 -0.813258,-1.48969 -0.813258,-2.78047 0,-1.87659 0.753131,-3.54533 1.775497,-3.93403 0.382543,-0.14544 1.355045,-0.27232 2.161117,-0.28195 1.35383,-0.0162 1.531985,0.0549 2.336361,0.93268 0.978045,1.06723 1.106897,1.99733 0.483422,3.48951 -0.267557,0.64035 -0.684088,1.05105 -1.346816,1.32795 -0.88428,0.36948 -1.035338,0.36164 -1.927752,-0.10003 -0.876268,-0.45333 -0.975897,-0.61672 -1.048358,-1.71934 -0.074,-1.12601 -0.01865,-1.25017 0.729993,-1.6373 0.611114,-0.31602 0.93944,-0.34966 1.336842,-0.13698 0.794181,0.42503 0.689409,1.10795 -0.138118,0.90026 -0.635971,-0.15962 -1.451771,0.23343 -1.451771,0.69946 0,0.42463 0.845002,1.04483 1.423537,1.04483 1.089462,0 1.606011,-0.62603 1.555785,-1.88553 -0.05475,-1.37294 -0.542909,-1.81863 -1.99191,-1.81863 -1.528303,0 -2.574912,1.12627 -2.574912,2.77091 0,1.51078 0.449543,2.41279 1.81915,3.65015 1.217049,1.09953 2.114394,1.60191 3.914958,2.1918 2.93279,0.96083 4.878398,1.78141 4.672338,1.9706 -0.120994,0.11109 -1.084787,0.25979 -2.141763,0.33044 -1.600671,0.10699 -1.910127,0.0628 -1.852083,-0.2644 z m -40.838263,-0.65535 c 0.498181,-0.92006 0.503766,-1.00552 0.08344,-1.27675 -0.422586,-0.27269 -0.422334,-0.28198 0.0041,-0.14998 0.250001,0.0774 0.524919,0.0268 0.610928,-0.11231 0.138457,-0.22403 -0.598227,-0.37902 -1.330059,-0.27983 -0.14552,0.0197 0.07767,-0.27088 0.495981,-0.64579 0.458193,-0.41065 0.928333,-0.61727 1.18256,-0.51971 0.232098,0.0891 0.33524,0.0752 0.229204,-0.0309 -0.199186,-0.19918 0.804309,-1.42267 1.166865,-1.42267 0.227708,0 -1.74555,3.78023 -2.496588,4.78279 -0.383254,0.5116 -0.372421,0.44191 0.05361,-0.34489 z m 0.955872,-2.32124 c 0.08994,-0.14552 -0.0221,-0.26458 -0.248968,-0.26458 -0.22687,0 -0.41249,0.11906 -0.41249,0.26458 0,0.14553 0.112036,0.26459 0.248968,0.26459 0.136933,0 0.322553,-0.11906 0.41249,-0.26459 z m 36.778956,2.91345 c -0.09269,-0.14998 0.01352,-0.19434 0.248967,-0.10398 0.45837,0.17589 0.542235,0.36553 0.16165,0.36553 -0.136932,0 -0.321712,-0.11769 -0.410617,-0.26155 z m -13.363332,-1.07198 c -1.344993,-1.18199 -1.52374,-1.23416 -2.003541,-0.58474 -0.228396,0.30914 -0.430551,0.37508 -0.608274,0.19843 -0.325681,-0.32371 1.714669,-2.60867 2.110798,-2.36385 0.164666,0.10177 0.135768,0.31426 -0.07772,0.5715 -0.28938,0.34868 -0.153762,0.57324 0.913194,1.51211 1.125093,0.99003 1.592852,1.75477 1.054605,1.72417 -0.109141,-0.006 -0.734219,-0.48213 -1.389062,-1.05762 z m -28.584736,-0.0932 0.916304,-0.96387 -0.784012,-0.78246 c -0.562485,-0.56137 -0.947049,-0.73959 -1.361017,-0.63074 -0.401031,0.10545 -0.527134,0.28498 -0.413483,0.58867 0.14047,0.37535 0.102381,0.38725 -0.270195,0.0844 -0.263461,-0.21418 -0.672389,-0.2804 -1.041725,-0.1687 -0.399206,0.12074 -0.517146,0.0947 -0.343426,-0.0759 0.302793,-0.29728 8.130397,-3.00229 8.273566,-2.85912 0.152254,0.15225 -4.741321,5.17976 -5.342841,5.48907 -0.357389,0.18378 -0.229153,-0.0544 0.366829,-0.68133 z m 1.464946,-1.74833 c 0.09237,-0.29104 0.297443,-0.52916 0.455711,-0.52916 0.158269,0 0.0716,-0.23886 -0.192596,-0.53079 -0.576533,-0.63706 -0.889153,-0.4741 -0.371524,0.19366 0.306438,0.39533 0.270626,0.38986 -0.22688,-0.0346 -0.701407,-0.59844 -0.786441,-0.29052 -0.127732,0.46253 0.515686,0.58954 0.03048,0.40351 -0.79375,-0.30434 -0.658631,-0.56562 -0.574525,-0.0715 0.112266,0.65952 0.704731,0.75015 0.927678,0.76635 1.144505,0.0832 z m 58.208331,2.38125 -0.79375,-0.20197 0.711989,-0.0313 c 0.391594,-0.0172 0.785574,0.0877 0.875511,0.23327 0.08994,0.14553 0.12673,0.2505 0.08176,0.23328 -0.04497,-0.0172 -0.438949,-0.12219 -0.875512,-0.23328 z m 8.196076,0.1094 c -0.14883,-0.0624 -0.98227,-0.21704 -1.85208,-0.34372 -1.523674,-0.22189 -1.537964,-0.23104 -0.39087,-0.25023 0.65484,-0.011 1.96453,0.13893 2.91042,0.33307 1.49956,0.30779 1.58426,0.35435 0.66145,0.36364 -0.58208,0.006 -1.1801,-0.0404 -1.32892,-0.10276 z m -57.855059,-0.29014 c 0.190996,-0.0764 0.4192,-0.067 0.507118,0.0209 0.08792,0.0879 -0.06835,0.15046 -0.347265,0.13897 -0.308225,-0.0127 -0.37092,-0.0754 -0.159853,-0.15986 z m 28.095442,-0.34842 c -0.531741,-0.1703 -0.557686,-0.21336 -0.132291,-0.21962 0.291041,-0.004 0.767291,0.0945 1.058333,0.21962 0.674216,0.28972 -0.02138,0.28972 -0.926042,0 z m -28.360025,-0.18074 c 0.190996,-0.0764 0.419199,-0.067 0.507118,0.0209 0.08792,0.0879 -0.06835,0.15045 -0.347265,0.13896 -0.308225,-0.0127 -0.37092,-0.0754 -0.159853,-0.15985 z m 52.243705,-0.003 c 0.257432,-0.0671 0.614619,-0.0627 0.79375,0.01 0.179131,0.0725 -0.03149,0.12736 -0.468056,0.12197 -0.436562,-0.005 -0.583125,-0.0647 -0.325694,-0.13177 z m -58.544095,-0.34542 c -0.218282,-0.14106 -0.277813,-0.25648 -0.132292,-0.25648 0.145521,0 0.443177,0.11542 0.661458,0.25648 0.218281,0.14107 0.277813,0.25648 0.132292,0.25648 -0.145521,0 -0.443177,-0.11541 -0.661458,-0.25648 z m 56.686977,0.0822 c 0.254661,-0.0666 0.67138,-0.0666 0.926042,0 0.254661,0.0665 0.0463,0.121 -0.463021,0.121 -0.509323,0 -0.717682,-0.0545 -0.463021,-0.121 z m -67.005727,-0.18836 c 0,-0.30184 1.97902,-1.21392 2.594811,-1.19589 0.618954,0.0181 0.538823,0.10451 -0.610436,0.65806 -1.223862,0.58947 -1.984375,0.7956 -1.984375,0.53783 z m 63.835762,-0.0772 c 0.257432,-0.0671 0.614619,-0.0627 0.79375,0.01 0.179131,0.0725 -0.03149,0.12736 -0.468056,0.12197 -0.436562,-0.005 -0.583126,-0.0647 -0.325694,-0.13177 z m 1.714757,0.008 c 0.181901,-0.0734 0.479557,-0.0734 0.661458,0 0.181901,0.0734 0.03307,0.13345 -0.330729,0.13345 -0.363802,0 -0.51263,-0.06 -0.330729,-0.13345 z m -49.45044,-1.31359 c 0.09757,-1.21669 0.411483,-1.52209 0.645333,-0.62785 0.07835,0.29961 0.0056,0.53724 -0.167579,0.54777 -0.168277,0.0102 -0.06783,0.12092 0.223208,0.24598 0.472347,0.20298 0.477773,0.22939 0.05053,0.24599 -0.26325,0.0102 -0.412762,0.12518 -0.332249,0.25546 0.08051,0.13027 -0.0017,0.29374 -0.182823,0.36325 -0.239647,0.092 -0.303966,-0.18836 -0.23642,-1.0306 z m 8.704608,0.0981 c 0.618463,-0.6838 1.124479,-1.31935 1.124479,-1.41233 0,-0.093 -0.294053,-0.11283 -0.653452,-0.0441 -0.405231,0.0775 -0.589754,0.0219 -0.485762,-0.14641 0.101878,-0.16484 -0.0051,-0.20502 -0.272592,-0.10237 -0.261567,0.10037 -0.441923,0.0381 -0.444328,-0.15348 -0.0026,-0.20392 -0.09832,-0.17655 -0.260533,0.0744 -0.18637,0.28839 -0.257588,0.3022 -0.260532,0.0505 -0.0022,-0.19049 -0.123114,-0.27276 -0.268634,-0.18282 -0.145521,0.0899 -0.264584,0.0573 -0.264584,-0.0726 0,-0.12986 -0.194508,-0.2361 -0.432242,-0.2361 -0.294526,0 -0.147005,0.24686 0.463021,0.77483 l 0.895263,0.77483 -0.926042,-0.604 c -0.509323,-0.3322 -1.270323,-0.88582 -1.691111,-1.23025 l -0.765071,-0.62624 0.765071,0.17478 c 0.420788,0.0961 1.705682,0.45567 2.855317,0.79896 l 2.090248,0.62418 0.977914,-0.77452 c 0.53785,-0.42599 1.134477,-0.96317 1.325835,-1.19374 0.19136,-0.23058 0.715687,-0.66557 1.165174,-0.96667 0.968426,-0.6487 -1.949889,2.20378 -4.367238,4.26873 l -1.694681,1.44763 z m 11.634898,-0.12244 c -1.020736,-0.81823 -1.440101,-1.31298 -1.263023,-1.49006 0.177078,-0.17708 0.442878,-0.10421 0.800518,0.21945 0.51903,0.46971 0.551889,0.46964 1.073515,-0.002 l 0.538094,-0.48697 -0.714338,-0.56959 c -0.521359,-0.41572 -0.624038,-0.6254 -0.380082,-0.77617 0.216556,-0.13384 0.758521,0.22375 1.539163,1.01555 0.662699,0.67219 1.30597,1.22215 1.429488,1.22215 0.123518,0 0.224579,0.11906 0.224579,0.26458 0,0.40634 -0.564576,0.31456 -1.111883,-0.18075 -0.461573,-0.41772 -0.520292,-0.41666 -0.946875,0.0171 -0.430371,0.43758 -0.422825,0.48862 0.140529,0.95077 0.575413,0.47204 0.803529,1.07739 0.396875,1.05319 -0.109141,-0.006 -0.886093,-0.56305 -1.72656,-1.23678 z m -6.806253,0.41469 c -0.363802,-0.30344 -0.948952,-0.77852 -1.300331,-1.05573 l -0.638877,-0.50402 0.754523,-0.78755 c 0.983382,-1.02643 1.672913,-1.01779 2.066862,0.0259 0.211521,0.56038 0.532291,0.8585 1.031057,0.95826 0.398206,0.0796 0.652777,0.26006 0.565714,0.40093 -0.08706,0.14087 -0.540129,0.1845 -1.006814,0.097 -1.124738,-0.211 -1.340795,0.068 -0.634682,0.81963 0.745402,0.79345 0.101208,0.82855 -0.837452,0.0456 z m 0.264584,-1.81194 c 0,-0.72361 -0.55313,-0.9516 -0.959705,-0.39558 -0.297664,0.40708 -0.282141,0.52882 0.103367,0.81071 0.549654,0.40192 0.856338,0.25325 0.856338,-0.41513 z m 53.862796,1.98811 c -0.75873,-0.27033 -1.17882,-0.29469 -1.56038,-0.0905 -0.37103,0.19857 -0.81583,0.19144 -1.53712,-0.0247 -1.53577,-0.46013 -2.05644,-1.86431 -1.03429,-2.78934 0.67739,-0.61303 1.86274,-0.36021 1.86274,0.39731 0,0.43233 -0.12105,0.49878 -0.66146,0.36315 -0.48536,-0.12182 -0.66145,-0.0604 -0.66145,0.23086 0,0.63078 1.29664,0.82461 1.89484,0.28325 0.7645,-0.69186 0.50319,-1.46921 -0.70406,-2.09444 -0.6138,-0.31788 -1.15936,-0.83575 -1.29913,-1.23318 -0.35233,-1.00184 0.23194,-2.22131 1.23115,-2.56963 0.79968,-0.27877 3.11053,-0.39648 3.11053,-0.15844 0,0.0678 -0.1931,0.52825 -0.42912,1.02318 -0.39665,0.83179 -0.48376,0.87923 -1.1516,0.62715 -0.39738,-0.14999 -0.94841,-0.18591 -1.22454,-0.0798 -0.43733,0.16803 -0.323,0.34719 0.88703,1.39002 1.20813,1.04119 1.38906,1.3242 1.38906,2.17276 0,0.5366 -0.18298,1.23688 -0.40663,1.55619 -0.38638,0.55164 -0.36991,0.58845 0.33073,0.7392 0.40555,0.0873 0.97549,0.26117 1.26653,0.38646 0.88567,0.38127 -0.16132,0.27718 -1.30283,-0.12953 z m -25.353943,-0.0582 c 0.327422,-0.0631 0.863203,-0.0631 1.190625,0 0.327422,0.0631 0.05953,0.11466 -0.595313,0.11466 -0.654843,0 -0.922734,-0.0516 -0.595312,-0.11466 z m -6.153441,-0.34548 c -0.09097,-0.1472 -0.08309,-1.49639 0.01751,-2.99821 0.122087,-1.8226 0.08586,-2.91192 -0.108939,-3.27591 -0.264292,-0.49383 -0.202414,-0.5621 0.65537,-0.72302 1.163802,-0.21833 1.245886,-0.14532 0.889746,0.7914 -0.420687,1.10649 -0.165113,1.44627 1.087837,1.44627 h 1.101045 l -0.134199,-1.19062 c -0.133673,-1.18594 -0.130942,-1.19062 0.693195,-1.19038 l 0.827394,2.4e-4 v 3.43948 3.43947 l -0.79375,4.3e-4 -0.79375,4.2e-4 0.08872,-1.72035 0.08872,-1.72035 h -1.06892 c -1.01487,0 -1.077825,0.0475 -1.245004,0.93862 -0.09685,0.51623 -0.100836,1.4092 -0.0089,1.98437 0.156575,0.97917 0.125902,1.04576 -0.481748,1.04576 -0.356933,0 -0.723397,-0.12043 -0.814369,-0.26762 z m 34.265424,0.16557 c 0,-0.0561 0.17786,-0.44308 0.39524,-0.8599 0.43539,-0.83481 0.48263,-1.5255 0.23026,-3.36675 -0.15299,-1.11616 -0.23317,-1.22755 -0.88358,-1.22755 -0.5118,0 -0.80364,-0.19384 -1.02573,-0.68129 -0.17073,-0.3747 -0.25111,-0.77725 -0.17862,-0.89454 0.0725,-0.11729 1.18361,-0.21326 2.46914,-0.21326 2.64135,0 3.37296,-0.27103 4.81412,-1.7834 1.0743,-1.12738 2.60534,-1.98376 3.54658,-1.98376 2.12331,0 3.13356,3.74932 1.32887,4.9318 -0.63435,0.41563 -0.71132,0.41151 -1.36002,-0.0728 -0.77118,-0.57577 -1.00789,-1.46038 -0.59648,-2.22911 0.28213,-0.52716 1.31439,-0.72243 1.31439,-0.24863 0,0.14552 -0.13395,0.23481 -0.29766,0.19843 -0.16371,-0.0364 -0.35225,0.0828 -0.41898,0.26477 -0.0777,0.21203 0.0292,0.27315 0.29765,0.17013 0.26928,-0.10333 0.41899,-0.0167 0.41899,0.24235 0,0.22173 -0.14015,0.44985 -0.31143,0.50695 -0.45707,0.15235 -0.004,0.73403 0.5711,0.73403 0.32929,0 0.595,-0.30895 0.80005,-0.93023 0.62387,-1.89037 -1.22433,-3.49489 -3.02552,-2.62661 -0.44678,0.21537 -1.40764,1.09893 -2.13525,1.96347 -0.91171,1.0833 -1.71355,1.73515 -2.57968,2.09713 l -1.25677,0.52525 v 1.87989 c 0,1.1307 0.15396,2.17761 0.38632,2.62695 0.21248,0.41088 0.31169,0.82169 0.22048,0.9129 -0.1766,0.1766 -2.72347,0.23626 -2.72347,0.0638 z m -23.878814,-0.34479 c -0.574974,-0.15024 -0.443759,-0.79838 0.686202,-3.38946 1.135341,-2.60342 1.477346,-3.08321 2.131214,-2.98984 0.405677,0.0579 0.624583,0.36582 0.808937,1.13776 0.139014,0.58208 0.328655,1.11786 0.421423,1.19062 0.09277,0.0728 0.412668,0.84667 0.710887,1.71979 0.298218,0.87313 0.627333,1.79586 0.731364,2.05052 0.161981,0.39652 0.03307,0.46302 -0.897493,0.46302 -1.188482,0 -1.23064,-0.0412 -0.780301,-0.76229 0.542642,-0.8689 0.100902,-1.35437 -1.232381,-1.35437 -1.237335,0 -1.272982,0.0315 -1.570443,1.38906 -0.08769,0.40018 -0.246459,0.71379 -0.352827,0.69691 -0.106368,-0.0169 -0.401831,-0.0851 -0.656582,-0.15172 z m 3.24131,-3.47118 c 0,-0.67802 -0.601782,-1.40141 -0.971211,-1.16747 -0.170363,0.10789 -0.391629,0.52239 -0.491702,0.92111 -0.169103,0.67376 -0.123873,0.72495 0.640479,0.72495 0.617078,0 0.822434,-0.1195 0.822434,-0.47859 z m 5.873551,2.86343 c -1.50654,-0.35679 -1.287417,-0.55906 0.431676,-0.39846 2.186687,0.20427 3.315997,0.63019 1.632277,0.6156 -0.65485,-0.006 -1.583626,-0.10338 -2.063953,-0.21714 z m -38.160604,-0.51802 c 0.151424,-0.28293 0.406088,-0.59525 0.56592,-0.69403 0.159835,-0.0988 0.08597,0.13271 -0.164142,0.51443 -0.529596,0.80826 -0.803836,0.93086 -0.401778,0.1796 z m 16.362444,0.33369 c 0.190995,-0.0764 0.419198,-0.067 0.507119,0.0209 0.08792,0.0879 -0.06835,0.15046 -0.347266,0.13897 -0.308226,-0.0127 -0.370919,-0.0754 -0.159853,-0.15986 z m -45.37032,-0.64665 c 0.352226,-0.20479 0.439997,-0.46256 0.320124,-0.94017 -0.106342,-0.4237 -0.06716,-0.59746 0.110035,-0.48795 0.151354,0.0935 0.275188,0.0255 0.275188,-0.15113 0,-0.19932 0.200793,-0.13949 0.529167,0.15769 0.590558,0.53444 0.66851,0.38272 0.246826,-0.48042 -0.241098,-0.4935 -0.203309,-0.4813 0.2587,0.0835 0.297573,0.3638 0.543688,0.5056 0.546924,0.31512 0.0032,-0.19049 0.124946,-0.27276 0.270467,-0.18283 0.14552,0.0899 0.264583,0.0374 0.264583,-0.11667 0,-0.15411 -0.165855,-0.2802 -0.368567,-0.2802 -0.202713,0 -0.432063,-0.16547 -0.509668,-0.3677 -0.166684,-0.43438 0.863075,-0.69483 2.697245,-0.68222 1.150089,0.008 1.191867,0.0325 0.694532,0.40904 -0.711817,0.53891 -5.333675,3.02421 -5.605217,3.01408 -0.118589,-0.004 0.0028,-0.13501 0.269661,-0.29018 z m 1.234514,-0.74449 c 0,-0.13693 -0.119062,-0.32255 -0.264583,-0.41249 -0.145521,-0.0899 -0.264584,0.0221 -0.264584,0.24897 0,0.22687 0.119063,0.41249 0.264584,0.41249 0.145521,0 0.264583,-0.11204 0.264583,-0.24897 z m 25.595299,-0.3792 -1.259909,-1.12578 0.663554,-0.62337 c 0.762246,-0.7161 1.242862,-0.52336 0.564398,0.22634 -0.425132,0.46977 -0.424074,0.50834 0.01863,0.67822 0.258167,0.0991 0.511355,0.0542 0.562639,-0.0996 0.05128,-0.15385 0.27649,-0.27973 0.500462,-0.27973 0.330428,0 0.345636,0.0742 0.08064,0.39351 -0.179621,0.21643 -0.250212,0.59252 -0.156872,0.83576 0.146534,0.38186 0.277035,0.33943 0.955643,-0.31071 0.982554,-0.94135 1.017159,-0.54468 0.05121,0.58702 l -0.720486,0.84412 z m 7.294472,0.0184 c -0.75557,-0.61053 -1.380649,-1.19844 -1.389062,-1.30648 -0.02841,-0.36488 1.120788,-1.50654 1.364726,-1.35578 0.133075,0.0822 0.02742,0.38659 -0.234792,0.67633 -0.460155,0.50846 -0.458559,0.54009 0.04586,0.90893 0.322617,0.2359 0.557519,0.27738 0.613849,0.1084 0.05019,-0.15056 0.274498,-0.27375 0.49847,-0.27375 0.337836,0 0.349223,0.0699 0.06683,0.41016 -0.281636,0.33935 -0.261803,0.48779 0.114874,0.85989 0.398473,0.39364 0.48415,0.40023 0.68676,0.0529 0.551051,-0.94475 0.991214,-1.38606 1.140892,-1.14387 0.158284,0.2561 -1.076376,2.21568 -1.37845,2.18778 -0.0859,-0.008 -0.774378,-0.51395 -1.529951,-1.12448 z m -36.990813,0.0806 c 0.08994,-0.14552 0.216026,-0.26458 0.280199,-0.26458 0.06417,0 0.116676,0.11906 0.116676,0.26458 0,0.14552 -0.126089,0.26458 -0.280198,0.26458 -0.154109,0 -0.206613,-0.11906 -0.116677,-0.26458 z m 33.062873,-0.33073 c 0.585811,-0.83663 2.814936,-3.10885 3.049891,-3.10885 0.107294,0 -0.579069,0.83343 -1.525254,1.85208 -1.763043,1.89806 -2.261187,2.30868 -1.524637,1.25677 z m 27.080225,0.41457 c 0.190994,-0.0764 0.4192,-0.067 0.507119,0.0209 0.08792,0.0879 -0.06835,0.15046 -0.347266,0.13897 -0.308226,-0.0127 -0.370919,-0.0754 -0.159853,-0.15986 z m -38.53164,-1.30283 c -0.628492,-0.37666 -1.080419,-0.74712 -1.004287,-0.82325 0.07613,-0.0761 0.828476,-0.042 1.671875,0.0758 0.843399,0.11785 1.265563,0.25959 0.938141,0.31499 -0.327422,0.0554 -0.595312,0.21852 -0.595312,0.36251 0,0.14399 0.119062,0.18821 0.264583,0.0983 0.145521,-0.0899 0.264583,0.0221 0.264583,0.24896 0,0.55849 -0.207179,0.52117 -1.539583,-0.27733 z m -24.508645,0.21265 c 0.350105,-0.29612 4.104897,-1.44602 4.249505,-1.30141 0.06494,0.0649 -0.450896,0.28332 -1.146293,0.4853 l -1.264358,0.36724 1.190625,0.17068 1.190625,0.17067 -1.248164,-0.0249 c -0.686489,-0.0137 -1.331411,0.0583 -1.433159,0.16005 -0.101748,0.10175 -0.546152,0.185 -0.987566,0.185 -0.441413,0 -0.68946,-0.0957 -0.551215,-0.21259 z m 14.803437,-0.39716 c -1.528786,-0.73747 -2.069621,-1.27766 -2.635742,-2.63258 -0.787778,-1.88542 -0.443357,-3.67278 0.998324,-5.18076 1.147287,-1.20006 1.980192,-1.59179 3.513495,-1.65249 2.675161,-0.10589 4.587827,1.02187 5.518847,3.25406 0.729917,1.75003 0.331002,4.13218 -0.881069,5.2614 -1.644331,1.53193 -4.457452,1.94236 -6.513855,0.95037 z m 1.772858,-2.65294 c 0.06748,-1.16472 0.157698,-1.36752 0.608392,-1.36752 0.447842,0 0.549498,0.22049 0.661458,1.43467 0.07802,0.84611 0.274026,1.48129 0.477784,1.54832 0.265901,0.0875 0.334895,-0.33446 0.299491,-1.83154 -0.06283,-2.65662 -0.27908,-4.45874 -0.535049,-4.45874 -0.117277,0 -0.249521,0.56555 -0.293875,1.25677 -0.06734,1.04951 -0.173516,1.27002 -0.643786,1.3371 -0.483061,0.0689 -0.588836,-0.091 -0.743816,-1.12447 -0.326493,-2.17722 -0.594409,-1.26125 -0.569548,1.94721 0.01875,2.42001 0.09819,3.09091 0.342074,2.88887 0.174707,-0.14473 0.3533,-0.87853 0.396875,-1.63067 z m 4.337139,0.98392 c 0.350283,-0.0879 0.636878,-0.27891 0.636878,-0.42443 0,-0.1501 -0.286198,-0.19275 -0.661458,-0.0986 -0.611697,0.15353 -0.661459,0.096 -0.661459,-0.76506 0,-0.7547 0.100248,-0.93109 0.529167,-0.93109 0.291042,0 0.529167,-0.11906 0.529167,-0.26458 0,-0.14552 -0.297657,-0.26458 -0.661459,-0.26458 -0.563923,0 -0.661458,-0.12147 -0.661458,-0.82378 0,-0.76481 0.05682,-0.81544 0.79375,-0.70729 0.916924,0.13458 1.088522,-0.24662 0.198437,-0.44082 -1.1814,-0.25776 -1.486945,-0.27373 -1.504003,-0.0786 -0.0095,0.10914 -0.01735,1.34227 -0.01735,2.74028 0,2.21661 0.05393,2.52116 0.421455,2.38012 0.2318,-0.0889 0.70805,-0.23365 1.058333,-0.32157 z m -6.595715,-2.40248 c -0.133656,-1.43129 -0.0824,-1.86252 0.26733,-2.24896 0.401217,-0.44334 0.399884,-0.47812 -0.01833,-0.47812 -0.635198,0 -2.012243,0.75002 -2.012243,1.09598 0,0.15876 0.238125,0.22638 0.529167,0.15027 0.4885,-0.12774 0.529166,-0.008 0.529166,1.55664 0,1.39654 0.07662,1.69502 0.435135,1.69502 0.37692,0 0.413012,-0.23691 0.269772,-1.77083 z m -8.489903,2.38791 c 0.279925,-0.29323 0.598252,-0.48546 0.707392,-0.4272 0.109141,0.0583 0.200261,-0.0499 0.202489,-0.24041 0.0029,-0.25167 0.07416,-0.23785 0.260532,0.0505 0.2074,0.32093 0.257256,0.28296 0.260532,-0.19843 0.0035,-0.51555 0.136995,-0.59178 0.996239,-0.56894 0.545703,0.0145 1.289844,0.11718 1.653646,0.22816 0.771514,0.23537 0.681803,0.27825 -1.984375,0.94868 -1.018646,0.25614 -2.021582,0.52759 -2.228747,0.60322 -0.234115,0.0855 -0.18405,-0.0642 0.132292,-0.39561 z m 2.950838,-1.04151 c -0.08792,-0.0879 -0.316122,-0.0973 -0.507118,-0.0209 -0.211067,0.0845 -0.148372,0.14716 0.159853,0.15985 0.278915,0.0115 0.435184,-0.051 0.347265,-0.13896 z m 24.810199,1.21818 -1.322916,-0.18145 1.322916,-0.0152 c 0.727604,-0.008 1.620573,0.0801 1.984375,0.19664 l 0.661458,0.21184 -0.661458,-0.0152 c -0.363802,-0.008 -1.256771,-0.0968 -1.984375,-0.19665 z m -6.002734,-0.18074 c 0.190995,-0.0764 0.419198,-0.067 0.507119,0.0209 0.08792,0.0879 -0.06835,0.15046 -0.347266,0.13897 -0.308226,-0.0127 -0.370919,-0.0754 -0.159853,-0.15986 z m 13.278776,-0.0838 c -0.326549,-0.21103 -0.303107,-0.25165 0.132291,-0.22923 0.291042,0.015 0.886354,0.11814 1.322917,0.22923 l 0.79375,0.20198 -0.926042,0.0273 c -0.509323,0.015 -1.104635,-0.0882 -1.322916,-0.22923 z m -39.422916,-0.2802 c 0,-0.15411 0.119063,-0.20661 0.264584,-0.11667 0.14552,0.0899 0.264583,0.21602 0.264583,0.28019 0,0.0642 -0.119063,0.11668 -0.264583,0.11668 -0.145521,0 -0.264584,-0.12609 -0.264584,-0.2802 z m 23.878645,-0.15961 c -1.543005,-0.54618 -1.41157,-0.89176 0.264584,-0.69566 2.039514,0.23861 3.057974,0.62369 1.25677,0.47518 -1.268552,-0.10459 -1.344911,-0.0859 -0.595312,0.14543 0.862401,0.26618 1.148313,0.53308 0.529167,0.49397 -0.181901,-0.0115 -0.836745,-0.2 -1.455209,-0.41892 z m 3.808947,-0.20901 c -1.184164,-1.09745 -0.812175,-2.53669 0.842558,-3.25989 0.53399,-0.23337 1.495605,-0.61025 2.136923,-0.83749 l 1.166035,-0.41317 -0.02502,-2.73903 c -0.01852,-2.02895 -0.127326,-2.85204 -0.419653,-3.175 -0.364329,-0.40249 -0.182039,-0.43281 2.373757,-0.39472 1.727298,0.0257 2.914242,0.1623 3.156225,0.36312 0.454012,0.3768 0.512543,1.91093 0.102163,2.67774 -0.220548,0.41209 -0.191105,0.63828 0.129149,0.99215 0.575455,0.63587 0.797756,1.96883 0.43987,2.63755 -0.561589,1.04934 -1.637763,1.35798 -4.735052,1.35798 -3.652814,0 -4.511725,0.16856 -4.870432,0.95584 -0.332589,0.72995 0.100603,1.42541 0.887865,1.42541 0.553509,0 0.683385,-0.68123 0.166042,-0.87092 -0.255003,-0.0935 -0.259075,-0.19747 -0.01778,-0.45406 0.489231,-0.52026 1.142259,-0.10366 1.142259,0.72871 0,0.75743 -0.769741,1.6546 -1.419598,1.6546 -0.195368,0 -0.670255,-0.29197 -1.055309,-0.64882 z m 7.877225,-4.53886 c 0.495157,-0.19001 0.549249,-0.92575 0.101015,-1.37399 -0.174625,-0.17462 -0.829468,-0.3175 -1.455208,-0.3175 -1.123849,0 -1.137708,0.0113 -1.137708,0.92605 0,0.90077 0.02829,0.92604 1.036693,0.92604 0.570182,0 1.225026,-0.0723 1.455208,-0.1606 z m -0.74595,-3.44142 c 0.952857,-0.45217 1.204518,-1.25155 0.481367,-1.52905 -0.230182,-0.0883 -0.825495,-0.1606 -1.322917,-0.1606 -0.878747,0 -0.904401,0.03 -0.904401,1.05833 0,1.21086 0.297757,1.31853 1.745951,0.63132 z m 6.389986,8.18929 c 0.181901,-0.0734 0.479557,-0.0734 0.661458,0 0.181901,0.0734 0.03307,0.13345 -0.330729,0.13345 -0.363802,0 -0.51263,-0.0601 -0.330729,-0.13345 z m 25.151952,-0.2701 c 0.190995,-0.0764 0.419201,-0.067 0.507119,0.0209 0.08792,0.0879 -0.06835,0.15046 -0.347265,0.13897 -0.308227,-0.0127 -0.37092,-0.0754 -0.159854,-0.15986 z m -61.862888,-0.37673 c 0,-0.16109 -0.178594,-0.22436 -0.396875,-0.1406 -0.218281,0.0838 -0.396875,0.037 -0.396875,-0.10398 0,-0.14095 0.293919,-0.25628 0.653154,-0.25628 0.47188,0 0.610887,0.11015 0.500859,0.39688 -0.179145,0.46684 -0.360263,0.51912 -0.360263,0.10398 z m 37.570832,-0.36781 c 0,-0.38317 -0.388131,-1.09031 -0.924028,-1.68348 -0.724591,-0.80203 -1.081511,-1.00314 -1.653646,-0.93172 -0.650433,0.0812 -0.662551,0.0699 -0.111649,-0.10412 l 0.617969,-0.19518 -0.517343,-0.65979 c -0.988782,-1.26105 -1.167111,-3.38186 -0.407828,-4.85015 0.508092,-0.98254 1.729568,-2.55651 1.983986,-2.55652 0.192085,-1e-5 1.806289,1.55508 1.806289,1.74014 0,0.0616 -0.287073,0.11194 -0.63794,0.11194 -0.394403,0 -0.915101,0.32826 -1.363974,0.85989 l -0.726035,0.8599 0.987324,0.0833 c 0.580517,0.049 1.247698,-0.0873 1.61925,-0.33073 0.905139,-0.59307 0.928534,-0.55057 0.463865,0.84272 -0.51557,1.54591 -0.507505,1.53649 -0.980271,1.14413 -0.212291,-0.17619 -0.742357,-0.28245 -1.177922,-0.23614 l -0.791935,0.0842 0.492477,1.05833 c 0.270862,0.58209 1.15271,1.70662 1.959663,2.49896 l 1.467188,1.44063 -0.854284,0.73143 c -1.062937,0.91009 -1.251156,0.92396 -1.251156,0.0922 z m 36.99206,0.47996 c 0.19099,-0.0764 0.4192,-0.067 0.50712,0.0209 0.0879,0.0879 -0.0683,0.15045 -0.34727,0.13896 -0.30823,-0.0127 -0.37092,-0.0754 -0.15985,-0.15985 z m 14.00946,-0.006 c 0.32912,-0.0633 0.80537,-0.0609 1.05834,0.005 0.25296,0.0662 -0.0163,0.118 -0.5984,0.11507 -0.58208,-0.003 -0.78905,-0.0571 -0.45994,-0.12041 z m -61.518707,-0.53154 c 0.400182,-0.0606 1.055026,-0.0606 1.455208,0 0.400182,0.0606 0.07276,0.11022 -0.727604,0.11022 -0.800365,0 -1.127787,-0.0496 -0.727604,-0.11022 z m -32.742187,-0.31086 c -0.563176,-0.12256 -0.691605,-0.23705 -0.442118,-0.39411 0.195928,-0.12334 0.840298,-0.0927 1.455208,0.0691 0.606967,0.15975 1.579827,0.33117 2.16191,0.38093 0.582083,0.0498 0.284427,0.0964 -0.661458,0.10366 -0.945886,0.007 -2.076979,-0.0646 -2.513542,-0.15957 z m 69.489943,-0.5536 c -0.198031,-0.45697 -0.992749,-1.66598 -1.766044,-2.68669 -1.519896,-2.00619 -1.978596,-3.44714 -1.435102,-4.5082 0.333097,-0.65029 2.635824,-3.12866 2.906939,-3.12866 0.144624,0 1.051137,1.71193 1.051137,1.98505 0,0.0632 -0.158062,0.0544 -0.351247,-0.0198 -0.983192,-0.37728 -2.812892,1.24779 -1.991175,1.76849 0.196926,0.12479 0.745,0.22871 1.217943,0.23094 0.739754,0.003 0.859896,0.0965 0.859896,0.66551 0,0.59531 -0.105834,0.66146 -1.058334,0.66146 -0.582083,0 -1.058333,0.10269 -1.058333,0.2282 0,0.12551 0.359021,0.67997 0.797825,1.23213 0.438803,0.55216 1.045609,1.40486 1.348459,1.89488 0.30285,0.49002 0.910011,1.07679 1.349246,1.30393 0.933598,0.48278 0.72405,0.84813 -0.607949,1.05996 -0.816888,0.12991 -0.937615,0.0642 -1.263261,-0.68722 z m -9.11774,0.13002 c -1.203915,-0.41682 -1.747129,-1.05636 -1.758582,-2.07044 -0.0089,-0.79104 0.408757,-1.77316 0.89109,-2.09522 0.160118,-0.10692 0.678074,-0.19621 1.151017,-0.19844 1.633349,-0.008 2.583063,1.89448 1.19961,2.40269 -0.535289,0.19664 -0.573276,0.15012 -0.436367,-0.53442 0.177239,-0.88619 -0.209465,-1.21656 -0.956212,-0.81692 -1.100346,0.58889 -0.268502,2.1196 1.151871,2.1196 0.697654,0 2.01766,-1.01945 2.01766,-1.55825 0,-0.93599 -0.640387,-1.66528 -2.116667,-2.4105 -1.894559,-0.95637 -2.308799,-1.67827 -1.805789,-3.14697 0.179718,-0.52474 0.305004,-1.03543 0.278411,-1.13485 -0.02659,-0.0994 0.633611,-0.32502 1.46712,-0.5013 0.833506,-0.17628 1.779169,-0.48188 2.101471,-0.67911 0.914307,-0.55951 1.015728,-0.46331 1.295591,1.22889 0.144399,0.87313 0.196831,1.58372 0.116517,1.57909 -0.08032,-0.005 -0.377145,-0.18322 -0.65962,-0.39688 -0.660132,-0.4993 -2.370145,-0.50193 -2.783152,-0.004 -0.561456,0.67651 -0.180827,1.24023 1.390288,2.05905 1.614548,0.84146 2.567913,2.1347 2.567913,3.4834 0,0.56323 0.140338,0.6707 0.992188,0.75981 l 0.992187,0.10378 -1.111332,0.0445 c -0.633227,0.0253 -1.202356,0.20345 -1.322916,0.414 -0.292857,0.51146 -1.901024,1.38998 -2.857418,1.56097 -0.436563,0.0781 -1.248757,-0.0156 -1.804879,-0.20817 z m 12.798924,-0.0687 c 0.09002,-0.88497 -0.02119,-1.10209 -1.331325,-2.59926 -2.065499,-2.36036 -2.107033,-3.96613 -0.149918,-5.79581 0.625838,-0.58508 1.275747,-1.33168 1.444244,-1.6591 0.419456,-0.81508 0.591436,-0.75443 1.279936,0.45133 0.70589,1.23623 0.71974,1.33461 0.18789,1.33461 -0.85319,0 -2.502998,1.0606 -2.502998,1.60909 0,0.49341 0.108429,0.52427 1.256771,0.35768 0.691227,-0.10028 1.457307,-0.28617 1.702397,-0.41309 0.2451,-0.12692 0.48322,-0.23084 0.52917,-0.23093 0.046,-9e-5 0.0423,0.59522 -0.008,1.32292 -0.0871,1.2569 -0.34196,1.64116 -0.70206,1.05849 -0.18797,-0.30413 -2.781481,-0.36603 -2.77157,-0.0661 0.0159,0.48133 1.94913,2.78371 2.94018,3.50162 0.69127,0.50076 0.95592,0.83025 0.72473,0.90232 -0.2003,0.0624 -0.7689,0.24306 -1.26355,0.4014 -1.214415,0.38873 -1.390754,0.36561 -1.335748,-0.17513 z m 5.368987,0.13229 c -0.0673,-0.10914 2.58339,-0.19844 5.89045,-0.19844 3.30706,0 5.95377,0.0591 5.88157,0.13127 -0.21668,0.21668 -11.63961,0.28186 -11.77202,0.0672 z M 65.554581,166.0679 c 0.327422,-0.0631 0.863203,-0.0631 1.190625,0 0.327422,0.0631 0.05953,0.11466 -0.595313,0.11466 -0.654843,0 -0.922734,-0.0516 -0.595312,-0.11466 z m -36.905736,-0.26772 c 0.402183,-0.0608 0.997496,-0.0592 1.322917,0.004 0.32542,0.0628 -0.0036,0.11256 -0.731243,0.11058 -0.727604,-0.002 -0.993857,-0.0534 -0.591674,-0.11419 z m 23.610424,-0.0747 c 0.08994,-0.14552 0.424386,-0.25622 0.74322,-0.24599 0.558895,0.0179 0.56071,0.0268 0.05053,0.24599 -0.728261,0.31294 -0.987161,0.31294 -0.79375,0 z m 26.789061,0.0893 c 0.181902,-0.0734 0.479558,-0.0734 0.661459,0 0.181901,0.0734 0.03307,0.13345 -0.330729,0.13345 -0.363802,0 -0.512631,-0.06 -0.33073,-0.13345 z m 15.345833,0 c 0.181901,-0.0734 0.479558,-0.0734 0.661459,0 0.181901,0.0734 0.03307,0.13345 -0.33073,0.13345 -0.363802,0 -0.51263,-0.06 -0.330729,-0.13345 z m -61.898427,-0.68461 c 0.132516,-0.48407 0.180951,-0.50879 0.259213,-0.13229 0.05294,0.25466 0.295875,0.45362 0.539867,0.44214 0.275192,-0.013 0.318053,-0.0716 0.112891,-0.15434 -0.383432,-0.15472 -0.454038,-1.41228 -0.07929,-1.41228 0.13829,0 0.346649,0.15781 0.463021,0.35069 0.116371,0.19287 0.426128,0.42963 0.688347,0.52613 0.311169,0.11452 0.414533,0.0748 0.297595,-0.11444 -0.122165,-0.19767 0.02077,-0.22755 0.44928,-0.0939 1.441153,0.44939 1.842122,0.6677 1.687085,0.91856 -0.252879,0.40917 -0.926348,0.31335 -0.926348,-0.1318 0,-0.42854 -0.311946,-0.48323 -1.279137,-0.22426 -0.461342,0.12353 -0.528309,0.22204 -0.264583,0.38921 0.222103,0.14079 -0.103956,0.22533 -0.878905,0.22788 -1.150285,0.004 -1.221192,-0.0354 -1.069033,-0.59127 z m 51.182803,0.41293 c 0.254661,-0.0666 0.67138,-0.0666 0.926041,0 0.254662,0.0665 0.0463,0.121 -0.463021,0.121 -0.509322,0 -0.717682,-0.0545 -0.46302,-0.121 z m 15.230077,0.002 c 0.190995,-0.0764 0.419201,-0.067 0.507119,0.0209 0.08792,0.0879 -0.06835,0.15046 -0.347265,0.13897 -0.308227,-0.0127 -0.37092,-0.0754 -0.159854,-0.15986 z m -25.444965,-0.64265 c -0.971423,-0.26261 -1.65767,-0.89079 -1.978488,-1.81109 -0.571788,-1.64023 1.725192,-2.87456 3.171963,-1.70452 0.733933,0.59354 0.702289,1.56019 -0.06451,1.97057 -0.677876,0.36279 -1.16912,0.0715 -0.743754,-0.44108 0.240088,-0.28929 0.243464,-0.54109 0.014,-1.0447 -0.439348,-0.96427 -1.293643,-0.46828 -1.257133,0.72986 0.03454,1.13364 1.003633,1.67597 2.230543,1.24827 1.570104,-0.54734 1.439426,-2.18672 -0.249997,-3.13623 -1.547241,-0.8696 -2.086377,-1.48117 -2.086377,-2.3667 0,-1.40324 0.729078,-1.93881 2.727415,-2.00351 0.973775,-0.0315 1.770502,0.0248 1.770502,0.1252 0,0.10039 -0.13071,0.55748 -0.290468,1.01576 -0.219691,0.63021 -0.449133,0.83323 -0.941655,0.83323 -0.366752,0 -0.579765,-0.11557 -0.487669,-0.26458 0.234098,-0.37878 -0.211177,-0.32641 -0.783603,0.0922 -0.630108,0.46075 -0.403815,0.79245 1.006358,1.4751 0.630227,0.30509 1.304529,0.85117 1.498452,1.21352 0.308025,0.57555 0.530852,0.65881 1.763086,0.65881 h 1.410499 v -1.74923 -1.74924 l -0.889246,0.16682 c -0.489085,0.0918 -1.173695,0.053 -1.521355,-0.0861 -0.459718,-0.18393 -0.505833,-0.25747 -0.169087,-0.26967 0.522767,-0.0189 0.64388,-0.53577 0.132292,-0.56454 -0.181901,-0.0102 -0.0926,-0.12092 0.198437,-0.24598 0.291042,-0.12507 1.422136,-0.23838 2.513542,-0.2518 1.369081,-0.0168 2.341999,-0.18668 3.137746,-0.54776 1.448459,-0.65726 1.716657,-0.6603 1.371593,-0.0155 -0.193874,0.36226 -0.183907,0.53712 0.03478,0.61001 0.168606,0.0562 -0.457425,0.35299 -1.391176,0.65953 l -1.697734,0.55735 v 2.47066 c 0,1.35887 0.09601,2.8451 0.213347,3.30274 l 0.213349,0.83207 -1.271682,0.11645 c -1.303642,0.11938 -2.080001,-0.17215 -1.467125,-0.55093 0.181112,-0.11194 0.39906,-0.70229 0.484327,-1.3119 l 0.155033,-1.10838 h -1.313365 c -1.236462,0 -1.322316,0.0448 -1.466263,0.7645 -0.34286,1.71429 -2.240174,2.85025 -3.976571,2.38085 z m 28.934159,-0.0957 c 0,-0.0868 0.17368,-0.42289 0.38596,-0.74687 0.46016,-0.70229 0.73115,-7.16805 0.33378,-7.96375 -0.23277,-0.46609 -0.16874,-0.48855 0.90393,-0.31706 2.36465,0.37805 4.49953,2.21737 4.86579,4.19213 0.44774,2.41411 -0.77537,4.27972 -2.9886,4.5585 -0.68855,0.0867 -1.75792,0.22006 -2.37638,0.29628 -0.61846,0.0762 -1.12448,0.0676 -1.12448,-0.0192 z m 4.37765,-2.37613 c 0.75995,-0.75995 0.89744,-2.58292 0.2631,-3.48856 -0.36705,-0.52403 -1.89989,-1.33941 -2.1114,-1.12314 -0.0954,0.0975 -0.23221,3.83845 -0.17548,4.79811 0.0411,0.69479 1.25433,0.58304 2.02378,-0.18641 z m -1.25226,-1.91256 c 0.19099,-0.0764 0.4192,-0.067 0.50712,0.0209 0.0879,0.0879 -0.0684,0.15045 -0.34727,0.13897 -0.30822,-0.0127 -0.37092,-0.0754 -0.15985,-0.15986 z m 6.30172,3.96341 c -0.10234,-0.10234 -1.10445,-0.18233 -2.2269,-0.17776 -1.8353,0.007 -1.87289,-0.002 -0.37328,-0.0909 l 1.66756,-0.0992 -0.56896,-0.92059 c -0.52312,-0.84643 -0.53627,-0.97047 -0.16324,-1.53978 0.56723,-0.86569 1.36142,-1.00581 2.15644,-0.38044 0.81084,0.63781 0.89211,1.5427 0.13856,1.5427 -0.38528,0 -0.50918,-0.15641 -0.46303,-0.58447 0.0406,-0.37657 -0.10166,-0.61875 -0.39999,-0.68086 -0.60287,-0.1255 -0.62499,0.80098 -0.0332,1.39273 0.55758,0.55759 2.19089,0.43528 2.58477,-0.19355 0.4089,-0.65277 -0.0227,-1.24707 -1.49125,-2.05363 -2.34023,-1.28528 -2.69974,-1.92897 -1.91976,-3.43729 0.46382,-0.89692 1.66697,-1.31839 3.7699,-1.32062 1.50471,-0.002 1.64312,0.18275 0.99219,1.32144 -0.20797,0.3638 -0.38235,0.75407 -0.3875,0.86726 -0.005,0.1132 0.79429,0.14729 1.77656,0.0758 1.2266,-0.0893 1.53734,-0.06 0.99219,0.0936 -1.35806,0.38269 -2.82516,0.3231 -3.15512,-0.12815 -0.16667,-0.22793 -0.8154,-0.48314 -1.44161,-0.56714 -1.08382,-0.14537 -1.13427,-0.12226 -1.04905,0.48057 0.0492,0.34831 0.19527,0.59335 0.32452,0.54454 0.12925,-0.0488 0.33398,0.0703 0.45495,0.26459 0.16401,0.26348 0.94523,0.34331 3.07229,0.31394 l 2.85235,-0.0394 -1.85208,0.26145 c -1.01865,0.1438 -1.89603,0.30469 -1.94973,0.35752 -0.0537,0.0528 0.0951,0.28883 0.33073,0.52444 0.48574,0.48574 0.57668,2.26492 0.15595,3.05106 -0.52598,0.9828 -3.1558,1.7606 -3.79422,1.12218 z m -61.026273,-0.59872 c 0.748493,-0.4733 2.43549,-0.62197 2.679936,-0.23617 0.180072,0.2842 0.228639,0.26692 0.231843,-0.0825 0.004,-0.44178 1.462855,-0.96552 1.786859,-0.64152 0.08661,0.0866 -0.03394,0.15747 -0.267888,0.15747 -0.233945,0 -0.51031,0.13746 -0.614143,0.30547 -0.110242,0.17837 -0.07323,0.23404 0.08895,0.13381 0.152754,-0.0944 0.346008,0.006 0.42945,0.2237 0.1279,0.3333 -0.231121,0.39472 -2.287378,0.39131 -1.618046,-0.003 -2.30732,-0.0874 -2.047632,-0.25159 z m -22.550315,-1.22601 c -0.691224,-0.21255 -1.256771,-0.47653 -1.256771,-0.58662 0,-0.26466 3.08679,0.0357 3.359832,0.32694 0.116624,0.12439 -0.14288,0.16161 -0.576675,0.0827 -0.730521,-0.13287 -0.751194,-0.11601 -0.28016,0.22842 0.624847,0.4569 0.373149,0.44651 -1.246226,-0.0514 z m 5.754687,0.12638 c -2.824553,-0.26738 -3.515128,-0.41672 -2.248958,-0.48637 0.509323,-0.028 1.133928,-0.0907 1.388012,-0.13942 0.254083,-0.0487 0.529001,0.02 0.610927,0.15254 0.08193,0.13256 0.409821,0.23919 0.728655,0.23697 0.455277,-0.003 0.497227,-0.0562 0.195455,-0.24713 -0.211333,-0.13369 -0.466748,-0.19208 -0.567588,-0.12976 -0.248573,0.15363 -0.543645,-0.66277 -0.351761,-0.97325 0.178656,-0.28907 -0.350328,-0.7733 -3.062033,-2.80295 -1.091406,-0.81689 -2.033985,-1.52541 -2.094618,-1.57448 -0.344948,-0.27916 0.279801,-0.31328 1.018879,-0.0556 0.474184,0.1653 0.738057,0.37725 0.586383,0.47099 -0.151674,0.0937 0.878649,1.08956 2.289605,2.21294 3.474839,2.7666 4.466241,3.62354 4.152876,3.58962 -0.145521,-0.0157 -1.336146,-0.13008 -2.645834,-0.25406 z m 15.742708,-0.36097 c 0,-0.25369 1.931249,-0.9296 2.656097,-0.9296 0.406664,0 0.787045,-0.14296 0.845288,-0.31769 0.07878,-0.23633 0.154067,-0.23976 0.293973,-0.0134 0.125399,0.2029 -0.419002,0.4851 -1.633731,0.84686 -1.929024,0.57449 -2.161627,0.61902 -2.161627,0.41382 z m -19.843749,-1.06189 c 0,-0.21828 0.115326,-0.39687 0.256279,-0.39687 0.140954,0 0.187747,0.17859 0.103984,0.39687 -0.08376,0.21828 -0.199088,0.39688 -0.256279,0.39688 -0.05719,0 -0.103984,-0.1786 -0.103984,-0.39688 z m 7.043349,0.056 c -0.256368,-0.18746 -0.427953,-0.45535 -0.381299,-0.59531 0.04665,-0.13996 -0.03424,-0.27234 -0.179759,-0.29417 -0.145521,-0.0218 -0.238277,0.0571 -0.206126,0.17538 0.05943,0.21864 -2.268305,-1.22526 -3.233457,-2.00572 -0.47658,-0.38538 -0.456118,-0.38494 0.205911,0.004 0.404293,0.2378 0.869173,0.34948 1.033068,0.24819 0.195604,-0.12089 0.223577,-0.0638 0.08141,0.16626 -0.158569,0.25657 -0.09497,0.30376 0.237444,0.1762 0.269684,-0.10349 0.38839,-0.068 0.292372,0.0873 -0.145486,0.2354 0.204239,0.37582 0.729477,0.29288 0.109141,-0.0172 0.200261,0.17703 0.20249,0.43169 0.0034,0.38892 0.04351,0.40063 0.250616,0.0731 0.261972,-0.41425 -0.172602,-0.88268 -0.583369,-0.62881 -0.121922,0.0753 -0.147725,-0.15764 -0.05734,-0.51776 0.09139,-0.36411 0.03737,-0.73324 -0.121686,-0.83154 -0.157312,-0.0972 -0.286022,-0.31263 -0.286022,-0.47868 0,-0.16605 0.516254,0.40653 1.147231,1.27239 0.630977,0.86586 1.344041,1.73661 1.584587,1.935 0.240545,0.19839 0.372108,0.46628 0.292362,0.59531 -0.198983,0.32196 -0.459937,0.29446 -1.007914,-0.10623 z m 17.033733,-0.18329 c 0,-0.14829 0.148829,-0.27145 0.33073,-0.27367 0.247634,-0.003 0.242059,-0.0603 -0.02217,-0.22777 -0.284143,-0.18012 -0.271256,-0.25504 0.06615,-0.38452 0.281557,-0.10804 0.420389,-0.0116 0.423111,0.29391 0.0032,0.35604 0.05342,0.37681 0.231511,0.0957 0.168703,-0.26625 0.277019,-0.27879 0.419319,-0.0485 0.235458,0.38098 0.189937,0.42138 -0.721026,0.63992 -0.431943,0.10363 -0.727604,0.065 -0.727604,-0.0951 z m 28.332464,0.16366 c 0.261297,-0.22728 2.346769,-0.36263 2.211356,-0.14353 -0.08138,0.13168 -0.637035,0.23941 -1.234782,0.23941 -0.597749,0 -1.037206,-0.0431 -0.976574,-0.0959 z m 2.95955,-0.35205 c 0.257431,-0.0671 0.614619,-0.0627 0.79375,0.01 0.17913,0.0725 -0.03149,0.12736 -0.468056,0.12197 -0.436563,-0.005 -0.583126,-0.0647 -0.325694,-0.13177 z m -29.43993,-0.47811 c 0,-0.21828 0.04679,-0.39687 0.103984,-0.39687 0.05719,0 0.172516,0.17859 0.25628,0.39687 0.08376,0.21828 0.03697,0.39688 -0.103984,0.39688 -0.140954,0 -0.25628,-0.1786 -0.25628,-0.39688 z m -27.13869,-0.39687 c 0,-0.3427 0.08945,-0.43216 0.260804,-0.26081 0.171349,0.17135 0.171349,0.35026 0,0.52161 -0.17135,0.17135 -0.260804,0.0819 -0.260804,-0.2608 z m 21.31148,0.0395 c 0.360296,-0.29084 0.717484,-0.52366 0.79375,-0.51738 0.500745,0.0412 0.810615,-0.0848 0.689689,-0.28048 -0.07792,-0.12607 0.09877,-0.44682 0.392647,-0.71277 0.517975,-0.46876 0.528545,-0.46852 0.345673,0.008 -0.123349,0.32144 -0.08996,0.4306 0.09647,0.31538 0.15681,-0.0969 0.549635,-0.0784 0.872942,0.0412 0.499618,0.18482 0.31469,0.30712 -1.232336,0.81501 -1.001091,0.32866 -1.998761,0.65655 -2.217042,0.72865 -0.218281,0.0721 -0.102087,-0.10686 0.258207,-0.3977 z m 2.614311,-0.8042 c 0.253717,-0.16076 0.158152,-0.22746 -0.325903,-0.22746 -0.376685,0 -0.620493,0.10418 -0.541801,0.23151 0.178393,0.28864 0.407459,0.28757 0.867704,-0.004 z m -24.547462,0.3458 c 0.01269,-0.30822 0.07539,-0.37092 0.159852,-0.15985 0.07643,0.191 0.06703,0.4192 -0.02089,0.50712 -0.08792,0.0879 -0.150453,-0.0683 -0.138964,-0.34727 z m 26.966611,0.31494 c 0,-0.0572 0.184777,-0.17489 0.410617,-0.26155 0.235458,-0.0904 0.341662,-0.046 0.248968,0.10398 -0.155379,0.25141 -0.659585,0.37186 -0.659585,0.15757 z m 54.575346,-0.0794 c 0.25743,-0.0671 0.61462,-0.0627 0.79375,0.01 0.17913,0.0725 -0.0315,0.12736 -0.46806,0.12197 -0.43656,-0.005 -0.58312,-0.0647 -0.32569,-0.13178 z m -72.317095,-1.49978 c -0.937819,-0.7802 -2.000776,-1.76247 -2.362127,-2.18281 -0.361351,-0.42034 -0.11799,-0.25753 0.540803,0.36181 0.986094,0.92704 1.263641,1.06733 1.570283,0.79375 0.317453,-0.28323 0.320719,-0.26392 0.02211,0.1307 -0.214777,0.28383 -0.24148,0.46302 -0.069,0.46302 0.154751,0 0.35495,-0.11906 0.444887,-0.26458 0.08994,-0.14552 0.282584,-0.26459 0.428105,-0.26459 0.145521,0 0.197284,0.1089 0.115028,0.24199 -0.08225,0.13309 1.5e-5,0.31059 0.182823,0.39443 0.182808,0.0839 0.03472,0.0883 -0.32908,0.01 -0.618444,-0.13322 -0.627047,-0.12141 -0.132292,0.18167 0.291042,0.17829 0.674208,0.51139 0.851481,0.74024 0.432265,0.55802 0.413313,0.1149 -0.0501,-1.17142 -0.388394,-1.07809 -0.520787,-1.92427 -0.260316,-1.6638 0.0793,0.0793 0.430152,0.93259 0.779662,1.89618 0.450232,1.24128 0.538897,1.75199 0.304167,1.75199 -0.182219,0 -1.098614,-0.63834 -2.036433,-1.41855 z m 9.804249,0.90184 c 0,-0.44141 0.605518,-1.59995 0.836221,-1.59995 0.289504,0 0.165841,0.6056 -0.174763,0.85584 -0.15468,0.11364 -0.09668,0.19607 0.139637,0.19844 0.547759,0.005 1.393542,-0.98302 0.968359,-1.13177 -0.172834,-0.0605 -0.04635,-0.0655 0.281067,-0.0112 0.327422,0.0543 0.595312,-0.0296 0.595312,-0.18648 0,-0.15688 0.108895,-0.21794 0.241985,-0.13569 0.133091,0.0823 0.281919,0.0336 0.33073,-0.10819 0.04951,-0.1438 0.242398,-0.16227 0.436284,-0.0418 0.242385,0.15062 -0.211915,0.54833 -1.501465,1.31443 -1.967601,1.16894 -2.153367,1.24195 -2.153367,0.84635 z m 8.995833,0.16355 c 0,-0.0683 0.384236,-0.25818 0.853855,-0.42189 0.469623,-0.16371 0.737513,-0.18874 0.595313,-0.0556 -0.301284,0.28204 -1.449168,0.66028 -1.449168,0.47751 z m -15.218109,-0.88157 c -0.442901,-0.67595 -0.441402,-0.72186 0.03572,-1.09392 0.309546,-0.24139 0.347296,-0.33738 0.09975,-0.25364 -0.219048,0.0741 -0.55861,-0.0369 -0.754584,-0.2467 -0.30185,-0.32313 -0.274104,-0.40294 0.181522,-0.52208 0.35032,-0.0916 0.491132,-0.29299 0.403877,-0.5776 -0.107146,-0.34949 -0.0729,-0.34165 0.171067,0.0392 0.314795,0.49135 0.710806,3.36036 0.463831,3.36036 -0.07638,0 -0.346914,-0.31751 -0.60118,-0.70557 z m 13.101442,0.16079 c 0,-0.15411 0.139296,-0.19411 0.309547,-0.0889 0.207584,0.12829 0.254384,0.0476 0.142081,-0.2451 -0.143676,-0.37442 -0.09383,-0.39042 0.350928,-0.11267 0.480549,0.30011 0.484663,0.3371 0.05636,0.5067 -0.674164,0.26696 -0.858912,0.25404 -0.858912,-0.06 z m 65.10955,0.18472 c 0.29936,-0.25925 2.38389,-0.4231 2.23077,-0.17535 -0.0921,0.14895 -0.65645,0.27082 -1.2542,0.27082 -0.59774,0 -1.0372,-0.043 -0.97657,-0.0955 z m -74.369966,-0.55768 c 0,-0.25372 0.152797,-0.32994 0.440279,-0.21962 0.296038,0.1136 0.377603,0.0675 0.248968,-0.1406 -0.105221,-0.17025 -0.362877,-0.30954 -0.57257,-0.30954 -0.248266,0 -0.368692,-0.25381 -0.345229,-0.72761 0.03089,-0.62384 0.05238,-0.64271 0.150694,-0.13229 0.07168,0.37218 0.306108,0.59531 0.625427,0.59531 0.535703,0 0.616821,0.20951 0.350165,0.90441 -0.202353,0.52732 -0.897734,0.55051 -0.897734,0.0299 z m 77.280386,0.2935 c 0.31172,-0.26882 1.59365,-0.4292 1.43971,-0.18012 -0.0935,0.15136 -0.48055,0.27519 -0.86001,0.27519 -0.37947,0 -0.64034,-0.0428 -0.5797,-0.0951 z m -78.841512,-0.50024 c 0.0145,-0.1819 0.1217,-0.62839 0.238209,-0.99219 0.189055,-0.59032 0.214673,-0.55476 0.23821,0.33073 0.01451,0.5457 -0.09269,0.99219 -0.23821,0.99219 -0.14552,0 -0.252715,-0.14883 -0.238209,-0.33073 z m 9.692653,-0.23127 c 0.179477,-0.18082 0.392969,-0.26212 0.474432,-0.18065 0.08146,0.0815 -0.06538,0.2294 -0.326319,0.32876 -0.377084,0.14359 -0.407474,0.1132 -0.148113,-0.14811 z m 66.216389,0.09 c 0,-0.27155 3.90363,-1.12051 5.02709,-1.09329 0.66491,0.0161 0.32917,0.15486 -1.19063,0.49203 -3.23543,0.7178 -3.83646,0.812 -3.83646,0.60126 z m -61.515625,-0.32171 c 0.291042,-0.12507 0.707761,-0.22739 0.926042,-0.22739 0.250158,0 0.201253,0.0841 -0.132292,0.22739 -0.291041,0.12506 -0.70776,0.22739 -0.926041,0.22739 -0.250159,0 -0.201253,-0.0841 0.132291,-0.22739 z M 32.547811,157.5238 c 0,-0.14552 0.126089,-0.26458 0.280198,-0.26458 0.154109,0 0.206614,0.11906 0.116677,0.26458 -0.08994,0.14552 -0.216026,0.26459 -0.280198,0.26459 -0.06417,0 -0.116677,-0.11907 -0.116677,-0.26459 z m 16.538331,-0.79072 c -0.09269,-0.14998 0.01352,-0.19433 0.248968,-0.10398 0.458369,0.17589 0.542234,0.36554 0.16165,0.36554 -0.136933,0 -0.321713,-0.1177 -0.410618,-0.26156 z m -3.887941,-0.18377 c 0.190996,-0.0764 0.4192,-0.067 0.507118,0.0209 0.08792,0.0879 -0.06835,0.15045 -0.347265,0.13897 -0.308225,-0.0127 -0.37092,-0.0754 -0.159853,-0.15986 z m 56.885419,0 c 0.19099,-0.0764 0.4192,-0.067 0.50712,0.0209 0.0879,0.0879 -0.0683,0.15045 -0.34727,0.13897 -0.30823,-0.0127 -0.37092,-0.0754 -0.15985,-0.15986 z m 5.47356,-0.099 c 1.48339,-0.30683 3.04271,-0.29905 3.04271,0.0152 0,0.15625 -0.83961,0.25212 -2.05052,0.23416 -1.80061,-0.0267 -1.92153,-0.0571 -0.99219,-0.24934 z m -65.269395,-1.22389 c 0.190996,-0.0764 0.419199,-0.067 0.507118,0.0209 0.08792,0.0879 -0.06835,0.15045 -0.347266,0.13896 -0.308224,-0.0127 -0.370919,-0.0754 -0.159852,-0.15985 z m 28.360025,-2.20051 c -2.005489,-0.10482 -0.29182,-0.16804 5.027083,-0.18544 4.438385,-0.0145 7.772135,0.0689 7.408333,0.18544 -0.748067,0.23957 -7.851772,0.23957 -12.435416,0 z m 15.474973,-0.005 c -0.07294,-0.11801 1.892234,-0.21342 4.367041,-0.21202 2.597073,0.001 4.499652,0.10664 4.499652,0.24872 0,0.30353 -8.678616,0.26761 -8.866693,-0.0367 z m 12.769297,0.0944 c 0.181901,-0.0734 0.479557,-0.0734 0.661458,0 0.181901,0.0734 0.03307,0.13345 -0.330729,0.13345 -0.363802,0 -0.51263,-0.06 -0.330729,-0.13345 z m 2.77813,-0.007 c 0.25466,-0.0665 0.67138,-0.0665 0.92604,0 0.25466,0.0666 0.0463,0.121 -0.46302,0.121 -0.50933,0 -0.71769,-0.0545 -0.46302,-0.121 z m 3.0427,0.007 c 0.1819,-0.0734 0.47956,-0.0734 0.66146,0 0.1819,0.0734 0.0331,0.13345 -0.33073,0.13345 -0.3638,0 -0.51263,-0.06 -0.33073,-0.13345 z m 3.05237,-0.0206 c 0.84206,-0.0527 2.15175,-0.0522 2.91042,0.001 0.75867,0.0533 0.0697,0.0964 -1.53102,0.0958 -1.60072,-6e-4 -2.22146,-0.0442 -1.3794,-0.0968 z m -64.964865,-0.244 c 0.181901,-0.0734 0.479557,-0.0734 0.661458,0 0.181901,0.0734 0.03307,0.13345 -0.330729,0.13345 -0.363802,0 -0.51263,-0.06 -0.330729,-0.13345 z m 4.514453,-0.006 c 0.190996,-0.0764 0.419199,-0.067 0.507118,0.0209 0.08792,0.0879 -0.06835,0.15046 -0.347266,0.13897 -0.308224,-0.0127 -0.370919,-0.0754 -0.159852,-0.15985 z m 4.216797,-0.013 c 0.618463,-0.0557 1.630494,-0.0557 2.248958,0 0.618463,0.0557 0.112448,0.10128 -1.124479,0.10128 -1.236927,0 -1.742943,-0.0456 -1.124479,-0.10128 z m 4.497916,0.002 c 0.472943,-0.0587 1.246849,-0.0587 1.719792,0 0.472942,0.0587 0.08599,0.10671 -0.859896,0.10671 -0.945885,0 -1.332839,-0.048 -0.859896,-0.10671 z m 3.571875,0.002 c 0.400182,-0.0606 1.055026,-0.0606 1.455208,0 0.400183,0.0606 0.07276,0.11022 -0.727604,0.11022 -0.800364,0 -1.127786,-0.0496 -0.727604,-0.11022 z m 3.323828,0.009 c 0.190995,-0.0764 0.419198,-0.067 0.507119,0.0209 0.08792,0.0879 -0.06835,0.15046 -0.347266,0.13897 -0.308226,-0.0127 -0.370919,-0.0754 -0.159853,-0.15985 z m 1.967839,-0.009 c 0.400182,-0.0606 1.055026,-0.0606 1.455208,0 0.400182,0.0606 0.07276,0.11022 -0.727604,0.11022 -0.800365,0 -1.127787,-0.0496 -0.727604,-0.11022 z"
       id="path2241" />
  </g>
</svg>
