<?xml version="1.0" encoding="UTF-8" standalone="no"?>
<!-- Created with Inkscape (http://www.inkscape.org/) -->

<svg
   width="110.56917mm"
   height="24.811409mm"
   viewBox="0 0 110.56916 24.811408"
   version="1.1"
   id="svg5"
   inkscape:version="1.1 (c4e8f9ed74, 2021-05-24)"
   sodipodi:docname="choicecucumberseed.svg"
   xmlns:inkscape="http://www.inkscape.org/namespaces/inkscape"
   xmlns:sodipodi="http://sodipodi.sourceforge.net/DTD/sodipodi-0.dtd"
   xmlns="http://www.w3.org/2000/svg"
   xmlns:svg="http://www.w3.org/2000/svg">
  <sodipodi:namedview
     id="namedview7"
     pagecolor="#ffffff"
     bordercolor="#666666"
     borderopacity="1.0"
     inkscape:pageshadow="2"
     inkscape:pageopacity="0.0"
     inkscape:pagecheckerboard="0"
     inkscape:document-units="mm"
     showgrid="false"
     inkscape:zoom="1.3380612"
     inkscape:cx="-25.783575"
     inkscape:cy="92.297724"
     inkscape:window-width="2506"
     inkscape:window-height="1403"
     inkscape:window-x="1974"
     inkscape:window-y="0"
     inkscape:window-maximized="1"
     inkscape:current-layer="layer1" />
  <defs
     id="defs2" />
  <g
     inkscape:label="Layer 1"
     inkscape:groupmode="layer"
     id="layer1"
     transform="translate(-18.190156,-142.8224)">
    <path
       style="fill:#000000;stroke-width:0.264583"
       d="m 18.365156,156.1236 c -0.219011,-13.20282 -0.21394,-12.46533 -0.08659,-12.59268 0.277348,-0.27735 109.560224,-0.91519 109.975104,-0.64188 0.11495,0.0757 0.29154,5.51044 0.39242,12.07714 0.20611,13.41684 0.38051,12.26992 -1.86567,12.26992 -0.70312,0 -1.34984,-0.16196 -1.58476,-0.39687 -0.42548,-0.42548 -2.07981,-0.56193 -1.82558,-0.15058 0.20003,0.32367 -0.30561,0.62811 -0.66959,0.40315 -0.60372,-0.37312 0.75224,-0.8412 2.90251,-1.00195 1.22189,-0.0914 2.23392,-0.19823 2.24896,-0.23752 0.015,-0.0393 -0.008,-5.10699 -0.0523,-11.26156 l -0.0796,-11.19013 -13.90494,0.0371 -13.904945,0.0372 0.862655,0.52461 c 0.83269,0.50639 1.29995,0.52219 13.45538,0.45493 l 12.59274,-0.0697 0.08,1.37147 c 0.044,0.75431 0.044,1.99018 0,2.74637 l -0.08,1.37489 -1.03634,-0.91187 c -0.56999,-0.50153 -1.30727,-1.50718 -1.6384,-2.23479 -0.33114,-0.7276 -0.60631,-1.14432 -0.6115,-0.92604 -0.0193,0.81374 1.01406,2.5509 2.19695,3.69311 1.44647,1.39672 1.57798,2.21888 0.49398,3.08828 l -0.72761,0.58355 0.69556,0.7493 c 0.38256,0.41212 0.77638,1.20365 0.87517,1.75897 0.17571,0.98777 0.16636,1.00288 -0.43098,0.6967 -0.33582,-0.17213 -1.1141,-0.79765 -1.72951,-1.39004 -0.61541,-0.59239 -1.1828,-1.01321 -1.26085,-0.93516 -0.15719,0.15719 2.00218,2.22302 3.04124,2.90949 0.49844,0.32931 0.58744,0.51398 0.36113,0.74934 -0.4594,0.47775 -1.70139,-0.28146 -2.76593,-1.69077 -0.49637,-0.65713 -1.06144,-1.25944 -1.25572,-1.33848 -0.19427,-0.079 0.002,0.30294 0.43505,0.84882 1.22378,1.54089 1.99832,2.2764 2.91292,2.76615 0.76796,0.41122 0.8412,0.56191 0.83583,1.71979 -0.006,1.36556 -0.53855,2.30561 -1.44932,2.55992 -0.29105,0.0813 -0.0827,0.0995 0.46302,0.0404 0.98712,-0.1068 0.99216,-0.10237 0.98813,0.8682 -0.002,0.53656 -0.0915,1.10092 -0.19843,1.25414 -0.24995,0.35821 -3.15084,0.47191 -3.36108,0.13174 -0.10272,-0.16621 -0.39716,-0.16739 -0.82865,-0.003 -0.36813,0.13996 -1.69024,0.25447 -2.93803,0.25447 -1.85039,0 -2.33352,-0.0854 -2.62019,-0.46302 -0.33232,-0.43778 -0.35195,-0.43621 -0.3599,0.0287 -0.007,0.38841 -0.14445,0.45756 -0.65602,0.32916 -0.35618,-0.0894 -1.15986,0.004 -1.78594,0.20688 -1.94812,0.6322 -2.48971,0.69401 -2.97459,0.33945 -0.40636,-0.29713 -0.33501,-0.33081 0.55253,-0.26074 1.06986,0.0845 0.98255,-0.0256 -0.23281,-0.2934 -0.45418,-0.10008 -0.8854,-0.47372 -1.16035,-1.0054 -0.41879,-0.80985 -0.41174,-0.89479 0.16425,-1.98054 0.33099,-0.62393 0.74996,-1.13441 0.93105,-1.13441 0.32664,0 0.74646,-1.05562 0.51276,-1.28931 -0.067,-0.067 -0.1218,0.0171 -0.1218,0.18688 0,0.16977 -0.29351,0.30868 -0.65225,0.30868 -0.73409,0 -2.52275,1.43702 -2.52275,2.02679 0,0.32801 -0.0863,0.32399 -0.58803,-0.0274 -0.32342,-0.22653 -0.69612,-0.41188 -0.82821,-0.41188 -0.21896,0 0.38122,0.56539 2.60687,2.4558 0.43656,0.3708 0.72148,0.74666 0.63315,0.83524 -0.0883,0.0886 -2.28629,0.12848 -4.88435,0.0887 l -4.72376,-0.0724 2.03991,-1.38359 c 1.12195,-0.76098 2.48647,-1.62545 3.03227,-1.92105 0.5458,-0.2956 1.76627,-1.02337 2.71215,-1.61726 0.94589,-0.59389 2.43417,-1.3801 3.3073,-1.74714 2.71386,-1.14081 3.97145,-1.85618 5.38659,-3.06412 0.7514,-0.64139 1.9614,-1.49012 2.68889,-1.88607 1.24092,-0.67539 1.37149,-0.69558 2.11137,-0.32648 1.39571,0.69627 1.13103,-0.0526 -0.35444,-1.00289 -1.58214,-1.01209 -2.99533,-2.53299 -4.0636,-4.37334 -0.85003,-1.46437 -1.02076,-1.5866 -2.22339,-1.59172 -0.66953,-0.003 -1.28975,0.2514 -2.08779,0.85585 -0.62441,0.47294 -1.87969,1.39568 -2.78951,2.05052 -0.90983,0.65484 -2.08583,1.53382 -2.61336,1.95328 -0.52767,0.41958 -1.51086,0.86573 -2.18562,0.99179 -0.67457,0.12603 -1.61697,0.52697 -2.09422,0.89099 -0.47726,0.36402 -0.98017,0.66186 -1.11758,0.66186 -0.40906,0 -0.9683,-0.81519 -0.6945,-1.01236 0.28451,-0.20487 0.87305,-1.22166 1.7495,-3.02254 0.3364,-0.69122 0.73765,-1.25677 0.89165,-1.25677 0.15401,0 0.48427,0.56801 0.73391,1.26224 0.24964,0.69423 0.68988,1.40962 0.97831,1.58974 0.66083,0.4127 0.68591,0.022 0.0363,-0.56584 -0.66417,-0.60107 -1.19442,-2.31264 -1.04078,-3.35948 0.10338,-0.70437 0.0702,-0.78374 -0.18291,-0.43759 -0.27611,0.37762 -0.4346,0.33904 -1.48152,-0.36056 -1.25844,-0.84095 -4.763505,-2.57929 -5.491855,-2.72369 -0.24364,-0.0483 -0.65526,-0.17948 -0.91472,-0.29151 -0.25945,-0.11203 -1.92633,-0.14687 -3.70416,-0.0774 -2.53497,0.099 -3.57497,0.25889 -4.81994,0.7409 -1.54896,0.59971 -2.90233,1.36567 -3.44391,1.94913 -0.1479,0.15934 -0.53485,0.51652 -0.85989,0.79373 -0.58116,0.49565 -0.60043,0.49565 -1.15865,0 -0.56593,-0.50248 -0.56667,-0.50213 -0.24315,0.11395 0.36008,0.68569 0.37516,0.64817 -0.42857,1.06598 -0.832233,0.43262 -1.093993,0.37441 -1.189614,-0.26457 -0.0465,-0.31075 -0.382204,-0.75318 -0.746006,-0.98318 -0.653703,-0.41329 -0.656029,-0.41185 -0.198437,0.1228 0.254661,0.29755 0.463021,0.75257 0.463021,1.01116 0,0.36972 -0.164,0.29461 -0.767612,-0.35156 -0.935575,-1.00154 -1.331926,-1.08749 -0.574508,-0.12459 0.578119,0.73496 0.734864,1.68411 0.278114,1.68411 -0.148641,0 -0.396912,-0.27798 -0.551712,-0.61773 -0.686943,-1.50767 -4.026292,-2.1682 -5.924907,-1.17196 -1.524897,0.80014 -2.116667,1.69477 -2.116667,3.19993 0,0.75234 0.09491,1.7846 0.210905,2.29393 0.198596,0.87199 0.186698,0.89563 -0.203849,0.40505 -1.263824,-1.58755 -0.97034,-3.91 0.694812,-5.49828 1.166527,-1.11268 0.964552,-1.35838 -0.265684,-0.32321 -0.437271,0.36794 -1.001027,1.20835 -1.252789,1.86758 -0.390583,1.02273 -0.412125,1.39625 -0.146817,2.54563 0.171013,0.74087 0.252714,1.40525 0.18156,1.47641 -0.162849,0.16285 -0.671973,-1.15032 -0.677397,-1.74718 -0.01024,-1.12753 -0.440121,-1.21904 -1.559986,-0.33209 -0.59635,0.47232 -1.411137,0.95715 -1.810639,1.07739 -0.666194,0.20052 -0.675608,0.22051 -0.11366,0.24137 0.716,0.0266 1.531872,-0.35706 2.356951,-1.10829 0.647975,-0.58997 0.590476,-0.66464 1.074618,1.39562 l 0.279787,1.19062 -0.508387,-0.62462 c -0.279611,-0.34355 -0.508383,-0.84402 -0.508383,-1.11218 0,-0.46418 -0.03722,-0.46618 -0.776669,-0.0418 -0.856387,0.4915 -0.909865,0.8012 -0.05979,0.34625 0.469577,-0.25131 0.567473,-0.17644 0.83693,0.64002 0.167836,0.50854 0.444749,0.93034 0.615363,0.93733 0.170616,0.007 -0.106508,0.22425 -0.615831,0.4828 -1.037921,0.52688 -1.390637,0.38807 -1.99789,-0.78623 -0.291296,-0.5633 -0.302218,-0.75576 -0.0487,-0.85827 0.179739,-0.0727 0.05891,-0.14155 -0.268513,-0.15304 -0.761343,-0.0267 -0.752773,0.0309 0.200287,1.34657 0.8625,1.19065 0.873083,1.75265 0.01357,0.72055 -0.289838,-0.34804 -0.53094,-0.70298 -0.535782,-0.78876 -0.01217,-0.21554 -1.372457,-0.81753 -1.518142,-0.67185 -0.06492,0.0649 0.125952,0.19548 0.424164,0.29013 0.576882,0.18309 1.614342,1.34854 1.614342,1.81349 0,0.15312 -0.377486,-0.0713 -0.838861,-0.4987 l -0.838864,-0.7771 0.579067,0.84132 c 0.355505,0.51651 0.47507,0.90559 0.309692,1.0078 -0.148153,0.0916 -0.269372,-0.0164 -0.269372,-0.23991 0,-0.22352 -0.297657,-0.60142 -0.661459,-0.8398 -0.637638,-0.41779 -0.977524,-1.12828 -0.355994,-0.74415 0.189257,0.11697 0.233643,0.0726 0.116676,-0.11668 -0.272232,-0.44048 -0.96362,-0.38083 -0.791284,0.0683 0.08433,0.21975 -0.05536,0.42513 -0.339032,0.49848 -0.41633,0.10764 -0.407183,0.12895 0.06674,0.15543 0.807098,0.0451 2.202278,1.61819 1.435182,1.61819 -0.145521,0 -0.264583,-0.1744 -0.264583,-0.38756 0,-0.45131 -0.811263,-0.94458 -1.503961,-0.91447 -0.333049,0.0145 -0.264207,0.10008 0.224433,0.27905 0.577604,0.21156 1.231688,0.99035 0.955027,1.13712 -3.202438,1.69888 -3.172675,1.68865 -2.938891,1.01034 0.129608,-0.37605 0.07994,-0.36363 -0.264473,0.0661 -0.320055,0.39938 -0.425489,0.43183 -0.429902,0.13229 -0.0032,-0.21828 0.409715,-0.91965 0.917627,-1.55859 0.50791,-0.63894 0.923473,-1.28231 0.923473,-1.4297 0,-0.1474 0.498247,-0.72797 1.107212,-1.29017 1.215782,-1.1224 1.943659,-2.68802 1.439553,-3.09639 -0.163793,-0.13269 -1.071713,-0.60066 -2.017598,-1.03994 -0.945886,-0.43927 -2.553229,-1.52206 -3.571875,-2.40618 -1.652678,-1.43442 -1.97616,-1.60786 -3.004519,-1.61097 -2.224061,-0.007 -5.058449,0.96217 -7.335739,2.50758 -1.218761,0.82707 -1.262587,0.82537 -1.642378,-0.0637 -0.30903,-0.72339 -0.310239,-0.72219 -0.209274,0.20743 0.09887,0.9104 0.05516,0.96038 -1.658477,1.89652 -0.968016,0.52882 -2.592216,1.27431 -3.609334,1.65665 -1.017117,0.38234 -2.386336,1.01065 -3.042708,1.39626 -2.749027,1.615 -6.420889,3.24366 -7.312917,3.24366 -1.153359,0 -1.910343,-0.39056 -2.213016,-1.14178 -0.192179,-0.47697 -0.23582,-0.49435 -0.249659,-0.0994 -0.0092,0.26325 -0.135834,0.40506 -0.281354,0.31512 -0.411301,-0.2542 -0.325246,-0.51236 0.529166,-1.5875 0.459972,-0.5788 0.78266,-1.28947 0.767377,-1.69003 l -0.02637,-0.69122 -0.179362,0.64184 c -0.218103,0.78048 -0.81902,1.04536 -0.84482,0.37239 -0.01696,-0.4422 -0.04027,-0.43831 -0.263911,0.0441 -0.190161,0.4102 -0.212522,0.34279 -0.09946,-0.29983 l 0.145856,-0.829 -1.226369,0.13823 c -1.210622,0.13645 -1.244777,0.11876 -2.66007,-1.37789 -1.540058,-1.62859 -1.96569,-1.8277 -0.612542,-0.28655 1.02969,1.17275 0.697866,1.22106 -0.517568,0.0754 -0.911609,-0.85931 -0.91042,-0.68637 0.0044,0.63616 0.590305,0.85341 0.596608,0.9293 0.0772,0.9293 -0.226742,0 -0.825652,-0.74579 -1.345689,-1.6757 -0.515407,-0.92163 -1.064371,-1.67569 -1.219921,-1.67569 -0.155551,0 -0.09914,0.20836 0.125353,0.46302 0.224494,0.25466 0.766158,1.17739 1.203697,2.05052 1.011694,2.01887 1.775458,2.83168 3.46562,3.68815 0.744988,0.37751 1.354525,0.79421 1.354525,0.926 0,0.13178 -0.403819,0.37287 -0.897375,0.53576 -1.315507,0.43416 -3.249147,1.78841 -3.920879,2.74605 -0.448729,0.63971 -0.227031,0.51006 0.946867,-0.55377 0.84303,-0.76399 1.663251,-1.38907 1.822715,-1.38907 0.159464,0 -0.441974,0.67045 -1.33653,1.48989 -1.519852,1.39222 -3.224493,3.44651 -2.084965,2.51261 0.243696,-0.19972 0.443084,-0.24406 0.443084,-0.0985 0,0.4042 -0.680178,0.87934 -0.941664,0.65781 -0.127333,-0.10788 -0.06954,0.0152 0.128427,0.27355 0.335803,0.4382 0.39247,0.44026 0.844934,0.0308 0.266745,-0.2414 0.419418,-0.54501 0.339272,-0.67469 -0.08015,-0.12968 -0.04757,-0.20876 0.07238,-0.17574 0.119957,0.033 0.744898,-0.21517 1.388758,-0.55154 0.945861,-0.49415 1.453925,-0.58718 2.645834,-0.48448 0.960079,0.0827 1.823946,-0.0105 2.474003,-0.26703 0.966703,-0.38147 1.033677,-0.36999 2.082536,0.35687 1.393597,0.96576 1.721715,1.51036 1.947961,3.23318 0.117493,0.8947 0.333543,1.46493 0.592707,1.56438 0.2243,0.0861 1.396473,0.0242 2.604828,-0.13746 2.421432,-0.32398 5.019108,-1.5297 8.699918,-4.03807 1.050623,-0.71597 3.213063,-1.84448 4.805423,-2.50779 2.538021,-1.05724 2.974401,-1.33417 3.537175,-2.24476 0.641996,-1.03877 0.786218,-1.10864 3.041044,-1.47327 0.582084,-0.0941 2.248959,-0.74054 3.704167,-1.43647 3.548213,-1.69686 3.836458,-1.7746 3.836458,-1.03473 0,0.32285 -0.417549,0.99193 -0.929021,1.48867 -0.510963,0.49624 -1.107839,1.33022 -1.32639,1.85329 -0.465622,1.11439 -0.805524,1.03796 -0.38118,-0.0857 0.228222,-0.60433 0.220543,-0.69692 -0.0367,-0.44239 -0.178927,0.17705 -0.325324,0.68307 -0.325324,1.12448 0,0.44141 -0.08565,0.80257 -0.190341,0.80257 -0.104685,0 -0.395161,0.43163 -0.645499,0.95918 -0.340923,0.71844 -0.376124,1.00803 -0.140255,1.15381 0.22429,0.13862 0.188092,0.24328 -0.125791,0.36373 -0.69264,0.26579 -1.190093,0.19897 -1.203103,-0.16162 -0.0066,-0.1819 -0.17394,-0.68791 -0.371946,-1.12447 l -0.360011,-0.79375 0.109993,1.05833 0.109995,1.05833 -0.378425,-1.05833 -0.378429,-1.05833 0.107014,1.19062 c 0.08309,0.92446 0.0547,1.04276 -0.126998,0.52917 -0.233621,-0.66035 -0.2341,-0.66013 -0.28676,0.13229 -0.05214,0.78466 -0.05517,0.78617 -0.264584,0.13229 -0.116509,-0.3638 -0.221882,-0.89958 -0.234159,-1.19062 -0.01871,-0.44358 0.02262,-0.46498 0.255543,-0.1323 0.214262,0.30603 0.237127,0.25303 0.09989,-0.23157 -0.13344,-0.47121 -0.09343,-0.57619 0.159923,-0.41961 0.242297,0.14974 0.288602,0.0804 0.163668,-0.2452 -0.104161,-0.27144 -0.06829,-0.38855 0.0892,-0.29121 0.407591,0.2519 0.637921,-0.65996 0.255873,-1.013 -0.266067,-0.24587 -0.307361,-0.22316 -0.192648,0.10598 0.08477,0.24321 7.94e-4,0.41892 -0.200417,0.41892 -0.190534,0 -0.283638,-0.16362 -0.206899,-0.3636 0.07674,-0.19998 0.03562,-0.34463 -0.09137,-0.32144 -0.126992,0.0232 -0.290428,0.0189 -0.363188,-0.009 -0.549241,-0.21413 -1.033873,-0.18556 -0.886881,0.0523 0.09569,0.15482 -0.04557,0.44202 -0.313891,0.63823 -0.401182,0.29335 -0.41407,0.35674 -0.07252,0.35674 0.457637,0 0.894517,0.92198 1.1597,2.44739 0.09487,0.54571 0.278297,0.99219 0.407623,0.99219 0.129325,0 0.235138,0.11906 0.235138,0.26458 0,0.14552 -0.267891,0.26442 -0.595313,0.26422 -0.501856,-3.2e-4 -0.67152,-0.25967 -1.080762,-1.65214 -0.439034,-1.49386 -0.519509,-1.6052 -0.841722,-1.16454 -0.19595,0.26798 -0.284689,0.67378 -0.197193,0.90179 0.09864,0.25706 0.05085,0.34767 -0.125789,0.2385 -0.186856,-0.11548 -0.228766,0.0289 -0.121809,0.41962 0.145069,0.52995 0.174501,0.54035 0.266706,0.0942 0.08318,-0.40242 0.150519,-0.42854 0.341058,-0.13229 0.153736,0.23903 0.188431,0.0427 0.09844,-0.55691 -0.185037,-1.23291 0.257164,-0.25974 0.510953,1.12448 0.124261,0.67774 0.08529,0.99219 -0.122968,0.99219 -0.16796,0 -0.233503,-0.186 -0.145944,-0.41418 0.155964,-0.40643 -0.09517,-0.39257 -1.338038,0.0738 -0.170323,0.0639 -0.362466,-0.16078 -0.42699,-0.49933 -0.107519,-0.56414 -0.120322,-0.55609 -0.153344,0.0965 -0.04489,0.88705 -0.398167,1.13099 -0.849802,0.5868 -0.271772,-0.32746 -0.279078,-0.58866 -0.03458,-1.23641 0.170489,-0.45168 0.261964,-0.86925 0.203274,-0.92794 -0.22501,-0.22501 -3.034126,0.51668 -3.336415,0.88091 -0.463134,0.55805 -0.389096,1.6434 0.152969,2.24238 0.259025,0.28622 0.348017,0.5204 0.19776,0.5204 -0.470185,0 -0.942657,-0.77513 -0.971634,-1.59405 -0.02911,-0.82281 -0.427355,-1.12941 -0.421074,-0.32418 0.008,1.02011 0.362,1.67292 1.182174,2.17982 1.152118,0.71205 3.312131,0.68947 3.312131,-0.0346 0,-0.1413 -0.217316,-0.12928 -0.511773,0.0283 -0.686099,0.36719 -2.056995,0.34805 -2.291876,-0.032 -0.133948,-0.21673 0.03864,-0.26035 0.592156,-0.14964 0.429664,0.0859 0.949486,0.0522 1.155165,-0.0749 0.257212,-0.15897 0.103145,-0.22342 -0.493501,-0.20646 -1.158568,0.0329 -2.023546,-0.81072 -1.789064,-1.74497 0.199104,-0.79329 1.074015,-1.34411 1.705922,-1.074 0.368869,0.15768 0.336634,0.217 -0.194072,0.35712 -0.350031,0.0924 -0.766749,0.38115 -0.926042,0.64162 -0.234955,0.38419 -0.167635,0.57364 0.356651,1.0037 0.355451,0.29157 0.867997,0.47214 1.138988,0.40128 0.270992,-0.0709 1.144424,0.15937 1.940957,0.51163 0.796534,0.35227 1.623444,0.64048 1.837574,0.64048 0.665268,0 0.429657,0.80635 -0.510252,1.74625 -1.125744,1.12575 -0.764677,1.18313 0.493501,0.0784 0.98316,-0.86323 1.218012,-0.75862 0.523372,0.23312 -0.226533,0.32342 -0.299759,0.58804 -0.162721,0.58804 0.30344,0 1.137357,-1.23278 1.221436,-1.80565 0.0832,-0.56686 0.470953,-0.65164 1.048589,-0.22926 0.455329,0.33294 0.458155,0.4023 0.04865,1.19419 -0.239115,0.46239 -0.331745,0.84072 -0.205846,0.84072 0.125902,0 0.36453,-0.29766 0.530291,-0.66146 0.165759,-0.3638 0.41637,-0.66146 0.556911,-0.66146 0.326647,0 2.290876,1.79014 2.12743,1.93887 -0.06746,0.0614 -9.588127,0.15628 -21.157033,0.21086 l -21.034375,0.0992 -0.01918,-5.68854 c -0.01055,-3.1287 -0.07008,-7.77214 -0.132291,-10.31875 l -0.113109,-4.63021 1.521355,-0.0382 c 1.561879,-0.0392 2.042245,0.29422 0.853723,0.59252 -1.32188,0.33177 -1.906422,2.24676 -1.056297,3.46048 0.387343,0.55301 1.988511,1.29791 1.988511,0.92511 0,-0.10555 -0.357188,-0.50533 -0.79375,-0.88841 -0.436563,-0.38308 -0.79375,-0.92914 -0.79375,-1.21346 0,-0.55763 1.206991,-1.91741 1.689725,-1.90363 0.512082,0.0146 1.100974,0.62339 1.46356,1.51294 0.41635,1.02146 0.74584,1.09714 0.965544,0.22177 0.117562,-0.4684 -0.03347,-0.85545 -0.567861,-1.45521 -0.400412,-0.44939 -0.886935,-0.81708 -1.081161,-0.81708 -0.194227,0 -0.35314,-0.11744 -0.35314,-0.26098 0,-0.26649 0.762247,-0.273 42.201041,-0.36055 16.036743,-0.0339 20.807883,-0.11858 21.401803,-0.3799 0.42036,-0.18496 0.69593,-0.40465 0.61238,-0.4882 -0.16828,-0.16828 -25.887921,-0.13361 -37.095433,0.05 -3.929062,0.0644 -12.544325,0.16073 -19.145029,0.21414 -9.848185,0.0797 -12.042643,0.16273 -12.231839,0.46286 -0.126808,0.20117 -0.159215,2.21123 -0.07202,4.4668 0.0872,2.25557 0.174182,7.13714 0.193297,10.84792 l 0.03475,6.74687 h 21.493595 c 20.349442,0 21.485806,-0.0247 21.347275,-0.46302 -0.208261,-0.65902 0.123563,-0.57305 0.861518,0.22322 0.597263,0.64445 0.736036,0.67504 2.279298,0.50238 0.903822,-0.10112 1.747756,-0.2822 1.875407,-0.40239 0.239463,-0.22548 -1.000131,-0.61503 -2.911595,-0.91499 -2.008116,-0.31512 -3.15923,-2.14891 -2.858722,-4.5541 0.114776,-0.91864 0.06995,-1.53403 -0.12923,-1.77402 -0.251439,-0.30297 -0.08268,-0.38732 0.96145,-0.48055 1.517441,-0.1355 1.612141,-0.087 1.047454,0.53702 -1.025094,1.13272 -0.774025,3.36806 0.513916,4.57557 0.578162,0.54205 0.926254,0.63056 2.395329,0.60906 l 1.718857,-0.0251 -0.162165,0.86441 c -0.28034,1.49435 -0.606105,1.59042 6.86553,-2.02457 2.165339,-1.04765 4.7625,-1.90785 4.7625,-1.57738 0,0.0407 0.606954,-0.28388 1.348787,-0.72128 0.741831,-0.4374 1.6348,-0.88198 1.98437,-0.98796 1.3193,-0.39996 3.93671,-1.71247 5.23543,-2.62532 1.22312,-0.85971 2.32553,-1.25168 2.10294,-0.74771 -0.72345,1.63792 -1.0486,2.80239 -0.92264,3.30427 0.17327,0.69037 1.42206,1.25855 2.7661,1.25855 1.0932,0 2.94812,0.72263 3.66092,1.42621 0.73237,0.72288 2.01565,3.07171 1.67822,3.07171 -0.14263,0 -0.25934,-0.11906 -0.25934,-0.26458 0,-0.17156 -3.39548,-0.26459 -9.65729,-0.26459 -8.407868,0 -9.657289,-0.0513 -9.657289,-0.39687 0,-0.21828 -0.110781,-0.39688 -0.246182,-0.39688 -0.1354,0 -0.297778,-0.26789 -0.360844,-0.59531 -0.09831,-0.51042 -0.1198,-0.49155 -0.150693,0.13229 -0.01982,0.40019 0.09006,0.72761 0.244168,0.72761 0.154109,0 0.203758,0.12368 0.110331,0.27485 -0.100769,0.16304 -1.162677,0.25807 -2.610461,0.2336 -2.152118,-0.0364 -2.595168,0.0391 -3.748352,0.63887 l -1.307759,0.68012 0.926042,0.0182 c 4.334507,0.0852 21.837109,-0.0709 23.858919,-0.21277 1.40798,-0.0988 2.83673,-0.11319 3.175,-0.032 0.35034,0.0841 0.77206,-0.007 0.97988,-0.21268 0.22614,-0.22331 0.5279,-0.27906 0.79375,-0.14663 0.43277,0.21558 2.217195,0.27677 9.374215,0.32148 2.70216,0.0169 3.86409,0.11205 3.74382,0.30665 -0.0959,0.15521 -0.23619,0.22041 -0.3117,0.14489 -0.0755,-0.0755 -0.31022,0.0356 -0.52157,0.24699 -0.48645,0.48644 -1.96042,0.50645 -30.134045,0.40909 -6.706023,-0.0232 -12.391258,0.034 -12.633854,0.12712 -0.31355,0.12032 -0.442254,0.0272 -0.445132,-0.32207 -0.0034,-0.41253 -0.04423,-0.42768 -0.254572,-0.0944 -0.305014,0.4832 -1.499836,0.50747 -29.399859,0.59716 l -20.001189,0.0643 z m 80.999769,10.68806 c -0.0879,-0.0879 -0.31613,-0.0973 -0.50712,-0.0209 -0.21107,0.0845 -0.14837,0.14715 0.15985,0.15985 0.27892,0.0115 0.43519,-0.0511 0.34727,-0.13897 z m -72.119926,-3.59902 c 0.339919,-0.87055 2.222178,-1.68653 3.278697,-1.42136 0.956359,0.24003 1.921916,1.3518 2.048152,2.35831 l 0.105045,0.83755 0.03393,-0.92604 c 0.01866,-0.50932 -0.111113,-1.1101 -0.288386,-1.33506 -1.921714,-2.43865 -5.862466,-1.18588 -5.710242,1.81531 0.03586,0.70698 0.03655,0.70721 0.144597,0.0489 0.05971,-0.36381 0.234405,-0.98374 0.388208,-1.37763 z m 1.018664,1.28634 c 0,-0.64863 0.644435,-1.39258 1.322917,-1.5272 0.754511,-0.1497 1.767167,0.28631 2.055761,0.88513 0.175822,0.36483 0.29512,0.44508 0.30353,0.20419 0.01883,-0.53924 -0.264698,-0.9211 -0.952835,-1.28331 -0.870456,-0.45817 -1.570518,-0.36923 -2.291501,0.29112 -0.684086,0.62656 -1.175399,2.05052 -0.707496,2.05052 0.148293,0 0.269624,-0.2792 0.269624,-0.62045 z m 86.143927,-0.18543 c 0.70388,-0.73506 1.97231,-1.47028 2.17938,-1.26324 0.0466,0.0466 0.20276,-0.12612 0.34699,-0.38384 0.14423,-0.25772 0.36044,-0.40789 0.48047,-0.3337 0.12004,0.0742 0.28016,-0.10191 0.35585,-0.39131 0.1155,-0.44169 0.36466,-0.52684 1.55143,-0.53024 1.01042,-0.003 1.30059,-0.0772 1.01696,-0.26054 -0.33003,-0.21327 -0.30774,-0.25998 0.13229,-0.2773 0.45259,-0.0178 0.43344,-0.0594 -0.13229,-0.28751 -0.3638,-0.14668 -1.11541,-0.22457 -1.67023,-0.1731 -0.87438,0.0811 -0.94695,0.0484 -0.54474,-0.2457 0.42801,-0.31297 0.41781,-0.3393 -0.13133,-0.3393 -0.39947,0 -0.53392,-0.10881 -0.40863,-0.33073 0.13068,-0.23146 0.0983,-0.24994 -0.10801,-0.0616 -0.40118,0.36635 -0.084,1.45064 0.42435,1.45064 0.22557,0 0.34976,0.0604 0.27599,0.13413 -0.22751,0.22751 -1.80661,-0.18392 -1.65395,-0.43093 0.2,-0.3236 -0.70129,-0.29013 -1.71643,0.0637 -0.54461,0.18985 -0.79956,0.42608 -0.71046,0.65828 0.0764,0.1992 0.054,0.3495 -0.0499,0.33401 -0.1039,-0.0155 -0.4568,-0.0141 -0.78423,0.003 -0.736,0.0387 -0.79757,0.5605 -0.0661,0.5605 0.29104,0 0.52916,-0.12325 0.52916,-0.2739 0,-0.1805 0.19132,-0.1715 0.5611,0.0264 0.36292,0.19423 0.50004,0.2015 0.38822,0.0206 -0.0951,-0.15384 0.20132,-0.47321 0.65866,-0.70971 0.48922,-0.25299 0.75143,-0.30042 0.63697,-0.11521 -0.13917,0.22519 -0.0157,0.26505 0.4339,0.14006 0.57874,-0.1609 0.57089,-0.13736 -0.0992,0.29752 -0.40018,0.25973 -0.7276,0.5894 -0.7276,0.7326 0,0.14319 -0.56107,0.82999 -1.24683,1.52621 -0.68575,0.69623 -1.12231,1.26586 -0.97013,1.26586 0.15217,0 0.62395,-0.36264 1.04838,-0.80588 z m -67.652134,-0.72943 c -0.49335,-0.56108 -1.038829,-1.24883 -1.21217,-1.52835 -0.258583,-0.41696 -0.317963,-0.43177 -0.33073,-0.0824 -0.01704,0.46629 2.082023,2.9888 2.303106,2.76771 0.07524,-0.0752 -0.266856,-0.59585 -0.760206,-1.15692 z m 6.70198,0.88643 c 1.000242,-0.16859 2.587477,-1.27607 2.587477,-1.80539 0,-0.15981 -0.327422,0.0218 -0.727604,0.40356 -1.474677,1.40683 -3.37302,1.62481 -5.490104,0.63042 -1.501749,-0.70537 -2.0545,-1.24392 -2.623749,-2.55633 -0.230941,-0.53244 -0.402598,-0.71813 -0.408604,-0.44201 -0.01677,0.77123 0.719259,1.96211 1.643012,2.65834 0.973826,0.73397 3.041507,1.5135 3.638299,1.37166 0.218281,-0.0519 0.839854,-0.16899 1.381273,-0.26025 z m 5.231995,-1.26935 c 0.003,-0.45589 -0.468828,-0.14673 -0.807622,0.52917 -0.60389,1.20478 -0.578609,1.2948 0.130048,0.46302 0.371944,-0.43656 0.676852,-0.88304 0.677574,-0.99219 z m -17.280444,0.81029 c -0.08446,-0.21107 -0.147157,-0.14837 -0.159853,0.15985 -0.01149,0.27892 0.05105,0.43519 0.138965,0.34727 0.08792,-0.0879 0.09732,-0.31612 0.02089,-0.50712 z m 1.050874,-0.0713 c -0.08617,-0.22456 -0.283662,-0.40829 -0.43887,-0.40829 -0.195675,0 -0.191648,0.16919 0.01313,0.55183 0.328428,0.61367 0.671873,0.49788 0.425737,-0.14354 z m 1.405416,0.45161 c -0.01408,-0.31762 -1.049731,-1.47706 -1.192143,-1.33464 -0.07116,0.0711 0.119052,0.44521 0.422694,0.83123 0.561367,0.71366 0.785274,0.86015 0.769449,0.50341 z m 0.418756,-0.99809 c -0.370996,-0.54669 -0.674537,-0.81483 -0.674537,-0.59587 0,0.43845 1.04979,1.88914 1.233866,1.70506 0.06336,-0.0634 -0.188336,-0.5625 -0.559329,-1.10919 z m 1.469538,0.26128 c -0.451636,-0.51439 -0.821158,-1.05017 -0.821158,-1.19063 0,-0.14045 -0.123251,-0.25537 -0.273891,-0.25537 -0.344491,0 0.129489,0.95948 0.882242,1.78593 0.898745,0.98675 1.098079,0.66834 0.212807,-0.33993 z m 2.103387,-0.0401 c -0.626702,-0.53644 -1.298315,-1.34011 -1.492477,-1.78594 -0.323993,-0.74395 -0.353875,-0.75879 -0.363379,-0.18048 -0.01111,0.67634 2.028304,2.94175 2.648289,2.94175 0.190862,0 -0.165733,-0.4389 -0.792433,-0.97533 z m 12.156705,0.41493 c 0,-0.14552 -0.119063,-0.191 -0.264583,-0.10106 -0.145521,0.0899 -0.264584,0.28258 -0.264584,0.4281 0,0.14552 0.119063,0.191 0.264584,0.10107 0.14552,-0.0899 0.264583,-0.28259 0.264583,-0.42811 z m 18.785417,-0.0794 c 0,-0.3519 0.06133,-0.85792 0.136281,-1.12448 0.07495,-0.26656 -0.03874,-0.12747 -0.25265,0.30909 -0.460682,0.94019 -0.513139,1.45521 -0.148215,1.45521 0.145521,0 0.264584,-0.28792 0.264584,-0.63982 z m 1.114549,-1.04149 c 0.281559,-0.56091 0.371946,-0.93333 0.200858,-0.82759 -0.356367,0.22024 -1.061127,1.79542 -1.029935,2.30196 0.01357,0.22062 0.07268,0.20046 0.169018,-0.0577 0.08147,-0.21828 0.378497,-0.8558 0.660059,-1.41672 z m 2.054019,-0.0352 c 0.425647,-0.22011 1.047707,-0.39975 1.382357,-0.39921 0.91338,10e-4 2.32824,0.96323 2.32824,1.58262 0,0.29318 0.1318,0.53306 0.29289,0.53306 0.16109,0 0.22062,-0.18833 0.13229,-0.41852 -0.0883,-0.23018 -0.1606,-0.52959 -0.1606,-0.66534 0,-0.44775 -1.70326,-1.2954 -2.60501,-1.2964 -1.093088,-10e-4 -2.282649,0.67319 -2.664107,1.51039 -0.420637,0.9232 -0.330306,1.12078 0.127048,0.27788 0.216143,-0.39835 0.741246,-0.90437 1.166892,-1.12448 z m 0.734037,0.41521 c 0.69687,-0.35687 1.40479,-0.0695 2.03086,0.82432 0.2224,0.31752 0.47274,0.50893 0.55631,0.42536 0.0836,-0.0836 -0.13297,-0.48319 -0.48121,-0.88803 -0.80976,-0.94141 -2.03871,-0.98973 -2.968011,-0.1167 -0.362616,0.34066 -0.656656,0.74746 -0.65342,0.90399 0.0032,0.15653 0.211595,0.0306 0.463021,-0.27974 0.251425,-0.31039 0.72503,-0.70153 1.05245,-0.8692 z m 0.9707,1.01884 c 0.2301,0.19097 0.41836,0.22815 0.41836,0.0826 0,-0.56627 -0.73797,-0.90701 -1.306,-0.60301 -0.30034,0.16073 -0.546082,0.40813 -0.546082,0.54976 0,0.14629 0.219292,0.12057 0.507682,-0.0595 0.39972,-0.24963 0.59665,-0.24322 0.92604,0.0302 z m 3.1814,-0.60955 c -0.0952,-0.3794 -0.58141,-1.0483 -1.08042,-1.48643 -1.59695,-1.40214 -4.425766,-0.98868 -5.483215,0.80144 -0.632561,1.07083 -0.520756,1.33146 0.133122,0.31031 1.165503,-1.82015 3.528933,-2.21386 5.085513,-0.84717 0.499,0.43814 0.98519,1.10703 1.08041,1.48643 0.0952,0.37941 0.23267,0.6303 0.30543,0.55754 0.0728,-0.0728 0.0544,-0.44272 -0.0408,-0.82212 z m 0.91643,0.16554 c -0.67568,-1.77715 -2.47799,-3.27869 -3.86941,-3.22368 -0.25933,0.0103 10e-4,0.19169 0.57894,0.4032 1.32931,0.48664 2.42603,1.53013 2.80041,2.66451 0.16016,0.48532 0.3981,0.8824 0.52873,0.8824 0.13091,0 0.11355,-0.32606 -0.0387,-0.72643 z m 1.77732,0.33939 c 0.2416,-0.62958 -0.651,-2.91231 -1.42897,-3.65445 -0.39629,-0.37804 -1.07771,-0.81103 -1.51428,-0.96219 -0.65728,-0.2276 -0.70805,-0.21912 -0.29528,0.0493 1.83782,1.19517 2.80882,2.60431 2.80882,4.07625 0,0.89106 -0.43361,0.54276 -0.63244,-0.50802 -0.0898,-0.47455 -0.53923,-1.26388 -0.99874,-1.75406 -0.8168,-0.87133 -2.52062,-1.79203 -2.79973,-1.51291 -0.0772,0.0772 0.15072,0.25107 0.50653,0.38634 1.52664,0.58043 3.13063,2.48868 3.13063,3.72446 0,0.64089 0.98895,0.7664 1.22346,0.15527 z m 0.61774,-1.90081 c -0.17736,-0.63345 -0.42606,-1.15174 -0.55266,-1.15174 -0.30287,0 -0.29709,0.0399 0.16667,1.14982 0.21828,0.52242 0.41309,1.2811 0.43291,1.68596 0.0333,0.68005 0.0452,0.68781 0.15579,0.1019 0.0659,-0.34881 -0.0254,-1.15248 -0.20271,-1.78594 z m 1.28119,0.77599 c -0.24624,-1.57028 -0.36431,-1.86358 -0.63943,-1.58845 -0.0896,0.0896 -0.0301,0.54391 0.13229,1.00962 0.16234,0.4657 0.29517,1.12662 0.29517,1.46871 0,0.34209 0.10104,0.62198 0.22453,0.62198 0.12349,0 0.11784,-0.68034 -0.0126,-1.51186 z m 1.08044,0.14503 c -0.11884,-0.75176 -0.35538,-1.4959 -0.52565,-1.65365 -0.23303,-0.21589 -0.26456,-0.12325 -0.12751,0.37464 0.10015,0.36381 0.25108,1.10795 0.33542,1.65365 0.0843,0.5457 0.23894,0.99219 0.34357,0.99219 0.10463,0 0.093,-0.61508 -0.0258,-1.36683 z m 1.05235,0.12096 c -0.12801,-0.68523 -0.32586,-1.33898 -0.43966,-1.45278 -0.11379,-0.1138 -0.0871,0.44684 0.0592,1.24587 0.14638,0.79903 0.34422,1.45278 0.43966,1.45278 0.0954,0 0.0688,-0.56065 -0.0592,-1.24587 z m 0.96781,0.25368 c -0.10224,-0.5457 -0.30228,-1.17078 -0.44452,-1.38906 -0.19261,-0.29557 -0.22113,-0.22803 -0.11174,0.26458 0.0808,0.3638 0.14851,0.98888 0.1505,1.38906 0.002,0.40019 0.13592,0.72761 0.29764,0.72761 0.19642,0 0.23232,-0.32936 0.10812,-0.99219 z m 0.85168,0.0664 c -0.15628,-0.5092 -0.33506,-0.8749 -0.39729,-0.81267 -0.18665,0.18665 0.22632,1.73849 0.46263,1.73849 0.12034,0 0.0909,-0.41662 -0.0653,-0.92582 z m 9.064925,0.66123 c 0,-0.14552 -0.20836,-0.26276 -0.46302,-0.26053 -0.3957,0.003 -0.40532,0.0413 -0.0661,0.26053 0.49933,0.32269 0.52917,0.32269 0.52917,0 z m 20.30126,0.10473 c -0.0879,-0.0879 -0.31613,-0.0973 -0.50712,-0.0209 -0.21107,0.0845 -0.14837,0.14715 0.15985,0.15985 0.27892,0.0115 0.43519,-0.0511 0.34727,-0.13897 z M 20.832682,163.13506 c 0.008,-0.14552 -0.100871,-0.086 -0.241936,0.13229 -0.141064,0.21828 -0.249935,0.57547 -0.241935,0.79375 0.01536,0.41906 0.45632,-0.42486 0.483871,-0.92604 z m 3.197648,1.07395 c 0,-0.0642 -0.119063,-0.19026 -0.264584,-0.2802 -0.145521,-0.0899 -0.264583,-0.0374 -0.264583,0.11668 0,0.1541 0.119062,0.28019 0.264583,0.28019 0.145521,0 0.264584,-0.0525 0.264584,-0.11667 z m 5.291666,-0.14791 c 0,-0.34825 0.97553,-0.34263 1.148733,0.007 0.07397,0.14916 0.104335,0.1194 0.06747,-0.0661 -0.09933,-0.49994 -1.078962,-0.55693 -1.470189,-0.0855 -0.230182,0.27735 -0.244066,0.40964 -0.04299,0.40964 0.163339,0 0.29698,-0.11906 0.29698,-0.26458 z m 48.597466,-0.59584 c 0.04217,-0.78074 0.02397,-0.80266 -0.198951,-0.23962 -0.134956,0.34086 -0.178586,0.72781 -0.09695,0.8599 0.222729,0.36038 0.24551,0.31263 0.295905,-0.62028 z m 28.014988,0.45513 c -0.28247,-0.21365 -0.63966,-0.38424 -0.79375,-0.37908 -0.15409,0.005 0.0175,0.17953 0.3813,0.3875 0.85705,0.48993 1.0657,0.48568 0.41245,-0.008 z m 1.45906,-0.0876 c -0.28875,-0.53953 -1.78747,-1.26684 -2.05638,-0.99794 -0.0923,0.0924 7.9e-4,0.1685 0.20692,0.16922 0.20615,7.2e-4 0.73201,0.2941 1.16858,0.65194 0.96348,0.78976 1.01626,0.80347 0.68088,0.17678 z m 11.17452,-0.018 c -0.0735,-0.28098 -0.28462,-0.56882 -0.46921,-0.63966 -0.26279,-0.10084 -0.27149,0.01 -0.0401,0.5088 0.35363,0.76291 0.69769,0.85131 0.50928,0.13086 z m -93.611659,-0.0183 c -0.08994,-0.14552 -0.282584,-0.26459 -0.428104,-0.26459 -0.145521,0 -0.190999,0.11907 -0.101062,0.26459 0.08994,0.14552 0.282584,0.26458 0.428104,0.26458 0.145521,0 0.190999,-0.11906 0.101062,-0.26458 z m 8.598959,-0.40712 c 0,-0.98929 -1.750098,-2.73517 -2.910417,-2.9034 -0.898609,-0.13028 -0.892522,-0.1217 0.205476,0.28961 1.168053,0.43755 2.440357,1.90661 2.440357,2.81774 0,0.25726 0.05953,0.46775 0.132292,0.46775 0.07276,0 0.132292,-0.30227 0.132292,-0.6717 z m 20.392186,-0.009 c 0.374401,-0.18827 0.850651,-0.54824 1.058333,-0.79994 0.351261,-0.42571 0.333822,-0.43154 -0.249949,-0.0836 -0.345157,0.20572 -0.880938,0.52112 -1.190625,0.70087 -1.5582,0.90445 -4.518316,-0.26602 -5.431801,-2.14781 -0.290869,-0.59919 -0.534786,-0.93469 -0.542041,-0.74556 -0.019,0.49512 0.788734,1.98106 1.284245,2.36257 0.232297,0.17886 1.017672,0.55671 1.745277,0.83968 1.346123,0.52351 2.090602,0.49527 3.326561,-0.12622 z m 53.795214,-0.55576 c -1.15077,-0.92082 -1.4283,-0.73488 -0.36865,0.24698 0.50933,0.47194 0.97287,0.74725 1.0301,0.61182 0.0572,-0.13544 -0.24042,-0.5219 -0.66145,-0.8588 z m 4.52615,0.97232 c -0.0899,-0.14552 -0.30533,-0.26276 -0.47864,-0.26053 -0.18934,0.002 -0.1567,0.10642 0.0818,0.26053 0.5083,0.32848 0.59989,0.32848 0.39688,0 z m 5.01578,0.0183 c 0.0837,-0.13547 0.0312,-0.32109 -0.11668,-0.41249 -0.14789,-0.0914 -0.2689,0.0194 -0.2689,0.2463 0,0.46475 0.15877,0.53318 0.38558,0.16619 z m 2.52484,0.0227 c 0,-0.12296 -0.23377,-0.43513 -0.51949,-0.69371 -0.50798,-0.45971 -0.51238,-0.4548 -0.19844,0.22151 0.30921,0.66612 0.71793,0.93495 0.71793,0.4722 z m 4.27865,-0.2143 c 0.49298,-0.44614 0.66257,-2.04662 0.2805,-2.6471 -0.10738,-0.16877 -0.55204,-0.34736 -0.98813,-0.39687 -0.43609,-0.0495 -0.79289,-0.22281 -0.79289,-0.3851 0,-0.1623 -0.35719,-0.65452 -0.79375,-1.09384 -0.43657,-0.43932 -1.03188,-1.10898 -1.32292,-1.48813 -0.65275,-0.85035 -0.72345,-0.85157 -1.92754,-0.0334 -0.53538,0.3638 -1.21368,0.66524 -1.50732,0.66987 -0.29364,0.005 -0.76501,0.18322 -1.04748,0.39688 -0.58596,0.44319 -1.88814,0.51884 -2.13224,0.12387 -0.31006,-0.50168 -0.58777,-0.26293 -0.46164,0.39688 0.0875,0.4575 0.30051,0.66271 0.69092,0.66551 0.46142,0.003 0.49202,0.0509 0.16759,0.26053 -0.23265,0.15035 -0.26784,0.25816 -0.085,0.26053 0.1715,0.002 0.49042,-0.17454 0.7087,-0.39282 0.21828,-0.21828 0.57695,-0.39688 0.79703,-0.39688 0.22009,0 0.47375,-0.11906 0.56369,-0.26458 0.0899,-0.14552 0.34359,-0.26458 0.56368,-0.26458 0.22008,0 0.57984,-0.17969 0.79946,-0.39931 0.21962,-0.21962 0.50877,-0.33165 0.64256,-0.24897 0.13379,0.0827 0.24325,-0.0162 0.24325,-0.21968 0,-0.20351 0.28481,-0.49979 0.6329,-0.65839 0.53262,-0.24267 0.72126,-0.1943 1.19062,0.30532 0.30676,0.32652 0.55773,0.73208 0.55773,0.90125 0,0.16917 0.29766,0.50261 0.66146,0.74098 0.36381,0.23837 0.66146,0.65557 0.66146,0.9271 0,0.30733 0.25234,0.55703 0.66844,0.66147 1.56958,0.39393 1.36513,2.22356 -0.24848,2.22356 -0.48638,0 -1.03255,-0.17859 -1.21371,-0.39687 -0.72838,-0.87765 -0.9085,-0.0672 -0.19111,0.85989 0.3738,0.4831 2.30956,0.41113 2.88226,-0.10715 z m 2.73281,0.1733 c 0.0957,-0.15478 -0.17885,-0.26459 -0.66146,-0.26459 -0.48261,0 -0.75712,0.10981 -0.66146,0.26459 0.0899,0.14552 0.3876,0.26458 0.66146,0.26458 0.27387,0 0.57152,-0.11906 0.66146,-0.26458 z M 26.146996,163.18696 c 0,-0.75611 1.430571,-2.18145 2.597888,-2.58838 0.477789,-0.16655 0.81796,-0.35358 0.755935,-0.4156 -0.06202,-0.062 -0.604327,0.0839 -1.205116,0.3243 -1.147282,0.45905 -2.41329,1.72428 -2.41329,2.4118 0,0.2667 -0.148222,0.34801 -0.434299,0.23823 -0.363133,-0.13935 -0.379502,-0.10063 -0.09989,0.23628 0.480524,0.57899 0.798776,0.49667 0.798776,-0.20663 z m 94.191674,0.0804 c -0.15576,-0.29104 -0.34274,-0.52917 -0.4155,-0.52917 -0.0728,0 -0.005,0.23813 0.15091,0.52917 0.15576,0.29104 0.34274,0.52917 0.4155,0.52917 0.0728,0 0.005,-0.23813 -0.15091,-0.52917 z m -96.068083,-0.37098 c 0.352607,-0.37533 0.561075,-0.88143 0.509142,-1.23605 -0.129934,-0.88722 -0.696779,-0.93156 -0.796457,-0.0623 -0.06907,0.60232 -0.233294,0.76014 -0.865936,0.83213 -1.262057,0.14362 -1.971935,-1.34275 -1.071381,-2.24331 0.218281,-0.21828 0.393385,-0.59673 0.389119,-0.84099 -0.01496,-0.85658 -1.579744,1.2093 -1.579744,2.08562 0,1.79449 2.213627,2.74398 3.415257,1.4649 z m -2.985696,-0.82987 c -0.255317,-0.66535 -0.179999,-0.83703 0.131904,-0.30066 0.154434,0.26558 0.225054,0.5386 0.156932,0.60672 -0.06812,0.0681 -0.198098,-0.0696 -0.288836,-0.30606 z m 32.416499,0.51988 c 1.118928,-0.57862 0.792782,-0.74085 -0.447535,-0.22262 -1.957768,0.81801 -4.148413,-0.25199 -4.514842,-2.20523 -0.105706,-0.56346 -0.261953,-0.80624 -0.418269,-0.64993 -0.383746,0.38375 0.387895,1.96221 1.358492,2.77892 1.00048,0.84184 2.724431,0.96994 4.022154,0.29886 z m -26.355725,-2.41233 c 0.286618,-0.17335 0.388351,-0.32218 0.226075,-0.33073 -0.426297,-0.0225 -1.64147,0.98698 -1.996603,1.6586 -0.224513,0.4246 -0.100984,0.36738 0.472737,-0.21895 0.427167,-0.43657 1.011173,-0.93558 1.297791,-1.10892 z m 5.842362,0.93855 c -0.431677,-0.6163 -1.721032,-1.54548 -2.146239,-1.54669 -0.145521,-4.3e-4 0.0926,0.21987 0.529167,0.48954 0.436562,0.26966 1.020562,0.74546 1.297778,1.05734 0.649103,0.73026 0.830847,0.73016 0.319294,-1.9e-4 z m 75.773553,0.33096 c 0,-0.12995 -0.17859,-0.3048 -0.39687,-0.38857 -0.4033,-0.15476 -0.54186,0.12708 -0.22049,0.44846 0.25286,0.25286 0.61736,0.2175 0.61736,-0.0599 z m -82.682292,-1.35122 c 0.206952,-0.33486 -0.143306,-0.33486 -0.661458,0 -0.342024,0.22103 -0.33504,0.25704 0.05053,0.26053 0.246073,0.002 0.52099,-0.11501 0.610927,-0.26053 z m 62.309377,-0.41249 c 0,-0.22687 -0.11084,-0.34399 -0.2463,-0.26027 -0.13547,0.0837 -0.32109,0.0312 -0.41249,-0.11667 -0.0914,-0.1479 -0.29142,-0.2689 -0.44447,-0.2689 -0.15306,0 0.003,0.23416 0.34634,0.52036 0.76278,0.63546 0.75692,0.63449 0.75692,0.12548 z m 34.902185,-0.0505 c -0.19371,-0.25466 -0.65477,-0.77873 -1.02459,-1.1646 -0.36981,-0.38587 -0.83322,-0.89972 -1.0298,-1.14189 -0.19658,-0.24216 -0.41696,-0.38077 -0.48972,-0.30801 -0.14432,0.14432 0.0785,0.43051 1.57445,2.02216 1.00432,1.06858 1.61625,1.44239 0.96966,0.59234 z m -4.90858,-0.46302 c 0.0838,-0.21828 0.037,-0.39688 -0.10399,-0.39688 -0.14095,0 -0.25628,0.1786 -0.25628,0.39688 0,0.21828 0.0468,0.39687 0.10399,0.39687 0.0572,0 0.17251,-0.17859 0.25628,-0.39687 z m 1.04033,-0.12437 c -0.50663,-0.59171 -0.69864,-0.555 -0.45248,0.0865 0.0918,0.23911 0.33152,0.43474 0.53281,0.43474 0.2844,0 0.26649,-0.11619 -0.0803,-0.52124 z m -98.899869,-0.94409 c -0.205338,-0.57652 -0.378567,-0.8476 -0.384955,-0.60241 -0.0142,0.54528 0.488851,1.92006 0.645328,1.76358 0.06213,-0.0621 -0.05503,-0.58466 -0.260373,-1.16117 z m 67.865934,0.67158 c 0,-0.14552 -0.12609,-0.26458 -0.2802,-0.26458 -0.15411,0 -0.20661,0.11906 -0.11668,0.26458 0.0899,0.14552 0.21603,0.26459 0.2802,0.26459 0.0642,0 0.11668,-0.11907 0.11668,-0.26459 z m -66.855181,-0.81024 c -0.260863,-0.52292 -0.342128,-1.10934 -0.229155,-1.65365 0.09628,-0.46387 0.25827,-1.56414 0.359984,-2.44505 0.101714,-0.8809 0.392553,-1.91851 0.646309,-2.30579 0.529963,-0.80883 0.588336,-1.09705 0.169795,-0.83837 -0.52176,0.32246 -1.061845,1.99443 -1.072105,3.31897 -0.0055,0.71209 -0.117662,1.36124 -0.249214,1.44254 -0.548689,0.33911 -0.03135,3.29159 0.576756,3.29159 0.111009,0 0.01994,-0.36461 -0.20237,-0.81024 z m 1.056843,-0.63341 c -0.08162,-0.50296 -0.05847,-1.12804 0.05145,-1.38906 0.109919,-0.26102 0.217257,-1.06989 0.238528,-1.79749 0.02127,-0.72761 0.134385,-1.56105 0.251365,-1.85209 0.209575,-0.52142 0.206562,-0.52164 -0.205785,-0.0156 -0.24312,0.29838 -0.418474,1.01115 -0.418474,1.701 0,0.65308 -0.12984,1.55306 -0.288532,1.99995 -0.205424,0.5785 -0.20731,1.02212 -0.0065,1.54014 0.386407,0.99705 0.556476,0.91297 0.377995,-0.18688 z m 34.048336,-0.27614 c -0.413705,-1.25354 -0.603194,-1.06405 -0.211667,0.21167 0.165172,0.53818 0.351764,0.92705 0.41465,0.86417 0.06289,-0.0629 -0.02846,-0.54701 -0.202983,-1.07584 z m 5.688542,-3.08948 c 0.255608,0.0237 1.451096,-1.73271 1.453853,-2.13604 0.0033,-0.47893 -0.577299,-0.12985 -1.034555,0.62204 -0.489098,0.80426 -0.502721,0.80864 -0.689075,0.22149 -0.167651,-0.52822 -0.219348,-0.54676 -0.43751,-0.15693 -0.136067,0.24314 -0.173051,0.56236 -0.08219,0.70938 0.09086,0.14703 -0.08965,0.67969 -0.401153,1.18371 -0.3115,0.50401 -0.480066,1.05602 -0.374592,1.22668 0.113046,0.18291 0.07776,0.23982 -0.08597,0.13864 -0.303305,-0.18746 -0.682202,0.53297 -0.465077,0.88429 0.07393,0.11961 -0.06806,0.18776 -0.315529,0.15144 -0.247464,-0.0363 -0.497318,-0.20818 -0.55523,-0.38192 -0.05791,-0.17373 0.03981,-0.28239 0.217167,-0.24146 0.177353,0.0409 0.376174,-0.10418 0.441822,-0.32246 0.106101,-0.35278 0.08818,-0.35278 -0.161314,0 -0.297166,0.42019 -0.308414,0.39149 -0.414631,-1.05834 -0.03731,-0.50932 -0.0098,-0.76374 0.06103,-0.56537 0.108808,0.3045 0.167791,0.3045 0.378765,0 0.182615,-0.26357 0.211232,-0.21821 0.106304,0.1685 -0.192955,0.71112 0.228346,1.42136 0.469831,0.79206 0.09349,-0.24362 0.09166,-0.56965 -0.004,-0.72453 -0.110527,-0.17883 -0.04616,-0.20256 0.176395,-0.065 0.256569,0.15857 0.303763,0.095 0.176202,-0.23744 -0.102383,-0.26679 -0.06762,-0.38813 0.08429,-0.29425 0.149884,0.0926 0.193715,-0.0406 0.104302,-0.31699 -0.128942,-0.39861 -0.107424,-0.41171 0.13127,-0.0799 0.176464,0.24531 0.287039,0.27653 0.289544,0.0818 0.0073,-0.56923 -0.492813,-0.6365 -0.777494,-0.10457 -0.176294,0.32941 -0.478081,0.48282 -0.820184,0.41694 -0.310804,-0.0598 -0.605139,0.0622 -0.69129,0.28674 -0.110199,0.28717 -0.240935,0.31552 -0.492451,0.10678 -0.357611,-0.29679 -0.873008,0.13998 -0.548317,0.46467 0.08733,0.0873 0.159573,-0.01 0.160531,-0.21604 0.0011,-0.20615 0.235418,-0.0203 0.52102,0.41297 0.444182,0.67386 0.46306,0.81925 0.130548,1.00533 -0.213799,0.11965 -0.388729,0.33772 -0.388729,0.4846 0,0.14687 0.110916,0.1985 0.246481,0.11471 0.135564,-0.0838 0.420513,0.0961 0.633222,0.39982 0.287335,0.41023 0.428413,0.46238 0.548854,0.20287 0.08916,-0.19211 0.09874,0.008 0.0213,0.44446 -0.08532,0.48092 0.305089,-0.0806 0.990605,-1.42473 0.622282,-1.22017 1.250485,-2.20743 1.396006,-2.19392 z m 61.912505,4.01552 c -0.0899,-0.14552 -0.30532,-0.26276 -0.47864,-0.26053 -0.18934,0.002 -0.1567,0.10642 0.0818,0.26053 0.5083,0.32849 0.59989,0.32849 0.39688,0 z m -7.27604,-0.54478 c 0,-0.13693 -0.0992,-0.24897 -0.22049,-0.24897 -0.12127,0 -0.22049,0.17336 -0.22049,0.38524 0,0.21188 0.0992,0.32392 0.22049,0.24897 0.12127,-0.075 0.22049,-0.24831 0.22049,-0.38524 z M 23.984912,156.6528 c 0.0992,0 0.179768,-0.82718 0.179038,-1.83818 -7.41e-4,-1.01383 -0.102548,-1.73726 -0.227032,-1.61315 -0.124137,0.12376 -0.179938,0.86165 -0.124003,1.63974 0.07279,1.01253 -0.0062,1.49732 -0.27774,1.7053 -0.246256,0.1886 -0.297779,0.42077 -0.146787,0.66146 0.189608,0.30225 0.249628,0.2852 0.324405,-0.0921 0.05047,-0.25466 0.172918,-0.46302 0.272119,-0.46302 z m 31.176896,-0.33073 c -0.0734,-0.1819 -0.133453,-0.0331 -0.133453,0.33073 0,0.3638 0.06005,0.51263 0.133453,0.33073 0.0734,-0.18191 0.0734,-0.47956 0,-0.66146 z m 7.62998,0.59531 c -0.08994,-0.14552 -0.282583,-0.26458 -0.428104,-0.26458 -0.145521,0 -0.191,0.11906 -0.101063,0.26458 0.08994,0.14552 0.282583,0.26458 0.428104,0.26458 0.145521,0 0.191,-0.11906 0.101063,-0.26458 z m 0.653796,-0.5395 c -0.622816,-0.39388 -0.938525,-0.29176 -0.374052,0.12099 0.282244,0.20639 0.569444,0.31897 0.63822,0.2502 0.06877,-0.0688 -0.0501,-0.23581 -0.264168,-0.37119 z m 57.023506,0.0134 c 0.0927,-0.14998 -0.0135,-0.19434 -0.24897,-0.10398 -0.45837,0.17589 -0.54224,0.36554 -0.16165,0.36554 0.13693,0 0.32171,-0.1177 0.41062,-0.26156 z M 55.648038,155.5945 c -0.09933,-0.31297 -0.240138,-0.50951 -0.312899,-0.43675 -0.07276,0.0728 -0.05102,0.38836 0.04832,0.70134 0.09933,0.31297 0.240138,0.50951 0.312899,0.43675 0.07276,-0.0728 0.05102,-0.38836 -0.04832,-0.70134 z m 8.482243,0.38846 c -0.282475,-0.21365 -0.632653,-0.38846 -0.778174,-0.38846 -0.145521,0 -0.03347,0.17481 0.249007,0.38846 0.282474,0.21366 0.632653,0.38846 0.778174,0.38846 0.145521,0 0.03347,-0.1748 -0.249007,-0.38846 z m -39.085973,-0.66655 c -0.154776,-0.44399 -0.330507,-0.75816 -0.390514,-0.69815 -0.131024,0.13103 0.368229,1.50541 0.546849,1.50541 0.06879,0 -0.0016,-0.36327 -0.156335,-0.80726 z m 0.724712,-0.40226 c -0.09732,-0.38775 -0.236475,-0.64547 -0.309235,-0.57271 -0.07276,0.0728 -0.05267,0.44954 0.04465,0.83729 0.09732,0.38775 0.236475,0.64547 0.309235,0.57271 0.07276,-0.0728 0.05267,-0.44954 -0.04465,-0.83729 z m -4.954047,-1.46093 c 0.0056,-0.72354 0.196088,-1.68816 0.423296,-2.14361 0.227208,-0.45545 0.354621,-0.88657 0.283139,-0.95806 -0.26411,-0.26411 -0.996257,1.98045 -1.091077,3.34495 -0.05386,0.7751 -0.167697,1.54901 -0.252963,1.71979 -0.08527,0.17078 0.02102,0.0949 0.236192,-0.16852 0.22437,-0.27473 0.395569,-1.04009 0.401413,-1.79455 z m 12.619364,1.6304 c -0.08372,-0.13547 -0.03122,-0.32109 0.116677,-0.41249 0.147894,-0.0914 0.268899,-0.0331 0.268899,0.12962 0,0.1627 0.10346,0.23187 0.229912,0.15372 0.126451,-0.0781 0.312797,-1.09228 0.414102,-2.25361 0.156086,-1.78934 0.104779,-2.29105 -0.336248,-3.28807 -0.427968,-0.96749 -0.760105,-1.28648 -1.869311,-1.79534 -0.741879,-0.34035 -1.348872,-0.79483 -1.348872,-1.00996 0,-0.27141 -0.11858,-0.22185 -0.387383,0.16192 -0.21306,0.30419 -0.748842,0.62536 -1.190625,0.71372 -0.441783,0.0883 -0.803242,0.29726 -0.803242,0.46424 0,0.22058 0.105668,0.2159 0.386456,-0.0171 0.21255,-0.1764 0.932687,-0.32898 1.600305,-0.33908 1.38421,-0.0209 2.427786,0.59914 3.010356,1.78866 0.445059,0.90874 0.260113,1.26773 -1.250809,2.42791 -1.060012,0.81393 -1.073011,0.84168 -0.371837,0.79375 0.656488,-0.0449 0.723048,0.0311 0.690048,0.78733 -0.03333,0.76387 0.02446,0.82695 0.661459,0.72191 0.510327,-0.0842 0.594676,-0.0471 0.313738,0.13772 -0.211333,0.13905 -0.479223,0.19412 -0.595312,0.12238 -0.329202,-0.20346 -0.247778,0.2874 0.10643,0.64161 0.37802,0.37802 0.568473,0.41619 0.355257,0.0712 z m 23.139743,0.0855 c 0,-0.21898 -0.51375,-0.34281 -0.631537,-0.15223 -0.07641,0.12364 0.03442,0.22481 0.246301,0.22481 0.211878,0 0.385236,-0.0327 0.385236,-0.0726 z m 69.43699,-0.59232 c -0.44544,-0.40567 -0.78179,-0.88141 -0.74745,-1.0572 0.0344,-0.17578 0.002,-0.19682 -0.0726,-0.0468 -0.20481,0.4138 -0.61902,0.0434 -0.61902,-0.55358 0,-0.34481 0.26738,-0.62052 0.77254,-0.79662 1.26792,-0.442 1.23548,-0.9871 -0.13869,-2.32999 -0.6808,-0.6653 -1.51714,-1.83471 -1.85854,-2.5987 -0.69111,-1.54658 -1.02499,-1.85689 -0.56936,-0.52916 0.44654,1.30123 1.48643,2.89585 2.38949,3.66414 0.86963,0.73985 0.81705,1.17524 -0.1881,1.5574 -1.09406,0.41596 -1.0212,1.26926 0.20569,2.4089 0.60872,0.56544 1.22583,1.02606 1.37135,1.02361 0.14552,-0.002 -0.0999,-0.33637 -0.54531,-0.74204 z m -90.838077,-0.98845 c -0.307631,-0.39109 -0.55933,-0.55556 -0.55933,-0.3655 0,0.39662 0.818246,1.37699 0.99868,1.19655 0.06599,-0.066 -0.131718,-0.43996 -0.43935,-0.83105 z m 33.048061,0.29273 c -0.212029,-0.25548 -0.230664,-0.40327 -0.05085,-0.40327 0.156106,0 0.39988,0.20736 0.541718,0.46081 0.141838,0.25345 0.318204,0.4005 0.391925,0.32678 0.07372,-0.0737 -0.06618,-0.39703 -0.310883,-0.71847 -0.60439,-0.79389 -1.312209,-0.41892 -0.84768,0.44906 0.172334,0.32201 0.380188,0.51862 0.461894,0.43691 0.08171,-0.0817 -0.0021,-0.33003 -0.186124,-0.55182 z m -35.724058,-0.25865 c 0,-0.0557 -0.06938,-0.28216 -0.154188,-0.50315 -0.162826,-0.42432 -0.904145,-0.30087 -0.904145,0.15056 0,0.14552 0.201684,0.18719 0.448186,0.0926 0.378895,-0.1454 0.368669,-0.0825 -0.06614,0.40706 l -0.514333,0.57906 0.595313,-0.3124 c 0.327422,-0.17181 0.595312,-0.35799 0.595312,-0.41373 z m 4.894792,-0.14462 c 0.402186,-0.17283 0.426621,-0.23186 0.101827,-0.24599 -0.899767,-0.0392 -1.821619,-1.0728 -1.821619,-2.04253 0,-1.22878 1.194336,-2.47398 2.372924,-2.47398 1.724401,0 2.7961,2.22106 1.595826,3.30729 -0.291041,0.26339 -0.529166,0.3484 -0.529166,0.18891 0,-0.15948 0.119062,-0.36356 0.264583,-0.45349 0.415425,-0.25675 0.309608,-1.49609 -0.173299,-2.02969 -0.938103,-1.03659 -3.266284,-0.0699 -3.266284,1.3562 0,0.6061 0.880916,1.60913 1.389062,1.58162 0.181901,-0.01 0.06025,-0.14826 -0.270334,-0.30758 -0.728344,-0.35102 -1.005046,-1.27942 -0.604423,-2.028 0.584503,-1.09215 2.418456,-0.94322 2.789725,0.22655 0.185071,0.5831 -0.259402,1.59777 -0.699903,1.59777 -0.193507,0 -0.183811,-0.12514 0.02962,-0.38231 0.174509,-0.21027 0.278385,-0.65676 0.230834,-0.99219 -0.07147,-0.50414 -0.247,-0.60987 -1.012498,-0.60987 -0.765498,0 -0.94103,0.10573 -1.012498,0.60987 -0.118609,0.83668 0.324082,1.28573 1.481605,1.50289 0.919871,0.17256 0.948396,0.20642 0.46917,0.55684 -0.280637,0.20521 -0.409435,0.3731 -0.286217,0.3731 0.123218,0 0.622225,-0.30371 1.108903,-0.67492 0.743119,-0.5668 0.88487,-0.84423 0.88487,-1.73182 0,-2.06602 -1.978731,-3.00253 -3.886367,-1.83936 -1.609805,0.98156 -1.611273,3.59506 -0.0024,4.24298 0.521952,0.2102 0.529049,0.23588 0.06934,0.25094 -0.281665,0.009 -0.813843,-0.25112 -1.182621,-0.57855 -0.560441,-0.49759 -0.606671,-0.50845 -0.281636,-0.0661 0.715194,0.97322 1.189579,1.11325 2.240952,0.66146 z m -0.301195,-1.98438 c -0.236294,-0.61577 0.09674,-1.19062 0.689766,-1.19062 0.662387,0 0.760809,1.1806 0.118956,1.4269 -0.586613,0.2251 -0.637363,0.21027 -0.808722,-0.23628 z m 87.741537,-0.33752 c -0.002,-0.10541 -0.4787,-0.65906 -1.05833,-1.23033 -0.57963,-0.57128 -1.05388,-1.19636 -1.05388,-1.38907 0,-0.53916 -2.78955,-0.56827 -3.30729,-0.0345 -0.1807,0.18629 -0.0672,0.21301 0.35791,0.0843 0.99074,-0.29998 2.52477,-0.21876 2.64437,0.14003 0.0602,0.18067 0.52425,0.78758 1.03117,1.34868 l 0.92167,1.02018 -0.62548,0.54294 -0.62548,0.54294 0.8599,-0.41675 c 0.47294,-0.22922 0.85789,-0.503 0.85544,-0.6084 z m -20.10388,0.61772 c 0,-0.0642 -0.11906,-0.19026 -0.26458,-0.2802 -0.14552,-0.0899 -0.26459,-0.0374 -0.26459,0.11668 0,0.15411 0.11907,0.2802 0.26459,0.2802 0.14552,0 0.26458,-0.0525 0.26458,-0.11668 z m -74.191632,-0.87356 c -0.183488,-0.18349 -0.685455,0.18932 -0.685455,0.50908 0,0.17545 0.151813,0.15537 0.403269,-0.0533 0.221798,-0.18407 0.348782,-0.38917 0.282186,-0.45576 z m 1.495969,0.0642 c -0.06955,-0.36381 -0.172097,-0.66146 -0.227893,-0.66146 -0.0558,0 -0.101448,0.29765 -0.101448,0.66146 0,0.3638 0.102552,0.66145 0.227893,0.66145 0.125342,0 0.170993,-0.29765 0.101448,-0.66145 z m 9.409741,-0.5974 c -0.419237,-1.5301 -0.675879,-1.87102 -1.86523,-2.47778 -0.974488,-0.49715 -1.214471,-0.52478 -2.041674,-0.23503 -1.102816,0.38629 -2.661727,1.78224 -2.646584,2.36992 0.0063,0.24625 0.163804,0.12904 0.39265,-0.2923 0.811418,-1.49392 2.940698,-2.2115 4.30905,-1.45218 0.8425,0.46752 1.63387,1.74178 1.635963,2.63423 9.52e-4,0.40877 0.11095,0.67573 0.244425,0.59324 0.145523,-0.0899 0.134072,-0.54638 -0.0286,-1.1401 z m 26.371151,0.6538 c 1.32107,-0.74822 2.255666,-2.3336 2.21688,-3.76057 l -0.02876,-1.05833 -0.180555,1.05833 c -0.0993,0.58208 -0.353533,1.38178 -0.564957,1.7771 -0.419888,0.78511 -1.995839,2.05936 -2.54695,2.05936 -0.190011,0 -0.345472,0.11906 -0.345472,0.26458 0,0.38866 0.277487,0.3235 1.449816,-0.34047 z m 37.708521,0.50516 c 0,-0.0549 -0.18132,-0.25038 -0.40293,-0.4343 -0.33691,-0.27961 -0.37562,-0.26324 -0.23628,0.0999 0.14232,0.37088 0.63921,0.63083 0.63921,0.33441 z m 0.34308,-0.53565 c -0.26145,-0.34955 -0.52425,-0.58841 -0.58399,-0.53079 -0.10886,0.10498 0.76085,1.16633 0.95573,1.16633 0.057,0 -0.11028,-0.28599 -0.37174,-0.63554 z m -63.607647,-1.45446 c -0.650394,-1.31291 -1.613987,-2.44217 -2.311957,-2.70945 -1.205574,-0.46166 -3.387607,-0.0278 -4.420318,0.87897 -0.501323,0.44016 -0.911495,0.93039 -0.911495,1.08938 0,0.15899 0.386953,-0.0807 0.859896,-0.5327 0.472943,-0.45197 1.364894,-0.97012 1.982114,-1.15144 2.019575,-0.59327 3.838407,0.67591 4.609215,3.21631 0.287049,0.94604 0.370949,1.04661 0.443706,0.53184 0.04935,-0.34914 -0.06367,-0.94445 -0.251161,-1.32291 z m 80.939047,1.50761 c 0.24736,-0.24736 0.13028,-0.5113 -0.52815,-1.19063 -0.85774,-0.88495 -1.50489,-1.03862 -2.46195,-0.58457 -0.40817,0.19363 -0.32146,0.21893 0.37918,0.11062 0.73632,-0.11383 1.04859,-0.006 1.64881,0.56897 0.56585,0.54212 0.67156,0.79241 0.44831,1.06141 -0.36389,0.43846 0.08,0.46801 0.5138,0.0342 z M 43.085471,148.9923 c -0.300934,-0.72652 -2.386391,-2.95854 -2.386391,-2.5541 0,0.11634 0.47339,0.74933 1.051978,1.40664 0.590316,0.67064 1.138015,1.61736 1.248028,2.15727 0.159162,0.78112 0.214224,0.84541 0.292633,0.34172 0.05312,-0.34124 -0.03969,-0.94942 -0.206248,-1.35153 z m 24.781922,0.73949 c 0.672201,-0.72098 1.149938,-1.86352 1.123675,-2.68735 -0.01032,-0.32392 -0.187529,-0.0283 -0.403024,0.6723 -0.255733,0.83145 -0.692803,1.49632 -1.30448,1.98438 -0.505937,0.40369 -0.919888,0.82746 -0.919893,0.94173 -1.1e-5,0.30807 0.843627,-0.20307 1.503722,-0.91106 z m 39.581137,0.63716 c -0.15196,-0.40547 -0.11804,-0.41788 0.27289,-0.0999 0.57378,0.46673 0.56836,0.20124 -0.014,-0.6876 -0.25324,-0.3865 -0.53414,-1.30504 -0.62421,-2.04121 l -0.16377,-1.33848 -0.0373,1.27416 c -0.0205,0.70079 0.0915,1.51466 0.24877,1.8086 0.15731,0.29394 0.22562,0.59483 0.1518,0.66865 -0.36467,0.36467 -1.01765,-1.66353 -0.89264,-2.77261 0.0823,-0.73068 0.0446,-1.04246 -0.0988,-0.81605 -0.54015,0.85289 -0.13459,3.03168 0.7453,4.00395 0.52941,0.58499 0.631,0.58511 0.4119,4.7e-4 z m 14.21305,0.0661 c 0,-0.24428 -0.22889,-0.38508 -0.59531,-0.36618 -0.44798,0.0231 -0.48072,0.0606 -0.13229,0.15169 0.25466,0.0666 0.46302,0.23133 0.46302,0.36618 0,0.13485 0.0595,0.24518 0.13229,0.24518 0.0728,0 0.13229,-0.17859 0.13229,-0.39687 z M 20.6917,150.15673 c 0.09035,-0.23546 0.046,-0.34166 -0.103984,-0.24897 -0.143854,0.0889 -0.261553,0.27369 -0.261553,0.41062 0,0.38059 0.189644,0.29672 0.365537,-0.16165 z m 23.433543,-1.11733 c -0.320066,-1.06829 -1.496634,-2.60644 -1.778284,-2.32479 -0.08286,0.0829 0.0929,0.41808 0.390584,0.74493 0.774147,0.84999 1.136537,1.64135 1.136537,2.48187 0,0.52273 0.0814,0.65037 0.284953,0.44682 0.203552,-0.20355 0.1939,-0.58888 -0.03379,-1.34883 z m -17.488726,0.46962 c -0.152187,-0.43657 -0.387176,-0.79375 -0.522198,-0.79375 -0.135022,0 -0.06079,0.35718 0.164969,0.79375 0.225755,0.43656 0.460744,0.79375 0.522198,0.79375 0.06145,0 -0.01278,-0.35719 -0.164969,-0.79375 z m 2.487042,0.47082 c -0.370913,-0.17888 -0.608895,-0.54613 -0.631344,-0.97428 -0.03373,-0.64324 -0.04348,-0.64818 -0.152602,-0.0773 -0.136072,0.7119 0.332659,1.3822 0.948634,1.35659 0.308503,-0.0128 0.261799,-0.0993 -0.164688,-0.30502 z m 2.050521,-0.10635 c 0,-0.35157 -0.07183,-0.36965 -0.396875,-0.0999 -0.218282,0.18116 -0.396875,0.37433 -0.396875,0.42927 0,0.0549 0.178593,0.0999 0.396875,0.0999 0.218281,0 0.396875,-0.19318 0.396875,-0.42928 z m 14.016603,0.0985 c -0.01643,-0.86084 -0.522396,-2.40523 -0.938702,-2.86524 -0.682035,-0.75364 -0.778683,-0.40641 -0.130794,0.46991 0.30706,0.41532 0.574961,1.19858 0.595337,1.74059 0.02037,0.54201 0.136818,0.98547 0.258759,0.98547 0.121942,0 0.218872,-0.14883 0.2154,-0.33073 z m 21.806154,-0.69808 c 0.505892,-0.52804 0.767038,-1.12088 0.844979,-1.91823 0.116821,-1.19515 0.008,-1.15541 -0.268208,0.0979 -0.08759,0.39752 -0.527058,1.14166 -0.976593,1.65365 -0.97953,1.11562 -0.643525,1.25569 0.399822,0.16667 z m 41.400203,-0.16237 c -0.30069,-0.50962 -0.54671,-1.36059 -0.54671,-1.89103 0,-0.66073 -0.0736,-0.84803 -0.23375,-0.59476 -0.29379,0.46463 -0.0215,2.03203 0.48931,2.81707 0.63055,0.96899 0.88649,0.67776 0.29115,-0.33128 z m -81.167191,-0.33018 c -0.09844,-0.72992 -0.159863,-0.82974 -0.232379,-0.37763 -0.09085,0.56639 0.07263,1.36982 0.278719,1.36982 0.04811,0 0.02725,-0.44648 -0.04634,-0.99219 z m 2.821605,0.046 c -0.260398,-0.26039 -0.729458,0.13936 -0.729458,0.62168 0,0.40388 0.0348,0.40315 0.447272,-0.009 0.246,-0.246 0.372983,-0.52156 0.282186,-0.61236 z m 15.273347,-1.70827 c -0.577893,-1.11752 -0.842799,-0.78503 -0.294733,0.36993 0.237331,0.50014 0.451527,1.24854 0.475988,1.66311 0.03531,0.59844 0.06567,0.55259 0.147315,-0.22251 0.06058,-0.5751 -0.07444,-1.31909 -0.32857,-1.81053 z m 20.573616,1.66232 c 0.760828,-0.79987 1.241391,-2.18281 0.758513,-2.18281 -0.161298,0 -0.293267,0.26222 -0.293267,0.58272 0,0.32049 -0.380545,0.97533 -0.845653,1.4552 -0.465109,0.47988 -0.725509,0.8725 -0.578668,0.8725 0.146841,0 0.578424,-0.32743 0.959075,-0.72761 z m -19.77486,-1.83819 c -0.406459,-0.70449 -0.419074,-0.70848 -0.252725,-0.08 0.0963,0.36381 0.249608,1.07818 0.340685,1.5875 l 0.165598,0.92605 0.08713,-0.84601 c 0.04792,-0.4653 -0.105389,-1.17968 -0.340685,-1.5875 z m 19.135817,1.43055 c 0.169069,-0.20372 0.351571,-0.71624 0.405564,-1.13893 0.05399,-0.42269 0.04699,-0.56451 -0.01558,-0.31514 -0.06255,0.24936 -0.463209,0.8275 -0.890344,1.28475 -0.427122,0.45725 -0.776597,0.88249 -0.776597,0.94498 0,0.1937 0.95277,-0.38504 1.276961,-0.77566 z m 43.960596,0.20173 c -0.19041,-0.22942 -0.44156,-0.85738 -0.55812,-1.39545 l -0.21192,-0.97832 0.0998,1.13485 c 0.094,1.06994 0.59314,2.0794 0.88419,1.78835 0.0728,-0.0728 -0.0235,-0.32 -0.2139,-0.54943 z m -77.86515,-0.17443 c -0.08446,-0.21106 -0.147157,-0.14837 -0.159852,0.15986 -0.01149,0.27891 0.05105,0.43518 0.138964,0.34726 0.08792,-0.0879 0.09732,-0.31612 0.02089,-0.50712 z m 16.21405,-0.0165 c -0.0052,-0.32742 -0.191212,-0.89297 -0.413457,-1.25677 l -0.40408,-0.66146 0.179428,0.66146 c 0.09868,0.3638 0.195442,0.92935 0.215019,1.25677 0.01958,0.32742 0.124888,0.59531 0.234029,0.59531 0.10914,0 0.194217,-0.26789 0.189061,-0.59531 z m 62.41441,0 c -0.17591,-0.32742 -0.40603,-0.9525 -0.51139,-1.38906 l -0.19156,-0.79375 -0.0271,0.80102 c -0.0149,0.44056 0.15826,1.06564 0.38479,1.38906 0.53451,0.76311 0.75663,0.75843 0.34524,-0.007 z m 16.11117,-0.39964 c -0.37836,-0.39866 -0.8906,-1.2358 -1.13831,-1.8603 -0.58323,-1.47039 -0.77927,-1.28546 -0.24439,0.23054 0.39663,1.12418 1.66883,2.75641 1.93834,2.4869 0.0728,-0.0728 -0.17728,-0.45847 -0.55564,-0.85714 z m -102.328704,0.63908 c 0,-0.0502 -0.26789,-0.31809 -0.595312,-0.59531 l -0.595313,-0.50403 0.504028,0.59531 c 0.473662,0.55945 0.686597,0.71577 0.686597,0.50403 z m 40.361593,-0.60881 c 0.356854,-0.38505 0.641278,-0.9506 0.632052,-1.25677 -0.01508,-0.5005 -0.04244,-0.48992 -0.27115,0.10478 -0.139912,0.36381 -0.578848,0.92876 -0.975418,1.25546 -0.396569,0.3267 -0.566521,0.59459 -0.377672,0.59531 0.188849,7.2e-4 0.635333,-0.31373 0.992188,-0.69878 z m -28.281008,-1.59501 c -0.188125,-0.18813 -1.761835,1.26846 -1.761835,1.63071 0,0.19079 0.420688,-0.0738 0.934861,-0.58796 0.514174,-0.51418 0.886312,-0.98342 0.826974,-1.04275 z m 34.962501,0.31073 c 0,-0.41901 -0.0441,-0.39147 -0.211836,0.13229 -0.116509,0.36381 -0.211836,0.89959 -0.211836,1.19063 0,0.41901 0.0441,0.39147 0.211836,-0.13229 0.11651,-0.36381 0.211836,-0.89959 0.211836,-1.19063 z m 39.799058,0.94312 c -0.24516,-0.42716 -0.48108,-0.74133 -0.52426,-0.69815 -0.16576,0.16576 0.46549,1.47482 0.71118,1.47482 0.14236,0 0.0582,-0.3495 -0.18692,-0.77667 z m -84.062551,-0.0187 c 0.676354,-0.74736 0.388487,-0.81684 -0.322742,-0.0779 -0.322222,0.33478 -0.489504,0.60869 -0.371737,0.60869 0.117767,0 0.430283,-0.23885 0.694479,-0.53079 z m 36.761759,0.0169 c 0.255771,-0.28262 0.423051,-0.62152 0.371737,-0.75311 -0.05131,-0.1316 -0.370244,0.0996 -0.708734,0.51385 -0.685895,0.83934 -0.393763,1.04675 0.336997,0.23926 z m 48.668422,-0.59103 c -0.1346,-0.21779 -0.25388,-0.15709 -0.38596,0.19641 -0.17714,0.47408 -0.21137,0.46309 -0.46675,-0.14985 -0.15158,-0.36381 -0.28315,-0.50481 -0.29237,-0.31334 -0.009,0.19147 0.10798,0.58123 0.26046,0.86614 0.24773,0.46289 0.31993,0.47533 0.67833,0.11693 0.2206,-0.2206 0.31343,-0.54293 0.20629,-0.71629 z m -63.18019,0.15239 c -0.09416,-0.24539 -0.230738,-0.38662 -0.303499,-0.31386 -0.07276,0.0728 -0.05525,0.33306 0.03891,0.57844 0.09416,0.24539 0.230738,0.38663 0.303499,0.31387 0.07276,-0.0728 0.05525,-0.33306 -0.03892,-0.57845 z m 13.838235,-0.28687 c 0.471913,-1.03574 0.1627,-1.02051 -0.452568,0.0223 -0.336801,0.57083 -0.413353,0.872 -0.200929,0.79049 0.188743,-0.0724 0.482816,-0.43818 0.653497,-0.81278 z m 59.143745,0.41609 c 0.15205,-0.14002 0.0721,-0.5624 -0.20661,-1.09161 -0.42815,-0.81295 -0.45843,-0.35071 -0.0431,0.65812 0.16426,0.39899 0.0312,0.46358 -0.96217,0.46707 -0.63403,0.002 -1.33138,0.12409 -1.54966,0.27079 -0.2769,0.18611 0.043,0.21494 1.05833,0.0954 0.80037,-0.0943 1.56682,-0.27414 1.70323,-0.39975 z m -93.751128,-0.62248 c -0.09756,-0.60655 -0.156054,-0.67364 -0.23891,-0.27403 -0.06034,0.29104 -0.209373,0.65248 -0.331173,0.8032 -0.136448,0.16884 -0.04474,0.27403 0.238909,0.27403 0.364702,0 0.433519,-0.1669 0.331174,-0.8032 z m 6.471834,0.0777 0.777105,-0.83886 -0.837223,0.57615 c -0.525626,0.36172 -0.873879,0.46618 -0.935712,0.28068 -0.0596,-0.17878 -0.251396,-0.10772 -0.485694,0.17996 -0.347597,0.4268 -0.339842,0.45768 0.07582,0.3019 0.254661,-0.0954 0.463021,-0.0582 0.463021,0.0828 0,0.38863 0.100542,0.32649 0.942686,-0.58258 z m 48.005229,0.17741 c -0.18699,-0.22532 -0.39952,-0.35014 -0.47228,-0.27738 -0.07276,0.0728 0.02069,0.31664 0.207698,0.54196 0.186992,0.22531 0.399522,0.35013 0.472282,0.27737 0.0728,-0.0728 -0.0207,-0.31664 -0.2077,-0.54195 z m 43.687085,-0.57035 c -0.63526,-1.20416 -0.72641,-1.00156 -0.15965,0.35488 0.2202,0.527 0.46693,0.89159 0.5483,0.81022 0.0814,-0.0814 -0.0935,-0.60566 -0.38865,-1.1651 z m -64.105006,-0.4889 c -0.08134,-0.0813 -0.356973,0.18324 -0.61251,0.58797 l -0.464611,0.73586 0.61251,-0.58796 c 0.336881,-0.32338 0.545957,-0.65452 0.464611,-0.73587 z m 9.674169,0.77255 c 0.09888,-0.25768 0.03975,-0.37864 -0.153593,-0.31419 -0.39551,0.13184 -0.613275,0.73318 -0.265509,0.73318 0.142078,0 0.330673,-0.18855 0.419102,-0.41899 z M 29.76732,146.28438 c -0.08446,-0.21107 -0.147157,-0.14837 -0.159852,0.15985 -0.01149,0.27891 0.05105,0.43518 0.138964,0.34727 0.08792,-0.0879 0.09732,-0.31613 0.02089,-0.50712 z m 90.81504,0.11575 c -0.0125,-0.2766 -0.0746,-0.32986 -0.15434,-0.13229 -0.1701,0.42156 -1.47108,0.43067 -1.88852,0.0132 -0.19004,-0.19004 -0.3175,-0.20775 -0.3175,-0.0441 0,0.47725 0.32515,0.62618 1.36702,0.62618 0.7975,0 1.00977,-0.0989 0.99334,-0.46302 z m -43.971604,-0.49058 c -0.08792,-0.0879 -0.316124,-0.0973 -0.507119,-0.0209 -0.211066,0.0845 -0.148373,0.14716 0.159853,0.15985 0.278913,0.0115 0.435184,-0.051 0.347266,-0.13896 z m 49.988554,-0.70004 c -0.0734,-0.1819 -0.13345,-0.0331 -0.13345,0.33073 0,0.3638 0.06,0.51263 0.13345,0.33073 0.0734,-0.18191 0.0734,-0.47956 0,-0.66146 z m -12.74293,21.76198 c -0.0899,-0.14552 -0.008,-0.26641 0.18282,-0.26864 0.25167,-0.003 0.23786,-0.0742 -0.0505,-0.26053 -0.28717,-0.18558 -0.0678,-0.25246 0.79375,-0.24194 0.9061,0.0111 1.06417,0.0689 0.66146,0.24194 -0.38967,0.16744 -0.16709,0.23229 0.84428,0.24599 0.75539,0.0102 1.44703,-0.10047 1.53697,-0.24599 0.0899,-0.14552 0.34211,-0.26458 0.56039,-0.26458 0.21828,0 0.32329,0.11906 0.23336,0.26458 -0.0899,0.14552 -0.0374,0.26458 0.11667,0.26458 0.15411,0 0.2802,0.11907 0.2802,0.26459 0,0.1577 -1.00903,0.26458 -2.49792,0.26458 -1.37989,0 -2.57112,-0.11842 -2.66145,-0.26458 z m 5.35781,-0.7044 c 0.1819,-0.0734 0.47956,-0.0734 0.66146,0 0.1819,0.0734 0.0331,0.13345 -0.33073,0.13345 -0.3638,0 -0.51263,-0.06 -0.33073,-0.13345 z m -21.368015,-2.53675 c -0.68731,-1.12727 -0.67468,-1.16716 0.33363,-1.05404 0.49285,0.0553 1.08578,-0.0727 1.38907,-0.2999 0.799365,-0.59877 0.17079,-1.03251 -1.64442,-1.1347 -1.26471,-0.0712 -1.63735,-0.20796 -2.14523,-0.7873 -0.68622,-0.78277 -0.6177,-1.88071 0.14644,-2.34645 0.23876,-0.14553 0.69907,-0.53843 1.02292,-0.87312 l 0.58881,-0.60854 0.72191,0.94647 c 0.7826,1.02604 0.74088,1.40651 -0.10461,0.95402 -0.41286,-0.22096 -0.62732,-0.19163 -0.9487,0.12976 -0.81967,0.81967 -0.23153,1.43578 1.3706,1.43578 1.921065,0 3.274935,1.0315 2.840345,2.16403 -0.18498,0.48205 -2.376705,2.33389 -2.762245,2.33389 -0.15633,0 -0.52016,-0.38696 -0.80852,-0.8599 z m -29.101262,-0.40766 c -0.509323,-0.25072 -1.448684,-0.79445 -2.08747,-1.20829 -0.638786,-0.41384 -1.501989,-0.87116 -1.918229,-1.01626 -0.883235,-0.3079 -0.874292,-0.27572 -0.355447,-1.27905 l 0.401352,-0.77614 1.042879,1.04288 c 1.13923,1.13923 2.85238,2.12317 3.696687,2.12317 0.53131,0 0.530828,-0.0116 -0.05219,-1.25677 -0.323652,-0.69123 -1.0507,-2.00654 -1.615668,-2.92291 -0.564967,-0.91638 -0.965626,-1.72773 -0.890352,-1.803 0.07527,-0.0753 0.569349,-0.0557 1.097947,0.0434 0.755859,0.1418 0.929825,0.27879 0.814686,0.64156 -0.08478,0.26713 0.357257,1.41608 1.050327,2.73001 1.351055,2.56134 1.447692,3.15563 0.608685,3.74329 -0.711946,0.49867 -0.650044,0.5008 -1.793211,-0.0619 z m -32.746895,-0.89396 c -1.613649,-0.8197 -2.247404,-3.6632 -1.157569,-5.19373 0.31183,-0.43793 0.566964,-0.98621 0.566964,-1.21841 0,-0.55275 0.135023,-0.53381 1.057736,0.14838 l 0.771725,0.57057 -0.650147,0.77265 c -0.806952,0.95901 -0.848232,2.26095 -0.101777,3.20992 0.61996,0.78815 1.580982,0.89801 2.62663,0.30026 0.956326,-0.54668 1.058333,-0.49727 1.058333,0.51272 0,0.69257 -0.110477,0.90793 -0.463021,0.90259 -0.254661,-0.004 -1.058333,0.062 -1.785937,0.14641 -0.786602,0.0912 -1.566167,0.0299 -1.922937,-0.15136 z m 66.613562,-0.13089 c 0,-0.54208 -2.39224,-4.85134 -2.693175,-4.85134 -0.65985,0 -0.0218,-0.62022 1.350985,-1.31319 0.86253,-0.4354 1.64319,-0.91293 1.73481,-1.06117 0.10658,-0.17245 0.47091,-0.10933 1.01146,0.17522 l 0.84488,0.44475 -0.8121,0.17254 c -0.83714,0.17787 -2.49519,1.05197 -2.49519,1.31544 0,0.0818 0.18564,0.4137 0.41253,0.73763 0.4621,0.65975 0.89964,0.5385 2.31975,-0.64282 0.41135,-0.34219 0.86754,-0.62215 1.01377,-0.62215 0.32095,0 -0.67428,1.71652 -1.54743,2.6689 -0.56421,0.61541 -0.63402,1.56443 -0.11506,1.56443 0.44189,0 2.20411,-1.4237 2.39247,-1.93289 0.20042,-0.54178 0.2313,-0.52876 0.64536,0.27193 0.23917,0.46251 0.43486,0.90437 0.43486,0.98191 0,0.0775 -0.62508,0.4559 -1.38906,0.84082 -0.76399,0.38491 -1.7051,0.9227 -2.09137,1.19508 -0.86285,0.60845 -1.01749,0.6168 -1.01749,0.0549 z m -29.864995,-0.89732 c -0.735862,-0.32945 -1.340914,-0.88973 -1.881687,-1.74244 -1.167287,-1.84062 -1.078241,-3.03544 0.396599,-5.32163 0.02389,-0.037 0.440331,0.071 0.92542,0.24012 l 0.881978,0.30746 -0.665808,0.55363 c -0.89536,0.74451 -1.069618,1.34271 -0.743712,2.55303 0.459965,1.70818 2.983447,2.90999 4.455729,2.12205 0.522695,-0.27974 0.567309,-0.23981 0.567309,0.50775 0,0.87951 -0.113541,0.95325 -1.756336,1.1407 -0.72454,0.0827 -1.461743,-0.0393 -2.179492,-0.36067 z m -31.926444,-0.23169 c 0.355726,-0.57557 -1.564133,-3.71711 -3.123684,-5.1114 l -0.813847,-0.7276 0.651464,-0.004 c 0.358305,-0.002 0.910336,-0.073 1.226735,-0.15791 0.459062,-0.12313 0.666287,0.0246 1.025836,0.73122 0.247811,0.48703 0.479569,0.91973 0.515017,0.96156 0.163696,0.19316 1.455751,-0.59566 1.455751,-0.88875 0,-0.18199 -0.357188,-0.63144 -0.79375,-0.99878 -0.436563,-0.36735 -0.79375,-0.72067 -0.79375,-0.78517 0,-0.16247 1.587196,-0.80577 1.678011,-0.68011 0.04045,0.056 0.475134,0.90038 0.965968,1.87646 0.936289,1.86193 1.920097,3.11355 2.459958,3.12961 0.333864,0.01 -1.118389,1.30978 -1.465916,1.31208 -0.109141,7.3e-4 -0.198438,-0.17324 -0.198438,-0.38658 0,-0.63899 -0.867802,-2.25794 -1.210317,-2.25794 -0.175208,0 -0.58776,0.21799 -0.916783,0.48442 l -0.598223,0.48441 0.965787,1.06901 c 0.531182,0.58795 0.965786,1.14082 0.965786,1.22858 0,0.20302 -1.46516,0.96692 -1.854559,0.96692 -0.161335,0 -0.224806,-0.11089 -0.141046,-0.24642 z m 10.624705,-0.95186 c -0.568293,-0.5683 -0.240773,-1.25964 0.527196,-1.11283 0.338156,0.0646 0.669112,-0.014 0.735462,-0.17474 0.06635,-0.16075 0.130032,-0.0105 0.14152,0.33389 0.01667,0.49995 -0.08578,0.59828 -0.508278,0.48779 -0.291041,-0.0761 -0.529166,-0.0305 -0.529166,0.10144 0,0.13189 0.119062,0.23981 0.264583,0.23981 0.145521,0 0.264583,0.11906 0.264583,0.26458 0,0.38975 -0.433998,0.32196 -0.8959,-0.13994 z m 25.105275,-1.08407 c -1.164166,-0.66426 -2.503619,-1.27149 -2.976562,-1.3494 -0.472943,-0.0779 -0.859896,-0.1788 -0.859896,-0.22421 0,-0.25864 1.144675,-1.96488 1.318191,-1.96488 0.114176,0 0.263496,0.21378 0.331822,0.47506 0.130744,0.49997 3.144986,2.43536 3.792908,2.43536 0.504124,0 0.491366,-0.0922 -0.322088,-2.3271 -0.423357,-1.16316 -0.915919,-2.04442 -1.239456,-2.21758 -0.50813,-0.27194 -0.48827,-0.31324 0.370546,-0.77066 1.251836,-0.66674 1.484984,-0.62499 1.510445,0.27048 0.01215,0.42678 0.320567,1.7067 0.685406,2.84427 1.016667,3.16996 1.016011,3.16567 0.553768,3.62792 -0.601173,0.60117 -0.797714,0.55154 -3.165084,-0.79926 z m -52.784375,0.29797 c 0.341775,-0.3638 0.680939,-0.66146 0.7537,-0.66146 0.07276,0 -0.147342,0.29766 -0.489116,0.66146 -0.341775,0.3638 -0.680939,0.66146 -0.7537,0.66146 -0.07276,0 0.147342,-0.29766 0.489116,-0.66146 z m 0.990147,-0.10744 c 1.094086,-1.02985 1.928929,-1.23782 2.886348,-0.71903 0.675784,0.36618 0.694441,0.40951 0.18045,0.419 -0.315295,0.006 -0.633653,-0.13823 -0.707461,-0.32013 -0.100989,-0.24889 -0.203653,-0.23252 -0.414872,0.0661 -0.154372,0.21828 -0.282498,0.29627 -0.284727,0.1733 -0.0022,-0.12297 -0.569598,0.0941 -1.260822,0.48231 l -1.256771,0.70589 z m 65.250122,-0.42497 c -0.0844,-0.22007 -0.0819,-0.78562 0.006,-1.25677 0.0876,-0.47116 0.20542,-1.14145 0.26187,-1.48954 0.11008,-0.67862 0.70197,-1.13891 1.73792,-1.35149 0.4567,-0.0937 0.70964,-0.38302 0.86746,-0.99218 0.12424,-0.47961 0.39494,-0.8599 0.61207,-0.8599 0.21412,0 0.3893,-0.16053 0.3893,-0.35674 0,-0.19621 0.44649,-0.55636 0.99219,-0.80034 0.54571,-0.24399 1.40891,-0.66728 1.91823,-0.94066 0.8371,-0.4493 2.74103,-0.94953 3.241155,-0.85155 0.10914,0.0214 0.19843,-0.0802 0.19843,-0.22571 0,-0.14552 0.13891,-0.26458 0.30869,-0.26458 0.16977,0 0.23033,0.0783 0.13458,0.17409 -0.0957,0.0957 -0.0392,0.3366 0.12562,0.53522 0.23121,0.27859 0.21556,0.33059 -0.0684,0.22748 -0.793135,-0.28794 -1.571315,0.75317 -1.963295,2.62659 -0.2099,1.00324 -0.33515,1.87057 -0.27833,1.92739 0.0568,0.0568 0.19103,-0.29215 0.29824,-0.7755 0.16829,-0.75877 0.22239,-0.80653 0.39604,-0.34965 0.16135,0.4245 0.23898,0.30771 0.39248,-0.5905 0.10523,-0.61582 0.28436,-1.06219 0.39804,-0.99193 0.113685,0.0703 0.148015,0.39552 0.07631,0.7228 -0.107615,0.491 -0.07731,0.52565 0.17319,0.19817 0.23992,-0.31365 0.27262,-0.20268 0.15591,0.52917 -0.11046,0.69272 -0.0859,0.79271 0.0977,0.39688 0.13493,-0.29105 0.20032,-1.12448 0.14532,-1.85209 -0.0865,-1.14442 -0.0708,-1.19797 0.11605,-0.39687 0.19235,0.82441 0.21988,0.84808 0.25088,0.21566 0.0192,-0.39071 0.15851,-1.03568 0.30967,-1.43326 0.19807,-0.52095 0.19043,-0.77504 -0.0273,-0.90962 -0.56236,-0.34755 0.21476,-1.23102 1.33235,-1.5147 0.58796,-0.14924 1.12136,-0.18666 1.18533,-0.0832 0.1812,0.29319 -0.51537,2.11781 -0.98951,2.59194 -0.39141,0.39141 -0.41315,0.37421 -0.26881,-0.21269 0.0864,-0.3512 0.27588,-0.79025 0.42111,-0.97567 0.14525,-0.18542 0.19204,-0.40916 0.10399,-0.49721 -0.0881,-0.088 -0.30786,0.16423 -0.48847,0.56062 -0.29536,0.64824 -0.35008,0.67164 -0.54413,0.23263 -0.13974,-0.31613 -0.16749,-0.16184 -0.0788,0.43796 0.0928,0.62739 0.0576,0.8025 -0.10906,0.54296 -0.26352,-0.41031 -0.33649,-0.20379 -0.67953,1.92322 -0.0897,0.55604 -0.22919,1.18334 -0.31003,1.394 -0.12205,0.31805 -0.0184,0.33448 0.61083,0.0969 0.50654,-0.19129 0.66733,-0.19457 0.48495,-0.01 -0.15007,0.15195 -0.64612,0.35092 -1.10232,0.44216 -0.72305,0.14461 -0.844685,0.0858 -0.947905,-0.45806 -0.11276,-0.59412 -0.12014,-0.59066 -0.15445,0.0723 -0.0295,0.56939 -0.2409,0.76735 -1.16051,1.08656 -0.61846,0.21468 -1.32243,0.47566 -1.56436,0.57996 -0.30309,0.13066 -0.48288,0.0396 -0.57815,-0.29281 -0.0934,-0.32603 -0.12239,-0.27831 -0.0893,0.14715 0.0518,0.66561 -0.12,0.77909 -4.02307,2.65765 -1.93477,0.93121 -2.1055,0.9617 -2.3158,0.41367 z m 1.04899,-1.9489 c -0.11865,-0.4537 -0.2148,-0.51733 -0.38233,-0.25303 -0.30623,0.4831 -0.28862,0.81624 0.0327,0.61768 0.14553,-0.0899 0.26459,-0.0176 0.26459,0.16077 0,0.17836 0.0548,0.26949 0.1218,0.2025 0.067,-0.067 0.0505,-0.39456 -0.0367,-0.72792 z m 0.44282,-0.2207 c -0.28829,-0.4496 -0.29576,-0.44903 -0.15102,0.0117 0.0837,0.26657 0.16168,0.62375 0.17316,0.79375 0.0151,0.22309 0.0571,0.21984 0.15102,-0.0117 0.0716,-0.17642 -0.006,-0.5336 -0.17316,-0.79375 z m 3.09502,-0.5341 c -0.0671,-0.25743 -0.12638,-0.11087 -0.13177,0.3257 -0.005,0.43656 0.0495,0.64718 0.12197,0.46805 0.0725,-0.17913 0.0769,-0.53632 0.01,-0.79375 z m -2.11928,0.14379 c -0.0845,-0.21106 -0.14715,-0.14837 -0.15985,0.15986 -0.0115,0.27891 0.051,0.43518 0.13897,0.34726 0.0879,-0.0879 0.0973,-0.31612 0.0209,-0.50712 z m 1.05283,-0.28112 c -0.0734,-0.1819 -0.13346,-0.0331 -0.13346,0.33073 0,0.36381 0.0601,0.51263 0.13346,0.33073 0.0734,-0.1819 0.0734,-0.47955 0,-0.66146 z m 1.5875,0 c -0.0734,-0.1819 -0.13346,-0.0331 -0.13346,0.33073 0,0.36381 0.0601,0.51263 0.13346,0.33073 0.0734,-0.1819 0.0734,-0.47955 0,-0.66146 z m -2.10066,0.0788 c -0.0743,-0.28407 -0.007,-0.5591 0.14903,-0.61118 0.15982,-0.0533 0.20299,-0.30607 0.0987,-0.57787 -0.17829,-0.46463 -0.2055,-0.46499 -0.70906,-0.009 -0.28801,0.26064 -0.52183,0.60427 -0.5196,0.76362 0.002,0.15934 0.11311,0.11734 0.24641,-0.0934 0.19005,-0.3004 0.28101,-0.22902 0.4215,0.33073 0.0985,0.39259 0.23967,0.71381 0.31362,0.71381 0.074,0 0.0737,-0.23242 -5.2e-4,-0.51648 z m 0.86709,-0.93873 c -0.18568,-0.66319 -0.38453,-1.15887 -0.44188,-1.10152 -0.0574,0.0574 0.0423,0.65226 0.2214,1.322 0.17913,0.66975 0.37798,1.16543 0.44189,1.10152 0.0639,-0.0639 -0.0357,-0.65881 -0.22141,-1.322 z m 1.50366,-0.1819 c -0.0845,-0.21107 -0.14716,-0.14837 -0.15985,0.15985 -0.0115,0.27891 0.051,0.43518 0.13896,0.34727 0.0879,-0.0879 0.0973,-0.31613 0.0209,-0.50712 z m 1.57386,-2.57808 c 0.0876,-0.0827 0.072,0.26628 -0.0348,0.7756 -0.23976,1.14387 0.10804,0.88265 0.42249,-0.3173 0.20586,-0.78559 0.218,-0.75371 0.12086,0.3173 l -0.10799,1.19063 0.49534,-1.45521 0.49534,-1.45521 -0.10203,1.19063 -0.10203,1.19062 0.27327,-0.92604 c 0.15029,-0.50932 0.3725,-1.18007 0.49378,-1.49054 0.21003,-0.53769 0.17747,-0.55129 -0.68582,-0.28634 -0.49848,0.15299 -0.90633,0.37725 -0.90633,0.49836 0,0.1211 -0.15815,0.22019 -0.35143,0.22019 -0.3125,0 -0.63567,0.93749 -1.09447,3.175 -0.0746,0.3638 0.1029,-0.0448 0.39445,-0.9079 0.29155,-0.86314 0.60177,-1.63705 0.68938,-1.71979 z m 0.27822,2.57808 c -0.0845,-0.21107 -0.14715,-0.14837 -0.15985,0.15985 -0.0115,0.27891 0.051,0.43518 0.13897,0.34727 0.0879,-0.0879 0.0973,-0.31613 0.0209,-0.50712 z m -2.13666,-1.11835 c -0.0654,-0.15799 -0.13591,-0.0491 -0.15663,0.24192 -0.0336,0.47179 -0.0651,0.46046 -0.29115,-0.10456 -0.13942,-0.34855 -0.19141,-0.69582 -0.11552,-0.77171 0.0759,-0.0759 0.14634,0.0307 0.15657,0.23686 0.011,0.22137 0.11169,0.15818 0.24599,-0.15434 l 0.22739,-0.52917 0.0372,0.52917 0.0372,0.52916 0.24532,-0.52916 c 0.18448,-0.39795 0.20982,-0.29954 0.10218,0.39687 -0.16015,1.03621 0.22384,0.61256 0.49962,-0.55122 0.11839,-0.49958 0.0568,-0.6835 -0.22888,-0.6835 -0.21496,0 -0.39085,0.0955 -0.39085,0.21218 0,0.1167 -0.14882,0.15764 -0.33072,0.091 -0.52201,-0.19131 -0.93686,0.20816 -1.10757,1.06651 -0.11626,0.58456 -0.097,0.65295 0.0739,0.26194 0.20297,-0.46455 0.25629,-0.41609 0.43663,0.39687 0.19846,0.89462 0.21345,0.90437 0.44188,0.28725 0.13005,-0.35133 0.18292,-0.76805 0.1175,-0.92604 z m 2.93303,0.44539 c -0.0671,-0.25743 -0.12638,-0.11087 -0.13177,0.32569 -0.005,0.43656 0.0495,0.64719 0.12197,0.46806 0.0725,-0.17913 0.0769,-0.53632 0.01,-0.79375 z m -1.32553,0.14379 c -0.0845,-0.21107 -0.14716,-0.14837 -0.15985,0.15985 -0.0115,0.27892 0.051,0.43519 0.13896,0.34727 0.0879,-0.0879 0.0973,-0.31612 0.0209,-0.50712 z m 10.540925,3.11971 c -0.54436,-0.93082 -1.33993,-2.07579 -1.76792,-2.54438 -0.42799,-0.46859 -0.74244,-0.87731 -0.69877,-0.90826 0.0437,-0.031 0.99565,-0.55238 2.11551,-1.15872 1.70745,-0.92449 2.14521,-1.06096 2.71198,-0.84547 0.83524,0.31756 0.88338,0.79771 0.0806,0.80358 -0.795,0.006 -2.71198,1.11044 -2.71198,1.56273 0,0.19779 0.20916,0.49156 0.46481,0.65282 0.36915,0.23285 0.73111,0.1435 1.75879,-0.43419 1.46617,-0.82417 2.31917,-0.97207 1.47389,-0.25555 -0.95524,0.80973 -2.04019,2.42328 -1.89094,2.81223 0.21101,0.54988 1.02944,0.25015 2.17024,-0.79478 0.54148,-0.49598 1.01539,-0.90178 1.05312,-0.90178 0.0377,0 0.25704,0.2876 0.48736,0.6391 0.41579,0.63458 0.40713,0.64512 -1.22635,1.49125 -0.9048,0.46869 -1.87994,1.01453 -2.16698,1.21299 -0.28704,0.19846 -0.59877,0.36083 -0.69273,0.36083 -0.094,0 -0.61623,-0.76158 -1.16059,-1.6924 z m -77.079077,0.0365 c -0.157841,-0.19019 -0.412572,-0.67612 -0.56607,-1.07985 -0.366004,-0.96266 0.11053,-0.67972 0.666746,0.39589 0.439996,0.85085 0.379414,1.26243 -0.100676,0.68396 z m 49.75053,-2.11439 c -0.314298,-1.34607 -0.605623,-2.73076 -0.64739,-3.0771 -0.107141,-0.88843 0.61273,-1.2957 1.618911,-0.91591 0.770681,0.2909 0.784842,0.28004 0.95603,-0.7332 0.222242,-1.31545 0.756141,-1.34063 2.289491,-0.10798 0.62978,0.50627 1.77708,1.40813 2.54957,2.00414 1.39628,1.07729 1.66185,1.72197 0.69092,1.67723 -1.46192,-0.0674 -1.69857,-0.13545 -1.69857,-0.48871 0,-0.38519 -2.24145,-2.26108 -2.70171,-2.26108 -0.1344,0 -0.16697,0.24384 -0.0724,0.54187 0.0946,0.29802 0.0296,0.71348 -0.14454,0.92323 -0.27419,0.33038 -0.41753,0.3217 -1.072047,-0.0649 -0.415547,-0.24547 -0.835631,-0.36622 -0.933516,-0.26833 -0.287767,0.28776 0.46147,3.45059 0.954076,4.02754 0.904857,1.05978 0.883367,1.19062 -0.195524,1.19062 h -1.021871 z m -35.330939,0.45587 c -1.552857,-1.3662 -1.510803,-3.24469 0.09386,-4.19259 0.930712,-0.54978 1.663171,-0.39371 2.697605,0.5748 1.020929,0.95586 1.034153,2.70465 0.02751,3.63757 -0.8857,0.82084 -1.871369,0.81393 -2.818976,-0.0198 z m 2.291598,-1.23566 c 0.189775,-0.30316 0.196863,-0.69 0.0218,-1.19063 -0.467903,-1.33821 -2.498498,-1.0698 -2.498498,0.33027 0,1.3027 1.806872,1.93037 2.476696,0.86036 z m 66.579558,1.16174 c 0,-0.58712 -2.55738,-4.26722 -3.11374,-4.48072 -0.60851,-0.23351 2.79546,-1.89227 3.91476,-1.90767 1.6301,-0.0224 2.90315,1.39064 2.90315,3.22245 0,1.14183 -0.48472,1.80291 -2.06585,2.81752 -1.49699,0.96062 -1.63832,0.99068 -1.63832,0.34842 z m 1.64325,-1.83716 c 0.71334,-0.82092 0.78421,-1.78813 0.18666,-2.54778 -0.6086,-0.77371 -1.68455,-0.91917 -2.4826,-0.33562 -0.46776,0.34204 -0.4517,0.42338 0.36572,1.85208 0.90479,1.58141 1.27864,1.78116 1.93022,1.03132 z m -64.999442,1.71904 c 0.199268,-0.51929 -1.590326,-4.01713 -2.368415,-4.62918 l -0.699815,-0.55047 0.819671,-0.18003 c 0.450818,-0.099 0.845624,-0.13893 0.877348,-0.0887 0.03172,0.0502 0.343342,0.72094 0.692486,1.49047 0.349147,0.76953 1.074293,1.87519 1.611439,2.45702 l 0.97663,1.05788 -0.748855,0.38725 c -0.918073,0.47476 -1.328846,0.49449 -1.160489,0.0558 z m 7.14924,-0.0107 c 0.09936,-0.26094 0.247303,-0.40778 0.328766,-0.32632 0.08146,0.0815 1.69e-4,0.29496 -0.180652,0.47443 -0.261308,0.25937 -0.291698,0.22897 -0.148114,-0.14811 z m 31.336117,-1.37656 c 0,-0.5265 -0.54336,-1.21267 -2.24896,-2.84004 -1.23693,-1.1802 -2.24896,-2.23718 -2.24896,-2.34884 0,-0.11165 0.78177,-0.58788 1.73727,-1.05827 2.16769,-1.06715 3.02052,-0.9095 3.40263,0.62899 0.16622,0.66928 0.39384,0.98686 0.7073,0.98686 0.25421,0 0.83945,0.31743 1.30053,0.70541 0.70682,0.59475 0.81313,0.83142 0.67769,1.50864 -0.1961,0.98049 -0.87459,1.73286 -2.26991,2.51708 l -1.05759,0.5944 z m 1.79916,-1.7738 c 0.17463,-0.17462 0.3175,-0.58908 0.3175,-0.921 0,-0.75258 -1.06065,-1.0826 -2.04212,-0.63541 l -0.68019,0.30991 0.7492,0.782 c 0.81624,0.85197 1.16913,0.95098 1.65561,0.4645 z m -2.37417,-2.80862 c 0.17357,-1.2189 -1.03266,-1.64245 -1.85514,-0.65142 -0.27321,0.3292 -0.22116,0.4874 0.29895,0.90856 0.7908,0.64035 1.44377,0.53245 1.55619,-0.25714 z m 38.300055,3.7717 c -0.46844,-0.46844 -0.46807,-0.48918 0.0118,-0.66076 0.31796,-0.11369 0.52643,-0.0461 0.58196,0.18864 0.17416,0.73636 -0.10642,0.95946 -0.59377,0.47212 z m -74.701907,-0.75521 c -0.885507,-0.8115 -0.983927,-1.03349 -0.967774,-2.18281 0.02387,-1.69914 0.201927,-2.99805 0.411054,-2.9987 0.09325,-2.9e-4 0.667631,0.22247 1.276403,0.49503 1.078698,0.48295 1.089303,0.49996 0.416772,0.66876 -1.56245,0.39215 -1.441151,2.74916 0.170389,3.31094 0.608597,0.21216 0.96815,0.18545 1.549373,-0.11512 1.03686,-0.53618 1.047726,-0.52926 1.047726,0.66695 v 1.05833 h -1.459095 c -1.291698,0 -1.572183,-0.10364 -2.444848,-0.90338 z m -22.918579,-0.0329 c -0.255317,-0.66535 -0.179999,-0.83702 0.131904,-0.30066 0.154435,0.26558 0.225054,0.53861 0.156932,0.60673 -0.06812,0.0681 -0.198098,-0.0696 -0.288836,-0.30607 z m 43.489074,-0.25846 c -0.195908,-0.36606 -0.364855,-1.24927 -0.375439,-1.96269 -0.03541,-2.38773 1.877624,-3.66967 5.216528,-3.49562 0.455205,0.0237 1.158859,0.43117 1.836901,1.06364 l 1.099053,1.02519 -0.844714,0.43681 c -0.679373,0.35132 -0.844714,0.36584 -0.844714,0.0742 0,-0.5752 -0.911487,-1.24787 -1.910604,-1.41 -1.047557,-0.17 -2.415519,0.41453 -2.844054,1.21525 -0.33582,0.62749 -0.347247,1.86796 -0.02193,2.38216 0.157568,0.24906 0.189971,-0.008 0.09261,-0.73355 -0.114255,-0.85183 -0.03748,-1.24075 0.323739,-1.63989 0.260429,-0.28778 0.592574,-0.52323 0.738095,-0.52323 0.145521,0 0.04941,0.23777 -0.213588,0.52837 -0.531913,0.58776 -0.601466,2.02848 -0.119938,2.48444 0.236172,0.22364 0.261096,0.13536 0.103603,-0.36698 -0.442103,-1.41009 -0.04994,-2.20073 1.249458,-2.51906 0.519673,-0.1273 0.849622,-0.0277 1.256771,0.37947 0.639339,0.63934 0.857755,0.70242 0.661527,0.19106 -0.210783,-0.5493 -1.376498,-0.98309 -2.175113,-0.80943 -0.550876,0.1198 -0.622441,0.091 -0.315569,-0.127 0.66266,-0.47074 1.576033,-0.32556 2.260984,0.3594 0.357187,0.35718 0.649433,0.74508 0.649433,0.86199 0,0.43813 -4.682287,3.25107 -5.41156,3.25107 -0.0304,0 -0.215562,-0.2995 -0.411472,-0.66556 z m 0.848865,-0.1811 c -0.395711,-0.39571 -0.413284,-2.09322 -0.03037,-2.93362 0.432764,-0.94981 1.599158,-1.51138 3.13916,-1.51138 1.106757,0 1.486527,0.12626 2.03776,0.67749 0.372621,0.37262 0.75416,0.60007 0.847868,0.50545 0.274079,-0.27676 -1.298252,-1.39172 -2.188615,-1.55197 -1.245296,-0.22413 -2.800234,0.24676 -3.662667,1.10919 -0.661712,0.66172 -0.775004,0.97756 -0.766032,2.13563 0.01127,1.45355 0.15785,1.88671 0.638514,1.88671 0.217448,0 0.213082,-0.0888 -0.01561,-0.3175 z m 1.897483,-1.44346 c -0.129905,-0.51758 -0.04823,-0.79631 0.310113,-1.05834 0.267552,-0.19563 0.35922,-0.3557 0.203703,-0.3557 -0.527505,0 -0.93853,0.77603 -0.76893,1.45177 0.09178,0.36569 0.22641,0.66489 0.29917,0.66489 0.07276,0 0.05294,-0.31618 -0.04406,-0.70262 z m 0.771454,-0.0936 c -0.113337,-0.43339 -0.0232,-0.51895 0.487788,-0.46302 0.656029,0.0718 0.923605,-0.62091 0.289473,-0.7494 -0.185539,-0.0376 -0.215305,-0.008 -0.06615,0.0662 0.526354,0.26104 0.262739,0.54457 -0.39026,0.41974 -0.569243,-0.10882 -0.661459,-0.0299 -0.661459,0.56586 0,0.38076 0.107916,0.6923 0.239813,0.6923 0.131898,0 0.177253,-0.23923 0.100791,-0.53163 z m 23.523475,1.72226 c 0.005,-0.43657 0.0647,-0.58313 0.13177,-0.3257 0.0671,0.25743 0.0627,0.61462 -0.01,0.79375 -0.0725,0.17913 -0.12735,-0.0315 -0.12196,-0.46805 z M 55.78033,151.19843 c -0.509323,-0.96007 -1.383115,-2.15895 -1.941759,-2.66417 -0.558644,-0.50521 -0.975363,-0.94729 -0.926042,-0.98239 0.506103,-0.36015 3.575442,-1.48255 4.054227,-1.48255 0.808598,0 1.459407,0.25557 1.459407,0.57309 0,0.13854 -0.113821,0.18155 -0.252936,0.0956 -0.26869,-0.16606 -1.986077,0.47142 -2.565482,0.95228 -0.25032,0.20775 -0.271333,0.42522 -0.0763,0.78965 0.249089,0.46542 0.326631,0.47322 1.039635,0.10451 0.42376,-0.21914 1.200931,-0.39843 1.727047,-0.39843 0.526116,0 1.19707,-0.12871 1.491009,-0.28602 0.293939,-0.15731 0.611754,-0.2087 0.706258,-0.1142 0.257585,0.25759 -1.015294,1.1287 -1.911044,1.30785 -1.407001,0.2814 -2.158283,1.33099 -1.401984,1.95866 0.53744,0.44603 3.095881,-0.8238 3.095881,-1.53658 v -0.54671 l 1.083974,0.553 c 0.596183,0.30415 1.042668,0.59222 0.992188,0.64016 -0.165844,0.15748 -5.368735,2.78639 -5.510046,2.78411 -0.0759,-0.001 -0.554709,-0.78775 -1.064032,-1.74783 z m 45.8245,1.0886 c 0.005,-0.43656 0.0647,-0.58312 0.13177,-0.32569 0.0671,0.25743 0.0627,0.61462 -0.01,0.79375 -0.0725,0.17913 -0.12735,-0.0315 -0.12196,-0.46806 z m -76.607451,-0.087 c -0.543651,-0.60072 -0.554552,-0.80936 -0.03833,-0.7336 0.543679,0.0798 1.159062,0.68829 0.696081,0.68829 -0.183213,0 -0.25953,0.11906 -0.169593,0.26458 0.265195,0.4291 -0.0155,0.30302 -0.488158,-0.21927 z m 67.887756,-1.36544 c -0.1808,-0.28951 -1.25124,-1.25702 -2.37875,-2.15002 -2.0796,-1.64706 -2.4812,-2.0861 -1.90823,-2.0861 0.17499,0 1.02533,-0.42958 1.88964,-0.95462 0.86432,-0.52505 1.61239,-0.912 1.66239,-0.8599 0.05,0.0521 0.13231,0.36582 0.18292,0.69715 0.0657,0.4304 -0.0962,0.69673 -0.5671,0.93269 -0.36251,0.18164 -0.69578,0.52065 -0.74059,0.75335 -0.13583,0.7053 0.67736,0.77106 1.45869,0.11794 0.89025,-0.74417 1.92539,-1.11371 1.92539,-0.68736 0,0.16472 -0.35719,0.60005 -0.79375,0.96739 -0.93178,0.78404 -0.98603,1.15858 -0.26267,1.81322 0.51706,0.46793 0.5594,0.45787 1.60288,-0.38069 0.80334,-0.64559 1.23362,-0.8207 1.71787,-0.69916 0.90972,0.22832 0.8045,0.58841 -0.3461,1.18452 -0.5457,0.28272 -1.40227,0.82092 -1.90349,1.196 -1.09462,0.81916 -1.1229,0.82202 -1.5391,0.15559 z m 3.13274,-3.72624 c -1.37096,-1.15356 -2.65088,-2.09738 -2.84427,-2.09738 -0.19338,0 -0.35161,-0.0927 -0.35161,-0.20598 0,-0.25317 3.31091,-1.12222 4.2638,-1.11916 0.85991,0.003 2.02283,0.88707 2.13464,1.62323 0.0962,0.63331 2.408115,1.64973 3.188835,1.40194 0.61898,-0.19646 0.59048,0.11869 -0.0748,0.8268 l -0.54165,0.57657 -1.57774,-0.63728 c -1.072905,-0.43336 -1.714305,-0.56086 -2.004515,-0.39845 -0.3465,0.19392 -0.22288,0.33294 0.65736,0.73923 0.59627,0.27521 1.0872,0.57058 1.09096,0.65636 0.006,0.13353 -1.24241,0.80549 -1.39469,0.75079 -0.0295,-0.0106 -1.17539,-0.96311 -2.54636,-2.11667 z m 1.95373,-1.19937 c 0.66175,-0.66175 0.0375,-1.20722 -1.26971,-1.10955 -1.29738,0.0969 -1.47432,0.46922 -0.50781,1.06844 0.91494,0.56725 1.24378,0.57485 1.77752,0.0411 z"
       id="path2472" />
  </g>
</svg>
