<?xml version="1.0" encoding="UTF-8" standalone="no"?>
<!-- Created with Inkscape (http://www.inkscape.org/) -->

<svg
   width="144.71825mm"
   height="26.307877mm"
   viewBox="0 0 144.71824 26.307876"
   version="1.1"
   id="svg5"
   inkscape:version="1.1 (c4e8f9ed74, 2021-05-24)"
   sodipodi:docname="midsummercabbage.svg"
   xmlns:inkscape="http://www.inkscape.org/namespaces/inkscape"
   xmlns:sodipodi="http://sodipodi.sourceforge.net/DTD/sodipodi-0.dtd"
   xmlns="http://www.w3.org/2000/svg"
   xmlns:svg="http://www.w3.org/2000/svg">
  <sodipodi:namedview
     id="namedview7"
     pagecolor="#ffffff"
     bordercolor="#666666"
     borderopacity="1.0"
     inkscape:pageshadow="2"
     inkscape:pageopacity="0.0"
     inkscape:pagecheckerboard="0"
     inkscape:document-units="mm"
     showgrid="false"
     inkscape:zoom="0.66903058"
     inkscape:cx="-39.609549"
     inkscape:cy="190.57425"
     inkscape:window-width="2506"
     inkscape:window-height="1403"
     inkscape:window-x="1974"
     inkscape:window-y="0"
     inkscape:window-maximized="1"
     inkscape:current-layer="layer1" />
  <defs
     id="defs2" />
  <g
     inkscape:label="Layer 1"
     inkscape:groupmode="layer"
     id="layer1"
     transform="translate(-0.20151038,-98.564163)">
    <path
       style="fill:#000000;stroke-width:0.264583"
       d="m 0.34899427,124.77956 c -0.33074,-0.32977 -0.0857,-10.36352 0.54005,-22.11476 0.062,-1.16416 0.11956003,-2.56315 0.12792003,-3.108847 0.013,-0.84929 0.10095,-0.99161 0.61053,-0.98814 0.3397,0.002 0.47151,0.0875 0.30699,0.19844 -0.61809,0.41671 -1.24974003,24.686967 -0.65211,25.056317 0.1376,0.085 11.0615897,0.14556 24.2755197,0.13447 13.21393,-0.0111 26.70423,-0.009 29.97845,0.006 3.27422,0.0142 23.931564,0.058 45.905216,0.0973 21.97364,0.0393 40.33205,0.16071 40.79646,0.26981 0.50257,0.11807 1.06487,0.0804 1.38906,-0.0931 0.53823,-0.28806 0.54468,-0.44178 0.54468,-12.9822 0,-7.62808 0.0979,-12.690687 0.24555,-12.690687 0.4582,0 0.5499,2.756227 0.48285,14.512847 l -0.0669,11.73473 -34.52813,0.0281 c -18.990468,0.0155 -43.398281,0.0241 -54.239576,0.0193 -10.8413,-0.005 -27.78772,1.2e-4 -37.65871,0.0111 -9.8709797,0.011 -17.99699973,-0.0296 -18.05780973,-0.0903 z M 71.336643,123.53628 C 71.2276,123.42724 55.608134,123.36223 36.626714,123.39183 l -34.5116697,0.0538 -0.31826,-0.59468 c -0.32238,-0.60236 -0.20763,-11.92113 0.20124,-19.85106 l 0.17371,-3.369067 0.81928,-0.15345 c 0.45061,-0.0844 11.2967897,-0.0442 24.1026197,0.0892 23.42425,0.24415 78.330936,0.20745 92.604176,-0.0619 7.13506,-0.13464 19.58812,0.0643 19.34339,0.30906 -0.21938,0.219377 -73.723984,0.372477 -119.727086,0.249377 -16.3189497,-0.0437 -16.5119197,-0.038 -16.6098197,0.48499 -0.0545,0.29104 -0.17343,5.38096 -0.26435,11.31093 l -0.16532,10.78177 13.0709697,0.055 c 7.18903,0.0302 23.48893,0.1 36.222,0.15495 48.06434,0.20754 91.077106,0.0824 91.425426,-0.2659 0.2651,-0.26512 0.20861,-21.92267 -0.0579,-22.18593 -0.12022,-0.11877 -0.8139,-0.26116 -1.54151,-0.31642 -1.06138,-0.0806 -0.93614,-0.109897 0.63358,-0.148157 l 1.95649,-0.0477 -0.16868,1.785927 c -0.0928,0.98227 -0.16951,6.35679 -0.17055,11.94339 l -0.002,10.15745 -3.63802,-0.17576 c -4.5136,-0.21805 -25.82911,-0.22652 -50.076763,-0.0199 -10.1161,0.0862 -18.482125,0.0675 -18.591168,-0.0415 z m 4.212363,-1.0793 c -0.09896,-0.099 -13.899412,-0.21098 -30.667652,-0.24891 -31.68514,-0.0717 -41.6249397,-0.16521 -41.8535497,-0.39382 -0.0741,-0.0741 -0.0581,-4.84711 0.0356,-10.60669 l 0.17038,-10.47196 5.36582,-0.19161 c 2.9511997,-0.10539 6.5337197,-0.12211 7.9611497,-0.0372 3.52553,0.20981 35.17592,0.28658 64.772427,0.15712 38.658979,-0.1691 60.705819,-0.10536 60.987519,0.17632 0.34626,0.34623 0.42416,20.68812 0.0805,21.02996 -0.11764,0.11703 -10.63186,0.28266 -23.36493,0.36807 -12.73307,0.0854 -27.686223,0.21004 -33.229226,0.27696 -5.542999,0.0669 -10.159151,0.0407 -10.258115,-0.0583 z m -55.301472,-1.3974 c 0.96751,0.18256 2.2232,0.23897 2.94374,0.13226 1.36228,-0.20176 3.77007,-1.13705 3.77007,-1.46446 0,-0.11135 -0.68461,0.0791 -1.52135,0.42318 -1.68214,0.69176 -3.40305,0.79926 -5.64442,0.35258 -1.60536,-0.31992 -2.8884,-0.0166 -2.8884,0.68274 0,0.3669 0.0873,0.36508 0.82657,-0.0172 0.7136,-0.36901 1.05718,-0.38392 2.51379,-0.10908 z m 20.87048,0.25598 c 0.0907,-0.14682 0.0849,-0.51931 -0.013,-0.82775 -0.16938,-0.53368 -0.30547,-0.55465 -2.81486,-0.43382 -2.51047,0.12089 -2.65554,0.0985 -3.02618,-0.46718 -0.55004,-0.83947 -0.74124,-2.32861 -0.38455,-2.99509 0.49297,-0.92113 2.71225,-0.77139 5.40777,0.36487 0.41685,0.17572 0.4655,0.11966 0.31305,-0.36068 -0.0993,-0.3128 -0.19026,-0.91163 -0.20218,-1.33074 -0.0203,-0.715 -0.10495,-0.77203 -1.37138,-0.92421 -2.12846,-0.25576 -3.93833,-0.18785 -4.657,0.17474 -1.21017,0.61057 -1.68674,3.29459 -0.91568,5.15708 0.70078,1.69274 1.18811,1.89719 4.53808,1.90385 1.71271,0.003 3.0305,-0.10666 3.12594,-0.26107 z m 43.99469,-0.11705 c 0.05235,-0.0523 -0.37007,-0.79104 -0.93871,-1.64153 -1.298779,-1.94253 -2.196703,-4.06854 -2.013784,-4.76802 0.130982,-0.50087 0.0072,-0.53996 -1.867373,-0.58958 -2.302283,-0.0609 -2.650011,0.0568 -2.216812,0.75044 0.23164,0.37092 0.222724,0.68238 -0.03752,1.31065 -0.389472,0.94027 -0.534765,0.97814 -1.613217,0.42045 -0.761601,-0.39383 -0.780611,-0.38792 -0.780611,0.24295 0,0.35563 -0.07227,0.83494 -0.160599,1.06513 -0.125209,0.32629 0.02056,0.41851 0.661458,0.41851 0.452133,0 0.822058,0.0674 0.822058,0.14969 0,0.30432 -0.585293,1.22935 -1.109591,1.75365 -0.649682,0.64968 -0.297876,0.99663 1.017055,1.00303 0.782426,0.004 0.852956,-0.077 1.150869,-1.31887 l 0.317363,-1.32292 h 1.816385 c 2.016871,0 2.162974,0.11369 2.507724,1.95136 l 0.190524,1.01558 1.079799,-0.17267 c 0.593889,-0.095 1.122629,-0.2155 1.17498,-0.26785 z m -5.300837,-3.77426 c -0.750375,-0.11367 -0.834049,-0.31237 -0.56084,-1.33184 0.24135,-0.9006 1.305594,-0.7917 1.810816,0.18529 0.697201,1.34824 0.609917,1.4283 -1.249976,1.14655 z m 14.359842,4.02214 c 0.153837,-0.0951 0.09841,-0.52834 -0.140851,-1.10097 -0.216982,-0.51931 -0.394512,-1.28685 -0.394512,-1.70564 0,-0.73185 -0.04883,-0.76147 -1.256771,-0.76243 -0.788818,-6e-4 -1.579329,-0.19765 -2.123061,-0.52916 -1.142535,-0.69661 -1.2117,-0.68118 -1.719438,0.38356 -0.514379,1.07866 -0.482729,1.09696 2.052426,1.18629 1.46304,0.0516 2.230618,0.42103 1.779056,0.85635 -0.357701,0.34484 -4.029887,-0.23197 -4.566084,-0.71722 -0.519332,-0.46999 -0.658593,-1.5463 -0.349364,-2.70018 0.141764,-0.529 0.325578,-0.59467 1.650032,-0.5895 0.908637,0.004 1.940748,0.21012 2.643867,0.52916 0.634357,0.28785 1.192676,0.52336 1.240714,0.52336 0.04803,0 -0.09026,-0.52121 -0.307319,-1.15825 -0.350896,-1.02982 -0.50314,-1.17619 -1.373002,-1.32001 -1.590157,-0.2629 -3.576127,-0.18378 -4.285639,0.17074 -1.020287,0.5098 -1.626646,1.94315 -1.423887,3.36585 0.207806,1.45813 0.733218,2.54079 1.408395,2.90213 0.94251,0.50442 6.579164,1.02826 7.165438,0.66592 z m -48.685915,-0.98836 c 0.008,-1.90627 0.11407,-2.00099 2.06933,-1.84797 0.96993,0.0759 1.85099,0.26975 1.9579,0.43076 0.10691,0.161 0.19621,0.73922 0.19844,1.28492 l 0.004,0.99219 h 1.5875 c 0.87312,0 1.5875,-0.0593 1.5875,-0.13168 0,-0.0724 -0.39994,-0.6975 -0.88874,-1.38906 -1.4391,-2.03603 -2.88125,-4.81359 -2.7533,-5.30284 0.1045,-0.39961 -0.12332,-0.45379 -1.90554,-0.45317 -1.93533,6.6e-4 -2.01944,0.026 -1.91543,0.57621 0.0598,0.31652 -0.0328,1.00446 -0.20581,1.52874 l -0.3146,0.95324 -0.917,-0.56673 c -1.03922,-0.64228 -0.97728,-0.66432 -1.36529,0.48581 l -0.2901,0.85989 h 0.91228 c 1.1683,0 1.16799,0.38276 -0.002,1.91445 -0.5026,0.65824 -0.83994,1.27068 -0.74965,1.36097 0.0903,0.0903 0.79921,0.16417 1.57532,0.16417 h 1.41111 l 0.004,-0.8599 z m 1.58388,-2.81506 c -0.97576,-0.1746 -1.04149,-0.40148 -0.51641,-1.78254 0.17462,-0.45928 0.44243,-0.62792 0.99715,-0.62792 0.65987,0 0.80107,0.14235 1.08662,1.09543 0.26836,0.8957 0.26393,1.13617 -0.0243,1.31887 -0.19386,0.12289 -0.412,0.20958 -0.48476,0.19265 -0.0728,-0.0169 -0.54901,-0.10535 -1.05833,-0.19649 z m 15.8851,3.1357 c 0.431931,-0.43193 0.504252,-0.73474 0.363361,-1.52136 -0.09674,-0.54015 -0.349191,-1.18086 -0.560991,-1.42381 -0.2118,-0.24294 -0.36213,-0.71919 -0.33407,-1.05833 0.10304,-1.24551 -0.0246,-1.56079 -0.83016,-2.05069 -0.73132,-0.44474 -1.20843,-0.48514 -4.29948,-0.364 -1.91229,0.0749 -3.52361,0.17986 -3.58073,0.23316 -0.0571,0.0533 0.054,0.28709 0.24688,0.51952 0.46319,0.55811 0.69778,4.80834 0.28801,5.2181 -0.16431,0.16431 -0.29875,0.45353 -0.29875,0.64271 0,0.26789 0.93622,0.34396 4.23333,0.34396 3.90698,0 4.27491,-0.0416 4.7726,-0.53926 z m -6.74197,-1.10711 c -0.71771,-1.02468 -0.52213,-1.17712 1.73352,-1.35106 2.40364,-0.18535 3.14627,0.0493 3.14627,0.99405 0,0.79582 -0.41883,0.94504 -2.65247,0.94504 -1.57609,0 -1.86974,-0.0775 -2.22732,-0.58803 z m -0.41188,-2.93327 c 0,-1.24649 0.56256,-1.60367 2.25123,-1.42939 0.88373,0.0912 1.7157,0.34079 1.95787,0.58735 0.38566,0.39264 0.36853,0.47184 -0.20351,0.94083 -0.47301,0.3878 -1.03494,0.5121 -2.3151,0.5121 -1.58948,0 -1.69049,-0.0365 -1.69049,-0.61089 z m 18.068102,3.7572 c 0.638273,-0.78823 0.428807,-2.02313 -0.467149,-2.75407 -0.540813,-0.44121 -0.628478,-0.69363 -0.505388,-1.45521 0.114218,-0.70668 0.01635,-1.07398 -0.419904,-1.57609 -0.556059,-0.63998 -0.648523,-0.65378 -4.118211,-0.61471 -1.952162,0.022 -3.669874,0.11445 -3.817139,0.20546 -0.171622,0.10607 -0.132574,0.37427 0.108752,0.747 0.602472,0.93051 0.78671,3.57688 0.338876,4.86752 l -0.385506,1.11101 1.08889,0.11618 c 0.59889,0.0639 2.57198,0.0824 4.384646,0.041 3.080912,-0.0702 3.328112,-0.1151 3.792133,-0.68814 z m -6.53328,-0.84603 c -0.290489,-0.21241 -0.437404,-0.59471 -0.381299,-0.99219 0.08585,-0.60819 0.203531,-0.65122 1.979615,-0.72377 2.006569,-0.082 2.886774,0.3177 2.562249,1.16339 -0.331957,0.86506 -3.210396,1.24735 -4.160565,0.55257 z m -0.245927,-2.74126 c -0.09701,-0.097 -0.17639,-0.45675 -0.17639,-0.79942 0,-0.87875 0.999746,-1.2855 2.412547,-0.98155 1.297263,0.27909 1.832989,0.90818 1.310027,1.53831 -0.35424,0.42683 -3.169378,0.61947 -3.546184,0.24266 z m 39.456991,4.17998 c 1.68562,-0.0967 2.59553,-2.74597 1.24667,-3.62978 -1.18204,-0.7745 -2.79243,0.11007 -1.9808,1.08803 0.37841,0.45596 1.05283,0.0779 1.05283,-0.59024 0,-0.21259 0.14033,-0.33975 0.31183,-0.28258 0.54358,0.18119 0.83039,0.89281 0.64981,1.6123 -0.26737,1.06532 -1.3729,1.22372 -4.64735,0.66589 -1.52241,-0.25936 -3.310228,-0.44504 -3.972927,-0.41261 -1.124558,0.055 -1.204902,0.0148 -1.204902,-0.60251 0,-0.63207 0.07886,-0.66493 1.774873,-0.73944 l 1.774876,-0.078 -0.2996,-0.65754 c -0.28423,-0.62381 -0.3787,-0.6486 -1.84102,-0.48316 -1.495759,0.16923 -1.541423,0.15575 -1.541553,-0.45509 -1.32e-4,-0.62316 0.02381,-0.62856 2.381253,-0.53702 2.56649,0.0997 2.83372,-0.064 1.91247,-1.17094 -0.42614,-0.51207 -0.66736,-0.54154 -3.558144,-0.43472 l -3.101009,0.11459 0.403659,0.7806 c 0.540017,1.04427 0.561943,4.11794 0.03662,5.13436 l -0.400706,0.77531 5.19789,-0.0313 c 2.85884,-0.0172 5.47119,-0.047 5.80523,-0.0662 z m 22.80829,-0.95478 c 0,-0.21493 -0.26921,-0.56716 -0.59823,-0.78275 -0.49249,-0.32269 -0.92507,-0.34385 -2.4474,-0.1197 -1.01704,0.14976 -2.87899,0.19633 -4.13766,0.10351 -1.31662,-0.0971 -2.35271,-0.0649 -2.4397,0.0759 -0.21269,0.34415 2.99552,0.57166 5.80626,0.41176 1.87916,-0.1069 2.46961,-0.0506 2.89069,0.27546 0.67078,0.51947 0.92604,0.52936 0.92604,0.0358 z M 25.703834,119.76481 c 0.10874,-0.10541 -0.54611,-0.14512 -1.45521,-0.0882 -0.9091,0.0569 -2.54587,-0.048 -3.63728,-0.23317 -2.96558,-0.50301 -9.8122,-0.33378 -10.38234,0.25663 -0.2735797,0.28332 0.0696,0.31294 1.91567,0.16536 3.31814,-0.26526 6.22923,-0.2526 8.46667,0.0368 2.0637,0.26694 4.75018,0.19446 5.09249,-0.1374 z m 112.627896,-0.20236 c 0.36139,-0.45944 0.54837,-1.08451 0.54837,-1.83324 0,-1.34674 -0.92473,-2.47707 -3.02482,-3.69734 -1.18889,-0.6908 -1.57742,-0.76763 -4.36563,-0.86324 -2.90401,-0.0996 -3.17566,-0.0626 -5.30955,0.72201 -1.23693,0.45482 -3.38017,1.05808 -4.76277,1.34058 -1.38259,0.28249 -3.22806,0.77166 -4.10104,1.08703 -3.9432,1.42453 -4.22033,1.543 -3.62922,1.55146 0.33212,0.005 1.52274,-0.34434 2.64583,-0.77575 1.1231,-0.43141 3.47074,-1.07647 5.21699,-1.43347 1.74625,-0.35699 4.06797,-0.9657 5.15937,-1.35268 1.80764,-0.64093 2.22924,-0.69113 4.73355,-0.56363 2.30434,0.11731 2.98225,0.25789 4.18963,0.86876 2.37003,1.19913 3.32125,2.86911 2.37294,4.166 -0.50924,0.69643 -1.65842,0.47317 -1.5758,-0.30614 0.0751,-0.70834 -0.33935,-0.78491 -0.69109,-0.12767 -0.282,0.52691 0.043,1.10763 0.89265,1.5949 0.79427,0.45551 1.0984,0.38798 1.70059,-0.37758 z M 7.2989843,118.89056 c 0.75086,-0.7054 0.76992,-1.11924 0.0832,-1.80597 -0.62958,-0.62958 -1.54155,-0.69219 -1.76078,-0.12088 -0.21226,0.55315 0.0791,0.79304 0.51933,0.42765 0.26831,-0.22268 0.4786,-0.21022 0.83364,0.0494 0.70051,0.51222 0.11959,1.49593 -0.88341,1.49593 -1.01248,0 -1.67757,-0.79291 -1.57166,-1.87371 0.068,-0.69428 0.34569,-1.04861 1.40768,-1.79642 1.71275,-1.20607 3.63708,-1.41075 5.8879997,-0.62627 0.83618,0.29142 2.29423,0.67163 3.24012,0.84492 1.72743,0.31647 2.18394,0.49249 4.05812,1.5647 1.1142,0.63742 4.13879,1.35761 5.70163,1.35761 0.54665,0 1.5278,-0.18192 2.18033,-0.40426 1.25576,-0.42788 3.14117,-1.8146 3.14117,-2.31034 0,-0.16215 -0.32742,-0.003 -0.7276,0.35398 -1.04471,0.93157 -2.17799,1.50425 -3.61323,1.8259 -1.63138,0.3656 -5.03616,-0.40265 -7.05191,-1.59118 -0.819,-0.4829 -2.18847,-0.97862 -3.28101,-1.18765 -1.03139,-0.19734 -2.72028,-0.66362 -3.75308,-1.03617 -2.5731697,-0.92819 -3.6157297,-0.88478 -5.3945897,0.22464 -2.18469,1.36251 -2.37233,1.59309 -2.37233,2.91525 0,0.95037 0.13155,1.2749 0.69714,1.71979 0.899,0.70716 1.88852,0.69714 2.65925,-0.0269 z m 19.9799797,-0.16897 c 0.28361,-0.28652 0.21336,-0.29811 -0.40099,-0.0661 -1.54315,0.58265 -5.17336,0.0585 -8.972,-1.29552 -1.69215,-0.60316 -2.55437,-0.6639 -3.90901,-0.27539 -0.70019,0.20081 -1.22344,0.16451 -2.17246,-0.1507 -1.46714,-0.48731 -2.6859597,-0.41544 -2.7957997,0.16487 -0.0608,0.32139 0.11697,0.38825 0.81561,0.30668 0.4913697,-0.0574 1.3562897,0.0235 1.9220497,0.17973 0.74087,0.20457 1.47979,0.20091 2.64113,-0.0131 1.45226,-0.26759 1.79456,-0.23618 3.44514,0.3161 1.00797,0.33727 2.48751,0.76409 3.28788,0.94848 1.85869,0.42822 5.67145,0.35677 6.13845,-0.11503 z m 94.138636,0.17224 c 1.7447,0.0418 3.49811,-0.0855 4.71365,-0.34216 2.49743,-0.5274 4.2672,-0.52209 5.03417,0.0151 0.66261,0.46411 0.98591,0.34971 0.74989,-0.26535 -0.083,-0.21641 -0.62733,-0.53619 -1.20952,-0.71062 -0.90117,-0.26999 -1.50202,-0.22764 -4.04188,0.2849 -2.25699,0.45546 -3.50042,0.56745 -5.10703,0.45996 -1.66856,-0.11163 -2.43551,-0.035 -3.57887,0.35761 -1.24302,0.42682 -1.30089,0.47302 -0.39687,0.31683 0.58208,-0.10058 2.30849,-0.1529 3.83646,-0.11629 z m -8.99584,-0.62692 c 0,-0.42245 -0.70316,-0.83193 -0.97014,-0.56496 -0.0845,0.0845 -0.0831,0.3373 0.003,0.56186 0.20291,0.52877 0.96703,0.53123 0.96703,0.003 z m 4.74532,-0.1353 c 0.93643,-0.29351 2.86291,-0.65272 4.28107,-0.79825 1.41816,-0.14553 3.27136,-0.50975 4.11823,-0.80937 1.71252,-0.60589 5.43302,-0.93291 7.3475,-0.64581 0.6885,0.10324 1.48094,0.42531 1.77841,0.72278 0.55897,0.55896 1.26219,0.30744 0.87808,-0.31406 -0.44148,-0.71434 -1.99788,-1.05437 -4.81771,-1.05254 -2.36259,0.002 -3.19374,0.11806 -4.83715,0.67819 -1.0914,0.37199 -2.9964,0.78882 -4.23333,0.92628 -1.23693,0.13745 -2.60615,0.32101 -3.04271,0.40789 -0.89687,0.17849 -3.91048,1.15157 -4.07899,1.31709 -0.27929,0.27433 1.062,0.0519 2.6066,-0.4322 z m -86.766156,-0.12097 c 0,-0.21829 -0.17859,-0.39688 -0.39687,-0.39688 -0.21828,0 -0.39688,0.17859 -0.39688,0.39688 0,0.21828 0.1786,0.39687 0.39688,0.39687 0.21828,0 0.39687,-0.17859 0.39687,-0.39687 z m -10.05416,-3.48249 c 0,-0.0964 -0.28314,-0.6619 -0.6292,-1.25677 -1.2594,-2.16488 -3.03094,-8.34532 -3.12738,-10.91057 -0.0331,-0.88055 -0.0422,-0.88663 -1.32899,-0.88663 -0.74024,0 -1.22984,0.10649 -1.14212,0.24843 0.30582,0.49483 -1.55742,6.54176 -2.51669,8.1676 -0.29565,0.50109 -0.49341,0.9552 -0.43948,1.00914 0.0539,0.0539 0.66489,0.26865 1.35767,0.47715 l 1.2596,0.37908 -0.16884,-0.6727 c -0.0929,-0.36998 -0.0331,-1.32675 0.1329,-2.12614 0.29726,-1.43191 0.31362,-1.45107 1.10395,-1.29301 0.44122,0.0883 0.95187,0.16045 1.13478,0.16045 0.32376,0 1.35542,4.66413 1.23097,5.56518 -0.0356,0.25747 0.35756,0.56469 1.07537,0.84042 1.20382,0.46241 2.05746,0.5862 2.05746,0.29837 z m -5.35782,-7.94634 c -0.55008,-0.14179 -0.5781,-0.78786 -0.11213,-2.58534 0.39371,-1.51872 0.57192,-1.37643 0.81747,0.65271 0.26786,2.21337 0.27782,2.18606 -0.70534,1.93263 z m 33.33483,6.053 c 0.22047,-0.14002 0.0389,-0.3129 -0.5536,-0.52716 -0.74419,-0.2691 -1.03254,-0.64499 -1.84941,-2.41093 -1.05352,-2.27754 -1.15459,-2.79424 -0.6095,-3.11617 1.09683,-0.64779 1.31288,-3.08913 0.36935,-4.1736 -0.88726,-1.01978 -2.91733,-1.20078 -4.5583,-0.40639 -0.92767,0.44907 -1.18598,0.70064 -1.05391,1.02643 0.94256,2.32514 1.54968,6.68908 1.07709,7.74217 -0.14255,0.31766 0.06,0.58815 0.76799,1.02573 0.57244,0.35379 1.05832,0.49758 1.20059,0.3553 0.14228,-0.14227 0.14209,-1.09277 -5.3e-4,-2.34865 -0.23334,-2.05578 -0.0517,-2.93931 0.48532,-2.36101 0.12839,0.13825 0.62529,1.41221 1.10422,2.83104 l 0.8708,2.57969 1.21089,-0.004 c 0.66598,-0.002 1.3585,-0.0978 1.53893,-0.2124 z m -6.40011,-8.02146 c -0.53228,-1.62735 -0.36008,-1.87936 1.20746,-1.76708 1.15649,0.0828 1.1607,0.0868 1.24058,1.18278 0.0653,0.89666 -0.031,1.17752 -0.5219,1.52136 -1.04273,0.73036 -1.44472,0.53479 -1.92614,-0.93706 z m 99.298206,7.68286 c 0.92089,-0.32103 1.02147,-0.54685 0.45347,-1.01824 -0.4294,-0.35637 -2.00149,-3.98993 -2.00149,-4.62602 0,-0.2284 0.12575,-0.41527 0.27946,-0.41527 0.1537,0 0.52215,-0.54865 0.81878,-1.21922 0.51732,-1.1695 0.52122,-1.2666 0.0955,-2.38125 l -0.44379,-1.16203 h -2.38419 -2.3842 l 0.22327,1.38906 c 0.12279,0.76398 0.20714,3.02203 0.18743,5.01789 l -0.0358,3.62882 0.91767,-0.0345 0.91768,-0.0345 -0.0881,-2.24514 c -0.053,-1.35013 0.0181,-2.28223 0.17836,-2.33818 0.14656,-0.0512 0.67265,1.12764 1.1691,2.61957 0.92191,2.77052 1.05123,3.10948 1.18641,3.10948 0.0425,0 0.45215,-0.13071 0.91043,-0.29047 z m -3.76575,-7.90825 c -0.21821,-1.36461 -0.0321,-1.68167 0.85605,-1.45874 1.85586,0.46579 1.86076,1.91456 0.008,2.37956 -0.6422,0.16118 -0.70113,0.0984 -0.86411,-0.92082 z m -54.006232,7.40497 c 0.436562,-0.11109 0.657849,-0.21607 0.491749,-0.23328 -0.701419,-0.0727 -2.725216,-6.26659 -2.734035,-8.36759 l -0.0067,-1.5894 -1.189815,0.0946 c -0.697582,0.0555 -1.122858,0.20296 -1.027965,0.3565 0.08902,0.14403 -0.05906,1.19398 -0.329062,2.33322 l -0.490913,2.07134 -0.585407,-1.76448 c -0.321971,-0.97047 -0.590978,-2.03238 -0.597789,-2.3598 -0.01089,-0.52384 -0.149987,-0.59531 -1.158629,-0.59531 h -1.146249 l 0.119179,1.43712 c 0.143031,1.72477 -0.622054,4.50315 -1.914647,6.95299 l -0.86701,1.64323 1.393169,-0.0166 1.393169,-0.0166 0.170867,-1.22972 c 0.471067,-3.39018 1.020951,-5.88424 1.247416,-5.65778 0.134808,0.13481 0.315439,1.08403 0.401399,2.10937 l 0.156292,1.86425 0.746297,-0.21403 c 0.410464,-0.11772 0.971672,-0.1551 1.24713,-0.0831 0.439121,0.11484 0.521792,-0.0696 0.67098,-1.49694 0.272204,-2.60432 0.569862,-2.74408 1.066313,-0.50066 0.237993,1.07547 0.456322,2.75907 0.485175,3.74133 l 0.05246,1.78594 0.806424,-0.0313 c 0.443532,-0.0172 1.163611,-0.1222 1.600174,-0.23328 z m 3.698023,-0.19844 c -0.585536,-1.38999 -0.990206,-7.97352 -0.567016,-9.22471 0.168871,-0.49927 0.06789,-0.57588 -0.936635,-0.71062 -0.61925,-0.0831 -1.17398,-0.10294 -1.232734,-0.0442 -0.05875,0.0588 0.05784,0.49759 0.259091,0.9752 0.395398,0.93835 0.518782,6.53809 0.177691,8.06456 -0.184039,0.82362 -0.159358,0.85284 0.926042,1.09614 1.585272,0.35536 1.588958,0.35494 1.373561,-0.15638 z m 3.633726,0.0477 c 1.64627,-0.28311 2.854709,-2.32887 2.854709,-4.83274 0,-1.88453 -0.817277,-3.62765 -2.10086,-4.48081 -0.731912,-0.48648 -1.233628,-0.5961 -2.560979,-0.55959 l -1.650749,0.0454 0.409763,0.62537 c 0.225369,0.34396 0.56855,1.9045 0.762622,3.46787 0.321558,2.59034 0.311184,3.82784 -0.04675,5.5779 -0.113536,0.5551 -0.0506,0.60365 0.611973,0.47207 0.406188,-0.0807 1.180312,-0.22264 1.720273,-0.31549 z m -0.805002,-4.93504 c -0.169717,-1.90826 -0.24868,-3.52945 -0.175472,-3.60266 0.234302,-0.2343 1.509548,1.11827 1.884908,1.9992 0.701241,1.64574 0.225419,4.20265 -0.89352,4.80149 -0.481663,0.25778 -0.522959,0.0959 -0.815916,-3.19803 z m 9.582944,4.80376 c 1.106801,-0.65302 1.607531,-1.91447 1.354491,-3.41222 -0.2228,-1.31876 -1.155133,-2.25239 -2.616797,-2.62044 -1.270191,-0.31984 -1.890366,-0.87674 -1.656123,-1.48717 0.177898,-0.4636 1.289696,-0.52773 2.054342,-0.1185 0.831262,0.44487 0.94892,0.206 0.562308,-1.14164 -0.413888,-1.44271 -0.60307,-1.49538 -2.476481,-0.68946 -2.77413,1.1934 -2.499625,3.32598 0.624893,4.85468 1.432732,0.70098 1.874318,1.38137 1.445651,2.22743 -0.839547,1.65701 -2.154235,1.26917 -2.902939,-0.85637 -0.140023,-0.39752 -1.518865,0.12738 -1.517838,0.57782 0.0016,0.72594 1.00158,2.12791 1.914821,2.68472 1.103299,0.67269 2.051021,0.66713 3.213672,-0.0189 z m 9.997641,0.0332 c 0.39517,-0.0141 0.40341,-0.0946 0.0767,-0.74957 -0.31218,-0.62578 -0.31094,-1.08342 0.009,-3.10886 0.59161,-3.7518 0.71965,-4.35943 0.91862,-4.35943 0.19449,0 1.06703,3.33041 1.06703,4.07275 0,0.23384 0.16886,0.42517 0.37524,0.42517 0.20638,0 0.54753,0.0661 0.75812,0.14692 0.30225,0.11599 0.4215,-0.24492 0.56623,-1.7137 0.10084,-1.02335 0.27344,-1.91632 0.38355,-1.98438 0.21706,-0.13414 1.11699,5.20713 1.01921,6.04922 -0.047,0.40455 0.21214,0.59185 1.21953,0.8816 0.70354,0.20235 1.33813,0.30894 1.4102,0.23687 0.0721,-0.0721 -0.0456,-0.40926 -0.26159,-0.74931 -0.43353,-0.68266 -2.29659,-7.3362 -2.37704,-8.48909 -0.0451,-0.64644 -0.15461,-0.72714 -0.98721,-0.72761 -0.79347,-4.5e-4 -0.93722,0.0904 -0.94137,0.59479 -0.0247,3.00261 -0.38993,3.38977 -0.92453,0.98003 l -0.35489,-1.59966 -1.15568,0.0783 -1.15569,0.0783 -0.0764,1.32292 c -0.0991,1.71613 -1.34166,6.59501 -2.00679,7.8795 -0.28489,0.55018 -0.51798,1.03732 -0.51798,1.08253 0,0.0452 0.56555,-0.0109 1.25677,-0.12467 0.69122,-0.11377 1.456,-0.21396 1.69951,-0.22263 z M 8.6427743,111.37427 c 0.92962,-0.14779 1.07399,-0.24482 0.81985,-0.55103 -0.2351,-0.28329 -0.23239,-0.71152 0.0114,-1.80094 0.49552,-2.21419 1.8082197,-6.21329 2.2717097,-6.92067 0.50664,-0.77323 0.19554,-0.9734 -1.31105,-0.84353 l -0.9718797,0.0838 -0.1122,1.5875 c -0.0996,1.40908 -1.22014,6.35136 -1.50451,6.63572 -0.10521,0.10521 -0.59778,-2.36452 -1.28376,-6.4367 l -0.32304,-1.91765 -1.14705,0.0656 c -0.63087,0.0361 -1.14763,0.14077 -1.14835,0.23269 -7.2e-4,0.0919 0.54968,1.81605 1.22312,3.8314 0.77995,2.33415 1.23616,4.17454 1.25677,5.06996 0.0291,1.26572 0.085,1.39262 0.56151,1.27448 0.29104,-0.0722 1.0369,-0.21192 1.65747,-0.31057 z m 23.4825897,-0.006 c 0.35613,-0.23333 0.90906,-0.84746 1.22874,-1.36473 1.23946,-2.00548 0.49836,-6.23324 -1.36397,-7.78103 -0.84916,-0.70575 -1.07902,-0.7652 -2.71369,-0.70192 -0.98226,0.038 -1.7842,0.13234 -1.78208,0.2096 0.002,0.0772 0.18077,0.64834 0.397,1.26908 0.36367,1.04401 0.62954,6.93677 0.36092,7.99951 -0.0779,0.30813 0.25463,0.43129 1.48719,0.55083 0.87312,0.0847 1.62145,0.17397 1.66295,0.19844 0.0415,0.0245 0.36683,-0.14644 0.72294,-0.37978 z m -2.22502,-2.84884 c -0.0161,-1.0726 -0.14821,-2.57714 -0.29353,-3.34341 -0.36211,-1.90939 -0.33296,-2.37933 0.14757,-2.37933 0.69729,0 1.96817,1.64778 2.3933,3.10304 0.73908,2.53001 0.005,4.56988 -1.64439,4.56988 -0.53392,0 -0.57566,-0.13501 -0.60295,-1.95018 z m 10.25546,2.85989 c 0.15575,-0.14468 -0.87038,-2.49512 -1.08977,-2.49622 -0.10914,-5.5e-4 -0.19844,0.11248 -0.19844,0.25116 0,0.29776 -1.83379,0.84871 -2.15798,0.64836 -0.1228,-0.0759 -0.22327,-0.92105 -0.22327,-1.87813 v -1.74014 l 1.19063,0.16319 c 0.65484,0.0898 1.19062,0.0601 1.19062,-0.066 0,-0.36198 -0.77184,-2.04445 -0.78339,-1.70764 -0.006,0.16612 -0.32649,0.38139 -0.71286,0.47836 -0.78934,0.19811 -1.13909,-0.14928 -1.14553,-1.13778 -0.004,-0.57524 0.0854,-0.61484 1.18657,-0.52726 0.65485,0.0521 1.19063,0.0484 1.19063,-0.008 0,-0.0566 -0.24784,-0.50398 -0.55075,-0.9941 -0.50248,-0.81303 -0.66288,-0.89112 -1.83044,-0.89112 -1.95499,0 -2.19004,0.14908 -1.70719,1.08282 0.79862,1.54436 0.80491,6.78772 0.0105,8.71365 -0.14471,0.35083 0.20709,0.39039 2.68329,0.30174 1.56741,-0.0561 2.89375,-0.14281 2.94743,-0.19267 z m 12.73471,0.0577 c 0,-0.1955 -0.23813,-1.04757 -0.52917,-1.8935 -0.29104,-0.84593 -0.52917,-1.86954 -0.52917,-2.27469 0,-0.71923 -0.0172,-0.72767 -0.7276,-0.35708 -0.40018,0.20875 -0.87844,0.38028 -1.06279,0.38118 -0.2253,0.001 -0.11104,0.44397 0.34852,1.35086 0.37603,0.74207 0.64593,1.38304 0.59977,1.42436 -0.0462,0.0413 -0.34489,-0.0236 -0.66382,-0.14436 -0.89535,-0.33893 -1.43932,-1.40157 -1.59471,-3.11525 -0.12374,-1.3646 -0.068,-1.63698 0.43834,-2.14336 0.43477,-0.43476 0.76624,-0.53921 1.32307,-0.41691 0.87503,0.19219 1.14452,-0.24234 0.90208,-1.45452 -0.18511,-0.92558 -0.67876,-1.00719 -2.07239,-0.34261 -1.31649,0.62779 -2.25297,2.30671 -2.25297,4.03914 0,3.08397 1.90713,5.29912 4.56407,5.30121 0.87614,6.9e-4 1.25677,-0.10667 1.25677,-0.35447 z m 2.91041,-1.58482 c 0,-1.06715 0.0762,-2.01652 0.16942,-2.1097 0.0932,-0.0932 0.50612,0.0295 0.91764,0.27257 0.56374,0.33301 0.78853,0.71073 0.91167,1.53195 0.0899,0.59947 0.12345,1.32017 0.0746,1.60156 -0.0761,0.43783 0.0923,0.52323 1.16787,0.59225 1.36775,0.0878 1.44476,-0.0143 0.87863,-1.16447 -0.65183,-1.3243 -1.73853,-5.97295 -1.73853,-7.43704 0,-1.34722 -0.0279,-1.40176 -0.7276,-1.42067 -0.40018,-0.0108 -0.9787,-0.067 -1.2856,-0.12494 -0.51314,-0.0968 -0.57217,0.0471 -0.73417,1.79011 -0.0969,1.04246 -0.2342,1.95342 -0.30514,2.02437 -0.0709,0.0709 -0.48596,-0.13493 -0.92225,-0.45749 l -0.79326,-0.58648 -0.26182,0.68864 c -0.38586,1.01488 -0.32102,1.44795 0.21677,1.44795 0.26323,0 0.69303,0.15679 0.9551,0.34843 0.45781,0.33475 0.45572,0.42038 -0.0533,2.18281 -0.29139,1.00891 -0.61486,2.04274 -0.71883,2.29741 -0.16383,0.40132 -0.0266,0.46302 1.02991,0.46302 h 1.21893 z m 0.79926,-3.34239 c -0.39059,-0.24698 -0.42839,-1.35438 -0.10256,-3.00448 0.20303,-1.02822 0.31755,-0.81442 0.73375,1.36986 0.3695,1.93919 0.26763,2.20299 -0.63119,1.63462 z m 7.667411,4.93871 c 0,-0.18918 -0.113233,-0.45719 -0.251632,-0.59559 -0.159117,-0.15912 -0.097,-0.86547 0.16895,-1.92126 0.23132,-0.9183 0.508511,-1.57301 0.615985,-1.45493 0.430604,0.47312 1.095041,3.05865 0.942355,3.667 -0.148169,0.59035 -0.08431,0.64874 0.709634,0.64874 h 0.872456 l 0.303633,-2.22669 c 0.35202,-2.58154 1.776436,-7.00824 2.416876,-7.511 0.37338,-0.29312 0.222348,-0.3329 -1.004525,-0.26459 l -1.443977,0.0804 -0.0599,0.95378 c -0.06733,1.07218 -0.840211,5.30373 -0.997421,5.46094 -0.05602,0.056 -0.305699,-0.51186 -0.554842,-1.26196 -0.331967,-0.99946 -0.374512,-1.4423 -0.15925,-1.65756 0.49561,-0.49561 0.339532,-0.59906 -0.892796,-0.59179 -0.950664,0.006 -1.160765,0.0888 -1.056892,0.41839 0.0713,0.22626 -0.09306,1.0597 -0.365257,1.85208 l -0.494898,1.44071 -0.30085,-1.05834 c -0.16547,-0.58208 -0.44111,-2.10013 -0.61252,-3.37344 l -0.31167,-2.3151 h -1.39222 -1.39222 l 0.6429,1.12448 c 1.1457,2.00392 2.08193,5.19815 2.09372,7.14341 l 0.0108,1.7856 1.25677,3.4e-4 c 0.854982,2.3e-4 1.25677,-0.10963 1.25677,-0.34362 z m 41.145965,-0.094 c 0.24087,-0.24086 0.54155,-0.71044 0.66818,-1.04351 0.20522,-0.53976 0.77404,-5.95045 0.78104,-7.42934 0.002,-0.31703 0.18983,-0.76351 0.41851,-0.99219 0.37797,-0.37798 0.29118,-0.41577 -0.95473,-0.41577 -1.342,0 -1.36692,0.0142 -1.19872,0.6844 0.21349,0.8506 -0.39952,8.31143 -0.6829,8.31143 -0.11365,0 -0.3281,-0.22694 -0.47654,-0.50431 -0.34757,-0.64944 -1.08757,-5.56307 -1.10949,-7.36704 l -0.0169,-1.38907 h -0.98687 c -1.25045,0 -1.37496,0.13696 -0.91901,1.01089 0.20342,0.3899 0.37059,1.03211 0.37148,1.42713 0.003,1.15359 0.96771,5.79551 1.45969,7.02084 0.4041,1.00645 0.54368,1.12448 1.3299,1.12448 0.48313,0 1.07548,-0.19707 1.31634,-0.43794 z m -83.580156,-0.28967 c -0.45337,-1.53774 -0.73475,-5.36671 -0.35322,-4.80659 0.71468,1.0492 2.83533,4.77984 2.83533,4.9879 0,0.30636 0.85337,0.36496 1.76265,0.12104 l 0.57203,-0.15345 -0.57203,-0.65387 c -0.31462,-0.35962 -0.63156,-0.89037 -0.70432,-1.17943 -0.25631,-1.01825 0.19013,-6.44241 0.61265,-7.44372 l 0.41868,-0.99219 -1.11098,3.7e-4 -1.11097,3.7e-4 -0.0578,2.05015 c -0.0318,1.12758 -0.15318,2.58038 -0.2698,3.22845 l -0.21204,1.17829 -1.25241,-2.00941 c -0.68883,-1.10518 -1.33028,-2.40932 -1.42545,-2.89809 -0.20142,-1.03444 -0.48011,-1.27593 -1.47889,-1.2815 -0.88302,-0.005 -0.92683,0.41129 -0.13229,1.25683 0.55005,0.58536 0.59531,0.87837 0.59531,3.85352 0,1.77099 -0.0947,3.66646 -0.21042,4.21217 l -0.21043,0.99218 h 1.22044 c 1.03795,0 1.20003,-0.0692 1.08393,-0.46302 z m 99.001716,-0.47436 c -0.20737,-0.45513 -0.19782,-1.41442 0.0346,-3.48027 0.1765,-1.56857 0.35478,-2.88582 0.39618,-2.92721 0.18417,-0.18418 0.97989,2.37546 0.84651,2.72305 -0.0952,0.24814 0.0152,0.38979 0.30564,0.39209 0.2501,0.002 0.72261,0.0754 1.05003,0.16315 0.54096,0.14497 0.5964,0.0661 0.60725,-0.86351 0.007,-0.56267 0.16949,-1.38023 0.36205,-1.81679 l 0.35013,-0.79375 0.17138,0.92604 c 0.42714,2.30785 0.64321,4.59358 0.51116,5.40731 l -0.14403,0.88755 1.37524,0.0937 c 0.75638,0.0515 1.41969,0.0492 1.47402,-0.005 0.0543,-0.0544 -0.12675,-0.54098 -0.40239,-1.08128 -0.68982,-1.35216 -1.60205,-5.04485 -1.78482,-7.22493 l -0.15166,-1.80898 -0.80052,0.08 c -0.74166,0.0741 -0.83971,0.21127 -1.33351,1.86589 -0.29314,0.98227 -0.59973,1.78419 -0.6813,1.78206 -0.17458,-0.005 -1.33894,-2.96103 -1.33894,-3.39974 0,-0.17117 -0.4271,-0.29991 -0.99218,-0.29908 l -0.99219,10e-4 -0.0408,2.71051 c -0.0227,1.50881 -0.23458,3.47297 -0.4779,4.4303 -0.24041,0.94589 -0.50232,1.97976 -0.58201,2.2975 -0.12781,0.50957 -0.0247,0.58792 0.87477,0.66435 1.50236,0.12767 1.70285,0.0212 1.36323,-0.72423 z m 13.81164,0.003 c 0,-1.02248 -0.54487,-1.45367 -1.17553,-0.93027 -0.20627,0.17119 -0.82983,0.27381 -1.38569,0.22804 l -1.01065,-0.0832 -0.0794,-1.67781 -0.0794,-1.67782 1.61479,0.0903 c 1.50633,0.0843 1.60521,0.0548 1.47208,-0.43885 -0.0785,-0.29105 -0.14435,-0.66204 -0.14634,-0.82444 -0.002,-0.18627 -0.56526,-0.28395 -1.52496,-0.26459 l -1.52136,0.0307 v -1.05833 -1.05833 l 1.38907,0.0659 1.38906,0.0659 v -1.06722 -1.06722 l -1.38906,0.17941 c -0.76399,0.0987 -1.56766,0.21272 -1.78594,0.25345 -0.21828,0.0407 -0.66896,0.0832 -1.0015,0.0943 -0.50255,0.0168 -0.56076,0.10219 -0.34484,0.50565 0.33503,0.62601 0.4846,6.41463 0.2076,8.03441 l -0.2127,1.24378 1.6679,0.0943 c 4.28633,0.24235 3.91687,0.31197 3.91687,-0.73808 z M 42.989044,99.156273 c -0.038,-0.0376 -5.05876,-0.0828 -11.15725,-0.10027 -6.09849,-0.0175 -15.25535,-0.1135 -20.34857,-0.21334 -5.0932297,-0.0998 17.51872,-0.20353 50.24878,-0.23046 32.730062,-0.0269 59.435576,0.0247 59.345586,0.11467 -0.21151,0.21151 -77.877376,0.63859 -78.088546,0.4294 z m 98.603036,-0.25336 c 0.40018,-0.0606 1.05502,-0.0606 1.45521,0 0.40018,0.0606 0.0728,0.11022 -0.72761,0.11022 -0.80036,0 -1.12779,-0.0496 -0.7276,-0.11022 z m -19.31459,-0.25746 c 0.25466,-0.0665 0.67138,-0.0665 0.92604,0 0.25467,0.0666 0.0463,0.121 -0.46302,0.121 -0.50932,0 -0.71768,-0.0544 -0.46302,-0.121 z m 3.58841,0.002 c 0.191,-0.0764 0.41921,-0.067 0.50712,0.0209 0.0879,0.0879 -0.0683,0.15045 -0.34726,0.13897 -0.30823,-0.0127 -0.37092,-0.0754 -0.15986,-0.15986 z m 2.91042,0 c 0.191,-0.0764 0.4192,-0.067 0.50712,0.0209 0.0879,0.0879 -0.0684,0.15045 -0.34727,0.13897 -0.30822,-0.0127 -0.37091,-0.0754 -0.15985,-0.15986 z m 2.37171,-0.0133 c 0.62231,-0.0559 1.57481,-0.0551 2.11666,0.002 0.54186,0.0568 0.0327,0.10258 -1.13147,0.10162 -1.16416,-9.6e-4 -1.6075,-0.0475 -0.98519,-0.10337 z m 3.69717,0.0188 c 0.1819,-0.0734 0.47956,-0.0734 0.66146,0 0.1819,0.0734 0.0331,0.13346 -0.33073,0.13346 -0.3638,0 -0.51263,-0.0601 -0.33073,-0.13346 z"
       id="path1312" />
  </g>
</svg>
