<?xml version="1.0" encoding="UTF-8" standalone="no"?>
<!-- Created with Inkscape (http://www.inkscape.org/) -->

<svg
   width="279.14618mm"
   height="25.517891mm"
   viewBox="0 0 279.14616 25.517885"
   version="1.1"
   id="svg5"
   inkscape:version="1.1 (c4e8f9ed74, 2021-05-24)"
   sodipodi:docname="pedigreeonionseed.svg"
   xmlns:inkscape="http://www.inkscape.org/namespaces/inkscape"
   xmlns:sodipodi="http://sodipodi.sourceforge.net/DTD/sodipodi-0.dtd"
   xmlns="http://www.w3.org/2000/svg"
   xmlns:svg="http://www.w3.org/2000/svg">
  <sodipodi:namedview
     id="namedview7"
     pagecolor="#ffffff"
     bordercolor="#666666"
     borderopacity="1.0"
     inkscape:pageshadow="2"
     inkscape:pageopacity="0.0"
     inkscape:pagecheckerboard="0"
     inkscape:document-units="mm"
     showgrid="false"
     inkscape:zoom="1.3380612"
     inkscape:cx="529.49747"
     inkscape:cy="148.34897"
     inkscape:window-width="2506"
     inkscape:window-height="1403"
     inkscape:window-x="1974"
     inkscape:window-y="0"
     inkscape:window-maximized="1"
     inkscape:current-layer="layer1" />
  <defs
     id="defs2" />
  <g
     inkscape:label="Layer 1"
     inkscape:groupmode="layer"
     id="layer1"
     transform="translate(253.94695,-151.01194)">
    <path
       style="fill:#000000;stroke-width:0.264583"
       d="m -100.35006,176.15086 c -0.46033,-0.27995 -1.52348,-0.62027 -2.36255,-0.75627 -0.83907,-0.136 -1.70417,-0.28774 -1.92246,-0.33719 -0.26594,-0.0602 -0.38994,0.10648 -0.37586,0.5054 0.0259,0.73327 -0.3882,0.75155 -1.60046,0.0707 -0.51375,-0.28856 -0.93409,-0.40762 -0.93409,-0.26459 0,0.14304 -0.11906,0.26007 -0.26459,0.26007 -0.14552,0 -0.26458,-0.1786 -0.26458,-0.39688 0,-0.53766 -0.5238,-0.50137 -0.9546,0.0662 -0.31852,0.41959 -0.35228,0.39213 -0.3599,-0.29289 -0.006,-0.56139 -0.11055,-0.71672 -0.40529,-0.60362 -0.21828,0.0838 -0.39688,0.037 -0.39688,-0.10398 0,-0.14096 -0.17859,-0.25628 -0.39687,-0.25628 -0.21828,0 -0.39688,0.12279 -0.39688,0.27288 0,0.15009 0.1786,0.34142 0.39688,0.42519 0.54007,0.20724 0.50111,0.79094 -0.0662,0.99103 -0.25466,0.0898 -0.62341,0.23655 -0.81944,0.32605 -0.28191,0.12872 -0.29678,0.0513 -0.0711,-0.37031 0.25353,-0.47373 0.16604,-0.58076 -0.78618,-0.96177 -1.01045,-0.4043 -1.11187,-0.40049 -1.78095,0.0668 -0.39021,0.27254 -1.12619,0.56236 -1.63551,0.64406 -0.50933,0.0817 -1.13441,0.23095 -1.38907,0.33165 -0.32024,0.12665 -0.46302,0.057 -0.46302,-0.22586 0,-0.28754 0.37315,-0.45966 1.25677,-0.57971 1.7306,-0.23512 2.18281,-0.38091 2.18281,-0.70375 0,-0.18134 -0.52622,-0.2169 -1.52135,-0.10281 -0.98366,0.11278 -1.39085,0.0862 -1.1521,-0.0751 0.28928,-0.19547 0.18899,-0.34273 -0.46302,-0.6799 -0.84642,-0.4377 -1.0991,-1.07751 -0.50391,-1.27591 0.1806,-0.0602 0.48676,0.0489 0.68036,0.24254 0.19359,0.19359 0.46255,0.35199 0.59767,0.35199 0.43252,0 0.263,-0.50128 -0.26508,-0.7839 -0.8544,-0.45726 -1.68598,-1.86861 -1.90047,-3.22543 -0.16176,-1.02328 -0.0959,-1.52869 0.32261,-2.47474 0.28924,-0.65387 0.5765,-1.18885 0.63835,-1.18885 0.16445,0 -0.0453,1.90498 -0.26998,2.45215 -0.20789,0.50626 0.31438,2.04577 0.69402,2.04577 0.12787,0 0.23249,-0.60709 0.23249,-1.34908 0,-1.68133 0.67012,-3.22374 1.31208,-3.01999 0.26138,0.083 0.65412,-0.081 0.93349,-0.38969 0.26525,-0.2931 0.62396,-0.53291 0.79714,-0.53291 0.17317,0 0.53036,-0.23812 0.79375,-0.52916 0.58814,-0.6499 1.04469,-0.69082 0.80736,-0.0724 -0.13513,0.35215 -0.0316,0.32184 0.45177,-0.1323 0.34488,-0.32399 0.71718,-0.58908 0.82734,-0.58908 0.36178,0 -0.6906,0.91739 -1.52955,1.33335 -0.65026,0.3224 -0.81075,0.55957 -0.76989,1.1377 0.0428,0.60571 -0.0337,0.7033 -0.44832,0.57171 -0.44613,-0.1416 -0.47504,-0.0718 -0.26853,0.64824 0.14817,0.51666 0.13604,0.80691 -0.0337,0.80691 -0.35725,0 0.0148,2.98054 0.40403,3.2371 0.63462,0.41827 0.91701,0.19426 0.82875,-0.65741 l -0.0891,-0.8599 0.36103,0.79375 0.36102,0.79375 0.0119,-1.25677 c 0.009,-0.97297 0.10795,-1.25677 0.43712,-1.25677 0.28396,0 0.37032,0.14296 0.26002,0.43041 -0.0908,0.23673 -0.0289,0.59465 0.13773,0.79538 0.16659,0.20074 0.39459,0.75119 0.50665,1.22324 0.2005,0.84458 0.20418,0.84642 0.23083,0.11505 0.03,-0.82385 0.55625,-0.73173 0.55625,0.0974 0,0.28245 0.0893,0.52134 0.19844,0.53085 0.10914,0.01 0.82388,0.0622 1.5883,0.11717 0.76442,0.0549 1.50539,0.17128 1.6466,0.25854 0.1412,0.0873 0.45974,-0.0784 0.70785,-0.3682 0.24812,-0.28977 0.54018,-0.47183 0.64903,-0.40456 0.10884,0.0673 0.26153,-0.50437 0.33929,-1.27032 0.31132,-3.06618 0.36571,-4.69993 0.15647,-4.69993 -0.12105,0 -0.26513,-0.20836 -0.32017,-0.46302 -0.055,-0.25466 -0.12227,0.37042 -0.14939,1.38906 -0.0502,1.88356 -0.19963,3.01204 -0.42942,3.24183 -0.0701,0.0701 -0.0569,-1.11911 0.0294,-2.64275 0.11011,-1.94434 0.0668,-2.82594 -0.14537,-2.95705 -0.1907,-0.11786 -0.3151,0.0387 -0.33708,0.42413 -0.0231,0.40509 -0.0928,0.29893 -0.2069,-0.31511 -0.0968,-0.52073 -0.31312,-0.89709 -0.49434,-0.8599 -0.18657,0.0383 -0.32226,-0.21894 -0.32226,-0.61093 0,-0.3874 -0.11405,-0.60658 -0.26659,-0.51231 -0.15613,0.0965 -0.14009,-0.11287 0.0387,-0.50525 0.31272,-0.68635 0.75707,-0.69195 0.75707,-0.01 0,0.20969 0.11906,0.38126 0.26458,0.38126 0.43591,0 0.29892,-0.84164 -0.19844,-1.21919 -0.44097,-0.33474 -0.44097,-0.35188 0,-0.3599 0.25467,-0.005 0.46302,-0.12974 0.46302,-0.27803 0,-0.15549 -0.28002,-0.19935 -0.66145,-0.10361 -0.40757,0.10229 -0.66146,0.0534 -0.66146,-0.12725 0,-0.1613 0.24068,-0.29327 0.53484,-0.29327 0.31374,0 0.65943,-0.27345 0.83622,-0.66146 0.39344,-0.86351 0.85146,-0.85467 0.63388,0.0122 -0.1324,0.52753 0.005,0.84767 0.63278,1.47556 0.86103,0.86103 0.98056,1.18666 0.495,1.34852 -0.22968,0.0766 -0.2317,0.23183 -0.008,0.61736 0.28947,0.49896 0.29906,0.49734 0.30686,-0.0519 0.0125,-0.88063 0.74194,-0.97211 1.52304,-0.19101 0.38053,0.38053 0.96923,0.69187 1.30823,0.69187 0.36815,0 0.61636,0.15789 0.61636,0.3921 0,0.22777 0.15556,0.33242 0.37115,0.24969 0.552859,-0.21215 1.332719,0.45925 1.134239,0.97648 -0.0925,0.24092 -0.0965,0.79583 -0.009,1.23313 0.11957,0.59786 0.24104,0.72703 0.48966,0.5207 0.38618,-0.3205 0.63938,0.3749 0.67484,1.85342 0.0122,0.50932 0.11208,1.15546 0.22193,1.43586 0.19162,0.48916 0.2073,0.49005 0.38695,0.0219 0.12668,-0.33011 0.27409,-0.40105 0.45581,-0.21934 0.18171,0.18171 0.16517,0.49552 -0.0512,0.97028 -0.34969,0.76751 -0.76394,0.93281 -0.76394,0.30484 0,-0.5899 -0.39138,-0.48166 -0.9505,0.26288 -0.32336,0.43059 -0.65791,0.60821 -0.96311,0.51134 -0.379239,-0.12037 -0.467639,0.008 -0.467639,0.68099 0,0.73452 0.0667,0.80824 0.582969,0.64438 0.52029,-0.16514 0.53995,-0.14201 0.18287,0.21507 -0.34865,0.34866 -1.478609,0.91975 -3.940839,1.99175 -0.59396,0.2586 -0.52568,0.28981 0.6692,0.30589 1.01378,0.0136 1.42147,0.14392 1.71205,0.54707 0.20977,0.29104 0.56348,0.53099 0.78601,0.53322 0.566419,0.006 1.172909,0.42786 0.877189,0.61062 -0.13496,0.0834 -0.62202,-0.0774 -1.082359,-0.35734 z m -6.47333,-2.00468 c -0.0879,-0.0879 -0.31612,-0.0973 -0.50712,-0.0209 -0.21106,0.0845 -0.14837,0.14715 0.15986,0.15985 0.27891,0.0115 0.43518,-0.0511 0.34726,-0.13896 z m -5.88147,-0.90542 c 0.29104,-0.0281 0.006,-0.15372 -0.6326,-0.27921 -0.63897,-0.12549 -1.27676,-0.15709 -1.41731,-0.0702 -0.37756,0.23335 0.24345,0.54288 0.93456,0.46583 0.3224,-0.036 0.82431,-0.0883 1.11535,-0.11639 z m 7.54063,-0.12536 c 0,-0.26458 -0.26459,-0.39687 -0.79375,-0.39687 -0.99499,0 -1.0449,0.45597 -0.0661,0.60424 0.40018,0.0606 0.75737,0.12806 0.79375,0.14987 0.0364,0.0218 0.0661,-0.13895 0.0661,-0.35724 z m 2.38125,-0.25628 c 0,-0.47187 -0.11015,-0.61088 -0.39688,-0.50085 -0.22944,0.088 -0.40472,8.2e-4 -0.41547,-0.20675 -0.0102,-0.19747 -0.12092,-0.12091 -0.24599,0.17013 -0.34229,0.79658 -0.31497,0.87954 0.33073,1.0039 0.32743,0.0631 0.62508,0.13088 0.66146,0.1507 0.0364,0.0198 0.0661,-0.25789 0.0661,-0.61713 z m 0.79375,-0.2885 c 0,-0.22687 -0.11906,-0.3389 -0.26459,-0.24897 -0.14552,0.0899 -0.26458,0.27556 -0.26458,0.41249 0,0.13694 0.11906,0.24897 0.26458,0.24897 0.14553,0 0.26459,-0.18562 0.26459,-0.41249 z m 0.79375,-0.13229 c 0,-0.29963 -0.11906,-0.4712 -0.26459,-0.38126 -0.14552,0.0899 -0.26458,0.33509 -0.26458,0.54478 0,0.2097 0.11906,0.38126 0.26458,0.38126 0.14553,0 0.26459,-0.24515 0.26459,-0.54478 z m 0.79375,-0.66146 c 0,-0.384 -0.11452,-0.60629 -0.26459,-0.51355 -0.14552,0.0899 -0.26458,0.39462 -0.26458,0.67707 0,0.28246 0.11906,0.51356 0.26458,0.51356 0.14553,0 0.26459,-0.30469 0.26459,-0.67708 z m -15.34583,0.0561 c 0,-0.22786 -1.07552,-1.30212 -1.18951,-1.18813 -0.0703,0.0703 0.11368,0.38705 0.40886,0.70388 0.49615,0.53256 0.78065,0.70904 0.78065,0.48425 z m 12.43541,-1.21549 c 0,-0.13694 -0.11906,-0.32256 -0.26458,-0.41249 -0.14552,-0.0899 -0.26459,0.0221 -0.26459,0.24897 0,0.22687 0.11907,0.41249 0.26459,0.41249 0.14552,0 0.26458,-0.11204 0.26458,-0.24897 z m 1.23356,-1.1401 c -0.0734,-0.1819 -0.13345,-0.0331 -0.13345,0.33073 0,0.3638 0.06,0.51263 0.13345,0.33073 0.0734,-0.1819 0.0734,-0.47956 0,-0.66146 z m -1.21466,-0.7276 c 0.13513,0 0.24568,-0.17859 0.24568,-0.39688 0,-0.52395 -0.26531,-0.48891 -1.01237,0.13371 -0.33852,0.28213 -0.53929,0.63627 -0.44615,0.78697 0.10872,0.17592 0.31215,0.1312 0.56825,-0.1249 0.2194,-0.21939 0.50946,-0.3989 0.64459,-0.3989 z m 2.33105,-0.33073 c -0.0496,-0.94356 -0.42899,-2.27661 -0.47061,-1.65365 -0.0295,0.44121 -0.078,0.4632 -0.29184,0.1323 -0.14106,-0.21829 -0.2583,-0.68141 -0.26053,-1.02917 -0.004,-0.57396 -0.63248,-1.32263 -1.12853,-1.34367 -0.10914,-0.005 -0.19844,0.36068 -0.19844,0.81179 0,0.59103 0.26985,1.09006 0.96573,1.78594 0.53115,0.53115 0.94787,0.9955 0.92604,1.03188 -0.15071,0.25119 0.009,0.85989 0.2249,0.85989 0.14552,0 0.25049,-0.26789 0.23328,-0.59531 z m -1.51442,-2.57969 c 0,-0.3638 0.06,-0.51263 0.13345,-0.33073 0.0734,0.1819 0.0734,0.47956 0,0.66146 -0.0734,0.1819 -0.13345,0.0331 -0.13345,-0.33073 z m 2.33947,2.10105 c 0,-0.42797 -0.11906,-0.77813 -0.26458,-0.77813 -0.14552,0 -0.26459,0.42374 -0.26459,0.94166 0,0.56039 0.10713,0.87545 0.26459,0.77813 0.14552,-0.0899 0.26458,-0.51368 0.26458,-0.94166 z m -3.448,-3.22553 c -0.0108,-0.76153 -0.49409,-1.39325 -1.24937,-1.63297 -0.44346,-0.14075 -0.5943,-0.0834 -0.5943,0.22608 0,0.22809 0.1786,0.41471 0.39688,0.41471 0.21828,0 0.39687,0.17859 0.39687,0.39687 0,0.21828 0.11907,0.39688 0.26459,0.39688 0.14552,0 0.26458,0.17859 0.26458,0.39687 0,0.21828 0.11906,0.39688 0.26458,0.39688 0.14553,0 0.2608,-0.26789 0.25617,-0.59532 z m 3.977169,-0.33073 c 0,-0.3638 -0.11906,-0.66145 -0.26459,-0.66145 -0.295579,0 -0.362659,0.87205 -0.0882,1.14652 0.29166,0.29166 0.35278,0.20763 0.35278,-0.48507 z m -1.583449,-0.7276 c 0.003,-0.22049 0.0895,-0.19844 0.26053,0.0661 0.22475,0.34777 0.25698,0.34504 0.26053,-0.0221 0.005,-0.55956 -0.23238,-0.7659 -0.68327,-0.59287 -0.42214,0.16199 -0.50896,0.8795 -0.10643,0.8795 0.14553,0 0.26641,-0.14883 0.26864,-0.33073 z m -2.09591,-1.60237 c -0.34553,-0.34553 -0.39359,0.0374 -0.0988,0.78698 0.18385,0.46746 0.19412,0.46723 0.2894,-0.006 0.0543,-0.27012 -0.0315,-0.62136 -0.19063,-0.78052 z m -1.71704,-1.43483 c -0.26895,-0.26895 -0.49087,0.13597 -0.2702,0.49302 0.1667,0.26972 0.22902,0.26993 0.31864,0.001 0.0613,-0.18383 0.0395,-0.40617 -0.0484,-0.49408 z m -148.91481,8.23491 c -0.0751,-9.36653 0.006,-16.01424 0.19683,-16.20538 0.34828,-0.34828 8.25236,-0.53032 30.0248,-0.69153 14.2082,-0.1052 22.99773,-0.0769 22.75416,0.0732 -0.23041,0.14202 -10.96585,0.31735 -25.59471,0.418 -13.85881,0.0954 -25.57433,0.24868 -26.03449,0.34071 l -0.83664,0.16733 0.20628,9.41794 c 0.11346,5.17987 0.23814,10.01326 0.27707,10.74086 l 0.0708,1.32292 h 7.23658 c 3.98012,0 22.1194,-0.11906 40.3095,-0.26458 18.1901,-0.14552 44.28736,-0.26459 57.99391,-0.26459 h 24.92099 l -0.57933,-0.65916 c -0.31863,-0.36254 -0.69005,-0.74 -0.82539,-0.8388 -0.13533,-0.0988 -3.64767,-0.14067 -7.8052,-0.0931 -10.1069,0.11577 -90.58857,0.53302 -98.3809,0.51004 -5.74414,-0.0169 -6.17978,-0.0519 -6.52507,-0.52414 -0.34246,-0.46834 -0.29031,-0.52953 0.70057,-0.8221 1.4509,-0.4284 2.85146,-1.813 2.85146,-2.81897 0,-1.12651 -1.47121,-2.43179 -3.07281,-2.72623 -1.04651,-0.19239 -1.29,-0.35198 -1.50019,-0.98326 -0.19805,-0.59479 -0.15522,-0.84568 0.20324,-1.19062 0.4265,-0.41042 0.44321,-0.38467 0.27427,0.42286 -0.19442,0.92936 0.23907,1.22726 0.51603,0.35462 0.34563,-1.08898 0.84271,-1.18579 2.15116,-0.41899 0.93768,0.54952 1.27696,0.63997 1.4359,0.3828 0.16814,-0.27205 0.36809,-0.27046 1.04102,0.008 0.57223,0.23703 0.91832,0.25959 1.10582,0.0721 0.33204,-0.33204 0.1916,-0.41513 -1.49298,-0.88333 l -1.32292,-0.36769 1.32292,-0.16029 c 0.7276,-0.0882 1.63723,-0.053 2.02138,0.078 0.49353,0.16839 0.98822,0.11726 1.68596,-0.17428 0.54312,-0.22693 1.21108,-0.4126 1.48435,-0.4126 0.27327,0 0.49685,-0.10517 0.49685,-0.23372 0,-0.43112 -1.01727,-0.5053 -1.74584,-0.12731 -0.49326,0.2559 -2.02598,0.41456 -4.84562,0.50157 -5.96002,0.18392 -5.57937,0.13759 -5.57937,0.67916 0,0.41626 -0.0853,0.3939 -0.64943,-0.17027 -0.55317,-0.55316 -0.89633,-0.64882 -2.31511,-0.64536 -0.91612,0.002 -2.61817,0.24517 -3.78234,0.53987 -1.16416,0.2947 -2.47385,0.50123 -2.91041,0.45896 -0.43656,-0.0423 -0.79375,0.0422 -0.79375,0.18773 0,0.36678 2.63143,0.29908 4.23333,-0.10892 0.72761,-0.18531 1.8587,-0.38752 2.51354,-0.44936 l 1.19063,-0.11242 -1.71979,0.85291 c -2.13282,1.05776 -2.04594,0.98665 -1.57984,1.29299 0.50211,0.33 1.94846,0.0727 3.21063,-0.57125 1.15889,-0.59122 2.33796,-0.66747 2.33796,-0.15121 0,0.48443 -0.7345,1.09988 -1.87381,1.5701 -1.46258,0.60364 -2.09494,1.59041 -2.09494,3.26909 0,1.03587 0.0994,1.41953 0.36798,1.41953 0.20239,0 0.887,0.23551 1.52135,0.52335 0.84285,0.38245 0.9931,0.52492 0.55806,0.52917 -0.32742,0.003 -0.59531,0.14055 -0.59531,0.30523 0,0.20531 0.35345,0.24044 1.12448,0.11177 1.77068,-0.29549 2.86316,-0.19333 2.85374,0.26685 -0.005,0.2652 -14.00442,0.76103 -14.26037,0.50509 -0.0818,-0.0819 -0.19053,-1.66146 -0.24151,-3.51024 -0.051,-1.84879 -0.18137,-5.68315 -0.28974,-8.52081 -0.10837,-2.83765 -0.0978,-5.27566 0.0236,-5.4178 0.29538,-0.346 39.41725,-0.96795 39.75321,-0.63199 0.16618,0.16618 -17.87513,0.48462 -29.07291,0.51315 -4.23263,0.0108 -8.23148,0.12126 -8.88632,0.24549 -0.69118,0.13112 3.02694,0.16391 8.86354,0.0782 16.84879,-0.24748 74.46113,-0.40797 74.94876,-0.20878 0.41635,0.17007 0.4099,0.20644 -0.0717,0.40446 -0.49313,0.20277 -0.48662,0.21886 0.0956,0.23619 0.57862,0.0172 0.61027,0.0919 0.4286,1.01078 -0.10788,0.5457 -0.20051,1.13952 -0.20583,1.31959 -0.0219,0.74143 -1.38641,1.88749 -2.43939,2.04889 -0.96102,0.1473 -1.13823,0.0798 -1.85208,-0.70569 -0.43417,-0.47772 -0.54189,-0.66208 -0.23939,-0.40969 0.81238,0.67779 2.52953,0.60497 3.21725,-0.13643 0.58309,-0.62861 0.77486,-1.78542 0.46056,-2.77813 -0.22117,-0.69853 2.14988,-0.63485 -24.46844,-0.65714 -19.35562,-0.0162 -24.69296,0.0459 -25.05414,0.29138 -0.1457,0.099 -0.10613,0.43726 0.097,0.82878 0.18872,0.36381 0.34488,0.51262 0.34703,0.33071 0.003,-0.22711 0.41234,-0.31298 1.30739,-0.27404 0.71692,0.0312 1.24568,0.15027 1.17501,0.26461 -0.0707,0.11434 -0.0121,0.20789 0.13008,0.20789 0.1422,0 0.46755,0.0802 0.723,0.17823 0.47257,0.18134 0.47289,0.19001 -0.0396,-1.07052 -0.10841,-0.26663 0.0266,-0.3298 0.50818,-0.23775 0.56973,0.10891 0.63854,0.23473 0.52413,0.95843 -0.11598,0.73368 0.0106,0.95116 1.06075,1.82289 0.65583,0.54441 1.27209,1.2408 1.36944,1.54755 0.14749,0.46468 0.3161,0.52996 1.01077,0.39129 0.45856,-0.0915 1.07188,-0.14304 1.36292,-0.11445 0.62275,0.0612 3.63151,0.0294 4.29948,-0.0454 0.25466,-0.0285 1.04717,0.0402 1.76113,0.15266 1.51235,0.23827 1.53768,-0.23893 0.0277,-0.5222 -0.51093,-0.0958 -0.92897,-0.28794 -0.92897,-0.42687 0,-0.13892 -0.17859,-0.25259 -0.39687,-0.25259 -0.21828,0 -0.39688,0.1 -0.39688,0.22211 0,0.33227 -1.24764,0.83622 -2.07024,0.83622 -0.87075,0 -2.0452,-0.75288 -1.70505,-1.09303 0.141,-0.14101 0.57648,-0.0692 1.06824,0.17611 0.75247,0.37538 0.90494,0.37551 1.62849,0.001 1.46833,-0.75931 1.6446,-1.97141 0.47287,-3.25161 l -0.54488,-0.59531 h 0.71588 c 0.72529,0 0.79415,0.0886 1.0791,1.38906 0.23003,1.04983 0.75637,0.9268 0.56594,-0.13229 -0.10931,-0.60791 -0.088,-0.70483 0.0726,-0.33073 0.12498,0.29104 0.29403,1.04408 0.37565,1.67341 0.12959,0.99909 0.10367,1.08305 -0.2043,0.66187 -0.19399,-0.2653 -0.44306,-0.39202 -0.55347,-0.28161 -0.32426,0.32426 0.75056,0.97221 1.6127,0.97221 0.89495,0 1.48943,-0.37441 1.94115,-1.22255 0.45209,-0.84882 0.37877,-1.4291 -0.26748,-2.11701 l -0.57529,-0.61237 0.90602,0.0209 c 0.49831,0.0115 0.75814,0.0806 0.5774,0.15364 -0.24818,0.10025 -0.2571,0.26638 -0.0364,0.67871 0.38777,0.72455 0.13198,2.48449 -0.46541,3.2022 -0.26313,0.31612 -0.31504,0.43205 -0.11536,0.2576 0.2845,-0.24853 0.53869,-0.22635 1.17457,0.10247 0.81148,0.41964 1.44176,0.46017 4.66603,0.30009 l 1.7198,-0.0854 0.0778,-2.07761 c 0.0764,-2.04241 0.0859,-2.06816 0.56137,-1.52 0.44933,0.51808 0.69704,0.55073 3.49412,0.4605 1.65577,-0.0534 3.24862,0.0194 3.53966,0.16191 0.7654,0.37464 1.44253,1.29676 1.44933,1.97371 0.0113,1.12118 1.92852,1.50179 3.59103,0.71288 0.81094,-0.38482 0.93851,-0.38482 1.48792,0 0.77497,0.54281 2.66108,0.53965 3.71668,-0.006 0.7602,-0.39312 0.88355,-0.39312 1.54904,0 1.04691,0.61842 3.0291,0.55278 3.99103,-0.13218 l 0.78546,-0.5593 0.58127,0.54607 c 0.90744,0.8525 2.52298,0.99516 3.97847,0.35133 1.10235,-0.48762 1.2985,-0.50389 1.95382,-0.16205 1.00159,0.52247 2.68659,0.47674 3.63405,-0.0986 0.76667,-0.46559 0.82494,-0.46389 2.06529,0.0601 1.1923,0.50373 1.35022,0.51268 2.39802,0.1359 1.02976,-0.3703 1.2074,-0.36485 2.16804,0.0666 1.33856,0.60117 1.57256,0.59652 2.92499,-0.0582 1.04759,-0.50713 1.18274,-0.51564 2.10023,-0.13229 1.27058,0.53088 3.01753,0.52313 3.7884,-0.0168 0.56117,-0.39306 0.72045,-0.39145 2.03012,0.0205 0.97653,0.30716 1.56336,0.36745 1.87561,0.1927 0.36975,-0.20692 0.26125,-0.28718 -0.58218,-0.43065 -0.57014,-0.097 -1.31964,-0.39065 -1.66555,-0.65258 -0.62664,-0.4745 -0.62688,-0.47677 -0.0658,-0.6235 0.30973,-0.081 0.49629,-0.0391 0.41457,0.0931 -0.0817,0.13222 0.17814,0.36462 0.57745,0.51644 0.91898,0.3494 2.01278,-0.064 2.48016,-0.93726 0.487,-0.90996 -0.15161,-3.03858 -0.917,-3.05657 -0.29565,-0.007 -3.51375,-0.001 -7.15132,0.0124 -5.18672,0.0196 -6.54446,-0.0443 -6.29254,-0.29618 0.23079,-0.23078 1.52546,-0.30396 4.59811,-0.25991 3.78699,0.0543 4.25869,0.0139 4.11803,-0.35264 -0.12742,-0.33206 0.0458,-0.41396 0.87557,-0.41396 0.56892,0 1.09925,0.10491 1.1785,0.23314 0.0793,0.12823 1.06854,0.31426 2.19843,0.4134 1.12988,0.0992 2.28209,0.24654 2.56045,0.32754 0.47892,0.13935 0.48077,0.16146 0.0344,0.41126 -0.38373,0.21474 -0.4041,0.30757 -0.10925,0.49766 0.25783,0.16621 0.27686,0.29096 0.0659,0.4321 -0.26113,0.17474 -0.49617,1.131 -0.6991,2.84427 -0.0864,0.7297 1.65436,1.58696 2.65876,1.30932 0.69211,-0.19132 0.67857,-0.20699 -0.37355,-0.43228 -0.60044,-0.12856 -1.31481,-0.48798 -1.5875,-0.7987 -0.48679,-0.55466 -0.48618,-0.56107 0.0334,-0.35198 0.29104,0.11713 0.79706,0.19818 1.12448,0.18012 0.32742,-0.0181 0.59531,0.0849 0.59531,0.22878 0,0.14389 0.16254,0.26162 0.3612,0.26162 0.54168,0 1.74566,-1.03115 1.63324,-1.3988 -0.054,-0.17654 -0.17262,-0.65924 -0.26363,-1.07265 -0.11344,-0.51533 -0.28677,-0.70511 -0.55126,-0.60362 -0.21219,0.0814 -0.3858,0.0433 -0.3858,-0.0848 0,-0.12808 -0.20836,-0.20127 -0.46302,-0.16266 -0.30788,0.0467 -0.43529,0.26047 -0.38024,0.63805 0.0605,0.41484 -0.0562,0.56783 -0.43299,0.56783 -0.3708,0 -0.54852,-0.2231 -0.63227,-0.79375 -0.0795,-0.54165 -0.005,-0.79375 0.23455,-0.79375 0.19308,0 0.35106,-0.12803 0.35106,-0.28452 0,-0.15649 0.32749,-0.25017 0.72776,-0.20819 0.40027,0.042 0.88552,-0.0212 1.07835,-0.14033 0.47468,-0.29337 3.16556,0.0636 3.41673,0.45331 0.2364,0.36677 0.73674,0.42667 3.85242,0.46123 1.28062,0.0142 2.47124,-0.0866 2.64584,-0.2239 0.17459,-0.13734 1.11457,-0.32046 2.08885,-0.40693 0.97428,-0.0865 2.03163,-0.31113 2.34968,-0.49925 0.45943,-0.27176 0.60286,-0.27408 0.69802,-0.0113 0.0702,0.19372 0.58433,0.33073 1.24122,0.33073 2.50354,0 4.65651,1.33219 4.6543,2.87995 -0.002,1.47751 -1.15037,2.55767 -3.52298,3.31402 -0.35374,0.11277 -0.43339,0.30425 -0.30061,0.72263 0.15702,0.4947 0.1006,0.54827 -0.43101,0.40925 -0.33641,-0.088 -0.75368,-0.0421 -0.92725,0.10196 -0.17358,0.14405 -0.76545,0.31951 -1.31527,0.38991 l -0.99966,0.12799 0.50774,-0.5951 c 0.76104,-0.89197 1.25315,-1.24744 1.73985,-1.25678 0.24109,-0.005 1.21939,-0.35885 2.174,-0.78715 1.36519,-0.61252 1.77387,-0.93105 1.91476,-1.49236 0.47783,-1.90387 -0.7918,-2.72568 -4.56317,-2.95365 -2.66246,-0.16094 -6.71082,0.36386 -6.71082,0.86994 0,0.19417 -0.71793,1.64039 -1.5954,3.21382 -1.74578,3.13043 -2.03219,3.89163 -1.6501,4.38556 0.13925,0.18002 1.30177,2.35136 2.58338,4.82521 1.28161,2.47386 2.4849,4.73605 2.67398,5.02709 0.3424,0.52704 0.28197,0.52916 -15.0554,0.52926 -8.46954,6e-5 -25.81714,0.0877 -38.55021,0.19476 -12.73308,0.10707 -35.80143,0.2731 -51.26302,0.36897 l -28.11198,0.17431 z m 28.63413,6.01401 c 0,-0.12733 -0.31037,-0.23151 -0.68971,-0.23151 -0.48674,0 -0.58407,0.0669 -0.33073,0.22746 0.46726,0.29607 1.02044,0.29826 1.02044,0.004 z m 80.56562,-0.29766 c 0.0899,-0.14552 -0.0887,-0.26458 -0.39687,-0.26458 -0.30822,0 -0.48682,0.11906 -0.39688,0.26458 0.0899,0.14552 0.26853,0.26459 0.39688,0.26459 0.12834,0 0.30693,-0.11907 0.39687,-0.26459 z m -42.76547,-5.4901 -0.097,-3.10886 1.19951,-0.29614 c 1.83666,-0.45344 3.39666,-1.35512 3.96926,-2.29422 0.69212,-1.13511 0.69229,-3.25495 2.6e-4,-4.15651 -0.47813,-0.62297 -0.67646,-0.66663 -3.4086,-0.75035 -1.67145,-0.0512 -3.11719,0.0269 -3.41121,0.18421 -0.48204,0.25798 -0.51089,0.62913 -0.52104,6.70348 -0.006,3.5367 0.0408,6.51966 0.10392,6.62881 0.0631,0.10914 0.5978,0.19843 1.18828,0.19843 h 1.07359 l -0.097,-3.10885 z m -0.10798,-5.68782 c -0.0833,-0.21699 -0.11486,-1.03518 -0.0702,-1.8182 l 0.0812,-1.42367 1.54368,-0.08 c 1.75598,-0.091 2.35898,0.23776 2.24001,1.22136 -0.15931,1.31719 -3.40565,3.1142 -3.79464,2.10052 z m 11.99851,7.65076 c -0.0759,-0.78216 -0.15681,-0.84393 -1.20579,-0.91982 l -1.12448,-0.0814 v -1.3077 c 0,-1.2185 0.0451,-1.30771 0.66146,-1.30771 0.60756,0 0.66146,-0.097 0.66146,-1.19062 0,-1.10146 -0.0508,-1.19063 -0.67822,-1.19063 -0.60579,0 -0.66937,-0.0918 -0.59531,-0.85989 0.0778,-0.80712 0.15192,-0.86489 1.20738,-0.94126 1.08987,-0.0788 1.12448,-0.10945 1.12448,-0.99403 v -0.91268 l -1.91823,0.15626 c -1.05502,0.0859 -2.04541,0.1938 -2.20086,0.23967 -0.1883,0.0556 -0.24342,1.10787 -0.16514,3.15288 0.10583,2.76481 0.0726,3.06947 -0.33473,3.06947 -0.25006,0 -0.39801,0.14785 -0.33095,0.33073 0.0667,0.1819 0.25521,0.30096 0.41892,0.26458 0.19612,-0.0436 0.29766,0.50549 0.29766,1.60955 0,0.92163 0.0491,1.7253 0.10907,1.78594 0.06,0.0606 1.01931,0.0708 2.13183,0.0227 l 2.02276,-0.0876 -0.0813,-0.83846 z m 18.04265,-0.55826 c 0,-0.9373 0.11906,-1.77777 0.26458,-1.8677 0.99529,-0.61512 -0.79003,-1.373 -2.08544,-0.88528 -0.58892,0.22172 -0.60189,0.26859 -0.19786,0.71504 0.53022,0.58588 0.36336,0.79592 -0.50104,0.63068 -0.57445,-0.10981 -0.65524,-0.26347 -0.65524,-1.24622 0,-0.61654 -0.0765,-1.85281 -0.16998,-2.74729 -0.16953,-1.62194 -0.16812,-1.62631 0.52412,-1.62631 0.51973,0 0.73582,0.16619 0.86013,0.66146 0.1292,0.51478 0.33567,0.66146 0.93108,0.66146 0.73744,0 0.76507,-0.0459 0.76507,-1.27 0,-0.6985 -0.14288,-1.41288 -0.3175,-1.5875 -0.68511,-0.68511 -4.19919,-0.28715 -4.738,0.53656 -0.29342,0.44857 0.0235,7.92709 0.36637,8.64521 0.30226,0.63307 0.49461,0.69899 2.44246,0.83711 1.16291,0.0825 2.20367,0.17175 2.31281,0.19843 0.10914,0.0267 0.19844,-0.71836 0.19844,-1.65565 z m -44.50887,1.02771 c 0.56932,-0.39876 0.58804,-0.55832 0.58804,-5.01147 0,-2.94589 -0.10053,-4.66172 -0.27962,-4.7724 -0.15379,-0.095 -0.57051,-0.0998 -0.92605,-0.0106 l -0.64642,0.16224 v 4.09601 c 0,4.20862 -0.0115,4.25333 -1.05833,4.1009 -0.71838,-0.10461 -0.80604,-0.62698 -0.73337,-4.37053 l 0.0719,-3.70417 h -0.79375 -0.79375 l -0.0755,4.36563 c -0.0416,2.40109 -0.01,4.63351 0.0712,4.96094 0.13536,0.5492 0.29546,0.59531 2.06719,0.59531 1.30995,0 2.1074,-0.13094 2.5085,-0.41188 z m 3.44097,-2.69697 c 0.0411,-1.63711 0.18277,-2.97657 0.31472,-2.97657 0.13195,0 0.55128,1.0418 0.93184,2.31511 0.38056,1.2733 0.78397,2.61276 0.89647,2.97656 0.1683,0.54426 0.39719,0.67573 1.29178,0.742 l 1.08723,0.0806 -0.54548,-1.40347 c -0.30001,-0.7719 -0.8256,-2.10248 -1.16796,-2.95683 l -0.62247,-1.55338 0.52318,-0.66512 c 0.71614,-0.91043 0.70926,-2.72458 -0.0128,-3.37804 -0.41124,-0.37217 -0.91221,-0.47469 -2.15254,-0.44051 -0.88911,0.0245 -1.77902,0.17938 -1.97756,0.34416 -0.28106,0.23326 -0.361,1.38002 -0.361,5.17876 v 4.87916 l 0.8599,-0.0829 0.85989,-0.0829 z m -0.0186,-4.46373 c -0.41069,-0.41068 -0.15294,-1.18623 0.49187,-1.48003 0.77779,-0.35438 1.22703,0.0444 1.10705,0.98282 -0.0684,0.53466 -1.2073,0.88883 -1.59892,0.49721 z m 29.55002,6.69365 c 0.50257,-0.67458 0.55624,-1.10031 0.55624,-4.41174 0,-3.3355 -0.0509,-3.73236 -0.5661,-4.41275 -0.52835,-0.69776 -0.67735,-0.74314 -2.23404,-0.68035 -0.96484,0.0389 -1.76218,0.20621 -1.89151,0.39687 -0.26586,0.39193 -0.1039,9.24073 0.17746,9.69598 0.12525,0.20266 0.76643,0.2871 1.79818,0.2368 1.40636,-0.0686 1.67192,-0.16997 2.15977,-0.82481 z m -2.28808,-1.15646 c -0.0639,-0.11746 -0.14189,-1.28539 -0.17336,-2.59539 -0.0315,-1.31 -0.093,-2.70808 -0.13681,-3.10684 -0.0906,-0.82499 0.37426,-1.34394 0.99159,-1.10705 0.54011,0.20726 0.76147,1.7599 0.65745,4.61134 -0.0756,2.07136 -0.12709,2.25537 -0.65239,2.33023 -0.31369,0.0447 -0.62261,-0.0148 -0.68648,-0.13229 z m 23.61411,1.82372 c 0,-0.11641 -0.10432,-0.32477 -0.23183,-0.46302 -0.12751,-0.13824 -0.85227,-1.42326 -1.61057,-2.85558 l -1.37873,-2.60423 0.61838,-0.65823 c 0.44743,-0.47627 0.61838,-0.96842 0.61838,-1.7803 0,-1.71574 -0.35152,-1.90129 -3.30729,-1.74572 l -2.51355,0.13229 -0.0239,3.57188 c -0.0131,1.96453 0.033,4.19695 0.10257,4.96093 l 0.12648,1.38907 h 1.03783 1.03783 l -0.0541,-2.4474 c -0.0456,-2.06169 0.0127,-2.46054 0.36987,-2.53081 0.3037,-0.0597 0.80318,0.67221 1.7604,2.57969 l 1.33642,2.6631 h 1.05592 c 0.58076,0 1.05592,-0.0952 1.05592,-0.21167 z m -5.93253,-7.60571 c -0.21714,-0.86512 -0.0116,-1.17845 0.77316,-1.17845 0.81097,0 0.99325,0.31793 0.6699,1.16842 -0.34416,0.90521 -1.21686,0.91128 -1.44306,0.01 z m 11.96857,6.56061 c 0.0548,-0.56829 -0.0349,-0.86718 -0.26459,-0.88136 -0.19112,-0.0118 -0.82374,-0.0416 -1.40582,-0.0661 -0.98974,-0.0418 -1.06371,-0.10041 -1.14125,-0.90457 -0.0748,-0.77616 -0.0141,-0.8599 0.62362,-0.8599 0.53557,0 0.66767,-0.10127 0.54594,-0.41852 -0.0883,-0.23018 -0.1606,-0.76596 -0.1606,-1.19062 0,-0.62921 -0.11259,-0.77211 -0.60833,-0.77211 -0.53944,0 -0.59609,-0.10487 -0.50022,-0.92604 0.10495,-0.89903 0.14151,-0.92604 1.25315,-0.92604 h 1.14504 l -0.15657,-0.99219 c -0.17799,-1.12793 -0.5043,-1.45384 -1.26537,-1.26383 -0.29104,0.0727 -1.1505,0.13375 -1.90992,0.13574 -1.01363,0.003 -1.34613,0.0939 -1.25053,0.34299 0.15244,0.39724 0.32963,4.0726 0.35994,7.46583 l 0.0213,2.38125 2.31567,-0.13229 2.31566,-0.1323 0.0829,-0.85989 z m -70.99124,0.26821 c 1.6246,-0.8122 2.58947,-1.75919 3.23986,-3.17983 0.5684,-1.24155 0.64492,-1.7192 0.53923,-3.36611 -0.1048,-1.63299 -0.25073,-2.09687 -0.97839,-3.11012 -1.01979,-1.42004 -2.03971,-2.21497 -3.5053,-2.73206 -1.5825,-0.55834 -2.36905,-0.4759 -4.09718,0.4294 -1.85562,0.97209 -3.19925,2.18894 -3.69644,3.34764 -0.49337,1.14981 -0.46078,3.26496 0.0708,4.59348 0.36988,0.9244 0.37992,1.12555 0.0661,1.32422 -0.20349,0.12884 -0.28068,0.23608 -0.17154,0.2383 0.48134,0.01 0.64916,0.11064 1.5717,0.9441 2.34944,2.12258 4.71199,2.63539 6.96112,1.51098 z m -5.19906,-2.64946 c -1.89554,-1.71046 -2.35381,-3.98966 -1.20871,-6.01145 1.25778,-2.22073 3.80592,-2.92291 6.02929,-1.66147 2.10977,1.197 3.0456,4.66796 1.76754,6.55575 -0.82015,1.21142 -2.61149,2.10936 -4.20804,2.10936 -1.10787,0 -1.4288,-0.13379 -2.38008,-0.99219 z m 4.38179,-2.20311 c 0.93244,-1.10815 0.89796,-2.18867 -0.10173,-3.18837 -0.6864,-0.68639 -0.91412,-0.76505 -1.78594,-0.61689 -1.11153,0.18889 -2.18985,1.1804 -2.18985,2.01355 0,0.74396 0.7702,1.98078 1.43409,2.30293 1.05503,0.51193 1.92389,0.3439 2.64343,-0.51122 z m -2.33883,-1.18923 c -0.22868,-0.22867 -0.41578,-0.53007 -0.41578,-0.66976 0,-0.43714 0.79904,-0.58449 1.48201,-0.27331 0.552,0.25151 0.61006,0.38127 0.37069,0.82853 -0.34092,0.63701 -0.87212,0.67935 -1.43692,0.11454 z m -2.53244,-0.11339 c 0,-0.14552 -0.11907,-0.26458 -0.26459,-0.26458 -0.14552,0 -0.26458,0.11906 -0.26458,0.26458 0,0.14552 0.11906,0.26458 0.26458,0.26458 0.14552,0 0.26459,-0.11906 0.26459,-0.26458 z m 53.55368,2.27294 c -0.0901,-3.07595 -0.0425,-4.66333 0.14319,-4.77812 0.57771,-0.35704 0.2424,-0.66967 -0.71406,-0.66577 -1.21497,0.005 -1.78458,0.33146 -1.56708,0.89825 0.09,0.2346 0.17679,2.29805 0.19282,4.58545 0.016,2.2874 0.0858,4.25059 0.15508,4.36266 0.0693,0.11207 0.53071,0.20376 1.02545,0.20376 h 0.89953 z m 30.58381,3.54789 c 0,-1.15085 -0.0601,-1.18443 -1.91823,-1.07256 -0.94509,0.0569 -0.99218,0.021 -0.99218,-0.75677 0,-0.67031 0.10658,-0.81653 0.59531,-0.81664 0.525,-1.2e-4 0.59451,-0.13293 0.58855,-1.12448 -0.006,-0.9407 -0.0921,-1.1244 -0.52917,-1.12469 -0.43299,-2.9e-4 -0.5224,-0.18142 -0.5224,-1.05833 v -1.05799 l 1.25677,-0.0806 c 1.32711,-0.0851 1.44331,-0.25435 1.08735,-1.58316 -0.1544,-0.57636 -0.26552,-0.6018 -2.31149,-0.52917 l -2.1493,0.0763 -0.0879,1.5875 c -0.0483,0.87312 -0.006,3.16508 0.0933,5.09323 l 0.18116,3.50573 h 2.35415 2.35414 z m -46.97911,0.14071 c -0.66096,-0.49992 -0.91047,-0.50223 -0.91047,-0.008 0,0.25447 0.2555,0.39688 0.71203,0.39688 0.68288,0 0.691,-0.0159 0.19844,-0.38846 z m 39.83536,-1.46362 c 0,-0.14552 -0.17859,-0.26459 -0.39687,-0.26459 -0.21828,0 -0.39688,0.11907 -0.39688,0.26459 0,0.14552 0.1786,0.26458 0.39688,0.26458 0.21828,0 0.39687,-0.11906 0.39687,-0.26458 z m -40.63518,-2.01269 c 0.64099,-0.24597 0.49751,-0.63315 -0.23464,-0.63315 -0.47188,0 -0.61088,0.11015 -0.50086,0.39688 0.17373,0.45273 0.17248,0.45233 0.7355,0.23627 z m -62.55231,-0.63315 c 0,-0.14552 -0.12609,-0.26458 -0.2802,-0.26458 -0.15411,0 -0.20662,0.11906 -0.11668,0.26458 0.0899,0.14552 0.21603,0.26459 0.2802,0.26459 0.0642,0 0.11668,-0.11907 0.11668,-0.26459 z m 37.30624,0 c 0,-0.14552 -0.17859,-0.26458 -0.39687,-0.26458 -0.21828,0 -0.39688,0.11906 -0.39688,0.26458 0,0.14552 0.1786,0.26459 0.39688,0.26459 0.21828,0 0.39687,-0.11907 0.39687,-0.26459 z m -36.40583,-5.04442 c 0.13153,-0.12245 -0.25037,-0.20292 -0.84959,-0.17903 -0.8214,0.0328 -1.25312,-0.11122 -1.75926,-0.58671 -0.81255,-0.76335 -1.17236,-0.54096 -0.58214,0.35982 0.57349,0.87526 2.43275,1.11178 3.19099,0.40592 z m -4.18507,-0.0193 c 0.13229,-0.21406 -0.0747,-0.25226 -0.71547,-0.13206 -0.64714,0.1214 -1.1807,0.0196 -1.89034,-0.36077 -0.79752,-0.42745 -0.9887,-0.45561 -0.9887,-0.14567 0,0.21133 0.20836,0.5056 0.46302,0.65393 0.63154,0.36784 2.90153,0.35665 3.13149,-0.0154 z m 9.28565,-0.36748 c 0.0543,-0.16545 -0.31435,-0.23331 -0.94219,-0.17344 -1.00644,0.096 -2.35639,-0.36099 -2.03015,-0.68723 0.09,-0.0899 0.687,-0.13137 1.32675,-0.092 0.88756,0.0546 1.29305,-0.0583 1.71119,-0.47647 0.6649,-0.6649 0.77416,-2.40007 0.15111,-2.40007 -0.21828,0 -0.39869,-0.14883 -0.40092,-0.33073 -0.003,-0.2518 -0.052,-0.2553 -0.20499,-0.0147 -0.21555,0.33905 -0.76784,0.33169 -1.32735,-0.0177 -0.19017,-0.11875 -0.66021,-0.13699 -1.04454,-0.0405 -0.5495,0.13792 -0.61694,0.22715 -0.31569,0.41773 0.25318,0.16017 0.27317,0.24373 0.059,0.24641 -0.21681,0.003 -0.27285,0.26035 -0.16928,0.7782 0.0918,0.45908 -0.008,1.1007 -0.24543,1.57649 -0.41318,0.82825 -0.30519,1.08384 0.60654,1.43559 0.62902,0.24267 2.72759,0.0781 2.82599,-0.22158 z m -1.48219,-2.92524 c 0.0127,-0.30822 0.0754,-0.37092 0.15985,-0.15985 0.0764,0.19099 0.067,0.4192 -0.0209,0.50712 -0.0879,0.0879 -0.15045,-0.0684 -0.13896,-0.34727 z m 5.79995,3.15767 c -1.33452,-0.20097 -2.64584,-0.65029 -2.64584,-0.90659 0,-0.17098 0.17941,-0.16726 0.51178,0.0106 0.67137,0.3593 1.49921,0.34636 2.56814,-0.0402 1.08539,-0.39249 1.5087,-1.68221 0.73727,-2.24629 -0.33186,-0.24266 -0.36674,-0.35007 -0.1137,-0.35007 0.24269,0 0.17466,-0.17737 -0.20295,-0.52916 -0.58712,-0.54699 -1.27559,-0.73155 -0.987,-0.26459 0.0899,0.14552 0.0474,0.26459 -0.0946,0.26459 -0.14199,0 -0.31821,-0.14883 -0.39161,-0.33073 -0.0734,-0.1819 -0.15666,0.0265 -0.18503,0.46302 -0.0284,0.43656 -0.10283,0.60198 -0.16548,0.36759 -0.0626,-0.23438 -0.42161,-0.56635 -0.79769,-0.73771 l -0.68379,-0.31156 0.12723,1.32411 c 0.07,0.72826 0.026,1.26156 -0.0977,1.18512 -0.12369,-0.0764 -0.22489,0.0504 -0.22489,0.2818 0,0.23144 -0.17859,0.48933 -0.39687,0.57309 -0.59148,0.22697 -0.47955,0.87326 0.19844,1.14577 0.32742,0.13161 1.25015,0.23062 2.05052,0.22003 0.80036,-0.0106 1.15755,-0.0641 0.79375,-0.11887 z m -1.56662,-2.6285 c 0.0127,-0.30823 0.0754,-0.37092 0.15986,-0.15986 0.0764,0.191 0.067,0.4192 -0.0209,0.50712 -0.0879,0.0879 -0.15046,-0.0683 -0.13897,-0.34726 z m 7.46799,2.29629 c 0.45849,-0.45848 0.0757,-0.56746 -0.81384,-0.2317 -0.67008,0.25293 -0.98758,0.23925 -1.64215,-0.0708 l -0.81145,-0.3843 h 1.20009 c 0.99565,0 1.32813,-0.13699 1.95165,-0.80416 0.50038,-0.5354 0.74237,-1.06595 0.72408,-1.5875 -0.024,-0.68351 -0.13704,-0.7939 -0.88736,-0.86624 -0.48301,-0.0466 -0.85989,0.0404 -0.85989,0.19843 0,0.15474 -0.11907,0.28135 -0.26459,0.28135 -0.14552,0 -0.26458,-0.17859 -0.26458,-0.39688 0,-0.21828 -0.11011,-0.39687 -0.24469,-0.39687 -0.13458,0 -0.20403,0.43746 -0.15434,0.97213 0.0606,0.65165 0.0117,0.8479 -0.14813,0.59531 -0.13117,-0.20725 -0.24031,-0.5951 -0.24254,-0.86188 -0.002,-0.26987 -0.15078,-0.43575 -0.33478,-0.37389 -0.19919,0.067 -0.33073,0.58527 -0.33073,1.30319 0,0.65561 -0.16215,1.38789 -0.36033,1.62729 -0.46962,0.5673 -0.22616,1.16143 0.54259,1.32416 0.89389,0.18921 2.61597,-0.003 2.94099,-0.32769 z m 4.81425,0.2393 c -0.0899,-0.14552 -0.0322,-0.26459 0.12828,-0.26459 0.16048,0 0.26779,-0.14883 0.23846,-0.33073 -0.0936,-0.58053 0.33646,-1.25677 0.79928,-1.25677 0.56943,0 1.08294,-0.50773 1.08294,-1.07076 0,-0.64159 -0.96957,-1.66116 -1.35384,-1.42367 -0.22404,0.13847 -0.27161,0.0645 -0.15464,-0.24029 0.11032,-0.28748 0.0341,-0.44028 -0.21962,-0.44028 -0.21371,0 -0.38857,0.1786 -0.38857,0.39688 0,0.23768 -0.23879,0.3935 -0.59531,0.38846 -0.58042,-0.008 -0.58246,-0.0181 -0.0817,-0.39688 0.47413,-0.35861 0.41416,-0.38846 -0.78052,-0.38846 -1.00653,0 -1.22356,0.0706 -0.97661,0.3175 0.17462,0.17463 0.30368,0.79971 0.2868,1.38907 -0.0169,0.58935 -0.0831,0.83343 -0.14713,0.54239 -0.19034,-0.86501 -0.66782,-1.98437 -0.84646,-1.98438 -0.22415,0 -0.15458,2.90758 0.0878,3.67137 0.10627,0.33481 0.5688,0.77216 1.02786,0.97188 0.98238,0.4274 2.12802,0.49958 1.89297,0.11926 z m -1.5318,-3.70391 c -0.0761,-0.29089 -0.0304,-0.59558 0.10143,-0.67707 0.13186,-0.0815 0.23975,0.15651 0.23975,0.5289 0,0.8107 -0.1508,0.87619 -0.34118,0.14817 z m -18.30282,2.48165 c 0.51818,-0.48024 0.66527,-0.84443 0.60274,-1.49244 -0.0688,-0.7136 -0.20457,-0.8712 -0.81031,-0.9409 -0.40018,-0.046 -0.7276,-0.19402 -0.7276,-0.32882 0,-0.13481 -0.47625,-0.22645 -1.05833,-0.20364 l -1.05834,0.0415 v 1.36127 c 0,2.43273 1.3612,3.1299 3.05184,1.56306 z m -1.56216,-1.22514 c -0.22029,-0.82201 -0.20572,-1.52143 0.0317,-1.52097 0.10914,2.2e-4 0.23108,0.47647 0.27097,1.05834 0.0802,1.17024 -0.0569,1.3798 -0.30265,0.46263 z m 115.71065,1.57679 c -0.80978,-0.4157 -1.28961,-0.52586 -1.52782,-0.35075 -0.43761,0.32169 0.75933,0.90333 1.9247,0.93528 0.74312,0.0204 0.72258,-0.01 -0.39688,-0.58453 z m -118.89166,-0.32443 c 0.96751,-0.9675 0.81299,-2.30831 -0.29304,-2.54281 l -0.79375,-0.1683 0.85989,-0.0313 c 1.56101,-0.0568 0.71023,-0.81151 -0.92604,-0.82144 -0.66929,-0.004 -0.69006,0.0664 -0.35936,1.21947 0.13549,0.4724 0.13721,0.97863 0.004,1.18888 -0.1632,0.25769 -0.2343,0.13101 -0.24,-0.42759 -0.0106,-1.04126 -0.34349,-1.53059 -0.95775,-1.40795 -0.72314,0.14438 -0.70004,2.75769 0.0291,3.29084 0.78486,0.5739 1.93164,0.44547 2.67691,-0.2998 z m -2.57372,-1.58309 c -0.15765,-1.0576 -0.10077,-1.41131 0.18157,-1.12897 0.0824,0.0824 0.11077,0.60827 0.063,1.16857 l -0.0868,1.01873 z m 29.90387,1.07667 c -0.0696,-0.0696 -0.28418,0.13591 -0.47684,0.45672 -0.33468,0.55729 -0.32904,0.56293 0.12656,0.12656 0.26226,-0.2512 0.41989,-0.51368 0.35028,-0.58328 z m 93.75914,-0.0279 c 1.10417,-0.75031 1.16895,-1.00057 0.56981,-2.20155 -0.40251,-0.80686 -0.90527,-0.90983 -0.90527,-0.18541 0,0.53924 -1.00857,0.70229 -1.14601,0.18527 -0.0635,-0.23903 -0.14007,-0.0774 -0.17008,0.35914 l -0.0546,0.79375 -0.25073,-0.86932 c -0.1379,-0.47813 -0.35512,-0.80481 -0.48271,-0.72596 -0.12759,0.0789 -0.28131,-0.005 -0.34161,-0.18554 -0.0603,-0.1809 -0.0888,0.36992 -0.0633,1.22404 0.04,1.34084 0.13322,1.60109 0.68235,1.90539 0.8777,0.48637 1.03776,0.46418 2.16208,-0.29981 z m -1.72452,-0.0334 c 0.1819,-0.0734 0.47955,-0.0734 0.66145,0 0.18191,0.0734 0.0331,0.13345 -0.33072,0.13345 -0.36381,0 -0.51263,-0.0601 -0.33073,-0.13345 z m -0.99219,-0.35394 c 0,-0.14552 0.12609,-0.26458 0.2802,-0.26458 0.15411,0 0.20661,0.11906 0.11667,0.26458 -0.0899,0.14552 -0.21602,0.26458 -0.2802,0.26458 -0.0642,0 -0.11667,-0.11906 -0.11667,-0.26458 z m -89.50136,0 c 0.37,-0.29104 0.83526,-0.52917 1.03392,-0.52917 0.19866,0 0.36119,-0.11104 0.36119,-0.24675 0,-0.13572 0.24468,-0.32441 0.54373,-0.41933 0.55046,-0.17471 0.56763,-0.845 0.0185,-0.72298 -0.16372,0.0364 -0.29766,-0.17198 -0.29766,-0.46302 0,-0.45816 -0.18639,-0.53319 -1.38907,-0.55914 -2.35213,-0.0508 -3.15061,-0.0165 -3.30919,0.14212 -0.0838,0.0838 0.10247,0.15244 0.41403,0.15244 0.63823,0 1.3459,1.16498 1.17295,1.93094 -0.0961,0.42555 0.33455,1.24406 0.65455,1.24406 0.0684,0 0.42703,-0.23813 0.79703,-0.52917 z m -0.72155,-0.26458 c 0,-0.14552 0.11906,-0.26459 0.26458,-0.26459 0.14552,0 0.26458,0.11907 0.26458,0.26459 0,0.14552 -0.11906,0.26458 -0.26458,0.26458 -0.14552,0 -0.26458,-0.11906 -0.26458,-0.26458 z m -0.52512,-1.91823 c -0.003,-0.33705 0.19391,-0.45467 0.72355,-0.43233 0.55769,0.0235 0.60403,0.0616 0.19844,0.1629 -0.29104,0.0727 -0.61664,0.26726 -0.72355,0.43233 -0.12337,0.19046 -0.19587,0.13095 -0.19844,-0.1629 z m 95.35378,1.14652 c -0.17134,-0.17516 -0.2865,0.0528 -0.45662,0.904 l -0.15864,0.79375 0.36155,-0.79375 c 0.19885,-0.43656 0.31302,-0.84336 0.25371,-0.904 z m -106.47033,-1.19705 c 0,-0.0642 -0.11906,-0.19026 -0.26458,-0.2802 -0.14553,-0.0899 -0.26459,-0.0374 -0.26459,0.11667 0,0.15411 0.11906,0.2802 0.26459,0.2802 0.14552,0 0.26458,-0.0525 0.26458,-0.11667 z m -8.79431,-0.59428 c -0.25297,-0.0662 -0.72922,-0.0686 -1.05833,-0.005 -0.32912,0.0633 -0.12215,0.11747 0.45993,0.1204 0.58208,0.003 0.85136,-0.0488 0.5984,-0.11506 z m 1.31432,0.0219 c -0.0879,-0.0879 -0.31612,-0.0973 -0.50712,-0.0209 -0.21107,0.0845 -0.14837,0.14716 0.15985,0.15986 0.27892,0.0115 0.43519,-0.0511 0.34727,-0.13897 z m 123.36749,19.63504 c 0,-0.25099 0.79199,-0.37749 0.93318,-0.14905 0.086,0.13917 -0.0888,0.25303 -0.3884,0.25303 -0.29963,0 -0.54478,-0.0468 -0.54478,-0.10398 z m 18.586969,-0.58828 c -0.49999,-0.22009 -0.3962,-0.68206 0.13045,-0.58064 0.31395,0.0605 0.61842,-0.229 0.95369,-0.90664 0.48222,-0.97465 1.11423,-1.42402 0.78083,-0.55518 -0.0956,0.24925 -0.0598,0.37284 0.0825,0.28485 0.35154,-0.21726 118.860482,-0.3246 119.077228,-0.10785 0.600922,0.6009 0.658786,-0.60493 0.537528,-11.20061 -0.110173,-9.62625 -0.07332,-11.37708 0.239448,-11.37708 0.29763,0 0.373406,0.70893 0.38899,3.63802 0.01058,2.00091 0.05305,7.28828 0.09425,11.74971 l 0.07493,8.11169 -2.541667,0.10165 c -1.397899,0.0559 -28.3693093,0.12332 -59.93646,0.14982 -40.121582,0.0337 -57.447022,0.13265 -57.568282,0.32885 -0.20017,0.32389 -1.82382,0.57894 -2.31346,0.36341 z m 92.2734377,-1.15982 c 0,-0.14552 -0.178594,-0.26458 -0.396875,-0.26458 -0.218281,0 -0.396875,0.11906 -0.396875,0.26458 0,0.14552 0.178594,0.26458 0.396875,0.26458 0.218281,0 0.396875,-0.11906 0.396875,-0.26458 z m 1.719791,0 c -0.08994,-0.14552 -0.39462,-0.26458 -0.677074,-0.26458 -0.282453,0 -0.513551,0.11906 -0.513551,0.26458 0,0.14552 0.304684,0.26458 0.677074,0.26458 0.384006,0 0.606293,-0.11452 0.513551,-0.26458 z m -6.818531,-0.15985 c -0.08792,-0.0879 -0.3161247,-0.0973 -0.5071187,-0.0209 -0.211066,0.0845 -0.148373,0.14715 0.159853,0.15985 0.278913,0.0115 0.4351837,-0.0511 0.3472657,-0.13896 z m -89.9497377,-0.0273 c 0.32912,-0.0633 0.80537,-0.0609 1.05834,0.005 0.25296,0.0662 -0.0163,0.118 -0.5984,0.11507 -0.582079,-0.003 -0.789049,-0.0571 -0.45994,-0.12041 z m 4.93613,-1.96469 c -0.15282,-0.24727 0.72235,-1.92858 2.52959,-4.85964 0.7178,-1.16417 1.31038,-2.19527 1.31684,-2.29134 0.006,-0.0961 -0.49426,-0.80877 -1.11272,-1.58376 -1.22861,-1.53956 -3.36881,-4.74276 -3.37166,-5.04628 -0.003,-0.32899 0.90828,0.13306 1.27883,0.64834 0.2673,0.37171 0.4409,0.42141 0.70535,0.20193 0.26845,-0.22279 0.39124,-0.16365 0.52316,0.25197 0.35718,1.12537 1.47427,0.34371 1.93541,-1.35425 0.24757,-0.91162 0.22073,-0.98855 -0.43673,-1.25176 -0.38528,-0.15425 -1.40918,-0.46105 -2.27533,-0.68178 -1.76832,-0.45065 -2.3511,-0.23637 -1.79199,0.6589 0.42193,0.67562 0.41106,1.05532 -0.0302,1.05532 -0.19487,0 -0.58182,-0.47488 -0.85989,-1.05529 -0.47338,-0.98808 -0.58144,-1.05759 -1.69622,-1.09117 -2.351549,-0.0708 -4.116409,0.0894 -4.993239,0.45327 -1.0958,0.45477 -1.10803,0.45489 -0.93702,0.009 0.29173,-0.76025 1.47738,-0.96188 5.656199,-0.96188 3.67038,0 4.35991,0.0694 5.47765,0.55154 3.0813,1.32905 5.80144,1.82971 9.94091,1.82971 1.32341,0 2.35659,0.0484 2.29596,0.10762 -0.0606,0.0592 -1.10488,0.17887 -2.32055,0.26595 -2.37307,0.17 -2.68449,0.26234 -2.68449,0.79598 0,0.22298 0.25676,0.3104 0.7276,0.24775 l 0.72761,-0.0968 -0.71549,0.28381 c -0.39352,0.1561 -0.7885,0.51383 -0.87773,0.79497 -0.0892,0.28114 -0.24935,0.51116 -0.35583,0.51116 -0.21185,0 -0.6327,1.10045 -1.08243,2.83035 -0.23052,0.88671 -0.20024,1.4628 0.15022,2.85799 0.54404,2.1658 1.19498,3.14471 2.844,4.27688 1.18225,0.81169 1.44828,0.88261 3.30729,0.8817 2.23756,-10e-4 2.79544,-0.2418 4.69151,-2.02422 1.44984,-1.36294 2.33015,-3.65843 2.13824,-5.57565 -0.18172,-1.81543 -1.35148,-3.93448 -2.69145,-4.87563 -0.58208,-0.40883 -1.17739,-0.83629 -1.32291,-0.9499 -0.14553,-0.11361 -0.56224,-0.34577 -0.92605,-0.51593 l -0.66145,-0.30936 0.80697,-0.0179 c 0.44384,-0.01 0.92009,-0.1186 1.05834,-0.24166 0.13824,-0.12307 1.26338,-0.4161 2.50031,-0.65119 1.23693,-0.23509 2.66568,-0.5109 3.175,-0.6129 1.22285,-0.24492 11.178198,-0.2225 12.7,0.0286 1.617908,0.26695 1.111731,-0.16272 -0.745527,-0.63285 -1.017053,-0.25744 -3.172553,-0.39371 -6.662806,-0.42121 -2.837657,-0.0224 -7.778747,-0.0783 -10.980207,-0.12429 -5.35928,-0.077 -5.62153,-0.10186 -3.30729,-0.31343 1.38245,-0.12638 4.06135,-0.15385 5.95312,-0.061 1.89177,0.0928 3.73724,0.15601 4.10104,0.14046 4.264269,-0.18223 13.041244,-0.21088 13.875399,-0.0453 0.956222,0.18981 0.856673,0.21715 -0.910813,0.25014 -1.590905,0.0297 -1.884251,0.0952 -1.479423,0.33018 0.277726,0.16124 1.338094,0.28794 2.356377,0.28156 1.122725,-0.007 1.708025,0.077 1.487085,0.21359 -0.690554,0.42678 0.03572,0.61852 2.40398,0.63465 2.72913,0.0186 3.275166,0.50428 0.900481,0.80097 -1.242748,0.15528 -1.445213,0.2539 -1.284669,0.6258 0.222888,0.51633 0.215606,0.96298 -0.032,1.96284 -0.153866,0.62132 -0.09839,0.7276 0.379825,0.7276 0.353891,0 0.562973,-0.17042 0.568058,-0.46302 0.0077,-0.44097 0.02088,-0.44097 0.27773,0 0.330526,0.56748 0.999583,0.60417 1.206043,0.0661 0.08376,-0.21828 0.31815,-0.39687 0.520864,-0.39687 0.494135,0 0.467672,-0.65685 -0.04721,-1.17173 -0.228675,-0.22867 -0.288206,-0.41577 -0.132292,-0.41577 0.155916,0 0.283482,-0.2282 0.283482,-0.50712 0,-0.27891 0.148829,-0.56126 0.33073,-0.62744 0.643686,-0.23418 -0.214167,-1.1043 -1.543767,-1.56584 l -1.300504,-0.45144 3.307291,-0.027 c 4.176504,-0.0341 16.682905,-0.0408 22.754166,-0.0121 2.546615,0.012 5.928699,-0.0457 7.515741,-0.12839 1.587045,-0.0827 2.956263,-0.0522 3.042708,0.0678 0.383985,0.53261 2.525668,0.82281 4.067715,0.55119 1.125804,-0.19831 1.637223,-0.19208 1.851874,0.0226 0.219004,0.219 0.04704,0.29654 -0.657643,0.29654 -0.81253,0 -0.934355,0.0758 -0.820595,0.51086 0.07348,0.28098 0.300456,0.5749 0.504397,0.65316 0.551357,0.21157 0.448498,1.306 -0.158364,1.68499 -0.423899,0.26473 -0.530336,0.26424 -0.535051,-0.003 -0.0032,-0.18313 -0.230595,-0.0406 -0.505243,0.31681 -0.459385,0.59776 -0.464614,0.67519 -0.06529,0.96718 0.369681,0.27032 0.331486,0.29779 -0.257492,0.1852 -0.390912,-0.0747 -0.777484,0.007 -0.889207,0.1876 -0.151616,0.24532 0.257091,0.27506 1.754923,0.12767 1.922264,-0.18914 2.8786137,-0.68146 2.8786137,-1.48187 0,-0.17195 0.172035,-0.44482 0.382299,-0.60638 0.329859,-0.25346 0.33161,-0.4117 0.01278,-1.15365 -0.217212,-0.50545 -0.565642,-0.86376 -0.8453187,-0.86927 -0.375928,-0.007 -0.336958,-0.0887 0.1856657,-0.3875 0.420116,-0.24016 1.449996,-0.38154 2.82263,-0.3875 2.383816,-0.0103 3.275737,-0.19979 2.689659,-0.57131 -0.22466,-0.14241 0.05574,-0.22518 0.771565,-0.22776 0.648157,-0.002 1.124479,0.12001 1.124479,0.28884 0,0.17186 0.191336,0.21771 0.46302,0.11097 0.254662,-0.10006 5.380723,-0.17166 11.391239,-0.15912 6.0105393,0.0126 11.2449503,-0.0567 11.6320353,-0.15383 0.64008,-0.16065 0.656775,-0.19503 0.184256,-0.37976 -0.45728,-0.17879 -0.438679,-0.20536 0.155178,-0.22172 0.895482,-0.0247 1.309687,0.43479 1.309687,1.45283 0,0.75004 -0.06847,0.82335 -0.662966,0.7097 -0.825209,-0.15774 -1.4537,0.3364 -1.4537,1.14294 0,0.70181 -0.495168,1.1278 -0.778351,0.66962 -0.229765,-0.37178 -1.073732,-0.0969 -1.073732,0.34967 0,0.1749 0.17481,0.54912 0.388461,0.83159 0.505407,0.6682 0.501756,0.91047 -0.01376,0.91047 -0.760782,0 -0.220741,0.65511 0.836031,1.01415 0.783166,0.26608 1.237615,0.28232 1.850628,0.0661 0.447005,-0.1576 0.886769,-0.28654 0.977336,-0.28654 0.09057,0 0.141632,2.53007 0.113506,5.62239 l -0.05117,5.6224 -5.22552,0.0717 c -2.874037,0.0394 -5.225521,0.011 -5.225521,-0.0631 0,-0.46494 1.074155,-1.23783 1.904947,-1.37068 1.093285,-0.17482 1.646952,-0.67651 1.893146,-1.71543 0.302578,-1.27679 -0.290247,-2.27192 -1.97178,-3.30982 -1.316752,-0.81273 -1.56173,-1.08256 -1.56173,-1.72009 0,-0.57975 0.123428,-0.75614 0.529167,-0.75614 0.291041,0 0.529166,0.0934 0.529166,0.20753 0,0.81369 4.530619,1.64599 6.722031,1.23488 1.421633,-0.2667 0.84537,-0.68799 -0.666697,-0.48741 -0.924666,0.12266 -1.604486,0.053 -2.295472,-0.23529 -0.539962,-0.22526 -1.517518,-0.52458 -2.172362,-0.66516 l -1.190625,-0.25559 1.108049,-0.0318 c 0.609441,-0.0175 1.903359,0.15266 2.875386,0.37809 0.972026,0.22543 1.829884,0.34729 1.906375,0.27081 0.07649,-0.0765 -0.02683,-0.18856 -0.229552,-0.24906 -0.202724,-0.0605 -1.082966,-0.34796 -1.956091,-0.6388 -2.277136,-0.75853 -3.088666,-0.85636 -3.82524,-0.46116 -0.438494,0.23527 -0.852699,0.27192 -1.271905,0.11254 -0.404019,-0.1536 -0.564568,-0.144 -0.458602,0.0274 0.08967,0.14508 -0.01267,0.26378 -0.227409,0.26378 -0.214763,0 -0.430134,0.10733 -0.478658,0.23852 -0.0485,0.13118 -0.243179,0.0701 -0.432594,-0.13576 -0.287284,-0.3122 -0.24339,-0.41481 0.264583,-0.61862 0.472917,-0.18975 0.195157,-0.25864 -1.243091,-0.30829 -1.0186463,-0.0352 -2.0902093,-0.0425 -2.3812503,-0.0164 -0.291042,0.0262 -0.873731,0.0548 -1.294868,0.0638 -0.421135,0.009 -1.541,0.30806 -2.488589,0.66473 -1.386004,0.52169 -1.986447,0.61366 -3.07075697,0.47034 -1.235342,-0.16329 -1.317553,-0.1415 -0.984745,0.26093 0.499126,0.60354 2.21744697,0.56419 3.93919397,-0.0902 0.765545,-0.29097 1.598982,-0.5238 1.852083,-0.51742 0.2531,0.006 0.04346,0.16857 -0.46586,0.36041 -0.509323,0.19184 -1.283229,0.50553 -1.719791,0.69708 -0.729224,0.31997 -0.746628,0.35653 -0.214085,0.44969 0.318817,0.0558 0.869299,-0.0884 1.223293,-0.32031 0.800137,-0.52427 4.281347,-0.81246 5.264512,-0.43581 0.6680733,0.25593 0.6976533,0.33165 0.4298953,1.09977 -0.1635663,0.4692 -0.5870313,0.95472 -0.9820543,1.12593 -1.559698,0.67601 -2.41427,1.53661 -2.41427,2.43131 0,1.03596 0.752443,2.06233 1.843114,2.5141 0.491067,0.20341 0.802719,0.52549 0.802719,0.82957 0,0.58625 0.6710103,0.66942 0.8857463,0.10978 0.120782,-0.31474 0.304324,-0.33301 0.979858,-0.0975 0.609018,0.21231 0.735991,0.35012 0.475006,0.51553 -0.478737,0.3034 -19.0093593,0.30105 -19.0093593,-0.002 0,-0.12995 0.172368,-0.30242 0.38304,-0.38326 0.915207,-0.3512 1.31065,-1.79832 1.269772,-4.6467 -0.03635,-2.53295 -0.09989,-2.84978 -0.795917,-3.96875 l -0.756412,-1.21605 -2.703896,0.0299 c -1.4871427,0.0164 -2.7695547,0.0955 -2.8498027,0.17578 -0.08025,0.0802 -0.02752,0.36711 0.117181,0.63749 0.321152,0.60007 0.514922,7.40303 0.233104,8.18394 -0.18074,0.50083 -0.08197,0.57988 0.928989,0.74346 1.023853,0.16567 1.081003,0.21293 0.602067,0.49792 -0.398349,0.23703 -7.266257,0.32806 -27.781249,0.36823 -14.988645,0.0293 -33.776266,0.0984 -41.750266,0.15337 -7.974,0.055 -14.55647,0.006 -14.62771,-0.10959 z m 34.091517,-2.10586 c 0.0078,-0.78697 -0.0049,-2.9561 -0.0283,-4.82027 l -0.04254,-3.38941 -0.992187,0.0821 -0.992188,0.0821 -0.07503,4.23334 c -0.09451,5.3328 -0.06521,5.46674 1.16839,5.34019 l 0.947613,-0.0972 z m 17.656249,1.33169 c 0,-0.11978 -0.09404,-0.2759 -0.208968,-0.34693 -0.114932,-0.071 -0.23934,-1.47704 -0.276458,-3.12447 -0.128294,-5.69373 -1.11247,-7.26741 -3.911941,-6.25511 -0.680868,0.24621 -1.090052,0.23718 -1.93833,-0.0428 -0.591396,-0.19518 -1.12369,-0.30585 -1.182878,-0.24594 -0.254172,0.25728 0.205931,1.56414 0.55068,1.56414 0.310873,0 0.37405,0.62826 0.352526,3.50573 -0.04146,5.54282 -0.145989,5.0055 0.95536,4.91076 l 0.954572,-0.0821 -0.04036,-3.86976 c -0.03497,-3.35323 0.01709,-3.8918 0.389983,-4.03489 0.753377,-0.2891 1.648364,-0.17817 1.802466,0.22341 0.08201,0.2137 0.166224,2.0294 0.187155,4.03489 0.02093,2.00549 0.08803,3.72815 0.149112,3.82813 0.157776,0.25826 2.217081,0.19782 2.217081,-0.0651 z m 9.19427,-0.59012 c 1.108827,-1.01489 0.554712,-3.33516 -1.550887,-6.49408 -1.433335,-2.15035 -1.558872,-2.8101 -0.7342,-3.8585 0.468514,-0.59562 0.732356,-0.69793 1.627196,-0.63099 1.319987,0.0987 2.37028,1.22358 1.792512,1.91975 -0.50904,0.61336 -1.068475,0.49819 -1.068475,-0.21997 0,-0.8889 -0.609362,-1.34032 -1.306004,-0.96749 -0.958557,0.51301 -0.553964,1.83441 0.771541,2.51986 1.490352,0.77069 2.414841,0.30815 2.775505,-1.38863 0.100796,-0.47422 0.292642,-0.79461 0.426321,-0.71199 0.473215,0.29246 0.769911,-0.15648 0.44609,-0.675 -0.386885,-0.6195 -0.09394,-0.98735 0.436028,-0.54752 0.421772,0.35004 1.926777,0.28982 1.790713,-0.0717 -0.04607,-0.1224 0.105476,-0.36091 0.336769,-0.53004 0.231297,-0.16912 0.481156,-0.72383 0.55525,-1.23267 0.178911,-1.22872 -0.551133,-2.17771 -1.729193,-2.24779 -0.849084,-0.0505 -0.856228,-0.0409 -0.720584,0.97041 0.107219,0.79938 0.03489,1.07608 -0.332719,1.27282 -0.25835,0.13826 -0.556228,0.16628 -0.661958,0.0623 -0.105728,-0.10402 -0.151149,0.049 -0.100934,0.34004 0.0705,0.40861 -0.07446,0.54824 -0.636304,0.61288 -0.735312,0.0846 -0.929169,-0.16525 -0.485778,-0.62611 0.226021,-0.23493 0.38345,-1.17324 0.316627,-1.88717 -0.01611,-0.1721 -0.267412,-0.38848 -0.558453,-0.48085 -0.704347,-0.22355 -0.671484,-0.59518 0.06615,-0.74795 0.327421,-0.0678 0,-0.10586 -0.727605,-0.0846 l -1.322916,0.0387 0.08998,1.25677 c 0.05474,0.76456 -0.01974,1.25677 -0.190135,1.25677 -0.154059,0 -0.207936,0.18808 -0.119721,0.41796 0.126873,0.33063 0.0039,0.39974 -0.588328,0.33073 -0.608166,-0.0709 -0.791422,-0.26107 -0.976222,-1.01327 -0.293079,-1.19294 -0.961793,-2.64584 -1.217777,-2.64584 -0.363048,0 -0.834252,0.62766 -0.834252,1.11125 0,0.26194 0.186875,0.47625 0.415276,0.47625 0.279321,0 0.387596,0.1949 0.33073,0.59532 -0.123672,0.87078 -0.843484,0.73381 -1.042832,-0.19844 -0.142832,-0.66795 -0.174694,-0.59457 -0.201038,0.46302 -0.01722,0.69122 0.08776,1.25677 0.23328,1.25677 0.145521,0 0.264584,0.18974 0.264584,0.42164 0,0.23191 0.247724,0.48643 0.550497,0.56561 0.425508,0.11127 0.507511,0.27085 0.361175,0.70283 -0.104127,0.30738 -0.24424,1.19142 -0.311362,1.96452 -0.132789,1.52944 0.501687,3.41524 1.662335,4.94082 0.741849,0.9751 1.063712,2.12772 0.663265,2.37521 -0.160581,0.0992 -0.898564,-0.021 -1.639959,-0.26728 -1.128442,-0.37481 -1.385374,-0.38873 -1.577504,-0.0854 -0.425545,0.67175 -0.241953,1.17162 0.622282,1.69431 1.649402,0.99757 3.044777,1.01344 4.101041,0.0467 z m 3.806889,-11.72805 c -0.471244,-0.33007 -0.537422,-0.49589 -0.290383,-0.72761 0.239355,-0.22451 0.350501,-0.21679 0.441219,0.0306 0.0667,0.1819 0.289941,0.33073 0.496094,0.33073 0.206155,0 0.374827,0.1786 0.374827,0.39688 0,0.50923 -0.262226,0.50137 -1.021757,-0.0306 z m 6.189098,12.28036 c 0.04268,-0.0434 0.0147,-0.40633 -0.06217,-0.80651 -0.129273,-0.67295 -0.234905,-0.72761 -1.406308,-0.72761 h -1.266537 l -0.09168,-1.32019 c -0.09986,-1.438 0.03569,-1.59022 1.416026,-1.59022 0.703591,0 0.783225,-0.0737 0.643432,-0.59532 -0.08775,-0.32742 -0.161165,-0.80367 -0.163152,-1.05833 -0.0028,-0.3632 -0.231773,-0.46302 -1.061945,-0.46302 -0.999538,0 -1.058333,-0.0441 -1.058333,-0.79375 0,-0.7907 0.0059,-0.79375 1.534371,-0.79375 h 1.534372 l -0.108112,-0.92604 -0.108108,-0.92604 -1.756992,0.004 c -0.966343,0.002 -2.037924,0.0788 -2.38129,0.17073 -0.581446,0.15564 -0.612405,0.25678 -0.45103,1.47329 0.0953,0.71839 0.170659,2.83986 0.167468,4.71438 -0.0069,4.04564 -0.0085,4.04331 2.725129,3.84771 0.999498,-0.0715 1.852186,-0.16553 1.894866,-0.20894 z m 6.435514,0.14798 c 1.534197,-0.16035 1.626081,-0.20906 1.62226,-0.85989 -0.0069,-1.16823 -0.33384,-1.41366 -1.747863,-1.31194 l -1.290794,0.0929 -0.08136,-1.12448 -0.08136,-1.12448 h 1.025189 1.025189 l -0.150079,-1.12448 c -0.144767,-1.08467 -0.180523,-1.12143 -1.009976,-1.03839 -0.843555,0.0845 -0.859896,0.0656 -0.859896,-0.99219 v -1.07827 h 1.5875 c 1.579393,0 1.5875,-0.004 1.5875,-0.77592 0,-1.01542 -0.544475,-1.17673 -3.183353,-0.94314 l -2.077185,0.18388 0.120219,1.23061 c 0.06612,0.67683 0.157369,2.8776 0.202774,4.89058 0.101145,4.48394 -0.03155,4.32464 3.311234,3.97525 z m -52.877857,-4.20219 v -4.10759 l 0.67878,-0.25807 c 0.43271,-0.16451 0.84977,-0.16657 1.15042,-0.006 0.40045,0.21432 0.49954,0.78334 0.65655,3.77036 0.230151,4.37861 0.307179,4.70856 1.099196,4.70856 0.339439,0 0.702064,-0.13738 0.805836,-0.30528 0.210937,-0.3413 0.177591,-8.31228 -0.03762,-8.99282 -0.266346,-0.84225 -1.552057,-1.10326 -4.471262,-0.90772 -2.51735,0.16863 -2.75767,0.14393 -2.87139,-0.29518 -0.0683,-0.26356 -0.13793,0.0268 -0.15481,0.64527 -0.0281,1.03124 0.0241,1.12448 0.63076,1.12448 h 0.66146 v 3.5388 c 0,4.66961 0.1099,5.19245 1.09141,5.19245 h 0.76067 z m 17.225479,1.31037 c 1.237003,-0.85724 2.205926,-2.93619 1.943073,-4.16912 -0.366604,-1.7196 -0.865047,-2.52382 -1.884474,-3.04053 -1.678953,-0.851 -3.049568,-0.9594 -4.426936,-0.35013 -1.548548,0.685 -2.27297,1.83787 -2.268464,3.61013 0.0091,3.58668 3.856572,5.87635 6.636801,3.94965 z m -3.355764,-1.27638 c -1.151482,-0.50987 -1.85784,-2.04762 -1.422902,-3.09765 0.408056,-0.98514 1.70707,-2.08946 2.456304,-2.08817 1.672357,0.003 3.162824,1.98176 2.57021,3.41245 -0.690359,1.66668 -2.184281,2.40185 -3.603612,1.77337 z m 1.987466,-1.97851 c 0.355996,-0.66519 -0.496597,-1.48054 -1.286135,-1.22995 -0.613897,0.19485 -0.674976,0.46525 -0.274235,1.21404 0.348858,0.65185 1.215297,0.66068 1.56037,0.0159 z m 15.099071,0.16263 c 0,-0.47112 -0.987721,-1.0534 -1.201137,-0.70809 -0.210732,0.34097 0.35197,1.04132 0.836658,1.04132 0.200464,0 0.364479,-0.14995 0.364479,-0.33323 z m 42.8624987,0.22925 c 0,-0.0572 -0.184777,-0.17489 -0.410618,-0.26155 -0.235458,-0.0904 -0.341661,-0.046 -0.248967,0.10398 0.155379,0.25141 0.659585,0.37186 0.659585,0.15757 z m -4.23333297,-4.12935 c 0,-0.14552 -0.18562103,-0.26458 -0.41249103,-0.26458 -0.22687,0 -0.338905,0.11906 -0.248968,0.26458 0.08994,0.14552 0.275559,0.26458 0.412491,0.26458 0.136932,0 0.24896803,-0.11906 0.24896803,-0.26458 z M -61.508015,160.91448 c -0.509322,-0.22814 -1.132784,-0.52309 -1.385472,-0.65543 -0.576315,-0.30184 -0.731194,-0.30276 -0.731194,-0.004 0,0.29372 1.797349,1.05668 2.513541,1.06698 0.352301,0.005 0.219652,-0.13104 -0.396875,-0.40721 z m 22.357291,0.16228 c 0.09566,-0.15478 -0.178845,-0.26458 -0.661458,-0.26458 -0.453739,0 -0.757679,-0.10889 -0.675426,-0.24199 0.08226,-0.13309 -1.3e-5,-0.30228 -0.182821,-0.37598 -0.182809,-0.0737 -0.06449,-0.1434 0.262935,-0.15489 0.818753,-0.0287 0.75606,-0.55006 -0.06615,-0.55006 -0.363802,0 -0.661459,0.10742 -0.661459,0.2387 0,0.28866 -1.446252,0.81964 -2.232495,0.81964 -0.31132,0 -1.003285,-0.22293 -1.537703,-0.49539 -0.911932,-0.46493 -1.256885,-0.46998 -1.256885,-0.0184 0,0.42802 2.225786,1.07104 3.160652,0.9131 0.525097,-0.0887 1.249153,-0.0438 1.609016,0.0998 0.864822,0.34512 2.037357,0.36084 2.24179,0.0301 z m -12.964583,-0.26458 c 0.440926,-0.18947 0.38317,-0.23049 -0.346344,-0.24599 -0.5202,-0.0111 -0.809149,0.0888 -0.711989,0.24599 0.19063,0.30845 0.340543,0.30845 1.058333,0 z m 68.686043,-0.0338 c 0.494639,-0.16412 1.03931,-0.47239 1.210363,-0.68504 0.328004,-0.40775 0.253206,-1.38618 -0.125571,-1.64293 -0.123111,-0.0835 -0.221166,-0.56937 -0.217858,-1.0798 0.0032,-0.51043 -0.08586,-1.16527 -0.19812,-1.45521 -0.201613,-0.52072 -0.208704,-0.52089 -0.582084,-0.0136 -0.207883,0.28248 -0.377983,0.37177 -0.377983,0.19844 0,-0.50299 -0.644419,-0.23524 -0.833517,0.34631 -0.155734,0.47895 -0.174572,0.46975 -0.198438,-0.097 -0.01958,-0.46425 -0.14814,-0.59433 -0.497205,-0.50304 -0.258974,0.0677 -0.620844,-0.0375 -0.804201,-0.23373 -0.391609,-0.41923 -1.106222,-0.47543 -1.106222,-0.087 0,0.14841 0.305064,0.75309 0.677915,1.34372 0.517366,0.81956 0.635979,1.26478 0.500883,1.87993 -0.122661,0.55844 -0.08707,0.75044 0.115834,0.62504 0.179044,-0.11065 0.292867,0.0377 0.292867,0.3816 0,0.44221 -0.113241,0.52667 -0.529166,0.39466 -0.81235,-0.25782 -0.628015,0.31667 0.198437,0.61852 0.981948,0.35864 1.415812,0.36024 2.474066,0.009 z m -0.844312,-0.59885 c 0.168037,-0.20245 0.679979,-0.42305 1.137656,-0.49023 l 0.832193,-0.12214 -0.605419,0.49024 c -0.738029,0.59761 -1.840971,0.69634 -1.36443,0.12213 z m -81.137043,0.45745 c -0.181901,-0.0734 -0.479557,-0.0734 -0.661458,0 -0.181901,0.0734 -0.03307,0.13345 0.330729,0.13345 0.363802,0 0.51263,-0.06 0.330729,-0.13345 z m 16.602604,-0.0155 c -0.363802,-0.0653 -0.774568,-0.22764 -0.912812,-0.36084 -0.324136,-0.31231 -0.674688,-0.31075 -0.674688,0.003 0,0.28876 0.660797,0.48933 1.5875,0.48185 l 0.661458,-0.005 -0.661458,-0.11867 z m 53.6387577,0.0309 c -0.08792,-0.0879 -0.316124,-0.0973 -0.507119,-0.0209 -0.211066,0.0845 -0.148373,0.14715 0.159853,0.15985 0.278913,0.0115 0.435184,-0.051 0.347266,-0.13896 z m 4.497924,0 c -0.08792,-0.0879 -0.316124,-0.0973 -0.507127,-0.0209 -0.211058,0.0845 -0.148378,0.14715 0.159862,0.15985 0.278897,0.0115 0.435186,-0.051 0.347265,-0.13896 z m 2.7174833,-0.10473 c 0.483658,-0.31256 0.06591,-0.31256 -0.661459,0 -0.348906,0.14993 -0.393991,0.23234 -0.132291,0.24193 0.218281,0.008 0.575468,-0.10087 0.79375,-0.24193 z m -99.615621,-0.26459 c 0.0899,-0.14552 -0.0816,-0.26458 -0.38126,-0.26458 -0.29963,0 -0.54478,0.11906 -0.54478,0.26458 0,0.14552 0.17156,0.26459 0.38126,0.26459 0.20969,0 0.45484,-0.11907 0.54478,-0.26459 z m 15.96554,0.10096 c 0.63469,-0.12694 0.80527,-0.2901 0.76068,-0.72761 -0.0448,-0.43926 0.069,-0.54655 0.5144,-0.48517 0.31453,0.0434 0.64207,-0.0348 0.72787,-0.17359 0.0858,-0.13883 0.3838,-0.19283 0.66224,-0.12002 0.65174,0.17043 1.146365,-0.71668 1.032779,-1.85232 -0.06108,-0.61069 0.02513,-0.84329 0.312531,-0.84329 0.238474,0 0.430924,0.29698 0.482187,0.7441 0.07006,0.61105 0.152842,0.68805 0.463021,0.43062 0.269481,-0.22365 0.377709,-0.22837 0.377709,-0.0165 0,0.16334 0.119062,0.29698 0.264583,0.29698 0.145521,0 0.250484,-0.0893 0.233251,-0.19844 -0.01722,-0.10914 -0.0154,-0.37703 0.004,-0.59531 0.02993,-0.33566 0.07179,-0.33936 0.271436,-0.024 0.129829,0.20508 0.174697,0.53277 0.09971,0.72819 -0.189971,0.49506 0.150879,1.72956 0.429922,1.5571 0.126007,-0.0779 0.304628,0.0552 0.396935,0.29577 0.143542,0.37407 0.284935,0.32598 0.976916,-0.33225 0.693063,-0.65925 0.790406,-0.91189 0.67882,-1.7618 -0.110924,-0.84487 -0.05544,-0.99219 0.373724,-0.99219 0.4219,0 0.503989,0.19648 0.503989,1.20624 0,0.66344 0.105527,1.14103 0.234503,1.06131 0.128976,-0.0797 0.292843,0.0782 0.364146,0.35083 0.175485,0.67105 1.518018,0.44983 1.518018,-0.25014 0,-0.26427 0.23836,-0.55615 0.52969,-0.64861 0.406712,-0.12909 0.492197,-0.31751 0.368192,-0.81158 -0.137573,-0.54815 -0.06711,-0.64346 0.475729,-0.64346 0.350475,0 0.750334,-0.10751 0.888579,-0.23891 0.138245,-0.13139 0.489479,-0.29617 0.780521,-0.36618 0.315079,-0.0758 0.149161,-0.1397 -0.410105,-0.15797 -0.516598,-0.0169 -1.058637,0.0887 -1.204528,0.23456 -0.17729,0.17729 -0.760733,0.17367 -1.759281,-0.0109 -0.84618,-0.15643 -3.708392,-0.23313 -6.600679,-0.17689 -4.498118,0.0875 -5.870708,0.22717 -8.678528,0.88332 l -0.66146,0.15457 0.59531,0.22756 c 0.67049,0.25629 0.8299,1.30294 0.19844,1.30294 -0.47476,0 -0.52621,0.82316 -0.0794,1.27 0.93232,0.93232 2.81893,-0.11191 2.364,-1.30847 -0.16792,-0.44166 -0.14055,-0.78306 0.0878,-1.09534 0.48326,-0.66091 0.90093,-0.55632 1.09385,0.27391 0.093,0.40019 0.3453,0.86851 0.5607,1.04073 0.52777,0.42197 0.16336,0.9415 -0.5104,0.72766 -0.54426,-0.17274 -0.99093,0.21959 -0.99899,0.87745 -0.005,0.37653 0.1372,0.39508 1.27712,0.1671 z m 0.50512,-2.68064 c -0.11635,-0.93335 -0.0552,-1.35328 0.16064,-1.10244 0.22206,0.25812 0.38168,2.09462 0.18205,2.09462 -0.12045,0 -0.27466,-0.44648 -0.34269,-0.99218 z m -2.82373,0.30868 c 0.0127,-0.30823 0.0754,-0.37092 0.15985,-0.15986 0.0764,0.191 0.067,0.4192 -0.0209,0.50712 -0.0879,0.0879 -0.15045,-0.0684 -0.13896,-0.34726 z m 3.74466,-0.63941 c 0,-0.50933 0.0545,-0.71769 0.121,-0.46302 0.0666,0.25466 0.0666,0.67138 0,0.92604 -0.0665,0.25466 -0.121,0.0463 -0.121,-0.46302 z m 12.10945,2.77812 c 0,-0.21828 -0.0468,-0.39687 -0.103984,-0.39687 -0.05719,0 -0.172516,0.17859 -0.256281,0.39687 -0.08376,0.21828 -0.03697,0.39688 0.103984,0.39688 0.140954,0 0.256281,-0.1786 0.256281,-0.39688 z m 36.098489,0.16002 c 0.176961,-0.28633 -0.59201,-0.62046 -0.937099,-0.40718 -0.134762,0.0833 -0.176524,0.26227 -0.0928,0.39774 0.193829,0.31362 0.838253,0.31953 1.029899,0.009 z m 5.705676,-0.0277 c 0.352777,-0.22798 0.352777,-0.25825 0,-0.27246 -0.218281,-0.009 -0.754063,-0.18091 -1.190625,-0.38248 l -0.79375,-0.3665 0.850162,0.14497 c 1.36058,0.23201 2.21725,-0.0871 2.102381,-0.78311 -0.0535,-0.32415 -0.04636,-0.44055 0.01585,-0.25865 0.222964,0.6519 0.812324,0.31395 0.976238,-0.55979 0.177049,-0.94376 -0.0084,-1.75531 -0.401063,-1.75531 -0.12995,0 -0.236276,-0.16609 -0.236276,-0.36908 0,-0.23419 -0.367683,-0.40415 -1.006006,-0.46503 l -1.006007,-0.0959 0.233778,1.5446 c 0.204817,1.35322 0.173747,1.59009 -0.250761,1.91182 -0.678196,0.51398 -0.944584,0.4707 -0.756195,-0.12285 0.08849,-0.2788 0.06224,-0.56787 -0.05833,-0.64239 -0.120571,-0.0745 -0.24461,0.17132 -0.275643,0.5463 -0.03103,0.37497 -0.186034,0.83794 -0.344443,1.02881 -0.222477,0.26807 -0.08694,0.43482 0.595609,0.73278 1.095574,0.47825 1.064424,0.47494 1.545085,0.16431 z m 13.4717017,0.18972 c -0.06064,-0.0412 -0.321329,-0.23661 -0.579321,-0.4343 -0.408379,-0.31292 -0.447514,-0.30323 -0.302422,0.0749 0.09166,0.23886 0.352354,0.4343 0.579321,0.4343 0.226965,0 0.363054,-0.0337 0.302422,-0.0749 z m 2.53558903,-0.18972 c 0.08994,-0.14552 0.04078,-0.26458 -0.109233,-0.26458 -0.150014,0 0.02156,-0.55351 0.381259,-1.23003 0.621594,-1.16906 0.881671,-2.73458 0.455578,-2.74233 -0.109141,-0.002 -0.466328,-0.0754 -0.79375,-0.16315 -0.458586,-0.1229 -0.599424,-0.0461 -0.613219,0.33434 -0.0164,0.45216 -0.04022,0.44793 -0.28208103,-0.05 -0.335732,-0.69125 -1.45488,-1.10573 -2.478137,-0.91779 l -0.79375,0.14579 0.608401,0.42745 c 0.463468,0.32562 0.568955,0.58462 0.442809,1.08722 -0.138496,0.55181 -0.05405,0.68776 0.516078,0.83086 0.571143,0.14334 0.68167,0.32223 0.68167,1.10325 0,0.51269 0.148828,1.10121 0.330729,1.30781 0.383702,0.43581 1.41482203,0.51762 1.65364603,0.13119 z m -2.59013603,-3.96848 c -0.07607,-0.2909 -0.03043,-0.59558 0.101433,-0.67708 0.131861,-0.0815 0.239745,0.15652 0.239745,0.52891 0,0.81069 -0.150797,0.87618 -0.341178,0.14817 z m 10.741033,3.42003 c -0.354137,-0.60237 -0.501142,-0.70003 -0.567375,-0.37689 -0.04916,0.23987 0.129428,0.60195 0.396875,0.80461 0.690739,0.52343 0.706482,0.48397 0.1705,-0.42772 z M -66.33666,159.45972 c -0.254662,-0.14369 -0.47139,-0.4637 -0.481619,-0.71113 -0.01516,-0.36669 -0.05823,-0.35203 -0.232976,0.0793 -0.271383,0.66988 0.452649,1.62635 0.893551,1.1804 0.202859,-0.20517 0.151699,-0.36199 -0.178956,-0.54856 z m 39.320159,0.4265 c -0.124862,-0.32538 0.131384,-0.39688 1.422503,-0.39688 1.251521,0 1.675553,-0.11133 2.065599,-0.54232 0.632757,-0.69919 0.657736,-2.3267 0.04101,-2.67184 -0.247385,-0.13844 -0.449792,-0.42439 -0.449792,-0.63544 0,-0.21105 -0.119062,-0.38373 -0.264583,-0.38373 -0.145521,0 -0.266406,0.14883 -0.268634,0.33073 -0.0029,0.23357 -0.07353,0.22097 -0.240572,-0.0429 -0.199628,-0.31536 -0.306113,-0.30405 -0.682649,0.0725 -0.366049,0.36605 -0.413152,0.73026 -0.262414,2.02903 0.151842,1.30828 0.118623,1.55792 -0.191466,1.43892 -0.245692,-0.0943 -0.356547,-0.48298 -0.321188,-1.12622 0.0297,-0.54024 -0.04776,-1.16084 -0.172122,-1.37912 -0.156342,-0.27442 -0.228597,-0.0932 -0.234159,0.58726 -0.0044,0.54128 -0.246171,1.4081 -0.537212,1.92628 -0.632638,1.12636 -0.640226,1.19062 -0.140595,1.19062 0.236694,0 0.329044,-0.15512 0.236276,-0.39687 z m -27.897306,-1.87663 c -0.276066,-0.33265 -0.277342,-0.45291 -0.0066,-0.62026 0.255485,-0.1579 0.230394,-0.24808 -0.104798,-0.37671 -1.162331,-0.44603 -1.711283,0.0982 -1.098757,1.08928 0.133432,0.2159 0.06882,0.27284 -0.194797,0.17168 -0.216945,-0.0833 -0.470715,-0.4986 -0.56393,-0.92301 -0.256921,-1.16976 -0.801634,-0.94986 -0.853249,0.34446 -0.04874,1.22224 0.208653,1.51948 1.321125,1.52568 0.513302,0.003 0.728917,0.14042 0.732062,0.46707 0.003,0.3162 0.179959,0.18896 0.557925,-0.40126 0.460946,-0.7198 0.496218,-0.93326 0.210992,-1.27693 z m 7.285974,1.74831 c 0.377002,-0.14334 0.760039,-0.47076 0.851191,-0.72761 0.09115,-0.25684 0.340426,-0.67065 0.553947,-0.91957 0.351245,-0.40948 0.36176,-1.12673 0.03386,-2.30983 -0.0581,-0.20964 0.08733,-0.42376 0.323172,-0.47583 0.258567,-0.0571 0.48508,0.1205 0.570543,0.4473 0.14288,0.54638 0.720436,0.76876 0.720436,0.2774 0,-0.14552 -0.124283,-0.26458 -0.276182,-0.26458 -0.1519,0 -0.241197,-0.20836 -0.198438,-0.46302 0.05038,-0.30007 -0.08521,-0.45527 -0.385276,-0.44098 -1.579938,0.0752 -1.785937,0.137 -1.785937,0.53543 0,0.2829 -0.143161,0.37025 -0.427807,0.26102 -0.375158,-0.14397 -0.406287,0.0235 -0.252934,1.36075 0.123814,1.07968 0.0954,1.40904 -0.09731,1.12805 -0.149698,-0.21828 -0.274005,-0.81955 -0.276233,-1.33615 -0.0036,-0.84113 -0.373178,-1.57427 -0.793541,-1.57427 -0.325969,0 -0.117768,1.61793 0.2364,1.83705 0.308957,0.19115 0.316148,0.36787 0.04192,1.02992 -0.182065,0.43954 -0.51213,0.86867 -0.733478,0.95361 -0.324633,0.12457 -0.339265,0.23056 -0.07567,0.54818 0.379709,0.45752 1.006742,0.49986 1.971334,0.13313 z m 5.018627,-0.15516 c 0.228677,-0.22868 0.415774,-0.59289 0.415774,-0.80937 0,-0.22141 0.128688,-0.31406 0.294164,-0.21179 0.161793,0.1 0.398092,0.0177 0.525116,-0.18282 0.317521,-0.50131 0.299024,-1.81983 -0.02553,-1.81983 -0.145521,0 -0.264583,-0.29766 -0.264583,-0.66146 0,-0.56904 0.120142,-0.66203 0.859896,-0.66551 0.65252,-0.003 0.764185,-0.0659 0.46302,-0.26053 -0.218281,-0.14107 -0.932656,-0.25648 -1.5875,-0.25648 -1.221401,0 -2.538489,0.48684 -1.455208,0.5379 0.418005,0.0197 0.37632,0.0808 -0.198437,0.29068 -0.56201,0.20526 -0.727604,0.43782 -0.727604,1.02183 0,0.41585 0.131794,0.83754 0.292875,0.93709 0.202755,0.12531 0.238696,-0.0657 0.116803,-0.62065 -0.200179,-0.9114 0.01738,-1.14471 0.780946,-0.83753 0.493525,0.19854 0.49565,0.21413 0.03153,0.23148 -0.421314,0.0157 -0.474009,0.16421 -0.343569,0.96801 0.123396,0.76041 0.07761,0.92009 -0.229965,0.80206 -0.287875,-0.11047 -0.384035,0.0714 -0.384035,0.72627 0,1.29452 0.608822,1.63813 1.436309,0.81065 z m 34.2317267,0.13134 c -0.05214,-0.15643 -0.207918,-0.28442 -0.346162,-0.28442 -0.138245,0 -0.294019,0.12799 -0.346163,0.28442 -0.05215,0.15644 0.103627,0.28443 0.346163,0.28443 0.242535,0 0.398309,-0.12799 0.346162,-0.28443 z m 2.614168,-0.23512 c 1.148101,-0.5547 1.418595,-1.14663 1.201115,-2.62842 -0.07513,-0.51192 -0.2834,-0.83486 -0.553455,-0.85819 -1.046149,-0.0904 -1.667658,0.0437 -2.07061,0.44661 -0.365985,0.36598 -0.375058,0.46811 -0.05894,0.66346 0.425243,0.26277 0.535604,1.61768 0.1529,1.8772 -0.220763,0.14971 -0.08194,1.01889 0.16274,1.01889 0.04999,0 0.574804,-0.2338 1.166246,-0.51955 z m 17.0262413,-0.015 c 0.860981,-0.43922 1.047803,-0.67289 1.047803,-1.31046 0,-0.42676 -0.134012,-1.07003 -0.297789,-1.42948 -0.34618,-0.75978 -1.523259,-1.1679 -1.855866,-0.64346 -0.1676673,0.26436 -0.2204513,0.26798 -0.2235473,0.0154 -0.0026,-0.18191 -0.236908,-0.33073 -0.521494,-0.33073 -0.473313,0 -0.509931,0.16059 -0.429445,1.88249 0.115385,2.46751 0.46228,2.74381 2.2803383,1.8163 z m -98.854041,0.10937 c 0.65541,-0.25151 0.49001,-0.57344 -0.22446,-0.43686 -0.48034,0.0918 -0.88408,-0.11821 -1.59631,-0.83044 -0.52435,-0.52435 -1.00892,-0.95335 -1.07683,-0.95335 -0.0679,0 -0.12347,0.47251 -0.12347,1.05003 0,0.80414 0.089,1.01586 0.38017,0.90414 0.2224,-0.0853 0.31462,-0.32894 0.22222,-0.58701 -0.12377,-0.34565 -0.0199,-0.31957 0.47972,0.12051 0.35073,0.3089 0.81628,0.62693 1.03456,0.70672 0.21828,0.0798 0.4169,0.15448 0.44138,0.16597 0.0245,0.0115 0.23284,-0.0514 0.46302,-0.13971 z m 65.770595,-0.66555 c 0,-0.46917 -0.0653,-0.50737 -0.396875,-0.23219 -0.218281,0.18116 -0.396875,0.43386 -0.396875,0.56157 0,0.1277 0.178594,0.23218 0.396875,0.23218 0.228119,0 0.396875,-0.23878 0.396875,-0.56156 z m 2.447396,0.008 c 0.636593,-0.66356 0.600945,-2.21892 -0.06615,-2.88601 -0.625036,-0.62503 -0.65917,-0.79375 -0.160599,-0.79375 0.202713,0 0.437099,-0.17859 0.520864,-0.39688 0.244305,-0.63665 -0.27767,-0.45977 -1.144892,0.38796 -0.566783,0.55405 -0.802873,1.03642 -0.802873,1.64042 0,1.12319 -0.462984,0.66284 -0.576448,-0.57317 -0.06828,-0.74377 -0.208938,-0.94357 -0.714645,-1.01508 l -0.629636,-0.0891 0.550211,0.7727 c 0.335545,0.47123 0.492707,0.99261 0.40282,1.33634 -0.163404,0.62485 0.391774,1.34783 0.903915,1.17712 0.483084,-0.16103 0.399531,0.22063 -0.134654,0.61508 -0.408911,0.30195 -0.354801,0.33987 0.46302,0.32443 0.531556,-0.01 1.123286,-0.22307 1.389063,-0.50011 z m 25.4299067,0.0177 c 0.125588,-0.11651 0.288153,-0.74246 0.361252,-1.39099 0.154112,-1.36729 -0.09141,-1.62114 -1.581785,-1.63546 -0.772184,-0.007 -0.992188,0.0931 -0.992188,0.45349 0,0.25466 -0.119062,0.46302 -0.264583,0.46302 -0.145521,0 -0.264583,-0.19523 -0.264583,-0.43385 0,-0.39563 -0.693849,-1.12488 -1.089642,-1.14524 -0.296934,-0.0153 -0.466521,2.2016 -0.2057,2.68895 0.325763,0.60869 0.763754,0.61696 0.774221,0.0146 0.0073,-0.42239 0.03327,-0.4196 0.295495,0.0317 0.232098,0.39949 0.331666,0.42497 0.51707,0.13229 0.192349,-0.30364 0.230277,-0.30165 0.233672,0.0122 0.01082,1.00013 1.446172,1.5241 2.216771,0.80922 z m -50.6314687,-1.2163 c 0,-0.4915 -0.119062,-0.89364 -0.264583,-0.89364 -0.145521,0 -0.264583,0.16371 -0.264583,0.3638 0,0.20009 -0.07961,0.76564 -0.176914,1.25677 -0.160764,0.81145 -0.13661,0.85982 0.264583,0.52985 0.253458,-0.20847 0.441497,-0.74375 0.441497,-1.25678 z m -42.897189,0.86795 c 0.38783,-0.46731 0.11837,-0.70326 -0.80316,-0.70326 -0.84481,0 -0.98132,0.36794 -0.28663,0.77256 0.61448,0.3579 0.74197,0.34979 1.08979,-0.0693 z m 96.2713707,-0.0694 c -0.08792,-0.0879 -0.316124,-0.0973 -0.507126,-0.0209 -0.211066,0.0845 -0.148373,0.14716 0.159861,0.15985 0.278897,0.0115 0.435187,-0.051 0.347265,-0.13896 z m -16.067933,-0.47683 c 0,-0.25294 -0.186113,-0.32344 -0.581144,-0.22014 -0.554691,0.14506 -0.557702,0.16115 -0.06615,0.35351 0.28325,0.11085 0.544764,0.20991 0.581144,0.22013 0.03638,0.0102 0.06615,-0.14885 0.06615,-0.3535 z m -32.2791657,-0.68623 c 0,-0.43657 -0.119062,-0.79375 -0.264583,-0.79375 -0.294293,0 -0.365175,1.13413 -0.08819,1.41111 0.298919,0.29892 0.352777,0.20466 0.352777,-0.61736 z m 22.408353,-0.45799 c -0.06708,-0.25743 -0.126381,-0.11087 -0.131773,0.32569 -0.0054,0.43657 0.04949,0.64719 0.12197,0.46806 0.07248,-0.17913 0.07689,-0.53632 0.0098,-0.79375 z m 4.461648,-0.74684 c -0.131379,-0.7003 -0.301742,-0.91184 -0.734362,-0.91184 h -0.563298 l 0.577707,0.61494 c 0.317741,0.33822 0.502378,0.69027 0.410311,0.78234 -0.09207,0.0921 -0.0793,0.38089 0.02838,0.64183 0.297103,0.71996 0.485868,-0.0366 0.281258,-1.12727 z m 0.747619,1.05879 c 0.09035,-0.23546 0.046,-0.34166 -0.103983,-0.24897 -0.143854,0.0889 -0.261554,0.27369 -0.261554,0.41062 0,0.38059 0.189645,0.29672 0.365537,-0.16165 z m -23.361887,-1.26031 c -0.342656,-0.34266 -0.397721,0.29556 -0.09093,1.05398 0.172614,0.42673 0.206917,0.40986 0.286982,-0.14117 0.05002,-0.34421 -0.0382,-0.75497 -0.196048,-0.91281 z m 43.8984317,0.49813 c 0,-0.41904 -0.191611,-0.70444 -0.549105,-0.8179 -0.302009,-0.0959 -0.594942,-0.12845 -0.650965,-0.0724 -0.238752,0.23875 0.232563,1.25073 0.631912,1.3568 0.239726,0.0637 0.465632,0.12958 0.502012,0.14646 0.03638,0.0169 0.06615,-0.25894 0.06615,-0.61294 z m -39.4229147,-0.28241 c 0,-0.3638 -0.0498,-0.66146 -0.110651,-0.66146 -0.06086,0 -0.307917,-0.0757 -0.549016,-0.16821 -0.32589,-0.12506 -0.416298,-0.0402 -0.352369,0.33073 0.193963,1.12539 1.012036,1.52871 1.012036,0.49894 z m 22.6703217,0.0827 c -0.08446,-0.21106 -0.147156,-0.14837 -0.159851,0.15986 -0.01148,0.27891 0.05105,0.43518 0.138965,0.34726 0.08792,-0.0879 0.09732,-0.31612 0.02088,-0.50712 z m 9.608844,-0.74414 c 0,-0.14552 -0.231098,-0.26458 -0.51355097,-0.26458 -0.282454,0 -0.587137,0.11906 -0.677074,0.26458 -0.09274,0.15006 0.129545,0.26459 0.513551,0.26459 0.37238997,0 0.67707397,-0.11907 0.67707397,-0.26459 z m 4.894791,-0.26458 c 0.08994,-0.14552 0.03743,-0.26458 -0.116676,-0.26458 -0.154109,0 -0.280199,0.11906 -0.280199,0.26458 0,0.14552 0.0525,0.26458 0.116676,0.26458 0.06417,0 0.190262,-0.11906 0.280199,-0.26458 z m 11.6416663,0 c 0.08993,-0.14552 0.03744,-0.26458 -0.116681,-0.26458 -0.154093,0 -0.280194,0.11906 -0.280194,0.26458 0,0.14552 0.05249,0.26458 0.116682,0.26458 0.06416,0 0.190261,-0.11906 0.280193,-0.26458 z m -67.672696,-0.15985 c -0.08792,-0.0879 -0.316124,-0.0973 -0.507119,-0.0209 -0.211066,0.0845 -0.148373,0.14716 0.159853,0.15985 0.278913,0.0115 0.435184,-0.051 0.347266,-0.13896 z m 71.172922,0 c -0.08792,-0.0879 -0.316124,-0.0973 -0.507127,-0.0209 -0.211058,0.0845 -0.148378,0.14716 0.159861,0.15985 0.278898,0.0115 0.435187,-0.051 0.347266,-0.13896 z M -17.394257,154.567 c -0.08792,-0.0879 -0.316124,-0.0973 -0.507118,-0.0209 -0.211067,0.0845 -0.148373,0.14716 0.159853,0.15985 0.278913,0.0115 0.435184,-0.051 0.347265,-0.13896 z m -101.528333,17.20986 c 0,-0.22687 0.11906,-0.3389 0.26458,-0.24897 0.14552,0.0899 0.26458,0.27556 0.26458,0.41249 0,0.13694 -0.11906,0.24897 -0.26458,0.24897 -0.14552,0 -0.26458,-0.18562 -0.26458,-0.41249 z m 109.2208737,-1.62774 -0.7134937,-0.10886 -0.08026,-3.53463 -0.08026,-3.53463 1.0313197,-0.0979 c 1.810604,-0.17188 2.072071,0.27784 2.032841,3.49647 -0.03391,2.78248 -0.396936,4.02027 -1.15203,3.92806 -0.178546,-0.0218 -0.645703,-0.0886 -1.038122,-0.14851 z m 20.8776513,-0.80404 c -0.218705,-0.5457 -0.320887,-1.11125 -0.227065,-1.25677 0.09382,-0.14552 0.210581,0.0331 0.25945,0.39688 0.164227,1.2222 0.572373,1.21311 0.594122,-0.0132 0.02461,-1.38707 0.151633,-1.14672 0.321601,0.60854 0.151659,1.56631 -0.368247,1.7114 -0.948108,0.26458 z m 1.472909,-0.0755 c 0.07877,-0.58724 0.02736,-1.48731 -0.114247,-2.00014 -0.361077,-1.30775 -0.129884,-1.72667 0.394943,-0.71559 0.656167,1.2641 0.554408,3.78345 -0.152797,3.78345 -0.163962,0 -0.214497,-0.42198 -0.127899,-1.06772 z m -94.926645,0.49774 c -1.1599,-0.42069 -2.74532,-2.04798 -3.04451,-3.12493 -1.02615,-3.69371 1.12496,-7.02044 4.50653,-6.96942 4.13121,0.0623 6.17356,4.92417 3.54725,8.44428 -1.0778,1.4446 -3.43496,2.22105 -5.00927,1.65007 z m 2.4873,-5.05242 c 0.29753,-0.80042 0.096,-1.22917 -0.66784,-1.42089 -0.78657,-0.19741 -1.42259,0.29461 -1.42259,1.10051 0,1.04306 1.7236,1.30722 2.09043,0.32038 z m -0.0945,-2.6857 c 0.3107,-0.3107 0.31281,-0.41856 0.0131,-0.66733 -0.2815,-0.23362 -0.38466,-0.15481 -0.4851,0.3706 -0.14564,0.76185 -0.052,0.82073 0.47203,0.29673 z m 89.7148977,7.63641 c -0.255296,-0.66534 -0.179996,-0.83702 0.131922,-0.30065 0.1544373,0.26557 0.2250543,0.5386 0.1569243,0.60672 -0.06813,0.0681 -0.1980943,-0.0696 -0.2888463,-0.30607 z m 3.8037823,0.19432 c 0,-0.13837 0.178594,-0.39981 0.396875,-0.58096 0.218282,-0.18116 0.384996,-0.58269 0.370496,-0.8923 -0.02355,-0.50018 -0.04786,-0.4892 -0.219313,0.0986 -0.173778,0.59578 -0.207142,0.55637 -0.335915,-0.39688 -0.157612,-1.16663 0.176451,-1.83387 0.594969,-1.18841 0.743638,1.14685 0.541628,2.95184 -0.349568,3.12347 -0.251645,0.0485 -0.457544,-0.0251 -0.457544,-0.16347 z m -250.560409,-0.44867 c 0,-0.21828 0.11907,-0.39688 0.26459,-0.39688 0.14552,0 0.26458,0.1786 0.26458,0.39688 0,0.21828 -0.11906,0.39687 -0.26458,0.39687 -0.14552,0 -0.26459,-0.17859 -0.26459,-0.39687 z m 0.81464,-0.0221 c 0.0127,-0.30822 0.0754,-0.37092 0.15985,-0.15985 0.0764,0.19099 0.067,0.4192 -0.0209,0.50712 -0.0879,0.0879 -0.15045,-0.0684 -0.13896,-0.34727 z m -0.68235,-1.69774 c 0.0899,-0.14552 0.21603,-0.26459 0.2802,-0.26459 0.0642,0 0.11668,0.11907 0.11668,0.26459 0,0.14552 -0.12609,0.26458 -0.2802,0.26458 -0.15411,0 -0.20661,-0.11906 -0.11668,-0.26458 z m 116.47078,-0.0878 c -0.30874,-0.80275 -0.21093,-1.49971 0.21047,-1.49971 0.21828,0 0.39688,-0.13891 0.39688,-0.30868 0,-0.16978 0.0581,-0.25056 0.12916,-0.17952 0.071,0.071 -0.0237,0.65643 -0.21047,1.30087 -0.26311,0.90769 -0.38164,1.0625 -0.52604,0.68704 z m 11.50684,-0.30909 c 0.005,-0.43656 0.0647,-0.58312 0.13178,-0.32569 0.0671,0.25743 0.0627,0.61462 -0.01,0.79375 -0.0725,0.17913 -0.12735,-0.0315 -0.12196,-0.46806 z m 2.39105,-1.45521 c 0,-0.50932 0.0545,-0.71768 0.12101,-0.46302 0.0665,0.25466 0.0665,0.67138 0,0.92604 -0.0666,0.25467 -0.12101,0.0463 -0.12101,-0.46302 z m 114.9299987,0.48076 c 0.07641,-0.12364 0.249767,-0.15631 0.385233,-0.0726 0.346181,0.21395 0.307208,0.29738 -0.138932,0.29738 -0.211879,0 -0.322713,-0.10116 -0.246301,-0.2248 z m 0.896117,0.15697 c 0,-0.28941 1.1872923,-1.14929 1.5875003,-1.14973 0.259239,-2.9e-4 0.139436,0.22604 -0.345493,0.65266 -0.7062783,0.62136 -1.2420073,0.83577 -1.2420073,0.49707 z m 3.8364583,-0.10856 c -0.08993,-0.14552 -0.03744,-0.26458 0.116682,-0.26458 0.154093,0 0.280193,0.11906 0.280193,0.26458 0,0.14552 -0.05249,0.26458 -0.116681,0.26458 -0.06416,0 -0.190262,-0.11906 -0.280194,-0.26458 z m -120.985484,-0.79371 c 0,-0.50932 0.0545,-0.71768 0.121,-0.46302 0.0665,0.25466 0.0665,0.67138 0,0.92604 -0.0666,0.25466 -0.121,0.0463 -0.121,-0.46302 z m -0.77585,-0.79375 c 0,-0.80037 0.0496,-1.12779 0.11022,-0.7276 0.0606,0.40018 0.0606,1.05502 0,1.4552 -0.0606,0.40019 -0.11022,0.0728 -0.11022,-0.7276 z m -1.66679,0.66146 c 0,-0.21828 0.11907,-0.39688 0.26459,-0.39688 0.14552,0 0.26458,0.1786 0.26458,0.39688 0,0.21828 -0.11906,0.39687 -0.26458,0.39687 -0.14552,0 -0.26459,-0.17859 -0.26459,-0.39687 z m -2.38125,-0.0843 c 0,-0.31977 0.50197,-0.69257 0.68546,-0.50909 0.0666,0.0666 -0.0604,0.27169 -0.28219,0.45577 -0.25145,0.20869 -0.40327,0.22876 -0.40327,0.0533 z m -6.87916,-0.41249 c 0,-0.0549 0.18132,-0.25038 0.40293,-0.4343 0.33691,-0.27961 0.37562,-0.26324 0.23628,0.0999 -0.14232,0.37088 -0.63921,0.63083 -0.63921,0.33441 z m -123.1018,-0.46211 c 0.17947,-0.18082 0.39297,-0.26211 0.47443,-0.18065 0.0815,0.0815 -0.0654,0.22941 -0.32632,0.32877 -0.37708,0.14358 -0.40748,0.11319 -0.14811,-0.14812 z m 132.93316,-1.0255 c 0,-0.3638 0.06,-0.51263 0.13345,-0.33073 0.0734,0.1819 0.0734,0.47956 0,0.66146 -0.0734,0.1819 -0.13345,0.0331 -0.13345,-0.33073 z m -54.92245,-2.89456 c -0.42537,-0.28041 -0.89106,-0.72009 -1.03487,-0.97708 -0.2073,-0.37042 -0.10818,-0.34665 0.47833,0.1147 1.00483,0.7904 2.5296,0.77636 3.46931,-0.0319 0.56118,-0.48272 0.71981,-0.86236 0.74236,-1.77675 l 0.0287,-1.16286 -1.17393,-0.20227 c -1.3613,-0.23456 -1.64128,-0.1003 -0.92342,0.44279 0.46296,0.35025 0.46727,0.3865 0.0468,0.39414 -0.25466,0.005 -0.47489,0.21678 -0.4894,0.47144 -0.0176,0.30868 -0.097,0.24253 -0.23821,-0.19844 -0.19621,-0.61267 -0.21515,-0.59316 -0.2568,0.26458 -0.0373,0.7683 -0.0837,0.83591 -0.27236,0.39688 -0.12507,-0.29104 -0.23576,-0.96715 -0.24599,-1.50246 -0.0102,-0.53531 -0.20604,-1.16073 -0.43513,-1.38982 -0.32845,-0.32845 -0.34243,-0.44007 -0.0661,-0.52783 0.73049,-0.23202 10.78921,-0.34604 10.64995,-0.12072 -0.0794,0.12845 -1.11957,0.23425 -2.31153,0.23512 -2.91806,0.002 -6.53282,0.2969 -6.53282,0.53271 0,0.23165 2.46716,0.61305 3.57187,0.55219 0.43657,-0.024 1.18447,0.0716 1.66201,0.21257 0.64458,0.19028 1.55759,0.12267 3.54419,-0.26243 1.47176,-0.2853 2.738,-0.45666 2.81386,-0.3808 0.0759,0.0759 -0.0744,0.13793 -0.3339,0.13793 -0.34157,0 -0.43363,0.14609 -0.33345,0.52916 0.0899,0.34393 0.008,0.52917 -0.23373,0.52917 -0.20465,0 -0.3815,0.20836 -0.39299,0.46302 -0.0131,0.29171 -0.11921,0.19382 -0.28663,-0.26458 -0.2998,-0.82085 -0.61583,-0.93184 -0.8578,-0.30127 -0.11706,0.30506 -0.0499,0.38268 0.23628,0.27288 0.50594,-0.19415 0.51927,0.27751 0.0219,0.77489 -0.52691,0.52691 -0.63314,0.47944 -0.72893,-0.32574 -0.0707,-0.59434 -0.21738,-0.70743 -0.94364,-0.7276 -0.47295,-0.0131 -0.8599,0.0819 -0.85989,0.21129 1e-5,0.12935 -0.74413,0.17307 -1.65363,0.0971 -0.90951,-0.0759 -1.50482,-0.0825 -1.32292,-0.0147 0.1819,0.0678 0.33073,0.24523 0.33073,0.39419 0,0.14896 -0.17859,0.20231 -0.39687,0.11855 -0.26996,-0.10359 -0.39688,0.0143 -0.39688,0.36857 -1e-5,0.28647 -0.092,0.52086 -0.20442,0.52086 -0.11243,0 -0.4385,0.43467 -0.7246,0.96592 -0.50765,0.94264 -1.69723,1.68188 -2.70051,1.67817 -0.25934,-9.5e-4 -0.81954,-0.23117 -1.2449,-0.51157 z m -44.33808,0.0162 c 0,-0.12787 0.35719,-0.38044 0.79375,-0.56127 0.78916,-0.32688 0.90137,-0.58713 0.79858,-1.85208 -0.0661,-0.81395 -0.77537,-1.65302 -1.2449,-1.47285 -0.19109,0.0733 -0.34743,0.0104 -0.34743,-0.13972 0,-0.15017 0.37373,-0.23573 0.8305,-0.19013 0.63285,0.0632 0.94516,0.29761 1.31236,0.98514 0.26503,0.49623 0.4003,1.03201 0.30059,1.19063 -0.0997,0.15861 -0.14903,0.48475 -0.10962,0.72476 0.0394,0.24001 -0.27959,0.68649 -0.70891,0.99219 -0.80246,0.5714 -1.62492,0.73506 -1.62492,0.32333 z m 12.66317,-0.27391 c -0.74498,-0.60397 -0.52053,-1.00277 0.28373,-0.50413 0.36441,0.22593 0.63015,0.25573 0.75336,0.0845 0.25322,-0.35194 0.85183,-0.4604 0.85183,-0.15434 0,0.13339 -0.14883,0.30259 -0.33073,0.37598 -0.22593,0.0912 -0.20497,0.13976 0.0661,0.15336 0.64121,0.0322 2.05426,-0.95216 2.24936,-1.56688 0.22702,-0.71527 -0.30999,-2.04963 -0.88644,-2.20265 -0.24028,-0.0638 -0.0437,-0.12977 0.43679,-0.14665 0.74481,-0.0262 0.91446,0.0864 1.15036,0.76305 0.15218,0.43657 0.4664,0.79375 0.69826,0.79375 0.37301,0 0.37575,0.0381 0.0238,0.33073 -0.21878,0.1819 -0.53664,0.65815 -0.70636,1.05834 -0.27224,0.64192 -0.25125,0.7276 0.17823,0.7276 0.38387,0 0.45848,-0.14818 0.35284,-0.70078 -0.0925,-0.48373 -0.0401,-0.64279 0.16898,-0.51355 0.37008,0.22872 0.40165,1.38668 0.0438,1.60783 -0.14252,0.0881 -0.50177,0.0303 -0.79836,-0.12846 -0.41492,-0.22205 -0.67376,-0.19437 -1.12267,0.12006 -0.82269,0.57623 -2.64602,0.52401 -3.41294,-0.0977 z m 17.08923,0.26421 c -0.13825,-0.1332 -0.54901,-0.29558 -0.91281,-0.36084 -0.50272,-0.0902 -0.43323,-0.12731 0.28957,-0.1547 1.27508,-0.0483 2.35537,-0.98251 2.24737,-1.94346 -0.0703,-0.62561 -0.018,-0.68334 0.41104,-0.45371 0.27038,0.1447 0.4916,0.38388 0.4916,0.5315 0,0.55814 -0.79214,1.76772 -1.43237,2.18722 -0.77817,0.50987 -0.76835,0.50814 -1.0944,0.19399 z m 3.9664,-0.13959 c -0.48257,-0.35872 -0.46565,-0.3758 0.28016,-0.28282 0.43656,0.0544 0.91281,0.10899 1.05834,0.12124 0.14552,0.0123 0.086,0.1377 -0.1323,0.27877 -0.52387,0.33855 -0.6035,0.33081 -1.2062,-0.11719 z m 16.08902,-0.1445 c -0.47295,-0.28836 -0.8599,-0.60938 -0.8599,-0.71338 0,-0.10401 0.14287,-0.0462 0.3175,0.1284 0.34968,0.34968 2.27749,0.42585 2.7748,0.10963 0.55262,-0.35139 0.92518,-1.66357 0.58775,-2.07014 -0.41364,-0.49842 0.24651,-0.73502 1.09972,-0.39415 0.35431,0.14155 0.49536,0.26491 0.31346,0.27414 -0.1819,0.009 -0.33073,0.26081 -0.33073,0.55908 0,0.87743 -0.76709,2.10648 -1.48511,2.37947 -0.97026,0.3689 -1.4543,0.31422 -2.41749,-0.27305 z m 9.78958,0.0832 c -0.90083,-0.62838 -0.71301,-0.90206 0.32223,-0.46951 0.50465,0.21085 1.11187,0.38337 1.34937,0.38337 0.68356,0 2.231,-1.71005 2.231,-2.46544 0,-0.89009 -0.26498,-1.53429 -0.55689,-1.35388 -0.13027,0.0805 -0.23686,0.0203 -0.23686,-0.13381 0,-0.15411 0.29766,-0.2802 0.66146,-0.2802 0.47837,0 0.66146,0.14215 0.66146,0.51355 0,0.28246 0.13643,0.59787 0.30317,0.70092 0.21336,0.13187 0.25106,-0.0203 0.12725,-0.51355 -0.10409,-0.41471 -0.0658,-0.70092 0.0937,-0.70092 0.14829,0 0.27384,0.26789 0.279,0.59531 0.009,0.58781 0.0141,0.58697 0.38749,-0.0661 0.36422,-0.63713 0.37847,-0.61037 0.3875,0.7276 0.008,1.18732 -0.063,1.38906 -0.48893,1.38906 -0.28583,0 -0.5768,-0.25384 -0.6824,-0.59531 -0.17307,-0.55965 -0.19872,-0.54541 -0.42833,0.2377 -0.56708,1.9341 -2.96575,3.03887 -4.41023,2.03125 z m 5.28057,-0.1236 c -1.04711,-0.67049 -0.9739,-0.92791 0.10402,-0.36577 0.93251,0.4863 1.86922,0.50704 2.75135,0.0609 0.53984,-0.27304 0.66594,-0.53892 0.68587,-1.44622 0.0163,-0.74054 -0.13832,-1.28634 -0.46302,-1.63487 -0.61919,-0.66462 -0.61292,-0.80991 0.0349,-0.80991 0.60575,0 1.32972,1.22236 1.32972,2.24513 0,0.9648 -0.68853,1.89976 -1.64445,2.23299 -1.17992,0.41132 -1.81534,0.34724 -2.79842,-0.28225 z m -29.4238,0.0359 c 0,-0.15382 0.17859,-0.34821 0.39688,-0.43197 0.21828,-0.0838 0.39687,-0.30823 0.39687,-0.49882 0,-0.19058 0.13491,-0.39149 0.29981,-0.44645 0.34791,-0.11597 0.4211,-1.45074 0.11663,-2.12698 -0.14268,-0.3169 -0.0952,-0.4603 0.15057,-0.4544 0.37073,0.009 1.37876,1.84347 1.01291,1.84347 -0.11288,0 -0.32709,0.34955 -0.47602,0.77677 -0.26434,0.75828 -1.89765,1.91022 -1.89765,1.33838 z m 19.39548,-0.39457 -0.74236,-0.66066 1.0196,0.41108 c 2.0469,0.82528 3.35815,-0.13209 3.21855,-2.34991 -0.0676,-1.07403 -0.0102,-1.23776 0.43365,-1.23776 0.4431,0 0.49021,0.13277 0.35203,0.99219 -0.30403,1.89098 -0.38629,2.10333 -1.0858,2.80283 -0.92418,0.92419 -2.18592,0.94086 -3.19567,0.0422 z m 174.345658,0.39785 c -0.654579,-0.27412 -0.8382,-0.68075 -0.196135,-0.43437 0.488897,0.1876 1.489657,-0.17111 2.05523,-0.73667 0.383381,-0.38341 0.43516,-0.37154 0.596503,0.13676 0.09716,0.30614 0.07181,0.66146 -0.05633,0.7896 -0.374571,0.37457 -1.75334,0.51517 -2.399268,0.24468 z m -184.265748,-0.44709 c 0.191,-0.0764 0.4192,-0.067 0.50712,0.0209 0.0879,0.0879 -0.0684,0.15045 -0.34727,0.13896 -0.30822,-0.0127 -0.37092,-0.0754 -0.15985,-0.15985 z m -11.51999,-1.14218 c 0,-0.65484 0.0516,-0.92273 0.11466,-0.59531 0.0631,0.32742 0.0631,0.8632 0,1.19063 -0.0631,0.32742 -0.11466,0.0595 -0.11466,-0.59532 z m 10.49626,-0.66146 c -0.14397,-1.59252 -0.11082,-1.93381 0.1614,-1.66159 0.0805,0.0805 0.10943,0.8445 0.0642,1.69774 l -0.0821,1.55135 z m 152.24228,1.04858 c -0.470998,-0.35685 -0.469529,-0.37045 0.04043,-0.37465 0.291041,-0.002 0.687977,0.0963 0.882081,0.21935 0.287639,0.18233 0.280162,0.25163 -0.04043,0.37465 -0.216337,0.083 -0.613273,-0.0157 -0.882079,-0.21935 z m -125.51179,-1.24737 c -0.11616,-1.41565 0.0498,-1.96235 0.36137,-1.19027 0.0797,0.19758 0.14186,0.14432 0.15434,-0.13229 0.0115,-0.25466 0.19948,-0.46302 0.41776,-0.46302 0.48059,0 0.52677,0.43236 0.0661,0.61927 -0.24889,0.10099 -0.23252,0.20365 0.0662,0.41487 0.33,0.23338 0.29926,0.28136 -0.18247,0.28472 -0.47624,0.003 -0.59528,0.18062 -0.66889,0.99624 -0.0742,0.82246 -0.11091,0.73187 -0.21441,-0.52952 z m -42.9475,0.73643 c -0.082,-0.21362 -0.0352,-0.45877 0.10399,-0.54478 0.13916,-0.086 0.25303,0.0888 0.25303,0.3884 0,0.63886 -0.14714,0.70331 -0.35702,0.15638 z m 10.93744,0.0577 c -0.002,-0.1819 -0.078,-0.80698 -0.16974,-1.38907 -0.0918,-0.58208 -0.0738,-0.97219 0.04,-0.86691 0.23621,0.21863 0.48584,2.58671 0.27266,2.58671 -0.077,0 -0.14131,-0.14883 -0.14291,-0.33073 z m 36.99497,0.14999 c 0.19099,-0.0764 0.4192,-0.067 0.50712,0.0209 0.0879,0.0879 -0.0684,0.15046 -0.34727,0.13897 -0.30823,-0.0127 -0.37092,-0.0754 -0.15985,-0.15985 z m -47.35804,-1.16196 c -0.0565,-0.59296 -0.01,-1.13577 0.1045,-1.20624 0.11402,-0.0705 0.20731,0.41468 0.20731,1.07811 0,1.4976 -0.17438,1.56926 -0.31181,0.12813 z m 41.61319,-0.17866 c 0.0215,-1.02433 0.0656,-1.13443 0.23821,-0.59531 0.3062,0.95611 0.3062,1.85208 0,1.85208 -0.14552,0 -0.25272,-0.56554 -0.23821,-1.25677 z m -71.86075,0.19844 c -0.10046,-0.45737 -0.12312,-0.89112 -0.0504,-0.96388 0.0728,-0.0728 0.21449,0.24192 0.31494,0.6993 0.10046,0.45737 0.12312,0.89112 0.0504,0.96388 -0.0728,0.0728 -0.21448,-0.24193 -0.31494,-0.6993 z m 15.47812,-0.26458 c 0,-0.58209 0.047,-1.05834 0.1045,-1.05834 0.0575,0 0.14993,0.47625 0.20543,1.05834 0.0555,0.58208 0.008,1.05833 -0.1045,1.05833 -0.11298,0 -0.20543,-0.47625 -0.20543,-1.05833 z m 25.73665,0 c 0,-0.65485 0.0516,-0.92274 0.11466,-0.59532 0.0631,0.32743 0.0631,0.86321 0,1.19063 -0.0631,0.32742 -0.11466,0.0595 -0.11466,-0.59531 z m -12.20112,0.26458 c 0,-0.3638 0.06,-0.51263 0.13345,-0.33073 0.0734,0.1819 0.0734,0.47956 0,0.66146 -0.0734,0.1819 -0.13345,0.0331 -0.13345,-0.33073 z m 33.03519,0.0661 c 0.002,-0.2856 0.0785,-0.3515 0.19844,-0.17197 0.10691,0.16008 0.37298,0.35904 0.59126,0.44213 0.26519,0.10095 0.19935,0.15801 -0.19844,0.17197 -0.39995,0.014 -0.59398,-0.13106 -0.59126,-0.44213 z m -61.3358,-0.46303 c 0.005,-0.43656 0.0647,-0.58312 0.13177,-0.32569 0.0671,0.25743 0.0627,0.61462 -0.01,0.79375 -0.0725,0.17913 -0.12735,-0.0315 -0.12196,-0.46806 z m 13.44217,-0.26458 c 0,-0.3638 0.10255,-0.66146 0.22789,-0.66146 0.12534,0 0.17099,0.29766 0.10145,0.66146 -0.0696,0.3638 -0.1721,0.66146 -0.2279,0.66146 -0.0558,0 -0.10144,-0.29766 -0.10144,-0.66146 z m 13.88472,0.26458 c -0.12104,-0.29104 -0.34783,-0.61664 -0.50397,-0.72355 -0.15613,-0.10691 0.10308,-0.19621 0.57602,-0.19844 0.47294,-0.002 0.85989,0.11502 0.85989,0.26054 0,0.14552 -0.11033,0.26458 -0.24518,0.26458 -0.13485,0 -0.29502,0.20836 -0.35593,0.46302 -0.0993,0.41537 -0.1334,0.40856 -0.33083,-0.0662 z m 1.46111,-0.26458 c 0,-0.3638 0.0457,-0.66146 0.10145,-0.66146 0.0558,0 0.15835,0.29766 0.22789,0.66146 0.0696,0.3638 0.0239,0.66146 -0.10145,0.66146 -0.12534,0 -0.22789,-0.29766 -0.22789,-0.66146 z m 6.25834,0.0749 c -0.0755,-0.28877 -0.26438,-0.44651 -0.4197,-0.35052 -0.15531,0.096 -0.28239,0.0484 -0.28239,-0.10567 0,-0.15411 0.23813,-0.2802 0.52917,-0.2802 0.29104,0 0.52916,0.16987 0.52916,0.37748 0,0.20761 0.20836,0.42078 0.46302,0.47372 0.38556,0.0801 0.36724,0.12251 -0.10947,0.25324 -0.42545,0.11668 -0.60775,0.0222 -0.70979,-0.36805 z m 6.19797,0.40973 c -0.0115,-0.17 -0.0898,-0.48873 -0.17408,-0.7083 -0.11636,-0.30322 -0.0156,-0.36321 0.41924,-0.24951 0.31483,0.0823 0.46115,0.22247 0.32515,0.31142 -0.136,0.089 -0.31526,0.34033 -0.39835,0.55861 -0.0831,0.21828 -0.16048,0.25778 -0.17196,0.0878 z m -31.19995,-0.61695 c 0,-0.3638 0.0601,-0.51263 0.13345,-0.33073 0.0734,0.1819 0.0734,0.47956 0,0.66146 -0.0734,0.1819 -0.13345,0.0331 -0.13345,-0.33073 z m 12.12906,0 c -0.24008,-0.4486 -0.20122,-0.52917 0.25527,-0.52917 0.36209,0 0.53848,0.17334 0.53848,0.52917 0,0.29104 -0.11488,0.52917 -0.25528,0.52917 -0.1404,0 -0.38271,-0.23813 -0.53847,-0.52917 z m 1.10011,0 c 0,-0.3638 0.06,-0.51263 0.13345,-0.33073 0.0734,0.1819 0.0734,0.47956 0,0.66146 -0.0734,0.1819 -0.13345,0.0331 -0.13345,-0.33073 z m 0.79375,0 c 0,-0.3638 0.0601,-0.51263 0.13345,-0.33073 0.0734,0.1819 0.0734,0.47956 0,0.66146 -0.0734,0.1819 -0.13345,0.0331 -0.13345,-0.33073 z m 6.06453,0.11024 c 0.0127,-0.30822 0.0754,-0.37092 0.15985,-0.15985 0.0764,0.191 0.067,0.4192 -0.0209,0.50712 -0.0879,0.0879 -0.15045,-0.0683 -0.13896,-0.34727 z m 31.9055,0.24254 c -0.097,-0.097 -0.16885,-0.42444 -0.15962,-0.72761 0.0154,-0.50683 0.0372,-0.50019 0.27026,0.0825 0.25911,0.64776 0.20537,0.96111 -0.11064,0.6451 z m 39.24652,-0.0485 c 0,-0.46786 -1.38762,-1.92927 -2.0932,-2.20452 -1.23447,-0.48157 -3.47311,-1.01018 -4.27805,-1.01018 -0.43406,0 -1.48391,0.23404 -2.33301,0.52008 -1.76375,0.59416 -4.66187,0.77171 -5.11991,0.31366 -0.16752,-0.16751 -0.57842,-0.30457 -0.91312,-0.30457 -0.3347,0 -0.60854,-0.093 -0.60854,-0.20658 0,-0.27597 -1.52952,-0.90477 -2.48637,-1.02218 -0.42162,-0.0517 -0.92877,-0.22866 -1.12701,-0.39319 -0.20689,-0.1717 -0.80645,-0.23931 -1.40745,-0.15869 -0.57586,0.0772 -1.03687,0.063 -1.02447,-0.0317 0.11395,-0.86965 0.25385,-0.86404 -17.0396,-0.68405 -26.37615,0.27452 -52.27044,0.31066 -52.64422,0.0735 -0.18622,-0.11817 7.16235,-0.23392 16.33016,-0.2572 9.16781,-0.0233 17.56172,-0.0664 18.65313,-0.0959 6.66535,-0.17975 164.13405373,-0.7547 182.025094,-0.66462 3.124174,0.0157 5.733626,0.0819 5.798793,0.14708 0.112633,0.11263 -2.951876,0.18671 -12.140564,0.29349 -4.8385393,0.0562 -106.768774,0.37589 -120.308663,0.3773 l -9.31596,9.7e-4 -0.76009,1.12624 -0.76009,1.12625 0.81563,-0.0913 c 0.4486,-0.0502 1.55215,-0.21731 2.45234,-0.37132 3.15716,-0.54015 8.54771,0.94363 8.54915,2.35319 2.6e-4,0.36645 0.16166,0.59532 0.41953,0.59532 0.23041,0 0.36937,0.14882 0.3088,0.33073 -0.13388,0.4021 -0.99231,0.60811 -0.99231,0.23813 z m -12.36927,-3.99022 c 0.40018,-0.56585 0.72761,-1.09909 0.72761,-1.18498 0,-0.0859 -1.48455,-0.15616 -3.29899,-0.15616 -2.82373,0 -3.27705,0.0572 -3.1467,0.39687 0.0838,0.21828 0.32954,0.39688 0.54617,0.39688 0.21663,0 0.75332,0.25595 1.19266,0.56879 0.7432,0.5292 1.91948,0.93546 2.85477,0.98597 0.21828,0.0118 0.7243,-0.44153 1.12448,-1.00737 z m -64.07442,3.5316 c 0.0127,-0.30822 0.0754,-0.37092 0.15985,-0.15985 0.0764,0.19099 0.067,0.4192 -0.0209,0.50712 -0.0879,0.0879 -0.15045,-0.0684 -0.13896,-0.34727 z m 7.54897,0.003 c -0.11135,-0.29017 -0.0265,-0.39026 0.2805,-0.33073 0.24209,0.047 0.48972,0.23419 0.55029,0.41609 0.16197,0.48648 -0.6431,0.40376 -0.83079,-0.0854 z m 28.67806,-0.12869 c 0,-0.29963 0.11906,-0.4712 0.26458,-0.38126 0.14552,0.0899 0.26458,0.33509 0.26458,0.54478 0,0.2097 -0.11906,0.38126 -0.26458,0.38126 -0.14552,0 -0.26458,-0.24515 -0.26458,-0.54478 z m -42.33334,0.0156 c 0,-0.14552 0.11907,-0.26459 0.26459,-0.26459 0.14552,0 0.26458,0.11907 0.26458,0.26459 0,0.14552 -0.11906,0.26458 -0.26458,0.26458 -0.14552,0 -0.26459,-0.11906 -0.26459,-0.26458 z m 43.78854,-0.26459 c -0.0899,-0.14552 -0.0374,-0.26458 0.11668,-0.26458 0.15411,0 0.2802,0.11906 0.2802,0.26458 0,0.14552 -0.0525,0.26459 -0.11668,0.26459 -0.0642,0 -0.19026,-0.11907 -0.2802,-0.26459 z m 61.118749,0.11574 c -0.14552,-0.0589 -1.33614,-0.27595 -2.64583,-0.48236 -1.30969,-0.20641 -3.51234,-0.68497 -4.89479,-1.06347 l -2.51354,-0.68817 2.01261,0.14069 c 1.10694,0.0774 2.41584,0.25633 2.90867,0.39767 0.49283,0.14134 1.78981,0.27779 2.88218,0.30321 1.37136,0.0319 1.61759,0.078 0.79549,0.149 -1.95307,0.16858 -1.75215,0.50696 0.40953,0.68969 2.18311,0.18454 3.54664,-0.14885 2.10028,-0.51353 l -0.79001,-0.19919 0.66814,-0.1796 c 0.36747,-0.0988 1.31997,-0.14709 2.11666,-0.10736 0.79669,0.0397 2.57962,0.10328 3.96207,0.1412 1.46984,0.0403 1.99169,0.1101 1.25677,0.16805 -0.69122,0.0545 -1.25677,0.21163 -1.25677,0.34918 0,0.13755 -0.16586,0.25009 -0.36857,0.25009 -0.20271,0 -0.4371,0.17859 -0.52086,0.39687 -0.12306,0.3207 -0.69983,0.39287 -3.00487,0.37599 -1.56892,-0.0115 -2.97164,-0.0691 -3.11716,-0.12796 z m -21.076219,-0.6449 c 0.25666,-0.80583 2.67099,-2.12229 3.8596,-2.10453 0.718,0.0107 0.61602,0.10302 -0.87714,0.79375 -0.92927,0.42989 -1.83748,0.78161 -2.01825,0.78161 -0.18076,0 -0.51905,0.26789 -0.75177,0.59531 l -0.42312,0.59531 z m 28.688029,0.0812 c 0.25743,-0.0671 0.61462,-0.0627 0.79375,0.01 0.17913,0.0725 -0.0315,0.12736 -0.46806,0.12197 -0.43656,-0.005 -0.58312,-0.0647 -0.32569,-0.13178 z m -45.798789,-0.63617 c -0.43108,-0.69027 -0.20704,-0.9676 0.38369,-0.47495 0.24299,0.20263 0.75188,0.50759 1.13088,0.67767 l 0.68908,0.30924 -0.92854,0.0215 c -0.67139,0.0155 -1.02452,-0.1322 -1.27511,-0.53345 z m -33.16783,0.10961 c 0.19099,-0.0764 0.4192,-0.067 0.50712,0.0209 0.0879,0.0879 -0.0684,0.15045 -0.34727,0.13897 -0.30823,-0.0127 -0.37092,-0.0754 -0.15985,-0.15986 z m -53.92539,-0.34842 c 0,-0.14552 0.32742,-0.25622 0.7276,-0.24599 0.64475,0.0165 0.66735,0.0445 0.19844,0.24599 -0.72268,0.31054 -0.92604,0.31054 -0.92604,0 z m 2.02523,-0.0621 c -0.16799,-0.10691 8.95167,-0.19621 20.26591,-0.19844 11.31425,-0.002 20.57135,0.0853 20.57135,0.19439 -2e-5,0.2568 -40.4338,0.26081 -40.83726,0.004 z m 74.57164,-0.0518 -1.5875,-0.33785 3.175,0.0124 c 3.00402,0.0117 3.08148,0.0746 0.66146,0.53692 -0.3638,0.0695 -1.37583,-0.0257 -2.24896,-0.21149 z m 60.258849,0.19606 c 0.25466,-0.0666 0.67138,-0.0666 0.92604,0 0.25467,0.0665 0.0463,0.121 -0.46302,0.121 -0.50932,0 -0.71768,-0.0545 -0.46302,-0.121 z m -77.638669,-0.52753 c 0.191,-0.0764 0.4192,-0.067 0.50712,0.0209 0.0879,0.0879 -0.0683,0.15045 -0.34726,0.13897 -0.30823,-0.0127 -0.37092,-0.0754 -0.15986,-0.15986 z m 23.13954,-0.003 c 0.25743,-0.0671 0.61462,-0.0627 0.79375,0.01 0.17913,0.0725 -0.0315,0.12736 -0.46805,0.12197 -0.43657,-0.005 -0.58313,-0.0647 -0.3257,-0.13178 z m -13.9618,-0.3458 c -0.0899,-0.14552 -0.62572,-0.26459 -1.19063,-0.26459 -1.11685,0 -1.62943,-0.39622 -0.83768,-0.64751 0.27111,-0.0861 0.83839,0.0237 1.26062,0.2439 0.42223,0.2202 0.97605,0.40109 1.23071,0.40198 0.25466,9e-4 0.46302,0.1207 0.46302,0.26622 0,0.14552 -0.17157,0.26458 -0.38126,0.26458 -0.20969,0 -0.45485,-0.11906 -0.54478,-0.26458 z m 34.93514,-0.0922 c -0.27205,-0.19893 -0.40338,-0.49344 -0.29687,-0.66577 0.24754,-0.40052 0.58305,-0.18431 0.75918,0.48922 0.16536,0.63231 0.16249,0.63341 -0.46231,0.17655 z m 16.676669,0.12139 c -0.08,-0.12944 -0.53351,-0.30143 -1.0078,-0.38219 -0.47429,-0.0808 -1.45766,-0.26541 -2.18526,-0.41034 -0.72761,-0.14492 -2.15636,-0.28278 -3.175,-0.30635 -1.64629,-0.0381 -1.74919,-0.0692 -0.92605,-0.27982 1.17931,-0.30178 3.5341,-0.0816 6.15602,0.57569 1.14786,0.28774 3.28325,0.55666 4.8375,0.60921 1.53039,0.0517 2.85792,0.16947 2.95006,0.26162 0.0921,0.0921 -1.33356,0.16753 -3.16824,0.16753 -1.83467,0 -3.40123,-0.10591 -3.48123,-0.23535 z m -7.62483,-0.20446 c 0.1819,-0.0734 0.47955,-0.0734 0.66145,0 0.1819,0.0734 0.0331,0.13345 -0.33073,0.13345 -0.3638,0 -0.51263,-0.06 -0.33072,-0.13345 z m -40.993879,-0.2701 c 0.19099,-0.0764 0.4192,-0.067 0.50712,0.0209 0.0879,0.0879 -0.0684,0.15045 -0.34727,0.13897 -0.30823,-0.0127 -0.37092,-0.0754 -0.15985,-0.15986 z m 150.3990787,-0.009 c 0.4001823,-0.0606 1.0550263,-0.0606 1.4552083,0 0.400182,0.0606 0.07276,0.11023 -0.727604,0.11023 -0.8003653,0 -1.1277873,-0.0496 -0.7276043,-0.11023 z m 3.3103873,0.002 c 0.329115,-0.0633 0.805365,-0.0609 1.058333,0.005 0.252942,0.0662 -0.0164,0.11801 -0.598408,0.11507 -0.582083,-0.003 -0.789067,-0.0571 -0.459925,-0.1204 z m 3.04464,0.004 c 0.257439,-0.0671 0.614627,-0.0627 0.79375,0.01 0.179149,0.0725 -0.03149,0.12737 -0.468048,0.12197 -0.436563,-0.005 -0.583115,-0.0647 -0.325702,-0.13177 z m 2.243931,0.008 c 0.181901,-0.0734 0.479557,-0.0734 0.661458,0 0.181901,0.0734 0.03307,0.13345 -0.330729,0.13345 -0.363802,0 -0.51263,-0.0601 -0.330729,-0.13345 z"
       id="path4541" />
  </g>
</svg>
