<?xml version="1.0" encoding="UTF-8" standalone="no"?>
<!-- Created with Inkscape (http://www.inkscape.org/) -->

<svg
   width="134.37189mm"
   height="34.702881mm"
   viewBox="0 0 134.37187 34.702873"
   version="1.1"
   id="svg5"
   inkscape:version="1.1 (c4e8f9ed74, 2021-05-24)"
   sodipodi:docname="potatoesselectedforseed.svg"
   xmlns:inkscape="http://www.inkscape.org/namespaces/inkscape"
   xmlns:sodipodi="http://sodipodi.sourceforge.net/DTD/sodipodi-0.dtd"
   xmlns="http://www.w3.org/2000/svg"
   xmlns:svg="http://www.w3.org/2000/svg">
  <sodipodi:namedview
     id="namedview7"
     pagecolor="#ffffff"
     bordercolor="#666666"
     borderopacity="1.0"
     inkscape:pageshadow="2"
     inkscape:pageopacity="0.0"
     inkscape:pagecheckerboard="0"
     inkscape:document-units="mm"
     showgrid="false"
     inkscape:zoom="0.94615212"
     inkscape:cx="190.7727"
     inkscape:cy="124.18722"
     inkscape:window-width="2506"
     inkscape:window-height="1403"
     inkscape:window-x="1974"
     inkscape:window-y="0"
     inkscape:window-maximized="1"
     inkscape:current-layer="layer1" />
  <defs
     id="defs2" />
  <g
     inkscape:label="Layer 1"
     inkscape:groupmode="layer"
     id="layer1"
     transform="translate(136.35511,-147.48859)">
    <path
       style="fill:#000000;stroke-width:0.264583"
       d="m -23.962373,181.87286 c -2.692135,-0.0926 -28.528698,-0.17566 -57.41458,-0.18451 -28.885887,-0.009 -53.072927,-0.0247 -53.748977,-0.0351 l -1.22918,-0.019 0.0386,-17.07283 0.0386,-17.07283 49.212497,0.10334 c 27.06687,0.0568 49.331558,0.13343 49.477078,0.17023 0.145521,0.0368 6.634427,0.0347 14.419792,-0.005 7.785365,-0.0393 15.7369846,-0.0531 17.6702666,-0.0307 l 3.515058,0.0407 -0.07547,17.21216 -0.07548,17.21215 -8.4666666,-0.0753 c -4.656666,-0.0414 -10.669323,-0.15106 -13.361458,-0.2437 z m -109.061247,-1.08534 c 0.91525,-0.91524 -0.10268,-2.15931 -1.26001,-1.53993 -0.64524,0.34533 -0.69053,0.87451 -0.12338,1.44166 0.49715,0.49716 0.95218,0.52948 1.38339,0.0983 z m 129.5153956,-0.24185 c 0.431639,-0.68892 0.02683,-1.29273 -0.86668,-1.29273 -0.704297,0 -0.802052,0.0914 -0.802052,0.74965 0,0.41231 0.0844,0.83405 0.18755,0.93721 0.303879,0.30387 1.191905,0.0676 1.481182,-0.39413 z m -117.5562256,0.19079 c 0,-0.0572 -0.1786,-0.17252 -0.39688,-0.25629 -0.21828,-0.0838 -0.39687,-0.037 -0.39687,0.10399 0,0.14095 0.17859,0.25628 0.39687,0.25628 0.21828,0 0.39688,-0.0468 0.39688,-0.10398 z m 113.9964796,-1.01435 c 0.119477,-0.3308 0.243451,-4.97685 0.275494,-10.32454 0.03204,-5.34769 0.111572,-9.99113 0.176729,-10.31875 0.240064,-1.2071 -0.218887,-9.67944 -0.519449,-9.58912 -0.94471,0.2839 -16.2994626,0.36283 -26.3521766,0.13545 -6.475677,-0.14647 -22.132396,-0.3276 -34.792708,-0.40252 -12.660312,-0.0749 -26.590622,-0.19897 -30.956252,-0.27567 -4.365617,-0.0767 -12.819057,-0.11099 -18.785407,-0.0762 -5.96636,0.0348 -11.46678,0.0593 -12.22316,0.0545 l -1.37524,-0.009 -0.002,15.17833 c -9e-4,8.34807 0.07,15.36505 0.1576,15.59327 0.1406,0.36642 0.84329,0.39607 6.00708,0.2535 12.28908,-0.3393 87.177549,-0.26989 99.37805,0.0921 2.692136,0.0799 8.022077,0.17776 11.844314,0.21753 l 6.9495216,0.0723 z M -113.74874,179.07213 c -0.0401,-0.0401 -0.95839,-0.12659 -2.04066,-0.19221 -2.79156,-0.16924 -3.6821,-0.39167 -3.49721,-0.87348 0.18822,-0.49048 -0.36468,-0.86079 -1.29318,-0.86612 -1.06381,-0.006 -1.67536,-0.28649 -1.23445,-0.56598 0.25312,-0.16046 0.18458,-0.22486 -0.2424,-0.22777 -0.32742,-0.002 -0.59531,-0.12311 -0.59531,-0.26863 0,-0.14552 0.18562,-0.26458 0.41249,-0.26458 0.22687,0 0.34416,-0.11055 0.26066,-0.24567 -0.0835,-0.13512 0.11782,-0.2975 0.4474,-0.36084 0.49663,-0.0955 0.46332,-0.12673 -0.19451,-0.18264 -0.6932,-0.0589 -0.62616,-0.11054 0.52917,-0.40751 l 1.32291,-0.34005 -1.05833,-0.0602 -1.05833,-0.0602 0.92604,-0.19493 0.92604,-0.19492 -1.19063,-0.0661 c -1.11081,-0.0617 -1.13741,-0.0797 -0.39687,-0.26811 0.75965,-0.1933 0.76533,-0.20503 0.13229,-0.27302 -0.43936,-0.0472 -0.26168,-0.1332 0.52917,-0.25615 0.9983,-0.15521 1.05425,-0.19153 0.34634,-0.22484 -1.08328,-0.051 -1.37354,-0.49897 -0.41698,-0.64355 0.66229,-0.10011 0.64701,-0.11444 -0.1602,-0.1503 -0.7143,-0.0317 -0.83351,-0.11047 -0.59761,-0.39472 0.16208,-0.19529 0.21635,-0.43341 0.1206,-0.52916 -0.0958,-0.0958 0.11364,-0.18247 0.46531,-0.19269 0.59373,-0.0173 0.60161,-0.0348 0.11025,-0.24599 -0.51614,-0.22179 -0.51531,-0.22785 0.0337,-0.24599 0.30961,-0.0102 0.71114,-0.19719 0.8923,-0.41547 0.27646,-0.33312 0.23208,-0.39687 -0.27629,-0.39687 -0.33311,0 -0.5348,-0.0709 -0.44819,-0.15747 0.0866,-0.0866 0.52317,-0.0771 0.97014,0.021 0.86267,0.18948 1.13093,0.91741 0.34965,0.94879 -0.39593,0.0159 -0.38635,0.0516 0.0662,0.24599 0.48926,0.21025 0.47929,0.23111 -0.1323,0.27668 -0.46369,0.0345 -0.52302,0.0855 -0.19843,0.17029 0.25466,0.0666 0.46302,0.23133 0.46302,0.36618 0,0.13485 -0.20836,0.25705 -0.46302,0.27156 -0.30868,0.0176 -0.24254,0.097 0.19843,0.23821 0.36381,0.11651 0.51263,0.2237 0.33073,0.23821 -0.47246,0.0377 -0.4108,0.55554 0.0661,0.55554 0.8806,0 0.32626,0.53218 -0.59531,0.57151 l -0.99219,0.0423 0.92604,0.12005 c 0.78036,0.10116 0.8428,0.154 0.39688,0.33593 -0.50849,0.20745 -0.50651,0.21662 0.0505,0.23449 0.69071,0.0222 1.11419,0.54776 0.44133,0.54776 -0.34174,0 -0.38717,0.0782 -0.17096,0.29445 0.65904,0.65903 0.93461,-0.0631 0.75659,-1.98273 -0.28292,-3.0507 -0.44088,-3.65943 -0.98663,-3.80214 -0.32676,-0.0855 -0.41728,-0.23342 -0.26235,-0.42888 0.22151,-0.27945 -0.21952,-3.11111 -1.17971,-7.57445 -0.20349,-0.94589 -0.36967,-1.98768 -0.36929,-2.3151 4e-4,-0.34066 -0.16145,-0.59532 -0.37835,-0.59532 -0.58326,0 -0.77542,-1.02369 -0.40363,-2.15022 0.27624,-0.83702 0.48745,-1.04469 1.19813,-1.17801 0.62863,-0.11793 0.90729,-0.33924 1.02682,-0.8155 0.17031,-0.67853 1.48528,-1.41252 2.53061,-1.41252 0.30266,0 0.82616,-0.29765 1.16332,-0.66146 0.33716,-0.3638 0.71842,-0.66351 0.84726,-0.66602 0.12883,-0.003 0.51304,-0.29852 0.85379,-0.65779 0.8592,-0.90589 1.99099,-1.11608 6.21052,-1.15338 2.79634,-0.0247 3.83707,0.0618 4.42976,0.3683 0.67423,0.34866 0.97728,0.35382 2.33667,0.0398 1.902287,-0.43947 2.992207,-0.3089 3.693317,0.44246 0.69309,0.74276 1.02714,2.01963 0.53209,2.0339 -0.19767,0.006 0.008,0.17027 0.45678,0.36572 0.9011,0.39234 2.0369,1.66983 1.81043,2.03627 -0.24479,0.39606 -0.57377,0.25931 -0.71983,-0.29922 -0.15306,-0.58529 -1.7081,-1.34365 -2.9644,-1.44567 -1.563947,-0.127 -2.972777,1.27872 -2.039287,2.03479 0.34947,0.28305 0.38259,0.27779 0.19639,-0.0311 -0.14477,-0.24022 -0.12474,-0.31029 0.0567,-0.19818 0.15434,0.0954 0.21421,0.42739 0.13305,0.73777 -0.10672,0.4081 -0.0449,0.52832 0.22327,0.43428 0.203967,-0.0715 0.354527,-0.32431 0.334577,-0.56175 -0.02,-0.23743 0.0694,-0.36642 0.19844,-0.28663 0.12909,0.0798 0.23471,0.33034 0.23471,0.5568 0,0.34614 0.23857,0.38194 1.49714,0.22469 1.71502,-0.21427 3.26536,-0.86859 3.26536,-1.37813 0,-0.56661 0.48413,-0.39799 0.96517,0.33617 0.38155,0.58232 0.39229,0.71942 0.0722,0.92199 -0.50826,0.32169 -1.1078,0.30942 -0.90512,-0.0185 0.0899,-0.14552 0.0294,-0.26458 -0.1345,-0.26458 -0.18172,0 -0.22967,0.21539 -0.12287,0.55187 0.15945,0.50239 0.12186,0.52336 -0.41917,0.23381 -0.53132,-0.28436 -0.57438,-0.26573 -0.40623,0.17573 0.15085,0.39606 0.12214,0.42834 -0.14509,0.16307 -0.47536,-0.47187 -0.88746,-0.41044 -0.48662,0.0725 0.18407,0.2218 0.24845,0.4895 0.14305,0.5949 -0.10539,0.10539 -0.33072,0.003 -0.50072,-0.22806 -0.49657,-0.67422 -0.99175,-0.33113 -0.68532,0.47484 0.31588,0.83083 0.27765,0.87366 -0.84474,0.94615 -1.15521,0.0746 -1.43667,-0.44466 -0.30039,-0.55422 0.47294,-0.0456 0.85989,-0.17061 0.85989,-0.27781 0,-0.39083 -0.64965,-0.8299 -1.22792,-0.8299 -0.32611,0 -0.66651,-0.11907 -0.75645,-0.26459 -0.29655,-0.47983 -0.696917,-0.29605 -0.4323,0.19844 0.13628,0.25466 0.32963,1.00887 0.42966,1.67602 0.10004,0.66715 0.27488,1.36347 0.38855,1.54739 0.2917,0.47198 1.17722,0.23894 1.28854,-0.3391 0.12704,-0.65969 1.70793,-2.10835 3.05925,-2.80335 1.0009,-0.51478 1.28152,-0.54554 2.77845,-0.30446 3.26767,0.52624 5.3021,2.44141 5.53146,5.20721 0.13841,1.66908 -0.40469,3.37402 -1.48302,4.65553 -1.89724,2.25475 -6.05955,2.40556 -8.29253,0.30046 -0.62376,-0.58805 -0.769,-0.62274 -1.32292,-0.31606 -0.34222,0.18948 -0.71152,0.31922 -0.82066,0.2883 -0.10914,-0.0309 -0.19844,0.0515 -0.19844,0.1832 0,0.13167 0.48983,0.1737 1.0885,0.0934 0.97717,-0.13106 1.07328,-0.0947 0.93966,0.35591 -0.0819,0.27605 -0.27069,1.39487 -0.41959,2.48628 -0.14891,1.09141 -0.48662,2.99641 -0.75047,4.23333 -0.51354,2.40748 -0.49866,3.43959 0.0496,3.43959 0.26547,0 0.28275,-0.22141 0.0775,-0.99219 -0.22035,-0.8273 -0.16555,-1.22141 0.32973,-2.3715 0.80905,-1.8787 1.9214,-2.69298 3.76086,-2.75309 0.7848,-0.0257 1.89857,0.10437 2.47506,0.28891 1.28627,0.41176 1.92987,0.93019 0.78359,0.63118 -0.43657,-0.11388 -1.05028,-0.2116 -1.3638,-0.21716 -0.31353,-0.006 -0.50488,-0.11556 -0.42522,-0.24445 0.081,-0.13112 -0.53249,-0.17817 -1.39301,-0.1068 -1.28541,0.10659 -1.64632,0.25363 -2.19868,0.89579 -0.36345,0.42255 -0.73024,0.76826 -0.81506,0.76826 -0.0848,0 -0.12121,0.34815 -0.0808,0.77366 0.0404,0.42551 -0.0628,0.85781 -0.22921,0.96068 -0.21403,0.13227 -0.22282,0.32962 -0.03,0.67411 0.24061,0.42995 0.30349,0.37934 0.53608,-0.43151 0.14492,-0.50523 0.27424,-0.70242 0.28736,-0.43819 0.0131,0.26423 -0.10485,0.72091 -0.26216,1.01485 -0.36273,0.67778 -0.12231,0.93779 0.43753,0.47317 0.36471,-0.30269 0.46705,-0.28771 0.68411,0.10015 0.14038,0.25085 0.35451,0.39474 0.47584,0.31975 0.12133,-0.075 0.28887,0.0416 0.37231,0.25902 0.0834,0.21744 0.32985,0.39536 0.54758,0.39536 0.47851,0 1.0519,-0.96021 0.70238,-1.17622 -0.13348,-0.0825 -0.303,-5.3e-4 -0.3767,0.18238 -0.0819,0.20312 -0.14212,0.15496 -0.15489,-0.12385 -0.0115,-0.25092 -0.37695,-0.64035 -0.81214,-0.8654 -1.89322,-0.97902 -1.9077,-2.78374 -0.0265,-3.30629 1.21246,-0.33681 1.89436,-0.3542 1.39162,-0.0355 -0.23842,0.15114 -0.003,0.27908 0.72787,0.39599 1.00018,0.15994 1.05564,0.21186 0.74963,0.70185 -0.20428,0.3271 -0.48219,0.46313 -0.72786,0.35628 -0.71194,-0.30963 -1.7128,-0.38279 -2.06003,-0.15058 -0.56822,0.38 -0.10588,0.94886 1.2599,1.55016 1.17349,0.51664 1.30858,0.52935 1.4065,0.13229 0.0596,-0.24159 0.056,0.007 -0.008,0.55294 -0.11693,0.99753 0.31413,1.41998 0.53995,0.52917 0.0645,-0.25467 0.0762,-0.0463 0.0259,0.46302 -0.0677,0.68556 -0.0227,0.82297 0.17339,0.52916 0.14567,-0.21828 0.23527,-1.32767 0.19911,-2.46531 l -0.0658,-2.06844 2.24078,-0.11133 c 1.23244,-0.0612 2.52072,-0.17752 2.86285,-0.25842 0.5992,-0.14168 0.61954,-0.0956 0.55335,1.25373 -0.1355,2.76231 0.0788,3.1211 1.22236,2.04676 l 0.57979,-0.54469 0.17774,0.7082 c 0.0978,0.38951 0.10545,0.78049 0.0171,0.86886 -0.20685,0.20685 -3.37236,0.85573 -3.50882,0.71926 -0.0568,-0.0568 0.0254,-0.34379 0.18271,-0.63773 0.73998,-1.38265 -0.0891,-2.75716 -1.86003,-3.08389 -0.83091,-0.15329 -0.9748,-0.1022 -1.10403,0.39198 -0.13339,0.51008 -0.0694,0.55087 0.6247,0.39841 0.59997,-0.13178 0.7733,-0.0762 0.7733,0.24805 0,0.22984 -0.11906,0.4179 -0.26458,0.4179 -0.14552,0 -0.26459,0.23109 -0.26459,0.51355 0,0.28245 -0.10795,0.58027 -0.2399,0.66182 -0.13195,0.0815 -0.17446,-0.10203 -0.0945,-0.40795 0.11464,-0.43839 0.04,-0.53591 -0.35236,-0.46034 -0.27381,0.0527 -0.51684,0.30519 -0.54008,0.56104 -0.0299,0.32914 -0.006,0.3476 0.0825,0.0631 0.0686,-0.22113 0.23136,-0.40206 0.36164,-0.40206 0.28988,0 0.003,0.8435 -0.38867,1.14323 -0.28263,0.21623 0.63802,0.11107 2.03122,-0.232 0.95477,-0.23511 1.00659,0.46422 0.0662,0.89272 -0.36381,0.16575 -0.66146,0.41835 -0.66146,0.56132 0,0.14297 -0.26058,0.50272 -0.57906,0.79942 -0.48958,0.45611 -0.92909,0.53925 -2.84427,0.538 -2.52338,-0.002 -3.90828,-0.29878 -4.81515,-1.03312 -0.52911,-0.42845 -0.56052,-0.54934 -0.24234,-0.93273 0.31471,-0.3792 0.30036,-0.50305 -0.10312,-0.89022 -0.44382,-0.42587 -0.459,-0.41748 -0.28614,0.15827 0.20261,0.67484 -0.28396,1.47334 -0.72987,1.19775 -0.17417,-0.10764 -0.21587,-0.007 -0.11061,0.2675 0.15062,0.39252 -0.13865,0.44406 -2.667017,0.47511 -1.80519,0.0222 -2.49938,0.0996 -1.90992,0.21295 0.68453,0.13166 0.167,0.22936 -1.98438,0.37459 -2.62791,0.17741 -9.04046,0.17085 -9.22074,-0.009 z m 22.435837,-0.53938 c 0.14977,-0.39029 0.21014,-0.39977 0.42113,-0.0661 0.21567,0.34103 0.2473,0.34011 0.2544,-0.007 0.007,-0.34044 0.0423,-0.34286 0.24847,-0.017 0.20887,0.3301 0.30166,0.3301 0.70819,0 0.29237,-0.23739 0.39331,-0.25582 0.26914,-0.0491 -0.10928,0.1819 -0.0768,0.33073 0.0722,0.33073 0.14899,0 0.40809,-0.25636 0.57578,-0.56969 0.29937,-0.55937 0.27916,-0.56633 -1.11517,-0.38389 -0.78103,0.10218 -1.71771,0.25258 -2.08152,0.33422 -1.11213,0.24955 -2.68914,0.15644 -3.35117,-0.19787 -0.47854,-0.25611 -0.69058,-0.26238 -0.88971,-0.0263 -0.14379,0.17047 -0.18081,0.25115 -0.0823,0.17928 0.0985,-0.0719 0.36743,0.0382 0.59752,0.24465 0.44413,0.39846 1.31793,0.58001 3.10201,0.64453 0.81739,0.0296 1.14064,-0.0762 1.27101,-0.41596 z m -1.04426,-0.0736 c 0.0899,-0.14552 0.27556,-0.26458 0.41249,-0.26458 0.13693,0 0.24897,0.11906 0.24897,0.26458 0,0.14552 -0.18562,0.26458 -0.41249,0.26458 -0.22687,0 -0.33891,-0.11906 -0.24897,-0.26458 z m -19.543877,-0.52556 c 0.33356,-0.002 0.61919,-0.21291 0.69826,-0.51528 0.0919,-0.35136 0.45387,-0.56406 1.15534,-0.67886 0.56184,-0.092 1.25965,-0.27036 1.5507,-0.39646 0.9727,-0.42145 -0.22894,-0.29692 -3.09879,0.32112 -2.2623,0.48721 -2.58799,0.61598 -1.9283,0.76245 l 0.79375,0.17623 -0.79375,0.0354 c -0.62232,0.0277 -0.70803,0.0924 -0.39687,0.29933 0.21828,0.14518 0.635,0.20451 0.92604,0.13185 0.29104,-0.0727 0.78317,-0.13375 1.09362,-0.13574 z m -0.49831,-0.708 c 0.1819,-0.0734 0.47956,-0.0734 0.66146,0 0.1819,0.0734 0.0331,0.13345 -0.33073,0.13345 -0.3638,0 -0.51263,-0.06 -0.33073,-0.13345 z m 3.72401,0.6723 c -0.0473,-0.0831 0.0774,-0.34805 0.27714,-0.5887 0.32578,-0.39254 0.26975,-0.43754 -0.54475,-0.43754 -0.49932,0 -1.13898,0.18742 -1.42145,0.4165 -0.28248,0.22907 -0.36477,0.3411 -0.18287,0.24896 0.18191,-0.0921 0.33073,-0.0497 0.33073,0.0943 0,0.14399 0.26789,0.31254 0.59532,0.37455 0.7172,0.13583 1.0622,0.0964 0.94588,-0.10804 z m -0.79706,-0.41323 c 0.191,-0.0764 0.4192,-0.067 0.50712,0.0209 0.0879,0.0879 -0.0684,0.15045 -0.34726,0.13896 -0.30823,-0.0127 -0.37092,-0.0754 -0.15986,-0.15985 z m 1.55327,0.13113 c -0.0845,-0.21107 -0.14716,-0.14837 -0.15985,0.15985 -0.0115,0.27892 0.051,0.43519 0.13896,0.34727 0.0879,-0.0879 0.0973,-0.31613 0.0209,-0.50712 z m 0.90829,0.11576 c 0.0292,-0.44098 0.0365,-0.44098 0.15169,0 0.12913,0.49414 1.6697,0.6849 1.6697,0.20674 0,-0.14096 -0.1786,-0.18775 -0.39688,-0.10399 -0.21828,0.0838 -0.39687,0.0288 -0.39687,-0.12219 0,-0.15097 0.26789,-0.32349 0.59531,-0.38339 0.32742,-0.0599 0.0797,-0.10202 -0.5504,-0.0936 -0.81799,0.0109 -1.21799,0.15031 -1.39837,0.48737 -0.16685,0.31175 -0.15964,0.4721 0.0212,0.4721 0.15064,0 0.28771,-0.20836 0.30459,-0.46302 z m 2.52578,-0.39688 c -0.0734,-0.1819 -0.13345,-0.0331 -0.13345,0.33073 0,0.3638 0.0601,0.51263 0.13345,0.33073 0.0734,-0.1819 0.0734,-0.47956 0,-0.66146 z m 2.13988,0.69313 c 0.36452,-0.0977 0.59531,-0.36369 0.59531,-0.68615 0,-0.3715 -0.12327,-0.47931 -0.41852,-0.36602 -0.23018,0.0883 -0.73619,0.1775 -1.12447,0.19815 -0.52546,0.028 -0.43537,0.086 0.35237,0.22704 l 1.05833,0.18949 -0.99219,0.0375 c -0.5457,0.0206 -0.99219,0.15661 -0.99219,0.30213 0,0.29679 0.62819,0.33718 1.52136,0.0978 z m 1.2997,-0.95771 c -0.0734,-0.1819 -0.13345,-0.0331 -0.13345,0.33073 0,0.3638 0.0601,0.51263 0.13345,0.33073 0.0734,-0.18191 0.0734,-0.47956 0,-0.66146 z m -15.38876,0.33073 -0.79375,-0.20198 0.81801,-0.0313 c 0.71064,-0.0272 0.85825,-0.16558 1.12448,-1.05419 0.40239,-1.34306 0.3868,-1.62295 -0.0904,-1.62295 -0.21828,0 -0.39688,0.11906 -0.39688,0.26458 0,0.14552 0.11907,0.26459 0.26459,0.26459 0.55427,0 0.23549,0.53018 -0.33073,0.55005 -0.34289,0.012 -0.44239,0.0817 -0.23465,0.16432 0.3045,0.1211 0.3045,0.17902 0,0.37194 -0.26411,0.16733 -0.27213,0.22958 -0.0299,0.23255 0.18191,0.002 0.33073,0.13663 0.33073,0.29867 0,0.17223 -0.308,0.2494 -0.74147,0.18578 -0.569,-0.0835 -0.74981,0.002 -0.77731,0.36685 -0.028,0.37167 0.14859,0.46882 0.80762,0.44437 l 0.84346,-0.0313 z m 17.594787,-0.52917 c 0,-0.29104 -0.11907,-0.52917 -0.26459,-0.52917 -0.14552,0 -0.26458,0.23813 -0.26458,0.52917 0,0.29104 0.11906,0.52917 0.26458,0.52917 0.14552,0 0.26459,-0.23813 0.26459,-0.52917 z m -19.379407,-0.46302 c 0.0608,-0.18469 -0.10527,-0.32894 -0.37615,-0.32668 -0.38765,0.003 -0.41003,0.0515 -0.11145,0.24056 0.28991,0.18352 0.23063,0.26642 -0.26458,0.37002 l -0.6382,0.13351 0.64073,-0.0433 c 0.3524,-0.0238 0.68975,-0.19217 0.74965,-0.37407 z m 14.7303,0.0473 c 0.22868,-0.22868 0.42414,-0.5561 0.43437,-0.72761 0.0102,-0.1715 0.12092,-0.0737 0.24599,0.21734 0.22115,0.51465 0.2279,0.51361 0.24598,-0.0378 0.0237,-0.72357 -0.39151,-0.87502 -1.7063,-0.62232 l -1.05322,0.20243 1.05833,0.0728 c 1.00915,0.0694 1.01837,0.0777 0.19844,0.17948 -0.47295,0.0587 -0.8599,0.2205 -0.8599,0.35957 0,0.13908 0.32742,0.18999 0.7276,0.11314 0.58649,-0.11262 0.548,-0.0662 -0.19843,0.23942 -0.8842,0.362 -0.89402,0.38004 -0.21734,0.39926 0.38979,0.0111 0.89581,-0.16697 1.12448,-0.39564 z m -3.42068,-0.1134 c 0.0899,-0.14552 -0.0291,-0.26458 -0.26459,-0.26458 -0.23546,0 -0.35452,0.11906 -0.26458,0.26458 0.0899,0.14552 0.209,0.26459 0.26458,0.26459 0.0556,0 0.17465,-0.11907 0.26459,-0.26459 z m 1.18657,-0.33073 c -0.003,-0.48139 -0.0531,-0.51936 -0.26053,-0.19843 -0.33151,0.51296 -0.33151,0.79375 0,0.79375 0.14552,0 0.26276,-0.26789 0.26053,-0.59532 z m 4.73348,0.16537 c 0.45475,-0.091 0.82682,-0.24564 0.82682,-0.34375 0,-0.25693 -1.82899,-0.007 -2.00244,0.27376 -0.17217,0.27857 0.0628,0.29255 1.17562,0.07 z m 1.716247,-0.4961 c -0.14224,-0.37067 0.18477,-0.53187 0.83036,-0.4093 0.14552,0.0276 0.12376,-0.0931 -0.0484,-0.26839 -0.43528,-0.44316 -1.14226,-0.11073 -1.14226,0.5371 0,0.29561 0.11532,0.53747 0.25628,0.53747 0.14095,0 0.18774,-0.17859 0.10398,-0.39688 z m -12.732137,-0.44891 0.72499,-0.26249 -0.0117,-3.66877 c -0.006,-2.01782 0.0704,-4.39438 0.17073,-5.28125 0.15235,-1.34665 0.25286,-1.5824 0.60963,-1.43 1.78053,0.76061 2.66775,0.94466 3.93929,0.81719 1.73107,-0.17354 3.63588,-1.29216 4.59212,-2.69679 1.47827,-2.17143 1.09267,-5.56406 -0.85957,-7.56276 -1.57166,-1.60907 -2.44586,-1.95092 -4.99569,-1.95351 -2.05568,-0.002 -2.39675,0.076 -3.96875,0.90829 -2.47144,1.30856 -2.40082,1.2269 -1.9643,2.27166 0.20724,0.49599 0.3768,1.24297 0.3768,1.65996 0,0.41698 0.0729,0.83108 0.16208,0.92023 0.26279,0.26278 0.12117,13.40709 -0.16311,15.13965 -0.14327,0.87313 -0.26117,1.63001 -0.26202,1.68196 -8.4e-4,0.052 0.20683,0.01 0.46149,-0.0932 0.25466,-0.10321 0.78927,-0.30578 1.18802,-0.45016 z m 2.40098,-12.24147 c -1.16935,-0.50858 -1.73886,-1.74218 -1.74432,-3.77834 -0.004,-1.47832 0.083,-1.76848 0.7341,-2.44803 0.99384,-1.03735 2.66488,-1.58666 4.05398,-1.33264 1.55194,0.28379 2.40187,0.93801 3.01275,2.319 1.29697,2.93202 -0.60078,5.64379 -3.93081,5.61691 -0.70561,-0.006 -1.66218,-0.1753 -2.1257,-0.3769 z m 2.86609,-1.20664 c 1.18193,-0.32829 1.81314,-1.22983 1.81314,-2.58964 0,-1.42904 -0.72699,-2.19411 -2.24777,-2.36553 -0.92173,-0.10389 -1.32758,-0.0247 -1.72746,0.33723 -0.58709,0.5313 -0.69477,0.96835 -0.19196,0.77905 0.1819,-0.0685 0.72488,0.11648 1.20661,0.41101 0.6686,0.40879 0.83657,0.65937 0.70977,1.05886 -0.10147,0.31972 -0.0445,0.52334 0.14634,0.52334 0.19666,0 0.26928,-0.29415 0.19595,-0.79375 -0.0762,-0.5193 -0.003,-0.79375 0.21291,-0.79375 0.18118,0 0.54751,-0.0708 0.81407,-0.15725 0.37355,-0.1212 0.40004,-0.097 0.11553,0.10549 -0.30193,0.21491 -0.27784,0.28612 0.13229,0.39114 0.43484,0.11135 0.42445,0.13247 -0.0783,0.15909 -0.31883,0.0169 -0.66401,0.16712 -0.76707,0.33386 -0.13186,0.21337 0.0203,0.25106 0.51356,0.12725 0.41471,-0.10408 0.70092,-0.0658 0.70092,0.0937 0,0.14829 -0.32743,0.28746 -0.72761,0.30927 l -0.7276,0.0396 0.73209,0.11065 c 1.05189,0.159 0.61446,0.60381 -0.59378,0.60381 -1.31744,0 -1.85302,0.21546 -1.87899,0.75591 -0.0132,0.27452 -0.0701,0.31284 -0.15434,0.10399 -0.0734,-0.1819 -0.26105,-0.33073 -0.417,-0.33073 -0.15594,0 -0.068,0.23812 0.19535,0.52917 0.54819,0.60573 0.70157,0.62531 2.02332,0.25818 z m -1.0261,-0.44154 c 0.25744,-0.0671 0.61462,-0.0627 0.79375,0.01 0.17914,0.0725 -0.0315,0.12736 -0.46805,0.12197 -0.43656,-0.005 -0.58313,-0.0647 -0.3257,-0.13178 z m 0.26459,-0.52916 c 0.25743,-0.0671 0.61462,-0.0627 0.79375,0.01 0.17913,0.0725 -0.0315,0.12736 -0.46806,0.12197 -0.43656,-0.005 -0.58312,-0.0647 -0.32569,-0.13178 z m -0.73117,-3.25461 c -0.2642,-0.29194 -0.35742,-0.53079 -0.20717,-0.53079 0.33292,0 0.99283,0.75628 0.81504,0.93406 -0.0701,0.0701 -0.34368,-0.11134 -0.60787,-0.40327 z m -0.13376,2.64421 c 0.34202,-0.22103 0.33504,-0.25704 -0.0505,-0.26053 -0.24608,-0.002 -0.52099,0.11501 -0.61093,0.26053 -0.20695,0.33486 0.1433,0.33486 0.66146,0 z m -0.13229,-0.81232 -1.05834,-0.17092 0.92604,-0.0772 c 0.919,-0.0766 0.92002,-0.0781 0.13315,-0.19371 -0.43608,-0.0641 -0.88075,-0.25461 -0.98813,-0.42338 -0.11307,-0.1777 -0.19695,-0.0192 -0.1993,0.37665 -0.005,0.90458 0.0737,0.95515 1.24463,0.79569 l 1.00028,-0.13622 z m 1.98437,16.2243 c 0,-0.10914 -0.53578,-0.19844 -1.19062,-0.19844 -0.65485,0 -1.19063,0.0893 -1.19063,0.19844 0,0.10914 0.53578,0.19844 1.19063,0.19844 0.65484,0 1.19062,-0.0893 1.19062,-0.19844 z m -11.90625,-0.32243 c 0,-0.14095 -0.17859,-0.18774 -0.39687,-0.10398 -0.21829,0.0838 -0.39688,0.19909 -0.39688,0.25628 0,0.0572 0.17859,0.10398 0.39688,0.10398 0.21828,0 0.39687,-0.11532 0.39687,-0.25628 z m 17.99167,-0.008 c 0.29521,-0.19078 0.14271,-0.25752 -0.59532,-0.26053 -0.5457,-0.002 -0.99218,0.11501 -0.99218,0.26053 0,0.337 1.06603,0.337 1.5875,0 z m -7.40834,-0.92686 c 0,-0.1848 -0.35718,-0.38842 -0.79375,-0.45249 -0.80755,-0.11853 -0.90709,-0.0176 -0.6482,0.65703 0.17865,0.46555 1.44195,0.28636 1.44195,-0.20454 z m 0.88618,-0.008 c -0.20987,-0.54691 -0.35701,-0.48246 -0.35701,0.1564 0,0.29963 0.11386,0.47441 0.25303,0.3884 0.13916,-0.086 0.18596,-0.33116 0.10398,-0.54479 z m 2.28882,0.14078 c 0,-0.41158 -0.17639,-0.52917 -0.79375,-0.52917 -0.43656,0 -0.79375,0.12609 -0.79375,0.2802 0,0.15411 0.10832,0.21326 0.24071,0.13143 0.13239,-0.0818 0.45981,-0.0607 0.7276,0.0469 0.3869,0.15546 0.2967,0.22999 -0.43914,0.3629 l -0.92604,0.16728 0.99219,0.0348 c 0.8274,0.029 0.99218,-0.0531 0.99218,-0.49434 z m 0.44533,-0.0496 c -0.0845,-0.21107 -0.14716,-0.14837 -0.15985,0.15985 -0.0115,0.27892 0.051,0.43519 0.13896,0.34727 0.0879,-0.0879 0.0973,-0.31613 0.0209,-0.50712 z m 2.86197,0.0496 c 0.0928,-0.15025 -0.15766,-0.27811 -0.5797,-0.29589 l -0.74322,-0.0313 0.79375,-0.20198 c 0.75456,-0.192 0.73976,-0.20352 -0.29987,-0.23328 -0.88582,-0.0254 -1.11991,0.0693 -1.232,0.49787 -0.12067,0.46145 -0.008,0.52916 0.87956,0.52916 0.55988,0 1.09154,-0.11906 1.18148,-0.26458 z m 3.267637,-0.41609 c 0.29653,-0.24925 -0.38009,-0.64165 -1.10045,-0.63819 -0.66458,0.003 -0.75981,0.0629 -0.4474,0.28063 0.29519,0.20573 0.17657,0.2332 -0.463017,0.10722 -0.56578,-0.11144 -0.8599,-0.0663 -0.8599,0.13186 0,0.16567 0.11906,0.22763 0.26458,0.13769 0.14552,-0.0899 0.26459,-0.036 0.26459,0.11981 0,0.24491 2.028087,0.1245 2.341597,-0.13902 z m 11.77079,-0.59323 c -0.1265,-0.48374 -0.22371,-0.53157 -0.54256,-0.26695 -0.33829,0.28076 -0.32807,0.36654 0.0791,0.6643 0.57824,0.42282 0.65964,0.35302 0.46341,-0.39735 z m -28.532177,0.0833 c 0,-0.14552 -0.47625,-0.27975 -1.05834,-0.29828 -1.00983,-0.0322 -1.01589,-0.0277 -0.13229,0.0962 0.7959,0.11168 0.85167,0.16226 0.39688,0.35987 -0.47074,0.20453 -0.45613,0.22312 0.13229,0.16834 0.3638,-0.0339 0.66146,-0.18065 0.66146,-0.32617 z m 12.03854,-0.68488 c 0,-0.41285 -0.1391,-0.46604 -0.8599,-0.32884 -1.04708,0.19932 -1.09387,0.2348 -0.91709,0.6955 0.22023,0.57391 1.77699,0.2527 1.77699,-0.36666 z m -5.55625,0.30583 c 0,-0.13571 -0.23986,-0.32288 -0.53301,-0.41592 -0.78831,-0.2502 -0.36543,-0.66024 0.68091,-0.66024 0.63288,0 0.91043,-0.12099 0.91043,-0.39688 0,-0.28487 -0.31734,-0.40704 -1.12448,-0.4329 -0.61846,-0.0198 -0.85659,-0.0876 -0.52917,-0.1507 0.99567,-0.19177 0.73865,-1.32592 -0.26458,-1.16752 -0.10914,0.0172 -0.19844,-0.0877 -0.19844,-0.23325 0,-0.14552 0.38696,-0.27295 0.8599,-0.28318 0.47294,-0.0102 1.09802,-0.12648 1.38906,-0.25834 0.38356,-0.17378 0.23795,-0.20428 -0.52916,-0.11086 -0.79016,0.0962 -0.92425,0.0658 -0.52917,-0.11993 0.45609,-0.21447 0.41042,-0.2514 -0.33073,-0.26743 -0.5797,-0.0125 -0.8599,-0.14792 -0.8599,-0.41547 0,-0.21828 0.1786,-0.39687 0.39688,-0.39687 0.21828,0 0.40874,-0.20836 0.42325,-0.46302 0.0177,-0.31016 0.0972,-0.24465 0.24102,0.19843 l 0.21466,0.66146 0.1867,-0.59531 c 0.10269,-0.32742 0.29891,-0.59531 0.43605,-0.59531 0.13714,0 0.16653,0.13398 0.0653,0.29774 -0.12769,0.20661 0.11048,0.26337 0.77814,0.18542 0.52918,-0.0618 0.96215,-0.0244 0.96215,0.0832 0,0.10752 -0.44648,0.24632 -0.99219,0.30844 -0.8503,0.0968 -0.82193,0.10855 0.19844,0.0821 0.79902,-0.0207 1.16887,-0.13962 1.12448,-0.36157 -0.0364,-0.1819 0.0979,-0.33073 0.29833,-0.33073 0.20046,0 0.50229,-0.16605 0.67073,-0.36901 0.16844,-0.20296 0.7188,-0.41717 1.22302,-0.47604 0.94237,-0.11001 1.23833,0.13587 0.50313,0.418 -0.22751,0.0873 -0.33954,0.27863 -0.24897,0.42518 0.0926,0.14982 -0.10273,0.26468 -0.44625,0.2624 -0.49981,-0.003 -0.53874,-0.0535 -0.21405,-0.27608 0.3137,-0.21503 0.25826,-0.25576 -0.26459,-0.19439 -0.57499,0.0675 -0.99573,0.73911 -0.46302,0.73911 0.10914,0 0.67469,0 1.25677,0 0.99421,0 1.05834,-0.047 1.05834,-0.77618 0,-0.59491 0.13902,-0.80268 0.59531,-0.88965 0.40423,-0.0771 0.36176,-0.0974 -0.13229,-0.0634 -0.40018,0.0275 -0.72761,-0.0299 -0.72761,-0.12767 0,-0.33175 0.92352,-1.00407 1.45521,-1.0594 0.988397,-0.10284 1.190627,0.005 1.190627,0.63494 0,0.68191 -0.36121,1.08111 -1.190627,1.31584 -0.29104,0.0824 -0.13847,0.11525 0.33904,0.0731 0.972267,-0.0859 0.817957,0.24784 -0.20675,0.4471 -0.36528,0.071 -0.18757,0.11068 0.39688,0.0885 0.743957,-0.0282 1.058327,-0.15735 1.058327,-0.43487 0,-0.21714 0.44649,-0.60503 0.99219,-0.86198 1.00724,-0.47427 1.31799,-0.99219 0.59531,-0.99219 -0.21828,0 -0.36711,0.13533 -0.33073,0.30074 0.0364,0.1654 -0.23468,0.38611 -0.60235,0.49047 -0.59643,0.16929 -0.66525,0.11547 -0.63835,-0.49917 0.0166,-0.3789 0.16859,-0.70379 0.33777,-0.72198 0.65094,-0.07 0.68665,-0.14408 0.17533,-0.36381 -0.50769,-0.21816 -0.50534,-0.22814 0.0578,-0.24598 0.40936,-0.013 0.54092,-0.13871 0.43471,-0.41548 -0.0838,-0.21828 -0.40744,-0.3885 -0.7193,-0.37827 -0.55145,0.0181 -0.55249,0.0248 -0.0378,0.24598 0.44482,0.19115 0.39343,0.23036 -0.32243,0.24599 -0.65249,0.0143 -0.815977,-0.0742 -0.6993,-0.37828 0.13093,-0.34118 0.80488,-0.53555 1.48475,-0.42821 0.10914,0.0172 0.20811,-0.23655 0.21993,-0.56398 0.0118,-0.32742 0.0455,-0.92273 0.0749,-1.32291 0.0397,-0.54167 -0.0672,-0.72761 -0.41837,-0.72761 -0.25947,0 -0.47176,0.16182 -0.47176,0.35959 0,0.19778 -0.33877,1.03121 -0.75283,1.85209 l -0.752827,1.49249 0.686687,0.0304 c 0.54698,0.0242 0.49439,0.068 -0.258537,0.2153 -0.51988,0.10168 -1.37944,0.51605 -1.91013,0.92083 -1.53555,1.17122 -3.8947,1.79334 -5.70098,1.50336 -0.82381,-0.13225 -1.57723,-0.16201 -1.67427,-0.0661 -0.097,0.0959 -0.20298,1.30542 -0.23543,2.68787 -0.0922,3.92901 -0.0854,3.96875 0.67645,3.96875 0.3638,0 0.66146,-0.11104 0.66146,-0.24676 z m -0.33073,-1.51597 c 0.1819,-0.0734 0.47955,-0.0734 0.66146,0 0.1819,0.0734 0.0331,0.13345 -0.33073,0.13345 -0.36381,0 -0.51263,-0.06 -0.33073,-0.13345 z m -0.59531,-1.14769 c -0.0899,-0.14552 0.0221,-0.26458 0.24896,-0.26458 0.22687,0 0.41249,0.11906 0.41249,0.26458 0,0.14552 -0.11203,0.26458 -0.24896,0.26458 -0.13694,0 -0.32256,-0.11906 -0.41249,-0.26458 z m 9.927177,-8.07619 c 0.18407,-0.22179 0.38917,-0.34878 0.45576,-0.28218 0.18349,0.18349 -0.18932,0.68545 -0.50908,0.68545 -0.17545,0 -0.15537,-0.15181 0.0533,-0.40327 z m 0.25927,-0.91964 c 0,-0.14552 0.11907,-0.26459 0.26459,-0.26459 0.14552,0 0.26458,0.11907 0.26458,0.26459 0,0.14552 -0.11906,0.26458 -0.26458,0.26458 -0.14552,0 -0.26459,-0.11906 -0.26459,-0.26458 z m -7.474477,11.72386 c -0.25466,-0.0665 -0.67138,-0.0665 -0.92604,0 -0.25466,0.0666 -0.0463,0.121 0.46302,0.121 0.50933,0 0.71769,-0.0545 0.46302,-0.121 z m 1.38907,-0.34678 c 0,-0.14552 -0.11907,-0.26458 -0.26459,-0.26458 -0.14552,0 -0.26458,0.11906 -0.26458,0.26458 0,0.14552 0.11906,0.26458 0.26458,0.26458 0.14552,0 0.26459,-0.11906 0.26459,-0.26458 z m 5.02708,0 c 0.330137,-0.21335 0.307887,-0.26029 -0.13229,-0.27913 l -0.52917,-0.0227 0.52917,-0.25141 c 0.461177,-0.21912 0.444187,-0.23419 -0.13229,-0.11731 -0.36381,0.0738 -0.79045,0.13573 -0.94809,0.13772 -0.15765,0.002 -0.28664,0.18221 -0.28664,0.40049 0,0.44819 0.8891,0.52664 1.49931,0.13229 z m 2.041957,-0.55521 c -0.0452,-0.60002 -0.40968,-0.66309 -0.62278,-0.10777 -0.0834,0.21745 -0.2583,0.32948 -0.38857,0.24897 -0.25682,-0.15872 -0.33051,0.23217 -0.0892,0.47343 0.32113,0.32112 1.13677,-0.13438 1.1006,-0.61463 z m -8.127377,0.29063 c 0,-0.14552 -0.35016,-0.26459 -0.77813,-0.26459 -0.42798,0 -0.85172,0.11907 -0.94166,0.26459 -0.0973,0.15745 0.21774,0.26458 0.77814,0.26458 0.51791,0 0.94165,-0.11906 0.94165,-0.26458 z m -10.19775,-0.2463 c 0.25638,-0.41484 -0.23139,-0.5156 -0.59445,-0.12281 -0.28021,0.30317 -0.27119,0.36911 0.0505,0.36911 0.21543,0 0.46019,-0.11084 0.54392,-0.2463 z m 1.4665,-0.28287 c 0,-0.29104 -0.12609,-0.52917 -0.28019,-0.52917 -0.15411,0 -0.20662,0.11907 -0.11668,0.26459 0.0899,0.14552 -0.0221,0.26458 -0.24897,0.26458 -0.22687,0 -0.41249,0.11906 -0.41249,0.26458 0,0.14552 0.23813,0.26459 0.52917,0.26459 0.35277,0 0.52916,-0.17639 0.52916,-0.52917 z m 10.58334,-0.52917 c 0,-0.41157 -0.17639,-0.52916 -0.79375,-0.52916 -0.43657,0 -0.79375,0.0498 -0.79375,0.11065 0,0.0609 -0.0723,0.29898 -0.1606,0.52917 -0.12816,0.33396 0.0322,0.41851 0.79375,0.41851 0.77796,0 0.95435,-0.0978 0.95435,-0.52917 z m -1.32292,0.16315 c 0,-0.0558 0.23829,-0.16374 0.52953,-0.23991 0.29124,-0.0762 0.46281,-0.0305 0.38126,0.10144 -0.14241,0.23043 -0.91079,0.34725 -0.91079,0.13847 z m 2.03282,-0.21276 c -0.0845,-0.21106 -0.14715,-0.14837 -0.15985,0.15986 -0.0115,0.27891 0.051,0.43518 0.13897,0.34726 0.0879,-0.0879 0.0973,-0.31612 0.0209,-0.50712 z m 2.051,0.32074 c 0.37327,-0.14191 0.67868,-0.43208 0.67868,-0.64482 0,-0.29779 -0.22831,-0.35156 -0.99219,-0.23368 -1.19506,0.18441 -1.2319,0.21038 -1.03317,0.72825 0.18272,0.47618 0.41983,0.50264 1.34668,0.15025 z m -4.87757,-0.27113 c 0,-0.14552 -0.0525,-0.26458 -0.11668,-0.26458 -0.0642,0 -0.19026,0.11906 -0.28019,0.26458 -0.0899,0.14552 -0.0374,0.26459 0.11667,0.26459 0.15411,0 0.2802,-0.11907 0.2802,-0.26459 z m 8.333067,-0.26408 c 1.06488,-0.40487 0.53415,-0.86301 -0.75345,-0.6504 -1.268517,0.20945 -1.343197,0.25206 -1.108207,0.6323 0.218707,0.35388 0.959547,0.36108 1.861657,0.0181 z m -1.50351,-0.18124 c 0.19099,-0.0764 0.4192,-0.067 0.50712,0.0209 0.0879,0.0879 -0.0684,0.15045 -0.34727,0.13896 -0.30823,-0.0127 -0.37092,-0.0754 -0.15985,-0.15985 z m 1.32291,-0.26458 c 0.191,-0.0764 0.4192,-0.067 0.50712,0.0209 0.0879,0.0879 -0.0683,0.15046 -0.34726,0.13897 -0.30823,-0.0127 -0.37092,-0.0754 -0.15986,-0.15985 z m -16.425787,-0.10385 c 0.0337,-0.4478 -0.0285,-0.49118 -0.33714,-0.23504 -0.21736,0.1804 -0.66999,0.24097 -1.06317,0.14229 -0.59356,-0.14897 -0.63803,-0.11903 -0.33417,0.22498 0.54646,0.61865 1.68445,0.5319 1.73448,-0.13223 z m 8.8697,-0.31073 c 0.0868,-0.25784 0.20827,-0.2507 0.55122,0.0324 0.24194,0.19972 0.4399,0.29875 0.4399,0.22008 0,-0.0787 0.0818,-0.36115 0.18183,-0.62771 0.15606,-0.41598 0.12221,-0.43623 -0.23885,-0.14289 -0.33896,0.27538 -0.44248,0.2764 -0.53286,0.005 -0.0877,-0.26314 -0.25197,-0.26945 -0.75333,-0.029 -0.41914,0.20106 -0.50373,0.32677 -0.24429,0.36302 0.21828,0.0305 -0.0794,0.14073 -0.66146,0.24495 l -1.05833,0.18949 1.10243,0.0375 c 0.67532,0.023 1.14556,-0.0906 1.21374,-0.29319 z m 2.81013,0.16537 c 0.81354,-0.16271 1.09546,-0.69571 0.5472,-1.03456 -0.15379,-0.095 -0.58102,-0.0972 -0.94939,-0.005 -0.53205,0.13354 -0.60767,0.24292 -0.36779,0.53197 0.23532,0.28354 0.19667,0.39118 -0.17508,0.48757 -0.73454,0.19047 0.0133,0.20608 0.94506,0.0197 z m 1.27215,-0.678 c -0.0845,-0.21106 -0.14716,-0.14837 -0.15985,0.15986 -0.0115,0.27891 0.051,0.43518 0.13896,0.34726 0.0879,-0.0879 0.0973,-0.31612 0.0209,-0.50712 z m 2.266647,0.12971 c 0.28512,-0.15995 0.24515,-0.87385 -0.0489,-0.87385 -0.636597,0 -1.604717,0.55777 -1.604717,0.92454 0,0.31137 0.17295,0.36712 0.7276,0.23455 0.40018,-0.0957 0.816897,-0.22401 0.926037,-0.28524 z m -1.174087,-0.26084 c 0.191,-0.0764 0.4192,-0.067 0.50712,0.0209 0.0879,0.0879 -0.0684,0.15045 -0.34726,0.13897 -0.30823,-0.0127 -0.37092,-0.0754 -0.15986,-0.15986 z m -6.37204,0.28547 c -0.0879,-0.0879 -0.31613,-0.0973 -0.50712,-0.0209 -0.21107,0.0845 -0.14838,0.14716 0.15985,0.15986 0.27891,0.0115 0.43518,-0.0511 0.34727,-0.13897 z m -9.58564,-0.35224 -0.52916,-0.21033 0.52916,-0.11495 c 0.43982,-0.0955 0.40632,-0.14004 -0.19844,-0.26356 -0.58637,-0.11975 -0.7276,-0.053 -0.7276,0.34388 0,0.36536 0.1878,0.48767 0.7276,0.47388 0.63339,-0.0162 0.65909,-0.0458 0.19844,-0.22892 z m 19.182287,-0.3037 c 0,-0.6448 -0.61827,-0.55366 -0.747,0.11012 -0.0506,0.26108 0.0843,0.44109 0.33073,0.44109 0.24543,0 0.41627,-0.22621 0.41627,-0.55121 z m -6.524477,-0.57327 c 0.10099,-0.24888 0.20365,-0.23251 0.41487,0.0661 0.23915,0.33816 0.28128,0.32325 0.28473,-0.10076 0.003,-0.42563 -0.13623,-0.47488 -0.9653,-0.34034 -1.30645,0.21201 -1.79133,0.70568 -0.69311,0.70568 0.45353,0 0.885,-0.14883 0.95881,-0.33073 z m 2.75417,0.16397 c 0.32742,-0.0877 0.59531,-0.32425 0.59531,-0.52555 0,-0.47519 -1.22829,-0.48165 -1.5082,-0.008 -0.11638,0.19694 -0.39018,0.42567 -0.60846,0.50828 -0.54659,0.20686 0.76258,0.22855 1.52135,0.0252 z m 1.04064,-0.6766 c -0.0845,-0.21106 -0.14716,-0.14837 -0.15985,0.15986 -0.0115,0.27891 0.051,0.43518 0.13896,0.34726 0.0879,-0.0879 0.0973,-0.31612 0.0209,-0.50712 z m -14.46824,-0.30144 c 0,-0.53354 -0.10585,-0.6001 -0.79375,-0.49913 -0.43657,0.0641 -0.79375,0.23007 -0.79375,0.36888 0,0.13881 0.23812,0.1768 0.52916,0.0844 0.29105,-0.0924 0.52917,-0.0496 0.52917,0.0951 0,0.14466 -0.20836,0.31746 -0.46302,0.38401 -0.28487,0.0745 -0.18307,0.13281 0.26458,0.15169 0.59408,0.0251 0.72761,-0.0823 0.72761,-0.58494 z m 15.941137,0.44041 c -0.1819,-0.0734 -0.47955,-0.0734 -0.66146,0 -0.1819,0.0734 -0.0331,0.13345 0.33073,0.13345 0.36381,0 0.51263,-0.0601 0.33073,-0.13345 z m -18.322387,-0.45539 c 0,-0.20131 -0.28138,-0.41982 -0.62529,-0.48556 -0.5032,-0.0962 -0.60049,-0.0247 -0.49831,0.36603 0.14693,0.56185 1.1236,0.66575 1.1236,0.11953 z m 19.729187,-0.22928 c 0.083,-0.56743 -0.10512,-0.57619 -1.24413,-0.058 l -0.89027,0.40505 0.92604,-0.15652 c 0.71781,-0.12133 0.8368,-0.0902 0.52917,0.13833 -0.33625,0.24981 -0.31985,0.28258 0.10729,0.21449 0.27729,-0.0442 0.53465,-0.28873 0.5719,-0.54339 z m -18.935437,-1.12448 c 0,-0.21828 -0.12609,-0.39687 -0.2802,-0.39687 -0.15411,0 -0.21188,0.11055 -0.12837,0.24566 0.0835,0.13512 -0.11783,0.2975 -0.44741,0.36085 -0.51859,0.0997 -0.50132,0.12002 0.12837,0.1512 0.48639,0.0241 0.72761,-0.0955 0.72761,-0.36084 z m 26.678297,-0.50609 c 0.88505,-0.45768 1.70949,-1.82393 1.99135,-3.30005 0.58146,-3.04515 -2.73915,-6.22563 -5.60383,-5.36735 -2.21402,0.66334 -3.75124,2.56222 -3.75124,4.6338 0,1.17704 0.71103,3.19219 1.32116,3.74435 1.27198,1.15113 4.11289,1.28711 6.04256,0.28925 z m -4.31774,-1.00549 c -0.76719,-0.44476 -1.39547,-1.29684 -1.5611,-2.11717 -0.15716,-0.77842 0.40543,-2.66498 0.96014,-3.21969 1.59708,-1.59708 4.43624,-1.14669 5.38581,0.85439 0.52048,1.09682 0.36577,2.75567 -0.32856,3.52289 -1.01337,1.11977 -3.32232,1.61695 -4.45629,0.95958 z m 3.03944,-1.53113 c 0.72758,-0.72758 0.70226,-2.19937 -0.0499,-2.90011 -0.72762,-0.67788 -1.43362,-0.68156 -2.5298,-0.0132 -0.68984,0.4206 -0.8599,0.69655 -0.8599,1.39534 0,1.35403 0.63215,2.04714 1.86709,2.04714 0.69055,0 1.22225,-0.17893 1.5725,-0.52917 z m -27.252087,2.91042 c 0,-0.14552 -0.0525,-0.26458 -0.11667,-0.26458 -0.0642,0 -0.19026,0.11906 -0.2802,0.26458 -0.0899,0.14552 -0.0374,0.26458 0.11668,0.26458 0.1541,0 0.28019,-0.11906 0.28019,-0.26458 z m 0.79375,-0.26458 c 0,-0.14552 -0.11906,-0.26459 -0.26458,-0.26459 -0.14552,0 -0.26458,0.11907 -0.26458,0.26459 0,0.14552 0.11906,0.26458 0.26458,0.26458 0.14552,0 0.26458,-0.11906 0.26458,-0.26458 z m 17.19792,-0.49248 c 0,-0.3857 -0.14684,-0.46441 -0.67727,-0.36301 l -0.67726,0.12947 0.61112,0.33707 c 0.33611,0.18538 0.64088,0.34874 0.67726,0.363 0.0364,0.0143 0.0662,-0.19567 0.0662,-0.46653 z m -14.55208,-0.30127 c 0,-0.37358 -0.17504,-0.52798 -0.59532,-0.52512 -0.48139,0.003 -0.51936,0.0531 -0.19843,0.26053 0.3079,0.19899 0.21893,0.2652 -0.39688,0.29536 -0.78959,0.0387 -0.78889,0.0399 0.13229,0.23381 0.50933,0.10721 0.95581,0.2106 0.99219,0.22975 0.0364,0.0192 0.0662,-0.20329 0.0662,-0.49433 z m -0.0167,-4.16719 c -0.0341,-2.65555 -0.15411,-3.65443 -0.56372,-4.69386 -0.28619,-0.72623 -0.65617,-1.40437 -0.82218,-1.50697 -0.35594,-0.21998 -0.45239,-0.14769 1.49847,-1.1232 1.43855,-0.71933 1.51531,-0.80253 1.05833,-1.1472 -0.65668,-0.49528 -3.14444,-0.25799 -3.83356,0.36566 -0.36442,0.32979 -0.41939,0.51468 -0.19437,0.65375 0.17256,0.10664 0.48153,0.0261 0.68661,-0.17896 0.47065,-0.47066 0.64144,-0.46724 1.27668,0.0256 0.47656,0.36969 0.45636,0.37912 -0.28016,0.13075 -0.75688,-0.25524 -0.76917,-0.24789 -0.26458,0.15811 0.51839,0.41712 0.51637,0.42196 -0.0993,0.23778 -0.36842,-0.11021 -0.56544,-0.0861 -0.47618,0.0584 0.239,0.3867 -0.96765,0.2494 -1.3971,-0.15898 -0.29839,-0.28373 -0.40988,-0.29174 -0.49527,-0.0355 -0.1404,0.4212 0.4896,0.82566 1.0265,0.65901 0.22591,-0.0701 0.64263,0.0479 0.92604,0.26221 0.39528,0.29894 0.42286,0.39384 0.11841,0.40749 -0.24346,0.0109 -0.14118,0.16396 0.26459,0.39591 l 0.66146,0.37813 -0.73692,0.009 c -0.65403,0.008 -0.70506,0.0689 -0.45371,0.53854 0.16561,0.30944 0.55399,0.52916 0.93535,0.52916 0.89776,0 0.82744,0.52178 -0.0755,0.55986 -0.53209,0.0224 -0.58542,0.0622 -0.19844,0.14778 1.21468,0.26878 1.2922,0.45217 0.26458,0.62587 l -1.05833,0.1789 1.0078,0.0375 c 0.59916,0.0223 0.94125,0.14522 0.84368,0.3031 -0.0903,0.14605 -0.48425,0.20784 -0.87551,0.13731 -0.55566,-0.10016 -0.52315,-0.063 0.14851,0.1696 1.00022,0.34643 1.11118,0.6778 0.26728,0.79819 -0.58687,0.0837 -1.0318,1.01059 -0.48512,1.01059 0.15619,0 0.28398,-0.17859 0.28398,-0.39687 0,-0.75992 0.66159,-0.39199 0.68891,0.38312 0.0257,0.729 -0.0251,0.76979 -0.79375,0.63796 -0.45166,-0.0775 -0.96621,-0.18486 -1.14345,-0.23867 -0.17724,-0.0538 -0.38599,0.005 -0.46388,0.13131 -0.18306,0.29619 0.11298,1.07065 0.40926,1.07065 0.12538,0 0.15944,-0.17859 0.0757,-0.39687 -0.16902,-0.44044 0.37812,-0.48896 1.49182,-0.13229 0.61349,0.19647 0.59591,0.21374 -0.24254,0.23821 -0.99565,0.029 -1.00606,0.22486 -0.0199,0.37535 0.71131,0.10855 1.06435,0.70935 0.41683,0.70935 -0.56977,0 -0.53327,0.72507 0.0441,0.87595 0.25467,0.0666 0.49879,0.13481 0.5425,0.15169 0.0437,0.0169 0.06,-1.48735 0.0361,-3.34274 z m -1.57077,-4.56406 c -0.32093,-0.2074 -0.28296,-0.25726 0.19843,-0.26054 0.32743,-0.002 0.59532,0.11502 0.59532,0.26054 0,0.3315 -0.28079,0.3315 -0.79375,0 z m 0.79375,-3.43959 c -0.21828,-0.14106 -0.27782,-0.25648 -0.13229,-0.25648 0.14552,0 0.44317,0.11542 0.66145,0.25648 0.21828,0.14107 0.27782,0.25648 0.1323,0.25648 -0.14553,0 -0.44318,-0.11541 -0.66146,-0.25648 z m -0.98716,10.67437 c -0.17913,-0.0725 -0.53631,-0.0769 -0.79375,-0.01 -0.25743,0.0671 -0.11086,0.12638 0.3257,0.13177 0.43656,0.005 0.64719,-0.0495 0.46805,-0.12197 z m -0.33576,-0.61451 c -0.87121,-0.28651 -1.58759,-0.31893 -1.58711,-0.0718 2.1e-4,0.10914 0.50623,0.2189 1.12448,0.24391 0.91195,0.0369 0.99926,0.004 0.46263,-0.17207 z m -1.39457,-1.22388 c -0.0879,-0.0879 -0.31613,-0.0973 -0.50712,-0.0209 -0.21107,0.0845 -0.14837,0.14715 0.15985,0.15985 0.27891,0.0115 0.43518,-0.0511 0.34727,-0.13897 z m -0.19293,-0.63389 c -0.51815,-0.33486 -0.86841,-0.33486 -0.66146,0 0.0899,0.14552 0.36486,0.26276 0.61093,0.26053 0.38557,-0.003 0.39255,-0.0395 0.0505,-0.26053 z m 1.85208,-0.92605 c 0,-0.21828 -0.0893,-0.3985 -0.19843,-0.40048 -0.10914,-0.002 -0.48514,-0.0803 -0.83554,-0.17408 -0.63178,-0.16904 -0.63288,-0.16588 -0.13229,0.37844 0.60121,0.65373 1.16626,0.74875 1.16626,0.19612 z m -1.94338,-0.51775 c -0.0862,-0.22456 -0.33901,-0.40829 -0.56185,-0.40829 -0.34282,0 -0.33392,0.0747 0.0578,0.48507 0.52755,0.55267 0.73351,0.52129 0.50401,-0.0768 z m 1.41422,-1.03735 c 0,-0.0549 -0.1786,-0.24811 -0.39688,-0.42927 -0.32504,-0.26976 -0.39687,-0.25168 -0.39687,0.0999 0,0.2361 0.17859,0.42928 0.39687,0.42928 0.21828,0 0.39688,-0.045 0.39688,-0.0999 z m -1.78594,-0.6045 c -0.1819,-0.0734 -0.47956,-0.0734 -0.66146,0 -0.1819,0.0734 -0.0331,0.13345 0.33073,0.13345 0.3638,0 0.51263,-0.0601 0.33073,-0.13345 z m 0.12678,-0.51379 c -0.0879,-0.0879 -0.31612,-0.0973 -0.50712,-0.0209 -0.21107,0.0845 -0.14837,0.14716 0.15985,0.15985 0.27892,0.0115 0.43519,-0.051 0.34727,-0.13896 z m 0.0717,-1.95681 c -0.51297,-0.33151 -0.79375,-0.33151 -0.79375,0 0,0.14552 0.26789,0.26276 0.59531,0.26053 0.48139,-0.003 0.51937,-0.0531 0.19844,-0.26053 z m 1.45521,-0.52917 c 0.0899,-0.14552 -0.0124,-0.26458 -0.22733,-0.26458 -0.21497,0 -0.57919,-0.0723 -0.80937,-0.1606 -0.23018,-0.0883 -0.41851,-0.0375 -0.41851,0.11289 0,0.23439 0.38694,0.42499 1.10886,0.54618 0.10055,0.0169 0.25641,-0.0884 0.34635,-0.23389 z m 16.3184,-2.38125 c 0.12664,0 0.0352,-0.29766 -0.20315,-0.66146 -0.23837,-0.3638 -0.62807,-0.64765 -0.866,-0.63076 -0.36799,0.0261 -0.36344,0.0488 0.0304,0.15169 0.25466,0.0665 0.46302,0.22099 0.46302,0.3432 0,0.12221 -0.35381,0.0887 -0.78624,-0.0746 -0.52827,-0.1994 -0.68019,-0.36415 -0.46302,-0.50213 0.49007,-0.31136 -0.4253,-0.26785 -1.29125,0.0614 -0.54484,0.20714 -0.77616,0.19085 -0.93921,-0.0661 -0.16949,-0.26714 -0.21722,-0.2579 -0.22039,0.0427 -0.005,0.50948 -0.44258,0.0442 -0.60914,-0.64823 -0.10588,-0.44018 -0.13402,-0.41794 -0.16735,0.1323 l -0.0401,0.66145 -0.37813,-0.66145 c -0.33697,-0.58947 -0.37958,-0.60387 -0.39155,-0.1323 -0.0111,0.43941 -0.0569,0.46185 -0.26991,0.1323 -0.40111,-0.62069 -0.3223,-0.72051 0.54138,-0.68569 0.44327,0.0179 0.9177,0.20923 1.05428,0.42524 0.20324,0.32144 0.24979,0.29667 0.25643,-0.13643 0.007,-0.43893 0.0518,-0.46149 0.26458,-0.13229 0.21335,0.33014 0.26029,0.30789 0.27913,-0.13229 0.022,-0.51463 0.0282,-0.51512 0.22299,-0.0176 0.12126,0.30965 0.26943,0.39981 0.37537,0.22841 0.0963,-0.15575 -0.006,-0.4336 -0.22772,-0.61743 -0.45575,-0.37823 -2.79214,-0.66775 -3.42596,-0.42453 -0.37565,0.14416 -0.37226,0.22879 0.0341,0.84892 0.38415,0.58629 0.39536,0.72465 0.0754,0.92965 -0.26934,0.17254 -0.54441,0.0348 -0.96996,-0.4856 -0.3267,-0.39955 -0.59459,-0.58464 -0.59531,-0.41133 -7.9e-4,0.17331 0.11775,0.3887 0.26327,0.47863 0.42031,0.25977 0.30744,0.6579 -0.19844,0.69995 -0.25466,0.0212 0.68518,0.12591 2.08854,0.23276 2.05441,0.15642 2.81479,0.33754 3.9026,0.9296 0.74308,0.40444 1.35911,0.86524 1.36896,1.02401 0.01,0.15878 0.1471,0.0208 0.30501,-0.30663 0.15791,-0.32742 0.39072,-0.59531 0.51736,-0.59531 z m -10.1007,-0.56043 c 1.21514,-0.36406 1.46258,-0.69917 1.22253,-1.65563 -0.20682,-0.82401 -1.40915,-1.31176 -2.65666,-1.07773 -1.23773,0.2322 -1.0605,0.40898 0.48465,0.4834 1.48487,0.0715 1.85107,0.37458 1.50349,1.24418 -0.14074,0.35209 -0.26343,0.49874 -0.27265,0.32588 -0.009,-0.17285 -0.23747,-0.29766 -0.50721,-0.27734 -0.34858,0.0263 -0.45686,0.19369 -0.37435,0.57887 0.10438,0.48728 0.058,0.47522 -0.46023,-0.11953 -0.39078,-0.44851 -0.52848,-0.51239 -0.42771,-0.19844 0.21048,0.65576 -0.0683,0.57391 -0.67579,-0.19844 -0.28617,-0.3638 -0.64895,-0.66146 -0.80617,-0.66146 -0.15723,0 -0.0113,0.23813 0.32427,0.52917 0.33557,0.29104 0.47285,0.52917 0.30507,0.52917 -0.17541,0 -0.10827,0.21545 0.15795,0.50691 0.25466,0.2788 0.59946,0.46589 0.76621,0.41575 0.16676,-0.0501 0.80423,-0.24128 1.4166,-0.42476 z m 10.85323,-0.6238 c -0.18408,-0.2218 -0.45762,-0.40327 -0.60788,-0.40327 -0.15026,0 -0.057,0.23885 0.20716,0.53079 0.54718,0.60462 0.911987,0.48853 0.40072,-0.12752 z m 1.053017,0.53839 c 0,-0.0642 -0.11906,-0.19026 -0.26458,-0.2802 -0.14552,-0.0899 -0.26458,-0.0374 -0.26458,0.11667 0,0.15411 0.11906,0.2802 0.26458,0.2802 0.14552,0 0.26458,-0.0525 0.26458,-0.11667 z m 1.16654,-0.10893 c 0.0767,-0.12408 -0.0356,-0.45151 -0.24962,-0.72761 -0.37836,-0.4882 -0.38404,-0.48746 -0.20657,0.0272 0.16188,0.46943 0.13208,0.48817 -0.26393,0.16604 -0.47911,-0.38972 -0.53897,-0.31821 -0.28582,0.34149 0.17205,0.44834 0.77644,0.56425 1.00594,0.19291 z m -10.130067,-1.54049 c -0.3119,-0.53637 -0.38722,-0.36469 -0.13191,0.30066 0.0907,0.23646 0.22072,0.37419 0.28884,0.30606 0.0681,-0.0681 -0.002,-0.34114 -0.15693,-0.60672 z m -2.41355,0.17859 c 0,-0.14552 -0.12609,-0.26458 -0.2802,-0.26458 -0.15411,0 -0.20661,0.11906 -0.11667,0.26458 0.0899,0.14552 0.21602,0.26459 0.28019,0.26459 0.0642,0 0.11668,-0.11907 0.11668,-0.26459 z m 9.49941,-0.078 c 0.46765,0.0199 0.53765,-0.0351 0.26459,-0.20799 -0.23917,-0.15142 -0.25916,-0.23651 -0.0562,-0.23912 0.17331,-0.002 0.38402,0.10743 0.46823,0.24369 0.26443,0.42785 1.158227,0.21732 1.000727,-0.23571 -0.11527,-0.33157 -0.0747,-0.34635 0.21428,-0.0782 0.19604,0.1819 0.48146,0.32694 0.63425,0.32232 0.1528,-0.005 0.0467,-0.18323 -0.23578,-0.39688 -0.95122,-0.71947 -2.796037,-0.42391 -3.834227,0.61428 -0.34361,0.3436 -0.31278,0.36385 0.25912,0.17025 0.35702,-0.12086 0.93526,-0.20755 1.28499,-0.19266 z m 12.725587,28.0522 c 0,-0.15463 0.0796,-0.20151 0.17697,-0.10417 0.0973,0.0973 0.41545,-0.0317 0.70693,-0.28664 0.29149,-0.25498 0.44295,-0.31477 0.33659,-0.13287 -0.12037,0.20586 -0.0376,0.33073 0.2191,0.33073 0.22687,0 0.41249,-0.17156 0.41249,-0.38126 0,-0.20969 0.1393,-0.46735 0.30955,-0.57257 0.21395,-0.13223 0.25465,-0.0349 0.13177,0.31512 -0.15007,0.42751 -0.0989,0.41366 0.32818,-0.0889 0.52201,-0.61421 2.08181,-0.87725 1.71878,-0.28985 -0.11944,0.19326 -0.0723,0.23347 0.12831,0.10948 0.17441,-0.10778 0.60533,-0.007 0.95761,0.22371 0.35229,0.23082 0.9126,0.41431 1.24514,0.40775 0.54083,-0.0107 0.52182,-0.0472 -0.18014,-0.34664 -0.64375,-0.27455 -0.70318,-0.36601 -0.33073,-0.50893 0.24972,-0.0958 0.45403,-0.0509 0.45403,0.0999 0,0.15371 0.23245,0.20034 0.52917,0.10616 0.30356,-0.0963 0.52917,-0.0475 0.52917,0.11446 0,0.15533 0.20836,0.28059 0.46302,0.27837 0.39888,-0.004 0.40804,-0.0423 0.0661,-0.28021 -0.28957,-0.2015 -0.0982,-0.23079 0.707655,-0.10836 0.934866,0.14203 1.148236,0.0861 1.389063,-0.36385 0.156496,-0.29242 0.284535,-0.78464 0.284535,-1.09384 0,-0.30919 0.108895,-0.49487 0.241986,-0.41262 0.13309,0.0823 0.302286,-1e-5 0.375986,-0.18282 0.1045,-0.2592 0.138602,-0.25667 0.154889,0.0115 0.01148,0.18913 -0.163594,0.72491 -0.389072,1.19063 l -0.409964,0.84675 0.542256,-0.62462 c 0.298238,-0.34355 0.554122,-0.93886 0.568626,-1.32292 l 0.02637,-0.69828 0.211836,0.66146 c 0.208984,0.65255 0.212191,0.65323 0.23821,0.0505 0.01561,-0.36153 0.141748,-0.53963 0.308993,-0.43626 0.155443,0.0961 0.216337,0.3474 0.135324,0.55852 -0.08101,0.21112 -0.04784,0.32239 0.07372,0.24726 0.12156,-0.0751 0.231124,-0.49199 0.243475,-0.92636 0.0209,-0.73538 -0.02305,-0.77247 -0.638151,-0.5386 -0.906074,0.34449 -1.762438,0.31476 -2.29248,-0.0796 -0.485357,-0.36109 -1.072531,-2.92813 -0.838459,-3.66562 0.151643,-0.47778 2.396897,-1.39323 2.802403,-1.14261 0.127352,0.0787 0.231547,0.51172 0.231547,0.96225 0,0.79223 -0.01675,0.80397 -0.510206,0.35741 -0.332671,-0.30107 -0.706118,-0.39955 -1.073232,-0.28303 -0.492504,0.15631 -0.546677,0.32738 -0.432494,1.36572 0.201579,1.83312 0.844566,2.36661 1.804898,1.49752 0.4396,-0.39783 0.53485,-0.40257 0.892974,-0.0444 0.495797,0.4958 0.546129,3.80092 0.05325,3.4963 -0.115366,-0.0713 -0.282874,0.0609 -0.37224,0.29379 -0.388591,1.01265 -1.647547,1.29492 -6.051488,1.3568 -2.32833,0.0327 -4.73935,0.11695 -5.35781,0.18719 -0.69754,0.0792 -1.12448,0.0209 -1.12448,-0.15343 z m 10.77626,-0.61738 c -0.08792,-0.0879 -0.316125,-0.0973 -0.507119,-0.0209 -0.211066,0.0845 -0.148373,0.14716 0.159853,0.15985 0.278913,0.0115 0.435184,-0.051 0.347266,-0.13896 z m 5.838777,0.81169 c -0.0871,-0.0871 -0.04324,-0.57532 0.09748,-1.08493 0.166812,-0.60414 0.163364,-1.35751 -0.0099,-2.16497 -0.304641,-1.41961 -0.164592,-1.65943 0.988232,-1.6922 0.456499,-0.013 0.830001,-0.10064 0.830001,-0.19479 0,-0.0942 0.416719,-0.12254 0.926041,-0.0631 0.737754,0.0861 0.925307,0.22326 0.922431,0.67447 -0.0056,0.88352 -0.296323,1.75699 -0.584722,1.75699 -0.144118,0 -0.189762,-0.17859 -0.101433,-0.39687 0.08833,-0.21828 0.232868,-0.57547 0.321199,-0.79375 0.08833,-0.21828 0.0288,-0.39688 -0.132292,-0.39688 -0.161091,0 -0.302292,0.20836 -0.31378,0.46302 -0.01249,0.27661 -0.07462,0.32987 -0.154339,0.1323 -0.0734,-0.18191 -0.480719,-0.33073 -0.905153,-0.33073 -0.610444,0 -0.771702,0.11748 -0.771702,0.56224 0,0.47971 0.112993,0.53964 0.769818,0.40827 1.028954,-0.20579 1.363263,0.54333 0.539975,1.20998 -0.728022,0.58952 -1.226524,0.6065 -0.746876,0.0254 0.311406,-0.37725 0.306599,-0.42083 -0.03375,-0.30599 -0.266117,0.0898 -0.384714,0.45266 -0.359965,1.10136 0.02029,0.53209 -0.05926,0.96745 -0.176797,0.96745 -0.117539,0 -0.378492,0.0632 -0.579898,0.14052 -0.201404,0.0773 -0.437452,0.0693 -0.524553,-0.0178 z m 7.615007,-0.0892 c -0.08888,-0.1438 -0.03078,-0.34231 0.129112,-0.44113 0.183525,-0.11342 0.262276,-0.97372 0.213595,-2.33338 l -0.07711,-2.15373 1.179782,0.0732 c 2.525675,0.15668 3.072249,0.66062 2.11736,1.95217 -0.297387,0.40224 -0.540703,0.80177 -0.540703,0.88785 0,0.0861 0.416719,0.33062 0.926042,0.54343 0.989293,0.41335 1.234546,0.90899 0.449792,0.90899 -0.261938,0 -0.609479,0.13323 -0.772314,0.29606 -0.21836,0.21836 -0.441978,0.0101 -0.852043,-0.79375 -0.385368,-0.75538 -0.726866,-1.08981 -1.112843,-1.08981 -0.56924,0 -0.57333,0.0433 -0.176524,1.86862 0.09621,0.44256 -1.229233,0.69395 -1.484149,0.28149 z m 2.382221,-3.20844 c 0.206378,0 0.375235,-0.1786 0.375235,-0.39688 0,-0.63536 -1.234017,-0.50082 -1.405046,0.15319 -0.108024,0.41309 -0.04443,0.51192 0.255365,0.39688 0.219565,-0.0843 0.568066,-0.15319 0.774446,-0.15319 z m 7.651277,2.8433 c -0.310701,-0.1853 -1.432674,-0.3014 -2.717634,-0.2812 l -2.188464,0.0344 1.029216,-0.74557 c 0.566071,-0.41005 1.286733,-1.1072 1.601473,-1.54921 l 0.572254,-0.80366 0.954019,0.64741 c 2.04738,1.38939 4.056427,1.38127 4.056427,-0.0164 0,-0.75459 -0.598569,-1.19709 -2.65149,-1.96011 -2.980528,-1.10781 -4.159795,-2.99565 -2.884233,-4.61726 0.95418,-1.21305 1.913969,-1.47346 4.796814,-1.30146 l 2.539785,0.15152 0.157896,0.78948 c 0.260969,1.30485 0.182845,2.57541 -0.158356,2.57541 -0.17394,0 -0.652849,-0.32248 -1.064247,-0.71662 -0.613624,-0.58789 -0.996474,-0.7186 -2.131145,-0.72761 -1.361553,-0.0108 -1.383149,0.001 -1.383149,0.77933 0,0.71914 0.17376,0.87499 1.929691,1.73081 2.218484,1.08125 2.960762,1.97907 2.963357,3.58433 0.0019,1.11183 -0.497004,1.80646 -1.7668,2.46045 -0.754951,0.38882 -2.981158,0.36809 -3.655414,-0.034 z m 14.089417,0.001 c -0.156522,-0.47109 -6.154291,-0.63564 -6.698745,-0.18378 -0.215601,0.17893 -0.44051,0.27683 -0.499795,0.21754 -0.05929,-0.0593 -0.154348,-2.40863 -0.211244,-5.22076 l -0.103449,-5.11297 0.812948,0.20159 c 1.15229,0.28574 6.250702,0.33982 6.973954,0.074 0.415372,-0.15267 0.632227,-0.11964 0.692494,0.10549 0.04826,0.18027 0.278648,0.97617 0.511979,1.76867 0.470273,1.59726 0.405654,1.88604 -0.28625,1.27931 -1.080754,-0.94781 -2.160487,-1.2651 -4.304726,-1.2651 h -2.14657 l 0.08291,0.8599 0.08291,0.85989 2.452558,0.0283 c 1.727819,0.0199 2.759167,0.16655 3.490145,0.49618 1.677953,0.75665 1.79727,2.00188 0.124862,1.3031 -0.711081,-0.2971 -1.489077,-0.34752 -3.278346,-0.21245 -1.290307,0.0974 -2.46054,0.2501 -2.600521,0.33932 -0.13998,0.0892 -0.338108,0.54758 -0.440285,1.01857 -0.281249,1.29646 0.545825,1.57982 3.511632,1.20314 1.262912,-0.1604 2.471973,-0.33222 2.686799,-0.38181 0.470815,-0.10869 0.651997,0.7931 0.41411,2.06115 -0.119126,0.635 -0.309637,0.89139 -0.662353,0.89139 -0.27232,0 -0.544579,-0.14883 -0.605017,-0.33073 z m 10.649124,-0.10401 c -0.530418,-0.30693 -1.352587,-0.34902 -4.150079,-0.21245 -1.91874,0.0937 -3.608218,0.0964 -3.754398,0.006 -0.170426,-0.10533 -0.121846,-0.50873 0.135416,-1.12445 0.307407,-0.73572 0.378595,-1.73947 0.304525,-4.2937 -0.05316,-1.83344 -0.151569,-3.51212 -0.21867,-3.7304 -0.09868,-0.32101 0.08029,-0.37159 0.936331,-0.26458 1.616991,0.20212 6.794955,0.15742 7.540625,-0.0651 0.617593,-0.1843 0.718842,-0.0721 1.52676,1.69234 0.475917,1.03935 0.8104,1.94463 0.743302,2.01173 -0.0671,0.0671 -0.754973,-0.24016 -1.528609,-0.68279 -1.373455,-0.78581 -1.467369,-0.80115 -3.984448,-0.65098 l -2.577838,0.1538 v 0.79141 0.79141 l 1.676228,-0.17173 c 1.305703,-0.13377 2.044393,-0.0541 3.341762,0.36034 0.91604,0.29264 2.119241,0.53207 2.673778,0.53207 1.059783,0 1.544699,0.34795 0.977652,0.7015 -0.184275,0.1149 -2.240045,0.21242 -4.568378,0.21672 l -4.233334,0.008 -0.08457,1.03328 -0.08457,1.03328 2.598111,-0.15993 c 1.428959,-0.088 3.122697,-0.34585 3.763859,-0.57309 0.641162,-0.22723 1.225841,-0.35305 1.299287,-0.27961 0.07344,0.0735 -0.05801,0.5212 -0.292119,0.99501 -0.234108,0.47382 -0.493633,1.1889 -0.576722,1.58909 -0.166823,0.80347 -0.475068,0.86516 -1.463906,0.29296 z m 4.341411,0.13088 c -0.08453,-0.13677 0.06354,-0.57086 0.329041,-0.96464 0.635373,-0.94236 0.779587,-6.65171 0.19653,-7.78043 -0.498346,-0.96474 -0.46881,-1.07451 0.226248,-0.84092 0.327421,0.11004 1.584377,0.17112 2.793232,0.13574 2.502445,-0.0733 4.715658,0.44829 5.478227,1.29092 0.781196,0.86321 1.168599,3.30945 0.766757,4.84163 -0.384974,1.46787 -0.95482,2.43103 -1.662313,2.80967 -0.272497,0.14584 -1.761718,0.28184 -3.309377,0.30223 -1.547661,0.0204 -3.230343,0.13098 -3.739292,0.24577 -0.537179,0.12115 -0.989836,0.10439 -1.079053,-0.04 z m 5.333433,-1.83196 c 1.923106,-0.34744 2.481808,-0.94054 2.490105,-2.64342 0.0048,-0.9804 -0.130844,-1.33479 -0.721719,-1.8859 -0.400183,-0.37325 -0.994363,-0.81582 -1.320401,-0.9835 -0.580165,-0.29838 -2.345962,-0.48161 -2.560817,-0.26572 -0.09493,0.0954 -0.242298,4.84627 -0.177782,5.73145 0.02941,0.40347 0.288584,0.4088 2.290614,0.0471 z m -0.695531,-2.39306 c -0.235934,-0.44085 -0.216043,-0.64371 0.09348,-0.95323 0.627449,-0.62745 1.510541,-0.19638 1.510541,0.73735 0,0.6483 -0.107257,0.77592 -0.652151,0.77592 -0.39334,0 -0.771093,-0.22226 -0.95187,-0.56004 z m -67.716816,3.76626 c 0,-0.14552 0.11907,-0.33816 0.26459,-0.4281 0.14552,-0.0899 0.26458,-0.0445 0.26458,0.10106 0,0.14552 -0.11906,0.33817 -0.26458,0.42811 -0.14552,0.0899 -0.26459,0.0445 -0.26459,-0.10107 z m 12.561793,-0.30538 c -0.114546,-0.18534 0.416121,-0.21648 1.638033,-0.0961 2.354773,0.23196 2.459249,0.37028 0.27968,0.37028 -0.961549,0 -1.824522,-0.12337 -1.917713,-0.27416 z m 8.192426,-0.10139 c -0.735589,-0.53788 -0.725223,-2.68721 0.01558,-3.22943 1.534298,-1.12303 3.579693,0.4097 3.043177,2.28043 -0.14046,0.48975 -0.406387,0.98631 -0.590947,1.10345 -0.535967,0.34019 -1.90885,0.25427 -2.467806,-0.15445 z m 2.017345,-0.42751 c 0.35397,-0.18944 0.511773,-0.55501 0.511773,-1.18559 0,-0.76598 -0.11226,-0.93986 -0.702411,-1.08798 -0.386323,-0.097 -0.892339,-0.0575 -1.124479,0.0878 -0.620173,0.38803 -0.700447,1.69849 -0.129614,2.11589 0.568018,0.41535 0.780068,0.4256 1.444731,0.0699 z m -1.047896,-0.61862 c -0.347892,-0.41918 -0.121401,-1.22416 0.344435,-1.22416 0.594312,0 0.943433,0.57744 0.664374,1.09887 -0.311489,0.58202 -0.600017,0.61786 -1.008809,0.12529 z m -12.681259,0.6205 c 0.04715,-0.2142 -0.07244,-0.35657 -0.26574,-0.31639 -0.214712,0.0446 -0.311544,-0.10979 -0.24887,-0.39688 0.05643,-0.25846 0.244346,-0.44016 0.417605,-0.40378 0.17326,0.0364 0.315016,-0.11245 0.315016,-0.33073 0,-0.53498 -0.65614,-0.49919 -2.2995,0.12542 -1.62801,0.61877 -1.58606,0.67619 -1.71684,-2.34995 l -0.0847,-1.95994 0.79375,-0.24222 c 0.68316,-0.20847 1.50776,-0.54277 2.33539,-0.9468 0.120304,-0.0587 0.179835,0.23331 0.132295,0.64898 -0.07589,0.66355 -0.215245,0.7719 -1.142205,0.88805 -0.72897,0.0913 -1.08305,0.27562 -1.14388,0.59531 -0.10933,0.57456 0.69587,0.63287 0.91334,0.0662 0.25376,-0.66129 0.62485,-0.44524 0.62485,0.3638 0,0.63353 -0.13268,0.78721 -0.79375,0.91943 -0.75023,0.15004 -1.08613,0.84973 -0.62791,1.30795 0.22204,0.22205 1.60507,-0.50778 1.76609,-0.93197 0.21142,-0.55698 1.505206,0.99851 1.526251,1.83497 0.01638,0.6514 0.04559,0.67633 0.245986,0.20998 0.169314,-0.39401 0.23214,-0.42138 0.245985,-0.10715 0.01024,0.23211 -0.228335,0.64549 -0.530143,0.91862 -0.409178,0.3703 -0.526938,0.39755 -0.46302,0.10715 z m 4.451948,-0.3233 c -2.65e-4,-0.10914 0.267287,-0.21225 0.594709,-0.22913 0.469474,-0.0242 0.494469,-0.0568 0.118242,-0.1544 -0.402505,-0.10437 -0.423182,-0.19003 -0.132292,-0.54801 0.297583,-0.36623 0.277363,-0.39901 -0.147701,-0.23948 -0.379248,0.14233 -0.455289,0.0879 -0.330729,-0.23669 0.08896,-0.23183 0.161751,-0.4713 0.161751,-0.53216 0,-0.0609 0.168672,-0.11065 0.374827,-0.11065 0.206153,0 0.43488,-0.14883 0.508278,-0.33073 0.07972,-0.19758 0.141861,-0.14432 0.154339,0.13229 0.01262,0.27967 0.230434,0.46302 0.550056,0.46302 0.673737,0 0.692189,0.53607 0.02447,0.71069 -0.57462,0.15027 -0.9173,1.06171 -0.459394,1.22188 0.166452,0.0582 -0.08404,0.0937 -0.556651,0.0788 -0.472612,-0.0149 -0.859565,-0.11632 -0.859896,-0.22546 z m 2.116063,-0.20674 c 0,-0.14096 0.178594,-0.25628 0.396875,-0.25628 0.218281,0 0.396875,0.0468 0.396875,0.10398 0,0.0572 -0.178594,0.17252 -0.396875,0.25628 -0.218281,0.0838 -0.396875,0.037 -0.396875,-0.10398 z m 60.248154,-0.43084 c -0.571505,-1.13105 -0.147994,-1.92946 1.028026,-1.93806 0.631076,-0.005 1.4300696,0.76275 1.4300696,1.37345 0,0.5209 -0.4722016,0.91297 -1.3713986,1.13865 -0.596704,0.14976 -0.766212,0.0602 -1.086697,-0.57404 z m -117.848151,0.15231 c -1.33201,-0.39434 -1.24494,-0.70415 0.15996,-0.56916 1.39261,0.13381 1.97505,-0.25452 1.0912,-0.72754 -0.29512,-0.15795 -0.53658,-0.41662 -0.53658,-0.57484 0,-0.19248 0.15322,-0.17972 0.46302,0.0386 0.25467,0.17943 -0.17561,-0.2643 -0.95616,-0.98607 -1.05813,-0.97845 -1.31705,-1.35151 -1.01771,-1.46638 0.22082,-0.0847 0.62405,-0.0958 0.89609,-0.0247 0.38241,0.10001 0.63343,-0.15916 1.10664,-1.14257 0.33662,-0.69956 0.4589,-1.12309 0.27175,-0.94119 -0.46562,0.45254 -0.77972,0.41595 -0.59357,-0.0692 0.1098,-0.28613 0.0322,-0.35334 -0.27289,-0.23627 -0.48908,0.18767 -0.56744,-0.17524 -0.13189,-0.6108 0.17161,-0.17161 0.20196,-0.44203 0.0727,-0.64823 -0.12193,-0.19458 -0.18519,-0.5753 -0.14057,-0.84604 0.0493,-0.29883 -0.0482,-0.44915 -0.24807,-0.38254 -0.18105,0.0604 -0.3614,0.3292 -0.40077,0.59743 -0.0394,0.26822 -0.25813,0.67424 -0.48614,0.90224 -0.37636,0.37636 -0.41456,0.35326 -0.41456,-0.25067 0,-0.36588 0.14883,-0.82558 0.33073,-1.02156 0.26458,-0.28505 0.26458,-0.31897 0,-0.16959 -0.203,0.11461 -0.33073,0.0274 -0.33073,-0.22577 0,-0.64945 1.32924,-0.50514 2.96989,0.32242 2.25486,1.13738 4.33179,2.94056 4.67437,4.05829 0.37352,1.21865 0.36923,1.29222 -0.0753,1.29222 -0.20271,0 -0.43514,0.17348 -0.5165,0.38551 -0.11911,0.31039 -0.0215,0.33745 0.50086,0.13884 0.63479,-0.24134 0.64879,-0.21825 0.64879,1.0697 0,0.98314 -0.1402,1.45657 -0.55384,1.87021 -0.53046,0.53046 -1.20786,0.57335 -3.28261,0.20785 -0.14553,-0.0256 -0.74084,0.0225 -1.32292,0.10696 -0.58208,0.0845 -1.43943,0.0407 -1.90521,-0.0971 z m 2.16979,-0.24234 c 0.33355,-0.14333 0.38245,-0.22739 0.13229,-0.22739 -0.21828,0 -0.635,0.10233 -0.92604,0.22739 -0.33354,0.14333 -0.38245,0.22739 -0.13229,0.22739 0.21828,0 0.635,-0.10232 0.92604,-0.22739 z m 2.90855,-0.26155 c 0.0971,-0.15712 -0.0287,-0.19017 -0.31512,-0.0828 -0.41891,0.1571 -0.4327,0.12463 -0.11364,-0.26762 0.41212,-0.50664 0.0428,-0.61423 -0.4425,-0.12891 -0.20685,0.20686 -0.3175,0.21815 -0.3175,0.0324 0,-0.15681 0.18179,-0.43597 0.40397,-0.62037 0.4291,-0.35612 1.97728,-2.56249 1.97728,-2.8179 0,-0.0833 -0.16701,-0.0128 -0.37114,0.1566 -0.28494,0.23648 -0.40606,0.22864 -0.52147,-0.0337 -0.10698,-0.24323 -0.1435,-0.22734 -0.12667,0.0551 0.0562,0.94241 -0.0789,1.32972 -0.73629,2.11094 -0.4038,0.47989 -0.855,0.76809 -1.07208,0.68479 -0.20724,-0.0795 -0.30256,-0.0269 -0.21318,0.11772 0.0889,0.14385 0.006,0.27061 -0.1847,0.28168 -0.19049,0.0111 0.0704,0.18061 0.5797,0.37675 1.16125,0.44719 1.25518,0.45594 1.45334,0.13532 z m -2.51167,-0.92077 c 0,-0.24583 -0.15394,-0.3295 -0.41906,-0.22776 -0.33741,0.12947 -0.35029,0.2044 -0.0661,0.38452 0.46993,0.29789 0.48521,0.29295 0.48521,-0.15676 z m 3.88061,-1.11067 c -0.10005,-0.10006 -0.35549,0.0475 -0.56764,0.32793 -0.58103,0.76801 -0.47875,0.99832 0.1735,0.39066 0.31683,-0.29517 0.4942,-0.61854 0.39414,-0.71859 z m -2.76269,-0.61153 c -0.04,-0.35432 -0.19957,-0.72263 -0.35463,-0.81847 -0.17003,-0.10508 0.0689,-0.50302 0.60186,-1.00253 0.91622,-0.85866 1.28068,-1.01977 1.28068,-0.56614 0,0.14552 -0.15875,0.26458 -0.35278,0.26458 -0.21558,0 -0.35278,0.30868 -0.35278,0.79375 0,0.43656 0.0279,0.79375 0.0621,0.79375 0.0341,0 0.31546,-0.42947 0.62517,-0.95439 l 0.5631,-0.95438 -0.57745,-0.50083 c -0.3176,-0.27545 -0.70806,-0.49899 -0.8677,-0.49677 -0.16281,0.002 -0.1352,0.10234 0.0629,0.22789 0.26966,0.17094 0.16714,0.37321 -0.43379,0.85585 -0.43279,0.3476 -1.04491,1.16779 -1.36026,1.82263 -0.55986,1.16257 -0.56044,1.17504 -0.0249,0.52917 l 0.54851,-0.66146 -0.2483,0.69049 c -0.22026,0.61249 -0.18339,0.68656 0.32635,0.65578 0.44506,-0.0269 0.55826,-0.17997 0.50195,-0.67892 z m 0.94764,0.1194 c -0.0815,-0.0815 -0.2294,0.0654 -0.32876,0.32632 -0.14359,0.37708 -0.1132,0.40747 0.14811,0.14811 0.18082,-0.17948 0.26212,-0.39297 0.18065,-0.47443 z m -1.80736,-1.77894 c 0.58563,-0.9095 1.035,-1.8752 0.9986,-2.14599 -0.0364,-0.27078 -0.54169,-0.74703 -1.12286,-1.05833 -0.58118,-0.3113 -1.14177,-0.68406 -1.24576,-0.82836 -0.11994,-0.16645 -0.31401,-0.13575 -0.53081,0.084 -0.27968,0.28344 -0.25285,0.41198 0.14777,0.70779 0.30107,0.22231 0.41088,0.49556 0.28525,0.70979 -0.11235,0.19159 0.0283,0.14511 0.31247,-0.10328 0.49335,-0.43119 0.51464,-0.4252 0.47047,0.13229 -0.0817,1.03053 -0.4285,2.31043 -0.66584,2.45712 -0.31673,0.19575 -0.29217,1.69867 0.0278,1.69867 0.14199,0 0.73732,-0.74414 1.32295,-1.65365 z m -1.19142,0.662 c 0.10036,-0.39988 0.20257,-0.73123 0.22712,-0.73633 0.0246,-0.005 0.27009,-0.18293 0.54565,-0.39519 0.45884,-0.35345 0.45282,-0.29147 -0.0715,0.73632 -0.65455,1.28302 -0.96848,1.45994 -0.70125,0.3952 z m 0.66863,-1.83164 c 0,-0.33796 1.01556,-1.27643 1.19121,-1.10079 0.0713,0.0713 -0.16756,0.40882 -0.53079,0.75006 -0.36323,0.34123 -0.66042,0.49906 -0.66042,0.35073 z m 0.14931,-1.22302 c 0.0994,-0.26094 0.2473,-0.40778 0.32876,-0.32632 0.0815,0.0815 1.7e-4,0.29496 -0.18065,0.47443 -0.26131,0.25936 -0.2917,0.22897 -0.14811,-0.14811 z m 3.71115,1.99773 c -0.18349,-0.18348 -0.68546,0.18932 -0.68546,0.50909 0,0.17544 0.15182,0.15537 0.40327,-0.0533 0.2218,-0.18408 0.34878,-0.38917 0.28219,-0.45577 z m -7.03546,4.16524 c -0.31172,-0.20145 -0.31896,-0.25735 -0.0338,-0.26053 0.28255,-0.003 0.29438,-0.0869 0.0533,-0.37737 -0.2118,-0.25521 -0.22205,-0.42757 -0.0324,-0.54478 0.15258,-0.0943 0.27743,-0.0454 0.27743,0.10873 0,0.15411 0.20836,0.28203 0.46302,0.28425 0.39569,0.003 0.40531,0.0413 0.0661,0.26054 -0.32093,0.2074 -0.28295,0.25725 0.19844,0.26053 0.32742,0.002 0.59531,0.12311 0.59531,0.26863 0,0.337 -1.06603,0.337 -1.5875,0 z m 43.656247,-0.13229 c 0,-0.21828 0.11907,-0.39687 0.26459,-0.39687 0.14552,0 0.26458,0.17859 0.26458,0.39687 0,0.21828 -0.11906,0.39688 -0.26458,0.39688 -0.14552,0 -0.26459,-0.1786 -0.26459,-0.39688 z m 2.37623,-0.27064 c -0.27961,-0.33691 -0.26324,-0.37562 0.0999,-0.23627 0.23887,0.0917 0.4343,0.27297 0.4343,0.40293 0,0.34024 -0.15316,0.29246 -0.53419,-0.16666 z m -7.76357,-0.78769 c -0.0838,-0.21828 -0.037,-0.39688 0.10398,-0.39688 0.14095,0 0.25628,0.1786 0.25628,0.39688 0,0.21828 -0.0468,0.39687 -0.10398,0.39687 -0.0572,0 -0.17252,-0.17859 -0.25628,-0.39687 z m 18.571266,-2.11605 c 0.07152,-1.63098 0.01591,-1.98499 -0.31183,-1.98499 -0.219382,0 -0.591645,0.19276 -0.827251,0.42837 -0.538613,0.53861 -0.657373,0.42224 -0.484952,-0.47519 0.124206,-0.6465 0.294354,-0.73498 1.950471,-1.01432 0.997918,-0.16832 1.9382,-0.22952 2.089518,-0.136 0.151318,0.0935 0.275121,0.48447 0.275121,0.86879 0,0.54348 -0.07056,0.62821 -0.3175,0.38126 -0.174625,-0.17462 -0.591343,-0.3175 -0.926041,-0.3175 -0.561237,0 -0.608542,0.11312 -0.608542,1.45521 v 1.45521 l 0.992188,0.0348 0.992187,0.0348 -0.926042,0.19492 c -0.509323,0.10721 -0.806979,0.21482 -0.661458,0.23913 0.235418,0.0393 -0.86083,0.78554 -1.190625,0.81045 -0.07276,0.005 -0.09312,-0.88326 -0.04524,-1.975 z m 2.624932,1.21872 c 0.519451,-0.50478 0.595312,-0.84797 0.595312,-2.69316 0,-1.44775 0.104304,-2.15463 0.330729,-2.2414 0.181901,-0.0697 0.985573,-0.15526 1.785938,-0.19013 1.408848,-0.0614 1.457875,-0.0402 1.538927,0.66421 0.09307,0.80887 -0.0019,0.86576 -0.708834,0.42431 -0.269997,-0.16862 -0.797089,-0.22512 -1.187035,-0.12725 -1.062461,0.26666 -0.87517,1.1798 0.200404,0.97707 0.308205,-0.0581 0.691414,0.5531 0.52034,0.8299 -0.07175,0.11609 -0.421079,0.21107 -0.776293,0.21107 -0.469453,0 -0.645843,0.14452 -0.645843,0.52917 0,0.3898 0.17639,0.52916 0.669761,0.52916 0.368372,0 0.738296,-0.17859 0.822058,-0.39687 0.251031,-0.65418 0.624848,-0.4489 0.624848,0.34313 0,0.70024 -0.08888,0.75569 -1.653646,1.03178 -0.909505,0.16047 -1.891771,0.3808 -2.182812,0.48964 -0.484124,0.18103 -0.478494,0.14863 0.06615,-0.38063 z m -12.633858,-0.2933 c 0,-0.29104 0.11907,-0.52916 0.26459,-0.52916 0.14552,0 0.26458,0.23812 0.26458,0.52916 0,0.29104 -0.11906,0.52917 -0.26458,0.52917 -0.14552,0 -0.26459,-0.23813 -0.26459,-0.52917 z m 6.614587,0.13229 c -0.189852,-0.22875 -0.215567,-0.39687 -0.0607,-0.39687 0.14777,0 0.337204,0.17859 0.420968,0.39687 0.08376,0.21829 0.111078,0.39688 0.0607,0.39688 -0.05037,0 -0.239811,-0.17859 -0.420968,-0.39688 z m 10.814383,-0.094 c -0.01844,-0.0938 -0.04821,-1.27183 -0.06615,-2.61781 l -0.03261,-2.44724 1.607526,-1.6e-4 c 1.343499,-1.3e-4 1.703073,0.10155 2.189282,0.61909 0.601464,0.64023 0.800716,1.94469 0.460208,3.01287 -0.128617,0.40348 -0.537575,0.68592 -1.296411,0.89537 -2.028367,0.55983 -2.827986,0.71012 -2.861847,0.53788 z m 2.629477,-1.63609 c 0.318481,-0.29671 0.579056,-0.77296 0.579056,-1.05834 0,-0.72441 -0.929886,-1.57719 -1.719791,-1.57719 -0.632061,0 -0.661459,0.0706 -0.661459,1.5875 0,1.48241 0.04048,1.5875 0.611569,1.5875 0.336362,0 0.872143,-0.24276 1.190625,-0.53947 z m -1.025179,-0.67132 c -0.286856,-0.34564 -0.28108,-0.45725 0.03375,-0.65189 0.455573,-0.28166 1.195171,0.34136 0.924721,0.77896 -0.248808,0.40258 -0.552293,0.36234 -0.958469,-0.12707 z m -11.928718,1.81763 c -0.398965,-0.0613 -0.755785,-0.31841 -0.82868,-0.59717 -0.112882,-0.43166 -0.04035,-0.45899 0.613301,-0.23112 0.407728,0.14213 0.806665,0.4287 0.886524,0.63681 0.07986,0.20812 0.119171,0.36055 0.08736,0.33875 -0.03181,-0.0218 -0.373142,-0.0881 -0.758505,-0.14727 z m 1.312511,-0.25841 c 0.190994,-0.0764 0.419198,-0.067 0.507119,0.0209 0.08792,0.0879 -0.06835,0.15046 -0.347266,0.13897 -0.308226,-0.0127 -0.370919,-0.0754 -0.159853,-0.15985 z m 3.161548,-0.006 c 0.329118,-0.0633 0.805368,-0.0609 1.058334,0.005 0.252965,0.0662 -0.01632,0.118 -0.598398,0.11506 -0.582083,-0.003 -0.789054,-0.0571 -0.459936,-0.1204 z m 59.594311,-0.21797 c 0,-0.0773 0.503454,-0.5833 1.118788,-1.12448 0.615336,-0.54118 1.567836,-1.45026 2.1166666,-2.02018 0.932698,-0.96852 0.997878,-0.99539 0.997878,-0.41135 0,0.66973 -1.20116,2.10902 -1.7600846,2.10902 -0.185994,0 -0.744982,0.35719 -1.2422,0.79375 -0.867505,0.76168 -1.231048,0.95459 -1.231048,0.65324 z m -73.81875,-0.31512 c 0,-0.15582 0.42086,-0.65282 0.93525,-1.10446 0.69501,-0.61023 1.19341,-0.82116 1.94028,-0.82116 1.56227,0 1.31604,0.69365 -0.31479,0.8868 -0.83195,0.0985 -1.54916,0.37178 -1.94027,0.73921 -0.34126,0.3206 -0.62047,0.45542 -0.62047,0.29961 z m -43.920827,-0.59191 c -0.21828,-0.23639 -0.4219,-0.78201 -0.45247,-1.21248 -0.0306,-0.43048 0.009,-0.63386 0.0882,-0.45196 0.2433,0.5596 0.62886,0.3664 0.62886,-0.31511 0,-0.35521 0.12383,-0.72238 0.27519,-0.81592 0.17193,-0.10626 0.2278,0.0616 0.14889,0.44741 -0.28537,1.39524 -0.39451,2.18524 -0.25869,1.8726 0.21553,-0.49613 0.63022,-0.12016 0.44892,0.407 -0.12265,0.3566 -0.065,0.34052 0.26772,-0.0746 0.23323,-0.29104 0.42784,-0.38737 0.43247,-0.21405 0.0193,0.7225 -1.02385,0.95843 -1.57908,0.35713 z m 46.179467,-0.0265 c 0.0846,-0.1369 0.58338,-0.24891 1.10836,-0.24891 1.17108,0 1.06455,0.13866 -0.26408,0.34375 -0.59513,0.0919 -0.936,0.0536 -0.84428,-0.0948 z m -36.704077,-1.48799 c 0.19099,-0.0764 0.4192,-0.067 0.50712,0.0209 0.0879,0.0879 -0.0684,0.15045 -0.34727,0.13897 -0.30822,-0.0127 -0.37092,-0.0754 -0.15985,-0.15986 z m 109.141831,-2.1369 c 0.211304,-2.02164 0.836888,-3.72754 1.695678,-4.62392 1.2717216,-1.32739 2.0788566,-0.59918 1.0033176,0.90521 -1.3708456,1.91745 -2.0541686,3.23535 -2.1856086,4.2153 -0.225343,1.68007 -0.693555,1.22718 -0.513387,-0.49659 z m -69.867744,1.06285 c -2.13706,-0.10172 -2.11381,-0.0701 -1.5087,-2.0525 0.46853,-1.53492 0.46274,-4.49543 -0.0153,-7.80521 -0.17864,-1.23692 -0.34043,-2.03259 -0.35954,-1.76814 -0.0425,0.58794 -1.63257,2.55052 -2.07179,2.55712 -0.46281,0.007 -1.66711,-1.67104 -1.66711,-2.32286 0,-0.92426 0.57214,-1.8891 1.43729,-2.42379 0.8861,-0.54764 4.20413,-1.39019 5.05103,-1.2826 0.95052,0.12074 5.418748,-0.36783 5.567671,-0.60879 0.08034,-0.13 0.31764,-0.23635 0.527333,-0.23635 0.274495,0 0.381259,0.32772 0.381259,1.17032 0,0.8858 -0.173886,1.37698 -0.71525,2.02035 -0.759016,0.90204 -2.048767,1.56918 -3.046564,1.57588 -1.172183,0.008 -1.243626,0.233 -1.342818,4.2316 -0.08887,3.58273 -0.01267,4.62647 0.468291,6.41383 0.164552,0.61151 0.117337,0.71921 -0.295913,0.67503 -0.270439,-0.0289 -1.354909,-0.0937 -2.409929,-0.14389 z m 0.59832,-6.88081 -0.003,-5.46108 2.368662,-0.34227 c 2.174808,-0.31425 3.424525,-0.86126 2.980991,-1.3048 -0.09631,-0.0963 -0.68453,-0.0399 -1.307166,0.12527 -0.622633,0.1652 -2.322687,0.35078 -3.777897,0.4124 -2.94804,0.12484 -3.61729,0.31028 -4.84356,1.34212 -0.97163,0.81757 -1.07104,1.19313 -0.31581,1.19313 0.29104,0 0.52916,-0.12081 0.52916,-0.26847 0,-0.49212 1.70648,-1.31704 2.72656,-1.31804 l 1.00677,-9.9e-4 -0.0807,5.64678 c -0.0705,4.93401 -0.0302,5.63354 0.31915,5.5419 0.34062,-0.0893 0.39945,-0.91433 0.39688,-5.56595 z m 66.65596,5.6074 c -0.09941,-0.6629 -0.109834,-1.64225 -0.02318,-2.17632 0.27101,-1.67003 1.751415,-4.27308 3.47126,-6.10363 0.909224,-0.96776 1.9674806,-2.35392 2.3516796,-3.08037 l 0.698558,-1.32081 v 0.95204 c 0,0.67978 -0.26357,1.29722 -0.921681,2.15912 -1.2163606,1.59302 -4.5958146,8.45535 -4.8034676,9.75394 -0.218951,1.36924 -0.552141,1.28996 -0.773171,-0.18397 z m -43.772513,0.3 c -0.509323,-0.18635 -1.729714,-0.49746 -2.711979,-0.69135 -1.726555,-0.34081 -2.092241,-0.63706 -1.507787,-1.22152 0.568201,-0.5682 1.038569,-3.20852 1.041625,-5.84695 l 0.0031,-2.71198 h -0.774547 c -0.845098,0 -1.871287,1.02667 -1.871287,1.87215 0,0.74222 -0.39992,0.81329 -0.952973,0.16935 -1.959825,-2.28188 -2.151349,-3.11345 -0.965256,-4.19104 1.719276,-1.562 3.640627,-1.89702 7.826936,-1.36474 3.314343,0.42142 3.366304,0.41449 6.328273,-0.84358 0.396475,-0.1684 0.46302,-0.0449 0.46302,0.85918 0,0.90153 -0.159628,1.20007 -1.092094,2.0425 -1.271881,1.14907 -3.237524,2.09108 -3.965895,1.9006 -0.279164,-0.073 -0.68407,0.0438 -0.89979,0.25949 -0.569944,0.56995 -0.505849,3.97452 0.134456,7.14187 0.289671,1.43289 0.527796,2.69456 0.529167,2.8037 0.0035,0.27591 -0.499401,0.21954 -1.58501,-0.17768 z m -0.733708,-6.70148 0.07225,-4.69636 2.280164,-0.13704 c 1.338318,-0.0804 2.458529,-0.28507 2.711979,-0.49542 0.710827,-0.58993 0.48854,-0.86567 -0.348795,-0.43267 -0.937085,0.48459 -1.88744,0.50088 -5.5572,0.0953 -2.633083,-0.29104 -2.861133,-0.27697 -4.047085,0.2497 -1.041887,0.4627 -1.256771,0.67779 -1.256771,1.25798 v 0.69986 l 0.775041,-0.65216 c 0.52678,-0.44325 1.265066,-0.71338 2.304828,-0.84329 1.404086,-0.17543 1.571493,-0.14008 2.037334,0.4302 0.464137,0.56819 0.492985,0.9161 0.337278,4.06753 -0.09365,1.89541 -0.224581,3.72822 -0.29096,4.0729 -0.143417,0.74471 0.02249,1.07986 0.53453,1.07986 0.307014,0 0.388278,-0.85302 0.447408,-4.69635 z m 37.113916,6.25545 c -0.436562,-0.0955 -1.649926,-0.18766 -2.696363,-0.20488 -1.202706,-0.0198 -1.980092,-0.15297 -2.113222,-0.36203 -0.212064,-0.33302 -1.426086,-4.77256 -1.328304,-4.85746 0.02886,-0.0251 0.88591,0.23733 1.904556,0.58308 2.230403,0.75706 3.577677,0.97676 4.068794,0.66351 0.501777,-0.32006 0.281995,-0.58636 -1.465501,-1.77572 -1.790885,-1.21888 -3.324106,-2.82236 -3.582318,-3.74646 -0.245245,-0.8777 0.576723,-2.47876 1.673514,-3.25974 0.657653,-0.46829 1.501611,-0.66919 3.908594,-0.93043 1.688409,-0.18324 3.385251,-0.41234 3.77076,-0.50911 0.632912,-0.15886 0.718608,-0.09 0.883123,0.70971 0.262631,1.27664 1.231638,3.92033 1.497074,4.08438 0.325559,0.20121 0.279159,1.16688 -0.05607,1.16688 -0.155231,0 -0.669042,-0.29503 -1.141799,-0.65562 -1.063633,-0.81127 -4.16615,-1.34499 -4.954937,-0.85238 -0.839097,0.52402 -0.573863,0.91665 1.186939,1.757 1.937163,0.92452 3.586068,2.57858 3.642995,3.65437 0.120521,2.27759 -0.292316,3.45631 -1.427524,4.0758 -0.792279,0.43235 -2.783716,0.67484 -3.770313,0.4591 z m 2.041996,-1.72166 c 1.653791,-0.73855 1.903256,-2.62627 0.494474,-3.7417 -0.230891,-0.18282 -1.330751,-0.94304 -2.444133,-1.68938 -2.777114,-1.8616 -3.205964,-2.85022 -1.763062,-4.06434 0.819809,-0.68982 0.906479,-0.70414 3.175,-0.52459 1.565916,0.12393 2.332183,0.0935 2.332183,-0.0925 0,-0.49453 -0.484375,-0.60002 -2.857939,-0.62241 -3.152031,-0.0297 -4.285811,0.60521 -4.285811,2.40019 0,1.1845 0.574834,1.79419 3.357854,3.56145 1.046456,0.66451 2.031603,1.44916 2.189218,1.74367 0.380714,0.71137 0.07974,1.81285 -0.593863,2.17335 -0.594159,0.31799 -3.992454,0.11146 -5.100986,-0.31001 -0.589873,-0.22426 -0.645973,-0.18106 -0.645973,0.49751 0,0.40871 0.05211,0.79271 0.115808,0.85335 0.06369,0.0606 1.224553,0.14274 2.579688,0.18245 1.847786,0.0542 2.709844,-0.0376 3.447542,-0.36706 z m -54.810671,1.08127 c -0.500687,-0.35356 -1.661546,-1.0164 -2.579687,-1.47296 -0.918141,-0.45657 -1.669346,-0.90969 -1.669346,-1.00693 0,-0.0973 0.355354,-0.38672 0.789675,-0.64328 0.91404,-0.53994 1.995064,-2.0721 2.924085,-4.14438 1.261629,-2.81419 2.512227,-4.88031 3.181316,-5.25586 0.900734,-0.50557 2.510922,-0.19708 3.253978,0.62341 0.311613,0.34409 1.331627,2.15197 2.266696,4.01751 0.935069,1.86555 2.095928,3.88819 2.579687,4.49477 0.483759,0.60657 0.879563,1.21392 0.879563,1.34966 0,0.19648 -1.89779,1.15393 -4.129337,2.08328 -0.176982,0.0737 -0.357907,-0.3525 -0.457221,-1.07706 -0.239276,-1.74572 -0.852651,-3.06405 -1.419211,-3.05033 -0.262089,0.006 -1.190898,0.15959 -2.064023,0.34052 -1.304549,0.27034 -1.60237,0.43181 -1.670928,0.90595 -0.07188,0.4971 -0.153371,0.53329 -0.588709,0.26142 -0.621226,-0.38796 -0.919697,-0.10997 -1.138343,1.06026 -0.160809,0.86065 0.01453,1.00937 1.046821,0.88792 0.176369,-0.0208 0.243652,0.23223 0.167592,0.63011 -0.154344,0.8074 -0.22384,0.8072 -1.372608,-0.004 z m 1.523217,-5.51889 c 0.146646,-0.0906 1.318895,-0.23393 2.605,-0.31845 l 2.338375,-0.15366 0.730853,1.67625 c 0.401968,0.92194 0.72939,1.89735 0.727604,2.16758 -0.0024,0.3646 0.116173,0.44216 0.459772,0.30071 0.254661,-0.10484 0.67138,-0.25053 0.926042,-0.32375 0.604292,-0.17375 0.591214,-0.50534 -0.0263,-0.66683 -0.452993,-0.11846 -2.333845,-3.4355 -2.824377,-4.98103 -0.351713,-1.10816 -1.531011,-2.66999 -2.21134,-2.92866 -0.941247,-0.35786 -1.617919,0.4364 -2.932485,3.44207 -0.595982,1.36268 -1.430153,2.98129 -1.853711,3.59691 -0.702357,1.02084 -0.733274,1.15613 -0.351427,1.53798 0.381844,0.38185 0.494622,0.2602 1.282025,-1.38283 0.474842,-0.99083 0.983329,-1.87566 1.129975,-1.96629 z m 0.467879,-1.15413 c -0.07936,-0.0794 0.227139,-0.84117 0.681111,-1.69291 0.548177,-1.02849 0.988952,-1.54861 1.312355,-1.54861 0.578136,0 2.195317,2.6415 1.836719,3.0001 -0.25771,0.25771 -3.603035,0.46856 -3.830185,0.24142 z m 2.322219,-1.25715 c -0.08376,-0.21828 -0.245883,-0.39687 -0.360265,-0.39687 -0.114382,0 -0.2765,0.17859 -0.360265,0.39687 -0.103073,0.26861 0.01336,0.39688 0.360265,0.39688 0.346906,0 0.463338,-0.12827 0.360265,-0.39688 z m 38.13661,8.05946 c -1.164167,-0.11689 -3.759795,-0.25168 -5.768062,-0.29954 -3.510555,-0.0837 -3.645083,-0.10741 -3.487759,-0.61617 0.537385,-1.7378 0.704943,-2.86419 0.689478,-4.63493 -0.02591,-2.96679 -0.444664,-5.43765 -1.070512,-6.31658 -0.302281,-0.42451 -0.549603,-0.81378 -0.549603,-0.86505 0,-0.0513 2.184037,-0.05 4.853416,0.003 4.101388,0.0812 4.982818,0.0292 5.688541,-0.33576 0.45932,-0.23753 0.841069,-0.39904 0.848331,-0.35892 0.0073,0.0401 0.06284,1.05219 0.123505,2.24905 l 0.110297,2.17612 -2.929117,-0.1676 c -2.787301,-0.15947 -2.924175,-0.14314 -2.827031,0.33743 0.09246,0.45738 0.326252,0.49944 2.478646,0.4459 1.591826,-0.0396 2.899505,-0.24091 3.960296,-0.60969 0.871059,-0.30281 1.757773,-0.57387 1.970479,-0.60234 0.655654,-0.0878 0.587442,0.69411 -0.161295,1.84883 -1.106231,1.70607 -4.178234,2.99419 -7.140723,2.99419 -0.733412,0 -0.889929,0.0998 -0.889929,0.56716 0,0.54154 0.08265,0.55948 1.829578,0.39712 1.006269,-0.0935 2.385357,-0.40827 3.064645,-0.69945 0.679286,-0.29118 1.386843,-0.52941 1.572347,-0.52941 0.282652,0 1.098352,3.00109 1.294453,4.7625 0.05435,0.48816 -0.76413,0.54501 -3.659981,0.25425 z m 1.719792,-2.27109 c 0,-0.59045 -0.08641,-0.66595 -0.595313,-0.52012 -1.10296,0.31607 -5.084453,0.46718 -6.151562,0.23347 l -1.058334,-0.23178 -0.0779,-1.60904 -0.07789,-1.60904 2.98831,-0.12164 c 3.030548,-0.12335 5.271566,-0.75055 6.055088,-1.69463 0.417173,-0.50267 0.263271,-0.47015 -1.418109,0.29961 -1.914869,0.87665 -5.189074,1.16521 -6.583706,0.58022 -0.932337,-0.39108 -0.969526,-0.4585 -1.058334,-1.91882 -0.06199,-1.0193 0.01318,-1.55379 0.230217,-1.63688 0.177244,-0.0679 1.516814,-0.0823 2.976822,-0.0322 2.386584,0.082 2.654532,0.0445 2.654302,-0.37182 -2.35e-4,-0.41811 -0.346985,-0.46302 -3.575261,-0.46302 h -3.575003 l 0.201565,1.12448 c 0.110861,0.61846 0.19004,2.75674 0.175953,4.75173 l -0.02561,3.62724 1.877697,0.0769 c 1.032733,0.0423 3.038555,0.10597 4.457383,0.14147 l 2.579687,0.0645 v -0.69072 z m -18.927101,2.00556 c -2.925893,-0.60214 -4.834946,-3.32691 -4.527167,-6.46157 0.239453,-2.43878 1.225995,-3.68004 3.882626,-4.88511 3.007825,-1.36438 6.887273,0.0552 8.222324,3.00882 0.829053,1.83414 0.293814,5.3228 -1.051859,6.85594 -1.057244,1.20453 -4.29794,1.94044 -6.525924,1.48192 z m 4.001502,-2.21881 c 1.189379,-0.59943 1.737141,-1.31246 2.097755,-2.73069 0.621604,-2.44463 -0.706668,-4.6433 -3.109627,-5.14733 -1.940658,-0.40706 -3.096115,-0.12419 -4.396494,1.07632 -1.05559,0.97451 -1.097285,1.07422 -1.097285,2.62392 0,2.50055 0.605438,3.57529 2.513541,4.46187 0.944706,0.43895 2.822636,0.30531 3.99211,-0.28409 z m -3.483739,-0.91748 c -2.609588,-1.18522 -2.960841,-3.81542 -0.742559,-5.56032 1.031095,-0.81106 3.563769,-0.78615 4.350332,0.0428 1.69476,1.78605 1.196433,4.23428 -1.101079,5.40948 -1.398836,0.71552 -1.189077,0.70648 -2.506694,0.10805 z m 2.617128,-1.82785 c 0.854438,-0.89184 0.886905,-1.34412 0.16259,-2.26494 -0.725509,-0.92234 -1.88703,-0.93163 -2.796289,-0.0224 -0.782929,0.78293 -0.699913,1.79622 0.210254,2.56637 0.787244,0.66615 1.608481,0.57158 2.423445,-0.27906 z m -78.260514,2.79821 c -0.24623,-0.61539 -1.30096,-2.49062 -2.34384,-4.16719 -2.30228,-3.70123 -3.1725,-5.47764 -2.79703,-5.70969 0.72911,-0.45061 2.90002,2.7444 4.53139,6.66903 0.65649,1.57934 1.27132,3.19894 1.36629,3.59912 0.26788,1.12885 -0.2572,0.85738 -0.75681,-0.39127 z m -5.38873,-1.22692 c -0.16855,-0.56259 -0.29256,-1.72345 -0.27558,-2.57969 l 0.0309,-1.55681 0.36323,1.82816 c 0.19978,1.00549 0.54307,2.10263 0.76287,2.43809 0.51398,0.78443 0.50331,0.89313 -0.0876,0.89313 -0.33645,0 -0.58215,-0.31663 -0.79375,-1.02288 z m 2.75534,0.60729 c -0.77935,-0.77935 -1.71068,-2.62447 -2.122,-4.20406 -0.55682,-2.13835 -0.502,-2.95331 0.0958,-1.42466 0.26495,0.67746 1.03329,2.2436 1.70742,3.48031 0.67414,1.23672 1.2257,2.31955 1.2257,2.40629 0,0.29737 -0.49144,0.15763 -0.90695,-0.25788 z m 28.688197,-4.3313 c 0,-0.13693 0.11906,-0.32255 0.26458,-0.41249 0.14552,-0.0899 0.26459,0.0221 0.26459,0.24897 0,0.22687 -0.11907,0.41249 -0.26459,0.41249 -0.14552,0 -0.26458,-0.11203 -0.26458,-0.24897 z m -0.60583,-4.24894 c -0.0761,-0.29105 -0.0942,-0.52917 -0.0402,-0.52917 0.054,0 0.22566,0.23812 0.38142,0.52917 0.15646,0.29234 0.17443,0.52916 0.0402,0.52916 -0.13367,0 -0.30531,-0.23812 -0.38142,-0.52916 z m 1.29997,-0.14252 c -0.25531,-0.66535 -0.17999,-0.83703 0.13191,-0.30066 0.15443,0.26558 0.22505,0.5386 0.15693,0.60672 -0.0681,0.0681 -0.1981,-0.0696 -0.28884,-0.30606 z m -34.839427,23.04589 c 0.41127,-0.49555 -0.077,-1.47212 -0.7361,-1.47212 -0.25682,0 -0.58005,-0.11271 -0.7183,-0.25047 -0.3624,-0.36112 -0.43887,1.32032 -0.0797,1.75306 0.38181,0.46006 1.13952,0.445 1.53413,-0.0305 z m 128.6468496,-1.64542 c 0.999259,-0.90432 0.228756,-2.13419 -1.0375,-1.65605 -0.657294,0.2482 -0.81265,1.24159 -0.277813,1.77643 0.428347,0.42835 0.740545,0.39977 1.315313,-0.12038 z M -132.83834,174.62305 c 0,-0.66292 -0.11619,-0.80719 -0.70489,-0.87528 -0.52539,-0.0608 -0.74994,0.0604 -0.88176,0.47572 -0.22557,0.71072 0.31455,1.37506 1.03433,1.27223 0.41976,-0.06 0.55232,-0.26942 0.55232,-0.87267 z m -0.0216,-2.40956 c 0.69208,-0.26557 0.51793,-1.4022 -0.26017,-1.69803 -0.95377,-0.36262 -1.11518,-0.3291 -1.30569,0.27113 -0.38221,1.20424 0.36699,1.88695 1.56586,1.4269 z m 129.1183836,-0.34655 c 0.366152,-0.4046 0.399317,-0.61862 0.163989,-1.05834 -0.405064,-0.75687 -2.020234,-0.77977 -2.257565,-0.032 -0.418516,1.31862 1.148445,2.13469 2.093576,1.09034 z M -132.59262,168.78332 c 0.50528,-0.50528 0.51439,-0.67114 0.0702,-1.27858 -0.42544,-0.58182 -1.47162,-0.47613 -1.87638,0.18957 -0.23701,0.38981 -0.17466,0.57557 0.33302,0.99219 0.75636,0.6207 0.93736,0.6326 1.47314,0.0968 z m 128.9503566,-0.43089 c 0.920139,-0.92014 -0.400669,-2.63044 -1.394457,-1.80567 -0.789287,0.65505 -0.337323,2.12317 0.653624,2.12317 0.232833,0 0.566208,-0.14288 0.740833,-0.3175 z M -132.85994,165.59891 c 0.58622,-0.22495 0.52374,-1.35197 -0.0933,-1.68217 -0.73397,-0.39281 -1.02071,-0.34191 -1.33005,0.2361 -0.33342,0.623 -0.11764,1.27159 0.47529,1.42862 0.24227,0.0642 0.46052,0.13048 0.485,0.14736 0.0245,0.0169 0.23284,-0.0416 0.46302,-0.12991 z M -3.8949484,163.1285 c 0.117806,-0.83461 -0.62239,-1.42611 -1.318448,-1.0536 -0.484314,0.2592 -0.673769,1.2986 -0.30408,1.66828 0.103693,0.1037 0.490646,0.15331 0.859896,0.11025 0.482578,-0.0563 0.697023,-0.26012 0.762632,-0.72493 z M -132.80146,161.92246 c 0.25701,-0.66976 -0.14002,-1.7192 -0.65042,-1.7192 -1.03831,0 -1.50513,1.32885 -0.64319,1.83089 0.66226,0.38573 1.11782,0.3464 1.29361,-0.11169 z m 129.0798216,-3.57128 c 0,-0.80784 -0.09061,-0.93651 -0.709808,-1.00805 -0.866995,-0.10016 -1.320501,0.58834 -0.980673,1.48883 0.178181,0.47215 0.399058,0.59379 0.960922,0.52917 0.64141,-0.0738 0.729559,-0.1958 0.729559,-1.00995 z m -128.9936816,0.0174 c 0.35422,-0.66187 0.35,-0.69724 -0.14188,-1.18912 -0.59913,-0.59913 -1.13904,-0.51242 -1.48088,0.23785 -0.5448,1.1957 1.00556,2.10453 1.62276,0.95127 z m 128.9139836,-3.86363 c 0.248661,-0.54574 0.228383,-0.74868 -0.10846,-1.08552 -0.571852,-0.57186 -1.531634,-0.23908 -1.531634,0.53104 0,1.24874 1.147075,1.63654 1.640094,0.55448 z m -129.0487936,-0.0852 c 0.3086,-0.97233 -0.43228,-1.7931 -1.31337,-1.45499 -0.45259,0.17367 -0.79713,1.24503 -0.53618,1.66726 0.3018,0.48833 1.67729,0.33047 1.84955,-0.21227 z m -0.11511,-3.75143 c 0.40811,-0.76257 0.0818,-1.57751 -0.63172,-1.57751 -1.14288,0 -1.68242,1.2952 -0.7627,1.83089 0.70171,0.40871 1.07653,0.3406 1.39442,-0.25338 z m 129.0992236,0.15684 c 0.174509,-0.21027 0.278384,-0.65675 0.230833,-0.99218 -0.158543,-1.11841 -2.07083,-0.8454 -2.07083,0.29564 0,0.97327 1.22536,1.43714 1.839997,0.69654 z"
       id="path6228" />
  </g>
</svg>
