<?xml version="1.0" encoding="UTF-8" standalone="no"?>
<!-- Created with Inkscape (http://www.inkscape.org/) -->

<svg
   width="133.64014mm"
   height="29.974815mm"
   viewBox="0 0 133.64012 29.974809"
   version="1.1"
   id="svg5"
   inkscape:version="1.1 (c4e8f9ed74, 2021-05-24)"
   sodipodi:docname="seedscommend.svg"
   xmlns:inkscape="http://www.inkscape.org/namespaces/inkscape"
   xmlns:sodipodi="http://sodipodi.sourceforge.net/DTD/sodipodi-0.dtd"
   xmlns="http://www.w3.org/2000/svg"
   xmlns:svg="http://www.w3.org/2000/svg">
  <sodipodi:namedview
     id="namedview7"
     pagecolor="#ffffff"
     bordercolor="#666666"
     borderopacity="1.0"
     inkscape:pageshadow="2"
     inkscape:pageopacity="0.0"
     inkscape:pagecheckerboard="0"
     inkscape:document-units="mm"
     showgrid="false"
     inkscape:zoom="0.94615212"
     inkscape:cx="260.52893"
     inkscape:cy="31.178919"
     inkscape:window-width="2506"
     inkscape:window-height="1403"
     inkscape:window-x="1974"
     inkscape:window-y="0"
     inkscape:window-maximized="1"
     inkscape:current-layer="layer1" />
  <defs
     id="defs2" />
  <g
     inkscape:label="Layer 1"
     inkscape:groupmode="layer"
     id="layer1"
     transform="translate(154.85168,-172.05882)">
    <path
       style="fill:#000000;stroke-width:0.264583"
       d="m -154.49737,201.84767 c -0.14302,-0.0928 -0.26695,-6.07631 -0.29921,-14.44656 l -0.0551,-14.28815 27.60045,6.5e-4 c 26.16277,6.2e-4 33.556114,-0.0727 66.229628,-0.65696 7.567084,-0.13531 19.473334,-0.28018 26.458334,-0.32193 l 12.7,-0.0759 0.171024,10.4496 c 0.09406,5.74728 0.2407,12.43492 0.325859,14.86143 l 0.154836,4.41181 -0.722736,0.13783 c -1.013423,0.19326 -132.264165,0.12216 -132.563115,-0.0718 z m 128.229238,-0.55158 4.061772,-0.004 -0.108095,-14.15705 c -0.06409,-8.39375 -0.209672,-14.2447 -0.357609,-14.37234 -0.244977,-0.21137 -7.265104,-0.13551 -45.096383,0.48735 -10.40474,0.1713 -34.080213,0.32902 -52.612153,0.35048 l -33.69445,0.039 0.0907,13.82506 0.0907,13.82506 27.51837,0.0674 c 15.1351,0.037 42.936965,0.0392 61.781913,0.005 18.844948,-0.0343 36.09134,-0.0641 38.325315,-0.0662 z m -126.745228,-3.6848 c -0.0509,-1.68617 -0.12909,-7.62126 -0.17381,-13.18907 l -0.0813,-10.1233 16.22553,0.0691 c 15.485,0.066 58.31495,-0.22471 67.819294,-0.46029 2.473855,-0.0613 11.879792,-0.17704 20.902084,-0.25717 9.022292,-0.0801 18.338933,-0.2144 20.703647,-0.29839 l 4.299479,-0.15271 0.01786,8.82093 c 0.0098,4.85151 0.07355,11.06151 0.141603,13.80001 l 0.123745,4.97907 -64.942814,-0.0612 -64.942818,-0.0612 z m 10.50012,2.25917 c 0,-0.37478 0.71189,-1.08926 1.08631,-1.09026 0.27565,-8e-4 0.50119,-0.17002 0.50119,-0.37618 0,-0.70336 -0.52821,-0.53681 -1.19063,0.37541 -0.3638,0.50099 -0.80326,0.91417 -0.97657,0.91818 -0.17332,0.004 -0.39658,0.1391 -0.49616,0.30021 -0.12423,0.20102 0.0162,0.23221 0.44741,0.0994 0.34564,-0.10643 0.62845,-0.20849 0.62845,-0.22679 z m 3.96875,0.099 c 0.0899,-0.14553 0.0374,-0.26459 -0.11668,-0.26459 -0.15411,0 -0.2802,0.11906 -0.2802,0.26459 0,0.14552 0.0525,0.26458 0.11668,0.26458 0.0642,0 0.19026,-0.11906 0.2802,-0.26458 z m 3.83645,-0.52917 c 0,-0.14552 -0.0525,-0.26458 -0.11667,-0.26458 -0.0642,0 -0.19026,0.11906 -0.2802,0.26458 -0.0899,0.14552 -0.0374,0.26458 0.11668,0.26458 0.1541,0 0.28019,-0.11906 0.28019,-0.26458 z m 22.17691,-1.15935 c 0.0997,-1.21584 -0.36567,-1.90611 -0.61508,-0.91238 -0.0898,0.35785 -0.12617,0.82155 -0.0808,1.03045 0.0648,0.29849 -0.39907,0.41002 -2.16645,0.52087 -2.19687,0.13779 -2.21526,0.14446 -0.79375,0.28772 0.80036,0.0807 1.93146,0.13625 2.51354,0.12353 1.03385,-0.0226 1.06028,-0.0469 1.14253,-1.05019 z m 6.86112,0.34326 1.91822,-0.32699 v -0.88367 c 0,-0.48602 -0.11906,-0.88367 -0.26458,-0.88367 -0.14552,0 -0.26458,0.23394 -0.26458,0.51986 0,0.73175 -0.62493,0.98441 -2.97656,1.20343 -1.12779,0.10503 -2.05053,0.28731 -2.05053,0.40506 0,0.26054 0.77865,0.4792 1.32292,0.3715 0.21828,-0.0432 1.26008,-0.22568 2.31511,-0.40552 z m -7.91993,-1.23443 c -0.08,-0.69541 -0.14811,-0.72761 -1.53893,-0.72761 h -1.45521 l -0.0782,-1.78593 -0.0782,-1.78594 h 0.93813 c 0.81824,0 0.93813,-0.0825 0.93813,-0.64585 0,-0.35521 -0.11906,-0.71942 -0.26458,-0.80936 -0.14552,-0.0899 -0.26458,-0.44847 -0.26458,-0.79674 0,-0.59196 0.10775,-0.63835 1.65364,-0.71199 l 1.65365,-0.0788 0.0821,-0.99219 c 0.0452,-0.5457 -0.0366,-0.99219 -0.18168,-0.99219 -0.14508,0 -0.3011,0.38696 -0.3467,0.8599 l -0.0829,0.8599 h -1.5875 -1.5875 l -0.0831,1.00858 c -0.10343,1.25536 -0.68196,1.17894 -0.77971,-0.10299 -0.10882,-1.42709 0.1948,-1.66367 2.04923,-1.59675 1.62438,0.0586 1.62938,0.0565 1.54453,-0.65 -0.0839,-0.69829 -0.11921,-0.71037 -2.38127,-0.81372 -1.26288,-0.0577 -2.35932,-0.003 -2.43654,0.12227 -0.0772,0.12495 -0.16188,2.02244 -0.18813,4.21665 -0.0263,2.19421 -0.12917,4.12125 -0.22871,4.28231 -0.0995,0.16105 -0.12896,0.64725 -0.0654,1.08043 l 0.11559,0.78759 h 2.36879 2.3688 z m -6.94934,-0.0811 c 0.33768,-0.37314 0.52606,-1.07205 0.5994,-2.22388 0.0986,-1.54841 0.0275,-1.82512 -0.91,-3.5393 -0.55933,-1.02276 -0.93574,-1.94079 -0.83648,-2.04005 0.0993,-0.0993 0.52275,-0.0612 0.94109,0.0847 0.73194,0.25516 0.77095,0.2264 1.03508,-0.76316 0.22032,-0.82545 0.20343,-1.02831 -0.0856,-1.02831 -0.20773,0 -0.36011,0.27989 -0.36011,0.66146 0,0.59531 -0.10584,0.66146 -1.05834,0.66146 -1.35481,0 -1.35239,0.23477 0.0296,2.87448 0.96874,1.85041 1.06683,2.20266 0.89562,3.21609 -0.22195,1.31369 -1.14379,2.37609 -2.06172,2.37609 -0.34729,0 -1.21591,-0.1773 -1.93026,-0.39401 -1.50374,-0.45617 -1.96028,-0.49377 -1.96028,-0.16144 0,0.36519 1.80174,0.76225 3.59701,0.79269 1.31313,0.0223 1.7041,-0.0737 2.10508,-0.51679 z m 14.86927,0.0982 c 0.45382,-0.10717 0.59531,-0.32923 0.59531,-0.93433 0,-0.68883 -0.0787,-0.77499 -0.59531,-0.65177 -0.32743,0.0781 -1.16759,0.22459 -1.86703,0.32555 l -1.27172,0.18356 0.0811,-1.39899 c 0.0744,-1.28409 0.14629,-1.42256 0.87484,-1.68593 0.60982,-0.22044 0.77416,-0.42488 0.70921,-0.88225 -0.0661,-0.46553 -0.25674,-0.59531 -0.8744,-0.59531 -0.7772,0 -0.78855,-0.0201 -0.7092,-1.25677 l 0.0806,-1.25677 1.91823,-0.22351 c 1.88978,-0.2202 1.91823,-0.23492 1.91823,-0.99219 0,-0.86519 0.0495,-0.85574 -2.51354,-0.47945 -1.01865,0.14955 -2.09021,0.30426 -2.38125,0.3438 -0.50488,0.0686 -0.53247,0.29999 -0.60127,5.04274 l -0.0721,4.97085 2.05648,-0.18432 c 1.13106,-0.10138 2.32436,-0.24759 2.65179,-0.32491 z m 8.525284,-0.0792 c 0.28851,-0.15441 0.66009,-0.53397 0.82574,-0.84348 0.68858,-1.28664 0.53683,-9.42599 -0.18018,-9.66393 -0.20411,-0.0677 -0.21783,0.38842 -0.0471,1.56589 0.33973,2.34295 0.0823,6.95835 -0.4318,7.74303 -0.29109,0.44427 -0.84925,0.71835 -1.93765,0.95147 -0.84083,0.18009 -1.707374,0.43518 -1.925654,0.56685 -0.5678,0.34251 3.042744,0.0301 3.696644,-0.31983 z m 42.340862,-4.12264 v -4.3832 l -0.700026,0.0837 c -0.574016,0.0686 -0.794364,0.33284 -1.224124,1.46769 -0.288253,0.76119 -0.611754,1.3298 -0.718889,1.26359 -0.107135,-0.0662 -0.345657,-0.65924 -0.530053,-1.31783 -0.31274,-1.117 -0.395163,-1.19744 -1.226918,-1.19744 h -0.891656 v 4.10104 4.10104 h 0.661458 c 0.65895,0 0.661535,-0.01 0.681588,-2.57969 0.01857,-2.37967 0.04563,-2.50912 0.348956,-1.66961 0.459571,1.2719 0.837909,1.28045 1.474166,0.0333 0.301813,-0.5916 0.621202,-1.07565 0.709753,-1.07565 0.08855,0 0.07732,1.1802 -0.02495,2.62267 -0.170456,2.40428 -0.145754,2.63306 0.296642,2.74743 1.164672,0.30112 1.144053,0.37676 1.144053,-4.19704 z m 3.419923,3.74267 c 0.838771,-0.89284 0.771244,-2.16362 -0.218464,-4.11124 -0.451115,-0.88773 -0.820208,-1.77636 -0.820208,-1.97472 0,-0.44009 0.650345,-0.72027 1.190625,-0.51295 0.28752,0.11034 0.396875,-0.0299 0.396875,-0.50878 0,-0.86283 -1.02203,-1.15222 -2.100199,-0.59468 -1.217769,0.62974 -1.222137,1.20364 -0.02854,3.75071 1.23072,2.62629 1.228029,3.40405 -0.01085,3.13195 -0.685184,-0.1505 -0.770832,-0.0984 -0.770832,0.46907 0,0.35111 0.07937,0.71776 0.17639,0.81478 0.399505,0.3995 1.616731,0.14096 2.185199,-0.46414 z m 5.575911,-0.0941 c 0,-0.69746 -0.0535,-0.72949 -1.058333,-0.63367 l -1.058334,0.10093 v -1.21842 c 0,-1.04202 0.07661,-1.21841 0.529167,-1.21841 0.388056,0 0.529167,-0.17639 0.529167,-0.66146 0,-0.53313 -0.131279,-0.66146 -0.676672,-0.66146 -0.632458,0 -0.671354,-0.0735 -0.595313,-1.12448 l 0.08136,-1.12448 1.096494,0.0862 c 1.155816,0.0908 1.52436,-0.1601 1.257308,-0.85603 -0.125857,-0.32798 -0.561271,-0.42075 -1.97467,-0.42075 h -1.813211 l 0.09843,4.16719 c 0.05414,2.29195 0.108918,4.19695 0.121729,4.23333 0.01281,0.0364 0.797198,0.0661 1.743083,0.0661 1.703716,0 1.719792,-0.007 1.719792,-0.73459 z m 3.814818,0.574 c 0.230185,-0.0883 0.418515,-0.37845 0.418515,-0.6447 0,-0.35276 -0.233285,-0.50659 -0.859895,-0.567 l -0.859896,-0.0829 -0.02805,-3.43959 -0.02805,-3.43958 -0.69955,-0.0837 -0.699551,-0.0837 -0.03754,2.46497 c -0.02065,1.35573 -0.05514,3.17934 -0.07664,4.05247 -0.02151,0.87312 0.0024,1.6768 0.05315,1.78594 0.110355,0.23737 2.223588,0.26574 2.817511,0.0378 z m 7.518519,-0.59753 c 0.115139,-0.81376 -0.332745,-1.28546 -0.82928,-0.87337 -0.495883,0.41154 -0.714473,0.12819 -0.714473,-0.92614 0,-0.70556 0.105833,-0.88195 0.529166,-0.88195 0.415624,0 0.529167,-0.17639 0.529167,-0.82206 0,-0.62201 -0.09658,-0.78499 -0.396875,-0.66976 -0.311692,0.11961 -0.396875,-0.0731 -0.396875,-0.89773 0,-0.99031 0.04514,-1.05003 0.79375,-1.05003 0.508823,0 0.79375,-0.1347 0.79375,-0.37524 0,-0.20638 0.07227,-0.56356 0.160599,-0.79375 0.134536,-0.35059 -0.07727,-0.41851 -1.305086,-0.41851 -1.168397,0 -1.492898,0.0939 -1.599838,0.46302 -0.239614,0.82703 -0.501139,7.41099 -0.306861,7.72534 0.111549,0.18049 0.692785,0.27277 1.421509,0.22568 1.067202,-0.069 1.244695,-0.16373 1.321347,-0.7055 z m 3.747913,0.22896 c 0.804799,-0.8048 0.645377,-1.59636 -0.680995,-3.38125 -0.790326,-1.06353 -1.180438,-1.83804 -1.124479,-2.23248 0.07665,-0.54033 0.21926,-0.59937 1.353177,-0.56022 1.184773,0.0409 1.256221,0.006 1.094743,-0.52917 -0.246822,-0.81856 -0.442929,-0.97069 -1.465144,-1.13657 -1.192879,-0.19358 -2.050253,0.49369 -2.261433,1.81276 -0.138716,0.86645 -0.0072,1.20472 1.096759,2.82038 1.385104,2.02717 1.378153,2.55492 -0.03064,2.3263 -0.802979,-0.1303 -0.892405,-0.082 -0.892405,0.48161 0,0.43925 0.177866,0.66068 0.595312,0.74108 1.274445,0.24547 1.805787,0.16688 2.315105,-0.34244 z m -69.001506,-0.6416 c 0.68495,-0.0996 1.51839,-0.40226 1.85208,-0.67251 0.5911,-0.4787 0.60627,-0.6078 0.58954,-5.01652 -0.0114,-2.99771 -0.1184,-4.62641 -0.31708,-4.82508 -0.31523,-0.31523 -2.3355,-0.0278 -3.832934,0.54537 l -0.72761,0.27849 v 4.38957 c 0,2.62963 -0.11425,4.60304 -0.28495,4.92201 -0.15673,0.29285 -0.2184,0.7059 -0.13705,0.9179 0.12807,0.33374 0.24618,0.33557 0.88027,0.0137 0.4028,-0.20447 1.29278,-0.45328 1.977734,-0.55292 z m -1.113084,-1.73965 c 0,-0.14552 0.14883,-0.26641 0.33073,-0.26864 0.2448,-0.003 0.238,-0.0628 -0.0262,-0.23023 -0.27879,-0.17667 -0.32893,-0.90659 -0.22911,-3.33481 0.1336,-3.25013 0.29052,-3.6493 1.379774,-3.51003 0.49528,0.0633 0.53392,0.29509 0.60331,3.61898 0.0556,2.66351 -0.0105,3.60506 -0.26458,3.76627 -0.48069,0.30501 -1.793954,0.27461 -1.793954,-0.0415 z m 1.391714,-6.03601 c 0.253,-0.30486 0.2138,-0.35598 -0.20951,-0.27325 -0.471204,0.0921 -0.521284,0.32784 -0.526384,2.47792 -0.007,3.14763 0.249364,3.54519 0.347434,0.53782 0.0427,-1.30966 0.21628,-2.53503 0.38846,-2.74249 z m 27.770699,5.3084 0.07405,-3.37343 1.013871,-0.0834 c 0.778851,-0.0641 0.978177,-0.17643 0.859895,-0.48466 -0.08469,-0.22069 -0.153974,-0.51058 -0.153974,-0.6442 0,-0.13362 -1.18922,-0.24294 -2.642714,-0.24294 -2.582878,0 -2.641288,0.0135 -2.579687,0.59531 0.07678,0.72519 0.445116,1.02583 1.032946,0.84309 0.701358,-0.21802 0.815912,0.28256 0.767059,3.35191 -0.02527,1.58763 0.02708,3.00477 0.11634,3.14919 0.08926,0.14442 0.449358,0.26258 0.800224,0.26258 0.636969,0 0.638051,-0.005 0.711989,-3.37344 z m 3.56635,3.16364 c 0.182857,-0.11624 0.351018,-0.98335 0.396875,-2.04647 0.07082,-1.64186 0.137782,-1.84477 0.608743,-1.84477 0.482129,0 0.529167,0.17639 0.529167,1.98437 0,1.96809 0.006,1.98507 0.727604,2.0681 l 0.727604,0.0837 v -3.83239 c 0,-2.10782 0.07227,-4.02073 0.1606,-4.25091 0.124862,-0.32539 -0.01939,-0.41852 -0.648256,-0.41852 -0.799103,0 -0.80981,0.0183 -0.888204,1.52136 -0.07029,1.34771 -0.147298,1.531 -0.674661,1.6059 -0.556942,0.0791 -0.595312,-0.0116 -0.595312,-1.40664 0,-1.43872 -0.02342,-1.48824 -0.665345,-1.40746 l -0.665348,0.0837 -0.09785,4.0349 c -0.08728,3.59893 -0.05112,4.03446 0.334616,4.03084 0.237858,-0.002 0.575255,-0.0948 0.749768,-0.20575 z m 7.223327,-0.4716 c 0,-0.57858 -0.109784,-0.67416 -0.727605,-0.63342 -1.33546,0.0881 -1.389062,0.0418 -1.389062,-1.19872 0,-1.01424 0.0784,-1.19063 0.529167,-1.19063 0.411575,0 0.529166,-0.17638 0.529166,-0.79375 0,-0.50028 -0.135628,-0.79375 -0.366844,-0.79375 -0.354682,0 -0.75583,-1.50269 -0.512078,-1.91822 0.06402,-0.10915 0.526095,-0.19844 1.02683,-0.19844 0.734036,0 0.910426,-0.10252 0.910426,-0.52917 0,-0.47386 -0.17639,-0.52917 -1.687714,-0.52917 h -1.687714 l 0.03387,4.23334 0.03388,4.23333 h 1.653839 c 1.600612,0 1.653839,-0.0219 1.653839,-0.6814 z m 22.030463,-2.55974 c 1.18365,-5.24781 1.161936,-4.96094 0.375518,-4.96094 -0.879711,0 -0.92641,0.096 -1.287191,2.64719 -0.316378,2.23717 -0.563287,2.31193 -0.829892,0.25126 -0.08557,-0.66142 -0.233479,-1.40556 -0.328676,-1.65364 -0.118845,-0.30971 -0.03984,-0.45106 0.252095,-0.45106 0.670171,0 0.495504,-0.76602 -0.215349,-0.94443 -1.601634,-0.40199 -1.83243,0.057 -1.273038,2.53193 0.148013,0.65484 0.462317,2.08359 0.698453,3.175 0.569309,2.63131 0.576297,2.64583 1.273188,2.64583 0.556093,0 0.661662,-0.25632 1.334892,-3.24114 z m -82.584273,2.28096 c 0.90782,-0.81787 0.82758,-1.88454 -0.30964,-4.11647 -0.58757,-1.15316 -1.09374,-2.53649 -1.12482,-3.07407 l -0.0565,-0.9774 1.12448,0.0709 c 0.61847,0.039 1.12611,-0.0205 1.12809,-0.13229 0.002,-0.11178 0.0713,-0.45557 0.15411,-0.76397 0.14126,-0.52633 0.0458,-0.563 -1.55669,-0.59775 -1.25668,-0.0273 -1.79741,0.0717 -2.04907,0.37492 -0.60975,0.73471 -0.30991,2.51399 0.82668,4.90569 0.60915,1.28182 1.04234,2.55454 0.99162,2.91346 -0.12298,0.87038 -1.04489,0.9585 -2.24809,0.21488 -0.92809,-0.57359 -0.97051,-0.57683 -1.31868,-0.10068 -0.60296,0.82461 -0.42114,1.05892 1.16161,1.49695 1.65061,0.45681 2.60108,0.39468 3.27693,-0.21421 z m 5.78505,-1.15649 c 0,-0.73075 0.0735,-0.79375 0.92605,-0.79375 0.50932,0 0.92604,-0.1259 0.92604,-0.27979 0,-0.16555 -0.45917,-0.24658 -1.12448,-0.19844 -1.09151,0.079 -1.12689,0.11045 -1.2066,1.07355 -0.0475,0.57435 0.036,0.99218 0.19844,0.99218 0.15431,0 0.28055,-0.35718 0.28055,-0.79375 z m 24.738554,0.19176 c 0.62704,-0.35151 1.24871,-0.98162 1.52549,-1.54619 0.42934,-0.87578 0.43609,-1.10044 0.0833,-2.7758 -0.21113,-1.00259 -0.62159,-2.3534 -0.91215,-3.00181 -0.59489,-1.32754 -0.53619,-1.59921 0.34552,-1.59921 0.56327,0 0.62455,-0.13671 0.74115,-1.65364 0.13524,-1.75927 0.0531,-2.13823 -0.32917,-1.51962 -0.13028,0.2108 -0.16716,0.89196 -0.0819,1.51369 0.12567,0.91683 0.0764,1.13041 -0.26067,1.13041 -0.22859,0 -0.72431,0.11736 -1.1016,0.26081 l -0.68599,0.26081 0.57683,1.12825 c 0.74315,1.45358 1.28274,3.48708 1.28672,4.84906 0.004,1.3159 -0.82036,2.20485 -2.77498,2.99297 l -1.32292,0.53341 0.92604,0.0101 c 0.50932,0.006 1.40229,-0.2569 1.98438,-0.58321 z m -16.801054,-0.46295 c 0,-0.38447 0.22573,-0.58093 0.79926,-0.69564 0.99137,-0.19827 1.13789,-0.42479 0.91912,-1.42087 -0.21834,-0.99409 -0.69857,-1.04608 -0.50019,-0.0542 0.13021,0.65102 0.048,0.76216 -0.73421,0.99219 -0.68488,0.20142 -0.89948,0.42093 -0.96457,0.98665 -0.046,0.40019 0.0433,0.72761 0.19844,0.72761 0.15518,0 0.28215,-0.2411 0.28215,-0.53578 z m -25.87807,-0.31244 c 0.2974,0.0128 0.39561,-0.11715 0.29218,-0.38669 -0.40659,-1.05954 2.21076,-1.22868 3.40915,-0.2203 0.4356,0.36654 1.1219,0.66146 1.53924,0.66146 0.41735,0 1.10365,-0.29492 1.53925,-0.66146 0.55916,-0.4705 1.0997,-0.66146 1.87239,-0.66146 0.59745,0 1.08628,-0.11906 1.08628,-0.26458 0,-0.14552 -0.52304,-0.26459 -1.16232,-0.26459 -0.78909,0 -1.21122,-0.12743 -1.31461,-0.39687 -0.11734,-0.30577 0.0584,-0.39688 0.76544,-0.39688 0.50476,0 0.91774,-0.11906 0.91774,-0.26458 0,-0.14552 -0.46351,-0.26458 -1.03002,-0.26458 -0.67151,0 -1.08304,-0.13814 -1.18233,-0.39688 -0.20086,-0.52344 -2.236,-0.5176 -2.93145,0.008 -0.75237,0.56907 -2.87353,0.4933 -3.91178,-0.13972 -1.02687,-0.62608 -2.02514,-0.67782 -2.73395,-0.1417 -0.34557,0.26138 -1.18048,0.39122 -2.55209,0.39688 -1.82753,0.008 -2.10695,-0.06 -2.69995,-0.65304 -0.39838,-0.39838 -0.96359,-0.66146 -1.42112,-0.66146 -0.4682,0 -0.99806,0.25378 -1.38106,0.66146 -0.50512,0.53768 -0.87271,0.66114 -1.96435,0.65978 -1.21399,-0.002 -1.38622,-0.0777 -1.79366,-0.79375 -0.38749,-0.68097 -0.60543,-0.79208 -1.55375,-0.79208 -0.95047,0 -1.05748,-0.0549 -0.77366,-0.39687 0.27062,-0.32608 0.24984,-0.39688 -0.11652,-0.39688 -0.27162,0 -0.42196,0.18098 -0.38464,0.46303 0.0862,0.65129 -0.572,1.91822 -0.99651,1.91822 -0.48725,0 -0.44391,0.27214 0.10861,0.68208 0.4372,0.32438 0.43351,0.36612 -0.0661,0.74836 -0.45723,0.34978 -0.46826,0.40596 -0.0812,0.41323 0.24641,0.005 0.63148,0.27036 0.85572,0.5905 0.5643,0.80565 2.15528,0.80565 2.80765,0 0.68558,-0.84665 2.42842,-0.79755 3.73098,0.10513 0.83737,0.5803 1.16145,0.65852 2.08316,0.5028 0.60034,-0.10143 1.1555,-0.35114 1.2337,-0.55492 0.10519,-0.27413 0.68302,-0.37051 2.22123,-0.37051 1.82727,0 2.11431,0.0659 2.37023,0.54409 0.37385,0.69854 1.26732,1.06427 2.10868,0.86315 0.36381,-0.087 0.86305,-0.14942 1.10943,-0.13879 z m -2.52054,-0.65109 c -0.30444,-0.30444 -0.19268,-0.61736 0.22049,-0.61736 0.21828,0 0.39687,0.1786 0.39687,0.39688 0,0.41316 -0.31292,0.52492 -0.61736,0.22048 z m 1.41111,-0.22048 c 0,-0.22812 0.23879,-0.39688 0.56157,-0.39688 0.46917,0 0.50737,0.0653 0.23218,0.39688 -0.18115,0.21828 -0.43386,0.39687 -0.56156,0.39687 -0.1277,0 -0.23219,-0.17859 -0.23219,-0.39687 z m 5.46806,0.22048 c -0.30444,-0.30444 -0.19268,-0.61736 0.22049,-0.61736 0.21828,0 0.39687,0.1786 0.39687,0.39688 0,0.41316 -0.31292,0.52492 -0.61736,0.22048 z m -13.67014,-0.33277 c 0,-0.12539 0.17859,-0.29651 0.39688,-0.38027 0.21828,-0.0838 0.39687,-0.0497 0.39687,0.0757 0,0.12538 -0.17859,0.2965 -0.39687,0.38026 -0.21829,0.0838 -0.39688,0.0497 -0.39688,-0.0757 z m 15.08125,-0.02 c 0,-0.14552 0.11906,-0.26458 0.26458,-0.26458 0.14552,0 0.26459,0.11906 0.26459,0.26458 0,0.14553 -0.11907,0.26459 -0.26459,0.26459 -0.14552,0 -0.26458,-0.11906 -0.26458,-0.26459 z m -23.01875,-0.26458 c 0,-0.14552 0.11204,-0.26458 0.24897,-0.26458 0.13693,0 0.32255,0.11906 0.41249,0.26458 0.0899,0.14552 -0.0221,0.26458 -0.24897,0.26458 -0.22687,0 -0.41249,-0.11906 -0.41249,-0.26458 z m 1.32292,0 c 0,-0.14552 0.11906,-0.26458 0.26458,-0.26458 0.14552,0 0.26458,0.11906 0.26458,0.26458 0,0.14552 -0.11906,0.26458 -0.26458,0.26458 -0.14552,0 -0.26458,-0.11906 -0.26458,-0.26458 z m 5.15937,0 c -0.0899,-0.14552 -0.0445,-0.26458 0.10106,-0.26458 0.14552,0 0.33817,0.11906 0.42811,0.26458 0.0899,0.14552 0.0445,0.26458 -0.10106,0.26458 -0.14552,0 -0.33817,-0.11906 -0.42811,-0.26458 z m -6.56497,-0.70004 c -0.3635,-0.3635 -0.17495,-0.92492 0.28112,-0.83709 0.25466,0.049 0.46302,0.25621 0.46302,0.46037 0,0.41774 -0.4668,0.65406 -0.74414,0.37672 z m 3.12539,-0.0937 c -0.30322,-0.49061 0.15745,-0.79375 1.20624,-0.79375 0.86633,0 1.04272,0.0895 1.04272,0.52917 0,0.43965 -0.17639,0.52916 -1.04272,0.52916 -0.5735,0 -1.1163,-0.11906 -1.20624,-0.26458 z m 2.97274,0.10643 c -0.29615,-0.29615 0.12487,-0.90018 0.62744,-0.90018 0.32447,0 0.50086,0.18636 0.50086,0.52917 0,0.50448 -0.74865,0.75065 -1.1283,0.37101 z m 1.92205,-0.37101 c 0,-0.35278 0.17639,-0.52917 0.52917,-0.52917 0.35277,0 0.52916,0.17639 0.52916,0.52917 0,0.35278 -0.17639,0.52916 -0.52916,0.52916 -0.35278,0 -0.52917,-0.17638 -0.52917,-0.52916 z m 2.02847,0.35278 c -0.097,-0.097 -0.17639,-0.33514 -0.17639,-0.52917 0,-0.42801 3.57593,-0.50975 3.83677,-0.0877 0.34697,0.56141 -3.1299,1.14735 -3.66038,0.61687 z m 4.43957,-0.11125 c -0.0978,-0.1582 -0.0556,-0.40977 0.0936,-0.55903 0.3338,-0.33381 0.84666,-0.0519 0.84666,0.4654 0,0.44546 -0.68094,0.51326 -0.94029,0.0936 z m 1.73404,-0.0651 c 0,-0.49765 0.25462,-0.69278 0.68733,-0.52673 0.56278,0.21596 0.44346,0.8795 -0.15816,0.8795 -0.29104,0 -0.52917,-0.15875 -0.52917,-0.35277 z m 1.6757,-0.0441 c 0,-0.29804 0.31848,-0.39688 1.27882,-0.39688 0.96034,0 1.27882,0.0988 1.27882,0.39688 0,0.29804 -0.31848,0.39687 -1.27882,0.39687 -0.96034,0 -1.27882,-0.0988 -1.27882,-0.39687 z m 3.25571,0 c 0.0838,-0.21828 0.37768,-0.39688 0.65315,-0.39688 0.27547,0 0.50086,0.1786 0.50086,0.39688 0,0.2456 -0.24896,0.39687 -0.65316,0.39687 -0.47187,0 -0.61088,-0.11014 -0.50085,-0.39687 z m 1.94776,0 c 0,-0.22049 0.23519,-0.39688 0.52917,-0.39688 0.29398,0 0.52916,0.17639 0.52916,0.39688 0,0.22049 -0.23518,0.39687 -0.52916,0.39687 -0.29398,0 -0.52917,-0.17638 -0.52917,-0.39687 z m -21.78615,-0.25059 c -0.1213,-0.31613 0.0286,-0.41087 0.64984,-0.41087 0.52769,0 0.76975,0.1146 0.69857,0.33073 -0.16292,0.4947 -1.16644,0.55434 -1.34841,0.0801 z m -1.33613,-1.31645 c 0.22715,-0.59195 0.78389,-0.67909 0.78389,-0.12269 0,0.29942 -0.18571,0.4991 -0.46417,0.4991 -0.29268,0 -0.4108,-0.13906 -0.31972,-0.37641 z m 1.42645,-0.15275 c 0,-0.29104 0.0904,-0.52917 0.20094,-0.52917 0.11051,0 0.34965,0.23813 0.5314,0.52917 0.28929,0.46321 0.26424,0.52916 -0.20093,0.52916 -0.35502,0 -0.53141,-0.17564 -0.53141,-0.52916 z m 5.02708,0.42927 c 0,-0.0549 0.17859,-0.24811 0.39688,-0.42927 0.32504,-0.26976 0.39687,-0.25168 0.39687,0.0999 0,0.2361 -0.17859,0.42927 -0.39687,0.42927 -0.21829,0 -0.39688,-0.045 -0.39688,-0.0999 z m 1.5875,-0.29698 c 0,-0.21828 0.10448,-0.39688 0.23219,-0.39688 0.1277,0 0.3804,0.1786 0.56156,0.39688 0.27518,0.33158 0.23698,0.39687 -0.23219,0.39687 -0.32277,0 -0.56156,-0.16875 -0.56156,-0.39687 z m 19.05,3.83646 c 0,-0.14552 -0.18562,-0.26459 -0.41249,-0.26459 -0.22687,0 -0.3389,0.11907 -0.24897,0.26459 0.0899,0.14552 0.27556,0.26458 0.41249,0.26458 0.13694,0 0.24897,-0.11906 0.24897,-0.26458 z m 30.798504,-0.0212 c 2.75949,-0.69485 3.25626,-2.60892 1.61296,-6.21489 -0.50932,-1.11764 -0.92604,-2.12776 -0.92604,-2.24472 0,-0.4601 0.86887,-1.0442 1.55327,-1.0442 0.66903,0 0.71383,-0.0676 0.61361,-0.92604 -0.0595,-0.50933 -0.12916,-0.92605 -0.1549,-0.92605 -0.0257,0 -0.75685,0.27502 -1.6247,0.61116 -0.97638,0.37817 -1.69165,0.83924 -1.87628,1.20946 -0.39893,0.79994 -0.0265,2.39761 0.87719,3.7632 0.4711,0.71189 0.74249,1.53631 0.82222,2.49776 0.12924,1.55843 0.14285,1.5426 -1.57032,1.82621 -0.68747,0.1138 -1.00558,0.32211 -1.11172,0.72798 -0.27611,1.05587 0.003,1.16866 1.78471,0.72013 z m -20.744334,-1.6986 c 0,-0.36381 -0.11906,-0.66146 -0.26459,-0.66146 -0.14552,0 -0.26458,0.29765 -0.26458,0.66146 0,0.3638 0.11906,0.66145 0.26458,0.66145 0.14553,0 0.26459,-0.29765 0.26459,-0.66145 z m 8.06979,-2.64584 1.85208,-0.26458 0.0821,-0.99219 c 0.0475,-0.57435 -0.036,-0.99219 -0.19844,-0.99219 -0.1543,0 -0.28055,0.34231 -0.28055,0.76068 0,0.64029 -0.13086,0.78685 -0.82682,0.92604 -0.45476,0.091 -1.1594,0.16537 -1.56586,0.16537 -1.0179,0 -1.57607,0.24981 -1.57607,0.70538 0,0.24512 0.11971,0.3067 0.33073,0.17013 0.1819,-0.11773 1.16416,-0.33312 2.18281,-0.47864 z m 23.513917,0.23524 c 1.344088,-0.45798 1.911776,-1.09129 2.179894,-2.43188 0.160864,-0.80432 0.129241,-0.84607 -0.640845,-0.84607 -0.720519,0 -0.819224,0.0951 -0.892969,0.8599 -0.06513,0.67545 -0.218374,0.87905 -0.714446,0.94919 -0.347345,0.0491 -0.732475,-0.0699 -0.855845,-0.26458 -0.123367,-0.19464 -0.226132,-1.60731 -0.228359,-3.13928 -0.003,-2.09788 0.09761,-2.93055 0.407826,-3.37344 0.608131,-0.86823 1.418066,-0.76488 1.612185,0.20571 0.132506,0.66253 0.285338,0.79375 0.924468,0.79375 0.653865,0 0.747884,-0.087 0.64363,-0.59531 -0.06715,-0.32742 -0.193876,-1.0418 -0.281614,-1.5875 -0.138843,-0.86355 -0.252304,-0.99185 -0.875139,-0.9896 -0.965271,0.003 -3.371659,1.14973 -3.585924,1.70809 -0.216448,0.56405 -0.221181,7.73763 -0.0056,8.54193 0.18945,0.70693 0.638048,0.73973 2.312774,0.16909 z m 6.818728,-2.68115 c 1.13733,-0.40395 1.332685,-0.58479 1.565444,-1.44919 0.317659,-1.1797 0.290446,-6.9411 -0.03685,-7.80195 -0.302625,-0.79597 -0.993016,-0.77435 -2.922418,0.0915 l -1.554441,0.69759 v 3.62855 c 0,1.99571 0.13071,4.00351 0.290468,4.46179 0.341111,0.97851 0.777444,1.03953 2.657798,0.37169 z m -1.184376,-1.03777 c -0.220485,-0.22048 -0.234445,-6.24362 -0.0158,-6.81343 0.09524,-0.24818 0.472134,-0.41851 0.926042,-0.41851 h 0.765448 v 3.175 c 0,2.82222 -0.0588,3.23379 -0.529167,3.70416 -0.555009,0.55501 -0.852699,0.64661 -1.146527,0.35278 z m 34.45662,-0.22969 c 0.776335,-0.8842 0.821073,-1.05389 0.819626,-3.10885 -0.0021,-2.89983 -0.406654,-5.26513 -0.971513,-5.67934 -0.550754,-0.40387 -3.689885,-0.44131 -3.933635,-0.0469 -0.151849,0.2457 -0.148875,2.0099 0.01357,8.05056 0.01958,0.7276 0.05696,1.41221 0.08309,1.52135 0.02614,0.10914 0.749556,0.19844 1.607608,0.19844 1.454626,0 1.615602,-0.0632 2.38125,-0.93525 z m -2.442036,-0.29947 c -0.09701,-0.097 -0.17639,-1.88296 -0.17639,-3.96875 v -3.79237 h 0.760678 c 0.640291,0 0.786847,0.13086 0.926041,0.82683 0.299678,1.49839 0.188735,6.4523 -0.152135,6.79317 -0.345924,0.34593 -1.077384,0.42193 -1.358194,0.14112 z m -95.732863,-0.31733 c 0.16856,-0.56259 0.30647,-2.289 0.30647,-3.83646 v -2.81358 h 0.80227 c 0.58894,0 0.86211,-0.1583 1.02727,-0.59531 0.12375,-0.32742 0.19116,-0.65484 0.14981,-0.7276 -0.0413,-0.0728 -1.28475,-0.0945 -2.76311,-0.0482 -2.59024,0.081 -2.68495,0.10505 -2.60573,0.66146 0.062,0.43584 0.30922,0.60982 1.00824,0.70968 l 0.92604,0.1323 -0.0761,2.38125 c -0.0419,1.30968 -0.13607,2.68798 -0.20936,3.06289 -0.16711,0.85484 0.28668,2.09648 0.76622,2.09648 0.19885,0 0.49945,-0.4603 0.668,-1.02288 z m 92.778348,-3.72142 c 0,-4.69507 -0.0061,-4.74547 -0.589094,-4.85692 -0.324001,-0.0619 -0.651423,-0.0503 -0.727605,0.0259 -0.07618,0.0762 -0.138509,1.13773 -0.138509,2.35899 0,1.22126 -0.09056,2.16451 -0.201242,2.0961 -0.110681,-0.0684 -0.554503,-1.14348 -0.986269,-2.38907 -0.697746,-2.01289 -0.868691,-2.28307 -1.53747,-2.42996 -0.413843,-0.0909 -0.797526,-0.12018 -0.85263,-0.0651 -0.0551,0.0551 -0.161944,2.0012 -0.237419,4.32466 -0.07547,2.32345 -0.170704,4.46259 -0.211619,4.75363 -0.05942,0.42269 0.0986,0.54585 0.785352,0.61206 0.695905,0.0671 0.851784,-0.009 0.817976,-0.39687 -0.02297,-0.26388 -0.02291,-1.70016 1.5e-4,-3.19175 0.04212,-2.72508 0.366575,-3.56777 0.662152,-1.7198 0.08728,0.54571 0.386366,1.70657 0.664631,2.57969 0.278262,0.87313 0.581522,1.91492 0.673909,2.31511 0.140587,0.60896 0.307372,0.7276 1.022832,0.7276 h 0.854855 z m -23.13626,1.90003 0.01479,-2.57969 0.482557,1.19063 c 0.607349,1.49852 1.32452,1.6072 1.746007,0.26458 0.761899,-2.42699 0.88261,-2.3649 0.900097,0.46302 l 0.01677,2.71198 h 0.797735 0.797734 l -0.02151,-4.47634 c -0.01834,-3.81609 -0.08297,-4.49991 -0.438134,-4.6362 -0.769226,-0.29518 -1.317332,0.11888 -1.649654,1.2462 -0.426106,1.44547 -1.079767,2.83926 -1.33156,2.83926 -0.108678,0 -0.462809,-0.84033 -0.786958,-1.86741 -0.550961,-1.74572 -0.635252,-1.86209 -1.293612,-1.78593 l -0.704249,0.0815 -0.02066,4.56406 -0.02066,4.56407 h 0.748257 0.748258 l 0.01479,-2.57969 z m 16.773896,1.78594 c 2.65e-4,-0.57266 -0.131961,-0.67248 -0.985787,-0.74358 l -0.986224,-0.0821 v -1.30694 c 0,-1.13056 0.07142,-1.30695 0.529167,-1.30695 0.345257,0 0.529166,-0.17638 0.529166,-0.50752 0,-0.27914 0.07227,-0.69586 0.1606,-0.92604 0.122134,-0.31828 -0.01139,-0.41852 -0.557475,-0.41852 -0.546086,0 -0.679608,-0.10024 -0.557474,-0.41851 0.08833,-0.23019 0.160599,-0.77643 0.160599,-1.21389 0,-0.77712 0.02352,-0.79139 1.0257,-0.62207 0.988677,0.16703 1.029981,0.14412 1.144315,-0.6349 0.1069,-0.72835 0.03818,-0.82328 -0.695677,-0.96096 -0.447863,-0.084 -1.409287,-0.11527 -2.136502,-0.0694 l -1.322211,0.0833 -0.05449,4.81523 -0.05449,4.81522 1.377405,0.10118 c 2.271723,0.16688 2.422893,0.12923 2.423374,-0.6035 z m -5.367089,0.1289 c 0.274561,-0.10573 0.35237,-1.14276 0.35237,-4.69636 0,-4.40827 -0.01828,-4.56328 -0.546873,-4.63887 -0.446738,-0.0639 -0.70299,0.2648 -1.399516,1.79509 -0.468953,1.03031 -0.949992,1.81313 -1.068975,1.7396 -0.118983,-0.0735 -0.369282,-0.88133 -0.55622,-1.7951 -0.186936,-0.91376 -0.422683,-1.75511 -0.523878,-1.86966 -0.101198,-0.11455 -0.501039,-0.0877 -0.888537,0.0596 l -0.704543,0.26787 v 4.50446 c 0,4.35128 0.01828,4.50447 0.537469,4.50447 0.657646,0 0.701662,-0.13074 0.935334,-2.77813 0.194165,-2.19978 0.227021,-2.23875 0.501894,-0.59531 0.203702,1.21792 0.513548,1.25131 1.227674,0.13229 l 0.548757,-0.85989 -0.162224,1.99997 c -0.08922,1.09998 -0.07995,2.08225 0.02061,2.18281 0.214373,0.21437 1.221001,0.24187 1.726652,0.0472 z m -61.425965,-0.79262 c 0.27107,-0.32663 0.18369,-0.76669 -0.48103,-2.42234 l -0.81228,-2.02319 0.55922,-0.97167 c 0.85618,-1.48764 0.55642,-1.85658 -1.50844,-1.85658 h -1.7281 l -0.0118,2.3151 c -0.007,1.27331 -0.0752,2.93245 -0.15262,3.68698 l -0.14076,1.37188 1.01252,0.105 c 2.22746,0.23099 2.93846,0.18628 3.26335,-0.20518 z m -2.9123,-1.30821 c 0,-0.54694 0.57219,-1.73224 0.83623,-1.73224 0.12216,0 0.22211,0.045 0.22211,0.1 0,0.055 0.18019,0.53124 0.40042,1.05833 l 0.40043,0.95836 h -0.92959 c -0.63654,0 -0.9296,-0.12119 -0.9296,-0.38443 z m 0.0992,-3.6174 c 0.0909,-0.45475 0.16537,-0.931 0.16537,-1.05833 0,-0.12733 0.17859,-0.23151 0.39687,-0.23151 0.4891,0 0.48976,0.0593 0.0135,1.19912 -0.47718,1.14205 -0.79606,1.1923 -0.57575,0.0907 z m 11.54578,4.92386 c 0.51777,-0.62388 -0.0722,-3.01022 -1.10738,-4.47878 -1.04552,-1.48329 -0.89955,-1.64525 1.52006,-1.68648 l 1.70066,-0.029 0.0252,1.11475 c 0.0139,0.61311 0.01,2.03748 -0.008,3.16527 l -0.0336,2.05052 h 0.80218 0.80218 v -3.175 -3.175 h 1.17501 c 1.25068,0 1.59437,-0.25149 1.35918,-0.99455 -0.13209,-0.41733 -0.54993,-0.4532 -4.4426,-0.38132 -3.53339,0.0652 -4.38195,0.15641 -4.77609,0.5131 -0.62619,0.5667 -0.42618,1.53945 0.75746,3.68389 0.49498,0.89677 0.89996,1.75997 0.89996,1.91823 -10e-6,0.15825 -0.42501,0.28773 -0.94445,0.28773 -0.82808,0 -0.93403,0.0734 -0.85989,0.59532 0.0818,0.57588 0.37261,0.68696 2.49954,0.95464 0.16408,0.0206 0.44805,-0.14285 0.63104,-0.36334 z m 85.457094,0.004 c 0.189852,-0.22876 0.215566,-0.39688 0.0607,-0.39688 -0.14777,0 -0.337203,0.1786 -0.420968,0.39688 -0.08376,0.21828 -0.111077,0.39687 -0.0607,0.39687 0.05037,0 0.23981,-0.17859 0.420968,-0.39687 z m -125.412504,-0.13229 c 0,-0.14552 -0.11907,-0.26459 -0.26459,-0.26459 -0.14552,0 -0.26458,0.11907 -0.26458,0.26459 0,0.14552 0.11906,0.26458 0.26458,0.26458 0.14552,0 0.26459,-0.11906 0.26459,-0.26458 z m 15.875,-1.32292 v -1.5875 h 0.95036 0.95036 l -0.0585,1.25677 c -0.0846,1.81772 -0.0524,1.91823 0.61391,1.91823 0.59351,0 0.60461,-0.0551 0.63375,-3.14386 0.0163,-1.72913 0.10968,-3.39601 0.20749,-3.70417 0.15511,-0.48873 0.0727,-0.5603 -0.64535,-0.5603 -0.50506,0 -0.80658,0.12781 -0.78023,0.33073 0.0236,0.1819 0.0288,0.90382 0.0116,1.60426 -0.0313,1.27201 -0.0324,1.27344 -0.89124,1.19062 l -0.8599,-0.0829 -0.13229,-2.38125 c -0.12812,-2.30607 -0.15318,-2.38332 -0.79375,-2.44681 l -0.66146,-0.0656 0.0375,4.43118 c 0.0206,2.43715 0.0504,4.52048 0.0661,4.62962 0.0158,0.10914 0.32635,0.19844 0.69015,0.19844 0.63206,0 0.66146,-0.0705 0.66146,-1.5875 z m 7.73767,0.92604 c 0.11722,-0.61318 0.0519,-0.66146 -0.8952,-0.66146 -0.95877,0 -1.02164,-0.0488 -1.02164,-0.79375 0,-0.52916 0.13229,-0.79375 0.39688,-0.79375 0.24694,0 0.39687,-0.24988 0.39687,-0.66145 0,-0.42349 -0.14881,-0.66146 -0.41364,-0.66146 -0.30729,0 -0.39232,-0.22109 -0.33073,-0.8599 0.0729,-0.75611 0.1867,-0.8699 0.94281,-0.9428 0.47294,-0.0456 0.85989,-0.18469 0.85989,-0.30909 0,-0.1244 0.0723,-0.41452 0.1606,-0.6447 0.13564,-0.35347 -0.0905,-0.41851 -1.4552,-0.41851 -0.8887,0 -1.61855,0.0893 -1.6219,0.19843 -0.003,0.10915 -0.0782,1.77602 -0.16634,3.70417 l -0.16025,3.50573 h 1.5907 c 1.48665,0 1.59898,-0.0433 1.71715,-0.66146 z m 12.17083,0 c 0.11722,-0.61318 0.0519,-0.66146 -0.89519,-0.66146 -0.95877,0 -1.02165,-0.0488 -1.02165,-0.79375 0,-0.46914 0.13871,-0.79375 0.33917,-0.79375 0.48654,0 0.5352,-1.30859 0.0555,-1.49266 -0.2213,-0.0849 -0.39467,-0.48066 -0.39467,-0.90092 0,-0.67507 0.0985,-0.75763 0.99219,-0.83159 0.82822,-0.0686 0.99219,-0.1805 0.99219,-0.67743 0,-0.32742 -0.0893,-0.59531 -0.19844,-0.59531 -0.10914,0 -0.85328,0 -1.65364,0 h -1.45521 v 3.70416 3.70417 h 1.55665 c 1.45033,0 1.5653,-0.0452 1.6831,-0.66146 z m 86.714536,-0.99219 c 0.0022,-0.10914 -0.174543,-0.19843 -0.392824,-0.19843 -0.405146,0 -0.542089,0.56034 -0.216511,0.88592 0.17766,0.17766 0.601432,-0.30047 0.609335,-0.68749 z m 3.839139,-0.10223 c 0.241329,-0.0926 0.545777,-0.44979 0.676548,-0.79375 0.130772,-0.34395 0.419309,-0.62537 0.641191,-0.62537 0.221882,0 0.403423,-0.11906 0.403423,-0.26458 0,-0.14552 -0.178594,-0.26459 -0.396875,-0.26459 -0.249655,0 -0.396875,-0.25181 -0.396875,-0.67885 0,-0.8764 -0.403209,-1.61637 -1.077354,-1.97716 -0.653068,-0.34951 -2.236407,0.0969 -2.591004,0.73055 -0.176567,0.3155 -0.810625,0.44402 -2.622965,0.53162 -2.223389,0.10748 -2.40202,0.078 -2.560844,-0.4224 -0.0939,-0.29587 -0.405445,-0.61243 -0.692312,-0.70348 -0.784775,-0.24908 -2.067242,0.11731 -2.36625,0.67601 -0.201359,0.37624 -0.623004,0.51349 -1.762835,0.57381 -0.971962,0.0514 -1.539909,0.2057 -1.617003,0.43921 -0.09522,0.28842 0.156747,0.32202 1.268298,0.16915 1.045292,-0.14377 1.44334,-0.10206 1.615231,0.16924 0.418516,0.66055 0.246513,0.75689 -1.351295,0.75689 -0.881944,0 -1.5875,0.11759 -1.5875,0.26458 0,0.14925 0.749651,0.26458 1.719791,0.26458 0.945886,0 1.719792,0.11367 1.719792,0.2526 0,0.50669 1.886654,0.63483 2.655972,0.18038 0.52746,-0.31158 1.378453,-0.43298 3.0352,-0.43298 2.069698,0 2.381631,0.0668 3.08833,0.66146 0.792922,0.6672 1.394262,0.80202 2.199336,0.49308 z m -1.447469,-0.67022 c -0.534022,-0.20128 -0.58292,-0.29254 -0.264584,-0.49385 0.508926,-0.32183 1.507276,-0.32402 1.705219,-0.004 0.263374,0.42615 -0.724702,0.76743 -1.440635,0.49759 z m -9.266786,-1.54265 c 0,-0.35278 0.17639,-0.52917 0.529167,-0.52917 0.352777,0 0.529167,0.17639 0.529167,0.52917 0,0.35278 -0.17639,0.52917 -0.529167,0.52917 -0.352777,0 -0.529167,-0.17639 -0.529167,-0.52917 z m 1.5875,0 c 0,-0.29398 0.17639,-0.52917 0.396875,-0.52917 0.220486,0 0.396875,0.23519 0.396875,0.52917 0,0.29398 -0.176389,0.52917 -0.396875,0.52917 -0.220485,0 -0.396875,-0.23519 -0.396875,-0.52917 z m 3.638021,0.3196 c -1.584666,-0.0597 -2.050521,-0.16491 -2.050521,-0.46302 0,-0.30768 0.455113,-0.38575 2.248959,-0.38575 1.781749,0 2.248958,0.0792 2.248958,0.38126 0,0.52973 -0.131228,0.5548 -2.447396,0.46751 z m 2.976563,-0.45189 c 0,-0.28002 0.311621,-0.40856 1.058333,-0.43656 0.582084,-0.0218 1.205532,-0.0516 1.385438,-0.0661 0.179909,-0.0145 0.367234,0.1819 0.416277,0.43656 0.07631,0.39626 -0.123471,0.46302 -1.385441,0.46302 -1.134374,0 -1.474607,-0.0916 -1.474607,-0.39687 z m -7.805209,-1.19063 c 0.08994,-0.14552 0.275559,-0.26458 0.412491,-0.26458 0.136932,0 0.248968,0.11906 0.248968,0.26458 0,0.14552 -0.185621,0.26459 -0.412491,0.26459 -0.22687,0 -0.338905,-0.11907 -0.248968,-0.26459 z m 1.190625,0 c 0,-0.14552 0.178594,-0.26458 0.396875,-0.26458 0.218282,0 0.396875,0.11906 0.396875,0.26458 0,0.14552 -0.178593,0.26459 -0.396875,0.26459 -0.218281,0 -0.396875,-0.11907 -0.396875,-0.26459 z m 7.14375,-0.26458 c 0,-0.14552 0.416719,-0.26458 0.926042,-0.26458 0.509323,0 0.926042,0.11906 0.926042,0.26458 0,0.14552 -0.416719,0.26458 -0.926042,0.26458 -0.509323,0 -0.926042,-0.11906 -0.926042,-0.26458 z"
       id="path6803" />
  </g>
</svg>
