<?xml version="1.0" encoding="UTF-8" standalone="no"?>
<!-- Created with Inkscape (http://www.inkscape.org/) -->

<svg
   width="132.26932mm"
   height="27.951126mm"
   viewBox="0 0 132.2693 27.951121"
   version="1.1"
   id="svg5"
   inkscape:version="1.1 (c4e8f9ed74, 2021-05-24)"
   sodipodi:docname="tomatoseeds.svg"
   xmlns:inkscape="http://www.inkscape.org/namespaces/inkscape"
   xmlns:sodipodi="http://sodipodi.sourceforge.net/DTD/sodipodi-0.dtd"
   xmlns="http://www.w3.org/2000/svg"
   xmlns:svg="http://www.w3.org/2000/svg">
  <sodipodi:namedview
     id="namedview7"
     pagecolor="#ffffff"
     bordercolor="#666666"
     borderopacity="1.0"
     inkscape:pageshadow="2"
     inkscape:pageopacity="0.0"
     inkscape:pagecheckerboard="0"
     inkscape:document-units="mm"
     showgrid="false"
     inkscape:zoom="0.94615212"
     inkscape:cx="103.04897"
     inkscape:cy="107.27662"
     inkscape:window-width="2506"
     inkscape:window-height="1403"
     inkscape:window-x="1974"
     inkscape:window-y="0"
     inkscape:window-maximized="1"
     inkscape:current-layer="layer1" />
  <defs
     id="defs2" />
  <g
     inkscape:label="Layer 1"
     inkscape:groupmode="layer"
     id="layer1"
     transform="translate(113.12072,-152.07057)">
    <path
       style="fill:#000000;stroke-width:0.264583"
       d="m -24.211992,179.89008 c -0.63856,-0.11161 -1.18979,-0.23609 -1.22495,-0.27663 -0.0352,-0.0405 -0.3811,-0.70509 -0.76877,-1.47679 l -0.70485,-1.40309 -1.24521,0.0802 -1.24521,0.0802 0.0113,1.38907 0.0113,1.38906 h -1.03217 c -0.93825,0 -1.01858,-0.0542 -0.88283,-0.59531 0.36952,-1.47301 0.50322,-4.95946 0.20402,-5.31998 -0.25812,-0.31101 0.0158,-0.40176 1.68486,-0.55816 2.65788,-0.24907 4.00608,-0.0127 4.20732,0.73764 0.25889,0.96524 0.18217,1.57063 -0.2611,2.06044 -0.39073,0.43175 -0.3667,0.54415 0.31563,1.47604 0.96712,1.32085 1.40839,1.67016 2.10985,1.67016 0.31817,0 0.71477,0.16421 0.88134,0.36491 0.4063,0.48956 -0.49265,0.65635 -2.06053,0.3823 z m -2.41086,-4.56203 c 0,-0.0609 0.0723,-0.29898 0.1606,-0.52916 0.13564,-0.35348 -0.0905,-0.41852 -1.45521,-0.41852 -1.43942,0 -1.61581,0.0578 -1.61581,0.52917 0,0.46502 0.17639,0.52916 1.45521,0.52916 0.80037,0 1.45521,-0.0498 1.45521,-0.11065 z m -75.252478,3.6549 c -1.73443,-0.34923 -3.2,-0.68144 -3.25681,-0.73825 -0.0568,-0.0568 0.14272,-0.85268 0.44341,-1.76861 0.60132,-1.83171 0.49884,-2.08419 -0.84899,-2.09167 -1.05449,-0.006 -3.03617,-1.01022 -4.10802,-2.08208 -1.4295,-1.42949 -2.43081,-3.92067 -2.74757,-6.83574 -0.14869,-1.3683 -0.18219,-2.80973 -0.0745,-3.20317 l 0.19589,-0.71535 0.20022,0.66146 c 0.13069,0.43174 0.20939,0.50066 0.2266,0.19843 0.0229,-0.402 0.48327,-0.59976 1.15085,-0.49435 0.10914,0.0172 0.19844,-0.14023 0.19844,-0.34993 0,-0.20969 0.1393,-0.46735 0.30955,-0.57257 0.20156,-0.12457 0.25625,-0.0524 0.15677,0.20682 -0.084,0.21897 -0.0465,0.56592 0.0833,0.77101 0.18067,0.28539 0.23701,0.23828 0.24011,-0.20079 0.002,-0.31552 0.0763,-0.76201 0.16465,-0.99219 0.2292,-0.59729 -0.72819,-0.54465 -2.01268,0.11065 -1.99016,1.0153 -2.04135,0.6515 -0.39688,-2.82071 0.65485,-1.38266 1.19063,-2.67583 1.19063,-2.8737 0,-0.72284 0.56658,-0.67755 1.4723,0.11767 0.51005,0.44783 1.01419,0.81424 1.12033,0.81424 0.10613,0 0.84444,-0.23812 1.6407,-0.52917 1.53209,-0.55999 2.50945,-0.68607 2.26609,-0.2923 -0.0805,0.13027 0.0413,0.30886 0.27061,0.39687 0.82257,0.31565 0.99224,0.15031 0.40611,-0.39575 -0.82899,-0.77233 -0.46023,-0.98736 0.48931,-0.28533 0.84139,0.62206 1.33038,0.73545 1.33038,0.30849 0,-0.14741 -0.54199,-0.53134 -1.20443,-0.85318 -1.02302,-0.49702 -1.24003,-0.52754 -1.44082,-0.20266 -0.13002,0.21037 -0.31937,0.29953 -0.42078,0.19812 -0.28858,-0.28859 0.42715,-0.99092 1.00983,-0.99092 0.28866,0 0.9899,0.36833 1.55831,0.81851 0.93217,0.7383 1.11481,0.79016 1.86349,0.52917 1.025548,-0.35751 1.030488,-0.35743 0.949498,0.0142 -0.0411,0.1888 0.38398,0.31882 1.12448,0.34392 0.65485,0.0222 1.65868,0.26659 2.23074,0.54309 l 1.04011,0.50272 1.57839,-0.86075 c 0.86811,-0.47341 1.66939,-0.7651 1.78063,-0.6482 0.11124,0.1169 0.5218,1.28411 0.91237,2.59379 0.39056,1.30969 0.92912,3.06586 1.1968,3.90261 0.53892,1.68466 0.37929,1.84324 -0.88534,0.87951 -0.46323,-0.35302 -1.61614,-1.00777 -2.56203,-1.455 -1.448,-0.68464 -2.0334,-0.81255 -3.70417,-0.80931 -1.0914,0.002 -2.11981,0.0913 -2.28535,0.19823 -0.21204,0.13694 -0.26019,1.25359 -0.16296,3.77877 0.12246,3.18043 0.1907,3.58836 0.60552,3.61961 0.42574,0.0321 0.46394,-0.25867 0.42755,-3.25378 -0.022,-1.80895 -0.006,-3.28895 0.0347,-3.28888 0.0411,7e-5 0.18796,0.26801 0.32642,0.59543 0.19882,0.47017 0.22497,0.37283 0.1244,-0.46302 l -0.12734,-1.05833 0.79114,1.5875 c 0.72495,1.4547 0.86112,1.10787 0.23372,-0.59531 -0.16482,-0.44744 -0.12234,-0.59532 0.17103,-0.59532 0.21468,0 0.39215,0.14883 0.39438,0.33073 0.003,0.23884 0.0684,0.22915 0.23561,-0.0349 0.464,-0.73261 2.94404,0.15932 4.94704,1.77918 0.73296,0.59275 0.76643,0.71467 0.76643,2.79237 0,1.94713 -0.0934,2.35651 -0.89998,3.94522 -1.30499,2.57041 -4.0231,4.5547 -6.97138,5.08929 -0.5457,0.099 -0.99219,0.28401 -0.99219,0.41124 0,0.90761 0.79464,2.83508 1.5165,3.67841 0.47561,0.55565 0.86475,1.08064 0.86475,1.16665 0,0.3042 -2.02316,0.0944 -5.137888,-0.53271 z m 2.395818,-1.36143 c -0.49509,-1.73796 -0.659888,-4.17559 -0.666318,-9.85573 -0.004,-3.56526 -0.0799,-6.91236 -0.16865,-7.43799 -0.15341,-0.90889 -0.11997,-0.96396 0.682608,-1.12448 0.46415,-0.0928 1.7186,-0.16878 2.78767,-0.16878 2.01936,0 3.94342,0.62762 5.65052,1.84319 0.4156,0.29593 0.81533,0.53806 0.88828,0.53806 0.16671,0 -1.91903,-4.80398 -2.23543,-5.14875 -0.14632,-0.15945 -0.55084,-0.0662 -1.08704,0.25052 -0.76479,0.45177 -1.56371,0.51632 -7.648848,0.61798 -6.65735,0.11122 -6.81133,0.10179 -7.60828,-0.46568 -0.44737,-0.31856 -0.93593,-0.50348 -1.08569,-0.41092 -0.34958,0.21605 -2.14431,3.83496 -1.8998,3.83079 0.10125,-0.002 0.83894,-0.17891 1.6393,-0.39373 1.50766,-0.40468 7.12957,-0.56047 7.16096,-0.19844 0.009,0.10914 0.0752,3.66138 0.14602,7.89387 0.10735,6.41316 0.0623,7.88834 -0.27007,8.85321 -0.21939,0.63678 -0.35242,1.20425 -0.29562,1.26104 0.11454,0.11454 2.56892,0.49416 3.529148,0.54585 0.46497,0.025 0.58126,-0.0789 0.48124,-0.43001 z m -4.601688,-4.35487 c 0.15423,-1.05086 -0.11318,-2.12158 -0.56771,-2.27309 -0.25072,-0.0836 -0.27783,0.0178 -0.10158,0.37964 0.13223,0.27149 0.21389,0.99964 0.18145,1.61811 -0.0687,1.3108 0.30491,1.5217 0.48784,0.27534 z m 5.463368,-3.2359 c 0.0163,-1.0826 -0.0898,-2.04212 -0.23564,-2.13228 -0.16885,-0.10436 -0.26522,0.61081 -0.26522,1.96837 0,1.17275 0.10604,2.13228 0.23564,2.13228 0.12959,0 0.24894,-0.88576 0.26522,-1.96837 z m -5.430438,-3.91893 c -0.0647,-2.36454 -0.17799,-4.68611 -0.25182,-5.15905 l -0.13424,-0.8599 h -2.19509 -2.19509 l -0.30646,1.02288 c -0.16856,0.56259 -0.29342,1.78298 -0.27748,2.71198 l 0.029,1.6891 0.33822,-2.32953 c 0.18602,-1.28125 0.38133,-2.37256 0.43403,-2.42514 0.0527,-0.0526 0.10279,1.2051 0.11132,2.79483 0.009,1.58974 0.12759,3.00306 0.26458,3.14071 0.15578,0.15653 0.2175,-0.68678 0.16478,-2.25123 -0.0526,-1.56068 0.016,-2.50152 0.18247,-2.50152 0.14672,0 0.31347,0.44649 0.37055,0.99219 0.0864,0.82586 0.1165,0.74825 0.17962,-0.46302 l 0.0758,-1.45521 0.32977,1.85209 0.32977,1.85208 0.0398,-1.32292 c 0.0484,-1.60797 0.54878,-1.13489 0.55973,0.52917 0.009,1.38431 0.28806,3.04271 0.51179,3.04271 0.0973,0 0.12981,-0.40283 0.0723,-0.89518 -0.0575,-0.49235 -0.0559,-1.11743 0.003,-1.38906 0.0594,-0.27164 0.33439,0.95591 0.61111,2.72789 0.27672,1.77198 0.58559,3.17082 0.68636,3.10854 0.10078,-0.0623 0.13032,-2.04787 0.0657,-4.41241 z m -0.81919,-3.10853 c 0,-0.65485 0.0516,-0.92274 0.11467,-0.59532 0.0631,0.32743 0.0631,0.86321 0,1.19063 -0.0631,0.32742 -0.11467,0.0595 -0.11467,-0.59531 z m -0.84492,-0.41893 c 0.0127,-0.30822 0.0754,-0.37092 0.15985,-0.15985 0.0764,0.191 0.067,0.4192 -0.0209,0.50712 -0.0879,0.0879 -0.15045,-0.0684 -0.13896,-0.34727 z m -2.09578,-1.69774 c 0,-0.3638 0.06,-0.51263 0.13345,-0.33073 0.0734,0.1819 0.0734,0.47956 0,0.66146 -0.0734,0.1819 -0.13345,0.0331 -0.13345,-0.33073 z m 11.066668,6.54844 c -0.003,-0.46199 -0.0581,-0.50982 -0.24557,-0.21359 -0.17507,0.2767 -0.27091,0.0947 -0.34835,-0.66145 -0.10437,-1.01926 -0.10784,-1.01436 -0.1513,0.21358 -0.034,0.96051 0.0491,1.25677 0.3524,1.25677 0.23638,0 0.39524,-0.24073 0.39282,-0.59531 z m -10.573398,-2.7556 c -0.1944,-0.64816 -0.22579,-0.5703 -0.23095,0.57279 -0.005,1.01072 0.0485,1.18774 0.22498,0.75012 0.12875,-0.3193 0.13139,-0.90474 0.006,-1.32291 z m -2.68706,-0.4194 c -0.0351,-1.90401 -0.0368,-1.90842 -0.23506,-0.59531 -0.18133,1.20121 -0.0942,2.51354 0.1668,2.51354 0.057,0 0.0877,-0.86321 0.0683,-1.91823 z m 15.958848,-2.9016 c -0.18985,-0.18985 -0.31309,-0.20548 -0.31309,-0.0397 0,0.35316 0.3129,0.66606 0.48948,0.48948 0.0752,-0.0752 -0.004,-0.27759 -0.17639,-0.44979 z m -7.263908,-4.86503 c -0.0879,-0.0879 -0.31612,-0.0973 -0.50712,-0.0209 -0.21107,0.0845 -0.14837,0.14715 0.15985,0.15985 0.27892,0.0115 0.43519,-0.051 0.34727,-0.13897 z m 0.9977,-0.89848 c 0.0899,-0.14552 0.0445,-0.26458 -0.10106,-0.26458 -0.14552,0 -0.33817,0.11906 -0.42811,0.26458 -0.0899,0.14552 -0.0445,0.26459 0.10106,0.26459 0.14552,0 0.33817,-0.11907 0.42811,-0.26459 z M 6.0531892,179.01564 c -0.947264,-0.44289 -3.391096,-2.63569 -2.68252,-2.40698 0.3917,0.12643 0.452929,0.0636 0.299214,-0.30706 -0.106296,-0.25631 -0.198927,-0.61485 -0.205848,-0.79675 -0.0069,-0.1819 -0.08278,-0.33073 -0.168582,-0.33073 -0.0858,0 -0.163949,-0.95127 -0.173662,-2.11394 -0.0097,-1.16267 0.03988,-2.05639 0.11022,-1.98606 0.07033,0.0703 0.269756,-0.0797 0.443161,-0.33345 0.200123,-0.29284 0.268939,-1.07524 0.188405,-2.14212 -0.0812,-1.07576 -0.2085,-1.55196 -0.353642,-1.32291 -0.475192,0.74989 -0.238517,-0.39358 0.320461,-1.54827 0.342415,-0.70734 1.014743,-1.46325 1.753592,-1.97159 1.153488,-0.79362 1.271638,-0.81822 3.162004,-0.65843 2.1035798,0.17782 3.3146178,0.60367 2.7351558,0.9618 -0.247896,0.15321 -0.206655,0.27809 0.162693,0.49268 0.272121,0.1581 0.40128,0.29107 0.28702,0.29549 -0.114261,0.004 -0.07578,0.25463 0.08551,0.556 0.287729,0.53763 0.280127,0.53936 -0.403352,0.0915 -0.510675,-0.3346 -0.606097,-0.51237 -0.357508,-0.66601 0.250687,-0.15493 0.203065,-0.25354 -0.182653,-0.3782 -1.2864568,-0.41577 -1.5868138,-0.65576 -0.654042,-0.52257 0.70484,0.10063 0.79964,0.0736 0.396875,-0.1131 -0.724513,-0.33587 -1.9167578,-0.34138 -2.1216828,-0.01 -0.09641,0.15599 -0.545417,0.20199 -1.049155,0.10749 -0.680307,-0.12762 -0.991576,-0.0455 -1.36843,0.36098 -1.104845,1.19175 -1.677911,1.96698 -1.669063,2.25786 0.0052,0.16954 0.17953,0.0106 0.387498,-0.3532 l 0.378124,-0.66146 0.0094,0.85989 c 0.0052,0.47295 -0.109678,0.8599 -0.255198,0.8599 -0.145521,0 -0.282467,0.44648 -0.304322,0.99219 l -0.03974,0.99219 -0.172379,-1.19063 -0.172381,-1.19062 -0.170696,0.92604 c -0.283676,1.53894 -0.186743,1.91548 0.440595,1.71153 0.303167,-0.0986 0.967933,-0.22657 1.477256,-0.28446 0.725437,-0.0824 0.811411,-0.0518 0.396875,0.14129 l -0.529167,0.24653 0.529167,0.0102 c 0.291042,0.006 0.7346,-0.14585 0.985687,-0.33655 0.366141,-0.27808 0.409083,-0.51213 0.216905,-1.18221 -0.286787,-0.99997 0.122949,-1.14497 0.555125,-0.19645 0.335129,0.73553 0.87398,0.93219 1.8141578,0.66208 0.997858,-0.28667 2.33176,-0.2871 1.87928,-6.1e-4 -0.203324,0.12874 -0.780778,0.23408 -1.283229,0.23408 -0.9933888,0 -1.8994148,0.56202 -0.9796968,0.60772 1.2931748,0.0643 2.6918158,-0.0714 3.3358958,-0.32354 0.990103,-0.3876 1.892348,0.26904 2.734352,1.99004 l 0.672979,1.37552 -0.442423,1.95911 c -0.387194,1.71456 -0.596985,2.11367 -1.680634,3.19732 -0.975264,0.97527 -1.531241,1.30106 -2.618097,1.53414 -1.8797528,0.40314 -4.7552338,0.35493 -5.7194688,-0.0959 z m 3.042709,-0.36597 c 0,-0.12574 0.506029,-0.29798 1.1245108,-0.38276 1.824791,-0.25011 3.053365,-0.90415 3.903882,-2.07825 0.435843,-0.60166 0.782727,-1.28443 0.770858,-1.51726 -0.01188,-0.23283 -0.17907,-0.0651 -0.371549,0.37265 -0.497456,1.13142 -1.389108,1.89325 -1.770036,1.51232 -0.221721,-0.22172 -0.128132,-0.37625 0.363556,-0.60027 0.475313,-0.21657 0.668314,-0.51889 0.684025,-1.07147 0.01204,-0.42337 0.08666,-0.97792 0.165822,-1.23233 0.07916,-0.2544 0.02941,-0.64115 -0.110559,-0.85943 -0.226213,-0.35278 -0.258326,-0.35278 -0.28901,0 -0.019,0.21828 -0.01368,0.60308 0.01177,0.85512 0.02545,0.25203 -0.06964,0.6654 -0.211338,0.9186 -0.219173,0.39164 -0.296958,0.32324 -0.521126,-0.45825 l -0.263501,-0.91859 -0.02387,0.97013 c -0.01312,0.53358 0.103743,1.01268 0.259707,1.06467 0.165047,0.055 0.04643,0.39599 -0.283786,0.8158 -0.312047,0.3967 -0.439653,0.72127 -0.28357,0.72127 0.156083,0 0.283786,0.1 0.283786,0.22211 0,0.30066 -1.305523,0.8782 -1.589045,0.70298 -0.12456,-0.077 -0.30126,-0.019 -0.392663,0.12893 -0.0914,0.14789 -0.492537,0.2689 -0.8914068,0.2689 -0.39887,0 -0.838327,0.10898 -0.976572,0.24218 -0.138245,0.1332 -0.549011,0.29558 -0.912813,0.36084 -0.481885,0.0865 -0.392099,0.12845 0.33073,0.1547 0.545703,0.0198 0.992187,-0.0669 0.992187,-0.19259 z m -2.513542,-0.30055 c -0.291042,-0.12506 -0.70776,-0.22739 -0.926042,-0.22739 -0.250158,0 -0.201252,0.0841 0.132292,0.22739 0.291042,0.12507 0.70776,0.22739 0.926042,0.22739 0.250158,0 0.201252,-0.0841 -0.132292,-0.22739 z m 6.4459858,-0.27983 c 0.489354,-0.29834 0.810302,-0.62187 0.713218,-0.71895 -0.09709,-0.0971 -0.263183,-0.0363 -0.369109,0.1351 -0.105923,0.17139 -0.605465,0.4907 -1.110091,0.70958 -0.504627,0.21889 -0.73891,0.40219 -0.520629,0.40734 0.218281,0.005 0.797256,-0.23473 1.286611,-0.53307 z m -6.0491108,-0.33725 c -0.654844,-0.33638 -1.237358,-0.57615 -1.294474,-0.53282 -0.224684,0.17045 0.571474,0.85984 1.115251,0.96569 1.27567,0.24833 1.315944,0.15105 0.179223,-0.43287 z m -1.711677,-1.96261 c -0.210751,-0.63973 -0.259985,-1.50912 -0.138597,-2.44739 l 0.188267,-1.45521 0.04663,1.32292 c 0.02564,0.7276 0.212646,1.62057 0.415555,1.98437 0.350457,0.62834 0.362445,0.60184 0.239443,-0.52917 -0.07122,-0.65484 -0.170818,-1.39914 -0.221338,-1.65401 -0.05052,-0.25486 0.0057,-0.40306 0.125037,-0.32934 0.119288,0.0737 0.297138,0.60905 0.395222,1.1896 0.267776,1.58495 0.655433,1.54216 0.521819,-0.0576 -0.115279,-1.38019 -0.113379,-1.38447 0.152405,-0.34383 0.447471,1.75201 0.648692,1.54446 0.648692,-0.66909 0,-1.15683 -0.0893,-2.10358 -0.198437,-2.10389 -0.109141,-3.2e-4 -0.198438,0.11849 -0.198438,0.26401 0,0.50709 -0.853614,0.25984 -1.370187,-0.39688 -0.286168,-0.3638 -0.66049,-0.65206 -0.831829,-0.64057 -0.200146,0.0134 -0.186364,0.0709 0.03855,0.16079 0.268168,0.10717 0.230314,0.27252 -0.161788,0.70672 -0.771273,0.85407 -1.512067,3.3574 -0.877472,2.9652 0.244774,-0.15128 0.571019,0.45278 0.538292,0.99669 -0.01023,0.17 -0.12092,0.071 -0.245985,-0.22008 -0.153184,-0.35647 -0.234781,-0.39965 -0.25004,-0.13229 -0.02013,0.35278 -0.05114,0.35278 -0.279127,0 -0.221033,-0.34202 -0.25704,-0.33504 -0.260533,0.0505 -0.0021,0.24608 0.116954,0.52219 0.264848,0.6136 0.147894,0.0914 0.211241,0.25948 0.140767,0.37351 -0.07047,0.11403 0.04073,0.43322 0.24711,0.70932 0.357939,0.47886 0.368324,0.47455 0.225248,-0.0933 -0.203076,-0.80601 0.282204,-0.75718 0.657336,0.0661 0.450815,0.98944 0.560234,0.79751 0.188547,-0.33073 z m 3.299177,0.62771 c 0,-0.20046 -0.200885,-0.52788 -0.446413,-0.7276 -0.392972,-0.31966 -0.424646,-0.30511 -0.264583,0.12153 0.100007,0.26657 0.181829,0.59399 0.181829,0.72761 0,0.13362 0.119063,0.24294 0.264584,0.24294 0.145521,0 0.264583,-0.16401 0.264583,-0.36448 z m 0.467352,-0.85615 c -0.173281,-0.38031 -0.360577,-0.5549 -0.416216,-0.38798 -0.05564,0.16692 0.04373,0.47808 0.220829,0.69146 0.479896,0.57824 0.548545,0.47161 0.195387,-0.30348 z m 0.473107,-0.65756 c -0.214818,-0.49496 -0.39524,-0.75671 -0.400937,-0.58165 -0.01273,0.39139 0.569109,1.70399 0.698143,1.57495 0.05136,-0.0514 -0.08239,-0.49834 -0.297206,-0.9933 z m 1.6945258,0.066 c -0.08445,-1.3097 0.01199,-1.52691 0.381699,-0.85975 0.249952,0.45104 0.388255,0.5278 0.476729,0.26458 0.164192,-0.48849 -0.05352,-1.29683 -0.349271,-1.29683 -0.128548,0 -0.233725,-0.30356 -0.233725,-0.67459 0,-0.91702 -0.71551,-2.23582 -1.213035,-2.23582 -0.223132,0 -0.3321108,-0.11907 -0.242174,-0.26459 0.214257,-0.34667 -0.0356,-0.33495 -0.7250288,0.034 -0.544124,0.2912 -0.538774,0.30706 0.215831,0.63997 0.7270168,0.32073 0.7360708,0.34266 0.149786,0.36285 -0.50936,0.0175 -0.597742,0.13085 -0.481084,0.6168 0.0786,0.32742 0.228126,1.06475 0.332279,1.6385 0.379349,2.08974 1.8049538,3.5887 1.6879938,1.77485 z m -1.135602,-1.16462 c -0.2667448,-0.69135 -0.4288628,-1.40573 -0.3602618,-1.5875 0.179372,-0.47528 1.0229608,1.59782 0.9262558,2.27624 -0.0605,0.42445 -0.203742,0.25014 -0.565994,-0.68874 z m 5.328685,1.51458 c -0.08146,-0.0815 -0.229407,0.0654 -0.328766,0.32632 -0.143584,0.37708 -0.113194,0.40747 0.148114,0.14811 0.180821,-0.17947 0.262114,-0.39297 0.180652,-0.47443 z m -3.123901,0.007 c 0,-0.21828 -0.04679,-0.39687 -0.103984,-0.39687 -0.05719,0 -0.172516,0.17859 -0.256281,0.39687 -0.08376,0.21828 -0.03697,0.39688 0.103984,0.39688 0.140954,0 0.256281,-0.1786 0.256281,-0.39688 z m 3.435532,-1.52135 c -0.0027,-0.57768 -0.07814,-0.74298 -0.229811,-0.50367 -0.164407,0.25942 -0.309195,0.11689 -0.532773,-0.52447 -0.487577,-1.39866 -1.821826,-2.60988 -2.874971,-2.60988 -0.796266,0 -0.872318,0.0619 -0.7088,0.57711 0.100743,0.31741 0.405977,0.94249 0.678299,1.38906 l 0.495128,0.81195 0.0011,-0.7276 c 5.3e-4,-0.40018 0.12708,-0.72761 0.281189,-0.72761 0.154109,0 0.206613,0.11907 0.116676,0.26459 -0.08994,0.14552 0.01095,0.26458 0.224197,0.26458 0.264224,0 0.346298,-0.18962 0.257673,-0.59531 -0.126995,-0.58135 -0.117399,-0.5798 0.409207,0.0661 0.296587,0.36381 0.643871,1.07818 0.771742,1.5875 0.12787,0.50933 0.371591,0.89628 0.541607,0.8599 0.169945,-0.0364 0.309047,0.11245 0.309047,0.33073 0,0.21828 0.05953,0.39687 0.132292,0.39687 0.07276,0 0.130468,-0.38695 0.12824,-0.85989 z m -4.096991,-3.10886 c -0.08994,-0.14552 -0.04446,-0.26458 0.101063,-0.26458 0.145521,0 0.338167,0.11906 0.428104,0.26458 0.08994,0.14552 0.04446,0.26459 -0.101063,0.26459 -0.145521,0 -0.338166,-0.11907 -0.428104,-0.26459 z m -2.9365098,2.11667 c 0.128887,0.65484 0.277707,1.01203 0.330714,0.79375 0.05301,-0.21828 0.0062,-0.89413 -0.104122,-1.50188 -0.180237,-0.99335 -0.247287,-1.07061 -0.663524,-0.76458 -0.384289,0.28254 -0.429594,0.56044 -0.266409,1.63418 l 0.196619,1.29374 0.136192,-1.32292 0.136192,-1.32291 z m 7.0279208,-1.14229 c -0.223578,-0.1721 -0.36033,-0.53865 -0.303895,-0.81454 0.07405,-0.362 -0.0099,-0.45844 -0.301752,-0.34646 -0.222401,0.0853 -0.561898,-0.0386 -0.754441,-0.27552 -0.302995,-0.37276 -0.285959,-0.40664 0.126691,-0.25188 0.29967,0.11238 0.413512,0.0765 0.306483,-0.0967 -0.09365,-0.15154 -0.308198,-0.22579 -0.476764,-0.16502 -0.168566,0.0608 -0.525039,-0.002 -0.792165,-0.13976 -0.882123,-0.45455 -0.745456,-0.019 0.162052,0.51646 0.489273,0.28868 1.101122,0.97064 1.359662,1.51548 0.357315,0.75298 0.543303,0.91628 0.775354,0.68074 0.231023,-0.23449 0.206398,-0.38598 -0.101225,-0.62278 z M 4.3333982,170.8578 c 0,-0.13553 -0.178594,-0.0982 -0.396875,0.083 -0.218282,0.18115 -0.393089,0.52316 -0.388462,0.76 0.0071,0.36177 0.07053,0.3485 0.396875,-0.083 0.213654,-0.28247 0.388462,-0.62447 0.388462,-0.76 z m 4.444674,-1.09851 c 0.05843,-0.0584 0.03043,-0.22887 -0.06221,-0.37877 -0.102989,-0.16664 -0.375552,-0.0654 -0.701487,0.26052 -0.344779,0.34477 -0.738532,0.4824 -1.114827,0.38966 -0.319979,-0.0789 -0.43221,-0.0748 -0.249402,0.009 0.182809,0.0838 0.2613,0.26745 0.174429,0.40801 -0.139192,0.22522 1.681454,-0.41645 1.953493,-0.68849 z m -1.076748,-6.38671 c -0.08792,-0.0879 -0.316124,-0.0973 -0.507119,-0.0209 -0.211066,0.0845 -0.148373,0.14716 0.159853,0.15985 0.278913,0.0115 0.435184,-0.051 0.347266,-0.13896 z m -26.1718352,15.04267 c 1.034068,-1.45966 0.991155,-6.41364 -0.05263,-6.07634 -0.161975,0.0523 -0.62076,1.01908 -1.019522,2.14831 -0.995952,2.82038 -1.617474,3.64922 -2.658899,3.54579 -0.88617,-0.088 -0.91593,-0.14428 -2.35208,-4.44641 -0.36433,-1.09141 -0.74812,-2.17854 -0.85286,-2.41586 -0.14378,-0.32578 0.0177,-0.50404 0.65901,-0.72761 1.2823,-0.44701 1.59278,-0.38283 1.44748,0.2992 -0.21105,0.99068 0.96955,5.07808 1.49502,5.17594 0.963802,0.1795 1.895286,-3.87311 1.093792,-4.75875 -0.733612,-0.81063 -0.204168,-0.84957 1.620361,-0.11916 0.953686,0.38179 2.149441,0.69416 2.657232,0.69416 0.507791,0 0.923258,0.0527 0.923258,0.11717 0,0.0644 -0.250671,0.54202 -0.557048,1.06129 -0.471345,0.79887 -0.542116,1.27294 -0.459989,3.08138 0.07482,1.64761 0.202441,2.21431 0.557048,2.4736 0.762461,0.55752 0.540243,0.67489 -1.277818,0.67489 h -1.73781 z m -74.508921,-0.35601 c -0.24789,-0.45047 -0.77814,-1.24075 -1.17832,-1.75618 -0.40018,-0.51542 -0.7276,-1.07388 -0.7276,-1.24101 0,-0.40214 2.12825,-2.02868 2.41917,-1.84889 0.42433,0.26225 0.22827,0.8573 -0.44378,1.34685 -0.60447,0.44033 -0.63332,0.53915 -0.29321,1.00427 0.31612,0.43232 0.44427,0.46024 0.79114,0.17237 0.22765,-0.18894 0.53819,-0.26671 0.69009,-0.17284 0.40657,0.25128 0.3359,0.85367 -0.1207,1.02889 -0.52272,0.20058 -0.50237,0.67213 0.0556,1.2887 0.39036,0.43134 0.39944,0.53357 0.0662,0.74439 -0.60764,0.38434 -0.77731,0.30797 -1.25856,-0.56655 z m 57.62533,0.15757 c 0,-0.0728 0.22793,-0.36023 0.50651,-0.63881 0.3746,-0.37459 0.48686,-0.80528 0.43104,-1.65364 -0.0415,-0.63093 -0.0909,-2.42242 -0.10965,-3.9811 -0.0301,-2.5022 -0.0984,-2.89385 -0.58324,-3.34551 -0.30199,-0.28135 -0.45082,-0.57023 -0.33073,-0.64195 0.1201,-0.0717 2.62183,-0.21688 5.55941,-0.32259 4.1757,-0.15026 5.37176,-0.27223 5.4818,-0.55899 0.23747,-0.61884 0.79785,-0.41346 1.82263,0.668 0.53931,0.56913 0.98056,1.08417 0.98056,1.14452 0,0.0603 -2.55984,0.0552 -5.68854,-0.0114 l -5.68854,-0.12114 v 0.66811 c 0,1.04485 1.55628,1.34727 3.01593,0.58606 0.42183,-0.21998 0.79154,-0.36808 0.82157,-0.3291 0.03,0.039 0.24249,0.63431 0.47214,1.32295 0.42924,1.28716 0.31968,1.67394 -0.35353,1.24807 -0.21133,-0.13369 -1.13132,-0.2449 -2.04443,-0.24713 -1.56665,-0.004 -1.67568,0.0367 -1.93505,0.71886 -0.30446,0.80079 -0.0646,4.51132 0.32294,4.99664 0.16229,0.20322 -0.075,0.34699 -0.75936,0.4601 -1.21361,0.20059 -1.92146,0.21461 -1.92146,0.0381 z m 29.6316212,-0.0999 c -2.477953,-0.81003 -3.438091,-2.09814 -3.437462,-4.61162 5.3e-4,-2.15829 0.574109,-3.25585 2.157656,-4.12884 1.213266,-0.66885 1.240457,-0.67156 1.785938,-0.17791 0.476723,0.43143 0.553913,0.4421 0.553913,0.0765 0,-0.2336 -0.207367,-0.54078 -0.460817,-0.68262 -0.758364,-0.4244 -0.2169,-0.5982 1.006967,-0.32322 1.339768,0.30103 1.570517,0.21008 1.570517,-0.61903 0,-0.3374 0.178593,-0.76167 0.396875,-0.94283 0.339976,-0.28215 0.396875,-0.19603 0.396875,0.60076 0,1.0019 0.312833,1.25133 1.56944203,1.25133 0.402825,0 1.22652597,0.35793 1.83044297,0.79541 1.102156,0.79839 1.267688,1.06208 0.899594,1.43304 -0.109141,0.10999 -0.205168,0.69538 -0.213397,1.30087 -0.0082,0.60549 -0.105635,1.45807 -0.216464,1.89464 -0.190343,0.74979 -0.178678,0.76551 0.210664,0.28389 0.226693,-0.28041 0.474467,-0.44755 0.550609,-0.37141 0.07614,0.0761 -0.220282,0.58984 -0.658725,1.14155 -0.438441,0.55171 -0.797166,1.04626 -0.797166,1.09901 0,0.20278 0.243467,0.0792 0.655158,-0.33246 0.235607,-0.2356 0.490485,-0.36626 0.566399,-0.29035 0.319382,0.31938 -0.652827,1.34102 -1.88301597,1.97875 -1.061103,0.55008 -1.76799803,0.70119 -3.57187503,0.76354 -1.236927,0.0428 -2.547384,-0.0198 -2.912128,-0.13905 z m 5.75088803,-0.72145 c -0.08792,-0.0879 -0.316124,-0.0973 -0.507119,-0.0209 -0.211066,0.0845 -0.148373,0.14716 0.159853,0.15985 0.278914,0.0115 0.435184,-0.051 0.347266,-0.13896 z m -4.43896803,-3.8089 c 0.04615,0.61168 0.06701,0.62163 0.277292,0.13229 0.125066,-0.29104 0.235759,-0.38774 0.245985,-0.21488 0.01024,0.17286 0.226957,0.29883 0.481619,0.27994 0.390993,-0.029 0.448918,-0.25289 0.372361,-1.43923 -0.04986,-0.77268 -0.196231,-1.33964 -0.32526,-1.25989 -0.129032,0.0797 -0.489556,0.009 -0.801166,-0.15822 -0.399069,-0.21358 -0.513056,-0.21664 -0.385575,-0.0104 0.09955,0.16107 -0.0052,0.36428 -0.232653,0.45158 -0.441212,0.16931 -0.544587,1.32701 -0.221748,2.48336 l 0.184672,0.66146 0.177286,-0.79375 c 0.164725,-0.7375 0.180822,-0.74688 0.227187,-0.13229 z m -3.773656,-1.25677 c -0.06655,-0.25466 -0.121002,-0.0463 -0.121002,0.46302 0,0.50932 0.05445,0.71768 0.121002,0.46302 0.06655,-0.25466 0.06655,-0.67138 0,-0.92604 z m 6.975737,0.59531 c 0.180215,0.44768 0.21650603,0.40694 0.23566703,-0.26458 0.01749,-0.61309 0.08102,-0.70342 0.279127,-0.39688 0.213469,0.33032 0.260763,0.30813 0.282022,-0.13229 0.0205,-0.42467 0.101912,-0.37242 0.41229799995,0.26459 0.37175000005,0.76295 0.38122700005,0.76647 0.24422100005,0.0907 -0.07839,-0.38666 -0.220097,-0.92244 -0.314894,-1.19062 -0.137721,-0.3896 -0.103428,-0.42384 0.170624,-0.17033 0.188646,0.1745 0.440643,0.76982 0.559994,1.32292 0.194701,0.90228 0.204869,0.86968 0.09893,-0.31728 -0.108045,-1.21057 -0.08489,-1.2793 0.27270097,-0.80932 0.313076,0.41147 0.390771,0.43107 0.390771,0.0985 0,-0.22828 -0.178594,-0.56327 -0.396875,-0.74443 -0.29575097,-0.24545 -0.39687497,-0.24972 -0.39687497,-0.0168 0,0.18377 -0.136303,0.22753 -0.330729,0.1062 -0.6564,-0.40964 -1.199801,-0.33585 -1.33503503,0.18129 -0.158996,0.608 -0.98007,0.7137 -0.98007,0.12617 0,-0.21828 -0.10555,-0.39688 -0.234553,-0.39688 -0.323051,0 -0.488656,1.32013 -0.265959,2.12011 0.17784,0.63883 0.184846,0.63488 0.240247,-0.13573 0.04022,-0.55948 0.09162,-0.63757 0.174157,-0.26458 0.247793,1.11984 0.439732,1.34555 0.562504,0.66145 0.110585,-0.61619 0.133286,-0.62524 0.331727,-0.13229 z m -6.307934,-0.92604 c 0.06407,-0.43656 0.01804,-0.79375 -0.102262,-0.79375 -0.120319,0 -0.21876,0.35719 -0.21876,0.79375 0,0.43656 0.04602,0.79375 0.102261,0.79375 0.05625,0 0.154686,-0.35719 0.218761,-0.79375 z m 0.733261,-0.47864 c 0.0022,-0.19048 -0.115012,-0.27275 -0.260533,-0.18282 -0.145521,0.0899 -0.26276,0.42439 -0.260533,0.74322 0.0033,0.47129 0.05202,0.50548 0.260533,0.18282 0.141065,-0.21828 0.258305,-0.55273 0.260533,-0.74322 z m 8.191656,-1.52318 c -0.49403497,-0.59528 -1.71137497,-1.17621 -2.419779,-1.15475 -0.380804,0.0115 -0.15095,0.15931 0.61434703,0.39497 0.672536,0.2071 1.371724,0.556 1.55374997,0.77533 0.182025,0.21932 0.390485,0.39877 0.463245,0.39877 0.07276,0 -0.02244,-0.18644 -0.211563,-0.41432 z m -2.36677197,-0.37943 c 0,-0.14552 -0.30468403,-0.26458 -0.67707403,-0.26458 -0.384006,0 -0.606293,0.11452 -0.513551,0.26458 0.08994,0.14552 0.394621,0.26458 0.677074,0.26458 0.282453,0 0.51355103,-0.11906 0.51355103,-0.26458 z m -2.53288603,-0.55684 c -0.798806,-0.31293 -0.998156,-0.26904 -0.655166,0.14424 0.173979,0.20963 0.507272,0.30787 0.740656,0.21832 0.365882,-0.14041 0.354105,-0.19035 -0.08549,-0.36256 z m -46.3045672,6.04694 0.0218,-2.97656 -0.66146,0.0257 c -0.3638,0.0142 -0.86982,0.11619 -1.12448,0.22674 -0.38897,0.16886 -0.46296,0.0589 -0.46264,-0.6872 l 3.9e-4,-0.8882 2.91003,-0.0454 2.91003,-0.0454 v 1.1699 c 0,1.25294 -0.32901,1.5091 -0.80234,0.62468 -0.18668,-0.3488 -0.49981,-0.51561 -0.86921,-0.46302 -0.54463,0.0775 -0.57741,0.21738 -0.57741,2.46345 0,1.30969 0.0973,2.64914 0.21627,2.97657 0.19728,0.54303 0.13727,0.59531 -0.68329,0.59531 h -0.89955 z m 39.214633,2.38126 c -0.222512,-0.8303 -0.205454,-1.78757 0.03167,-1.77758 0.10914,0.005 0.528005,0.29839 0.9308072,0.65287 0.704477,0.61995 0.714832,0.66499 0.271928,1.18226 -0.600903,0.7018 -1.0363492,0.6815 -1.2344092,-0.0576 z m -70.493013,0.0132 c -0.17463,-0.17462 -0.3175,-0.53902 -0.3175,-0.80977 0,-0.44873 -0.15795,-0.4767 -1.78603,-0.31628 -1.61729,0.15937 -1.83496,0.12192 -2.30398,-0.39634 -0.39759,-0.43933 -0.45285,-0.67633 -0.23781,-1.01986 0.36984,-0.59082 1.68198,-0.76097 1.68198,-0.2181 0,0.23261 -0.30115,0.43777 -0.7276,0.49569 l -0.7276,0.0988 0.67808,0.29025 c 1.16863,0.50022 3.05957,-0.0981 3.72799,-1.17966 0.69025,-1.11685 1.46815,-1.42671 3.04058,-1.21119 0.87588,0.12006 1.25923,0.30547 1.35012,0.65301 0.1566,0.59885 1.64526,1.54967 2.42624,1.54967 1.54455,0 2.91735,-1.61476 2.5653,-3.01743 -0.0892,-0.35556 -0.5322,-0.92342 -0.98436,-1.26191 -0.45216,-0.3385 -1.24119,-1.00562 -1.75341,-1.48249 -0.86625,-0.80649 -0.92163,-0.95279 -0.79291,-2.09478 0.15188,-1.3475 0.71261,-1.95988 2.27874,-2.48865 0.79034,-0.26685 1.08356,-0.21441 2.51354,0.44949 0.89036,0.41337 1.65537,0.77188 1.70002,0.7967 0.0446,0.0248 -0.31073,0.60111 -0.78972,1.28066 l -0.87089,1.23554 -0.43973,-1.03539 c -0.61548,-1.44921 -1.84286,-1.84342 -2.72041,-0.87375 -0.61946,0.6845 -0.19749,1.32817 1.51634,2.31299 1.75642,1.00931 2.37216,2.1392 2.21378,4.06236 -0.24227,2.94179 -1.66378,4.14237 -5.07597,4.28708 l -1.85208,0.0785 -0.0852,-1.04428 c -0.16597,-2.03377 -1.78068,-3.27739 -3.11779,-2.40127 -0.88765,0.58161 -0.80991,1.01282 0.14479,0.80313 1.63789,-0.35975 2.49901,1.08498 1.33843,2.24555 -0.59251,0.59251 -2.08983,0.71474 -2.59291,0.21166 z m 2.42945,-0.80201 c 0.22164,-0.35401 0.18072,-0.56413 -0.18017,-0.92501 -0.44621,-0.44622 -0.46364,-0.43762 -0.39239,0.19347 0.10104,0.8949 -0.94201,0.95461 -1.06883,0.0612 -0.0963,-0.6786 -0.5764,-0.54112 -0.5764,0.16506 0,1.09074 1.62014,1.45986 2.21779,0.50529 z m 17.57739,0.39191 c -0.0749,-0.65107 -0.202,-0.73616 -1.2082,-0.80896 l -1.12448,-0.0814 v -3.39606 c 0,-3.6258 0.0344,-3.71727 1.39748,-3.71727 0.4359,0 0.48988,0.0706 0.24294,0.3175 -0.20375,0.20375 -0.3175,1.24649 -0.3175,2.91042 v 2.59292 h 1.03669 c 1.86463,0 1.96965,0.14809 1.14559,1.61533 -0.39989,0.712 -0.80846,1.29467 -0.90793,1.29481 -0.0995,1.5e-4 -0.21854,-0.32715 -0.26459,-0.72733 z m 47.586636,0.53399 c -0.578598,-0.0851 -0.70672,-0.21074 -0.56471,-0.55357 0.781341,-1.88622 1.030009,-6.25522 0.380111,-6.6783 -0.387342,-0.25216 -1.407499,-0.18481 -2.600082,0.17164 l -0.62266,0.18612 0.62266,-0.9506 0.622662,-0.95059 3.042709,0.15878 c 3.0283102,0.15803 3.4275262,0.29688 3.4355322,1.19486 0.0034,0.37916 -0.223938,0.44496 -1.3711262,0.39688 l -1.375177,-0.0576 -0.09496,1.85209 c -0.05223,1.01864 -0.118007,2.61597 -0.146177,3.54961 -0.05364,1.77757 -0.117949,1.85892 -1.328786,1.68073 z m -27.868416,-1.94649 c 0.0911,-1.07851 0.23737,-2.32644 0.32515,-2.77316 0.12493,-0.63577 0.009,-0.99168 -0.53548,-1.63828 l -0.69509,-0.82607 1.00279,-0.27847 c 1.25632,-0.34887 2.48815,-0.35745 3.36668,-0.0234 0.87563,0.33292 1.73489,1.75038 1.73615,2.86401 0.002,1.75182 -1.04326,2.92961 -3.43859,3.87466 -0.65485,0.25835 -1.35635,0.53543 -1.5589,0.61571 -0.30324,0.1202 -0.33903,-0.20025 -0.20271,-1.81497 z m 2.92871,-1.31978 c 0.7289,-0.86625 0.90346,-2.12521 0.35425,-2.55492 -0.55425,-0.43365 -1.54609,-0.58288 -1.6517,-0.24851 -0.0539,0.1706 -0.14349,1.05433 -0.19913,1.96383 -0.0874,1.42845 -0.039,1.65365 0.35522,1.65365 0.25101,0 0.76462,-0.36632 1.14136,-0.81405 z m -26.97245,2.12327 c -0.0946,-0.15306 -0.48857,-0.25417 -0.87551,-0.22469 -1.23067,0.0938 -2.54353,-0.0267 -2.92516,-0.2683 -0.31423,-0.19896 -0.30433,-0.4937 0.0661,-1.96855 0.23964,-0.95401 0.43571,-2.52913 0.43571,-3.50028 v -1.76573 l 2.12508,0.18538 c 2.01269,0.17556 2.15216,0.15288 2.63703,-0.42886 0.73298,-0.87942 0.64706,-0.22967 -0.16074,1.21566 -0.57201,1.02343 -0.74204,1.16824 -0.99219,0.84503 -0.16604,-0.21452 -0.77814,-0.42789 -1.36022,-0.47415 -1.01543,-0.0807 -1.06163,-0.0502 -1.13956,0.75318 -0.0649,0.66903 0.0359,0.87446 0.50179,1.02232 0.41991,0.13327 0.65837,0.0504 0.85242,-0.29638 0.25733,-0.45982 0.2785,-0.4582 0.47181,0.036 0.11131,0.28459 0.21075,0.78748 0.22098,1.11755 0.0168,0.54317 -0.0881,0.59338 -1.10588,0.52916 -1.12299,-0.0709 -1.12459,-0.0696 -1.2066,0.92124 l -0.0821,0.99219 h 1.0587 c 0.58227,0 1.13227,-0.11906 1.22221,-0.26458 0.30597,-0.49508 0.65358,-0.26644 1.05478,0.69377 0.22023,0.52709 0.40042,1.00334 0.40042,1.05833 0,0.2314 -1.0416,0.0765 -1.19909,-0.1783 z m 22.04094,0.12984 c -0.0816,-0.0816 -0.88797,-0.25296 -1.79184,-0.38073 -0.90388,-0.12776 -1.70028,-0.28916 -1.7698,-0.35868 -0.0695,-0.0695 0.10717,-0.35995 0.39264,-0.64541 0.72187,-0.72187 1.33715,-4.79369 0.89955,-5.95304 -0.16882,-0.44725 -0.25404,-0.86608 -0.18939,-0.93074 0.0647,-0.0647 0.65109,0.0168 1.30319,0.181 1.46693,0.36937 2.71943,0.38386 2.93568,0.034 0.26981,-0.43656 0.66146,-0.29908 0.66146,0.23218 0,0.76055 -0.54148,1.05134 -2.12469,1.14104 -1.41331,0.0801 -1.4491,0.10172 -1.52884,0.92499 -0.0777,0.80237 -0.0331,0.847 0.92604,0.92604 0.81276,0.067 1.02405,0.1982 1.09224,0.67835 0.0771,0.54285 -0.022,0.59531 -1.12447,0.59531 h -1.20903 v 1.04635 c 0,0.99506 0.0475,1.05525 0.96839,1.22801 0.7657,0.14365 1.04108,0.0823 1.31564,-0.2932 0.38084,-0.52082 0.47904,-0.38128 0.70053,0.99541 0.1034,0.6427 0.0339,0.7276 -0.59591,0.7276 -0.39212,0 -0.77975,-0.0668 -0.86139,-0.14844 z m 59.474774,-0.24002 c 0.394338,-0.29826 0.421439,-0.39237 0.116716,-0.40529 -0.342966,-0.0146 -0.340283,-0.0606 0.01974,-0.33914 0.565327,-0.43736 1.037722,-1.88995 1.042635,-3.20607 0.003,-0.79799 0.07191,-0.98002 0.260544,-0.68812 0.209542,0.32424 0.257222,0.29329 0.260532,-0.16913 0.0021,-0.3113 -0.240797,-0.84708 -0.540054,-1.19062 l -0.544108,-0.62463 0.300961,0.61798 c 0.165526,0.33988 0.24271,0.67622 0.171519,0.74741 -0.07119,0.0712 -0.28335,-0.2962 -0.471464,-0.81641 -0.207079,-0.57267 -0.517051,-0.94585 -0.78564,-0.94585 -0.243991,0 -0.591839,-0.1786 -0.772996,-0.39688 -0.382464,-0.46084 -0.189371,-0.49013 0.993933,-0.15076 0.960615,0.2755 1.09863,0.0535 0.374296,-0.60198 -0.283245,-0.25633 -0.968859,-0.44882 -1.653646,-0.46426 -0.959297,-0.0216 -1.050766,-0.0626 -0.508334,-0.22768 0.363803,-0.11072 1.018646,-0.1552 1.455209,-0.0989 0.782444,0.10099 0.784328,0.0983 0.132292,-0.18717 -0.363803,-0.15929 -0.988881,-0.22498 -1.389063,-0.14597 -0.400182,0.079 -0.727604,0.0313 -0.727604,-0.106 0,-0.35492 -0.846998,0.005 -1.353953,0.57525 -0.235349,0.26477 -0.571904,0.48139 -0.747903,0.48139 -0.388519,0 0.896369,-1.06231 1.900029,-1.57089 2.124763,-1.07668 5.485442,2.00043 5.492017,5.0286 0.0033,1.51652 -0.784786,3.35312 -1.852882,4.31808 -0.581671,0.5255 -1.199057,0.95546 -1.371973,0.95546 -0.172916,0 -0.08328,-0.17481 0.199199,-0.38846 z m 1.614861,-3.91102 c -0.0734,-0.1819 -0.133453,-0.0331 -0.133453,0.33073 0,0.3638 0.06005,0.51263 0.133453,0.33073 0.0734,-0.1819 0.0734,-0.47956 0,-0.66146 z m -108.469025,2.00531 c -0.69841,-1.10068 -1.23419,-2.02582 -1.19062,-2.05588 0.0436,-0.0301 0.46591,-0.32168 0.93855,-0.64805 0.51518,-0.35574 1.15098,-0.55985 1.5875,-0.50963 0.63364,0.0729 0.73888,0.2137 0.81079,1.0847 0.074,0.89582 0.19585,1.04623 1.1607,1.43228 0.98541,0.39429 1.0371,0.46129 0.60156,0.77977 -0.40522,0.2963 -0.61138,0.26504 -1.37849,-0.20906 -1.24296,-0.76819 -1.74471,-0.30307 -0.90227,0.83639 0.58578,0.79231 0.56808,1.33238 -0.0428,1.30489 -0.17331,-0.008 -0.88654,-0.91474 -1.58495,-2.01541 z m 1.35356,-1.74299 c 0.0571,-0.4945 -0.0379,-0.72534 -0.29834,-0.72534 -0.54681,0 -1.06349,0.71333 -0.87412,1.20681 0.2576,0.67129 1.0783,0.33427 1.17246,-0.48147 z m 35.4567,3.0305 c -3.10598,-2.27859 -1.88709,-7.19542 1.78375,-7.19542 1.09778,0 1.22531,0.18913 0.7488,1.1106 -0.32005,0.6189 -0.47796,0.71655 -0.76864,0.47531 -0.20121,-0.16699 -0.6373,-0.26471 -0.96909,-0.21716 -1.36345,0.19541 -1.77814,3.1822 -0.60473,4.35561 0.3734,0.37339 0.84474,0.60741 1.05834,0.52544 0.48317,-0.18541 0.5188,0.61778 0.0544,1.22577 -0.30036,0.39321 -0.42,0.36749 -1.30281,-0.28015 z m -3.52584,-1.11001 c -0.43656,-0.11108 -1.29977,-0.21606 -1.91823,-0.23328 l -1.12448,-0.0313 v -3.70417 -3.70416 h 1.96233 c 1.33047,0 2.00036,-0.10649 2.08044,-0.33073 0.18813,-0.52676 0.38018,-0.15725 0.58444,1.12448 0.15531,0.97449 0.12717,1.13058 -0.15498,0.85989 -0.1896,-0.1819 -0.97576,-0.33073 -1.74702,-0.33073 h -1.40229 v 1.05834 c 0,0.99953 0.0441,1.05833 0.79375,1.05833 0.67027,0 0.79375,0.10289 0.79375,0.66146 0,0.55856 -0.12348,0.66146 -0.79375,0.66146 -0.66496,0 -0.79375,0.10469 -0.79375,0.64524 0,0.56297 0.15354,0.66828 1.20415,0.82582 0.99547,0.14928 1.27387,0.0948 1.60649,-0.31451 0.37449,-0.46084 0.39186,-0.43332 0.25105,0.39787 -0.0832,0.49114 -0.15128,1.05668 -0.15128,1.25678 0,0.39523 -0.0205,0.39694 -1.19062,0.0992 z m -29.52815,-1.53464 c -1.13793,-1.01674 -1.22258,-2.51387 -0.18647,-3.29832 0.66654,-0.50465 0.75438,-0.51194 1.36298,-0.11317 0.35779,0.23443 0.8635,0.98392 1.12381,1.66554 l 0.4733,1.2393 -0.77795,0.62246 c -0.97558,0.78059 -0.99359,0.77955 -1.99567,-0.11581 z m 1.62113,-1.76046 c -0.37371,-0.69829 -1.13958,-1.0868 -1.59165,-0.8074 -0.49181,0.30395 -0.27375,1.14834 0.44195,1.7113 0.63127,0.49657 0.75251,0.51401 1.10722,0.15931 0.34002,-0.34002 0.34624,-0.49564 0.0425,-1.06321 z m 1.34881,-0.87213 c -0.34598,-1.27328 -0.5841,-2.43412 -0.52917,-2.57964 0.11099,-0.29401 1.11283,-0.29653 2.00018,-0.005 0.47425,0.15579 0.5547,0.10229 0.45035,-0.29952 -0.0699,-0.26906 0.0317,-0.70552 0.22577,-0.96992 0.33413,-0.4553 0.44327,-0.43006 2.06319,0.47726 1.7424,0.97592 2.37185,1.55199 2.37185,2.17071 0,0.53635 -0.43708,0.41633 -1.62949,-0.44745 -1.36828,-0.99118 -1.54551,-0.99022 -1.54551,0.008 0,1.04839 -0.49967,1.2057 -1.65828,0.5221 -0.51755,-0.30536 -1.00855,-0.44589 -1.09112,-0.3123 -0.0826,0.1336 0.14132,0.81857 0.49752,1.52217 0.60061,1.18636 0.61645,1.31373 0.21813,1.75387 -0.23623,0.26104 -0.50036,0.47459 -0.58695,0.47456 -0.0866,-2e-5 -0.4405,-1.04182 -0.78647,-2.3151 z m 89.2909202,-2.07693 c -0.09416,-0.24539 -0.111676,-0.50569 -0.03892,-0.57845 0.07276,-0.0728 0.209335,0.0685 0.303498,0.31386 0.09416,0.24539 0.111675,0.50569 0.03892,0.57845 -0.07276,0.0728 -0.209336,-0.0685 -0.303498,-0.31386 z m 0.502708,-0.635 c -0.100457,-0.45738 -0.127495,-0.88674 -0.06009,-0.95415 0.06741,-0.0674 0.198628,0.25778 0.2916,0.72264 0.22057,1.10285 0.0068,1.3166 -0.23151,0.23151 z m 9.2604168,0.52916 -1.058334,-0.18949 0.976572,-0.0375 c 0.537115,-0.0207 1.050158,0.0815 1.140095,0.22703 0.08994,0.14552 0.12673,0.24769 0.08176,0.22704 -0.04497,-0.0207 -0.558012,-0.12282 -1.140095,-0.22704 z m -24.6231578,-0.92604 c 0.08191,-0.58208 0.227314,-1.34503 0.323136,-1.69543 0.157469,-0.57585 0.112974,-0.61845 -0.462881,-0.44307 -1.1236612,0.34221 -2.9703682,0.68718 -3.0818562,0.57569 -0.05941,-0.0594 0.585415,-0.30437 1.432952,-0.54436 0.847534,-0.23998 1.7673402,-0.50286 2.0440092,-0.58417 0.466818,-0.1372 0.49017,-0.0383 0.324311,1.37286 -0.0983,0.83639 -0.302448,1.71333 -0.453658,1.94876 -0.20516,0.31943 -0.237138,0.15949 -0.126013,-0.63028 z m 1.422506,0.7453 c 0.190995,-0.0764 0.419201,-0.067 0.507119,0.0209 0.08792,0.0879 -0.06835,0.15046 -0.347265,0.13897 -0.308227,-0.0127 -0.37092,-0.0754 -0.159854,-0.15986 z m -9.4591612,-0.70261 c -0.236106,-0.62101 -1.714685,-2.02706 -2.131618,-2.02706 -0.122487,0 -0.480248,0.41672 -0.795028,0.92604 -0.31478,0.50932 -0.681678,0.92604 -0.815326,0.92604 -0.36041,0 -0.31272,-0.13628 0.491444,-1.40432 l 0.734451,-1.15811 1.051486,0.65986 c 0.578319,0.36292 1.089182,0.75489 1.135256,0.87106 0.04607,0.11616 0.31687,0.50755 0.601771,0.86974 0.500303,0.63603 0.55041,0.645 1.466183,0.26236 0.521499,-0.21789 1.011883,-0.33247 1.089742,-0.25461 0.07786,0.0779 -0.08384,0.21259 -0.359325,0.2994 -0.275489,0.0868 -0.707633,0.2682 -0.960321,0.4031 -0.758381,0.40487 -1.259994,0.28068 -1.508715,-0.3735 z m 11.2285622,0.25733 c 0.582084,-0.19304 1.415521,-0.42388 1.852084,-0.51297 l 0.79375,-0.16198 -0.802066,0.36307 c -0.441137,0.19968 -1.274575,0.43052 -1.852084,0.51297 l -1.050017,0.14991 z m -30.7926542,-0.76304 c 0.0172,-0.32742 0.12785,-0.9525 0.24585,-1.38906 0.18882,-0.69856 0.20936,-0.65096 0.17128,0.39687 l -0.0433,1.19063 1.05419,0.16089 1.0542,0.16089 -1.25677,0.0376 c -1.1465,0.0342 -1.25403,-0.0147 -1.22547,-0.55777 z m 6.58328,0.0661 c 0.3638,-0.11651 0.84005,-0.22188 1.05833,-0.23416 0.35278,-0.0198 0.35278,0.006 0,0.23416 -0.21828,0.14106 -0.69453,0.24643 -1.05833,0.23416 l -0.66146,-0.0223 z m -68.18683,-1.19063 c 0.002,-0.7276 0.0534,-0.99386 0.11419,-0.59167 0.0608,0.40218 0.0592,0.99749 -0.004,1.32291 -0.0628,0.32543 -0.11256,-0.004 -0.11058,-0.73124 z m 95.7034962,0.73427 c 0.363802,-0.25595 1.19724,-0.96488 1.852083,-1.57541 1.16082303,-1.08226 1.18971503,-1.14854 1.15425303,-2.648 -0.02172,-0.91832 -0.264244,-2.05937 -0.601961,-2.83216 -0.311076,-0.71182 -0.51413103,-1.34568 -0.45123703,-1.40857 0.06289,-0.0629 0.47669203,0.073 0.91955203,0.30203 1.21243197,0.62697 1.57739297,0.53167 1.69841097,-0.44351 0.08,-0.64465 0.117313,-0.53822 0.149055,0.42518 0.03067,0.93086 -0.04882,1.25082 -0.288385,1.16079 -1.46910697,-0.55211 -1.60498397,-0.54211 -1.40982997,0.1037 1.13022897,3.74017 0.581517,5.32551 -2.32880103,6.72836 -0.745845,0.35952 -1.057342,0.44382 -0.69314,0.18759 z m -25.0511262,-0.36472 c 0.55568,-0.2932 1.25233,-0.94325 1.54811,-1.44456 l 0.53777,-0.91145 1.03158,0.81702 c 0.56737,0.44937 1.03158,0.87075 1.03158,0.9364 0,0.2083 -0.9557,-0.38283 -1.31093,-0.81085 -0.47571,-0.5732 -0.62519,-0.5238 -1.16132,0.38379 -0.46328,0.78426 -1.67323,1.59724 -2.34325,1.57445 -0.18913,-0.006 0.11078,-0.25159 0.66646,-0.5448 z m 5.47196,0.29191 c -0.23847,-0.15411 -0.2711,-0.2581 -0.0818,-0.26053 0.17331,-0.002 0.3887,0.11501 0.47863,0.26053 0.20302,0.32849 0.11143,0.32849 -0.39687,0 z m 8.044833,-0.0878 c 0.08649,-0.26657 0.157249,-0.53446 0.157249,-0.59532 0,-0.0609 0.327422,-0.1031 0.727605,-0.0939 l 0.727604,0.0168 -0.653989,0.261 c -0.359693,0.14354 -0.757878,0.40388 -0.884854,0.57854 -0.149601,0.20577 -0.175512,0.14694 -0.07362,-0.16711 z m 6.5072502,-0.13771 c 0,-0.30068 0.313938,-1.06644 0.69764,-1.70168 0.694714,-1.15015 0.701881,-1.15386 1.708142,-0.88528 0.848556,0.22649 1.094766,0.19346 1.536319,-0.20614 0.803661,-0.7273 0.889354,-1.70851 0.296148,-3.39095 -0.800005,-2.26894 -0.719138,-3.52403 0.28765,-4.46451 0.58298,-0.54459 1.101876,-0.7724 1.785937,-0.78407 0.530313,-0.009 1.48584203,-0.0761 2.12340103,-0.14899 1.04341297,-0.1193 1.13837197,-0.0846 0.95073197,0.34718 -0.114654,0.26385 -0.33594097,0.98574 -0.49174597,1.6042 -0.30878,1.22569 -0.534393,1.33782 -1.429796,0.71066 -0.353882,-0.24787 -0.81206703,-0.3436 -1.14252903,-0.23872 -0.461938,0.14661 -0.530579,0.33234 -0.421833,1.14143 0.07144,0.53147 0.372483,1.64515 0.668999,2.47484 0.66415503,1.85838 0.420807,3.0639 -0.881338,4.36604 -0.680508,0.68051 -1.096287,0.8737 -1.890955,0.87863 -1.012431,0.006 -2.448214,0.28749 -3.333751,0.65296 -0.353234,0.14578 -0.46302,0.0615 -0.46302,-0.3556 z m 15.164588,-0.18977 c -0.214881,-0.4631 -0.222832,-0.64547 -0.02527,-0.57962 0.331576,0.11053 0.815128,1.26051 0.528717,1.2574 -0.104453,-0.001 -0.331005,-0.30613 -0.50345,-0.67778 z m -23.8153232,-0.0478 c -0.0921,-0.25466 -0.751462,-0.9988 -1.465244,-1.65365 -0.93353,-0.85645 -1.365126,-1.48767 -1.537716,-2.24895 -0.390414,-1.72211 -0.288796,-3.25725 0.307337,-4.643 0.46128,-1.07227 0.85625,-1.48867 2.242474,-2.36415 0.925419,-0.58446 1.74503,-1.06265 1.821357,-1.06265 0.213796,0 0.127823,3.24019 -0.101539,3.82682 -0.183783,0.47005 -0.220279,0.45116 -0.383321,-0.19844 -0.274828,-1.09501 -0.98149,-0.93608 -1.840867,0.41399 -0.673013,1.0573 -0.354915,1.34125 1.310063,1.16941 l 1.419024,-0.14646 v 0.91197 c 0,0.80488 -0.0699,0.89788 -0.595313,0.79206 -2.465684,-0.49662 -3.022743,-0.35849 -2.710569,0.6721 0.338016,1.1159 1.466258,2.08355 2.429341,2.08355 0.482097,0 0.876541,0.0379 0.876541,0.0843 0,0.0463 -0.183206,0.7012 -0.407125,1.45521 -0.415891,1.40045 -1.036865,1.81366 -1.364443,0.90792 z m 27.30386,-0.0661 c -0.26339,-0.29104 -0.354113,-0.52916 -0.201607,-0.52916 0.152506,0 0.348713,0.18614 0.436015,0.41364 0.08885,0.23154 0.294034,0.33002 0.466063,0.22371 0.19108,-0.1181 0.235921,-0.0744 0.118544,0.11552 -0.246472,0.3988 -0.258672,0.39547 -0.819015,-0.22371 z m -45.924948,-1.23009 c 0.32332,-1.06269 0.58689,-1.51469 0.84067,-1.4417 0.20333,0.0585 0.99553,0.22736 1.76043,0.37527 1.2876,0.249 1.43968,0.22297 2.05052,-0.35089 0.89152,-0.83753 0.88759,-2.23268 -0.01,-3.44891 -1.47993,-2.00594 -1.52341,-4.3912 -0.0959,-5.25934 0.70311,-0.42759 4.63688,-1.26518 4.86598,-1.03608 0.0963,0.0963 -0.31721,2.51686 -0.52555,3.07613 -0.094,0.25245 -0.33427,0.18865 -0.91981,-0.24426 -0.75292,-0.55666 -0.8177,-0.56316 -1.2962,-0.13013 -0.41101,0.37196 -0.46402,0.6316 -0.28815,1.41135 0.11853,0.52555 0.46054,1.28697 0.76003,1.69205 1.42411,1.92622 1.31665,4.43035 -0.25474,5.93613 -0.80132,0.76786 -0.87916,0.78453 -4.08773,0.87559 l -3.27085,0.0928 0.47098,-1.54803 z m -22.27515,0.81222 c -0.60562,-0.3285 -0.68497,-0.48333 -0.46159,-0.90072 0.44159,-0.82512 0.76849,-0.86013 0.71441,-0.0765 -0.0544,0.78823 -0.0328,0.79338 1.93373,0.46174 0.92455,-0.15591 0.92418,-0.15528 -0.22733,0.3886 -0.63435,0.29961 -1.17013,0.53999 -1.19062,0.53416 -0.0205,-0.006 -0.36636,-0.1891 -0.7686,-0.40728 z m -28.37282,-0.34334 c -0.43656,-0.27206 -1.15069,-0.89669 -1.58695,-1.38807 l -0.79319,-0.89342 0.97077,0.89157 c 0.62571,0.57467 1.56598,1.06172 2.64528,1.37022 1.62006,0.46307 1.6401,0.47921 0.61617,0.49649 -0.60255,0.0102 -1.40017,-0.19517 -1.85208,-0.47679 z m 6.162,-0.008 c -0.31205,-0.36906 -0.3612,-0.59175 -0.1583,-0.71715 0.16186,-0.10003 0.42956,0.003 0.5949,0.22924 0.22174,0.30325 0.64511,0.38486 1.61351,0.31104 1.26327,-0.0963 1.27789,-0.0898 0.38685,0.17327 -1.85132,0.54651 -1.97775,0.5467 -2.43696,0.004 z m 30.48279,0.0925 -0.66146,-0.39345 0.69082,0.0689 c 0.78674,0.0784 1.55814,-0.45048 1.55814,-1.06833 0,-0.31076 0.0765,-0.34086 0.29956,-0.11784 0.22303,0.22303 0.13853,0.5032 -0.33073,1.09661 -0.73665,0.93155 -0.70196,0.92232 -1.55633,0.41413 z m 26.32604,-0.34901 c -1.04785,-0.65301 -2.15506,-1.85663 -2.46383,-2.67837 -0.4787,-1.27401 -0.62281,-3.35215 -0.3124,-4.50493 0.37206,-1.38174 1.28327,-2.22479 3.28325,-3.03764 1.680607,-0.68305 1.843757,-0.58976 1.694439,0.96894 -0.07606,0.79396 -0.159824,0.87631 -0.813649,0.79984 -0.53048,-0.062 -0.9493,0.1352 -1.53877,0.72468 -0.44546,0.44545 -0.73553,0.9303 -0.6446,1.07743 0.21388,0.34605 1.90497,0.34839 2.11848,0.003 0.39576,-0.64035 0.661459,-0.15343 0.661459,1.2122 v 1.47679 l -0.891129,-0.55075 c -1.59536,-0.98598 -2.70445,-0.53405 -2.0066,0.81765 0.58711,1.13719 1.3838,1.80661 2.1501,1.80661 0.861908,0 0.891337,0.1206 0.3472,1.42289 -0.46232,1.10649 -0.52159,1.12377 -1.58395,0.46173 z m 35.586463,-0.0325 c -0.315296,-0.31529 -0.500504,-0.64602 -0.411575,-0.73495 0.08893,-0.0889 0.419661,0.0963 0.734954,0.41157 0.315296,0.3153 0.500505,0.64603 0.411575,0.73495 -0.08893,0.0889 -0.419658,-0.0963 -0.734954,-0.41157 z m -78.959223,-0.15119 c -0.46171,-0.4617 -0.5643,-1.43631 -0.1512,-1.43631 0.14553,0 0.26459,0.24186 0.26459,0.53747 0,0.87009 0.63611,0.87264 2.34613,0.009 1.08551,-0.54796 1.99498,-0.81147 2.80066,-0.81147 1.05311,0 1.21267,-0.0779 1.35972,-0.66377 0.27164,-1.08231 2.288,-1.29871 2.41547,-0.25924 0.0355,0.28937 -0.003,0.3773 -0.0852,0.1954 -0.26521,-0.58603 -1.64237,-0.38949 -2.09333,0.29875 -0.32429,0.49494 -0.70732,0.65499 -1.79203,0.74879 -0.93774,0.0811 -1.81266,0.38793 -2.73177,0.95802 -1.54425,0.95785 -1.75921,0.99682 -2.33308,0.42294 z m -8.61786,-0.2052 c 0.72618,-0.38269 0.94012,-0.35908 0.67234,0.0742 -0.0959,0.15521 -0.43527,0.28044 -0.7541,0.27829 -0.55597,-0.004 -0.55262,-0.0182 0.0818,-0.35249 z m 21.03437,0.0918 c 0.29104,-0.12507 1.00542,-0.22207 1.5875,-0.21556 l 1.05834,0.0118 -1.05834,0.2189 c -0.58208,0.1204 -1.29646,0.21741 -1.5875,0.21557 l -0.52916,-0.003 z m 2.92567,0.0247 c -0.0815,-0.13195 0.09,-0.17759 0.38126,-0.10143 0.6178,0.16156 0.69589,0.34134 0.14827,0.34134 -0.20969,0 -0.44798,-0.10796 -0.52953,-0.23991 z m 8.93183,-0.10019 c -0.48858,-0.27168 -0.22094,-0.32136 1.73143,-0.32136 2.35459,0 2.32182,0.0105 4.19611,-1.34792 l 0.58713,-0.42554 -0.45483,1.07773 c -0.25016,0.59275 -0.48991,0.92023 -0.53279,0.72773 -0.062,-0.27826 -0.38224,-0.24961 -1.56242,0.13973 -1.6989,0.56047 -3.12873,0.61443 -3.96463,0.14963 z m -42.82203,-0.2055 c -3.34177,-0.97204 -4.11816,-6.72922 -1.15936,-8.59703 3.5588,-2.24658 8.02725,0.35022 7.49585,4.35614 -0.43898,3.30919 -3.19597,5.15439 -6.33649,4.24089 z m 3.19531,-3.01425 c 0.93104,-0.93104 0.90766,-2.54862 -0.0477,-3.30011 -1.50185,-1.18136 -4.06536,-0.3312 -4.06536,1.34824 0,0.93618 0.71819,2.26957 1.30821,2.42883 1.173,0.31661 2.18304,0.14486 2.80486,-0.47696 z m -2.62661,-1.16812 c -0.59463,-0.65705 -0.20635,-1.5348 0.78951,-1.78474 0.88371,-0.2218 1.22153,0.1574 1.11674,1.25355 -0.0701,0.73363 -0.20626,0.90761 -0.76068,0.9722 -0.4132,0.0481 -0.85779,-0.12301 -1.14557,-0.44101 z m 1.42116,-0.16345 c 0.43963,-0.52972 0.14679,-1.194 -0.52637,-1.194 -0.60028,0 -0.93553,0.57181 -0.69807,1.19063 0.19491,0.50793 0.8043,0.5096 1.22444,0.003 z m 68.813063,3.93546 c 0.0155,-0.63717 0.05226,-0.67772 0.221629,-0.24456 0.190931,0.48831 0.23079,0.4769 0.668678,-0.1914 0.400974,-0.61197 0.448146,-1.16724 0.339662,-3.99828 -0.127844,-3.33625 -0.318574,-4.25418 -0.741693,-3.56956 -0.121402,0.19643 -0.149387,1.07235 -0.06219,1.94648 0.0872,0.87413 0.07212,1.50964 -0.03352,1.41224 -0.105635,-0.0974 -0.231064,-1.06933 -0.278728,-2.15987 -0.08452,-1.93355 -0.06996,-1.98699 0.585864,-2.15159 0.943552,-0.23682 2.081845,0.0519 3.8227452,0.96971 2.330418,1.22856 3.131868,2.45422 3.131868,4.78958 0,0.89652 -0.162497,1.20951 -1.056349,2.03471 -1.193988,1.10229 -2.5571032,1.59422 -4.9629222,1.79106 l -1.653646,0.13531 0.0186,-0.76383 z m 4.7709222,-2.02905 c 1.660636,-1.11523 1.268696,-3.09277 -0.8246372,-4.16071 -0.579956,-0.29587 -1.060919,-0.50577 -1.068803,-0.46643 -0.0079,0.0393 -0.07423,1.23238 -0.147421,2.65121 l -0.13308,2.57969 h 0.637458 c 0.350602,0 1.0420192,-0.27169 1.5364832,-0.60376 z m -1.3499362,-1.77749 c 0,-0.85894 0.09359,-1.05833 0.496771,-1.05833 1.1141532,0 1.3134132,1.3081 0.2832452,1.85943 -0.7300022,0.39069 -0.7800162,0.33932 -0.7800162,-0.8011 z m 0.9847422,0.23234 c 0.369089,-0.36909 0.143965,-1.02609 -0.3515912,-1.02609 -0.21675,0 -0.368567,0.27246 -0.368567,0.66146 0,0.71251 0.247142,0.83765 0.7201582,0.36463 z m -69.1917612,3.80256 c 0.90029,-1.79404 1.84104,-4.01471 2.07566,-4.89963 0.16326,-0.61581 0.6496,-1.86379 1.08074,-2.77329 0.76477,-1.6133 0.80917,-1.65365 1.8195,-1.65365 0.88285,0 1.20485,0.17664 2.18313,1.19756 l 1.14754,1.19756 0.44576,-0.93479 c 0.48517,-1.01741 1.82911,-1.98693 2.75643,-1.9885 0.86499,-0.001 1.8813,1.44383 3.41348,4.85435 l 1.35167,3.00872 -1.31668,0.55629 -1.31669,0.55628 0.16353,-0.81763 c 0.13206,-0.66028 -0.10381,-1.32161 -1.22562,-3.4365 -1.65082,-3.11221 -2.03522,-3.24282 -3.19187,-1.08448 -0.47055,0.87805 -0.91796,1.38906 -1.21618,1.38906 -0.4933,0 -2.40505,-1.69265 -2.40505,-2.1294 0,-0.56536 -0.9955,-0.20433 -1.31183,0.47575 -0.55253,1.18786 -1.334,4.10398 -1.334,4.97793 0,0.74977 -0.10891,0.84675 -1.41232,1.25761 -1.57349,0.496 -1.85251,0.53633 -1.7072,0.24676 z m 22.4341,-0.17779 c 0,-0.21246 0.11906,-0.45988 0.26458,-0.54982 0.39195,-0.24223 0.32181,-0.94214 -0.19884,-1.98437 l -0.46261,-0.92604 -1.94229,-0.0211 -1.94229,-0.0211 0.14974,0.74867 c 0.23125,1.15626 -0.45915,0.94173 -1.54471,-0.47999 -1.08053,-1.41513 -1.11982,-1.57252 -0.43707,-1.75106 0.29152,-0.0762 0.57433,-0.46451 0.67621,-0.92837 0.32321,-1.47157 1.60131,-3.15111 2.66511,-3.5022 0.90229,-0.29778 1.02838,-0.2739 1.59661,0.30235 0.33932,0.34411 1.28416,2.17347 2.09963,4.06524 0.81547,1.89178 1.71506,3.63727 1.9991,3.87887 0.65991,0.56135 0.65229,0.75134 -0.0301,0.75134 -0.3006,0 -0.74709,0.1026 -0.99218,0.22799 -0.97142,0.49697 -1.90084,0.58965 -1.90084,0.18954 z m -1.33172,-5.51076 c -0.0114,-0.42982 -0.92347,-1.52135 -1.27117,-1.52135 -0.383,0 -1.38734,1.33869 -1.21435,1.6186 0.23174,0.37496 2.49573,0.28638 2.48552,-0.0973 z m 7.54943,5.44406 c -1.98125,-0.24724 -1.85208,-0.007 -1.85208,-3.44487 0,-2.8408 -0.044,-3.12507 -0.4978,-3.21237 -0.27379,-0.0527 -0.77963,0.055 -1.12408,0.2394 -0.34446,0.18434 -0.66384,0.28538 -0.70974,0.22453 -0.0459,-0.0609 -0.34374,-0.45412 -0.66186,-0.87393 -0.31812,-0.4198 -0.5784,-0.85304 -0.5784,-0.96274 0,-0.23972 1.12273,-0.46292 3.95139,-0.78553 2.0172,-0.23007 3.62705,-0.79744 4.05169,-1.42796 0.12684,-0.18834 0.52695,0.0861 1.11455,0.76452 0.50417,0.58208 0.92114,1.13441 0.9266,1.22739 0.005,0.093 -0.79373,0.37353 -1.776,0.62344 -0.98226,0.24991 -1.93476,0.49752 -2.11667,0.55024 -0.49534,0.14357 -0.44397,4.88552 0.0661,6.10641 0.45537,1.08986 0.46865,1.16415 0.19844,1.11017 -0.10914,-0.0218 -0.55563,-0.0842 -0.99219,-0.1387 z m 62.365653,-0.38179 c -0.321992,-0.11911 -0.585443,-0.399 -0.585443,-0.62197 0,-0.22297 -0.20836,-0.41377 -0.463021,-0.424 -0.403736,-0.0162 -0.397515,-0.0442 0.04858,-0.21894 0.3517,-0.13772 0.413721,-0.26084 0.198437,-0.39389 -0.172241,-0.10645 -0.461994,-0.10952 -0.643895,-0.007 -0.241443,0.13632 -0.253638,0.10273 -0.04517,-0.12442 0.218175,-0.23772 0.451358,-0.22513 0.988184,0.0534 0.386442,0.20049 0.625052,0.4421 0.530241,0.53692 -0.09481,0.0948 -0.05193,0.17238 0.09529,0.17238 0.345458,0 1.143436,-0.88 1.143436,-1.26097 0,-0.18959 0.350732,-0.23937 0.992188,-0.1408 1.182777,0.18175 1.918229,0.52563 1.918229,0.89692 0,0.14865 -0.264618,0.0849 -0.588039,-0.14161 -0.940337,-0.65863 -1.784496,-0.50202 -2.771408,0.51417 -0.581197,0.59844 -0.759198,0.92604 -0.503158,0.92604 0.217909,0 0.729658,-0.35439 1.137214,-0.78754 0.552053,-0.58672 0.842222,-0.72269 1.137891,-0.53322 0.347295,0.22255 0.344337,0.25483 -0.02368,0.25838 -0.231304,0.002 -0.548646,0.28518 -0.705205,0.62879 -0.330237,0.72479 -1.028327,0.97512 -1.860677,0.66721 z m -86.451043,-0.36591 c -0.0682,-0.21828 -0.18215,-0.58165 -0.25325,-0.80749 -0.0711,-0.22584 -0.0258,-0.34666 0.1007,-0.2685 0.12648,0.0782 0.2872,0.44154 0.35716,0.8075 0.13824,0.72316 -0.004,0.91005 -0.20461,0.26849 z m 17.09482,-0.0221 c 0.0127,-0.30822 0.0754,-0.37092 0.15985,-0.15985 0.0764,0.19099 0.067,0.4192 -0.0209,0.50712 -0.0879,0.0879 -0.15046,-0.0684 -0.13897,-0.34727 z m 73.91084,0.0164 c 0.54374,-0.41137 0.84758,-0.34598 0.559361,0.12037 -0.09592,0.1552 -0.375735,0.2784 -0.621808,0.27377 -0.392813,-0.007 -0.385193,-0.0555 0.06245,-0.39414 z m -59.51292,-0.34042 c -1.22151,-0.57162 -2.37924,-2.12755 -2.62203,-3.52386 -0.58967,-3.39128 3.73586,-5.80156 7.50315,-4.18091 1.01359,0.43604 1.41579,0.80848 1.96728,1.82174 0.95193,1.74901 0.90535,2.8667 -0.17877,4.29033 -0.4796,0.62978 -1.22374,1.31753 -1.65365,1.52835 -1.24941,0.61266 -3.77505,0.64507 -5.01598,0.0643 z m 4.02549,-2.23359 c 1.19823,-1.30914 0.9754,-2.74757 -0.53679,-3.46515 -1.33534,-0.63366 -2.28159,-0.55131 -3.14251,0.27351 -0.79148,0.75828 -0.92336,1.51211 -0.44731,2.55692 0.59848,1.31353 3.14659,1.70546 4.12661,0.63472 z m -2.78096,-0.78052 c -0.47542,-0.47541 -0.38313,-1.39318 0.19247,-1.91409 0.44742,-0.40491 0.60157,-0.41775 1.25677,-0.10467 0.87099,0.41619 1.09061,1.29319 0.4774,1.90641 -0.50572,0.50571 -1.47666,0.56234 -1.92664,0.11235 z m 1.74907,-1.08946 c -0.10064,-0.70696 -1.04599,-0.90495 -1.53093,-0.32064 -0.28651,0.34523 -0.266,0.50091 0.1226,0.9303 0.60308,0.66639 1.5327,0.26396 1.40833,-0.60966 z m 0.65592,-3.09096 c -0.13274,-0.5076 -0.60583,-0.75553 -0.60583,-0.3175 0,0.18432 0.53948,0.84667 0.68961,0.84667 0.03,0 -0.008,-0.23812 -0.0838,-0.52917 z m 6.53792,7.20835 c -0.21828,-0.077 -0.72852,-0.37231 -1.13387,-0.65619 -0.40535,-0.28388 -0.90231,-0.45271 -1.10437,-0.37517 -0.27721,0.10638 -0.24387,-0.13106 0.13587,-0.96749 1.08838,-2.39726 0.32301,-4.81877 -1.99867,-6.32351 -0.7253,-0.47009 -0.73671,-0.49865 -0.13229,-0.33127 2.15202,0.59598 3.42788,3.55575 2.79613,6.48652 -0.19606,0.90956 -0.16778,0.95593 0.86763,1.42283 1.17627,0.53043 1.79155,0.4376 1.96412,-0.29632 0.10192,-0.43351 0.11019,-0.43164 0.0867,0.0196 -0.0312,0.59886 -0.92722,1.21645 -1.48121,1.02096 z m 18.806308,-0.21894 c 0.0127,-0.30822 0.07539,-0.37092 0.159851,-0.15985 0.07643,0.191 0.06703,0.4192 -0.02088,0.50712 -0.08792,0.0879 -0.150453,-0.0684 -0.138964,-0.34727 z m 8.3618312,0.0376 c -0.425349,-0.32245 -0.44432,-0.48632 -0.164446,-1.42046 0.186626,-0.62291 0.243038,-1.54501 0.137551,-2.24845 -0.146346,-0.97591 -0.414306,-1.41275 -1.475412,-2.40529 -0.713123,-0.66704 -1.719511,-1.41448 -2.236417,-1.66097 -0.516906,-0.2465 -0.9398292,-0.53944 -0.9398292,-0.65098 0,-0.42451 1.7544682,0.56096 3.0811952,1.73068 1.430028,1.2608 1.501579,1.26702 1.766464,0.15362 0.08707,-0.36602 0.553781,-1.04877 1.037122,-1.51725 0.941252,-0.9123 2.732931,-1.41855 4.80081103,-1.3565 0.91518597,0.0275 0.81642197,0.0715 -0.620678,0.27671 -4.20360203,0.60027 -5.82585003,2.62113 -4.63674103,5.77605 0.634733,1.68406 0.77197,2.85025 0.389636,3.31094 -0.396327,0.47754 -0.523264,0.47887 -1.139256,0.0119 z m 1.14228,-0.9746 c 0,-0.29202 -0.143422,-0.79101 -0.318719,-1.10886 -0.300263,-0.54446 -0.32919,-0.51664 -0.499513,0.48041 -0.113969,0.66716 -0.07418,1.12523 0.107649,1.23931 0.413432,0.25941 0.710583,0.004 0.710583,-0.61086 z m -44.0640092,0.80916 c -0.0959,-0.15521 -0.11765,-0.33893 -0.0483,-0.40829 0.0694,-0.0693 0.19661,0.0576 0.28278,0.28219 0.1789,0.46622 0.0264,0.54823 -0.23448,0.1261 z m 31.806779,0.10759 c -0.322893,-0.32289 -0.185666,-0.60542 0.218688,-0.45025 0.218282,0.0838 0.396875,0.0292 0.396875,-0.1212 0,-0.15042 -0.208359,-0.33334 -0.46302,-0.40649 -0.254662,-0.0731 -0.105834,-0.11164 0.330729,-0.0855 0.436562,0.0261 0.79375,0.15199 0.79375,0.27976 0,0.33843 -1.067303,0.99344 -1.277022,0.78372 z m -82.022629,-0.53096 c -0.097,-0.097 -0.16616,-0.48397 -0.15365,-0.8599 0.0223,-0.67114 0.027,-0.66939 0.25583,0.097 0.24051,0.80526 0.20503,1.07016 -0.10218,0.76295 z m 76.66069,-0.25237 c 0.12651,-0.32967 0.0414,-0.39656 -0.3683,-0.28943 -0.29306,0.0766 -0.59951,0.0315 -0.68101,-0.1004 -0.16798,-0.2718 1.55286,-0.33384 1.821045,-0.0657 0.208926,0.20892 -0.307175,0.88424 -0.675765,0.88424 -0.14328,0 -0.18646,-0.19295 -0.096,-0.42876 z M 9.5337862,161.3092 c 0.23613,-0.49517 0.7160548,-1.03095 1.0665028,-1.19063 0.917044,-0.41783 0.922404,-0.37656 0.06276,0.48308 -0.425371,0.42537 -0.7733978,0.96115 -0.7733978,1.19063 0,0.22947 -0.176668,0.41723 -0.392594,0.41723 -0.339874,0 -0.334942,-0.1209 0.036729,-0.90031 z m 7.0072798,0.0977 c -0.343545,-0.2862 -0.510825,-0.52036 -0.371736,-0.52036 0.139088,0 0.468386,0.23813 0.731776,0.52917 0.605071,0.66859 0.448485,0.66476 -0.36004,-0.009 z m -69.979268,-0.11501 c -0.082,-0.21362 -0.0352,-0.45877 0.10399,-0.54478 0.13916,-0.086 0.25302,0.0888 0.25302,0.3884 0,0.63885 -0.14713,0.7033 -0.35701,0.15638 z m 4.61124,-0.0305 c 0.0127,-0.30823 0.0754,-0.37092 0.15985,-0.15986 0.0764,0.191 0.067,0.4192 -0.0209,0.50712 -0.0879,0.0879 -0.15045,-0.0684 -0.13896,-0.34726 z m 54.3323082,0.12412 c -0.09977,-0.16144 -0.01733,-0.39746 0.183216,-0.52448 0.577233,-0.36561 0.857464,-0.27661 0.496919,0.15782 -0.443632,0.53455 0.218691,0.54995 0.940869,0.0219 0.484568,-0.35433 1.175798,-0.14865 1.175798,0.34986 0,0.30686 -2.606937,0.30212 -2.796802,-0.005 z m -78.1618582,-1.42103 c -1.21039,-1.2488 -0.91553,-1.37911 0.53081,-0.23458 0.91536,0.72435 1.34241,0.90031 1.90968,0.78686 0.40187,-0.0804 0.73067,-0.03 0.73067,0.11183 0,0.14188 -0.51243,0.25797 -1.13872,0.25797 -0.95312,0 -1.2844,-0.1503 -2.03244,-0.92208 z m -1.58324,0.52521 c 0,-0.14553 0.11542,-0.44318 0.25648,-0.66146 0.14107,-0.21828 0.25648,-0.27782 0.25648,-0.13229 0,0.14552 -0.11541,0.44317 -0.25648,0.66145 -0.14106,0.21828 -0.25648,0.27782 -0.25648,0.1323 z m 6.60695,-0.92513 c -0.55503,-1.08795 -0.5756,-1.09967 -1.09893,-0.62605 -0.52685,0.47678 -0.52929,0.47378 -0.20101,-0.24671 0.18278,-0.40115 0.46063,-0.68785 0.61746,-0.63711 0.33584,0.10865 1.54856,2.3181 1.37023,2.49643 -0.0672,0.0672 -0.37666,-0.37678 -0.68775,-0.98656 z m 35.52717,0.4621 c -0.31208,-0.40332 -0.63046,-1.25677 -0.46884,-1.25677 0.0645,0 0.3019,0.35719 0.52766,0.79375 0.42244,0.81691 0.39318,1.04718 -0.0588,0.46302 z m 41.3779192,-0.11024 c -0.346165,-0.34616 -0.167772,-0.56557 0.349801,-0.43022 0.289406,0.0757 0.4609728,0.24313 0.3812618,0.37211 -0.1719928,0.27828 -0.4859338,0.30324 -0.7310628,0.0581 z m -63.7404992,-0.41489 c -0.23079,-0.58598 0.75482,-1.20509 1.20376,-0.75615 0.20907,0.20907 0.13334,0.2891 -0.27359,0.2891 -0.32393,0 -0.60229,0.19646 -0.65604,0.46302 -0.0883,0.43784 -0.10319,0.43806 -0.27413,0.004 z m 5.35577,-0.73164 c 0,-0.58208 0.0925,-1.05833 0.20544,-1.05833 0.11298,0 0.16,0.47625 0.1045,1.05833 -0.0555,0.58209 -0.14796,1.05834 -0.20544,1.05834 -0.0575,0 -0.1045,-0.47625 -0.1045,-1.05834 z m 56.1445902,0.74084 c -0.390896,-0.3909 -0.413983,-1.17914 -0.04128,-1.40949 0.378831,-0.23413 1.575864,0.58771 1.575864,1.08193 0,0.31624 -0.122502,0.28696 -0.579057,-0.13839 -0.902771,-0.84106 -1.259464,-0.70914 -0.734552,0.27167 0.313423,0.58564 0.237305,0.65256 -0.220975,0.19428 z m 4.5007128,-0.35403 c -0.357672,-0.40553 -0.122137,-0.49722 0.582586,-0.22679 0.229346,0.088 0.351121,0.2666 0.270608,0.39687 -0.20443,0.33078 -0.45561,0.28071 -0.853194,-0.17008 z m -28.487122,-0.63311 c -0.08373,-0.13546 -0.03122,-0.32108 0.116676,-0.41249 0.315746,-0.19514 0.798065,0.0525 0.798065,0.40983 0,0.32194 -0.716126,0.32403 -0.914741,0.003 z m -72.089371,-0.4372 c 0.0127,-0.30823 0.0754,-0.37092 0.15985,-0.15986 0.0764,0.191 0.067,0.4192 -0.0209,0.50712 -0.0879,0.0879 -0.15045,-0.0683 -0.13896,-0.34726 z m 24.97108,-1.6218 c -0.47707,-0.92144 -1.22962,-1.85107 -1.92764,-2.38125 -1.2425,-0.94371 -1.191,-1.16728 0.0867,-0.37641 0.43657,0.27022 1.21047,1.15702 1.71979,1.97067 0.50933,0.81365 0.98558,1.48408 1.05834,1.48985 0.0728,0.006 0.54671,-0.76969 1.05322,-1.72322 0.84794,-1.59629 2.06058,-2.75975 2.8764,-2.75975 0.1624,0 1.03265,0.35718 1.93388,0.79375 0.90124,0.43656 1.7961,0.79375 1.98859,0.79375 0.1925,0 0.34999,0.11906 0.34999,0.26458 0,0.4343 -0.52984,0.30833 -2.27117,-0.53999 -1.16201,-0.56609 -1.85356,-0.75386 -2.33316,-0.63349 -0.88335,0.22171 -2.07839,1.59629 -2.84994,3.2781 -0.33683,0.73423 -0.67767,1.33496 -0.75742,1.33496 -0.0797,0 -0.49716,-0.68019 -0.92759,-1.51155 z m 41.28803,1.25 c -0.0927,-0.14998 0.0135,-0.19434 0.24897,-0.10398 0.45837,0.17589 0.54223,0.36553 0.16165,0.36553 -0.13693,0 -0.32171,-0.1177 -0.41062,-0.26155 z m -55.53521,-0.90927 c -0.78446,-1.45665 -1.86176,-2.30833 -3.38675,-2.67745 -1.15293,-0.27906 -1.25377,-0.34409 -0.56224,-0.36256 1.22204,-0.0326 1.94405,0.31351 3.06662,1.47016 1.00076,1.03115 1.91061,2.47609 1.55914,2.47609 -0.1038,0 -0.40834,-0.40781 -0.67677,-0.90624 z m 30.21602,0.7255 c 0.19099,-0.0764 0.4192,-0.067 0.50712,0.0209 0.0879,0.0879 -0.0683,0.15045 -0.34727,0.13896 -0.30822,-0.0127 -0.37092,-0.0754 -0.15985,-0.15985 z m -40.69524,-0.25725 c -0.003,-0.848 2.6813,-3.31792 3.12423,-2.87499 0.0759,0.0759 0.008,0.13798 -0.1504,0.13798 -0.44685,0 -1.93619,1.34278 -2.48192,2.23768 -0.27,0.44277 -0.49136,0.66747 -0.49191,0.49933 z m 55.86574,-0.77965 c -0.0762,-2.08677 1.56374,-3.50252 4.0614,-3.50613 0.82345,-10e-4 0.94089,0.0489 0.52917,0.22585 -0.29104,0.12507 -0.91052,0.23576 -1.37662,0.24599 -1.7733,0.0389 -2.79607,1.14572 -3.07335,3.32589 -0.08,0.62928 -0.10917,0.56886 -0.1406,-0.2916 z m 10.94057,0.68847 c -0.0899,-0.14552 -0.0374,-0.26458 0.11667,-0.26458 0.15411,0 0.2802,0.11906 0.2802,0.26458 0,0.14552 -0.0525,0.26459 -0.11667,0.26459 -0.0642,0 -0.19027,-0.11907 -0.2802,-0.26459 z m 23.6999392,-0.52916 c -0.0011,-0.3813 0.745437,-1.89597 0.76464,-1.55173 0.0052,0.0924 -0.164557,0.56868 -0.377142,1.05833 -0.212585,0.48965 -0.386958,0.71168 -0.387498,0.4934 z m -21.4574292,-1.59954 c -0.165832,-0.30987 -0.175818,-0.51713 -0.02491,-0.51713 0.138515,0 0.299908,0.14419 0.358651,0.32042 0.06523,0.19569 0.621149,-0.11329 1.428139,-0.79375 1.088464,-0.91781 1.504852,-1.10959 2.362639,-1.08819 l 1.041305,0.026 -1.127345,0.30476 c -0.62004,0.16761 -1.72008,0.74582 -2.44453,1.2849 -1.254461,0.93347 -1.330368,0.95552 -1.593946,0.46302 z m -51.59325,-0.12742 c -0.88287,-1.06379 -2.65734,-1.47462 -3.78176,-0.87556 -0.52242,0.27834 -0.54305,0.26563 -0.2148,-0.13229 0.58513,-0.70931 2.56339,-0.58501 3.52159,0.22127 0.43235,0.3638 0.87634,0.66145 0.98665,0.66145 0.1103,0 0.5188,-0.35718 0.90778,-0.79375 0.39964,-0.44853 0.96526,-0.78914 1.3005,-0.78315 0.53423,0.01 0.51427,0.0522 -0.20047,0.42831 -0.43657,0.22974 -1.10276,0.70585 -1.48042,1.05802 -0.62172,0.57974 -0.72001,0.60014 -1.03907,0.2157 z m 26.59657,-0.38971 c 0.72736,-0.31256 1.14511,-0.31256 0.66146,0 -0.21828,0.14106 -0.57547,0.24994 -0.79375,0.24194 -0.26169,-0.01 -0.21663,-0.092 0.13229,-0.24194 z m -9.7069,-0.18074 c 0.19099,-0.0764 0.4192,-0.067 0.50712,0.0209 0.0879,0.0879 -0.0684,0.15045 -0.34727,0.13896 -0.30822,-0.0127 -0.37092,-0.0754 -0.15985,-0.15985 z m 1.32292,-0.26458 c 0.19099,-0.0764 0.41919,-0.067 0.50711,0.0209 0.0879,0.0879 -0.0683,0.15045 -0.34726,0.13896 -0.30823,-0.0127 -0.37092,-0.0754 -0.15985,-0.15985 z m 40.70343,-0.0967 c -0.705448,-0.11838 -1.360291,-0.2991 -1.455208,-0.4016 -0.24026,-0.25947 2.616359,0.12725 3.120705,0.42247 0.509278,0.2981 0.213265,0.29439 -1.665497,-0.0209 z m -38.01086,-0.27656 c 0.50775,-0.15821 1.43076,-0.63021 2.05113,-1.0489 1.11793,-0.75448 1.75612,-0.79455 2.01253,-0.12635 0.0914,0.23824 -0.0327,0.30314 -0.3975,0.20775 -0.29175,-0.0763 -1.03879,0.11516 -1.6601,0.42546 -0.6213,0.31029 -1.53455,0.62391 -2.02944,0.69693 l -0.89979,0.13276 z m 27.36417,-0.20699 c 0.71198,-0.79691 2.392251,-1.27567 2.925095,-0.83345 0.222899,0.18499 0.391459,0.53012 0.374579,0.76697 -0.0259,0.36331 -0.04961,0.35825 -0.151694,-0.0324 -0.165049,-0.63159 -1.172599,-0.59146 -2.54013,0.10116 l -1.11394,0.56418 z m -17.55797,-0.0186 c -0.24785,-0.15681 0.0324,-0.18923 0.79375,-0.0918 0.64728,0.0828 1.22649,0.19369 1.28712,0.24643 0.24819,0.21587 -1.72727,0.0691 -2.08087,-0.15459 z m 13.48,-0.78234 c 1.50802,-0.46311 2.38126,-0.54287 2.37946,-0.21734 -10e-4,0.21231 -0.52601,0.34074 -1.52136,0.37229 -1.04512,0.0331 -1.31304,-0.0152 -0.8581,-0.15495 z"
       id="path8189" />
  </g>
</svg>
