<?xml version="1.0" encoding="UTF-8" standalone="no"?>
<!-- Created with Inkscape (http://www.inkscape.org/) -->

<svg
   width="144.87022mm"
   height="209.54994mm"
   viewBox="0 0 144.87019 209.54991"
   version="1.1"
   id="svg5"
   inkscape:version="1.1 (c4e8f9ed74, 2021-05-24)"
   sodipodi:docname="frame31.svg"
   xmlns:inkscape="http://www.inkscape.org/namespaces/inkscape"
   xmlns:sodipodi="http://sodipodi.sourceforge.net/DTD/sodipodi-0.dtd"
   xmlns="http://www.w3.org/2000/svg"
   xmlns:svg="http://www.w3.org/2000/svg">
  <sodipodi:namedview
     id="namedview7"
     pagecolor="#ffffff"
     bordercolor="#666666"
     borderopacity="1.0"
     inkscape:pageshadow="2"
     inkscape:pageopacity="0.0"
     inkscape:pagecheckerboard="0"
     inkscape:document-units="mm"
     showgrid="false"
     inkscape:zoom="0.94615212"
     inkscape:cx="-217.19552"
     inkscape:cy="317.6022"
     inkscape:window-width="2506"
     inkscape:window-height="1403"
     inkscape:window-x="1974"
     inkscape:window-y="0"
     inkscape:window-maximized="1"
     inkscape:current-layer="layer1" />
  <defs
     id="defs2" />
  <g
     inkscape:label="Layer 1"
     inkscape:groupmode="layer"
     id="layer1"
     transform="translate(28.485462,-96.335066)">
    <path
       style="fill:#000000;stroke-width:0.179119"
       d="m -26.815594,305.37074 c 0.003,-0.28286 -0.0304,-0.9173 -0.0747,-1.40988 -0.11054,-1.22804 -0.44374,-9.4656 -0.55063,-13.61304 -0.0482,-1.8718 -0.0729,-7.51405 -0.0548,-12.53833 0.0181,-5.02429 -0.002,-9.98141 -0.0449,-11.01582 -0.19426,-4.69279 0.0431,-103.26379 0.26857,-111.54635 l 0.089,-3.26892 h -0.4364 -0.43641 l -0.01,-3.62716 c -0.005,-1.99494 -0.043,-4.67501 -0.084,-5.95571 -0.32435,-10.15119 -0.45645,-30.1015 -0.20205,-30.51313 0.0923,-0.1494 2.08726,-0.20577 7.28137,-0.20577 h 7.15419 v 0.80603 0.80604 h 0.87114 c 2.20691,0 4.7308398,-1.00886 6.6518498,-2.65887 1.81945,-1.56276 3.40326,-5.78789 3.40326,-9.07883 0,-1.14405 -0.0492,-1.35173 -0.35985,-1.51797 -0.26509,-0.141875 -0.33156,-0.305309 -0.25241,-0.620658 0.0955,-0.380497 0.0409,-0.434442 -0.49096,-0.485411 l -0.59841,-0.05734 v -1.164273 -1.164274 l 32.5101002,-0.03603 c 17.88056,-0.01982 39.885821,-0.06617 48.900586,-0.103008 l 16.390485,-0.06697 -0.01544,0.909042 c -0.02274,1.338591 -0.03085,1.356841 -0.602859,1.356841 -0.479155,0 -0.531548,0.06045 -0.582136,0.671696 -0.04466,0.539545 -0.134884,0.682957 -0.458611,0.728935 -0.366571,0.0521 -0.403018,0.15399 -0.403018,1.12704 0,2.0548 1.039807,5.86811 2.087666,7.65615 1.235011,2.10738 3.252308,3.50565 6.125492,4.24581 2.425649,0.62487 2.608399,0.58774 2.679819,-0.54445 0.031,-0.49067 0.15186,-0.9523 0.26868,-1.02583 0.11682,-0.0735 3.3328,-0.13361 7.14662,-0.1335 l 6.93422,2.2e-4 0.0638,3.98109 c 0.0926,5.77781 -0.0399,35.61258 -0.1589,35.8052 -0.0555,0.0898 -0.25472,0.11436 -0.44277,0.0547 -0.32908,-0.10444 -0.33863,-0.002 -0.25442,2.72428 0.26244,8.49816 0.47391,63.3567 0.44452,115.31952 -0.007,11.52631 -0.005,22.21188 0.002,23.74571 0.0134,2.64482 -0.07,3.47905 -0.33167,3.31734 -0.14856,-0.0918 -0.0867,-53.5983 0.0623,-53.8393 0.0616,-0.0996 0.0384,-0.18116 -0.0515,-0.18116 -0.0973,0 -0.18331,-8.60586 -0.21256,-21.27038 -0.027,-11.69871 -0.0683,-22.68094 -0.0917,-24.40496 -0.11262,-8.29369 -0.10448,-25.44699 0.0122,-25.63573 0.0723,-0.11702 0.0566,-0.16647 -0.0349,-0.10989 -0.1005,0.0621 -0.17627,-1.61229 -0.19125,-4.2264 -0.0136,-2.3811 -0.0301,-4.85319 -0.0365,-5.49354 -0.006,-0.64035 0.007,-1.7688 0.0292,-2.50767 0.0225,-0.73887 -0.0165,-2.81441 -0.0866,-4.61231 l -0.12748,-3.26892 h 0.43037 c 0.55584,0 0.68095,-0.22406 0.63442,-1.13619 -0.0209,-0.40951 -0.0292,-1.18788 -0.0185,-1.72972 0.036,-1.82063 0.003,-3.09845 -0.084,-3.23899 -0.0474,-0.0767 -0.0115,-0.18571 0.0799,-0.24216 0.12845,-0.0794 0.14526,-0.72814 0.0189,-0.72814 -0.0151,0 -0.0545,-0.14144 -0.0875,-0.31432 -0.0331,-0.17287 0.009,-0.27176 0.0928,-0.21976 0.12518,0.0774 0.12647,-0.65788 0.002,-0.98844 -0.10846,-0.28741 -0.0733,-3.35407 0.0377,-3.28572 0.0739,0.0455 0.13434,-0.0477 0.13434,-0.2071 0,-0.1594 -0.0626,-0.2511 -0.13922,-0.20378 -0.0766,0.0473 -0.11579,-0.29048 -0.0872,-0.75068 0.0792,-1.27264 0.0779,-1.14566 0.0755,-7.73281 -0.003,-7.33955 -0.046,-15.67429 -0.0878,-16.92674 l -0.03,-0.8956 -1.70163,-0.1252 c -1.62706,-0.11972 -11.13504,-0.0112 -11.59498,0.1323 -0.14336,0.0447 -0.20382,0.36141 -0.17219,0.90188 0.0268,0.45812 -0.035,0.86399 -0.1373,0.90193 -0.45234,0.16774 -3.545397,-0.47431 -4.929783,-1.02331 -1.32255,-0.52448 -1.6965,-0.77954 -2.884068,-1.9671 -2.31584,-2.31584 -3.383644,-5.21139 -3.792513,-10.28411 l -0.04331,-0.53736 -46.48138,0.0632 -46.4813802,0.0632 -0.12419,1.55 c -0.37327,4.65857 -1.88993,8.03974 -4.44334,9.90576 -1.82913,1.33671 -4.3833198,2.17726 -6.3319198,2.08375 l -1.10152,-0.0529 -0.0552,-0.76361 -0.0552,-0.76361 -6.66177,0.11673 c -3.66397,0.0642 -6.68209,0.13261 -6.70694,0.15202 -0.0665,0.0519 -0.0205,18.74456 0.0503,20.42421 0.0332,0.78812 0.11888,5.28177 0.19041,9.98588 l 0.13006,8.55293 h 0.40689 c 0.28558,0 0.42395,0.12015 0.46412,0.40302 0.0315,0.22166 0.0169,3.26444 -0.0323,6.76174 -0.26325,18.69076 -0.32109,99.93097 -0.0886,124.4877 0.10877,11.49009 0.35547,21.99995 0.52028,22.16475 0.0562,0.0562 2.17856,0.008 4.71628,-0.10795 6.15241,-0.28027 51.96864,-0.49797 51.72235,-0.24577 -0.11795,0.12078 -6.05172,0.22861 -17.37454,0.31573 -9.4574902,0.0728 -17.3163302,0.12936 -17.4641102,0.12573 -0.14777,-0.004 -2.72708,0.0615 -5.7317998,0.14476 -3.00472,0.0833 -7.94372,0.206 -10.97554,0.27282 l -5.51241,0.12144 0.006,-0.51427 z M 91.229209,99.405562 c 0.108167,-0.06685 0.171245,-0.253548 0.140175,-0.414884 -0.05192,-0.269612 -1.360168,-0.28877 -16.175407,-0.23687 -8.8654,0.03106 -16.64284,0.08012 -17.28319,0.10902 -0.64035,0.0289 -14.604911,0.06232 -31.032361,0.07427 -30.7039302,0.02232 -30.3287802,0.01423 -29.7337602,0.64131 0.16288,0.171649 93.8054982,-3.76e-4 94.0845432,-0.172843 z m -1.703917,-1.318041 3.045023,-0.113497 V 97.436667 96.89931 l -3.851059,0.005 c -2.118082,0.0028 -23.860889,0.0766 -48.31735,0.164068 l -44.4662902,0.159039 v 0.504201 0.504201 l 3.98539995,0.05197 C 7.0875358,98.381249 86.400668,98.203949 89.525292,98.087487 Z M 37.983796,305.16767 c -4.06392,-0.0298 -6.4035,-0.11162 -6.4035,-0.2239 0,-0.1146 3.61071,-0.16996 10.25456,-0.15724 5.69948,0.0109 9.93295,0.0835 9.53054,0.16341 -0.98954,0.19653 -5.7405,0.27383 -13.3816,0.21773 z m 41.923073,0.0413 c -0.03882,-0.0388 -4.661252,-0.0814 -10.272072,-0.0945 -9.5218,-0.0224 -12.19392,-0.11356 -11.27621,-0.38493 0.54967,-0.16253 52.380453,-0.12673 52.481173,0.0362 0.17614,0.285 -2.92405,0.36272 -16.17119,0.40544 -11.822656,0.0381 -13.506389,0.0104 -13.657823,-0.22521 -0.116125,-0.18064 -0.216749,-0.2057 -0.307066,-0.0765 -0.152056,0.21754 -0.689697,0.4466 -0.796812,0.33949 z m -25.130663,-0.25537 -0.89559,-0.11321 0.62691,-0.12993 c 0.70543,-0.1462 2.623221,-0.0669 2.806161,0.11607 0.0657,0.0657 -0.1695,0.11945 -0.52267,0.11945 -0.35316,0 -0.74947,0.0272 -0.88067,0.0604 -0.1312,0.0332 -0.641561,0.009 -1.134141,-0.0528 z m 59.243604,0.0431 c -1.29673,-0.0957 -1.18221,-0.38032 0.17912,-0.44516 l 1.1195,-0.0533 0.0482,-3.9854 c 0.0297,-2.45293 0.11576,-3.9854 0.2239,-3.9854 0.10975,0 0.17569,1.54623 0.17569,4.11974 0,2.26585 0.003,4.18019 0.006,4.25407 0.007,0.16141 -0.49103,0.18853 -1.75198,0.0955 z m -139.147204,-0.79392 c -0.22381,-0.36213 -0.43205,-5.76901 -0.56119,-14.57144 -0.15617,-10.64425 -0.14226,-76.13655 0.0207,-97.30639 0.0898,-11.67424 0.0704,-16.34461 -0.0679,-16.34461 -0.12623,0 -0.13776,-0.10917 -0.0331,-0.31346 0.0883,-0.1724 0.17532,-2.53005 0.19333,-5.23923 0.018,-2.70917 0.072,-5.6915 0.11994,-6.6274 0.048,-0.9359 0.11453,-3.77705 0.14793,-6.31366 0.0594,-4.51114 0.07,-4.6256 0.48569,-5.23221 0.23372,-0.34109 0.59595,-0.71169 0.80495,-0.82354 0.34174,-0.1829 0.39228,-0.41353 0.50203,-2.29079 0.0671,-1.14808 0.11037,-3.24145 0.0961,-4.65192 -0.0143,-1.41047 0.0154,-2.60578 0.0658,-2.65624 0.0505,-0.0504 4.68251,-0.0844 10.29344,-0.0754 8.0106798,0.0129 10.2418598,-0.0322 10.3886798,-0.20967 0.10283,-0.12432 0.21426,-0.4539 0.2476,-0.7324 l 0.0606,-0.50637 6.69293,0.0199 c 3.68111,0.0109 8.5173202,0.0939 10.7471402,0.18444 2.22982,0.0905 5.02145,0.13002 6.20364,0.0878 1.18218,-0.0423 11.90246,-0.11871 23.82282,-0.16988 11.920371,-0.0512 23.809401,-0.13299 26.420061,-0.18181 20.282121,-0.37926 19.703085,-0.39227 19.703085,0.44265 0,0.49309 1.384147,0.5462 11.202278,0.42988 7.41955,-0.0879 8.99639,-0.0644 9.15543,0.13638 0.11862,0.14977 0.23462,2.02428 0.30319,4.89967 l 0.11105,4.65709 0.48915,0.42748 c 0.94114,0.82248 0.99605,1.08443 1.13075,5.39389 0.0693,2.2166 0.13586,7.40044 0.14794,11.51966 0.0121,4.11921 0.0561,7.54486 0.0977,7.61255 0.0417,0.0677 0.12604,8.38495 0.18749,18.48278 0.0615,10.09783 0.15211,20.76304 0.20144,23.70045 0.13162,7.83682 0.12228,76.21357 -0.0104,76.42832 -0.0622,0.10061 -0.10927,2.23719 -0.10463,4.74794 l 0.008,4.56499 -7.2954,-0.005 c -12.442706,-0.008 -106.88047425,0.21948 -110.2888242,0.26585 -14.4122898,0.19607 -20.1674398,0.30128 -20.8066998,0.38038 -0.48953,0.0606 -0.79269,0.0156 -0.88323,-0.13085 z m 10.85323,-0.61716 c 3.89136,-0.0626 7.1421798,-0.15361 7.2240398,-0.20228 0.15827,-0.0941 57.2656102,-0.24046 96.8888742,-0.24836 18.15861,-0.004 23.78013,-0.0547 23.78688,-0.21634 0.005,-0.11639 -0.0134,-1.58187 -0.0406,-3.25664 -0.0272,-1.67476 -0.0327,-4.57649 -0.0123,-6.44828 0.11813,-10.83097 0.025,-49.8079 -0.21593,-90.36553 -0.0594,-9.99932 -0.14469,-25.3252 -0.18954,-34.05752 -0.0467,-9.09972 -0.15236,-16.05746 -0.24744,-16.29983 -0.19788,-0.50446 -0.81386,-1.0498 -1.18579,-1.0498 -0.17753,0 -0.26663,-0.18167 -0.26663,-0.54366 0,-0.48604 -0.0375,-0.52357 -0.35411,-0.35414 -0.25742,0.13776 -0.45163,0.12861 -0.71124,-0.0335 -0.40902,-0.25544 -0.83268,-1.16034 -0.75657,-1.61598 0.045,-0.26937 -0.074,-0.25083 -0.94261,0.14682 -0.95413,0.43681 -1.04999,0.44669 -2.38371,0.24575 -0.76428,-0.11515 -1.64685,-0.31619 -1.96126,-0.44676 -0.5701,-0.23674 -5.210215,-3.07296 -6.619061,-4.04583 l -0.742438,-0.51268 -0.111792,0.44541 c -0.119599,0.47653 -0.441066,0.57503 -0.777774,0.23832 -0.156722,-0.15672 -0.465,-0.0914 -1.267276,0.26868 -1.275003,0.57218 -1.380298,0.57707 -2.179652,0.10128 -0.857432,-0.51037 -1.074714,-0.83571 -1.074714,-1.60916 0,-0.51948 -0.08003,-0.68228 -0.373073,-0.75891 -0.295048,-0.0772 -0.364781,-0.222 -0.333435,-0.69259 0.0218,-0.32726 -0.0041,-0.71593 -0.05754,-0.8637 -0.05345,-0.14778 -0.139811,-0.40225 -0.191917,-0.5655 -0.102408,-0.32086 -2.561176,-0.31897 -21.075671,0.0162 -12.10038,0.21905 -51.259431,0.33093 -65.0595512,0.18588 -3.42043,-0.036 -6.27401,-0.0103 -6.34128,0.057 -0.0673,0.0673 -0.1154,0.36526 -0.10696,0.66219 0.008,0.29694 -0.0599,0.53988 -0.15179,0.53988 -0.0919,0 -0.16714,0.19965 -0.16714,0.44367 0,0.27559 -0.16964,0.55482 -0.4478,0.73708 -0.32509,0.213 -0.44779,0.45238 -0.44779,0.87357 0,0.36756 -0.16096,0.75383 -0.43925,1.05411 -0.36409,0.39286 -0.59516,0.47395 -1.35053,0.47395 -0.5578,0 -1.18366,-0.13896 -1.61348,-0.35824 -0.83582,-0.4264 -1.35652,-0.45753 -1.49773,-0.0896 -0.15813,0.41207 -0.45296,0.31967 -0.57872,-0.18137 l -0.11295,-0.45006 -0.65171,0.38707 c -0.35845,0.21288 -1.4577498,0.92366 -2.4429098,1.57951 -3.44795,2.29539 -5.76571,3.00533 -7.96887,2.44091 -0.60806,-0.15578 -1.13397,-0.28323 -1.16868,-0.28323 -0.0347,0 -0.0562,0.24205 -0.0478,0.53789 0.022,0.77222 -0.48505,1.2533 -1.32085,1.2533 -0.63376,0 -0.68871,0.0397 -0.68871,0.49808 0,0.38488 -0.11781,0.54256 -0.51833,0.69374 -0.91381,0.34492 -1.08501,0.83932 -1.17346,3.38857 -0.22452,6.47134 -0.46339,37.56542 -0.46662,60.74024 -0.002,13.79274 -0.0513,17.78443 -0.22065,17.85348 -0.16136,0.0658 -0.16498,0.12747 -0.0139,0.23692 0.15085,0.10929 0.22108,7.19435 0.26868,27.10538 0.0354,14.82657 0.0409,28.67537 0.0121,30.7751 -0.047,3.42599 0.12273,7.57361 0.43997,10.75502 l 0.11356,1.1388 1.63014,-0.10523 c 0.89658,-0.0579 4.81398,-0.15645 8.70534,-0.21905 z m -7.41749,-153.48718 c 0.30822,-0.4704 0.23438,-1.58192 -0.11963,-1.80071 -0.11246,-0.0695 -0.13582,0.0626 -0.0626,0.35429 0.13567,0.54053 -0.16757,0.99783 -0.66167,0.99783 -0.32901,0 -0.47405,0.51903 -0.21689,0.77618 0.25876,0.25877 0.78261,0.097 1.06081,-0.32759 z m 132.824124,0.0763 c 0.28591,-0.15302 0.3152,-0.24322 0.14541,-0.4478 -0.11694,-0.1409 -0.35533,-0.25619 -0.52976,-0.25619 -0.34922,0 -0.54329,-0.3575 -0.51843,-0.95502 0.0118,-0.28309 0.0617,-0.23057 0.18424,0.19377 0.1312,0.45439 0.26522,0.58213 0.61076,0.58213 0.43148,0 0.44268,-0.034 0.44268,-1.34339 0,-0.77618 -0.0756,-1.34339 -0.17912,-1.34339 -0.0985,0 -0.17912,0.1459 -0.17912,0.32423 0,0.17833 -0.24974,0.57968 -0.55498,0.89188 -0.6627,0.67782 -0.77332,1.61005 -0.25856,2.17886 0.38639,0.42696 0.37168,0.42388 0.83688,0.17492 z m -133.646744,-1.06191 c 0.35364,-0.18926 0.34095,-0.29498 -0.2175,-1.81181 -0.23622,-0.64158 -0.23838,-0.63575 -0.24987,0.6717 -0.006,0.72539 0.021,1.31889 0.0609,1.31889 0.0399,0 0.22277,-0.0804 0.4065,-0.17878 z m 5.55332,-0.29625 c 1.44792,-0.31622 3.01803,-1.09201 5.17586,-2.55736 1.51653,-1.02986 3.7115098,-2.30142 4.7438898,-2.74816 1.62532,-0.70332 3.15594,-0.3603 3.15594,0.70726 0,0.55061 -0.75032,0.93887 -1.15897,0.59972 -0.3078,-0.25545 -0.36905,-0.72088 -0.0949,-0.72088 0.0985,0 0.17912,0.12091 0.17912,0.26868 0,0.40722 0.4965,0.32134 0.63325,-0.10953 0.16085,-0.50678 -0.28848,-0.95234 -0.79747,-0.79079 -0.2108,0.0669 -0.48644,0.37447 -0.61253,0.68348 -0.2034,0.49847 -0.18909,0.60802 0.12693,0.97147 0.4487,0.51605 1.13159,0.52431 1.66821,0.0202 0.58184,-0.54661 0.54274,-1.35131 -0.10326,-2.12497 -0.50091,-0.59988 -0.55797,-0.61975 -1.74641,-0.60807 -1.05049,0.0103 -1.45428,0.11828 -2.78541,0.74472 -0.85624,0.40296 -1.9846898,1.01047 -2.5076598,1.35002 -0.52297,0.33956 -1.43448,0.8821 -2.02557,1.20566 -0.59109,0.32356 -1.43743,0.81161 -1.88075,1.08456 -1.22803,0.75608 -3.1296,1.2811 -4.11158,1.13521 -1.54241,-0.22915 -2.76599,-2.06688 -2.14665,-3.22412 0.30439,-0.56877 1.24119,-1.14385 1.86331,-1.14385 0.71587,0 1.48831,0.63001 1.69638,1.38359 0.37228,1.3483 -1.09684,2.56555 -2.34493,1.94291 -0.72757,-0.36295 -0.84189,-0.24915 -0.2318,0.23075 0.73091,0.57493 1.64657,0.68045 2.39301,0.27577 1.20813,-0.65498 1.63027,-2.05041 1.0116,-3.34397 -0.92273,-1.92935 -3.67839,-2.091 -5.18206,-0.30399 -0.25871,0.30746 -0.51739,0.77447 -0.57485,1.03779 -0.0575,0.26333 -0.13213,0.57073 -0.16594,0.68312 -0.10196,0.33893 0.33296,1.55619 0.77721,2.17524 0.88471,1.23283 2.7713,1.67235 5.04599,1.17556 z m 126.423374,-0.70809 c 1.35829,-0.93004 1.69962,-1.60303 1.57279,-3.10097 -0.15516,-1.83253 -1.00564,-2.84284 -2.65329,-3.15195 -1.01734,-0.19085 -2.51204,0.55962 -2.99325,1.50288 -0.61083,1.19733 -0.45966,2.79806 0.33974,3.59746 0.30085,0.30086 0.57894,0.36172 1.57444,0.34462 0.66498,-0.0114 1.04785,-0.0563 0.85082,-0.0996 -1.1669,-0.25677 -1.69063,-0.7069 -1.93345,-1.66176 -0.14103,-0.55457 0.42767,-1.87984 0.91967,-2.14316 0.5296,-0.28343 1.67829,-0.23773 2.13922,0.0851 1.00089,0.70105 1.22645,2.21181 0.46529,3.1164 -1.4157,1.68246 -3.83196,1.49058 -6.8353,-0.54281 -0.71717,-0.48556 -1.37128,-0.88283 -1.45358,-0.88283 -0.0823,0 -0.34185,-0.14964 -0.5768,-0.33253 -0.64802,-0.50445 -3.881723,-2.15466 -4.988496,-2.54572 -1.187433,-0.41956 -2.816501,-0.45448 -3.362463,-0.0721 -0.432551,0.30297 -0.685037,1.27098 -0.511673,1.96172 0.282308,1.1248 1.834977,1.26376 2.373522,0.21243 0.30049,-0.58662 0.558337,-0.83256 0.867489,-0.82746 0.09852,0.002 0.0571,0.10114 -0.09202,0.22115 -0.278983,0.22451 -0.893132,1.1124 -0.893132,1.29122 0,0.0552 0.254929,-0.0314 0.566509,-0.1925 0.367296,-0.18993 0.808202,-0.26053 1.253832,-0.20076 0.487634,0.0654 0.687325,0.0255 0.687325,-0.13751 0,-0.37004 -0.489869,-0.67102 -0.886999,-0.54497 -0.221497,0.0703 -0.366834,0.0365 -0.366834,-0.0853 0,-0.11096 0.0806,-0.15194 0.179119,-0.0911 0.09851,0.0609 0.179119,0.0332 0.179119,-0.0615 0,-0.0947 -0.256608,-0.26162 -0.57024,-0.37096 -0.439803,-0.15331 -0.603063,-0.14708 -0.713733,0.0273 -0.08528,0.13435 -0.144607,0.14688 -0.146237,0.0309 -0.0014,-0.10733 -0.208043,-0.28869 -0.458967,-0.40302 -0.57068,-0.26002 -0.538002,-0.26277 -0.874373,0.0736 -0.406665,0.40667 -0.362005,0.97236 0.07677,0.97236 0.238825,0 0.358238,-0.11941 0.358238,-0.35824 0,-0.19703 0.0806,-0.35823 0.179119,-0.35823 0.317967,0 0.190056,0.69801 -0.162486,0.88669 -0.260178,0.13924 -0.438691,0.10421 -0.748906,-0.14699 -0.37091,-0.30035 -0.386934,-0.37898 -0.179351,-0.88013 0.283529,-0.68449 0.524295,-0.78074 1.390839,-0.55599 1.255782,0.3257 1.744289,0.56936 4.088319,2.0392 6.58693,4.13036 6.80843,4.2321 9.01087,4.13875 1.18312,-0.0501 1.40665,-0.12249 2.32855,-0.75373 z m -125.348654,-2.25815 c 0,-0.38351 0.0129,-0.38524 0.5998,-0.0807 0.35087,0.18203 0.41165,0.28948 0.25333,0.4478 -0.29262,0.29262 -0.50319,0.25921 -0.38055,-0.0604 0.18235,-0.47519 -0.22813,-0.28587 -0.45373,0.20926 -0.18451,0.40498 -0.17955,0.44623 0.0325,0.27024 0.13765,-0.11424 0.29683,-0.16116 0.35373,-0.10426 0.0569,0.0569 1.40462,-0.68028 2.99495,-1.63817 1.59032,-0.95789 3.3499298,-1.93415 3.9102398,-2.16948 l 1.01875,-0.42785 -5.2385198,0.0494 c -2.88119,0.0272 -5.23884,0.1044 -5.23923,0.17165 -4e-4,0.0673 0.16703,0.17551 0.37205,0.24058 0.20502,0.0651 0.60804,0.4893 0.8956,0.94273 0.62932,0.99235 0.67688,1.88329 0.15776,2.95563 l -0.36507,0.75412 0.54419,-0.62015 c 0.2993,-0.34108 0.54419,-0.76425 0.54419,-0.94037 z m 0.47464,-0.40356 c -0.18227,-0.13809 -0.27495,-0.3424 -0.20596,-0.45402 0.069,-0.11163 0.009,-0.29835 -0.13276,-0.41494 -0.45911,-0.37693 -1.25108,-1.91361 -0.98623,-1.91361 0.13173,0 0.39134,0.3682 0.57692,0.81822 0.18558,0.45002 0.53539,0.97394 0.77736,1.16427 0.52443,0.41252 1.63282,0.45624 2.32605,0.0917 0.70172,-0.36896 2.14866,-1.89512 1.79674,-1.89512 -0.15622,0 -0.3859,0.12272 -0.51038,0.27272 -0.12728,0.15337 -0.36798,0.22777 -0.54998,0.17001 -0.23354,-0.0741 -0.40066,0.0462 -0.60035,0.43239 -0.31418,0.60756 -0.56014,0.8059 -0.8088,0.65223 -0.23655,-0.1462 -0.0248,-0.63176 0.27554,-0.63176 0.17673,0 0.21508,-0.14978 0.13757,-0.53735 -0.0685,-0.34232 -0.0343,-0.53736 0.094,-0.53736 0.11083,0 0.20151,0.13078 0.20151,0.29061 0,0.22609 0.0546,0.24529 0.24598,0.0865 0.13528,-0.11228 0.36894,-0.15695 0.51924,-0.0993 0.15029,0.0577 0.32647,0.0188 0.39151,-0.0865 0.14951,-0.24192 1.29254,-0.25161 1.4405,-0.0122 0.0609,0.0985 8.9e-4,0.17912 -0.13341,0.17912 -0.13427,0 -0.52189,0.28662 -0.86139,0.63694 -0.88606,0.91428 -2.25324,1.75056 -2.6796,1.63907 -0.23041,-0.0602 -0.35578,-0.004 -0.35578,0.15887 0,0.32122 -0.52807,0.31541 -0.95831,-0.0106 z m 0.68963,-0.0958 c -0.0609,-0.0985 -0.23161,-0.17912 -0.37938,-0.17912 -0.14777,0 -0.21886,0.0806 -0.15798,0.17912 0.0609,0.0985 0.23161,0.17911 0.37938,0.17911 0.14778,0 0.21887,-0.0806 0.15798,-0.17911 z m 1.34339,-1.25384 c 0,-0.0985 -0.0355,-0.17912 -0.079,-0.17912 -0.0434,0 -0.1288,0.0806 -0.18969,0.17912 -0.0609,0.0985 -0.0253,0.17912 0.079,0.17912 0.10433,0 0.18969,-0.0806 0.18969,-0.17912 z m -1.91841,-0.35824 c -0.0515,-0.19703 -0.15548,-0.35823 -0.23101,-0.35823 -0.0755,0 -0.1795,-0.16121 -0.23102,-0.35824 -0.11973,-0.45785 0.0177,-0.45281 0.51999,0.0191 0.23636,0.22204 0.35757,0.49211 0.29456,0.6563 -0.0732,0.19084 -0.037,0.23568 0.11471,0.14193 0.12198,-0.0754 0.18084,-0.24373 0.13081,-0.3741 -0.05,-0.13038 0.11268,-0.37048 0.36157,-0.53355 0.57843,-0.37901 0.69978,-0.26281 0.24044,0.23023 -0.19599,0.21038 -0.35635,0.50677 -0.35635,0.65867 0,0.41643 -0.73195,0.34523 -0.8437,-0.0821 z m 120.207364,2.541 c -0.0614,-0.26462 -0.15156,-0.7886 -0.20046,-1.16439 -0.17286,-1.3284 0.83166,-2.98159 2.02948,-3.34003 0.31723,-0.0949 -1.91612,-0.15972 -5.75049,-0.16683 l -6.269168,-0.0116 1.164274,0.41474 c 1.368249,0.4874 3.108024,1.35074 4.454094,2.2103 0.5287,0.33761 1.07696,0.56945 1.21835,0.51519 0.1414,-0.0543 0.20996,-0.0224 0.15237,0.0708 -0.0576,0.0932 0.13734,0.29461 0.43319,0.4476 0.29586,0.15299 0.99433,0.59788 1.55217,0.98865 1.10146,0.77158 1.38879,0.77999 1.21619,0.0356 z m -1.02721,-0.18111 c -0.1638,-0.181 -0.24391,-0.383 -0.17802,-0.44889 0.0659,-0.0659 -0.0213,-0.11981 -0.19365,-0.11981 -0.38837,0 -0.2752,-0.4263 0.13426,-0.50571 0.17467,-0.0339 0.29861,0.0567 0.29861,0.21828 0,0.15191 0.10075,0.23839 0.2239,0.19218 0.12314,-0.0462 0.32171,0.12736 0.44125,0.3857 0.21276,0.45979 0.20991,0.46296 -0.13544,0.15043 -0.19403,-0.17559 -0.41041,-0.26164 -0.48084,-0.19121 -0.0704,0.0704 -0.0118,0.19989 0.13025,0.28769 0.14207,0.0878 0.21312,0.20482 0.15791,0.26004 -0.0552,0.0552 -0.23442,-0.0477 -0.39823,-0.2287 z m -1.83836,-1.13649 c -0.0861,-0.13925 -0.0333,-0.17264 0.15723,-0.0995 0.49284,0.18913 1.69995,-0.40237 1.88207,-0.92222 0.52366,-1.49481 0.54971,-1.6346 0.30457,-1.6346 -0.13258,0 -0.29221,0.16121 -0.35475,0.35824 -0.063,0.19835 -0.27101,0.35824 -0.46617,0.35824 -0.29817,0 -0.32263,0.0558 -0.15877,0.36194 0.19374,0.36199 0.10884,0.71277 -0.1725,0.71277 -0.0822,0 -0.19421,-0.1168 -0.24899,-0.25955 -0.0668,-0.17416 -0.0135,-0.22653 0.16199,-0.15918 0.18399,0.0706 0.22885,0.0151 0.15123,-0.18721 -0.0607,-0.15818 -0.18791,-0.23967 -0.28269,-0.18109 -0.0948,0.0586 -0.14679,-0.0426 -0.11557,-0.22493 0.0334,-0.19484 -0.0376,-0.31229 -0.17213,-0.28499 -0.12588,0.0255 -0.27556,-0.0752 -0.33262,-0.2239 -0.12534,-0.32662 -0.71618,-0.35919 -0.84238,-0.0464 -0.0568,0.14069 -0.0956,0.14884 -0.10448,0.0219 -0.008,-0.11108 0.10044,-0.29706 0.2405,-0.4133 0.26486,-0.21981 0.68561,-0.0669 1.40408,0.51039 0.27728,0.22278 0.36514,0.20657 0.72802,-0.13434 0.4218,-0.39625 1.19563,-0.53125 1.19563,-0.20858 0,0.0985 -0.0703,0.17912 -0.15622,0.17912 -0.0859,0 -0.20485,0.30226 -0.26429,0.6717 -0.14399,0.89505 -0.54376,1.42678 -1.31497,1.74901 -0.76769,0.32076 -1.06704,0.33442 -1.23879,0.0565 z m -1.77238,-1.40251 c -0.384789,-0.39407 -0.85696,-0.71648 -1.049267,-0.71648 -0.3383,0 -0.339126,-0.0116 -0.02545,-0.35824 0.178311,-0.19703 0.500885,-0.35824 0.716831,-0.35824 0.215946,0 0.578506,0.16121 0.805676,0.35824 0.22718,0.19703 0.48133,0.35824 0.56477,0.35824 0.0834,0 0.15171,0.0781 0.15171,0.1735 0,0.21823 -0.50209,0.0403 -1.03206,-0.36578 -0.22593,-0.17311 -0.566139,-0.26833 -0.769083,-0.21526 -0.32847,0.0859 -0.304955,0.13525 0.2413,0.50644 0.497763,0.33824 1.358073,1.33405 1.152523,1.33405 -0.0315,0 -0.37216,-0.32241 -0.75695,-0.71647 z m 1.73935,0.46659 c 0.12703,-0.13743 0.29273,-0.21246 0.36822,-0.16674 0.20481,0.12405 -0.0297,0.41662 -0.33401,0.41662 -0.2178,0 -0.22391,-0.0446 -0.0342,-0.24988 z m -0.57233,-0.51137 c 0.005,-0.42824 0.26312,-0.66055 0.53934,-0.48587 0.2065,0.13059 0.21104,0.16752 0.0209,0.16967 -0.14204,0.002 -0.20021,0.11441 -0.13996,0.27142 0.0628,0.16366 3.6e-4,0.26867 -0.15996,0.26867 -0.14468,0 -0.26182,-0.10075 -0.26031,-0.22389 z m -119.973694,2.95546 c 0.60563,-0.6943 0.69966,-1.07844 0.42494,-1.73595 -0.56702,-1.35705 -2.78884,-0.88388 -2.83112,0.60292 -0.0327,1.14982 1.68572,1.95899 2.40618,1.13303 z m -1.51651,-0.18059 c -0.27092,-0.16797 -0.49258,-0.40105 -0.49258,-0.51794 0,-0.1169 -0.0476,-0.33646 -0.10566,-0.48791 -0.14798,-0.38561 0.70387,-1.18689 1.2618,-1.18689 0.61531,0 1.17241,0.59579 1.17241,1.25384 0,0.59654 -0.54413,1.25645 -1.02993,1.24906 -0.17241,-0.003 -0.53512,-0.14219 -0.80604,-0.31016 z m 1.19626,-0.32478 c 0.33407,-0.33407 0.36794,-0.99336 0.0665,-1.29478 -0.4725,-0.4725 -1.57625,-0.0545 -1.57625,0.59691 0,0.3012 0.69669,0.97934 1.00614,0.97934 0.12216,0 0.34877,-0.12666 0.50358,-0.28147 z m 128.020254,0.62529 c 0.54623,-0.29233 0.92745,-1.32837 0.67176,-1.82564 -0.75759,-1.47343 -1.78994,-1.76162 -2.77648,-0.77508 -0.79338,0.79338 -0.82127,1.53483 -0.0854,2.27068 0.56399,0.56398 1.49177,0.7038 2.19015,0.33004 z m -1.99725,-0.52294 c -0.54192,-0.54192 -0.4621,-1.31371 0.19286,-1.86483 0.62241,-0.52371 0.74677,-0.54821 1.29665,-0.25534 0.91236,0.48593 1.10767,1.44712 0.42448,2.08895 -0.52762,0.49567 -1.43474,0.51047 -1.91399,0.0312 z m 1.62385,-0.18542 c 0.46137,-0.24692 0.45177,-1.09671 -0.0172,-1.52112 -0.45734,-0.41388 -1.22723,-0.196 -1.54259,0.43656 -0.2597,0.52091 -0.16488,0.80751 0.34941,1.05603 0.51304,0.24792 0.78832,0.25441 1.21038,0.0285 z M -6.0390942,145.25611 c -0.1755,-0.21146 -0.18051,-0.37687 -0.0219,-0.7249 0.46586,-1.02247 0.12426,-1.20398 -1.13794,-0.60465 l -0.71648,0.3402 0.71648,-0.10816 c 0.39406,-0.0595 0.82653,-0.19585 0.96103,-0.30301 0.19266,-0.15349 0.22842,-0.12002 0.16848,0.15769 -0.0418,0.1939 -0.18407,0.32838 -0.31606,0.29885 -0.13199,-0.0295 -0.36901,0.005 -0.52672,0.0757 -0.1577,0.0711 -0.48032,0.15187 -0.71693,0.17939 -0.23661,0.0275 -0.5011,0.12092 -0.58777,0.20758 -0.0907,0.0907 0.0539,0.13123 0.34064,0.0955 0.27402,-0.0341 0.82062,0.0939 1.21469,0.28437 0.89515,0.43279 0.8979,0.43324 0.62251,0.10142 z m -16.6536598,-1.22559 c 0,-0.28654 0.82584,-1.06081 1.52251,-1.42744 l 0.53735,-0.28278 -1.11949,-0.007 c -1.0431,-0.007 -1.11963,0.0203 -1.12146,0.39585 -0.001,0.22166 -0.054,0.71781 -0.11752,1.10256 -0.0837,0.50687 -0.0585,0.6643 0.0915,0.57157 0.11389,-0.0704 0.20708,-0.22906 0.20708,-0.35259 z m 133.947034,-1.82337 -0.0556,-0.63616 -1.46156,-0.037 c -1.52401,-0.0386 -1.82626,0.10708 -0.6217,0.2997 0.78004,0.12473 1.70847,1.01378 1.94633,1.86377 0.13113,0.46858 0.13929,0.46085 0.19253,-0.1824 0.0306,-0.36944 0.0306,-0.95797 0,-1.30786 z m -114.6021842,0.5466 c 0,-0.35824 -0.0896,-0.4478 -0.4478,-0.4478 -0.55282,0 -0.56229,0.11574 -0.0448,0.54747 0.51066,0.42601 0.49258,0.42967 0.49258,-0.0997 z m 0.71647,-0.20026 c 0,-0.14777 -0.0806,-0.21886 -0.17912,-0.15798 -0.0985,0.0609 -0.17912,0.23161 -0.17912,0.37938 0,0.14777 0.0806,0.21887 0.17912,0.15798 0.0985,-0.0609 0.17912,-0.23161 0.17912,-0.37938 z m 94.1696832,-0.1921 c -0.16654,-0.16653 -0.35309,-0.2525 -0.414559,-0.19103 -0.176285,0.17628 0.09434,0.49383 0.420864,0.49383 0.273421,0 0.272931,-0.0236 -0.0063,-0.3028 z m 0.852947,-0.41368 0.702662,-0.35823 h -0.814055 c -0.917381,0 -1.14133,0.12539 -0.850276,0.47609 0.243283,0.29314 0.12775,0.3073 0.961669,-0.11786 z m -118.36884,-21.25646 c -0.0651,-0.0651 -0.11838,-1.19309 -0.11838,-2.50663 v -2.38826 h 4.92578 4.92577 l 0.001,1.29862 c 7e-4,0.71423 0.0518,1.83371 0.1136,2.48772 l 0.11233,1.18912 -4.921,0.0189 c -2.70655,0.0104 -4.97426,-0.0344 -5.03937,-0.0995 z m 1.58147,-0.9524 c 0.28216,-0.29452 0.46994,-0.57858 0.41727,-0.63125 -0.0527,-0.0527 -0.19772,0.0271 -0.32233,0.17725 -0.32244,0.38852 -0.6492,0.34077 -0.34481,-0.0504 0.13841,-0.17786 0.03,-0.096 -0.24092,0.18195 -0.27092,0.27793 -0.49258,0.58466 -0.49258,0.68162 0,0.34344 0.4772,0.16913 0.98337,-0.35919 z m 0.6287,0.35848 c 0,-0.0974 0.18136,-0.15781 0.40302,-0.13434 0.32185,0.0341 0.40302,-0.0475 0.40302,-0.40513 0,-0.59875 -0.68937,-0.63865 -0.77372,-0.0448 -0.0368,0.259 -0.1808,0.40302 -0.40301,0.40302 -0.19018,0 -0.34578,0.0806 -0.34578,0.17912 0,0.0985 0.1612,0.17912 0.35823,0.17912 0.19703,0 0.35824,-0.0797 0.35824,-0.17701 z m 1.79119,0.0937 c 0,-0.0458 -0.15315,-0.16522 -0.34033,-0.2654 -0.25765,-0.13789 -0.36508,-0.11766 -0.44218,0.0833 -0.073,0.19028 0.0233,0.2654 0.34034,0.2654 0.24319,0 0.44217,-0.0375 0.44217,-0.0833 z m 1.80297,-0.10216 c 0.24053,-0.12873 0.45599,-0.12681 0.7047,0.006 0.24288,0.12998 0.35824,0.13201 0.35824,0.006 0,-0.10198 -0.12375,-0.18542 -0.27499,-0.18542 -0.22841,0 -0.23916,-0.0683 -0.0635,-0.40302 0.21035,-0.40086 0.20942,-0.40119 -0.17282,-0.0618 -0.21136,0.18767 -0.3843,0.2527 -0.3843,0.1445 0,-0.1082 0.17914,-0.3222 0.39809,-0.47556 0.21895,-0.15336 0.31074,-0.27883 0.20396,-0.27883 -0.10742,0 -0.15804,-0.18882 -0.11333,-0.42271 0.0928,-0.48557 -0.4097,-0.72115 -0.92416,-0.43325 -0.28995,0.16227 -0.28982,0.19113 0.002,0.51394 0.17024,0.18811 0.42646,0.34202 0.56938,0.34202 0.15895,0 0.0438,0.20179 -0.29644,0.51966 -0.76325,0.71298 -0.7674,1.13473 -0.007,0.72787 z m 2.58527,-0.17311 c -0.0691,-0.11179 -0.23427,-0.16156 -0.36706,-0.1106 -0.13758,0.0528 -0.20764,1.8e-4 -0.16288,-0.12213 0.12506,-0.34191 -0.19853,-0.70375 -0.56606,-0.63297 -0.63584,0.12246 -0.3951,0.72705 0.3797,0.95357 0.78733,0.23019 0.90402,0.21587 0.7163,-0.0879 z m -3.67176,0.0315 c 0,-0.0813 -0.20599,-0.34141 -0.45774,-0.57792 -0.40246,-0.37809 -0.44206,-0.38727 -0.32787,-0.076 0.12801,0.34894 0.1243,0.34913 -0.25873,0.0128 -0.22159,-0.19457 -0.38861,-0.25117 -0.38861,-0.13171 0,0.11524 0.26196,0.36924 0.58213,0.56445 0.6312,0.38485 0.85082,0.43864 0.85082,0.20838 z m 4.50087,-0.16756 c -0.27708,-0.51773 -0.88138,-0.98245 -1.10101,-0.84671 -0.13795,0.0853 -0.0427,0.29624 0.2909,0.64446 0.56223,0.58684 1.0859,0.71758 0.81011,0.20225 z m -0.91849,-0.59071 c 0,-0.10433 0.0806,-0.13987 0.17912,-0.079 0.0985,0.0609 0.17912,0.14625 0.17912,0.18969 0,0.0434 -0.0806,0.079 -0.17912,0.079 -0.0985,0 -0.17912,-0.0854 -0.17912,-0.18969 z m -7.523,-0.0896 c 0,-0.14196 0.10075,-0.25934 0.2239,-0.26085 0.63583,-0.008 1.12276,-1.1084 0.58216,-1.31585 -0.14779,-0.0567 -0.2687,-0.19612 -0.2687,-0.30979 0,-0.14046 0.0955,-0.12791 0.298,0.0392 0.26994,0.22268 0.27798,0.20826 0.0855,-0.15308 -0.18942,-0.35549 -0.7242,-0.76536 -0.9986,-0.76536 -0.24282,0 -0.0608,0.39192 0.45457,0.97892 0.47166,0.53719 0.5056,0.63357 0.2239,0.63589 -0.53836,0.004 -0.73907,0.22487 -0.87772,0.96394 -0.0943,0.50279 -0.0739,0.66204 0.0731,0.57115 0.11215,-0.0693 0.20391,-0.24217 0.20391,-0.38413 z m 4.81002,0.22126 c 0.1437,-0.17316 0.13996,-0.29395 -0.0139,-0.4478 -0.32974,-0.32974 -0.49727,-0.24985 -0.49727,0.23711 0,0.49243 0.20664,0.5776 0.51116,0.21069 z m -0.76705,-0.30025 c 0,-0.19703 -0.0586,-0.35823 -0.13016,-0.35823 -0.20835,0 -0.36163,0.34196 -0.24087,0.53735 0.18209,0.29462 0.37103,0.20341 0.37103,-0.17912 z m 4.50549,0 c -0.0297,-0.39436 -0.30899,-0.50229 -0.30899,-0.11941 0,0.2137 0.15882,0.47765 0.2874,0.47765 0.0267,0 0.0364,-0.1612 0.0216,-0.35824 z m -6.28381,-0.45007 c 0.12302,-0.32059 -0.232,-0.80376 -0.59057,-0.80376 -0.35661,0 -0.5021,0.49159 -0.23924,0.80832 0.28515,0.34357 0.69708,0.34131 0.82981,-0.005 z m 4.63242,0.0902 c 0.19198,-0.31063 -0.099,-0.89399 -0.44593,-0.89399 -0.40234,0 -0.54874,0.33711 -0.33059,0.76126 0.1771,0.34432 0.60097,0.41678 0.77652,0.13273 z m -3.24319,-0.23172 c 0.28243,-0.20652 0.28798,-0.25914 0.0483,-0.45808 -0.21756,-0.18055 -0.34403,-0.17903 -0.64309,0.008 -0.20475,0.12786 -0.37228,0.334 -0.37228,0.45807 0,0.29398 0.56062,0.2895 0.9671,-0.008 z m 4.54551,0.0226 c 0.28672,-0.28672 -0.0652,-0.70176 -0.46559,-0.54902 -0.20157,0.0769 -0.13834,-0.0784 0.19222,-0.47218 0.50786,-0.605 0.67515,-1.22167 0.26867,-0.99043 -0.41724,0.23737 -0.85081,0.66495 -0.85081,0.83906 0,0.0953 0.1209,0.0729 0.26868,-0.0497 0.1721,-0.14283 0.26868,-0.15391 0.26868,-0.0308 0,0.10568 -0.135,0.2677 -0.30001,0.36004 -0.36647,0.20509 -0.47492,0.77642 -0.18264,0.96223 0.30606,0.19458 0.55889,0.17274 0.8008,-0.0692 z m -4.8948,-1.10483 c 0.62695,-0.82198 0.5994,-1.09591 -0.0751,-0.7471 -0.53385,0.27607 -1.06923,0.9879 -0.74301,0.9879 0.0938,0 0.20648,-0.10075 0.25046,-0.2239 0.044,-0.12314 0.13513,-0.17304 0.20257,-0.11088 0.0674,0.0622 -0.008,0.24352 -0.16739,0.40302 -0.1595,0.1595 -0.20774,0.29 -0.10721,0.29 0.10054,0 0.38841,-0.26957 0.63972,-0.59904 z m 1.37214,0.0981 c -0.10931,-0.0364 -0.19876,-0.14199 -0.19876,-0.23457 0,-0.0926 0.20151,-0.0363 0.4478,0.12509 0.29559,0.19367 0.4478,0.22192 0.4478,0.0831 0,-0.11566 0.0806,-0.16047 0.17912,-0.0996 0.0985,0.0609 0.17912,0.0346 0.17912,-0.0584 0,-0.17463 -0.5973,-0.60853 -1.08142,-0.78559 -0.21902,-0.0801 -0.28256,0.0641 -0.31043,0.7045 -0.0312,0.71811 -0.004,0.77961 0.25025,0.56846 0.17919,-0.14872 0.21137,-0.26141 0.0865,-0.30303 z m -4.50331,0.1875 c -0.003,-0.0739 -0.12404,-0.2908 -0.26868,-0.48203 -0.25221,-0.33346 -0.26298,-0.32796 -0.26298,0.13434 0,0.30906 0.0964,0.48203 0.26868,0.48203 0.14777,0 0.26612,-0.0604 0.26298,-0.13434 z m 3.81424,-0.3302 c 0.0789,-0.41259 0.0588,-0.43454 -0.17943,-0.19631 -0.14753,0.14753 -0.21364,0.35657 -0.14691,0.46454 0.17799,0.288 0.22784,0.24703 0.32634,-0.26823 z m 4.52049,0.28542 c 0.0609,-0.0985 0.0253,-0.17912 -0.079,-0.17912 -0.10433,0 -0.18969,0.0806 -0.18969,0.17912 0,0.0985 0.0356,0.17912 0.079,0.17912 0.0435,0 0.12881,-0.0806 0.18969,-0.17912 z m -6.39232,-0.40561 c 0.0689,-0.35767 -0.44195,-0.62344 -0.70079,-0.3646 -0.25066,0.25066 0.0122,0.79759 0.35185,0.73217 0.15888,-0.0306 0.3159,-0.19601 0.34894,-0.36757 z m 4.86707,0.0922 c -0.002,-0.1724 -0.0792,-0.43436 -0.17264,-0.58213 -0.14927,-0.23605 -0.20629,-0.2323 -0.46955,0.0309 -0.16481,0.16476 -0.25086,0.42672 -0.19122,0.58214 0.1508,0.39296 0.83689,0.36753 0.83341,-0.0309 z m -5.54995,-0.67169 c 0.18845,-0.22707 0.15111,-0.26868 -0.24112,-0.26868 -0.33895,0 -0.43631,0.0725 -0.36101,0.26868 0.0567,0.14777 0.16521,0.26868 0.24113,0.26868 0.0759,0 0.23836,-0.12091 0.361,-0.26868 z m 1.61207,-0.18542 c 0,-0.0458 -0.25168,-0.0833 -0.55929,-0.0833 -0.4733,0 -0.52548,0.0407 -0.33943,0.26491 0.16324,0.1967 0.30728,0.21814 0.55929,0.0833 0.18669,-0.0999 0.33943,-0.21912 0.33943,-0.26491 z m 3.04503,0.18542 c 0.19081,-0.22992 0.13582,-0.26786 -0.38109,-0.26298 -0.56995,0.005 -0.58443,0.0206 -0.25638,0.26867 0.42171,0.31896 0.36762,0.31945 0.63747,-0.006 z m 1.35726,-0.23973 c -0.38248,-0.0746 -0.53798,0.0609 -0.3741,0.32607 0.0886,0.14337 0.20264,0.13409 0.40407,-0.0329 0.25283,-0.20956 0.24986,-0.23861 -0.03,-0.29321 z m 3.60639,4.13557 c -0.15611,-0.28797 -0.13106,-4.6785 0.0273,-4.77634 0.0922,-0.057 0.92129,-0.1818 1.84244,-0.27737 2.5906998,-0.26881 5.0066998,-1.27227 7.0484098,-2.92751 2.07065,-1.6787 4.12948,-5.93441 4.36576995,-9.02427 l 0.11217,-1.46692 28.12168025,-0.0943 c 15.46693,-0.0519 35.585841,-0.14879 44.708701,-0.21534 11.690801,-0.0853 16.621916,-0.0645 16.705242,0.0703 0.06502,0.10521 0.231549,0.94623 0.37006,1.86892 0.307993,2.05171 0.762497,3.44276 1.893409,5.79494 0.70557,1.46751 1.072155,1.99352 1.966059,2.82112 0.604328,0.5595 1.174601,1.01728 1.267274,1.01728 0.09267,0 0.564513,0.28451 1.048536,0.63224 1.285359,0.92344 3.001328,1.45689 5.171673,1.60775 l 1.84158,0.128 -0.0226,2.30882 -0.0226,2.30883 -7.102965,0.009 c -3.906632,0.005 -11.334654,0.0457 -16.506714,0.0901 -5.172064,0.0445 -23.824295,0.12531 -41.449415,0.17965 -26.24125,0.0809 -32.0725202,0.0565 -32.1938902,-0.13491 -0.11352,-0.17897 -0.14888,-0.18127 -0.15098,-0.01 -0.002,0.17626 -2.02016,0.2239 -9.48547,0.2239 -5.21551,0 -9.5155098,-0.0605 -9.5555598,-0.13434 z m 63.06903,-0.75323 c 0.0343,-0.10293 0.18133,-0.18715 0.32671,-0.18715 0.14864,0 0.21035,0.0873 0.141,0.19955 -0.0904,0.14622 2.57553,0.17158 9.975311,0.0949 5.55425,-0.0575 17.373108,-0.10703 26.264127,-0.10999 l 16.165486,-0.005 v -0.7059 c 0,-0.38825 0.0876,-0.76007 0.19473,-0.82626 0.14022,-0.0867 0.14022,-0.17485 0,-0.31507 -0.1071,-0.1071 -0.19473,-0.49948 -0.19473,-0.87197 0,-0.76071 0.0607,-0.72975 -2.059866,-1.04946 -1.630443,-0.24581 -2.667379,-0.55767 -3.864198,-1.16216 -4.237135,-2.14008 -6.332093,-5.56764 -7.251586,-11.86432 l -0.111564,-0.76399 -44.27097,0.11676 c -24.34903,0.0642 -44.29994025,0.14145 -44.33536025,0.17162 -0.0354,0.0302 -0.12979,0.60354 -0.20972,1.27415 -0.18442,1.54731 -0.88273995,3.63349 -1.87310995,5.59576 -0.83318,1.65082 -2.69336,3.74203 -4.33069,4.86854 -1.07783,0.74157 -4.1549098,1.72116 -5.9044998,1.8797 l -1.35372,0.12267 0.0807,1.79843 c 0.0647,1.44093 0.1379,1.81848 0.36823,1.8993 0.55924,0.19624 62.17772,0.0381 62.24367,-0.15977 z m 55.499714,0.58903 c -0.0657,-0.0657 -0.11941,-1.19259 -0.11941,-2.50425 0,-2.33024 0.009,-2.38666 0.40302,-2.4642 0.22166,-0.0436 2.4181,-0.0653 4.88099,-0.0482 3.4573,0.0241 4.47389,0.0822 4.46006,0.25506 -0.01,0.12315 -0.03,1.27175 -0.0448,2.55245 l -0.0269,2.32855 h -4.7168 c -2.59424,0 -4.77053,-0.0537 -4.83621,-0.11942 z m 2.936,-0.69913 c -0.20965,0.25261 -0.13584,0.27888 0.68332,0.24324 1.0488,-0.0456 1.16217,-0.27188 0.47871,-0.95535 -0.47645,-0.47644 -0.88293,-0.54085 -1.6273,-0.25784 -0.40552,0.15418 -0.46091,0.25627 -0.36446,0.67169 0.0794,0.34189 0.0621,0.4122 -0.0572,0.23273 -0.14769,-0.22223 -0.21533,-0.22265 -0.49801,-0.003 -0.31384,0.24376 -0.3144,0.23909 -0.0136,-0.11518 0.31609,-0.37236 0.42786,-0.97282 0.17912,-0.96227 -0.32852,0.0139 -1.1195,0.93149 -1.1195,1.29866 0,0.0407 0.25009,0.0812 0.55576,0.0899 0.30566,0.009 0.60123,0.0613 0.65682,0.11687 0.0556,0.0556 0.38464,-0.0662 0.73123,-0.27074 0.44055,-0.25994 0.55944,-0.2866 0.39512,-0.0886 z m 2.93884,-0.27472 c 0.34823,-0.30576 0.63315,-0.64222 0.63315,-0.7477 0,-0.10548 -0.20151,-0.002 -0.4478,0.2289 -0.24629,0.23137 -0.44779,0.3359 -0.44779,0.23227 0,-0.10363 0.1034,-0.27423 0.22979,-0.37912 0.12638,-0.10489 0.24813,-0.43147 0.27055,-0.72574 0.0494,-0.64808 -0.54591,-0.94981 -0.99261,-0.50311 -0.35784,0.35785 -0.16238,0.83834 0.34104,0.83834 0.39046,0 0.389,0.009 -0.0839,0.50238 -0.47461,0.49538 -0.64535,1.10969 -0.30843,1.10969 0.0951,0 0.45781,-0.25016 0.80604,-0.55591 z m 0.76109,0.24885 c -0.29,-0.29 -0.32412,-0.29 -0.61412,0 -0.29,0.29 -0.27294,0.30706 0.30706,0.30706 0.58001,0 0.59706,-0.017 0.30706,-0.30706 z m 1.56405,0.11234 c -0.0662,-0.1071 -0.27246,-0.15495 -0.45837,-0.10633 -0.18591,0.0486 -0.33802,0.0288 -0.33802,-0.0441 0,-0.33883 0.28428,-0.33555 0.84293,0.01 0.33487,0.20697 0.65836,0.3268 0.71886,0.26629 0.15502,-0.15501 0.17313,-1.55656 0.0213,-1.65037 -0.069,-0.0426 -0.17623,0.005 -0.23833,0.10518 -0.0626,0.10128 -0.32753,0.13054 -0.59452,0.0657 l -0.4816,-0.11704 0.35696,0.42984 0.35696,0.42984 -0.44652,-0.36727 c -0.48672,-0.40034 -1.16407,-0.39034 -1.32134,0.0195 -0.14413,0.37559 0.0343,0.7234 0.48226,0.93985 0.52976,0.25601 1.25356,0.26867 1.0994,0.0192 z m -7.46082,-0.70816 c 0.12555,-0.20104 0.18925,-0.42867 0.14156,-0.50584 -0.0477,-0.0772 0.0906,-0.13435 0.30739,-0.12706 0.30087,0.0101 0.40752,-0.10327 0.45079,-0.47931 0.0482,-0.41845 -0.009,-0.49258 -0.38109,-0.49258 -0.57781,0 -0.78496,0.28813 -0.86923,1.20906 -0.0772,0.84398 0.01,0.94188 0.35058,0.39573 z m 3.8633,-0.26139 c -0.10902,-0.28408 -0.42302,-0.37272 -0.42302,-0.11942 0,0.18942 0.1958,0.38809 0.38247,0.38809 0.079,0 0.0973,-0.1209 0.0405,-0.26867 z m 0.56214,-0.0896 c 0.0609,-0.0985 0.0253,-0.17912 -0.079,-0.17912 -0.10433,0 -0.18969,0.0806 -0.18969,0.17912 0,0.0985 0.0355,0.17912 0.079,0.17912 0.0434,0 0.1288,-0.0806 0.18969,-0.17912 z m -2.50767,-0.71648 c 0,-0.5106 -0.56535,-0.7271 -0.73618,-0.28192 -0.16296,0.42467 0.0676,0.85357 0.42218,0.78528 0.19829,-0.0382 0.314,-0.22368 0.314,-0.50336 z m 1.71772,0.2493 c 0.20312,-0.24475 0.18781,-0.32555 -0.10186,-0.53736 -0.42641,-0.3118 -0.48291,-0.3106 -0.90993,0.0194 -0.34418,0.26596 -0.34418,0.2714 0,0.53736 0.44608,0.3447 0.71388,0.33957 1.01179,-0.0194 z m 4.57048,-0.92661 c 0.0996,-0.49784 0.0725,-0.56604 -0.18541,-0.46707 -0.16787,0.0644 -0.25857,0.2291 -0.20421,0.37076 0.0538,0.14018 0.0214,0.20765 -0.072,0.14994 -0.18965,-0.11721 -0.90083,0.27233 -0.90083,0.49342 0,0.078 0.18136,0.21181 0.40302,0.29736 0.50726,0.1958 0.80352,-0.0649 0.95941,-0.84441 z m -1.57557,0.37686 c 0.0305,-0.21451 0.19175,-0.49662 0.35824,-0.62692 0.272,-0.21287 0.27777,-0.20511 0.0569,0.0766 -0.40881,0.52126 0.0101,0.3518 0.64032,-0.25904 0.79649,-0.772 0.82077,-1.27119 0.0415,-0.85416 -0.19056,0.10198 -0.34647,0.11498 -0.34647,0.0289 0,-0.0861 -0.48362,-0.16109 -1.07471,-0.16665 -1.00581,-0.009 -1.32371,0.13555 -0.88775,0.40499 0.10283,0.0635 0.31754,0.008 0.47712,-0.12377 0.26096,-0.21524 0.26816,-0.19803 0.0715,0.17102 l -0.21866,0.41034 -0.54969,-0.46253 c -0.59266,-0.49869 -0.96859,-0.50401 -0.92545,-0.0131 0.0162,0.18486 -0.0659,0.27086 -0.20707,0.2167 -0.29378,-0.11274 -0.88113,0.51357 -0.72243,0.77035 0.19128,0.3095 0.68757,0.23041 0.56462,-0.09 -0.0826,-0.21525 -0.0246,-0.25406 0.24952,-0.16705 0.21417,0.068 0.35711,0.0316 0.35711,-0.0909 0,-0.1123 0.21659,-0.0338 0.48133,0.17443 0.41284,0.32474 0.50271,0.34039 0.63165,0.11 0.0827,-0.14774 0.27297,-0.22156 0.42287,-0.16403 0.28263,0.10845 0.82777,-0.45517 0.67668,-0.69963 -0.0463,-0.075 0.0377,-0.13631 0.18675,-0.13631 0.21778,0 0.19347,0.1202 -0.12376,0.61202 -0.21713,0.33662 -0.53583,0.65148 -0.70823,0.69971 -0.1724,0.0482 -0.31346,0.22174 -0.31346,0.38558 0,0.46519 0.79299,0.27505 0.86157,-0.20657 z m -6.5094,-0.76385 c -0.0803,-0.20931 -0.0378,-0.20519 0.22177,0.0215 0.43726,0.38187 1.48965,0.38296 1.78997,0.002 0.20994,-0.26641 0.22502,-0.24376 0.1266,0.19015 -0.16051,0.70768 0.1521,0.61541 0.91028,-0.26867 l 0.65285,-0.76126 -0.53673,-0.15664 c -0.67587,-0.19724 -1.80287,0.004 -1.9339,0.34564 -0.0546,0.14234 -0.18741,0.2588 -0.29509,0.2588 -0.13098,0 -0.12464,-0.0711 0.0192,-0.21495 0.11822,-0.11821 0.21494,-0.27214 0.21494,-0.34205 0,-0.21022 -1.61056,-0.11858 -1.63076,0.0928 -0.13086,1.36912 -0.1063,1.50815 0.22935,1.29854 0.18202,-0.11368 0.28622,-0.32323 0.23155,-0.46568 z m 2.34564,0.29532 c 0.0673,-0.17665 0.16743,-0.27606 0.22257,-0.22091 0.0551,0.0551 1.2e-4,0.19968 -0.12229,0.32118 -0.17691,0.17558 -0.19748,0.15501 -0.10028,-0.10027 z m -0.30321,-0.88787 c -0.19186,-0.36005 -0.1842,-0.37782 0.0718,-0.16669 0.22844,0.1884 0.3706,0.1922 0.70102,0.0187 0.41296,-0.21682 0.41322,-0.21622 0.0732,0.16669 -0.43154,0.48601 -0.57887,0.48276 -0.84608,-0.0187 z"
       id="path10719" />
  </g>
</svg>
