<?xml version="1.0" encoding="UTF-8" standalone="no"?>
<!-- Created with Inkscape (http://www.inkscape.org/) -->

<svg
   width="190.61911mm"
   height="121.68107mm"
   viewBox="0 0 190.61911 121.68107"
   version="1.1"
   id="svg5"
   inkscape:version="1.1 (c4e8f9ed74, 2021-05-24)"
   sodipodi:docname="frame15.svg"
   xmlns:inkscape="http://www.inkscape.org/namespaces/inkscape"
   xmlns:sodipodi="http://sodipodi.sourceforge.net/DTD/sodipodi-0.dtd"
   xmlns="http://www.w3.org/2000/svg"
   xmlns:svg="http://www.w3.org/2000/svg">
  <sodipodi:namedview
     id="namedview7"
     pagecolor="#ffffff"
     bordercolor="#666666"
     borderopacity="1.0"
     inkscape:pageshadow="2"
     inkscape:pageopacity="0.0"
     inkscape:pagecheckerboard="0"
     inkscape:document-units="mm"
     showgrid="false"
     inkscape:zoom="0.94615212"
     inkscape:cx="4.7561062"
     inkscape:cy="279.55336"
     inkscape:window-width="2506"
     inkscape:window-height="1403"
     inkscape:window-x="1974"
     inkscape:window-y="0"
     inkscape:window-maximized="1"
     inkscape:current-layer="layer1" />
  <defs
     id="defs2" />
  <g
     inkscape:label="Layer 1"
     inkscape:groupmode="layer"
     id="layer1"
     transform="translate(-162.60667,-80.089816)">
    <path
       style="fill:#000000;stroke-width:0.264583"
       d="m 164.69671,201.51307 c -0.65485,-0.0765 -1.33741,-0.23112 -1.51682,-0.34353 -0.2313,-0.14493 -0.32027,-1.13827 -0.30585,-3.41477 0.0213,-3.36426 0.19516,-4.20636 1.05885,-5.12853 0.52212,-0.55748 0.52211,-0.56229 -0.005,-1.45521 -0.42683,-0.72346 -0.48449,-1.09122 -0.29963,-1.91081 0.18992,-0.842 0.14264,-1.1012 -0.2775,-1.52135 -0.56405,-0.56404 -0.66581,-1.56415 -0.20594,-2.02401 0.22426,-0.22426 0.1907,-0.41027 -0.1323,-0.73327 -0.80368,-0.80368 -0.36118,-3.11128 0.86424,-4.50696 0.62573,-0.71266 0.78446,-1.09548 0.65993,-1.59163 -0.0927,-0.36946 -0.0221,-0.8242 0.16257,-1.04671 0.42411,-0.51101 1.69102,-0.506 2.11792,0.008 0.41256,0.4971 0.19299,3.10271 -0.32752,3.88663 -0.31654,0.47674 -0.23632,0.77244 0.71091,2.62049 1.20032,2.34183 1.72917,2.65018 1.72917,1.0082 0,-0.83945 -0.17152,-1.25021 -0.7734,-1.85208 -0.42537,-0.42537 -0.96115,-0.7734 -1.19062,-0.7734 -0.22948,0 -0.41723,-0.11906 -0.41723,-0.26458 0,-0.14552 0.10614,-0.26459 0.23586,-0.26459 0.30657,0 1.08753,-1.95511 1.08543,-2.71733 -9e-4,-0.32448 -0.19882,-0.94715 -0.43983,-1.38371 -0.4019,-0.728 -0.43819,-3.80722 -0.43819,-37.17396 0,-33.36673 0.0363,-36.44595 0.43819,-37.17395 0.24101,-0.43656 0.43893,-1.05923 0.43983,-1.38371 0.002,-0.76222 -0.77886,-2.71733 -1.08543,-2.71733 -0.12972,0 -0.23586,-0.11907 -0.23586,-0.26459 0,-0.14552 0.18775,-0.26458 0.41723,-0.26458 0.22947,0 0.76525,-0.34803 1.19062,-0.7734 0.60188,-0.60187 0.7734,-1.01263 0.7734,-1.85208 0,-1.64198 -0.52885,-1.33363 -1.72917,1.0082 -0.94723,1.84805 -1.02745,2.14375 -0.71091,2.62049 0.52051,0.78392 0.74008,3.38953 0.32752,3.88663 -0.4269,0.51439 -1.69382,0.5194 -2.11792,0.008 -0.18467,-0.22252 -0.25529,-0.67725 -0.16257,-1.04671 0.12453,-0.49615 -0.0342,-0.87897 -0.65993,-1.59164 -1.22542,-1.39567 -1.66792,-3.70327 -0.86424,-4.50695 0.323,-0.323 0.35656,-0.50901 0.1323,-0.73327 -0.45987,-0.45987 -0.35811,-1.45997 0.20594,-2.02401 0.42014,-0.42015 0.46742,-0.67935 0.2775,-1.52135 -0.18486,-0.81959 -0.1272,-1.18735 0.29963,-1.91081 0.52681,-0.89292 0.52682,-0.89774 0.005,-1.45521 -0.86391,-0.9224 -1.03755,-1.7644 -1.05889,-5.13444 -0.0181,-2.86278 0.0331,-3.24489 0.46575,-3.47646 0.26736,-0.14308 1.81233,-0.32941 3.43327,-0.41405 3.15118,-0.16454 3.57788,-0.065 4.86444,1.13476 0.66711,0.62209 0.75922,0.64166 1.19063,0.25286 0.67017,-0.60397 1.69802,-0.79956 2.53317,-0.48204 0.59594,0.22658 0.81187,0.18467 1.23652,-0.23998 0.51413,-0.51413 0.81989,-0.55146 4.60782,-0.56259 1.13101,-0.003 1.41822,0.11617 2.26384,0.9419 0.83148,0.81191 1.08794,0.92181 1.81285,0.77683 1.69441,-0.33888 2.31017,1.34896 0.82224,2.25383 -0.92276,0.56117 -2.59746,0.48064 -3.60551,-0.17336 -0.52424,-0.34012 -0.66575,-0.32371 -1.33818,0.15509 -0.81786,0.58238 -2.37712,1.22208 -3.63184,1.49002 -2.09649,0.44769 -2.77812,0.71399 -2.77812,1.08535 0,0.21758 -0.41672,0.64147 -0.92604,0.94197 -0.52154,0.30772 -0.92605,0.75772 -0.92605,1.03021 0,0.5518 -1.11567,1.51847 -2.01222,1.74349 -0.3513,0.0882 -0.63729,0.38797 -0.68462,0.71769 -0.0447,0.31145 -0.4562,0.80627 -0.91443,1.0996 -0.64432,0.41245 -0.85584,0.75875 -0.93327,1.52793 -0.11448,1.13728 0.31264,1.20441 0.60915,0.0957 0.21541,-0.80542 0.70013,-1.48719 1.05737,-1.48719 0.39184,0 0.25713,0.72756 -0.16469,0.88943 -0.30119,0.11557 -0.39687,0.60501 -0.39687,2.03007 0,2.03601 -0.24714,2.74529 -1.24227,3.56521 -0.56409,0.46478 -0.6097,0.62489 -0.36291,1.27399 0.36692,0.96509 0.36187,2.97524 -0.009,3.66863 -0.41356,0.77274 -0.41356,73.21009 0,73.98283 0.37109,0.69339 0.37614,2.70354 0.009,3.66863 -0.24679,0.6491 -0.20118,0.80921 0.36291,1.27399 0.99513,0.81992 1.24227,1.5292 1.24227,3.56521 0,1.42506 0.0957,1.91449 0.39687,2.03007 0.42182,0.16187 0.55653,0.88943 0.16469,0.88943 -0.35724,0 -0.84196,-0.68176 -1.05737,-1.4872 -0.29651,-1.10868 -0.72363,-1.04155 -0.60915,0.0957 0.0774,0.76918 0.28895,1.11548 0.93327,1.52793 0.45823,0.29333 0.86972,0.78815 0.91443,1.0996 0.0473,0.32972 0.33332,0.62952 0.68462,0.71769 0.89655,0.22502 2.01222,1.19169 2.01222,1.74349 0,0.27248 0.40451,0.72249 0.92605,1.03021 0.50932,0.3005 0.92604,0.72439 0.92604,0.94197 0,0.37136 0.68163,0.63766 2.77812,1.08535 1.25472,0.26794 2.81398,0.90764 3.63184,1.49002 0.67243,0.4788 0.81394,0.49521 1.33818,0.15509 1.00805,-0.65401 2.68275,-0.73453 3.60551,-0.17336 1.48793,0.90486 0.87217,2.59271 -0.82224,2.25383 -0.72491,-0.14498 -0.98137,-0.0351 -1.81285,0.77683 -0.84561,0.82573 -1.13283,0.94522 -2.26384,0.9419 -3.78793,-0.0111 -4.09369,-0.0485 -4.60782,-0.56259 -0.42465,-0.42465 -0.64058,-0.46656 -1.23652,-0.23999 -0.83515,0.31753 -1.863,0.12194 -2.53317,-0.48203 -0.43141,-0.3888 -0.52352,-0.36924 -1.19063,0.25286 -0.39767,0.37085 -0.97987,0.80614 -1.29377,0.96733 -0.56138,0.28826 -3.30934,0.30253 -5.64698,0.0293 z m 6.26772,-1.09706 c 0.88415,-0.53105 2.40134,-2.87265 1.84959,-2.85463 -0.17165,0.006 -0.55023,0.38812 -0.84127,0.85002 -1.09805,1.74271 -3.08343,2.50699 -4.23334,1.62963 -0.49576,-0.37825 -0.49993,-0.42031 -0.0661,-0.66619 0.96882,-0.54914 0.36261,-1.54257 -0.6203,-1.01653 -0.46114,0.2468 -0.53822,0.46808 -0.41898,1.20286 0.12407,0.76459 0.0688,0.90043 -0.36641,0.90043 -0.2865,0 -0.51254,-0.18082 -0.51254,-0.41001 0,-0.50905 0.73876,-1.96979 0.99899,-1.97529 0.1054,-0.002 0.36258,-0.11222 0.5715,-0.24442 0.31481,-0.1992 0.32059,-0.31178 0.0338,-0.6574 -0.47872,-0.57683 -1.00626,-0.52147 -1.21214,0.12719 -0.1799,0.5668 -1.8475,1.52814 -2.14125,1.23439 -0.39158,-0.39159 0.16089,-0.99515 0.77079,-0.84207 0.67289,0.16888 1.41456,-0.44483 1.11782,-0.92496 -0.23563,-0.38127 -0.86529,-0.34693 -1.00042,0.0546 -0.20204,0.6003 -0.99112,-0.3312 -0.99112,-1.17001 0,-1.06095 0.62615,-2.18185 1.65337,-2.9598 1.05481,-0.79884 1.49341,-0.8989 2.20646,-0.50335 0.78934,0.43788 1.67258,0.12391 1.87057,-0.66493 0.22043,-0.87827 -0.18919,-1.49456 -1.06268,-1.59884 -0.53139,-0.0634 -0.76286,0.0657 -0.94873,0.52917 -0.21244,0.52972 -0.24561,0.46919 -0.24404,-0.44526 0.001,-0.75465 0.0593,-0.91153 0.20217,-0.54673 0.3433,0.87665 0.6044,-0.006 0.40585,-1.37227 -0.23289,-1.6023 -1.33089,-4.38513 -1.95199,-4.94721 -0.42381,-0.38355 -0.49575,-0.38668 -0.63356,-0.0276 -0.0864,0.22516 -0.0255,0.37715 0.13703,0.34215 0.36808,-0.0793 1.18608,1.27038 1.4051,2.31828 0.0913,0.43656 -0.10989,0.13891 -0.44698,-0.66146 -0.33708,-0.80036 -0.73088,-1.45703 -0.87512,-1.45926 -0.14423,-0.002 -0.42913,-0.10971 -0.63311,-0.23886 -0.25213,-0.15963 -0.48508,-0.0786 -0.7276,0.25306 -0.19621,0.26833 -0.35674,0.37084 -0.35674,0.2278 0,-0.14303 0.53813,-0.78819 1.19583,-1.43368 0.65771,-0.6455 1.13916,-1.32132 1.06989,-1.50183 -0.0693,-0.18051 -0.0121,-0.39857 0.12709,-0.48458 0.13916,-0.086 0.25303,-0.32393 0.25303,-0.52872 0,-0.28582 -0.23053,-0.24108 -0.99219,0.19257 -1.12024,0.6378 -2.18281,1.52668 -2.18281,1.826 0,0.10991 0.56554,-0.10095 1.25677,-0.46857 1.03582,-0.55088 1.14048,-0.5719 0.59531,-0.11954 -0.3638,0.30186 -0.80354,0.55149 -0.97719,0.55473 -0.44373,0.008 -1.13948,1.07283 -1.13948,1.74354 0,0.71895 0.9002,1.54039 1.51266,1.38031 0.38761,-0.1013 0.47172,0.0454 0.47172,0.8228 0,0.71236 -0.11567,0.95675 -0.46821,0.98927 -0.32709,0.0302 -0.34703,0.006 -0.0661,-0.0816 0.22113,-0.0686 0.40206,-0.29836 0.40206,-0.51054 0,-0.57448 -0.77665,-0.76424 -1.23833,-0.30256 -0.54027,0.54027 -0.22223,1.52089 0.49327,1.52089 0.44313,0 0.5069,0.10877 0.34901,0.59531 -0.47708,1.47014 -0.47013,2.66612 0.0176,3.02272 0.6953,0.50842 1.37539,0.43074 1.71047,-0.19536 0.21693,-0.40534 0.21098,-0.644 -0.0231,-0.92604 -0.43025,-0.51841 -0.97991,-0.47789 -1.1265,0.0831 -0.0895,0.34251 -0.12899,0.30534 -0.15169,-0.14283 -0.0169,-0.33322 0.20743,-1.07262 0.49847,-1.64311 0.29104,-0.57049 0.53671,-1.25035 0.54594,-1.51081 0.0379,-1.06875 0.44594,0.6288 0.63101,2.62483 0.18663,2.01285 0.1805,2.04223 -0.45987,2.20295 -0.35696,0.0896 -1.11082,0.63575 -1.67524,1.21369 l -1.02621,1.05079 -0.0348,3.1314 c -0.0191,1.72227 0.0593,3.28353 0.17415,3.46946 0.13877,0.22452 0.97535,0.35637 2.49096,0.39257 1.25511,0.03 2.35528,0.12776 2.44481,0.21729 0.2409,0.24089 1.42207,-0.0896 2.3832,-0.66693 z m -6.88508,-0.39538 c -0.33531,-0.3353 -0.17334,-0.60535 0.60422,-1.00744 1.04503,-0.54041 1.07171,-0.52607 0.7259,0.39008 -0.27787,0.73617 -0.91541,1.03207 -1.33012,0.61736 z m 3.64163,-8.58469 c -0.14208,-0.22989 -0.0623,-0.2716 0.27315,-0.14286 0.2606,0.1 0.65668,0.0309 0.88018,-0.15347 0.33599,-0.27723 0.38387,-0.26657 0.27647,0.0616 -0.1642,0.50167 -1.16344,0.66573 -1.4298,0.23475 z m -0.60125,-4.2035 c 0,-0.3638 0.06,-0.51263 0.13346,-0.33073 0.0734,0.1819 0.0734,0.47956 0,0.66146 -0.0734,0.1819 -0.13346,0.0331 -0.13346,-0.33073 z m 14.89328,13.19745 c 0.8196,-0.97405 1.56354,-2.34331 1.37538,-2.53147 -0.073,-0.073 -0.46875,0.24772 -0.87941,0.71276 -1.48843,1.68552 -1.68018,1.85015 -2.13571,1.83365 -0.34367,-0.0124 -0.30386,-0.0806 0.15445,-0.26425 0.66733,-0.26747 0.66118,-0.71296 -0.0157,-1.13994 -0.95218,-0.60062 -1.68703,0.95934 -0.84743,1.79894 0.66184,0.66184 1.58185,0.50135 2.34844,-0.40969 z m -3.7119,0.40028 c 0.23019,-0.0883 0.41852,-0.44552 0.41852,-0.79375 0,-0.46748 -0.14587,-0.63315 -0.55748,-0.63315 -0.38683,0 -0.51085,0.12148 -0.40518,0.39688 0.0838,0.21828 0.037,0.39687 -0.10398,0.39687 -0.38108,0 -0.30998,-0.68439 0.10706,-1.0305 0.19984,-0.16585 0.55702,-0.22722 0.79375,-0.13638 0.23673,0.0908 0.43041,0.0388 0.43041,-0.11574 0,-0.1545 -0.43227,-0.362 -0.9606,-0.46111 -0.7159,-0.13431 -1.25691,-0.0363 -2.12375,0.38488 -1.36511,0.66323 -2.09218,0.71759 -2.30151,0.1721 -0.12561,-0.32733 -0.0651,-0.33949 0.36196,-0.0728 0.39463,0.24645 0.58487,0.24814 0.82567,0.007 0.39137,-0.39136 -0.13676,-1.12905 -0.80833,-1.12905 -0.95492,0 -1.45893,1.36618 -0.76136,2.06375 0.35119,0.35119 1.90393,0.39443 2.71971,0.0757 0.38772,-0.15147 0.65027,-0.0436 1.01139,0.41547 0.51733,0.65769 0.68703,0.71528 1.35372,0.45945 z m 5.71153,-1.72507 c 0.56767,-0.85465 0.97037,-1.55391 0.89487,-1.55391 -0.52352,0 -1.22994,0.73019 -1.89586,1.95969 -1.03174,1.90491 -0.35034,1.62867 1.00099,-0.40578 z m -14.48504,-0.48551 c 0.18613,-1.29335 1.06378,-3.71424 1.34652,-3.71424 0.067,0 -0.10493,0.59659 -0.382,1.32576 -0.60505,1.59235 -0.67759,3.43674 -0.13518,3.43674 0.53682,0 0.687,-0.60665 0.51328,-2.07341 -0.094,-0.79334 -0.0337,-1.48945 0.15529,-1.79423 0.26194,-0.42242 0.28399,-0.36841 0.14528,0.35597 -0.20149,1.05229 0.0501,1.92417 0.55521,1.92417 0.41185,0 0.52655,-0.93594 0.14369,-1.17255 -0.12944,-0.08 -0.28507,-0.57138 -0.34584,-1.09195 -0.0837,-0.71686 0.005,-1.00858 0.36764,-1.20239 0.61736,-0.3304 0.62643,-1.6154 0.0151,-2.14042 -0.84275,-0.7238 -1.39166,-0.75699 -2.44958,-0.14814 -0.90702,0.52202 -1.1274,0.55291 -1.89029,0.26495 -0.561,-0.21175 -0.95396,-0.23557 -1.12156,-0.068 -0.56603,0.56603 0.76975,0.83314 2.35257,0.47044 l 0.79375,-0.18189 -0.79375,0.37407 c -0.91358,0.43054 -2.20756,0.49972 -2.76387,0.14776 -0.41429,-0.26211 -1.33717,0.0932 -1.33717,0.51476 0,0.59189 1.01074,0.77618 2.35071,0.4286 0.7444,-0.1931 1.35345,-0.31059 1.35345,-0.2611 0,0.26822 -2.06251,0.89083 -2.95103,0.89083 -0.69504,0 -1.08652,0.13602 -1.19344,0.41466 -0.48601,1.26651 1.52612,0.97623 3.87989,-0.55972 l 1.45521,-0.9496 -1.12858,1.01035 c -1.23104,1.10209 -1.34306,1.42221 -0.68795,1.9659 0.37957,0.31502 0.5929,0.18154 1.7453,-1.09208 l 1.31288,-1.45096 -1.21614,1.8167 c -0.90118,1.3462 -1.21614,2.0714 -1.21614,2.80017 0,1.93094 0.84001,1.75114 1.12673,-0.24118 z m 12.10244,0.42781 c 0,-0.51171 -0.76546,-1.13183 -2.15676,-1.74727 -1.30698,-0.57814 -4.6173,-1.35335 -4.83775,-1.1329 -0.29988,0.29988 0.19646,0.59021 1.00898,0.59021 0.90438,0 3.73611,0.75012 3.54671,0.93951 -0.0604,0.0604 -0.5186,-0.0118 -1.01828,-0.16041 -0.49969,-0.1486 -1.86102,-0.38278 -3.02519,-0.52039 -1.4867,-0.17574 -2.21616,-0.38609 -2.45096,-0.70678 -0.39204,-0.53544 -0.31333,-0.92795 0.21854,-1.08982 0.29411,-0.0895 0.31005,-0.041 0.0703,0.21414 -0.45612,0.4853 -0.12494,1.05916 0.61124,1.05916 1.1172,0 1.14492,-1.25062 0.0431,-1.9456 -0.28017,-0.17673 -0.66543,-0.15706 -1.19145,0.0608 -0.65582,0.27165 -0.75983,0.44171 -0.66505,1.08744 0.0618,0.42099 0.30824,0.93827 0.54767,1.1495 0.43134,0.38054 4.96785,1.26538 7.09792,1.38443 1.27726,0.0714 1.67179,0.25843 1.67179,0.79256 0,0.20969 0.11906,0.38126 0.26458,0.38126 0.14552,0 0.26458,-0.16014 0.26458,-0.35587 z m 4.6747,-0.0615 c 0.21413,-0.55804 -0.49386,-1.23489 -1.0632,-1.01641 -0.24816,0.0952 -0.57596,0.40627 -0.72846,0.6912 -0.25018,0.46748 -0.22362,0.48937 0.27194,0.22415 0.44501,-0.23816 0.54919,-0.21687 0.54919,0.11227 0,0.53378 0.76478,0.52494 0.97053,-0.0112 z m -19.49137,-2.75763 c 0,-0.14552 -0.0525,-0.26458 -0.11667,-0.26458 -0.0642,0 -0.19026,0.11906 -0.2802,0.26458 -0.0899,0.14552 -0.0374,0.26458 0.11667,0.26458 0.15411,0 0.2802,-0.11906 0.2802,-0.26458 z m -0.87759,-7.72253 c -0.0845,-0.21106 -0.14716,-0.14837 -0.15985,0.15986 -0.0115,0.27891 0.0511,0.43518 0.13896,0.34726 0.0879,-0.0879 0.0973,-0.31612 0.0209,-0.50712 z m 0.0986,-8.90501 c 0.65184,-0.52782 0.57666,-1.25529 -0.15888,-1.53755 -0.58376,-0.22401 -1.12234,0.33577 -0.71498,0.74312 0.20993,0.20993 0.22353,0.45756 0.0436,0.79375 -0.33776,0.63111 0.0513,0.63143 0.83025,8e-4 z m 0.35371,-76.32393 c 0.23848,-0.39044 0.17682,-0.57489 -0.33169,-0.99219 -0.79572,-0.653 -1.19493,-0.66422 -0.85227,-0.0239 0.17618,0.32919 0.16947,0.58066 -0.0206,0.77069 -0.36595,0.36595 -0.0273,0.91006 0.50157,0.80584 0.2255,-0.0444 0.54182,-0.29661 0.70294,-0.56039 z m 0.0193,-1.6918 c -0.11369,-0.26094 -0.18832,-0.59885 -0.16584,-0.75092 0.0225,-0.15206 -0.49452,-0.80193 -1.14889,-1.44415 -0.65438,-0.64222 -1.18977,-1.2847 -1.18977,-1.42773 0,-0.14304 0.16571,-0.0335 0.36824,0.24354 0.32722,0.4475 0.42018,0.4605 0.83442,0.11671 0.25639,-0.21279 0.53611,-0.32735 0.6216,-0.25459 0.0855,0.0728 0.43123,-0.52256 0.76831,-1.32292 0.33708,-0.80037 0.53822,-1.09802 0.44698,-0.66146 -0.21902,1.04791 -1.03702,2.39753 -1.4051,2.31828 -0.16256,-0.035 -0.22343,0.11699 -0.13703,0.34215 0.13781,0.35913 0.20974,0.356 0.63356,-0.0275 0.6211,-0.56208 1.7191,-3.34492 1.95199,-4.94721 0.19855,-1.36606 -0.0625,-2.24892 -0.40585,-1.37227 -0.14286,0.3648 -0.20087,0.20792 -0.20217,-0.54673 -0.002,-0.91445 0.0316,-0.97498 0.24403,-0.44526 0.18587,0.46349 0.41735,0.5926 0.94873,0.52917 0.87349,-0.10428 1.28312,-0.72057 1.06269,-1.59884 -0.19799,-0.78884 -1.08123,-1.10281 -1.87057,-0.66494 -0.71306,0.39556 -1.15166,0.2955 -2.20646,-0.50334 -1.02722,-0.77795 -1.65337,-1.89885 -1.65337,-2.9598 0,-0.83881 0.78907,-1.77031 0.99112,-1.17001 0.13512,0.40148 0.76478,0.43582 1.00042,0.0546 0.29674,-0.48013 -0.44494,-1.09384 -1.11782,-0.92496 -0.60991,0.15308 -1.16238,-0.45048 -0.77079,-0.84207 0.29375,-0.29375 1.96135,0.66759 2.14125,1.23439 0.20587,0.64866 0.73342,0.70402 1.21214,0.12719 0.28684,-0.34562 0.28106,-0.4582 -0.0337,-0.6574 -0.20893,-0.13221 -0.4661,-0.24219 -0.57151,-0.24442 -0.26022,-0.005 -0.99898,-1.46624 -0.99898,-1.97529 0,-0.22919 0.22604,-0.41001 0.51253,-0.41001 0.43521,0 0.49049,0.13584 0.36642,0.90043 -0.11924,0.73478 -0.0422,0.95606 0.41897,1.20286 0.98292,0.52604 1.58913,-0.46739 0.62031,-1.01653 -0.43379,-0.24588 -0.42961,-0.28794 0.0661,-0.66619 1.14991,-0.87735 3.13529,-0.11308 4.23334,1.62963 0.82423,1.30812 1.2502,1.03345 0.49441,-0.3188 -0.73984,-1.32373 -2.06527,-2.27486 -3.18614,-2.28639 -2.65746,-0.0273 -5.44914,0.24189 -5.63556,0.54351 -0.11491,0.18593 -0.19328,1.74719 -0.17415,3.46946 l 0.0348,3.1314 1.02621,1.05079 c 0.56442,0.57794 1.31828,1.12409 1.67524,1.21369 0.64037,0.16072 0.6465,0.1901 0.45987,2.20295 -0.18507,1.99603 -0.59316,3.69358 -0.63101,2.62483 -0.009,-0.26046 -0.2549,-0.94032 -0.54594,-1.51081 -0.29104,-0.57049 -0.51535,-1.30989 -0.49847,-1.64311 0.0227,-0.44817 0.0622,-0.48534 0.15169,-0.14283 0.14659,0.56095 0.69625,0.60148 1.1265,0.0831 0.23406,-0.28203 0.24001,-0.5207 0.0231,-0.92604 -0.33508,-0.6261 -1.01517,-0.70378 -1.71047,-0.19536 -0.48769,0.3566 -0.49463,1.55258 -0.0176,3.02272 0.15789,0.48654 0.0941,0.59531 -0.34901,0.59531 -0.7155,0 -1.03354,0.98062 -0.49327,1.52089 0.46168,0.46168 1.23833,0.27192 1.23833,-0.30256 0,-0.21218 -0.18092,-0.44192 -0.40206,-0.51054 -0.28088,-0.0872 -0.26094,-0.11175 0.0661,-0.0816 0.35254,0.0325 0.46821,0.27691 0.46821,0.98927 0,0.7774 -0.0841,0.9241 -0.47172,0.8228 -0.61246,-0.16008 -1.51266,0.66136 -1.51266,1.38031 0,0.67071 0.69575,1.73527 1.13949,1.74354 0.17365,0.003 0.61338,0.25287 0.97718,0.55473 0.54517,0.45236 0.44051,0.43134 -0.59531,-0.11955 -2.03565,-1.08263 -1.3113,0.0707 0.81168,1.29239 1.09359,0.62932 1.26394,0.61725 0.96521,-0.0684 z m 0.71228,-6.95673 c 0,-0.3638 0.06,-0.51263 0.13345,-0.33073 0.0734,0.1819 0.0734,0.47956 0,0.66146 -0.0734,0.1819 -0.13345,0.0331 -0.13345,-0.33073 z m 1.68224,-3.96191 c -0.0996,-0.16112 -0.42407,-0.21582 -0.72109,-0.12155 -0.36009,0.11429 -0.47971,0.0738 -0.35899,-0.12152 0.23088,-0.37358 1.12269,-0.38067 1.35131,-0.0108 0.0959,0.15521 0.11487,0.34172 0.0421,0.41448 -0.0728,0.0728 -0.21376,4.8e-4 -0.31334,-0.16066 z m -4.18779,-7.83967 c -0.81621,-0.44247 -0.82842,-0.98733 -0.0248,-1.10715 0.36297,-0.0541 0.60133,0.15838 0.81619,0.72761 0.34261,0.90768 0.25785,0.94834 -0.79139,0.37954 z m 1.32159,10.16447 c -0.0845,-0.21106 -0.14715,-0.14837 -0.15985,0.15986 -0.0115,0.27891 0.051,0.43518 0.13897,0.34726 0.0879,-0.0879 0.0973,-0.31612 0.0209,-0.50712 z m 5.97083,-3.59456 c 0.61117,-0.53669 0.60215,-1.819 -0.0151,-2.14935 -0.36214,-0.19381 -0.45133,-0.48553 -0.36764,-1.20239 0.0608,-0.52057 0.2164,-1.01195 0.34584,-1.09195 0.38286,-0.23661 0.26816,-1.17255 -0.14369,-1.17255 -0.50513,0 -0.7567,0.87187 -0.55521,1.92417 0.13871,0.72438 0.11666,0.77839 -0.14528,0.35597 -0.189,-0.30478 -0.24925,-1.00089 -0.15529,-1.79423 0.17372,-1.46676 0.0235,-2.07341 -0.51328,-2.07341 -0.54241,0 -0.46986,1.84439 0.13518,3.43674 0.27707,0.72917 0.44896,1.32576 0.382,1.32576 -0.28483,0 -1.16105,-2.42553 -1.34966,-3.73612 -0.25666,-1.78341 -0.94832,-2.00846 -1.07023,-0.34823 -0.0667,0.90818 0.11179,1.35989 1.14999,2.91042 l 1.22893,1.83538 -1.31287,-1.45096 c -1.15241,-1.27362 -1.36573,-1.4071 -1.74531,-1.09208 -0.65511,0.54369 -0.54309,0.86381 0.68796,1.9659 l 1.12857,1.01035 -1.45521,-0.9496 c -2.35377,-1.53595 -4.3659,-1.82623 -3.87989,-0.55972 0.10692,0.27864 0.4984,0.41466 1.19344,0.41466 0.88852,0 2.95104,0.62261 2.95104,0.89083 0,0.0495 -0.60906,-0.068 -1.35346,-0.2611 -1.33997,-0.34758 -2.35071,-0.16329 -2.35071,0.4286 0,0.42159 0.92288,0.77687 1.33717,0.51476 0.55631,-0.35196 1.85029,-0.28278 2.76387,0.14776 l 0.79375,0.37407 -0.79375,-0.18189 c -1.58282,-0.3627 -2.91859,-0.0956 -2.35257,0.47044 0.1676,0.1676 0.56112,0.14357 1.12315,-0.0686 0.76381,-0.2883 0.97948,-0.25871 1.84104,0.25267 1.02313,0.60729 1.70084,0.573 2.49724,-0.12633 z m 2.16499,-2.42156 c 0.61037,-0.67444 0.43538,-1.4524 -0.35184,-1.56419 -0.75886,-0.10776 -1.17898,0.45075 -0.73969,0.98335 0.25164,0.30508 0.23852,0.35715 -0.0647,0.25692 -0.53258,-0.17603 -0.60992,-0.56524 -0.21854,-1.09978 0.2348,-0.32069 0.96426,-0.53104 2.45096,-0.70678 1.16417,-0.13761 2.5255,-0.37179 3.02519,-0.52039 0.49968,-0.1486 0.95791,-0.22079 1.01828,-0.16041 0.18618,0.18617 -2.63488,0.93951 -3.51823,0.93951 -0.86788,0 -1.25862,0.19874 -1.05106,0.53457 0.3283,0.53121 5.46622,-1.07327 6.53543,-2.04089 0.5119,-0.46326 0.6354,-1.13951 0.2081,-1.13951 -0.14552,0 -0.26458,0.17157 -0.26458,0.38126 0,0.53413 -0.39453,0.72117 -1.67179,0.79256 -2.13007,0.11905 -6.66658,1.00389 -7.09792,1.38443 -0.69847,0.61621 -0.76197,1.85175 -0.1114,2.16759 0.8381,0.40689 1.34694,0.34967 1.85183,-0.20824 z m -7.25822,-1.3426 c 0,-0.14552 -0.12609,-0.26458 -0.2802,-0.26458 -0.15411,0 -0.20662,0.11906 -0.11668,0.26458 0.0899,0.14552 0.21603,0.26458 0.2802,0.26458 0.0642,0 0.11668,-0.11906 0.11668,-0.26458 z m 17.19926,-2.87682 c -1.34984,-2.03222 -2.03336,-2.31185 -1.00358,-0.41057 0.69393,1.2812 1.31026,1.93309 1.8497,1.95643 0.10231,0.004 -0.27845,-0.69122 -0.84612,-1.54586 z m -9.25246,0.88123 c 0.50989,-0.61437 -0.0949,-1.15392 -0.79987,-0.71364 -0.42708,0.26672 -0.48757,0.25456 -0.36196,-0.0728 0.20933,-0.54549 0.9364,-0.49113 2.30151,0.1721 0.86684,0.42114 1.40785,0.51919 2.12375,0.38488 0.52833,-0.0991 0.9606,-0.30661 0.9606,-0.46111 0,-0.1545 -0.19368,-0.20658 -0.43041,-0.11574 -0.23673,0.0908 -0.59391,0.0295 -0.79375,-0.13638 -0.41704,-0.34611 -0.48814,-1.0305 -0.10706,-1.0305 0.14095,0 0.18775,0.17859 0.10398,0.39687 -0.10567,0.2754 0.0183,0.39688 0.40518,0.39688 0.79569,0 0.77721,-1.21752 -0.0223,-1.47128 -0.43105,-0.13681 -0.7234,-0.0171 -1.13946,0.4666 -0.40994,0.47659 -0.69719,0.59679 -1.07383,0.44938 -0.80698,-0.31585 -2.36065,-0.27054 -2.71024,0.079 -0.17462,0.17462 -0.3175,0.56753 -0.3175,0.87312 0,1.09234 1.18932,1.59234 1.86139,0.78254 z m 8.35419,-0.59394 c -1.12035,-2.16651 -2.4978,-2.97378 -3.4498,-2.02178 -0.8396,0.8396 -0.10475,2.39956 0.84743,1.79894 0.6769,-0.42698 0.68305,-0.87247 0.0157,-1.13994 -0.45831,-0.18369 -0.49812,-0.2518 -0.15445,-0.26425 0.45553,-0.0165 0.64728,0.14813 2.13571,1.83365 0.88273,0.99962 1.17719,0.89912 0.60539,-0.20662 z m 3.01079,0.60852 c 0.17962,-0.21642 0.25747,-0.57361 0.173,-0.79375 -0.20081,-0.52328 -0.96395,-0.51858 -0.96395,0.006 0,0.32914 -0.10418,0.35043 -0.54919,0.11227 -0.49743,-0.26622 -0.52266,-0.24433 -0.26762,0.23221 0.25265,0.47207 0.64112,0.75632 1.11514,0.81595 0.0913,0.0115 0.313,-0.15619 0.49262,-0.37262 z m 147.42232,117.71262 c -0.33017,-0.23126 -0.75972,-0.35931 -0.95454,-0.28455 -0.19482,0.0748 -0.68603,-0.2104 -1.09158,-0.63371 -0.62764,-0.65511 -0.87876,-0.74702 -1.68762,-0.61768 -0.75805,0.12122 -1.05478,0.0365 -1.46705,-0.41911 -0.47398,-0.52374 -0.4839,-0.62985 -0.11969,-1.28058 0.36178,-0.6464 0.55762,-0.71654 2.20109,-0.78838 1.31368,-0.0574 1.97956,0.0362 2.45002,0.34446 0.61035,0.39992 0.68868,0.38743 1.41771,-0.226 0.89585,-0.75382 2.43664,-1.35393 4.50284,-1.75378 1.09886,-0.21265 1.52544,-0.4286 1.71979,-0.87063 0.14216,-0.32332 0.59252,-0.74688 1.00079,-0.94124 0.40828,-0.19437 0.84213,-0.61162 0.96412,-0.92722 0.28327,-0.73287 1.29304,-1.65033 2.07903,-1.88896 0.33576,-0.10194 0.72032,-0.47428 0.85458,-0.82742 0.13427,-0.35314 0.52712,-0.77101 0.87302,-0.92862 0.5199,-0.23688 0.68701,-0.61464 0.96414,-2.17955 0.34407,-1.94286 1.23103,-4.0417 1.96564,-4.65138 0.37263,-0.30925 0.35828,-0.42259 -0.1425,-1.12587 -0.79035,-1.10995 -0.80209,-3.20245 -0.0223,-3.9822 0.47812,-0.47812 0.69672,-0.53043 1.30743,-0.31286 0.65281,0.23257 0.73331,0.3909 0.73331,1.44215 0,0.97447 0.14471,1.32204 0.82787,1.9884 0.94898,0.92565 1.4291,3.08356 0.90427,4.06421 -0.20444,0.382 -0.21255,0.70732 -0.0263,1.0553 0.3168,0.59194 -0.0903,2.02464 -0.63464,2.23353 -0.27466,0.10539 -0.28661,0.3596 -0.0573,1.21867 0.24595,0.92143 0.21468,1.22488 -0.20691,2.00772 -0.49165,0.91293 -0.49101,0.92822 0.0632,1.51812 0.80902,0.86117 1.4363,2.50682 1.2151,3.1878 -0.10289,0.31674 -0.16191,1.5524 -0.13116,2.7459 0.0491,1.90763 -0.0126,2.23851 -0.51052,2.73644 -0.39437,0.39438 -0.73983,0.513 -1.13728,0.39052 -0.31396,-0.0968 -0.68991,-0.16233 -0.83543,-0.14572 -0.14552,0.0166 -1.35353,0.055 -2.68446,0.0853 -2.36977,0.054 -2.44205,0.0373 -3.49022,-0.80479 -1.06344,-0.85435 -1.63054,-1.07256 -1.63054,-0.62741 0,0.51683 -1.51077,0.87191 -2.5219,0.59272 -0.90299,-0.24933 -1.03696,-0.21576 -1.50289,0.37658 -0.55174,0.70142 -1.23976,0.83617 -1.73594,0.33998 -0.23738,-0.23738 -0.47043,-0.23738 -0.99141,0 -0.93377,0.42545 -1.74908,0.38896 -2.46167,-0.11015 z m 2.08746,-0.38259 c 1.00701,-0.53894 0.3921,-2.27597 -0.72925,-2.06002 -0.72626,0.13986 -0.74968,0.97369 -0.0354,1.26007 0.54746,0.21949 0.55687,0.24748 0.0858,0.25501 -0.29105,0.005 -0.75787,-0.30506 -1.0374,-0.68824 -0.27952,-0.38318 -0.38231,-0.61888 -0.22841,-0.52377 0.15389,0.0951 0.42694,-0.004 0.60677,-0.22103 0.44263,-0.53334 1.84966,-0.52404 1.84966,0.0122 0,0.3071 0.11461,0.34484 0.46985,0.15472 0.58522,-0.31319 1.38223,0.0867 1.38223,0.69343 0,0.37507 -0.0489,0.36741 -0.35861,-0.0561 -0.43807,-0.5991 -1.22889,-0.37214 -1.22889,0.35268 0,1.01377 1.74258,1.15283 2.11667,0.1689 0.29633,-0.77941 0.21831,-0.76434 1.40031,-0.27047 0.71375,0.29822 1.12441,0.32522 1.73089,0.1138 0.99614,-0.34725 1.23246,-0.92793 0.70516,-1.73269 -0.46877,-0.71543 -1.23509,-0.81121 -1.729,-0.21609 -0.48221,0.58103 0.0785,1.14176 0.65955,0.65955 0.28903,-0.23988 0.40809,-0.24962 0.40809,-0.0334 0,0.61096 -0.88887,0.62254 -1.98123,0.0258 -0.86625,-0.47321 -1.37971,-0.57881 -2.28035,-0.46901 l -1.16238,0.14172 0.85295,-0.3643 c 0.46911,-0.20037 1.83833,-0.43607 3.0427,-0.52378 l 2.18977,-0.15947 0.60458,1.08582 c 0.78627,1.41212 2.36045,2.45808 3.68038,2.4454 5.77029,-0.0554 6.14381,-0.14459 5.81824,-1.38957 -0.0801,-0.30646 -0.0172,-0.83935 0.13996,-1.1842 0.21241,-0.46618 0.20172,-0.72816 -0.0417,-1.02146 -0.25132,-0.30282 -0.25797,-0.60479 -0.0286,-1.29971 0.39932,-1.20996 -0.23339,-2.81289 -1.53323,-3.88433 -0.52523,-0.43295 -0.78838,-0.78717 -0.58478,-0.78717 1.1896,0 1.69355,-1.71976 0.93422,-3.18814 -0.3487,-0.6743 -0.35127,-0.78061 -0.0189,-0.78061 0.4132,0 1.21632,-0.69193 1.21632,-1.04792 0,-0.11901 -0.2094,-0.47497 -0.46534,-0.79104 -0.51472,-0.63566 -1.38675,-0.51519 -1.38675,0.19157 0,0.22697 -0.0704,0.34227 -0.15645,0.25622 -0.37363,-0.37364 0.2172,-1.25466 0.84142,-1.25466 0.82286,0 1.3187,-0.98249 1.025,-2.03101 -0.1151,-0.41092 -0.18512,-0.85027 -0.15561,-0.97634 0.0892,-0.38111 -0.71486,-1.44021 -1.21658,-1.6024 -0.60485,-0.19553 -1.24512,-1.47567 -0.73806,-1.47567 0.53008,0 0.68114,-0.71545 0.23009,-1.08979 -0.57106,-0.47394 -1.28779,0.0461 -1.27458,0.92488 0.006,0.38174 -0.0906,0.69408 -0.21406,0.69408 -0.12346,0 -0.14669,0.12586 -0.0516,0.2797 0.0951,0.15383 0.20743,0.59465 0.24969,0.97959 0.0423,0.38494 0.43815,1.02273 0.87976,1.41731 0.44162,0.39458 0.73316,0.78721 0.64787,0.87249 -0.0853,0.0853 0.0136,0.16344 0.21976,0.17367 0.44541,0.0221 -0.5032,0.46436 -1.05525,0.49197 -0.27997,0.014 -0.25352,-0.11202 0.10716,-0.51057 0.66491,-0.73472 0.0909,-0.66855 -0.60242,0.0694 -0.8951,0.95279 -1.65186,2.94925 -1.8264,4.81839 -0.12153,1.30148 -0.26073,1.72675 -0.56517,1.72675 -0.62857,0 -1.37164,0.81055 -1.37164,1.49621 0,0.50644 -0.13923,0.62045 -0.75767,0.62045 -0.93294,0 -2.15275,1.14485 -2.15275,2.02046 0,0.48681 -0.14323,0.62538 -0.64645,0.62538 -0.74098,0 -1.50677,0.91978 -1.273,1.52898 0.0865,0.22545 0.0478,0.34335 -0.0861,0.26201 -0.87661,-0.53263 -6.11768,1.20111 -6.86763,2.27182 l -0.37646,0.53747 -0.61775,-0.58035 c -0.75128,-0.7058 -1.36748,-0.76919 -1.14047,-0.11733 0.15357,0.44097 0.14408,0.44097 -0.1993,0 -0.41574,-0.5339 -1.37385,-0.65339 -1.06079,-0.13229 0.13696,0.22796 0.0607,0.21878 -0.24553,-0.0296 -0.27199,-0.22059 -0.70868,-0.2939 -1.1263,-0.18908 -0.96979,0.2434 -0.81131,1.30906 0.21218,1.42683 0.40018,0.046 0.7276,-0.0433 0.7276,-0.19844 0,-0.54831 0.63418,-0.27092 1.47211,0.64389 1.13959,1.24413 1.64409,1.20738 0.90796,-0.0662 -0.51285,-0.88726 -0.23907,-0.67311 0.618,0.48341 0.68779,0.92809 1.70514,1.22989 2.57558,0.76405 z m 10.16906,-0.69418 c -0.90015,-0.47371 -2.24896,-1.66831 -2.24896,-1.99184 0,-0.1183 0.1786,-0.21509 0.39688,-0.21509 0.40863,0 0.49869,-0.34687 0.4465,-1.71979 l -0.0302,-0.79375 0.24376,0.77166 c 0.13406,0.42441 0.17335,1.28527 0.0873,1.91301 -0.1275,0.9302 -0.0716,1.17392 0.30239,1.31741 0.65145,0.24999 0.90458,-0.3211 0.64239,-1.44926 -0.32292,-1.38946 -0.25257,-1.63954 0.1599,-0.56844 0.19614,0.50932 0.36568,1.23888 0.37675,1.62125 0.0265,0.91484 0.62562,1.43793 1.05475,0.92086 0.34276,-0.413 0.17691,-1.4295 -0.42945,-2.63217 -0.35965,-0.71333 -0.35155,-0.74283 0.15942,-0.58065 0.62426,0.19813 1.61666,-0.25414 1.61666,-0.73677 0,-0.18178 -0.33063,-0.52582 -0.73473,-0.76453 -0.4041,-0.23871 -0.96965,-0.69874 -1.25677,-1.02229 -0.34522,-0.38902 -0.006,-0.2481 1.00174,0.41604 1.08849,0.71742 1.90099,1.04056 2.84427,1.1312 1.36069,0.13075 1.53712,0.26625 1.02,0.78338 -0.22427,0.22427 -0.39917,0.20182 -0.68949,-0.0885 -0.31914,-0.31913 -0.46255,-0.32796 -0.79849,-0.0491 -0.22522,0.18692 -0.6111,0.30569 -0.85751,0.26395 -0.2464,-0.0418 -0.58738,0.092 -0.75773,0.29728 -0.24688,0.29748 -0.17571,0.46099 0.35087,0.80601 0.81512,0.53409 1.51757,1.83594 1.29858,2.40664 -0.25954,0.67635 -0.76493,0.28656 -0.70194,-0.54137 0.0592,-0.77856 -0.55298,-1.70201 -1.12838,-1.70201 -0.56209,0 -0.69183,0.83465 -0.19033,1.22442 0.44102,0.34276 0.43209,0.39353 -0.15701,0.89243 -0.74258,0.62889 -0.97747,0.63936 -2.02121,0.0901 z m 4.94294,-0.75172 c -0.16576,-0.3638 -0.21137,-0.66146 -0.10135,-0.66146 0.41602,0 1.37847,0.84049 1.23264,1.07644 -0.28033,0.45358 -0.8269,0.25308 -1.13129,-0.41498 z m -0.24658,-1.45237 c -0.47295,-0.28832 -0.8599,-0.59253 -0.8599,-0.67602 0,-0.0835 0.14711,-0.0609 0.32692,0.0503 0.17981,0.11113 0.72625,0.16764 1.21432,0.12559 0.72468,-0.0624 0.87093,0.009 0.79756,0.38696 -0.13088,0.67509 -0.50969,0.70409 -1.4789,0.11322 z m -12.63386,-0.89714 c 0.72761,-0.1996 2.03284,-0.46699 2.90052,-0.5942 1.37876,-0.20213 1.59707,-0.31466 1.73198,-0.89275 0.12253,-0.52503 0.18903,-0.57126 0.32245,-0.22415 0.33416,0.86938 -0.40101,1.33352 -2.46016,1.5532 -1.08109,0.11533 -2.38234,0.2797 -2.89166,0.36526 -0.50933,0.0856 -0.33073,-0.008 0.39687,-0.20736 z m 5.16526,0.1667 c 0.003,-0.10914 0.24853,-0.49609 0.54509,-0.8599 l 0.53921,-0.66145 -0.41959,0.85989 c -0.39873,0.81713 -0.67755,1.09459 -0.66471,0.66146 z m 7.00558,-2.59395 c -1.58948,-0.33378 -3.04271,-0.8108 -3.04271,-0.99876 0,-0.0551 0.62126,0.0611 1.38057,0.25803 0.75932,0.19696 1.58573,0.35812 1.83647,0.35812 0.66297,0 0.87749,-0.51678 0.40899,-0.98528 -0.32138,-0.32138 -0.56939,-0.34814 -1.19737,-0.12923 -0.48036,0.16745 -1.17438,0.18988 -1.76361,0.057 -1.45525,-0.32822 -1.36585,-0.45546 0.22718,-0.32335 1.45546,0.12069 1.88876,-0.089 1.49622,-0.72414 -0.1845,-0.29853 -0.38479,-0.28291 -1.17387,0.0915 -0.6925,0.32861 -1.07723,0.37819 -1.41373,0.18219 -0.39439,-0.22973 -0.35489,-0.27047 0.26888,-0.27733 0.40216,-0.004 0.96684,-0.15521 1.25486,-0.33508 0.42839,-0.26754 0.65637,-0.24829 1.25318,0.10579 0.82018,0.4866 2.29881,2.4133 2.14966,2.80108 -0.0598,0.15557 -0.70778,0.12458 -1.68472,-0.0806 z m -3.175,-3.29303 c -0.0899,-0.14552 0.0816,-0.26458 0.38126,-0.26458 0.29963,0 0.54478,-0.13891 0.54478,-0.30868 0,-0.16978 0.0765,-0.23219 0.16999,-0.13869 0.19198,0.19197 -0.38323,0.97653 -0.71594,0.97653 -0.11911,0 -0.29016,-0.11906 -0.38009,-0.26458 z m 2.44739,-0.18238 c -0.25466,-0.0666 -0.46302,-0.30932 -0.46302,-0.53949 0,-0.36145 0.0721,-0.35321 0.52917,0.0604 0.45006,0.4073 0.69214,0.73708 0.46302,0.63077 -0.0364,-0.0169 -0.27451,-0.0851 -0.52917,-0.15169 z m -1.52135,-1.15615 c 0,-0.15411 0.11906,-0.20662 0.26458,-0.11668 0.14552,0.0899 0.26458,0.21603 0.26458,0.2802 0,0.0642 -0.11906,0.11668 -0.26458,0.11668 -0.14552,0 -0.26458,-0.12609 -0.26458,-0.2802 z m 2.51354,0.0156 c 0.0899,-0.14552 0.21603,-0.26458 0.2802,-0.26458 0.0642,0 0.11667,0.11906 0.11667,0.26458 0,0.14552 -0.12609,0.26458 -0.28019,0.26458 -0.15411,0 -0.20662,-0.11906 -0.11668,-0.26458 z m -1.06523,-2.24169 c 0.0983,-0.86912 0.29645,-1.76209 0.44027,-1.98437 0.19259,-0.29767 0.2202,-0.20965 0.1048,0.33404 -0.099,0.4665 0.0409,1.18488 0.38017,1.95186 0.29528,0.66752 0.53686,1.2283 0.53686,1.24619 0,0.0179 -0.3692,0.0325 -0.82044,0.0325 h -0.82044 z m 1.85898,-1.46247 c 0.72826,-0.31295 0.98716,-0.31295 0.79375,0 -0.0899,0.14552 -0.42439,0.25621 -0.74322,0.24598 -0.5589,-0.0179 -0.56071,-0.0267 -0.0505,-0.24598 z m -1.19063,-1.29169 c 0,-0.14552 0.11907,-0.33817 0.26459,-0.4281 0.14552,-0.0899 0.26458,-0.0445 0.26458,0.10106 0,0.14552 -0.11906,0.33817 -0.26458,0.4281 -0.14552,0.0899 -0.26459,0.0445 -0.26459,-0.10106 z m 1.60839,-1.50849 c 0.0127,-0.30822 0.0754,-0.37091 0.15985,-0.15985 0.0764,0.191 0.067,0.4192 -0.0209,0.50712 -0.0879,0.0879 -0.15045,-0.0683 -0.13897,-0.34727 z m -11.46963,14.54657 c -0.0879,-0.0879 -0.31612,-0.0973 -0.50712,-0.0209 -0.21106,0.0845 -0.14837,0.14715 0.15986,0.15985 0.27891,0.0115 0.43518,-0.0511 0.34726,-0.13897 z m -152.50621,1.10926 c 0.0968,-0.25221 0.0691,-0.65831 -0.0615,-0.90242 -0.22197,-0.4149 4.34256,-0.44386 69.96741,-0.44386 h 70.20488 l -0.0503,0.72708 -0.0503,0.72708 -69.45312,0.004 c -38.19922,0.002 -69.7411,0.0812 -70.09307,0.17534 -0.53119,0.14211 -0.61003,0.0933 -0.46397,-0.28736 z m -5.90755,-2.12656 c 0,-0.48074 -1.49228,-1.6353 -2.40936,-1.86409 -0.46146,-0.11512 -0.82718,-0.0344 -1.10558,0.24398 -0.5211,0.52111 -0.71839,0.52636 -0.71839,0.0191 0,-0.27444 -0.27568,-0.39687 -0.89364,-0.39687 -0.49151,0 -1.04426,-0.18147 -1.22833,-0.40327 -0.40587,-0.48904 -0.11417,-0.88037 0.32721,-0.43899 0.1771,0.17709 1.06586,0.31352 2.04612,0.31408 1.82622,0.001 3.13727,0.53801 4.00504,1.64036 0.39805,0.50565 0.46289,0.51125 1.24363,0.10751 1.0187,-0.52679 2.93217,-0.55294 3.65038,-0.0499 0.46055,0.32258 10.50991,0.37945 70.66697,0.3999 69.46726,0.0236 70.14103,0.0189 71.2902,-0.50254 1.40158,-0.63594 2.3169,-0.6698 3.60109,-0.13324 0.84354,0.35246 0.99654,0.35512 1.18376,0.0206 0.51047,-0.91216 1.96117,-1.48367 3.76609,-1.48367 0.97466,0 2.0126,-0.12871 2.30654,-0.28602 0.29394,-0.15731 0.61334,-0.20711 0.70979,-0.11066 0.29162,0.29162 -0.80042,0.92585 -1.59417,0.92585 -0.40875,0 -0.74318,0.12007 -0.74318,0.26682 0,0.16585 -0.18431,0.15172 -0.48705,-0.0374 -0.78386,-0.48952 -2.32369,-0.0469 -3.32685,0.95624 -0.80264,0.80263 -0.94654,0.85716 -1.38517,0.52486 -0.66436,-0.50333 -3.50514,-0.49134 -4.17806,0.0176 -0.76584,0.57927 -140.95106,0.57096 -141.96454,-0.008 -0.93871,-0.53662 -2.36334,-0.48385 -3.57187,0.13229 -1.23864,0.63149 -1.19063,0.62562 -1.19063,0.14576 z m 163.77709,-8.46452 c 0,-0.20969 0.10362,-0.4453 0.23026,-0.52357 0.12665,-0.0783 0.28583,-1.1022 0.35375,-2.2754 0.11616,-2.00657 0.17898,-2.19128 1.0593,-3.11445 0.90603,-0.95012 0.92418,-1.00884 0.57027,-1.84436 -0.51059,-1.20541 -0.50035,-2.61832 0.03,-4.14142 0.3496,-1.00398 0.4168,-1.78772 0.29494,-3.43958 -0.0868,-1.17663 -0.15782,-15.77199 -0.15782,-32.43413 0,-16.66213 0.071,-31.25749 0.15782,-32.43412 0.12186,-1.65186 0.0547,-2.4356 -0.29494,-3.43958 -0.53035,-1.5231 -0.54059,-2.93601 -0.03,-4.14142 0.35364,-0.83487 0.33535,-0.89468 -0.56102,-1.83489 -0.85134,-0.89298 -0.93605,-1.12926 -1.04351,-2.91041 -0.0643,-1.06619 -0.24769,-2.20624 -0.4075,-2.53345 -0.1598,-0.3272 -0.20901,-0.67645 -0.10935,-0.77611 0.34273,-0.34272 0.80738,0.44633 0.80738,1.37103 0,0.58344 0.12725,0.92604 0.34396,0.92604 0.42636,0 0.45507,0.44803 0.0376,0.58718 -0.43502,0.145 -0.33665,1.63898 0.15756,2.39325 0.22927,0.34991 0.74348,0.80077 1.1427,1.00193 0.39922,0.20115 0.76046,0.38444 0.80276,0.4073 0.0423,0.0229 -0.1775,0.47273 -0.48843,0.99972 -0.61507,1.04246 -0.76854,3.37844 -0.26205,3.98872 0.19714,0.23755 0.28244,11.22805 0.28244,36.39481 0,25.16677 -0.0853,36.15727 -0.28244,36.39482 -0.50649,0.61028 -0.35302,2.94626 0.26205,3.98872 0.31093,0.52699 0.53072,0.97686 0.48843,0.99972 -0.0423,0.0229 -0.40354,0.20615 -0.80276,0.4073 -0.39922,0.20116 -0.91343,0.65203 -1.1427,1.00193 -0.49421,0.75427 -0.59258,2.24825 -0.15756,2.39325 0.45258,0.15086 0.37204,0.58718 -0.10838,0.58718 -0.28452,0 -0.36546,0.15514 -0.25784,0.49422 0.18624,0.58681 -0.25737,1.88703 -0.64382,1.88703 -0.14912,0 -0.27113,-0.17157 -0.27113,-0.38126 z M 164.9192,167.91785 c -0.0231,-4.9477 -0.0421,-17.09208 -0.0421,-26.9875 0,-9.89541 0.0189,-22.03979 0.0421,-26.98749 l 0.0421,-8.99584 h 0.77856 c 0.66885,0 0.76055,0.0839 0.6508,0.59532 -0.16696,0.77802 -0.16696,69.99801 0,70.77603 0.10975,0.51144 0.0181,0.59532 -0.6508,0.59532 h -0.77856 z m 184.03579,-26.9875 v -35.71874 h 1.01981 c 0.56089,0 0.96786,0.0893 0.90437,0.19843 -0.0888,0.15263 -0.50104,29.37898 -0.50104,35.52031 0,6.14134 0.41226,35.36769 0.50104,35.52032 0.0635,0.10914 -0.34348,0.19843 -0.90437,0.19843 h -1.01981 z m 0.0146,-36.52284 c -0.68903,-0.76138 -0.6309,-2.87345 0.10764,-3.91063 0.50078,-0.70328 0.51513,-0.81662 0.1425,-1.12587 -0.73462,-0.60968 -1.62158,-2.70852 -1.96564,-4.65138 -0.27713,-1.56491 -0.44424,-1.94267 -0.96414,-2.17956 -0.3459,-0.1576 -0.73876,-0.57547 -0.87302,-0.92861 -0.13426,-0.35314 -0.51883,-0.72548 -0.85459,-0.82742 -0.78598,-0.23863 -1.79575,-1.15609 -2.07902,-1.88896 -0.12199,-0.3156 -0.55584,-0.73285 -0.96412,-0.92722 -0.40828,-0.19436 -0.85863,-0.61792 -1.00079,-0.94123 -0.19436,-0.44204 -0.62093,-0.65799 -1.71979,-0.87064 -2.0662,-0.39986 -3.60699,-0.99996 -4.50284,-1.75377 -0.72904,-0.61344 -0.80736,-0.62593 -1.41771,-0.22601 -0.47046,0.30826 -1.13634,0.40188 -2.45002,0.34446 -1.64348,-0.0718 -1.83931,-0.14198 -2.20109,-0.78838 -0.36421,-0.65073 -0.35429,-0.75684 0.11969,-1.28058 0.41227,-0.45556 0.70899,-0.54033 1.46705,-0.41911 0.80886,0.12934 1.05998,0.0374 1.68761,-0.61769 0.40555,-0.4233 0.89676,-0.70846 1.09159,-0.6337 0.19482,0.0748 0.62436,-0.0533 0.95454,-0.28455 0.71259,-0.49912 1.5279,-0.5356 2.46166,-0.11015 0.52099,0.23738 0.75404,0.23738 0.99141,0 0.49619,-0.49619 1.1842,-0.36144 1.73595,0.33998 0.46593,0.59234 0.59989,0.62591 1.50289,0.37658 1.01114,-0.27919 2.52191,0.0759 2.52191,0.59272 0,0.44515 0.5671,0.22694 1.63053,-0.62741 1.04817,-0.84209 1.12045,-0.85876 3.49022,-0.80479 1.33093,0.0303 2.53894,0.0687 2.68446,0.0853 0.14552,0.0166 0.52147,-0.049 0.83544,-0.14572 0.39744,-0.12248 0.74291,-0.004 1.13728,0.39052 0.49794,0.49793 0.55967,0.82881 0.51051,2.73644 -0.0308,1.1935 0.0283,2.42916 0.13116,2.7459 0.22121,0.68098 -0.40607,2.32663 -1.2151,3.18779 -0.55418,0.58991 -0.55482,0.6052 -0.0632,1.51813 0.42158,0.78284 0.45285,1.08629 0.20691,2.00772 -0.2293,0.85906 -0.21734,1.11328 0.0573,1.21867 0.54434,0.20889 0.95143,1.64159 0.63464,2.23353 -0.18623,0.34798 -0.17812,0.6733 0.0263,1.0553 0.18586,0.34728 0.22592,1.0592 0.10794,1.91822 -0.14694,1.06983 -0.37851,1.54615 -1.06806,2.19688 -0.78264,0.73857 -0.86252,0.94139 -0.71903,1.82561 0.12728,0.78436 0.0581,1.07028 -0.32708,1.35193 -0.68811,0.50316 -1.28475,0.44442 -1.85194,-0.18231 z m 1.65557,-0.28648 c 0.36041,-0.3604 0.14846,-1.02609 -0.32668,-1.02609 -0.50706,0 0.13321,-1.28014 0.73806,-1.47567 0.50172,-0.16219 1.30581,-1.22129 1.21658,-1.6024 -0.0295,-0.12607 0.0405,-0.56542 0.15561,-0.97634 0.2937,-1.04852 -0.20214,-2.03101 -1.025,-2.03101 -0.62422,0 -1.21505,-0.88102 -0.84142,-1.25466 0.0861,-0.0861 0.15645,0.0292 0.15645,0.25622 0,0.70676 0.87203,0.82723 1.38675,0.19157 0.25594,-0.31607 0.46534,-0.67203 0.46534,-0.79104 0,-0.35599 -0.80312,-1.04792 -1.21632,-1.04792 -0.33237,0 -0.3298,-0.10631 0.0189,-0.78061 0.74614,-1.44285 0.25988,-3.18814 -0.88824,-3.18814 -0.25774,0 -0.0526,-0.29963 0.53881,-0.78716 1.29984,-1.07143 1.93255,-2.67437 1.53323,-3.88432 -0.22934,-0.69493 -0.22269,-0.9969 0.0286,-1.29972 0.24342,-0.2933 0.25411,-0.55527 0.0417,-1.02146 -0.15712,-0.34485 -0.2201,-0.87774 -0.13996,-1.1842 0.32557,-1.24498 -0.048,-1.33418 -5.81824,-1.38957 -1.31993,-0.0127 -2.89411,1.03328 -3.68038,2.4454 l -0.60458,1.08582 -2.18977,-0.15947 c -1.20437,-0.0877 -2.57359,-0.32341 -3.0427,-0.52378 l -0.85295,-0.3643 1.16238,0.14172 c 0.90064,0.1098 1.4141,0.004 2.28035,-0.46901 1.09236,-0.59673 1.98123,-0.58514 1.98123,0.0258 0,0.21622 -0.11906,0.20648 -0.40809,-0.0334 -0.58103,-0.48221 -1.14176,0.0785 -0.65955,0.65955 0.49391,0.59512 1.26023,0.49934 1.729,-0.21609 0.5273,-0.80476 0.29098,-1.38544 -0.70516,-1.73269 -0.60648,-0.21142 -1.01714,-0.18442 -1.73089,0.1138 -1.182,0.49387 -1.10398,0.50894 -1.40031,-0.27047 -0.37409,-0.98393 -2.11667,-0.84488 -2.11667,0.1689 0,0.72482 0.79082,0.95178 1.22889,0.35268 0.3097,-0.42354 0.35861,-0.4312 0.35861,-0.0561 0,0.60678 -0.79701,1.00663 -1.38223,0.69343 -0.35524,-0.19012 -0.46985,-0.15238 -0.46985,0.15473 0,0.53626 -1.40703,0.54556 -1.84966,0.0122 -0.17983,-0.21668 -0.45288,-0.31615 -0.60677,-0.22103 -0.1539,0.0951 -0.0511,-0.14059 0.22841,-0.52377 0.27953,-0.38318 0.74635,-0.69289 1.0374,-0.68824 0.47108,0.008 0.46167,0.0355 -0.0858,0.25501 -0.71429,0.28638 -0.69087,1.1202 0.0354,1.26007 1.22768,0.23643 1.73896,-1.58922 0.59148,-2.11204 -0.49027,-0.22339 -0.84707,-0.21412 -1.4552,0.0378 -0.44312,0.18355 -0.80996,0.40857 -0.81519,0.50006 -0.005,0.0915 -0.31741,0.52352 -0.69373,0.96009 l -0.68421,0.79375 0.58301,-0.99219 c 0.7476,-1.27227 0.24051,-1.30961 -0.89845,-0.0661 -0.83793,0.91481 -1.47211,1.19219 -1.47211,0.64389 0,-0.15519 -0.32742,-0.24448 -0.7276,-0.19844 -1.02349,0.11777 -1.18197,1.18343 -0.21218,1.42683 0.41762,0.10482 0.85431,0.0315 1.1263,-0.18908 0.30619,-0.24833 0.38249,-0.25751 0.24553,-0.0296 -0.31306,0.5211 0.64505,0.40161 1.06079,-0.13229 0.34338,-0.44097 0.35287,-0.44097 0.1993,0 -0.22701,0.65186 0.38919,0.58847 1.14047,-0.11733 l 0.61775,-0.58035 0.37646,0.53747 c 0.74995,1.07071 5.99102,2.80446 6.86763,2.27182 0.13387,-0.0814 0.17261,0.0366 0.0861,0.26201 -0.23377,0.6092 0.53202,1.52898 1.273,1.52898 0.50322,0 0.64645,0.13857 0.64645,0.62538 0,0.87561 1.21981,2.02046 2.15275,2.02046 0.6012,0 0.75767,0.11863 0.75767,0.57448 0,0.7062 0.71861,1.54218 1.32566,1.54218 0.36105,0 0.48175,0.34102 0.61115,1.72675 0.17454,1.86914 0.9313,3.8656 1.8264,4.81839 0.69332,0.738 1.26733,0.80417 0.60242,0.0694 -0.36068,-0.39855 -0.38713,-0.52458 -0.10716,-0.51057 0.55205,0.0276 1.50066,0.46987 1.05525,0.49197 -0.20616,0.0102 -0.30505,0.0884 -0.21976,0.17367 0.0853,0.0853 -0.20625,0.47791 -0.64787,0.87249 -0.44161,0.39458 -0.83751,1.03237 -0.87976,1.41731 -0.0423,0.38494 -0.15462,0.82576 -0.24969,0.97959 -0.0951,0.15384 -0.0579,0.2797 0.0826,0.2797 0.14048,0 0.19299,0.23876 0.11668,0.53058 -0.25066,0.95852 0.77367,1.68862 1.43761,1.02468 z m 0.88823,-5.94293 c 0.0127,-0.30823 0.0754,-0.37092 0.15985,-0.15985 0.0764,0.19099 0.067,0.4192 -0.0209,0.50711 -0.0879,0.0879 -0.15045,-0.0684 -0.13896,-0.34726 z m -1.432,-1.08038 c -0.097,-0.097 -0.17638,-0.29942 -0.17638,-0.44979 0,-0.16579 0.12324,-0.15017 0.31309,0.0397 0.17221,0.1722 0.25158,0.37461 0.17639,0.44979 -0.0752,0.0752 -0.21607,0.0573 -0.31309,-0.0397 z m -0.5298,-1.26096 c -0.08,-0.20845 -0.2238,-1.07165 -0.31958,-1.91823 l -0.17413,-1.53922 h 0.82044 c 0.45124,0 0.82044,0.0146 0.82044,0.0325 0,0.0179 -0.24158,0.57866 -0.53686,1.24618 -0.33839,0.765 -0.47451,1.46212 -0.36819,1.88572 0.1794,0.71478 0.002,0.92939 -0.2421,0.29303 z m 1.54405,-0.41474 c -0.51018,-0.21923 -0.50837,-0.22805 0.0505,-0.24598 0.31883,-0.0102 0.65328,0.10046 0.74322,0.24598 0.19341,0.31295 -0.0655,0.31295 -0.79375,0 z m -3.30729,-3.70416 c 0,-0.14552 0.12609,-0.26459 0.2802,-0.26459 0.15411,0 0.20661,0.11907 0.11667,0.26459 -0.0899,0.14552 -0.21602,0.26458 -0.2802,0.26458 -0.0642,0 -0.11667,-0.11906 -0.11667,-0.26458 z m 2.51354,0 c -0.0899,-0.14552 -0.0374,-0.26459 0.11668,-0.26459 0.1541,0 0.28019,0.11907 0.28019,0.26459 0,0.14552 -0.0525,0.26458 -0.11667,0.26458 -0.0642,0 -0.19026,-0.11906 -0.2802,-0.26458 z m -1.45521,-0.6306 c 0,-0.20131 0.24909,-0.43116 0.55352,-0.51077 0.53114,-0.13889 0.53483,-0.1241 0.0913,0.36602 -0.54993,0.60766 -0.64481,0.62896 -0.64481,0.14475 z m -1.05833,-0.11906 c 0,-0.16977 -0.26194,-0.30868 -0.58209,-0.30868 -0.45464,0 -0.51215,-0.0699 -0.26269,-0.31939 0.24947,-0.24946 0.4169,-0.22188 0.76477,0.126 0.24496,0.24496 0.36318,0.52759 0.2627,0.62807 -0.10048,0.10047 -0.18269,0.0438 -0.18269,-0.126 z m 0.39687,-1.10243 c -0.0899,-0.14552 -0.54345,-0.2682 -1.0078,-0.27263 -0.7008,-0.007 -0.76572,-0.0538 -0.38197,-0.27733 0.3365,-0.196 0.72123,-0.14642 1.41373,0.18219 0.78908,0.37444 0.98937,0.39006 1.17387,0.0915 0.39254,-0.63513 -0.0408,-0.84483 -1.49622,-0.72414 -1.59303,0.13211 -1.68243,0.005 -0.22718,-0.32334 0.58923,-0.1329 1.28325,-0.11047 1.76361,0.057 0.62798,0.21891 0.87599,0.19215 1.19737,-0.12923 0.4685,-0.4685 0.25398,-0.98528 -0.40899,-0.98528 -0.25074,0 -1.08575,0.16339 -1.85558,0.36308 -1.51733,0.39359 -1.54596,0.14979 -0.0385,-0.32822 1.6489,-0.52288 3.43959,-0.78055 3.43959,-0.49495 0,0.50779 -1.10052,2.04159 -1.84544,2.57203 -0.81721,0.5819 -1.47028,0.68378 -1.72644,0.26931 z m -1.59462,-2.36195 c 0.28712,-0.32355 0.85267,-0.78358 1.25677,-1.02229 0.4041,-0.23871 0.73473,-0.58275 0.73473,-0.76454 0,-0.48262 -0.9924,-0.93489 -1.61666,-0.73676 -0.51097,0.16218 -0.51907,0.13268 -0.15942,-0.58065 0.60636,-1.20267 0.77221,-2.21917 0.42945,-2.63217 -0.42913,-0.51706 -1.02826,0.006 -1.05475,0.92086 -0.0111,0.38237 -0.18061,1.11193 -0.37675,1.62125 -0.41247,1.0711 -0.48282,0.82102 -0.1599,-0.56844 0.26219,-1.12816 0.009,-1.69925 -0.64239,-1.44926 -0.37395,0.14349 -0.42989,0.38721 -0.30239,1.31741 0.086,0.62774 0.0468,1.4886 -0.0873,1.91301 l -0.24376,0.77166 0.0302,-0.79375 c 0.0522,-1.37292 -0.0379,-1.71979 -0.4465,-1.71979 -0.21828,0 -0.39688,-0.10673 -0.39688,-0.23718 0,-0.37512 1.66467,-1.73766 2.5925,-2.12198 0.7293,-0.30208 0.93405,-0.29056 1.50698,0.0849 0.762,0.49927 0.83499,0.82886 0.25541,1.15321 -0.46151,0.25827 -0.25939,1.1211 0.26262,1.1211 0.5754,0 1.18762,-0.92345 1.12838,-1.70201 -0.063,-0.82793 0.4424,-1.21772 0.70194,-0.54137 0.21899,0.5707 -0.48346,1.87255 -1.29858,2.40664 -0.52658,0.34502 -0.59775,0.50853 -0.35087,0.80601 0.17035,0.20525 0.51132,0.33903 0.75773,0.29728 0.24641,-0.0417 0.63229,0.077 0.85751,0.26395 0.33594,0.27881 0.47935,0.26998 0.79849,-0.0491 0.29032,-0.29033 0.46522,-0.31278 0.68949,-0.0885 0.51712,0.51713 0.34069,0.65264 -1.02,0.78338 -0.94328,0.0906 -1.75578,0.41378 -2.84427,1.1312 -1.00764,0.66414 -1.34696,0.80506 -1.00174,0.41604 z m -4.13604,-1.36547 c -0.0794,-0.56197 -0.27979,-0.66583 -1.67767,-0.86949 -0.87313,-0.12721 -2.18281,-0.39399 -2.91042,-0.59286 -0.7276,-0.19886 -0.96573,-0.30387 -0.52916,-0.23336 0.43656,0.0705 1.38906,0.19484 2.11666,0.27627 2.57166,0.28783 3.03887,0.41198 3.28562,0.87303 0.13826,0.25834 0.15039,0.62598 0.0272,0.82525 -0.16316,0.264 -0.24603,0.19 -0.31227,-0.27884 z m 0.97745,-0.92574 c -0.24664,-0.37643 -0.38818,-0.74468 -0.31452,-0.81834 0.0737,-0.0737 0.32435,0.23433 0.5571,0.68442 0.51449,0.99491 0.37281,1.07313 -0.24258,0.13392 z m 6.31661,-0.86409 c 0.28294,-0.4578 1.72103,-1.14269 2.01625,-0.96024 0.14125,0.0873 0.25681,0.33941 0.25681,0.56025 0,0.29219 -0.23521,0.38127 -0.8637,0.32712 -0.47504,-0.0409 -1.02922,0.0279 -1.23151,0.1529 -0.25093,0.15509 -0.30744,0.12966 -0.17785,-0.08 z m 0.99829,-2.02337 c 0.30439,-0.66806 0.85096,-0.86856 1.13129,-0.41498 0.14583,0.23595 -0.81662,1.07644 -1.23264,1.07644 -0.11002,0 -0.0644,-0.29766 0.10135,-0.66146 z m -10.70314,1.29535 c -0.0879,-0.0879 -0.31612,-0.0973 -0.50712,-0.0209 -0.21106,0.0845 -0.14837,0.14715 0.15986,0.15985 0.27891,0.0115 0.43518,-0.0511 0.34726,-0.13897 z m -165.02834,3.91694 c 0,-0.46447 0.68079,-0.84667 1.50813,-0.84667 0.59972,0 0.87312,-0.12427 0.87312,-0.39687 0,-0.50722 0.19729,-0.50197 0.71839,0.0191 0.2784,0.27839 0.64412,0.3591 1.10558,0.24398 0.91708,-0.22879 2.40936,-1.38335 2.40936,-1.86409 0,-0.47986 -0.048,-0.48573 1.19063,0.14576 1.20853,0.61614 2.63316,0.66891 3.57187,0.13229 1.01348,-0.57935 141.1987,-0.58766 141.96454,-0.008 0.67292,0.50897 3.5137,0.52096 4.17806,0.0176 0.43863,-0.3323 0.58253,-0.27777 1.38517,0.52486 1.00316,1.00317 2.54299,1.44576 3.32685,0.95623 0.30274,-0.18906 0.48705,-0.2032 0.48705,-0.0373 0,0.14675 0.33443,0.26682 0.74318,0.26682 0.79375,0 1.88579,0.63423 1.59417,0.92585 -0.0965,0.0965 -0.41585,0.0466 -0.70979,-0.11066 -0.29394,-0.15731 -1.33188,-0.28602 -2.30654,-0.28602 -1.80492,0 -3.25562,-0.57151 -3.76609,-1.48367 -0.18722,-0.33455 -0.34022,-0.33189 -1.18376,0.0206 -1.28419,0.53656 -2.19951,0.5027 -3.60109,-0.13324 -1.14917,-0.5214 -1.82294,-0.52615 -71.2902,-0.50254 -60.15706,0.0205 -70.20642,0.0773 -70.66697,0.3999 -0.71821,0.50306 -2.63168,0.47691 -3.65038,-0.0499 -0.78074,-0.40374 -0.84558,-0.39814 -1.24363,0.10751 -0.87449,1.11089 -2.17671,1.63932 -4.04235,1.64036 -0.97367,5.4e-4 -1.8439,0.12005 -1.93384,0.26557 -0.19516,0.31578 -0.66146,0.35308 -0.66146,0.0529 z m 12.46064,-4.06865 c 0.1306,-0.24412 0.15828,-0.65021 0.0615,-0.90242 -0.14606,-0.38064 -0.0672,-0.42948 0.46397,-0.28736 0.35197,0.0942 31.89385,0.17307 70.09307,0.17534 l 69.45312,0.004 0.0503,0.72708 0.0503,0.72708 h -70.20488 c -65.62485,0 -70.18938,-0.029 -69.96741,-0.44386 z"
       id="path2762" />
  </g>
</svg>
