<?xml version="1.0" encoding="UTF-8" standalone="no"?>
<!-- Created with Inkscape (http://www.inkscape.org/) -->

<svg
   width="300.61963mm"
   height="83.291573mm"
   viewBox="0 0 300.61963 83.291576"
   version="1.1"
   id="svg997"
   inkscape:version="1.1 (c4e8f9ed74, 2021-05-24)"
   sodipodi:docname="frame20.svg"
   xmlns:inkscape="http://www.inkscape.org/namespaces/inkscape"
   xmlns:sodipodi="http://sodipodi.sourceforge.net/DTD/sodipodi-0.dtd"
   xmlns="http://www.w3.org/2000/svg"
   xmlns:svg="http://www.w3.org/2000/svg">
  <sodipodi:namedview
     id="namedview999"
     pagecolor="#ffffff"
     bordercolor="#666666"
     borderopacity="1.0"
     inkscape:pageshadow="2"
     inkscape:pageopacity="0.0"
     inkscape:pagecheckerboard="0"
     inkscape:document-units="mm"
     showgrid="false"
     inkscape:zoom="1.5385816"
     inkscape:cx="572.28035"
     inkscape:cy="257.05494"
     inkscape:window-width="2506"
     inkscape:window-height="1403"
     inkscape:window-x="1974"
     inkscape:window-y="0"
     inkscape:window-maximized="1"
     inkscape:current-layer="layer1" />
  <defs
     id="defs994" />
  <g
     inkscape:label="Layer 1"
     inkscape:groupmode="layer"
     id="layer1"
     transform="translate(13.000613,-110.46876)">
    <path
       style="fill:#000000;stroke-width:0.264583"
       d="m -0.27602676,193.66664 c -0.015469,-0.12622 -0.054634,-0.40809 -0.087035,-0.62637 -0.0324,-0.21828 -0.087862,-1.64703 -0.1232482,-3.175 l -0.064338,-2.77812 -0.4070471,1.5875 c -0.22387594,0.87312 -0.51294544,1.70061 -0.64237694,1.83885 -0.3852767,0.41151 -0.2734312,-0.8707 0.1323631,-1.51743 0.424729,-0.67691 0.80615374,-4.84901 0.4627142,-5.06127 -0.1266508,-0.0783 -0.1728303,-0.44281 -0.102621,-0.81009 0.074838,-0.39149 0.00542,-0.66777 -0.167775,-0.66777 -0.1624851,0 -0.2954276,-0.23974 -0.2954276,-0.53276 0,-0.29301 -0.1079167,-0.7395 -0.2398149,-0.99219 -0.1318982,-0.25268 -0.3911182,-0.99521 -0.5760445,-1.65005 -0.2363139,-0.83681 -0.3692432,-1.03338 -0.4473249,-0.66146 -0.1394532,0.66424 -0.5962462,1.18345 -0.5703028,0.64823 0.010229,-0.21101 0.1135221,-0.62177 0.2295422,-0.91281 0.1411266,-0.35403 0.059555,-0.7481 -0.2464538,-1.19063 -0.2515701,-0.3638 -0.6025843,-1.10904 -0.7800321,-1.65608 -0.1774476,-0.54704 -0.4307354,-0.92781 -0.5628617,-0.84615 -0.1321262,0.0816 -0.1752147,-0.021 -0.095752,-0.22803 0.079462,-0.20708 -0.040964,-0.56195 -0.2676142,-0.7886 -0.22665,-0.22665 -0.4120911,-0.49677 -0.4120911,-0.60026 0,-0.10349 -0.2083594,-0.35895 -0.4630208,-0.56768 -0.254662,-0.20874 -0.329661,-0.3137 -0.166665,-0.23324 0.162997,0.0805 -0.103103,-0.67714 -0.591332,-1.68356 -1.844475,-3.80211 -2.945184,-7.52234 -2.178021,-7.36138 0.384016,0.0806 0.995784,0.73645 1.009374,1.08216 0.0046,0.11773 -0.140414,0.12703 -0.322315,0.0207 -0.181901,-0.10636 -0.103916,0.0652 0.173299,0.38127 0.535668,0.61072 0.838274,0.76953 0.536787,0.28171 -0.122472,-0.19816 0.0053,-0.23378 0.395007,-0.1101 1.236571,0.39248 3.0547539,0.3623 3.5251159,-0.0585 0.5459547,-0.48843 0.6146622,-0.97619 0.1102431,-0.78263 -0.2440836,0.0937 -0.3527779,-0.10141 -0.3527779,-0.63315 0,-0.42268 0.099219,-0.76852 0.2204863,-0.76852 0.1212672,0 0.220486,0.2024 0.220486,0.44979 0,0.34984 0.070556,0.37924 0.3175,0.13229 0.4565824,-0.45658 0.9474324,-0.39091 1.0876158,0.14552 0.06655,0.25466 0.1348115,-0.0165 0.1516922,-0.60258 0.017666,-0.61337 -0.1571537,-1.3338 -0.4119237,-1.69754 -0.2434386,-0.34755 -0.3111968,-0.55069 -0.1505738,-0.45142 0.160623,0.0993 0.3547007,0.0791 0.431284,-0.0448 0.1818873,-0.2943 -1.5292085,-1.10625 -2.3313011,-1.10625 -1.325835,0 -2.5085658,-2.16288 -1.5966058,-2.91974 0.3238015,-0.26873 0.3856458,-0.18757 0.3856458,0.50609 0,0.4614 0.223897,1.05004 0.5071181,1.33327 0.2789147,0.27891 0.4277429,0.59284 0.3307292,0.69762 -0.097014,0.10478 0.1468792,0.13201 0.5419849,0.0605 0.3992332,-0.0722 0.7651533,-1.6e-4 0.823673,0.16227 0.057915,0.16075 0.2022166,0.20173 0.3206708,0.0911 0.1184542,-0.11066 -0.083829,-0.52738 -0.4495186,-0.92604 -0.8918059,-0.97222 -0.9810089,-2.78321 -0.165236,-3.3546 0.3069359,-0.21499 0.6577248,-0.32929 0.7795305,-0.25401 0.1218054,0.0753 0.2214647,0.015 0.2214647,-0.13402 0,-0.76067 -2.8914415,-1.13436 -3.7103814,-0.47953 -1.668832,1.33442 -2.19963,3.5542 -1.333215,5.57546 0.765758,1.78644 0.712725,2.29247 -0.140061,1.33645 -1.364459,-1.52964 -1.694973,-2.28706 -1.663216,-3.81147 0.05081,-2.4389 0.254049,-2.98054 1.211452,-3.22857 1.117933,-0.28961 1.372527,-0.74018 0.418241,-0.74018 -0.914185,0 -1.92657,0.66453 -1.92657,1.2646 0,0.31689 -0.221686,0.19812 -0.7884751,-0.42244 -0.433662,-0.4748 -1.159897,-1.01944 -1.613856,-1.21031 l -0.82538,-0.34705 1.088107,-0.43537 c 0.619118,-0.24773 1.291881,-0.77046 1.560888,-1.21281 0.4549611,-0.74812 0.4850901,-0.75771 0.7992961,-0.25459 0.179582,0.28756 0.27169,0.61154 0.204684,0.71995 -0.06701,0.10842 0.102918,0.19713 0.377609,0.19713 0.46334,0 0.468428,-0.0343 0.07039,-0.47409 -0.235976,-0.26075 -0.369516,-0.53363 -0.296756,-0.60639 0.07276,-0.0728 0.346432,0.10433 0.608158,0.39354 0.389478,0.43036 0.415324,0.59877 0.14237,0.92766 -0.28338,0.34145 -0.232539,0.40184 0.33831,0.40184 0.369494,0 0.716681,0.13462 0.771527,0.29916 0.05485,0.16454 0.749378,0.33543 1.5434032,0.37977 1.9160723,0.10698 2.4529608,0.23224 2.5758674,0.60096 0.056396,0.16918 0.2689408,0.30761 0.4723228,0.30761 0.4149767,0 0.7339496,0.97549 0.6002335,1.83565 -0.1049153,0.67489 -0.610453,0.74097 -0.6144522,0.0803 -0.00153,-0.25342 -0.1813827,-0.46076 -0.399664,-0.46076 -0.2499056,0 -0.3641915,0.19596 -0.3086169,0.52916 0.1408552,0.84452 0.4915451,1.04819 1.2274815,0.71287 0.524569,-0.23901 0.6686354,-0.49876 0.6686354,-1.20557 0,-0.71545 -0.2180471,-1.09792 -1.0590956,-1.85776 -0.5825024,-0.52626 -0.8947372,-0.95683 -0.6938552,-0.95683 0.2008822,0 0.5134602,-0.17859 0.6946175,-0.39687 0.260841,-0.3143 0.2612503,-0.39688 0.00196,-0.39688 -0.2331389,0 -0.2043761,-0.18777 0.099895,-0.65215 0.5516875,-0.84198 0.5386594,-1.00635 -0.064588,-0.81489 -1.25467,0.39822 -1.862288,-0.97919 -0.9006819,-2.04175 0.4143677,-0.45787 0.4188029,-0.53789 0.045147,-0.81458 -0.2993527,-0.22167 -0.3598651,-0.50857 -0.2180188,-1.03365 0.1442506,-0.53398 0.064412,-0.88496 -0.3009283,-1.32292 -0.2734985,-0.32785 -0.5012314,-0.44727 -0.5060728,-0.26537 -0.012808,0.48125 -1.2462848,0.40583 -1.4357026,-0.0878 -0.279468,-0.7283 -0.173883,-1.69815 0.1848813,-1.69815 0.1900097,0 0.7489221,0.29766 1.2420282,0.66146 1.1042059,0.81466 2.1324675,0.856 2.6017214,0.10461 0.1912683,-0.30628 0.2199084,-0.47784 0.063645,-0.38127 -0.1672952,0.1034 -0.2841162,-0.0484 -0.2841162,-0.36918 0,-0.29963 0.1128689,-0.54479 0.2508197,-0.54479 0.86168184,0 -1.4625182,-3.26976 -2.499778,-3.51676 -0.4342092,-0.1034 -0.41047,-0.13135 0.1322917,-0.15572 0.3638021,-0.0163 1.051289,0.20797 1.5277491,0.49847 0.4764598,0.2905 0.9527098,0.52456 1.0583333,0.52014 0.1056233,-0.004 -0.016317,-0.12941 -0.2709783,-0.27774 -0.7129502,-0.41525 -0.5498195,-0.69364 0.3307292,-0.56441 l 0.79375004,0.1165 v -4.28076 c 0,-4.2559 -0.2014924,-5.41343 -0.89593534,-5.14695 -0.1972831,0.0757 -0.4363945,-0.0648 -0.5313584,-0.3123 -0.2569126,-0.66951 0.00633,-0.7639 0.7575782,-0.27166 l 0.66971554,0.43881 v -2.79984 c 0,-1.79918 -0.094561,-2.7414 -0.26458344,-2.63632 -0.1455208,0.0899 -0.2645833,-0.0746 -0.2645833,-0.36564 0,-0.29104 0.1187746,-0.60258 0.2639438,-0.6923 0.39652184,-0.24506 0.22401804,-2.77852 -0.1891903,-2.77852 -0.2103159,0 -0.3393368,-0.34615 -0.3393368,-0.91042 0,-0.9268 0.3834032,-1.48058 0.60729764,-0.87716 0.06783,0.18281 0.087078,-0.11274 0.042774,-0.65678 -0.082832,-1.01714 -1.19881254,-2.92087 -1.38492714,-2.36253 -0.05725,0.17175 -0.2129837,0.24497 -0.3460755,0.16272 -0.3520339,-0.21757 -0.2965855,-0.65896 0.07303,-0.58135 0.1732584,0.0364 0.3632978,-0.15631 0.4223096,-0.42821 0.067163,-0.30945 -0.00119,-0.42731 -0.1827236,-0.31511 -0.4514294,0.279 -0.338238,-0.43503 0.1978441,-1.24803 l 0.4843756,-0.73459 -0.052338,1.52834 c -0.040422,1.18038 0.059733,1.64429 0.4399227,2.03765 0.48467594,0.50146 0.49249704,0.49942 0.50762214,-0.1323 0.00845,-0.35288 0.038215,-1.53457 0.066146,-2.62598 l 0.050784,-1.98437 1.3890625,-0.08 c 0.84631126,-0.0487 1.38906246,0.0288 1.38906246,0.19843 0,0.15313 -0.47625,0.27841 -1.0583333,0.27841 -0.84274686,0 -1.05833336,0.097 -1.05833336,0.47625 0,0.26194 -0.1488281,0.6366 -0.3307291,0.83257 -0.2540053,0.27366 -0.2551261,0.31369 -0.00483,0.17258 0.2574875,-0.14517 0.3273782,8.04575 0.3329527,39.02069 0.00388,21.56243 0.082488,39.67615 0.174684,40.25271 l 0.1676284,1.04829 66.37283266,-0.0896 c 36.505058,-0.0493 66.372878,-0.1491 66.372938,-0.22186 6e-5,-0.0728 26.52124,-0.1497 58.93596,-0.17097 32.41471,-0.0213 59.41209,-0.0455 59.99418,-0.0539 0.58208,-0.008 1.59411,0.002 2.24896,0.0232 0.65484,0.0211 1.75617,-0.0355 2.44739,-0.12582 0.80664,-0.10537 1.25677,-0.0645 1.25677,0.11407 0,0.17262 0.14973,0.15398 0.39444,-0.0491 0.23895,-0.19829 0.73449,-0.26438 1.25677,-0.16763 1.25646,0.23273 8.48871,0.39967 8.79983,0.20312 0.14552,-0.0919 1.39568,-0.16774 2.77813,-0.16847 l 2.51354,-0.001 0.0326,-1.85209 c 0.018,-1.01864 -0.076,-2.13986 -0.20871,-2.49158 -0.14745,-0.39087 -0.14515,-0.69948 0.006,-0.79375 0.37364,-0.23308 0.37489,-5.30439 0.003,-5.7544 -0.23599,-0.28434 -0.23726,-0.4497 -0.005,-0.68169 0.38047,-0.38046 0.42029,-3.47714 0.0417,-3.24316 -0.15436,0.0954 -0.26458,-0.17364 -0.26458,-0.64584 0,-0.44515 0.1216,-0.80937 0.27024,-0.80937 0.18153,0 0.22006,-2.84403 0.11737,-8.6651 -0.16745,-9.49068 -0.16832,-20.01449 -0.004,-42.34775 l 0.10795,-14.63265 -31.06995,0.17368 c -20.94991,0.1171 -31.07115,0.0862 -31.07115,-0.0948 0,-0.17984 10.39223,-0.27967 31.48542,-0.30248 l 31.48541,-0.034 0.0209,3.51666 c 0.0114,1.93416 0.0603,3.39759 0.10846,3.25207 0.0482,-0.14553 0.29395,-1.18431 0.54623,-2.30842 0.37597,-1.67542 0.39732,-2.11774 0.11843,-2.45379 -0.42606,-0.51339 -0.14388,-0.84576 0.36176,-0.4261 0.65328,0.54217 1.06723,1.83099 0.72179,2.24723 -0.23493,0.28306 -0.20691,0.40282 0.12395,0.52978 0.23514,0.0902 0.53584,0.0971 0.66821,0.0153 0.13239,-0.0818 0.24072,-0.0366 0.24072,0.10057 0,0.13714 -0.2679,0.34082 -0.59532,0.45262 -0.54522,0.18617 -0.52461,0.21231 0.24487,0.31073 0.46213,0.0591 0.97685,0.2721 1.14382,0.47332 0.16701,0.20122 0.44376,0.31233 0.61503,0.24691 0.21317,-0.0814 0.32223,0.34084 0.34578,1.33865 0.0189,0.80167 -0.052,1.45758 -0.15748,1.45758 -0.25596,0 -1.06756,-0.90801 -1.06756,-1.19441 0,-0.12468 -0.2679,-0.52842 -0.59532,-0.8972 -0.33676,-0.3793 -0.39145,-0.51397 -0.12589,-0.31008 0.5401,0.4147 0.79333,0.30068 0.47528,-0.21397 -0.13836,-0.22383 -0.4285,-0.28431 -0.79931,-0.16662 -0.32017,0.10162 -0.5293,0.2376 -0.46471,0.30218 0.0645,0.0646 -0.23953,0.49951 -0.67578,0.96651 -0.77361,0.82818 -0.78925,0.89802 -0.63471,2.83499 0.0872,1.09224 0.33894,2.52167 0.55954,3.17652 l 0.40109,1.19062 -0.10324,-1.12448 c -0.10801,-1.17597 0.0855,-1.3959 0.64013,-0.7276 0.55375,0.66722 0.84878,0.45686 0.64942,-0.46302 l -0.18637,-0.8599 0.56224,0.50403 c 0.59298,0.53163 0.78565,2.00951 0.26193,2.00951 -0.16512,0 0.0135,0.24677 0.39688,0.54837 0.74919,0.58932 0.92945,1.30372 0.32895,1.30372 -0.47609,0 -0.79737,1.27177 -0.43238,1.71156 0.15431,0.18592 0.19873,0.55125 0.0987,0.81185 -0.1166,0.30385 -0.0807,0.41133 0.10001,0.29964 0.3238,-0.20013 0.68212,0.53716 0.44641,0.91856 -0.0864,0.13984 0.14348,0.53289 0.51093,0.87342 0.36746,0.34053 0.74869,1.0488 0.8472,1.57393 0.0985,0.52514 0.29197,0.95479 0.42987,0.95479 0.13792,0 0.17716,0.11906 0.0872,0.26458 -0.0899,0.14552 -0.0595,0.26458 0.0677,0.26458 0.26464,0 0.75539,0.9754 1.78258,3.54298 0.50329,1.25802 0.6714,2.04932 0.55946,2.63344 -0.11454,0.59765 -0.0861,0.72222 0.10014,0.43817 0.20209,-0.30831 0.26506,-0.21974 0.28213,0.39687 0.0209,0.75109 0.037,0.76258 0.30218,0.21388 0.26358,-0.54548 0.96097,-1.00943 1.18322,-0.78718 0.0553,0.0553 -0.19839,0.62369 -0.56386,1.263 -0.7407,1.29577 -0.92924,2.32006 -0.26553,1.44255 0.37962,-0.50192 0.38846,-0.50042 0.38846,0.0661 0,0.31886 -0.14883,0.58156 -0.33073,0.58379 -0.23143,0.003 -0.21751,0.0757 0.0463,0.24266 0.32039,0.20277 0.32703,0.53003 0.0442,2.17876 -0.45185,2.63366 -0.81645,3.5978 -1.42023,3.7557 -0.28017,0.0733 -0.43677,0.25075 -0.34798,0.39442 0.0888,0.14366 -0.15341,0.50886 -0.53822,0.81156 -0.38481,0.30269 -0.54612,0.55035 -0.35843,0.55035 0.18767,0 0.78243,-0.46379 1.32165,-1.03064 1.02698,-1.07958 1.29323,-1.08961 1.83108,-0.069 0.17975,0.34111 0.85243,0.85269 1.49481,1.13686 0.64241,0.28416 1.16801,0.56756 1.16801,0.62977 0,0.0622 -0.38696,0.31019 -0.8599,0.55106 -1.16605,0.59387 -3.19249,2.66585 -2.96587,3.03254 0.1003,0.16226 0.22405,1.34471 0.27503,2.62764 0.0741,1.8658 0.0151,2.36238 -0.29496,2.48136 -0.43124,0.16549 -0.53207,0.69453 -0.13237,0.69453 0.43688,0 0.83124,-1.02664 0.92716,-2.41369 0.15311,-2.21452 0.43018,-1.8178 0.39952,0.57207 -0.0159,1.23117 0.096,2.64732 0.24847,3.14701 0.32681,1.07108 0.18722,1.30653 -0.5147,0.86819 -0.45291,-0.28286 -0.53046,-0.23571 -0.66921,0.40689 -0.59632,2.76162 -3.57838,9.19348 -4.26249,9.19348 -0.16976,0 -0.40788,0.10839 -0.52917,0.24086 -0.12808,0.13994 -0.0819,0.16111 0.11026,0.0505 0.20219,-0.11635 0.33073,-0.0361 0.33073,0.20655 0,0.49297 -0.52285,0.85457 -0.54595,0.37758 -0.009,-0.19049 -0.1285,-0.0675 -0.26508,0.2734 -0.13658,0.34086 -0.18926,0.71534 -0.11705,0.83217 0.0722,0.11683 -0.0466,0.28069 -0.26406,0.36414 -0.21746,0.0834 -0.39536,0.28153 -0.39536,0.44021 0,0.15868 0.1393,0.20241 0.30953,0.0972 0.21143,-0.13066 0.25302,-0.0439 0.13118,0.27355 -0.0981,0.25567 -0.25355,0.76427 -0.34539,1.13022 -0.15081,0.60092 -0.11564,0.63788 0.36322,0.38161 0.60265,-0.32253 0.86437,-0.16321 0.86437,0.52616 0,0.53168 -0.74284,1.01757 -1.2683,0.8296 -0.24924,-0.0892 -0.29539,0.0644 -0.16976,0.56492 0.21174,0.84363 -0.0773,0.90919 -0.40577,0.092 -0.17121,-0.42591 -0.24407,-0.46893 -0.25606,-0.15119 -0.009,0.24427 0.16182,0.62272 0.3801,0.841 0.21828,0.21828 0.39688,0.53147 0.39688,0.69597 0,0.1645 0.11906,0.22551 0.26458,0.13558 0.34261,-0.21175 0.33369,-0.0443 -0.0415,0.77923 -0.19479,0.42754 -0.41127,0.58965 -0.59531,0.44581 -0.15904,-0.12432 -0.62159,-0.3055 -1.02788,-0.40263 -0.66551,-0.1591 -0.69826,-0.217 -0.33073,-0.58455 0.45823,-0.45823 0.55602,-1.69307 0.13406,-1.69307 -0.18444,0 -0.1801,-0.17525 0.0132,-0.53658 0.15793,-0.29511 0.3732,-0.48341 0.47834,-0.41842 0.10515,0.065 0.19119,-0.3484 0.19119,-0.91863 0,-0.57023 -0.034,-1.03679 -0.0756,-1.03679 -0.1347,0 -1.28985,2.74021 -1.74379,4.13655 -0.8759,2.69428 -0.22585,5.96065 1.26047,6.33369 0.85326,0.21415 1.44148,-0.005 1.636,-0.60851 0.75719,-2.35045 1.15983,-2.52566 1.15983,-0.5047 0,1.66812 -0.70805,2.81381 -1.739,2.81381 -0.54737,0 -0.64286,0.12703 -0.6463,0.85989 -0.003,0.47294 -0.0915,0.99736 -0.19844,1.16536 -0.10691,0.16801 -0.19439,-0.26856 -0.19439,-0.97014 0,-1.2075 -0.22452,-1.84483 -0.53906,-1.53028 -0.0782,0.0782 -0.006,0.44018 0.15949,0.80438 0.34714,0.76187 -0.0398,1.78745 -0.67431,1.78745 -0.30128,0 -0.31957,-0.15557 -0.0942,-0.8019 0.20982,-0.6019 0.19069,-1.01432 -0.0767,-1.65364 -0.19593,-0.46846 -0.32497,-0.9499 -0.28676,-1.06985 0.0382,-0.11996 -0.0525,-0.1427 -0.20167,-0.0505 -0.15197,0.0939 -0.27114,1.19311 -0.27114,2.50081 0,2.37367 -0.33909,3.23942 -1.08762,2.7768 -0.19982,-0.12349 -0.24771,-0.0838 -0.12952,0.1075 0.13521,0.21875 -0.42571,0.30494 -2.00964,0.30881 -79.15939,0.19334 -271.68314626,0.26128 -271.70341646,0.0959 z M 278.37837,188.356 l 0.64143,-0.71553 -0.64696,0.40744 c -0.35584,0.22409 -0.69318,0.54608 -0.74965,0.71553 -0.16211,0.48628 0.0627,0.36497 0.75518,-0.40744 z M -0.51248516,179.36131 c 0,-2.4077 -0.070556,-3.02506 -0.3175,-2.77812 -0.43872844,0.43873 -1.40314684,0.3978 -1.79656824,-0.0762 -0.3500326,-0.42176 -0.1992225,-0.53901 0.9234432,-0.71794 0.3124536,-0.0498 0.5637922,-0.32704 0.6137145,-0.67695 0.046501,-0.32594 0.20371074,-0.59261 0.34935404,-0.59261 0.1689616,0 0.234124,-1.48802 0.1800355,-4.11119 -0.096015,-4.65651 -0.1980393,-4.89232 -1.79062594,-4.13878 -0.6145048,0.29076 -1.6014194,0.44314 -2.8502437,0.44007 -1.5915191,-0.004 -1.9764131,-0.0922 -2.3066891,-0.52916 -0.218034,-0.28847 -0.400211,-0.42137 -0.404839,-0.29535 -0.01158,0.31542 1.648284,2.54348 2.4620262,3.30482 0.5516584,0.51613 0.8726432,0.60296 1.8634686,0.50408 1.1500181,-0.11477 1.1849153,-0.0977 0.888882,0.4348 -0.169472,0.30484 -0.2858987,0.63436 -0.2587265,0.73227 0.1016069,0.36611 -1.5375959,-0.29338 -2.4400084,-0.98169 -0.7194679,-0.54876 -0.9365569,-0.61869 -0.9365569,-0.30168 0,0.22696 0.121005,0.48745 0.2689,0.57885 0.147894,0.0914 0.2087395,0.26353 0.135211,0.3825 -0.07353,0.11897 0.865187,2.16457 2.0860337,4.54578 1.2208468,2.38121 2.4319013,5.01408 2.6912324,5.85083 0.25933104,0.83674 0.50929854,1.52135 0.55548374,1.52135 0.046185,0 0.083973,-1.39303 0.083973,-3.09563 z m -2.38125004,-5.51895 c 0,-0.22686 0.1210046,-0.3377 0.2688993,-0.2463 0.1478944,0.0914 0.2003991,0.27703 0.1166767,0.41249 -0.2268114,0.36699 -0.385576,0.29856 -0.385576,-0.16619 z m -0.8423216,-0.57969 c -0.050019,-0.43471 -0.2247702,-0.69834 -0.4341156,-0.6549 -0.2110198,0.0438 -0.2731821,-0.0522 -0.156278,-0.24139 0.2250728,-0.36418 1.1681319,0.65009 1.1681319,1.25633 0,0.68162 -0.493251,0.37423 -0.5777383,-0.36004 z m 0.6955078,-0.87506 c -0.7546679,-0.7877 -0.7576992,-0.80155 -0.115647,-0.52842 0.3626347,0.15426 0.9866164,0.4108 1.3866259,0.57009 0.4000098,0.15929 0.6608736,0.39709 0.5796976,0.52843 -0.2909043,0.4707 -1.0891083,0.22481 -1.8506765,-0.5701 z m -1.8317151,-0.57142 c -0.3308178,-0.79918 -0.01393,-1.06614 0.5300876,-0.44657 0.2873198,0.32722 0.3837408,0.51421 0.2142686,0.41552 -0.169472,-0.0987 -0.3639696,-0.0299 -0.4322167,0.15296 -0.08553,0.22911 -0.1825175,0.19122 -0.3121395,-0.12191 z m -0.1304753,-2.84267 c -0.2140667,-0.13538 -0.3329422,-0.30241 -0.2641672,-0.37119 0.068775,-0.0688 0.3559736,0.0438 0.6382197,0.2502 0.5644727,0.41275 0.2487628,0.51487 -0.3740525,0.12099 z m 282.2688494,12.9808 c 0.19963,-0.12646 0.31565,-0.3719 0.25781,-0.54541 -0.0679,-0.20382 -0.28117,-0.12101 -0.60243,0.23398 -0.50522,0.55828 -0.31559,0.72966 0.34462,0.31143 z m -0.20235,-5.84738 c 1.38282,-2.16888 1.36186,-2.12588 0.96089,-1.97201 -0.19863,0.0762 -0.56044,-0.0816 -0.80402,-0.35077 -0.41505,-0.45861 -0.40984,-0.55412 0.0828,-1.52048 0.28914,-0.56712 0.5257,-1.04772 0.5257,-1.068 0,-0.0203 -0.41672,0.0936 -0.92604,0.25298 -0.96501,0.30204 -1.32315,0.85509 -0.39687,0.61287 0.29104,-0.0761 0.52916,-0.0305 0.52916,0.10143 0,0.1319 -0.10737,0.23981 -0.2386,0.23981 -0.38343,0 -1.27698,1.58339 -1.24547,2.20698 0.0212,0.42055 0.22484,0.59362 0.77216,0.65638 0.7919,0.0908 0.83418,0.49028 0.10086,0.95284 -1.21764,0.76806 -1.9453,-1.30751 -1.01259,-2.88832 0.29133,-0.49376 0.41069,-0.93532 0.26588,-0.98359 -0.47866,-0.15955 0.25194,-1.51068 1.09366,-2.02257 0.70315,-0.42761 0.75525,-0.53431 0.40346,-0.82626 -0.22217,-0.18439 -0.40394,-0.5588 -0.40394,-0.83202 0,-0.40519 0.18293,-0.48897 0.99219,-0.45443 0.97686,0.0417 0.9789,0.044 0.13229,0.14906 -0.47294,0.0587 -0.8599,0.21823 -0.8599,0.35453 0,0.3784 0.99248,0.29547 1.86524,-0.15585 0.86169,-0.4456 1.04073,-0.72156 0.31757,-0.48944 -0.30321,0.0973 -0.23471,-0.0405 0.19844,-0.3993 0.76957,-0.63747 1.27347,-0.74082 0.79375,-0.1628 -0.56361,0.67911 -0.12665,0.43465 0.5492,-0.30725 0.35279,-0.38726 0.4926,-0.61836 0.3107,-0.51355 -0.1819,0.10481 -0.33108,0.0942 -0.33147,-0.0235 0,-0.11773 -0.68501,-0.21406 -1.52136,-0.21406 -0.92262,0 -1.91349,-0.18824 -2.51962,-0.47868 -0.56372,-0.27009 -1.23008,-0.40535 -1.52924,-0.31039 -0.51493,0.16343 -0.52917,0.37936 -0.4934,7.49013 l 0.0369,7.32186 0.71194,-1.45521 c 0.39158,-0.80036 1.12945,-2.11005 1.63973,-2.91041 z m -0.92562,-1.80555 c -0.0933,-0.15101 -0.0407,-0.35423 0.11681,-0.45162 0.3932,-0.24301 0.5324,-0.0497 0.26999,0.37485 -0.14058,0.22747 -0.27694,0.25453 -0.3868,0.0768 z m 2.872,-1.25953 c 0.4042,-0.61692 0.40817,-0.72791 0.0404,-1.13424 -0.24805,-0.27411 -0.35018,-0.70549 -0.26088,-1.10211 0.13917,-0.61814 0.12562,-0.61381 -0.26316,0.0841 -0.22545,0.40469 -0.33528,0.93023 -0.24407,1.16789 0.12369,0.32234 0.0704,0.37456 -0.2099,0.20561 -0.30141,-0.18172 -0.29723,-0.12796 0.0212,0.27196 0.2313,0.29051 0.25889,0.41556 0.0661,0.29976 -0.22182,-0.13327 -0.33072,-0.0193 -0.33072,0.34609 0,0.75689 0.64354,0.68112 1.18096,-0.13905 z m 1.30125,-1.04971 c 0.0904,-0.23545 0.046,-0.34166 -0.10401,-0.24896 -0.14385,0.0889 -0.26154,0.27368 -0.26154,0.41061 0,0.38059 0.18965,0.29672 0.36555,-0.16165 z m -2.21763,-1.75505 c 0,-0.11857 0.22539,-0.21558 0.50085,-0.21558 0.27549,0 0.56423,-0.16512 0.64167,-0.36693 0.18415,-0.47989 -0.91959,-0.22981 -1.22182,0.27683 -0.11636,0.19508 -0.36581,0.35469 -0.5543,0.35469 -0.18849,0 -0.56917,0.25021 -0.84593,0.55603 l -0.50321,0.55604 0.99137,-0.47275 c 0.54525,-0.26001 0.99137,-0.56976 0.99137,-0.68833 z m 2.78595,-0.79656 c 0.70819,-1.35782 0.66913,-2.38273 -0.0629,-1.65066 -0.52824,0.52824 -1.36459,2.79507 -1.2005,3.25377 0.15523,0.4339 0.29046,0.26233 1.26344,-1.60311 z m -0.93387,0.72889 c 0,-0.20969 0.10795,-0.44798 0.2399,-0.52953 0.13194,-0.0815 0.17761,0.09 0.10144,0.38126 -0.16156,0.6178 -0.34134,0.69589 -0.34134,0.14827 z m 0.53758,-1.08953 c -0.005,-0.15408 0.1664,-0.51127 0.38005,-0.79375 0.21365,-0.28247 0.39224,-0.38751 0.39687,-0.23343 0.005,0.15409 -0.16639,0.51128 -0.38005,0.79375 -0.21365,0.28248 -0.39224,0.38752 -0.39687,0.23343 z m -282.252676,-3.66351 0.99218754,7.9e-4 -0.013946,-1.60039 -0.013946,-1.60039 -0.58136664,1.39129 c -0.3288075,0.78689 -0.7152132,1.34023 -0.8894693,1.27376 -0.1694567,-0.0647 -0.7373408,0.1013 -1.2619651,0.36877 -0.6743563,0.34381 -1.281842,0.44446 -2.0731472,0.34348 -1.2780142,-0.16307 -1.1891882,0.15855 0.1240597,0.4492 0.5862894,0.12976 1.1776823,0.0585 1.799364,-0.21693 0.5093229,-0.22561 1.372526,-0.40989 1.9182291,-0.4095 z m 280.649196,-0.0319 c -1.94651,-0.49709 -3.30465,-1.42839 -3.84847,-2.63902 -0.34208,-0.76144 -0.357,-0.7196 -0.36695,1.02787 l -0.0103,1.82162 0.54525,-0.69319 0.54526,-0.69318 0.57922,0.66408 c 0.36801,0.42192 1.01341,0.74105 1.76985,0.87515 1.63687,0.29018 2.24489,0.009 0.78618,-0.36333 z m 4.38123,-0.0593 c 0.0827,-0.40018 0.27811,-1.16032 0.43416,-1.68919 0.15608,-0.52887 0.23347,-1.11247 0.172,-1.29688 -0.0615,-0.18441 -0.35488,0.57573 -0.65198,1.68919 -0.29713,1.11347 -0.44223,2.02448 -0.32242,2.02448 0.1198,0 0.28551,-0.32742 0.36824,-0.7276 z m -2.78616,-0.04 c 0,-0.13115 -0.43173,-0.49318 -0.95938,-0.80451 -1.11782,-0.65952 -1.07479,-0.98873 0.0565,-0.43272 1.50847,0.74138 3.16333,-0.22095 3.45337,-2.00823 l 0.14829,-0.91394 -0.95252,0.1112 c -0.5239,0.0612 -0.95255,0.007 -0.95255,-0.12119 0,-0.12782 0.35586,-1.07937 0.79081,-2.11457 0.8383,-1.99526 0.80634,-2.69131 -0.19508,-4.24637 -0.98623,-1.5315 -3.89416,-2.05212 -4.9494,-0.88612 -0.43609,0.48188 -0.43344,0.49929 0.0565,0.37116 0.71274,-0.18638 1.47582,0.6273 1.25214,1.33516 -0.0966,0.30572 -0.17505,0.73446 -0.17433,0.95274 0,0.27505 -0.25604,0.38883 -0.83706,0.37067 -1.27614,-0.0399 -1.35753,-0.0664 -1.97914,-0.64556 l -0.57907,-0.53947 0.036,2.58999 c 0.0198,1.4245 0.0891,2.31074 0.15399,1.96943 0.12271,-0.64539 2.33791,-2.95185 2.83387,-2.95059 0.15586,2.6e-4 -0.25239,0.4823 -0.90723,1.07091 -0.65484,0.5886 -0.9525,0.94748 -0.66146,0.7975 0.82217,-0.42369 1.32093,-0.87896 1.84515,-1.68428 0.33735,-0.51826 0.56613,-0.65752 0.76065,-0.46302 0.4653,0.4653 0.70128,0.31497 0.70554,-0.44943 0.003,-0.40018 0.11404,-0.90147 0.24844,-1.11396 0.2085,-0.32963 0.33415,-0.3102 0.85585,0.13229 0.86895,0.73704 1.00079,0.96334 0.99587,1.70927 -0.006,0.93577 -0.46022,1.42182 -1.9385,2.07514 -1.06045,0.46867 -1.23396,0.63681 -0.97681,0.94664 0.39272,0.47323 1.86944,1.00806 1.86944,0.67708 0,-0.13331 -0.32743,-0.42 -0.72761,-0.63711 -0.40018,-0.2171 -0.57335,-0.39949 -0.38484,-0.40532 0.41342,-0.0128 1.64161,1.16989 1.64161,1.58077 0,0.36929 -1.18689,0.1929 -2.76984,-0.41164 -0.89133,-0.3404 -1.28302,-0.38097 -1.54877,-0.16042 -0.27223,0.22594 -0.3557,0.19759 -0.3557,-0.12078 0,-0.22879 0.30758,-0.53875 0.68352,-0.68879 0.46247,-0.18459 0.56378,-0.31678 0.31327,-0.40878 -0.2776,-0.10195 -0.2114,-0.26399 0.26458,-0.64768 l 0.63482,-0.51171 -0.66146,0.31467 c -0.3638,0.17307 -0.96856,0.6006 -1.34393,0.95006 -0.63455,0.59078 -0.66844,0.73885 -0.48249,2.10895 0.2163,1.59405 0.5035,2.20812 0.5035,1.0766 0,-0.70672 0.0333,-0.7258 1.91823,-1.09864 0.36653,-0.0725 0.45752,0.0825 0.43664,0.74354 -0.0204,0.6422 -0.0661,0.71288 -0.19843,0.30596 -0.0947,-0.29104 -0.38042,-0.56415 -0.63508,-0.60691 -0.49959,-0.0839 -0.63389,0.3378 -0.19413,0.60958 0.1479,0.0914 0.20103,0.27603 0.11806,0.41027 -0.24913,0.40309 1.1263,1.57144 1.84997,1.57144 0.37041,0 0.67349,0.11906 0.67349,0.26458 0,0.14552 0.0595,0.26459 0.13229,0.26459 0.0728,0 0.1323,-0.10731 0.1323,-0.23845 z m 4.1521,-3.12996 c -0.0671,-0.25743 -0.12639,-0.11087 -0.13179,0.3257 -0.005,0.43656 0.0495,0.64718 0.12198,0.46805 0.0725,-0.17913 0.0769,-0.53632 0.01,-0.79375 z m -1.28066,-3.16264 c 0.5143,-0.97913 0.33634,-1.22188 -0.31859,-0.43457 -0.64656,0.77723 -1.22994,1.76834 -1.22994,2.08951 0,0.28572 1.20637,-1.00356 1.54853,-1.65494 z M -0.79383936,157.91683 c -0.01207,-1.66632 -0.084227,-2.14719 -0.25748114,-1.71594 -0.2667593,0.664 -1.4359096,1.21946 -2.1652918,1.02873 -0.25898,-0.0677 -0.4708728,-0.0622 -0.4708728,0.0122 0,0.10518 2.5502049,2.74596 2.84427074,2.94529 0.03638,0.0247 0.058599,-0.99696 0.049375,-2.27027 z m 281.73754936,0.0498 c -0.0887,-0.0887 -0.30387,0.11684 -0.47818,0.45672 -0.30297,0.59078 -0.29588,0.59787 0.16127,0.16125 0.26299,-0.2512 0.4056,-0.52928 0.31691,-0.61797 z m -1.20067,-0.0941 c 0.47513,-0.42453 0.80327,-0.8325 0.72919,-0.90659 -0.0741,-0.0741 -0.59317,0.27326 -1.15351,0.77189 -0.56036,0.49862 -0.88847,0.90659 -0.72919,0.90659 0.15931,0 0.67837,-0.34735 1.15351,-0.77189 z m 1.52572,-0.93229 c 0,-0.0642 -0.11907,-0.19026 -0.26459,-0.2802 -0.14552,-0.0899 -0.26458,-0.0374 -0.26458,0.11668 0,0.15411 0.11906,0.2802 0.26458,0.2802 0.14552,0 0.26459,-0.0525 0.26459,-0.11668 z m -3.74428,-0.91126 c 0.19621,-0.12435 0.31528,-0.44009 0.26458,-0.70163 -0.1026,-0.52932 -0.75364,-0.86927 -0.75364,-0.39353 0,0.16623 0.11906,0.22866 0.26459,0.13872 0.14552,-0.0899 0.26458,0.0258 0.26458,0.25728 0,0.57208 -0.75457,0.82053 -1.35438,0.44594 -0.67646,-0.42246 -0.89106,-0.38343 -0.4977,0.0905 0.36192,0.43608 1.25415,0.51619 1.81197,0.16269 z m -1.61031,-1.02258 c -0.0346,-0.10914 0.10094,-0.59025 0.30118,-1.06913 0.2913,-0.69672 0.59465,-0.93237 1.5181,-1.17936 0.63473,-0.16976 1.15406,-0.40303 1.15406,-0.51837 0,-0.65179 -2.38581,0.25564 -3.00813,1.14413 -0.47689,0.68083 -0.58137,1.82116 -0.16687,1.82116 0.14552,0 0.23627,-0.0893 0.20166,-0.19843 z M -0.77706846,152.81943 v -1.59167 l -0.77681644,0.86407 -0.7768164,0.86407 0.7106705,0.69906 c 0.3908687,0.38448 0.74043624,0.71191 0.77681644,0.7276 0.03638,0.0157 0.066146,-0.68771 0.0661459,-1.56313 z M 275.55947,151.47903 c -0.40685,-0.42465 -0.77697,-0.77209 -0.82251,-0.77209 -0.0455,0 -0.0828,0.53884 -0.0828,1.19742 v 1.19742 l 0.82251,-0.42533 0.82249,-0.42533 z m 4.91554,0.81541 c 0,-0.14552 -0.1786,-0.26459 -0.39688,-0.26459 -0.21828,0 -0.39687,0.11907 -0.39687,0.26459 0,0.14552 0.17859,0.26458 0.39687,0.26458 0.21828,0 0.39688,-0.11906 0.39688,-0.26458 z M -9.8390479,151.96371 c -0.06063,-0.1819 -0.2689931,-0.33073 -0.4630201,-0.33073 -0.194028,0 -0.402387,0.14883 -0.463021,0.33073 -0.06558,0.19674 0.122002,0.33073 0.463021,0.33073 0.3410181,0 0.5286011,-0.13399 0.4630201,-0.33073 z M 276.90313,151.35793 c -0.29104,-0.21477 -0.73753,-0.6409 -0.99219,-0.94693 -0.25466,-0.30604 -0.46302,-0.4185 -0.46302,-0.24991 0,0.38326 1.29789,1.60713 1.69228,1.59577 0.16065,-0.005 0.054,-0.18414 -0.23707,-0.39893 z m 4.04731,-0.98579 c 1.39364,-1.30133 1.78016,-3.39735 0.97977,-5.31293 -0.21828,-0.52242 -0.39687,-1.25134 -0.39687,-1.61982 0,-0.68276 0.35967,-0.89367 0.66939,-0.39252 0.19963,0.32302 0.91811,-0.16712 0.91811,-0.62634 0,-0.58575 -1.38996,-2.2605 -2.1308,-2.56736 -1.32072,-0.54707 -2.86525,0.18718 -2.88787,1.37287 -0.005,0.24253 0.14041,0.49412 0.32231,0.55908 0.60765,0.21702 -0.0727,0.56218 -1.13313,0.57488 -0.62259,0.007 -1.04833,0.13958 -1.04883,0.32546 -0.003,0.57825 1.01494,0.64548 2.03462,0.13458 0.55398,-0.27757 1.34247,-0.58534 1.7522,-0.68392 0.71192,-0.17127 0.73927,-0.14296 0.61622,0.63777 -0.15314,0.97171 -0.60246,1.57496 -1.19513,1.60454 -0.24505,0.0122 -0.0949,0.16953 0.34849,0.36503 1.33593,0.58907 1.60625,2.30317 0.55215,3.50133 -0.61166,0.69527 -0.65362,0.70665 -0.66145,0.17944 -0.0101,-0.67203 -0.82728,-1.47 -0.9951,-0.97157 -0.13706,0.40706 -2.47576,-1.25065 -3.37651,-2.39334 l -0.65796,-0.83467 0.0151,2.38125 c 0.0116,1.86397 0.0755,2.25602 0.29366,1.80477 0.3892,-0.80502 1.59382,-1.27343 2.30126,-0.89482 1.21603,0.6508 1.33697,2.21456 0.20524,2.65344 -0.53745,0.2084 -0.51601,0.24739 0.35399,0.64428 1.12821,0.51468 2.27033,0.35315 3.12126,-0.44143 z M -1.5786579,148.9725 c -0.4700455,-0.87829 -1.4611236,-0.98513 -1.8205547,-0.19627 -0.3896894,0.85527 -0.3627829,1.13696 0.1086024,1.13696 0.2484134,0 0.396875,-0.25092 0.396875,-0.67077 0,-0.59272 0.062677,-0.63722 0.5386592,-0.38249 0.2962624,0.15856 0.6207558,0.66877 0.7210964,1.13379 0.1633815,0.75719 0.1924891,0.7792 0.2786676,0.21071 0.052926,-0.34914 -0.047579,-0.90351 -0.2233459,-1.23193 z M 283.62736,148.32569 c -0.01,-0.26169 -0.092,-0.21663 -0.24194,0.13229 -0.31255,0.72736 -0.31255,1.14511 0,0.66146 0.14108,-0.21828 0.24993,-0.57547 0.24194,-0.79375 z m -5.91622,0.50611 c 0.0978,-0.1582 0.0382,-0.42609 -0.13237,-0.59531 -0.23638,-0.23452 -0.27032,-0.20308 -0.14272,0.1322 0.11176,0.2937 0.007,0.48134 -0.31506,0.56462 -0.41373,0.10698 -0.4187,0.12912 -0.035,0.15544 0.24606,0.0169 0.52739,-0.0987 0.62518,-0.25695 z M -0.77706846,146.84167 v -2.01318 l -1.05833334,1.28073 c -0.5820834,0.7044 -1.0583334,1.35732 -1.0583334,1.45094 0,0.0936 0.3599977,0.24221 0.799995,0.33021 0.439997,0.088 0.8694541,0.34101 0.9543491,0.56224 0.28654544,0.74673 0.36232264,0.40981 0.36232264,-1.61094 z m 284.79177846,0.095 c 0.10361,-0.43195 0.065,-0.72761 -0.0951,-0.72761 -0.1483,0 -0.26963,0.37703 -0.26963,0.83785 0,0.96342 0.11549,0.92851 0.3647,-0.11024 z M -1.8653958,145.0325 c -0.2423528,-0.24235 -1.2929227,0.66719 -1.2929227,1.11937 0,0.34582 0.1552787,0.28672 0.7135733,-0.27157 0.3924652,-0.39247 0.6531724,-0.77398 0.5793494,-0.8478 z m 282.2908458,0.77651 c -0.22603,-0.49603 -0.47622,-0.64702 -0.98653,-0.59531 -0.53046,0.0537 -0.70236,-0.0619 -0.76694,-0.516 -0.0704,-0.49495 -0.20262,-0.5614 -0.8568,-0.43057 -0.94883,0.18977 -2.01668,-0.44357 -2.17967,-1.29274 -0.0896,-0.46677 -0.12361,-0.41839 -0.15155,0.2156 -0.0286,0.64853 0.1143,0.88981 0.69157,1.16773 0.40018,0.19267 1.00412,0.32119 1.34207,0.28561 0.42651,-0.0449 0.6573,0.0991 0.75451,0.4708 0.0837,0.32025 0.44707,0.60293 0.90384,0.70326 0.42011,0.0923 0.83175,0.27766 0.91475,0.41199 0.33766,0.54633 0.61595,0.19684 0.33475,-0.42037 z m -2.93251,-0.0244 c -0.0879,-0.0879 -0.31612,-0.0973 -0.50713,-0.0209 -0.21106,0.0845 -0.14838,0.14715 0.15986,0.15985 0.2789,0.0115 0.43519,-0.0511 0.34727,-0.13897 z m 6.60403,-1.09691 c -0.0666,-0.25467 -0.121,-0.0463 -0.121,0.46302 0,0.50932 0.0545,0.71768 0.121,0.46302 0.0666,-0.25466 0.0666,-0.67138 0,-0.92604 z M -5.0104018,144.22465 c -0.1811573,-0.21828 -0.4484394,-0.39688 -0.5939602,-0.39688 -0.1475917,0 -0.1189418,0.17549 0.064794,0.39688 0.1811573,0.21828 0.4484393,0.39687 0.5939602,0.39687 0.1475917,0 0.1189418,-0.17549 -0.064794,-0.39687 z M 282.89309,143.805 c -0.93028,-0.7542 -1.3488,-0.59637 -0.46932,0.17699 0.41695,0.36667 0.83367,0.59078 0.92604,0.49803 0.0923,-0.0927 -0.11319,-0.39651 -0.45672,-0.67502 z m -2.94725,-0.29952 c 0,-0.30082 -0.99806,-0.25388 -1.18954,0.0559 -0.0941,0.15231 0.12181,0.23929 0.51355,0.20687 0.3718,-0.0308 0.67599,-0.14904 0.67599,-0.26282 z m -3.96875,-3.24616 c 0,-0.0412 -0.29766,-0.26989 -0.66146,-0.50826 l -0.66146,-0.43341 0.003,1.65975 0.003,1.65975 0.65826,-1.15149 c 0.36206,-0.63332 0.65828,-1.18517 0.65828,-1.22634 z m -276.75415846,0.89022 c 0,-0.92495 -0.058557,-1.04213 -0.38528504,-0.77097 -0.2119066,0.17587 -0.5095628,0.24295 -0.6614583,0.14907 -0.1518954,-0.0939 -0.2761734,-0.0446 -0.2761734,0.10952 0,0.1541 0.121615,0.28019 0.2702558,0.28019 0.1486405,0 0.4058769,0.29766 0.5716362,0.66146 0.41074824,0.9015 0.48102474,0.83878 0.48102474,-0.42927 z M 277.48336,140.72395 c -0.0671,-0.25743 -0.12639,-0.11087 -0.13179,0.3257 -0.005,0.43656 0.0495,0.64718 0.12198,0.46805 0.0725,-0.17913 0.0769,-0.53632 0.01,-0.79375 z m 1.99586,-2.49774 c 0.65484,-0.31254 1.05897,-0.27098 0.83823,0.0862 -0.12412,0.20084 -0.0717,0.23312 0.15298,0.0942 0.21955,-0.13568 0.51594,0.0153 0.82875,0.42214 0.38076,0.49521 0.48826,0.53699 0.49287,0.19151 0.003,-0.24302 -0.67273,-1.0467 -1.50215,-1.78594 -1.25145,-1.1154 -1.6791,-1.34408 -2.51354,-1.34408 -0.55303,0 -1.00552,-0.11906 -1.00552,-0.26458 0,-0.34808 1.62107,-0.33932 2.54979,0.0138 0.69474,0.26414 0.71011,0.25399 0.30067,-0.19844 -0.23733,-0.26224 -0.43997,-0.59586 -0.45035,-0.74138 -0.0103,-0.14552 -0.19745,-0.2497 -0.41574,-0.23151 -0.21828,0.0182 -0.5825,0.0479 -0.80936,0.0661 -0.22688,0.0182 -0.3389,0.15214 -0.24897,0.29766 0.0899,0.14552 -0.0291,0.26458 -0.26458,0.26458 -0.23546,0 -0.35954,-0.11091 -0.27578,-0.24648 0.0838,-0.13556 -0.0675,-0.40345 -0.33626,-0.59531 -0.26871,-0.19186 -0.69461,-0.66632 -0.94641,-1.05436 -0.43606,-0.67194 -0.43506,-0.71878 0.0212,-0.98414 0.26352,-0.1533 0.32848,-0.28224 0.14435,-0.28666 -0.18404,-0.004 -0.57055,-0.395 -0.85891,-0.86794 l -0.52428,-0.8599 -0.0334,2.38125 c -0.0185,1.30969 -0.0486,3.09372 -0.0672,3.96452 -0.0403,1.88985 0.22402,2.03714 2.35521,1.31272 0.85968,-0.29222 1.56144,-0.38642 1.87396,-0.25156 0.48078,0.20746 0.47967,0.21942 -0.0296,0.31723 -1.47817,0.28394 -1.72868,0.38176 -1.58271,0.61797 0.0873,0.14126 0.0326,0.25683 -0.12147,0.25683 -0.15409,0 -0.28019,0.18215 -0.28019,0.40477 0,0.33546 0.19259,0.30504 1.12447,-0.1776 0.61847,-0.32031 1.33123,-0.68105 1.58391,-0.80165 z m 0.90596,-3.61192 c -0.24164,-0.26701 -0.43934,-0.6179 -0.43934,-0.77976 0,-0.16185 -0.11285,-0.36402 -0.25075,-0.44925 -0.13919,-0.086 -0.20169,0.0998 -0.14052,0.41749 0.12094,0.62789 0.92673,1.64024 1.13768,1.42929 0.0728,-0.0728 -0.0654,-0.35076 -0.30707,-0.61777 z m -3.07991,-1.62458 c -0.16645,-0.31103 -0.4386,-0.45766 -0.67852,-0.36559 -0.34359,0.13185 -0.33362,0.20458 0.0702,0.5109 0.6776,0.51406 0.92912,0.45399 0.60836,-0.14531 z m 1.6723,-0.3215 c 0.18817,-0.29831 0.11176,-0.62342 -0.27609,-1.17488 -0.29496,-0.41934 -0.9783,-1.6554 -1.51853,-2.74681 -0.54025,-1.09141 -1.09217,-2.19122 -1.2265,-2.44404 -0.40918,-0.77008 -1.02875,-2.68347 -1.05061,-3.2445 -0.0177,-0.4519 -0.0592,-0.43258 -0.28506,0.13229 -0.14544,0.3638 -0.20383,1.4949 -0.12975,2.51354 0.0741,1.01865 0.1411,2.19796 0.14893,2.6207 0.0138,0.74177 0.032,0.75251 0.52369,0.30753 0.53372,-0.48299 1.36433,-0.48279 1.52519,3.8e-4 0.0518,0.15552 -0.20626,0.44353 -0.5734,0.64002 -0.86741,0.46422 -0.84267,0.92713 0.0999,1.8697 0.55358,0.5536 0.73276,0.63492 0.64304,0.29189 -0.0684,-0.26154 0.0625,-0.63061 0.29094,-0.82016 0.35213,-0.29225 0.4155,-0.26932 0.4169,0.15077 0,0.27248 0.17886,0.83523 0.39547,1.25056 0.21659,0.41533 0.31835,0.87726 0.22611,1.02651 -0.0922,0.14926 -0.0108,0.21907 0.18095,0.15515 0.19175,-0.0639 0.46572,-0.30181 0.60881,-0.52866 z m -1.07164,-6.83247 c 0.0762,-0.29124 0.0305,-0.46281 -0.10144,-0.38126 -0.13195,0.0815 -0.2399,0.31984 -0.2399,0.52953 0,0.54762 0.17978,0.46953 0.34134,-0.14827 z M -0.86091126,119.17191 c -0.084462,-0.21107 -0.14715674,-0.14837 -0.15985254,0.15985 -0.011488,0.27892 0.051045,0.43519 0.13896444,0.34727 0.087919,-0.0879 0.097319,-0.31612 0.0208881,-0.50712 z M 276.05575,116.02624 c 0.11605,-0.0873 0.0267,-0.31162 -0.19844,-0.49849 -0.35282,-0.29283 -0.40939,-0.23781 -0.40939,0.39818 0,0.40587 0.0893,0.6302 0.19844,0.49849 0.10914,-0.1317 0.29337,-0.31088 0.40939,-0.39818 z M -2.0338393,192.60046 c -0.1819011,-0.0734 -0.3307292,-0.24962 -0.3307292,-0.3916 0,-0.14198 0.1176988,-0.18541 0.2615528,-0.0965 0.1481905,0.0916 0.1953665,-0.0108 0.1088461,-0.2363 -0.2838476,-0.73969 0.2082327,-1.07076 0.5839738,-0.39289 0.61875564,1.11629 0.3899162,1.52627 -0.6236435,1.11729 z m 12.0385413,0 c 0.181901,-0.0734 0.479557,-0.0734 0.661458,0 0.181901,0.0734 0.03307,0.13345 -0.330729,0.13345 -0.3638019,0 -0.51263,-0.06 -0.330729,-0.13345 z m 121.989448,-0.005 c 0.19099,-0.0764 0.4192,-0.067 0.50712,0.0209 0.0879,0.0879 -0.0683,0.15046 -0.34727,0.13897 -0.30822,-0.0127 -0.37092,-0.0754 -0.15985,-0.15985 z M -4.2578276,189.6479 c -0.4095218,-0.28684 -0.4871995,-0.63355 -0.4323492,-1.92977 0.053971,-1.27545 0.12618,-1.499 0.3744999,-1.1594 0.1692003,0.2314 0.2421567,0.67112 0.1621256,0.97715 -0.1753259,0.67045 0.5313825,1.27106 1.4955943,1.27106 0.4906047,0 0.5863576,0.0774 0.366981,0.29682 -0.1632532,0.16326 -0.2452809,0.43115 -0.1822833,0.59532 0.1601274,0.41728 -1.1702137,0.37913 -1.7845683,-0.0512 z m 1.3640924,-2.00328 c 0,-0.0572 0.1785938,-0.17251 0.396875,-0.25628 0.2182813,-0.0838 0.396875,-0.037 0.396875,0.10399 0,0.14095 -0.1785937,0.25628 -0.396875,0.25628 -0.2182812,0 -0.396875,-0.0468 -0.396875,-0.10399 z M 273.39264,184.83819 c 0,-0.50932 0.0545,-0.71768 0.12099,-0.46302 0.0666,0.25466 0.0666,0.67138 0,0.92604 -0.0665,0.25466 -0.12099,0.0463 -0.12099,-0.46302 z M -4.245316,183.13383 c -0.2200761,-0.22007 0.3879562,-3.03789 0.6796019,-3.14949 0.4456245,-0.17052 0.3106645,2.41814 -0.1500912,2.8789 -0.2200291,0.22002 -0.4583089,0.34179 -0.5295107,0.27059 z m 1.3443101,-1.62206 c -0.3556852,-0.93552 -0.1109615,-2.18931 0.3394167,-1.73893 0.2246506,0.22465 0.2258579,0.37985 0.00468,0.60103 -0.203677,0.20368 -0.2181016,0.50879 -0.045514,0.96273 0.1389653,0.36551 0.1931332,0.72409 0.1203728,0.79685 -0.072761,0.0728 -0.2612885,-0.20699 -0.4189508,-0.62168 z m -7.7791261,-17.50952 c 0.114245,-0.25466 0.325613,-1.61874 0.469708,-3.03128 l 0.2619901,-2.56826 0.507811,1.37764 c 0.279296,0.75769 0.56901,1.7566 0.643808,2.21978 0.12309,0.76223 0.08105,0.82779 -0.442917,0.69077 -0.468393,-0.12249 -0.561923,-0.0511 -0.489912,0.37397 0.09328,0.55059 -0.4514881,1.4004 -0.8977121,1.4004 -0.150831,0 -0.173049,-0.19492 -0.05278,-0.46302 z m 1.2503111,-2.29061 c -0.261455,-0.35034 -0.516369,-0.525 -0.566476,-0.38815 -0.1613661,0.44072 0.194545,1.02512 0.624318,1.02512 0.364302,0 0.356928,-0.0812 -0.05784,-0.63697 z m 3.096502,0.14881 c 0,-0.26849 0.235182,-0.701 0.5226264,-0.96113 0.5711851,-0.51692 2.9169573,-0.84287 2.9169573,-0.40532 0,0.1469 -0.2678906,0.26755 -0.5953124,0.26809 -0.6925937,0.001 -2.3151042,0.92488 -2.3151042,1.31804 0,0.14766 -0.1190621,0.26848 -0.2645831,0.26848 -0.145521,0 -0.264584,-0.21968 -0.264584,-0.48816 z m 1.0087244,0.30742 c 0.1909961,-0.0764 0.4191992,-0.067 0.5071182,0.0209 0.087919,0.0879 -0.068351,0.15045 -0.3472657,0.13897 -0.3082245,-0.0127 -0.3709193,-0.0754 -0.1598525,-0.15985 z m 1.1613451,-0.6002 c 0.1861588,-0.29809 0.567799,-0.54198 0.8480894,-0.54198 0.2802905,0 0.4600098,0.036 0.3993763,0.0801 -0.060634,0.044 -0.442274,0.28793 -0.8480896,0.54198 -0.7275922,0.45547 -0.7331426,0.45436 -0.3993761,-0.0801 z m -2.5259365,-2.08417 c -0.240836,-0.26612 -0.437883,-0.69742 -0.437883,-0.95844 0,-0.39029 0.06997,-0.41651 0.393962,-0.14762 0.216679,0.17983 0.328715,0.43253 0.248969,0.56156 -0.07975,0.12903 -0.04166,0.23461 0.08463,0.23461 0.126295,0 0.460744,0.1748 0.7432188,0.38846 0.5043072,0.38144 0.5035714,0.38861 -0.040715,0.39687 -0.3048678,0.005 -0.7513518,-0.20932 -0.9921868,-0.47544 z M 284.35557,156.88055 c -0.097,-0.097 -0.1764,-0.35498 -0.1764,-0.57326 0,-0.47972 0.34481,-0.18744 0.42521,0.36043 0.0633,0.43136 0.013,0.47451 -0.24881,0.21283 z M -6.2371439,151.87303 c -0.456427,-0.22514 -1.076527,-0.63915 -1.378,-0.92001 -0.301472,-0.28087 -0.659265,-0.51067 -0.795095,-0.51067 -0.308949,0 -0.655972,-1.16258 -0.710784,-2.38125 -0.04308,-0.95788 0.33777,-2.11666 0.695678,-2.11666 0.112356,0 0.270508,-0.20866 0.351449,-0.46368 0.08094,-0.25502 0.416386,-0.63133 0.745434,-0.83625 0.514812,-0.32061 0.558781,-0.32052 0.315198,5.2e-4 -0.55872,0.73669 -0.977941,2.60829 -0.846144,3.77759 0.233558,2.07213 1.712108,3.44764 3.6379931,3.38447 0.8640204,-0.0283 1.0853721,0.0326 0.798513,0.21996 -0.5853181,0.38222 -1.8694908,0.31188 -2.8142421,-0.15414 z m 0.292061,-2.90257 c -0.08925,-0.28186 -0.272651,-0.71922 -0.40755,-0.97191 -0.311064,-0.58268 -0.308606,-1.54432 0.0052,-2.04036 0.164734,-0.26039 0.216084,-0.0485 0.16029,0.66146 -0.04515,0.57452 -0.03205,0.86175 0.02912,0.6383 0.195489,-0.71419 1.354767,-1.98552 1.5869134,-1.74031 0.1222013,0.12908 0.070846,0.28864 -0.1141423,0.35463 -0.613079,0.21872 -1.1372913,1.56864 -0.8689631,2.23771 0.2344817,0.58467 0.2468232,0.57642 0.2708611,-0.18117 0.024178,-0.76199 0.5306507,-1.71979 0.9094097,-1.71979 0.4002066,0 -0.2068647,2.02621 -0.7877175,2.62915 -0.5909931,0.61346 -0.6290323,0.61988 -0.7834333,0.13229 z m -3.827819,-1.71872 c 0,-0.15411 0.119063,-0.20661 0.264584,-0.11668 0.14552,0.0899 0.264583,0.21603 0.264583,0.2802 0,0.0642 -0.119063,0.11668 -0.264583,0.11668 -0.145521,0 -0.264584,-0.12609 -0.264584,-0.2802 z m -0.2645831,-0.73404 c 0,-0.12127 0.0893,-0.3096 0.1984371,-0.41853 0.109141,-0.10892 0.320094,-0.63043 0.468786,-1.15891 0.22608,-0.80353 0.419966,-0.99146 1.184088,-1.14774 1.258413,-0.25738 1.551603,0.0159 0.541797,0.50493 -0.475391,0.23024 -1.060144,0.84409 -1.355402,1.42284 -0.469758,0.9208 -1.0377061,1.35723 -1.0377061,0.79741 z m 0.0041,-2.88837 c -0.0029,-1.00433 -0.105427,-1.38906 -0.370067,-1.38906 -0.37072,0 -0.792005,-1.04684 -0.527665,-1.31118 0.07902,-0.079 0.489333,0.24321 0.911818,0.71605 0.4224841,0.47284 0.8098451,0.85971 0.8608011,0.85971 0.089,0 0.139706,-0.64542 0.283663,-3.61037 0.0652,-1.34292 0.203573,-1.67087 2.897542,-6.86749 0.4602829,-0.88788 0.9893818,-1.79808 1.1757757,-2.02267 0.1863937,-0.22459 0.315494,-0.51018 0.2868891,-0.63464 -0.028605,-0.12445 0.08628,-0.56146 0.2552999,-0.97111 0.4437448,-1.07551 0.3960997,-2.29788 -0.089566,-2.29788 -0.5055864,0 -0.5142412,-0.43719 -0.014195,-0.71703 0.3080782,-0.17241 0.3392988,-0.52314 0.160151,-1.79909 -0.2411822,-1.71778 0.057858,-2.52404 0.502448,-1.35468 0.1942343,0.51088 0.1824376,0.85542 -0.041569,1.21411 -0.2347166,0.37584 -0.238356,0.66412 -0.014584,1.15524 0.1639985,0.35994 0.2279052,0.92316 0.1420153,1.25161 -0.1079775,0.4129 -0.061663,0.53876 0.1500976,0.40789 0.1684436,-0.10411 0.3062613,-0.70485 0.3062613,-1.33498 0,-1.22163 0.8017253,-2.62733 1.1640804,-2.04102 0.1045363,0.16914 0.072,0.30753 -0.072302,0.30753 -0.4708604,0 -0.8614526,1.53773 -0.5113438,2.01312 0.1259099,0.17096 -0.00605,0.57565 -0.3163388,0.97011 -0.436478,0.5549 -0.4830439,0.80652 -0.2585354,1.39702 0.1506058,0.39612 0.210966,0.78309 0.1341342,0.85992 -0.076832,0.0768 -0.1553678,-0.029 -0.1745242,-0.23513 -0.019157,-0.20616 -0.112263,0.0419 -0.2069034,0.55121 -0.09464,0.50932 -0.2923751,0.90452 -0.4394112,0.87821 -0.1470359,-0.0263 -0.2847385,0.18316 -0.306006,0.46549 -0.021267,0.28233 -0.2841085,0.85801 -0.5840918,1.2793 -0.5775356,0.81108 -0.7003621,1.34575 -0.3091484,1.34575 0.4685371,0 0.5286867,0.80511 0.1527204,2.04417 -0.4367953,1.43953 -0.4688956,1.66633 -0.1689719,1.19387 0.1387023,-0.21849 0.5029586,-0.27563 1.054282,-0.16536 1.035264,0.20705 1.084802,0.51557 0.1147562,0.7147 -0.7285919,0.14957 -3.0961542,1.73747 -2.8931862,1.94044 0.0593,0.0593 0.429738,-0.0146 0.823195,-0.16417 0.921803,-0.35047 2.290918,-0.34179 2.7975953,0.0177 0.2965225,0.2104 0.1071938,0.24848 -0.7487581,0.15058 -1.1732045,-0.13418 -2.6215622,0.2946 -3.1531432,0.93349 -0.232334,0.27923 -0.01717,0.32886 1.114777,0.25716 2.4749215,-0.15677 3.6637405,0.96442 2.7778152,2.61979 -0.4436605,0.82898 -0.8261932,0.60652 -0.6423295,-0.37356 0.2259137,-1.20423 -0.3595348,-1.76051 -1.8528206,-1.76051 -1.3723241,0 -2.6941461,1.05605 -2.9551261,2.36095 -0.131918,0.65959 -0.236411,0.76287 -0.527461,0.52132 -0.293126,-0.24327 -0.363733,-0.15501 -0.367005,0.45878 -0.0022,0.418 -0.119468,0.93859 -0.260532,1.15687 -0.183613,0.28412 -0.2576311,0.002 -0.2605321,-0.99219 z m 2.2200651,-4.29948 c 0.365455,-0.7276 0.58008,-1.32474 0.476944,-1.32696 -0.103135,-0.002 -0.06846,-0.0915 0.07706,-0.19844 0.145521,-0.10691 0.443177,-0.4256 0.661458,-0.7082 0.352778,-0.45672 0.352778,-0.48782 0,-0.27994 -0.352778,0.20789 -0.352778,0.17678 0,-0.27994 0.218281,-0.28259 0.46667,-0.57334 0.551974,-0.6461 0.2462524,-0.21004 0.7709428,-1.8796 0.7709428,-2.45313 0,-1.32607 -1.5145808,1.28164 -2.7769098,4.78111 -0.995609,2.76006 -0.874031,3.32665 0.238526,1.1116 z m 0.149031,-3.0427 c 0,-0.14552 -0.115416,-0.086 -0.25648,0.13229 -0.141065,0.21828 -0.256481,0.51594 -0.256481,0.66146 0,0.14552 0.115416,0.086 0.256481,-0.1323 0.141064,-0.21828 0.25648,-0.51593 0.25648,-0.66145 z m 4.5060194,7.70377 c 0,-0.0558 0.2382893,-0.16374 0.5295318,-0.23991 0.2912425,-0.0762 0.4628094,-0.0305 0.3812601,0.10144 -0.1424123,0.23042 -0.9107919,0.34725 -0.9107919,0.13847 z m -0.79375,-8.85339 c 0,-0.24315 0.8726101,-1.09934 1.1204194,-1.09934 0.083991,0 0.015084,0.29673 -0.1531252,0.65939 -0.2875632,0.62 -0.9672942,0.92916 -0.9672942,0.43995 z m -0.4445537,-0.46591 c 0.3069905,-0.54746 0.7863785,-1.82273 0.8348731,-2.22093 0.026583,-0.21828 0.068699,-0.7243 0.09359,-1.12448 0.024892,-0.40018 0.1515811,-0.72761 0.2815328,-0.72761 0.4026863,0 0.539945,0.72608 0.2972387,1.57234 -0.257348,0.89732 -0.1007496,1.04189 0.3946761,0.36436 0.298169,-0.40777 0.3506165,-0.39683 0.63379,0.13229 0.2744732,0.51286 0.2430449,0.57685 -0.2833047,0.57685 -0.325614,0 -1.0025271,0.38695 -1.5042517,0.85989 -0.5017244,0.47295 -0.8383894,0.72822 -0.7481443,0.56729 z m 1.7674704,-7.59873 c 0,-0.33756 1.0350939,-2.24953 1.3097306,-2.41926 0.35456444,-0.21913 -0.4712703,1.7496 -0.9360006,2.23136 -0.2055516,0.21308 -0.37373,0.29764 -0.37373,0.1879 z m -1.8053378,-8.82163 c 0.04705,-0.2426 0.2250056,-0.48753 0.3954563,-0.54428 0.1971418,-0.0656 0.2581193,0.0949 0.1675786,0.4411 -0.1691142,0.64669 -0.6868448,0.74157 -0.5630349,0.10318 z m 2.4667961,-0.35266 c -0.089937,-0.14552 -0.4839166,-0.2664 -0.8755107,-0.26863 -0.9934956,-0.006 -1.5113791,-0.352 -1.0552422,-0.70571 0.7238447,-0.56131 1.0946563,-0.70816 0.8698965,-0.34449 -0.1542846,0.24964 -0.098045,0.30494 0.1955371,0.19228 0.379204,-0.14551 1.5267776,0.76377 1.5267776,1.20975 0,0.2762 -0.476369,0.21628 -0.6614583,-0.0832 z m 28.9837015,-6.28525 c -14.106393,-0.0394 -24.2980861,-0.16809 -24.4386304,-0.30863 -0.1450562,-0.14506 31.4138644,-0.22575 79.2308794,-0.20257 43.709574,0.0212 76.138214,0.10054 72.063624,0.17634 -4.07458,0.0758 -26.87505,0.17697 -50.6677,0.22481 -23.792658,0.0479 -45.223907,0.10738 -47.625001,0.13229 -2.401094,0.0249 -15.25452,0.0149 -28.563172,-0.0222 z m 137.409213,-0.57159 c 1.14769,-0.085 2.87409,-0.0841 3.83645,0.002 1.17574,0.10536 0.49118,0.15609 -2.08671,0.15461 -2.9569,-0.002 -3.35805,-0.0376 -1.74974,-0.1568 z m 6.9918,0.0615 c 0.19099,-0.0764 0.4192,-0.067 0.50711,0.0209 0.0879,0.0879 -0.0683,0.15045 -0.34726,0.13896 -0.30823,-0.0127 -0.37092,-0.0754 -0.15985,-0.15985 z m 1.38249,-0.0956 c 0.2128,-0.1346 0.86316,-0.24472 1.44524,-0.24472 0.70076,0 0.93578,0.0776 0.69559,0.22978 -0.1995,0.12638 -0.84986,0.23651 -1.44524,0.24472 -0.76148,0.0105 -0.96776,-0.0576 -0.69559,-0.22978 z m 11.76399,-0.006 c -1.07273,-0.13312 -0.85173,-0.17202 1.16858,-0.20573 1.37032,-0.0229 2.44188,0.002 2.38125,0.0543 -0.24908,0.21665 -2.31423,0.30473 -3.54983,0.15141 z m 8.00673,-0.16984 c 0.32912,-0.0633 0.80537,-0.0609 1.05833,0.005 0.25297,0.0662 -0.0163,0.118 -0.59839,0.11506 -0.58209,-0.003 -0.78906,-0.0571 -0.45994,-0.1204 z m 6.47921,-0.0108 c 2.29195,-0.044 6.04242,-0.044 8.33437,0 2.29195,0.044 0.41672,0.0801 -4.16719,0.0801 -4.5839,0 -6.45914,-0.036 -4.16718,-0.0801 z"
       id="path3532" />
  </g>
</svg>
