<?xml version="1.0" encoding="UTF-8" standalone="no"?>
<!-- Created with Inkscape (http://www.inkscape.org/) -->

<svg
   width="41.567337mm"
   height="44.112774mm"
   viewBox="0 0 41.567334 44.112776"
   version="1.1"
   id="svg5"
   inkscape:version="1.1 (c4e8f9ed74, 2021-05-24)"
   sodipodi:docname="frame29.svg"
   xmlns:inkscape="http://www.inkscape.org/namespaces/inkscape"
   xmlns:sodipodi="http://sodipodi.sourceforge.net/DTD/sodipodi-0.dtd"
   xmlns="http://www.w3.org/2000/svg"
   xmlns:svg="http://www.w3.org/2000/svg">
  <sodipodi:namedview
     id="namedview7"
     pagecolor="#ffffff"
     bordercolor="#666666"
     borderopacity="1.0"
     inkscape:pageshadow="2"
     inkscape:pageopacity="0.0"
     inkscape:pagecheckerboard="0"
     inkscape:document-units="mm"
     showgrid="false"
     inkscape:zoom="1.3380612"
     inkscape:cx="12.331275"
     inkscape:cy="87.066274"
     inkscape:window-width="2506"
     inkscape:window-height="1403"
     inkscape:window-x="1974"
     inkscape:window-y="0"
     inkscape:window-maximized="1"
     inkscape:current-layer="layer1" />
  <defs
     id="defs2" />
  <g
     inkscape:label="Layer 1"
     inkscape:groupmode="layer"
     id="layer1"
     transform="translate(-50.030382,-115.66389)">
    <path
       style="fill:#000000;stroke-width:0.264583"
       d="m 75.167372,159.2726 c -0.65397,-0.29663 -1.27566,-0.68097 -1.38152,-0.85408 -0.61478,-1.00533 -0.60769,-1.00412 -2.07904,-0.35534 -2.06869,0.91217 -3.87145,1.2312 -6.95706,1.2312 -4.44382,0 -7.37339,-1.17554 -10.3814,-4.1657 -3.05246,-3.03435 -4.33797,-6.17832 -4.33797,-10.60935 0,-2.93278 0.82382,-5.80197 2.33903,-8.14629 1.37545,-2.12809 1.40295,-2.27081 0.53919,-2.79901 -0.91352,-0.55861 -1.81989,-2.27393 -1.81989,-3.44415 0,-0.48427 0.27959,-1.28666 0.62597,-1.79647 0.34428,-0.50673 0.71155,-1.31112 0.81616,-1.78755 0.36526,-1.66352 2.35585,-3.39093 4.6674,-4.0503 0.64158,-0.18301 1.40464,-0.52213 1.69568,-0.75361 0.29104,-0.23147 0.97565,-0.64671 1.52135,-0.92275 0.76121,-0.38505 0.99258,-0.66158 0.99386,-1.18784 0.003,-1.06618 1.25475,-1.65551 3.06533,-1.44271 0.97707,0.11483 1.41503,0.27948 1.36792,0.51425 -0.0381,0.18993 0.16864,0.52083 0.45946,0.73532 0.29081,0.21449 0.45781,0.46091 0.37112,0.54761 -0.0867,0.0867 -0.4437,-0.0631 -0.79334,-0.3329 -0.65785,-0.50761 -2.16646,-1.10438 -2.79185,-1.10438 -0.19657,0 -0.35739,0.16586 -0.35739,0.36857 0,0.20271 -0.1786,0.4371 -0.39688,0.52086 -0.60766,0.23318 -0.47264,0.66897 0.26458,0.854 0.36381,0.0913 0.66146,0.27444 0.66146,0.40696 0,0.13252 -0.27133,0.17284 -0.60295,0.0896 -0.34028,-0.0854 -1.1183,0.0772 -1.78594,0.37315 l -1.18298,0.52447 1.45521,0.0223 c 2.16535,0.0332 2.58786,0.19903 2.44262,0.9588 -0.0942,0.49297 -0.25093,0.6095 -0.68704,0.51093 -2.58213,-0.58364 -3.14097,-0.63536 -4.36257,-0.40368 -2.15845,0.40934 -3.88201,1.36194 -5.16859,2.85667 -0.38265,0.44455 -0.4293,0.66498 -0.19937,0.94203 0.2317,0.27918 0.1735,0.4763 -0.25516,0.86423 -1.36189,1.23249 -1.65835,3.02826 -0.74415,4.50747 0.39008,0.63116 0.74568,0.89113 1.21893,0.89113 0.47017,0 0.62524,-0.11193 0.52325,-0.3777 -0.11355,-0.29593 0.0443,-0.34699 0.72916,-0.23585 1.07048,0.17371 2.005,-0.28458 2.005,-0.98326 0,-0.42851 -0.18259,-0.51986 -1.03913,-0.51986 -1.98903,0 -2.79137,-2.18265 -1.46433,-3.98349 0.79215,-1.07498 2.31028,-1.56981 4.75242,-1.54906 1.92493,0.0164 3.29213,0.45771 1.50821,0.48687 -0.62569,0.0102 -1.51156,0.21198 -1.96861,0.44833 -0.78815,0.40756 -0.80533,0.44849 -0.33317,0.79375 0.27381,0.20021 0.65367,0.36402 0.84414,0.36402 0.19047,0 0.3463,0.1732 0.3463,0.38489 0,0.23082 0.37288,0.45483 0.93152,0.55964 0.97936,0.18372 3.76523,0.0262 4.88932,-0.27652 0.63705,-0.17155 0.6425,-0.16275 0.14786,0.23839 -0.28247,0.22909 -0.81825,0.42406 -1.19062,0.43329 l -0.67704,0.0168 0.66146,0.2716 c 0.3638,0.14938 1.34607,0.21266 2.18282,0.14061 0.83674,-0.072 1.52135,-0.0232 1.52135,0.1085 0,0.13172 0.29056,0.2395 0.64569,0.2395 0.77098,0 4.34705,-1.24465 4.91056,-1.70912 0.54578,-0.44985 1.32292,-0.70342 1.32292,-0.43164 0,0.12313 -0.15933,0.35611 -0.35406,0.51772 -0.52223,0.43341 -1.00822,2.28635 -0.82205,3.13426 0.32067,1.46056 0.34579,1.49434 0.81915,1.10148 0.23678,-0.19651 0.69505,-0.32264 1.01836,-0.28027 0.75763,0.0993 1.42766,-1.24552 1.74117,-3.49468 0.19845,-1.4237 0.69487,-3.05737 1.4603,-4.80572 0.13099,-0.2992 0.71442,-0.97044 1.2965,-1.49164 2.20898,-1.97793 4.78976,-2.70618 4.74151,-1.33798 -0.0175,0.497 0.28786,0.30068 1.85209,-1.19062 1.03018,-0.98216 1.9115,-1.93423 1.95846,-2.11571 0.13593,-0.52518 -1.22257,-0.88598 -2.63194,-0.69902 -1.70297,0.2259 -3.39611,1.33137 -4.78151,3.12189 -1.17174,1.51438 -1.65042,1.80263 -0.84647,0.50973 0.39756,-0.63936 0.3027,-0.59561 -0.64032,0.29533 -0.60886,0.57523 -1.10703,0.96195 -1.10703,0.85938 0,-0.10258 -0.44472,0.0519 -0.98827,0.34318 -1.28538,0.68892 -2.60779,0.69689 -2.97117,0.0179 -0.15064,-0.28147 -0.27389,-1.06079 -0.27389,-1.73181 0,-0.94774 0.14724,-1.36729 0.65969,-1.87974 0.54065,-0.54066 0.75549,-0.60842 1.19062,-0.37554 0.65637,0.35128 0.68708,-0.0122 0.0659,-0.77936 -0.55849,-0.68971 -2.11231,-0.82684 -2.55221,-0.22524 -0.21842,0.29871 -0.40401,0.32985 -0.73214,0.12287 -0.54504,-0.3438 -1.27765,0.18091 -1.27765,0.91508 0,0.30968 -0.1872,0.49677 -0.49707,0.49677 -0.29563,0 -0.62214,0.30194 -0.8057,0.7451 -0.38701,0.93433 -0.10126,1.75202 1.0866,3.10936 0.85978,0.98245 0.86242,0.99292 0.12994,0.51497 -0.41122,-0.26832 -1.0363,-0.9126 -1.38906,-1.43173 -0.35276,-0.51913 -0.64138,-0.84437 -0.64138,-0.72276 0,0.12162 -0.40956,-0.13848 -0.91014,-0.57799 -0.50057,-0.43951 -1.12466,-0.91916 -1.38686,-1.06589 -0.98563,-0.55159 -0.0765,-0.59241 1.14635,-0.0515 0.88125,0.38982 1.30616,0.46908 1.3769,0.25686 0.0563,-0.16883 0.37949,-0.62095 0.71825,-1.00473 0.33877,-0.38377 0.90927,-1.05495 1.26778,-1.49152 l 0.65183,-0.79375 9.68045,-0.0756 c 9.1433,-0.0714 9.68071,-0.0493 9.68535,0.39687 0.0739,7.09994 -0.0456,29.34585 -0.16117,29.99831 -0.20002,1.12977 -0.85451,2.62101 -1.15034,2.62101 -0.12289,0 -0.4231,0.49898 -0.66712,1.10885 -0.24402,0.60988 -0.76297,1.51283 -1.15321,2.00657 -1.05671,1.33696 -3.52297,3.64202 -3.80763,3.55875 -0.13669,-0.04 -0.18031,0.0377 -0.0969,0.17258 0.0834,0.1349 -0.53487,0.83997 -1.37388,1.56681 -1.12865,0.97777 -2.05913,1.50068 -3.57707,2.01023 -2.45594,0.82443 -2.8773,0.83757 -4.42015,0.13776 z m 3.86302,-0.48324 c 1.23852,-0.56245 2.22082,-1.33367 2.22082,-1.74358 0,-0.16452 -0.42208,-0.23867 -1.02902,-0.18079 -1.58043,0.15072 -2.19928,-0.30327 -2.10944,-1.54747 0.0877,-1.21515 -0.0682,-1.43062 -0.88678,-1.22518 -0.77097,0.1935 -1.62264,1.60586 -1.46514,2.42973 0.1054,0.55137 0.0371,0.61162 -0.56835,0.50167 -0.37848,-0.0687 -0.86362,-0.009 -1.07809,0.13286 -0.33018,0.21832 -0.2927,0.36133 0.24456,0.93322 0.34898,0.37147 0.85187,0.6754 1.11755,0.6754 0.26567,0 0.48304,0.11906 0.48304,0.26458 0,0.43694 1.90827,0.28752 3.07085,-0.24044 z m -10.2146,-0.33705 c 3.24644,-0.62153 7.11406,-3.53719 8.84857,-6.67062 2.01988,-3.64897 2.57355,-7.97499 1.45229,-11.34722 -2.11824,-6.37066 -7.41752,-10.32193 -13.87273,-10.34383 -8.20299,-0.0278 -14.6626,6.46051 -14.68047,14.74576 -0.008,3.69872 1.43255,7.16275 4.10129,9.86237 2.39414,2.42185 4.67234,3.46176 9.12397,4.16473 0.84979,0.1342 3.16939,-0.0555 5.02708,-0.41119 z m 14.38529,-2.00051 c 0.45554,-0.51526 1.04917,-1.24733 1.31918,-1.62681 0.369,-0.51861 0.45101,-0.55855 0.33021,-0.16082 -0.13307,0.43815 -0.0687,0.41539 0.37441,-0.13229 0.29432,-0.3638 0.88137,-1.01864 1.30455,-1.45521 0.42318,-0.43656 0.8532,-1.13248 0.95559,-1.54649 0.11088,-0.44832 0.26172,-0.63051 0.37297,-0.4505 0.51598,0.83486 1.4369,-1.8696 1.07104,-3.14528 -0.11672,-0.40699 -0.10787,-0.90476 0.0197,-1.10615 0.16528,-0.26096 0.23307,-0.15473 0.23596,0.36975 0.004,0.69847 0.62065,1.24922 0.98783,0.88204 0.092,-0.092 0.16038,-1.26753 0.15204,-2.61237 -0.0127,-2.05717 -0.12736,-2.69706 -0.72217,-4.03266 -0.38884,-0.87313 -0.98363,-1.88516 -1.32174,-2.24896 -0.7828,-0.84227 -1.09611,-1.4873 -1.28516,-2.64583 l -0.15111,-0.92605 0.36649,0.79375 c 0.20158,0.43657 0.37566,0.91282 0.38685,1.05834 0.0453,0.58947 0.81729,1.26237 1.54547,1.34715 0.99274,0.11559 1.55434,-0.4972 1.78656,-1.94938 0.1779,-1.11257 0.17502,-1.11756 -0.6447,-1.11756 -1.33672,0 -2.40218,-1.16479 -2.59592,-2.8379 -0.12259,-1.05874 -0.28186,-1.42134 -0.6798,-1.54764 -0.40508,-0.12857 -0.44818,-0.23209 -0.19541,-0.46939 0.24518,-0.23018 0.35387,-0.22377 0.44555,0.0263 0.16933,0.4618 0.60634,0.41413 0.60634,-0.0661 0,-0.21828 -0.11906,-0.39687 -0.26458,-0.39687 -0.14552,0 -0.26458,-0.12609 -0.26458,-0.2802 0,-0.15411 0.11906,-0.20661 0.26458,-0.11668 0.14552,0.0899 0.26458,-0.093 0.26458,-0.40656 0,-0.31354 0.217,-0.88612 0.48222,-1.27238 1.64875,-2.40127 3.08497,-6.03423 2.15936,-5.46217 -0.24406,0.15083 -0.27799,0.10771 -0.11842,-0.15048 0.38294,-0.61962 0.43107,-2.18399 0.10329,-3.35788 -0.36627,-1.31181 -0.61611,-1.3984 -1.14505,-0.39688 -0.21135,0.40018 -0.86533,1.20385 -1.4533,1.78594 -1.15552,1.14396 -1.30408,1.45521 -0.6946,1.45521 1.09628,0 0.54657,2.39771 -0.90627,3.95298 -0.44466,0.47601 -0.80848,0.97291 -0.80848,1.10422 0,0.13131 -0.50601,0.44121 -1.12448,0.68866 -0.61846,0.24746 -1.74731,0.78228 -2.50854,1.18849 -0.76123,0.40621 -1.50922,0.73856 -1.66218,0.73856 -0.47397,0 -3.96543,2.41121 -3.9616,2.73589 0.002,0.16875 0.0751,0.57357 0.16249,0.8996 0.12818,0.47828 0.2863,0.56079 0.81862,0.42718 0.60108,-0.15086 0.63369,-0.11689 0.36668,0.38202 -0.42985,0.80319 -0.36071,1.11156 0.24923,1.11156 0.91981,0 2.15967,-0.80071 4.02211,-2.5975 0.98246,-0.94783 1.84996,-1.65966 1.92777,-1.58184 0.0778,0.0778 -0.44181,0.84164 -1.15473,1.69739 -0.71291,0.85575 -1.55391,2.06358 -1.86887,2.68406 -0.67622,1.33216 -0.98358,4.63831 -0.53839,5.7913 0.16001,0.41441 0.31032,1.36897 0.33402,2.12124 0.0329,1.04487 0.19428,1.5287 0.68353,2.04947 0.62305,0.66318 0.58862,1.35725 -0.0363,0.73231 -0.60008,-0.60008 -0.89721,-0.30301 -1.20958,1.20932 -0.17295,0.83732 -0.73255,2.39483 -1.24356,3.46114 -1.07191,2.23669 -1.10544,2.42478 -0.43234,2.42478 0.27322,0 0.64684,0.18083 0.83026,0.40184 0.27324,0.32923 0.24524,0.49935 -0.15492,0.94153 -0.56675,0.62625 -0.27403,1.38252 0.58522,1.51201 0.71252,0.10738 2.21341,-0.96328 2.82974,-2.01858 1.03197,-1.76698 1.02956,-6.8785 -0.004,-7.64561 -0.40143,-0.29806 -0.40331,-0.36725 -0.0216,-0.79375 0.23,-0.25698 0.514,-1.06254 0.6311,-1.79015 l 0.21292,-1.32292 0.25477,2.38125 c 0.38705,3.61767 0.29754,7.44149 -0.21472,9.17254 -0.24408,0.82479 -0.88189,2.07495 -1.41737,2.77812 -0.9415,1.23636 -0.94877,1.26236 -0.22049,0.78866 0.41422,-0.26942 1.12583,-0.91143 1.58137,-1.42669 z m 2.13726,-3.50742 c 0.38261,-1.88109 0.333,-4.43909 -0.13854,-7.14375 -0.56459,-3.23828 -0.67636,-8.34062 -0.22361,-10.20751 0.30495,-1.25746 0.77294,-2.15783 0.77294,-1.48707 0,0.17462 0.11906,0.3175 0.26458,0.3175 0.41266,0 0.31059,-0.74459 -0.11521,-0.8405 -0.3214,-0.0724 -0.31123,-0.23158 0.0661,-1.0353 0.42681,-0.90901 1.1074,-1.1299 1.1074,-0.35941 0,0.21709 -0.1618,0.30443 -0.39687,0.21422 -0.24577,-0.0943 -0.39688,0.001 -0.39688,0.25084 0,0.22173 0.12148,0.44363 0.26994,0.49312 0.18353,0.0612 0.18353,0.54561 0,1.51337 -0.38326,2.02093 -0.3261,6.08453 0.12694,9.02408 0.49182,3.19118 0.51293,4.19064 0.0794,3.75708 -0.3968,-0.3968 -1.00541,-0.41384 -1.00541,-0.0281 0,0.15915 0.25322,0.35558 0.56271,0.43651 0.51672,0.13512 0.54967,0.27198 0.40313,1.67405 -0.15982,1.52898 -0.8173,3.58546 -1.3052,4.08238 -0.17031,0.17345 -0.19491,-0.0544 -0.0714,-0.66146 z m 1.20454,-4.13227 c 0,-0.21828 -0.11907,-0.32329 -0.26459,-0.23335 -0.14552,0.0899 -0.26458,0.34211 -0.26458,0.56039 0,0.21828 0.11906,0.32329 0.26458,0.23336 0.14552,-0.0899 0.26459,-0.34212 0.26459,-0.5604 z m -0.0889,-2.89697 c 0.20933,-0.54549 -0.33931,-1.11509 -0.71357,-0.74083 -0.303,0.303 -0.0744,1.15549 0.30987,1.15549 0.13452,0 0.31618,-0.1866 0.4037,-0.41466 z m -0.17573,-1.68639 c 0,-0.63728 -0.47971,-0.96465 -0.8585,-0.58586 -0.20126,0.20125 -0.18521,0.40135 0.0554,0.69132 0.46241,0.55718 0.80305,0.51245 0.80305,-0.10546 z m 0,-1.90431 c 0,-0.30021 -0.75825,-0.61625 -0.97014,-0.40436 -0.0845,0.0845 -0.0838,0.33529 0.001,0.55739 0.16041,0.41804 0.96874,0.29034 0.96874,-0.15303 z m -0.41651,-1.46284 c 0.22529,-0.58709 -0.27222,-1.09265 -0.67695,-0.68792 -0.32392,0.32392 -0.13631,1.12904 0.2631,1.12904 0.13452,0 0.32075,-0.19851 0.41385,-0.44112 z m -0.11265,-1.94013 c 0,-0.29399 -0.17639,-0.52917 -0.39688,-0.52917 -0.4028,0 -0.54273,0.5597 -0.22048,0.88194 0.33543,0.33544 0.61736,0.17434 0.61736,-0.35277 z m 0.26458,-1.70418 c 0,-0.54348 -0.54775,-0.81052 -0.80587,-0.39287 -0.11965,0.19359 -0.15885,0.44697 -0.0871,0.56306 0.22236,0.35979 0.89297,0.23198 0.89297,-0.17019 z m 0.0873,-1.58122 c 0.0791,-0.20624 -0.0272,-0.44063 -0.23628,-0.52086 -0.25116,-0.0964 -0.38017,0.0309 -0.38017,0.37498 0,0.60205 0.40465,0.69781 0.61645,0.14588 z m 4.93575,5.46821 c -0.005,-1.954 -0.24463,-2.37086 -0.99437,-1.73124 l -0.55617,0.47447 0.57886,1.38881 c 0.31837,0.76384 0.66815,1.38892 0.77729,1.38906 0.10915,1.4e-4 0.19662,-0.68436 0.19439,-1.5211 z m -11.42677,-3.83646 c 0.13954,-0.61846 0.34034,-1.33237 0.44622,-1.58646 0.17703,-0.42484 0.12355,-0.43299 -0.66505,-0.10141 -1.12384,0.47254 -1.32048,0.90819 -0.88131,1.95245 0.48653,1.15685 0.79625,1.08236 1.10014,-0.26458 z m 10.90166,-2.82644 c 0,-0.28124 -0.23813,-0.58692 -0.52917,-0.67929 -0.82415,-0.26157 -0.66505,-1.1853 0.26458,-1.5362 l 0.79375,-0.2996 v -2.32325 c 0,-2.46516 -0.14355,-2.68983 -1.31727,-2.06168 -1.31274,0.70256 -2.00896,5.68952 -0.95682,6.85367 0.65322,0.72277 1.74493,0.75177 1.74493,0.0464 z m 0.13229,-1.34075 c -0.0899,-0.14552 -0.27556,-0.26458 -0.41249,-0.26458 -0.13694,0 -0.24897,0.11906 -0.24897,0.26458 0,0.14552 0.18562,0.26459 0.41249,0.26459 0.22687,0 0.3389,-0.11907 0.24897,-0.26459 z m -15.21354,-0.22048 c 0,-0.34451 -0.31453,-0.57363 -0.57039,-0.4155 -0.27364,0.16912 -0.0377,0.63598 0.32142,0.63598 0.13693,0 0.24897,-0.0992 0.24897,-0.22048 z m -15.14651,-2.64592 c 1.05551,-0.41129 1.84103,-0.82588 1.7456,-0.92131 -0.0954,-0.0954 -0.76836,-0.25242 -1.49539,-0.34887 -0.72704,-0.0964 -1.52301,-0.36602 -1.76882,-0.59907 -0.24582,-0.23305 -0.67462,-0.55494 -0.95289,-0.71533 -0.27827,-0.16038 -0.544,-0.54733 -0.5905,-0.85989 -0.14723,-0.98963 -1.7057,-0.64765 -2.48568,0.54544 -1.11516,1.70579 -0.67428,2.59043 1.29098,2.59043 0.97398,0 1.22223,0.0984 1.33488,0.52917 0.18372,0.70255 0.64143,0.668 2.92182,-0.22057 z m 12.50067,-0.3086 c 0,-0.89805 -0.084,-1.05833 -0.55449,-1.05833 -0.59917,0 -2.09134,0.78552 -2.09134,1.10094 0,0.29287 1.37652,0.95588 2.05052,0.98766 0.52282,0.0246 0.59531,-0.10081 0.59531,-1.03027 z m 7.84641,-0.83268 c 1.57807,-0.74902 3.36449,-1.69985 3.96982,-2.11295 1.21046,-0.82607 2.20669,-2.22779 2.20669,-3.10487 0,-1.05209 -0.799,-0.56143 -2.09744,1.288 -1.48613,2.11679 -3.45881,3.18622 -3.45881,1.87511 0,-0.24725 1.07156,-1.37564 2.38125,-2.50755 1.30969,-1.13191 2.38497,-2.13727 2.38952,-2.23414 0.005,-0.0969 0.65742,-0.8905 1.45083,-1.76363 0.79341,-0.87312 1.44453,-1.69718 1.44694,-1.83124 0.002,-0.13407 0.19796,-0.45766 0.43455,-0.7191 0.32062,-0.35428 0.55238,-0.40994 0.90999,-0.21855 0.63521,0.33995 0.82037,-0.0175 0.4236,-0.81775 -0.22287,-0.44954 -0.58156,-0.67201 -1.17652,-0.72975 -0.81107,-0.0787 -0.84108,-0.0505 -0.57294,0.53796 0.26235,0.57579 -0.029,0.93543 -4.00013,4.93723 -3.58126,3.60895 -4.36598,4.27922 -4.78894,4.09049 -0.4677,-0.2087 -0.47413,-0.2655 -0.0852,-0.75313 0.414,-0.51903 0.41808,-0.51795 0.25686,0.0679 -0.26216,0.95265 0.33048,0.69651 1.05914,-0.45777 0.36563,-0.57919 0.66478,-1.10306 0.66478,-1.16416 0,-0.0611 0.41672,-0.52781 0.92604,-1.03714 1.0324,-1.03239 1.1086,-1.29181 0.52239,-1.77832 -0.33033,-0.27416 -0.57492,-0.244 -1.3467,0.16604 -2.02415,1.07541 -3.70514,3.70285 -4.31581,6.74575 -0.15764,0.78551 -0.35941,1.75562 -0.44837,2.15581 -0.0944,0.42473 -0.0491,0.7276 0.10874,0.7276 0.14877,0 1.56163,-0.61283 3.1397,-1.36185 z m 1.78306,-1.97137 c 0.22677,-0.087 0.84739,-0.77164 1.37914,-1.52136 0.88457,-1.24716 0.90198,-1.30414 0.20463,-0.66978 -0.41921,0.38135 -1.08962,0.90106 -1.4898,1.15491 -0.40018,0.25386 -0.7276,0.62646 -0.7276,0.828 0,0.41302 0.0538,0.43071 0.63363,0.20823 z m -19.74982,-5.02324 c -0.25213,-0.25214 -0.75763,0.15626 -0.56972,0.4603 0.11168,0.18071 0.25967,0.17614 0.44969,-0.0139 0.15578,-0.15577 0.20979,-0.35666 0.12003,-0.44642 z m -1.25673,0.15438 c 0,-0.14552 -0.11906,-0.26459 -0.26458,-0.26459 -0.14552,0 -0.26459,0.11907 -0.26459,0.26459 0,0.14552 0.11907,0.26458 0.26459,0.26458 0.14552,0 0.26458,-0.11906 0.26458,-0.26458 z m 15.48125,-0.9103 c 1.34331,-0.56127 4.60897,-3.29103 4.78734,-4.00173 0.25161,-1.00248 -0.0742,-1.17362 -2.22639,-1.16934 -2.22547,0.004 -3.04861,0.27871 -2.49572,0.8316 0.47064,0.47064 0.40542,1.1294 -0.16271,1.64356 -0.43852,0.39685 -0.52717,0.40125 -0.82615,0.041 -0.49173,-0.59251 -0.71368,-0.50063 -1.03799,0.42968 -0.37789,1.08401 -0.36832,1.89349 0.027,2.28885 0.41395,0.41396 0.82382,0.40047 1.93458,-0.0636 z m -8.46979,4.10504 c -0.72761,-0.26968 -1.99536,-0.79429 -2.81724,-1.16579 -1.27918,-0.5782 -1.48868,-0.77285 -1.4552,-1.35201 0.0501,-0.86663 0.49265,-0.86398 2.41138,0.0144 1.01552,0.46492 1.42275,0.7788 1.24327,0.95828 -0.35493,0.35493 -0.0895,0.99617 0.41237,0.99617 0.27422,0 0.35434,-0.17242 0.25558,-0.55007 -0.11168,-0.42706 -0.0478,-0.51323 0.28544,-0.38533 2.20277,0.84528 2.98343,0.97673 4.22249,0.711 1.95065,-0.41834 2.47375,-0.67715 3.89914,-1.92917 0.72241,-0.63455 1.13913,-0.90405 0.92604,-0.5989 -0.64685,0.92631 -2.96449,2.80635 -4.08976,3.31755 -1.3669,0.62097 -3.59285,0.61417 -5.29351,-0.0162 z m 3.30729,0.009 c 0,-0.2974 -0.68821,-0.57481 -0.90018,-0.36285 -0.31849,0.31849 -0.14471,0.59913 0.37101,0.59913 0.29104,0 0.52917,-0.10632 0.52917,-0.23628 z m 1.32292,-0.1889 c 0,-0.0572 -0.1786,-0.10399 -0.39688,-0.10399 -0.21828,0 -0.39687,0.11533 -0.39687,0.25628 0,0.14096 0.17859,0.18775 0.39687,0.10399 0.21828,-0.0838 0.39688,-0.19909 0.39688,-0.25628 z m -2.91042,-0.11229 c 0,-0.31675 -0.74629,-0.65652 -0.96395,-0.43886 -0.2317,0.2317 0.16131,0.71175 0.58269,0.71175 0.20969,0 0.38126,-0.1228 0.38126,-0.27289 z m -2.91042,-1.19063 c 0,-0.42245 -0.70316,-0.83193 -0.97014,-0.56496 -0.0845,0.0845 -0.0831,0.3373 0.003,0.56186 0.20291,0.52877 0.96703,0.53123 0.96703,0.003 z m -1.44096,-0.89468 c -0.25747,-0.41659 -0.94029,-0.35328 -0.94029,0.0872 0,0.44487 0.56566,0.70483 0.88976,0.4089 0.12557,-0.11465 0.14831,-0.33789 0.0505,-0.49609 z m 7.1295,0.50611 c -0.50491,-0.21697 -0.50188,-0.22824 0.0661,-0.24598 0.32742,-0.0102 0.59531,0.10046 0.59531,0.24598 0,0.14552 -0.0298,0.25622 -0.0661,0.24599 -0.0364,-0.0102 -0.30427,-0.12092 -0.59532,-0.24599 z m 6.21771,-1.57188 c 0,-0.13693 0.1177,-0.32171 0.26156,-0.41062 0.14998,-0.0927 0.19433,0.0135 0.10398,0.24897 -0.17589,0.45837 -0.36554,0.54223 -0.36554,0.16165 z"
       id="path3196" />
  </g>
</svg>
