<?xml version="1.0" encoding="UTF-8" standalone="no"?>
<!-- Created with Inkscape (http://www.inkscape.org/) -->

<svg
   width="103.33541mm"
   height="146.82867mm"
   viewBox="0 0 103.33541 146.82868"
   version="1.1"
   id="svg997"
   inkscape:version="1.1 (c4e8f9ed74, 2021-05-24)"
   sodipodi:docname="frame21.svg"
   xmlns:inkscape="http://www.inkscape.org/namespaces/inkscape"
   xmlns:sodipodi="http://sodipodi.sourceforge.net/DTD/sodipodi-0.dtd"
   xmlns="http://www.w3.org/2000/svg"
   xmlns:svg="http://www.w3.org/2000/svg">
  <sodipodi:namedview
     id="namedview999"
     pagecolor="#ffffff"
     bordercolor="#666666"
     borderopacity="1.0"
     inkscape:pageshadow="2"
     inkscape:pageopacity="0.0"
     inkscape:pagecheckerboard="0"
     inkscape:document-units="mm"
     showgrid="false"
     inkscape:zoom="1.5385816"
     inkscape:cx="-38.022033"
     inkscape:cy="312.30063"
     inkscape:window-width="2506"
     inkscape:window-height="1403"
     inkscape:window-x="1974"
     inkscape:window-y="0"
     inkscape:window-maximized="1"
     inkscape:current-layer="layer1" />
  <defs
     id="defs994" />
  <g
     inkscape:label="Layer 1"
     inkscape:groupmode="layer"
     id="layer1"
     transform="translate(-148.44382,-95.771169)">
    <path
       style="fill:#000000;stroke-width:0.264583"
       d="m 228.97989,242.29684 c -1.89177,-0.12856 -6.29708,-0.22826 -9.78958,-0.22155 -3.4925,0.007 -9.74328,-0.0361 -13.89063,-0.0952 -7.63702,-0.1088 -14.07675,-0.16094 -16.00729,-0.12959 -0.91971,0.0149 -9.41261,0.0202 -12.43542,0.008 -14.27105,-0.059 -21.59344,-0.13873 -22.25937,-0.2424 -0.56743,-0.0883 -0.93097,-0.35057 -1.15481,-0.83303 -0.31137,-0.67113 -0.33633,-0.67872 -0.53279,-0.16184 -0.11771,0.3097 -0.62675,0.67138 -1.18681,0.84327 -1.81174,0.55603 -2.93474,-0.36003 -3.19914,-2.60965 -0.16025,-1.36352 -0.12399,-1.50445 0.51669,-2.00841 l 0.68904,-0.542 -0.53852,-0.68463 c -0.49306,-0.62682 -0.51359,-0.82216 -0.24312,-2.31372 0.16248,-0.89601 0.31621,-3.6975 0.34162,-6.22552 0.0254,-2.52803 0.12457,-4.59642 0.22035,-4.59642 0.26743,0 0.20667,-3.15638 -0.064,-3.32364 -0.33506,-0.20708 -0.297,-2.42197 0.0529,-3.07568 0.22694,-0.42403 0.21776,-0.49845 -0.0417,-0.33811 -0.24631,0.15223 -0.2891,0.0403 -0.16485,-0.43109 0.0923,-0.35018 0.23875,-10.10216 0.32547,-21.67106 0.0867,-11.56891 0.26871,-21.51063 0.40441,-22.09271 0.14598,-0.62614 0.18799,-6.7309 0.10289,-14.94896 -0.16821,-16.24372 -0.26082,-19.82297 -0.63318,-24.47396 -0.15146,-1.89177 -0.32871,-9.27364 -0.39389,-16.40416 l -0.11851,-12.96491 0.59241,-1.04313 c 0.57137,-1.00609 0.57543,-1.0601 0.11418,-1.52135 -0.75817,-0.758161 -0.65855,-2.967802 0.1712,-3.797549 1.16898,-1.168984 4.3684,-0.587511 4.38353,0.796677 0.006,0.515771 0.0254,0.512871 0.47347,-0.06939 l 0.46759,-0.607659 12.35319,-0.147686 c 9.28065,-0.110953 12.68951,-0.067 13.70537,0.176697 1.07583,0.258088 1.47875,0.256651 1.97145,-0.007 0.49056,-0.262541 1.40669,-0.267846 4.40814,-0.02552 2.08387,0.168241 4.8009,0.300251 6.03783,0.293355 2.72703,-0.0152 1.87892,0.0092 8.73125,-0.25175 7.02208,-0.267466 22.5799,-0.355124 25.79687,-0.145348 1.30969,0.0854 4.34578,0.198156 6.74688,0.250561 7.34389,0.160285 9.37814,0.321414 10.3506,0.819853 0.4918,0.252077 0.97045,0.576475 1.06366,0.720883 0.0935,0.144869 0.36202,-0.0313 0.59903,-0.393014 0.50638,-0.772839 1.48128,-1.2663 2.50174,-1.2663 1.86036,0 3.11966,3.217618 1.75943,4.49549 l -0.61755,0.58015 0.52567,0.89094 c 0.47514,0.8053 0.49907,1.07636 0.24901,2.81999 -0.15216,1.06098 -0.26685,2.84169 -0.25486,3.95715 0.012,1.11545 -0.0546,2.15177 -0.14806,2.30293 -0.0934,0.15117 -0.0934,0.57952 7e-5,0.9519 0.17262,0.68777 -0.2898,1.57461 -0.69156,1.32631 -0.1173,-0.0725 -0.41506,0.07 -0.6617,0.31662 -0.42152,0.42152 -0.41707,0.46003 0.0742,0.64175 0.70304,0.26007 0.95503,1.01164 0.51385,1.53263 -0.48741,0.5756 -1.08403,2.12471 -0.89219,2.31655 0.0853,0.0853 0.23326,-0.15668 0.32888,-0.53765 0.0956,-0.38098 0.26727,-0.69268 0.38144,-0.69268 0.32067,0 0.53614,0.75798 0.26338,0.92655 -0.13326,0.0824 -0.18618,0.72233 -0.1176,1.42215 0.10397,1.06097 0.009,1.44272 -0.5709,2.29741 -0.93882,1.38342 -2.26545,4.75652 -2.38526,6.06473 l -0.0974,1.06312 0.36052,-1.19063 c 0.78503,-2.59249 1.7726,-5.1402 2.06179,-5.31893 0.55205,-0.34119 1.02793,0.0597 0.93205,0.7851 -0.0613,0.4639 -0.27551,0.72451 -0.63978,0.77842 -0.39802,0.0589 -0.69743,0.49256 -1.09609,1.5875 -0.67247,1.84696 -1.36433,4.86226 -1.33593,5.82235 0.0116,0.39115 0.18471,-0.0627 0.38477,-1.0086 0.99315,-4.69582 1.55023,-5.99054 2.22677,-5.17535 0.41405,0.49889 0.2541,1.33889 -0.25495,1.33889 -0.21629,0 -0.53302,0.35718 -0.70385,0.79375 -0.44616,1.14016 -0.4157,1.33132 0.133,0.83475 0.59374,-0.53732 0.83906,-0.55499 0.83906,-0.0604 0,0.20761 0.20836,0.43311 0.46302,0.50112 0.4067,0.10861 0.3962,0.14544 -0.0864,0.30284 -0.52438,0.17102 -1.43497,1.39673 -1.43497,1.93155 0,0.13927 0.29765,0.19631 0.66145,0.12677 0.69908,-0.13364 0.79091,0.0867 0.49548,1.18904 -0.0873,0.32578 -0.2507,0.53551 -0.36307,0.46607 -0.11236,-0.0694 -0.40864,0.79509 -0.65839,1.9212 -0.24975,1.12611 -0.56099,2.39266 -0.69166,2.81456 -0.13066,0.4219 -0.22459,1.3744 -0.20873,2.11667 0.0277,1.29825 0.0426,1.26908 0.39129,-0.76709 0.63472,-3.70649 0.96472,-4.89479 1.3593,-4.89479 0.46295,0 0.31154,1.69103 -0.30503,3.4067 -0.49501,1.37743 -0.53424,2.17448 -0.10254,2.0834 0.47516,-0.10025 0.52174,1.39178 0.0786,2.5189 -0.49454,1.25796 -0.49355,1.5383 0.005,1.3471 0.22787,-0.0874 0.40881,5.3e-4 0.42491,0.20674 0.069,0.88319 -0.10187,1.97495 -0.35774,2.28628 -0.198,0.24091 -0.18158,0.52221 0.0564,0.96696 0.18462,0.34497 0.24685,0.77094 0.13828,0.9466 -0.10857,0.17567 -0.0498,0.41062 0.13062,0.52213 0.25899,0.16006 0.23605,0.92528 -0.10898,3.6361 -0.26875,2.11142 -0.41916,5.00174 -0.39067,7.50675 0.0685,6.02511 0.0718,5.83529 -0.18416,10.68796 -0.25759,4.88337 -0.24438,11.75767 0.0274,14.2875 0.16884,1.57145 0.18072,2.26302 0.12719,7.40834 -0.039,3.74965 0.236,19.23136 0.37937,21.35703 0.1729,2.56331 0.44873,11.86872 0.5448,18.3795 0.0663,4.49372 0.16695,5.77416 0.5075,6.4568 0.59678,1.19628 0.56346,3.47311 -0.0591,4.03649 -0.6294,0.5696 -3.01966,0.60159 -3.48028,0.0466 -0.25403,-0.30609 -0.44464,-0.32716 -0.87522,-0.0967 -0.70799,0.37891 -12.81765,0.51213 -17.51793,0.19272 z m 7.99395,-2.00516 c 7.38682,-0.0631 8.89762,-0.19463 9.98971,-0.86958 0.92749,-0.57321 1.19864,-0.48655 1.19864,0.38311 0,0.54559 0.44473,1.19945 0.81582,1.19945 0.0994,0 0.23843,-0.30139 0.30885,-0.66976 0.0987,-0.51634 -0.0565,-0.81421 -0.67776,-1.30038 l -0.80579,-0.63063 0.32865,-1.46858 c 0.2034,-0.90885 0.26269,-2.15275 0.15557,-3.26368 -0.14356,-1.48896 0.44394,-10.99422 0.77554,-12.54758 0.0509,-0.23855 0.009,-0.5697 -0.0941,-0.73587 -0.10271,-0.16618 -0.36949,1.37599 -0.59286,3.42703 -0.22336,2.05105 -0.54278,3.86584 -0.70982,4.03288 -0.22854,0.22854 -0.43799,0.16939 -0.84639,-0.239 -0.53072,-0.53071 -0.53345,-0.59198 -0.12394,-2.7774 1.16288,-6.20589 2.03488,-16.97261 1.95801,-24.17599 l -0.0452,-4.23334 -0.19767,3.04271 c -0.10871,1.67349 -0.26547,4.29287 -0.34835,5.82084 -0.27569,5.08284 -1.2869,11.99645 -2.04135,13.95677 -0.26278,0.68278 -1.07755,0.78382 -1.56682,0.1943 -0.34685,-0.41793 -0.3586,-0.31785 0.63632,-5.41982 0.21284,-1.09141 0.62367,-2.87735 0.91296,-3.96875 0.67313,-2.53947 1.00812,-4.97891 1.3625,-9.92188 0.15649,-2.18281 0.39957,-5.28474 0.54018,-6.89318 0.26741,-3.05899 0.3346,-5.5771 0.14373,-5.38622 -0.14708,0.14708 -0.57516,4.4146 -0.93981,9.36898 -0.16066,2.18282 -0.42735,5.04032 -0.59265,6.35 -0.1653,1.30969 -0.31821,2.61938 -0.3398,2.91042 -0.0505,0.68111 -0.70351,1.71979 -1.08117,1.71979 -0.67393,0 -1.17502,-0.98538 -1.12836,-2.21889 0.0258,-0.68365 0.14658,-1.30455 0.26828,-1.37976 0.12169,-0.0752 0.22126,-0.43355 0.22126,-0.79631 0,-0.36276 0.22955,-1.87378 0.51012,-3.35782 0.63136,-3.33952 1.02707,-6.98908 1.22327,-11.28204 0.0828,-1.81067 0.19673,-3.36698 0.25328,-3.45847 0.38476,-0.62256 0.3852,-3.32755 7.9e-4,-4.48508 -0.48753,-1.46781 -0.44914,-4.00875 0.0631,-4.17757 0.22905,-0.0755 0.33542,0.24349 0.34598,1.03754 0.008,0.63059 0.11376,1.62278 0.23416,2.20486 0.19162,0.92644 0.2227,0.80061 0.24933,-1.00958 0.0167,-1.13735 -0.10244,-2.31618 -0.26483,-2.61961 -0.34893,-0.65198 -1.22504,-4.75708 -1.25829,-5.89581 -0.0128,-0.43656 -0.0966,-1.41883 -0.18639,-2.18281 -0.16525,-1.40641 -0.0256,-1.59772 1.03227,-1.41375 0.24817,0.0432 0.0102,-0.8445 -0.49102,-1.83117 -0.2233,-0.43962 -0.29015,-1.25993 -0.19713,-2.4188 0.12996,-1.61908 0.0976,-1.76728 -0.42262,-1.93237 -0.30985,-0.0984 -0.67981,-0.39637 -0.82212,-0.66228 -0.34,-0.63531 0.28364,-1.18011 1.06648,-0.93164 0.49895,0.15836 0.54552,0.10474 0.3831,-0.44116 -0.10168,-0.34179 -0.50039,-1.08709 -0.88601,-1.65622 -0.61836,-0.91262 -0.71187,-1.34214 -0.79208,-3.63803 l -0.091,-2.60323 h 0.65795 c 0.59413,0 0.97914,0.42465 0.97914,1.07998 0,0.13361 -0.17859,0.24294 -0.39688,0.24294 -0.46868,0 -0.49294,0.24205 -0.12204,1.21759 0.20325,0.53459 0.19072,0.77487 -0.0481,0.92247 -0.25214,0.15583 -0.25412,0.42935 -0.009,1.24734 0.3592,1.19889 1.15716,2.10554 0.93248,1.05949 -0.12869,-0.59914 -0.12327,-0.60074 0.29307,-0.0863 0.23331,0.28825 0.53182,0.9431 0.66337,1.45521 0.7014,2.73054 0.78924,2.85433 0.66072,0.93112 -0.0681,-1.01864 -0.25002,-1.89433 -0.40432,-1.94597 -0.53321,-0.17846 -1.05498,-1.94091 -1.15727,-3.9091 -0.0312,-0.60092 -0.21523,-1.47512 -0.4089,-1.94267 -0.25348,-0.61195 -0.26988,-0.90091 -0.0586,-1.03151 0.17606,-0.10881 -0.0102,-0.3159 -0.46548,-0.51741 -1.12476,-0.49787 -1.82557,-3.14994 -1.03996,-3.93555 0.21184,-0.21183 0.1075,-0.60472 -0.38295,-1.44198 -0.84402,-1.44086 -1.28779,-4.72268 -0.6386,-4.72268 0.22056,0 0.55993,0.19148 0.75416,0.4255 0.29886,0.36012 0.28211,0.47745 -0.10903,0.76345 -0.43566,0.31857 -0.42441,0.43826 0.19623,2.08714 0.36212,0.96206 1.14153,2.57643 1.73202,3.58749 0.59049,1.01106 1.19436,2.11279 1.34194,2.44829 0.22704,0.51614 0.24941,0.45694 0.14542,-0.38473 -0.0685,-0.5546 -0.7226,-1.98757 -1.47826,-3.2386 -1.50241,-2.48731 -1.97239,-4.10104 -1.19439,-4.10104 0.34553,0 0.42405,0.14648 0.31076,0.57972 -0.10002,0.38247 0.14202,1.08013 0.7114,2.05052 0.47466,0.80894 1.035,1.81866 1.24522,2.24381 0.36175,0.73163 0.38689,0.74114 0.4695,0.17761 0.0504,-0.34407 -0.59712,-1.94692 -1.53406,-3.79718 -0.89173,-1.76098 -1.58792,-3.4567 -1.54709,-3.76827 0.11434,-0.87248 -0.84343,-2.77788 -1.39633,-2.77788 -0.59043,0 -0.82143,-0.34973 -0.60445,-0.91515 0.31969,-0.83312 1.00072,-0.25962 2.02982,1.70935 0.57031,1.09116 1.37888,2.63877 1.79683,3.43914 0.56829,1.08824 0.76133,1.29816 0.76552,0.83244 0.007,-0.7877 -1.52898,-3.72077 -2.88306,-5.50513 -1.29858,-1.71124 -1.71669,-2.47106 -1.35975,-2.47106 0.28657,0 -1.45712,-2.83291 -2.20243,-3.57823 -0.44749,-0.44748 -0.38163,-1.28658 0.14487,-1.84573 0.35779,-0.37999 1.28443,0.92964 1.12324,1.5875 -0.13262,0.54128 1.71781,3.56241 3.32215,5.42396 l 0.79809,0.92604 -0.30029,-0.92604 c -0.16516,-0.50933 -0.6896,-1.47739 -1.16543,-2.15125 -1.108,-1.56916 -1.7865,-2.88265 -1.59037,-3.07878 0.0846,-0.0846 -0.78015,-1.11531 -1.9216,-2.29052 -1.14146,-1.17521 -2.58033,-3.00676 -3.19749,-4.07011 -1.07156,-1.84628 -1.10323,-1.96216 -0.70324,-2.57263 0.39775,-0.60704 0.38545,-0.66114 -0.24408,-1.07362 -0.72384,-0.47428 -0.90176,-1.43184 -0.26605,-1.43184 0.21828,0 0.39688,-0.12609 0.39688,-0.2802 0,-0.15411 0.11906,-0.20662 0.26458,-0.11668 0.14552,0.0899 0.26458,0.51293 0.26458,0.93998 0,0.58501 0.44919,1.28245 1.82179,2.82865 1.00199,1.12871 2.27187,2.46892 2.82197,2.97825 l 1.00017,0.92604 -0.61946,-0.92604 c -0.34071,-0.50933 -1.22364,-1.60159 -1.96207,-2.42726 -2.01771,-2.25608 -2.54877,-2.93707 -2.4036,-3.08223 0.0724,-0.0724 0.35017,0.066 0.61718,0.30764 0.26702,0.24164 0.5895,0.43935 0.71663,0.43935 0.12714,0 0.62378,0.38054 1.10365,0.84565 0.47987,0.46511 0.87249,0.71666 0.87249,0.55901 0,-0.15765 -1.1955,-1.26414 -2.65668,-2.45887 -1.46117,-1.19473 -3.12805,-2.79655 -3.70416,-3.55962 -1.01012,-1.33789 -1.33168,-2.26534 -0.78542,-2.26534 0.41082,0 -1.13293,-2.06036 -1.65113,-2.20367 -0.25829,-0.0714 -0.46302,-0.38038 -0.46302,-0.69874 0,-0.48449 0.1299,-0.55818 0.85989,-0.48779 0.71388,0.0688 0.84919,0.18399 0.79687,0.67822 -0.0347,0.32742 0.0546,0.59531 0.19844,0.59531 0.1438,0 0.26146,0.16776 0.26146,0.3728 0,0.55775 2.5244,3.01726 4.67587,4.55568 2.22271,1.58937 2.31728,1.29486 0.13826,-0.43056 -1.97894,-1.56699 -3.67735,-3.35103 -4.28204,-4.49792 -0.26853,-0.50932 -1.15295,-1.61876 -1.96538,-2.46543 -0.81242,-0.84666 -1.47713,-1.58661 -1.47713,-1.64433 0,-0.0577 0.24574,-0.23647 0.54608,-0.39721 0.65918,-0.35277 1.30601,0.0655 1.30601,0.84451 0,0.64872 0.78038,1.84987 1.0811,1.66402 0.12621,-0.078 -0.17441,-0.94018 -0.66804,-1.91596 -1.02914,-2.03432 -1.54983,-3.77542 -1.31336,-4.39164 0.38148,-0.99414 0.91795,-0.11692 1.02649,1.67851 0.0312,0.51644 0.24879,1.35571 0.48348,1.86503 0.33709,0.73154 0.39673,0.77928 0.28396,0.2273 -0.0785,-0.3843 -0.0276,-0.7699 0.11312,-0.85687 0.15928,-0.0984 0.12182,-0.53386 -0.0992,-1.15335 -0.42975,-1.20435 -0.47379,-2.69409 -0.10807,-3.65599 0.18254,-0.480122 0.18328,-0.815676 0.002,-1.033757 -0.32435,-0.390717 -0.0903,-0.671077 0.56015,-0.671077 0.51788,0 0.63963,0.364339 0.8551,2.559064 0.12797,1.30334 0.96565,3.31015 1.85853,4.45239 0.2275,0.29104 -0.0193,-0.32696 -0.54849,-1.37333 -0.85703,-1.69469 -0.96494,-2.13527 -0.98785,-4.03341 l -0.0257,-2.13091 -2.77812,-0.04143 c -1.52797,-0.02278 -3.19485,-0.07028 -3.70417,-0.105544 -0.50932,-0.03526 -5.33136,0.04572 -10.71563,0.179974 -9.30629,0.232041 -28.7406,0.351776 -46.0375,0.283636 -4.36562,-0.0172 -10.07399,0.02199 -12.68526,0.08707 l -4.74777,0.118339 -0.8328,0.807186 c -0.73433,0.711739 -0.87287,0.758909 -1.17161,0.398948 -0.18635,-0.22453 -0.2709,-0.408237 -0.18789,-0.408237 0.35182,0 -0.45172,-1.622938 -0.93037,-1.879105 -0.63447,-0.33956 -0.78989,-0.211106 -0.89419,0.739084 -0.0987,0.899217 0.29027,1.404604 1.08106,1.404604 0.94875,0 0.94474,0.615615 -0.0119,1.824515 -1.10701,1.39893 -1.3246,2.88495 -1.06582,7.27924 0.10362,1.75966 0.1899,3.37796 0.19173,3.59625 0.002,0.21828 0.17517,7.18343 0.3852,15.47812 0.70146,27.70296 0.75098,36.44857 0.25692,45.37604 -0.31309,5.65756 -0.4814,14.04105 -0.56303,28.04584 -0.064,10.98682 -0.16611,20.80947 -0.22681,21.82812 -0.10315,1.73116 -0.18598,10.73508 -0.10953,11.90625 0.019,0.29104 0.1795,0.64823 0.35667,0.79375 0.17717,0.14552 0.39821,0.59201 0.4912,0.99219 0.13628,0.58648 0.0769,0.7276 -0.30627,0.7276 -0.78282,0 -1.65141,0.77329 -1.65141,1.47021 0,0.3665 0.15477,0.64646 0.35739,0.64646 0.76546,0 1.9987,-0.59189 2.11,-1.01268 0.0862,-0.32577 0.12516,-0.2936 0.14775,0.12192 0.0389,0.71569 0.68986,0.92519 3.19838,1.02937 1.23372,0.0512 2.01673,0.20109 2.08255,0.39856 0.0805,0.24147 0.15342,0.2389 0.30775,-0.0108 0.15866,-0.25672 6.41132,-0.32742 29.00599,-0.32796 15.84205,-2.6e-4 31.48264,0.0755 34.75685,0.16854 3.27422,0.0931 6.51868,0.16766 7.2099,0.16574 1.02034,-0.003 1.25753,0.0836 1.26082,0.45951 0.003,0.3947 0.0411,0.40446 0.25489,0.0661 0.20936,-0.33125 1.24772,-0.40539 6.2798,-0.44839 z m 12.16545,-21.70543 c -0.0671,-0.25743 -0.12638,-0.11087 -0.13177,0.3257 -0.005,0.43656 0.0495,0.64718 0.12197,0.46805 0.0725,-0.17913 0.0769,-0.53632 0.01,-0.79375 z m 0.27109,-3.70556 c -0.0608,-0.40218 -0.1122,-0.13593 -0.11419,0.59167 -0.002,0.72761 0.0478,1.05667 0.11058,0.73125 0.0628,-0.32543 0.0644,-0.92074 0.004,-1.32292 z m -0.80838,-19.7151 c -0.0734,-0.1819 -0.13346,-0.0331 -0.13346,0.33073 0,0.3638 0.0601,0.51263 0.13346,0.33073 0.0734,-0.1819 0.0734,-0.47956 0,-0.66146 z m -1.15644,-21.96041 c -0.19932,-3.70625 -0.39847,-5.48626 -0.59988,-5.36178 -0.20916,0.12927 -0.11678,3.68563 0.15302,5.89094 0.21159,1.72946 0.54697,1.3323 0.44686,-0.52916 z m 0.6284,-8.99584 c -0.0728,-1.20054 -0.25579,-2.54 -0.40665,-2.97656 -0.22898,-0.66261 -0.25268,-0.53147 -0.14346,0.79375 0.072,0.87313 0.17746,2.00422 0.23444,2.51354 0.057,0.50932 0.11163,1.1344 0.12146,1.38906 0.01,0.25467 0.0873,0.46303 0.17221,0.46303 0.0849,0 0.0948,-0.98227 0.022,-2.18282 z m -0.78675,0.6665 c -0.0671,-0.25744 -0.12639,-0.11087 -0.13178,0.32569 -0.005,0.43656 0.0495,0.64719 0.12197,0.46806 0.0725,-0.17913 0.0769,-0.53632 0.01,-0.79375 z m -0.2672,-1.17913 c -0.0845,-0.21106 -0.14716,-0.14837 -0.15985,0.15986 -0.0115,0.27891 0.051,0.43518 0.13896,0.34726 0.0879,-0.0879 0.0973,-0.31612 0.0209,-0.50712 z m -0.18199,-3.31386 c -0.2883,-0.4496 -0.29576,-0.44902 -0.15102,0.0117 0.0837,0.26656 0.16167,0.62375 0.17316,0.79375 0.0151,0.22309 0.0571,0.21984 0.15101,-0.0117 0.0716,-0.17641 -0.006,-0.5336 -0.17315,-0.79375 z m 0.85373,-5.19863 c -0.1764,-0.70818 -0.85248,-1.72505 -0.85248,-1.28219 0,0.69049 0.65702,2.39261 0.82108,2.12715 0.0948,-0.15341 0.10895,-0.53365 0.0314,-0.84496 z m -95.8379,-0.55041 c 0,-0.0642 -0.11906,-0.19026 -0.26458,-0.2802 -0.14553,-0.0899 -0.26459,-0.0374 -0.26459,0.11668 0,0.15411 0.11906,0.2802 0.26459,0.2802 0.14552,0 0.26458,-0.0525 0.26458,-0.11668 z m 95.66665,-1.52288 c -0.49713,-0.70975 -0.53902,-0.50601 -0.0959,0.46649 0.1764,0.38716 0.36389,0.57442 0.41665,0.41614 0.0528,-0.15827 -0.0916,-0.55546 -0.32073,-0.88263 z m -0.68123,-1.80002 c -0.43618,-1.05304 -0.62013,-0.86908 -0.23519,0.23518 0.16301,0.46759 0.35816,0.78837 0.43368,0.71285 0.0755,-0.0755 -0.0138,-0.50214 -0.19849,-0.94803 z m 0.24436,-1.57587 c -0.80947,-1.88166 -0.92935,-1.48645 -0.19391,0.63921 0.36881,1.06596 0.6435,1.55698 0.69298,1.23872 0.0451,-0.29001 -0.1795,-1.13507 -0.49907,-1.87793 z m -1.38468,-2.74584 c -0.46475,-0.88405 -0.59495,-0.99406 -0.65763,-0.55575 -0.1238,0.86574 0.39862,1.97975 0.8476,1.80746 0.32737,-0.12562 0.29707,-0.32532 -0.18997,-1.25171 z m 3.43221,-0.50694 c -0.0734,-0.1819 -0.13345,-0.0331 -0.13345,0.33073 0,0.3638 0.0601,0.51263 0.13345,0.33073 0.0734,-0.1819 0.0734,-0.47956 0,-0.66146 z m -2.85946,-5.47067 c -0.62576,-1.15856 -1.19071,-2.05352 -1.25543,-1.9888 -0.0647,0.0647 0.40827,1.12419 1.0511,2.35436 0.64282,1.23016 1.20777,2.12513 1.25543,1.98879 0.0477,-0.13633 -0.42534,-1.19579 -1.0511,-2.35435 z m 2.86759,-0.742 c -0.0671,-0.25744 -0.12638,-0.11087 -0.13177,0.32569 -0.005,0.43656 0.0495,0.64719 0.12197,0.46806 0.0725,-0.17913 0.0769,-0.53632 0.01,-0.79375 z m -3.18903,-3.71964 c -0.65604,-0.98683 -1.4598,-2.02815 -1.78614,-2.31404 -0.32633,-0.28589 0.14208,0.5424 1.04091,1.84065 0.89883,1.29824 1.64805,2.5484 1.66493,2.77812 0.0244,0.33168 0.0557,0.32213 0.1519,-0.0464 0.0693,-0.26525 -0.38984,-1.23281 -1.0716,-2.25832 z m 0.78318,-1.00821 c -0.0942,-0.24539 -0.23074,-0.38663 -0.3035,-0.31387 -0.0728,0.0728 -0.0553,0.33307 0.0389,0.57845 0.0942,0.24539 0.23074,0.38663 0.3035,0.31387 0.0728,-0.0728 0.0553,-0.33307 -0.0389,-0.57845 z m 1.93154,-1.27441 c 0.0401,-1.17366 -0.15131,-0.71662 -0.3232,0.7717 -0.10304,0.89215 -0.0796,1.10754 0.072,0.66146 0.12364,-0.3638 0.23667,-1.00873 0.25118,-1.43316 z m -2.33845,-1.11982 c -0.30083,-1.08332 -2.63468,-3.95273 -2.6521,-3.26067 -0.006,0.22223 0.34981,0.81754 0.78979,1.32291 1.21932,1.40059 1.31672,1.53649 1.31672,1.83733 0,0.34299 0.60555,1.3423 0.73497,1.21287 0.0515,-0.0514 -0.0338,-0.55205 -0.18938,-1.11244 z m 2.88994,-0.68817 c 0.002,-0.10914 -0.11501,-0.19843 -0.26053,-0.19843 -0.14553,0 -0.26276,0.26789 -0.26054,0.59531 0.003,0.48139 0.0531,0.51936 0.26054,0.19844 0.14106,-0.21829 0.2583,-0.48618 0.26053,-0.59532 z m -0.52512,-2.5071 c 0,-0.82936 -0.12673,-0.73341 -0.37026,0.28031 -0.11814,0.49178 -0.0854,0.69125 0.0951,0.5797 0.15136,-0.0935 0.27519,-0.48055 0.27519,-0.86001 z m -3.06896,-0.27102 c -0.24524,-1.05812 -1.25904,-2.72761 -2.1991,-3.62138 -1.1239,-1.06855 -1.03026,-0.58103 0.13643,0.71036 0.52458,0.58065 1.1953,1.63687 1.49048,2.34717 0.5981,1.43918 0.82743,1.66517 0.57219,0.56385 z m 1.39762,-0.11576 c -0.0845,-0.21106 -0.14716,-0.14837 -0.15985,0.15986 -0.0115,0.27891 0.051,0.43518 0.13896,0.34726 0.0879,-0.0879 0.0973,-0.31612 0.0209,-0.50712 z m -2.80529,-0.41341 c -0.14406,-0.25466 -1.19483,-1.43094 -2.33504,-2.61395 -2.0366,-2.11303 -2.35591,-2.74386 -1.38888,-2.74386 0.31744,0 0.58838,0.30839 0.77938,0.88713 0.16103,0.48793 0.59576,1.17177 0.96606,1.51965 1.33172,1.25109 -1.01042,-2.18051 -2.61499,-3.83137 -1.46219,-1.50436 -1.51323,-1.53192 -1.51323,-0.81691 0,1.10788 1.40584,3.15845 3.94022,5.74723 1.24655,1.27331 2.30289,2.3151 2.34742,2.3151 0.0445,0 -0.0369,-0.20836 -0.18094,-0.46302 z m -0.004,-4.85539 c -0.7692,-1.47573 -1.86086,-2.88463 -2.23124,-2.87962 -0.2052,0.003 -0.2113,0.0652 -0.0194,0.19844 0.69904,0.48544 1.54461,2.17366 0.88431,1.76557 -0.20451,-0.12639 -0.20174,-0.0131 0.009,0.38126 0.34425,0.64324 0.60466,0.75656 0.37736,0.16422 -0.32003,-0.83397 0.1832,-0.34777 0.71115,0.6871 0.30414,0.59618 0.61892,1.01804 0.6995,0.93747 0.0806,-0.0806 -0.11336,-0.64508 -0.43098,-1.25444 z m 4.36358,-5.65179 c 0.35923,-1.01315 0.61287,-1.96294 0.56363,-2.11065 -0.0492,-0.14771 -0.41605,0.6217 -0.81514,1.70979 -0.39909,1.0881 -0.95262,2.51413 -1.23007,3.16898 -0.27746,0.65484 -0.57001,1.66687 -0.65013,2.24896 -0.14988,1.08895 0.55445,-0.56872 2.13171,-5.01708 z m -0.19837,4.48091 c -0.0815,-0.0815 -0.2294,0.0654 -0.32876,0.32632 -0.14359,0.37708 -0.1132,0.40747 0.14811,0.14811 0.18082,-0.17948 0.26212,-0.39297 0.18065,-0.47443 z m 0.55988,-3.168 c 0.003,-0.29104 -0.34821,0.34205 -0.78072,1.40687 -0.43252,1.06482 -0.77618,2.01732 -0.76369,2.11667 0.0478,0.38058 1.53903,-3.02154 1.54441,-3.52354 z m 0.0123,1.85208 c 0,-0.14552 -0.11542,-0.086 -0.25648,0.1323 -0.14107,0.21828 -0.25648,0.51593 -0.25648,0.66145 0,0.14552 0.11541,0.086 0.25648,-0.13229 0.14106,-0.21828 0.25648,-0.51594 0.25648,-0.66146 z m -5.27271,-1.43997 c -0.66355,-0.93186 -1.05371,-1.10369 -0.48519,-0.21367 0.20915,0.32742 0.47289,0.75206 0.58609,0.94364 0.1132,0.19158 0.26642,0.28774 0.34048,0.21367 0.0741,-0.0741 -0.12456,-0.4987 -0.44138,-0.94364 z m -0.92513,0.004 c -0.0954,-0.15442 -0.43478,-0.41662 -0.7541,-0.58268 -0.55352,-0.28784 -0.55073,-0.26946 0.0599,0.39441 0.60932,0.66248 1.06341,0.78562 0.69423,0.18827 z m 1.05791,-1.43101 c -0.38322,-0.65392 -0.88434,-1.34461 -1.11358,-1.53487 -0.25364,-0.2105 -0.18762,0.0138 0.16863,0.57286 0.322,0.50533 0.78061,1.23852 1.01914,1.62931 0.73403,1.20255 0.66669,0.59691 -0.0742,-0.6673 z m 2.31596,-0.0432 c 0.0984,-0.8511 0.0711,-1.13419 -0.0764,-0.79375 -0.21904,0.50549 -0.36927,2.45639 -0.17148,2.22691 0.0523,-0.0606 0.16382,-0.70556 0.24791,-1.43316 z m -0.10218,-2.49602 c 0.38496,-1.25187 0.14539,-1.34977 -0.35754,-0.1461 -0.2268,0.54282 -0.39752,1.59749 -0.37936,2.3437 l 0.033,1.35675 0.21227,-1.32292 c 0.11674,-0.7276 0.33798,-1.73175 0.49163,-2.23143 z m 2.00061,0.95418 c 0.36798,-0.97765 0.65966,-2.10224 0.64817,-2.4991 l -0.0209,-0.72156 -0.21761,0.66146 c -0.20561,0.62502 -0.7756,2.50836 -1.20112,3.96875 -0.35753,1.22701 0.11744,0.3811 0.79144,-1.40955 z m -6.21975,1.21111 c -0.01,-0.45979 -1.81417,-2.0347 -2.05523,-1.79364 -0.14606,0.14607 1.57045,2.20086 1.86644,2.23426 0.10914,0.0123 0.1941,-0.18596 0.18879,-0.44062 z m 1.75027,-1.06464 c -0.4556,-0.43637 -0.46124,-0.43073 -0.12656,0.12656 0.19265,0.32081 0.40723,0.52633 0.47684,0.45672 0.0696,-0.0696 -0.088,-0.33208 -0.35028,-0.58328 z m -5.69017,-1.02156 c -0.30161,-0.38343 -0.54837,-0.90508 -0.54837,-1.15923 0,-0.25414 -0.41007,-0.77486 -0.91127,-1.15714 -0.88177,-0.67255 -0.90771,-0.67651 -0.80097,-0.12228 0.11269,0.58516 0.7979,1.46363 1.97682,2.53437 0.86896,0.78923 0.95663,0.75966 0.28379,-0.0957 z m 9.65317,-1.36035 c -0.0811,-0.0811 -0.1492,0.0808 -0.15143,0.35974 -0.003,0.43187 -0.0464,0.44823 -0.28954,0.11025 -0.23743,-0.33008 -0.25902,-0.3153 -0.12824,0.0878 0.0865,0.26656 0.16799,0.68328 0.18111,0.92604 0.0131,0.24276 0.13898,0.0414 0.27967,-0.44753 0.14069,-0.4889 0.18949,-0.95522 0.10843,-1.03628 z m -8.34946,1.27874 c 0,-0.30294 -1.10815,-1.11171 -1.28328,-0.93658 -0.15805,0.15805 0.76045,1.18616 1.05971,1.18616 0.12296,0 0.22357,-0.11231 0.22357,-0.24958 z m 5.84352,-0.39966 c 0.75355,-0.30133 1.26785,-1.7851 1.04368,-3.01103 -0.20772,-1.13589 -1.24988,-2.40807 -1.81765,-2.21882 -0.16887,0.0563 -0.30705,-0.0337 -0.30705,-0.19989 0,-0.16624 -0.1243,-0.22543 -0.27622,-0.13154 -0.15192,0.0939 -0.56863,-0.0209 -0.92604,-0.25507 -0.4401,-0.28836 -0.64982,-0.32418 -0.64982,-0.111 0,0.17313 -0.079,0.23584 -0.17544,0.13934 -0.29915,-0.29914 -1.15798,1.39333 -1.42709,2.81231 -0.24554,1.29475 -0.22583,1.37566 0.47474,1.9492 0.48648,0.39826 0.59819,0.60469 0.33404,0.61727 -0.2465,0.0117 -0.14625,0.16542 0.26458,0.40563 0.64467,0.37693 2.52375,0.37888 3.46227,0.004 z m -3.26847,-1.43455 c -0.25211,-0.42679 -0.45838,-1.06276 -0.45838,-1.41326 0,-0.69252 1.24741,-2.06375 1.86656,-2.05185 0.90202,0.0173 2.64369,2.77012 2.20339,3.48254 -0.0864,0.13976 -0.38725,0.007 -0.6686,-0.29497 -0.28135,-0.302 -0.74504,-0.54909 -1.03041,-0.54909 -0.49172,0 -0.56327,0.1206 -0.62578,1.0548 -0.0471,0.70362 -0.817,0.5671 -1.28678,-0.22817 z m 6.16979,-0.14312 c 0.007,-0.15765 0.10368,-1.0974 0.2138,-2.08834 0.11012,-0.99094 0.10401,-1.86117 -0.0136,-1.93384 -0.11759,-0.0727 -0.21521,0.26184 -0.21694,0.74337 -0.002,0.48153 -0.16431,1.48074 -0.3613,2.22048 -0.30227,1.13512 -0.30178,1.34496 0.003,1.34496 0.19872,0 0.36741,-0.12898 0.37488,-0.28663 z m -0.29848,-5.5783 c 0.007,-0.87312 -0.10321,-1.76609 -0.24427,-1.98437 -0.19187,-0.29689 -0.2575,-0.15728 -0.26054,0.55415 -0.002,0.52306 -0.0603,2.24947 -0.129,3.83646 l -0.12495,2.88543 0.37328,-1.85209 c 0.2053,-1.01864 0.37876,-2.56645 0.38548,-3.43958 z m -8.64254,4.03385 c -0.30307,-0.32685 -0.71034,-0.97755 -0.90504,-1.446 -0.38369,-0.92322 -2.93292,-2.92085 -3.09745,-2.42724 -0.10533,0.31598 4.2196,4.80145 4.42832,4.59272 0.0689,-0.0689 -0.12275,-0.39263 -0.42583,-0.71948 z m 10.93606,-0.39583 c -0.0913,-0.5457 -0.23078,-2.77812 -0.31004,-4.96094 -0.15078,-4.15282 -0.38669,-5.26963 -1.20571,-5.70796 -0.68654,-0.36742 -0.61522,-0.95084 0.1394,-1.14023 0.77293,-0.194 1.04838,-0.817722 0.67184,-1.521307 -0.43143,-0.806125 -1.13865,-0.490054 -1.41693,0.633252 -0.1348,0.544155 -0.35085,0.989375 -0.4801,0.989375 -0.12925,0 -0.54918,-0.37337 -0.93317,-0.829724 -0.87755,-1.042914 -2.07643,-1.551523 -3.65719,-1.551523 -1.06,0 -1.18604,0.05481 -0.90494,0.393505 0.17962,0.216428 0.25888,0.569933 0.17613,0.785566 -0.0827,0.215633 0.0175,0.715706 0.22269,1.111276 l 0.37313,0.71921 0.24652,-0.64488 c 0.13558,-0.35469 0.49606,-0.869671 0.80107,-1.144409 0.54662,-0.492378 0.55796,-0.490485 0.79305,0.132291 0.28912,0.765938 0.16373,1.028688 -0.49091,1.028688 -0.6871,0 -0.8472,0.71595 -0.5319,2.37855 0.28708,1.51376 0.52968,2.03002 0.52968,1.12718 0,-0.30317 0.14883,-0.60433 0.33073,-0.66926 0.22697,-0.081 0.13153,-0.33478 -0.30422,-0.80889 -0.57742,-0.62827 -0.59298,-0.70695 -0.17173,-0.8686 0.55616,-0.21342 0.84102,0.16388 1.26055,1.66959 0.16992,0.60982 0.40621,1.04866 0.52509,0.97519 0.11888,-0.0735 0.32665,0.14195 0.46172,0.47872 0.17229,0.4296 0.25057,0.47929 0.26234,0.16652 0.0247,-0.65581 -0.47668,-1.84993 -0.91463,-2.17848 -0.20978,-0.15738 -0.41346,-0.58341 -0.45262,-0.94675 -0.054,-0.50078 0.0654,-0.68029 0.4935,-0.74199 0.45913,-0.0662 0.58894,0.082 0.69443,0.7929 0.0713,0.48085 0.26034,1.23147 0.41996,1.66803 0.15963,0.43656 0.35437,1.11697 0.43275,1.51201 0.0983,0.49537 0.26371,0.67177 0.53303,0.56842 0.46051,-0.17672 0.92702,0.85665 0.92702,2.05345 0,0.43568 0.10659,0.72626 0.23686,0.64575 0.41092,-0.25396 0.58801,0.69999 0.40374,2.17483 -0.12084,0.96717 -0.0681,1.62799 0.16468,2.06292 0.51378,0.96001 0.86312,0.77747 0.67418,-0.35228 z m -3.41374,-2.64583 c -0.0666,-0.25466 -0.121,-0.0463 -0.121,0.46302 0,0.50932 0.0545,0.71768 0.121,0.46302 0.0666,-0.25466 0.0666,-0.67138 0,-0.92604 z m -5.979,-0.62289 c -0.28381,-0.63968 -0.52442,-1.07616 -0.5347,-0.96997 -0.0303,0.31323 0.83162,2.3521 0.946,2.23771 0.0576,-0.0576 -0.1275,-0.62807 -0.4113,-1.26774 z m -3.7398,-1.22809 c -0.9267,-0.98288 -1.71995,-1.83665 -1.76279,-1.89729 -0.0428,-0.0606 -0.0779,0.11212 -0.0779,0.3839 0,0.53149 3.10562,3.72038 3.36785,3.45815 0.0867,-0.0868 -0.60048,-0.96189 -1.52718,-1.94476 z m 7.41975,0.85879 c -0.41371,-1.25354 -0.6032,-1.06405 -0.21167,0.21167 0.16517,0.53818 0.35176,0.92705 0.41465,0.86417 0.0629,-0.0629 -0.0285,-0.54702 -0.20298,-1.07584 z m 1.59092,-2.79178 -0.28294,-0.6478 0.13615,0.66146 c 0.0749,0.3638 0.16108,1.43536 0.19158,2.38125 l 0.0554,1.71979 0.0914,-1.73345 c 0.0502,-0.95339 -0.036,-2.02496 -0.19158,-2.38125 z m -4.73363,2.4809 c -0.3119,-0.53637 -0.38722,-0.36469 -0.1319,0.30065 0.0907,0.23646 0.22071,0.37419 0.28884,0.30607 0.0681,-0.0681 -0.002,-0.34115 -0.15694,-0.60672 z m 3.67187,-0.48287 c -0.4137,-1.25354 -0.60319,-1.06405 -0.21166,0.21167 0.16517,0.53818 0.35176,0.92705 0.41465,0.86417 0.0629,-0.0629 -0.0285,-0.54702 -0.20299,-1.07584 z m -5.52395,-0.0463 c -0.3119,-0.53637 -0.38722,-0.36469 -0.1319,0.30066 0.0907,0.23645 0.22071,0.37418 0.28883,0.30606 0.0681,-0.0681 -0.002,-0.34115 -0.15693,-0.60672 z m -2.09702,-0.8136 c -1.45743,-2.06611 -2.09872,-3.85668 -2.15577,-6.01926 -0.0162,-0.61279 -0.0794,-0.70327 -0.27742,-0.39688 -0.76734,1.18737 0.25593,4.50913 1.93573,6.28385 0.99516,1.05139 1.18058,1.1007 0.49746,0.13229 z m 0.47353,-0.69071 c -0.88239,-0.85124 -0.84317,-0.60814 0.11392,0.70599 0.29946,0.41118 0.58705,0.60486 0.64408,0.43377 0.0567,-0.17002 -0.28442,-0.68291 -0.758,-1.13976 z m 7.41329,-1.08914 c -0.16685,-0.80371 -0.36979,-1.46129 -0.45098,-1.46129 -0.17218,0 0.12387,2.4429 0.37552,3.0987 0.3312,0.86309 0.37904,-0.17506 0.0755,-1.63741 z m -3.93772,1.00595 c -0.23059,-0.39655 -0.28223,-0.40798 -0.28883,-0.0639 -0.009,0.44558 0.26966,0.84677 0.45718,0.65925 0.0618,-0.0618 -0.0139,-0.32974 -0.16835,-0.59531 z m 5.4346,-0.41672 c -0.0734,-0.1819 -0.13345,-0.0331 -0.13345,0.33073 0,0.3638 0.0601,0.51263 0.13345,0.33073 0.0734,-0.1819 0.0734,-0.47956 0,-0.66146 z m -3.99026,-1.43363 c -0.20235,-2.23292 -0.60895,-3.45114 -1.35393,-4.05647 -0.37244,-0.30262 -0.34739,-0.20409 0.10545,0.41485 0.39735,0.5431 0.63754,1.33114 0.7258,2.38125 0.18502,2.20138 0.36685,3.28931 0.54974,3.28931 0.0862,0 0.0741,-0.91302 -0.0271,-2.02894 z m -2.77695,1.38145 c 0.13309,0.0823 0.24198,0.0315 0.24198,-0.11281 0,-0.14431 -0.23681,-0.33753 -0.52624,-0.42939 -0.28943,-0.0919 -0.956,-0.81448 -1.48126,-1.60582 -1.56473,-2.35736 -1.87075,-2.29173 -0.64415,0.13815 0.77039,1.52614 1.89472,2.67921 2.07756,2.13068 0.0496,-0.1487 0.19902,-0.20307 0.33211,-0.12081 z m 3.9421,-0.0801 c -0.002,-0.10914 -0.11947,-0.37703 -0.26053,-0.59531 -0.2074,-0.32093 -0.25726,-0.28296 -0.26054,0.19843 -0.002,0.32742 0.11501,0.59532 0.26054,0.59532 0.14552,0 0.26276,-0.0893 0.26053,-0.19844 z m -2.49934,-2.74559 c -0.22814,-0.49084 -0.34506,-0.6543 -0.25983,-0.36326 0.0852,0.29104 0.2358,1.12448 0.33461,1.85208 0.16863,1.24176 0.18457,1.26405 0.25983,0.36326 0.0441,-0.52781 -0.10648,-1.36125 -0.33461,-1.85208 z m -0.93331,-0.224 c -0.16628,-0.40144 -0.95629,-1.29449 -1.75559,-1.98455 -0.79929,-0.69006 -1.39458,-1.313328 -1.32286,-1.385046 0.13667,-0.136674 1.59957,0.873246 2.93281,2.024686 l 0.78329,0.67648 -0.67589,-0.92604 c -0.37174,-0.50932 -0.93258,-1.04357 -1.24631,-1.18722 -0.66562,-0.30477 -0.75116,-0.664864 -0.15793,-0.664864 0.22687,0 0.33591,-0.123906 0.24232,-0.275346 -0.0936,-0.15144 -0.39906,-0.202701 -0.6788,-0.113913 -0.37043,0.117568 -0.5755,-0.0053 -0.75471,-0.452259 -0.22723,-0.566659 -0.24738,-0.572123 -0.26286,-0.07129 -0.009,0.298317 -0.14686,0.672488 -0.30587,0.83149 -0.39399,0.39399 0.049,1.183982 1.6527,2.947382 0.7057,0.77597 1.37074,1.72847 1.47787,2.11667 l 0.19478,0.70581 0.0897,-0.75604 c 0.0493,-0.41583 -0.0464,-1.0845 -0.21264,-1.48594 z m -0.79663,1.47383 c 0,-0.2042 -0.54087,-0.94834 -1.20192,-1.65364 l -1.20192,-1.28237 1.13577,1.63938 c 0.62468,0.90166 1.16554,1.6458 1.20192,1.65365 0.0364,0.008 0.0661,-0.15281 0.0661,-0.35702 z m 1.05833,-3.69736 c 0,-0.0549 -0.20836,-0.2633 -0.46302,-0.46302 -0.41965,-0.32911 -0.42901,-0.319752 -0.0999,0.0999 0.34565,0.44073 0.56292,0.58088 0.56292,0.36312 z m 0.35332,-1.970597 c -0.11913,-0.45556 -0.34763,-0.575344 -1.09754,-0.575344 h -0.94709 l 0.89992,0.928479 c 0.95146,0.981662 1.45328,0.826851 1.14471,-0.353135 z m -73.11402,-1.633917 c 0.32093,-0.2074 0.28295,-0.257256 -0.19844,-0.260532 -0.32742,-0.0022 -0.59531,0.115011 -0.59531,0.260532 0,0.331502 0.28079,0.331502 0.79375,0 z m 83.24022,79.156944 c -0.0933,-0.151 -0.0408,-0.35423 0.11682,-0.45162 0.3932,-0.24301 0.53239,-0.0497 0.26998,0.37485 -0.14058,0.22747 -0.27694,0.25453 -0.3868,0.0768 z"
       id="path3763" />
  </g>
</svg>
