<?xml version="1.0" encoding="UTF-8" standalone="no"?>
<!-- Created with Inkscape (http://www.inkscape.org/) -->

<svg
   width="95.951874mm"
   height="28.547871mm"
   viewBox="0 0 95.951883 28.547872"
   version="1.1"
   id="svg5"
   inkscape:version="1.1 (c4e8f9ed74, 2021-05-24)"
   sodipodi:docname="forwinterandspring.svg"
   xmlns:inkscape="http://www.inkscape.org/namespaces/inkscape"
   xmlns:sodipodi="http://sodipodi.sourceforge.net/DTD/sodipodi-0.dtd"
   xmlns="http://www.w3.org/2000/svg"
   xmlns:svg="http://www.w3.org/2000/svg">
  <sodipodi:namedview
     id="namedview7"
     pagecolor="#ffffff"
     bordercolor="#666666"
     borderopacity="1.0"
     inkscape:pageshadow="2"
     inkscape:pageopacity="0.0"
     inkscape:pagecheckerboard="0"
     inkscape:document-units="mm"
     showgrid="false"
     inkscape:zoom="1.3380612"
     inkscape:cx="156.56982"
     inkscape:cy="272.40907"
     inkscape:window-width="2506"
     inkscape:window-height="1403"
     inkscape:window-x="1974"
     inkscape:window-y="0"
     inkscape:window-maximized="1"
     inkscape:current-layer="layer1" />
  <defs
     id="defs2" />
  <g
     inkscape:label="Layer 1"
     inkscape:groupmode="layer"
     id="layer1"
     transform="translate(-90.159848,-34.491839)">
    <path
       style="fill:#000000;stroke-width:0.264583"
       d="m 114.95969,62.667948 c 0.0127,-0.30823 0.0754,-0.37092 0.15985,-0.15985 0.0764,0.19099 0.067,0.4192 -0.0209,0.50712 -0.0879,0.0879 -0.15045,-0.0684 -0.13896,-0.34727 z m 69.5463,-0.44097 c -0.01,-0.0364 -0.0632,-0.41023 -0.11819,-0.83077 -0.1755,-1.34244 -0.32381,-1.53985 -0.91799,-1.22185 -0.35024,0.18744 -0.53309,0.19308 -0.53309,0.0165 0,-0.14787 0.31618,-0.34821 0.70262,-0.4452 0.79909,-0.20056 1.60223,0.54676 1.16011,1.07948 -0.15025,0.18104 -0.15008,0.44518 5.3e-4,0.68316 0.32072,0.50725 0.3168,0.78487 -0.0112,0.78487 -0.14552,0 -0.27278,-0.0298 -0.28281,-0.0661 z m -90.977548,-0.61736 c 0.01269,-0.30823 0.07539,-0.37092 0.159853,-0.15986 0.07643,0.191 0.06703,0.4192 -0.02089,0.50712 -0.08792,0.0879 -0.150453,-0.0683 -0.138965,-0.34726 z m 55.479388,0.23168 c 0.32958,-0.0633 0.53176,-0.22436 0.44928,-0.35781 -0.0825,-0.13345 0.015,-0.17935 0.21656,-0.10199 0.20158,0.0773 0.38158,-0.0133 0.39998,-0.20147 0.0184,-0.18816 0.10956,-0.65854 0.20256,-1.04528 0.13104,-0.54488 0.059,-0.73502 -0.32009,-0.8447 -0.42548,-0.12311 -0.42028,-0.13455 0.04,-0.0879 0.62376,0.0633 0.86023,1.07745 0.38479,1.65032 -0.21863,0.26344 -0.22652,0.38231 -0.0254,0.38231 0.16057,0 0.36445,-0.28889 0.45307,-0.64199 0.0886,-0.35309 0.38855,-0.84779 0.6665,-1.09934 0.48259,-0.43673 0.50537,-0.43164 0.50537,0.11282 0,0.3136 -0.0989,0.57018 -0.21987,0.57018 -0.12093,0 -0.37214,0.2845 -0.55824,0.63223 -0.38483,0.71908 -1.35195,1.23692 -2.2109,1.18382 l -0.58286,-0.036 0.59923,-0.11518 z m -22.04474,-0.36498 c -0.0978,-0.1582 -0.0278,-0.42609 0.1555,-0.59531 0.25542,-0.23582 0.28965,-0.23044 0.14654,0.023 -0.24079,0.4265 0.42627,0.43689 0.84992,0.0132 0.17463,-0.17462 0.3175,-0.59134 0.3175,-0.92604 0,-0.39158 0.15722,-0.60854 0.44097,-0.60854 0.24254,0 0.36579,0.0752 0.2739,0.16708 -0.34791,0.34791 0.33456,1.10862 0.86917,0.96882 0.40582,-0.10612 0.53263,-0.0102 0.53263,0.40291 0,0.73413 -0.95675,1.01639 -1.56853,0.46274 -0.42225,-0.38214 -0.50773,-0.38466 -0.80718,-0.0238 -0.39129,0.47147 -0.95718,0.52566 -1.21042,0.11591 z m 2.20932,-0.75866 c -0.36506,-0.58457 -0.6221,-0.5117 -0.38397,0.10884 0.0862,0.22456 0.28048,0.40829 0.4318,0.40829 0.17414,0 0.15658,-0.18983 -0.0478,-0.51713 z m 8.16203,0.77646 c -0.70651,-0.12288 -2.07397,-0.55892 -3.0388,-0.96898 -1.28506,-0.54616 -2.18855,-0.74556 -3.3781,-0.74556 -1.19039,0 -1.58999,-0.0883 -1.49695,-0.33073 0.0698,-0.18197 0.56641,-0.33073 1.10402,-0.33073 0.53741,0 1.11039,-0.13328 1.2733,-0.29619 0.21853,-0.21853 0.50926,-0.20188 1.10885,0.0635 0.57609,0.255 0.69625,0.40055 0.41278,0.49998 -0.54557,0.19138 3.76575,1.85431 4.7703,1.83997 l 0.79375,-0.0113 -0.79385,-0.34597 c -1.00467,-0.43786 -1.46889,-0.99781 -1.72636,-2.08234 -0.15433,-0.65009 -0.21032,-0.71068 -0.23083,-0.24981 -0.0149,0.33464 0.15457,0.95972 0.37659,1.38906 0.4712,0.91121 0.32517,0.94741 -0.93284,0.23126 -0.56369,-0.32089 -0.6905,-0.46404 -0.32408,-0.36585 0.33108,0.0887 0.58487,0.0631 0.56398,-0.0571 -0.41831,-2.40528 1.90826,-4.42596 3.61214,-3.13721 0.73108,0.55296 1.15036,0.50035 0.98712,-0.12387 -0.0903,-0.34527 -0.008,-0.52917 0.23644,-0.52917 0.43237,0 1.00982,0.51307 1.00982,0.89723 0,0.14423 -0.18184,0.0311 -0.40409,-0.25135 -0.29425,-0.374 -0.3936,-0.40572 -0.36552,-0.11672 0.0802,0.82578 -0.0326,1.34893 -0.2605,1.20807 -0.13,-0.0803 -0.31,0.14732 -0.4,0.50591 -0.21952,0.87465 -1.04399,1.30696 -1.76085,0.92331 -0.71152,-0.38079 -0.55556,-1.11407 0.28193,-1.3256 0.63271,-0.15982 0.61684,-0.18529 -0.38311,-0.61472 -1.02135,-0.43862 -1.05457,-0.43558 -1.5875,0.1453 l -0.54432,0.5933 0.55,-0.4532 c 0.78002,-0.64274 1.02734,-0.56217 0.38635,0.12585 -0.64398,0.69123 -0.66858,1.04965 -0.14194,2.06805 0.48705,0.94186 1.8209,1.26888 3.33061,0.81655 1.40138,-0.41986 1.92216,-1.45479 1.94263,-3.86053 0.0149,-1.75143 -0.0918,-2.10099 -1.07921,-3.53626 -0.0366,-0.0532 -0.35143,0.23457 -0.69966,0.63941 -0.83033,0.96531 -2.07559,0.99697 -2.99638,0.0762 -0.92017,-0.92017 -1.12511,-3.17273 -0.36307,-3.99069 0.39803,-0.42724 0.44578,-0.61517 0.19553,-0.76959 -0.18211,-0.11237 -0.46168,-0.71481 -0.62127,-1.33876 -0.36619,-1.43171 0.13673,-2.48486 1.30965,-2.74248 1.00752,-0.22129 1.76056,0.65816 1.71672,2.0049 -0.0224,0.68793 -0.0581,0.75596 -0.13871,0.26458 -0.20079,-1.22333 -0.6741,-2.11666 -1.12147,-2.11666 -0.73215,0 -1.07916,0.56977 -1.07916,1.77194 0,0.93471 0.17021,1.32534 0.95683,2.19604 1.00164,1.1087 1.60483,1.38426 1.30476,0.59608 -0.14133,-0.37125 -0.11023,-0.39747 0.1569,-0.13229 0.55044,0.54639 0.75651,0.38095 0.75651,-0.60734 0,-0.6432 0.20415,-1.14221 0.64944,-1.5875 0.73978,-0.73978 1.26081,-0.82008 1.72127,-0.26527 0.47836,0.57639 0.22446,1.29267 -0.52001,1.46697 -0.57432,0.13446 -0.67066,0.3191 -0.74155,1.42122 -0.0448,0.69667 0.0376,1.41016 0.18313,1.58552 0.47572,0.5732 0.8403,1.75849 0.51924,1.68806 -0.15959,-0.035 -0.35026,0.10176 -0.4237,0.30392 -0.0818,0.22511 -0.0177,0.29596 0.16536,0.18282 0.1644,-0.10161 0.30073,-0.0289 0.30296,0.16161 0.003,0.26238 0.0621,0.25456 0.24362,-0.0322 0.17646,-0.27884 0.28978,-0.11093 0.43017,0.63743 0.11838,0.631 0.0762,1.19919 -0.11133,1.49945 -0.37099,0.59405 -0.37896,0.75523 -0.0374,0.75523 0.14553,0 0.26459,-0.19704 0.26459,-0.43788 0,-0.39553 0.0506,-0.3921 0.52293,0.0354 0.28761,0.26029 0.45917,0.57639 0.38125,0.70247 -0.0779,0.12607 -0.0267,0.22922 0.11377,0.22922 0.15924,0 0.14955,0.34501 -0.0257,0.91611 -0.15464,0.50385 -0.37385,0.85881 -0.48715,0.78879 -0.1133,-0.07 -0.51735,0.28089 -0.89788,0.77979 -1.17625,1.54214 -3.1309,2.15926 -5.52197,1.74339 z m 2.66812,-0.41918 c -0.0879,-0.0879 -0.31612,-0.0973 -0.50712,-0.0209 -0.21106,0.0845 -0.14837,0.14716 0.15985,0.15985 0.27892,0.0115 0.43519,-0.051 0.34727,-0.13896 z m 2.45125,-1.46735 c 0.83498,-1.15266 0.9705,-1.5478 0.53082,-1.5478 -0.14552,0 -0.26458,0.17445 -0.26458,0.38767 0,0.21322 -0.36952,0.80853 -0.82116,1.32291 -0.45164,0.51439 -0.69051,0.93525 -0.53082,0.93525 0.15968,0 0.64826,-0.49411 1.08574,-1.09803 z m -10.05251,-0.48947 c 0,-0.14552 -0.11906,-0.26458 -0.26458,-0.26458 -0.14552,0 -0.26459,0.11906 -0.26459,0.26458 0,0.14552 0.11907,0.26459 0.26459,0.26459 0.14552,0 0.26458,-0.11907 0.26458,-0.26459 z m 6.52328,-0.65004 c -0.0862,-0.22456 -0.27947,-0.40829 -0.42956,-0.40829 -0.38775,0 -0.33937,0.72591 0.0578,0.86777 0.44948,0.16053 0.55812,0.0263 0.37172,-0.45948 z m 0.88505,-0.50328 c 0,-0.61786 -0.44576,-1.22793 -0.89723,-1.22793 -0.14423,0 -0.0435,0.15998 0.22396,0.35552 0.33561,0.2454 0.44506,0.57071 0.35337,1.05033 -0.073,0.38214 -0.031,0.63185 0.0935,0.55491 0.1245,-0.077 0.22636,-0.40672 0.22636,-0.73283 z m 4.10616,-0.41808 c -0.16965,-0.53451 -0.66657,-0.52323 -0.66657,0.0151 0,0.14552 0.11906,0.191 0.26458,0.10106 0.14552,-0.0899 0.26458,0.0419 0.26458,0.29307 0,0.25112 0.0704,0.38619 0.15646,0.30014 0.086,-0.0861 0.0775,-0.40528 -0.019,-0.7094 z m -0.93116,-2.80984 c 0,-0.22687 -0.121,-0.3377 -0.26889,-0.2463 -0.1479,0.0914 -0.20041,0.27703 -0.11668,0.41249 0.22681,0.36699 0.38557,0.29856 0.38557,-0.16619 z m -3.57187,-0.91042 c 0.0899,-0.14552 0.40164,-0.26459 0.69269,-0.26459 0.29104,0 0.4601,-0.11174 0.37569,-0.24832 -0.0844,-0.13658 0.0574,-0.36729 0.31512,-0.51269 0.37715,-0.21278 0.40357,-0.33001 0.1354,-0.6008 -0.26913,-0.27175 -0.41189,-0.22406 -0.74261,0.24811 -0.53965,0.77046 -1.32267,0.74154 -1.8534,-0.0684 -0.34303,-0.52353 -0.36988,-0.79892 -0.13546,-1.38907 0.23508,-0.5918 0.26929,-0.61383 0.17451,-0.11237 -0.14624,0.77377 0.25531,1.88983 0.67995,1.88983 0.41527,0 1.28641,-0.7957 1.27597,-1.16548 -0.008,-0.3 -2.32773,-2.1621 -2.4661,-1.98 -0.23337,0.30712 -0.59325,2.61632 -0.40773,2.61632 0.12076,0 0.14917,0.18346 0.0631,0.40769 -0.086,0.22423 -0.0525,0.38205 0.0745,0.3507 0.12699,-0.0313 0.5617,0.1035 0.96601,0.29966 0.52925,0.25677 0.64039,0.41675 0.39688,0.57129 -0.24192,0.15351 -0.2485,0.21579 -0.0231,0.21869 0.17332,0.002 0.3887,-0.11501 0.47864,-0.26053 z m 1.94005,-2.29404 c -0.48819,-0.67964 -1.03899,-1.28616 -1.224,-1.34783 -0.18501,-0.0617 0.11397,0.49426 0.66441,1.23541 0.55043,0.74116 1.10123,1.34768 1.22399,1.34784 0.12276,1.5e-4 -0.17622,-0.55578 -0.6644,-1.23542 z m -0.1333,-1.87315 c -0.13255,-1.03342 0.58122,-2.43192 0.87775,-1.71979 0.18613,0.44698 0.62279,0.42045 0.62279,-0.0378 0,-0.67003 -0.88721,-0.76439 -1.38674,-0.14748 -0.59131,0.73023 -0.62836,2.8973 -0.0495,2.8973 0.0347,0 0.006,-0.44649 -0.0643,-0.99219 z m 3.94623,11.44491 c 0.0717,-0.37537 -0.029,-0.78852 -0.23374,-0.95844 -0.35868,-0.29767 -0.47634,-0.008 -0.42624,1.05113 0.012,0.25401 -0.0654,0.27653 -0.26492,0.077 -0.1995,-0.19949 -0.16175,-0.65252 0.12912,-1.54958 l 0.41103,-1.26767 0.19664,0.79375 c 0.10815,0.43657 0.27822,0.91282 0.37793,1.05834 0.29271,0.42719 0.2666,1.45521 -0.037,1.45521 -0.15473,0 -0.22281,-0.29387 -0.15286,-0.65978 z m 1.37519,0.2483 c -0.48427,-0.38797 -0.47582,-0.39348 0.14787,-0.0965 0.8099,0.38572 0.96,0.50793 0.62384,0.50793 -0.14197,0 -0.48923,-0.18516 -0.77171,-0.41148 z m -22.53511,-0.0365 c 0.25743,-0.0671 0.61461,-0.0627 0.79375,0.01 0.17913,0.0725 -0.0315,0.12736 -0.46806,0.12197 -0.43656,-0.005 -0.58313,-0.0647 -0.32569,-0.13177 z m -1.36964,-0.42719 c -0.15898,-0.15897 -0.28905,-0.51038 -0.28905,-0.78091 0,-0.27052 -0.11906,-0.41828 -0.26458,-0.32834 -0.52342,0.32349 -0.25081,-0.4347 0.38485,-1.07036 1.03761,-1.03761 2.98094,-0.64491 2.74974,0.55564 -0.1398,0.72591 -1.01981,0.82922 -1.19983,0.14086 -0.161,-0.61568 -0.29879,-0.66089 -0.87643,-0.2876 -0.33917,0.21919 -0.32955,0.25707 0.0661,0.26054 0.45115,0.004 0.57925,0.28323 0.47415,1.03378 -0.04,0.28552 0.20568,0.33401 1.09313,0.21575 0.63236,-0.0843 0.96707,-0.0575 0.74782,0.0597 -0.69713,0.37279 -2.58281,0.50408 -2.88595,0.20094 z m 0.637,-0.58008 c 0,-0.65595 -0.15408,-0.81606 -0.47576,-0.49438 -0.13777,0.13777 0.23122,1.15584 0.41892,1.15584 0.0313,0 0.0568,-0.29766 0.0568,-0.66146 z m 1.4552,-1.31788 c 0,-0.51647 -1.15534,-0.79253 -1.76677,-0.42215 -0.40515,0.24543 -0.36634,0.26589 0.24295,0.1281 0.52794,-0.11939 0.76949,-0.0484 0.88821,0.26095 0.20476,0.53359 0.63561,0.55603 0.63561,0.0331 z m 27.7475,1.51632 c -0.3291,-0.41965 -0.31974,-0.42901 0.0999,-0.0999 0.44073,0.34564 0.58089,0.56292 0.36312,0.56292 -0.0549,0 -0.2633,-0.20836 -0.46302,-0.46302 z m 0.8275,0.0576 c 0,-0.22298 -0.26789,-0.51308 -0.59531,-0.64469 -0.42591,-0.1712 -0.46893,-0.24406 -0.15119,-0.25606 0.54242,-0.0205 1.33758,0.72733 1.1302,1.06289 -0.22395,0.36236 -0.3837,0.29485 -0.3837,-0.16214 z m 14.55209,0.12767 c 0,-0.92397 1.90714,-3.18576 2.23666,-2.65259 0.0967,0.15647 0.0671,0.28448 -0.0658,0.28448 -0.53383,0 -1.64175,1.33061 -1.64175,1.97174 0,0.37075 -0.11906,0.6741 -0.26458,0.6741 -0.14552,0 -0.26458,-0.12498 -0.26458,-0.27773 z m -24.31511,-0.43784 c 0.19266,-0.32081 0.40724,-0.52633 0.47684,-0.45673 0.0696,0.0696 -0.088,0.33209 -0.35028,0.58328 -0.4556,0.43638 -0.46123,0.43074 -0.12656,-0.12655 z m 37.60909,0.12025 c 0.0599,-0.1819 0.3807,-0.3705 0.71288,-0.41912 0.38779,-0.0568 0.53955,0.0158 0.42401,0.20275 -0.099,0.16013 -0.29077,0.22265 -0.42624,0.13893 -0.13546,-0.0837 -0.2463,-0.0261 -0.2463,0.12797 0,0.15411 -0.12898,0.2802 -0.28663,0.2802 -0.15765,0 -0.23762,-0.14882 -0.17772,-0.33073 z m -54.78651,-0.38742 c 0.15528,-0.1871 0.36696,-0.34018 0.47041,-0.34018 0.10345,0 0.18809,0.15308 0.18809,0.34018 0,0.1871 -0.21168,0.34018 -0.47041,0.34018 -0.3533,0 -0.40013,-0.0847 -0.18809,-0.34018 z m 22.45094,-0.42372 c -0.0203,-0.52185 0.58195,-1.23938 1.04033,-1.23938 0.56264,0 1.33672,0.66825 1.32446,1.14338 -0.004,0.17151 -0.1294,0.10347 -0.27773,-0.15119 -0.14832,-0.25466 -0.51853,-0.46302 -0.82268,-0.46302 -0.30415,0 -0.71116,0.20836 -0.90448,0.46302 -0.19332,0.25466 -0.35527,0.3659 -0.3599,0.24719 z m 25.21317,-0.56521 c 0.31641,-0.3568 0.6175,-0.52785 0.66908,-0.3801 0.0516,0.14775 -0.12702,0.4359 -0.39688,0.64033 -0.76826,0.58199 -0.90399,0.45223 -0.2722,-0.26023 z m -20.45908,0.13898 c 0,-0.13485 -0.14883,-0.29499 -0.33073,-0.35587 -0.1819,-0.0609 -0.003,-0.0602 0.39687,0.002 0.87899,0.13567 0.95413,-0.12032 0.1323,-0.45066 l -0.59532,-0.23929 0.5797,-0.0168 c 0.68226,-0.0197 0.94052,0.29971 0.71577,0.88539 -0.1716,0.44722 -0.89859,0.58926 -0.89859,0.17561 z m -43.1355,-0.83519 c -0.005,-0.4972 -0.18322,-1.13511 -0.39688,-1.41759 -0.43249,-0.57181 -0.52626,-1.73537 -0.13984,-1.73537 0.13673,0 0.29531,0.44649 0.35239,0.99219 0.0761,0.72732 0.11566,0.58189 0.14827,-0.54478 0.0277,-0.95584 -0.0544,-1.47585 -0.21708,-1.37532 -0.15039,0.0929 -0.19409,-0.0142 -0.10283,-0.25197 0.10879,-0.28352 0.0407,-0.36832 -0.21655,-0.26961 -0.26677,0.10236 -0.50579,-0.26013 -0.82669,-1.25377 -0.24828,-0.76878 -0.67834,-1.87403 -0.95569,-2.45611 l -0.50427,-1.05834 -0.062,1.05834 c -0.0341,0.58208 -0.0324,1.73313 0.004,2.55788 l 0.0657,1.49955 -1.02693,-0.13774 -1.02693,-0.13774 0.10685,1.12043 c 0.0744,0.77983 0.017,1.06488 -0.18884,0.93768 -0.39798,-0.24596 -0.37216,-1.12383 0.0875,-2.97442 0.46863,-1.88685 0.76851,-6.79102 0.40138,-6.56412 -0.14716,0.091 -0.25538,-0.2723 -0.25538,-0.85724 0,-0.5583 -0.18534,-1.2797 -0.41188,-1.60312 -0.53323,-0.7613 -0.0514,-0.75707 0.829,0.007 0.40039,0.34761 1.03425,0.59532 1.52336,0.59532 0.74465,0 0.84247,0.0881 0.88115,0.79375 0.0501,0.91382 0.49788,2.74625 0.7271,2.97547 0.20393,0.20392 0.23347,-0.37232 0.16612,-3.24006 -0.0383,-1.62981 -0.17402,-2.5035 -0.43018,-2.768672 -0.2766,-0.286334 -0.37426,-0.299519 -0.37426,-0.05053 0,0.185292 -0.0942,0.278702 -0.20925,0.207572 -0.31948,-0.197451 -0.3705,-1.95608 -0.0623,-2.146572 0.41867,-0.258751 0.3213,-1.119206 -0.14698,-1.298903 -0.62396,-0.239434 -0.63982,-0.224122 -0.63982,0.617536 0,0.427975 -0.11906,0.85172 -0.26459,0.941657 -0.16426,0.101524 -0.26458,-0.394128 -0.26458,-1.307302 0,-0.808953 0.10935,-1.470823 0.24299,-1.470823 0.53866,0 2.40257,2.094966 2.39443,2.691235 -0.008,0.582317 -0.0285,0.589501 -0.37587,0.131188 -0.35182,-0.464226 -0.3809,-0.459758 -0.68312,0.104944 -0.25946,0.48481 -0.24198,0.631048 0.0982,0.821436 0.22764,0.127392 0.57658,0.394318 0.77543,0.593167 0.30567,0.305667 0.53283,0.283017 1.4699,-0.146566 0.80561,-0.36932 1.24128,-0.436972 1.59499,-0.247674 0.77828,0.416524 1.70598,-0.377665 1.5648,-1.339596 -0.0618,-0.421352 0.0197,-0.87576 0.1812,-1.009796 0.36526,-0.303139 3.46224,-0.404389 4.44483,-0.145315 0.4878,0.128615 0.72761,0.09004 0.72761,-0.117038 0,-0.169885 -0.11906,-0.235297 -0.26459,-0.14536 -0.14552,0.08994 -0.26458,0.02594 -0.26458,-0.142222 0,-0.512094 2.04471,-2.664038 3.03621,-3.195454 1.01731,-0.545243 1.18447,-0.421949 0.48132,0.355019 -0.24817,0.274226 -0.4772,0.938445 -0.50896,1.476042 -0.11568,1.958245 -0.45594,2.622325 -0.74781,1.459448 -0.11206,-0.446493 -0.0727,-0.770365 0.10052,-0.82812 0.40528,-0.135092 0.35185,-0.497485 -0.0988,-0.670431 -0.26989,-0.103568 -0.33462,-0.02002 -0.21864,0.28221 0.12628,0.329088 0.0545,0.387019 -0.30752,0.248108 -0.35167,-0.134947 -0.43308,-0.07911 -0.31882,0.218649 0.0844,0.219932 0.0656,0.399876 -0.0418,0.399876 -0.1074,0 -0.17973,0.863203 -0.16072,1.918229 0.019,1.055026 -0.0154,1.469031 -0.0765,0.920011 -0.0611,-0.54902 -0.21493,-0.934031 -0.34186,-0.85558 -0.12694,0.07845 -0.31695,0.0032 -0.42225,-0.167141 -0.12648,-0.204639 -0.0761,-0.238504 0.14833,-0.09978 0.2263,0.13986 0.29898,0.08755 0.21759,-0.156601 -0.1251,-0.375285 -2.01198,-0.819164 -2.42413,-0.570264 -0.12581,0.07597 -0.15205,0.866819 -0.0583,1.75744 0.11904,1.131213 0.0895,1.499683 -0.098,1.222433 -0.1476,-0.218279 -0.2718,-0.694529 -0.27602,-1.058331 -0.004,-0.363803 -0.0773,-0.921111 -0.16241,-1.238463 -0.21059,-0.7852 -0.88906,-0.486032 -0.92273,0.406874 -0.0252,0.667125 -0.0343,0.671478 -0.19844,0.09463 -0.1657,-0.582297 -0.18675,-0.586466 -0.56894,-0.112651 -0.21828,0.270611 -0.57547,0.831475 -0.79375,1.246364 -0.34341,0.652727 -0.55716,0.757007 -1.58675,0.774107 l -1.18988,0.0198 -0.2007,1.45521 c -0.11038,0.80037 -0.19595,3.18162 -0.19016,5.29167 0.0119,4.34588 -0.20314,9.54424 -0.40313,9.74423 -0.0734,0.0735 -0.13733,-0.27325 -0.14196,-0.77044 z m -3.39319,-5.77532 c -0.16011,-0.099 -0.24282,-0.56143 -0.18381,-1.02773 0.059,-0.4663 -0.003,-0.84782 -0.13802,-0.84782 -0.13492,0 -0.24531,0.34745 -0.24531,0.77211 0,0.42466 -0.0798,0.97997 -0.17726,1.23403 -0.11573,0.30158 -0.0762,0.39943 0.11401,0.2819 0.1602,-0.099 0.38082,-0.0351 0.49028,0.142 0.15303,0.24762 0.22584,0.24155 0.31511,-0.0263 0.0639,-0.19156 -0.0149,-0.42926 -0.175,-0.52821 z m 3.52312,-0.48649 c -0.0417,-0.69123 -0.0861,-1.36988 -0.0987,-1.50813 -0.0126,-0.13824 -0.15641,-0.11778 -0.31966,0.0455 -0.16325,0.16326 -0.47716,0.22763 -0.69756,0.14305 -0.26804,-0.10285 -0.35593,-0.0303 -0.26542,0.21911 0.0744,0.20509 0.28336,0.33843 0.46428,0.29632 0.22566,-0.0525 0.27766,0.12781 0.1656,0.57428 -0.19733,0.78625 0.0346,1.48667 0.49233,1.48667 0.23384,0 0.31206,-0.37935 0.25911,-1.25677 z m -0.83807,-1.85208 c -0.0939,-0.25467 -0.50691,-1.09079 -0.91773,-1.85805 -0.41083,-0.76727 -0.74697,-1.80204 -0.74697,-2.29949 0,-1.0563 -0.32599,-1.36701 -0.81547,-0.77723 -0.31021,0.37379 -0.36754,0.35971 -0.55061,-0.1352 -0.1124,-0.30384 -0.32118,-0.55243 -0.46397,-0.55243 -0.14686,0 -0.096,0.39149 0.11702,0.9014 0.25441,0.60888 0.33008,1.42456 0.23319,2.51354 -0.094,1.05604 -0.046,1.61214 0.13903,1.61214 0.17128,0 0.28248,-0.67701 0.28248,-1.71979 0,-0.97014 0.11533,-1.71979 0.26458,-1.71979 0.14553,0 0.25049,0.0893 0.23326,0.19844 -0.12593,0.79755 0.0705,1.3574 0.4282,1.22016 0.44836,-0.17206 0.54715,0.30938 0.11792,0.57466 -0.33209,0.20524 0.32552,1.34756 1.17193,2.03575 0.7017,0.57053 0.71546,0.57069 0.50714,0.006 z m 0.94656,-5.57187 c 0.0195,-0.93914 -0.0703,-1.60445 -0.20517,-1.52109 -0.13186,0.0815 -0.17263,0.40479 -0.0906,0.71845 0.0984,0.37639 0.0499,0.50895 -0.14271,0.38991 -0.20113,-0.12431 -0.29763,0.37678 -0.31046,1.61227 -0.0102,0.98595 -0.0465,2.20936 -0.0806,2.71868 -0.0341,0.50932 0.0571,1.06194 0.20264,1.22804 0.28092,0.32064 0.5613,-1.98118 0.62688,-5.14626 z m 18.02624,14.32098 c 0,-0.13326 0.41731,-0.39319 0.92735,-0.57762 0.79233,-0.28651 0.98768,-0.27499 1.34181,0.0791 0.37624,0.37624 0.34562,0.4148 -0.33203,0.41808 -0.41058,0.002 -1.01439,0.0754 -1.34181,0.16315 -0.32743,0.0877 -0.59532,0.0505 -0.59532,-0.0827 z m -1.67569,-0.2604 c -0.38287,-0.38287 -0.14482,-0.88173 0.41892,-0.87789 0.48349,0.003 0.52076,0.053 0.19844,0.26458 -0.35278,0.23159 -0.35278,0.28948 0,0.52107 0.34799,0.22844 0.34527,0.26103 -0.022,0.26458 -0.23041,0.002 -0.4983,-0.0753 -0.59531,-0.17234 z m 6.76892,-0.28336 c -0.67444,-0.45152 -0.77569,-1.00192 -0.22329,-1.21389 0.49988,-0.19183 1.19402,0.63937 0.98544,1.18002 -0.15013,0.38911 -0.22645,0.39251 -0.76215,0.0339 z m 0.59532,-0.59858 c -0.0899,-0.14552 -0.27556,-0.26459 -0.41249,-0.26459 -0.13694,0 -0.24897,0.11907 -0.24897,0.26459 0,0.14552 0.18562,0.26458 0.41249,0.26458 0.22687,0 0.3389,-0.11906 0.24897,-0.26458 z m -28.51267,0.63559 c -0.23851,-0.23851 0.0899,-0.91908 0.36227,-0.75075 0.13027,0.0805 0.23686,0.31795 0.23686,0.52765 0,0.38962 -0.31523,0.507 -0.59913,0.2231 z m 8.00746,-0.7835 c 0,-0.38401 -0.11452,-0.60629 -0.26459,-0.51355 -0.14552,0.0899 -0.26458,-0.009 -0.26458,-0.22066 0,-0.2113 0.17859,-0.45272 0.39688,-0.53648 0.31169,-0.11961 0.39687,0.0731 0.39687,0.89773 0,0.57752 -0.0595,1.05003 -0.13229,1.05003 -0.0728,0 -0.13229,-0.30468 -0.13229,-0.67707 z m 1.36823,0.12214 c -0.19061,-0.30521 -0.27878,-0.62271 -0.19594,-0.70555 0.0828,-0.0829 0.15062,-0.005 0.15062,0.17367 0,0.17836 0.11907,0.25071 0.26459,0.16077 0.14552,-0.0899 0.26458,0.0816 0.26458,0.38126 0,0.68069 -0.0531,0.67958 -0.48385,-0.0102 z m 68.21817,0.33276 c -5.3e-4,-0.19496 -0.24712,-0.55377 -0.54795,-0.79737 -0.53797,-0.43562 -0.53295,-0.44285 0.30554,-0.43929 0.46889,0.002 0.90354,-0.1452 0.9659,-0.3271 0.0623,-0.18191 -0.0736,-0.33073 -0.302,-0.33073 -0.22846,0 -0.59379,-0.42701 -0.81185,-0.9489 -0.36201,-0.86642 -0.43295,-0.91241 -0.8162,-0.52916 -0.62701,0.62701 -1.55353,0.5088 -2.43012,-0.31007 -0.6739,-0.62951 -0.80699,-0.99111 -0.96866,-2.63174 -0.22055,-2.23823 -0.0249,-3.58992 0.69145,-4.77775 0.67493,-1.11911 1.36408,-1.49402 2.06082,-1.12113 0.70005,0.37465 0.66824,0.48237 -0.0992,0.33567 -0.76316,-0.14588 -1.75293,0.80439 -1.75293,1.68298 0,0.32777 -0.13178,0.67739 -0.29283,0.77693 -0.20423,0.12622 -0.18421,0.25103 0.0661,0.41249 0.22804,0.14707 0.26247,0.30389 0.0944,0.42995 -0.35732,0.26798 -0.39293,1.91823 -0.0414,1.91823 0.17522,0 0.16105,0.11848 -0.038,0.3175 -0.42195,0.42195 -0.40202,0.74083 0.0463,0.74083 0.20009,0 0.43224,0.34216 0.51588,0.76036 0.11074,0.55373 0.34028,0.79635 0.84461,0.89276 0.79504,0.15198 1.97476,-0.31185 1.97781,-0.77761 0.001,-0.17331 0.13082,-0.39469 0.28818,-0.49194 0.17079,-0.10556 0.26516,0.0215 0.23412,0.31511 -0.0986,0.93278 0.009,1.94715 0.20737,1.94684 0.10914,-1.7e-4 0.20017,-0.95267 0.20229,-2.11666 l 0.004,-2.11636 h -1.11271 c -0.612,0 -1.1863,0.11906 -1.27624,0.26458 -0.0971,0.15708 0.21158,0.26459 0.75967,0.26459 0.91155,0 0.92014,0.0106 0.6819,0.84129 -0.28659,0.99929 -0.68129,1.30433 -1.56773,1.21162 -1.02306,-0.107 -1.33127,-1.0567 -1.20842,-3.72359 0.15125,-3.28333 0.89235,-3.99141 2.12833,-2.03349 0.36745,0.58208 0.78421,1.05833 0.92614,1.05833 0.14401,0 0.23023,-0.643 0.19511,-1.45508 -0.0658,-1.52116 -0.1483,-1.661 -0.67146,-1.13783 -0.19462,0.19462 -0.3175,0.21049 -0.3175,0.041 0,-0.41117 1.03102,-1.26776 1.25561,-1.04318 0.10671,0.10672 0.16807,0.98904 0.13636,1.96071 -0.054,1.65466 -0.0371,1.71258 0.26737,0.91356 0.17877,-0.46922 0.61963,-1.12406 0.97968,-1.45521 l 0.65464,-0.60209 -0.61914,0.71113 c -0.37612,0.432 -0.67239,1.18356 -0.7548,1.91473 -0.12892,1.14377 -0.17014,1.19516 -0.82925,1.03366 -0.73577,-0.18028 -1.68983,-1.05154 -1.98026,-1.80837 -0.14216,-0.37046 -0.24834,-0.39451 -0.56855,-0.12876 -0.28193,0.23398 -0.39272,0.86229 -0.39013,2.21261 0.005,2.51655 0.18356,3.12521 0.88807,3.02419 0.74814,-0.10727 0.87726,-0.91282 0.1817,-1.13358 -0.53443,-0.16962 -0.75301,-1.03513 -0.32779,-1.29793 0.11904,-0.0736 0.89961,-0.0632 1.73461,0.0229 l 1.51819,0.15669 -0.17634,2.02147 c -0.14672,1.68205 -0.10479,2.08085 0.24977,2.3751 0.48664,0.40388 0.56422,1.23058 0.14007,1.49272 -0.15732,0.0972 -0.51406,0.55073 -0.79276,1.0078 -0.27871,0.45706 -0.50718,0.67152 -0.50773,0.47656 z m -73.81974,-0.32261 c 0,-0.15411 0.11907,-0.20661 0.26459,-0.11668 0.14552,0.0899 0.26458,0.21603 0.26458,0.2802 0,0.0642 -0.11906,0.11668 -0.26458,0.11668 -0.14552,0 -0.26459,-0.12609 -0.26459,-0.2802 z m 37.40211,0.0961 c 0.28596,-0.28596 0.96248,-0.32611 0.96248,-0.0571 0,0.13264 -0.25797,0.24117 -0.57327,0.24117 -0.31529,0 -0.49044,-0.0828 -0.38921,-0.18405 z m -53.62988,-0.25692 c -0.271233,-0.27124 -0.209035,-1.35971 0.08819,-1.54341 0.157458,-0.0973 0.264583,0.21774 0.264583,0.77814 0,0.96694 -0.04768,1.07037 -0.352777,0.76527 z m 12.04602,-0.48507 c 0.005,-0.43656 0.0647,-0.58313 0.13178,-0.3257 0.0671,0.25744 0.0627,0.61462 -0.01,0.79375 -0.0725,0.17913 -0.12736,-0.0315 -0.12197,-0.46805 z m 23.28467,0.34396 c -0.17462,-0.17463 -0.3175,-0.47931 -0.3175,-0.67708 0,-0.19987 -0.13276,-0.27752 -0.29891,-0.17483 -0.18143,0.11213 -0.25075,0.0403 -0.17639,-0.18283 0.18777,-0.5633 0.87218,-0.43649 0.87218,0.16161 0,0.29104 0.0963,0.678 0.21405,0.8599 0.27149,0.41947 0.11966,0.42631 -0.29343,0.0132 z m 43.50707,-0.0779 c 0.0834,-0.21744 0.25007,-0.33456 0.37029,-0.26027 0.12022,0.0743 0.29336,0.0141 0.38477,-0.13381 0.24167,-0.39103 0.66412,-0.32925 0.66412,0.0971 0,0.20131 -0.26789,0.43781 -0.59531,0.52555 -0.88225,0.23644 -0.99076,0.20633 -0.82387,-0.22859 z m -69.69468,-1.25829 c 0.0147,-0.69122 0.1265,-1.25677 0.24843,-1.25677 0.28396,0 0.25439,1.29426 -0.0453,1.98437 -0.16909,0.38932 -0.22276,0.19701 -0.20309,-0.7276 z m 17.67858,0.74032 c -0.17536,-0.2113 -0.27923,-0.58077 -0.23084,-0.82106 0.0588,-0.29175 0.19023,-0.16413 0.39574,0.38416 0.34196,0.91235 0.30686,1.00534 -0.1649,0.4369 z m 26.54779,0.19595 c 0.0887,-0.0887 -0.0762,-0.32746 -0.36628,-0.53067 -0.29011,-0.2032 -0.52748,-0.66036 -0.52748,-1.01591 0,-0.47007 -0.14438,-0.64646 -0.52917,-0.64646 -0.29104,0 -0.52916,-0.10792 -0.52916,-0.23981 0,-0.1319 0.23812,-0.17755 0.52916,-0.10144 0.41975,0.10977 0.52833,0.009 0.52512,-0.48779 -0.003,-0.50136 -0.0552,-0.54707 -0.26053,-0.22929 -0.21919,0.33917 -0.25707,0.32955 -0.26053,-0.0661 -0.002,-0.25466 0.17454,-0.46302 0.39282,-0.46302 0.21828,0 0.39687,0.17859 0.39687,0.39687 0,0.54964 0.88498,0.49781 1.41023,-0.0826 0.23866,-0.2637 0.47917,-0.98186 0.53448,-1.59589 0.0553,-0.61404 0.17431,-1.19018 0.26444,-1.28031 0.0901,-0.0901 -0.0322,-0.30727 -0.27187,-0.48251 -0.60711,-0.44393 -0.25504,-1.1889 0.56186,-1.1889 0.66376,0 1.72053,1.16019 1.37316,1.50756 -0.0925,0.0925 -0.16813,0.0377 -0.16813,-0.12165 0,-0.41382 -0.76316,-1.12133 -1.20952,-1.12133 -0.20789,0 -0.37616,0.20836 -0.37393,0.46302 0.003,0.39639 0.0415,0.40591 0.26459,0.0661 0.2282,-0.34764 0.29148,-0.34874 0.50998,-0.009 0.16028,0.24932 0.14871,0.50939 -0.0324,0.72761 -0.20093,0.24211 -0.19659,0.3396 0.0151,0.3396 0.16333,0 0.29697,0.23812 0.29697,0.52917 0,0.29104 -0.1318,0.52916 -0.29289,0.52916 -0.16109,0 -0.22096,0.18744 -0.13305,0.41654 0.0879,0.22909 -0.0344,0.61073 -0.27171,0.84808 -0.28509,0.2851 -0.32917,0.46568 -0.12988,0.53211 0.16591,0.0553 0.23436,0.20945 0.15211,0.34254 -0.0823,0.13309 -0.0886,0.24198 -0.014,0.24198 0.0745,0 0.34061,-0.44648 0.59131,-0.99218 0.25071,-0.54571 0.4914,-1.03878 0.53487,-1.09572 0.0435,-0.0569 0.61509,0.33574 1.27027,0.87261 1.04745,0.8583 1.32337,0.96094 2.28598,0.85035 1.07461,-0.12345 2.32851,-1.06233 2.69286,-2.01631 0.1039,-0.27203 0.15816,-0.21599 0.17247,0.17814 0.0314,0.86497 -1.13346,2.06885 -2.35637,2.43524 -1.25174,0.37503 -1.90505,0.23177 -3.13022,-0.68643 -0.4825,-0.36161 -0.89922,-0.61568 -0.92604,-0.5646 -0.52515,0.99999 -0.72579,1.15335 -1.53646,1.17438 -1.54177,0.04 -1.81961,0.10085 -1.81961,0.39846 0,0.15914 0.23812,0.35162 0.52916,0.42773 0.29105,0.0761 0.52917,0.24775 0.52917,0.38142 0,0.13367 -0.24832,0.11013 -0.55183,-0.0523 -0.3035,-0.16243 -0.61108,-0.23607 -0.6835,-0.16365 -0.22682,0.22682 0.94752,1.23432 1.43377,1.23006 0.39955,-0.003 0.40862,-0.0425 0.0661,-0.28472 -0.35277,-0.24949 -0.35277,-0.26864 0,-0.17234 0.699,0.19081 0.4384,0.84353 -0.36132,0.905 -0.41701,0.0321 -0.68566,-0.0143 -0.597,-0.10293 z m 22.45572,-0.22678 c -0.43782,-0.47184 -0.41831,-0.55434 0.13229,-0.55945 0.25466,-0.002 0.74697,0.21591 1.09402,0.48507 0.64616,0.50114 0.47456,0.67845 -0.22714,0.2347 -0.21444,-0.13561 -0.45256,-0.14696 -0.52917,-0.0252 -0.0766,0.12174 -0.2881,0.061 -0.47,-0.13509 z m 12.36927,0.0181 c 0,-0.21828 0.11533,-0.39687 0.25628,-0.39687 0.14095,0 0.18775,0.17859 0.10399,0.39687 -0.0838,0.21829 -0.19909,0.39688 -0.25629,0.39688 -0.0572,0 -0.10398,-0.17859 -0.10398,-0.39688 z m -75.59877,-0.92604 c 0,-0.65484 0.0516,-0.92273 0.11467,-0.59531 0.0631,0.32742 0.0631,0.8632 0,1.19063 -0.0631,0.32742 -0.11467,0.0595 -0.11467,-0.59532 z m 17.96138,0.52917 c 0,-0.3638 0.0601,-0.51263 0.13345,-0.33073 0.0734,0.1819 0.0734,0.47956 0,0.66146 -0.0734,0.1819 -0.13345,0.0331 -0.13345,-0.33073 z m -8.56825,-0.069 c -0.27184,-0.66525 0.0588,-2.04763 0.48976,-2.04763 0.25105,0 0.35151,0.3075 0.32416,0.99219 -0.0375,0.93742 -0.0475,0.94837 -0.18201,0.19844 -0.13794,-0.7691 -0.14701,-0.76088 -0.29194,0.26458 -0.10872,0.76928 -0.20158,0.93108 -0.33997,0.59242 z m 39.49114,0.003 c 0.012,-0.4717 0.67238,-1.28153 0.87764,-1.07627 0.0948,0.0948 0.17228,0.0263 0.17228,-0.15201 0,-0.17837 0.11309,-0.25441 0.25131,-0.16898 0.64833,0.40069 1.08692,-1.80816 1.16915,-5.88821 0.0499,-2.47625 0.0133,-2.70255 -0.43682,-2.70255 -0.83271,0 -0.47691,-1.17274 0.38606,-1.27247 1.03685,-0.11983 1.45916,-0.72762 0.76405,-1.09963 -0.30044,-0.16079 -0.54625,-0.51755 -0.54625,-0.79281 0,-0.27525 -0.20836,-0.5549 -0.46302,-0.62145 -0.43394,-0.1134 -0.43342,-0.12293 0.008,-0.1517 0.25924,-0.0169 0.5396,0.14722 0.62304,0.36467 0.0834,0.21744 0.2583,0.32948 0.38857,0.24897 0.13027,-0.0805 0.23686,0.0988 0.23686,0.39839 0,0.29963 0.13197,0.54478 0.29326,0.54478 0.1807,0 0.22955,0.2539 0.12726,0.66146 -0.15435,0.61495 -0.0959,0.66336 0.83121,0.68854 l 0.99723,0.0271 -0.8941,0.21107 c -0.98556,0.23267 -1.34468,0.6311 -1.35081,1.49865 -0.002,0.31529 -0.15288,0.63332 -0.33478,0.70671 -0.26458,0.10677 -0.26458,0.13763 0,0.15434 0.22884,0.0145 0.33073,0.5555 0.33073,1.7563 0,1.08956 -0.0985,1.67455 -0.26459,1.57188 -0.14552,-0.0899 -0.26458,0.0291 -0.26458,0.26459 0,0.25948 0.12192,0.35275 0.30955,0.23679 0.21747,-0.1344 0.24921,-0.0407 0.10673,0.31512 -0.11156,0.27853 -0.2369,0.68502 -0.27855,0.9033 -0.0417,0.21828 -0.20446,0.36853 -0.36179,0.3339 -0.15733,-0.0346 -0.21691,0.11723 -0.13239,0.33748 0.11589,0.302 0.24079,0.32815 0.50805,0.10634 0.19491,-0.16176 0.47866,-0.2173 0.63056,-0.12343 0.18646,0.11524 0.27617,-0.95175 0.27617,-3.28451 0,-3.13563 0.0504,-3.5056 0.54488,-4.00008 l 0.54488,-0.54487 0.5791,0.7362 c 1.11374,1.41589 0.73901,3.26397 -0.66182,3.26397 -0.43454,0 -0.48155,0.0736 -0.23596,0.36956 0.36441,0.43908 1.33677,0.25039 1.8002,-0.34933 0.67605,-0.87488 0.23722,-3.53839 -0.62895,-3.81746 -0.20086,-0.0647 -0.1545,-0.0986 0.10301,-0.0753 0.25751,0.0233 0.70107,0.47583 0.98568,1.00565 0.48369,0.90045 0.4915,1.04693 0.11965,2.24433 -0.44962,1.44781 -1.30917,2.10003 -2.16438,1.64234 -0.64472,-0.34504 -0.78811,-0.18585 -0.57988,0.6438 0.0922,0.36722 0.4076,0.73045 0.70096,0.80716 0.30464,0.0797 0.45568,0.2652 0.3522,0.43264 -0.0996,0.16123 -0.40929,0.22075 -0.68808,0.13227 -0.42428,-0.13466 -0.5069,-0.0286 -0.5069,0.65069 0,0.44637 0.12609,0.81158 0.2802,0.81158 0.15411,0 0.19706,-0.13451 0.0955,-0.29891 -0.11012,-0.17818 -0.043,-0.25165 0.16628,-0.1819 0.19307,0.0644 0.40428,0.27678 0.46937,0.47206 0.0923,0.27691 -0.14199,0.31936 -1.06474,0.19288 -0.84365,-0.11564 -1.34732,-0.0471 -1.75546,0.23873 -0.65205,0.45672 -0.77295,0.96042 -0.17549,0.73116 0.25131,-0.0964 0.39688,0.004 0.39688,0.27288 0,0.50817 -0.34982,0.54168 -1.05532,0.10108 -0.41167,-0.25709 -0.58827,-0.25481 -0.8541,0.011 -0.27043,0.27044 -0.25894,0.38328 0.0596,0.58464 0.31561,0.19953 0.27542,0.25032 -0.20065,0.25356 -0.32743,0.002 -0.59153,-0.14477 -0.5869,-0.32668 z m 5.38484,-8.20208 c -0.0931,-0.61846 -0.26271,-1.22721 -0.37695,-1.35278 -0.40219,-0.44209 -0.76448,0.12327 -0.61912,0.96616 0.22916,1.32883 0.32047,1.5111 0.75701,1.5111 0.33052,0 0.37606,-0.21422 0.23906,-1.12448 z m -30.49798,7.54063 c 0.0191,-0.45373 0.0765,-0.5521 0.15231,-0.26135 0.17344,0.66489 0.60505,0.29614 0.64144,-0.54802 0.0219,-0.50871 0.0671,-0.56986 0.15839,-0.21419 0.13609,0.53052 -0.39572,1.75116 -0.76296,1.75116 -0.12093,0 -0.20606,-0.32742 -0.18918,-0.7276 z m 42.07775,0.47625 c 0.11369,-0.34109 0.47659,-0.40236 0.50932,-0.086 0.0109,0.1055 -0.12303,0.23944 -0.29766,0.29765 -0.17462,0.0582 -0.26987,-0.037 -0.21166,-0.21166 z m -73.572968,-0.43216 c 0.01269,-0.30822 0.07539,-0.37092 0.159853,-0.15985 0.07643,0.191 0.06703,0.4192 -0.02089,0.50712 -0.08792,0.0879 -0.150453,-0.0683 -0.138965,-0.34727 z m 28.574998,0 c 0.0127,-0.30822 0.0754,-0.37092 0.15985,-0.15985 0.0764,0.191 0.067,0.4192 -0.0209,0.50712 -0.0879,0.0879 -0.15045,-0.0683 -0.13896,-0.34727 z m 39.4102,0.0319 c -0.18858,-0.22723 -0.23375,-0.83819 -0.12344,-1.66976 0.19325,-1.45672 -0.38925,-3.14669 -1.08458,-3.14669 -0.43606,0 -0.53098,0.85033 -0.12307,1.10243 0.33389,0.20636 0.34932,2.42995 0.0183,2.63454 -0.13546,0.0837 -0.32466,0.0254 -0.42043,-0.12953 -0.12127,-0.19623 -0.28641,-0.18855 -0.54408,0.0253 -0.69487,0.57669 -1.12428,0.10516 -1.02244,-1.12272 0.0522,-0.62865 0.1564,-1.9169 0.23169,-2.86278 0.19093,-2.39895 -0.24225,-4.07826 -1.33346,-5.16948 -0.54914,-0.54914 -0.7805,-0.95752 -0.60417,-1.0665 0.17938,-0.11086 0.22102,-0.6081 0.11187,-1.33593 -0.10705,-0.71389 -0.072,-1.159344 0.0913,-1.159344 0.42149,0 0.59801,0.470374 0.23191,0.617974 -0.20923,0.0844 -0.169,0.14174 0.1086,0.15489 0.24253,0.0115 0.50102,0.16971 0.57442,0.35162 0.10676,0.26458 0.13763,0.26458 0.15434,0 0.0299,-0.47313 0.55006,-0.41057 0.55006,0.0661 0,0.3468 -0.48771,0.53083 -1.12999,0.42637 -0.20591,-0.0335 -0.0568,1.25316 0.17171,1.48167 0.33688,0.33688 2.34323,0.59092 2.78781,0.35299 0.59718,-0.3196 0.85553,-1.18993 0.4682,-1.57726 -0.1578,-0.15779 -0.20356,-0.28689 -0.10169,-0.28689 0.10186,0 0.39357,0.20654 0.64823,0.45898 0.4408,0.43696 0.43451,0.48953 -0.13119,1.09578 -0.32681,0.35023 -0.90261,0.79679 -1.27954,0.99234 -0.58406,0.30302 -0.74342,0.29748 -1.07834,-0.0374 -0.6074,-0.60739 -0.68014,-0.46649 -0.16502,0.31968 0.25683,0.39197 0.49411,1.07658 0.52731,1.52135 0.1317,1.7648 0.13008,2.97806 -0.005,4.0985 -0.0912,0.75401 -0.0562,1.0376 0.0981,0.79375 0.34969,-0.55261 0.3273,0.16902 -0.0257,0.82862 -0.23731,0.44342 -0.1843,0.51177 0.39688,0.51177 0.55986,0 0.66769,-0.1203 0.65217,-0.7276 -0.0165,-0.64475 -0.0445,-0.66735 -0.24599,-0.19844 -0.16438,0.38253 -0.23254,0.11657 -0.24598,-0.95979 -0.0126,-1.011 0.10724,-1.5934 0.37341,-1.8143 0.3463,-0.2874 0.3463,-0.39061 0,-0.88502 -0.45571,-0.65062 -0.51958,-1.91936 -0.10939,-2.17287 0.15544,-0.0961 0.21941,-0.33941 0.14214,-0.54075 -0.0777,-0.20246 0.10147,-0.49556 0.40085,-0.65578 0.42768,-0.22889 0.6478,-0.19336 1.04848,0.16926 0.92154,0.83398 0.50427,3.55196 -0.5453,3.55196 -0.33512,0 0.0259,1.13715 0.50398,1.5875 0.454,0.42765 1.07765,2.00798 1.07765,2.73076 0,0.24433 0.11906,0.44424 0.26458,0.44424 0.14553,0 0.26459,0.11906 0.26459,0.26458 0,0.38116 -0.72584,0.32642 -0.87703,-0.0661 -0.07,-0.1819 -0.11509,-0.0751 -0.10008,0.23741 0.0227,0.47231 0.12511,0.53094 0.60728,0.34762 0.58285,-0.2216 0.89899,-0.10394 0.89899,0.33458 0,0.12986 -0.10907,0.16869 -0.24238,0.0863 -0.13331,-0.0824 -0.5408,-0.0363 -0.90554,0.10234 -0.48507,0.18442 -0.74304,0.1559 -0.96057,-0.10621 z m -0.26621,-7.17082 c 0.31747,-0.83499 0.31951,-1.19574 0.01,-1.68556 -0.41528,-0.65628 -1.07445,0.16476 -1.07445,1.3383 0,1.21503 0.65389,1.42826 1.06489,0.34726 z m 6.87262,7.32449 c 0,-0.14552 0.11906,-0.33816 0.26458,-0.4281 0.14553,-0.0899 0.26459,-0.0445 0.26459,0.10106 0,0.14552 -0.11906,0.33817 -0.26459,0.4281 -0.14552,0.0899 -0.26458,0.0445 -0.26458,-0.10106 z m -75.362048,-0.84107 c 0.01752,-0.50047 -0.05272,-1.28992 -0.156082,-1.75433 -0.10336,-0.4644 -0.07177,-1.06141 0.07019,-1.32667 0.179802,-0.33597 0.153115,-0.62591 -0.08795,-0.95559 -0.258904,-0.35407 -0.380865,-0.38644 -0.4842,-0.12853 -0.09125,0.22774 -0.145216,0.19182 -0.159015,-0.10582 -0.01149,-0.24781 0.118197,-0.75583 0.288189,-1.12892 0.259276,-0.56905 0.235063,-0.73247 -0.150268,-1.01423 -0.339056,-0.24792 -0.437316,-0.62906 -0.375223,-1.45544 0.09799,-1.30409 0.57218,-1.60685 0.702846,-0.44875 0.04926,0.43656 0.227851,0.96543 0.396875,1.17527 0.237502,0.29484 0.232871,0.3368 -0.02038,0.18469 -0.222342,-0.13354 -0.277227,-0.0653 -0.170713,0.21228 0.08634,0.225 0.276327,0.33534 0.42219,0.24519 0.162659,-0.10053 0.19893,0.0449 0.0938,0.37613 -0.09427,0.29701 -0.07028,0.60252 0.0533,0.6789 0.123585,0.0764 0.21747,0.8504 0.208632,1.72003 -0.01135,1.11624 0.06905,1.51052 0.273426,1.3409 0.159222,-0.13214 0.379157,-0.152 0.488743,-0.0441 0.109586,0.10788 0.167695,0.0175 0.129131,-0.20073 -0.09753,-0.55207 0.303142,-2.94831 0.583509,-3.48967 0.134415,-0.25954 0.131042,-0.50904 -0.008,-0.595 -0.289334,-0.17882 -0.851336,1.31098 -0.600197,1.59105 0.09726,0.10847 0.05173,0.12623 -0.101166,0.0395 -0.1529,-0.0868 -0.307387,-0.65579 -0.343305,-1.26452 -0.03592,-0.60873 -0.249225,-1.2907 -0.474016,-1.51549 -0.270002,-0.27 -0.35688,-0.66786 -0.255992,-1.1723 0.084,-0.41998 0.04899,-0.69948 -0.0778,-0.62113 -0.126785,0.0784 -0.29572,-0.10686 -0.37541,-0.41159 -0.172464,-0.65951 -0.802126,-0.53485 -0.934772,0.18506 -0.0514,0.27899 -0.271426,0.7081 -0.48894,0.95359 -0.217513,0.24549 -0.317386,0.57271 -0.22194,0.72714 0.09545,0.15444 -0.003,0.5328 -0.218705,0.8408 -0.215733,0.308 -0.334114,0.7547 -0.263069,0.99265 0.07104,0.23796 -0.04321,0.13499 -0.253889,-0.22881 -0.210685,-0.3638 -0.650189,-1.82461 -0.976676,-3.24624 -0.626192,-2.72664 -0.588341,-4.256231 0.118423,-4.785561 0.222199,-0.166416 0.447733,-0.600231 0.501185,-0.964033 0.05756,-0.391779 0.30229,-0.700905 0.600255,-0.758212 0.276687,-0.05321 0.590541,-0.231808 0.697453,-0.396875 0.255552,-0.394558 0.213893,0.5579 -0.06209,1.41967 l -0.211836,0.661459 -0.04786,-0.661459 -0.04786,-0.661458 -0.321494,0.725176 c -0.176822,0.398846 -0.531562,0.878779 -0.78831,1.066518 -0.692774,0.506569 -0.583368,3.117885 0.209649,5.003915 0.318376,0.75719 0.320419,0.75776 0.804459,0.2229 0.416192,-0.45988 0.425825,-0.53622 0.06767,-0.53622 -0.375259,0 -0.37271,-0.0872 0.02514,-0.85989 0.266545,-0.51769 0.443246,-1.48307 0.44401,-2.42577 0.0013,-1.591981 0.489854,-2.398831 0.573833,-0.94767 0.101956,1.76179 0.161109,2.11667 0.352823,2.11667 0.110177,0 0.206893,-0.47625 0.214927,-1.05834 0.008,-0.58208 -0.09326,-1.05833 -0.22509,-1.05833 -0.131832,0 -0.171162,-0.178594 -0.0874,-0.396875 0.21282,-0.5546 1.165962,-0.479469 1.923973,0.151656 0.483773,0.402792 0.563591,0.605002 0.330729,0.837864 -0.168816,0.168816 -0.326345,0.729605 -0.350064,1.246205 -0.03146,0.68509 -0.08516,0.54546 -0.198438,-0.51593 -0.143593,-1.345415 -0.180878,-1.410461 -0.494169,-0.862105 -0.268947,0.470745 -0.275302,0.958065 -0.0308,2.362085 0.286583,1.64568 0.335735,1.73343 0.705182,1.25898 0.362604,-0.46567 0.382533,-0.46787 0.229242,-0.0254 -0.09234,0.26657 -0.167886,0.59025 -0.167886,0.71931 0,0.12905 -0.19067,0.16147 -0.42371,0.072 -0.307591,-0.11803 -0.398229,-0.0311 -0.33073,0.31711 0.124775,0.64373 0.647897,0.78595 0.859794,0.23376 0.0938,-0.24445 0.406129,-1.52383 0.694057,-2.84307 0.578498,-2.65058 0.663918,-4.533174 0.254537,-5.609922 -0.223136,-0.586892 -0.335849,-0.651935 -0.661458,-0.381703 -0.318895,0.264659 -0.39249,0.246991 -0.39249,-0.09423 0,-0.230979 0.225954,-0.54089 0.502121,-0.68869 0.405888,-0.217224 0.582795,-0.145603 0.923058,0.373703 0.23152,0.353337 0.36012,0.800913 0.28579,0.994614 -0.0743,0.193702 0.0423,0.586893 0.25915,0.873759 0.35414,0.468448 0.39516,0.474412 0.40272,0.05855 0.005,-0.254661 -0.11065,-0.463021 -0.25617,-0.463021 -0.14552,0 -0.26459,-0.107915 -0.26459,-0.239813 0,-0.131897 0.21668,-0.18315 0.48151,-0.113897 0.26483,0.06925 0.63659,-0.06096 0.82614,-0.289353 0.49977,-0.602181 1.06923,-0.509088 1.10135,0.180043 0.0192,0.41117 0.12859,0.268871 0.35377,-0.460041 0.20939,-0.677811 0.3813,-0.914442 0.48053,-0.661459 0.12869,0.328061 0.158,0.321922 0.1754,-0.03673 0.0115,-0.236844 0.19948,-0.578844 0.41776,-0.760002 0.51977,-0.43137 0.50776,-1.223753 -0.0216,-1.4269 -0.65545,-0.251523 -0.70983,-0.204161 -0.57506,0.500859 0.0761,0.398216 0.004,0.661458 -0.18061,0.661458 -0.19512,0 -0.26765,-0.33757 -0.19895,-0.926042 0.12419,-1.063717 0.83747,-1.270226 1.43598,-0.41574 0.29323,0.418643 0.72464,0.521023 2.40188,0.569996 1.77709,0.05189 2.1238,-0.01485 2.65119,-0.510301 0.71349,-0.670287 1.4947,-0.722459 2.56103,-0.171035 0.49992,0.258519 0.71839,0.5374 0.6206,0.79223 -0.083,0.216298 -0.27773,0.31489 -0.43273,0.219094 -0.17938,-0.110863 -0.21739,-0.0063 -0.10457,0.287743 0.0975,0.254054 0.18562,0.720071 0.19585,1.03559 0.0181,0.557629 0.0254,0.558874 0.26391,0.04451 0.1712,-0.369295 0.18658,-0.249391 0.0509,0.396875 -0.10693,0.509323 -0.17066,1.447402 -0.14162,2.08462 0.10153,2.227752 -0.31844,0.764905 -0.58467,-2.036527 -0.24648,-2.593682 -0.3155,-2.832905 -0.83888,-2.90749 -0.70334,-0.100228 -1.84983,1.306372 -2.00715,2.462522 l -0.10801,0.79375 -0.33226,-0.846885 c -0.28481,-0.725951 -0.50038,-0.872096 -1.50955,-1.023432 -1.00791,-0.151145 -1.24939,-0.09342 -1.6784,0.401244 -0.27562,0.317784 -0.57264,0.561039 -0.66006,0.540567 -0.30244,-0.07083 -0.54512,0.138359 -1.13168,0.97551 -1.56658,2.23588 -2.8007,5.187636 -2.79776,6.691676 0.001,0.51383 -0.0476,0.67293 -0.10809,0.35355 -0.0709,-0.37435 -0.24507,-0.52882 -0.4903,-0.43471 -0.45388,0.17417 -0.50551,0.7973 -0.0779,0.93985 0.21657,0.0722 0.22422,0.2476 0.0269,0.61736 -0.15157,0.28408 -0.31297,0.87371 -0.35867,1.31027 -0.0457,0.43656 -0.17913,0.92772 -0.29652,1.09146 -0.117385,0.16375 -0.252444,1.52688 -0.300127,3.02918 -0.08133,2.56248 -0.211515,2.98801 -0.888881,2.90554 -0.112779,-0.0137 -0.205052,-0.25848 -0.205052,-0.54389 0,-0.28541 -0.119063,-0.49146 -0.264583,-0.4579 -0.145521,0.0336 -0.229901,0.33153 -0.187511,0.66216 0.04239,0.33062 -0.10366,0.85916 -0.324554,1.17453 -0.391383,0.55878 -0.400815,0.5502 -0.369779,-0.33655 z m -2.028573,-7.65682 c 0.08994,-0.14552 0.03743,-0.26459 -0.116677,-0.26459 -0.154109,0 -0.280198,0.11907 -0.280198,0.26459 0,0.14552 0.0525,0.26458 0.116677,0.26458 0.06417,0 0.190261,-0.11906 0.280198,-0.26458 z m 4.607561,-1.19063 c 0.008,-0.14552 -0.100872,-0.086 -0.241936,0.13229 -0.141064,0.21828 -0.249935,0.57547 -0.241936,0.79375 0.01536,0.41906 0.456322,-0.42486 0.483872,-0.92604 z m 0.65913,-2.759 c -0.22709,-0.22709 -0.58324,0.39139 -0.75077,1.30379 l -0.170029,0.92604 0.518469,-1.05684 c 0.28516,-0.58127 0.46621,-1.10911 0.40233,-1.17299 z m -4.409569,1.12257 c 0.464934,-1.00126 0.19458,-1.09383 -0.315241,-0.10795 -0.232748,0.45009 -0.330824,0.81741 -0.217946,0.81628 0.112877,-10e-4 0.352811,-0.31989 0.533187,-0.70833 z m 4.944079,-2.376562 c 0.0931,-0.242615 0.0463,-0.564083 -0.10398,-0.714375 -0.18796,-0.187954 -0.27326,-0.180897 -0.27326,0.0226 0,0.162723 -0.0723,0.484191 -0.1606,0.714377 -0.0883,0.23018 -0.0415,0.41852 0.10398,0.41852 0.14552,0 0.34076,-0.19851 0.43386,-0.441126 z m 0.68109,-1.940132 c 0,-0.145521 -0.11906,-0.264583 -0.26458,-0.264583 -0.14552,0 -0.26459,0.119062 -0.26459,0.264583 0,0.145521 0.11907,0.264584 0.26459,0.264584 0.14552,0 0.26458,-0.119063 0.26458,-0.264584 z m 0.43349,-0.661458 c -0.0838,-0.218281 -0.037,-0.396875 0.10398,-0.396875 0.14096,0 0.25628,-0.178594 0.25628,-0.396875 0,-0.503862 -0.37069,-0.509753 -0.78342,-0.01245 -0.25048,0.301812 -0.24322,0.470223 0.0337,0.783686 0.45349,0.513222 0.58053,0.520567 0.38941,0.02252 z m 11.09523,15.830012 c -0.0933,-0.24303 -0.0337,-0.5258 0.13223,-0.62839 0.21893,-0.13531 0.2214,-0.23621 0.009,-0.3675 -0.36504,-0.2256 -0.38544,-1.38421 -0.0283,-1.60496 0.36117,-0.22321 0.35315,-6.48229 -0.008,-6.48229 -0.15009,0 -0.33802,0.20836 -0.41763,0.46302 -0.0796,0.25467 -0.314,0.77905 -0.52087,1.16531 -0.20686,0.38625 -0.38831,0.98156 -0.4032,1.32291 -0.0213,0.48696 -0.0708,0.4366 -0.23005,-0.23381 -0.2756,-1.16019 0.096,-3.0036 0.69362,-3.44057 0.26899,-0.19669 0.78684,-0.32281 1.15077,-0.28026 0.57478,0.0672 0.66689,0.21639 0.70119,1.13569 0.0217,0.58209 0.10902,2.2134 0.19401,3.62514 0.0945,1.57038 0.0535,2.62923 -0.10563,2.7276 -0.44936,0.27772 -0.28432,0.52643 0.34931,0.52643 0.57511,0 0.59838,-0.0671 0.41265,-1.19062 -0.24769,-1.49827 -0.28199,-4.95744 -0.0602,-6.06658 0.13228,-0.66141 0.28769,-0.82562 0.7276,-0.76884 0.57723,0.0745 1.22073,-0.20079 1.22102,-0.52239 9e-5,-0.10055 -0.56546,-0.17062 -1.25677,-0.15571 -1.00162,0.0216 -1.05284,0.005 -0.25218,-0.082 0.75517,-0.082 1.0633,-0.26307 1.24045,-0.72901 0.40976,-1.07775 0.72527,-0.96619 0.8688,0.30719 0.13711,1.21644 -0.19593,2.46106 -0.65855,2.46106 -0.13075,0 -0.16294,0.121 -0.0715,0.2689 0.0914,0.14789 0.28978,0.19251 0.44084,0.0991 0.17774,-0.10985 0.20797,0.0403 0.0857,0.42559 -0.10864,0.34231 -0.0693,0.66928 0.0926,0.76932 0.19584,0.12103 0.17912,0.47182 -0.0549,1.15265 -0.47775,1.38969 -0.66889,1.46703 -0.65229,0.26394 0.0139,-1.00761 -0.88319,-3.50872 -1.25851,-3.50872 -0.10072,0 -0.12584,1.7844 -0.0558,3.96533 l 0.12728,3.96532 -0.98393,-0.15733 -0.98394,-0.15734 0.0613,1.0868 c 0.0625,1.10782 -0.19975,1.44227 -0.50572,0.64494 z m -0.70345,-9.08314 c -0.0133,-0.60578 -0.0337,-0.61692 -0.24194,-0.13229 -0.12506,0.29104 -0.23393,0.76729 -0.24193,1.05833 -0.012,0.43676 0.0302,0.45986 0.24193,0.1323 0.14107,-0.21828 0.24994,-0.69453 0.24194,-1.05834 z m 4.7013,-0.84336 c -0.0845,-0.21106 -0.14716,-0.14837 -0.15985,0.15986 -0.0115,0.27891 0.051,0.43518 0.13896,0.34726 0.0879,-0.0879 0.0973,-0.31612 0.0209,-0.50712 z m 3.04049,9.37618 c -0.0432,-1.05016 -0.0963,-1.12448 -0.80329,-1.12448 -0.62624,0 -0.74683,0.10286 -0.69788,0.59531 0.0325,0.32742 0.008,0.38695 -0.0551,0.13229 -0.0628,-0.25466 -0.22924,-0.46302 -0.36976,-0.46302 -0.15553,0 -0.14533,-0.20585 0.0261,-0.5261 0.33838,-0.63227 0.42621,-5.46765 0.14783,-8.139 -0.18783,-1.80241 -0.16828,-1.91823 0.32373,-1.91823 0.28799,0 0.67184,0.17859 0.853,0.39687 0.26554,0.31996 0.259,0.39766 -0.0338,0.40093 -0.26193,0.003 -0.27636,0.0592 -0.0518,0.20206 0.17123,0.10891 1.04376,0.19468 1.93896,0.1906 1.22476,-0.006 1.68744,-0.11428 1.86928,-0.4392 0.31122,-0.55614 2.18428,-1.67647 2.03862,-1.21937 -0.0589,0.1847 -0.36971,0.45443 -0.69079,0.5994 -0.32109,0.14497 -0.56756,0.44263 -0.54773,0.66146 0.0824,0.909 -0.0414,1.5885 -0.28945,1.5885 -0.14552,0 -0.26459,-0.15938 -0.26459,-0.35418 0,-0.26869 -0.46213,-0.33983 -1.91474,-0.29474 -1.91382,0.0594 -1.91482,0.0598 -2.08325,0.88334 -0.0927,0.45315 -0.081,0.82391 0.026,0.82391 0.24751,0 0.0103,1.35604 -0.30786,1.76021 -0.15195,0.19301 -0.11463,0.36302 0.10165,0.46302 0.27004,0.12485 0.27236,0.19041 0.011,0.31236 -0.1819,0.0849 -0.32891,0.35278 -0.32668,0.59531 0.003,0.34856 0.0517,0.36569 0.23166,0.0817 0.13977,-0.22059 0.21479,0.26448 0.19439,1.25694 -0.0183,0.88889 0.0263,1.6252 0.0991,1.63624 0.0728,0.011 0.34027,0.0599 0.59445,0.10858 0.37638,0.0721 0.43193,-0.0422 0.29931,-0.61555 -0.15617,-0.67524 -0.14635,-0.68265 0.23972,-0.18092 0.59151,0.76869 1.73467,0.28443 2.49416,-1.05656 l 0.597,-1.05409 -0.0263,2.11667 c -0.0145,1.16416 -0.0811,1.90685 -0.14797,1.6504 -0.0669,-0.25644 -0.22344,-0.40332 -0.3479,-0.32641 -0.12445,0.0769 -0.31243,4.5e-4 -0.41773,-0.16993 -0.11957,-0.19347 -0.0768,-0.2389 0.11401,-0.12099 0.20375,0.12592 0.30278,-0.0587 0.29742,-0.55444 -0.007,-0.63835 -0.0465,-0.6771 -0.28085,-0.27463 -0.15004,0.25772 -0.36498,0.41162 -0.47764,0.34198 -0.11267,-0.0696 -0.55183,-0.0228 -0.97593,0.10399 -0.74169,0.2218 -0.74587,0.23175 -0.10962,0.26108 0.62909,0.029 2.38125,1.35837 2.38125,1.80665 0,0.11639 -0.23812,0.21161 -0.52917,0.21161 -0.29104,0 -0.52916,-0.13462 -0.52916,-0.29917 -2e-5,-0.51255 -0.93544,-1.17493 -1.65928,-1.17493 -0.62132,0 -0.70185,0.1142 -0.79284,1.12448 l -0.10128,1.12447 z m -0.5754,-9.85573 c 0,-0.14552 -0.18562,-0.26459 -0.41249,-0.26459 -0.22687,0 -0.3389,0.11907 -0.24896,0.26459 0.0899,0.14552 0.27555,0.26458 0.41249,0.26458 0.13693,0 0.24896,-0.11906 0.24896,-0.26458 z m 6.23583,9.85573 c 0.07,-0.74377 -0.001,-0.8599 -0.52607,-0.8599 -0.60681,0 -0.60694,-9e-4 -0.47965,-3.24115 0.0706,-1.79731 0.26001,-3.4111 0.42517,-3.62266 0.22799,-0.29203 0.22027,-0.33491 -0.0329,-0.18282 -0.40774,0.24496 -0.42009,0.0351 -0.0398,-0.67561 0.21159,-0.39535 0.21159,-0.49463 0,-0.36387 -0.42733,0.26411 -0.36932,-1.30908 0.0615,-1.66659 0.26148,-0.21702 0.48339,-0.19341 0.85989,0.0915 0.28365,0.21462 1.09828,0.38768 1.84702,0.39239 1.10995,0.007 1.45909,0.13317 2.03685,0.73623 0.40056,0.41808 0.7697,1.18061 0.86744,1.79182 0.14639,0.91553 0.0748,1.15933 -0.51291,1.74706 l -0.68306,0.68305 0.54712,0.49513 c 0.5889,0.53296 1.56438,2.47889 1.56438,3.12073 0,0.2159 0.41826,0.83604 0.92948,1.37809 0.51121,0.54204 0.89063,1.02439 0.84315,1.07187 -0.0475,0.0475 -0.77898,-0.34692 -1.62555,-0.87644 -1.24696,-0.77998 -1.6283,-0.90714 -2.00848,-0.66971 -0.39661,0.24768 -0.4998,0.18248 -0.66631,-0.42098 -0.10836,-0.39274 -0.17635,-1.01172 -0.15109,-1.37552 0.0632,-0.91055 -0.91827,-2.44032 -1.49547,-2.33086 -0.61632,0.11688 -0.772,2.14328 -0.2284,2.97292 0.35584,0.54308 0.34476,0.6396 -0.11905,1.03672 -0.28128,0.24084 -0.68074,0.43789 -0.88769,0.43789 -0.20695,0 -0.42808,0.26789 -0.49139,0.59531 -0.0633,0.32742 -0.0787,0.20836 -0.0342,-0.26458 z m 5.54815,-1.62525 c -0.41248,-1.16908 -1.93416,-3.46798 -2.29552,-3.46798 -0.26224,0 0.0388,0.86468 0.38105,1.09438 0.13794,0.0926 0.25081,0.47955 0.25081,0.8599 0,0.38035 0.10418,0.69155 0.23151,0.69155 0.12733,0 0.23333,0.26789 0.23556,0.59531 0.003,0.4814 0.0531,0.51937 0.26053,0.19844 0.16784,-0.25972 0.25788,-0.28362 0.26053,-0.0692 0.004,0.34147 0.8397,1.43839 0.98494,1.29315 0.0457,-0.0457 -0.0935,-0.58372 -0.30941,-1.19558 z m -5.43398,-0.0377 c 0,-0.18237 0.18352,-0.17568 0.5492,0.02 0.49676,0.26585 0.52246,0.24396 0.26918,-0.2293 -0.32668,-0.6104 -0.3026,-2.94787 0.035,-3.39644 0.12738,-0.16926 0.81493,-0.38797 1.52789,-0.48602 1.41274,-0.1943 1.68752,-0.41086 1.9585,-1.54353 0.12629,-0.52788 0.0904,-0.69479 -0.12124,-0.56397 -0.19284,0.11917 -0.26593,0.009 -0.20387,-0.30856 0.0552,-0.28198 -0.18964,-0.76119 -0.56988,-1.11547 -0.53823,-0.50148 -0.8647,-0.59458 -1.69496,-0.48335 -0.56558,0.0758 -1.24478,0.003 -1.50932,-0.16262 -0.26455,-0.16522 -0.57226,-0.20912 -0.6838,-0.0976 -0.11155,0.11154 -0.0277,0.31105 0.1864,0.44335 0.21407,0.1323 0.4041,0.36396 0.42229,0.51478 0.067,0.55578 0.10744,0.5684 0.51499,0.16085 0.23237,-0.23237 0.86013,-0.41578 1.42311,-0.41578 0.86249,0 1.05311,0.11052 1.32571,0.76863 0.43719,1.05546 0.26502,1.98502 -0.38647,2.08658 -0.29104,0.0454 -0.793,0.21336 -1.11546,0.37331 -0.77465,0.38427 -1.39808,-0.11901 -1.39808,-1.12863 0,-1.16284 -0.52447,-1.22364 -0.5605,-0.065 -0.0172,0.55429 -0.007,1.12686 0.0238,1.27238 0.22182,1.06516 0.0967,3.65273 -0.18812,3.88908 -0.39936,0.33145 -0.43745,0.74113 -0.0689,0.74113 0.14552,0 0.26458,-0.12325 0.26458,-0.27389 z m -0.61039,-4.68201 c -0.0671,-0.25743 -0.12638,-0.11087 -0.13178,0.32569 -0.005,0.43657 0.0495,0.64719 0.12198,0.46806 0.0725,-0.17913 0.0769,-0.53632 0.01,-0.79375 z m 2.83104,-0.48969 c 0.27664,-0.72091 0.17601,-1.62058 -0.21782,-1.94743 -0.30219,-0.2508 -0.43544,-0.20753 -0.66146,0.2148 -0.31652,0.59143 -0.37665,1.70475 -0.10664,1.97475 0.31275,0.31276 0.82088,0.18797 0.98592,-0.24212 z m -35.771406,7.03309 c -0.01538,-0.3638 0.119686,-1.22094 0.30015,-1.90476 0.27175,-1.02971 0.249775,-1.96147 -0.127921,-5.42395 -0.498994,-4.57446 -0.846119,-6.115957 -1.427466,-6.339041 -0.209299,-0.08031 -0.309653,-0.260732 -0.223009,-0.400925 0.08664,-0.140193 0.330269,-0.188612 0.541389,-0.107598 0.214356,0.08226 0.312475,0.03181 0.222206,-0.114254 -0.248454,-0.402005 -0.848829,-0.31035 -1.028153,0.156962 -0.08833,0.230183 -0.160599,1.386786 -0.160599,2.570236 0,1.97108 -0.03549,2.11624 -0.422704,1.72902 -0.325266,-0.32526 -0.357907,-0.54378 -0.141601,-0.94795 0.154607,-0.28888 0.20591,-0.60044 0.114008,-0.69234 -0.190699,-0.1907 -0.124854,-3.50171 0.08356,-4.20196 0.185678,-0.62385 0.967933,-0.585162 1.567663,0.07753 0.477087,0.527175 0.476465,0.535949 -0.02514,0.354508 -0.447722,-0.161951 -0.432205,-0.0959 0.119814,0.510024 0.466515,0.512069 0.560053,0.785545 0.353852,1.034555 -0.20229,0.244287 -0.140716,0.625181 0.221253,1.368673 0.286964,0.58943 0.436564,1.2891 0.34966,1.63536 -0.08354,0.33284 0.06264,1.298 0.324851,2.14481 0.262205,0.8468 0.444282,1.82573 0.404615,2.17538 -0.03967,0.34966 0.06067,0.71781 0.222963,0.81811 0.405549,0.25065 0.635501,2.55161 0.277135,2.77309 -0.155961,0.0964 -0.215065,0.28609 -0.131343,0.42156 0.242494,0.39236 0.600905,0.2863 0.732359,-0.21672 0.07444,-0.28487 0.132809,-0.18307 0.151692,0.26458 0.02695,0.63888 -0.0661,0.7276 -0.763059,0.7276 -0.736145,0 -0.795664,0.072 -0.820124,0.99219 -0.02314,0.87061 -0.05082,0.91113 -0.225836,0.33073 l -0.199463,-0.66146 -0.131395,0.79375 c -0.113243,0.68409 -0.13526,0.70237 -0.159362,0.13229 z m 1.219759,-4.49479 c -0.03507,-0.46029 -0.158358,-0.69251 -0.295069,-0.5558 -0.129154,0.12915 -0.155444,0.48494 -0.05842,0.79063 0.253228,0.79784 0.423556,0.68469 0.353491,-0.23483 z m 12.548637,4.23021 c 0,-0.50932 0.0545,-0.71768 0.121,-0.46302 0.0665,0.25466 0.0665,0.67138 0,0.92604 -0.0666,0.25466 -0.121,0.0463 -0.121,-0.46302 z m 35.22723,0.4056 c -0.0819,-0.21348 -0.0979,-0.5409 -0.0355,-0.7276 0.0624,-0.1867 0.17619,-0.012 0.25285,0.38815 0.14969,0.78137 0.0262,0.9742 -0.21737,0.33945 z m 33.94035,-0.86862 c -0.0737,-0.40018 -0.13018,-0.9062 -0.1256,-1.12448 0.005,-0.21828 -0.30633,-1.11125 -0.6909,-1.98438 l -0.69921,-1.5875 0.10546,2.57969 0.10546,2.57969 h -1.03134 -1.03134 l 0.20831,-2.57969 c 0.26686,-3.3046 0.18989,-5.82785 -0.19178,-6.28774 -0.24158,-0.29109 -0.11597,-0.39628 0.64327,-0.53872 1.35567,-0.25432 1.74821,-0.0242 1.70156,0.99732 -0.0382,0.83704 -0.0437,0.84116 -0.15234,0.11498 -0.0872,-0.58285 -0.22498,-0.72385 -0.60913,-0.6234 -0.27304,0.0714 -0.5421,-0.006 -0.59792,-0.17282 -0.0558,-0.16645 -0.093,0.32244 -0.0825,1.08642 0.0187,1.36976 0.26942,1.82913 0.50542,0.92605 0.0827,-0.31643 0.132,-0.25361 0.15574,0.19843 0.0278,0.52844 0.0863,0.58165 0.29123,0.26459 0.22798,-0.35278 0.26032,-0.35278 0.29105,0 0.0901,1.03442 0.44084,2.09368 0.86581,2.61483 0.16409,0.20123 0.41741,1.09419 0.56293,1.98437 0.22401,1.3703 0.35427,1.63126 0.84945,1.70168 0.55237,0.0786 0.57842,0.005 0.46894,-1.32291 l -0.11593,-1.4061 0.28376,1.19063 c 0.15606,0.65484 0.46951,1.39898 0.69654,1.65364 0.38726,0.43438 0.32971,0.46302 -0.93011,0.46302 -1.25612,0 -1.35155,-0.047 -1.47681,-0.7276 z m -1.81876,-2.36696 c 0.04,-2.43906 -0.0956,-3.35492 -0.46326,-3.12769 -0.12052,0.0745 -0.19756,1.01962 -0.1712,2.1003 0.0264,1.08068 -0.0381,1.91172 -0.14319,1.84676 -0.2877,-0.17781 -0.1289,1.3211 0.1621,1.53013 0.47936,0.34433 0.57747,-0.0301 0.61555,-2.3495 z m -5.64088,2.54779 c -0.0959,-0.1552 -0.11765,-0.33893 -0.0483,-0.40828 0.0694,-0.0694 0.1966,0.0576 0.28278,0.28218 0.1789,0.46623 0.0264,0.54824 -0.23448,0.1261 z m 0.84372,0.10079 c -0.27679,-0.27678 -0.1963,-1.4061 0.10021,-1.4061 0.17681,0 0.24443,-1.33722 0.19378,-3.83175 -0.0815,-4.01511 -0.0255,-4.21795 1.08455,-3.92766 0.40402,0.10566 0.58706,0.43813 0.71654,1.30157 0.0956,0.63782 0.0767,1.3695 -0.042,1.62594 -0.15656,0.33812 -0.25558,0.10268 -0.36028,-0.85664 -0.10746,-0.98464 -0.26278,-1.3428 -0.6074,-1.40066 -0.25466,-0.0428 -0.46302,0.0465 -0.46302,0.19843 0,0.1519 0.1318,0.27619 0.29289,0.27619 0.1649,0 0.2188,0.19309 0.12333,0.44186 -0.0936,0.24401 -0.0175,0.53659 0.17013,0.65339 0.27395,0.17058 0.27525,0.31549 0.007,0.74876 -0.19674,0.31744 -0.22381,0.53724 -0.0661,0.53724 0.38439,0 0.32936,0.98885 -0.0639,1.14843 -0.21426,0.0869 -0.23755,0.21117 -0.0661,0.35278 0.14552,0.12022 0.2877,0.69109 0.31595,1.26862 0.0386,0.78978 -0.0167,0.95372 -0.2234,0.66145 -0.21415,-0.30285 -0.23345,-0.27184 -0.0875,0.14059 0.103,0.29104 0.24718,0.73753 0.3204,0.99219 0.12406,0.43146 0.41894,0.58137 0.95612,0.48608 0.12278,-0.0218 0.17256,0.11295 0.11061,0.2994 -0.11689,0.3518 -2.10992,0.5914 -2.41143,0.28989 z m 1.01925,-0.87693 c 0.0899,-0.14552 0.0374,-0.26459 -0.11668,-0.26459 -0.15411,0 -0.2802,0.11907 -0.2802,0.26459 0,0.14552 0.0525,0.26458 0.11668,0.26458 0.0642,0 0.19026,-0.11906 0.2802,-0.26458 z m -67.8384,0.23687 c -0.55306,-0.45084 -0.59544,-0.60218 -0.33113,-1.18228 0.16671,-0.36589 0.37014,-2.25184 0.45206,-4.19101 0.13254,-3.13751 0.10017,-3.54446 -0.29399,-3.69571 -0.34405,-0.13203 -0.37504,-0.25177 -0.13882,-0.5364 0.31258,-0.37664 1.34299,-0.27437 1.34299,0.1333 0,0.12542 0.29816,0.0922 0.66257,-0.0738 0.87586,-0.39907 1.07021,-0.14711 0.65667,0.85127 -0.23038,0.55619 -0.33164,2.12995 -0.31508,4.89686 0.0138,2.29955 -0.0845,4.14456 -0.2253,4.2316 -0.13733,0.0849 -0.2497,-0.15037 -0.2497,-0.52276 0,-0.87454 -0.72881,-0.90529 -0.84232,-0.0355 l -0.0837,0.64154 z m 1.54917,-4.04228 c -0.0569,-2.74224 0.0668,-4.27599 0.36932,-4.5785 0.41426,-0.41426 0.11779,-0.64117 -0.39385,-0.30145 -0.5237,0.34772 -0.56521,0.6052 -0.57032,3.538 -0.004,2.22395 -0.11329,3.32924 -0.36854,3.723 -0.34127,0.52644 -0.3216,0.5521 0.32796,0.42793 l 0.69099,-0.13209 z m 47.99159,3.24534 c -1.00227,-0.4864 -1.99462,-1.85774 -1.61734,-2.23503 0.0728,-0.0728 0.28631,0.23956 0.47456,0.69404 0.38094,0.91964 1.21627,1.36649 1.8926,1.01241 0.24412,-0.12781 0.60987,-0.16867 0.81277,-0.0908 0.43288,0.16612 0.99234,-0.90283 0.99234,-1.89605 0,-0.38705 -0.3262,-0.99556 -0.7734,-1.44276 -0.76035,-0.76035 -1.60785,-1.02855 -1.60785,-0.50882 0,0.14552 0.16401,0.26459 0.36448,0.26459 0.44724,0 1.09909,0.74129 0.86111,0.97926 -0.095,0.095 -0.3463,-0.0567 -0.55845,-0.33712 -0.2646,-0.34975 -0.38837,-0.39438 -0.39415,-0.14215 -0.0142,0.61943 -1.33133,1.43359 -1.33133,0.82292 0,-0.14552 0.19348,-0.26458 0.42995,-0.26458 0.75118,0 0.20716,-1.52528 -0.93565,-2.62329 -0.57253,-0.55009 -1.22651,-1.44423 -1.45328,-1.98697 -0.36241,-0.86736 -0.36643,-1.09662 -0.0332,-1.89412 0.38326,-0.91726 1.07882,-1.338467 2.65365,-1.60694 0.54224,-0.09244 0.68192,-0.05609 0.44084,0.114723 -0.28673,0.203147 -0.27433,0.280197 0.0661,0.410847 0.23049,0.0884 0.41906,0.0375 0.41906,-0.1133 0,-0.153704 0.23245,-0.200336 0.52917,-0.10616 0.78806,0.25012 0.6424,-0.318547 -0.19844,-0.774705 -0.40018,-0.217103 -0.55838,-0.399499 -0.35156,-0.405325 0.20682,-0.0058 0.60075,0.19276 0.87539,0.441304 0.81186,0.734726 1.37897,0.155945 1.47558,-1.505944 0.11198,-1.926547 -0.0663,-2.336169 -0.74815,-1.719087 -0.28801,0.260644 -0.52365,0.766008 -0.52365,1.123032 0,0.575707 -0.0821,0.628519 -0.72613,0.466888 -0.84628,-0.212403 -1.43673,-0.64466 -1.26349,-0.924973 0.0667,-0.107879 -0.17276,-0.472331 -0.53208,-0.809891 -0.35932,-0.337561 -0.6533,-0.780317 -0.6533,-0.983902 0,-0.749635 -0.92498,-0.204315 -1.01255,0.59695 -0.0476,0.435318 -0.18974,0.897935 -0.31593,1.028038 -0.13053,0.134591 -0.17031,-0.03647 -0.0923,-0.396875 0.13291,-0.613937 0.12431,-0.617624 -0.27939,-0.119835 -0.22908,0.282475 -0.41651,0.410912 -0.41651,0.285417 0,-0.125496 0.19705,-0.445908 0.43788,-0.712028 0.45383,-0.501477 0.14242,-0.69374 -0.34086,-0.210452 -0.18815,0.188148 -0.27341,0.146896 -0.27341,-0.132292 0,-0.223131 0.19447,-0.405694 0.43216,-0.405694 0.85199,0 1.08163,-0.559588 0.52172,-1.271384 -0.28617,-0.363816 -0.45019,-0.731612 -0.36447,-0.817325 0.0857,-0.08571 0.27188,0.05153 0.41372,0.304976 0.14184,0.253449 0.38561,0.460816 0.54172,0.460816 0.17185,0 0.14057,-0.182682 -0.0793,-0.46302 -0.33113,-0.42222 -0.32126,-0.430142 0.11193,-0.0899 0.26129,0.205215 0.42207,0.51123 0.35729,0.680031 -0.0648,0.168802 0.34175,0.804571 0.90339,1.412819 0.80665,0.873605 1.20679,1.105906 1.90489,1.105906 0.83647,0 1.51875,-0.380356 1.51875,-0.846667 0,-0.116417 -0.20836,-0.21349 -0.46302,-0.215718 -0.34055,-0.003 -0.37317,-0.06106 -0.12333,-0.219591 0.20923,-0.132765 0.26573,-0.410632 0.14709,-0.723553 -0.18044,-0.475958 -0.16431,-0.479989 0.25562,-0.06389 0.24652,0.244267 0.44822,0.616642 0.44822,0.827499 0,0.210858 0.17859,0.531597 0.39688,0.712754 0.24217,0.200988 0.39687,0.780848 0.39687,1.487605 0,1.191341 0.11722,1.327017 0.78279,0.906019 0.24123,-0.152586 0.36262,-0.589989 0.32378,-1.166665 -0.0342,-0.507407 0.063,-0.999898 0.21596,-1.094425 0.15294,-0.09453 0.26103,-0.07372 0.2402,0.04624 -0.0208,0.119957 -0.022,0.396698 -0.002,0.614979 0.0285,0.319147 0.0791,0.32788 0.25871,0.04459 0.12283,-0.193755 0.58757,-0.372348 1.03277,-0.396875 0.96772,-0.05331 2.99752,-1.647134 2.78917,-2.190087 -0.077,-0.200754 -0.26688,-0.286628 -0.42188,-0.190832 -0.17939,0.110863 -0.2174,0.0063 -0.10457,-0.287742 0.0974,-0.254055 0.17713,-0.571243 0.17713,-0.704862 0,-0.133619 0.19133,-0.242944 0.42518,-0.242944 0.2957,0 0.3715,0.141007 0.24891,0.463021 -0.14134,0.371249 -0.11024,0.39747 0.1569,0.132292 0.50063,-0.496956 0.69649,-0.400611 0.56662,0.278734 -0.0876,0.458312 0.0514,0.685982 0.56064,0.917993 0.48025,0.218817 0.62713,0.438892 0.50511,0.756857 -0.1163,0.303065 -0.0717,0.386341 0.13751,0.257017 0.17025,-0.105221 0.30954,-0.06522 0.30954,0.08889 0,0.52285 -0.54103,0.283435 -0.78003,-0.345175 -0.38966,-1.024907 -0.97718,-1.033586 -1.95296,-0.02885 -0.48825,0.502732 -0.96603,0.835751 -1.06174,0.740043 -0.0957,-0.09571 -0.17402,0.02442 -0.17402,0.266957 0,0.33578 -0.2448,0.440972 -1.02623,0.440972 -0.90928,0 -1.06631,0.098 -1.37789,0.859896 -0.38069,0.930912 -0.89613,1.572487 -1.09974,1.368876 -0.07,-0.07 -0.28113,0.441681 -0.46917,1.137078 -0.18803,0.695399 -0.40373,1.375749 -0.47933,1.511889 -0.0756,0.13614 -0.1068,0.91004 -0.0693,1.71979 0.0836,1.80651 -0.25956,1.61803 -0.40325,-0.22147 -0.061,-0.78169 0.0675,-1.83004 0.31302,-2.5533 0.22914,-0.67491 0.34852,-1.295187 0.26531,-1.378402 -0.0832,-0.08322 -0.1513,-0.02978 -0.1513,0.118744 0,0.507335 -1.33708,1.721418 -1.72983,1.570708 -0.42761,-0.16409 -0.53642,0.24044 -0.13191,0.49044 0.14022,0.0867 0.4974,-0.0849 0.79375,-0.38126 0.51218,-0.51217 0.53882,-0.51425 0.53882,-0.0421 0,0.27323 -0.17859,0.64499 -0.39687,0.82615 -0.51245,0.42529 -0.50454,1.03 0.0211,1.6108 0.32884,0.36336 0.35507,0.57938 0.12299,1.01302 -0.29452,0.55032 -1.3347,0.78014 -1.3347,0.2949 0,-0.14095 0.19741,-0.18053 0.43869,-0.0879 0.37691,0.14464 0.41565,0.0263 0.27506,-0.83999 -0.21111,-1.30092 -1.1038,-2.25537 -2.10943,-2.25537 -0.7554,0 -0.77196,0.029 -0.67949,1.19176 0.0924,1.16173 0.0837,1.17706 -0.34528,0.60835 -0.38238,-0.50694 -0.4977,-0.53557 -0.87979,-0.21846 -0.40379,0.33511 -0.38961,0.39275 0.17348,0.70518 0.33727,0.18714 0.8264,0.34447 1.08695,0.34962 0.26056,0.005 0.82052,0.26577 1.24437,0.57913 0.62204,0.45989 0.7202,0.66395 0.50914,1.05833 -0.29945,0.55953 -0.0821,0.61554 0.91609,0.23604 0.53018,-0.20157 0.78731,-0.14236 1.274,0.29335 l 0.60975,0.54589 -0.66146,-0.38454 c -0.6753,-0.39259 -1.32291,-0.35123 -1.32291,0.0845 0,0.13339 0.30758,0.24253 0.6835,0.24253 0.42331,0 0.64221,0.1239 0.57503,0.32545 -0.0597,0.179 0.12485,0.5144 0.41005,0.74534 0.41914,0.3394 0.46344,0.52281 0.2311,0.95693 -0.20993,0.39227 -0.20516,0.61931 0.0177,0.84217 0.23042,0.23043 0.22739,0.30511 -0.0124,0.30511 -0.17463,0 -0.3175,0.18243 -0.3175,0.4054 0,0.22297 -0.26789,0.5045 -0.59531,0.62563 -0.32743,0.12112 -0.56555,0.29587 -0.52917,0.38834 0.16105,0.40937 0.0363,0.47277 -0.33073,0.16813 -0.2742,-0.22757 -0.39688,-0.23758 -0.39688,-0.0324 0,0.39924 -0.20666,0.36291 -1.49659,-0.26309 z m 0.58265,-5.63194 c 0.31852,-0.31852 0.31245,-0.39372 -0.0428,-0.53003 -0.51711,-0.19843 -0.89537,0.0212 -0.89537,0.51994 0,0.48507 0.45823,0.49 0.93814,0.0101 z m -1.20272,-0.95174 c 0,-0.14552 -0.11906,-0.26459 -0.26459,-0.26459 -0.14552,0 -0.26458,0.11907 -0.26458,0.26459 0,0.14552 0.11906,0.26458 0.26458,0.26458 0.14553,0 0.26459,-0.11906 0.26459,-0.26458 z m -0.18233,-3.63802 c 0.29653,-0.32743 0.44275,-0.59532 0.32493,-0.59532 -0.38248,0 -1.46575,1.33753 -1.45747,1.79957 0.007,0.37706 0.0551,0.36422 0.30071,-0.0798 0.16097,-0.29104 0.53529,-0.79705 0.83183,-1.12447 z m 16.7358,10.33016 c -0.14359,-0.37709 -0.1132,-0.40748 0.14811,-0.14812 0.18082,0.17948 0.26211,0.39297 0.18065,0.47444 -0.0815,0.0815 -0.2294,-0.0654 -0.32876,-0.32632 z m -50.90753,-1.40048 c 0,-0.3638 0.0601,-0.51263 0.13345,-0.33073 0.0734,0.1819 0.0734,0.47956 0,0.66146 -0.0734,0.1819 -0.13345,0.0331 -0.13345,-0.33073 z m 53.95182,-0.19843 c 0.0165,-0.64475 0.0445,-0.66735 0.24599,-0.19844 0.31054,0.72268 0.31054,0.92604 0,0.92604 -0.14552,0 -0.25622,-0.32742 -0.24599,-0.7276 z m -53.44354,-0.22049 c 0.0127,-0.30822 0.0754,-0.37092 0.15985,-0.15985 0.0764,0.19099 0.067,0.4192 -0.0209,0.50712 -0.0879,0.0879 -0.15045,-0.0684 -0.13896,-0.34727 z m 49.26994,-0.51832 c -0.43437,-0.68145 -0.48882,-0.91484 -0.21344,-0.91484 0.96468,0 1.65744,-2.86976 0.88035,-3.64684 -0.1722,-0.1722 -0.23814,-0.38803 -0.14655,-0.47963 0.27698,-0.27698 1.25135,1.55978 1.2524,2.36088 5.3e-4,0.47483 -0.28142,1.03038 -0.7724,1.52136 -0.60312,0.60311 -0.67593,0.778 -0.33073,0.79428 0.24347,0.0115 0.30648,0.0767 0.14003,0.14498 -0.16646,0.0683 -0.24187,0.35651 -0.16758,0.64057 0.1924,0.73576 0.0253,0.62626 -0.64208,-0.42076 z m -54.54072,0.14349 c 0,-0.3638 0.0601,-0.51263 0.13345,-0.33073 0.0734,0.1819 0.0734,0.47956 0,0.66146 -0.0734,0.1819 -0.13345,0.0331 -0.13345,-0.33073 z m 8.54833,-0.46302 c 0.10027,-0.5457 0.28447,-1.09764 0.40931,-1.22653 0.12739,-0.13152 0.0603,-0.40102 -0.15288,-0.61421 -0.54153,-0.54153 -0.51229,-2.88047 0.0387,-3.09189 0.99206,-0.38069 2.76845,0.20038 2.55649,0.83625 -0.0685,0.20554 0.0464,0.26689 0.31017,0.16565 0.33803,-0.12971 0.41813,0.0364 0.41453,0.85972 l -0.004,1.02049 -0.55049,-0.85958 c -0.30277,-0.47276 -0.67818,-0.78065 -0.83425,-0.6842 -0.17894,0.11059 -0.22135,0.0127 -0.11482,-0.2649 0.13756,-0.3585 -0.002,-0.44028 -0.74879,-0.44028 -0.89202,0 -0.91774,0.0292 -0.91774,1.04272 0,1.35941 0.43598,1.59161 1.21042,0.64466 l 0.62263,-0.76134 0.01,1.87414 c 0.005,1.03077 -0.0658,1.94947 -0.1579,2.04155 -0.0921,0.0921 -0.39927,-0.12734 -0.68264,-0.4876 -0.59453,-0.75581 -1.00203,-0.63719 -1.00203,0.2917 0,0.35521 -0.13232,0.64584 -0.29403,0.64584 -0.19579,0 -0.23311,-0.3315 -0.1117,-0.99219 z m 1.72864,-1.24846 c 0,-0.4683 -0.11095,-0.61058 -0.39203,-0.50272 -0.29678,0.11388 -0.32666,0.27257 -0.12298,0.65315 0.36243,0.67719 0.51501,0.63262 0.51501,-0.15043 z m 45.50834,1.82816 c 0,-0.22687 0.121,-0.33771 0.2689,-0.2463 0.14789,0.0914 0.2004,0.27702 0.11667,0.41249 -0.22681,0.36699 -0.38557,0.29856 -0.38557,-0.16619 z m 8.2281,-0.29752 c -0.21486,-0.47157 -0.22955,-0.77979 -0.0459,-0.96342 0.16261,-0.16262 0.21349,-1.06745 0.1279,-2.27486 -0.0998,-1.40784 -0.0621,-1.88089 0.12649,-1.58861 0.38077,0.59005 0.69484,5.15729 0.36851,5.35898 -0.14357,0.0887 -0.40321,-0.15071 -0.57698,-0.53209 z m -23.97081,0.18084 c -0.0899,-0.14552 -0.0374,-0.26458 0.11668,-0.26458 0.1541,0 0.28019,0.11906 0.28019,0.26458 0,0.14552 -0.0525,0.26459 -0.11667,0.26459 -0.0642,0 -0.19026,-0.11907 -0.2802,-0.26459 z m 3.83646,-0.54656 c 0,-0.30061 -0.12563,-0.80662 -0.27918,-1.12448 -0.26969,-0.55826 -0.26519,-0.56045 0.13229,-0.0643 0.38,0.47431 0.58288,1.73536 0.27918,1.73536 -0.0728,0 -0.13229,-0.24595 -0.13229,-0.54656 z m -60.568695,-0.13694 c 0.0127,-0.30823 0.07539,-0.37092 0.159853,-0.15986 0.07643,0.191 0.06703,0.4192 -0.02089,0.50712 -0.08792,0.0879 -0.150453,-0.0684 -0.138963,-0.34726 z m 75.452085,-0.50712 c 0.003,-0.58209 0.0571,-0.78906 0.1204,-0.45994 0.0633,0.32912 0.0609,0.80537 -0.005,1.05834 -0.0662,0.25296 -0.11801,-0.0163 -0.11507,-0.5984 z m -32.44424,-1.51949 c -0.76767,-1.00645 -0.90019,-2.08222 -0.31623,-2.56686 0.30562,-0.25365 0.4657,-0.18264 0.8252,0.36604 0.37932,0.57891 0.39643,0.80048 0.11438,1.48139 -0.35078,0.84688 -0.13869,1.43665 0.27908,0.77605 0.13538,-0.21407 0.24615,-0.27015 0.24615,-0.12463 0,0.14552 -0.10197,0.42549 -0.22659,0.62215 -0.17253,0.27226 -0.39252,0.14003 -0.92199,-0.55414 z m 0.0984,-1.39093 c 0,-0.3638 -0.11906,-0.66146 -0.26459,-0.66146 -0.29558,0 -0.36266,0.87206 -0.0882,1.14653 0.29166,0.29166 0.35278,0.20763 0.35278,-0.48507 z m 7.00058,1.96677 c -0.0959,-0.1552 -0.10295,-0.35364 -0.0156,-0.44097 0.0873,-0.0873 0.15878,-0.0199 0.15878,0.1499 0,0.16977 0.1318,0.30868 0.29289,0.30868 0.16109,0 0.22953,-0.16512 0.15209,-0.36693 -0.0988,-0.25741 0.0112,-0.32717 0.36856,-0.23373 0.28016,0.0733 0.52295,0.03 0.53954,-0.0961 0.18355,-1.39511 0.17057,-1.83951 -0.0619,-2.11965 -0.20243,-0.24391 -0.13987,-0.31871 0.24246,-0.28991 0.41767,0.0315 0.4815,0.16647 0.33694,0.71266 -0.0981,0.37062 -0.17213,1.06212 -0.16455,1.53668 0.009,0.57346 -0.0943,0.82134 -0.30847,0.73916 -0.17724,-0.068 -0.39262,-0.01 -0.47863,0.12936 -0.20955,0.33906 -0.84529,0.32161 -1.06207,-0.0292 z m 0.31956,-1.74628 c -0.24447,-0.24447 -0.22171,-0.88195 0.0315,-0.88195 0.11434,0 0.20789,0.23813 0.20789,0.52917 0,0.59659 0.002,0.59395 -0.23938,0.35278 z m 31.04444,-0.29986 c 0,-0.11642 0.14883,-0.37201 0.33073,-0.56799 0.26205,-0.28232 0.26229,-0.31769 10e-4,-0.17031 -0.40888,0.23083 -1.65471,-1.06076 -1.65471,-1.71561 0,-1.04942 -1.51667,-1.76346 -1.76102,-0.82907 -0.0682,0.26075 -0.33946,0.49033 -0.60283,0.51017 -0.41405,0.0312 -0.43868,-0.0506 -0.18198,-0.60433 0.16328,-0.35222 0.40462,-0.64133 0.53632,-0.64247 0.13169,-10e-4 0.0239,-0.24019 -0.23944,-0.53123 -0.27158,-0.300085 -0.3466,-0.529164 -0.1733,-0.529164 0.16807,0 0.30559,0.09995 0.30559,0.222114 0,0.2981 1.30438,0.87891 1.58473,0.70564 0.12218,-0.0755 0.28246,0.0123 0.35616,0.19508 0.0844,0.20923 0.14174,0.169 0.15489,-0.1086 0.0115,-0.24253 -0.12794,-0.49412 -0.30984,-0.55909 -0.18191,-0.065 -0.23945,-0.215775 -0.12789,-0.335136 0.11157,-0.119362 0.33444,-0.08543 0.49526,0.07539 0.16083,0.160828 0.45651,0.229456 0.65705,0.152491 0.23974,-0.09199 0.36464,0.05387 0.36464,0.425855 0,0.31118 -0.1786,0.63431 -0.39688,0.71808 -0.21828,0.0838 -0.39687,0.32234 -0.39687,0.53017 0,0.61366 0.81944,1.68244 1.2872,1.67887 0.55063,-0.004 2.68155,-1.96805 2.68155,-2.47131 0,-0.43638 0.5567,-0.70039 1.47685,-0.70039 0.35189,0 0.63981,-0.11906 0.63981,-0.264583 0,-0.145521 -0.14882,-0.265317 -0.33072,-0.266214 -0.18191,-8.99e-4 0.0144,-0.18162 0.43623,-0.401607 0.42184,-0.219988 0.82863,-0.338316 0.904,-0.262953 0.0754,0.07536 -0.002,0.137024 -0.17166,0.137024 -0.16977,0 -0.30868,0.297656 -0.30868,0.661458 0,0.571935 -0.11818,0.661465 -0.87312,0.661465 -0.96884,0 -1.50813,0.39404 -1.50813,1.10194 0,0.25681 -0.2256,0.58768 -0.50134,0.73525 -0.27573,0.14757 -0.84128,0.80639 -1.25677,1.46404 -0.66837,1.05793 -1.41689,1.5783 -1.41689,0.98502 z m 1.59539,-1.65516 c 0.40206,-0.75125 0.12782,-0.62866 -0.40178,0.17961 -0.25011,0.38172 -0.32398,0.61321 -0.16414,0.51443 0.15983,-0.0988 0.41449,-0.4111 0.56592,-0.69404 z m -2.25685,-2.36651 c 0.0899,-0.14552 0.0374,-0.26458 -0.11667,-0.26458 -0.15411,0 -0.2802,0.11906 -0.2802,0.26458 0,0.14552 0.0525,0.26458 0.11667,0.26458 0.0642,0 0.19027,-0.11906 0.2802,-0.26458 z m -85.063536,2.24065 c 0,-0.65027 0.119063,-1.18232 0.264583,-1.18232 0.145521,0 0.26276,-0.32742 0.260532,-0.7276 -0.0032,-0.56699 -0.06067,-0.64 -0.260532,-0.33073 -0.197316,0.30533 -0.257415,0.21545 -0.260531,-0.3896 l -0.0041,-0.786477 0.424302,0.605777 c 0.412022,0.58824 0.401254,1.23434 -0.04437,2.66219 -0.141349,0.45291 -0.110302,0.58205 0.107555,0.44741 0.178251,-0.11017 0.306262,-0.0287 0.306262,0.1949 0,0.2113 -0.178594,0.45272 -0.396875,0.53648 -0.316289,0.12137 -0.396875,-0.0878 -0.396875,-1.03003 z m 61.647916,0.53747 c -0.18985,-0.22875 -0.21557,-0.39687 -0.0607,-0.39687 0.14777,0 0.33721,0.17859 0.42097,0.39687 0.0838,0.21829 0.11108,0.39688 0.0607,0.39688 -0.0504,0 -0.23981,-0.17859 -0.42097,-0.39688 z m 32.32519,-0.70209 c -0.33849,-0.41421 -0.54685,-0.75311 -0.46302,-0.75311 0.27464,0 1.24583,1.08634 1.16113,1.29881 -0.0455,0.11408 -0.35962,-0.13148 -0.69811,-0.5457 z m -88.416856,0.18854 c 0,-0.22687 0.119063,-0.41249 0.264583,-0.41249 0.145521,0 0.264584,0.11204 0.264584,0.24897 0,0.13693 -0.119063,0.32255 -0.264584,0.41249 -0.14552,0.0899 -0.264583,-0.0221 -0.264583,-0.24897 z m 15.216386,-0.66024 c -0.2389,-1.414 0.0201,-1.66821 0.75841,-0.74443 0.3371,0.42177 0.85538,0.73542 1.23306,0.7462 0.60076,0.0171 0.61029,0.0363 0.12235,0.24598 -0.84191,0.36178 -1.14325,0.30151 -1.32292,-0.26458 -0.0924,-0.29104 -0.28318,-0.52917 -0.42401,-0.52917 -0.1648,0 -0.16502,0.17012 -6.4e-4,0.47728 0.14049,0.2625 0.15778,0.63529 0.0384,0.82841 -0.14414,0.23323 -0.28002,-0.0218 -0.40468,-0.75969 z m 35.20375,0.58989 c -0.14359,-0.37708 -0.1132,-0.40747 0.14811,-0.14811 0.18082,0.17948 0.26211,0.39297 0.18065,0.47443 -0.0815,0.0815 -0.2294,-0.0654 -0.32876,-0.32632 z m 19.11567,0.27087 c 0.19099,-0.0764 0.4192,-0.067 0.50712,0.0209 0.0879,0.0879 -0.0684,0.15045 -0.34727,0.13897 -0.30822,-0.0127 -0.37092,-0.0754 -0.15985,-0.15986 z m 1.05833,0 c 0.191,-0.0764 0.4192,-0.067 0.50712,0.0209 0.0879,0.0879 -0.0684,0.15045 -0.34727,0.13897 -0.30822,-0.0127 -0.37091,-0.0754 -0.15985,-0.15986 z m -20.96212,-1.38174 c -0.28879,-0.3191 -0.41744,-0.78608 -0.3467,-1.25839 l 0.11248,-0.751002 0.0396,0.764582 c 0.0218,0.42052 0.24782,0.9168 0.50225,1.10285 0.25443,0.18604 0.39261,0.40826 0.30706,0.49381 -0.0855,0.0855 -0.36218,-0.0728 -0.61473,-0.35185 z m 22.33465,0.10727 c 0,-0.21828 0.10632,-0.39687 0.23627,-0.39687 0.12996,0 0.30481,0.17859 0.38858,0.39687 0.0928,0.24176 5.2e-4,0.39688 -0.23628,0.39688 -0.21371,0 -0.38857,-0.17859 -0.38857,-0.39688 z m 1.19062,0.1323 c -0.0899,-0.14552 -0.0817,-0.39696 0.0183,-0.55875 0.1,-0.16179 0.0177,-0.39809 -0.18283,-0.52512 -0.28838,-0.18265 -0.2678,-0.23179 0.0984,-0.235 0.33898,-0.003 0.46302,0.20859 0.46302,0.7897 0,0.82451 -0.11751,0.98119 -0.39688,0.52917 z m -3.1637,-0.2463 c -0.18073,-0.29243 0.23665,-0.60819 0.48097,-0.36387 0.25156,0.25156 0.20467,0.61017 -0.0798,0.61017 -0.13693,0 -0.31746,-0.11084 -0.40119,-0.2463 z m 18.48427,-0.32375 c -0.11158,-0.18055 -0.0731,-0.23397 0.0941,-0.13064 0.15558,0.0961 0.34317,0.0252 0.41687,-0.15756 0.0808,-0.20052 0.14228,-0.14869 0.15489,0.13064 0.0236,0.5236 -0.38051,0.61923 -0.66584,0.15756 z m -24.32728,-0.24131 c -0.0959,-0.1552 -0.11766,-0.33893 -0.0483,-0.40828 0.0693,-0.0694 0.1966,0.0576 0.28277,0.28218 0.17891,0.46623 0.0264,0.54824 -0.23447,0.1261 z m 23.69109,-0.31308 c 0,-0.23751 0.12698,-0.51031 0.28218,-0.60623 0.45377,-0.28045 0.49829,-0.0293 0.0931,0.52488 -0.31382,0.42918 -0.37524,0.44249 -0.37524,0.0814 z m -69.54364,-0.72765 c 0,-0.363799 0.0601,-0.512627 0.13345,-0.330726 0.0734,0.181896 0.0734,0.479556 0,0.661456 -0.0734,0.1819 -0.13345,0.0331 -0.13345,-0.33073 z m 67.86046,0.13229 c 0.0838,-0.21828 0.19908,-0.39687 0.25628,-0.39687 0.0572,0 0.10398,0.17859 0.10398,0.39687 0,0.21829 -0.11533,0.39688 -0.25628,0.39688 -0.14095,0 -0.18775,-0.17859 -0.10398,-0.39688 z M 95.524615,42.042267 c -0.09074,-0.236459 -0.154744,-0.628547 -0.142236,-0.871306 0.01251,-0.24276 0.127633,-0.09018 0.255834,0.339068 0.249413,0.835089 0.161206,1.248369 -0.113598,0.532238 z m 29.535855,0.07637 c -0.4876,-0.615803 -0.8811,-1.521354 -0.6611,-1.521354 0.12032,0 0.40765,0.416718 0.6385,0.926041 0.44434,0.980324 0.45023,1.135384 0.0226,0.595313 z m 60.65157,-1.545491 c -0.12364,-1.06528 -0.0876,-1.711089 0.10632,-1.905 0.21476,-0.214762 0.29336,0.217045 0.29336,1.611637 0,1.04775 -0.0478,1.905 -0.10631,1.905 -0.0585,0 -0.19049,-0.725237 -0.29337,-1.611637 z m -54.80256,0.685595 c -0.0838,-0.218281 -0.33204,-0.396875 -0.55172,-0.396875 -0.29675,0 -0.34831,-0.153032 -0.20058,-0.595313 0.10937,-0.327422 0.25318,-1.217575 0.31957,-1.978119 0.0993,-1.137063 0.0179,-1.513223 -0.45782,-2.116667 -0.51744,-0.656363 -0.53099,-0.743465 -0.12831,-0.824818 0.24762,-0.05003 0.5864,0.04632 0.75285,0.214113 0.22806,0.229903 0.17224,0.257559 -0.22654,0.11224 l -0.52917,-0.192831 0.52917,0.602884 c 0.42629,0.485679 0.52916,0.980234 0.52916,2.543914 0,1.199373 0.12637,2.067882 0.33073,2.273022 0.1819,0.182595 0.33073,0.212929 0.33073,0.06741 0,-0.145521 -0.11594,-0.38053 -0.25766,-0.522243 -0.14171,-0.141713 -0.18566,-0.701306 -0.0977,-1.243542 0.11837,-0.729426 0.28863,-0.985882 0.65453,-0.985882 0.272,0 0.49455,-0.127085 0.49455,-0.282413 0,-0.155889 -0.2226,-0.211761 -0.49687,-0.124711 -0.38753,0.122997 -0.52774,-0.0038 -0.63713,-0.575975 -0.0771,-0.403523 -0.0846,-0.823653 -0.0167,-0.933622 0.18246,-0.29522 1.35745,-0.242956 1.55022,0.06895 0.0914,0.147894 0.27702,0.200399 0.41249,0.116677 0.13547,-0.08372 0.2463,0.03759 0.2463,0.269576 0,0.345097 -0.1,0.368289 -0.54984,0.127533 -0.58388,-0.312479 -1.30225,-0.175153 -1.30225,0.248942 0,0.139967 0.26789,0.292532 0.59531,0.339033 0.39075,0.05549 0.59532,0.266389 0.59532,0.613715 0,0.406333 -0.14672,0.508506 -0.63208,0.440161 -0.62335,-0.08778 -0.62956,-0.06678 -0.44988,1.521355 0.15483,1.368551 0.11938,1.610359 -0.23613,1.610359 -0.23007,0 -0.48685,-0.178594 -0.57061,-0.396875 z m 9.48316,-0.423168 c -0.24789,-0.451023 -0.7869,-1.340287 -1.1978,-1.976143 -0.96198,-1.488643 -0.88133,-2.363189 0.21792,-2.363189 0.69119,0 0.79243,0.09361 0.78355,0.724569 -0.007,0.484249 0.0778,0.636595 0.25506,0.459326 0.17726,-0.17727 0.1668,-0.526041 -0.0316,-1.051551 -0.27604,-0.731306 -0.26149,-0.76741 0.20797,-0.516162 0.27763,0.148579 0.50212,0.474315 0.49889,0.723856 -0.007,0.522091 -1.03767,1.946338 -1.04657,1.445899 -0.009,-0.487233 -0.53505,-0.403435 -0.53505,0.08518 0,0.228748 0.30897,0.943123 0.6866,1.5875 0.62544,1.067224 0.77275,1.167821 1.65365,1.12925 l 0.96704,-0.04234 -0.86184,-0.106858 c -0.6551,-0.08122 -0.95966,-0.30908 -1.26959,-0.949844 l -0.40775,-0.842987 0.56375,0.727183 c 0.43402,0.559847 0.71038,0.69038 1.20098,0.567249 0.45698,-0.114694 0.68626,-0.03218 0.81054,0.291707 0.21237,0.553416 -0.30278,0.917863 -1.30516,0.923351 -0.55623,0.003 -0.85181,-0.199527 -1.19063,-0.815991 z m -0.87518,-3.126056 c 0.2031,-0.128605 0.29614,-0.424439 0.20674,-0.657406 -0.16435,-0.428283 -0.69123,-0.5911 -0.72856,-0.225141 -0.0111,0.109141 -0.0601,0.406797 -0.10888,0.661458 -0.0981,0.512403 0.0749,0.573035 0.6307,0.221089 z m 28.77149,3.549224 c 0.0838,-0.218281 0.0344,-0.396875 -0.10973,-0.396875 -0.14412,0 -0.32431,-0.238125 -0.40042,-0.529167 -0.15451,-0.590859 -0.61721,-0.706788 -0.792,-0.198437 -0.0625,0.181901 -0.0819,0.120275 -0.0429,-0.136946 0.0389,-0.257222 -0.0939,-0.632351 -0.29518,-0.833621 -0.31154,-0.311539 -0.30804,-0.414006 0.0235,-0.689201 0.21423,-0.17779 0.38951,-0.494297 0.38951,-0.703348 0,-0.209051 0.11928,-0.306371 0.26508,-0.216266 0.14579,0.09011 0.38097,-0.140993 0.52261,-0.513552 0.27588,-0.725616 0.67982,-0.885394 0.87638,-0.34665 0.0664,0.181901 -0.13208,0.617819 -0.44098,0.968706 -0.3089,0.350887 -0.41281,0.55222 -0.2309,0.447406 0.1819,-0.104814 0.33072,-0.06221 0.33072,0.09467 0,0.168667 -0.25853,0.220352 -0.63259,0.126469 -1.10601,-0.27759 -1.07727,0.398122 0.0635,1.494324 1.06015,1.018683 1.74329,1.416013 1.09821,0.63874 -0.24545,-0.295751 -0.24973,-0.396875 -0.0168,-0.396875 0.17193,0 0.23901,-0.119063 0.14907,-0.264584 -0.0899,-0.14552 -0.0454,-0.264583 0.099,-0.264583 0.14438,0 0.25235,0.357188 0.23994,0.79375 -0.0136,0.478173 -0.16435,0.79375 -0.37918,0.79375 -0.19615,0 -0.35662,0.119063 -0.35662,0.264584 0,0.14552 -0.11533,0.264583 -0.25628,0.264583 -0.14095,0 -0.18775,-0.178594 -0.10399,-0.396875 z m 4.19655,-0.595313 c 0.0528,-0.400182 0.10421,-0.816901 0.11424,-0.926041 0.01,-0.109141 0.15187,-0.198438 0.31521,-0.198438 0.20518,0 0.19517,0.122671 -0.0324,0.396875 -0.27854,0.335619 -0.22228,0.396875 0.36448,0.396875 0.81596,0 0.90788,0.396006 0.18208,0.784441 -0.81523,0.436298 -1.04639,0.32515 -0.94361,-0.453712 z m -0.92587,0.229668 c 0,-0.145521 0.11907,-0.338168 0.26459,-0.428105 0.14552,-0.08994 0.26458,-0.04446 0.26458,0.101062 0,0.145521 -0.11906,0.338168 -0.26458,0.428105 -0.14552,0.08994 -0.26459,0.04446 -0.26459,-0.101062 z m -20.40666,-0.494251 c -0.33589,-0.428296 -0.32344,-0.433911 0.16604,-0.07487 0.29104,0.213484 0.57878,0.421844 0.63941,0.463021 0.0606,0.04118 -0.0141,0.07487 -0.16604,0.07487 -0.15196,0 -0.43969,-0.20836 -0.63941,-0.463021 z m 29.66708,0.198438 c 0,-0.145521 0.12609,-0.264584 0.2802,-0.264584 0.15411,0 0.20661,0.119063 0.11668,0.264584 -0.0899,0.14552 -0.21603,0.264583 -0.2802,0.264583 -0.0642,0 -0.11668,-0.119063 -0.11668,-0.264583 z m -62.44167,-0.396875 c 0,-0.218282 0.11533,-0.396876 0.25629,-0.396876 0.14095,0 0.18774,0.178594 0.10398,0.396876 -0.0838,0.218281 -0.19909,0.396875 -0.25628,0.396875 -0.0572,0 -0.10399,-0.178594 -0.10399,-0.396875 z m 41.86563,0.01194 c -0.88994,-0.489466 -0.96357,-0.620907 -0.59593,-1.063884 0.46934,-0.565529 0.74816,-0.502306 0.84693,0.192044 0.0547,0.384491 0.25319,0.581533 0.56053,0.556403 0.26173,-0.0214 0.43282,0.09022 0.38022,0.248047 -0.13985,0.419528 -0.51312,0.440635 -1.19175,0.06739 z m -49.25536,-1.099487 c -0.0102,-0.743673 -0.0936,-1.934298 -0.18519,-2.645833 -0.12696,-0.985927 -0.0925,-1.224618 0.14486,-1.003324 0.36517,0.340474 0.56439,3.706487 0.26479,4.473943 -0.14227,0.364443 -0.21161,0.109654 -0.22446,-0.824786 z m 26.5636,0.326874 c 0.44714,-1.493815 0.46125,-2.554103 0.0425,-3.19318 -0.4999,-0.762943 -0.53137,-0.940934 -0.16638,-0.940934 0.14553,0 0.26459,0.178594 0.26459,0.396875 0,0.218281 0.11906,0.396875 0.26458,0.396875 0.14925,0 0.26458,0.749652 0.26458,1.719791 0,0.970139 0.11534,1.719792 0.26459,1.719792 0.14552,0 0.26458,0.10418 0.26458,0.231511 0,0.12733 -0.30765,0.23151 -0.68367,0.23151 -0.57348,0 -0.65654,-0.09062 -0.51538,-0.56224 z m 27.12822,0.231511 c 0,-0.218281 -0.1786,-0.396875 -0.39688,-0.396875 -0.21828,0 -0.39687,-0.115326 -0.39687,-0.25628 0,-0.140953 0.14883,-0.200438 0.33073,-0.132188 0.4302,0.161414 1.08379,-1.21326 0.7402,-1.556845 -0.15972,-0.159729 -0.0641,-0.491037 0.26093,-0.904278 0.28216,-0.358704 0.44807,-0.757258 0.36871,-0.885674 -0.18553,-0.300196 -0.0422,-0.294027 0.8245,0.03548 0.57283,0.217787 0.64797,0.340631 0.39489,0.645574 -0.17191,0.207133 -0.5718,0.41352 -0.88866,0.458636 -0.52439,0.07467 -0.57409,0.230443 -0.55375,1.735676 0.0164,1.213505 -0.0716,1.653646 -0.33073,1.653646 -0.19419,0 -0.35307,-0.178594 -0.35307,-0.396875 z m -3.68328,-0.551215 c 0.0127,-0.308225 0.0754,-0.37092 0.15985,-0.159853 0.0764,0.190996 0.067,0.419199 -0.0209,0.507118 -0.0879,0.08792 -0.15045,-0.06835 -0.13896,-0.347265 z m -25.89383,-0.159853 c -0.71126,-0.711255 -0.23707,-2.596224 0.65311,-2.596224 0.46593,0 0.74069,1.252708 0.45315,2.066057 -0.27929,0.790016 -0.66268,0.973752 -1.10626,0.530167 z m 0.84751,-0.913706 c 0.19892,-0.518393 -0.0468,-1.417935 -0.38736,-1.417935 -0.3145,0 -0.61726,1.210217 -0.39338,1.572463 0.25259,0.408698 0.59025,0.341866 0.78074,-0.154528 z M 96.849463,37.477596 c -0.34284,-1.396827 0.792646,-2.286967 1.420591,-1.113642 0.156458,0.292344 0.174435,0.529167 0.04017,0.529167 -0.133669,0 -0.327052,0.26789 -0.42974,0.595312 l -0.186707,0.595313 -0.20228,-0.661459 c -0.201841,-0.660021 -0.202526,-0.659734 -0.315299,0.132292 l -0.113018,0.79375 z m 56.231117,-0.319892 c 0,-0.363802 0.06,-0.51263 0.13345,-0.330729 0.0734,0.181901 0.0734,0.479557 0,0.661458 -0.0734,0.181901 -0.13345,0.03307 -0.13345,-0.330729 z m 3.19937,0.353938 c -0.48211,-0.194532 -0.40437,-0.502194 0.13229,-0.523579 0.25466,-0.01015 0.64586,-0.09814 0.86934,-0.195539 0.2899,-0.126347 0.40633,-0.02359 0.40633,0.358629 0,0.527968 -0.60746,0.683499 -1.40796,0.360489 z m -42.35256,-1.243261 c 0.0135,-0.814151 -0.11254,-1.379896 -0.3435,-1.541497 -0.30161,-0.211032 -0.29695,-0.23681 0.0269,-0.148667 0.52855,0.143866 0.92383,1.877058 0.56944,2.496841 -0.21594,0.377648 -0.26965,0.206271 -0.25282,-0.806677 z m 36.99474,0.62474 c 0,-0.145521 0.12609,-0.264584 0.2802,-0.264584 0.15411,0 0.20662,0.119063 0.11668,0.264584 -0.0899,0.145521 -0.21603,0.264583 -0.2802,0.264583 -0.0642,0 -0.11668,-0.119062 -0.11668,-0.264583 z m 5.62745,-0.87506 c 0.12925,-0.387731 0.77679,-0.417434 0.90214,-0.04138 0.0503,0.1508 -0.15582,0.292805 -0.45796,0.315565 -0.32061,0.02415 -0.50556,-0.09002 -0.44418,-0.274185 z m -17.84789,-0.09943 c 0.191,-0.07643 0.4192,-0.06703 0.50712,0.02089 0.0879,0.08792 -0.0684,0.150453 -0.34727,0.138964 -0.30822,-0.01269 -0.37091,-0.07539 -0.15985,-0.159852 z m -7.35872,-0.187187 c 0,-0.05684 0.41672,-0.151994 0.92604,-0.211455 0.50932,-0.05946 0.92604,-0.01296 0.92604,0.103345 0,0.1163 -0.41672,0.211454 -0.92604,0.211454 -0.50932,0 -0.92604,-0.0465 -0.92604,-0.103344 z"
       id="path8219" />
  </g>
</svg>
