<?xml version="1.0" encoding="UTF-8" standalone="no"?>
<!-- Created with Inkscape (http://www.inkscape.org/) -->

<svg
   width="75.67083mm"
   height="14.852481mm"
   viewBox="0 0 75.67083 14.852481"
   version="1.1"
   id="svg5"
   inkscape:version="1.1 (c4e8f9ed74, 2021-05-24)"
   sodipodi:docname="quality.svg"
   xmlns:inkscape="http://www.inkscape.org/namespaces/inkscape"
   xmlns:sodipodi="http://sodipodi.sourceforge.net/DTD/sodipodi-0.dtd"
   xmlns="http://www.w3.org/2000/svg"
   xmlns:svg="http://www.w3.org/2000/svg">
  <sodipodi:namedview
     id="namedview7"
     pagecolor="#ffffff"
     bordercolor="#666666"
     borderopacity="1.0"
     inkscape:pageshadow="2"
     inkscape:pageopacity="0.0"
     inkscape:pagecheckerboard="0"
     inkscape:document-units="mm"
     showgrid="false"
     inkscape:zoom="0.66903058"
     inkscape:cx="100.89225"
     inkscape:cy="121.81805"
     inkscape:window-width="2506"
     inkscape:window-height="1403"
     inkscape:window-x="1974"
     inkscape:window-y="0"
     inkscape:window-maximized="1"
     inkscape:current-layer="layer1" />
  <defs
     id="defs2" />
  <g
     inkscape:label="Layer 1"
     inkscape:groupmode="layer"
     id="layer1"
     transform="translate(-77.637789,-106.97316)">
    <path
       style="fill:#000000;stroke-width:0.264583"
       d="m 98.40758,121.66519 c -1.018646,-0.10664 -2.481569,-0.44964 -3.250941,-0.76223 -1.867677,-0.75882 -4.926847,-0.77577 -7.067809,-0.0392 -1.866399,0.64213 -3.3664,0.67599 -4.25162,0.096 -0.506359,-0.33178 -1.309383,-0.43285 -3.430275,-0.43174 -2.167279,0.001 -2.769146,-0.0772 -2.769146,-0.36056 0,-0.2681 0.463308,-0.36843 1.785937,-0.38675 3.94208,-0.0546 4.150867,-0.0916 5.474918,-0.96856 1.823227,-1.20766 2.948143,-1.35321 5.512065,-0.71324 0.657004,0.164 0.921837,-0.0104 2.513542,-1.65475 1.816896,-1.87705 3.498954,-4.6713 3.498954,-5.8125 0,-0.9517 -0.679926,-2.38835 -1.283123,-2.71117 -0.753155,-0.40308 -3.065876,-0.3552 -4.120114,0.0853 -1.231955,0.51474 -2.999704,2.17083 -3.624528,3.39559 -0.38097,0.74676 -0.50137,1.43284 -0.44386,2.52927 0.0715,1.36317 0.150597,1.53878 0.841754,1.86891 1.584278,0.75674 4.085173,-0.71364 5.181782,-3.04657 0.946315,-2.0132 0.160623,-3.23984 -1.518895,-2.37132 -1.539992,0.79636 -1.821426,2.01545 -0.465278,2.01545 0.368369,0 0.669762,0.11056 0.669762,0.24568 0,0.51651 -0.888647,1.10268 -1.554617,1.02546 -0.595287,-0.069 -0.70614,-0.22347 -0.777049,-1.0826 -0.196481,-2.38056 3.82431,-4.22885 4.755158,-2.18586 0.516552,1.13371 0.03686,2.47452 -1.446361,4.04281 -1.822889,1.92744 -2.631268,2.31827 -4.58584,2.21713 -2.261829,-0.11703 -2.702589,-3.7196 -0.765755,-6.25892 l 0.697228,-0.91412 h -5.17284 c -4.421691,0 -5.17284,-0.0576 -5.17284,-0.39687 0,-0.34028 0.798526,-0.39688 5.599232,-0.39688 h 5.599232 l 1.340031,-0.85989 c 1.20802,-0.77519 1.536116,-0.8599 3.330456,-0.8599 1.811277,0 2.100796,0.0767 3.216734,0.85165 l 1.226312,0.85165 12.949054,0.0316 12.94906,0.0316 1.28841,-0.81709 c 0.70863,-0.4494 1.56276,-0.81709 1.89807,-0.81709 0.50705,0 0.60966,0.13983 0.60966,0.8308 v 0.83079 l 12.83229,-0.1637 c 11.22183,-0.14317 12.83229,-0.11461 12.83229,0.22753 0,0.29964 -0.35622,0.3918 -1.52135,0.39361 -12.7161,0.0197 -15.62465,0.13274 -16.17199,0.62831 -0.73089,0.66178 -0.49171,0.95683 0.77562,0.95683 0.5735,0 1.04272,0.11906 1.04272,0.26458 0,0.14552 -0.62917,0.26459 -1.39816,0.26459 -1.54538,0 -1.31416,-0.22347 -3.06517,2.96226 -0.82167,1.49492 -1.08433,2.85857 -0.55061,2.85857 0.61866,0 1.81998,-0.84137 3.95561,-2.77042 2.74452,-2.47905 3.6827,-3.0011 4.6232,-2.57258 0.87545,0.39888 0.8476,1.04673 -0.11236,2.61344 -0.9217,1.50429 -1.28316,2.72956 -0.80524,2.72956 0.9749,0 2.48569,-1.28939 3.6331,-3.10069 1.04502,-1.64967 1.32771,-1.92639 1.96789,-1.92639 0.83939,0 0.99558,0.52313 0.32288,1.08142 -0.23359,0.19386 -0.90802,1.07164 -1.49874,1.95063 -0.59072,0.87898 -1.58922,2.28276 -2.21889,3.11951 l -1.14485,1.52135 h 6.08317 c 5.2446,0 6.08317,0.055 6.08317,0.3989 0,0.34564 -0.85881,0.39356 -6.43159,0.3589 -6.20956,-0.0386 -6.48587,-0.0182 -8.00365,0.59099 l -1.57205,0.63099 -18.52083,0.0369 c -10.18646,0.0203 -19.354274,-0.0503 -20.37292,-0.15696 z m -9.942503,-1.89413 c 1.339279,-0.61019 1.630567,-0.84264 1.375293,-1.09748 -0.475244,-0.47446 -2.800068,-0.32298 -3.7708,0.24568 -1.127701,0.66061 -1.549424,1.34994 -1.025646,1.67647 0.515351,0.32127 1.344853,0.12132 3.421153,-0.82467 z m 50.004183,0.0145 c 1.55051,-0.33252 2.92498,-1.18505 3.37909,-2.09589 0.17677,-0.35456 0.29325,-0.6728 0.25885,-0.7072 -0.0344,-0.0344 -0.68202,0.24404 -1.43917,0.61875 -1.32364,0.65506 -1.4031,0.66394 -2.06426,0.23074 -0.82207,-0.53865 -0.75053,-1.07291 0.40642,-3.03509 1.6815,-2.85183 1.07221,-2.95568 -1.82785,-0.31157 -3.60829,3.28984 -5.3745,4.19225 -6.3317,3.23505 -0.50737,-0.50737 -0.51844,-0.61421 -0.16696,-1.61043 0.20706,-0.58685 0.31072,-1.06701 0.23037,-1.06701 -0.0804,0 -0.70015,0.48847 -1.37733,1.08549 -1.76049,1.55209 -3.07589,2.1829 -3.77346,1.80957 -0.36142,-0.19342 -0.50487,-0.46841 -0.41789,-0.80104 0.16689,-0.63815 -0.20006,-0.64409 -1.10007,-0.0178 -1.79422,1.24851 -3.54223,1.40345 -4.188,0.3712 -0.25035,-0.40018 -0.48671,-0.7727 -0.52524,-0.82782 -0.0385,-0.0551 -0.83624,0.29703 -1.77269,0.78256 -1.45038,0.75199 -1.76546,0.83063 -2.12669,0.53084 -0.23323,-0.19357 -0.42406,-0.51595 -0.42406,-0.71641 0,-0.45095 0.13912,-0.46761 -1.5875,0.19015 -0.80036,0.30491 -1.84939,0.55488 -2.33118,0.5555 -0.91105,0.001 -1.90215,-0.66756 -1.90215,-1.28343 0,-0.49004 -0.44946,-0.44548 -1.28207,0.1271 -1.77299,1.21928 -3.21585,1.36244 -3.21585,0.31908 0,-0.2956 -0.0298,-0.53697 -0.0662,-0.53636 -0.0364,6.1e-4 -0.65187,0.29827 -1.36776,0.66146 -2.45604,1.24603 -3.930952,0.72251 -3.41459,-1.21203 0.25248,-0.94595 0.0775,-1.40191 -0.302176,-0.78753 -0.478887,0.77485 -4.504342,2.88267 -4.848324,2.53869 -0.185185,-0.18518 -0.179854,-0.18872 1.532331,-1.01529 0.800364,-0.38638 2.348177,-1.47806 3.439583,-2.42595 3.260016,-2.83133 4.258086,-2.93797 2.781256,-0.29717 -0.93699,1.6755 -1.20918,3.06855 -0.59844,3.06273 0.1819,-0.002 1.04056,-0.39806 1.90813,-0.88072 1.29484,-0.72037 1.7214,-1.14297 2.38125,-2.35916 0.57438,-1.05866 0.99223,-1.51781 1.4638,-1.60849 1.01233,-0.19465 1.12869,0.0474 0.50658,1.05404 -0.75473,1.22117 -1.56341,2.9079 -1.56341,3.26091 0,0.5202 1.96329,-0.72125 3.48213,-2.20186 0.82376,-0.80304 1.97988,-1.70603 2.56915,-2.00665 1.2973,-0.66184 2.85744,-0.70744 3.52529,-0.10305 0.37572,0.34003 0.56274,0.3709 0.80135,0.1323 0.28427,-0.28427 1.52833,-0.4523 1.52833,-0.20642 0,0.0576 -0.42967,1.00959 -0.95482,2.11542 -0.52516,1.10583 -0.88469,2.19336 -0.79897,2.41675 0.13628,0.35515 0.28334,0.34112 1.17096,-0.11171 1.24865,-0.63701 1.52854,-0.96454 2.02379,-2.36823 0.35685,-1.01143 1.06408,-2.14455 2.54355,-4.07529 l 0.55755,-0.72761 H 110.73277 98.275288 v 1.19913 c 0,0.65951 -0.161984,1.58225 -0.359964,2.05052 -0.502717,1.18904 -2.143353,3.08927 -3.939515,4.56286 -0.836745,0.68648 -1.521354,1.33017 -1.521354,1.43042 0,0.18026 3.360266,0.98029 4.894791,1.16538 2.110495,0.25456 39.891614,0.15404 41.120014,-0.10941 z m -46.279388,-0.24473 c 0,-0.14552 -0.29063,-0.26458 -0.645844,-0.26458 -0.355214,0 -0.719428,0.11906 -0.809365,0.26458 -0.0954,0.15436 0.173642,0.26458 0.645844,0.26458 0.44515,0 0.809365,-0.11906 0.809365,-0.26458 z m 31.031188,-2.54273 c 1.74335,-0.87231 2.40641,-1.47689 3.52271,-3.21196 0.70091,-1.08941 1.04185,-1.38906 1.58049,-1.38906 0.79792,0 0.82007,-0.10023 -0.54581,2.4703 -0.58092,1.09327 -0.97003,2.07395 -0.86469,2.17928 0.10534,0.10534 0.6997,-0.15124 1.3208,-0.57019 1.31305,-0.88568 4.70114,-4.21194 4.70114,-4.61535 0,-0.15116 -0.26789,-0.37814 -0.59531,-0.5044 -0.61996,-0.23906 -0.41443,-0.4156 0.69599,-0.59779 0.27366,-0.0449 0.67513,-0.34953 0.89217,-0.67695 0.39437,-0.59494 0.39362,-0.59532 -1.18415,-0.59532 -1.24275,0 -1.68069,0.11263 -2.05765,0.52917 -0.26339,0.29104 -0.65018,0.52917 -0.85953,0.52917 -0.20935,0 -0.44291,-0.23813 -0.51902,-0.52917 -0.10659,-0.40761 -0.3609,-0.52917 -1.10704,-0.52917 -0.87639,0 -1.25536,0.27998 -3.9787,2.93932 -2.5096,2.45063 -3.04112,3.10927 -3.19697,3.96151 -0.2866,1.56732 0.0799,1.66924 2.19557,0.61061 z m -8.44631,-0.79069 c 0.8838,-0.60057 1.75679,-1.95447 1.75679,-2.7246 0,-0.52969 -0.86411,-1.08573 -1.68729,-1.08573 -0.84552,0 -2.34068,0.88234 -3.00907,1.77574 -0.3479,0.46503 -0.45577,2.24435 -0.15434,2.54579 0.42433,0.42432 2.13252,0.14208 3.09391,-0.5112 z m 9.32541,-4.40564 c 2.08162,-2.15115 3.01471,-3.32438 3.01471,-3.79062 0,-1.25079 -2.29992,1.11852 -4.57851,4.71666 -0.75939,1.19916 -0.13482,0.8293 1.5638,-0.92604 z"
       id="path39" />
  </g>
</svg>
