<?xml version="1.0" encoding="UTF-8" standalone="no"?>
<!-- Created with Inkscape (http://www.inkscape.org/) -->

<svg
   width="101.94653mm"
   height="25.962973mm"
   viewBox="0 0 101.94654 25.962974"
   version="1.1"
   id="svg5"
   inkscape:version="1.1 (c4e8f9ed74, 2021-05-24)"
   sodipodi:docname="sundryhumbugs.svg"
   xmlns:inkscape="http://www.inkscape.org/namespaces/inkscape"
   xmlns:sodipodi="http://sodipodi.sourceforge.net/DTD/sodipodi-0.dtd"
   xmlns="http://www.w3.org/2000/svg"
   xmlns:svg="http://www.w3.org/2000/svg">
  <sodipodi:namedview
     id="namedview7"
     pagecolor="#ffffff"
     bordercolor="#666666"
     borderopacity="1.0"
     inkscape:pageshadow="2"
     inkscape:pageopacity="0.0"
     inkscape:pagecheckerboard="0"
     inkscape:document-units="mm"
     showgrid="false"
     inkscape:zoom="1.8923042"
     inkscape:cx="251.01672"
     inkscape:cy="122.86608"
     inkscape:window-width="2506"
     inkscape:window-height="1403"
     inkscape:window-x="1974"
     inkscape:window-y="0"
     inkscape:window-maximized="1"
     inkscape:current-layer="layer1" />
  <defs
     id="defs2" />
  <g
     inkscape:label="Layer 1"
     inkscape:groupmode="layer"
     id="layer1"
     transform="translate(-130.14615,-102.48962)">
    <path
       style="fill:#000000;stroke-width:0.264583"
       d="m 205.89877,127.12965 c -0.64268,-0.65485 -1.03931,-1.19063 -0.8814,-1.19063 0.18131,0 0.25223,-0.49792 0.19245,-1.35111 -0.0819,-1.16908 -0.0419,-1.3073 0.29714,-1.02594 0.33932,0.28161 0.39181,0.0904 0.39181,-1.42701 0,-0.99174 -0.11483,-1.75219 -0.26458,-1.75219 -0.14552,0 -0.26459,0.55563 -0.26459,1.23472 0,1.58959 -0.2746,1.34499 -0.30709,-0.27353 -0.0135,-0.67418 -0.12743,-1.22577 -0.25311,-1.22577 -0.12568,0 -0.15202,1.25015 -0.0585,2.77812 0.11437,1.86925 0.0792,2.77813 -0.1074,2.77813 -0.4896,0 -1.91157,-1.83 -1.74971,-2.25179 0.10987,-0.28631 0.0323,-0.35354 -0.27282,-0.23645 -0.36903,0.14161 -0.42634,-0.10692 -0.42634,-1.84908 0,-1.1654 -0.11138,-2.01268 -0.26458,-2.01268 -0.14778,0 -0.26458,0.72025 -0.26458,1.63159 0,0.89738 -0.0802,1.55137 -0.17829,1.45331 -0.0981,-0.0981 -0.14917,-0.89181 -0.11358,-1.76389 0.0442,-1.0828 -0.0348,-1.5856 -0.24907,-1.5856 -0.22599,0 -0.26292,0.40714 -0.13197,1.45521 0.1,0.80037 0.10578,1.45521 0.0128,1.45521 -0.0929,0 -0.54799,-0.28729 -1.01122,-0.63843 -0.46323,-0.35113 -1.55662,-0.7815 -2.42974,-0.95638 -0.87313,-0.17488 -2.48047,-0.49347 -3.57188,-0.70797 -1.45616,-0.2862 -4.69585,-0.4224 -12.17083,-0.51169 -5.60255,-0.0669 -10.33098,-0.17002 -10.5076,-0.22911 -0.24769,-0.0829 -0.25158,-0.30687 -0.017,-0.97933 l 0.30415,-0.87188 0.223,0.85989 c 0.19491,0.75152 0.33044,0.85779 1.07535,0.84313 0.79498,-0.0156 0.81095,-0.0334 0.23737,-0.26332 -0.90072,-0.36113 -0.65551,-1.17512 0.354,-1.17512 0.68809,0 0.78878,0.094 0.77969,0.72761 -0.006,0.42295 0.13242,0.7276 0.33073,0.7276 0.22096,0 0.34116,-0.36851 0.34116,-1.04587 v -1.04586 l -1.25677,0.14039 c -0.69122,0.0772 -2.2688,0.22043 -3.50573,0.31826 -2.07243,0.16391 -2.25563,0.22491 -2.33402,0.77711 -0.0468,0.32958 -0.19041,0.53412 -0.31917,0.45455 -0.12876,-0.0796 -0.15955,-0.33901 -0.0684,-0.5765 0.10199,-0.26577 0.059,-0.36583 -0.1119,-0.26023 -0.15269,0.0944 -0.34041,0.41171 -0.41717,0.70523 -0.0768,0.29351 -0.0316,0.46693 0.10036,0.38538 0.13195,-0.0815 0.23991,-0.0222 0.23991,0.13193 0,0.1541 0.17859,0.28019 0.39687,0.28019 0.21828,0 0.39688,-0.23109 0.39688,-0.51355 0,-0.74894 0.53855,-0.96291 0.71597,-0.28445 0.11404,0.43608 0.20619,0.49139 0.37501,0.22506 0.17468,-0.27556 0.22472,-0.25763 0.22788,0.0816 0.005,0.5383 -0.52954,0.75592 -1.85682,0.75592 -1.01443,0 -7.49084,1.95379 -8.12715,2.45178 -0.24894,0.19483 -0.33073,0.0584 -0.33073,-0.55169 0,-0.97287 0.44893,-1.3622 0.59379,-0.51495 0.0801,0.46847 0.1489,0.38004 0.31526,-0.40529 0.25003,-1.18022 -0.003,-1.58888 -0.5338,-0.86272 -0.32649,0.44649 -0.37525,0.45503 -0.37525,0.0657 0,-0.2461 -0.11906,-0.44745 -0.26458,-0.44745 -0.14851,0 -0.26458,0.73428 -0.26458,1.67367 0,1.40738 -0.0974,1.76521 -0.61237,2.24896 -0.3368,0.31641 -0.66422,0.57557 -0.7276,0.57591 -0.0634,3.4e-4 -0.0755,-0.9092 -0.0269,-2.0212 0.0786,-1.79814 0.0396,-2.00311 -0.35237,-1.8527 -0.24238,0.093 -0.46815,0.16911 -0.5017,0.16911 -0.0335,0 -0.0221,1.07157 0.0253,2.38125 0.0475,1.30969 -0.005,2.38124 -0.1158,2.38122 -0.11116,-2e-5 -0.20212,-0.96387 -0.20212,-2.14188 0,-1.17801 -0.0893,-2.19706 -0.19843,-2.26454 -0.2022,-0.12502 -0.23924,0.32697 -0.29766,3.63169 -0.0326,1.84163 -0.0506,1.88742 -1.14731,2.91042 l -1.11423,1.03934 -2.45764,-0.0348 c -1.71395,-0.0243 -2.17742,-0.0907 -1.5316,-0.21931 0.7788,-0.15515 0.84622,-0.2196 0.424,-0.40532 -0.3101,-0.13642 -0.81586,-0.0857 -1.32291,0.1327 -0.45149,0.19445 -1.62455,0.40229 -2.60682,0.46187 l -1.78594,0.10832 v -0.83108 c 0,-0.5282 -0.10423,-0.76666 -0.28602,-0.65431 -0.15731,0.0972 -0.21457,0.46144 -0.12725,0.80937 0.0896,0.35709 0.0413,0.63259 -0.11085,0.63259 -0.1483,0 -0.26963,-0.35718 -0.26963,-0.79375 0,-0.99506 -0.5162,-1.05547 -0.5652,-0.0661 -0.0309,0.62384 -0.0524,0.64271 -0.15069,0.13229 -0.15532,-0.80638 -0.60702,-0.75716 -0.60702,0.0661 0,0.3638 -0.12133,0.66145 -0.26963,0.66145 -0.15548,0 -0.19934,-0.28002 -0.10361,-0.66145 0.12555,-0.50021 0.0623,-0.66146 -0.25954,-0.66146 -0.27754,0 -0.42556,0.23007 -0.42556,0.66146 0,0.52916 -0.13229,0.66145 -0.66146,0.66145 -0.46152,0 -0.65514,-0.13995 -0.64057,-0.46302 0.0125,-0.2766 0.0746,-0.32986 0.15434,-0.13229 0.21761,0.53928 0.88311,0.3763 0.88311,-0.21627 0,-0.42064 -0.12223,-0.51232 -0.52917,-0.39687 -0.29104,0.0826 -0.76121,0.21575 -1.04483,0.29596 -0.28361,0.0802 -0.45659,0.29978 -0.38439,0.48793 0.0964,0.25122 -0.25865,0.35484 -1.33642,0.39006 l -1.46769,0.048 -0.004,-1.2635 c -0.002,-0.69492 -0.12647,-1.44209 -0.27608,-1.66037 -0.19653,-0.28673 -0.25048,0.0622 -0.19439,1.25725 0.0475,1.0116 -0.0285,1.65394 -0.19559,1.65364 -0.17228,-2.6e-4 -0.23389,-0.69667 -0.16675,-1.88488 0.066,-1.16817 -0.0313,-2.29951 -0.25594,-2.97656 l -0.36241,-1.09216 -0.15396,1.5875 -0.15396,1.5875 -0.0485,-1.85208 c -0.0525,-2.00481 -0.53294,-3.38856 -0.59708,-1.7198 -0.0285,0.74124 -0.10144,0.5943 -0.36555,-0.73633 -0.18149,-0.9143 -0.37565,-1.70794 -0.43149,-1.76362 -0.0558,-0.0557 -0.10151,1.06775 -0.10151,2.49652 0,1.42878 -0.0875,2.46054 -0.19439,2.29279 -0.10691,-0.16774 -0.19621,-0.56727 -0.19844,-0.88784 -0.002,-0.32058 -0.14268,-0.88714 -0.31213,-1.25904 -0.23738,-0.52099 -0.23305,-0.81636 0.0189,-1.28705 0.17982,-0.33598 0.28869,-1.07911 0.24194,-1.65138 -0.0706,-0.86472 -0.19139,-1.05555 -0.71475,-1.12957 -0.54286,-0.0768 -0.60832,-0.004 -0.47446,0.52964 0.0854,0.34028 0.17157,2.70208 0.19148,5.24843 0.0304,3.8906 -0.0262,4.64245 -0.35453,4.70934 -0.33851,0.069 -0.40551,-1.46901 -0.50136,-11.50937 -0.0756,-7.92177 -0.0226,-11.65236 0.16754,-11.78927 0.15299,-0.11016 3.55238,-0.18937 7.55421,-0.17602 6.77626,0.0226 7.37599,-0.0138 8.73125,-0.52931 0.80036,-0.30446 1.66195,-0.67173 1.91464,-0.81616 0.92262,-0.52733 1.49116,-0.31483 1.66712,0.62313 l 0.16617,0.88573 5.86509,0.0353 c 3.22581,0.0194 6.87713,-0.0817 8.11406,-0.22468 12.03535,-1.39111 16.32302,-1.40411 29.10416,-0.0882 6.03662,0.62149 8.23196,0.69265 16.70605,0.54147 0.93765,-0.0167 0.9668,-0.048 1.09345,-1.17158 0.0716,-0.63492 0.18533,-1.20961 0.25281,-1.27709 0.11177,-0.11177 1.38119,0.3299 2.71749,0.9455 3.65033,1.68162 3.20028,1.60693 10.42726,1.73064 3.69771,0.0633 6.7788,0.17078 6.84688,0.23885 0.0681,0.0681 0.1383,1.30726 0.15606,2.75375 0.0178,1.44648 0.12159,2.57516 0.23073,2.50817 0.10914,-0.067 0.19844,-0.003 0.19844,0.14278 0,0.14552 -0.11201,0.33381 -0.24891,0.41842 -0.14695,0.0908 -0.24936,3.57744 -0.25002,8.51182 -5.3e-4,4.59689 -0.0502,8.40703 -0.1101,8.46696 -0.3005,0.30051 -0.97847,-0.30469 -0.97847,-0.87343 0,-0.35683 0.0942,-0.59056 0.20929,-0.51942 0.11511,0.0711 0.15214,-0.30879 0.0823,-0.84428 l -0.127,-0.97363 -0.16084,0.79375 c -0.0885,0.43656 -0.16823,-0.33735 -0.17727,-1.71979 -0.0146,-2.23669 0.005,-2.34485 0.17696,-0.98197 0.10638,0.84237 0.23842,1.57637 0.29343,1.6311 0.11613,0.11555 0.0856,-4.43076 -0.0363,-5.41163 -0.0453,-0.36426 -0.16235,-0.008 -0.26056,0.79375 l -0.17833,1.4552 -0.0431,-1.48904 c -0.0239,-0.82467 0.13395,-1.91284 0.35375,-2.43889 0.30806,-0.73729 0.39688,-2.1386 0.39688,-6.26162 v -5.31175 l -1.91645,0.0777 c -1.89713,0.077 -1.91796,0.0857 -2.06724,0.87149 -0.16593,0.87339 -0.0489,1.45521 0.29261,1.45521 0.12159,0 0.26664,-0.50602 0.32235,-1.12448 l 0.10128,-1.12448 0.0462,1.25677 c 0.0254,0.69123 0.16529,1.25677 0.31081,1.25677 0.14552,0 0.26837,-0.14882 0.273,-0.33073 0.006,-0.23091 0.10729,-0.21094 0.33601,0.0661 0.18018,0.21828 0.59311,0.54671 0.91763,0.72985 0.5119,0.28888 0.59279,0.27136 0.61092,-0.1323 0.0115,-0.25589 0.0785,-0.32369 0.14896,-0.15066 0.0704,0.17302 -0.045,0.58974 -0.25646,0.92604 -0.2166,0.34442 -0.35149,1.07364 -0.30886,1.66978 0.0416,0.58208 0.0881,1.862 0.10328,2.84427 0.0175,1.13497 0.13659,1.78594 0.3266,1.78594 0.19691,0 0.25412,-0.39806 0.16757,-1.16595 -0.0723,-0.64128 -0.0436,-1.30814 0.0639,-1.48192 0.1074,-0.17377 0.21233,0.51348 0.23317,1.52723 0.0279,1.35892 -0.0674,1.93057 -0.36285,2.17577 -0.33183,0.27539 -0.40727,1.27109 -0.43876,5.79028 -0.0303,4.34183 -0.0775,5.00383 -0.23102,3.2378 -0.10614,-1.22095 -0.16924,-3.46253 -0.14021,-4.98128 0.0413,-2.15937 -0.0115,-2.64133 -0.24191,-2.21075 -0.18718,0.34976 -0.2671,1.87733 -0.21906,4.18753 0.0416,2.0003 -0.0191,3.98315 -0.13492,4.40633 -0.12502,0.4569 -0.1944,-0.85961 -0.17079,-3.24114 0.0219,-2.20581 -0.0485,-4.01057 -0.15647,-4.01057 -0.30999,0 -0.47576,1.54201 -0.40532,3.77031 0.0356,1.12779 -0.035,2.05052 -0.15706,2.05052 -0.12204,0 -0.2245,-0.80367 -0.22769,-1.78593 l -0.006,-1.78594 -0.53128,1.17106 c -0.2922,0.64409 -0.65463,1.65612 -0.80539,2.24896 -0.41015,1.61289 -0.76464,1.95082 -2.10342,2.00517 -1.75871,0.0714 -1.79596,0.0572 -1.91504,-0.72884 l -0.11022,-0.7276 -0.0396,0.7276 c -0.0218,0.40018 -0.15136,0.72761 -0.28789,0.72761 -0.13654,0 -0.22584,-0.31442 -0.19844,-0.69871 0.0274,-0.38429 -0.099,-0.7514 -0.28092,-0.8158 -0.20816,-0.0737 -0.33073,0.13043 -0.33073,0.5508 0,0.36734 -0.12383,0.74443 -0.27518,0.83797 -0.17833,0.11021 -0.21502,-0.0697 -0.10423,-0.51109 0.19658,-0.78326 -0.0414,-0.93411 -1.61455,-1.02342 -1.0334,-0.0587 -1.0511,-0.0441 -1.20964,0.99879 l -0.16089,1.05833 -0.0375,-0.96133 c -0.0274,-0.70085 -0.17299,-0.99674 -0.53743,-1.09205 -0.73625,-0.19253 -1.03128,0.0958 -1.15604,1.12965 l -0.11147,0.92373 -0.0423,-0.99219 c -0.0517,-1.21044 -0.43418,-1.31725 -0.52342,-0.14615 -0.0918,1.2046 -0.31267,1.28124 -0.31267,0.10849 0,-0.62614 -0.10218,-0.92261 -0.28008,-0.81266 -0.16444,0.10163 -0.20738,0.50407 -0.10399,0.97476 0.12189,0.55498 0.0859,0.74596 -0.11681,0.62065 -0.16108,-0.0995 -0.30855,-0.5014 -0.3277,-0.89299 -0.0305,-0.62345 -0.0591,-0.59683 -0.22976,0.21405 -0.17532,0.83294 -0.19842,0.85289 -0.22975,0.19844 -0.0192,-0.40018 -0.14598,-0.72761 -0.28184,-0.72761 -0.13585,0 -0.29661,0.32743 -0.35723,0.72761 l -0.11022,0.7276 -0.0397,-0.7276 c -0.0474,-0.87057 -0.55565,-0.98272 -0.5995,-0.13229 -0.0231,0.44798 -0.0606,0.48072 -0.15169,0.13229 -0.0666,-0.25466 -0.18844,-0.46302 -0.27087,-0.46302 -0.0824,0 -0.32065,0.20836 -0.52938,0.46302 -0.20874,0.25466 -0.30922,0.32242 -0.2233,0.15057 0.0859,-0.17184 0.0352,-0.38723 -0.11267,-0.47863 -0.1501,-0.0928 -0.28246,0.10372 -0.29959,0.44473 -0.0225,0.44826 -0.0629,0.48764 -0.15169,0.14791 -0.14782,-0.56564 -0.61137,-0.61579 -0.61137,-0.0662 0,0.3071 -0.34665,0.39688 -1.53241,0.39688 -1.46669,0 -1.58252,-0.0511 -2.70092,-1.19062 z m 3.82098,0.58423 c -0.0721,-0.188 0.22925,-0.60828 0.66976,-0.93397 0.44929,-0.33217 0.80093,-0.8361 0.80093,-1.1478 0,-0.50168 -0.11514,-0.54268 -1.18532,-0.42206 -0.71627,0.0807 -1.35849,0.007 -1.62293,-0.18638 -0.66093,-0.48329 0.0393,-1.77791 1.1579,-2.14078 0.47135,-0.15291 1.00573,-0.42785 1.18752,-0.61099 0.26505,-0.26701 0.2302,-0.29476 -0.17589,-0.14005 -0.35346,0.13465 -0.44864,0.0994 -0.31511,-0.11662 0.28504,-0.46121 -0.12234,-0.37407 -0.71748,0.15348 -0.50687,0.44929 -0.5131,0.44537 -0.20997,-0.13229 0.34056,-0.64898 0.0807,-0.79044 -0.486,-0.26459 -0.29256,0.27146 -0.32513,0.2359 -0.18172,-0.19844 0.14628,-0.44305 0.0938,-0.42586 -0.32272,0.10565 -0.36785,0.46943 -0.52996,0.53836 -0.62229,0.26458 -0.19037,-0.56448 -1.00391,1.17586 -1.00391,2.14757 0,1.32625 0.41261,1.85791 1.30358,1.67972 0.61992,-0.12399 0.84775,-0.0249 1.20822,0.52519 0.24433,0.37289 0.36741,0.80228 0.27352,0.9542 -0.0939,0.15192 -0.0971,0.39528 -0.007,0.5408 0.23437,0.37923 0.40407,0.32662 0.2491,-0.0772 z m -2.06189,-0.31265 c -0.0825,-0.21505 0.0531,-0.50806 0.30242,-0.65342 0.39664,-0.23124 0.37909,-0.26452 -0.14328,-0.27158 -0.57878,-0.008 -0.84412,0.71329 -0.41892,1.13848 0.29656,0.29657 0.4174,0.19726 0.25978,-0.21348 z m 16.49716,-0.70947 c 0,-0.12296 -0.11906,-0.22357 -0.26458,-0.22357 -0.14552,0 -0.26459,0.17859 -0.26459,0.39687 0,0.21828 -0.11906,0.39688 -0.26458,0.39688 -0.14552,0 -0.26458,0.13751 -0.26458,0.30559 0,0.1733 0.22908,0.0983 0.52916,-0.1733 0.29105,-0.26339 0.52917,-0.5795 0.52917,-0.70247 z m -79.39359,0.10716 c -0.0162,-0.6352 -0.0456,-0.6604 -0.23148,-0.19844 -0.11708,0.29104 -0.16122,0.61846 -0.0981,0.7276 0.22412,0.38741 0.3479,0.18865 0.32956,-0.52916 z m 2.00297,0.23205 c 0.29619,-0.17666 0.46538,-0.21735 1.10243,-0.26513 0.93805,-0.0703 0.0889,-0.31681 -1.33074,-0.38623 -1.40538,-0.0687 -1.49148,-0.0374 -1.49148,0.54203 0,0.53664 0.0927,0.59281 0.7276,0.44105 0.40018,-0.0956 0.84667,-0.24493 0.99219,-0.33172 z m 7.01069,-0.72586 c 0.98537,-0.89022 1.0591,-1.0557 1.0591,-2.37708 0,-1.22365 -0.11299,-1.53985 -0.81627,-2.28431 -0.44894,-0.47524 -0.72374,-0.68548 -0.61066,-0.4672 0.18275,0.35278 0.15107,0.35278 -0.2851,0 -0.35666,-0.28847 -0.51974,-0.31059 -0.59705,-0.081 -0.0585,0.17373 -0.29679,0.24279 -0.52954,0.15348 -0.30385,-0.1166 -0.36211,-0.0636 -0.20661,0.18803 0.13738,0.22229 0.11381,0.28692 -0.0645,0.17674 -0.15456,-0.0955 -0.55991,-0.0663 -0.90077,0.0649 -0.55506,0.21369 -0.57022,0.25859 -0.14532,0.43008 0.26094,0.10531 0.5445,0.12141 0.63013,0.0358 0.24308,-0.24308 1.67357,1.41343 1.67357,1.93799 0,0.72375 -0.69246,1.13247 -1.71615,1.01296 -0.71148,-0.0831 -0.92831,-0.0123 -0.9238,0.30136 0.0122,0.85326 0.95041,1.64409 2.17616,1.8344 0.10872,0.0169 0.67427,-0.39988 1.25677,-0.92613 z m 52.83359,0.37805 c -0.0845,-0.21107 -0.14716,-0.14837 -0.15985,0.15985 -0.0115,0.27892 0.051,0.43519 0.13896,0.34727 0.0879,-0.0879 0.0973,-0.31612 0.0209,-0.50712 z m -64.47449,-2.40541 c 8.08529,-3.9462 18.28678,-6.86231 27.91354,-7.97912 7.56207,-0.87728 14.61931,-0.75318 22.88646,0.40245 8.47451,1.18463 19.91523,4.58076 26.65972,7.91384 2.9428,1.45431 3.5662,1.67645 3.8653,1.37735 0.29911,-0.29911 0.47703,-0.25306 1.10316,0.28552 l 0.74654,0.64215 0.71038,-2.01182 c 0.39071,-1.10649 0.95646,-2.54759 1.25722,-3.20243 2.24526,-4.88857 2.22501,-4.82573 1.71643,-5.32768 -0.53112,-0.52418 -4.69063,-2.34364 -8.67438,-3.79436 -1.45521,-0.52993 -3.12208,-1.18533 -3.70416,-1.45644 -1.49846,-0.69793 -6.20963,-2.2412 -8.86355,-2.90349 -1.23692,-0.30867 -2.84427,-0.72817 -3.57187,-0.93221 -5.51865,-1.54759 -14.236,-2.72091 -21.76198,-2.92909 -2.93919,-0.0813 -3.50573,-0.0346 -3.50573,0.28877 0,0.21216 0.13157,0.38575 0.29238,0.38575 0.28437,0 0.25631,0.47109 -0.1757,2.94929 l -0.1682,0.96491 1.30147,0.0934 1.30148,0.0934 -0.11908,-2.05052 -0.11909,-2.05052 h 1.09233 c 1.18016,0 1.29813,0.12779 0.71389,0.77337 -0.28665,0.31675 -0.39894,1.44471 -0.46302,4.65104 -0.0707,3.53964 -0.14958,4.23554 -0.48146,4.24911 -0.70164,0.0287 -1.07311,-0.42029 -0.78819,-0.95266 0.14247,-0.2662 0.25902,-1.14666 0.25902,-1.95659 v -1.47261 h -1.35609 -1.3561 l 0.11804,2.24896 c 0.10072,1.91897 0.0571,2.24837 -0.29755,2.24491 -0.84283,-0.008 -0.94475,-0.42166 -0.94475,-3.83241 0,-2.1212 -0.12677,-3.76592 -0.33073,-4.29098 -0.4702,-1.21042 -0.41274,-1.61327 0.24386,-1.70989 0.31602,-0.0465 0.62992,-0.25235 0.69756,-0.45744 0.0906,-0.27487 -0.008,-0.31892 -0.37615,-0.1676 -0.27452,0.11291 -2.02195,0.24666 -3.88319,0.29724 -1.86123,0.0506 -3.82576,0.21463 -4.36562,0.36457 -0.53986,0.14993 -1.67341,0.27327 -2.51899,0.27408 -2.46981,0.002 -10.78044,1.79659 -17.51258,3.78086 -4.10574,1.21015 -12.67037,4.53311 -13.5366,5.25202 -0.48826,0.40522 -3.00331,1.79855 -3.59517,1.9917 -0.64804,0.2115 -0.58747,0.50596 0.42091,2.04639 0.79055,1.20766 3.60826,6.98658 3.97954,8.16172 0.13144,0.41605 0.27021,0.38819 1.41147,-0.28339 0.69613,-0.40964 2.39678,-1.29685 3.77923,-1.97159 z m 78.72829,0.0976 c -0.18226,-0.29491 0.0957,-1.08221 0.38212,-1.08221 0.21307,0 0.52917,0.64512 0.52917,1.07997 0,0.3144 -0.71727,0.31616 -0.91129,0.002 z m -82.23147,-1.46123 c -0.81118,-0.40442 -1.37625,-1.508 -1.17005,-2.28515 0.27562,-1.03881 0.54096,-1.28306 1.47975,-1.36215 0.76532,-0.0645 0.92188,0.0273 1.14173,0.66942 0.29892,0.87302 0.10856,1.18441 -0.44381,0.72599 -0.44377,-0.3683 -0.94402,-0.16558 -0.94402,0.38256 0,0.93209 2.39358,1.60102 3.12208,0.87251 0.49766,-0.49766 0.37375,-1.63743 -0.28415,-2.61369 -0.47539,-0.70543 -0.85008,-0.93519 -1.78553,-1.09489 -2.25756,-0.38539 -3.36696,-1.9292 -2.33192,-3.24504 0.2883,-0.36651 0.7867,-0.66638 1.10756,-0.66638 0.32086,0 0.8557,-0.19073 1.18853,-0.42386 0.33283,-0.23312 0.63074,-0.38195 0.66203,-0.33073 0.38161,0.62481 0.95679,2.17614 0.8474,2.28554 -0.0784,0.0784 -0.44628,0.004 -0.81754,-0.16505 -1.01756,-0.46363 -1.73925,-0.3793 -1.89638,0.2216 -0.0761,0.29105 -0.23982,0.52917 -0.36381,0.52917 -0.12398,0 -0.15688,0.17859 -0.0731,0.39688 0.0838,0.21828 0.25488,0.39687 0.38027,0.39687 0.12538,0 0.15194,-0.19813 0.059,-0.44028 -0.0929,-0.24215 -0.0594,-0.37328 0.0745,-0.29139 0.13387,0.0819 0.75616,0.28642 1.38287,0.45451 2.22164,0.59589 3.89452,2.82146 3.36793,4.48062 -0.4195,1.32173 -3.25154,2.22671 -4.70329,1.50294 z m 78.72889,-0.7593 c -2.38345,-0.89703 -2.87626,-2.53716 -1.21857,-4.05555 l 0.98215,-0.89961 0.58573,0.59934 c 0.88912,0.90978 0.91096,1.6399 0.052,1.73924 -0.50756,0.0587 -0.73328,-0.0525 -0.80532,-0.39688 -0.0881,-0.42124 -0.14049,-0.40515 -0.43805,0.13462 -0.48128,0.87305 0.18129,1.81796 1.44039,2.05417 1.15801,0.21724 1.65165,-0.18703 1.86979,-1.53128 0.12078,-0.74426 0.0328,-1.06448 -0.41567,-1.51296 -0.79665,-0.79665 -1.6052,-2.17919 -1.60637,-2.74675 -0.001,-0.59416 1.53867,-2.03561 2.17464,-2.03561 0.25861,0 0.70563,0.23543 0.99337,0.52317 0.31143,0.31143 0.69867,0.45581 0.95682,0.35676 0.37515,-0.14396 0.39077,-0.0863 0.1158,0.42751 -0.17483,0.32667 -0.24457,0.88598 -0.15498,1.24292 0.0896,0.35694 0.0891,0.76835 -0.001,0.91424 -0.25697,0.41579 -0.91058,-0.26688 -0.91058,-0.95106 0,-0.72037 -0.63612,-1.30772 -1.18726,-1.09623 -0.70654,0.27112 -0.45703,1.49841 0.5258,2.58628 1.13692,1.25844 1.245,2.58702 0.32222,3.96093 -0.68191,1.01528 -1.79106,1.24745 -3.28088,0.68675 z m -71.52875,-1.64849 c -0.3209,-0.38666 -1.65988,-3.28639 -2.56166,-5.54757 -0.23214,-0.58208 -0.64404,-1.30622 -0.91533,-1.60919 -0.48487,-0.54148 -0.48173,-0.55612 0.185,-0.85989 1.03634,-0.47219 1.44711,-0.38277 1.44711,0.31504 0,0.81938 2.02884,6.27886 2.514,6.76503 0.3006,0.30122 0.51271,0.31576 1.0481,0.0718 0.36918,-0.16821 0.67124,-0.46623 0.67124,-0.66226 0,-0.62918 -1.33096,-4.2356 -2.15224,-5.83178 -0.43768,-0.85065 -0.75756,-1.58418 -0.71084,-1.63005 0.0467,-0.0459 0.54865,-0.17003 1.11539,-0.27591 0.75208,-0.14051 0.97931,-0.10979 0.84118,0.11371 -0.10409,0.16842 0.28241,1.76248 0.8589,3.54235 1.61248,4.97843 1.60303,4.82655 0.34057,5.47061 -1.26649,0.64612 -2.21908,0.69518 -2.68142,0.13809 z m 64.93613,-0.90084 c -0.95894,-0.40494 -1.77026,-2.09797 -1.60015,-3.3391 0.34494,-2.51657 2.47444,-5.14409 4.16908,-5.14409 0.69777,0 2.30605,0.56755 2.6828,0.94673 0.1091,0.10981 0.0143,0.3882 -0.2106,0.61865 -0.22493,0.23045 -0.56037,0.64056 -0.74544,0.91136 -0.31183,0.45632 -0.36823,0.4606 -0.77034,0.0585 -0.23863,-0.23863 -0.36705,-0.60802 -0.28538,-0.82086 0.24632,-0.64187 -0.63854,-0.747 -1.53105,-0.18191 -0.98393,0.62298 -2.05295,2.86987 -2.06889,4.34842 -0.0143,1.32727 0.92265,2.01764 2.08491,1.53621 0.78929,-0.32693 1.53135,-1.6083 1.22163,-2.10945 -0.2649,-0.42862 -0.87728,-0.3345 -1.18715,0.18247 -0.26134,0.43599 -0.30068,0.43309 -0.67393,-0.0496 -0.55863,-0.72249 0.0327,-1.57508 1.17091,-1.68821 1.2018,-0.11944 1.60634,0.32996 1.60634,1.78449 0,1.05219 -0.13052,1.36512 -0.86717,2.07911 -0.93329,0.90458 -2.10438,1.24365 -2.99557,0.86733 z m -60.11031,-1.69533 c -0.18084,-0.77782 -0.79829,-2.7076 -1.37212,-4.28839 -0.57383,-1.58079 -1.00981,-2.90768 -0.96884,-2.94864 0.041,-0.041 0.4618,-0.15195 0.93519,-0.24663 0.67584,-0.13516 0.84219,-0.089 0.77446,0.21506 -0.0474,0.21296 0.50905,1.07531 1.23665,1.91633 0.72761,0.84102 1.41813,1.69551 1.53451,1.89886 0.11637,0.20334 0.32167,0.36972 0.45623,0.36972 0.13456,0 -0.11601,-0.98227 -0.55682,-2.18281 -0.4408,-1.20055 -0.86424,-2.37543 -0.94096,-2.61084 -0.10067,-0.3089 0.069,-0.46808 0.60982,-0.57195 0.41212,-0.0792 0.75886,-0.12467 0.77054,-0.10114 0.0117,0.0235 0.5347,1.79895 1.16227,3.94539 0.62757,2.14643 1.2431,3.9026 1.36783,3.9026 0.5369,0 0.16596,0.75165 -0.44683,0.90545 -0.74745,0.1876 -1.17829,0.0202 -1.17878,-0.45804 -1.8e-4,-0.17332 -0.30992,-0.67231 -0.68832,-1.10887 -0.37839,-0.43656 -0.94675,-1.0914 -1.26302,-1.45521 -1.37383,-1.5803 -1.4876,-1.44993 -0.69373,0.795 0.41942,1.18605 0.9015,2.32385 1.07128,2.52843 0.24807,0.29891 0.16976,0.4248 -0.39873,0.64094 -1.04365,0.39679 -1.05409,0.38831 -1.41063,-1.14526 z m 54.14605,0.13813 c -1.18932,-0.59383 -1.23505,-1.27572 -0.32924,-4.90966 0.40339,-1.6183 0.71033,-3.33162 0.68209,-3.80737 -0.0485,-0.81662 -0.0106,-0.8554 0.67651,-0.69344 1.06527,0.25108 1.22278,0.50137 0.76001,1.20765 -0.34163,0.52139 -1.43408,4.16133 -1.94223,6.47134 -0.15308,0.69587 0.2268,0.95823 1.07809,0.74457 0.53208,-0.13354 0.75127,-0.50068 1.22902,-2.05861 0.31979,-1.04285 0.74823,-2.42332 0.9521,-3.0677 0.20385,-0.64439 0.37065,-1.51705 0.37065,-1.93926 0,-0.72683 0.0457,-0.758 0.8599,-0.58645 1.2157,0.25617 1.43219,0.55308 0.80717,1.10707 -0.4964,0.43999 -1.73117,3.52415 -2.42801,6.06459 -0.462,1.68433 -1.33586,2.1564 -2.71606,1.46727 z m -47.96776,-0.65639 c 0.0728,-0.18975 -0.22858,-1.78618 -0.66976,-3.54763 -0.44118,-1.76145 -0.80214,-3.39214 -0.80214,-3.62376 0,-0.23162 -0.22285,-0.64397 -0.49523,-0.91635 -0.48391,-0.48391 -0.46124,-0.50467 0.99219,-0.90886 0.81808,-0.2275 1.68256,-0.48857 1.92109,-0.58015 0.79175,-0.30402 1.99495,1.35522 2.5948,3.57829 1.05594,3.91338 0.68878,5.04945 -1.91325,5.91992 -1.53495,0.5135 -1.7995,0.52626 -1.6277,0.0785 z m 2.42388,-1.5071 c 0.34623,0 0.38643,-0.25361 0.24883,-1.57002 -0.12319,-1.17867 -1.17728,-4.57396 -1.62686,-5.24022 -0.12777,-0.18935 -1.45562,0.64294 -1.45736,0.91347 -0.001,0.17651 0.23774,0.92931 0.53083,1.67289 0.29309,0.74357 0.47094,1.45218 0.39523,1.57469 -0.0757,0.12251 -0.0187,0.26268 0.12661,0.31149 0.22661,0.0761 0.37641,0.76075 0.50319,2.29987 0.0177,0.21457 0.19797,0.29441 0.44809,0.19843 0.23019,-0.0883 0.60434,-0.1606 0.83144,-0.1606 z m 38.63599,0.60424 c -0.75563,-0.11446 -0.89191,-0.32092 -0.49492,-0.74976 0.12798,-0.13824 0.4301,-1.32291 0.67138,-2.6326 0.24129,-1.30969 0.55329,-2.88046 0.69336,-3.4906 0.14006,-0.61014 0.25465,-1.41382 0.25465,-1.78594 0,-0.75014 0.13619,-0.77961 1.85209,-0.4008 2.17039,0.47914 2.45524,0.73668 2.30351,2.08276 -0.0768,0.6816 -0.32378,1.32056 -0.58391,1.51077 -0.4157,0.30396 -0.41779,0.37673 -0.0269,0.93486 0.60032,0.85707 0.527,1.88917 -0.24199,3.4067 l -0.66592,1.31412 -1.51689,-0.0396 c -0.8343,-0.0218 -1.84432,-0.0892 -2.2445,-0.14987 z m 3.46521,-1.72872 c 0.524,-1.0996 0.52742,-2.41105 0.007,-2.73262 -0.12914,-0.0798 -0.62094,0.12152 -1.09289,0.4474 -0.47195,0.32588 -0.89159,0.61495 -0.93253,0.64239 -0.041,0.0274 -0.11907,0.27435 -0.17362,0.5487 -0.0545,0.27435 -0.18009,0.81554 -0.279,1.20265 -0.14097,0.55174 -0.0749,0.73092 0.3059,0.8292 1.3024,0.33617 1.62443,0.19669 2.16502,-0.93772 z m 0.74275,-5.09617 c 0.15448,-0.48748 -0.34598,-0.94342 -1.09713,-0.99953 -0.68795,-0.0514 -0.77582,0.0501 -1.09741,1.26706 -0.19226,0.7276 -0.35187,1.42336 -0.35468,1.54612 -0.006,0.28031 2.4364,-1.45763 2.54922,-1.81365 z m -39.86335,5.75763 c -0.004,-1.34494 -1.20394,-7.14796 -1.56941,-7.58832 -0.39262,-0.47309 0.0665,-0.63464 2.42739,-0.85406 1.6337,-0.15183 1.91417,-0.11211 2.22676,0.31537 0.47062,0.64361 0.45434,1.71963 -0.0366,2.42057 -0.34874,0.4979 -0.34893,0.64975 -0.002,1.31564 0.21594,0.41403 0.39335,0.95986 0.39425,1.21296 7.9e-4,0.2531 0.23534,1.07528 0.521,1.82706 0.28565,0.75178 0.45722,1.46743 0.38126,1.59034 -0.38663,0.62557 -0.89177,0.007 -1.6717,-2.04588 -0.83628,-2.20158 -0.87714,-2.25565 -1.36839,-1.81107 -0.60555,0.54802 -0.6212,0.8766 -0.13161,2.76403 0.3948,1.52199 0.27568,1.83291 -0.70549,1.8415 -0.35889,0.003 -0.46365,-0.21909 -0.4658,-0.98814 z m 1.42659,-5.47245 c 0.38107,-0.49961 0.69286,-1.21938 0.69286,-1.59949 0,-0.65404 -0.0532,-0.6815 -0.99219,-0.51207 -1.35019,0.24363 -1.40552,0.29637 -1.11437,1.06217 0.13996,0.36812 0.25448,0.95922 0.25448,1.31355 0,0.88536 0.34186,0.80746 1.15922,-0.26416 z m 31.43044,6.01068 c -0.4539,-0.0865 -0.56745,-0.23337 -0.43242,-0.55928 0.30486,-0.73578 0.58477,-2.20657 0.73871,-3.88155 l 0.14589,-1.5875 -0.62539,1.29461 c -0.56737,1.1745 -1.04499,1.73299 -1.49151,1.74405 -0.09,0.002 -0.23804,-0.44244 -0.32902,-0.98814 -0.27888,-1.6727 -0.63549,-3.12969 -0.66758,-2.72748 -0.0168,0.20975 -0.16672,1.72574 -0.33331,3.36886 l -0.30287,2.9875 -0.68932,-0.16494 c -0.37911,-0.0907 -0.72109,-0.1899 -0.75993,-0.2204 -0.0389,-0.0305 0.0433,-0.63883 0.18264,-1.35184 0.77053,-3.94394 1.10804,-6.5132 0.95008,-7.23237 -0.17638,-0.80307 -0.16751,-0.81089 0.91909,-0.81089 0.98709,0 1.07984,0.0546 0.92436,0.54452 -0.1501,0.47293 0.16541,2.48286 0.57905,3.68881 0.0833,0.24272 0.52104,-0.37389 1.1271,-1.5875 l 0.99098,-1.98437 1.03244,0.0855 c 0.56785,0.047 1.06983,0.1229 1.11553,0.1686 0.0457,0.0457 -0.16102,0.48346 -0.45935,0.97282 -0.29835,0.48935 -0.54289,1.14265 -0.54343,1.45178 -5.3e-4,0.30913 -0.18523,1.08303 -0.41041,1.71979 -0.22517,0.63676 -0.48095,2.08048 -0.56838,3.20827 -0.0874,1.12778 -0.23061,2.0343 -0.31819,2.01449 -0.0876,-0.0198 -0.43621,-0.0888 -0.77476,-0.15335 z m -25.7105,-1.6606 c 0,-0.60025 -0.12881,-1.92158 -0.28625,-2.93629 -0.24221,-1.56111 -0.42537,-1.98005 -1.19062,-2.72325 -0.49741,-0.48307 -0.90438,-0.97222 -0.90438,-1.087 0,-0.11478 -0.19678,-0.35258 -0.4373,-0.52845 -0.63223,-0.4623 -0.20523,-0.9292 0.84979,-0.9292 0.69801,0 0.91043,0.11036 0.91043,0.47302 0,0.26015 0.33419,0.87332 0.74265,1.36259 l 0.74265,0.88958 0.50409,-1.29645 c 0.27724,-0.71305 0.47825,-1.42508 0.44668,-1.58231 -0.0316,-0.15722 0.47895,-0.40859 1.13451,-0.5586 0.65556,-0.15001 1.19147,-0.19997 1.19093,-0.11102 -5.3e-4,0.089 -0.21743,0.51892 -0.48197,0.95548 -2.01613,3.32717 -2.15714,3.73887 -2.01784,5.89174 0.0728,1.12517 0.15925,2.28389 0.1921,2.57493 0.0451,0.39905 -0.11917,0.54975 -0.66786,0.61288 -0.68969,0.0794 -0.72761,0.0268 -0.72761,-1.00765 z m 16.72964,0.80619 c -0.62136,-0.1011 -1.27565,-0.32973 -1.45399,-0.50807 -0.34547,-0.34547 -0.36652,-4.12599 -0.042,-7.54446 0.12422,-1.30859 0.0899,-1.76905 -0.12209,-1.63804 -0.16218,0.10024 -0.29488,0.0562 -0.29488,-0.0979 0,-0.46415 1.84685,-0.33711 2.02979,0.13963 0.0886,0.2309 -0.0351,1.68942 -0.27489,3.24114 -0.23979,1.55173 -0.40532,3.34879 -0.36784,3.99346 0.0613,1.05366 0.14773,1.19335 0.85555,1.38217 0.43308,0.11553 0.87885,0.11861 0.99061,0.007 0.11177,-0.11177 0.33701,-2.10296 0.50054,-4.42489 0.16354,-2.32192 0.32382,-4.25227 0.3562,-4.28966 0.0324,-0.0374 0.43697,0.008 0.89911,0.10007 0.66166,0.13233 0.7781,0.24293 0.54785,0.52037 -0.16082,0.19377 -0.40274,1.69655 -0.5376,3.33951 -0.38827,4.73014 -0.77326,6.09367 -1.69203,5.99274 -0.14552,-0.016 -0.77296,-0.11178 -1.39432,-0.21287 z m 19.70541,9.97656 c -0.0633,-0.32912 -0.11747,-0.12215 -0.12041,0.45993 -0.003,0.58209 0.0488,0.85137 0.11507,0.5984 0.0662,-0.25296 0.0686,-0.72921 0.005,-1.05833 z m 7.22295,1.09864 c 0.50836,-0.15803 2.23398,-0.36639 3.83471,-0.46302 l 2.91042,-0.17569 -2.38125,-1.03102 c -1.58306,-0.68542 -2.91338,-1.07127 -3.96875,-1.15109 l -1.5875,-0.12007 v 1.61412 c 0,0.88776 0.0603,1.61411 0.13403,1.61411 0.0737,0 0.54997,-0.1293 1.05834,-0.28734 z m -0.7955,-1.01997 c 0,-0.13693 0.11906,-0.32255 0.26458,-0.41248 0.14552,-0.0899 0.26459,0.0221 0.26459,0.24896 0,0.22687 -0.11907,0.41249 -0.26459,0.41249 -0.14552,0 -0.26458,-0.11203 -0.26458,-0.24897 z m 1.05833,-0.1479 c 0,-0.21828 0.0468,-0.39688 0.10399,-0.39688 0.0572,0 0.17251,0.1786 0.25628,0.39688 0.0838,0.21828 0.037,0.39687 -0.10399,0.39687 -0.14095,0 -0.25628,-0.17859 -0.25628,-0.39687 z m 0.79375,-0.14791 c 0,-0.15411 0.11907,-0.20661 0.26459,-0.11667 0.14552,0.0899 0.26458,0.21602 0.26458,0.28019 0,0.0642 -0.11906,0.11668 -0.26458,0.11668 -0.14552,0 -0.26459,-0.12609 -0.26459,-0.2802 z m -64.70192,0.82765 c 0.0837,-0.13547 0.0312,-0.32109 -0.11667,-0.41249 -0.1479,-0.0914 -0.26708,-0.36752 -0.26485,-0.6136 0.003,-0.38557 0.0395,-0.39255 0.26053,-0.0505 0.20447,0.3164 0.2573,0.26697 0.26053,-0.24375 0.002,-0.35234 0.2011,-0.85836 0.44193,-1.12448 0.41879,-0.46275 0.3789,-0.48385 -0.91473,-0.48385 -1.02734,0 -2.03931,0.29762 -4.20819,1.23764 -1.57057,0.6807 -2.97464,1.34887 -3.12017,1.48483 -0.16473,0.1539 0.38441,0.1875 1.45521,0.089 1.34716,-0.12389 4.45672,0.0496 5.87137,0.32758 0.10055,0.0198 0.25132,-0.0749 0.33504,-0.21037 z m -3.75901,-0.72268 c -0.46069,-0.18589 -0.41442,-0.61852 0.0661,-0.61852 0.21829,0 0.39688,0.17859 0.39688,0.39688 0,0.21828 -0.0298,0.38747 -0.0661,0.37598 -0.0364,-0.0115 -0.21497,-0.0809 -0.39687,-0.15434 z m 1.54224,-0.24369 c 0.0127,-0.30823 0.0754,-0.37092 0.15985,-0.15986 0.0764,0.191 0.067,0.4192 -0.0209,0.50712 -0.0879,0.0879 -0.15045,-0.0684 -0.13896,-0.34726 z m 0.52917,0 c 0.0127,-0.30823 0.0754,-0.37092 0.15985,-0.15986 0.0764,0.191 0.067,0.4192 -0.0209,0.50712 -0.0879,0.0879 -0.15045,-0.0684 -0.13896,-0.34726 z m 0.79375,0 c 0.0127,-0.30823 0.0754,-0.37092 0.15985,-0.15986 0.0764,0.191 0.067,0.4192 -0.0209,0.50712 -0.0879,0.0879 -0.15045,-0.0684 -0.13896,-0.34726 z m 55.94748,-1.23713 c -0.0443,-0.76266 -0.0942,-1.89267 -0.11091,-2.51114 -0.0445,-1.64632 -0.55955,-1.37587 -0.55955,0.2938 0,1.9141 0.28747,3.89048 0.54292,3.7326 0.11444,-0.0707 0.17184,-0.7526 0.12754,-1.51526 z m -52.31195,0.53157 c -0.0661,-0.46559 -0.25672,-0.59531 -0.87467,-0.59531 -1.08437,0 -1.26776,0.84176 -0.21779,0.9996 0.40883,0.0614 0.84091,0.12958 0.96017,0.15138 0.11926,0.0218 0.17879,-0.22825 0.13229,-0.55567 z m 59.01637,0.1724 c 0.0543,-0.0459 0.0254,-0.27476 -0.0643,-0.50862 -0.26147,-0.68138 -1.86381,-0.41916 -1.96931,0.32228 -0.0759,0.5335 2.7e-4,0.56854 0.92604,0.42557 0.55482,-0.0857 1.05324,-0.19334 1.1076,-0.23923 z m -7.89217,-4.43355 c -0.19222,-0.19222 -0.27769,-0.0386 -0.28051,0.50407 -0.003,0.6012 -0.063,0.68934 -0.26053,0.38364 -0.1855,-0.28704 -0.2576,-0.0491 -0.26053,0.8599 -0.005,1.47256 0.14401,1.58877 0.50801,0.39687 l 0.26262,-0.85989 -0.0289,0.92604 c -0.0159,0.50932 0.0123,1.2237 0.0628,1.5875 0.0504,0.3638 0.13262,-0.27975 0.18262,-1.43011 0.0533,-1.22734 -0.0233,-2.2058 -0.18553,-2.36802 z m -45.11438,1.56919 c 0.18151,-1.45279 0.0252,-2.13851 -0.42411,-1.8608 -0.32107,0.19843 -0.32178,3.29599 -7.5e-4,3.29599 0.13505,0 0.32623,-0.64584 0.42486,-1.43519 z m 54.4341,1.26164 c -0.17913,-0.0725 -0.53631,-0.0769 -0.79375,-0.01 -0.25743,0.0671 -0.11086,0.12638 0.3257,0.13177 0.43656,0.005 0.64719,-0.0495 0.46805,-0.12197 z m -6.23782,-1.60735 c -0.0671,-0.25743 -0.12638,-0.11087 -0.13178,0.32569 -0.005,0.43656 0.0495,0.64719 0.12197,0.46806 0.0725,-0.17913 0.0769,-0.53632 0.01,-0.79375 z m -51.24794,-0.1241 c 0,-0.61545 -0.0794,-0.76723 -0.29086,-0.5558 -0.15998,0.15998 -0.21149,0.54098 -0.11447,0.84667 0.25263,0.79596 0.40533,0.68639 0.40533,-0.29087 z m 45.2618,-1.88695 c -0.34378,-0.34378 -0.37239,0.14689 -0.0842,1.44377 l 0.19843,0.89297 0.0842,-1.02705 c 0.0463,-0.56488 -0.043,-1.15424 -0.19844,-1.30969 z m 7.1257,2.08777 c 0,-0.0642 -0.11906,-0.19026 -0.26458,-0.28019 -0.14552,-0.0899 -0.26459,-0.0374 -0.26459,0.11667 0,0.15411 0.11907,0.2802 0.26459,0.2802 0.14552,0 0.26458,-0.0525 0.26458,-0.11668 z m -46.46268,-0.56642 c 0.28956,-0.7546 0.17372,-1.69815 -0.20848,-1.69815 -0.23739,0 -0.4051,0.37763 -0.47002,1.05833 -0.10234,1.07312 0.34893,1.49866 0.6785,0.63982 z m 0.95435,-1.05231 c 0,-0.50073 -0.11906,-0.91042 -0.26458,-0.91042 -0.14553,0 -0.26459,0.48327 -0.26459,1.07394 0,0.6486 0.1048,1.00919 0.26459,0.91043 0.14552,-0.0899 0.26458,-0.57321 0.26458,-1.07395 z m 37.54581,0.13244 c -0.20525,-0.12685 -0.51163,-0.0881 -0.72883,0.0921 -0.31191,0.25886 -0.26905,0.3368 0.25571,0.46499 0.6996,0.1709 1.0271,-0.21476 0.47312,-0.55714 z m -36.75206,-0.39702 c 0,-0.5604 -0.10713,-0.87545 -0.26458,-0.77813 -0.14553,0.0899 -0.26459,0.51368 -0.26459,0.94165 0,0.42798 0.11906,0.77814 0.26459,0.77814 0.14552,0 0.26458,-0.42375 0.26458,-0.94166 z m 36.26983,-0.057 c 0.92856,0.13628 1.03516,-0.20078 0.13496,-0.42672 -0.35029,-0.0879 -0.82654,-0.23262 -1.05834,-0.32157 -0.46363,-0.17792 -0.57722,0.52486 -0.2254,1.3946 0.17297,0.42762 0.20669,0.41144 0.28649,-0.13747 0.076,-0.5227 0.21381,-0.60402 0.86229,-0.50884 z m -35.02603,-0.4293 c -0.22927,-0.6878 -0.71402,-0.40381 -0.70622,0.41374 0.008,0.83649 0.0286,0.85522 0.40044,0.36348 0.21562,-0.28516 0.35322,-0.63491 0.30578,-0.77722 z m 32.64561,0.66197 c 0.18952,0.2993 0.2345,0.28563 0.23779,-0.0722 0.007,-0.77729 -0.30381,-1.27841 -0.79324,-1.27841 -0.47062,0 -0.48928,0.46088 -0.0643,1.5875 0.11898,0.3154 0.17396,0.29394 0.26785,-0.10455 0.0948,-0.40227 0.16436,-0.42843 0.35188,-0.13229 z m -31.77274,-0.70482 c 0,-0.38401 -0.15358,-0.64584 -0.37883,-0.64584 -0.32428,0 -0.38593,0.56211 -0.16857,1.53697 0.01,0.045 0.13729,0.008 0.28281,-0.0818 0.14552,-0.0899 0.26459,-0.45415 0.26459,-0.80937 z m 1.02343,-0.006 c 0.1043,0.0645 0.20222,-0.14244 0.21759,-0.45978 0.0154,-0.31734 -0.0339,-0.41468 -0.10939,-0.21632 -0.11402,0.29939 -0.17445,0.30065 -0.35568,0.007 -0.3109,-0.50306 -0.6358,0.40217 -0.36644,1.02098 0.1915,0.43994 0.20709,0.43978 0.31291,-0.003 0.0613,-0.25644 0.19671,-0.41352 0.30101,-0.34906 z m 27.0224,-0.24301 c 0,-0.50933 -0.11906,-0.92605 -0.26459,-0.92605 -0.29339,0 -0.36691,1.39698 -0.0882,1.6757 0.30452,0.30452 0.35278,0.20197 0.35278,-0.74965 z m 0.79375,-0.0529 c 0,-0.72607 -0.077,-0.90195 -0.29813,-0.68083 -0.16841,0.16841 -0.22378,0.59437 -0.12725,0.97896 0.24333,0.96951 0.42538,0.84192 0.42538,-0.29813 z m 0.79375,0.18521 c 0,-0.43657 -0.11906,-0.79375 -0.26459,-0.79375 -0.14552,0 -0.26458,0.35718 -0.26458,0.79375 0,0.43656 0.11906,0.79375 0.26458,0.79375 0.14553,0 0.26459,-0.35719 0.26459,-0.79375 z m 0.97449,0.21497 c -0.0845,-0.21107 -0.14716,-0.14837 -0.15985,0.15985 -0.0115,0.27892 0.051,0.43519 0.13896,0.34727 0.0879,-0.0879 0.0973,-0.31612 0.0209,-0.50712 z m -26.99301,-0.5457 c -0.0734,-0.1819 -0.13346,-0.0331 -0.13346,0.33073 0,0.3638 0.0601,0.51263 0.13346,0.33073 0.0734,-0.18191 0.0734,-0.47956 0,-0.66146 z m 23.63727,-0.17379 c 0,-0.63845 -0.10695,-0.74091 -0.79375,-0.76044 -0.70666,-0.0201 -0.79375,0.0626 -0.79375,0.75349 0,0.52826 0.13241,0.77605 0.4147,0.77605 0.30245,0 0.3664,-0.15221 0.23624,-0.5623 -0.1201,-0.37839 -0.0827,-0.50309 0.11446,-0.38126 0.16111,0.0996 0.29293,0.41916 0.29293,0.71021 0,0.29104 0.11906,0.45558 0.26458,0.36564 0.14553,-0.0899 0.26459,-0.49556 0.26459,-0.90139 z m -16.14364,-0.61996 c 0.005,-0.84505 -0.41223,-0.9709 -0.6574,-0.19844 -0.23468,0.73939 0.10761,1.78773 0.42175,1.29173 0.12738,-0.20113 0.23343,-0.69311 0.23565,-1.09329 z m 2.59896,0.11173 c 0.048,-0.65086 -0.0335,-1.10392 -0.19844,-1.10392 -0.15389,0 -0.2798,0.34745 -0.2798,0.77211 0,0.42466 -0.0785,0.97669 -0.17445,1.22673 -0.12243,0.31905 -0.0633,0.41799 0.19844,0.3318 0.22191,-0.0731 0.40583,-0.56977 0.45425,-1.22672 z m 1.06285,0.37468 c 0.0472,-0.40125 0.0111,-0.92452 -0.0804,-1.16281 -0.24874,-0.64819 -0.65777,0.10928 -0.66291,1.22761 -0.005,1.07922 0.61498,1.02517 0.74329,-0.0648 z m 0.62093,-0.15568 c 0.0555,-0.58209 0.008,-1.05834 -0.1045,-1.05834 -0.11299,0 -0.20543,0.47625 -0.20543,1.05834 0,0.58208 0.047,1.05833 0.10449,1.05833 0.0575,0 0.14993,-0.47625 0.20544,-1.05833 z m 0.77477,0.19843 c 0.025,-0.81472 0.0375,-0.82514 0.23821,-0.19843 0.11651,0.3638 0.22553,0.54239 0.24226,0.39687 0.0168,-0.14552 0.12244,-0.11977 0.23491,0.0572 0.15861,0.24961 0.36296,0.23958 0.91095,-0.0447 0.64143,-0.33278 0.72138,-0.3196 0.86824,0.14313 0.13639,0.42973 0.35598,0.49279 1.4001,0.40212 0.68108,-0.0592 1.2681,-0.13443 1.30448,-0.16727 0.0364,-0.0328 0.21497,-0.0746 0.39687,-0.0928 0.18191,-0.0182 0.33073,-0.2712 0.33073,-0.56224 0,-0.72607 -1.44474,-0.93749 -1.47609,-0.21601 -0.015,0.34459 -0.0627,0.37481 -0.1687,0.10679 -0.0813,-0.20559 0.058,-0.52429 0.30951,-0.70821 0.38303,-0.28008 0.0587,-0.3483 -1.99636,-0.41995 -2.72893,-0.0951 -3.15065,0.0907 -3.15065,1.38857 0,1.06451 0.52274,0.98449 0.55554,-0.085 z m 3.19354,-0.11451 c -0.16958,-0.31688 -0.57649,-0.62777 -0.90423,-0.69087 -0.54178,-0.10432 -0.54643,-0.11801 -0.0511,-0.15077 0.71865,-0.0475 1.54488,0.57428 1.38808,1.04467 -0.0911,0.27336 -0.20679,0.21909 -0.4327,-0.20303 z m -2.16158,-0.0527 c 0,-0.14552 0.11906,-0.33817 0.26458,-0.42811 0.14553,-0.0899 0.26459,-0.0445 0.26459,0.10106 0,0.14552 -0.11906,0.33817 -0.26459,0.42811 -0.14552,0.0899 -0.26458,0.0445 -0.26458,-0.10106 z m 8.20208,0.0854 c 0,-0.39769 -0.15249,-0.64584 -0.39687,-0.64584 -0.43739,0 -0.46468,0.11692 -0.23089,0.98921 0.2004,0.7477 0.62776,0.51394 0.62776,-0.34337 z m 4.67866,0.36288 c -0.0845,-0.21106 -0.14716,-0.14837 -0.15985,0.15986 -0.0115,0.27891 0.051,0.43518 0.13896,0.34726 0.0879,-0.0879 0.0973,-0.31612 0.0209,-0.50712 z m -18.1724,-0.80385 c 0,-0.99944 -0.13205,-0.89849 -0.35489,0.2713 -0.10392,0.54551 -0.0685,0.81263 0.0943,0.71199 0.14333,-0.0886 0.2606,-0.53106 0.2606,-0.98329 z m 0.89773,0.69953 c 0.2375,-0.61893 0.19486,-1.43357 -0.075,-1.43357 -0.1296,0 -0.28428,0.41672 -0.34374,0.92604 -0.11124,0.9528 0.13391,1.24989 0.41878,0.50753 z m 10.47935,-0.37523 c 0,-0.50883 -0.1347,-0.79375 -0.37524,-0.79375 -0.20638,0 -0.59333,-0.0742 -0.85989,-0.16485 -0.34375,-0.11692 -0.30496,-0.031 0.13341,0.29553 0.39551,0.2946 0.57117,0.63979 0.48779,0.9586 -0.082,0.31349 0.008,0.49822 0.24182,0.49822 0.23706,0 0.37211,-0.28807 0.37211,-0.79375 z m 0.44697,-0.46302 c -0.0666,-0.25467 -0.12101,-0.0463 -0.12101,0.46302 0,0.50932 0.0545,0.71768 0.12101,0.46302 0.0665,-0.25466 0.0665,-0.67138 0,-0.92604 z m -14.70415,0.58869 c -0.0123,-0.34013 -1.08865,-0.50437 -1.08865,-0.16612 0,0.27867 0.51877,0.55866 0.87973,0.4748 0.12006,-0.0279 0.21407,-0.16679 0.20892,-0.30868 z m -41.99509,-2.39627 c 0.0883,-0.23018 0.1606,-1.143 0.1606,-2.02847 0,-1.98437 0.23345,-1.86073 0.43488,0.23031 0.20905,2.17018 0.35887,2.11988 0.35887,-0.12048 0,-1.08773 -0.1128,-1.89618 -0.26458,-1.89618 -0.14552,0 -0.26276,-0.20836 -0.26053,-0.46302 0.003,-0.38835 0.0437,-0.40025 0.2502,-0.0738 0.13538,0.21407 0.31495,0.32041 0.39905,0.23631 0.24975,-0.24975 -0.15191,-1.0224 -0.53149,-1.0224 -0.42606,0 -0.72297,-0.82745 -0.50279,-1.40122 0.0881,-0.2296 0.32893,-0.3527 0.53516,-0.27355 0.27983,0.10738 0.38573,-0.11507 0.41733,-0.87661 0.0405,-0.97707 0.0469,-0.9839 0.14905,-0.1606 0.13336,1.07465 0.85314,1.18065 0.89824,0.1323 l 0.0313,-0.72761 0.16714,0.72031 c 0.25661,1.10591 0.77912,0.52871 0.8962,-0.99001 l 0.10159,-1.3178 0.0477,1.41111 c 0.0568,1.67954 0.61819,1.78002 0.87004,0.15571 l 0.16089,-1.03765 0.0375,1.01423 c 0.0493,1.33164 0.64179,1.16547 0.8599,-0.24116 l 0.16089,-1.03766 0.046,1.05834 c 0.0431,0.99218 0.0703,1.02612 0.43566,0.54304 0.21434,-0.2834 0.32159,-0.72989 0.23834,-0.99218 -0.0832,-0.2623 -0.0243,-0.4769 0.13105,-0.4769 0.15533,0 0.28241,0.30757 0.28241,0.6835 0,0.86287 0.61887,0.7218 0.768,-0.17506 l 0.10654,-0.64074 0.1884,0.66146 0.1884,0.66146 0.2836,-0.66146 c 0.18458,-0.43049 0.28946,-0.50847 0.30038,-0.22333 0.0142,0.37168 0.11677,0.39175 0.67616,0.13229 0.36267,-0.16821 0.66032,-0.37862 0.66146,-0.46758 0.001,-0.089 0.28576,-0.10751 0.63251,-0.0412 0.34674,0.0663 0.71096,-0.01 0.80936,-0.16898 0.12761,-0.20648 -1.60858,-0.2895 -6.0544,-0.2895 -5.75467,0 -6.23442,0.0356 -6.24761,0.46302 -0.14319,4.64094 -0.0662,9.87731 0.14658,9.967 0.54026,0.22775 0.87382,0.14186 1.03002,-0.2652 z m -0.73326,-0.83826 c 0.2492,-1.03875 0.3647,-1.07366 0.3647,-0.11024 0,0.46082 -0.12133,0.83785 -0.26963,0.83785 -0.16006,0 -0.19869,-0.29566 -0.0951,-0.72761 z m 0.0405,-2.51354 c -0.0609,-0.76398 -0.0128,-1.50217 0.10676,-1.64042 0.1196,-0.13824 0.21746,0.48684 0.21746,1.38907 0,2.00358 -0.17383,2.13835 -0.32422,0.25135 z m 0.10141,-2.84427 c 0,-0.3638 0.06,-0.51263 0.13345,-0.33073 0.0734,0.1819 0.0734,0.47956 0,0.66146 -0.0734,0.1819 -0.13345,0.0331 -0.13345,-0.33073 z m 0.81336,-2.38125 c 0,-0.50932 0.0545,-0.71768 0.121,-0.46302 0.0666,0.25466 0.0666,0.67138 0,0.92604 -0.0666,0.25466 -0.121,0.0463 -0.121,-0.46302 z m 1.83247,-0.52917 c 0,-0.3638 0.0601,-0.51263 0.13346,-0.33073 0.0734,0.18191 0.0734,0.47956 0,0.66146 -0.0734,0.1819 -0.13346,0.0331 -0.13346,-0.33073 z m 95.57293,7.13988 c -0.16031,-1.92214 -0.22625,-2.13093 -0.53826,-1.70423 -0.19557,0.26745 -0.25453,0.55283 -0.13103,0.63417 0.1235,0.0813 0.22271,0.372 0.22047,0.64592 -0.004,0.46062 -0.0287,0.4644 -0.33146,0.0503 -0.3649,-0.49903 -0.5544,-0.31705 -0.74091,0.71145 -0.12956,0.7145 0.39818,1.42659 0.85023,1.14722 0.13535,-0.0837 0.31444,0.10925 0.39797,0.42868 0.31037,1.18686 0.44995,0.20846 0.27299,-1.91352 z m -0.87298,0.64328 c 0.0127,-0.30822 0.0754,-0.37092 0.15985,-0.15985 0.0764,0.191 0.067,0.4192 -0.0209,0.50712 -0.0879,0.0879 -0.15045,-0.0683 -0.13896,-0.34727 z m -94.97561,0.0726 c 0.0237,-0.44762 0.0583,-0.4742 0.15169,-0.11667 0.13556,0.51875 0.30833,0.563 0.85271,0.21839 0.31584,-0.19993 0.3056,-0.30456 -0.0662,-0.6763 -0.24188,-0.24188 -0.44815,-0.63964 -0.45838,-0.88391 -0.015,-0.35818 -0.0626,-0.34172 -0.24598,0.085 -0.19168,0.44605 -0.23031,0.39656 -0.24599,-0.31512 -0.0102,-0.46435 -0.13766,-0.91786 -0.28318,-1.0078 -0.16692,-0.10317 -0.26458,0.53162 -0.26458,1.71979 0,1.18817 0.0977,1.82296 0.26458,1.71979 0.14552,-0.0899 0.27839,-0.42438 0.29528,-0.74322 z m 4.05158,-2.07349 c 1.09267,-0.74883 1.92582,-1.45997 1.85144,-1.58031 -0.22435,-0.36302 -1.96381,-0.7247 -4.41236,-0.91746 -2.65169,-0.20874 -2.90502,0.0209 -1.50282,1.36238 0.44675,0.4274 1.05178,1.16405 1.34449,1.637 0.29272,0.47294 0.5773,0.85989 0.6324,0.85989 0.0551,0 0.99418,-0.61268 2.08685,-1.3615 z m 89.79077,0.60902 c 0.14427,-0.41387 0.64802,-1.19177 1.11943,-1.72868 0.47141,-0.5369 0.78885,-1.04445 0.70543,-1.12787 -0.15913,-0.15913 -5.65117,0.57977 -6.37565,0.85778 -0.61888,0.23748 -0.29756,0.55635 1.4491,1.43807 0.86252,0.4354 1.56822,0.90898 1.56822,1.05241 0,0.14342 0.28601,0.26077 0.63558,0.26077 0.46057,0 0.7078,-0.20719 0.89789,-0.75248 z m -3.46213,0.32313 c -0.0906,-0.0906 -1.22443,-0.89429 -2.51957,-1.78594 -4.83539,-3.32893 -7.67617,-5.45835 -8.34983,-6.25895 l -0.69407,-0.82486 -0.2654,0.69803 c -0.14596,0.38391 -0.26538,0.82505 -0.26538,0.9803 0,0.15525 -0.25171,0.68954 -0.55935,1.18731 -0.30764,0.49778 -0.516,0.94274 -0.46302,0.98881 0.053,0.0461 1.40601,0.53381 3.00674,1.08388 2.95798,1.01646 8.72764,3.30794 9.58381,3.80631 0.53612,0.31207 0.76824,0.36727 0.52607,0.12511 z m -79.69529,-3.06889 c 1.16416,-0.44844 2.15412,-0.90967 2.1999,-1.02494 0.0458,-0.11527 0.2434,-0.14813 0.43914,-0.073 0.19575,0.0751 0.69407,-0.0347 1.10739,-0.24408 0.41332,-0.20937 1.19797,-0.4615 1.74367,-0.5603 0.5457,-0.0988 0.99164,-0.26355 0.99096,-0.36609 -0.004,-0.63968 -1.36546,-3.34777 -1.64714,-3.27684 -0.1848,0.0465 -0.69319,0.41673 -1.12976,0.82267 -1.04698,0.97352 -5.13011,4.12517 -7.20989,5.56511 -0.90951,0.6297 -1.65365,1.18568 -1.65365,1.23552 0,0.0498 0.68461,-0.21387 1.52136,-0.58603 0.83674,-0.37216 2.47385,-1.04356 3.63802,-1.492 z m 79.77187,-0.22851 c 3.2173,-0.54028 3.06096,-0.48361 2.47193,-0.89618 -0.28302,-0.19823 -0.98475,-0.44487 -1.5594,-0.54809 -1.99762,-0.3588 -7.05436,-1.99359 -8.63558,-2.79178 -0.875,-0.4417 -1.63946,-0.75455 -1.69879,-0.69521 -0.18237,0.18236 2.83845,2.65502 4.72549,3.86801 0.98226,0.63139 1.78593,1.26696 1.78593,1.41236 0,0.14586 0.26685,0.1916 0.59532,0.10203 0.32742,-0.0893 1.36921,-0.2923 2.3151,-0.45114 z m -81.58095,-0.97967 c 0.84947,-0.69676 1.79719,-1.4409 2.10604,-1.65365 1.46469,-1.00892 3.56995,-2.6935 3.47935,-2.7841 -0.10499,-0.10499 -3.24768,1.05167 -5.09923,1.87676 -0.58208,0.25939 -2.26101,0.89934 -3.73096,1.42212 -1.46995,0.52278 -2.71609,1.06956 -2.7692,1.21509 -0.0531,0.14552 0.55425,0.34626 1.34971,0.4461 0.79546,0.0998 1.74394,0.30066 2.10774,0.44625 0.9535,0.38161 0.87352,0.41191 2.55655,-0.96857 z m 84.10738,-1.64442 0.0129,-1.05749 h -2.08282 c -1.80201,0 -2.07128,0.0595 -1.99726,0.4411 0.11212,0.57813 0.747,0.78415 0.747,0.24241 0,-0.23041 0.11906,-0.41893 0.26458,-0.41893 0.14552,0 0.26459,0.23813 0.26459,0.52917 0,0.30964 0.17639,0.52917 0.42518,0.52917 0.26511,0 0.36907,-0.14622 0.27614,-0.38841 -0.082,-0.21362 -0.0352,-0.45877 0.10398,-0.54478 0.13917,-0.086 0.25303,0.13557 0.25303,0.49239 0,0.35682 0.18638,0.72029 0.41418,0.8077 0.30343,0.11644 0.37579,0.0356 0.27062,-0.30242 -0.079,-0.25375 -0.029,-0.63995 0.11094,-0.85823 0.19397,-0.30249 0.25546,-0.20287 0.25854,0.41892 0.004,0.77836 0.17511,1.16956 0.51117,1.16774 0.0849,-4.5e-4 0.16014,-0.47671 0.16723,-1.05834 z m -16.28071,-0.3455 c 0.003,-0.64243 0.0654,-0.7494 0.26053,-0.44741 0.21919,0.33917 0.25707,0.32955 0.26053,-0.0661 0.003,-0.40018 -0.26529,-0.46302 -1.98032,-0.46302 -1.94028,0 -1.98438,0.0147 -1.98438,0.66146 0,0.69192 0.38888,0.89986 0.61853,0.33072 0.0797,-0.19757 0.14186,-0.14431 0.15434,0.1323 0.0328,0.72744 0.55005,0.54084 0.55005,-0.19844 0,-0.3638 0.11171,-0.66146 0.24825,-0.66146 0.13654,0 0.22583,0.31442 0.19844,0.69871 -0.0274,0.38429 0.099,0.7514 0.28091,0.8158 0.2184,0.0773 0.33073,-0.16001 0.33073,-0.69871 0,-0.44869 0.11907,-0.8158 0.26459,-0.8158 0.14552,0 0.26458,0.42375 0.26458,0.94166 0,0.56039 0.10713,0.87545 0.26458,0.77813 0.14552,-0.0899 0.26641,-0.54345 0.26864,-1.0078 z m -57.75981,0.082 c -0.0761,-0.29089 -0.0304,-0.59558 0.10143,-0.67707 0.13186,-0.0815 0.23975,0.16354 0.23975,0.54452 0,0.39442 0.11393,0.62227 0.26458,0.52917 0.14552,-0.0899 0.26458,-0.39462 0.26458,-0.67708 0,-0.28245 0.10792,-0.51355 0.23982,-0.51355 0.13189,0 0.17754,0.23812 0.10143,0.52917 -0.0774,0.29585 -0.008,0.52916 0.15706,0.52916 0.16249,0 0.31166,-0.32742 0.33147,-0.7276 0.0309,-0.62385 0.0524,-0.64271 0.1507,-0.13229 0.0631,0.32742 0.21156,0.59531 0.32998,0.59531 0.11843,0 0.30136,-0.26789 0.40652,-0.59531 0.16192,-0.50417 0.21013,-0.52442 0.31484,-0.13229 0.068,0.25466 0.23398,0.46302 0.36883,0.46302 0.13485,0 0.25459,-0.20836 0.26607,-0.46302 0.0125,-0.27661 0.0746,-0.32987 0.15434,-0.1323 0.0734,0.18191 0.24962,0.33073 0.39161,0.33073 0.14198,0 0.18456,-0.11906 0.0946,-0.26458 -0.0899,-0.14552 -0.0374,-0.26458 0.11668,-0.26458 0.15411,0 0.2802,0.11611 0.2802,0.25803 0,0.16766 0.23771,0.16766 0.67868,0 0.37328,-0.14192 1.05789,-0.28214 1.52136,-0.31161 0.46346,-0.0295 -1.1814,-0.11876 -3.65525,-0.19844 -2.47385,-0.0797 -4.57173,-0.0853 -4.66195,-0.0126 -0.0902,0.0728 -5.8e-4,0.51925 0.1992,0.99219 0.24684,0.58438 0.54242,0.8599 0.92249,0.8599 0.42891,0 0.52703,-0.12328 0.42096,-0.52891 z m -0.93016,-0.39713 c 0.005,-0.43657 0.0647,-0.58313 0.13177,-0.3257 0.0671,0.25743 0.0627,0.61462 -0.01,0.79375 -0.0725,0.17913 -0.12736,-0.0315 -0.12197,-0.46805 z m 54.98175,-0.1323 c 0,-0.29104 -0.11906,-0.52916 -0.26458,-0.52916 -0.14552,0 -0.26459,0.23812 -0.26459,0.52916 0,0.29105 0.11907,0.52917 0.26459,0.52917 0.14552,0 0.26458,-0.23812 0.26458,-0.52917 z m -1.80358,-0.32191 c -0.18985,-0.18985 -0.31309,-0.20547 -0.31309,-0.0397 0,0.35316 0.3129,0.66606 0.48948,0.48948 0.0752,-0.0752 -0.004,-0.2776 -0.17639,-0.4498 z m 1.00983,0.33753 c 0,-0.13693 -0.11906,-0.32255 -0.26458,-0.41249 -0.14552,-0.0899 -0.26459,0.0221 -0.26459,0.24897 0,0.22687 0.11907,0.41249 0.26459,0.41249 0.14552,0 0.26458,-0.11204 0.26458,-0.24897 z m 16.40417,-0.0156 c 0,-0.14552 -0.38696,-0.25621 -0.8599,-0.24598 -0.7206,0.0156 -0.77417,0.0554 -0.33073,0.24598 0.73097,0.31411 1.19063,0.31411 1.19063,0 z m -17.99167,-0.26458 c 0,-0.14552 -0.18562,-0.26458 -0.41249,-0.26458 -0.22687,0 -0.3389,0.11906 -0.24897,0.26458 0.0899,0.14552 0.27556,0.26458 0.41249,0.26458 0.13694,0 0.24897,-0.11906 0.24897,-0.26458 z m -1.12999,-0.15985 c -0.0879,-0.0879 -0.31612,-0.0973 -0.50712,-0.0209 -0.21106,0.0845 -0.14837,0.14716 0.15985,0.15985 0.27892,0.0115 0.43519,-0.051 0.34727,-0.13896 z m 16.24652,22.03911 c 0.23768,-0.1809 0.49176,-0.56407 0.56462,-0.85148 0.10354,-0.40847 0.13917,-0.36989 0.16316,0.17672 0.0182,0.41524 -0.13931,0.76454 -0.38782,0.8599 -0.66148,0.25383 -0.81027,0.17281 -0.33996,-0.18514 z m 7.37305,-0.0667 c 0,-0.22687 0.11907,-0.33891 0.26459,-0.24897 0.14552,0.0899 0.26458,0.27556 0.26458,0.41249 0,0.13693 -0.11906,0.24897 -0.26458,0.24897 -0.14552,0 -0.26459,-0.18562 -0.26459,-0.41249 z m 0.99851,0.14791 c -0.0883,-0.21828 -0.23787,-0.75407 -0.33236,-1.19063 -0.15892,-0.73422 -0.13915,-0.7617 0.2635,-0.36641 0.2696,0.26468 0.39612,0.71789 0.33236,1.19063 -0.0673,0.49872 -0.15859,0.62572 -0.2635,0.36641 z M 216.879,127.28716 c 0,-0.42266 0.0893,-0.71329 0.19844,-0.64584 0.10914,0.0675 0.19843,0.41327 0.19843,0.76848 0,0.35522 -0.0893,0.64585 -0.19843,0.64585 -0.10914,0 -0.19844,-0.34582 -0.19844,-0.76849 z m -83.8005,-1.54662 c 0.12728,-3.15581 0.24863,-3.37844 0.28843,-0.52916 0.0198,1.41882 -0.0556,2.57968 -0.16755,2.57968 -0.11197,0 -0.16636,-0.92273 -0.12088,-2.05052 z m 1.08049,1.9052 c -0.074,-0.13835 -0.14673,-0.66827 -0.16156,-1.17759 l -0.0269,-0.92605 0.2593,0.88435 c 0.25262,0.8615 0.20222,1.7295 -0.0708,1.21929 z m 84.4398,-0.36823 c 0,-0.28245 0.11906,-0.58713 0.26458,-0.67707 0.15006,-0.0927 0.26459,0.12954 0.26459,0.51355 0,0.37239 -0.11907,0.67707 -0.26459,0.67707 -0.14552,0 -0.26458,-0.23109 -0.26458,-0.51355 z m 8.40191,-1.99999 c 0.0696,-0.3638 0.1721,-0.66146 0.22789,-0.66146 0.0558,0 0.10145,0.29766 0.10145,0.66146 0,0.3638 -0.10255,0.66146 -0.22789,0.66146 -0.12534,0 -0.171,-0.29766 -0.10145,-0.66146 z m -94.6143,-0.39687 c 0,-0.36381 0.0601,-0.51263 0.13346,-0.33073 0.0734,0.1819 0.0734,0.47955 0,0.66146 -0.0734,0.1819 -0.13346,0.0331 -0.13346,-0.33073 z m 37.52906,-6.08542 c 0,-0.14552 0.1318,-0.26458 0.29289,-0.26458 0.16109,0 0.22199,-0.18478 0.13532,-0.41062 -0.0904,-0.23546 -0.046,-0.34166 0.10398,-0.24897 0.41156,0.25436 0.30519,1.18875 -0.13532,1.18875 -0.21828,0 -0.39687,-0.11906 -0.39687,-0.26458 z m 60.32905,-6.13595 c -0.002,-0.24607 0.11501,-0.52099 0.26053,-0.61093 0.33486,-0.20695 0.33486,0.14331 0,0.66146 -0.22103,0.34203 -0.25704,0.33504 -0.26053,-0.0505 z m -0.77394,-4.98978 0.0239,-1.17739 0.25762,0.89591 c 0.17538,0.6099 0.16776,0.98577 -0.0239,1.1774 -0.19892,0.19892 -0.27449,-0.0639 -0.25762,-0.89592 z m 0.89643,-0.0129 c -0.099,-0.45095 -0.0631,-0.93684 0.0798,-1.07977 0.17009,-0.17009 0.26501,0.11314 0.27476,0.81991 0.0178,1.28828 -0.10836,1.38073 -0.35455,0.25986 z m -1.97863,-0.35511 c 0,-0.20969 0.11907,-0.45484 0.26459,-0.54478 0.14552,-0.0899 0.26458,0.0816 0.26458,0.38126 0,0.29963 -0.11906,0.54478 -0.26458,0.54478 -0.14552,0 -0.26459,-0.17157 -0.26459,-0.38126 z"
       id="path17833" />
  </g>
</svg>
