<?xml version="1.0" encoding="UTF-8" standalone="no"?>
<!-- Created with Inkscape (http://www.inkscape.org/) -->

<svg
   width="184.96355mm"
   height="57.539562mm"
   viewBox="0 0 184.96356 57.539565"
   version="1.1"
   id="svg5"
   inkscape:version="1.1 (c4e8f9ed74, 2021-05-24)"
   sodipodi:docname="youthscompanion.svg"
   xmlns:inkscape="http://www.inkscape.org/namespaces/inkscape"
   xmlns:sodipodi="http://sodipodi.sourceforge.net/DTD/sodipodi-0.dtd"
   xmlns="http://www.w3.org/2000/svg"
   xmlns:svg="http://www.w3.org/2000/svg">
  <sodipodi:namedview
     id="namedview7"
     pagecolor="#ffffff"
     bordercolor="#666666"
     borderopacity="1.0"
     inkscape:pageshadow="2"
     inkscape:pageopacity="0.0"
     inkscape:pagecheckerboard="0"
     inkscape:document-units="mm"
     showgrid="false"
     inkscape:zoom="1.8923042"
     inkscape:cx="363.5779"
     inkscape:cy="299.89892"
     inkscape:window-width="2506"
     inkscape:window-height="1403"
     inkscape:window-x="1974"
     inkscape:window-y="0"
     inkscape:window-maximized="1"
     inkscape:current-layer="layer1" />
  <defs
     id="defs2" />
  <g
     inkscape:label="Layer 1"
     inkscape:groupmode="layer"
     id="layer1"
     transform="translate(-100.39077,-55.607863)">
    <path
       style="fill:#000000;stroke-width:0.264583"
       d="m 182.07342,112.88795 c -0.0907,-0.14676 0.11063,-0.37733 0.44741,-0.5124 0.33677,-0.13507 0.49324,-0.25618 0.34772,-0.26914 -0.38545,-0.0343 -26.26778,-0.0186 -36.77708,0.0224 -7.84702,0.0306 -40.26253,-0.25133 -43.92083,-0.38198 l -1.32292,-0.0472 -0.23603,-1.57227 c -0.14549,-0.96912 -0.12216,-4.06483 0.0608,-8.06979 0.3016,-6.601727 0.20425,-43.212547 -0.11947,-44.928247 l -0.16225,-0.8599 2.74201,-0.0352 c 1.50811,-0.0193 3.27779,-0.0899 3.93264,-0.15676 1.02323,-0.10449 10.10992,-0.0971 41.80416,0.0339 3.41974,0.0141 16.81427,-0.068 29.76563,-0.18256 12.95135,-0.11455 25.8101,-0.1826 28.575,-0.15122 4.24357,0.0482 58.18899,-0.0568 73.28958,-0.14262 l 4.7625,-0.0271 -0.0124,6.08542 c -0.0113,5.56566 -0.0508,6.08228 -0.46303,6.04867 -0.5747,-0.0469 -0.56627,0.0709 0.0623,0.86997 0.43462,0.55253 0.51169,1.07399 0.50475,3.41517 -0.005,1.59669 -0.11616,2.76306 -0.26397,2.76306 -0.14069,0 -0.16863,0.14104 -0.0621,0.31341 0.10654,0.17238 0.15493,3.29777 0.10754,6.94531 -0.11461,8.82216 -0.11421,8.80994 -0.29479,8.9923 -0.28732,0.29015 -7.34195,0.40025 -24.97834,0.38984 -20.66225,-0.0122 -16.39942,-0.0157 -33.99896,0.0282 -7.93088,0.0198 -15.16393,-0.0449 -16.07343,-0.14386 -1.49637,-0.16277 -1.65564,-0.13305 -1.67454,0.31256 -0.0118,0.27859 -0.0788,0.34881 -0.15434,0.16171 -0.19216,-0.47623 -0.55984,-0.40681 -0.70072,0.13229 -0.0879,0.33625 -0.1294,0.294 -0.15169,-0.15433 -0.0183,-0.36899 -0.16375,-0.57199 -0.36142,-0.50458 -0.1819,0.062 -0.30241,0.39938 -0.26779,0.74965 l 0.063,0.63687 -0.31338,-0.66146 c -0.17236,-0.3638 -0.33546,-0.69702 -0.36245,-0.74048 -0.027,-0.0435 -0.36078,-7.9e-4 -0.74176,0.0948 -0.65106,0.1634 -0.69268,0.26938 -0.69268,1.76407 v 1.59022 l 0.95767,-0.73045 c 0.52672,-0.40175 1.66492,-0.95057 2.52934,-1.21961 1.69597,-0.52784 3.12308,-0.39121 4.7611,0.45584 0.59771,0.30909 0.87308,0.33384 1.15072,0.10342 0.28775,-0.23882 0.57214,-0.0958 1.34395,0.67605 2.26398,2.26397 4.80939,3.22279 6.38823,2.40634 0.43809,-0.22655 0.87049,-0.60464 0.96089,-0.84021 0.49748,-1.29642 -0.16795,-2.53125 -1.07856,-2.00146 -0.43479,0.25295 -0.42434,0.27814 0.11843,0.28548 0.70023,0.009 0.83923,0.91616 0.17928,1.16941 -1.23448,0.47371 -1.97699,-1.31161 -0.80612,-1.93824 0.78677,-0.42106 1.64113,-0.16643 2.1749,0.6482 0.37532,0.57281 0.36489,0.72575 -0.12494,1.83309 -0.57908,1.30913 -1.27588,1.73517 -2.8379,1.73517 -1.34843,0 -2.61373,-0.62126 -4.37777,-2.14948 -0.86286,-0.7475 -1.64316,-1.28477 -1.734,-1.19393 -0.0908,0.0908 0.0182,0.37425 0.24228,0.62981 1.7428,1.98746 1.64504,4.1564 -0.26935,5.975957 -1.60081,1.52151 -4.2172,1.03936 -5.14924,-0.948907 -0.41951,-0.89493 -0.42746,-1.08578 -0.0799,-1.91764 0.50844,-1.21688 1.42887,-1.64573 2.54232,-1.18452 0.93222,0.38614 1.36966,1.2184 1.00559,1.91319 -0.25912,0.49448 -1.14889,0.62842 -1.40643,0.21171 -0.0854,-0.13822 0.0861,-0.38053 0.38126,-0.53848 0.738,-0.39496 0.67318,-1.01793 -0.12681,-1.21871 -0.83318,-0.20912 -1.91636,0.46246 -2.13207,1.32189 -0.21131,0.84194 0.53608,2.232937 1.37015,2.550057 0.9477,0.36031 1.61097,0.31549 2.65375,-0.17934 1.9328,-0.917167 2.32287,-3.607387 0.83029,-5.726317 -0.54948,-0.78007 -2.78084,-2.0502 -3.57129,-2.03285 -0.29354,0.006 -0.16343,0.14463 0.34437,0.36572 0.85863,0.37385 1.96194,1.58001 1.96194,2.14484 0,0.38221 -0.72679,0.7267 -1.07679,0.51038 -0.13006,-0.0804 -0.0969,-0.36699 0.0741,-0.64083 0.39761,-0.63668 -0.0438,-1.20892 -1.3575,-1.75998 -1.64484,-0.68993 -3.51162,0.0586 -4.39197,1.76098 -0.53025,1.02539 -0.50392,1.07533 0.33601,0.63718 0.96746,-0.50467 2.4474,-0.50561 2.4474,-0.002 0,0.20969 -0.11907,0.45485 -0.26459,0.54478 -0.14552,0.0899 -0.26458,-0.0221 -0.26458,-0.24896 0,-0.22684 -0.11533,-0.41246 -0.25628,-0.41246 -0.14095,0 -0.19237,0.16655 -0.11425,0.37011 0.0781,0.20356 0.014,0.44923 -0.14247,0.54594 -0.15647,0.0967 -0.35592,-0.0103 -0.44322,-0.23783 -0.24864,-0.64796 -0.70095,-0.49211 -1.50827,0.5197 -0.46431,0.58191 -0.83031,1.45359 -0.97206,2.3151 -0.24581,1.493987 -0.23685,1.510357 1.29058,2.356197 1.40588,0.77853 1.40622,2.72974 5.2e-4,2.72974 -0.46567,0 -0.65621,-0.16685 -0.72201,-0.63225 -0.0746,-0.52766 0.002,-0.60837 0.46276,-0.48786 0.90671,0.23711 0.90772,-0.28534 0.002,-1.19076 l -0.8498,-0.84981 -0.39052,0.58815 c -0.32459,0.48886 -0.63551,0.58815 -1.84176,0.58815 -1.27893,0 -1.42843,0.055 -1.25913,0.46302 0.21899,0.52779 0.2169,0.68792 -0.0232,1.78594 -0.2229,1.01923 -0.78694,1.45521 -1.88263,1.45521 -0.5576,0 -0.87547,0.12939 -0.87547,0.35639 0,0.53407 -0.87582,1.4394 -1.6931,1.75013 -1.95065,0.74163 -5.05377,-0.23206 -5.05377,-1.58578 0,-0.45955 0.13718,-0.64215 0.46302,-0.61629 0.62745,0.0498 0.61351,-1.00916 -0.0208,-1.58324 -0.62128,-0.56225 -1.08685,-0.55463 -1.5375,0.0251 -0.3293,0.42365 -0.38822,0.42677 -0.69296,0.0367 -0.44421,-0.56859 -1.13549,-0.2966 -3.11234,1.22454 -1.66302,1.27967 -2.31433,1.98444 -1.36376,1.47571 0.30049,-0.16082 0.61682,-0.40641 0.70294,-0.54576 0.27314,-0.44195 1.99209,-0.78807 2.65744,-0.5351 1.39846,0.53169 1.37668,2.1876 -0.0334,2.54152 -0.80651,0.20242 -1.50882,-0.31501 -0.92081,-0.67842 0.20387,-0.126 0.53029,-0.16783 0.72539,-0.093 0.24134,0.0926 0.35472,-0.087 0.35472,-0.56195 0,-1.23771 -1.41435,-1.23826 -2.88461,-0.001 -0.44479,0.37428 -0.92309,0.60982 -1.06288,0.52342 -0.57228,-0.35369 -3.28931,2.76013 -2.81889,3.23055 0.0835,0.0835 0.1518,0.0694 0.1518,-0.0314 0,-0.33929 1.52167,0.60015 1.69229,1.04478 0.0929,0.24211 0.0332,0.6037 -0.13262,0.80353 -0.34975,0.42142 -1.71552,0.48875 -1.95793,0.0965 z m -56.81789,-1.84782 c 2.78171,-0.001 4.56406,-0.1026 4.56406,-0.25957 0,-0.16364 -5.11279,-0.26095 -14.02291,-0.26689 -8.42506,-0.006 -14.02292,0.0884 -14.02292,0.2355 0,0.13465 0.11881,0.28452 0.26401,0.33303 0.14521,0.0485 4.4017,0.0593 9.45886,0.0241 5.05716,-0.0353 11.24867,-0.065 13.7589,-0.0662 z m 52.39431,-4.31974 0.073,-4.18542 -0.73392,0.0844 -0.73392,0.0844 -0.0566,2.87834 c -0.0311,1.5831 -0.11734,2.93906 -0.19153,3.01326 -0.0742,0.0742 -0.25436,-0.17926 -0.40035,-0.56324 -0.44605,-1.17322 -2.13062,-0.87949 -2.13062,0.37151 0,0.12795 0.26058,0.4754 0.57906,0.77211 l 0.57906,0.53947 h -3.07699 c -1.86091,0 -3.14474,-0.10964 -3.24844,-0.27743 -0.11859,-0.19188 -0.27932,-0.18792 -0.52123,0.0129 -0.25502,0.21165 -0.40094,0.20748 -0.53868,-0.0154 -0.12388,-0.20044 -0.24632,-0.21281 -0.35565,-0.0359 -0.10943,0.17706 -5.91848,0.30217 -16.9055,0.36406 -15.35985,0.0865 -16.69273,0.0596 -16.17987,-0.32728 0.73759,-0.55635 0.60966,-1.67225 -0.205,-1.78814 -0.36536,-0.052 -0.70974,0.12068 -0.92354,0.46302 -0.18751,0.30024 -0.44662,0.5459 -0.57581,0.5459 -0.13407,0 -0.16698,-2.12938 -0.0767,-4.96094 0.087,-2.72851 0.16988,-6.032497 0.18414,-7.342177 0.0208,-1.91395 0.0823,-2.26443 0.31304,-1.78594 0.48838,1.01263 2.05833,0.63055 2.05833,-0.50094 0,-0.25368 -0.26461,-0.64659 -0.58804,-0.87312 -0.53445,-0.37435 1.22258,-0.41188 19.28151,-0.41188 10.92826,0 20.27139,-0.0777 20.76252,-0.17268 0.89183,-0.17247 0.89234,-0.17198 0.39859,0.38621 -0.67987,0.7686 -0.40146,1.90314 0.46703,1.90314 0.86079,0 1.11905,-0.42221 1.31207,-2.14497 l 0.16622,-1.4835 -22.68113,0.11173 c -12.47461,0.0614 -22.69933,0.13371 -22.72158,0.16059 -0.0223,0.0269 -0.1075,4.42505 -0.18943,9.773717 l -0.14897,9.72487 23.468,-0.0676 23.468,-0.0676 z m 3.61705,3.56857 c 0.24057,-0.75796 0.097,-7.45361 -0.15645,-7.29697 -0.12444,0.0769 -0.22626,0.0237 -0.22626,-0.11831 0,-0.14198 0.12204,-0.31867 0.27119,-0.39265 0.14916,-0.074 0.1194,-0.10335 -0.0661,-0.0653 -0.25733,0.0528 -0.32826,1.00517 -0.29903,4.01505 0.0221,2.27184 -0.0509,3.66523 -0.17206,3.28439 -0.11571,-0.3638 -0.22225,-1.93435 -0.23676,-3.49011 -0.0402,-4.31426 -0.52642,-3.81826 -0.62222,0.63476 l -0.0814,3.7814 -0.0583,-4.0349 c -0.0358,-2.47469 -0.16059,-4.0349 -0.32286,-4.0349 -0.16501,0 -0.26459,1.54341 -0.26459,4.10105 v 4.10104 h 1.04051 c 0.7762,0 1.07957,-0.12309 1.19429,-0.48456 z m -76.37105,-0.89128 c 0.44954,-0.44953 0.39376,-1.6851 -0.0983,-2.17714 -0.49204,-0.49203 -1.72761,-0.54781 -2.17714,-0.0983 -0.17463,0.17462 -0.3175,0.68659 -0.3175,1.13771 0,1.0386 0.4166,1.4552 1.4552,1.4552 0.45112,0 0.96309,-0.14287 1.13771,-0.3175 z m -1.78861,-0.59583 c -0.44189,-0.53244 -0.23938,-1.30979 0.37187,-1.4275 0.69925,-0.13467 1.26515,0.67587 0.92093,1.31905 -0.31581,0.59009 -0.8555,0.63537 -1.2928,0.10845 z m 5.53242,0.53246 c 0.51686,-0.62279 0.22545,-1.80676 -0.55155,-2.24087 -0.62437,-0.34884 -0.76931,-0.34218 -1.38906,0.0639 -0.8261,0.54127 -0.95772,1.84759 -0.22893,2.27207 0.67555,0.39347 1.80516,0.34395 2.16954,-0.0951 z m -1.83881,-0.54517 c -0.26278,-0.31663 -0.26278,-0.47712 0,-0.79375 0.43989,-0.53002 0.98577,-0.50177 1.27786,0.0661 0.50754,0.98682 -0.55882,1.59399 -1.27786,0.7276 z m 5.81153,0.41427 c 0.62821,-1.17382 0.025,-2.39864 -1.18132,-2.39864 -0.83115,0 -1.45521,0.66619 -1.45521,1.55348 0,0.95352 0.4456,1.35693 1.49882,1.35693 0.58324,0 0.95278,-0.16623 1.13771,-0.51177 z m -1.78986,-0.33489 c -0.45507,-0.45507 -0.39179,-0.94704 0.15978,-1.24223 0.71225,-0.38119 1.21408,0.0516 1.0087,0.86987 -0.18532,0.73837 -0.65333,0.88751 -1.16848,0.37236 z m 5.62065,-0.0272 c 0.33298,-0.95251 -0.0588,-1.61071 -1.0273,-1.72567 -0.77564,-0.0921 -1.73585,0.57323 -1.73585,1.20272 0,0.94474 0.55062,1.42778 1.53384,1.3456 0.79065,-0.0661 1.01801,-0.21824 1.22931,-0.82265 z m -2.05521,-0.0265 c -0.0783,-0.20414 0.0108,-0.58067 0.19801,-0.83674 0.46547,-0.63657 1.21072,-0.30532 1.21072,0.53814 0,0.53003 -0.13209,0.66976 -0.63315,0.66976 -0.34824,0 -0.69725,-0.16702 -0.77558,-0.37116 z m 5.79868,0.23887 c 0.40149,-0.61275 0.40149,-0.71018 0,-1.32292 -0.62357,-0.95169 -2.06463,-0.93299 -2.50454,0.0325 -0.73076,1.60385 1.53446,2.77096 2.50454,1.29042 z m -1.70359,-0.1976 c -0.43224,-0.43224 -0.37808,-0.90841 0.1253,-1.10158 0.43345,-0.16633 1.15709,0.24693 1.15709,0.6608 0,0.43284 -0.96027,0.7629 -1.28239,0.44078 z m 5.59414,0.30469 c 0.36623,-0.58533 0.0229,-1.75407 -0.61577,-2.09585 -1.31881,-0.7058 -2.74736,1.17979 -1.69279,2.23436 0.54251,0.54251 1.93473,0.45898 2.30856,-0.13851 z m -1.93211,-0.37361 c -0.29276,-0.35276 -0.28135,-0.48996 0.07,-0.84128 0.5674,-0.5674 1.31549,-0.25216 1.20697,0.5086 -0.10337,0.72468 -0.80079,0.90638 -1.27693,0.33268 z m 5.67125,0.5122 c 0.88506,-0.88506 0.19888,-2.23006 -1.13771,-2.23006 -0.87558,0 -1.35693,0.43443 -1.35693,1.22464 0,0.76755 0.66928,1.42119 1.4552,1.42119 0.34302,0 0.81077,-0.18709 1.03944,-0.41577 z m -1.72466,-0.5389 c -0.30013,-0.36164 -0.27701,-0.48117 0.15401,-0.79634 0.43645,-0.31914 0.56097,-0.317 0.89332,0.0153 0.31701,0.317 0.32521,0.45966 0.0458,0.79634 -0.43099,0.51931 -0.65196,0.5162 -1.09312,-0.0154 z m 3.72503,0.28972 c -0.1783,-0.21484 -0.2231,-0.74991 -0.11434,-1.36551 0.17006,-0.96249 0.15582,-0.99027 -0.28955,-0.5652 -0.53799,0.51347 -0.59338,2.03998 -0.0854,2.35392 0.48245,0.29817 0.83496,-0.007 0.4893,-0.42321 z m 56.88832,-4.04315 c 0.94589,-0.76382 2.06885,-1.66896 2.49548,-2.01143 l 0.77568,-0.62265 h -0.68733 c -0.47417,0 -0.73699,0.17436 -0.84747,0.56224 -0.15704,0.55131 -0.16757,0.54938 -0.542,-0.0992 l -0.38186,-0.66146 -0.009,0.85989 c -0.005,0.47295 -0.1307,0.8599 -0.279,0.8599 -0.16178,0 -0.19684,-0.28997 -0.0877,-0.72498 0.1662,-0.6622 0.14558,-0.68861 -0.23807,-0.30496 -0.23102,0.23102 -0.47139,0.76562 -0.53415,1.18801 -0.0795,0.53534 -0.13543,0.36724 -0.18446,-0.55494 -0.0387,-0.72761 -0.12478,-1.11456 -0.19133,-0.8599 -0.0666,0.25466 -0.22906,0.46302 -0.36112,0.46302 -0.13238,0 -0.1669,0.53425 -0.0769,1.19063 0.11076,0.80811 0.0666,1.19062 -0.13736,1.19062 -0.17923,0 -0.30055,-0.47432 -0.30055,-1.17501 0,-0.64625 -0.11906,-1.24859 -0.26458,-1.33853 -0.16707,-0.10325 -0.26459,0.54112 -0.26459,1.74827 0,1.05149 -0.0704,1.84138 -0.15649,1.7553 -0.0861,-0.0861 -0.14901,-1.02865 -0.13986,-2.09461 0.0103,-1.19936 -0.0711,-1.79742 -0.21358,-1.56899 -0.18432,0.29553 -0.25431,0.26915 -0.35104,-0.1323 -0.0665,-0.27578 -0.0728,0.64891 -0.0142,2.05487 0.0586,1.40596 -0.003,2.62403 -0.13697,2.70683 -0.27279,0.16859 -0.56408,-2.3573 -0.44457,-3.85498 0.0624,-0.78179 -0.002,-0.94265 -0.3261,-0.81818 -0.33992,0.13044 -0.37887,0.57705 -0.24635,2.8252 0.0973,1.64986 0.0672,2.46804 -0.0787,2.14109 -0.12987,-0.29104 -0.24451,-1.51143 -0.25473,-2.71198 -0.0108,-1.26969 -0.12953,-2.18281 -0.28378,-2.18281 -0.2335,0 -0.32541,5.92113 -0.0989,6.37345 0.0429,0.0857 0.76744,-0.51236 1.61011,-1.32894 0.84267,-0.81658 2.30603,-2.10963 3.25191,-2.87345 z m -48.68333,3.64977 c 0,-0.14552 -0.11907,-0.26458 -0.26459,-0.26458 -0.14552,0 -0.26458,0.11906 -0.26458,0.26458 0,0.14552 0.11906,0.26458 0.26458,0.26458 0.14552,0 0.26459,-0.11906 0.26459,-0.26458 z m 3.81212,-0.65785 c 4.54958,-2.50003 10.55886,-3.64384 16.22461,-3.0882 2.72208,0.26695 7.00226,1.46596 10.62376,2.97604 0.78194,0.32605 0.92493,0.32305 1.13305,-0.0237 0.131,-0.21828 1.36542,-2.2257 2.74315,-4.46093 1.37774,-2.23523 2.50497,-4.177757 2.50497,-4.316737 0,-0.41192 -5.38143,-2.80708 -8.16467,-3.63392 -4.74372,-1.40925 -6.8594,-1.6985 -12.34054,-1.68717 -5.59686,0.0116 -7.31924,0.27449 -12.03854,1.83762 -2.68528,0.88942 -8.73125,3.60241 -8.73125,3.91794 0,0.24672 6.05624,9.401537 6.21945,9.401537 0.0811,0 0.90275,-0.4151 1.82601,-0.92243 z m -1.43087,-1.698 c 0,-1.01709 -2.21716,-5.26712 -3.19918,-6.13243 l -0.77519,-0.683067 1.63495,-0.70545 c 0.89922,-0.38799 1.65327,-0.67592 1.67566,-0.63984 0.0224,0.0361 0.24402,0.60138 0.49252,1.25622 0.86677,2.284107 2.67822,5.416927 3.31117,5.726527 0.60094,0.29394 0.5581,0.3397 -1.05439,1.12639 -0.92444,0.451 -1.77186,0.82 -1.88317,0.82 -0.1113,0 -0.20237,-0.34576 -0.20237,-0.76835 z m 24.49873,-1.16561 c -0.93359,-0.34625 -1.77685,-0.86843 -2.09462,-1.29705 -0.57273,-0.77257 -0.7066,-2.16817 -0.25162,-2.62315 0.44557,-0.44557 1.39542,0.20359 1.39542,0.95368 0,1.29904 2.67047,2.10457 3.04674,0.91903 0.18513,-0.58329 -0.25748,-1.31022 -0.79778,-1.31022 -0.61651,0 -0.98938,-0.71018 -0.67818,-1.29167 0.24808,-0.46353 0.38931,-0.495227 1.1011,-0.2471 0.69864,0.24355 0.8947,0.20646 1.35804,-0.256877 0.317,-0.317 0.47424,-0.71686 0.37925,-0.96441 -0.32809,-0.85498 -2.63529,-1.28226 -2.91984,-0.54073 -0.11172,0.29112 -0.35888,0.35525 -0.8882,0.23043 -1.15032,-0.27127 -1.21009,-0.49242 -0.37473,-1.38668 0.89043,-0.9532 1.43535,-1.01757 3.49589,-0.41294 2.31307,0.67873 3.39161,2.001 2.86481,3.512177 -0.1599,0.45869 -0.58036,0.90662 -1.02319,1.09005 -0.7348,0.30436 -0.74227,0.3279 -0.33131,1.04397 0.36089,0.6288 0.37083,0.85238 0.0702,1.57816 -0.35813,0.86459 -1.46096,1.62679 -2.31309,1.59865 -0.26189,-0.009 -1.17939,-0.27655 -2.03889,-0.59532 z m -19.93889,-1.17911 c -0.77906,-0.77906 -0.99598,-2.05735 -0.48219,-2.8415 0.51251,-0.78217 0.52242,-0.9246 0.0644,-0.9246 -0.59272,0 -1.23164,-0.918757 -1.23164,-1.771087 0,-1.30886 0.82523,-2.07477 2.75876,-2.56046 2.51565,-0.63191 3.44206,-0.57178 4.10121,0.26619 0.70304,0.89378 0.69481,1.62642 -0.0269,2.39467 -0.46837,0.49855 -0.49652,0.61236 -0.15149,0.61236 1.21038,0 2.03785,2.884457 1.09729,3.825017 -0.67995,0.67996 -2.23271,1.22101 -3.97354,1.38456 -1.39555,0.13111 -1.6927,0.078 -2.15588,-0.38515 z m 3.64224,-1.64943 c 0.61163,-0.61163 0.66275,-1.04141 0.19844,-1.66832 -0.27534,-0.37175 -0.49193,-0.40167 -1.29316,-0.17864 -1.16798,0.32512 -1.48276,1.12157 -0.73773,1.8666 0.65037,0.65036 1.168,0.64481 1.83245,-0.0196 z m -0.93086,-3.604847 c 0.68513,-0.68514 0.4103,-1.54071 -0.52435,-1.63233 -1.14051,-0.11179 -1.84294,0.47717 -1.62147,1.35956 0.14031,0.55904 0.33366,0.70262 0.94615,0.70262 0.4234,0 0.96325,-0.19343 1.19967,-0.42985 z m 8.55729,4.688867 c -1.88516,-0.20223 -2.86393,-1.0043 -2.86393,-2.3469 0,-0.65555 0.20905,-1.101347 0.7561,-1.612357 l 0.75609,-0.70631 -0.6238,-0.47053 c -1.17672,-0.88761 -0.54032,-3.28974 0.89755,-3.38785 1.45462,-0.0993 3.76418,0.13929 4.60467,0.47559 1.72275,0.68931 2.06379,3.01116 0.52746,3.59106 l -0.73097,0.27591 0.61062,0.61062 c 0.87058,0.870577 0.80643,2.067047 -0.16278,3.036267 -0.81453,0.81453 -0.96365,0.83566 -3.77101,0.5345 z m 1.88529,-1.72948 c 0.17386,-0.20948 0.27773,-0.7155 0.23084,-1.12448 -0.0752,-0.655727 -0.20714,-0.753577 -1.11667,-0.828057 -0.64627,-0.0529 -1.11404,0.0459 -1.25272,0.26459 -0.32213,0.508017 -0.27801,1.385237 0.0881,1.751327 0.43705,0.43705 1.6667,0.39904 2.05047,-0.0634 z m 0.0307,-3.597177 c 0.2864,-0.15328 0.51178,-0.55183 0.51178,-0.90502 0,-0.48506 -0.18233,-0.67117 -0.78781,-0.80416 -1.1498,-0.25254 -1.85803,0.0513 -1.85803,0.79713 0,0.98871 1.1069,1.46177 2.13406,0.91205 z m -14.30489,10.592637 c 0,-0.14552 -0.0525,-0.26458 -0.11668,-0.26458 -0.0642,0 -0.19026,0.11906 -0.2802,0.26458 -0.0899,0.14552 -0.0374,0.26458 0.11668,0.26458 0.15411,0 0.2802,-0.11906 0.2802,-0.26458 z m 9.525,0 c 0,-0.14552 -0.12609,-0.26458 -0.2802,-0.26458 -0.15411,0 -0.20661,0.11906 -0.11668,0.26458 0.0899,0.14552 0.21603,0.26458 0.2802,0.26458 0.0642,0 0.11668,-0.11906 0.11668,-0.26458 z m 6.87917,-0.2802 c 0,-0.13693 -0.1786,-0.24897 -0.39688,-0.24897 -0.40915,0 -0.52565,0.3122 -0.22768,0.61017 0.21139,0.21139 0.62456,-0.0276 0.62456,-0.3612 z m 2.38125,0.14791 c 0,-0.21828 -0.11907,-0.39688 -0.26459,-0.39688 -0.14552,0 -0.26458,0.1786 -0.26458,0.39688 0,0.21828 0.11906,0.39687 0.26458,0.39687 0.14552,0 0.26459,-0.17859 0.26459,-0.39687 z m 1.5875,-0.1606 c 0,-0.12995 -0.1786,-0.23628 -0.39688,-0.23628 -0.21828,0 -0.39687,0.17486 -0.39687,0.38858 0,0.23669 0.15512,0.32904 0.39687,0.23627 0.21828,-0.0838 0.39688,-0.25862 0.39688,-0.38857 z m -28.04584,0.0283 c 0,-0.14552 -0.11906,-0.26459 -0.26458,-0.26459 -0.14552,0 -0.26458,0.11907 -0.26458,0.26459 0,0.14552 0.11906,0.26458 0.26458,0.26458 0.14552,0 0.26458,-0.11906 0.26458,-0.26458 z m 9.39271,0 c -0.0899,-0.14552 -0.27556,-0.26459 -0.41249,-0.26459 -0.13693,0 -0.24897,0.11907 -0.24897,0.26459 0,0.14552 0.18562,0.26458 0.41249,0.26458 0.22687,0 0.33891,-0.11906 0.24897,-0.26458 z m 1.35048,-0.45751 c -0.26895,-0.26895 -0.49087,0.13596 -0.2702,0.49302 0.1667,0.26972 0.22902,0.26993 0.31864,0.001 0.0613,-0.18383 0.0395,-0.40617 -0.0484,-0.49409 z m 1.42765,0.45751 c 0,-0.14552 -0.11907,-0.26459 -0.26459,-0.26459 -0.14552,0 -0.26458,0.11907 -0.26458,0.26459 0,0.14552 0.11906,0.26458 0.26458,0.26458 0.14552,0 0.26459,-0.11906 0.26459,-0.26458 z m 2.38125,0 c 0,-0.14552 -0.11907,-0.26459 -0.26459,-0.26459 -0.14552,0 -0.26458,0.11907 -0.26458,0.26459 0,0.14552 0.11906,0.26458 0.26458,0.26458 0.14552,0 0.26459,-0.11906 0.26459,-0.26458 z m 7.83277,-0.45751 c -0.26896,-0.26895 -0.49087,0.13596 -0.2702,0.49302 0.16669,0.26972 0.22902,0.26993 0.31864,0.001 0.0613,-0.18383 0.0395,-0.40617 -0.0484,-0.49409 z m 14.12764,0.45751 c 0,-0.14552 -0.12609,-0.26459 -0.2802,-0.26459 -0.1541,0 -0.20661,0.11907 -0.11667,0.26459 0.0899,0.14552 0.21603,0.26458 0.2802,0.26458 0.0642,0 0.11667,-0.11906 0.11667,-0.26458 z m -20.6375,-0.39688 c 0,-0.21828 -0.11203,-0.39687 -0.24896,-0.39687 -0.33364,0 -0.57259,0.41317 -0.36121,0.62455 0.29798,0.29797 0.61017,0.18148 0.61017,-0.22768 z m 4.49792,0 c 0,-0.21828 -0.11906,-0.39687 -0.26458,-0.39687 -0.14552,0 -0.26459,0.17859 -0.26459,0.39687 0,0.21828 0.11907,0.39688 0.26459,0.39688 0.14552,0 0.26458,-0.1786 0.26458,-0.39688 z m 15.21354,0.13229 c 0.0899,-0.14552 0.0445,-0.26458 -0.10106,-0.26458 -0.14552,0 -0.33817,0.11906 -0.42811,0.26458 -0.0899,0.14552 -0.0444,0.26459 0.10107,0.26459 0.14552,0 0.33816,-0.11907 0.4281,-0.26459 z m -17.06562,-0.26458 c 0,-0.14552 -0.1786,-0.26458 -0.39688,-0.26458 -0.21828,0 -0.39687,0.11906 -0.39687,0.26458 0,0.14552 0.17859,0.26458 0.39687,0.26458 0.21828,0 0.39688,-0.11906 0.39688,-0.26458 z m -9.21191,-0.58649 c -0.18986,-0.18986 -0.31309,-0.20548 -0.31309,-0.0397 0,0.15037 0.0794,0.35278 0.17639,0.44979 0.097,0.097 0.2379,0.11487 0.31309,0.0397 0.0752,-0.0752 -0.004,-0.27759 -0.17639,-0.44979 z m 4.18482,0.32191 c 0,-0.14552 -0.17859,-0.26459 -0.39687,-0.26459 -0.21828,0 -0.39688,0.11907 -0.39688,0.26459 0,0.14552 0.1786,0.26458 0.39688,0.26458 0.21828,0 0.39687,-0.11906 0.39687,-0.26458 z m 47.55844,-0.65986 c 0.32765,-0.38091 0.59573,-0.96901 0.59573,-1.30688 0,-0.68437 -0.65075,-1.38911 -0.90413,-0.97913 -0.0866,0.14016 -0.008,0.30824 0.17488,0.37351 0.18281,0.0653 0.24821,0.2092 0.14535,0.31986 -0.36563,0.39334 -1.0419,-0.11803 -0.95601,-0.72288 0.066,-0.46509 0.26223,-0.60027 0.89057,-0.61364 0.44323,-0.009 0.94925,-0.10575 1.12448,-0.21405 0.46802,-0.28926 0.9713,0.0812 0.60625,0.44626 -0.48164,0.48164 -0.32344,0.95649 0.37726,1.13235 0.39503,0.0992 0.8359,0.0249 1.08624,-0.18281 0.37766,-0.31343 0.34591,-0.40986 -0.30621,-0.92984 -0.48742,-0.38865 -0.67156,-0.72608 -0.55788,-1.02232 0.19706,-0.51352 0.9957,-0.44427 1.17765,0.10211 0.0854,0.25639 -0.0111,0.32098 -0.30881,0.20674 -0.23813,-0.0914 -0.43297,-0.0508 -0.43297,0.0901 0,0.4129 0.79587,0.29404 0.96394,-0.14396 0.0845,-0.22014 0.007,-0.57733 -0.17299,-0.79375 -0.51742,-0.62345 -8.68392,-0.56675 -10.01138,0.0695 l -0.96603,0.46302 1.29327,0.14851 c 0.91158,0.10467 1.43869,0.32807 1.78594,0.75691 0.52781,0.65181 0.66335,2.00057 0.22808,2.26958 -0.48536,0.29997 -0.27306,0.68319 0.59531,1.07457 1.23569,0.55695 2.83397,0.31359 3.57146,-0.5438 z m -1.97371,-1.77788 c 0.0923,-0.59617 -0.0619,-0.83242 -0.90868,-1.39282 -0.56089,-0.37118 -1.0198,-0.81069 -1.0198,-0.97671 0,-0.17904 0.19234,-0.12777 0.47278,0.12603 0.2975,0.26923 0.70103,0.36817 1.08846,0.26685 0.5356,-0.14006 0.59223,-0.0871 0.43543,0.4069 -0.0991,0.31235 -0.0659,0.5679 0.0739,0.5679 0.46092,0 0.54607,0.73355 0.1429,1.23106 -0.37194,0.45897 -0.38929,0.44501 -0.28495,-0.22921 z m -47.67393,1.8302 c -0.33959,-0.33959 -0.68396,-0.0771 -0.43255,0.32967 0.0974,0.15757 0.29828,0.21159 0.44642,0.12003 0.18071,-0.11169 0.17615,-0.25968 -0.0139,-0.4497 z m 12.30322,-0.11456 c -0.26895,-0.26895 -0.49086,0.13597 -0.27019,0.49302 0.16669,0.26973 0.22901,0.26993 0.31863,0.001 0.0613,-0.18383 0.0395,-0.40617 -0.0484,-0.49409 z m -22.71007,0.14332 c -0.16353,-0.49059 -0.73311,-0.57196 -0.73311,-0.10473 0,0.23041 0.18851,0.41892 0.41892,0.41892 0.23041,0 0.37179,-0.14138 0.31419,-0.31419 z m 25.72522,0.19752 c 0,-0.0642 -0.11906,-0.19026 -0.26458,-0.2802 -0.14552,-0.0899 -0.26459,-0.0374 -0.26459,0.11667 0,0.15411 0.11907,0.2802 0.26459,0.2802 0.14552,0 0.26458,-0.0525 0.26458,-0.11667 z m -9.525,-0.41249 c 0,-0.14552 -0.11906,-0.26459 -0.26458,-0.26459 -0.14552,0 -0.26459,0.11907 -0.26459,0.26459 0,0.14552 0.11907,0.26458 0.26459,0.26458 0.14552,0 0.26458,-0.11906 0.26458,-0.26458 z m 2.64583,0 c 0,-0.14552 -0.11906,-0.26459 -0.26458,-0.26459 -0.14552,0 -0.26458,0.11907 -0.26458,0.26459 0,0.14552 0.11906,0.26458 0.26458,0.26458 0.14552,0 0.26458,-0.11906 0.26458,-0.26458 z m 2.59623,-0.24805 c 0.0661,-0.19844 -0.0331,-0.29766 -0.23151,-0.23151 -0.191,0.0637 -0.39936,0.27202 -0.46302,0.46302 -0.0661,0.19844 0.0331,0.29766 0.23151,0.23151 0.19099,-0.0637 0.39935,-0.27202 0.46302,-0.46302 z m 2.96002,0.24805 c 0,-0.14552 -0.17859,-0.26459 -0.39687,-0.26459 -0.21828,0 -0.39688,0.11907 -0.39688,0.26459 0,0.14552 0.1786,0.26458 0.39688,0.26458 0.21828,0 0.39687,-0.11906 0.39687,-0.26458 z m 11.37709,0 c 0,-0.14552 -0.1786,-0.26459 -0.39688,-0.26459 -0.21828,0 -0.39687,0.11907 -0.39687,0.26459 0,0.14552 0.17859,0.26458 0.39687,0.26458 0.21828,0 0.39688,-0.11906 0.39688,-0.26458 z m -21.96042,-0.26459 c 0,-0.14552 -0.18562,-0.26458 -0.41249,-0.26458 -0.22687,0 -0.33891,0.11906 -0.24897,0.26458 0.0899,0.14552 0.27556,0.26459 0.41249,0.26459 0.13693,0 0.24897,-0.11907 0.24897,-0.26459 z m -1.65916,-0.15985 c -0.0879,-0.0879 -0.31612,-0.0973 -0.50712,-0.0209 -0.21106,0.0845 -0.14837,0.14716 0.15986,0.15986 0.27891,0.0115 0.43518,-0.0511 0.34726,-0.13897 z m 2.98208,-0.10473 c 0,-0.14552 -0.11204,-0.26458 -0.24897,-0.26458 -0.13693,0 -0.32255,0.11906 -0.41249,0.26458 -0.0899,0.14552 0.0221,0.26458 0.24897,0.26458 0.22687,0 0.41249,-0.11906 0.41249,-0.26458 z m 4.49791,-0.14791 c 0,-0.22687 -0.11906,-0.3389 -0.26458,-0.24896 -0.14552,0.0899 -0.26458,0.27555 -0.26458,0.41249 0,0.13693 0.11906,0.24896 0.26458,0.24896 0.14552,0 0.26458,-0.18562 0.26458,-0.41249 z m -26.9875,-0.34937 c 0,-0.40991 -1.08962,-0.44879 -14.02291,-0.50036 -13.17259,-0.0525 -14.0229,-0.028 -14.02253,0.40472 3.7e-4,0.43149 0.88762,0.46314 14.02292,0.50036 12.97088,0.0367 14.02252,0.006 14.02252,-0.40472 z m 6.35,-0.32887 c 0,-0.1277 -0.23812,-0.23218 -0.52916,-0.23218 -0.50844,0 -0.7173,0.51742 -0.35508,0.87965 0.2003,0.20029 0.88424,-0.30051 0.88424,-0.64747 z m 18.78542,0.56157 c 0,-0.14552 -0.18562,-0.26459 -0.41249,-0.26459 -0.22687,0 -0.33891,0.11907 -0.24897,0.26459 0.0899,0.14552 0.27556,0.26458 0.41249,0.26458 0.13693,0 0.24897,-0.11906 0.24897,-0.26458 z m 20.10833,0 c 0,-0.14552 -0.12609,-0.26459 -0.2802,-0.26459 -0.1541,0 -0.20661,0.11907 -0.11667,0.26459 0.0899,0.14552 0.21603,0.26458 0.2802,0.26458 0.0642,0 0.11667,-0.11906 0.11667,-0.26458 z m -1.32291,-0.66146 c 0,-0.21828 -0.11204,-0.39688 -0.24897,-0.39688 -0.33364,0 -0.57259,0.41317 -0.3612,0.62456 0.29797,0.29797 0.61017,0.18147 0.61017,-0.22768 z m -39.95209,-0.39688 c 0,-0.14552 -0.17859,-0.26458 -0.39687,-0.26458 -0.21828,0 -0.39688,0.11906 -0.39688,0.26458 0,0.14552 0.1786,0.26459 0.39688,0.26459 0.21828,0 0.39687,-0.11907 0.39687,-0.26459 z m 41.31469,-0.13229 c 0,-0.13824 -0.12799,-0.29402 -0.28443,-0.34616 -0.15643,-0.0521 -0.28442,0.10363 -0.28442,0.34616 0,0.24254 0.12799,0.39831 0.28442,0.34616 0.15644,-0.0521 0.28443,-0.20791 0.28443,-0.34616 z m -55.34733,-0.13229 c -0.005,-0.0728 -0.57079,-0.48839 -1.2567,-0.92362 -1.75181,-1.11158 -4.84293,-4.110997 -6.39675,-6.206987 -1.96531,-2.65106 -3.35449,-5.60291 -4.02931,-8.56186 l -0.59195,-2.5956 -1.86143,0.0587 -1.86143,0.0587 0.0395,-6.45896 0.0395,-6.45896 1.9805,-0.0767 1.98051,-0.0767 0.70038,-1.97285 c 0.81475,-2.29503 1.69321,-3.8882 2.02936,-3.68045 0.12956,0.0801 -0.11005,0.83027 -0.53247,1.66709 -0.42243,0.83682 -0.96526,2.19987 -1.2063,3.02901 l -0.43825,1.50752 -1.23799,0.0484 c -0.6809,0.0266 -1.56542,0.0262 -1.9656,-10e-4 l -0.72761,-0.0494 v 5.94204 5.94205 l 1.77712,0.0782 1.77712,0.0782 0.42365,1.85208 c 0.94525,4.13241 2.56549,7.36791 5.34406,10.6717 2.30797,2.744227 6.47845,6.129337 7.55139,6.129337 0.64307,0 4.62599,-3.32692 6.04307,-5.047767 2.69348,-3.27084 2.74605,-3.39828 2.74719,-6.66004 l 9.9e-4,-2.84427 h 1.46182 c 1.41482,0 1.46696,-0.0257 1.62167,-0.79926 0.0879,-0.43959 0.25001,-0.85497 0.3602,-0.92307 0.45691,-0.28239 5.60745,-0.36461 23.74743,-0.37908 l 19.12132,-0.0153 -0.0713,-10.78177 -0.0713,-10.78177 -11.24479,0.0544 c -6.18464,0.0299 -15.61243,0.0597 -20.95066,0.0661 l -9.70586,0.0117 -0.0837,0.70144 c -0.0461,0.38579 -0.40433,0.93973 -0.79618,1.23098 -0.68489,0.50904 -0.73982,0.51161 -1.41946,0.0663 -0.6018,-0.39431 -0.68527,-0.59717 -0.56095,-1.36327 0.16711,-1.02977 -0.0948,-1.12422 -1.49517,-0.53912 -1.32254,0.55259 -1.94649,1.47695 -4.94432,7.32488 l -2.77389,5.41109 0.0548,6.59853 c 0.0352,4.23499 0.16343,6.86079 0.35809,7.33075 0.27719,0.66919 1.09816,1.12001 3.11485,1.71044 0.194,0.0568 0.30322,0.25204 0.2427,0.43386 -0.0826,0.24826 -1.58705,0.34919 -6.04127,0.40529 -3.26219,0.0411 -6.18335,0.013 -6.49148,-0.0624 -0.30814,-0.0754 -0.93321,-0.51857 -1.38907,-0.98483 -1.10215,-1.12731 -1.15832,-2.56636 -0.13168,-3.37391 1.26138,-0.99221 2.76135,-0.4574 3.11806,1.11173 0.13038,0.57355 0.0217,0.86859 -0.49694,1.34927 -0.3651,0.33836 -0.58638,0.69265 -0.49173,0.78729 0.29495,0.29496 1.64786,0.18902 2.58463,-0.20239 1.5177,-0.63413 1.57701,-0.94249 1.52673,-7.9377 l -0.0455,-6.3278 -1.11258,-2.13852 c -1.59359,-3.06308 -5.71919,-9.96988 -6.37466,-10.67202 -0.30566,-0.32743 -0.65234,-0.59532 -0.7704,-0.59532 -0.28601,0 -1.62427,2.70111 -2.18168,4.40345 l -0.44555,1.36075 -1.95472,0.0987 c -1.07509,0.0543 -2.02849,0.17249 -2.11867,0.26267 -0.19036,0.19036 -0.18937,14.2824 0.001,14.47279 0.07,0.07 0.89453,0.0995 1.83218,0.0656 l 1.70481,-0.0618 0.28943,1.14217 c 0.91453,3.60896 2.15633,6.33787 4.19195,9.21196 1.28775,1.8182 3.87713,4.555207 5.20584,5.502657 l 0.79375,0.566 -7.63508,0.008 c -7.18063,0.008 -7.62197,-0.0192 -7.41488,-0.45464 0.1211,-0.25466 0.23732,-10.521407 0.25825,-22.815007 l 0.038,-22.352 0.89454,-0.17332 c 1.3115,-0.2541 16.37266,-0.4984 16.37266,-0.26557 0,0.1089 -0.38696,0.38342 -0.8599,0.61004 -1.42126,0.68105 -5.17655,3.64564 -6.42323,5.07078 -1.45322,1.66126 -1.77274,1.52767 -0.42685,-0.17846 1.1735,-1.48761 3.39609,-3.36223 4.9869,-4.20615 0.62457,-0.33133 1.13558,-0.67875 1.13558,-0.77204 0,-0.0933 -0.98227,-0.12529 -2.18282,-0.0711 -1.20054,0.0542 -4.55096,0.15023 -7.44536,0.21346 -3.98616,0.0871 -5.3203,0.20049 -5.50063,0.46754 -0.21766,0.32234 -0.0833,13.14216 0.14003,13.36553 0.0521,0.0521 0.94295,0.016 1.97959,-0.0804 1.60587,-0.14925 1.90996,-0.25773 2.05487,-0.73304 0.0935,-0.30683 0.64299,-1.55608 1.22101,-2.77612 0.8332,-1.75867 0.97734,-2.26487 0.69576,-2.44334 -0.19534,-0.12381 -0.437,-0.22693 -0.53702,-0.22915 -0.18559,-0.004 -1.45456,2.50578 -2.17169,4.29542 -0.36777,0.91782 -0.47792,0.99219 -1.46941,0.99219 -0.9327,0 -1.07291,-0.0773 -1.08009,-0.59531 -0.005,-0.32742 -0.0763,-2.99035 -0.1595,-5.91762 l -0.15123,-5.3223 0.62251,-0.13187 c 1.13651,-0.24075 10.68547,-0.24981 10.4121,-0.01 -0.14552,0.12773 -0.71766,0.56417 -1.27143,0.96988 -0.55376,0.40571 -1.62224,1.56 -2.3744,2.56509 -0.84484,1.12895 -1.55796,1.82744 -1.86573,1.82744 -0.33412,0 -0.44803,-0.1307 -0.34588,-0.39688 0.0928,-0.24175 4.2e-4,-0.39687 -0.23628,-0.39687 -0.21371,0 -0.38857,0.16568 -0.38857,0.36819 0,0.2025 -0.29925,0.4433 -0.66501,0.5351 -0.53572,0.13446 -0.63529,0.28531 -0.51216,0.77592 0.20025,0.79785 -0.45868,1.41368 -0.91906,0.85895 -0.24954,-0.30067 -0.21585,-0.43976 0.16333,-0.67447 0.44664,-0.27646 0.44329,-0.29057 -0.0515,-0.21709 -0.71047,0.10552 -0.85325,1.19354 -0.21966,1.67374 0.44496,0.33722 0.41449,0.36768 -0.37566,0.37541 -0.83637,0.008 -1.13047,0.33912 -0.59531,0.66987 0.14552,0.0899 0.26458,0.0229 0.26458,-0.14907 0,-0.23074 0.1056,-0.22496 0.40327,0.0221 0.47662,0.39555 0.43764,0.42916 1.15709,-0.9975 0.31188,-0.61846 0.71347,-1.1263 0.89242,-1.12853 0.20996,-0.003 0.18537,-0.0925 -0.0693,-0.25356 -0.27913,-0.17648 -0.31219,-0.33199 -0.11291,-0.53127 0.36868,-0.36867 10.0462,-0.24921 10.00089,0.12346 -0.0174,0.14333 -0.37461,0.4543 -0.79375,0.69102 -1.29736,0.73275 -1.11433,1.24308 2.68257,7.47978 l 1.26717,2.08142 0.62405,-1.02308 c 1.11228,-1.8235 2.6805,-5.23165 2.86856,-6.23414 0.15602,-0.83164 0.0826,-1.07811 -0.49277,-1.65345 -0.37187,-0.37187 -0.91967,-0.67613 -1.21732,-0.67613 -0.36223,0 -0.5412,-0.17252 -0.5412,-0.5217 0,-0.48988 0.21836,-0.52619 3.58092,-0.59531 l 3.58091,-0.0736 -2.6126,-2.20628 c -2.26187,-1.9101 -3.73025,-2.97515 -5.00766,-3.63219 -0.41664,-0.2143 -4.72033,2.48953 -6.90396,4.33745 -0.92061,0.77909 -1.75405,1.33311 -1.85208,1.23117 -0.53106,-0.55228 6.29079,-5.63225 8.16603,-6.08094 0.93356,-0.22337 4.11383,1.88916 6.9656,4.62697 l 2.20896,2.12069 h 1.56661 c 0.86164,0 1.80147,0.14883 2.08851,0.33073 0.41081,0.26034 4.99822,0.30257 21.55277,0.19844 19.75869,-0.12429 21.03627,-0.1603 21.11992,-0.59531 0.0842,-0.43802 -1.14444,-0.46362 -22.75067,-0.47412 l -22.83972,-0.0111 -1.85208,-1.73424 c -1.01864,-0.95384 -2.6017,-2.2729 -3.51791,-2.93124 -0.9162,-0.65834 -1.60084,-1.26196 -1.52142,-1.34138 0.22651,-0.22651 2.73387,1.59995 4.8462,3.53017 1.39222,1.27219 2.04996,1.70861 2.38125,1.58001 0.37086,-0.14396 0.0435,-0.57727 -1.7251,-2.28342 -1.20054,-1.15816 -2.18275,-2.13183 -2.18268,-2.1637 8e-5,-0.0319 2.05391,-0.0434 4.56407,-0.0255 l 4.56392,0.0324 -0.0585,2.15039 c -0.0539,1.98324 -0.0179,2.15039 0.46302,2.15039 0.48192,0 0.5215,-0.18857 0.5215,-2.48486 0,-2.36 -0.0299,-2.49172 -0.59532,-2.62152 -0.32742,-0.0752 -3.5316,-0.13409 -7.1204,-0.13093 -3.5888,0.003 -6.68442,-0.0941 -6.87916,-0.21606 -0.65744,-0.41181 1.37136,-0.50223 8.24488,-0.36746 l 6.74687,0.13229 0.0751,2.84427 c 0.0655,2.48191 0.13295,2.84427 0.52917,2.84428 0.40929,0 0.44506,-0.31957 0.36268,-3.24115 -0.0503,-1.78263 -0.13499,-3.28619 -0.18829,-3.34125 -0.12792,-0.13213 -36.35288,-0.13403 -36.47882,-0.002 -0.18416,0.19319 -0.2174,4.92562 -0.18419,26.22235 l 0.0333,21.357837 3.77031,0.086 c 5.50999,0.12566 14.22276,0.0819 14.21163,-0.0714 z m 0.25175,-2.82222 c -0.0406,-0.39658 0.0657,-2.848817 0.15671,-3.617287 0.17285,-1.45902 0.39557,-1.03341 0.43911,0.83916 0.0243,1.042897 0.054,2.094617 0.0661,2.337157 0.0219,0.43737 -0.61868,0.86407 -0.66197,0.44097 z m -2.84774,-2.703637 c -0.535,-0.33904 -0.25141,-1.20897 0.42561,-1.30556 0.41173,-0.0587 0.59261,0.0508 0.59261,0.35903 0,0.2856 -0.14136,0.38935 -0.39688,0.29129 -0.21828,-0.0838 -0.39687,-0.037 -0.39687,0.10399 0,0.91726 1.60593,-0.37777 2.10644,-1.69865 0.40907,-1.07955 0.65724,-0.65906 0.28202,0.47785 -0.30302,0.91816 -1.37273,2.01027 -1.96112,2.00219 -0.16228,-0.002 -0.45559,-0.10579 -0.65181,-0.23014 z m 4.63572,-0.61054 c -0.36624,-0.48128 -0.74675,-1.23225 -0.84558,-1.66881 -0.15733,-0.69492 -0.0693,-0.63127 0.707,0.5112 0.48769,0.71771 1.0653,1.36215 1.28358,1.43208 0.34394,0.11019 0.3472,0.067 0.0244,-0.32396 -0.5147,-0.62344 0.0213,-1.20427 0.63857,-0.69199 0.64941,0.53896 0.39171,1.43903 -0.43955,1.53523 -0.5362,0.062 -0.86027,-0.12592 -1.36846,-0.79375 z m 3.13151,-6.92619 c -0.65485,-0.47884 -0.87762,-2.36466 -0.90585,-7.66836 l -0.0223,-4.1945 2.38877,-4.80134 c 1.31383,-2.64073 2.6367,-5.00969 2.93973,-5.26436 0.43743,-0.36761 1.05333,-0.46302 2.98907,-0.46302 3.64073,0 3.49697,-0.28075 3.73227,7.28904 0.208,6.69161 0.13822,7.11589 -1.36461,8.29802 -0.88649,0.69731 -3.91296,0.77774 -5.25751,0.1397 -1.06082,-0.50339 -1.54998,-1.94436 -1.44668,-4.26162 0.0378,-0.8488 0.0505,-2.84986 0.0282,-4.44681 l -0.0405,-2.90355 -1.62738,3.38013 c -0.96616,2.00675 -1.61813,3.70538 -1.60462,4.18064 0.0341,1.20008 0.76038,2.09013 2.20272,2.6995 1.38807,0.58644 1.66276,0.97079 0.69382,0.97079 -0.65776,0 -2.57496,-1.18909 -2.57496,-1.59704 0,-0.14028 -0.11906,-0.25505 -0.26458,-0.25505 -0.34847,0 -0.33576,0.77521 0.0299,1.82417 0.22262,0.6386 0.43091,0.82583 0.85338,0.76708 0.37322,-0.0519 0.59162,0.0873 0.65746,0.41915 0.083,0.41807 -0.0298,0.47802 -0.71093,0.37804 -0.45577,-0.0669 -0.85879,0.01 -0.92227,0.17502 -0.062,0.16161 -0.022,1.22075 0.0889,2.35364 0.20973,2.142 0.61339,3.01063 1.06186,2.28499 0.31926,-0.51657 0.93453,0.0453 0.7049,0.64367 -0.19622,0.51135 -0.967,0.53599 -1.6288,0.0521 z m 8.19994,-14.30986 v -5.8089 l -0.66145,-0.16474 c -0.36381,-0.0906 -0.94521,-0.0399 -1.29202,0.11275 l -0.63056,0.27748 0.17099,5.55039 c 0.12185,3.95519 0.26505,5.61209 0.49827,5.76509 0.18,0.11808 0.68446,0.18368 1.12102,0.14577 l 0.79375,-0.0689 z m -1.71979,5.23238 c 0,-0.0988 0.13648,-0.55708 0.3033,-1.01839 0.34548,-0.95542 0.15889,-2.00614 -0.46748,-2.63251 -0.23539,-0.23539 -0.34613,-0.50983 -0.24609,-0.60986 0.27506,-0.27507 1.1709,1.02231 1.35398,1.96088 0.10301,0.5281 0.007,1.12672 -0.26563,1.65364 -0.40467,0.78254 -0.67808,1.04312 -0.67808,0.64624 z m -17.68082,5.84436 c -0.48186,-0.33751 -0.53833,-0.49581 -0.28552,-0.80043 0.27206,-0.32782 0.38135,-0.31978 0.79964,0.0588 0.45575,0.41245 0.49944,0.39917 0.73626,-0.22372 0.30864,-0.81179 0.20917,-1.91118 -0.21968,-2.42791 -0.23364,-0.28153 -0.24362,-0.52809 -0.037,-0.91418 0.15562,-0.29078 0.27355,-1.22112 0.26206,-2.06744 -0.0192,-1.41196 -0.0437,-1.47334 -0.29759,-0.74499 -0.56705,1.62662 -2.45074,3.0427 -4.04745,3.0427 -0.37331,0 -1.26614,-0.29765 -1.98407,-0.66145 -0.71793,-0.36381 -1.49083,-0.66146 -1.71755,-0.66146 -0.22672,0 -0.52539,0.29765 -0.6637,0.66146 -0.28884,0.75969 -0.73369,0.86125 -0.97847,0.22337 -0.22843,-0.59527 0.82373,-1.414 1.81714,-1.414 0.50753,0 0.71619,-0.10334 0.59725,-0.29579 -0.10055,-0.16268 -0.27821,-0.7188 -0.39482,-1.23581 -0.5674,-2.51576 2.32666,-4.41136 3.91983,-2.56747 0.72297,0.83674 0.75278,1.46474 0.10736,2.2618 -0.53472,0.66035 -1.36413,0.56584 -1.36413,-0.15543 0,-0.28557 0.19228,-0.39508 0.59532,-0.33904 0.74906,0.10416 0.95805,-0.8396 0.32591,-1.47174 -0.63034,-0.63034 -1.64395,-0.52493 -2.4206,0.25172 -0.58662,0.58662 -0.66288,0.84745 -0.54738,1.8722 0.20069,1.78049 1.22054,2.73789 2.91646,2.73789 1.12551,0 1.42055,-0.12066 2.19946,-0.89958 0.89129,-0.89129 1.05665,-1.4689 0.91461,-3.19466 -0.13637,-1.65688 -2.34303,-6.21486 -3.7167,-7.67706 -0.55404,-0.58975 -0.70299,-1.19328 -0.29449,-1.19328 0.8951,0 3.41148,4.21917 4.71417,7.90416 0.78544,2.22182 0.91386,2.94852 1.00618,5.69374 0.1029,3.05962 -0.0562,3.97814 -0.77161,4.45586 -0.4077,0.27223 -0.49351,0.25624 -1.1709,-0.21822 z m 26.23687,-3.32277 c -1.95359,-0.43857 -2.02967,-0.72717 -2.15196,-8.16277 -0.0586,-3.56526 -0.22489,-6.70343 -0.36945,-6.97372 -0.41143,-0.76929 0.0744,-0.99872 1.92974,-0.91128 1.36372,0.0643 1.66793,0.15697 1.5644,0.47667 -0.17596,0.54342 -0.24649,12.32959 -0.0776,12.97526 0.10879,0.41601 0.36612,0.51849 1.30191,0.51849 1.00851,0 1.20122,-0.0918 1.42435,-0.67869 0.49682,-1.30675 0.19212,-10.90544 -0.4047,-12.74892 -0.18506,-0.5716 -0.13092,-0.59532 1.35948,-0.59547 l 1.55221,-1.5e-4 -0.0838,6.81317 c -0.0704,5.7233 -0.15507,6.96132 -0.52917,7.73922 -0.78596,1.63435 -2.717,2.17641 -5.51533,1.54819 z m 8.80977,-0.42371 c 0.12348,-0.25466 0.2612,-3.35028 0.30604,-6.87916 0.0767,-6.03442 0.0532,-6.41566 -0.39465,-6.40786 -0.28066,0.005 -0.83626,0.57522 -1.3532,1.38906 l -0.87703,1.38078 0.15901,-1.32292 c 0.0875,-0.72761 0.24399,-1.8587 0.34786,-2.51354 l 0.18886,-1.19063 3.72174,-0.0731 3.72174,-0.0731 0.32259,2.42289 c 0.17742,1.33259 0.26878,2.47669 0.20302,2.54244 -0.0657,0.0658 -0.5499,-0.55318 -1.07588,-1.37542 -0.65299,-1.02077 -1.10062,-1.46708 -1.41123,-1.40703 -0.41404,0.08 -0.4549,0.62219 -0.4549,6.0371 0,3.27204 0.0818,6.39565 0.18181,6.94136 l 0.1818,0.99218 h -1.99605 c -1.81014,0 -1.97513,-0.0431 -1.77153,-0.46302 z m 6.56703,-0.79375 c 0.0762,-0.69122 0.19103,-3.94855 0.25515,-7.2385 0.0944,-4.84248 0.0445,-6.12063 -0.26175,-6.71098 -0.20808,-0.40108 -0.37833,-0.78016 -0.37833,-0.84241 0,-0.0623 0.92273,-0.0784 2.05052,-0.0359 1.67617,0.0632 2.02901,0.14973 1.93268,0.47415 -0.0648,0.21828 -0.16496,1.61726 -0.22253,3.10885 l -0.10467,2.71198 h 1.24548 1.24548 l -0.13599,-2.57969 c -0.0748,-1.41883 -0.2216,-2.84758 -0.32622,-3.175 -0.18371,-0.57494 -0.13258,-0.59531 1.49429,-0.5953 l 1.6845,1e-5 v 7.20989 c 0,3.96543 0.0863,7.59684 0.19182,8.06978 l 0.19183,0.85989 h -1.65259 -1.65258 l 0.10181,-3.70744 0.10182,-3.70744 -1.2419,0.047 -1.2419,0.047 0.11397,3.06515 c 0.0627,1.68584 0.20516,3.33305 0.31661,3.66047 0.19848,0.58315 0.16124,0.59531 -1.82173,0.59531 h -2.02434 z m 10.97344,1.14987 c -0.08,-0.0801 0.068,-1.19008 0.32901,-2.46672 0.26101,-1.27664 0.47656,-2.6089 0.47901,-2.96058 0.007,-0.97895 0.34555,-0.43313 0.94166,1.51729 l 0.54034,1.76796 1.57633,-0.094 c 1.91586,-0.11426 2.24688,-0.3531 2.20648,-1.59204 -0.0724,-2.2181 -0.23997,-2.47739 -2.33088,-3.60562 -1.07876,-0.58208 -2.19583,-1.37689 -2.48238,-1.76623 -1.00943,-1.37154 -0.8339,-4.64556 0.32597,-6.08008 0.45094,-0.55772 0.77786,-0.63487 3.23769,-0.76407 1.50486,-0.079 2.81277,-0.079 2.90646,0 0.22933,0.19346 0.43632,5.0385 0.21527,5.0385 -0.0958,0 -0.54581,-0.59774 -0.99996,-1.32831 -0.94341,-1.51764 -1.27634,-1.70821 -2.56265,-1.46689 -0.88409,0.16585 -0.92405,0.22214 -0.92405,1.30141 0,1.44489 0.29019,1.79893 2.36936,2.89063 2.56841,1.34859 2.79001,1.76417 2.79001,5.23219 0,2.79883 -0.0217,2.90626 -0.73286,3.61783 -0.71645,0.71692 -0.81134,0.73527 -4.23606,0.81882 -1.92676,0.047 -3.5687,0.02 -3.64875,-0.0601 z m -39.22784,-4.03819 c -0.29472,-0.29471 -0.19767,-1.28086 0.17638,-1.79242 0.31265,-0.42757 0.35278,-0.34302 0.35278,0.74318 0,1.16748 -0.13776,1.44065 -0.52916,1.04924 z m 38.16707,-7.62881 c -0.0166,-0.14553 -0.01,-0.70749 0.0151,-1.24882 0.0249,-0.54133 -0.15617,-1.32528 -0.4024,-1.74211 -0.43131,-0.73016 -0.42477,-0.79325 0.17878,-1.72448 0.70304,-1.08473 1.13972,-1.21528 1.54321,-0.46136 0.52777,0.98616 0.30871,2.72159 -0.51986,4.11843 -0.4316,0.72761 -0.7983,1.20386 -0.81488,1.05834 z m -44.76989,-1.38907 c -1.5528,-2.13223 -2.56451,-4.12877 -2.40372,-4.74361 0.19357,-0.74021 1.18527,-1.0102 1.61178,-0.4388 0.39692,0.53176 0.20993,0.88293 -0.47016,0.88293 -0.28246,0 -0.51356,0.10379 -0.51356,0.23064 0,0.12685 0.583,1.1237 1.29556,2.21523 1.65454,2.5345 1.95942,3.11038 1.6467,3.11038 -0.13824,0 -0.66322,-0.56554 -1.1666,-1.25677 z m 9.33684,32.458737 c 0,-0.46181 -0.20268,-0.5103 -2.13302,-0.5103 h -2.13303 l 2.12524,-2.37031 c 1.90387,-2.123407 2.72361,-3.485087 2.33313,-3.875567 -0.0747,-0.0747 -0.53549,0.3721 -1.02397,0.99289 -1.17922,1.498617 -4.35975,4.704667 -5.51835,5.562607 l -0.92604,0.68574 3.63802,0.0126 c 3.42116,0.0119 3.63802,-0.0178 3.63802,-0.49768 z m 4.7625,-0.24572 c 0,-0.14552 -0.12609,-0.26458 -0.2802,-0.26458 -0.1541,0 -0.20661,0.11906 -0.11667,0.26458 0.0899,0.14552 0.21603,0.26459 0.2802,0.26459 0.0642,0 0.11667,-0.11907 0.11667,-0.26459 z m 1.26229,-0.47955 c 0.0576,-0.17281 -0.0838,-0.3142 -0.3142,-0.3142 -0.2304,0 -0.41892,0.18852 -0.41892,0.41893 0,0.46723 0.56958,0.38586 0.73312,-0.10473 z m -20.04766,-0.3142 c -1.6e-4,-0.0728 -0.59959,-0.64838 -1.33206,-1.27917 -1.82306,-1.56999 -4.7128,-5.373957 -5.88111,-7.741737 -0.53171,-1.07762 -1.23964,-2.94066 -1.57317,-4.1401 l -0.60641,-2.18081 -1.65365,-0.002 -1.65364,-0.002 -0.0178,2.4474 c -0.01,1.34606 -0.0743,4.79548 -0.14331,7.66537 l -0.12549,5.217987 3.64903,0.0737 c 5.55295,0.11213 9.33797,0.0884 9.33762,-0.0586 z m -11.92834,-0.90391 c -0.0606,-0.0606 -0.0909,-1.10239 -0.0672,-2.31511 0.0237,-1.212707 0.0534,-4.080167 0.0661,-6.372117 l 0.0231,-4.16719 h 1.02888 c 0.97665,0 1.0382,0.0496 1.21221,0.97716 0.49685,2.64845 3.37813,8.00034 5.55858,10.324897 0.65296,0.6961 1.18921,1.35495 1.19168,1.46409 0.005,0.20244 -8.81273,0.28879 -9.0134,0.0883 z m 6.90121,-0.92927 c 0,-0.31357 -0.75706,-1.07723 -1.06792,-1.07723 -0.13001,0 -0.35919,0.22948 -0.50929,0.50995 -0.21695,0.40536 -0.17816,0.53473 0.18912,0.63077 0.81978,0.21435 1.38809,0.18835 1.38809,-0.0635 z m -2.52911,-0.40736 c -0.28248,-0.21365 -0.66242,-0.39225 -0.84432,-0.39688 -0.18191,-0.005 -0.33073,-0.12747 -0.33073,-0.27299 0,-0.14552 -0.19248,-0.26459 -0.42774,-0.26459 -0.2974,0 -0.38559,-0.16116 -0.28942,-0.528897 0.0761,-0.2909 0.0356,-0.59237 -0.0899,-0.66993 -0.1255,-0.0776 -0.15488,-0.33206 -0.0653,-0.56553 0.11193,-0.29168 0.0462,-0.38217 -0.20999,-0.28919 -0.20509,0.0744 -0.32535,0.29904 -0.26725,0.49913 0.0581,0.20009 0.16315,0.70649 0.23344,1.12533 0.0756,0.450617 0.32956,0.814277 0.62197,0.890747 0.51978,0.13593 0.68987,0.59668 0.22026,0.59668 -0.15064,0 -0.5704,-0.19428 -0.9328,-0.43174 -0.4556,-0.29852 -0.61067,-0.58375 -0.50256,-0.924377 0.11743,-0.37 0.0533,-0.45307 -0.25782,-0.3337 -0.26324,0.10101 -0.41417,0.486087 -0.41417,1.056667 v 0.89773 h 2.03494 c 1.84607,0 1.98728,-0.036 1.52136,-0.38846 z m 0.67703,-0.65426 c 0,-0.28245 -0.11906,-0.587127 -0.26458,-0.677067 -0.51354,-0.31738 -0.27764,-0.68706 0.25614,-0.4014 0.41111,0.22002 0.32105,-0.0565 -0.4278,-1.3136 -0.52169,-0.87576 -0.99414,-1.59229 -1.04989,-1.59229 -0.0558,0 -0.10137,0.36833 -0.10137,0.81852 0,0.596 0.14385,0.85614 0.52917,0.9569 0.54221,0.14179 0.66462,0.38217 0.3532,0.6936 -0.27956,0.27955 -0.34485,1.525797 -0.0711,1.356597 0.13587,-0.084 0.24704,0.0329 0.24704,0.2598 0,0.22687 0.11907,0.41249 0.26459,0.41249 0.14552,0 0.26458,-0.23109 0.26458,-0.51355 z m -1.32292,-1.470817 c 0,-0.38927 -0.15179,-0.66146 -0.36888,-0.66146 -0.22724,0 -0.35424,0.25392 -0.33073,0.66127 0.0498,0.86313 0.69961,0.8633 0.69961,1.9e-4 z m -2.38125,-0.38126 c 0,-0.28245 -0.11906,-0.58714 -0.26458,-0.67707 -0.15006,-0.0927 -0.26458,0.12954 -0.26458,0.51355 0,0.37239 0.11906,0.67707 0.26458,0.67707 0.14552,0 0.26458,-0.2311 0.26458,-0.51355 z m 1.67159,-0.98164 c 0.20526,-0.20527 -0.60457,-0.86564 -1.07627,-0.87765 -0.18191,-0.005 -0.33073,0.16645 -0.33073,0.38016 0,0.2367 0.15512,0.32905 0.39687,0.23628 0.21828,-0.0838 0.39688,-0.0205 0.39688,0.14059 0,0.32277 0.34353,0.39033 0.61325,0.12062 z m -1.67159,-1.04958 c 0,-0.21828 -0.11906,-0.32329 -0.26458,-0.23335 -0.14552,0.0899 -0.26458,0.34211 -0.26458,0.56039 0,0.21828 0.11906,0.32329 0.26458,0.23336 0.14552,-0.0899 0.26458,-0.34212 0.26458,-0.5604 z m 1.85711,-0.23941 c 0.27961,-0.33691 0.26324,-0.37562 -0.0999,-0.23628 -0.23887,0.0917 -0.4343,0.27298 -0.4343,0.40293 0,0.34025 0.15316,0.29246 0.53419,-0.16665 z m -1.22168,-0.87324 c -0.20396,-0.047 -0.37084,-0.30791 -0.37084,-0.5797 0,-0.85537 -0.45724,-0.8189 -0.63109,0.0503 -0.0915,0.45744 -0.10598,0.89208 -0.0322,0.96585 0.0738,0.0738 0.13413,-0.005 0.13413,-0.17455 0,-0.16978 0.11906,-0.30869 0.26458,-0.30869 0.14552,0 0.26459,0.18329 0.26459,0.40731 0,0.33523 0.0656,0.34693 0.37084,0.0662 0.31807,-0.29261 0.31807,-0.35334 0,-0.42671 z m 0.88315,-0.65927 c -0.3268,-0.70379 -0.72483,-0.9486 -0.72483,-0.44581 0,0.25049 0.85462,1.2813 0.98942,1.1934 0.0349,-0.0227 -0.0842,-0.35914 -0.26459,-0.74759 z m -1.22385,-2.89893 -0.53174,-1.38334 -0.0138,0.99219 c -0.008,0.5457 0.10527,0.99219 0.25079,0.99219 0.14552,0 0.26459,0.11906 0.26459,0.26458 0,0.14552 -0.18852,0.26458 -0.41893,0.26458 -0.23041,0 -0.36435,0.14883 -0.29765,0.33073 0.0667,0.1819 0.25521,0.30097 0.41892,0.26459 0.16371,-0.0364 0.30128,0.0827 0.3057,0.26458 0.004,0.1819 0.13085,0.11979 0.28094,-0.13802 0.20173,-0.34652 0.13424,-0.82946 -0.25884,-1.85208 z m 23.31934,11.452567 c 0.70395,-0.003 0.99218,-0.11891 0.99218,-0.40049 0,-0.24863 -0.25107,-0.39688 -0.67216,-0.39688 h -0.67217 l 0.67217,-0.7249 c 0.36969,-0.39869 0.67216,-1.0143 0.67216,-1.368 0,-0.561757 -0.19244,-0.43156 -1.52135,1.02922 -1.79326,1.97121 -1.95,2.26261 -1.09376,2.03346 0.34691,-0.0928 1.07722,-0.17043 1.62293,-0.17241 z m 45.70677,-0.004 c 0,-0.14552 -0.11907,-0.26458 -0.26459,-0.26458 -0.14552,0 -0.26458,0.11906 -0.26458,0.26458 0,0.14552 0.11906,0.26459 0.26458,0.26459 0.14552,0 0.26459,-0.11907 0.26459,-0.26459 z m -40.26628,-0.77721 c 0.0661,-0.19844 -0.0331,-0.29766 -0.23151,-0.23151 -0.191,0.0637 -0.39936,0.27202 -0.46302,0.46302 -0.0661,0.19844 0.0331,0.29766 0.23151,0.23151 0.19099,-0.0637 0.39935,-0.27202 0.46302,-0.46302 z m 41.19232,-0.81029 c -0.12801,-0.20712 -0.28021,-0.22249 -0.4566,-0.0461 -0.14552,0.14552 -0.17818,0.40439 -0.0726,0.57527 0.12801,0.20713 0.28021,0.2225 0.4566,0.0461 0.14552,-0.14552 0.17818,-0.4044 0.0726,-0.57528 z m -41.93646,-0.79375 c 0,-0.14552 -0.12609,-0.26458 -0.2802,-0.26458 -0.15411,0 -0.20661,0.11906 -0.11668,0.26458 0.0899,0.14552 0.21603,0.26459 0.2802,0.26459 0.0642,0 0.11668,-0.11907 0.11668,-0.26459 z m 69.85,-5.357807 v -5.4901 l 39.75365,-0.0419 c 21.8645,-0.0231 39.962,-0.0245 40.21666,-0.003 0.35024,0.0293 0.46302,-0.16207 0.46302,-0.78591 v -0.82472 l -1.29705,0.17206 c -1.04331,0.1384 -68.53756,0.19363 -77.41649,0.0633 l -2.38125,-0.0349 -0.0713,5.75468 -0.0713,5.754687 h -12.27691 -12.2769 l -0.1878,-1.753687 c -0.1033,-0.96453 -0.11593,-3.79226 -0.0281,-6.28385 0.0879,-2.49159 0.16289,-11.3465 0.16675,-19.67756 l 0.007,-15.1474 2.18281,0.0485 2.18281,0.0485 -1.98437,0.14992 -1.98438,0.14992 -0.0742,21.10052 -0.0742,21.10052 h 12.04663 12.04663 v -5.55625 c 0,-3.52778 -0.0966,-5.55625 -0.26459,-5.55625 -0.16345,0 -0.26546,1.39059 -0.26688,3.63802 -0.001,2.00091 -0.0774,4.2631 -0.16914,5.02708 l -0.16685,1.38907 h -11.11815 -11.11811 l 0.17422,-6.94532 c 0.0958,-3.81992 0.17445,-12.9282 0.17475,-20.24062 l 5.4e-4,-13.29531 h 11.1125 11.1125 l 0.0355,1.78593 c 0.0196,0.98227 0.009,2.2878 -0.023,2.90119 -0.0711,1.35276 0.2028,2.72121 0.54459,2.72121 0.14979,0 0.2211,-1.62169 0.17742,-4.0349 l -0.073,-4.03489 -5.68854,-0.14026 -5.68855,-0.14025 5.88698,-0.0582 5.88698,-0.0582 0.004,3.90261 c 0.002,2.14643 0.0915,4.02791 0.19844,4.18107 0.13469,0.19295 12.60692,0.27421 40.60941,0.26459 38.30879,-0.0132 40.41503,-0.038 40.41511,-0.47691 1e-4,-0.59814 0.86754,-0.58657 -44.31763,-0.59144 l -35.98334,-0.004 -0.15819,-3.83646 c -0.087,-2.11006 -0.1763,-3.86623 -0.19843,-3.90261 -0.0221,-0.0364 -5.99338,-0.0661 -13.26942,-0.0661 h -13.22916 l -5.3e-4,14.08906 c -2.6e-4,7.74898 -0.0784,17.72047 -0.17358,22.15885 l -0.17311,8.069797 h 13.40274 13.40274 v -5.490107 z m -16.33299,-38.21721 c 0.25744,-0.0671 0.61462,-0.0627 0.79375,0.01 0.17914,0.0725 -0.0315,0.12736 -0.46805,0.12197 -0.43656,-0.005 -0.58313,-0.0647 -0.3257,-0.13178 z m -53.25243,40.64899 c 0,-0.13693 -0.11906,-0.24897 -0.26458,-0.24897 -0.14552,0 -0.26458,0.18562 -0.26458,0.41249 0,0.22687 0.11906,0.33891 0.26458,0.24897 0.14552,-0.0899 0.26458,-0.27556 0.26458,-0.41249 z m 67.46875,0.29582 c 0,-0.13694 -0.11906,-0.32256 -0.26458,-0.41249 -0.41667,-0.25752 -0.35236,-9.65506 0.0661,-9.66572 0.1819,-0.005 18.82161,-0.0508 41.42158,-0.10249 22.59998,-0.0517 41.13541,-0.13861 41.18985,-0.19306 0.0545,-0.0545 0.18219,-4.74106 0.28387,-10.4147 0.112,-6.24993 0.28611,-10.35386 0.44173,-10.41251 0.35277,-0.13296 -1.14108,-1.08991 -1.70477,-1.09207 -0.25559,-9.8e-4 -0.39906,0.14308 -0.3276,0.32898 0.0982,0.25552 -0.37002,0.29591 -2.05883,0.17763 -1.20227,-0.0842 -19.52039,-0.1672 -40.70693,-0.18445 l -38.521,-0.0313 -0.0553,4.81465 c -0.0304,2.64806 -0.17445,5.29091 -0.32008,5.87299 -0.65823,2.63096 -1.96098,4.89479 -2.81676,4.89479 -0.32321,0 -0.22177,-0.22142 0.39395,-0.85989 1.66939,-1.73107 1.95775,-2.91105 2.2145,-9.06198 0.12757,-3.05594 0.25011,-5.85391 0.27233,-6.21771 0.0222,-0.3638 0.0229,-1.87484 0.002,-3.35787 l -0.0389,-2.69642 -10.04413,-0.008 -10.04413,-0.008 -0.0762,18.8443 c -0.0419,10.36436 -0.0671,18.87322 -0.056,18.90857 0.0111,0.0353 4.46443,0.11254 9.8963,0.17153 8.71062,0.0946 9.90411,0.15727 10.11328,0.53104 0.25815,0.46129 0.74003,0.57512 0.74003,0.17481 z m -11.45182,-1.09818 c -0.55044,-0.12961 -1.32434,-0.404 -1.7198,-0.60974 -0.83818,-0.4361 -2.13158,-1.74728 -1.72356,-1.74728 0.15307,0 0.43375,0.18729 0.62373,0.41621 0.18999,0.22892 0.82964,0.66619 1.42146,0.97173 1.29719,0.66968 4.7621,0.9343 6.40919,0.48947 1.59203,-0.42996 3.60545,-2.35355 4.61952,-4.41341 0.92939,-1.88786 1.23887,-2.09827 0.65589,-0.44592 -0.85586,2.42576 -2.79139,4.51358 -4.87384,5.2573 -1.09929,0.3926 -3.91184,0.43502 -5.41259,0.0816 z m -0.62654,-2.10727 c -1.66259,-0.82298 -3.93692,-3.37242 -4.99184,-5.59568 -1.16004,-2.44477 -1.71166,-5.91995 -1.71329,-10.79366 -0.002,-6.38809 1.11491,-10.52857 3.48266,-12.90875 1.53559,-1.54367 3.46094,-2.65612 4.73164,-2.73391 1.25097,-0.0766 3.90874,0.73814 4.92914,1.511 1.10064,0.83362 2.02338,0.82043 2.64861,-0.0379 0.33715,-0.46284 0.6359,-0.62066 0.94811,-0.50086 0.53658,0.20591 0.57126,0.60434 0.14123,1.62244 -0.1841,0.43586 -0.37691,2.83399 -0.46481,5.7811 -0.14978,5.02222 -0.15261,5.04118 -1.01687,6.79673 -1.40452,2.853 -3.37836,3.63488 -5.18087,2.05225 -1.02738,-0.90205 -1.65664,-2.85726 -1.38522,-4.30408 0.18173,-0.96867 1.18638,-2.17526 2.03565,-2.44481 1.34833,-0.42794 2.57038,1.39987 1.84372,2.75765 -0.65066,1.21577 -2.65821,0.36919 -2.24132,-0.94516 0.13522,-0.42634 0.10204,-0.4209 -0.28653,0.047 -0.90781,1.09311 0.0142,4.33385 1.30513,4.58749 0.90758,0.17832 1.70534,-0.24051 2.30442,-1.20984 0.52483,-0.8492 0.60871,-1.32574 0.59386,-3.37388 -0.0477,-6.57453 -3.33344,-11.27876 -6.672,-9.55232 -1.24471,0.64366 -1.62208,1.43309 -1.92422,4.02533 -0.33421,2.86742 0.0726,19.71427 0.50154,20.77261 0.70635,1.74258 3.14363,3.09842 4.95791,2.75806 1.03081,-0.19338 2.41784,-1.46324 2.92558,-2.67843 0.51012,-1.22089 0.48448,-4.4237 -0.0436,-5.44487 -0.50086,-0.96856 -0.40933,-1.08716 0.93575,-1.21252 0.94759,-0.0883 1.08186,-0.0199 1.48316,0.75617 0.59206,1.14493 0.39774,4.37293 -0.36773,6.10846 -0.71212,1.61456 -2.53979,3.59545 -3.88375,4.20933 -1.49264,0.68179 -4.16705,0.6584 -5.59607,-0.049 z m 1.81329,-3.67636 c -0.99103,-0.99104 -1.06303,-1.36008 -1.28003,-6.56141 -0.16112,-3.8621 -0.13573,-4.29948 0.2496,-4.29948 0.62843,0 1.09805,-0.99025 0.69813,-1.47212 -0.17343,-0.20898 -0.49177,-0.37997 -0.70742,-0.37997 -0.33703,0 -0.37598,-0.73376 -0.27736,-5.22552 0.0631,-2.87403 0.20114,-5.41775 0.30675,-5.6527 0.10561,-0.23495 0.49774,-0.56648 0.87142,-0.73674 0.55033,-0.25075 0.79974,-0.23071 1.31283,0.10549 0.52433,0.34355 0.58481,0.50591 0.3511,0.94258 -0.32969,0.61604 -0.78495,0.444 -0.78495,-0.29664 0,-0.55834 -0.19864,-0.63104 -0.75724,-0.27713 -0.56529,0.35815 -0.80626,2.22643 -0.81873,6.34782 -0.0113,3.72686 0.002,3.81889 0.64993,4.41914 0.98153,0.90965 0.76833,2.41065 -0.3976,2.79929 -0.45312,0.15104 0.10156,8.39653 0.63412,9.42638 0.49747,0.96201 1.47837,1.32034 2.42883,0.88728 0.62586,-0.28516 0.90518,-1.09758 0.37736,-1.09758 -0.14552,0 -0.26458,-0.17859 -0.26458,-0.39687 0,-0.58542 0.99537,-0.4829 1.18745,0.12229 0.19938,0.62821 -0.22253,1.48727 -0.91154,1.85602 -0.94855,0.50764 -2.04538,0.31256 -2.86807,-0.51013 z m 47.04216,-5.04006 c 0,-0.14552 0.11906,-0.26458 0.26458,-0.26458 0.14552,0 0.26458,0.11906 0.26458,0.26458 0,0.14552 -0.11906,0.26458 -0.26458,0.26458 -0.14552,0 -0.26458,-0.11906 -0.26458,-0.26458 z m -33.97701,-1.45521 c -1.42179,-0.46471 -1.60001,-1.2311 -1.69196,-7.27604 -0.094,-6.18283 -0.0205,-6.8235 0.9103,-7.92971 0.65873,-0.78285 0.7299,-0.80154 3.05254,-0.80154 2.27563,0 2.4114,0.0333 3.15148,0.7734 0.64746,0.64746 0.77904,1.0029 0.80804,2.18281 0.019,0.77518 0.0763,3.07629 0.12721,5.11358 0.12283,4.91461 -0.0386,6.29525 -0.8488,7.25809 -0.59585,0.70812 -0.81176,0.77734 -2.67376,0.85716 -1.11406,0.0478 -2.38983,-0.0322 -2.83505,-0.17775 z m 3.48892,-7.86502 0.0713,-5.74836 -0.64196,-0.16112 c -0.35308,-0.0886 -0.89117,-0.0277 -1.19577,0.13527 -0.53477,0.2862 -0.55381,0.48556 -0.55381,5.79924 0,3.02656 0.085,5.58788 0.18898,5.69182 0.10394,0.10394 0.60996,0.15355 1.12448,0.11024 l 0.9355,-0.0787 z m 5.08809,8.194 c 0,-0.0373 0.12774,-0.48382 0.28387,-0.99218 0.17195,-0.55988 0.27198,-3.37571 0.25371,-7.14201 -0.0265,-5.45317 -0.0898,-6.33971 -0.51526,-7.20989 -0.43694,-0.89368 -0.44242,-0.99297 -0.0553,-1 0.2364,-0.004 1.23349,-0.0404 2.21576,-0.0801 l 1.78594,-0.0723 v 1.0974 c 0,0.60357 0.24754,1.8005 0.5501,2.65983 0.30255,0.85933 0.68434,2.00891 0.84841,2.55461 0.16407,0.54571 0.37388,0.99219 0.46625,0.99219 0.2715,0 1.8394,-5.36473 1.8394,-6.29372 v -0.85003 h 2.13769 2.13769 l -0.20845,0.8599 c -0.28207,1.16354 -0.1152,14.22433 0.18899,14.79272 0.1331,0.2487 0.242,0.51953 0.242,0.60186 0,0.0823 -0.90685,0.14969 -2.01523,0.14969 -1.97396,0 -2.01106,-0.0122 -1.81113,-0.59532 0.23295,-0.67945 0.46611,-6.5466 0.33909,-8.53281 l -0.0846,-1.32291 -0.98065,3.0427 c -0.53936,1.67349 -1.19083,3.78685 -1.4477,4.69636 -0.25688,0.9095 -0.54668,1.65364 -0.64401,1.65364 -0.0973,0 -0.42964,-0.92273 -0.73848,-2.05052 -0.69131,-2.52448 -2.10309,-6.64406 -2.15348,-6.28385 -0.22913,1.63799 0.20141,7.0909 0.69461,8.79739 0.1661,0.57472 0.11149,0.59532 -1.57859,0.59532 -0.96286,0 -1.75065,-0.0306 -1.75065,-0.0679 z m 13.92579,-1.05658 c 0.29055,-1.5269 0.12911,-12.77942 -0.20157,-14.04963 -0.14589,-0.56039 -0.20369,-1.08046 -0.12844,-1.15571 0.17647,-0.17646 6.71373,-0.13013 7.28646,0.0516 0.99995,0.31737 1.34276,1.53144 1.34276,4.7555 0,2.9174 -0.0343,3.11435 -0.64944,3.72949 -0.56661,0.56661 -0.88714,0.64943 -2.51354,0.64943 h -1.86411 v 2.2069 c 0,1.2138 0.17731,2.79138 0.39402,3.50573 0.2167,0.71436 0.39529,1.32859 0.39687,1.36497 0.002,0.0364 -0.9601,0.0661 -2.13706,0.0661 H 226.346 Z m 5.59753,-10.71563 -0.0764,-2.3151 -1.25677,-0.0806 -1.25677,-0.0806 v 2.39575 2.39575 h 1.33322 1.33322 z m 1.90793,11.69727 c 0,-0.0785 0.22428,-0.58457 0.4984,-1.12447 0.52663,-1.03726 0.88446,-2.58322 2.02859,-8.76439 0.62354,-3.36871 0.69537,-4.63822 0.34559,-6.10789 -0.0795,-0.33386 0.31692,-0.39158 2.49652,-0.36353 1.42504,0.0183 2.66477,0.10713 2.75496,0.19732 0.0902,0.0902 0.028,0.4625 -0.13828,0.82736 -0.23964,0.52596 -0.19161,1.19758 0.23185,3.24226 0.29376,1.41839 0.64872,3.23373 0.7888,4.03409 0.30157,1.72301 1.65413,7.05886 1.97243,7.78119 0.21151,0.48002 0.1257,0.49615 -1.72462,0.32418 -1.07097,-0.0995 -2.00329,-0.23705 -2.07183,-0.3056 -0.0685,-0.0685 -0.006,-0.39301 0.13846,-0.72104 0.17685,-0.40093 0.16926,-1.07343 -0.0232,-2.05164 l -0.28624,-1.45521 h -1.57666 -1.57667 l -0.31986,1.5875 c -0.17593,0.87312 -0.25522,1.91492 -0.1762,2.3151 l 0.14367,0.72761 h -1.75287 c -0.96407,0 -1.75286,-0.0643 -1.75286,-0.14284 z m 6.24788,-7.62621 c -0.0815,-0.31093 -0.35626,-1.67894 -0.61062,-3.04002 l -0.46248,-2.4747 -0.30043,2.07782 c -0.16523,1.1428 -0.38312,2.5578 -0.4842,3.14443 l -0.18378,1.06661 1.09483,-0.10441 c 0.96773,-0.0923 1.07763,-0.17003 0.94668,-0.66973 z m 5.61092,0.68357 c 0.068,-5.67983 0.009,-7.30742 -0.29978,-8.20229 l -0.38463,-1.1164 0.69666,-0.0421 c 0.38316,-0.0232 1.36844,-0.0596 2.18951,-0.0809 l 1.49285,-0.0388 0.11458,1.33767 c 0.0903,1.05438 2.28309,7.46783 2.46819,7.21897 0.1938,-0.26055 -0.38336,-7.33595 -0.63656,-7.80346 -0.41191,-0.7606 -0.0735,-0.91945 1.71629,-0.80565 1.27208,0.0809 1.28753,0.0926 1.157,0.87572 -0.0728,0.43656 -0.13229,3.65125 -0.13229,7.14375 0,4.81473 0.0886,6.55995 0.36634,7.21838 0.20149,0.47761 0.3109,0.92382 0.24313,0.99159 -0.0678,0.0678 -0.88507,0.15325 -1.81624,0.18995 l -1.69302,0.0668 -0.16777,-1.32292 c -0.0923,-0.72761 -0.4688,-2.09682 -0.83673,-3.04271 -0.58215,-1.49662 -1.7294,-4.62184 -2.13679,-5.82083 -0.0742,-0.21828 -0.13783,0.91281 -0.14147,2.51354 -0.007,3.0156 0.2926,6.53654 0.62448,7.34219 0.16887,0.40996 0.0132,0.46304 -1.35893,0.46322 l -1.54966,2.1e-4 z m 10.99719,6.90343 c -0.54009,-0.10615 -0.54593,-0.14879 -0.1672,-1.22074 0.32403,-0.91712 0.36487,-2.24077 0.23425,-7.59305 -0.087,-3.56526 -0.23402,-6.75018 -0.32669,-7.0776 -0.16431,-0.58057 -0.1178,-0.59531 1.8776,-0.59531 2.00879,0 2.0422,0.0109 1.83246,0.59531 -0.1175,0.32742 -0.25646,3.49778 -0.3088,7.04524 -0.0784,5.3157 -0.023,6.66165 0.31507,7.6539 0.22563,0.66219 0.41023,1.2423 0.41023,1.28914 0,0.11781 -3.17986,0.0381 -3.86692,-0.0969 z m 7.12091,-0.33641 c -1.56325,-0.95317 -1.66649,-1.45316 -1.66649,-8.07125 v -5.97015 l 0.86227,-0.94089 c 0.85276,-0.93053 0.88769,-0.94142 3.16893,-0.98831 2.2779,-0.0468 2.31746,-0.0366 3.17263,0.81707 l 0.86596,0.86448 0.073,6.14698 c 0.0836,7.03587 -0.0652,7.72571 -1.79281,8.31486 -1.47935,0.50449 -3.70756,0.42228 -4.68351,-0.17279 z m 3.59198,-2.10126 c 0.28776,-0.18227 0.33052,-0.80283 0.20484,-2.97251 -0.0874,-1.50818 -0.16172,-4.0816 -0.16524,-5.71871 l -0.006,-2.97656 h -1.21924 -1.21925 l 0.14332,5.88698 c 0.0788,3.23783 0.15124,5.91674 0.16091,5.95312 0.046,0.1729 1.78067,0.0306 2.10106,-0.17232 z m 4.9481,1.75982 c 0.11776,-0.32742 0.25641,-3.59653 0.3081,-7.2647 0.0793,-5.62528 0.03,-6.79307 -0.31458,-7.45946 -0.22471,-0.43454 -0.3133,-0.84895 -0.19687,-0.92091 0.11642,-0.072 1.13016,-0.0614 2.25274,0.0235 l 2.04106,0.15437 -0.15478,0.82502 c -0.16372,0.87271 0.70255,3.90723 1.71164,5.9958 0.30266,0.62643 0.55029,1.35473 0.55029,1.61844 0,0.26371 0.12609,0.47947 0.2802,0.47947 0.15411,0 0.21372,-0.10756 0.13247,-0.23902 -0.0813,-0.13146 -0.20998,-1.81111 -0.28608,-3.73255 -0.0761,-1.92144 -0.25477,-3.71105 -0.39706,-3.97692 -0.48025,-0.89736 -0.29423,-1.04734 1.29902,-1.04734 h 1.55772 l -0.0243,4.16719 c -0.0297,5.08815 0.24355,10.0745 0.60401,11.02258 0.33873,0.89092 0.0379,1.02724 -1.87696,0.85055 -0.78171,-0.0721 -1.61342,-0.13883 -1.84823,-0.14823 -0.31634,-0.0127 -0.42694,-0.28222 -0.42694,-1.0405 0,-0.5748 -0.52532,-2.4015 -1.19839,-4.16719 -0.65911,-1.72908 -1.25685,-3.3819 -1.3283,-3.67294 -0.0715,-0.29104 -0.13504,0.84005 -0.1413,2.51354 -0.0112,2.98554 0.20883,5.2332 0.60209,6.15156 0.17759,0.41472 0.0127,0.46302 -1.58069,0.46302 -1.7319,0 -1.77329,-0.0157 -1.56484,-0.59531 z m 7.97803,-11.99996 c -0.0879,-0.0879 -0.31613,-0.0973 -0.50712,-0.0209 -0.21107,0.0845 -0.14838,0.14715 0.15985,0.15985 0.27891,0.0115 0.43518,-0.0511 0.34727,-0.13897 z m -105.30489,24.87012 c -0.0932,-0.0932 -0.37954,-0.0887 -0.6364,0.01 -0.39611,0.152 -0.40823,0.21554 -0.0798,0.41854 0.40561,0.25068 1.02484,-0.1197 0.71617,-0.42837 z m -39.61512,0.17619 c 0,-0.13694 -0.11907,-0.32256 -0.26459,-0.41249 -0.14552,-0.0899 -0.26458,0.0221 -0.26458,0.24896 0,0.22687 0.11906,0.41249 0.26458,0.41249 0.14552,0 0.26459,-0.11203 0.26459,-0.24896 z m 70.12285,-2.72922 c 0.76636,-1.03656 0.57137,-1.11046 -0.47147,-0.17868 -0.72112,0.64432 -0.85784,0.95004 -0.8481,1.89636 l 0.0116,1.12821 0.37023,-1.03916 c 0.20363,-0.57153 0.6256,-1.38456 0.93773,-1.80673 z m -69.06452,2.18443 c 0,-0.14552 -0.11906,-0.26458 -0.26458,-0.26458 -0.14552,0 -0.26459,0.11906 -0.26459,0.26458 0,0.14552 0.11907,0.26459 0.26459,0.26459 0.14552,0 0.26458,-0.11907 0.26458,-0.26459 z m 36.71645,-0.21497 c 0.0576,-0.17281 -0.0838,-0.31419 -0.31419,-0.31419 -0.23041,0 -0.41893,0.18851 -0.41893,0.41892 0,0.46724 0.56959,0.38587 0.73312,-0.10473 z m -39.0977,-0.1819 c 0,-0.21828 -0.11906,-0.39688 -0.26458,-0.39688 -0.14552,0 -0.26459,0.1786 -0.26459,0.39688 0,0.21828 0.11907,0.39687 0.26459,0.39687 0.14552,0 0.26458,-0.17859 0.26458,-0.39687 z m 40.74583,-0.26458 c 0,-0.21829 -0.17859,-0.39688 -0.39687,-0.39688 -0.21828,0 -0.39688,0.17859 -0.39688,0.39688 0,0.21828 0.1786,0.39687 0.39688,0.39687 0.21828,0 0.39687,-0.17859 0.39687,-0.39687 z m -36.5125,-0.1323 c 0,-0.14552 -0.12609,-0.26458 -0.2802,-0.26458 -0.1541,0 -0.20661,0.11906 -0.11667,0.26458 0.0899,0.14552 0.21603,0.26459 0.2802,0.26459 0.0642,0 0.11667,-0.11907 0.11667,-0.26459 z m 32.80834,-0.39687 c 0,-0.21828 -0.11907,-0.39688 -0.26459,-0.39688 -0.14552,0 -0.26458,0.1786 -0.26458,0.39688 0,0.21828 0.11906,0.39687 0.26458,0.39687 0.14552,0 0.26459,-0.17859 0.26459,-0.39687 z m -35.18959,-0.13229 c 0,-0.14552 -0.17859,-0.26459 -0.39687,-0.26459 -0.21828,0 -0.39688,0.11907 -0.39688,0.26459 0,0.14552 0.1786,0.26458 0.39688,0.26458 0.21828,0 0.39687,-0.11906 0.39687,-0.26458 z m 1.32292,-0.13229 c 0,-0.21829 -0.11906,-0.39688 -0.26458,-0.39688 -0.14552,0 -0.26459,0.17859 -0.26459,0.39688 0,0.21828 0.11907,0.39687 0.26459,0.39687 0.14552,0 0.26458,-0.17859 0.26458,-0.39687 z m 2.91042,-0.1323 c 0,-0.14552 -0.11907,-0.26458 -0.26459,-0.26458 -0.14552,0 -0.26458,0.11906 -0.26458,0.26458 0,0.14552 0.11906,0.26459 0.26458,0.26459 0.14552,0 0.26459,-0.11907 0.26459,-0.26459 z m 33.27148,-0.19843 c 0.0691,-0.20766 -0.14425,-0.33073 -0.57339,-0.33073 -0.66777,0 -0.87003,0.25445 -0.49797,0.6265 0.27219,0.2722 0.944,0.0867 1.07136,-0.29577 z m -3.90273,-0.0505 c 0,-0.13694 -0.11907,-0.32256 -0.26459,-0.41249 -0.14552,-0.0899 -0.26458,0.0221 -0.26458,0.24896 0,0.22687 0.11906,0.41249 0.26458,0.41249 0.14552,0 0.26459,-0.11203 0.26459,-0.24896 z m -30.1625,-0.1323 c 0,-0.27926 -0.50777,-0.39658 -0.65879,-0.15222 -0.0914,0.1479 0.0194,0.2689 0.2463,0.2689 0.22687,0 0.41249,-0.0525 0.41249,-0.11668 z m 1.17349,-0.38476 c 0.0805,-0.13027 -0.0315,-0.30513 -0.24897,-0.38857 -0.24015,-0.0922 -0.39536,7.9e-4 -0.39536,0.23685 0,0.42794 0.41345,0.52529 0.64433,0.15172 z m 1.73692,-0.0277 c 0,-0.14552 -0.11906,-0.26458 -0.26458,-0.26458 -0.14552,0 -0.26458,0.11906 -0.26458,0.26458 0,0.14552 0.11906,0.26459 0.26458,0.26459 0.14552,0 0.26458,-0.11907 0.26458,-0.26459 z m 25.57328,-0.1437 c 0.21211,-0.55273 0.07,-0.63034 -0.65329,-0.35686 -0.33678,0.12733 -0.53811,0.35157 -0.44741,0.49833 0.25051,0.40532 0.9241,0.31875 1.1007,-0.14147 z m 2.47256,-0.26879 c 0,-0.22687 -0.11907,-0.3389 -0.26459,-0.24896 -0.14552,0.0899 -0.26458,0.27555 -0.26458,0.41249 0,0.13693 0.11906,0.24896 0.26458,0.24896 0.14552,0 0.26459,-0.18562 0.26459,-0.41249 z m -34.39584,-0.11667 c 0,-0.14552 -0.11906,-0.26459 -0.26458,-0.26459 -0.14552,0 -0.26458,0.11907 -0.26458,0.26459 0,0.14552 0.11906,0.26458 0.26458,0.26458 0.14552,0 0.26458,-0.11906 0.26458,-0.26458 z m 1.98438,0 c 0.0899,-0.14552 -0.0221,-0.26459 -0.24897,-0.26459 -0.22687,0 -0.41249,0.11907 -0.41249,0.26459 0,0.14552 0.11204,0.26458 0.24897,0.26458 0.13693,0 0.32255,-0.11906 0.41249,-0.26458 z m 7.54062,-0.13229 c 0,-0.21829 -0.11906,-0.39688 -0.26458,-0.39688 -0.14552,0 -0.26458,0.17859 -0.26458,0.39688 0,0.21828 0.11906,0.39687 0.26458,0.39687 0.14552,0 0.26458,-0.17859 0.26458,-0.39687 z m 26.72292,0.13229 c 0,-0.14552 -0.17859,-0.26459 -0.39688,-0.26459 -0.21828,0 -0.39687,0.11907 -0.39687,0.26459 0,0.14552 0.17859,0.26458 0.39687,0.26458 0.21829,0 0.39688,-0.11906 0.39688,-0.26458 z m -32.94063,-0.26459 c 0.0899,-0.14552 0.0374,-0.26458 -0.11667,-0.26458 -0.15411,0 -0.2802,0.11906 -0.2802,0.26458 0,0.14552 0.0525,0.26459 0.11668,0.26459 0.0642,0 0.19026,-0.11907 0.28019,-0.26459 z m 4.36563,0 c 0,-0.14552 -0.17859,-0.26458 -0.39688,-0.26458 -0.21828,0 -0.39687,0.11906 -0.39687,0.26458 0,0.14552 0.17859,0.26459 0.39687,0.26459 0.21829,0 0.39688,-0.11907 0.39688,-0.26459 z m 21.69583,0 c 0,-0.14552 -0.17859,-0.26458 -0.39687,-0.26458 -0.21828,0 -0.39688,0.11906 -0.39688,0.26458 0,0.14552 0.1786,0.26459 0.39688,0.26459 0.21828,0 0.39687,-0.11907 0.39687,-0.26459 z m 3.70417,0 c 0,-0.14552 -0.11906,-0.26458 -0.26458,-0.26458 -0.14552,0 -0.26459,0.11906 -0.26459,0.26458 0,0.14552 0.11907,0.26459 0.26459,0.26459 0.14552,0 0.26458,-0.11907 0.26458,-0.26459 z m -27.32374,-0.15985 c -0.0879,-0.0879 -0.31612,-0.0973 -0.50712,-0.0209 -0.21107,0.0845 -0.14837,0.14716 0.15985,0.15986 0.27892,0.0115 0.43519,-0.0511 0.34727,-0.13897 z m 21.50291,-0.10473 c 0,-0.14552 -0.0525,-0.26458 -0.11668,-0.26458 -0.0642,0 -0.19026,0.11906 -0.2802,0.26458 -0.0899,0.14552 -0.0374,0.26458 0.11668,0.26458 0.15411,0 0.2802,-0.11906 0.2802,-0.26458 z m 7.47448,-3.70392 5.4901,-2.5e-4 v -0.6186 -0.61861 l -10.78177,0.0459 c -5.92997,0.0253 -15.38156,0.0655 -21.00353,0.0894 l -10.22176,0.0435 -0.13468,0.7045 -0.13467,0.7045 15.6481,-0.17509 c 8.60646,-0.0963 18.11865,-0.1752 21.13821,-0.17533 z m -65.20418,-20.34195 c 0.23786,-0.68231 0.21274,-0.74865 -0.2387,-0.6306 -0.31828,0.0832 -0.50452,0.36472 -0.50452,0.76254 0,0.86702 0.42104,0.79228 0.74322,-0.13194 z m -0.21405,-4.41245 c 0,-0.2097 -0.11907,-0.38126 -0.26459,-0.38126 -0.14552,0 -0.26458,0.24515 -0.26458,0.54478 0,0.29963 0.11906,0.4712 0.26458,0.38126 0.14552,-0.0899 0.26459,-0.33509 0.26459,-0.54478 z m 1.5013,-0.66337 c 0.8473,-0.32214 0.76803,-1.39722 -0.11224,-1.52223 -0.32742,-0.0465 -0.59531,0.0296 -0.59531,0.16904 0,0.13947 0.19554,0.23705 0.43454,0.21684 0.68505,-0.0579 0.71952,0.55901 0.043,0.77021 -0.70771,0.22095 -1.04176,0.64213 -0.80856,1.01946 0.0995,0.16092 0.2069,0.13332 0.27487,-0.0706 0.0614,-0.18414 0.40503,-0.44636 0.76366,-0.58271 z m -1.05313,-0.6822 c 0.10223,-0.26641 -0.0232,-0.57419 -0.32346,-0.79375 -0.6367,-0.46556 -0.91846,-0.45383 -0.91846,0.0383 0,0.21828 0.11532,0.39687 0.25628,0.39687 0.14095,0 0.18774,0.17859 0.10398,0.39688 -0.0972,0.25325 0.005,0.39687 0.28119,0.39687 0.23842,0 0.50863,-0.19581 0.60047,-0.43514 z m 3.13095,-0.63121 c 0.38455,-0.42491 0.43344,-0.68702 0.23398,-1.2542 -0.2452,-0.69723 -1.16727,-1.17851 -1.16727,-0.60927 0,0.15619 0.18687,0.28399 0.41528,0.28399 0.49768,0 0.42424,1.09053 -0.0847,1.25815 -0.2106,0.0694 -0.27204,-0.0444 -0.16898,-0.313 0.11436,-0.29802 0.0467,-0.37778 -0.23026,-0.27149 -0.22,0.0844 -0.46162,-0.0304 -0.55032,-0.26158 -0.17618,-0.45912 -1.23307,-0.57216 -1.23307,-0.13189 0,0.15411 -0.11084,0.2117 -0.2463,0.12798 -0.13547,-0.0837 -0.31601,-0.0394 -0.4012,0.0984 -0.28222,0.45665 0.45701,0.64105 0.78295,0.19531 0.45045,-0.61603 0.57574,-0.55896 1.07291,0.48874 0.50235,1.05864 0.8854,1.15309 1.57701,0.38886 z m 26.31879,-1.18261 v -1.71979 h -2.87478 -2.87479 l 1.61801,1.71392 c 1.54589,1.63751 1.67405,1.71418 2.87479,1.71979 l 1.25677,0.006 z m -0.92604,1.19063 c 0.0899,-0.14552 0.21603,-0.26459 0.2802,-0.26459 0.0642,0 0.11668,0.11907 0.11668,0.26459 0,0.14552 -0.12609,0.26458 -0.2802,0.26458 -0.15411,0 -0.20662,-0.11906 -0.11668,-0.26458 z m -1.21,-0.29701 c -0.60329,-0.16857 -0.59413,-0.18125 0.15167,-0.20984 0.55029,-0.0211 0.68393,-0.10001 0.4357,-0.25731 -0.27927,-0.17697 -0.29178,-0.3507 -0.0568,-0.7897 0.41908,-0.78306 0.0732,-0.7026 -0.7083,0.16479 l -0.65559,0.72761 0.15817,-0.66146 c 0.087,-0.3638 0.15979,-0.75076 0.16178,-0.8599 0.002,-0.10914 0.35252,-0.19843 0.77896,-0.19843 0.59662,0 0.79951,0.13722 0.88015,0.59531 0.10456,0.59392 0.10549,0.59377 0.39851,-0.0662 0.28122,-0.63335 0.29441,-0.63667 0.31047,-0.0782 0.0256,0.88945 -1.06854,1.85293 -1.85469,1.63325 z m -1.67587,-0.9862 c -0.23635,-0.38243 0.11097,-1.09804 0.53293,-1.09804 0.45966,0 0.45631,0.25894 -0.0113,0.87573 -0.20229,0.2668 -0.43328,0.36524 -0.52161,0.22231 z m 44.69004,1.4149 c 0.14552,-0.0495 -7.97347,-0.0993 -18.0422,-0.11081 -10.51018,-0.012 -18.3691,0.08 -18.45311,0.21588 -0.13373,0.21639 35.85425,0.11278 36.49531,-0.10507 z m 107.70732,-0.0656 c -0.24985,-0.24966 -78.59158,-0.26454 -79.20823,-0.015 -0.24929,0.10086 17.38606,0.18002 39.18966,0.17591 21.80361,-0.004 39.7126,0.0622 39.79775,0.14733 0.0851,0.0851 0.21435,0.0953 0.28711,0.0225 0.0728,-0.0728 0.0429,-0.22159 -0.0663,-0.33073 z m -175.50282,-2.91859 c -1.82434,-0.0409 -3.34359,-0.0409 -3.37612,0 -0.0325,0.0409 -0.13486,0.39045 -0.2274,0.77683 -0.14545,0.60727 -0.0967,0.68379 0.35965,0.56445 0.29035,-0.0759 0.52791,-0.30276 0.52791,-0.50407 0,-0.45433 0.37177,-0.4665 1.07804,-0.0353 0.4582,0.27975 0.59738,0.25566 0.90302,-0.15629 0.3707,-0.49965 1.18846,-0.4318 1.9276,0.15995 0.25596,0.20491 0.2984,0.14951 0.17684,-0.23082 -0.15266,-0.47763 -0.14082,-0.47697 0.25952,0.0145 0.28068,0.34458 0.3316,0.60281 0.15389,0.78052 -0.14607,0.14607 -0.26381,0.39059 -0.26164,0.54339 0.002,0.15279 0.40708,-0.19844 0.8998,-0.78052 l 0.89587,-1.05834 z m 33.21446,1.7412 c 0.44182,-0.44182 0.39617,-1.13992 -0.10156,-1.55299 -0.82482,-0.68455 -1.85843,0.64223 -1.15789,1.48632 0.38772,0.46718 0.83524,0.49087 1.25945,0.0667 z m 4.23333,0 c 0.78993,-0.78994 -0.0862,-2.02655 -1.06473,-1.50284 -0.45856,0.24541 -0.64539,1.29202 -0.29346,1.64395 0.28081,0.28081 1.01227,0.20481 1.35819,-0.14111 z m 4.22609,-0.31759 c 0.41696,-0.91511 -0.13944,-1.62166 -1.0893,-1.38326 -0.55223,0.1386 -0.70262,0.33573 -0.70262,0.92096 0,0.8952 0.17091,1.09739 0.92767,1.09739 0.35009,0 0.68804,-0.24834 0.86425,-0.63509 z m 4.2432,-0.20701 c 0.13508,-1.16922 -1.49636,-1.65838 -1.91268,-0.57349 -0.27127,0.70694 0.343,1.45516 1.12087,1.3653 0.54756,-0.0633 0.72856,-0.24426 0.79181,-0.79181 z m 12.87982,0.0571 c 0.20752,-0.65383 -0.0892,-1.28317 -0.69583,-1.4757 -0.67059,-0.21283 -1.28578,0.30838 -1.28578,1.08937 0,1.10404 1.65162,1.42604 1.98161,0.38633 z m 4.12046,-0.0398 c 0.37848,-0.70719 -0.13588,-1.55637 -0.9427,-1.55637 -0.81217,0 -1.32134,0.84887 -0.93838,1.56444 0.48659,0.90919 1.39226,0.90531 1.88108,-0.008 z m 4.23334,0 c 0.41579,-0.77692 -0.15027,-1.60733 -1.02664,-1.50608 -0.56605,0.0654 -0.72781,0.24012 -0.79866,0.8627 -0.15362,1.34999 1.19309,1.82468 1.8253,0.64338 z m 69.14401,0.4811 c 0.31278,-0.22871 0.4404,-0.60508 0.3813,-1.12448 -0.0744,-0.65399 -0.22055,-0.79357 -0.90028,-0.86 -0.65388,-0.0639 -0.87146,0.0524 -1.12058,0.59921 -0.26295,0.57711 -0.23065,0.757 0.21612,1.20378 0.61788,0.61788 0.79565,0.64054 1.42344,0.18149 z m 3.97772,-0.072 c 0.76175,-0.76174 0.34738,-1.96547 -0.67657,-1.96547 -0.54549,0 -1.2889,0.68672 -1.2889,1.19062 0,0.46326 0.72736,1.19063 1.19062,1.19063 0.19749,0 0.54618,-0.1871 0.77485,-0.41578 z m -90.38922,-0.16631 c 0.17462,-0.17462 0.3175,-0.58907 0.3175,-0.921 0,-0.83378 -1.25079,-1.16743 -1.76096,-0.46973 -0.38156,0.52181 -0.46621,1.24495 -0.17932,1.53184 0.28748,0.28749 1.28054,0.20113 1.62278,-0.14111 z m 4.24129,0.0863 c 0.19988,-0.12672 0.31418,-0.55361 0.26458,-0.98814 -0.0747,-0.65425 -0.20228,-0.76504 -0.88108,-0.76504 -0.62737,0 -0.81187,0.12784 -0.88021,0.60987 -0.14767,1.04169 0.67079,1.66689 1.49671,1.14331 z m 45.23579,-0.0863 c 0.52965,-0.52965 0.35738,-1.26317 -0.37504,-1.59688 -0.61061,-0.27822 -0.75101,-0.24334 -1.18678,0.29482 -0.37716,0.46576 -0.43027,0.72992 -0.2242,1.11497 0.30292,0.56601 1.3024,0.67071 1.78602,0.18709 z m 3.88456,-0.11235 c 0.23642,-0.23642 0.39375,-0.6829 0.34963,-0.99219 -0.1058,-0.74154 -1.2441,-0.92185 -1.71905,-0.27231 -0.44417,0.60744 -0.43506,0.7733 0.0702,1.27858 0.52502,0.52502 0.76267,0.52245 1.2992,-0.0141 z m 4.23805,-0.19432 c 0.44151,-0.67383 0.31819,-1.36458 -0.28494,-1.59602 -0.93178,-0.35756 -1.87763,0.83457 -1.39418,1.75717 0.34364,0.6558 1.19753,0.57384 1.67912,-0.16115 z m 4.05618,0.39298 c 0.19988,-0.12672 0.31419,-0.55361 0.26459,-0.98814 -0.0747,-0.65425 -0.20229,-0.76504 -0.88109,-0.76504 -0.62737,0 -0.81187,0.12784 -0.8802,0.60987 -0.14768,1.04169 0.67078,1.66689 1.4967,1.14331 z m 4.64679,-0.36412 c 0.3985,-0.6357 -0.0876,-1.36488 -0.98127,-1.47189 -0.55506,-0.0665 -0.72548,0.0518 -0.86275,0.59875 -0.32457,1.29317 1.14463,1.98884 1.84402,0.87314 z m 3.75604,-0.0656 c 0.23961,-0.95471 -0.0418,-1.4558 -0.81747,-1.4558 -0.78624,0 -1.27416,0.91144 -0.88524,1.65364 0.38041,0.72597 1.5036,0.59546 1.70271,-0.19784 z m 4.06546,0.27855 c 0.17451,-0.21027 0.27838,-0.65675 0.23083,-0.99219 -0.15854,-1.1184 -2.07083,-0.84539 -2.07083,0.29565 0,0.97327 1.22536,1.43714 1.84,0.69654 z m 4.28999,-0.27131 c 0.38898,-0.85372 -0.12261,-1.52159 -1.08026,-1.41027 -0.69864,0.0812 -1.0293,0.86286 -0.71333,1.68626 0.24715,0.64405 1.45938,0.45752 1.79359,-0.27599 z m 3.87126,0.33612 c 0.79738,-0.79737 0.006,-1.97755 -1.13427,-1.69138 -0.5131,0.12878 -0.66489,0.33687 -0.66489,0.91149 0,0.40954 0.0794,0.82399 0.17639,0.921 0.28748,0.28749 1.28053,0.20113 1.62277,-0.14111 z m 12.47808,-0.1925 c 0.52899,-0.98842 -0.39297,-1.85024 -1.57724,-1.47437 -0.52082,0.1653 -0.76157,1.39919 -0.35278,1.80798 0.38542,0.38542 1.66344,0.16451 1.93002,-0.33361 z m 3.98507,-0.0252 c 0.41677,-0.41677 0.47539,-0.64704 0.26486,-1.04041 -0.64564,-1.20639 -2.12301,-0.8392 -2.12301,0.52766 0,1.11477 0.98447,1.38643 1.85815,0.51275 z m 4.17435,0.21773 c 0.49587,-0.49586 0.3743,-1.48557 -0.22166,-1.80451 -1.17352,-0.62805 -2.16414,0.48614 -1.40096,1.57573 0.42705,0.6097 1.14104,0.71037 1.62262,0.22878 z m 4.44758,-0.25864 c 0.0842,-0.13622 0.0783,-0.54581 -0.0132,-0.91019 -0.14056,-0.56002 -0.2979,-0.64979 -1.0171,-0.58027 -0.67232,0.065 -0.86997,0.21789 -0.94209,0.72886 -0.0538,0.38093 0.0872,0.77713 0.34303,0.9642 0.45567,0.3332 1.36836,0.21971 1.62936,-0.2026 z m 4.01909,0.25864 c 0.44271,-0.44271 0.39626,-1.40442 -0.0872,-1.80567 -0.30946,-0.25682 -0.55855,-0.26578 -1.05833,-0.0381 -1.06101,0.48343 -0.74682,2.16124 0.40471,2.16124 0.23283,0 0.5662,-0.14287 0.74083,-0.3175 z m 3.91986,0.11501 c 0.16229,-0.10691 0.37469,-0.44973 0.472,-0.76181 0.32249,-1.03424 -1.13102,-1.87321 -1.90478,-1.09945 -0.903,0.903 0.3724,2.55982 1.43278,1.86126 z m 4.32305,-0.17982 c 0.17451,-0.21027 0.27839,-0.65675 0.23084,-0.99219 -0.0715,-0.50414 -0.247,-0.60987 -1.0125,-0.60987 -0.7655,0 -0.94103,0.10573 -1.0125,0.60987 -0.16386,1.15592 1.08508,1.84659 1.79416,0.99219 z m 4.09423,-0.0335 c 0.22868,-0.22868 0.41578,-0.57736 0.41578,-0.77485 0,-0.46326 -0.72737,-1.19063 -1.19063,-1.19063 -0.50389,0 -1.19062,0.74341 -1.19062,1.2889 0,1.02396 1.20373,1.43832 1.96547,0.67658 z m -106.3436,-3.04532 c 0.43986,-0.12385 -7.39994,-0.16381 -17.58409,-0.0896 -10.10781,0.0736 -18.43226,0.18827 -18.49878,0.25479 -0.22348,0.22348 35.27972,0.061 36.08287,-0.16515 z m 92.86875,0.0129 c 13.83777,-0.0807 14.5788,-0.10541 7.54063,-0.25148 -4.29287,-0.0891 -8.87677,-0.14271 -10.18646,-0.11913 -1.30969,0.0236 -15.71625,0.0876 -32.01459,0.14238 l -29.63333,0.0995 19.71146,0.13484 c 10.8413,0.0742 21.85458,0.12325 24.47396,0.1091 2.61937,-0.0142 11.66812,-0.066 20.10833,-0.11522 z m -126.60312,-1.31426 c 0,-0.14552 -0.53578,-0.26458 -1.19063,-0.26458 -0.65484,0 -1.19062,0.11906 -1.19062,0.26458 0,0.14552 0.53578,0.26459 1.19062,0.26459 0.65485,0 1.19063,-0.11907 1.19063,-0.26459 z m 3.83645,0 c -0.0899,-0.14552 -0.69227,-0.26458 -1.33853,-0.26458 -0.64625,0 -1.17501,0.11906 -1.17501,0.26458 0,0.14552 0.60234,0.26459 1.33854,0.26459 0.82497,0 1.27579,-0.10152 1.175,-0.26459 z m 3.57188,0 c 0,-0.14552 -0.53578,-0.26458 -1.19063,-0.26458 -0.65484,0 -1.19062,0.11906 -1.19062,0.26458 0,0.14552 0.53578,0.26459 1.19062,0.26459 0.65485,0 1.19063,-0.11907 1.19063,-0.26459 z m 3.70417,0 c 0,-0.14552 -0.59532,-0.26458 -1.32292,-0.26458 -0.7276,0 -1.32292,0.11906 -1.32292,0.26458 0,0.14552 0.59532,0.26459 1.32292,0.26459 0.7276,0 1.32292,-0.11907 1.32292,-0.26459 z m 4.35432,0.0183 c 0.0837,-0.13547 0.061,-0.29256 -0.0505,-0.3491 -0.38196,-0.19365 -2.98088,0.11703 -2.98088,0.35635 0,0.31653 2.8355,0.30974 3.03141,-0.007 z m 4.37693,-0.15058 c 0,-0.43181 -0.39593,-0.47867 -1.91823,-0.22705 -1.47966,0.24457 -1.19814,0.62393 0.46302,0.62393 1.11713,0 1.45521,-0.0922 1.45521,-0.39688 z m 3.9026,0.14791 c 0.1819,-0.009 0.33073,-0.1412 0.33073,-0.2947 0,-0.37261 -2.44242,-0.20833 -2.56764,0.1727 -0.0608,0.18495 0.26814,0.26272 0.90536,0.21405 0.55045,-0.042 1.14965,-0.0835 1.33155,-0.0921 z m 5.02841,-0.21405 c 0.12302,-0.37357 -1.92549,-0.47247 -2.75781,-0.13315 -0.36955,0.15066 -0.2333,0.23708 0.57367,0.36386 1.44113,0.22642 2.05494,0.16158 2.18414,-0.23071 z m 4.49659,0.30468 c 0.47294,-0.0716 0.8599,-0.24389 0.8599,-0.38282 0,-0.27637 -2.6132,-0.35004 -3.28414,-0.0926 -1.09759,0.42119 0.59301,0.75272 2.42424,0.4754 z m 32.01458,-0.008 c 1.11687,-0.29931 0.59833,-0.62698 -0.99218,-0.62698 -0.87313,0 -1.5875,0.10914 -1.5875,0.24253 0,0.48491 1.41689,0.69607 2.57968,0.38445 z m 5.29282,-0.29625 c 0.0792,-0.24006 -0.3279,-0.33073 -1.48484,-0.33073 -1.50252,0 -2.10469,0.22603 -1.69462,0.63609 0.31342,0.31343 3.06243,0.0494 3.17946,-0.30536 z m 4.23344,0 c 0.0792,-0.24029 -0.33118,-0.33073 -1.50056,-0.33073 -1.49911,0 -1.88131,0.16921 -1.42128,0.62924 0.3145,0.3145 2.80363,0.0602 2.92184,-0.29851 z m 4.03364,0.0661 c 0,-0.30467 -0.33808,-0.39687 -1.45521,-0.39687 -1.11713,0 -1.45521,0.0922 -1.45521,0.39687 0,0.30467 0.33808,0.39688 1.45521,0.39688 1.11713,0 1.45521,-0.0922 1.45521,-0.39688 z m 3.77378,0 c -0.0345,-0.14552 -0.65954,-0.30057 -1.38906,-0.34455 -1.22894,-0.0741 -1.60059,0.11445 -1.1378,0.57724 0.28462,0.28461 2.59892,0.0715 2.52686,-0.23269 z m 3.89914,-0.0661 c 0,-0.22049 -0.44098,-0.33073 -1.32292,-0.33073 -0.88194,0 -1.32292,0.11024 -1.32292,0.33073 0,0.22048 0.44098,0.33073 1.32292,0.33073 0.88194,0 1.32292,-0.11025 1.32292,-0.33073 z m 3.70416,-0.0928 c 0,-0.13087 -0.59531,-0.23794 -1.32291,-0.23794 -1.16513,0 -1.57563,0.18826 -1.20929,0.5546 0.21255,0.21255 2.5322,-0.0775 2.5322,-0.31666 z m 3.55545,6e-5 c -0.18528,-0.29978 -2.49711,-0.316 -2.49711,-0.0175 0,0.39715 0.21168,0.449 1.43574,0.35164 0.66466,-0.0529 1.14227,-0.20321 1.06137,-0.33412 z m 3.5883,0.15887 c 0,-0.29986 -0.32338,-0.39687 -1.32291,-0.39687 -1.22945,0 -1.57684,0.18705 -1.14653,0.61736 0.097,0.097 0.69232,0.17639 1.32292,0.17639 0.84274,0 1.14652,-0.10516 1.14652,-0.39688 z m 3.63939,-0.0661 c 0.0775,-0.23549 -0.27844,-0.33073 -1.23609,-0.33073 -1.0402,0 -1.34496,0.0932 -1.34496,0.41137 0,0.32491 0.25979,0.39442 1.23609,0.33073 0.69084,-0.0451 1.28411,-0.22653 1.34496,-0.41137 z m 3.17363,0.22019 c 1.21527,-0.0444 0.54632,-0.55092 -0.7276,-0.55092 -1.01265,0 -1.32292,0.0952 -1.32292,0.40592 0,0.29543 0.19806,0.37338 0.72761,0.28634 0.40018,-0.0658 0.99549,-0.12937 1.32291,-0.14134 z m 4.56407,-0.15405 c 0,-0.30467 -0.33808,-0.39687 -1.45521,-0.39687 -1.11713,0 -1.45521,0.0922 -1.45521,0.39687 0,0.30467 0.33808,0.39688 1.45521,0.39688 1.11713,0 1.45521,-0.0922 1.45521,-0.39688 z m 3.34036,0.13229 c 0.34561,0 0.62839,-0.11906 0.62839,-0.26458 0,-0.14552 -0.65485,-0.26458 -1.45521,-0.26458 -1.16688,0 -1.45521,0.0852 -1.45521,0.42994 0,0.34044 0.17215,0.39552 0.82682,0.26459 0.45476,-0.0909 1.1096,-0.16537 1.45521,-0.16537 z m 3.24115,0.0992 c 1.22441,-0.24488 1.00238,-0.62838 -0.3638,-0.62838 -0.88195,0 -1.19063,0.10289 -1.19063,0.39687 0,0.43536 0.30675,0.48105 1.55443,0.23151 z m 4.53099,-0.39044 c 0,-0.13087 -0.53578,-0.23794 -1.19063,-0.23794 -0.77975,0 -1.19062,0.11479 -1.19062,0.33263 0,0.23188 0.36066,0.30395 1.19062,0.23794 0.65485,-0.0521 1.19063,-0.20176 1.19063,-0.33263 z m 10.36243,0.29122 c 0.51882,0 0.75524,-0.11467 0.6819,-0.33073 -0.0739,-0.21769 -0.51095,-0.29895 -1.27882,-0.23776 -1.32669,0.10572 -1.42341,0.1529 -1.16629,0.56893 0.10205,0.16512 0.36184,0.23257 0.5773,0.14989 0.21547,-0.0827 0.74913,-0.15033 1.18591,-0.15033 z m -6.92285,-0.24518 c 0,-0.31497 -0.72699,-0.45883 -1.65365,-0.32724 -1.16706,0.16572 -0.83809,0.57242 0.46302,0.57242 0.65485,0 1.19063,-0.11033 1.19063,-0.24518 z m 3.70417,-0.15169 c 0,-0.2932 -0.30695,-0.39688 -1.17501,-0.39688 -1.11995,0 -1.65311,0.25869 -1.28725,0.62456 0.0931,0.0931 0.68514,0.16919 1.31573,0.16919 0.84275,0 1.14653,-0.10515 1.14653,-0.39687 z m 7.40833,0 c 0,-0.2932 -0.30695,-0.39688 -1.17501,-0.39688 -1.11994,0 -1.65311,0.25869 -1.28724,0.62456 0.0931,0.0931 0.68513,0.16919 1.31572,0.16919 0.84275,0 1.14653,-0.10515 1.14653,-0.39687 z m 3.90948,0.0868 c -0.0568,-0.17056 -0.66209,-0.35694 -1.34497,-0.41417 -0.99461,-0.0834 -1.24159,-0.0217 -1.24159,0.31011 0,0.32151 0.30087,0.41416 1.34496,0.41416 0.91068,0 1.31159,-0.10013 1.2416,-0.3101 z m 3.69878,-0.15292 c 0.0663,-0.20173 -0.13203,-0.32932 -0.50861,-0.32711 -0.91368,0.005 -1.80798,0.28809 -1.80798,0.57162 0,0.37103 2.19019,0.13986 2.31659,-0.24451 z m -10.51868,50.740247 c 0,-0.142 0.23577,-0.64588 0.52393,-1.11972 0.28816,-0.47384 0.66505,-1.49211 0.83753,-2.26281 0.17247,-0.7707 0.43211,-1.36177 0.57696,-1.31349 0.14485,0.0483 0.43359,0.67672 0.64163,1.39652 0.20803,0.7198 0.66513,1.68774 1.01577,2.15098 1.05962,1.39989 0.78026,1.76776 -0.7439,0.97958 -0.76019,-0.39311 -0.88355,-0.39311 -1.54904,0 -0.82077,0.48485 -1.30288,0.54736 -1.30288,0.16894 z m -2.10147,-1.15706 c -0.15388,-0.40473 -0.27978,-0.90671 -0.27978,-1.11552 0,-0.21612 -0.25642,-0.38139 -0.59531,-0.3837 -0.58803,-0.004 -1.49059,-0.42083 -1.24911,-0.57687 1.15771,-0.74808 4.50495,-2.25519 4.61461,-2.07776 0.0812,0.13132 -0.2705,0.93207 -0.78147,1.77945 -0.51096,0.84738 -0.93115,1.71929 -0.93375,1.93757 -0.003,0.21828 -0.11514,0.57143 -0.25008,0.78478 -0.19641,0.31056 -0.30113,0.24117 -0.52511,-0.34795 z m 7.1514,-0.71016 c -0.15707,-0.73241 -0.53243,-1.81551 -0.83413,-2.40689 -0.66177,-1.29717 -0.49035,-1.58469 0.48489,-0.81326 0.3978,0.31467 1.40441,1.0806 2.23691,1.70207 0.83251,0.62147 1.51712,1.23175 1.52136,1.35618 0.004,0.12442 -0.46625,0.18103 -1.04553,0.12578 -0.95253,-0.0908 -1.07771,-0.0302 -1.30915,0.63367 -0.38127,1.09369 -0.73459,0.89345 -1.05435,-0.59755 z m 4.44896,0.0466 c -0.20392,-0.28309 -1.59115,-1.55264 -3.08274,-2.82122 -1.49159,-1.26857 -2.71198,-2.36806 -2.71198,-2.44331 0,-0.23591 3.82083,-4.879657 5.49588,-6.679567 1.26243,-1.35653 1.67019,-1.6523 1.93047,-1.40027 0.41133,0.39829 -0.12543,1.1794 -0.66751,0.97138 -0.20237,-0.0777 -0.83118,0.50599 -1.5135,1.40479 -1.6332,2.15139 -1.6064,2.06171 -0.8439,2.82422 0.46641,0.46641 0.65111,0.88729 0.57169,1.30273 -0.0645,0.33754 0.0403,0.76093 0.2329,0.94086 0.39519,0.369167 0.46837,1.260367 0.12112,1.474987 -0.12601,0.0779 -0.17451,0.42718 -0.10778,0.77622 0.0796,0.41639 -0.0667,0.8098 -0.42542,1.144 l -0.54673,0.50936 0.85295,0.51597 c 0.46912,0.28378 1.09108,0.51596 1.38212,0.51596 0.38728,0 0.52917,0.17639 0.52917,0.65784 0,0.82555 -0.71328,1.00496 -1.21674,0.30605 z m -1.18386,-3.12555 c 0.0935,-0.24359 0.0172,-0.53858 -0.17013,-0.6574 -0.45117,-0.28628 -0.73656,-0.2788 -0.73656,0.0193 0,0.13362 -0.0723,0.43128 -0.1606,0.66146 -0.11346,0.29566 -0.005,0.41852 0.36856,0.41852 0.29105,0 0.60547,-0.19884 0.69873,-0.44187 z m -1.15049,-1.19891 c 0.24744,-0.92522 0.0452,-1.813387 -0.59173,-2.598027 -0.52249,-0.64372 -0.53001,-0.64484 -0.4023,-0.0603 0.0837,0.38309 0.0285,0.53284 -0.15473,0.41961 -0.19313,-0.11936 -0.2111,-0.013 -0.0558,0.33037 0.12598,0.27853 0.22618,0.902987 0.22266,1.387677 -0.006,0.86139 0.001,0.86735 0.33568,0.26458 0.41275,-0.74403 0.46063,-0.51668 0.0942,0.44719 -0.19953,0.52479 -0.1865,0.6747 0.0517,0.59529 0.17512,-0.0584 0.40027,-0.41225 0.50033,-0.78639 z m 1.56671,-0.69686 c 0,-0.26638 -0.57733,-0.837357 -0.84666,-0.837357 -0.11642,0 -0.21167,0.361377 -0.21167,0.803057 0,0.72107 0.054,0.77415 0.52917,0.51986 0.29104,-0.15576 0.52916,-0.37426 0.52916,-0.48556 z m -3.43958,-0.30819 c 0,-0.29104 -0.10792,-0.529167 -0.23981,-0.529167 -0.1319,0 -0.17755,0.238127 -0.10144,0.529167 0.0761,0.29104 0.18403,0.52916 0.23982,0.52916 0.0558,0 0.10143,-0.23812 0.10143,-0.52916 z m 2.86267,-1.542077 c 0.055,-0.37345 -0.0554,-0.57459 -0.31511,-0.57459 -0.52144,0 -0.73867,0.37333 -0.53145,0.91335 0.22303,0.5812 0.74174,0.37363 0.84656,-0.33876 z m -0.78688,-1.2223 c 0.0585,-0.30163 -0.0369,-0.42885 -0.26458,-0.35302 -0.1958,0.0652 -0.39714,0.33074 -0.44742,0.59011 -0.0585,0.30163 0.0369,0.42884 0.26459,0.35302 0.1958,-0.0652 0.39713,-0.33075 0.44741,-0.59011 z m -12.31243,4.804337 c 0.0769,-0.32162 0.21814,-0.8349 0.31395,-1.14062 0.1096,-0.34976 0.0194,-0.71065 -0.24322,-0.97329 -0.57031,-0.570307 -0.54207,-1.093707 0.0456,-0.845187 0.25466,0.10769 1.23692,0.37351 2.18281,0.590687 0.94589,0.21719 1.87617,0.43863 2.06729,0.49209 0.44991,0.12585 0.14122,0.63011 -0.38573,0.63011 -0.22212,0 -1.2401,0.41196 -2.26216,0.91548 -1.77708,0.87546 -1.85219,0.88992 -1.71854,0.33073 z m 5.59441,-0.57273 c -0.71103,-0.71102 -0.78078,-1.08732 -0.3914,-2.111467 0.42302,-1.11263 0.80756,-0.80552 0.62836,0.501857 -0.14764,1.07713 -0.10377,1.20699 0.50076,1.48243 0.50043,0.22801 0.80581,0.22523 1.24787,-0.0113 0.75695,-0.40511 1.09288,-0.0772 0.42284,0.41272 -0.76503,0.55941 -1.67887,0.45538 -2.40843,-0.27419 z m 0.56864,-0.82965 c -0.21635,-0.56379 0.026,-0.90217 0.64606,-0.90217 0.2805,0 0.94091,-0.446477 1.4676,-0.992177 l 0.95761,-0.99219 -0.93172,1.19062 c -0.90483,1.156257 -0.97638,1.291987 -0.97638,1.852087 0,0.4328 -0.98807,0.30014 -1.16317,-0.15617 z m -2.93787,-2.375927 c -0.7276,-0.20246 -1.65034,-0.37041 -2.05052,-0.37322 -0.84113,-0.006 -0.89792,-0.17212 -0.28875,-0.84524 0.35032,-0.3871 0.38058,-0.61282 0.14999,-1.11891 -0.15887,-0.3487 -0.22795,-0.6949 -0.1535,-0.76935 0.17131,-0.1713 4.32716,2.99658 4.32716,3.29847 0,0.29161 -0.37887,0.255 -1.98438,-0.19175 z m 1.70768,-1.2609 c -1.08474,-0.90829 -2.66383,-2.16174 -3.50908,-2.78545 -1.51539,-1.11819 -1.81407,-1.75593 -0.82238,-1.75593 0.31512,0 0.53742,0.21236 0.58715,0.56091 0.11095,0.77752 2.87156,2.66886 3.40467,2.33258 0.21594,-0.13621 0.40472,-0.36672 0.41952,-0.51224 0.0402,-0.39542 -0.89957,-0.49882 -1.13096,-0.12443 -0.11031,0.17849 -0.33488,0.2415 -0.49904,0.14005 -0.16416,-0.10146 -0.22389,-0.30516 -0.13273,-0.45267 0.30211,-0.48881 2.58689,-1.31546 3.20621,-1.16003 0.33418,0.0839 0.60542,0.0312 0.60542,-0.11767 0,-0.4149 0.95226,-0.31936 1.32787,0.13323 0.18389,0.22156 0.52589,0.34334 0.76,0.27062 0.23412,-0.0727 0.60427,-0.0198 0.82255,0.11751 0.30158,0.18977 0.76951,-0.11345 1.9488,-1.26281 0.85356,-0.8319 1.43012,-1.27442 1.28124,-0.98338 -0.28997,0.56683 -5.26409,6.40204 -5.90981,6.93287 -0.31721,0.26077 -0.74353,0.0199 -2.35943,-1.33316 z m 2.26107,0.0888 c 0.51018,-0.21923 0.50837,-0.22806 -0.0505,-0.24599 -0.31883,-0.0102 -0.65328,0.10047 -0.74322,0.24599 -0.19341,0.31294 0.0655,0.31294 0.79375,0 z m -0.76791,-1.25298 c -0.15684,-0.15684 -0.95188,0.25224 -0.95188,0.48978 0,0.13118 0.23271,0.0932 0.51713,-0.0844 0.28443,-0.17762 0.48006,-0.36003 0.43475,-0.40534 z m -0.82802,0.0435 c 0.48315,-0.31658 0.76065,-0.34811 1.16392,-0.13229 0.72664,0.38889 1.49823,0.35522 1.8604,-0.0812 0.6283,-0.75706 -1.96601,-0.95314 -3.1735,-0.23985 -0.42264,0.24965 -0.76843,0.54731 -0.76843,0.66145 0,0.30418 0.20756,0.2571 0.91761,-0.20814 z m 1.92666,-0.28871 c 0.1819,-0.0734 0.47956,-0.0734 0.66146,0 0.1819,0.0734 0.0331,0.13345 -0.33073,0.13345 -0.3638,0 -0.51263,-0.0601 -0.33073,-0.13345 z m 2.23762,-1.4633 c -0.43388,-0.43388 -0.98232,0.11456 -0.74168,0.74167 0.1655,0.43127 0.20622,0.43257 0.61911,0.0197 0.3452,-0.3452 0.37203,-0.51189 0.12257,-0.76135 z m -3.26205,0.34114 c 0.47295,-0.29957 0.14782,-0.81928 -0.51254,-0.81928 -0.33716,0 -0.51355,0.18175 -0.51355,0.52916 0,0.55803 0.41697,0.67592 1.02609,0.29012 z m 1.88433,-0.2745 c 0,-0.73146 -0.50499,-0.94696 -1.01758,-0.43423 -0.38493,0.38503 -0.38983,0.46797 -0.0408,0.68871 0.63472,0.40137 1.05834,0.2995 1.05834,-0.25448 z m -51.52585,0.97657 c -0.14381,-0.1819 -0.32312,-0.67201 -0.39847,-1.08913 -0.15505,-0.85838 0.53364,-1.75514 1.34789,-1.75514 1.15827,0 1.81019,1.89718 0.94815,2.75923 -0.49843,0.49843 -1.53405,0.54484 -1.89757,0.085 z m 1.83677,-0.86967 c 0.41039,-0.90068 -0.21981,-1.59364 -1.22082,-1.3424 -0.53276,0.13371 -0.68385,0.33615 -0.68385,0.91625 0,0.90679 0.16948,1.09738 0.97581,1.09738 0.41023,0 0.72749,-0.22926 0.92886,-0.67123 z m -1.5382,0.026 c -0.20924,-0.54529 0.3538,-1.2184 0.85749,-1.02512 0.52794,0.20259 0.34911,1.24564 -0.23257,1.35651 -0.25511,0.0486 -0.53632,-0.1005 -0.62492,-0.33139 z m 3.33769,0.64527 c -0.63046,-0.63046 -0.66126,-1.01658 -0.14038,-1.76023 0.51642,-0.7373 1.30421,-0.91456 1.97535,-0.44448 0.68523,0.47996 0.71847,1.70229 0.0624,2.296 -0.64301,0.58191 -1.25357,0.55254 -1.8974,-0.0913 z m 1.85209,-0.52916 c 0.62131,-1.16094 -0.76007,-2.11256 -1.7009,-1.17173 -0.49188,0.49189 -0.4961,0.52725 -0.14188,1.18912 0.36153,0.67552 1.47757,0.66499 1.84278,-0.0174 z m -1.42278,-0.14318 c -0.22337,-0.5821 0.0179,-0.91516 0.66304,-0.91516 0.39972,0 0.51094,0.14732 0.44741,0.59261 -0.10126,0.70973 -0.87557,0.93464 -1.11045,0.32255 z m 3.4733,0.91573 c -0.73772,-0.42968 -0.6152,-1.98356 0.19843,-2.51668 0.61275,-0.40148 0.71018,-0.40148 1.32292,0 1.63748,1.07292 0.16941,3.50146 -1.52135,2.51668 z m 1.64309,-0.62755 c 0.41133,-0.49561 0.26766,-1.20031 -0.32018,-1.5705 -0.84834,-0.53425 -1.81669,0.5388 -1.41974,1.57324 0.18969,0.49431 1.3289,0.49252 1.73992,-0.003 z m -1.2891,-0.24926 c -0.23685,-0.28539 -0.20569,-0.46927 0.13769,-0.81265 0.39725,-0.39725 0.48603,-0.40158 0.8463,-0.0413 0.33109,0.33108 0.3421,0.47526 0.0621,0.81265 -0.42036,0.5065 -0.65241,0.51566 -1.04609,0.0413 z m 3.41632,0.63342 c -0.99607,-0.99607 -0.48276,-2.38125 0.88243,-2.38125 1.05322,0 1.49882,0.40342 1.49882,1.35694 0,1.42714 -1.38336,2.02221 -2.38125,1.02431 z m 1.84183,-0.51 c 0.49941,-0.93317 -0.28308,-1.80115 -1.3255,-1.4703 -0.60585,0.19229 -0.76562,0.64378 -0.49009,1.38499 0.28094,0.75579 1.42791,0.80968 1.81559,0.0853 z m -1.29573,-0.13105 c -0.41072,-0.49489 -0.15011,-0.94645 0.54625,-0.94645 0.39554,0 0.51027,0.14736 0.44741,0.57459 -0.10565,0.71801 -0.56402,0.88954 -0.99366,0.37186 z m 3.33137,0.68637 c -1.18834,-1.3131 0.41576,-3.13418 1.92132,-2.18121 0.46827,0.29641 0.48936,1.7051 0.0337,2.25409 -0.46034,0.55468 -1.41948,0.51893 -1.95506,-0.0729 z m 1.8979,-0.93744 c 0.10937,-0.95705 -0.26081,-1.33785 -1.09661,-1.12808 -1.32752,0.33319 -1.05446,2.12639 0.29997,1.96991 0.56097,-0.0648 0.72802,-0.24133 0.79664,-0.84183 z m -1.23734,0.38783 c -0.46702,-0.28874 -0.28608,-1.18636 0.26036,-1.29159 0.23468,-0.0452 0.50558,0.1234 0.602,0.37466 0.22199,0.5785 -0.37796,1.21642 -0.86236,0.91693 z m 3.57277,0.54961 c -0.65877,-0.72793 -0.55454,-1.80876 0.22357,-2.31861 0.61275,-0.40148 0.71018,-0.40148 1.32292,0 0.84623,0.55448 0.93811,2.10661 0.14969,2.52857 -0.73979,0.39592 -1.19935,0.33903 -1.69618,-0.20996 z m 1.78303,-0.64063 c 0.6094,-0.97326 -0.94209,-2.02775 -1.6783,-1.14068 -0.20035,0.24141 -0.26772,0.68272 -0.16606,1.08778 0.13728,0.54695 0.3077,0.66522 0.86276,0.59875 0.38043,-0.0456 0.82215,-0.29119 0.9816,-0.54585 z m -1.35357,0.0339 c -0.40647,-0.40646 -0.1237,-1.02609 0.46827,-1.02609 0.65019,0 0.90059,0.46321 0.50685,0.93763 -0.38419,0.46293 -0.58266,0.48093 -0.97512,0.0885 z m 3.96072,0.90378 c -1.39537,-0.26868 -1.41667,-2.16397 -0.0308,-2.73803 0.77149,-0.31955 0.874,-0.29814 1.34256,0.28051 0.34994,0.43216 0.45462,0.8364 0.33746,1.3032 -0.18198,0.72507 -0.61631,1.3639 -0.8873,1.30509 -0.0913,-0.0198 -0.4342,-0.0877 -0.76194,-0.15077 z m 1.25735,-1.52447 c 0,-0.4069 -0.19427,-0.69598 -0.54186,-0.8063 -1.07667,-0.34172 -1.82787,1.14325 -0.85403,1.68824 0.64727,0.36223 1.39589,-0.11076 1.39589,-0.88194 z m -1.34691,0.63599 c -0.28596,-0.17836 -0.30448,-0.34226 -0.0795,-0.70312 0.40079,-0.64274 1.01209,-0.59256 1.10963,0.0911 0.0903,0.63261 -0.46668,0.96349 -1.03017,0.61204 z m 3.45658,0.53303 c -0.48419,-0.90471 -0.21088,-1.92654 0.62151,-2.3237 0.65489,-0.31247 0.80955,-0.29953 1.25677,0.1052 0.69877,0.63238 0.65888,1.8327 -0.0781,2.34887 -0.80458,0.56355 -1.45401,0.51652 -1.80021,-0.13037 z m 1.58241,-0.36923 c 0.4923,-0.59318 0.23627,-1.58898 -0.43303,-1.68426 -0.76399,-0.10877 -1.27749,0.79058 -0.8778,1.53741 0.33325,0.62268 0.86636,0.68241 1.31083,0.14685 z m -0.9985,-0.74217 c 0.0465,-0.32742 0.26314,-0.59531 0.48142,-0.59531 0.21828,0 0.43493,0.26789 0.48143,0.59531 0.0651,0.45818 -0.0458,0.59532 -0.48143,0.59532 -0.43559,0 -0.54649,-0.13714 -0.48142,-0.59532 z m 3.87306,1.32292 c -1.0849,-0.86738 -0.46563,-2.57969 0.93298,-2.57969 0.67613,0 1.49622,0.74051 1.49622,1.35103 0,1.20633 -1.50502,1.96755 -2.4292,1.22866 z m 1.62336,-0.58075 c 0.17451,-0.21027 0.27838,-0.65675 0.23083,-0.99219 -0.15854,-1.1184 -2.07083,-0.84539 -2.07083,0.29565 0,0.97327 1.22536,1.43714 1.84,0.69654 z m -1.13444,-0.0587 c -0.31321,-0.31321 -0.18738,-1.0857 0.20114,-1.23478 0.48385,-0.18567 1.05144,0.48858 0.851,1.01093 -0.15813,0.41208 -0.74009,0.5359 -1.05214,0.22385 z m 3.47983,0.63941 c -1.11452,-0.89106 -0.57136,-2.57969 0.82979,-2.57969 0.9214,0 1.33482,0.45071 1.33482,1.45521 0,0.45112 -0.14287,0.96309 -0.3175,1.13771 -0.41239,0.4124 -1.3229,0.40588 -1.84711,-0.0132 z m 1.58253,-0.51594 c 0.44606,-0.44606 0.3956,-1.52122 -0.08,-1.70371 -0.2186,-0.0839 -0.69485,-0.0779 -1.05833,0.0133 -0.50892,0.12773 -0.66087,0.33706 -0.66087,0.91047 0,0.40954 0.0794,0.82399 0.17639,0.921 0.28748,0.28749 1.28054,0.20113 1.62278,-0.14111 z m -1.43269,-0.32777 c -0.20925,-0.54528 0.3538,-1.2184 0.85748,-1.02511 0.52795,0.20259 0.34912,1.24564 -0.23257,1.35651 -0.2551,0.0486 -0.53631,-0.10051 -0.62491,-0.3314 z m 4.01805,0.75867 c -0.49204,-0.49204 -0.54781,-1.72761 -0.0983,-2.17715 0.17463,-0.17462 0.62707,-0.3175 1.00542,-0.3175 0.9203,0 1.32292,0.45615 1.32292,1.49882 0,1.2773 -1.34706,1.87883 -2.23006,0.99583 z m 1.80514,-0.70871 c 0.6094,-0.97326 -0.9421,-2.02775 -1.6783,-1.14068 -0.20035,0.24141 -0.26772,0.68272 -0.16606,1.08778 0.13727,0.54695 0.3077,0.66522 0.86276,0.59875 0.38043,-0.0456 0.82215,-0.29119 0.9816,-0.54585 z m -1.4039,-0.0381 c -0.44396,-0.53494 0.39587,-1.37477 0.93081,-0.93081 0.49079,0.40732 0.46754,0.94058 -0.0497,1.13905 -0.55073,0.21134 -0.52856,0.21658 -0.88113,-0.20824 z m -60.28154,-2.1447 c 0.003,-0.58208 0.0571,-0.78905 0.1204,-0.45994 0.0633,0.32912 0.0609,0.80537 -0.005,1.05834 -0.0662,0.25296 -0.11801,-0.0163 -0.11507,-0.5984 z m 76.62108,0.52917 c 0.46786,-0.85111 1.31752,-1.85512 1.45204,-1.71584 0.0682,0.0706 -0.29609,0.60459 -0.80949,1.18667 -0.5134,0.58208 -0.80255,0.82021 -0.64255,0.52917 z"
       id="path18295" />
  </g>
</svg>
