<?xml version="1.0" encoding="UTF-8" standalone="no"?>
<!-- Created with Inkscape (http://www.inkscape.org/) -->

<svg
   width="70.374565mm"
   height="50.271332mm"
   viewBox="0 0 70.374574 50.271333"
   version="1.1"
   id="svg5"
   inkscape:version="1.1 (c4e8f9ed74, 2021-05-24)"
   sodipodi:docname="calendula.svg"
   xmlns:inkscape="http://www.inkscape.org/namespaces/inkscape"
   xmlns:sodipodi="http://sodipodi.sourceforge.net/DTD/sodipodi-0.dtd"
   xmlns="http://www.w3.org/2000/svg"
   xmlns:svg="http://www.w3.org/2000/svg">
  <sodipodi:namedview
     id="namedview7"
     pagecolor="#ffffff"
     bordercolor="#666666"
     borderopacity="1.0"
     inkscape:pageshadow="2"
     inkscape:pageopacity="0.0"
     inkscape:pagecheckerboard="0"
     inkscape:document-units="mm"
     showgrid="false"
     inkscape:zoom="0.94615212"
     inkscape:cx="-26.951269"
     inkscape:cy="8.9837562"
     inkscape:window-width="2506"
     inkscape:window-height="1403"
     inkscape:window-x="1974"
     inkscape:window-y="0"
     inkscape:window-maximized="1"
     inkscape:current-layer="layer1" />
  <defs
     id="defs2" />
  <g
     inkscape:label="Layer 1"
     inkscape:groupmode="layer"
     id="layer1"
     transform="translate(-159.15358,-163.14901)">
    <path
       style="fill:#000000;stroke-width:0.264583"
       d="m 184.72659,210.84285 c 1.05437,-3.14799 1.32384,-5.05991 0.90853,-6.44612 -0.2625,-0.87615 -0.41937,-1.03149 -1.04159,-1.03149 -0.40291,0 -1.42816,-0.41888 -2.27836,-0.93084 -1.45739,-0.87759 -1.57378,-0.90551 -2.03495,-0.48816 -0.29074,0.26311 -0.48915,0.31872 -0.48915,0.13709 0,-0.16808 0.11906,-0.30559 0.26458,-0.30559 0.14552,0 0.26458,-0.23813 0.26458,-0.52917 0,-0.29104 -0.11055,-0.52916 -0.24568,-0.52916 -0.13513,0 -0.43278,-0.1871 -0.66146,-0.41578 -0.22868,-0.22867 -0.41577,-0.28895 -0.41577,-0.13395 0,0.30901 -0.724,0.26357 -1.27481,-0.08 -0.19182,-0.11965 -0.28083,-0.41386 -0.19779,-0.65381 0.13216,-0.38187 0.10967,-0.38678 -0.1804,-0.0394 -0.18226,0.21828 -0.48021,0.40878 -0.66211,0.42333 -0.7665,0.0613 -0.85989,0.13172 -0.85989,0.64814 0,0.29827 0.18165,0.89358 0.40367,1.32292 0.34582,0.66876 0.56382,0.78442 1.52135,0.80719 l 1.11768,0.0266 -1.05833,0.24955 c -0.96554,0.22766 -1.11052,0.18924 -1.65364,-0.43821 -0.42401,-0.48985 -0.59532,-1.02456 -0.59532,-1.85824 0,-1.08221 0.0748,-1.21036 0.99219,-1.69908 1.70586,-0.90879 2.61168,-1.85459 1.41133,-1.47361 -0.2788,0.0885 -0.57576,0.0495 -0.65993,-0.0867 -0.20214,-0.32707 -2.26002,0.17649 -2.86807,0.70181 -0.25466,0.22002 -0.46302,0.31899 -0.46302,0.21994 0,-0.099 -0.38695,0.02 -0.85989,0.26446 -0.79128,0.40908 -0.83092,0.40962 -0.49677,0.007 0.19972,-0.24077 0.27056,-0.43776 0.15743,-0.43776 -0.11313,0 0.0211,-0.25859 0.29833,-0.57465 0.27722,-0.31606 0.36953,-0.49648 0.20514,-0.40094 -0.42984,0.24982 -0.29997,-1.76953 0.14857,-2.30999 0.31174,-0.37561 0.29186,-0.40343 -0.16085,-0.22514 -1.07538,0.42351 -1.99514,1.40123 -2.20862,2.34781 -0.40552,1.79799 0.4031,2.81792 2.26553,2.85757 1.30361,0.0278 1.59513,0.33521 0.4527,0.47744 -1.73061,0.21544 -3.24115,-0.697 -3.24115,-1.95784 0,-0.69661 -0.0486,-0.73604 -0.56605,-0.45911 -0.86972,0.46546 -2.07978,0.76334 -2.07978,0.51198 0,-0.1238 0.34896,-0.30174 0.77546,-0.39541 0.42651,-0.0937 0.9196,-0.34399 1.09576,-0.55625 0.26635,-0.32093 0.23601,-0.35428 -0.18015,-0.19804 -0.43982,0.16513 -0.45702,0.13448 -0.14193,-0.25297 0.32883,-0.40436 0.21382,-0.43425 -1.38906,-0.36092 -0.96117,0.044 -1.74758,-0.0181 -1.74758,-0.13785 0,-0.11978 0.10517,-0.21778 0.23372,-0.21778 0.36387,0 0.54087,-1.01779 0.20121,-1.15705 -0.16645,-0.0683 -0.0873,-0.13349 0.17599,-0.14498 0.26325,-0.0115 0.40506,-0.13995 0.31512,-0.28547 -0.21157,-0.34232 -1.37529,-0.34337 -1.58662,-0.001 -0.0895,0.14473 -0.4239,0.40235 -0.74322,0.57248 -0.54201,0.28878 -0.55421,0.27722 -0.1837,-0.17389 0.30393,-0.37007 0.31904,-0.50942 0.0645,-0.59509 -0.69518,-0.23396 0.0177,-0.59659 1.20789,-0.61443 0.68264,-0.0102 1.47928,-0.13147 1.77032,-0.26943 0.40076,-0.18996 0.27937,-0.22012 -0.50021,-0.12429 -1.04206,0.128 -2.01333,-0.18815 -2.01333,-0.65542 0,-0.1404 0.18562,-0.25528 0.41249,-0.25528 0.22687,0 0.35007,-0.101 0.27377,-0.22445 -0.19647,-0.31791 -2.15796,-0.20054 -3.79742,0.22723 -1.00568,0.2624 -1.47145,0.28294 -1.68028,0.0741 -0.20882,-0.20883 -0.1276,-0.34011 0.29301,-0.47361 0.80827,-0.25653 1.51239,-1.01614 1.43441,-1.54745 -0.084,-0.57203 0.57485,-1.23084 1.23084,-1.23084 0.56787,0 0.69537,-0.42311 0.17954,-0.59577 -0.18648,-0.0624 0.0155,-0.29822 0.46302,-0.54062 l 0.79375,-0.42992 -0.96229,-0.0106 c -1.3901,-0.0153 -3.37484,1.38162 -4.12003,2.89982 -0.32143,0.65484 -0.58932,0.98065 -0.59532,0.72401 -0.0112,-0.48059 0.3916,-1.32445 0.99355,-2.08131 0.29571,-0.37181 0.25011,-0.45457 -0.33073,-0.60036 -0.38765,-0.0973 -0.67372,-0.35794 -0.67372,-0.61384 0,-0.34592 0.0705,-0.37419 0.3175,-0.12725 0.17462,0.17462 0.62111,0.30369 0.99218,0.28681 0.39597,-0.018 0.49515,-0.0784 0.24008,-0.14622 -0.63451,-0.16867 -0.30647,-1.06866 0.45961,-1.26093 0.35005,-0.0879 0.63646,-0.26363 0.63646,-0.3906 0,-0.33798 -1.27593,-0.60192 -1.94073,-0.40147 -0.46686,0.14077 -0.51164,0.10849 -0.24208,-0.17452 0.1819,-0.19098 0.33073,-0.63247 0.33073,-0.98108 0,-0.74734 0.86755,-2.05002 1.6409,-2.4639 0.41379,-0.22146 0.3395,-0.0354 -0.30719,0.76931 -1.13171,1.40825 -0.99639,1.89496 0.65066,2.34035 0.72761,0.19675 1.70472,0.48281 2.17137,0.63568 1.33935,0.43878 1.90663,0.50332 2.07202,0.23572 0.0844,-0.13657 -0.0619,-0.25014 -0.32517,-0.25237 -0.40582,-0.003 -0.41826,-0.0431 -0.0818,-0.26053 0.31487,-0.20349 0.26021,-0.25815 -0.26458,-0.26458 -0.52479,-0.006 -0.57946,-0.0611 -0.26459,-0.26459 0.21828,-0.14106 0.27782,-0.27644 0.13229,-0.30083 -0.14552,-0.0244 -0.38364,-0.0625 -0.52916,-0.0847 -1.76517,-0.26929 -2.22906,-0.45184 -1.93855,-0.76283 0.17001,-0.18199 0.64565,-0.3076 1.05698,-0.27912 0.41133,0.0285 0.68111,-0.0562 0.59951,-0.18827 -0.0816,-0.13203 0.0371,-0.31121 0.26377,-0.3982 0.22667,-0.087 0.35701,-0.24732 0.28965,-0.35631 -0.0674,-0.109 0.17816,-0.33515 0.5456,-0.50257 0.36745,-0.16742 0.59481,-0.42295 0.50526,-0.56786 -0.0895,-0.1449 0.10217,-0.26345 0.42605,-0.26345 0.32389,0 0.51408,-0.0748 0.42266,-0.16622 -0.0914,-0.0914 -1.15306,-0.008 -2.3592,0.18563 -2.32352,0.3728 -2.78418,0.3614 -3.32385,-0.0823 -0.58581,-0.48158 -0.13582,-0.52836 0.57875,-0.0602 0.59906,0.39252 0.68441,0.39758 0.68441,0.0405 0,-0.22434 -0.20836,-0.45572 -0.46302,-0.51418 -0.25466,-0.0584 0.45971,-0.20023 1.5875,-0.31507 1.12779,-0.11483 2.05052,-0.31386 2.05052,-0.44229 0,-0.12842 -0.12609,-0.23349 -0.2802,-0.23349 -0.15411,0 -0.21162,-0.11096 -0.1278,-0.24658 0.0838,-0.13562 -0.17705,-0.28444 -0.5797,-0.33073 -0.52765,-0.0606 -0.73209,-0.23192 -0.73209,-0.61332 0,-0.29104 -0.16096,-0.6555 -0.35769,-0.80991 -0.26499,-0.20799 -0.10995,-0.25183 0.59825,-0.16915 0.79492,0.0928 0.92839,0.0398 0.7924,-0.31457 -0.0899,-0.23439 -0.0516,-0.42616 0.0853,-0.42616 0.13684,0 0.24879,-0.19161 0.24879,-0.4258 0,-0.34095 -0.20211,-0.39869 -1.01423,-0.28976 -0.55783,0.0748 -1.01424,0.0306 -1.01424,-0.0983 0,-0.31905 1.21024,-0.60021 1.85633,-0.43125 0.34863,0.0912 0.52492,0.006 0.52492,-0.25374 0,-0.33444 0.0601,-0.33085 0.41577,0.0248 0.22868,0.22868 0.55015,0.41578 0.71438,0.41578 0.21125,0 0.20572,-0.0929 -0.0189,-0.3175 -0.50733,-0.50733 -0.4029,-1.06864 0.14552,-0.78222 0.75179,0.39263 2.56628,0.17229 2.66523,-0.32364 0.0471,-0.2358 -0.0308,-0.42873 -0.173,-0.42873 -0.1422,0 -0.24023,-0.48222 -0.21784,-1.0716 0.0343,-0.90295 0.11778,-1.05149 0.53037,-0.94384 0.52479,0.13692 1.7593,-0.31976 1.7593,-0.65081 0,-0.11004 -0.14882,-0.26012 -0.33073,-0.33352 -0.20075,-0.081 -0.15202,-0.14166 0.12399,-0.15434 0.29206,-0.0134 0.40016,-0.16306 0.3022,-0.41835 -0.18142,-0.47277 0.0938,-1.7192 0.3796,-1.7192 0.11021,0 0.16202,0.50601 0.11514,1.12448 -0.0804,1.06102 -0.0618,1.09504 0.32957,0.6029 0.22816,-0.28687 0.3564,-0.67382 0.285,-0.8599 -0.17606,-0.45881 0.66975,-0.43257 1.59917,0.0496 0.56552,0.2934 0.7951,0.31133 0.94205,0.0736 0.13716,-0.22193 0.24571,-0.1804 0.36913,0.14123 0.25729,0.6705 0.54149,0.55434 0.52739,-0.21556 -0.0161,-0.87896 -0.52961,-1.17192 -2.06282,-1.17687 -0.74646,-0.002 -1.25677,-0.124 -1.25677,-0.29945 0,-0.28394 3.26018,-0.24454 3.53407,0.0427 0.0631,0.0662 0.17101,0.54702 0.23971,1.06843 0.1299,0.98591 0.87717,2.35926 1.28373,2.35926 0.50576,0 0.6285,-0.062 0.56644,-0.28639 -0.0355,-0.12841 0.23154,-0.3078 0.59348,-0.39864 0.36194,-0.0908 0.59114,-0.27347 0.50933,-0.40584 -0.0818,-0.13237 -0.28934,-0.16011 -0.46119,-0.0617 -0.17184,0.0985 -0.22418,0.0816 -0.1163,-0.0375 0.10788,-0.11909 0.0587,-0.38215 -0.10934,-0.5846 -0.25104,-0.30248 -0.17894,-0.34513 0.40456,-0.23932 0.43615,0.0791 0.64671,0.0263 0.54586,-0.13689 -0.0903,-0.1461 -0.23329,-0.19652 -0.31777,-0.11204 -0.18814,0.18813 -1.6455,-1.17308 -1.6455,-1.53694 0,-0.14366 0.27557,-0.002 0.61237,0.31409 0.3368,0.31641 0.73894,0.57529 0.89364,0.57529 0.15471,0 0.4295,0.17859 0.61066,0.39687 0.26278,0.31663 0.26278,0.47712 0,0.79375 -0.377,0.45426 -0.40037,0.43745 0.69593,0.50088 0.80262,0.0464 0.95099,-0.17045 0.55254,-0.80773 -0.10552,-0.16877 -0.12425,-0.48303 -0.0416,-0.69837 0.18583,-0.48426 0.98285,-0.30643 1.579,0.3523 0.59939,0.66232 1.28251,0.41141 0.83972,-0.30843 -0.436,-0.7088 -2.50728,-1.98757 -3.58557,-2.21368 -1.00231,-0.21017 -0.83871,-0.51652 0.39909,-0.74733 0.59826,-0.11155 0.87829,-0.0456 0.98482,0.23205 0.0819,0.21336 0.24148,0.37272 0.35467,0.35414 0.11319,-0.0186 0.26533,-0.0106 0.33809,0.0178 1.2115,0.47232 1.80122,-0.17501 1.04048,-1.14213 -0.4202,-0.5342 -0.45932,-0.69886 -0.16604,-0.69886 0.21102,0 0.53262,0.17946 0.71467,0.39881 0.28927,0.34856 0.40847,0.31521 0.9458,-0.26458 0.33815,-0.36487 0.75996,-0.6634 0.93735,-0.6634 0.17739,0 0.54075,-0.19749 0.80747,-0.43887 0.42374,-0.38347 0.61589,-0.39564 1.52251,-0.0964 0.57067,0.18834 1.22502,0.2705 1.45413,0.18259 0.2291,-0.0879 0.41654,-0.0493 0.41654,0.0857 0,0.35385 1.38206,1.58458 1.61663,1.43962 0.10855,-0.0671 0.26719,0.098 0.35253,0.36693 0.0853,0.2689 0.36181,0.49075 0.61436,0.49299 1.06792,0.009 1.15502,-1.55926 0.14511,-2.61338 -0.39103,-0.40815 -0.59153,-0.74209 -0.44556,-0.74209 0.14597,0 0.62236,0.4032 1.05865,0.89599 0.63368,0.71576 0.74799,1.0183 0.56829,1.50408 -0.24926,0.67382 -0.10102,1.3041 0.30672,1.3041 0.14552,0 0.19643,-0.17759 0.11314,-0.39464 -0.0923,-0.24055 0.0401,-0.45716 0.33904,-0.55474 0.80504,-0.26278 2.33153,-1.02017 2.49247,-1.23668 0.25683,-0.34553 2.29357,1.74691 2.5142,2.58293 0.19969,0.75676 0.21452,0.76401 0.31805,0.15555 0.0859,-0.50467 0.16254,-0.56003 0.36648,-0.26458 0.38054,0.55131 0.0154,-0.73348 -0.5403,-1.90103 l -0.45297,-0.95173 1.00512,-0.26828 c 0.55282,-0.14756 1.00513,-0.17965 1.00513,-0.0713 0,0.10833 -0.23813,0.25924 -0.52917,0.33535 -0.69152,0.18083 -0.6776,0.88361 0.0249,1.2596 0.36467,0.19516 0.50882,0.46971 0.42165,0.80306 -0.0728,0.27858 -0.0245,0.50651 0.10737,0.50651 0.13189,0 0.23981,-0.29766 0.23981,-0.66146 0,-0.41157 0.14993,-0.66146 0.39687,-0.66146 0.46447,0 0.5057,-0.36063 0.12299,-1.07572 -0.15285,-0.28561 -0.16704,-0.51178 -0.0321,-0.51178 0.13298,0 0.38979,0.3573 0.57067,0.79399 0.26846,0.64813 0.26221,0.87901 -0.034,1.25677 -0.32631,0.4161 -0.31768,0.42737 0.0855,0.11175 0.50703,-0.3969 1.57775,-0.32721 1.72217,0.11209 0.0539,0.16391 -0.24655,0.29995 -0.69033,0.31256 -1.05607,0.03 -2.93848,1.06994 -2.93432,1.62104 0.002,0.28712 1.96682,0.26568 2.14549,-0.0234 0.29283,-0.47381 0.82145,0.0694 0.69767,0.71687 -0.0819,0.42855 -0.0117,0.56629 0.23967,0.46985 0.21247,-0.0815 0.35556,0.0461 0.35556,0.31704 0,0.28732 -0.14049,0.39958 -0.3834,0.30637 -0.25575,-0.0981 -0.33461,-0.02 -0.23686,0.23476 0.0806,0.21003 0.25262,0.31632 0.38228,0.23619 0.12965,-0.0801 0.36537,0.13883 0.52382,0.48658 0.15845,0.34776 0.45661,0.63229 0.66258,0.63229 0.57543,0 0.48302,-2.36601 -0.14011,-3.58745 -0.49586,-0.97196 -0.4824,-2.14519 0.0246,-2.14519 0.13311,0 0.30651,0.20836 0.38533,0.46302 0.0788,0.25466 0.32009,0.86845 0.53617,1.36399 0.32057,0.73518 0.32919,0.94134 0.0468,1.12042 -0.27357,0.1735 -0.26292,0.22687 0.0508,0.25485 0.21828,0.0195 0.5003,0.0166 0.62672,-0.006 0.12642,-0.023 0.15373,0.40939 0.0607,0.96085 -0.13068,0.77461 -0.10474,0.89735 0.11402,0.53964 0.34704,-0.56746 0.78605,-0.6044 0.78605,-0.0661 0,0.21829 -0.11907,0.39688 -0.26459,0.39688 -0.14552,0 -0.26458,0.11533 -0.26458,0.25628 0,0.14095 0.16414,0.19329 0.36475,0.11631 0.40607,-0.15582 0.68401,-2.19465 0.48449,-3.55402 -0.0787,-0.53637 -0.51901,-1.25084 -1.17521,-1.90704 -0.86855,-0.86855 -1.18859,-1.02888 -1.85773,-0.93067 -0.73266,0.10753 -0.76266,0.0852 -0.32012,-0.2384 0.26856,-0.19637 0.61436,-0.35209 0.76845,-0.34603 0.54929,0.0216 2.26375,1.77457 2.65769,2.7174 0.29418,0.70407 0.515,0.91524 0.83047,0.79419 0.38578,-0.14804 0.38345,-0.0943 -0.0229,0.52586 -0.24893,0.37992 -0.36793,0.82778 -0.26444,0.99523 0.13677,0.22129 0.24877,0.2064 0.40998,-0.0545 0.12199,-0.19744 0.49406,-0.37934 0.82682,-0.40422 0.33276,-0.0249 0.84315,-0.0965 1.13419,-0.15905 0.29104,-0.0626 0.79706,0.0608 1.12448,0.27411 0.66153,0.43107 0.79118,0.12908 0.32142,-0.74867 -0.15063,-0.28147 -0.17674,-0.51177 -0.058,-0.51177 0.11874,0 0.35071,0.35719 0.51549,0.79375 0.26491,0.70182 0.43251,0.7989 1.44707,0.83823 l 1.14746,0.0445 -0.9914,0.10374 c -1.8079,0.18918 -1.80934,1.90209 -0.002,1.77338 0.56096,-0.0399 0.79775,0.0382 0.6822,0.2252 -0.2472,0.40013 -0.30613,1.77748 -0.0759,1.77748 0.10431,0 0.33678,-0.17728 0.51661,-0.39396 0.17983,-0.21668 0.42293,-0.33465 0.54023,-0.26215 0.1173,0.0725 0.37509,-0.03 0.57286,-0.22778 0.3028,-0.30279 0.41256,-0.30288 0.695,-5.3e-4 0.27497,0.29435 0.21864,0.40346 -0.31255,0.60542 -1.01209,0.38479 -1.07766,0.776 -0.12553,0.74893 0.65286,-0.0186 1.01666,0.17799 1.58129,0.85433 0.40334,0.48313 0.672,0.97769 0.59702,1.099 -0.075,0.12132 -0.18541,0.47546 -0.2454,0.78698 -0.06,0.31152 -0.32113,0.80583 -0.58031,1.09848 -0.41823,0.47223 -0.34623,0.4609 0.64017,-0.10074 0.61127,-0.34806 1.23765,-0.90993 1.39197,-1.24862 0.29967,-0.6577 1.07068,-0.70486 1.27934,-0.0783 0.0743,0.22308 0.005,0.29494 -0.17652,0.18282 -0.17511,-0.10822 -0.2989,-0.007 -0.2989,0.24337 0,0.23546 0.10287,0.36453 0.22859,0.28682 0.12573,-0.0777 0.73253,0.1022 1.34845,0.39977 0.61592,0.29758 1.28696,0.47693 1.49119,0.39856 0.45466,-0.17447 0.48567,-0.99729 0.0538,-1.42911 -0.24694,-0.24694 -0.22245,-0.3175 0.11024,-0.3175 0.56859,0 0.71165,0.49799 0.40196,1.39916 -0.2182,0.63497 -0.1573,0.82037 0.43736,1.33134 0.37997,0.3265 0.69086,0.6999 0.69086,0.82978 0,0.12987 -0.29378,-0.0399 -0.65283,-0.37717 -0.77674,-0.72971 -3.07677,-1.06513 -3.70852,-0.54083 -0.52211,0.43332 -0.26673,0.79731 0.5594,0.79731 0.36561,0 0.84334,0.17859 1.06162,0.39687 0.21828,0.21828 0.80509,0.39688 1.30402,0.39688 0.49892,0 0.90621,0.0893 0.90508,0.19843 -0.003,0.30653 -1.34789,0.85943 -2.10121,0.86395 -0.53287,0.003 -0.59135,0.058 -0.27798,0.26053 0.26458,0.17099 0.28663,0.25783 0.0661,0.26053 -0.18191,0.002 -0.33073,0.17885 -0.33073,0.39248 0,0.21363 -0.32743,0.56606 -0.72761,0.78316 -0.42571,0.23095 -0.56293,0.40684 -0.33073,0.42392 0.2716,0.02 0.22984,0.10097 -0.13229,0.25658 -0.45395,0.19507 -0.41635,0.22921 0.26458,0.24018 1.07486,0.0173 2.91147,-0.85053 3.40104,-1.60707 0.21977,-0.33962 0.48009,-0.94491 0.57848,-1.34509 0.18444,-0.75018 0.65069,-1.01016 0.65069,-0.36283 0,0.20063 0.35975,0.51379 0.79943,0.69591 1.12799,0.46723 1.31358,0.89075 0.29201,0.66638 -0.45477,-0.0999 -0.82685,-0.10411 -0.82685,-0.009 0,0.2382 0.5579,0.77036 1.19062,1.1357 0.50414,0.29109 0.49789,0.30612 -0.13229,0.31764 -0.47349,0.009 -0.55943,0.0768 -0.30242,0.2396 0.4473,0.28342 0.1603,1.3381 -0.37687,1.38497 -0.73383,0.064 -0.86593,0.10103 -1.06255,0.29766 -0.10914,0.10914 0.30248,0.19843 0.91471,0.19843 0.73006,0 1.38261,0.19923 1.89618,0.57893 1.1908,0.8804 0.93523,1.07461 -0.447,0.33967 -0.67652,-0.35971 -1.42066,-0.64434 -1.65364,-0.63252 -0.24504,0.0124 -0.11426,0.15851 0.31023,0.34653 0.40362,0.17877 0.65167,0.40722 0.55122,0.50767 -0.10045,0.10045 -0.0367,0.18264 0.14166,0.18264 0.17836,0 0.25842,0.10659 0.17791,0.23686 -0.0805,0.13027 0.0391,0.30802 0.26574,0.395 0.22666,0.087 0.33801,0.27806 0.24744,0.4246 -0.0906,0.14655 0.0209,0.26646 0.24782,0.26646 0.22687,0 0.38272,-0.0893 0.34634,-0.19844 -0.0364,-0.10914 0.0529,-0.23449 0.19844,-0.27856 0.39654,-0.12008 0.48648,0.71169 0.12416,1.14825 -0.17403,0.20969 -0.42493,0.31418 -0.55757,0.23221 -0.13264,-0.082 -0.20844,-0.0234 -0.16846,0.13008 0.04,0.15352 -0.40355,0.57538 -0.98563,0.93745 l -1.05834,0.65832 1.05834,0.0396 c 0.58208,0.0218 1.16648,0.0192 1.29867,-0.006 0.27332,-0.0515 0.67559,0.49987 0.68165,0.93434 0.002,0.15963 -0.23642,0.56752 -0.53034,0.9064 -0.52199,0.60187 -0.55597,0.60588 -1.46418,0.17278 -1.31628,-0.62769 -1.69681,-0.5354 -0.85354,0.207 0.43926,0.38671 0.59559,0.67505 0.40114,0.73987 -0.17525,0.0584 0.25525,0.32538 0.95666,0.59325 1.2585,0.48063 1.26715,0.49187 0.6572,0.85436 l -0.6181,0.36733 0.67067,-0.13814 c 0.57066,-0.11754 0.67905,-0.0367 0.72696,0.54213 0.0428,0.5175 -0.0418,0.64263 -0.35367,0.52295 -0.23496,-0.0902 -0.34097,-0.0457 -0.24833,0.10423 0.0939,0.15197 -0.20518,0.26325 -0.71386,0.2656 -0.59147,0.003 -0.75905,0.0779 -0.51654,0.23151 0.26716,0.16928 0.2793,0.2767 0.0475,0.41998 -0.20243,0.12511 -0.25211,0.54407 -0.14187,1.19654 0.10302,0.60981 0.0584,1.07277 -0.11362,1.17909 -0.18323,0.11324 -0.28326,-0.19812 -0.28326,-0.88166 0,-0.5812 -0.11187,-1.35097 -0.2486,-1.71061 -0.26885,-0.70713 -1.99816,-2.55556 -2.39086,-2.55556 -0.36155,0 -0.0711,1.13339 0.35104,1.3696 0.54714,0.3062 1.33508,1.5645 0.86727,1.38498 -0.24946,-0.0957 -0.35417,0.053 -0.33161,0.47099 0.0231,0.42887 -0.10414,0.60008 -0.4272,0.57461 -0.2617,-0.0206 -0.38562,0.0844 -0.28733,0.2434 0.10704,0.1732 0.008,0.21659 -0.25895,0.11398 -0.2375,-0.0911 -0.51355,-0.0334 -0.61345,0.12821 -0.10587,0.17129 -0.0618,0.21986 0.10553,0.11642 0.15795,-0.0976 0.36197,-0.0565 0.45337,0.0914 0.0914,0.14789 0.28525,0.2689 0.43077,0.2689 0.14552,0 0.191,-0.11906 0.10106,-0.26458 -0.0899,-0.14552 -0.0444,-0.26459 0.10107,-0.26459 0.14552,0 0.33816,0.11907 0.4281,0.26459 0.0899,0.14552 0.0147,0.26458 -0.16724,0.26458 -0.18193,0 -0.0998,0.16886 0.1824,0.37524 0.28225,0.20639 0.43732,0.4511 0.3446,0.54382 -0.0927,0.0927 -0.49447,-0.13344 -0.89277,-0.50257 -0.3983,-0.36914 -0.81935,-0.61235 -0.93566,-0.54046 -0.1163,0.0719 -0.49607,10e-4 -0.84392,-0.15747 -0.42023,-0.19147 -0.93737,-0.20559 -1.54118,-0.0421 l -0.90873,0.24611 1.19063,0.31258 c 0.65484,0.17192 1.67085,0.48699 2.2578,0.70015 0.58695,0.21317 1.33109,0.38758 1.65365,0.38758 0.32255,0 0.58646,0.11906 0.58646,0.26458 0,0.43487 -1.47641,0.30065 -2.91041,-0.26458 -0.73838,-0.29105 -1.39913,-0.52917 -1.46832,-0.52917 -0.0692,0 0.16858,0.46636 0.5284,1.03635 0.75723,1.19953 1.18939,2.58865 0.71392,2.29479 -0.16674,-0.10305 -0.30317,-0.39571 -0.30317,-0.65035 0,-0.25464 -0.17481,-0.6941 -0.38846,-0.97657 -0.33982,-0.44928 -0.38952,-0.45757 -0.39688,-0.0662 -0.005,0.24607 0.11259,0.52219 0.26049,0.61359 0.14789,0.0914 0.20548,0.2688 0.12797,0.39421 -0.0775,0.12541 -0.0199,0.30281 0.12798,0.39421 0.1479,0.0914 0.2689,0.2928 0.2689,0.44755 0,0.16654 -0.18261,0.13317 -0.44745,-0.0818 -0.25266,-0.20504 -0.17283,0.012 0.18339,0.49859 0.38637,0.52777 0.53414,0.95116 0.3813,1.09252 -0.551,0.50964 -2.12899,0.79311 -3.2331,0.58079 -1.70184,-0.32725 -4.54164,-1.67214 -4.54994,-2.15479 -0.004,-0.22744 -0.39221,-0.76322 -0.86288,-1.19063 -0.47066,-0.42741 -0.6308,-0.50921 -0.35586,-0.18179 0.27494,0.32742 0.41771,0.59531 0.31728,0.59531 -0.10043,0 -0.0636,0.22247 0.082,0.49438 0.33569,0.62724 0.0894,0.88503 -0.52927,0.55393 -0.6088,-0.32581 -0.9051,0.10186 -0.37524,0.54161 0.21668,0.17983 0.39397,0.2321 0.39397,0.11615 0,-0.11595 0.304,0.0748 0.67557,0.42386 0.62942,0.59131 0.64404,0.65771 0.21401,0.97216 -0.62879,0.45978 -1.32342,0.42373 -2.23732,-0.11613 -0.76659,-0.45283 -0.76927,-0.45203 -1.53637,0.46302 -0.42264,0.50416 -0.8468,0.83998 -0.94258,0.74627 -0.0958,-0.0937 0.13074,-0.47525 0.50336,-0.84787 0.37262,-0.37262 0.67749,-0.87121 0.67749,-1.10797 0,-0.37378 0.11738,-0.35794 0.89113,0.12026 0.92361,0.57082 2.14269,0.72865 2.40091,0.31084 0.0815,-0.13195 -0.11978,-0.17083 -0.4474,-0.0864 -0.55383,0.14272 -0.5678,0.11775 -0.1988,-0.3554 0.36824,-0.4722 0.36301,-0.48233 -0.0725,-0.14047 -0.4553,0.35735 -0.85351,0.23689 -0.85351,-0.25819 0,-0.1334 -0.0893,-0.24254 -0.19843,-0.24254 -0.10914,0 -0.27255,0 -0.36313,0 -0.0906,0 -0.0165,0.1786 0.16469,0.39688 0.40569,0.48882 0.0335,0.5059 -0.59692,0.0274 -0.32602,-0.24745 -0.48388,-0.78555 -0.52917,-1.80377 -0.0505,-1.1353 -0.19014,-1.54588 -0.64165,-1.88652 -0.55757,-0.42064 -0.5747,-0.41268 -0.50564,0.23499 0.0393,0.36871 0.20971,0.80862 0.37867,0.97759 0.40991,0.4099 0.39305,0.81334 -0.0235,0.56307 -0.22472,-0.13501 -0.21434,-0.0552 0.0324,0.24897 0.19972,0.24621 0.24773,0.44766 0.10669,0.44766 -0.14103,0 -0.22859,0.41544 -0.19456,0.92319 0.034,0.50775 -0.0457,0.85672 -0.17716,0.77547 -0.13146,-0.0812 -0.1756,-0.25033 -0.0981,-0.37574 0.0775,-0.12541 0.0281,-0.29772 -0.10969,-0.38291 -0.13784,-0.0852 -0.32032,-0.0421 -0.40551,0.0957 -0.0852,0.13784 -0.0339,0.3254 0.11401,0.4168 0.1479,0.0914 0.2689,0.29281 0.2689,0.44756 0,0.16762 -0.18718,0.13456 -0.46302,-0.0818 -0.419,-0.32861 -0.42873,-0.31939 -0.10231,0.097 0.19839,0.25306 0.46628,0.39486 0.59531,0.31511 0.12903,-0.0797 0.23461,-0.0328 0.23461,0.10435 0,0.36755 -1.029,0.57258 -1.23125,0.24534 -0.1109,-0.17946 -0.0395,-0.20281 0.19818,-0.0648 0.20438,0.11871 0.083,-0.10102 -0.26982,-0.48829 -0.69039,-0.75785 -1.1074,-0.97984 -0.52705,-0.28055 0.63944,0.77046 0.49016,1.5704 -0.16988,0.91036 -0.15,-0.14999 -0.40775,-0.15827 -0.63107,-0.0203 -0.28431,0.17571 -0.15315,0.30197 0.53138,0.51147 0.86969,0.26617 0.85754,0.27142 -0.28174,0.12182 -1.39736,-0.18349 -1.9992,-0.45611 -2.93891,-1.33126 l -0.68994,-0.64256 -0.30998,0.74836 c -0.46676,1.12686 -1.19289,1.4892 -2.08443,1.04015 -0.39799,-0.20047 -1.08081,-0.45 -1.51737,-0.55452 -0.43656,-0.10452 -1.00211,-0.37781 -1.25677,-0.6073 -0.42262,-0.38087 -0.50784,-0.37672 -0.97667,0.0476 -0.41488,0.37547 -0.77025,0.42955 -1.84815,0.28131 -1.24801,-0.17165 -1.38191,-0.13267 -2.06604,0.60136 -1.25029,1.34151 -2.71579,3.1796 -2.71848,3.40964 -0.001,0.12081 -0.41361,0.73672 -0.916,1.36868 -0.50239,0.63197 -0.98551,1.37611 -1.0736,1.65365 -0.0997,0.31426 -0.40297,0.50463 -0.80379,0.50463 -0.54368,0 -0.64363,-0.12766 -0.64363,-0.82206 0,-0.60068 0.10098,-0.78331 0.37498,-0.67817 0.20624,0.0791 0.443,-0.0334 0.52614,-0.25001 0.0831,-0.21666 0.042,-0.32647 -0.0913,-0.24404 -0.39401,0.24352 -0.60014,-0.84825 -0.27489,-1.45599 0.1648,-0.30791 0.2474,-0.69936 0.18357,-0.86989 -0.0638,-0.17053 -0.0304,-0.54818 0.0742,-0.83922 0.19909,-0.55376 -0.18773,-1.71979 -0.57054,-1.71979 -0.12217,0 -0.22212,-0.18115 -0.22212,-0.40255 0,-0.2214 -0.32742,-0.5464 -0.7276,-0.72222 -0.40018,-0.17582 -0.80872,-0.43494 -0.90786,-0.57584 -0.0992,-0.14089 -0.26127,0.0666 -0.36028,0.46107 -0.10915,0.43488 -0.0515,0.87213 0.14651,1.11068 0.17959,0.21639 0.2139,0.39344 0.0762,0.39344 -0.13766,0 -0.38796,0.74414 -0.55623,1.65365 -0.28785,1.55579 -1.59771,4.93826 -1.91837,4.95382 -0.0806,0.004 0.2418,-1.15234 0.71644,-2.56944 z m 18.72579,-4.71838 c 0.48799,-0.488 0.52925,-1.29639 0.1253,-2.45517 -0.28979,-0.83131 -0.60588,-1.04479 -0.88302,-0.59637 -0.0805,0.13027 0.041,0.30877 0.27004,0.39666 0.31475,0.12078 0.37416,0.3698 0.24331,1.01991 -0.30561,1.51841 -0.43036,1.7975 -0.7227,1.61683 -0.17066,-0.10548 -0.21012,-0.0536 -0.0976,0.12845 0.25715,0.41608 0.5708,0.38358 1.0647,-0.11031 z m -12.47794,-0.78439 c 0.59701,-0.40569 0.98746,-0.88394 0.98746,-1.20953 0,-0.61831 -0.72729,-1.45612 -1.00479,-1.15746 -0.10221,0.11001 -0.037,0.25316 0.14489,0.31813 0.18191,0.065 0.33073,0.35624 0.33073,0.64728 0,0.88319 -0.65231,0.38425 -0.77613,-0.59364 l -0.11468,-0.90566 -0.1499,1.00095 c -0.0825,0.55052 -0.25566,0.98684 -0.38491,0.96959 -0.12925,-0.0173 -0.34484,0.12763 -0.47908,0.32196 -0.15858,0.22958 -0.18797,0.029 -0.0839,-0.57271 l 0.16017,-0.92604 -0.5002,1.05833 c -0.49771,1.05304 -0.49743,1.05994 0.0543,1.37969 0.73701,0.4271 0.68719,0.43618 1.81603,-0.33089 z m 11.02303,0.0757 c -0.0177,-0.56803 -0.029,-0.57107 -0.24599,-0.0661 -0.20875,0.48581 -0.22924,0.47497 -0.25004,-0.13229 -0.018,-0.52683 -0.0748,-0.58068 -0.27912,-0.26458 -0.21383,0.33087 -0.26226,0.30886 -0.29123,-0.13229 -0.0294,-0.44704 -0.0535,-0.45731 -0.15574,-0.0661 -0.16604,0.63538 -0.58468,0.58125 -0.83988,-0.1086 -0.19194,-0.51888 -0.2282,-0.52799 -0.39294,-0.0987 -0.21907,0.57089 0.53595,1.24817 1.2165,1.09126 0.25452,-0.0587 0.52944,10e-4 0.61093,0.13305 0.27794,0.44972 0.64615,0.24108 0.62751,-0.35557 z m 4.39688,-0.44981 c -0.37484,-0.39124 -0.62033,-0.7924 -0.54553,-0.89145 0.0748,-0.0991 0.0576,-0.12159 -0.0381,-0.0501 -0.0958,0.0715 -0.33387,-0.003 -0.52916,-0.16469 -0.26553,-0.22036 -0.35508,-0.20944 -0.35508,0.0433 0,0.22562 -0.19791,0.17105 -0.59531,-0.16415 -0.52541,-0.44318 -0.51765,-0.40916 0.0661,0.28972 1.03662,1.24098 1.93779,1.93298 2.32418,1.78471 0.25957,-0.0996 0.17204,-0.32631 -0.32715,-0.84735 z m -0.82305,-0.0794 -0.77711,-0.85989 0.8599,0.7771 c 0.80154,0.72437 0.98151,0.94269 0.7771,0.94269 -0.0455,0 -0.43249,-0.38695 -0.85989,-0.8599 z m -7.58134,0.44696 c 0.75487,-0.52873 1.47196,-1.88042 1.11472,-2.1012 -0.14499,-0.0896 -0.26361,0.0142 -0.26361,0.23067 0,0.50983 -0.76457,1.2744 -1.07967,1.07966 -0.13379,-0.0827 -0.25162,0.0651 -0.26185,0.3283 -0.0166,0.42724 -0.043,0.42182 -0.24598,-0.0505 -0.19445,-0.4525 -0.23009,-0.46208 -0.24599,-0.0661 -0.0102,0.25466 -0.15117,0.46302 -0.31321,0.46302 -0.17685,0 -0.24805,-0.31728 -0.17812,-0.79375 0.0641,-0.43656 0.0181,-0.79375 -0.10226,-0.79375 -0.12032,0 -0.23284,0.32742 -0.25006,0.72761 l -0.0313,0.7276 -0.20197,-0.79375 c -0.1669,-0.65592 -0.20741,-0.68876 -0.23328,-0.18913 -0.0283,0.54661 -0.0884,0.57295 -0.62662,0.27452 -0.32742,-0.18156 -0.66697,-0.31069 -0.75456,-0.28695 -0.0876,0.0237 -0.11481,-0.2784 -0.0605,-0.6714 0.0973,-0.70374 0.0946,-0.70509 -0.17412,-0.089 -0.21731,0.49813 -0.34838,0.56286 -0.64356,0.31789 -0.21918,-0.1819 -0.43318,-0.2065 -0.52361,-0.0602 -0.20466,0.33115 0.32646,0.72157 1.29645,0.953 0.43656,0.10417 0.97234,0.34642 1.19062,0.53834 0.36054,0.31699 1.00921,0.55642 1.72707,0.63747 0.14952,0.0169 0.53716,-0.15513 0.86141,-0.38225 z m 4.73863,-0.57421 c -0.0671,-0.25743 -0.12638,-0.11087 -0.13178,0.32569 -0.005,0.43656 0.0495,0.64719 0.12197,0.46806 0.0725,-0.17913 0.0769,-0.53632 0.01,-0.79375 z m 18.02275,0.44574 c -0.25192,-0.14693 -0.40337,-0.48743 -0.347,-0.78014 0.055,-0.28567 -0.0301,-0.59984 -0.18917,-0.69814 -0.16307,-0.10079 -0.21434,-0.0576 -0.11754,0.099 0.0944,0.15276 -0.036,0.35825 -0.28985,0.45665 -0.43485,0.16858 -0.43367,0.19941 0.0206,0.53383 0.46634,0.34335 0.46634,0.35898 0,0.47958 -0.26513,0.0686 -0.0653,0.13485 0.44399,0.14731 0.72836,0.0178 0.83061,-0.033 0.47902,-0.23809 z m -2.06652,-0.25234 c -0.35278,-0.22798 -0.35278,-0.25782 0,-0.26858 0.31006,-0.009 0.29437,-0.0718 -0.0717,-0.28489 -0.25773,-0.15004 -0.39219,-0.39643 -0.29881,-0.54752 0.10141,-0.16407 -0.0634,-0.14995 -0.40905,0.0351 -0.46368,0.24816 -0.70505,0.22709 -1.21324,-0.10589 -0.34893,-0.22863 -0.77372,-0.41568 -0.94398,-0.41568 -0.44626,0 0.81928,0.9441 1.89187,1.41135 1.0468,0.45602 1.63015,0.55436 1.04492,0.17615 z m -0.92417,-0.52614 c -0.0927,-0.14998 0.0135,-0.19433 0.24897,-0.10398 0.45837,0.17589 0.54223,0.36554 0.16165,0.36554 -0.13694,0 -0.32172,-0.1177 -0.41062,-0.26156 z m 5.02334,0.52917 c 0.0927,-0.14998 -0.0135,-0.19434 -0.24897,-0.10398 -0.45837,0.17589 -0.54224,0.36553 -0.16165,0.36553 0.13693,0 0.32171,-0.1177 0.41062,-0.26155 z m -33.74188,-1.44266 c 0.005,-0.13696 -0.15413,-0.0254 -0.35397,0.2479 -0.35207,0.48148 -0.36881,0.4797 -0.53924,-0.0573 -0.16595,-0.52285 -0.95064,-1.06962 -0.94851,-0.66092 5.3e-4,0.10458 0.25145,0.60099 0.55758,1.10315 l 0.55659,0.91301 0.35909,-0.64843 c 0.19749,-0.35664 0.3633,-0.76048 0.36846,-0.89743 z m 11.30261,0.86085 c -0.0845,-0.21106 -0.14715,-0.14837 -0.15985,0.15986 -0.0115,0.27891 0.051,0.43518 0.13897,0.34726 0.0879,-0.0879 0.0973,-0.31612 0.0209,-0.50712 z m -10.32426,-1.07487 c -0.0734,-0.1819 -0.13345,-0.0331 -0.13345,0.33073 0,0.3638 0.06,0.51263 0.13345,0.33073 0.0734,-0.1819 0.0734,-0.47956 0,-0.66146 z m 7.14375,0 c -0.0734,-0.1819 -0.13345,-0.0331 -0.13345,0.33073 0,0.3638 0.06,0.51263 0.13345,0.33073 0.0734,-0.1819 0.0734,-0.47956 0,-0.66146 z m -2.38125,-0.26458 c -0.0734,-0.1819 -0.13345,-0.0331 -0.13345,0.33073 0,0.3638 0.06,0.51263 0.13345,0.33073 0.0734,-0.1819 0.0734,-0.47956 0,-0.66146 z m 0.52917,0 c -0.0734,-0.1819 -0.13345,-0.0331 -0.13345,0.33073 0,0.3638 0.06,0.51263 0.13345,0.33073 0.0734,-0.1819 0.0734,-0.47956 0,-0.66146 z m -8.34427,-1.56136 c 0.41839,-0.38581 0.76071,-0.90806 0.76071,-1.16056 0,-0.37613 -0.12531,-0.33379 -0.69341,0.23431 -0.38138,0.38138 -0.79809,0.62871 -0.92604,0.54964 -0.12795,-0.0791 -0.23264,-0.0214 -0.23264,0.12811 0,0.14955 -0.17859,0.20337 -0.39687,0.1196 -0.26031,-0.0999 -0.40765,0.0168 -0.42818,0.33904 -0.0179,0.28095 -0.11779,0.15145 -0.23328,-0.30243 l -0.20197,-0.79375 -0.0354,0.79375 c -0.0274,0.61523 -0.093,0.70449 -0.29184,0.39688 -0.17098,-0.26458 -0.25783,-0.28663 -0.26053,-0.0661 -0.002,0.19472 -0.23301,0.10177 -0.56078,-0.226 -0.42462,-0.42461 -0.51888,-0.75423 -0.39724,-1.38906 0.11422,-0.59614 0.0857,-0.71971 -0.10068,-0.43546 -0.14309,0.21828 -0.26199,0.60524 -0.26422,0.8599 -0.002,0.25466 -0.18264,0.46302 -0.40092,0.46302 -0.21828,0 -0.39688,-0.21166 -0.39688,-0.47037 0,-0.49489 -1.00643,-1.52181 -1.25139,-1.27685 -0.25028,0.25028 0.47095,1.66096 1.21235,2.37127 0.39394,0.37742 1.18896,0.85302 1.76671,1.05689 1.1804,0.41651 1.84676,0.1782 3.33246,-1.19178 z m 2.25885,0.76761 c -0.0734,-0.1819 -0.13345,-0.0331 -0.13345,0.33073 0,0.3638 0.06,0.51263 0.13345,0.33073 0.0734,-0.1819 0.0734,-0.47956 0,-0.66146 z m -0.52365,0.0165 c -0.0845,-0.21107 -0.14716,-0.14838 -0.15985,0.15985 -0.0115,0.27891 0.051,0.43518 0.13896,0.34727 0.0879,-0.0879 0.0973,-0.31613 0.0209,-0.50712 z m 11.14293,-0.9424 c -0.0408,-1.08572 0.17317,-1.30728 0.72734,-0.75312 0.75678,0.75679 1.95251,1.23797 2.9709,1.19553 0.54196,-0.0226 1.49556,0.14756 2.11912,0.37809 3.03646,1.1226 4.56177,-1.08371 2.27739,-3.29417 -0.9451,-0.91451 -1.01563,-0.58454 -0.16068,0.75165 0.20878,0.3263 0.30835,0.77897 0.22125,1.00593 -0.10683,0.2784 -0.0517,0.35134 0.16935,0.22421 0.18023,-0.10365 0.23943,-0.091 0.13156,0.0281 -0.10788,0.11908 -0.0635,0.3763 0.0985,0.57159 0.20124,0.24248 0.20547,0.35507 0.0133,0.35507 -0.15475,0 -0.35615,-0.12101 -0.44756,-0.2689 -0.0914,-0.14789 -0.27896,-0.1992 -0.4168,-0.11401 -0.13784,0.0852 -0.16961,0.28596 -0.0706,0.44616 0.11764,0.19034 0.0195,0.22964 -0.2834,0.11343 -0.25487,-0.0978 -0.92837,-0.25218 -1.49667,-0.34305 l -1.03327,-0.16523 0.099,-1.39067 c 0.0545,-0.76487 0.0238,-1.49394 -0.0681,-1.62014 -0.29054,-0.39901 -0.83741,-0.38191 -0.99592,0.0311 -0.084,0.2188 -0.25787,0.33278 -0.38648,0.2533 -0.12861,-0.0795 -0.15337,0.07 -0.055,0.33225 0.15352,0.40936 0.11901,0.42819 -0.24406,0.13318 -0.23257,-0.18896 -0.48282,-0.24654 -0.55612,-0.12795 -0.0733,0.11859 0.15438,0.35136 0.50594,0.51727 0.42059,0.19849 0.57986,0.20565 0.4657,0.0209 -0.10204,-0.1651 -0.0477,-0.20297 0.13197,-0.0919 0.17111,0.10576 0.30724,0.0365 0.30951,-0.15755 0.003,-0.25167 0.0742,-0.23786 0.26053,0.0505 0.14107,0.21828 0.25648,0.51593 0.25648,0.66146 0,0.14552 -0.11169,0.0879 -0.2482,-0.12797 -0.19571,-0.30952 -0.33645,-0.18135 -0.66541,0.60598 -0.39619,0.94823 -0.93036,1.12054 -0.93036,0.30012 0,-0.20969 -0.11906,-0.38126 -0.26458,-0.38126 -0.14552,0 -0.26458,-0.12609 -0.26458,-0.2802 0,-0.15411 0.14882,-0.19078 0.33073,-0.0815 0.22746,0.13666 0.2181,0.0598 -0.03,-0.24605 -0.40561,-0.50011 -0.88123,-0.36299 -0.66803,0.19259 0.0763,0.1989 0.0251,0.43187 -0.11377,0.51772 -0.1389,0.0858 -0.31446,-0.0807 -0.39014,-0.37012 -0.13023,-0.49797 -1.24548,-0.78502 -1.24548,-0.32057 0,0.11309 -0.35719,0.59669 -0.79375,1.07466 -0.52491,0.5747 -0.79375,0.7291 -0.79375,0.45584 0,-0.48735 -0.78405,-0.56673 -0.81464,-0.0825 -0.0115,0.1819 -0.14072,0.003 -0.28718,-0.39852 -0.27508,-0.75334 -0.75026,-0.7556 -0.75026,-0.004 0,1.21869 1.73635,1.81083 2.73076,0.93126 0.51055,-0.45159 0.51903,-0.44343 0.34353,0.33072 -0.12854,0.56699 -0.10506,0.68076 0.0822,0.39824 0.14417,-0.21753 0.24753,-0.78361 0.2297,-1.25795 z m 19.20002,0.44364 c 0.75554,-0.59431 0.86287,-1.27851 0.40612,-2.58875 -0.19431,-0.55738 -0.52143,-0.89265 -0.98433,-1.00883 -0.38131,-0.0957 -1.08379,-0.40441 -1.56106,-0.686 -1.16686,-0.68847 -1.1135,-0.39018 0.0599,0.33505 0.51023,0.31534 0.86124,0.68087 0.78001,0.8123 -0.0812,0.13142 0.0195,0.1748 0.2238,0.0964 0.40999,-0.15733 1.33098,1.03128 1.03129,1.33096 -0.10156,0.10157 -0.18466,0.43271 -0.18466,0.73588 0,0.30317 -0.14357,0.59907 -0.31903,0.65756 -0.19919,0.0664 -0.27985,-0.0972 -0.21471,-0.43541 0.0574,-0.29796 -0.0258,-0.62218 -0.18486,-0.72049 -0.18662,-0.11533 -0.21238,-0.0544 -0.0726,0.1717 0.15857,0.25656 0.095,0.30376 -0.23744,0.1762 -0.30597,-0.11741 -0.39225,-0.0743 -0.26459,0.13229 0.12767,0.20656 0.0414,0.2497 -0.26458,0.13229 -0.27946,-0.10724 -0.38931,-0.0695 -0.28572,0.0981 0.0926,0.14977 0.38646,0.20308 0.65309,0.11845 0.39373,-0.12496 0.47093,-0.0276 0.41099,0.51841 -0.0895,0.81548 0.0996,0.83872 1.00838,0.1239 z m 2.68418,0.0235 c -0.076,-0.12304 0.0113,-0.27947 0.19412,-0.34762 0.22907,-0.0854 0.13799,-0.31859 -0.29302,-0.7502 -0.57494,-0.57577 -0.60233,-0.58098 -0.33943,-0.0646 0.15728,0.3089 0.23657,0.8181 0.1762,1.13154 -0.062,0.32219 0.001,0.50138 0.14532,0.41226 0.14029,-0.0867 0.19285,-0.25831 0.11681,-0.38134 z m -5.17965,-0.0152 c -0.16805,-0.10386 -0.56026,-0.13358 -0.87158,-0.066 -0.40928,0.0888 -0.46829,0.0534 -0.2131,-0.1279 0.28554,-0.20286 0.27029,-0.28242 -0.0799,-0.4168 -0.26214,-0.10059 -0.36648,-0.0588 -0.2646,0.10608 0.10796,0.17469 -0.1003,0.21558 -0.58157,0.11416 l -0.74978,-0.15799 0.66146,0.39666 c 0.36381,0.21816 1.05367,0.38406 1.53304,0.36866 0.47937,-0.0154 0.73408,-0.11297 0.56602,-0.21684 z m -22.26507,-1.08357 c 1.09985,-0.53243 2.17116,-1.79231 2.17336,-2.55592 0.001,-0.4593 -1.19165,0.41481 -1.55153,1.13683 -0.14506,0.29104 -0.27181,0.38034 -0.28166,0.19844 -0.0269,-0.49744 -0.49275,-0.39742 -0.61608,0.13229 -0.0743,0.31911 -0.2006,0.17519 -0.40634,-0.46302 -0.23295,-0.72263 -0.29207,-0.78075 -0.26912,-0.26459 0.0162,0.36381 -0.0687,0.89088 -0.1885,1.17128 -0.21515,0.50338 -0.22043,0.50338 -0.41762,0 -0.10985,-0.2804 -0.20809,-0.84427 -0.21832,-1.25304 -0.0106,-0.42446 -0.13207,-0.67308 -0.28318,-0.57969 -0.1505,0.093 -0.26458,-0.13342 -0.26458,-0.52516 0,-0.49991 -0.12209,-0.66736 -0.44544,-0.61092 -0.28617,0.0499 -0.50966,-0.15877 -0.62504,-0.58372 -0.16544,-0.60932 -0.19654,-0.62127 -0.39458,-0.15163 -0.21226,0.50337 -0.2175,0.50337 -0.41469,0 -0.17119,-0.43699 -0.20238,-0.41152 -0.21832,0.1783 -0.023,0.84991 0.46371,2.34534 0.94549,2.90522 0.19799,0.23009 0.32996,0.46822 0.29326,0.52917 -0.0367,0.0609 -0.0297,0.0937 0.0154,0.0727 0.0452,-0.0209 0.36721,0.24695 0.71558,0.59532 0.77548,0.77547 0.97895,0.78113 2.45185,0.0681 z m 19.17071,-0.24152 c 1.08068,-0.30013 1.52447,-0.88214 1.52447,-1.99925 0,-0.73672 -0.65051,-1.69187 -1.15226,-1.69187 -0.18327,0 -0.17826,0.0982 0.0149,0.29135 0.18379,0.18379 0.21225,0.56716 0.0771,1.03842 -0.11784,0.41088 -0.13947,0.82185 -0.0481,0.91325 0.0914,0.0914 -0.0485,0.0838 -0.31094,-0.0169 -0.32717,-0.12555 -0.38004,-0.24312 -0.1682,-0.37404 0.2163,-0.13368 0.17916,-0.24075 -0.12385,-0.35702 -0.25295,-0.0971 -0.36563,-0.0574 -0.27115,0.0955 0.0889,0.14385 0.006,0.26517 -0.1847,0.2696 -0.21116,0.005 -0.16345,0.11452 0.12224,0.28084 0.25773,0.15004 0.40037,0.38318 0.31699,0.51809 -0.0834,0.13491 0.0332,0.17439 0.25902,0.0877 0.22584,-0.0867 0.41062,-0.0909 0.41062,-0.009 0,0.0815 -0.43939,0.26949 -0.97643,0.41777 -0.86527,0.23891 -1.14316,0.1793 -2.44117,-0.52374 -0.80562,-0.43634 -1.31546,-0.64136 -1.13299,-0.4556 0.30246,0.3079 2.65035,1.70662 2.96309,1.76521 0.0728,0.0136 0.57737,-0.0988 1.12136,-0.2499 z m 3.11197,0.17364 c 0,-0.0572 -0.18478,-0.17489 -0.41062,-0.26155 -0.23546,-0.0904 -0.34166,-0.046 -0.24897,0.10398 0.15538,0.25141 0.65959,0.37186 0.65959,0.15757 z m -29.18709,-1.21917 c 0.61349,-0.45116 1.13424,-1.07949 1.20606,-1.45521 0.18145,-0.9492 -0.11471,-0.81402 -0.72669,0.33168 -0.34703,0.6497 -0.72687,1.00145 -1.10189,1.02042 -0.38841,0.0196 -0.52663,-0.0901 -0.43014,-0.34155 0.0782,-0.20377 0.0383,-0.35152 -0.0887,-0.32834 -0.61043,0.11144 -0.86316,-0.0533 -0.7068,-0.46079 0.10748,-0.28008 0.0645,-0.37575 -0.11799,-0.26293 -0.15782,0.0975 -0.35525,0.0278 -0.43873,-0.15504 -0.0835,-0.18281 -0.0804,0.0843 0.007,0.59367 0.14838,0.86625 0.75888,1.85208 1.14695,1.85208 0.0943,0 0.65729,-0.3573 1.25111,-0.79399 z m 5.55698,-0.99195 c -0.0666,-0.25466 -0.12101,-0.0463 -0.12101,0.46302 0,0.50933 0.0544,0.71769 0.12101,0.46302 0.0665,-0.25466 0.0665,-0.67138 0,-0.92604 z m 18.47073,-0.0661 c -0.0899,-0.14552 -0.30532,-0.26276 -0.47863,-0.26054 -0.18934,0.002 -0.15671,0.10643 0.0818,0.26054 0.5083,0.32848 0.59989,0.32848 0.39687,0 z m -28.44806,-0.42561 c 1.08956,-0.43595 1.51503,-1.07622 0.50139,-0.7545 -0.37839,0.12009 -0.50309,0.0827 -0.38126,-0.11447 0.2572,-0.41615 -0.18599,-0.36268 -0.79181,0.0955 -0.77017,0.58253 -1.06401,0.48437 -0.34446,-0.11508 0.72016,-0.59996 0.32161,-0.73258 -0.44929,-0.14951 -0.77348,0.58504 -0.9873,0.48213 -0.34104,-0.16413 0.53991,-0.53991 0.54504,-0.58726 0.0991,-0.91333 -0.25868,-0.18915 -0.40246,-0.52076 -0.31951,-0.73692 0.0853,-0.22225 -0.0146,-0.42895 -0.22991,-0.47573 -0.33098,-0.0719 -0.33111,-0.1778 -0.001,-0.81033 0.20884,-0.40018 0.28127,-0.7276 0.16096,-0.7276 -0.5164,0 -1.13086,1.94839 -1.01026,3.20346 0.20331,2.1159 0.96097,2.52132 3.10712,1.6626 z m 29.10952,-0.20754 c 0,-0.0572 -0.18477,-0.17489 -0.41061,-0.26156 -0.23546,-0.0904 -0.34167,-0.046 -0.24897,0.10399 0.15538,0.25141 0.65958,0.37185 0.65958,0.15757 z m 0.66146,-0.42519 c -0.0899,-0.14552 -0.30532,-0.26276 -0.47863,-0.26053 -0.18934,0.002 -0.15671,0.10642 0.0818,0.26053 0.50829,0.32849 0.59989,0.32849 0.39687,0 z m -5.79202,-0.39065 c 0.72351,-0.21486 1.63442,-0.72356 2.02424,-1.13045 0.69303,-0.72336 0.69854,-0.75539 0.24812,-1.44201 -0.56918,-0.86767 -1.43573,-1.55593 -2.88594,-2.29219 -1.15442,-0.58608 -2.81573,-0.83483 -1.86053,-0.27858 0.25581,0.14897 0.613,0.18579 0.79375,0.0818 0.18075,-0.10397 0.24252,-0.0938 0.13728,0.0227 -0.10525,0.11645 0.19241,0.69627 0.66146,1.28849 0.46904,0.59222 0.85281,1.19576 0.85281,1.3412 0,0.14544 0.39299,0.34481 0.87332,0.44305 1.4333,0.29314 1.19959,0.39434 -0.88451,0.38299 -1.29715,-0.007 -1.97299,-0.11433 -1.97307,-0.31317 -6e-5,-0.16633 -0.18489,-0.37332 -0.41073,-0.45999 -0.23546,-0.0904 -0.34167,-0.046 -0.24897,0.10399 0.26047,0.42145 -0.83122,0.29999 -1.19008,-0.13241 -0.17983,-0.21668 -0.42431,-0.3338 -0.54328,-0.26027 -0.11898,0.0735 -0.27639,0.0365 -0.34981,-0.0823 -0.0734,-0.11879 0.14879,-0.21598 0.49379,-0.21598 0.34501,0 0.58068,0.0754 0.52372,0.16757 -0.057,0.0922 0.0634,0.16757 0.26738,0.16757 0.2673,0 0.30361,-0.12582 0.12996,-0.45028 -0.13254,-0.24766 -0.2154,-0.49713 -0.18414,-0.55438 0.0313,-0.0573 -0.0622,0.0228 -0.20775,0.17788 -0.40998,0.43695 -2.00111,0.28896 -2.37385,-0.22079 -0.18168,-0.24846 -0.51853,-0.45174 -0.74856,-0.45174 -0.87188,0 -0.71885,0.59399 0.45563,1.76846 1.21063,1.21064 1.22148,1.21496 2.67284,1.06517 0.86969,-0.0898 1.396,-0.0513 1.3053,0.0955 -0.0836,0.13524 -0.71048,0.25065 -1.39312,0.25648 l -1.24116,0.0106 0.79375,0.4372 c 0.43657,0.24045 1.27,0.51844 1.85209,0.61774 0.58208,0.0993 1.06649,0.19546 1.07646,0.21367 0.01,0.0182 0.61009,-0.14267 1.3336,-0.35753 z m 14.13519,0.0115 c 1.57415,-0.68652 2.20419,-1.32016 2.02026,-2.03182 -0.1959,-0.75792 -1.06303,-1.76691 -2.20219,-2.56247 -1.16223,-0.81166 -1.73739,-0.7273 -0.68676,0.10072 0.47294,0.37274 0.8599,0.84767 0.8599,1.0554 0,0.20774 0.13364,0.3777 0.29698,0.3777 0.20518,0 0.19517,0.12267 -0.0324,0.39687 -0.27277,0.32867 -0.24423,0.39757 0.16604,0.40093 0.4167,0.003 0.43235,0.0448 0.0985,0.26053 -0.33917,0.21919 -0.32955,0.25707 0.0661,0.26053 0.25466,0.002 0.46302,0.11355 0.46302,0.24737 0,0.13383 -0.55194,0.20611 -1.22654,0.16063 -0.67459,-0.0455 -1.08669,0.004 -0.91576,0.10938 0.19097,0.11802 -0.0961,0.35191 -0.74461,0.60665 -0.76012,0.29858 -1.08685,0.32945 -1.16784,0.11032 -0.0844,-0.22842 -0.19407,-0.22756 -0.43996,0.003 -0.18013,0.16922 -0.26085,0.41554 -0.17936,0.54739 0.25165,0.40719 2.65729,0.37828 3.62453,-0.0436 z m -1.06713,-0.67921 c 0.21828,-0.14107 0.57547,-0.24994 0.79375,-0.24194 0.26169,0.01 0.21663,0.092 -0.13229,0.24194 -0.72736,0.31256 -1.14511,0.31256 -0.66146,0 z m -20.88896,0.38107 c 0.56406,-0.67966 -0.0168,-1.74398 -1.47151,-2.69617 -1.72568,-1.12958 -2.51619,-1.11681 -3.41004,0.0551 -0.46913,0.61505 -0.99981,0.97163 -1.6189,1.08778 -1.08596,0.20372 -1.15746,0.47592 -0.27665,1.05305 0.74553,0.48849 2.03729,0.42075 2.21384,-0.1161 0.0733,-0.22281 0.003,-0.2948 -0.17804,-0.18282 -0.16439,0.10161 -0.2989,0.0587 -0.2989,-0.0955 0,-0.35145 0.16472,-0.35226 0.81543,-0.004 0.45283,0.24234 0.53791,0.16939 0.6943,-0.59532 0.17333,-0.84756 0.18339,-0.85333 0.36621,-0.21004 l 0.18798,0.66146 0.0502,-0.66146 c 0.0447,-0.58821 0.0788,-0.56225 0.30786,0.23445 0.18658,0.64888 0.16926,0.97718 -0.0628,1.19063 -0.24216,0.22274 -0.28476,0.1924 -0.17441,-0.12421 0.0866,-0.24846 -5.3e-4,-0.41893 -0.214,-0.41893 -0.19801,0 -0.30254,0.093 -0.2323,0.20666 0.0702,0.11366 -0.11358,0.16018 -0.40851,0.10338 -0.94516,-0.18202 -0.57249,0.29204 0.45595,0.58001 1.52643,0.42739 2.86636,0.39939 3.25427,-0.068 z m -20.46248,-0.7204 c 0.37307,-0.37307 0.38506,-0.46003 0.067,-0.48575 -0.21308,-0.0172 -0.50648,-0.006 -0.65201,0.0248 -0.79638,0.16883 -1.98437,0.17148 -1.98437,0.004 0,-0.10616 -0.38695,-0.14923 -0.8599,-0.0957 l -0.85989,0.0973 0.77338,-0.5113 c 0.42536,-0.28121 0.87203,-0.68756 0.99259,-0.90299 0.38679,-0.69115 -1.13957,-0.0941 -1.7089,0.66844 -0.4228,0.5663 -0.45495,0.77931 -0.19181,1.27099 0.28956,0.54105 0.46962,0.58201 2.14281,0.48746 1.2677,-0.0716 1.96575,-0.24227 2.28111,-0.55763 z m 5.75927,-0.25598 -0.12478,-0.8599 0.27125,0.8599 c 0.14919,0.47294 0.3354,0.85989 0.41381,0.85989 0.0784,0 0.0622,-0.25303 -0.0359,-0.5623 -0.12009,-0.37839 -0.0827,-0.50308 0.11447,-0.38126 0.16111,0.0996 0.29293,0.35261 0.29293,0.5623 0,0.68233 1.41368,0.41759 2.97067,-0.55631 1.39567,-0.873 1.87606,-1.46009 1.72252,-2.10514 -0.0346,-0.14552 -0.16689,-0.22994 -0.29388,-0.18761 -0.127,0.0423 -0.15403,-0.12334 -0.0601,-0.36816 0.14876,-0.38767 0.11418,-0.39812 -0.26798,-0.081 -0.24134,0.20029 -0.57149,0.37252 -0.73367,0.38274 -0.16217,0.0102 -0.80934,0.26461 -1.43814,0.56531 l -1.14327,0.54674 0.71593,0.56316 c 0.39377,0.30973 0.56819,0.56315 0.3876,0.56315 -0.18058,0 -0.78255,-0.35974 -1.3377,-0.79943 -0.66003,-0.52275 -1.38537,-0.83131 -2.09579,-0.89154 -0.59753,-0.0507 -1.32131,-0.30468 -1.60839,-0.56449 -0.46343,-0.4194 -0.52198,-0.42427 -0.52198,-0.0435 0,0.79776 0.82454,2.16341 1.6676,2.76196 1.11038,0.78835 1.25265,0.75427 1.10481,-0.26458 z m 4.90051,-1.62125 c 0,-0.0549 0.20836,-0.2633 0.46302,-0.46302 0.41964,-0.32911 0.429,-0.31975 0.0999,0.0999 -0.34564,0.44073 -0.56291,0.58089 -0.56291,0.36313 z m 28.49893,1.12555 c 1.91461,-0.70249 2.01935,-0.80211 1.81589,-1.72711 -0.17428,-0.79231 -1.56891,-1.94438 -2.35375,-1.94438 -0.38266,0 -0.40013,0.0781 -0.11842,0.52917 0.18176,0.29104 0.42587,0.52916 0.54247,0.52916 0.1166,0 0.4551,0.22648 0.75222,0.50329 l 0.54022,0.50329 -0.80941,0.17777 c -0.44517,0.0978 -0.94977,0.091 -1.12133,-0.015 -0.20804,-0.12858 -0.24111,-0.0782 -0.0993,0.15128 0.16402,0.2654 0.0373,0.30315 -0.55443,0.16513 -0.48143,-0.11229 -0.63565,-0.0911 -0.41416,0.0569 0.27955,0.18678 0.25206,0.27859 -0.13229,0.44164 -0.26686,0.11322 -0.6638,0.2391 -0.88208,0.27974 -0.21828,0.0406 -0.69453,0.14653 -1.05833,0.23531 -0.63097,0.15398 -0.63401,0.14927 -0.0661,-0.1021 0.84686,-0.37487 0.73974,-0.58697 -0.12954,-0.25647 -0.39867,0.15157 -1.14281,0.20571 -1.65364,0.12031 -0.81289,-0.13591 -0.86276,-0.11484 -0.39963,0.16883 1.33414,0.81718 4.18227,0.90216 6.14164,0.18325 z m -40.66977,0.0327 c -0.21828,-0.14107 -0.51593,-0.25648 -0.66146,-0.25648 -0.14552,0 -0.086,0.11541 0.1323,0.25648 0.21828,0.14106 0.51593,0.25648 0.66145,0.25648 0.14553,0 0.086,-0.11542 -0.13229,-0.25648 z m 51.19688,-0.26459 c 0.34891,-0.14993 0.39398,-0.23234 0.13229,-0.24193 -0.21828,-0.008 -0.57547,0.10087 -0.79375,0.24193 -0.48365,0.31256 -0.0659,0.31256 0.66146,0 z m -22.18399,-1.01302 c -0.24084,-0.26612 -0.43789,-0.61912 -0.43789,-0.78444 0,-0.16532 -0.26789,-0.44333 -0.59531,-0.6178 -0.55971,-0.29823 -0.57232,-0.28692 -0.21099,0.18913 0.64701,0.85243 1.42084,1.69697 1.55489,1.69697 0.07,0 -0.0699,-0.21774 -0.3107,-0.48386 z m 6.61328,-0.1542 c 1.41534,-0.11921 2.6714,-0.62796 3.23907,-1.31196 0.48581,-0.58537 -0.0741,-1.48957 -0.92245,-1.48957 -0.36727,0 -0.60047,0.1089 -0.51821,0.24199 0.0822,0.13309 -2e-5,0.30228 -0.18282,0.37598 -0.18281,0.0737 -0.0347,0.14414 0.32908,0.15652 0.66016,0.0225 0.65994,0.0233 -0.1149,0.42737 -0.42699,0.22266 -0.93503,0.34396 -1.12896,0.26954 -0.19394,-0.0744 -0.83081,0.11394 -1.41528,0.41858 -0.74707,0.3894 -1.31542,0.50541 -1.91374,0.39066 -0.60656,-0.11633 -0.73706,-0.0885 -0.45421,0.0969 0.35278,0.23126 0.35278,0.26106 0,0.26827 -0.35277,0.007 -0.35277,0.037 0,0.26816 0.21828,0.14304 0.69453,0.20206 1.05834,0.13117 0.3638,-0.0709 1.27464,-0.18053 2.02408,-0.24364 z m -41.14516,-0.15569 c 0.3153,0 0.45118,-0.11644 0.342,-0.29309 -0.11227,-0.18166 -0.57084,-0.23077 -1.20624,-0.12916 -0.623,0.0996 -1.0251,0.0589 -1.0251,-0.10379 0,-0.14724 0.0992,-0.26771 0.22049,-0.26771 0.57589,0 0.13096,-0.79074 -0.52614,-0.93507 -0.41064,-0.0902 -0.81454,-0.27388 -0.89756,-0.40821 -0.083,-0.13432 -0.4118,-0.24605 -0.73063,-0.24827 -0.47322,-0.003 -0.5068,-0.0519 -0.18283,-0.26459 0.35278,-0.23158 0.35278,-0.28932 0,-0.51966 -0.32112,-0.20967 -0.23397,-0.32128 0.45652,-0.58472 0.60007,-0.22894 0.97174,-0.62134 1.25204,-1.32188 0.30203,-0.75485 0.50648,-0.95491 0.84365,-0.82553 0.32616,0.12516 0.3865,0.0761 0.22592,-0.18374 -0.16011,-0.25907 -0.10057,-0.30902 0.22118,-0.18556 0.24215,0.0929 0.44028,0.0536 0.44028,-0.0873 0,-0.35297 -1.30531,-0.30066 -2.1554,0.0864 -0.84645,0.38538 -1.93446,1.67005 -2.15455,2.54399 -0.16853,0.66918 0.71552,2.47561 1.60033,3.27005 0.46776,0.41998 1.75896,0.71537 2.40053,0.54916 0.1938,-0.0502 0.58778,-0.0913 0.87551,-0.0913 z m 15.99411,-0.59674 c 0.14695,-0.26037 0.11126,-0.26007 -0.17047,0.001 -0.52701,0.48918 -0.90247,0.40153 -0.48131,-0.11235 0.31603,-0.38563 0.26877,-0.38168 -0.36448,0.0304 -0.82088,0.53421 -0.94307,0.74331 -0.28733,0.49168 0.31197,-0.11972 0.37977,-0.071 0.23266,0.16699 -0.16286,0.26351 -0.0898,0.2729 0.33873,0.0435 0.3005,-0.16082 0.62999,-0.44059 0.7322,-0.62171 z m 37.65183,0.31557 c 0.54865,-0.45688 0.59404,-0.61636 0.3364,-1.18183 -0.16381,-0.35952 -0.41945,-0.65367 -0.56809,-0.65367 -0.38147,0 -0.33667,0.45827 0.0605,0.61852 0.19187,0.0774 0.12978,0.14222 -0.1479,0.15434 -0.29171,0.0127 -0.40491,0.14019 -0.28985,0.32635 0.1179,0.19078 0.0725,0.23358 -0.12099,0.11401 -0.17038,-0.1053 -0.23394,-0.31417 -0.14125,-0.46415 0.0993,-0.16066 -0.0684,-0.14591 -0.40807,0.0359 -0.32163,0.17213 -0.95002,0.23555 -1.421,0.14343 l -0.84438,-0.16517 0.66146,0.55721 c 1.34848,1.13595 1.99821,1.25201 2.8832,0.51506 z m -38.43448,-1.48459 c 0.25444,-1.01375 -0.36443,-1.22317 -1.36327,-0.46132 -0.46118,0.35177 -0.96619,0.63958 -1.12223,0.63958 -0.15604,0 -0.32552,0.12545 -0.37663,0.27877 -0.0633,0.19002 -0.30203,0.19535 -0.74965,0.0168 -0.3612,-0.14411 -0.52774,-0.26956 -0.3701,-0.27878 0.15765,-0.009 0.28664,-0.19704 0.28664,-0.41736 0,-0.3092 -0.1975,-0.36354 -0.86569,-0.23819 -0.92606,0.17373 -2.34365,-0.48775 -1.64437,-0.76731 0.19211,-0.0768 0.0516,-0.16091 -0.31217,-0.1869 l -0.66146,-0.0473 0.66146,-0.21184 0.66146,-0.21183 -0.71199,-0.0264 c -0.39159,-0.0145 -0.78739,-0.14839 -0.87956,-0.29752 -0.0922,-0.14912 -0.0694,-0.25408 0.0505,-0.23325 0.11996,0.0208 0.45623,0.0202 0.74727,-0.002 0.49768,-0.037 0.50078,-0.0559 0.052,-0.31697 -0.58145,-0.33827 -2.33717,-0.59266 -1.81005,-0.26226 0.29667,0.18595 0.28421,0.33838 -0.0721,0.88225 -0.23693,0.3616 -0.35674,0.85042 -0.26623,1.08626 0.29192,0.76074 1.81875,1.49785 3.1026,1.49785 1.36086,0 2.67174,0.40809 2.45216,0.76338 -0.19771,0.31989 0.72767,0.22872 0.95919,-0.0945 0.10514,-0.14678 0.25897,-0.0623 0.35839,0.19676 0.16066,0.41868 0.23362,0.4116 0.93964,-0.0911 0.42101,-0.29978 0.84139,-0.84758 0.93419,-1.21734 z m 12.09905,1.36888 c -0.16103,-0.41962 -0.62485,-0.55055 -0.62485,-0.17639 0,0.2798 0.28921,0.57327 0.56496,0.57327 0.1167,0 0.14365,-0.1786 0.0599,-0.39688 z m -24.84819,-0.41947 c -0.0852,-0.13784 -0.26767,-0.18092 -0.40551,-0.0957 -0.13784,0.0852 -0.18091,0.26767 -0.0957,0.40551 0.0852,0.13784 0.26767,0.18091 0.40551,0.0957 0.13784,-0.0852 0.18092,-0.26766 0.0957,-0.4055 z m -7.8629,0.12733 c -0.0879,-0.0879 -0.31612,-0.0973 -0.50712,-0.0209 -0.21107,0.0845 -0.14837,0.14716 0.15985,0.15985 0.27892,0.0115 0.43519,-0.051 0.34727,-0.13896 z m 45.4477,-0.10473 c 0.34891,-0.14994 0.39398,-0.23235 0.13229,-0.24194 -0.21828,-0.008 -0.57547,0.10087 -0.79375,0.24194 -0.48365,0.31255 -0.0659,0.31255 0.66146,0 z m -39.18612,-0.30955 c -0.12864,-0.20813 -0.0471,-0.2542 0.24896,-0.14059 0.24216,0.0929 0.44028,0.0536 0.44028,-0.0873 0,-0.14096 0.1786,-0.25628 0.39688,-0.25628 0.58422,0 0.49059,-0.33848 -0.40558,-1.46616 -1.37736,-1.73319 -2.76648,-2.32459 -3.51566,-1.49676 -0.38962,0.43053 -0.38277,0.53107 0.0853,1.25249 0.79016,1.21783 3.46598,3.35341 2.74982,2.19463 z m -0.36909,-0.7644 c 0,-0.15411 0.11906,-0.20662 0.26458,-0.11668 0.14552,0.0899 0.26459,0.21603 0.26459,0.2802 0,0.0642 -0.11907,0.11668 -0.26459,0.11668 -0.14552,0 -0.26458,-0.12609 -0.26458,-0.2802 z m 5.82083,0.54478 c 0,-0.14552 -0.38695,-0.2505 -0.85989,-0.23328 l -0.8599,0.0313 0.79375,0.20198 c 0.43656,0.11108 0.82352,0.21606 0.8599,0.23328 0.0364,0.0172 0.0661,-0.0878 0.0661,-0.23328 z m 31.48542,-0.52917 c -0.21828,-0.14106 -0.57547,-0.24993 -0.79375,-0.24193 -0.26169,0.01 -0.21662,0.092 0.13229,0.24193 0.72737,0.31256 1.14511,0.31256 0.66146,0 z m 1.19062,0 c -0.0899,-0.14552 -0.30532,-0.26276 -0.47863,-0.26053 -0.18934,0.002 -0.15671,0.10642 0.0818,0.26053 0.5083,0.32849 0.59989,0.32849 0.39687,0 z m -44.84687,-0.10143 c 0,-0.0558 -0.23813,-0.1637 -0.52917,-0.23981 -0.29104,-0.0761 -0.52916,-0.0305 -0.52916,0.10143 0,0.1319 0.23812,0.23981 0.52916,0.23981 0.29104,0 0.52917,-0.0456 0.52917,-0.10143 z m 32.16397,-0.78144 c 0.27835,0.10682 0.37978,-0.0678 0.37978,-0.65383 0,-0.61245 -0.27056,-1.03773 -1.15608,-1.8172 -1.94825,-1.71492 -2.26855,-1.81382 -3.90828,-1.20675 -1.72387,0.63822 -2.35352,1.49959 -1.87073,2.5592 0.31252,0.68591 0.3242,0.68847 1.04588,0.22943 0.40141,-0.25533 0.82505,-0.61592 0.94142,-0.80131 0.2709,-0.43159 0.89531,-0.4353 1.0684,-0.006 0.0734,0.18191 0.14285,0.0558 0.15433,-0.28019 0.0118,-0.34389 -0.0948,-0.53945 -0.24369,-0.44741 -0.14645,0.0905 -0.26458,-0.1023 -0.26458,-0.43183 0,-0.58029 0.01,-0.58235 0.38846,-0.0818 0.21365,0.28248 0.40061,0.87078 0.41547,1.30734 0.0233,0.6853 0.0581,0.72145 0.2544,0.26458 0.18866,-0.43902 0.23505,-0.37142 0.27236,0.39688 0.0417,0.85774 0.0606,0.87725 0.25681,0.26458 l 0.21183,-0.66146 0.045,0.66146 c 0.041,0.60292 0.0633,0.61463 0.25181,0.13229 0.19992,-0.51146 0.21321,-0.50911 0.39733,0.07 0.10477,0.32954 0.30098,0.53087 0.43602,0.44741 0.13505,-0.0835 0.25494,0.004 0.26643,0.19459 0.0149,0.24677 0.0578,0.25554 0.14938,0.0305 0.0707,-0.17372 0.2994,-0.25028 0.50828,-0.17013 z m 2.97451,-0.31475 c -0.0815,-0.0815 -0.2294,0.0654 -0.32876,0.32632 -0.14359,0.37708 -0.1132,0.40747 0.14811,0.14811 0.18082,-0.17948 0.26212,-0.39297 0.18065,-0.47443 z m -37.51068,-0.24668 c -0.14797,-0.1783 -0.18078,-0.42161 -0.0729,-0.54069 0.10788,-0.11908 0.0549,-0.13555 -0.11775,-0.0366 -0.43363,0.24855 -0.33185,1.20519 0.11018,1.03557 0.24367,-0.0935 0.26804,-0.23228 0.0805,-0.45829 z m 36.677,0.0556 c -0.0683,0.32762 -0.0163,0.52895 0.11571,0.4474 0.13195,-0.0815 0.23991,-0.33258 0.23991,-0.55784 0,-0.24099 0.1514,-0.35147 0.36785,-0.26841 0.20232,0.0776 0.60636,-0.0811 0.89788,-0.35263 0.29151,-0.27159 0.60222,-0.42159 0.69048,-0.33334 0.0883,0.0882 0.16228,-0.008 0.1645,-0.21437 0.003,-0.30863 0.0494,-0.30473 0.26054,0.022 0.22316,0.34532 0.257,0.34093 0.26053,-0.0337 0.002,-0.23684 0.18264,-0.57884 0.40092,-0.76 0.33421,-0.27736 0.39688,-0.22816 0.39688,0.31156 0,0.35252 0.14883,0.80128 0.33073,0.99725 0.25798,0.27794 0.25865,0.31566 0.003,0.17147 -0.22776,-0.12847 -0.27428,-0.0456 -0.15253,0.27165 0.1491,0.38854 0.28652,0.32314 0.92302,-0.43928 0.98907,-1.18475 0.97127,-1.4756 -0.19031,-3.11022 -0.0304,-0.0428 -0.35959,-0.13297 -0.73154,-0.20041 -0.52755,-0.0957 -1.00921,0.16871 -2.19029,1.20226 -0.8327,0.72869 -1.60653,1.32489 -1.7196,1.32489 -0.19365,0 -0.38768,0.49794 -0.67016,1.71979 -0.0979,0.42338 -0.0375,0.39693 0.30216,-0.13229 0.40543,-0.63175 0.41892,-0.6347 0.3003,-0.0658 z m 25.25347,-0.009 c 1.15807,-0.77772 1.30594,-1.87827 0.45563,-3.39119 -0.54508,-0.96985 -1.93147,-2.05276 -2.23694,-1.74729 -0.22617,0.22617 0.50876,1.48501 0.91236,1.56275 0.34255,0.066 0.32618,0.15963 -0.10301,0.58931 -0.50401,0.5046 -0.50296,0.50896 0.0854,0.35541 0.328,-0.0856 0.52905,-0.0476 0.4474,0.0845 -0.0816,0.13195 0.008,0.24173 0.19808,0.24396 0.25167,0.003 0.23785,0.0742 -0.0505,0.26053 -0.23701,0.15317 -0.27028,0.25811 -0.0826,0.26053 0.17285,0.002 0.29659,0.23895 0.27496,0.52604 -0.0311,0.41327 -0.34455,0.58184 -1.50491,0.80937 -2.12605,0.4169 -2.37346,0.5306 -1.73017,0.79511 1.01007,0.41533 2.41521,0.26827 3.33431,-0.34898 z m -5.37604,-0.30859 c 1.55059,-0.80485 2.70983,-2.37318 2.51346,-3.40043 -0.18082,-0.94591 -1.45635,-2.3018 -2.16539,-2.3018 -0.60509,0 -0.75621,0.40979 -0.22457,0.60899 0.1819,0.0682 -0.29833,0.21301 -1.06717,0.32189 -0.76885,0.10889 -1.36416,0.22551 -1.32292,0.25916 0.0412,0.0337 0.72983,0.13263 1.53019,0.21994 0.95034,0.10368 1.27162,0.0767 0.92604,-0.0778 -0.63978,-0.28606 -0.25237,-0.33585 0.66146,-0.085 0.61983,0.17014 0.59485,0.20057 -0.39687,0.48349 l -1.05834,0.30193 0.99219,0.18634 c 0.94246,0.177 1.40646,0.69153 0.62362,0.69153 -0.20271,0 -0.43069,0.1619 -0.50663,0.35979 -0.14381,0.37475 -1.99234,0.93772 -3.27686,0.99795 -0.68463,0.0321 -0.67029,0.0501 0.18331,0.22976 l 0.92604,0.19492 -0.79375,0.0534 c -0.68522,0.0461 -0.7214,0.0832 -0.26458,0.27101 0.42046,0.17289 0.44763,0.24629 0.13229,0.35732 -1.07906,0.3799 -1.10817,0.44108 -0.15513,0.32595 1.03248,-0.12472 1.04926,0.2139 0.0228,0.46078 -0.29634,0.0713 -0.0887,0.14079 0.47181,0.15798 0.59775,0.0183 1.50372,-0.23026 2.24896,-0.61708 z m -1.31517,-0.85589 c 0.19099,-0.0764 0.4192,-0.067 0.50712,0.0209 0.0879,0.0879 -0.0684,0.15045 -0.34727,0.13897 -0.30823,-0.0127 -0.37092,-0.0754 -0.15985,-0.15986 z m 0.31419,-0.3473 c -0.65714,-0.167 -0.65627,-0.16913 0.13229,-0.32583 0.90594,-0.18003 0.96708,-0.16129 0.71322,0.21855 -0.10123,0.15146 -0.48171,0.19974 -0.84551,0.10728 z m 2.06706,-2.56311 c 0.19099,-0.0764 0.4192,-0.067 0.50712,0.0209 0.0879,0.0879 -0.0684,0.15046 -0.34727,0.13897 -0.30823,-0.0127 -0.37092,-0.0754 -0.15985,-0.15985 z m -56.11372,3.98963 c -0.0879,-0.0879 -0.31612,-0.0973 -0.50712,-0.0209 -0.21106,0.0845 -0.14837,0.14715 0.15986,0.15985 0.27891,0.0115 0.43518,-0.0511 0.34726,-0.13897 z m 9.46437,-0.27502 c -0.50105,-0.39583 -0.47645,-0.4088 0.46302,-0.24418 0.57329,0.10046 0.99219,0.0676 0.99219,-0.0779 0,-0.13849 0.21667,-0.19513 0.4815,-0.12588 0.26483,0.0693 0.6297,-0.0526 0.81083,-0.2709 0.41104,-0.49527 -0.12732,-0.82816 -2.66311,-1.64676 l -1.76764,-0.57062 -1.14277,0.53623 c -0.91777,0.43065 -1.03858,0.56023 -0.61361,0.65814 0.29105,0.0671 0.84521,0.34613 1.23147,0.62018 0.38627,0.27405 0.92205,0.50767 1.19063,0.51916 0.30197,0.0129 0.35676,0.0736 0.14357,0.15902 -0.25799,0.10336 -0.22469,0.22917 0.13229,0.49986 0.70701,0.53612 1.42274,0.48178 0.74163,-0.0563 z m 40.75285,-0.1958 c 0.71793,-0.71793 -0.22843,-2.43094 -1.78874,-3.23781 -0.76758,-0.39693 -0.79921,-0.39327 -0.61849,0.0714 0.10475,0.26936 0.2114,0.60882 0.237,0.75434 0.0256,0.14552 0.22514,0.34551 0.44342,0.44442 0.29008,0.13145 0.24089,0.18485 -0.18282,0.19844 -0.31884,0.0102 -0.66347,0.15414 -0.76585,0.3198 -0.13371,0.21634 0.0929,0.24886 0.80418,0.11542 0.6739,-0.12643 0.93475,-0.0959 0.81638,0.0957 -0.0974,0.15764 0.0366,0.28964 0.30468,0.30005 1.06681,0.0414 -0.59067,0.47357 -1.90261,0.49603 -0.95645,0.0164 -1.21298,0.0937 -0.92604,0.27913 0.30116,0.19462 0.1895,0.25745 -0.46302,0.26053 -0.47295,0.002 -0.8599,0.13989 -0.8599,0.30593 0,0.4869 4.37124,0.12717 4.90181,-0.40339 z m -24.82755,-0.27332 c 0.0393,-0.68974 -0.68438,-2.80017 -0.96018,-2.80017 -0.11256,0 -0.75041,-0.41672 -1.41745,-0.92604 -2.03139,-1.55108 -3.87316,-1.10359 -3.92723,0.9542 -0.0295,1.12387 0.42907,2.31714 0.97033,2.52485 0.48625,0.18659 0.8888,-0.11798 0.50832,-0.38458 -0.14704,-0.10303 -0.18812,-0.59171 -0.0933,-1.1101 0.0931,-0.50932 0.20192,-0.80698 0.24172,-0.66146 0.0398,0.14553 0.15765,-0.21166 0.26187,-0.79375 l 0.1895,-1.05833 0.0724,1.32292 c 0.0704,1.28685 0.0777,1.29767 0.2673,0.39687 l 0.19492,-0.92604 0.0348,1.0078 c 0.0236,0.6834 0.13235,0.94754 0.33778,0.82058 0.21003,-0.12981 0.26068,0.0338 0.16515,0.53361 -0.0758,0.39646 -0.0427,0.62252 0.0736,0.50234 0.11625,-0.12017 0.26222,-0.57568 0.32437,-1.01225 l 0.11301,-0.79375 0.0396,0.8599 c 0.0263,0.57034 0.17329,0.8599 0.43652,0.8599 0.21828,0 0.39688,0.17859 0.39688,0.39687 0,0.21828 0.12609,0.39688 0.2802,0.39688 0.1541,0 0.21169,-0.11084 0.12797,-0.2463 -0.0837,-0.13547 -0.0439,-0.31324 0.0885,-0.39505 0.13238,-0.0818 0.3102,0.12824 0.39517,0.46678 0.19193,0.76473 0.83571,0.81187 0.8783,0.0643 z m -25.31801,0.11025 c -0.51815,-0.33486 -0.86841,-0.33486 -0.66146,0 0.0899,0.14552 0.36486,0.26276 0.61093,0.26053 0.38557,-0.003 0.39255,-0.0395 0.0505,-0.26053 z m 28.75574,-0.3142 c -0.0845,-0.21106 -0.14716,-0.14837 -0.15985,0.15986 -0.0115,0.27891 0.051,0.43518 0.13896,0.34726 0.0879,-0.0879 0.0973,-0.31612 0.0209,-0.50712 z m 29.71718,0.3142 c 0.21828,-0.14107 0.27781,-0.25648 0.13229,-0.25648 -0.14552,0 -0.44318,0.11541 -0.66146,0.25648 -0.21828,0.14106 -0.27781,0.25648 -0.13229,0.25648 0.14552,0 0.44318,-0.11542 0.66146,-0.25648 z m -13.43023,-0.77717 c 1.32965,-0.84324 1.91229,-1.57428 2.2061,-2.76803 0.13353,-0.54248 0.10093,-0.71275 -0.11134,-0.58157 -0.19464,0.1203 -0.24343,0.0377 -0.13879,-0.23497 0.0889,-0.2316 -0.0498,-0.65375 -0.30862,-0.93978 -0.50583,-0.55894 -1.18171,-0.6957 -1.18171,-0.23912 0,0.15411 0.11284,0.21046 0.25076,0.12523 0.13791,-0.0852 0.20428,0.0863 0.14748,0.38126 -0.0568,0.29492 0.0236,0.53623 0.17852,0.53623 0.17818,0 0.16068,0.14593 -0.0476,0.39687 -0.26552,0.31993 -0.25897,0.39844 0.0337,0.40493 0.24354,0.005 0.20881,0.0979 -0.10546,0.28084 -0.25772,0.15004 -0.41234,0.36381 -0.3436,0.47504 0.0687,0.11123 -0.30973,0.60993 -0.84107,1.10821 -0.53133,0.49829 -0.8739,0.72739 -0.76126,0.50911 0.12077,-0.23404 0.0503,-0.20859 -0.17171,0.062 -0.20708,0.2524 -0.44511,0.39032 -0.52894,0.30648 -0.0838,-0.0838 -0.35299,-0.0402 -0.59812,0.097 -0.4138,0.23158 -0.41424,0.26148 -0.006,0.4181 0.24177,0.0928 0.37465,0.0636 0.2953,-0.0648 -0.0794,-0.1284 0.1545,-0.21634 0.51969,-0.19541 0.59791,0.0343 0.61902,0.071 0.21226,0.36878 -0.89581,0.65588 0.10288,0.31304 1.30045,-0.44644 z m -45.30727,-0.0166 c -0.51816,-0.33486 -0.86841,-0.33486 -0.66146,0 0.0899,0.14552 0.36485,0.26276 0.61093,0.26053 0.38557,-0.003 0.39255,-0.0395 0.0505,-0.26053 z m 48.34709,0.10473 c -0.0879,-0.0879 -0.31612,-0.0973 -0.50712,-0.0209 -0.21107,0.0845 -0.14837,0.14716 0.15985,0.15985 0.27892,0.0115 0.43519,-0.051 0.34727,-0.13896 z m -13.94071,-1.82453 c 0.19842,0.48422 0.21984,0.47299 0.25221,-0.13229 l 0.0354,-0.66146 0.24558,0.61232 c 0.28928,0.72129 0.87515,0.50364 0.63986,-0.23771 -0.0899,-0.28336 -0.0363,-0.5069 0.12153,-0.5069 0.15533,0 0.28241,-0.42374 0.28241,-0.94165 0,-0.53173 0.11015,-0.87358 0.25303,-0.78528 0.13916,0.086 0.20881,0.30139 0.15476,0.47864 -0.054,0.17724 -0.16556,0.88735 -0.24783,1.57802 -0.14362,1.20591 -0.12844,1.24267 0.38239,0.92604 0.81437,-0.50479 1.1961,-2.07328 0.74991,-3.0813 -0.20875,-0.4716 -0.56217,-0.8203 -0.83139,-0.8203 -1.30926,0 -3.55779,2.43515 -3.22288,3.49037 0.13731,0.43262 0.22289,0.47115 0.40563,0.18261 0.16095,-0.25413 0.24642,-0.0832 0.28014,0.56035 l 0.0485,0.92604 0.11696,-1.05833 c 0.0949,-0.85823 0.15796,-0.95828 0.3338,-0.52917 z m 18.57643,1.0154 c -0.1819,-0.0734 -0.47956,-0.0734 -0.66146,0 -0.1819,0.0734 -0.0331,0.13345 0.33073,0.13345 0.3638,0 0.51263,-0.0601 0.33073,-0.13345 z m 1.80662,-0.26547 c 0.74568,-0.14914 0.80142,-0.20709 0.36381,-0.37828 -0.4466,-0.17471 -0.4539,-0.20469 -0.0538,-0.22076 0.25466,-0.0102 0.46302,-0.12114 0.46302,-0.24647 0,-0.12533 -0.56555,-0.0956 -1.25677,0.0661 -1.1525,0.26963 -1.19092,0.30273 -0.46303,0.39892 0.78986,0.10438 0.79051,0.10587 0.1323,0.30436 -0.84972,0.25623 -0.32935,0.30485 0.81443,0.0761 z m -53.18029,-0.35305 c 0.13362,0 0.23354,-0.20836 0.22205,-0.46302 -0.0125,-0.27661 -0.0746,-0.32987 -0.15434,-0.13229 -0.0734,0.1819 -0.2951,0.33073 -0.49266,0.33073 -0.19757,0 -0.4453,0.13929 -0.55052,0.30954 -0.13044,0.21105 -0.0443,0.25314 0.2706,0.13229 0.25406,-0.0975 0.57125,-0.17725 0.70487,-0.17725 z m 13.09503,-0.34633 c 0.0363,-0.24747 -0.0366,-0.38651 -0.16204,-0.30898 -0.12545,0.0775 -0.35312,-0.0927 -0.50594,-0.37822 -0.36522,-0.68241 -0.35498,-1.37554 0.011,-0.74684 0.15004,0.25772 0.38455,0.39952 0.52112,0.31511 0.13658,-0.0844 0.24832,-0.008 0.24832,0.17083 0,0.17836 0.0761,0.24824 0.16901,0.15528 0.093,-0.093 0.52465,0.13023 0.95931,0.49598 0.71839,0.60448 0.83134,0.62783 1.24152,0.25662 0.24818,-0.22459 0.5465,-0.3188 0.66293,-0.20934 0.11644,0.10946 0.0472,-0.0875 -0.15376,-0.43769 -0.20101,-0.35019 -0.82558,-1.06457 -1.38794,-1.5875 -2.17329,-2.02093 -4.1369,-2.41522 -4.1369,-0.83069 0,1.08191 0.44464,2.13725 1.26099,2.99295 0.75314,0.78945 1.16762,0.82609 1.27235,0.11249 z m -1.43203,-1.12021 c -0.4433,-0.97295 -0.35873,-1.18052 0.12061,-0.29601 0.22385,0.41305 0.35748,0.80051 0.29697,0.86102 -0.0605,0.0605 -0.24842,-0.19375 -0.41758,-0.56501 z m -2.8211,1.20196 c -0.0899,-0.14552 -0.008,-0.26641 0.18282,-0.26864 0.28007,-0.003 0.27873,-0.0469 -0.007,-0.22802 -0.19433,-0.12318 -0.33423,-0.32674 -0.31089,-0.45235 0.0233,-0.12562 -0.11531,-0.2702 -0.30813,-0.32129 -0.28766,-0.0762 -0.28724,-0.0484 0.002,0.155 0.28316,0.19891 0.26261,0.28256 -0.10401,0.42325 -0.25132,0.0964 -0.51927,0.113 -0.59545,0.0368 -0.0762,-0.0762 -0.006,-0.13852 0.15498,-0.13852 0.16142,0 0.24552,-0.24905 0.1869,-0.55344 -0.0771,-0.40025 3.5e-4,-0.5124 0.27978,-0.40518 0.66954,0.25693 0.42368,-0.005 -0.70853,-0.75396 -0.73788,-0.4883 -0.98932,-0.78979 -0.77115,-0.92463 0.40172,-0.24828 0.32663,-0.57658 -0.22396,-0.97918 -0.23249,-0.17 -0.33433,-0.39748 -0.22631,-0.5055 0.10802,-0.10802 0.40769,-0.005 0.66594,0.22853 0.25824,0.23371 0.70546,0.381 0.99381,0.3273 0.28834,-0.0537 0.62207,-0.10673 0.7416,-0.11787 0.3286,-0.0306 -0.52453,-0.80934 -0.92604,-0.84529 -0.1923,-0.0172 0.008,-0.11224 0.44412,-0.21115 l 0.79375,-0.17984 -0.84675,-0.45031 c -1.2202,-0.64891 -3.154,-0.60292 -3.5215,0.0838 -0.44766,0.83646 -0.24325,2.84043 0.34394,3.37182 0.27864,0.25216 0.68204,0.79771 0.89644,1.21233 0.27668,0.53503 0.53498,0.71588 0.88991,0.62307 0.29048,-0.076 0.47615,-0.004 0.44298,0.17282 -0.0333,0.17725 0.24333,0.28319 0.6648,0.25456 0.39704,-0.027 0.71036,0.0326 0.69627,0.13229 -0.0462,0.32669 0.0343,0.5782 0.18494,0.5782 0.0813,0 0.0743,-0.11906 -0.0156,-0.26458 z m 35.32187,-0.39788 c 0,-0.0631 -0.20836,-0.0478 -0.46302,0.0339 -0.3032,0.0973 -0.2347,-0.0405 0.19844,-0.39929 0.3638,-0.30135 0.5056,-0.55056 0.31511,-0.5538 -0.21041,-0.004 -0.26525,-0.13569 -0.13973,-0.33661 0.33466,-0.53569 0.33565,-1.03024 0.002,-0.91897 -0.17024,0.0567 -0.30952,0.23216 -0.30952,0.3898 0,0.15765 -0.10839,0.38585 -0.24086,0.50712 -0.13994,0.1281 -0.16111,0.0819 -0.0505,-0.11024 0.10468,-0.1819 0.0716,-0.33073 -0.0734,-0.33073 -0.14506,0 -0.2468,0.22504 -0.22608,0.5001 0.0251,0.3337 0.17372,0.44927 0.44658,0.34733 0.36088,-0.13482 0.36366,-0.0972 0.0236,0.32035 -0.6056,0.74365 -0.59876,1.26313 0.0123,0.93608 0.27788,-0.14872 0.50524,-0.322 0.50524,-0.38507 z m -13.58937,-1.53171 c -0.081,-0.32117 -0.61489,-1.10002 -1.1864,-1.73077 l -1.03911,-1.14682 -0.83551,0.43206 c -1.07467,0.55573 -1.87385,1.87527 -1.84856,3.0522 0.011,0.50932 0.0799,0.77721 0.15335,0.59531 0.0734,-0.1819 0.26088,-0.33073 0.41663,-0.33073 0.15575,0 0.74114,-0.49606 1.30087,-1.10235 l 1.01769,-1.10236 v 0.85667 c 0,0.81214 0.56722,1.75096 0.8731,1.44507 0.0783,-0.0783 0.29102,0.13542 0.47271,0.47492 l 0.33035,0.61727 0.24608,-0.73825 c 0.13535,-0.40604 0.17981,-1.00104 0.0988,-1.32222 z m 10.10732,1.25568 c 0.65675,-1.44141 0.19941,-3.65206 -0.81016,-3.91607 -0.62212,-0.16269 -1.70873,0.28405 -1.89938,0.78088 -0.22767,0.59328 0.37086,0.71454 0.97236,0.19699 l 0.56826,-0.48894 -0.45874,0.72761 c -0.40628,0.6444 -0.41108,0.7276 -0.042,0.7276 0.22921,0 0.54121,0.35705 0.69333,0.79344 0.15592,0.44728 0.39862,0.71802 0.55629,0.62058 0.18242,-0.11275 0.19905,-0.0436 0.0478,0.19875 -0.12753,0.20438 -0.25446,0.52044 -0.28205,0.70234 -0.0877,0.57823 0.33563,0.35618 0.65428,-0.34318 z m 9.63362,0.48718 c -0.32743,-0.0631 -0.86321,-0.0631 -1.19063,0 -0.32742,0.0631 -0.0595,0.11466 0.59531,0.11466 0.65485,0 0.92274,-0.0516 0.59532,-0.11466 z m 2.05052,-0.35453 c 0.28984,-0.19614 0.1828,-0.22068 -0.39688,-0.091 -0.97285,0.21761 -1.18404,0.36905 -0.50712,0.36364 0.27892,-0.002 0.68572,-0.12491 0.904,-0.27262 z m -47.89641,-0.73541 c -0.57033,-0.18364 -0.8072,-0.6631 -0.44223,-0.89511 0.20634,-0.13118 0.1323,-0.2042 -0.21241,-0.20947 -0.43893,-0.007 -0.46148,-0.0518 -0.13229,-0.26459 0.35278,-0.22798 0.35278,-0.25738 0,-0.26458 -0.35277,-0.007 -0.35277,-0.0366 0,-0.26458 0.33091,-0.21385 0.30892,-0.26237 -0.13229,-0.29188 -0.29104,-0.0195 -0.68994,-0.0133 -0.88645,0.0136 -0.1965,0.027 -0.27877,-0.078 -0.18282,-0.23323 0.096,-0.15526 0.34229,-0.28228 0.54742,-0.28228 0.22795,0 0.31185,-0.15924 0.21578,-0.40959 -0.0898,-0.234 0.0555,-0.58241 0.33903,-0.81273 0.4625,-0.37577 0.43584,-0.39293 -0.39256,-0.25272 -1.15328,0.19521 -2.63933,1.43034 -2.664,2.21419 -0.028,0.89029 1.09262,1.95411 2.2722,2.15699 1.0818,0.18606 2.38707,0.0266 1.67062,-0.20406 z m 20.28624,-0.39013 c 1.29245,-0.76369 -1.47711,-3.36029 -3.58411,-3.36029 -0.91469,0 -1.87864,0.6865 -1.87864,1.33792 0,0.62438 1.09021,0.71649 1.57445,0.13302 0.3955,-0.47655 0.97653,-0.27473 1.15312,0.40054 0.0944,0.36106 0.27086,0.45939 0.59864,0.33361 0.31917,-0.12247 0.40434,-0.0806 0.27187,0.13375 -0.10609,0.17166 0.0435,0.6126 0.33237,0.97986 0.46328,0.58896 0.53974,0.61207 0.64796,0.19588 0.089,-0.3421 0.13689,-0.28996 0.17429,0.18959 0.0334,0.42783 0.10463,0.52128 0.20178,0.26458 0.0826,-0.21828 0.31133,-0.49209 0.50827,-0.60846 z m 27.9409,0.43323 c -0.18191,-0.0734 -0.47956,-0.0734 -0.66146,0 -0.1819,0.0734 -0.0331,0.13346 0.33073,0.13346 0.3638,0 0.51263,-0.0601 0.33073,-0.13346 z m -15.35044,-1.10435 c -0.12589,-0.32806 -0.18796,-0.30825 -0.33928,0.1083 -0.10187,0.28041 -0.1257,0.61183 -0.053,0.73651 0.21004,0.36001 0.56292,-0.40002 0.39224,-0.84481 z m 7.66056,-3.04452 c 0.61118,-1.97969 -0.45676,-2.46635 -2.95345,-1.3459 -1.6089,0.72203 -2.02364,1.17209 -1.0801,1.17209 0.28245,0 0.59267,0.12801 0.68937,0.28448 0.11478,0.18572 0.37279,0.10753 0.74322,-0.22522 0.9994,-0.89778 1.20721,-0.92689 1.06621,-0.14934 -0.16756,0.92404 -0.34355,1.19384 -0.6537,1.00215 -0.13784,-0.0852 -0.17075,-0.28412 -0.0731,-0.44207 0.10682,-0.17283 0.0541,-0.21095 -0.13229,-0.0957 -0.17038,0.1053 -0.22418,0.32997 -0.11955,0.49925 0.10462,0.16929 0.21026,0.48848 0.23476,0.70932 0.0245,0.22084 0.14009,0.63056 0.25689,0.91049 0.16931,0.40577 0.12431,0.47516 -0.22197,0.34228 -0.23888,-0.0917 -0.51607,-0.0344 -0.61598,0.12724 -0.11831,0.19143 -0.0595,0.21839 0.16878,0.0773 0.26136,-0.16153 0.30556,-0.0879 0.17392,0.28985 -0.0971,0.27853 0.35891,-0.0889 1.0133,-0.81649 0.65439,-0.72761 1.33107,-1.78048 1.50372,-2.33973 z m 3.97749,2.98954 c 1.39788,-0.38823 2.58791,-1.4615 2.58791,-2.334 0,-0.54452 -0.26035,-0.87993 -1.1113,-1.43169 -1.22819,-0.79638 -2.19866,-0.90198 -2.96421,-0.32257 -0.45405,0.34365 -0.46056,0.39771 -0.0661,0.54906 0.24062,0.0923 0.43749,0.33373 0.43749,0.53645 0,0.40947 0.8118,0.49985 1.20385,0.13402 0.13825,-0.129 0.48948,-0.14211 0.78052,-0.0291 0.48694,0.18901 0.46832,0.22938 -0.23338,0.50586 -0.4194,0.16526 -1.01472,0.23294 -1.32292,0.1504 -0.52716,-0.14118 -0.52494,-0.12919 0.0375,0.20237 0.80035,0.47181 0.29989,0.98644 -0.98151,1.00932 -0.85809,0.0153 -0.88543,0.0383 -0.3163,0.26629 0.39884,0.15975 0.56841,0.39169 0.47132,0.64469 -0.17846,0.46506 0.13892,0.49062 1.47718,0.11894 z m -41.21621,-0.67141 c -0.43853,-0.35731 -0.44592,-0.3972 -0.0506,-0.27289 0.6152,0.19344 0.59027,-0.0157 -0.0422,-0.35417 -0.37303,-0.19964 -0.49225,-0.18476 -0.45558,0.0568 0.0795,0.52355 0.43814,0.98869 0.76242,0.98869 0.16475,0 0.0684,-0.18831 -0.21405,-0.41847 z m 8.17772,0.21851 c 0.068,-0.10998 -0.0937,-0.64664 -0.35922,-1.19257 l -0.48281,-0.9926 0.74222,0.43844 c 0.41587,0.24566 0.94553,0.36043 1.2046,0.26101 0.43483,-0.16686 0.43264,-0.21082 -0.0367,-0.7376 -0.27447,-0.30809 -0.88224,-0.72236 -1.3506,-0.9206 -0.57843,-0.24482 -0.80273,-0.4877 -0.6993,-0.75723 0.20193,-0.52622 0.42401,-0.50075 1.15399,0.13236 0.7578,0.65724 0.77744,0.65626 0.59802,-0.0298 -0.2184,-0.83518 -1.80642,-2.30453 -2.78253,-2.57461 -0.72875,-0.20163 -0.95687,-0.14304 -1.51236,0.38847 -0.51554,0.49328 -0.66554,0.92399 -0.70787,2.03258 -0.0613,1.60665 0.15558,2.12648 0.78635,1.88443 0.24219,-0.0929 0.36197,-0.2958 0.26618,-0.4508 -0.10855,-0.17562 -0.0115,-0.21938 0.25762,-0.11612 0.64744,0.24844 0.75566,-0.17445 0.31471,-1.22979 -0.55426,-1.32654 -0.50524,-1.37806 0.42556,-0.44725 0.58594,0.58593 0.74469,0.9134 0.55499,1.14483 -0.2775,0.33854 -0.39948,1.0107 -0.3478,1.91651 0.0168,0.29372 0.35789,0.73703 0.75807,0.98515 0.81665,0.50632 1.03801,0.55457 1.21683,0.26523 z m 15.83816,-1.21232 c -0.056,-0.31472 0.0513,-0.38406 0.39688,-0.25644 0.26051,0.0962 0.54745,0.28461 0.63765,0.41869 0.0902,0.13407 0.36405,0.20229 0.60857,0.15159 0.41127,-0.0853 0.41238,-0.13182 0.0148,-0.62135 -0.23636,-0.29104 -0.35437,-0.38034 -0.26223,-0.19844 0.22302,0.44028 -0.13967,0.40535 -0.77416,-0.0746 -0.5084,-0.38453 -0.5084,-0.38854 0,-0.3965 0.50755,-0.008 0.50754,-0.0116 -0.002,-0.30686 -0.32278,-0.18726 -0.54744,-0.20172 -0.60177,-0.0387 -0.10125,0.30374 -1.60083,0.13633 -1.80996,-0.20205 -0.0782,-0.12656 0.25066,-0.17122 0.73084,-0.0993 l 0.87305,0.13085 -0.79375,-0.38748 c -1.00727,-0.49177 -2.87025,-0.54729 -2.70503,-0.0806 0.0644,0.1819 0.46128,0.30469 0.88195,0.27286 0.50321,-0.0381 0.64257,0.0182 0.40739,0.16443 -0.26584,0.16532 -0.15441,0.31217 0.43474,0.57295 0.46359,0.20521 0.73731,0.49369 0.65988,0.69547 -0.0749,0.1952 0.0522,0.34481 0.29287,0.34481 0.23385,0 0.42518,0.12898 0.42518,0.28663 0,0.15765 0.14883,0.23459 0.33073,0.17099 0.1819,-0.0636 0.29618,-0.30975 0.25395,-0.54699 z m -13.54926,0.23727 c 0,-0.0642 -0.11907,-0.19026 -0.26459,-0.2802 -0.14552,-0.0899 -0.26458,-0.0374 -0.26458,0.11668 0,0.15411 0.11906,0.2802 0.26458,0.2802 0.14552,0 0.26459,-0.0525 0.26459,-0.11668 z m 19.41856,-0.30183 c 0.27179,-0.70828 0.17948,-1.35312 -0.24403,-1.70459 -0.33567,-0.27859 -0.51604,-0.23115 -1.05833,0.2783 -0.73134,0.68706 -0.87234,0.30779 -0.24278,-0.65304 0.30539,-0.46609 0.35237,-0.8544 0.18292,-1.51205 -0.21125,-0.81991 -0.31431,-0.8902 -1.40311,-0.95705 -1.33938,-0.0822 -2.46046,0.64703 -2.75471,1.79194 l -0.17,0.66146 0.67685,-0.74292 c 0.37226,-0.40861 0.7822,-0.67781 0.91096,-0.59823 0.12877,0.0796 0.38017,-0.0313 0.55867,-0.24635 0.52151,-0.62839 0.76526,-0.21412 0.62492,1.06211 -0.082,0.74525 -0.0256,1.18685 0.15145,1.18685 0.15508,0 0.28196,-0.11907 0.28196,-0.26459 0,-0.14552 0.10792,-0.26458 0.23981,-0.26458 0.1319,0 0.1781,0.236 0.10267,0.52445 -0.10144,0.38792 0.0428,0.59286 0.55394,0.7872 0.38009,0.14452 0.69108,0.44429 0.69108,0.66618 0,0.53185 0.69232,0.52021 0.89773,-0.0151 z m -11.48012,-0.79658 c -0.0213,-0.0935 0.32695,-0.39237 0.77391,-0.66418 0.44696,-0.27181 0.81265,-0.61501 0.81265,-0.76267 0,-0.35597 -0.71512,-0.34517 -0.93719,0.0142 -0.0961,0.15544 -0.35782,0.21234 -0.58167,0.12644 -0.62504,-0.23986 -1.92073,0.44204 -1.92073,1.01083 0,0.40145 0.0729,0.43649 0.37918,0.1823 0.30021,-0.24916 0.47927,-0.21228 0.85989,0.17706 0.42648,0.43626 0.72328,0.39569 0.61396,-0.0839 z m 27.78661,0.15354 c 1.04154,-0.53136 1.53484,-1.42772 1.22708,-2.22973 -0.25592,-0.6669 -1.50886,-1.29824 -2.6468,-1.33367 -1.065,-0.0332 -3.13024,0.29714 -2.25291,0.36031 0.23909,0.0172 0.50324,0.2099 0.58701,0.42818 0.0838,0.21828 0.36439,0.39754 0.62362,0.39835 0.81264,0.003 2.4557,0.54096 2.4557,0.80471 0,0.13868 -0.16402,0.25215 -0.36448,0.25215 -0.56394,0 -1.0634,0.70397 -0.63875,0.90031 0.27003,0.12486 0.27235,0.19042 0.011,0.31236 -0.32476,0.15156 -0.46812,0.63941 -0.18789,0.63941 0.0786,0 0.61244,-0.23957 1.18639,-0.53238 z m -35.58235,-0.22857 c -0.11549,-0.36387 0.003,-0.54043 0.44519,-0.66145 0.46014,-0.12603 0.51803,-0.21972 0.24468,-0.39603 -0.25633,-0.16533 -0.28528,-0.37203 -0.10189,-0.72761 0.14088,-0.27316 0.19726,-0.66207 0.12528,-0.86422 -0.08,-0.22462 -0.0146,-0.29572 0.16805,-0.18283 0.16439,0.10161 0.2989,0.40196 0.2989,0.66745 0,0.52602 1.31835,0.9641 1.3288,0.44156 0.003,-0.16172 0.22613,-0.008 0.49531,0.34257 0.53625,0.69751 1.35089,0.61819 1.35089,-0.13154 0,-0.37536 0.0658,-0.38718 0.46302,-0.0832 0.25467,0.19492 0.37763,0.25309 0.27325,0.12926 -0.10437,-0.12383 0.0491,-0.52881 0.34104,-0.89996 0.39351,-0.50027 0.4851,-0.88291 0.35411,-1.47933 l -0.1767,-0.80452 1.00354,1.11789 c 0.55195,0.61483 1.15269,1.11788 1.33497,1.11788 0.18228,0 0.39948,0.14883 0.48265,0.33073 0.0832,0.1819 0.0835,-0.086 8e-4,-0.59531 -0.20878,-1.28462 -1.48073,-3.02344 -2.28387,-3.12218 -0.84134,-0.10344 -2.02977,1.62531 -2.30684,3.35566 l -0.1957,1.22173 -0.30659,-0.74483 c -0.16863,-0.40966 -0.30659,-0.89722 -0.30659,-1.08347 0,-0.38142 -0.72281,-1.07853 -1.32292,-1.27587 -0.62002,-0.2039 -1.8024,0.52082 -2.24448,1.37572 -0.51537,0.99661 -0.51125,2.11526 0.0105,2.8602 0.50313,0.71832 0.7364,0.75908 0.52457,0.0917 z m -8.2725,-0.98703 c 0.25015,-0.25015 -0.42654,-0.84683 -0.7985,-0.7041 -0.18267,0.0701 -0.33212,-0.004 -0.33212,-0.16544 0,-0.16109 0.0893,-0.27879 0.19844,-0.26156 0.66378,0.10481 0.91155,-0.0472 0.63,-0.38641 -0.16207,-0.19529 -0.23545,-0.4143 -0.16306,-0.48669 0.0724,-0.0724 -0.10724,-0.34778 -0.39917,-0.61197 -0.29194,-0.2642 -0.53079,-0.65895 -0.53079,-0.87724 0,-0.31928 0.11032,-0.29833 0.56433,0.10716 0.55943,0.49965 0.56272,0.49886 0.37904,-0.0913 -0.18805,-0.60421 0.19624,-0.84137 0.51849,-0.31996 0.0936,0.15144 0.41314,0.19823 0.7101,0.10397 0.29696,-0.0942 0.61751,-0.0459 0.71232,0.10757 0.10425,0.16866 0.31979,0.18783 0.54527,0.0485 0.50689,-0.31328 -0.008,-0.92791 -1.35079,-1.61304 -1.33827,-0.68273 -2.235,-0.64223 -3.01332,0.13609 -0.52256,0.52256 -0.61411,0.81313 -0.47936,1.52136 0.21735,1.14226 0.67375,2.02843 1.50694,2.92595 0.67523,0.72735 1.00035,0.86895 1.30218,0.56712 z m -7.61291,-0.4442 c 0.64736,-0.39313 0.80611,-0.98282 0.26458,-0.98282 -0.21828,0 -0.62012,-0.22324 -0.89297,-0.49609 -0.27285,-0.27285 -0.6598,-0.57122 -0.85989,-0.66304 -0.20009,-0.0918 -0.0264,-0.10193 0.38597,-0.0225 0.54464,0.10495 0.69564,0.0569 0.55191,-0.17567 -0.13606,-0.22015 -0.0603,-0.26738 0.24241,-0.1512 0.57605,0.22105 1.27947,-0.056 1.05682,-0.4163 -0.11502,-0.1861 -0.002,-0.21142 0.33224,-0.0746 1.11193,0.4551 1.40647,0.43782 1.95922,-0.11493 0.66462,-0.66462 0.68332,-0.62494 -0.52675,-1.11747 -1.61666,-0.65803 -4.74564,-0.16979 -5.27719,0.82343 -0.37532,0.70129 -0.004,1.85286 0.91083,2.82256 0.94119,0.99796 1.07706,1.03965 1.85282,0.56855 z m 8.20208,-0.18907 c -0.32205,-0.35586 -0.36819,-0.52916 -0.1409,-0.52916 0.27043,0 0.27215,-0.0793 0.009,-0.39688 -0.18116,-0.21828 -0.44844,-0.39687 -0.59396,-0.39687 -0.14759,0 -0.11894,0.17548 0.0648,0.39687 0.18116,0.21828 0.23682,0.39688 0.12368,0.39688 -0.11313,0 0.01,0.23812 0.2732,0.52916 0.26339,0.29104 0.53842,0.52917 0.61118,0.52917 0.0728,0 -0.0832,-0.23813 -0.3466,-0.52917 z m 14.2762,0.28287 c 0.0837,-0.13547 0.0312,-0.32109 -0.11667,-0.41249 -0.1479,-0.0914 -0.2689,0.0194 -0.2689,0.2463 0,0.46475 0.15876,0.53318 0.38557,0.16619 z m 15.10693,-0.0183 c -0.12072,0.21828 0.044,0.14645 0.36605,-0.15961 0.79762,-0.75803 0.99628,-2.41725 0.42231,-3.52718 -0.41457,-0.8017 -0.51453,-0.8499 -1.41812,-0.68381 -0.53467,0.0983 -1.3081,0.49678 -1.71875,0.88557 -0.61566,0.58291 -0.71557,0.84613 -0.56958,1.50065 0.0974,0.43656 0.1853,0.94258 0.19541,1.12448 0.0274,0.49325 0.0825,0.43641 0.8544,-0.88067 0.39046,-0.66626 0.77696,-1.14437 0.85888,-1.06244 0.0819,0.0819 0.30576,-0.0576 0.49743,-0.30996 0.30183,-0.39749 0.3496,-0.40284 0.35689,-0.04 0.005,0.23041 -0.062,0.48938 -0.14815,0.57548 -0.0861,0.0861 -0.19898,0.77025 -0.25085,1.52031 -0.0855,1.23629 -0.0537,1.33088 0.33964,1.01202 0.36946,-0.29947 0.40132,-0.29277 0.21444,0.0451 z m -8.2415,-1.36275 c 0.15099,-0.85067 0.0643,-1.07946 -0.72675,-1.91823 -0.49401,-0.5238 -1.07174,-0.95236 -1.28385,-0.95236 -0.52582,0 -1.4047,1.01602 -1.73465,2.00532 -0.22989,0.68931 -0.19537,0.86236 0.22435,1.12448 0.68229,0.42609 0.69191,0.41704 0.55415,-0.52155 -0.08,-0.54505 -0.0252,-0.77148 0.1592,-0.65753 0.15873,0.0981 0.33138,-0.0872 0.39639,-0.42544 0.0634,-0.32958 0.13139,-0.0932 0.15121,0.52524 0.026,0.81048 0.14758,1.12448 0.4355,1.12448 0.2197,0 0.60213,0.2367 0.84983,0.526 0.53949,0.63008 0.74673,0.45351 0.97462,-0.83041 z m -0.61553,0.67924 c 0.0127,-0.30822 0.0754,-0.37092 0.15985,-0.15985 0.0764,0.19099 0.067,0.4192 -0.0209,0.50712 -0.0879,0.0879 -0.15045,-0.0684 -0.13896,-0.34727 z m 17.2767,-2.38809 c 0.0277,-0.85725 -0.0785,-1.06416 -0.70192,-1.36821 -1.90955,-0.93124 -3.98898,-0.54159 -5.07397,0.95078 -0.40482,0.5568 -0.41915,0.63219 -0.0662,0.34778 0.51997,-0.41894 0.61219,-0.049 0.11997,0.48131 -0.1819,0.19598 -0.20598,0.28718 -0.0535,0.20267 0.15247,-0.0845 0.44892,-0.0475 0.65878,0.0822 0.26728,0.16519 0.60029,0.0263 1.11184,-0.46384 0.72206,-0.69177 1.03871,-0.53139 0.39956,0.20237 -0.1819,0.20882 -0.0196,0.10814 0.36064,-0.22375 0.38025,-0.33188 0.79697,-0.57269 0.92604,-0.53513 0.12907,0.0376 0.53233,-0.0819 0.89613,-0.26543 0.47932,-0.24182 0.38407,-0.082 -0.3459,0.58026 -0.59311,0.53812 -0.89232,0.98507 -0.7276,1.08686 0.15386,0.0951 0.37851,0.11187 0.49921,0.0373 0.12071,-0.0746 0.19654,0.12673 0.16853,0.4474 -0.0874,1.00017 0.17878,1.06443 1.00142,0.24179 0.58421,-0.58421 0.80294,-1.06145 0.82693,-1.8043 z m -9.36009,0.59568 c 0,-0.33616 -0.12221,-0.18606 -0.50792,0.62383 -0.29704,0.6237 -0.29153,0.63214 0.0965,0.14787 0.22631,-0.28247 0.41147,-0.62974 0.41147,-0.7717 z m -22.16922,-0.28103 c -0.0796,-0.1359 0.0667,-0.16308 0.33131,-0.0616 0.65235,0.25033 1.28607,-0.59376 0.84781,-1.12924 -0.25566,-0.31237 -0.20273,-0.35 0.30735,-0.21849 0.46387,0.11959 0.58039,0.0655 0.47133,-0.2187 -0.17608,-0.45887 0.14555,-0.49386 0.57666,-0.0627 0.17315,0.17315 0.4799,0.33905 0.68166,0.36866 0.20176,0.0296 0.6299,0.13733 0.95143,0.23938 0.5077,0.16114 0.54979,0.12135 0.32006,-0.30251 -0.66302,-1.22332 -2.4739,-2.47244 -3.58434,-2.47244 -0.73261,0 -0.93122,0.22268 -1.41595,1.5875 -0.40909,1.15187 -0.42006,1.87121 -0.0431,2.82705 0.27118,0.68766 0.30925,0.70422 0.49606,0.21566 0.11129,-0.29104 0.13817,-0.6387 0.0598,-0.77257 z m 0.47339,-2.28575 c 0,-0.15411 0.11906,-0.20662 0.26458,-0.11668 0.14552,0.0899 0.26458,0.21603 0.26458,0.2802 0,0.0642 -0.11906,0.11668 -0.26458,0.11668 -0.14552,0 -0.26458,-0.12609 -0.26458,-0.2802 z m -13.49375,2.66975 c 0,-0.14095 -0.1786,-0.18775 -0.39688,-0.10398 -0.21828,0.0838 -0.39687,0.19908 -0.39687,0.25628 0,0.0572 0.17859,0.10398 0.39687,0.10398 0.21828,0 0.39688,-0.11533 0.39688,-0.25628 z m 28.98973,-1.77697 c -0.0734,-0.1914 0.0248,-0.348 0.21834,-0.348 0.23793,0 0.3085,0.22693 0.21792,0.70078 -0.0925,0.48373 -0.0401,0.64279 0.16898,0.51355 0.16662,-0.10297 0.30477,-0.50762 0.30699,-0.89922 0.005,-0.89052 0.37283,-1.49879 0.76109,-1.25883 0.34015,0.21022 0.0971,1.50739 -0.33519,1.78923 -0.15528,0.10123 -0.21065,0.25573 -0.12305,0.34333 0.0876,0.0876 0.35204,-0.0335 0.58765,-0.2691 0.35496,-0.35496 0.42837,-0.3624 0.42837,-0.0434 0,0.21171 0.28929,0.44023 0.64288,0.50782 0.4996,0.0955 0.67617,-0.01 0.7923,-0.47248 0.16239,-0.64701 -0.0516,-2.10182 -0.41359,-2.8115 -0.14618,-0.28659 -0.10228,-0.56915 0.12349,-0.79493 0.82505,-0.82504 0.68379,-3.43509 -0.22681,-4.19082 -0.69317,-0.57528 -2.29525,-0.58893 -3.19881,-0.0273 -0.79294,0.49292 -1.6757,2.15037 -1.14528,2.15037 0.13795,0 0.25082,0.29766 0.25082,0.66146 0,0.3638 0.11906,0.66146 0.26458,0.66146 0.14552,0 0.26459,-0.1786 0.26459,-0.39688 0,-0.21828 0.17859,-0.39687 0.39687,-0.39687 0.21828,0 0.41069,-0.20836 0.42757,-0.46302 0.0292,-0.44098 0.0365,-0.44098 0.15169,0 0.13057,0.49962 0.61137,0.6434 0.61137,0.18282 0,-0.15411 0.11906,-0.20662 0.26458,-0.11668 0.14552,0.0899 0.26621,0.0672 0.26819,-0.0505 0.002,-0.11773 0.0704,-0.51171 0.15193,-0.87551 0.14315,-0.63841 0.13381,-0.64356 -0.26819,-0.14787 -0.5283,0.65143 -0.57036,-0.0241 -0.0446,-0.71689 0.32172,-0.42398 0.38032,-0.3683 0.62438,0.59321 0.14813,0.5836 0.16317,0.99548 0.0334,0.91529 -0.12975,-0.0802 -0.23591,0.10638 -0.23591,0.41459 0,0.30822 0.10165,0.49758 0.22589,0.42079 0.12424,-0.0768 0.35981,0.15431 0.52349,0.51355 0.27372,0.60074 0.24391,0.65316 -0.37132,0.65316 -1.30064,0 -3.03062,1.28646 -3.07344,2.2855 -0.0116,0.27095 0.0656,0.73075 0.17147,1.02179 0.13735,0.37742 0.11902,0.42623 -0.0639,0.17019 -0.14498,-0.20294 -0.32355,-0.25043 -0.4108,-0.10926 -0.0849,0.13734 0.0394,0.52629 0.27616,0.86432 l 0.43049,0.61461 0.22949,-0.62036 c 0.12622,-0.3412 0.1694,-0.77697 0.096,-0.96837 z m 18.41037,-0.62734 c 0.0218,-0.42845 0.0516,-0.92782 0.0661,-1.10972 0.0146,-0.1819 -0.36138,-0.52447 -0.83541,-0.76126 -0.69327,-0.34631 -1.10731,-0.37993 -2.11666,-0.17186 -0.69015,0.14227 -1.4334,0.44855 -1.65168,0.68062 -0.35671,0.37925 -0.35172,0.38809 0.0492,0.0873 0.31212,-0.23409 0.59312,-0.25591 0.93558,-0.0726 0.26921,0.14408 1.0805,0.20675 1.80285,0.13927 1.2169,-0.11368 1.2745,-0.0933 0.78421,0.27715 -0.63292,0.47825 -1.03092,0.53585 -0.76848,0.11122 0.11575,-0.18729 0.0727,-0.23373 -0.11126,-0.12003 -0.19744,0.12202 -0.21636,0.33959 -0.0553,0.63619 0.13459,0.24792 0.32161,0.92637 0.41559,1.50767 l 0.17088,1.05691 0.63733,-0.74094 c 0.35053,-0.40751 0.65518,-1.09148 0.67701,-1.51993 z m -24.6131,1.00253 c -0.26131,-0.25936 -0.2917,-0.22897 -0.14812,0.14812 0.0994,0.26093 0.24731,0.40778 0.32877,0.32632 0.0815,-0.0815 1.7e-4,-0.29496 -0.18065,-0.47444 z m 15.98379,-1.3076 c 0.0922,-0.54567 0.0299,-1.4093 -0.13835,-1.91919 -0.31451,-0.95298 -1.47781,-1.99432 -2.22789,-1.99432 -1.15839,0 -3.77844,2.15622 -3.00238,2.47086 0.25119,0.10184 0.23542,0.20314 -0.0647,0.41537 -0.28134,0.19896 -0.29818,0.28185 -0.0579,0.28472 0.18647,0.002 0.4114,-0.18452 0.49985,-0.41501 0.12267,-0.31968 0.20965,-0.34001 0.36681,-0.0857 0.35241,0.57021 1.25788,0.54988 1.44269,-0.0324 0.0923,-0.29086 0.26817,-0.46683 0.39078,-0.39105 0.12262,0.0758 0.29335,-0.0118 0.37941,-0.1946 0.0861,-0.18281 0.0948,-0.008 0.0193,0.38818 -0.10506,0.55198 -0.048,0.68636 0.2437,0.57441 0.28519,-0.10944 0.342,0.002 0.22617,0.4453 -0.10673,0.40817 -0.0598,0.53279 0.1516,0.40216 0.18515,-0.11443 0.30626,-0.015 0.30626,0.25152 0,0.28967 0.14078,0.38677 0.41062,0.28323 0.22584,-0.0867 0.34451,-0.0506 0.26372,0.0801 -0.0808,0.13073 -0.0704,0.437 0.0231,0.68062 0.22804,0.59426 0.54275,0.0838 0.76712,-1.24418 z m -28.76645,0.38037 c 0.37801,-0.40308 0.54617,-0.81711 0.44024,-1.08397 -0.0943,-0.23748 -0.21617,-0.65229 -0.27091,-0.9218 -0.0547,-0.26951 -0.23766,-0.65646 -0.40649,-0.85989 -0.16884,-0.20344 -0.20198,-0.36988 -0.0736,-0.36988 0.12833,0 0.38493,0.24274 0.57022,0.53943 0.18528,0.29669 0.45205,0.46826 0.59281,0.38126 0.14076,-0.087 0.25593,-0.0327 0.25593,0.12058 0,0.25646 1.81199,0.13412 2.09566,-0.14149 0.24199,-0.23511 -1.16693,-1.43068 -2.01633,-1.71101 -1.33884,-0.44186 -2.12363,-0.13688 -2.61008,1.0143 -0.33364,0.78955 -0.39741,2.70824 -0.12151,3.65543 0.004,0.0121 0.21478,0.0237 0.46944,0.0256 0.25467,0.002 0.73826,-0.28989 1.07466,-0.6486 z m 9.69408,-1.16895 c -0.0526,-0.41584 -0.16755,-0.87234 -0.25538,-1.01446 -0.0878,-0.14211 -0.0266,-0.25838 0.13612,-0.25838 0.1627,0 0.22223,-0.11907 0.13229,-0.26459 -0.0899,-0.14552 -0.0504,-0.26458 0.0879,-0.26458 0.13831,0 0.44362,0.48023 0.67847,1.06717 0.441,1.10215 0.58422,1.21441 1.81327,1.4212 0.57101,0.0961 0.72761,0.0193 0.72761,-0.35683 0,-0.26358 -0.1786,-0.62747 -0.39688,-0.80862 -0.21828,-0.18116 -0.39687,-0.47112 -0.39687,-0.64436 0,-0.17323 -0.34944,-0.64976 -0.77653,-1.05894 -1.10837,-1.06188 -1.87631,-0.79569 -2.90833,1.00809 -0.75907,1.32672 -1.00294,2.26921 -0.67262,2.59953 0.0772,0.0772 0.54231,-0.0417 1.03351,-0.26436 0.7587,-0.34389 0.87868,-0.51856 0.79739,-1.16087 z m -17.31717,0.97611 c -0.26814,-0.32308 -0.25483,-0.39687 0.0716,-0.39687 0.54828,0 0.77059,-0.68877 0.33816,-1.04766 -0.80895,-0.67136 -0.64901,-1.5246 0.25171,-1.34287 0.14553,0.0294 0.38365,0.0732 0.52917,0.0975 0.14552,0.0243 0.44401,0.23732 0.66331,0.47348 0.34598,0.37256 0.44574,0.37905 0.75402,0.049 0.30851,-0.33026 0.41551,-0.32584 0.81273,0.0336 0.5029,0.45512 1.34182,0.55829 1.34182,0.16501 0,-0.13693 -0.11907,-0.32255 -0.26459,-0.41249 -0.14552,-0.0899 -0.26458,-0.29401 -0.26458,-0.45349 0,-0.15949 0.23812,-0.0745 0.52917,0.18891 0.29104,0.26339 0.52916,0.3484 0.52916,0.18892 0,-0.15949 -0.121,-0.36477 -0.2689,-0.45617 -0.14789,-0.0914 -0.21023,-0.26111 -0.13853,-0.37713 0.2167,-0.35062 -0.71687,-1.00853 -1.86447,-1.31395 -1.56025,-0.41523 -3.6585,0.22964 -4.20862,1.29346 -0.59668,1.15385 -0.49459,2.12327 0.31232,2.9655 0.73262,0.76469 1.4636,1.05257 0.87654,0.3452 z m 21.93404,-0.47132 c 0.0145,0.17733 0.19455,0.25789 0.40011,0.17901 0.21799,-0.0837 0.43135,0.0576 0.512,0.33903 0.12164,0.42439 0.13668,0.41877 0.12497,-0.0467 -0.0315,-1.25154 0.0647,-1.74048 0.31221,-1.5875 0.14552,0.0899 0.27839,-0.11139 0.29527,-0.4474 0.0247,-0.49129 0.0555,-0.51475 0.15711,-0.1198 0.0695,0.27012 -0.004,0.62135 -0.16298,0.78052 -0.50686,0.50685 -0.31056,0.81389 0.2158,0.33754 0.4811,-0.43539 0.51352,-0.43103 0.67929,0.0913 0.22004,0.69329 0.84479,0.71148 1.0608,0.0309 0.3773,-1.18876 -0.61074,-3.45115 -1.5072,-3.45115 -0.1648,0 -0.815,0.53787 -1.4449,1.19527 -1.03545,1.08065 -1.14274,1.31534 -1.1189,2.4474 0.0215,1.02191 0.0653,1.13051 0.23821,0.59066 0.11651,-0.3638 0.22371,-0.51636 0.23821,-0.33903 z m -16.44945,-0.87915 c -0.0879,-0.0879 -0.31612,-0.0973 -0.50712,-0.0209 -0.21107,0.0845 -0.14837,0.14716 0.15985,0.15985 0.27892,0.0115 0.43519,-0.051 0.34727,-0.13896 z m -4.16168,-0.20872 c 0,-0.0572 -0.18477,-0.17489 -0.41061,-0.26155 -0.23546,-0.0904 -0.34167,-0.046 -0.24897,0.10398 0.15538,0.25141 0.65958,0.37186 0.65958,0.15757 z m 36.3436,-0.29289 c 0.0838,-0.21828 0.037,-0.39687 -0.10398,-0.39687 -0.14096,0 -0.25628,0.17859 -0.25628,0.39687 0,0.21828 0.0468,0.39688 0.10398,0.39688 0.0572,0 0.17252,-0.1786 0.25628,-0.39688 z m 2.34767,0 c 0.31588,-0.42995 0.22972,-2.8789 -0.12825,-3.64519 -0.38513,-0.82442 -1.50807,-1.37345 -2.29702,-1.12305 -0.87428,0.27749 -2.13475,1.46154 -2.13475,2.00533 0,0.35478 0.12596,0.44901 0.43941,0.32873 0.34063,-0.13071 0.40833,-0.0498 0.30119,0.35992 -0.076,0.2907 0.0325,0.75727 0.24121,1.03682 0.34537,0.46266 0.36319,0.41923 0.19853,-0.48391 -0.18539,-1.01684 0.0399,-1.2517 0.63451,-0.66146 0.2673,0.26534 0.29558,0.2261 0.14305,-0.19844 -0.10457,-0.29104 -0.089,-0.43706 0.0347,-0.32448 0.12363,0.11258 0.38252,-0.12555 0.57531,-0.52917 0.19279,-0.40362 0.27805,-0.49572 0.18948,-0.20468 -0.36816,1.20976 -0.35782,2.58248 0.0236,3.12695 0.21676,0.30947 0.3941,0.44092 0.3941,0.29213 0,-0.1488 -0.14882,-0.42047 -0.33073,-0.60372 -0.26508,-0.26705 -0.244,-0.30017 0.10622,-0.1669 0.24033,0.0914 0.49796,0.39957 0.57253,0.68473 0.13814,0.52825 0.68579,0.58443 1.037,0.10639 z m -0.85585,-0.24897 c 0,-0.20969 0.10796,-0.44798 0.23991,-0.52953 0.13195,-0.0816 0.17759,0.09 0.10143,0.38126 -0.16156,0.6178 -0.34134,0.69589 -0.34134,0.14827 z m -25.73624,-0.0432 c -0.0879,-0.0879 -0.31612,-0.0973 -0.50712,-0.0209 -0.21107,0.0845 -0.14837,0.14716 0.15985,0.15985 0.27892,0.0115 0.43519,-0.051 0.34727,-0.13896 z m 1.12999,-0.66513 c 0,-0.14552 -0.11309,-0.19469 -0.25131,-0.10927 -0.13822,0.0854 -0.37634,-0.0783 -0.52917,-0.36386 -0.34936,-0.65279 -0.35408,-0.8969 -0.0133,-0.68627 0.33964,0.20992 0.33631,-0.033 -0.009,-0.67885 -0.19128,-0.3574 -0.1887,-0.51177 0.009,-0.51177 0.15533,0 0.39009,0.26789 0.5217,0.59531 0.22021,0.54786 0.24109,0.55314 0.26194,0.0661 0.0209,-0.48824 0.0627,-0.47801 0.54006,0.13229 0.28457,0.3638 0.52004,0.5056 0.52328,0.31511 0.003,-0.19049 0.11247,-0.28047 0.24274,-0.19995 0.13027,0.0805 0.30159,-0.0223 0.38069,-0.22843 0.09,-0.23457 0.37264,-0.3248 0.75533,-0.24114 0.52615,0.11502 0.48225,0.0218 -0.31454,-0.66819 -1.16804,-1.01142 -3.25294,-1.57823 -3.88306,-1.05566 -0.58488,0.48505 -1.14403,1.8846 -1.14403,2.86351 0,0.81987 0.36297,0.97429 1.91823,0.81609 0.25466,-0.0259 0.46302,0.0865 0.46302,0.24973 0,0.16325 0.11907,0.22324 0.26459,0.1333 0.14552,-0.0899 0.26458,-0.28258 0.26458,-0.4281 z m 6.17785,-0.10954 c -0.20988,-0.54692 -0.35702,-0.48247 -0.35702,0.15638 0,0.29963 0.11387,0.47442 0.25303,0.38841 0.13917,-0.086 0.18596,-0.33116 0.10399,-0.54479 z m 20.51483,0.12208 c -0.42459,-0.26241 -0.61786,-0.12321 -0.37485,0.26999 0.0974,0.15757 0.30062,0.21014 0.45162,0.11682 0.17776,-0.10987 0.1507,-0.24622 -0.0768,-0.38681 z m -14.42617,-0.1136 c -0.0838,-0.21828 -0.19908,-0.39688 -0.25628,-0.39688 -0.0572,0 -0.10398,0.1786 -0.10398,0.39688 0,0.21828 0.11533,0.39687 0.25628,0.39687 0.14095,0 0.18775,-0.17859 0.10398,-0.39687 z m 0.56578,-0.39688 c 0.0899,-0.14552 0.0374,-0.26458 -0.11667,-0.26458 -0.15411,0 -0.2802,0.11906 -0.2802,0.26458 0,0.14552 0.0525,0.26459 0.11667,0.26459 0.0642,0 0.19026,-0.11907 0.2802,-0.26459 z m -7.25664,-1.05833 c 0.13485,0 0.24518,-0.17859 0.24518,-0.39688 0,-0.55844 0.52162,-0.49726 0.564,0.0661 0.0192,0.25466 0.12255,0.0463 0.22975,-0.46302 l 0.19493,-0.92604 0.0442,0.92604 0.0442,0.92604 0.37812,-0.66146 c 0.37336,-0.65311 0.37824,-0.65395 0.3875,-0.0661 0.01,0.62876 0.42176,0.68272 1.01364,0.13281 0.25619,-0.23802 0.49799,-0.25389 0.8662,-0.0568 0.86027,0.4604 0.5963,-0.16758 -0.61369,-1.45994 -0.63095,-0.67391 -1.52006,-1.3131 -2.02578,-1.45637 -0.84958,-0.24069 -0.96726,-0.18939 -2.05053,0.89388 -1.31472,1.31472 -1.47054,2.14211 -0.48776,2.5899 0.36381,0.16576 0.67527,0.4311 0.69215,0.58964 0.0169,0.15854 0.0851,0.0799 0.1517,-0.17476 0.0666,-0.25466 0.23133,-0.46302 0.36618,-0.46302 z m -18.94028,-1.25677 c -0.0488,-0.25466 -0.0977,-0.5166 -0.10888,-0.58208 -0.0111,-0.0655 -0.16807,0.0288 -0.34876,0.20945 -0.26163,0.26164 -0.24817,0.37932 0.0661,0.57803 0.51097,0.32305 0.49433,0.33178 0.39149,-0.2054 z m 23.86412,-0.38034 c -0.0845,-0.21107 -0.14716,-0.14837 -0.15985,0.15985 -0.0115,0.27892 0.051,0.43519 0.13896,0.34727 0.0879,-0.0879 0.0973,-0.31612 0.0209,-0.50712 z m -0.52917,-0.26458 c -0.0845,-0.21107 -0.14715,-0.14837 -0.15985,0.15985 -0.0115,0.27891 0.051,0.43518 0.13897,0.34727 0.0879,-0.0879 0.0973,-0.31613 0.0209,-0.50712 z m -15.26199,-0.21498 c 0,-0.14552 -0.12609,-0.26458 -0.28019,-0.26458 -0.15411,0 -0.20662,0.11906 -0.11668,0.26458 0.0899,0.14552 0.21602,0.26459 0.2802,0.26459 0.0642,0 0.11667,-0.11907 0.11667,-0.26459 z m 17.17121,-0.62927 c 0.73699,-0.88802 -1.02409,-2.81031 -2.57462,-2.81031 -0.53864,0 -0.97025,0.21663 -1.32164,0.66335 -0.36741,0.46709 -0.66409,0.60875 -1.00273,0.47881 -0.42758,-0.16409 -0.43787,-0.13803 -0.0927,0.23491 0.21352,0.23071 0.47751,0.36541 0.58665,0.29934 0.10914,-0.0661 0.34726,-0.0272 0.52917,0.0865 0.59072,0.36904 0.99173,0.31653 1.01307,-0.13265 0.0132,-0.27748 0.0703,-0.31703 0.15489,-0.10723 0.0737,0.18281 0.2429,0.26508 0.37599,0.18283 0.13309,-0.0823 0.24198,0.10262 0.24198,0.41084 0,0.30821 0.10659,0.49452 0.23686,0.41401 0.13027,-0.0805 0.30513,0.0315 0.38857,0.24896 0.19035,0.49604 1.06314,0.51431 1.46453,0.0307 z m -14.1666,-0.51349 c -0.0985,-0.17184 -0.0802,-0.22273 0.0407,-0.11308 0.12085,0.10965 0.49118,0.0215 0.82296,-0.19588 0.55465,-0.36343 0.6354,-0.34929 1.00304,0.17558 l 0.39982,0.57083 0.28054,-0.73786 c 0.20433,-0.53745 0.19688,-0.83865 -0.0274,-1.10895 -0.16939,-0.20409 -0.22081,-0.4575 -0.11426,-0.56312 0.10654,-0.10563 0.45093,0.12793 0.7653,0.51902 0.44229,0.55021 0.67366,0.65349 1.02276,0.45651 0.35707,-0.20147 0.53419,-0.10145 0.8493,0.47956 0.21898,0.40376 0.40291,0.58528 0.40874,0.40338 0.0166,-0.51671 0.80384,-0.38787 0.80839,0.13229 0.003,0.36172 0.054,0.38426 0.23215,0.10301 0.12546,-0.19801 0.17981,-0.61473 0.12078,-0.92604 -0.10192,-0.53752 -0.0941,-0.53604 0.1562,0.0293 0.27637,0.62436 0.54515,0.78451 0.54515,0.32482 0,-0.41281 -2.13304,-2.63616 -2.89669,-3.01932 -2.49714,-1.25295 -4.87285,-0.0697 -5.39273,2.68601 -0.12091,0.64094 -0.0496,0.91352 0.28844,1.10271 0.53861,0.30141 0.9364,0.11681 0.68684,-0.31875 z m 4.40373,0.0688 c 0,-0.15411 0.13451,-0.19707 0.2989,-0.0955 0.17681,0.10927 0.25201,0.044 0.1841,-0.1597 -0.18888,-0.56663 -1.01217,-0.54254 -1.01217,0.0296 0,0.27816 0.11906,0.50575 0.26458,0.50575 0.14552,0 0.26459,-0.12609 0.26459,-0.28019 z m -1.29009,-0.58411 c -0.26131,-0.25936 -0.2917,-0.22897 -0.14811,0.14811 0.0994,0.26094 0.2473,0.40778 0.32876,0.32632 0.0815,-0.0815 1.7e-4,-0.29496 -0.18065,-0.47443 z m 5.39113,-0.19403 c 0.0899,-0.14552 -0.0816,-0.26458 -0.38126,-0.26458 -0.29963,0 -0.54478,0.11906 -0.54478,0.26458 0,0.14552 0.17156,0.26458 0.38126,0.26458 0.20969,0 0.45484,-0.11906 0.54478,-0.26458 z m 11.69011,-1.37253 c -0.0845,-0.21106 -0.14715,-0.14837 -0.15985,0.15986 -0.0115,0.27891 0.051,0.43518 0.13897,0.34726 0.0879,-0.0879 0.0973,-0.31612 0.0209,-0.50712 z m -18.06842,46.72693 c 0.0883,-0.23018 0.16325,-0.61713 0.16648,-0.8599 0.003,-0.24275 0.24333,-0.73903 0.53355,-1.10283 l 0.52766,-0.66146 -0.27085,0.74981 c -0.14897,0.41239 -0.20497,0.85641 -0.12444,0.98671 0.19297,0.31224 -0.34686,1.30619 -0.70942,1.30619 -0.15597,0 -0.21131,-0.18833 -0.12298,-0.41852 z m 0.44607,-2.63977 c -0.0115,-0.15409 0.16654,-0.51127 0.39561,-0.79375 0.22907,-0.28247 0.33288,-0.35145 0.23068,-0.15328 -0.10219,0.19817 -0.0217,0.47729 0.17882,0.62027 0.28633,0.20414 0.26887,0.22939 -0.0813,0.11758 -0.24526,-0.0783 -0.50375,-2.5e-4 -0.57442,0.17348 -0.0729,0.17906 -0.13755,0.19453 -0.14939,0.0357 z m 27.76036,-5.40838 c 0,-0.14552 0.12609,-0.26458 0.2802,-0.26458 0.15411,0 0.20662,0.11906 0.11668,0.26458 -0.0899,0.14552 -0.21603,0.26458 -0.2802,0.26458 -0.0642,0 -0.11668,-0.11906 -0.11668,-0.26458 z m 10.58334,-5.15938 c -0.18116,-0.21828 -0.24069,-0.39687 -0.1323,-0.39687 0.1084,0 0.0577,-0.168 -0.11274,-0.37332 -0.46164,-0.55624 0.18788,-0.85556 0.71428,-0.32917 0.38155,0.38156 0.37863,0.43374 -0.0332,0.59177 -0.4219,0.1619 -0.42064,0.19681 0.0192,0.53047 0.25894,0.19644 0.33655,0.36096 0.17247,0.36559 -0.1641,0.005 -0.44657,-0.17018 -0.62772,-0.38847 z m -59.72969,-1.46345 c -0.32742,-0.13161 -0.59531,-0.29968 -0.59531,-0.37349 0,-0.20241 1.68282,0.15336 1.97114,0.41672 0.32805,0.29966 -0.59494,0.27065 -1.37583,-0.0432 z m -1.50603,-1.29774 c -0.25658,-0.28351 -0.4191,-0.65769 -0.36116,-0.8315 0.0594,-0.17819 0.31125,-0.002 0.57746,0.40452 0.57031,0.87042 0.43203,1.14338 -0.2163,0.42698 z m 1.39027,0.0669 c 0.191,-0.0764 0.4192,-0.067 0.50712,0.0209 0.0879,0.0879 -0.0684,0.15045 -0.34726,0.13896 -0.30823,-0.0127 -0.37092,-0.0754 -0.15986,-0.15985 z m -4.5806,-2.99426 c -0.0899,-0.14552 0.0291,-0.26458 0.26459,-0.26458 0.23546,0 0.35452,0.11906 0.26458,0.26458 -0.0899,0.14552 -0.209,0.26459 -0.26458,0.26459 -0.0556,0 -0.17465,-0.11907 -0.26459,-0.26459 z m 1.7198,0.1606 c 0,-0.0572 0.17859,-0.17251 0.39687,-0.25628 0.21828,-0.0838 0.39688,-0.037 0.39688,0.10399 0,0.14095 -0.1786,0.25628 -0.39688,0.25628 -0.21828,0 -0.39687,-0.0468 -0.39687,-0.10399 z m -3.54357,-1.37286 c -0.28925,-0.75377 -0.15189,-1.04743 0.24469,-0.5231 0.21365,0.28247 0.38846,0.60989 0.38846,0.7276 0,0.37872 -0.46726,0.2278 -0.63315,-0.2045 z m 68.50065,-8.83887 c -0.0927,-0.14998 0.0135,-0.19434 0.24897,-0.10399 0.45837,0.1759 0.54223,0.36554 0.16165,0.36554 -0.13694,0 -0.32172,-0.1177 -0.41062,-0.26155 z m -66.28,-4.25935 c 0,-0.13288 0.17859,-0.2416 0.39687,-0.2416 0.21829,0 0.39688,-0.17859 0.39688,-0.39688 0,-0.45391 0.22836,-0.49534 0.78609,-0.14262 0.45312,0.28656 0.42051,0.31918 -0.71994,0.72028 -0.47433,0.16682 -0.8599,0.19409 -0.8599,0.0608 z m 58.93097,-5.24747 c -0.11509,-0.4401 -0.0807,-0.5434 0.11568,-0.34706 0.15375,0.15375 0.22749,0.43572 0.16386,0.6266 -0.0661,0.19816 -0.18598,0.0782 -0.27954,-0.27954 z m 1.07984,0.32721 c 0.19099,-0.0764 0.4192,-0.067 0.50712,0.0209 0.0879,0.0879 -0.0684,0.15045 -0.34727,0.13897 -0.30823,-0.0127 -0.37092,-0.0754 -0.15985,-0.15986 z m -56.24263,-0.93734 c 0.0602,-0.1807 0.59222,-0.424 1.18218,-0.54067 0.92393,-0.18272 1.09556,-0.32657 1.23773,-1.03741 0.23867,-1.19339 0.63192,-1.54025 1.71566,-1.51331 l 0.95979,0.0239 -0.92563,0.26532 c -0.50909,0.14593 -1.01329,0.40308 -1.12043,0.57145 -0.30799,0.48402 -0.23465,1.62373 0.12783,1.98655 0.26472,0.26497 0.1195,0.29774 -0.7276,0.16416 -0.58209,-0.0918 -1.39599,-0.0374 -1.80869,0.12085 -0.58087,0.22274 -0.72561,0.21353 -0.64084,-0.0408 z m 15.17378,-3.81469 c 0.0384,-0.16641 -0.21877,-0.57367 -0.57149,-0.90503 -0.77331,-0.7265 -0.69421,-0.8836 0.26188,-0.52009 0.39274,0.14931 0.63713,0.39599 0.54308,0.54815 -0.094,0.15217 -0.0119,0.47291 0.18252,0.71275 0.20345,0.25097 0.22271,0.35766 0.0454,0.25134 -0.16947,-0.1016 -0.35832,-0.0947 -0.41966,0.0154 -0.0613,0.11005 -0.0801,0.0639 -0.0417,-0.10248 z m 28.94762,-2.99086 c 0.21828,-0.14869 0.74414,-0.27217 1.16858,-0.2744 1.01666,-0.005 0.80541,0.14777 -0.50712,0.36754 -0.75831,0.12697 -0.94582,0.10057 -0.66146,-0.0931 z m -19.44687,-2.6597 c -0.0899,-0.14552 -0.0374,-0.26458 0.11667,-0.26458 0.15411,0 0.2802,0.11906 0.2802,0.26458 0,0.14552 -0.0525,0.26458 -0.11667,0.26458 -0.0642,0 -0.19026,-0.11906 -0.2802,-0.26458 z"
       id="path17077" />
  </g>
</svg>
