<?xml version="1.0" encoding="UTF-8" standalone="no"?>
<!-- Created with Inkscape (http://www.inkscape.org/) -->

<svg
   width="60.039284mm"
   height="50.63586mm"
   viewBox="0 0 60.039291 50.635862"
   version="1.1"
   id="svg5"
   inkscape:version="1.1 (c4e8f9ed74, 2021-05-24)"
   sodipodi:docname="calliopsis.svg"
   xmlns:inkscape="http://www.inkscape.org/namespaces/inkscape"
   xmlns:sodipodi="http://sodipodi.sourceforge.net/DTD/sodipodi-0.dtd"
   xmlns="http://www.w3.org/2000/svg"
   xmlns:svg="http://www.w3.org/2000/svg">
  <sodipodi:namedview
     id="namedview7"
     pagecolor="#ffffff"
     bordercolor="#666666"
     borderopacity="1.0"
     inkscape:pageshadow="2"
     inkscape:pageopacity="0.0"
     inkscape:pagecheckerboard="0"
     inkscape:document-units="mm"
     showgrid="false"
     inkscape:zoom="0.94615212"
     inkscape:cx="-348.25267"
     inkscape:cy="99.87823"
     inkscape:window-width="2506"
     inkscape:window-height="1403"
     inkscape:window-x="1974"
     inkscape:window-y="0"
     inkscape:window-maximized="1"
     inkscape:current-layer="layer1" />
  <defs
     id="defs2" />
  <g
     inkscape:label="Layer 1"
     inkscape:groupmode="layer"
     id="layer1"
     transform="translate(-244.17248,-139.06175)">
    <path
       style="fill:#000000;stroke-width:0.264583"
       d="m 280.00506,189.42872 c 0.0914,-0.1479 0.27702,-0.20041 0.41249,-0.11668 0.36699,0.22681 0.29856,0.38557 -0.16619,0.38557 -0.22687,0 -0.3377,-0.121 -0.2463,-0.26889 z m 21.17797,0.0269 c -0.0852,-0.13784 -0.0421,-0.32032 0.0957,-0.40551 0.13784,-0.0852 0.32032,-0.0421 0.40551,0.0957 0.0852,0.13784 0.0421,0.32032 -0.0957,0.4055 -0.13784,0.0852 -0.32032,0.0421 -0.4055,-0.0957 z m -42.07482,-1.65761 c 0.10474,-0.48319 0.54643,-2.00962 0.98153,-3.39207 1.1126,-3.53503 1.1146,-3.55452 0.49457,-4.83531 -0.30688,-0.63393 -0.55796,-1.34578 -0.55796,-1.58189 0,-0.30021 -0.2101,-0.41432 -0.69871,-0.37949 -0.8969,0.0639 -1.01143,-0.3095 -0.34988,-1.14081 0.38566,-0.48462 0.47807,-0.52607 0.34565,-0.15504 -0.12431,0.34834 -0.085,0.44729 0.12578,0.31699 0.20486,-0.12661 0.25034,-0.0431 0.13714,0.25196 -0.14094,0.36727 -0.0835,0.39544 0.34196,0.16773 0.28124,-0.15051 0.5307,-0.53055 0.55435,-0.84453 0.0375,-0.49792 -0.0142,-0.52663 -0.40508,-0.22469 -0.39618,0.30607 -0.39445,0.28299 0.0149,-0.19927 0.25467,-0.3 0.46303,-0.63995 0.46303,-0.75545 0,-0.1155 -0.20836,-0.0523 -0.46303,0.14037 -0.39971,0.30246 -0.41599,0.29784 -0.11906,-0.0337 0.18918,-0.21126 0.4273,-0.38585 0.52917,-0.38798 0.26932,-0.006 3.10784,-3.06634 3.02948,-3.26664 -0.0364,-0.093 0.0827,-0.17449 0.26458,-0.1811 0.1819,-0.007 0.29801,-0.1643 0.25803,-0.3504 -0.04,-0.1861 0.0314,-0.27405 0.15856,-0.19544 0.12719,0.0786 0.38839,-0.15067 0.58043,-0.5095 0.19205,-0.35884 0.47193,-0.65243 0.62196,-0.65243 0.17305,0 0.16427,0.10853 -0.024,0.29683 -0.16325,0.16325 -0.23603,0.45525 -0.16172,0.6489 0.0962,0.25081 0.32486,0.14641 0.7948,-0.36297 1.09862,-1.19081 -2.56343,3.64242 -4.20441,5.54904 -0.90066,1.04645 -1.52935,2.02611 -1.52935,2.38309 0,0.48972 0.17147,0.35156 0.89252,-0.71914 0.49088,-0.72892 1.11004,-1.50124 1.3759,-1.71626 0.26586,-0.21502 -0.0762,0.39808 -0.76022,1.36244 -0.68399,0.96437 -1.24361,1.8771 -1.24361,2.02829 0,0.4125 2.01114,1.92379 2.42142,1.8196 0.19619,-0.0498 0.27886,-0.0445 0.18372,0.0119 -0.1579,0.0935 -1.28387,3.49062 -2.1297,6.42536 -0.30964,1.07436 -0.42958,1.19891 -1.22816,1.27541 -0.87486,0.0838 -0.88283,0.0747 -0.69459,-0.79375 z m 1.27402,-0.0962 c -0.0862,-0.22456 -0.21341,-0.35154 -0.28277,-0.28219 -0.0694,0.0694 -0.0476,0.25309 0.0483,0.40829 0.26089,0.42213 0.41338,0.34012 0.23447,-0.1261 z M 259.1815,176.8583 c -0.0815,-0.0815 -0.2294,0.0654 -0.32876,0.32632 -0.14359,0.37708 -0.1132,0.40747 0.14811,0.14811 0.18082,-0.17947 0.26211,-0.39297 0.18065,-0.47443 z m 1.93693,-0.85289 c 0.32911,-0.41965 0.31975,-0.42901 -0.0999,-0.0999 -0.25466,0.19972 -0.46302,0.40808 -0.46302,0.46302 0,0.21776 0.21727,0.0776 0.56291,-0.36312 z m 0.29063,-0.71191 c 0.24709,0.24709 3.8676,-4.18123 3.72414,-4.55509 -0.0974,-0.25372 -0.28517,-0.16564 -0.65835,0.30878 -0.28878,0.36713 -0.66046,0.58457 -0.83167,0.48655 -0.17024,-0.0975 -0.22642,-0.0849 -0.12484,0.0278 0.10158,0.11279 -0.5235,1.0279 -1.38906,2.03359 -1.49661,1.73887 -1.99298,2.49223 -1.21869,1.84963 0.19529,-0.16208 0.4196,-0.23016 0.49847,-0.15129 z m -0.0598,-0.3119 c 0,-0.14824 0.84304,-1.15428 1.87343,-2.23562 2.04509,-2.14623 1.73662,-1.54275 -0.48437,0.94762 -0.76399,0.85665 -1.38906,1.43625 -1.38906,1.288 z m 16.1403,9.9799 c -1.00749,-0.13437 -1.28839,-0.3113 -1.83238,-1.15416 -0.59666,-0.92446 -0.70994,-0.98324 -1.58823,-0.82412 -0.52015,0.0942 -1.38748,0.39336 -1.92738,0.66473 -1.26776,0.6372 -1.86198,0.62276 -2.48012,-0.0603 -0.65141,-0.71981 -1.34896,-1.08854 -2.49136,-1.31697 l -0.92604,-0.18517 1.04574,-0.0304 c 0.81542,-0.0237 1.22332,0.13796 1.85208,0.73414 0.86804,0.82306 1.99697,1.30306 1.99697,0.84907 0,-0.15076 0.17859,-0.20558 0.39687,-0.12181 0.26184,0.10047 0.40399,-0.0149 0.41777,-0.33904 0.0117,-0.27478 0.0794,-0.34649 0.15363,-0.16271 0.1554,0.38467 1.1484,-0.0354 1.1484,-0.48583 0,-0.14899 -0.10796,-0.20417 -0.23991,-0.12262 -0.13195,0.0815 -0.17148,-0.1134 -0.0878,-0.43324 0.1445,-0.55258 0.16124,-0.55589 0.33653,-0.0665 0.14545,0.40606 0.21184,0.43105 0.31385,0.11813 0.0712,-0.21828 0.0834,-0.12275 0.0271,0.2123 -0.0921,0.54856 -0.0459,0.57904 0.46365,0.30634 0.45728,-0.24473 0.53598,-0.46321 0.41007,-1.13835 -0.14995,-0.80405 -0.13971,-0.81558 0.27198,-0.30633 0.41482,0.51311 0.42233,0.51348 0.24742,0.012 -0.0992,-0.28446 -0.23246,-1.05836 -0.29613,-1.71979 l -0.11575,-1.20258 0.26688,1.04263 c 0.4781,1.86779 0.59469,1.39414 0.45207,-1.83638 -0.0771,-1.74625 -0.0482,-2.81782 0.0642,-2.38125 0.31047,1.20549 0.30342,5.5052 -0.0105,6.40572 -0.23087,0.66225 -0.18129,0.95928 0.29475,1.76611 0.68597,1.16263 1.2247,1.48546 2.47893,1.48546 0.51889,0 0.94344,0.11906 0.94344,0.26458 0,0.14552 -0.0893,0.2467 -0.19844,0.22485 -0.10914,-0.0219 -0.73389,-0.11116 -1.38834,-0.19844 z m 2.15494,-0.20356 c 0.51839,-0.13769 0.74022,-0.85082 0.76791,-2.46868 0.0153,-0.89376 0.0753,-1.05868 0.24071,-0.66146 0.83689,2.01003 4.27299,3.00693 4.22546,1.22591 -0.0139,-0.52135 -0.0639,-0.58304 -0.19844,-0.24503 -0.0989,0.24843 -0.1816,-0.55288 -0.18374,-1.7807 -0.004,-2.56003 0.31587,-2.13028 0.56486,0.75779 0.0898,1.04176 0.30977,2.01318 0.48879,2.1587 0.22739,0.18483 -0.12967,0.28462 -1.18461,0.33106 -1.24241,0.0547 -1.68297,-0.0508 -2.48531,-0.59531 -1.17974,-0.80059 -1.21629,-0.80406 -1.21629,-0.11523 0,0.82077 -0.49003,1.57401 -1.0015,1.53941 -0.40542,-0.0274 -0.40732,-0.043 -0.0178,-0.14646 z m 6.97246,-0.67422 c 0.29105,-0.16836 0.74617,-0.58146 1.0114,-0.918 0.26522,-0.33653 0.71465,-0.61188 0.99873,-0.61188 0.31967,0 0.62248,-0.27728 0.79457,-0.7276 0.32597,-0.85295 -0.19443,-3.09804 -1.2424,-5.35999 -0.35615,-0.7687 -0.6016,-1.44359 -0.54545,-1.49974 0.397,-0.397 2.29045,4.51728 2.29045,5.94466 0,0.83102 -0.8808,2.17184 -1.4267,2.17184 -0.18148,0 -0.58877,0.29766 -0.90509,0.66146 -0.31632,0.3638 -0.78428,0.65784 -1.0399,0.65341 -0.4079,-0.007 -0.40002,-0.0455 0.0644,-0.31416 z m -21.88275,-2.64669 -0.7961,-0.85223 0.95454,-0.80142 c 0.94392,-0.79249 1.38554,-1.60111 0.4915,-0.89995 -0.4026,0.31574 -0.42381,0.31134 -0.16252,-0.0337 0.16528,-0.21828 0.62922,-0.87313 1.03098,-1.45521 0.40177,-0.58208 0.6532,-0.82021 0.55875,-0.52917 -0.16913,0.52113 -0.1657,0.52137 0.22579,0.0156 0.45401,-0.58657 0.52841,-1.05374 0.12845,-0.80656 -0.14799,0.0915 -0.0671,-0.2572 0.17971,-0.77481 0.24683,-0.51761 0.49662,-0.89327 0.55509,-0.8348 0.0585,0.0585 -0.032,0.36482 -0.20114,0.68079 -0.1691,0.31597 -0.25637,0.62558 -0.19392,0.68803 0.0624,0.0624 0.61878,-0.97389 1.23629,-2.30296 1.03709,-2.23212 1.10189,-2.49868 0.84934,-3.49367 -0.15038,-0.59244 -0.21199,-1.20342 -0.1369,-1.35772 0.0751,-0.15431 -0.0427,-0.0606 -0.26181,0.20818 -0.21908,0.26881 -0.33885,0.64372 -0.26617,0.83314 0.18692,0.48708 -0.44418,0.80619 -0.7232,0.36567 -0.31638,-0.49952 -0.29971,-1.35939 0.0225,-1.16025 0.1469,0.0908 0.19608,-0.009 0.11219,-0.22759 -0.1582,-0.41226 0.30434,-1.25465 1.58094,-2.87929 0.42875,-0.54565 0.72002,-1.05162 0.64726,-1.12438 -0.14847,-0.14847 -1.27794,1.2203 -2.56234,3.10521 -0.46972,0.68932 -0.93867,1.24077 -1.04213,1.22543 -0.10345,-0.0153 -0.24763,-0.005 -0.32039,0.0237 -0.62295,0.24287 -1.17321,0.1608 -1.56785,-0.23385 -0.44854,-0.44853 -0.41914,-0.52344 0.68365,-1.74169 1.08136,-1.19457 1.38794,-1.93581 0.49372,-1.19367 -0.2218,0.18408 -0.40327,0.25452 -0.40327,0.15654 0,-0.098 -0.43634,0.15466 -0.96964,0.56143 -0.57404,0.43784 -0.91648,0.58009 -0.83934,0.34867 0.0774,-0.23216 -0.13209,-0.52705 -0.51581,-0.72612 -0.87801,-0.45552 -1.05718,-0.42144 -0.43776,0.0833 0.38668,0.31507 0.40715,0.38556 0.0828,0.28526 -0.23692,-0.0733 -0.56435,2.6e-4 -0.7276,0.1636 -0.21938,0.21938 -0.29682,0.20554 -0.29682,-0.0531 0,-0.28815 -0.0817,-0.28722 -0.46302,0.005 -0.25467,0.19532 -0.19405,0.0522 0.13471,-0.31796 0.32875,-0.3702 0.50734,-0.77252 0.39687,-0.89405 -0.11047,-0.12153 10e-4,-0.14853 0.24869,-0.06 0.31947,0.11439 0.40698,0.05 0.30242,-0.22243 -0.0809,-0.21087 -0.40227,-0.39343 -0.71413,-0.40569 -0.89474,-0.0352 1.47371,-1.03999 4.06321,-1.72382 1.23692,-0.32664 2.0406,-0.60317 1.78593,-0.61451 -0.25466,-0.0113 -0.46484,-0.16945 -0.46707,-0.35135 -0.003,-0.23925 -0.0578,-0.24702 -0.19844,-0.0281 -0.1745,0.27167 -1.44245,0.63071 -5.08917,1.44109 -0.65485,0.14552 -1.42875,0.32653 -1.71979,0.40224 -0.44032,0.11455 -0.46253,0.0877 -0.1323,-0.15989 0.3102,-0.23256 0.15129,-0.27816 -0.7276,-0.20877 -0.61846,0.0488 -1.12448,-0.004 -1.12448,-0.11666 0,-0.11299 -0.32742,-0.21739 -0.7276,-0.23201 -0.59875,-0.0219 -0.54017,-0.0708 0.33072,-0.27614 0.58209,-0.13726 1.2667,-0.19598 1.52136,-0.13049 0.25466,0.0655 0.46302,0.0112 0.46302,-0.12073 0,-0.13189 -0.21828,-0.23981 -0.48507,-0.23981 -0.88095,0 -0.51846,-0.74438 0.46302,-0.95082 0.87327,-0.18367 0.78105,-0.22417 -1.16858,-0.51317 -1.16416,-0.17257 -1.81901,-0.34457 -1.4552,-0.38223 0.63193,-0.0654 0.62602,-0.0775 -0.1323,-0.27045 -0.78206,-0.199 -0.78345,-0.20243 -0.0944,-0.23328 0.71603,-0.032 1.32245,-0.82505 0.63093,-0.82505 -0.50791,0 -0.74889,-0.44842 -0.36762,-0.68406 0.19347,-0.11957 0.2389,-0.0768 0.12099,0.11401 -0.11299,0.18283 -0.0169,0.30547 0.23932,0.30547 0.23546,0 0.35747,-0.11429 0.27114,-0.25398 -0.0935,-0.15133 0.16522,-0.14167 0.64022,0.0239 0.43845,0.15285 0.94855,0.21874 1.13354,0.14643 0.18499,-0.0723 -0.0531,-0.21752 -0.52905,-0.32268 -0.47597,-0.10517 -0.92262,-0.28379 -0.99255,-0.39694 -0.0699,-0.11316 0.1409,-0.13666 0.46852,-0.0522 0.50723,0.13071 0.54691,0.094 0.26725,-0.24745 -0.18064,-0.22053 -0.25009,-0.4793 -0.15434,-0.57505 0.0958,-0.0957 0.0352,-0.1741 -0.13459,-0.1741 -0.16977,0 -0.30868,0.11167 -0.30868,0.24814 0,0.13648 -0.22988,0.23083 -0.51084,0.20966 -0.28096,-0.0212 -0.44179,-0.15019 -0.35741,-0.28672 0.0912,-0.1475 -0.1579,-0.17564 -0.61364,-0.0693 -0.50315,0.11736 -0.64135,0.0951 -0.40168,-0.0646 0.26233,-0.17483 0.0385,-0.29743 -0.79375,-0.4347 -1.25894,-0.20766 -2.29168,-0.63955 -1.55601,-0.65071 0.21828,-0.003 1.14078,0.2202 2.04999,0.4967 1.0088,0.30679 1.71471,0.40309 1.81113,0.24708 0.22657,-0.3666 1.42402,-0.0473 4.27913,1.14094 1.3752,0.57235 2.60798,1.00476 2.7395,0.96092 0.21057,-0.0702 -7.74003,-4.18046 -8.76309,-4.5303 -0.25309,-0.0865 -0.27398,-0.14328 -0.0576,-0.15661 0.18657,-0.0115 0.76318,0.15626 1.28136,0.37277 0.87336,0.36491 1.03973,0.35166 2.279,-0.18146 0.81393,-0.35014 1.19242,-0.63349 0.9676,-0.72438 -0.2031,-0.0821 -0.40935,-0.43386 -0.45834,-0.78169 -0.0686,-0.48695 0.007,-0.59536 0.33073,-0.47132 0.50271,0.19291 0.54728,-0.10829 0.0891,-0.60195 -0.26458,-0.28505 -0.26458,-0.31897 0,-0.1696 0.18191,0.1027 0.33073,0.0706 0.33073,-0.0714 0,-0.14199 -0.14882,-0.31821 -0.33073,-0.3916 -0.23763,-0.0959 -0.24216,-0.13934 -0.0161,-0.15435 0.2535,-0.0168 2.42259,1.66861 3.00076,2.33166 0.65875,0.75546 3.18311,2.97524 3.00249,2.64022 -0.22756,-0.42209 -3.8822,-4.54148 -4.5286,-5.10449 -0.18006,-0.15683 -1.06424,-1.11859 -1.96484,-2.13723 -1.48824,-1.6833 -1.51704,-1.73674 -0.31603,-0.58648 0.95862,0.91811 1.60706,1.31059 2.36172,1.42945 0.57216,0.0901 1.37684,0.44334 1.78819,0.78492 0.41134,0.34159 0.94712,0.61842 1.19062,0.61518 0.34324,-0.005 0.29409,-0.12496 -0.21874,-0.5358 -0.3638,-0.29146 -0.54239,-0.51284 -0.39687,-0.49196 0.6646,0.0954 0.89902,-0.0518 0.74048,-0.46497 -0.1136,-0.29603 -0.0675,-0.3776 0.1406,-0.24896 0.17025,0.10522 0.30954,0.36879 0.30954,0.58571 0,0.29645 0.11387,0.33069 0.45843,0.13786 0.36685,-0.2053 0.52113,-0.11542 0.77226,0.44987 0.23437,0.52756 0.31928,0.58361 0.33532,0.22136 0.0476,-1.07339 0.69227,-0.14844 1.42158,2.0395 0.42444,1.2733 0.81362,2.27318 0.86485,2.22195 0.18748,-0.18748 -0.65352,-3.62412 -1.09661,-4.48117 -0.43259,-0.83676 -0.43251,-0.86293 0.002,-0.50285 0.39793,0.33009 0.48941,0.33009 0.69829,0 0.20507,-0.32408 0.24096,-0.32482 0.24442,-0.005 0.002,0.20615 0.0904,0.28847 0.19593,0.18294 0.10554,-0.10554 0.34488,0.20204 0.53188,0.6835 l 0.33999,0.8754 -0.12796,-1.05834 c -0.0704,-0.58208 -0.18906,-1.47505 -0.26372,-1.98437 -0.11273,-0.76903 -0.096,-0.81389 0.0989,-0.26459 0.19887,0.56064 0.23927,0.5808 0.26506,0.1323 0.0167,-0.29105 0.15729,-0.70777 0.31236,-0.92605 0.21709,-0.3056 0.24542,-0.22954 0.1232,0.33073 -0.0873,0.40019 -0.0457,0.72761 0.0925,0.72761 0.13817,0 0.29686,0.26789 0.35264,0.59531 0.086,0.50502 0.14284,0.45486 0.37447,-0.33073 l 0.27304,-0.92604 0.33948,1.5875 c 0.26293,1.22946 0.3848,1.46608 0.54039,1.04915 0.11049,-0.2961 0.3928,-0.69763 0.62736,-0.8923 0.36559,-0.3034 0.42649,-0.28542 0.42649,0.1259 0,0.44766 0.0253,0.44539 0.37798,-0.0337 0.62789,-0.85317 0.74722,0.06 0.29115,2.22805 -0.2225,1.05774 -0.39074,2.2428 -0.37386,2.63347 0.0232,0.53757 0.0599,0.58162 0.15081,0.18114 0.39153,-1.72483 1.49726,-4.97492 1.59721,-4.69471 0.0652,0.18281 0.22746,0.26508 0.36055,0.18282 0.1331,-0.0823 0.24199,-0.0474 0.24199,0.0775 0,0.12489 0.41672,0.17842 0.92604,0.11896 1.0024,-0.11703 1.18223,0.18496 0.51027,0.85692 -0.27305,0.27305 -0.30577,0.41578 -0.0953,0.41578 0.17625,0 0.46594,-0.19896 0.64375,-0.44214 0.17781,-0.24317 0.51679,-0.47053 0.75328,-0.50524 0.33765,-0.0496 0.37496,0.0397 0.17374,0.41569 -0.30484,0.56959 0.28666,0.93159 0.75575,0.4625 0.16082,-0.16082 0.37703,-0.2078 0.48044,-0.10438 0.10342,0.10342 -0.53232,0.92892 -1.41276,1.83445 -1.66779,1.71531 -2.47076,2.76409 -2.47041,3.22663 1.1e-4,0.14953 0.38707,-0.14987 0.8599,-0.66531 1.38175,-1.5063 3.7297,-3.35532 4.25074,-3.34749 0.38303,0.006 0.44639,0.14603 0.312,0.69074 -0.1359,0.55086 -0.10338,0.61932 0.1676,0.35278 0.47201,-0.46431 0.72629,-0.41132 0.63485,0.13229 -0.0428,0.25466 -0.18538,0.44176 -0.31677,0.41577 -0.13138,-0.026 -0.23888,0.16456 -0.23888,0.42343 0,0.33573 0.14731,0.43214 0.51384,0.33629 0.34408,-0.09 0.45131,-0.0332 0.32456,0.17189 -0.1041,0.16845 -0.0632,0.30626 0.0909,0.30626 0.15411,0 0.2802,-0.11487 0.2802,-0.25527 0,-0.31324 0.75905,-0.73643 1.61271,-0.89913 0.98936,-0.18857 1.57134,-0.46899 1.43411,-0.69102 -0.15112,-0.24453 2.17671,-1.8867 4.89068,-3.45014 1.09141,-0.62873 2.02406,-1.24225 2.07257,-1.36337 0.0485,-0.12113 0.20436,-0.22023 0.34634,-0.22023 0.14199,0 0.18457,0.11906 0.0946,0.26458 -0.0969,0.15678 0.20694,0.26458 0.74574,0.26458 0.5561,0 1.04534,0.17984 1.25963,0.46302 0.29806,0.39391 0.295,0.41366 -0.0205,0.1323 -0.61928,-0.55224 -3.11784,-0.35048 -2.76333,0.22313 0.0795,0.1286 -0.0598,0.15542 -0.3095,0.0596 -0.30597,-0.11741 -0.39225,-0.0743 -0.26459,0.13229 0.12767,0.20657 0.0414,0.24971 -0.26458,0.13229 -0.34115,-0.13091 -0.3998,-0.0808 -0.23591,0.20147 0.11997,0.20663 0.12958,0.29632 0.0214,0.19931 -0.10822,-0.097 -0.43417,0.061 -0.72434,0.35118 -0.29016,0.29017 -0.70315,0.4602 -0.91773,0.37786 -0.21459,-0.0823 -0.32111,-0.038 -0.23672,0.0986 0.18426,0.29813 -0.66028,0.77833 -1.0939,0.62198 -0.16857,-0.0608 -0.39532,0.0332 -0.5039,0.20893 -0.13607,0.22017 -0.0819,0.25243 0.17419,0.10384 0.20438,-0.11858 0.28334,-0.11816 0.17547,9.2e-4 -0.10788,0.11908 -0.0483,0.40606 0.13229,0.63773 0.27667,0.35484 0.26589,0.37648 -0.0684,0.1373 -0.54805,-0.39206 -1.58953,-0.41263 -1.51573,-0.0299 0.0333,0.17292 -0.15933,0.27621 -0.42905,0.23002 -0.26927,-0.0461 -0.41912,0.0302 -0.33301,0.1695 0.18193,0.29436 -1.10614,1.23709 -1.69096,1.23761 -0.21828,1.9e-4 -0.39688,0.14673 -0.39688,0.32563 0,0.39981 -1.05738,1.17428 -1.28816,0.9435 -0.0919,-0.0919 -0.16703,-0.0398 -0.16703,0.11564 0,0.15549 -0.38696,0.53051 -0.8599,0.83339 -1.30579,0.83625 -0.55199,0.66024 1.52136,-0.35523 1.62833,-0.79752 1.91601,-0.86412 2.38124,-0.55129 0.29105,0.1957 0.51316,0.54293 0.4936,0.77163 -0.0285,0.33296 0.0678,0.36051 0.48305,0.13825 0.46591,-0.24935 0.48934,-0.22284 0.23049,0.26081 -0.33143,0.61929 -2.59155,1.70214 -3.12524,1.49734 -0.19862,-0.0762 -0.28463,-0.0182 -0.19297,0.13006 0.0912,0.14757 -0.51067,0.56653 -1.34207,0.93422 -2.04995,0.90659 -1.66761,1.08892 0.54054,0.25777 1.76637,-0.66486 2.71787,-0.87621 2.05826,-0.45719 -0.17885,0.11361 0.46109,0.1565 1.42208,0.0953 1.40055,-0.0892 1.72216,-0.0391 1.62076,0.2524 -0.0696,0.20001 0.12391,0.50826 0.42999,0.68501 0.50601,0.29219 0.51173,0.3222 0.0631,0.33073 -0.45788,0.009 -0.46389,0.0545 -0.0834,0.63518 0.31606,0.48237 0.3382,0.69789 0.0966,0.94032 -0.24172,0.24254 -0.17855,0.41723 0.27604,0.76326 0.42059,0.32016 0.54464,0.61846 0.43294,1.04107 -0.0861,0.32579 -0.26209,0.52712 -0.39107,0.44741 -0.12897,-0.0797 -0.2345,-0.0188 -0.2345,0.13527 0,0.15411 0.17859,0.2802 0.39688,0.2802 0.62762,0 0.46142,0.48319 -0.19844,0.57691 -0.58236,0.0827 -1.194,-0.0748 -5.73272,-1.4765 -1.22485,-0.37827 -2.26518,-0.64956 -2.31186,-0.60288 -0.0467,0.0467 0.59828,0.36184 1.43324,0.70037 5.02372,2.03683 5.35457,2.20268 5.35457,2.68407 0,0.27529 0.35449,0.669 0.81833,0.90887 0.45009,0.23275 0.75794,0.48357 0.68412,0.5574 -0.0738,0.0738 -0.38837,-0.002 -0.699,-0.16805 -0.86384,-0.46231 -2.32889,0.0916 -2.28294,0.86316 0.0192,0.32277 -0.12332,0.75122 -0.31675,0.95211 -0.29776,0.30925 -0.46087,0.26637 -1.06366,-0.2796 -0.39159,-0.35467 -1.18823,-0.99097 -1.77031,-1.414 -0.58209,-0.42303 -1.22134,-0.92795 -1.42056,-1.12206 -0.19923,-0.19411 -0.43735,-0.27718 -0.52917,-0.18462 -0.0918,0.0926 0.59277,0.84836 1.52131,1.67955 1.33976,1.19929 1.65303,1.62221 1.51762,2.04886 -0.11534,0.3634 0.006,0.69725 0.37365,1.0302 0.42292,0.38274 0.50887,0.40025 0.38541,0.0785 -0.17373,-0.45275 0.50769,-0.85087 1.01989,-0.59586 0.16876,0.084 0.0757,-0.0347 -0.20674,-0.26373 -0.29844,-0.24202 -0.37325,-0.41649 -0.17857,-0.41649 0.48791,0 3.30984,2.19572 5.95073,4.63021 1.26287,1.16416 2.67991,2.25877 3.14898,2.43246 0.82251,0.30455 0.82806,0.31632 0.15612,0.33073 -0.48066,0.0103 -0.75738,0.19956 -0.89224,0.61024 -0.17907,0.54527 -0.20946,0.52216 -0.36159,-0.27499 -0.0914,-0.47867 -0.26319,-0.85949 -0.38187,-0.84626 -0.11868,0.0132 -0.45563,-0.28088 -0.74879,-0.65357 -0.29316,-0.37269 -0.66094,-0.59855 -0.81729,-0.50192 -0.16998,0.10505 -0.2073,0.0511 -0.0928,-0.13408 0.21477,-0.34751 -0.99426,-1.60842 -3.3942,-3.53983 -1.49456,-1.20279 -2.24518,-1.59384 -1.85855,-0.96826 0.11904,0.1926 -0.0207,0.18367 -0.41319,-0.0264 -0.48569,-0.25993 -0.55602,-0.25274 -0.38856,0.0397 0.44212,0.77222 1.00138,1.2627 1.25856,1.10376 0.15987,-0.0988 0.18871,-0.0352 0.0707,0.15576 -0.15121,0.24466 -0.31231,0.22056 -0.6661,-0.0996 -0.25667,-0.23228 -0.74212,-0.47537 -1.07879,-0.54021 -0.33667,-0.0648 -0.73398,-0.23973 -0.88291,-0.38866 -0.40735,-0.40736 -0.74753,-0.33125 -1.61236,0.36071 -0.68481,0.54792 -0.73955,0.68479 -0.42532,1.06341 0.19835,0.23901 0.30006,0.49515 0.226,0.5692 -0.074,0.0741 -0.64633,-0.73249 -1.27172,-1.79233 -2.71423,-4.59973 -4.23324,-6.54507 -5.13469,-6.57578 -0.53803,-0.0183 -0.53827,-0.0216 -0.0166,-0.22847 0.29982,-0.11891 0.60084,-0.0986 0.69453,0.0468 0.10255,0.1592 0.22393,0.16196 0.31953,0.007 0.0848,-0.13719 0.42582,-0.22943 0.75785,-0.20497 0.89,0.0656 1.40029,-0.5562 1.51919,-1.85105 0.0134,-0.14552 0.13971,-0.086 0.28078,0.1323 0.21265,0.32906 0.25752,0.30646 0.26259,-0.1323 0.003,-0.29716 0.28572,-0.65877 0.64384,-0.82477 0.55418,-0.25688 0.66022,-0.22223 0.80949,0.26458 0.11208,0.36554 0.22053,0.44133 0.31209,0.21811 0.27087,-0.66035 -0.17417,-1.51571 -1.09664,-2.10774 -0.51226,-0.32875 -0.93138,-0.78226 -0.93138,-1.0078 0,-0.22553 -0.11906,-0.33647 -0.26458,-0.24653 -0.14683,0.0907 -0.26666,-0.10836 -0.26926,-0.44741 -0.004,-0.47107 -0.30614,-0.75348 -1.32158,-1.23366 -0.7243,-0.34251 -1.25095,-0.72946 -1.17033,-0.8599 0.0806,-0.13044 -0.15812,-0.23716 -0.53051,-0.23716 -0.37239,0 -0.67707,-0.11906 -0.67707,-0.26458 0,-0.14552 -0.24515,-0.26458 -0.54478,-0.26458 -0.32876,0 -0.47347,-0.11538 -0.36495,-0.29098 0.12929,-0.20919 0.0335,-0.21267 -0.34073,-0.0124 -0.37191,0.19905 -0.6065,0.19266 -0.82154,-0.0224 -0.35715,-0.35716 -1.36758,-0.47478 -1.36758,-0.1592 0,0.1212 -0.12609,0.22036 -0.2802,0.22036 -0.15411,0 -0.20662,-0.11906 -0.11668,-0.26458 0.0899,-0.14552 0.0445,-0.26458 -0.10106,-0.26458 -0.14552,0 -0.33837,0.11938 -0.42855,0.2653 -0.10786,0.17452 -0.35325,0.16399 -0.71719,-0.0308 -0.46737,-0.25013 -0.52776,-0.22971 -0.38912,0.13157 0.0903,0.23521 0.0587,0.42766 -0.0701,0.42766 -0.12882,0 -0.28069,-0.13938 -0.33747,-0.30973 -0.1526,-0.45779 -1.62636,0.48546 -2.15395,1.3786 -0.47366,0.80185 -0.53888,1.07786 -0.2343,0.99158 0.39609,-0.1122 1.38906,0.61432 1.38906,1.01633 0,0.22679 -0.23812,0.47461 -0.52916,0.55072 -0.63215,0.16531 -0.68642,0.48887 -0.11855,0.70678 0.23546,0.0904 0.34166,0.046 0.24897,-0.10398 -0.0889,-0.14385 0.024,-0.26155 0.25084,-0.26155 0.22687,0 0.41249,0.19247 0.41249,0.42772 0,0.32321 -0.17656,0.39397 -0.72258,0.28959 -0.63442,-0.12128 -0.6667,-0.0973 -0.26458,0.19676 0.25189,0.18419 0.45799,0.47059 0.45799,0.63645 0,0.16586 0.11906,0.30156 0.26458,0.30156 0.14552,0 0.26459,-0.11906 0.26459,-0.26458 0,-0.14552 0.26789,-0.26276 0.59531,-0.26053 0.44186,0.003 0.50132,0.0636 0.23069,0.235 -0.20055,0.12702 -0.2891,0.35315 -0.19679,0.50251 0.0923,0.14937 0.0243,0.31942 -0.15117,0.3779 -0.19976,0.0666 -0.14869,0.17169 0.13665,0.28118 0.28416,0.10905 0.65254,-0.022 0.97881,-0.34831 0.70851,-0.70852 0.6687,-0.31532 -0.045,0.44437 l -0.56816,0.60478 0.83222,-0.0586 c 0.84829,-0.0597 1.09893,-0.32095 0.50253,-0.52384 -0.1819,-0.0619 0.0562,-0.17025 0.52917,-0.24081 0.47294,-0.0706 0.85989,-0.0298 0.85989,0.0905 0,0.12032 -0.11906,0.21876 -0.26458,0.21876 -0.14552,0 -0.49106,0.22648 -0.76786,0.50328 -0.49464,0.49464 -0.4925,0.50533 0.12429,0.62323 0.40592,0.0776 0.5708,0.0167 0.46686,-0.17254 -0.0884,-0.16088 0.0976,-0.0472 0.4134,0.25252 l 0.57409,0.54503 -1.13299,2.95731 c -0.67728,1.7678 -1.25568,2.91276 -1.43801,2.84657 -0.49429,-0.17943 -1.04318,0.43268 -1.52891,1.70502 -0.78268,2.05019 -2.71497,5.38937 -3.89338,6.72811 l -1.13096,1.28484 0.90559,0.75603 c 0.49808,0.41581 0.74951,0.75602 0.55873,0.75602 -0.19078,0 -0.70512,-0.38351 -1.14298,-0.85223 z m 1.67614,-3.44725 c 0.28763,-0.53981 0.27617,-0.56146 -0.12298,-0.23219 -0.24211,0.19972 -0.4402,0.46761 -0.4402,0.59532 0,0.40414 0.23512,0.25255 0.56318,-0.36313 z m 20.07432,-10.092 c 0,-0.0572 -0.18477,-0.17489 -0.41061,-0.26156 -0.23546,-0.0903 -0.34167,-0.046 -0.24897,0.10399 0.15538,0.25141 0.65958,0.37186 0.65958,0.15757 z m -17.28176,-3.38521 c -0.0845,-0.21107 -0.14715,-0.14838 -0.15985,0.15985 -0.0115,0.27891 0.051,0.43518 0.13897,0.34727 0.0879,-0.0879 0.0973,-0.31613 0.0209,-0.50712 z m 14.56427,-1.16858 c -0.0879,-0.0879 -0.31612,-0.0973 -0.50712,-0.0209 -0.21106,0.0845 -0.14837,0.14716 0.15986,0.15985 0.27891,0.0115 0.43518,-0.051 0.34726,-0.13896 z m -24.34166,-0.26458 c -0.0879,-0.0879 -0.31613,-0.0973 -0.50712,-0.0209 -0.21107,0.0845 -0.14837,0.14716 0.15985,0.15985 0.27891,0.0115 0.43518,-0.051 0.34727,-0.13896 z m 2.12217,-0.81628 c -0.25466,-0.0666 -0.67138,-0.0666 -0.92604,0 -0.25466,0.0666 -0.0463,0.121 0.46302,0.121 0.50933,0 0.71769,-0.0545 0.46302,-0.121 z m 26.92136,-0.74195 c 0.14552,-0.0507 -0.36752,-0.10163 -1.1401,-0.11311 -0.77257,-0.0115 -1.34534,0.0751 -1.27283,0.19244 0.12049,0.19495 1.78284,0.1403 2.41293,-0.0793 z m -29.05572,-1.77111 c -0.0845,-0.21107 -0.14716,-0.14837 -0.15985,0.15985 -0.0115,0.27891 0.051,0.43518 0.13896,0.34727 0.0879,-0.0879 0.0973,-0.31613 0.0209,-0.50712 z m 8.8596,-0.31976 c 0.18065,0.11164 0.15207,0.25821 -0.0824,0.42258 -0.29537,0.20707 -0.29159,0.23344 0.0214,0.14883 0.56552,-0.15289 0.63241,-0.64132 0.11502,-0.83986 -0.44025,-0.16894 -0.8884,0.22318 -0.88014,0.77011 0.002,0.14552 0.12676,0.0537 0.27679,-0.204 0.15004,-0.25773 0.39726,-0.39167 0.54937,-0.29766 z m 8.37106,-6.91368 c -0.0815,-0.0815 -0.22941,0.0654 -0.32876,0.32632 -0.14359,0.37709 -0.1132,0.40748 0.14811,0.14812 0.18082,-0.17948 0.26211,-0.39297 0.18065,-0.47444 z m -0.21348,-0.81797 c 0,-0.21829 -0.11907,-0.3233 -0.26459,-0.23336 -0.14552,0.0899 -0.26458,0.34212 -0.26458,0.5604 0,0.21828 0.11906,0.32329 0.26458,0.23335 0.14552,-0.0899 0.26459,-0.34211 0.26459,-0.56039 z m -12.7,-0.73013 c 0,-0.0549 -0.20836,-0.2633 -0.46302,-0.46302 -0.41965,-0.32911 -0.42901,-0.31975 -0.0999,0.0999 0.34564,0.44073 0.56292,0.58088 0.56292,0.36312 z m -1.32292,-0.52916 c 0,-0.0549 -0.20836,-0.26331 -0.46302,-0.46303 -0.41964,-0.3291 -0.429,-0.31974 -0.0999,0.0999 0.34565,0.44073 0.56292,0.58089 0.56292,0.36313 z m 11.66256,31.43097 c 0.0127,-0.30823 0.0754,-0.37092 0.15985,-0.15986 0.0764,0.191 0.067,0.4192 -0.0209,0.50712 -0.0879,0.0879 -0.15045,-0.0684 -0.13896,-0.34726 z m 11.37708,0 c 0.0127,-0.30823 0.0754,-0.37092 0.15985,-0.15986 0.0764,0.191 0.067,0.4192 -0.0209,0.50712 -0.0879,0.0879 -0.15045,-0.0684 -0.13896,-0.34726 z m 5.29851,-0.39728 c -0.34855,-0.13943 -0.56711,-0.32012 -0.48568,-0.40154 0.0814,-0.0814 0.38854,-0.0194 0.68247,0.13797 0.69766,0.37338 1.78073,0.36391 2.50485,-0.0219 0.52242,-0.27833 0.54305,-0.26563 0.21479,0.13229 -0.40231,0.4877 -1.88539,0.56558 -2.91643,0.15316 z M 273.80556,180.812 c 0.0127,-0.30822 0.0754,-0.37091 0.15985,-0.15985 0.0764,0.191 0.067,0.4192 -0.0209,0.50712 -0.0879,0.0879 -0.15046,-0.0684 -0.13897,-0.34727 z m 10.31875,0 c 0.0127,-0.30822 0.0754,-0.37091 0.15985,-0.15985 0.0764,0.191 0.067,0.4192 -0.0209,0.50712 -0.0879,0.0879 -0.15046,-0.0684 -0.13897,-0.34727 z m -3.70416,-0.52916 c 0.0127,-0.30823 0.0754,-0.37092 0.15985,-0.15986 0.0764,0.191 0.067,0.4192 -0.0209,0.50712 -0.0879,0.0879 -0.15045,-0.0684 -0.13896,-0.34726 z m -8.73125,-0.26459 c 0.0127,-0.30822 0.0754,-0.37091 0.15985,-0.15985 0.0764,0.191 0.067,0.4192 -0.0209,0.50712 -0.0879,0.0879 -0.15045,-0.0684 -0.13896,-0.34727 z m 7.9375,0 c 0.0127,-0.30822 0.0754,-0.37091 0.15985,-0.15985 0.0764,0.191 0.067,0.4192 -0.0209,0.50712 -0.0879,0.0879 -0.15045,-0.0684 -0.13896,-0.34727 z m -6.61459,-0.26458 c 0.0127,-0.30823 0.0754,-0.37092 0.15985,-0.15985 0.0764,0.19099 0.067,0.4192 -0.0209,0.50712 -0.0879,0.0879 -0.15046,-0.0684 -0.13897,-0.34727 z m 0.55986,-0.24253 c 0.005,-0.43657 0.0647,-0.58313 0.13177,-0.3257 0.0671,0.25743 0.0627,0.61462 -0.01,0.79375 -0.0725,0.17913 -0.12736,-0.0315 -0.12197,-0.46805 z m -11.83642,0.11468 c -0.0959,-0.1552 -0.11765,-0.33893 -0.0483,-0.40828 0.0694,-0.0694 0.1966,0.0576 0.28277,0.28218 0.17891,0.46623 0.0264,0.54824 -0.23447,0.1261 z m 12.37539,-0.51156 c 0,-0.50932 0.0545,-0.71768 0.121,-0.46302 0.0666,0.25466 0.0666,0.67138 0,0.92604 -0.0665,0.25466 -0.121,0.0463 -0.121,-0.46302 z m 8.57026,0.38665 c -0.0907,-0.23646 -0.15474,-0.62855 -0.14224,-0.87131 0.0125,-0.24276 0.12764,-0.0902 0.25584,0.33907 0.24941,0.83509 0.16121,1.24836 -0.1136,0.53224 z m 2.76749,-0.80557 c -0.17075,-0.67812 -0.26085,-1.28256 -0.20022,-1.34319 0.0606,-0.0606 0.24995,0.44458 0.42071,1.1227 0.17075,0.67812 0.26084,1.28255 0.20021,1.34319 -0.0606,0.0606 -0.24995,-0.44458 -0.4207,-1.1227 z m -5.29775,0.28663 c -0.0673,-0.77779 -0.0725,-0.78045 -0.25489,-0.13229 -0.11847,0.42095 -0.18942,-0.012 -0.19512,-1.19063 l -0.009,-1.85208 0.36106,1.19062 c 0.19858,0.65485 0.3173,1.54782 0.26383,1.98438 l -0.0972,0.79375 -0.0687,-0.79375 z m -10.71222,-0.13229 c 0.0973,-0.3638 0.28728,-0.84005 0.42214,-1.05834 0.17042,-0.27582 0.19125,-0.19512 0.0683,0.26459 -0.0973,0.3638 -0.28727,0.84005 -0.42214,1.05833 -0.17042,0.27583 -0.19125,0.19513 -0.0683,-0.26458 z m 11.81597,-0.26459 c 0,-0.50932 0.0545,-0.71768 0.121,-0.46302 0.0666,0.25466 0.0666,0.67138 0,0.92604 -0.0666,0.25467 -0.121,0.0463 -0.121,-0.46302 z m 7.10326,0.0878 c -0.0115,-0.17 -0.0894,-0.52719 -0.17316,-0.79375 -0.14474,-0.4607 -0.13728,-0.46127 0.15102,-0.0117 0.1668,0.26015 0.24472,0.61733 0.17315,0.79375 -0.0939,0.23151 -0.13594,0.23476 -0.15101,0.0117 z m -15.61042,-0.50671 c 0.0127,-0.30823 0.0754,-0.37092 0.15985,-0.15985 0.0764,0.19099 0.067,0.4192 -0.0209,0.50712 -0.0879,0.0879 -0.15045,-0.0684 -0.13896,-0.34727 z m 0.575,-0.50712 c 0.003,-0.58208 0.0571,-0.78905 0.12041,-0.45993 0.0633,0.32911 0.0609,0.80536 -0.005,1.05833 -0.0662,0.25297 -0.118,-0.0163 -0.11507,-0.5984 z m 13.55617,-0.83686 c -1.0758,-2.42458 -1.06377,-2.38339 -0.57904,-1.98331 0.4546,0.37521 1.58346,3.12365 1.44884,3.5275 -0.0436,0.13069 -0.43497,-0.56419 -0.8698,-1.54419 z m 9.4179,1.66783 c 0.31172,-0.26882 1.59366,-0.42919 1.43972,-0.18011 -0.0935,0.15135 -0.48055,0.27518 -0.86002,0.27518 -0.37946,0 -0.64033,-0.0428 -0.5797,-0.0951 z m -40.3711,-0.80078 c -0.72611,-0.31645 -1.73477,-1.22081 -1.36161,-1.22081 0.0871,0 0.54812,0.23768 1.02458,0.52817 0.47646,0.2905 1.22348,0.53045 1.66004,0.53322 0.60995,0.004 0.70185,0.0644 0.39688,0.26152 -0.51321,0.33166 -0.75794,0.31714 -1.71989,-0.1021 z m 9.39281,-0.16248 c 0.15576,-0.29104 0.34273,-0.52917 0.41549,-0.52917 0.0728,0 0.005,0.23813 -0.15091,0.52917 -0.15576,0.29104 -0.34273,0.52917 -0.41549,0.52917 -0.0728,0 -0.005,-0.23813 0.15091,-0.52917 z m 8.72764,0.15434 c -0.002,-0.15765 -0.0822,-0.58429 -0.17818,-0.94809 -0.15208,-0.57628 -0.12132,-0.61783 0.2389,-0.32265 0.54938,0.45019 0.75885,1.55737 0.29464,1.55737 -0.19346,0 -0.35338,-0.12898 -0.35536,-0.28663 z m 15.38761,-0.35278 c -0.28871,-0.6747 -0.28218,-0.69026 0.0898,-0.21401 0.22065,0.28247 0.40118,0.6099 0.40118,0.7276 0,0.40215 -0.17948,0.21441 -0.491,-0.51359 z m 9.28839,0.35929 c 0.73759,-0.5599 0.58135,-1.85975 -0.35121,-2.92189 -0.47074,-0.53613 -0.73254,-1.05955 -0.62058,-1.24071 0.11487,-0.18586 0.0806,-0.24347 -0.0842,-0.14159 -0.15284,0.0945 -0.55819,-0.0569 -0.90077,-0.33634 -0.56118,-0.45776 -0.57716,-0.52589 -0.16137,-0.68776 0.25382,-0.0988 0.39562,-0.28626 0.31511,-0.41653 -0.0805,-0.13028 0.009,-0.23869 0.19996,-0.24091 0.25167,-0.003 0.23785,-0.0742 -0.0505,-0.26054 -0.21828,-0.14106 -0.27782,-0.25648 -0.1323,-0.25648 0.14553,0 0.44318,0.11542 0.66146,0.25648 0.22446,0.14506 0.26336,0.25825 0.0896,0.26054 -0.42192,0.006 -0.28855,0.66854 0.2554,1.2696 0.24747,0.27345 0.36039,0.5959 0.25093,0.71657 -0.10946,0.12066 -0.0661,0.14357 0.0964,0.0509 0.16245,-0.0927 0.49715,0.0545 0.74377,0.32702 0.34932,0.38598 0.37175,0.52617 0.10151,0.63433 -0.19079,0.0764 -0.0493,0.15764 0.31456,0.18062 0.3638,0.023 0.51263,0.10183 0.33073,0.17523 -0.1912,0.0771 -0.33073,0.60414 -0.33073,1.24911 0,1.08774 -0.35182,1.75923 -0.91282,1.74224 -0.15279,-0.005 -0.0694,-0.16658 0.18521,-0.3599 z m -13.48319,-1.50636 c -0.3158,-0.8671 -0.46226,-1.50738 -0.32545,-1.42282 0.35822,0.22139 0.30658,-0.243 -0.0687,-0.61834 -0.22062,-0.22061 -0.22735,-0.3175 -0.022,-0.3175 0.16249,0 0.3555,0.14883 0.4289,0.33073 0.0734,0.1819 0.15122,0.0331 0.17294,-0.33073 0.0364,-0.61007 0.0571,-0.62035 0.26687,-0.13229 0.31295,0.72826 0.31295,0.98716 0,0.79375 -0.3727,-0.23034 -0.34576,-0.13501 0.39688,1.40439 0.3638,0.75413 0.65559,1.52055 0.64843,1.70317 -0.007,0.18261 -0.35414,-0.38235 -0.77105,-1.25547 -0.86868,-1.81928 -0.98908,-1.82976 -0.37679,-0.0328 0.62464,1.83323 0.324,1.72834 -0.34994,-0.12209 z m -4.26826,0.81634 c 0,-0.3638 0.0601,-0.51263 0.13345,-0.33073 0.0734,0.18191 0.0734,0.47956 0,0.66146 -0.0734,0.1819 -0.13345,0.0331 -0.13345,-0.33073 z m 6.73507,-0.17843 c -0.10187,-0.31642 -0.4836,-1.01499 -0.84828,-1.55237 -0.36468,-0.53739 -0.60183,-1.0383 -0.52699,-1.11313 0.0748,-0.0748 0.004,-0.3883 -0.15772,-0.69658 -0.29196,-0.55707 -0.29023,-0.55738 0.28015,-0.0508 0.38564,0.34248 0.4758,0.57033 0.27483,0.69453 -0.22046,0.13626 -0.22111,0.23303 -0.002,0.36816 0.43187,0.26691 1.39664,2.24997 1.272,2.61457 -0.0585,0.17104 -0.18965,0.0521 -0.29153,-0.26434 z m -29.55599,-0.30407 c 0.16082,-0.3005 0.42271,-0.62689 0.58196,-0.72531 0.20747,-0.12823 0.20666,-0.0241 -0.003,0.3674 -0.16082,0.3005 -0.42271,0.62689 -0.58196,0.72531 -0.20747,0.12823 -0.20666,0.0241 0.003,-0.3674 z m 26.61083,-0.0617 c -0.14754,-0.46487 -0.237,-0.50943 -0.43836,-0.21838 -0.17681,0.25557 -0.1994,0.17646 -0.075,-0.26276 0.0979,-0.34564 0.0759,-0.56537 -0.0488,-0.48828 -0.12473,0.0771 -0.23706,-0.11636 -0.24963,-0.42989 -0.0126,-0.31353 -0.10385,-0.80817 -0.20286,-1.09921 -0.099,-0.29105 0.19267,0.22132 0.64816,1.13858 0.45548,0.91727 0.766,1.72991 0.69003,1.80588 -0.076,0.076 -0.22154,-0.12471 -0.3235,-0.44594 z m -1.42575,-0.82164 c -0.16041,-0.46016 -0.23159,-0.89672 -0.15817,-0.97013 0.0734,-0.0734 0.13348,0.0124 0.13348,0.1908 0,0.17837 0.0893,0.26945 0.19844,0.2024 0.10914,-0.067 0.21112,0.22359 0.22661,0.64585 0.0359,0.97929 -0.0395,0.96631 -0.40036,-0.0689 z m 6.46025,0.0457 c -0.78518,-0.81956 -1.28494,-0.89083 -0.63566,-0.0907 0.24079,0.29675 0.25435,0.38553 0.0391,0.25624 -0.18112,-0.1088 -0.4475,-0.41866 -0.59196,-0.68858 -0.22726,-0.42464 -0.17106,-0.48071 0.41717,-0.41614 0.64515,0.0708 0.62136,0.0134 -0.46638,-1.12659 l -1.1462,-1.20121 1.23333,0.98329 c 1.05927,0.84453 2.04368,2.09128 1.27719,1.61756 -0.46439,-0.28701 -0.27799,0.21485 0.31373,0.84471 0.31641,0.3368 0.51728,0.61237 0.44638,0.61237 -0.0709,0 -0.46993,-0.35595 -0.88673,-0.79099 z m 1.15423,0.32797 c -0.32911,-0.41965 -0.31975,-0.42901 0.0999,-0.0999 0.25466,0.19972 0.46302,0.40808 0.46302,0.46302 0,0.21776 -0.21728,0.0776 -0.56292,-0.36312 z m 6.5539,-0.50674 c -0.41574,-0.48808 -0.59434,-0.82169 -0.39687,-0.74134 0.37982,0.15455 1.40165,1.43151 1.24491,1.55574 -0.0507,0.0402 -0.4323,-0.32631 -0.84804,-0.8144 z m -16.81801,0.28625 c 0.0127,-0.30823 0.0754,-0.37092 0.15985,-0.15985 0.0764,0.19099 0.067,0.4192 -0.0209,0.50712 -0.0879,0.0879 -0.15045,-0.0684 -0.13896,-0.34727 z m -26.39665,-0.81194 0.0588,-1.09856 -1.32744,-0.2035 c -0.74348,-0.11397 -1.08357,-0.2475 -0.77309,-0.30353 0.30489,-0.055 1.01366,-0.57041 1.57505,-1.14533 1.22843,-1.25802 1.04614,-1.37807 -0.29908,-0.19695 -0.53142,0.4666 -1.2193,0.88698 -1.52863,0.93418 -0.43892,0.067 -0.27454,-0.20644 0.74863,-1.24522 0.72107,-0.73209 1.36864,-1.33106 1.43904,-1.33106 0.0704,0 -0.25255,0.39262 -0.71766,0.87249 -1.10634,1.14145 -1.09512,1.57813 0.0142,0.55467 0.47294,-0.43632 1.09802,-0.96569 1.38906,-1.17638 0.48877,-0.35382 0.50145,-0.34772 0.16604,0.0799 -0.51113,0.65175 -0.0657,0.57607 0.74295,-0.12624 0.37318,-0.32409 -0.0321,0.15216 -0.9007,1.05834 -1.25775,1.31219 -1.47002,1.64759 -1.04276,1.64759 0.29505,0 0.76758,-0.18516 1.05005,-0.41147 0.48672,-0.38995 0.47898,-0.39626 -0.14787,-0.12072 -0.8242,0.36229 4.04322,-4.30884 5.23669,-5.0255 0.47908,-0.28768 -0.22273,0.51769 -1.55958,1.78971 -2.69956,2.56865 -3.59854,3.80852 -3.94747,5.44437 l -0.23499,1.10173 z m 41.99148,0.31122 c -0.20869,-0.25146 -0.22876,-0.40327 -0.0533,-0.40327 0.31976,0 0.69257,0.50196 0.50908,0.68545 -0.0666,0.0666 -0.27169,-0.0604 -0.45577,-0.28218 z m -29.10947,-0.91682 c 0,-0.13694 0.1177,-0.32172 0.26155,-0.41062 0.14998,-0.0927 0.19434,0.0135 0.10399,0.24897 -0.1759,0.45837 -0.36554,0.54223 -0.36554,0.16165 z m 9.89681,-0.44742 c -0.10072,-0.41735 -0.3744,-0.94768 -0.60819,-1.17851 -0.38052,-0.37569 -0.45636,-0.37725 -0.72354,-0.0149 -0.24935,0.33812 -0.3289,0.26617 -0.48338,-0.43717 -0.23935,-1.08977 -0.71872,-1.4055 -0.50402,-0.33196 0.21814,1.0907 -0.46075,1.0902 -1.2377,-8e-4 -0.55771,-0.78323 -0.56517,-0.88996 -0.245,-3.50573 0.31248,-2.553 0.78378,-3.88866 1.37209,-3.88866 0.14435,0 0.19054,0.18744 0.10262,0.41653 -0.16993,0.44284 0.28118,1.02116 0.83083,1.06513 0.1819,0.0146 0.56736,0.0443 0.85658,0.0661 0.30575,0.0231 0.82318,0.51035 1.23622,1.16417 0.92079,1.45757 3.07579,6.09707 2.73386,5.88575 -0.14443,-0.0893 -0.26442,-0.006 -0.26665,0.18405 -0.003,0.25141 -0.0738,0.23756 -0.25854,-0.0505 -0.13997,-0.21828 -0.1842,-0.62244 -0.0983,-0.89812 0.14269,-0.45785 0.10375,-0.45236 -0.44981,0.0633 -0.33331,0.31053 -0.52538,0.64523 -0.42683,0.74378 0.0985,0.0985 0.1828,0.0105 0.18723,-0.19564 0.006,-0.25934 0.0946,-0.22605 0.28883,0.10803 0.15444,0.26558 0.21035,0.55331 0.12425,0.63941 -0.0861,0.0861 -0.15837,-0.0121 -0.1606,-0.21828 -0.003,-0.31646 -0.0401,-0.31788 -0.23566,-0.009 -0.18123,0.28616 -0.27155,0.23984 -0.41527,-0.213 -0.10102,-0.31828 -0.3224,-0.52814 -0.49195,-0.46636 -0.16955,0.0618 -0.51663,-0.0692 -0.7713,-0.29102 -0.53065,-0.46228 -0.56726,-0.28446 -0.20296,0.98579 0.14303,0.49873 0.20836,0.95848 0.14517,1.02167 -0.0632,0.0632 -0.19729,-0.22659 -0.298,-0.64394 z m 0.60268,-3.32198 c -0.0845,-0.21106 -0.14716,-0.14837 -0.15985,0.15986 -0.0115,0.27891 0.051,0.43518 0.13896,0.34726 0.0879,-0.0879 0.0973,-0.31612 0.0209,-0.50712 z m 0.64584,-0.0209 c -0.26131,-0.25936 -0.2917,-0.22897 -0.14811,0.14811 0.0994,0.26094 0.2473,0.40778 0.32876,0.32632 0.0815,-0.0815 1.7e-4,-0.29495 -0.18065,-0.47443 z m 20.35833,2.82507 c -0.6448,-0.64185 -1.07378,-1.16701 -0.95329,-1.16701 0.33299,0 2.52255,1.85263 2.52255,2.13438 0,0.4493 -0.38371,0.21276 -1.56926,-0.96736 z m -10.77797,0.51288 c 0,-0.26048 0.0892,-0.27458 0.35278,-0.0558 0.19403,0.16103 0.35278,0.31789 0.35278,0.34858 0,0.0307 -0.15875,0.0558 -0.35278,0.0558 -0.19403,0 -0.35278,-0.15686 -0.35278,-0.34858 z m -29.58923,-0.35697 c 0.26339,-0.29104 0.53842,-0.52917 0.61118,-0.52917 0.0728,0 -0.0832,0.23813 -0.3466,0.52917 -0.26339,0.29104 -0.53842,0.52917 -0.61118,0.52917 -0.0728,0 0.0832,-0.23813 0.3466,-0.52917 z m 2.51354,0.16469 c 0,-0.0549 0.20836,-0.2633 0.46302,-0.46302 0.41964,-0.32911 0.429,-0.31975 0.0999,0.0999 -0.34565,0.44073 -0.56292,0.58089 -0.56292,0.36313 z m 3.43958,-0.26459 c 0,-0.0549 0.20836,-0.2633 0.46302,-0.46302 0.41965,-0.3291 0.42901,-0.31975 0.0999,0.0999 -0.34564,0.44073 -0.56292,0.58089 -0.56292,0.36312 z m -4.49791,-0.21265 c 0,-0.0846 0.44648,-0.48759 0.99218,-0.89556 0.8204,-0.61331 0.90057,-0.63685 0.46302,-0.13591 -0.29104,0.3332 -0.48947,0.66278 -0.44097,0.73239 0.0485,0.0696 -3.4e-4,0.20594 -0.10856,0.30295 -0.10822,0.097 -0.11112,0.0276 -0.006,-0.15434 0.24266,-0.42166 -0.16405,-0.43091 -0.58173,-0.0132 -0.17463,0.17463 -0.3175,0.24829 -0.3175,0.1637 z m 7.40833,-0.201 c 0,-0.13693 0.1177,-0.32171 0.26155,-0.41062 0.14998,-0.0927 0.19434,0.0135 0.10399,0.24897 -0.1759,0.45837 -0.36554,0.54223 -0.36554,0.16165 z m 27.38625,-0.0126 c -0.0927,-0.14999 0.0135,-0.19434 0.24897,-0.10399 0.45837,0.17589 0.54223,0.36554 0.16165,0.36554 -0.13694,0 -0.32172,-0.1177 -0.41062,-0.26155 z m 5.93122,-0.46605 -0.64143,-0.7276 0.72761,0.64143 c 0.68005,0.59952 0.84894,0.81378 0.64143,0.81378 -0.0474,0 -0.37482,-0.32742 -0.72761,-0.72761 z m 1.22767,0.38547 c 0.0993,-0.26094 0.2473,-0.40778 0.32876,-0.32632 0.0815,0.0815 1.7e-4,0.29495 -0.18065,0.47443 -0.26131,0.25936 -0.2917,0.22897 -0.14811,-0.14811 z m -41.68889,-0.84849 c 0.34177,-0.3638 0.68094,-0.66146 0.7537,-0.66146 0.0728,0 -0.14734,0.29766 -0.48912,0.66146 -0.34177,0.3638 -0.68094,0.66146 -0.7537,0.66146 -0.0728,0 0.14735,-0.29766 0.48912,-0.66146 z m 2.21256,-0.29607 c 0.41654,-0.46686 0.68574,-0.96469 0.59822,-1.1063 -0.0875,-0.1416 0.008,-0.3958 0.21129,-0.56487 0.25286,-0.20986 0.42468,-0.21959 0.54144,-0.0307 0.0941,0.15221 -0.34181,0.78838 -0.96863,1.4137 -0.62682,0.62533 -0.79887,0.75499 -0.38232,0.28813 z m -10.78638,0.13463 c 0.27722,-0.30707 0.98028,-0.92305 1.56236,-1.36883 1.01641,-0.77842 1.00633,-0.7563 -0.25464,0.55831 -1.24117,1.29399 -2.38314,2.00177 -1.30772,0.81052 z m 44.13269,0.18496 c -0.0881,-0.22954 -0.28514,-0.34011 -0.43789,-0.2457 -0.16761,0.10359 -0.19855,0.0435 -0.078,-0.15151 0.12238,-0.19801 0.0614,-0.30417 -0.15755,-0.27411 -0.70047,0.0962 -1.04741,-0.0178 -0.8798,-0.289 0.0936,-0.15144 0.42804,-0.20601 0.74322,-0.12126 0.498,0.13391 0.48642,0.1019 -0.0884,-0.24444 -0.96193,-0.57957 -0.41713,-0.50587 0.78177,0.10577 0.66833,0.34096 1.00204,0.68139 0.95853,0.97784 -0.089,0.60677 -0.64104,0.76571 -0.84185,0.24241 z m 0.42446,-0.68498 c -0.21828,-0.14106 -0.51593,-0.25648 -0.66146,-0.25648 -0.14552,0 -0.086,0.11542 0.1323,0.25648 0.21828,0.14107 0.51593,0.25648 0.66146,0.25648 0.14552,0 0.086,-0.11541 -0.1323,-0.25648 z m -46.80108,0.11055 c -0.30763,-0.39109 -0.55933,-0.98294 -0.55933,-1.31521 0,-0.33228 -0.0723,-0.79247 -0.1606,-1.02265 -0.0883,-0.23019 -0.0421,-0.41852 0.10284,-0.41852 0.1449,0 0.34504,0.44648 0.44476,0.99219 0.0997,0.5457 0.36061,1.27041 0.57975,1.61045 0.56917,0.8832 0.25856,1.0004 -0.40742,0.15374 z m 1.29275,0.55691 c 0,-0.10929 0.47919,-0.61874 1.06486,-1.13211 1.38462,-1.21371 1.14498,-1.44331 -0.32505,-0.31144 l -1.13668,0.87521 0.7771,-0.84331 c 0.42741,-0.46382 0.64279,-0.84331 0.47864,-0.84331 -0.16416,0 -0.37166,0.11843 -0.46112,0.26316 -0.0894,0.14474 -0.4239,0.39744 -0.74321,0.56156 -0.31932,0.16411 -0.46152,0.18509 -0.316,0.0466 0.45829,-0.4361 2.62818,-2.10222 3.04271,-2.3363 0.3421,-0.19318 0.34675,-0.16233 0.0337,0.22355 -0.41985,0.5176 -0.23916,0.5674 0.57896,0.15958 0.41044,-0.2046 0.34789,-0.0834 -0.21584,0.41809 -0.57504,0.5116 -0.65016,0.66003 -0.27264,0.53869 0.2866,-0.0921 0.4652,-0.12331 0.39687,-0.0693 -0.0683,0.054 -0.7493,0.67191 -1.51329,1.37311 -0.76398,0.7012 -1.38906,1.18549 -1.38906,1.0762 z m 1.85208,-2.65183 c 0.18374,-0.22139 0.21239,-0.39688 0.0648,-0.39688 -0.14552,0 -0.41281,0.1786 -0.59396,0.39688 -0.18374,0.22139 -0.21239,0.39687 -0.0648,0.39687 0.14552,0 0.41281,-0.17859 0.59396,-0.39687 z m 49.53136,2.23754 c -0.17741,-0.28408 -0.41103,-0.48703 -0.51915,-0.45098 -0.10812,0.036 -0.23647,-0.0535 -0.28523,-0.19906 -0.18583,-0.55466 -0.62594,-0.88905 -0.98751,-0.7503 -0.20681,0.0794 -0.31613,0.24118 -0.24293,0.35962 0.0732,0.11842 -0.43351,-0.0721 -1.126,-0.4235 -0.69249,-0.35135 -1.52697,-0.63931 -1.85439,-0.63992 -0.32742,-5.3e-4 -0.59531,-0.10529 -0.59531,-0.23262 0,-0.12733 -0.38047,-0.3076 -0.84548,-0.40061 -1.57102,-0.3142 -2.91284,-0.72484 -2.78529,-0.85239 0.0697,-0.0697 0.6892,0.0148 1.37655,0.18787 0.99147,0.24966 1.29234,0.24576 1.45589,-0.0189 0.15371,-0.24871 0.33193,-0.26047 0.70067,-0.0462 0.47528,0.27613 0.47393,0.28828 -0.0346,0.31213 -0.4639,0.0217 -0.45021,0.0564 0.11099,0.2807 0.44685,0.1786 0.7265,0.16182 0.92604,-0.0556 0.2118,-0.23076 0.18959,-0.25653 -0.0857,-0.0995 -0.23494,0.13403 -0.30844,0.10978 -0.19984,-0.0659 0.11267,-0.18231 0.51356,-0.19855 1.16535,-0.0472 0.54648,0.1269 1.81712,0.23357 2.82364,0.23704 2.35672,0.008 2.16849,0.2074 -0.29075,0.3078 -1.11744,0.0456 -1.83264,0.18112 -1.74075,0.32981 0.0901,0.14575 -0.0392,0.17749 -0.30594,0.0751 -0.25406,-0.0975 -0.51874,-0.17725 -0.58819,-0.17725 -0.0694,0 -0.0535,-0.1177 0.0354,-0.26156 0.0955,-0.15449 -0.0211,-0.19143 -0.28476,-0.0902 -0.35369,0.13573 -0.24605,0.27409 0.51828,0.66621 0.75597,0.38784 1.08222,0.43201 1.50801,0.20413 0.44638,-0.2389 0.70237,-0.16949 1.43448,0.38891 0.49012,0.37384 0.96958,0.92688 1.06546,1.22899 0.23544,0.7418 0.0473,0.8677 -0.34887,0.2334 z m -43.18136,-0.0714 c 0,-0.0455 0.38696,-0.43249 0.8599,-0.8599 l 0.8599,-0.7771 -0.77711,0.85989 c -0.72437,0.80155 -0.94269,0.98151 -0.94269,0.77711 z m -0.79375,-0.28169 c 0,-0.0549 0.20836,-0.2633 0.46302,-0.46302 0.41965,-0.32911 0.42901,-0.31975 0.0999,0.0999 -0.34564,0.44073 -0.56292,0.58089 -0.56292,0.36313 z m 8.61597,-0.24225 c 0.0994,-0.26093 0.24731,-0.40778 0.32877,-0.32632 0.0815,0.0815 1.7e-4,0.29496 -0.18066,0.47444 -0.2613,0.25936 -0.29169,0.22897 -0.14811,-0.14812 z m 25.65806,-0.0143 c -0.62632,-0.45797 -0.0837,-0.85986 0.58273,-0.4316 0.42219,0.27129 0.41628,0.28477 -0.0641,0.14596 -0.52132,-0.15065 -0.52155,-0.14703 -0.0156,0.24461 0.63746,0.4934 0.16792,0.5317 -0.5031,0.041 z m 8.1475,-0.29333 c 0,-0.21188 0.10116,-0.32271 0.2248,-0.2463 0.12364,0.0764 0.15631,0.24977 0.0726,0.38524 -0.21395,0.34617 -0.29738,0.30719 -0.29738,-0.13894 z m -4.16254,-0.18713 c 0.0752,-0.12177 -0.0131,-0.22139 -0.19629,-0.22139 -0.25009,0 -0.25765,-0.0755 -0.0303,-0.30278 0.22731,-0.22732 0.50639,-0.21844 1.11973,0.0356 0.44932,0.18612 0.75435,0.401 0.67784,0.47751 -0.23593,0.23593 -1.71637,0.24634 -1.57095,0.0111 z m 0.89935,-0.22139 c -0.21828,-0.14106 -0.51594,-0.25648 -0.66146,-0.25648 -0.14552,0 -0.086,0.11542 0.13229,0.25648 0.21828,0.14107 0.51594,0.25648 0.66146,0.25648 0.14552,0 0.086,-0.11541 -0.13229,-0.25648 z m -37.57084,-0.39687 c 0.34178,-0.36381 0.68094,-0.66146 0.7537,-0.66146 0.0728,0 -0.14734,0.29765 -0.48911,0.66146 -0.34178,0.3638 -0.68094,0.66145 -0.7537,0.66145 -0.0728,0 0.14734,-0.29765 0.48911,-0.66145 z m -9.54502,-0.21303 c 0.35529,-0.39494 0.49586,-0.71302 0.31511,-0.71302 -0.17947,0 -0.24488,-0.13177 -0.14534,-0.29283 0.12936,-0.20931 0.23752,-0.20135 0.37921,0.0279 0.14926,0.2415 0.3862,0.20381 0.95911,-0.15258 0.98679,-0.61384 0.5467,-0.17731 -0.9589,0.95114 -1.03418,0.77513 -1.10634,0.7987 -0.54919,0.17938 z m 8.46319,0.26175 c 0.40765,-0.51348 1.87558,-1.61849 1.87558,-1.41189 0,0.0704 -0.50601,0.52275 -1.12448,1.00513 -0.61846,0.48238 -0.95646,0.66543 -0.7511,0.40676 z m 30.09364,-0.5426 c -1.14116,-0.55264 -1.21608,-0.63882 -0.67774,-0.7796 0.34867,-0.0912 1.06078,0.0516 1.67986,0.33687 0.73622,0.33922 0.90798,0.50344 0.54545,0.52149 -0.44049,0.0219 -0.46266,0.0693 -0.13229,0.28282 0.75033,0.48491 -0.13377,0.25903 -1.41528,-0.36158 z m 10.67569,0.097 c 0.21828,-0.14106 0.51594,-0.25648 0.66146,-0.25648 0.14552,0 0.086,0.11542 -0.13229,0.25648 -0.21828,0.14107 -0.51594,0.25648 -0.66146,0.25648 -0.14552,0 -0.086,-0.11541 0.13229,-0.25648 z m -49.81237,-1.08451 c 0.32994,-0.41871 2.98112,-1.96281 2.98112,-1.73626 0,0.0675 -0.39723,0.35704 -0.88274,0.6435 -0.4855,0.28645 -1.22964,0.74264 -1.65364,1.01375 -0.57803,0.3696 -0.6893,0.38937 -0.44474,0.079 z m 40.48581,-0.2596 c -0.71483,-0.41635 -0.54908,-0.80042 0.19844,-0.45983 0.3638,0.16576 0.66146,0.40133 0.66146,0.52349 0,0.29076 -0.288,0.26944 -0.8599,-0.0637 z m 10.58642,0.0986 c 0.32912,-0.0633 0.80537,-0.0609 1.05833,0.005 0.25297,0.0662 -0.0163,0.11801 -0.5984,0.11507 -0.58208,-0.003 -0.78905,-0.0571 -0.45993,-0.12041 z m -51.63627,-0.38527 c 0.0752,-0.12174 -0.0645,-0.22135 -0.3106,-0.22135 -0.85678,0 -2.19024,-1.06324 -2.49622,-1.99038 -0.16512,-0.50033 -0.23026,-1.0229 -0.14475,-1.16126 0.0855,-0.13836 -0.14245,-0.69058 -0.50657,-1.22715 -1.28229,-1.88956 -1.55073,-4.17338 -0.64075,-5.45133 0.679,-0.95356 0.99028,-0.814 0.35317,0.15834 -0.96352,1.47052 0.0558,5.458 1.44667,5.65913 0.35471,0.0513 0.54327,-0.0216 0.44926,-0.17376 -0.0964,-0.15594 0.0793,-0.20926 0.43365,-0.13159 0.39933,0.0875 0.48587,0.052 0.26254,-0.10792 -0.22858,-0.16365 0.23701,-0.42541 1.48354,-0.83407 1.4477,-0.47462 1.99899,-0.54316 2.71438,-0.33749 0.49375,0.14195 0.67867,0.26882 0.41095,0.28195 -0.64167,0.0315 -5.24056,1.61015 -5.66479,1.94459 -0.98659,0.77777 0.45808,2.84177 1.98905,2.84177 0.4596,0 1.45083,-0.24249 2.20274,-0.53886 0.75191,-0.29638 1.40286,-0.50312 1.44655,-0.45943 0.0437,0.0437 -0.7407,0.50486 -1.74309,1.02481 -1.00239,0.51995 -1.76097,0.84575 -1.68573,0.724 z m 2.41517,-5.67287 c -0.0879,-0.0879 -0.31612,-0.0973 -0.50712,-0.0209 -0.21106,0.0845 -0.14837,0.14716 0.15986,0.15985 0.27891,0.0115 0.43518,-0.051 0.34726,-0.13896 z m 0.33624,5.60243 c 0,-0.0728 0.23813,-0.25974 0.52917,-0.4155 0.29104,-0.15576 0.52917,-0.22367 0.52917,-0.15091 0,0.0728 -0.23813,0.25974 -0.52917,0.4155 -0.29104,0.15576 -0.52917,0.22367 -0.52917,0.15091 z m 41.93646,-0.15091 -0.79375,-0.20198 0.79375,-0.0127 c 0.43656,-0.007 1.03188,0.0896 1.32292,0.21468 l 0.52916,0.2274 -0.52916,-0.0127 c -0.29104,-0.007 -0.88636,-0.1036 -1.32292,-0.21469 z m -39.62576,-0.562 c 0.17947,-0.18082 0.39297,-0.26212 0.47443,-0.18065 0.0815,0.0815 -0.0654,0.2294 -0.32632,0.32876 -0.37708,0.14359 -0.40747,0.1132 -0.14811,-0.14811 z m 48.96886,0.11667 c 0.191,-0.0764 0.4192,-0.067 0.50712,0.0209 0.0879,0.0879 -0.0683,0.15045 -0.34727,0.13896 -0.30822,-0.0127 -0.37092,-0.0754 -0.15985,-0.15985 z m -12.71654,-0.53081 c -0.25466,-0.0665 -0.46302,-0.23133 -0.46302,-0.36618 0,-0.35522 0.3537,-0.3014 0.94162,0.14328 0.51466,0.38926 0.38646,0.44897 -0.4786,0.2229 z m 11.31094,-0.0822 c 0.29104,-0.12506 0.76729,-0.23393 1.05833,-0.24193 0.43676,-0.012 0.45986,0.0302 0.1323,0.24193 -0.21828,0.14107 -0.69453,0.24994 -1.05834,0.24194 -0.60578,-0.0133 -0.61692,-0.0337 -0.13229,-0.24194 z m -48.55104,-0.79375 c 0.21828,-0.14106 0.51594,-0.25648 0.66146,-0.25648 0.14552,0 0.086,0.11542 -0.13229,0.25648 -0.21828,0.14107 -0.51594,0.25648 -0.66146,0.25648 -0.14552,0 -0.086,-0.11541 0.13229,-0.25648 z m 49.54158,0.07 c -0.18281,-0.0634 -0.25489,-0.24058 -0.16019,-0.39381 0.11538,-0.18669 -0.16778,-0.22493 -0.85825,-0.11593 -0.77837,0.12288 -0.90099,0.0988 -0.50127,-0.0985 0.40393,-0.19936 0.27869,-0.22687 -0.52916,-0.11623 -0.73022,0.10001 -0.93957,0.0655 -0.67526,-0.11127 0.40961,-0.27397 -0.008,-0.43154 -1.70599,-0.64341 -0.62688,-0.0782 -0.56619,-0.10739 0.28868,-0.13869 0.59533,-0.0218 1.6669,0.13766 2.38125,0.35437 1.55274,0.47103 1.50322,0.46588 1.29882,0.13515 -0.21438,-0.34686 0.37751,-0.33604 1.41573,0.0259 0.54075,0.1885 0.83323,0.46712 0.83323,0.79375 0,0.2768 -0.11907,0.50328 -0.26459,0.50328 -0.14552,0 -0.26458,-0.11906 -0.26458,-0.26458 0,-0.32144 -0.71409,-0.35527 -0.83785,-0.0397 -0.0485,0.12369 -0.23776,0.17305 -0.42057,0.10969 z m -47.42491,-0.59917 c -0.23847,-0.15411 -0.2711,-0.2581 -0.0818,-0.26054 0.17331,-0.002 0.38869,0.11502 0.47863,0.26054 0.20302,0.32849 0.11142,0.32849 -0.39687,0 z m 43.06093,0.0893 c 0.18191,-0.0734 0.47956,-0.0734 0.66146,0 0.1819,0.0734 0.0331,0.13346 -0.33073,0.13346 -0.3638,0 -0.51263,-0.0601 -0.33073,-0.13346 z m -42.31679,-0.53468 c 0.19099,-0.0764 0.4192,-0.067 0.50712,0.0209 0.0879,0.0879 -0.0684,0.15045 -0.34727,0.13896 -0.30822,-0.0127 -0.37092,-0.0754 -0.15985,-0.15985 z m 19.89336,-0.008 c 0,-0.23067 1.05778,-0.96099 1.19047,-0.82194 0.0443,0.0465 -0.20538,0.2984 -0.55493,0.55985 -0.34955,0.26146 -0.63554,0.3794 -0.63554,0.26209 z m 22.15885,0.0134 c 0.1819,-0.0734 0.47956,-0.0734 0.66146,0 0.1819,0.0734 0.0331,0.13345 -0.33073,0.13345 -0.3638,0 -0.51263,-0.06 -0.33073,-0.13345 z m -40.5474,-0.33639 c 0.29105,-0.11742 0.94589,-0.28742 1.45521,-0.37779 l 0.92604,-0.16429 -0.92604,0.37442 c -0.50932,0.20594 -1.16416,0.37594 -1.45521,0.37779 l -0.52916,0.003 0.52916,-0.21349 z m -2.82773,-0.46288 c 0.191,-0.0764 0.4192,-0.067 0.50712,0.0209 0.0879,0.0879 -0.0684,0.15045 -0.34727,0.13897 -0.30822,-0.0127 -0.37092,-0.0754 -0.15985,-0.15986 z m 46.08711,-0.0838 c -0.64577,-0.20681 -0.64264,-0.2121 0.13229,-0.22296 0.43656,-0.006 1.27,0.0874 1.85208,0.20778 l 1.05834,0.21891 -1.19063,0.004 c -0.65484,0.002 -1.48828,-0.0913 -1.85208,-0.20778 z m -45.96632,-0.44794 c 0.25743,-0.0671 0.61462,-0.0627 0.79375,0.01 0.17913,0.0725 -0.0315,0.12736 -0.46806,0.12197 -0.43656,-0.005 -0.58312,-0.0647 -0.32569,-0.13178 z m 19.77257,-0.42254 c -0.3638,-0.16803 -0.73291,-0.40601 -0.82024,-0.52885 -0.13875,-0.19518 -0.68659,-0.3671 -1.37819,-0.43251 -0.11773,-0.0111 -0.14573,-0.13079 -0.0622,-0.26591 0.0835,-0.13512 -0.10483,-0.28395 -0.41853,-0.33073 -0.42522,-0.0634 -0.59398,-0.30388 -0.66316,-0.94496 -0.0522,-0.48336 0.0289,-0.85989 0.18518,-0.85989 0.15289,0 0.20439,-0.11907 0.11445,-0.26459 -0.0899,-0.14552 0.0221,-0.26458 0.24897,-0.26458 0.22687,0 0.41249,-0.13891 0.41249,-0.30868 0,-0.16977 0.0765,-0.23218 0.16999,-0.13869 0.0935,0.0935 0.0315,0.33693 -0.13786,0.54095 -0.24484,0.29501 -0.19617,0.40016 0.23775,0.51363 0.43636,0.11412 0.51479,0.0456 0.39169,-0.34229 -0.0847,-0.26673 -0.03,-0.56155 0.12142,-0.65514 0.15668,-0.0968 0.27534,0.0646 0.27534,0.37461 0,0.52914 0.27753,0.70823 0.59913,0.38662 0.36094,-0.36094 -0.19219,-0.91269 -1.1822,-1.17928 -0.58182,-0.15666 -1.1252,-0.21749 -1.20752,-0.13516 -0.0823,0.0823 0.013,0.14968 0.21191,0.14968 0.28798,0 0.29472,0.0669 0.0331,0.32852 -0.26163,0.26163 -0.37931,0.24817 -0.57803,-0.0661 -0.20069,-0.31743 -0.25031,-0.28123 -0.25357,0.18504 -0.002,0.31883 -0.12343,0.65348 -0.26935,0.74366 -0.17734,0.1096 -0.17734,0.32831 0,0.65968 0.4333,0.80962 0.28592,0.97326 -0.27267,0.30275 -0.5493,-0.65936 -0.71593,-2.1535 -0.24016,-2.1535 0.15411,0 0.21059,-0.11262 0.12552,-0.25028 -0.0851,-0.13765 0.26827,-0.36706 0.78522,-0.50979 0.70799,-0.19549 1.11769,-0.16678 1.66042,0.11635 0.39628,0.20673 0.94161,0.37661 1.21184,0.37751 0.30987,0.001 0.43933,0.13714 0.35053,0.36856 -0.0986,0.25689 0.0111,0.32721 0.36559,0.2345 0.27852,-0.0728 0.42981,-0.25635 0.3362,-0.40781 -0.0997,-0.16125 -0.0418,-0.19604 0.13958,-0.0839 0.17038,0.1053 0.24654,0.29378 0.16925,0.41884 -0.0773,0.12506 0.12912,0.28519 0.45871,0.35584 0.33262,0.0713 0.189,0.10915 -0.32279,0.0851 -0.71009,-0.0334 -0.94399,0.0702 -1.01762,0.45096 -0.0594,0.30718 0.0142,0.42649 0.19442,0.31512 0.16716,-0.10332 0.29001,0.0126 0.29001,0.27373 0,0.38592 0.0731,0.36865 0.49406,-0.11668 0.27173,-0.3133 0.70416,-0.56965 0.96096,-0.56965 0.68456,0 2.24915,1.03817 2.24915,1.49241 0,0.215 0.11906,0.31732 0.26458,0.22739 0.45669,-0.28225 0.28757,0.18903 -0.19843,0.55298 -0.41743,0.31259 -0.39788,0.33472 0.19843,0.22467 0.36381,-0.0671 0.51263,-0.0513 0.33073,0.0352 -0.1819,0.0865 -0.33073,0.37274 -0.33073,0.63608 0,0.26335 -0.18833,0.55108 -0.41851,0.63941 -0.68461,0.26272 -3.10275,0.14816 -3.81482,-0.18071 z m 2.64583,-0.32014 c 0.18986,-0.22876 0.21557,-0.39688 0.0607,-0.39688 -0.14777,0 -0.33721,0.17859 -0.42097,0.39688 -0.0838,0.21828 -0.11108,0.39687 -0.0607,0.39687 0.0504,0 0.23981,-0.17859 0.42096,-0.39687 z m 1.19063,-0.1323 c 0.0899,-0.14552 0.0374,-0.26458 -0.11668,-0.26458 -0.15411,0 -0.2802,0.11906 -0.2802,0.26458 0,0.14552 0.0525,0.26459 0.11668,0.26459 0.0642,0 0.19026,-0.11907 0.2802,-0.26459 z m -3.44146,-0.26155 c 0.0927,-0.14998 -0.0135,-0.19434 -0.24897,-0.10398 -0.45837,0.17589 -0.54223,0.36553 -0.16165,0.36553 0.13694,0 0.32172,-0.1177 0.41062,-0.26155 z m 0.66333,-0.5322 c 0,-0.14552 -0.12609,-0.26458 -0.2802,-0.26458 -0.1541,0 -0.20661,0.11906 -0.11667,0.26458 0.0899,0.14552 0.21603,0.26459 0.2802,0.26459 0.0642,0 0.11667,-0.11907 0.11667,-0.26459 z m -2.34895,-0.70776 c -0.3119,-0.53636 -0.38722,-0.36469 -0.1319,0.30066 0.0907,0.23646 0.22071,0.37419 0.28883,0.30607 0.0681,-0.0681 -0.002,-0.34115 -0.15693,-0.60673 z m 1.94805,-0.3105 c -0.19988,-0.19988 -0.65743,0.27865 -0.65743,0.68757 0,0.36115 0.0614,0.34784 0.37524,-0.0813 0.20639,-0.28225 0.33337,-0.55505 0.28219,-0.60623 z m 1.08992,0.0316 c -0.26895,-0.26895 -0.49086,0.13597 -0.27019,0.49302 0.16669,0.26972 0.22901,0.26993 0.31863,10e-4 0.0613,-0.18383 0.0395,-0.40617 -0.0484,-0.49409 z m 1.35599,0.56224 c -0.0879,-0.0879 -0.31612,-0.0973 -0.50712,-0.0209 -0.21106,0.0845 -0.14837,0.14716 0.15986,0.15985 0.27891,0.0115 0.43518,-0.051 0.34726,-0.13896 z m -0.94583,-1.49264 c -0.303,-0.303 -0.91196,-0.01 -0.69815,0.3363 0.0798,0.12911 0.32787,0.16461 0.55127,0.0789 0.26529,-0.1018 0.31624,-0.24582 0.14688,-0.41518 z m 20.54705,3.05925 c 0.19099,-0.0764 0.4192,-0.067 0.50712,0.0209 0.0879,0.0879 -0.0684,0.15045 -0.34727,0.13896 -0.30823,-0.0127 -0.37092,-0.0754 -0.15985,-0.15985 z m -43.12709,-0.26458 c 0.191,-0.0764 0.4192,-0.067 0.50712,0.0209 0.0879,0.0879 -0.0684,0.15045 -0.34726,0.13896 -0.30823,-0.0127 -0.37092,-0.0754 -0.15986,-0.15985 z m 48.4053,-0.006 c 0.32912,-0.0633 0.80537,-0.0609 1.05834,0.005 0.25296,0.0662 -0.0163,0.118 -0.5984,0.11506 -0.58208,-0.003 -0.78906,-0.0571 -0.45994,-0.1204 z m -46.8178,-0.2582 c 0.191,-0.0764 0.4192,-0.067 0.50712,0.0209 0.0879,0.0879 -0.0684,0.15045 -0.34726,0.13897 -0.30823,-0.0127 -0.37092,-0.0754 -0.15986,-0.15986 z m 47.83336,-0.50717 c -0.0942,-0.24539 -0.11167,-0.50569 -0.0389,-0.57845 0.0728,-0.0728 0.20933,0.0685 0.3035,0.31386 0.0942,0.24539 0.11167,0.50569 0.0389,0.57845 -0.0728,0.0728 -0.20933,-0.0685 -0.3035,-0.31386 z m -50.95875,-0.1108 c -0.41091,-0.13467 -0.0601,-0.16087 0.92604,-0.0692 0.87313,0.0812 1.63711,0.19062 1.69775,0.24317 0.21343,0.18497 -1.97041,0.0401 -2.62379,-0.17401 z m 3.96875,-0.25962 c -0.2976,-0.19233 -0.16524,-0.25648 0.52917,-0.25648 0.69441,0 0.82677,0.0642 0.52917,0.25648 -0.21828,0.14106 -0.45641,0.25648 -0.52917,0.25648 -0.0728,0 -0.31089,-0.11542 -0.52917,-0.25648 z m 45.19414,-0.18074 c 0.191,-0.0764 0.4192,-0.067 0.50712,0.0209 0.0879,0.0879 -0.0684,0.15045 -0.34726,0.13896 -0.30823,-0.0127 -0.37092,-0.0754 -0.15986,-0.15985 z m -1.32291,-0.52917 c 0.19099,-0.0764 0.4192,-0.067 0.50712,0.0209 0.0879,0.0879 -0.0684,0.15045 -0.34727,0.13897 -0.30823,-0.0127 -0.37092,-0.0754 -0.15985,-0.15986 z m -47.88959,-0.26458 c 0.191,-0.0764 0.4192,-0.067 0.50712,0.0209 0.0879,0.0879 -0.0684,0.15045 -0.34726,0.13896 -0.30823,-0.0127 -0.37092,-0.0754 -0.15986,-0.15985 z m 3.42305,0.006 c 0.1819,-0.0734 0.47956,-0.0734 0.66146,0 0.1819,0.0734 0.0331,0.13345 -0.33073,0.13345 -0.3638,0 -0.51263,-0.06 -0.33073,-0.13345 z m 46.8974,-0.0894 c -0.23847,-0.15411 -0.2711,-0.2581 -0.0818,-0.26053 0.17331,-0.002 0.38869,0.11501 0.47863,0.26053 0.20302,0.32848 0.11142,0.32848 -0.39687,0 z m -8.20209,-0.52519 c 0.94589,-0.29209 2.3487,-0.53154 3.11736,-0.53211 0.76865,-5.6e-4 1.80322,-0.17054 2.29904,-0.3777 0.77982,-0.32583 0.88198,-0.32583 0.75694,0 -0.0831,0.21653 0.0147,0.37666 0.23008,0.37666 0.20603,0 0.57606,0.14883 0.82226,0.33073 0.3763,0.27801 0.18402,0.33643 -1.2062,0.36645 -1.32069,0.0285 -1.44066,0.002 -0.59552,-0.1323 1.11938,-0.17769 0.99754,-0.56961 -0.13229,-0.42556 -0.3638,0.0464 -1.67349,0.20672 -2.91042,0.35629 -1.23692,0.14958 -2.66567,0.33871 -3.175,0.42029 -0.50932,0.0816 -0.15213,-0.0906 0.79375,-0.38275 z m -44.64843,0.0782 c 0.25466,-0.0666 0.67138,-0.0666 0.92604,0 0.25466,0.0666 0.0463,0.121 -0.46302,0.121 -0.50933,0 -0.71769,-0.0545 -0.46302,-0.121 z m 3.31428,-0.0117 c 0.62231,-0.0559 1.57481,-0.0551 2.11667,0.002 0.54185,0.0568 0.0327,0.10258 -1.13148,0.10162 -1.16416,-9.6e-4 -1.6075,-0.0475 -0.98519,-0.10337 z m -3.18199,-0.7749 c 0.1819,-0.0734 0.47955,-0.0734 0.66146,0 0.1819,0.0734 0.0331,0.13345 -0.33073,0.13345 -0.36381,0 -0.51263,-0.0601 -0.33073,-0.13345 z m 2.51857,-0.008 c 0.25744,-0.0671 0.61462,-0.0627 0.79375,0.01 0.17914,0.0725 -0.0315,0.12737 -0.46805,0.12197 -0.43656,-0.005 -0.58313,-0.0647 -0.3257,-0.13177 z m 2.97153,-0.0812 c -0.71298,-0.18142 -0.72644,-0.20248 -0.13229,-0.20691 0.3638,-0.003 0.95911,0.0904 1.32292,0.20691 0.51831,0.16599 0.54694,0.21077 0.13229,0.20691 -0.29104,-0.003 -0.88636,-0.0958 -1.32292,-0.20691 z m -7.0776,-0.45598 c 0.47294,-0.0587 1.24685,-0.0587 1.71979,0 0.47294,0.0587 0.086,0.10671 -0.8599,0.10671 -0.94588,0 -1.33284,-0.048 -0.85989,-0.10671 z m 4.24987,0.0107 c 0.19099,-0.0764 0.4192,-0.067 0.50712,0.0209 0.0879,0.0879 -0.0684,0.15046 -0.34727,0.13897 -0.30822,-0.0127 -0.37092,-0.0754 -0.15985,-0.15985 z m 15.94549,-0.43019 c -0.0127,-0.2917 -0.14018,-0.40491 -0.32635,-0.28985 -0.1969,0.12169 -0.23331,0.072 -0.10243,-0.13973 0.26432,-0.42768 0.78697,0.0627 0.59084,0.55433 -0.093,0.23301 -0.1483,0.1904 -0.16206,-0.12475 z m 19.2937,-0.042 c 0,-0.0638 0.56555,-0.37257 1.25677,-0.68608 5.09658,-2.31165 8.68922,-3.32137 9.79427,-2.75273 1.07518,0.55328 0.96313,0.65014 -0.58245,0.50351 -1.08436,-0.10286 -1.46904,-0.0594 -1.33881,0.15132 0.12835,0.20768 -0.0916,0.24421 -0.73906,0.12274 -0.56885,-0.10672 -0.99104,-0.0609 -1.10266,0.11973 -0.0995,0.16096 -0.31011,0.21279 -0.46806,0.11517 -0.17484,-0.10806 -0.21076,-0.0539 -0.0918,0.13858 0.14135,0.22871 -0.0119,0.2724 -0.55443,0.15808 l -0.74977,-0.15799 0.66146,0.43024 c 0.63637,0.41393 0.43468,0.40675 -0.63872,-0.0228 -0.35545,-0.14222 -0.44946,-0.11047 -0.31536,0.10652 0.12113,0.19598 0.016,0.29395 -0.28732,0.26762 -0.26312,-0.0228 -0.71652,-0.0208 -1.00756,0.004 -0.41595,0.0361 -0.44972,0.0963 -0.15788,0.28104 0.27394,0.17344 0.20458,0.22991 -0.26458,0.2154 -0.34973,-0.0108 -1.26095,0.23703 -2.02494,0.55077 -0.76398,0.31374 -1.38906,0.51822 -1.38906,0.45439 z m -38.29844,-0.33032 c 0.40018,-0.0606 1.05503,-0.0606 1.45521,0 0.40018,0.0606 0.0728,0.11022 -0.7276,0.11022 -0.80037,0 -1.12779,-0.0496 -0.72761,-0.11022 z m 23.61406,-0.33966 c 0.0899,-0.14552 0.21603,-0.26458 0.2802,-0.26458 0.0642,0 0.11668,0.11906 0.11668,0.26458 0,0.14552 -0.12609,0.26458 -0.2802,0.26458 -0.15411,0 -0.20661,-0.11906 -0.11668,-0.26458 z m -21.3651,-0.17523 c 0.1819,-0.0734 0.47956,-0.0734 0.66146,0 0.1819,0.0734 0.0331,0.13345 -0.33073,0.13345 -0.3638,0 -0.51263,-0.0601 -0.33073,-0.13345 z m -1.57096,-0.27009 c 0.19099,-0.0764 0.4192,-0.067 0.50712,0.0209 0.0879,0.0879 -0.0684,0.15045 -0.34727,0.13896 -0.30822,-0.0127 -0.37092,-0.0754 -0.15985,-0.15985 z m 50.39403,-0.14999 c -0.51713,-0.66866 -0.69357,-1.07955 -0.38048,-0.88604 0.31331,0.19363 0.94014,1.21677 0.74547,1.21677 -0.0601,0 -0.22431,-0.14883 -0.36499,-0.33073 z m -48.2939,-0.10908 c 0.1819,-0.0734 0.47955,-0.0734 0.66146,0 0.1819,0.0734 0.0331,0.13345 -0.33073,0.13345 -0.36381,0 -0.51263,-0.0601 -0.33073,-0.13345 z m 45.26028,-0.006 c 0.191,-0.0764 0.4192,-0.067 0.50712,0.0209 0.0879,0.0879 -0.0684,0.15046 -0.34726,0.13897 -0.30823,-0.0127 -0.37092,-0.0754 -0.15986,-0.15986 z m 1.33813,-0.32156 c 0.29267,-0.18541 0.2672,-0.28497 -0.13229,-0.51707 -0.36693,-0.21318 -0.39222,-0.28848 -0.0979,-0.29145 0.50049,-0.005 0.90666,0.28787 0.99218,0.71551 0.0374,0.18704 -0.19249,0.32897 -0.52916,0.32668 -0.4392,-0.003 -0.50026,-0.0643 -0.23284,-0.23367 z m -52.74997,-0.67089 c 0.76748,-0.65388 1.17864,-0.79889 1.95624,-0.68991 0.20281,0.0284 -0.0644,-0.4543 -0.59368,-1.07271 -0.52934,-0.61841 -0.8939,-1.19292 -0.81014,-1.27668 0.0838,-0.0838 0.32682,0.0856 0.54013,0.37645 0.2133,0.29081 0.60974,0.49329 0.88097,0.44995 0.62901,-0.10052 0.98748,0.4552 0.50777,0.78717 -0.25794,0.17851 -0.18923,0.20296 0.23484,0.0836 0.68591,-0.19311 2.44324,0.30995 2.44324,0.6994 0,0.14283 0.10531,0.1946 0.23403,0.11505 0.12871,-0.0795 0.69426,0.0347 1.25677,0.25394 l 1.02274,0.39858 -0.92604,-0.14732 c -2.89734,-0.46094 -4.90501,-0.45267 -5.95312,0.0245 -1.60002,0.72844 -1.65096,0.72832 -0.79375,-0.002 z m 2.44188,-1.89708 c -0.0879,-0.0879 -0.31612,-0.0973 -0.50712,-0.0209 -0.21107,0.0845 -0.14837,0.14715 0.15985,0.15985 0.27892,0.0115 0.43519,-0.051 0.34727,-0.13897 z m 40.66962,2.15704 c 0.28248,-0.22533 0.61693,-0.40968 0.74322,-0.40968 0.1263,0 0.15317,-0.12371 0.0597,-0.2749 -0.0977,-0.15806 0.51044,-0.56845 1.43079,-0.96556 0.88037,-0.37987 1.54836,-0.77532 1.48441,-0.8788 -0.11469,-0.18557 1.28997,-0.86842 2.44899,-1.19054 0.69712,-0.19374 1.72317,0.0728 1.52355,0.39583 -0.0758,0.12262 0.0118,0.28875 0.19459,0.36919 0.18281,0.0804 -0.13131,0.0741 -0.69805,-0.014 -0.6853,-0.1066 -0.9732,-0.0677 -0.85953,0.11625 0.10778,0.17441 -0.0399,0.2214 -0.4,0.12724 -0.38832,-0.10155 -0.51097,-0.0523 -0.3835,0.15393 0.11985,0.19393 0.0452,0.24866 -0.20714,0.15183 -0.217,-0.0833 -0.61014,-0.0167 -0.87364,0.14796 -0.41787,0.2611 -0.39457,0.28117 0.18237,0.15705 0.57008,-0.12264 0.55181,-0.0898 -0.1323,0.23777 -0.43656,0.20904 -1.01701,0.31417 -1.2899,0.23362 -0.29232,-0.0863 -0.42936,-0.0384 -0.33358,0.1166 0.0894,0.14468 0.015,0.25774 -0.1653,0.25124 -0.84904,-0.0306 -1.27096,0.0945 -1.1235,0.33311 0.096,0.15536 -0.0227,0.19082 -0.29238,0.0873 -0.30014,-0.11518 -0.39154,-0.0731 -0.26967,0.12405 0.11025,0.17839 -0.16477,0.46748 -0.6842,0.71923 -0.75625,0.36653 -0.80214,0.36798 -0.35496,0.0113 z m 6.95538,-3.47995 c -0.0879,-0.0879 -0.31612,-0.0973 -0.50712,-0.0209 -0.21107,0.0845 -0.14837,0.14716 0.15985,0.15985 0.27892,0.0115 0.43519,-0.051 0.34727,-0.13896 z m -0.85439,3.59943 c 0.72737,-0.31255 1.14511,-0.31255 0.66146,0 -0.21828,0.14107 -0.57547,0.24994 -0.79375,0.24194 -0.26169,-0.01 -0.21662,-0.092 0.13229,-0.24194 z m 1.45521,0 c -0.21828,-0.14106 -0.27781,-0.25648 -0.13229,-0.25648 0.14552,0 0.44318,0.11542 0.66146,0.25648 0.21828,0.14107 0.27781,0.25648 0.13229,0.25648 -0.14552,0 -0.44318,-0.11541 -0.66146,-0.25648 z m -44.18541,-1.05833 c -0.21828,-0.14106 -0.27782,-0.25648 -0.13229,-0.25648 0.14552,0 0.44317,0.11542 0.66145,0.25648 0.21828,0.14106 0.27782,0.25648 0.13229,0.25648 -0.14552,0 -0.44317,-0.11542 -0.66145,-0.25648 z m 36.09114,-0.68009 c 0.0293,-0.19961 0.15517,-0.45567 0.27973,-0.56902 0.12456,-0.11336 0.13127,-0.0418 0.0149,0.15896 -0.14555,0.25117 -0.0969,0.32339 0.15602,0.23151 0.20215,-0.0735 0.33922,-0.26321 0.30459,-0.42168 -0.0364,-0.16635 0.12178,-0.21724 0.37413,-0.1204 0.24815,0.0952 0.36955,0.0584 0.28083,-0.0851 -0.0859,-0.13907 0.0811,-0.25285 0.37125,-0.25285 0.49467,0 0.49855,0.0212 0.0623,0.34018 -0.25587,0.1871 -0.35912,0.34018 -0.22944,0.34018 0.51082,0 -0.40206,0.60224 -1.01484,0.66951 -0.43033,0.0472 -0.63461,-0.052 -0.59949,-0.29127 z m 1.3544,-0.32714 c -0.0815,-0.0815 -0.29496,-1.7e-4 -0.47443,0.18065 -0.25936,0.26131 -0.22897,0.2917 0.14811,0.14811 0.26094,-0.0994 0.40778,-0.2473 0.32632,-0.32876 z m -34.39414,-1.07998 c -2.01922,-0.95839 -2.52181,-1.29592 -2.14494,-1.44054 0.2707,-0.10388 0.55453,-0.12654 0.63071,-0.0504 0.0762,0.0762 -0.0301,0.14034 -0.23631,0.14257 -0.30862,0.003 -0.30473,0.0494 0.0221,0.26053 0.53838,0.34793 0.86565,0.33038 0.64025,-0.0343 -0.11314,-0.18307 -0.0423,-0.24716 0.18282,-0.16537 0.20216,0.0735 0.3348,0.27646 0.29477,0.45114 -0.0484,0.21133 0.12862,0.26086 0.52916,0.14803 0.38494,-0.10843 0.48097,-0.085 0.26635,0.0648 -0.23688,0.16544 0.0601,0.41975 1.00955,0.86444 0.73984,0.34652 1.40391,0.72509 1.47571,0.84127 0.17187,0.27809 0.3368,0.34494 -2.67012,-1.08224 z m -5.74685,0.58355 c 0.191,-0.0764 0.4192,-0.067 0.50712,0.0209 0.0879,0.0879 -0.0684,0.15045 -0.34726,0.13897 -0.30823,-0.0127 -0.37092,-0.0754 -0.15986,-0.15986 z m 48.25949,-0.2262 c -0.28187,-0.31959 -0.27037,-0.38681 0.0662,-0.38681 0.22402,0 0.40731,0.1786 0.40731,0.39688 0,0.48251 -0.0398,0.48167 -0.47346,-0.0101 z m -6.95512,-0.71754 c -0.19178,-0.62664 -0.10653,-0.87879 0.29714,-0.87879 0.2629,0 0.40768,0.11378 0.32173,0.25285 -0.0915,0.14801 0.0537,0.17908 0.35016,0.075 0.49097,-0.17248 0.49076,-0.16578 -0.007,0.21962 -0.46057,0.35648 -0.9071,0.51032 -0.96186,0.33137 z m 1.53719,-0.23126 c 0.17947,-0.18083 0.39297,-0.26212 0.47443,-0.18066 0.0815,0.0815 -0.0654,0.22941 -0.32632,0.32877 -0.37708,0.14358 -0.40747,0.11319 -0.14811,-0.14811 z m -45.96695,-0.74531 c 0,-0.13693 0.1177,-0.32171 0.26156,-0.41062 0.14998,-0.0927 0.19433,0.0135 0.10398,0.24897 -0.17589,0.45837 -0.36554,0.54224 -0.36554,0.16165 z m 4.7625,-0.54478 c -0.21828,-0.14106 -0.27781,-0.25648 -0.13229,-0.25648 0.14552,0 0.44318,0.11542 0.66146,0.25648 0.21828,0.14106 0.27781,0.25648 0.13229,0.25648 -0.14552,0 -0.44318,-0.11542 -0.66146,-0.25648 z m 7.67292,-0.55325 c -0.50932,-0.44197 -0.68658,-0.68792 -0.39391,-0.54655 0.48271,0.23317 1.68249,1.37423 1.4271,1.35727 -0.0589,-0.004 -0.52387,-0.36874 -1.03319,-0.81072 z m -11.50937,0.0241 c 0.0899,-0.14552 0.21602,-0.26458 0.28019,-0.26458 0.0642,0 0.11668,0.11906 0.11668,0.26458 0,0.14552 -0.12609,0.26459 -0.2802,0.26459 -0.15411,0 -0.20661,-0.11907 -0.11667,-0.26459 z m 1.71979,-0.11118 c -0.85306,-0.30906 -0.92344,-0.41696 -0.89305,-1.36893 0.0614,-1.92288 0.69171,-2.89222 2.73039,-4.19898 2.02311,-1.29678 2.61462,-1.41337 4.07497,-0.8032 1.23752,0.51707 1.26163,0.51074 0.97062,-0.25468 -0.15825,-0.41623 -0.15015,-0.93147 0.0224,-1.42654 0.57914,-1.66131 4.81061,-2.49316 6.92303,-1.36097 0.54355,0.29132 0.98827,0.41952 0.98827,0.28488 0,-0.13464 0.30824,-0.61112 0.68498,-1.05885 0.56336,-0.66951 0.88046,-0.8138 1.78594,-0.81265 0.60553,7.6e-4 1.45815,0.21914 1.89471,0.48529 l 0.79375,0.4839 0.45913,-0.74988 c 0.46429,-0.75829 1.57939,-1.03983 1.92212,-0.48529 0.0952,0.15411 -0.17054,0.26458 -0.63654,0.26458 -0.94845,0 -1.33727,0.57631 -1.3717,2.03313 l -0.0239,1.00958 -0.23672,-0.81527 c -0.35184,-1.21171 -1.12237,-1.77588 -2.46553,-1.80518 -1.17071,-0.0256 -2.33351,0.63664 -2.23719,1.27403 0.0239,0.15845 -0.0487,0.49949 -0.16138,0.75786 -0.15948,0.36559 -0.28608,0.40242 -0.5709,0.16604 -0.2812,-0.23338 -0.36843,-0.21962 -0.37657,0.0594 -0.006,0.19972 -0.18822,0.0357 -0.40532,-0.36448 -0.70936,-1.30755 -0.93391,-0.76312 -0.24554,0.59531 0.91274,1.8012 0.64554,1.67302 -0.41366,-0.19844 -0.47357,-0.83674 -0.91182,-1.37178 -0.97389,-1.18897 -0.0621,0.1828 -0.22175,0.26507 -0.35484,0.18282 -0.61102,-0.37763 -0.21148,0.71885 1.11133,3.04987 0.41387,0.72933 0.42501,0.79592 0.051,0.30519 -0.26307,-0.3452 -0.83778,-1.2977 -1.27712,-2.11666 -0.5604,-1.04463 -0.97936,-1.51483 -1.40382,-1.5755 l -0.60502,-0.0865 0.694,1.36956 c 0.38171,0.75326 0.65267,1.4109 0.60214,1.46143 -0.0505,0.0505 -0.37977,-0.46732 -0.73165,-1.15078 -0.35188,-0.68347 -0.65464,-1.27118 -0.6728,-1.30604 -0.13112,-0.2517 -1.42274,0.66481 -1.32051,0.93701 0.079,0.21036 0.01,0.27072 -0.17715,0.15504 -0.20657,-0.12767 -0.24971,-0.0414 -0.1323,0.26458 0.10962,0.28564 0.0705,0.38994 -0.10536,0.28122 -0.15378,-0.095 -0.21568,-0.33934 -0.13757,-0.5429 0.0781,-0.20357 0.029,-0.37012 -0.10921,-0.37012 -0.13818,0 -0.32734,0.3032 -0.42035,0.67378 -0.16283,0.64879 -0.0115,1.04602 0.39839,1.04602 0.10739,0 0.89463,0.7739 1.74943,1.71979 l 1.55419,1.71979 -1.37462,-1.31297 c -0.75603,-0.72214 -1.37461,-1.16159 -1.37461,-0.97657 0,0.18501 -0.11906,0.26281 -0.26458,0.17287 -0.14552,-0.0899 -0.26459,-0.28258 -0.26459,-0.4281 0,-0.14552 0.1177,-0.19184 0.26156,-0.10294 0.15286,0.0945 0.19253,-0.0182 0.0955,-0.27115 -0.13292,-0.34639 -0.21075,-0.36234 -0.3898,-0.0799 -0.18275,0.28831 -0.22445,0.2843 -0.22776,-0.0219 -0.002,-0.20616 -0.0797,-0.29917 -0.17218,-0.2067 -0.23911,0.23911 0.67182,1.55454 0.95522,1.37939 0.12907,-0.0798 0.32083,-0.006 0.42613,0.16474 0.12834,0.20766 0.0759,0.23838 -0.15897,0.0932 -0.26286,-0.16246 -0.30246,-0.0916 -0.15848,0.28362 0.17453,0.45482 0.1366,0.44956 -0.41806,-0.0579 -1.6356,-1.49654 -3.8376,-1.93112 -5.03047,-0.99281 -0.66619,0.52403 -0.67182,0.55196 -0.17376,0.863 0.54309,0.33917 1.13721,0.17426 0.87876,-0.24393 -0.17205,-0.27838 0.22777,-0.33851 0.49226,-0.074 0.0948,0.0948 -0.0342,0.3426 -0.28663,0.55077 -0.37614,0.31022 -0.38335,0.35528 -0.04,0.24982 0.23454,-0.072 0.41893,0.024 0.41893,0.21812 0,0.25446 -0.30072,0.20069 -1.12946,-0.20194 l -1.12945,-0.54873 -0.93956,0.71664 c -0.51676,0.39415 -1.05837,0.93863 -1.20358,1.20996 -0.23063,0.43093 -0.0972,0.5533 1.05478,0.96755 1.42491,0.51239 1.57129,0.71201 0.85577,1.167 -0.38591,0.2454 -0.34185,0.26878 0.26459,0.1404 0.97037,-0.20542 0.92614,-3.4e-4 -0.0752,0.34873 -0.47579,0.16586 -0.73887,0.1764 -0.64584,0.0259 0.1837,-0.29724 -0.16613,-0.32843 -0.82934,-0.0739 -0.37846,0.14523 -0.29312,0.24365 0.44138,0.50903 0.50081,0.18095 0.73197,0.329 0.51369,0.329 -0.21828,0 -0.81359,-0.15098 -1.32291,-0.33551 z m 1.54811,-1.18179 c 0.25344,-0.1606 0.003,-0.34729 -0.85989,-0.64135 -0.66957,-0.22814 -1.21739,-0.31622 -1.21739,-0.19573 0,0.12049 0.44648,0.3061 0.99219,0.41245 0.83914,0.16354 0.91056,0.22643 0.46302,0.40772 -0.34214,0.1386 -0.3889,0.2195 -0.13229,0.2289 0.21828,0.008 0.55774,-0.0874 0.75436,-0.21199 z m -1.35519,-0.1898 c -0.0879,-0.0879 -0.31612,-0.0973 -0.50712,-0.0209 -0.21106,0.0845 -0.14837,0.14715 0.15986,0.15985 0.27891,0.0115 0.43518,-0.0511 0.34726,-0.13897 z m 2.45291,1.21819 c -0.21828,-0.14106 -0.27781,-0.25648 -0.13229,-0.25648 0.14552,0 0.44318,0.11542 0.66146,0.25648 0.21828,0.14106 0.27781,0.25648 0.13229,0.25648 -0.14552,0 -0.44318,-0.11542 -0.66146,-0.25648 z m 7.84931,0.0882 c -0.097,-0.097 -0.17639,-0.29942 -0.17639,-0.44979 0,-0.16579 0.12323,-0.15016 0.31309,0.0397 0.1722,0.1722 0.25157,0.37461 0.17639,0.44979 -0.0752,0.0752 -0.21608,0.0573 -0.31309,-0.0397 z m 24.25779,-0.28842 c 0.10344,-0.16736 0.56316,-0.57138 1.02159,-0.89782 0.45844,-0.32644 0.7489,-0.45658 0.64546,-0.28922 -0.10344,0.16736 -0.56316,0.57138 -1.02159,0.89782 -0.45844,0.32644 -0.7489,0.45659 -0.64546,0.28922 z m -5.98591,-0.23454 c -0.0763,-0.12468 0.36632,-1.47684 0.98357,-3.00481 1.24844,-3.09041 1.57801,-4.76566 1.13068,-5.74743 -0.25102,-0.55093 -0.43245,-0.6324 -1.14924,-0.51608 -0.60804,0.0987 -0.89486,0.0243 -1.0041,-0.26041 -0.2401,-0.62569 -0.18347,-0.70997 0.24057,-0.35805 0.21643,0.17962 0.59084,0.25086 0.83201,0.15831 0.60647,-0.23272 1.37709,0.53562 1.57033,1.56568 l 0.16036,0.8548 0.65372,-0.65371 c 0.50978,-0.50979 0.8397,-0.62346 1.49846,-0.5163 1.79198,0.29151 3.35828,0.76469 3.35828,1.01453 0,0.14413 -0.24701,0.18258 -0.55167,0.0859 -0.37991,-0.12058 -0.77122,0.018 -1.25677,0.44519 l -0.7051,0.62029 0.64143,-0.72761 c 0.50551,-0.57342 0.55215,-0.7276 0.22008,-0.7276 -0.23174,0 -0.62922,-0.0798 -0.88327,-0.17726 -0.33974,-0.13037 -0.40463,-0.0846 -0.24535,0.17317 0.1357,0.21956 0.11369,0.28684 -0.0589,0.18017 -0.15152,-0.0936 -0.41301,-0.005 -0.58109,0.19798 -0.22282,0.26847 -0.22544,0.39495 -0.01,0.46687 0.16601,0.0553 0.0257,0.3249 -0.31968,0.61402 -0.33859,0.28346 -0.46679,0.3459 -0.28489,0.13876 0.48771,-0.55539 0.40209,-0.92264 -0.11693,-0.50163 -0.38584,0.31297 -0.41694,0.30831 -0.22522,-0.0337 0.12234,-0.21828 0.47262,-0.68396 0.77839,-1.03485 0.30577,-0.35089 0.37736,-0.53263 0.15907,-0.40387 -0.21828,0.12876 -0.56053,0.23726 -0.76055,0.2411 -0.20002,0.004 -0.55581,0.30465 -0.79064,0.66845 -0.40204,0.62284 -0.40012,0.64026 0.0329,0.29834 0.52741,-0.41641 0.62499,-0.0528 0.12919,0.48131 -0.26458,0.28505 -0.26458,0.31897 0,0.1696 0.4529,-0.2557 0.41908,0.23555 -0.0426,0.6187 -0.2853,0.23679 -0.41862,0.23654 -0.56545,-0.001 -0.12161,-0.19677 -0.32451,0.004 -0.55273,0.54669 -0.44012,1.04675 -0.44298,0.97322 0.0378,0.97322 0.2191,0 0.36792,-0.18585 0.33073,-0.41299 -0.0372,-0.22714 0.0515,-0.41748 0.19697,-0.42297 0.14552,-0.006 0.41341,-0.10449 0.59531,-0.21999 0.1819,-0.11551 0.33073,-0.12887 0.33073,-0.0297 0,0.0992 0.20325,0.0169 0.45167,-0.18282 0.24843,-0.19972 0.11612,0.0822 -0.29401,0.62648 -0.41014,0.54428 -0.85948,0.91929 -0.99854,0.83334 -0.13906,-0.0859 -0.21512,0.0614 -0.169,0.32737 0.0461,0.266 -0.0599,0.48631 -0.2355,0.48957 -0.17564,0.003 -0.51562,0.24407 -0.75551,0.53511 -0.38064,0.46179 -0.37896,0.43292 0.0132,-0.22672 0.26867,-0.45187 0.35297,-0.85234 0.20961,-0.9957 -0.14336,-0.14336 -0.47604,0.47991 -0.82716,1.54964 -0.6607,2.01293 -0.9686,2.61234 -1.17152,2.28071 z m 3.54615,-4.65846 c 0.27651,-0.51892 0.26609,-0.55316 -0.0812,-0.26688 -0.21911,0.18064 -0.48303,0.2438 -0.58647,0.14036 -0.10344,-0.10344 -0.10951,0.0166 -0.0135,0.26688 0.22635,0.58985 0.30015,0.57465 0.68114,-0.14036 z m -23.60195,3.30729 -0.64143,-0.7276 0.79375,0.66146 c 0.43656,0.3638 0.84336,0.69122 0.90399,0.7276 0.0606,0.0364 -0.008,0.0661 -0.15232,0.0661 -0.1444,0 -0.5512,-0.32743 -0.90399,-0.72761 z m 8.90058,-0.1437 c 0.0994,-0.26094 0.2473,-0.40778 0.32876,-0.32632 0.0815,0.0815 1.7e-4,0.29496 -0.18065,0.47443 -0.26131,0.25936 -0.2917,0.22897 -0.14811,-0.14811 z m 19.16528,-0.19533 c 0,-0.14095 0.17859,-0.25628 0.39687,-0.25628 0.21829,0 0.39688,0.0468 0.39688,0.10398 0,0.0572 -0.17859,0.17252 -0.39688,0.25628 -0.21828,0.0838 -0.39687,0.037 -0.39687,-0.10398 z m -36.24792,-0.25628 c -0.34202,-0.22103 -0.33504,-0.25704 0.0505,-0.26053 0.24608,-0.002 0.52099,0.11501 0.61093,0.26053 0.20695,0.33486 -0.1433,0.33486 -0.66146,0 z m 33.26305,-0.19844 c 0.15765,-0.42064 0.12708,-0.42669 -0.33396,-0.0661 -0.27912,0.21828 -0.10846,-0.11463 0.37924,-0.73981 0.48769,-0.62517 0.9496,-1.0738 1.02645,-0.99694 0.19036,0.19036 2.32851,-1.76614 2.23731,-2.04724 -0.04,-0.12325 0.0493,-0.14869 0.19844,-0.0565 0.14913,0.0922 0.27114,0.0177 0.27114,-0.16555 0,-0.25908 0.0706,-0.26255 0.3175,-0.0156 0.17462,0.17462 0.52331,0.3175 0.77485,0.3175 0.45032,0 1.29087,0.66043 1.28684,1.01109 -0.001,0.0987 -0.32856,0.32553 -0.72761,0.50397 l -0.72554,0.32444 0.57919,-0.48609 c 0.43326,-0.36361 0.50326,-0.56201 0.27781,-0.78745 -0.37046,-0.37046 -0.90676,-0.38689 -1.33119,-0.0408 -1.4594,1.1901 -2.11448,1.64577 -1.80852,1.25798 0.22603,-0.28648 0.25424,-0.46024 0.0747,-0.46024 -0.15862,0 -0.78282,0.65484 -1.3871,1.45521 -1.16212,1.53922 -1.39142,1.74426 -1.10957,0.99218 z m 1.13279,-1.44568 c 0,-0.37247 -0.49351,0.0235 -0.83083,0.66667 -0.30239,0.57654 -0.30056,0.57708 0.26316,0.0765 0.31222,-0.27722 0.56767,-0.61167 0.56767,-0.74322 z m -27.95994,1.47003 c 0.0958,-0.0957 0.0263,-0.36365 -0.15434,-0.59532 -0.29013,-0.37209 -0.27477,-0.37914 0.13168,-0.0605 0.41392,0.3245 0.41961,0.82992 0.009,0.82992 -0.0884,0 -0.0824,-0.0783 0.0133,-0.17409 z m 31.07446,-0.14991 c 0.17626,-0.21238 0.25909,-0.44752 0.18408,-0.52254 -0.19035,-0.19035 0.54605,-0.76532 1.12002,-0.87449 0.26189,-0.0498 0.47617,-0.11487 0.47617,-0.14458 0,-0.10863 1.35298,-0.25064 2.47547,-0.25982 1.08534,-0.009 1.89015,0.33799 1.89015,0.81463 0,0.11655 -0.36458,0.03 -0.81018,-0.19226 -1.11004,-0.55376 -2.76273,-0.26977 -4.37301,0.75144 -0.70575,0.44757 -1.13896,0.64 -0.9627,0.42762 z m -21.58721,-1.14771 c -0.32404,-0.66697 -0.46744,-1.13745 -0.31866,-1.04549 0.37494,0.23172 0.33867,-0.0231 -0.13316,-0.93552 -0.22201,-0.42934 -0.3435,-0.78061 -0.26996,-0.78061 0.32502,0 1.18174,2.12827 1.02311,2.54164 -0.11367,0.29623 -0.0729,0.39262 0.11644,0.27557 0.40139,-0.24807 0.67058,0.2651 0.39623,0.75535 -0.17326,0.30959 -0.35998,0.12357 -0.814,-0.81094 z m 19.7956,1.10723 c 0,-0.0549 0.20836,-0.2633 0.46302,-0.46302 0.41965,-0.32911 0.42901,-0.31975 0.0999,0.0999 -0.34564,0.44073 -0.56292,0.58088 -0.56292,0.36312 z m -30.82208,-0.69082 c -0.096,-0.15536 0.0227,-0.19082 0.29237,-0.0873 0.33242,0.12756 0.39601,0.0804 0.23744,-0.1762 -0.14517,-0.23491 -0.11445,-0.28731 0.0932,-0.15898 0.17038,0.1053 0.24128,0.30229 0.15756,0.43776 -0.19877,0.32162 -0.57695,0.31423 -0.78058,-0.0152 z m 14.4388,-0.15737 c 0.0127,-0.30823 0.0754,-0.37092 0.15986,-0.15986 0.0764,0.191 0.067,0.4192 -0.0209,0.50712 -0.0879,0.0879 -0.15045,-0.0684 -0.13897,-0.34726 z m 1.07923,-0.37483 c 0,-0.3638 0.06,-0.51263 0.13345,-0.33073 0.0734,0.1819 0.0734,0.47956 0,0.66146 -0.0734,0.1819 -0.13345,0.0331 -0.13345,-0.33073 z m 2.16162,-2.92058 c 0.008,-1.8246 -0.0913,-3.49147 -0.2196,-3.70417 -0.20109,-0.33333 -0.17082,-0.33602 0.21933,-0.0195 0.38773,0.31458 0.51831,0.31023 0.91069,-0.0303 0.46566,-0.40421 1.93696,-0.76795 3.36185,-0.83115 0.59669,-0.0265 0.80818,0.0931 0.87412,0.49425 0.066,0.40152 0.0268,0.4411 -0.16251,0.16411 -0.17271,-0.25273 -0.52312,-0.31277 -1.1387,-0.19514 -0.48906,0.0935 -1.2338,0.22764 -1.65497,0.29819 -0.92844,0.15552 -1.53864,0.6197 -1.30711,0.99433 0.0989,0.15998 0.0422,0.19633 -0.1352,0.0867 -0.16801,-0.10383 -0.32113,-0.15199 -0.34028,-0.10702 -0.0191,0.045 -0.12177,1.45098 -0.22806,3.12447 l -0.19326,3.04271 0.0137,-3.31746 z m -5.64298,1.0685 c -0.16465,-0.61146 -0.24758,-1.16354 -0.18428,-1.22684 0.0633,-0.0633 0.24364,0.39137 0.40075,1.01036 0.15712,0.61899 0.24005,1.17107 0.18428,1.22683 -0.0558,0.0558 -0.2361,-0.39889 -0.40075,-1.01035 z m 3.21677,0.26458 c 0,-0.3638 0.0601,-0.51263 0.13346,-0.33073 0.0734,0.1819 0.0734,0.47956 0,0.66146 -0.0734,0.1819 -0.13346,0.0331 -0.13346,-0.33073 z m 6.205,-0.79375 c 0.0902,-0.50932 0.27099,-1.10464 0.40181,-1.32292 0.28155,-0.46978 0.011,0.90162 -0.33923,1.7198 -0.15282,0.35696 -0.17319,0.22781 -0.0626,-0.39688 z m -17.72623,0.21617 c 0.0764,-0.12364 0.24977,-0.1563 0.38524,-0.0726 0.34617,0.21395 0.3072,0.29738 -0.13894,0.29738 -0.21188,0 -0.32271,-0.10116 -0.2463,-0.2248 z m 3.92612,-0.76547 c -0.37445,-0.59316 -0.74826,-1.27777 -0.83069,-1.52136 -0.0824,-0.24358 0.19896,0.0929 0.62532,0.74774 1.10945,1.70398 1.19187,1.85209 1.03077,1.85209 -0.0795,0 -0.45096,-0.48532 -0.8254,-1.07847 z m 22.37,0.97857 c 0,-0.0549 0.20836,-0.2633 0.46302,-0.46302 0.41965,-0.32911 0.42901,-0.31975 0.0999,0.0999 -0.34564,0.44073 -0.56292,0.58088 -0.56292,0.36312 z m -20.51608,-0.71146 c -0.0959,-0.1552 -0.11766,-0.33893 -0.0483,-0.40828 0.0694,-0.0694 0.19661,0.0576 0.28278,0.28218 0.17891,0.46623 0.0264,0.54824 -0.23447,0.1261 z m 5.47661,-0.51156 c 0,-0.3638 0.06,-0.51263 0.13345,-0.33073 0.0734,0.1819 0.0734,0.47956 0,0.66146 -0.0734,0.1819 -0.13345,0.0331 -0.13345,-0.33073 z m 13.71656,-0.0999 c 0,-0.0549 0.20836,-0.26331 0.46302,-0.46303 0.41964,-0.3291 0.429,-0.31974 0.0999,0.0999 -0.34564,0.44073 -0.56291,0.58089 -0.56291,0.36313 z M 260.21033,142.202 c -0.24201,-0.50749 -0.38546,-0.92272 -0.3188,-0.92272 0.18105,0 0.98423,1.62002 0.8632,1.74106 -0.0574,0.0574 -0.30239,-0.31084 -0.5444,-0.81834 z m 6.1869,0.51044 c 0.0127,-0.30822 0.0754,-0.37092 0.15985,-0.15985 0.0764,0.191 0.067,0.4192 -0.0209,0.50712 -0.0879,0.0879 -0.15045,-0.0684 -0.13896,-0.34727 z m -8.07367,-0.29727 c -0.14359,-0.37708 -0.1132,-0.40747 0.14811,-0.14811 0.18082,0.17948 0.26212,0.39297 0.18065,0.47443 -0.0815,0.0815 -0.2294,-0.0654 -0.32876,-0.32632 z m 6.75075,0.0327 c 0.0127,-0.30822 0.0754,-0.37092 0.15985,-0.15985 0.0764,0.19099 0.067,0.4192 -0.0209,0.50712 -0.0879,0.0879 -0.15046,-0.0684 -0.13897,-0.34727 z m 7.9375,-0.26458 c 0.0127,-0.30823 0.0754,-0.37092 0.15985,-0.15986 0.0764,0.191 0.067,0.4192 -0.0209,0.50712 -0.0879,0.0879 -0.15046,-0.0684 -0.13897,-0.34726 z m 2.88953,-0.7717 c 0,-0.70336 0.0858,-1.19306 0.19058,-1.08824 0.18993,0.18992 0.12166,2.04725 -0.0829,2.25681 -0.0592,0.0606 -0.10764,-0.46522 -0.10764,-1.16857 z m 1.74162,0.66145 c 0.19629,-0.73687 0.32141,-0.93557 0.48569,-0.7713 0.0608,0.0608 -0.0632,0.40812 -0.27562,0.7717 l -0.38626,0.66106 z m -2.51272,-0.13229 c 0.008,-0.29104 0.11687,-0.76729 0.24193,-1.05833 0.20825,-0.48463 0.22862,-0.47349 0.24194,0.13229 0.008,0.3638 -0.10087,0.84005 -0.24194,1.05833 -0.21169,0.32757 -0.25394,0.30447 -0.24193,-0.13229 z m 1.32116,-0.28663 c 0.0127,-0.30822 0.0754,-0.37092 0.15985,-0.15985 0.0764,0.19099 0.067,0.4192 -0.0209,0.50712 -0.0879,0.0879 -0.15045,-0.0684 -0.13896,-0.34727 z m 0.28547,-1.43316 c 0,-0.3638 0.06,-0.51263 0.13345,-0.33073 0.0734,0.1819 0.0734,0.47956 0,0.66146 -0.0734,0.1819 -0.13345,0.0331 -0.13345,-0.33073 z"
       id="path17326" />
  </g>
</svg>
