<?xml version="1.0" encoding="UTF-8" standalone="no"?>
<!-- Created with Inkscape (http://www.inkscape.org/) -->

<svg
   width="57.321915mm"
   height="59.711151mm"
   viewBox="0 0 57.321922 59.711153"
   version="1.1"
   id="svg5"
   inkscape:version="1.1 (c4e8f9ed74, 2021-05-24)"
   sodipodi:docname="flax.svg"
   xmlns:inkscape="http://www.inkscape.org/namespaces/inkscape"
   xmlns:sodipodi="http://sodipodi.sourceforge.net/DTD/sodipodi-0.dtd"
   xmlns="http://www.w3.org/2000/svg"
   xmlns:svg="http://www.w3.org/2000/svg">
  <sodipodi:namedview
     id="namedview7"
     pagecolor="#ffffff"
     bordercolor="#666666"
     borderopacity="1.0"
     inkscape:pageshadow="2"
     inkscape:pageopacity="0.0"
     inkscape:pagecheckerboard="0"
     inkscape:document-units="mm"
     showgrid="false"
     inkscape:zoom="0.94615212"
     inkscape:cx="-300.6916"
     inkscape:cy="148.49621"
     inkscape:window-width="2506"
     inkscape:window-height="1403"
     inkscape:window-x="1974"
     inkscape:window-y="0"
     inkscape:window-maximized="1"
     inkscape:current-layer="layer1" />
  <defs
     id="defs2" />
  <g
     inkscape:label="Layer 1"
     inkscape:groupmode="layer"
     id="layer1"
     transform="translate(-231.44809,-126.27439)">
    <path
       style="fill:#000000;stroke-width:0.264583"
       d="m 246.43666,185.89412 c 0,-0.16074 0.21601,-1.15331 0.8364,-3.84338 0.15103,-0.65484 0.4471,-1.65393 0.65795,-2.22019 0.39728,-1.06693 0.33478,-1.79296 -0.32785,-3.80832 -0.20501,-0.62355 -0.37275,-1.60091 -0.37275,-2.1719 v -1.03817 l -1.38906,0.71669 c -1.17587,0.60669 -1.71393,0.71555 -3.50573,0.7093 -1.78015,-0.006 -2.32699,-0.11993 -3.43958,-0.71529 -0.73587,-0.39376 -1.11052,-0.71336 -0.84428,-0.72021 0.26325,-0.007 0.40818,-0.12632 0.32208,-0.26564 -0.0861,-0.13932 0.20452,-0.44003 0.64584,-0.66825 1.00108,-0.51768 1.06912,-0.29837 0.0748,0.24107 -0.40019,0.2171 -0.57175,0.39949 -0.38126,0.40532 0.19604,0.006 0.26332,0.14492 0.15503,0.32014 -0.1298,0.21002 -0.0453,0.25353 0.26271,0.13532 0.26968,-0.10349 0.38839,-0.068 0.29237,0.0873 -0.21883,0.35408 -0.0127,0.33002 1.07851,-0.12592 0.51004,-0.2131 0.85638,-0.27264 0.76964,-0.13229 -0.0867,0.14035 -0.009,0.25518 0.17305,0.25518 0.19048,0 0.1282,0.14813 -0.14683,0.34923 -0.41393,0.30268 -0.27077,0.34402 1.07391,0.31016 2.41651,-0.0609 2.78421,-0.11268 2.6252,-0.36997 -0.0815,-0.13186 -0.41595,-0.18894 -0.74322,-0.12686 -0.54825,0.10401 -0.55343,0.0942 -0.0659,-0.12443 0.33387,-0.14973 0.65868,-0.1336 0.88007,0.0437 0.25243,0.20217 0.40921,0.18665 0.55874,-0.0553 0.11432,-0.18498 0.25408,-0.30868 0.31057,-0.2749 0.24746,0.14799 1.28718,-0.3413 1.16057,-0.54616 -0.0772,-0.12499 -0.001,-0.3134 0.16933,-0.4187 0.20464,-0.12648 0.2385,-0.0761 0.0998,0.14833 -0.13999,0.2265 -0.0875,0.29894 0.15755,0.21727 0.20216,-0.0674 0.36756,-0.2515 0.36756,-0.40915 0,-0.15765 0.10839,-0.38585 0.24086,-0.50712 0.14282,-0.13075 0.15208,-0.0676 0.0227,0.15521 -0.15415,0.26551 -0.10839,0.3335 0.15602,0.23184 0.30998,-0.11918 0.35834,0.28329 0.28207,2.34731 -0.0964,2.60864 0.0577,3.79203 0.49398,3.79203 0.14275,0 0.25982,-0.32742 0.26016,-0.7276 3.5e-4,-0.40019 0.4766,-1.83085 1.05834,-3.17926 1.03739,-2.40457 1.2577,-3.23689 0.85677,-3.23689 -0.11052,0 -0.34965,0.23812 -0.53141,0.52917 -0.18176,0.29104 -0.48048,0.52916 -0.66382,0.52916 -0.18335,0 -0.54701,0.32743 -0.80816,0.72761 l -0.4748,0.7276 0.17223,-1.05833 c 0.0947,-0.58209 0.34284,-1.15495 0.55137,-1.27303 0.20854,-0.11809 0.31843,-0.31296 0.24421,-0.43304 -0.0742,-0.12009 0.0721,-0.38067 0.32517,-0.57906 0.41636,-0.32641 0.42558,-0.31669 0.097,0.10232 -0.77752,0.99141 0.22289,0.39945 1.11785,-0.66146 0.52173,-0.61847 1.16066,-1.36937 1.41985,-1.66869 0.58864,-0.67976 1.08802,-1.67414 1.18832,-2.36621 0.0548,-0.37834 -0.0741,-0.52917 -0.45248,-0.52917 -0.33966,0 -0.50423,0.15318 -0.45953,0.42773 0.0383,0.23525 -0.11325,0.57951 -0.33678,0.76503 -0.3454,0.28665 -0.38241,0.26216 -0.24648,-0.16314 0.15266,-0.47763 0.14082,-0.47697 -0.25952,0.0145 -0.31535,0.38714 -0.48543,0.43694 -0.68526,0.20065 -0.14619,-0.17287 -0.18646,-0.2568 -0.0895,-0.18651 0.20613,0.14941 0.88645,-0.36507 0.88645,-0.67036 0,-0.41305 -0.80753,-0.0777 -1.6513,0.68576 -0.68848,0.62295 -0.74161,0.64291 -0.26597,0.0999 0.67109,-0.76612 0.80116,-1.27772 0.19747,-0.7767 -0.75581,0.62727 -0.39097,0.0983 0.92196,-1.33668 0.72536,-0.79279 1.32068,-1.3274 1.32292,-1.18802 0.002,0.13939 -0.43092,0.69891 -0.96259,1.24339 -0.88474,0.90605 -0.91563,0.98612 -0.36448,0.9446 0.3312,-0.0249 0.77923,-0.31556 0.99561,-0.6458 0.21638,-0.33025 0.49124,-0.54 0.61078,-0.46611 0.11955,0.0739 0.30352,-0.005 0.40882,-0.17545 0.12647,-0.20463 0.0761,-0.2385 -0.14834,-0.0998 -0.22791,0.14085 -0.29581,0.089 -0.20624,-0.15756 0.0735,-0.20216 0.26749,-0.33779 0.4312,-0.30141 0.16371,0.0364 0.29766,-0.13229 0.29766,-0.37483 0,-0.24253 -0.0815,-0.3595 -0.18105,-0.25993 -0.0996,0.0996 -0.56118,-0.18741 -1.0258,-0.63774 l -0.84477,-0.81878 -0.57221,0.80361 c -0.31472,0.44198 -0.95444,1.07157 -1.42159,1.3991 -0.49587,0.34765 -0.70713,0.4178 -0.5076,0.16854 0.2793,-0.34892 0.2793,-0.45443 0,-0.57727 -0.18798,-0.0827 -0.11215,-0.12402 0.16851,-0.0919 0.38579,0.0442 0.52105,-0.11906 0.55445,-0.66916 0.0243,-0.40018 -0.0565,-0.7276 -0.17955,-0.7276 -0.12305,0 -0.22373,0.0967 -0.22373,0.21483 0,0.11815 -0.38695,0.49279 -0.85989,0.83253 l -0.8599,0.6177 0.91773,-0.97094 c 0.50475,-0.53401 1.06848,-0.91309 1.25273,-0.84238 0.18426,0.0707 0.46008,-0.10514 0.61294,-0.39076 0.18052,-0.33731 0.1852,-0.51931 0.0133,-0.51931 -0.47412,0 -0.88243,-1.05198 -0.55939,-1.44123 0.21695,-0.2614 0.18413,-0.38957 -0.1307,-0.51038 -0.23417,-0.0899 -0.33689,-0.29644 -0.23187,-0.46636 0.13494,-0.21834 -0.0275,-0.25083 -0.57136,-0.11432 -0.743,0.18648 -0.74937,0.1791 -0.28681,-0.33202 0.30813,-0.34049 0.37481,-0.58347 0.19125,-0.69692 -0.27949,-0.17273 -0.31718,-0.13356 -0.38104,0.39588 -0.0182,0.15083 -0.21166,0.38713 -0.42994,0.52511 -0.31119,0.19671 -0.31848,0.25176 -0.0337,0.25494 0.27371,0.003 0.29056,0.0915 0.0684,0.35912 -0.16208,0.19529 -0.21005,0.43971 -0.10661,0.54315 0.10344,0.10344 -0.016,0.10978 -0.26536,0.0141 -0.24939,-0.0957 -0.37309,-0.30401 -0.27489,-0.4629 0.0982,-0.15889 -0.20014,-0.0192 -0.66298,0.31033 -1.03224,0.73501 -1.11319,1.00942 -0.11392,0.38613 l 0.72761,-0.45384 -0.72761,0.79294 c -0.76884,0.8379 -0.89766,1.16087 -0.46302,1.16087 0.14552,0 0.23482,-0.0893 0.19844,-0.19844 -0.0364,-0.10914 0.0529,-0.24129 0.19844,-0.29366 0.14552,-0.0524 0.58062,-0.32027 0.96688,-0.59532 0.38627,-0.27504 0.79168,-0.50008 0.90091,-0.50008 0.34659,0 -0.7256,1.03805 -1.24123,1.2017 -0.27185,0.0863 -0.49427,0.29173 -0.49427,0.45655 0,0.21326 0.0915,0.20812 0.3175,-0.0178 0.72158,-0.72158 0.77831,-0.25118 0.0627,0.52012 l -0.77711,0.83761 1.00605,-0.74729 c 0.59261,-0.44019 0.88904,-0.81959 0.72135,-0.92324 -0.18276,-0.11295 -0.0952,-0.34741 0.24449,-0.65485 0.29105,-0.26339 0.47051,-0.57382 0.39881,-0.68984 -0.0717,-0.11602 -0.007,-0.28692 0.14285,-0.37979 0.15026,-0.0929 0.19334,-0.29809 0.0957,-0.45604 -0.10593,-0.17141 -0.0543,-0.21107 0.12798,-0.0984 0.47228,0.29189 0.36187,1.08283 -0.22533,1.61424 -0.29193,0.26419 -0.47156,0.53958 -0.39917,0.61197 0.0724,0.0724 -9.8e-4,0.2914 -0.16306,0.48669 -0.1798,0.21665 -0.19154,0.35508 -0.0301,0.35508 0.14552,0 0.4128,-0.1786 0.59396,-0.39688 0.26278,-0.31663 0.26278,-0.39687 0,-0.39687 -0.26278,0 -0.26278,-0.0802 0,-0.39688 0.18115,-0.21828 0.44844,-0.39687 0.59396,-0.39687 0.14759,0 0.11894,0.17548 -0.0648,0.39687 -0.18115,0.21828 -0.23681,0.39688 -0.12368,0.39688 0.11313,0 -0.0124,0.24102 -0.27902,0.5356 -0.26659,0.29458 -0.61247,0.48837 -0.76861,0.43064 -0.15614,-0.0577 -0.69123,0.1991 -1.18907,0.57073 -0.49785,0.37164 -0.81825,0.53504 -0.71199,0.36311 0.33602,-0.54369 -0.04,-0.3558 -2.89067,1.44431 -2.68914,1.69812 -3.64243,2.56255 -1.54478,1.40079 l 1.02553,-0.56798 -0.66146,0.58186 c -0.45122,0.39692 -0.51429,0.53462 -0.19843,0.43324 0.6385,-0.20494 0.58125,0.0175 -0.0981,0.38103 -0.39435,0.21106 -0.50765,0.21382 -0.38126,0.009 0.22887,-0.37032 -0.004,-0.36964 -0.69828,0.002 -0.44044,0.23572 -0.47585,0.33937 -0.18105,0.52997 0.26185,0.1693 0.17965,0.21783 -0.2879,0.17 -0.35991,-0.0368 -0.65757,0.072 -0.66146,0.24173 -0.004,0.16978 -0.11546,0.4079 -0.24794,0.52917 -0.13993,0.1281 -0.1611,0.0819 -0.0505,-0.11024 0.26556,-0.46145 -0.16819,-0.41282 -0.78252,0.0877 -0.43853,0.35731 -0.44592,0.3972 -0.0506,0.27289 0.81588,-0.25654 0.49635,0.0746 -0.62297,0.64566 -0.5973,0.30472 -1.00699,0.42621 -0.91043,0.26997 0.27002,-0.4369 -0.12602,-0.32463 -1.66351,0.47157 -1.14317,0.592 -1.34102,0.78875 -1.04237,1.0366 0.28882,0.2397 0.88062,0.0551 2.73389,-0.85262 2.43794,-1.19412 3.32448,-1.43823 1.50074,-0.41323 -0.5674,0.3189 -1.03163,0.74763 -1.03163,0.95275 0,0.45193 0.0545,0.45642 0.78909,0.065 0.54056,-0.288 0.55226,-0.27624 0.18105,0.18183 -0.36083,0.44525 -0.35358,0.47349 0.0799,0.31093 0.26222,-0.0983 0.41031,-0.0713 0.32908,0.0601 -0.0812,0.13143 0.002,0.29011 0.1847,0.35262 0.18281,0.0625 -0.2927,0.43188 -1.05668,0.82081 -1.26123,0.64206 -1.94004,1.23085 -1.00567,0.8723 0.25106,-0.0963 0.33461,-0.02 0.24205,0.22124 -0.47398,1.2351 -4.2659,-2.81022 -3.92126,-4.18337 0.15255,-0.60783 1.58396,-1.45202 3.22967,-1.90475 0.32742,-0.0901 0.59531,-0.2748 0.59531,-0.41052 0,-0.13571 0.22356,-0.24675 0.49679,-0.24675 0.38997,0 0.48236,-0.16969 0.42965,-0.78912 -0.0369,-0.43401 0.0391,-0.72344 0.16898,-0.64317 0.12987,0.0803 0.17683,0.24189 0.10435,0.35916 -0.0725,0.11728 0.16153,0.21323 0.52002,0.21323 0.3585,0 0.59251,-0.096 0.52003,-0.21323 -0.0725,-0.11727 0.008,-0.29938 0.17799,-0.40468 0.20464,-0.12647 0.23851,-0.0761 0.0998,0.14833 -0.13998,0.22651 -0.0874,0.29895 0.15756,0.21727 0.20216,-0.0674 0.36756,-0.2515 0.36756,-0.40915 0,-0.15764 0.10838,-0.38585 0.24085,-0.50712 0.13994,-0.1281 0.16111,-0.0819 0.0505,0.11025 -0.28051,0.48743 -0.007,0.40861 1.17883,-0.34021 1.24416,-0.7854 1.17064,-1.37979 -0.0962,-0.77756 l -0.84489,0.40164 0.78077,-0.60105 c 0.42943,-0.33058 1.1359,-0.95824 1.56995,-1.3948 0.43405,-0.43656 0.61848,-0.5646 0.40986,-0.28452 -0.37328,0.50111 -0.36667,0.50133 0.41442,0.0139 1.03634,-0.64667 1.16904,-0.77969 0.55789,-0.55926 -0.43034,0.15522 -0.4522,0.12238 -0.15604,-0.23447 0.18941,-0.22823 0.51009,-0.35138 0.71262,-0.27367 0.20252,0.0777 0.30057,0.0318 0.21788,-0.10197 -0.0827,-0.13381 -0.0274,-0.31926 0.12286,-0.41214 0.15027,-0.0929 0.20557,-0.2783 0.12289,-0.41208 -0.0827,-0.13378 0.51876,-0.56003 1.33652,-0.94722 0.88265,-0.41791 1.36298,-0.78054 1.18204,-0.89237 -0.20372,-0.1259 -0.081,-0.36441 0.36999,-0.71916 0.37113,-0.29194 0.61569,-0.58989 0.54346,-0.66211 -0.0722,-0.0722 -0.1802,-0.51754 -0.23994,-0.9896 -0.0597,-0.47205 -0.1676,-0.91725 -0.23969,-0.98934 -0.0721,-0.0721 -0.0207,-0.42146 0.11428,-0.77638 0.17982,-0.47295 0.15764,-0.63399 -0.083,-0.60291 -0.18061,0.0233 -1.02002,0.0283 -1.86535,0.0111 -1.07502,-0.0219 -1.48107,-0.1218 -1.35097,-0.3323 0.12871,-0.20825 0.98939,-0.25669 2.79393,-0.15725 1.52958,0.0843 2.54669,0.0446 2.45983,-0.0959 -0.0814,-0.13179 0.10408,-0.23962 0.4123,-0.23962 0.30822,0 0.49839,0.10034 0.42259,0.22297 -0.0758,0.12264 0.4232,0.2468 1.10887,0.27591 0.68567,0.0291 1.69849,0.0989 2.25072,0.1551 0.88475,0.09 0.98524,0.0429 0.84574,-0.39663 -0.0871,-0.27434 -0.0762,-0.9365 0.0241,-1.47145 0.21964,-1.1708 0.49336,-0.79782 0.75771,1.03251 0.1329,0.92016 0.27053,1.20691 0.49594,1.03325 0.7992,-0.6157 1.14036,-0.54604 1.02937,0.21018 -0.0709,0.48315 -0.30703,0.79419 -0.67618,0.89073 -0.52686,0.13777 -0.5362,0.17936 -0.13117,0.58439 0.52733,0.52733 1.01294,0.28934 1.02443,-0.50206 0.008,-0.57285 0.0131,-0.57348 0.40599,-0.0536 0.357,0.47237 0.35153,0.55971 -0.0535,0.85589 -0.41716,0.30504 -0.40485,0.36994 0.16367,0.86301 0.33811,0.29324 0.75735,0.53317 0.93165,0.53317 0.55802,0 2.01602,-0.58472 1.85629,-0.74444 -0.0847,-0.0848 0.11753,-0.31734 0.44952,-0.51686 0.46444,-0.27911 0.4816,-0.31898 0.0744,-0.17293 -1.1677,0.41886 -3.04118,0.7302 -3.23396,0.53742 -0.21429,-0.21428 0.62822,-0.95527 1.08614,-0.95527 0.14552,0 0.0335,0.1748 -0.24901,0.38846 -0.28247,0.21365 -0.37179,0.39224 -0.19847,0.39687 0.17331,0.005 0.39371,-0.11876 0.48978,-0.2742 0.0961,-0.15545 0.32277,-0.2258 0.50378,-0.15634 0.45063,0.17293 2.31411,-0.69201 3.51865,-1.63319 1.22863,-0.95999 2.44872,-1.3056 2.44872,-0.69362 0,0.80025 -0.52932,1.40075 -1.38687,1.57339 -1.5605,0.31415 -1.82836,0.44133 -1.68984,0.80231 0.0751,0.19573 -0.006,0.40749 -0.1793,0.47057 -0.17373,0.0631 0.0413,0.27476 0.47788,0.47039 0.43656,0.19562 1.07905,0.53399 1.42775,0.75192 0.84545,0.52839 1.71587,0.66095 1.44028,0.21934 -0.36934,-0.59184 -0.37005,-1.24693 -10e-4,-1.10539 0.25467,0.0977 0.33644,-0.15134 0.30715,-0.93554 -0.0218,-0.5878 0.0396,-1.06872 0.13664,-1.06872 0.1587,0 0.79054,-1.17303 0.79054,-1.46766 0,-0.0659 -0.24663,-0.11984 -0.54806,-0.11984 -0.49825,0 -0.51027,-0.0378 -0.1323,-0.41578 0.51403,-0.51402 0.52868,-0.66927 0.0457,-0.48392 -0.43315,0.16621 -0.81809,-0.31173 -0.43951,-0.5457 0.14154,-0.0875 0.19111,-0.33165 0.11016,-0.54261 -0.10874,-0.28335 -0.27397,-0.3157 -0.63251,-0.12381 -0.75291,0.40294 -0.83285,0.3146 -0.36349,-0.40173 0.23837,-0.3638 0.38916,-0.66145 0.33508,-0.66145 -0.0541,0 -0.49925,0.11498 -0.98928,0.25552 l -0.89096,0.25552 0.49583,-0.56497 c 0.46898,-0.53437 0.46982,-0.55546 0.0155,-0.38948 -0.38129,0.13931 -0.44795,0.0735 -0.32331,-0.31921 0.18394,-0.57957 -0.69421,-0.941 -1.15843,-0.47678 -0.20614,0.20614 -0.2869,0.18764 -0.2869,-0.0657 0,-0.19394 -0.25602,-0.57466 -0.56894,-0.84606 -0.43173,-0.37443 -0.65507,-0.42196 -0.92604,-0.19707 -0.26222,0.21762 -0.3571,0.2179 -0.3571,0.001 0,-0.16243 -0.26789,-0.25105 -0.59531,-0.19694 -0.32743,0.0541 -0.80368,-0.0841 -1.05834,-0.30725 -0.42623,-0.37341 -0.46302,-0.35107 -0.46302,0.28122 0,0.37776 -0.13632,0.7711 -0.30294,0.87408 -0.20848,0.12884 -0.26196,-0.0272 -0.17152,-0.5003 0.14736,-0.77087 -0.47491,-1.2369 -0.66889,-0.50094 -0.0866,0.32844 -0.12639,0.29331 -0.14887,-0.13134 -0.0304,-0.57383 -0.55986,-1.16638 -0.55986,-0.62655 0,0.15411 -0.16586,0.2802 -0.36857,0.2802 -0.20271,0 -0.44224,0.192 -0.5323,0.42667 -0.11203,0.29196 -0.26716,0.34714 -0.49132,0.17477 -0.22149,-0.17031 -0.47095,-0.10089 -0.77017,0.21433 -0.39649,0.4177 -0.39943,0.48278 -0.0283,0.62521 0.75835,0.291 0.18516,0.40595 -0.73731,0.14786 l -0.90852,-0.25418 0.66146,0.51741 c 0.46367,0.3627 0.53883,0.51917 0.25135,0.52329 -0.22555,0.003 -0.53927,-0.12328 -0.69714,-0.28115 -0.20632,-0.20633 -0.2675,-0.0575 -0.21758,0.52917 0.06,0.70555 -0.0171,0.8162 -0.56894,0.8162 -0.54605,0 -0.59933,0.073 -0.36833,0.50462 0.22917,0.42821 0.15045,0.54631 -0.51986,0.77998 -1.01449,0.35366 -1.05562,1.08986 -0.0623,1.11525 0.40018,0.0102 0.96573,0.12092 1.25677,0.24598 0.44931,0.19308 0.40939,0.22622 -0.26459,0.21962 -0.43656,-0.004 -1.0914,-0.0938 -1.4552,-0.19902 -0.36381,-0.10518 -1.05924,-0.0847 -1.54541,0.0455 -0.48617,0.13017 -1.05587,0.17071 -1.26599,0.0901 -0.32298,-0.12394 -0.30997,-0.25985 0.0841,-0.87898 0.25638,-0.4028 0.58795,-0.81984 0.73683,-0.92675 0.14888,-0.10691 -0.0567,-0.19621 -0.45691,-0.19844 -0.7196,-0.004 -0.88113,-0.4338 -0.33073,-0.88 0.14552,-0.11797 -0.15213,-0.14804 -0.66146,-0.0668 -0.64932,0.10355 -0.76792,0.0795 -0.39687,-0.0806 0.41714,-0.17993 0.44514,-0.25513 0.13229,-0.3552 -0.21828,-0.0698 -0.0397,-0.0786 0.39687,-0.0196 0.61038,0.0825 0.70207,0.0434 0.39688,-0.16925 -0.43405,-0.30249 -0.24791,-0.36583 0.86027,-0.29274 0.75742,0.05 2.36999,-1.26599 2.48138,-2.02496 0.10221,-0.69638 0.71675,-1.18653 1.33861,-1.06766 0.41662,0.0796 0.61141,-0.008 0.61141,-0.2757 0,-0.32529 0.0706,-0.334 0.4118,-0.0508 0.34049,0.28259 0.39776,0.27674 0.33073,-0.0337 -0.0446,-0.20653 0.0678,-0.34575 0.24965,-0.30937 0.39411,0.0788 0.44313,-0.36232 0.0661,-0.59531 -0.14552,-0.0899 -0.26458,-0.28406 -0.26458,-0.43139 0,-0.14732 0.18709,-0.0808 0.41577,0.14791 0.53363,0.53363 0.6684,0.5264 0.457,-0.0245 -0.10748,-0.28007 -0.0645,-0.37575 0.118,-0.26293 0.15782,0.0975 0.34725,0.0278 0.42095,-0.15503 0.0737,-0.18281 0.1434,-0.0645 0.15489,0.26293 0.0115,0.32742 0.14698,0.59531 0.30108,0.59531 0.15411,0 0.22854,-0.0893 0.1654,-0.19844 -0.0631,-0.10914 -0.008,-0.43656 0.12211,-0.7276 0.22899,-0.51148 0.23348,-0.5106 0.13431,0.0265 -0.0564,0.30563 0.12129,0.84141 0.39493,1.19062 0.30817,0.39328 0.4354,0.45955 0.33429,0.17413 -0.20768,-0.5863 0.63769,-0.96669 0.97267,-0.43766 0.19579,0.30922 0.23585,0.30474 0.24629,-0.0276 0.01,-0.3118 0.092,-0.29194 0.38333,0.0926 0.39287,0.51859 0.93523,0.38815 0.93523,-0.22493 0,-0.65482 0.52737,-0.71109 0.77921,-0.0831 0.13507,0.33677 0.25312,0.44503 0.26235,0.24057 0.0132,-0.29254 0.1238,-0.27488 0.51917,0.0829 0.47778,0.43238 0.52317,0.42502 0.92604,-0.15016 0.52173,-0.74487 0.52226,-1.22029 0.002,-2.07458 l -0.4026,-0.66146 0.15542,0.79375 c 0.11494,0.58697 0.0855,0.69036 -0.11314,0.39687 -0.2216,-0.32747 -0.26928,-0.33133 -0.27262,-0.022 -0.002,0.20615 -0.0641,0.31475 -0.13754,0.24134 -0.0734,-0.0734 0.004,-0.52693 0.17131,-1.00781 l 0.30479,-0.87433 0.37857,0.72252 c 0.20821,0.39739 0.43756,0.66353 0.50966,0.59143 0.072,-0.0721 -0.0651,-0.51041 -0.30489,-0.97402 -0.23974,-0.46361 -0.37963,-0.89919 -0.31087,-0.96795 0.0688,-0.0688 0.33764,0.35689 0.5975,0.9459 0.25987,0.589 0.51833,1.02507 0.57436,0.96905 0.056,-0.056 -0.15262,-0.69344 -0.46366,-1.41646 l -0.56552,-1.31459 0.56711,-1.86706 c 0.46196,-1.52091 0.65727,-1.8497 1.05349,-1.77339 0.37369,0.072 0.62116,-0.23837 1.06798,-1.33926 0.31987,-0.78811 0.68731,-1.36758 0.81654,-1.28772 0.23551,0.14556 0.34038,-0.23611 0.2486,-0.90476 -0.027,-0.19651 0.0766,-0.27962 0.2302,-0.1847 0.17552,0.10847 0.21453,0.004 0.10503,-0.28143 -0.11741,-0.30597 -0.0743,-0.39225 0.13229,-0.26459 0.2073,0.12812 0.25207,0.0351 0.13831,-0.28732 -0.13688,-0.38799 -0.10232,-0.41568 0.18559,-0.14869 0.29448,0.27308 0.27955,0.48377 -0.0891,1.25678 -0.24357,0.51078 -0.38857,0.92869 -0.32221,0.92869 0.0664,0 0.48814,-0.74414 0.93731,-1.65365 0.44916,-0.9095 1.00216,-1.83224 1.22889,-2.05052 0.37064,-0.35683 0.38242,-0.33857 0.11674,0.18104 -0.16251,0.31786 -0.29049,0.67505 -0.28439,0.79375 0.0127,0.24813 1.01936,-1.53426 1.03615,-1.83469 0.0188,-0.3367 -0.99497,-0.2187 -1.1366,0.1323 -0.0797,0.19757 -0.14186,0.14431 -0.15434,-0.1323 -0.0303,-0.67218 -0.68547,-0.56727 -1.18108,0.18913 -0.48623,0.74208 -0.5478,1.04105 -0.16575,0.80493 0.14998,-0.0927 0.19433,0.0135 0.10398,0.24897 -0.26241,0.68384 0.11994,0.45999 0.54146,-0.31698 0.37207,-0.68584 0.39534,-0.69344 0.40532,-0.1323 0.006,0.32743 -0.11549,0.59532 -0.2696,0.59532 -0.15411,0 -0.19524,0.13746 -0.0914,0.30546 0.11697,0.18926 0.0726,0.23364 -0.11668,0.11668 -0.17112,-0.10576 -0.30724,-0.0365 -0.30951,0.15755 -0.003,0.25167 -0.0742,0.23786 -0.26053,-0.0505 -0.22799,-0.35277 -0.25739,-0.35277 -0.26459,0 -0.007,0.31851 -0.0523,0.3272 -0.23181,0.044 -0.17905,-0.28244 -0.25687,-0.26649 -0.38979,0.0799 -0.0971,0.25295 -0.0574,0.36563 0.0955,0.27116 0.14385,-0.0889 0.26155,-0.0426 0.26155,0.10293 0,0.39033 -0.46713,0.61025 -0.65399,0.3079 -0.0888,-0.14362 0.0309,-0.63288 0.26581,-1.08724 0.23496,-0.45436 0.36629,-0.88701 0.29185,-0.96145 -0.0744,-0.0744 -0.74095,1.03795 -1.48113,2.47198 -0.74018,1.43403 -1.27137,2.30968 -1.18043,1.94587 0.0909,-0.3638 0.50874,-1.28152 0.92843,-2.03937 0.41969,-0.75786 0.72487,-1.53176 0.67817,-1.71979 -0.0467,-0.18804 -0.0311,-0.24095 0.0347,-0.11759 0.0658,0.12337 0.34314,-0.11476 0.61636,-0.52916 0.27321,-0.4144 0.49754,-0.58188 0.4985,-0.37216 10e-4,0.27257 0.11251,0.23485 0.3902,-0.13229 0.46933,-0.62051 0.50924,-0.93357 0.10763,-0.84432 -0.16371,0.0364 -0.35749,-0.0985 -0.43062,-0.29969 -0.10732,-0.29527 0.11403,-0.32879 1.14765,-0.17379 1.74463,0.26162 3.27347,0.88325 4.14135,1.68387 0.78736,0.72635 2.58881,3.59633 2.57365,4.10024 -0.0155,0.51632 -0.76238,1.6839 -0.79177,1.2378 -0.0144,-0.21828 -0.15124,-0.0992 -0.30414,0.26459 -0.17096,0.40678 -0.32694,0.53069 -0.40511,0.32183 -0.0699,-0.18679 -0.0132,-0.48445 0.12598,-0.66146 0.39562,-0.50302 0.59094,-1.61307 0.3519,-1.99986 -0.29036,-0.46981 -0.60179,0.29027 -0.38943,0.95042 0.11402,0.35443 0.0885,0.37843 -0.10857,0.10236 -0.21741,-0.3045 -0.28261,-0.3045 -0.41871,0 -0.0887,0.19836 -0.0986,-0.056 -0.0221,-0.56538 0.13903,-0.92529 0.13882,-0.9255 -0.25832,-0.26458 -0.45889,0.76368 -0.5298,0.59778 -0.1601,-0.3746 0.16447,-0.43258 0.39425,-0.62062 0.64215,-0.52549 0.29076,0.11158 0.34802,0.003 0.23197,-0.44105 -0.14935,-0.57109 -0.16566,-0.57376 -0.53106,-0.087 -0.20734,0.27617 -0.56094,0.95356 -0.78578,1.5053 -0.61184,1.50142 -0.65793,1.04458 -0.0854,-0.8464 0.48999,-1.61831 0.49057,-1.68348 0.0196,-2.18905 -0.32883,-0.35296 -0.54476,-0.42515 -0.66924,-0.22374 -0.1242,0.20096 -0.28727,0.21145 -0.50306,0.0324 -0.23441,-0.19454 -0.31607,-0.0983 -0.30718,0.36207 0.007,0.34488 0.12039,0.72624 0.25271,0.84746 0.1412,0.12934 0.16978,0.0234 0.0692,-0.25637 -0.0943,-0.26222 -0.0662,-0.41174 0.0624,-0.33225 0.12861,0.0795 0.30864,-0.0504 0.40007,-0.28871 0.0914,-0.23828 0.22327,-0.37621 0.29296,-0.30652 0.0697,0.0697 -0.24128,0.77134 -0.69103,1.55922 -0.44976,0.78789 -0.74907,1.21798 -0.66514,0.95576 0.29353,-0.91704 -0.38001,-0.14835 -1.07169,1.22309 -0.38011,0.75368 -0.79043,1.43433 -0.91181,1.51255 -0.12137,0.0782 -0.5644,0.89943 -0.9845,1.8249 l -0.76383,1.68268 0.0558,-1.16344 c 0.0563,-1.17435 0.56569,-2.8009 0.80292,-2.56367 0.0706,0.0706 -0.0518,0.55953 -0.27199,1.08653 -0.56158,1.34404 -0.46344,1.59618 0.1221,0.3137 0.26576,-0.58208 0.43021,-1.29646 0.36545,-1.5875 -0.0648,-0.29104 0.0727,-0.76729 0.30552,-1.05833 0.41033,-0.51298 0.41408,-0.51027 0.12266,0.0888 -0.53421,1.09818 -0.0485,0.92464 0.51755,-0.18491 0.64,-1.2545 0.71088,-1.67608 0.15916,-0.94665 -0.44957,0.59439 -0.53318,0.32089 -0.1314,-0.42984 0.15065,-0.28148 0.22111,-0.51178 0.15658,-0.51178 -0.0645,0 -0.55649,0.79898 -1.09326,1.7755 -0.53676,0.97653 -1.14201,1.89926 -1.345,2.05052 -0.20299,0.15127 -0.65358,1.10846 -1.00132,2.12711 -0.54895,1.60808 -0.65574,1.76358 -0.81061,1.1803 -0.0981,-0.36949 -0.0527,-1.00232 0.10089,-1.40629 0.34827,-0.91603 0.35263,-0.87644 -0.0965,-0.87644 -0.63957,0 -0.74202,1.53552 -0.17646,2.64483 0.38213,0.74951 0.53349,0.87891 0.60955,0.52111 0.0734,-0.34553 0.1415,-0.27876 0.24826,0.24359 0.0876,0.42845 0.044,0.65592 -0.10758,0.56221 -0.15511,-0.0959 -0.19215,0.19167 -0.0947,0.73561 0.0901,0.503 0.0709,0.68746 -0.044,0.42236 -0.15825,-0.36528 -0.28698,-0.18925 -0.57505,0.78637 -0.20413,0.69136 -0.42529,1.0946 -0.49145,0.89611 -0.0712,-0.21353 -0.2697,-0.006 -0.48614,0.50916 -0.33613,0.79941 -0.32258,0.90037 0.16686,1.24318 0.29298,0.20521 0.54209,0.57472 0.55358,0.82113 0.0128,0.27479 0.0724,0.32031 0.15419,0.11774 0.0825,-0.2043 0.37723,-0.26905 0.77286,-0.16975 0.48483,0.12168 0.63956,0.0538 0.63956,-0.28065 0,-0.26611 -0.12121,-0.36626 -0.30546,-0.25239 -0.19078,0.11791 -0.23358,0.0725 -0.11401,-0.12099 0.29223,-0.47285 0.68406,-0.0874 0.68406,0.6729 0,0.57288 0.0616,0.62708 0.39687,0.34887 0.33291,-0.2763 0.40359,-0.22822 0.43856,0.29833 0.0229,0.34524 0.0377,0.76712 0.0329,0.93751 -0.005,0.17223 0.17325,0.23995 0.40113,0.15251 0.30109,-0.11554 0.36481,-0.0397 0.24,0.2855 -0.094,0.24489 -0.0427,0.44281 0.11467,0.44281 0.15652,0 0.21605,0.1786 0.13229,0.39688 -0.24302,0.6333 0.33009,0.46342 1.51281,-0.44843 0.8745,-0.67422 0.97592,-0.71093 0.5011,-0.18138 -0.32742,0.36515 -0.59531,0.7794 -0.59531,0.92054 0,0.14115 -0.36544,0.4725 -0.81207,0.73633 -0.85901,0.50743 -0.90911,0.92449 -0.0562,0.46804 0.30813,-0.16491 0.64673,-0.17468 0.88255,-0.0255 0.46568,0.29462 1.04101,0.337 0.6472,0.0477 -0.43465,-0.31933 -0.39328,-1.44025 0.0469,-1.27132 0.20759,0.0797 0.31003,0.0358 0.22763,-0.0976 -0.0824,-0.13332 0.14578,-0.57844 0.50706,-0.98916 0.36129,-0.41071 0.66064,-0.61066 0.66524,-0.44433 0.005,0.16633 -0.19666,0.3811 -0.44724,0.47725 -0.39009,0.14969 -0.3996,0.20997 -0.0661,0.41915 0.2142,0.13437 0.59782,0.18749 0.85248,0.11806 0.25466,-0.0694 0.71606,-0.19854 1.02532,-0.28689 0.37419,-0.1069 0.50174,-0.0627 0.38126,0.13229 -0.0996,0.16111 -0.41214,0.29293 -0.69459,0.29293 -0.28245,0 -0.49945,0.0893 -0.48222,0.19843 0.0901,0.57051 -0.0792,0.85774 -0.49435,0.83901 -0.27661,-0.0125 -0.32987,-0.0746 -0.13229,-0.15434 0.1819,-0.0734 0.33073,-0.2664 0.33073,-0.4289 0,-0.2053 -0.0969,-0.19857 -0.3175,0.0221 -0.17463,0.17462 -0.56158,0.3298 -0.8599,0.34484 -0.29832,0.015 -0.0661,0.1531 0.51594,0.30681 l 1.05833,0.27946 -0.92604,0.35212 -0.92604,0.35212 1.19062,-0.15999 c 1.41555,-0.19021 1.32542,0.0514 -0.14799,0.39671 -0.98704,0.23132 -1.00031,0.24718 -0.24888,0.29731 0.7847,0.0523 0.7862,0.0554 0.13229,0.26478 -0.95007,0.30427 -1.37867,0.30427 -1.19063,0 0.0899,-0.14552 0.008,-0.2664 -0.18282,-0.26863 -0.25167,-0.003 -0.23786,-0.0742 0.0505,-0.26053 0.21828,-0.14107 0.27781,-0.25648 0.13229,-0.25648 -0.14552,0 -0.38364,0.0875 -0.52916,0.19438 -0.32669,0.24001 -0.4691,0.8553 -0.19844,0.85734 0.10914,8e-4 0.22535,0.44731 0.25825,0.99219 0.0933,1.54498 0.18728,2.03619 0.42276,2.20901 0.11989,0.088 0.0317,0.34632 -0.19608,0.57406 -0.31012,0.31012 -0.33163,0.44736 -0.0857,0.54672 0.20057,0.081 0.21393,0.1408 0.0343,0.15355 -0.16843,0.012 -0.24002,0.30344 -0.16759,0.68235 0.0695,0.3638 0.004,0.66146 -0.14557,0.66146 -0.14961,0 -0.23213,0.20836 -0.18338,0.46302 0.0487,0.25466 0.0977,0.54858 0.10888,0.65316 0.0111,0.10457 0.16907,0.15385 0.35097,0.1095 0.18191,-0.0443 0.2407,-0.0304 0.13065,0.0309 -0.11005,0.0613 -0.13787,0.21219 -0.0618,0.33523 0.076,0.12303 -10e-4,0.30985 -0.17153,0.41515 -0.18159,0.11223 -0.23923,0.0773 -0.1393,-0.0844 0.0994,-0.16078 -0.15948,-0.32426 -0.62058,-0.39194 -0.43508,-0.0639 -0.79105,-0.0396 -0.79105,0.054 0,0.40823 2.03399,1.95517 2.51354,1.91165 l 0.52917,-0.048 -0.52917,0.22652 c -0.48059,0.20571 -0.44416,0.26578 0.39688,0.65438 0.50932,0.23533 0.65815,0.36155 0.33072,0.28048 -0.84837,-0.21005 -0.73577,0.28138 0.22048,0.9623 0.57332,0.40823 0.7759,0.73347 0.68156,1.09421 -0.0766,0.29284 0.13627,0.91193 0.49554,1.44135 1.28414,1.89229 1.84059,3.76999 1.83142,6.17999 -0.008,2.08835 -0.0808,2.38547 -1.01961,4.16042 -1.24967,2.3626 -2.78284,3.80607 -5.32472,5.0132 -1.90832,0.90626 -2.02503,0.92707 -4.70339,0.83879 -2.65181,-0.0874 -2.79587,-0.12364 -4.1777,-1.0506 -0.78715,-0.52804 -1.96366,-1.45692 -2.61448,-2.06418 l -1.1833,-1.10411 -1.00307,0.45232 c -0.55169,0.24878 -1.5179,1.0586 -2.14712,1.7996 -1.0743,1.26513 -1.28746,1.74276 -2.66773,5.97748 -0.20821,0.6388 -0.48535,0.95252 -0.8935,1.0114 -0.55727,0.0804 -0.58104,0.0189 -0.40884,-1.05834 0.32785,-2.05083 0.80598,-3.52634 1.1202,-3.45696 0.20109,0.0444 0.25179,-0.15546 0.14619,-0.57622 -0.2126,-0.84707 0.0857,-1.74072 0.581,-1.74072 0.21706,0 0.32659,-0.11014 0.24339,-0.24476 -0.0832,-0.13462 0.0923,-0.81923 0.38993,-1.52135 0.47544,-1.12146 0.53823,-0.7782 0.11288,0.61705 -0.0817,0.26818 0.13105,-0.0234 0.47291,-0.64791 0.34185,-0.62454 0.68063,-1.07644 0.75284,-1.00422 0.0722,0.0722 0.27663,-0.10142 0.45426,-0.38584 0.27436,-0.43933 0.25295,-0.51774 -0.14231,-0.52118 -0.30112,-0.003 -0.35712,-0.0729 -0.15873,-0.1991 0.16923,-0.10768 0.2812,-0.69117 0.24998,-1.30263 -0.0311,-0.60916 0.031,-1.05347 0.13797,-0.98735 0.10699,0.0661 0.17309,-0.28792 0.1469,-0.78675 -0.0693,-1.31921 -0.47251,-1.04338 -1.12082,0.7667 -0.3128,0.87333 -0.82438,2.08897 -1.13683,2.70144 -0.31246,0.61246 -0.56811,1.58004 -0.56811,2.15017 0,0.74949 -0.14986,1.13715 -0.54108,1.39961 -0.54121,0.36308 -1.42402,3.18815 -1.80151,5.76495 -0.0942,0.64274 -0.31996,1.21821 -0.5018,1.27882 -0.18183,0.0606 -0.33061,0.0339 -0.33061,-0.0593 z m 2.91042,-3.87833 c 0,-0.10912 -0.11906,-0.27198 -0.26458,-0.36192 -0.14552,-0.0899 -0.26459,0.0123 -0.26459,0.22733 0,0.21496 -0.0692,0.60894 -0.15389,0.87551 -0.14082,0.4435 -0.11835,0.44104 0.26459,-0.0289 0.23016,-0.28248 0.41847,-0.60287 0.41847,-0.71199 z m 0.50652,-2.74317 c 0.008,-0.14552 -0.10087,-0.086 -0.24194,0.13229 -0.14106,0.21828 -0.24993,0.57547 -0.24193,0.79375 0.0153,0.41906 0.45632,-0.42486 0.48387,-0.92604 z m 12.19348,0.91042 c 0,-0.1541 0.13689,-0.19559 0.3042,-0.0922 0.16732,0.1034 0.71579,0.22494 1.21884,0.27008 0.7966,0.0715 0.89711,0.015 0.7788,-0.43735 -0.0747,-0.28567 -0.0279,-0.45269 0.10408,-0.37114 0.13195,0.0816 0.23991,0.0368 0.23991,-0.0995 0,-0.37643 -0.73734,-0.90785 -1.01852,-0.73407 -0.13637,0.0843 -0.32836,-0.16715 -0.42664,-0.55874 -0.12392,-0.49372 -0.24294,-0.60802 -0.38828,-0.37286 -0.16143,0.2612 -0.24774,0.23968 -0.37566,-0.0937 -0.0971,-0.25295 -0.0574,-0.36563 0.0955,-0.27115 0.33549,0.20735 0.33326,-0.67212 -0.003,-1.1925 -0.22798,-0.35278 -0.25738,-0.35278 -0.26458,0 -0.007,0.35278 -0.0366,0.35278 -0.26459,0 -0.14106,-0.21828 -0.25648,-0.51594 -0.25648,-0.66146 0,-0.14552 0.11542,-0.086 0.25648,0.13229 0.44109,0.68254 0.29051,-0.12718 -0.41339,-2.22298 -0.3969,-1.1817 -0.6091,-2.2637 -0.51184,-2.60978 0.1199,-0.42663 0.095,-0.48827 -0.0894,-0.22143 -0.19214,0.27806 -0.35796,0.0484 -0.6686,-0.92604 -0.33825,-1.06103 -0.3914,-1.12803 -0.29331,-0.36977 l 0.11979,0.92604 -0.37442,-0.92604 c -0.20594,-0.50932 -0.38531,-0.74744 -0.39861,-0.52916 -0.0383,0.62901 -0.54087,-0.26149 -0.5226,-0.92605 0.0145,-0.52837 0.0148,-0.52838 0.22072,-0.001 0.16105,0.41261 0.24735,0.25355 0.39437,-0.72683 0.10351,-0.69027 0.11022,-1.38121 0.0149,-1.53543 -0.0953,-0.15422 -0.0882,-0.60106 0.0157,-0.99297 l 0.18905,-0.71257 0.32424,0.92605 0.32424,0.92604 -0.0254,-1.25671 c -0.0139,-0.69118 -0.11466,-1.25673 -0.2238,-1.25677 -0.10914,7e-5 -0.19844,0.1191 -0.19844,0.26462 0,0.38785 -0.79001,0.3237 -0.81464,-0.0661 -0.0158,-0.25009 -0.0546,-0.24667 -0.15901,0.014 -0.10336,0.25798 -0.22917,0.22469 -0.49987,-0.13229 -0.33938,-0.44758 -0.36225,-0.44844 -0.37015,-0.014 -0.006,0.34899 -0.23105,0.46302 -0.9124,0.46302 -0.4972,0 -0.95926,-0.14882 -1.0268,-0.33073 -0.14633,-0.39408 -0.71504,0.93487 -0.71504,1.67087 0,0.28157 -0.0893,0.49785 -0.19844,0.48061 -0.99581,-0.15723 -1.54806,0.58569 -1.45346,1.95528 0.0178,0.25781 -0.0795,0.39961 -0.2162,0.31512 -0.1371,-0.0847 -0.24857,0.26495 -0.24857,0.77973 0,0.68606 -0.097,0.89613 -0.36609,0.79287 -0.27634,-0.10604 -0.21963,0.30666 0.23126,1.68324 0.32855,1.00304 0.73561,2.08203 0.90457,2.39774 0.20029,0.37423 0.21188,0.57402 0.0333,0.57402 -0.15064,0 -0.27389,0.1318 -0.27389,0.29289 0,0.16109 0.17765,0.22472 0.39478,0.1414 0.25976,-0.0997 0.54094,0.13112 0.82206,0.67475 0.98649,1.90767 3.91961,4.3876 5.89757,4.98637 0.97134,0.29404 1.08767,0.2913 1.08767,-0.0256 z m -0.73663,-5.99517 c -0.90155,-2.38125 -1.16035,-3.24722 -1.06022,-3.54762 0.0618,-0.18527 0.42583,0.66522 0.80905,1.88998 0.67043,2.14263 0.82765,3.18029 0.25117,1.65764 z m -6.93629,-2.72046 c -0.16465,-0.61146 -0.24757,-1.16354 -0.18427,-1.22683 0.0633,-0.0633 0.24363,0.39136 0.40075,1.01035 0.15712,0.619 0.24004,1.17107 0.18428,1.22684 -0.0558,0.0558 -0.23611,-0.3989 -0.40076,-1.01036 z m -0.213,-3.83646 c 0.005,-0.43656 0.0647,-0.58312 0.13177,-0.32569 0.0671,0.25743 0.0627,0.61462 -0.01,0.79375 -0.0725,0.17913 -0.12736,-0.0315 -0.12197,-0.46806 z m 4.34673,-1.06856 c -0.0907,-0.23646 -0.15302,-0.74761 -0.1384,-1.13589 0.0214,-0.56789 0.0739,-0.5041 0.26875,0.32616 0.24839,1.05865 0.16469,1.5786 -0.13035,0.80973 z m 0.40596,-1.1804 c 0,-0.3638 0.0601,-0.51263 0.13346,-0.33073 0.0734,0.18191 0.0734,0.47956 0,0.66146 -0.0734,0.1819 -0.13346,0.0331 -0.13346,-0.33073 z m -2.91041,-0.52916 c 0,-0.36381 0.0601,-0.51263 0.13345,-0.33073 0.0734,0.1819 0.0734,0.47955 0,0.66146 -0.0734,0.1819 -0.13345,0.0331 -0.13345,-0.33073 z m 9.86287,15.0878 c 0.37328,-0.14192 0.68809,-0.46935 0.69957,-0.72761 0.0115,-0.25826 0.0767,-0.33338 0.14498,-0.16693 0.16642,0.40589 1.15705,0.12746 1.15705,-0.32519 0,-0.19777 -0.16549,-0.29421 -0.37011,-0.21569 -0.4984,0.19125 -0.64591,-0.15279 -0.40833,-0.95238 0.16515,-0.55586 0.20371,-0.57698 0.2415,-0.1323 l 0.045,0.52917 0.22739,-0.52917 c 0.20876,-0.4858 0.22924,-0.47496 0.25004,0.1323 0.0183,0.53449 0.0742,0.58527 0.29121,0.26458 0.19794,-0.29249 0.22604,-0.18811 0.10684,0.39687 -0.12321,0.60473 -0.0946,0.69924 0.12021,0.39688 0.2506,-0.35278 0.28478,-0.35278 0.30756,0 0.0141,0.21828 0.19486,0.01 0.40169,-0.46302 0.37165,-0.84983 0.84281,-1.24317 0.53816,-0.44928 -0.0904,0.23546 -0.046,0.34166 0.10398,0.24897 0.14386,-0.0889 0.26338,-0.36298 0.26561,-0.60906 0.003,-0.35068 0.053,-0.37008 0.23071,-0.0897 0.17845,0.28161 0.31401,0.23296 0.63744,-0.22882 0.22594,-0.32257 0.34901,-0.78118 0.27351,-1.01913 -0.10615,-0.33451 -0.0797,-0.35208 0.11682,-0.0775 0.19924,0.27847 0.3679,0.19276 0.78099,-0.39688 0.28977,-0.41363 0.46886,-0.91745 0.39797,-1.11961 -0.0786,-0.22425 -0.0124,-0.29553 0.17002,-0.18282 0.31329,0.19362 0.38467,-0.0702 0.31638,-1.16941 -0.0281,-0.45311 0.0319,-0.55432 0.1906,-0.3213 0.26065,0.38269 0.8532,-1.26652 0.84621,-2.35523 -0.003,-0.51913 -0.0541,-0.56052 -0.28686,-0.23389 -0.21436,0.30082 -0.24563,0.18192 -0.12922,-0.49123 0.0877,-0.5069 2.7e-4,-1.24509 -0.20349,-1.71979 -1.25631,-2.92604 -1.70102,-3.76598 -2.70363,-5.10642 -0.65492,-0.8756 -1.05785,-1.66453 -0.96874,-1.89675 0.0993,-0.25879 0.0445,-0.33082 -0.15696,-0.2063 -0.17026,0.10522 -0.30955,0.0534 -0.30955,-0.11503 0,-0.16849 -0.3485,-0.63188 -0.77444,-1.02977 -0.6905,-0.64503 -0.78792,-0.67193 -0.89873,-0.24818 -0.0684,0.2614 0.042,0.61329 0.24527,0.78198 0.20326,0.16868 0.36957,0.43394 0.36957,0.58946 0,0.15552 -0.18832,0.0516 -0.41848,-0.23083 -0.35731,-0.43853 -0.3972,-0.44592 -0.27289,-0.0506 0.20022,0.63677 0.0376,0.583 -0.80008,-0.26459 -0.39551,-0.40018 -0.59394,-0.54901 -0.44096,-0.33073 0.20923,0.29854 0.14682,0.52799 -0.25191,0.92604 l -0.53006,0.52917 0.30497,-0.58936 c 0.25608,-0.49486 0.24037,-0.56456 -0.098,-0.43471 -0.3665,0.14064 -0.44588,0.30676 -0.3804,0.79605 0.0124,0.0929 -0.0973,0.24295 -0.2438,0.3335 -0.15763,0.0974 0.0679,0.67586 0.55252,1.41679 0.91191,1.39431 1.35872,1.51994 0.51675,0.14529 -0.4363,-0.71233 -0.47153,-0.93199 -0.19066,-1.18863 0.18949,-0.17316 0.41675,-0.24261 0.50502,-0.15434 0.0883,0.0883 0.16049,0.0321 0.16049,-0.12479 0,-0.3243 0.67345,-0.28637 0.98453,0.0555 0.11335,0.12456 0.0573,0.14082 -0.12464,0.0361 -0.1819,-0.10468 -0.33073,-0.0572 -0.33073,0.10549 0,0.16269 -0.11906,0.22223 -0.26458,0.13229 -0.37355,-0.23086 -0.32912,0.21755 0.0661,0.66767 0.18191,0.20714 0.0628,0.15297 -0.26458,-0.12039 -0.76545,-0.63904 -0.74949,-0.49291 0.11508,1.05398 0.56306,1.00742 0.61794,1.23556 0.26459,1.09996 -0.54025,-0.20731 -0.55076,-0.10317 -0.0825,0.81765 0.19985,0.39295 0.44222,1.01212 0.5386,1.37592 0.18671,0.7047 -0.0544,0.28945 -1.66679,-2.87104 -0.47152,-0.92424 -0.91546,-1.62227 -0.98654,-1.5512 -0.0711,0.0711 0.11487,0.52961 0.41321,1.01896 0.60954,0.9998 0.69529,1.41109 0.23487,1.12653 -0.21813,-0.13481 -0.24833,-0.0417 -0.10228,0.31512 0.58026,1.41773 0.36373,1.36197 -0.3452,-0.0889 -0.80334,-1.6441 -1.29736,-2.19577 -0.94773,-1.05833 0.21049,0.68475 0.0567,0.58542 -0.37258,-0.24066 -0.31013,-0.59681 -0.0255,-0.71144 0.67678,-0.27256 0.22758,0.14223 0.29107,-0.0118 0.22112,-0.53661 -0.13375,-1.00341 -0.41524,-1.66215 -0.71026,-1.66215 -0.14306,0 -0.13356,0.20932 0.0228,0.50138 0.19986,0.37343 0.16684,0.58561 -0.12938,0.83146 -0.21873,0.18153 -0.43431,0.28333 -0.47904,0.22621 -0.0447,-0.0571 -0.29464,-0.4015 -0.55533,-0.7653 -0.34987,-0.48825 -0.42296,-0.52289 -0.27913,-0.1323 0.10718,0.29105 0.24973,0.7673 0.31678,1.05834 0.12028,0.52207 0.11633,0.52228 -0.2946,0.0156 -0.40772,-0.50275 -0.41651,-0.50103 -0.41651,0.0818 0,0.32745 -0.1089,0.52805 -0.24199,0.4458 -0.13309,-0.0823 -0.30262,1e-5 -0.37673,0.18282 -0.10233,0.25241 -0.20926,0.23689 -0.44443,-0.0645 -0.26326,-0.33738 -0.28611,-0.32422 -0.15244,0.0878 0.0865,0.26656 0.16087,0.62375 0.1653,0.79375 0.004,0.17 0.12538,0.10793 0.26878,-0.13793 0.1598,-0.27399 0.48466,-0.4039 0.83925,-0.33561 0.31818,0.0613 0.68255,-0.0352 0.8097,-0.21444 0.17123,-0.24136 0.20451,-0.22723 0.12835,0.0545 -0.0565,0.20919 0.0596,0.56637 0.25808,0.79375 0.1985,0.22738 0.60286,0.71107 0.89858,1.07487 0.51739,0.63651 0.52526,0.53707 0.0576,-0.7276 -0.12399,-0.3353 -0.0885,-0.38737 0.12874,-0.18876 0.3722,0.34029 2.19238,5.44691 2.07113,5.81066 -0.0486,0.14579 -0.2726,-0.2707 -0.49779,-0.92555 l -0.40944,-1.19062 -0.28957,0.7276 c -0.15926,0.40018 -0.34831,0.7276 -0.4201,0.7276 -0.15168,0 0.11134,-0.80333 0.38983,-1.19062 0.23447,-0.32608 0.0814,-1.36206 -0.28768,-1.94645 -0.21631,-0.34254 -0.23735,-0.29444 -0.0992,0.22666 0.19124,0.72116 0.1935,0.74229 0.14173,1.32291 -0.0287,0.32216 -0.0778,0.32988 -0.26092,0.041 -0.16627,-0.26235 -0.27154,-0.17259 -0.40058,0.34155 -0.0963,0.38358 -0.28584,0.62894 -0.42126,0.54525 -0.13542,-0.0837 -0.11426,0.23885 0.047,0.71678 0.38734,1.14771 0.59781,1.33563 0.38058,0.33979 -0.15184,-0.69608 -0.13479,-0.72864 0.13861,-0.26458 0.17146,0.29104 0.38145,0.58869 0.46665,0.66145 0.30296,0.25874 0.26697,1.60624 -0.0379,1.41784 -0.19333,-0.11949 -0.23333,-0.0235 -0.11678,0.28019 0.0975,0.25406 0.17908,0.66054 0.1813,0.9033 0.003,0.34559 0.053,0.36415 0.2296,0.0855 0.29638,-0.46765 0.6276,0.77196 0.43089,1.61264 -0.17343,0.74117 0.53604,3.14852 0.76026,2.57969 0.086,-0.21828 0.31644,-0.86673 0.512,-1.441 0.30761,-0.90327 0.37609,-0.96568 0.50763,-0.46265 0.0836,0.31981 0.059,0.52393 -0.0548,0.45361 -0.11378,-0.0703 -0.35916,0.43554 -0.54528,1.12412 -0.43544,1.61092 -0.539,1.78198 -0.81503,1.34636 -0.15975,-0.25213 -0.22866,-0.14706 -0.23151,0.35301 -0.004,0.758 -0.41504,1.23002 -0.59654,0.68554 -0.0597,-0.17905 -0.17776,-0.0607 -0.26241,0.26294 -0.17134,0.65524 -0.0199,0.70682 0.96997,0.33045 z m 2.55166,-3.33589 c 0.0127,-0.30823 0.0754,-0.37092 0.15985,-0.15986 0.0764,0.191 0.067,0.4192 -0.0209,0.50712 -0.0879,0.0879 -0.15045,-0.0683 -0.13896,-0.34726 z m -0.67411,-1.03629 c -0.10271,-0.58208 -0.24156,-1.29646 -0.30856,-1.5875 -0.0982,-0.42669 -0.0719,-0.45075 0.13603,-0.12424 0.14182,0.22271 0.29633,0.57989 0.34336,0.79375 0.047,0.21385 0.19703,0.46911 0.33332,0.56724 0.15191,0.10938 0.13845,0.41652 -0.0348,0.79375 -0.26696,0.58126 -0.29295,0.55672 -0.46934,-0.443 z m -1.3212,-1.14529 c -0.10312,-0.46951 -0.054,-1.02072 0.11504,-1.292 0.23831,-0.38233 0.26422,-0.29542 0.13504,0.45292 -0.11862,0.68718 -0.0885,0.82367 0.11673,0.52916 0.24586,-0.35277 0.27659,-0.35277 0.27659,0 0,0.21828 -0.1043,0.56156 -0.23177,0.76283 -0.17076,0.26962 -0.27912,0.15038 -0.41163,-0.45291 z m 5.96406,-1.52259 c 0.0127,-0.30823 0.0754,-0.37092 0.15985,-0.15985 0.0764,0.19099 0.067,0.4192 -0.0209,0.50712 -0.0879,0.0879 -0.15045,-0.0684 -0.13896,-0.34727 z m 0.81463,-1.43316 c 0,-0.3638 0.0601,-0.51263 0.13346,-0.33073 0.0734,0.1819 0.0734,0.47956 0,0.66146 -0.0734,0.1819 -0.13346,0.0331 -0.13346,-0.33073 z m -0.55005,-0.15434 c 0.0127,-0.30823 0.0754,-0.37092 0.15985,-0.15985 0.0764,0.19099 0.067,0.4192 -0.0209,0.50712 -0.0879,0.0879 -0.15046,-0.0684 -0.13897,-0.34727 z m -6.08542,-0.26458 c 0.0127,-0.30823 0.0754,-0.37092 0.15986,-0.15986 0.0764,0.191 0.067,0.4192 -0.0209,0.50712 -0.0879,0.0879 -0.15045,-0.0683 -0.13897,-0.34726 z m 0.94926,-5.31372 c -0.097,-0.097 -0.17278,-0.3649 -0.16835,-0.59531 0.007,-0.34404 0.0582,-0.33261 0.28884,0.0639 0.28489,0.48993 0.2023,0.85417 -0.12049,0.53137 z m 3.1198,-0.38774 c -0.12332,-0.38854 -0.24092,-0.464 -0.37785,-0.24245 -0.11357,0.18377 -0.18625,-0.017 -0.16951,-0.4682 0.0161,-0.43443 0.11859,-0.73501 0.22773,-0.66797 0.10914,0.067 0.20266,-0.034 0.20781,-0.22445 0.005,-0.19049 0.16017,-0.0747 0.34448,0.25727 0.18431,0.33198 0.42451,0.51421 0.53377,0.40494 0.10928,-0.10927 0.11475,0.02 0.0122,0.28733 -0.17135,0.44652 -0.21637,0.43512 -0.55419,-0.14036 l -0.36769,-0.62636 0.17963,0.66146 c 0.0988,0.36381 0.23557,0.81029 0.30393,0.99219 0.0684,0.1819 0.06,0.33073 -0.0185,0.33073 -0.0785,0 -0.22334,-0.25386 -0.32181,-0.56413 z m -4.71872,-0.10756 c -0.25531,-0.66534 -0.17999,-0.83702 0.13191,-0.30065 0.15443,0.26557 0.22505,0.5386 0.15693,0.60672 -0.0681,0.0681 -0.1981,-0.0696 -0.28884,-0.30607 z m 2.47078,-0.67099 c -0.30251,-0.59296 -0.5071,-1.20682 -0.45466,-1.36414 0.0524,-0.15732 0.35045,0.32782 0.66225,1.0781 0.67786,1.63111 0.56086,1.79233 -0.20759,0.28604 z m 0.41204,-1.60532 c -0.40806,-0.74973 -0.6059,-1.27908 -0.43965,-1.17634 0.16625,0.10275 0.30227,0.038 0.30227,-0.14395 0,-0.18192 0.17481,-0.0997 0.38846,0.18282 0.28868,0.38167 0.39062,0.41352 0.39688,0.12399 0.006,-0.26842 0.13183,-0.21339 0.40523,0.17694 0.21825,0.3116 0.32484,0.75413 0.23686,0.9834 -0.16535,0.4309 -0.63368,0.32706 -0.63368,-0.14051 0,-0.14552 0.1177,-0.19184 0.26156,-0.10293 0.15286,0.0945 0.19253,-0.0182 0.0955,-0.27115 -0.13293,-0.34639 -0.21075,-0.36234 -0.3898,-0.0799 -0.18275,0.28831 -0.22445,0.28429 -0.22776,-0.0219 -0.002,-0.20615 -0.0724,-0.30651 -0.15585,-0.22303 -0.0835,0.0835 0.0444,0.53112 0.28409,0.99473 0.73453,1.42042 0.26664,1.15066 -0.52408,-0.30217 z m -5.27029,13.66749 c 0,-0.50721 -0.0811,-0.791 -0.18018,-0.63066 -0.26185,0.42368 -1.10696,-2.30756 -0.90799,-2.93445 0.0924,-0.29102 0.0452,-0.73988 -0.10474,-0.99748 -0.16632,-0.28569 -0.27581,-0.33328 -0.28072,-0.12201 -0.005,0.19628 -0.14216,0.26345 -0.31759,0.15503 -0.20342,-0.12572 -0.25571,-0.051 -0.15252,0.21789 0.0864,0.22505 0.39348,1.16732 0.68249,2.09392 0.61003,1.95587 1.05324,3.13994 1.17532,3.13994 0.0473,0 0.0859,-0.41498 0.0859,-0.92218 z m -1.46078,-3.99466 c 0.0127,-0.30823 0.0754,-0.37092 0.15985,-0.15986 0.0764,0.191 0.067,0.4192 -0.0209,0.50712 -0.0879,0.0879 -0.15045,-0.0683 -0.13896,-0.34726 z m 2.7386,2.33715 c -0.0435,-0.98227 -0.32367,-2.50031 -0.62257,-3.37344 -0.2989,-0.87312 -0.4824,-1.28984 -0.40778,-0.92604 0.3654,1.78138 0.35796,2.12832 -0.0207,0.96424 -0.69224,-2.12827 -0.71535,-1.19826 -0.0294,1.18348 0.35131,1.21985 0.72201,2.60486 0.82378,3.0778 0.10176,0.47294 0.21894,0.8599 0.26039,0.8599 0.0414,0 0.0398,-0.80368 -0.004,-1.78594 z m -0.51053,-1.12448 c -0.10046,-0.45737 -0.1275,-0.88674 -0.0601,-0.95415 0.0674,-0.0674 0.19863,0.25778 0.2916,0.72264 0.22057,1.10285 0.007,1.3166 -0.23151,0.23151 z m 1.05833,1.85208 c -0.10046,-0.45737 -0.24218,-0.77205 -0.31494,-0.69929 -0.0728,0.0728 -0.0501,0.5065 0.0504,0.96388 0.10045,0.45737 0.24218,0.77205 0.31494,0.69929 0.0728,-0.0728 0.0501,-0.5065 -0.0504,-0.96388 z m -1.6064,-1.43631 c -0.0973,-0.38775 -0.22797,-0.65397 -0.29033,-0.5916 -0.0624,0.0624 -0.0338,0.43064 0.0635,0.81839 0.0973,0.38775 0.22797,0.65397 0.29033,0.59161 0.0624,-0.0624 0.0338,-0.43065 -0.0635,-0.8184 z m -22.86756,-0.94494 c 0.21828,-0.14106 0.27782,-0.25648 0.13229,-0.25648 -0.14552,0 -0.44317,0.11542 -0.66145,0.25648 -0.21828,0.14107 -0.27782,0.25648 -0.1323,0.25648 0.14553,0 0.44318,-0.11541 0.66146,-0.25648 z m 7.40428,-0.87551 c 0.002,-0.11773 -0.11501,-0.14047 -0.26053,-0.0505 -0.14552,0.0899 -0.26276,0.36486 -0.26053,0.61093 0.003,0.38557 0.0395,0.39255 0.26053,0.0505 0.14107,-0.21828 0.25831,-0.4932 0.26053,-0.61093 z m 14.43198,-1.3904 c -0.25204,-0.83747 -0.29893,-1.38558 -0.13276,-1.55175 0.38851,-0.38851 0.30786,-0.68319 -0.13996,-0.51135 -0.22475,0.0863 -0.39687,0.006 -0.39687,-0.18469 0,-0.18535 -0.0668,-0.27021 -0.14841,-0.18859 -0.0816,0.0816 0.11049,1.00077 0.42692,2.04253 0.31643,1.04177 0.62155,1.8479 0.67805,1.7914 0.0565,-0.0565 -0.0726,-0.68539 -0.28697,-1.39755 z m -24.78051,-0.37151 c 0.0914,0.005 -0.065,0.18323 -0.34746,0.39688 -0.67675,0.51187 -0.43599,0.49164 0.66083,-0.0555 l 0.89,-0.44399 -1.04779,-0.46243 c -0.57628,-0.25434 -0.87911,-0.47126 -0.67296,-0.48205 0.20616,-0.0108 0.31281,-0.0816 0.23701,-0.15744 -0.0758,-0.0758 -0.6612,0.0944 -1.30087,0.37818 -0.63968,0.28381 -1.00639,0.52442 -0.81493,0.5347 0.19147,0.0103 0.58,-0.10541 0.86341,-0.25708 0.31431,-0.16822 0.67999,-0.18359 0.9376,-0.0394 0.38349,0.21461 0.38191,0.25186 -0.0172,0.40503 -0.2583,0.0991 -0.37292,0.0608 -0.27793,-0.0929 0.22565,-0.36511 -0.14777,-0.31065 -0.92792,0.13532 -0.3638,0.20797 -0.5056,0.38234 -0.31511,0.3875 0.19049,0.005 0.26898,0.13455 0.17443,0.28754 -0.0946,0.15299 0.27014,0.0935 0.81044,-0.13229 0.5403,-0.22575 1.05712,-0.40667 1.14849,-0.40205 z m 25.45629,-1.62364 c -0.13942,-0.34855 -0.26104,-0.49464 -0.27027,-0.32464 -0.0224,0.41291 0.28582,1.19632 0.41848,1.06365 0.0579,-0.0579 -0.009,-0.39046 -0.14821,-0.73901 z m -25.73397,-1.70962 c 3.10252,-1.67297 3.88482,-2.21287 2.6287,-1.81419 -0.51217,0.16256 -0.54705,0.13263 -0.25522,-0.219 0.18591,-0.22401 -1.04107,0.33994 -2.72663,1.25322 -3.37267,1.82741 -4.39755,2.53273 -1.75596,1.20844 0.92423,-0.46334 1.74001,-0.78285 1.81283,-0.71002 0.0728,0.0728 -0.68336,0.55101 -1.68042,1.06264 -0.99705,0.51163 -1.68512,0.93609 -1.52903,0.94325 0.15609,0.007 1.73367,-0.7688 3.50573,-1.72434 z m 0.79277,-1.06915 c 0.62849,-0.37665 1.19918,-0.62835 1.26819,-0.55933 0.12777,0.12777 -1.87339,1.25123 -2.22061,1.24666 -0.10466,-0.001 0.32393,-0.31067 0.95242,-0.68733 z m -0.21667,1.48358 c 0.21828,-0.14106 0.27781,-0.25648 0.13229,-0.25648 -0.14552,0 -0.44318,0.11542 -0.66146,0.25648 -0.21828,0.14107 -0.27781,0.25648 -0.13229,0.25648 0.14552,0 0.44318,-0.11541 0.66146,-0.25648 z m 23.28208,-0.71763 c -0.28829,-0.44961 -0.29576,-0.44903 -0.15102,0.0117 0.0838,0.26656 0.16167,0.62375 0.17316,0.79375 0.0151,0.22308 0.0571,0.21983 0.15102,-0.0117 0.0716,-0.17642 -0.006,-0.53361 -0.17316,-0.79375 z m 1.32417,-1.26674 c 0,-0.0416 -0.17859,-0.14421 -0.39688,-0.22797 -0.23932,-0.0918 -0.39687,-0.001 -0.39687,0.22797 0,0.22931 0.15755,0.31981 0.39687,0.22797 0.21829,-0.0838 0.39688,-0.18635 0.39688,-0.22797 z m -23.68208,-0.65843 c 0.0927,-0.14998 -0.0135,-0.19434 -0.24897,-0.10398 -0.45837,0.17589 -0.54223,0.36553 -0.16165,0.36553 0.13693,0 0.32171,-0.1177 0.41062,-0.26155 z m 24.24354,-0.44621 c -0.3119,-0.53636 -0.38722,-0.36469 -0.1319,0.30066 0.0907,0.23646 0.22071,0.37419 0.28884,0.30607 0.0681,-0.0681 -0.002,-0.34115 -0.15694,-0.60673 z m -10.50559,-0.2557 c 0.13935,-0.36314 0.10063,-0.3795 -0.23627,-0.0999 -0.45912,0.38104 -0.5069,0.5342 -0.16666,0.5342 0.12995,0 0.31127,-0.19544 0.40293,-0.4343 z m 2.26716,-0.16102 c -0.003,-0.48139 -0.0531,-0.51936 -0.26053,-0.19843 -0.3315,0.51296 -0.3315,0.79375 0,0.79375 0.14552,0 0.26276,-0.26789 0.26053,-0.59532 z m 5.47646,-0.24804 c -0.0845,-0.21107 -0.14716,-0.14838 -0.15985,0.15985 -0.0115,0.27891 0.051,0.43518 0.13896,0.34727 0.0879,-0.0879 0.0973,-0.31613 0.0209,-0.50712 z m 4.34947,-0.39357 c -0.3119,-0.53637 -0.38722,-0.36469 -0.1319,0.30066 0.0907,0.23645 0.22071,0.37419 0.28884,0.30606 0.0681,-0.0681 -0.002,-0.34114 -0.15694,-0.60672 z m -10.08667,-0.21788 c 0.19458,-0.36358 0.28301,-0.73184 0.19651,-0.81834 -0.0865,-0.0865 -0.34771,0.21097 -0.58046,0.66106 -0.23275,0.45008 -0.32118,0.81834 -0.19651,0.81834 0.12467,0 0.38587,-0.29748 0.58046,-0.66106 z m -11.46507,-1.31168 c 0,-0.21188 -0.10116,-0.32271 -0.2248,-0.2463 -0.12364,0.0764 -0.1563,0.24977 -0.0726,0.38524 0.21395,0.34617 0.29738,0.30719 0.29738,-0.13894 z m 8.29028,-1.8679 c 0,-0.21598 -0.12609,-0.3927 -0.2802,-0.3927 -0.15411,0 -0.21495,0.10557 -0.1352,0.23461 0.0797,0.12903 -0.031,0.38064 -0.24606,0.55914 -0.21508,0.1785 -0.3258,0.43012 -0.24605,0.55915 0.0797,0.12903 0.0316,0.2346 -0.1069,0.2346 -0.13854,0 -0.32505,0.20836 -0.41447,0.46302 -0.0894,0.25467 0.19551,0.0742 0.63316,-0.40105 0.43764,-0.47523 0.79572,-1.04078 0.79572,-1.25677 z m -7.40833,1.31148 c 0,-0.22687 -0.12101,-0.3377 -0.2689,-0.2463 -0.1479,0.0914 -0.2004,0.27702 -0.11668,0.41249 0.22681,0.36699 0.38558,0.29856 0.38558,-0.16619 z m 16.8512,-0.40216 c -0.10164,-0.38867 -0.0395,-0.51002 0.21183,-0.41358 0.19562,0.0751 0.42754,-0.0508 0.51538,-0.2797 0.14184,-0.36963 0.21828,-0.36317 0.68335,0.0577 0.46032,0.41659 0.52365,0.42253 0.52365,0.0492 0,-0.23361 -0.15781,-0.51995 -0.35068,-0.63632 -0.39846,-0.24041 -0.79154,-1.13763 -0.49841,-1.13763 0.10595,0 0.34423,0.24274 0.52952,0.53943 0.18528,0.29669 0.44473,0.47278 0.57655,0.39131 0.13181,-0.0815 0.37424,0.0627 0.53871,0.32047 0.26852,0.42073 0.28674,0.40981 0.17851,-0.10693 -0.0914,-0.43649 -0.0214,-0.53748 0.28978,-0.41806 0.26989,0.10357 0.34485,0.0515 0.21902,-0.15209 -0.10522,-0.17025 -0.34442,-0.30955 -0.53156,-0.30955 -0.18714,0 -0.54498,-0.22622 -0.7952,-0.50271 -0.43872,-0.48478 -0.42196,-0.5027 0.47,-0.5027 0.54874,0 0.98277,0.15066 1.0671,0.37041 0.0782,0.20373 0.2947,0.36558 0.48117,0.35967 0.18647,-0.006 -0.0479,-0.34201 -0.52086,-0.74688 -0.47294,-0.40486 -0.8599,-0.83132 -0.8599,-0.94768 0,-0.11636 0.16606,-0.0738 0.36903,0.0947 0.20296,0.16844 0.53038,0.27232 0.7276,0.23083 0.19722,-0.0415 0.33258,0.0621 0.3008,0.2302 -0.12178,0.64415 0.6725,0.57806 0.83503,-0.0695 0.10614,-0.42292 0.27863,-0.58603 0.48728,-0.46076 0.17999,0.10806 0.15156,-0.0171 -0.0642,-0.28278 -0.23165,-0.28518 -0.42652,-0.35873 -0.48507,-0.18308 -0.15392,0.46175 -0.71922,0.34474 -1.26891,-0.26266 -0.27687,-0.30594 -0.84193,-0.73131 -1.25569,-0.94527 -0.67452,-0.34881 -0.80278,-0.34333 -1.24072,0.053 -0.27249,0.2466 -0.63086,0.35401 -0.81058,0.24294 -0.19406,-0.11994 -0.25389,-0.0887 -0.15048,0.0786 0.0944,0.15275 -0.016,0.34974 -0.24534,0.43776 -0.61309,0.23526 -2.54141,0.16046 -3.15184,-0.12227 -0.38516,-0.17838 -0.20514,-0.21338 0.66146,-0.12858 l 1.19062,0.11651 -1.19062,-0.27217 c -0.65485,-0.14969 -1.42875,-0.37795 -1.7198,-0.50725 -0.41293,-0.18344 -0.36868,-0.2011 0.20143,-0.0804 0.57265,0.12125 0.69821,0.0703 0.58076,-0.23578 -0.0824,-0.21476 -0.44094,-0.52311 -0.79674,-0.68522 -0.3558,-0.16211 -0.6469,-0.47589 -0.6469,-0.69729 0,-0.2214 -0.13946,-0.40255 -0.3099,-0.40255 -0.17044,0 -0.53576,-0.20441 -0.81183,-0.45424 -0.59925,-0.54232 -3.23096,-0.59995 -3.72348,-0.0815 -0.24873,0.26179 -0.17639,0.29331 0.34729,0.15131 0.50576,-0.13714 0.56804,-0.11395 0.26458,0.0985 -0.21828,0.15283 -0.635,0.28724 -0.92604,0.29869 -0.45615,0.0179 -0.43789,0.0596 0.13229,0.3018 l 0.66146,0.28097 -0.92604,0.26152 c -0.90866,0.2566 -0.91395,0.2661 -0.28186,0.50555 0.3543,0.13423 0.80079,0.18395 0.99219,0.11051 0.1914,-0.0735 0.348,0.0413 0.348,0.25502 0,0.21372 -0.2311,0.38858 -0.51355,0.38858 -0.28245,0 -0.58078,0.10878 -0.66295,0.24173 -0.0836,0.13526 0.23004,0.19034 0.71199,0.12506 0.83447,-0.11304 0.84485,-0.10294 0.33222,0.32302 -0.46143,0.38343 -0.46769,0.41843 -0.0488,0.27349 0.39995,-0.13841 0.4489,-0.0672 0.29256,0.42535 -0.17087,0.53837 -0.14628,0.55715 0.27344,0.20881 0.4371,-0.36275 0.43878,-0.32911 0.0323,0.64368 -0.40922,0.9794 -0.40738,1.00772 0.04,0.6178 0.66355,-0.57832 1.21436,-0.33534 0.83723,0.36933 -0.32019,0.59828 -0.0254,0.50606 0.93327,-0.29195 0.47562,-0.39592 0.49539,-0.38917 0.31113,0.10639 -0.22159,0.59592 -0.2327,0.66206 -0.18889,1.12447 0.0172,0.18191 0.2,0.33073 0.40616,0.33073 0.20615,0 0.43488,-0.14882 0.50828,-0.33073 0.0734,-0.1819 0.14285,-0.039 0.15434,0.3175 0.0383,1.18859 0.49657,0.19139 0.6555,-1.42639 0.0849,-0.86455 0.28899,-1.69799 0.45346,-1.85208 0.22167,-0.20768 0.2454,0.16483 0.0917,1.43962 -0.36298,3.01086 -0.22352,3.58882 0.67067,2.77959 0.51718,-0.46804 0.53146,-0.46405 0.55716,0.15596 l 0.0264,0.63632 0.21184,-0.66145 0.21184,-0.66146 0.0304,0.66146 c 0.0219,0.4768 0.0939,0.56124 0.25788,0.30248 0.15857,-0.25025 0.28228,-0.27028 0.40844,-0.0662 0.32133,0.51993 0.60862,0.3132 0.78806,-0.56706 l 0.17529,-0.8599 0.57125,0.99219 c 0.63926,1.11031 0.86451,1.2636 0.64969,0.44212 z m 0.23143,-1.37957 c 0.0994,-0.26094 0.2473,-0.40779 0.32877,-0.32632 0.0815,0.0815 1.7e-4,0.29495 -0.18066,0.47443 -0.2613,0.25936 -0.29169,0.22897 -0.14811,-0.14811 z m -6.4993,-1.09746 c 0,-0.20969 0.10796,-0.44798 0.23991,-0.52953 0.13195,-0.0816 0.17759,0.09 0.10143,0.38126 -0.16156,0.6178 -0.34134,0.6959 -0.34134,0.14827 z m 0.66146,-4.38124 c -0.85909,-0.56895 -1.31804,-0.68479 -1.06021,-0.26761 0.0966,0.15639 -0.0247,0.19006 -0.30174,0.0837 -0.2604,-0.0999 -0.33088,-0.22199 -0.16089,-0.27865 0.16637,-0.0555 0.22735,-0.3015 0.13552,-0.54676 -0.14188,-0.37892 -0.10375,-0.39457 0.25372,-0.10415 0.23137,0.18797 0.47228,0.2475 0.53534,0.13229 0.0631,-0.11522 0.0818,-0.0696 0.0416,0.10146 -0.0402,0.17102 0.42583,0.55788 1.03555,0.85969 0.60973,0.30181 0.92999,0.54805 0.71171,0.54721 -0.21828,-8e-4 -0.75406,-0.23809 -1.19062,-0.52722 z m 5.08772,1.69223 c -0.0879,-0.0879 -0.31613,-0.0973 -0.50712,-0.0209 -0.21107,0.0845 -0.14838,0.14715 0.15985,0.15985 0.27891,0.0115 0.43518,-0.0511 0.34727,-0.13897 z m 5.34127,-3.9934 c 0.0606,-0.044 -0.0155,-0.0801 -0.16913,-0.0801 -0.15365,0 -0.56044,0.2452 -0.90399,0.54487 l -0.62462,0.54487 0.79375,-0.46479 c 0.43656,-0.25563 0.84336,-0.50083 0.90399,-0.54487 z m -15.13086,0.55382 c -0.0879,-0.0879 -0.31612,-0.0973 -0.50712,-0.0209 -0.21106,0.0845 -0.14837,0.14716 0.15986,0.15986 0.27891,0.0115 0.43518,-0.0511 0.34726,-0.13897 z m -0.85438,-4.33806 c 0.0899,-0.14552 -0.0816,-0.26459 -0.38126,-0.26459 -0.29963,0 -0.54478,0.11907 -0.54478,0.26459 0,0.14552 0.17156,0.26458 0.38126,0.26458 0.20969,0 0.45484,-0.11906 0.54478,-0.26458 z m 1.5875,-0.79375 c -0.0899,-0.14552 -0.28259,-0.26459 -0.42811,-0.26459 -0.14552,0 -0.191,0.11907 -0.10106,0.26459 0.0899,0.14552 0.28259,0.26458 0.42811,0.26458 0.14552,0 0.19099,-0.11906 0.10106,-0.26458 z m 11.19369,-3.04971 c -0.0815,-0.0815 -0.22941,0.0654 -0.32877,0.32632 -0.14358,0.37708 -0.11319,0.40747 0.14812,0.14811 0.18082,-0.17948 0.26211,-0.39297 0.18065,-0.47443 z m 1.40199,-4.85159 c 0.38493,0.60757 0.26595,-0.16633 -0.19382,-1.26066 -0.42563,-1.0131 -0.43315,-1.01719 -0.67578,-0.36742 -0.16417,0.43966 -0.14159,0.87741 0.0682,1.32292 0.21054,0.44701 0.3562,0.5473 0.44323,0.30516 0.10944,-0.3045 0.16521,-0.3045 0.35813,0 z m 5.21259,-9.43591 c -0.0815,-0.0815 -0.2294,0.0654 -0.32876,0.32632 -0.14359,0.37708 -0.1132,0.40747 0.14811,0.14811 0.18082,-0.17948 0.26212,-0.39297 0.18065,-0.47443 z m -24.55515,42.10406 c 0,-0.0572 0.18478,-0.17489 0.41062,-0.26156 0.23546,-0.0904 0.34166,-0.046 0.24897,0.10399 -0.15538,0.25141 -0.65959,0.37185 -0.65959,0.15757 z m -9.38543,-2.89477 c 0.60565,-0.40955 1.44793,-0.74206 1.44793,-0.57162 0,0.14591 -1.4869,0.92454 -1.76552,0.92454 -0.11237,0 0.0305,-0.15881 0.31759,-0.35292 z m -3.01434,-2.49135 c -0.43794,-0.87012 -0.84337,-2.20092 -0.94712,-3.10886 -0.18323,-1.60358 0.11812,-3.6781 0.60501,-4.165 0.17531,-0.1753 0.17439,0.12564 -0.003,0.89188 -0.27151,1.17462 -0.17639,4.42129 0.14477,4.94093 0.12172,0.19696 0.46849,0.16251 1.12483,-0.11172 1.312,-0.54819 1.40605,-0.29389 0.10783,0.29153 -0.5796,0.26136 -0.98931,0.57959 -0.91046,0.70717 0.0789,0.12758 0.2726,0.1521 0.43055,0.0545 0.18455,-0.11406 0.20978,-0.0523 0.0706,0.17294 -0.16066,0.25995 -0.0932,0.3031 0.26113,0.16712 0.39767,-0.15261 0.42344,-0.11794 0.15383,0.20692 -0.17812,0.21463 -0.24647,0.63407 -0.15188,0.9321 0.32828,1.03432 -0.12476,0.53368 -0.88637,-0.97949 z m 1.23871,0.38924 c 0.32303,-0.38923 1.90065,-1.08968 1.90065,-0.84388 0,0.0622 -0.50502,0.37079 -1.12226,0.68569 -0.80485,0.4106 -1.025,0.45534 -0.77839,0.15819 z m 0.57773,-0.98456 c 0.21828,-0.14106 0.51594,-0.25648 0.66146,-0.25648 0.14552,0 0.086,0.11542 -0.13229,0.25648 -0.21828,0.14107 -0.51594,0.25648 -0.66146,0.25648 -0.14552,0 -0.086,-0.11541 0.13229,-0.25648 z m -0.6788,-0.23652 c 0.0818,-0.1323 0.53311,-0.37456 1.003,-0.53836 0.99054,-0.34531 0.6909,-0.005 -0.4072,0.46206 -0.40945,0.17426 -0.67756,0.2086 -0.5958,0.0763 z m 2.53088,-0.004 c 0.35278,-0.24949 0.35278,-0.28206 0,-0.29314 -0.31779,-0.01 -0.30253,-0.084 0.0766,-0.37158 0.43513,-0.33004 0.43899,-0.39359 0.0477,-0.78488 -0.39128,-0.39128 -0.36762,-0.44785 0.29226,-0.69874 0.39491,-0.15014 0.83832,-0.34734 0.98536,-0.43822 0.15203,-0.094 0.18592,-0.0335 0.0786,0.14024 -0.10384,0.168 -0.0825,0.30546 0.0473,0.30546 0.12986,0 0.2361,0.17336 0.2361,0.38524 0,0.21188 -0.0885,0.33056 -0.19661,0.26373 -0.10813,-0.0668 -0.39992,-0.0435 -0.64841,0.0519 -0.3981,0.15277 -0.38153,0.21098 0.13947,0.48981 0.51214,0.27409 0.53216,0.33911 0.14959,0.48591 -0.28785,0.11046 -0.37798,0.0665 -0.2588,-0.12639 0.11007,-0.17809 0.0365,-0.24711 -0.18469,-0.17336 -0.20216,0.0674 -0.36756,0.28127 -0.36756,0.4753 0,0.19402 -0.1786,0.40153 -0.39688,0.46111 -0.35277,0.0963 -0.35277,0.0772 0,-0.17234 z m 1.19763,-2.08976 c -0.0815,-0.0815 -0.29496,-1.7e-4 -0.47443,0.18065 -0.25936,0.26131 -0.22897,0.2917 0.14811,0.14812 0.26094,-0.0994 0.40778,-0.24731 0.32632,-0.32877 z m 5.68154,1.20742 c 0,-0.16713 2.8476,-2.05227 3.10006,-2.05227 0.18336,0 -0.59177,0.55795 -2.37246,1.70772 -0.40018,0.2584 -0.7276,0.41344 -0.7276,0.34455 z m 32.27917,-0.30761 c -1.66085,-0.37397 -3.59007,-1.1532 -3.37861,-1.36466 0.0782,-0.0782 0.90018,0.0922 1.82656,0.37879 2.16487,0.66967 4.19301,0.90337 5.74435,0.66189 1.09588,-0.17058 1.15874,-0.215 0.5702,-0.40294 -0.42983,-0.13727 -0.22136,-0.16147 0.59531,-0.0691 0.82689,0.0935 1.25677,0.0421 1.25677,-0.15026 0,-0.16082 0.14883,-0.27307 0.33073,-0.24945 0.92345,0.11992 0.97945,-0.12081 0.0661,-0.28433 l -1.05833,-0.1895 1.32292,-0.0688 c 1.18387,-0.0616 1.23948,-0.0901 0.52916,-0.27082 -0.71903,-0.18296 -0.67931,-0.20492 0.42202,-0.23328 0.81152,-0.0209 1.36136,-0.19219 1.65364,-0.51516 0.58851,-0.65029 0.55161,-0.84261 -0.15743,-0.82046 -0.57113,0.0178 -0.57382,0.0285 -0.0661,0.26233 0.4909,0.22612 0.49271,0.23912 0.025,0.17984 -0.27729,-0.0351 -0.53461,-0.27197 -0.57181,-0.52628 -0.0583,-0.39849 0.081,-0.43863 1.00771,-0.29044 0.77905,0.12458 1.02343,0.088 0.88692,-0.13292 -0.10458,-0.16921 -0.0343,-0.31316 0.15792,-0.32348 0.61171,-0.0328 -0.68495,-0.47269 -1.45031,-0.49197 -0.77055,-0.0194 -2.30439,-0.98068 -2.30439,-1.44419 0,-0.15296 0.13611,-0.13163 0.3175,0.0498 0.17462,0.17462 0.48892,0.3175 0.69843,0.3175 0.20952,0 0.51313,0.16421 0.67469,0.36491 0.16156,0.20071 0.83962,0.43386 1.50679,0.51811 1.18085,0.14914 1.22474,0.12868 1.65365,-0.77076 0.68742,-1.44154 0.46798,-2.29228 -0.34012,-1.31858 -0.20967,0.25264 -0.50246,0.31234 -0.86824,0.17703 -0.30353,-0.11228 -0.86036,-0.1391 -1.2374,-0.0596 -0.64666,0.13637 -0.63302,0.15435 0.24053,0.31731 0.85317,0.15915 0.82193,0.17516 -0.39687,0.20352 -1.75755,0.0409 -2.4657,-0.38349 -1.04003,-0.62328 1.72394,-0.28995 1.67259,-0.40688 -0.10924,-0.2487 -0.92313,0.082 -2.35188,0.0634 -3.175,-0.0412 l -1.49657,-0.19019 1.5875,-0.36041 c 0.87313,-0.19823 1.72498,-0.37779 1.89301,-0.39902 0.46414,-0.0587 0.0974,-0.74374 -0.39996,-0.74707 -0.23909,-0.002 -0.91096,-0.0595 -1.49305,-0.12856 -0.83912,-0.0996 -0.92132,-0.0771 -0.39687,0.10883 0.64163,0.22745 0.63615,0.23527 -0.18282,0.26085 -0.46436,0.0145 -0.9286,0.1628 -1.03166,0.32954 -0.12922,0.2091 0.01,0.25576 0.44741,0.15036 1.71731,-0.41342 2.68712,-0.51297 2.53062,-0.25976 -0.0908,0.14686 -0.73305,0.33978 -1.42731,0.42871 -0.69425,0.0889 -1.61947,0.20701 -2.05603,0.26239 -0.43657,0.0554 -0.53239,0.0503 -0.21295,-0.0114 0.74801,-0.14434 0.50823,-0.88068 -0.27838,-0.85488 -0.55371,0.0182 -0.5546,0.0244 -0.0378,0.26733 0.35438,0.16657 -0.12627,0.19771 -1.45521,0.0943 -1.0914,-0.0849 -2.10089,-0.26817 -2.24329,-0.40718 -0.29198,-0.285 1.81116,-0.15616 2.57402,0.15769 0.26269,0.10807 0.46302,0.0738 0.46302,-0.0791 0,-0.27416 -0.73222,-0.42193 -3.57187,-0.72085 -0.87313,-0.0919 -1.86082,-0.34241 -2.19488,-0.55667 -0.33405,-0.21425 -0.84007,-0.31569 -1.12447,-0.22543 -0.36295,0.11519 -0.51711,0.0405 -0.51711,-0.25059 0,-0.28617 0.25085,-0.4147 0.80936,-0.4147 0.51544,0 0.74481,-0.10446 0.6316,-0.28764 -0.0978,-0.15819 -0.38927,-0.23232 -0.64778,-0.16472 -0.6271,0.16399 -1.27087,-0.23651 -0.92326,-0.57437 0.40797,-0.39653 2.36481,-0.70127 2.13709,-0.33281 -0.12661,0.20486 0.1362,0.3025 0.82164,0.30525 0.72351,0.003 0.89826,0.0733 0.61946,0.24966 -0.27096,0.17138 0.0889,0.27499 1.19063,0.3428 1.43486,0.0883 1.37371,0.10504 -0.66999,0.18325 -2.32215,0.0889 -2.28867,0.12509 0.39687,0.42943 1.23804,0.1403 1.47102,0.23185 1.05834,0.41589 -0.34427,0.15353 0.14087,0.19359 1.38842,0.11465 1.86035,-0.11771 3.42932,-0.7236 2.66503,-1.02915 -0.19211,-0.0768 -0.0744,-0.14903 0.26164,-0.16052 0.35315,-0.0121 0.5403,0.0934 0.44355,0.24993 -0.10994,0.17788 0.20252,0.21168 0.91043,0.0985 0.72545,-0.11601 1.0778,-0.0748 1.0778,0.12605 0,0.16412 0.11533,0.2984 0.25628,0.2984 0.14095,0 0.18775,-0.17859 0.10399,-0.39688 -0.087,-0.22676 -0.50873,-0.40848 -0.98389,-0.42395 l -0.83159,-0.0271 0.92605,-0.21948 c 0.54801,-0.12989 0.96204,-0.11884 1.01423,0.0271 0.14115,0.39463 0.83785,0.28426 0.83785,-0.13273 0,-0.21067 0.32347,-0.4283 0.7276,-0.48953 0.65315,-0.0989 0.63284,-0.11748 -0.19844,-0.18116 l -0.92604,-0.0709 0.79375,-0.22368 c 0.69092,-0.19469 0.64807,-0.21104 -0.33079,-0.12615 -0.62868,0.0545 -1.05929,-0.008 -0.97657,-0.1419 0.0814,-0.13168 -0.24601,-0.24881 -0.72754,-0.2603 -0.48153,-0.0115 -0.71772,-0.0839 -0.52486,-0.16098 0.19286,-0.077 1.11559,-0.0582 2.05052,0.0419 1.20683,0.12925 1.69987,0.29105 1.69987,0.55786 0,0.22448 0.26636,0.37582 0.66146,0.37582 0.44561,0 0.66827,0.15109 0.68234,0.46302 0.0125,0.2766 0.0746,0.32986 0.15434,0.13229 0.0734,-0.1819 0.39143,-0.32236 0.70672,-0.31213 0.50774,0.0165 0.51811,0.0403 0.0907,0.20876 -0.26543,0.1046 -0.46498,0.29994 -0.44344,0.4341 0.0215,0.13416 -0.17801,0.34031 -0.44344,0.45812 -0.39398,0.17487 -0.37329,0.19346 0.11271,0.10125 0.32742,-0.0621 0.59531,-0.005 0.59531,0.12686 0,0.13189 0.20136,0.23981 0.44745,0.23981 0.39085,0 0.38249,0.0503 -0.0662,0.39752 -0.42812,0.33138 -0.43654,0.3707 -0.0506,0.23628 0.25924,-0.0903 0.46302,-0.0323 0.46302,0.13164 0,0.16109 -0.17485,0.29289 -0.38857,0.29289 -0.23669,0 -0.32904,0.15513 -0.23627,0.39688 0.25813,0.67269 0.88609,0.4505 0.93469,-0.33073 0.0249,-0.40018 0.0582,-0.92962 0.0741,-1.17652 0.0159,-0.24691 0.11456,-0.53464 0.21933,-0.63941 0.10477,-0.10477 0.19048,0.65838 0.19048,1.69589 0,4.57217 -3.11023,8.37812 -7.8339,9.58623 -2.30479,0.58947 -3.55976,0.62269 -5.65984,0.14982 z m 6.68072,-7.74072 c -0.1819,-0.0734 -0.47955,-0.0734 -0.66145,0 -0.18191,0.0734 -0.0331,0.13345 0.33073,0.13345 0.3638,0 0.51263,-0.0601 0.33072,-0.13345 z m 2.38125,-0.26458 c -0.1819,-0.0734 -0.47955,-0.0734 -0.66145,0 -0.18191,0.0734 -0.0331,0.13345 0.33072,0.13345 0.36381,0 0.51264,-0.06 0.33073,-0.13345 z m 3.70417,0 c -0.1819,-0.0734 -0.47956,-0.0734 -0.66146,0 -0.1819,0.0734 -0.0331,0.13345 0.33073,0.13345 0.3638,0 0.51263,-0.06 0.33073,-0.13345 z m -1.7253,-0.24921 c -0.0879,-0.0879 -0.31613,-0.0973 -0.50712,-0.0209 -0.21107,0.0845 -0.14837,0.14716 0.15985,0.15986 0.27892,0.0115 0.43519,-0.0511 0.34727,-0.13897 z m -1.64814,-0.36931 c -0.0899,-0.14552 -0.33509,-0.26459 -0.54478,-0.26459 -0.20969,0 -0.38126,0.11907 -0.38126,0.26459 0,0.14552 0.24515,0.26458 0.54478,0.26458 0.29963,0 0.4712,-0.11906 0.38126,-0.26458 z m 3.37344,0.0893 c -0.1819,-0.0734 -0.47956,-0.0734 -0.66146,0 -0.1819,0.0734 -0.0331,0.13345 0.33073,0.13345 0.3638,0 0.51263,-0.06 0.33073,-0.13345 z m -10.2526,-1.15986 c -0.72761,-0.11333 -1.79917,-0.19778 -2.38125,-0.18766 -1.0104,0.0175 -0.99842,0.0266 0.26458,0.19983 0.7276,0.0998 1.79917,0.18425 2.38125,0.18767 0.99797,0.006 0.98288,-0.006 -0.26458,-0.19984 z m 3.57187,-0.20713 c 0,-0.12062 -0.68461,-0.22645 -1.52135,-0.23518 -1.41895,-0.0148 -1.45012,-0.003 -0.46302,0.18175 1.54135,0.28784 1.98437,0.29977 1.98437,0.0534 z m 4.56406,-2.33717 c -0.1819,-0.0734 -0.47955,-0.0734 -0.66145,0 -0.18191,0.0734 -0.0331,0.13345 0.33072,0.13345 0.36381,0 0.51264,-0.0601 0.33073,-0.13345 z m -53.24739,11.94221 c 0,-0.1288 1.48089,-0.91907 1.72227,-0.91907 0.0886,0 0.0947,0.10734 0.0136,0.23853 -0.1558,0.2521 -1.73589,0.87156 -1.73589,0.68054 z m 13.75833,-0.75847 c 0,-0.0572 0.18478,-0.17489 0.41062,-0.26155 0.23546,-0.0904 0.34166,-0.046 0.24897,0.10398 -0.15538,0.25141 -0.65959,0.37186 -0.65959,0.15757 z m -7.40833,-0.52248 c 0,-0.0778 0.77442,-0.57447 1.72094,-1.10379 0.99743,-0.5578 1.64765,-1.08098 1.54662,-1.24446 -0.10371,-0.16779 -0.0488,-0.20449 0.13546,-0.0906 0.4544,0.28083 0.20577,0.53511 -1.4848,1.51852 -1.80404,1.04941 -1.91822,1.10419 -1.91822,0.92032 z m 0.26458,-1.3296 c 0,-0.0572 0.18478,-0.17489 0.41062,-0.26156 0.23546,-0.0904 0.34166,-0.046 0.24897,0.10399 -0.15538,0.25141 -0.65959,0.37185 -0.65959,0.15757 z m 43.19687,-0.0859 c 0.40218,-0.0608 0.99749,-0.0592 1.32292,0.004 0.32542,0.0628 -0.004,0.11256 -0.73125,0.11057 -0.7276,-0.002 -0.99385,-0.0534 -0.59167,-0.11418 z m 0.26094,-1.05086 c 0.25467,-0.0666 0.67138,-0.0666 0.92605,0 0.25466,0.0665 0.0463,0.121 -0.46303,0.121 -0.50932,0 -0.71768,-0.0545 -0.46302,-0.121 z m 2.31511,-0.35508 c 0,-0.14096 0.17859,-0.25628 0.39687,-0.25628 0.21828,0 0.39688,0.0468 0.39688,0.10398 0,0.0572 -0.1786,0.17252 -0.39688,0.25628 -0.21828,0.0838 -0.39687,0.037 -0.39687,-0.10398 z m -41.67188,-0.41715 c 0.69542,-0.53701 1.98438,-1.21246 1.98438,-1.03987 0,0.17768 -2.04545,1.46783 -2.30985,1.45691 -0.11203,-0.005 0.0344,-0.1923 0.32547,-0.41704 z m 39.66557,0.19635 c 0.13173,-0.21314 1.47714,-0.0969 1.47714,0.12765 0,0.0558 -0.36421,0.10145 -0.80936,0.10145 -0.44515,0 -0.74565,-0.10309 -0.66778,-0.2291 z m -41.64994,-0.96153 c 0.3638,-0.20796 0.78052,-0.37812 0.92604,-0.37812 0.14552,0 -0.0331,0.17016 -0.39687,0.37812 -0.36381,0.20797 -0.78052,0.37813 -0.92605,0.37813 -0.14552,0 0.0331,-0.17016 0.39688,-0.37813 z m -0.52917,-0.27453 c 0,-0.23143 1.8904,-0.96597 2.05707,-0.7993 0.0813,0.0813 0.083,0.14779 0.004,0.14779 -0.0792,0 -0.57534,0.1802 -1.10243,0.40043 -0.5271,0.22023 -0.95836,0.33322 -0.95836,0.25108 z m 43.87123,-0.30308 c 0.19099,-0.0764 0.41919,-0.067 0.50711,0.0209 0.0879,0.0879 -0.0684,0.15045 -0.34726,0.13896 -0.30823,-0.0127 -0.37092,-0.0754 -0.15985,-0.15985 z m -36.3306,-0.34843 c 0.0899,-0.14552 0.28258,-0.26458 0.4281,-0.26458 0.14552,0 0.191,0.11906 0.10106,0.26458 -0.0899,0.14552 -0.28258,0.26459 -0.4281,0.26459 -0.14552,0 -0.191,-0.11907 -0.10106,-0.26459 z m 32.09726,0.0839 c 0.191,-0.0764 0.4192,-0.067 0.50712,0.0209 0.0879,0.0879 -0.0684,0.15046 -0.34726,0.13897 -0.30823,-0.0127 -0.37092,-0.0754 -0.15986,-0.15985 z m 6.08542,0 c 0.19099,-0.0764 0.4192,-0.067 0.50712,0.0209 0.0879,0.0879 -0.0684,0.15046 -0.34727,0.13897 -0.30822,-0.0127 -0.37092,-0.0754 -0.15985,-0.15985 z m -6.61458,-0.79375 c 0.19099,-0.0764 0.41919,-0.067 0.50711,0.0209 0.0879,0.0879 -0.0684,0.15046 -0.34726,0.13897 -0.30823,-0.0127 -0.37092,-0.0754 -0.15985,-0.15985 z m -1.85209,-0.26459 c 0.191,-0.0764 0.4192,-0.067 0.50712,0.0209 0.0879,0.0879 -0.0684,0.15045 -0.34726,0.13896 -0.30823,-0.0127 -0.37092,-0.0754 -0.15986,-0.15985 z m -8.81393,-0.33439 c 0.29104,-0.13278 0.38407,-0.24979 0.20674,-0.26002 -0.17733,-0.0102 -0.25677,-0.18967 -0.17654,-0.39877 0.19631,-0.51157 0.86036,-0.22853 0.77965,0.33232 -0.0366,0.25407 -0.3373,0.47113 -0.70151,0.50632 -0.5829,0.0563 -0.59218,0.0409 -0.10834,-0.17985 z m -34.66042,-1.03648 c 1.18358,-1.2534 2.81736,-2.29827 3.98657,-2.54956 0.46904,-0.10081 0.13947,0.15151 -0.83327,0.63796 -0.88507,0.4426 -2.19476,1.30595 -2.91042,1.91855 l -1.30121,1.11382 z m 11.0496,-0.48348 c 0.25644,-0.0669 0.4051,-0.22057 0.33036,-0.34151 -0.0747,-0.12093 0.12578,-0.15145 0.44561,-0.0678 0.55494,0.14512 0.55798,0.16127 0.0665,0.3536 -0.28325,0.11085 -0.6936,0.1961 -0.91188,0.18944 -0.26542,-0.008 -0.24244,-0.0524 0.0694,-0.13372 z m 24.93107,-0.0859 c -0.0914,-0.14789 -0.27702,-0.2004 -0.41249,-0.11667 -0.13546,0.0837 -0.2463,0.04 -0.2463,-0.0971 0,-0.13714 0.24753,-0.31407 0.55006,-0.39319 0.39197,-0.1025 0.51026,-0.0401 0.41155,0.21715 -0.0765,0.19943 0.0621,0.41388 0.30983,0.47917 0.41999,0.1107 0.42005,0.12012 0.001,0.14887 -0.24607,0.0169 -0.52219,-0.0903 -0.61359,-0.23821 z m -11.50671,-1.68579 c 0,-0.0921 0.43892,-0.79126 0.97538,-1.55375 0.61845,-0.87904 1.04999,-1.85691 1.17928,-2.67226 0.20931,-1.31994 0.83222,-2.55055 1.29102,-2.55055 0.43439,0 0.28473,1.9412 -0.20592,2.67109 -0.2539,0.37769 -0.89604,1.33535 -1.42697,2.12813 -0.9131,1.36341 -1.81279,2.34477 -1.81279,1.97734 z m 3.01137,-5.59968 c 0.0904,-0.23546 0.046,-0.34166 -0.10398,-0.24897 -0.14385,0.0889 -0.26155,0.27369 -0.26155,0.41062 0,0.38059 0.18964,0.29672 0.36553,-0.16165 z m -1.95303,5.54193 c 0,-0.0882 0.2927,-0.3906 0.65046,-0.67201 0.35775,-0.28141 0.89964,-0.95339 1.2042,-1.49329 0.30457,-0.5399 0.93073,-1.24797 1.39148,-1.57349 0.72933,-0.51528 0.86725,-0.53912 1.06586,-0.18422 0.30429,0.54374 -0.41882,1.62613 -1.46337,2.19047 -0.44558,0.24073 -1.19522,0.76511 -1.66588,1.16529 -0.84475,0.71826 -1.18275,0.88037 -1.18275,0.56725 z m 3.05589,-2.46415 c -0.0827,-0.13379 0.057,-0.45058 0.31039,-0.70398 0.30728,-0.30727 0.33766,-0.4197 0.0912,-0.33756 -0.20323,0.0677 -0.54305,0.38454 -0.75515,0.70399 -0.34568,0.52062 -0.33956,0.58081 0.0591,0.58081 0.24462,0 0.37711,-0.10947 0.29443,-0.24326 z m 14.88616,2.44377 c 0.191,-0.0764 0.4192,-0.067 0.50712,0.0209 0.0879,0.0879 -0.0684,0.15046 -0.34726,0.13897 -0.30823,-0.0127 -0.37092,-0.0754 -0.15986,-0.15985 z m -30.7082,-0.25907 c 0.1819,-0.0734 0.47956,-0.0734 0.66146,0 0.1819,0.0734 0.0331,0.13345 -0.33073,0.13345 -0.3638,0 -0.51263,-0.0601 -0.33073,-0.13345 z m -7.79617,-0.41413 c 0.0314,-0.1488 -0.10829,-0.33064 -0.31045,-0.40409 -0.24054,-0.0874 -0.29766,-0.0205 -0.1653,0.19371 0.26551,0.42962 -0.74585,0.13241 -1.87656,-0.55146 -1.03434,-0.62558 -3.39053,-3.12351 -3.16191,-3.35213 0.0939,-0.0939 0.43341,0.14994 0.75439,0.54194 0.89229,1.08973 3.82171,2.07737 6.66659,2.24761 1.53555,0.0919 2.1921,0.21526 1.85209,0.34801 -0.45458,0.17748 -0.42706,0.2082 0.20086,0.22425 0.40018,0.0102 0.72761,-0.0967 0.72761,-0.23768 0,-0.14096 0.17859,-0.18775 0.39687,-0.10399 0.21828,0.0838 0.39688,0.32042 0.39688,0.52591 0,0.272 -0.19062,0.32576 -0.70093,0.19769 -0.39205,-0.0984 -0.63711,-0.0715 -0.55613,0.0611 0.0796,0.13036 -0.29907,0.26255 -0.84157,0.29376 -0.5425,0.0312 -1.53833,0.1083 -2.21296,0.17132 -0.75389,0.0704 -1.20458,0.0103 -1.16948,-0.15595 z m 2.83523,-0.73356 c 0,-0.14807 -0.6117,-0.24628 -1.38906,-0.22302 l -1.38906,0.0416 1.32291,0.18145 c 0.72761,0.0998 1.35269,0.20015 1.38907,0.22301 0.0364,0.0229 0.0661,-0.0775 0.0661,-0.22301 z m -3.24665,-0.42444 c -0.0879,-0.0879 -0.31613,-0.0973 -0.50712,-0.0209 -0.21107,0.0845 -0.14837,0.14716 0.15985,0.15986 0.27891,0.0115 0.43518,-0.0511 0.34727,-0.13897 z m -1.51585,-0.47922 c -0.3638,-0.19432 -0.95911,-0.42663 -1.32291,-0.51624 -0.36895,-0.0909 -0.19345,0.067 0.39687,0.35696 1.17886,0.5791 1.96527,0.71436 0.92604,0.15928 z m 8.20209,1.69741 c -0.61576,-0.1972 -0.62141,-0.21366 -0.0818,-0.23821 0.31883,-0.0145 0.65328,0.0927 0.74321,0.23821 0.0899,0.14552 0.12673,0.25271 0.0818,0.23821 -0.045,-0.0145 -0.37942,-0.1217 -0.74322,-0.23821 z m 28.2608,-0.18074 c 0.191,-0.0764 0.4192,-0.067 0.50712,0.0209 0.0879,0.0879 -0.0684,0.15046 -0.34726,0.13897 -0.30823,-0.0127 -0.37092,-0.0754 -0.15986,-0.15985 z m -4.36011,-0.79042 c 0,-0.21155 0.30505,-0.35176 0.76527,-0.35176 0.88018,0 0.77967,0.40818 -0.144,0.58475 -0.39999,0.0765 -0.62127,-0.007 -0.62127,-0.23299 z m 17.06011,-0.003 c 0.191,-0.0764 0.4192,-0.067 0.50712,0.0209 0.0879,0.0879 -0.0683,0.15045 -0.34726,0.13896 -0.30823,-0.0127 -0.37092,-0.0754 -0.15986,-0.15985 z m -1.05833,-0.26458 c 0.19099,-0.0764 0.4192,-0.067 0.50712,0.0209 0.0879,0.0879 -0.0684,0.15046 -0.34727,0.13897 -0.30822,-0.0127 -0.37092,-0.0754 -0.15985,-0.15985 z m -26.84738,-0.28228 c 0.067,-0.10914 0.1952,-0.66252 0.28498,-1.22973 0.26371,-1.66617 0.46076,-2.28096 0.68639,-2.14151 0.11643,0.072 0.1452,-0.1234 0.064,-0.43413 -0.10635,-0.40665 -0.0438,-0.53076 0.22311,-0.44293 0.74039,0.24361 0.58722,1.91439 -0.2954,3.22218 -0.45455,0.67351 -0.88457,1.22456 -0.95561,1.22456 -0.071,0 -0.0744,-0.0893 -0.007,-0.19844 z m -19.40509,-0.35298 c -1.19517,-0.22974 -4.59705,-1.55431 -4.42746,-1.7239 0.0498,-0.0498 0.9758,0.25385 2.05775,0.67481 1.42815,0.55565 2.02122,0.68042 2.16439,0.45534 0.3334,-0.52414 0.23565,-0.65821 -0.61636,-0.84534 -0.96673,-0.21233 -3.26386,-1.34241 -4.20541,-2.06886 -0.78599,-0.60644 -0.57505,-0.53646 1.1973,0.39719 2.51093,1.32272 4.9986,1.90177 8.26148,1.92301 2.27615,0.0148 2.9765,0.10139 2.97656,0.36794 5e-5,0.23766 0.18949,0.29209 0.59539,0.17107 0.58874,-0.17553 0.58947,-0.17259 0.0661,0.26637 -0.29104,0.24413 -0.38034,0.36848 -0.19844,0.27634 0.1819,-0.0921 0.33073,-0.0414 0.33073,0.11267 0,0.15411 -0.24515,0.2802 -0.54478,0.2802 -0.29963,0 -0.4712,-0.11907 -0.38126,-0.26459 0.0908,-0.14688 -0.10825,-0.26638 -0.44741,-0.26863 -0.4915,-0.003 -0.53334,-0.0542 -0.21405,-0.26053 0.2723,-0.17598 -0.36093,-0.25776 -2.01745,-0.26054 -1.32788,-0.002 -2.81616,-0.0807 -3.30729,-0.17434 -0.49113,-0.0937 -0.80752,-0.0777 -0.70307,0.0356 0.10444,0.11322 1.176,0.30142 2.38125,0.41822 l 2.19135,0.21236 -2.64583,-0.0771 c -2.63913,-0.0769 -2.64215,-0.0763 -1.19063,0.25156 1.69511,0.38286 0.58438,0.46784 -1.32291,0.10122 z m 30.36093,0.10011 c 0.32742,-0.0631 0.86321,-0.0631 1.19063,0 0.32742,0.0631 0.0595,0.11466 -0.59531,0.11466 -0.65485,0 -0.92274,-0.0516 -0.59532,-0.11466 z m -24.85429,-0.52318 c 0.19099,-0.0764 0.4192,-0.067 0.50711,0.0209 0.0879,0.0879 -0.0684,0.15045 -0.34726,0.13896 -0.30823,-0.0127 -0.37092,-0.0754 -0.15985,-0.15985 z m 11.83881,-1.94437 c -0.20114,-2.30579 -0.12296,-2.63679 0.50053,-2.11934 0.67398,0.55935 0.75776,1.8857 0.19806,3.13537 l -0.51053,1.13987 z m 27.86696,1.92667 c -0.0172,-0.10914 -0.0172,-0.28773 0,-0.39687 0.0172,-0.10914 -0.23656,-0.2118 -0.56398,-0.22813 -0.32742,-0.0163 0.0595,-0.17256 0.8599,-0.34718 l 1.45521,-0.31749 -2.11667,-0.43526 c -1.89512,-0.38969 -1.46705,-0.40975 1.19062,-0.0558 0.87945,0.11713 0.88808,0.11091 0.17147,-0.12372 -0.41502,-0.13588 -1.42705,-0.33661 -2.24896,-0.44607 -1.32974,-0.1771 -1.40693,-0.2191 -0.70063,-0.38124 l 0.79375,-0.18222 -0.79375,-0.0577 c -0.78564,-0.0571 -0.78699,-0.0598 -0.13229,-0.26951 0.61688,-0.19757 0.59906,-0.21596 -0.26458,-0.27304 l -0.92605,-0.0612 0.92605,-0.19492 0.92604,-0.19492 -0.92604,-0.0501 c -0.50933,-0.0275 -1.4023,-0.15206 -1.98438,-0.2767 -0.86977,-0.18625 -0.69361,-0.21544 0.98875,-0.16383 1.78511,0.0548 2.21005,0.16839 3.32049,0.88793 1.17789,0.76324 1.63242,1.33013 2.00503,2.50062 0.12055,0.37871 0.004,0.43506 -0.70362,0.33958 -0.46648,-0.063 -0.25284,0.0383 0.47477,0.22493 l 1.32291,0.3394 -1.05833,0.178 c -1.38659,0.2332 -1.97725,0.22892 -2.01571,-0.0146 z m 1.42543,-0.23969 c -0.17913,-0.0725 -0.53632,-0.0769 -0.79375,-0.01 -0.25743,0.0671 -0.11087,0.12638 0.3257,0.13177 0.43656,0.005 0.64718,-0.0495 0.46805,-0.12197 z m -0.46805,-2.2077 c -0.0899,-0.14552 -0.48392,-0.2505 -0.87551,-0.23328 l -0.71199,0.0313 0.79375,0.20198 c 0.43656,0.11108 0.83054,0.21606 0.87551,0.23328 0.045,0.0172 0.008,-0.0878 -0.0818,-0.23328 z m -0.9977,-0.68902 c -0.0879,-0.0879 -0.31613,-0.0973 -0.50712,-0.0209 -0.21107,0.0845 -0.14837,0.14716 0.15985,0.15985 0.27892,0.0115 0.43519,-0.051 0.34727,-0.13896 z m -46.75959,2.5411 c -0.35278,-0.22798 -0.35278,-0.25486 0,-0.24194 0.21828,0.008 0.635,0.11688 0.92604,0.24194 l 0.52916,0.22739 -0.52916,0.0145 c -0.29104,0.008 -0.70776,-0.10087 -0.92604,-0.24193 z m 9.65729,-0.26458 c 0.49136,-0.21115 0.48349,-0.22872 -0.11025,-0.24599 -0.35167,-0.0102 -0.56557,-0.0924 -0.47534,-0.18266 0.0902,-0.0902 0.47214,-0.0867 0.84867,0.008 0.79649,0.19991 0.63895,0.6942 -0.21255,0.66688 -0.5589,-0.0179 -0.56071,-0.0267 -0.0505,-0.24598 z m -11.9724,-0.65187 c -0.76398,-0.35569 -1.38906,-0.77325 -1.38906,-0.92792 0,-0.24967 1.85416,0.57886 2.91042,1.30053 0.71398,0.48781 -0.10304,0.28771 -1.52136,-0.37261 z m 3.63376,-0.10833 c -1.71464,-0.54884 -2.71539,-1.06675 -2.1124,-1.09322 0.24318,-0.0107 0.14072,-0.16384 -0.26459,-0.39554 -0.9519,-0.54416 -0.32045,-0.44664 0.92604,0.14301 0.95275,0.45069 0.97915,0.4875 0.26459,0.36896 -0.63094,-0.10467 -0.54953,-0.0245 0.39687,0.39099 0.65485,0.28748 1.39196,0.52933 1.63803,0.53746 0.24608,0.008 0.52099,0.13385 0.61093,0.27937 0.0899,0.14552 0.12673,0.25818 0.0818,0.25035 -0.045,-0.008 -0.73852,-0.22445 -1.54123,-0.48138 z m 44.52041,0.31323 c 0.25466,-0.0666 0.67138,-0.0666 0.92604,0 0.25466,0.0666 0.0463,0.121 -0.46302,0.121 -0.50932,0 -0.71768,-0.0545 -0.46302,-0.121 z m -50.2989,-1.60355 c -0.13481,-0.25467 -0.48108,-1.23693 -0.76949,-2.18282 -0.43318,-1.4207 -0.49237,-2.11358 -0.34037,-3.98409 0.20124,-2.47648 0.21716,-2.51974 1.5274,-4.15184 0.83741,-1.04312 1.74785,-1.51511 1.5949,-0.82683 -0.0364,0.16371 0.0993,0.35775 0.30141,0.4312 0.22511,0.0818 0.29597,0.0177 0.18283,-0.16536 -0.26039,-0.42131 0.17864,-0.37143 0.78811,0.0896 0.39274,0.29706 0.42021,0.39139 0.11671,0.40093 -0.34787,0.0109 -0.34873,0.0429 -0.007,0.25903 0.25172,0.15919 0.45315,0.14421 0.5684,-0.0423 0.11985,-0.19392 0.48016,-0.10239 1.09655,0.27855 0.50492,0.31206 0.98274,0.56738 1.06183,0.56738 0.12613,0 0.0547,-0.81665 -0.0868,-0.99218 -0.0293,-0.0364 -0.0682,-0.18956 -0.0864,-0.34038 -0.0182,-0.15083 -0.21167,-0.38713 -0.42995,-0.52512 -0.55386,-0.35012 -0.0842,-0.32266 0.58231,0.034 0.44641,0.23891 0.47984,0.34124 0.18104,0.55412 -0.29142,0.20763 -0.27691,0.23262 0.0708,0.12203 0.24052,-0.0765 0.65723,0.0316 0.92604,0.24027 0.47202,0.36638 0.47141,0.37327 -0.0177,0.20145 -0.34769,-0.12214 -0.44705,-0.0818 -0.31698,0.12861 0.12737,0.2061 0.0332,0.2543 -0.28733,0.14713 -0.27331,-0.0914 -0.13804,0.12503 0.31699,0.50712 0.43656,0.36657 0.79375,0.78607 0.79375,0.9322 0,0.14614 0.32855,0.52415 0.73012,0.84002 0.40157,0.31587 0.67279,0.66709 0.60271,0.78048 -0.0701,0.11339 0.31574,0.39924 0.85737,0.63521 0.54164,0.23598 1.81823,0.96428 2.83688,1.61844 1.01865,0.65417 2.0071,1.13406 2.19655,1.06643 0.18946,-0.0676 0.27944,-0.0177 0.19996,0.11086 -0.2017,0.32635 0.48862,0.55018 0.90437,0.29323 0.25589,-0.15814 0.19391,-0.29117 -0.24509,-0.52612 -0.32316,-0.17295 -0.52554,-0.37649 -0.44973,-0.4523 0.18424,-0.18424 1.36269,0.65304 1.36269,0.96817 0,0.13645 0.23813,0.43233 0.52917,0.6575 0.52092,0.40302 0.5168,0.41979 -0.26459,1.07656 -0.4546,0.3821 -1.00371,0.61512 -1.28516,0.54537 -0.27028,-0.067 -0.75647,-0.021 -1.08042,0.10216 -0.32395,0.12316 -0.73788,0.13193 -0.91983,0.0195 -0.44405,-0.27443 0.32529,-0.58092 0.97031,-0.38655 0.25466,0.0767 0.005,-0.1142 -0.55413,-0.42431 -0.55944,-0.31011 -1.08274,-0.49825 -1.1629,-0.4181 -0.0802,0.0802 0.13944,0.25982 0.48799,0.39924 0.34855,0.13942 0.49705,0.26104 0.33001,0.27027 -0.16705,0.009 -0.8219,-0.28891 -1.45521,-0.66252 -0.78021,-0.46026 -0.93821,-0.63003 -0.49003,-0.52654 0.53248,0.12296 0.49379,0.0655 -0.19844,-0.29476 -0.47294,-0.24613 -0.85989,-0.54915 -0.85989,-0.67339 0,-0.12424 0.24058,-0.0971 0.53463,0.0602 0.29405,0.15737 0.66963,0.20269 0.83463,0.10072 0.18598,-0.11495 0.22684,-0.067 0.10749,0.12606 -0.12632,0.20439 0.31704,0.53682 1.28959,0.96693 1.80585,0.79863 2.29941,0.83785 1.37293,0.10908 -0.38342,-0.3016 -0.84389,-0.462 -1.02786,-0.35806 -0.25294,0.14291 -0.26037,0.10922 -0.0308,-0.13973 0.23899,-0.25921 0.45578,-0.22756 1.03337,0.1509 0.57218,0.3749 0.70294,0.39462 0.60206,0.0908 -0.0709,-0.21348 -1.14766,-0.92392 -2.39283,-1.57877 -1.24518,-0.65484 -2.45066,-1.3497 -2.67885,-1.54413 -0.22819,-0.19443 -0.55757,-0.26533 -0.73195,-0.15756 -0.19543,0.12079 -0.24778,0.0839 -0.13647,-0.0962 0.16638,-0.26921 -0.67156,-0.92854 -1.28945,-1.0146 -0.14552,-0.0203 -0.36845,-0.0506 -0.49541,-0.0674 -0.12696,-0.0168 -0.0986,-0.18989 0.0631,-0.38468 0.23517,-0.28336 0.13808,-0.34489 -0.48569,-0.30778 -0.43188,0.0257 -0.71077,-0.065 -0.62527,-0.20335 0.0869,-0.14059 -0.0625,-0.18217 -0.34181,-0.0951 -0.27289,0.085 -0.67475,0.0305 -0.89303,-0.12128 -0.30247,-0.21025 -0.23952,-0.23377 0.26458,-0.0989 0.64324,0.17212 0.64688,0.16554 0.13229,-0.23883 -0.66912,-0.52581 -0.89451,-0.5369 -0.82165,-0.0404 0.0317,0.21574 1.0034,0.96879 2.15941,1.67346 3.08487,1.88044 4.80779,3.0283 4.30877,2.87061 -0.24139,-0.0763 -1.25343,-0.63828 -2.24896,-1.24891 -1.66861,-1.02346 -3.76933,-1.6431 -3.36778,-0.99337 0.096,0.15531 -0.0752,0.13989 -0.40473,-0.0365 -0.31409,-0.1681 -0.78119,-0.23896 -1.03799,-0.15745 -0.2568,0.0815 -0.69879,-0.0375 -0.98219,-0.26452 -0.49211,-0.39415 -0.48749,-0.39919 0.10268,-0.1121 0.33989,0.16534 0.68416,0.23443 0.76505,0.15354 0.14736,-0.14736 -1.98608,-1.1504 -2.62876,-1.23593 -1.30118,-0.17316 -1.24733,0.118 0.1475,0.79747 1.50925,0.73521 2.70524,1.57665 1.69355,1.19149 -0.90828,-0.34579 -0.44056,0.11434 0.92604,0.911 0.76399,0.44536 1.26811,0.81238 1.12028,0.81559 -0.14783,0.003 -1.10033,-0.48115 -2.11666,-1.07635 -2.55796,-1.49802 -3.06487,-1.73307 -2.24476,-1.04088 l 0.66145,0.55829 -1.05833,-0.42204 c -1.67763,-0.669 -0.74769,-0.0314 1.91823,1.31518 1.34607,0.67991 2.4474,1.2817 2.4474,1.3373 0,0.11816 -1.64908,-0.55189 -2.7411,-1.11377 -0.4858,-0.24995 -0.68708,-0.27665 -0.56218,-0.0746 0.13908,0.22503 0.0154,0.26538 -0.4339,0.14151 -0.53722,-0.14812 -0.56043,-0.13067 -0.15986,0.12021 0.25772,0.16141 0.40905,0.3898 0.33629,0.50752 -0.0727,0.11773 0.82988,0.65387 2.00586,1.19142 1.17598,0.53755 2.07171,1.0438 1.99052,1.12499 -0.0812,0.0812 -1.25422,-0.39187 -2.60673,-1.05126 -1.35251,-0.65938 -2.49906,-1.15986 -2.54788,-1.11218 -0.0488,0.0477 0.78461,0.57102 1.85208,1.16299 2.17217,1.20459 2.27187,1.46107 0.14997,0.38582 -0.93392,-0.47325 -1.26091,-0.55831 -1.01714,-0.26458 0.1976,0.2381 0.2554,0.43555 0.12844,0.43878 -0.12696,0.003 0.0668,0.24883 0.43063,0.54575 l 0.66145,0.53987 -0.66145,-0.15796 c -0.51663,-0.12338 -0.4587,-0.0425 0.26458,0.3692 1.21746,0.69306 0.80479,0.70071 -0.54878,0.0102 -1.16089,-0.59224 -1.6767,-0.48505 -1.42853,0.29686 0.2013,0.63424 -0.0381,0.66296 -0.36586,0.0439 z m 17.28083,-1.63537 c 0.0837,-0.13546 0.0511,-0.30882 -0.0726,-0.38523 -0.12364,-0.0764 -0.2248,0.0344 -0.2248,0.2463 0,0.44613 0.0834,0.48511 0.29738,0.13893 z M 233.47208,144.628 c 0,-0.0642 -0.11906,-0.19026 -0.26458,-0.2802 -0.14552,-0.0899 -0.26459,-0.0374 -0.26459,0.11668 0,0.1541 0.11907,0.28019 0.26459,0.28019 0.14552,0 0.26458,-0.0525 0.26458,-0.11667 z m 3.175,-2.63314 c 0,-0.0572 -0.18478,-0.17489 -0.41062,-0.26156 -0.23546,-0.0904 -0.34166,-0.046 -0.24897,0.10399 0.15538,0.25141 0.65959,0.37186 0.65959,0.15757 z m -3.01625,-1.35041 c 0,-0.64505 -0.0723,-0.76288 -0.16279,-0.2654 -0.0265,0.14552 -0.15822,0.47026 -0.29276,0.72165 -0.18084,0.33791 -0.15335,0.42204 0.10547,0.32273 0.19254,-0.0739 0.35008,-0.42443 0.35008,-0.77898 z m 6.72042,0.75329 c 0,-0.28564 -2.70285,-1.38224 -3.09453,-1.25551 -0.38838,0.12566 -0.40505,0.10331 -0.0894,-0.11991 0.31837,-0.22517 0.256,-0.3245 -0.34795,-0.55412 -0.92969,-0.35347 -0.98021,-0.35065 -0.89985,0.0501 0.10352,0.51631 2.80033,1.96317 3.65917,1.96317 0.42493,0 0.7726,-0.0377 0.7726,-0.0837 z m 0.13229,-1.81183 c -0.29104,-0.20869 -0.68212,-0.51111 -0.86906,-0.67204 -0.18695,-0.16093 -0.47354,-0.24805 -0.63687,-0.19361 -0.16334,0.0545 0.10868,0.35864 0.60448,0.676 0.99405,0.63627 1.7445,0.79416 0.90145,0.18965 z m 0.53004,-0.39606 c -0.0894,-0.14474 -0.4239,-0.38959 -0.74322,-0.54411 -0.55004,-0.26617 -0.54772,-0.25233 0.044,0.26316 0.67411,0.58721 0.95927,0.7018 0.69917,0.28095 z m -2.91129,-0.26601 c -0.0899,-0.14552 -0.30532,-0.26276 -0.47864,-0.26053 -0.18934,0.002 -0.1567,0.10642 0.0818,0.26053 0.5083,0.32849 0.59989,0.32849 0.39688,0 z m -1.12448,8.07221 c -0.47294,-0.20556 -0.8599,-0.44062 -0.8599,-0.52236 0,-0.14731 1.84304,0.55499 2.08103,0.79298 0.23474,0.23474 -0.36342,0.10218 -1.22113,-0.27062 z m 31.28698,-0.92846 c 0.26339,-0.29104 0.53842,-0.52917 0.61118,-0.52917 0.0728,0 -0.0832,0.23813 -0.3466,0.52917 -0.26339,0.29104 -0.53842,0.52917 -0.61118,0.52917 -0.0728,0 0.0832,-0.23813 0.3466,-0.52917 z m 3.1632,-0.0191 c -0.0964,-0.15602 0.3728,-0.80886 1.04272,-1.45076 0.66992,-0.64189 1.21804,-1.29517 1.21804,-1.45173 0,-0.15656 -0.11084,-0.21615 -0.24631,-0.13243 -0.13546,0.0837 -0.30636,0.055 -0.37978,-0.0638 -0.0734,-0.11879 0.15648,-0.21598 0.51088,-0.21598 0.35441,0 0.64437,0.10599 0.64437,0.23554 0,0.4645 -1.46734,2.27961 -2.06544,2.55495 -0.33563,0.15451 -0.53696,0.39948 -0.4474,0.54439 0.0896,0.1449 0.10329,0.26345 0.0305,0.26345 -0.0728,0 -0.21119,-0.12765 -0.30761,-0.28367 z m 0.87169,-0.15614 c 0.1819,-0.0734 0.47956,-0.0734 0.66146,0 0.1819,0.0734 0.0331,0.13345 -0.33073,0.13345 -0.3638,0 -0.51263,-0.06 -0.33073,-0.13345 z m 9.39271,-0.0115 c -0.32742,-0.0631 -0.59531,-0.22545 -0.59531,-0.36085 0,-0.37864 0.89676,-0.29189 1.47078,0.14228 0.53976,0.40825 0.35232,0.45505 -0.87547,0.21856 z m -7.2595,-0.2586 c 0.19099,-0.0764 0.41919,-0.067 0.50711,0.0209 0.0879,0.0879 -0.0684,0.15045 -0.34726,0.13896 -0.30823,-0.0127 -0.37092,-0.0754 -0.15985,-0.15985 z m -23.39698,-0.99015 c -0.23872,-0.515 -0.226,-0.6109 0.0661,-0.49879 0.19893,0.0763 0.3617,0.36418 0.3617,0.63965 0,0.65287 -0.0707,0.6296 -0.42784,-0.14086 z m 22.12367,0.32587 c 0,-0.64343 4.13741,-0.81707 6.04598,-0.25374 0.63315,0.18688 1.0908,0.40017 1.01699,0.47397 -0.0738,0.0738 -0.59183,0.007 -1.15118,-0.1482 -1.25574,-0.34869 -4.85346,-0.37627 -4.85346,-0.0372 0,0.13648 -0.23812,0.23021 -0.52916,0.20828 -0.29105,-0.0219 -0.52917,-0.13132 -0.52917,-0.2431 z m -36.32034,-0.36794 c -0.40363,-0.21891 -0.83027,-0.33844 -0.94809,-0.26563 -0.11781,0.0728 -0.21421,-0.041 -0.21421,-0.25284 0,-0.49789 0.0818,-0.48282 1.49931,0.27622 0.65484,0.35065 1.01203,0.63816 0.79375,0.63891 -0.21828,7.4e-4 -0.72712,-0.17775 -1.13076,-0.39666 z m 14.68645,-0.74937 c -0.41855,-0.66888 -0.28002,-0.98801 0.22895,-0.52741 0.39176,0.35454 0.58917,0.39259 0.8231,0.15866 0.23394,-0.23394 0.15335,-0.48309 -0.33602,-1.03886 l -0.64376,-0.73111 0.79279,0.69609 c 0.43603,0.38284 1.00171,0.66119 1.25707,0.61854 0.25535,-0.0427 0.39595,0.033 0.31245,0.16813 -0.0835,0.13512 -0.2502,0.18488 -0.37042,0.11058 -0.12021,-0.0743 -0.28974,0.0504 -0.37672,0.27704 -0.087,0.22667 -0.27805,0.33802 -0.4246,0.24745 -0.14655,-0.0906 -0.26645,-0.0584 -0.26645,0.0714 0,0.33374 -0.7807,0.29415 -0.99639,-0.0505 z m -9.71434,-0.83038 c -1.72463,-1.19265 -1.19914,-1.18098 0.65656,0.0146 0.79055,0.50932 1.26279,0.91948 1.04941,0.91147 -0.21337,-0.008 -0.98106,-0.42474 -1.70597,-0.92605 z m 21.94464,0.39385 c -0.0959,-0.1552 -0.10295,-0.35364 -0.0156,-0.44097 0.0873,-0.0873 0.15878,-0.0128 0.15878,0.16551 0,0.17836 0.13746,0.23934 0.30547,0.13551 0.18925,-0.11697 0.23364,-0.0726 0.11667,0.11668 -0.23392,0.3785 -0.34299,0.38299 -0.56531,0.0233 z m -6.39212,-2.09906 c 0,-0.80036 0.0496,-1.12779 0.11022,-0.7276 0.0606,0.40018 0.0606,1.05502 0,1.4552 -0.0606,0.40019 -0.11022,0.0728 -0.11022,-0.7276 z m 3.77654,0.52917 c 0.0973,-0.36381 0.28727,-0.84006 0.42214,-1.05834 0.17042,-0.27582 0.19125,-0.19512 0.0683,0.26459 -0.0973,0.3638 -0.28727,0.84005 -0.42214,1.05833 -0.17042,0.27582 -0.19125,0.19512 -0.0683,-0.26458 z m 13.17202,0.26458 c 0.40301,-1.27073 0.44506,-1.88976 0.11452,-1.68605 -0.22069,0.13602 -0.19252,-0.0198 0.0797,-0.44085 0.23158,-0.35817 0.49403,-1.12748 0.58323,-1.70956 0.15262,-0.99599 0.13789,-1.02716 -0.24999,-0.52917 -0.40451,0.51936 -0.40882,0.51801 -0.23256,-0.0728 0.2052,-0.68776 -0.29205,-0.72216 -0.85993,-0.0595 -0.21525,0.25118 -0.1822,0.008 0.09,-0.66146 0.85918,-2.114 1.15301,-3.06083 0.90166,-2.90549 -0.14113,0.0872 -0.25661,0.2555 -0.25661,0.37393 0,0.35863 -1.09472,2.71567 -1.20846,2.60193 -0.17036,-0.17036 1.37667,-3.673 1.62422,-3.6774 0.52558,-0.009 0.49644,0.97593 -0.0626,2.11619 -0.33066,0.67444 -0.60492,1.31556 -0.60947,1.4247 -0.0133,0.31784 0.6218,0.10232 0.97454,-0.33073 0.27107,-0.3328 0.32379,-0.26872 0.32648,0.39687 0.005,1.31164 -0.70715,4.92783 -1.03493,5.25298 -0.2303,0.22846 -0.27467,0.20537 -0.17985,-0.0936 z m -19.7583,-1.75453 c -0.41034,-0.81099 -0.6187,-1.39581 -0.46302,-1.29959 0.15568,0.0962 0.28305,-0.004 0.28305,-0.22194 0,-0.21828 -0.13746,-0.48183 -0.30546,-0.58566 -0.18926,-0.11697 -0.23364,-0.0726 -0.11668,0.11667 0.47746,0.77255 -0.73057,-0.13199 -2.69197,-2.01565 -0.34437,-0.33073 -0.75692,-0.62839 -0.91677,-0.66146 -0.32092,-0.0664 -1.26078,-0.90523 -1.26078,-1.12526 0,-0.26779 1.46324,0.63792 2.33143,1.44311 0.48192,0.44696 0.90956,0.81264 0.95031,0.81264 0.0407,0 0.22211,-0.50601 0.40304,-1.12448 0.3838,-1.31193 2.81716,-5.09524 4.1064,-6.38448 1.11898,-1.11898 3.56095,-2.45653 4.85217,-2.65769 2.40255,-0.3743 4.55456,-0.48192 4.55456,-0.22777 0,0.14612 -0.98226,0.33586 -2.18281,0.42164 -2.1843,0.15608 -3.91263,0.61656 -4.49319,1.19712 -0.16995,0.16995 -0.46378,0.309 -0.65296,0.309 -0.18917,0 -0.34395,0.11906 -0.34395,0.26458 0,0.14552 -0.15524,0.26458 -0.34498,0.26458 -0.46183,0 -1.68909,1.33723 -3.18726,3.47286 -1.47491,2.10248 -2.10634,3.52385 -1.88093,4.23407 0.16414,0.51717 0.17299,0.51675 0.64745,-0.0303 0.35529,-0.40965 0.52309,-0.46534 0.64193,-0.21303 0.0885,0.18789 0.11116,0.0736 0.0504,-0.25407 -0.0608,-0.32762 -0.0128,-0.53524 0.10676,-0.46137 0.11952,0.0739 0.26373,-0.005 0.32046,-0.17513 0.10185,-0.30555 0.11601,-0.0257 0.18289,3.61343 0.0486,2.64553 0.53788,3.21431 0.56899,0.66146 0.0133,-1.09141 0.19267,-2.40109 0.3986,-2.91042 l 0.37443,-0.92604 -0.16624,0.92604 c -0.0914,0.50933 -0.23922,1.80947 -0.32841,2.8892 -0.0892,1.07974 -0.28123,1.999 -0.42675,2.04281 -0.14552,0.0438 -0.60032,-0.58389 -1.01066,-1.39487 z m 0.26797,-2.93679 c -0.0671,-0.25743 -0.12638,-0.11087 -0.13177,0.32569 -0.005,0.43657 0.0495,0.64719 0.12197,0.46806 0.0725,-0.17913 0.0769,-0.53632 0.01,-0.79375 z m 1.43052,2.81719 c 0.0145,-0.93376 0.11695,-1.9954 0.22765,-2.3592 0.1107,-0.36381 0.14236,0.35057 0.0704,1.5875 -0.15655,2.6894 -0.33498,3.15143 -0.29801,0.7717 z m 0.57847,0.15434 c 0.002,-0.72761 0.0534,-0.99386 0.11418,-0.59168 0.0608,0.40219 0.0592,0.9975 -0.004,1.32292 -0.0628,0.32542 -0.11256,-0.004 -0.11057,-0.73124 z m 16.85766,0.94165 c 0,-0.13693 0.1177,-0.32171 0.26155,-0.41061 0.14998,-0.0927 0.19434,0.0135 0.10398,0.24897 -0.17589,0.45837 -0.36553,0.54223 -0.36553,0.16164 z m -8.17003,-1.86769 c -0.004,-0.21828 0.15536,-0.75407 0.35526,-1.19063 0.46789,-1.02184 0.47476,-0.54655 0.01,0.66146 -0.19613,0.50932 -0.3603,0.74745 -0.36481,0.52917 z m -0.40413,-1.24478 c -0.0923,-0.29085 0.11445,-1.26521 0.46811,-2.20597 l 0.63346,-1.68504 -0.0678,1.31112 c -0.0953,1.84379 -0.10782,1.88652 -0.4226,1.44342 -0.22115,-0.31133 -0.25117,-0.25382 -0.13924,0.26678 0.18558,0.86321 -0.23061,1.63013 -0.47196,0.86969 z m -27.78029,-1.30578 -1.82632,-0.93704 0.76799,-0.62102 c 1.85168,-1.49732 5.24909,-2.76124 7.43879,-2.76741 1.07877,-0.003 4.2125,0.97571 3.95344,1.23476 -0.0703,0.0703 -0.34644,0.0148 -0.61356,-0.1233 -0.26713,-0.13816 -0.96194,-0.3291 -1.54402,-0.42431 l -1.05833,-0.17312 0.7071,0.5423 c 1.48965,1.14245 1.87971,1.59846 0.61581,0.71991 -0.7276,-0.50576 -1.28749,-1.07045 -1.2442,-1.25487 0.0584,-0.24879 -0.21557,-0.29496 -1.0619,-0.17896 -1.75441,0.24047 -5.10985,1.38496 -5.03926,1.71882 0.0347,0.1643 -0.11355,0.2301 -0.33073,0.14676 -0.83882,-0.32189 -0.33795,0.1424 0.71634,0.66403 1.22758,0.60735 1.75212,0.56871 0.58451,-0.0431 l -0.73349,-0.38432 0.61276,-0.19448 c 0.48506,-0.15395 0.53656,-0.24721 0.24708,-0.44747 -0.25558,-0.17682 -0.17646,-0.19941 0.26276,-0.075 0.48654,0.13778 0.57962,0.0969 0.41223,-0.18111 -0.18084,-0.30033 -0.14506,-0.30139 0.21875,-0.006 0.23923,0.19393 0.66879,0.27838 0.95457,0.18768 0.28577,-0.0907 0.59617,-0.041 0.68977,0.11043 0.0936,0.15144 0.037,0.27535 -0.12564,0.27535 -0.1627,0 -0.22223,0.11906 -0.1323,0.26458 0.0899,0.14552 0.28259,0.26458 0.42811,0.26458 0.14552,0 0.191,-0.11906 0.10106,-0.26458 -0.2276,-0.36827 0.22358,-0.33205 0.60413,0.0485 0.1722,0.1722 0.37969,0.24649 0.46109,0.16509 0.0814,-0.0814 -0.28881,-0.40572 -0.82268,-0.72072 -0.53388,-0.31499 -0.90385,-0.63955 -0.82216,-0.72124 0.0817,-0.0817 0.42084,0.0422 0.75367,0.27533 0.87881,0.61554 1.26613,0.50894 0.48741,-0.13415 -0.3638,-0.30043 -0.49932,-0.46112 -0.30115,-0.35709 0.19817,0.10403 0.44551,0.0513 0.54964,-0.11719 0.13329,-0.21567 0.40276,-0.13846 0.91039,0.26085 0.39659,0.31195 0.6563,0.63196 0.57714,0.71112 -0.0792,0.0792 0.004,0.33142 0.1845,0.56058 0.26975,0.3422 0.20009,0.33473 -0.38986,-0.0418 -0.96595,-0.61652 -1.28487,-0.56672 -0.50916,0.0795 0.34354,0.2862 0.48534,0.52037 0.31511,0.52037 -0.17023,0 -0.23592,0.11906 -0.14599,0.26458 0.23794,0.38498 -0.18402,0.30869 -0.77817,-0.14071 -0.60795,-0.45983 -1.04871,-0.5112 -0.78965,-0.092 0.10076,0.16303 -0.34018,-0.0103 -0.97987,-0.38518 -0.63969,-0.37489 -1.28463,-0.59757 -1.43321,-0.49486 -0.38732,0.26776 -0.31696,0.91489 0.11513,1.05892 0.25555,0.0852 0.2993,0.0113 0.14357,-0.24253 -0.1551,-0.25278 -0.024,-0.2292 0.42619,0.0767 0.3576,0.24296 0.61555,0.58499 0.57322,0.76007 -0.0452,0.18706 0.0876,0.25515 0.32225,0.16512 0.41424,-0.15896 0.78544,0.15998 0.50851,0.43691 -0.0868,0.0868 -0.64914,-0.0844 -1.24958,-0.38056 l -1.09172,-0.53842 0.79375,0.70243 c 0.74793,0.66187 0.70345,0.65289 -0.77033,-0.15556 -0.86024,-0.4719 -1.47829,-0.71919 -1.37344,-0.54955 0.10484,0.16965 0.0751,0.30845 -0.0662,0.30845 -0.42069,0 -0.17937,0.7641 0.37336,1.18216 0.78863,0.59649 0.41455,0.46421 -1.57725,-0.55772 z m 0.37111,-0.51256 c -0.53707,-0.32359 -0.5578,-0.37087 -0.11024,-0.25138 0.63022,0.16826 0.79879,-0.53648 0.1847,-0.77213 -0.22998,-0.0882 -0.29595,-0.0265 -0.17709,0.16587 0.12652,0.2047 0.0432,0.2504 -0.25084,0.13757 -0.24215,-0.0929 -0.63438,-0.0945 -0.87161,-0.003 -0.33733,0.12945 -0.23641,0.26939 0.46302,0.64207 1.08175,0.57639 1.69175,0.64158 0.76206,0.0814 z m 3.57188,-0.37647 c -0.0899,-0.14552 -0.30532,-0.26276 -0.47864,-0.26053 -0.18934,0.002 -0.1567,0.10642 0.0818,0.26053 0.5083,0.32849 0.59989,0.32849 0.39688,0 z m 2.92599,-1.99279 c -0.28247,-0.21365 -0.63265,-0.38846 -0.77817,-0.38846 -0.14552,0 -0.0335,0.17481 0.249,0.38846 0.28248,0.21366 0.63266,0.38846 0.77818,0.38846 0.14552,0 0.0335,-0.1748 -0.24901,-0.38846 z m 30.81243,1.54539 c 0.002,-0.11773 0.11947,-0.39265 0.26054,-0.61093 0.22103,-0.34202 0.25704,-0.33504 0.26053,0.0505 0.002,0.24607 -0.11501,0.52099 -0.26053,0.61093 -0.14553,0.0899 -0.26277,0.0672 -0.26054,-0.0505 z m -28.19882,-1.20211 c -0.4274,-0.47066 -0.51912,-0.63977 -0.2038,-0.37578 0.43769,0.36644 0.69325,0.41578 1.08038,0.20859 0.39419,-0.21096 0.50708,-0.18367 0.50708,0.12259 0,0.2385 -0.15398,0.33488 -0.3902,0.24423 -0.32179,-0.12348 -0.33157,-0.0791 -0.0558,0.2532 0.65402,0.78805 -0.17393,0.3882 -0.93766,-0.45283 z m 9.93852,0.34221 c 0,-0.13693 0.1177,-0.32171 0.26156,-0.41062 0.14998,-0.0927 0.19433,0.0135 0.10398,0.24897 -0.17589,0.45837 -0.36554,0.54224 -0.36554,0.16165 z m 11.95524,-0.67707 c 0.0696,-0.14552 0.33081,-0.71107 0.58039,-1.25677 0.24958,-0.54571 0.50933,-0.99219 0.57721,-0.99219 0.19301,0 -0.67075,1.95306 -0.99462,2.24896 -0.19307,0.17639 -0.24739,0.17639 -0.16298,0 z m 1.12354,-0.79126 c 0.44467,-1.06423 0.92436,-1.93014 0.93609,-1.68977 0.013,0.26635 -1.06335,2.61332 -1.19851,2.61332 -0.0679,0 0.0502,-0.4156 0.26242,-0.92355 z m -14.12028,0.52667 c 0,-0.14552 0.17481,-0.49569 0.38846,-0.77817 0.21365,-0.28247 0.38846,-0.39453 0.38846,-0.24901 0,0.14552 -0.17481,0.4957 -0.38846,0.77818 -0.21365,0.28247 -0.38846,0.39453 -0.38846,0.249 z m 8.98711,-0.79375 c 0,-0.14552 0.11541,-0.44317 0.25648,-0.66145 0.22798,-0.35278 0.25738,-0.35278 0.26458,0 0.007,0.35277 0.0366,0.35277 0.26458,0 0.14107,-0.21828 0.25648,-0.27782 0.25648,-0.1323 0,0.14553 -0.11541,0.44318 -0.25648,0.66146 -0.22798,0.35278 -0.25738,0.35278 -0.26458,0 -0.007,-0.35277 -0.0366,-0.35277 -0.26458,0 -0.14107,0.21828 -0.25648,0.27782 -0.25648,0.13229 z m 0.52106,-1.3844 c 0,-0.0581 0.12504,-0.33922 0.27786,-0.62477 0.2714,-0.50713 0.78047,-0.47058 0.78047,0.056 0,0.14552 -0.1177,0.19184 -0.26155,0.10293 -0.14386,-0.0889 -0.19826,0.003 -0.12091,0.20488 0.0824,0.21471 -0.0284,0.36652 -0.26761,0.36652 -0.22455,0 -0.40826,-0.0475 -0.40826,-0.10559 z"
       id="path21201" />
  </g>
</svg>
