<?xml version="1.0" encoding="UTF-8" standalone="no"?>
<!-- Created with Inkscape (http://www.inkscape.org/) -->

<svg
   width="48.2976mm"
   height="50.518032mm"
   viewBox="0 0 48.297606 50.518033"
   version="1.1"
   id="svg5"
   inkscape:version="1.1 (c4e8f9ed74, 2021-05-24)"
   sodipodi:docname="kaulfussia.svg"
   xmlns:inkscape="http://www.inkscape.org/namespaces/inkscape"
   xmlns:sodipodi="http://sodipodi.sourceforge.net/DTD/sodipodi-0.dtd"
   xmlns="http://www.w3.org/2000/svg"
   xmlns:svg="http://www.w3.org/2000/svg">
  <sodipodi:namedview
     id="namedview7"
     pagecolor="#ffffff"
     bordercolor="#666666"
     borderopacity="1.0"
     inkscape:pageshadow="2"
     inkscape:pageopacity="0.0"
     inkscape:pagecheckerboard="0"
     inkscape:document-units="mm"
     showgrid="false"
     inkscape:zoom="0.94615212"
     inkscape:cx="-410.6105"
     inkscape:cy="115.73192"
     inkscape:window-width="2506"
     inkscape:window-height="1403"
     inkscape:window-x="1974"
     inkscape:window-y="0"
     inkscape:window-maximized="1"
     inkscape:current-layer="layer1" />
  <defs
     id="defs2" />
  <g
     inkscape:label="Layer 1"
     inkscape:groupmode="layer"
     id="layer1"
     transform="translate(-260.54723,-134.97459)">
    <path
       style="fill:#000000;stroke-width:0.264583"
       d="m 274.61699,185.27271 c -0.28539,-0.18097 -0.27169,-0.51632 0.0759,-1.85758 0.23327,-0.9002 0.35319,-1.7515 0.2665,-1.89177 -0.0867,-0.14028 -0.051,-0.25504 0.0793,-0.25504 0.32058,0 1.19406,-3.90955 1.22479,-5.48199 0.0172,-0.88084 -0.0757,-1.2448 -0.306,-1.19874 -0.1819,0.0364 -0.33073,-0.17198 -0.33073,-0.46302 0,-0.29254 -0.17639,-0.52917 -0.39446,-0.52917 -0.39931,0 -3.04513,-5.1179 -3.04513,-5.8903 0,-0.78825 -0.72725,-1.09255 -1.82503,-0.76365 -1.28302,0.3844 -2.80615,0.35827 -3.9958,-0.0686 -1.53251,-0.54984 -1.96992,-2.74796 -0.93964,-4.72199 0.37635,-0.72109 0.3728,-0.72688 -0.33216,-0.54248 -0.39192,0.10251 -1.16269,0.17778 -1.71283,0.16726 -3.2963,-0.063 -2.78957,-4.69408 0.70994,-6.48828 1.84952,-0.94824 3.14356,-1.28522 5.00222,-1.30262 1.51016,-0.0141 2.09831,0.11759 3.39536,0.76047 1.64786,0.81675 2.12915,0.71648 1.46036,-0.30423 -0.99189,-1.51381 -3.78584,-2.02624 -7.51722,-1.37869 -3.49143,0.6059 -4.09307,0.56517 -5.06513,-0.34288 -0.70147,-0.65527 -0.82148,-0.95536 -0.81999,-2.05052 0.002,-1.55274 0.58767,-2.53563 2.12619,-3.56892 1.43021,-0.96054 2.65909,-1.17674 4.51258,-0.7939 2.33203,0.48167 5.02817,1.38934 5.52214,1.85906 0.24703,0.23491 0.61782,0.46544 0.82398,0.5123 0.54739,0.12442 1.78304,1.36245 2.42368,2.42835 0.30612,0.50932 0.59256,0.97277 0.63653,1.02989 0.24404,0.31698 0.81132,-0.60113 0.68323,-1.10577 -0.46711,-1.84034 -3.54558,-3.85738 -6.81124,-4.46277 l -1.84904,-0.34277 1.19062,-0.16539 c 0.97135,-0.13492 1.04445,-0.17847 0.39688,-0.23643 l -0.79375,-0.071 0.79375,-0.20197 0.79375,-0.20198 -0.92604,-0.0577 c -0.50933,-0.0317 -1.2237,-0.16317 -1.5875,-0.29212 -0.48417,-0.1716 -0.28719,-0.2031 0.7349,-0.11752 1.24333,0.10411 1.35271,0.0733 0.99812,-0.28131 -0.21903,-0.21903 -0.54973,-0.37829 -0.7349,-0.35392 -0.18516,0.0244 -0.69385,0.0218 -1.13041,-0.006 -0.68804,-0.0433 -0.72328,-0.0796 -0.26459,-0.27247 0.36968,-0.15546 0.0706,-0.22135 -0.99219,-0.21862 -0.83674,0.002 -1.52135,0.11065 -1.52135,0.24112 0,0.13047 0.18562,0.23722 0.41249,0.23722 0.22687,0 0.33891,0.11906 0.24897,0.26458 -0.0944,0.15272 0.15487,0.26459 0.58954,0.26459 0.56859,0 0.76303,0.13237 0.79376,0.54038 0.0401,0.53203 0.024,0.53101 -1.04225,-0.0661 -0.59563,-0.3336 -1.16946,-0.84568 -1.27517,-1.13797 -0.33416,-0.92398 0.32966,-2.29848 1.56368,-3.23771 1.13177,-0.86141 1.2087,-0.87943 3.30729,-0.77469 4.61195,0.23018 7.31155,2.79739 9.02483,8.58223 0.31304,1.05696 0.65011,1.84079 0.74905,1.74184 0.0989,-0.0989 0.17989,-0.0898 0.17989,0.0202 0,0.11006 -0.25706,0.40828 -0.57126,0.6627 -0.6633,0.53711 -0.46761,1.09201 0.31311,0.88785 0.46621,-0.12192 0.48278,-0.17831 0.12875,-0.43818 -0.33708,-0.24744 -0.27196,-0.3076 0.38209,-0.35308 0.43363,-0.0301 0.85885,0.0592 0.94494,0.19844 0.25625,0.41462 0.65415,0.28787 0.65851,-0.20977 0.002,-0.27633 0.0824,-0.34977 0.19844,-0.18214 0.1345,0.19436 0.39814,0.17519 0.85584,-0.0622 l 0.66146,-0.34313 -0.79375,-0.0456 c -0.99155,-0.0569 -1.18197,-0.0388 -1.90914,0.18161 -0.56187,0.17033 -0.58004,0.12433 -0.43758,-1.10754 0.1007,-0.87075 0.006,-1.66923 -0.29311,-2.47587 -0.24296,-0.65485 -0.45284,-1.33422 -0.46641,-1.50972 -0.0136,-0.1755 -0.10502,-0.26943 -0.20323,-0.20873 -0.0982,0.0607 -0.58405,-0.3315 -1.07964,-0.87154 -0.4956,-0.54004 -0.72878,-0.83306 -0.51818,-0.65116 0.80003,0.691 0.82641,0.29126 0.0399,-0.60452 -0.45164,-0.51438 -0.82116,-1.05017 -0.82116,-1.19062 0,-0.14046 -0.12582,-0.25538 -0.27959,-0.25538 -0.15671,0 -0.0986,0.25844 0.13229,0.58804 0.22654,0.32342 0.41188,0.7071 0.41188,0.85262 0,0.51081 -0.78101,-0.85758 -1.33584,-2.34052 -0.31653,-0.84599 -0.83439,-1.67765 -1.18954,-1.91036 -0.84176,-0.55154 -1.0218,-1.24133 -0.55805,-2.13812 0.64636,-1.24991 1.39249,-1.74363 2.70188,-1.78785 1.32366,-0.0447 1.82554,0.25078 0.76903,0.45274 -0.36558,0.0699 -0.72244,0.0336 -0.79302,-0.0806 -0.11888,-0.19234 -1.71113,0.44925 -1.71113,0.68949 0,0.0591 0.49317,0.35913 1.09592,0.66663 0.60275,0.3075 1.65564,1.08265 2.33976,1.72256 0.68411,0.63991 1.31117,1.09614 1.39347,1.01385 0.13975,-0.13976 0.4193,0.48268 0.48545,1.08087 0.0532,0.48073 0.52042,1.19063 0.78368,1.19063 0.28174,0 -0.32035,-1.60397 -0.98145,-2.61458 -0.2692,-0.41153 -0.4766,-0.52609 -0.59769,-0.33016 -0.11863,0.19194 -0.4071,2.4e-4 -0.80063,-0.53204 -0.33836,-0.45765 -0.45024,-0.72924 -0.24862,-0.60354 0.55717,0.34739 1.24694,0.39952 1.42719,0.10788 0.25064,-0.40555 0.50012,-0.3126 0.89759,0.33442 0.35966,0.58546 0.35676,0.58736 -0.17467,0.11505 -0.3759,-0.33408 -0.5967,-0.38912 -0.72543,-0.18083 -0.2082,0.33687 0.0212,0.65504 0.4853,0.67312 0.16977,0.007 0.2773,0.16026 0.23896,0.34145 -0.10274,0.48543 0.45313,1.40586 0.74142,1.22769 0.13655,-0.0844 0.17737,0.0313 0.0907,0.25717 -0.0867,0.22584 -0.0258,0.41062 0.13532,0.41062 0.16109,0 0.29289,-0.17486 0.29289,-0.38857 0,-0.21372 0.15318,-0.32979 0.34039,-0.25795 0.24207,0.0929 0.34959,-0.19609 0.37225,-1.00049 0.0234,-0.83197 -0.0267,-0.99116 -0.1895,-0.60195 -0.23562,0.56326 -0.29327,0.41741 -0.39284,-0.99394 -0.0554,-0.78539 -0.80142,-1.78418 -1.33262,-1.78418 -0.39665,0 -1.68764,-1.03708 -1.30649,-1.04953 0.3406,-0.0111 2.26279,1.27789 2.72396,1.82669 0.7961,0.9474 1.9705,3.92813 2.09691,5.32217 0.18014,1.98666 -0.34379,5.68651 -0.9774,6.90212 -0.36894,0.70783 -0.4245,1.01853 -0.19677,1.10042 0.76225,0.27413 1.19178,-0.34711 1.37747,-1.99229 0.10296,-0.9122 0.36376,-1.85837 0.57956,-2.1026 0.24782,-0.28048 0.3244,-0.65819 0.20787,-1.02532 -0.11636,-0.36664 -0.0854,-0.52005 0.0838,-0.41547 0.15693,0.097 0.21669,-0.0314 0.14401,-0.30936 -0.20851,-0.7973 0.92368,-3.37022 2.04216,-4.64088 1.50232,-1.70673 2.56248,-2.29304 4.14626,-2.29304 2.11879,0 3.44003,1.47625 3.19554,3.57046 -0.068,0.58246 -0.004,0.8994 0.1688,0.83838 0.15297,-0.054 0.24457,-0.2879 0.20356,-0.51986 -0.11354,-0.64215 0.92964,-1.05538 2.28003,-0.90317 1.45358,0.16384 1.89558,0.6812 1.89558,2.21878 0,1.2649 -0.72119,3.33815 -1.08334,3.11433 -0.12843,-0.0794 -0.17115,0.0182 -0.0949,0.21685 0.0762,0.19864 -0.10373,0.58046 -0.39991,0.8485 -0.53627,0.48532 -0.75907,1.10204 -0.29437,0.81484 0.13426,-0.083 0.87264,-0.27007 1.64084,-0.41576 1.76788,-0.33527 3.69717,0.17538 4.92806,1.30436 1.3898,1.27475 1.13388,2.29269 -0.96588,3.84184 l -0.83875,0.61881 0.73695,0.19624 c 0.40532,0.10793 1.0346,0.23351 1.39841,0.27908 1.7845,0.2235 2.39618,0.45999 3.12928,1.20981 1.57784,1.61386 1.25063,3.01975 -0.91931,3.94989 -1.49169,0.63941 -2.0683,0.63786 -4.78263,-0.0129 -2.22644,-0.53378 -8.37273,-0.90476 -8.11633,-0.48989 0.0753,0.12181 -0.11054,0.22147 -0.41294,0.22147 -0.46574,0 -0.52313,0.11128 -0.37527,0.72761 0.096,0.40018 0.18824,0.74812 0.20496,0.77318 0.0167,0.0251 0.48266,-0.16355 1.03539,-0.41915 0.57016,-0.26367 1.57119,-0.45368 2.31362,-0.43917 0.71975,0.0141 1.30864,-0.0798 1.30864,-0.20855 0,-0.12877 0.16702,-0.0955 0.37115,0.0739 0.28477,0.23634 0.3973,0.22955 0.48354,-0.0292 0.0899,-0.26975 0.47348,-0.27533 1.91792,-0.0279 0.99304,0.1701 1.87677,0.41906 1.96385,0.55324 0.0871,0.13419 0.36445,0.21218 0.61637,0.17331 1.35112,-0.20848 2.63659,2.22136 2.07516,3.92253 -0.34638,1.04954 -1.40383,2.31287 -1.92525,2.30009 -0.25203,-0.006 -0.23694,-0.0941 0.0567,-0.33073 0.22005,-0.17727 0.55238,-0.66608 0.73849,-1.08625 0.36436,-0.82259 0.43884,-0.67947 -1.24146,-2.38588 -0.34761,-0.35302 -0.794,-0.5797 -0.99198,-0.50373 -0.26103,0.10017 -0.17754,0.28161 0.30382,0.66026 0.36508,0.28716 0.60442,0.61816 0.53188,0.73554 -0.0725,0.11738 0.0752,0.37573 0.32821,0.57412 0.41636,0.32642 0.42558,0.31669 0.097,-0.10231 -0.19972,-0.25466 -0.24222,-0.46302 -0.0944,-0.46302 0.33886,0 0.63584,0.7341 0.36475,0.90165 -0.35798,0.22124 -1.23009,-0.0163 -1.23009,-0.33502 0,-0.16994 -0.30016,-0.57531 -0.66702,-0.90082 -0.36687,-0.32552 -0.55141,-0.50255 -0.41011,-0.39341 0.40841,0.31544 0.73163,0.23017 0.50148,-0.1323 -0.1155,-0.1819 -0.2147,-0.44979 -0.22043,-0.59531 -0.006,-0.14552 -0.21464,-0.24826 -0.46423,-0.22831 -0.25717,0.0206 -0.3789,-0.0849 -0.28094,-0.2434 0.10877,-0.176 0.005,-0.21509 -0.28117,-0.10545 -0.29387,0.11277 -0.39083,0.072 -0.27486,-0.11567 0.12089,-0.1956 -0.0253,-0.23201 -0.44928,-0.11193 -0.42571,0.12056 -0.51364,0.0983 -0.27257,-0.069 0.26806,-0.186 0.1708,-0.29337 -0.39423,-0.43518 -0.41255,-0.10354 -0.83876,-0.32765 -0.94713,-0.49801 -0.12052,-0.18947 -0.19861,-0.0818 -0.20109,0.27726 -0.003,0.44419 0.1086,0.54818 0.45897,0.42742 0.37606,-0.12961 0.36364,-0.0799 -0.0661,0.26447 -0.404,0.32376 -0.4353,0.42827 -0.1323,0.44185 0.25112,0.0113 0.16854,0.14442 -0.22486,0.3626 l -0.62175,0.34481 0.97099,0.46076 c 0.53405,0.25343 1.17102,0.38464 1.4155,0.2916 0.35631,-0.13561 0.37889,-0.10307 0.11377,0.16401 -0.432,0.43519 -0.42469,0.84918 0.012,0.68159 0.20172,-0.0774 0.35858,0.0785 0.38121,0.37891 0.0347,0.46087 -0.0405,0.44397 -0.77497,-0.17401 -1.08803,-0.91553 -2.49713,-1.60254 -3.78546,-1.84563 -0.8816,-0.16635 -0.96997,-0.2355 -0.52917,-0.41406 0.50245,-0.20353 0.49911,-0.21529 -0.0661,-0.23295 -0.32742,-0.0102 -0.59531,0.0798 -0.59531,0.20017 0,0.12031 -0.35719,0.16633 -0.79375,0.10226 -0.47647,-0.0699 -0.79375,0.001 -0.79375,0.17811 0,0.16204 0.27119,0.29462 0.60265,0.29462 0.33147,0 0.80655,0.23812 1.05575,0.52916 0.47035,0.54933 1.15275,0.74614 0.84163,0.24273 -0.40733,-0.65907 1.64371,0.70175 2.76626,1.83536 0.8704,0.87897 1.38742,1.71922 1.8146,2.949 0.76671,2.20727 0.74928,2.73955 -0.12734,3.88886 l -0.71937,0.94314 -2.02512,-0.15617 -2.02512,-0.15617 -0.94032,1.04746 c -1.11722,1.24451 -1.77997,1.32089 -3.57386,0.41185 -1.37423,-0.69637 -2.13108,-1.87175 -2.71733,-4.21996 -0.26593,-1.06518 -0.25768,-1.32347 0.0484,-1.51731 0.2029,-0.12848 0.23894,-0.23542 0.0801,-0.23765 -0.15887,-0.002 -0.43154,-0.4803 -0.60593,-1.06239 -0.1744,-0.58208 -0.42568,-1.05833 -0.5584,-1.05833 -0.13272,0 -0.0697,0.56555 0.14005,1.25677 0.20975,0.69123 0.39452,1.79255 0.4106,2.4474 0.0281,1.14223 0.42482,2.91275 0.47928,2.13871 0.0145,-0.20615 0.0875,-0.31373 0.16214,-0.23906 0.26653,0.26654 -0.63185,1.95215 -1.40995,2.64544 -2.0518,1.82816 -3.79384,2.48054 -6.31071,2.36331 -0.9933,-0.0463 -1.0885,0.003 -0.9603,0.4928 0.11008,0.42096 0.0452,0.50691 -0.28646,0.37963 -0.44888,-0.17225 -0.53835,0.0924 -0.26875,0.79497 0.088,0.22934 0.29637,0.33905 0.46302,0.2438 0.17332,-0.0991 0.20864,-0.0701 0.0825,0.0677 -0.33719,0.36835 -0.81758,0.29732 -1.01769,-0.15046 -0.13182,-0.29498 -0.1848,-0.2445 -0.19844,0.18909 -0.0302,0.95909 -0.6375,2.98036 -0.89553,2.98036 -0.13091,0 -0.17095,0.17478 -0.089,0.3884 0.082,0.21362 0.0271,0.46379 -0.12203,0.55593 -0.14908,0.0921 -0.20478,0.34026 -0.12376,0.55138 0.081,0.21112 0.0331,0.31327 -0.1065,0.227 -0.13959,-0.0863 -0.32952,0.14485 -0.42207,0.5136 -0.0925,0.36875 -0.26353,0.61158 -0.37996,0.53962 -0.11642,-0.072 -0.1455,0.12226 -0.0646,0.43159 0.13779,0.52689 0.16949,0.51438 0.50187,-0.19808 0.30611,-0.65613 0.33182,-0.66971 0.18737,-0.099 -0.18248,0.72093 -1.12386,1.84263 -1.54712,1.84346 -0.14552,2.6e-4 -0.4213,-0.0989 -0.61284,-0.22032 z m 1.71962,-4.58317 c -0.0845,-0.21107 -0.14715,-0.14837 -0.15985,0.15985 -0.0115,0.27892 0.0511,0.43519 0.13897,0.34727 0.0879,-0.0879 0.0973,-0.31613 0.0209,-0.50712 z m 1.55017,-3.05033 c -0.0425,-0.63549 -0.14653,-1.22471 -0.23121,-1.30939 -0.25394,-0.25394 -1.01759,0.15039 -0.83673,0.44303 0.092,0.14892 0.27818,0.20227 0.41365,0.11854 0.13547,-0.0837 0.2463,-0.0389 0.2463,0.0997 0,0.13854 -0.19687,0.32744 -0.43749,0.41977 -0.39441,0.15135 -0.3879,0.20541 0.0661,0.54906 0.48655,0.36825 0.48345,0.38147 -0.0917,0.3896 -0.32742,0.005 -0.59531,0.13131 -0.59531,0.28152 0,0.4037 1.15407,0.77608 1.36709,0.44111 0.0971,-0.15261 0.14171,-0.79743 0.0992,-1.43291 z m 5.83481,-3.5937 c 0.13134,-0.41383 0.21235,-0.44535 0.39666,-0.15434 0.18129,0.28625 0.23248,0.29045 0.23566,0.0193 0.002,-0.19049 0.10957,-0.28112 0.23855,-0.20141 0.12898,0.0797 0.30309,-0.11736 0.38693,-0.43794 0.14604,-0.55847 -0.18275,-0.99058 -0.75372,-0.99058 -0.14552,0 -0.0894,0.11077 0.12463,0.24615 0.45363,0.28689 0.41947,0.33005 -0.71995,0.90952 -0.88426,0.44971 -1.1652,1.12929 -0.46685,1.12929 0.21617,0 0.46731,-0.23402 0.55809,-0.52003 z m -5.99118,-0.2065 c 0.10316,0.16691 0.37467,0.23168 0.60336,0.14392 0.48472,-0.186 0.8406,-1.27199 0.45954,-1.40232 -0.14272,-0.0488 -0.18081,-0.21603 -0.0847,-0.37161 0.0961,-0.15557 0.0533,-0.20778 -0.0952,-0.11601 -0.14849,0.0918 -0.2171,0.49713 -0.15246,0.90078 0.0673,0.42029 0.0239,0.61094 -0.10163,0.44613 -0.12053,-0.15829 -0.49432,-0.3574 -0.83065,-0.44248 -0.7111,-0.17989 -1.14459,0.51238 -0.55153,0.88079 0.22598,0.14038 0.40737,0.1184 0.46745,-0.0566 0.068,-0.19808 0.15586,-0.19272 0.28574,0.0174 z m 3.9322,-0.29273 c -0.14694,-1.0265 -1.84529,-2.37599 -2.22237,-1.76586 -0.26327,0.42598 -0.32188,2.07861 -0.0682,1.9218 0.12286,-0.0759 0.23278,-0.39892 0.24427,-0.71775 0.014,-0.38932 0.0691,-0.44936 0.16781,-0.18282 0.35762,0.96596 0.68727,1.11472 1.06576,0.48092 0.36028,-0.60329 0.36425,-0.60379 0.24542,-0.0306 -0.10136,0.48889 0.054,0.72219 0.56727,0.8517 0.0455,0.0115 0.0455,-0.23934 0,-0.5574 z m -5.24215,-0.49566 c 0,-0.13694 -0.11907,-0.24897 -0.26459,-0.24897 -0.14552,0 -0.26458,0.18562 -0.26458,0.41249 0,0.22687 0.11906,0.3389 0.26458,0.24897 0.14552,-0.0899 0.26459,-0.27556 0.26459,-0.41249 z m 9.525,-0.0738 c 0,-0.14619 0.15818,-0.45376 0.35151,-0.6835 0.40481,-0.48105 0.98425,-2.90095 0.94429,-3.94363 -0.0157,-0.40879 -0.1697,-0.0551 -0.36488,0.83797 -0.18578,0.84996 -0.56995,1.86199 -0.85371,2.24896 -0.69177,0.94337 -0.90088,1.806 -0.43779,1.806 0.19832,0 0.36058,-0.11961 0.36058,-0.2658 z m 6.29929,-0.4596 c -0.0522,-0.15643 -0.20792,-0.28442 -0.34617,-0.28442 -0.13824,0 -0.29402,0.12799 -0.34616,0.28442 -0.0521,0.15644 0.10363,0.28443 0.34616,0.28443 0.24254,0 0.39831,-0.12799 0.34617,-0.28443 z m -17.36329,-0.83123 c -0.18985,-0.18986 -0.31309,-0.20548 -0.31309,-0.0397 0,0.35316 0.3129,0.66606 0.48948,0.48948 0.0752,-0.0752 -0.004,-0.27759 -0.17639,-0.44979 z m 9.4765,-0.35516 c 0,-0.22687 -0.11906,-0.33891 -0.26459,-0.24897 -0.14893,0.092 -0.25545,-0.10352 -0.24369,-0.44741 0.0115,-0.33601 0.0812,-0.46136 0.15489,-0.27855 0.19507,0.48386 0.61362,0.12891 0.64434,-0.54643 0.0246,-0.53964 0.041,-0.53399 0.23821,0.0818 l 0.21184,0.66146 0.0577,-0.66146 c 0.0547,-0.62701 0.0682,-0.62012 0.25965,0.13229 0.11109,0.43657 0.21606,0.59813 0.23328,0.35904 0.0172,-0.23909 0.2099,-0.50324 0.42818,-0.58701 0.21828,-0.0838 0.39505,-0.36439 0.39282,-0.62362 -0.003,-0.40108 -0.0423,-0.41217 -0.26053,-0.0744 -0.18814,0.29112 -0.2526,0.11487 -0.24193,-0.66146 0.0109,-0.79279 0.0664,-0.92556 0.22138,-0.52916 0.20616,0.52745 0.20739,0.52743 0.37704,-0.006 0.15699,-0.49368 -0.0186,-1.41419 -0.49252,-2.5814 -0.18324,-0.45134 -0.20549,-0.45134 -0.53853,0 -0.22114,0.2997 -0.3185,1.04773 -0.26791,2.0583 0.0594,1.18699 0.0422,1.28712 -0.0684,0.39687 l -0.14789,-1.19062 -0.18308,1.19062 c -0.16893,1.09862 -0.17721,1.07305 -0.10715,-0.33084 0.0429,-0.86062 -0.0281,-1.45718 -0.16358,-1.37345 -0.13172,0.0814 -0.24133,-0.0674 -0.24355,-0.33061 -0.003,-0.37956 -0.0524,-0.40223 -0.23779,-0.1095 -0.1878,0.29659 -0.25897,0.27059 -0.36213,-0.1323 -0.0883,-0.34481 -0.14622,-0.25351 -0.18546,0.29233 -0.0565,0.78552 -0.0593,0.78689 -0.26891,0.13229 -0.2094,-0.65388 -0.21244,-0.65236 -0.26458,0.13229 -0.0521,0.78466 -0.0552,0.78617 -0.26458,0.13229 -0.15986,-0.49916 -0.21063,-0.3044 -0.20691,0.79375 0.004,1.19189 0.0415,1.31158 0.20691,0.66146 l 0.20197,-0.79375 0.0313,0.8599 c 0.0172,0.47294 -0.0611,0.85989 -0.17413,0.85989 -0.11298,0 -0.16001,0.47625 -0.1045,1.05834 0.0649,0.6807 0.23263,1.05833 0.47001,1.05833 0.203,0 0.36909,0.16867 0.36909,0.37483 0,0.31023 0.20611,0.49793 0.7276,0.66262 0.0364,0.0115 0.0661,-0.16474 0.0661,-0.39161 z m -0.75198,-1.96876 c 0,-0.36381 0.0601,-0.51263 0.13346,-0.33073 0.0734,0.1819 0.0734,0.47955 0,0.66146 -0.0734,0.1819 -0.13346,0.0331 -0.13346,-0.33073 z m 1.81436,-3.22553 c -0.002,-0.24608 0.11501,-0.52099 0.26053,-0.61093 0.33486,-0.20695 0.33486,0.1433 0,0.66146 -0.22103,0.34202 -0.25704,0.33504 -0.26053,-0.0505 z m -8.7987,3.46229 c -0.0783,-1.09393 -0.0395,-1.73 0.0927,-1.52136 0.17228,0.27189 0.23559,0.23065 0.26193,-0.17061 l 0.0348,-0.52917 0.13726,0.52917 0.13726,0.52916 0.21033,-0.52916 c 0.15044,-0.37852 0.21562,-0.16692 0.22892,0.74322 0.012,0.82396 0.1173,1.21138 0.29867,1.09929 0.15427,-0.0953 0.20919,-0.4958 0.12227,-0.89154 -0.0868,-0.39514 -0.0418,-1.00889 0.10004,-1.36387 0.2267,-0.56753 0.262,-0.58156 0.29245,-0.11627 0.019,0.29104 0.19271,-0.0597 0.38592,-0.7795 0.21179,-0.78897 0.26389,-1.52447 0.13121,-1.85208 -0.14437,-0.35647 -0.22997,-0.40688 -0.2488,-0.14654 -0.0158,0.21828 -0.19344,0.75406 -0.39479,1.19062 l -0.36609,0.79375 0.0473,-1.05833 c 0.026,-0.58209 0.15184,-1.13432 0.27962,-1.22719 0.12779,-0.0929 0.13938,-0.31927 0.0258,-0.50311 -0.15698,-0.254 -0.29107,-0.21868 -0.55858,0.14715 -0.23899,0.32685 -0.26718,0.5836 -0.0878,0.79973 0.15805,0.19044 0.17417,0.56169 0.0401,0.92406 -0.19703,0.5326 -0.24554,0.54981 -0.40183,0.14252 -0.0978,-0.25476 -0.0994,-0.58992 -0.004,-0.74479 0.11053,-0.17884 0.0462,-0.20256 -0.17639,-0.065 -0.24662,0.15241 -0.3054,0.0992 -0.1984,-0.17961 0.0873,-0.22754 0.005,-0.39618 -0.1944,-0.39618 -0.19896,0 -0.28171,0.16864 -0.19439,0.39618 0.0965,0.25136 0.0426,0.32854 -0.14737,0.21114 -0.3981,-0.24603 -1.29643,1.58808 -1.26779,2.58843 0.0121,0.42371 0.17088,0.82059 0.35278,0.88194 0.20488,0.0691 0.32365,-0.12339 0.31213,-0.50582 -0.0175,-0.5809 -0.032,-0.58611 -0.24598,-0.0882 l -0.22739,0.52916 v -0.52916 c 0,-0.29104 0.091,-0.76172 0.20216,-1.04595 0.17428,-0.44551 0.22478,-0.40371 0.36613,0.30307 0.0902,0.45092 0.10773,1.27878 0.039,1.8397 -0.095,0.77506 -0.0648,0.89283 0.12584,0.49068 0.19875,-0.41928 0.2547,-0.26819 0.26943,0.7276 0.0102,0.69123 0.0941,1.25677 0.18644,1.25677 0.0923,0 0.10732,-0.84595 0.0333,-1.8799 z m -0.72225,-3.54406 c 0,-0.14552 0.11542,-0.44317 0.25648,-0.66145 0.14107,-0.21828 0.25648,-0.27782 0.25648,-0.1323 0,0.14553 -0.11541,0.44318 -0.25648,0.66146 -0.14106,0.21828 -0.25648,0.27782 -0.25648,0.13229 z m 16.78757,4.61328 c -0.0875,-0.27585 -0.0272,-0.71232 0.13416,-0.96992 0.24903,-0.39759 0.26884,-0.36841 0.1311,0.1931 -0.12614,0.51423 -0.0996,0.57312 0.11919,0.26459 0.79087,-1.11524 -1.58434,-5.38267 -2.74751,-4.93632 -0.32029,0.1229 -0.34866,0.2999 -0.13722,0.85604 0.23404,0.61556 0.20947,0.67936 -0.20139,0.52293 -0.3502,-0.13333 -0.39243,-0.10203 -0.16783,0.1244 0.33839,0.34115 0.16349,1.38876 -0.19489,1.16727 -0.12731,-0.0787 -0.16056,0.0417 -0.0739,0.26756 0.19456,0.507 0.23098,0.50737 0.73086,0.007 0.36111,-0.36111 0.43393,-0.34556 0.69872,0.1492 0.21925,0.40966 0.21687,0.64719 -0.009,0.91959 -0.37536,0.45228 -0.12215,1.3628 0.37898,1.3628 0.2023,0 0.3069,-0.15875 0.23244,-0.35278 -0.0744,-0.19402 -0.0569,-0.35277 0.039,-0.35277 0.0959,0 0.29883,0.35705 0.45095,0.79344 0.29491,0.84598 0.88528,0.83007 0.61655,-0.0166 z m -0.92067,-1.26868 c 0,-0.18443 -0.13635,-0.24885 -0.30546,-0.14433 -0.18727,0.11574 -0.23373,0.0727 -0.12006,-0.11121 0.1941,-0.31406 -0.258,-1.3781 -0.71098,-1.67329 -0.14494,-0.0944 -0.17405,-0.39211 -0.0647,-0.66146 0.18054,-0.44467 0.22601,-0.42887 0.49426,0.17174 0.16248,0.3638 0.41778,0.74893 0.56733,0.85584 0.14955,0.10691 0.16415,0.19621 0.0325,0.19844 -0.1317,0.002 -0.0214,0.24499 0.2451,0.53947 0.37146,0.41046 0.41191,0.60806 0.1733,0.84666 -0.23861,0.23861 -0.31125,0.23351 -0.31125,-0.0219 z m -0.23802,-2.49673 c -0.33468,-0.5573 -0.32904,-0.56294 0.12656,-0.12656 0.26226,0.2512 0.41989,0.51367 0.35028,0.58328 -0.0696,0.0696 -0.28418,-0.13592 -0.47684,-0.45672 z m -4.08467,3.45161 c -0.0734,-0.1819 -0.13345,-0.0331 -0.13345,0.33073 0,0.3638 0.0601,0.51263 0.13345,0.33073 0.0734,-0.1819 0.0734,-0.47956 0,-0.66146 z m 3.05072,0.22993 c 0.38202,0.2361 -0.0134,-0.99069 -0.47622,-1.47725 -0.32133,-0.33785 -0.36801,-0.32092 -0.36486,0.13229 0.005,0.78813 0.33903,1.87303 0.46223,1.50344 0.0597,-0.17906 0.23017,-0.25037 0.37885,-0.15848 z m 9.31451,0.1449 c 0.075,-0.12127 -0.0318,-0.22049 -0.23733,-0.22049 -0.20548,0 -0.31228,0.0992 -0.23733,0.22049 0.075,0.12127 0.18175,0.22049 0.23733,0.22049 0.0556,0 0.16238,-0.0992 0.23733,-0.22049 z m -22.68398,-0.90399 c -0.0734,-0.1819 -0.13345,-0.0331 -0.13345,0.33073 0,0.3638 0.06,0.51263 0.13345,0.33073 0.0734,-0.18191 0.0734,-0.47956 0,-0.66146 z m 1.93739,0 c 0.002,-0.10914 -0.11501,-0.19844 -0.26053,-0.19844 -0.14552,0 -0.26276,0.26789 -0.26053,0.59531 0.003,0.4814 0.0531,0.51937 0.26053,0.19844 0.14106,-0.21828 0.2583,-0.48617 0.26053,-0.59531 z m 3.44363,0.47863 c 0,-0.20969 -0.11906,-0.45484 -0.26458,-0.54478 -0.14552,-0.0899 -0.26458,0.0816 -0.26458,0.38126 0,0.29963 0.11906,0.54478 0.26458,0.54478 0.14552,0 0.26458,-0.17156 0.26458,-0.38126 z m 6.66654,-0.83943 c -0.23007,-0.41111 -0.26166,-0.37956 -0.22586,0.22558 0.023,0.38836 0.1428,0.60247 0.26747,0.47795 0.12474,-0.12459 0.10611,-0.43957 -0.0416,-0.70353 z m -9.55214,-0.97699 c -0.20947,-0.20948 -0.2894,-0.14082 -0.2894,0.24858 0,0.6995 0.37001,1.07078 0.48784,0.48953 0.05,-0.2468 -0.0393,-0.57895 -0.19844,-0.73811 z m 17.75127,0.50817 c 0.14761,0.0912 0.11749,-0.11607 -0.0669,-0.46067 -0.20434,-0.38181 -0.3785,-0.49698 -0.44587,-0.29486 -0.11636,0.34907 -0.59453,0.19385 -0.59453,-0.19299 0,-0.31689 0.6596,-0.18393 1.16393,0.23463 0.40109,0.33287 0.54919,0.20791 0.43533,-0.3673 -0.028,-0.14143 0.17384,-0.0538 0.44853,0.19483 0.38525,0.34865 0.57119,0.38022 0.81332,0.13809 0.17264,-0.17263 0.31389,-0.42898 0.31389,-0.56965 0,-0.14067 -0.0775,-0.17824 -0.17228,-0.0835 -0.0948,0.0948 -0.32303,-0.0339 -0.50729,-0.28588 -0.25697,-0.35143 -0.26307,-0.55078 -0.0262,-0.85578 0.26811,-0.34517 0.24851,-0.35033 -0.1486,-0.0391 -0.36109,0.28298 -0.39916,0.47807 -0.18068,0.92604 0.2277,0.46689 0.18301,0.45094 -0.25205,-0.09 -0.29086,-0.36162 -0.47635,-0.70998 -0.41221,-0.77412 0.20517,-0.20517 -1.01365,-1.33627 -1.2695,-1.17814 -0.13531,0.0836 0.0218,0.43715 0.34916,0.7856 0.32735,0.34845 0.53826,0.63354 0.46868,0.63354 -0.0696,0 -0.53682,-0.4413 -1.03831,-0.98067 -0.50149,-0.53936 -0.71404,-0.83124 -0.47233,-0.64861 0.26785,0.20239 0.50097,0.23255 0.59696,0.0772 0.16756,-0.27112 -1.4012,-1.35836 -1.95995,-1.35836 -0.25391,0 -0.24657,0.10583 0.0312,0.45039 0.34196,0.42414 0.32498,0.42414 -0.29106,0 -0.3598,-0.24772 -1.04441,-0.45039 -1.52135,-0.45039 -0.92611,0 -1.17061,0.39214 -0.40415,0.64819 0.70767,0.23641 2.48252,1.92709 2.43063,2.31535 -0.0809,0.60524 0.011,1.00707 0.2152,0.94112 0.34484,-0.11138 1.39477,0.76299 1.18894,0.99013 -0.10821,0.11942 -0.0471,0.13096 0.13584,0.0256 0.19985,-0.11505 0.40404,-0.005 0.51158,0.27494 0.1106,0.2882 0.21961,0.34452 0.28532,0.14741 0.0585,-0.17545 0.2271,-0.24436 0.37471,-0.15313 z m -15.165,-1.81622 c -0.0279,-0.9095 -0.10101,-1.50481 -0.16237,-1.32291 -0.16093,0.4771 -0.53461,0.40646 -0.69981,-0.13229 -0.0781,-0.25467 -0.0985,0.12838 -0.0454,0.85122 0.0531,0.72283 0.22734,1.35783 0.38717,1.41111 0.15983,0.0533 0.29061,0.26554 0.29061,0.47169 0,0.20616 0.0631,0.37483 0.14032,0.37483 0.0772,0 0.11746,-0.74414 0.0895,-1.65365 z m -8.03844,-0.59531 c 0.11026,-0.7276 0.22372,-1.56705 0.25213,-1.86544 0.0284,-0.29839 0.13485,-0.67712 0.23651,-0.84162 0.10167,-0.16449 0.0638,-0.37387 -0.084,-0.46527 -0.14789,-0.0914 -0.2689,0.006 -0.2689,0.21587 0,0.21013 -0.32742,0.59152 -0.7276,0.84752 l -0.72761,0.46546 0.66146,-0.74228 c 0.71273,-0.79981 0.37999,-0.68215 -0.99939,0.35339 -0.4769,0.35802 -0.8072,0.71085 -0.734,0.78405 0.0732,0.0732 0.34434,-0.0306 0.60252,-0.23077 0.39532,-0.30644 0.38985,-0.27063 -0.0346,0.22688 -0.4983,0.58404 -1.13499,0.83764 -0.81888,0.32617 0.25913,-0.41929 -0.17177,-0.308 -0.76836,0.19844 -0.51947,0.44097 -0.52837,0.44097 -0.18688,0 0.2368,-0.30578 0.25771,-0.46302 0.0616,-0.46302 -0.51289,0 -0.69729,0.12319 -0.59406,0.39687 0.0549,0.14552 0.1045,0.39708 0.11025,0.55901 0.012,0.33884 0.98058,0.15641 0.98058,-0.18469 0,-0.12398 0.16142,-0.16348 0.35871,-0.0878 0.19729,0.0757 0.91167,-0.28443 1.5875,-0.80031 0.84752,-0.64692 1.22879,-0.81535 1.22879,-0.54282 0,0.21731 -0.17859,0.39512 -0.39687,0.39512 -0.22428,0 -0.39688,0.23692 -0.39688,0.54479 0,0.29963 -0.10832,0.47783 -0.24071,0.39601 -0.13238,-0.0818 -0.43249,-0.0752 -0.66689,0.0148 -0.36893,0.14157 -0.34838,0.23103 0.15288,0.66578 0.3185,0.27622 0.60868,0.76856 0.64485,1.09408 0.0975,0.87738 0.10718,0.89021 0.34671,0.45956 0.12142,-0.21828 0.31097,-0.99218 0.42122,-1.71979 z m 19.21799,1.27662 c -0.3119,-0.53637 -0.38722,-0.36469 -0.1319,0.30065 0.0907,0.23646 0.22071,0.37419 0.28883,0.30607 0.0681,-0.0681 -0.002,-0.34115 -0.15693,-0.60672 z m -18.01076,-3.38513 c 0.11815,0.073 0.30097,-0.007 0.40627,-0.17701 0.11957,-0.19347 0.0768,-0.2389 -0.11401,-0.12099 -0.38226,0.23625 -0.38849,0.0133 -0.0189,-0.67722 0.24363,-0.45522 0.21391,-0.5196 -0.19844,-0.42991 -0.26673,0.058 -0.46122,0.22919 -0.43219,0.3804 0.029,0.1512 -0.11839,0.91803 -0.32759,1.70407 -0.2092,0.78605 -0.36848,1.78636 -0.35395,2.22292 0.0156,0.4688 0.18968,0.01 0.42522,-1.12063 0.21934,-1.05292 0.49547,-1.85465 0.61362,-1.78163 z m 5.01793,2.96841 c 0.003,-0.22337 0.0932,-0.2019 0.27881,0.0661 0.22891,0.33066 0.26134,0.31225 0.19438,-0.11036 -0.11216,-0.70787 -0.64549,-0.81578 -0.81566,-0.16504 -0.0777,0.29699 -0.0333,0.53999 0.0986,0.53999 0.1319,0 0.24164,-0.14883 0.24387,-0.33073 z m -0.58614,-1.15515 c 0,-0.9161 -0.0135,-0.93013 -0.31856,-0.33073 -0.1752,0.34429 -0.22209,0.66591 -0.10418,0.71473 0.11791,0.0488 0.14707,0.19763 0.0648,0.33072 -0.0823,0.1331 -0.0354,0.24199 0.10418,0.24199 0.13956,0 0.25374,-0.43052 0.25374,-0.95671 z m 13.62203,0.79315 c 0.09,-0.0899 -0.24131,-0.59269 -0.73616,-1.1172 -0.62977,-0.66753 -0.80453,-1.01415 -0.58247,-1.15531 0.17447,-0.11091 0.19817,-0.20166 0.0526,-0.20166 -0.14552,0 -0.42747,0.10319 -0.62654,0.2293 -0.29316,0.18572 -0.25925,0.33202 0.1784,0.76967 0.29721,0.29721 0.67264,0.78751 0.83429,1.08957 0.29811,0.55701 0.58341,0.68206 0.87983,0.38563 z m -24.41703,-0.52638 c 0,-0.21898 -0.51375,-0.34281 -0.63153,-0.15222 -0.0764,0.12364 0.0344,0.2248 0.2463,0.2248 0.21188,0 0.38523,-0.0327 0.38523,-0.0726 z m -0.26458,-0.76015 c 0,0.12067 0.26789,-0.019 0.59531,-0.31035 0.63364,-0.56387 1.93018,-0.80366 1.61849,-0.29933 -0.25419,0.41128 0.29238,0.062 2.08568,-1.33287 0.83674,-0.65084 1.52135,-1.24912 1.52135,-1.32952 0,-0.0804 -0.14287,-0.003 -0.3175,0.17133 -0.48584,0.48583 -0.85426,0.37746 -0.4425,-0.13017 0.31306,-0.38593 0.3084,-0.41643 -0.0337,-0.2212 -0.99914,0.57013 -1.86978,1.26852 -1.74142,1.39689 0.0776,0.0776 0.32548,-0.0119 0.5508,-0.19886 0.22531,-0.18699 0.45316,-0.29326 0.50633,-0.23614 0.0532,0.0571 -0.39619,0.44828 -0.99858,0.86924 -0.81166,0.56721 -0.96474,0.61859 -0.59122,0.19844 0.66318,-0.74598 0.24413,-0.72849 -0.61927,0.0259 -0.37318,0.32604 -0.2682,0.14745 0.23329,-0.39687 1.15768,-1.25656 0.87692,-1.27216 -0.58031,-0.0322 -0.67511,0.57444 -0.54311,0.3957 0.32997,-0.44679 0.80036,-0.77233 1.21708,-1.31581 0.92604,-1.20773 -0.95304,0.35391 0.12282,-0.51423 1.5875,-1.281 1.25457,-0.65677 1.27507,-0.68406 0.39687,-0.52811 -1.49308,0.26514 -1.8691,0.41251 -1.70989,0.67012 0.0824,0.13338 -0.0379,0.17043 -0.26749,0.0823 -0.3081,-0.11823 -0.34297,-0.24981 -0.13319,-0.50258 0.20293,-0.24452 0.20124,-0.39369 -0.006,-0.52172 -0.39601,-0.24475 -1.13111,0.0652 -0.92925,0.39187 0.0898,0.14526 -0.002,0.20033 -0.20372,0.12277 -0.36092,-0.1385 -0.52766,-0.91162 -0.1966,-0.91162 0.0935,0 0.40103,-0.17889 0.6835,-0.39753 0.50139,-0.38808 0.50151,-0.39327 0.005,-0.21872 -0.27982,0.0984 -1.05373,0.46635 -1.71979,0.81779 -1.00431,0.52991 -1.07554,0.61171 -0.41727,0.47924 0.7493,-0.15079 0.76499,-0.13728 0.28016,0.2412 -0.36493,0.28489 -0.40401,0.40093 -0.13499,0.40093 0.23461,0 0.0946,0.26335 -0.36821,0.69248 -0.51659,0.47901 -0.83155,0.60772 -1.02172,0.41755 -0.15121,-0.15121 -0.42697,-0.21658 -0.6128,-0.14527 -0.18583,0.0713 -0.42784,-0.0159 -0.53781,-0.19385 -0.12331,-0.19952 -0.0899,-0.25548 0.0873,-0.14601 0.15795,0.0976 0.35551,0.0669 0.43902,-0.0682 0.0835,-0.13512 -0.0571,-0.21054 -0.31245,-0.16761 -0.25535,0.0429 -0.43452,0.21108 -0.39814,0.37365 0.0364,0.16257 -0.0529,0.29559 -0.19843,0.29559 -0.45674,0 -0.28807,0.65179 0.2567,0.99201 0.44838,0.28002 0.5656,0.24276 0.83809,-0.26638 0.19771,-0.36943 0.35844,-0.46698 0.42759,-0.25953 0.0706,0.21187 0.54777,-0.0522 1.31583,-0.72831 1.12679,-0.99184 1.89718,-1.39442 1.52929,-0.79916 -0.0945,0.15291 0.0364,0.19889 0.31511,0.11069 0.26222,-0.083 0.12143,0.12675 -0.31286,0.46605 -0.43429,0.33931 -0.97007,0.61707 -1.19062,0.61727 -0.22056,1.9e-4 -0.4014,0.11925 -0.40187,0.26458 -4.8e-4,0.14533 -0.31033,0.68095 -0.68857,1.19028 -1.21151,1.63137 -1.15853,1.7582 0.13814,0.33073 0.69399,-0.76399 1.39461,-1.38907 1.55694,-1.38907 0.16234,0 -0.18272,0.50602 -0.7668,1.12448 -0.58407,0.61847 -1.23394,1.36261 -1.44415,1.65365 -0.35293,0.48865 -0.34674,0.50136 0.0808,0.16604 0.53161,-0.41692 0.62568,-0.0602 0.13229,0.50163 -0.1819,0.20714 -0.0628,0.15297 0.26459,-0.12039 0.32742,-0.27335 0.59531,-0.39827 0.59531,-0.27758 z m 0.17577,-0.56301 c 0.16598,-0.44208 0.13583,-0.4581 -0.25852,-0.13732 -1.02539,0.83408 -0.3399,-0.16703 0.94265,-1.37669 0.76398,-0.72056 1.1807,-1.2375 0.92604,-1.14876 -0.77414,0.26976 -0.51755,-0.20554 0.39687,-0.73515 l 0.8599,-0.49804 -0.50403,0.57328 c -0.27721,0.31531 -0.40125,0.57328 -0.27564,0.57328 0.12561,0 -0.28399,0.52208 -0.91024,1.16017 -0.66455,0.67713 -1.00589,1.20442 -0.81982,1.26645 0.22219,0.0741 0.18791,0.21489 -0.11315,0.46474 -0.37828,0.31395 -0.4086,0.29632 -0.24406,-0.14196 z m 0.48569,-4.3369 c 0.0899,-0.14552 0.28258,-0.26458 0.4281,-0.26458 0.14552,0 0.191,0.11906 0.10107,0.26458 -0.0899,0.14552 -0.28259,0.26458 -0.42811,0.26458 -0.14552,0 -0.191,-0.11906 -0.10106,-0.26458 z m -2.68234,4.36562 0.46479,-0.79375 -0.54487,0.62463 c -0.29968,0.34354 -0.54487,0.75034 -0.54487,0.90399 0,0.32536 0.0132,0.30982 0.62495,-0.73487 z m 31.13231,0.14586 c -0.15177,-0.28357 -0.49425,-0.67053 -0.76107,-0.85989 -0.26682,-0.18936 -0.63222,-0.62142 -0.81199,-0.96013 -0.18393,-0.34652 -0.48408,-0.55551 -0.68636,-0.47789 -0.19772,0.0759 -0.41731,-0.004 -0.48798,-0.17791 -0.0707,-0.17373 -0.1379,-0.109 -0.14939,0.14383 -0.0117,0.25674 0.41717,0.73806 0.9713,1.09016 0.5457,0.34676 1.219,0.88403 1.49622,1.19395 0.62805,0.70214 0.78903,0.7201 0.42927,0.0479 z m -9.35981,-1.20183 c -0.53034,-0.53033 -0.70162,-0.50335 -0.70162,0.11053 0,0.28037 0.20836,0.55254 0.46302,0.60481 0.61655,0.12656 0.73259,-0.22135 0.2386,-0.71534 z m -19.88028,-1.40984 c -0.0677,-0.0677 -0.2858,0.0119 -0.4846,0.17686 -0.19881,0.16499 -0.42285,0.23861 -0.49786,0.1636 -0.23833,-0.23833 -0.79453,0.63401 -0.60243,0.94483 0.12161,0.19677 0.44272,0.0501 0.94606,-0.43214 0.41909,-0.4015 0.70656,-0.78542 0.63883,-0.85315 z m 8.97251,0.83422 c 0.17505,-0.45616 -0.22659,-0.45616 -0.60517,0 -0.22095,0.26622 -0.19923,0.35278 0.0885,0.35278 0.20971,0 0.44221,-0.15875 0.51666,-0.35278 z m -10.96052,0.0156 c 0,-0.21897 -0.51375,-0.34281 -0.63153,-0.15222 -0.0764,0.12364 0.0344,0.2248 0.2463,0.2248 0.21188,0 0.38523,-0.0327 0.38523,-0.0726 z m 17.99167,0.0441 c 0,-0.27926 -0.50776,-0.39659 -0.65879,-0.15222 -0.0914,0.14789 0.0194,0.2689 0.2463,0.2689 0.22687,0 0.41249,-0.0525 0.41249,-0.11668 z m 1.5875,-0.52917 c 0,-0.0642 -0.11906,-0.19026 -0.26458,-0.2802 -0.14552,-0.0899 -0.26459,-0.0374 -0.26459,0.11668 0,0.15411 0.11907,0.2802 0.26459,0.2802 0.14552,0 0.26458,-0.0525 0.26458,-0.11668 z m -13.4915,-0.54681 c 0.24243,-0.2194 0.90665,-0.63137 1.47604,-0.9155 0.98623,-0.49213 1.0008,-0.51709 0.30765,-0.52713 -0.40018,-0.006 -0.72761,0.10478 -0.72761,0.24573 0,0.14096 -0.15224,0.19786 -0.33832,0.12646 -0.18607,-0.0714 -0.57303,0.0611 -0.85989,0.29448 -0.51813,0.42151 -0.51808,0.42327 0.008,0.26694 0.43744,-0.13009 0.41451,-0.0661 -0.13229,0.3694 -0.36381,0.28971 -0.55177,0.52941 -0.41771,0.53264 0.13406,0.003 0.4421,-0.17362 0.68453,-0.39302 z m 29.89567,-0.13026 c 0,-0.14552 -0.12609,-0.26458 -0.2802,-0.26458 -0.15411,0 -0.20661,0.11906 -0.11668,0.26458 0.0899,0.14552 0.21603,0.26458 0.2802,0.26458 0.0642,0 0.11668,-0.11906 0.11668,-0.26458 z m 1.99834,0.0226 c -0.0823,-0.1331 10e-6,-0.29956 0.18282,-0.36991 0.18281,-0.0704 0.0706,-0.11518 -0.24944,-0.0996 -0.4441,0.0216 -0.51472,0.10919 -0.29834,0.36991 0.32418,0.39061 0.58958,0.46304 0.36496,0.0996 z m -28.17225,-0.35994 c -0.0327,-0.31637 -0.39563,-0.2551 -0.50932,0.086 -0.0582,0.17462 0.037,0.26987 0.21166,0.21166 0.17463,-0.0582 0.30858,-0.19215 0.29766,-0.29765 z m 12.57594,-0.5887 c 0.15942,-0.50932 0.19129,-0.92604 0.0708,-0.92604 -0.35672,0 -1.08526,1.27586 -0.89986,1.57586 0.29892,0.48366 0.53124,0.30155 0.82902,-0.64982 z m 1.82401,0.39687 c 0.26339,-0.29104 0.34556,-0.52916 0.18261,-0.52916 -0.16296,0 -0.42373,0.23812 -0.57949,0.52916 -0.15576,0.29104 -0.23793,0.52917 -0.1826,0.52917 0.0553,0 0.31609,-0.23813 0.57948,-0.52917 z m -9.78958,-0.26458 c 0.0899,-0.14552 0.0374,-0.26458 -0.11668,-0.26458 -0.15411,0 -0.2802,0.11906 -0.2802,0.26458 0,0.14552 0.0525,0.26458 0.11668,0.26458 0.0642,0 0.19026,-0.11906 0.2802,-0.26458 z m 3.95022,0.03 c 0.17283,-0.27965 -0.58553,-0.96933 -0.8143,-0.74055 -0.22045,0.22045 0.0984,0.97515 0.41203,0.97515 0.1415,0 0.32252,-0.10557 0.40227,-0.2346 z m 1.61999,-0.007 c -0.0823,-0.13309 -0.0256,-0.2833 0.12584,-0.33378 0.17764,-0.0592 0.15474,-0.25617 -0.0645,-0.55487 -0.30496,-0.41548 -0.34278,-0.38118 -0.36806,0.33379 -0.0155,0.43826 0.0808,0.79684 0.21405,0.79684 0.13323,0 0.17493,-0.10889 0.0927,-0.24198 z m -22.50355,-0.87063 c 0,-0.30757 0.39797,-0.8382 0.92604,-1.23473 0.50933,-0.38245 0.76264,-0.48701 0.56292,-0.23234 -0.27553,0.35133 -0.28367,0.46302 -0.0337,0.46302 0.25354,0 0.25805,0.0859 0.0195,0.37332 -0.2173,0.26183 -0.22502,0.42573 -0.0258,0.54883 0.15619,0.0965 0.25127,0.0178 0.21128,-0.17488 -0.04,-0.19272 0.1059,-0.3504 0.32418,-0.3504 0.21828,0 0.36811,0.14582 0.33296,0.32404 -0.0492,0.24954 0.0866,0.25547 0.59068,0.0258 0.60423,-0.27531 0.61933,-0.32424 0.19621,-0.63588 -0.43252,-0.31856 -0.43101,-0.34823 0.0268,-0.52562 0.38073,-0.14753 0.40922,-0.23618 0.13229,-0.41172 -0.41774,-0.26481 -0.91413,-0.30797 -0.66389,-0.0577 0.2221,0.2221 -0.31959,0.88694 -0.71361,0.87582 -0.16408,-0.005 -0.0672,-0.18322 0.21526,-0.39687 0.28248,-0.21367 0.36475,-0.38847 0.18283,-0.38847 -0.18193,0 -0.25719,-0.11907 -0.16725,-0.26459 0.24212,-0.39176 -0.22139,-0.32081 -0.80933,0.12388 -0.28247,0.21365 -0.62564,0.39225 -0.7626,0.39688 -0.13695,0.005 -0.0179,-0.16537 0.26459,-0.37778 0.47438,-0.3567 0.43663,-0.37687 -0.49447,-0.26417 -0.58655,0.071 -0.9443,0.0189 -0.85558,-0.1247 0.0839,-0.13569 0.002,-0.33356 -0.18257,-0.4397 -0.18427,-0.10615 -0.24548,-0.0943 -0.13603,0.0264 0.10946,0.12067 -0.01,0.46512 -0.26458,0.76547 -0.45028,0.53038 -0.44839,0.53509 0.0656,0.16387 0.35204,-0.25428 0.29691,-0.1199 -0.1647,0.40143 -0.87538,0.98864 -0.91149,1.74726 -0.076,1.59575 0.3731,-0.0676 0.65673,0.0469 0.75588,0.30528 0.20069,0.52298 0.54312,0.2013 0.54312,-0.51021 z m -1.71979,-0.3102 c 0,-0.0549 0.20836,-0.2633 0.46302,-0.46302 0.41965,-0.32911 0.429,-0.31975 0.0999,0.0999 -0.34565,0.44073 -0.56292,0.58088 -0.56292,0.36312 z m 13.49375,0.91529 c 0,-0.46492 -0.32279,-1.07998 -0.56678,-1.07998 -0.14428,0 -0.13644,0.20394 0.019,0.49438 0.14553,0.27191 0.1894,0.56957 0.0975,0.66146 -0.0919,0.0919 -0.0282,0.16708 0.1416,0.16708 0.16977,0 0.30868,-0.10933 0.30868,-0.24294 z m 2.24896,-0.0216 c 0.0899,-0.14552 0.0374,-0.26459 -0.11668,-0.26459 -0.15411,0 -0.2802,0.11907 -0.2802,0.26459 0,0.14552 0.0525,0.26458 0.11668,0.26458 0.0642,0 0.19026,-0.11906 0.2802,-0.26458 z m 4.85939,-0.33073 c -0.17523,-0.32742 -0.26872,-0.61516 -0.20775,-0.63941 0.061,-0.0243 0.0216,-0.1334 -0.0876,-0.24254 -0.23758,-0.23758 -0.2487,0.0721 -0.0317,0.88195 0.0877,0.32742 0.2689,0.59531 0.40257,0.59531 0.13367,0 0.0997,-0.26789 -0.0756,-0.59531 z m -17.85123,0.11024 c 0.075,-0.12127 -0.0318,-0.22049 -0.23733,-0.22049 -0.20548,0 -0.31228,0.0992 -0.23733,0.22049 0.075,0.12127 0.18175,0.22049 0.23733,0.22049 0.0556,0 0.16238,-0.0992 0.23733,-0.22049 z m 25.09653,0.0453 c -0.1819,-0.0734 -0.47956,-0.0734 -0.66146,0 -0.1819,0.0734 -0.0331,0.13345 0.33073,0.13345 0.3638,0 0.51263,-0.06 0.33073,-0.13345 z m -8.26823,-0.31293 c 0,-0.12297 -0.22631,-0.42838 -0.5029,-0.6787 -0.54686,-0.4949 -0.98666,-0.17821 -0.71948,0.51807 0.15524,0.40453 1.22238,0.54476 1.22238,0.16063 z m 15.68708,-0.30559 c -0.14945,-0.57151 -0.47607,-0.68859 -0.73812,-0.26459 -0.0899,0.14552 -0.008,0.26641 0.18282,0.26864 0.25167,0.003 0.23786,0.0742 -0.0505,0.26053 -0.32371,0.2092 -0.29169,0.25723 0.17367,0.26053 0.44103,0.003 0.53913,-0.11606 0.43216,-0.52511 z m 4.84339,0.2237 c 0.11024,-0.17838 0.0732,-0.23405 -0.089,-0.13381 -0.40404,0.24971 -0.61184,-0.49574 -0.24637,-0.88379 0.24714,-0.2624 0.18242,-0.2634 -0.3189,-0.005 -0.35889,0.18504 -0.69973,0.2219 -0.79375,0.0858 -0.0906,-0.13115 -0.46245,-0.25559 -0.82625,-0.27653 -0.63571,-0.0366 -0.64147,-0.0232 -0.14787,0.34342 0.28248,0.20983 0.65485,0.38151 0.8275,0.38151 0.17265,0 0.46213,0.17859 0.64329,0.39687 0.39465,0.47553 0.69601,0.50449 0.9513,0.0914 z m 2.46389,-0.12079 c -0.18093,-0.21802 -0.57688,-0.51552 -0.87989,-0.66112 -0.50519,-0.24276 -0.51249,-0.23364 -0.0879,0.10976 0.51412,0.41582 0.63794,0.85237 0.15756,0.55547 -0.16801,-0.10383 -0.23659,-0.0773 -0.15241,0.0589 0.0842,0.1362 0.40923,0.26694 0.72234,0.29053 0.47718,0.0359 0.51606,-0.0212 0.24031,-0.3535 z M 288.459,160.23441 c 0,-0.26679 -0.14883,-0.53468 -0.33073,-0.59531 -0.20946,-0.0698 -0.33073,0.14846 -0.33073,0.59531 0,0.44685 0.12127,0.66513 0.33073,0.59531 0.1819,-0.0606 0.33073,-0.32852 0.33073,-0.59531 z m 3.72816,-0.0642 c -0.18348,-0.18348 -0.68545,0.18933 -0.68545,0.50909 0,0.17544 0.15181,0.15537 0.40327,-0.0533 0.2218,-0.18408 0.34878,-0.38917 0.28218,-0.45577 z m 11.34179,0.47936 c 0.0837,-0.13547 0.0511,-0.30882 -0.0726,-0.38524 -0.12364,-0.0764 -0.2248,0.0344 -0.2248,0.2463 0,0.44614 0.0834,0.48511 0.29738,0.13894 z m -38.33692,-0.75158 c -0.0887,-0.0887 -0.36678,0.0539 -0.61798,0.31693 -0.43662,0.45714 -0.42952,0.46423 0.16125,0.16125 0.33989,-0.17431 0.54541,-0.38949 0.45673,-0.47818 z M 278.77,159.63172 c -0.0397,-0.54975 0.0169,-1.1437 0.1258,-1.31988 0.13739,-0.22229 0.059,-0.267 -0.25605,-0.1461 -0.30803,0.1182 -0.3925,0.0747 -0.26271,-0.13532 0.10522,-0.17025 0.0833,-0.30955 -0.0486,-0.30955 -0.31905,0 -0.34862,1.47899 -0.0455,2.27624 0.3549,0.93345 0.56926,0.77265 0.48709,-0.36539 z m 1.48504,0.73801 c 0.0927,-0.14998 -0.0135,-0.19433 -0.24897,-0.10398 -0.45836,0.17589 -0.54223,0.36554 -0.16164,0.36554 0.13693,0 0.32171,-0.1177 0.41061,-0.26156 z m 10.43969,-0.13532 c 0.32745,0 0.46152,-0.70783 0.30427,-1.6064 -0.0562,-0.32093 -0.82021,0.66493 -0.82021,1.05834 0,0.22867 -0.20836,0.41759 -0.46302,0.41982 -0.38892,0.003 -0.40062,0.0435 -0.0731,0.25062 0.21444,0.13561 0.45257,0.16355 0.52917,0.0621 0.0766,-0.10146 0.31191,-0.18447 0.52292,-0.18447 z m -28.21483,-1.09305 c -0.0806,-0.21002 0.0596,-0.60969 0.31163,-0.88814 0.42671,-0.4715 0.50254,-0.47721 1.10401,-0.0831 0.52692,0.34526 0.70423,0.36004 0.96298,0.0803 0.25405,-0.27465 0.21186,-0.30866 -0.21202,-0.17098 l -0.52917,0.17189 0.52917,-0.40892 c 0.29104,-0.2249 0.52917,-0.5325 0.52917,-0.68354 0,-0.30412 1.13478,-1.00143 1.65364,-1.01613 0.74096,-0.021 0.25945,0.73614 -0.76071,1.19617 -0.60029,0.2707 -0.95673,0.53707 -0.7921,0.59195 0.16464,0.0549 0.23204,0.20867 0.14978,0.34176 -0.33768,0.54639 0.47246,0.18771 1.24624,-0.55176 0.8494,-0.81173 1.28127,-0.99289 1.28127,-0.53747 0,0.14095 0.18858,0.18391 0.41906,0.0955 0.33697,-0.12931 0.34992,-0.20396 0.0661,-0.38107 -0.20607,-0.12862 0.0874,-0.16633 0.70542,-0.0906 0.79439,0.0973 0.92636,0.0671 0.52916,-0.12119 -0.45348,-0.21496 -0.39672,-0.25764 0.39688,-0.29842 0.90801,-0.0467 0.90285,-0.0521 -0.26459,-0.28091 -0.69001,-0.13522 -1.22377,-0.13484 -1.26945,9e-4 -0.0434,0.12882 -0.3046,0.17519 -0.58053,0.10303 -0.75048,-0.19626 -0.0709,-0.79991 0.77764,-0.6908 l 0.67547,0.0869 -0.71183,-0.2826 c -0.4963,-0.19702 -1.01172,-0.19978 -1.70222,-0.009 -0.66407,0.18336 -1.09592,0.18588 -1.31066,0.008 -0.22189,-0.18415 -0.4508,-0.13527 -0.74518,0.15911 -0.2337,0.2337 -0.4249,0.35014 -0.4249,0.25875 0,-0.0914 -0.35113,0.0413 -0.78029,0.29479 -1.51053,0.89228 -2.71888,3.26321 -1.67228,3.2812 0.44452,0.008 0.44479,0.0217 0.005,0.27773 -0.25466,0.14832 -0.46302,0.40128 -0.46302,0.56212 0,0.16085 0.2301,0.0842 0.51132,-0.17029 0.28123,-0.25451 0.44539,-0.63459 0.36479,-0.84462 z m 0.70036,-1.95916 c 0.66091,-0.66007 1.42885,-1.21964 1.70654,-1.24348 0.32681,-0.0281 0.14018,0.19827 -0.52917,0.64173 -0.56873,0.3768 -1.33667,0.93637 -1.70654,1.24348 -0.36987,0.30712 -0.13174,0.0183 0.52917,-0.64173 z m 13.40005,2.19783 c -0.26895,-0.26895 -0.49087,0.13596 -0.2702,0.49302 0.1667,0.26972 0.22902,0.26993 0.31864,0.001 0.0613,-0.18383 0.0395,-0.40616 -0.0484,-0.49408 z m 8.23533,0.21272 c -0.099,-0.3786 -0.0279,-0.46895 0.27713,-0.35191 0.24842,0.0953 0.34255,0.0478 0.23854,-0.1205 -0.0945,-0.15287 -0.44749,-0.33066 -0.78446,-0.39507 -0.54167,-0.10355 -0.59998,-0.0306 -0.50305,0.62986 0.0645,0.43967 0.27326,0.74699 0.50734,0.74699 0.26229,0 0.35235,-0.17344 0.2645,-0.50937 z m 7.31092,-0.15209 c -0.0838,-0.21828 -0.25862,-0.39687 -0.38858,-0.39687 -0.12995,0 -0.23627,0.17859 -0.23627,0.39687 0,0.21828 0.17486,0.39688 0.38857,0.39688 0.23669,0 0.32904,-0.15513 0.23628,-0.39688 z m -12.05303,-0.53617 c -0.0815,-0.0815 -0.22941,0.0654 -0.32877,0.32632 -0.14359,0.37709 -0.11319,0.40748 0.14811,0.14812 0.18082,-0.17948 0.26212,-0.39297 0.18066,-0.47444 z m 6.95331,0.0565 c -0.20712,-0.20713 -0.3802,-0.18791 -0.61836,0.0687 -0.26458,0.28506 -0.26458,0.31898 0,0.1696 0.1819,-0.1027 0.33073,-0.0536 0.33073,0.10909 0,0.1627 0.12943,0.21582 0.28763,0.11804 0.20713,-0.12801 0.20713,-0.25827 0,-0.4654 z m -11.40013,-0.0651 c 0,-0.22687 -0.11907,-0.33891 -0.26459,-0.24897 -0.14552,0.0899 -0.26458,0.27556 -0.26458,0.41249 0,0.13693 0.11906,0.24897 0.26458,0.24897 0.14552,0 0.26459,-0.18562 0.26459,-0.41249 z m -2.64584,0.0312 c 0,-0.0642 -0.11906,-0.19026 -0.26458,-0.2802 -0.14552,-0.0899 -0.26458,-0.0374 -0.26458,0.11668 0,0.15411 0.11906,0.2802 0.26458,0.2802 0.14552,0 0.26458,-0.0525 0.26458,-0.11668 z m -5.15883,-0.31702 c 0.35572,-0.1365 0.37265,-0.21745 0.0878,-0.41983 -0.25179,-0.17887 -0.18222,-0.2133 0.24276,-0.12014 0.32763,0.0718 0.53732,0.0361 0.466,-0.0793 -0.18903,-0.30585 0.9329,-0.5421 1.68179,-0.35414 0.44573,0.11188 0.58532,0.0684 0.45538,-0.14185 -0.28715,-0.46463 -1.37505,-0.36262 -2.83619,0.26595 -0.92312,0.39711 -1.21781,0.63578 -0.97509,0.7897 0.42342,0.2685 0.34668,0.26329 0.87756,0.0596 z m 2.39468,-0.0729 c -0.0823,-0.13309 10e-6,-0.30229 0.18282,-0.37599 0.20052,-0.0808 0.14869,-0.14229 -0.13065,-0.15489 -0.4685,-0.0211 -0.60993,0.27317 -0.28663,0.59647 0.25761,0.25762 0.40817,0.21549 0.23446,-0.0656 z m 21.6436,-0.0845 c -0.31171,-0.50436 -0.34587,-2.3427 -0.04,-2.15367 0.1467,0.0907 0.13035,-0.0858 -0.0369,-0.39832 -0.33741,-0.63045 -0.68192,-0.7671 -0.45714,-0.18132 0.0802,0.20888 0.008,0.42562 -0.15987,0.48165 -0.16809,0.056 -0.32065,0.53505 -0.33904,1.06449 -0.0184,0.52943 0.0671,0.90046 0.19005,0.82449 0.12292,-0.076 0.29491,0.048 0.38221,0.27553 0.0873,0.2275 0.27208,0.41364 0.41062,0.41364 0.13854,0 0.16109,-0.14692 0.0501,-0.32649 z m -9.79213,-0.52394 c 0.14753,-0.56412 -0.17732,-0.98896 -0.76281,-0.9976 -0.15095,-0.002 -0.30166,0.35314 -0.33493,0.7897 -0.0476,0.62456 0.0466,0.79375 0.44203,0.79375 0.2962,0 0.56541,-0.24053 0.65571,-0.58585 z m 5.24869,-6.3e-4 c -0.18985,-0.18987 -0.31309,-0.20549 -0.31309,-0.0397 0,0.35316 0.3129,0.66606 0.48948,0.48948 0.0752,-0.0752 -0.004,-0.27759 -0.17639,-0.44979 z m -6.88953,-0.90749 c 0.17356,-0.21422 0.0487,-0.29195 -0.42516,-0.26458 -0.6184,0.0357 -1.00438,0.70022 -0.40673,0.70022 0.14552,0 0.25048,0.0893 0.23325,0.19843 -0.0794,0.50272 0.10715,0.66887 0.22279,0.19844 0.0715,-0.29104 0.24067,-0.66567 0.37585,-0.83251 z m 3.66602,1.11271 c 0,-0.0642 -0.11906,-0.19026 -0.26458,-0.2802 -0.14552,-0.0899 -0.26458,-0.0374 -0.26458,0.11668 0,0.15411 0.11906,0.2802 0.26458,0.2802 0.14552,0 0.26458,-0.0525 0.26458,-0.11668 z m 2.26328,-0.61093 c -0.1236,-1.04237 -0.12473,-1.04336 -0.5519,-0.47859 -0.53706,0.71006 -0.48571,1.2062 0.12486,1.2062 0.4045,0 0.49502,-0.15424 0.42704,-0.72761 z m 3.49141,-0.17927 c -0.25466,-0.18815 -0.46302,-0.47779 -0.46302,-0.64365 0,-0.33641 -0.7711,-0.39955 -1.20992,-0.0991 -0.15614,0.10691 -0.36664,0.41806 -0.46778,0.69143 -0.16104,0.4353 -0.0851,0.4773 0.61103,0.33806 0.51659,-0.10331 0.91198,-0.0303 1.12923,0.20844 0.21976,0.24152 0.42498,0.27824 0.5989,0.10715 0.17567,-0.17281 0.10899,-0.37523 -0.19844,-0.60236 z m 2.97656,0.36209 c 0,-0.13693 -0.11906,-0.24896 -0.26458,-0.24896 -0.14552,0 -0.26458,0.18562 -0.26458,0.41249 0,0.22687 0.11906,0.3389 0.26458,0.24896 0.14552,-0.0899 0.26458,-0.27555 0.26458,-0.41249 z m 9.37286,0.059 c -0.50386,-0.48062 -1.43536,-0.47859 -1.43536,0.003 0,0.13714 0.10807,0.18255 0.24015,0.10092 0.13208,-0.0816 0.51904,-0.0367 0.8599,0.0999 0.88085,0.35294 0.90423,0.33872 0.33531,-0.20395 z m -26.04161,-0.57252 c 0,-0.29104 0.12609,-0.52916 0.2802,-0.52916 0.15411,0 0.20304,-0.12485 0.10874,-0.27743 -0.11721,-0.18966 -0.28958,-0.17941 -0.54478,0.0324 -0.42693,0.35432 -0.5061,1.30337 -0.10874,1.30337 0.14552,0 0.26458,-0.23813 0.26458,-0.52917 z m -1.32291,-0.67707 c 0,-0.71484 -0.38692,-0.86901 -0.62485,-0.24897 -0.19432,0.50639 0.0767,1.23361 0.38799,1.0412 0.13027,-0.0805 0.23686,-0.43702 0.23686,-0.79223 z m 4.23333,0.41249 c 0,-0.29104 0.009,-0.61549 0.0198,-0.72099 0.0109,-0.1055 -0.093,-0.22943 -0.23089,-0.2754 -0.28418,-0.0947 -0.62877,0.97237 -0.42203,1.30689 0.25216,0.408 0.63308,0.22117 0.63308,-0.3105 z m 20.70365,0.2682 c 0.85299,-0.007 0.47447,-0.53254 -0.39688,-0.55138 -0.7206,-0.0156 -0.77417,-0.0554 -0.33073,-0.24599 l 0.52917,-0.22739 -0.52917,-0.0589 c -0.29104,-0.0324 -0.64823,-0.0866 -0.79375,-0.12037 -0.14552,-0.0338 -0.38364,-0.0836 -0.52916,-0.11059 -0.14552,-0.027 -0.0265,-0.15144 0.26458,-0.27651 0.48654,-0.20907 0.47589,-0.22964 -0.13229,-0.25536 l -0.66146,-0.028 0.62305,-0.34551 c 0.34268,-0.19003 0.90822,-0.29099 1.25677,-0.22436 0.36253,0.0693 0.63372,-0.005 0.63372,-0.17429 0,-0.16248 -0.26789,-0.30482 -0.59531,-0.31631 -0.98054,-0.0344 -0.18493,-0.23108 1.92083,-0.47482 l 1.98177,-0.22939 -1.83472,-0.0343 c -1.97863,-0.037 -4.92578,0.64124 -4.83538,1.11281 0.0305,0.1593 0.28928,0.48809 0.575,0.73065 0.50011,0.42458 0.48121,0.43972 -0.50676,0.4061 -0.61284,-0.0209 -1.07079,0.0983 -1.13684,0.2958 -0.0699,0.20905 0.14662,0.33073 0.58852,0.33073 0.44381,0 0.63301,-0.10697 0.51808,-0.29293 -0.12047,-0.19493 0.007,-0.23919 0.38126,-0.13229 0.30927,0.0884 0.81616,0.23319 1.12643,0.32186 0.40217,0.11493 0.4684,0.22038 0.23068,0.36729 -0.51033,0.3154 -0.0163,0.86062 0.62411,0.68878 0.311,-0.0835 0.77382,-0.15336 1.02848,-0.15534 z m -33.66823,-0.2682 c 0.21828,-0.14106 0.27781,-0.25648 0.13229,-0.25648 -0.14552,0 -0.44318,0.11542 -0.66146,0.25648 -0.21828,0.14106 -0.27781,0.25648 -0.13229,0.25648 0.14552,0 0.44318,-0.11542 0.66146,-0.25648 z m 7.06733,-0.21581 c 0.0291,-0.38696 -0.11581,-0.45808 -0.74536,-0.36568 -0.71832,0.10543 -0.74345,0.14361 -0.31061,0.47197 0.65328,0.49562 1.01336,0.45937 1.05597,-0.10629 z m 28.65142,0.0552 c 0,-0.0572 -0.24515,-0.10398 -0.54478,-0.10398 -0.29963,0 -0.47442,0.11386 -0.3884,0.25302 0.14118,0.22845 0.93318,0.10195 0.93318,-0.14904 z m 0.74265,-0.24328 c -0.0815,-0.0815 -0.22941,0.0654 -0.32877,0.32632 -0.14358,0.37709 -0.11319,0.40748 0.14812,0.14812 0.18082,-0.17948 0.26211,-0.39297 0.18065,-0.47444 z m -24.55515,-0.009 c 0,-0.22687 -0.12101,-0.33771 -0.2689,-0.2463 -0.1479,0.0914 -0.2004,0.27702 -0.11668,0.41249 0.22681,0.36699 0.38558,0.29856 0.38558,-0.16619 z m 6.87916,-8.2e-4 c 0,-0.20924 -0.13394,-0.35067 -0.29765,-0.31429 -0.16371,0.0364 -0.35223,-0.0827 -0.41892,-0.26458 -0.0667,-0.1819 0.008,-0.33073 0.16536,-0.33073 0.15765,-1e-5 0.28663,-0.23111 0.28663,-0.51356 0,-0.28245 0.1393,-0.59964 0.30955,-0.70486 0.21461,-0.13264 0.25169,-0.0405 0.1209,0.30028 -0.17991,0.46884 -0.16271,0.46813 0.37149,-0.0153 0.30807,-0.2788 0.53722,-0.39118 0.50922,-0.24975 -0.12369,0.62484 0.0493,0.91862 0.54092,0.91862 0.64172,0 0.65565,-0.22667 0.0574,-0.93344 -0.50146,-0.59237 -1.47798,-0.76198 -2.19076,-0.38051 -0.33825,0.18102 -0.46419,0.58685 -0.47141,1.5191 -0.008,1.0733 0.0704,1.27813 0.50373,1.31078 0.28821,0.0217 0.51359,-0.12827 0.51359,-0.34175 z m 16.5971,-0.2757 c -0.0879,-0.0879 -0.31613,-0.0973 -0.50712,-0.0209 -0.21107,0.0845 -0.14837,0.14716 0.15985,0.15985 0.27892,0.0115 0.43519,-0.051 0.34727,-0.13896 z m -11.50353,-1.8155 c -0.13174,-0.68915 -0.59565,-1.21135 -0.59565,-0.67049 0,0.1627 -0.11906,0.22223 -0.26458,0.13229 -0.14552,-0.0899 -0.26459,-0.0474 -0.26459,0.0946 0,0.14198 0.14883,0.3276 0.33073,0.41249 0.26459,0.12347 0.26459,0.18521 0,0.30868 -0.3614,0.16866 -0.44644,0.96467 -0.13619,1.27492 0.35116,0.35116 1.06611,-0.84199 0.93028,-1.55252 z m 3.63768,1.36978 c 0.34925,0.10268 0.34978,0.084 0.004,-0.15564 -0.3095,-0.21478 0.0259,-0.46698 1.5875,-1.19352 l 1.97992,-0.9212 -1.32291,-0.0158 c -0.72761,-0.009 -1.75988,0.10559 -2.29393,0.25393 -0.97782,0.27158 -2.4621,1.28966 -1.90412,1.30604 0.16493,0.005 0.36447,0.25584 0.44343,0.55777 0.11337,0.43352 0.24504,0.49668 0.62617,0.30033 0.26544,-0.13674 0.66121,-0.19612 0.87949,-0.13194 z m 10.45105,0.0536 c 0.44087,-0.025 0.4188,-0.0653 -0.13229,-0.24183 l -0.66146,-0.21183 0.66146,-0.045 c 0.61093,-0.0415 0.62103,-0.0623 0.13229,-0.27236 -0.73507,-0.31587 -1.25356,-0.31587 -1.05834,0 0.0899,0.14552 -0.0519,0.27839 -0.31511,0.29527 -0.41307,0.0265 -0.40615,0.0495 0.0505,0.16796 l 0.52917,0.13726 -0.52917,0.23435 c -0.44731,0.1981 -0.42685,0.21361 0.13229,0.10024 0.3638,-0.0738 0.89959,-0.1476 1.19063,-0.16409 z m -21.82813,-0.32425 c 0,-0.19084 0.20836,-0.57779 0.46302,-0.85989 0.45621,-0.50537 0.8589,-2.04406 0.42275,-1.61535 -0.12337,0.12127 -0.23488,0.29987 -0.2478,0.39688 -0.0884,0.66357 -0.57577,1.41711 -0.7423,1.14767 -0.3038,-0.49156 -1.30739,-0.3937 -1.1146,0.10869 0.0883,0.23018 0.1606,0.58737 0.1606,0.79375 0,0.20638 0.23812,0.37524 0.52916,0.37524 0.29105,0 0.52917,-0.15615 0.52917,-0.34699 z m 18.58698,0.17176 c -0.1819,-0.0734 -0.47956,-0.0734 -0.66146,0 -0.1819,0.0734 -0.0331,0.13345 0.33073,0.13345 0.3638,0 0.51263,-0.0601 0.33073,-0.13345 z m -13.11457,-0.66813 c -0.0845,-0.21107 -0.14716,-0.14837 -0.15985,0.15985 -0.0115,0.27891 0.051,0.43518 0.13896,0.34727 0.0879,-0.0879 0.0973,-0.31613 0.0209,-0.50712 z m -8.91199,0.0712 c 0,-0.13362 0.0723,-0.43128 0.1606,-0.66146 0.10684,-0.27843 0.013,-0.41852 -0.2802,-0.41852 -0.28222,0 -0.36932,0.11898 -0.2421,0.33073 0.13501,0.22473 0.0552,0.21434 -0.24897,-0.0324 -0.39168,-0.31772 -0.44767,-0.29842 -0.44767,0.15434 0,0.2846 0.0794,0.59684 0.17639,0.69385 0.2609,0.2609 0.88195,0.21403 0.88195,-0.0666 z m 0.98558,-0.28623 c 0.0219,-0.29104 -0.0718,-0.52916 -0.20828,-0.52916 -0.28466,0 -0.33499,0.6187 -0.0718,0.88194 0.23953,0.23953 0.23498,0.24525 0.28003,-0.35278 z m -3.896,-0.13229 c 0.18985,-0.22876 0.21557,-0.39687 0.0607,-0.39687 -0.14777,0 -0.33721,0.17859 -0.42097,0.39687 -0.0838,0.21828 -0.11108,0.39688 -0.0607,0.39688 0.0504,0 0.23981,-0.1786 0.42097,-0.39688 z m 30.95625,0.0283 c 0,-0.40041 -0.5777,-0.70239 -1.27841,-0.66828 -0.27608,0.0134 -0.16655,0.14322 0.29247,0.34653 0.40362,0.17877 0.65167,0.40723 0.55122,0.50768 -0.10045,0.10045 -0.0437,0.18264 0.12604,0.18264 0.16978,0 0.30868,-0.16586 0.30868,-0.36857 z m -5.49175,-0.0718 c -0.18281,-0.0737 -0.26508,-0.24289 -0.18282,-0.37598 0.17662,-0.28579 0.054,-0.30223 -0.54368,-0.0729 -0.35155,0.13491 -0.36931,0.21437 -0.0878,0.39283 0.19411,0.12304 0.53151,0.21613 0.74979,0.20687 0.27271,-0.0116 0.29288,-0.0588 0.0645,-0.15084 z m -23.877,-1.29152 c 0,-0.1893 0.29766,-0.69792 0.66146,-1.13028 0.3638,-0.43235 0.65963,-0.88797 0.65741,-1.01249 -0.002,-0.12451 -0.0915,-0.10103 -0.19844,0.0522 -0.10691,0.15322 -0.64087,0.61383 -1.18658,1.0236 -0.5457,0.40976 -0.9884,0.87971 -0.98377,1.04434 0.005,0.16463 0.16658,0.091 0.3599,-0.16369 0.57907,-0.76284 0.73506,-0.52386 0.25905,0.39687 -0.40908,0.79128 -0.40962,0.83092 -0.007,0.49677 0.24077,-0.19972 0.43776,-0.518 0.43776,-0.7073 z m 3.0705,0.0994 c 0.12863,-0.20813 0.0471,-0.25419 -0.24897,-0.14059 -0.24215,0.0929 -0.44028,0.0466 -0.44028,-0.10295 0,-0.14954 -0.11906,-0.19831 -0.26458,-0.10837 -0.14552,0.0899 -0.26459,0.27556 -0.26459,0.41249 0,0.35711 0.99072,0.30785 1.21842,-0.0606 z m -1.20133,-0.51613 c 0.17589,-0.32866 0.18911,-0.49238 0.0319,-0.39523 -0.14761,0.0912 -0.3232,0.0163 -0.3902,-0.1665 -0.0953,-0.25999 -0.19573,-0.26279 -0.46118,-0.0129 -0.27577,0.25965 -0.27589,0.39599 -6.8e-4,0.72761 0.43354,0.52239 0.46146,0.51718 0.82014,-0.15301 z m 5.2005,0.0496 c 0.0212,-0.28134 -0.13065,-0.65194 -0.33744,-0.82355 -0.29777,-0.24713 -0.41307,-0.21533 -0.55438,0.1529 -0.1155,0.30099 -0.005,0.5914 0.31202,0.82355 0.26974,0.19724 0.50188,0.35862 0.51586,0.35862 0.014,0 0.0427,-0.23019 0.0639,-0.51152 z m 9.06991,-2.97076 c 1.08107,-0.96012 1.10888,-1.0129 0.3023,-0.57351 -1.50007,0.81715 -4.13011,3.37708 -3.88201,3.77851 0.16232,0.26265 0.49788,0.0318 1.30383,-0.89695 0.59689,-0.68784 1.62104,-1.72646 2.27588,-2.30805 z m -7.75668,2.8365 c -0.26435,-0.2004 -0.47271,-0.43474 -0.46302,-0.52075 0.0288,-0.25553 -0.35913,-0.21677 -0.44625,0.0446 -0.0441,0.13236 0.19103,0.37136 0.52256,0.5311 0.82532,0.39767 0.95876,0.37872 0.38671,-0.0549 z m 2.02219,-0.31327 c -0.58116,-0.88695 -1.036,-0.94973 -0.97512,-0.13458 0.0286,0.38321 0.0617,0.72518 0.0735,0.75993 0.0118,0.0348 0.30561,0.0397 0.65287,0.0109 0.5883,-0.0487 0.60527,-0.0921 0.24871,-0.63628 z m -24.36186,0.25465 c -0.1819,-0.0734 -0.47956,-0.0734 -0.66146,0 -0.1819,0.0734 -0.0331,0.13345 0.33073,0.13345 0.3638,0 0.51263,-0.06 0.33073,-0.13345 z m 2.05052,-0.0645 c 0.65979,-0.18654 0.65996,-0.18741 0.0661,-0.34573 -0.32743,-0.0873 -0.59532,-0.0428 -0.59532,0.0989 0,0.1423 -0.25173,0.17775 -0.5623,0.0792 -0.37839,-0.1201 -0.50308,-0.0827 -0.38126,0.11446 0.19946,0.32272 0.48309,0.33297 1.47273,0.0532 z m 16.93333,-0.12882 c 0,-0.38131 -0.76345,-0.80825 -1.008,-0.5637 -0.0762,0.0762 3.8e-4,0.13852 0.17016,0.13852 0.16977,0 0.30868,0.17859 0.30868,0.39687 0,0.21829 0.11906,0.39688 0.26458,0.39688 0.14552,0 0.26458,-0.16586 0.26458,-0.36857 z m 18.1846,-0.0559 c -0.0879,-0.0879 -0.31613,-0.0973 -0.50712,-0.0209 -0.21107,0.0845 -0.14837,0.14715 0.15985,0.15985 0.27892,0.0115 0.43519,-0.0511 0.34727,-0.13897 z m -32.54375,-0.26458 c -0.0879,-0.0879 -0.31613,-0.0973 -0.50712,-0.0209 -0.21107,0.0845 -0.14837,0.14716 0.15985,0.15985 0.27891,0.0115 0.43518,-0.051 0.34727,-0.13896 z m 14.91574,-0.9769 c -0.21295,-0.21294 -0.28982,-0.0807 -0.28396,0.48852 0.007,0.68425 0.0431,0.72027 0.292,0.292 0.20351,-0.35011 0.20123,-0.57125 -0.008,-0.78052 z m 15.4141,0.73988 c -0.0838,-0.21828 -0.19909,-0.39688 -0.25628,-0.39688 -0.0572,0 -0.10399,0.1786 -0.10399,0.39688 0,0.21828 0.11533,0.39687 0.25628,0.39687 0.14095,0 0.18775,-0.17859 0.10399,-0.39687 z m 1.88869,-0.13229 c -0.0899,-0.14552 -0.30532,-0.26276 -0.47864,-0.26054 -0.18934,0.002 -0.1567,0.10643 0.0818,0.26054 0.5083,0.32848 0.59989,0.32848 0.39688,0 z m 2.69348,0.0917 c -0.0951,-0.0951 0.19035,-0.44078 0.63425,-0.76828 l 0.80708,-0.59545 -1.48487,-0.0916 c -0.81669,-0.0504 -1.68749,-0.0107 -1.93512,0.0882 -0.34593,0.13818 -0.29699,0.18509 0.21122,0.20249 0.76329,0.0261 1.37116,0.35217 1.30555,0.70025 -0.0836,0.44381 0.0153,0.63721 0.32605,0.63721 0.16977,0 0.2309,-0.0778 0.13584,-0.17284 z m -36.89088,-0.26697 c -0.1819,-0.0734 -0.47955,-0.0734 -0.66146,0 -0.1819,0.0734 -0.0331,0.13345 0.33073,0.13345 0.36381,0 0.51263,-0.0601 0.33073,-0.13345 z m 18.82326,-0.24329 c 0.22693,-0.59136 0.20903,-0.63982 -0.23628,-0.63982 -0.22048,0 -0.39687,0.23519 -0.39687,0.52917 0,0.63083 0.40629,0.70184 0.63315,0.11065 z m 1.48351,0.21758 c 0,-0.11052 -0.23812,-0.34965 -0.52916,-0.53141 -0.43622,-0.27242 -0.52917,-0.26424 -0.52917,0.0466 0,0.20739 0.14883,0.43712 0.33073,0.51052 0.50428,0.20348 0.7276,0.19559 0.7276,-0.0257 z m -14.94895,-0.32823 c -0.0899,-0.14552 -0.34212,-0.26458 -0.5604,-0.26458 -0.21828,0 -0.32413,-0.1177 -0.23523,-0.26156 0.0927,-0.14998 -0.0135,-0.19433 -0.24897,-0.10398 -0.55526,0.21307 -0.5177,0.33955 0.1847,0.62187 0.80276,0.32267 1.05572,0.3251 0.8599,0.008 z m 21.82812,0.008 c 0,-0.14096 -0.17859,-0.18775 -0.39687,-0.10399 -0.21828,0.0838 -0.39688,0.19909 -0.39688,0.25628 0,0.0572 0.1786,0.10398 0.39688,0.10398 0.21828,0 0.39687,-0.11532 0.39687,-0.25628 z m 4.10104,-0.008 c 0.0899,-0.14552 0.0374,-0.26458 -0.11667,-0.26458 -0.15411,0 -0.2802,0.11906 -0.2802,0.26458 0,0.14552 0.0525,0.26458 0.11667,0.26458 0.0642,0 0.19027,-0.11906 0.2802,-0.26458 z m 4.29397,0.10473 c -0.0879,-0.0879 -0.31612,-0.0973 -0.50712,-0.0209 -0.21106,0.0845 -0.14837,0.14716 0.15986,0.15985 0.27891,0.0115 0.43518,-0.051 0.34726,-0.13896 z m -38.42522,-0.51023 0.79375,-0.38164 -0.92604,0.13029 c -0.77807,0.10947 -0.82983,0.0888 -0.3239,-0.1296 0.33118,-0.14294 1.16462,-0.18076 1.85209,-0.084 1.0699,0.15051 1.15466,0.20301 0.58848,0.3645 -0.60781,0.17337 -0.59045,0.19081 0.21405,0.21504 0.53219,0.016 0.81022,-0.0793 0.70901,-0.24303 -0.10634,-0.17207 0.19213,-0.22493 0.82606,-0.1463 1.11306,0.13806 1.66695,-0.0626 1.1234,-0.40706 -0.28238,-0.17893 -0.26351,-0.22833 0.0884,-0.23152 0.24608,-0.002 0.51617,-0.1153 0.6002,-0.25127 0.092,-0.14889 -0.50683,-0.18906 -1.50574,-0.101 -0.91219,0.0804 -1.73479,0.2669 -1.82799,0.41439 -0.25513,0.40374 -2.0795,-0.013 -2.0795,-0.47503 0,-0.21169 -0.12609,-0.38489 -0.28019,-0.38489 -0.15411,0 -0.20662,0.11907 -0.11668,0.26459 0.0899,0.14552 0.0304,0.26458 -0.13229,0.26458 -0.1627,0 -0.22994,0.10659 -0.14943,0.23686 0.0805,0.13027 -0.0391,0.30802 -0.26574,0.395 -0.22667,0.087 -0.3443,0.26789 -0.26141,0.40201 0.0829,0.13412 10e-4,0.30415 -0.18167,0.37785 -0.22659,0.0914 -0.20607,0.13685 0.0645,0.14296 0.21828,0.005 0.75406,-0.16278 1.19062,-0.37268 z m 2.84931,-0.83619 c 0.25743,-0.0671 0.61462,-0.0627 0.79375,0.01 0.17913,0.0725 -0.0315,0.12736 -0.46806,0.12197 -0.43656,-0.005 -0.58312,-0.0647 -0.32569,-0.13178 z m 22.49588,0.0108 c 0.45171,-1.21876 2.22608,-3.79617 2.61341,-3.79617 0.1105,0 0.33794,-0.25605 0.50542,-0.56899 l 0.30452,-0.56899 -0.83134,0.59197 c -1.70952,1.21728 -4.78616,4.52738 -4.78616,5.14933 0,0.0682 0.32743,0.17363 0.72761,0.23425 0.40018,0.0606 0.79122,0.12806 0.86897,0.14987 0.0777,0.0218 0.34666,-0.51427 0.59757,-1.19127 z m 7.02249,1.0583 c 0.41267,-0.11049 0.5114,-0.23107 0.29747,-0.36329 -0.42969,-0.26556 3.14731,-0.89157 4.2063,-0.73614 0.45743,0.0671 0.83168,0.0236 0.83168,-0.0967 0,-0.31715 0.72176,-0.2682 1.29146,0.0876 0.5252,0.328 1.35437,0.14862 1.35437,-0.29299 0,-0.14732 -0.32308,-0.34894 -0.71796,-0.44805 -0.6496,-0.16304 -0.66849,-0.19953 -0.19844,-0.38332 0.43859,-0.17148 0.40374,-0.20602 -0.22369,-0.22172 -0.42447,-0.0106 -0.67309,-0.13207 -0.5797,-0.28318 0.22387,-0.36223 -2.23642,-0.34198 -3.71601,0.0306 -0.64472,0.16234 -1.11342,0.39029 -1.04156,0.50656 0.0719,0.11628 0.0406,0.26159 -0.0694,0.32293 -0.11005,0.0613 -0.0415,0.0715 0.15229,0.0226 0.1938,-0.0489 0.61052,-0.0973 0.92604,-0.10752 0.55536,-0.018 0.55678,-0.0259 0.0445,-0.24599 l -0.52916,-0.22739 0.52916,0.008 c 0.29104,0.004 0.81752,0.0884 1.16995,0.18689 0.50888,0.14224 0.22116,0.27803 -1.39775,0.65969 -2.18114,0.51421 -3.60866,1.11117 -3.60866,1.50908 0,0.28368 0.40492,0.30666 1.27914,0.0726 z m 3.68489,-2.66035 c 0.32912,-0.0633 0.80537,-0.0609 1.05833,0.005 0.25297,0.0662 -0.0163,0.118 -0.5984,0.11506 -0.58208,-0.003 -0.78905,-0.0571 -0.45993,-0.1204 z m -0.5984,2.56838 c -0.0908,-0.14689 0.10825,-0.26639 0.44741,-0.26864 0.33601,-0.002 0.78952,-0.11947 1.0078,-0.26053 0.3002,-0.19401 0.18282,-0.25747 -0.48192,-0.26053 -0.85573,-0.004 -1.77437,0.56188 -1.44576,0.89049 0.26756,0.26756 0.64974,0.18603 0.47247,-0.10079 z m 1.64813,0.10473 c -0.0879,-0.0879 -0.31612,-0.0973 -0.50711,-0.0209 -0.21107,0.0845 -0.14838,0.14716 0.15985,0.15985 0.27891,0.0115 0.43518,-0.051 0.34726,-0.13896 z m -22.49067,-0.89848 c -0.0219,-0.29105 -0.19413,-0.52917 -0.38267,-0.52917 -0.27658,0 -0.27897,0.10224 -0.0123,0.52917 0.18176,0.29104 0.35396,0.52916 0.38268,0.52916 0.0287,0 0.0343,-0.23812 0.0123,-0.52916 z m 12.62916,0.28286 c 0.0837,-0.13546 0.0511,-0.30882 -0.0726,-0.38523 -0.12364,-0.0764 -0.22481,0.0344 -0.22481,0.2463 0,0.44613 0.0834,0.48511 0.29739,0.13893 z m -19.43558,-0.54745 c -0.21828,-0.14106 -0.57547,-0.25648 -0.79375,-0.25648 -0.35278,0 -0.35278,0.0285 0,0.25648 0.21828,0.14107 0.57547,0.25648 0.79375,0.25648 0.35278,0 0.35278,-0.0285 0,-0.25648 z m -5.95312,-0.26458 c -0.0984,-0.15926 0.25081,-0.26458 0.87735,-0.26458 0.57248,0 1.43714,-0.0793 1.92146,-0.17612 0.74568,-0.14914 0.80141,-0.20709 0.3638,-0.37828 -0.28423,-0.11119 -0.87397,-0.19866 -1.31053,-0.19438 -0.78414,0.008 -0.78574,0.0106 -0.13229,0.24222 0.46602,0.16517 0.11423,0.20772 -1.19063,0.144 -1.01864,-0.0497 -1.59077,-0.0406 -1.2714,0.0203 0.37421,0.0713 0.52878,0.24595 0.43471,0.49108 -0.0803,0.20922 -0.007,0.38039 0.16254,0.38039 0.16968,0 0.23492,-0.11906 0.14499,-0.26458 z m 30.95625,0 c 0.34891,-0.14993 0.39398,-0.23235 0.13229,-0.24194 -0.21828,-0.008 -0.57547,0.10088 -0.79375,0.24194 -0.48365,0.31256 -0.0659,0.31256 0.66146,0 z m -31.0267,-1.42923 c 0.10677,-0.15981 0.24072,-0.40962 0.29765,-0.55515 0.0632,-0.16159 0.23999,-0.13584 0.4541,0.0661 0.19281,0.1819 0.52916,0.33073 0.74745,0.33073 0.63218,0 0.003,-0.45715 -1.03188,-0.74918 l -0.92604,-0.26143 1.25677,-0.0239 c 0.69122,-0.0131 1.25677,-0.11934 1.25677,-0.23603 0,-0.22351 -2.84032,0.0413 -3.96875,0.36995 -0.80662,0.23496 -1.14163,0.68358 -0.71364,0.95566 0.2262,0.14379 0.20329,0.20369 -0.0801,0.20947 -0.35278,0.007 -0.35278,0.0361 0,0.26025 0.47963,0.30472 2.43613,0.0399 2.70768,-0.36656 z m -1.78164,-0.13942 c -0.46012,-0.18133 -0.4145,-0.23397 0.34965,-0.40346 0.48335,-0.1072 0.94968,-0.12405 1.03629,-0.0374 0.0866,0.0866 -0.13027,0.16933 -0.48194,0.18384 l -0.63941,0.0264 0.66145,0.21184 c 0.53174,0.17029 0.55769,0.21336 0.1323,0.21961 -0.29105,0.004 -0.7673,-0.0861 -1.05834,-0.20076 z m 32.32747,-0.45562 c -0.0744,-0.0744 -0.38605,-0.001 -0.69257,0.16299 -0.30651,0.16404 -0.66036,0.23455 -0.78633,0.1567 -0.12597,-0.0779 -0.28997,0.0915 -0.36444,0.37626 -0.13306,0.50882 -0.11706,0.50845 0.9216,-0.0214 0.58136,-0.29659 0.99614,-0.60012 0.92174,-0.67452 z m -26.90351,0.58468 c 0,-0.0642 -0.11906,-0.19026 -0.26458,-0.2802 -0.14552,-0.0899 -0.26459,-0.0374 -0.26459,0.11667 0,0.15411 0.11907,0.2802 0.26459,0.2802 0.14552,0 0.26458,-0.0525 0.26458,-0.11667 z m 0.98668,-0.0432 c -0.0879,-0.0879 -0.31613,-0.0973 -0.50712,-0.0209 -0.21107,0.0845 -0.14837,0.14716 0.15985,0.15985 0.27892,0.0115 0.43518,-0.051 0.34727,-0.13896 z m 21.92777,-0.78265 c 0.27565,0.0441 0.62024,0.009 0.76576,-0.077 0.14552,-0.0865 0.43293,-0.16032 0.63868,-0.16417 0.44373,-0.008 0.73388,-0.66845 0.2938,-0.66845 -0.16624,0 -0.22081,-0.13177 -0.12127,-0.29283 0.12745,-0.20622 0.24349,-0.19169 0.39232,0.0491 0.16869,0.27294 0.29114,0.27574 0.60667,0.0139 0.3352,-0.27819 0.38393,-0.22433 0.32042,0.35418 -0.0983,0.8955 0.19914,1.04643 0.78544,0.39857 0.26029,-0.28761 0.37299,-0.52293 0.25045,-0.52293 -0.12255,0 0.1194,-0.35719 0.53766,-0.79375 0.41825,-0.43656 0.65484,-0.79375 0.52575,-0.79375 -0.12909,0 -0.10114,-0.13357 0.0621,-0.29682 0.16326,-0.16326 0.23976,-0.44555 0.17,-0.62732 -0.0697,-0.18177 0.0648,-0.40402 0.29901,-0.4939 0.24745,-0.0949 0.3581,-0.0538 0.26417,0.0982 -0.28636,0.46335 0.21298,0.27876 0.90286,-0.33376 0.36877,-0.32742 0.5107,-0.38695 0.31538,-0.13229 -0.19532,0.25466 -0.26643,0.46302 -0.15803,0.46302 0.10839,0 0.052,0.17479 -0.12528,0.38842 -0.17729,0.21363 -0.40023,0.37812 -0.49541,0.36554 -0.68281,-0.0902 -0.84006,0.0642 -0.57312,0.56301 0.22335,0.41733 0.20388,0.49399 -0.0962,0.37883 -0.20692,-0.0794 -0.45399,-0.0186 -0.54903,0.13522 -0.10516,0.17015 -0.0121,0.21791 0.23782,0.12202 0.2461,-0.0944 0.41225,-0.0137 0.41467,0.20147 0.003,0.28456 0.0545,0.27933 0.24713,-0.0252 0.13369,-0.21133 0.18521,-0.47786 0.1145,-0.59228 -0.0707,-0.11442 0.034,-0.14567 0.23259,-0.0695 0.19864,0.0762 0.58046,-0.10373 0.84849,-0.3999 0.26804,-0.29618 0.4123,-0.5385 0.32059,-0.5385 -0.0917,0 -0.0536,-0.29766 0.0847,-0.66146 0.16779,-0.44129 0.16041,-0.66146 -0.0222,-0.66146 -0.1505,0 -0.19272,-0.13094 -0.0938,-0.29098 0.12639,-0.20451 0.0131,-0.20174 -0.38126,0.009 -0.74752,0.40006 -0.72053,-0.0717 0.0342,-0.59822 0.41676,-0.29072 0.47552,-0.41943 0.19593,-0.42915 -0.21965,-0.008 -0.55685,0.23829 -0.74933,0.54649 -0.24263,0.38852 -0.43446,0.47584 -0.62556,0.28474 -0.29995,-0.29995 -0.32012,-0.28837 -1.96197,1.12599 -1.09345,0.94195 -1.61852,1.20493 -1.26558,0.63386 0.11791,-0.19078 0.0725,-0.23358 -0.12099,-0.11401 -0.17038,0.1053 -0.24799,0.29144 -0.17246,0.41364 0.13162,0.21297 -0.57122,0.87454 -2.0978,1.97464 -0.39199,0.28248 -0.95307,0.87779 -1.24684,1.32291 -0.49133,0.74449 -0.49294,0.76306 -0.0202,0.23182 0.28268,-0.31762 0.73949,-0.5414 1.01514,-0.49729 z m 2.47608,-1.92443 c 0.17431,-0.33988 0.38949,-0.54541 0.47818,-0.45672 0.0887,0.0887 -0.0539,0.36678 -0.31693,0.61797 -0.45713,0.43662 -0.46423,0.42953 -0.16125,-0.16125 z m 1.59697,-0.83723 c 0,-0.14552 0.12609,-0.26459 0.2802,-0.26459 0.15411,0 0.20661,0.11907 0.11668,0.26459 -0.0899,0.14552 -0.21603,0.26458 -0.2802,0.26458 -0.0642,0 -0.11668,-0.11906 -0.11668,-0.26458 z m 0.39688,-1.05834 c 0.26339,-0.29104 0.53842,-0.52916 0.61118,-0.52916 0.0728,0 -0.0832,0.23812 -0.3466,0.52916 -0.26339,0.29104 -0.53842,0.52917 -0.61118,0.52917 -0.0728,0 0.0832,-0.23813 0.3466,-0.52917 z m -18.50194,3.98135 c 0,-0.28411 -0.0528,-0.46374 -0.1174,-0.39917 -0.0646,0.0646 -0.29797,-0.0304 -0.51867,-0.21103 -0.29052,-0.23778 -0.27059,-0.12761 0.0722,0.39917 0.56437,0.86722 0.56384,0.86702 0.56384,0.21103 z m 21.80923,0.0888 c 0,-0.0558 -0.23813,-0.10144 -0.52917,-0.10144 -0.29104,0 -0.52917,0.10792 -0.52917,0.23982 0,0.13189 0.23813,0.17754 0.52917,0.10143 0.29104,-0.0761 0.52917,-0.18403 0.52917,-0.23981 z m -1.73911,-1.02028 c 0.28042,-0.21923 0.45901,-0.44775 0.39688,-0.50782 -0.0621,-0.0601 -0.5297,0.24942 -1.03902,0.68775 -0.89527,0.77049 -0.39378,0.62997 0.64214,-0.17993 z m -23.13173,0.55028 c 0,-0.0572 -0.18477,-0.17489 -0.41061,-0.26156 -0.23546,-0.0904 -0.34167,-0.046 -0.24897,0.10399 0.15538,0.25141 0.65958,0.37186 0.65958,0.15757 z m -1.32291,-0.52917 c 0,-0.0572 -0.1786,-0.17252 -0.39688,-0.25628 -0.21828,-0.0838 -0.39687,-0.037 -0.39687,0.10398 0,0.14096 0.17859,0.25628 0.39687,0.25628 0.21828,0 0.39688,-0.0468 0.39688,-0.10398 z m 15.17412,-0.76206 c 0.52418,0.1002 0.79154,-0.0964 1.46806,-1.07972 0.45494,-0.66123 0.97269,-1.29218 1.15055,-1.4021 0.17787,-0.10993 -0.14223,0.43443 -0.71132,1.20969 -0.95998,1.30776 -0.98837,1.39504 -0.39296,1.20845 0.92969,-0.29133 2.688,-1.54841 3.58144,-2.56048 0.48735,-0.55206 1.05218,-0.89654 1.52913,-0.93259 0.75057,-0.0567 0.75255,-0.0529 0.26042,0.50152 -0.48733,0.54903 -0.48676,0.55348 0.0333,0.25747 0.29104,-0.16566 1.00541,-0.74854 1.5875,-1.29527 0.58208,-0.54673 0.94522,-0.90475 0.80698,-0.79561 -0.36608,0.28901 -0.73337,0.24285 -0.54124,-0.068 0.25025,-0.40492 -0.65353,-0.64457 -1.01113,-0.26811 -0.2465,0.2595 -0.19118,0.29274 0.26056,0.15652 0.39112,-0.11794 0.55703,-0.0643 0.52172,0.1687 -0.0797,0.52615 -0.43462,1.00309 -0.74636,1.00309 -0.16714,0 -0.13395,-0.18511 0.0818,-0.45595 0.23762,-0.29836 0.10391,-0.25625 -0.38685,0.12182 -1.0197,0.78557 -1.46735,0.36559 -1.28976,-1.21003 0.12673,-1.12436 0.11076,-1.15513 -0.50219,-0.96719 -0.76955,0.23596 -1.51313,0.64014 -1.19805,0.65122 0.12582,0.004 -0.50334,0.79067 -1.39813,1.74721 -0.8948,0.95654 -1.9363,2.2067 -2.31446,2.77813 -0.73398,1.10912 -0.97001,1.31207 -0.69625,0.59868 0.11872,-0.3094 0.0704,-0.37939 -0.16245,-0.23546 -0.22468,0.13886 -0.19995,-0.0494 0.0768,-0.58451 0.2245,-0.43413 0.33729,-0.86022 0.25064,-0.94687 -0.0867,-0.0866 0.0803,-0.11174 0.37095,-0.0558 0.37249,0.0717 1.02508,-0.39928 2.21097,-1.5958 0.92536,-0.93366 1.57453,-1.69757 1.44259,-1.69757 -0.13194,0 -0.52172,0.26477 -0.86619,0.58838 -0.49264,0.46282 -0.67273,0.51325 -0.84387,0.23633 -0.15472,-0.25034 -0.27063,-0.2662 -0.40122,-0.0549 -0.10101,0.16343 -0.29312,0.22949 -0.42692,0.1468 -0.1338,-0.0827 -0.18091,0.0122 -0.10468,0.21081 0.0762,0.19864 -0.089,0.56715 -0.36721,0.81892 -0.4328,0.39167 -0.52749,0.40124 -0.65601,0.0663 -0.19984,-0.52077 0.87906,-1.91083 1.14683,-1.47757 0.13349,0.216 0.24945,0.22665 0.3686,0.0339 0.0956,-0.1547 0.32954,-0.22153 0.51985,-0.1485 0.1903,0.073 0.50817,-0.081 0.70637,-0.34228 0.30782,-0.40581 0.30629,-0.42685 -0.0105,-0.14434 -0.68099,0.60726 -0.89518,0.34001 -0.26505,-0.33073 0.34177,-0.3638 0.52654,-0.66145 0.41059,-0.66145 -0.11594,0 -0.0474,-0.20836 0.15232,-0.46302 0.3286,-0.41901 0.31939,-0.42873 -0.097,-0.10232 -0.25306,0.19839 -0.41063,0.44077 -0.35016,0.53862 0.0605,0.0978 -0.11283,0.17791 -0.38513,0.17791 -0.37789,0 -0.42706,-0.082 -0.20773,-0.34624 0.2253,-0.27147 0.17928,-0.30566 -0.2131,-0.15835 -0.43206,0.16222 -0.45349,0.13011 -0.15686,-0.23497 0.21237,-0.26138 0.24461,-0.48402 0.0844,-0.58302 -0.3333,-0.20599 -0.64779,0.29719 -0.47203,0.75522 0.14705,0.38319 -1.47683,2.11441 -1.73817,1.85307 -0.088,-0.0879 -0.36103,0.14706 -0.60686,0.52224 -0.24583,0.37518 -0.54485,0.62165 -0.6645,0.5477 -0.11964,-0.0739 -0.40428,0.13216 -0.63251,0.45802 -0.60147,0.8587 -0.5094,1.1709 0.12912,0.43789 0.54223,-0.62247 0.5431,-0.62255 0.25235,-0.0239 -0.34168,0.70358 -0.14905,1.15856 0.40113,0.94744 0.21278,-0.0816 0.31315,-0.26776 0.22304,-0.41357 -0.10075,-0.16301 -0.25145,-0.12686 -0.39131,0.0939 -0.1522,0.24021 -0.2288,0.25472 -0.23151,0.0439 -0.006,-0.45937 0.45684,-0.67087 0.67951,-0.31058 0.13535,0.219 0.28949,0.17424 0.52928,-0.15369 0.37121,-0.50767 0.21228,-1.29939 -0.20863,-1.03925 -0.14647,0.0905 -0.13004,-0.0862 0.037,-0.3984 0.32396,-0.60533 0.66612,-0.77241 0.47176,-0.23037 -0.0652,0.18191 -0.0163,0.5299 0.10862,0.77333 0.16243,0.31642 -0.0815,0.97803 -0.85564,2.32076 -0.66081,1.14616 -1.0175,2.04846 -0.91519,2.31508 0.14851,0.38702 0.21085,0.37525 0.54587,-0.10306 0.26006,-0.37128 0.57844,-0.5017 1.01912,-0.41746 z m 0.96546,-2.80689 c 0,-0.14552 0.11906,-0.33817 0.26458,-0.42811 0.14553,-0.0899 0.26459,-0.0445 0.26459,0.10106 0,0.14552 -0.11906,0.33817 -0.26459,0.42811 -0.14552,0.0899 -0.26458,0.0445 -0.26458,-0.10106 z m -0.58665,-2.01561 c 0.53136,-1.02816 1.56429,-1.79124 2.05384,-1.51728 0.32642,0.18268 0.36458,0.30798 0.13669,0.44883 -0.1739,0.10747 -0.38972,0.12185 -0.47961,0.032 -0.0899,-0.0899 -0.57315,0.22561 -1.07391,0.70111 -0.57751,0.54838 -0.81047,0.67103 -0.63701,0.33538 z m 7.67663,4.86578 c -0.0585,-0.17565 -0.25342,-0.1021 -0.48507,0.18308 -0.23326,0.28717 -0.25572,0.39768 -0.0565,0.27798 0.19559,-0.11751 0.33926,-0.0572 0.35162,0.14765 0.0161,0.26637 0.0517,0.26997 0.15434,0.0156 0.0734,-0.1819 0.0894,-0.46285 0.0356,-0.62433 z m -24.62414,0.13374 c -0.0879,-0.0879 -0.31612,-0.0973 -0.50712,-0.0209 -0.21106,0.0845 -0.14837,0.14715 0.15986,0.15985 0.27891,0.0115 0.43518,-0.0511 0.34726,-0.13897 z m 9.74416,-1.31794 c -0.35699,-0.35699 -0.41208,-0.35939 -0.41208,-0.0179 0,0.21677 0.0773,0.5955 0.17171,0.84161 0.15711,0.40943 0.19215,0.41096 0.41209,0.0179 0.16486,-0.29459 0.11092,-0.55898 -0.17172,-0.84161 z m -9.74416,0.78878 c -0.0879,-0.0879 -0.31612,-0.0973 -0.50712,-0.0209 -0.21106,0.0845 -0.14837,0.14716 0.15986,0.15985 0.27891,0.0115 0.43518,-0.051 0.34726,-0.13896 z m 2.05604,-0.50981 c -0.43657,-0.35785 -1.02196,-0.65122 -1.30087,-0.65194 -0.64861,-0.002 -0.40562,0.23471 0.83841,0.81567 1.33146,0.6218 1.39384,0.59972 0.46246,-0.16373 z m 13.21493,-0.31471 c 0.0874,-0.22786 0.0967,-0.47662 0.0205,-0.55281 -0.0762,-0.0762 -0.13852,0.015 -0.13852,0.20256 0,0.24287 -0.0952,0.26204 -0.33073,0.0666 -0.24819,-0.20598 -0.33073,-0.12343 -0.33073,0.33079 0,0.66332 0.51894,0.63194 0.77952,-0.0471 z m -6.37238,0.0583 c -0.0838,-0.21828 -0.19909,-0.39688 -0.25628,-0.39688 -0.0572,0 -0.10398,0.1786 -0.10398,0.39688 0,0.21828 0.11532,0.39687 0.25628,0.39687 0.14095,0 0.18774,-0.17859 0.10398,-0.39687 z m -6.1811,-0.13229 c -0.33649,-0.21747 -0.32406,-0.2571 0.0818,-0.26054 0.26325,-0.002 0.40506,-0.12311 0.31512,-0.26863 -0.0899,-0.14552 -0.32455,-0.26458 -0.52137,-0.26458 -0.28806,0 -0.34885,0.37619 -0.16033,0.99218 0.0111,0.0364 0.16907,0.0643 0.35097,0.0621 0.22049,-0.003 0.19844,-0.0896 -0.0662,-0.26053 z m -3.33596,-0.20249 c -0.16129,-0.10691 -0.26112,-0.40275 -0.22185,-0.65741 0.0406,-0.26343 -0.0963,-0.46302 -0.31767,-0.46302 -0.21399,0 -0.34088,0.0893 -0.28197,0.19844 0.0589,0.10914 0.18126,0.40679 0.27189,0.66146 0.0906,0.25466 0.31735,0.46119 0.50382,0.45896 0.23436,-0.003 0.2485,-0.0641 0.0458,-0.19843 z m 1.48388,-0.97252 c 0,-0.0642 -0.11906,-0.19026 -0.26458,-0.2802 -0.14552,-0.0899 -0.26459,-0.0374 -0.26459,0.11667 0,0.15411 0.11907,0.2802 0.26459,0.2802 0.14552,0 0.26458,-0.0525 0.26458,-0.11667 z m -1.71849,-0.60903 c 0.41158,-0.23033 0.2505,-0.32523 -0.98864,-0.58248 -0.81418,-0.16902 -1.54645,-0.47961 -1.62725,-0.69019 -0.0871,-0.227 0.0113,-0.38288 0.24164,-0.38288 0.21372,0 0.38857,-0.11906 0.38857,-0.26458 0,-0.37797 -0.81347,-0.31018 -1.5875,0.13229 l -0.66145,0.37813 0.66145,0.0401 c 0.40872,0.0248 0.49492,0.0843 0.22559,0.15584 -0.52397,0.13917 -0.82301,1.0728 -0.39594,1.23615 0.16646,0.0637 -0.086,0.11074 -0.56098,0.10461 -0.47499,-0.006 -0.95124,0.0817 -1.05833,0.19519 -0.28759,0.30477 4.78733,-7e-5 5.36284,-0.32214 z m -2.11797,-0.068 c 0.0899,-0.14552 0.34212,-0.26458 0.5604,-0.26458 0.21828,0 0.32329,0.11906 0.23335,0.26458 -0.0899,0.14552 -0.34211,0.26459 -0.56039,0.26459 -0.21829,0 -0.32329,-0.11907 -0.23336,-0.26459 z m 13.96729,-0.26458 c -0.0761,-0.29104 -0.24356,-0.52917 -0.3721,-0.52917 -0.27662,0 -0.28626,0.0844 -0.0731,0.63982 0.23312,0.60751 0.60863,0.51418 0.44523,-0.11065 z m -2.33614,-0.29772 c -0.12643,-0.39835 -0.0867,-0.50557 0.13632,-0.36775 0.19021,0.11756 0.14982,-0.12446 -0.10207,-0.61155 -0.22926,-0.44335 -0.51241,-0.86515 -0.62921,-0.93734 -0.32797,-0.2027 -0.19657,0.93854 0.20165,1.75134 0.42345,0.8643 0.64468,0.95728 0.39331,0.1653 z m -0.50164,-0.94764 c -0.14358,-0.37708 -0.11319,-0.40747 0.14812,-0.14811 0.18082,0.17947 0.26211,0.39297 0.18065,0.47443 -0.0815,0.0815 -0.22941,-0.0654 -0.32877,-0.32632 z m -7.68992,1.04287 c 0.37383,-0.27465 0.45185,-0.85584 0.11489,-0.85584 -0.15508,0 -0.51227,0.12325 -0.79375,0.27389 -0.35277,0.1888 -0.51177,0.1888 -0.51177,0 0,-0.15064 0.17859,-0.27389 0.39688,-0.27389 0.21828,0 0.39687,-0.11612 0.39687,-0.25804 0,-0.16371 -0.2343,-0.16895 -0.64096,-0.0143 -0.47002,0.1787 -0.72564,0.14167 -0.95844,-0.13884 -0.36251,-0.43679 -1.04643,-0.51388 -1.04643,-0.11795 0,0.14552 0.18562,0.26458 0.41249,0.26458 0.25511,0 0.33987,0.12619 0.22216,0.33073 -0.10468,0.1819 -0.096,0.24562 0.0192,0.1416 0.11522,-0.10402 0.46173,-0.0499 0.77002,0.12036 0.30829,0.17022 0.79865,0.27976 1.08969,0.24343 0.43752,-0.0546 0.46043,-0.0189 0.13229,0.20632 -0.21828,0.14981 -0.27781,0.27238 -0.13229,0.27238 0.14552,0 0.38365,-0.0875 0.52917,-0.19439 z m 5.77621,-1.18657 c -0.09,-0.47295 -0.0781,-0.78151 0.0265,-0.6857 0.10458,0.0958 0.22233,0.39346 0.26166,0.66145 0.0393,0.268 0.17923,0.48909 0.31088,0.49132 0.13165,0.002 0.40007,0.10589 0.59649,0.23037 0.59295,0.37576 -0.0679,-0.66517 -0.90467,-1.42505 -0.40063,-0.3638 -0.64266,-0.51263 -0.53784,-0.33073 0.10481,0.18191 0.0887,0.33073 -0.0358,0.33073 -0.12449,0 -0.2064,0.32743 -0.18202,0.72761 0.0532,0.87371 0.0473,0.85989 0.37052,0.85989 0.14823,0 0.18834,-0.3658 0.0943,-0.85989 z m -1.02718,-0.52917 c -0.0998,-0.32742 -0.36438,-0.80367 -0.588,-1.05833 -0.23251,-0.26478 -0.28244,-0.46302 -0.11661,-0.46302 0.15948,0 0.36356,0.11906 0.45349,0.26458 0.0899,0.14552 0.30374,0.26458 0.47511,0.26458 0.17137,0 -0.32188,-0.42659 -1.0961,-0.94798 -0.77423,-0.5214 -1.46758,-0.8881 -1.54078,-0.8149 -0.0732,0.0732 0.15368,0.32101 0.50419,0.55067 0.35052,0.22967 0.90498,0.95355 1.23215,1.60864 0.63624,1.27396 0.97381,1.57121 0.67655,0.59576 z m 1.0718,-1.52135 c -0.88819,-0.92707 -0.60973,-1.0656 0.39887,-0.19844 0.38083,0.32742 0.16,0.0825 -0.49073,-0.54419 -1.28744,-1.23995 -2.54167,-1.99618 -3.03493,-1.8299 -0.17204,0.058 0.23739,0.34939 0.90983,0.64755 1.16714,0.5175 1.88445,1.13123 1.32215,1.13123 -0.14552,0 -0.33817,-0.11907 -0.42811,-0.26459 -0.0899,-0.14552 -0.30532,-0.2638 -0.47863,-0.26284 -0.17332,9.6e-4 -0.009,0.20932 0.36501,0.46302 0.37407,0.25371 0.96207,0.72917 1.30666,1.05659 0.91913,0.87333 1.01555,0.72601 0.12988,-0.19843 z m 5.42396,0.52916 c 0,-0.14552 -0.11906,-0.26458 -0.26459,-0.26458 -0.14552,0 -0.26458,0.11906 -0.26458,0.26458 0,0.14552 0.11906,0.26459 0.26458,0.26459 0.14553,0 0.26459,-0.11907 0.26459,-0.26459 z m 5.98157,-0.45662 c -0.27977,-0.27977 -0.51231,-0.16983 -0.57729,0.27295 -0.057,0.38856 0.001,0.41858 0.3119,0.16074 0.21011,-0.17438 0.32954,-0.36954 0.26539,-0.43369 z m -12.06699,45.18695 c 0,-0.28245 0.10186,-0.57651 0.22636,-0.65345 0.1245,-0.077 0.17015,0.15415 0.10145,0.51355 -0.14923,0.78064 -0.32781,0.85686 -0.32781,0.1399 z m 1.07922,-3.08037 c 0.0127,-0.30823 0.0754,-0.37092 0.15985,-0.15985 0.0764,0.19099 0.067,0.41919 -0.0209,0.50712 -0.0879,0.0879 -0.15046,-0.0684 -0.13897,-0.34727 z"
       id="path20582" />
  </g>
</svg>
