<?xml version="1.0" encoding="UTF-8" standalone="no"?>
<!-- Created with Inkscape (http://www.inkscape.org/) -->

<svg
   width="57.059383mm"
   height="56.321892mm"
   viewBox="0 0 57.059406 56.32189"
   version="1.1"
   id="svg5"
   inkscape:version="1.1 (c4e8f9ed74, 2021-05-24)"
   sodipodi:docname="oxalis.svg"
   xmlns:inkscape="http://www.inkscape.org/namespaces/inkscape"
   xmlns:sodipodi="http://sodipodi.sourceforge.net/DTD/sodipodi-0.dtd"
   xmlns="http://www.w3.org/2000/svg"
   xmlns:svg="http://www.w3.org/2000/svg">
  <sodipodi:namedview
     id="namedview7"
     pagecolor="#ffffff"
     bordercolor="#666666"
     borderopacity="1.0"
     inkscape:pageshadow="2"
     inkscape:pageopacity="0.0"
     inkscape:pagecheckerboard="0"
     inkscape:document-units="mm"
     showgrid="false"
     inkscape:zoom="0.94615212"
     inkscape:cx="-295.40704"
     inkscape:cy="110.44736"
     inkscape:window-width="2506"
     inkscape:window-height="1403"
     inkscape:window-x="1974"
     inkscape:window-y="0"
     inkscape:window-maximized="1"
     inkscape:current-layer="layer1" />
  <defs
     id="defs2" />
  <g
     inkscape:label="Layer 1"
     inkscape:groupmode="layer"
     id="layer1"
     transform="translate(-211.48889,-136.2575)">
    <path
       style="fill:#000000;stroke-width:0.264583"
       d="m 228.06438,192.37033 c -0.16119,-0.26081 0.49365,-1.16209 0.69676,-0.95899 0.0849,0.0849 0.0972,-0.0658 0.0273,-0.33484 -0.0699,-0.26905 0.0638,-0.72732 0.29711,-1.01836 0.41671,-0.51989 0.41925,-0.51904 0.14496,0.0488 -0.6137,1.27038 -0.20503,0.91647 0.51457,-0.44563 0.86299,-1.63352 1.06171,-2.49405 0.2444,-1.05834 -0.69628,1.22313 -0.39494,0.003 0.32679,-1.32291 0.38618,-0.70957 0.46814,-0.77142 0.35064,-0.26459 -0.19806,0.85432 0.25765,0.15697 0.51871,-0.79375 0.14237,-0.51848 0.11895,-0.57567 -0.10833,-0.26458 -0.41513,0.56822 -0.0514,-0.98434 0.43386,-1.85208 l 0.36993,-0.66146 -0.13923,0.66146 c -0.0994,0.47229 -0.0211,0.40268 0.27402,-0.24339 0.22729,-0.49767 0.35623,-1.12291 0.28653,-1.38943 -0.078,-0.29836 -0.0185,-0.4177 0.15487,-0.31055 0.18043,0.11152 0.22796,-0.031 0.13229,-0.39687 -0.0821,-0.314 -0.0549,-0.51255 0.0605,-0.44123 0.23991,0.14827 0.33966,-0.16744 1.07487,-3.40195 0.29341,-1.29083 0.46245,-2.57075 0.37564,-2.84427 -0.0872,-0.27467 -0.0314,-0.49731 0.12457,-0.49731 0.15533,0 0.28241,-0.23813 0.28241,-0.52917 0,-0.29104 -0.11906,-0.52917 -0.26458,-0.52917 -0.14552,0 -0.26459,0.12609 -0.26459,0.2802 0,0.15411 -0.10851,0.21314 -0.24113,0.13117 -0.13263,-0.082 -0.32179,0.35749 -0.42036,0.97657 -0.25836,1.62263 -1.37824,6.07215 -2.14787,8.53394 -0.82051,2.62453 -2.96215,7.80537 -3.43873,8.31863 -0.75663,0.81486 -0.52078,0.033 0.84494,-2.80103 1.47246,-3.0555 3.11724,-8.3368 4.10798,-13.19052 0.59638,-2.92172 1.29545,-8.40476 1.28186,-10.05416 -0.008,-1.01504 -0.0616,-0.94746 -1.30174,1.65185 -1.86169,3.9021 -2.64417,5.95186 -3.35902,8.79919 -0.74529,2.96859 -1.24892,7.55652 -1.02379,9.32656 0.0879,0.69122 0.0923,1.25677 0.01,1.25677 -0.0826,0 -0.71271,-0.28504 -1.40021,-0.63343 -2.19523,-1.1124 -3.70265,-2.9147 -4.55998,-5.45199 -1.19501,-3.53666 -0.35215,-7.217 2.67303,-11.67178 1.22778,-1.80798 4.9114,-5.79072 5.35582,-5.79072 0.15344,0 -0.0634,0.3574 -0.48192,0.79422 -0.74051,0.77292 -1.22945,2.07064 -0.64378,1.70867 0.15588,-0.0963 0.21714,-0.3479 0.13612,-0.55902 -0.0931,-0.24262 -0.036,-0.31508 0.15514,-0.19694 0.19904,0.12302 0.22925,0.0685 0.0884,-0.15943 -0.15066,-0.24376 -0.11147,-0.28294 0.13229,-0.13229 0.24376,0.15066 0.28295,0.11147 0.13229,-0.13229 -0.15065,-0.24376 -0.11147,-0.28294 0.13229,-0.13229 0.2193,0.13553 0.28222,0.11029 0.17153,-0.0688 -0.0962,-0.15558 -0.0485,-0.32496 0.10582,-0.37642 0.15435,-0.0515 0.30914,-0.28773 0.34397,-0.52507 0.0348,-0.23734 0.23671,-0.64412 0.44861,-0.90396 0.21191,-0.25983 -1.20368,0.35138 -3.14574,1.35826 -3.04685,1.57967 -3.77243,2.08675 -5.29166,3.69808 -1.78116,1.88914 -3.33488,4.52436 -3.74829,6.35741 -0.18646,0.82672 -0.11618,1.15198 0.43889,2.03128 0.74945,1.1872 0.68715,1.40147 -0.33307,1.14541 -0.61775,-0.15505 -1.67672,-1.09085 -2.86264,-2.52972 -0.52299,-0.63454 -1.20867,-2.58724 -1.20867,-3.4421 0,-2.22607 2.0754,-5.22069 5.07217,-7.31872 2.03352,-1.42366 6.39203,-3.3223 9.06237,-3.94772 1.61451,-0.37814 1.94879,-0.52893 1.45521,-0.65644 -0.52754,-0.13629 -0.422,-0.20079 0.5972,-0.36501 0.68089,-0.1097 1.3655,-0.12065 1.52135,-0.0243 0.56146,0.347 0.26368,0.66996 -0.77015,0.83528 -0.57944,0.0927 -1.0014,0.25281 -0.93768,0.35591 0.0637,0.10309 -0.0277,0.1931 -0.20325,0.20002 -0.1755,0.007 -0.55722,0.0975 -0.84826,0.20134 -0.42486,0.15156 -0.45094,0.1325 -0.13229,-0.0967 0.21828,-0.15702 0.27038,-0.28732 0.11578,-0.28954 -0.57344,-0.008 -4.96455,1.58803 -6.80829,2.475 -2.01673,0.97021 -4.56257,2.75823 -4.30045,3.02035 0.21206,0.21206 -1.73955,2.18465 -2.00134,2.02285 -0.26852,-0.16595 -0.86362,0.93302 -0.63113,1.16551 0.16627,0.16627 0.26545,0.19525 0.94105,0.275 0.1541,0.0182 0.2033,0.1819 0.10933,0.3638 -0.094,0.1819 0.0755,0.0331 0.37656,-0.33073 0.30109,-0.3638 0.4943,-0.80886 0.42936,-0.98901 -0.0649,-0.18016 -0.0331,-0.30655 0.0708,-0.28087 0.1039,0.0257 0.69849,-0.45062 1.32131,-1.05844 2.03092,-1.98202 5.29695,-3.84247 8.68972,-4.94998 1.12021,-0.36568 2.16647,-0.75938 2.32502,-0.8749 0.15856,-0.11551 0.64547,-0.35563 1.08203,-0.53358 l 0.79375,-0.32355 -0.66146,0.53054 c -0.3638,0.29179 -0.55758,0.53318 -0.43062,0.53641 0.12696,0.003 0.0814,0.18595 -0.10125,0.40602 -0.24223,0.29188 -0.42451,0.32343 -0.67369,0.11663 -0.24967,-0.20721 -0.63431,-0.13418 -1.42918,0.27133 -0.59816,0.30516 -1.22095,0.47241 -1.38396,0.37166 -0.18938,-0.11704 -0.2219,-0.0627 -0.0901,0.15063 0.15354,0.24844 0.0456,0.28829 -0.42215,0.15584 -0.42153,-0.11937 -0.51225,-0.0973 -0.27553,0.0671 0.28421,0.19737 0.26712,0.27801 -0.0878,0.4142 -0.61391,0.23558 -0.7201,0.21258 -0.51921,-0.11246 0.0957,-0.15487 -0.55666,0.0873 -1.4497,0.53808 -1.02093,0.51536 -1.55475,0.93126 -1.43793,1.12029 0.11845,0.19165 0.0415,0.24525 -0.21232,0.14786 -0.44707,-0.17156 -1.12659,0.16467 -1.17696,0.58236 -0.0182,0.15083 -0.0571,0.304 -0.0864,0.34038 -0.0293,0.0364 -0.092,0.26626 -0.13926,0.51085 -0.0608,0.31462 0.0419,0.39997 0.35097,0.29178 0.3322,-0.11626 0.36594,-0.0758 0.14077,0.16895 -0.16288,0.17703 -0.47601,0.34826 -0.69585,0.38053 -0.60627,0.089 -2.27983,1.65231 -2.08734,1.94985 0.29036,0.44883 1.15471,0.13753 1.77375,-0.63883 0.32657,-0.40955 0.54708,-0.82018 0.49002,-0.9125 -0.0571,-0.0923 0.24332,-0.31162 0.66751,-0.48733 0.85549,-0.35435 1.86743,-1.32945 1.37969,-1.32945 -0.34967,0 -0.29727,-0.57232 0.077,-0.84143 0.13768,-0.099 0.45748,-0.0691 0.71067,0.0664 0.34471,0.18448 0.94647,-0.0257 2.39551,-0.83666 1.06434,-0.59567 1.69703,-1.00368 1.40599,-0.90668 -0.29104,0.097 -0.64823,0.19728 -0.79375,0.22288 -0.14552,0.0256 -0.339,0.14855 -0.42995,0.27323 -0.091,0.12468 -0.2468,0.0949 -0.34634,-0.0661 -0.0995,-0.16105 -0.0549,-0.30771 0.0992,-0.3259 0.51554,-0.0609 0.67385,-0.11618 1.25104,-0.43721 0.45135,-0.25104 0.60679,-0.24903 0.72761,0.009 0.12142,0.25971 0.18632,0.25828 0.30955,-0.007 0.32283,-0.69457 0.96923,-1.15877 1.23856,-0.88944 0.33715,0.33715 1.58448,-0.43451 1.34049,-0.8293 -0.10045,-0.16253 -0.043,-0.19747 0.13939,-0.0847 0.17066,0.10547 0.72484,-0.0644 1.23151,-0.37757 1.2839,-0.7935 1.19476,-0.14964 -0.13712,0.9904 -0.58208,0.49824 -1.05833,1.07895 -1.05833,1.29046 0,0.2115 -0.16776,0.44893 -0.37279,0.52761 -0.20504,0.0787 -0.88676,0.84885 -1.51495,1.71149 -0.62819,0.86266 -1.17108,1.56846 -1.20641,1.56846 -0.0353,0 0.001,-0.20836 0.0813,-0.46302 0.12431,-0.39535 0.0844,-0.38796 -0.27289,0.0506 -0.23016,0.28247 -0.41847,0.39558 -0.41847,0.25135 0,-0.14423 0.14089,-0.40313 0.31309,-0.57533 0.1722,-0.1722 0.23657,-0.38961 0.14304,-0.48313 -0.0935,-0.0935 -0.42466,0.2615 -0.73586,0.78894 -0.3112,0.52745 -0.64696,0.90885 -0.74614,0.84756 -0.22015,-0.13607 -2.88448,3.79271 -3.5711,5.26589 -0.53686,1.15187 -0.7331,2.35955 -0.51178,3.14952 0.11183,0.39914 0.18622,0.4254 0.37481,0.13229 0.14698,-0.22844 0.17151,-0.0181 0.0654,0.56036 -0.21015,1.14524 -0.35721,1.35093 -0.36255,0.50712 -0.002,-0.35168 -0.1112,-0.8087 -0.24215,-1.0156 -0.17536,-0.27707 -0.31909,-0.0754 -0.54552,0.76552 -0.23559,0.87492 -0.23422,1.18696 0.006,1.33534 0.18448,0.11402 0.23974,0.42544 0.13438,0.75739 -0.22071,0.6954 0.57447,3.54988 0.92803,3.33136 0.24339,-0.15042 0.47112,0.20349 0.6299,0.97894 0.15783,0.77083 0.4916,1.27743 0.84164,1.27743 0.45803,0 0.4892,-0.70905 0.0378,-0.86097 -0.24748,-0.0833 -0.25613,-0.2054 -0.0344,-0.48507 0.163,-0.20556 0.36126,-1.38578 0.44058,-2.62271 0.0793,-1.23693 0.45613,-3.32052 0.83735,-4.63021 0.83424,-2.86607 3.82606,-9.02818 4.33235,-8.92313 0.19272,0.04 0.27175,-0.0545 0.17563,-0.21008 -0.0961,-0.15552 0.0141,-0.571 0.24492,-0.92328 0.46282,-0.70636 0.57939,-1.2933 0.1309,-0.65914 -0.18588,0.26284 -0.24929,0.27848 -0.18777,0.0463 0.0511,-0.19282 0.20899,-0.3525 0.35087,-0.35485 0.20997,-0.003 0.79539,-0.28604 1.94746,-0.93997 0.0561,-0.0318 -0.10134,-0.3682 -0.34985,-0.74747 -0.43524,-0.66427 -0.43266,-0.68643 0.0704,-0.60357 0.59365,0.0978 2.26344,-1.25535 2.02507,-1.64104 -0.0854,-0.13819 0.0212,-0.18355 0.23684,-0.10079 0.21567,0.0828 0.53156,0.52788 0.70198,0.98916 0.17041,0.46128 0.36677,0.6913 0.43634,0.51116 0.0696,-0.18013 -0.0524,-0.68615 -0.27108,-1.12448 -0.21867,-0.43832 -0.29929,-0.79696 -0.17916,-0.79696 0.12014,0 0.3489,0.37427 0.50836,0.83172 0.15947,0.45744 0.71864,1.47757 1.2426,2.26696 0.52397,0.78939 0.88139,1.50652 0.79428,1.59363 -0.0871,0.0871 -0.15838,-3.6e-4 -0.15838,-0.19439 0,-0.19403 -0.049,-0.30317 -0.1089,-0.24253 -0.0981,0.0993 0.25258,1.50591 0.76965,3.0868 0.10709,0.32742 0.30692,0.59531 0.44406,0.59531 0.13713,0 0.19439,0.0893 0.12723,0.19844 -0.0671,0.10914 0.0407,1.27 0.23959,2.57969 0.79133,5.20993 0.17619,10.21084 -2.04467,16.62243 -0.29361,0.84765 -0.47791,1.59711 -0.40956,1.66546 0.29202,0.29201 3.6767,-1.33553 4.28785,-2.06184 1.063,-1.26331 1.55577,-3.40304 1.57366,-6.83334 0.0196,-3.75485 -0.35297,-7.07785 -0.68228,-6.08542 -0.16622,0.50093 -0.19002,0.40344 -0.0981,-0.40168 0.1425,-1.24774 -0.10906,-3.08195 -0.39817,-2.90327 -0.11046,0.0683 -0.36316,-0.0829 -0.56155,-0.33598 -0.33311,-0.42491 -0.32177,-0.42974 0.14819,-0.0632 0.47834,0.37304 0.49703,0.35714 0.31109,-0.26458 -0.1088,-0.3638 -0.31768,-1.16747 -0.46419,-1.78594 -0.1465,-0.61846 -0.35044,-1.12448 -0.45321,-1.12448 -0.10277,0 -0.2035,-0.22092 -0.22383,-0.49094 -0.0204,-0.27002 -0.29343,-1.0365 -0.60685,-1.70328 -0.4197,-0.89287 -0.68625,-1.17526 -1.01151,-1.0716 -0.30286,0.0965 -0.34042,0.0673 -0.11952,-0.093 0.2434,-0.17658 0.17873,-0.45213 -0.26459,-1.1275 -0.83898,-1.27813 -1.47715,-2.50835 -1.36281,-2.62717 0.054,-0.0561 0.39532,0.0927 0.75854,0.33073 0.86227,0.56498 1.03489,0.54577 0.86694,-0.0965 -0.14588,-0.55785 0.18749,-0.72743 0.48469,-0.24655 0.0961,0.15544 0.35448,0.21363 0.57424,0.12929 0.2613,-0.10027 0.3526,-0.0309 0.26383,0.20042 -0.11783,0.30705 0.35016,0.38657 1.13516,0.19288 0.0728,-0.018 -0.19796,-0.21175 -0.60159,-0.43067 -0.40363,-0.21891 -0.86851,-0.3148 -1.03307,-0.2131 -0.18313,0.11318 -0.22595,0.0664 -0.1104,-0.12056 0.22119,-0.35789 1.21589,-0.4148 1.21589,-0.0696 0,0.12974 0.27392,0.30465 0.60871,0.38868 0.57625,0.14462 1.45005,0.70319 7.2484,4.63347 2.99256,2.02845 6.02136,5.1955 7.71484,8.06702 2.91587,4.9442 3.13945,8.48251 0.75902,12.01193 -0.61458,0.91124 -1.32757,1.7235 -1.58442,1.80503 -0.8537,0.27098 -4.60867,-3.2703 -4.30546,-4.06045 0.0749,-0.1952 0.0315,-0.29021 -0.0964,-0.21114 -0.35487,0.21932 -0.87132,-0.71431 -2.92565,-5.289 -2.68227,-5.97302 -6.37747,-12.19508 -8.59506,-14.47259 -0.53135,-0.5457 -0.84603,-0.99219 -0.6993,-0.99219 0.14674,0 1.05541,0.97675 2.01927,2.17055 0.96385,1.19381 1.93138,2.19681 2.15005,2.22891 0.40883,0.06 0.36275,-0.0108 -1.0372,-1.59428 -0.25466,-0.28804 -0.46302,-0.64804 -0.46302,-0.8 0,-0.26408 2.07917,1.97225 2.91042,3.13041 0.21828,0.30413 0.56314,0.58853 0.76635,0.63202 0.20322,0.0435 -0.005,-0.34761 -0.46302,-0.8691 -0.90871,-1.03497 -1.13711,-1.75734 -0.36948,-1.1686 0.25466,0.19532 0.17438,0.0313 -0.17841,-0.36447 -0.66714,-0.74845 -1.12656,-1.01841 -0.54919,-0.32273 0.68982,0.83119 -0.16285,0.34837 -1.28498,-0.7276 -0.64499,-0.61847 -1.08896,-0.97565 -0.98659,-0.79375 0.10237,0.1819 0.0839,0.33073 -0.0412,0.33073 -0.38759,0 -0.86228,-0.61176 -0.86228,-1.11125 0,-0.29504 -0.19541,-0.47625 -0.51355,-0.47625 -0.28246,0 -0.58766,-0.11991 -0.67824,-0.26647 -0.0906,-0.14655 -0.54409,-0.44997 -1.0078,-0.67426 -0.76174,-0.36844 -0.79354,-0.36826 -0.32946,0.002 0.28251,0.22535 0.5414,0.59875 0.57531,0.82976 0.0339,0.23102 0.23587,0.61795 0.44881,0.85985 0.21295,0.2419 0.74283,1.15419 1.17752,2.02731 2.73363,5.49078 4.10582,15.99792 2.66319,20.39248 -0.71126,2.16663 -1.49311,2.96941 -3.77294,3.87395 -2.24448,0.89051 -2.77985,0.72457 -3.77873,-1.17132 -0.66318,-1.25871 -0.73514,-1.65177 -0.71634,-3.91281 0.0133,-1.59742 0.24093,-3.47788 0.62457,-5.15938 1.60698,-7.04324 1.79507,-9.22011 1.10877,-12.83229 l -0.42729,-2.24888 -0.16866,3.30729 c -0.36305,7.11892 -2.70671,16.58052 -5.70963,23.0504 -1.08877,2.34577 -1.65123,3.01624 -2.02416,2.41283 z m 29.68192,-9.24317 c 0.52578,-0.95409 0.65062,-4.08326 0.21351,-5.35196 -0.20267,-0.58828 -0.25794,-1.00127 -0.12282,-0.91775 0.13513,0.0835 0.0502,-0.30545 -0.1888,-0.86436 -0.23897,-0.55891 -0.49568,-1.16434 -0.57047,-1.34541 -0.0748,-0.18106 -0.24258,-0.26333 -0.37285,-0.18282 -0.22573,0.13951 -0.28911,-1.6e-4 -0.33792,-0.74474 -0.0838,-1.27884 -5.52222,-7.57094 -6.11703,-7.07729 -0.17209,0.14282 -0.39123,0.18134 -0.48699,0.0856 -0.32254,-0.32255 -0.17742,0.3337 0.15664,0.70832 0.27695,0.31057 0.26224,0.31955 -0.0905,0.0552 -0.23167,-0.17362 -0.48259,-0.2543 -0.55761,-0.17929 -0.075,0.075 -0.30218,-0.0679 -0.50482,-0.31766 -0.26532,-0.32698 -0.2729,-0.39662 -0.0271,-0.24881 0.25806,0.15517 0.30548,0.0223 0.19437,-0.54452 -0.10598,-0.54069 -0.0853,-0.60848 0.0743,-0.24308 0.20022,0.45846 1.10976,0.85424 1.10976,0.48291 0,-0.26705 -0.86399,-1.1219 -1.13389,-1.1219 -0.14197,0 -0.8433,-0.4204 -1.5585,-0.93423 -0.71522,-0.51383 -1.40582,-0.86907 -1.53468,-0.78943 -0.12885,0.0796 -0.32044,0.005 -0.42574,-0.16499 -0.13021,-0.21069 -0.0726,-0.23983 0.18016,-0.0911 0.20438,0.12026 0.14479,-0.0399 -0.13242,-0.356 -0.56016,-0.63864 -1.20838,-0.80647 -0.6866,-0.17777 0.18116,0.21828 0.23451,0.39687 0.11857,0.39687 -0.11595,0 0.0778,0.32743 0.43062,0.72761 l 0.64144,0.7276 -0.71945,-0.63377 c -0.3957,-0.34858 -0.66165,-0.7273 -0.591,-0.84161 0.0707,-0.11432 0.005,-0.28383 -0.14476,-0.3767 -0.15027,-0.0929 -0.21174,-0.26833 -0.13661,-0.3899 0.11532,-0.18658 -2.49552,-1.85906 -2.90209,-1.85906 -0.38503,0 -0.0465,0.46809 0.62558,0.86513 0.41903,0.24753 0.83036,0.71968 0.91407,1.04923 0.13028,0.5129 0.0491,0.47718 -0.56344,-0.24802 -0.75475,-0.89349 -1.2412,-1.18154 -1.2502,-0.7403 -0.008,0.38035 2.95893,2.51055 3.19773,2.29609 0.10989,-0.0987 0.12611,-0.0499 0.036,0.10831 -0.0901,0.15826 0.31757,0.75357 0.90586,1.32292 2.57312,2.49029 6.37658,7.97535 8.05654,11.61852 1.37632,2.98467 2.31647,6.31702 2.16395,7.67009 -0.0727,0.64493 -0.072,1.23282 0.002,1.30642 0.14385,0.14385 1.55681,-1.62833 2.13546,-2.67833 z m -0.19907,-3.14523 c 0.0127,-0.30823 0.0754,-0.37092 0.15985,-0.15985 0.0764,0.19099 0.067,0.41919 -0.0209,0.50711 -0.0879,0.0879 -0.15046,-0.0683 -0.13897,-0.34726 z m -0.26458,-0.81621 c -0.0115,-0.17 -0.0894,-0.52719 -0.17316,-0.79375 -0.14474,-0.4607 -0.13728,-0.46127 0.15102,-0.0117 0.1668,0.26015 0.24473,0.61733 0.17315,0.79375 -0.0939,0.23151 -0.13594,0.23476 -0.15101,0.0117 z m -1.34381,-3.39508 c -0.47866,-1.09781 -0.91559,-1.95073 -0.97096,-1.89536 -0.0554,0.0554 0.14344,0.67016 0.44179,1.3662 0.29836,0.69603 0.49732,1.31067 0.44213,1.36586 -0.0552,0.0552 -0.429,-0.64627 -0.83069,-1.5588 -1.07875,-2.45061 -3.94603,-6.99094 -3.21992,-5.09873 0.25579,0.66658 0.0335,0.45269 -0.89385,-0.8599 -0.58857,-0.8331 -0.69288,-1.08685 -0.30944,-0.75274 0.5464,0.47611 0.8092,0.29749 0.38,-0.25827 -0.10914,-0.14132 -2.2e-4,-0.0454 0.24205,0.21314 0.32573,0.34763 0.47881,0.38355 0.58761,0.13789 0.0982,-0.22172 0.13582,-0.20021 0.1131,0.0647 -0.0541,0.63105 0.34328,1.33606 0.6472,1.14823 0.1597,-0.0987 0.19947,-0.045 0.0936,0.12634 -0.24262,0.39256 0.60945,1.68075 0.96598,1.46041 0.16082,-0.0994 0.19768,-0.0433 0.0881,0.13401 -0.22158,0.35854 0.63393,1.92593 0.94596,1.73309 0.11715,-0.0724 0.13461,0.0727 0.0388,0.32238 -0.12017,0.31315 -0.0758,0.39317 0.14311,0.2579 0.2143,-0.13245 0.62175,0.46276 1.255,1.83336 0.51572,1.11621 0.88663,2.08053 0.82424,2.14292 -0.0624,0.0624 -0.50507,-0.78478 -0.98373,-1.8826 z m -4.44941,-6.8042 c -0.18985,-0.18985 -0.31309,-0.20548 -0.31309,-0.0397 0,0.15038 0.0794,0.35278 0.17639,0.44979 0.097,0.097 0.2379,0.11488 0.31309,0.0397 0.0752,-0.0752 -0.004,-0.27759 -0.17639,-0.44979 z m 4.33413,5.16197 c -0.14358,-0.37709 -0.11319,-0.40748 0.14811,-0.14812 0.18083,0.17948 0.26212,0.39297 0.18066,0.47444 -0.0815,0.0815 -0.22941,-0.0654 -0.32877,-0.32632 z m -0.97492,-1.7312 c -0.17328,-0.32743 -0.48768,-0.89297 -0.69867,-1.25678 -0.36802,-0.63455 -0.36552,-0.63994 0.0613,-0.13229 0.52735,0.62716 1.26751,1.98438 1.08219,1.98438 -0.0714,0 -0.27156,-0.26789 -0.44485,-0.59531 z m -1.48204,-2.38125 c -0.51713,-0.66866 -0.69358,-1.07955 -0.38048,-0.88604 0.3133,0.19363 0.94014,1.21676 0.74547,1.21676 -0.0601,0 -0.22431,-0.14882 -0.36499,-0.33072 z m -2.75318,-3.04271 c -0.3291,-0.41965 -0.31974,-0.42901 0.0999,-0.0999 0.25466,0.19972 0.46302,0.40808 0.46302,0.46302 0,0.21776 -0.21727,0.0776 -0.56292,-0.36312 z m -3.71315,-2.09462 c -0.47015,-0.48507 -0.76792,-0.88195 -0.6617,-0.88195 0.10621,0 0.54628,0.3613 0.97794,0.80288 0.43166,0.44158 0.78483,0.67267 0.78483,0.51355 0,-0.15913 0.11906,-0.21574 0.26458,-0.1258 0.39188,0.24219 0.32077,0.57326 -0.12312,0.57326 -0.21325,0 -0.77238,-0.39687 -1.24253,-0.88194 z m -11.30637,20.58551 c 0.18666,0.29462 0.22584,0.28799 0.21396,-0.0362 -0.008,-0.21828 -0.11687,-0.635 -0.24194,-0.92604 -0.18171,-0.42286 -0.23112,-0.4405 -0.24598,-0.0878 -0.0102,0.24276 -0.0586,0.59995 -0.10753,0.79375 -0.0489,0.1938 -0.0345,0.2496 0.032,0.12399 0.0665,-0.12561 0.22378,-0.0661 0.34946,0.13229 z m 1.42269,-1.80828 c 0.0624,-1.75338 -0.13887,-1.67669 -0.48431,0.18457 -0.12814,0.69042 -0.10055,0.82506 0.1084,0.52917 0.20833,-0.295 0.23426,-0.15918 0.10102,0.52917 -0.0986,0.50932 -0.0915,0.84222 0.0159,0.73977 0.10732,-0.10244 0.22388,-0.99465 0.25902,-1.98268 z m 16.55056,0.0812 c -0.16368,-0.49594 -0.23096,-1.24112 -0.14951,-1.65595 0.11124,-0.56658 0.0915,-0.62395 -0.0792,-0.23058 -0.19007,0.43801 -0.30476,0.28653 -0.70114,-0.92604 -0.26065,-0.79734 -0.81612,-2.21264 -1.23438,-3.14511 -0.41826,-0.93247 -0.7121,-1.74377 -0.65299,-1.80288 0.11995,-0.11995 1.13631,2.03198 1.87372,3.9672 0.26462,0.69447 0.52816,1.21564 0.58563,1.15817 0.14779,-0.14779 -1.03749,-3.23094 -1.88525,-4.90392 -0.39186,-0.7733 -0.64735,-1.47112 -0.56775,-1.55072 0.0796,-0.0796 0.57707,0.76568 1.1055,1.87839 0.93233,1.96323 1.40313,2.67967 0.91195,1.38777 -0.62321,-1.63916 -2.16313,-4.38302 -2.4271,-4.32464 -0.16214,0.0359 -0.34852,-0.1134 -0.41417,-0.33168 -0.1061,-0.35278 -0.0882,-0.35278 0.16131,0 0.51095,0.72248 0.29901,-0.0533 -0.26298,-0.96261 -0.30348,-0.49102 -0.65543,-0.8287 -0.78213,-0.7504 -0.1267,0.0783 -0.42721,-0.15805 -0.6678,-0.52524 -0.24059,-0.36719 -0.53525,-0.60717 -0.6548,-0.53329 -0.11955,0.0739 -0.30352,-0.005 -0.40882,-0.17544 -0.12647,-0.20464 -0.0761,-0.2385 0.14834,-0.0998 0.22124,0.13673 0.29973,0.0898 0.22497,-0.13444 -0.0631,-0.18944 -0.32593,-0.37543 -0.58396,-0.4133 -0.33695,-0.0495 -0.42513,0.0559 -0.31291,0.37376 0.0891,0.25245 -0.0832,0.15843 -0.40103,-0.21884 -0.3065,-0.3638 -0.49801,-0.47295 -0.42558,-0.24254 0.19275,0.61313 -0.48139,0.51209 -0.88259,-0.13229 -0.30515,-0.49011 -0.2971,-0.51313 0.0726,-0.20764 0.23845,0.19703 0.48065,0.23869 0.5678,0.0977 0.19099,-0.30902 -1.29219,-2.20843 -1.53493,-1.96569 -0.0981,0.0981 -0.24712,-0.0843 -0.33108,-0.40534 -0.15966,-0.61052 -0.60938,-0.82756 -0.52432,-0.25303 0.0269,0.1819 0.47653,1.04511 0.99911,1.91823 1.59105,2.65833 3.25606,5.54865 3.27697,5.68854 0.0841,0.56284 0.47082,1.32292 0.67304,1.32292 0.13572,0 0.24676,-0.0498 0.24676,-0.11065 0,-0.0609 0.0741,-0.30385 0.16475,-0.53999 0.10308,-0.26862 0.0412,-0.40052 -0.16537,-0.35237 -0.18156,0.0423 -0.37807,-0.052 -0.43668,-0.20966 -0.0586,-0.15765 0.0761,-0.28664 0.2993,-0.28664 0.42017,0 1.88664,2.74928 1.61263,3.02329 -0.0834,0.0834 -0.15172,-0.01 -0.15172,-0.20753 0,-0.23725 -0.14144,-0.18484 -0.41649,0.15434 -0.22907,0.28247 -0.34775,0.3755 -0.26373,0.20673 0.20402,-0.40979 -0.10734,-1.1834 -0.4028,-1.0008 -0.12861,0.0795 -0.15814,-0.07 -0.0656,-0.33225 0.12574,-0.35641 0.0894,-0.40444 -0.14399,-0.19027 -0.37415,0.34333 -0.0963,1.24074 0.307,0.9915 0.17673,-0.10922 0.21882,-0.01 0.11287,0.26611 -0.20754,0.54083 0.0472,1.28491 0.37133,1.0846 0.13027,-0.0805 0.23686,-0.0133 0.23686,0.14942 0,0.1627 0.13412,0.21293 0.29804,0.11162 0.21343,-0.13191 0.22325,-0.0506 0.0346,0.28655 -0.26887,0.48043 -0.15221,1.45392 0.17423,1.45392 0.0993,0 0.33681,0.43206 0.52777,0.96014 0.24045,0.66496 0.41258,0.85434 0.55988,0.616 0.14141,-0.2288 0.31787,0.048 0.52652,0.8258 0.39756,1.48207 0.53916,1.70709 0.80427,1.27813 0.1499,-0.24254 0.26848,-0.12545 0.3988,0.39377 0.13563,0.5404 0.24606,0.64332 0.411,0.38307 0.16924,-0.26703 0.23176,-0.22377 0.25048,0.1733 0.0137,0.29104 0.0846,0.38137 0.15762,0.20074 0.073,-0.18063 -0.001,-0.73419 -0.1649,-1.23013 z m -0.65822,-0.34735 c -0.10068,-0.40696 -0.65575,-1.91564 -1.23351,-3.35261 -0.57775,-1.43697 -0.9996,-2.66353 -0.93745,-2.72568 0.133,-0.13301 1.4995,3.13978 2.15324,5.15706 0.25064,0.77341 0.39835,1.46357 0.32824,1.53368 -0.0701,0.0701 -0.20985,-0.2055 -0.31052,-0.61245 z m -0.84754,-0.75134 c -0.0862,-0.22456 -0.0975,-0.46741 -0.0253,-0.53966 0.0722,-0.0723 0.19488,0.11147 0.2725,0.40828 0.16487,0.63049 -0.0183,0.72784 -0.2472,0.13138 z m -1.17538,-3.09111 c -0.84157,-2.21593 -0.8514,-2.2495 -0.52478,-1.79227 0.38032,0.5324 1.38996,3.21751 1.25905,3.34842 -0.0571,0.0571 -0.38753,-0.64316 -0.73427,-1.55615 z m -1.11507,-4.05791 c -0.39703,-0.80954 -0.65445,-1.58099 -0.57204,-1.71433 0.0824,-0.13333 0.01,-0.50447 -0.16182,-0.82475 -0.28427,-0.53116 -0.33994,-0.54362 -0.63371,-0.14187 -0.17713,0.24225 -0.41855,0.353 -0.53649,0.24612 -0.11794,-0.10688 -0.13967,0.014 -0.0483,0.2687 0.0914,0.25466 0.11454,0.46302 0.0515,0.46302 -0.22249,0 -0.71722,-1.13264 -0.7919,-1.81294 l -0.0756,-0.68885 0.59835,0.75041 c 0.57535,0.72154 1.18269,0.59327 0.78998,-0.16685 -0.094,-0.1819 0.085,-0.0331 0.39785,0.33073 l 0.56871,0.66146 -0.17624,-0.66146 c -0.1714,-0.64328 -0.16481,-0.64691 0.23958,-0.13229 0.47154,0.60006 0.56441,1.0387 0.16807,0.79375 -0.37271,-0.23035 -0.33005,0.032 0.15901,0.97771 0.26765,0.51758 0.4929,0.707 0.61185,0.51453 0.10354,-0.16753 0.18826,0.35091 0.18826,1.1521 0,0.80118 -0.0124,1.4567 -0.0276,1.4567 -0.0152,0 -0.35241,-0.66235 -0.74945,-1.47189 z m 0.11331,-0.81825 c -0.29513,-0.55944 -0.54187,-0.9319 -0.5483,-0.82769 -0.0188,0.30425 0.86654,2.0632 0.9809,1.94885 0.0572,-0.0572 -0.13747,-0.56172 -0.4326,-1.12116 z m -2.37924,-2.27834 c -0.26131,-0.25936 -0.2917,-0.22897 -0.14812,0.14812 0.0994,0.26094 0.24731,0.40778 0.32877,0.32632 0.0815,-0.0815 1.7e-4,-0.29496 -0.18065,-0.47444 z m -11.0595,9.72785 c 0.0411,-1.56191 -0.27856,-3.30729 -0.60566,-3.30729 -0.1272,0 -0.11425,0.42382 0.0288,0.94181 0.14302,0.518 0.20236,1.08355 0.13185,1.25678 -0.0705,0.17322 -0.13942,0.0768 -0.15314,-0.21421 -0.0137,-0.29105 -0.14997,-0.70776 -0.3028,-0.92605 -0.22614,-0.32299 -0.25264,-0.29837 -0.14235,0.1323 0.0745,0.29104 0.20357,1.00541 0.28675,1.5875 0.11953,0.83657 0.0966,0.93359 -0.10966,0.46302 -0.14349,-0.32742 -0.29449,-0.59449 -0.33556,-0.59347 -0.0411,10e-4 -0.0942,0.56655 -0.11805,1.25677 -0.0288,0.83265 0.0254,1.07687 0.16099,0.72576 0.1749,-0.45286 0.23399,-0.39562 0.4098,0.39687 0.20324,0.91619 0.20813,0.91901 0.45985,0.26459 0.13993,-0.3638 0.27007,-1.25677 0.2892,-1.98438 z m -0.30864,-0.13229 c 0,-0.3638 0.0601,-0.51263 0.13345,-0.33073 0.0734,0.1819 0.0734,0.47956 0,0.66146 -0.0734,0.1819 -0.13345,0.0331 -0.13345,-0.33073 z m -8.44108,0.8599 c -0.14916,-0.3979 -0.50389,-0.4301 -0.72882,-0.0661 -0.0899,0.14552 -0.0374,0.26458 0.11667,0.26458 0.15411,0 0.28857,0.2679 0.2988,0.59532 0.0176,0.5641 0.0296,0.56757 0.22797,0.0661 0.11515,-0.29104 0.15358,-0.67799 0.0854,-0.85989 z m -2.0088,-0.39688 c -0.0734,-0.1819 -0.13346,-0.0331 -0.13346,0.33073 0,0.3638 0.0601,0.51263 0.13346,0.33073 0.0734,-0.1819 0.0734,-0.47956 0,-0.66146 z m 13.08363,-2.97243 c -0.0803,-0.34034 -0.24295,-0.0146 -0.46243,0.92604 -0.473,2.02707 -0.40479,2.49686 0.13385,0.92191 0.24884,-0.7276 0.3967,-1.55918 0.32858,-1.84795 z m 15.21071,1.40455 c -0.23043,-0.77477 -0.55033,-1.58727 -0.71089,-1.80556 -0.23804,-0.32361 -0.25914,-0.29919 -0.11427,0.1323 0.0977,0.29104 0.37048,1.15068 0.60614,1.91031 0.23566,0.75963 0.47561,1.33401 0.53323,1.27639 0.0576,-0.0576 -0.0838,-0.73866 -0.31421,-1.51344 z m -16.22465,-1.13881 -0.17728,-1.06362 -0.21766,1.19062 c -0.11971,0.65485 -0.14058,1.48829 -0.0464,1.85209 l 0.17129,0.66146 0.22365,-0.78847 c 0.12301,-0.43365 0.14388,-1.26709 0.0464,-1.85208 z m -0.31778,1.031 c 0.0127,-0.30823 0.0754,-0.37092 0.15985,-0.15985 0.0764,0.19099 0.067,0.41919 -0.0209,0.50711 -0.0879,0.0879 -0.15045,-0.0684 -0.13897,-0.34726 z m -9.62712,0.22552 c -0.0671,-0.25743 -0.12638,-0.11087 -0.13178,0.32569 -0.005,0.43657 0.0495,0.64719 0.12197,0.46806 0.0725,-0.17913 0.0769,-0.53632 0.01,-0.79375 z m -1.59563,-0.66649 c -0.0734,-0.18191 -0.13345,-0.0331 -0.13345,0.33072 0,0.36381 0.06,0.51263 0.13345,0.33073 0.0734,-0.1819 0.0734,-0.47955 0,-0.66145 z m 1.14769,-0.0851 c 0,-0.60476 -0.0441,-0.63626 -0.39687,-0.28348 -0.21829,0.21828 -0.39688,0.52444 -0.39688,0.68036 0,0.15591 0.17859,0.28348 0.39688,0.28348 0.24988,0 0.39687,-0.25199 0.39687,-0.68036 z m 9.89251,-1.43631 c 0.26288,-1.21172 0.38713,-1.4853 0.42056,-0.92604 0.0261,0.43656 0.112,0.63145 0.19089,0.43308 0.12109,-0.3045 0.1811,-0.3045 0.38535,0 0.15044,0.22427 0.17877,-0.3098 0.0749,-1.41219 -0.0918,-0.97508 -0.2577,-2.88008 -0.36854,-4.23334 l -0.20152,-2.46047 -0.0418,1.85209 c -0.0288,1.27585 -0.11938,1.72929 -0.29127,1.4574 -0.13724,-0.21707 -0.1853,-0.65056 -0.10681,-0.96332 0.0785,-0.31276 0.008,-0.65186 -0.15648,-0.75357 -0.21839,-0.13497 -0.25006,0.3575 -0.11724,1.82322 0.11971,1.32102 0.0886,2.00814 -0.091,2.00814 -0.18323,0 -0.19205,0.36009 -0.0268,1.09546 0.13537,0.6025 0.19983,1.22758 0.14324,1.38906 -0.0566,0.16148 -0.19046,-0.21241 -0.29751,-0.83087 -0.10704,-0.61847 -0.31613,-1.12448 -0.46464,-1.12448 -0.15408,0 -0.20047,0.27703 -0.10806,0.64524 0.0891,0.35489 0.0536,0.71219 -0.0788,0.79401 -0.14119,0.0873 -0.1173,0.55089 0.0578,1.1214 0.28491,0.92834 0.30759,0.94339 0.49794,0.33047 0.12323,-0.39677 0.1542,-0.13663 0.0811,0.68075 -0.14502,1.62041 0.008,1.33674 0.49865,-0.92604 z m -0.0611,-2.38125 c 0,-0.3638 0.06,-0.51263 0.13345,-0.33073 0.0734,0.1819 0.0734,0.47956 0,0.66146 -0.0734,0.1819 -0.13345,0.0331 -0.13345,-0.33073 z m 0.52917,-0.52917 c 0,-0.3638 0.0601,-0.51263 0.13345,-0.33072 0.0734,0.1819 0.0734,0.47955 0,0.66145 -0.0734,0.1819 -0.13345,0.0331 -0.13345,-0.33073 z m 0.39803,3.10886 c -0.0734,-0.1819 -0.13345,-0.0331 -0.13345,0.33073 0,0.3638 0.0601,0.51263 0.13345,0.33073 0.0734,-0.1819 0.0734,-0.47956 0,-0.66146 z m -11.86186,-1.52136 c 0.005,-0.24314 -0.0803,-0.1919 -0.21962,0.1323 -0.12506,0.29104 -0.22389,0.76729 -0.21961,1.05833 0.006,0.42539 0.0493,0.39945 0.21961,-0.13229 0.11651,-0.3638 0.21534,-0.84005 0.21962,-1.05834 z m 12.66112,0.74415 c -0.0845,-0.21107 -0.14715,-0.14838 -0.15985,0.15985 -0.0115,0.27891 0.0511,0.43518 0.13897,0.34726 0.0879,-0.0879 0.0973,-0.31612 0.0209,-0.50711 z m 14.66823,-0.12899 c -0.3119,-0.53637 -0.38722,-0.36469 -0.1319,0.30066 0.0907,0.23646 0.22071,0.37419 0.28883,0.30606 0.0681,-0.0681 -0.002,-0.34114 -0.15693,-0.60672 z m -26.01134,-1.07818 c 0.15781,-0.47294 0.18854,-0.85989 0.0683,-0.85989 -0.12025,0 -0.34331,0.49119 -0.4957,1.09154 -0.31443,1.23879 -0.008,1.07259 0.42741,-0.23165 z m 0.48969,0.39688 c -0.0734,-0.1819 -0.13346,-0.0331 -0.13346,0.33073 0,0.3638 0.0601,0.51263 0.13346,0.33073 0.0734,-0.1819 0.0734,-0.47956 0,-0.66146 z m -1.4994,-0.91607 c -0.28829,-0.44961 -0.29576,-0.44903 -0.15102,0.0117 0.0838,0.26657 0.16167,0.62375 0.17316,0.79375 0.0151,0.22309 0.0571,0.21984 0.15102,-0.0117 0.0716,-0.17642 -0.006,-0.53361 -0.17316,-0.79375 z m 12.61741,0.13886 c -0.0845,-0.21107 -0.14716,-0.14838 -0.15985,0.15985 -0.0115,0.27891 0.051,0.43518 0.13896,0.34726 0.0879,-0.0879 0.0973,-0.31612 0.0209,-0.50711 z m 10.03702,-0.91919 c -0.22385,-0.41305 -0.41176,-0.6673 -0.41758,-0.56501 -0.0179,0.3145 0.59763,1.54294 0.71454,1.42602 0.0605,-0.0605 -0.0731,-0.44796 -0.29696,-0.86101 z m -10.55707,-1.07809 c -0.0608,-0.40218 -0.1122,-0.13593 -0.11419,0.59168 -0.002,0.7276 0.0478,1.05666 0.11058,0.73124 0.0628,-0.32542 0.0644,-0.92074 0.004,-1.32292 z m 0.52603,-0.13593 c -0.0631,-0.32742 -0.11466,-0.0595 -0.11466,0.59531 0,0.65485 0.0516,0.92274 0.11466,0.59532 0.0631,-0.32742 0.0631,-0.86321 0,-1.19063 z m -11.03869,0.52917 c 0.002,-0.10914 -0.11501,-0.19844 -0.26053,-0.19844 -0.14552,0 -0.26276,0.26789 -0.26053,0.59531 0.003,0.4814 0.0531,0.51937 0.26053,0.19844 0.14106,-0.21828 0.2583,-0.48617 0.26053,-0.59531 z m 0.44937,0.0165 c -0.0845,-0.21107 -0.14715,-0.14838 -0.15985,0.15985 -0.0115,0.27891 0.051,0.43518 0.13897,0.34726 0.0879,-0.0879 0.0973,-0.31612 0.0209,-0.50711 z m 8.20373,-0.94258 c -0.0665,-0.25466 -0.121,-0.0463 -0.121,0.46302 0,0.50932 0.0545,0.71768 0.121,0.46302 0.0666,-0.25466 0.0666,-0.67138 0,-0.92604 z m 2.90326,0.13229 c -0.0734,-0.1819 -0.13345,-0.0331 -0.13345,0.33073 0,0.3638 0.0601,0.51263 0.13345,0.33073 0.0734,-0.1819 0.0734,-0.47956 0,-0.66146 z m -12.31323,-0.269 c -0.2613,-0.25936 -0.2917,-0.22897 -0.14811,0.14812 0.0994,0.26094 0.2473,0.40778 0.32877,0.32632 0.0815,-0.0815 1.6e-4,-0.29496 -0.18066,-0.47444 z m 1.47083,0.021 c -0.0845,-0.21107 -0.14716,-0.14837 -0.15985,0.15985 -0.0115,0.27892 0.051,0.43519 0.13896,0.34727 0.0879,-0.0879 0.0973,-0.31613 0.0209,-0.50712 z m -11.29324,0.0652 c 0,-0.13694 -0.11907,-0.32256 -0.26459,-0.41249 -0.14552,-0.0899 -0.26458,0.0221 -0.26458,0.24896 0,0.22687 0.11906,0.41249 0.26458,0.41249 0.14552,0 0.26459,-0.11203 0.26459,-0.24896 z m -0.79331,-3.45604 c 0.14528,-0.27145 0.26414,-0.5609 0.26414,-0.64323 0,-0.29393 -0.75258,-0.14347 -0.90558,0.18105 -0.0858,0.1819 -0.0952,0.0106 -0.0211,-0.38066 0.18086,-0.95416 -0.30899,-1.21433 -0.51556,-0.27382 -0.21976,1.00055 -0.13897,2.37999 0.20492,3.49875 l 0.28464,0.92604 0.21219,-1.40729 c 0.1167,-0.77401 0.33105,-1.62939 0.47632,-1.90084 z m 21.61319,1.91907 c -0.0666,-0.25466 -0.121,-0.0463 -0.121,0.46302 0,0.50932 0.0544,0.71768 0.121,0.46302 0.0666,-0.25466 0.0666,-0.67138 0,-0.92604 z m -10.50113,0.87551 c 0,-0.0642 -0.11907,-0.19026 -0.26459,-0.2802 -0.14552,-0.0899 -0.26458,-0.0374 -0.26458,0.11668 0,0.1541 0.11906,0.28019 0.26458,0.28019 0.14552,0 0.26459,-0.0525 0.26459,-0.11667 z m -10.41975,-1.1167 c -0.22384,-0.41305 -0.41175,-0.6673 -0.41758,-0.56501 -0.0179,0.3145 0.59763,1.54294 0.71455,1.42602 0.0605,-0.0605 -0.0731,-0.44797 -0.29697,-0.86101 z m 16.42296,-0.28798 c -0.0666,-0.25466 -0.121,-0.0463 -0.121,0.46302 0,0.50932 0.0544,0.71768 0.121,0.46302 0.0665,-0.25466 0.0665,-0.67138 0,-0.92604 z m 1.10923,-1.05833 c 0.0172,-0.47295 -0.0958,-0.8599 -0.25111,-0.8599 -0.162,0 -0.2108,0.22561 -0.11446,0.52917 0.0924,0.29104 0.0488,0.52916 -0.0969,0.52916 -0.14566,0 -0.31928,-0.32742 -0.38581,-0.7276 -0.0904,-0.54372 -0.11157,-0.49357 -0.0837,0.19844 0.0261,0.64902 0.1496,0.90179 0.41278,0.84497 0.2881,-0.0622 0.30608,0.003 0.0772,0.27835 -0.16666,0.20081 -0.22009,0.64525 -0.12109,1.00711 0.17505,0.63976 0.17939,0.63797 0.3545,-0.14606 0.0975,-0.43656 0.19138,-1.1807 0.20859,-1.65364 z m -16.73489,1.64903 c -0.15489,-0.40363 0.58156,-1.50967 0.8817,-1.32418 0.0884,0.0546 0.16069,-0.11579 0.16069,-0.37869 0,-0.28187 -0.16673,-0.45114 -0.40633,-0.41254 -0.22348,0.036 -0.38978,0.25986 -0.36957,0.49744 0.0202,0.23758 -0.0563,0.43196 -0.17013,0.43196 -0.30983,0 -0.53264,0.73859 -0.35918,1.19062 0.0838,0.21828 0.21183,0.39688 0.28459,0.39688 0.0728,0 0.063,-0.18067 -0.0218,-0.40149 z m 20.99648,-1.3777 c -0.28498,-0.44405 -0.29315,-0.44323 -0.14922,0.0149 0.0838,0.26657 0.17011,0.80235 0.19191,1.19063 l 0.0396,0.70596 0.10957,-0.72086 c 0.0603,-0.39647 -0.0261,-0.93225 -0.19191,-1.19062 z m -9.57305,0.84615 c -0.0815,-0.0815 -0.2294,0.0654 -0.32876,0.32631 -0.14359,0.37709 -0.1132,0.40748 0.14811,0.14812 0.18082,-0.17948 0.26211,-0.39297 0.18065,-0.47443 z m 9.04693,-1.19924 c 0,-0.28246 -0.11906,-0.51356 -0.26458,-0.51356 -0.14552,0 -0.26458,0.30469 -0.26458,0.67708 0,0.384 0.11452,0.60629 0.26458,0.51355 0.14552,-0.0899 0.26458,-0.39462 0.26458,-0.67707 z m -1.40676,-0.034 c -0.0845,-0.21106 -0.14715,-0.14837 -0.15985,0.15985 -0.0115,0.27892 0.0511,0.43519 0.13897,0.34727 0.0879,-0.0879 0.0973,-0.31612 0.0209,-0.50712 z m 11.72551,0.34981 c 0,-0.44697 -2.21675,-2.94603 -2.61324,-2.94603 -0.31345,0 -0.33245,0.0705 -0.0855,0.3175 0.17463,0.17462 0.3175,0.4355 0.3175,0.57973 0,0.14423 -0.16775,0.0328 -0.37279,-0.24759 -0.25028,-0.34228 -0.29352,-0.65795 -0.13158,-0.96055 0.2637,-0.49272 -0.13407,-0.94819 -0.42167,-0.48284 -0.0929,0.15027 -0.27969,0.20471 -0.41515,0.12099 -0.43595,-0.26943 -0.26387,0.15587 0.43243,1.06877 0.45468,0.59611 0.84956,0.85697 1.19621,0.79021 0.36739,-0.0708 0.71791,0.20321 1.20851,0.94456 0.70035,1.0583 0.88529,1.22861 0.88529,0.81525 z m -30.43113,-1.57259 c -0.003,-0.38556 -0.0395,-0.39255 -0.26053,-0.0505 -0.33486,0.51816 -0.33486,0.86841 0,0.66146 0.14552,-0.0899 0.26276,-0.36485 0.26053,-0.61093 z m 1.16742,0.25816 c 0.075,-0.12127 -0.0318,-0.22049 -0.23733,-0.22049 -0.20548,0 -0.31228,0.0992 -0.23733,0.22049 0.075,0.12126 0.18175,0.22048 0.23733,0.22048 0.0556,0 0.16238,-0.0992 0.23733,-0.22048 z m 14.70844,-2.13819 c -0.17546,-0.30003 -0.24112,-0.0805 -0.23061,0.77117 0.0136,1.09919 0.0324,1.1314 0.24531,0.41946 0.13599,-0.45476 0.12996,-0.94327 -0.0147,-1.19063 z m 0.71571,0.31319 c -0.0671,-0.25744 -0.12638,-0.11087 -0.13177,0.32569 -0.005,0.43656 0.0495,0.64719 0.12197,0.46806 0.0725,-0.17914 0.0769,-0.53632 0.01,-0.79375 z m 2.9078,-0.64996 c -0.0845,-0.21107 -0.14715,-0.14837 -0.15985,0.15985 -0.0115,0.27891 0.0511,0.43519 0.13897,0.34727 0.0879,-0.0879 0.0973,-0.31613 0.0209,-0.50712 z m -20.27483,-0.89266 c 0.50149,-0.51825 0.73321,-0.86729 0.51493,-0.77565 -0.36513,0.15329 -1.75608,1.71792 -1.52724,1.71792 0.0553,0 0.51082,-0.42402 1.01231,-0.94227 z m 2.79579,-0.0157 c 0.0334,-0.22741 -0.0132,-0.33958 -0.10351,-0.24927 -0.0903,0.0903 -0.1915,0.35025 -0.22488,0.57766 -0.0334,0.2274 0.0132,0.33957 0.10351,0.24926 0.0903,-0.0903 0.1915,-0.35025 0.22488,-0.57765 z m 12.51456,-0.89416 c 0.29703,-0.62369 0.29153,-0.63213 -0.0965,-0.14786 -0.33333,0.41605 -0.41147,0.43448 -0.41147,0.097 0,-0.61913 -0.94248,-0.78597 -0.98851,-0.17499 -0.0242,0.32151 0.13966,0.49044 0.47578,0.49044 0.282,0 0.51273,0.1389 0.51273,0.30868 0,0.38691 0.10949,0.26333 0.50792,-0.57327 z m 4.48958,0.3786 c 0.37349,0.23082 0.37025,0.0779 -0.0163,-0.77053 -0.35663,-0.78273 -0.73976,-0.44272 -0.73976,0.65652 0,0.47885 0.0638,0.56079 0.23095,0.29683 0.12703,-0.20055 0.36333,-0.28281 0.52512,-0.18282 z m -13.06729,-0.64318 c 0.0899,-0.14552 0.0444,-0.26458 -0.10107,-0.26458 -0.14552,0 -0.33816,0.11906 -0.4281,0.26458 -0.0899,0.14552 -0.0445,0.26458 0.10106,0.26458 0.14552,0 0.33817,-0.11906 0.42811,-0.26458 z m 10.03208,-2.55141 c 0.22151,-0.57723 -0.0726,-0.84553 -0.38513,-0.35134 -0.31288,0.49473 -0.31954,0.78608 -0.018,0.78608 0.12995,0 0.31135,-0.19563 0.4031,-0.43474 z m -2.42531,-3.70923 c -0.1819,-0.0734 -0.47956,-0.0734 -0.66146,0 -0.1819,0.0734 -0.0331,0.13345 0.33073,0.13345 0.3638,0 0.51263,-0.0601 0.33073,-0.13345 z m 9.74432,25.42089 c 0.0127,-0.30823 0.0754,-0.37092 0.15985,-0.15986 0.0764,0.191 0.067,0.4192 -0.0209,0.50712 -0.0879,0.0879 -0.15045,-0.0683 -0.13897,-0.34726 z m 0.2623,-1.32292 c 0.0102,-0.42444 0.12403,-1.00983 0.25289,-1.30087 0.15646,-0.35334 0.182,-0.13356 0.0769,0.66146 -0.1854,1.40222 -0.35614,1.73325 -0.32977,0.63941 z m -10.31646,-0.26458 c 0.0127,-0.30823 0.0754,-0.37092 0.15985,-0.15986 0.0764,0.191 0.067,0.4192 -0.0209,0.50712 -0.0879,0.0879 -0.15045,-0.0684 -0.13897,-0.34726 z m -7.14375,-3.70417 c 0.0127,-0.30823 0.0754,-0.37092 0.15985,-0.15985 0.0764,0.19099 0.067,0.41919 -0.0209,0.50711 -0.0879,0.0879 -0.15045,-0.0684 -0.13897,-0.34726 z m -1.81159,-0.904 c 0,-0.50932 0.0545,-0.71768 0.121,-0.46302 0.0665,0.25467 0.0665,0.67138 0,0.92605 -0.0666,0.25466 -0.121,0.0463 -0.121,-0.46303 z m 0.50956,0 c 0,-0.3638 0.0601,-0.51263 0.13345,-0.33072 0.0734,0.1819 0.0734,0.47955 0,0.66145 -0.0734,0.1819 -0.13345,0.0331 -0.13345,-0.33073 z m 1.5875,-0.26458 c 0,-0.3638 0.06,-0.51263 0.13345,-0.33073 0.0734,0.1819 0.0734,0.47956 0,0.66146 -0.0734,0.1819 -0.13345,0.0331 -0.13345,-0.33073 z m 17.50541,-1.05833 c 0,-0.94589 0.048,-1.33284 0.10671,-0.8599 0.0587,0.47294 0.0587,1.24685 0,1.71979 -0.0587,0.47295 -0.10671,0.086 -0.10671,-0.85989 z m -9.1958,-0.0776 c 0.0994,-0.26094 0.2473,-0.40778 0.32876,-0.32632 0.0815,0.0815 1.7e-4,0.29496 -0.18065,0.47443 -0.26131,0.25936 -0.2917,0.22897 -0.14811,-0.14811 z m -10.71175,-0.34136 c 0.0127,-0.30823 0.0754,-0.37092 0.15985,-0.15986 0.0764,0.191 0.067,0.4192 -0.0209,0.50712 -0.0879,0.0879 -0.15045,-0.0683 -0.13896,-0.34726 z m -11.13339,-1.31018 c 0,-0.3242 0.10681,-0.34902 0.52917,-0.12299 0.29104,0.15576 0.52916,0.33855 0.52916,0.40619 0,0.0676 -0.23812,0.12298 -0.52916,0.12298 -0.29937,0 -0.52917,-0.17639 -0.52917,-0.40618 z m 12.85166,-0.65215 c 0.0973,-0.3638 0.28728,-0.84005 0.42215,-1.05834 0.17042,-0.27582 0.19124,-0.19512 0.0683,0.26459 -0.0973,0.3638 -0.28728,0.84005 -0.42214,1.05833 -0.17043,0.27583 -0.19125,0.19513 -0.0683,-0.26458 z m 16.80256,-1.47726 c 0.0127,-0.30822 0.0754,-0.37092 0.15985,-0.15985 0.0764,0.19099 0.067,0.4192 -0.0209,0.50712 -0.0879,0.0879 -0.15045,-0.0684 -0.13897,-0.34727 z m 23.71622,-0.38533 c -2.2218,-0.37355 -4.40767,-1.65779 -8.2266,-4.83329 -3.16333,-2.63035 -6.14683,-4.70863 -8.62374,-6.00719 -0.35962,-0.18854 -1.90743,-0.74385 -3.43958,-1.23402 -1.53215,-0.49018 -2.34091,-0.82399 -1.79725,-0.74182 0.54367,0.0822 1.22828,0.0211 1.52136,-0.13577 0.36005,-0.1927 0.53287,-0.19636 0.53287,-0.0113 0,0.15064 0.17859,0.27389 0.39688,0.27389 0.21828,0 0.36711,-0.14883 0.33073,-0.33073 -0.12335,-0.6167 -3.63087,-1.28145 -4.71196,-0.89301 -0.84571,0.30386 -2.71626,-0.0105 -2.46656,-0.41454 0.1878,-0.30387 5.4321,-0.13765 6.71549,0.21285 0.36381,0.0993 0.58861,0.10013 0.49956,0.002 -0.089,-0.0984 -0.68435,-0.29159 -1.32291,-0.42931 l -1.16102,-0.2505 1.19062,0.11989 c 1.87956,0.18926 3.33062,0.66442 2.88688,0.94532 -0.28695,0.18165 -0.29313,0.23727 -0.0267,0.24038 0.80963,0.009 6.26765,2.41964 9.03115,3.98802 4.35686,2.47266 9.31851,7.00329 8.89064,8.11831 -0.0844,0.21999 -0.0222,0.28883 0.15947,0.17654 0.16383,-0.10125 0.5061,0.092 0.7606,0.42939 0.44448,0.58925 0.44867,0.53253 0.10625,-1.43661 -0.44393,-2.55283 -1.41965,-4.51703 -3.2498,-6.54204 -2.885,-3.19218 -6.78902,-5.31462 -11.89431,-6.46642 -2.37143,-0.53501 -3.55487,-0.66931 -5.07666,-0.5761 -1.1019,0.0675 -1.74904,0.0288 -1.4552,-0.0871 0.39145,-0.15433 0.23652,-0.21346 -0.59532,-0.22721 -0.61846,-0.0102 -1.12448,0.098 -1.12448,0.24057 0,0.15174 -0.52101,0.20327 -1.25677,0.12431 -0.9,-0.0966 -1.1441,-0.0586 -0.85989,0.13365 0.35277,0.23868 0.35277,0.27314 0,0.31012 -0.21828,0.0229 0.0794,0.13145 0.66146,0.24127 0.86328,0.16288 0.7048,0.19404 -0.8599,0.16906 -1.05503,-0.0168 -1.91823,-0.12359 -1.91823,-0.23722 0,-0.19406 0.41339,-0.30844 0.8599,-0.23794 0.10914,0.0172 0.17575,-0.058 0.14803,-0.16711 -0.0277,-0.10914 0.0406,-0.58217 0.15175,-1.05118 0.18704,-0.78904 0.95861,-1.62404 2.17831,-2.35737 0.27416,-0.16483 0.4142,-0.38801 0.31121,-0.49594 -0.103,-0.10794 -0.55862,0.11622 -1.01249,0.49813 -0.45388,0.38191 -0.93515,0.69438 -1.06951,0.69438 -0.13436,0 -0.24428,0.18279 -0.24428,0.40619 0,0.33351 -0.10167,0.35177 -0.56829,0.10204 -0.53557,-0.28663 -0.55892,-0.25729 -0.40554,0.5096 0.0983,0.49132 0.0435,0.88742 -0.13813,0.99969 -0.20428,0.12625 -0.24286,0.0234 -0.12015,-0.32047 0.13659,-0.38272 0.045,-0.34485 -0.37487,0.15504 -0.30558,0.3638 -0.45598,0.48286 -0.33421,0.26458 0.37747,-0.67665 0.26454,-3.85828 -0.15076,-4.24744 -0.31726,-0.29729 -0.35024,-0.18536 -0.22361,0.75879 0.0817,0.60913 0.0533,1.04865 -0.0631,0.97669 -0.28322,-0.17505 -0.53172,0.52204 -0.53172,1.4916 v 0.78844 l -0.7627,-0.83505 c -0.48514,-0.53117 -0.8288,-0.72811 -0.94432,-0.54119 -0.0999,0.16163 -0.29246,0.22538 -0.42793,0.14165 -0.3192,-0.19727 -0.31183,0.0381 0.0237,0.7563 0.242,0.51802 0.23514,0.52696 -0.0662,0.0862 -1.02282,-1.49616 -1.33901,-1.79648 -1.54334,-1.46587 -0.16721,0.27056 -0.28891,0.2686 -0.62471,-0.0101 -0.46615,-0.38687 -0.57659,-0.94032 -0.13292,-0.66612 0.15683,0.0969 0.1331,-0.0662 -0.053,-0.36415 -0.18539,-0.29686 -0.42756,-0.48381 -0.53815,-0.41546 -0.1106,0.0684 -0.53325,-0.45733 -0.93923,-1.16818 -0.40599,-0.71085 -0.85722,-1.34003 -1.00274,-1.39816 -0.14552,-0.0581 -0.22527,-0.22364 -0.17722,-0.36779 0.20764,-0.62292 0.75049,-0.59522 1.46906,0.075 l 0.76802,0.7163 -0.16642,-0.66146 c -0.0915,-0.3638 -0.16805,-0.81029 -0.17003,-0.99219 -0.002,-0.1819 -0.13542,-0.33073 -0.29651,-0.33073 -0.16655,0 -0.2187,0.19334 -0.1209,0.44819 0.15908,0.41457 0.1364,0.41599 -0.30242,0.0188 -0.46409,-0.41999 -0.58008,-0.46704 -1.15148,-0.46704 -0.15411,0 -0.20542,-0.121 -0.11401,-0.2689 0.0914,-0.14789 0.27566,-0.20124 0.40946,-0.11855 0.13454,0.0832 0.1654,-0.0526 0.069,-0.30367 -0.1182,-0.30803 -0.0747,-0.3925 0.13532,-0.26271 0.17025,0.10522 0.30955,0.0525 0.30955,-0.11719 0,-0.16968 -0.16874,-0.24376 -0.37498,-0.16462 -0.39762,0.15259 -0.78638,-0.50027 -0.5376,-0.9028 0.0811,-0.13124 0.0163,-0.44792 -0.14407,-0.70373 -0.24683,-0.3938 -0.26762,-0.36369 -0.13557,0.19634 l 0.15596,0.66146 -0.35551,-0.60361 c -0.19554,-0.33199 -0.42672,-0.53241 -0.51375,-0.44538 -0.087,0.087 -0.15138,0.001 -0.14301,-0.19014 0.038,-0.86844 -0.0901,-1.29205 -0.34332,-1.13557 -0.17901,0.11063 -0.21777,-0.092 -0.1109,-0.57969 0.11077,-0.50548 0.0831,-0.63473 -0.085,-0.39668 -0.19421,0.27509 -0.28116,0.23118 -0.39361,-0.1988 -0.0794,-0.30355 -0.0364,-0.48518 0.0956,-0.40363 0.13195,0.0815 0.23808,-0.12665 0.23586,-0.46266 -0.003,-0.4915 -0.0542,-0.53334 -0.26054,-0.21405 -0.14715,0.2277 -0.2582,0.26512 -0.26053,0.0878 -0.007,-0.56709 0.31306,-1.14489 0.55284,-0.9967 0.13027,0.0805 0.23686,-0.0463 0.23686,-0.28171 0,-0.23546 -0.11906,-0.35452 -0.26458,-0.26459 -0.14552,0.0899 -0.26621,-0.0519 -0.2682,-0.31511 -0.002,-0.26325 -0.064,-0.77629 -0.13772,-1.1401 -0.0952,-0.46953 -0.0733,-0.52524 0.0755,-0.19201 0.17757,0.39772 0.25768,0.34202 0.52442,-0.36465 0.17316,-0.45875 0.24107,-0.76033 0.15092,-0.67017 -0.0901,0.0901 -0.33277,0.0238 -0.53915,-0.14751 -0.28955,-0.24031 -0.4227,-0.23462 -0.58309,0.0249 -0.11432,0.18498 -0.29349,0.29638 -0.39815,0.24757 -0.10466,-0.0488 -0.35502,0.20891 -0.55636,0.57272 -0.20133,0.3638 -0.37028,0.49657 -0.37543,0.29504 -0.005,-0.2087 -0.25209,-0.0579 -0.57327,0.35047 -2.2976,2.92092 1.05208,10.89749 6.82733,16.25788 1.77928,1.65147 2.46711,2.13508 2.88805,2.03058 0.81998,-0.20356 1.64175,0.48751 1.28065,1.07697 -0.39039,0.63729 -0.70817,0.69839 -1.31471,0.25281 -0.49797,-0.36583 -0.49867,-0.37904 -0.0178,-0.3343 0.27538,0.0256 0.55322,-0.10232 0.61742,-0.28432 0.0734,-0.20796 -0.0342,-0.27298 -0.28958,-0.17499 -0.22347,0.0858 -0.56084,0.057 -0.74971,-0.0638 -0.4046,-0.25892 -2.59999,-0.31811 -2.44411,-0.0659 0.19778,0.32002 -1.85903,0.48513 -2.92638,0.23491 -0.58208,-0.13646 -1.59411,-0.2353 -2.24896,-0.21964 -0.99025,0.0237 -0.88591,0.0639 0.61993,0.23879 0.99581,0.11568 1.84894,0.24886 1.89586,0.29595 0.0469,0.0471 -1.89893,0.097 -4.3241,0.11095 -3.8057,0.0219 -4.62193,0.10288 -5.96179,0.59175 -0.85382,0.31153 -1.67589,0.49009 -1.82682,0.39681 -0.15093,-0.0933 -0.19752,-0.0452 -0.10352,0.10692 0.20887,0.33796 -1.05781,1.2148 -1.42609,0.9872 -0.14501,-0.0896 -0.23095,-0.0107 -0.19096,0.17541 0.04,0.1861 -0.10589,0.34378 -0.32417,0.3504 -0.21828,0.007 -0.39688,0.17045 -0.39688,0.36408 0,0.19363 -0.21667,0.51049 -0.48148,0.70413 -0.45236,0.33077 -0.45636,0.42606 -0.0662,1.57541 0.77183,2.27338 0.37589,3.22098 -1.07049,2.56197 -1.23677,-0.56352 -1.80312,-2.91468 -0.99805,-4.14338 0.30085,-0.45915 0.37434,-0.92925 0.24938,-1.59532 -0.28879,-1.53941 0.28445,-3.61079 1.34079,-4.84488 0.51422,-0.60076 1.06512,-1.09228 1.22422,-1.09228 0.15911,0 0.47725,-0.15805 0.70699,-0.35123 0.40466,-0.34025 2.28644,-0.97169 2.8958,-0.97169 0.78895,0 0.1431,0.44278 -1.23764,0.84848 -1.44892,0.42574 -2.98189,1.3414 -2.92384,1.74643 0.0677,0.47213 -0.0644,0.68105 -0.24798,0.39221 -0.14579,-0.22939 -0.30022,-0.16528 -0.54465,0.22612 -0.18765,0.30047 -0.21332,0.46729 -0.0571,0.37071 0.15627,-0.0966 0.28412,-0.0288 0.28412,0.15073 0,0.18292 0.31974,0.0455 0.7276,-0.31261 0.52455,-0.46061 0.46938,-0.34427 -0.1977,0.4169 -1.40571,1.60399 -1.45571,1.64522 -0.95961,0.79124 l 0.46112,-0.79375 -0.54263,0.62185 c -0.52059,0.59661 -0.69949,2.54452 -0.20578,2.24062 0.11497,-0.0708 0.12799,0.20872 0.0289,0.62109 -0.10451,0.43505 -0.0812,0.65722 0.0555,0.52929 0.12961,-0.12127 0.25054,-0.32963 0.26873,-0.46302 0.0182,-0.1334 0.048,-0.36863 0.0661,-0.52273 0.0182,-0.15411 0.1819,-0.19456 0.36381,-0.0899 0.1819,0.10468 0.23875,0.0892 0.12633,-0.0344 -0.11242,-0.12362 0.29932,-0.73802 0.91498,-1.36533 0.61566,-0.62732 0.98565,-1.14057 0.8222,-1.14057 -0.16345,0 -0.75804,0.52356 -1.32131,1.16346 -0.75345,0.85597 -1.02412,1.03412 -1.02412,0.67406 0,-0.26917 0.0522,-0.43717 0.11607,-0.37333 0.0638,0.0638 0.62181,-0.35009 1.23992,-0.91985 1.14454,-1.055 2.99641,-2.14148 3.6133,-2.11991 0.1877,0.007 -0.0159,0.17549 -0.45248,0.37539 -1.01915,0.46666 -0.50415,0.50779 0.82663,0.066 1.07714,-0.35757 6.89378,-0.41947 7.9485,-0.0846 0.31604,0.10035 0.64937,0.0585 0.74322,-0.0934 0.0981,-0.15874 -0.0885,-0.28419 -0.44075,-0.29623 -0.33601,-0.0115 -0.47053,-0.0781 -0.29892,-0.1481 0.1716,-0.07 0.93599,0.0581 1.69864,0.28457 0.76265,0.22648 1.43684,0.36158 1.49821,0.30021 0.0614,-0.0614 0.63644,0.11339 1.27792,0.38837 1.5599,0.66865 1.48539,0.42476 -0.11853,-0.38801 -0.78455,-0.39756 -1.53149,-0.59641 -1.91823,-0.51067 -0.51839,0.11493 -0.56132,0.0851 -0.23648,-0.16445 0.32171,-0.24712 0.27785,-0.27116 -0.23157,-0.12689 -0.39308,0.11131 -0.56706,0.0786 -0.46454,-0.0872 0.23068,-0.37324 -0.53593,-0.61363 -1.37543,-0.43131 -0.48749,0.10587 -0.59612,0.0756 -0.35033,-0.0978 0.42878,-0.30238 -3.00384,-1.21508 -4.37584,-1.16351 -0.48136,0.0181 -0.87521,-0.0847 -0.87521,-0.22853 0,-0.88437 7.12393,1.01435 10.51719,2.8031 1.89338,0.99809 2.13373,0.88032 0.56452,-0.27659 -2.55921,-1.8868 -6.3654,-7.05961 -7.68995,-10.45104 -0.7518,-1.92497 -0.77769,-5.13328 -0.0514,-6.37352 0.77052,-1.31579 1.759,-1.91084 3.33359,-2.00677 0.85938,-0.0524 1.66531,-0.28418 2.09693,-0.60317 1.43499,-1.06057 2.83599,-1.01224 3.34985,0.11555 0.32849,0.72096 0.3187,0.73168 -1.08018,1.18269 -1.31357,0.42351 -1.87908,1.66111 -1.69819,3.71647 0.15729,1.78733 1.46259,5.61012 2.60452,7.6278 1.15521,2.04114 2.93672,4.56432 3.10433,4.3967 0.0753,-0.0753 0.11392,-0.57923 0.0858,-1.11979 -0.0509,-0.97779 -0.0493,-0.97944 0.32711,-0.32138 0.35276,0.61678 0.37019,0.55423 0.25796,-0.92604 -0.0849,-1.11969 -0.0466,-1.43156 0.13001,-1.05833 0.15901,0.33608 0.25715,0.39004 0.26896,0.14786 0.0136,-0.2787 0.11833,-0.2449 0.38926,0.12562 0.34706,0.47462 0.38783,0.43993 0.64016,-0.54475 0.14822,-0.57841 0.34293,-1.58743 0.43269,-2.24228 0.14333,-1.04558 0.12175,-1.12283 -0.17713,-0.63411 -0.18719,0.30608 -0.48917,0.50452 -0.67107,0.44097 -0.1819,-0.0635 -0.33073,0.08 -0.33073,0.319 0,0.239 -0.10878,0.36731 -0.24174,0.28514 -0.135,-0.0834 -0.1864,0.20173 -0.1164,0.64584 0.0692,0.43896 0.006,0.79525 -0.14022,0.79525 -0.15191,0 -0.23051,-0.53785 -0.18365,-1.25677 0.045,-0.69123 -0.005,-1.4949 -0.11135,-1.78594 -0.108,-0.29571 -0.19682,0.48069 -0.20134,1.7598 -0.004,1.25893 -0.13602,2.50909 -0.2924,2.77812 -0.36062,0.62046 -0.36135,0.53528 -0.0299,-3.47959 0.26987,-3.26918 0.68282,-4.94508 1.72763,-7.01146 0.71196,-1.40807 2.59114,-3.31331 3.01166,-3.05341 0.16432,0.10156 0.26281,0.0364 0.22232,-0.14711 -0.0402,-0.18201 0.51934,-0.56023 1.25021,-0.84513 1.1543,-0.44996 1.53944,-0.47996 3.0216,-0.23541 1.32618,0.21881 1.87626,0.45784 2.50845,1.09004 0.44538,0.44538 0.68169,0.80977 0.52514,0.80977 -0.15655,0 -0.49513,-0.23259 -0.7524,-0.51688 -0.74418,-0.8223 -3.02724,-1.21998 -4.76773,-0.83048 -0.83784,0.1875 -1.4239,0.45643 -1.38907,0.63742 0.0332,0.17219 -0.14179,0.31451 -0.38874,0.31628 -0.54827,0.004 -1.76281,1.13436 -2.42727,2.2592 -0.48996,0.82943 -0.48985,0.8304 0.0623,0.53491 0.45909,-0.2457 0.52683,-0.22751 0.39848,0.10697 -0.085,0.22165 -0.37629,0.403 -0.6472,0.403 -0.32789,0 -0.44193,0.13194 -0.34111,0.39465 0.0834,0.21733 -0.0234,0.46172 -0.23762,0.54393 -0.21398,0.0821 -0.59161,0.89758 -0.83917,1.81215 -0.39068,1.44328 -0.40239,1.77979 -0.0887,2.5485 l 0.36139,0.88565 -0.0156,-1.48576 c -0.009,-0.81717 0.0437,-1.42651 0.1161,-1.3541 0.0724,0.0724 0.34134,-0.32316 0.5976,-0.87907 0.25625,-0.55591 0.40396,-0.75962 0.32822,-0.4527 -0.19345,0.78397 0.13095,1.59279 0.44832,1.11779 0.15034,-0.22501 0.17455,-0.0892 0.0668,0.37469 -0.2664,1.14686 0.57572,0.92224 1.17238,-0.3127 0.27644,-0.57217 0.76571,-1.49491 1.08727,-2.05052 0.32155,-0.55562 0.39581,-0.7791 0.16501,-0.49663 -0.2308,0.28248 -0.41964,0.38635 -0.41964,0.23084 0,-0.15552 0.1786,-0.43098 0.39688,-0.61214 0.21828,-0.18115 0.39687,-0.24599 0.39687,-0.14407 0,0.10192 0.50282,-0.24509 1.11738,-0.77112 1.1488,-0.98333 2.84291,-1.59722 4.97148,-1.80149 1.10798,-0.10633 1.24589,-0.0481 1.91297,0.80773 1.30179,1.67016 1.24446,4.01943 -0.0691,2.83069 -0.57424,-0.51967 -3.18054,-0.77934 -3.08678,-0.30753 0.0269,0.13513 -0.11658,0.30578 -0.31873,0.37923 -0.24654,0.0896 -0.29842,0.0217 -0.15756,-0.20624 0.14177,-0.22938 0.10503,-0.27491 -0.11306,-0.14012 -0.17769,0.10981 -0.25723,0.2655 -0.17677,0.34596 0.0805,0.0805 -0.72359,1.05681 -1.78679,2.16966 -1.96374,2.05541 -3.99883,5.30005 -4.31462,6.87895 -0.11946,0.59734 -0.23593,0.7446 -0.39298,0.49688 -0.31031,-0.48951 -0.25113,0.0144 0.11957,1.01801 0.28574,0.77361 0.35171,0.81067 0.82419,0.46302 0.49656,-0.36536 0.49265,-0.37789 -0.11805,-0.37789 -0.61392,0 -0.60606,-0.0267 0.28016,-0.95266 0.93976,-0.98187 3.38509,-2.75947 5.00995,-3.64191 4.1427,-2.24983 11.25046,-2.62559 14.28378,-0.75513 0.94887,0.58512 1.27473,0.98331 1.57078,1.9195 0.50088,1.58389 0.98271,2.58901 1.75825,3.66777 1.31505,1.82918 0.61298,3.72415 -1.52064,4.10438 -1.79556,0.32 -2.90929,-0.28884 -1.89076,-1.03361 0.32824,-0.24002 0.42748,-0.68087 0.39022,-1.73357 -0.0275,-0.77643 -0.0858,-1.44754 -0.12964,-1.49136 -0.24009,-0.2401 -3.14581,-0.61258 -4.77871,-0.61258 -4.15009,0 -9.51315,1.20534 -12.78109,2.87252 -0.61136,0.31189 -1.26512,0.56181 -1.45282,0.55537 -0.1877,-0.006 0.11645,-0.25316 0.67588,-0.54829 0.55944,-0.29513 0.95749,-0.59627 0.88456,-0.6692 -0.0729,-0.0729 -0.72394,0.20513 -1.4467,0.61791 l -1.3141,0.75052 4.53059,0.0187 c 3.28818,0.0136 5.03847,0.14117 6.38267,0.46521 1.01864,0.24556 2.0902,0.50239 2.38125,0.57074 0.99582,0.23383 3.43896,1.32359 5.44871,2.43038 2.0175,1.11105 6.32525,5.03291 6.32525,5.75862 0,0.18803 0.16132,0.47575 0.35849,0.63939 0.41245,0.34231 1.37447,3.53829 1.62234,5.38967 0.18892,1.41113 0.26945,1.37269 -2.05623,0.98168 z m 0.74399,-0.77169 c -0.086,-0.13917 -0.35183,-0.17803 -0.59071,-0.0864 -0.33136,0.12716 -0.39246,0.0575 -0.25769,-0.29365 0.2268,-0.59105 -2.04475,-3.15171 -4.18582,-4.71854 -0.43744,-0.32012 -0.64225,-0.39153 -0.45627,-0.15909 0.28085,0.351 0.26,0.45152 -0.12423,0.59896 -0.25393,0.0974 -0.37578,0.0913 -0.27075,-0.0138 0.10502,-0.10502 0.0206,-0.37921 -0.18765,-0.6093 -0.20823,-0.23009 -0.35732,-0.52446 -0.33131,-0.65415 0.026,-0.1297 -0.41249,-0.5268 -0.97445,-0.88245 -0.56196,-0.35566 -0.93234,-0.50199 -0.82307,-0.32519 0.12844,0.20781 0.0687,0.27425 -0.16888,0.18793 -0.20216,-0.0735 -0.33609,-0.27259 -0.29764,-0.44253 0.0505,-0.22298 -0.0696,-0.23432 -0.43129,-0.0407 -0.35197,0.18836 -0.48092,0.50689 -0.43303,1.06966 0.0788,0.9258 -0.12869,1.00642 -0.76905,0.29882 -0.42525,-0.4699 -0.42564,-0.50002 -0.006,-0.46302 0.24691,0.0218 0.48213,-0.16878 0.52272,-0.42345 0.0868,-0.54442 -0.16136,-0.59423 -0.65903,-0.13229 -0.21528,0.19982 -0.28919,0.2108 -0.18673,0.0277 0.0933,-0.16666 -0.0282,-0.37892 -0.27001,-0.4717 -0.30974,-0.11885 -0.35672,-0.25156 -0.15906,-0.44923 0.19767,-0.19767 0.4843,-0.14703 0.97029,0.17139 0.59133,0.38746 0.68974,0.39501 0.68974,0.0529 0,-0.40651 -0.56574,-0.75336 -1.37679,-0.84411 -0.24791,-0.0277 -0.39341,0.0423 -0.32332,0.15575 0.0701,0.11341 -0.12386,0.34068 -0.43099,0.50505 -0.53574,0.28672 -0.53873,0.31327 -0.0736,0.65341 0.26668,0.195 0.48487,0.46878 0.48487,0.6084 0,0.13962 0.99838,1.07196 2.21861,2.07185 3.4153,2.79859 4.36814,3.50446 4.56575,3.38233 0.10005,-0.0618 0.22915,0.0293 0.28689,0.20255 0.129,0.38698 2.44618,1.2273 3.46155,1.25531 0.40987,0.0113 0.67308,-0.093 0.58684,-0.23252 z m -1.97014,-0.64726 c -0.24658,-0.29711 -0.45424,-0.34776 -0.67492,-0.16461 -0.22461,0.18641 -0.50136,0.0702 -0.93706,-0.39362 -0.64367,-0.68515 -1.23334,-0.90263 -0.88776,-0.32742 0.24573,0.40902 0.14307,0.33303 -2.76569,-2.04715 -1.21074,-0.99072 -2.09493,-1.87303 -1.96487,-1.96068 0.13007,-0.0876 0.21636,-0.48607 0.19177,-0.88538 -0.0361,-0.58687 0.0247,-0.66838 0.31762,-0.42531 0.19928,0.16538 0.43408,0.22895 0.52177,0.14125 0.0877,-0.0877 0.51887,0.0264 0.95818,0.2536 0.56865,0.29407 0.70112,0.47337 0.45987,0.62247 -0.2496,0.15426 -0.17891,0.29502 0.26836,0.5344 0.54289,0.29054 0.5601,0.35135 0.16248,0.57387 -0.62879,0.35188 -0.2678,0.81701 0.36941,0.47598 0.42892,-0.22955 0.82083,0.0211 2.56363,1.63963 l 2.0573,1.91061 -1.97776,-2.03722 c -1.08776,-1.12047 -1.85823,-2.03722 -1.71214,-2.03722 0.14608,0 0.98363,0.74414 1.86122,1.65365 1.70658,1.76864 2.55088,2.797 2.04971,2.49654 -0.16947,-0.10161 -0.35241,-0.0519 -0.40654,0.11051 -0.0619,0.18573 -0.23053,0.13606 -0.45458,-0.1339 z m -0.90332,-0.54136 c 0,-0.21083 -0.65178,-1.0145 -1.4484,-1.78594 -0.79662,-0.77144 -1.35256,-1.23356 -1.23542,-1.02693 0.15943,0.28121 0.0988,0.33188 -0.24103,0.20147 -0.26968,-0.10349 -0.38839,-0.068 -0.29237,0.0873 0.28384,0.45926 -0.29979,0.28028 -0.76604,-0.23492 -0.42285,-0.46724 -0.42249,-0.50677 0.006,-0.67119 0.41512,-0.15929 0.41837,-0.2116 0.0368,-0.59316 -0.55175,-0.55175 -1.16561,-0.21575 -0.68053,0.37249 0.30686,0.3721 0.27613,0.38068 -0.28748,0.0803 -0.44086,-0.23497 -0.53373,-0.39649 -0.30813,-0.53592 0.17761,-0.10976 0.34253,-0.30533 0.36648,-0.43458 0.0239,-0.12925 0.20507,-0.21635 0.4025,-0.19355 0.23464,0.0271 0.26907,-0.0484 0.0994,-0.21808 -0.14274,-0.14275 -0.54835,-0.29124 -0.90135,-0.32999 -0.51826,-0.0569 -0.64181,0.05 -0.64181,0.55516 0,0.56951 1.13892,1.72173 3.72607,3.76955 0.48901,0.38707 0.50028,0.38383 0.16604,-0.0478 -0.63872,-0.82478 0.10547,-0.48996 1.02914,0.46302 1.04013,1.07314 0.97014,1.03399 0.97014,0.54273 z m -1.4993,-1.33648 c -0.64268,-0.65484 -1.10898,-1.19062 -1.03622,-1.19062 0.0728,0 0.65812,0.53578 1.3008,1.19062 0.64268,0.65485 1.10898,1.19063 1.03622,1.19063 -0.0728,0 -0.65812,-0.53578 -1.3008,-1.19063 z m -1.35667,-0.59531 c -0.32911,-0.41964 -0.31975,-0.429 0.0999,-0.0999 0.44073,0.34565 0.58088,0.56292 0.36312,0.56292 -0.0549,0 -0.2633,-0.20836 -0.46302,-0.46302 z m -45.94288,-3.38757 c -0.18876,-0.33729 -0.30325,-0.36813 -0.45503,-0.12255 -0.11507,0.18618 -0.0484,0.42358 0.15416,0.54875 0.48193,0.29785 0.60695,0.12074 0.30087,-0.4262 z m 39.95047,-0.5934 c -0.43339,-0.33355 -0.52163,-0.54405 -0.31477,-0.75092 0.20687,-0.20686 0.0419,-0.4805 -0.58842,-0.97618 -0.48172,-0.37882 -1.08856,-0.87604 -1.34853,-1.10494 -0.25997,-0.2289 -0.58823,-0.34477 -0.72947,-0.25747 -0.14124,0.0873 -0.32823,-0.0274 -0.41553,-0.25494 -0.0873,-0.2275 -0.38574,-0.41364 -0.66318,-0.41364 -0.58981,0 -1.59891,-0.52296 -1.89333,-0.9812 -0.11299,-0.17586 -0.36884,-0.25704 -0.56855,-0.1804 -0.19972,0.0766 -0.44172,0.0122 -0.53779,-0.14328 -0.0961,-0.15544 -0.30128,-0.28262 -0.45603,-0.28262 -0.67845,0 0.58267,0.93019 2.35799,1.73922 1.05784,0.48208 1.92335,0.93622 1.92335,1.00921 0,0.073 -0.62507,-0.14688 -1.38906,-0.4886 -2.046,-0.91515 -2.97603,-1.07762 -1.12448,-0.19644 0.87313,0.41553 2.0878,1.07164 2.69927,1.45802 0.61148,0.38639 1.17329,0.60298 1.24848,0.48132 0.0752,-0.12165 -0.17261,-0.36212 -0.55065,-0.53437 -0.37805,-0.17224 -0.61615,-0.38438 -0.52913,-0.4714 0.26335,-0.26334 1.52856,0.70773 1.33344,1.02344 -0.18232,0.29501 1.3883,1.78512 1.88401,1.78743 0.14552,7.9e-4 -0.006,-0.20733 -0.33762,-0.46224 z m -40.01134,-0.84768 c -0.1691,-0.31596 -0.36559,-0.51635 -0.43664,-0.4453 -0.0711,0.0711 0.0234,0.3735 0.20985,0.67209 0.44094,0.70606 0.62665,0.52035 0.22679,-0.22679 z m 2.68053,-4.05924 c -0.16208,-0.19529 -0.20642,-0.4525 -0.0986,-0.57158 0.10788,-0.11908 0.0415,-0.12729 -0.14743,-0.0183 -0.26471,0.15276 -0.27246,0.28396 -0.0337,0.57159 0.1704,0.20532 0.36936,0.37332 0.44212,0.37332 0.0728,0 -3.2e-4,-0.15978 -0.16239,-0.35507 z m 28.20406,0.19522 c -0.0879,-0.0879 -0.31612,-0.0973 -0.50711,-0.0209 -0.21107,0.0845 -0.14838,0.14715 0.15985,0.15985 0.27891,0.0115 0.43518,-0.051 0.34726,-0.13897 z m -28.73834,-1.2518 c 0.089,-0.12157 0.26762,-0.22513 0.39687,-0.23014 0.12925,-0.005 0.53266,-0.12639 0.89646,-0.26976 0.36381,-0.14336 1.07818,-0.41836 1.5875,-0.61112 0.65203,-0.24675 0.76947,-0.36147 0.39688,-0.38769 l -0.52917,-0.0372 0.52917,-0.22739 c 0.29104,-0.12507 0.39488,-0.23576 0.23075,-0.24599 -0.16413,-0.0102 -0.72585,0.16 -1.24827,0.37828 -1.11588,0.46624 -1.32078,0.4909 -1.09915,0.13229 0.24877,-0.40251 -0.23159,-0.31586 -0.80932,0.14599 -0.50646,0.40487 -0.50624,0.40863 0.0156,0.27063 0.29104,-0.077 0.70626,-0.0289 0.92271,0.10688 0.31594,0.19816 0.28699,0.2388 -0.14688,0.20612 -0.55317,-0.0417 -2.4956,1.32726 -2.49561,1.75878 -1e-5,0.22479 0.99782,-0.50534 1.35249,-0.98964 z m 30.59043,-0.0711 c -0.0879,-0.0879 -0.31613,-0.0973 -0.50712,-0.0209 -0.21107,0.0845 -0.14837,0.14716 0.15985,0.15985 0.27891,0.0115 0.43519,-0.051 0.34727,-0.13896 z m -26.10317,-0.52464 c -0.64444,-0.20218 -1.22304,-0.31626 -1.28579,-0.25351 -0.13521,0.13522 1.48937,0.6267 2.06061,0.6234 0.21828,-0.001 -0.13039,-0.16772 -0.77482,-0.36989 z m 20.02635,0.23812 c -0.25297,-0.0662 -0.72922,-0.0686 -1.05834,-0.005 -0.32911,0.0633 -0.12214,0.11747 0.45994,0.12041 0.58208,0.003 0.85136,-0.0488 0.5984,-0.11507 z m -16.13798,-0.27168 c -0.39758,-0.0604 -1.11195,-0.0616 -1.5875,-0.003 -0.47555,0.0589 -0.15026,0.10828 0.72286,0.10977 0.87313,0.001 1.26221,-0.0467 0.86464,-0.10707 z m -3.1136,-0.34011 c -0.21828,-0.14107 -0.57547,-0.24994 -0.79375,-0.24194 -0.26168,0.01 -0.21662,0.092 0.1323,0.24194 0.72736,0.31256 1.1451,0.31256 0.66145,0 z m 8.13043,-0.15986 c -0.0879,-0.0879 -0.31612,-0.0973 -0.50712,-0.0209 -0.21107,0.0845 -0.14837,0.14715 0.15985,0.15985 0.27892,0.0115 0.43519,-0.0511 0.34727,-0.13897 z m 1.51364,-0.075 c -0.13825,-0.12916 -0.54901,-0.31272 -0.91282,-0.40791 l -0.66145,-0.17307 0.66145,0.39854 c 0.73719,0.44416 1.31696,0.56004 0.91282,0.18244 z m -8.78417,-0.20496 c -0.1819,-0.0734 -0.47956,-0.0734 -0.66146,0 -0.1819,0.0734 -0.0331,0.13345 0.33073,0.13345 0.3638,0 0.51263,-0.0601 0.33073,-0.13345 z m 7.05556,-0.25452 c 0.17961,-0.16199 -0.0664,-0.30971 -0.83839,-0.50347 -0.46549,-0.11683 -0.72707,-0.077 -0.72707,0.11078 0,0.1613 0.20836,0.29509 0.46302,0.29732 0.39914,0.003 0.40827,0.0424 0.0662,0.28191 -0.30291,0.21208 -0.24026,0.23466 0.26458,0.0954 0.36381,-0.10037 0.71107,-0.22724 0.77171,-0.28192 z m -8.51628,0.005 c -0.0879,-0.0879 -0.31612,-0.0973 -0.50712,-0.0209 -0.21107,0.0845 -0.14837,0.14716 0.15985,0.15985 0.27892,0.0115 0.43519,-0.051 0.34727,-0.13896 z m 41.52249,-0.12129 c 0.80462,-0.30591 1.13898,-0.68941 1.13898,-1.30636 0,-0.35278 -0.0313,-0.35278 -0.28193,0 -0.21817,0.30712 -0.24705,0.23639 -0.12772,-0.31273 0.12078,-0.55575 0.0394,-0.74606 -0.37547,-0.87773 -0.29133,-0.0925 -0.54537,-0.30892 -0.56452,-0.48101 -0.0192,-0.1721 -0.12255,0.10381 -0.22975,0.61314 l -0.19493,0.92604 -0.0348,-0.83159 c -0.0319,-0.76122 -0.67508,-1.39448 -1.04284,-1.02672 -0.0762,0.0762 -0.0285,0.13852 0.10593,0.13852 0.13444,0 0.22457,0.56554 0.20029,1.25677 l -0.0442,1.25677 0.18486,-1.19063 0.18485,-1.19062 0.12198,1.23152 c 0.0671,0.67733 0.0327,1.17632 -0.0765,1.10886 -0.10914,-0.0675 -0.19843,0.003 -0.19843,0.15755 0,0.1541 -0.13395,0.25043 -0.29766,0.21405 -0.16371,-0.0364 -0.35223,0.0827 -0.41892,0.26458 -0.1513,0.41263 0.92398,0.43997 1.95074,0.0496 z m -38.9998,-0.16969 c -0.32542,-0.0628 -0.92073,-0.0644 -1.32292,-0.004 -0.40218,0.0608 -0.13593,0.1122 0.59168,0.11418 0.7276,0.002 1.05666,-0.0478 0.73124,-0.11057 z m -2.52269,-0.23819 c -0.0879,-0.0879 -0.31612,-0.0973 -0.50712,-0.0209 -0.21107,0.0845 -0.14837,0.14716 0.15985,0.15986 0.27892,0.0115 0.43519,-0.0511 0.34727,-0.13897 z m 14.15668,-2.17661 c -0.107,-0.27881 -0.0482,-0.33202 0.19839,-0.1796 0.23491,0.14518 0.28732,0.11445 0.15898,-0.0932 -0.1053,-0.17038 -0.29319,-0.24691 -0.41753,-0.17007 -0.12433,0.0768 -0.47329,-0.20748 -0.77546,-0.63184 -0.76307,-1.07163 -0.6724,-1.3923 0.12026,-0.42528 0.35784,0.43656 0.64726,0.67468 0.64314,0.52916 -0.0131,-0.46114 -1.02241,-1.50239 -1.29379,-1.33467 -0.14319,0.0885 -0.45787,-0.14054 -0.69928,-0.50898 -0.24141,-0.36844 -0.56275,-0.66989 -0.71409,-0.66989 -0.15133,0 -0.0805,0.21508 0.15739,0.47796 0.23791,0.26288 0.38165,0.74231 0.31943,1.0654 -0.0622,0.32309 -0.009,0.52279 0.11934,0.44377 0.12785,-0.079 0.30845,-0.0207 0.40132,0.12954 0.0929,0.15027 0.27969,0.20471 0.41516,0.12099 0.13547,-0.0837 0.2463,0.0334 0.2463,0.26027 0,0.22687 0.12609,0.41249 0.2802,0.41249 0.15411,0 0.19524,0.13746 0.0914,0.30546 -0.12561,0.20324 -0.0715,0.23299 0.16164,0.0889 0.24662,-0.15242 0.30539,-0.0992 0.1984,0.1796 -0.0873,0.22754 -0.005,0.39619 0.19439,0.39619 0.19896,0 0.28171,-0.16865 0.1944,-0.39619 z m -1.94794,-1.83072 c -0.32911,-0.41965 -0.31975,-0.42901 0.0999,-0.0999 0.25466,0.19972 0.46302,0.40808 0.46302,0.46302 0,0.21776 -0.21727,0.0776 -0.56292,-0.36312 z m 9.3992,1.83003 c 0.075,-0.12127 -0.0318,-0.22049 -0.23732,-0.22049 -0.20548,0 -0.31228,0.0992 -0.23733,0.22049 0.0749,0.12127 0.18174,0.22049 0.23733,0.22049 0.0556,0 0.16238,-0.0992 0.23732,-0.22049 z m 2.01163,-1.24831 c 0,-0.0728 -0.35718,0.0524 -0.79375,0.27817 -0.43656,0.22576 -0.79375,0.47 -0.79375,0.54276 0,0.0728 0.35719,-0.0524 0.79375,-0.27817 0.43657,-0.22576 0.79375,-0.47 0.79375,-0.54276 z m 2.09462,0.59497 c -0.0606,-0.044 -0.46743,-0.28924 -0.90399,-0.54487 l -0.79375,-0.46479 0.62462,0.54487 c 0.34355,0.29968 0.75035,0.54487 0.904,0.54487 0.15365,0 0.22976,-0.036 0.16912,-0.0801 z m 0.8158,-0.28849 c 0,-0.0572 -0.18478,-0.17489 -0.41062,-0.26155 -0.23545,-0.0904 -0.34166,-0.046 -0.24896,0.10398 0.15538,0.25141 0.65958,0.37186 0.65958,0.15757 z m 1.49105,-2.6254 c 2.14546,-0.54017 3.30936,-0.67325 5.82083,-0.66552 1.72654,0.005 3.37729,-0.0109 3.66833,-0.0361 l 0.52917,-0.0458 -0.52917,-0.20665 c -0.36292,-0.14173 -0.14232,-0.19823 0.70215,-0.17984 0.67723,0.0147 1.09394,0.11428 0.92604,0.22119 -0.19683,0.12533 -0.14079,0.19583 0.15775,0.19844 0.28249,0.002 0.46302,0.20674 0.46302,0.52391 0,0.28592 0.24939,0.65333 0.5542,0.81646 0.50458,0.27004 0.53732,0.24126 0.36558,-0.32142 -0.10374,-0.33992 -0.37159,-0.82638 -0.59521,-1.08105 -0.22362,-0.25466 -0.32586,-0.46302 -0.22719,-0.46302 0.4319,0 -0.72105,-1.29498 -1.36705,-1.53544 -2.00124,-0.74496 -3.35766,-0.91777 -5.9565,-0.7589 -4.35682,0.26634 -7.39698,1.38794 -10.89194,4.01832 -1.09463,0.82384 -1.99023,1.53029 -1.99023,1.5699 0,0.0396 0.41585,0.039 0.9241,-0.001 0.50825,-0.0403 0.99057,0.0342 1.07181,0.16569 0.0812,0.13145 0.94532,-0.1621 1.92017,-0.65234 0.97486,-0.49025 2.97922,-1.19518 4.45414,-1.56653 z m -6.52084,1.80008 c -0.26795,-0.32286 -0.41473,-0.33718 -0.76,-0.0742 -0.23536,0.17929 -0.15283,0.0166 0.18339,-0.36155 0.33622,-0.37814 0.81247,-0.6722 1.05834,-0.65345 0.24586,0.0187 0.4143,-0.1236 0.37432,-0.31632 -0.04,-0.19271 0.0402,-0.28063 0.17812,-0.19537 0.13796,0.0853 0.68177,-0.0992 1.20848,-0.41001 0.52671,-0.31077 1.03194,-0.49074 1.12274,-0.39994 0.0908,0.0908 -0.004,0.16692 -0.20973,0.16915 -0.30863,0.003 -0.30473,0.0493 0.0221,0.26053 0.35277,0.22798 0.35277,0.25738 0,0.26458 -0.31851,0.007 -0.32719,0.0523 -0.044,0.23181 0.28245,0.17905 0.26649,0.25688 -0.0799,0.3898 -0.28754,0.11034 -0.36922,0.0632 -0.24336,-0.14044 0.12766,-0.20656 0.0414,-0.2497 -0.26459,-0.13229 -0.29838,0.1145 -0.39133,0.0728 -0.27116,-0.12165 0.11007,-0.17809 0.0366,-0.24711 -0.18469,-0.17336 -0.20216,0.0674 -0.36756,0.37057 -0.36756,0.67373 0,0.30317 -0.0856,0.63678 -0.19014,0.74136 -0.10458,0.10458 -0.13961,-0.0723 -0.0778,-0.39298 0.0721,-0.37413 -0.002,-0.54449 -0.20674,-0.47534 -0.17546,0.0593 -0.3056,0.35509 -0.28919,0.65737 0.0212,0.39001 -0.0875,0.50459 -0.37413,0.39458 -0.26435,-0.10143 -0.33785,-0.048 -0.21267,0.15453 0.27435,0.4439 0.0205,0.38203 -0.37179,-0.0906 z m 0.1791,-0.51427 c 0,-0.21188 -0.10116,-0.32271 -0.22481,-0.2463 -0.12364,0.0764 -0.1563,0.24977 -0.0726,0.38524 0.21394,0.34618 0.29738,0.3072 0.29738,-0.13894 z m 5.90902,-1.83369 c 0,-0.0562 0.3509,-0.15376 0.77978,-0.21671 0.42888,-0.0629 0.71951,-0.0169 0.64584,0.10227 -0.1311,0.21213 -1.42562,0.31605 -1.42562,0.11444 z m 10.98209,-1.74679 c -0.0927,-0.14998 0.0135,-0.19434 0.24896,-0.10398 0.45837,0.17589 0.54224,0.36553 0.16165,0.36553 -0.13693,0 -0.32171,-0.1177 -0.41061,-0.26155 z m -11.51125,4.48102 c -0.28927,-0.19705 -0.10993,-0.23368 0.66146,-0.13512 0.99894,0.12764 1.0175,0.11791 0.33073,-0.17355 -0.40019,-0.16983 -0.72761,-0.39878 -0.72761,-0.50879 0,-0.11 0.4129,-0.0275 0.91754,0.18337 0.50465,0.21086 1.12973,0.37397 1.38907,0.36249 0.36697,-0.0163 0.38352,-0.0527 0.0746,-0.16445 -0.21828,-0.0789 -0.75406,-0.29821 -1.19062,-0.48724 -0.77183,-0.33419 -2.44684,-0.7971 -1.78594,-0.49356 0.1819,0.0835 0.33073,0.26523 0.33073,0.40374 0,0.1518 -0.20329,0.14305 -0.51178,-0.022 -0.7688,-0.41145 -1.0147,-0.31383 -0.41426,0.16447 0.52205,0.41586 0.52116,0.41963 -0.0661,0.28094 -0.79781,-0.18841 -0.75049,-0.0266 0.13229,0.45228 0.82408,0.44708 1.46476,0.5495 0.8599,0.13747 z m -1.5875,-0.10912 c 0,-0.0676 -0.26789,-0.26572 -0.59531,-0.44019 -0.53981,-0.28763 -0.56146,-0.27617 -0.23219,0.12298 0.33809,0.40985 0.8275,0.59746 0.8275,0.31721 z m -14.21033,-0.8692 c -0.23508,-0.63725 -1.37594,-2.4474 -1.54249,-2.4474 -0.1497,0 0.52926,1.38112 1.13811,2.31511 0.46429,0.71224 0.63946,0.76955 0.40438,0.13229 z m 20.03116,0.19844 c -0.3638,-0.11651 -0.89958,-0.22188 -1.19062,-0.23416 -0.43594,-0.0184 -0.45925,0.0229 -0.1323,0.23416 0.21829,0.14106 0.75407,0.24643 1.19063,0.23416 0.77783,-0.0219 0.78049,-0.0266 0.13229,-0.23416 z m 6.48229,0 c -0.29104,-0.12507 -0.76729,-0.22389 -1.05833,-0.21962 -0.42539,0.006 -0.39945,0.0493 0.13229,0.21962 0.90466,0.28972 1.60026,0.28972 0.92604,0 z m -8.33437,-0.38126 c 0,-0.0642 -0.11906,-0.19026 -0.26459,-0.2802 -0.14552,-0.0899 -0.26458,-0.0374 -0.26458,0.11668 0,0.1541 0.11906,0.28019 0.26458,0.28019 0.14553,0 0.26459,-0.0525 0.26459,-0.11667 z m -1.05834,-0.41249 c -0.21828,-0.14107 -0.51593,-0.25648 -0.66145,-0.25648 -0.14552,0 -0.086,0.11541 0.13229,0.25648 0.21828,0.14106 0.51594,0.25648 0.66146,0.25648 0.14552,0 0.086,-0.11542 -0.1323,-0.25648 z m 3.94671,-0.16911 c 0.2655,-0.22993 -1.73775,-0.0607 -2.09462,0.17691 -0.27734,0.18469 -0.0383,0.21222 0.79375,0.0914 0.65484,-0.0951 1.24023,-0.21583 1.30087,-0.26834 z m 4.71289,0.009 c -0.0879,-0.0879 -0.31613,-0.0973 -0.50712,-0.0209 -0.21107,0.0845 -0.14837,0.14715 0.15985,0.15985 0.27892,0.0115 0.43519,-0.0511 0.34727,-0.13897 z m 2.31874,-0.63086 c 0.096,-0.15536 -0.0227,-0.19082 -0.29237,-0.0873 -0.30804,0.1182 -0.39251,0.0747 -0.26271,-0.13532 0.21593,-0.3494 -0.32522,-0.41146 -1.07505,-0.12329 -0.42603,0.16372 -0.40465,0.20854 0.17679,0.3705 0.97494,0.27156 1.27344,0.26651 1.45334,-0.0246 z m -19.44905,-4.58271 c -0.003,-0.47129 -0.052,-0.50548 -0.26054,-0.18282 -0.33686,0.52126 -0.33686,1.13423 0,0.92604 0.14553,-0.0899 0.26276,-0.42439 0.26054,-0.74322 z m 2.68363,-1.15218 c 0.32927,-0.39915 0.30762,-0.41062 -0.23219,-0.12298 -0.61567,0.32805 -0.76727,0.56317 -0.36312,0.56317 0.1277,0 0.39559,-0.19809 0.59531,-0.44019 z m -0.8275,-0.73775 c 0,0.12485 0.47017,-0.23211 1.04483,-0.79325 0.57466,-0.56114 1.02114,-1.13596 0.99219,-1.27739 -0.029,-0.14143 0.11276,-0.31724 0.31492,-0.39069 0.22196,-0.0807 0.29565,-0.0172 0.18602,0.16018 -0.0998,0.16155 0.1755,0.0888 0.61188,-0.16163 0.77491,-0.44474 0.78043,-0.4623 0.23694,-0.75317 -0.41993,-0.22473 -0.46549,-0.33383 -0.18569,-0.44461 0.21471,-0.085 0.2401,-0.1556 0.0603,-0.1677 -0.17075,-0.0115 -0.86706,0.40398 -1.54735,0.92326 -1.50696,1.15028 -1.86945,1.03688 -0.4709,-0.14732 0.55319,-0.46841 0.76767,-0.73118 0.47663,-0.58395 -0.72048,0.36449 -1.80913,1.55801 -1.88354,2.06498 -0.0334,0.22792 -0.26687,0.64208 -0.51871,0.92035 -0.29114,0.32171 -0.34092,0.50596 -0.13668,0.50596 0.17666,0 0.24642,0.12101 0.15502,0.2689 -0.0914,0.1479 -0.29542,0.18903 -0.45338,0.0914 -0.17687,-0.10931 -0.21058,-0.0535 -0.0877,0.14522 0.14988,0.2425 0.32443,0.20959 0.70234,-0.13242 0.2766,-0.25032 0.5029,-0.35297 0.5029,-0.22813 z m -0.52917,-0.39196 c 0,-0.11009 0.25859,-0.42698 0.57465,-0.7042 0.36656,-0.32151 0.49491,-0.36031 0.35446,-0.10715 -0.13089,0.23592 -0.12251,0.30746 0.0207,0.17639 0.13247,-0.12127 0.24086,-0.34627 0.24086,-0.5 0,-0.15373 0.4356,-0.63206 0.96799,-1.06297 0.73247,-0.59283 1.0775,-0.72218 1.41803,-0.53161 0.41671,0.23321 0.41749,0.26434 0.0104,0.42053 -0.2583,0.0991 -0.37292,0.0608 -0.27793,-0.0929 0.0889,-0.14385 0.054,-0.26155 -0.0775,-0.26155 -0.31636,0 -1.15276,0.93233 -0.986,1.09909 0.18863,0.18864 -1.38258,1.63783 -1.85014,1.70646 -0.21752,0.0319 -0.39549,-0.032 -0.39549,-0.14212 z m -12.06988,0.10095 c 0.0904,-0.23546 0.046,-0.34166 -0.10398,-0.24897 -0.14385,0.0889 -0.26155,0.27369 -0.26155,0.41062 0,0.38058 0.18964,0.29672 0.36553,-0.16165 z m 14.34319,0.0822 c 0.13213,0.10788 0.15068,0.0867 0.0412,-0.047 -0.10946,-0.13371 0.008,-0.4909 0.26045,-0.79375 0.2527,-0.30285 0.0744,-0.20094 -0.3963,0.22647 -0.82837,0.75223 -1.22,1.30977 -0.50069,0.7128 0.19529,-0.16208 0.46318,-0.20642 0.59532,-0.0985 z m -15.25649,-1.5016 c 0.0269,-0.92451 -0.14988,-0.58905 -0.33693,0.63941 -0.11232,0.73761 -0.0885,0.89797 0.0786,0.52917 0.13186,-0.29104 0.24812,-0.8169 0.25834,-1.16858 z m -0.59441,-0.0717 c -0.0845,-0.21106 -0.14716,-0.14837 -0.15985,0.15986 -0.0115,0.27891 0.051,0.43518 0.13896,0.34726 0.0879,-0.0879 0.0973,-0.31612 0.0209,-0.50712 z m 21.8317,-1.26983 c -0.23565,-1.03573 -0.9695,-1.45858 -2.56556,-1.47826 -0.87313,-0.0108 -1.34938,0.035 -1.05834,0.10181 l 0.52917,0.12139 -0.52917,0.20375 c -0.29854,0.11495 0.1627,0.1543 1.05834,0.0903 1.20164,-0.0859 1.44273,-0.0497 0.99189,0.14905 -0.32759,0.14438 -0.80384,0.18779 -1.05833,0.0965 -0.2545,-0.0913 -0.37948,-0.0737 -0.27772,0.0391 0.10176,0.11282 0.57801,0.29819 1.05833,0.41195 l 0.87333,0.20683 -0.87552,0.0271 c -0.48153,0.0149 -0.82019,0.11638 -0.75257,0.22552 0.0676,0.10915 0.69972,0.1893 1.40468,0.17814 0.92456,-0.0147 1.25937,-0.11862 1.20147,-0.3731 z m -20.16161,-0.9851 c -0.28829,-0.44961 -0.29576,-0.44903 -0.15102,0.0117 0.0837,0.26656 0.16167,0.62375 0.17316,0.79375 0.0151,0.22308 0.0571,0.21984 0.15102,-0.0117 0.0716,-0.17642 -0.006,-0.53361 -0.17316,-0.79375 z m -1.6756,-0.67143 c -0.0734,-0.1819 -0.13345,-0.0331 -0.13345,0.33073 0,0.3638 0.06,0.51263 0.13345,0.33073 0.0734,-0.1819 0.0734,-0.47956 0,-0.66146 z m 0.52917,0 c -0.0734,-0.1819 -0.13346,-0.0331 -0.13346,0.33073 0,0.3638 0.0601,0.51263 0.13346,0.33073 0.0734,-0.1819 0.0734,-0.47956 0,-0.66146 z m 19.73466,-0.10908 c -0.1819,-0.0734 -0.47955,-0.0734 -0.66145,0 -0.18191,0.0734 -0.0331,0.13345 0.33072,0.13345 0.36381,0 0.51263,-0.06 0.33073,-0.13345 z m -16.8185,-1.76964 c 0.11349,-0.11349 -0.11443,-0.16338 -0.50648,-0.11088 -0.92568,0.12397 -1.19902,0.3973 -0.35205,0.35205 0.35871,-0.0192 0.74505,-0.12769 0.85853,-0.24117 z m 36.06694,34.27205 c 0,-0.31977 0.50197,-0.69257 0.68546,-0.50909 0.0666,0.0666 -0.0604,0.27169 -0.28219,0.45577 -0.25146,0.20869 -0.40327,0.22876 -0.40327,0.0533 z m -47.88958,-3.05833 c 0,-0.0549 0.20836,-0.2633 0.46302,-0.46302 0.41964,-0.32911 0.429,-0.31975 0.0999,0.0999 -0.34564,0.44073 -0.56291,0.58088 -0.56291,0.36312 z m 19.65805,-1.91926 c 0.0919,-0.0919 0.0471,-0.39125 -0.0995,-0.66524 -0.19939,-0.37257 -0.18036,-0.48053 0.0755,-0.42823 0.76349,0.15606 1.02455,1.26054 0.29796,1.26054 -0.24253,0 -0.36579,-0.0752 -0.27389,-0.16707 z M 238.9059,166.5 c -0.25532,-0.66535 -0.18,-0.83703 0.13191,-0.30066 0.15443,0.26558 0.22505,0.5386 0.15693,0.60672 -0.0681,0.0681 -0.1981,-0.0696 -0.28884,-0.30606 z m -16.8195,-0.37786 c -0.43413,-0.2683 0.10655,-0.64203 0.58109,-0.40166 0.1819,0.0921 0.11887,-0.006 -0.14007,-0.21768 -0.37163,-0.30406 -0.39444,-0.4145 -0.1083,-0.5243 0.19937,-0.0765 0.5303,-0.0329 0.73538,0.0969 0.3148,0.19928 0.31106,0.23731 -0.024,0.24415 -0.28705,0.006 -0.30827,0.0644 -0.0767,0.21158 0.2338,0.14858 0.19172,0.2837 -0.15597,0.50084 -0.26188,0.16354 -0.62703,0.2041 -0.81144,0.0901 z m 2.49266,-1.60705 c -0.0936,-0.15144 -0.42804,-0.2075 -0.74322,-0.12457 -0.31517,0.0829 -0.0142,-0.1492 0.66873,-0.51585 1.13053,-0.60691 2.06552,-0.67145 2.06552,-0.14257 0,0.39953 -0.86438,0.53552 -1.29031,0.203 -0.37254,-0.29084 -0.38593,-0.27944 -0.10105,0.0859 0.3148,0.40373 0.20804,0.7694 -0.22462,0.7694 -0.11268,0 -0.28145,-0.1239 -0.37505,-0.27534 z m 7.54728,-1.57674 c 0,-0.14552 0.12609,-0.26458 0.2802,-0.26458 0.15411,0 0.20661,0.11906 0.11668,0.26458 -0.0899,0.14552 -0.21603,0.26458 -0.2802,0.26458 -0.0642,0 -0.11668,-0.11906 -0.11668,-0.26458 z m 21.16667,-1.85208 c -0.23847,-0.15411 -0.2711,-0.2581 -0.0818,-0.26054 0.17331,-0.002 0.3887,0.11502 0.47863,0.26054 0.20302,0.32849 0.11142,0.32849 -0.39687,0 z m -24.60625,-0.2802 c 0,-0.15411 0.11906,-0.20661 0.26458,-0.11668 0.14552,0.0899 0.26458,0.21603 0.26458,0.2802 0,0.0642 -0.11906,0.11668 -0.26458,0.11668 -0.14552,0 -0.26458,-0.12609 -0.26458,-0.2802 z m -13.40453,-3.49425 c 1.15849,-1.10296 4.06817,-2.1701 5.3804,-1.97329 0.69757,0.10463 0.68556,0.11741 -0.17796,0.18939 l -0.92604,0.0772 0.92604,0.19549 c 0.70084,0.14794 0.57215,0.17087 -0.52916,0.0943 -1.1514,-0.0801 -1.75903,0.0405 -2.91042,0.57741 -0.80036,0.37324 -1.75989,0.93901 -2.13228,1.25725 -0.37238,0.31824 -0.20615,0.13028 0.36942,-0.4177 z m 32.93409,0.68329 c 0.19099,-0.0764 0.41919,-0.067 0.50711,0.0209 0.0879,0.0879 -0.0684,0.15045 -0.34726,0.13896 -0.30823,-0.0127 -0.37092,-0.0754 -0.15985,-0.15985 z m -1.5875,-0.79375 c 0.19099,-0.0764 0.41919,-0.067 0.50711,0.0209 0.0879,0.0879 -0.0684,0.15045 -0.34726,0.13896 -0.30823,-0.0127 -0.37092,-0.0754 -0.15985,-0.15985 z m -30.8468,-1.03071 c 0.2512,-0.26227 0.51367,-0.41989 0.58328,-0.35028 0.0696,0.0696 -0.13592,0.28418 -0.45672,0.47684 -0.5573,0.33467 -0.56293,0.32903 -0.12656,-0.12656 z m -1.00092,-0.0871 c 0.20289,-0.32828 1.73429,-1.17139 1.87397,-1.0317 0.0495,0.0495 -0.39261,0.36771 -0.98244,0.70717 -0.58983,0.33946 -0.99102,0.4855 -0.89153,0.32453 z m 8.42059,0.0569 c 0.25743,-0.0671 0.61462,-0.0627 0.79375,0.01 0.17913,0.0725 -0.0315,0.12736 -0.46806,0.12197 -0.43656,-0.005 -0.58312,-0.0647 -0.32569,-0.13178 z m 10.14975,-0.41196 c -0.22212,-0.82883 -0.20602,-0.99218 0.0978,-0.99218 0.14552,0 0.26458,0.17859 0.26458,0.39687 0,0.21828 0.11906,0.39688 0.26458,0.39688 0.14552,0 0.26459,0.17859 0.26459,0.39687 0,0.62284 -0.71407,0.46391 -0.89157,-0.19844 z m -8.68304,0.14999 c 0.19099,-0.0764 0.4192,-0.067 0.50712,0.0209 0.0879,0.0879 -0.0683,0.15046 -0.34727,0.13897 -0.30822,-0.0127 -0.37092,-0.0754 -0.15985,-0.15986 z m -6.4938,-1.32553 c 0.25744,-0.0671 0.61462,-0.0627 0.79375,0.01 0.17914,0.0725 -0.0315,0.12736 -0.46805,0.12197 -0.43656,-0.005 -0.58313,-0.0647 -0.3257,-0.13178 z m 11.03602,-2.60116 c -0.18408,-0.2218 -0.28345,-0.45451 -0.22082,-0.51714 0.0626,-0.0626 0.25919,0.11885 0.43682,0.40327 0.38412,0.61509 0.25602,0.68262 -0.216,0.11387 z m -0.39978,-2.52044 c -0.0974,-0.15757 -0.10981,-0.35376 -0.0276,-0.43598 0.0822,-0.0822 0.0185,-0.40171 -0.14164,-0.71 -0.16011,-0.30829 -0.19664,-0.47226 -0.0812,-0.36438 0.11546,0.10788 0.35911,0.0723 0.54145,-0.079 0.46253,-0.38387 0.78319,0.18913 0.37863,0.6766 -0.17058,0.20553 -0.23842,0.48974 -0.15076,0.63158 0.0877,0.14184 0.0466,0.3276 -0.0912,0.41279 -0.13784,0.0852 -0.3303,0.026 -0.42768,-0.13162 z m 0.66967,-1.30963 c 0,-0.14552 -0.0525,-0.26458 -0.11668,-0.26458 -0.0642,0 -0.19026,0.11906 -0.2802,0.26458 -0.0899,0.14552 -0.0374,0.26459 0.11668,0.26459 0.15411,0 0.2802,-0.11907 0.2802,-0.26459 z m 8.22297,1.16858 c 0.0127,-0.30822 0.0754,-0.37092 0.15985,-0.15985 0.0764,0.19099 0.067,0.4192 -0.0209,0.50712 -0.0879,0.0879 -0.15045,-0.0684 -0.13896,-0.34727 z m -0.52917,-3.70417 c 0.0127,-0.30822 0.0754,-0.37092 0.15985,-0.15985 0.0764,0.191 0.067,0.4192 -0.0209,0.50712 -0.0879,0.0879 -0.15046,-0.0684 -0.13897,-0.34727 z m 2.16401,-1.52135 c -0.20611,-0.45238 -0.19979,-0.61736 0.0237,-0.61734 0.16773,0 0.32214,0.27782 0.34312,0.61736 0.0478,0.774 -0.0141,0.77399 -0.36679,-2e-5 z m -14.60172,-2.60817 c -0.0102,-0.39159 0.10047,-0.78557 0.24599,-0.87551 0.31587,-0.19522 0.31587,0.32326 0,1.05833 -0.20304,0.4725 -0.22938,0.45293 -0.24599,-0.18282 z m 1.3461,0.0505 c 0,-0.3638 0.06,-0.51263 0.13345,-0.33073 0.0734,0.1819 0.0734,0.47956 0,0.66146 -0.0734,0.1819 -0.13345,0.0331 -0.13345,-0.33073 z m 0.24545,-2.11667 c -0.008,-0.21828 0.10088,-0.57547 0.24194,-0.79375 0.22798,-0.35277 0.25783,-0.35277 0.26858,0 0.009,0.31006 0.0718,0.29438 0.28489,-0.0717 0.27178,-0.46682 0.76945,-0.40024 0.76945,0.10294 0,0.14552 -0.11175,0.19552 -0.24832,0.11112 -0.13658,-0.0844 -0.37109,0.0574 -0.52113,0.31511 -0.21583,0.37073 -0.27836,0.38571 -0.29944,0.0717 -0.0181,-0.26998 -0.0993,-0.22768 -0.25403,0.13229 -0.14993,0.34892 -0.23234,0.39398 -0.24194,0.13229 z"
       id="path34160" />
  </g>
</svg>
