<?xml version="1.0" encoding="UTF-8" standalone="no"?>
<!-- Created with Inkscape (http://www.inkscape.org/) -->

<svg
   width="46.698429mm"
   height="42.289856mm"
   viewBox="0 0 46.698436 42.289854"
   version="1.1"
   id="svg5"
   inkscape:version="1.1 (c4e8f9ed74, 2021-05-24)"
   sodipodi:docname="whitlavia.svg"
   xmlns:inkscape="http://www.inkscape.org/namespaces/inkscape"
   xmlns:sodipodi="http://sodipodi.sourceforge.net/DTD/sodipodi-0.dtd"
   xmlns="http://www.w3.org/2000/svg"
   xmlns:svg="http://www.w3.org/2000/svg">
  <sodipodi:namedview
     id="namedview7"
     pagecolor="#ffffff"
     bordercolor="#666666"
     borderopacity="1.0"
     inkscape:pageshadow="2"
     inkscape:pageopacity="0.0"
     inkscape:pagecheckerboard="0"
     inkscape:document-units="mm"
     showgrid="false"
     inkscape:zoom="0.94615212"
     inkscape:cx="-325.00059"
     inkscape:cy="135.81326"
     inkscape:window-width="2506"
     inkscape:window-height="1403"
     inkscape:window-x="1974"
     inkscape:window-y="0"
     inkscape:window-maximized="1"
     inkscape:current-layer="layer1" />
  <defs
     id="defs2" />
  <g
     inkscape:label="Layer 1"
     inkscape:groupmode="layer"
     id="layer1"
     transform="translate(-219.1379,-130.25494)">
    <path
       style="fill:#000000;stroke-width:0.264583"
       d="m 263.49523,172.48005 c -0.008,-0.0364 -0.0563,-0.94121 -0.10736,-2.01074 -0.08,-1.67746 -0.19906,-2.07726 -0.86669,-2.91041 -0.95425,-1.19085 -3.16347,-2.68562 -3.96926,-2.68562 -0.50846,0 -0.59833,0.14037 -0.59833,0.93454 0,1.16351 -0.57057,2.56085 -1.49169,3.65317 -0.38784,0.45994 -0.87143,1.23304 -1.07464,1.71801 -0.32188,0.7682 -0.42425,0.83635 -0.79486,0.52917 -0.37182,-0.3082 -0.37486,-0.36248 -0.0242,-0.43105 0.22067,-0.0431 0.53832,-0.37935 0.70589,-0.74713 0.16757,-0.36778 0.65909,-1.1097 1.09226,-1.64873 0.99978,-1.24409 1.50908,-3.51432 1.04754,-4.66944 -0.17443,-0.43656 -0.35608,-0.67469 -0.40366,-0.52917 -0.0476,0.14552 -0.21753,0.7742 -0.37768,1.39705 -0.18583,0.72273 -0.39871,1.06601 -0.58838,0.94878 -0.19415,-0.11999 -0.23862,-0.031 -0.12825,0.2566 0.1526,0.39767 0.0473,0.48097 -0.53172,0.4207 -0.10346,-0.0108 -0.27368,0.19759 -0.37828,0.46302 -0.15979,0.40552 -0.19814,0.37696 -0.24007,-0.17885 -0.0475,-0.62965 -0.0607,-0.62328 -0.27421,0.13229 -0.17425,0.61656 -0.19719,0.49844 -0.10278,-0.52917 0.0845,-0.92016 0.0428,-1.20209 -0.1372,-0.92604 -0.14231,0.21828 -0.26894,1.46844 -0.28139,2.77812 -0.0252,2.65142 -0.46398,2.44724 -0.49603,-0.23083 -0.0159,-1.3292 -0.0743,-1.50754 -0.40388,-1.23399 -0.41499,0.34441 -1.04383,0.13091 -0.79591,-0.27022 0.0827,-0.1338 -0.0642,-0.17538 -0.32642,-0.0924 -0.42588,0.13476 -0.42195,0.1062 0.0368,-0.26761 0.28248,-0.23016 0.41991,-0.41848 0.30541,-0.41848 -0.3903,0 -1.74504,0.907 -1.74504,1.1683 0,0.14325 0.14288,0.11758 0.3175,-0.0571 0.17463,-0.17462 0.44252,-0.31371 0.59531,-0.30908 0.1528,0.005 0.0639,0.17063 -0.1975,0.36889 -0.26143,0.19826 -0.69168,0.30389 -0.95613,0.23474 -0.30364,-0.0794 -0.67874,0.12589 -1.01797,0.55715 -0.54106,0.68784 -1.05996,0.95933 -0.69026,0.36114 0.10937,-0.17695 0.26724,-0.7425 0.35084,-1.25677 0.0836,-0.51427 0.28887,-0.93503 0.45617,-0.93503 0.16731,0 0.40341,-0.10838 0.52468,-0.24085 0.1281,-0.13994 0.0819,-0.16111 -0.11024,-0.0505 -0.1819,0.10467 -0.33073,0.0642 -0.33073,-0.0899 0,-0.15411 -0.23252,-0.2802 -0.51672,-0.2802 -0.59331,0 -1.85155,-0.51745 -2.30549,-0.94813 -0.535,-0.50759 -4.53206,-2.50135 -6.08761,-3.03654 -1.99482,-0.68632 -2.38259,-0.65071 -2.85463,0.26212 -0.22052,0.42645 -0.92511,1.15178 -1.56574,1.61185 -0.64063,0.46006 -1.38331,1.24224 -1.65038,1.73818 -0.26708,0.49593 -0.59016,0.90169 -0.71797,0.90169 -0.1278,0 -0.58615,-0.29769 -1.01855,-0.66153 -0.43241,-0.36385 -1.10444,-0.73618 -1.49341,-0.82742 -1.36425,-0.31998 -3.20401,-1.50242 -3.84525,-2.47141 -0.72698,-1.09855 -1.49009,-3.16542 -1.49622,-4.05253 -0.008,-1.08743 -0.30639,-1.26164 -1.45973,-0.85088 -0.57737,0.20563 -1.47349,0.37911 -1.99138,0.38549 -0.51789,0.006 -1.17038,0.17889 -1.44999,0.38335 -0.46408,0.33934 -0.53906,0.29901 -0.86069,-0.46302 -0.84641,-2.00542 -1.35737,-6.07666 -0.80545,-6.41776 0.23071,-0.14259 0.29897,0.44276 0.2345,2.01113 -0.0209,0.50932 0.12808,1.40152 0.33113,1.98266 l 0.36919,1.05662 0.44378,-0.85818 c 0.24408,-0.472 0.50331,-0.85819 0.57607,-0.85819 0.1786,0 -0.69302,1.68339 -0.96258,1.85907 -0.11753,0.0766 -0.11561,0.29798 0.004,0.49196 0.2022,0.32716 0.35088,0.0843 1.82626,-2.98317 0.0648,-0.13463 -0.043,-0.13781 -0.2519,-0.007 -1.37003,0.85502 -1.07382,-0.033 0.52909,-1.58623 0.58757,-0.56935 1.01177,-1.12667 0.94267,-1.23849 -0.0691,-0.11182 0.0138,-0.28946 0.18413,-0.39476 0.19347,-0.11957 0.2389,-0.0768 0.12099,0.11401 -0.10383,0.168 -0.0481,0.30546 0.12381,0.30546 0.23086,0 0.22515,0.10536 -0.0218,0.40293 -0.2833,0.34135 -0.25792,0.37719 0.16604,0.23446 0.32418,-0.10914 0.22087,0.0718 -0.29331,0.51359 -0.43656,0.37514 -0.66567,0.68636 -0.50914,0.69159 0.35016,0.0117 1.42205,-1.09818 1.35302,-1.40098 -0.0276,-0.12094 0.24753,-0.39705 0.61133,-0.61359 0.60408,-0.35956 0.32706,-0.33233 -0.65094,0.064 -0.28457,0.11532 -0.35704,0.004 -0.2751,-0.42115 0.083,-0.43085 0.01,-0.53868 -0.28884,-0.42417 -0.25245,0.0969 -0.33262,0.0443 -0.21724,-0.14235 0.10398,-0.16825 0.0443,-0.24968 -0.13839,-0.18879 -0.17669,0.0589 -0.31954,0.22317 -0.31743,0.36505 0.002,0.14189 -0.22819,0.50493 -0.51175,0.80677 -0.28356,0.30184 -0.45541,0.60894 -0.38189,0.68246 0.0735,0.0735 -0.19244,0.42187 -0.591,0.77412 -0.65465,0.57857 -0.67615,0.58293 -0.22254,0.0451 0.27618,-0.32742 0.4034,-0.59531 0.28272,-0.59531 -0.12068,0 0.0602,-0.29766 0.40199,-0.66146 0.70981,-0.75556 0.44914,-0.89312 -0.37604,-0.19843 -0.54945,0.46255 -0.5495,0.46242 -0.046,-0.1323 0.59794,-0.70622 0.29583,-0.78972 -0.47863,-0.13229 -0.51947,0.44097 -0.52837,0.44097 -0.18688,0 0.27733,-0.35811 0.2832,-0.46302 0.0259,-0.46302 -0.18297,0 -0.0127,-0.2517 0.37841,-0.55933 0.39109,-0.30763 0.646,-0.6244 0.56647,-0.70393 -0.0795,-0.0795 -0.41322,0.0829 -0.74154,0.36089 -0.59258,0.50181 -0.59369,0.50164 -0.15166,-0.0237 0.50577,-0.60107 2.24603,-1.69229 1.95952,-1.22871 -0.10289,0.16647 -0.054,0.30267 0.10875,0.30267 0.1627,0 0.22223,0.11906 0.13229,0.26458 -0.0899,0.14552 -0.28258,0.26458 -0.4281,0.26458 -0.14552,0 -0.191,-0.11906 -0.10107,-0.26458 0.0899,-0.14552 0.0445,-0.26458 -0.10106,-0.26458 -0.4018,0 -0.64268,0.52792 -0.24528,0.53758 0.21361,0.005 0.14952,0.15729 -0.16725,0.39687 -0.28247,0.21366 -0.36474,0.38846 -0.18282,0.38846 0.19693,0 0.2483,0.13383 0.12695,0.33073 -0.1121,0.1819 0.12021,0.11883 0.51625,-0.14015 0.56943,-0.37239 0.83494,-0.40941 1.2692,-0.17701 0.30202,0.16164 0.60743,0.23558 0.6787,0.16432 0.0713,-0.0713 -0.13326,-0.21299 -0.4545,-0.31494 -0.46486,-0.14755 -0.50943,-0.23701 -0.21837,-0.43837 0.25275,-0.17486 0.16141,-0.19663 -0.29577,-0.0705 -0.90453,0.24955 -0.43298,-0.20389 0.6143,-0.59072 0.62328,-0.23022 0.70396,-0.32062 0.31174,-0.34932 l -0.52917,-0.0387 0.52917,-0.24531 c 0.39583,-0.1835 0.29583,-0.20811 -0.39688,-0.0976 -0.69051,0.11011 -0.8251,0.0773 -0.52916,-0.12892 0.70698,-0.4927 0.0169,-0.30148 -1.39786,0.38735 l -1.38027,0.67204 0.78096,-0.65837 c 0.42952,-0.36211 1.20343,-0.78153 1.71979,-0.93205 0.86879,-0.25327 0.87734,-0.26518 0.11454,-0.1597 -0.7137,0.0987 -0.82019,0.036 -0.79375,-0.46759 0.0231,-0.44026 -0.13771,-0.60109 -0.66191,-0.6619 -0.5903,-0.0685 -0.78997,0.10718 -1.35339,1.19062 -0.36351,0.69903 -0.75368,1.56768 -0.86706,1.93034 -0.1928,0.61673 -0.17371,0.63414 0.29505,0.26914 0.48736,-0.37947 0.48729,-0.37394 -0.003,0.20051 -0.65325,0.76565 -1.04961,0.75438 -0.85418,-0.0243 0.37459,-1.49248 1.59213,-3.64852 2.54806,-4.51215 0.57172,-0.51651 0.92303,-1.01108 0.7807,-1.09904 -0.99442,-0.61459 -1.44914,-4.38268 -0.76525,-6.34146 0.9799,-2.80663 2.49127,-4.32231 5.93845,-5.95541 2.27686,-1.07866 2.67091,-1.19358 2.82567,-0.82403 0.31309,0.74761 0.23097,0.94587 -0.17142,0.41386 -0.29597,-0.3913 -0.39051,-0.41909 -0.39707,-0.11671 -0.005,0.22542 -0.27299,0.41203 -0.62061,0.43196 -1.12847,0.0647 -3.70506,1.49213 -4.99193,2.76553 -1.16553,1.15333 -1.40747,1.55917 -1.29963,2.17999 0.0208,0.11995 -0.0693,0.15188 -0.20021,0.071 -0.13469,-0.0832 -0.18005,0.36783 -0.10443,1.03867 0.0828,0.73457 0.0283,1.18581 -0.14329,1.18581 -0.15232,0 -0.32455,-0.1428 -0.38273,-0.31735 -0.065,-0.19506 -0.1743,-0.13879 -0.2836,0.14604 -0.10632,0.27706 -0.0727,0.39839 0.0837,0.30173 0.14385,-0.0889 0.26155,-0.0356 0.26155,0.11855 0,0.15411 -0.11906,0.2802 -0.26458,0.2802 -0.14552,0 -0.26459,0.17486 -0.26459,0.38857 0,0.22787 0.15616,0.32865 0.37757,0.24369 0.27522,-0.10562 0.3388,0.003 0.23455,0.40203 -0.0787,0.3008 -0.0565,0.99482 0.0492,1.54225 0.18667,0.96686 0.19945,0.97641 0.4466,0.33388 l 0.25442,-0.66146 0.61196,0.76072 c 0.33658,0.41839 0.92362,0.79492 1.30453,0.83674 0.72718,0.0798 0.71691,-0.0689 -0.0738,-1.06829 -0.23025,-0.29105 -0.0151,-0.17198 0.47804,0.26458 0.49318,0.43656 0.7992,0.62469 0.68007,0.41806 -0.15894,-0.27566 -0.10465,-0.33273 0.20392,-0.21432 0.32944,0.12642 0.40409,0.007 0.34465,-0.55035 -0.0417,-0.39145 -0.22104,-0.71172 -0.39846,-0.71172 -0.17742,0 -0.49158,-0.23112 -0.69813,-0.5136 -0.41483,-0.56731 -0.51127,-1.32131 -0.13963,-1.09162 0.12976,0.0802 0.11527,-0.3295 -0.0322,-0.91043 -0.14746,-0.58093 -0.37268,-1.05623 -0.5005,-1.05623 -0.12782,0 -0.22403,-0.32742 -0.2138,-0.7276 0.0163,-0.63845 0.0453,-0.66277 0.23621,-0.19844 0.17086,0.41545 0.24222,0.27331 0.33206,-0.66146 l 0.11443,-1.19062 0.0462,1.13278 c 0.0298,0.73008 0.18731,1.18692 0.44309,1.28508 0.22531,0.0865 0.38548,0.4546 0.37051,0.85159 l -0.0264,0.6993 -0.21183,-0.66146 c -0.17452,-0.54493 -0.21577,-0.56823 -0.23416,-0.13229 -0.0123,0.29104 0.0858,0.70003 0.21795,0.90887 0.18281,0.2889 0.30269,0.16235 0.50125,-0.52916 0.14354,-0.49989 0.27238,-0.73029 0.28632,-0.51201 0.0139,0.21829 0.15948,0.87313 0.32344,1.45521 0.2542,0.90246 0.32918,0.9804 0.5091,0.52917 0.11604,-0.29104 0.21753,-0.70776 0.22553,-0.92604 0.0123,-0.33481 -0.0224,-0.3385 -0.22179,-0.0236 -0.17468,0.27596 -0.31127,0.10343 -0.52363,-0.66145 -0.15802,-0.56914 -0.27961,-1.27292 -0.27019,-1.56396 l 0.0171,-0.52917 0.22739,0.52917 c 0.17529,0.40793 0.23591,0.25638 0.26458,-0.66146 0.0205,-0.65484 0.14508,-1.42875 0.27694,-1.71979 0.17109,-0.37763 0.19532,-0.2456 0.0846,0.46103 -0.1866,1.19114 0.0149,1.82993 0.51644,1.63746 0.28395,-0.10896 0.31936,-0.39721 0.15383,-1.25231 -0.28545,-1.47451 -0.28026,-1.71774 0.0265,-1.24306 0.21384,0.3309 0.26235,0.30891 0.29183,-0.13229 0.0533,-0.79716 0.43296,0.85726 0.47061,2.05052 0.0303,0.96025 0.34838,1.28484 0.70059,0.71495 0.0942,-0.15249 0.41762,-0.24178 0.71862,-0.19844 0.30101,0.0433 0.59343,-0.0562 0.64984,-0.22121 0.16248,-0.47537 -0.6662,-1.13417 -1.27834,-1.01629 -0.49282,0.0949 -0.53884,0.015 -0.39775,-0.6904 0.0988,-0.49387 0.0603,-0.73638 -0.10105,-0.63667 -0.15542,0.096 -0.24822,-0.24572 -0.22991,-0.84674 0.0169,-0.55429 0.0851,-0.79944 0.15169,-0.54478 0.0666,0.25466 0.22187,0.46302 0.34516,0.46302 0.12329,0 0.31,0.38695 0.41492,0.8599 0.15297,0.68951 0.2253,0.76258 0.36506,0.36881 0.14306,-0.40307 0.25267,-0.30823 0.61154,0.52916 0.24049,0.56114 0.48858,1.25838 0.55132,1.54942 0.0815,0.37797 0.12284,0.31884 0.14476,-0.20693 0.0169,-0.40486 -0.15411,-1.17877 -0.37999,-1.7198 -0.22587,-0.54102 -0.29297,-0.86462 -0.14911,-0.7191 0.14386,0.14552 0.494,0.80908 0.7781,1.47458 0.38052,0.89138 0.44581,1.33637 0.24795,1.68994 -0.19347,0.3457 -0.18523,0.42842 0.0295,0.29574 0.16392,-0.10131 0.29986,-0.0283 0.30209,0.16214 0.003,0.25141 0.0738,0.23756 0.25854,-0.0505 0.13998,-0.21828 0.19499,-0.58842 0.12227,-0.82254 -0.0727,-0.23411 0.0788,-0.58556 0.33677,-0.78099 0.39981,-0.3029 0.4202,-0.30061 0.13827,0.0156 -0.55602,0.62352 -0.36753,0.90837 0.24629,0.3722 l 0.57702,-0.50403 -0.44473,0.65419 c -0.49581,0.72932 -0.58367,1.1827 -0.18095,0.93381 0.17145,-0.10597 0.16886,0.0866 -0.007,0.55024 -0.14915,0.3923 -0.21165,0.77281 -0.13889,0.84557 0.0728,0.0728 0.25173,-0.18188 0.39772,-0.56586 0.32347,-0.8508 0.64428,-0.931 0.41133,-0.10284 -0.13109,0.46602 -0.10711,0.50912 0.11041,0.19843 0.24699,-0.35277 0.27876,-0.35277 0.28597,0 0.007,0.35278 0.0366,0.35278 0.26458,0 0.34936,-0.54059 0.32717,-1.02599 -0.0242,-0.52916 -0.24949,0.35277 -0.26864,0.35277 -0.17234,0 0.0596,-0.21828 0.23646,-0.39688 0.39305,-0.39688 0.46012,0 1.40597,-1.37288 1.24137,-1.80181 -0.0831,-0.21649 -0.0239,-0.47222 0.13157,-0.56829 0.15544,-0.0961 0.28262,-0.0416 0.28262,0.12114 0,0.16731 0.14368,0.20862 0.33073,0.0951 0.1819,-0.11039 0.0205,0.21001 -0.3587,0.71199 -0.71271,0.94353 -2.11382,3.61941 -1.50525,2.87476 0.18843,-0.23056 0.64025,-0.49457 1.00406,-0.58669 0.3638,-0.0921 1.07817,-0.69415 1.5875,-1.33784 0.50932,-0.64368 1.00184,-1.12512 1.0945,-1.06986 0.0926,0.0553 0.31559,-0.0768 0.49541,-0.29349 0.17983,-0.21668 0.2344,-0.39397 0.12127,-0.39397 -0.11314,0 0.007,-0.23531 0.26754,-0.52292 0.55156,-0.60947 1.12648,-0.42876 0.61381,0.19292 -0.30893,0.37463 -0.27688,0.37993 0.31788,0.0525 0.3638,-0.20027 0.73091,-0.34544 0.8158,-0.3226 0.0849,0.0228 0.15434,-0.13047 0.15434,-0.34067 0,-0.44136 -0.33272,-0.5068 -0.57593,-0.11327 -0.0914,0.14789 -0.27897,0.19919 -0.41681,0.11401 -0.13783,-0.0852 -0.18007,-0.26904 -0.0938,-0.40855 0.0862,-0.13952 -0.35794,0.0973 -0.98702,0.52625 -1.17922,0.80406 -1.60506,0.87398 -1.01851,0.16724 0.18434,-0.22211 0.21583,-0.40327 0.0701,-0.40327 -0.35989,0 -0.89305,0.67105 -0.6925,0.8716 0.0888,0.0888 -0.25548,0.0463 -0.76506,-0.0944 -0.74037,-0.20443 -1.17193,-0.15062 -2.14812,0.26782 -0.67189,0.28801 -1.22161,0.47109 -1.22161,0.40686 0,-0.55372 3.60804,-1.7753 6.29484,-2.13126 1.6449,-0.21793 2.02359,0.10001 2.2988,1.92995 0.0925,0.61508 0.28068,1.18784 0.41817,1.27282 0.66142,0.40878 2.22036,5.05894 1.94049,5.78828 -0.49687,1.29481 1.46052,3.17589 4.87706,4.68694 5.85284,2.58855 7.38169,3.74559 8.14378,6.1632 l 0.46471,1.47424 0.4212,-0.64208 c 0.70194,-1.07005 2.40368,-2.26692 3.22316,-2.26692 0.87751,0 0.87526,-0.0106 0.35763,1.6957 -0.21671,0.71435 -0.39401,1.87521 -0.39401,2.57969 0,1.07671 0.0792,1.28086 0.49685,1.28086 0.64747,0 2.41357,0.73989 2.41357,1.01113 0,0.11566 -0.47518,0.56054 -1.05595,0.98864 -1.12701,0.83074 -2.05505,2.06907 -2.64661,3.53148 -0.3564,0.88106 -0.34399,0.9192 0.55932,1.7198 0.50809,0.45031 1.09575,1.05687 1.30591,1.34791 0.21016,0.29104 -0.0685,0.14222 -0.61928,-0.33073 -1.15513,-0.99191 -1.3863,-1.07487 -0.92158,-0.33073 0.18176,0.29105 0.42793,0.52917 0.54703,0.52917 0.1191,0 0.15405,0.10113 0.0777,0.22473 -0.0764,0.12359 0.20265,0.68914 0.62008,1.25677 0.41744,0.56762 0.77399,1.15111 0.79235,1.29663 0.0184,0.14552 0.14553,0.6813 0.28262,1.19062 0.34403,1.27817 0.21957,3.43542 -0.19834,3.43774 -0.1819,0.001 -0.3373,-0.0279 -0.34533,-0.0643 z m -13.47914,-5.88698 c 0.34177,-0.3638 0.56187,-0.66146 0.48911,-0.66146 -0.0728,0 -0.41192,0.29766 -0.7537,0.66146 -0.34177,0.3638 -0.56187,0.66146 -0.48911,0.66146 0.0728,0 0.41192,-0.29766 0.7537,-0.66146 z m -15.84291,-1.78594 c 0.17341,-0.32742 1.01206,-1.25015 1.86366,-2.05052 1.29565,-1.2177 1.60871,-1.69272 1.91806,-2.91042 0.32754,-1.28931 0.32284,-1.49194 -0.0413,-1.77746 -0.22602,-0.17724 -0.51246,-0.25951 -0.63654,-0.18282 -0.12409,0.0767 -0.22561,-0.0561 -0.22561,-0.29511 0,-0.23899 -0.14883,-0.38172 -0.33073,-0.31718 -0.1819,0.0645 -0.30114,0.37905 -0.26498,0.69888 0.0362,0.31984 -0.0441,0.51361 -0.17841,0.43062 -0.13429,-0.083 -0.29534,-5.3e-4 -0.3579,0.18307 -0.0626,0.18368 -0.0693,0.0661 -0.015,-0.26135 0.0686,-0.41378 -0.0324,-0.59531 -0.33146,-0.59531 -0.26422,0 -0.37424,0.14589 -0.28514,0.37808 0.0798,0.20795 0.21611,0.83303 0.30291,1.38907 l 0.15783,1.01097 -0.39602,-0.79375 -0.39603,-0.79375 0.12292,0.79375 0.12292,0.79375 -0.38644,-0.79375 c -0.38147,-0.78353 -0.38684,-0.78524 -0.41697,-0.13229 -0.0285,0.61649 -0.0475,0.62548 -0.28019,0.13229 -0.21735,-0.46071 -0.23741,-0.43817 -0.155,0.17428 0.0658,0.48916 -0.009,0.66384 -0.24421,0.57342 -0.18637,-0.0715 -0.27562,-0.32854 -0.19832,-0.57116 0.12054,-0.37833 0.0999,-0.38463 -0.14494,-0.0443 -0.24313,0.33799 -0.2861,0.32163 -0.28955,-0.11024 -0.002,-0.27891 -0.0723,-0.43891 -0.15563,-0.35554 -0.0834,0.0834 -0.0286,0.60923 0.1217,1.16858 0.24415,0.90859 0.23283,0.96324 -0.10624,0.51265 -0.36737,-0.4882 -0.38767,-0.48396 -0.6341,0.13229 -0.21065,0.5268 -0.25746,0.54914 -0.27134,0.12952 -0.009,-0.27891 -0.0821,-0.44179 -0.16194,-0.36195 -0.0798,0.0798 -0.0641,0.46819 0.035,0.86299 0.11455,0.45641 0.25111,0.60302 0.37498,0.4026 0.12348,-0.1998 0.30444,-8e-4 0.49418,0.5435 0.36512,1.0474 0.37096,0.95616 -0.0612,0.95616 -0.22065,0 -0.32218,-0.21391 -0.26165,-0.55122 0.0552,-0.30766 0.0235,-0.38738 -0.0717,-0.18043 -0.12908,0.28051 -0.26309,0.21609 -0.55038,-0.26458 -0.20886,-0.34945 -0.32833,-0.45677 -0.26549,-0.23849 0.0628,0.21828 0.1951,0.69453 0.2939,1.05833 l 0.17963,0.66146 -0.35551,-0.60361 c -0.19554,-0.33199 -0.42671,-0.53243 -0.51371,-0.44542 -0.087,0.087 -0.24805,0.0128 -0.35786,-0.16487 -0.12665,-0.20492 -0.0894,-0.25493 0.10181,-0.13675 0.21255,0.13137 0.25706,-0.0712 0.1509,-0.68672 -0.11639,-0.67482 -0.0846,-0.78294 0.14003,-0.47617 0.22079,0.30153 0.25688,0.11083 0.15021,-0.79375 -0.0922,-0.78169 -0.0625,-1.01142 0.0865,-0.66886 0.20737,0.47692 0.23855,0.46066 0.36278,-0.1892 0.0748,-0.39104 0.0356,-0.7449 -0.0869,-0.78636 -0.12256,-0.0414 -0.0528,-0.4028 0.15506,-0.80298 0.20785,-0.40018 0.33517,-0.7276 0.28294,-0.7276 -0.0522,0 -0.28329,-0.0723 -0.51348,-0.1606 -0.32697,-0.12547 -0.42613,0.0337 -0.45334,0.7276 l -0.0348,0.88821 -0.21374,-0.92605 c -0.144,-0.62391 -0.16776,-0.33245 -0.0728,0.89335 0.11735,1.51505 0.0815,1.76396 -0.21445,1.48802 -0.2207,-0.2058 -0.33967,-0.84515 -0.31393,-1.6871 0.0246,-0.80368 -0.0157,-1.03251 -0.0989,-0.56197 l -0.14039,0.79375 -0.29794,-0.85594 c -0.16386,-0.47076 -0.41235,-0.8489 -0.55219,-0.84031 -0.13983,0.009 -0.33983,-0.20156 -0.44442,-0.46699 -0.15746,-0.3996 -0.19407,-0.36883 -0.21282,0.17886 -0.0163,0.47684 -0.0863,0.56097 -0.25075,0.30144 -0.12546,-0.19801 -0.18184,-0.61473 -0.12531,-0.92604 0.0565,-0.31131 0.0275,-0.40372 -0.0644,-0.20536 -0.14121,0.3045 -0.20597,0.3045 -0.41587,0 -0.16671,-0.24186 -0.19521,-0.0883 -0.0865,0.46616 0.14751,0.75239 0.10132,0.82682 -0.51311,0.82682 -0.43832,0 -0.68255,-0.15084 -0.69611,-0.42995 -0.0148,-0.30487 -0.0617,-0.32766 -0.1613,-0.0783 -0.2101,0.52613 0.68389,3.46416 1.33358,4.38266 0.786,1.11121 1.56468,1.75414 1.95746,1.6162 0.1819,-0.0639 0.33073,-7.9e-4 0.33073,0.14013 0,0.14095 0.11287,0.25628 0.25082,0.25628 0.15136,0 0.13922,-0.32013 -0.0306,-0.80726 -0.15477,-0.44398 -0.22719,-0.86147 -0.16092,-0.92774 0.0663,-0.0663 0.26604,0.3653 0.44393,0.95905 0.25229,0.84207 0.50897,1.14612 1.16687,1.3822 0.46389,0.16647 0.9625,0.26683 1.10802,0.22304 0.14552,-0.0438 0.17632,0.009 0.0684,0.11651 -0.25315,0.25315 0.2862,0.90628 0.7484,0.90628 0.19534,0 0.49705,-0.26789 0.67046,-0.59531 z m -5.22602,-2.17745 c -0.0897,-0.23378 -0.0889,-0.4993 0.002,-0.59003 0.0907,-0.0907 0.1668,0.0632 0.16902,0.34213 0.003,0.42428 0.046,0.44229 0.26054,0.11025 0.15411,-0.23847 0.25809,-0.2711 0.26053,-0.0818 0.007,0.51418 -0.51534,0.67968 -0.69196,0.21941 z m -0.97831,-1.43163 c -0.0978,-0.48886 -0.16267,-1.37997 -0.14421,-1.98024 0.0275,-0.89417 0.0745,-0.78061 0.25998,0.62838 0.24691,1.87535 0.16957,2.77853 -0.11577,1.35186 z m 1.16604,0.0813 c 0.0127,-0.30823 0.0754,-0.37092 0.15985,-0.15986 0.0764,0.191 0.067,0.4192 -0.0209,0.50712 -0.0879,0.0879 -0.15045,-0.0684 -0.13896,-0.34726 z m -1.79098,-1.83004 c 0.001,-0.87313 0.0509,-1.19841 0.10976,-0.72287 0.0589,0.47555 0.0577,1.18993 -0.003,1.5875 -0.0604,0.39758 -0.10855,0.008 -0.10706,-0.86463 z m 1.03773,-0.39688 c 0,-0.50932 0.0545,-0.71768 0.121,-0.46302 0.0666,0.25467 0.0666,0.67138 0,0.92605 -0.0665,0.25466 -0.121,0.0463 -0.121,-0.46303 z m -1.60711,-0.52916 c 0,-0.3638 0.0601,-0.51263 0.13345,-0.33073 0.0734,0.1819 0.0734,0.47956 0,0.66146 -0.0734,0.1819 -0.13345,0.0331 -0.13345,-0.33073 z m 33.54,4.60669 c 0.79588,-0.66969 1.1393,-1.38575 0.48333,-1.00777 -0.1819,0.10482 -0.0421,-0.12628 0.3107,-0.51355 0.64259,-0.70539 0.45237,-0.99527 -0.24503,-0.37339 -0.31552,0.28136 -0.31858,0.26161 -0.0205,-0.13229 0.5356,-0.70781 0.0143,-0.55117 -0.88047,0.26458 -0.455,0.4148 -0.63184,0.50011 -0.41135,0.19844 0.35702,-0.48847 0.35138,-0.50143 -0.0733,-0.16846 -0.25306,0.19839 -0.39938,0.45896 -0.32516,0.57905 0.0742,0.12009 -0.0759,0.3411 -0.33364,0.49114 -0.25773,0.15004 -0.34625,0.27642 -0.19673,0.28085 0.14952,0.004 0.56624,-0.18009 0.92604,-0.41003 0.64946,-0.41506 0.65011,-0.41458 0.0902,0.0661 -0.31017,0.26632 -0.78642,0.6297 -1.05833,0.80751 -0.47825,0.31274 -0.47786,0.31775 0.012,0.15348 0.34829,-0.11679 0.44668,-0.0732 0.31511,0.13973 -0.35311,0.57135 0.57679,0.32325 1.40712,-0.37543 z m -4.82695,-1.36555 c 0.23942,-0.58678 0.25871,-0.85989 0.0607,-0.85989 -0.15956,0 -0.35238,0.23812 -0.42849,0.52916 -0.0911,0.34829 -0.37654,0.53966 -0.83512,0.55986 -0.45404,0.02 -0.53433,0.0731 -0.23049,0.15232 0.25644,0.0669 0.39117,0.24312 0.29939,0.39162 -0.0957,0.15487 0.0357,0.23094 0.30813,0.17841 0.26125,-0.0504 0.63288,-0.47853 0.82584,-0.95148 z m -4.81004,-0.0661 c -0.0899,-0.14552 -0.0229,-0.26459 0.14908,-0.26459 0.22012,0 0.20517,-0.12998 -0.0505,-0.43938 -0.33255,-0.40238 -0.31278,-0.40802 0.23479,-0.067 0.32886,0.2048 0.47695,0.41269 0.32909,0.46198 -0.32178,0.10726 -0.0821,0.57358 0.29484,0.57358 0.14553,0 0.1785,-0.13929 0.0733,-0.30955 -0.12457,-0.20155 -0.0524,-0.25625 0.20682,-0.15677 0.69061,0.26502 1.04601,-0.17865 0.44419,-0.55449 -0.30047,-0.18764 -0.46729,-0.21332 -0.37071,-0.0571 0.3049,0.49334 -0.28166,0.30746 -0.78506,-0.2488 -0.26688,-0.29489 -0.67516,-0.47168 -0.91414,-0.39583 -0.27268,0.0865 -0.76834,-0.22697 -1.34467,-0.85052 -0.50205,-0.54317 -0.66531,-0.78176 -0.36281,-0.5302 0.62075,0.51621 1.02783,0.60525 0.75596,0.16535 -0.0993,-0.16062 0.15636,-0.0713 0.56806,0.19844 0.4117,0.26975 0.81331,0.4607 0.89247,0.42432 0.0792,-0.0364 0.14393,0.043 0.14393,0.17639 0,0.13339 0.0893,0.33183 0.19843,0.44097 0.10915,0.10914 0.19844,0.0525 0.19844,-0.12586 0,-0.19627 0.13057,-0.24049 0.33073,-0.112 0.1819,0.11676 0.56886,0.2261 0.8599,0.24297 0.29104,0.0169 0.75705,0.12721 1.03559,0.24517 0.33911,0.14361 0.44825,0.12035 0.33036,-0.0704 -0.11394,-0.18436 0.0254,-0.23219 0.39485,-0.13558 0.41973,0.10977 0.51531,0.0593 0.36094,-0.19042 -0.16226,-0.26255 -0.099,-0.27765 0.27832,-0.0665 0.37159,0.20795 0.57463,0.16853 0.84966,-0.16498 0.19877,-0.24103 0.27464,-0.27101 0.1686,-0.0666 -0.12993,0.25045 -0.089,0.30747 0.12552,0.17488 0.23183,-0.14328 0.23994,-0.29116 0.0298,-0.54432 -0.21187,-0.25528 -0.19772,-0.37928 0.0533,-0.46695 0.2529,-0.0883 0.20416,-0.28305 -0.18739,-0.74878 -0.42104,-0.50079 -0.43226,-0.55424 -0.0549,-0.26153 0.3592,0.27864 0.54853,0.29358 0.78052,0.0616 0.16846,-0.16845 0.19318,-0.30811 0.0549,-0.31033 -0.13824,-0.002 -0.0787,-0.11327 0.13229,-0.24676 0.66281,-0.41931 0.45808,-1.94758 -0.42105,-3.143 -0.73677,-1.00185 -2.58084,-2.70943 -2.119,-1.96216 0.13488,0.21824 0.067,0.27196 -0.20958,0.16584 -0.22501,-0.0863 -0.34407,-0.26221 -0.26458,-0.39082 0.0795,-0.1286 -0.0418,-0.16234 -0.26948,-0.075 -0.22769,0.0874 -0.5613,0.042 -0.74134,-0.10084 -0.359,-0.2848 -2.21031,-0.94959 -2.8409,-1.02014 -0.21829,-0.0244 -0.635,-0.12668 -0.92605,-0.22723 -0.5217,-0.18025 -0.52192,-0.17693 -0.0156,0.23564 0.59192,0.4823 0.46126,0.52453 -0.49637,0.16044 -0.9477,-0.36031 -0.8457,-0.15293 0.26128,0.53122 1.24245,0.76788 0.95474,1.01186 -0.33335,0.28268 -0.98,-0.55477 -0.6023,-0.12373 0.61879,0.70619 0.4538,0.30843 0.44279,0.32239 -0.13405,0.1701 -0.4246,-0.11211 -0.56973,-0.0709 -0.44741,0.127 0.0996,0.16111 0.0252,0.29372 -0.1653,0.29467 -0.19049,0.001 0.0109,0.2383 0.4474,0.52743 0.93044,0.6162 0.50755,0.69306 -0.80225,0.14579 -1.25969,-0.52633 -1.1554,-0.27789 0.16644,0.39646 1.45264,0.74108 1.14772,0.95822 -0.33443,0.23814 -1.08666,-0.52795 -1.15931,-0.62839 -1.06138,-1.46732 0.0705,-0.60386 0.24816,-0.90745 0.53922,-0.92146 0.27446,-0.0132 0.31246,-0.07 0.10334,-0.15434 -0.19541,-0.0789 -0.33073,-0.61776 -0.33073,-1.31716 0,-1.8269 -0.50503,-3.41861 -1.42083,-4.47804 l -0.83436,-0.9652 -1.55318,0.35896 c -1.3945,0.32229 -1.47527,0.37603 -0.79063,0.52609 0.69762,0.15291 0.67243,0.17169 -0.29579,0.22061 l -1.05833,0.0535 1.4552,0.31845 c 0.80037,0.17515 1.69334,0.46852 1.98438,0.65192 0.49182,0.30993 0.48248,0.32036 -0.13229,0.14769 -1.48224,-0.41629 -2.54883,-0.61983 -3.175,-0.60589 -0.3638,0.008 0.0677,0.17331 0.95887,0.36715 1.5523,0.33763 4.04497,1.42158 3.32499,1.44589 -0.19049,0.006 -0.2736,0.12939 -0.18469,0.27325 0.0945,0.15286 -0.0182,0.19254 -0.27116,0.0955 -0.30215,-0.11595 -0.33977,-0.22358 -0.12462,-0.35655 0.57911,-0.35791 -1.88715,-1.0789 -4.06639,-1.18879 l -2.15054,-0.10844 2.20072,0.25244 c 1.2104,0.13883 2.52008,0.43495 2.91042,0.65804 0.46648,0.2666 0.52835,0.35849 0.18053,0.26812 -2.41433,-0.6273 -5.31404,-0.87532 -5.03946,-0.43104 0.0831,0.13451 -0.0587,0.30878 -0.31511,0.38727 -0.25645,0.0785 0.54577,0.0939 1.7827,0.0342 1.23692,-0.0597 2.48708,-0.003 2.77812,0.12522 0.36229,0.15999 0.11197,0.19718 -0.79375,0.11793 l -1.32292,-0.11576 1.39708,0.36094 c 0.7684,0.19852 1.48277,0.45429 1.5875,0.56838 0.10473,0.11409 -0.10723,0.12872 -0.47103,0.0325 -0.36381,-0.0962 -1.19724,-0.23628 -1.85209,-0.31125 -0.99095,-0.11345 -0.88002,-0.0489 0.66146,0.38521 2.18363,0.61487 2.33144,0.63494 2.11667,0.28743 -0.0899,-0.14552 -0.0445,-0.26458 0.10106,-0.26458 0.14552,0 0.33817,0.11906 0.4281,0.26458 0.0899,0.14552 0.008,0.26641 -0.18282,0.26864 -0.25504,0.003 -0.24172,0.0793 0.0505,0.28954 0.32061,0.23062 0.29519,0.25145 -0.13229,0.10839 -1.45546,-0.4871 -3.63105,-0.95289 -3.91405,-0.83798 -0.17561,0.0713 -0.0216,0.1509 0.34218,0.1769 l 0.66145,0.0473 -0.66145,0.2325 c -0.52093,0.1831 -0.44821,0.2026 0.34229,0.0918 0.55207,-0.0774 1.26448,-0.058 1.58316,0.0431 l 0.5794,0.1839 -0.62777,0.23222 c -0.34527,0.12773 -0.99816,0.18704 -1.45086,0.13181 -0.4527,-0.0552 -0.61297,-0.049 -0.35615,0.0138 0.25766,0.063 0.38644,0.2445 0.28732,0.40488 -0.11539,0.18671 -0.0222,0.23021 0.26066,0.12168 0.24215,-0.0929 0.44028,-0.0783 0.44028,0.0325 0,0.11077 0.56198,0.35171 1.24884,0.53542 0.93946,0.25126 1.15248,0.39494 0.85989,0.57999 -0.32534,0.20575 -0.32765,0.24664 -0.0141,0.25003 0.20615,0.002 0.32001,0.0589 0.25303,0.12585 -0.067,0.067 -0.40788,0.047 -0.75754,-0.0445 -0.59539,-0.1557 -0.60305,-0.18017 -0.12073,-0.3857 0.34179,-0.14565 0.20354,-0.1698 -0.41105,-0.0718 -0.69051,0.11011 -0.8251,0.0773 -0.52916,-0.12891 0.47594,-0.33169 0.0234,-0.37526 -0.49383,-0.0476 -0.25619,0.1623 0.0419,0.36303 1.02299,0.6889 0.88048,0.29245 1.26426,0.53419 1.05418,0.66403 -0.23278,0.14386 -0.15785,0.25891 0.25372,0.38954 0.32123,0.10195 0.53575,0.23368 0.4767,0.29273 -0.0591,0.0591 -0.67538,-0.0862 -1.36962,-0.32273 -0.69424,-0.23655 -1.13289,-0.51005 -0.97477,-0.60777 0.15812,-0.0977 -0.15047,-0.17768 -0.68575,-0.17768 h -0.97324 l 0.87559,0.35728 c 0.48157,0.1965 0.817,0.41586 0.7454,0.48746 -0.0716,0.0716 -0.81464,-0.17252 -1.6512,-0.54249 -1.91783,-0.84815 -2.20606,-0.84428 -0.66142,0.009 0.65484,0.36169 0.90782,0.58168 0.56217,0.48886 -0.42526,-0.1142 -0.56991,-0.074 -0.4474,0.12417 0.20786,0.33632 0.10585,0.36098 -0.51219,0.12382 -0.30732,-0.11792 -0.34719,-0.2269 -0.13175,-0.36005 0.2163,-0.13368 0.17916,-0.24075 -0.12385,-0.35702 -0.28754,-0.11034 -0.36922,-0.0632 -0.24336,0.14043 0.12651,0.2047 0.0432,0.2504 -0.25085,0.13757 -0.96852,-0.37166 -0.35306,0.11556 1.08108,0.8558 2.10967,1.08893 1.5209,1.01389 -0.71503,-0.0911 -1.66989,-0.82529 -2.32801,-0.95673 -1.98128,-0.39572 0.0735,0.11887 0.3222,0.14374 0.55275,0.0553 0.35501,-0.13623 0.37254,-0.0737 0.11451,0.40843 -0.34924,0.65257 -0.40284,0.667 -1.0972,0.2954 -0.28147,-0.15064 -0.51177,-0.21323 -0.51177,-0.13909 0,0.34963 1.5136,0.88635 1.86773,0.66229 0.32806,-0.20757 0.32588,-0.2429 -0.0156,-0.25331 -0.31292,-0.01 -0.29892,-0.0691 0.0661,-0.28178 0.31452,-0.18319 0.61152,-0.18319 0.92604,0 0.36721,0.21388 0.3809,0.27365 0.0661,0.28882 -0.21828,0.0105 0.006,0.23358 0.49748,0.49568 0.71831,0.38275 0.80675,0.51017 0.44928,0.64734 -0.2448,0.0939 -0.3784,0.0629 -0.2969,-0.069 0.0815,-0.13194 -0.29894,-0.20345 -0.84615,-0.15901 -0.54689,0.0444 -1.32176,-0.0875 -1.72194,-0.29317 -0.45182,-0.23219 -0.72761,-0.26791 -0.72761,-0.0942 0,0.15383 0.18858,0.35205 0.41906,0.44049 0.28071,0.10772 0.32144,0.22115 0.12336,0.34356 -0.37927,0.23441 0.94577,1.59823 1.54418,1.58938 1.04611,-0.0155 2.51554,-0.5368 4.182,-1.48373 2.23298,-1.26885 3.34781,-1.69092 3.77267,-1.42834 0.21954,0.13568 0.0975,0.26036 -0.36966,0.37761 -0.6407,0.1608 -0.72914,0.68869 -0.11538,0.68869 0.14552,0 0.17941,-0.13782 0.0753,-0.30626 -0.12971,-0.20986 -0.01,-0.25927 0.38162,-0.15697 0.314,0.0821 0.50418,0.0413 0.42263,-0.0906 -0.21293,-0.34453 0.0631,-0.29717 0.95444,0.16376 0.81476,0.42133 1.07326,0.75036 0.38073,0.48461 -0.28613,-0.1098 -0.35334,-0.0322 -0.23628,0.27289 0.20395,0.53147 -0.16019,0.54799 -0.83463,0.0379 -0.61059,-0.46182 -1.01405,-0.52236 -0.76186,-0.11431 0.12635,0.20444 0.0326,0.21508 -0.31511,0.0358 -0.27223,-0.14038 -0.66035,-0.19634 -0.86251,-0.12437 -0.2324,0.0827 -0.29654,0.016 -0.17443,-0.18163 0.12478,-0.20189 -0.15454,-0.16722 -0.78923,0.098 -0.5403,0.22575 -1.05712,0.41408 -1.14849,0.4185 -0.0914,0.004 0.0407,0.12853 0.29339,0.27577 0.31649,0.1844 0.63414,0.17427 1.02059,-0.0326 0.42716,-0.2286 0.63324,-0.22201 0.8634,0.0276 0.22918,0.24858 0.22231,0.28274 -0.0284,0.14119 -0.1819,-0.10269 -0.33073,-0.0902 -0.33073,0.0278 0,0.11798 0.52071,0.49074 1.15714,0.82837 0.63643,0.33762 1.55916,1.04925 2.05052,1.5814 0.49136,0.53215 0.64588,0.76173 0.34338,0.51016 -0.3025,-0.25155 -0.65969,-0.45341 -0.79375,-0.44857 -0.13406,0.005 0.03,0.237 0.36449,0.5159 0.3458,0.28829 0.79373,0.43592 1.03813,0.34214 0.31996,-0.12278 0.38711,-0.0535 0.26264,0.27085 -0.10256,0.26726 0.008,0.53773 0.28479,0.69934 0.57872,0.3374 0.65278,0.33986 0.45203,0.0151 z m -6.2177,-4.7625 c 0.21828,-0.14107 0.51593,-0.25648 0.66145,-0.25648 0.14553,0 0.086,0.11541 -0.13229,0.25648 -0.21828,0.14106 -0.51593,0.25648 -0.66146,0.25648 -0.14552,0 -0.086,-0.11542 0.1323,-0.25648 z m 3.7115,-1.34212 c -1.07223,-0.48637 -1.70493,-1.01723 -1.48022,-1.24195 0.0747,-0.0747 2.74094,1.40497 3.03833,1.6861 0.27555,0.26049 -0.47867,0.0455 -1.55811,-0.44415 z m -6.09275,-1.03913 c -0.21829,-0.14107 -0.27782,-0.25648 -0.1323,-0.25648 0.14553,0 0.44318,0.11541 0.66146,0.25648 0.21828,0.14106 0.27782,0.25648 0.13229,0.25648 -0.14552,0 -0.44317,-0.11542 -0.66145,-0.25648 z m 1.4552,0 c -0.34891,-0.14994 -0.39397,-0.23235 -0.13229,-0.24194 0.21828,-0.008 0.57547,0.10087 0.79375,0.24194 0.48365,0.31256 0.0659,0.31256 -0.66146,0 z m 0,-3.43959 c 0.72737,-0.31255 1.14511,-0.31255 0.66146,0 -0.21828,0.14107 -0.57547,0.24994 -0.79375,0.24194 -0.26168,-0.01 -0.21662,-0.092 0.13229,-0.24194 z m -3.77031,-2.82821 c 0.25466,-0.0666 0.67138,-0.0666 0.92604,0 0.25467,0.0666 0.0463,0.121 -0.46302,0.121 -0.50932,0 -0.71768,-0.0545 -0.46302,-0.121 z m 4.43177,-1.53741 c -0.65314,-0.25152 -0.7655,-0.36255 -0.3813,-0.37675 0.29961,-0.0111 0.77586,0.15468 1.05834,0.36833 0.62094,0.46966 0.52383,0.47087 -0.67704,0.008 z m 9.65729,14.94896 c 0.33355,-0.14333 0.38245,-0.22739 0.1323,-0.22739 -0.21829,0 -0.635,0.10232 -0.92605,0.22739 -0.33354,0.14333 -0.38245,0.22739 -0.13229,0.22739 0.21828,0 0.635,-0.10233 0.92604,-0.22739 z m 5.95313,-0.79375 c 0,0.26169 0.081,0.26219 0.39396,0.002 0.21668,-0.17983 0.34448,-0.40702 0.28401,-0.50487 -0.0605,-0.0978 0.11069,-0.17791 0.38036,-0.17791 0.26968,0 0.4325,0.0935 0.36184,0.20789 -0.25032,0.40503 0.32031,0.20093 0.71331,-0.25513 0.21946,-0.25466 0.91993,-0.90757 1.55661,-1.45091 l 1.15761,-0.98789 -1.03074,-0.43067 c -1.40584,-0.5874 -3.30134,-0.34113 -4.71228,0.61224 -1.29609,0.87577 -1.54385,1.46616 -0.53879,1.28391 0.37743,-0.0684 0.8296,-0.24343 1.00484,-0.38886 0.17524,-0.14544 0.72045,-0.33522 1.21157,-0.42174 0.49113,-0.0865 0.98128,-0.21191 1.08923,-0.27862 0.10794,-0.0667 0.47515,-0.01 0.81601,0.12702 0.42711,0.17114 0.4817,0.25354 0.17563,0.2651 -0.24427,0.009 -0.61191,0.18456 -0.81699,0.38964 -0.24193,0.24193 -0.50407,0.2898 -0.7465,0.13634 -0.32148,-0.2035 -0.32131,-0.23709 0.001,-0.24057 0.20615,-0.002 0.31249,-0.0664 0.2363,-0.14258 -0.0762,-0.0762 -0.33765,-0.0621 -0.58104,0.0313 -0.41095,0.15769 -0.41006,0.19354 0.0125,0.50254 0.41403,0.30275 0.38318,0.36989 -0.34222,0.74501 -0.4385,0.22676 -0.96719,0.62849 -1.17487,0.89275 -0.34524,0.43929 -0.33792,0.44935 0.0854,0.11734 0.35146,-0.27549 0.46315,-0.28363 0.46315,-0.0337 z m -6.74688,-0.26459 c -0.0899,-0.14552 -0.30532,-0.26276 -0.47863,-0.26053 -0.18934,0.002 -0.15671,0.10643 0.0818,0.26053 0.5083,0.32849 0.59989,0.32849 0.39687,0 z m -2.77812,-0.62906 c 0,-0.0549 -0.20836,-0.2633 -0.46302,-0.46302 -0.41965,-0.32911 -0.42901,-0.31975 -0.0999,0.0999 0.34565,0.44073 0.56292,0.58088 0.56292,0.36312 z m -2.11667,-0.55477 c 0,-0.069 -0.38695,-0.31431 -0.85989,-0.54509 l -0.8599,-0.4196 0.66146,0.53922 c 0.63686,0.51915 1.05833,0.68859 1.05833,0.42547 z m -25.79687,-2.38867 c 0.43656,-0.0869 1.41883,-0.35536 2.18281,-0.59652 1.09356,-0.3452 1.38906,-0.55628 1.38906,-0.99223 0,-0.30456 -0.1325,-0.68625 -0.29444,-0.84819 -0.17103,-0.17103 -0.20188,-0.44273 -0.0736,-0.64823 0.12147,-0.19458 0.24274,-0.49787 0.26949,-0.67398 0.065,-0.42815 -1.41881,0.68181 -1.62308,1.21411 -0.0978,0.25495 0.11988,0.16236 0.56118,-0.23868 l 0.72102,-0.65523 -0.42179,0.62568 c -0.23198,0.34413 -0.36312,0.77857 -0.29141,0.96543 0.0717,0.18685 0.005,0.41749 -0.14923,0.51253 -0.1742,0.10767 -0.22158,-0.007 -0.1257,-0.30396 0.10941,-0.33894 -0.0113,-0.28555 -0.41766,0.18469 -0.50029,0.57899 -0.53635,0.58941 -0.28921,0.0835 0.3521,-0.72072 0.35864,-0.95568 0.0208,-0.74687 -0.15713,0.0971 -0.19017,-0.0287 -0.0828,-0.31511 0.16186,-0.43158 0.13023,-0.44036 -0.33376,-0.0926 -0.40376,0.30258 -0.44236,0.30539 -0.18183,0.0132 0.49314,-0.55301 0.39944,-0.9114 -0.13229,-0.506 -0.25466,0.19417 -0.12193,-0.0204 0.29496,-0.4768 0.45812,-0.50154 0.91443,-0.7698 1.15344,-0.67808 0.34267,0.13149 0.33862,0.18356 -0.0304,0.39006 -0.23421,0.13107 -0.42584,0.37221 -0.42584,0.53586 0,0.16366 0.29719,0.0184 0.66041,-0.32287 0.36323,-0.34123 0.60239,-0.67845 0.53147,-0.74938 -0.0709,-0.0709 0.0131,-0.3185 0.18672,-0.55017 0.26434,-0.35273 0.25536,-0.36744 -0.0552,-0.0905 -0.47192,0.42082 -0.88688,0.43012 -0.62977,0.0141 0.25424,-0.41137 -1.22167,0.64022 -1.79683,1.28025 -0.42803,0.47632 -2.33637,3.7226 -2.33637,3.97442 0,0.0686 0.20836,0.0628 0.46302,-0.0129 0.25466,-0.0757 0.82021,-0.20868 1.25677,-0.29561 z m -0.66146,-1.11659 c 0,-0.15365 0.24519,-0.56045 0.54487,-0.90399 l 0.54487,-0.62462 -0.46479,0.79375 c -0.61173,1.04469 -0.62495,1.06023 -0.62495,0.73486 z m 17.87998,-0.13065 c -0.24145,-0.13512 -0.59351,-0.13512 -0.83496,0 -0.31085,0.17396 -0.20422,0.23363 0.41748,0.23363 0.6217,0 0.72833,-0.0597 0.41748,-0.23363 z m -2.13639,-1.26425 c -0.0895,-0.14474 -0.4239,-0.39085 -0.74322,-0.54692 -0.50017,-0.24447 -0.48897,-0.20884 0.0809,0.25727 0.74076,0.60591 0.90114,0.67605 0.66234,0.28965 z m 24.69946,-1.64046 c 0.17146,-0.74283 0.25402,-1.40834 0.18346,-1.4789 -0.2888,-0.28879 -1.81027,0.60903 -2.44722,1.44412 -0.88122,1.15534 -0.6794,1.32223 0.57199,0.47302 0.9676,-0.65664 1.61946,-0.69952 0.98472,-0.0648 -0.43429,0.43429 -0.40293,1.28346 0.0411,1.11307 0.1948,-0.0748 0.49448,-0.74369 0.66595,-1.48652 z m -29.07619,0.71828 c 0.77349,-0.39999 1.86231,-1.59641 1.86231,-2.04636 0,-0.13907 -0.38141,-0.17751 -0.8599,-0.0866 l -0.8599,0.16328 0.66146,-0.39746 c 0.36381,-0.21861 0.84005,-0.40244 1.05834,-0.40852 0.37533,-0.0104 1.32291,-1.35794 1.32291,-1.88122 0,-0.43145 -1.54924,-0.26452 -1.80618,0.19461 -0.29823,0.53289 -1.10423,0.29533 -1.10423,-0.32547 0,-0.24813 0.14784,-0.37675 0.34575,-0.30081 0.62016,0.23798 2.9558,-0.5016 3.04708,-0.96485 0.047,-0.23877 -0.0325,-0.43413 -0.17679,-0.43413 -0.14429,0 -0.45068,-0.0723 -0.68086,-0.16059 -0.23019,-0.0883 -0.41852,-0.0375 -0.41852,0.11289 0,0.15042 0.20836,0.33712 0.46302,0.41489 0.25467,0.0778 0.009,0.0796 -0.54645,0.004 -1.21409,-0.16505 -3.16727,0.68191 -3.8002,1.64789 -0.32595,0.49746 -0.49571,0.5702 -0.78004,0.33423 -0.50065,-0.4155 -0.45518,-0.76572 0.0996,-0.76729 0.25466,-7.1e-4 0.82021,-0.30354 1.25677,-0.67292 l 0.79375,-0.6716 -1.19062,0.17367 c -0.65485,0.0955 -1.32886,0.28504 -1.4978,0.42118 -0.37442,0.3017 -0.68196,-0.0996 -0.47988,-0.62626 0.10659,-0.27779 0.56523,-0.33963 1.89218,-0.25514 0.97134,0.0618 2.41164,-0.0467 3.23359,-0.2438 l 1.48211,-0.35532 -2.11666,-0.16821 c -1.29031,-0.10254 -2.25016,-0.0638 -2.45861,0.0991 -0.63037,0.49283 -0.91667,-0.20169 -0.30962,-0.75107 0.41538,-0.37592 0.60151,-0.41838 0.7538,-0.17197 0.24191,0.39143 2.70646,0.7258 3.38647,0.45946 0.38477,-0.1507 0.27,-0.26185 -0.57829,-0.56002 -0.58209,-0.2046 -1.32623,-0.3738 -1.65365,-0.37599 -0.65151,-0.004 -0.66973,-0.0314 -0.43471,-0.6438 0.19817,-0.51644 0.89773,-0.55536 0.89773,-0.0499 0,0.42303 0.56225,0.68977 1.45397,0.68977 0.52221,0 0.58998,-0.0964 0.44138,-0.62795 -0.0966,-0.34537 -0.55281,-1.06758 -1.01391,-1.60491 -0.75018,-0.87422 -1.00041,-0.99014 -2.37928,-1.10221 -1.51786,-0.12337 -2.86925,0.25875 -2.57855,0.72911 0.0764,0.12359 -0.10628,0.22471 -0.40591,0.22471 -0.29963,0 -0.55966,0.17859 -0.57785,0.39687 -0.0709,0.85042 -0.1105,0.95231 -0.45255,1.16371 -0.19433,0.12011 -0.34316,0.29436 -0.33073,0.38723 0.071,0.53054 -0.0188,0.69802 -0.37428,0.69802 -0.54964,0 -0.49949,0.46355 0.0661,0.61137 0.34716,0.0907 0.3135,0.12868 -0.13453,0.15169 -0.53184,0.0273 -0.56094,0.0898 -0.26459,0.56793 0.27532,0.44422 0.26426,0.58095 -0.0639,0.7897 -0.25894,0.16472 -0.28296,0.25387 -0.0691,0.25651 0.18027,0.002 0.32032,0.27194 0.31123,0.59936 -0.0201,0.72406 0.10151,1.28001 0.37625,1.7198 0.1256,0.20106 0.0708,0.33231 -0.13973,0.33478 -0.2556,0.003 -0.24437,0.0685 0.0429,0.25019 0.21407,0.13538 0.30904,0.32633 0.21104,0.42432 -0.098,0.098 -0.035,0.32801 0.13995,0.51114 0.17498,0.18312 0.47154,0.5559 0.65903,0.8284 0.18749,0.27249 0.42562,0.61779 0.52917,0.76734 0.59785,0.86343 2.56489,1.13994 3.74992,0.52713 z m -1.05342,-1.59918 c -0.42519,-0.51232 -0.26248,-0.67555 0.47988,-0.48142 0.32107,0.084 0.58376,0.31737 0.58376,0.51867 0,0.48868 -0.64593,0.46606 -1.06364,-0.0373 z m -9.51969,1.33631 c 0.21828,-0.004 0.39867,-0.19922 0.40086,-0.43416 0.002,-0.23494 0.1656,-0.62189 0.36313,-0.85989 0.62872,-0.75757 -0.0439,-0.46517 -0.94983,0.41291 -0.85849,0.83209 -1.18914,1.50049 -0.54176,1.09519 0.1819,-0.11388 0.50932,-0.21021 0.7276,-0.21405 z m 1.62125,-0.0731 c 0.32911,-0.41965 0.31975,-0.42901 -0.0999,-0.0999 -0.25466,0.19972 -0.46302,0.40808 -0.46302,0.46302 0,0.21776 0.21728,0.0776 0.56292,-0.36312 z m 13.38834,0.30316 c -0.0879,-0.0879 -0.31612,-0.0973 -0.50712,-0.0209 -0.21106,0.0845 -0.14837,0.14715 0.15986,0.15985 0.27891,0.0115 0.43518,-0.051 0.34726,-0.13896 z m 3.37895,-0.63389 c -0.0899,-0.14552 -0.30532,-0.26276 -0.47863,-0.26053 -0.18934,0.002 -0.15671,0.10642 0.0818,0.26053 0.50829,0.32849 0.59989,0.32849 0.39687,0 z m 15.875,-0.52917 c 0.0899,-0.14552 -0.0367,-0.26458 -0.28137,-0.26458 -0.36545,0 -0.38607,-0.0709 -0.1155,-0.39688 0.26843,-0.32344 0.25428,-0.39687 -0.0765,-0.39687 -0.24391,0 -0.37049,0.18476 -0.31722,0.46302 0.0487,0.25466 0.0977,0.55232 0.10888,0.66146 0.0294,0.28803 0.49045,0.24329 0.6817,-0.0661 z m -14.41979,-0.42518 c 0,-0.0572 -0.17859,-0.10399 -0.39688,-0.10399 -0.21828,0 -0.39687,0.11533 -0.39687,0.25629 0,0.14095 0.17859,0.18774 0.39687,0.10398 0.21829,-0.0838 0.39688,-0.19909 0.39688,-0.25628 z m 12.08106,-1.54554 c -0.6294,-0.50301 -0.6808,-0.62739 -0.31698,-0.767 0.24143,-0.0926 0.36611,-0.0564 0.28079,0.0816 -0.0844,0.13656 0.11778,0.40083 0.44928,0.58729 0.69263,0.38957 1.57943,0.51273 1.38108,0.19181 -0.0736,-0.11912 -0.33839,-0.14327 -0.58839,-0.0537 -0.25,0.0896 -0.36416,0.0635 -0.25369,-0.0581 0.31333,-0.34469 -0.88358,-1.45084 -1.5699,-1.45084 -0.33843,0 -0.61533,-0.11906 -0.61533,-0.26459 0,-0.14552 -0.29206,-0.26458 -0.64901,-0.26458 -0.82822,0 -2.02276,-0.53773 -1.8425,-0.82941 0.0758,-0.12257 -0.0391,-0.15501 -0.25519,-0.0721 -0.21611,0.0829 -0.92696,-0.16218 -1.57966,-0.54469 -1.20311,-0.70507 -1.52923,-0.47814 -0.71785,0.4995 0.3113,0.37511 0.29304,0.40682 -0.14389,0.24992 -0.31393,-0.11273 -0.22095,0.0466 0.24946,0.42756 0.56196,0.45508 0.66329,0.66081 0.40429,0.82088 -0.2682,0.16576 -0.24356,0.25277 0.10999,0.38844 0.25058,0.0961 0.45561,0.2839 0.45561,0.4172 0,0.13331 -0.29766,0.0474 -0.66146,-0.19102 -0.94886,-0.62172 -0.81816,-0.25558 0.1565,0.43844 0.47752,0.34003 1.33097,0.62128 2.05052,0.67575 0.67791,0.0513 1.80006,0.13663 2.49368,0.18958 0.69361,0.0529 1.33854,0.17368 1.43316,0.26831 0.0946,0.0946 0.24149,0.10183 0.32638,0.016 0.0849,-0.0858 -0.18371,-0.42617 -0.59689,-0.75638 z m -1.67412,-0.002 c 0,-0.21188 0.10116,-0.32271 0.22481,-0.2463 0.12364,0.0764 0.1563,0.24977 0.0726,0.38524 -0.21394,0.34617 -0.29738,0.30719 -0.29738,-0.13894 z m -12.33068,-0.30379 c -0.0879,-0.0879 -0.31612,-0.0973 -0.50712,-0.0209 -0.21107,0.0845 -0.14837,0.14716 0.15985,0.15986 0.27892,0.0115 0.43519,-0.0511 0.34727,-0.13897 z M 225.939,149.79211 c 0.21828,-0.14107 0.27782,-0.25648 0.13229,-0.25648 -0.14552,0 -0.44317,0.11541 -0.66145,0.25648 -0.21828,0.14106 -0.27782,0.25648 -0.1323,0.25648 0.14553,0 0.44318,-0.11542 0.66146,-0.25648 z m 14.48043,-0.15985 c -0.0879,-0.0879 -0.31612,-0.0973 -0.50712,-0.0209 -0.21107,0.0845 -0.14837,0.14715 0.15985,0.15985 0.27892,0.0115 0.43519,-0.0511 0.34727,-0.13897 z m -14.55208,-0.79375 c -0.0879,-0.0879 -0.31613,-0.0973 -0.50712,-0.0209 -0.21107,0.0845 -0.14837,0.14715 0.15985,0.15985 0.27891,0.0115 0.43518,-0.0511 0.34727,-0.13897 z m -1.97887,-2.66121 c -0.1819,-0.0734 -0.47955,-0.0734 -0.66146,0 -0.1819,0.0734 -0.0331,0.13345 0.33073,0.13345 0.36381,0 0.51263,-0.0601 0.33073,-0.13345 z m 17.11854,-0.35033 c 0.26304,-0.002 0.29804,-0.0892 0.11132,-0.27594 -0.18671,-0.18672 -0.51527,-0.13744 -1.0451,0.15675 -0.71137,0.39498 -0.72022,0.4169 -0.11132,0.27594 0.3638,-0.0842 0.8341,-0.15476 1.0451,-0.15675 z m -17.56303,-0.23822 c -0.0797,-0.12903 0.0428,-0.39042 0.27223,-0.58086 0.37255,-0.30919 0.35391,-0.36969 -0.17406,-0.565 -0.42159,-0.15595 -0.73459,-0.089 -1.09064,0.23319 -0.48543,0.43931 -0.47881,0.46103 0.23729,0.77811 0.93655,0.4147 0.9273,0.41305 0.75518,0.13456 z m -0.81228,-0.55914 c -0.0899,-0.14552 -0.0374,-0.26459 0.11668,-0.26459 0.15411,0 0.2802,0.11907 0.2802,0.26459 0,0.14552 -0.0525,0.26458 -0.11668,0.26458 -0.0642,0 -0.19026,-0.11906 -0.2802,-0.26458 z m 21.9721,-2.7638 c 0.18141,-1.20971 -0.25902,-3.72714 -0.69973,-3.99951 -0.13089,-0.0809 -0.23799,-0.37116 -0.23799,-0.64503 0,-0.94935 -0.47206,-0.77618 -2.28208,0.83719 l -1.81897,1.62134 1.77086,-1.7761 c 1.09127,-1.09451 1.71501,-1.92163 1.62533,-2.15531 -0.2053,-0.53502 -0.34147,-0.48827 -1.39921,0.48035 -0.85731,0.78506 -0.84802,0.76214 0.10724,-0.26459 0.57524,-0.61827 0.90266,-1.12413 0.72761,-1.12413 -0.17506,0 -0.37782,0 -0.45058,0 -0.0728,0 -0.1395,0.0893 -0.14831,0.19844 -0.009,0.10914 -0.25558,0.45344 -0.54837,0.7651 -0.2928,0.31167 -0.56008,0.75559 -0.59397,0.9865 -0.0339,0.23091 -0.31072,0.69028 -0.61518,1.02084 -0.47937,0.52044 -0.56624,1.00963 -0.37689,2.12235 0.0186,0.10914 0.16678,0.16867 0.32935,0.13229 0.60254,-0.13483 0.43923,0.95991 -0.24725,1.65741 -0.75343,0.76553 -1.11164,1.87225 -0.42027,1.29846 0.20136,-0.16711 0.28949,-0.42781 0.19585,-0.57933 -0.10254,-0.16591 -0.041,-0.19558 0.15479,-0.0746 0.19159,0.11841 0.61247,-0.0549 1.02506,-0.42214 0.48657,-0.43306 0.58144,-0.46675 0.31115,-0.11048 -0.35307,0.46538 -0.34498,0.4961 0.0879,0.33376 0.28641,-0.10741 0.41222,-0.0744 0.31511,0.0828 -0.0889,0.14385 -0.0285,0.26155 0.13417,0.26155 0.17045,0 0.20826,0.14016 0.0892,0.33073 -0.34565,0.55329 -0.31392,0.90399 0.0818,0.90399 0.25538,0 0.28936,-0.0865 0.10602,-0.26979 -0.18333,-0.18333 -0.12256,-0.43814 0.18962,-0.79513 0.27524,-0.31474 0.31044,-0.43769 0.0878,-0.30669 -0.27664,0.16277 -0.31148,0.12368 -0.13634,-0.15296 0.12939,-0.20438 0.23709,-0.45098 0.23932,-0.548 0.002,-0.097 0.11243,-0.2756 0.2449,-0.39687 0.14283,-0.13075 0.15209,-0.0676 0.0228,0.1552 -0.15659,0.26972 -0.10768,0.33332 0.17338,0.22546 0.30001,-0.11512 0.38577,0.0564 0.36696,0.73391 -0.0135,0.48628 -0.10957,0.96918 -0.21351,1.07312 -0.10393,0.10393 -0.0459,0.36137 0.129,0.57209 0.27107,0.32663 0.40479,0.28218 0.90679,-0.30143 0.32385,-0.3765 0.66887,-1.21834 0.76671,-1.87076 z m -4.82433,0.1991 c 0.22241,-0.35987 2.29911,-2.03545 2.29911,-1.85503 0,0.0675 -0.56,0.58153 -1.24445,1.14238 -0.68444,0.56085 -1.15904,0.88154 -1.05466,0.71265 z m 0.73365,-1.47892 c 0.0606,-0.0412 0.34837,-0.24954 0.63941,-0.46302 0.48949,-0.35904 0.50194,-0.35343 0.16604,0.0749 -0.19971,0.25466 -0.48745,0.46302 -0.6394,0.46302 -0.15196,0 -0.22668,-0.0337 -0.16605,-0.0749 z m -0.11792,-0.63837 c -0.19428,-0.19428 1.64462,-2.19718 2.01727,-2.19718 0.12458,0 0.15292,0.11906 0.063,0.26458 -0.22896,0.37047 0.2246,0.33103 0.60854,-0.0529 0.17463,-0.17463 0.3175,-0.24829 0.3175,-0.1637 0,0.0846 -0.44648,0.48759 -0.99218,0.89555 -0.75158,0.56187 -0.86996,0.60157 -0.48816,0.1637 0.27721,-0.31793 0.38496,-0.57805 0.23944,-0.57805 -0.34471,0 -1.18325,0.92723 -1.00224,1.10824 0.0766,0.0766 -0.0234,0.27426 -0.2222,0.43926 -0.19881,0.16499 -0.44223,0.21923 -0.54095,0.12051 z m 2.14199,-0.11334 c 0.17947,-0.18083 0.39297,-0.26212 0.47443,-0.18066 0.0815,0.0815 -0.0654,0.22941 -0.32632,0.32877 -0.37708,0.14358 -0.40748,0.11319 -0.14811,-0.14811 z m -0.48037,-0.32268 c 0.37864,-0.47153 1.34467,-1.09112 1.34467,-0.86244 0,0.068 -0.38695,0.39493 -0.85989,0.72657 -0.61011,0.42783 -0.75093,0.4673 -0.48478,0.13587 z m -1.56574,-1.62887 c 0.49365,-0.50932 0.95708,-0.92604 1.02984,-0.92604 0.0728,0 -0.27161,0.41672 -0.76526,0.92604 -0.49366,0.50933 -0.95709,0.92604 -1.02985,0.92604 -0.0728,0 0.27161,-0.41671 0.76527,-0.92604 z m 0.40718,5.14799 c 0.47599,-0.52597 0.47593,-0.53546 -0.002,-0.35191 -0.35427,0.13594 -0.43478,0.0967 -0.28821,-0.14044 0.15252,-0.24679 0.0641,-0.24212 -0.35347,0.0187 -0.30626,0.19127 -0.55684,0.44521 -0.55684,0.56432 0,0.1191 0.11906,0.14297 0.26458,0.053 0.14552,-0.0899 0.26458,-0.0374 0.26458,0.11668 0,0.3981 0.11686,0.35281 0.67177,-0.26036 z m 1.88587,-0.1608 c 0,-0.26048 -0.0892,-0.27458 -0.35278,-0.0558 -0.19402,0.16103 -0.35277,0.31789 -0.35277,0.34858 0,0.0307 0.15875,0.0558 0.35277,0.0558 0.19403,0 0.35278,-0.15686 0.35278,-0.34858 z m -3.58196,-4.92104 c 0.28763,-0.53981 0.27617,-0.56146 -0.12298,-0.23219 -0.24211,0.19972 -0.4402,0.46761 -0.4402,0.59531 0,0.40415 0.23512,0.25255 0.56318,-0.36312 z m -11.49494,-0.77722 c -0.0845,-0.21106 -0.14715,-0.14837 -0.15985,0.15986 -0.0115,0.27891 0.0511,0.43518 0.13897,0.34726 0.0879,-0.0879 0.0973,-0.31612 0.0209,-0.50712 z m 5.89658,-0.61184 c 0,-0.14553 -0.11542,-0.086 -0.25648,0.13229 -0.14107,0.21828 -0.25648,0.51593 -0.25648,0.66146 0,0.14552 0.11541,0.086 0.25648,-0.1323 0.14106,-0.21828 0.25648,-0.51593 0.25648,-0.66145 z m 7.81284,-1.41158 c -0.18482,-0.18482 0.42194,-0.85341 0.64781,-0.71382 0.10478,0.0648 0.19051,-0.0505 0.19051,-0.25611 0,-0.6011 -0.61747,-0.66792 -1.11294,-0.12043 -0.2514,0.27779 -0.56319,0.43951 -0.69287,0.35936 -0.12968,-0.0801 -0.21873,-0.0476 -0.19789,0.0724 0.0208,0.11996 0.0136,0.27763 -0.0162,0.35039 -0.0297,0.0728 -0.0825,0.52156 -0.11731,0.99732 l -0.0633,0.86503 0.74468,-0.71345 c 0.40957,-0.39239 0.68742,-0.7707 0.61744,-0.84068 z m -0.79328,0.48553 c 0.26339,-0.29104 0.53842,-0.52916 0.61118,-0.52916 0.0728,0 -0.0832,0.23812 -0.3466,0.52916 -0.26339,0.29105 -0.53842,0.52917 -0.61118,0.52917 -0.0728,0 0.0832,-0.23812 0.3466,-0.52917 z m 0,-0.79375 c 0.26339,-0.29104 0.53842,-0.52916 0.61118,-0.52916 0.0728,0 -0.0832,0.23812 -0.3466,0.52916 -0.26339,0.29105 -0.53842,0.52917 -0.61118,0.52917 -0.0728,0 0.0832,-0.23812 0.3466,-0.52917 z m 24.23026,36.62275 c 0.0127,-0.30823 0.0754,-0.37092 0.15985,-0.15985 0.0764,0.19099 0.067,0.41919 -0.0209,0.50711 -0.0879,0.0879 -0.15046,-0.0683 -0.13897,-0.34726 z m 0.81373,-0.7717 c -0.0265,-0.43657 -0.11419,-1.09141 -0.19498,-1.45521 -0.12632,-0.56889 -0.10511,-0.59602 0.15161,-0.19388 0.16417,0.25717 0.2519,0.91202 0.19497,1.45521 -0.0894,0.85266 -0.11008,0.87915 -0.1516,0.19388 z m -1.04762,-1.32292 c 0.005,-0.43656 0.0647,-0.58313 0.13177,-0.32569 0.0671,0.25743 0.0627,0.61462 -0.01,0.79375 -0.0725,0.17913 -0.12737,-0.0315 -0.12197,-0.46806 z m -16.45575,0.003 c 0,-0.0713 0.68461,-0.57729 1.52136,-1.12448 0.83674,-0.54719 1.65212,-1.1619 1.81194,-1.36604 0.17115,-0.21859 0.43064,-0.2846 0.63131,-0.16058 0.25553,0.15793 0.18288,0.33193 -0.2906,0.696 -0.34721,0.26698 -0.71463,0.48807 -0.81647,0.49131 -0.10185,0.003 -0.71443,0.36307 -1.36129,0.79963 -1.1461,0.7735 -1.49625,0.92892 -1.49625,0.66416 z m -28.62461,-19.36573 c 0.191,-0.0764 0.4192,-0.067 0.50712,0.0209 0.0879,0.0879 -0.0683,0.15045 -0.34726,0.13896 -0.30823,-0.0127 -0.37092,-0.0754 -0.15986,-0.15985 z m 3.09232,-1.14218 c 0.0899,-0.14552 0.28259,-0.26458 0.42811,-0.26458 0.14552,0 0.191,0.11906 0.10106,0.26458 -0.0899,0.14552 -0.28259,0.26458 -0.42811,0.26458 -0.14552,0 -0.191,-0.11906 -0.10106,-0.26458 z m 1.14102,-1.23907 c 0.19099,-0.0764 0.4192,-0.067 0.50712,0.0209 0.0879,0.0879 -0.0684,0.15045 -0.34727,0.13896 -0.30822,-0.0127 -0.37092,-0.0754 -0.15985,-0.15985 z m -1.93477,-1.40676 c 0.0899,-0.14552 0.28259,-0.26459 0.42811,-0.26459 0.14552,0 0.191,0.11907 0.10106,0.26459 -0.0899,0.14552 -0.28259,0.26458 -0.42811,0.26458 -0.14552,0 -0.191,-0.11906 -0.10106,-0.26458 z m 1.81606,-5.68702 c -0.0834,-0.21745 -0.25694,-0.33033 -0.38554,-0.25085 -0.12861,0.0795 -0.16096,-0.0454 -0.0719,-0.27751 0.1833,-0.47768 0.17843,-0.48034 0.59921,0.3284 0.17035,0.32742 0.24227,0.59531 0.15982,0.59531 -0.0824,0 -0.21817,-0.17791 -0.30161,-0.39535 z m 0.87387,-0.0456 c -0.28951,-0.28951 -0.20107,-0.52917 0.19526,-0.52917 0.20441,0 0.31073,0.15875 0.23628,0.35278 -0.15502,0.40396 -0.18976,0.41817 -0.43154,0.17639 z m -1.47842,-1.56545 c 0.0127,-0.30823 0.0754,-0.37092 0.15986,-0.15986 0.0764,0.191 0.067,0.4192 -0.0209,0.50712 -0.0879,0.0879 -0.15045,-0.0684 -0.13897,-0.34726 z m 0.50828,-2.59256 c 0,-0.21828 0.11907,-0.47046 0.26459,-0.56039 0.14552,-0.0899 0.26458,0.0151 0.26458,0.23335 0,0.21828 -0.11906,0.47046 -0.26458,0.5604 -0.14552,0.0899 -0.26459,-0.0151 -0.26459,-0.23336 z m 2.44264,-1.22185 c 0,-0.50933 0.0544,-0.71769 0.121,-0.46302 0.0665,0.25466 0.0665,0.67138 0,0.92604 -0.0666,0.25466 -0.121,0.0463 -0.121,-0.46302 z m 1.31311,-1.98438 c 0.005,-0.43656 0.0647,-0.58312 0.13177,-0.32569 0.0671,0.25743 0.0627,0.61462 -0.01,0.79375 -0.0725,0.17913 -0.12736,-0.0315 -0.12197,-0.46806 z m -1.08903,-0.0221 c 0.0127,-0.30822 0.0754,-0.37092 0.15986,-0.15985 0.0764,0.191 0.067,0.4192 -0.0209,0.50712 -0.0879,0.0879 -0.15045,-0.0684 -0.13897,-0.34727 z m 4.67649,-1.47725 c 0.15938,-0.6095 0.23545,-0.6095 0.39484,0 0.0721,0.27551 -0.0132,0.48507 -0.19742,0.48507 -0.18418,0 -0.26947,-0.20956 -0.19742,-0.48507 z m -0.99321,-0.22049 c 0,-0.14552 0.12609,-0.26458 0.2802,-0.26458 0.15411,0 0.20661,0.11906 0.11668,0.26458 -0.0899,0.14552 -0.21603,0.26458 -0.2802,0.26458 -0.0642,0 -0.11668,-0.11906 -0.11668,-0.26458 z"
       id="path27912" />
  </g>
</svg>
